0, 0, Header, 0, 1, 480
1, 0, Start_track
1, 0, Title_t, "Paganini Var.   Ali Hireche"
1, 0, Text_t, "Brahms Variations on a Theme by Paganini, Opus 35 performed on the Yamaha Disklavier by Ali Hireche--06/10/02\015"
1, 0, SMPTE_offset, 96, 0, 0, 0, 0
1, 0, Time_signature, 4, 2, 24, 8
1, 0, Tempo, 512820
1, 0, System_exclusive, 5, 126, 127, 9, 1, 247
1, 1, System_exclusive, 8, 67, 16, 76, 0, 0, 126, 0, 247
1, 2, System_exclusive, 6, 67, 113, 126, 10, 0, 247
1, 5, Control_c, 0, 0, 0
1, 6, Control_c, 0, 32, 0
1, 7, Program_c, 0, 0
1, 8, Control_c, 0, 7, 100
1, 2077, Control_c, 0, 64, 14
1, 2077, Control_c, 1, 64, 14
1, 2093, Control_c, 1, 64, 19
1, 2093, Control_c, 0, 64, 19
1, 2674, Control_c, 0, 64, 15
1, 2674, Control_c, 1, 64, 15
1, 3516, Control_c, 1, 64, 10
1, 3516, Control_c, 0, 64, 10
1, 3592, Control_c, 0, 64, 0
1, 3592, Control_c, 1, 64, 0
1, 4118, Note_on_c, 0, 81, 70
1, 4137, Note_on_c, 0, 76, 69
1, 4153, Control_c, 0, 64, 41
1, 4153, Control_c, 1, 64, 41
1, 4171, Control_c, 1, 64, 127
1, 4171, Control_c, 0, 64, 127
1, 4177, Note_on_c, 0, 57, 74
1, 4180, Note_off_c, 0, 81, 62
1, 4192, Note_on_c, 0, 69, 83
1, 4204, Note_off_c, 0, 76, 63
1, 4208, Note_off_c, 0, 57, 68
1, 4235, Note_off_c, 0, 69, 60
1, 4471, Control_c, 0, 64, 114
1, 4471, Control_c, 1, 64, 114
1, 4490, Control_c, 1, 64, 67
1, 4490, Control_c, 0, 64, 67
1, 4504, Note_on_c, 0, 69, 67
1, 4507, Control_c, 0, 64, 17
1, 4507, Control_c, 1, 64, 17
1, 4509, Note_on_c, 0, 57, 60
1, 4526, Control_c, 0, 64, 0
1, 4526, Control_c, 1, 64, 0
1, 4547, Note_off_c, 0, 57, 65
1, 4548, Note_off_c, 0, 69, 60
1, 4602, Note_on_c, 0, 69, 65
1, 4620, Note_on_c, 0, 57, 69
1, 4695, Note_off_c, 0, 69, 56
1, 4697, Note_on_c, 0, 72, 77
1, 4708, Note_on_c, 0, 60, 75
1, 4712, Note_off_c, 0, 57, 62
1, 4796, Note_off_c, 0, 60, 58
1, 4798, Note_off_c, 0, 72, 62
1, 4798, Note_on_c, 0, 71, 79
1, 4807, Note_on_c, 0, 59, 67
1, 4876, Note_off_c, 0, 71, 64
1, 4881, Note_on_c, 0, 69, 79
1, 4907, Note_off_c, 0, 59, 62
1, 4907, Note_on_c, 0, 57, 58
1, 4931, Note_off_c, 0, 69, 61
1, 4998, Note_off_c, 0, 57, 63
1, 5008, Note_on_c, 0, 88, 79
1, 5032, Note_on_c, 0, 64, 83
1, 5044, Note_on_c, 0, 83, 78
1, 5050, Control_c, 0, 64, 45
1, 5050, Control_c, 1, 64, 45
1, 5058, Note_off_c, 0, 88, 67
1, 5068, Note_off_c, 0, 64, 66
1, 5070, Control_c, 0, 64, 127
1, 5070, Control_c, 1, 64, 127
1, 5075, Note_on_c, 0, 76, 87
1, 5092, Note_off_c, 0, 83, 61
1, 5128, Note_off_c, 0, 76, 66
1, 5400, Note_on_c, 0, 64, 69
1, 5401, Note_on_c, 0, 52, 63
1, 5446, Note_off_c, 0, 52, 62
1, 5463, Control_c, 0, 64, 87
1, 5463, Control_c, 1, 64, 87
1, 5482, Control_c, 1, 64, 49
1, 5482, Control_c, 0, 64, 49
1, 5500, Control_c, 0, 64, 0
1, 5500, Control_c, 1, 64, 0
1, 5509, Note_on_c, 0, 52, 67
1, 5593, Note_on_c, 0, 68, 77
1, 5604, Note_off_c, 0, 64, 60
1, 5609, Note_off_c, 0, 52, 60
1, 5614, Note_on_c, 0, 56, 73
1, 5697, Note_on_c, 0, 66, 78
1, 5712, Note_off_c, 0, 68, 61
1, 5716, Note_on_c, 0, 54, 65
1, 5717, Note_off_c, 0, 56, 58
1, 5764, Note_off_c, 0, 66, 65
1, 5779, Note_on_c, 0, 64, 76
1, 5810, Note_on_c, 0, 52, 57
1, 5811, Note_off_c, 0, 54, 61
1, 5824, Note_off_c, 0, 64, 63
1, 5889, Note_on_c, 0, 81, 82
1, 5901, Note_off_c, 0, 52, 61
1, 5916, Note_on_c, 0, 57, 79
1, 5922, Note_on_c, 0, 76, 70
1, 5929, Control_c, 0, 64, 20
1, 5929, Control_c, 1, 64, 20
1, 5949, Note_off_c, 0, 81, 62
1, 5949, Control_c, 0, 64, 119
1, 5949, Control_c, 1, 64, 119
1, 5953, Note_off_c, 0, 57, 69
1, 5960, Note_on_c, 0, 69, 82
1, 5968, Control_c, 0, 64, 127
1, 5968, Control_c, 1, 64, 127
1, 5976, Note_off_c, 0, 76, 64
1, 6017, Note_off_c, 0, 69, 62
1, 6251, Note_on_c, 0, 69, 70
1, 6253, Note_on_c, 0, 57, 68
1, 6268, Control_c, 0, 64, 118
1, 6268, Control_c, 1, 64, 118
1, 6288, Control_c, 1, 64, 73
1, 6288, Control_c, 0, 64, 73
1, 6294, Note_off_c, 0, 57, 65
1, 6300, Note_off_c, 0, 69, 59
1, 6305, Control_c, 0, 64, 33
1, 6305, Control_c, 1, 64, 33
1, 6324, Control_c, 1, 64, 0
1, 6324, Control_c, 0, 64, 0
1, 6343, Note_on_c, 0, 69, 65
1, 6358, Note_on_c, 0, 57, 72
1, 6416, Note_off_c, 0, 69, 56
1, 6451, Note_on_c, 0, 72, 79
1, 6459, Note_on_c, 0, 60, 78
1, 6465, Note_off_c, 0, 57, 62
1, 6542, Note_off_c, 0, 60, 60
1, 6544, Note_off_c, 0, 72, 62
1, 6551, Note_on_c, 0, 59, 72
1, 6551, Note_on_c, 0, 71, 80
1, 6621, Note_off_c, 0, 71, 64
1, 6623, Note_on_c, 0, 69, 80
1, 6653, Note_on_c, 0, 57, 58
1, 6654, Note_off_c, 0, 59, 62
1, 6679, Note_off_c, 0, 69, 63
1, 6760, Note_on_c, 0, 88, 82
1, 6763, Note_off_c, 0, 57, 64
1, 6784, Note_on_c, 0, 64, 88
1, 6793, Note_on_c, 0, 83, 81
1, 6810, Control_c, 0, 64, 22
1, 6810, Control_c, 1, 64, 22
1, 6825, Note_off_c, 0, 88, 63
1, 6826, Note_on_c, 0, 76, 86
1, 6829, Control_c, 0, 64, 100
1, 6829, Control_c, 1, 64, 100
1, 6833, Note_off_c, 0, 64, 66
1, 6847, Control_c, 0, 64, 127
1, 6847, Control_c, 1, 64, 127
1, 6855, Note_off_c, 0, 83, 65
1, 6885, Note_off_c, 0, 76, 64
1, 7299, Note_on_c, 0, 52, 61
1, 7299, Note_on_c, 0, 64, 60
1, 7330, Note_off_c, 0, 64, 67
1, 7342, Note_off_c, 0, 52, 62
1, 7410, Control_c, 0, 64, 83
1, 7410, Control_c, 1, 64, 83
1, 7430, Control_c, 1, 64, 49
1, 7430, Control_c, 0, 64, 49
1, 7465, Control_c, 0, 64, 0
1, 7465, Control_c, 1, 64, 0
1, 7665, Note_on_c, 0, 81, 59
1, 7709, Control_c, 0, 64, 40
1, 7709, Control_c, 1, 64, 40
1, 7710, Control_c, 1, 67, 11
1, 7710, Control_c, 0, 67, 11
1, 7713, Note_on_c, 0, 76, 41
1, 7717, Note_off_c, 0, 81, 60
1, 7729, Control_c, 0, 64, 68
1, 7729, Control_c, 1, 64, 68
1, 7732, Control_c, 1, 67, 19
1, 7732, Control_c, 0, 67, 19
1, 7746, Control_c, 0, 64, 84
1, 7746, Control_c, 1, 64, 84
1, 7749, Control_c, 1, 67, 32
1, 7749, Note_on_c, 0, 69, 72
1, 7749, Control_c, 0, 67, 32
1, 7765, Control_c, 0, 64, 127
1, 7765, Control_c, 1, 64, 127
1, 7767, Control_c, 1, 67, 47
1, 7767, Control_c, 0, 67, 47
1, 7768, Note_off_c, 0, 76, 49
1, 7777, Note_on_c, 0, 57, 65
1, 7783, Control_c, 0, 67, 63
1, 7783, Control_c, 1, 67, 63
1, 7802, Note_off_c, 0, 69, 57
1, 7803, Control_c, 0, 67, 80
1, 7803, Control_c, 1, 67, 80
1, 7813, Note_off_c, 0, 57, 66
1, 7822, Control_c, 0, 67, 101
1, 7822, Control_c, 1, 67, 101
1, 7840, Control_c, 1, 67, 124
1, 7840, Control_c, 0, 67, 124
1, 8083, Control_c, 0, 64, 74
1, 8083, Control_c, 1, 64, 74
1, 8092, Note_on_c, 0, 57, 59
1, 8093, Note_on_c, 0, 69, 60
1, 8101, Control_c, 0, 64, 34
1, 8101, Control_c, 1, 64, 34
1, 8119, Note_off_c, 0, 57, 59
1, 8119, Control_c, 0, 64, 0
1, 8119, Control_c, 1, 64, 0
1, 8133, Note_off_c, 0, 69, 63
1, 8178, Note_on_c, 0, 69, 63
1, 8204, Note_on_c, 0, 57, 58
1, 8283, Note_off_c, 0, 69, 53
1, 8288, Note_on_c, 0, 72, 74
1, 8289, Note_off_c, 0, 57, 61
1, 8296, Note_on_c, 0, 60, 67
1, 8393, Note_off_c, 0, 60, 55
1, 8394, Note_off_c, 0, 72, 63
1, 8397, Note_on_c, 0, 59, 61
1, 8403, Note_on_c, 0, 71, 71
1, 8459, Note_off_c, 0, 71, 62
1, 8473, Note_on_c, 0, 69, 72
1, 8480, Note_off_c, 0, 59, 61
1, 8491, Note_on_c, 0, 57, 48
1, 8518, Note_off_c, 0, 69, 62
1, 8579, Note_off_c, 0, 57, 63
1, 8598, Note_on_c, 0, 88, 74
1, 8622, Note_on_c, 0, 64, 73
1, 8643, Note_on_c, 0, 83, 71
1, 8645, Control_c, 0, 64, 63
1, 8645, Control_c, 1, 64, 63
1, 8647, Note_off_c, 0, 88, 65
1, 8651, Note_off_c, 0, 64, 68
1, 8663, Control_c, 0, 64, 98
1, 8663, Control_c, 1, 64, 98
1, 8671, Note_on_c, 0, 76, 78
1, 8674, Note_off_c, 0, 83, 66
1, 8681, Control_c, 0, 64, 127
1, 8681, Control_c, 1, 64, 127
1, 8723, Note_off_c, 0, 76, 62
1, 9000, Note_on_c, 0, 52, 58
1, 9004, Note_on_c, 0, 64, 69
1, 9039, Control_c, 0, 64, 91
1, 9039, Control_c, 1, 64, 91
1, 9040, Note_off_c, 0, 52, 65
1, 9044, Note_off_c, 0, 64, 64
1, 9057, Control_c, 0, 64, 52
1, 9057, Control_c, 1, 64, 52
1, 9075, Control_c, 1, 64, 0
1, 9075, Control_c, 0, 64, 0
1, 9106, Note_on_c, 0, 64, 65
1, 9109, Note_on_c, 0, 52, 70
1, 9180, Note_off_c, 0, 64, 51
1, 9189, Note_off_c, 0, 52, 48
1, 9193, Note_on_c, 0, 68, 74
1, 9210, Note_on_c, 0, 56, 67
1, 9294, Note_off_c, 0, 68, 63
1, 9297, Note_on_c, 0, 66, 75
1, 9300, Note_on_c, 0, 54, 59
1, 9308, Note_off_c, 0, 56, 57
1, 9351, Note_off_c, 0, 66, 62
1, 9369, Note_on_c, 0, 64, 74
1, 9398, Note_off_c, 0, 54, 61
1, 9410, Note_on_c, 0, 52, 49
1, 9413, Note_off_c, 0, 64, 65
1, 9488, Note_on_c, 0, 81, 72
1, 9495, Note_off_c, 0, 52, 60
1, 9517, Note_on_c, 0, 57, 65
1, 9520, Note_on_c, 0, 76, 73
1, 9523, Control_c, 0, 64, 19
1, 9523, Control_c, 1, 64, 19
1, 9541, Note_off_c, 0, 81, 59
1, 9544, Control_c, 0, 64, 83
1, 9544, Control_c, 1, 64, 83
1, 9552, Note_off_c, 0, 57, 67
1, 9562, Control_c, 0, 64, 127
1, 9562, Control_c, 1, 64, 127
1, 9566, Note_on_c, 0, 69, 78
1, 9575, Note_off_c, 0, 76, 62
1, 9602, Note_off_c, 0, 69, 60
1, 9861, Note_on_c, 0, 57, 63
1, 9864, Note_on_c, 0, 69, 72
1, 9895, Note_off_c, 0, 57, 68
1, 9900, Note_off_c, 0, 69, 57
1, 9919, Control_c, 0, 64, 89
1, 9919, Control_c, 1, 64, 89
1, 9937, Control_c, 1, 64, 57
1, 9937, Control_c, 0, 64, 57
1, 9956, Control_c, 0, 64, 15
1, 9956, Control_c, 1, 64, 15
1, 9963, Note_on_c, 0, 69, 68
1, 9971, Note_on_c, 0, 57, 69
1, 9975, Control_c, 0, 64, 0
1, 9975, Control_c, 1, 64, 0
1, 10056, Note_off_c, 0, 57, 61
1, 10058, Note_off_c, 0, 69, 52
1, 10065, Note_on_c, 0, 72, 77
1, 10078, Note_on_c, 0, 60, 67
1, 10161, Note_off_c, 0, 72, 60
1, 10161, Control_c, 0, 67, 117
1, 10161, Control_c, 1, 67, 117
1, 10166, Note_off_c, 0, 60, 58
1, 10166, Note_on_c, 0, 59, 61
1, 10170, Note_on_c, 0, 71, 76
1, 10198, Control_c, 0, 67, 111
1, 10198, Control_c, 1, 67, 111
1, 10236, Note_off_c, 0, 71, 64
1, 10243, Note_on_c, 0, 69, 79
1, 10263, Note_off_c, 0, 59, 61
1, 10271, Note_on_c, 0, 57, 51
1, 10293, Control_c, 0, 67, 107
1, 10293, Control_c, 1, 67, 107
1, 10298, Note_off_c, 0, 69, 60
1, 10379, Note_on_c, 0, 88, 78
1, 10381, Note_off_c, 0, 57, 63
1, 10385, Control_c, 0, 67, 103
1, 10385, Control_c, 1, 67, 103
1, 10414, Note_on_c, 0, 64, 76
1, 10422, Note_on_c, 0, 83, 71
1, 10423, Control_c, 0, 64, 21
1, 10423, Control_c, 1, 64, 21
1, 10432, Note_off_c, 0, 88, 65
1, 10441, Control_c, 0, 64, 72
1, 10441, Control_c, 1, 64, 72
1, 10446, Note_on_c, 0, 76, 81
1, 10459, Note_off_c, 0, 64, 61
1, 10460, Control_c, 0, 64, 102
1, 10460, Control_c, 1, 64, 102
1, 10463, Control_c, 1, 67, 96
1, 10463, Control_c, 0, 67, 96
1, 10473, Note_off_c, 0, 83, 62
1, 10479, Control_c, 0, 64, 127
1, 10479, Control_c, 1, 64, 127
1, 10481, Control_c, 1, 67, 91
1, 10481, Control_c, 0, 67, 91
1, 10498, Control_c, 0, 67, 85
1, 10498, Control_c, 1, 67, 85
1, 10503, Note_off_c, 0, 76, 63
1, 10517, Control_c, 0, 67, 78
1, 10517, Control_c, 1, 67, 78
1, 10535, Control_c, 1, 67, 73
1, 10535, Control_c, 0, 67, 73
1, 10573, Control_c, 0, 67, 68
1, 10573, Control_c, 1, 67, 68
1, 10760, Control_c, 1, 67, 59
1, 10760, Control_c, 0, 67, 59
1, 10780, Control_c, 0, 67, 51
1, 10780, Control_c, 1, 67, 51
1, 10798, Control_c, 1, 67, 42
1, 10798, Control_c, 0, 67, 42
1, 10816, Control_c, 0, 67, 35
1, 10816, Control_c, 1, 67, 35
1, 10836, Control_c, 1, 67, 28
1, 10836, Control_c, 0, 67, 28
1, 10853, Control_c, 0, 67, 20
1, 10853, Control_c, 1, 67, 20
1, 10872, Control_c, 1, 67, 9
1, 10872, Control_c, 0, 67, 9
1, 10892, Control_c, 0, 67, 0
1, 10892, Control_c, 1, 67, 0
1, 10941, Note_on_c, 0, 52, 63
1, 10949, Note_on_c, 0, 64, 56
1, 10985, Note_off_c, 0, 52, 64
1, 10985, Note_off_c, 0, 64, 62
1, 11135, Control_c, 0, 64, 79
1, 11135, Control_c, 1, 64, 79
1, 11154, Control_c, 1, 64, 32
1, 11154, Control_c, 0, 64, 32
1, 11172, Control_c, 0, 64, 0
1, 11172, Control_c, 1, 64, 0
1, 11338, Note_on_c, 0, 57, 66
1, 11367, Note_on_c, 0, 93, 78
1, 11375, Note_on_c, 0, 64, 67
1, 11384, Note_on_c, 0, 88, 70
1, 11415, Control_c, 0, 64, 15
1, 11415, Control_c, 1, 64, 15
1, 11426, Note_off_c, 0, 57, 63
1, 11432, Note_on_c, 0, 81, 97
1, 11432, Note_on_c, 0, 69, 96
1, 11433, Control_c, 0, 64, 127
1, 11433, Control_c, 1, 64, 127
1, 11445, Note_off_c, 0, 93, 63
1, 11459, Note_off_c, 0, 64, 62
1, 11465, Note_off_c, 0, 88, 65
1, 11481, Note_off_c, 0, 69, 64
1, 11502, Note_off_c, 0, 81, 63
1, 11778, Note_on_c, 0, 81, 80
1, 11786, Note_on_c, 0, 69, 66
1, 11818, Note_off_c, 0, 69, 65
1, 11836, Note_off_c, 0, 81, 62
1, 11879, Note_on_c, 0, 81, 67
1, 11882, Control_c, 0, 64, 97
1, 11882, Control_c, 1, 64, 97
1, 11887, Note_on_c, 0, 69, 79
1, 11903, Control_c, 0, 64, 61
1, 11903, Control_c, 1, 64, 61
1, 11922, Control_c, 1, 64, 21
1, 11922, Control_c, 0, 64, 21
1, 11939, Control_c, 0, 64, 0
1, 11939, Control_c, 1, 64, 0
1, 11960, Note_off_c, 0, 81, 54
1, 11978, Note_off_c, 0, 69, 57
1, 11980, Note_on_c, 0, 70, 77
1, 11981, Note_on_c, 0, 82, 77
1, 12065, Note_off_c, 0, 70, 63
1, 12088, Note_on_c, 0, 81, 76
1, 12100, Note_off_c, 0, 82, 65
1, 12100, Poly_aftertouch_c, 0, 82, 0
1, 12108, Note_on_c, 0, 69, 75
1, 12164, Note_on_c, 0, 79, 78
1, 12166, Note_off_c, 0, 81, 60
1, 12195, Note_off_c, 0, 69, 52
1, 12215, Note_on_c, 0, 67, 70
1, 12221, Note_off_c, 0, 79, 63
1, 12221, Poly_aftertouch_c, 0, 79, 0
1, 12277, Note_on_c, 0, 89, 75
1, 12301, Note_on_c, 0, 81, 80
1, 12309, Note_off_c, 0, 67, 63
1, 12314, Note_on_c, 0, 65, 68
1, 12315, Note_on_c, 0, 62, 68
1, 12332, Control_c, 0, 64, 52
1, 12332, Control_c, 1, 64, 52
1, 12336, Note_off_c, 0, 89, 63
1, 12344, Note_on_c, 0, 77, 88
1, 12351, Note_off_c, 0, 65, 66
1, 12351, Control_c, 0, 64, 127
1, 12351, Control_c, 1, 64, 127
1, 12352, Note_off_c, 0, 81, 63
1, 12375, Note_off_c, 0, 62, 61
1, 12390, Note_off_c, 0, 77, 65
1, 12612, Poly_aftertouch_c, 0, 78, 127
1, 12644, Poly_aftertouch_c, 0, 78, 0
1, 12678, Note_on_c, 0, 74, 73
1, 12681, Note_on_c, 0, 62, 71
1, 12708, Control_c, 0, 64, 98
1, 12708, Control_c, 1, 64, 98
1, 12717, Note_off_c, 0, 62, 59
1, 12725, Note_off_c, 0, 74, 60
1, 12725, Control_c, 0, 64, 64
1, 12725, Control_c, 1, 64, 64
1, 12744, Control_c, 1, 64, 28
1, 12744, Control_c, 0, 64, 28
1, 12764, Control_c, 0, 64, 0
1, 12764, Control_c, 1, 64, 0
1, 12771, Note_on_c, 0, 74, 63
1, 12784, Note_on_c, 0, 62, 70
1, 12862, Note_on_c, 0, 77, 81
1, 12875, Note_off_c, 0, 74, 58
1, 12880, Note_on_c, 0, 65, 81
1, 12888, Note_off_c, 0, 62, 62
1, 12960, Note_off_c, 0, 65, 60
1, 12966, Note_on_c, 0, 64, 72
1, 12970, Note_on_c, 0, 76, 81
1, 12978, Note_off_c, 0, 77, 63
1, 13045, Note_on_c, 0, 62, 65
1, 13048, Note_on_c, 0, 74, 84
1, 13050, Note_off_c, 0, 76, 64
1, 13059, Note_off_c, 0, 64, 61
1, 13093, Note_off_c, 0, 62, 63
1, 13106, Note_off_c, 0, 74, 65
1, 13180, Note_on_c, 0, 91, 87
1, 13193, Note_on_c, 0, 55, 80
1, 13205, Note_on_c, 0, 86, 83
1, 13212, Note_on_c, 0, 62, 59
1, 13231, Control_c, 0, 64, 127
1, 13231, Control_c, 1, 64, 127
1, 13237, Note_on_c, 0, 79, 89
1, 13245, Note_off_c, 0, 91, 63
1, 13246, Note_on_c, 0, 67, 87
1, 13258, Note_off_c, 0, 55, 59
1, 13271, Note_off_c, 0, 62, 59
1, 13277, Note_off_c, 0, 86, 64
1, 13277, Poly_aftertouch_c, 0, 86, 0
1, 13296, Note_off_c, 0, 67, 66
1, 13309, Note_off_c, 0, 79, 66
1, 13309, Poly_aftertouch_c, 0, 79, 0
1, 13360, Poly_aftertouch_c, 0, 69, 0
1, 13522, Poly_aftertouch_c, 0, 82, 127
1, 13569, Poly_aftertouch_c, 0, 82, 0
1, 13585, Note_on_c, 0, 79, 74
1, 13595, Note_on_c, 0, 67, 63
1, 13627, Note_off_c, 0, 67, 69
1, 13639, Note_off_c, 0, 79, 58
1, 13639, Poly_aftertouch_c, 0, 79, 0
1, 13672, Note_on_c, 0, 79, 65
1, 13692, Note_on_c, 0, 67, 73
1, 13699, Control_c, 0, 64, 97
1, 13699, Control_c, 1, 64, 97
1, 13718, Control_c, 1, 64, 57
1, 13718, Control_c, 0, 64, 57
1, 13748, Note_off_c, 0, 79, 56
1, 13748, Poly_aftertouch_c, 0, 79, 0
1, 13754, Control_c, 0, 64, 0
1, 13754, Control_c, 1, 64, 0
1, 13776, Note_off_c, 0, 67, 61
1, 13778, Note_on_c, 0, 81, 74
1, 13781, Note_on_c, 0, 69, 76
1, 13853, Note_off_c, 0, 69, 61
1, 13877, Note_on_c, 0, 79, 80
1, 13879, Note_off_c, 0, 81, 63
1, 13896, Note_on_c, 0, 67, 80
1, 13957, Note_off_c, 0, 79, 62
1, 13957, Poly_aftertouch_c, 0, 79, 0
1, 13964, Note_on_c, 0, 77, 73
1, 13979, Note_off_c, 0, 67, 55
1, 14005, Note_on_c, 0, 65, 65
1, 14025, Note_off_c, 0, 77, 60
1, 14075, Note_on_c, 0, 88, 76
1, 14101, Note_on_c, 0, 79, 78
1, 14117, Note_off_c, 0, 65, 60
1, 14117, Note_on_c, 0, 64, 74
1, 14124, Note_on_c, 0, 60, 71
1, 14142, Note_off_c, 0, 88, 65
1, 14147, Control_c, 0, 64, 58
1, 14147, Control_c, 1, 64, 58
1, 14158, Note_on_c, 0, 76, 83
1, 14163, Note_off_c, 0, 64, 63
1, 14164, Note_off_c, 0, 79, 65
1, 14164, Poly_aftertouch_c, 0, 79, 0
1, 14165, Control_c, 0, 64, 127
1, 14165, Control_c, 1, 64, 127
1, 14172, Note_off_c, 0, 60, 61
1, 14201, Note_off_c, 0, 76, 63
1, 14509, Note_on_c, 0, 60, 68
1, 14510, Note_on_c, 0, 72, 64
1, 14539, Note_off_c, 0, 60, 66
1, 14543, Note_off_c, 0, 72, 64
1, 14598, Note_on_c, 0, 72, 70
1, 14614, Note_on_c, 0, 60, 75
1, 14616, Control_c, 0, 64, 102
1, 14616, Control_c, 1, 64, 102
1, 14636, Control_c, 1, 64, 61
1, 14636, Control_c, 0, 64, 61
1, 14654, Control_c, 0, 64, 13
1, 14654, Control_c, 1, 64, 13
1, 14674, Control_c, 1, 64, 0
1, 14674, Control_c, 0, 64, 0
1, 14685, Note_on_c, 0, 76, 78
1, 14687, Note_off_c, 0, 72, 57
1, 14701, Note_on_c, 0, 64, 79
1, 14703, Note_off_c, 0, 60, 57
1, 14787, Note_on_c, 0, 62, 74
1, 14791, Note_on_c, 0, 74, 81
1, 14793, Note_off_c, 0, 64, 62
1, 14799, Note_off_c, 0, 76, 64
1, 14871, Note_on_c, 0, 60, 66
1, 14880, Note_off_c, 0, 74, 63
1, 14882, Note_on_c, 0, 72, 83
1, 14889, Note_off_c, 0, 62, 63
1, 14928, Note_off_c, 0, 60, 61
1, 14943, Note_off_c, 0, 72, 64
1, 15015, Note_on_c, 0, 89, 86
1, 15036, Note_on_c, 0, 50, 67
1, 15040, Note_on_c, 0, 59, 72
1, 15052, Note_on_c, 0, 83, 81
1, 15067, Control_c, 0, 64, 91
1, 15067, Control_c, 1, 64, 91
1, 15083, Note_off_c, 0, 50, 59
1, 15083, Control_c, 0, 64, 127
1, 15083, Control_c, 1, 64, 127
1, 15090, Note_off_c, 0, 89, 63
1, 15094, Note_on_c, 0, 77, 90
1, 15106, Note_off_c, 0, 59, 61
1, 15121, Note_on_c, 0, 65, 82
1, 15123, Note_off_c, 0, 83, 65
1, 15147, Note_off_c, 0, 65, 69
1, 15157, Note_off_c, 0, 77, 63
1, 15189, Poly_aftertouch_c, 0, 52, 0
1, 15439, Note_on_c, 0, 71, 74
1, 15454, Note_on_c, 0, 59, 68
1, 15487, Note_off_c, 0, 59, 65
1, 15488, Note_off_c, 0, 71, 58
1, 15530, Note_on_c, 0, 71, 59
1, 15556, Note_on_c, 0, 59, 76
1, 15590, Control_c, 0, 64, 88
1, 15590, Control_c, 1, 64, 88
1, 15609, Control_c, 1, 64, 53
1, 15609, Control_c, 0, 64, 53
1, 15631, Note_off_c, 0, 59, 61
1, 15632, Note_on_c, 0, 74, 80
1, 15637, Note_off_c, 0, 71, 60
1, 15645, Control_c, 0, 64, 0
1, 15645, Control_c, 1, 64, 0
1, 15646, Note_on_c, 0, 62, 74
1, 15723, Note_on_c, 0, 60, 71
1, 15727, Note_off_c, 0, 62, 61
1, 15748, Note_off_c, 0, 74, 62
1, 15750, Note_on_c, 0, 72, 80
1, 15799, Note_on_c, 0, 59, 66
1, 15818, Note_on_c, 0, 71, 77
1, 15819, Note_off_c, 0, 60, 60
1, 15821, Note_off_c, 0, 72, 63
1, 15847, Note_off_c, 0, 59, 64
1, 15883, Note_off_c, 0, 71, 65
1, 15946, Note_on_c, 0, 88, 80
1, 15958, Note_on_c, 0, 48, 70
1, 15966, Note_on_c, 0, 57, 65
1, 15982, Control_c, 0, 64, 21
1, 15982, Control_c, 1, 64, 21
1, 15987, Note_on_c, 0, 81, 80
1, 15999, Note_off_c, 0, 48, 64
1, 16001, Control_c, 0, 64, 97
1, 16001, Control_c, 1, 64, 97
1, 16012, Note_off_c, 0, 57, 64
1, 16017, Note_off_c, 0, 88, 61
1, 16018, Control_c, 0, 64, 127
1, 16018, Control_c, 1, 64, 127
1, 16029, Note_on_c, 0, 76, 85
1, 16039, Note_on_c, 0, 64, 80
1, 16044, Note_off_c, 0, 81, 62
1, 16068, Note_off_c, 0, 64, 70
1, 16080, Note_off_c, 0, 76, 65
1, 16375, Note_on_c, 0, 69, 71
1, 16382, Note_on_c, 0, 57, 67
1, 16417, Note_off_c, 0, 57, 66
1, 16425, Note_off_c, 0, 69, 57
1, 16474, Note_on_c, 0, 69, 57
1, 16488, Note_on_c, 0, 57, 74
1, 16507, Control_c, 0, 64, 83
1, 16507, Control_c, 1, 64, 83
1, 16526, Control_c, 1, 64, 56
1, 16526, Control_c, 0, 64, 56
1, 16544, Control_c, 0, 64, 34
1, 16544, Control_c, 1, 64, 34
1, 16563, Control_c, 1, 64, 21
1, 16563, Control_c, 0, 64, 21
1, 16572, Note_on_c, 0, 72, 74
1, 16574, Note_off_c, 0, 69, 54
1, 16578, Note_off_c, 0, 57, 57
1, 16605, Note_on_c, 0, 60, 66
1, 16689, Note_on_c, 0, 71, 69
1, 16691, Note_off_c, 0, 60, 59
1, 16691, Note_on_c, 0, 59, 57
1, 16711, Note_off_c, 0, 72, 51
1, 16732, Control_c, 0, 64, 17
1, 16732, Control_c, 1, 64, 17
1, 16797, Note_on_c, 0, 69, 68
1, 16803, Note_on_c, 0, 57, 49
1, 16816, Note_off_c, 0, 59, 55
1, 16838, Note_off_c, 0, 71, 50
1, 16843, Control_c, 0, 64, 12
1, 16843, Control_c, 1, 64, 12
1, 16863, Control_c, 1, 64, 8
1, 16863, Control_c, 0, 64, 8
1, 16901, Control_c, 0, 64, 0
1, 16901, Control_c, 1, 64, 0
1, 16929, Note_off_c, 0, 69, 60
1, 16937, Note_off_c, 0, 57, 61
1, 16940, Note_on_c, 0, 65, 60
1, 16953, Note_on_c, 0, 53, 53
1, 17124, Control_c, 0, 64, 13
1, 17124, Control_c, 1, 64, 13
1, 17143, Control_c, 1, 64, 28
1, 17143, Control_c, 0, 64, 28
1, 17162, Control_c, 0, 64, 55
1, 17162, Control_c, 1, 64, 55
1, 17181, Control_c, 1, 64, 76
1, 17181, Control_c, 0, 64, 76
1, 17200, Control_c, 0, 64, 95
1, 17200, Control_c, 1, 64, 95
1, 17216, Note_on_c, 0, 57, 63
1, 17217, Control_c, 0, 64, 127
1, 17217, Control_c, 1, 64, 127
1, 17221, Note_on_c, 0, 69, 65
1, 17230, Note_on_c, 0, 59, 51
1, 17270, Note_off_c, 0, 53, 61
1, 17270, Poly_aftertouch_c, 0, 53, 0
1, 17273, Note_on_c, 0, 71, 54
1, 17295, Note_off_c, 0, 65, 60
1, 17298, Note_on_c, 0, 63, 73
1, 17309, Note_off_c, 0, 57, 61
1, 17317, Note_on_c, 0, 75, 77
1, 17338, Note_off_c, 0, 63, 59
1, 17357, Note_off_c, 0, 69, 60
1, 17410, Note_on_c, 0, 64, 82
1, 17419, Note_off_c, 0, 75, 63
1, 17433, Note_on_c, 0, 52, 63
1, 17446, Note_on_c, 0, 56, 66
1, 17483, Note_off_c, 0, 71, 26
1, 17483, Note_on_c, 0, 68, 65
1, 17488, Note_off_c, 0, 64, 61
1, 17520, Note_off_c, 0, 52, 56
1, 17521, Note_on_c, 0, 76, 83
1, 17527, Note_off_c, 0, 59, 58
1, 17533, Note_off_c, 0, 56, 60
1, 17536, Note_on_c, 0, 64, 66
1, 17546, Note_off_c, 0, 68, 62
1, 17630, Control_c, 0, 64, 112
1, 17630, Control_c, 1, 64, 112
1, 17638, Note_on_c, 0, 74, 84
1, 17648, Control_c, 0, 64, 83
1, 17648, Control_c, 1, 64, 83
1, 17654, Note_on_c, 0, 62, 76
1, 17668, Control_c, 0, 64, 63
1, 17668, Control_c, 1, 64, 63
1, 17669, Note_off_c, 0, 64, 58
1, 17681, Note_off_c, 0, 76, 58
1, 17685, Control_c, 0, 64, 45
1, 17685, Control_c, 1, 64, 45
1, 17705, Control_c, 1, 64, 33
1, 17705, Control_c, 0, 64, 33
1, 17719, Note_on_c, 0, 59, 56
1, 17724, Control_c, 0, 64, 24
1, 17724, Control_c, 1, 64, 24
1, 17741, Note_on_c, 0, 71, 84
1, 17742, Control_c, 0, 64, 18
1, 17742, Control_c, 1, 64, 18
1, 17761, Control_c, 1, 64, 12
1, 17761, Control_c, 0, 64, 12
1, 17767, Note_off_c, 0, 62, 60
1, 17772, Note_off_c, 0, 74, 61
1, 17779, Control_c, 0, 64, 0
1, 17779, Control_c, 1, 64, 0
1, 17861, Note_off_c, 0, 59, 63
1, 17870, Note_on_c, 0, 69, 80
1, 17883, Note_off_c, 0, 71, 62
1, 17895, Note_on_c, 0, 57, 63
1, 18325, Note_on_c, 0, 72, 49
1, 18356, Note_on_c, 0, 76, 59
1, 18371, Note_on_c, 0, 45, 58
1, 18374, Note_off_c, 0, 69, 50
1, 18378, Control_c, 0, 64, 8
1, 18378, Control_c, 1, 64, 8
1, 18396, Control_c, 1, 64, 29
1, 18396, Control_c, 0, 64, 29
1, 18398, Note_on_c, 0, 81, 73
1, 18415, Control_c, 0, 64, 56
1, 18415, Control_c, 1, 64, 56
1, 18429, Note_off_c, 0, 72, 59
1, 18432, Note_off_c, 0, 57, 45
1, 18434, Control_c, 0, 64, 81
1, 18434, Control_c, 1, 64, 81
1, 18444, Note_off_c, 0, 45, 61
1, 18445, Note_off_c, 0, 76, 63
1, 18453, Control_c, 0, 64, 124
1, 18453, Control_c, 1, 64, 124
1, 18462, Note_off_c, 0, 81, 63
1, 18753, Control_c, 0, 64, 110
1, 18753, Control_c, 1, 64, 110
1, 18772, Control_c, 1, 64, 69
1, 18772, Control_c, 0, 64, 69
1, 18791, Control_c, 0, 64, 27
1, 18791, Control_c, 1, 64, 27
1, 18809, Control_c, 1, 64, 0
1, 18809, Control_c, 0, 64, 0
1, 18840, Note_on_c, 0, 57, 40
1, 18877, Note_on_c, 0, 64, 47
1, 18877, Note_on_c, 0, 93, 63
1, 18880, Note_on_c, 0, 88, 53
1, 18939, Note_off_c, 0, 57, 61
1, 18939, Control_c, 0, 64, 25
1, 18939, Control_c, 1, 64, 25
1, 18941, Note_on_c, 0, 81, 70
1, 18943, Note_off_c, 0, 93, 63
1, 18946, Note_off_c, 0, 64, 60
1, 18949, Note_off_c, 0, 88, 61
1, 18951, Note_on_c, 0, 69, 72
1, 18957, Control_c, 0, 64, 82
1, 18957, Control_c, 1, 64, 82
1, 18978, Control_c, 1, 64, 127
1, 18978, Control_c, 0, 64, 127
1, 18985, Note_off_c, 0, 69, 68
1, 18995, Note_off_c, 0, 81, 60
1, 19109, Control_c, 0, 67, 9
1, 19109, Control_c, 1, 67, 9
1, 19147, Control_c, 1, 67, 13
1, 19147, Control_c, 0, 67, 13
1, 19204, Control_c, 0, 67, 18
1, 19204, Control_c, 1, 67, 18
1, 19275, Note_on_c, 0, 69, 61
1, 19292, Note_on_c, 0, 81, 59
1, 19295, Control_c, 0, 64, 111
1, 19295, Control_c, 1, 64, 111
1, 19296, Control_c, 1, 67, 23
1, 19296, Control_c, 0, 67, 23
1, 19310, Note_off_c, 0, 69, 62
1, 19315, Control_c, 0, 64, 65
1, 19315, Control_c, 1, 64, 65
1, 19330, Note_off_c, 0, 81, 58
1, 19333, Control_c, 0, 64, 21
1, 19333, Control_c, 1, 64, 21
1, 19334, Control_c, 1, 67, 27
1, 19334, Control_c, 0, 67, 27
1, 19353, Control_c, 0, 64, 0
1, 19353, Control_c, 1, 64, 0
1, 19382, Note_on_c, 0, 69, 58
1, 19383, Note_on_c, 0, 81, 66
1, 19408, Control_c, 0, 67, 31
1, 19408, Control_c, 1, 67, 31
1, 19419, Note_off_c, 0, 81, 61
1, 19449, Note_off_c, 0, 69, 55
1, 19479, Note_on_c, 0, 70, 71
1, 19481, Note_on_c, 0, 82, 68
1, 19542, Note_off_c, 0, 70, 58
1, 19581, Note_off_c, 0, 82, 63
1, 19590, Note_on_c, 0, 81, 61
1, 19609, Note_on_c, 0, 69, 66
1, 19664, Note_off_c, 0, 81, 60
1, 19683, Note_on_c, 0, 79, 63
1, 19698, Note_off_c, 0, 69, 56
1, 19722, Note_on_c, 0, 67, 58
1, 19737, Note_off_c, 0, 79, 60
1, 19737, Poly_aftertouch_c, 0, 79, 0
1, 19793, Note_on_c, 0, 89, 68
1, 19818, Note_on_c, 0, 81, 68
1, 19819, Note_off_c, 0, 67, 60
1, 19820, Control_c, 0, 64, 41
1, 19820, Control_c, 1, 64, 41
1, 19832, Note_off_c, 0, 89, 59
1, 19835, Note_on_c, 0, 65, 54
1, 19839, Control_c, 0, 64, 76
1, 19839, Control_c, 1, 64, 76
1, 19843, Note_on_c, 0, 62, 56
1, 19851, Note_off_c, 0, 81, 65
1, 19857, Control_c, 0, 64, 127
1, 19857, Control_c, 1, 64, 127
1, 19864, Note_on_c, 0, 77, 70
1, 19875, Note_off_c, 0, 65, 64
1, 19879, Note_off_c, 0, 62, 64
1, 19892, Note_off_c, 0, 77, 68
1, 20186, Poly_aftertouch_c, 0, 78, 0
1, 20188, Note_on_c, 0, 74, 64
1, 20192, Note_on_c, 0, 62, 52
1, 20224, Note_off_c, 0, 74, 62
1, 20228, Note_off_c, 0, 62, 56
1, 20230, Control_c, 0, 64, 74
1, 20230, Control_c, 1, 64, 74
1, 20251, Control_c, 1, 64, 36
1, 20251, Control_c, 0, 64, 36
1, 20270, Control_c, 0, 64, 0
1, 20270, Control_c, 1, 64, 0
1, 20291, Note_on_c, 0, 74, 55
1, 20295, Note_on_c, 0, 62, 60
1, 20367, Note_off_c, 0, 74, 54
1, 20375, Note_off_c, 0, 62, 56
1, 20379, Note_on_c, 0, 77, 76
1, 20391, Note_on_c, 0, 65, 69
1, 20457, Control_c, 0, 67, 27
1, 20457, Control_c, 1, 67, 27
1, 20465, Note_off_c, 0, 65, 58
1, 20473, Note_on_c, 0, 64, 64
1, 20491, Note_off_c, 0, 77, 60
1, 20493, Note_on_c, 0, 76, 67
1, 20552, Note_on_c, 0, 62, 55
1, 20566, Note_off_c, 0, 76, 64
1, 20569, Note_on_c, 0, 74, 66
1, 20579, Note_off_c, 0, 64, 61
1, 20614, Note_off_c, 0, 62, 62
1, 20635, Note_off_c, 0, 74, 62
1, 20708, Note_on_c, 0, 91, 73
1, 20716, Note_on_c, 0, 55, 67
1, 20738, Control_c, 0, 64, 47
1, 20738, Control_c, 1, 64, 47
1, 20747, Note_on_c, 0, 86, 64
1, 20757, Control_c, 0, 64, 95
1, 20757, Control_c, 1, 64, 95
1, 20760, Note_on_c, 0, 62, 34
1, 20762, Note_off_c, 0, 91, 62
1, 20773, Note_on_c, 0, 67, 76
1, 20774, Control_c, 0, 64, 127
1, 20774, Control_c, 1, 64, 127
1, 20775, Note_off_c, 0, 55, 60
1, 20779, Note_on_c, 0, 79, 80
1, 20804, Note_off_c, 0, 62, 47
1, 20805, Note_off_c, 0, 67, 68
1, 20806, Note_off_c, 0, 86, 62
1, 20806, Poly_aftertouch_c, 0, 86, 0
1, 20833, Note_off_c, 0, 79, 63
1, 20833, Poly_aftertouch_c, 0, 79, 0
1, 21107, Note_on_c, 0, 67, 62
1, 21110, Note_on_c, 0, 79, 68
1, 21145, Note_off_c, 0, 67, 63
1, 21145, Note_off_c, 0, 79, 67
1, 21145, Poly_aftertouch_c, 0, 79, 0
1, 21205, Note_on_c, 0, 79, 65
1, 21206, Control_c, 0, 64, 83
1, 21206, Control_c, 1, 64, 83
1, 21212, Note_on_c, 0, 67, 64
1, 21224, Control_c, 0, 64, 47
1, 21224, Control_c, 1, 64, 47
1, 21242, Control_c, 1, 64, 0
1, 21242, Control_c, 0, 64, 0
1, 21255, Note_off_c, 0, 79, 58
1, 21255, Poly_aftertouch_c, 0, 79, 0
1, 21277, Note_off_c, 0, 67, 56
1, 21304, Note_on_c, 0, 69, 70
1, 21313, Note_on_c, 0, 81, 75
1, 21367, Note_off_c, 0, 69, 58
1, 21417, Note_off_c, 0, 81, 61
1, 21421, Note_on_c, 0, 67, 72
1, 21422, Note_on_c, 0, 79, 71
1, 21488, Note_off_c, 0, 79, 61
1, 21488, Poly_aftertouch_c, 0, 79, 0
1, 21502, Note_off_c, 0, 67, 58
1, 21502, Note_on_c, 0, 77, 70
1, 21526, Note_on_c, 0, 65, 57
1, 21543, Note_off_c, 0, 77, 61
1, 21607, Note_on_c, 0, 88, 73
1, 21615, Control_c, 0, 67, 23
1, 21615, Control_c, 1, 67, 23
1, 21619, Note_off_c, 0, 65, 56
1, 21637, Note_on_c, 0, 64, 65
1, 21650, Note_on_c, 0, 79, 69
1, 21654, Control_c, 0, 64, 45
1, 21654, Control_c, 1, 64, 45
1, 21658, Note_on_c, 0, 60, 58
1, 21674, Control_c, 0, 64, 75
1, 21674, Control_c, 1, 64, 75
1, 21677, Note_off_c, 0, 88, 63
1, 21685, Note_off_c, 0, 64, 62
1, 21692, Control_c, 0, 64, 105
1, 21692, Control_c, 1, 64, 105
1, 21697, Note_on_c, 0, 76, 73
1, 21698, Note_off_c, 0, 79, 64
1, 21698, Poly_aftertouch_c, 0, 79, 0
1, 21711, Note_off_c, 0, 60, 61
1, 21713, Control_c, 0, 64, 127
1, 21713, Control_c, 1, 64, 127
1, 21725, Note_off_c, 0, 76, 68
1, 22036, Note_on_c, 0, 72, 61
1, 22040, Note_on_c, 0, 60, 58
1, 22072, Note_off_c, 0, 72, 64
1, 22079, Note_off_c, 0, 60, 62
1, 22103, Control_c, 0, 64, 109
1, 22103, Control_c, 1, 64, 109
1, 22123, Control_c, 1, 64, 84
1, 22123, Control_c, 0, 64, 84
1, 22136, Note_on_c, 0, 72, 54
1, 22140, Control_c, 0, 64, 61
1, 22140, Control_c, 1, 64, 61
1, 22157, Note_on_c, 0, 60, 61
1, 22159, Control_c, 0, 64, 35
1, 22159, Control_c, 1, 64, 35
1, 22178, Control_c, 1, 64, 12
1, 22178, Control_c, 0, 64, 12
1, 22216, Note_off_c, 0, 72, 51
1, 22227, Note_on_c, 0, 76, 69
1, 22233, Control_c, 0, 64, 0
1, 22233, Control_c, 1, 64, 0
1, 22241, Note_off_c, 0, 60, 57
1, 22246, Note_on_c, 0, 64, 70
1, 22322, Note_off_c, 0, 64, 62
1, 22327, Note_on_c, 0, 62, 62
1, 22330, Note_off_c, 0, 76, 64
1, 22334, Note_on_c, 0, 74, 76
1, 22407, Note_off_c, 0, 74, 63
1, 22407, Note_on_c, 0, 60, 58
1, 22412, Note_off_c, 0, 62, 61
1, 22418, Note_on_c, 0, 72, 77
1, 22422, Control_c, 0, 67, 19
1, 22422, Control_c, 1, 67, 19
1, 22450, Note_off_c, 0, 60, 62
1, 22480, Note_off_c, 0, 72, 60
1, 22541, Note_on_c, 0, 89, 76
1, 22553, Control_c, 0, 64, 47
1, 22553, Control_c, 1, 64, 47
1, 22564, Note_on_c, 0, 50, 62
1, 22565, Note_on_c, 0, 59, 60
1, 22571, Control_c, 0, 64, 77
1, 22571, Control_c, 1, 64, 77
1, 22582, Note_on_c, 0, 83, 78
1, 22591, Control_c, 0, 64, 108
1, 22591, Control_c, 1, 64, 108
1, 22598, Note_off_c, 0, 50, 55
1, 22609, Control_c, 0, 64, 127
1, 22609, Control_c, 1, 64, 127
1, 22617, Note_off_c, 0, 89, 63
1, 22624, Note_off_c, 0, 59, 61
1, 22628, Control_c, 0, 67, 13
1, 22628, Control_c, 1, 67, 13
1, 22634, Note_on_c, 0, 77, 82
1, 22645, Note_off_c, 0, 83, 64
1, 22649, Note_on_c, 0, 65, 80
1, 22666, Control_c, 0, 67, 0
1, 22666, Control_c, 1, 67, 0
1, 22678, Note_off_c, 0, 65, 70
1, 22685, Note_off_c, 0, 77, 63
1, 22969, Note_on_c, 0, 71, 70
1, 22980, Note_on_c, 0, 59, 59
1, 23006, Note_off_c, 0, 71, 64
1, 23021, Note_off_c, 0, 59, 61
1, 23040, Control_c, 0, 64, 112
1, 23040, Control_c, 1, 64, 112
1, 23058, Control_c, 1, 64, 75
1, 23058, Control_c, 0, 64, 75
1, 23067, Note_on_c, 0, 71, 61
1, 23077, Control_c, 0, 64, 45
1, 23077, Control_c, 1, 64, 45
1, 23090, Note_on_c, 0, 59, 68
1, 23096, Control_c, 0, 64, 10
1, 23096, Control_c, 1, 64, 10
1, 23115, Control_c, 1, 64, 0
1, 23115, Control_c, 0, 64, 0
1, 23156, Note_off_c, 0, 71, 42
1, 23164, Note_on_c, 0, 74, 75
1, 23166, Note_off_c, 0, 59, 59
1, 23180, Note_on_c, 0, 62, 71
1, 23258, Note_off_c, 0, 62, 61
1, 23263, Note_on_c, 0, 60, 72
1, 23271, Note_off_c, 0, 74, 61
1, 23273, Note_on_c, 0, 72, 76
1, 23338, Note_on_c, 0, 59, 50
1, 23343, Note_off_c, 0, 60, 60
1, 23344, Note_off_c, 0, 72, 62
1, 23357, Note_on_c, 0, 71, 80
1, 23382, Note_off_c, 0, 59, 62
1, 23416, Note_off_c, 0, 71, 63
1, 23474, Note_on_c, 0, 88, 86
1, 23491, Note_on_c, 0, 48, 66
1, 23507, Control_c, 0, 64, 17
1, 23507, Control_c, 1, 64, 17
1, 23514, Note_on_c, 0, 57, 55
1, 23514, Note_on_c, 0, 81, 78
1, 23526, Control_c, 0, 64, 72
1, 23526, Control_c, 1, 64, 72
1, 23529, Note_off_c, 0, 48, 63
1, 23545, Control_c, 0, 64, 127
1, 23545, Control_c, 1, 64, 127
1, 23553, Note_off_c, 0, 88, 64
1, 23569, Note_off_c, 0, 57, 60
1, 23570, Note_on_c, 0, 76, 85
1, 23579, Note_on_c, 0, 64, 82
1, 23581, Note_off_c, 0, 81, 62
1, 23616, Note_off_c, 0, 64, 62
1, 23621, Note_off_c, 0, 76, 66
1, 23943, Note_on_c, 0, 69, 71
1, 23946, Note_on_c, 0, 57, 64
1, 23988, Note_off_c, 0, 57, 64
1, 23989, Note_off_c, 0, 69, 55
1, 24031, Control_c, 0, 64, 98
1, 24031, Control_c, 1, 64, 98
1, 24045, Note_on_c, 0, 69, 62
1, 24051, Control_c, 0, 64, 75
1, 24051, Control_c, 1, 64, 75
1, 24055, Note_on_c, 0, 57, 62
1, 24069, Control_c, 0, 64, 59
1, 24069, Control_c, 1, 64, 59
1, 24089, Control_c, 1, 64, 49
1, 24089, Control_c, 0, 64, 49
1, 24106, Control_c, 0, 64, 47
1, 24106, Control_c, 1, 64, 47
1, 24144, Control_c, 1, 64, 41
1, 24144, Control_c, 0, 64, 41
1, 24152, Note_on_c, 0, 72, 78
1, 24155, Note_off_c, 0, 69, 43
1, 24163, Control_c, 0, 64, 34
1, 24163, Control_c, 1, 64, 34
1, 24168, Note_off_c, 0, 57, 61
1, 24172, Note_on_c, 0, 60, 75
1, 24181, Control_c, 0, 64, 28
1, 24181, Control_c, 1, 64, 28
1, 24266, Note_on_c, 0, 59, 67
1, 24274, Note_on_c, 0, 71, 74
1, 24278, Note_off_c, 0, 60, 56
1, 24296, Note_off_c, 0, 72, 53
1, 24368, Note_on_c, 0, 57, 62
1, 24387, Note_on_c, 0, 69, 74
1, 24387, Control_c, 0, 64, 24
1, 24387, Control_c, 1, 64, 24
1, 24417, Note_off_c, 0, 71, 59
1, 24423, Control_c, 0, 64, 18
1, 24423, Control_c, 1, 64, 18
1, 24427, Note_off_c, 0, 59, 51
1, 24462, Control_c, 0, 64, 10
1, 24462, Control_c, 1, 64, 10
1, 24499, Control_c, 1, 64, 0
1, 24499, Control_c, 0, 64, 0
1, 24531, Note_on_c, 0, 65, 69
1, 24532, Note_off_c, 0, 57, 63
1, 24533, Note_off_c, 0, 69, 60
1, 24537, Note_on_c, 0, 53, 65
1, 24744, Control_c, 0, 64, 13
1, 24744, Control_c, 1, 64, 13
1, 24762, Control_c, 1, 64, 27
1, 24762, Control_c, 0, 64, 27
1, 24780, Control_c, 0, 64, 50
1, 24780, Control_c, 1, 64, 50
1, 24799, Control_c, 1, 64, 70
1, 24799, Control_c, 0, 64, 70
1, 24807, Note_on_c, 0, 57, 58
1, 24818, Control_c, 0, 64, 81
1, 24818, Control_c, 1, 64, 81
1, 24835, Control_c, 1, 64, 92
1, 24835, Note_on_c, 0, 69, 63
1, 24835, Control_c, 0, 64, 92
1, 24836, Note_on_c, 0, 59, 55
1, 24854, Control_c, 0, 64, 101
1, 24854, Control_c, 1, 64, 101
1, 24859, Note_on_c, 0, 71, 61
1, 24875, Control_c, 0, 64, 121
1, 24875, Control_c, 1, 64, 121
1, 24890, Note_off_c, 0, 53, 61
1, 24890, Poly_aftertouch_c, 0, 53, 0
1, 24893, Control_c, 0, 64, 127
1, 24893, Control_c, 1, 64, 127
1, 24912, Note_on_c, 0, 63, 73
1, 24915, Note_off_c, 0, 65, 55
1, 24915, Note_on_c, 0, 75, 75
1, 24940, Note_off_c, 0, 57, 60
1, 24982, Note_off_c, 0, 63, 60
1, 24988, Note_off_c, 0, 69, 60
1, 25043, Note_on_c, 0, 64, 84
1, 25061, Note_on_c, 0, 52, 74
1, 25066, Note_off_c, 0, 75, 64
1, 25070, Note_on_c, 0, 56, 68
1, 25102, Note_on_c, 0, 68, 55
1, 25123, Note_off_c, 0, 64, 60
1, 25153, Note_on_c, 0, 76, 84
1, 25158, Note_off_c, 0, 52, 58
1, 25168, Note_off_c, 0, 56, 59
1, 25172, Note_off_c, 0, 59, 57
1, 25175, Note_off_c, 0, 68, 61
1, 25178, Note_on_c, 0, 64, 70
1, 25200, Note_off_c, 0, 71, 37
1, 25200, Poly_aftertouch_c, 0, 71, 0
1, 25282, Note_on_c, 0, 74, 83
1, 25286, Control_c, 0, 64, 102
1, 25286, Control_c, 1, 64, 102
1, 25305, Control_c, 1, 64, 83
1, 25305, Control_c, 0, 64, 83
1, 25309, Note_on_c, 0, 62, 74
1, 25322, Note_off_c, 0, 64, 59
1, 25322, Control_c, 0, 64, 69
1, 25322, Control_c, 1, 64, 69
1, 25343, Control_c, 1, 64, 58
1, 25343, Control_c, 0, 64, 58
1, 25351, Note_off_c, 0, 76, 56
1, 25360, Control_c, 0, 64, 52
1, 25360, Control_c, 1, 64, 52
1, 25380, Control_c, 1, 64, 50
1, 25380, Control_c, 0, 64, 50
1, 25393, Note_on_c, 0, 71, 83
1, 25395, Note_on_c, 0, 59, 64
1, 25400, Control_c, 0, 64, 48
1, 25400, Control_c, 1, 64, 48
1, 25417, Control_c, 1, 64, 44
1, 25417, Control_c, 0, 64, 44
1, 25419, Note_off_c, 0, 62, 59
1, 25435, Note_off_c, 0, 74, 59
1, 25435, Control_c, 0, 64, 37
1, 25435, Control_c, 1, 64, 37
1, 25454, Control_c, 1, 64, 25
1, 25454, Control_c, 0, 64, 25
1, 25473, Control_c, 0, 64, 14
1, 25473, Control_c, 1, 64, 14
1, 25493, Control_c, 1, 64, 8
1, 25493, Control_c, 0, 64, 8
1, 25529, Control_c, 0, 64, 0
1, 25529, Control_c, 1, 64, 0
1, 25533, Note_off_c, 0, 59, 60
1, 25541, Note_on_c, 0, 69, 86
1, 25563, Note_on_c, 0, 57, 79
1, 25564, Note_off_c, 0, 71, 54
1, 26123, Note_on_c, 0, 72, 64
1, 26166, Note_on_c, 0, 76, 69
1, 26195, Note_on_c, 0, 45, 67
1, 26199, Note_off_c, 0, 69, 56
1, 26202, Control_c, 0, 64, 38
1, 26202, Control_c, 1, 64, 38
1, 26221, Control_c, 1, 64, 127
1, 26221, Note_on_c, 0, 81, 90
1, 26221, Control_c, 0, 64, 127
1, 26239, Note_off_c, 0, 57, 62
1, 26240, Note_off_c, 0, 72, 63
1, 26261, Note_off_c, 0, 76, 65
1, 26268, Note_off_c, 0, 45, 62
1, 26289, Note_off_c, 0, 81, 65
1, 27344, Control_c, 0, 64, 109
1, 27344, Control_c, 1, 64, 109
1, 27364, Control_c, 1, 64, 80
1, 27364, Control_c, 0, 64, 80
1, 27383, Control_c, 0, 64, 54
1, 27383, Control_c, 1, 64, 54
1, 27401, Control_c, 1, 64, 19
1, 27401, Control_c, 0, 64, 19
1, 27420, Control_c, 0, 64, 0
1, 27420, Control_c, 1, 64, 0
1, 27569, Control_c, 1, 64, 12
1, 27569, Control_c, 0, 64, 12
1, 27588, Control_c, 0, 64, 57
1, 27588, Control_c, 1, 64, 57
1, 27599, Note_on_c, 0, 69, 102
1, 27607, Control_c, 0, 64, 100
1, 27607, Control_c, 1, 64, 100
1, 27616, Note_on_c, 0, 60, 86
1, 27620, Note_on_c, 0, 45, 80
1, 27624, Note_on_c, 0, 52, 79
1, 27625, Control_c, 0, 64, 127
1, 27625, Control_c, 1, 64, 127
1, 27788, Note_off_c, 0, 60, 55
1, 27827, Note_off_c, 0, 52, 56
1, 27856, Note_on_c, 0, 68, 88
1, 27866, Note_on_c, 0, 59, 80
1, 27866, Note_on_c, 0, 53, 80
1, 27908, Note_off_c, 0, 69, 52
1, 27950, Note_on_c, 0, 66, 10
1, 27994, Note_off_c, 0, 59, 48
1, 28009, Note_off_c, 0, 68, 60
1, 28017, Note_on_c, 0, 69, 89
1, 28030, Note_on_c, 0, 60, 74
1, 28032, Note_on_c, 0, 52, 82
1, 28033, Note_off_c, 0, 53, 64
1, 28033, Note_on_c, 0, 53, 17
1, 28048, Note_off_c, 0, 53, 55
1, 28048, Poly_aftertouch_c, 0, 53, 0
1, 28049, Note_off_c, 0, 66, 45
1, 28050, Poly_aftertouch_c, 0, 66, 0
1, 28057, Control_c, 0, 64, 70
1, 28057, Control_c, 1, 64, 70
1, 28075, Control_c, 1, 64, 25
1, 28075, Control_c, 0, 64, 25
1, 28090, Poly_aftertouch_c, 0, 59, 0
1, 28094, Control_c, 0, 64, 0
1, 28094, Control_c, 1, 64, 0
1, 28106, Note_on_c, 0, 61, 12
1, 28123, Note_off_c, 0, 61, 42
1, 28129, Note_off_c, 0, 52, 57
1, 28148, Note_off_c, 0, 60, 58
1, 28150, Control_c, 0, 64, 9
1, 28150, Control_c, 1, 64, 9
1, 28153, Note_on_c, 0, 59, 79
1, 28156, Note_on_c, 0, 68, 84
1, 28164, Note_on_c, 0, 53, 75
1, 28168, Control_c, 0, 64, 33
1, 28168, Control_c, 1, 64, 33
1, 28188, Control_c, 1, 64, 67
1, 28188, Control_c, 0, 64, 67
1, 28196, Note_off_c, 0, 69, 55
1, 28206, Control_c, 0, 64, 98
1, 28206, Control_c, 1, 64, 98
1, 28225, Control_c, 1, 64, 127
1, 28225, Control_c, 0, 64, 127
1, 28247, Note_off_c, 0, 59, 51
1, 28251, Note_off_c, 0, 53, 56
1, 28251, Poly_aftertouch_c, 0, 53, 0
1, 28260, Note_off_c, 0, 68, 61
1, 28285, Note_on_c, 0, 60, 86
1, 28294, Note_on_c, 0, 52, 81
1, 28295, Note_on_c, 0, 69, 83
1, 28353, Note_off_c, 0, 60, 61
1, 28385, Poly_aftertouch_c, 0, 67, 0
1, 28390, Note_off_c, 0, 52, 61
1, 28391, Note_off_c, 0, 69, 54
1, 28415, Note_on_c, 0, 53, 78
1, 28415, Note_on_c, 0, 59, 84
1, 28418, Note_on_c, 0, 68, 84
1, 28473, Note_off_c, 0, 59, 61
1, 28486, Note_off_c, 0, 68, 67
1, 28526, Note_on_c, 0, 67, 65
1, 28530, Note_on_c, 0, 52, 84
1, 28540, Note_off_c, 0, 53, 56
1, 28540, Poly_aftertouch_c, 0, 53, 0
1, 28541, Note_on_c, 0, 69, 89
1, 28543, Note_on_c, 0, 60, 64
1, 28564, Note_off_c, 0, 67, 65
1, 28568, Note_off_c, 0, 60, 64
1, 28596, Note_off_c, 0, 69, 61
1, 28610, Note_off_c, 0, 52, 60
1, 28666, Note_on_c, 0, 48, 80
1, 28666, Note_on_c, 0, 64, 84
1, 28667, Note_on_c, 0, 72, 81
1, 28670, Note_off_c, 0, 45, 54
1, 28730, Note_off_c, 0, 64, 54
1, 28754, Note_off_c, 0, 48, 60
1, 28781, Note_off_c, 0, 72, 62
1, 28799, Note_on_c, 0, 76, 92
1, 28800, Note_on_c, 0, 47, 89
1, 28807, Note_on_c, 0, 68, 85
1, 28812, Note_on_c, 0, 40, 85
1, 28862, Control_c, 0, 64, 92
1, 28862, Control_c, 1, 64, 92
1, 28880, Control_c, 1, 64, 60
1, 28880, Control_c, 0, 64, 60
1, 28884, Poly_aftertouch_c, 0, 65, 0
1, 28891, Note_off_c, 0, 68, 50
1, 28899, Control_c, 0, 64, 26
1, 28899, Control_c, 1, 64, 26
1, 28917, Control_c, 1, 64, 0
1, 28917, Control_c, 0, 64, 0
1, 28919, Poly_aftertouch_c, 0, 74, 0
1, 28922, Note_off_c, 0, 47, 64
1, 28928, Note_on_c, 0, 66, 88
1, 28929, Note_on_c, 0, 75, 85
1, 28943, Note_on_c, 0, 48, 73
1, 28949, Note_off_c, 0, 76, 63
1, 28995, Note_off_c, 0, 66, 58
1, 29033, Note_on_c, 0, 76, 85
1, 29052, Note_off_c, 0, 48, 55
1, 29056, Poly_aftertouch_c, 0, 73, 127
1, 29058, Note_on_c, 0, 47, 83
1, 29060, Note_on_c, 0, 68, 81
1, 29068, Poly_aftertouch_c, 0, 73, 0
1, 29079, Note_off_c, 0, 75, 65
1, 29145, Note_off_c, 0, 47, 62
1, 29159, Note_on_c, 0, 66, 90
1, 29164, Note_on_c, 0, 75, 82
1, 29170, Note_on_c, 0, 48, 86
1, 29177, Note_off_c, 0, 68, 62
1, 29178, Note_off_c, 0, 76, 62
1, 29204, Note_on_c, 0, 73, 48
1, 29226, Note_off_c, 0, 66, 59
1, 29239, Note_off_c, 0, 73, 54
1, 29243, Note_off_c, 0, 48, 63
1, 29272, Note_on_c, 0, 76, 84
1, 29277, Note_on_c, 0, 47, 83
1, 29293, Note_on_c, 0, 68, 82
1, 29309, Note_off_c, 0, 75, 65
1, 29310, Control_c, 0, 64, 14
1, 29310, Control_c, 1, 64, 14
1, 29329, Control_c, 1, 64, 65
1, 29329, Control_c, 0, 64, 65
1, 29348, Control_c, 0, 64, 104
1, 29348, Control_c, 1, 64, 104
1, 29356, Note_off_c, 0, 47, 63
1, 29358, Note_off_c, 0, 68, 61
1, 29366, Control_c, 0, 64, 127
1, 29366, Control_c, 1, 64, 127
1, 29383, Note_on_c, 0, 48, 80
1, 29383, Note_on_c, 0, 66, 92
1, 29398, Note_on_c, 0, 75, 77
1, 29400, Poly_aftertouch_c, 0, 43, 0
1, 29401, Note_off_c, 0, 76, 64
1, 29413, Poly_aftertouch_c, 0, 74, 0
1, 29441, Note_off_c, 0, 66, 63
1, 29479, Note_on_c, 0, 47, 81
1, 29484, Note_off_c, 0, 48, 62
1, 29500, Note_on_c, 0, 76, 85
1, 29508, Note_on_c, 0, 68, 68
1, 29518, Note_off_c, 0, 75, 64
1, 29528, Note_off_c, 0, 40, 52
1, 29539, Note_off_c, 0, 68, 64
1, 29557, Poly_aftertouch_c, 0, 73, 0
1, 29562, Note_off_c, 0, 47, 64
1, 29564, Note_off_c, 0, 76, 59
1, 29603, Note_on_c, 0, 53, 86
1, 29605, Poly_aftertouch_c, 0, 74, 0
1, 29617, Note_on_c, 0, 80, 91
1, 29625, Note_on_c, 0, 71, 82
1, 29685, Note_off_c, 0, 71, 58
1, 29721, Note_off_c, 0, 80, 63
1, 29733, Note_on_c, 0, 45, 86
1, 29736, Note_on_c, 0, 52, 86
1, 29751, Note_on_c, 0, 81, 91
1, 29754, Note_off_c, 0, 53, 36
1, 29754, Poly_aftertouch_c, 0, 53, 0
1, 29764, Note_on_c, 0, 72, 90
1, 29797, Control_c, 0, 64, 82
1, 29797, Control_c, 1, 64, 82
1, 29818, Control_c, 1, 64, 40
1, 29818, Control_c, 0, 64, 40
1, 29826, Note_off_c, 0, 72, 54
1, 29834, Control_c, 0, 64, 0
1, 29834, Control_c, 1, 64, 0
1, 29836, Note_off_c, 0, 52, 56
1, 29866, Note_on_c, 0, 53, 78
1, 29876, Note_on_c, 0, 71, 80
1, 29885, Note_on_c, 0, 80, 80
1, 29910, Note_off_c, 0, 81, 58
1, 29951, Note_off_c, 0, 53, 60
1, 29951, Poly_aftertouch_c, 0, 53, 0
1, 29952, Note_off_c, 0, 71, 53
1, 29978, Note_on_c, 0, 52, 82
1, 30003, Note_on_c, 0, 81, 82
1, 30003, Note_on_c, 0, 72, 83
1, 30035, Note_off_c, 0, 80, 59
1, 30064, Note_off_c, 0, 72, 58
1, 30072, Note_off_c, 0, 52, 59
1, 30097, Note_on_c, 0, 53, 80
1, 30102, Note_on_c, 0, 71, 84
1, 30115, Note_on_c, 0, 80, 76
1, 30144, Note_off_c, 0, 81, 60
1, 30185, Note_off_c, 0, 53, 59
1, 30185, Poly_aftertouch_c, 0, 53, 0
1, 30202, Poly_aftertouch_c, 0, 78, 0
1, 30209, Note_off_c, 0, 71, 60
1, 30210, Note_on_c, 0, 78, 7
1, 30210, Control_c, 0, 64, 23
1, 30210, Control_c, 1, 64, 23
1, 30211, Note_off_c, 0, 78, 127
1, 30216, Note_on_c, 0, 52, 84
1, 30220, Note_on_c, 0, 72, 86
1, 30227, Control_c, 0, 64, 59
1, 30227, Control_c, 1, 64, 59
1, 30229, Note_on_c, 0, 81, 77
1, 30247, Control_c, 0, 64, 81
1, 30247, Control_c, 1, 64, 81
1, 30265, Control_c, 1, 64, 105
1, 30265, Control_c, 0, 64, 105
1, 30269, Note_off_c, 0, 80, 60
1, 30277, Note_off_c, 0, 72, 61
1, 30284, Control_c, 0, 64, 127
1, 30284, Control_c, 1, 64, 127
1, 30297, Note_off_c, 0, 52, 61
1, 30316, Note_off_c, 0, 81, 60
1, 30321, Poly_aftertouch_c, 0, 79, 0
1, 30333, Note_on_c, 0, 53, 82
1, 30338, Note_on_c, 0, 71, 86
1, 30349, Note_on_c, 0, 80, 69
1, 30395, Note_off_c, 0, 71, 64
1, 30405, Note_off_c, 0, 80, 65
1, 30429, Note_on_c, 0, 52, 83
1, 30438, Note_on_c, 0, 79, 51
1, 30448, Note_on_c, 0, 81, 92
1, 30470, Note_off_c, 0, 79, 62
1, 30470, Poly_aftertouch_c, 0, 78, 0
1, 30481, Note_off_c, 0, 53, 32
1, 30481, Poly_aftertouch_c, 0, 53, 0
1, 30498, Note_off_c, 0, 52, 59
1, 30501, Note_off_c, 0, 81, 67
1, 30524, Note_off_c, 0, 45, 63
1, 30547, Note_on_c, 0, 48, 81
1, 30553, Note_on_c, 0, 76, 85
1, 30557, Note_on_c, 0, 84, 87
1, 30615, Note_off_c, 0, 76, 58
1, 30678, Note_on_c, 0, 47, 88
1, 30679, Note_on_c, 0, 40, 86
1, 30680, Note_on_c, 0, 88, 91
1, 30689, Note_off_c, 0, 84, 54
1, 30689, Note_on_c, 0, 80, 87
1, 30689, Note_on_c, 0, 86, 63
1, 30689, Poly_aftertouch_c, 0, 83, 0
1, 30701, Note_on_c, 0, 46, 43
1, 30701, Control_c, 0, 64, 84
1, 30701, Control_c, 1, 64, 84
1, 30716, Note_off_c, 0, 48, 30
1, 30719, Note_off_c, 0, 86, 49
1, 30719, Poly_aftertouch_c, 0, 86, 0
1, 30719, Control_c, 0, 64, 44
1, 30719, Control_c, 1, 64, 44
1, 30738, Control_c, 1, 64, 0
1, 30738, Control_c, 0, 64, 0
1, 30745, Note_off_c, 0, 46, 54
1, 30753, Poly_aftertouch_c, 0, 76, 0
1, 30777, Note_off_c, 0, 47, 61
1, 30795, Poly_aftertouch_c, 0, 86, 0
1, 30797, Note_on_c, 0, 87, 86
1, 30801, Note_off_c, 0, 80, 25
1, 30804, Note_on_c, 0, 78, 80
1, 30809, Note_on_c, 0, 48, 80
1, 30820, Note_off_c, 0, 88, 65
1, 30863, Note_on_c, 0, 85, 24
1, 30868, Note_off_c, 0, 78, 52
1, 30893, Note_off_c, 0, 48, 58
1, 30909, Note_off_c, 0, 85, 47
1, 30912, Note_on_c, 0, 88, 85
1, 30912, Note_on_c, 0, 47, 80
1, 30921, Note_on_c, 0, 80, 86
1, 30953, Note_off_c, 0, 87, 64
1, 31010, Note_on_c, 0, 48, 84
1, 31012, Note_off_c, 0, 40, 59
1, 31013, Note_off_c, 0, 47, 63
1, 31013, Note_on_c, 0, 78, 88
1, 31020, Note_off_c, 0, 80, 55
1, 31033, Note_on_c, 0, 87, 80
1, 31046, Note_off_c, 0, 88, 63
1, 31090, Note_off_c, 0, 48, 62
1, 31093, Note_off_c, 0, 78, 64
1, 31113, Poly_aftertouch_c, 0, 85, 0
1, 31125, Note_on_c, 0, 47, 80
1, 31130, Note_on_c, 0, 40, 79
1, 31132, Note_on_c, 0, 88, 88
1, 31132, Control_c, 0, 64, 55
1, 31132, Control_c, 1, 64, 55
1, 31139, Note_on_c, 0, 80, 92
1, 31151, Control_c, 0, 64, 90
1, 31151, Control_c, 1, 64, 90
1, 31169, Control_c, 1, 64, 127
1, 31169, Control_c, 0, 64, 127
1, 31178, Note_off_c, 0, 87, 65
1, 31200, Note_off_c, 0, 40, 60
1, 31209, Note_off_c, 0, 80, 64
1, 31212, Note_off_c, 0, 47, 61
1, 31228, Note_on_c, 0, 76, 87
1, 31229, Note_on_c, 0, 52, 81
1, 31231, Note_on_c, 0, 83, 80
1, 31236, Note_off_c, 0, 88, 62
1, 31265, Note_off_c, 0, 52, 66
1, 31272, Note_off_c, 0, 83, 62
1, 31275, Poly_aftertouch_c, 0, 43, 0
1, 31276, Note_off_c, 0, 76, 62
1, 31371, Note_on_c, 0, 83, 91
1, 31374, Note_on_c, 0, 76, 89
1, 31382, Note_on_c, 0, 52, 79
1, 31386, Note_on_c, 0, 59, 73
1, 31432, Note_off_c, 0, 76, 60
1, 31451, Note_off_c, 0, 52, 57
1, 31479, Note_on_c, 0, 56, 78
1, 31480, Note_on_c, 0, 71, 86
1, 31482, Note_off_c, 0, 59, 35
1, 31483, Note_on_c, 0, 80, 85
1, 31492, Note_on_c, 0, 64, 77
1, 31499, Note_off_c, 0, 83, 63
1, 31517, Note_off_c, 0, 56, 65
1, 31521, Note_off_c, 0, 64, 68
1, 31530, Note_off_c, 0, 71, 62
1, 31546, Note_off_c, 0, 80, 65
1, 31637, Control_c, 0, 64, 109
1, 31637, Control_c, 1, 64, 109
1, 31653, Note_on_c, 0, 81, 85
1, 31655, Control_c, 0, 64, 63
1, 31655, Control_c, 1, 64, 63
1, 31669, Note_on_c, 0, 57, 75
1, 31671, Note_on_c, 0, 64, 77
1, 31671, Note_on_c, 0, 72, 84
1, 31674, Control_c, 0, 64, 12
1, 31674, Control_c, 1, 64, 12
1, 31689, Note_on_c, 0, 60, 62
1, 31692, Control_c, 0, 64, 0
1, 31692, Control_c, 1, 64, 0
1, 31705, Note_off_c, 0, 72, 57
1, 31781, Note_on_c, 0, 71, 86
1, 31788, Note_on_c, 0, 80, 84
1, 31790, Note_on_c, 0, 62, 72
1, 31792, Note_off_c, 0, 60, 59
1, 31805, Note_on_c, 0, 65, 73
1, 31806, Note_off_c, 0, 64, 62
1, 31831, Note_off_c, 0, 81, 30
1, 31840, Note_off_c, 0, 71, 60
1, 31864, Note_off_c, 0, 65, 45
1, 31908, Note_on_c, 0, 60, 80
1, 31908, Note_on_c, 0, 72, 84
1, 31909, Note_on_c, 0, 81, 81
1, 31913, Note_on_c, 0, 64, 85
1, 31923, Note_off_c, 0, 62, 60
1, 31930, Note_off_c, 0, 80, 65
1, 31971, Note_off_c, 0, 72, 54
1, 32000, Note_off_c, 0, 60, 53
1, 32017, Note_on_c, 0, 71, 77
1, 32019, Note_off_c, 0, 64, 55
1, 32026, Note_on_c, 0, 62, 78
1, 32028, Note_on_c, 0, 65, 83
1, 32028, Note_on_c, 0, 80, 81
1, 32043, Note_off_c, 0, 81, 61
1, 32047, Control_c, 0, 64, 10
1, 32047, Control_c, 1, 64, 10
1, 32068, Control_c, 1, 64, 22
1, 32068, Control_c, 0, 64, 22
1, 32086, Control_c, 0, 64, 42
1, 32086, Control_c, 1, 64, 42
1, 32089, Note_on_c, 0, 69, 23
1, 32090, Note_off_c, 0, 69, 127
1, 32097, Note_off_c, 0, 65, 60
1, 32097, Note_off_c, 0, 71, 60
1, 32105, Control_c, 0, 64, 60
1, 32105, Control_c, 1, 64, 60
1, 32123, Control_c, 1, 64, 68
1, 32123, Control_c, 0, 64, 68
1, 32131, Note_on_c, 0, 72, 80
1, 32136, Note_on_c, 0, 81, 76
1, 32140, Note_on_c, 0, 60, 78
1, 32142, Note_off_c, 0, 62, 56
1, 32142, Control_c, 0, 64, 70
1, 32142, Control_c, 1, 64, 70
1, 32143, Note_on_c, 0, 64, 85
1, 32170, Note_off_c, 0, 80, 62
1, 32178, Control_c, 0, 64, 76
1, 32178, Control_c, 1, 64, 76
1, 32192, Note_off_c, 0, 72, 59
1, 32198, Poly_aftertouch_c, 0, 79, 0
1, 32199, Control_c, 0, 64, 89
1, 32199, Control_c, 1, 64, 89
1, 32201, Poly_aftertouch_c, 0, 79, 0
1, 32210, Note_off_c, 0, 60, 60
1, 32216, Note_off_c, 0, 81, 61
1, 32217, Control_c, 0, 64, 127
1, 32217, Control_c, 1, 64, 127
1, 32220, Note_off_c, 0, 64, 58
1, 32237, Note_on_c, 0, 71, 83
1, 32244, Note_on_c, 0, 65, 82
1, 32248, Note_on_c, 0, 80, 62
1, 32271, Note_on_c, 0, 62, 76
1, 32294, Note_on_c, 0, 78, 46
1, 32298, Note_off_c, 0, 71, 63
1, 32304, Note_off_c, 0, 80, 65
1, 32325, Note_off_c, 0, 78, 58
1, 32335, Note_off_c, 0, 65, 59
1, 32344, Note_on_c, 0, 81, 82
1, 32348, Note_on_c, 0, 64, 76
1, 32353, Note_on_c, 0, 60, 69
1, 32354, Note_off_c, 0, 62, 58
1, 32379, Note_off_c, 0, 64, 65
1, 32389, Note_off_c, 0, 60, 65
1, 32398, Note_off_c, 0, 81, 63
1, 32427, Note_off_c, 0, 57, 61
1, 32458, Note_on_c, 0, 84, 89
1, 32460, Note_on_c, 0, 76, 80
1, 32465, Note_on_c, 0, 57, 73
1, 32475, Note_on_c, 0, 60, 80
1, 32497, Note_on_c, 0, 77, 47
1, 32498, Note_off_c, 0, 77, 127
1, 32519, Note_off_c, 0, 76, 60
1, 32575, Note_on_c, 0, 59, 85
1, 32582, Note_on_c, 0, 88, 90
1, 32587, Note_off_c, 0, 60, 34
1, 32591, Note_on_c, 0, 56, 80
1, 32597, Note_on_c, 0, 80, 81
1, 32598, Note_on_c, 0, 52, 80
1, 32605, Note_off_c, 0, 84, 62
1, 32612, Note_off_c, 0, 57, 57
1, 32613, Poly_aftertouch_c, 0, 57, 0
1, 32647, Control_c, 0, 64, 71
1, 32647, Control_c, 1, 64, 71
1, 32656, Note_off_c, 0, 80, 61
1, 32666, Control_c, 0, 64, 34
1, 32666, Control_c, 1, 64, 34
1, 32686, Control_c, 1, 64, 0
1, 32686, Control_c, 0, 64, 0
1, 32702, Note_off_c, 0, 59, 59
1, 32706, Note_on_c, 0, 78, 91
1, 32711, Note_on_c, 0, 57, 74
1, 32714, Note_on_c, 0, 87, 85
1, 32719, Note_off_c, 0, 56, 61
1, 32723, Note_on_c, 0, 60, 78
1, 32729, Note_off_c, 0, 88, 66
1, 32753, Note_on_c, 0, 85, 52
1, 32763, Note_off_c, 0, 78, 65
1, 32783, Note_off_c, 0, 85, 58
1, 32821, Note_off_c, 0, 60, 47
1, 32821, Note_on_c, 0, 88, 87
1, 32832, Note_on_c, 0, 80, 86
1, 32833, Note_on_c, 0, 56, 78
1, 32838, Note_on_c, 0, 59, 80
1, 32840, Note_off_c, 0, 57, 63
1, 32859, Note_off_c, 0, 87, 65
1, 32911, Note_off_c, 0, 80, 65
1, 32930, Note_off_c, 0, 59, 60
1, 32931, Note_on_c, 0, 78, 90
1, 32941, Note_on_c, 0, 87, 79
1, 32950, Note_on_c, 0, 60, 80
1, 32954, Note_on_c, 0, 57, 65
1, 32955, Note_off_c, 0, 88, 66
1, 32967, Note_off_c, 0, 56, 57
1, 33012, Note_off_c, 0, 78, 60
1, 33041, Control_c, 0, 64, 9
1, 33041, Control_c, 1, 64, 9
1, 33050, Note_on_c, 0, 88, 88
1, 33060, Control_c, 0, 64, 29
1, 33060, Control_c, 1, 64, 29
1, 33064, Note_on_c, 0, 80, 83
1, 33064, Note_on_c, 0, 59, 81
1, 33065, Note_on_c, 0, 56, 78
1, 33068, Poly_aftertouch_c, 0, 85, 0
1, 33071, Note_off_c, 0, 60, 61
1, 33078, Note_off_c, 0, 57, 60
1, 33079, Control_c, 0, 64, 56
1, 33079, Control_c, 1, 64, 56
1, 33094, Note_off_c, 0, 87, 66
1, 33098, Control_c, 0, 64, 75
1, 33098, Control_c, 1, 64, 75
1, 33116, Control_c, 1, 64, 89
1, 33116, Control_c, 0, 64, 89
1, 33130, Note_off_c, 0, 80, 64
1, 33134, Control_c, 0, 64, 108
1, 33134, Control_c, 1, 64, 108
1, 33135, Note_off_c, 0, 59, 59
1, 33153, Control_c, 0, 64, 127
1, 33153, Control_c, 1, 64, 127
1, 33157, Note_on_c, 0, 78, 90
1, 33168, Note_on_c, 0, 60, 78
1, 33170, Note_on_c, 0, 87, 77
1, 33179, Note_off_c, 0, 88, 62
1, 33182, Note_off_c, 0, 56, 60
1, 33192, Note_on_c, 0, 57, 69
1, 33204, Note_on_c, 0, 85, 53
1, 33220, Note_off_c, 0, 78, 65
1, 33247, Note_off_c, 0, 85, 49
1, 33256, Note_on_c, 0, 59, 80
1, 33259, Note_off_c, 0, 60, 63
1, 33261, Note_on_c, 0, 56, 65
1, 33268, Note_on_c, 0, 88, 85
1, 33282, Note_off_c, 0, 57, 63
1, 33283, Note_off_c, 0, 59, 68
1, 33299, Note_off_c, 0, 87, 66
1, 33307, Note_off_c, 0, 56, 63
1, 33311, Note_on_c, 0, 80, 23
1, 33322, Note_off_c, 0, 88, 66
1, 33324, Note_off_c, 0, 52, 62
1, 33371, Note_off_c, 0, 80, 53
1, 33387, Note_on_c, 0, 92, 96
1, 33388, Note_on_c, 0, 83, 90
1, 33389, Note_on_c, 0, 50, 83
1, 33390, Note_on_c, 0, 53, 85
1, 33434, Note_off_c, 0, 83, 62
1, 33450, Note_off_c, 0, 53, 57
1, 33450, Poly_aftertouch_c, 0, 53, 0
1, 33451, Note_off_c, 0, 92, 66
1, 33500, Note_on_c, 0, 48, 83
1, 33501, Note_on_c, 0, 45, 86
1, 33508, Note_on_c, 0, 52, 84
1, 33513, Note_on_c, 0, 93, 90
1, 33518, Note_on_c, 0, 84, 94
1, 33527, Control_c, 0, 64, 111
1, 33527, Control_c, 1, 64, 111
1, 33547, Control_c, 1, 64, 67
1, 33547, Control_c, 0, 64, 67
1, 33567, Control_c, 0, 64, 27
1, 33567, Control_c, 1, 64, 27
1, 33571, Note_off_c, 0, 84, 64
1, 33579, Note_off_c, 0, 50, 19
1, 33585, Control_c, 0, 64, 0
1, 33585, Control_c, 1, 64, 0
1, 33623, Note_off_c, 0, 52, 49
1, 33624, Note_on_c, 0, 50, 77
1, 33636, Note_on_c, 0, 53, 82
1, 33637, Note_on_c, 0, 83, 86
1, 33653, Note_on_c, 0, 92, 82
1, 33657, Note_off_c, 0, 93, 63
1, 33694, Note_off_c, 0, 83, 60
1, 33697, Note_off_c, 0, 48, 22
1, 33712, Note_off_c, 0, 53, 57
1, 33712, Poly_aftertouch_c, 0, 53, 0
1, 33723, Note_on_c, 0, 91, 49
1, 33742, Note_on_c, 0, 48, 76
1, 33753, Note_on_c, 0, 52, 86
1, 33758, Note_off_c, 0, 91, 52
1, 33761, Note_on_c, 0, 84, 85
1, 33762, Note_off_c, 0, 50, 58
1, 33764, Note_on_c, 0, 93, 83
1, 33773, Note_off_c, 0, 92, 63
1, 33820, Note_off_c, 0, 84, 63
1, 33841, Note_off_c, 0, 48, 53
1, 33856, Note_off_c, 0, 52, 55
1, 33862, Note_on_c, 0, 53, 81
1, 33867, Note_on_c, 0, 83, 84
1, 33876, Note_on_c, 0, 50, 79
1, 33884, Note_on_c, 0, 92, 85
1, 33896, Note_off_c, 0, 93, 60
1, 33930, Note_off_c, 0, 83, 62
1, 33933, Note_on_c, 0, 90, 43
1, 33938, Note_off_c, 0, 53, 61
1, 33938, Poly_aftertouch_c, 0, 53, 0
1, 33968, Note_off_c, 0, 90, 55
1, 33983, Note_on_c, 0, 84, 89
1, 33984, Note_on_c, 0, 48, 81
1, 33990, Note_on_c, 0, 93, 87
1, 33992, Note_on_c, 0, 52, 85
1, 33995, Control_c, 0, 64, 13
1, 33995, Control_c, 1, 64, 13
1, 34001, Note_off_c, 0, 50, 39
1, 34014, Control_c, 0, 64, 25
1, 34014, Control_c, 1, 64, 25
1, 34027, Note_off_c, 0, 92, 63
1, 34033, Control_c, 0, 64, 45
1, 34033, Control_c, 1, 64, 45
1, 34049, Note_off_c, 0, 84, 65
1, 34051, Control_c, 0, 64, 64
1, 34051, Control_c, 1, 64, 64
1, 34070, Control_c, 1, 64, 75
1, 34070, Control_c, 0, 64, 75
1, 34073, Note_off_c, 0, 48, 61
1, 34081, Note_off_c, 0, 52, 58
1, 34088, Note_on_c, 0, 83, 82
1, 34089, Control_c, 0, 64, 81
1, 34089, Control_c, 1, 64, 81
1, 34102, Note_on_c, 0, 53, 77
1, 34109, Control_c, 0, 64, 88
1, 34109, Control_c, 1, 64, 88
1, 34110, Note_off_c, 0, 93, 42
1, 34114, Note_on_c, 0, 92, 80
1, 34124, Control_c, 0, 64, 103
1, 34124, Control_c, 1, 64, 103
1, 34126, Note_on_c, 0, 50, 75
1, 34145, Control_c, 0, 64, 127
1, 34145, Control_c, 1, 64, 127
1, 34167, Note_off_c, 0, 83, 61
1, 34201, Note_on_c, 0, 48, 80
1, 34204, Note_on_c, 0, 93, 91
1, 34206, Note_off_c, 0, 53, 60
1, 34206, Poly_aftertouch_c, 0, 53, 0
1, 34211, Note_on_c, 0, 52, 74
1, 34212, Note_off_c, 0, 50, 63
1, 34216, Note_on_c, 0, 91, 40
1, 34227, Note_off_c, 0, 92, 66
1, 34239, Poly_aftertouch_c, 0, 90, 0
1, 34245, Note_off_c, 0, 52, 66
1, 34247, Note_off_c, 0, 91, 59
1, 34258, Note_off_c, 0, 48, 60
1, 34260, Note_off_c, 0, 93, 67
1, 34267, Note_off_c, 0, 45, 62
1, 34316, Note_on_c, 0, 88, 87
1, 34319, Note_on_c, 0, 96, 94
1, 34328, Note_on_c, 0, 48, 81
1, 34331, Note_on_c, 0, 45, 78
1, 34377, Note_off_c, 0, 88, 63
1, 34442, Note_on_c, 0, 100, 97
1, 34443, Note_on_c, 0, 44, 80
1, 34444, Note_on_c, 0, 47, 81
1, 34445, Note_on_c, 0, 92, 92
1, 34447, Note_on_c, 0, 40, 82
1, 34449, Note_off_c, 0, 48, 56
1, 34467, Note_off_c, 0, 45, 58
1, 34470, Note_off_c, 0, 96, 62
1, 34479, Note_on_c, 0, 97, 36
1, 34481, Control_c, 0, 64, 76
1, 34481, Control_c, 1, 64, 76
1, 34501, Control_c, 1, 64, 36
1, 34501, Control_c, 0, 64, 36
1, 34518, Note_off_c, 0, 92, 64
1, 34518, Note_off_c, 0, 97, 54
1, 34518, Control_c, 0, 64, 0
1, 34518, Control_c, 1, 64, 0
1, 34567, Note_on_c, 0, 90, 90
1, 34571, Note_on_c, 0, 99, 90
1, 34577, Note_off_c, 0, 47, 40
1, 34577, Note_on_c, 0, 45, 80
1, 34579, Note_on_c, 0, 48, 81
1, 34584, Note_off_c, 0, 44, 58
1, 34592, Note_off_c, 0, 100, 63
1, 34625, Note_on_c, 0, 97, 38
1, 34669, Note_off_c, 0, 97, 50
1, 34674, Note_on_c, 0, 100, 86
1, 34691, Note_on_c, 0, 92, 85
1, 34694, Note_off_c, 0, 48, 58
1, 34694, Note_on_c, 0, 44, 75
1, 34704, Note_on_c, 0, 47, 78
1, 34706, Note_off_c, 0, 90, 37
1, 34709, Note_off_c, 0, 45, 63
1, 34726, Note_off_c, 0, 99, 63
1, 34778, Note_off_c, 0, 92, 65
1, 34780, Note_off_c, 0, 40, 56
1, 34784, Note_on_c, 0, 48, 80
1, 34791, Note_on_c, 0, 90, 90
1, 34794, Note_off_c, 0, 47, 63
1, 34805, Note_off_c, 0, 44, 61
1, 34810, Note_on_c, 0, 99, 80
1, 34811, Note_on_c, 0, 45, 62
1, 34817, Note_off_c, 0, 100, 64
1, 34862, Note_off_c, 0, 48, 60
1, 34868, Note_off_c, 0, 90, 64
1, 34886, Note_on_c, 0, 40, 85
1, 34891, Note_on_c, 0, 44, 64
1, 34893, Control_c, 0, 64, 42
1, 34893, Control_c, 1, 64, 42
1, 34896, Note_on_c, 0, 100, 91
1, 34901, Note_on_c, 0, 47, 84
1, 34911, Note_on_c, 0, 92, 93
1, 34912, Control_c, 0, 64, 127
1, 34912, Control_c, 1, 64, 127
1, 34929, Note_off_c, 0, 45, 60
1, 34957, Note_off_c, 0, 40, 61
1, 34960, Note_off_c, 0, 99, 64
1, 34963, Note_off_c, 0, 44, 61
1, 34992, Note_off_c, 0, 47, 63
1, 34997, Note_on_c, 0, 52, 83
1, 35001, Note_on_c, 0, 88, 88
1, 35015, Note_on_c, 0, 95, 77
1, 35016, Note_off_c, 0, 92, 67
1, 35023, Note_off_c, 0, 100, 62
1, 35032, Note_on_c, 0, 50, 29
1, 35036, Note_off_c, 0, 52, 64
1, 35050, Note_off_c, 0, 95, 67
1, 35059, Note_off_c, 0, 88, 66
1, 35088, Note_off_c, 0, 50, 48
1, 35143, Note_on_c, 0, 52, 87
1, 35144, Note_on_c, 0, 95, 96
1, 35152, Note_on_c, 0, 88, 93
1, 35160, Note_on_c, 0, 59, 78
1, 35260, Note_on_c, 0, 56, 83
1, 35261, Note_off_c, 0, 52, 60
1, 35263, Note_on_c, 0, 92, 95
1, 35268, Note_on_c, 0, 83, 94
1, 35269, Note_on_c, 0, 64, 84
1, 35280, Note_off_c, 0, 59, 60
1, 35284, Note_off_c, 0, 88, 65
1, 35289, Note_off_c, 0, 95, 66
1, 35315, Note_on_c, 0, 93, 29
1, 35320, Note_off_c, 0, 83, 67
1, 35323, Note_off_c, 0, 64, 63
1, 35323, Note_off_c, 0, 56, 64
1, 35324, Note_off_c, 0, 92, 67
1, 35362, Note_off_c, 0, 93, 34
1, 35548, Note_on_c, 0, 81, 83
1, 35552, Note_on_c, 0, 57, 80
1, 35554, Note_on_c, 0, 79, 70
1, 35562, Note_on_c, 0, 64, 80
1, 35563, Note_on_c, 0, 61, 78
1, 35566, Control_c, 0, 64, 109
1, 35566, Control_c, 1, 64, 109
1, 35579, Note_on_c, 0, 73, 60
1, 35585, Control_c, 0, 64, 61
1, 35585, Control_c, 1, 64, 61
1, 35610, Note_on_c, 0, 72, 52
1, 35612, Note_off_c, 0, 73, 54
1, 35624, Control_c, 0, 64, 0
1, 35624, Control_c, 1, 64, 0
1, 35645, Note_off_c, 0, 72, 52
1, 35725, Note_on_c, 0, 71, 80
1, 35744, Note_on_c, 0, 80, 78
1, 35752, Note_off_c, 0, 61, 59
1, 35752, Note_off_c, 0, 64, 62
1, 35755, Note_off_c, 0, 79, 26
1, 35758, Note_on_c, 0, 65, 80
1, 35762, Note_on_c, 0, 62, 73
1, 35790, Note_off_c, 0, 81, 62
1, 35803, Note_off_c, 0, 71, 59
1, 35809, Control_c, 0, 64, 18
1, 35809, Control_c, 1, 64, 18
1, 35830, Control_c, 1, 64, 36
1, 35830, Control_c, 0, 64, 36
1, 35843, Poly_aftertouch_c, 0, 78, 0
1, 35849, Control_c, 0, 64, 50
1, 35849, Control_c, 1, 64, 50
1, 35868, Control_c, 1, 64, 64
1, 35868, Control_c, 0, 64, 64
1, 35881, Note_on_c, 0, 81, 84
1, 35887, Control_c, 0, 64, 71
1, 35887, Control_c, 1, 64, 71
1, 35893, Note_on_c, 0, 73, 80
1, 35893, Note_on_c, 0, 64, 84
1, 35897, Note_on_c, 0, 61, 78
1, 35898, Note_off_c, 0, 65, 34
1, 35907, Control_c, 0, 64, 79
1, 35907, Control_c, 1, 64, 79
1, 35908, Note_off_c, 0, 62, 54
1, 35918, Note_off_c, 0, 80, 63
1, 35923, Control_c, 0, 64, 90
1, 35923, Control_c, 1, 64, 90
1, 35943, Control_c, 1, 64, 104
1, 35943, Control_c, 0, 64, 104
1, 35961, Control_c, 0, 64, 127
1, 35961, Control_c, 1, 64, 127
1, 35966, Note_off_c, 0, 64, 58
1, 35980, Note_off_c, 0, 81, 61
1, 36004, Note_on_c, 0, 71, 79
1, 36005, Note_on_c, 0, 65, 83
1, 36007, Note_on_c, 0, 80, 81
1, 36020, Note_off_c, 0, 61, 59
1, 36027, Note_off_c, 0, 73, 60
1, 36031, Note_on_c, 0, 62, 70
1, 36037, Poly_aftertouch_c, 0, 73, 0
1, 36049, Note_on_c, 0, 78, 45
1, 36067, Note_off_c, 0, 71, 57
1, 36089, Note_off_c, 0, 78, 54
1, 36107, Note_on_c, 0, 64, 78
1, 36110, Note_on_c, 0, 61, 70
1, 36116, Note_on_c, 0, 81, 90
1, 36117, Note_off_c, 0, 65, 62
1, 36124, Note_off_c, 0, 62, 61
1, 36145, Note_off_c, 0, 64, 64
1, 36155, Note_off_c, 0, 80, 60
1, 36159, Poly_aftertouch_c, 0, 73, 0
1, 36174, Note_off_c, 0, 61, 63
1, 36193, Note_off_c, 0, 57, 60
1, 36206, Note_off_c, 0, 81, 64
1, 36232, Note_on_c, 0, 81, 67
1, 36240, Note_on_c, 0, 62, 82
1, 36243, Note_on_c, 0, 59, 78
1, 36251, Note_on_c, 0, 83, 64
1, 36254, Note_on_c, 0, 74, 61
1, 36269, Note_on_c, 0, 72, 58
1, 36280, Note_off_c, 0, 59, 56
1, 36290, Note_off_c, 0, 74, 64
1, 36295, Note_off_c, 0, 72, 60
1, 36296, Note_off_c, 0, 81, 61
1, 36299, Note_off_c, 0, 62, 57
1, 36330, Note_off_c, 0, 83, 39
1, 36347, Note_on_c, 0, 61, 82
1, 36349, Note_on_c, 0, 57, 79
1, 36353, Note_on_c, 0, 85, 91
1, 36373, Note_on_c, 0, 76, 60
1, 36398, Note_off_c, 0, 76, 63
1, 36402, Note_off_c, 0, 61, 60
1, 36410, Note_off_c, 0, 57, 62
1, 36412, Poly_aftertouch_c, 0, 59, 0
1, 36437, Note_off_c, 0, 85, 64
1, 36474, Note_on_c, 0, 88, 85
1, 36479, Note_on_c, 0, 58, 80
1, 36481, Note_on_c, 0, 86, 80
1, 36489, Note_on_c, 0, 55, 74
1, 36494, Note_on_c, 0, 79, 75
1, 36525, Note_off_c, 0, 79, 65
1, 36559, Note_off_c, 0, 86, 55
1, 36572, Note_off_c, 0, 88, 63
1, 36597, Note_on_c, 0, 89, 91
1, 36601, Note_on_c, 0, 53, 68
1, 36601, Note_on_c, 0, 50, 80
1, 36605, Note_off_c, 0, 58, 32
1, 36606, Note_on_c, 0, 57, 77
1, 36607, Note_on_c, 0, 81, 88
1, 36608, Note_off_c, 0, 81, 127
1, 36629, Note_off_c, 0, 89, 74
1, 36637, Note_off_c, 0, 55, 25
1, 36641, Control_c, 0, 64, 118
1, 36641, Control_c, 1, 64, 118
1, 36654, Note_off_c, 0, 53, 50
1, 36654, Poly_aftertouch_c, 0, 53, 0
1, 36654, Control_c, 0, 64, 67
1, 36654, Control_c, 1, 64, 67
1, 36663, Poly_aftertouch_c, 0, 81, 127
1, 36670, Control_c, 0, 64, 18
1, 36670, Control_c, 1, 64, 18
1, 36676, Poly_aftertouch_c, 0, 81, 0
1, 36692, Control_c, 0, 64, 0
1, 36692, Control_c, 1, 64, 0
1, 36707, Note_on_c, 0, 55, 69
1, 36724, Note_on_c, 0, 58, 75
1, 36724, Note_on_c, 0, 88, 84
1, 36725, Note_on_c, 0, 79, 85
1, 36726, Note_off_c, 0, 57, 63
1, 36785, Note_off_c, 0, 79, 59
1, 36816, Note_off_c, 0, 58, 63
1, 36816, Note_off_c, 0, 55, 62
1, 36837, Note_on_c, 0, 53, 72
1, 36840, Note_on_c, 0, 81, 86
1, 36853, Note_on_c, 0, 57, 83
1, 36867, Note_on_c, 0, 89, 69
1, 36873, Note_off_c, 0, 50, 60
1, 36897, Note_off_c, 0, 88, 56
1, 36907, Note_on_c, 0, 55, 70
1, 36916, Note_on_c, 0, 58, 55
1, 36925, Note_off_c, 0, 57, 65
1, 36930, Note_off_c, 0, 53, 59
1, 36930, Poly_aftertouch_c, 0, 53, 0
1, 36942, Note_on_c, 0, 88, 46
1, 36943, Note_on_c, 0, 79, 76
1, 36963, Note_off_c, 0, 81, 50
1, 36994, Note_off_c, 0, 89, 64
1, 37018, Note_off_c, 0, 79, 54
1, 37046, Note_off_c, 0, 58, 64
1, 37048, Note_on_c, 0, 50, 80
1, 37048, Note_on_c, 0, 57, 82
1, 37059, Note_off_c, 0, 55, 62
1, 37065, Note_on_c, 0, 53, 58
1, 37066, Note_on_c, 0, 89, 82
1, 37067, Note_on_c, 0, 81, 80
1, 37084, Control_c, 0, 64, 68
1, 37084, Control_c, 1, 64, 68
1, 37092, Note_off_c, 0, 53, 59
1, 37092, Poly_aftertouch_c, 0, 53, 0
1, 37103, Control_c, 0, 64, 127
1, 37103, Control_c, 1, 64, 127
1, 37107, Note_off_c, 0, 88, 64
1, 37123, Note_off_c, 0, 57, 63
1, 37132, Note_off_c, 0, 50, 62
1, 37180, Note_on_c, 0, 77, 84
1, 37181, Note_off_c, 0, 81, 39
1, 37195, Note_on_c, 0, 86, 80
1, 37199, Note_off_c, 0, 89, 64
1, 37200, Note_on_c, 0, 62, 82
1, 37234, Note_off_c, 0, 77, 63
1, 37235, Note_off_c, 0, 86, 61
1, 37264, Note_off_c, 0, 62, 59
1, 37321, Note_on_c, 0, 74, 84
1, 37330, Note_on_c, 0, 83, 77
1, 37335, Note_on_c, 0, 81, 71
1, 37337, Note_on_c, 0, 65, 70
1, 37357, Note_off_c, 0, 83, 70
1, 37373, Note_off_c, 0, 74, 62
1, 37391, Note_off_c, 0, 81, 61
1, 37429, Note_on_c, 0, 62, 78
1, 37437, Note_on_c, 0, 69, 82
1, 37443, Note_on_c, 0, 77, 66
1, 37445, Note_off_c, 0, 65, 62
1, 37470, Note_on_c, 0, 76, 50
1, 37472, Note_off_c, 0, 62, 63
1, 37473, Note_off_c, 0, 69, 63
1, 37483, Note_on_c, 0, 75, 24
1, 37496, Note_off_c, 0, 77, 59
1, 37506, Note_off_c, 0, 76, 40
1, 37536, Note_off_c, 0, 75, 53
1, 37551, Note_on_c, 0, 79, 90
1, 37559, Note_on_c, 0, 55, 79
1, 37563, Note_on_c, 0, 62, 86
1, 37566, Note_on_c, 0, 71, 87
1, 37572, Note_on_c, 0, 59, 70
1, 37590, Control_c, 0, 64, 90
1, 37590, Control_c, 1, 64, 90
1, 37600, Note_off_c, 0, 71, 62
1, 37607, Control_c, 0, 64, 49
1, 37607, Control_c, 1, 64, 49
1, 37626, Control_c, 1, 64, 0
1, 37626, Control_c, 0, 64, 0
1, 37635, Note_off_c, 0, 79, 61
1, 37680, Note_on_c, 0, 78, 86
1, 37685, Note_on_c, 0, 63, 75
1, 37686, Note_on_c, 0, 60, 71
1, 37687, Note_on_c, 0, 69, 77
1, 37690, Note_off_c, 0, 62, 60
1, 37703, Note_off_c, 0, 59, 58
1, 37727, Note_off_c, 0, 69, 57
1, 37783, Note_off_c, 0, 63, 62
1, 37786, Poly_aftertouch_c, 0, 75, 0
1, 37798, Note_off_c, 0, 60, 60
1, 37800, Note_on_c, 0, 79, 79
1, 37811, Note_on_c, 0, 59, 72
1, 37818, Note_on_c, 0, 62, 79
1, 37826, Note_off_c, 0, 78, 62
1, 37834, Poly_aftertouch_c, 0, 71, 127
1, 37869, Control_c, 0, 64, 12
1, 37869, Control_c, 1, 64, 12
1, 37889, Control_c, 1, 64, 28
1, 37889, Control_c, 0, 64, 28
1, 37891, Note_off_c, 0, 59, 61
1, 37894, Note_on_c, 0, 60, 64
1, 37898, Note_off_c, 0, 62, 62
1, 37902, Note_on_c, 0, 69, 76
1, 37907, Note_on_c, 0, 63, 74
1, 37908, Control_c, 0, 64, 53
1, 37908, Control_c, 1, 64, 53
1, 37912, Note_on_c, 0, 78, 73
1, 37917, Note_off_c, 0, 79, 64
1, 37927, Control_c, 0, 64, 75
1, 37927, Control_c, 1, 64, 75
1, 37945, Control_c, 1, 64, 101
1, 37945, Control_c, 0, 64, 101
1, 37963, Control_c, 0, 64, 127
1, 37963, Control_c, 1, 64, 127
1, 37969, Poly_aftertouch_c, 0, 71, 0
1, 37972, Note_off_c, 0, 69, 57
1, 37985, Note_off_c, 0, 63, 62
1, 38003, Note_on_c, 0, 59, 65
1, 38006, Note_off_c, 0, 60, 58
1, 38010, Note_on_c, 0, 79, 86
1, 38014, Poly_aftertouch_c, 0, 75, 127
1, 38026, Note_on_c, 0, 62, 82
1, 38034, Note_off_c, 0, 78, 65
1, 38052, Note_off_c, 0, 59, 57
1, 38067, Poly_aftertouch_c, 0, 75, 0
1, 38125, Note_on_c, 0, 81, 76
1, 38127, Note_on_c, 0, 57, 77
1, 38129, Note_on_c, 0, 60, 80
1, 38132, Note_on_c, 0, 72, 78
1, 38135, Note_off_c, 0, 55, 55
1, 38136, Note_off_c, 0, 62, 64
1, 38154, Note_off_c, 0, 79, 64
1, 38154, Note_on_c, 0, 79, 6
1, 38174, Note_off_c, 0, 72, 57
1, 38201, Note_off_c, 0, 79, 56
1, 38225, Note_off_c, 0, 60, 59
1, 38230, Note_off_c, 0, 57, 61
1, 38247, Note_on_c, 0, 83, 87
1, 38247, Note_on_c, 0, 55, 81
1, 38249, Note_off_c, 0, 81, 37
1, 38262, Note_on_c, 0, 59, 73
1, 38295, Note_off_c, 0, 83, 55
1, 38311, Note_off_c, 0, 55, 61
1, 38357, Note_on_c, 0, 77, 75
1, 38359, Note_on_c, 0, 86, 84
1, 38362, Note_on_c, 0, 56, 82
1, 38376, Note_off_c, 0, 59, 60
1, 38379, Note_on_c, 0, 53, 76
1, 38386, Note_on_c, 0, 54, 47
1, 38392, Note_on_c, 0, 84, 42
1, 38420, Note_off_c, 0, 77, 40
1, 38424, Note_off_c, 0, 84, 54
1, 38485, Note_on_c, 0, 88, 88
1, 38487, Note_on_c, 0, 79, 79
1, 38491, Note_on_c, 0, 48, 80
1, 38493, Note_on_c, 0, 52, 77
1, 38497, Note_on_c, 0, 55, 83
1, 38498, Note_off_c, 0, 53, 48
1, 38498, Poly_aftertouch_c, 0, 53, 0
1, 38507, Note_off_c, 0, 54, 31
1, 38507, Note_off_c, 0, 56, 60
1, 38507, Control_c, 0, 64, 72
1, 38507, Control_c, 1, 64, 72
1, 38515, Note_off_c, 0, 86, 64
1, 38515, Note_on_c, 0, 86, 14
1, 38523, Note_off_c, 0, 86, 59
1, 38526, Control_c, 0, 64, 24
1, 38526, Control_c, 1, 64, 24
1, 38544, Control_c, 1, 64, 0
1, 38544, Control_c, 0, 64, 0
1, 38574, Note_off_c, 0, 79, 57
1, 38613, Note_on_c, 0, 53, 70
1, 38613, Note_on_c, 0, 77, 85
1, 38616, Note_off_c, 0, 52, 58
1, 38622, Note_on_c, 0, 56, 78
1, 38630, Note_off_c, 0, 55, 62
1, 38633, Note_off_c, 0, 88, 63
1, 38660, Note_on_c, 0, 54, 15
1, 38661, Note_off_c, 0, 54, 127
1, 38672, Poly_aftertouch_c, 0, 86, 127
1, 38695, Note_off_c, 0, 77, 53
1, 38699, Note_off_c, 0, 56, 61
1, 38707, Note_off_c, 0, 53, 59
1, 38707, Poly_aftertouch_c, 0, 53, 0
1, 38728, Note_on_c, 0, 88, 88
1, 38732, Note_on_c, 0, 52, 72
1, 38732, Note_on_c, 0, 79, 84
1, 38743, Note_on_c, 0, 55, 80
1, 38757, Poly_aftertouch_c, 0, 86, 0
1, 38799, Note_off_c, 0, 48, 62
1, 38803, Note_on_c, 0, 53, 60
1, 38808, Note_on_c, 0, 56, 68
1, 38817, Note_off_c, 0, 55, 60
1, 38826, Note_off_c, 0, 52, 60
1, 38828, Note_on_c, 0, 77, 88
1, 38829, Note_off_c, 0, 79, 44
1, 38842, Note_on_c, 0, 86, 77
1, 38857, Note_off_c, 0, 88, 62
1, 38918, Control_c, 0, 64, 50
1, 38918, Control_c, 1, 64, 50
1, 38922, Note_on_c, 0, 55, 88
1, 38925, Note_on_c, 0, 88, 86
1, 38927, Note_on_c, 0, 48, 81
1, 38929, Note_off_c, 0, 56, 62
1, 38935, Note_off_c, 0, 53, 62
1, 38935, Poly_aftertouch_c, 0, 53, 0
1, 38935, Control_c, 0, 64, 127
1, 38935, Control_c, 1, 64, 127
1, 38938, Note_off_c, 0, 77, 62
1, 38950, Note_on_c, 0, 79, 94
1, 38952, Note_on_c, 0, 52, 44
1, 38976, Note_off_c, 0, 86, 63
1, 38983, Note_off_c, 0, 48, 61
1, 38993, Note_off_c, 0, 52, 46
1, 39001, Note_off_c, 0, 55, 65
1, 39007, Note_off_c, 0, 79, 64
1, 39027, Note_off_c, 0, 88, 67
1, 39055, Note_on_c, 0, 76, 88
1, 39067, Note_on_c, 0, 84, 54
1, 39071, Note_on_c, 0, 60, 80
1, 39097, Note_off_c, 0, 84, 61
1, 39105, Note_off_c, 0, 76, 66
1, 39122, Note_off_c, 0, 60, 58
1, 39173, Note_on_c, 0, 79, 69
1, 39178, Note_on_c, 0, 72, 80
1, 39184, Note_on_c, 0, 81, 71
1, 39190, Note_on_c, 0, 64, 80
1, 39213, Note_off_c, 0, 81, 67
1, 39231, Note_off_c, 0, 72, 55
1, 39267, Note_on_c, 0, 60, 74
1, 39267, Note_on_c, 0, 76, 81
1, 39268, Note_off_c, 0, 79, 61
1, 39271, Note_off_c, 0, 64, 60
1, 39283, Note_on_c, 0, 67, 71
1, 39301, Note_off_c, 0, 60, 60
1, 39320, Note_off_c, 0, 67, 63
1, 39325, Note_off_c, 0, 76, 63
1, 39425, Control_c, 0, 64, 73
1, 39425, Control_c, 1, 64, 73
1, 39426, Note_on_c, 0, 50, 75
1, 39426, Note_on_c, 0, 58, 81
1, 39433, Note_on_c, 0, 82, 85
1, 39435, Note_on_c, 0, 53, 68
1, 39443, Note_on_c, 0, 74, 71
1, 39444, Control_c, 0, 64, 22
1, 39444, Control_c, 1, 64, 22
1, 39462, Control_c, 1, 64, 0
1, 39462, Control_c, 0, 64, 0
1, 39482, Note_off_c, 0, 74, 53
1, 39540, Note_on_c, 0, 81, 82
1, 39552, Note_on_c, 0, 75, 77
1, 39557, Note_on_c, 0, 60, 77
1, 39559, Note_on_c, 0, 54, 78
1, 39561, Note_off_c, 0, 58, 61
1, 39566, Note_off_c, 0, 53, 52
1, 39566, Poly_aftertouch_c, 0, 53, 0
1, 39567, Poly_aftertouch_c, 0, 53, 0
1, 39569, Note_on_c, 0, 78, 58
1, 39615, Note_off_c, 0, 78, 66
1, 39616, Note_off_c, 0, 82, 51
1, 39630, Note_off_c, 0, 75, 63
1, 39659, Note_on_c, 0, 82, 77
1, 39663, Note_on_c, 0, 53, 63
1, 39666, Note_off_c, 0, 60, 58
1, 39673, Note_on_c, 0, 74, 74
1, 39678, Note_off_c, 0, 54, 62
1, 39687, Note_on_c, 0, 58, 74
1, 39696, Note_off_c, 0, 81, 61
1, 39752, Note_on_c, 0, 60, 68
1, 39753, Note_off_c, 0, 50, 61
1, 39765, Note_on_c, 0, 54, 73
1, 39765, Note_on_c, 0, 75, 84
1, 39776, Note_on_c, 0, 81, 66
1, 39778, Note_off_c, 0, 74, 59
1, 39788, Note_off_c, 0, 58, 61
1, 39792, Note_off_c, 0, 53, 60
1, 39799, Note_off_c, 0, 82, 63
1, 39811, Note_on_c, 0, 80, 22
1, 39819, Note_on_c, 0, 78, 45
1, 39827, Poly_aftertouch_c, 0, 76, 0
1, 39844, Note_off_c, 0, 60, 60
1, 39851, Note_off_c, 0, 78, 58
1, 39860, Note_off_c, 0, 75, 65
1, 39880, Note_off_c, 0, 80, 21
1, 39885, Note_on_c, 0, 74, 90
1, 39886, Note_on_c, 0, 82, 91
1, 39890, Note_on_c, 0, 50, 80
1, 39892, Note_on_c, 0, 53, 74
1, 39893, Control_c, 0, 64, 106
1, 39893, Control_c, 1, 64, 106
1, 39899, Note_on_c, 0, 58, 86
1, 39905, Note_off_c, 0, 81, 56
1, 39911, Control_c, 0, 64, 127
1, 39911, Control_c, 1, 64, 127
1, 39936, Note_off_c, 0, 54, 59
1, 39946, Note_off_c, 0, 74, 62
1, 39959, Note_off_c, 0, 53, 61
1, 39970, Note_off_c, 0, 50, 62
1, 39971, Note_off_c, 0, 58, 64
1, 40010, Note_on_c, 0, 62, 79
1, 40011, Note_on_c, 0, 77, 78
1, 40014, Note_off_c, 0, 82, 56
1, 40025, Note_on_c, 0, 80, 57
1, 40045, Note_on_c, 0, 76, 27
1, 40098, Note_off_c, 0, 76, 28
1, 40108, Note_on_c, 0, 65, 80
1, 40116, Note_off_c, 0, 62, 56
1, 40124, Note_off_c, 0, 80, 35
1, 40127, Note_on_c, 0, 74, 80
1, 40130, Note_on_c, 0, 70, 80
1, 40136, Note_off_c, 0, 77, 62
1, 40180, Note_off_c, 0, 65, 60
1, 40203, Note_off_c, 0, 70, 61
1, 40230, Note_on_c, 0, 77, 58
1, 40232, Note_on_c, 0, 62, 79
1, 40258, Note_off_c, 0, 74, 55
1, 40281, Note_off_c, 0, 62, 56
1, 40331, Note_on_c, 0, 81, 89
1, 40342, Note_on_c, 0, 48, 74
1, 40342, Note_on_c, 0, 72, 80
1, 40344, Note_on_c, 0, 52, 74
1, 40345, Note_off_c, 0, 77, 61
1, 40348, Note_on_c, 0, 57, 79
1, 40363, Control_c, 0, 64, 106
1, 40363, Control_c, 1, 64, 106
1, 40379, Control_c, 1, 64, 59
1, 40379, Control_c, 0, 64, 59
1, 40398, Control_c, 0, 64, 0
1, 40398, Control_c, 1, 64, 0
1, 40402, Note_off_c, 0, 72, 59
1, 40458, Note_on_c, 0, 80, 86
1, 40461, Note_on_c, 0, 74, 80
1, 40467, Note_on_c, 0, 53, 75
1, 40469, Note_off_c, 0, 52, 57
1, 40474, Note_on_c, 0, 59, 79
1, 40476, Note_off_c, 0, 57, 44
1, 40489, Note_off_c, 0, 81, 61
1, 40559, Note_off_c, 0, 74, 47
1, 40563, Note_on_c, 0, 52, 81
1, 40567, Poly_aftertouch_c, 0, 54, 0
1, 40568, Note_on_c, 0, 72, 79
1, 40573, Note_on_c, 0, 81, 80
1, 40588, Note_off_c, 0, 59, 55
1, 40588, Note_off_c, 0, 53, 56
1, 40595, Note_on_c, 0, 57, 79
1, 40609, Note_off_c, 0, 80, 63
1, 40646, Note_off_c, 0, 48, 61
1, 40653, Note_off_c, 0, 72, 49
1, 40677, Note_on_c, 0, 80, 76
1, 40684, Note_on_c, 0, 74, 79
1, 40694, Note_on_c, 0, 53, 65
1, 40694, Note_on_c, 0, 59, 80
1, 40697, Note_off_c, 0, 57, 63
1, 40701, Note_off_c, 0, 52, 60
1, 40712, Note_off_c, 0, 81, 62
1, 40762, Note_off_c, 0, 59, 61
1, 40776, Note_off_c, 0, 74, 55
1, 40789, Note_on_c, 0, 81, 87
1, 40789, Note_on_c, 0, 72, 90
1, 40789, Control_c, 0, 64, 80
1, 40789, Control_c, 1, 64, 80
1, 40791, Note_on_c, 0, 48, 82
1, 40799, Note_on_c, 0, 52, 72
1, 40805, Note_off_c, 0, 80, 67
1, 40807, Note_on_c, 0, 57, 86
1, 40808, Control_c, 0, 64, 127
1, 40808, Control_c, 1, 64, 127
1, 40843, Note_off_c, 0, 53, 56
1, 40844, Note_off_c, 0, 72, 64
1, 40877, Note_off_c, 0, 57, 61
1, 40880, Note_off_c, 0, 52, 59
1, 40890, Note_off_c, 0, 48, 61
1, 40907, Note_off_c, 0, 81, 56
1, 40907, Poly_aftertouch_c, 0, 79, 0
1, 40908, Note_on_c, 0, 76, 86
1, 40927, Note_on_c, 0, 60, 80
1, 40947, Note_on_c, 0, 77, 42
1, 40983, Note_off_c, 0, 77, 39
1, 40994, Note_off_c, 0, 76, 61
1, 41005, Note_off_c, 0, 60, 52
1, 41016, Note_on_c, 0, 64, 83
1, 41020, Note_on_c, 0, 69, 77
1, 41028, Note_on_c, 0, 72, 80
1, 41103, Note_off_c, 0, 64, 61
1, 41116, Note_on_c, 0, 76, 87
1, 41127, Note_on_c, 0, 60, 82
1, 41130, Note_off_c, 0, 69, 52
1, 41135, Note_off_c, 0, 72, 60
1, 41183, Control_c, 0, 64, 117
1, 41183, Control_c, 1, 64, 117
1, 41189, Note_off_c, 0, 76, 63
1, 41193, Note_off_c, 0, 60, 60
1, 41203, Control_c, 0, 64, 56
1, 41203, Control_c, 1, 64, 56
1, 41215, Poly_aftertouch_c, 0, 77, 0
1, 41220, Control_c, 0, 64, 0
1, 41220, Control_c, 1, 64, 0
1, 41237, Note_on_c, 0, 81, 93
1, 41244, Note_on_c, 0, 47, 86
1, 41249, Note_on_c, 0, 74, 87
1, 41255, Note_on_c, 0, 53, 81
1, 41319, Note_off_c, 0, 74, 62
1, 41330, Note_off_c, 0, 53, 61
1, 41333, Control_c, 0, 64, 65
1, 41333, Control_c, 1, 64, 65
1, 41335, Poly_aftertouch_c, 0, 51, 0
1, 41346, Note_off_c, 0, 47, 60
1, 41346, Note_on_c, 0, 51, 10
1, 41347, Note_off_c, 0, 51, 127
1, 41351, Control_c, 0, 64, 127
1, 41351, Control_c, 1, 64, 127
1, 41359, Note_on_c, 0, 57, 83
1, 41359, Note_on_c, 0, 77, 86
1, 41391, Note_on_c, 0, 76, 66
1, 41393, Note_off_c, 0, 81, 56
1, 41411, Note_off_c, 0, 57, 66
1, 41417, Note_off_c, 0, 76, 63
1, 41470, Note_on_c, 0, 62, 89
1, 41477, Note_on_c, 0, 69, 86
1, 41479, Note_off_c, 0, 77, 60
1, 41480, Note_on_c, 0, 74, 83
1, 41537, Note_off_c, 0, 62, 63
1, 41553, Note_off_c, 0, 69, 57
1, 41580, Note_on_c, 0, 77, 86
1, 41587, Note_on_c, 0, 65, 81
1, 41594, Note_off_c, 0, 74, 63
1, 41611, Poly_aftertouch_c, 0, 60, 0
1, 41614, Note_off_c, 0, 65, 69
1, 41644, Note_off_c, 0, 77, 63
1, 41708, Control_c, 0, 64, 97
1, 41708, Control_c, 1, 64, 97
1, 41726, Control_c, 1, 64, 45
1, 41726, Control_c, 0, 64, 45
1, 41728, Note_on_c, 0, 80, 91
1, 41734, Note_on_c, 0, 71, 86
1, 41742, Note_on_c, 0, 40, 81
1, 41745, Control_c, 0, 64, 0
1, 41745, Control_c, 1, 64, 0
1, 41759, Note_on_c, 0, 47, 69
1, 41799, Note_off_c, 0, 47, 62
1, 41834, Note_off_c, 0, 40, 61
1, 41839, Control_c, 0, 64, 42
1, 41839, Control_c, 1, 64, 42
1, 41845, Note_on_c, 0, 76, 77
1, 41856, Note_off_c, 0, 71, 60
1, 41858, Control_c, 0, 64, 89
1, 41858, Control_c, 1, 64, 89
1, 41860, Note_on_c, 0, 52, 72
1, 41875, Control_c, 0, 64, 127
1, 41875, Control_c, 1, 64, 127
1, 41900, Note_off_c, 0, 80, 62
1, 41903, Note_off_c, 0, 52, 62
1, 41960, Note_on_c, 0, 68, 86
1, 41971, Note_on_c, 0, 52, 71
1, 41972, Note_off_c, 0, 76, 62
1, 41976, Note_on_c, 0, 71, 76
1, 41983, Note_on_c, 0, 59, 73
1, 42009, Note_on_c, 0, 70, 30
1, 42052, Note_off_c, 0, 68, 60
1, 42065, Note_off_c, 0, 52, 60
1, 42074, Note_off_c, 0, 70, 44
1, 42086, Note_on_c, 0, 76, 86
1, 42092, Note_off_c, 0, 59, 50
1, 42096, Note_on_c, 0, 64, 82
1, 42100, Note_off_c, 0, 71, 59
1, 42138, Note_off_c, 0, 64, 59
1, 42143, Note_off_c, 0, 76, 64
1, 42176, Control_c, 0, 64, 81
1, 42176, Control_c, 1, 64, 81
1, 42191, Poly_aftertouch_c, 0, 75, 0
1, 42195, Control_c, 0, 64, 26
1, 42195, Control_c, 1, 64, 26
1, 42213, Control_c, 1, 64, 0
1, 42213, Control_c, 0, 64, 0
1, 42230, Note_on_c, 0, 45, 81
1, 42237, Note_on_c, 0, 83, 79
1, 42243, Note_on_c, 0, 81, 80
1, 42247, Note_on_c, 0, 52, 75
1, 42255, Note_on_c, 0, 74, 66
1, 42258, Note_on_c, 0, 72, 65
1, 42287, Note_off_c, 0, 74, 68
1, 42287, Control_c, 0, 64, 33
1, 42287, Control_c, 1, 64, 33
1, 42292, Note_off_c, 0, 72, 66
1, 42295, Note_off_c, 0, 52, 61
1, 42307, Control_c, 0, 64, 75
1, 42307, Control_c, 1, 64, 75
1, 42325, Control_c, 1, 64, 127
1, 42325, Control_c, 0, 64, 127
1, 42328, Note_off_c, 0, 45, 62
1, 42329, Note_off_c, 0, 83, 62
1, 42353, Note_on_c, 0, 57, 79
1, 42372, Note_on_c, 0, 76, 82
1, 42378, Note_off_c, 0, 81, 60
1, 42402, Note_off_c, 0, 57, 62
1, 42479, Note_on_c, 0, 60, 83
1, 42486, Note_on_c, 0, 72, 89
1, 42502, Note_off_c, 0, 76, 60
1, 42539, Note_off_c, 0, 60, 58
1, 42560, Note_off_c, 0, 72, 63
1, 42596, Note_on_c, 0, 64, 84
1, 42599, Note_on_c, 0, 69, 86
1, 42639, Note_off_c, 0, 64, 61
1, 42644, Note_off_c, 0, 69, 61
1, 42738, Note_on_c, 0, 64, 95
1, 42795, Note_on_c, 0, 65, 17
1, 42822, Note_off_c, 0, 64, 51
1, 42862, Note_off_c, 0, 65, 41
1, 42870, Note_on_c, 0, 60, 92
1, 42943, Note_off_c, 0, 60, 61
1, 42943, Control_c, 0, 64, 76
1, 42943, Control_c, 1, 64, 76
1, 42962, Control_c, 1, 64, 21
1, 42962, Control_c, 0, 64, 21
1, 42980, Control_c, 0, 64, 0
1, 42980, Control_c, 1, 64, 0
1, 43001, Note_on_c, 0, 45, 95
1, 43003, Note_on_c, 0, 33, 89
1, 43093, Control_c, 0, 64, 42
1, 43093, Control_c, 1, 64, 42
1, 43113, Control_c, 1, 64, 88
1, 43113, Control_c, 0, 64, 88
1, 43130, Control_c, 0, 64, 127
1, 43130, Control_c, 1, 64, 127
1, 43136, Poly_aftertouch_c, 0, 35, 0
1, 43139, Note_off_c, 0, 33, 63
1, 43174, Note_off_c, 0, 45, 64
1, 43440, Note_on_c, 0, 81, 89
1, 43448, Note_on_c, 0, 57, 77
1, 43454, Note_on_c, 0, 61, 70
1, 43461, Note_on_c, 0, 64, 67
1, 43461, Note_on_c, 0, 73, 82
1, 43560, Control_c, 0, 64, 105
1, 43560, Control_c, 1, 64, 105
1, 43570, Note_off_c, 0, 61, 56
1, 43574, Note_off_c, 0, 73, 54
1, 43580, Control_c, 0, 64, 55
1, 43580, Control_c, 1, 64, 55
1, 43590, Note_on_c, 0, 80, 81
1, 43597, Control_c, 0, 64, 0
1, 43597, Control_c, 1, 64, 0
1, 43599, Note_off_c, 0, 64, 58
1, 43602, Note_on_c, 0, 71, 80
1, 43613, Note_on_c, 0, 65, 75
1, 43614, Note_on_c, 0, 62, 65
1, 43626, Note_off_c, 0, 81, 62
1, 43701, Note_off_c, 0, 62, 55
1, 43717, Note_on_c, 0, 81, 82
1, 43722, Note_on_c, 0, 61, 72
1, 43724, Note_on_c, 0, 73, 81
1, 43725, Note_off_c, 0, 65, 41
1, 43726, Note_off_c, 0, 71, 32
1, 43738, Note_on_c, 0, 64, 81
1, 43748, Control_c, 0, 64, 53
1, 43748, Control_c, 1, 64, 53
1, 43759, Note_off_c, 0, 80, 64
1, 43765, Control_c, 0, 64, 127
1, 43765, Control_c, 1, 64, 127
1, 43799, Note_off_c, 0, 73, 57
1, 43822, Note_off_c, 0, 81, 54
1, 43832, Note_on_c, 0, 71, 79
1, 43833, Note_on_c, 0, 65, 82
1, 43835, Note_on_c, 0, 80, 79
1, 43836, Note_off_c, 0, 64, 60
1, 43843, Note_off_c, 0, 61, 54
1, 43853, Note_on_c, 0, 62, 67
1, 43900, Note_on_c, 0, 78, 27
1, 43901, Note_off_c, 0, 71, 61
1, 43927, Note_on_c, 0, 61, 67
1, 43930, Note_off_c, 0, 65, 62
1, 43937, Note_on_c, 0, 64, 66
1, 43938, Note_on_c, 0, 81, 89
1, 43945, Note_off_c, 0, 62, 61
1, 43953, Note_off_c, 0, 78, 47
1, 43963, Poly_aftertouch_c, 0, 73, 127
1, 43965, Poly_aftertouch_c, 0, 73, 0
1, 43968, Note_off_c, 0, 64, 69
1, 43969, Note_off_c, 0, 80, 63
1, 43976, Poly_aftertouch_c, 0, 72, 0
1, 43996, Note_off_c, 0, 57, 62
1, 43996, Note_off_c, 0, 61, 64
1, 44012, Note_off_c, 0, 81, 63
1, 44042, Note_on_c, 0, 83, 87
1, 44050, Note_on_c, 0, 74, 83
1, 44059, Note_on_c, 0, 62, 80
1, 44063, Note_on_c, 0, 59, 75
1, 44081, Note_off_c, 0, 74, 64
1, 44093, Note_off_c, 0, 59, 65
1, 44102, Note_off_c, 0, 62, 58
1, 44107, Note_off_c, 0, 83, 64
1, 44161, Note_on_c, 0, 57, 80
1, 44162, Note_on_c, 0, 85, 93
1, 44165, Note_on_c, 0, 61, 80
1, 44172, Note_on_c, 0, 76, 77
1, 44201, Note_off_c, 0, 76, 63
1, 44204, Note_off_c, 0, 61, 64
1, 44227, Note_off_c, 0, 57, 63
1, 44274, Note_on_c, 0, 88, 88
1, 44287, Note_on_c, 0, 58, 79
1, 44288, Note_on_c, 0, 79, 80
1, 44296, Note_on_c, 0, 55, 72
1, 44335, Poly_aftertouch_c, 0, 86, 0
1, 44337, Note_off_c, 0, 79, 58
1, 44347, Note_off_c, 0, 85, 47
1, 44392, Note_on_c, 0, 89, 89
1, 44406, Note_on_c, 0, 81, 87
1, 44410, Note_on_c, 0, 53, 72
1, 44413, Note_on_c, 0, 57, 80
1, 44421, Note_off_c, 0, 88, 61
1, 44424, Note_on_c, 0, 50, 73
1, 44432, Note_off_c, 0, 55, 56
1, 44440, Control_c, 0, 64, 79
1, 44440, Control_c, 1, 64, 79
1, 44452, Note_off_c, 0, 58, 25
1, 44458, Control_c, 0, 64, 35
1, 44458, Control_c, 1, 64, 35
1, 44478, Control_c, 1, 64, 0
1, 44478, Control_c, 0, 64, 0
1, 44516, Note_on_c, 0, 79, 82
1, 44523, Note_on_c, 0, 88, 81
1, 44526, Note_on_c, 0, 55, 69
1, 44528, Note_off_c, 0, 81, 58
1, 44533, Note_off_c, 0, 57, 65
1, 44540, Note_on_c, 0, 58, 75
1, 44542, Note_off_c, 0, 89, 61
1, 44564, Note_off_c, 0, 53, 59
1, 44617, Note_off_c, 0, 79, 55
1, 44623, Note_on_c, 0, 89, 80
1, 44632, Note_on_c, 0, 81, 83
1, 44640, Note_off_c, 0, 58, 63
1, 44645, Note_off_c, 0, 55, 60
1, 44648, Note_on_c, 0, 53, 63
1, 44658, Note_off_c, 0, 88, 66
1, 44662, Note_on_c, 0, 57, 75
1, 44702, Note_off_c, 0, 50, 62
1, 44708, Note_on_c, 0, 55, 59
1, 44714, Note_on_c, 0, 58, 58
1, 44729, Note_on_c, 0, 79, 90
1, 44740, Note_on_c, 0, 88, 74
1, 44745, Note_off_c, 0, 81, 62
1, 44749, Note_off_c, 0, 53, 59
1, 44750, Note_off_c, 0, 57, 62
1, 44752, Note_off_c, 0, 89, 62
1, 44812, Note_off_c, 0, 79, 54
1, 44815, Control_c, 0, 64, 9
1, 44815, Control_c, 1, 64, 9
1, 44827, Note_on_c, 0, 57, 79
1, 44829, Note_on_c, 0, 89, 84
1, 44833, Note_off_c, 0, 58, 62
1, 44834, Control_c, 0, 64, 127
1, 44834, Control_c, 1, 64, 127
1, 44835, Note_on_c, 0, 50, 81
1, 44851, Note_on_c, 0, 81, 92
1, 44852, Note_on_c, 0, 53, 57
1, 44854, Note_off_c, 0, 55, 62
1, 44877, Note_off_c, 0, 88, 64
1, 44886, Note_off_c, 0, 53, 56
1, 44894, Note_off_c, 0, 50, 64
1, 44902, Note_off_c, 0, 57, 64
1, 44906, Note_off_c, 0, 81, 63
1, 44931, Note_off_c, 0, 89, 63
1, 44953, Note_on_c, 0, 77, 88
1, 44973, Note_on_c, 0, 62, 80
1, 44979, Note_on_c, 0, 86, 45
1, 45001, Note_off_c, 0, 77, 65
1, 45014, Note_off_c, 0, 86, 56
1, 45043, Note_off_c, 0, 62, 61
1, 45071, Note_on_c, 0, 81, 76
1, 45081, Note_on_c, 0, 74, 79
1, 45087, Note_on_c, 0, 65, 78
1, 45150, Note_off_c, 0, 74, 54
1, 45181, Note_off_c, 0, 81, 58
1, 45183, Note_on_c, 0, 77, 80
1, 45185, Note_on_c, 0, 62, 73
1, 45185, Note_on_c, 0, 69, 80
1, 45195, Note_off_c, 0, 65, 63
1, 45237, Note_off_c, 0, 62, 60
1, 45238, Note_off_c, 0, 69, 52
1, 45302, Note_on_c, 0, 55, 71
1, 45302, Note_on_c, 0, 79, 87
1, 45307, Note_on_c, 0, 59, 73
1, 45309, Note_on_c, 0, 71, 82
1, 45314, Note_on_c, 0, 62, 68
1, 45339, Control_c, 0, 64, 69
1, 45339, Control_c, 1, 64, 69
1, 45344, Note_off_c, 0, 77, 24
1, 45344, Note_off_c, 0, 71, 59
1, 45359, Control_c, 0, 64, 20
1, 45359, Control_c, 1, 64, 20
1, 45377, Control_c, 1, 64, 0
1, 45377, Control_c, 0, 64, 0
1, 45418, Note_on_c, 0, 71, 42
1, 45427, Note_on_c, 0, 60, 69
1, 45429, Note_on_c, 0, 78, 82
1, 45430, Note_on_c, 0, 69, 80
1, 45433, Note_on_c, 0, 63, 72
1, 45435, Note_off_c, 0, 62, 60
1, 45442, Note_off_c, 0, 59, 59
1, 45454, Note_off_c, 0, 71, 50
1, 45455, Note_off_c, 0, 79, 61
1, 45528, Note_off_c, 0, 63, 62
1, 45538, Note_off_c, 0, 60, 59
1, 45547, Note_on_c, 0, 71, 73
1, 45555, Note_on_c, 0, 79, 81
1, 45562, Note_on_c, 0, 59, 68
1, 45566, Note_on_c, 0, 62, 80
1, 45567, Note_off_c, 0, 69, 30
1, 45591, Note_off_c, 0, 78, 64
1, 45601, Control_c, 0, 64, 11
1, 45601, Control_c, 1, 64, 11
1, 45613, Note_off_c, 0, 71, 59
1, 45619, Control_c, 0, 64, 28
1, 45619, Control_c, 1, 64, 28
1, 45625, Note_on_c, 0, 60, 63
1, 45638, Control_c, 0, 64, 56
1, 45638, Control_c, 1, 64, 56
1, 45641, Note_off_c, 0, 59, 62
1, 45642, Note_off_c, 0, 62, 59
1, 45647, Note_on_c, 0, 63, 72
1, 45656, Note_on_c, 0, 69, 81
1, 45657, Control_c, 0, 64, 78
1, 45657, Control_c, 1, 64, 78
1, 45666, Note_on_c, 0, 78, 71
1, 45668, Note_off_c, 0, 79, 60
1, 45675, Control_c, 0, 64, 98
1, 45675, Control_c, 1, 64, 98
1, 45694, Control_c, 1, 64, 127
1, 45694, Control_c, 0, 64, 127
1, 45721, Note_off_c, 0, 69, 61
1, 45729, Note_off_c, 0, 63, 62
1, 45745, Note_on_c, 0, 59, 58
1, 45749, Note_on_c, 0, 79, 78
1, 45754, Note_off_c, 0, 60, 59
1, 45771, Note_on_c, 0, 62, 81
1, 45779, Note_off_c, 0, 78, 64
1, 45787, Note_off_c, 0, 59, 62
1, 45809, Note_off_c, 0, 79, 64
1, 45862, Note_on_c, 0, 60, 78
1, 45867, Note_on_c, 0, 81, 81
1, 45868, Note_on_c, 0, 57, 75
1, 45875, Note_on_c, 0, 72, 78
1, 45881, Note_off_c, 0, 55, 52
1, 45881, Note_off_c, 0, 62, 62
1, 45906, Note_off_c, 0, 72, 62
1, 45949, Note_off_c, 0, 60, 58
1, 45977, Note_on_c, 0, 83, 92
1, 45979, Note_off_c, 0, 57, 60
1, 45983, Poly_aftertouch_c, 0, 80, 0
1, 45985, Note_on_c, 0, 55, 81
1, 45999, Note_on_c, 0, 59, 76
1, 46000, Note_off_c, 0, 81, 40
1, 46026, Note_off_c, 0, 83, 63
1, 46049, Note_off_c, 0, 55, 59
1, 46096, Note_on_c, 0, 86, 90
1, 46097, Note_on_c, 0, 77, 87
1, 46102, Note_on_c, 0, 56, 82
1, 46107, Note_on_c, 0, 53, 79
1, 46138, Note_off_c, 0, 59, 55
1, 46150, Note_off_c, 0, 77, 63
1, 46201, Control_c, 0, 64, 104
1, 46201, Control_c, 1, 64, 104
1, 46219, Control_c, 1, 64, 61
1, 46219, Control_c, 0, 64, 61
1, 46226, Note_on_c, 0, 52, 79
1, 46226, Note_on_c, 0, 88, 88
1, 46230, Note_on_c, 0, 79, 87
1, 46240, Note_off_c, 0, 56, 61
1, 46243, Note_on_c, 0, 48, 72
1, 46246, Note_on_c, 0, 55, 77
1, 46257, Control_c, 0, 64, 0
1, 46257, Control_c, 1, 64, 0
1, 46264, Note_off_c, 0, 86, 59
1, 46294, Note_off_c, 0, 79, 61
1, 46297, Note_off_c, 0, 53, 36
1, 46342, Note_off_c, 0, 52, 47
1, 46344, Note_on_c, 0, 77, 87
1, 46355, Note_on_c, 0, 53, 64
1, 46368, Note_off_c, 0, 88, 65
1, 46378, Note_off_c, 0, 55, 64
1, 46381, Note_on_c, 0, 54, 42
1, 46381, Note_on_c, 0, 56, 68
1, 46396, Poly_aftertouch_c, 0, 86, 127
1, 46409, Note_off_c, 0, 77, 61
1, 46421, Note_off_c, 0, 54, 31
1, 46451, Note_on_c, 0, 88, 80
1, 46456, Note_off_c, 0, 53, 61
1, 46462, Note_off_c, 0, 56, 61
1, 46467, Note_on_c, 0, 79, 81
1, 46472, Note_on_c, 0, 52, 68
1, 46494, Poly_aftertouch_c, 0, 86, 0
1, 46496, Note_on_c, 0, 55, 79
1, 46523, Note_off_c, 0, 48, 62
1, 46530, Note_on_c, 0, 53, 61
1, 46559, Note_on_c, 0, 56, 62
1, 46559, Note_on_c, 0, 77, 88
1, 46562, Note_off_c, 0, 52, 59
1, 46570, Note_off_c, 0, 55, 63
1, 46570, Note_on_c, 0, 86, 75
1, 46582, Note_off_c, 0, 79, 59
1, 46583, Note_off_c, 0, 88, 63
1, 46628, Note_off_c, 0, 77, 57
1, 46660, Note_on_c, 0, 48, 84
1, 46665, Note_on_c, 0, 88, 88
1, 46666, Note_on_c, 0, 55, 83
1, 46673, Note_on_c, 0, 52, 62
1, 46675, Note_off_c, 0, 53, 61
1, 46675, Note_off_c, 0, 56, 61
1, 46687, Control_c, 0, 64, 107
1, 46687, Control_c, 1, 64, 107
1, 46688, Note_on_c, 0, 79, 84
1, 46705, Control_c, 0, 64, 127
1, 46705, Control_c, 1, 64, 127
1, 46713, Note_off_c, 0, 52, 61
1, 46715, Note_off_c, 0, 86, 64
1, 46721, Note_off_c, 0, 48, 63
1, 46730, Note_off_c, 0, 55, 65
1, 46772, Note_off_c, 0, 88, 64
1, 46784, Note_on_c, 0, 76, 78
1, 46789, Note_on_c, 0, 84, 72
1, 46797, Note_off_c, 0, 79, 61
1, 46806, Note_on_c, 0, 77, 44
1, 46815, Note_off_c, 0, 84, 66
1, 46815, Note_on_c, 0, 60, 71
1, 46823, Note_off_c, 0, 76, 65
1, 46839, Note_off_c, 0, 77, 41
1, 46884, Note_off_c, 0, 60, 57
1, 46896, Note_on_c, 0, 79, 67
1, 46906, Note_on_c, 0, 72, 75
1, 46926, Note_on_c, 0, 64, 76
1, 46937, Poly_aftertouch_c, 0, 57, 0
1, 46999, Note_on_c, 0, 76, 81
1, 47002, Note_off_c, 0, 72, 41
1, 47020, Poly_aftertouch_c, 0, 77, 0
1, 47022, Note_on_c, 0, 60, 78
1, 47023, Note_on_c, 0, 67, 72
1, 47030, Note_off_c, 0, 64, 62
1, 47032, Note_off_c, 0, 79, 42
1, 47053, Note_off_c, 0, 60, 63
1, 47058, Note_off_c, 0, 67, 64
1, 47067, Note_off_c, 0, 76, 63
1, 47160, Note_on_c, 0, 50, 77
1, 47170, Note_on_c, 0, 58, 80
1, 47172, Note_on_c, 0, 53, 74
1, 47174, Note_on_c, 0, 82, 86
1, 47186, Note_on_c, 0, 74, 72
1, 47192, Control_c, 0, 64, 85
1, 47192, Control_c, 1, 64, 85
1, 47213, Control_c, 1, 64, 39
1, 47213, Control_c, 0, 64, 39
1, 47225, Note_off_c, 0, 74, 57
1, 47230, Control_c, 0, 64, 0
1, 47230, Control_c, 1, 64, 0
1, 47282, Note_on_c, 0, 81, 82
1, 47293, Note_on_c, 0, 54, 76
1, 47295, Note_on_c, 0, 75, 76
1, 47301, Note_off_c, 0, 53, 26
1, 47310, Note_on_c, 0, 60, 72
1, 47314, Note_off_c, 0, 58, 62
1, 47341, Note_off_c, 0, 82, 51
1, 47391, Note_off_c, 0, 75, 62
1, 47398, Note_on_c, 0, 53, 68
1, 47400, Poly_aftertouch_c, 0, 78, 0
1, 47408, Note_on_c, 0, 82, 77
1, 47409, Note_on_c, 0, 74, 78
1, 47413, Note_off_c, 0, 54, 59
1, 47429, Note_off_c, 0, 60, 54
1, 47431, Note_on_c, 0, 58, 74
1, 47436, Note_off_c, 0, 81, 61
1, 47479, Note_off_c, 0, 50, 60
1, 47498, Note_on_c, 0, 54, 74
1, 47505, Note_on_c, 0, 75, 86
1, 47511, Note_on_c, 0, 81, 65
1, 47516, Note_off_c, 0, 74, 55
1, 47516, Note_on_c, 0, 60, 69
1, 47521, Note_off_c, 0, 53, 60
1, 47533, Note_off_c, 0, 58, 63
1, 47560, Note_on_c, 0, 78, 35
1, 47563, Note_off_c, 0, 82, 60
1, 47590, Note_off_c, 0, 75, 65
1, 47602, Note_off_c, 0, 60, 54
1, 47603, Note_off_c, 0, 78, 50
1, 47621, Note_on_c, 0, 82, 81
1, 47624, Note_on_c, 0, 74, 90
1, 47624, Control_c, 0, 64, 39
1, 47624, Control_c, 1, 64, 39
1, 47631, Note_on_c, 0, 50, 81
1, 47635, Note_on_c, 0, 53, 77
1, 47639, Note_on_c, 0, 58, 85
1, 47644, Control_c, 0, 64, 127
1, 47644, Control_c, 1, 64, 127
1, 47654, Note_off_c, 0, 81, 62
1, 47672, Note_off_c, 0, 54, 61
1, 47686, Note_off_c, 0, 74, 61
1, 47696, Note_off_c, 0, 53, 61
1, 47710, Note_off_c, 0, 50, 61
1, 47718, Note_off_c, 0, 58, 64
1, 47741, Note_on_c, 0, 77, 80
1, 47746, Note_off_c, 0, 82, 61
1, 47749, Note_on_c, 0, 62, 81
1, 47762, Note_on_c, 0, 80, 55
1, 47805, Note_off_c, 0, 80, 52
1, 47840, Note_on_c, 0, 65, 84
1, 47841, Note_off_c, 0, 62, 57
1, 47857, Note_on_c, 0, 70, 83
1, 47858, Note_on_c, 0, 74, 77
1, 47869, Note_off_c, 0, 77, 60
1, 47920, Note_off_c, 0, 65, 59
1, 47946, Note_off_c, 0, 70, 62
1, 47950, Note_on_c, 0, 77, 72
1, 47956, Note_on_c, 0, 62, 85
1, 47984, Note_off_c, 0, 74, 57
1, 48017, Note_off_c, 0, 62, 63
1, 48068, Note_on_c, 0, 81, 89
1, 48077, Note_on_c, 0, 48, 76
1, 48079, Note_on_c, 0, 52, 79
1, 48080, Note_on_c, 0, 72, 78
1, 48084, Note_off_c, 0, 77, 62
1, 48088, Note_on_c, 0, 57, 80
1, 48109, Control_c, 0, 64, 64
1, 48109, Control_c, 1, 64, 64
1, 48128, Control_c, 1, 64, 8
1, 48128, Control_c, 0, 64, 8
1, 48138, Note_off_c, 0, 72, 47
1, 48146, Control_c, 0, 64, 0
1, 48146, Control_c, 1, 64, 0
1, 48193, Note_off_c, 0, 52, 59
1, 48199, Note_on_c, 0, 53, 73
1, 48199, Note_on_c, 0, 74, 80
1, 48200, Note_on_c, 0, 80, 86
1, 48220, Note_on_c, 0, 59, 82
1, 48226, Note_off_c, 0, 81, 60
1, 48234, Note_off_c, 0, 57, 59
1, 48286, Note_off_c, 0, 74, 59
1, 48307, Note_off_c, 0, 53, 52
1, 48313, Note_on_c, 0, 52, 82
1, 48314, Note_on_c, 0, 81, 86
1, 48315, Note_on_c, 0, 72, 80
1, 48334, Note_off_c, 0, 59, 37
1, 48339, Note_on_c, 0, 57, 80
1, 48355, Note_off_c, 0, 80, 65
1, 48406, Note_off_c, 0, 48, 57
1, 48413, Note_on_c, 0, 53, 66
1, 48417, Note_on_c, 0, 80, 72
1, 48420, Note_on_c, 0, 74, 79
1, 48427, Note_on_c, 0, 59, 80
1, 48435, Note_off_c, 0, 52, 61
1, 48436, Note_off_c, 0, 57, 64
1, 48442, Note_off_c, 0, 72, 61
1, 48456, Note_off_c, 0, 81, 62
1, 48497, Note_off_c, 0, 59, 61
1, 48522, Control_c, 0, 64, 86
1, 48522, Control_c, 1, 64, 86
1, 48527, Note_on_c, 0, 81, 84
1, 48528, Note_on_c, 0, 48, 86
1, 48534, Note_on_c, 0, 72, 92
1, 48535, Note_on_c, 0, 52, 79
1, 48541, Control_c, 0, 64, 127
1, 48541, Control_c, 1, 64, 127
1, 48544, Note_on_c, 0, 57, 90
1, 48556, Note_off_c, 0, 74, 59
1, 48557, Note_off_c, 0, 80, 68
1, 48587, Note_off_c, 0, 72, 64
1, 48607, Note_off_c, 0, 53, 50
1, 48621, Note_off_c, 0, 57, 63
1, 48630, Note_off_c, 0, 52, 61
1, 48635, Note_off_c, 0, 48, 61
1, 48639, Note_on_c, 0, 76, 85
1, 48660, Note_off_c, 0, 81, 55
1, 48675, Note_on_c, 0, 60, 80
1, 48704, Note_on_c, 0, 77, 13
1, 48734, Note_off_c, 0, 76, 60
1, 48759, Note_on_c, 0, 64, 84
1, 48765, Note_on_c, 0, 72, 82
1, 48766, Note_on_c, 0, 69, 78
1, 48771, Note_off_c, 0, 77, 28
1, 48776, Note_off_c, 0, 60, 51
1, 48833, Note_off_c, 0, 64, 58
1, 48837, Note_off_c, 0, 69, 48
1, 48877, Note_on_c, 0, 60, 79
1, 48877, Note_on_c, 0, 76, 82
1, 48884, Note_off_c, 0, 72, 58
1, 48895, Control_c, 0, 64, 101
1, 48895, Control_c, 1, 64, 101
1, 48914, Control_c, 1, 64, 47
1, 48914, Control_c, 0, 64, 47
1, 48930, Note_off_c, 0, 60, 59
1, 48933, Control_c, 0, 64, 0
1, 48933, Control_c, 1, 64, 0
1, 48949, Note_off_c, 0, 76, 63
1, 48963, Poly_aftertouch_c, 0, 77, 0
1, 48976, Note_on_c, 0, 81, 90
1, 48984, Note_on_c, 0, 47, 87
1, 48991, Note_on_c, 0, 53, 82
1, 48993, Note_on_c, 0, 74, 86
1, 49040, Note_on_c, 0, 51, 12
1, 49041, Note_off_c, 0, 51, 127
1, 49043, Control_c, 0, 64, 34
1, 49043, Control_c, 1, 64, 34
1, 49054, Note_off_c, 0, 74, 61
1, 49063, Control_c, 0, 64, 68
1, 49063, Control_c, 1, 64, 68
1, 49065, Note_off_c, 0, 53, 61
1, 49072, Note_off_c, 0, 47, 60
1, 49084, Control_c, 0, 64, 103
1, 49084, Control_c, 1, 64, 103
1, 49100, Control_c, 1, 64, 127
1, 49100, Control_c, 0, 64, 127
1, 49106, Note_on_c, 0, 57, 83
1, 49113, Poly_aftertouch_c, 0, 51, 0
1, 49122, Note_on_c, 0, 76, 72
1, 49125, Note_off_c, 0, 81, 56
1, 49152, Poly_aftertouch_c, 0, 77, 127
1, 49154, Note_off_c, 0, 76, 64
1, 49165, Note_off_c, 0, 57, 65
1, 49217, Note_on_c, 0, 62, 89
1, 49217, Note_on_c, 0, 74, 80
1, 49221, Poly_aftertouch_c, 0, 77, 0
1, 49222, Note_on_c, 0, 69, 80
1, 49285, Note_off_c, 0, 62, 63
1, 49328, Note_on_c, 0, 77, 88
1, 49340, Note_on_c, 0, 65, 82
1, 49342, Note_off_c, 0, 69, 57
1, 49347, Note_off_c, 0, 74, 62
1, 49373, Note_off_c, 0, 65, 67
1, 49389, Note_off_c, 0, 77, 63
1, 49457, Control_c, 0, 64, 117
1, 49457, Control_c, 1, 64, 117
1, 49475, Control_c, 1, 64, 57
1, 49475, Control_c, 0, 64, 57
1, 49480, Note_on_c, 0, 80, 89
1, 49482, Note_on_c, 0, 71, 90
1, 49494, Note_on_c, 0, 40, 82
1, 49494, Control_c, 0, 64, 0
1, 49494, Control_c, 1, 64, 0
1, 49513, Note_on_c, 0, 47, 72
1, 49544, Note_off_c, 0, 47, 67
1, 49588, Control_c, 0, 64, 23
1, 49588, Control_c, 1, 64, 23
1, 49597, Note_off_c, 0, 40, 60
1, 49601, Note_on_c, 0, 76, 77
1, 49604, Note_off_c, 0, 71, 58
1, 49607, Control_c, 0, 64, 59
1, 49607, Control_c, 1, 64, 59
1, 49614, Note_on_c, 0, 52, 79
1, 49626, Control_c, 0, 64, 99
1, 49626, Control_c, 1, 64, 99
1, 49637, Note_on_c, 0, 75, 40
1, 49644, Control_c, 0, 64, 127
1, 49644, Control_c, 1, 64, 127
1, 49660, Note_off_c, 0, 80, 63
1, 49675, Note_off_c, 0, 52, 60
1, 49684, Note_off_c, 0, 75, 50
1, 49710, Note_on_c, 0, 68, 84
1, 49717, Note_off_c, 0, 76, 64
1, 49727, Note_on_c, 0, 71, 79
1, 49742, Note_on_c, 0, 52, 71
1, 49755, Note_on_c, 0, 59, 76
1, 49808, Note_off_c, 0, 68, 61
1, 49829, Note_off_c, 0, 59, 60
1, 49839, Note_on_c, 0, 76, 82
1, 49847, Note_off_c, 0, 52, 60
1, 49857, Note_off_c, 0, 71, 59
1, 49868, Note_on_c, 0, 64, 80
1, 49903, Note_off_c, 0, 76, 64
1, 49913, Note_off_c, 0, 64, 58
1, 49944, Control_c, 0, 64, 93
1, 49944, Control_c, 1, 64, 93
1, 49963, Control_c, 1, 64, 41
1, 49963, Control_c, 0, 64, 41
1, 49981, Control_c, 0, 64, 0
1, 49981, Control_c, 1, 64, 0
1, 49987, Note_on_c, 0, 81, 91
1, 50004, Note_on_c, 0, 45, 77
1, 50004, Note_on_c, 0, 72, 87
1, 50008, Note_on_c, 0, 52, 74
1, 50034, Note_on_c, 0, 47, 25
1, 50047, Note_off_c, 0, 72, 53
1, 50056, Control_c, 0, 64, 16
1, 50056, Control_c, 1, 64, 16
1, 50071, Note_off_c, 0, 52, 54
1, 50075, Control_c, 0, 64, 53
1, 50075, Control_c, 1, 64, 53
1, 50094, Note_off_c, 0, 47, 24
1, 50094, Control_c, 0, 64, 92
1, 50094, Control_c, 1, 64, 92
1, 50101, Note_off_c, 0, 45, 61
1, 50112, Control_c, 0, 64, 127
1, 50112, Control_c, 1, 64, 127
1, 50124, Note_on_c, 0, 76, 86
1, 50136, Note_on_c, 0, 57, 77
1, 50148, Note_off_c, 0, 81, 58
1, 50200, Note_off_c, 0, 57, 61
1, 50239, Poly_aftertouch_c, 0, 77, 0
1, 50251, Note_on_c, 0, 72, 87
1, 50261, Note_on_c, 0, 60, 80
1, 50280, Note_off_c, 0, 76, 57
1, 50347, Note_off_c, 0, 60, 60
1, 50360, Note_off_c, 0, 72, 55
1, 50375, Note_on_c, 0, 69, 90
1, 50385, Note_on_c, 0, 64, 84
1, 50432, Note_off_c, 0, 69, 62
1, 50436, Note_off_c, 0, 64, 60
1, 50538, Note_on_c, 0, 64, 91
1, 50635, Note_off_c, 0, 64, 51
1, 50659, Note_on_c, 0, 60, 90
1, 50738, Note_off_c, 0, 60, 62
1, 50841, Note_on_c, 0, 45, 90
1, 50847, Note_on_c, 0, 33, 88
1, 50861, Control_c, 0, 64, 98
1, 50861, Control_c, 1, 64, 98
1, 50880, Control_c, 1, 64, 48
1, 50880, Control_c, 0, 64, 48
1, 50898, Control_c, 0, 64, 0
1, 50898, Control_c, 1, 64, 0
1, 51011, Control_c, 1, 64, 26
1, 51011, Control_c, 0, 64, 26
1, 51029, Control_c, 0, 64, 72
1, 51029, Control_c, 1, 64, 72
1, 51048, Control_c, 1, 64, 127
1, 51048, Control_c, 0, 64, 127
1, 51159, Note_off_c, 0, 33, 57
1, 51207, Note_off_c, 0, 45, 55
1, 51480, Control_c, 0, 64, 116
1, 51480, Control_c, 1, 64, 116
1, 51498, Control_c, 1, 64, 89
1, 51498, Control_c, 0, 64, 89
1, 51516, Control_c, 0, 64, 76
1, 51516, Control_c, 1, 64, 76
1, 51534, Control_c, 1, 64, 70
1, 51534, Control_c, 0, 64, 70
1, 51572, Control_c, 0, 64, 65
1, 51572, Control_c, 1, 64, 65
1, 51591, Control_c, 1, 64, 58
1, 51591, Control_c, 0, 64, 58
1, 51610, Control_c, 0, 64, 50
1, 51610, Control_c, 1, 64, 50
1, 51629, Control_c, 1, 64, 45
1, 51629, Control_c, 0, 64, 45
1, 51646, Control_c, 0, 64, 40
1, 51646, Control_c, 1, 64, 40
1, 51666, Control_c, 1, 64, 34
1, 51666, Control_c, 0, 64, 34
1, 51684, Control_c, 0, 64, 20
1, 51684, Control_c, 1, 64, 20
1, 51703, Control_c, 1, 64, 0
1, 51703, Control_c, 0, 64, 0
1, 51849, Note_on_c, 0, 64, 91
1, 51852, Control_c, 0, 64, 49
1, 51852, Control_c, 1, 64, 49
1, 51859, Note_on_c, 0, 45, 81
1, 51864, Note_on_c, 0, 52, 87
1, 51867, Note_on_c, 0, 36, 72
1, 51871, Control_c, 0, 64, 95
1, 51871, Control_c, 1, 64, 95
1, 51886, Note_on_c, 0, 61, 59
1, 51889, Control_c, 0, 64, 127
1, 51889, Control_c, 1, 64, 127
1, 51894, Note_off_c, 0, 52, 71
1, 51921, Note_off_c, 0, 61, 62
1, 51999, Note_on_c, 0, 44, 81
1, 52001, Note_on_c, 0, 35, 72
1, 52019, Note_on_c, 0, 65, 88
1, 52022, Note_off_c, 0, 45, 60
1, 52030, Poly_aftertouch_c, 0, 45, 0
1, 52034, Note_on_c, 0, 53, 72
1, 52052, Note_off_c, 0, 36, 35
1, 52057, Note_off_c, 0, 64, 61
1, 52066, Note_off_c, 0, 53, 65
1, 52078, Control_c, 0, 64, 96
1, 52078, Control_c, 1, 64, 96
1, 52097, Control_c, 1, 64, 66
1, 52097, Control_c, 0, 64, 66
1, 52102, Note_off_c, 0, 35, 54
1, 52111, Note_off_c, 0, 44, 59
1, 52114, Control_c, 0, 64, 38
1, 52114, Control_c, 1, 64, 38
1, 52134, Control_c, 1, 64, 17
1, 52134, Control_c, 0, 64, 17
1, 52150, Note_on_c, 0, 36, 70
1, 52153, Control_c, 0, 64, 11
1, 52153, Control_c, 1, 64, 11
1, 52156, Note_on_c, 0, 64, 85
1, 52171, Note_on_c, 0, 52, 70
1, 52178, Poly_aftertouch_c, 0, 45, 127
1, 52186, Note_off_c, 0, 65, 60
1, 52186, Note_on_c, 0, 53, 52
1, 52228, Note_off_c, 0, 53, 47
1, 52230, Note_off_c, 0, 36, 60
1, 52254, Note_on_c, 0, 44, 85
1, 52274, Note_on_c, 0, 35, 66
1, 52285, Control_c, 0, 64, 0
1, 52285, Control_c, 1, 64, 0
1, 52288, Poly_aftertouch_c, 0, 45, 0
1, 52335, Note_off_c, 0, 35, 53
1, 52361, Note_on_c, 0, 45, 85
1, 52369, Note_off_c, 0, 44, 43
1, 52380, Note_on_c, 0, 36, 80
1, 52470, Note_off_c, 0, 36, 59
1, 52470, Control_c, 0, 64, 15
1, 52470, Control_c, 1, 64, 15
1, 52490, Control_c, 1, 64, 32
1, 52490, Control_c, 0, 64, 32
1, 52493, Note_on_c, 0, 44, 85
1, 52504, Note_on_c, 0, 35, 68
1, 52508, Control_c, 0, 64, 56
1, 52508, Control_c, 1, 64, 56
1, 52515, Note_off_c, 0, 45, 62
1, 52526, Control_c, 0, 64, 74
1, 52526, Control_c, 1, 64, 74
1, 52546, Control_c, 1, 64, 86
1, 52546, Control_c, 0, 64, 86
1, 52565, Control_c, 0, 64, 99
1, 52565, Control_c, 1, 64, 99
1, 52574, Note_off_c, 0, 44, 61
1, 52583, Control_c, 0, 64, 122
1, 52583, Control_c, 1, 64, 122
1, 52592, Note_off_c, 0, 35, 60
1, 52596, Note_on_c, 0, 45, 82
1, 52599, Note_on_c, 0, 36, 80
1, 52602, Note_off_c, 0, 52, 38
1, 52602, Control_c, 0, 64, 127
1, 52602, Control_c, 1, 64, 127
1, 52628, Poly_aftertouch_c, 0, 53, 0
1, 52635, Note_off_c, 0, 36, 64
1, 52650, Poly_aftertouch_c, 0, 61, 0
1, 52659, Note_off_c, 0, 64, 61
1, 52681, Note_off_c, 0, 45, 64
1, 52718, Note_on_c, 0, 48, 90
1, 52729, Note_on_c, 0, 40, 78
1, 52816, Note_off_c, 0, 48, 48
1, 52844, Note_on_c, 0, 44, 75
1, 52845, Control_c, 0, 64, 113
1, 52845, Control_c, 1, 64, 113
1, 52855, Note_off_c, 0, 40, 54
1, 52858, Note_on_c, 0, 52, 84
1, 52863, Note_on_c, 0, 76, 93
1, 52864, Note_on_c, 0, 64, 93
1, 52864, Control_c, 0, 64, 75
1, 52864, Control_c, 1, 64, 75
1, 52884, Control_c, 1, 64, 45
1, 52884, Control_c, 0, 64, 45
1, 52902, Control_c, 0, 64, 18
1, 52902, Control_c, 1, 64, 18
1, 52919, Note_off_c, 0, 64, 62
1, 52919, Control_c, 0, 64, 8
1, 52919, Control_c, 1, 64, 8
1, 52932, Note_off_c, 0, 76, 57
1, 52946, Note_on_c, 0, 77, 25
1, 52947, Note_off_c, 0, 77, 127
1, 52963, Note_off_c, 0, 44, 61
1, 52979, Note_on_c, 0, 71, 90
1, 52981, Note_on_c, 0, 42, 75
1, 52983, Note_on_c, 0, 51, 85
1, 52986, Poly_aftertouch_c, 0, 74, 0
1, 53004, Note_off_c, 0, 52, 59
1, 53066, Note_off_c, 0, 51, 54
1, 53089, Poly_aftertouch_c, 0, 72, 0
1, 53096, Note_on_c, 0, 64, 86
1, 53098, Note_on_c, 0, 76, 92
1, 53100, Note_off_c, 0, 42, 53
1, 53101, Note_on_c, 0, 52, 80
1, 53107, Note_on_c, 0, 44, 80
1, 53107, Control_c, 0, 64, 0
1, 53107, Control_c, 1, 64, 0
1, 53112, Note_off_c, 0, 71, 58
1, 53220, Note_on_c, 0, 51, 84
1, 53221, Note_on_c, 0, 42, 80
1, 53225, Note_off_c, 0, 44, 63
1, 53240, Note_off_c, 0, 52, 57
1, 53313, Control_c, 0, 64, 10
1, 53313, Control_c, 1, 64, 10
1, 53330, Control_c, 1, 64, 18
1, 53330, Control_c, 0, 64, 18
1, 53333, Note_off_c, 0, 42, 39
1, 53335, Note_on_c, 0, 52, 74
1, 53340, Note_off_c, 0, 51, 40
1, 53347, Note_on_c, 0, 44, 78
1, 53349, Control_c, 0, 64, 33
1, 53349, Control_c, 1, 64, 33
1, 53370, Control_c, 1, 64, 55
1, 53370, Control_c, 0, 64, 55
1, 53388, Control_c, 0, 64, 70
1, 53388, Control_c, 1, 64, 70
1, 53407, Control_c, 1, 64, 79
1, 53407, Control_c, 0, 64, 79
1, 53414, Note_off_c, 0, 52, 56
1, 53427, Control_c, 0, 64, 87
1, 53427, Control_c, 1, 64, 87
1, 53444, Control_c, 1, 64, 95
1, 53444, Control_c, 0, 64, 95
1, 53452, Note_on_c, 0, 42, 82
1, 53454, Note_off_c, 0, 44, 61
1, 53456, Note_on_c, 0, 51, 77
1, 53464, Control_c, 0, 64, 111
1, 53464, Control_c, 1, 64, 111
1, 53482, Control_c, 1, 64, 127
1, 53482, Control_c, 0, 64, 127
1, 53543, Note_on_c, 0, 52, 82
1, 53549, Note_off_c, 0, 42, 57
1, 53550, Note_off_c, 0, 51, 63
1, 53561, Note_off_c, 0, 64, 59
1, 53569, Note_on_c, 0, 44, 51
1, 53592, Note_off_c, 0, 44, 63
1, 53604, Note_off_c, 0, 76, 62
1, 53652, Note_on_c, 0, 56, 87
1, 53684, Note_off_c, 0, 52, 61
1, 53687, Note_on_c, 0, 47, 53
1, 53784, Note_off_c, 0, 56, 61
1, 53819, Note_on_c, 0, 88, 93
1, 53829, Note_on_c, 0, 76, 90
1, 53834, Note_on_c, 0, 57, 89
1, 53839, Note_off_c, 0, 47, 61
1, 53844, Note_on_c, 0, 48, 78
1, 53870, Note_off_c, 0, 76, 63
1, 53874, Control_c, 0, 64, 93
1, 53874, Control_c, 1, 64, 93
1, 53894, Control_c, 1, 64, 56
1, 53894, Control_c, 0, 64, 56
1, 53902, Note_off_c, 0, 57, 60
1, 53908, Note_off_c, 0, 88, 62
1, 53912, Control_c, 0, 64, 9
1, 53912, Control_c, 1, 64, 9
1, 53931, Control_c, 1, 64, 0
1, 53931, Control_c, 0, 64, 0
1, 53949, Note_on_c, 0, 89, 97
1, 53952, Note_on_c, 0, 57, 55
1, 53952, Note_on_c, 0, 77, 87
1, 53954, Note_off_c, 0, 48, 56
1, 53956, Note_on_c, 0, 47, 74
1, 53956, Note_on_c, 0, 56, 81
1, 53981, Note_off_c, 0, 57, 60
1, 53996, Note_off_c, 0, 77, 63
1, 54006, Poly_aftertouch_c, 0, 88, 0
1, 54017, Note_off_c, 0, 47, 56
1, 54058, Note_on_c, 0, 57, 86
1, 54079, Note_on_c, 0, 76, 86
1, 54080, Note_on_c, 0, 88, 93
1, 54081, Note_on_c, 0, 48, 80
1, 54084, Note_off_c, 0, 56, 62
1, 54107, Note_off_c, 0, 89, 36
1, 54121, Note_on_c, 0, 77, 45
1, 54122, Note_off_c, 0, 77, 127
1, 54145, Note_on_c, 0, 87, 23
1, 54170, Note_off_c, 0, 87, 36
1, 54195, Note_on_c, 0, 47, 73
1, 54195, Note_on_c, 0, 56, 78
1, 54201, Note_off_c, 0, 48, 38
1, 54202, Note_off_c, 0, 57, 66
1, 54250, Control_c, 0, 64, 54
1, 54250, Control_c, 1, 64, 54
1, 54267, Control_c, 1, 64, 111
1, 54267, Control_c, 0, 64, 111
1, 54273, Note_off_c, 0, 47, 62
1, 54286, Control_c, 0, 64, 127
1, 54286, Control_c, 1, 64, 127
1, 54296, Note_on_c, 0, 57, 84
1, 54315, Note_off_c, 0, 56, 59
1, 54331, Note_on_c, 0, 48, 73
1, 54418, Note_on_c, 0, 56, 80
1, 54427, Note_on_c, 0, 47, 73
1, 54429, Note_off_c, 0, 57, 62
1, 54459, Note_off_c, 0, 47, 69
1, 54459, Note_on_c, 0, 50, 6
1, 54476, Note_off_c, 0, 48, 55
1, 54509, Note_off_c, 0, 56, 61
1, 54511, Note_on_c, 0, 48, 44
1, 54513, Note_off_c, 0, 50, 39
1, 54525, Note_on_c, 0, 57, 74
1, 54533, Note_off_c, 0, 76, 60
1, 54550, Note_off_c, 0, 48, 64
1, 54595, Note_off_c, 0, 88, 63
1, 54612, Note_off_c, 0, 57, 62
1, 54648, Note_on_c, 0, 60, 86
1, 54656, Note_on_c, 0, 52, 80
1, 54745, Note_off_c, 0, 60, 45
1, 54767, Note_off_c, 0, 52, 58
1, 54789, Note_on_c, 0, 56, 80
1, 54790, Note_on_c, 0, 64, 83
1, 54794, Note_on_c, 0, 100, 101
1, 54799, Note_on_c, 0, 88, 95
1, 54830, Control_c, 0, 64, 69
1, 54830, Control_c, 1, 64, 69
1, 54845, Note_off_c, 0, 88, 65
1, 54847, Control_c, 0, 64, 24
1, 54847, Control_c, 1, 64, 24
1, 54854, Note_off_c, 0, 100, 65
1, 54866, Control_c, 0, 64, 0
1, 54866, Control_c, 1, 64, 0
1, 54903, Note_off_c, 0, 56, 60
1, 54907, Note_on_c, 0, 95, 99
1, 54911, Note_on_c, 0, 54, 75
1, 54919, Note_on_c, 0, 63, 84
1, 54940, Note_off_c, 0, 64, 62
1, 54944, Note_on_c, 0, 97, 46
1, 54976, Note_off_c, 0, 97, 59
1, 55019, Note_off_c, 0, 54, 57
1, 55032, Note_on_c, 0, 100, 99
1, 55033, Note_on_c, 0, 88, 90
1, 55036, Note_off_c, 0, 63, 42
1, 55041, Note_on_c, 0, 56, 77
1, 55043, Note_on_c, 0, 64, 76
1, 55048, Note_off_c, 0, 95, 30
1, 55151, Poly_aftertouch_c, 0, 98, 0
1, 55157, Note_on_c, 0, 63, 80
1, 55160, Note_off_c, 0, 56, 62
1, 55163, Note_on_c, 0, 54, 72
1, 55167, Note_off_c, 0, 64, 61
1, 55167, Control_c, 0, 64, 8
1, 55167, Control_c, 1, 64, 8
1, 55184, Control_c, 1, 64, 29
1, 55184, Control_c, 0, 64, 29
1, 55204, Control_c, 0, 64, 61
1, 55204, Control_c, 1, 64, 61
1, 55224, Control_c, 1, 64, 93
1, 55224, Control_c, 0, 64, 93
1, 55237, Note_off_c, 0, 63, 62
1, 55241, Control_c, 0, 64, 127
1, 55241, Control_c, 1, 64, 127
1, 55255, Note_off_c, 0, 54, 59
1, 55276, Note_on_c, 0, 64, 74
1, 55279, Note_on_c, 0, 56, 71
1, 55356, Note_off_c, 0, 64, 62
1, 55359, Note_on_c, 0, 59, 80
1, 55381, Note_on_c, 0, 52, 72
1, 55394, Note_off_c, 0, 56, 60
1, 55419, Note_off_c, 0, 59, 61
1, 55438, Note_off_c, 0, 52, 63
1, 55500, Note_off_c, 0, 88, 63
1, 55504, Note_off_c, 0, 100, 62
1, 55519, Note_on_c, 0, 56, 80
1, 55560, Note_on_c, 0, 47, 44
1, 55590, Note_on_c, 0, 44, 66
1, 55595, Note_off_c, 0, 56, 61
1, 55605, Note_off_c, 0, 47, 50
1, 55619, Note_on_c, 0, 53, 42
1, 55619, Note_on_c, 0, 52, 63
1, 55658, Note_off_c, 0, 53, 51
1, 55709, Control_c, 0, 64, 95
1, 55709, Control_c, 1, 64, 95
1, 55711, Note_off_c, 0, 44, 61
1, 55728, Control_c, 0, 64, 62
1, 55728, Control_c, 1, 64, 62
1, 55731, Control_c, 1, 67, 12
1, 55731, Control_c, 0, 67, 12
1, 55747, Control_c, 0, 64, 34
1, 55747, Control_c, 1, 64, 34
1, 55749, Control_c, 1, 67, 26
1, 55749, Control_c, 0, 67, 26
1, 55765, Control_c, 0, 64, 19
1, 55765, Control_c, 1, 64, 19
1, 55766, Control_c, 1, 67, 45
1, 55766, Control_c, 0, 67, 45
1, 55780, Note_off_c, 0, 52, 55
1, 55783, Control_c, 0, 64, 13
1, 55783, Control_c, 1, 64, 13
1, 55784, Control_c, 1, 67, 64
1, 55784, Control_c, 0, 67, 64
1, 55799, Note_on_c, 0, 57, 74
1, 55801, Control_c, 0, 67, 78
1, 55801, Control_c, 1, 67, 78
1, 55812, Note_on_c, 0, 48, 63
1, 55812, Note_on_c, 0, 96, 70
1, 55813, Note_on_c, 0, 88, 68
1, 55813, Note_on_c, 0, 100, 73
1, 55820, Control_c, 0, 64, 0
1, 55820, Control_c, 1, 64, 0
1, 55821, Control_c, 1, 67, 92
1, 55821, Control_c, 0, 67, 92
1, 55836, Note_off_c, 0, 88, 67
1, 55837, Note_off_c, 0, 96, 66
1, 55840, Control_c, 0, 67, 108
1, 55840, Control_c, 1, 67, 108
1, 55851, Note_off_c, 0, 57, 56
1, 55853, Note_off_c, 0, 100, 60
1, 55857, Control_c, 0, 67, 127
1, 55857, Control_c, 1, 67, 127
1, 55903, Note_on_c, 0, 57, 42
1, 55905, Note_on_c, 0, 47, 66
1, 55920, Note_on_c, 0, 101, 90
1, 55923, Note_on_c, 0, 56, 70
1, 55924, Note_on_c, 0, 98, 52
1, 55930, Note_on_c, 0, 89, 71
1, 55939, Note_off_c, 0, 48, 35
1, 55940, Note_off_c, 0, 57, 48
1, 55948, Note_off_c, 0, 89, 68
1, 55954, Note_off_c, 0, 98, 59
1, 55997, Note_off_c, 0, 101, 50
1, 56022, Note_off_c, 0, 47, 36
1, 56024, Note_on_c, 0, 57, 80
1, 56030, Note_on_c, 0, 100, 63
1, 56039, Note_on_c, 0, 98, 81
1, 56045, Note_on_c, 0, 48, 63
1, 56046, Note_off_c, 0, 56, 59
1, 56048, Note_on_c, 0, 88, 74
1, 56052, Note_on_c, 0, 96, 68
1, 56068, Note_off_c, 0, 88, 72
1, 56074, Note_off_c, 0, 98, 60
1, 56074, Note_off_c, 0, 96, 66
1, 56105, Note_off_c, 0, 100, 62
1, 56129, Note_off_c, 0, 48, 61
1, 56149, Note_on_c, 0, 47, 72
1, 56152, Note_on_c, 0, 56, 70
1, 56157, Note_on_c, 0, 101, 90
1, 56159, Note_off_c, 0, 57, 53
1, 56169, Note_on_c, 0, 100, 39
1, 56210, Note_off_c, 0, 100, 56
1, 56220, Note_off_c, 0, 47, 61
1, 56257, Note_off_c, 0, 56, 56
1, 56264, Note_on_c, 0, 57, 71
1, 56272, Note_off_c, 0, 101, 47
1, 56275, Note_on_c, 0, 48, 73
1, 56277, Note_on_c, 0, 96, 83
1, 56282, Note_on_c, 0, 100, 84
1, 56291, Note_on_c, 0, 88, 63
1, 56308, Note_off_c, 0, 96, 62
1, 56312, Note_off_c, 0, 88, 65
1, 56339, Note_off_c, 0, 57, 57
1, 56379, Poly_aftertouch_c, 0, 98, 0
1, 56381, Note_on_c, 0, 101, 97
1, 56383, Note_on_c, 0, 47, 69
1, 56389, Note_on_c, 0, 56, 78
1, 56397, Note_off_c, 0, 48, 54
1, 56416, Note_off_c, 0, 100, 60
1, 56462, Note_off_c, 0, 47, 61
1, 56469, Note_off_c, 0, 56, 60
1, 56480, Note_on_c, 0, 96, 83
1, 56483, Note_on_c, 0, 100, 58
1, 56485, Note_off_c, 0, 101, 64
1, 56488, Note_on_c, 0, 48, 53
1, 56496, Note_on_c, 0, 57, 78
1, 56498, Note_on_c, 0, 98, 66
1, 56507, Note_off_c, 0, 96, 69
1, 56525, Note_off_c, 0, 48, 61
1, 56528, Note_off_c, 0, 98, 64
1, 56535, Note_off_c, 0, 100, 63
1, 56568, Note_off_c, 0, 57, 63
1, 56612, Note_on_c, 0, 96, 93
1, 56617, Note_on_c, 0, 52, 75
1, 56617, Note_on_c, 0, 60, 81
1, 56623, Note_on_c, 0, 95, 75
1, 56633, Note_on_c, 0, 84, 58
1, 56634, Note_off_c, 0, 84, 127
1, 56646, Note_off_c, 0, 95, 67
1, 56661, Note_off_c, 0, 60, 60
1, 56667, Note_off_c, 0, 96, 64
1, 56712, Note_off_c, 0, 52, 58
1, 56733, Note_on_c, 0, 95, 79
1, 56734, Note_on_c, 0, 56, 71
1, 56743, Note_on_c, 0, 83, 70
1, 56744, Note_on_c, 0, 92, 82
1, 56755, Note_on_c, 0, 64, 71
1, 56769, Note_on_c, 0, 84, 38
1, 56770, Note_off_c, 0, 83, 71
1, 56770, Note_off_c, 0, 84, 127
1, 56777, Note_off_c, 0, 92, 70
1, 56815, Note_off_c, 0, 95, 65
1, 56838, Note_off_c, 0, 56, 59
1, 56852, Note_off_c, 0, 64, 64
1, 56852, Note_on_c, 0, 64, 21
1, 56855, Note_on_c, 0, 54, 70
1, 56866, Note_on_c, 0, 95, 55
1, 56867, Note_on_c, 0, 63, 74
1, 56867, Note_on_c, 0, 96, 93
1, 56873, Note_on_c, 0, 93, 67
1, 56883, Note_on_c, 0, 84, 69
1, 56888, Note_off_c, 0, 64, 59
1, 56895, Note_off_c, 0, 93, 68
1, 56901, Note_off_c, 0, 95, 67
1, 56906, Note_off_c, 0, 84, 48
1, 56917, Note_off_c, 0, 63, 57
1, 56938, Note_off_c, 0, 96, 56
1, 56956, Note_off_c, 0, 54, 59
1, 56974, Note_on_c, 0, 64, 61
1, 56974, Note_on_c, 0, 56, 78
1, 56978, Note_on_c, 0, 95, 88
1, 56986, Note_on_c, 0, 92, 81
1, 56986, Note_on_c, 0, 83, 81
1, 57009, Poly_aftertouch_c, 0, 96, 0
1, 57012, Note_off_c, 0, 83, 71
1, 57018, Note_on_c, 0, 84, 33
1, 57019, Note_off_c, 0, 92, 67
1, 57028, Note_on_c, 0, 93, 16
1, 57049, Note_off_c, 0, 84, 33
1, 57050, Note_off_c, 0, 95, 64
1, 57088, Note_off_c, 0, 56, 61
1, 57089, Note_off_c, 0, 64, 38
1, 57094, Note_on_c, 0, 54, 78
1, 57101, Note_on_c, 0, 63, 71
1, 57105, Note_on_c, 0, 96, 95
1, 57107, Note_on_c, 0, 95, 52
1, 57141, Note_off_c, 0, 95, 67
1, 57163, Note_off_c, 0, 93, 44
1, 57180, Note_off_c, 0, 54, 57
1, 57185, Note_off_c, 0, 63, 55
1, 57218, Note_on_c, 0, 95, 85
1, 57220, Note_on_c, 0, 92, 83
1, 57221, Note_on_c, 0, 64, 76
1, 57223, Note_on_c, 0, 56, 74
1, 57230, Note_off_c, 0, 96, 37
1, 57235, Note_on_c, 0, 83, 57
1, 57262, Note_off_c, 0, 83, 62
1, 57263, Note_off_c, 0, 92, 63
1, 57267, Note_off_c, 0, 64, 58
1, 57287, Note_off_c, 0, 95, 63
1, 57329, Note_on_c, 0, 63, 78
1, 57333, Note_on_c, 0, 96, 98
1, 57335, Note_on_c, 0, 54, 71
1, 57337, Note_off_c, 0, 56, 64
1, 57350, Note_on_c, 0, 95, 29
1, 57393, Note_off_c, 0, 95, 47
1, 57418, Note_off_c, 0, 63, 52
1, 57421, Note_off_c, 0, 96, 55
1, 57430, Note_off_c, 0, 54, 62
1, 57441, Note_on_c, 0, 64, 79
1, 57449, Note_on_c, 0, 56, 59
1, 57455, Note_on_c, 0, 95, 80
1, 57457, Note_on_c, 0, 92, 69
1, 57472, Note_on_c, 0, 83, 50
1, 57485, Note_off_c, 0, 56, 63
1, 57486, Note_off_c, 0, 64, 63
1, 57488, Note_off_c, 0, 92, 67
1, 57493, Note_off_c, 0, 95, 66
1, 57506, Note_off_c, 0, 83, 43
1, 57508, Control_c, 0, 64, 52
1, 57508, Control_c, 1, 64, 52
1, 57524, Control_c, 1, 64, 111
1, 57524, Control_c, 0, 64, 111
1, 57543, Control_c, 0, 64, 127
1, 57543, Control_c, 1, 64, 127
1, 57573, Note_on_c, 0, 59, 72
1, 57579, Note_on_c, 0, 92, 80
1, 57580, Note_on_c, 0, 80, 85
1, 57595, Note_on_c, 0, 68, 72
1, 57606, Note_off_c, 0, 80, 64
1, 57615, Note_off_c, 0, 92, 64
1, 57664, Note_off_c, 0, 68, 58
1, 57683, Note_off_c, 0, 59, 58
1, 57706, Note_on_c, 0, 88, 90
1, 57723, Note_on_c, 0, 84, 80
1, 57728, Note_on_c, 0, 60, 78
1, 57729, Note_on_c, 0, 69, 79
1, 57730, Control_c, 0, 64, 80
1, 57730, Control_c, 1, 64, 80
1, 57748, Note_on_c, 0, 76, 42
1, 57749, Control_c, 0, 64, 32
1, 57749, Control_c, 1, 64, 32
1, 57751, Note_off_c, 0, 84, 70
1, 57767, Control_c, 0, 64, 0
1, 57767, Control_c, 1, 64, 0
1, 57773, Note_off_c, 0, 88, 65
1, 57780, Note_off_c, 0, 69, 52
1, 57785, Note_off_c, 0, 76, 37
1, 57817, Note_off_c, 0, 60, 51
1, 57824, Note_on_c, 0, 88, 64
1, 57832, Note_on_c, 0, 59, 72
1, 57833, Note_on_c, 0, 89, 90
1, 57841, Note_on_c, 0, 77, 63
1, 57847, Note_on_c, 0, 86, 60
1, 57855, Note_on_c, 0, 68, 71
1, 57859, Note_off_c, 0, 88, 66
1, 57863, Note_off_c, 0, 77, 64
1, 57863, Note_off_c, 0, 86, 70
1, 57948, Note_off_c, 0, 59, 40
1, 57949, Note_on_c, 0, 69, 81
1, 57951, Note_off_c, 0, 68, 57
1, 57956, Note_on_c, 0, 88, 80
1, 57959, Note_on_c, 0, 84, 81
1, 57963, Note_off_c, 0, 89, 64
1, 57970, Note_on_c, 0, 76, 55
1, 57972, Note_on_c, 0, 60, 72
1, 57983, Note_on_c, 0, 86, 52
1, 57986, Note_on_c, 0, 77, 28
1, 57987, Note_off_c, 0, 84, 64
1, 58000, Note_off_c, 0, 76, 59
1, 58010, Note_off_c, 0, 86, 60
1, 58023, Note_off_c, 0, 77, 34
1, 58048, Note_off_c, 0, 60, 56
1, 58069, Note_on_c, 0, 89, 89
1, 58078, Note_on_c, 0, 59, 70
1, 58080, Note_off_c, 0, 69, 37
1, 58084, Note_on_c, 0, 68, 73
1, 58093, Note_on_c, 0, 86, 57
1, 58105, Note_off_c, 0, 88, 65
1, 58121, Note_off_c, 0, 86, 40
1, 58145, Note_off_c, 0, 68, 60
1, 58153, Note_off_c, 0, 59, 59
1, 58181, Note_off_c, 0, 89, 64
1, 58187, Note_on_c, 0, 88, 74
1, 58192, Note_on_c, 0, 69, 77
1, 58192, Note_on_c, 0, 84, 80
1, 58197, Note_on_c, 0, 86, 69
1, 58199, Note_on_c, 0, 60, 75
1, 58211, Note_on_c, 0, 76, 48
1, 58227, Note_off_c, 0, 84, 61
1, 58228, Note_off_c, 0, 86, 66
1, 58232, Note_off_c, 0, 69, 52
1, 58245, Note_off_c, 0, 76, 52
1, 58279, Note_off_c, 0, 60, 53
1, 58292, Control_c, 0, 64, 36
1, 58292, Control_c, 1, 64, 36
1, 58302, Note_on_c, 0, 68, 75
1, 58302, Note_on_c, 0, 89, 87
1, 58311, Note_on_c, 0, 59, 67
1, 58311, Control_c, 0, 64, 85
1, 58311, Control_c, 1, 64, 85
1, 58328, Control_c, 1, 64, 127
1, 58328, Control_c, 0, 64, 127
1, 58336, Note_off_c, 0, 88, 59
1, 58368, Note_off_c, 0, 68, 64
1, 58385, Note_off_c, 0, 59, 59
1, 58395, Note_on_c, 0, 88, 62
1, 58401, Note_on_c, 0, 69, 80
1, 58402, Note_on_c, 0, 84, 79
1, 58407, Note_off_c, 0, 89, 64
1, 58422, Note_on_c, 0, 60, 57
1, 58423, Note_on_c, 0, 86, 66
1, 58432, Note_off_c, 0, 84, 67
1, 58437, Note_on_c, 0, 76, 38
1, 58449, Note_off_c, 0, 86, 58
1, 58453, Note_off_c, 0, 60, 60
1, 58460, Note_off_c, 0, 88, 65
1, 58466, Note_off_c, 0, 69, 58
1, 58475, Note_off_c, 0, 76, 49
1, 58548, Note_on_c, 0, 84, 89
1, 58548, Note_on_c, 0, 64, 78
1, 58552, Note_on_c, 0, 72, 79
1, 58565, Note_on_c, 0, 81, 51
1, 58580, Note_off_c, 0, 72, 61
1, 58598, Note_off_c, 0, 81, 41
1, 58654, Note_off_c, 0, 64, 61
1, 58664, Note_on_c, 0, 68, 77
1, 58665, Control_c, 0, 64, 72
1, 58665, Control_c, 1, 64, 72
1, 58669, Note_on_c, 0, 83, 39
1, 58672, Note_off_c, 0, 84, 61
1, 58680, Note_on_c, 0, 80, 70
1, 58683, Note_on_c, 0, 71, 63
1, 58683, Control_c, 0, 64, 15
1, 58683, Control_c, 1, 64, 15
1, 58700, Note_on_c, 0, 76, 72
1, 58703, Control_c, 0, 64, 0
1, 58703, Control_c, 1, 64, 0
1, 58708, Note_off_c, 0, 71, 63
1, 58721, Note_off_c, 0, 80, 61
1, 58729, Note_off_c, 0, 76, 69
1, 58737, Poly_aftertouch_c, 0, 81, 0
1, 58752, Note_off_c, 0, 83, 56
1, 58787, Note_off_c, 0, 68, 59
1, 58792, Note_on_c, 0, 66, 77
1, 58797, Note_on_c, 0, 84, 90
1, 58811, Note_on_c, 0, 83, 34
1, 58817, Note_on_c, 0, 75, 72
1, 58830, Poly_aftertouch_c, 0, 81, 127
1, 58831, Note_off_c, 0, 83, 66
1, 58846, Poly_aftertouch_c, 0, 81, 0
1, 58850, Note_on_c, 0, 72, 17
1, 58908, Note_off_c, 0, 66, 60
1, 58913, Note_off_c, 0, 72, 29
1, 58921, Note_on_c, 0, 83, 84
1, 58926, Note_on_c, 0, 68, 78
1, 58927, Note_on_c, 0, 80, 81
1, 58928, Note_off_c, 0, 75, 37
1, 58936, Note_off_c, 0, 84, 61
1, 58939, Note_on_c, 0, 76, 72
1, 58950, Note_on_c, 0, 71, 59
1, 58978, Note_off_c, 0, 71, 61
1, 58995, Note_off_c, 0, 80, 63
1, 59002, Note_off_c, 0, 76, 59
1, 59046, Note_on_c, 0, 75, 77
1, 59047, Note_on_c, 0, 84, 92
1, 59055, Note_on_c, 0, 66, 75
1, 59060, Note_off_c, 0, 68, 58
1, 59085, Note_off_c, 0, 83, 63
1, 59130, Note_off_c, 0, 75, 64
1, 59134, Control_c, 0, 64, 9
1, 59134, Control_c, 1, 64, 9
1, 59148, Note_off_c, 0, 66, 60
1, 59151, Control_c, 0, 64, 67
1, 59151, Control_c, 1, 64, 67
1, 59162, Note_on_c, 0, 76, 80
1, 59166, Note_on_c, 0, 68, 71
1, 59166, Note_on_c, 0, 83, 80
1, 59171, Control_c, 0, 64, 98
1, 59171, Control_c, 1, 64, 98
1, 59172, Note_on_c, 0, 80, 76
1, 59191, Control_c, 0, 64, 127
1, 59191, Control_c, 1, 64, 127
1, 59194, Note_off_c, 0, 84, 58
1, 59199, Note_on_c, 0, 71, 58
1, 59228, Note_off_c, 0, 76, 63
1, 59241, Note_off_c, 0, 80, 59
1, 59271, Note_on_c, 0, 64, 75
1, 59292, Note_off_c, 0, 68, 57
1, 59305, Note_off_c, 0, 71, 53
1, 59306, Poly_aftertouch_c, 0, 71, 0
1, 59330, Note_off_c, 0, 64, 63
1, 59387, Note_off_c, 0, 83, 63
1, 59411, Note_on_c, 0, 88, 89
1, 59417, Note_on_c, 0, 59, 77
1, 59419, Note_on_c, 0, 68, 78
1, 59423, Note_on_c, 0, 76, 68
1, 59448, Note_off_c, 0, 76, 63
1, 59465, Note_off_c, 0, 88, 66
1, 59490, Note_off_c, 0, 68, 60
1, 59528, Note_on_c, 0, 64, 81
1, 59528, Control_c, 0, 67, 122
1, 59528, Control_c, 1, 67, 122
1, 59542, Note_on_c, 0, 56, 73
1, 59565, Control_c, 0, 67, 117
1, 59565, Control_c, 1, 67, 117
1, 59570, Note_off_c, 0, 59, 53
1, 59596, Note_off_c, 0, 64, 61
1, 59622, Control_c, 0, 67, 112
1, 59622, Control_c, 1, 67, 112
1, 59630, Note_off_c, 0, 56, 61
1, 59659, Control_c, 0, 67, 107
1, 59659, Control_c, 1, 67, 107
1, 59703, Poly_aftertouch_c, 0, 99, 0
1, 59789, Note_on_c, 0, 100, 102
1, 59789, Control_c, 0, 64, 74
1, 59789, Control_c, 1, 64, 74
1, 59791, Note_on_c, 0, 88, 97
1, 59794, Note_on_c, 0, 49, 90
1, 59795, Note_on_c, 0, 57, 87
1, 59810, Control_c, 0, 64, 24
1, 59810, Control_c, 1, 64, 24
1, 59827, Control_c, 1, 64, 0
1, 59827, Control_c, 0, 64, 0
1, 59828, Control_c, 0, 67, 102
1, 59828, Control_c, 1, 67, 102
1, 59846, Control_c, 1, 67, 98
1, 59846, Control_c, 0, 67, 98
1, 59848, Note_off_c, 0, 88, 66
1, 59865, Control_c, 0, 67, 93
1, 59865, Control_c, 1, 67, 93
1, 59883, Control_c, 1, 67, 89
1, 59883, Control_c, 0, 67, 89
1, 59920, Note_on_c, 0, 56, 73
1, 59920, Control_c, 0, 67, 84
1, 59920, Control_c, 1, 67, 84
1, 59924, Note_on_c, 0, 47, 72
1, 59928, Note_off_c, 0, 57, 63
1, 59932, Note_on_c, 0, 101, 98
1, 59936, Note_off_c, 0, 49, 61
1, 59938, Control_c, 0, 64, 29
1, 59938, Control_c, 1, 64, 29
1, 59946, Note_on_c, 0, 89, 75
1, 59958, Control_c, 0, 64, 59
1, 59958, Control_c, 1, 64, 59
1, 59960, Control_c, 1, 67, 76
1, 59960, Control_c, 0, 67, 76
1, 59964, Note_off_c, 0, 100, 63
1, 59971, Note_off_c, 0, 89, 70
1, 59978, Control_c, 0, 64, 76
1, 59978, Control_c, 1, 64, 76
1, 59979, Control_c, 1, 67, 68
1, 59979, Control_c, 0, 67, 68
1, 59996, Control_c, 0, 64, 83
1, 59996, Control_c, 1, 64, 83
1, 59997, Control_c, 1, 67, 60
1, 59997, Control_c, 0, 67, 60
1, 60014, Control_c, 0, 67, 54
1, 60014, Control_c, 1, 67, 54
1, 60028, Note_off_c, 0, 56, 60
1, 60032, Control_c, 0, 64, 80
1, 60032, Control_c, 1, 64, 80
1, 60050, Control_c, 1, 64, 69
1, 60050, Control_c, 0, 64, 69
1, 60054, Note_on_c, 0, 57, 81
1, 60055, Note_on_c, 0, 88, 91
1, 60056, Note_on_c, 0, 49, 81
1, 60057, Note_off_c, 0, 47, 62
1, 60057, Note_on_c, 0, 100, 98
1, 60069, Control_c, 0, 64, 39
1, 60069, Control_c, 1, 64, 39
1, 60087, Note_on_c, 0, 89, 57
1, 60088, Note_off_c, 0, 89, 127
1, 60089, Control_c, 0, 64, 0
1, 60089, Control_c, 1, 64, 0
1, 60090, Control_c, 1, 67, 48
1, 60090, Control_c, 0, 67, 48
1, 60091, Note_off_c, 0, 101, 64
1, 60108, Control_c, 0, 67, 43
1, 60108, Control_c, 1, 67, 43
1, 60126, Control_c, 1, 67, 33
1, 60126, Control_c, 0, 67, 33
1, 60145, Control_c, 0, 67, 18
1, 60145, Control_c, 1, 67, 18
1, 60155, Poly_aftertouch_c, 0, 99, 0
1, 60162, Control_c, 0, 67, 0
1, 60162, Control_c, 1, 67, 0
1, 60174, Note_on_c, 0, 56, 82
1, 60174, Poly_aftertouch_c, 0, 99, 0
1, 60182, Control_c, 0, 64, 10
1, 60182, Control_c, 1, 64, 10
1, 60186, Note_on_c, 0, 47, 79
1, 60187, Note_off_c, 0, 49, 62
1, 60188, Note_off_c, 0, 57, 38
1, 60201, Control_c, 0, 64, 26
1, 60201, Control_c, 1, 64, 26
1, 60221, Control_c, 1, 64, 46
1, 60221, Control_c, 0, 64, 46
1, 60239, Control_c, 0, 64, 63
1, 60239, Control_c, 1, 64, 63
1, 60257, Control_c, 1, 64, 70
1, 60257, Control_c, 0, 64, 70
1, 60290, Note_on_c, 0, 57, 81
1, 60296, Note_on_c, 0, 49, 80
1, 60300, Note_off_c, 0, 47, 38
1, 60315, Note_off_c, 0, 56, 60
1, 60332, Control_c, 0, 64, 74
1, 60332, Control_c, 1, 64, 74
1, 60352, Control_c, 1, 64, 77
1, 60352, Control_c, 0, 64, 77
1, 60369, Note_off_c, 0, 57, 52
1, 60369, Control_c, 0, 64, 84
1, 60369, Control_c, 1, 64, 84
1, 60389, Control_c, 1, 64, 92
1, 60389, Control_c, 0, 64, 92
1, 60407, Note_on_c, 0, 56, 74
1, 60407, Control_c, 0, 64, 105
1, 60407, Control_c, 1, 64, 105
1, 60409, Note_on_c, 0, 47, 78
1, 60412, Note_off_c, 0, 49, 64
1, 60425, Control_c, 0, 64, 127
1, 60425, Control_c, 1, 64, 127
1, 60502, Note_on_c, 0, 49, 75
1, 60512, Note_on_c, 0, 57, 80
1, 60513, Note_off_c, 0, 47, 60
1, 60518, Note_off_c, 0, 56, 62
1, 60545, Note_off_c, 0, 49, 64
1, 60547, Note_off_c, 0, 100, 62
1, 60555, Note_off_c, 0, 88, 59
1, 60633, Note_on_c, 0, 61, 86
1, 60646, Note_on_c, 0, 52, 64
1, 60659, Note_off_c, 0, 57, 59
1, 60772, Note_off_c, 0, 61, 61
1, 60790, Note_on_c, 0, 93, 101
1, 60794, Note_on_c, 0, 81, 95
1, 60812, Note_on_c, 0, 62, 87
1, 60817, Note_off_c, 0, 52, 59
1, 60829, Note_on_c, 0, 53, 75
1, 60839, Control_c, 0, 64, 101
1, 60839, Control_c, 1, 64, 101
1, 60842, Note_off_c, 0, 81, 64
1, 60847, Note_off_c, 0, 93, 63
1, 60858, Control_c, 0, 64, 64
1, 60858, Control_c, 1, 64, 64
1, 60875, Control_c, 1, 64, 24
1, 60875, Control_c, 0, 64, 24
1, 60894, Control_c, 0, 64, 0
1, 60894, Control_c, 1, 64, 0
1, 60910, Note_on_c, 0, 82, 93
1, 60916, Note_on_c, 0, 94, 93
1, 60935, Note_on_c, 0, 61, 79
1, 60938, Note_on_c, 0, 92, 69
1, 60939, Note_off_c, 0, 53, 55
1, 60942, Note_on_c, 0, 52, 75
1, 60952, Note_off_c, 0, 62, 63
1, 60964, Note_off_c, 0, 92, 68
1, 60973, Note_off_c, 0, 82, 66
1, 60993, Note_off_c, 0, 94, 65
1, 60996, Note_off_c, 0, 52, 55
1, 61031, Note_on_c, 0, 93, 97
1, 61032, Note_on_c, 0, 81, 91
1, 61039, Note_on_c, 0, 62, 81
1, 61063, Note_off_c, 0, 61, 63
1, 61070, Note_on_c, 0, 53, 78
1, 61156, Note_on_c, 0, 61, 76
1, 61170, Note_off_c, 0, 62, 61
1, 61186, Note_off_c, 0, 53, 56
1, 61188, Note_on_c, 0, 52, 68
1, 61212, Control_c, 0, 64, 70
1, 61212, Control_c, 1, 64, 70
1, 61231, Control_c, 1, 64, 127
1, 61231, Control_c, 0, 64, 127
1, 61258, Note_on_c, 0, 62, 81
1, 61274, Note_off_c, 0, 52, 60
1, 61275, Note_off_c, 0, 61, 63
1, 61278, Note_on_c, 0, 53, 75
1, 61371, Note_off_c, 0, 62, 61
1, 61375, Note_on_c, 0, 57, 77
1, 61400, Note_on_c, 0, 50, 86
1, 61414, Note_off_c, 0, 53, 61
1, 61418, Note_off_c, 0, 57, 63
1, 61454, Note_off_c, 0, 50, 62
1, 61490, Note_off_c, 0, 81, 50
1, 61491, Note_off_c, 0, 93, 58
1, 61525, Note_on_c, 0, 53, 83
1, 61539, Note_on_c, 0, 45, 78
1, 61615, Note_on_c, 0, 41, 80
1, 61632, Note_on_c, 0, 50, 80
1, 61634, Note_off_c, 0, 53, 60
1, 61637, Note_off_c, 0, 45, 59
1, 61704, Note_off_c, 0, 41, 59
1, 61774, Note_on_c, 0, 47, 69
1, 61774, Note_on_c, 0, 86, 95
1, 61777, Note_on_c, 0, 55, 79
1, 61782, Note_on_c, 0, 74, 91
1, 61784, Note_off_c, 0, 50, 64
1, 61811, Control_c, 0, 64, 65
1, 61811, Control_c, 1, 64, 65
1, 61819, Note_off_c, 0, 74, 64
1, 61829, Note_off_c, 0, 86, 66
1, 61849, Control_c, 0, 64, 0
1, 61849, Control_c, 1, 64, 0
1, 61868, Note_on_c, 0, 85, 14
1, 61869, Note_off_c, 0, 85, 127
1, 61897, Note_on_c, 0, 45, 78
1, 61899, Note_off_c, 0, 47, 57
1, 61901, Note_on_c, 0, 75, 93
1, 61902, Note_on_c, 0, 87, 90
1, 61913, Note_on_c, 0, 54, 80
1, 61941, Note_off_c, 0, 55, 62
1, 61951, Poly_aftertouch_c, 0, 85, 0
1, 61963, Note_off_c, 0, 75, 64
1, 61984, Note_off_c, 0, 87, 64
1, 62000, Note_off_c, 0, 45, 58
1, 62014, Note_on_c, 0, 47, 76
1, 62023, Note_on_c, 0, 86, 91
1, 62026, Note_on_c, 0, 74, 89
1, 62028, Note_on_c, 0, 55, 68
1, 62035, Note_off_c, 0, 54, 64
1, 62075, Poly_aftertouch_c, 0, 82, 0
1, 62147, Note_on_c, 0, 45, 70
1, 62148, Note_on_c, 0, 54, 71
1, 62152, Note_off_c, 0, 55, 63
1, 62152, Note_off_c, 0, 47, 60
1, 62238, Note_off_c, 0, 45, 61
1, 62258, Note_on_c, 0, 47, 67
1, 62259, Note_on_c, 0, 55, 74
1, 62260, Control_c, 0, 64, 45
1, 62260, Control_c, 1, 64, 45
1, 62262, Note_off_c, 0, 54, 62
1, 62279, Control_c, 0, 64, 92
1, 62279, Control_c, 1, 64, 92
1, 62297, Control_c, 1, 64, 127
1, 62297, Control_c, 0, 64, 127
1, 62358, Note_off_c, 0, 55, 42
1, 62367, Note_on_c, 0, 54, 78
1, 62373, Note_off_c, 0, 47, 56
1, 62380, Note_on_c, 0, 45, 75
1, 62455, Note_off_c, 0, 45, 61
1, 62472, Note_off_c, 0, 54, 59
1, 62478, Note_on_c, 0, 47, 69
1, 62478, Note_on_c, 0, 55, 84
1, 62482, Poly_aftertouch_c, 0, 80, 0
1, 62508, Note_off_c, 0, 86, 63
1, 62511, Note_off_c, 0, 47, 70
1, 62516, Note_off_c, 0, 74, 55
1, 62563, Note_off_c, 0, 55, 62
1, 62596, Note_on_c, 0, 59, 85
1, 62607, Note_on_c, 0, 50, 69
1, 62733, Note_off_c, 0, 50, 58
1, 62748, Note_on_c, 0, 52, 72
1, 62748, Note_on_c, 0, 79, 94
1, 62754, Note_off_c, 0, 59, 45
1, 62759, Note_on_c, 0, 60, 80
1, 62765, Note_on_c, 0, 67, 78
1, 62785, Control_c, 0, 64, 117
1, 62785, Control_c, 1, 64, 117
1, 62798, Note_off_c, 0, 67, 71
1, 62798, Note_on_c, 0, 69, 40
1, 62803, Control_c, 0, 64, 65
1, 62803, Control_c, 1, 64, 65
1, 62807, Note_off_c, 0, 79, 64
1, 62822, Control_c, 0, 64, 14
1, 62822, Control_c, 1, 64, 14
1, 62833, Poly_aftertouch_c, 0, 78, 0
1, 62840, Note_off_c, 0, 69, 36
1, 62841, Control_c, 0, 64, 0
1, 62841, Control_c, 1, 64, 0
1, 62877, Poly_aftertouch_c, 0, 75, 0
1, 62880, Note_on_c, 0, 50, 73
1, 62888, Note_on_c, 0, 80, 85
1, 62891, Note_on_c, 0, 59, 74
1, 62891, Note_on_c, 0, 68, 81
1, 62894, Note_off_c, 0, 60, 64
1, 62908, Note_on_c, 0, 78, 54
1, 62909, Note_off_c, 0, 52, 58
1, 62917, Note_on_c, 0, 81, 58
1, 62921, Note_on_c, 0, 70, 48
1, 62937, Note_off_c, 0, 68, 63
1, 62938, Note_off_c, 0, 78, 62
1, 62944, Note_off_c, 0, 81, 44
1, 62958, Note_off_c, 0, 70, 36
1, 62966, Note_off_c, 0, 59, 55
1, 63000, Note_off_c, 0, 80, 64
1, 63003, Note_on_c, 0, 79, 84
1, 63005, Note_on_c, 0, 52, 66
1, 63008, Note_on_c, 0, 67, 83
1, 63014, Note_off_c, 0, 50, 63
1, 63038, Note_on_c, 0, 75, 34
1, 63050, Poly_aftertouch_c, 0, 60, 127
1, 63082, Note_off_c, 0, 75, 52
1, 63096, Poly_aftertouch_c, 0, 60, 0
1, 63119, Note_on_c, 0, 59, 67
1, 63141, Note_off_c, 0, 52, 59
1, 63150, Note_on_c, 0, 50, 65
1, 63197, Control_c, 0, 64, 13
1, 63197, Control_c, 1, 64, 13
1, 63205, Note_off_c, 0, 59, 59
1, 63214, Control_c, 0, 64, 33
1, 63214, Control_c, 1, 64, 33
1, 63222, Note_on_c, 0, 60, 77
1, 63234, Control_c, 0, 64, 58
1, 63234, Control_c, 1, 64, 58
1, 63235, Note_on_c, 0, 52, 59
1, 63236, Note_off_c, 0, 50, 62
1, 63252, Control_c, 0, 64, 75
1, 63252, Control_c, 1, 64, 75
1, 63272, Control_c, 1, 64, 89
1, 63272, Control_c, 0, 64, 89
1, 63289, Control_c, 0, 64, 105
1, 63289, Control_c, 1, 64, 105
1, 63298, Poly_aftertouch_c, 0, 75, 127
1, 63309, Control_c, 0, 64, 127
1, 63309, Control_c, 1, 64, 127
1, 63317, Note_off_c, 0, 60, 56
1, 63346, Note_on_c, 0, 55, 63
1, 63360, Note_on_c, 0, 48, 80
1, 63374, Note_off_c, 0, 52, 60
1, 63389, Note_off_c, 0, 55, 65
1, 63410, Note_off_c, 0, 48, 59
1, 63468, Poly_aftertouch_c, 0, 78, 127
1, 63495, Note_on_c, 0, 52, 81
1, 63500, Note_on_c, 0, 43, 69
1, 63514, Note_off_c, 0, 67, 35
1, 63544, Note_off_c, 0, 79, 63
1, 63550, Poly_aftertouch_c, 0, 78, 0
1, 63557, Note_off_c, 0, 52, 49
1, 63559, Poly_aftertouch_c, 0, 75, 0
1, 63581, Note_on_c, 0, 40, 76
1, 63593, Note_on_c, 0, 48, 75
1, 63599, Note_off_c, 0, 43, 56
1, 63624, Note_off_c, 0, 40, 61
1, 63625, Note_off_c, 0, 48, 66
1, 63809, Note_on_c, 0, 89, 86
1, 63811, Note_on_c, 0, 58, 63
1, 63818, Note_on_c, 0, 50, 57
1, 63824, Note_on_c, 0, 77, 75
1, 63832, Control_c, 0, 64, 85
1, 63832, Control_c, 1, 64, 85
1, 63852, Control_c, 1, 64, 45
1, 63852, Control_c, 0, 64, 45
1, 63857, Note_off_c, 0, 77, 65
1, 63871, Control_c, 0, 64, 0
1, 63871, Control_c, 1, 64, 0
1, 63876, Note_off_c, 0, 89, 65
1, 63883, Note_off_c, 0, 58, 57
1, 63947, Note_on_c, 0, 57, 71
1, 63948, Note_on_c, 0, 90, 84
1, 63949, Note_on_c, 0, 78, 84
1, 63950, Note_on_c, 0, 48, 67
1, 63969, Note_on_c, 0, 87, 56
1, 63982, Note_off_c, 0, 50, 61
1, 63998, Note_off_c, 0, 87, 60
1, 64015, Note_off_c, 0, 78, 61
1, 64032, Note_off_c, 0, 90, 66
1, 64034, Note_off_c, 0, 48, 57
1, 64050, Note_off_c, 0, 57, 61
1, 64073, Note_on_c, 0, 89, 79
1, 64075, Note_on_c, 0, 58, 75
1, 64075, Note_on_c, 0, 77, 78
1, 64105, Note_on_c, 0, 50, 53
1, 64163, Note_off_c, 0, 58, 61
1, 64167, Note_on_c, 0, 57, 63
1, 64173, Note_on_c, 0, 48, 67
1, 64189, Control_c, 0, 64, 9
1, 64189, Control_c, 1, 64, 9
1, 64195, Note_off_c, 0, 50, 61
1, 64195, Note_on_c, 0, 49, 34
1, 64207, Control_c, 0, 64, 53
1, 64207, Control_c, 1, 64, 53
1, 64215, Poly_aftertouch_c, 0, 51, 0
1, 64226, Control_c, 0, 64, 78
1, 64226, Control_c, 1, 64, 78
1, 64245, Control_c, 1, 64, 102
1, 64245, Control_c, 0, 64, 102
1, 64252, Note_off_c, 0, 49, 37
1, 64265, Control_c, 0, 64, 127
1, 64265, Control_c, 1, 64, 127
1, 64268, Note_off_c, 0, 57, 63
1, 64274, Note_off_c, 0, 48, 61
1, 64284, Note_on_c, 0, 58, 82
1, 64288, Note_off_c, 0, 89, 62
1, 64293, Note_off_c, 0, 77, 60
1, 64293, Note_on_c, 0, 50, 48
1, 64390, Note_on_c, 0, 86, 84
1, 64393, Note_on_c, 0, 46, 76
1, 64399, Poly_aftertouch_c, 0, 51, 0
1, 64407, Note_off_c, 0, 58, 62
1, 64410, Note_on_c, 0, 53, 62
1, 64413, Note_off_c, 0, 50, 61
1, 64415, Note_on_c, 0, 74, 59
1, 64418, Note_off_c, 0, 86, 64
1, 64422, Note_on_c, 0, 76, 37
1, 64442, Note_off_c, 0, 74, 61
1, 64442, Note_off_c, 0, 53, 61
1, 64459, Note_off_c, 0, 46, 63
1, 64461, Note_off_c, 0, 76, 54
1, 64527, Note_on_c, 0, 82, 87
1, 64529, Note_on_c, 0, 70, 82
1, 64539, Note_on_c, 0, 41, 84
1, 64540, Note_on_c, 0, 50, 81
1, 64555, Note_off_c, 0, 70, 64
1, 64580, Note_off_c, 0, 50, 61
1, 64587, Note_off_c, 0, 82, 62
1, 64635, Note_on_c, 0, 38, 78
1, 64638, Note_on_c, 0, 46, 80
1, 64639, Poly_aftertouch_c, 0, 80, 127
1, 64652, Note_on_c, 0, 86, 89
1, 64653, Note_off_c, 0, 41, 60
1, 64663, Poly_aftertouch_c, 0, 80, 0
1, 64665, Note_on_c, 0, 74, 76
1, 64676, Note_off_c, 0, 38, 65
1, 64676, Note_off_c, 0, 46, 64
1, 64676, Note_on_c, 0, 85, 48
1, 64683, Note_off_c, 0, 74, 67
1, 64698, Note_off_c, 0, 86, 59
1, 64709, Note_off_c, 0, 85, 59
1, 64769, Control_c, 0, 64, 100
1, 64769, Control_c, 1, 64, 100
1, 64787, Control_c, 1, 64, 51
1, 64787, Control_c, 0, 64, 51
1, 64789, Note_on_c, 0, 88, 87
1, 64794, Note_on_c, 0, 48, 78
1, 64795, Note_on_c, 0, 57, 78
1, 64800, Note_on_c, 0, 76, 74
1, 64806, Control_c, 0, 64, 0
1, 64806, Control_c, 1, 64, 0
1, 64832, Note_off_c, 0, 76, 68
1, 64870, Note_off_c, 0, 88, 54
1, 64906, Note_on_c, 0, 89, 88
1, 64912, Note_on_c, 0, 47, 71
1, 64912, Note_on_c, 0, 56, 80
1, 64924, Note_on_c, 0, 77, 76
1, 64931, Note_off_c, 0, 57, 64
1, 64937, Note_off_c, 0, 48, 62
1, 64951, Note_off_c, 0, 77, 70
1, 64987, Note_off_c, 0, 47, 59
1, 65031, Note_on_c, 0, 88, 88
1, 65034, Note_on_c, 0, 57, 81
1, 65040, Note_on_c, 0, 76, 84
1, 65046, Note_off_c, 0, 56, 61
1, 65052, Note_on_c, 0, 48, 77
1, 65064, Note_off_c, 0, 89, 32
1, 65160, Control_c, 0, 64, 41
1, 65160, Control_c, 1, 64, 41
1, 65162, Note_on_c, 0, 47, 66
1, 65162, Note_on_c, 0, 56, 77
1, 65171, Note_off_c, 0, 57, 57
1, 65179, Control_c, 0, 64, 78
1, 65179, Control_c, 1, 64, 78
1, 65181, Note_off_c, 0, 48, 46
1, 65199, Control_c, 0, 64, 111
1, 65199, Control_c, 1, 64, 111
1, 65218, Control_c, 1, 64, 127
1, 65218, Control_c, 0, 64, 127
1, 65237, Note_off_c, 0, 56, 61
1, 65260, Note_off_c, 0, 76, 57
1, 65266, Note_off_c, 0, 88, 64
1, 65269, Note_on_c, 0, 85, 6
1, 65271, Note_on_c, 0, 48, 74
1, 65271, Note_on_c, 0, 57, 77
1, 65272, Note_off_c, 0, 47, 52
1, 65279, Note_off_c, 0, 85, 33
1, 65374, Note_off_c, 0, 57, 61
1, 65378, Note_on_c, 0, 84, 91
1, 65387, Note_on_c, 0, 72, 82
1, 65398, Note_on_c, 0, 52, 66
1, 65398, Note_on_c, 0, 45, 80
1, 65411, Note_off_c, 0, 48, 61
1, 65413, Note_off_c, 0, 72, 70
1, 65427, Note_off_c, 0, 84, 59
1, 65435, Note_off_c, 0, 52, 62
1, 65454, Note_off_c, 0, 45, 62
1, 65512, Note_on_c, 0, 81, 89
1, 65518, Note_on_c, 0, 69, 85
1, 65533, Note_on_c, 0, 48, 80
1, 65536, Note_on_c, 0, 40, 78
1, 65544, Note_off_c, 0, 69, 71
1, 65567, Note_off_c, 0, 81, 62
1, 65577, Note_off_c, 0, 48, 55
1, 65611, Note_on_c, 0, 36, 73
1, 65633, Note_on_c, 0, 45, 80
1, 65638, Note_off_c, 0, 40, 56
1, 65644, Note_on_c, 0, 84, 91
1, 65656, Note_on_c, 0, 72, 78
1, 65665, Note_off_c, 0, 36, 60
1, 65666, Note_off_c, 0, 45, 65
1, 65685, Note_off_c, 0, 72, 71
1, 65685, Note_on_c, 0, 83, 45
1, 65686, Note_off_c, 0, 83, 127
1, 65696, Note_off_c, 0, 84, 64
1, 65743, Control_c, 0, 64, 114
1, 65743, Control_c, 1, 64, 114
1, 65760, Control_c, 1, 64, 66
1, 65760, Control_c, 0, 64, 66
1, 65779, Control_c, 0, 64, 18
1, 65779, Control_c, 1, 64, 18
1, 65798, Control_c, 1, 64, 0
1, 65798, Control_c, 0, 64, 0
1, 65803, Note_on_c, 0, 57, 75
1, 65803, Note_on_c, 0, 86, 84
1, 65814, Note_on_c, 0, 74, 69
1, 65838, Note_off_c, 0, 74, 64
1, 65838, Note_on_c, 0, 53, 45
1, 65849, Note_off_c, 0, 57, 59
1, 65909, Note_on_c, 0, 47, 75
1, 65914, Note_off_c, 0, 53, 62
1, 65916, Note_on_c, 0, 88, 86
1, 65920, Note_on_c, 0, 50, 38
1, 65936, Note_off_c, 0, 86, 60
1, 65942, Note_on_c, 0, 76, 63
1, 65949, Note_off_c, 0, 47, 68
1, 65963, Note_off_c, 0, 50, 46
1, 65966, Note_off_c, 0, 76, 63
1, 66040, Note_on_c, 0, 86, 76
1, 66045, Note_on_c, 0, 45, 57
1, 66058, Note_on_c, 0, 74, 75
1, 66067, Note_on_c, 0, 41, 57
1, 66080, Note_off_c, 0, 88, 60
1, 66103, Note_off_c, 0, 45, 60
1, 66127, Note_off_c, 0, 41, 59
1, 66142, Note_on_c, 0, 35, 67
1, 66172, Control_c, 0, 64, 40
1, 66172, Control_c, 1, 64, 40
1, 66176, Note_off_c, 0, 35, 63
1, 66191, Control_c, 0, 64, 80
1, 66191, Control_c, 1, 64, 80
1, 66211, Control_c, 1, 64, 127
1, 66211, Control_c, 0, 64, 127
1, 66274, Note_off_c, 0, 74, 56
1, 66297, Note_on_c, 0, 56, 67
1, 66303, Control_c, 0, 67, 11
1, 66303, Control_c, 1, 67, 11
1, 66323, Control_c, 1, 67, 24
1, 66323, Control_c, 0, 67, 24
1, 66332, Note_off_c, 0, 56, 64
1, 66341, Control_c, 0, 67, 42
1, 66341, Control_c, 1, 67, 42
1, 66359, Control_c, 1, 67, 58
1, 66359, Control_c, 0, 67, 58
1, 66378, Control_c, 0, 67, 67
1, 66378, Control_c, 1, 67, 67
1, 66403, Note_on_c, 0, 40, 71
1, 66403, Note_on_c, 0, 88, 78
1, 66410, Note_on_c, 0, 76, 64
1, 66416, Control_c, 0, 67, 72
1, 66416, Control_c, 1, 67, 72
1, 66422, Note_off_c, 0, 86, 59
1, 66431, Poly_aftertouch_c, 0, 54, 0
1, 66446, Note_off_c, 0, 40, 60
1, 66448, Note_off_c, 0, 76, 66
1, 66472, Control_c, 0, 64, 70
1, 66472, Control_c, 1, 64, 70
1, 66490, Control_c, 1, 64, 0
1, 66490, Control_c, 0, 64, 0
1, 66529, Note_on_c, 0, 44, 74
1, 66533, Note_off_c, 0, 88, 49
1, 66539, Note_on_c, 0, 74, 74
1, 66544, Note_on_c, 0, 86, 79
1, 66557, Note_off_c, 0, 44, 63
1, 66603, Control_c, 0, 64, 59
1, 66603, Control_c, 1, 64, 59
1, 66620, Control_c, 1, 64, 127
1, 66620, Note_on_c, 0, 28, 67
1, 66620, Control_c, 0, 64, 127
1, 66622, Control_c, 0, 67, 76
1, 66622, Control_c, 1, 67, 76
1, 66640, Control_c, 1, 67, 81
1, 66640, Control_c, 0, 67, 81
1, 66659, Note_off_c, 0, 28, 55
1, 66659, Control_c, 0, 67, 89
1, 66659, Control_c, 1, 67, 89
1, 66678, Control_c, 1, 67, 96
1, 66678, Control_c, 0, 67, 96
1, 66696, Control_c, 0, 67, 106
1, 66696, Control_c, 1, 67, 106
1, 66700, Poly_aftertouch_c, 0, 29, 0
1, 66716, Control_c, 0, 67, 119
1, 66716, Control_c, 1, 67, 119
1, 66734, Control_c, 1, 67, 127
1, 66734, Control_c, 0, 67, 127
1, 66769, Note_off_c, 0, 74, 58
1, 66790, Note_on_c, 0, 56, 68
1, 66806, Note_on_c, 0, 52, 57
1, 66846, Note_off_c, 0, 56, 60
1, 66903, Control_c, 0, 64, 76
1, 66903, Control_c, 1, 64, 76
1, 66905, Note_off_c, 0, 52, 58
1, 66908, Note_on_c, 0, 88, 77
1, 66911, Note_on_c, 0, 48, 33
1, 66913, Note_on_c, 0, 45, 69
1, 66920, Note_on_c, 0, 76, 59
1, 66922, Control_c, 0, 64, 37
1, 66922, Control_c, 1, 64, 37
1, 66931, Note_off_c, 0, 86, 62
1, 66940, Control_c, 0, 64, 0
1, 66940, Control_c, 1, 64, 0
1, 66953, Note_off_c, 0, 45, 68
1, 66956, Note_off_c, 0, 76, 66
1, 66958, Note_off_c, 0, 48, 30
1, 67047, Note_off_c, 0, 88, 52
1, 67072, Note_on_c, 0, 86, 73
1, 67073, Note_on_c, 0, 74, 65
1, 67074, Note_on_c, 0, 44, 57
1, 67125, Note_off_c, 0, 44, 61
1, 67195, Note_on_c, 0, 33, 57
1, 67195, Poly_aftertouch_c, 0, 40, 127
1, 67207, Poly_aftertouch_c, 0, 40, 0
1, 67278, Control_c, 0, 64, 10
1, 67278, Control_c, 1, 64, 10
1, 67287, Poly_aftertouch_c, 0, 36, 0
1, 67295, Control_c, 0, 64, 27
1, 67295, Control_c, 1, 64, 27
1, 67296, Note_off_c, 0, 74, 55
1, 67314, Control_c, 0, 64, 50
1, 67314, Control_c, 1, 64, 50
1, 67320, Note_off_c, 0, 33, 59
1, 67333, Control_c, 0, 64, 68
1, 67333, Control_c, 1, 64, 68
1, 67352, Control_c, 1, 64, 76
1, 67352, Control_c, 0, 64, 76
1, 67355, Note_on_c, 0, 45, 57
1, 67390, Control_c, 0, 64, 78
1, 67390, Control_c, 1, 64, 78
1, 67401, Poly_aftertouch_c, 0, 40, 0
1, 67409, Control_c, 0, 64, 80
1, 67409, Control_c, 1, 64, 80
1, 67423, Note_off_c, 0, 45, 56
1, 67425, Note_off_c, 0, 86, 50
1, 67426, Control_c, 0, 64, 83
1, 67426, Control_c, 1, 64, 83
1, 67445, Control_c, 1, 64, 90
1, 67445, Control_c, 0, 64, 90
1, 67465, Control_c, 0, 64, 99
1, 67465, Control_c, 1, 64, 99
1, 67482, Control_c, 1, 64, 108
1, 67482, Note_on_c, 0, 83, 64
1, 67482, Control_c, 0, 64, 108
1, 67501, Control_c, 0, 64, 127
1, 67501, Control_c, 1, 64, 127
1, 67512, Note_on_c, 0, 45, 55
1, 67513, Note_on_c, 0, 71, 29
1, 67526, Note_on_c, 0, 80, 20
1, 67560, Note_off_c, 0, 71, 43
1, 67625, Note_off_c, 0, 80, 44
1, 67672, Control_c, 0, 64, 84
1, 67672, Control_c, 1, 64, 84
1, 67678, Note_on_c, 0, 52, 45
1, 67681, Note_on_c, 0, 84, 63
1, 67682, Note_off_c, 0, 45, 59
1, 67688, Note_on_c, 0, 72, 46
1, 67690, Control_c, 0, 64, 53
1, 67690, Control_c, 1, 64, 53
1, 67708, Control_c, 1, 64, 33
1, 67708, Control_c, 0, 64, 33
1, 67715, Note_on_c, 0, 81, 30
1, 67717, Note_on_c, 0, 57, 59
1, 67720, Note_off_c, 0, 52, 60
1, 67721, Note_off_c, 0, 72, 51
1, 67727, Control_c, 0, 64, 37
1, 67727, Control_c, 1, 64, 37
1, 67745, Control_c, 1, 64, 54
1, 67745, Control_c, 0, 64, 54
1, 67752, Note_off_c, 0, 81, 46
1, 67756, Note_off_c, 0, 57, 65
1, 67763, Control_c, 0, 64, 76
1, 67763, Control_c, 1, 64, 76
1, 67778, Note_off_c, 0, 83, 33
1, 67782, Control_c, 0, 64, 117
1, 67782, Control_c, 1, 64, 117
1, 67802, Control_c, 1, 64, 127
1, 67802, Control_c, 0, 64, 127
1, 67852, Note_off_c, 0, 84, 63
1, 67869, Note_on_c, 0, 57, 65
1, 68143, Note_off_c, 0, 57, 60
1, 68156, Control_c, 0, 64, 102
1, 68156, Control_c, 1, 64, 102
1, 68172, Note_on_c, 0, 61, 65
1, 68172, Note_on_c, 0, 100, 78
1, 68174, Control_c, 0, 64, 89
1, 68174, Control_c, 1, 64, 89
1, 68182, Note_on_c, 0, 97, 63
1, 68183, Note_on_c, 0, 88, 61
1, 68189, Note_on_c, 0, 69, 56
1, 68193, Control_c, 0, 64, 76
1, 68193, Control_c, 1, 64, 76
1, 68205, Note_off_c, 0, 88, 64
1, 68210, Note_off_c, 0, 97, 65
1, 68212, Control_c, 0, 64, 63
1, 68212, Control_c, 1, 64, 63
1, 68231, Control_c, 1, 64, 51
1, 68231, Control_c, 0, 64, 51
1, 68238, Note_off_c, 0, 100, 56
1, 68251, Control_c, 0, 64, 44
1, 68251, Control_c, 1, 64, 44
1, 68288, Control_c, 1, 64, 41
1, 68288, Control_c, 0, 64, 41
1, 68296, Note_on_c, 0, 101, 86
1, 68303, Note_on_c, 0, 59, 67
1, 68309, Note_on_c, 0, 89, 63
1, 68311, Note_on_c, 0, 98, 62
1, 68312, Note_off_c, 0, 61, 60
1, 68315, Note_off_c, 0, 69, 42
1, 68319, Note_on_c, 0, 68, 68
1, 68326, Control_c, 0, 64, 36
1, 68326, Control_c, 1, 64, 36
1, 68335, Note_off_c, 0, 89, 63
1, 68335, Note_off_c, 0, 98, 63
1, 68343, Control_c, 0, 64, 31
1, 68343, Control_c, 1, 64, 31
1, 68347, Poly_aftertouch_c, 0, 97, 0
1, 68359, Poly_aftertouch_c, 0, 100, 127
1, 68361, Control_c, 0, 64, 25
1, 68361, Control_c, 1, 64, 25
1, 68368, Poly_aftertouch_c, 0, 100, 0
1, 68371, Poly_aftertouch_c, 0, 97, 0
1, 68373, Note_off_c, 0, 101, 55
1, 68398, Note_off_c, 0, 68, 50
1, 68400, Control_c, 0, 64, 20
1, 68400, Control_c, 1, 64, 20
1, 68408, Note_off_c, 0, 59, 56
1, 68419, Note_on_c, 0, 88, 90
1, 68434, Note_on_c, 0, 61, 77
1, 68437, Control_c, 0, 64, 14
1, 68437, Control_c, 1, 64, 14
1, 68440, Note_on_c, 0, 69, 76
1, 68445, Note_off_c, 0, 88, 67
1, 68450, Note_on_c, 0, 98, 34
1, 68453, Poly_aftertouch_c, 0, 100, 127
1, 68459, Poly_aftertouch_c, 0, 97, 127
1, 68475, Poly_aftertouch_c, 0, 97, 0
1, 68475, Control_c, 0, 64, 10
1, 68475, Control_c, 1, 64, 10
1, 68490, Note_off_c, 0, 98, 52
1, 68494, Note_off_c, 0, 69, 50
1, 68496, Poly_aftertouch_c, 0, 100, 0
1, 68533, Note_on_c, 0, 101, 93
1, 68538, Note_on_c, 0, 100, 42
1, 68550, Note_on_c, 0, 59, 75
1, 68553, Note_on_c, 0, 68, 72
1, 68563, Note_off_c, 0, 61, 61
1, 68575, Note_off_c, 0, 100, 58
1, 68642, Note_off_c, 0, 59, 50
1, 68642, Control_c, 0, 64, 0
1, 68642, Control_c, 1, 64, 0
1, 68659, Note_on_c, 0, 100, 88
1, 68659, Note_on_c, 0, 88, 82
1, 68660, Note_on_c, 0, 97, 83
1, 68671, Note_off_c, 0, 68, 56
1, 68674, Note_off_c, 0, 101, 33
1, 68676, Note_on_c, 0, 69, 74
1, 68680, Note_on_c, 0, 61, 72
1, 68682, Note_off_c, 0, 88, 95
1, 68687, Note_off_c, 0, 97, 66
1, 68720, Note_off_c, 0, 69, 51
1, 68756, Control_c, 0, 64, 18
1, 68756, Control_c, 1, 64, 18
1, 68764, Note_on_c, 0, 101, 98
1, 68775, Control_c, 0, 64, 50
1, 68775, Control_c, 1, 64, 50
1, 68781, Note_on_c, 0, 59, 76
1, 68784, Note_off_c, 0, 61, 61
1, 68794, Note_on_c, 0, 68, 64
1, 68794, Control_c, 0, 64, 85
1, 68794, Control_c, 1, 64, 85
1, 68795, Note_off_c, 0, 100, 64
1, 68795, Note_on_c, 0, 100, 22
1, 68808, Note_off_c, 0, 100, 56
1, 68811, Control_c, 0, 64, 127
1, 68811, Control_c, 1, 64, 127
1, 68839, Note_off_c, 0, 68, 56
1, 68867, Note_on_c, 0, 100, 79
1, 68870, Note_off_c, 0, 59, 59
1, 68876, Note_on_c, 0, 97, 71
1, 68884, Note_on_c, 0, 88, 59
1, 68884, Note_on_c, 0, 69, 82
1, 68888, Note_on_c, 0, 61, 70
1, 68897, Note_off_c, 0, 101, 64
1, 68905, Note_off_c, 0, 97, 68
1, 68910, Note_off_c, 0, 88, 64
1, 68918, Note_off_c, 0, 69, 60
1, 68921, Note_off_c, 0, 61, 67
1, 68928, Note_off_c, 0, 100, 63
1, 69012, Note_on_c, 0, 85, 86
1, 69013, Note_on_c, 0, 97, 87
1, 69024, Note_on_c, 0, 64, 70
1, 69033, Note_on_c, 0, 73, 73
1, 69047, Note_off_c, 0, 85, 63
1, 69060, Note_on_c, 0, 87, 29
1, 69061, Note_off_c, 0, 87, 127
1, 69075, Note_off_c, 0, 73, 51
1, 69076, Note_off_c, 0, 97, 63
1, 69112, Control_c, 0, 64, 85
1, 69112, Control_c, 1, 64, 85
1, 69131, Control_c, 1, 64, 58
1, 69131, Control_c, 0, 64, 58
1, 69144, Note_off_c, 0, 64, 56
1, 69150, Control_c, 0, 64, 34
1, 69150, Control_c, 1, 64, 34
1, 69151, Note_on_c, 0, 93, 89
1, 69164, Note_on_c, 0, 65, 71
1, 69164, Note_on_c, 0, 74, 74
1, 69168, Control_c, 0, 64, 18
1, 69168, Control_c, 1, 64, 18
1, 69173, Note_on_c, 0, 89, 59
1, 69186, Control_c, 0, 64, 8
1, 69186, Control_c, 1, 64, 8
1, 69198, Note_off_c, 0, 89, 62
1, 69203, Note_off_c, 0, 93, 63
1, 69204, Control_c, 0, 64, 0
1, 69204, Control_c, 1, 64, 0
1, 69216, Note_off_c, 0, 74, 54
1, 69225, Note_on_c, 0, 83, 23
1, 69226, Note_off_c, 0, 83, 127
1, 69272, Note_on_c, 0, 94, 88
1, 69281, Note_on_c, 0, 73, 76
1, 69283, Note_off_c, 0, 65, 42
1, 69283, Note_on_c, 0, 64, 66
1, 69288, Note_on_c, 0, 82, 71
1, 69291, Note_on_c, 0, 92, 40
1, 69291, Note_on_c, 0, 89, 60
1, 69292, Note_off_c, 0, 92, 127
1, 69294, Note_on_c, 0, 91, 49
1, 69318, Note_off_c, 0, 82, 69
1, 69319, Note_off_c, 0, 91, 60
1, 69319, Note_off_c, 0, 89, 62
1, 69332, Poly_aftertouch_c, 0, 92, 0
1, 69344, Note_off_c, 0, 94, 65
1, 69347, Note_off_c, 0, 64, 50
1, 69377, Note_on_c, 0, 74, 76
1, 69380, Note_on_c, 0, 90, 48
1, 69397, Note_on_c, 0, 93, 81
1, 69400, Note_off_c, 0, 73, 62
1, 69405, Note_on_c, 0, 65, 72
1, 69408, Note_on_c, 0, 89, 54
1, 69419, Note_on_c, 0, 88, 43
1, 69436, Note_off_c, 0, 89, 62
1, 69445, Note_off_c, 0, 93, 63
1, 69445, Note_off_c, 0, 90, 65
1, 69449, Note_off_c, 0, 74, 52
1, 69455, Note_off_c, 0, 88, 48
1, 69489, Note_on_c, 0, 73, 78
1, 69509, Note_on_c, 0, 82, 79
1, 69510, Note_on_c, 0, 94, 85
1, 69519, Note_on_c, 0, 64, 63
1, 69524, Note_off_c, 0, 65, 48
1, 69543, Note_off_c, 0, 82, 60
1, 69576, Note_off_c, 0, 73, 59
1, 69592, Note_off_c, 0, 64, 41
1, 69594, Note_off_c, 0, 94, 65
1, 69604, Note_on_c, 0, 74, 75
1, 69607, Note_on_c, 0, 65, 68
1, 69627, Note_on_c, 0, 93, 90
1, 69635, Control_c, 0, 64, 11
1, 69635, Control_c, 1, 64, 11
1, 69654, Control_c, 1, 64, 28
1, 69654, Control_c, 0, 64, 28
1, 69660, Note_on_c, 0, 81, 37
1, 69672, Note_off_c, 0, 93, 67
1, 69673, Control_c, 0, 64, 56
1, 69673, Control_c, 1, 64, 56
1, 69683, Note_off_c, 0, 81, 42
1, 69691, Control_c, 0, 64, 80
1, 69691, Control_c, 1, 64, 80
1, 69699, Note_off_c, 0, 74, 56
1, 69710, Control_c, 0, 64, 107
1, 69710, Control_c, 1, 64, 107
1, 69729, Control_c, 1, 64, 127
1, 69729, Control_c, 0, 64, 127
1, 69748, Note_on_c, 0, 69, 52
1, 69759, Note_on_c, 0, 85, 88
1, 69761, Note_on_c, 0, 62, 72
1, 69765, Note_off_c, 0, 65, 62
1, 69768, Note_on_c, 0, 97, 91
1, 69777, Note_off_c, 0, 69, 57
1, 69798, Note_off_c, 0, 62, 65
1, 69801, Note_off_c, 0, 85, 65
1, 69829, Note_off_c, 0, 97, 64
1, 69829, Poly_aftertouch_c, 0, 68, 0
1, 69898, Note_on_c, 0, 98, 85
1, 69899, Note_on_c, 0, 86, 81
1, 69902, Note_on_c, 0, 65, 59
1, 69924, Note_off_c, 0, 86, 64
1, 69925, Note_off_c, 0, 98, 69
1, 69939, Note_on_c, 0, 57, 46
1, 69943, Note_off_c, 0, 65, 59
1, 69978, Note_on_c, 0, 53, 74
1, 69982, Note_off_c, 0, 57, 53
1, 70009, Note_on_c, 0, 62, 73
1, 70027, Poly_aftertouch_c, 0, 55, 0
1, 70089, Note_off_c, 0, 53, 58
1, 70143, Control_c, 0, 64, 78
1, 70143, Control_c, 1, 64, 78
1, 70158, Note_off_c, 0, 62, 59
1, 70160, Note_on_c, 0, 59, 71
1, 70162, Control_c, 0, 64, 36
1, 70162, Control_c, 1, 64, 36
1, 70164, Note_on_c, 0, 67, 65
1, 70166, Note_on_c, 0, 98, 92
1, 70176, Note_on_c, 0, 86, 76
1, 70181, Control_c, 0, 64, 0
1, 70181, Control_c, 1, 64, 0
1, 70187, Note_on_c, 0, 94, 52
1, 70204, Note_off_c, 0, 86, 71
1, 70215, Note_off_c, 0, 94, 62
1, 70217, Note_off_c, 0, 98, 65
1, 70217, Poly_aftertouch_c, 0, 95, 0
1, 70284, Note_on_c, 0, 57, 74
1, 70284, Note_on_c, 0, 87, 92
1, 70288, Note_on_c, 0, 95, 89
1, 70292, Note_on_c, 0, 99, 83
1, 70294, Note_off_c, 0, 59, 55
1, 70297, Note_on_c, 0, 66, 75
1, 70298, Note_off_c, 0, 67, 64
1, 70328, Note_off_c, 0, 95, 61
1, 70336, Note_off_c, 0, 87, 64
1, 70369, Note_off_c, 0, 99, 64
1, 70371, Note_off_c, 0, 57, 59
1, 70396, Note_on_c, 0, 59, 78
1, 70405, Note_on_c, 0, 98, 85
1, 70407, Note_off_c, 0, 66, 56
1, 70413, Note_on_c, 0, 67, 70
1, 70416, Note_on_c, 0, 94, 58
1, 70424, Note_on_c, 0, 86, 68
1, 70431, Note_on_c, 0, 95, 66
1, 70446, Note_off_c, 0, 86, 66
1, 70447, Note_off_c, 0, 94, 63
1, 70452, Note_off_c, 0, 95, 67
1, 70453, Note_off_c, 0, 98, 62
1, 70517, Note_on_c, 0, 87, 89
1, 70523, Note_on_c, 0, 95, 83
1, 70524, Note_on_c, 0, 99, 83
1, 70527, Note_on_c, 0, 97, 70
1, 70529, Note_on_c, 0, 57, 71
1, 70530, Note_off_c, 0, 57, 127
1, 70531, Note_on_c, 0, 66, 75
1, 70532, Note_off_c, 0, 66, 127
1, 70539, Note_off_c, 0, 59, 62
1, 70541, Note_off_c, 0, 67, 53
1, 70548, Note_off_c, 0, 95, 68
1, 70559, Note_off_c, 0, 87, 62
1, 70560, Note_off_c, 0, 97, 71
1, 70588, Poly_aftertouch_c, 0, 57, 127
1, 70588, Poly_aftertouch_c, 0, 66, 127
1, 70591, Note_off_c, 0, 99, 64
1, 70628, Poly_aftertouch_c, 0, 57, 0
1, 70629, Note_on_c, 0, 59, 70
1, 70639, Poly_aftertouch_c, 0, 66, 0
1, 70646, Note_on_c, 0, 67, 71
1, 70649, Note_on_c, 0, 98, 88
1, 70656, Note_on_c, 0, 95, 74
1, 70661, Note_on_c, 0, 86, 66
1, 70678, Note_off_c, 0, 95, 69
1, 70683, Note_off_c, 0, 86, 66
1, 70695, Note_off_c, 0, 98, 61
1, 70736, Note_off_c, 0, 67, 35
1, 70752, Note_off_c, 0, 59, 59
1, 70759, Note_on_c, 0, 66, 72
1, 70764, Note_on_c, 0, 99, 82
1, 70767, Note_on_c, 0, 57, 72
1, 70768, Note_on_c, 0, 87, 78
1, 70772, Note_on_c, 0, 97, 72
1, 70776, Control_c, 0, 64, 13
1, 70776, Control_c, 1, 64, 13
1, 70777, Note_on_c, 0, 95, 57
1, 70796, Control_c, 0, 64, 43
1, 70796, Control_c, 1, 64, 43
1, 70803, Note_off_c, 0, 87, 67
1, 70803, Note_off_c, 0, 95, 63
1, 70804, Note_off_c, 0, 97, 71
1, 70815, Control_c, 0, 64, 76
1, 70815, Control_c, 1, 64, 76
1, 70833, Control_c, 1, 64, 108
1, 70833, Control_c, 0, 64, 108
1, 70837, Note_off_c, 0, 99, 65
1, 70847, Note_off_c, 0, 57, 62
1, 70852, Control_c, 0, 64, 127
1, 70852, Control_c, 1, 64, 127
1, 70854, Note_on_c, 0, 59, 70
1, 70855, Note_off_c, 0, 66, 48
1, 70865, Note_on_c, 0, 98, 80
1, 70870, Note_on_c, 0, 67, 81
1, 70879, Note_on_c, 0, 86, 64
1, 70889, Note_off_c, 0, 59, 63
1, 70895, Note_off_c, 0, 98, 66
1, 70899, Note_off_c, 0, 86, 65
1, 70959, Note_off_c, 0, 67, 65
1, 70999, Note_on_c, 0, 83, 84
1, 71005, Note_on_c, 0, 95, 78
1, 71008, Note_on_c, 0, 71, 77
1, 71018, Note_on_c, 0, 62, 57
1, 71026, Note_off_c, 0, 83, 72
1, 71028, Note_off_c, 0, 95, 68
1, 71036, Note_on_c, 0, 93, 44
1, 71072, Note_off_c, 0, 93, 57
1, 71076, Note_off_c, 0, 71, 59
1, 71086, Poly_aftertouch_c, 0, 94, 0
1, 71114, Note_off_c, 0, 62, 59
1, 71137, Note_on_c, 0, 91, 89
1, 71142, Note_on_c, 0, 64, 75
1, 71148, Note_on_c, 0, 72, 80
1, 71154, Note_on_c, 0, 88, 68
1, 71169, Note_off_c, 0, 91, 63
1, 71169, Control_c, 0, 64, 92
1, 71169, Control_c, 1, 64, 92
1, 71172, Note_on_c, 0, 89, 28
1, 71183, Note_off_c, 0, 88, 70
1, 71188, Control_c, 0, 64, 58
1, 71188, Control_c, 1, 64, 58
1, 71199, Note_off_c, 0, 72, 52
1, 71207, Control_c, 0, 64, 19
1, 71207, Control_c, 1, 64, 19
1, 71213, Note_off_c, 0, 89, 47
1, 71227, Control_c, 0, 64, 0
1, 71227, Control_c, 1, 64, 0
1, 71246, Note_on_c, 0, 88, 83
1, 71249, Note_on_c, 0, 80, 88
1, 71253, Note_on_c, 0, 92, 83
1, 71264, Note_on_c, 0, 71, 80
1, 71270, Note_on_c, 0, 62, 65
1, 71272, Note_off_c, 0, 64, 58
1, 71283, Note_off_c, 0, 80, 66
1, 71300, Note_off_c, 0, 88, 62
1, 71323, Note_off_c, 0, 71, 56
1, 71325, Note_off_c, 0, 92, 64
1, 71346, Note_off_c, 0, 62, 44
1, 71361, Note_on_c, 0, 64, 69
1, 71370, Note_on_c, 0, 72, 79
1, 71374, Note_on_c, 0, 88, 72
1, 71376, Note_on_c, 0, 91, 83
1, 71379, Poly_aftertouch_c, 0, 71, 0
1, 71393, Note_on_c, 0, 87, 37
1, 71394, Note_off_c, 0, 87, 127
1, 71419, Note_off_c, 0, 88, 65
1, 71420, Note_off_c, 0, 91, 64
1, 71424, Note_off_c, 0, 72, 57
1, 71485, Note_on_c, 0, 92, 85
1, 71488, Note_on_c, 0, 88, 58
1, 71489, Note_on_c, 0, 71, 68
1, 71492, Note_on_c, 0, 80, 77
1, 71514, Note_off_c, 0, 64, 61
1, 71514, Note_on_c, 0, 62, 51
1, 71516, Note_off_c, 0, 88, 64
1, 71523, Note_off_c, 0, 80, 66
1, 71574, Note_off_c, 0, 92, 65
1, 71583, Note_on_c, 0, 72, 73
1, 71587, Note_on_c, 0, 91, 74
1, 71588, Note_off_c, 0, 71, 50
1, 71588, Note_on_c, 0, 64, 61
1, 71593, Note_off_c, 0, 62, 59
1, 71617, Note_on_c, 0, 79, 33
1, 71619, Control_c, 0, 64, 10
1, 71619, Control_c, 1, 64, 10
1, 71621, Note_off_c, 0, 91, 61
1, 71640, Control_c, 0, 64, 24
1, 71640, Control_c, 1, 64, 24
1, 71653, Note_off_c, 0, 79, 36
1, 71658, Control_c, 0, 64, 46
1, 71658, Control_c, 1, 64, 46
1, 71671, Note_off_c, 0, 72, 58
1, 71674, Control_c, 0, 64, 71
1, 71674, Control_c, 1, 64, 71
1, 71695, Control_c, 1, 64, 95
1, 71695, Control_c, 0, 64, 95
1, 71713, Control_c, 0, 64, 127
1, 71713, Control_c, 1, 64, 127
1, 71718, Note_on_c, 0, 95, 86
1, 71719, Note_on_c, 0, 83, 77
1, 71727, Note_on_c, 0, 60, 73
1, 71737, Note_off_c, 0, 83, 55
1, 71741, Note_on_c, 0, 67, 40
1, 71743, Note_off_c, 0, 95, 70
1, 71750, Note_off_c, 0, 64, 63
1, 71770, Note_off_c, 0, 60, 61
1, 71783, Note_off_c, 0, 67, 49
1, 71857, Note_on_c, 0, 96, 88
1, 71864, Note_on_c, 0, 84, 74
1, 71876, Note_on_c, 0, 64, 61
1, 71881, Note_off_c, 0, 84, 50
1, 71882, Note_off_c, 0, 96, 64
1, 71885, Note_on_c, 0, 55, 55
1, 71912, Note_off_c, 0, 64, 64
1, 71968, Note_on_c, 0, 52, 72
1, 71974, Note_on_c, 0, 60, 74
1, 71979, Note_off_c, 0, 55, 61
1, 71999, Note_off_c, 0, 52, 66
1, 72003, Note_off_c, 0, 60, 64
1, 72061, Note_on_c, 0, 85, 23
1, 72110, Note_off_c, 0, 85, 45
1, 72179, Note_on_c, 0, 62, 61
1, 72179, Note_on_c, 0, 89, 81
1, 72193, Note_on_c, 0, 86, 63
1, 72193, Note_on_c, 0, 70, 61
1, 72202, Note_on_c, 0, 77, 45
1, 72219, Control_c, 0, 64, 88
1, 72219, Control_c, 1, 64, 88
1, 72226, Note_off_c, 0, 86, 68
1, 72230, Note_off_c, 0, 77, 39
1, 72236, Note_off_c, 0, 70, 64
1, 72237, Note_off_c, 0, 89, 64
1, 72237, Control_c, 0, 64, 52
1, 72237, Control_c, 1, 64, 52
1, 72275, Control_c, 1, 64, 0
1, 72275, Control_c, 0, 64, 0
1, 72310, Note_on_c, 0, 78, 78
1, 72310, Note_on_c, 0, 90, 81
1, 72312, Note_on_c, 0, 69, 73
1, 72325, Note_off_c, 0, 62, 53
1, 72327, Note_on_c, 0, 60, 65
1, 72328, Note_on_c, 0, 86, 60
1, 72337, Note_on_c, 0, 80, 49
1, 72339, Note_off_c, 0, 78, 72
1, 72362, Note_off_c, 0, 86, 66
1, 72373, Note_off_c, 0, 80, 59
1, 72381, Note_off_c, 0, 60, 52
1, 72415, Note_off_c, 0, 69, 59
1, 72429, Note_off_c, 0, 90, 33
1, 72431, Note_on_c, 0, 86, 76
1, 72432, Note_on_c, 0, 89, 83
1, 72444, Note_on_c, 0, 87, 36
1, 72445, Note_on_c, 0, 62, 71
1, 72445, Note_on_c, 0, 70, 78
1, 72462, Note_off_c, 0, 86, 64
1, 72476, Note_off_c, 0, 89, 65
1, 72476, Note_off_c, 0, 87, 53
1, 72524, Note_on_c, 0, 69, 58
1, 72540, Note_on_c, 0, 60, 65
1, 72544, Note_on_c, 0, 86, 65
1, 72550, Note_on_c, 0, 78, 82
1, 72552, Note_on_c, 0, 90, 81
1, 72556, Note_off_c, 0, 62, 57
1, 72558, Note_on_c, 0, 87, 71
1, 72571, Note_off_c, 0, 70, 48
1, 72578, Note_off_c, 0, 86, 69
1, 72579, Note_on_c, 0, 61, 22
1, 72588, Note_off_c, 0, 87, 66
1, 72602, Note_off_c, 0, 78, 63
1, 72612, Control_c, 0, 64, 44
1, 72612, Control_c, 1, 64, 44
1, 72617, Note_off_c, 0, 69, 60
1, 72621, Note_off_c, 0, 61, 31
1, 72632, Control_c, 0, 64, 73
1, 72632, Control_c, 1, 64, 73
1, 72633, Note_off_c, 0, 60, 53
1, 72635, Note_on_c, 0, 70, 71
1, 72636, Note_off_c, 0, 90, 64
1, 72648, Note_on_c, 0, 89, 76
1, 72649, Control_c, 0, 64, 98
1, 72649, Control_c, 1, 64, 98
1, 72659, Note_on_c, 0, 77, 61
1, 72666, Control_c, 0, 64, 127
1, 72666, Control_c, 1, 64, 127
1, 72676, Poly_aftertouch_c, 0, 62, 127
1, 72681, Note_off_c, 0, 77, 62
1, 72703, Note_off_c, 0, 89, 64
1, 72725, Note_off_c, 0, 70, 64
1, 72758, Note_on_c, 0, 58, 77
1, 72770, Note_on_c, 0, 65, 61
1, 72774, Note_on_c, 0, 93, 96
1, 72777, Note_on_c, 0, 81, 87
1, 72779, Poly_aftertouch_c, 0, 62, 0
1, 72797, Note_off_c, 0, 65, 62
1, 72797, Note_on_c, 0, 92, 54
1, 72798, Note_off_c, 0, 81, 64
1, 72820, Note_off_c, 0, 93, 61
1, 72822, Note_off_c, 0, 58, 65
1, 72824, Note_off_c, 0, 92, 61
1, 72912, Note_on_c, 0, 82, 94
1, 72913, Note_on_c, 0, 94, 100
1, 72915, Note_on_c, 0, 62, 78
1, 72927, Note_on_c, 0, 53, 78
1, 72950, Note_off_c, 0, 82, 62
1, 72962, Note_off_c, 0, 62, 58
1, 72964, Note_off_c, 0, 94, 66
1, 73005, Note_on_c, 0, 50, 81
1, 73014, Note_on_c, 0, 58, 67
1, 73034, Note_off_c, 0, 53, 56
1, 73048, Note_on_c, 0, 89, 89
1, 73058, Note_off_c, 0, 58, 66
1, 73062, Note_on_c, 0, 86, 78
1, 73065, Note_off_c, 0, 50, 60
1, 73087, Note_off_c, 0, 86, 71
1, 73104, Note_off_c, 0, 89, 63
1, 73117, Control_c, 0, 64, 83
1, 73117, Control_c, 1, 64, 83
1, 73136, Control_c, 1, 64, 52
1, 73136, Control_c, 0, 64, 52
1, 73148, Poly_aftertouch_c, 0, 88, 0
1, 73154, Control_c, 0, 64, 19
1, 73154, Control_c, 1, 64, 19
1, 73171, Note_on_c, 0, 69, 78
1, 73173, Control_c, 0, 64, 0
1, 73173, Control_c, 1, 64, 0
1, 73184, Note_on_c, 0, 60, 69
1, 73188, Note_on_c, 0, 76, 72
1, 73193, Note_on_c, 0, 84, 73
1, 73210, Poly_aftertouch_c, 0, 88, 127
1, 73216, Note_off_c, 0, 76, 64
1, 73220, Note_on_c, 0, 77, 41
1, 73221, Note_off_c, 0, 84, 64
1, 73221, Note_off_c, 0, 77, 127
1, 73281, Note_off_c, 0, 60, 49
1, 73303, Note_on_c, 0, 59, 64
1, 73303, Note_on_c, 0, 89, 87
1, 73318, Note_on_c, 0, 68, 72
1, 73319, Note_off_c, 0, 69, 53
1, 73320, Poly_aftertouch_c, 0, 69, 0
1, 73347, Poly_aftertouch_c, 0, 88, 0
1, 73353, Note_off_c, 0, 59, 58
1, 73421, Note_off_c, 0, 68, 56
1, 73429, Note_on_c, 0, 88, 57
1, 73430, Note_on_c, 0, 84, 77
1, 73432, Note_on_c, 0, 69, 69
1, 73434, Note_off_c, 0, 89, 63
1, 73439, Note_on_c, 0, 60, 69
1, 73446, Note_on_c, 0, 86, 53
1, 73450, Note_on_c, 0, 76, 58
1, 73465, Note_off_c, 0, 84, 61
1, 73469, Note_off_c, 0, 86, 61
1, 73474, Note_off_c, 0, 76, 61
1, 73491, Note_off_c, 0, 69, 54
1, 73543, Note_on_c, 0, 89, 91
1, 73559, Note_on_c, 0, 68, 68
1, 73569, Note_on_c, 0, 59, 52
1, 73581, Note_off_c, 0, 60, 55
1, 73584, Control_c, 0, 64, 27
1, 73584, Control_c, 1, 64, 27
1, 73587, Note_off_c, 0, 88, 31
1, 73604, Control_c, 0, 64, 56
1, 73604, Control_c, 1, 64, 56
1, 73620, Note_off_c, 0, 59, 54
1, 73623, Control_c, 0, 64, 81
1, 73623, Control_c, 1, 64, 81
1, 73642, Control_c, 1, 64, 105
1, 73642, Control_c, 0, 64, 105
1, 73645, Note_on_c, 0, 84, 81
1, 73653, Note_on_c, 0, 88, 72
1, 73654, Note_on_c, 0, 69, 70
1, 73656, Note_off_c, 0, 68, 61
1, 73658, Note_off_c, 0, 89, 64
1, 73661, Note_on_c, 0, 60, 68
1, 73661, Control_c, 0, 64, 127
1, 73661, Control_c, 1, 64, 127
1, 73674, Note_off_c, 0, 84, 64
1, 73713, Note_off_c, 0, 88, 62
1, 73756, Poly_aftertouch_c, 0, 76, 0
1, 73763, Note_off_c, 0, 69, 50
1, 73775, Poly_aftertouch_c, 0, 77, 0
1, 73788, Note_on_c, 0, 80, 88
1, 73788, Note_on_c, 0, 92, 94
1, 73807, Note_off_c, 0, 60, 62
1, 73807, Note_on_c, 0, 57, 72
1, 73814, Note_off_c, 0, 80, 68
1, 73816, Note_on_c, 0, 64, 43
1, 73848, Note_off_c, 0, 57, 63
1, 73850, Note_off_c, 0, 92, 65
1, 73853, Note_off_c, 0, 64, 50
1, 73917, Note_on_c, 0, 93, 87
1, 73927, Note_on_c, 0, 81, 72
1, 73928, Note_on_c, 0, 92, 34
1, 73942, Note_on_c, 0, 60, 75
1, 73948, Note_on_c, 0, 52, 66
1, 73949, Note_off_c, 0, 81, 66
1, 73950, Note_off_c, 0, 93, 64
1, 73977, Note_off_c, 0, 92, 55
1, 74006, Note_off_c, 0, 60, 41
1, 74021, Note_on_c, 0, 48, 75
1, 74029, Note_off_c, 0, 52, 59
1, 74045, Note_on_c, 0, 57, 58
1, 74050, Note_on_c, 0, 88, 92
1, 74079, Note_on_c, 0, 84, 71
1, 74080, Note_off_c, 0, 48, 60
1, 74080, Note_off_c, 0, 57, 59
1, 74094, Note_on_c, 0, 76, 44
1, 74095, Note_off_c, 0, 76, 127
1, 74097, Note_off_c, 0, 84, 67
1, 74109, Note_off_c, 0, 88, 64
1, 74128, Control_c, 0, 64, 74
1, 74128, Control_c, 1, 64, 74
1, 74147, Control_c, 1, 64, 39
1, 74147, Control_c, 0, 64, 39
1, 74183, Control_c, 0, 64, 0
1, 74183, Control_c, 1, 64, 0
1, 74198, Note_on_c, 0, 86, 73
1, 74220, Note_on_c, 0, 69, 64
1, 74223, Note_on_c, 0, 83, 58
1, 74236, Note_on_c, 0, 65, 49
1, 74261, Note_on_c, 0, 74, 12
1, 74267, Note_off_c, 0, 83, 63
1, 74271, Note_off_c, 0, 69, 52
1, 74301, Note_on_c, 0, 62, 57
1, 74302, Note_off_c, 0, 74, 31
1, 74320, Note_on_c, 0, 59, 68
1, 74321, Note_off_c, 0, 65, 59
1, 74324, Note_on_c, 0, 88, 85
1, 74337, Note_off_c, 0, 62, 64
1, 74350, Note_off_c, 0, 59, 67
1, 74359, Note_off_c, 0, 86, 37
1, 74446, Note_on_c, 0, 86, 74
1, 74447, Note_on_c, 0, 83, 72
1, 74450, Note_off_c, 0, 88, 59
1, 74455, Note_on_c, 0, 74, 63
1, 74460, Note_on_c, 0, 84, 60
1, 74480, Note_on_c, 0, 57, 39
1, 74503, Control_c, 0, 64, 18
1, 74503, Control_c, 1, 64, 18
1, 74519, Note_off_c, 0, 57, 56
1, 74519, Control_c, 0, 64, 41
1, 74519, Control_c, 1, 64, 41
1, 74530, Note_on_c, 0, 76, 26
1, 74531, Note_off_c, 0, 76, 127
1, 74540, Control_c, 0, 64, 69
1, 74540, Control_c, 1, 64, 69
1, 74553, Note_on_c, 0, 47, 66
1, 74559, Control_c, 0, 64, 92
1, 74559, Control_c, 1, 64, 92
1, 74570, Poly_aftertouch_c, 0, 53, 127
1, 74576, Control_c, 0, 64, 127
1, 74576, Control_c, 1, 64, 127
1, 74591, Note_off_c, 0, 47, 66
1, 74610, Poly_aftertouch_c, 0, 53, 0
1, 74665, Note_off_c, 0, 74, 50
1, 74729, Note_on_c, 0, 68, 70
1, 74751, Note_off_c, 0, 84, 19
1, 74784, Note_off_c, 0, 68, 60
1, 74825, Note_on_c, 0, 88, 72
1, 74826, Note_off_c, 0, 83, 55
1, 74828, Note_on_c, 0, 76, 57
1, 74841, Note_off_c, 0, 86, 57
1, 74845, Note_on_c, 0, 52, 67
1, 74856, Note_off_c, 0, 76, 60
1, 74887, Note_off_c, 0, 52, 65
1, 74915, Control_c, 0, 64, 95
1, 74915, Control_c, 1, 64, 95
1, 74934, Control_c, 1, 64, 52
1, 74934, Control_c, 0, 64, 52
1, 74951, Control_c, 0, 64, 0
1, 74951, Control_c, 1, 64, 0
1, 74965, Note_on_c, 0, 56, 68
1, 74967, Note_on_c, 0, 86, 73
1, 74969, Note_on_c, 0, 74, 64
1, 74971, Note_off_c, 0, 88, 64
1, 74984, Note_on_c, 0, 83, 37
1, 75001, Note_off_c, 0, 56, 64
1, 75027, Control_c, 0, 64, 14
1, 75027, Control_c, 1, 64, 14
1, 75045, Control_c, 1, 64, 44
1, 75045, Control_c, 0, 64, 44
1, 75064, Control_c, 0, 64, 78
1, 75064, Control_c, 1, 64, 78
1, 75083, Note_on_c, 0, 40, 72
1, 75084, Control_c, 0, 64, 127
1, 75084, Control_c, 1, 64, 127
1, 75106, Poly_aftertouch_c, 0, 84, 0
1, 75116, Note_off_c, 0, 40, 64
1, 75231, Note_off_c, 0, 74, 40
1, 75268, Note_on_c, 0, 68, 59
1, 75285, Note_on_c, 0, 64, 51
1, 75323, Note_off_c, 0, 68, 57
1, 75366, Note_on_c, 0, 88, 68
1, 75375, Note_on_c, 0, 76, 54
1, 75389, Note_off_c, 0, 64, 60
1, 75394, Note_on_c, 0, 84, 15
1, 75395, Note_on_c, 0, 57, 65
1, 75403, Note_off_c, 0, 76, 57
1, 75409, Note_off_c, 0, 83, 49
1, 75413, Note_off_c, 0, 86, 51
1, 75436, Note_off_c, 0, 84, 43
1, 75443, Note_off_c, 0, 57, 60
1, 75476, Control_c, 0, 64, 86
1, 75476, Control_c, 1, 64, 86
1, 75494, Control_c, 1, 64, 55
1, 75494, Control_c, 0, 64, 55
1, 75513, Control_c, 0, 64, 22
1, 75513, Control_c, 1, 64, 22
1, 75532, Control_c, 1, 64, 0
1, 75532, Control_c, 0, 64, 0
1, 75538, Note_off_c, 0, 88, 52
1, 75541, Note_on_c, 0, 83, 62
1, 75549, Note_on_c, 0, 86, 64
1, 75550, Note_on_c, 0, 74, 56
1, 75564, Note_on_c, 0, 56, 51
1, 75640, Note_off_c, 0, 56, 42
1, 75643, Poly_aftertouch_c, 0, 84, 0
1, 75710, Poly_aftertouch_c, 0, 52, 0
1, 75712, Note_on_c, 0, 45, 53
1, 75738, Control_c, 0, 64, 12
1, 75738, Control_c, 1, 64, 12
1, 75756, Control_c, 1, 64, 30
1, 75756, Control_c, 0, 64, 30
1, 75776, Control_c, 0, 64, 57
1, 75776, Control_c, 1, 64, 57
1, 75791, Note_off_c, 0, 83, 52
1, 75792, Control_c, 0, 64, 78
1, 75792, Control_c, 1, 64, 78
1, 75813, Control_c, 1, 64, 96
1, 75813, Control_c, 0, 64, 96
1, 75832, Control_c, 0, 64, 127
1, 75832, Control_c, 1, 64, 127
1, 75864, Note_off_c, 0, 45, 55
1, 75887, Note_off_c, 0, 74, 56
1, 75901, Note_on_c, 0, 52, 18
1, 75913, Note_on_c, 0, 57, 51
1, 75967, Note_off_c, 0, 52, 26
1, 75979, Note_off_c, 0, 57, 57
1, 76042, Note_off_c, 0, 86, 56
1, 76077, Note_on_c, 0, 83, 63
1, 76094, Note_on_c, 0, 80, 47
1, 76098, Note_on_c, 0, 57, 51
1, 76228, Poly_aftertouch_c, 0, 71, 0
1, 76507, Note_on_c, 0, 69, 36
1, 76542, Note_on_c, 0, 64, 27
1, 76598, Control_c, 0, 64, 93
1, 76598, Control_c, 1, 64, 93
1, 76618, Control_c, 1, 64, 65
1, 76618, Control_c, 0, 64, 65
1, 76625, Note_off_c, 0, 80, 59
1, 76638, Note_on_c, 0, 84, 52
1, 76638, Control_c, 0, 64, 40
1, 76638, Control_c, 1, 64, 40
1, 76642, Note_on_c, 0, 81, 44
1, 76645, Note_on_c, 0, 72, 30
1, 76654, Control_c, 0, 64, 17
1, 76654, Control_c, 1, 64, 17
1, 76713, Note_off_c, 0, 83, 32
1, 76730, Control_c, 0, 64, 0
1, 76730, Control_c, 1, 64, 0
1, 77142, Control_c, 1, 64, 15
1, 77142, Control_c, 0, 64, 15
1, 77160, Control_c, 0, 64, 25
1, 77160, Control_c, 1, 64, 25
1, 77180, Control_c, 1, 64, 38
1, 77180, Control_c, 0, 64, 38
1, 77198, Control_c, 0, 64, 59
1, 77198, Control_c, 1, 64, 59
1, 77217, Control_c, 1, 64, 79
1, 77217, Control_c, 0, 64, 79
1, 77235, Control_c, 0, 64, 110
1, 77235, Control_c, 1, 64, 110
1, 77254, Control_c, 1, 64, 127
1, 77254, Control_c, 0, 64, 127
1, 77341, Note_off_c, 0, 84, 61
1, 77349, Note_off_c, 0, 57, 51
1, 77350, Note_off_c, 0, 72, 40
1, 77369, Note_off_c, 0, 69, 35
1, 77380, Note_off_c, 0, 81, 52
1, 77411, Note_off_c, 0, 64, 40
1, 77759, Control_c, 0, 64, 110
1, 77759, Control_c, 1, 64, 110
1, 77779, Control_c, 1, 64, 105
1, 77779, Control_c, 0, 64, 105
1, 77796, Control_c, 0, 64, 99
1, 77796, Control_c, 1, 64, 99
1, 77816, Control_c, 1, 64, 88
1, 77816, Control_c, 0, 64, 88
1, 77834, Control_c, 0, 64, 75
1, 77834, Control_c, 1, 64, 75
1, 77853, Control_c, 1, 64, 63
1, 77853, Control_c, 0, 64, 63
1, 77872, Control_c, 0, 64, 56
1, 77872, Control_c, 1, 64, 56
1, 77890, Control_c, 1, 64, 54
1, 77890, Control_c, 0, 64, 54
1, 77946, Control_c, 0, 64, 52
1, 77946, Control_c, 1, 64, 52
1, 77984, Control_c, 1, 64, 48
1, 77984, Control_c, 0, 64, 48
1, 78002, Control_c, 0, 64, 46
1, 78002, Control_c, 1, 64, 46
1, 78022, Control_c, 1, 64, 43
1, 78022, Control_c, 0, 64, 43
1, 78041, Control_c, 0, 64, 39
1, 78041, Control_c, 1, 64, 39
1, 78058, Control_c, 1, 64, 30
1, 78058, Control_c, 0, 64, 30
1, 78079, Control_c, 0, 64, 15
1, 78079, Control_c, 1, 64, 15
1, 78116, Control_c, 1, 64, 0
1, 78116, Control_c, 0, 64, 0
1, 78358, Control_c, 0, 67, 121
1, 78358, Control_c, 1, 67, 121
1, 78378, Control_c, 1, 67, 113
1, 78378, Control_c, 0, 67, 113
1, 78395, Control_c, 0, 67, 108
1, 78395, Control_c, 1, 67, 108
1, 78433, Control_c, 1, 67, 102
1, 78433, Control_c, 0, 67, 102
1, 78470, Control_c, 0, 67, 89
1, 78470, Control_c, 1, 67, 89
1, 78490, Control_c, 1, 67, 71
1, 78490, Control_c, 0, 67, 71
1, 78508, Control_c, 0, 67, 49
1, 78508, Control_c, 1, 67, 49
1, 78526, Control_c, 1, 67, 33
1, 78526, Control_c, 0, 67, 33
1, 78546, Control_c, 0, 67, 28
1, 78546, Control_c, 1, 67, 28
1, 78602, Control_c, 1, 67, 22
1, 78602, Control_c, 0, 67, 22
1, 78620, Control_c, 0, 67, 13
1, 78620, Control_c, 1, 67, 13
1, 78657, Control_c, 1, 67, 0
1, 78657, Control_c, 0, 67, 0
1, 78791, Note_on_c, 0, 69, 54
1, 78886, Note_on_c, 0, 72, 59
1, 78889, Note_off_c, 0, 69, 53
1, 78965, Note_on_c, 0, 76, 63
1, 78967, Note_off_c, 0, 72, 60
1, 78998, Note_off_c, 0, 76, 66
1, 79065, Note_on_c, 0, 76, 74
1, 79123, Note_off_c, 0, 76, 59
1, 79133, Note_on_c, 0, 71, 64
1, 79191, Note_off_c, 0, 71, 62
1, 79197, Note_on_c, 0, 68, 63
1, 79229, Note_off_c, 0, 68, 67
1, 79285, Note_on_c, 0, 67, 63
1, 79358, Note_on_c, 0, 70, 69
1, 79383, Note_off_c, 0, 67, 62
1, 79409, Note_off_c, 0, 70, 65
1, 79411, Note_on_c, 0, 76, 75
1, 79433, Note_off_c, 0, 76, 70
1, 79497, Note_on_c, 0, 76, 81
1, 79567, Note_off_c, 0, 76, 61
1, 79592, Note_on_c, 0, 69, 66
1, 79637, Note_off_c, 0, 69, 62
1, 79640, Note_on_c, 0, 66, 66
1, 79671, Note_off_c, 0, 66, 66
1, 79716, Note_on_c, 0, 65, 62
1, 79779, Note_on_c, 0, 69, 69
1, 79796, Note_off_c, 0, 65, 61
1, 79831, Note_on_c, 0, 76, 79
1, 79837, Note_off_c, 0, 69, 59
1, 79857, Note_off_c, 0, 76, 68
1, 79927, Note_on_c, 0, 76, 72
1, 79993, Note_on_c, 0, 68, 68
1, 79994, Note_off_c, 0, 76, 64
1, 80068, Note_on_c, 0, 64, 70
1, 80091, Note_off_c, 0, 68, 58
1, 80153, Note_on_c, 0, 68, 62
1, 80158, Note_off_c, 0, 64, 61
1, 80227, Note_on_c, 0, 71, 74
1, 80233, Note_off_c, 0, 68, 63
1, 80280, Note_on_c, 0, 76, 77
1, 80286, Note_off_c, 0, 71, 63
1, 80308, Note_off_c, 0, 76, 70
1, 80359, Note_on_c, 0, 76, 72
1, 80436, Note_on_c, 0, 74, 72
1, 80454, Note_off_c, 0, 76, 61
1, 80509, Note_on_c, 0, 71, 57
1, 80519, Note_off_c, 0, 74, 62
1, 80576, Note_off_c, 0, 71, 62
1, 80586, Note_on_c, 0, 69, 65
1, 80663, Note_on_c, 0, 72, 72
1, 80671, Note_off_c, 0, 69, 60
1, 80713, Note_on_c, 0, 76, 80
1, 80717, Note_off_c, 0, 72, 60
1, 80741, Note_off_c, 0, 76, 69
1, 80799, Note_on_c, 0, 76, 73
1, 80873, Note_off_c, 0, 76, 63
1, 80880, Note_on_c, 0, 71, 65
1, 80930, Note_on_c, 0, 68, 67
1, 80936, Note_off_c, 0, 71, 61
1, 81020, Note_off_c, 0, 68, 62
1, 81024, Note_on_c, 0, 67, 62
1, 81099, Note_on_c, 0, 70, 74
1, 81121, Note_off_c, 0, 67, 59
1, 81147, Note_on_c, 0, 76, 75
1, 81149, Note_off_c, 0, 70, 66
1, 81177, Note_off_c, 0, 76, 69
1, 81242, Note_on_c, 0, 76, 83
1, 81316, Note_off_c, 0, 76, 60
1, 81325, Note_on_c, 0, 69, 63
1, 81375, Note_on_c, 0, 66, 71
1, 81393, Note_off_c, 0, 69, 59
1, 81422, Note_off_c, 0, 66, 61
1, 81457, Note_on_c, 0, 65, 68
1, 81530, Note_on_c, 0, 69, 74
1, 81540, Note_off_c, 0, 65, 60
1, 81588, Note_on_c, 0, 76, 80
1, 81598, Note_off_c, 0, 69, 62
1, 81610, Note_off_c, 0, 76, 70
1, 81670, Note_on_c, 0, 76, 81
1, 81752, Note_off_c, 0, 76, 63
1, 81752, Note_on_c, 0, 68, 68
1, 81828, Note_on_c, 0, 64, 69
1, 81839, Note_off_c, 0, 68, 60
1, 81909, Note_on_c, 0, 68, 66
1, 81914, Control_c, 0, 67, 8
1, 81914, Control_c, 1, 67, 8
1, 81936, Note_off_c, 0, 64, 60
1, 81986, Note_off_c, 0, 68, 63
1, 81992, Note_on_c, 0, 71, 74
1, 82036, Note_on_c, 0, 76, 72
1, 82047, Control_c, 0, 67, 12
1, 82047, Control_c, 1, 67, 12
1, 82048, Note_off_c, 0, 71, 61
1, 82064, Note_off_c, 0, 76, 69
1, 82113, Poly_aftertouch_c, 0, 72, 0
1, 82121, Note_on_c, 0, 76, 81
1, 82159, Control_c, 0, 67, 16
1, 82159, Control_c, 1, 67, 16
1, 82200, Note_on_c, 0, 74, 64
1, 82209, Note_off_c, 0, 76, 59
1, 82214, Control_c, 0, 67, 21
1, 82214, Control_c, 1, 67, 21
1, 82233, Control_c, 1, 67, 26
1, 82233, Control_c, 0, 67, 26
1, 82252, Control_c, 0, 67, 34
1, 82252, Control_c, 1, 67, 34
1, 82270, Control_c, 1, 67, 44
1, 82270, Control_c, 0, 67, 44
1, 82277, Note_on_c, 0, 71, 60
1, 82280, Note_off_c, 0, 74, 62
1, 82289, Control_c, 0, 67, 56
1, 82289, Control_c, 1, 67, 56
1, 82308, Control_c, 1, 67, 71
1, 82308, Control_c, 0, 67, 71
1, 82328, Control_c, 0, 67, 86
1, 82328, Control_c, 1, 67, 86
1, 82334, Note_off_c, 0, 71, 63
1, 82345, Control_c, 0, 67, 100
1, 82345, Control_c, 1, 67, 100
1, 82356, Note_on_c, 0, 69, 59
1, 82365, Control_c, 0, 67, 115
1, 82365, Control_c, 1, 67, 115
1, 82384, Control_c, 1, 67, 127
1, 82384, Control_c, 0, 67, 127
1, 82385, Note_off_c, 0, 69, 60
1, 82422, Note_on_c, 0, 72, 57
1, 82460, Note_off_c, 0, 72, 66
1, 82533, Note_on_c, 0, 76, 66
1, 82565, Note_off_c, 0, 76, 65
1, 82631, Note_on_c, 0, 88, 67
1, 82635, Note_on_c, 0, 76, 72
1, 82661, Note_off_c, 0, 88, 68
1, 82679, Note_off_c, 0, 76, 58
1, 82683, Note_on_c, 0, 71, 45
1, 82710, Note_on_c, 0, 68, 59
1, 82721, Note_off_c, 0, 71, 58
1, 82767, Note_off_c, 0, 68, 64
1, 82775, Control_c, 0, 64, 9
1, 82775, Control_c, 1, 64, 9
1, 82794, Control_c, 1, 64, 25
1, 82794, Control_c, 0, 64, 25
1, 82813, Control_c, 0, 64, 49
1, 82813, Control_c, 1, 64, 49
1, 82832, Control_c, 1, 64, 68
1, 82832, Control_c, 0, 64, 68
1, 82851, Control_c, 0, 64, 76
1, 82851, Control_c, 1, 64, 76
1, 82869, Note_on_c, 0, 67, 61
1, 82873, Note_on_c, 0, 64, 49
1, 82906, Note_off_c, 0, 67, 63
1, 82906, Control_c, 0, 64, 79
1, 82906, Control_c, 1, 64, 79
1, 82909, Note_on_c, 0, 52, 53
1, 82911, Note_off_c, 0, 64, 38
1, 82926, Control_c, 0, 64, 82
1, 82926, Control_c, 1, 64, 82
1, 82942, Note_off_c, 0, 52, 55
1, 82943, Control_c, 0, 64, 86
1, 82943, Control_c, 1, 64, 86
1, 82968, Note_on_c, 0, 70, 56
1, 82982, Control_c, 0, 64, 91
1, 82982, Control_c, 1, 64, 91
1, 82999, Note_off_c, 0, 70, 61
1, 83019, Control_c, 0, 64, 82
1, 83019, Control_c, 1, 64, 82
1, 83039, Control_c, 1, 64, 69
1, 83039, Control_c, 0, 64, 69
1, 83053, Note_on_c, 0, 76, 72
1, 83056, Control_c, 0, 64, 47
1, 83056, Control_c, 1, 64, 47
1, 83075, Control_c, 1, 64, 21
1, 83075, Control_c, 0, 64, 21
1, 83081, Note_off_c, 0, 76, 69
1, 83131, Note_on_c, 0, 88, 68
1, 83133, Control_c, 0, 64, 9
1, 83133, Control_c, 1, 64, 9
1, 83150, Control_c, 1, 64, 19
1, 83150, Control_c, 0, 64, 19
1, 83157, Note_off_c, 0, 88, 71
1, 83161, Note_on_c, 0, 89, 36
1, 83162, Note_off_c, 0, 89, 127
1, 83169, Control_c, 0, 64, 36
1, 83169, Control_c, 1, 64, 36
1, 83177, Note_on_c, 0, 76, 47
1, 83188, Control_c, 0, 64, 61
1, 83188, Control_c, 1, 64, 61
1, 83207, Control_c, 1, 64, 77
1, 83207, Control_c, 0, 64, 77
1, 83213, Poly_aftertouch_c, 0, 68, 127
1, 83216, Note_off_c, 0, 76, 52
1, 83223, Note_on_c, 0, 66, 69
1, 83226, Control_c, 0, 64, 89
1, 83226, Control_c, 1, 64, 89
1, 83245, Control_c, 1, 64, 99
1, 83245, Control_c, 0, 64, 99
1, 83263, Control_c, 0, 64, 107
1, 83263, Control_c, 1, 64, 107
1, 83279, Poly_aftertouch_c, 0, 68, 0
1, 83280, Control_c, 0, 64, 127
1, 83280, Control_c, 1, 64, 127
1, 83283, Poly_aftertouch_c, 0, 74, 0
1, 83286, Note_off_c, 0, 66, 62
1, 83375, Control_c, 0, 64, 107
1, 83375, Control_c, 1, 64, 107
1, 83383, Note_on_c, 0, 65, 59
1, 83394, Control_c, 0, 64, 76
1, 83394, Control_c, 1, 64, 76
1, 83412, Control_c, 1, 64, 54
1, 83412, Control_c, 0, 64, 54
1, 83415, Note_off_c, 0, 65, 57
1, 83429, Note_on_c, 0, 52, 68
1, 83431, Control_c, 0, 64, 45
1, 83431, Control_c, 1, 64, 45
1, 83436, Note_on_c, 0, 69, 62
1, 83451, Control_c, 0, 64, 48
1, 83451, Control_c, 1, 64, 48
1, 83457, Poly_aftertouch_c, 0, 62, 0
1, 83464, Note_off_c, 0, 52, 65
1, 83469, Control_c, 0, 64, 57
1, 83469, Control_c, 1, 64, 57
1, 83483, Note_off_c, 0, 69, 61
1, 83486, Control_c, 0, 64, 67
1, 83486, Control_c, 1, 64, 67
1, 83505, Control_c, 1, 64, 78
1, 83505, Control_c, 0, 64, 78
1, 83525, Control_c, 0, 64, 92
1, 83525, Control_c, 1, 64, 92
1, 83544, Control_c, 1, 64, 110
1, 83544, Control_c, 0, 64, 110
1, 83548, Note_on_c, 0, 76, 80
1, 83561, Control_c, 0, 64, 127
1, 83561, Control_c, 1, 64, 127
1, 83571, Note_off_c, 0, 76, 70
1, 83633, Note_on_c, 0, 88, 74
1, 83654, Note_on_c, 0, 76, 77
1, 83658, Note_off_c, 0, 88, 64
1, 83702, Note_on_c, 0, 68, 66
1, 83714, Note_off_c, 0, 76, 59
1, 83768, Control_c, 0, 64, 92
1, 83768, Control_c, 1, 64, 92
1, 83785, Note_off_c, 0, 68, 62
1, 83786, Control_c, 0, 64, 64
1, 83786, Control_c, 1, 64, 64
1, 83794, Note_on_c, 0, 64, 55
1, 83805, Control_c, 0, 64, 37
1, 83805, Control_c, 1, 64, 37
1, 83824, Control_c, 1, 64, 17
1, 83824, Control_c, 0, 64, 17
1, 83826, Note_off_c, 0, 64, 58
1, 83884, Note_on_c, 0, 68, 60
1, 83899, Control_c, 0, 64, 22
1, 83899, Control_c, 1, 64, 22
1, 83917, Control_c, 1, 64, 34
1, 83917, Control_c, 0, 64, 34
1, 83923, Note_off_c, 0, 68, 66
1, 83935, Note_on_c, 0, 71, 72
1, 83935, Control_c, 0, 64, 54
1, 83935, Control_c, 1, 64, 54
1, 83939, Note_on_c, 0, 52, 60
1, 83955, Control_c, 0, 64, 72
1, 83955, Control_c, 1, 64, 72
1, 83967, Note_on_c, 0, 62, 23
1, 83968, Note_off_c, 0, 62, 127
1, 83974, Control_c, 0, 64, 83
1, 83974, Control_c, 1, 64, 83
1, 83977, Note_off_c, 0, 52, 60
1, 83981, Note_off_c, 0, 71, 62
1, 83993, Control_c, 0, 64, 89
1, 83993, Control_c, 1, 64, 89
1, 84030, Control_c, 1, 64, 95
1, 84030, Control_c, 0, 64, 95
1, 84046, Note_on_c, 0, 76, 69
1, 84048, Control_c, 0, 64, 102
1, 84048, Control_c, 1, 64, 102
1, 84068, Control_c, 1, 64, 115
1, 84068, Control_c, 0, 64, 115
1, 84083, Note_off_c, 0, 76, 61
1, 84105, Control_c, 0, 64, 94
1, 84105, Control_c, 1, 64, 94
1, 84124, Control_c, 1, 64, 70
1, 84124, Control_c, 0, 64, 70
1, 84131, Note_on_c, 0, 88, 63
1, 84142, Note_on_c, 0, 76, 79
1, 84142, Control_c, 0, 64, 44
1, 84142, Control_c, 1, 64, 44
1, 84151, Note_on_c, 0, 89, 37
1, 84152, Note_off_c, 0, 89, 127
1, 84160, Control_c, 0, 64, 21
1, 84160, Control_c, 1, 64, 21
1, 84165, Note_off_c, 0, 88, 66
1, 84180, Control_c, 0, 64, 16
1, 84180, Control_c, 1, 64, 16
1, 84207, Note_off_c, 0, 76, 62
1, 84210, Note_on_c, 0, 74, 68
1, 84215, Control_c, 0, 64, 23
1, 84215, Control_c, 1, 64, 23
1, 84236, Control_c, 1, 64, 37
1, 84236, Control_c, 0, 64, 37
1, 84255, Control_c, 0, 64, 59
1, 84255, Control_c, 1, 64, 59
1, 84257, Note_off_c, 0, 74, 64
1, 84266, Note_on_c, 0, 71, 64
1, 84273, Control_c, 0, 64, 74
1, 84273, Control_c, 1, 64, 74
1, 84293, Control_c, 1, 64, 86
1, 84293, Control_c, 0, 64, 86
1, 84298, Note_off_c, 0, 71, 67
1, 84311, Control_c, 0, 64, 97
1, 84311, Control_c, 1, 64, 97
1, 84329, Control_c, 1, 64, 103
1, 84329, Control_c, 0, 64, 103
1, 84348, Control_c, 0, 64, 109
1, 84348, Control_c, 1, 64, 109
1, 84366, Control_c, 1, 64, 115
1, 84366, Control_c, 0, 64, 115
1, 84386, Control_c, 0, 64, 110
1, 84386, Control_c, 1, 64, 110
1, 84395, Note_on_c, 0, 69, 61
1, 84399, Note_on_c, 0, 64, 54
1, 84405, Control_c, 0, 64, 90
1, 84405, Control_c, 1, 64, 90
1, 84423, Control_c, 1, 64, 66
1, 84423, Control_c, 0, 64, 66
1, 84429, Note_off_c, 0, 64, 58
1, 84441, Note_off_c, 0, 69, 61
1, 84441, Note_on_c, 0, 52, 52
1, 84441, Control_c, 0, 64, 39
1, 84441, Control_c, 1, 64, 39
1, 84449, Note_on_c, 0, 72, 62
1, 84461, Control_c, 0, 64, 13
1, 84461, Control_c, 1, 64, 13
1, 84476, Note_off_c, 0, 52, 56
1, 84479, Control_c, 0, 64, 8
1, 84479, Control_c, 1, 64, 8
1, 84492, Note_off_c, 0, 72, 61
1, 84518, Control_c, 0, 64, 15
1, 84518, Control_c, 1, 64, 15
1, 84536, Control_c, 1, 64, 28
1, 84536, Control_c, 0, 64, 28
1, 84555, Control_c, 0, 64, 47
1, 84555, Control_c, 1, 64, 47
1, 84566, Note_on_c, 0, 76, 64
1, 84574, Control_c, 0, 64, 67
1, 84574, Control_c, 1, 64, 67
1, 84592, Note_off_c, 0, 76, 65
1, 84592, Control_c, 0, 64, 79
1, 84592, Control_c, 1, 64, 79
1, 84610, Control_c, 1, 64, 88
1, 84610, Control_c, 0, 64, 88
1, 84622, Note_on_c, 0, 88, 83
1, 84628, Control_c, 0, 64, 93
1, 84628, Control_c, 1, 64, 93
1, 84666, Note_off_c, 0, 88, 64
1, 84669, Note_on_c, 0, 76, 64
1, 84685, Control_c, 0, 64, 100
1, 84685, Control_c, 1, 64, 100
1, 84704, Control_c, 1, 64, 110
1, 84704, Control_c, 0, 64, 110
1, 84708, Note_off_c, 0, 76, 64
1, 84716, Note_on_c, 0, 71, 55
1, 84724, Control_c, 0, 64, 127
1, 84724, Control_c, 1, 64, 127
1, 84756, Note_on_c, 0, 68, 60
1, 84757, Note_off_c, 0, 71, 65
1, 84800, Note_off_c, 0, 68, 64
1, 84853, Control_c, 0, 64, 91
1, 84853, Control_c, 1, 64, 91
1, 84873, Control_c, 1, 64, 61
1, 84873, Control_c, 0, 64, 61
1, 84883, Note_on_c, 0, 67, 67
1, 84891, Control_c, 0, 64, 35
1, 84891, Control_c, 1, 64, 35
1, 84895, Note_on_c, 0, 64, 55
1, 84910, Control_c, 0, 64, 20
1, 84910, Control_c, 1, 64, 20
1, 84920, Note_off_c, 0, 67, 61
1, 84925, Note_off_c, 0, 64, 58
1, 84936, Note_on_c, 0, 73, 27
1, 84945, Note_on_c, 0, 52, 58
1, 84946, Control_c, 0, 64, 24
1, 84946, Control_c, 1, 64, 24
1, 84966, Control_c, 1, 64, 35
1, 84966, Control_c, 0, 64, 35
1, 84976, Note_on_c, 0, 70, 71
1, 84982, Note_off_c, 0, 52, 60
1, 84984, Note_off_c, 0, 73, 52
1, 84985, Control_c, 0, 64, 56
1, 84985, Control_c, 1, 64, 56
1, 85004, Control_c, 1, 64, 74
1, 85004, Control_c, 0, 64, 74
1, 85007, Note_off_c, 0, 70, 70
1, 85023, Control_c, 0, 64, 86
1, 85023, Control_c, 1, 64, 86
1, 85041, Control_c, 1, 64, 94
1, 85041, Control_c, 0, 64, 94
1, 85075, Note_on_c, 0, 76, 72
1, 85097, Control_c, 0, 64, 84
1, 85097, Control_c, 1, 64, 84
1, 85102, Note_off_c, 0, 76, 69
1, 85116, Control_c, 0, 64, 62
1, 85116, Control_c, 1, 64, 62
1, 85129, Note_on_c, 0, 88, 83
1, 85134, Control_c, 0, 64, 31
1, 85134, Control_c, 1, 64, 31
1, 85160, Note_on_c, 0, 76, 63
1, 85170, Note_off_c, 0, 88, 65
1, 85170, Control_c, 0, 64, 0
1, 85170, Control_c, 1, 64, 0
1, 85209, Control_c, 1, 64, 18
1, 85209, Control_c, 0, 64, 18
1, 85219, Note_on_c, 0, 69, 51
1, 85227, Control_c, 0, 64, 47
1, 85227, Control_c, 1, 64, 47
1, 85241, Note_off_c, 0, 76, 63
1, 85246, Control_c, 0, 64, 81
1, 85246, Control_c, 1, 64, 81
1, 85255, Note_on_c, 0, 66, 68
1, 85266, Control_c, 0, 64, 121
1, 85266, Control_c, 1, 64, 121
1, 85273, Note_off_c, 0, 69, 62
1, 85283, Control_c, 0, 64, 127
1, 85283, Control_c, 1, 64, 127
1, 85312, Note_off_c, 0, 66, 58
1, 85401, Note_on_c, 0, 64, 60
1, 85407, Note_on_c, 0, 65, 56
1, 85413, Control_c, 0, 64, 83
1, 85413, Control_c, 1, 64, 83
1, 85429, Note_off_c, 0, 64, 62
1, 85434, Control_c, 0, 64, 54
1, 85434, Control_c, 1, 64, 54
1, 85440, Note_off_c, 0, 65, 58
1, 85451, Note_on_c, 0, 69, 63
1, 85452, Control_c, 0, 64, 35
1, 85452, Control_c, 1, 64, 35
1, 85460, Note_on_c, 0, 52, 55
1, 85488, Note_off_c, 0, 52, 56
1, 85489, Control_c, 0, 64, 48
1, 85489, Control_c, 1, 64, 48
1, 85494, Note_off_c, 0, 69, 64
1, 85496, Poly_aftertouch_c, 0, 73, 0
1, 85509, Control_c, 0, 64, 69
1, 85509, Control_c, 1, 64, 69
1, 85528, Control_c, 1, 64, 93
1, 85528, Control_c, 0, 64, 93
1, 85546, Control_c, 0, 64, 127
1, 85546, Control_c, 1, 64, 127
1, 85597, Note_on_c, 0, 76, 51
1, 85600, Note_on_c, 0, 77, 64
1, 85601, Control_c, 0, 64, 111
1, 85601, Control_c, 1, 64, 111
1, 85622, Control_c, 1, 64, 74
1, 85622, Control_c, 0, 64, 74
1, 85624, Note_off_c, 0, 77, 63
1, 85641, Note_on_c, 0, 88, 81
1, 85642, Control_c, 0, 64, 48
1, 85642, Control_c, 1, 64, 48
1, 85659, Control_c, 1, 64, 35
1, 85659, Control_c, 0, 64, 35
1, 85666, Note_off_c, 0, 76, 64
1, 85666, Note_on_c, 0, 76, 42
1, 85673, Note_off_c, 0, 88, 66
1, 85695, Control_c, 0, 64, 51
1, 85695, Control_c, 1, 64, 51
1, 85696, Note_on_c, 0, 68, 67
1, 85713, Note_off_c, 0, 76, 61
1, 85714, Control_c, 0, 64, 69
1, 85714, Control_c, 1, 64, 69
1, 85733, Control_c, 1, 64, 89
1, 85733, Control_c, 0, 64, 89
1, 85751, Control_c, 0, 64, 127
1, 85751, Control_c, 1, 64, 127
1, 85799, Note_off_c, 0, 68, 62
1, 85799, Note_on_c, 0, 64, 54
1, 85828, Note_off_c, 0, 64, 61
1, 85882, Control_c, 0, 64, 80
1, 85882, Control_c, 1, 64, 80
1, 85903, Control_c, 1, 64, 52
1, 85903, Note_on_c, 0, 68, 66
1, 85903, Control_c, 0, 64, 52
1, 85921, Note_on_c, 0, 64, 44
1, 85921, Control_c, 0, 64, 35
1, 85921, Control_c, 1, 64, 35
1, 85933, Note_off_c, 0, 68, 64
1, 85948, Note_on_c, 0, 52, 61
1, 85956, Note_off_c, 0, 64, 55
1, 85958, Control_c, 0, 64, 56
1, 85958, Control_c, 1, 64, 56
1, 85974, Note_on_c, 0, 71, 68
1, 85976, Note_off_c, 0, 52, 60
1, 85977, Control_c, 0, 64, 80
1, 85977, Control_c, 1, 64, 80
1, 85997, Control_c, 1, 64, 127
1, 85997, Control_c, 0, 64, 127
1, 86005, Note_off_c, 0, 71, 69
1, 86071, Control_c, 0, 64, 104
1, 86071, Control_c, 1, 64, 104
1, 86085, Note_on_c, 0, 76, 59
1, 86087, Control_c, 0, 64, 71
1, 86087, Control_c, 1, 64, 71
1, 86091, Note_on_c, 0, 74, 35
1, 86107, Control_c, 0, 64, 44
1, 86107, Control_c, 1, 64, 44
1, 86111, Note_off_c, 0, 76, 62
1, 86127, Control_c, 0, 64, 29
1, 86127, Control_c, 1, 64, 29
1, 86131, Note_off_c, 0, 74, 34
1, 86138, Note_on_c, 0, 88, 75
1, 86158, Note_on_c, 0, 76, 74
1, 86162, Control_c, 0, 64, 34
1, 86162, Control_c, 1, 64, 34
1, 86169, Note_off_c, 0, 88, 66
1, 86184, Note_on_c, 0, 86, 23
1, 86184, Control_c, 0, 64, 49
1, 86184, Control_c, 1, 64, 49
1, 86185, Note_off_c, 0, 86, 127
1, 86202, Control_c, 0, 64, 69
1, 86202, Control_c, 1, 64, 69
1, 86220, Control_c, 1, 64, 83
1, 86220, Control_c, 0, 64, 83
1, 86224, Note_off_c, 0, 76, 62
1, 86226, Note_on_c, 0, 74, 72
1, 86240, Control_c, 0, 64, 98
1, 86240, Control_c, 1, 64, 98
1, 86257, Control_c, 1, 64, 114
1, 86257, Control_c, 0, 64, 114
1, 86272, Note_off_c, 0, 74, 59
1, 86276, Note_on_c, 0, 71, 67
1, 86276, Control_c, 0, 64, 127
1, 86276, Control_c, 1, 64, 127
1, 86306, Note_off_c, 0, 71, 68
1, 86334, Control_c, 0, 67, 123
1, 86334, Control_c, 1, 67, 123
1, 86403, Note_on_c, 0, 69, 72
1, 86413, Note_on_c, 0, 57, 69
1, 86427, Control_c, 0, 64, 104
1, 86427, Control_c, 1, 64, 104
1, 86445, Control_c, 1, 64, 80
1, 86445, Control_c, 0, 64, 80
1, 86448, Control_c, 0, 67, 119
1, 86448, Control_c, 1, 67, 119
1, 86452, Note_off_c, 0, 57, 65
1, 86464, Control_c, 0, 64, 58
1, 86464, Control_c, 1, 64, 58
1, 86467, Control_c, 1, 67, 114
1, 86467, Control_c, 0, 67, 114
1, 86472, Note_on_c, 0, 75, 9
1, 86482, Control_c, 0, 64, 40
1, 86482, Control_c, 1, 64, 40
1, 86484, Control_c, 1, 67, 108
1, 86484, Control_c, 0, 67, 108
1, 86498, Note_on_c, 0, 73, 80
1, 86501, Control_c, 0, 64, 29
1, 86501, Control_c, 0, 67, 102
1, 86501, Control_c, 1, 64, 29
1, 86501, Control_c, 1, 67, 102
1, 86511, Note_off_c, 0, 69, 54
1, 86519, Control_c, 0, 67, 94
1, 86519, Control_c, 1, 67, 94
1, 86539, Control_c, 1, 67, 87
1, 86539, Control_c, 0, 67, 87
1, 86547, Note_off_c, 0, 75, 43
1, 86557, Control_c, 0, 67, 81
1, 86557, Control_c, 1, 67, 81
1, 86559, Note_off_c, 0, 73, 66
1, 86574, Note_on_c, 0, 81, 81
1, 86613, Note_off_c, 0, 81, 65
1, 86649, Control_c, 0, 67, 76
1, 86649, Control_c, 1, 67, 76
1, 86654, Note_on_c, 0, 81, 63
1, 86688, Control_c, 0, 67, 68
1, 86688, Control_c, 1, 67, 68
1, 86707, Control_c, 1, 67, 62
1, 86707, Control_c, 0, 67, 62
1, 86715, Note_on_c, 0, 74, 63
1, 86726, Control_c, 0, 67, 56
1, 86726, Control_c, 1, 67, 56
1, 86734, Note_off_c, 0, 81, 60
1, 86745, Control_c, 0, 67, 51
1, 86745, Control_c, 1, 67, 51
1, 86763, Control_c, 1, 67, 47
1, 86763, Control_c, 0, 67, 47
1, 86781, Control_c, 0, 67, 41
1, 86781, Control_c, 1, 67, 41
1, 86797, Note_on_c, 0, 71, 77
1, 86802, Control_c, 0, 67, 35
1, 86802, Control_c, 1, 67, 35
1, 86819, Control_c, 1, 67, 29
1, 86819, Control_c, 0, 67, 29
1, 86823, Note_off_c, 0, 74, 62
1, 86837, Control_c, 0, 67, 24
1, 86837, Control_c, 1, 67, 24
1, 86857, Control_c, 1, 67, 20
1, 86857, Control_c, 0, 67, 20
1, 86875, Control_c, 0, 67, 16
1, 86875, Control_c, 1, 67, 16
1, 86887, Note_on_c, 0, 73, 33
1, 86893, Control_c, 0, 67, 12
1, 86893, Control_c, 1, 67, 12
1, 86934, Note_off_c, 0, 71, 59
1, 86951, Control_c, 0, 67, 0
1, 86951, Control_c, 1, 67, 0
1, 86967, Note_on_c, 0, 76, 72
1, 86979, Note_off_c, 0, 73, 62
1, 87023, Note_on_c, 0, 81, 79
1, 87050, Note_off_c, 0, 76, 63
1, 87066, Note_off_c, 0, 81, 66
1, 87126, Note_on_c, 0, 81, 72
1, 87189, Note_on_c, 0, 79, 74
1, 87193, Control_c, 0, 64, 25
1, 87193, Control_c, 1, 64, 25
1, 87227, Note_off_c, 0, 81, 61
1, 87238, Note_on_c, 0, 76, 61
1, 87283, Note_off_c, 0, 79, 64
1, 87336, Note_off_c, 0, 76, 64
1, 87343, Note_on_c, 0, 74, 73
1, 87419, Note_on_c, 0, 77, 72
1, 87433, Note_off_c, 0, 74, 58
1, 87475, Note_on_c, 0, 81, 86
1, 87493, Note_off_c, 0, 77, 63
1, 87497, Note_off_c, 0, 81, 70
1, 87579, Note_on_c, 0, 81, 83
1, 87627, Note_on_c, 0, 76, 65
1, 87665, Note_off_c, 0, 81, 62
1, 87713, Note_on_c, 0, 69, 64
1, 87750, Note_off_c, 0, 76, 62
1, 87799, Note_off_c, 0, 69, 60
1, 87813, Note_on_c, 0, 65, 64
1, 87875, Note_on_c, 0, 73, 73
1, 87906, Note_off_c, 0, 65, 61
1, 87961, Note_on_c, 0, 81, 89
1, 87972, Note_off_c, 0, 73, 65
1, 88003, Note_off_c, 0, 81, 65
1, 88054, Note_on_c, 0, 74, 74
1, 88101, Note_on_c, 0, 65, 58
1, 88130, Note_off_c, 0, 74, 60
1, 88204, Note_on_c, 0, 62, 67
1, 88235, Note_off_c, 0, 65, 58
1, 88294, Note_on_c, 0, 67, 62
1, 88304, Note_off_c, 0, 62, 62
1, 88336, Control_c, 0, 64, 30
1, 88336, Control_c, 1, 64, 30
1, 88354, Control_c, 1, 64, 36
1, 88354, Control_c, 0, 64, 36
1, 88359, Note_on_c, 0, 71, 77
1, 88367, Note_off_c, 0, 67, 57
1, 88372, Control_c, 0, 64, 49
1, 88372, Control_c, 1, 64, 49
1, 88392, Control_c, 1, 64, 65
1, 88392, Control_c, 0, 64, 65
1, 88410, Control_c, 0, 64, 78
1, 88410, Control_c, 1, 64, 78
1, 88421, Note_on_c, 0, 79, 89
1, 88428, Control_c, 0, 64, 92
1, 88428, Control_c, 1, 64, 92
1, 88435, Note_off_c, 0, 71, 63
1, 88440, Note_off_c, 0, 79, 64
1, 88447, Control_c, 0, 64, 110
1, 88447, Control_c, 1, 64, 110
1, 88467, Control_c, 1, 64, 127
1, 88467, Control_c, 0, 64, 127
1, 88485, Control_c, 0, 64, 119
1, 88485, Control_c, 1, 64, 119
1, 88504, Control_c, 1, 64, 100
1, 88504, Control_c, 0, 64, 100
1, 88522, Control_c, 0, 64, 85
1, 88522, Control_c, 1, 64, 85
1, 88529, Note_on_c, 0, 79, 82
1, 88541, Control_c, 0, 64, 70
1, 88541, Control_c, 1, 64, 70
1, 88560, Control_c, 1, 64, 58
1, 88560, Control_c, 0, 64, 58
1, 88579, Control_c, 0, 64, 49
1, 88579, Control_c, 1, 64, 49
1, 88587, Note_on_c, 0, 72, 59
1, 88597, Control_c, 0, 64, 44
1, 88597, Control_c, 1, 64, 44
1, 88617, Control_c, 1, 64, 40
1, 88617, Control_c, 0, 64, 40
1, 88622, Note_off_c, 0, 79, 52
1, 88636, Control_c, 0, 64, 34
1, 88636, Control_c, 1, 64, 34
1, 88653, Control_c, 1, 64, 28
1, 88653, Control_c, 0, 64, 28
1, 88668, Note_on_c, 0, 69, 69
1, 88672, Control_c, 0, 64, 24
1, 88672, Control_c, 1, 64, 24
1, 88696, Note_off_c, 0, 72, 59
1, 88710, Control_c, 0, 64, 20
1, 88710, Control_c, 1, 64, 20
1, 88764, Note_off_c, 0, 69, 60
1, 88765, Control_c, 0, 64, 13
1, 88765, Control_c, 1, 64, 13
1, 88770, Note_on_c, 0, 71, 69
1, 88837, Note_on_c, 0, 74, 73
1, 88838, Control_c, 0, 64, 9
1, 88838, Control_c, 1, 64, 9
1, 88842, Note_off_c, 0, 71, 61
1, 88901, Note_on_c, 0, 79, 80
1, 88910, Note_off_c, 0, 74, 63
1, 88924, Note_off_c, 0, 79, 69
1, 88992, Note_on_c, 0, 79, 69
1, 89065, Note_on_c, 0, 77, 64
1, 89114, Note_off_c, 0, 79, 62
1, 89144, Note_on_c, 0, 74, 60
1, 89170, Note_off_c, 0, 77, 61
1, 89239, Note_on_c, 0, 72, 64
1, 89246, Note_off_c, 0, 74, 62
1, 89301, Note_on_c, 0, 76, 72
1, 89321, Note_off_c, 0, 72, 60
1, 89365, Note_on_c, 0, 79, 82
1, 89381, Note_off_c, 0, 76, 64
1, 89385, Note_off_c, 0, 79, 73
1, 89461, Note_on_c, 0, 79, 81
1, 89524, Note_on_c, 0, 74, 67
1, 89542, Note_off_c, 0, 79, 62
1, 89597, Note_on_c, 0, 67, 69
1, 89627, Note_off_c, 0, 74, 61
1, 89684, Note_off_c, 0, 67, 61
1, 89726, Note_on_c, 0, 64, 50
1, 89749, Note_on_c, 0, 65, 40
1, 89763, Note_on_c, 0, 71, 69
1, 89780, Note_off_c, 0, 64, 63
1, 89796, Note_off_c, 0, 65, 62
1, 89854, Note_on_c, 0, 79, 80
1, 89863, Note_off_c, 0, 71, 62
1, 89910, Note_off_c, 0, 79, 64
1, 89942, Note_on_c, 0, 72, 71
1, 89997, Note_on_c, 0, 64, 59
1, 90017, Note_off_c, 0, 72, 60
1, 90080, Note_on_c, 0, 60, 64
1, 90115, Note_off_c, 0, 64, 61
1, 90132, Control_c, 0, 64, 13
1, 90132, Control_c, 1, 64, 13
1, 90174, Note_on_c, 0, 65, 70
1, 90188, Note_off_c, 0, 60, 60
1, 90245, Note_off_c, 0, 65, 60
1, 90249, Note_on_c, 0, 69, 67
1, 90300, Note_on_c, 0, 77, 85
1, 90314, Note_off_c, 0, 69, 62
1, 90338, Note_off_c, 0, 77, 67
1, 90357, Control_c, 0, 64, 18
1, 90357, Control_c, 1, 64, 18
1, 90398, Note_on_c, 0, 77, 78
1, 90478, Note_on_c, 0, 75, 72
1, 90510, Note_off_c, 0, 77, 56
1, 90561, Note_on_c, 0, 72, 64
1, 90574, Note_off_c, 0, 75, 64
1, 90646, Note_off_c, 0, 72, 60
1, 90650, Note_on_c, 0, 70, 68
1, 90711, Note_on_c, 0, 74, 71
1, 90722, Note_off_c, 0, 70, 61
1, 90770, Note_on_c, 0, 77, 78
1, 90779, Note_off_c, 0, 74, 63
1, 90805, Note_off_c, 0, 77, 66
1, 90854, Note_on_c, 0, 77, 69
1, 90935, Note_off_c, 0, 77, 61
1, 90946, Note_on_c, 0, 70, 74
1, 91018, Note_on_c, 0, 62, 69
1, 91020, Note_off_c, 0, 70, 63
1, 91105, Note_off_c, 0, 62, 63
1, 91109, Note_on_c, 0, 64, 64
1, 91183, Note_on_c, 0, 68, 74
1, 91196, Note_off_c, 0, 64, 62
1, 91213, Note_off_c, 0, 68, 68
1, 91238, Note_on_c, 0, 76, 81
1, 91241, Note_on_c, 0, 69, 41
1, 91260, Note_off_c, 0, 76, 72
1, 91281, Note_off_c, 0, 69, 37
1, 91318, Note_on_c, 0, 76, 83
1, 91402, Note_on_c, 0, 74, 73
1, 91420, Note_off_c, 0, 76, 58
1, 91479, Note_on_c, 0, 71, 64
1, 91491, Note_off_c, 0, 74, 60
1, 91555, Note_on_c, 0, 69, 69
1, 91559, Note_off_c, 0, 71, 63
1, 91628, Note_on_c, 0, 72, 73
1, 91646, Note_off_c, 0, 69, 57
1, 91684, Note_on_c, 0, 76, 80
1, 91699, Note_off_c, 0, 72, 62
1, 91707, Note_off_c, 0, 76, 71
1, 91742, Control_c, 0, 64, 22
1, 91742, Control_c, 1, 64, 22
1, 91771, Note_on_c, 0, 76, 82
1, 91835, Note_on_c, 0, 69, 59
1, 91836, Note_off_c, 0, 76, 63
1, 91911, Note_off_c, 0, 69, 61
1, 91927, Note_on_c, 0, 60, 68
1, 91996, Note_off_c, 0, 60, 59
1, 92009, Note_on_c, 0, 62, 67
1, 92079, Control_c, 0, 67, 8
1, 92079, Control_c, 1, 67, 8
1, 92090, Note_on_c, 0, 65, 72
1, 92091, Note_off_c, 0, 62, 60
1, 92151, Note_on_c, 0, 74, 80
1, 92156, Note_off_c, 0, 65, 62
1, 92175, Note_off_c, 0, 74, 71
1, 92238, Note_on_c, 0, 74, 76
1, 92300, Note_on_c, 0, 65, 54
1, 92312, Note_off_c, 0, 74, 60
1, 92394, Note_on_c, 0, 62, 59
1, 92433, Note_off_c, 0, 65, 60
1, 92492, Control_c, 0, 67, 12
1, 92492, Control_c, 1, 67, 12
1, 92500, Note_off_c, 0, 62, 61
1, 92509, Note_on_c, 0, 64, 51
1, 92566, Note_off_c, 0, 64, 60
1, 92567, Note_on_c, 0, 68, 67
1, 92584, Control_c, 0, 67, 17
1, 92584, Control_c, 1, 67, 17
1, 92611, Note_off_c, 0, 68, 66
1, 92622, Note_on_c, 0, 71, 79
1, 92640, Control_c, 0, 67, 23
1, 92640, Control_c, 1, 67, 23
1, 92661, Note_off_c, 0, 71, 66
1, 92678, Control_c, 0, 67, 28
1, 92678, Control_c, 1, 67, 28
1, 92713, Note_on_c, 0, 71, 68
1, 92780, Note_on_c, 0, 68, 67
1, 92790, Note_off_c, 0, 71, 59
1, 92864, Note_on_c, 0, 64, 62
1, 92900, Note_off_c, 0, 68, 62
1, 92941, Control_c, 0, 67, 32
1, 92941, Control_c, 1, 67, 32
1, 92942, Note_off_c, 0, 64, 64
1, 92963, Note_on_c, 0, 57, 61
1, 92996, Control_c, 0, 67, 38
1, 92996, Control_c, 1, 67, 38
1, 93033, Note_on_c, 0, 60, 68
1, 93034, Note_off_c, 0, 57, 61
1, 93034, Control_c, 0, 67, 44
1, 93034, Control_c, 1, 67, 44
1, 93071, Control_c, 1, 67, 51
1, 93071, Control_c, 0, 67, 51
1, 93090, Control_c, 0, 67, 55
1, 93090, Control_c, 1, 67, 55
1, 93097, Note_on_c, 0, 69, 79
1, 93098, Note_off_c, 0, 60, 61
1, 93108, Control_c, 0, 67, 60
1, 93108, Control_c, 1, 67, 60
1, 93122, Note_off_c, 0, 69, 69
1, 93127, Control_c, 0, 67, 66
1, 93127, Control_c, 1, 67, 66
1, 93147, Control_c, 1, 67, 73
1, 93147, Control_c, 0, 67, 73
1, 93166, Control_c, 0, 67, 78
1, 93166, Control_c, 1, 67, 78
1, 93184, Control_c, 1, 67, 83
1, 93184, Control_c, 0, 67, 83
1, 93195, Note_on_c, 0, 69, 79
1, 93201, Control_c, 0, 67, 87
1, 93201, Control_c, 1, 67, 87
1, 93222, Control_c, 1, 67, 92
1, 93222, Control_c, 0, 67, 92
1, 93231, Note_on_c, 0, 61, 52
1, 93238, Control_c, 0, 67, 97
1, 93238, Control_c, 1, 67, 97
1, 93259, Control_c, 1, 67, 102
1, 93259, Control_c, 0, 67, 102
1, 93263, Note_off_c, 0, 69, 60
1, 93267, Note_on_c, 0, 60, 62
1, 93277, Control_c, 0, 67, 107
1, 93277, Control_c, 1, 67, 107
1, 93283, Note_off_c, 0, 61, 43
1, 93296, Control_c, 0, 67, 111
1, 93296, Control_c, 1, 67, 111
1, 93333, Control_c, 1, 67, 118
1, 93333, Control_c, 0, 67, 118
1, 93340, Note_on_c, 0, 57, 63
1, 93352, Control_c, 0, 67, 124
1, 93352, Control_c, 1, 67, 124
1, 93377, Note_off_c, 0, 60, 60
1, 93423, Note_on_c, 0, 69, 64
1, 93426, Note_off_c, 0, 57, 57
1, 93492, Note_on_c, 0, 76, 57
1, 93502, Note_off_c, 0, 69, 58
1, 93540, Control_c, 0, 64, 15
1, 93540, Control_c, 1, 64, 15
1, 93555, Note_on_c, 0, 81, 71
1, 93575, Control_c, 0, 64, 0
1, 93575, Control_c, 1, 64, 0
1, 93581, Note_off_c, 0, 76, 59
1, 93600, Note_off_c, 0, 81, 61
1, 93657, Note_on_c, 0, 57, 61
1, 93711, Note_on_c, 0, 52, 61
1, 93712, Note_off_c, 0, 57, 57
1, 93784, Note_off_c, 0, 52, 55
1, 93791, Note_on_c, 0, 45, 56
1, 93842, Note_off_c, 0, 45, 64
1, 93881, Note_on_c, 0, 69, 60
1, 93951, Note_off_c, 0, 69, 53
1, 93970, Note_on_c, 0, 73, 65
1, 94001, Note_off_c, 0, 73, 70
1, 94107, Note_on_c, 0, 81, 52
1, 94135, Note_off_c, 0, 81, 59
1, 94187, Note_on_c, 0, 81, 56
1, 94189, Note_on_c, 0, 93, 43
1, 94195, Control_c, 0, 64, 18
1, 94195, Control_c, 1, 64, 18
1, 94208, Note_on_c, 0, 74, 60
1, 94213, Control_c, 0, 64, 50
1, 94213, Control_c, 1, 64, 50
1, 94223, Note_off_c, 0, 93, 55
1, 94231, Control_c, 0, 64, 80
1, 94231, Control_c, 1, 64, 80
1, 94232, Note_off_c, 0, 81, 57
1, 94250, Control_c, 0, 64, 110
1, 94250, Control_c, 1, 64, 110
1, 94270, Control_c, 1, 64, 127
1, 94270, Control_c, 0, 64, 127
1, 94294, Note_on_c, 0, 71, 60
1, 94299, Note_off_c, 0, 74, 61
1, 94334, Note_off_c, 0, 71, 65
1, 94425, Note_on_c, 0, 73, 59
1, 94442, Note_on_c, 0, 69, 35
1, 94453, Note_off_c, 0, 73, 63
1, 94465, Note_on_c, 0, 57, 67
1, 94485, Note_off_c, 0, 69, 47
1, 94494, Note_on_c, 0, 76, 52
1, 94502, Note_off_c, 0, 57, 67
1, 94523, Note_off_c, 0, 76, 61
1, 94530, Control_c, 0, 64, 121
1, 94530, Control_c, 1, 64, 121
1, 94550, Control_c, 1, 64, 77
1, 94550, Control_c, 0, 64, 77
1, 94568, Control_c, 0, 64, 45
1, 94568, Control_c, 1, 64, 45
1, 94587, Control_c, 1, 64, 10
1, 94587, Control_c, 0, 64, 10
1, 94596, Note_on_c, 0, 81, 64
1, 94604, Note_on_c, 0, 79, 34
1, 94606, Control_c, 0, 64, 0
1, 94606, Control_c, 1, 64, 0
1, 94627, Note_off_c, 0, 81, 67
1, 94637, Note_off_c, 0, 79, 48
1, 94663, Control_c, 0, 64, 14
1, 94663, Control_c, 1, 64, 14
1, 94665, Note_on_c, 0, 93, 81
1, 94677, Note_on_c, 0, 81, 60
1, 94680, Control_c, 0, 64, 34
1, 94680, Control_c, 1, 64, 34
1, 94701, Control_c, 1, 64, 63
1, 94701, Control_c, 0, 64, 63
1, 94718, Control_c, 0, 64, 82
1, 94718, Control_c, 1, 64, 82
1, 94726, Note_off_c, 0, 93, 61
1, 94738, Control_c, 0, 64, 99
1, 94738, Control_c, 1, 64, 99
1, 94745, Note_on_c, 0, 79, 70
1, 94756, Control_c, 0, 64, 111
1, 94756, Control_c, 1, 64, 111
1, 94762, Note_off_c, 0, 81, 60
1, 94774, Control_c, 0, 64, 117
1, 94774, Control_c, 1, 64, 117
1, 94780, Note_on_c, 0, 76, 67
1, 94786, Note_off_c, 0, 79, 60
1, 94793, Control_c, 0, 64, 127
1, 94793, Control_c, 1, 64, 127
1, 94829, Note_off_c, 0, 76, 62
1, 94887, Control_c, 0, 64, 93
1, 94887, Control_c, 1, 64, 93
1, 94906, Control_c, 1, 64, 59
1, 94906, Control_c, 0, 64, 59
1, 94924, Control_c, 0, 64, 25
1, 94924, Control_c, 1, 64, 25
1, 94928, Note_on_c, 0, 74, 66
1, 94943, Control_c, 0, 64, 10
1, 94943, Control_c, 1, 64, 10
1, 94946, Note_on_c, 0, 69, 37
1, 94958, Note_on_c, 0, 57, 68
1, 94960, Note_off_c, 0, 74, 68
1, 94979, Control_c, 0, 64, 21
1, 94979, Control_c, 1, 64, 21
1, 94986, Note_off_c, 0, 69, 35
1, 94990, Note_on_c, 0, 77, 58
1, 94991, Note_off_c, 0, 57, 66
1, 94998, Control_c, 0, 64, 46
1, 94998, Control_c, 1, 64, 46
1, 95011, Poly_aftertouch_c, 0, 78, 0
1, 95018, Control_c, 0, 64, 76
1, 95018, Control_c, 1, 64, 76
1, 95026, Note_off_c, 0, 77, 65
1, 95037, Control_c, 0, 64, 114
1, 95037, Control_c, 1, 64, 114
1, 95055, Control_c, 1, 64, 127
1, 95055, Control_c, 0, 64, 127
1, 95098, Note_on_c, 0, 81, 70
1, 95111, Control_c, 0, 64, 88
1, 95111, Control_c, 1, 64, 88
1, 95125, Note_off_c, 0, 81, 68
1, 95129, Control_c, 0, 64, 61
1, 95129, Control_c, 1, 64, 61
1, 95149, Control_c, 1, 64, 43
1, 95149, Control_c, 0, 64, 43
1, 95171, Note_on_c, 0, 93, 80
1, 95173, Note_on_c, 0, 81, 56
1, 95185, Control_c, 0, 64, 57
1, 95185, Control_c, 1, 64, 57
1, 95191, Note_on_c, 0, 74, 31
1, 95200, Note_off_c, 0, 93, 68
1, 95204, Control_c, 0, 64, 72
1, 95204, Control_c, 1, 64, 72
1, 95217, Note_off_c, 0, 81, 64
1, 95223, Control_c, 0, 64, 94
1, 95223, Control_c, 1, 64, 94
1, 95242, Control_c, 1, 64, 127
1, 95242, Control_c, 0, 64, 127
1, 95264, Note_on_c, 0, 69, 63
1, 95272, Poly_aftertouch_c, 0, 79, 0
1, 95280, Note_off_c, 0, 74, 62
1, 95309, Note_off_c, 0, 69, 63
1, 95374, Control_c, 0, 64, 79
1, 95374, Control_c, 1, 64, 79
1, 95392, Control_c, 1, 64, 44
1, 95392, Control_c, 0, 64, 44
1, 95411, Control_c, 0, 64, 11
1, 95411, Control_c, 1, 64, 11
1, 95421, Note_on_c, 0, 65, 61
1, 95437, Note_on_c, 0, 62, 26
1, 95457, Note_off_c, 0, 65, 65
1, 95462, Note_on_c, 0, 50, 48
1, 95465, Control_c, 0, 64, 20
1, 95465, Control_c, 1, 64, 20
1, 95466, Note_on_c, 0, 73, 56
1, 95486, Control_c, 0, 64, 45
1, 95486, Control_c, 1, 64, 45
1, 95491, Note_off_c, 0, 62, 29
1, 95505, Note_off_c, 0, 50, 54
1, 95505, Control_c, 0, 64, 76
1, 95505, Control_c, 1, 64, 76
1, 95524, Control_c, 1, 64, 111
1, 95524, Control_c, 0, 64, 111
1, 95541, Control_c, 0, 64, 127
1, 95541, Control_c, 1, 64, 127
1, 95548, Note_off_c, 0, 73, 64
1, 95609, Poly_aftertouch_c, 0, 75, 127
1, 95620, Note_on_c, 0, 81, 69
1, 95622, Poly_aftertouch_c, 0, 75, 0
1, 95636, Control_c, 0, 64, 77
1, 95636, Control_c, 1, 64, 77
1, 95650, Note_off_c, 0, 81, 67
1, 95653, Control_c, 0, 64, 48
1, 95653, Control_c, 1, 64, 48
1, 95666, Note_on_c, 0, 74, 52
1, 95672, Control_c, 0, 64, 33
1, 95672, Control_c, 1, 64, 33
1, 95680, Note_on_c, 0, 93, 80
1, 95692, Control_c, 0, 64, 37
1, 95692, Control_c, 1, 64, 37
1, 95705, Note_on_c, 0, 65, 45
1, 95709, Control_c, 0, 64, 57
1, 95709, Control_c, 1, 64, 57
1, 95725, Note_off_c, 0, 74, 61
1, 95727, Control_c, 0, 64, 83
1, 95727, Control_c, 1, 64, 83
1, 95734, Note_off_c, 0, 93, 60
1, 95748, Control_c, 0, 64, 127
1, 95748, Control_c, 1, 64, 127
1, 95761, Note_on_c, 0, 62, 66
1, 95785, Note_off_c, 0, 65, 61
1, 95802, Note_off_c, 0, 62, 63
1, 95859, Control_c, 0, 64, 116
1, 95859, Control_c, 1, 64, 116
1, 95879, Control_c, 1, 64, 68
1, 95879, Control_c, 0, 64, 68
1, 95899, Control_c, 0, 64, 29
1, 95899, Control_c, 1, 64, 29
1, 95915, Control_c, 1, 64, 0
1, 95915, Control_c, 0, 64, 0
1, 95930, Note_on_c, 0, 67, 68
1, 95943, Note_on_c, 0, 43, 64
1, 95944, Note_on_c, 0, 55, 44
1, 95967, Note_off_c, 0, 67, 64
1, 95973, Control_c, 0, 64, 10
1, 95973, Control_c, 1, 64, 10
1, 95983, Note_off_c, 0, 43, 65
1, 95984, Note_off_c, 0, 55, 58
1, 95991, Control_c, 0, 64, 31
1, 95991, Control_c, 1, 64, 31
1, 96002, Note_on_c, 0, 71, 64
1, 96009, Control_c, 0, 64, 63
1, 96009, Control_c, 1, 64, 63
1, 96029, Control_c, 1, 64, 95
1, 96029, Control_c, 0, 64, 95
1, 96038, Note_off_c, 0, 71, 67
1, 96047, Control_c, 0, 64, 127
1, 96047, Control_c, 1, 64, 127
1, 96129, Note_on_c, 0, 79, 73
1, 96158, Note_off_c, 0, 79, 65
1, 96159, Control_c, 0, 64, 72
1, 96159, Control_c, 1, 64, 72
1, 96178, Control_c, 1, 64, 36
1, 96178, Control_c, 0, 64, 36
1, 96189, Note_on_c, 0, 91, 81
1, 96197, Control_c, 0, 64, 13
1, 96197, Control_c, 1, 64, 13
1, 96229, Note_off_c, 0, 91, 61
1, 96234, Control_c, 0, 64, 27
1, 96234, Control_c, 1, 64, 27
1, 96244, Note_on_c, 0, 72, 67
1, 96251, Poly_aftertouch_c, 0, 79, 0
1, 96252, Control_c, 0, 64, 55
1, 96252, Control_c, 1, 64, 55
1, 96273, Control_c, 1, 64, 91
1, 96273, Control_c, 0, 64, 91
1, 96291, Control_c, 0, 64, 127
1, 96291, Control_c, 1, 64, 127
1, 96305, Note_on_c, 0, 69, 63
1, 96325, Note_off_c, 0, 72, 59
1, 96344, Note_off_c, 0, 69, 64
1, 96403, Control_c, 0, 64, 84
1, 96403, Control_c, 1, 64, 84
1, 96422, Control_c, 1, 64, 51
1, 96422, Control_c, 0, 64, 51
1, 96425, Note_on_c, 0, 71, 64
1, 96442, Control_c, 0, 64, 23
1, 96442, Control_c, 1, 64, 23
1, 96457, Note_off_c, 0, 71, 67
1, 96458, Control_c, 0, 64, 15
1, 96458, Control_c, 1, 64, 15
1, 96475, Note_on_c, 0, 67, 35
1, 96497, Note_on_c, 0, 55, 53
1, 96497, Control_c, 0, 64, 34
1, 96497, Control_c, 1, 64, 34
1, 96499, Note_on_c, 0, 74, 66
1, 96515, Note_off_c, 0, 67, 49
1, 96515, Control_c, 0, 64, 64
1, 96515, Control_c, 1, 64, 64
1, 96527, Note_off_c, 0, 74, 68
1, 96530, Note_off_c, 0, 55, 57
1, 96533, Control_c, 0, 64, 105
1, 96533, Control_c, 1, 64, 105
1, 96553, Control_c, 1, 64, 127
1, 96553, Control_c, 0, 64, 127
1, 96594, Note_on_c, 0, 79, 78
1, 96628, Control_c, 0, 64, 82
1, 96628, Control_c, 1, 64, 82
1, 96629, Note_off_c, 0, 79, 61
1, 96646, Control_c, 0, 64, 49
1, 96646, Control_c, 1, 64, 49
1, 96664, Control_c, 1, 64, 27
1, 96664, Control_c, 0, 64, 27
1, 96671, Note_on_c, 0, 91, 78
1, 96681, Note_on_c, 0, 79, 63
1, 96703, Control_c, 0, 64, 36
1, 96703, Control_c, 1, 64, 36
1, 96721, Control_c, 1, 64, 62
1, 96721, Control_c, 0, 64, 62
1, 96724, Note_off_c, 0, 91, 54
1, 96739, Note_on_c, 0, 77, 59
1, 96739, Control_c, 0, 64, 96
1, 96739, Control_c, 1, 64, 96
1, 96753, Note_off_c, 0, 79, 62
1, 96757, Control_c, 0, 64, 127
1, 96757, Control_c, 1, 64, 127
1, 96789, Note_on_c, 0, 74, 64
1, 96803, Note_off_c, 0, 77, 59
1, 96829, Note_off_c, 0, 74, 62
1, 96890, Control_c, 0, 64, 76
1, 96890, Control_c, 1, 64, 76
1, 96909, Control_c, 1, 64, 42
1, 96909, Control_c, 0, 64, 42
1, 96926, Control_c, 0, 64, 20
1, 96926, Control_c, 1, 64, 20
1, 96933, Note_on_c, 0, 72, 63
1, 96964, Control_c, 0, 64, 35
1, 96964, Control_c, 1, 64, 35
1, 96967, Note_off_c, 0, 72, 64
1, 96977, Note_on_c, 0, 55, 61
1, 96983, Control_c, 0, 64, 66
1, 96983, Control_c, 1, 64, 66
1, 96993, Note_on_c, 0, 76, 58
1, 97001, Control_c, 0, 64, 127
1, 97001, Control_c, 1, 64, 127
1, 97004, Note_off_c, 0, 55, 62
1, 97048, Note_off_c, 0, 76, 61
1, 97062, Poly_aftertouch_c, 0, 67, 0
1, 97114, Control_c, 0, 64, 74
1, 97114, Control_c, 1, 64, 74
1, 97116, Note_on_c, 0, 79, 68
1, 97133, Control_c, 0, 64, 46
1, 97133, Control_c, 1, 64, 46
1, 97152, Control_c, 1, 64, 36
1, 97152, Control_c, 0, 64, 36
1, 97170, Control_c, 0, 64, 41
1, 97170, Control_c, 1, 64, 41
1, 97185, Note_on_c, 0, 91, 75
1, 97189, Control_c, 0, 64, 61
1, 97189, Control_c, 1, 64, 61
1, 97200, Note_on_c, 0, 74, 55
1, 97201, Note_off_c, 0, 79, 64
1, 97201, Note_on_c, 0, 79, 39
1, 97207, Control_c, 0, 64, 92
1, 97207, Control_c, 1, 64, 92
1, 97209, Note_off_c, 0, 91, 69
1, 97226, Note_off_c, 0, 79, 66
1, 97227, Control_c, 0, 64, 127
1, 97227, Control_c, 1, 64, 127
1, 97274, Note_on_c, 0, 67, 69
1, 97277, Note_off_c, 0, 74, 63
1, 97317, Note_off_c, 0, 67, 61
1, 97377, Control_c, 0, 64, 99
1, 97377, Control_c, 1, 64, 99
1, 97395, Control_c, 1, 64, 58
1, 97395, Control_c, 0, 64, 58
1, 97414, Control_c, 0, 64, 21
1, 97414, Control_c, 1, 64, 21
1, 97432, Control_c, 1, 64, 11
1, 97432, Control_c, 0, 64, 11
1, 97447, Note_on_c, 0, 60, 32
1, 97451, Note_on_c, 0, 64, 56
1, 97465, Note_on_c, 0, 48, 56
1, 97470, Control_c, 0, 64, 36
1, 97470, Control_c, 1, 64, 36
1, 97483, Note_off_c, 0, 64, 59
1, 97489, Control_c, 0, 64, 77
1, 97489, Control_c, 1, 64, 77
1, 97499, Note_off_c, 0, 48, 56
1, 97499, Note_on_c, 0, 71, 51
1, 97500, Note_off_c, 0, 60, 34
1, 97508, Control_c, 0, 64, 127
1, 97508, Control_c, 1, 64, 127
1, 97546, Note_off_c, 0, 71, 64
1, 97581, Poly_aftertouch_c, 0, 73, 127
1, 97600, Poly_aftertouch_c, 0, 73, 0
1, 97630, Note_on_c, 0, 79, 80
1, 97638, Control_c, 0, 64, 73
1, 97638, Control_c, 1, 64, 73
1, 97656, Control_c, 1, 64, 42
1, 97656, Control_c, 0, 64, 42
1, 97663, Note_off_c, 0, 79, 60
1, 97674, Note_on_c, 0, 72, 56
1, 97675, Control_c, 0, 64, 32
1, 97675, Control_c, 1, 64, 32
1, 97695, Control_c, 1, 64, 42
1, 97695, Control_c, 0, 64, 42
1, 97696, Note_on_c, 0, 91, 79
1, 97713, Control_c, 0, 64, 70
1, 97713, Control_c, 1, 64, 70
1, 97726, Note_on_c, 0, 64, 62
1, 97731, Control_c, 0, 64, 127
1, 97731, Control_c, 1, 64, 127
1, 97738, Note_off_c, 0, 72, 58
1, 97746, Note_off_c, 0, 91, 60
1, 97787, Note_on_c, 0, 60, 61
1, 97795, Note_off_c, 0, 64, 62
1, 97818, Note_off_c, 0, 60, 63
1, 97882, Control_c, 0, 64, 83
1, 97882, Control_c, 1, 64, 83
1, 97901, Control_c, 1, 64, 45
1, 97901, Control_c, 0, 64, 45
1, 97919, Control_c, 0, 64, 10
1, 97919, Control_c, 1, 64, 10
1, 97945, Note_on_c, 0, 65, 65
1, 97953, Note_on_c, 0, 53, 40
1, 97956, Note_on_c, 0, 41, 68
1, 97976, Control_c, 0, 64, 38
1, 97976, Control_c, 1, 64, 38
1, 97980, Note_off_c, 0, 65, 66
1, 97989, Note_off_c, 0, 53, 56
1, 97992, Note_off_c, 0, 41, 65
1, 97994, Control_c, 0, 64, 82
1, 97994, Control_c, 1, 64, 82
1, 98012, Control_c, 1, 64, 127
1, 98012, Note_on_c, 0, 69, 70
1, 98012, Control_c, 0, 64, 127
1, 98041, Note_off_c, 0, 69, 67
1, 98072, Poly_aftertouch_c, 0, 70, 0
1, 98116, Poly_aftertouch_c, 0, 74, 0
1, 98125, Control_c, 0, 64, 102
1, 98125, Control_c, 1, 64, 102
1, 98129, Note_on_c, 0, 77, 78
1, 98143, Control_c, 0, 64, 58
1, 98143, Control_c, 1, 64, 58
1, 98153, Note_off_c, 0, 77, 69
1, 98162, Control_c, 0, 64, 20
1, 98162, Control_c, 1, 64, 20
1, 98182, Control_c, 1, 64, 10
1, 98182, Control_c, 0, 64, 10
1, 98197, Note_on_c, 0, 77, 67
1, 98198, Control_c, 0, 64, 17
1, 98198, Control_c, 1, 64, 17
1, 98202, Note_on_c, 0, 89, 72
1, 98218, Control_c, 0, 64, 45
1, 98218, Control_c, 1, 64, 45
1, 98238, Control_c, 1, 64, 92
1, 98238, Control_c, 0, 64, 92
1, 98252, Note_off_c, 0, 89, 55
1, 98255, Control_c, 0, 64, 127
1, 98255, Control_c, 1, 64, 127
1, 98262, Note_off_c, 0, 77, 60
1, 98266, Note_on_c, 0, 75, 60
1, 98270, Note_on_c, 0, 72, 56
1, 98309, Note_off_c, 0, 75, 66
1, 98336, Note_off_c, 0, 72, 62
1, 98388, Control_c, 0, 64, 76
1, 98388, Control_c, 1, 64, 76
1, 98406, Control_c, 1, 64, 39
1, 98406, Control_c, 0, 64, 39
1, 98424, Control_c, 0, 64, 14
1, 98424, Control_c, 1, 64, 14
1, 98460, Control_c, 1, 64, 30
1, 98460, Note_on_c, 0, 75, 25
1, 98460, Control_c, 0, 64, 30
1, 98480, Control_c, 0, 64, 65
1, 98480, Control_c, 1, 64, 65
1, 98486, Note_on_c, 0, 46, 62
1, 98490, Note_on_c, 0, 71, 19
1, 98499, Control_c, 0, 64, 127
1, 98499, Control_c, 1, 64, 127
1, 98510, Note_on_c, 0, 74, 61
1, 98519, Note_off_c, 0, 75, 35
1, 98522, Note_off_c, 0, 46, 65
1, 98534, Poly_aftertouch_c, 0, 58, 0
1, 98548, Note_off_c, 0, 74, 62
1, 98554, Note_off_c, 0, 71, 30
1, 98607, Note_on_c, 0, 77, 78
1, 98611, Control_c, 0, 64, 99
1, 98611, Control_c, 1, 64, 99
1, 98631, Control_c, 1, 64, 62
1, 98631, Control_c, 0, 64, 62
1, 98650, Note_off_c, 0, 77, 61
1, 98650, Control_c, 0, 64, 37
1, 98650, Control_c, 1, 64, 37
1, 98686, Control_c, 1, 64, 54
1, 98686, Control_c, 0, 64, 54
1, 98693, Note_on_c, 0, 89, 76
1, 98697, Note_on_c, 0, 77, 53
1, 98706, Control_c, 0, 64, 86
1, 98706, Control_c, 1, 64, 86
1, 98720, Note_on_c, 0, 70, 57
1, 98723, Control_c, 0, 64, 127
1, 98723, Control_c, 1, 64, 127
1, 98724, Note_off_c, 0, 89, 65
1, 98728, Note_off_c, 0, 77, 64
1, 98733, Note_on_c, 0, 68, 43
1, 98770, Note_off_c, 0, 68, 55
1, 98805, Note_off_c, 0, 70, 62
1, 98812, Note_on_c, 0, 62, 62
1, 98849, Note_off_c, 0, 62, 64
1, 98893, Control_c, 0, 64, 76
1, 98893, Control_c, 1, 64, 76
1, 98912, Control_c, 1, 64, 35
1, 98912, Control_c, 0, 64, 35
1, 98929, Control_c, 0, 64, 0
1, 98929, Control_c, 1, 64, 0
1, 98954, Note_on_c, 0, 64, 67
1, 98967, Control_c, 0, 64, 11
1, 98967, Control_c, 1, 64, 11
1, 98986, Control_c, 1, 64, 45
1, 98986, Control_c, 0, 64, 45
1, 98996, Note_on_c, 0, 40, 62
1, 99002, Control_c, 0, 64, 96
1, 99002, Control_c, 1, 64, 96
1, 99021, Note_off_c, 0, 64, 59
1, 99024, Control_c, 0, 64, 127
1, 99024, Control_c, 1, 64, 127
1, 99030, Note_off_c, 0, 40, 57
1, 99036, Note_on_c, 0, 72, 33
1, 99044, Note_on_c, 0, 52, 7
1, 99046, Note_off_c, 0, 52, 36
1, 99057, Note_on_c, 0, 68, 68
1, 99075, Note_off_c, 0, 72, 52
1, 99079, Poly_aftertouch_c, 0, 41, 0
1, 99088, Note_off_c, 0, 68, 67
1, 99154, Note_on_c, 0, 76, 77
1, 99154, Control_c, 0, 64, 97
1, 99154, Control_c, 1, 64, 97
1, 99173, Control_c, 1, 64, 56
1, 99173, Control_c, 0, 64, 56
1, 99184, Note_off_c, 0, 76, 67
1, 99191, Control_c, 0, 64, 25
1, 99191, Control_c, 1, 64, 25
1, 99216, Note_on_c, 0, 88, 79
1, 99231, Control_c, 0, 64, 44
1, 99231, Control_c, 1, 64, 44
1, 99235, Note_on_c, 0, 76, 80
1, 99248, Control_c, 0, 64, 85
1, 99248, Control_c, 1, 64, 85
1, 99249, Note_off_c, 0, 88, 64
1, 99267, Control_c, 0, 64, 127
1, 99267, Control_c, 1, 64, 127
1, 99296, Note_on_c, 0, 74, 65
1, 99298, Note_off_c, 0, 76, 62
1, 99330, Note_off_c, 0, 74, 66
1, 99352, Note_on_c, 0, 71, 57
1, 99379, Note_off_c, 0, 71, 61
1, 99417, Control_c, 0, 64, 87
1, 99417, Control_c, 1, 64, 87
1, 99436, Control_c, 1, 64, 45
1, 99436, Control_c, 0, 64, 45
1, 99473, Note_on_c, 0, 69, 62
1, 99491, Note_on_c, 0, 57, 53
1, 99491, Control_c, 0, 64, 20
1, 99491, Control_c, 1, 64, 20
1, 99509, Note_on_c, 0, 45, 69
1, 99511, Control_c, 0, 64, 57
1, 99511, Control_c, 1, 64, 57
1, 99513, Note_off_c, 0, 69, 59
1, 99525, Note_off_c, 0, 57, 57
1, 99528, Control_c, 0, 64, 127
1, 99528, Control_c, 1, 64, 127
1, 99542, Note_off_c, 0, 45, 64
1, 99545, Note_on_c, 0, 72, 66
1, 99576, Note_off_c, 0, 72, 66
1, 99660, Control_c, 0, 64, 83
1, 99660, Control_c, 1, 64, 83
1, 99662, Note_on_c, 0, 76, 68
1, 99679, Control_c, 0, 64, 48
1, 99679, Control_c, 1, 64, 48
1, 99683, Note_off_c, 0, 76, 65
1, 99697, Control_c, 0, 64, 32
1, 99697, Control_c, 1, 64, 32
1, 99716, Control_c, 1, 64, 40
1, 99716, Control_c, 0, 64, 40
1, 99731, Note_on_c, 0, 88, 73
1, 99734, Control_c, 0, 64, 70
1, 99734, Control_c, 1, 64, 70
1, 99736, Note_on_c, 0, 76, 69
1, 99753, Note_on_c, 0, 69, 66
1, 99753, Control_c, 0, 64, 127
1, 99753, Control_c, 1, 64, 127
1, 99756, Note_off_c, 0, 88, 72
1, 99764, Note_off_c, 0, 76, 70
1, 99811, Note_off_c, 0, 69, 57
1, 99816, Note_on_c, 0, 60, 75
1, 99848, Note_off_c, 0, 60, 68
1, 99922, Control_c, 0, 64, 70
1, 99922, Control_c, 1, 64, 70
1, 99940, Control_c, 1, 64, 27
1, 99940, Control_c, 0, 64, 27
1, 99960, Control_c, 0, 64, 0
1, 99960, Control_c, 1, 64, 0
1, 99991, Note_on_c, 0, 62, 59
1, 99996, Control_c, 0, 64, 16
1, 99996, Control_c, 1, 64, 16
1, 100007, Note_on_c, 0, 38, 67
1, 100015, Control_c, 0, 64, 52
1, 100015, Control_c, 1, 64, 52
1, 100033, Note_off_c, 0, 62, 64
1, 100036, Control_c, 0, 64, 116
1, 100036, Control_c, 1, 64, 116
1, 100047, Note_off_c, 0, 38, 64
1, 100050, Note_on_c, 0, 65, 65
1, 100054, Control_c, 0, 64, 127
1, 100054, Control_c, 1, 64, 127
1, 100083, Note_off_c, 0, 65, 68
1, 100112, Poly_aftertouch_c, 0, 50, 0
1, 100172, Poly_aftertouch_c, 0, 71, 0
1, 100178, Note_on_c, 0, 74, 71
1, 100183, Control_c, 0, 64, 81
1, 100183, Control_c, 1, 64, 81
1, 100201, Note_off_c, 0, 74, 66
1, 100201, Control_c, 0, 64, 44
1, 100201, Control_c, 1, 64, 44
1, 100221, Control_c, 1, 64, 20
1, 100221, Control_c, 0, 64, 20
1, 100232, Note_on_c, 0, 86, 82
1, 100240, Note_on_c, 0, 72, 49
1, 100259, Control_c, 0, 64, 43
1, 100259, Control_c, 1, 64, 43
1, 100277, Control_c, 1, 64, 84
1, 100277, Control_c, 0, 64, 84
1, 100280, Note_off_c, 0, 72, 38
1, 100281, Note_off_c, 0, 86, 63
1, 100284, Note_on_c, 0, 65, 56
1, 100285, Note_on_c, 0, 74, 48
1, 100298, Control_c, 0, 64, 127
1, 100298, Control_c, 1, 64, 127
1, 100318, Note_off_c, 0, 74, 41
1, 100340, Note_on_c, 0, 62, 64
1, 100361, Note_off_c, 0, 65, 62
1, 100376, Note_off_c, 0, 62, 65
1, 100446, Control_c, 0, 64, 67
1, 100446, Control_c, 1, 64, 67
1, 100464, Control_c, 1, 64, 26
1, 100464, Control_c, 0, 64, 26
1, 100483, Note_on_c, 0, 64, 69
1, 100519, Note_off_c, 0, 64, 69
1, 100519, Note_on_c, 0, 40, 71
1, 100539, Control_c, 0, 64, 70
1, 100539, Control_c, 1, 64, 70
1, 100551, Note_on_c, 0, 68, 59
1, 100552, Note_off_c, 0, 40, 65
1, 100558, Control_c, 0, 64, 127
1, 100558, Control_c, 1, 64, 127
1, 100594, Note_off_c, 0, 68, 65
1, 100621, Poly_aftertouch_c, 0, 52, 0
1, 100655, Note_on_c, 0, 71, 65
1, 100670, Control_c, 0, 64, 93
1, 100670, Control_c, 1, 64, 93
1, 100687, Note_off_c, 0, 71, 67
1, 100688, Control_c, 0, 64, 53
1, 100688, Control_c, 1, 64, 53
1, 100709, Control_c, 1, 64, 17
1, 100709, Control_c, 0, 64, 17
1, 100727, Control_c, 0, 64, 13
1, 100727, Control_c, 1, 64, 13
1, 100732, Note_on_c, 0, 83, 78
1, 100746, Control_c, 0, 64, 26
1, 100746, Control_c, 1, 64, 26
1, 100752, Note_on_c, 0, 71, 70
1, 100765, Control_c, 0, 64, 61
1, 100765, Control_c, 1, 64, 61
1, 100783, Control_c, 1, 64, 127
1, 100783, Control_c, 0, 64, 127
1, 100790, Note_off_c, 0, 83, 62
1, 100801, Note_on_c, 0, 68, 60
1, 100809, Note_off_c, 0, 71, 60
1, 100853, Note_on_c, 0, 64, 67
1, 100855, Note_off_c, 0, 68, 61
1, 100875, Poly_aftertouch_c, 0, 63, 0
1, 100907, Note_off_c, 0, 64, 61
1, 100990, Control_c, 0, 64, 89
1, 100990, Control_c, 1, 64, 89
1, 101008, Control_c, 1, 64, 49
1, 101008, Control_c, 0, 64, 49
1, 101026, Control_c, 0, 64, 11
1, 101026, Control_c, 1, 64, 11
1, 101035, Note_on_c, 0, 57, 64
1, 101076, Note_off_c, 0, 57, 66
1, 101081, Note_on_c, 0, 33, 69
1, 101082, Control_c, 0, 64, 30
1, 101082, Control_c, 1, 64, 30
1, 101095, Note_on_c, 0, 60, 65
1, 101100, Control_c, 0, 64, 63
1, 101100, Control_c, 1, 64, 63
1, 101118, Note_off_c, 0, 33, 62
1, 101120, Control_c, 0, 64, 106
1, 101120, Control_c, 1, 64, 106
1, 101132, Note_off_c, 0, 60, 64
1, 101138, Control_c, 0, 64, 127
1, 101138, Control_c, 1, 64, 127
1, 101152, Poly_aftertouch_c, 0, 45, 0
1, 101267, Note_on_c, 0, 71, 58
1, 101297, Note_off_c, 0, 71, 61
1, 101303, Note_on_c, 0, 81, 77
1, 101307, Control_c, 0, 64, 85
1, 101307, Control_c, 1, 64, 85
1, 101326, Control_c, 1, 64, 58
1, 101326, Control_c, 0, 64, 58
1, 101344, Control_c, 0, 64, 40
1, 101344, Control_c, 1, 64, 40
1, 101354, Note_on_c, 0, 69, 43
1, 101402, Note_off_c, 0, 69, 60
1, 101407, Note_on_c, 0, 64, 47
1, 101464, Note_off_c, 0, 64, 63
1, 101471, Note_on_c, 0, 57, 58
1, 101502, Poly_aftertouch_c, 0, 60, 0
1, 101520, Note_off_c, 0, 57, 65
1, 101551, Control_c, 0, 64, 49
1, 101551, Control_c, 1, 64, 49
1, 101569, Control_c, 1, 64, 66
1, 101569, Control_c, 0, 64, 66
1, 101581, Note_on_c, 0, 69, 59
1, 101589, Control_c, 0, 64, 79
1, 101589, Control_c, 1, 64, 79
1, 101594, Note_off_c, 0, 81, 46
1, 101606, Control_c, 0, 64, 91
1, 101606, Control_c, 1, 64, 91
1, 101614, Note_on_c, 0, 57, 47
1, 101622, Note_off_c, 0, 69, 59
1, 101625, Control_c, 0, 64, 97
1, 101625, Control_c, 1, 64, 97
1, 101663, Control_c, 1, 64, 88
1, 101663, Control_c, 0, 64, 88
1, 101664, Note_on_c, 0, 76, 56
1, 101676, Note_off_c, 0, 57, 57
1, 101681, Control_c, 0, 64, 81
1, 101681, Control_c, 1, 64, 81
1, 101702, Control_c, 1, 64, 74
1, 101702, Control_c, 0, 64, 74
1, 101715, Note_off_c, 0, 76, 63
1, 101719, Control_c, 0, 64, 69
1, 101719, Control_c, 1, 64, 69
1, 101741, Note_on_c, 0, 52, 52
1, 101756, Control_c, 0, 64, 67
1, 101756, Control_c, 1, 64, 67
1, 101794, Control_c, 1, 64, 65
1, 101794, Control_c, 0, 64, 65
1, 101811, Note_on_c, 0, 81, 60
1, 101812, Control_c, 0, 64, 63
1, 101812, Control_c, 1, 64, 63
1, 101831, Control_c, 1, 64, 60
1, 101831, Control_c, 0, 64, 60
1, 101851, Control_c, 0, 64, 58
1, 101851, Control_c, 1, 64, 58
1, 101888, Control_c, 1, 64, 54
1, 101888, Control_c, 0, 64, 54
1, 101906, Control_c, 0, 64, 52
1, 101906, Control_c, 1, 64, 52
1, 101925, Control_c, 1, 64, 49
1, 101925, Control_c, 0, 64, 49
1, 101943, Control_c, 0, 64, 45
1, 101943, Control_c, 1, 64, 45
1, 101962, Control_c, 1, 64, 38
1, 101962, Control_c, 0, 64, 38
1, 101982, Control_c, 0, 64, 27
1, 101982, Control_c, 1, 64, 27
1, 101999, Control_c, 1, 64, 13
1, 101999, Control_c, 0, 64, 13
1, 102029, Note_on_c, 0, 45, 48
1, 102041, Note_off_c, 0, 52, 36
1, 102041, Note_on_c, 0, 93, 57
1, 102042, Poly_aftertouch_c, 0, 52, 0
1, 102149, Control_c, 0, 64, 9
1, 102149, Control_c, 1, 64, 9
1, 102168, Control_c, 1, 64, 22
1, 102168, Control_c, 0, 64, 22
1, 102187, Control_c, 0, 64, 44
1, 102187, Control_c, 1, 64, 44
1, 102198, Note_off_c, 0, 81, 54
1, 102205, Control_c, 0, 64, 72
1, 102205, Control_c, 1, 64, 72
1, 102214, Note_off_c, 0, 45, 61
1, 102224, Control_c, 0, 64, 95
1, 102224, Control_c, 1, 64, 95
1, 102235, Note_off_c, 0, 93, 60
1, 102243, Control_c, 0, 64, 127
1, 102243, Control_c, 1, 64, 127
1, 102673, Control_c, 1, 64, 114
1, 102673, Control_c, 0, 64, 114
1, 102692, Control_c, 0, 64, 108
1, 102692, Control_c, 1, 64, 108
1, 102730, Control_c, 1, 64, 101
1, 102730, Control_c, 0, 64, 101
1, 102748, Control_c, 0, 64, 96
1, 102748, Control_c, 1, 64, 96
1, 102768, Control_c, 1, 64, 89
1, 102768, Control_c, 0, 64, 89
1, 102787, Control_c, 0, 64, 82
1, 102787, Control_c, 1, 64, 82
1, 102805, Control_c, 1, 64, 76
1, 102805, Control_c, 0, 64, 76
1, 102824, Control_c, 0, 64, 71
1, 102824, Control_c, 1, 64, 71
1, 102843, Control_c, 1, 64, 69
1, 102843, Control_c, 0, 64, 69
1, 102918, Control_c, 0, 64, 66
1, 102918, Control_c, 1, 64, 66
1, 102935, Control_c, 1, 64, 64
1, 102935, Control_c, 0, 64, 64
1, 102955, Control_c, 0, 64, 62
1, 102955, Control_c, 1, 64, 62
1, 102973, Control_c, 1, 64, 60
1, 102973, Control_c, 0, 64, 60
1, 103048, Control_c, 0, 64, 58
1, 103048, Control_c, 1, 64, 58
1, 103085, Control_c, 1, 64, 55
1, 103085, Control_c, 0, 64, 55
1, 103124, Control_c, 0, 64, 53
1, 103124, Control_c, 1, 64, 53
1, 103141, Control_c, 1, 64, 49
1, 103141, Control_c, 0, 64, 49
1, 103161, Control_c, 0, 64, 43
1, 103161, Control_c, 1, 64, 43
1, 103179, Control_c, 1, 64, 37
1, 103179, Control_c, 0, 64, 37
1, 103198, Control_c, 0, 64, 33
1, 103198, Control_c, 1, 64, 33
1, 103404, Control_c, 1, 64, 38
1, 103404, Control_c, 0, 64, 38
1, 103422, Control_c, 0, 64, 41
1, 103422, Control_c, 1, 64, 41
1, 103442, Control_c, 1, 64, 44
1, 103442, Control_c, 0, 64, 44
1, 103460, Control_c, 0, 64, 49
1, 103460, Control_c, 1, 64, 49
1, 103478, Control_c, 1, 64, 54
1, 103478, Control_c, 0, 64, 54
1, 103499, Control_c, 0, 64, 57
1, 103499, Control_c, 1, 64, 57
1, 103553, Control_c, 1, 64, 59
1, 103553, Control_c, 0, 64, 59
1, 103592, Control_c, 0, 64, 61
1, 103592, Control_c, 1, 64, 61
1, 103628, Control_c, 1, 64, 62
1, 103628, Control_c, 0, 64, 62
1, 103666, Control_c, 0, 64, 64
1, 103666, Control_c, 1, 64, 64
1, 103684, Control_c, 1, 64, 65
1, 103684, Control_c, 0, 64, 65
1, 103703, Control_c, 0, 64, 67
1, 103703, Control_c, 1, 64, 67
1, 103722, Control_c, 1, 64, 68
1, 103722, Control_c, 0, 64, 68
1, 103797, Control_c, 0, 64, 70
1, 103797, Control_c, 1, 64, 70
1, 103834, Control_c, 1, 64, 74
1, 103834, Control_c, 0, 64, 74
1, 103837, Note_on_c, 0, 57, 27
1, 103853, Control_c, 0, 64, 77
1, 103853, Control_c, 1, 64, 77
1, 103872, Control_c, 1, 64, 82
1, 103872, Control_c, 0, 64, 82
1, 103890, Control_c, 0, 64, 89
1, 103890, Control_c, 1, 64, 89
1, 103909, Control_c, 1, 64, 100
1, 103909, Control_c, 0, 64, 100
1, 103927, Note_on_c, 0, 88, 77
1, 103929, Control_c, 0, 64, 127
1, 103929, Control_c, 1, 64, 127
1, 103941, Note_on_c, 0, 84, 61
1, 103949, Note_on_c, 0, 76, 53
1, 103968, Note_off_c, 0, 84, 57
1, 103988, Note_off_c, 0, 76, 48
1, 104169, Note_off_c, 0, 88, 60
1, 104169, Note_on_c, 0, 89, 62
1, 104236, Note_off_c, 0, 89, 64
1, 104272, Note_off_c, 0, 57, 52
1, 104281, Note_on_c, 0, 88, 69
1, 104315, Note_off_c, 0, 88, 66
1, 104319, Note_on_c, 0, 69, 42
1, 104335, Note_on_c, 0, 89, 62
1, 104392, Note_off_c, 0, 89, 59
1, 104426, Note_on_c, 0, 88, 70
1, 104437, Note_off_c, 0, 69, 59
1, 104465, Note_off_c, 0, 88, 64
1, 104502, Note_on_c, 0, 89, 61
1, 104519, Note_on_c, 0, 72, 50
1, 104544, Note_off_c, 0, 89, 64
1, 104558, Note_on_c, 0, 88, 66
1, 104594, Note_off_c, 0, 88, 63
1, 104610, Note_on_c, 0, 89, 65
1, 104661, Note_off_c, 0, 89, 58
1, 104674, Note_on_c, 0, 88, 73
1, 104695, Note_off_c, 0, 72, 53
1, 104716, Note_on_c, 0, 84, 66
1, 104823, Note_off_c, 0, 84, 55
1, 104889, Note_on_c, 0, 72, 53
1, 104974, Note_off_c, 0, 72, 58
1, 105074, Note_on_c, 0, 87, 69
1, 105079, Note_off_c, 0, 88, 64
1, 105082, Note_on_c, 0, 69, 50
1, 105144, Note_off_c, 0, 87, 60
1, 105292, Note_off_c, 0, 69, 54
1, 105293, Control_c, 0, 64, 113
1, 105293, Control_c, 1, 64, 113
1, 105314, Control_c, 1, 64, 68
1, 105314, Control_c, 0, 64, 68
1, 105331, Note_on_c, 0, 55, 61
1, 105333, Control_c, 0, 64, 36
1, 105333, Control_c, 1, 64, 36
1, 105343, Note_on_c, 0, 83, 71
1, 105351, Control_c, 0, 64, 26
1, 105351, Control_c, 1, 64, 26
1, 105354, Note_on_c, 0, 88, 59
1, 105357, Note_on_c, 0, 76, 59
1, 105388, Control_c, 0, 64, 40
1, 105388, Control_c, 1, 64, 40
1, 105394, Note_off_c, 0, 76, 64
1, 105406, Control_c, 0, 64, 66
1, 105406, Control_c, 1, 64, 66
1, 105409, Note_off_c, 0, 83, 56
1, 105425, Control_c, 0, 64, 107
1, 105425, Control_c, 1, 64, 107
1, 105444, Control_c, 1, 64, 127
1, 105444, Control_c, 0, 64, 127
1, 105508, Note_off_c, 0, 88, 63
1, 105524, Note_on_c, 0, 89, 59
1, 105572, Note_off_c, 0, 55, 60
1, 105575, Note_off_c, 0, 89, 64
1, 105607, Note_on_c, 0, 67, 52
1, 105611, Note_on_c, 0, 88, 62
1, 105668, Note_off_c, 0, 88, 62
1, 105675, Note_on_c, 0, 89, 62
1, 105703, Note_off_c, 0, 67, 61
1, 105713, Note_off_c, 0, 89, 61
1, 105743, Note_on_c, 0, 88, 63
1, 105783, Note_on_c, 0, 71, 54
1, 105799, Note_off_c, 0, 88, 62
1, 105820, Note_on_c, 0, 89, 61
1, 105862, Note_off_c, 0, 89, 60
1, 105884, Note_on_c, 0, 88, 70
1, 105923, Note_on_c, 0, 89, 70
1, 105925, Note_off_c, 0, 88, 64
1, 105979, Note_off_c, 0, 71, 36
1, 105979, Note_on_c, 0, 83, 56
1, 105989, Note_on_c, 0, 88, 74
1, 105992, Note_off_c, 0, 89, 64
1, 106072, Note_off_c, 0, 83, 57
1, 106123, Note_on_c, 0, 71, 62
1, 106229, Note_off_c, 0, 71, 59
1, 106296, Note_on_c, 0, 87, 74
1, 106301, Note_off_c, 0, 88, 67
1, 106348, Note_on_c, 0, 67, 48
1, 106393, Note_off_c, 0, 87, 62
1, 106492, Control_c, 0, 64, 110
1, 106492, Control_c, 1, 64, 110
1, 106511, Control_c, 1, 64, 63
1, 106511, Control_c, 0, 64, 63
1, 106515, Note_off_c, 0, 67, 59
1, 106531, Control_c, 0, 64, 23
1, 106531, Control_c, 1, 64, 23
1, 106539, Note_on_c, 0, 81, 66
1, 106542, Note_on_c, 0, 53, 66
1, 106543, Note_on_c, 0, 76, 68
1, 106548, Note_on_c, 0, 88, 64
1, 106567, Control_c, 0, 64, 9
1, 106567, Control_c, 1, 64, 9
1, 106572, Note_off_c, 0, 81, 57
1, 106583, Note_on_c, 0, 86, 44
1, 106584, Note_off_c, 0, 86, 127
1, 106585, Control_c, 0, 64, 23
1, 106585, Control_c, 1, 64, 23
1, 106598, Note_off_c, 0, 76, 62
1, 106606, Control_c, 0, 64, 52
1, 106606, Control_c, 1, 64, 52
1, 106623, Control_c, 1, 64, 92
1, 106623, Control_c, 0, 64, 92
1, 106625, Poly_aftertouch_c, 0, 74, 0
1, 106642, Control_c, 0, 64, 127
1, 106642, Control_c, 1, 64, 127
1, 106696, Note_off_c, 0, 88, 64
1, 106718, Note_on_c, 0, 89, 63
1, 106752, Note_off_c, 0, 53, 57
1, 106772, Note_off_c, 0, 89, 63
1, 106790, Note_on_c, 0, 65, 56
1, 106818, Note_on_c, 0, 88, 55
1, 106852, Note_off_c, 0, 88, 59
1, 106860, Note_on_c, 0, 89, 68
1, 106882, Note_off_c, 0, 65, 61
1, 106905, Note_off_c, 0, 89, 57
1, 106939, Note_on_c, 0, 88, 74
1, 106956, Note_on_c, 0, 69, 53
1, 106995, Note_off_c, 0, 88, 62
1, 107001, Note_on_c, 0, 89, 72
1, 107060, Note_on_c, 0, 88, 74
1, 107064, Note_off_c, 0, 89, 61
1, 107085, Note_off_c, 0, 69, 57
1, 107111, Note_on_c, 0, 81, 68
1, 107218, Note_off_c, 0, 81, 60
1, 107247, Note_on_c, 0, 69, 60
1, 107307, Poly_aftertouch_c, 0, 87, 0
1, 107337, Note_off_c, 0, 69, 58
1, 107381, Note_on_c, 0, 86, 75
1, 107393, Note_off_c, 0, 88, 59
1, 107426, Note_on_c, 0, 65, 58
1, 107445, Note_off_c, 0, 86, 63
1, 107647, Note_off_c, 0, 65, 58
1, 107651, Control_c, 0, 64, 67
1, 107651, Control_c, 1, 64, 67
1, 107672, Control_c, 1, 64, 29
1, 107672, Control_c, 0, 64, 29
1, 107682, Note_on_c, 0, 80, 84
1, 107687, Note_on_c, 0, 52, 64
1, 107688, Note_on_c, 0, 76, 77
1, 107695, Note_on_c, 0, 88, 61
1, 107729, Note_on_c, 0, 86, 41
1, 107747, Note_off_c, 0, 80, 62
1, 107747, Control_c, 0, 64, 20
1, 107747, Control_c, 1, 64, 20
1, 107764, Control_c, 1, 64, 48
1, 107764, Control_c, 0, 64, 48
1, 107768, Note_off_c, 0, 86, 35
1, 107785, Control_c, 0, 64, 84
1, 107785, Control_c, 1, 64, 84
1, 107794, Note_off_c, 0, 76, 53
1, 107802, Control_c, 0, 64, 127
1, 107802, Control_c, 1, 64, 127
1, 107894, Note_off_c, 0, 88, 65
1, 107904, Note_on_c, 0, 89, 55
1, 107906, Note_off_c, 0, 52, 57
1, 107936, Note_on_c, 0, 64, 54
1, 107965, Note_off_c, 0, 89, 63
1, 108008, Note_on_c, 0, 88, 63
1, 108052, Note_off_c, 0, 88, 56
1, 108058, Note_off_c, 0, 64, 61
1, 108078, Note_on_c, 0, 89, 61
1, 108109, Note_on_c, 0, 68, 54
1, 108111, Note_off_c, 0, 89, 63
1, 108135, Note_on_c, 0, 88, 59
1, 108191, Note_off_c, 0, 88, 63
1, 108207, Note_on_c, 0, 89, 72
1, 108266, Note_on_c, 0, 88, 73
1, 108271, Note_off_c, 0, 89, 61
1, 108286, Note_off_c, 0, 68, 58
1, 108317, Note_on_c, 0, 80, 70
1, 108410, Note_off_c, 0, 80, 63
1, 108436, Note_on_c, 0, 68, 59
1, 108534, Note_off_c, 0, 68, 63
1, 108615, Note_on_c, 0, 83, 77
1, 108640, Note_on_c, 0, 64, 63
1, 108642, Note_off_c, 0, 88, 46
1, 108698, Note_off_c, 0, 83, 62
1, 108708, Note_off_c, 0, 64, 56
1, 108739, Control_c, 0, 67, 117
1, 108739, Control_c, 1, 67, 117
1, 108756, Control_c, 1, 67, 112
1, 108756, Control_c, 0, 67, 112
1, 108776, Control_c, 0, 67, 107
1, 108776, Control_c, 1, 67, 107
1, 108794, Control_c, 1, 67, 102
1, 108794, Control_c, 0, 67, 102
1, 108814, Control_c, 0, 67, 97
1, 108814, Control_c, 1, 67, 97
1, 108851, Control_c, 1, 67, 93
1, 108851, Control_c, 0, 67, 93
1, 108904, Note_on_c, 0, 45, 93
1, 108906, Control_c, 0, 67, 85
1, 108906, Control_c, 1, 67, 85
1, 108926, Control_c, 1, 67, 81
1, 108926, Control_c, 0, 67, 81
1, 108945, Control_c, 0, 64, 64
1, 108945, Control_c, 1, 64, 64
1, 108982, Control_c, 1, 64, 0
1, 108982, Control_c, 0, 64, 0
1, 109033, Note_on_c, 0, 84, 69
1, 109034, Note_on_c, 0, 88, 76
1, 109040, Note_on_c, 0, 76, 60
1, 109040, Control_c, 0, 64, 19
1, 109040, Control_c, 1, 64, 19
1, 109057, Control_c, 1, 64, 64
1, 109057, Control_c, 0, 64, 64
1, 109062, Note_off_c, 0, 76, 59
1, 109076, Control_c, 0, 64, 127
1, 109076, Control_c, 1, 64, 127
1, 109105, Note_off_c, 0, 84, 60
1, 109208, Note_on_c, 0, 89, 63
1, 109209, Note_off_c, 0, 88, 60
1, 109233, Note_off_c, 0, 45, 58
1, 109256, Note_on_c, 0, 57, 53
1, 109269, Note_off_c, 0, 89, 64
1, 109314, Note_on_c, 0, 88, 53
1, 109347, Note_off_c, 0, 88, 63
1, 109360, Note_on_c, 0, 89, 64
1, 109365, Note_off_c, 0, 57, 61
1, 109430, Note_on_c, 0, 60, 67
1, 109431, Note_off_c, 0, 89, 61
1, 109433, Note_on_c, 0, 88, 78
1, 109449, Control_c, 0, 67, 77
1, 109449, Control_c, 1, 67, 77
1, 109495, Note_off_c, 0, 88, 66
1, 109503, Note_on_c, 0, 89, 61
1, 109560, Note_on_c, 0, 88, 77
1, 109569, Note_off_c, 0, 89, 63
1, 109576, Note_off_c, 0, 60, 61
1, 109592, Note_on_c, 0, 72, 74
1, 109723, Note_off_c, 0, 72, 58
1, 109727, Note_on_c, 0, 60, 67
1, 109756, Poly_aftertouch_c, 0, 66, 127
1, 109792, Poly_aftertouch_c, 0, 66, 0
1, 109822, Note_off_c, 0, 60, 61
1, 109823, Control_c, 0, 67, 71
1, 109823, Control_c, 1, 67, 71
1, 109842, Control_c, 1, 67, 65
1, 109842, Control_c, 0, 67, 65
1, 109862, Control_c, 0, 67, 61
1, 109862, Control_c, 1, 67, 61
1, 109898, Control_c, 1, 67, 57
1, 109898, Note_on_c, 0, 57, 81
1, 109898, Note_on_c, 0, 87, 82
1, 109898, Control_c, 0, 67, 57
1, 109907, Note_off_c, 0, 88, 65
1, 110013, Control_c, 0, 67, 53
1, 110013, Control_c, 1, 67, 53
1, 110027, Note_off_c, 0, 87, 64
1, 110104, Note_off_c, 0, 57, 62
1, 110112, Note_on_c, 0, 43, 92
1, 110123, Control_c, 0, 64, 118
1, 110123, Control_c, 1, 64, 118
1, 110142, Control_c, 1, 64, 60
1, 110142, Control_c, 0, 64, 60
1, 110168, Note_on_c, 0, 88, 85
1, 110170, Note_on_c, 0, 76, 76
1, 110177, Note_on_c, 0, 83, 61
1, 110178, Control_c, 0, 64, 0
1, 110178, Control_c, 1, 64, 0
1, 110208, Note_off_c, 0, 83, 58
1, 110217, Note_off_c, 0, 76, 54
1, 110217, Control_c, 0, 64, 23
1, 110217, Control_c, 1, 64, 23
1, 110234, Poly_aftertouch_c, 0, 77, 0
1, 110235, Control_c, 0, 64, 66
1, 110235, Control_c, 1, 64, 66
1, 110255, Control_c, 1, 64, 127
1, 110255, Control_c, 0, 64, 127
1, 110338, Note_off_c, 0, 88, 64
1, 110348, Control_c, 0, 67, 49
1, 110348, Control_c, 1, 67, 49
1, 110349, Note_on_c, 0, 89, 68
1, 110379, Note_off_c, 0, 43, 60
1, 110397, Note_on_c, 0, 55, 66
1, 110400, Note_off_c, 0, 89, 62
1, 110440, Note_on_c, 0, 88, 65
1, 110489, Note_off_c, 0, 88, 64
1, 110489, Note_on_c, 0, 89, 66
1, 110496, Note_off_c, 0, 55, 63
1, 110517, Control_c, 0, 67, 44
1, 110517, Control_c, 1, 67, 44
1, 110537, Note_off_c, 0, 89, 56
1, 110548, Note_on_c, 0, 59, 71
1, 110566, Note_on_c, 0, 88, 71
1, 110624, Note_off_c, 0, 88, 65
1, 110629, Note_on_c, 0, 89, 73
1, 110667, Control_c, 0, 67, 40
1, 110667, Control_c, 1, 67, 40
1, 110685, Control_c, 1, 67, 34
1, 110685, Note_on_c, 0, 88, 82
1, 110685, Control_c, 0, 67, 34
1, 110700, Note_off_c, 0, 89, 62
1, 110703, Control_c, 0, 67, 24
1, 110703, Control_c, 1, 67, 24
1, 110708, Note_off_c, 0, 59, 60
1, 110709, Note_on_c, 0, 71, 79
1, 110723, Control_c, 0, 67, 8
1, 110723, Control_c, 1, 67, 8
1, 110741, Control_c, 1, 67, 0
1, 110741, Control_c, 0, 67, 0
1, 110836, Note_off_c, 0, 71, 55
1, 110845, Note_on_c, 0, 59, 73
1, 110942, Note_off_c, 0, 59, 61
1, 111016, Note_on_c, 0, 55, 86
1, 111016, Note_on_c, 0, 87, 85
1, 111036, Note_off_c, 0, 88, 65
1, 111135, Note_off_c, 0, 87, 65
1, 111214, Note_off_c, 0, 55, 61
1, 111225, Note_on_c, 0, 41, 96
1, 111247, Control_c, 0, 64, 74
1, 111247, Control_c, 1, 64, 74
1, 111263, Note_on_c, 0, 88, 82
1, 111265, Control_c, 0, 64, 22
1, 111265, Control_c, 1, 64, 22
1, 111268, Note_on_c, 0, 81, 73
1, 111273, Note_on_c, 0, 76, 69
1, 111276, Note_on_c, 0, 77, 62
1, 111284, Control_c, 0, 64, 0
1, 111284, Control_c, 1, 64, 0
1, 111292, Note_off_c, 0, 81, 64
1, 111316, Note_off_c, 0, 77, 55
1, 111321, Note_off_c, 0, 76, 60
1, 111341, Control_c, 0, 64, 38
1, 111341, Control_c, 1, 64, 38
1, 111359, Control_c, 1, 64, 89
1, 111359, Control_c, 0, 64, 89
1, 111378, Control_c, 0, 64, 127
1, 111378, Control_c, 1, 64, 127
1, 111428, Note_off_c, 0, 88, 65
1, 111448, Note_on_c, 0, 89, 69
1, 111485, Note_off_c, 0, 41, 59
1, 111494, Note_on_c, 0, 53, 69
1, 111512, Note_off_c, 0, 89, 64
1, 111551, Note_on_c, 0, 88, 42
1, 111598, Note_off_c, 0, 53, 61
1, 111602, Note_on_c, 0, 89, 78
1, 111606, Note_off_c, 0, 88, 57
1, 111651, Note_on_c, 0, 57, 71
1, 111679, Note_off_c, 0, 89, 62
1, 111687, Note_on_c, 0, 88, 72
1, 111724, Note_off_c, 0, 88, 63
1, 111740, Note_on_c, 0, 89, 66
1, 111794, Note_on_c, 0, 88, 84
1, 111827, Note_off_c, 0, 89, 64
1, 111834, Note_on_c, 0, 71, 68
1, 111835, Note_on_c, 0, 69, 65
1, 111837, Note_off_c, 0, 57, 61
1, 111885, Note_off_c, 0, 71, 58
1, 111929, Note_off_c, 0, 69, 54
1, 111937, Note_on_c, 0, 57, 68
1, 112047, Note_off_c, 0, 57, 64
1, 112120, Note_on_c, 0, 53, 75
1, 112120, Note_on_c, 0, 86, 84
1, 112145, Note_off_c, 0, 88, 63
1, 112180, Note_off_c, 0, 86, 65
1, 112238, Poly_aftertouch_c, 0, 55, 0
1, 112323, Note_off_c, 0, 53, 59
1, 112327, Note_on_c, 0, 40, 89
1, 112351, Control_c, 0, 64, 69
1, 112351, Control_c, 1, 64, 69
1, 112365, Note_on_c, 0, 80, 86
1, 112369, Note_on_c, 0, 76, 72
1, 112369, Control_c, 0, 64, 10
1, 112369, Control_c, 1, 64, 10
1, 112370, Note_on_c, 0, 88, 79
1, 112388, Control_c, 0, 64, 0
1, 112388, Control_c, 1, 64, 0
1, 112399, Note_off_c, 0, 80, 67
1, 112423, Note_on_c, 0, 77, 19
1, 112424, Note_off_c, 0, 77, 127
1, 112445, Control_c, 0, 64, 36
1, 112445, Control_c, 1, 64, 36
1, 112463, Control_c, 1, 64, 85
1, 112463, Control_c, 0, 64, 85
1, 112466, Note_off_c, 0, 76, 57
1, 112482, Poly_aftertouch_c, 0, 77, 0
1, 112483, Control_c, 0, 64, 127
1, 112483, Control_c, 1, 64, 127
1, 112559, Note_off_c, 0, 88, 65
1, 112571, Note_off_c, 0, 40, 60
1, 112577, Note_on_c, 0, 89, 63
1, 112590, Note_on_c, 0, 52, 67
1, 112625, Note_off_c, 0, 89, 63
1, 112665, Note_on_c, 0, 88, 67
1, 112668, Note_off_c, 0, 52, 60
1, 112726, Note_off_c, 0, 88, 62
1, 112729, Note_on_c, 0, 56, 65
1, 112733, Note_on_c, 0, 89, 70
1, 112793, Note_off_c, 0, 89, 60
1, 112802, Note_on_c, 0, 88, 60
1, 112842, Note_off_c, 0, 88, 66
1, 112848, Note_on_c, 0, 89, 67
1, 112884, Note_off_c, 0, 56, 61
1, 112905, Note_on_c, 0, 68, 80
1, 112910, Note_on_c, 0, 88, 85
1, 112931, Note_off_c, 0, 89, 65
1, 113001, Note_off_c, 0, 68, 58
1, 113019, Note_on_c, 0, 56, 70
1, 113106, Note_off_c, 0, 56, 62
1, 113185, Note_on_c, 0, 83, 80
1, 113190, Note_on_c, 0, 52, 78
1, 113210, Note_off_c, 0, 88, 64
1, 113270, Note_off_c, 0, 83, 64
1, 113299, Note_off_c, 0, 52, 46
1, 113321, Note_on_c, 0, 45, 66
1, 113367, Note_on_c, 0, 48, 61
1, 113489, Note_on_c, 0, 52, 74
1, 113568, Control_c, 0, 64, 99
1, 113568, Control_c, 1, 64, 99
1, 113586, Control_c, 1, 64, 59
1, 113586, Control_c, 0, 64, 59
1, 113605, Control_c, 0, 64, 17
1, 113605, Control_c, 1, 64, 17
1, 113625, Control_c, 1, 64, 0
1, 113625, Control_c, 0, 64, 0
1, 113631, Note_on_c, 0, 60, 88
1, 113699, Control_c, 0, 64, 9
1, 113699, Control_c, 1, 64, 9
1, 113718, Control_c, 1, 64, 41
1, 113718, Control_c, 0, 64, 41
1, 113736, Control_c, 0, 64, 80
1, 113736, Control_c, 1, 64, 80
1, 113755, Control_c, 1, 64, 127
1, 113755, Control_c, 0, 64, 127
1, 113796, Note_off_c, 0, 52, 61
1, 113846, Note_on_c, 0, 53, 58
1, 113870, Note_off_c, 0, 60, 59
1, 113873, Note_on_c, 0, 72, 69
1, 113890, Note_off_c, 0, 53, 61
1, 113949, Note_off_c, 0, 72, 61
1, 113956, Note_on_c, 0, 52, 58
1, 113999, Note_off_c, 0, 52, 64
1, 114030, Note_on_c, 0, 53, 70
1, 114030, Note_on_c, 0, 76, 80
1, 114094, Note_off_c, 0, 53, 48
1, 114107, Note_on_c, 0, 52, 65
1, 114153, Note_off_c, 0, 52, 57
1, 114173, Note_on_c, 0, 88, 74
1, 114182, Note_on_c, 0, 53, 77
1, 114211, Note_off_c, 0, 76, 59
1, 114223, Control_c, 0, 64, 65
1, 114223, Control_c, 1, 64, 65
1, 114239, Note_on_c, 0, 52, 71
1, 114241, Control_c, 0, 64, 29
1, 114241, Control_c, 1, 64, 29
1, 114249, Note_off_c, 0, 53, 59
1, 114279, Control_c, 0, 64, 51
1, 114279, Control_c, 1, 64, 51
1, 114299, Control_c, 1, 64, 96
1, 114299, Control_c, 0, 64, 96
1, 114312, Note_off_c, 0, 52, 60
1, 114314, Note_on_c, 0, 53, 67
1, 114315, Control_c, 0, 64, 127
1, 114315, Control_c, 1, 64, 127
1, 114334, Note_off_c, 0, 88, 62
1, 114338, Note_on_c, 0, 76, 81
1, 114381, Note_on_c, 0, 52, 68
1, 114395, Note_off_c, 0, 53, 57
1, 114401, Note_off_c, 0, 76, 64
1, 114484, Note_on_c, 0, 72, 84
1, 114505, Note_on_c, 0, 51, 72
1, 114551, Note_off_c, 0, 52, 60
1, 114568, Note_off_c, 0, 45, 56
1, 114577, Note_off_c, 0, 48, 52
1, 114606, Note_off_c, 0, 51, 61
1, 114708, Note_on_c, 0, 43, 58
1, 114709, Note_on_c, 0, 59, 87
1, 114709, Control_c, 0, 64, 69
1, 114709, Control_c, 1, 64, 69
1, 114710, Note_on_c, 0, 52, 71
1, 114724, Note_on_c, 0, 47, 53
1, 114726, Control_c, 0, 64, 9
1, 114726, Control_c, 1, 64, 9
1, 114730, Note_off_c, 0, 72, 52
1, 114748, Control_c, 0, 64, 0
1, 114748, Control_c, 1, 64, 0
1, 114803, Control_c, 1, 64, 24
1, 114803, Control_c, 0, 64, 24
1, 114822, Control_c, 0, 64, 69
1, 114822, Control_c, 1, 64, 69
1, 114840, Control_c, 1, 64, 127
1, 114840, Control_c, 0, 64, 127
1, 114847, Note_off_c, 0, 52, 59
1, 114891, Note_off_c, 0, 59, 59
1, 114898, Note_on_c, 0, 53, 67
1, 114915, Note_on_c, 0, 71, 73
1, 114976, Note_off_c, 0, 71, 64
1, 114981, Note_off_c, 0, 53, 59
1, 114987, Note_on_c, 0, 52, 65
1, 115026, Note_off_c, 0, 52, 62
1, 115066, Note_on_c, 0, 76, 81
1, 115070, Note_on_c, 0, 53, 72
1, 115144, Note_on_c, 0, 52, 67
1, 115147, Note_off_c, 0, 53, 59
1, 115180, Note_off_c, 0, 52, 61
1, 115205, Note_on_c, 0, 53, 72
1, 115216, Note_on_c, 0, 88, 81
1, 115235, Control_c, 0, 64, 98
1, 115235, Control_c, 1, 64, 98
1, 115253, Control_c, 1, 64, 47
1, 115253, Control_c, 0, 64, 47
1, 115254, Note_off_c, 0, 76, 49
1, 115268, Note_on_c, 0, 52, 74
1, 115272, Control_c, 0, 64, 0
1, 115272, Control_c, 1, 64, 0
1, 115295, Note_off_c, 0, 53, 59
1, 115327, Control_c, 0, 64, 32
1, 115327, Control_c, 1, 64, 32
1, 115347, Control_c, 1, 64, 83
1, 115347, Control_c, 0, 64, 83
1, 115365, Control_c, 0, 64, 127
1, 115365, Control_c, 1, 64, 127
1, 115384, Note_on_c, 0, 76, 76
1, 115393, Note_off_c, 0, 88, 64
1, 115449, Note_off_c, 0, 76, 64
1, 115542, Note_on_c, 0, 71, 79
1, 115553, Note_on_c, 0, 51, 64
1, 115593, Note_off_c, 0, 52, 57
1, 115613, Note_off_c, 0, 43, 58
1, 115634, Note_off_c, 0, 51, 62
1, 115643, Note_off_c, 0, 47, 61
1, 115739, Control_c, 0, 64, 105
1, 115739, Control_c, 1, 64, 105
1, 115748, Note_on_c, 0, 57, 83
1, 115749, Note_on_c, 0, 52, 65
1, 115750, Note_on_c, 0, 41, 59
1, 115757, Note_on_c, 0, 45, 58
1, 115758, Control_c, 0, 64, 53
1, 115758, Control_c, 1, 64, 53
1, 115774, Note_off_c, 0, 71, 54
1, 115781, Control_c, 0, 64, 0
1, 115781, Control_c, 1, 64, 0
1, 115834, Control_c, 1, 64, 14
1, 115834, Control_c, 0, 64, 14
1, 115851, Control_c, 0, 64, 54
1, 115851, Control_c, 1, 64, 54
1, 115865, Note_off_c, 0, 52, 56
1, 115870, Control_c, 0, 64, 113
1, 115870, Control_c, 1, 64, 113
1, 115888, Control_c, 1, 64, 127
1, 115888, Control_c, 0, 64, 127
1, 115904, Note_off_c, 0, 57, 62
1, 115937, Note_on_c, 0, 69, 76
1, 115938, Note_on_c, 0, 53, 63
1, 115998, Note_off_c, 0, 69, 61
1, 116010, Note_off_c, 0, 53, 55
1, 116021, Note_on_c, 0, 52, 58
1, 116064, Note_off_c, 0, 52, 61
1, 116094, Note_on_c, 0, 53, 64
1, 116112, Note_on_c, 0, 76, 70
1, 116178, Note_off_c, 0, 53, 54
1, 116188, Note_on_c, 0, 52, 62
1, 116221, Note_off_c, 0, 52, 63
1, 116248, Note_on_c, 0, 88, 74
1, 116256, Note_on_c, 0, 53, 68
1, 116261, Note_off_c, 0, 76, 54
1, 116263, Control_c, 0, 64, 72
1, 116263, Control_c, 1, 64, 72
1, 116282, Control_c, 1, 64, 42
1, 116282, Control_c, 0, 64, 42
1, 116319, Control_c, 0, 64, 60
1, 116319, Control_c, 1, 64, 60
1, 116332, Note_off_c, 0, 53, 53
1, 116339, Control_c, 0, 64, 92
1, 116339, Control_c, 1, 64, 92
1, 116357, Control_c, 1, 64, 127
1, 116357, Control_c, 0, 64, 127
1, 116358, Note_on_c, 0, 52, 58
1, 116396, Note_off_c, 0, 88, 63
1, 116411, Note_on_c, 0, 76, 71
1, 116472, Note_off_c, 0, 76, 61
1, 116582, Note_on_c, 0, 69, 72
1, 116593, Note_on_c, 0, 50, 54
1, 116594, Note_off_c, 0, 52, 37
1, 116610, Note_off_c, 0, 41, 57
1, 116652, Note_off_c, 0, 50, 60
1, 116728, Note_off_c, 0, 45, 39
1, 116749, Note_on_c, 0, 40, 62
1, 116770, Control_c, 0, 64, 64
1, 116770, Control_c, 1, 64, 64
1, 116798, Note_on_c, 0, 56, 78
1, 116805, Control_c, 0, 64, 0
1, 116805, Control_c, 1, 64, 0
1, 116862, Control_c, 1, 64, 32
1, 116862, Control_c, 0, 64, 32
1, 116872, Note_off_c, 0, 40, 56
1, 116880, Control_c, 0, 64, 78
1, 116880, Control_c, 1, 64, 78
1, 116900, Control_c, 1, 64, 127
1, 116900, Control_c, 0, 64, 127
1, 116914, Note_on_c, 0, 47, 58
1, 116935, Note_off_c, 0, 56, 61
1, 116957, Note_on_c, 0, 68, 63
1, 117003, Note_off_c, 0, 69, 60
1, 117034, Note_off_c, 0, 47, 61
1, 117035, Note_off_c, 0, 68, 63
1, 117066, Note_on_c, 0, 52, 39
1, 117113, Note_off_c, 0, 52, 47
1, 117138, Note_on_c, 0, 53, 57
1, 117144, Note_on_c, 0, 76, 70
1, 117204, Note_off_c, 0, 53, 57
1, 117219, Note_on_c, 0, 52, 59
1, 117272, Note_off_c, 0, 52, 58
1, 117290, Note_on_c, 0, 88, 62
1, 117291, Note_off_c, 0, 76, 60
1, 117333, Note_on_c, 0, 53, 60
1, 117374, Note_off_c, 0, 53, 51
1, 117413, Note_on_c, 0, 52, 61
1, 117424, Note_off_c, 0, 88, 60
1, 117459, Note_on_c, 0, 76, 60
1, 117516, Note_off_c, 0, 52, 50
1, 117582, Note_off_c, 0, 76, 48
1, 117590, Note_on_c, 0, 40, 63
1, 117618, Note_on_c, 0, 71, 67
1, 117646, Note_off_c, 0, 40, 60
1, 117854, Control_c, 0, 64, 91
1, 117854, Control_c, 1, 64, 91
1, 117861, Note_off_c, 0, 71, 60
1, 117873, Control_c, 0, 64, 44
1, 117873, Control_c, 1, 64, 44
1, 117882, Note_on_c, 0, 72, 70
1, 117882, Note_on_c, 0, 57, 64
1, 117885, Note_on_c, 0, 60, 62
1, 117892, Control_c, 0, 64, 0
1, 117892, Control_c, 1, 64, 0
1, 117907, Note_on_c, 0, 64, 50
1, 117985, Control_c, 0, 64, 34
1, 117985, Control_c, 1, 64, 34
1, 118004, Control_c, 1, 64, 76
1, 118004, Control_c, 0, 64, 76
1, 118008, Note_off_c, 0, 64, 62
1, 118023, Control_c, 0, 64, 127
1, 118023, Control_c, 1, 64, 127
1, 118069, Note_off_c, 0, 72, 59
1, 118069, Note_on_c, 0, 65, 64
1, 118078, Note_on_c, 0, 84, 64
1, 118111, Note_off_c, 0, 65, 59
1, 118154, Note_on_c, 0, 64, 65
1, 118158, Note_off_c, 0, 84, 62
1, 118197, Note_off_c, 0, 64, 59
1, 118240, Note_on_c, 0, 65, 63
1, 118253, Note_on_c, 0, 88, 71
1, 118292, Note_off_c, 0, 65, 60
1, 118321, Note_on_c, 0, 64, 59
1, 118360, Note_off_c, 0, 64, 63
1, 118379, Control_c, 0, 64, 78
1, 118379, Control_c, 1, 64, 78
1, 118387, Note_on_c, 0, 65, 70
1, 118397, Control_c, 0, 64, 41
1, 118397, Control_c, 1, 64, 41
1, 118403, Note_on_c, 0, 100, 80
1, 118416, Control_c, 0, 64, 21
1, 118416, Control_c, 1, 64, 21
1, 118426, Note_off_c, 0, 65, 59
1, 118433, Control_c, 0, 64, 30
1, 118433, Control_c, 1, 64, 30
1, 118440, Note_off_c, 0, 88, 37
1, 118453, Control_c, 0, 64, 59
1, 118453, Control_c, 1, 64, 59
1, 118455, Note_on_c, 0, 64, 67
1, 118472, Control_c, 0, 64, 127
1, 118472, Control_c, 1, 64, 127
1, 118527, Control_c, 1, 67, 8
1, 118527, Control_c, 0, 67, 8
1, 118555, Note_off_c, 0, 100, 61
1, 118565, Control_c, 0, 67, 15
1, 118565, Control_c, 1, 67, 15
1, 118571, Note_on_c, 0, 88, 68
1, 118584, Control_c, 0, 67, 22
1, 118584, Control_c, 1, 67, 22
1, 118602, Control_c, 1, 67, 29
1, 118602, Control_c, 0, 67, 29
1, 118621, Control_c, 0, 67, 34
1, 118621, Control_c, 1, 67, 34
1, 118640, Control_c, 1, 67, 39
1, 118640, Control_c, 0, 67, 39
1, 118646, Note_off_c, 0, 88, 63
1, 118658, Control_c, 0, 67, 43
1, 118658, Control_c, 1, 67, 43
1, 118697, Control_c, 1, 67, 50
1, 118697, Control_c, 0, 67, 50
1, 118743, Note_on_c, 0, 63, 59
1, 118743, Note_on_c, 0, 84, 56
1, 118781, Note_off_c, 0, 64, 54
1, 118803, Note_off_c, 0, 57, 60
1, 118815, Note_off_c, 0, 63, 61
1, 118819, Note_off_c, 0, 60, 47
1, 118921, Control_c, 0, 64, 104
1, 118921, Control_c, 1, 64, 104
1, 118942, Control_c, 1, 64, 61
1, 118942, Control_c, 0, 64, 61
1, 118944, Note_on_c, 0, 59, 50
1, 118950, Note_off_c, 0, 84, 56
1, 118953, Note_on_c, 0, 64, 46
1, 118957, Note_on_c, 0, 71, 59
1, 118958, Note_on_c, 0, 55, 53
1, 118960, Control_c, 0, 64, 32
1, 118960, Control_c, 1, 64, 32
1, 118978, Control_c, 1, 67, 55
1, 118978, Control_c, 0, 67, 55
1, 118996, Control_c, 0, 64, 44
1, 118996, Control_c, 1, 64, 44
1, 119015, Control_c, 1, 64, 73
1, 119015, Control_c, 0, 64, 73
1, 119016, Control_c, 0, 67, 61
1, 119016, Control_c, 1, 67, 61
1, 119034, Control_c, 1, 64, 127
1, 119034, Control_c, 0, 64, 127
1, 119035, Note_off_c, 0, 64, 59
1, 119052, Control_c, 0, 67, 67
1, 119052, Control_c, 1, 67, 67
1, 119075, Note_off_c, 0, 71, 60
1, 119098, Note_on_c, 0, 65, 59
1, 119120, Note_on_c, 0, 83, 59
1, 119148, Note_off_c, 0, 65, 60
1, 119175, Note_off_c, 0, 83, 61
1, 119175, Note_on_c, 0, 64, 56
1, 119215, Note_off_c, 0, 64, 64
1, 119221, Control_c, 0, 67, 71
1, 119221, Control_c, 1, 67, 71
1, 119273, Note_on_c, 0, 88, 76
1, 119274, Note_on_c, 0, 65, 57
1, 119316, Note_off_c, 0, 65, 50
1, 119343, Note_on_c, 0, 64, 52
1, 119384, Note_off_c, 0, 64, 63
1, 119389, Control_c, 0, 64, 83
1, 119389, Control_c, 1, 64, 83
1, 119408, Control_c, 1, 64, 51
1, 119408, Control_c, 0, 64, 51
1, 119410, Note_on_c, 0, 65, 70
1, 119423, Note_on_c, 0, 100, 72
1, 119427, Control_c, 0, 64, 42
1, 119427, Control_c, 1, 64, 42
1, 119446, Control_c, 1, 64, 54
1, 119446, Control_c, 0, 64, 54
1, 119463, Control_c, 0, 64, 76
1, 119463, Control_c, 1, 64, 76
1, 119464, Note_off_c, 0, 88, 48
1, 119469, Note_off_c, 0, 65, 52
1, 119485, Control_c, 0, 64, 127
1, 119485, Control_c, 1, 64, 127
1, 119491, Note_on_c, 0, 64, 64
1, 119539, Control_c, 0, 67, 75
1, 119539, Control_c, 1, 67, 75
1, 119587, Note_off_c, 0, 100, 62
1, 119604, Note_on_c, 0, 88, 65
1, 119649, Note_off_c, 0, 88, 63
1, 119707, Control_c, 0, 67, 79
1, 119707, Control_c, 1, 67, 79
1, 119743, Note_on_c, 0, 63, 50
1, 119761, Note_on_c, 0, 83, 66
1, 119783, Control_c, 0, 67, 83
1, 119783, Control_c, 1, 67, 83
1, 119805, Note_off_c, 0, 64, 53
1, 119837, Note_off_c, 0, 55, 59
1, 119855, Note_off_c, 0, 63, 63
1, 119858, Note_off_c, 0, 59, 61
1, 119915, Control_c, 0, 67, 88
1, 119915, Control_c, 1, 67, 88
1, 119926, Note_off_c, 0, 83, 60
1, 119951, Control_c, 0, 64, 79
1, 119951, Control_c, 1, 64, 79
1, 119968, Control_c, 1, 64, 40
1, 119968, Note_on_c, 0, 69, 65
1, 119968, Control_c, 0, 64, 40
1, 119979, Note_on_c, 0, 64, 46
1, 119999, Note_on_c, 0, 57, 44
1, 119999, Note_on_c, 0, 53, 52
1, 120006, Control_c, 0, 67, 93
1, 120006, Control_c, 1, 67, 93
1, 120026, Control_c, 1, 64, 21
1, 120026, Control_c, 0, 64, 21
1, 120045, Control_c, 0, 64, 56
1, 120045, Control_c, 1, 64, 56
1, 120046, Control_c, 1, 67, 98
1, 120046, Control_c, 0, 67, 98
1, 120064, Control_c, 0, 64, 127
1, 120064, Control_c, 1, 64, 127
1, 120076, Note_off_c, 0, 69, 54
1, 120081, Control_c, 0, 67, 102
1, 120081, Control_c, 1, 67, 102
1, 120088, Note_off_c, 0, 64, 59
1, 120123, Note_on_c, 0, 81, 66
1, 120162, Note_on_c, 0, 65, 60
1, 120178, Note_off_c, 0, 81, 56
1, 120213, Control_c, 0, 67, 106
1, 120213, Control_c, 1, 67, 106
1, 120245, Note_off_c, 0, 65, 39
1, 120250, Control_c, 0, 67, 113
1, 120250, Control_c, 1, 67, 113
1, 120262, Note_on_c, 0, 64, 43
1, 120286, Control_c, 0, 67, 118
1, 120286, Control_c, 1, 67, 118
1, 120287, Note_on_c, 0, 88, 70
1, 120299, Note_off_c, 0, 64, 52
1, 120369, Poly_aftertouch_c, 0, 65, 127
1, 120393, Note_on_c, 0, 64, 67
1, 120427, Note_off_c, 0, 64, 65
1, 120437, Note_on_c, 0, 100, 75
1, 120437, Control_c, 0, 67, 125
1, 120437, Control_c, 1, 67, 125
1, 120456, Control_c, 1, 64, 76
1, 120456, Control_c, 0, 64, 76
1, 120460, Note_off_c, 0, 88, 47
1, 120463, Poly_aftertouch_c, 0, 88, 0
1, 120470, Note_on_c, 0, 65, 29
1, 120475, Control_c, 0, 64, 42
1, 120475, Control_c, 1, 64, 42
1, 120494, Control_c, 1, 64, 35
1, 120494, Control_c, 0, 64, 35
1, 120513, Control_c, 0, 64, 49
1, 120513, Control_c, 1, 64, 49
1, 120530, Note_off_c, 0, 65, 57
1, 120530, Poly_aftertouch_c, 0, 65, 0
1, 120531, Control_c, 0, 64, 78
1, 120531, Control_c, 1, 64, 78
1, 120549, Control_c, 1, 64, 127
1, 120549, Control_c, 0, 64, 127
1, 120559, Note_on_c, 0, 64, 54
1, 120580, Note_off_c, 0, 100, 61
1, 120602, Note_on_c, 0, 88, 58
1, 120646, Note_off_c, 0, 88, 65
1, 120763, Note_off_c, 0, 64, 56
1, 120768, Note_on_c, 0, 81, 66
1, 120793, Note_on_c, 0, 62, 50
1, 120809, Note_off_c, 0, 53, 58
1, 120850, Note_off_c, 0, 62, 62
1, 120914, Note_off_c, 0, 57, 39
1, 120924, Control_c, 0, 64, 80
1, 120924, Control_c, 1, 64, 80
1, 120930, Note_on_c, 0, 52, 62
1, 120942, Control_c, 0, 64, 38
1, 120942, Control_c, 1, 64, 38
1, 120962, Control_c, 1, 64, 8
1, 120962, Control_c, 0, 64, 8
1, 120985, Note_on_c, 0, 68, 68
1, 120999, Control_c, 0, 64, 32
1, 120999, Control_c, 1, 64, 32
1, 121008, Note_off_c, 0, 52, 52
1, 121018, Control_c, 0, 64, 74
1, 121018, Control_c, 1, 64, 74
1, 121036, Control_c, 1, 64, 127
1, 121036, Control_c, 0, 64, 127
1, 121057, Note_on_c, 0, 59, 60
1, 121087, Note_off_c, 0, 68, 61
1, 121121, Note_on_c, 0, 80, 62
1, 121146, Note_off_c, 0, 81, 60
1, 121158, Note_off_c, 0, 59, 58
1, 121180, Note_on_c, 0, 64, 54
1, 121187, Note_off_c, 0, 80, 63
1, 121223, Note_off_c, 0, 64, 63
1, 121269, Note_on_c, 0, 65, 53
1, 121328, Note_off_c, 0, 65, 42
1, 121328, Poly_aftertouch_c, 0, 65, 0
1, 121329, Note_on_c, 0, 86, 20
1, 121333, Note_on_c, 0, 88, 40
1, 121358, Note_on_c, 0, 64, 54
1, 121388, Note_off_c, 0, 86, 38
1, 121407, Note_off_c, 0, 64, 65
1, 121438, Note_off_c, 0, 88, 54
1, 121451, Note_on_c, 0, 65, 63
1, 121452, Note_on_c, 0, 100, 68
1, 121495, Note_off_c, 0, 65, 55
1, 121495, Poly_aftertouch_c, 0, 65, 0
1, 121543, Note_on_c, 0, 64, 54
1, 121558, Note_on_c, 0, 97, 11
1, 121612, Note_off_c, 0, 100, 61
1, 121626, Note_off_c, 0, 97, 51
1, 121645, Note_on_c, 0, 88, 63
1, 121692, Note_off_c, 0, 64, 56
1, 121715, Note_off_c, 0, 88, 56
1, 121767, Note_on_c, 0, 52, 56
1, 121816, Note_off_c, 0, 52, 61
1, 121828, Note_on_c, 0, 83, 63
1, 121904, Note_off_c, 0, 83, 61
1, 122131, Note_on_c, 0, 43, 54
1, 122216, Control_c, 0, 64, 96
1, 122216, Control_c, 1, 64, 96
1, 122235, Control_c, 1, 64, 58
1, 122235, Control_c, 0, 64, 58
1, 122241, Note_on_c, 0, 73, 80
1, 122253, Control_c, 0, 64, 31
1, 122253, Control_c, 1, 64, 31
1, 122290, Control_c, 1, 64, 36
1, 122290, Control_c, 0, 64, 36
1, 122310, Control_c, 0, 64, 61
1, 122310, Control_c, 1, 64, 61
1, 122327, Control_c, 1, 64, 101
1, 122327, Control_c, 0, 64, 101
1, 122346, Control_c, 0, 64, 127
1, 122346, Control_c, 1, 64, 127
1, 122372, Poly_aftertouch_c, 0, 81, 127
1, 122377, Note_off_c, 0, 73, 58
1, 122411, Poly_aftertouch_c, 0, 81, 0
1, 122437, Note_on_c, 0, 82, 52
1, 122493, Note_off_c, 0, 43, 55
1, 122495, Note_off_c, 0, 82, 60
1, 122526, Note_on_c, 0, 81, 65
1, 122552, Note_on_c, 0, 55, 43
1, 122601, Note_off_c, 0, 81, 57
1, 122618, Note_on_c, 0, 82, 61
1, 122625, Note_off_c, 0, 55, 59
1, 122658, Note_off_c, 0, 82, 55
1, 122703, Note_on_c, 0, 81, 57
1, 122727, Note_on_c, 0, 57, 40
1, 122740, Note_off_c, 0, 81, 66
1, 122744, Note_on_c, 0, 82, 77
1, 122819, Note_off_c, 0, 57, 61
1, 122824, Note_on_c, 0, 81, 73
1, 122826, Note_off_c, 0, 82, 63
1, 122893, Note_on_c, 0, 69, 40
1, 122913, Poly_aftertouch_c, 0, 80, 127
1, 122936, Poly_aftertouch_c, 0, 80, 0
1, 122956, Note_off_c, 0, 69, 44
1, 123004, Note_on_c, 0, 57, 56
1, 123021, Note_off_c, 0, 81, 41
1, 123091, Note_off_c, 0, 57, 60
1, 123156, Note_on_c, 0, 80, 60
1, 123202, Note_off_c, 0, 80, 60
1, 123202, Note_on_c, 0, 55, 39
1, 123339, Control_c, 0, 64, 98
1, 123339, Control_c, 1, 64, 98
1, 123353, Note_off_c, 0, 55, 60
1, 123357, Control_c, 0, 64, 52
1, 123357, Control_c, 1, 64, 52
1, 123369, Note_on_c, 0, 74, 80
1, 123374, Control_c, 0, 64, 14
1, 123374, Control_c, 1, 64, 14
1, 123384, Note_on_c, 0, 41, 66
1, 123390, Note_on_c, 0, 81, 54
1, 123413, Control_c, 0, 64, 25
1, 123413, Control_c, 1, 64, 25
1, 123432, Control_c, 1, 64, 57
1, 123432, Control_c, 0, 64, 57
1, 123451, Control_c, 0, 64, 127
1, 123451, Control_c, 1, 64, 127
1, 123455, Note_off_c, 0, 74, 57
1, 123470, Note_off_c, 0, 81, 37
1, 123507, Note_on_c, 0, 82, 56
1, 123548, Note_off_c, 0, 41, 56
1, 123565, Note_off_c, 0, 82, 61
1, 123593, Note_on_c, 0, 81, 73
1, 123597, Note_on_c, 0, 53, 56
1, 123661, Note_off_c, 0, 81, 61
1, 123665, Note_off_c, 0, 53, 57
1, 123674, Note_on_c, 0, 82, 65
1, 123745, Note_on_c, 0, 57, 49
1, 123751, Note_on_c, 0, 81, 68
1, 123796, Note_off_c, 0, 82, 58
1, 123821, Note_off_c, 0, 81, 61
1, 123824, Note_on_c, 0, 82, 61
1, 123857, Note_off_c, 0, 57, 62
1, 123892, Note_on_c, 0, 81, 71
1, 123908, Note_off_c, 0, 82, 65
1, 123911, Note_on_c, 0, 69, 57
1, 123996, Note_off_c, 0, 69, 39
1, 124028, Note_on_c, 0, 57, 54
1, 124077, Poly_aftertouch_c, 0, 61, 127
1, 124097, Poly_aftertouch_c, 0, 61, 0
1, 124098, Note_off_c, 0, 81, 61
1, 124122, Note_off_c, 0, 57, 62
1, 124153, Poly_aftertouch_c, 0, 82, 127
1, 124209, Note_on_c, 0, 53, 58
1, 124235, Note_on_c, 0, 80, 61
1, 124280, Poly_aftertouch_c, 0, 82, 0
1, 124290, Note_off_c, 0, 53, 58
1, 124343, Note_off_c, 0, 80, 59
1, 124444, Note_on_c, 0, 37, 69
1, 124480, Control_c, 0, 64, 85
1, 124480, Control_c, 1, 64, 85
1, 124491, Note_on_c, 0, 79, 81
1, 124498, Control_c, 0, 64, 44
1, 124498, Control_c, 1, 64, 44
1, 124555, Control_c, 1, 64, 25
1, 124555, Control_c, 0, 64, 25
1, 124575, Control_c, 0, 64, 64
1, 124575, Control_c, 1, 64, 64
1, 124593, Control_c, 1, 64, 127
1, 124593, Control_c, 0, 64, 127
1, 124611, Note_off_c, 0, 79, 58
1, 124636, Note_on_c, 0, 82, 63
1, 124688, Note_off_c, 0, 37, 59
1, 124711, Note_off_c, 0, 82, 60
1, 124726, Note_on_c, 0, 49, 41
1, 124752, Note_on_c, 0, 81, 56
1, 124764, Note_off_c, 0, 49, 59
1, 124796, Note_off_c, 0, 81, 61
1, 124808, Note_on_c, 0, 82, 67
1, 124865, Note_off_c, 0, 82, 56
1, 124878, Note_on_c, 0, 52, 57
1, 124885, Note_on_c, 0, 81, 73
1, 124951, Note_off_c, 0, 81, 62
1, 124963, Note_on_c, 0, 82, 70
1, 124990, Note_off_c, 0, 52, 59
1, 125020, Note_off_c, 0, 82, 57
1, 125028, Note_on_c, 0, 81, 73
1, 125046, Note_on_c, 0, 64, 52
1, 125096, Note_off_c, 0, 64, 55
1, 125165, Note_on_c, 0, 52, 57
1, 125202, Note_off_c, 0, 81, 60
1, 125243, Note_off_c, 0, 52, 60
1, 125358, Note_on_c, 0, 49, 64
1, 125361, Note_on_c, 0, 80, 58
1, 125378, Poly_aftertouch_c, 0, 82, 0
1, 125442, Note_off_c, 0, 80, 52
1, 125518, Note_off_c, 0, 49, 40
1, 125519, Poly_aftertouch_c, 0, 49, 0
1, 125604, Control_c, 0, 64, 79
1, 125604, Control_c, 1, 64, 79
1, 125608, Note_on_c, 0, 38, 49
1, 125610, Note_on_c, 0, 77, 72
1, 125624, Control_c, 0, 64, 43
1, 125624, Control_c, 1, 64, 43
1, 125641, Control_c, 1, 64, 20
1, 125641, Control_c, 0, 64, 20
1, 125650, Note_on_c, 0, 81, 42
1, 125678, Control_c, 0, 64, 33
1, 125678, Control_c, 1, 64, 33
1, 125697, Control_c, 1, 64, 63
1, 125697, Control_c, 0, 64, 63
1, 125705, Note_off_c, 0, 77, 58
1, 125713, Note_off_c, 0, 81, 56
1, 125715, Control_c, 0, 64, 127
1, 125715, Control_c, 1, 64, 127
1, 125735, Note_on_c, 0, 82, 60
1, 125810, Note_off_c, 0, 82, 61
1, 125812, Note_off_c, 0, 38, 56
1, 125840, Note_on_c, 0, 81, 62
1, 125853, Note_on_c, 0, 50, 53
1, 125901, Note_off_c, 0, 81, 58
1, 125909, Note_on_c, 0, 82, 60
1, 125941, Note_off_c, 0, 50, 61
1, 125996, Note_on_c, 0, 81, 66
1, 126017, Note_off_c, 0, 82, 38
1, 126041, Note_on_c, 0, 53, 39
1, 126063, Note_off_c, 0, 81, 60
1, 126071, Note_on_c, 0, 82, 60
1, 126142, Note_off_c, 0, 53, 60
1, 126150, Note_on_c, 0, 81, 60
1, 126153, Note_off_c, 0, 82, 63
1, 126326, Poly_aftertouch_c, 0, 65, 127
1, 126335, Note_on_c, 0, 53, 48
1, 126360, Poly_aftertouch_c, 0, 65, 0
1, 126423, Note_off_c, 0, 53, 59
1, 126554, Note_off_c, 0, 81, 57
1, 126559, Note_on_c, 0, 74, 59
1, 126571, Note_on_c, 0, 50, 53
1, 126685, Note_off_c, 0, 74, 57
1, 126801, Note_off_c, 0, 50, 50
1, 126816, Note_on_c, 0, 41, 51
1, 126895, Control_c, 0, 64, 82
1, 126895, Control_c, 1, 64, 82
1, 126914, Control_c, 1, 64, 48
1, 126914, Control_c, 0, 64, 48
1, 126924, Note_on_c, 0, 71, 79
1, 126933, Control_c, 0, 64, 24
1, 126933, Control_c, 1, 64, 24
1, 126969, Control_c, 1, 64, 29
1, 126969, Control_c, 0, 64, 29
1, 126971, Note_on_c, 0, 79, 40
1, 126989, Control_c, 0, 64, 48
1, 126989, Control_c, 1, 64, 48
1, 127008, Control_c, 1, 64, 77
1, 127008, Control_c, 0, 64, 77
1, 127026, Control_c, 0, 64, 127
1, 127026, Control_c, 1, 64, 127
1, 127027, Note_off_c, 0, 79, 47
1, 127051, Note_off_c, 0, 71, 52
1, 127089, Note_on_c, 0, 80, 55
1, 127138, Note_off_c, 0, 41, 58
1, 127140, Note_off_c, 0, 80, 51
1, 127184, Note_on_c, 0, 53, 48
1, 127186, Note_on_c, 0, 79, 49
1, 127250, Note_off_c, 0, 79, 61
1, 127256, Note_on_c, 0, 80, 59
1, 127269, Note_off_c, 0, 53, 58
1, 127317, Note_off_c, 0, 80, 52
1, 127326, Note_on_c, 0, 79, 64
1, 127359, Note_on_c, 0, 55, 43
1, 127403, Note_off_c, 0, 79, 62
1, 127409, Note_on_c, 0, 80, 66
1, 127460, Note_off_c, 0, 80, 52
1, 127463, Note_on_c, 0, 79, 68
1, 127472, Note_off_c, 0, 55, 48
1, 127495, Note_on_c, 0, 67, 56
1, 127587, Note_off_c, 0, 67, 43
1, 127603, Note_on_c, 0, 55, 45
1, 127625, Note_off_c, 0, 79, 58
1, 127718, Note_off_c, 0, 55, 60
1, 127787, Note_on_c, 0, 78, 63
1, 127810, Note_on_c, 0, 53, 52
1, 127857, Note_off_c, 0, 78, 56
1, 127905, Poly_aftertouch_c, 0, 80, 0
1, 127975, Note_off_c, 0, 53, 55
1, 127999, Control_c, 0, 64, 94
1, 127999, Control_c, 1, 64, 94
1, 128006, Note_on_c, 0, 72, 74
1, 128019, Control_c, 0, 64, 57
1, 128019, Control_c, 1, 64, 57
1, 128028, Note_on_c, 0, 40, 50
1, 128029, Note_on_c, 0, 79, 58
1, 128037, Control_c, 0, 64, 29
1, 128037, Control_c, 1, 64, 29
1, 128075, Control_c, 1, 64, 37
1, 128075, Control_c, 0, 64, 37
1, 128087, Note_off_c, 0, 72, 59
1, 128092, Control_c, 0, 64, 64
1, 128092, Control_c, 1, 64, 64
1, 128099, Note_off_c, 0, 79, 57
1, 128112, Control_c, 0, 64, 111
1, 128112, Control_c, 1, 64, 111
1, 128131, Control_c, 1, 64, 127
1, 128131, Control_c, 0, 64, 127
1, 128142, Note_on_c, 0, 80, 52
1, 128190, Note_off_c, 0, 80, 63
1, 128192, Note_off_c, 0, 40, 58
1, 128209, Note_on_c, 0, 52, 59
1, 128223, Note_on_c, 0, 79, 61
1, 128275, Note_off_c, 0, 79, 58
1, 128285, Note_off_c, 0, 52, 46
1, 128295, Note_on_c, 0, 80, 68
1, 128357, Note_off_c, 0, 80, 59
1, 128369, Note_on_c, 0, 79, 73
1, 128377, Note_on_c, 0, 55, 53
1, 128439, Note_off_c, 0, 79, 63
1, 128442, Note_on_c, 0, 80, 68
1, 128494, Note_off_c, 0, 55, 60
1, 128506, Note_on_c, 0, 79, 74
1, 128517, Note_off_c, 0, 80, 62
1, 128526, Note_on_c, 0, 67, 64
1, 128593, Note_off_c, 0, 67, 54
1, 128643, Note_on_c, 0, 55, 64
1, 128705, Note_off_c, 0, 79, 59
1, 128718, Note_off_c, 0, 55, 59
1, 128806, Note_on_c, 0, 52, 72
1, 128829, Note_on_c, 0, 78, 79
1, 128923, Note_off_c, 0, 52, 59
1, 128952, Note_off_c, 0, 78, 59
1, 129047, Note_on_c, 0, 35, 78
1, 129085, Control_c, 0, 64, 93
1, 129085, Control_c, 1, 64, 93
1, 129104, Control_c, 1, 64, 50
1, 129104, Control_c, 0, 64, 50
1, 129132, Note_on_c, 0, 77, 86
1, 129141, Control_c, 0, 64, 0
1, 129141, Control_c, 1, 64, 0
1, 129178, Control_c, 1, 64, 32
1, 129178, Control_c, 0, 64, 32
1, 129198, Control_c, 0, 64, 77
1, 129198, Control_c, 1, 64, 77
1, 129217, Control_c, 1, 64, 127
1, 129217, Control_c, 0, 64, 127
1, 129226, Note_off_c, 0, 77, 61
1, 129276, Note_on_c, 0, 80, 69
1, 129304, Note_off_c, 0, 35, 40
1, 129340, Note_off_c, 0, 80, 56
1, 129355, Note_on_c, 0, 47, 57
1, 129371, Note_on_c, 0, 79, 67
1, 129414, Note_off_c, 0, 47, 62
1, 129436, Note_off_c, 0, 79, 60
1, 129454, Note_on_c, 0, 80, 67
1, 129506, Note_on_c, 0, 50, 59
1, 129512, Note_off_c, 0, 80, 59
1, 129522, Note_on_c, 0, 79, 74
1, 129585, Note_off_c, 0, 79, 63
1, 129590, Note_on_c, 0, 80, 70
1, 129597, Note_off_c, 0, 50, 62
1, 129646, Note_on_c, 0, 62, 58
1, 129653, Note_on_c, 0, 79, 73
1, 129665, Note_off_c, 0, 80, 63
1, 129695, Note_off_c, 0, 62, 57
1, 129750, Note_on_c, 0, 50, 59
1, 129818, Note_off_c, 0, 50, 60
1, 129827, Note_off_c, 0, 79, 60
1, 129941, Note_on_c, 0, 47, 46
1, 129947, Note_on_c, 0, 78, 64
1, 130037, Note_off_c, 0, 78, 59
1, 130117, Note_off_c, 0, 47, 48
1, 130157, Note_on_c, 0, 36, 53
1, 130171, Control_c, 0, 64, 78
1, 130171, Control_c, 1, 64, 78
1, 130186, Note_on_c, 0, 76, 73
1, 130189, Control_c, 0, 64, 41
1, 130189, Control_c, 1, 64, 41
1, 130209, Control_c, 1, 64, 9
1, 130209, Control_c, 0, 64, 9
1, 130237, Note_on_c, 0, 79, 46
1, 130265, Control_c, 0, 64, 33
1, 130265, Control_c, 1, 64, 33
1, 130277, Note_off_c, 0, 76, 60
1, 130283, Control_c, 0, 64, 72
1, 130283, Control_c, 1, 64, 72
1, 130301, Control_c, 1, 64, 127
1, 130301, Control_c, 0, 64, 127
1, 130306, Note_off_c, 0, 79, 60
1, 130327, Note_on_c, 0, 80, 64
1, 130377, Note_off_c, 0, 36, 58
1, 130400, Note_off_c, 0, 80, 60
1, 130416, Note_on_c, 0, 79, 64
1, 130423, Note_on_c, 0, 48, 51
1, 130480, Note_off_c, 0, 79, 55
1, 130484, Note_off_c, 0, 48, 61
1, 130497, Note_on_c, 0, 80, 65
1, 130567, Note_off_c, 0, 80, 62
1, 130577, Note_on_c, 0, 79, 72
1, 130593, Note_on_c, 0, 52, 39
1, 130639, Note_off_c, 0, 79, 60
1, 130643, Note_on_c, 0, 80, 63
1, 130695, Note_off_c, 0, 52, 57
1, 130708, Note_on_c, 0, 79, 68
1, 130723, Note_off_c, 0, 80, 63
1, 130752, Note_on_c, 0, 64, 47
1, 130801, Note_off_c, 0, 64, 60
1, 130858, Note_on_c, 0, 52, 53
1, 130935, Note_off_c, 0, 52, 59
1, 131039, Note_on_c, 0, 72, 81
1, 131054, Note_on_c, 0, 48, 50
1, 131058, Note_off_c, 0, 79, 60
1, 131182, Note_off_c, 0, 72, 59
1, 131277, Note_off_c, 0, 48, 44
1, 131322, Note_on_c, 0, 33, 68
1, 131426, Control_c, 0, 64, 74
1, 131426, Control_c, 1, 64, 74
1, 131431, Note_on_c, 0, 75, 91
1, 131444, Control_c, 0, 64, 32
1, 131444, Control_c, 1, 64, 32
1, 131500, Control_c, 1, 64, 15
1, 131500, Control_c, 0, 64, 15
1, 131519, Control_c, 0, 64, 44
1, 131519, Control_c, 1, 64, 44
1, 131539, Control_c, 1, 64, 87
1, 131539, Control_c, 0, 64, 87
1, 131557, Control_c, 0, 64, 127
1, 131557, Control_c, 1, 64, 127
1, 131589, Note_off_c, 0, 75, 62
1, 131607, Note_on_c, 0, 80, 64
1, 131609, Note_off_c, 0, 33, 58
1, 131659, Note_on_c, 0, 45, 51
1, 131663, Poly_aftertouch_c, 0, 82, 0
1, 131690, Note_on_c, 0, 78, 51
1, 131692, Note_off_c, 0, 80, 56
1, 131716, Note_off_c, 0, 45, 61
1, 131780, Note_off_c, 0, 78, 49
1, 131780, Note_on_c, 0, 80, 60
1, 131811, Note_on_c, 0, 48, 56
1, 131851, Note_on_c, 0, 78, 63
1, 131859, Note_off_c, 0, 80, 61
1, 131909, Note_off_c, 0, 48, 59
1, 131926, Note_on_c, 0, 80, 61
1, 131929, Note_off_c, 0, 78, 62
1, 131956, Note_on_c, 0, 60, 60
1, 131990, Note_on_c, 0, 78, 68
1, 132003, Note_off_c, 0, 80, 63
1, 132007, Note_off_c, 0, 60, 58
1, 132059, Note_on_c, 0, 48, 61
1, 132098, Note_off_c, 0, 78, 61
1, 132122, Note_off_c, 0, 48, 59
1, 132258, Note_on_c, 0, 45, 43
1, 132267, Note_on_c, 0, 76, 62
1, 132303, Note_off_c, 0, 76, 63
1, 132454, Note_off_c, 0, 45, 59
1, 132492, Note_on_c, 0, 34, 68
1, 132511, Control_c, 0, 64, 95
1, 132511, Control_c, 1, 64, 95
1, 132530, Control_c, 1, 64, 54
1, 132530, Control_c, 0, 64, 54
1, 132549, Control_c, 0, 64, 14
1, 132549, Control_c, 1, 64, 14
1, 132552, Note_on_c, 0, 74, 66
1, 132566, Control_c, 0, 64, 0
1, 132566, Control_c, 1, 64, 0
1, 132604, Control_c, 1, 64, 11
1, 132604, Control_c, 0, 64, 11
1, 132623, Control_c, 0, 64, 42
1, 132623, Control_c, 1, 64, 42
1, 132625, Note_on_c, 0, 77, 14
1, 132643, Control_c, 0, 64, 95
1, 132643, Control_c, 1, 64, 95
1, 132650, Note_off_c, 0, 74, 58
1, 132661, Control_c, 0, 64, 127
1, 132661, Control_c, 1, 64, 127
1, 132668, Note_off_c, 0, 77, 41
1, 132685, Note_on_c, 0, 79, 64
1, 132729, Note_off_c, 0, 34, 59
1, 132740, Note_off_c, 0, 79, 52
1, 132762, Note_on_c, 0, 46, 48
1, 132788, Note_on_c, 0, 77, 63
1, 132817, Note_off_c, 0, 46, 64
1, 132842, Note_off_c, 0, 77, 55
1, 132854, Note_on_c, 0, 79, 65
1, 132911, Note_off_c, 0, 79, 53
1, 132932, Note_on_c, 0, 77, 69
1, 132970, Note_on_c, 0, 50, 46
1, 132987, Note_off_c, 0, 77, 57
1, 132994, Note_on_c, 0, 79, 62
1, 133049, Note_on_c, 0, 77, 66
1, 133063, Note_off_c, 0, 50, 61
1, 133065, Note_off_c, 0, 79, 61
1, 133081, Note_on_c, 0, 62, 60
1, 133155, Note_off_c, 0, 62, 56
1, 133198, Note_on_c, 0, 50, 68
1, 133260, Note_off_c, 0, 50, 63
1, 133362, Note_on_c, 0, 46, 66
1, 133366, Note_on_c, 0, 70, 82
1, 133373, Note_off_c, 0, 77, 53
1, 133479, Note_off_c, 0, 70, 62
1, 133558, Note_off_c, 0, 46, 47
1, 133599, Note_on_c, 0, 32, 73
1, 133636, Control_c, 0, 64, 65
1, 133636, Control_c, 1, 64, 65
1, 133653, Control_c, 1, 64, 17
1, 133653, Control_c, 0, 64, 17
1, 133656, Note_on_c, 0, 74, 79
1, 133671, Control_c, 0, 64, 0
1, 133671, Control_c, 1, 64, 0
1, 133709, Control_c, 1, 64, 12
1, 133709, Control_c, 0, 64, 12
1, 133712, Note_on_c, 0, 77, 50
1, 133728, Control_c, 0, 64, 48
1, 133728, Control_c, 1, 64, 48
1, 133729, Note_off_c, 0, 74, 60
1, 133746, Control_c, 0, 64, 106
1, 133746, Control_c, 1, 64, 106
1, 133765, Control_c, 1, 64, 127
1, 133765, Control_c, 0, 64, 127
1, 133784, Note_off_c, 0, 77, 58
1, 133797, Note_on_c, 0, 79, 64
1, 133814, Note_off_c, 0, 32, 60
1, 133848, Note_on_c, 0, 44, 48
1, 133855, Note_off_c, 0, 79, 52
1, 133891, Note_off_c, 0, 44, 63
1, 133891, Note_on_c, 0, 77, 61
1, 133941, Note_off_c, 0, 77, 58
1, 133957, Note_on_c, 0, 79, 59
1, 134017, Note_on_c, 0, 47, 43
1, 134029, Note_on_c, 0, 77, 63
1, 134030, Note_off_c, 0, 79, 61
1, 134088, Note_on_c, 0, 79, 63
1, 134102, Note_off_c, 0, 77, 57
1, 134159, Note_on_c, 0, 59, 61
1, 134161, Note_off_c, 0, 79, 61
1, 134161, Note_on_c, 0, 77, 60
1, 134169, Note_off_c, 0, 47, 36
1, 134230, Note_off_c, 0, 59, 55
1, 134284, Note_on_c, 0, 47, 61
1, 134349, Note_off_c, 0, 47, 62
1, 134510, Note_off_c, 0, 77, 60
1, 134517, Note_on_c, 0, 75, 63
1, 134601, Note_off_c, 0, 75, 39
1, 134760, Note_on_c, 0, 72, 66
1, 134771, Note_on_c, 0, 76, 59
1, 134774, Control_c, 0, 64, 85
1, 134774, Control_c, 1, 64, 85
1, 134780, Note_on_c, 0, 33, 54
1, 134796, Control_c, 0, 64, 53
1, 134796, Control_c, 1, 64, 53
1, 134814, Control_c, 1, 64, 35
1, 134814, Control_c, 0, 64, 35
1, 134851, Control_c, 0, 64, 46
1, 134851, Control_c, 1, 64, 46
1, 134869, Control_c, 1, 64, 71
1, 134869, Control_c, 0, 64, 71
1, 134888, Control_c, 0, 64, 127
1, 134888, Control_c, 1, 64, 127
1, 134891, Note_off_c, 0, 72, 54
1, 134929, Note_on_c, 0, 77, 56
1, 134958, Note_off_c, 0, 33, 52
1, 134964, Note_off_c, 0, 76, 31
1, 134965, Poly_aftertouch_c, 0, 76, 0
1, 134994, Note_off_c, 0, 77, 51
1, 134994, Note_on_c, 0, 45, 48
1, 135016, Note_on_c, 0, 76, 48
1, 135071, Note_off_c, 0, 45, 62
1, 135081, Note_off_c, 0, 76, 60
1, 135091, Note_on_c, 0, 77, 62
1, 135133, Note_off_c, 0, 77, 59
1, 135155, Note_on_c, 0, 48, 54
1, 135172, Note_on_c, 0, 76, 60
1, 135220, Note_off_c, 0, 76, 60
1, 135230, Note_on_c, 0, 77, 63
1, 135257, Note_off_c, 0, 48, 59
1, 135278, Note_off_c, 0, 77, 53
1, 135297, Note_on_c, 0, 76, 73
1, 135307, Note_on_c, 0, 60, 55
1, 135369, Note_off_c, 0, 60, 49
1, 135422, Note_on_c, 0, 48, 59
1, 135503, Note_off_c, 0, 48, 61
1, 135605, Note_on_c, 0, 45, 52
1, 135617, Note_on_c, 0, 69, 69
1, 135619, Note_off_c, 0, 76, 62
1, 135680, Note_off_c, 0, 69, 55
1, 135771, Note_off_c, 0, 45, 40
1, 135828, Note_on_c, 0, 29, 62
1, 135843, Control_c, 0, 64, 85
1, 135843, Control_c, 1, 64, 85
1, 135861, Control_c, 1, 64, 50
1, 135861, Control_c, 0, 64, 50
1, 135880, Control_c, 0, 64, 20
1, 135880, Control_c, 1, 64, 20
1, 135892, Note_on_c, 0, 69, 64
1, 135900, Control_c, 0, 64, 16
1, 135900, Control_c, 1, 64, 16
1, 135918, Control_c, 1, 64, 23
1, 135918, Control_c, 0, 64, 23
1, 135922, Note_on_c, 0, 74, 53
1, 135936, Control_c, 0, 64, 44
1, 135936, Control_c, 1, 64, 44
1, 135948, Note_off_c, 0, 69, 52
1, 135955, Control_c, 0, 64, 79
1, 135955, Control_c, 1, 64, 79
1, 135974, Control_c, 1, 64, 127
1, 135974, Control_c, 0, 64, 127
1, 135989, Note_off_c, 0, 74, 56
1, 136012, Note_on_c, 0, 76, 48
1, 136029, Note_off_c, 0, 29, 59
1, 136056, Note_off_c, 0, 76, 50
1, 136073, Note_on_c, 0, 41, 52
1, 136113, Note_on_c, 0, 74, 57
1, 136149, Note_off_c, 0, 41, 58
1, 136151, Note_off_c, 0, 74, 63
1, 136164, Note_on_c, 0, 76, 62
1, 136209, Note_off_c, 0, 76, 59
1, 136249, Note_on_c, 0, 74, 63
1, 136253, Note_on_c, 0, 47, 50
1, 136291, Note_off_c, 0, 74, 57
1, 136308, Note_on_c, 0, 76, 69
1, 136350, Note_off_c, 0, 47, 61
1, 136351, Note_off_c, 0, 76, 55
1, 136380, Note_on_c, 0, 74, 75
1, 136387, Note_on_c, 0, 59, 57
1, 136433, Note_off_c, 0, 59, 61
1, 136453, Note_off_c, 0, 74, 60
1, 136492, Note_on_c, 0, 47, 65
1, 136536, Note_off_c, 0, 47, 64
1, 136664, Note_on_c, 0, 41, 53
1, 136705, Note_on_c, 0, 71, 62
1, 136767, Note_off_c, 0, 71, 60
1, 136879, Note_off_c, 0, 41, 58
1, 136915, Note_on_c, 0, 28, 61
1, 136928, Control_c, 0, 64, 85
1, 136928, Control_c, 1, 64, 85
1, 136947, Control_c, 1, 64, 47
1, 136947, Control_c, 0, 64, 47
1, 136962, Poly_aftertouch_c, 0, 80, 0
1, 136965, Control_c, 0, 64, 14
1, 136965, Control_c, 1, 64, 14
1, 136983, Control_c, 1, 64, 10
1, 136983, Control_c, 0, 64, 10
1, 136987, Note_on_c, 0, 68, 73
1, 137003, Control_c, 0, 64, 18
1, 137003, Control_c, 1, 64, 18
1, 137016, Note_on_c, 0, 74, 58
1, 137022, Control_c, 0, 64, 42
1, 137022, Control_c, 1, 64, 42
1, 137041, Control_c, 1, 64, 81
1, 137041, Control_c, 0, 64, 81
1, 137059, Control_c, 0, 64, 127
1, 137059, Control_c, 1, 64, 127
1, 137062, Note_off_c, 0, 68, 61
1, 137103, Note_off_c, 0, 74, 58
1, 137106, Note_on_c, 0, 76, 57
1, 137118, Note_off_c, 0, 28, 54
1, 137173, Note_on_c, 0, 40, 51
1, 137189, Note_off_c, 0, 76, 59
1, 137215, Note_on_c, 0, 74, 56
1, 137231, Note_off_c, 0, 40, 60
1, 137263, Note_on_c, 0, 76, 61
1, 137276, Note_off_c, 0, 74, 53
1, 137348, Note_on_c, 0, 47, 51
1, 137349, Note_off_c, 0, 76, 60
1, 137355, Note_on_c, 0, 74, 61
1, 137424, Note_on_c, 0, 76, 55
1, 137425, Note_off_c, 0, 74, 60
1, 137466, Note_off_c, 0, 47, 61
1, 137489, Note_on_c, 0, 74, 70
1, 137498, Note_off_c, 0, 76, 56
1, 137504, Note_on_c, 0, 59, 52
1, 137543, Note_off_c, 0, 59, 55
1, 137560, Note_off_c, 0, 74, 61
1, 137599, Note_on_c, 0, 47, 64
1, 137664, Note_off_c, 0, 47, 62
1, 137808, Note_on_c, 0, 71, 64
1, 137824, Note_on_c, 0, 40, 47
1, 137850, Note_off_c, 0, 71, 60
1, 137869, Note_off_c, 0, 40, 59
1, 138050, Note_on_c, 0, 33, 50
1, 138071, Control_c, 0, 64, 83
1, 138071, Control_c, 1, 64, 83
1, 138089, Control_c, 1, 64, 46
1, 138089, Control_c, 0, 64, 46
1, 138104, Note_on_c, 0, 68, 70
1, 138106, Control_c, 0, 64, 11
1, 138106, Control_c, 1, 64, 11
1, 138130, Note_on_c, 0, 74, 55
1, 138165, Control_c, 0, 64, 29
1, 138165, Control_c, 1, 64, 29
1, 138178, Note_off_c, 0, 68, 61
1, 138182, Control_c, 0, 64, 67
1, 138182, Control_c, 1, 64, 67
1, 138201, Control_c, 1, 64, 127
1, 138201, Control_c, 0, 64, 127
1, 138224, Note_off_c, 0, 74, 58
1, 138228, Note_on_c, 0, 76, 59
1, 138270, Note_off_c, 0, 33, 55
1, 138317, Note_on_c, 0, 45, 47
1, 138320, Note_off_c, 0, 76, 55
1, 138345, Note_on_c, 0, 74, 57
1, 138370, Note_off_c, 0, 45, 61
1, 138402, Note_on_c, 0, 76, 62
1, 138413, Note_off_c, 0, 74, 56
1, 138496, Note_off_c, 0, 76, 59
1, 138518, Note_on_c, 0, 74, 62
1, 138525, Note_on_c, 0, 52, 20
1, 138578, Note_off_c, 0, 74, 58
1, 138611, Poly_aftertouch_c, 0, 76, 127
1, 138625, Note_off_c, 0, 52, 50
1, 138643, Poly_aftertouch_c, 0, 56, 0
1, 138650, Poly_aftertouch_c, 0, 76, 0
1, 138652, Note_on_c, 0, 74, 71
1, 138668, Note_on_c, 0, 64, 47
1, 138710, Note_off_c, 0, 74, 62
1, 138736, Note_off_c, 0, 64, 55
1, 138789, Note_on_c, 0, 52, 56
1, 138860, Note_off_c, 0, 52, 55
1, 139008, Note_on_c, 0, 71, 57
1, 139033, Note_on_c, 0, 45, 29
1, 139052, Note_off_c, 0, 71, 59
1, 139258, Note_on_c, 0, 33, 45
1, 139266, Note_off_c, 0, 45, 36
1, 139287, Control_c, 0, 64, 76
1, 139287, Control_c, 1, 64, 76
1, 139306, Control_c, 1, 64, 44
1, 139306, Control_c, 0, 64, 44
1, 139317, Note_on_c, 0, 69, 62
1, 139324, Control_c, 0, 64, 27
1, 139324, Control_c, 1, 64, 27
1, 139346, Note_on_c, 0, 72, 52
1, 139363, Control_c, 0, 64, 34
1, 139363, Control_c, 1, 64, 34
1, 139381, Control_c, 1, 64, 53
1, 139381, Control_c, 0, 64, 53
1, 139398, Note_off_c, 0, 69, 51
1, 139398, Control_c, 0, 64, 80
1, 139398, Control_c, 1, 64, 80
1, 139418, Control_c, 1, 64, 127
1, 139418, Control_c, 0, 64, 127
1, 139425, Note_off_c, 0, 72, 53
1, 139482, Note_on_c, 0, 74, 48
1, 139516, Note_off_c, 0, 33, 57
1, 139530, Note_off_c, 0, 74, 60
1, 139565, Note_on_c, 0, 45, 47
1, 139567, Note_on_c, 0, 72, 63
1, 139614, Note_off_c, 0, 72, 54
1, 139635, Note_off_c, 0, 45, 50
1, 139659, Note_on_c, 0, 74, 42
1, 139698, Note_off_c, 0, 74, 54
1, 139744, Note_on_c, 0, 72, 62
1, 139786, Note_off_c, 0, 72, 56
1, 139805, Note_on_c, 0, 74, 68
1, 139822, Note_on_c, 0, 52, 37
1, 139893, Note_off_c, 0, 74, 54
1, 139921, Note_on_c, 0, 72, 69
1, 139992, Note_off_c, 0, 52, 47
1, 140025, Note_on_c, 0, 64, 52
1, 140069, Note_off_c, 0, 64, 63
1, 140148, Control_c, 0, 67, 115
1, 140148, Control_c, 1, 67, 115
1, 140166, Control_c, 1, 67, 101
1, 140166, Control_c, 0, 67, 101
1, 140186, Control_c, 0, 67, 81
1, 140186, Control_c, 1, 67, 81
1, 140204, Control_c, 1, 67, 56
1, 140204, Control_c, 0, 67, 56
1, 140223, Control_c, 0, 67, 28
1, 140223, Control_c, 1, 67, 28
1, 140243, Control_c, 1, 67, 0
1, 140243, Control_c, 0, 67, 0
1, 140393, Note_on_c, 0, 69, 90
1, 140449, Note_off_c, 0, 72, 60
1, 140664, Note_on_c, 0, 49, 88
1, 140677, Note_on_c, 0, 57, 79
1, 140692, Control_c, 0, 64, 66
1, 140692, Control_c, 1, 64, 66
1, 140705, Note_off_c, 0, 69, 63
1, 140710, Control_c, 0, 64, 0
1, 140710, Control_c, 1, 64, 0
1, 140715, Note_on_c, 0, 67, 82
1, 140785, Control_c, 0, 64, 56
1, 140785, Control_c, 1, 64, 56
1, 140803, Control_c, 1, 64, 127
1, 140803, Control_c, 0, 64, 127
1, 140941, Note_on_c, 0, 79, 81
1, 140943, Note_off_c, 0, 57, 59
1, 140944, Note_off_c, 0, 67, 58
1, 140969, Note_on_c, 0, 58, 74
1, 141004, Note_off_c, 0, 79, 63
1, 141049, Note_off_c, 0, 58, 63
1, 141088, Note_on_c, 0, 57, 77
1, 141135, Note_on_c, 0, 88, 74
1, 141162, Note_on_c, 0, 89, 58
1, 141165, Note_on_c, 0, 58, 75
1, 141172, Note_off_c, 0, 57, 62
1, 141218, Note_off_c, 0, 58, 65
1, 141258, Note_on_c, 0, 57, 72
1, 141293, Note_on_c, 0, 100, 90
1, 141303, Note_on_c, 0, 58, 78
1, 141321, Note_off_c, 0, 88, 64
1, 141328, Note_off_c, 0, 57, 63
1, 141331, Note_off_c, 0, 89, 19
1, 141397, Note_off_c, 0, 58, 62
1, 141412, Note_on_c, 0, 57, 74
1, 141446, Note_on_c, 0, 88, 87
1, 141456, Note_off_c, 0, 100, 63
1, 141459, Note_on_c, 0, 89, 68
1, 141484, Note_off_c, 0, 89, 44
1, 141506, Note_off_c, 0, 88, 66
1, 141610, Note_on_c, 0, 81, 78
1, 141614, Note_on_c, 0, 79, 80
1, 141633, Note_on_c, 0, 56, 78
1, 141654, Note_off_c, 0, 57, 62
1, 141671, Note_off_c, 0, 81, 62
1, 141686, Note_off_c, 0, 49, 59
1, 141811, Note_off_c, 0, 79, 63
1, 141815, Note_on_c, 0, 50, 88
1, 141820, Note_on_c, 0, 57, 87
1, 141827, Note_off_c, 0, 56, 61
1, 141831, Control_c, 0, 64, 96
1, 141831, Control_c, 1, 64, 96
1, 141832, Note_on_c, 0, 65, 86
1, 141852, Control_c, 0, 64, 38
1, 141852, Control_c, 1, 64, 38
1, 141870, Control_c, 1, 64, 0
1, 141870, Control_c, 0, 64, 0
1, 141926, Control_c, 0, 64, 26
1, 141926, Control_c, 1, 64, 26
1, 141944, Control_c, 1, 64, 83
1, 141944, Control_c, 0, 64, 83
1, 141964, Control_c, 0, 64, 127
1, 141964, Control_c, 1, 64, 127
1, 141997, Note_off_c, 0, 65, 59
1, 142002, Note_on_c, 0, 77, 80
1, 142011, Note_on_c, 0, 58, 80
1, 142021, Note_off_c, 0, 57, 60
1, 142066, Note_off_c, 0, 77, 63
1, 142107, Note_off_c, 0, 58, 63
1, 142142, Note_on_c, 0, 57, 80
1, 142168, Note_on_c, 0, 86, 78
1, 142227, Note_on_c, 0, 58, 70
1, 142228, Note_off_c, 0, 57, 60
1, 142304, Note_off_c, 0, 58, 63
1, 142316, Note_on_c, 0, 57, 80
1, 142323, Note_on_c, 0, 98, 93
1, 142363, Note_off_c, 0, 86, 62
1, 142476, Note_on_c, 0, 86, 89
1, 142482, Note_off_c, 0, 98, 63
1, 142546, Note_off_c, 0, 86, 66
1, 142645, Note_on_c, 0, 77, 90
1, 142662, Note_on_c, 0, 56, 74
1, 142691, Note_off_c, 0, 57, 56
1, 142751, Note_off_c, 0, 50, 52
1, 142862, Note_off_c, 0, 77, 61
1, 142869, Note_on_c, 0, 55, 87
1, 142886, Note_on_c, 0, 64, 86
1, 142897, Note_on_c, 0, 57, 75
1, 142899, Control_c, 0, 64, 54
1, 142899, Control_c, 1, 64, 54
1, 142904, Note_off_c, 0, 56, 53
1, 142909, Note_on_c, 0, 70, 52
1, 142917, Control_c, 0, 64, 0
1, 142917, Control_c, 1, 64, 0
1, 142930, Note_off_c, 0, 57, 69
1, 142994, Control_c, 0, 64, 34
1, 142994, Control_c, 1, 64, 34
1, 143011, Control_c, 1, 64, 108
1, 143011, Control_c, 0, 64, 108
1, 143030, Control_c, 0, 64, 127
1, 143030, Control_c, 1, 64, 127
1, 143091, Note_off_c, 0, 64, 61
1, 143095, Note_on_c, 0, 76, 73
1, 143109, Note_on_c, 0, 58, 77
1, 143148, Note_off_c, 0, 70, 19
1, 143173, Note_off_c, 0, 76, 64
1, 143198, Note_off_c, 0, 58, 63
1, 143232, Note_on_c, 0, 57, 71
1, 143290, Note_on_c, 0, 85, 85
1, 143308, Note_off_c, 0, 57, 59
1, 143315, Note_on_c, 0, 58, 71
1, 143405, Note_off_c, 0, 58, 63
1, 143431, Note_on_c, 0, 57, 79
1, 143446, Note_on_c, 0, 97, 99
1, 143476, Note_off_c, 0, 85, 64
1, 143588, Note_on_c, 0, 85, 90
1, 143592, Note_off_c, 0, 97, 64
1, 143659, Note_off_c, 0, 85, 64
1, 143764, Note_off_c, 0, 55, 60
1, 143767, Note_on_c, 0, 56, 71
1, 143767, Note_on_c, 0, 76, 80
1, 143770, Note_off_c, 0, 57, 61
1, 143947, Control_c, 0, 64, 95
1, 143947, Control_c, 1, 64, 95
1, 143950, Note_off_c, 0, 76, 58
1, 143969, Note_off_c, 0, 56, 61
1, 143969, Note_on_c, 0, 53, 72
1, 143969, Control_c, 0, 64, 39
1, 143969, Control_c, 1, 64, 39
1, 143970, Poly_aftertouch_c, 0, 70, 0
1, 143973, Note_on_c, 0, 62, 75
1, 143982, Note_on_c, 0, 57, 64
1, 143987, Control_c, 0, 64, 0
1, 143987, Control_c, 1, 64, 0
1, 144042, Control_c, 1, 64, 20
1, 144042, Control_c, 0, 64, 20
1, 144050, Note_off_c, 0, 57, 57
1, 144059, Control_c, 0, 64, 69
1, 144059, Control_c, 1, 64, 69
1, 144078, Control_c, 1, 64, 127
1, 144078, Control_c, 0, 64, 127
1, 144090, Note_off_c, 0, 62, 57
1, 144129, Note_on_c, 0, 58, 64
1, 144134, Note_on_c, 0, 74, 68
1, 144178, Note_off_c, 0, 74, 60
1, 144208, Note_off_c, 0, 58, 63
1, 144238, Note_on_c, 0, 57, 65
1, 144307, Note_on_c, 0, 86, 79
1, 144312, Note_off_c, 0, 57, 56
1, 144329, Note_on_c, 0, 58, 59
1, 144383, Note_off_c, 0, 58, 64
1, 144424, Note_on_c, 0, 57, 59
1, 144469, Note_off_c, 0, 57, 62
1, 144485, Note_on_c, 0, 58, 65
1, 144493, Note_on_c, 0, 98, 71
1, 144512, Note_off_c, 0, 86, 49
1, 144534, Note_off_c, 0, 58, 64
1, 144562, Note_on_c, 0, 57, 65
1, 144590, Poly_aftertouch_c, 0, 97, 0
1, 144616, Note_off_c, 0, 98, 63
1, 144640, Note_on_c, 0, 86, 76
1, 144706, Note_off_c, 0, 86, 63
1, 144825, Note_on_c, 0, 50, 62
1, 144848, Note_on_c, 0, 74, 76
1, 144859, Note_off_c, 0, 53, 37
1, 144940, Note_off_c, 0, 50, 60
1, 144945, Note_off_c, 0, 57, 40
1, 144946, Poly_aftertouch_c, 0, 57, 0
1, 145056, Note_on_c, 0, 47, 88
1, 145069, Note_off_c, 0, 74, 58
1, 145072, Control_c, 0, 64, 66
1, 145072, Control_c, 1, 64, 66
1, 145080, Note_on_c, 0, 65, 73
1, 145089, Note_on_c, 0, 55, 67
1, 145090, Control_c, 0, 64, 16
1, 145090, Control_c, 1, 64, 16
1, 145108, Control_c, 1, 64, 0
1, 145108, Control_c, 0, 64, 0
1, 145146, Control_c, 0, 64, 35
1, 145146, Control_c, 1, 64, 35
1, 145164, Control_c, 1, 64, 83
1, 145164, Control_c, 0, 64, 83
1, 145184, Control_c, 0, 64, 127
1, 145184, Control_c, 1, 64, 127
1, 145224, Note_off_c, 0, 65, 57
1, 145231, Note_off_c, 0, 55, 52
1, 145240, Note_on_c, 0, 77, 78
1, 145264, Note_on_c, 0, 56, 73
1, 145303, Note_off_c, 0, 77, 63
1, 145335, Note_off_c, 0, 56, 61
1, 145375, Note_on_c, 0, 55, 75
1, 145407, Note_on_c, 0, 86, 88
1, 145440, Note_on_c, 0, 56, 73
1, 145465, Note_off_c, 0, 55, 59
1, 145526, Note_off_c, 0, 56, 61
1, 145542, Note_on_c, 0, 55, 81
1, 145553, Note_on_c, 0, 98, 88
1, 145578, Note_off_c, 0, 86, 62
1, 145594, Note_on_c, 0, 56, 53
1, 145632, Note_off_c, 0, 56, 64
1, 145677, Note_off_c, 0, 98, 64
1, 145692, Note_on_c, 0, 86, 85
1, 145754, Note_off_c, 0, 86, 64
1, 145856, Note_on_c, 0, 77, 76
1, 145872, Note_on_c, 0, 54, 80
1, 145890, Note_off_c, 0, 55, 60
1, 145905, Note_off_c, 0, 47, 58
1, 146027, Note_off_c, 0, 77, 58
1, 146035, Note_on_c, 0, 48, 86
1, 146041, Note_on_c, 0, 55, 80
1, 146044, Note_on_c, 0, 64, 82
1, 146044, Control_c, 0, 64, 60
1, 146044, Control_c, 1, 64, 60
1, 146045, Note_off_c, 0, 54, 66
1, 146063, Control_c, 0, 64, 0
1, 146063, Control_c, 1, 64, 0
1, 146120, Control_c, 1, 64, 39
1, 146120, Control_c, 0, 64, 39
1, 146138, Control_c, 0, 64, 127
1, 146138, Control_c, 1, 64, 127
1, 146144, Poly_aftertouch_c, 0, 70, 127
1, 146177, Note_off_c, 0, 64, 60
1, 146198, Note_on_c, 0, 56, 78
1, 146201, Note_off_c, 0, 55, 61
1, 146206, Note_on_c, 0, 76, 71
1, 146250, Poly_aftertouch_c, 0, 70, 0
1, 146258, Note_off_c, 0, 76, 62
1, 146292, Note_off_c, 0, 56, 60
1, 146322, Note_on_c, 0, 55, 77
1, 146325, Poly_aftertouch_c, 0, 74, 0
1, 146354, Note_on_c, 0, 84, 86
1, 146394, Note_on_c, 0, 56, 78
1, 146409, Note_off_c, 0, 55, 59
1, 146469, Note_off_c, 0, 56, 60
1, 146490, Note_on_c, 0, 55, 80
1, 146516, Note_on_c, 0, 96, 99
1, 146562, Note_off_c, 0, 84, 62
1, 146570, Note_on_c, 0, 94, 30
1, 146571, Note_off_c, 0, 94, 127
1, 146666, Note_off_c, 0, 96, 61
1, 146674, Note_on_c, 0, 84, 86
1, 146743, Note_off_c, 0, 84, 63
1, 146842, Note_on_c, 0, 76, 81
1, 146855, Note_on_c, 0, 54, 72
1, 146857, Note_off_c, 0, 55, 61
1, 147018, Note_off_c, 0, 76, 59
1, 147027, Note_off_c, 0, 48, 56
1, 147032, Note_on_c, 0, 53, 80
1, 147033, Note_on_c, 0, 55, 79
1, 147034, Note_on_c, 0, 62, 81
1, 147035, Control_c, 0, 64, 58
1, 147035, Control_c, 1, 64, 58
1, 147043, Note_off_c, 0, 54, 62
1, 147056, Control_c, 0, 64, 0
1, 147056, Control_c, 1, 64, 0
1, 147111, Control_c, 1, 64, 15
1, 147111, Control_c, 0, 64, 15
1, 147115, Note_off_c, 0, 55, 57
1, 147130, Control_c, 0, 64, 64
1, 147130, Control_c, 1, 64, 64
1, 147148, Control_c, 1, 64, 127
1, 147148, Control_c, 0, 64, 127
1, 147162, Note_off_c, 0, 62, 58
1, 147193, Note_on_c, 0, 74, 78
1, 147202, Note_on_c, 0, 56, 71
1, 147206, Poly_aftertouch_c, 0, 68, 0
1, 147256, Note_off_c, 0, 74, 63
1, 147278, Note_off_c, 0, 56, 61
1, 147328, Note_on_c, 0, 55, 67
1, 147348, Note_on_c, 0, 83, 80
1, 147379, Note_off_c, 0, 55, 62
1, 147400, Note_on_c, 0, 56, 64
1, 147517, Note_off_c, 0, 56, 61
1, 147518, Note_on_c, 0, 95, 90
1, 147519, Note_on_c, 0, 55, 77
1, 147546, Note_off_c, 0, 83, 59
1, 147642, Note_off_c, 0, 95, 64
1, 147665, Note_on_c, 0, 83, 81
1, 147728, Note_off_c, 0, 83, 64
1, 147833, Note_off_c, 0, 53, 57
1, 147835, Note_on_c, 0, 54, 65
1, 147837, Note_on_c, 0, 74, 78
1, 147854, Note_off_c, 0, 55, 42
1, 148009, Control_c, 0, 64, 86
1, 148009, Control_c, 1, 64, 86
1, 148022, Note_off_c, 0, 74, 46
1, 148026, Control_c, 0, 64, 39
1, 148026, Control_c, 1, 64, 39
1, 148040, Note_off_c, 0, 54, 63
1, 148043, Note_on_c, 0, 60, 72
1, 148044, Note_on_c, 0, 52, 72
1, 148046, Control_c, 0, 64, 0
1, 148046, Control_c, 1, 64, 0
1, 148054, Note_on_c, 0, 55, 64
1, 148103, Control_c, 0, 64, 15
1, 148103, Control_c, 1, 64, 15
1, 148118, Note_off_c, 0, 55, 56
1, 148121, Control_c, 0, 64, 63
1, 148121, Control_c, 1, 64, 63
1, 148142, Control_c, 1, 64, 127
1, 148142, Control_c, 0, 64, 127
1, 148168, Note_off_c, 0, 60, 56
1, 148199, Poly_aftertouch_c, 0, 66, 0
1, 148229, Note_on_c, 0, 72, 69
1, 148238, Note_on_c, 0, 56, 57
1, 148271, Note_off_c, 0, 72, 61
1, 148292, Note_off_c, 0, 56, 61
1, 148334, Note_on_c, 0, 55, 54
1, 148377, Note_off_c, 0, 55, 52
1, 148418, Note_on_c, 0, 83, 46
1, 148429, Note_on_c, 0, 56, 54
1, 148464, Note_on_c, 0, 84, 29
1, 148471, Note_off_c, 0, 56, 61
1, 148519, Note_on_c, 0, 55, 42
1, 148567, Note_on_c, 0, 96, 76
1, 148569, Note_off_c, 0, 83, 22
1, 148593, Note_off_c, 0, 84, 49
1, 148694, Note_on_c, 0, 94, 10
1, 148710, Note_off_c, 0, 96, 62
1, 148731, Note_on_c, 0, 84, 57
1, 148746, Note_off_c, 0, 94, 51
1, 148790, Note_off_c, 0, 84, 61
1, 148920, Note_off_c, 0, 52, 57
1, 148939, Note_on_c, 0, 48, 61
1, 148941, Note_on_c, 0, 72, 70
1, 149156, Note_off_c, 0, 55, 41
1, 149157, Poly_aftertouch_c, 0, 55, 0
1, 149170, Control_c, 0, 64, 63
1, 149170, Control_c, 1, 64, 63
1, 149180, Note_off_c, 0, 72, 59
1, 149180, Note_on_c, 0, 60, 65
1, 149182, Note_on_c, 0, 51, 72
1, 149188, Control_c, 0, 64, 11
1, 149188, Control_c, 1, 64, 11
1, 149208, Control_c, 1, 64, 0
1, 149208, Control_c, 0, 64, 0
1, 149212, Note_off_c, 0, 48, 63
1, 149220, Note_on_c, 0, 54, 59
1, 149246, Control_c, 0, 64, 37
1, 149246, Control_c, 1, 64, 37
1, 149264, Control_c, 1, 64, 92
1, 149264, Control_c, 0, 64, 92
1, 149282, Control_c, 0, 64, 127
1, 149282, Control_c, 1, 64, 127
1, 149293, Note_off_c, 0, 60, 59
1, 149323, Poly_aftertouch_c, 0, 66, 0
1, 149328, Note_off_c, 0, 54, 62
1, 149352, Note_on_c, 0, 72, 58
1, 149395, Note_off_c, 0, 72, 63
1, 149399, Note_on_c, 0, 56, 63
1, 149458, Note_off_c, 0, 56, 60
1, 149493, Note_on_c, 0, 54, 55
1, 149510, Note_on_c, 0, 81, 74
1, 149543, Note_off_c, 0, 54, 64
1, 149576, Note_on_c, 0, 56, 52
1, 149613, Note_off_c, 0, 56, 55
1, 149641, Note_on_c, 0, 54, 71
1, 149658, Control_c, 0, 64, 68
1, 149658, Control_c, 1, 64, 68
1, 149671, Note_on_c, 0, 93, 76
1, 149677, Note_off_c, 0, 81, 58
1, 149677, Control_c, 0, 64, 48
1, 149677, Control_c, 1, 64, 48
1, 149695, Control_c, 1, 64, 58
1, 149695, Control_c, 0, 64, 58
1, 149709, Note_off_c, 0, 54, 55
1, 149709, Note_on_c, 0, 56, 66
1, 149711, Control_c, 0, 64, 85
1, 149711, Control_c, 1, 64, 85
1, 149733, Control_c, 1, 64, 127
1, 149733, Control_c, 0, 64, 127
1, 149763, Note_off_c, 0, 56, 57
1, 149791, Note_off_c, 0, 93, 62
1, 149820, Note_on_c, 0, 54, 41
1, 149823, Note_on_c, 0, 81, 71
1, 149856, Note_off_c, 0, 81, 66
1, 149973, Note_off_c, 0, 54, 56
1, 149978, Note_off_c, 0, 51, 59
1, 149992, Note_on_c, 0, 72, 63
1, 149998, Note_on_c, 0, 52, 56
1, 150144, Control_c, 0, 64, 93
1, 150144, Control_c, 1, 64, 93
1, 150162, Control_c, 1, 64, 47
1, 150162, Control_c, 0, 64, 47
1, 150163, Note_off_c, 0, 72, 51
1, 150178, Note_off_c, 0, 52, 59
1, 150193, Note_on_c, 0, 50, 61
1, 150194, Note_on_c, 0, 58, 69
1, 150201, Control_c, 0, 64, 0
1, 150201, Control_c, 1, 64, 0
1, 150218, Control_c, 1, 64, 15
1, 150218, Note_on_c, 0, 53, 35
1, 150218, Control_c, 0, 64, 15
1, 150237, Control_c, 0, 64, 48
1, 150237, Control_c, 1, 64, 48
1, 150256, Control_c, 1, 64, 105
1, 150256, Control_c, 0, 64, 105
1, 150263, Note_off_c, 0, 53, 45
1, 150276, Control_c, 0, 64, 127
1, 150276, Control_c, 1, 64, 127
1, 150294, Note_off_c, 0, 58, 64
1, 150322, Note_on_c, 0, 55, 53
1, 150327, Note_on_c, 0, 70, 61
1, 150393, Note_off_c, 0, 55, 55
1, 150400, Note_off_c, 0, 70, 62
1, 150412, Note_on_c, 0, 53, 54
1, 150456, Note_off_c, 0, 53, 61
1, 150514, Note_on_c, 0, 55, 66
1, 150534, Note_on_c, 0, 82, 57
1, 150557, Note_off_c, 0, 55, 61
1, 150584, Note_on_c, 0, 53, 52
1, 150627, Note_off_c, 0, 53, 61
1, 150658, Note_off_c, 0, 82, 61
1, 150674, Note_on_c, 0, 94, 74
1, 150707, Note_on_c, 0, 55, 35
1, 150745, Note_on_c, 0, 53, 51
1, 150750, Note_off_c, 0, 55, 51
1, 150775, Note_off_c, 0, 94, 63
1, 150809, Note_on_c, 0, 82, 69
1, 150841, Note_off_c, 0, 82, 69
1, 150984, Note_on_c, 0, 46, 59
1, 151008, Note_on_c, 0, 70, 67
1, 151030, Note_off_c, 0, 50, 35
1, 151041, Note_off_c, 0, 53, 49
1, 151135, Control_c, 0, 67, 8
1, 151135, Control_c, 1, 67, 8
1, 151182, Note_off_c, 0, 46, 60
1, 151190, Control_c, 0, 64, 103
1, 151190, Control_c, 1, 64, 103
1, 151196, Note_on_c, 0, 50, 73
1, 151211, Control_c, 0, 64, 53
1, 151211, Control_c, 1, 64, 53
1, 151213, Note_off_c, 0, 70, 57
1, 151213, Note_on_c, 0, 59, 66
1, 151228, Control_c, 0, 64, 0
1, 151228, Control_c, 1, 64, 0
1, 151257, Note_on_c, 0, 53, 48
1, 151286, Control_c, 0, 64, 9
1, 151286, Control_c, 1, 64, 9
1, 151302, Note_off_c, 0, 59, 59
1, 151304, Control_c, 0, 64, 44
1, 151304, Control_c, 1, 64, 44
1, 151315, Note_off_c, 0, 53, 62
1, 151322, Control_c, 0, 64, 96
1, 151322, Control_c, 1, 64, 96
1, 151342, Control_c, 1, 64, 127
1, 151342, Control_c, 0, 64, 127
1, 151367, Note_on_c, 0, 71, 70
1, 151384, Note_on_c, 0, 55, 63
1, 151425, Note_off_c, 0, 71, 59
1, 151440, Note_off_c, 0, 55, 55
1, 151481, Note_on_c, 0, 53, 51
1, 151523, Note_off_c, 0, 53, 60
1, 151564, Note_on_c, 0, 80, 57
1, 151571, Note_on_c, 0, 55, 62
1, 151611, Note_off_c, 0, 55, 63
1, 151641, Control_c, 0, 67, 12
1, 151641, Control_c, 1, 67, 12
1, 151643, Note_on_c, 0, 53, 51
1, 151677, Note_off_c, 0, 53, 57
1, 151696, Note_off_c, 0, 80, 56
1, 151713, Note_on_c, 0, 92, 63
1, 151714, Note_on_c, 0, 55, 60
1, 151715, Control_c, 0, 67, 16
1, 151715, Control_c, 1, 67, 16
1, 151754, Note_off_c, 0, 55, 63
1, 151783, Note_on_c, 0, 53, 56
1, 151826, Note_off_c, 0, 92, 64
1, 151828, Control_c, 0, 67, 21
1, 151828, Control_c, 1, 67, 21
1, 151857, Note_on_c, 0, 80, 65
1, 151902, Note_off_c, 0, 80, 62
1, 152048, Note_off_c, 0, 53, 55
1, 152052, Note_off_c, 0, 50, 59
1, 152068, Note_on_c, 0, 51, 57
1, 152071, Control_c, 0, 67, 25
1, 152071, Control_c, 1, 67, 25
1, 152086, Note_on_c, 0, 71, 40
1, 152094, Note_on_c, 0, 69, 41
1, 152213, Note_off_c, 0, 71, 60
1, 152226, Note_off_c, 0, 69, 45
1, 152238, Note_off_c, 0, 51, 60
1, 152239, Control_c, 0, 64, 69
1, 152239, Control_c, 1, 64, 69
1, 152250, Note_on_c, 0, 57, 63
1, 152253, Note_on_c, 0, 48, 55
1, 152258, Control_c, 0, 64, 27
1, 152258, Control_c, 1, 64, 27
1, 152259, Control_c, 1, 67, 29
1, 152259, Control_c, 0, 67, 29
1, 152296, Control_c, 0, 64, 10
1, 152296, Control_c, 1, 64, 10
1, 152298, Control_c, 1, 67, 35
1, 152298, Control_c, 0, 67, 35
1, 152315, Control_c, 0, 64, 36
1, 152315, Control_c, 1, 64, 36
1, 152335, Control_c, 1, 64, 79
1, 152335, Control_c, 0, 64, 79
1, 152337, Control_c, 0, 67, 39
1, 152337, Control_c, 1, 67, 39
1, 152352, Control_c, 1, 64, 127
1, 152352, Control_c, 0, 64, 127
1, 152355, Note_off_c, 0, 57, 57
1, 152371, Control_c, 0, 67, 44
1, 152371, Control_c, 1, 67, 44
1, 152411, Poly_aftertouch_c, 0, 52, 0
1, 152412, Note_on_c, 0, 69, 60
1, 152420, Note_on_c, 0, 53, 55
1, 152462, Note_off_c, 0, 53, 55
1, 152464, Note_off_c, 0, 69, 60
1, 152508, Note_on_c, 0, 52, 38
1, 152554, Note_off_c, 0, 52, 49
1, 152587, Note_on_c, 0, 81, 74
1, 152604, Note_on_c, 0, 53, 50
1, 152632, Note_off_c, 0, 53, 58
1, 152658, Note_on_c, 0, 52, 60
1, 152700, Note_off_c, 0, 52, 63
1, 152729, Note_off_c, 0, 81, 54
1, 152747, Note_on_c, 0, 53, 53
1, 152753, Note_on_c, 0, 93, 65
1, 152783, Note_off_c, 0, 53, 55
1, 152807, Note_on_c, 0, 52, 57
1, 152821, Control_c, 0, 67, 50
1, 152821, Control_c, 1, 67, 50
1, 152858, Control_c, 1, 67, 58
1, 152858, Control_c, 0, 67, 58
1, 152863, Note_off_c, 0, 93, 63
1, 152876, Control_c, 0, 67, 62
1, 152876, Control_c, 1, 67, 62
1, 152897, Control_c, 1, 67, 66
1, 152897, Note_on_c, 0, 81, 66
1, 152897, Control_c, 0, 67, 66
1, 152928, Note_off_c, 0, 81, 65
1, 152932, Control_c, 0, 67, 74
1, 152932, Control_c, 1, 67, 74
1, 152952, Control_c, 1, 67, 78
1, 152952, Control_c, 0, 67, 78
1, 152969, Control_c, 0, 67, 83
1, 152969, Control_c, 1, 67, 83
1, 152989, Control_c, 1, 67, 87
1, 152989, Control_c, 0, 67, 87
1, 153027, Control_c, 0, 67, 93
1, 153027, Control_c, 1, 67, 93
1, 153074, Note_on_c, 0, 45, 52
1, 153088, Poly_aftertouch_c, 0, 52, 22
1, 153092, Note_on_c, 0, 69, 62
1, 153100, Control_c, 0, 67, 97
1, 153100, Control_c, 1, 67, 97
1, 153120, Note_off_c, 0, 52, 34
1, 153120, Poly_aftertouch_c, 0, 52, 0
1, 153124, Note_off_c, 0, 45, 62
1, 153174, Note_off_c, 0, 48, 36
1, 153194, Control_c, 0, 67, 102
1, 153194, Control_c, 1, 67, 102
1, 153232, Control_c, 1, 67, 107
1, 153232, Control_c, 0, 67, 107
1, 153274, Note_off_c, 0, 69, 50
1, 153287, Control_c, 0, 64, 71
1, 153287, Control_c, 1, 64, 71
1, 153289, Note_on_c, 0, 41, 62
1, 153292, Note_on_c, 0, 57, 56
1, 153304, Note_on_c, 0, 50, 50
1, 153306, Control_c, 0, 64, 30
1, 153306, Control_c, 1, 64, 30
1, 153326, Control_c, 1, 64, 0
1, 153326, Control_c, 0, 64, 0
1, 153344, Control_c, 0, 67, 111
1, 153344, Control_c, 1, 67, 111
1, 153359, Note_off_c, 0, 50, 64
1, 153362, Control_c, 0, 67, 115
1, 153362, Control_c, 1, 67, 115
1, 153382, Control_c, 1, 64, 10
1, 153382, Control_c, 0, 64, 10
1, 153383, Control_c, 0, 67, 119
1, 153383, Control_c, 1, 67, 119
1, 153401, Control_c, 1, 64, 38
1, 153401, Control_c, 0, 64, 38
1, 153421, Control_c, 0, 64, 76
1, 153421, Control_c, 1, 64, 76
1, 153422, Control_c, 1, 67, 124
1, 153422, Control_c, 0, 67, 124
1, 153424, Note_off_c, 0, 57, 55
1, 153438, Control_c, 0, 64, 127
1, 153438, Control_c, 1, 64, 127
1, 153445, Note_on_c, 0, 52, 40
1, 153465, Note_on_c, 0, 69, 59
1, 153496, Note_off_c, 0, 52, 60
1, 153496, Poly_aftertouch_c, 0, 52, 0
1, 153519, Note_on_c, 0, 50, 53
1, 153539, Note_off_c, 0, 69, 58
1, 153568, Note_off_c, 0, 50, 63
1, 153614, Note_on_c, 0, 52, 61
1, 153658, Note_off_c, 0, 52, 58
1, 153658, Poly_aftertouch_c, 0, 52, 0
1, 153666, Note_on_c, 0, 71, 33
1, 153679, Note_on_c, 0, 72, 43
1, 153701, Note_on_c, 0, 50, 44
1, 153719, Note_off_c, 0, 71, 46
1, 153729, Note_off_c, 0, 72, 44
1, 153740, Note_off_c, 0, 50, 58
1, 153776, Note_on_c, 0, 52, 59
1, 153803, Note_on_c, 0, 83, 65
1, 153831, Control_c, 0, 64, 70
1, 153831, Control_c, 1, 64, 70
1, 153833, Note_off_c, 0, 52, 56
1, 153833, Poly_aftertouch_c, 0, 52, 0
1, 153849, Control_c, 0, 64, 44
1, 153849, Control_c, 1, 64, 44
1, 153854, Note_on_c, 0, 50, 56
1, 153887, Control_c, 0, 64, 54
1, 153887, Control_c, 1, 64, 54
1, 153905, Control_c, 1, 64, 75
1, 153905, Control_c, 0, 64, 75
1, 153925, Control_c, 0, 64, 127
1, 153925, Control_c, 1, 64, 127
1, 153955, Note_off_c, 0, 83, 60
1, 153989, Note_on_c, 0, 71, 65
1, 154033, Note_off_c, 0, 71, 63
1, 154141, Note_off_c, 0, 41, 49
1, 154150, Note_on_c, 0, 69, 65
1, 154153, Note_on_c, 0, 47, 49
1, 154172, Note_off_c, 0, 50, 32
1, 154337, Control_c, 0, 64, 80
1, 154337, Control_c, 1, 64, 80
1, 154343, Note_off_c, 0, 47, 60
1, 154354, Control_c, 0, 64, 41
1, 154354, Control_c, 1, 64, 41
1, 154357, Note_on_c, 0, 56, 66
1, 154363, Note_on_c, 0, 40, 56
1, 154374, Note_on_c, 0, 50, 29
1, 154392, Control_c, 0, 64, 0
1, 154392, Control_c, 1, 64, 0
1, 154428, Note_off_c, 0, 50, 51
1, 154449, Control_c, 0, 64, 19
1, 154449, Control_c, 1, 64, 19
1, 154467, Control_c, 1, 64, 50
1, 154467, Control_c, 0, 64, 50
1, 154471, Note_off_c, 0, 56, 57
1, 154487, Control_c, 0, 64, 85
1, 154487, Control_c, 1, 64, 85
1, 154505, Control_c, 1, 64, 127
1, 154505, Control_c, 0, 64, 127
1, 154509, Note_on_c, 0, 52, 53
1, 154525, Note_on_c, 0, 68, 58
1, 154571, Note_off_c, 0, 52, 58
1, 154571, Poly_aftertouch_c, 0, 52, 0
1, 154577, Note_off_c, 0, 69, 58
1, 154601, Note_on_c, 0, 50, 49
1, 154609, Note_off_c, 0, 68, 63
1, 154640, Note_off_c, 0, 50, 58
1, 154715, Note_on_c, 0, 71, 52
1, 154728, Note_on_c, 0, 52, 25
1, 154771, Note_on_c, 0, 50, 50
1, 154778, Note_off_c, 0, 52, 45
1, 154778, Poly_aftertouch_c, 0, 52, 0
1, 154829, Note_off_c, 0, 50, 57
1, 154854, Note_off_c, 0, 71, 56
1, 154899, Note_on_c, 0, 83, 49
1, 154899, Control_c, 0, 64, 78
1, 154899, Control_c, 1, 64, 78
1, 154906, Note_on_c, 0, 52, 26
1, 154914, Control_c, 0, 64, 42
1, 154914, Control_c, 1, 64, 42
1, 154935, Control_c, 1, 64, 13
1, 154935, Control_c, 0, 64, 13
1, 154949, Note_on_c, 0, 50, 54
1, 154964, Note_off_c, 0, 52, 40
1, 154964, Poly_aftertouch_c, 0, 52, 0
1, 154972, Control_c, 0, 64, 19
1, 154972, Control_c, 1, 64, 19
1, 154991, Control_c, 1, 64, 41
1, 154991, Control_c, 0, 64, 41
1, 155011, Control_c, 0, 64, 76
1, 155011, Control_c, 1, 64, 76
1, 155029, Control_c, 1, 64, 127
1, 155029, Control_c, 0, 64, 127
1, 155030, Note_off_c, 0, 83, 56
1, 155051, Note_on_c, 0, 71, 56
1, 155126, Note_off_c, 0, 71, 54
1, 155246, Note_off_c, 0, 50, 52
1, 155253, Note_on_c, 0, 68, 49
1, 155272, Note_on_c, 0, 47, 44
1, 155273, Note_off_c, 0, 40, 46
1, 155436, Note_off_c, 0, 68, 61
1, 155440, Control_c, 0, 64, 101
1, 155440, Control_c, 1, 64, 101
1, 155447, Note_off_c, 0, 47, 58
1, 155460, Control_c, 0, 64, 59
1, 155460, Control_c, 1, 64, 59
1, 155470, Note_on_c, 0, 56, 55
1, 155481, Note_on_c, 0, 45, 44
1, 155481, Control_c, 0, 64, 23
1, 155481, Control_c, 1, 64, 23
1, 155489, Note_on_c, 0, 50, 28
1, 155497, Control_c, 0, 64, 8
1, 155497, Control_c, 1, 64, 8
1, 155532, Note_off_c, 0, 50, 56
1, 155533, Control_c, 0, 64, 18
1, 155533, Control_c, 1, 64, 18
1, 155553, Control_c, 1, 64, 41
1, 155553, Control_c, 0, 64, 41
1, 155572, Control_c, 0, 64, 76
1, 155572, Control_c, 1, 64, 76
1, 155590, Control_c, 1, 64, 127
1, 155590, Control_c, 0, 64, 127
1, 155593, Note_off_c, 0, 56, 60
1, 155657, Note_on_c, 0, 52, 33
1, 155659, Note_on_c, 0, 68, 54
1, 155705, Note_off_c, 0, 52, 47
1, 155705, Poly_aftertouch_c, 0, 52, 0
1, 155723, Note_on_c, 0, 50, 33
1, 155747, Note_off_c, 0, 68, 59
1, 155776, Note_off_c, 0, 50, 52
1, 155834, Note_on_c, 0, 52, 42
1, 155854, Note_on_c, 0, 71, 61
1, 155879, Note_off_c, 0, 52, 49
1, 155879, Poly_aftertouch_c, 0, 52, 0
1, 155917, Note_on_c, 0, 50, 40
1, 155968, Note_off_c, 0, 50, 50
1, 156005, Note_on_c, 0, 52, 47
1, 156035, Note_on_c, 0, 83, 61
1, 156042, Note_off_c, 0, 71, 31
1, 156049, Note_off_c, 0, 52, 49
1, 156049, Poly_aftertouch_c, 0, 52, 0
1, 156077, Control_c, 0, 64, 77
1, 156077, Control_c, 1, 64, 77
1, 156080, Note_on_c, 0, 50, 53
1, 156097, Control_c, 0, 64, 43
1, 156097, Control_c, 1, 64, 43
1, 156114, Control_c, 1, 64, 17
1, 156114, Control_c, 0, 64, 17
1, 156152, Control_c, 0, 64, 21
1, 156152, Control_c, 1, 64, 21
1, 156171, Control_c, 1, 64, 42
1, 156171, Control_c, 0, 64, 42
1, 156190, Control_c, 0, 64, 75
1, 156190, Control_c, 1, 64, 75
1, 156202, Note_off_c, 0, 83, 55
1, 156209, Control_c, 0, 64, 127
1, 156209, Control_c, 1, 64, 127
1, 156245, Note_on_c, 0, 71, 50
1, 156355, Note_off_c, 0, 71, 60
1, 156479, Note_on_c, 0, 68, 47
1, 156486, Note_off_c, 0, 45, 53
1, 156520, Note_on_c, 0, 47, 42
1, 156521, Note_off_c, 0, 50, 38
1, 156771, Note_off_c, 0, 47, 54
1, 156792, Note_on_c, 0, 48, 31
1, 156807, Control_c, 0, 64, 81
1, 156807, Control_c, 1, 64, 81
1, 156826, Control_c, 1, 64, 45
1, 156826, Note_on_c, 0, 45, 29
1, 156826, Control_c, 0, 64, 45
1, 156832, Note_off_c, 0, 68, 48
1, 156858, Note_on_c, 0, 57, 36
1, 156862, Control_c, 0, 64, 0
1, 156862, Control_c, 1, 64, 0
1, 156975, Control_c, 1, 64, 16
1, 156975, Control_c, 0, 64, 16
1, 156994, Control_c, 0, 64, 43
1, 156994, Control_c, 1, 64, 43
1, 157013, Control_c, 1, 64, 74
1, 157013, Control_c, 0, 64, 74
1, 157032, Control_c, 0, 64, 107
1, 157032, Control_c, 1, 64, 107
1, 157051, Control_c, 1, 64, 127
1, 157051, Control_c, 0, 64, 127
1, 157136, Note_on_c, 0, 69, 54
1, 157141, Note_off_c, 0, 57, 34
1, 157194, Note_off_c, 0, 69, 57
1, 157465, Note_on_c, 0, 81, 51
1, 157531, Note_off_c, 0, 48, 51
1, 157553, Note_off_c, 0, 45, 54
1, 158099, Note_on_c, 0, 33, 31
1, 158099, Control_c, 0, 64, 83
1, 158099, Control_c, 1, 64, 83
1, 158119, Control_c, 1, 64, 58
1, 158119, Control_c, 0, 64, 58
1, 158131, Note_on_c, 0, 93, 49
1, 158138, Control_c, 0, 64, 38
1, 158138, Control_c, 1, 64, 38
1, 158155, Control_c, 1, 64, 25
1, 158155, Control_c, 0, 64, 25
1, 158175, Control_c, 0, 64, 18
1, 158175, Control_c, 1, 64, 18
1, 158211, Control_c, 1, 64, 11
1, 158211, Control_c, 0, 64, 11
1, 158436, Control_c, 0, 64, 15
1, 158436, Control_c, 1, 64, 15
1, 158454, Control_c, 1, 64, 23
1, 158454, Control_c, 0, 64, 23
1, 158473, Control_c, 0, 64, 36
1, 158473, Control_c, 1, 64, 36
1, 158492, Control_c, 1, 64, 58
1, 158492, Control_c, 0, 64, 58
1, 158511, Control_c, 0, 64, 76
1, 158511, Control_c, 1, 64, 76
1, 158529, Control_c, 1, 64, 91
1, 158529, Control_c, 0, 64, 91
1, 158548, Control_c, 0, 64, 112
1, 158548, Control_c, 1, 64, 112
1, 158567, Control_c, 1, 64, 127
1, 158567, Control_c, 0, 64, 127
1, 158851, Note_off_c, 0, 81, 34
1, 158892, Note_off_c, 0, 33, 30
1, 159115, Note_off_c, 0, 93, 36
1, 160945, Control_c, 0, 64, 116
1, 160945, Control_c, 1, 64, 116
1, 160963, Control_c, 1, 64, 106
1, 160963, Control_c, 0, 64, 106
1, 160983, Control_c, 0, 64, 99
1, 160983, Control_c, 1, 64, 99
1, 161000, Control_c, 1, 64, 94
1, 161000, Control_c, 0, 64, 94
1, 161020, Control_c, 0, 64, 89
1, 161020, Control_c, 1, 64, 89
1, 161038, Control_c, 1, 64, 86
1, 161038, Control_c, 0, 64, 86
1, 161056, Control_c, 0, 64, 83
1, 161056, Control_c, 1, 64, 83
1, 161095, Control_c, 1, 64, 81
1, 161095, Control_c, 0, 64, 81
1, 161150, Control_c, 0, 64, 78
1, 161150, Control_c, 1, 64, 78
1, 161187, Control_c, 1, 64, 76
1, 161187, Control_c, 0, 64, 76
1, 161225, Control_c, 0, 64, 74
1, 161225, Control_c, 1, 64, 74
1, 161281, Control_c, 1, 64, 72
1, 161281, Control_c, 0, 64, 72
1, 161337, Control_c, 0, 64, 70
1, 161337, Control_c, 1, 64, 70
1, 161375, Control_c, 1, 64, 68
1, 161375, Control_c, 0, 64, 68
1, 161393, Control_c, 0, 64, 66
1, 161393, Control_c, 1, 64, 66
1, 161412, Control_c, 1, 64, 65
1, 161412, Control_c, 0, 64, 65
1, 161431, Control_c, 0, 64, 64
1, 161431, Control_c, 1, 64, 64
1, 161468, Control_c, 1, 64, 63
1, 161468, Control_c, 0, 64, 63
1, 161507, Control_c, 0, 64, 61
1, 161507, Control_c, 1, 64, 61
1, 161524, Control_c, 1, 64, 60
1, 161524, Control_c, 0, 64, 60
1, 161562, Control_c, 0, 64, 58
1, 161562, Control_c, 1, 64, 58
1, 161637, Control_c, 1, 64, 56
1, 161637, Control_c, 0, 64, 56
1, 161674, Control_c, 0, 64, 54
1, 161674, Control_c, 1, 64, 54
1, 161824, Control_c, 1, 64, 51
1, 161824, Control_c, 0, 64, 51
1, 161838, Note_on_c, 0, 52, 50
1, 161936, Control_c, 0, 64, 55
1, 161936, Control_c, 1, 64, 55
1, 161955, Control_c, 1, 64, 61
1, 161955, Control_c, 0, 64, 61
1, 161974, Control_c, 0, 64, 67
1, 161974, Control_c, 1, 64, 67
1, 161992, Control_c, 1, 64, 74
1, 161992, Control_c, 0, 64, 74
1, 162011, Control_c, 0, 64, 82
1, 162011, Control_c, 1, 64, 82
1, 162029, Control_c, 1, 64, 95
1, 162029, Control_c, 0, 64, 95
1, 162049, Control_c, 0, 64, 127
1, 162049, Control_c, 1, 64, 127
1, 162456, Note_on_c, 0, 33, 37
1, 162518, Control_c, 0, 64, 108
1, 162518, Control_c, 1, 64, 108
1, 162535, Control_c, 1, 64, 72
1, 162535, Control_c, 0, 64, 72
1, 162554, Control_c, 0, 64, 43
1, 162554, Control_c, 1, 64, 43
1, 162573, Control_c, 1, 64, 19
1, 162573, Control_c, 0, 64, 19
1, 162591, Note_on_c, 0, 57, 65
1, 162591, Control_c, 0, 64, 9
1, 162591, Control_c, 1, 64, 9
1, 162620, Note_on_c, 0, 48, 33
1, 162658, Note_off_c, 0, 52, 50
1, 162658, Poly_aftertouch_c, 0, 52, 0
1, 162665, Control_c, 0, 64, 14
1, 162665, Control_c, 1, 64, 14
1, 162684, Control_c, 1, 64, 25
1, 162684, Control_c, 0, 64, 25
1, 162704, Control_c, 0, 64, 41
1, 162704, Control_c, 1, 64, 41
1, 162722, Control_c, 1, 64, 63
1, 162722, Control_c, 0, 64, 63
1, 162741, Control_c, 0, 64, 80
1, 162741, Control_c, 1, 64, 80
1, 162761, Control_c, 1, 64, 101
1, 162761, Control_c, 0, 64, 101
1, 162778, Control_c, 0, 64, 127
1, 162778, Control_c, 1, 64, 127
1, 162852, Note_off_c, 0, 33, 54
1, 162865, Note_off_c, 0, 48, 38
1, 162903, Note_off_c, 0, 57, 62
1, 163300, Note_on_c, 0, 76, 56
1, 163387, Note_on_c, 0, 59, 68
1, 163405, Note_on_c, 0, 56, 57
1, 163545, Note_on_c, 0, 64, 62
1, 163546, Note_off_c, 0, 76, 36
1, 163584, Control_c, 0, 67, 120
1, 163584, Control_c, 1, 67, 120
1, 163873, Note_on_c, 0, 60, 69
1, 163874, Note_off_c, 0, 64, 62
1, 163882, Control_c, 0, 64, 106
1, 163882, Control_c, 1, 64, 106
1, 163896, Note_on_c, 0, 65, 55
1, 163900, Control_c, 0, 64, 65
1, 163900, Control_c, 1, 64, 65
1, 163904, Note_off_c, 0, 56, 58
1, 163921, Control_c, 0, 64, 35
1, 163921, Control_c, 1, 64, 35
1, 163939, Control_c, 1, 64, 20
1, 163939, Control_c, 0, 64, 20
1, 163944, Note_off_c, 0, 59, 53
1, 163977, Control_c, 0, 64, 25
1, 163977, Control_c, 1, 64, 25
1, 163996, Control_c, 1, 64, 44
1, 163996, Control_c, 0, 64, 44
1, 164007, Poly_aftertouch_c, 0, 57, 0
1, 164012, Control_c, 0, 64, 76
1, 164012, Control_c, 1, 64, 76
1, 164033, Control_c, 1, 64, 127
1, 164033, Control_c, 0, 64, 127
1, 164145, Control_c, 0, 67, 115
1, 164145, Control_c, 1, 67, 115
1, 164187, Note_off_c, 0, 65, 52
1, 164200, Note_on_c, 0, 53, 50
1, 164261, Note_off_c, 0, 60, 61
1, 164314, Control_c, 0, 67, 110
1, 164314, Control_c, 1, 67, 110
1, 164388, Note_on_c, 0, 64, 78
1, 164477, Note_off_c, 0, 53, 54
1, 164499, Poly_aftertouch_c, 0, 60, 127
1, 164577, Note_on_c, 0, 54, 57
1, 164603, Note_off_c, 0, 64, 62
1, 164851, Note_on_c, 0, 42, 53
1, 164871, Note_off_c, 0, 54, 58
1, 164912, Control_c, 0, 64, 99
1, 164912, Control_c, 1, 64, 99
1, 164932, Control_c, 1, 64, 60
1, 164932, Control_c, 0, 64, 60
1, 164950, Control_c, 0, 64, 31
1, 164950, Control_c, 1, 64, 31
1, 164956, Note_on_c, 0, 72, 77
1, 164969, Control_c, 0, 64, 25
1, 164969, Control_c, 1, 64, 25
1, 164980, Note_on_c, 0, 64, 45
1, 165007, Control_c, 0, 64, 41
1, 165007, Control_c, 1, 64, 41
1, 165024, Control_c, 1, 64, 70
1, 165024, Control_c, 0, 64, 70
1, 165044, Control_c, 0, 64, 127
1, 165044, Control_c, 1, 64, 127
1, 165049, Poly_aftertouch_c, 0, 60, 0
1, 165136, Control_c, 0, 67, 106
1, 165136, Control_c, 1, 67, 106
1, 165149, Note_off_c, 0, 64, 36
1, 165157, Note_off_c, 0, 72, 59
1, 165174, Control_c, 0, 67, 102
1, 165174, Control_c, 1, 67, 102
1, 165201, Note_off_c, 0, 42, 59
1, 165269, Note_on_c, 0, 43, 45
1, 165394, Note_on_c, 0, 64, 67
1, 165435, Note_on_c, 0, 60, 47
1, 165512, Note_off_c, 0, 43, 57
1, 165556, Note_on_c, 0, 31, 47
1, 165868, Control_c, 0, 64, 110
1, 165868, Control_c, 1, 64, 110
1, 165882, Note_on_c, 0, 62, 65
1, 165885, Control_c, 0, 64, 66
1, 165885, Control_c, 1, 64, 66
1, 165892, Note_off_c, 0, 60, 56
1, 165903, Note_on_c, 0, 59, 44
1, 165905, Note_on_c, 0, 44, 35
1, 165905, Control_c, 0, 64, 33
1, 165905, Control_c, 1, 64, 33
1, 165924, Control_c, 1, 64, 12
1, 165924, Control_c, 0, 64, 12
1, 165929, Note_off_c, 0, 64, 56
1, 165936, Note_off_c, 0, 31, 51
1, 165961, Control_c, 0, 64, 16
1, 165961, Control_c, 1, 64, 16
1, 165979, Control_c, 1, 64, 33
1, 165979, Control_c, 0, 64, 33
1, 165999, Control_c, 0, 64, 63
1, 165999, Control_c, 1, 64, 63
1, 166017, Control_c, 1, 64, 105
1, 166017, Control_c, 0, 64, 105
1, 166036, Control_c, 0, 64, 127
1, 166036, Control_c, 1, 64, 127
1, 166102, Note_off_c, 0, 62, 60
1, 166123, Note_on_c, 0, 32, 52
1, 166226, Note_off_c, 0, 44, 44
1, 166230, Note_off_c, 0, 32, 57
1, 166274, Note_on_c, 0, 60, 64
1, 166293, Note_on_c, 0, 57, 48
1, 166369, Note_off_c, 0, 59, 35
1, 166424, Note_on_c, 0, 33, 54
1, 166770, Note_off_c, 0, 33, 56
1, 166789, Note_on_c, 0, 35, 51
1, 166803, Control_c, 0, 64, 93
1, 166803, Control_c, 1, 64, 93
1, 166821, Control_c, 1, 64, 60
1, 166821, Control_c, 0, 64, 60
1, 166841, Control_c, 0, 64, 25
1, 166841, Control_c, 1, 64, 25
1, 166851, Note_on_c, 0, 59, 60
1, 166859, Control_c, 0, 64, 0
1, 166859, Control_c, 1, 64, 0
1, 166871, Poly_aftertouch_c, 0, 47, 127
1, 166884, Note_off_c, 0, 57, 53
1, 166884, Note_off_c, 0, 60, 57
1, 166884, Note_on_c, 0, 55, 39
1, 166972, Control_c, 0, 64, 33
1, 166972, Control_c, 1, 64, 33
1, 166990, Control_c, 1, 64, 71
1, 166990, Control_c, 0, 64, 71
1, 167008, Control_c, 0, 64, 127
1, 167008, Control_c, 1, 64, 127
1, 167017, Note_off_c, 0, 35, 61
1, 167027, Control_c, 0, 67, 106
1, 167027, Control_c, 1, 67, 106
1, 167058, Note_off_c, 0, 55, 46
1, 167058, Poly_aftertouch_c, 0, 47, 0
1, 167412, Note_on_c, 0, 83, 28
1, 167447, Note_on_c, 0, 63, 71
1, 167448, Note_on_c, 0, 81, 32
1, 167481, Note_on_c, 0, 54, 51
1, 167564, Note_off_c, 0, 59, 33
1, 167579, Note_off_c, 0, 83, 56
1, 167593, Note_off_c, 0, 81, 45
1, 167593, Poly_aftertouch_c, 0, 81, 0
1, 167611, Note_on_c, 0, 71, 59
1, 167716, Note_off_c, 0, 54, 23
1, 167834, Note_off_c, 0, 71, 62
1, 167846, Note_on_c, 0, 64, 74
1, 167850, Control_c, 0, 64, 79
1, 167850, Control_c, 1, 64, 79
1, 167859, Note_on_c, 0, 72, 63
1, 167871, Control_c, 0, 64, 52
1, 167871, Control_c, 1, 64, 52
1, 167888, Control_c, 1, 64, 49
1, 167888, Control_c, 0, 64, 49
1, 167906, Note_off_c, 0, 63, 64
1, 167907, Control_c, 0, 64, 61
1, 167907, Control_c, 1, 64, 61
1, 167926, Control_c, 1, 64, 82
1, 167926, Control_c, 0, 64, 82
1, 167927, Control_c, 0, 67, 102
1, 167927, Control_c, 1, 67, 102
1, 167944, Control_c, 1, 64, 127
1, 167944, Control_c, 0, 64, 127
1, 167988, Poly_aftertouch_c, 0, 55, 0
1, 168045, Note_off_c, 0, 72, 59
1, 168096, Note_on_c, 0, 60, 49
1, 168100, Note_off_c, 0, 64, 56
1, 168241, Note_on_c, 0, 67, 78
1, 168260, Note_on_c, 0, 64, 62
1, 168281, Note_off_c, 0, 60, 54
1, 168408, Note_on_c, 0, 61, 64
1, 168429, Note_off_c, 0, 67, 63
1, 168545, Control_c, 0, 67, 98
1, 168545, Control_c, 1, 67, 98
1, 168562, Control_c, 1, 67, 92
1, 168562, Control_c, 0, 67, 92
1, 168581, Control_c, 0, 67, 85
1, 168581, Control_c, 1, 67, 85
1, 168600, Control_c, 1, 67, 80
1, 168600, Control_c, 0, 67, 80
1, 168652, Note_on_c, 0, 49, 61
1, 168693, Note_off_c, 0, 61, 55
1, 168693, Control_c, 0, 64, 78
1, 168693, Control_c, 1, 64, 78
1, 168712, Control_c, 1, 64, 44
1, 168712, Control_c, 0, 64, 44
1, 168732, Control_c, 0, 64, 20
1, 168732, Control_c, 1, 64, 20
1, 168737, Note_on_c, 0, 76, 73
1, 168751, Control_c, 0, 64, 15
1, 168751, Control_c, 1, 64, 15
1, 168752, Control_c, 1, 67, 76
1, 168752, Control_c, 0, 67, 76
1, 168768, Control_c, 0, 67, 70
1, 168768, Control_c, 1, 67, 70
1, 168786, Note_off_c, 0, 64, 54
1, 168786, Control_c, 0, 64, 34
1, 168786, Control_c, 1, 64, 34
1, 168788, Control_c, 1, 67, 59
1, 168788, Control_c, 0, 67, 59
1, 168796, Note_on_c, 0, 67, 24
1, 168805, Control_c, 0, 64, 71
1, 168805, Control_c, 1, 64, 71
1, 168806, Control_c, 1, 67, 41
1, 168806, Control_c, 0, 67, 41
1, 168825, Control_c, 0, 64, 127
1, 168825, Control_c, 1, 64, 127
1, 168828, Control_c, 1, 67, 18
1, 168828, Control_c, 0, 67, 18
1, 168844, Control_c, 0, 67, 0
1, 168844, Control_c, 1, 67, 0
1, 168910, Note_off_c, 0, 49, 61
1, 168951, Note_off_c, 0, 76, 60
1, 168959, Note_off_c, 0, 67, 32
1, 169019, Note_on_c, 0, 50, 47
1, 169144, Note_on_c, 0, 71, 69
1, 169161, Note_on_c, 0, 67, 47
1, 169244, Note_off_c, 0, 50, 55
1, 169260, Note_on_c, 0, 38, 52
1, 169525, Note_on_c, 0, 69, 73
1, 169555, Control_c, 0, 64, 66
1, 169555, Control_c, 1, 64, 66
1, 169565, Note_on_c, 0, 51, 45
1, 169567, Note_on_c, 0, 66, 43
1, 169573, Control_c, 0, 64, 10
1, 169573, Control_c, 1, 64, 10
1, 169579, Note_off_c, 0, 38, 58
1, 169591, Control_c, 0, 64, 0
1, 169591, Control_c, 1, 64, 0
1, 169619, Note_off_c, 0, 67, 43
1, 169668, Control_c, 0, 64, 44
1, 169668, Control_c, 1, 64, 44
1, 169684, Note_off_c, 0, 71, 33
1, 169685, Control_c, 0, 64, 98
1, 169685, Control_c, 1, 64, 98
1, 169704, Control_c, 1, 64, 127
1, 169704, Control_c, 0, 64, 127
1, 169777, Note_off_c, 0, 66, 49
1, 169777, Note_on_c, 0, 39, 59
1, 169787, Note_off_c, 0, 69, 60
1, 169840, Note_off_c, 0, 51, 58
1, 169860, Note_off_c, 0, 39, 55
1, 169911, Control_c, 0, 64, 89
1, 169911, Control_c, 1, 64, 89
1, 169918, Note_on_c, 0, 68, 71
1, 169928, Control_c, 0, 64, 58
1, 169928, Control_c, 1, 64, 58
1, 169931, Note_on_c, 0, 64, 47
1, 169948, Control_c, 0, 64, 45
1, 169948, Control_c, 1, 64, 45
1, 169964, Control_c, 1, 64, 48
1, 169964, Note_on_c, 0, 66, 24
1, 169964, Control_c, 0, 64, 48
1, 169985, Control_c, 0, 64, 62
1, 169985, Control_c, 1, 64, 62
1, 170004, Control_c, 1, 64, 91
1, 170004, Control_c, 0, 64, 91
1, 170022, Control_c, 0, 64, 127
1, 170022, Control_c, 1, 64, 127
1, 170029, Note_off_c, 0, 66, 39
1, 170057, Note_on_c, 0, 40, 62
1, 170060, Note_on_c, 0, 52, 57
1, 170107, Note_off_c, 0, 52, 60
1, 170107, Poly_aftertouch_c, 0, 52, 0
1, 170156, Note_off_c, 0, 40, 60
1, 170354, Note_on_c, 0, 33, 58
1, 170359, Note_on_c, 0, 45, 54
1, 170378, Control_c, 0, 64, 84
1, 170378, Control_c, 1, 64, 84
1, 170397, Control_c, 1, 64, 27
1, 170397, Control_c, 0, 64, 27
1, 170415, Control_c, 0, 64, 0
1, 170415, Control_c, 1, 64, 0
1, 170426, Note_on_c, 0, 69, 74
1, 170441, Note_off_c, 0, 64, 59
1, 170450, Note_off_c, 0, 68, 59
1, 170454, Note_on_c, 0, 60, 46
1, 170484, Note_off_c, 0, 33, 62
1, 170489, Note_off_c, 0, 60, 55
1, 170489, Control_c, 0, 64, 55
1, 170489, Control_c, 1, 64, 55
1, 170509, Control_c, 1, 64, 127
1, 170509, Control_c, 0, 64, 127
1, 170519, Note_off_c, 0, 45, 63
1, 170556, Note_off_c, 0, 69, 63
1, 170842, Note_on_c, 0, 88, 50
1, 170842, Note_on_c, 0, 89, 58
1, 170869, Note_on_c, 0, 71, 76
1, 170886, Note_off_c, 0, 89, 61
1, 170906, Note_on_c, 0, 68, 52
1, 171015, Note_off_c, 0, 88, 62
1, 171043, Note_on_c, 0, 76, 61
1, 171214, Note_on_c, 0, 72, 80
1, 171220, Control_c, 0, 64, 69
1, 171220, Control_c, 1, 64, 69
1, 171223, Note_off_c, 0, 76, 62
1, 171239, Control_c, 0, 64, 28
1, 171239, Control_c, 1, 64, 28
1, 171250, Note_off_c, 0, 68, 61
1, 171252, Note_on_c, 0, 77, 76
1, 171258, Control_c, 0, 64, 20
1, 171258, Control_c, 1, 64, 20
1, 171278, Control_c, 1, 64, 40
1, 171278, Control_c, 0, 64, 40
1, 171279, Note_off_c, 0, 71, 53
1, 171295, Control_c, 0, 64, 80
1, 171295, Control_c, 1, 64, 80
1, 171314, Control_c, 1, 64, 127
1, 171314, Control_c, 0, 64, 127
1, 171396, Note_off_c, 0, 77, 60
1, 171442, Note_on_c, 0, 65, 67
1, 171451, Note_off_c, 0, 72, 61
1, 171565, Note_on_c, 0, 76, 80
1, 171592, Note_on_c, 0, 72, 58
1, 171604, Note_off_c, 0, 65, 62
1, 171732, Note_on_c, 0, 66, 57
1, 171733, Note_off_c, 0, 76, 63
1, 171913, Control_c, 0, 64, 90
1, 171913, Control_c, 1, 64, 90
1, 171932, Control_c, 1, 64, 44
1, 171932, Control_c, 0, 64, 44
1, 171945, Note_on_c, 0, 84, 80
1, 171950, Control_c, 0, 64, 0
1, 171950, Control_c, 1, 64, 0
1, 171953, Note_on_c, 0, 54, 50
1, 171960, Note_off_c, 0, 66, 59
1, 171978, Note_on_c, 0, 76, 40
1, 172008, Control_c, 0, 64, 35
1, 172008, Control_c, 1, 64, 35
1, 172025, Control_c, 1, 64, 92
1, 172025, Control_c, 0, 64, 92
1, 172044, Control_c, 0, 64, 127
1, 172044, Control_c, 1, 64, 127
1, 172114, Note_off_c, 0, 72, 42
1, 172136, Note_off_c, 0, 54, 62
1, 172159, Note_off_c, 0, 84, 64
1, 172172, Poly_aftertouch_c, 0, 80, 127
1, 172175, Note_off_c, 0, 76, 41
1, 172176, Poly_aftertouch_c, 0, 76, 0
1, 172217, Note_on_c, 0, 55, 53
1, 172218, Poly_aftertouch_c, 0, 80, 0
1, 172303, Note_on_c, 0, 76, 79
1, 172347, Note_on_c, 0, 72, 49
1, 172410, Note_off_c, 0, 55, 59
1, 172433, Note_on_c, 0, 43, 54
1, 172643, Note_on_c, 0, 74, 78
1, 172654, Note_on_c, 0, 71, 57
1, 172662, Control_c, 0, 64, 62
1, 172662, Control_c, 1, 64, 62
1, 172674, Note_on_c, 0, 56, 51
1, 172681, Control_c, 0, 64, 0
1, 172681, Control_c, 1, 64, 0
1, 172690, Note_off_c, 0, 72, 54
1, 172735, Note_off_c, 0, 43, 54
1, 172756, Control_c, 0, 64, 35
1, 172756, Control_c, 1, 64, 35
1, 172774, Control_c, 1, 64, 84
1, 172774, Control_c, 0, 64, 84
1, 172792, Control_c, 0, 64, 127
1, 172792, Control_c, 1, 64, 127
1, 172864, Note_on_c, 0, 44, 60
1, 172866, Note_off_c, 0, 74, 62
1, 172867, Note_off_c, 0, 76, 35
1, 172948, Note_off_c, 0, 56, 60
1, 172973, Note_off_c, 0, 44, 58
1, 172996, Note_on_c, 0, 72, 79
1, 173024, Note_on_c, 0, 69, 58
1, 173095, Note_off_c, 0, 71, 36
1, 173135, Note_on_c, 0, 45, 63
1, 173165, Note_on_c, 0, 57, 28
1, 173219, Note_off_c, 0, 57, 47
1, 173434, Note_on_c, 0, 59, 55
1, 173448, Control_c, 0, 64, 97
1, 173448, Control_c, 1, 64, 97
1, 173454, Note_off_c, 0, 45, 61
1, 173458, Note_on_c, 0, 47, 64
1, 173467, Control_c, 0, 64, 43
1, 173467, Control_c, 1, 64, 43
1, 173486, Control_c, 1, 64, 0
1, 173486, Control_c, 0, 64, 0
1, 173503, Note_on_c, 0, 71, 77
1, 173529, Note_off_c, 0, 72, 62
1, 173546, Note_off_c, 0, 69, 60
1, 173564, Note_on_c, 0, 67, 38
1, 173579, Control_c, 0, 64, 34
1, 173579, Control_c, 1, 64, 34
1, 173598, Control_c, 1, 64, 102
1, 173598, Control_c, 0, 64, 102
1, 173610, Note_off_c, 0, 47, 63
1, 173612, Note_off_c, 0, 67, 60
1, 173616, Control_c, 0, 64, 127
1, 173616, Control_c, 1, 64, 127
1, 173637, Note_off_c, 0, 59, 62
1, 173941, Note_on_c, 0, 95, 67
1, 173974, Note_on_c, 0, 75, 73
1, 174011, Note_on_c, 0, 66, 54
1, 174106, Note_off_c, 0, 95, 64
1, 174121, Note_off_c, 0, 71, 31
1, 174131, Note_on_c, 0, 83, 69
1, 174225, Note_off_c, 0, 66, 32
1, 174317, Note_off_c, 0, 83, 63
1, 174327, Control_c, 0, 64, 66
1, 174327, Control_c, 1, 64, 66
1, 174329, Note_on_c, 0, 76, 80
1, 174346, Control_c, 0, 64, 26
1, 174346, Control_c, 1, 64, 26
1, 174350, Note_on_c, 0, 84, 73
1, 174365, Control_c, 0, 64, 16
1, 174365, Control_c, 1, 64, 16
1, 174384, Control_c, 1, 64, 31
1, 174384, Control_c, 0, 64, 31
1, 174399, Note_off_c, 0, 75, 64
1, 174402, Control_c, 0, 64, 68
1, 174402, Control_c, 1, 64, 68
1, 174421, Control_c, 1, 64, 127
1, 174421, Control_c, 0, 64, 127
1, 174460, Poly_aftertouch_c, 0, 67, 0
1, 174513, Note_off_c, 0, 84, 58
1, 174536, Poly_aftertouch_c, 0, 83, 127
1, 174555, Poly_aftertouch_c, 0, 83, 0
1, 174561, Note_on_c, 0, 72, 61
1, 174563, Note_off_c, 0, 76, 48
1, 174702, Note_on_c, 0, 79, 84
1, 174711, Note_off_c, 0, 72, 55
1, 174720, Note_on_c, 0, 76, 68
1, 174871, Note_off_c, 0, 79, 62
1, 174889, Note_on_c, 0, 73, 55
1, 175105, Note_on_c, 0, 61, 57
1, 175120, Note_off_c, 0, 73, 56
1, 175189, Control_c, 0, 64, 91
1, 175189, Control_c, 1, 64, 91
1, 175201, Note_on_c, 0, 88, 82
1, 175208, Control_c, 0, 64, 52
1, 175208, Control_c, 1, 64, 52
1, 175228, Control_c, 1, 64, 20
1, 175228, Note_on_c, 0, 79, 52
1, 175228, Control_c, 0, 64, 20
1, 175245, Control_c, 0, 64, 13
1, 175245, Control_c, 1, 64, 13
1, 175283, Control_c, 1, 64, 34
1, 175283, Control_c, 0, 64, 34
1, 175299, Note_off_c, 0, 76, 53
1, 175300, Control_c, 0, 64, 68
1, 175300, Control_c, 1, 64, 68
1, 175319, Control_c, 1, 64, 127
1, 175319, Control_c, 0, 64, 127
1, 175433, Note_off_c, 0, 61, 59
1, 175461, Note_off_c, 0, 79, 56
1, 175462, Note_off_c, 0, 88, 64
1, 175506, Note_on_c, 0, 62, 53
1, 175621, Note_on_c, 0, 83, 78
1, 175646, Note_on_c, 0, 79, 57
1, 175715, Note_off_c, 0, 62, 53
1, 175743, Note_on_c, 0, 50, 54
1, 175996, Note_on_c, 0, 81, 67
1, 176013, Control_c, 0, 64, 77
1, 176013, Control_c, 1, 64, 77
1, 176021, Note_on_c, 0, 78, 60
1, 176031, Note_on_c, 0, 63, 50
1, 176031, Control_c, 0, 64, 31
1, 176031, Control_c, 1, 64, 31
1, 176050, Control_c, 1, 64, 0
1, 176050, Control_c, 0, 64, 0
1, 176105, Control_c, 0, 64, 40
1, 176105, Control_c, 1, 64, 40
1, 176110, Note_off_c, 0, 79, 42
1, 176125, Control_c, 0, 64, 107
1, 176125, Control_c, 1, 64, 107
1, 176138, Note_off_c, 0, 50, 56
1, 176144, Control_c, 0, 64, 127
1, 176144, Control_c, 1, 64, 127
1, 176265, Note_on_c, 0, 51, 52
1, 176266, Note_off_c, 0, 78, 60
1, 176267, Note_off_c, 0, 83, 40
1, 176268, Poly_aftertouch_c, 0, 83, 0
1, 176277, Note_off_c, 0, 81, 61
1, 176304, Note_off_c, 0, 63, 51
1, 176419, Note_on_c, 0, 80, 72
1, 176431, Note_on_c, 0, 76, 54
1, 176463, Note_on_c, 0, 78, 30
1, 176485, Note_off_c, 0, 51, 46
1, 176523, Note_off_c, 0, 78, 48
1, 176570, Note_on_c, 0, 52, 52
1, 176582, Note_on_c, 0, 64, 44
1, 176587, Note_off_c, 0, 76, 58
1, 176620, Note_off_c, 0, 64, 49
1, 176639, Note_off_c, 0, 52, 60
1, 176639, Poly_aftertouch_c, 0, 52, 0
1, 176936, Note_on_c, 0, 45, 56
1, 176954, Note_on_c, 0, 57, 57
1, 176985, Control_c, 0, 64, 65
1, 176985, Control_c, 1, 64, 65
1, 177005, Control_c, 1, 64, 0
1, 177005, Control_c, 0, 64, 0
1, 177049, Note_on_c, 0, 73, 82
1, 177073, Note_on_c, 0, 81, 72
1, 177080, Note_on_c, 0, 69, 40
1, 177099, Control_c, 0, 64, 50
1, 177099, Control_c, 1, 64, 50
1, 177117, Control_c, 1, 64, 127
1, 177117, Control_c, 0, 64, 127
1, 177122, Note_off_c, 0, 80, 60
1, 177160, Note_off_c, 0, 45, 63
1, 177214, Note_off_c, 0, 57, 63
1, 177258, Note_off_c, 0, 69, 21
1, 177568, Note_on_c, 0, 93, 58
1, 177656, Note_on_c, 0, 74, 80
1, 177714, Note_on_c, 0, 71, 50
1, 177723, Note_off_c, 0, 81, 55
1, 177754, Note_off_c, 0, 93, 54
1, 177814, Note_on_c, 0, 80, 68
1, 177872, Note_off_c, 0, 73, 29
1, 177892, Note_off_c, 0, 71, 45
1, 178004, Note_off_c, 0, 80, 65
1, 178015, Control_c, 0, 64, 90
1, 178015, Control_c, 1, 64, 90
1, 178017, Note_on_c, 0, 76, 75
1, 178035, Control_c, 0, 64, 45
1, 178035, Control_c, 1, 64, 45
1, 178047, Note_on_c, 0, 73, 52
1, 178053, Control_c, 0, 64, 11
1, 178053, Control_c, 1, 64, 11
1, 178059, Note_on_c, 0, 81, 61
1, 178071, Control_c, 0, 64, 17
1, 178071, Control_c, 1, 64, 17
1, 178091, Control_c, 1, 64, 48
1, 178091, Control_c, 0, 64, 48
1, 178097, Note_off_c, 0, 74, 47
1, 178105, Note_off_c, 0, 73, 52
1, 178109, Control_c, 0, 64, 127
1, 178109, Control_c, 1, 64, 127
1, 178192, Note_off_c, 0, 81, 62
1, 178266, Note_off_c, 0, 76, 62
1, 178292, Note_on_c, 0, 67, 61
1, 178422, Note_on_c, 0, 82, 87
1, 178437, Note_off_c, 0, 67, 61
1, 178451, Note_on_c, 0, 73, 67
1, 178625, Note_on_c, 0, 69, 53
1, 178705, Note_off_c, 0, 69, 60
1, 178838, Note_on_c, 0, 54, 55
1, 178949, Note_on_c, 0, 81, 76
1, 178951, Control_c, 0, 64, 69
1, 178951, Control_c, 1, 64, 69
1, 178962, Note_on_c, 0, 74, 53
1, 178970, Control_c, 0, 64, 19
1, 178970, Control_c, 1, 64, 19
1, 178988, Control_c, 1, 64, 0
1, 178988, Control_c, 0, 64, 0
1, 179010, Note_off_c, 0, 82, 64
1, 179032, Note_off_c, 0, 73, 39
1, 179045, Control_c, 0, 64, 26
1, 179045, Control_c, 1, 64, 26
1, 179063, Control_c, 1, 64, 67
1, 179063, Control_c, 0, 64, 67
1, 179082, Control_c, 0, 64, 127
1, 179082, Control_c, 1, 64, 127
1, 179162, Note_off_c, 0, 54, 62
1, 179223, Note_on_c, 0, 57, 47
1, 179348, Note_on_c, 0, 82, 83
1, 179372, Note_on_c, 0, 73, 54
1, 179400, Note_off_c, 0, 74, 45
1, 179405, Note_off_c, 0, 81, 62
1, 179432, Note_off_c, 0, 57, 60
1, 179499, Note_on_c, 0, 41, 61
1, 179793, Control_c, 0, 64, 115
1, 179793, Control_c, 1, 64, 115
1, 179814, Control_c, 1, 64, 66
1, 179814, Control_c, 0, 64, 66
1, 179832, Control_c, 0, 64, 23
1, 179832, Control_c, 1, 64, 23
1, 179843, Note_on_c, 0, 53, 44
1, 179848, Note_on_c, 0, 74, 66
1, 179850, Control_c, 0, 64, 0
1, 179850, Control_c, 1, 64, 0
1, 179858, Note_on_c, 0, 81, 76
1, 179914, Note_off_c, 0, 73, 38
1, 179917, Note_off_c, 0, 41, 53
1, 179919, Note_off_c, 0, 82, 65
1, 179924, Control_c, 0, 64, 11
1, 179924, Control_c, 1, 64, 11
1, 179943, Control_c, 1, 64, 37
1, 179943, Control_c, 0, 64, 37
1, 179962, Control_c, 0, 64, 74
1, 179962, Control_c, 1, 64, 74
1, 179981, Control_c, 1, 64, 127
1, 179981, Control_c, 0, 64, 127
1, 180031, Note_off_c, 0, 53, 54
1, 180127, Note_on_c, 0, 38, 52
1, 180182, Note_off_c, 0, 38, 61
1, 180259, Note_on_c, 0, 77, 75
1, 180291, Note_on_c, 0, 69, 44
1, 180293, Note_off_c, 0, 81, 59
1, 180317, Note_off_c, 0, 74, 57
1, 180417, Note_on_c, 0, 50, 48
1, 180419, Note_off_c, 0, 69, 57
1, 180612, Note_off_c, 0, 50, 57
1, 180644, Note_on_c, 0, 43, 55
1, 180693, Control_c, 0, 64, 69
1, 180693, Control_c, 1, 64, 69
1, 180711, Control_c, 1, 64, 0
1, 180711, Control_c, 0, 64, 0
1, 180748, Note_on_c, 0, 71, 76
1, 180785, Control_c, 0, 64, 44
1, 180785, Control_c, 1, 64, 44
1, 180798, Note_on_c, 0, 67, 38
1, 180803, Control_c, 0, 64, 127
1, 180803, Control_c, 1, 64, 127
1, 180827, Note_off_c, 0, 43, 63
1, 181008, Note_off_c, 0, 67, 34
1, 181126, Note_on_c, 0, 91, 67
1, 181210, Note_on_c, 0, 69, 54
1, 181219, Note_on_c, 0, 72, 80
1, 181261, Note_off_c, 0, 77, 60
1, 181298, Note_off_c, 0, 91, 59
1, 181301, Note_off_c, 0, 71, 60
1, 181357, Note_on_c, 0, 78, 63
1, 181570, Note_off_c, 0, 78, 64
1, 181584, Note_on_c, 0, 74, 74
1, 181587, Note_off_c, 0, 69, 58
1, 181590, Control_c, 0, 64, 92
1, 181590, Control_c, 1, 64, 92
1, 181610, Control_c, 1, 64, 51
1, 181610, Control_c, 0, 64, 51
1, 181628, Control_c, 0, 64, 25
1, 181628, Control_c, 1, 64, 25
1, 181639, Note_on_c, 0, 79, 45
1, 181647, Control_c, 0, 64, 32
1, 181647, Control_c, 1, 64, 32
1, 181649, Note_on_c, 0, 71, 8
1, 181665, Control_c, 0, 64, 61
1, 181665, Control_c, 1, 64, 61
1, 181681, Note_off_c, 0, 72, 52
1, 181683, Control_c, 0, 64, 127
1, 181683, Control_c, 1, 64, 127
1, 181734, Note_off_c, 0, 71, 32
1, 181777, Note_off_c, 0, 79, 38
1, 181789, Note_off_c, 0, 74, 49
1, 181845, Note_on_c, 0, 65, 47
1, 181954, Note_on_c, 0, 80, 86
1, 181972, Note_on_c, 0, 71, 62
1, 181982, Note_off_c, 0, 65, 58
1, 182173, Note_on_c, 0, 67, 45
1, 182354, Note_off_c, 0, 67, 35
1, 182409, Note_on_c, 0, 52, 54
1, 182526, Control_c, 0, 64, 108
1, 182526, Control_c, 1, 64, 108
1, 182537, Note_on_c, 0, 79, 78
1, 182545, Control_c, 0, 64, 60
1, 182545, Control_c, 1, 64, 60
1, 182564, Control_c, 1, 64, 20
1, 182564, Control_c, 0, 64, 20
1, 182585, Note_off_c, 0, 71, 62
1, 182599, Note_on_c, 0, 72, 8
1, 182620, Control_c, 0, 64, 14
1, 182620, Control_c, 1, 64, 14
1, 182626, Note_off_c, 0, 80, 61
1, 182639, Control_c, 0, 64, 39
1, 182639, Control_c, 1, 64, 39
1, 182657, Control_c, 1, 64, 77
1, 182657, Control_c, 0, 64, 77
1, 182676, Control_c, 0, 64, 127
1, 182676, Control_c, 1, 64, 127
1, 182793, Note_off_c, 0, 52, 52
1, 182793, Poly_aftertouch_c, 0, 52, 0
1, 182831, Note_on_c, 0, 55, 45
1, 182892, Poly_aftertouch_c, 0, 72, 24
1, 182921, Note_on_c, 0, 80, 80
1, 182947, Note_on_c, 0, 71, 50
1, 182948, Note_off_c, 0, 72, 37
1, 182948, Poly_aftertouch_c, 0, 72, 0
1, 182962, Note_off_c, 0, 55, 37
1, 183002, Note_off_c, 0, 79, 62
1, 183101, Note_on_c, 0, 39, 65
1, 183397, Note_on_c, 0, 79, 72
1, 183405, Control_c, 0, 64, 88
1, 183405, Control_c, 1, 64, 88
1, 183418, Note_on_c, 0, 72, 46
1, 183423, Note_on_c, 0, 51, 46
1, 183423, Control_c, 0, 64, 46
1, 183423, Control_c, 1, 64, 46
1, 183443, Note_off_c, 0, 80, 66
1, 183443, Control_c, 0, 64, 0
1, 183443, Control_c, 1, 64, 0
1, 183469, Note_off_c, 0, 39, 58
1, 183476, Note_off_c, 0, 71, 56
1, 183519, Control_c, 0, 64, 23
1, 183519, Control_c, 1, 64, 23
1, 183537, Control_c, 1, 64, 58
1, 183537, Control_c, 0, 64, 58
1, 183556, Control_c, 0, 64, 118
1, 183556, Control_c, 1, 64, 118
1, 183574, Control_c, 1, 64, 127
1, 183574, Control_c, 0, 64, 127
1, 183627, Note_off_c, 0, 51, 61
1, 183681, Note_on_c, 0, 36, 60
1, 183725, Note_off_c, 0, 36, 62
1, 183783, Note_on_c, 0, 75, 71
1, 183808, Note_off_c, 0, 79, 56
1, 183815, Note_on_c, 0, 67, 44
1, 183838, Note_off_c, 0, 72, 57
1, 183838, Poly_aftertouch_c, 0, 72, 0
1, 183859, Note_off_c, 0, 67, 61
1, 183971, Note_on_c, 0, 48, 54
1, 184164, Note_off_c, 0, 48, 50
1, 184189, Note_on_c, 0, 41, 53
1, 184211, Control_c, 0, 64, 85
1, 184211, Control_c, 1, 64, 85
1, 184230, Control_c, 1, 64, 32
1, 184230, Control_c, 0, 64, 32
1, 184249, Control_c, 0, 64, 0
1, 184249, Control_c, 1, 64, 0
1, 184278, Note_on_c, 0, 69, 75
1, 184304, Control_c, 0, 64, 11
1, 184304, Control_c, 1, 64, 11
1, 184315, Note_on_c, 0, 65, 48
1, 184322, Control_c, 0, 64, 62
1, 184322, Control_c, 1, 64, 62
1, 184342, Control_c, 1, 64, 127
1, 184342, Control_c, 0, 64, 127
1, 184361, Note_off_c, 0, 41, 62
1, 184389, Note_off_c, 0, 65, 48
1, 184401, Note_off_c, 0, 75, 62
1, 184664, Note_on_c, 0, 89, 65
1, 184770, Note_on_c, 0, 70, 80
1, 184821, Note_on_c, 0, 67, 26
1, 184835, Note_off_c, 0, 89, 60
1, 184850, Note_off_c, 0, 69, 53
1, 184916, Note_on_c, 0, 76, 56
1, 185180, Note_off_c, 0, 76, 61
1, 185184, Control_c, 0, 64, 93
1, 185184, Control_c, 1, 64, 93
1, 185192, Note_on_c, 0, 72, 75
1, 185203, Control_c, 0, 64, 52
1, 185203, Control_c, 1, 64, 52
1, 185204, Note_off_c, 0, 67, 49
1, 185221, Control_c, 0, 64, 16
1, 185221, Control_c, 1, 64, 16
1, 185240, Control_c, 1, 64, 11
1, 185240, Control_c, 0, 64, 11
1, 185241, Note_on_c, 0, 77, 30
1, 185250, Note_on_c, 0, 69, 48
1, 185254, Note_off_c, 0, 70, 39
1, 185259, Control_c, 0, 64, 27
1, 185259, Control_c, 1, 64, 27
1, 185279, Control_c, 1, 64, 67
1, 185279, Control_c, 0, 64, 67
1, 185296, Control_c, 0, 64, 127
1, 185296, Control_c, 1, 64, 127
1, 185345, Note_off_c, 0, 77, 59
1, 185465, Note_on_c, 0, 63, 67
1, 185571, Note_on_c, 0, 77, 77
1, 185581, Note_off_c, 0, 69, 56
1, 185597, Note_on_c, 0, 70, 60
1, 185621, Note_off_c, 0, 63, 57
1, 185644, Note_off_c, 0, 72, 34
1, 185644, Poly_aftertouch_c, 0, 72, 0
1, 185818, Note_on_c, 0, 62, 49
1, 186035, Note_on_c, 0, 52, 43
1, 186050, Note_off_c, 0, 62, 51
1, 186082, Control_c, 0, 64, 87
1, 186082, Control_c, 1, 64, 87
1, 186102, Control_c, 1, 64, 36
1, 186102, Control_c, 0, 64, 36
1, 186117, Note_on_c, 0, 68, 77
1, 186121, Control_c, 0, 64, 0
1, 186121, Control_c, 1, 64, 0
1, 186154, Note_on_c, 0, 64, 40
1, 186178, Control_c, 0, 64, 25
1, 186178, Control_c, 1, 64, 25
1, 186181, Note_off_c, 0, 77, 60
1, 186196, Control_c, 0, 64, 79
1, 186196, Control_c, 1, 64, 79
1, 186203, Note_off_c, 0, 52, 60
1, 186203, Poly_aftertouch_c, 0, 52, 0
1, 186205, Note_off_c, 0, 70, 59
1, 186214, Control_c, 0, 64, 127
1, 186214, Control_c, 1, 64, 127
1, 186277, Poly_aftertouch_c, 0, 65, 0
1, 186303, Note_off_c, 0, 64, 45
1, 186488, Note_on_c, 0, 88, 63
1, 186533, Control_c, 0, 67, 9
1, 186533, Control_c, 1, 67, 9
1, 186570, Control_c, 1, 67, 13
1, 186570, Control_c, 0, 67, 13
1, 186587, Note_on_c, 0, 69, 72
1, 186612, Note_on_c, 0, 66, 41
1, 186652, Note_off_c, 0, 88, 60
1, 186719, Control_c, 0, 67, 20
1, 186719, Control_c, 1, 67, 20
1, 186726, Note_on_c, 0, 75, 60
1, 186738, Control_c, 0, 67, 24
1, 186738, Control_c, 1, 67, 24
1, 186757, Control_c, 1, 67, 28
1, 186757, Control_c, 0, 67, 28
1, 186794, Control_c, 0, 67, 34
1, 186794, Control_c, 1, 67, 34
1, 186868, Poly_aftertouch_c, 0, 68, 24
1, 186943, Control_c, 0, 64, 114
1, 186943, Control_c, 1, 64, 114
1, 186948, Note_off_c, 0, 75, 62
1, 186963, Control_c, 0, 64, 64
1, 186963, Control_c, 1, 64, 64
1, 186966, Note_off_c, 0, 66, 46
1, 186971, Note_on_c, 0, 71, 67
1, 186981, Control_c, 0, 64, 35
1, 186981, Control_c, 1, 64, 35
1, 187001, Control_c, 1, 64, 31
1, 187001, Control_c, 0, 64, 31
1, 187010, Note_off_c, 0, 69, 54
1, 187019, Control_c, 0, 64, 45
1, 187019, Control_c, 1, 64, 45
1, 187024, Note_on_c, 0, 76, 61
1, 187038, Control_c, 0, 64, 76
1, 187038, Control_c, 1, 64, 76
1, 187057, Control_c, 1, 64, 127
1, 187057, Control_c, 0, 64, 127
1, 187136, Poly_aftertouch_c, 0, 68, 32
1, 187173, Note_off_c, 0, 76, 62
1, 187243, Control_c, 0, 67, 38
1, 187243, Control_c, 1, 67, 38
1, 187269, Note_on_c, 0, 62, 59
1, 187280, Control_c, 0, 67, 43
1, 187280, Control_c, 1, 67, 43
1, 187355, Note_on_c, 0, 76, 67
1, 187370, Note_on_c, 0, 69, 58
1, 187381, Note_off_c, 0, 71, 39
1, 187387, Poly_aftertouch_c, 0, 60, 0
1, 187432, Note_off_c, 0, 62, 63
1, 187610, Note_on_c, 0, 60, 50
1, 187633, Poly_aftertouch_c, 0, 68, 20
1, 187718, Note_off_c, 0, 68, 19
1, 187718, Poly_aftertouch_c, 0, 68, 0
1, 187718, Poly_aftertouch_c, 0, 68, 0
1, 187818, Note_off_c, 0, 60, 49
1, 187824, Control_c, 0, 64, 98
1, 187824, Control_c, 1, 64, 98
1, 187844, Control_c, 1, 64, 55
1, 187844, Control_c, 0, 64, 55
1, 187861, Control_c, 0, 64, 20
1, 187861, Control_c, 1, 64, 20
1, 187879, Control_c, 1, 64, 14
1, 187879, Control_c, 0, 64, 14
1, 187888, Note_on_c, 0, 47, 39
1, 187899, Control_c, 0, 64, 25
1, 187899, Control_c, 1, 64, 25
1, 187917, Control_c, 1, 64, 59
1, 187917, Control_c, 0, 64, 59
1, 187937, Control_c, 0, 64, 127
1, 187937, Control_c, 1, 64, 127
1, 187939, Control_c, 1, 67, 47
1, 187939, Control_c, 0, 67, 47
1, 187954, Note_on_c, 0, 65, 68
1, 187966, Note_on_c, 0, 62, 55
1, 187974, Note_off_c, 0, 76, 57
1, 187974, Note_on_c, 0, 66, 40
1, 187988, Poly_aftertouch_c, 0, 48, 0
1, 187993, Note_off_c, 0, 69, 50
1, 187993, Control_c, 0, 67, 51
1, 187993, Control_c, 1, 67, 51
1, 188024, Note_off_c, 0, 66, 46
1, 188039, Note_off_c, 0, 47, 54
1, 188048, Control_c, 0, 67, 56
1, 188048, Control_c, 1, 67, 56
1, 188085, Control_c, 1, 67, 60
1, 188085, Control_c, 0, 67, 60
1, 188142, Control_c, 0, 67, 66
1, 188142, Control_c, 1, 67, 66
1, 188216, Control_c, 1, 67, 70
1, 188216, Control_c, 0, 67, 70
1, 188248, Note_off_c, 0, 65, 52
1, 188273, Control_c, 0, 67, 75
1, 188273, Control_c, 1, 67, 75
1, 188325, Note_on_c, 0, 81, 53
1, 188328, Control_c, 0, 67, 79
1, 188328, Control_c, 1, 67, 79
1, 188369, Note_off_c, 0, 62, 50
1, 188390, Note_on_c, 0, 74, 71
1, 188414, Note_on_c, 0, 65, 54
1, 188477, Note_off_c, 0, 81, 40
1, 188492, Note_on_c, 0, 70, 44
1, 188529, Note_on_c, 0, 69, 74
1, 188531, Note_off_c, 0, 70, 55
1, 188555, Note_off_c, 0, 69, 67
1, 188888, Note_on_c, 0, 40, 48
1, 188910, Control_c, 0, 64, 61
1, 188910, Control_c, 1, 64, 61
1, 188922, Note_on_c, 0, 64, 50
1, 188929, Control_c, 0, 67, 84
1, 188929, Control_c, 1, 67, 84
1, 188948, Control_c, 1, 64, 0
1, 188948, Control_c, 0, 64, 0
1, 188950, Note_off_c, 0, 65, 56
1, 188965, Control_c, 0, 67, 88
1, 188965, Control_c, 1, 67, 88
1, 188985, Control_c, 1, 64, 23
1, 188985, Control_c, 0, 64, 23
1, 189003, Control_c, 0, 64, 73
1, 189003, Control_c, 1, 64, 73
1, 189005, Control_c, 1, 67, 95
1, 189005, Control_c, 0, 67, 95
1, 189020, Note_off_c, 0, 40, 62
1, 189021, Control_c, 0, 64, 127
1, 189021, Control_c, 1, 64, 127
1, 189023, Control_c, 1, 67, 99
1, 189023, Control_c, 0, 67, 99
1, 189059, Control_c, 0, 67, 104
1, 189059, Control_c, 1, 67, 104
1, 189152, Control_c, 1, 67, 108
1, 189152, Control_c, 0, 67, 108
1, 189262, Note_off_c, 0, 64, 59
1, 189287, Note_on_c, 0, 80, 66
1, 189405, Note_on_c, 0, 72, 66
1, 189440, Note_on_c, 0, 64, 32
1, 189471, Note_off_c, 0, 74, 58
1, 189491, Note_off_c, 0, 80, 51
1, 189528, Control_c, 0, 67, 112
1, 189528, Control_c, 1, 67, 112
1, 189541, Note_on_c, 0, 68, 56
1, 189565, Control_c, 0, 67, 119
1, 189565, Control_c, 1, 67, 119
1, 189603, Control_c, 1, 67, 124
1, 189603, Control_c, 0, 67, 124
1, 189616, Note_off_c, 0, 68, 60
1, 189696, Poly_aftertouch_c, 0, 64, 20
1, 189712, Note_off_c, 0, 64, 33
1, 189712, Poly_aftertouch_c, 0, 64, 0
1, 189713, Poly_aftertouch_c, 0, 64, 0
1, 189996, Control_c, 0, 64, 99
1, 189996, Control_c, 1, 64, 99
1, 190011, Note_on_c, 0, 45, 43
1, 190012, Control_c, 0, 64, 66
1, 190012, Control_c, 1, 64, 66
1, 190030, Note_on_c, 0, 71, 54
1, 190032, Control_c, 0, 64, 45
1, 190032, Control_c, 1, 64, 45
1, 190047, Note_on_c, 0, 62, 45
1, 190049, Control_c, 0, 64, 34
1, 190049, Control_c, 1, 64, 34
1, 190088, Control_c, 1, 64, 30
1, 190088, Control_c, 0, 64, 30
1, 190115, Note_off_c, 0, 72, 35
1, 190115, Poly_aftertouch_c, 0, 72, 0
1, 190129, Note_off_c, 0, 45, 52
1, 190164, Control_c, 0, 64, 34
1, 190164, Control_c, 1, 64, 34
1, 190174, Note_on_c, 0, 45, 40
1, 190181, Control_c, 0, 64, 55
1, 190181, Control_c, 1, 64, 55
1, 190201, Control_c, 1, 64, 83
1, 190201, Control_c, 0, 64, 83
1, 190219, Control_c, 0, 64, 127
1, 190219, Control_c, 1, 64, 127
1, 190278, Note_off_c, 0, 45, 61
1, 190588, Note_on_c, 0, 77, 59
1, 190675, Note_on_c, 0, 68, 52
1, 190749, Note_off_c, 0, 77, 36
1, 190897, Note_on_c, 0, 65, 47
1, 190957, Note_off_c, 0, 62, 36
1, 191250, Note_on_c, 0, 76, 45
1, 191305, Control_c, 0, 64, 87
1, 191305, Control_c, 1, 64, 87
1, 191325, Control_c, 1, 64, 58
1, 191325, Control_c, 0, 64, 58
1, 191337, Note_on_c, 0, 69, 43
1, 191344, Control_c, 0, 64, 42
1, 191344, Control_c, 1, 64, 42
1, 191358, Note_off_c, 0, 65, 35
1, 191360, Note_on_c, 0, 60, 25
1, 191362, Note_off_c, 0, 68, 36
1, 191380, Control_c, 0, 64, 53
1, 191380, Control_c, 1, 64, 53
1, 191400, Control_c, 1, 64, 69
1, 191400, Control_c, 0, 64, 69
1, 191414, Note_off_c, 0, 71, 36
1, 191417, Control_c, 0, 64, 94
1, 191417, Control_c, 1, 64, 94
1, 191436, Control_c, 1, 64, 127
1, 191436, Control_c, 0, 64, 127
1, 191517, Note_off_c, 0, 76, 61
1, 191869, Note_on_c, 0, 64, 45
1, 191916, Note_off_c, 0, 60, 40
1, 191944, Note_off_c, 0, 64, 58
1, 191974, Note_off_c, 0, 69, 59
1, 192382, Note_on_c, 0, 45, 39
1, 192448, Control_c, 0, 64, 73
1, 192448, Control_c, 1, 64, 73
1, 192466, Control_c, 1, 64, 38
1, 192466, Control_c, 0, 64, 38
1, 192485, Control_c, 0, 64, 14
1, 192485, Control_c, 1, 64, 14
1, 192541, Control_c, 1, 64, 32
1, 192541, Control_c, 0, 64, 32
1, 192552, Note_on_c, 0, 81, 37
1, 192560, Control_c, 0, 64, 67
1, 192560, Control_c, 1, 64, 67
1, 192569, Note_on_c, 0, 73, 43
1, 192578, Control_c, 0, 64, 127
1, 192578, Control_c, 1, 64, 127
1, 192584, Note_on_c, 0, 69, 29
1, 192598, Note_off_c, 0, 45, 61
1, 192800, Note_off_c, 0, 69, 37
1, 193007, Note_on_c, 0, 93, 56
1, 193112, Note_on_c, 0, 74, 61
1, 193117, Note_on_c, 0, 71, 43
1, 193143, Note_off_c, 0, 93, 56
1, 193150, Note_off_c, 0, 73, 51
1, 193173, Note_off_c, 0, 81, 38
1, 193233, Note_on_c, 0, 80, 56
1, 193438, Note_off_c, 0, 80, 64
1, 193438, Control_c, 0, 64, 116
1, 193438, Control_c, 1, 64, 116
1, 193458, Control_c, 1, 64, 73
1, 193458, Control_c, 0, 64, 73
1, 193469, Note_on_c, 0, 76, 54
1, 193476, Control_c, 0, 64, 56
1, 193476, Control_c, 1, 64, 56
1, 193487, Note_off_c, 0, 71, 42
1, 193487, Note_on_c, 0, 81, 52
1, 193495, Control_c, 0, 64, 59
1, 193495, Control_c, 1, 64, 59
1, 193500, Note_off_c, 0, 74, 48
1, 193515, Control_c, 0, 64, 69
1, 193515, Control_c, 1, 64, 69
1, 193533, Control_c, 1, 64, 95
1, 193533, Control_c, 0, 64, 95
1, 193551, Control_c, 0, 64, 127
1, 193551, Control_c, 1, 64, 127
1, 193598, Poly_aftertouch_c, 0, 73, 127
1, 193614, Note_off_c, 0, 81, 61
1, 193639, Poly_aftertouch_c, 0, 73, 0
1, 193668, Note_off_c, 0, 76, 57
1, 193799, Note_on_c, 0, 67, 37
1, 193890, Note_on_c, 0, 82, 68
1, 193936, Note_on_c, 0, 73, 29
1, 193944, Note_off_c, 0, 67, 59
1, 194111, Note_on_c, 0, 69, 45
1, 194174, Note_off_c, 0, 69, 52
1, 194379, Note_on_c, 0, 54, 40
1, 194469, Control_c, 0, 64, 108
1, 194469, Control_c, 1, 64, 108
1, 194488, Control_c, 1, 64, 67
1, 194488, Control_c, 0, 64, 67
1, 194505, Control_c, 0, 64, 41
1, 194505, Control_c, 1, 64, 41
1, 194517, Note_on_c, 0, 81, 54
1, 194523, Control_c, 0, 64, 34
1, 194523, Control_c, 1, 64, 34
1, 194528, Note_off_c, 0, 73, 42
1, 194541, Note_on_c, 0, 74, 51
1, 194562, Control_c, 0, 64, 49
1, 194562, Control_c, 1, 64, 49
1, 194581, Control_c, 1, 64, 75
1, 194581, Control_c, 0, 64, 75
1, 194596, Note_off_c, 0, 82, 42
1, 194599, Control_c, 0, 64, 127
1, 194599, Control_c, 1, 64, 127
1, 194742, Note_off_c, 0, 54, 37
1, 194799, Note_on_c, 0, 57, 36
1, 194936, Note_on_c, 0, 82, 58
1, 194943, Note_on_c, 0, 73, 42
1, 194944, Note_off_c, 0, 74, 40
1, 194988, Note_off_c, 0, 57, 35
1, 194989, Note_off_c, 0, 81, 62
1, 195074, Note_on_c, 0, 41, 34
1, 195359, Note_off_c, 0, 82, 63
1, 195367, Control_c, 0, 64, 84
1, 195367, Control_c, 1, 64, 84
1, 195373, Note_off_c, 0, 73, 58
1, 195373, Note_on_c, 0, 81, 56
1, 195385, Control_c, 0, 64, 54
1, 195385, Control_c, 1, 64, 54
1, 195387, Note_off_c, 0, 41, 50
1, 195387, Note_on_c, 0, 53, 42
1, 195406, Control_c, 0, 64, 33
1, 195406, Control_c, 1, 64, 33
1, 195417, Note_on_c, 0, 74, 35
1, 195460, Control_c, 0, 64, 48
1, 195460, Control_c, 1, 64, 48
1, 195480, Control_c, 1, 64, 74
1, 195480, Control_c, 0, 64, 74
1, 195498, Control_c, 0, 64, 127
1, 195498, Control_c, 1, 64, 127
1, 195536, Note_off_c, 0, 53, 50
1, 195544, Note_off_c, 0, 74, 64
1, 195544, Note_on_c, 0, 74, 25
1, 195648, Note_on_c, 0, 38, 40
1, 195732, Note_off_c, 0, 38, 53
1, 195758, Note_off_c, 0, 81, 53
1, 195766, Note_on_c, 0, 77, 56
1, 195805, Note_on_c, 0, 69, 28
1, 195815, Note_off_c, 0, 74, 37
1, 195942, Note_off_c, 0, 69, 36
1, 195994, Note_on_c, 0, 50, 38
1, 196001, Control_c, 0, 64, 76
1, 196001, Control_c, 1, 64, 76
1, 196024, Control_c, 1, 64, 55
1, 196024, Control_c, 0, 64, 55
1, 196039, Note_off_c, 0, 50, 53
1, 196061, Control_c, 0, 64, 66
1, 196061, Control_c, 1, 64, 66
1, 196079, Control_c, 1, 64, 90
1, 196079, Control_c, 0, 64, 90
1, 196098, Control_c, 0, 64, 127
1, 196098, Control_c, 1, 64, 127
1, 196361, Note_on_c, 0, 43, 34
1, 196378, Control_c, 0, 64, 69
1, 196378, Control_c, 1, 64, 69
1, 196397, Control_c, 1, 64, 33
1, 196397, Control_c, 0, 64, 33
1, 196417, Control_c, 0, 64, 13
1, 196417, Control_c, 1, 64, 13
1, 196452, Control_c, 1, 64, 21
1, 196452, Control_c, 0, 64, 21
1, 196473, Control_c, 0, 64, 43
1, 196473, Control_c, 1, 64, 43
1, 196489, Note_on_c, 0, 71, 43
1, 196492, Control_c, 0, 64, 82
1, 196492, Control_c, 1, 64, 82
1, 196498, Note_on_c, 0, 67, 31
1, 196509, Control_c, 0, 64, 127
1, 196509, Control_c, 1, 64, 127
1, 196543, Note_off_c, 0, 43, 61
1, 196768, Note_off_c, 0, 67, 35
1, 196935, Note_on_c, 0, 91, 42
1, 197003, Note_on_c, 0, 69, 38
1, 197003, Note_on_c, 0, 72, 59
1, 197034, Note_off_c, 0, 71, 52
1, 197034, Note_off_c, 0, 77, 52
1, 197052, Note_off_c, 0, 91, 58
1, 197122, Note_on_c, 0, 78, 58
1, 197314, Control_c, 0, 64, 113
1, 197314, Control_c, 1, 64, 113
1, 197323, Note_off_c, 0, 78, 60
1, 197331, Control_c, 0, 64, 75
1, 197331, Control_c, 1, 64, 75
1, 197352, Control_c, 1, 64, 61
1, 197352, Control_c, 0, 64, 61
1, 197356, Note_on_c, 0, 74, 54
1, 197357, Note_off_c, 0, 69, 47
1, 197370, Control_c, 0, 64, 64
1, 197370, Control_c, 1, 64, 64
1, 197379, Note_off_c, 0, 72, 48
1, 197379, Poly_aftertouch_c, 0, 72, 0
1, 197384, Note_on_c, 0, 79, 45
1, 197387, Control_c, 0, 64, 74
1, 197387, Control_c, 1, 64, 74
1, 197408, Control_c, 1, 64, 102
1, 197408, Control_c, 0, 64, 102
1, 197427, Control_c, 0, 64, 127
1, 197427, Control_c, 1, 64, 127
1, 197480, Note_off_c, 0, 79, 61
1, 197498, Poly_aftertouch_c, 0, 71, 0
1, 197531, Note_off_c, 0, 74, 56
1, 197604, Note_on_c, 0, 65, 56
1, 197735, Note_on_c, 0, 80, 72
1, 197779, Note_off_c, 0, 65, 59
1, 197785, Note_on_c, 0, 71, 42
1, 197924, Note_on_c, 0, 67, 39
1, 198017, Note_off_c, 0, 67, 61
1, 198152, Note_on_c, 0, 52, 44
1, 198212, Control_c, 0, 64, 107
1, 198212, Control_c, 1, 64, 107
1, 198232, Control_c, 1, 64, 67
1, 198232, Control_c, 0, 64, 67
1, 198242, Note_on_c, 0, 79, 56
1, 198250, Control_c, 0, 64, 41
1, 198250, Control_c, 1, 64, 41
1, 198268, Note_off_c, 0, 71, 49
1, 198269, Control_c, 0, 64, 31
1, 198269, Control_c, 1, 64, 31
1, 198279, Note_on_c, 0, 72, 34
1, 198306, Control_c, 0, 64, 35
1, 198306, Control_c, 1, 64, 35
1, 198319, Note_off_c, 0, 80, 60
1, 198324, Control_c, 0, 64, 54
1, 198324, Control_c, 1, 64, 54
1, 198344, Control_c, 1, 64, 82
1, 198344, Control_c, 0, 64, 82
1, 198363, Control_c, 0, 64, 127
1, 198363, Control_c, 1, 64, 127
1, 198467, Note_off_c, 0, 52, 54
1, 198467, Poly_aftertouch_c, 0, 52, 0
1, 198523, Note_on_c, 0, 55, 42
1, 198611, Note_off_c, 0, 72, 39
1, 198611, Poly_aftertouch_c, 0, 72, 0
1, 198619, Note_on_c, 0, 80, 64
1, 198624, Note_off_c, 0, 55, 61
1, 198634, Note_on_c, 0, 71, 33
1, 198673, Note_off_c, 0, 79, 63
1, 198818, Note_on_c, 0, 39, 58
1, 198998, Control_c, 0, 64, 104
1, 198998, Control_c, 1, 64, 104
1, 199018, Control_c, 1, 64, 63
1, 199018, Control_c, 0, 64, 63
1, 199036, Control_c, 0, 64, 30
1, 199036, Control_c, 1, 64, 30
1, 199038, Note_on_c, 0, 79, 52
1, 199054, Control_c, 0, 64, 10
1, 199054, Control_c, 1, 64, 10
1, 199071, Note_on_c, 0, 72, 50
1, 199102, Note_off_c, 0, 71, 41
1, 199107, Note_on_c, 0, 51, 43
1, 199111, Control_c, 0, 64, 24
1, 199111, Control_c, 1, 64, 24
1, 199118, Note_off_c, 0, 80, 62
1, 199125, Note_off_c, 0, 39, 58
1, 199130, Control_c, 0, 64, 52
1, 199130, Control_c, 1, 64, 52
1, 199149, Control_c, 1, 64, 92
1, 199149, Control_c, 0, 64, 92
1, 199167, Control_c, 0, 64, 127
1, 199167, Control_c, 1, 64, 127
1, 199277, Note_off_c, 0, 51, 60
1, 199351, Note_on_c, 0, 36, 48
1, 199404, Note_off_c, 0, 36, 57
1, 199435, Note_on_c, 0, 75, 61
1, 199449, Note_off_c, 0, 79, 55
1, 199471, Note_off_c, 0, 72, 41
1, 199471, Poly_aftertouch_c, 0, 72, 0
1, 199478, Note_on_c, 0, 67, 34
1, 199520, Note_off_c, 0, 67, 52
1, 199642, Note_on_c, 0, 48, 48
1, 199733, Note_off_c, 0, 48, 47
1, 199768, Control_c, 0, 64, 112
1, 199768, Control_c, 1, 64, 112
1, 199784, Control_c, 1, 64, 88
1, 199784, Control_c, 0, 64, 88
1, 199804, Control_c, 0, 64, 73
1, 199804, Control_c, 1, 64, 73
1, 199822, Control_c, 1, 64, 66
1, 199822, Control_c, 0, 64, 66
1, 199842, Control_c, 0, 64, 64
1, 199842, Control_c, 1, 64, 64
1, 199859, Control_c, 1, 64, 58
1, 199859, Control_c, 0, 64, 58
1, 199879, Control_c, 0, 64, 52
1, 199879, Control_c, 1, 64, 52
1, 199897, Control_c, 1, 64, 45
1, 199897, Control_c, 0, 64, 45
1, 199916, Control_c, 0, 64, 37
1, 199916, Control_c, 1, 64, 37
1, 199922, Note_on_c, 0, 41, 48
1, 199935, Control_c, 0, 64, 26
1, 199935, Control_c, 1, 64, 26
1, 199953, Control_c, 1, 64, 9
1, 199953, Control_c, 0, 64, 9
1, 199972, Control_c, 0, 64, 0
1, 199972, Control_c, 1, 64, 0
1, 200042, Note_on_c, 0, 69, 58
1, 200047, Control_c, 0, 64, 20
1, 200047, Control_c, 1, 64, 20
1, 200065, Control_c, 1, 64, 50
1, 200065, Control_c, 0, 64, 50
1, 200084, Control_c, 0, 64, 89
1, 200084, Control_c, 1, 64, 89
1, 200092, Note_on_c, 0, 65, 18
1, 200104, Control_c, 0, 64, 127
1, 200104, Control_c, 1, 64, 127
1, 200109, Note_off_c, 0, 41, 61
1, 200358, Note_off_c, 0, 65, 41
1, 200489, Note_on_c, 0, 89, 55
1, 200517, Note_off_c, 0, 75, 30
1, 200588, Note_on_c, 0, 70, 68
1, 200601, Note_off_c, 0, 89, 59
1, 200615, Poly_aftertouch_c, 0, 89, 0
1, 200626, Note_on_c, 0, 67, 26
1, 200663, Note_off_c, 0, 69, 51
1, 200698, Note_on_c, 0, 76, 56
1, 200910, Note_off_c, 0, 76, 63
1, 200926, Control_c, 0, 64, 101
1, 200926, Control_c, 1, 64, 101
1, 200947, Control_c, 1, 64, 67
1, 200947, Control_c, 0, 64, 67
1, 200955, Note_on_c, 0, 72, 53
1, 200962, Note_off_c, 0, 67, 55
1, 200963, Note_off_c, 0, 70, 60
1, 200966, Control_c, 0, 64, 55
1, 200966, Control_c, 1, 64, 55
1, 200968, Note_on_c, 0, 69, 50
1, 200974, Note_on_c, 0, 77, 45
1, 200984, Control_c, 0, 64, 60
1, 200984, Control_c, 1, 64, 60
1, 201001, Control_c, 1, 64, 70
1, 201001, Control_c, 0, 64, 70
1, 201020, Control_c, 0, 64, 97
1, 201020, Control_c, 1, 64, 97
1, 201039, Control_c, 1, 64, 127
1, 201039, Control_c, 0, 64, 127
1, 201073, Note_off_c, 0, 69, 64
1, 201073, Note_on_c, 0, 69, 37
1, 201122, Note_off_c, 0, 77, 24
1, 201205, Note_on_c, 0, 63, 60
1, 201351, Note_off_c, 0, 69, 56
1, 201360, Note_on_c, 0, 77, 59
1, 201361, Note_off_c, 0, 63, 61
1, 201392, Note_off_c, 0, 72, 53
1, 201392, Note_on_c, 0, 70, 47
1, 201392, Poly_aftertouch_c, 0, 72, 0
1, 201558, Note_on_c, 0, 62, 43
1, 201764, Note_off_c, 0, 62, 52
1, 201787, Note_on_c, 0, 52, 53
1, 201806, Control_c, 0, 64, 69
1, 201806, Control_c, 1, 64, 69
1, 201826, Control_c, 1, 64, 29
1, 201826, Control_c, 0, 64, 29
1, 201837, Note_off_c, 0, 77, 50
1, 201866, Note_on_c, 0, 68, 61
1, 201881, Control_c, 0, 64, 19
1, 201881, Control_c, 1, 64, 19
1, 201901, Control_c, 1, 64, 52
1, 201901, Control_c, 0, 64, 52
1, 201910, Note_on_c, 0, 64, 35
1, 201918, Note_off_c, 0, 70, 56
1, 201919, Control_c, 0, 64, 127
1, 201919, Control_c, 1, 64, 127
1, 201943, Note_off_c, 0, 52, 60
1, 201943, Poly_aftertouch_c, 0, 52, 0
1, 201982, Note_off_c, 0, 64, 60
1, 202240, Note_on_c, 0, 88, 58
1, 202320, Note_on_c, 0, 69, 55
1, 202349, Note_on_c, 0, 66, 40
1, 202354, Note_off_c, 0, 88, 57
1, 202440, Note_on_c, 0, 75, 58
1, 202589, Poly_aftertouch_c, 0, 68, 22
1, 202644, Note_off_c, 0, 75, 62
1, 202686, Control_c, 0, 64, 114
1, 202686, Control_c, 1, 64, 114
1, 202700, Note_off_c, 0, 69, 54
1, 202703, Note_on_c, 0, 71, 61
1, 202704, Control_c, 0, 64, 72
1, 202704, Control_c, 1, 64, 72
1, 202706, Note_off_c, 0, 66, 54
1, 202723, Control_c, 0, 64, 52
1, 202723, Control_c, 1, 64, 52
1, 202754, Note_on_c, 0, 76, 44
1, 202761, Control_c, 0, 64, 64
1, 202761, Control_c, 1, 64, 64
1, 202781, Control_c, 1, 64, 89
1, 202781, Control_c, 0, 64, 89
1, 202800, Control_c, 0, 64, 127
1, 202800, Control_c, 1, 64, 127
1, 202846, Note_off_c, 0, 76, 60
1, 202861, Poly_aftertouch_c, 0, 68, 32
1, 202967, Note_on_c, 0, 62, 63
1, 203048, Note_off_c, 0, 71, 50
1, 203066, Note_on_c, 0, 76, 61
1, 203095, Note_off_c, 0, 62, 60
1, 203133, Note_on_c, 0, 69, 41
1, 203152, Note_off_c, 0, 68, 36
1, 203152, Poly_aftertouch_c, 0, 68, 0
1, 203153, Poly_aftertouch_c, 0, 68, 0
1, 203286, Note_on_c, 0, 60, 63
1, 203531, Note_off_c, 0, 60, 47
1, 203557, Note_on_c, 0, 47, 54
1, 203605, Control_c, 0, 64, 74
1, 203605, Control_c, 1, 64, 74
1, 203623, Control_c, 1, 64, 41
1, 203623, Control_c, 0, 64, 41
1, 203641, Control_c, 0, 64, 23
1, 203641, Control_c, 1, 64, 23
1, 203666, Note_on_c, 0, 62, 60
1, 203671, Note_off_c, 0, 76, 46
1, 203677, Control_c, 0, 64, 38
1, 203677, Control_c, 1, 64, 38
1, 203695, Control_c, 1, 64, 72
1, 203695, Control_c, 0, 64, 72
1, 203701, Note_on_c, 0, 65, 38
1, 203715, Note_off_c, 0, 47, 63
1, 203717, Control_c, 0, 64, 127
1, 203717, Control_c, 1, 64, 127
1, 203732, Note_off_c, 0, 69, 46
1, 203751, Poly_aftertouch_c, 0, 66, 0
1, 203762, Note_off_c, 0, 65, 47
1, 204032, Note_on_c, 0, 81, 60
1, 204053, Note_off_c, 0, 62, 58
1, 204073, Note_on_c, 0, 74, 56
1, 204106, Note_on_c, 0, 65, 33
1, 204133, Note_off_c, 0, 81, 56
1, 204200, Note_on_c, 0, 69, 54
1, 204248, Note_off_c, 0, 69, 61
1, 204577, Control_c, 0, 64, 105
1, 204577, Control_c, 1, 64, 105
1, 204583, Note_on_c, 0, 40, 50
1, 204589, Note_on_c, 0, 64, 47
1, 204595, Control_c, 0, 64, 65
1, 204595, Control_c, 1, 64, 65
1, 204614, Control_c, 1, 64, 35
1, 204614, Control_c, 0, 64, 35
1, 204623, Note_off_c, 0, 65, 52
1, 204633, Control_c, 0, 64, 21
1, 204633, Control_c, 1, 64, 21
1, 204669, Control_c, 1, 64, 25
1, 204669, Control_c, 0, 64, 25
1, 204689, Control_c, 0, 64, 47
1, 204689, Control_c, 1, 64, 47
1, 204708, Control_c, 1, 64, 89
1, 204708, Control_c, 0, 64, 89
1, 204727, Control_c, 0, 64, 127
1, 204727, Control_c, 1, 64, 127
1, 204735, Note_off_c, 0, 40, 62
1, 204997, Note_off_c, 0, 64, 56
1, 205052, Note_on_c, 0, 80, 52
1, 205155, Note_on_c, 0, 72, 56
1, 205191, Note_on_c, 0, 64, 28
1, 205259, Note_off_c, 0, 80, 43
1, 205290, Note_on_c, 0, 68, 55
1, 205299, Note_off_c, 0, 74, 30
1, 205375, Note_off_c, 0, 68, 51
1, 205451, Poly_aftertouch_c, 0, 64, 24
1, 205517, Note_off_c, 0, 64, 34
1, 205517, Poly_aftertouch_c, 0, 64, 0
1, 205753, Note_on_c, 0, 45, 36
1, 205793, Control_c, 0, 64, 82
1, 205793, Control_c, 1, 64, 82
1, 205812, Control_c, 1, 64, 51
1, 205812, Control_c, 0, 64, 51
1, 205831, Control_c, 0, 64, 25
1, 205831, Control_c, 1, 64, 25
1, 205848, Note_on_c, 0, 71, 46
1, 205851, Control_c, 0, 64, 16
1, 205851, Control_c, 1, 64, 16
1, 205867, Note_on_c, 0, 62, 41
1, 205906, Control_c, 0, 64, 28
1, 205906, Control_c, 1, 64, 28
1, 205915, Note_off_c, 0, 72, 33
1, 205915, Poly_aftertouch_c, 0, 72, 0
1, 205922, Control_c, 0, 64, 53
1, 205922, Control_c, 1, 64, 53
1, 205943, Control_c, 1, 64, 93
1, 205943, Control_c, 0, 64, 93
1, 205962, Control_c, 0, 64, 127
1, 205962, Control_c, 1, 64, 127
1, 205999, Note_off_c, 0, 45, 61
1, 206368, Note_on_c, 0, 77, 43
1, 206402, Note_on_c, 0, 68, 41
1, 206479, Note_off_c, 0, 77, 51
1, 206702, Note_on_c, 0, 65, 43
1, 206852, Note_off_c, 0, 62, 36
1, 207106, Note_on_c, 0, 76, 39
1, 207146, Note_off_c, 0, 65, 41
1, 207251, Note_on_c, 0, 69, 40
1, 207254, Control_c, 0, 64, 81
1, 207254, Control_c, 1, 64, 81
1, 207272, Control_c, 1, 64, 61
1, 207272, Note_on_c, 0, 60, 28
1, 207272, Control_c, 0, 64, 61
1, 207291, Control_c, 0, 64, 54
1, 207291, Control_c, 1, 64, 54
1, 207316, Note_off_c, 0, 68, 40
1, 207366, Control_c, 0, 64, 57
1, 207366, Control_c, 1, 64, 57
1, 207374, Note_off_c, 0, 71, 35
1, 207385, Control_c, 0, 64, 66
1, 207385, Control_c, 1, 64, 66
1, 207403, Control_c, 1, 64, 86
1, 207403, Control_c, 0, 64, 86
1, 207422, Control_c, 0, 64, 127
1, 207422, Control_c, 1, 64, 127
1, 207536, Note_off_c, 0, 76, 57
1, 208030, Note_on_c, 0, 64, 30
1, 208202, Note_off_c, 0, 64, 35
1, 208202, Poly_aftertouch_c, 0, 64, 0
1, 208402, Note_off_c, 0, 60, 38
1, 208501, Note_off_c, 0, 69, 57
1, 208807, Control_c, 0, 64, 118
1, 208807, Control_c, 1, 64, 118
1, 208826, Control_c, 1, 64, 110
1, 208826, Control_c, 0, 64, 110
1, 208864, Control_c, 0, 64, 104
1, 208864, Control_c, 1, 64, 104
1, 208882, Control_c, 1, 64, 100
1, 208882, Control_c, 0, 64, 100
1, 208901, Control_c, 0, 64, 95
1, 208901, Control_c, 1, 64, 95
1, 208920, Control_c, 1, 64, 90
1, 208920, Control_c, 0, 64, 90
1, 208939, Control_c, 0, 64, 87
1, 208939, Control_c, 1, 64, 87
1, 208995, Control_c, 1, 64, 85
1, 208995, Control_c, 0, 64, 85
1, 209033, Control_c, 0, 64, 82
1, 209033, Control_c, 1, 64, 82
1, 209051, Control_c, 1, 64, 79
1, 209051, Control_c, 0, 64, 79
1, 209070, Control_c, 0, 64, 76
1, 209070, Control_c, 1, 64, 76
1, 209088, Control_c, 1, 64, 72
1, 209088, Control_c, 0, 64, 72
1, 209106, Control_c, 0, 64, 69
1, 209106, Control_c, 1, 64, 69
1, 209126, Control_c, 1, 64, 67
1, 209126, Control_c, 0, 64, 67
1, 209144, Control_c, 0, 64, 65
1, 209144, Control_c, 1, 64, 65
1, 209163, Control_c, 1, 64, 63
1, 209163, Control_c, 0, 64, 63
1, 209181, Control_c, 0, 64, 59
1, 209181, Control_c, 1, 64, 59
1, 209201, Control_c, 1, 64, 54
1, 209201, Control_c, 0, 64, 54
1, 209218, Control_c, 0, 64, 45
1, 209218, Control_c, 1, 64, 45
1, 209238, Control_c, 1, 64, 34
1, 209238, Control_c, 0, 64, 34
1, 209249, Note_on_c, 0, 33, 48
1, 209257, Control_c, 0, 64, 17
1, 209257, Control_c, 1, 64, 17
1, 209287, Note_off_c, 0, 33, 50
1, 209287, Note_on_c, 0, 45, 12
1, 209293, Control_c, 0, 64, 0
1, 209293, Control_c, 1, 64, 0
1, 209360, Note_off_c, 0, 45, 26
1, 209502, Note_on_c, 0, 81, 53
1, 209514, Note_on_c, 0, 69, 43
1, 209517, Note_on_c, 0, 72, 35
1, 209526, Note_on_c, 0, 57, 42
1, 209564, Note_off_c, 0, 57, 50
1, 209612, Poly_aftertouch_c, 0, 47, 0
1, 209627, Poly_aftertouch_c, 0, 45, 0
1, 209676, Note_off_c, 0, 69, 53
1, 209695, Note_off_c, 0, 72, 53
1, 209695, Note_on_c, 0, 48, 57
1, 209695, Poly_aftertouch_c, 0, 72, 0
1, 209695, Poly_aftertouch_c, 0, 72, 0
1, 209704, Note_on_c, 0, 60, 40
1, 209726, Note_off_c, 0, 81, 59
1, 209729, Note_off_c, 0, 48, 62
1, 209746, Note_off_c, 0, 60, 37
1, 209849, Note_on_c, 0, 84, 72
1, 209856, Note_on_c, 0, 76, 55
1, 209859, Note_on_c, 0, 72, 43
1, 209862, Note_on_c, 0, 47, 58
1, 209869, Note_on_c, 0, 59, 43
1, 209899, Note_off_c, 0, 47, 64
1, 209904, Note_off_c, 0, 59, 38
1, 209957, Note_off_c, 0, 76, 64
1, 209957, Note_on_c, 0, 76, 17
1, 209965, Note_off_c, 0, 72, 64
1, 209965, Note_on_c, 0, 72, 13
1, 210005, Note_on_c, 0, 45, 70
1, 210009, Note_on_c, 0, 57, 55
1, 210041, Note_off_c, 0, 45, 63
1, 210042, Note_off_c, 0, 57, 58
1, 210043, Note_off_c, 0, 76, 60
1, 210048, Note_off_c, 0, 72, 59
1, 210052, Note_off_c, 0, 84, 62
1, 210167, Note_on_c, 0, 83, 61
1, 210180, Note_on_c, 0, 74, 39
1, 210188, Note_on_c, 0, 71, 28
1, 210294, Note_off_c, 0, 74, 64
1, 210294, Note_on_c, 0, 74, 14
1, 210299, Note_on_c, 0, 28, 68
1, 210311, Note_on_c, 0, 40, 51
1, 210331, Note_off_c, 0, 28, 59
1, 210349, Note_off_c, 0, 40, 51
1, 210359, Note_off_c, 0, 83, 59
1, 210359, Note_off_c, 0, 71, 57
1, 210364, Note_off_c, 0, 74, 60
1, 210476, Note_on_c, 0, 81, 70
1, 210487, Note_on_c, 0, 69, 54
1, 210488, Note_on_c, 0, 45, 62
1, 210490, Note_on_c, 0, 72, 46
1, 210497, Note_on_c, 0, 57, 54
1, 210515, Note_off_c, 0, 45, 58
1, 210529, Note_off_c, 0, 57, 58
1, 210625, Note_on_c, 0, 60, 75
1, 210631, Note_on_c, 0, 48, 69
1, 210637, Note_off_c, 0, 72, 60
1, 210637, Note_off_c, 0, 69, 59
1, 210638, Note_off_c, 0, 81, 62
1, 210657, Note_off_c, 0, 60, 69
1, 210667, Note_off_c, 0, 48, 65
1, 210767, Note_on_c, 0, 68, 68
1, 210771, Note_on_c, 0, 59, 66
1, 210773, Note_on_c, 0, 80, 69
1, 210776, Note_on_c, 0, 47, 74
1, 210785, Note_on_c, 0, 71, 50
1, 210804, Note_off_c, 0, 59, 63
1, 210809, Note_off_c, 0, 47, 66
1, 210916, Note_on_c, 0, 52, 72
1, 210919, Note_off_c, 0, 80, 63
1, 210926, Note_off_c, 0, 71, 61
1, 210927, Note_on_c, 0, 40, 67
1, 210943, Note_off_c, 0, 68, 60
1, 210954, Note_off_c, 0, 52, 66
1, 210954, Poly_aftertouch_c, 0, 52, 0
1, 210957, Note_off_c, 0, 40, 58
1, 211079, Note_on_c, 0, 76, 69
1, 211088, Note_on_c, 0, 64, 60
1, 211096, Note_on_c, 0, 68, 52
1, 211209, Note_off_c, 0, 64, 51
1, 211209, Poly_aftertouch_c, 0, 64, 0
1, 211214, Note_on_c, 0, 45, 67
1, 211220, Note_on_c, 0, 33, 60
1, 211235, Note_off_c, 0, 68, 60
1, 211249, Note_off_c, 0, 45, 65
1, 211257, Note_off_c, 0, 33, 52
1, 211263, Note_off_c, 0, 76, 60
1, 211379, Note_on_c, 0, 81, 72
1, 211394, Note_on_c, 0, 72, 55
1, 211396, Note_on_c, 0, 45, 60
1, 211396, Note_on_c, 0, 69, 53
1, 211404, Note_on_c, 0, 57, 50
1, 211423, Note_off_c, 0, 45, 57
1, 211439, Note_off_c, 0, 57, 54
1, 211505, Note_off_c, 0, 72, 64
1, 211505, Note_on_c, 0, 72, 29
1, 211521, Note_off_c, 0, 69, 57
1, 211522, Poly_aftertouch_c, 0, 69, 0
1, 211525, Note_on_c, 0, 60, 71
1, 211526, Note_on_c, 0, 48, 69
1, 211542, Note_off_c, 0, 72, 60
1, 211556, Note_off_c, 0, 60, 62
1, 211564, Note_off_c, 0, 48, 65
1, 211566, Note_off_c, 0, 81, 60
1, 211572, Poly_aftertouch_c, 0, 51, 0
1, 211607, Poly_aftertouch_c, 0, 54, 0
1, 211674, Note_on_c, 0, 84, 79
1, 211675, Note_on_c, 0, 59, 73
1, 211684, Note_on_c, 0, 47, 68
1, 211688, Note_on_c, 0, 76, 62
1, 211690, Note_on_c, 0, 72, 59
1, 211702, Note_off_c, 0, 59, 68
1, 211716, Note_off_c, 0, 47, 65
1, 211754, Note_on_c, 0, 78, 17
1, 211819, Note_on_c, 0, 57, 64
1, 211820, Note_on_c, 0, 45, 70
1, 211839, Note_off_c, 0, 78, 22
1, 211851, Note_off_c, 0, 57, 63
1, 211863, Note_off_c, 0, 76, 59
1, 211863, Note_off_c, 0, 72, 60
1, 211866, Note_off_c, 0, 45, 64
1, 211868, Note_off_c, 0, 84, 60
1, 211979, Note_on_c, 0, 83, 69
1, 211993, Note_on_c, 0, 74, 55
1, 211994, Note_on_c, 0, 71, 54
1, 212099, Note_on_c, 0, 28, 67
1, 212110, Note_on_c, 0, 40, 53
1, 212138, Note_off_c, 0, 28, 57
1, 212143, Note_off_c, 0, 40, 53
1, 212167, Note_off_c, 0, 71, 60
1, 212168, Note_off_c, 0, 74, 60
1, 212169, Note_off_c, 0, 83, 60
1, 212263, Note_on_c, 0, 81, 78
1, 212276, Note_on_c, 0, 45, 67
1, 212279, Note_on_c, 0, 69, 57
1, 212288, Note_on_c, 0, 57, 64
1, 212288, Note_on_c, 0, 72, 48
1, 212317, Note_off_c, 0, 45, 65
1, 212323, Note_off_c, 0, 57, 63
1, 212325, Note_on_c, 0, 47, 27
1, 212326, Note_off_c, 0, 47, 127
1, 212405, Note_off_c, 0, 69, 58
1, 212420, Note_off_c, 0, 72, 61
1, 212431, Note_on_c, 0, 60, 76
1, 212434, Note_on_c, 0, 48, 75
1, 212452, Note_off_c, 0, 81, 63
1, 212461, Note_off_c, 0, 60, 68
1, 212468, Note_off_c, 0, 48, 65
1, 212514, Control_c, 0, 67, 118
1, 212514, Control_c, 1, 67, 118
1, 212532, Control_c, 1, 67, 112
1, 212532, Control_c, 0, 67, 112
1, 212551, Control_c, 0, 67, 106
1, 212551, Control_c, 1, 67, 106
1, 212569, Control_c, 1, 67, 101
1, 212569, Control_c, 0, 67, 101
1, 212577, Note_on_c, 0, 87, 80
1, 212579, Note_on_c, 0, 59, 73
1, 212579, Note_on_c, 0, 47, 80
1, 212592, Note_on_c, 0, 75, 64
1, 212607, Note_off_c, 0, 59, 64
1, 212612, Note_off_c, 0, 47, 67
1, 212612, Note_on_c, 0, 78, 33
1, 212624, Note_on_c, 0, 88, 52
1, 212644, Control_c, 0, 67, 97
1, 212644, Control_c, 1, 67, 97
1, 212671, Note_off_c, 0, 88, 44
1, 212747, Note_on_c, 0, 40, 72
1, 212748, Note_on_c, 0, 52, 62
1, 212777, Note_off_c, 0, 52, 57
1, 212777, Poly_aftertouch_c, 0, 52, 0
1, 212779, Note_off_c, 0, 75, 63
1, 212780, Note_off_c, 0, 78, 51
1, 212791, Note_off_c, 0, 40, 63
1, 212802, Poly_aftertouch_c, 0, 42, 0
1, 212814, Control_c, 0, 67, 93
1, 212814, Control_c, 1, 67, 93
1, 212815, Note_off_c, 0, 87, 60
1, 212896, Note_on_c, 0, 88, 68
1, 212904, Note_on_c, 0, 76, 63
1, 212907, Note_on_c, 0, 80, 55
1, 212959, Note_off_c, 0, 80, 60
1, 212963, Note_off_c, 0, 88, 61
1, 213000, Note_off_c, 0, 76, 61
1, 213030, Note_on_c, 0, 45, 73
1, 213034, Note_on_c, 0, 33, 71
1, 213064, Note_off_c, 0, 33, 59
1, 213065, Note_off_c, 0, 45, 64
1, 213183, Note_on_c, 0, 69, 76
1, 213196, Note_on_c, 0, 81, 57
1, 213207, Note_on_c, 0, 57, 71
1, 213209, Note_on_c, 0, 45, 69
1, 213242, Note_off_c, 0, 57, 68
1, 213248, Note_off_c, 0, 45, 65
1, 213257, Note_on_c, 0, 72, 25
1, 213268, Note_off_c, 0, 81, 64
1, 213268, Note_on_c, 0, 81, 23
1, 213296, Note_off_c, 0, 72, 50
1, 213311, Poly_aftertouch_c, 0, 79, 0
1, 213314, Note_off_c, 0, 69, 59
1, 213341, Note_off_c, 0, 81, 61
1, 213364, Note_on_c, 0, 48, 58
1, 213364, Note_on_c, 0, 60, 54
1, 213380, Note_on_c, 0, 59, 41
1, 213381, Note_off_c, 0, 59, 127
1, 213393, Note_off_c, 0, 48, 58
1, 213399, Note_off_c, 0, 60, 57
1, 213513, Note_on_c, 0, 59, 73
1, 213516, Note_on_c, 0, 72, 76
1, 213526, Note_on_c, 0, 84, 71
1, 213531, Note_on_c, 0, 47, 53
1, 213534, Note_on_c, 0, 76, 55
1, 213543, Note_off_c, 0, 59, 67
1, 213567, Note_off_c, 0, 47, 56
1, 213671, Note_on_c, 0, 57, 59
1, 213676, Note_on_c, 0, 45, 70
1, 213700, Note_off_c, 0, 76, 60
1, 213713, Note_off_c, 0, 57, 64
1, 213715, Note_off_c, 0, 84, 62
1, 213723, Note_off_c, 0, 45, 62
1, 213725, Note_off_c, 0, 72, 59
1, 213841, Note_on_c, 0, 71, 55
1, 213842, Note_on_c, 0, 83, 58
1, 213866, Note_on_c, 0, 74, 38
1, 213895, Note_off_c, 0, 71, 64
1, 213895, Note_on_c, 0, 71, 24
1, 213966, Note_on_c, 0, 40, 59
1, 213970, Note_on_c, 0, 28, 60
1, 214006, Note_off_c, 0, 40, 62
1, 214010, Note_off_c, 0, 28, 51
1, 214017, Note_off_c, 0, 83, 62
1, 214028, Note_off_c, 0, 71, 62
1, 214029, Note_off_c, 0, 74, 50
1, 214030, Poly_aftertouch_c, 0, 74, 0
1, 214030, Control_c, 0, 67, 97
1, 214030, Control_c, 1, 67, 97
1, 214131, Note_on_c, 0, 69, 75
1, 214135, Note_on_c, 0, 81, 76
1, 214137, Note_on_c, 0, 45, 71
1, 214156, Note_on_c, 0, 72, 61
1, 214163, Note_on_c, 0, 57, 31
1, 214166, Note_on_c, 0, 55, 23
1, 214172, Note_off_c, 0, 45, 64
1, 214193, Note_off_c, 0, 57, 36
1, 214224, Note_off_c, 0, 55, 30
1, 214272, Control_c, 0, 67, 101
1, 214272, Control_c, 1, 67, 101
1, 214274, Note_off_c, 0, 72, 58
1, 214277, Note_on_c, 0, 60, 80
1, 214279, Note_off_c, 0, 69, 60
1, 214280, Note_off_c, 0, 81, 62
1, 214283, Note_on_c, 0, 48, 75
1, 214308, Note_off_c, 0, 60, 70
1, 214320, Note_off_c, 0, 48, 66
1, 214404, Control_c, 0, 67, 105
1, 214404, Control_c, 1, 67, 105
1, 214406, Poly_aftertouch_c, 0, 51, 0
1, 214415, Note_on_c, 0, 68, 86
1, 214422, Note_on_c, 0, 80, 76
1, 214422, Note_on_c, 0, 59, 76
1, 214427, Note_on_c, 0, 47, 80
1, 214441, Control_c, 0, 67, 109
1, 214441, Control_c, 1, 67, 109
1, 214453, Note_off_c, 0, 59, 69
1, 214453, Note_on_c, 0, 71, 49
1, 214460, Control_c, 0, 67, 113
1, 214460, Control_c, 1, 67, 113
1, 214465, Note_off_c, 0, 47, 68
1, 214498, Control_c, 0, 67, 118
1, 214498, Control_c, 1, 67, 118
1, 214535, Control_c, 1, 67, 125
1, 214535, Control_c, 0, 67, 125
1, 214584, Note_on_c, 0, 40, 80
1, 214586, Note_on_c, 0, 52, 72
1, 214589, Note_off_c, 0, 71, 56
1, 214590, Note_off_c, 0, 80, 64
1, 214609, Note_off_c, 0, 68, 64
1, 214620, Note_off_c, 0, 40, 64
1, 214621, Note_off_c, 0, 52, 64
1, 214621, Poly_aftertouch_c, 0, 52, 0
1, 214734, Note_on_c, 0, 64, 74
1, 214740, Note_on_c, 0, 76, 62
1, 214757, Note_on_c, 0, 68, 53
1, 214785, Note_on_c, 0, 74, 30
1, 214833, Note_off_c, 0, 74, 35
1, 214869, Note_on_c, 0, 45, 76
1, 214875, Note_on_c, 0, 33, 71
1, 214877, Note_off_c, 0, 68, 33
1, 214885, Note_off_c, 0, 64, 26
1, 214885, Poly_aftertouch_c, 0, 64, 0
1, 214898, Note_off_c, 0, 76, 59
1, 214903, Note_off_c, 0, 45, 65
1, 214906, Note_off_c, 0, 33, 59
1, 215029, Note_on_c, 0, 45, 79
1, 215037, Note_on_c, 0, 81, 63
1, 215038, Note_on_c, 0, 72, 59
1, 215039, Note_on_c, 0, 57, 74
1, 215048, Note_on_c, 0, 69, 48
1, 215060, Note_off_c, 0, 45, 64
1, 215060, Note_on_c, 0, 67, 40
1, 215072, Note_off_c, 0, 57, 66
1, 215089, Note_on_c, 0, 79, 13
1, 215106, Poly_aftertouch_c, 0, 46, 0
1, 215107, Note_off_c, 0, 67, 37
1, 215109, Note_off_c, 0, 79, 38
1, 215116, Note_on_c, 0, 46, 27
1, 215117, Note_off_c, 0, 46, 127
1, 215165, Note_off_c, 0, 69, 61
1, 215166, Note_off_c, 0, 72, 31
1, 215169, Note_on_c, 0, 48, 80
1, 215169, Note_on_c, 0, 60, 81
1, 215197, Note_off_c, 0, 60, 70
1, 215198, Note_off_c, 0, 81, 60
1, 215201, Note_off_c, 0, 48, 67
1, 215209, Note_on_c, 0, 51, 27
1, 215257, Note_off_c, 0, 51, 32
1, 215323, Note_on_c, 0, 72, 80
1, 215327, Note_on_c, 0, 59, 79
1, 215335, Note_on_c, 0, 84, 69
1, 215336, Note_on_c, 0, 76, 63
1, 215344, Note_on_c, 0, 47, 61
1, 215355, Note_off_c, 0, 59, 68
1, 215374, Note_off_c, 0, 47, 61
1, 215476, Note_on_c, 0, 57, 69
1, 215484, Note_on_c, 0, 45, 70
1, 215506, Note_off_c, 0, 76, 57
1, 215515, Note_off_c, 0, 57, 67
1, 215517, Note_off_c, 0, 84, 62
1, 215524, Note_off_c, 0, 72, 58
1, 215535, Note_off_c, 0, 45, 60
1, 215640, Note_on_c, 0, 71, 56
1, 215648, Note_on_c, 0, 83, 60
1, 215660, Note_on_c, 0, 74, 41
1, 215769, Note_on_c, 0, 28, 68
1, 215771, Note_on_c, 0, 40, 54
1, 215806, Note_off_c, 0, 28, 59
1, 215807, Note_off_c, 0, 40, 56
1, 215813, Note_off_c, 0, 83, 62
1, 215821, Note_off_c, 0, 74, 61
1, 215821, Note_off_c, 0, 71, 60
1, 215938, Note_on_c, 0, 81, 73
1, 215944, Note_on_c, 0, 45, 63
1, 215945, Note_on_c, 0, 72, 62
1, 215949, Note_on_c, 0, 57, 62
1, 215954, Note_on_c, 0, 69, 54
1, 215974, Note_off_c, 0, 45, 60
1, 215984, Note_off_c, 0, 57, 63
1, 216060, Note_off_c, 0, 69, 59
1, 216064, Note_off_c, 0, 72, 60
1, 216098, Note_on_c, 0, 48, 64
1, 216099, Note_on_c, 0, 60, 63
1, 216101, Note_off_c, 0, 81, 62
1, 216127, Note_off_c, 0, 60, 60
1, 216134, Note_off_c, 0, 48, 62
1, 216262, Note_on_c, 0, 47, 62
1, 216266, Note_on_c, 0, 59, 47
1, 216269, Note_on_c, 0, 75, 63
1, 216270, Note_on_c, 0, 78, 64
1, 216273, Note_on_c, 0, 87, 66
1, 216297, Note_off_c, 0, 59, 40
1, 216306, Note_off_c, 0, 47, 65
1, 216439, Note_on_c, 0, 52, 50
1, 216447, Note_on_c, 0, 40, 52
1, 216469, Note_off_c, 0, 78, 63
1, 216473, Note_off_c, 0, 52, 54
1, 216473, Poly_aftertouch_c, 0, 52, 0
1, 216481, Note_off_c, 0, 40, 55
1, 216484, Note_off_c, 0, 75, 59
1, 216504, Note_off_c, 0, 87, 60
1, 216602, Note_on_c, 0, 88, 66
1, 216617, Note_on_c, 0, 80, 57
1, 216617, Note_on_c, 0, 76, 57
1, 216669, Control_c, 0, 67, 121
1, 216669, Control_c, 1, 67, 121
1, 216749, Note_on_c, 0, 45, 85
1, 216751, Note_off_c, 0, 88, 62
1, 216758, Note_on_c, 0, 33, 76
1, 216790, Note_off_c, 0, 76, 63
1, 216793, Note_off_c, 0, 33, 64
1, 216793, Note_off_c, 0, 45, 64
1, 216795, Note_off_c, 0, 80, 63
1, 216875, Control_c, 0, 67, 116
1, 216875, Control_c, 1, 67, 116
1, 216894, Control_c, 1, 67, 106
1, 216894, Control_c, 0, 67, 106
1, 216913, Control_c, 0, 67, 93
1, 216913, Control_c, 1, 67, 93
1, 216931, Control_c, 1, 67, 78
1, 216931, Control_c, 0, 67, 78
1, 216946, Note_on_c, 0, 81, 94
1, 216947, Note_on_c, 0, 69, 85
1, 216949, Note_on_c, 0, 73, 83
1, 216949, Control_c, 0, 67, 65
1, 216949, Control_c, 1, 67, 65
1, 216955, Note_on_c, 0, 57, 84
1, 216968, Control_c, 0, 67, 51
1, 216968, Control_c, 1, 67, 51
1, 216988, Control_c, 1, 67, 38
1, 216988, Control_c, 0, 67, 38
1, 217004, Note_off_c, 0, 57, 65
1, 217005, Control_c, 0, 67, 23
1, 217005, Control_c, 1, 67, 23
1, 217025, Control_c, 1, 67, 8
1, 217025, Control_c, 0, 67, 8
1, 217042, Control_c, 0, 67, 0
1, 217042, Control_c, 1, 67, 0
1, 217104, Note_on_c, 0, 58, 93
1, 217104, Note_on_c, 0, 70, 101
1, 217133, Note_off_c, 0, 69, 61
1, 217149, Note_off_c, 0, 81, 62
1, 217154, Note_off_c, 0, 70, 64
1, 217161, Note_off_c, 0, 58, 66
1, 217165, Note_off_c, 0, 73, 62
1, 217248, Note_on_c, 0, 82, 92
1, 217252, Note_on_c, 0, 69, 105
1, 217255, Note_on_c, 0, 70, 88
1, 217256, Note_on_c, 0, 57, 98
1, 217260, Note_on_c, 0, 74, 74
1, 217291, Note_off_c, 0, 69, 66
1, 217300, Note_off_c, 0, 57, 63
1, 217384, Note_on_c, 0, 67, 99
1, 217390, Note_on_c, 0, 55, 94
1, 217394, Note_off_c, 0, 74, 60
1, 217411, Note_off_c, 0, 70, 64
1, 217426, Note_off_c, 0, 67, 67
1, 217440, Note_off_c, 0, 82, 66
1, 217444, Note_off_c, 0, 55, 66
1, 217474, Control_c, 0, 67, 9
1, 217474, Control_c, 1, 67, 9
1, 217494, Control_c, 1, 67, 13
1, 217494, Control_c, 0, 67, 13
1, 217511, Control_c, 0, 67, 21
1, 217511, Control_c, 1, 67, 21
1, 217529, Control_c, 1, 67, 33
1, 217529, Control_c, 0, 67, 33
1, 217536, Note_on_c, 0, 85, 80
1, 217543, Note_on_c, 0, 73, 71
1, 217548, Control_c, 0, 67, 49
1, 217548, Control_c, 1, 67, 49
1, 217554, Note_on_c, 0, 76, 53
1, 217568, Control_c, 0, 67, 64
1, 217568, Control_c, 1, 67, 64
1, 217586, Control_c, 1, 67, 73
1, 217586, Control_c, 0, 67, 73
1, 217604, Control_c, 0, 67, 79
1, 217604, Control_c, 1, 67, 79
1, 217624, Control_c, 1, 67, 84
1, 217624, Control_c, 0, 67, 84
1, 217641, Control_c, 0, 67, 93
1, 217641, Control_c, 1, 67, 93
1, 217661, Control_c, 1, 67, 106
1, 217661, Control_c, 0, 67, 106
1, 217680, Control_c, 0, 67, 117
1, 217680, Control_c, 1, 67, 117
1, 217688, Note_on_c, 0, 26, 77
1, 217695, Note_on_c, 0, 38, 67
1, 217699, Control_c, 0, 67, 126
1, 217699, Control_c, 1, 67, 126
1, 217727, Note_off_c, 0, 26, 62
1, 217733, Note_off_c, 0, 76, 60
1, 217736, Note_off_c, 0, 38, 63
1, 217757, Note_off_c, 0, 73, 60
1, 217776, Note_off_c, 0, 85, 64
1, 217884, Note_on_c, 0, 74, 67
1, 217885, Note_on_c, 0, 86, 68
1, 217892, Note_on_c, 0, 78, 38
1, 217906, Note_off_c, 0, 78, 43
1, 217909, Note_on_c, 0, 77, 53
1, 217921, Note_on_c, 0, 53, 44
1, 217922, Note_on_c, 0, 64, 34
1, 217943, Note_on_c, 0, 65, 25
1, 217960, Note_off_c, 0, 53, 53
1, 217966, Note_off_c, 0, 64, 44
1, 217966, Poly_aftertouch_c, 0, 64, 0
1, 218001, Note_off_c, 0, 65, 30
1, 218041, Note_off_c, 0, 74, 53
1, 218041, Note_on_c, 0, 52, 67
1, 218050, Note_off_c, 0, 77, 45
1, 218051, Poly_aftertouch_c, 0, 77, 0
1, 218060, Note_on_c, 0, 64, 56
1, 218062, Note_off_c, 0, 86, 59
1, 218079, Note_off_c, 0, 52, 63
1, 218079, Poly_aftertouch_c, 0, 52, 0
1, 218091, Note_off_c, 0, 64, 42
1, 218091, Poly_aftertouch_c, 0, 64, 0
1, 218177, Note_on_c, 0, 88, 72
1, 218185, Note_on_c, 0, 76, 63
1, 218187, Note_on_c, 0, 79, 61
1, 218194, Note_on_c, 0, 50, 57
1, 218197, Note_on_c, 0, 62, 47
1, 218226, Note_off_c, 0, 50, 59
1, 218231, Note_off_c, 0, 62, 36
1, 218318, Note_on_c, 0, 57, 77
1, 218318, Note_on_c, 0, 45, 82
1, 218345, Note_off_c, 0, 76, 60
1, 218349, Note_off_c, 0, 57, 69
1, 218354, Note_off_c, 0, 45, 65
1, 218355, Note_off_c, 0, 79, 61
1, 218374, Note_off_c, 0, 88, 63
1, 218429, Control_c, 0, 67, 122
1, 218429, Control_c, 1, 67, 122
1, 218446, Control_c, 1, 67, 116
1, 218446, Control_c, 0, 67, 116
1, 218466, Control_c, 0, 67, 108
1, 218466, Control_c, 1, 67, 108
1, 218468, Note_on_c, 0, 89, 78
1, 218475, Note_on_c, 0, 77, 70
1, 218476, Note_on_c, 0, 81, 68
1, 218485, Control_c, 0, 67, 98
1, 218485, Control_c, 1, 67, 98
1, 218504, Control_c, 1, 67, 89
1, 218504, Control_c, 0, 67, 89
1, 218522, Control_c, 0, 67, 85
1, 218522, Control_c, 1, 67, 85
1, 218595, Note_off_c, 0, 89, 63
1, 218601, Note_on_c, 0, 31, 85
1, 218606, Note_off_c, 0, 81, 61
1, 218612, Note_on_c, 0, 43, 51
1, 218615, Control_c, 0, 67, 79
1, 218615, Control_c, 1, 67, 79
1, 218627, Note_off_c, 0, 31, 67
1, 218633, Note_off_c, 0, 77, 63
1, 218636, Note_off_c, 0, 43, 67
1, 218709, Control_c, 0, 67, 75
1, 218709, Control_c, 1, 67, 75
1, 218747, Control_c, 1, 67, 70
1, 218747, Control_c, 0, 67, 70
1, 218766, Control_c, 0, 67, 65
1, 218766, Control_c, 1, 67, 65
1, 218774, Note_on_c, 0, 67, 84
1, 218774, Note_on_c, 0, 79, 92
1, 218783, Control_c, 0, 67, 60
1, 218783, Control_c, 1, 67, 60
1, 218785, Note_on_c, 0, 71, 70
1, 218785, Note_on_c, 0, 55, 81
1, 218803, Control_c, 0, 67, 54
1, 218803, Control_c, 1, 67, 54
1, 218826, Note_off_c, 0, 55, 62
1, 218840, Control_c, 0, 67, 49
1, 218840, Control_c, 1, 67, 49
1, 218877, Control_c, 1, 67, 44
1, 218877, Control_c, 0, 67, 44
1, 218897, Control_c, 0, 67, 37
1, 218897, Control_c, 1, 67, 37
1, 218912, Note_on_c, 0, 68, 98
1, 218915, Control_c, 0, 67, 28
1, 218915, Control_c, 1, 67, 28
1, 218916, Note_on_c, 0, 56, 93
1, 218933, Control_c, 0, 67, 20
1, 218933, Control_c, 1, 67, 20
1, 218948, Note_off_c, 0, 71, 42
1, 218949, Poly_aftertouch_c, 0, 71, 0
1, 218952, Control_c, 0, 67, 13
1, 218952, Control_c, 1, 67, 13
1, 218957, Note_off_c, 0, 67, 63
1, 218965, Note_off_c, 0, 68, 66
1, 218966, Note_off_c, 0, 79, 64
1, 218971, Control_c, 0, 67, 9
1, 218971, Control_c, 1, 67, 9
1, 218976, Note_off_c, 0, 56, 64
1, 219052, Note_on_c, 0, 80, 91
1, 219055, Note_on_c, 0, 67, 100
1, 219062, Note_on_c, 0, 55, 93
1, 219070, Note_on_c, 0, 68, 86
1, 219085, Note_on_c, 0, 72, 69
1, 219102, Note_off_c, 0, 67, 66
1, 219107, Note_on_c, 0, 75, 26
1, 219113, Note_off_c, 0, 55, 62
1, 219115, Note_on_c, 0, 57, 29
1, 219116, Note_off_c, 0, 57, 127
1, 219160, Note_off_c, 0, 75, 52
1, 219177, Note_off_c, 0, 72, 55
1, 219182, Poly_aftertouch_c, 0, 78, 0
1, 219191, Note_on_c, 0, 65, 98
1, 219195, Note_on_c, 0, 53, 97
1, 219217, Note_off_c, 0, 65, 66
1, 219234, Note_off_c, 0, 68, 63
1, 219246, Note_off_c, 0, 53, 62
1, 219266, Note_off_c, 0, 80, 63
1, 219290, Control_c, 0, 67, 15
1, 219290, Control_c, 1, 67, 15
1, 219308, Control_c, 1, 67, 21
1, 219308, Control_c, 0, 67, 21
1, 219327, Control_c, 0, 67, 30
1, 219327, Control_c, 1, 67, 30
1, 219343, Note_on_c, 0, 83, 83
1, 219344, Control_c, 0, 67, 39
1, 219344, Control_c, 1, 67, 39
1, 219358, Note_on_c, 0, 71, 68
1, 219363, Control_c, 0, 67, 45
1, 219363, Control_c, 1, 67, 45
1, 219369, Note_on_c, 0, 74, 59
1, 219382, Control_c, 0, 67, 50
1, 219382, Control_c, 1, 67, 50
1, 219421, Control_c, 1, 67, 55
1, 219421, Control_c, 0, 67, 55
1, 219440, Control_c, 0, 67, 62
1, 219440, Control_c, 1, 67, 62
1, 219457, Control_c, 1, 67, 73
1, 219457, Control_c, 0, 67, 73
1, 219476, Control_c, 0, 67, 88
1, 219476, Control_c, 1, 67, 88
1, 219496, Control_c, 1, 67, 100
1, 219496, Control_c, 0, 67, 100
1, 219505, Note_on_c, 0, 24, 74
1, 219514, Control_c, 0, 67, 112
1, 219514, Control_c, 1, 67, 112
1, 219516, Note_on_c, 0, 36, 61
1, 219533, Control_c, 0, 67, 118
1, 219533, Control_c, 1, 67, 118
1, 219542, Note_off_c, 0, 24, 62
1, 219548, Note_off_c, 0, 36, 56
1, 219550, Note_off_c, 0, 71, 57
1, 219555, Note_off_c, 0, 74, 57
1, 219578, Note_off_c, 0, 83, 60
1, 219691, Note_on_c, 0, 76, 65
1, 219693, Note_on_c, 0, 84, 72
1, 219697, Note_on_c, 0, 72, 61
1, 219715, Note_on_c, 0, 64, 52
1, 219747, Note_on_c, 0, 52, 16
1, 219747, Poly_aftertouch_c, 0, 52, 0
1, 219748, Note_off_c, 0, 64, 56
1, 219748, Note_off_c, 0, 52, 127
1, 219748, Poly_aftertouch_c, 0, 64, 0
1, 219825, Note_on_c, 0, 62, 42
1, 219834, Note_off_c, 0, 76, 58
1, 219837, Note_on_c, 0, 50, 63
1, 219839, Note_off_c, 0, 72, 57
1, 219866, Note_off_c, 0, 84, 63
1, 219899, Note_off_c, 0, 62, 38
1, 219903, Note_off_c, 0, 50, 51
1, 219978, Note_on_c, 0, 86, 79
1, 219980, Note_on_c, 0, 77, 68
1, 219985, Note_on_c, 0, 74, 65
1, 220010, Note_on_c, 0, 60, 66
1, 220019, Note_on_c, 0, 48, 63
1, 220049, Note_off_c, 0, 60, 63
1, 220065, Note_off_c, 0, 48, 65
1, 220077, Poly_aftertouch_c, 0, 80, 0
1, 220103, Note_off_c, 0, 74, 57
1, 220108, Note_off_c, 0, 77, 59
1, 220139, Note_off_c, 0, 86, 62
1, 220192, Note_on_c, 0, 41, 55
1, 220230, Note_off_c, 0, 41, 38
1, 220288, Note_on_c, 0, 88, 71
1, 220295, Note_on_c, 0, 79, 57
1, 220309, Note_on_c, 0, 76, 35
1, 220358, Control_c, 0, 67, 122
1, 220358, Control_c, 1, 67, 122
1, 220394, Control_c, 1, 67, 127
1, 220394, Control_c, 0, 67, 127
1, 220478, Note_on_c, 0, 26, 75
1, 220485, Note_on_c, 0, 38, 57
1, 220507, Note_off_c, 0, 79, 63
1, 220508, Poly_aftertouch_c, 0, 79, 0
1, 220512, Note_off_c, 0, 76, 60
1, 220520, Note_off_c, 0, 26, 59
1, 220524, Note_off_c, 0, 38, 54
1, 220540, Note_off_c, 0, 88, 62
1, 220655, Note_on_c, 0, 82, 75
1, 220663, Note_on_c, 0, 89, 77
1, 220671, Note_on_c, 0, 77, 63
1, 220697, Note_on_c, 0, 58, 54
1, 220701, Note_on_c, 0, 46, 53
1, 220727, Note_off_c, 0, 58, 60
1, 220735, Note_off_c, 0, 46, 58
1, 220822, Note_on_c, 0, 50, 77
1, 220827, Note_on_c, 0, 62, 69
1, 220831, Note_off_c, 0, 77, 59
1, 220848, Note_off_c, 0, 62, 65
1, 220850, Note_off_c, 0, 89, 64
1, 220853, Note_off_c, 0, 50, 64
1, 220858, Note_off_c, 0, 82, 63
1, 220949, Note_on_c, 0, 88, 77
1, 220965, Note_on_c, 0, 76, 69
1, 220971, Note_on_c, 0, 82, 65
1, 220973, Note_on_c, 0, 48, 73
1, 220975, Note_on_c, 0, 60, 66
1, 221007, Note_off_c, 0, 48, 65
1, 221016, Note_off_c, 0, 60, 63
1, 221108, Note_on_c, 0, 58, 63
1, 221108, Note_on_c, 0, 46, 78
1, 221131, Note_off_c, 0, 76, 61
1, 221148, Note_off_c, 0, 46, 69
1, 221149, Note_off_c, 0, 58, 66
1, 221151, Note_off_c, 0, 82, 63
1, 221258, Note_on_c, 0, 86, 66
1, 221271, Note_on_c, 0, 74, 49
1, 221273, Note_on_c, 0, 82, 51
1, 221276, Note_off_c, 0, 88, 57
1, 221377, Note_on_c, 0, 24, 77
1, 221386, Note_on_c, 0, 36, 63
1, 221412, Note_off_c, 0, 24, 62
1, 221423, Note_off_c, 0, 36, 60
1, 221425, Note_off_c, 0, 74, 44
1, 221426, Poly_aftertouch_c, 0, 74, 0
1, 221439, Note_off_c, 0, 82, 37
1, 221570, Note_on_c, 0, 45, 70
1, 221571, Note_on_c, 0, 76, 60
1, 221574, Note_on_c, 0, 88, 70
1, 221584, Note_on_c, 0, 57, 49
1, 221587, Note_on_c, 0, 81, 52
1, 221604, Note_off_c, 0, 45, 66
1, 221622, Note_off_c, 0, 57, 36
1, 221624, Note_off_c, 0, 86, 56
1, 221704, Note_off_c, 0, 76, 57
1, 221711, Note_on_c, 0, 48, 66
1, 221713, Note_on_c, 0, 60, 62
1, 221730, Note_off_c, 0, 88, 59
1, 221744, Note_off_c, 0, 60, 60
1, 221748, Note_off_c, 0, 48, 64
1, 221765, Note_off_c, 0, 81, 55
1, 221866, Note_on_c, 0, 86, 60
1, 221870, Note_on_c, 0, 47, 65
1, 221871, Note_on_c, 0, 59, 55
1, 221874, Note_on_c, 0, 74, 48
1, 221903, Note_on_c, 0, 81, 42
1, 221904, Note_off_c, 0, 59, 59
1, 221908, Note_off_c, 0, 47, 67
1, 222012, Note_on_c, 0, 57, 64
1, 222013, Note_on_c, 0, 45, 71
1, 222044, Note_off_c, 0, 74, 54
1, 222045, Poly_aftertouch_c, 0, 74, 0
1, 222052, Note_off_c, 0, 57, 65
1, 222058, Note_off_c, 0, 86, 62
1, 222062, Note_off_c, 0, 81, 59
1, 222064, Note_off_c, 0, 45, 61
1, 222166, Note_on_c, 0, 84, 67
1, 222177, Note_on_c, 0, 72, 58
1, 222185, Note_on_c, 0, 81, 47
1, 222288, Note_on_c, 0, 29, 75
1, 222296, Note_on_c, 0, 41, 60
1, 222324, Note_off_c, 0, 84, 56
1, 222328, Note_off_c, 0, 41, 57
1, 222332, Note_off_c, 0, 29, 63
1, 222341, Note_off_c, 0, 81, 61
1, 222357, Note_off_c, 0, 72, 47
1, 222473, Note_on_c, 0, 83, 65
1, 222479, Note_on_c, 0, 71, 59
1, 222482, Note_on_c, 0, 50, 53
1, 222482, Note_on_c, 0, 81, 58
1, 222519, Poly_aftertouch_c, 0, 62, 0
1, 222520, Note_off_c, 0, 50, 56
1, 222562, Poly_aftertouch_c, 0, 62, 0
1, 222593, Note_on_c, 0, 63, 73
1, 222595, Note_on_c, 0, 51, 77
1, 222623, Note_off_c, 0, 63, 70
1, 222627, Note_off_c, 0, 51, 68
1, 222678, Note_off_c, 0, 71, 47
1, 222729, Note_off_c, 0, 83, 55
1, 222733, Note_off_c, 0, 81, 57
1, 222774, Note_on_c, 0, 29, 52
1, 222778, Note_on_c, 0, 28, 56
1, 222817, Note_off_c, 0, 29, 55
1, 222822, Note_off_c, 0, 28, 37
1, 222870, Poly_aftertouch_c, 0, 30, 0
1, 222875, Poly_aftertouch_c, 0, 41, 0
1, 222894, Note_on_c, 0, 84, 76
1, 222903, Note_on_c, 0, 81, 59
1, 222910, Note_on_c, 0, 72, 53
1, 222935, Note_on_c, 0, 51, 71
1, 222937, Note_on_c, 0, 63, 70
1, 222948, Note_off_c, 0, 72, 46
1, 222956, Note_off_c, 0, 51, 64
1, 222970, Note_off_c, 0, 63, 69
1, 223004, Note_on_c, 0, 72, 47
1, 223058, Note_on_c, 0, 64, 73
1, 223065, Note_on_c, 0, 52, 70
1, 223089, Note_off_c, 0, 64, 64
1, 223089, Poly_aftertouch_c, 0, 64, 0
1, 223097, Note_off_c, 0, 52, 65
1, 223097, Poly_aftertouch_c, 0, 52, 0
1, 223125, Note_off_c, 0, 72, 51
1, 223139, Poly_aftertouch_c, 0, 58, 0
1, 223228, Note_on_c, 0, 33, 77
1, 223229, Note_off_c, 0, 84, 55
1, 223231, Note_on_c, 0, 45, 77
1, 223260, Note_off_c, 0, 33, 57
1, 223261, Note_off_c, 0, 45, 65
1, 223282, Poly_aftertouch_c, 0, 78, 0
1, 223306, Note_off_c, 0, 81, 56
1, 223331, Poly_aftertouch_c, 0, 34, 0
1, 223373, Note_on_c, 0, 80, 71
1, 223379, Note_on_c, 0, 83, 75
1, 223383, Note_on_c, 0, 71, 65
1, 223403, Note_on_c, 0, 62, 69
1, 223404, Note_on_c, 0, 50, 67
1, 223437, Note_off_c, 0, 50, 64
1, 223438, Note_off_c, 0, 62, 67
1, 223500, Note_off_c, 0, 71, 62
1, 223532, Note_on_c, 0, 64, 80
1, 223544, Note_on_c, 0, 52, 72
1, 223560, Note_off_c, 0, 64, 70
1, 223560, Poly_aftertouch_c, 0, 64, 0
1, 223563, Note_off_c, 0, 83, 63
1, 223575, Note_off_c, 0, 80, 66
1, 223578, Note_off_c, 0, 52, 64
1, 223578, Poly_aftertouch_c, 0, 52, 0
1, 223630, Poly_aftertouch_c, 0, 54, 127
1, 223659, Poly_aftertouch_c, 0, 54, 0
1, 223669, Control_c, 0, 67, 123
1, 223669, Control_c, 1, 67, 123
1, 223679, Note_on_c, 0, 92, 83
1, 223685, Note_on_c, 0, 80, 73
1, 223685, Note_on_c, 0, 62, 79
1, 223687, Note_on_c, 0, 83, 68
1, 223696, Note_on_c, 0, 50, 72
1, 223723, Note_off_c, 0, 62, 59
1, 223725, Control_c, 0, 67, 118
1, 223725, Control_c, 1, 67, 118
1, 223730, Note_off_c, 0, 50, 66
1, 223783, Control_c, 0, 67, 113
1, 223783, Control_c, 1, 67, 113
1, 223819, Control_c, 1, 67, 108
1, 223819, Control_c, 0, 67, 108
1, 223827, Note_on_c, 0, 60, 75
1, 223830, Note_on_c, 0, 48, 76
1, 223831, Note_off_c, 0, 83, 62
1, 223845, Note_off_c, 0, 80, 60
1, 223857, Note_off_c, 0, 60, 64
1, 223896, Note_off_c, 0, 92, 63
1, 223918, Note_off_c, 0, 48, 60
1, 223936, Poly_aftertouch_c, 0, 51, 127
1, 223938, Poly_aftertouch_c, 0, 51, 0
1, 223975, Note_on_c, 0, 81, 70
1, 223977, Note_on_c, 0, 93, 74
1, 223984, Note_on_c, 0, 84, 65
1, 224066, Poly_aftertouch_c, 0, 90, 0
1, 224076, Note_off_c, 0, 93, 64
1, 224081, Note_off_c, 0, 84, 61
1, 224090, Note_on_c, 0, 45, 88
1, 224090, Note_on_c, 0, 33, 85
1, 224107, Note_off_c, 0, 81, 62
1, 224120, Note_off_c, 0, 45, 70
1, 224123, Note_off_c, 0, 33, 66
1, 224250, Control_c, 0, 67, 101
1, 224250, Control_c, 1, 67, 101
1, 224259, Note_on_c, 0, 81, 90
1, 224267, Note_on_c, 0, 69, 87
1, 224268, Control_c, 0, 67, 94
1, 224268, Control_c, 1, 67, 94
1, 224276, Note_on_c, 0, 73, 78
1, 224277, Note_on_c, 0, 57, 82
1, 224288, Control_c, 0, 67, 85
1, 224288, Control_c, 1, 67, 85
1, 224306, Control_c, 1, 67, 76
1, 224306, Control_c, 0, 67, 76
1, 224321, Note_off_c, 0, 57, 61
1, 224325, Control_c, 0, 67, 69
1, 224325, Control_c, 1, 67, 69
1, 224362, Control_c, 1, 67, 63
1, 224362, Control_c, 0, 67, 63
1, 224382, Control_c, 0, 67, 58
1, 224382, Control_c, 1, 67, 58
1, 224399, Control_c, 1, 67, 50
1, 224399, Control_c, 0, 67, 50
1, 224403, Note_on_c, 0, 70, 99
1, 224409, Note_on_c, 0, 58, 92
1, 224417, Control_c, 0, 67, 43
1, 224417, Control_c, 1, 67, 43
1, 224438, Control_c, 1, 67, 37
1, 224438, Control_c, 0, 67, 37
1, 224441, Note_off_c, 0, 69, 58
1, 224456, Note_off_c, 0, 70, 65
1, 224465, Note_off_c, 0, 81, 62
1, 224469, Note_off_c, 0, 58, 66
1, 224470, Note_off_c, 0, 73, 63
1, 224513, Control_c, 0, 67, 32
1, 224513, Control_c, 1, 67, 32
1, 224546, Note_on_c, 0, 69, 102
1, 224549, Control_c, 0, 67, 27
1, 224549, Control_c, 1, 67, 27
1, 224555, Note_on_c, 0, 57, 97
1, 224556, Note_on_c, 0, 82, 95
1, 224559, Note_on_c, 0, 70, 91
1, 224562, Note_on_c, 0, 74, 77
1, 224598, Note_off_c, 0, 69, 65
1, 224610, Note_off_c, 0, 57, 64
1, 224653, Note_on_c, 0, 63, 13
1, 224653, Note_on_c, 0, 73, 19
1, 224654, Note_off_c, 0, 73, 127
1, 224655, Note_off_c, 0, 63, 127
1, 224673, Poly_aftertouch_c, 0, 80, 0
1, 224681, Control_c, 0, 67, 32
1, 224681, Control_c, 1, 67, 32
1, 224686, Note_on_c, 0, 67, 99
1, 224691, Note_on_c, 0, 55, 94
1, 224704, Note_off_c, 0, 74, 62
1, 224707, Note_off_c, 0, 70, 64
1, 224717, Note_off_c, 0, 67, 67
1, 224717, Control_c, 0, 67, 37
1, 224717, Control_c, 1, 67, 37
1, 224736, Control_c, 1, 67, 42
1, 224736, Control_c, 0, 67, 42
1, 224739, Note_off_c, 0, 82, 66
1, 224746, Note_off_c, 0, 55, 65
1, 224755, Control_c, 0, 67, 50
1, 224755, Control_c, 1, 67, 50
1, 224774, Control_c, 1, 67, 59
1, 224774, Control_c, 0, 67, 59
1, 224783, Note_on_c, 0, 58, 21
1, 224784, Note_off_c, 0, 58, 127
1, 224792, Control_c, 0, 67, 68
1, 224792, Control_c, 1, 67, 68
1, 224811, Control_c, 1, 67, 78
1, 224811, Control_c, 0, 67, 78
1, 224829, Control_c, 0, 67, 86
1, 224829, Control_c, 1, 67, 86
1, 224835, Note_on_c, 0, 73, 70
1, 224835, Note_on_c, 0, 85, 79
1, 224849, Note_on_c, 0, 76, 62
1, 224849, Control_c, 0, 67, 95
1, 224849, Control_c, 1, 67, 95
1, 224867, Control_c, 1, 67, 105
1, 224867, Control_c, 0, 67, 105
1, 224886, Control_c, 0, 67, 113
1, 224886, Control_c, 1, 67, 113
1, 224905, Control_c, 1, 67, 120
1, 224905, Control_c, 0, 67, 120
1, 224924, Control_c, 0, 67, 127
1, 224924, Control_c, 1, 67, 127
1, 224965, Note_on_c, 0, 26, 75
1, 224978, Note_on_c, 0, 38, 67
1, 224998, Note_off_c, 0, 26, 58
1, 225009, Note_off_c, 0, 76, 60
1, 225015, Note_off_c, 0, 38, 63
1, 225022, Note_off_c, 0, 73, 55
1, 225054, Note_off_c, 0, 85, 62
1, 225146, Note_on_c, 0, 86, 64
1, 225146, Note_on_c, 0, 74, 62
1, 225155, Note_on_c, 0, 65, 76
1, 225158, Note_on_c, 0, 77, 49
1, 225185, Note_off_c, 0, 65, 72
1, 225189, Note_on_c, 0, 84, 42
1, 225202, Note_on_c, 0, 55, 20
1, 225204, Note_on_c, 0, 53, 21
1, 225205, Note_off_c, 0, 53, 127
1, 225227, Note_off_c, 0, 84, 34
1, 225268, Note_off_c, 0, 55, 30
1, 225299, Note_on_c, 0, 64, 76
1, 225301, Note_off_c, 0, 74, 58
1, 225305, Note_off_c, 0, 77, 59
1, 225324, Note_off_c, 0, 86, 62
1, 225327, Note_off_c, 0, 64, 68
1, 225327, Poly_aftertouch_c, 0, 64, 0
1, 225362, Poly_aftertouch_c, 0, 52, 0
1, 225436, Note_on_c, 0, 88, 69
1, 225446, Note_on_c, 0, 79, 60
1, 225447, Note_on_c, 0, 76, 58
1, 225452, Note_on_c, 0, 62, 67
1, 225463, Note_on_c, 0, 50, 58
1, 225466, Control_c, 0, 67, 121
1, 225466, Control_c, 1, 67, 121
1, 225475, Note_off_c, 0, 62, 64
1, 225498, Note_off_c, 0, 50, 58
1, 225541, Control_c, 0, 67, 117
1, 225541, Control_c, 1, 67, 117
1, 225580, Control_c, 1, 67, 111
1, 225580, Control_c, 0, 67, 111
1, 225586, Note_on_c, 0, 57, 70
1, 225590, Note_on_c, 0, 45, 76
1, 225593, Note_off_c, 0, 76, 61
1, 225599, Control_c, 0, 67, 101
1, 225599, Control_c, 1, 67, 101
1, 225602, Note_off_c, 0, 79, 61
1, 225611, Note_off_c, 0, 57, 64
1, 225617, Control_c, 0, 67, 89
1, 225617, Control_c, 1, 67, 89
1, 225621, Note_off_c, 0, 88, 62
1, 225626, Note_off_c, 0, 45, 66
1, 225635, Control_c, 0, 67, 78
1, 225635, Control_c, 1, 67, 78
1, 225654, Control_c, 1, 67, 70
1, 225654, Control_c, 0, 67, 70
1, 225673, Control_c, 0, 67, 66
1, 225673, Control_c, 1, 67, 66
1, 225710, Control_c, 1, 67, 58
1, 225710, Control_c, 0, 67, 58
1, 225728, Note_on_c, 0, 89, 74
1, 225728, Control_c, 0, 67, 53
1, 225728, Control_c, 1, 67, 53
1, 225730, Note_on_c, 0, 81, 69
1, 225735, Note_on_c, 0, 77, 63
1, 225745, Control_c, 0, 67, 48
1, 225745, Control_c, 1, 67, 48
1, 225784, Control_c, 1, 67, 42
1, 225784, Control_c, 0, 67, 42
1, 225815, Poly_aftertouch_c, 0, 87, 0
1, 225827, Poly_aftertouch_c, 0, 79, 0
1, 225847, Note_on_c, 0, 43, 93
1, 225850, Note_on_c, 0, 31, 87
1, 225857, Note_off_c, 0, 81, 63
1, 225858, Note_off_c, 0, 89, 64
1, 225877, Note_off_c, 0, 31, 66
1, 225883, Note_off_c, 0, 43, 67
1, 225885, Note_off_c, 0, 77, 62
1, 225962, Poly_aftertouch_c, 0, 33, 0
1, 226003, Note_on_c, 0, 79, 90
1, 226010, Note_on_c, 0, 67, 83
1, 226019, Note_on_c, 0, 71, 75
1, 226027, Control_c, 0, 67, 38
1, 226027, Control_c, 1, 67, 38
1, 226029, Note_on_c, 0, 55, 77
1, 226050, Note_on_c, 0, 57, 54
1, 226069, Note_off_c, 0, 55, 65
1, 226085, Note_off_c, 0, 57, 36
1, 226122, Control_c, 0, 67, 34
1, 226122, Control_c, 1, 67, 34
1, 226151, Note_on_c, 0, 68, 97
1, 226158, Note_on_c, 0, 56, 90
1, 226158, Control_c, 0, 67, 27
1, 226158, Control_c, 1, 67, 27
1, 226178, Control_c, 1, 67, 19
1, 226178, Control_c, 0, 67, 19
1, 226185, Note_off_c, 0, 71, 56
1, 226189, Note_off_c, 0, 67, 60
1, 226197, Control_c, 0, 67, 9
1, 226197, Control_c, 1, 67, 9
1, 226210, Note_off_c, 0, 79, 63
1, 226218, Note_off_c, 0, 68, 62
1, 226234, Note_off_c, 0, 56, 63
1, 226234, Control_c, 0, 67, 0
1, 226234, Control_c, 1, 67, 0
1, 226295, Note_on_c, 0, 67, 99
1, 226296, Note_on_c, 0, 80, 90
1, 226297, Note_on_c, 0, 73, 95
1, 226301, Note_on_c, 0, 55, 92
1, 226304, Note_on_c, 0, 68, 81
1, 226328, Note_on_c, 0, 75, 48
1, 226341, Note_on_c, 0, 81, 50
1, 226343, Note_off_c, 0, 67, 68
1, 226358, Note_off_c, 0, 75, 58
1, 226362, Note_off_c, 0, 55, 63
1, 226378, Note_off_c, 0, 81, 35
1, 226406, Poly_aftertouch_c, 0, 78, 127
1, 226417, Note_off_c, 0, 73, 61
1, 226430, Note_on_c, 0, 65, 97
1, 226436, Note_on_c, 0, 53, 92
1, 226446, Poly_aftertouch_c, 0, 78, 0
1, 226467, Note_off_c, 0, 65, 68
1, 226473, Note_off_c, 0, 68, 62
1, 226480, Note_on_c, 0, 56, 34
1, 226493, Poly_aftertouch_c, 0, 72, 0
1, 226496, Note_off_c, 0, 53, 66
1, 226496, Note_off_c, 0, 56, 44
1, 226511, Note_off_c, 0, 80, 61
1, 226588, Note_on_c, 0, 83, 86
1, 226600, Note_on_c, 0, 71, 74
1, 226608, Control_c, 0, 67, 8
1, 226608, Control_c, 1, 67, 8
1, 226612, Note_on_c, 0, 74, 59
1, 226665, Control_c, 0, 67, 12
1, 226665, Control_c, 1, 67, 12
1, 226714, Note_on_c, 0, 24, 82
1, 226717, Note_on_c, 0, 36, 81
1, 226721, Control_c, 0, 67, 17
1, 226721, Control_c, 1, 67, 17
1, 226739, Control_c, 1, 67, 24
1, 226739, Control_c, 0, 67, 24
1, 226748, Note_off_c, 0, 36, 66
1, 226756, Note_off_c, 0, 24, 63
1, 226756, Control_c, 0, 67, 31
1, 226756, Control_c, 1, 67, 31
1, 226778, Control_c, 1, 67, 37
1, 226778, Control_c, 0, 67, 37
1, 226781, Note_off_c, 0, 71, 60
1, 226785, Note_off_c, 0, 74, 59
1, 226796, Control_c, 0, 67, 45
1, 226796, Control_c, 1, 67, 45
1, 226811, Note_off_c, 0, 83, 60
1, 226812, Control_c, 0, 67, 53
1, 226812, Control_c, 1, 67, 53
1, 226832, Control_c, 1, 67, 61
1, 226832, Control_c, 0, 67, 61
1, 226852, Control_c, 0, 67, 68
1, 226852, Control_c, 1, 67, 68
1, 226870, Control_c, 1, 67, 74
1, 226870, Control_c, 0, 67, 74
1, 226898, Note_on_c, 0, 84, 76
1, 226903, Note_on_c, 0, 72, 70
1, 226910, Note_on_c, 0, 64, 78
1, 226914, Note_on_c, 0, 76, 51
1, 226935, Note_on_c, 0, 52, 43
1, 226938, Note_off_c, 0, 64, 69
1, 226938, Poly_aftertouch_c, 0, 64, 0
1, 226955, Note_on_c, 0, 53, 28
1, 226977, Note_off_c, 0, 52, 50
1, 227011, Note_off_c, 0, 53, 33
1, 227039, Control_c, 0, 67, 78
1, 227039, Control_c, 1, 67, 78
1, 227059, Note_on_c, 0, 62, 79
1, 227076, Note_off_c, 0, 76, 61
1, 227076, Note_off_c, 0, 72, 59
1, 227081, Note_on_c, 0, 50, 51
1, 227092, Note_off_c, 0, 62, 64
1, 227101, Note_off_c, 0, 84, 62
1, 227120, Note_off_c, 0, 50, 56
1, 227133, Control_c, 0, 67, 86
1, 227133, Control_c, 1, 67, 86
1, 227152, Control_c, 1, 67, 90
1, 227152, Control_c, 0, 67, 90
1, 227189, Control_c, 0, 67, 96
1, 227189, Control_c, 1, 67, 96
1, 227200, Note_on_c, 0, 86, 80
1, 227208, Note_on_c, 0, 74, 70
1, 227215, Note_on_c, 0, 77, 65
1, 227217, Note_on_c, 0, 60, 67
1, 227226, Note_on_c, 0, 48, 61
1, 227239, Note_on_c, 0, 80, 34
1, 227242, Note_off_c, 0, 60, 61
1, 227258, Note_off_c, 0, 48, 56
1, 227262, Control_c, 0, 67, 103
1, 227262, Control_c, 1, 67, 103
1, 227282, Control_c, 1, 67, 107
1, 227282, Control_c, 0, 67, 107
1, 227286, Note_off_c, 0, 80, 47
1, 227301, Control_c, 0, 67, 112
1, 227301, Control_c, 1, 67, 112
1, 227320, Control_c, 1, 67, 117
1, 227320, Control_c, 0, 67, 117
1, 227338, Control_c, 0, 67, 122
1, 227338, Control_c, 1, 67, 122
1, 227352, Note_on_c, 0, 43, 80
1, 227357, Control_c, 0, 67, 127
1, 227357, Control_c, 1, 67, 127
1, 227362, Note_off_c, 0, 77, 56
1, 227362, Note_off_c, 0, 74, 59
1, 227367, Note_on_c, 0, 55, 48
1, 227378, Poly_aftertouch_c, 0, 77, 0
1, 227386, Note_off_c, 0, 43, 69
1, 227392, Note_off_c, 0, 86, 63
1, 227404, Note_off_c, 0, 55, 37
1, 227502, Note_on_c, 0, 88, 70
1, 227513, Note_on_c, 0, 79, 58
1, 227522, Note_on_c, 0, 76, 49
1, 227656, Note_on_c, 0, 26, 71
1, 227662, Note_off_c, 0, 79, 58
1, 227670, Note_on_c, 0, 38, 60
1, 227678, Note_off_c, 0, 76, 56
1, 227698, Note_off_c, 0, 26, 62
1, 227704, Note_off_c, 0, 38, 58
1, 227708, Note_on_c, 0, 28, 18
1, 227715, Note_off_c, 0, 88, 62
1, 227756, Note_off_c, 0, 28, 41
1, 227851, Note_on_c, 0, 89, 69
1, 227857, Note_on_c, 0, 82, 66
1, 227858, Note_on_c, 0, 77, 63
1, 227865, Note_on_c, 0, 46, 71
1, 227873, Note_on_c, 0, 58, 64
1, 227903, Note_off_c, 0, 46, 68
1, 227912, Note_off_c, 0, 58, 65
1, 227961, Poly_aftertouch_c, 0, 88, 0
1, 228025, Note_off_c, 0, 77, 62
1, 228029, Note_on_c, 0, 62, 65
1, 228038, Note_on_c, 0, 50, 51
1, 228051, Note_off_c, 0, 89, 59
1, 228054, Note_off_c, 0, 62, 63
1, 228059, Note_off_c, 0, 82, 63
1, 228075, Note_off_c, 0, 50, 56
1, 228171, Note_on_c, 0, 88, 82
1, 228186, Note_on_c, 0, 48, 71
1, 228186, Note_on_c, 0, 76, 65
1, 228193, Note_on_c, 0, 60, 58
1, 228194, Note_on_c, 0, 82, 59
1, 228221, Note_off_c, 0, 48, 64
1, 228227, Note_off_c, 0, 60, 60
1, 228228, Note_off_c, 0, 82, 55
1, 228329, Note_on_c, 0, 46, 74
1, 228336, Note_on_c, 0, 58, 51
1, 228342, Note_off_c, 0, 76, 58
1, 228358, Poly_aftertouch_c, 0, 82, 0
1, 228364, Note_off_c, 0, 46, 66
1, 228372, Note_off_c, 0, 58, 58
1, 228458, Note_on_c, 0, 86, 68
1, 228461, Note_on_c, 0, 74, 61
1, 228485, Note_on_c, 0, 82, 57
1, 228522, Note_off_c, 0, 88, 40
1, 228573, Note_on_c, 0, 24, 83
1, 228585, Note_on_c, 0, 36, 72
1, 228605, Note_off_c, 0, 74, 58
1, 228616, Note_off_c, 0, 24, 62
1, 228617, Note_off_c, 0, 36, 64
1, 228635, Note_off_c, 0, 82, 59
1, 228758, Note_on_c, 0, 88, 77
1, 228769, Note_on_c, 0, 81, 60
1, 228770, Note_on_c, 0, 76, 59
1, 228780, Note_on_c, 0, 45, 62
1, 228781, Note_on_c, 0, 57, 63
1, 228809, Note_off_c, 0, 45, 60
1, 228810, Note_off_c, 0, 57, 63
1, 228815, Note_off_c, 0, 86, 56
1, 228902, Note_off_c, 0, 76, 60
1, 228917, Note_on_c, 0, 48, 71
1, 228917, Note_on_c, 0, 60, 70
1, 228939, Note_off_c, 0, 88, 62
1, 228950, Note_off_c, 0, 60, 64
1, 228956, Note_off_c, 0, 48, 66
1, 228964, Note_off_c, 0, 81, 56
1, 229089, Note_on_c, 0, 86, 75
1, 229098, Note_on_c, 0, 59, 63
1, 229103, Note_on_c, 0, 74, 63
1, 229106, Note_on_c, 0, 47, 58
1, 229108, Note_on_c, 0, 81, 63
1, 229132, Note_off_c, 0, 59, 64
1, 229146, Note_off_c, 0, 47, 58
1, 229264, Note_on_c, 0, 57, 59
1, 229270, Note_on_c, 0, 45, 69
1, 229296, Note_off_c, 0, 74, 60
1, 229299, Note_off_c, 0, 57, 64
1, 229302, Poly_aftertouch_c, 0, 84, 0
1, 229314, Note_off_c, 0, 81, 59
1, 229323, Note_off_c, 0, 86, 63
1, 229326, Note_off_c, 0, 45, 60
1, 229418, Note_on_c, 0, 84, 64
1, 229445, Note_on_c, 0, 72, 48
1, 229458, Note_on_c, 0, 81, 51
1, 229535, Poly_aftertouch_c, 0, 82, 0
1, 229549, Note_on_c, 0, 29, 70
1, 229560, Note_on_c, 0, 41, 65
1, 229590, Note_off_c, 0, 29, 63
1, 229593, Note_off_c, 0, 84, 56
1, 229595, Note_off_c, 0, 41, 64
1, 229611, Note_off_c, 0, 81, 60
1, 229611, Note_off_c, 0, 72, 58
1, 229740, Note_on_c, 0, 83, 64
1, 229747, Note_on_c, 0, 50, 66
1, 229748, Note_on_c, 0, 71, 61
1, 229756, Note_on_c, 0, 81, 53
1, 229774, Note_off_c, 0, 50, 60
1, 229865, Note_on_c, 0, 63, 53
1, 229865, Note_on_c, 0, 51, 74
1, 229897, Note_off_c, 0, 51, 68
1, 229898, Note_off_c, 0, 63, 58
1, 229978, Note_off_c, 0, 71, 47
1, 230024, Note_on_c, 0, 28, 83
1, 230027, Note_off_c, 0, 83, 56
1, 230044, Note_off_c, 0, 81, 59
1, 230044, Poly_aftertouch_c, 0, 78, 0
1, 230054, Note_off_c, 0, 28, 67
1, 230158, Poly_aftertouch_c, 0, 29, 0
1, 230160, Note_on_c, 0, 84, 75
1, 230166, Note_on_c, 0, 72, 66
1, 230171, Note_on_c, 0, 81, 59
1, 230201, Note_on_c, 0, 51, 71
1, 230204, Note_on_c, 0, 63, 74
1, 230233, Note_off_c, 0, 51, 67
1, 230236, Note_off_c, 0, 63, 68
1, 230324, Note_on_c, 0, 64, 73
1, 230331, Note_on_c, 0, 52, 73
1, 230361, Note_off_c, 0, 64, 68
1, 230361, Poly_aftertouch_c, 0, 64, 0
1, 230365, Note_off_c, 0, 52, 67
1, 230449, Note_off_c, 0, 72, 48
1, 230482, Note_off_c, 0, 84, 50
1, 230501, Note_on_c, 0, 45, 81
1, 230502, Note_on_c, 0, 33, 78
1, 230533, Note_off_c, 0, 45, 68
1, 230535, Poly_aftertouch_c, 0, 78, 0
1, 230540, Note_off_c, 0, 33, 59
1, 230621, Note_off_c, 0, 81, 56
1, 230656, Note_on_c, 0, 83, 80
1, 230667, Note_on_c, 0, 80, 61
1, 230668, Note_on_c, 0, 71, 63
1, 230687, Note_on_c, 0, 62, 70
1, 230695, Note_on_c, 0, 50, 56
1, 230722, Note_off_c, 0, 62, 68
1, 230730, Note_off_c, 0, 50, 59
1, 230762, Note_off_c, 0, 71, 44
1, 230844, Note_off_c, 0, 83, 63
1, 230844, Note_on_c, 0, 64, 70
1, 230855, Note_on_c, 0, 52, 53
1, 230863, Note_off_c, 0, 80, 66
1, 230876, Note_off_c, 0, 64, 67
1, 230876, Poly_aftertouch_c, 0, 64, 0
1, 230889, Note_off_c, 0, 52, 55
1, 231007, Note_on_c, 0, 92, 77
1, 231020, Note_on_c, 0, 80, 58
1, 231021, Note_on_c, 0, 50, 62
1, 231026, Note_on_c, 0, 62, 45
1, 231033, Note_on_c, 0, 83, 50
1, 231061, Note_off_c, 0, 62, 54
1, 231069, Note_off_c, 0, 50, 58
1, 231189, Note_on_c, 0, 48, 60
1, 231192, Note_on_c, 0, 60, 53
1, 231197, Note_off_c, 0, 83, 58
1, 231224, Note_off_c, 0, 80, 59
1, 231227, Note_off_c, 0, 60, 56
1, 231257, Note_off_c, 0, 92, 63
1, 231393, Note_on_c, 0, 93, 67
1, 231409, Note_on_c, 0, 84, 47
1, 231423, Note_on_c, 0, 81, 43
1, 231426, Note_off_c, 0, 48, 56
1, 231550, Control_c, 0, 64, 34
1, 231550, Control_c, 1, 64, 34
1, 231569, Control_c, 1, 64, 67
1, 231569, Control_c, 0, 64, 67
1, 231571, Control_c, 0, 67, 121
1, 231571, Control_c, 1, 67, 121
1, 231588, Control_c, 1, 64, 84
1, 231588, Control_c, 0, 64, 84
1, 231591, Control_c, 0, 67, 107
1, 231591, Control_c, 1, 67, 107
1, 231607, Control_c, 1, 64, 112
1, 231607, Control_c, 0, 64, 112
1, 231608, Control_c, 0, 67, 86
1, 231608, Control_c, 1, 67, 86
1, 231625, Control_c, 1, 64, 127
1, 231625, Control_c, 0, 64, 127
1, 231626, Control_c, 0, 67, 62
1, 231626, Control_c, 1, 67, 62
1, 231644, Control_c, 1, 67, 35
1, 231644, Control_c, 0, 67, 35
1, 231653, Note_off_c, 0, 84, 63
1, 231681, Control_c, 0, 67, 0
1, 231681, Control_c, 1, 67, 0
1, 231699, Note_off_c, 0, 81, 61
1, 231704, Note_off_c, 0, 93, 64
1, 232216, Note_on_c, 0, 93, 60
1, 232241, Note_on_c, 0, 33, 41
1, 232251, Note_on_c, 0, 81, 12
1, 232255, Note_on_c, 0, 45, 30
1, 232312, Note_off_c, 0, 45, 47
1, 232333, Note_off_c, 0, 81, 46
1, 232479, Note_on_c, 0, 95, 82
1, 232487, Note_on_c, 0, 44, 60
1, 232488, Note_on_c, 0, 83, 57
1, 232499, Note_on_c, 0, 32, 62
1, 232505, Note_off_c, 0, 33, 60
1, 232505, Note_on_c, 0, 90, 16
1, 232530, Note_off_c, 0, 93, 63
1, 232566, Note_off_c, 0, 83, 63
1, 232575, Note_off_c, 0, 90, 45
1, 232628, Note_off_c, 0, 44, 56
1, 232628, Poly_aftertouch_c, 0, 34, 0
1, 232680, Note_off_c, 0, 32, 55
1, 232687, Note_on_c, 0, 85, 91
1, 232690, Note_on_c, 0, 97, 96
1, 232695, Note_on_c, 0, 31, 80
1, 232695, Note_on_c, 0, 43, 81
1, 232758, Note_off_c, 0, 95, 66
1, 232771, Note_off_c, 0, 43, 62
1, 232804, Note_off_c, 0, 85, 62
1, 232866, Note_on_c, 0, 30, 92
1, 232866, Note_on_c, 0, 42, 97
1, 232870, Note_on_c, 0, 86, 94
1, 232870, Note_on_c, 0, 98, 101
1, 232905, Note_off_c, 0, 31, 60
1, 232916, Note_on_c, 0, 32, 32
1, 232933, Note_off_c, 0, 97, 64
1, 232945, Poly_aftertouch_c, 0, 92, 0
1, 232953, Note_off_c, 0, 86, 62
1, 232955, Note_off_c, 0, 42, 61
1, 232976, Note_off_c, 0, 32, 41
1, 233026, Note_on_c, 0, 29, 85
1, 233036, Note_on_c, 0, 41, 79
1, 233038, Note_on_c, 0, 99, 98
1, 233039, Note_on_c, 0, 87, 93
1, 233041, Note_off_c, 0, 30, 47
1, 233088, Note_off_c, 0, 98, 63
1, 233092, Note_on_c, 0, 97, 45
1, 233107, Note_off_c, 0, 41, 60
1, 233114, Note_off_c, 0, 87, 64
1, 233123, Control_c, 0, 64, 56
1, 233123, Control_c, 1, 64, 56
1, 233139, Note_off_c, 0, 97, 47
1, 233140, Control_c, 0, 64, 0
1, 233140, Control_c, 1, 64, 0
1, 233172, Note_off_c, 0, 29, 62
1, 233179, Note_on_c, 0, 88, 99
1, 233180, Note_on_c, 0, 100, 103
1, 233189, Note_on_c, 0, 40, 95
1, 233190, Note_on_c, 0, 28, 88
1, 233197, Control_c, 0, 64, 47
1, 233197, Control_c, 1, 64, 47
1, 233217, Control_c, 1, 64, 127
1, 233217, Control_c, 0, 64, 127
1, 233221, Note_off_c, 0, 99, 66
1, 233227, Note_off_c, 0, 28, 69
1, 233234, Note_off_c, 0, 100, 67
1, 233248, Note_off_c, 0, 40, 66
1, 233250, Note_off_c, 0, 88, 68
1, 233438, Note_on_c, 0, 76, 91
1, 233461, Note_on_c, 0, 64, 85
1, 233470, Note_on_c, 0, 52, 75
1, 233487, Note_on_c, 0, 68, 50
1, 233620, Note_on_c, 0, 54, 86
1, 233621, Note_on_c, 0, 75, 88
1, 233632, Note_on_c, 0, 69, 84
1, 233639, Note_off_c, 0, 68, 62
1, 233660, Note_off_c, 0, 76, 63
1, 233685, Note_off_c, 0, 52, 57
1, 233688, Note_on_c, 0, 73, 34
1, 233733, Note_off_c, 0, 73, 46
1, 233740, Control_c, 0, 64, 108
1, 233740, Control_c, 1, 64, 108
1, 233759, Control_c, 1, 64, 66
1, 233759, Control_c, 0, 64, 66
1, 233777, Control_c, 0, 64, 18
1, 233777, Control_c, 1, 64, 18
1, 233779, Note_off_c, 0, 75, 67
1, 233795, Control_c, 0, 64, 0
1, 233795, Control_c, 1, 64, 0
1, 233797, Note_on_c, 0, 74, 86
1, 233800, Note_on_c, 0, 56, 86
1, 233819, Note_on_c, 0, 71, 84
1, 233829, Note_off_c, 0, 54, 62
1, 233858, Note_off_c, 0, 69, 60
1, 233890, Control_c, 0, 64, 36
1, 233890, Control_c, 1, 64, 36
1, 233909, Control_c, 1, 64, 75
1, 233909, Control_c, 0, 64, 75
1, 233918, Note_off_c, 0, 56, 59
1, 233926, Control_c, 0, 64, 124
1, 233926, Control_c, 1, 64, 124
1, 233959, Note_on_c, 0, 72, 85
1, 233962, Note_on_c, 0, 57, 81
1, 233968, Note_on_c, 0, 69, 86
1, 233981, Note_off_c, 0, 71, 65
1, 233991, Note_off_c, 0, 74, 59
1, 234102, Note_on_c, 0, 71, 84
1, 234102, Note_on_c, 0, 59, 80
1, 234111, Note_off_c, 0, 57, 62
1, 234112, Note_on_c, 0, 68, 87
1, 234114, Note_off_c, 0, 72, 59
1, 234135, Control_c, 0, 64, 68
1, 234135, Control_c, 1, 64, 68
1, 234143, Note_off_c, 0, 69, 58
1, 234152, Control_c, 0, 64, 40
1, 234152, Control_c, 1, 64, 40
1, 234171, Control_c, 1, 64, 44
1, 234171, Control_c, 0, 64, 44
1, 234190, Control_c, 0, 64, 66
1, 234190, Control_c, 1, 64, 66
1, 234209, Control_c, 1, 64, 114
1, 234209, Control_c, 0, 64, 114
1, 234219, Note_on_c, 0, 57, 88
1, 234226, Note_off_c, 0, 68, 61
1, 234226, Control_c, 0, 64, 127
1, 234226, Control_c, 1, 64, 127
1, 234232, Note_on_c, 0, 72, 88
1, 234234, Note_on_c, 0, 69, 73
1, 234235, Note_off_c, 0, 64, 63
1, 234235, Poly_aftertouch_c, 0, 64, 0
1, 234249, Note_off_c, 0, 59, 62
1, 234255, Note_off_c, 0, 71, 58
1, 234262, Note_off_c, 0, 69, 68
1, 234281, Note_off_c, 0, 57, 67
1, 234283, Note_off_c, 0, 72, 65
1, 234416, Note_on_c, 0, 93, 84
1, 234420, Note_on_c, 0, 81, 79
1, 234420, Note_on_c, 0, 45, 82
1, 234431, Note_on_c, 0, 33, 74
1, 234436, Note_on_c, 0, 91, 68
1, 234441, Note_on_c, 0, 31, 70
1, 234452, Note_off_c, 0, 45, 67
1, 234455, Note_off_c, 0, 81, 57
1, 234475, Note_off_c, 0, 91, 36
1, 234476, Note_off_c, 0, 31, 58
1, 234555, Poly_aftertouch_c, 0, 90, 127
1, 234571, Poly_aftertouch_c, 0, 90, 0
1, 234580, Note_on_c, 0, 95, 99
1, 234588, Note_on_c, 0, 83, 87
1, 234595, Note_on_c, 0, 44, 92
1, 234598, Note_on_c, 0, 32, 87
1, 234618, Note_off_c, 0, 33, 60
1, 234621, Note_off_c, 0, 93, 64
1, 234646, Note_off_c, 0, 83, 65
1, 234648, Note_on_c, 0, 34, 35
1, 234675, Note_off_c, 0, 44, 58
1, 234684, Poly_aftertouch_c, 0, 84, 0
1, 234702, Note_off_c, 0, 32, 61
1, 234703, Note_off_c, 0, 34, 45
1, 234718, Poly_aftertouch_c, 0, 84, 0
1, 234727, Note_on_c, 0, 31, 86
1, 234731, Note_on_c, 0, 43, 87
1, 234738, Note_on_c, 0, 85, 95
1, 234741, Note_on_c, 0, 97, 95
1, 234788, Control_c, 0, 64, 80
1, 234788, Control_c, 1, 64, 80
1, 234790, Note_off_c, 0, 95, 64
1, 234807, Note_off_c, 0, 85, 65
1, 234807, Control_c, 0, 64, 59
1, 234807, Control_c, 1, 64, 59
1, 234811, Note_off_c, 0, 43, 62
1, 234844, Control_c, 0, 64, 70
1, 234844, Control_c, 1, 64, 70
1, 234863, Control_c, 1, 64, 101
1, 234863, Control_c, 0, 64, 101
1, 234881, Note_on_c, 0, 30, 90
1, 234881, Control_c, 0, 64, 127
1, 234881, Control_c, 1, 64, 127
1, 234882, Note_on_c, 0, 98, 92
1, 234883, Note_on_c, 0, 86, 89
1, 234886, Note_on_c, 0, 42, 95
1, 234903, Note_on_c, 0, 94, 35
1, 234918, Note_off_c, 0, 31, 44
1, 234933, Note_off_c, 0, 97, 65
1, 234943, Note_off_c, 0, 94, 52
1, 234943, Note_on_c, 0, 32, 20
1, 234947, Note_off_c, 0, 86, 63
1, 234972, Note_off_c, 0, 42, 58
1, 235001, Note_off_c, 0, 32, 39
1, 235016, Note_on_c, 0, 29, 81
1, 235030, Note_on_c, 0, 99, 98
1, 235036, Note_on_c, 0, 41, 80
1, 235036, Note_on_c, 0, 87, 94
1, 235037, Note_off_c, 0, 30, 49
1, 235069, Note_off_c, 0, 98, 63
1, 235078, Note_on_c, 0, 97, 52
1, 235103, Note_off_c, 0, 87, 61
1, 235104, Note_off_c, 0, 41, 61
1, 235108, Control_c, 0, 64, 61
1, 235108, Control_c, 1, 64, 61
1, 235122, Note_off_c, 0, 97, 48
1, 235144, Control_c, 0, 64, 0
1, 235144, Control_c, 1, 64, 0
1, 235162, Control_c, 1, 64, 22
1, 235162, Note_on_c, 0, 88, 96
1, 235162, Control_c, 0, 64, 22
1, 235163, Note_on_c, 0, 100, 105
1, 235167, Note_on_c, 0, 40, 88
1, 235171, Note_on_c, 0, 28, 86
1, 235173, Note_off_c, 0, 29, 60
1, 235181, Control_c, 0, 64, 85
1, 235181, Control_c, 1, 64, 85
1, 235201, Control_c, 1, 64, 127
1, 235201, Control_c, 0, 64, 127
1, 235205, Note_off_c, 0, 99, 66
1, 235206, Note_off_c, 0, 28, 66
1, 235214, Note_off_c, 0, 100, 67
1, 235220, Note_on_c, 0, 89, 14
1, 235229, Note_off_c, 0, 88, 66
1, 235231, Note_off_c, 0, 40, 65
1, 235278, Note_off_c, 0, 89, 39
1, 235396, Note_on_c, 0, 76, 95
1, 235417, Note_on_c, 0, 64, 83
1, 235419, Note_on_c, 0, 68, 79
1, 235422, Note_on_c, 0, 52, 82
1, 235563, Note_on_c, 0, 54, 84
1, 235563, Note_on_c, 0, 75, 89
1, 235564, Note_on_c, 0, 69, 88
1, 235575, Note_off_c, 0, 68, 59
1, 235602, Note_off_c, 0, 76, 64
1, 235610, Note_off_c, 0, 52, 59
1, 235630, Control_c, 0, 64, 85
1, 235630, Control_c, 1, 64, 85
1, 235650, Control_c, 1, 64, 60
1, 235650, Control_c, 0, 64, 60
1, 235668, Poly_aftertouch_c, 0, 73, 0
1, 235668, Control_c, 0, 64, 48
1, 235668, Control_c, 1, 64, 48
1, 235704, Note_off_c, 0, 75, 68
1, 235722, Note_on_c, 0, 74, 83
1, 235727, Note_on_c, 0, 56, 85
1, 235739, Note_on_c, 0, 71, 80
1, 235764, Note_off_c, 0, 54, 63
1, 235775, Note_off_c, 0, 69, 56
1, 235800, Control_c, 0, 64, 50
1, 235800, Control_c, 1, 64, 50
1, 235818, Control_c, 1, 64, 52
1, 235818, Control_c, 0, 64, 52
1, 235841, Note_off_c, 0, 56, 62
1, 235855, Control_c, 0, 64, 54
1, 235855, Control_c, 1, 64, 54
1, 235877, Note_on_c, 0, 72, 85
1, 235886, Note_on_c, 0, 69, 86
1, 235891, Note_off_c, 0, 71, 63
1, 235892, Control_c, 0, 64, 49
1, 235892, Control_c, 1, 64, 49
1, 235895, Note_on_c, 0, 57, 79
1, 235903, Note_off_c, 0, 74, 57
1, 235910, Control_c, 0, 64, 40
1, 235910, Control_c, 1, 64, 40
1, 235930, Control_c, 1, 64, 21
1, 235930, Control_c, 0, 64, 21
1, 235967, Control_c, 0, 64, 0
1, 235967, Control_c, 1, 64, 0
1, 236003, Note_on_c, 0, 68, 85
1, 236010, Note_on_c, 0, 71, 81
1, 236019, Note_off_c, 0, 72, 60
1, 236026, Note_on_c, 0, 59, 75
1, 236043, Control_c, 0, 64, 20
1, 236043, Control_c, 1, 64, 20
1, 236046, Note_off_c, 0, 69, 58
1, 236057, Note_off_c, 0, 57, 62
1, 236061, Control_c, 0, 64, 53
1, 236061, Control_c, 1, 64, 53
1, 236080, Control_c, 1, 64, 99
1, 236080, Control_c, 0, 64, 99
1, 236098, Control_c, 0, 64, 127
1, 236098, Control_c, 1, 64, 127
1, 236126, Note_off_c, 0, 68, 59
1, 236140, Note_on_c, 0, 69, 73
1, 236140, Note_on_c, 0, 72, 85
1, 236157, Note_on_c, 0, 57, 81
1, 236165, Note_off_c, 0, 71, 61
1, 236169, Note_off_c, 0, 64, 60
1, 236169, Poly_aftertouch_c, 0, 64, 0
1, 236170, Note_off_c, 0, 69, 67
1, 236174, Note_off_c, 0, 59, 62
1, 236194, Note_off_c, 0, 72, 64
1, 236208, Note_off_c, 0, 57, 64
1, 236326, Note_on_c, 0, 93, 94
1, 236332, Note_on_c, 0, 81, 80
1, 236350, Note_on_c, 0, 33, 81
1, 236359, Note_on_c, 0, 45, 72
1, 236385, Note_off_c, 0, 81, 60
1, 236397, Note_off_c, 0, 45, 64
1, 236468, Note_on_c, 0, 35, 45
1, 236478, Note_on_c, 0, 92, 91
1, 236484, Note_on_c, 0, 80, 92
1, 236486, Note_off_c, 0, 33, 36
1, 236493, Note_on_c, 0, 47, 76
1, 236507, Note_off_c, 0, 93, 55
1, 236516, Note_on_c, 0, 36, 27
1, 236517, Note_on_c, 0, 90, 66
1, 236537, Note_off_c, 0, 47, 65
1, 236556, Note_off_c, 0, 90, 63
1, 236567, Note_off_c, 0, 80, 58
1, 236575, Note_off_c, 0, 36, 33
1, 236583, Note_off_c, 0, 35, 59
1, 236597, Note_off_c, 0, 92, 64
1, 236603, Control_c, 0, 64, 68
1, 236603, Control_c, 1, 64, 68
1, 236623, Control_c, 1, 64, 31
1, 236623, Control_c, 0, 64, 31
1, 236625, Note_on_c, 0, 37, 85
1, 236629, Note_on_c, 0, 49, 90
1, 236630, Note_on_c, 0, 79, 94
1, 236633, Note_on_c, 0, 91, 93
1, 236640, Control_c, 0, 64, 23
1, 236640, Control_c, 1, 64, 23
1, 236661, Control_c, 1, 64, 34
1, 236661, Control_c, 0, 64, 34
1, 236679, Control_c, 0, 64, 65
1, 236679, Control_c, 1, 64, 65
1, 236693, Note_off_c, 0, 79, 65
1, 236697, Note_off_c, 0, 49, 60
1, 236698, Control_c, 0, 64, 127
1, 236698, Control_c, 1, 64, 127
1, 236716, Note_off_c, 0, 37, 62
1, 236756, Note_on_c, 0, 38, 87
1, 236760, Note_on_c, 0, 50, 92
1, 236776, Note_on_c, 0, 90, 93
1, 236777, Note_on_c, 0, 78, 97
1, 236795, Note_on_c, 0, 87, 71
1, 236800, Note_off_c, 0, 91, 62
1, 236809, Note_on_c, 0, 40, 36
1, 236810, Note_off_c, 0, 40, 127
1, 236823, Note_off_c, 0, 87, 70
1, 236833, Note_off_c, 0, 50, 62
1, 236851, Note_off_c, 0, 78, 62
1, 236893, Note_off_c, 0, 90, 67
1, 236905, Note_on_c, 0, 89, 92
1, 236910, Note_on_c, 0, 39, 86
1, 236911, Note_on_c, 0, 77, 95
1, 236914, Note_on_c, 0, 51, 95
1, 236915, Note_off_c, 0, 51, 127
1, 236939, Note_off_c, 0, 38, 44
1, 236967, Poly_aftertouch_c, 0, 51, 127
1, 236969, Note_off_c, 0, 77, 63
1, 236986, Poly_aftertouch_c, 0, 51, 0
1, 236997, Control_c, 0, 64, 80
1, 236997, Control_c, 1, 64, 80
1, 237002, Note_off_c, 0, 39, 64
1, 237017, Control_c, 0, 64, 17
1, 237017, Control_c, 1, 64, 17
1, 237034, Control_c, 1, 64, 0
1, 237034, Control_c, 0, 64, 0
1, 237050, Note_on_c, 0, 52, 102
1, 237051, Note_on_c, 0, 88, 92
1, 237058, Note_on_c, 0, 40, 88
1, 237059, Note_on_c, 0, 76, 93
1, 237074, Control_c, 0, 64, 29
1, 237074, Control_c, 1, 64, 29
1, 237081, Note_on_c, 0, 77, 68
1, 237082, Note_off_c, 0, 77, 127
1, 237085, Note_off_c, 0, 89, 60
1, 237092, Control_c, 0, 64, 124
1, 237092, Control_c, 1, 64, 124
1, 237104, Note_off_c, 0, 40, 63
1, 237111, Note_off_c, 0, 88, 67
1, 237115, Note_off_c, 0, 76, 63
1, 237126, Note_off_c, 0, 52, 65
1, 237160, Poly_aftertouch_c, 0, 85, 0
1, 237283, Note_on_c, 0, 68, 84
1, 237284, Note_on_c, 0, 64, 79
1, 237411, Note_on_c, 0, 63, 81
1, 237433, Note_on_c, 0, 66, 86
1, 237436, Note_on_c, 0, 69, 85
1, 237443, Note_off_c, 0, 68, 60
1, 237559, Control_c, 0, 64, 96
1, 237559, Control_c, 1, 64, 96
1, 237566, Note_off_c, 0, 63, 63
1, 237569, Note_off_c, 0, 66, 62
1, 237569, Note_on_c, 0, 68, 69
1, 237572, Note_on_c, 0, 71, 83
1, 237573, Note_on_c, 0, 62, 82
1, 237577, Control_c, 0, 64, 46
1, 237577, Control_c, 1, 64, 46
1, 237583, Note_off_c, 0, 69, 52
1, 237597, Control_c, 0, 64, 0
1, 237597, Control_c, 1, 64, 0
1, 237644, Note_off_c, 0, 68, 64
1, 237651, Control_c, 0, 64, 16
1, 237651, Control_c, 1, 64, 16
1, 237671, Control_c, 1, 64, 61
1, 237671, Control_c, 0, 64, 61
1, 237689, Note_off_c, 0, 71, 65
1, 237689, Control_c, 0, 64, 127
1, 237689, Control_c, 1, 64, 127
1, 237715, Note_on_c, 0, 60, 86
1, 237719, Note_on_c, 0, 69, 85
1, 237726, Note_on_c, 0, 72, 83
1, 237750, Note_off_c, 0, 62, 61
1, 237859, Note_on_c, 0, 74, 82
1, 237859, Note_on_c, 0, 71, 80
1, 237860, Note_on_c, 0, 59, 81
1, 237890, Note_off_c, 0, 60, 62
1, 237891, Note_off_c, 0, 69, 57
1, 237895, Control_c, 0, 64, 76
1, 237895, Control_c, 1, 64, 76
1, 237897, Note_off_c, 0, 72, 60
1, 237914, Control_c, 0, 64, 47
1, 237914, Control_c, 1, 64, 47
1, 237952, Control_c, 1, 64, 69
1, 237952, Control_c, 0, 64, 69
1, 237971, Control_c, 0, 64, 127
1, 237971, Control_c, 1, 64, 127
1, 237980, Note_on_c, 0, 72, 85
1, 237985, Note_on_c, 0, 57, 92
1, 238006, Note_off_c, 0, 64, 64
1, 238006, Poly_aftertouch_c, 0, 64, 0
1, 238010, Note_off_c, 0, 59, 62
1, 238011, Note_off_c, 0, 71, 63
1, 238016, Note_off_c, 0, 74, 60
1, 238030, Note_off_c, 0, 57, 69
1, 238032, Note_off_c, 0, 72, 65
1, 238159, Note_on_c, 0, 93, 87
1, 238161, Note_on_c, 0, 81, 85
1, 238178, Note_on_c, 0, 33, 78
1, 238186, Note_on_c, 0, 45, 76
1, 238217, Note_off_c, 0, 81, 61
1, 238224, Note_off_c, 0, 45, 65
1, 238301, Note_off_c, 0, 93, 63
1, 238303, Note_on_c, 0, 92, 91
1, 238305, Note_on_c, 0, 80, 96
1, 238313, Note_on_c, 0, 47, 86
1, 238318, Note_off_c, 0, 33, 56
1, 238325, Poly_aftertouch_c, 0, 35, 127
1, 238334, Note_on_c, 0, 90, 69
1, 238362, Note_off_c, 0, 47, 63
1, 238376, Note_off_c, 0, 90, 60
1, 238403, Poly_aftertouch_c, 0, 35, 0
1, 238409, Note_off_c, 0, 80, 53
1, 238420, Control_c, 0, 64, 64
1, 238420, Control_c, 1, 64, 64
1, 238422, Note_off_c, 0, 92, 62
1, 238438, Control_c, 0, 64, 23
1, 238438, Control_c, 1, 64, 23
1, 238449, Note_on_c, 0, 79, 90
1, 238451, Note_on_c, 0, 91, 91
1, 238452, Note_on_c, 0, 37, 88
1, 238454, Note_on_c, 0, 49, 93
1, 238455, Note_off_c, 0, 49, 127
1, 238457, Control_c, 0, 64, 18
1, 238457, Control_c, 1, 64, 18
1, 238476, Control_c, 1, 64, 39
1, 238476, Control_c, 0, 64, 39
1, 238495, Control_c, 0, 64, 91
1, 238495, Control_c, 1, 64, 91
1, 238510, Note_off_c, 0, 79, 65
1, 238511, Poly_aftertouch_c, 0, 49, 127
1, 238513, Control_c, 0, 64, 127
1, 238513, Control_c, 1, 64, 127
1, 238522, Poly_aftertouch_c, 0, 49, 0
1, 238543, Note_off_c, 0, 37, 62
1, 238581, Note_on_c, 0, 38, 89
1, 238584, Note_on_c, 0, 50, 90
1, 238587, Note_on_c, 0, 90, 91
1, 238589, Note_on_c, 0, 78, 97
1, 238613, Note_on_c, 0, 87, 63
1, 238620, Note_off_c, 0, 91, 63
1, 238643, Note_off_c, 0, 87, 66
1, 238657, Note_off_c, 0, 50, 63
1, 238667, Note_off_c, 0, 78, 64
1, 238691, Note_off_c, 0, 90, 67
1, 238721, Note_on_c, 0, 89, 92
1, 238725, Note_on_c, 0, 77, 95
1, 238735, Note_on_c, 0, 39, 83
1, 238738, Note_on_c, 0, 51, 94
1, 238780, Note_off_c, 0, 38, 49
1, 238782, Note_off_c, 0, 77, 63
1, 238794, Control_c, 0, 64, 111
1, 238794, Control_c, 1, 64, 111
1, 238811, Note_off_c, 0, 51, 62
1, 238813, Control_c, 0, 64, 48
1, 238813, Control_c, 1, 64, 48
1, 238815, Poly_aftertouch_c, 0, 85, 0
1, 238832, Control_c, 0, 64, 0
1, 238832, Control_c, 1, 64, 0
1, 238833, Note_off_c, 0, 39, 62
1, 238847, Poly_aftertouch_c, 0, 49, 0
1, 238866, Note_on_c, 0, 88, 83
1, 238869, Control_c, 0, 64, 13
1, 238869, Control_c, 1, 64, 13
1, 238871, Note_on_c, 0, 52, 103
1, 238871, Note_on_c, 0, 76, 99
1, 238873, Note_on_c, 0, 40, 89
1, 238878, Note_off_c, 0, 89, 64
1, 238889, Control_c, 0, 64, 87
1, 238889, Control_c, 1, 64, 87
1, 238906, Control_c, 1, 64, 127
1, 238906, Control_c, 0, 64, 127
1, 238912, Note_off_c, 0, 40, 64
1, 238924, Note_off_c, 0, 88, 66
1, 238928, Note_off_c, 0, 76, 63
1, 238932, Note_off_c, 0, 52, 63
1, 238975, Poly_aftertouch_c, 0, 46, 127
1, 239023, Poly_aftertouch_c, 0, 46, 0
1, 239095, Note_on_c, 0, 68, 83
1, 239105, Note_on_c, 0, 64, 86
1, 239235, Note_on_c, 0, 63, 85
1, 239244, Note_on_c, 0, 66, 87
1, 239251, Note_on_c, 0, 69, 87
1, 239259, Note_off_c, 0, 68, 57
1, 239324, Note_off_c, 0, 63, 65
1, 239369, Note_on_c, 0, 71, 82
1, 239373, Note_off_c, 0, 66, 61
1, 239373, Note_off_c, 0, 69, 56
1, 239374, Control_c, 0, 64, 97
1, 239374, Control_c, 1, 64, 97
1, 239381, Note_on_c, 0, 68, 56
1, 239381, Note_on_c, 0, 62, 84
1, 239393, Control_c, 0, 64, 45
1, 239393, Control_c, 1, 64, 45
1, 239411, Control_c, 1, 64, 0
1, 239411, Control_c, 0, 64, 0
1, 239446, Note_off_c, 0, 68, 63
1, 239449, Control_c, 0, 64, 23
1, 239449, Control_c, 1, 64, 23
1, 239468, Control_c, 1, 64, 69
1, 239468, Control_c, 0, 64, 69
1, 239477, Note_off_c, 0, 71, 63
1, 239485, Control_c, 0, 64, 127
1, 239485, Control_c, 1, 64, 127
1, 239519, Note_on_c, 0, 60, 86
1, 239525, Note_on_c, 0, 72, 88
1, 239532, Note_on_c, 0, 69, 79
1, 239559, Note_off_c, 0, 62, 60
1, 239661, Note_on_c, 0, 71, 85
1, 239662, Note_on_c, 0, 74, 84
1, 239667, Note_on_c, 0, 59, 81
1, 239701, Note_off_c, 0, 60, 60
1, 239703, Note_off_c, 0, 69, 60
1, 239704, Note_off_c, 0, 72, 60
1, 239784, Note_on_c, 0, 72, 86
1, 239803, Note_on_c, 0, 57, 91
1, 239817, Note_off_c, 0, 64, 63
1, 239817, Poly_aftertouch_c, 0, 64, 0
1, 239818, Note_off_c, 0, 71, 62
1, 239819, Note_off_c, 0, 74, 61
1, 239823, Note_off_c, 0, 59, 60
1, 239842, Note_off_c, 0, 72, 65
1, 239849, Note_off_c, 0, 57, 68
1, 239965, Note_on_c, 0, 81, 89
1, 239970, Note_on_c, 0, 93, 86
1, 239986, Note_on_c, 0, 91, 59
1, 239988, Note_on_c, 0, 45, 86
1, 239988, Note_on_c, 0, 33, 82
1, 240011, Note_off_c, 0, 91, 38
1, 240014, Note_on_c, 0, 35, 60
1, 240023, Note_off_c, 0, 45, 62
1, 240025, Note_off_c, 0, 81, 62
1, 240053, Note_off_c, 0, 35, 34
1, 240120, Note_on_c, 0, 95, 92
1, 240130, Note_on_c, 0, 44, 93
1, 240134, Note_on_c, 0, 83, 67
1, 240143, Note_on_c, 0, 32, 79
1, 240153, Note_off_c, 0, 33, 60
1, 240153, Note_on_c, 0, 81, 42
1, 240156, Note_off_c, 0, 93, 65
1, 240161, Note_off_c, 0, 83, 69
1, 240184, Note_on_c, 0, 34, 37
1, 240186, Note_off_c, 0, 81, 40
1, 240193, Note_off_c, 0, 44, 62
1, 240218, Control_c, 0, 64, 79
1, 240218, Control_c, 1, 64, 79
1, 240229, Note_off_c, 0, 34, 46
1, 240235, Control_c, 0, 64, 34
1, 240235, Control_c, 1, 64, 34
1, 240254, Control_c, 1, 64, 16
1, 240254, Control_c, 0, 64, 16
1, 240256, Note_on_c, 0, 31, 81
1, 240257, Note_on_c, 0, 85, 96
1, 240264, Note_on_c, 0, 97, 96
1, 240272, Note_on_c, 0, 43, 52
1, 240274, Control_c, 0, 64, 34
1, 240274, Control_c, 1, 64, 34
1, 240281, Note_off_c, 0, 32, 61
1, 240292, Control_c, 0, 64, 77
1, 240292, Control_c, 1, 64, 77
1, 240293, Note_on_c, 0, 94, 67
1, 240301, Note_on_c, 0, 84, 51
1, 240303, Note_off_c, 0, 95, 65
1, 240310, Control_c, 0, 64, 127
1, 240310, Control_c, 1, 64, 127
1, 240314, Note_off_c, 0, 94, 66
1, 240323, Note_off_c, 0, 85, 65
1, 240332, Note_off_c, 0, 84, 37
1, 240336, Note_off_c, 0, 43, 60
1, 240392, Note_on_c, 0, 29, 88
1, 240395, Note_on_c, 0, 98, 91
1, 240400, Note_on_c, 0, 41, 79
1, 240412, Note_on_c, 0, 84, 75
1, 240412, Note_on_c, 0, 86, 81
1, 240412, Note_on_c, 0, 96, 76
1, 240425, Note_off_c, 0, 31, 60
1, 240429, Note_off_c, 0, 97, 64
1, 240434, Note_off_c, 0, 84, 67
1, 240442, Note_off_c, 0, 96, 51
1, 240447, Note_off_c, 0, 86, 63
1, 240450, Note_off_c, 0, 41, 61
1, 240532, Note_on_c, 0, 88, 92
1, 240536, Note_on_c, 0, 100, 86
1, 240543, Note_on_c, 0, 28, 83
1, 240546, Note_on_c, 0, 40, 82
1, 240580, Note_off_c, 0, 98, 61
1, 240584, Note_off_c, 0, 88, 65
1, 240590, Control_c, 0, 64, 68
1, 240590, Control_c, 1, 64, 68
1, 240599, Note_off_c, 0, 40, 61
1, 240610, Control_c, 0, 64, 13
1, 240610, Control_c, 1, 64, 13
1, 240629, Control_c, 1, 64, 0
1, 240629, Control_c, 0, 64, 0
1, 240649, Note_on_c, 0, 89, 101
1, 240650, Note_off_c, 0, 29, 39
1, 240658, Note_on_c, 0, 101, 104
1, 240661, Note_on_c, 0, 38, 97
1, 240662, Note_on_c, 0, 26, 95
1, 240663, Note_off_c, 0, 26, 127
1, 240666, Control_c, 0, 64, 41
1, 240666, Control_c, 1, 64, 41
1, 240676, Poly_aftertouch_c, 0, 99, 0
1, 240684, Control_c, 0, 64, 127
1, 240684, Control_c, 1, 64, 127
1, 240717, Poly_aftertouch_c, 0, 26, 0
1, 240719, Note_off_c, 0, 101, 66
1, 240726, Note_off_c, 0, 28, 56
1, 240730, Note_off_c, 0, 89, 65
1, 240735, Note_off_c, 0, 38, 63
1, 240742, Note_off_c, 0, 100, 53
1, 240909, Control_c, 0, 64, 102
1, 240909, Control_c, 1, 64, 102
1, 240910, Note_on_c, 0, 86, 89
1, 240918, Note_on_c, 0, 77, 95
1, 240919, Note_on_c, 0, 88, 83
1, 240920, Note_on_c, 0, 62, 95
1, 240927, Control_c, 0, 64, 49
1, 240927, Control_c, 1, 64, 49
1, 240928, Note_on_c, 0, 50, 88
1, 240966, Control_c, 0, 64, 14
1, 240966, Control_c, 1, 64, 14
1, 240970, Note_off_c, 0, 77, 61
1, 240984, Control_c, 0, 64, 44
1, 240984, Control_c, 1, 64, 44
1, 241003, Control_c, 1, 64, 127
1, 241003, Control_c, 0, 64, 127
1, 241062, Note_on_c, 0, 76, 82
1, 241065, Note_off_c, 0, 88, 27
1, 241067, Note_on_c, 0, 85, 88
1, 241086, Note_on_c, 0, 52, 86
1, 241114, Note_off_c, 0, 86, 63
1, 241131, Note_off_c, 0, 50, 58
1, 241139, Note_off_c, 0, 76, 61
1, 241147, Note_off_c, 0, 85, 67
1, 241151, Control_c, 0, 64, 86
1, 241151, Control_c, 1, 64, 86
1, 241171, Control_c, 1, 64, 52
1, 241171, Control_c, 0, 64, 52
1, 241201, Note_on_c, 0, 84, 91
1, 241207, Control_c, 0, 64, 87
1, 241207, Control_c, 1, 64, 87
1, 241210, Note_on_c, 0, 75, 88
1, 241223, Note_on_c, 0, 74, 61
1, 241227, Control_c, 0, 64, 127
1, 241227, Control_c, 1, 64, 127
1, 241230, Note_on_c, 0, 54, 89
1, 241247, Note_off_c, 0, 74, 64
1, 241256, Note_off_c, 0, 52, 58
1, 241274, Note_off_c, 0, 75, 66
1, 241327, Note_off_c, 0, 54, 63
1, 241332, Note_on_c, 0, 83, 74
1, 241346, Note_on_c, 0, 74, 82
1, 241378, Note_on_c, 0, 55, 81
1, 241404, Note_off_c, 0, 84, 60
1, 241408, Note_off_c, 0, 74, 62
1, 241467, Note_on_c, 0, 81, 88
1, 241490, Control_c, 0, 64, 64
1, 241490, Control_c, 1, 64, 64
1, 241505, Note_on_c, 0, 57, 81
1, 241512, Note_off_c, 0, 83, 64
1, 241527, Control_c, 0, 64, 0
1, 241527, Control_c, 1, 64, 0
1, 241534, Note_off_c, 0, 55, 64
1, 241564, Control_c, 0, 64, 31
1, 241564, Control_c, 1, 64, 31
1, 241582, Note_on_c, 0, 79, 88
1, 241583, Control_c, 0, 64, 90
1, 241583, Control_c, 1, 64, 90
1, 241590, Note_on_c, 0, 71, 82
1, 241599, Note_off_c, 0, 62, 62
1, 241601, Control_c, 0, 64, 127
1, 241601, Control_c, 1, 64, 127
1, 241603, Note_on_c, 0, 59, 88
1, 241612, Note_off_c, 0, 81, 63
1, 241621, Note_off_c, 0, 71, 68
1, 241634, Note_off_c, 0, 57, 65
1, 241635, Note_off_c, 0, 59, 66
1, 241641, Note_on_c, 0, 77, 28
1, 241642, Note_off_c, 0, 77, 127
1, 241652, Note_off_c, 0, 79, 65
1, 241684, Poly_aftertouch_c, 0, 77, 0
1, 241762, Note_on_c, 0, 91, 96
1, 241763, Note_on_c, 0, 79, 87
1, 241786, Note_on_c, 0, 31, 88
1, 241799, Note_on_c, 0, 43, 51
1, 241806, Note_off_c, 0, 79, 56
1, 241831, Note_off_c, 0, 43, 60
1, 241898, Note_on_c, 0, 93, 91
1, 241913, Note_on_c, 0, 81, 87
1, 241921, Note_on_c, 0, 42, 97
1, 241923, Note_on_c, 0, 30, 89
1, 241939, Note_off_c, 0, 31, 60
1, 241947, Note_off_c, 0, 91, 48
1, 241956, Note_off_c, 0, 81, 61
1, 241968, Note_on_c, 0, 32, 39
1, 241976, Control_c, 0, 64, 63
1, 241976, Control_c, 1, 64, 63
1, 241991, Note_off_c, 0, 42, 60
1, 241994, Control_c, 0, 64, 20
1, 241994, Control_c, 1, 64, 20
1, 242011, Note_off_c, 0, 32, 43
1, 242014, Control_c, 0, 64, 11
1, 242014, Control_c, 1, 64, 11
1, 242032, Control_c, 1, 64, 29
1, 242032, Control_c, 0, 64, 29
1, 242034, Note_on_c, 0, 95, 93
1, 242036, Note_on_c, 0, 83, 96
1, 242038, Note_on_c, 0, 29, 86
1, 242041, Note_on_c, 0, 41, 90
1, 242050, Control_c, 0, 64, 69
1, 242050, Control_c, 1, 64, 69
1, 242069, Control_c, 1, 64, 127
1, 242069, Note_on_c, 0, 92, 54
1, 242069, Control_c, 0, 64, 127
1, 242078, Note_off_c, 0, 30, 56
1, 242089, Note_off_c, 0, 83, 66
1, 242099, Note_off_c, 0, 92, 62
1, 242103, Poly_aftertouch_c, 0, 30, 0
1, 242122, Note_off_c, 0, 93, 44
1, 242129, Note_off_c, 0, 41, 60
1, 242169, Note_on_c, 0, 84, 97
1, 242173, Note_on_c, 0, 96, 98
1, 242183, Note_on_c, 0, 28, 89
1, 242195, Note_on_c, 0, 40, 76
1, 242226, Note_off_c, 0, 84, 66
1, 242240, Note_off_c, 0, 95, 52
1, 242242, Note_off_c, 0, 40, 63
1, 242309, Note_off_c, 0, 28, 61
1, 242311, Note_on_c, 0, 98, 84
1, 242311, Note_on_c, 0, 86, 97
1, 242318, Note_off_c, 0, 29, 29
1, 242320, Note_on_c, 0, 26, 84
1, 242321, Note_on_c, 0, 38, 86
1, 242350, Control_c, 0, 64, 81
1, 242350, Control_c, 1, 64, 81
1, 242356, Note_off_c, 0, 96, 63
1, 242358, Note_on_c, 0, 97, 48
1, 242365, Note_off_c, 0, 86, 66
1, 242369, Control_c, 0, 64, 28
1, 242369, Control_c, 1, 64, 28
1, 242381, Note_off_c, 0, 38, 60
1, 242387, Control_c, 0, 64, 0
1, 242387, Control_c, 1, 64, 0
1, 242390, Poly_aftertouch_c, 0, 28, 0
1, 242393, Note_off_c, 0, 97, 59
1, 242426, Control_c, 0, 64, 22
1, 242426, Control_c, 1, 64, 22
1, 242438, Note_off_c, 0, 26, 55
1, 242440, Note_on_c, 0, 88, 101
1, 242444, Control_c, 0, 64, 78
1, 242444, Control_c, 1, 64, 78
1, 242446, Note_on_c, 0, 36, 96
1, 242448, Note_on_c, 0, 100, 105
1, 242456, Note_on_c, 0, 24, 88
1, 242460, Note_on_c, 0, 94, 75
1, 242462, Control_c, 0, 64, 127
1, 242462, Control_c, 1, 64, 127
1, 242484, Note_off_c, 0, 94, 70
1, 242490, Note_off_c, 0, 98, 63
1, 242496, Note_off_c, 0, 24, 64
1, 242513, Note_off_c, 0, 88, 65
1, 242514, Note_off_c, 0, 100, 68
1, 242524, Note_off_c, 0, 36, 64
1, 242534, Poly_aftertouch_c, 0, 26, 127
1, 242556, Poly_aftertouch_c, 0, 30, 127
1, 242561, Poly_aftertouch_c, 0, 26, 0
1, 242596, Poly_aftertouch_c, 0, 30, 0
1, 242688, Control_c, 0, 64, 107
1, 242688, Control_c, 1, 64, 107
1, 242707, Control_c, 1, 64, 54
1, 242707, Control_c, 0, 64, 54
1, 242715, Note_on_c, 0, 84, 84
1, 242718, Note_on_c, 0, 86, 80
1, 242720, Note_on_c, 0, 76, 85
1, 242723, Note_on_c, 0, 60, 91
1, 242723, Note_on_c, 0, 48, 87
1, 242744, Control_c, 0, 64, 0
1, 242744, Control_c, 1, 64, 0
1, 242761, Note_off_c, 0, 76, 60
1, 242763, Control_c, 0, 64, 21
1, 242763, Control_c, 1, 64, 21
1, 242781, Control_c, 1, 64, 66
1, 242781, Control_c, 0, 64, 66
1, 242794, Poly_aftertouch_c, 0, 50, 0
1, 242800, Control_c, 0, 64, 127
1, 242800, Control_c, 1, 64, 127
1, 242848, Note_on_c, 0, 83, 85
1, 242855, Note_on_c, 0, 74, 82
1, 242863, Note_off_c, 0, 86, 42
1, 242886, Note_on_c, 0, 50, 80
1, 242891, Note_off_c, 0, 84, 57
1, 242901, Note_off_c, 0, 48, 54
1, 242916, Note_off_c, 0, 74, 63
1, 242917, Note_off_c, 0, 83, 63
1, 243002, Note_on_c, 0, 82, 93
1, 243004, Control_c, 0, 64, 90
1, 243004, Control_c, 1, 64, 90
1, 243015, Note_on_c, 0, 52, 81
1, 243016, Note_on_c, 0, 73, 83
1, 243021, Note_off_c, 0, 50, 63
1, 243023, Control_c, 0, 64, 48
1, 243023, Control_c, 1, 64, 48
1, 243044, Control_c, 1, 64, 21
1, 243044, Control_c, 0, 64, 21
1, 243054, Note_off_c, 0, 73, 64
1, 243060, Control_c, 0, 64, 27
1, 243060, Control_c, 1, 64, 27
1, 243080, Control_c, 1, 64, 52
1, 243080, Control_c, 0, 64, 52
1, 243100, Control_c, 0, 64, 94
1, 243100, Control_c, 1, 64, 94
1, 243103, Note_off_c, 0, 52, 61
1, 243104, Note_off_c, 0, 82, 61
1, 243118, Control_c, 0, 64, 127
1, 243118, Control_c, 1, 64, 127
1, 243142, Note_on_c, 0, 81, 88
1, 243151, Note_on_c, 0, 72, 73
1, 243165, Note_on_c, 0, 74, 55
1, 243175, Note_on_c, 0, 53, 82
1, 243192, Note_off_c, 0, 72, 62
1, 243193, Note_off_c, 0, 74, 58
1, 243222, Poly_aftertouch_c, 0, 80, 0
1, 243273, Note_on_c, 0, 80, 48
1, 243286, Note_on_c, 0, 79, 85
1, 243295, Note_on_c, 0, 70, 83
1, 243305, Note_on_c, 0, 55, 77
1, 243315, Note_off_c, 0, 53, 58
1, 243317, Note_off_c, 0, 81, 59
1, 243332, Note_off_c, 0, 80, 44
1, 243343, Control_c, 0, 64, 82
1, 243343, Control_c, 1, 64, 82
1, 243362, Control_c, 1, 64, 40
1, 243362, Control_c, 0, 64, 40
1, 243377, Note_off_c, 0, 79, 55
1, 243380, Control_c, 0, 64, 18
1, 243380, Control_c, 1, 64, 18
1, 243384, Note_off_c, 0, 60, 61
1, 243385, Note_off_c, 0, 70, 39
1, 243398, Note_on_c, 0, 57, 86
1, 243398, Control_c, 0, 64, 29
1, 243398, Control_c, 1, 64, 29
1, 243399, Note_on_c, 0, 77, 85
1, 243403, Note_on_c, 0, 69, 85
1, 243418, Control_c, 0, 64, 63
1, 243418, Control_c, 1, 64, 63
1, 243433, Note_off_c, 0, 55, 64
1, 243438, Note_off_c, 0, 57, 68
1, 243438, Control_c, 0, 64, 127
1, 243438, Control_c, 1, 64, 127
1, 243441, Note_on_c, 0, 78, 27
1, 243444, Note_off_c, 0, 69, 62
1, 243468, Note_off_c, 0, 77, 63
1, 243492, Note_off_c, 0, 78, 53
1, 243591, Note_on_c, 0, 77, 89
1, 243591, Note_on_c, 0, 89, 86
1, 243606, Note_on_c, 0, 88, 68
1, 243611, Note_on_c, 0, 29, 71
1, 243611, Note_on_c, 0, 28, 79
1, 243614, Note_on_c, 0, 41, 69
1, 243615, Note_on_c, 0, 40, 64
1, 243622, Note_off_c, 0, 77, 64
1, 243626, Note_on_c, 0, 87, 41
1, 243641, Note_off_c, 0, 88, 57
1, 243646, Control_c, 0, 64, 80
1, 243646, Control_c, 1, 64, 80
1, 243656, Note_off_c, 0, 28, 65
1, 243656, Note_off_c, 0, 40, 60
1, 243657, Note_off_c, 0, 41, 65
1, 243659, Note_off_c, 0, 89, 64
1, 243665, Control_c, 0, 64, 19
1, 243665, Control_c, 1, 64, 19
1, 243668, Note_off_c, 0, 87, 54
1, 243680, Control_c, 0, 64, 0
1, 243680, Control_c, 1, 64, 0
1, 243727, Note_on_c, 0, 81, 90
1, 243727, Note_on_c, 0, 93, 98
1, 243730, Note_on_c, 0, 27, 85
1, 243736, Note_off_c, 0, 29, 55
1, 243737, Note_on_c, 0, 39, 80
1, 243770, Note_off_c, 0, 81, 63
1, 243781, Note_off_c, 0, 39, 66
1, 243784, Note_off_c, 0, 93, 65
1, 243816, Note_off_c, 0, 27, 61
1, 243849, Control_c, 0, 64, 127
1, 243849, Control_c, 1, 64, 127
1, 243857, Note_on_c, 0, 38, 84
1, 243863, Note_on_c, 0, 94, 93
1, 243864, Note_on_c, 0, 82, 98
1, 243868, Note_on_c, 0, 26, 83
1, 243868, Poly_aftertouch_c, 0, 30, 0
1, 243884, Note_on_c, 0, 27, 29
1, 243895, Note_off_c, 0, 26, 63
1, 243903, Note_on_c, 0, 95, 44
1, 243910, Note_off_c, 0, 82, 66
1, 243916, Note_off_c, 0, 94, 65
1, 243918, Note_off_c, 0, 38, 65
1, 243924, Poly_aftertouch_c, 0, 92, 0
1, 243933, Note_off_c, 0, 27, 57
1, 243939, Note_off_c, 0, 95, 41
1, 244038, Note_on_c, 0, 74, 80
1, 244038, Note_on_c, 0, 82, 83
1, 244070, Note_on_c, 0, 58, 80
1, 244072, Note_off_c, 0, 74, 65
1, 244075, Note_on_c, 0, 83, 59
1, 244099, Note_off_c, 0, 83, 63
1, 244115, Note_off_c, 0, 82, 60
1, 244167, Note_on_c, 0, 81, 85
1, 244172, Note_on_c, 0, 62, 84
1, 244185, Note_off_c, 0, 58, 59
1, 244185, Control_c, 0, 64, 82
1, 244185, Control_c, 1, 64, 82
1, 244199, Note_on_c, 0, 72, 51
1, 244202, Control_c, 0, 64, 26
1, 244202, Control_c, 1, 64, 26
1, 244223, Control_c, 1, 64, 0
1, 244223, Control_c, 0, 64, 0
1, 244233, Note_off_c, 0, 72, 38
1, 244260, Note_off_c, 0, 62, 63
1, 244260, Control_c, 0, 64, 20
1, 244260, Control_c, 1, 64, 20
1, 244279, Control_c, 1, 64, 76
1, 244279, Control_c, 0, 64, 76
1, 244289, Note_on_c, 0, 64, 92
1, 244294, Note_on_c, 0, 80, 89
1, 244295, Note_on_c, 0, 52, 82
1, 244299, Control_c, 0, 64, 127
1, 244299, Control_c, 1, 64, 127
1, 244303, Note_on_c, 0, 71, 88
1, 244331, Note_off_c, 0, 64, 61
1, 244331, Poly_aftertouch_c, 0, 64, 0
1, 244332, Note_off_c, 0, 71, 65
1, 244353, Note_off_c, 0, 52, 63
1, 244367, Note_off_c, 0, 80, 65
1, 244376, Note_off_c, 0, 81, 25
1, 244408, Poly_aftertouch_c, 0, 83, 0
1, 244450, Note_on_c, 0, 88, 93
1, 244464, Note_on_c, 0, 76, 77
1, 244484, Note_on_c, 0, 40, 84
1, 244489, Note_on_c, 0, 28, 85
1, 244497, Note_on_c, 0, 87, 32
1, 244499, Note_off_c, 0, 76, 70
1, 244499, Note_on_c, 0, 77, 48
1, 244519, Note_off_c, 0, 88, 64
1, 244521, Note_off_c, 0, 40, 64
1, 244529, Note_off_c, 0, 77, 44
1, 244542, Note_off_c, 0, 87, 31
1, 244593, Note_on_c, 0, 92, 96
1, 244594, Note_on_c, 0, 80, 97
1, 244595, Note_on_c, 0, 27, 71
1, 244611, Note_on_c, 0, 90, 81
1, 244616, Note_on_c, 0, 26, 75
1, 244633, Note_on_c, 0, 38, 46
1, 244633, Control_c, 0, 64, 99
1, 244633, Control_c, 1, 64, 99
1, 244638, Note_off_c, 0, 90, 69
1, 244645, Note_off_c, 0, 80, 64
1, 244652, Control_c, 0, 64, 44
1, 244652, Control_c, 1, 64, 44
1, 244659, Note_off_c, 0, 27, 54
1, 244672, Control_c, 0, 64, 0
1, 244672, Control_c, 1, 64, 0
1, 244678, Poly_aftertouch_c, 0, 91, 0
1, 244681, Note_off_c, 0, 38, 47
1, 244704, Note_off_c, 0, 28, 55
1, 244714, Note_on_c, 0, 93, 98
1, 244715, Note_on_c, 0, 36, 88
1, 244718, Note_on_c, 0, 81, 95
1, 244727, Note_on_c, 0, 24, 85
1, 244727, Control_c, 0, 64, 51
1, 244727, Control_c, 1, 64, 51
1, 244746, Control_c, 1, 64, 127
1, 244746, Control_c, 0, 64, 127
1, 244756, Note_off_c, 0, 92, 66
1, 244758, Note_off_c, 0, 24, 64
1, 244767, Note_off_c, 0, 93, 65
1, 244771, Note_off_c, 0, 26, 59
1, 244772, Poly_aftertouch_c, 0, 26, 0
1, 244774, Note_off_c, 0, 81, 64
1, 244792, Note_off_c, 0, 36, 63
1, 244897, Note_on_c, 0, 81, 90
1, 244909, Note_on_c, 0, 72, 86
1, 244931, Note_off_c, 0, 72, 72
1, 244945, Note_on_c, 0, 57, 80
1, 244965, Note_off_c, 0, 81, 58
1, 245025, Note_on_c, 0, 79, 87
1, 245037, Note_off_c, 0, 57, 55
1, 245041, Note_on_c, 0, 60, 81
1, 245042, Note_on_c, 0, 71, 82
1, 245065, Control_c, 0, 64, 101
1, 245065, Control_c, 1, 64, 101
1, 245074, Note_off_c, 0, 71, 64
1, 245084, Control_c, 0, 64, 50
1, 245084, Control_c, 1, 64, 50
1, 245117, Note_off_c, 0, 79, 59
1, 245121, Note_off_c, 0, 60, 62
1, 245140, Control_c, 0, 64, 35
1, 245140, Control_c, 1, 64, 35
1, 245150, Note_on_c, 0, 77, 91
1, 245158, Note_on_c, 0, 62, 93
1, 245159, Control_c, 0, 64, 82
1, 245159, Control_c, 1, 64, 82
1, 245168, Note_on_c, 0, 69, 78
1, 245175, Note_on_c, 0, 50, 80
1, 245178, Control_c, 0, 64, 127
1, 245178, Control_c, 1, 64, 127
1, 245194, Note_on_c, 0, 67, 47
1, 245195, Note_off_c, 0, 69, 64
1, 245195, Note_off_c, 0, 67, 127
1, 245198, Note_off_c, 0, 62, 60
1, 245223, Note_off_c, 0, 77, 63
1, 245225, Note_off_c, 0, 50, 61
1, 245228, Poly_aftertouch_c, 0, 79, 0
1, 245326, Note_on_c, 0, 74, 93
1, 245326, Note_on_c, 0, 86, 97
1, 245352, Note_on_c, 0, 41, 86
1, 245354, Note_on_c, 0, 29, 90
1, 245373, Note_off_c, 0, 74, 62
1, 245399, Note_off_c, 0, 41, 63
1, 245405, Note_off_c, 0, 86, 64
1, 245428, Poly_aftertouch_c, 0, 84, 0
1, 245468, Note_on_c, 0, 89, 100
1, 245469, Note_on_c, 0, 77, 96
1, 245479, Note_on_c, 0, 26, 85
1, 245486, Note_on_c, 0, 28, 75
1, 245487, Note_off_c, 0, 29, 63
1, 245510, Note_on_c, 0, 87, 41
1, 245514, Note_off_c, 0, 77, 64
1, 245514, Control_c, 0, 64, 100
1, 245514, Control_c, 1, 64, 100
1, 245532, Control_c, 1, 64, 41
1, 245532, Control_c, 0, 64, 41
1, 245546, Note_off_c, 0, 87, 39
1, 245546, Note_off_c, 0, 26, 62
1, 245552, Control_c, 0, 64, 0
1, 245552, Control_c, 1, 64, 0
1, 245554, Note_off_c, 0, 89, 62
1, 245570, Note_off_c, 0, 28, 58
1, 245589, Note_on_c, 0, 40, 97
1, 245595, Note_on_c, 0, 88, 92
1, 245597, Note_on_c, 0, 76, 102
1, 245603, Note_on_c, 0, 89, 56
1, 245607, Control_c, 0, 64, 38
1, 245607, Control_c, 1, 64, 38
1, 245609, Note_on_c, 0, 29, 76
1, 245622, Note_on_c, 0, 85, 69
1, 245625, Control_c, 0, 64, 110
1, 245625, Control_c, 1, 64, 110
1, 245634, Note_off_c, 0, 89, 66
1, 245636, Note_off_c, 0, 29, 63
1, 245644, Note_off_c, 0, 40, 64
1, 245645, Control_c, 0, 64, 127
1, 245645, Control_c, 1, 64, 127
1, 245646, Note_off_c, 0, 76, 66
1, 245647, Note_off_c, 0, 85, 67
1, 245651, Note_off_c, 0, 88, 66
1, 245692, Poly_aftertouch_c, 0, 28, 0
1, 245735, Poly_aftertouch_c, 0, 32, 0
1, 245785, Note_on_c, 0, 68, 88
1, 245789, Note_on_c, 0, 76, 81
1, 245794, Note_on_c, 0, 77, 78
1, 245797, Note_on_c, 0, 64, 91
1, 245820, Note_off_c, 0, 77, 64
1, 245827, Note_off_c, 0, 68, 60
1, 245851, Note_off_c, 0, 76, 62
1, 245869, Note_off_c, 0, 64, 61
1, 245869, Poly_aftertouch_c, 0, 64, 0
1, 245920, Note_on_c, 0, 80, 90
1, 245923, Note_on_c, 0, 52, 84
1, 245924, Note_on_c, 0, 71, 80
1, 245938, Note_on_c, 0, 68, 61
1, 245941, Note_on_c, 0, 70, 57
1, 245955, Note_off_c, 0, 71, 62
1, 245970, Note_off_c, 0, 70, 61
1, 245970, Note_off_c, 0, 68, 59
1, 245992, Note_off_c, 0, 52, 63
1, 246004, Note_off_c, 0, 80, 65
1, 246019, Control_c, 0, 64, 64
1, 246019, Control_c, 1, 64, 64
1, 246038, Control_c, 1, 64, 0
1, 246038, Control_c, 0, 64, 0
1, 246043, Poly_aftertouch_c, 0, 54, 127
1, 246044, Poly_aftertouch_c, 0, 54, 0
1, 246054, Note_on_c, 0, 69, 101
1, 246056, Note_on_c, 0, 81, 95
1, 246066, Note_on_c, 0, 72, 79
1, 246069, Note_on_c, 0, 57, 92
1, 246075, Note_on_c, 0, 45, 90
1, 246087, Note_on_c, 0, 79, 55
1, 246088, Note_off_c, 0, 79, 127
1, 246093, Note_off_c, 0, 72, 70
1, 246112, Note_off_c, 0, 69, 64
1, 246113, Control_c, 0, 64, 38
1, 246113, Control_c, 1, 64, 38
1, 246120, Note_on_c, 0, 47, 42
1, 246121, Note_off_c, 0, 47, 127
1, 246131, Control_c, 0, 64, 76
1, 246131, Control_c, 1, 64, 76
1, 246150, Control_c, 1, 64, 127
1, 246150, Control_c, 0, 64, 127
1, 246175, Note_off_c, 0, 45, 51
1, 246185, Note_on_c, 0, 71, 54
1, 246186, Note_off_c, 0, 57, 34
1, 246190, Note_on_c, 0, 69, 67
1, 246209, Note_on_c, 0, 48, 81
1, 246210, Note_on_c, 0, 76, 80
1, 246228, Note_off_c, 0, 69, 63
1, 246232, Note_on_c, 0, 77, 55
1, 246233, Note_off_c, 0, 71, 66
1, 246234, Note_off_c, 0, 81, 52
1, 246262, Note_off_c, 0, 77, 62
1, 246265, Note_off_c, 0, 48, 61
1, 246274, Note_off_c, 0, 76, 64
1, 246374, Note_on_c, 0, 68, 98
1, 246377, Note_on_c, 0, 71, 86
1, 246377, Note_on_c, 0, 80, 96
1, 246378, Note_on_c, 0, 64, 92
1, 246387, Note_on_c, 0, 52, 89
1, 246408, Note_off_c, 0, 71, 66
1, 246414, Note_on_c, 0, 70, 41
1, 246415, Note_off_c, 0, 70, 127
1, 246422, Note_off_c, 0, 64, 61
1, 246422, Poly_aftertouch_c, 0, 64, 0
1, 246428, Note_off_c, 0, 68, 61
1, 246428, Note_on_c, 0, 78, 26
1, 246440, Note_off_c, 0, 52, 53
1, 246454, Note_off_c, 0, 80, 65
1, 246482, Note_off_c, 0, 78, 52
1, 246507, Control_c, 0, 64, 59
1, 246507, Control_c, 1, 64, 59
1, 246524, Note_on_c, 0, 81, 96
1, 246526, Control_c, 0, 64, 0
1, 246526, Control_c, 1, 64, 0
1, 246527, Note_on_c, 0, 69, 101
1, 246534, Note_on_c, 0, 72, 92
1, 246535, Note_on_c, 0, 57, 93
1, 246536, Note_on_c, 0, 45, 95
1, 246574, Note_off_c, 0, 72, 61
1, 246581, Control_c, 0, 64, 47
1, 246581, Control_c, 1, 64, 47
1, 246599, Control_c, 1, 64, 127
1, 246599, Control_c, 0, 64, 127
1, 246701, Note_on_c, 0, 48, 87
1, 246705, Note_on_c, 0, 76, 84
1, 246713, Note_off_c, 0, 45, 61
1, 246723, Note_off_c, 0, 57, 62
1, 246725, Note_off_c, 0, 69, 56
1, 246726, Note_off_c, 0, 81, 55
1, 246729, Note_on_c, 0, 77, 56
1, 246757, Note_off_c, 0, 77, 60
1, 246760, Note_off_c, 0, 48, 62
1, 246765, Note_off_c, 0, 76, 64
1, 246870, Note_on_c, 0, 80, 98
1, 246874, Note_on_c, 0, 68, 94
1, 246878, Note_on_c, 0, 71, 84
1, 246888, Note_on_c, 0, 64, 93
1, 246899, Note_on_c, 0, 52, 86
1, 246914, Note_off_c, 0, 71, 63
1, 246914, Note_on_c, 0, 53, 62
1, 246933, Note_off_c, 0, 52, 63
1, 246934, Note_off_c, 0, 64, 58
1, 246934, Poly_aftertouch_c, 0, 64, 0
1, 246935, Note_off_c, 0, 68, 63
1, 246944, Note_off_c, 0, 53, 58
1, 246960, Note_off_c, 0, 80, 64
1, 247012, Control_c, 0, 64, 61
1, 247012, Control_c, 1, 64, 61
1, 247020, Poly_aftertouch_c, 0, 70, 0
1, 247030, Control_c, 0, 64, 0
1, 247030, Control_c, 1, 64, 0
1, 247045, Note_on_c, 0, 81, 97
1, 247047, Note_on_c, 0, 69, 99
1, 247057, Note_on_c, 0, 72, 80
1, 247067, Note_on_c, 0, 57, 83
1, 247067, Control_c, 0, 64, 12
1, 247067, Control_c, 1, 64, 12
1, 247074, Note_on_c, 0, 45, 81
1, 247078, Note_on_c, 0, 43, 83
1, 247082, Note_on_c, 0, 55, 68
1, 247086, Control_c, 0, 64, 62
1, 247086, Control_c, 1, 64, 62
1, 247087, Note_off_c, 0, 72, 72
1, 247093, Note_off_c, 0, 69, 62
1, 247103, Note_off_c, 0, 57, 69
1, 247104, Control_c, 0, 64, 127
1, 247104, Control_c, 1, 64, 127
1, 247107, Note_off_c, 0, 55, 63
1, 247111, Note_off_c, 0, 43, 68
1, 247111, Note_off_c, 0, 45, 65
1, 247125, Note_off_c, 0, 81, 65
1, 247130, Note_on_c, 0, 46, 27
1, 247131, Note_off_c, 0, 46, 127
1, 247347, Note_on_c, 0, 93, 90
1, 247363, Note_on_c, 0, 81, 78
1, 247371, Note_on_c, 0, 33, 87
1, 247374, Note_on_c, 0, 45, 85
1, 247376, Note_on_c, 0, 91, 64
1, 247401, Note_off_c, 0, 91, 127
1, 247418, Note_off_c, 0, 81, 58
1, 247430, Note_on_c, 0, 79, 26
1, 247431, Note_off_c, 0, 79, 127
1, 247432, Note_off_c, 0, 45, 56
1, 247433, Note_on_c, 0, 35, 21
1, 247434, Note_off_c, 0, 35, 127
1, 247540, Note_on_c, 0, 44, 95
1, 247542, Note_on_c, 0, 83, 89
1, 247546, Note_on_c, 0, 95, 97
1, 247547, Note_on_c, 0, 32, 88
1, 247553, Control_c, 0, 64, 90
1, 247553, Control_c, 1, 64, 90
1, 247564, Note_off_c, 0, 33, 63
1, 247572, Control_c, 0, 64, 44
1, 247572, Control_c, 1, 64, 44
1, 247576, Note_off_c, 0, 93, 63
1, 247593, Control_c, 0, 64, 15
1, 247593, Control_c, 1, 64, 15
1, 247602, Note_off_c, 0, 83, 66
1, 247609, Control_c, 0, 64, 27
1, 247609, Control_c, 1, 64, 27
1, 247616, Note_off_c, 0, 44, 56
1, 247630, Control_c, 0, 64, 64
1, 247630, Control_c, 1, 64, 64
1, 247643, Note_off_c, 0, 32, 60
1, 247648, Control_c, 0, 64, 127
1, 247648, Control_c, 1, 64, 127
1, 247673, Note_on_c, 0, 31, 90
1, 247676, Note_on_c, 0, 43, 89
1, 247691, Note_on_c, 0, 85, 95
1, 247692, Note_on_c, 0, 97, 96
1, 247728, Note_off_c, 0, 95, 65
1, 247746, Note_on_c, 0, 33, 16
1, 247747, Note_off_c, 0, 33, 127
1, 247755, Note_off_c, 0, 85, 63
1, 247757, Note_off_c, 0, 43, 60
1, 247808, Poly_aftertouch_c, 0, 33, 0
1, 247824, Note_on_c, 0, 86, 92
1, 247826, Note_on_c, 0, 98, 88
1, 247828, Note_on_c, 0, 29, 91
1, 247832, Note_on_c, 0, 41, 88
1, 247853, Note_off_c, 0, 31, 50
1, 247870, Note_off_c, 0, 97, 66
1, 247882, Note_off_c, 0, 86, 65
1, 247896, Note_off_c, 0, 41, 61
1, 247963, Note_on_c, 0, 100, 89
1, 247969, Note_on_c, 0, 88, 89
1, 247975, Note_on_c, 0, 28, 87
1, 247984, Note_on_c, 0, 40, 78
1, 248005, Control_c, 0, 64, 59
1, 248005, Control_c, 1, 64, 59
1, 248020, Note_off_c, 0, 88, 64
1, 248021, Control_c, 0, 64, 0
1, 248021, Control_c, 1, 64, 0
1, 248023, Note_on_c, 0, 99, 28
1, 248024, Note_off_c, 0, 40, 62
1, 248024, Note_off_c, 0, 99, 127
1, 248047, Note_off_c, 0, 98, 24
1, 248052, Note_off_c, 0, 29, 57
1, 248078, Control_c, 0, 64, 48
1, 248078, Control_c, 1, 64, 48
1, 248092, Note_on_c, 0, 89, 105
1, 248093, Note_on_c, 0, 101, 108
1, 248096, Note_on_c, 0, 38, 96
1, 248097, Control_c, 0, 64, 127
1, 248097, Control_c, 1, 64, 127
1, 248099, Note_on_c, 0, 26, 96
1, 248140, Note_on_c, 0, 97, 35
1, 248144, Note_off_c, 0, 26, 63
1, 248154, Note_off_c, 0, 101, 67
1, 248159, Note_off_c, 0, 89, 65
1, 248162, Note_off_c, 0, 38, 64
1, 248174, Note_off_c, 0, 100, 64
1, 248176, Note_off_c, 0, 28, 49
1, 248177, Poly_aftertouch_c, 0, 28, 0
1, 248183, Note_off_c, 0, 97, 33
1, 248252, Poly_aftertouch_c, 0, 30, 0
1, 248331, Note_on_c, 0, 86, 99
1, 248337, Note_on_c, 0, 77, 99
1, 248345, Note_on_c, 0, 62, 96
1, 248357, Note_on_c, 0, 50, 81
1, 248359, Note_on_c, 0, 48, 77
1, 248389, Note_off_c, 0, 77, 64
1, 248472, Note_off_c, 0, 48, 56
1, 248503, Note_on_c, 0, 76, 84
1, 248503, Note_on_c, 0, 85, 86
1, 248510, Control_c, 0, 64, 118
1, 248510, Control_c, 1, 64, 118
1, 248527, Note_on_c, 0, 52, 82
1, 248529, Control_c, 0, 64, 56
1, 248529, Control_c, 1, 64, 56
1, 248545, Control_c, 1, 64, 0
1, 248545, Control_c, 0, 64, 0
1, 248547, Note_off_c, 0, 86, 62
1, 248570, Note_off_c, 0, 50, 61
1, 248584, Control_c, 0, 64, 15
1, 248584, Control_c, 1, 64, 15
1, 248603, Control_c, 1, 64, 66
1, 248603, Control_c, 0, 64, 66
1, 248605, Note_off_c, 0, 85, 65
1, 248624, Control_c, 0, 64, 127
1, 248624, Control_c, 1, 64, 127
1, 248646, Note_on_c, 0, 84, 86
1, 248653, Note_on_c, 0, 75, 90
1, 248659, Note_off_c, 0, 76, 64
1, 248659, Note_on_c, 0, 76, 56
1, 248675, Note_on_c, 0, 54, 90
1, 248692, Note_off_c, 0, 76, 58
1, 248716, Note_off_c, 0, 52, 58
1, 248718, Note_off_c, 0, 75, 64
1, 248769, Note_off_c, 0, 54, 63
1, 248782, Note_on_c, 0, 83, 90
1, 248787, Note_on_c, 0, 74, 87
1, 248829, Note_on_c, 0, 55, 86
1, 248840, Note_off_c, 0, 84, 61
1, 248849, Note_off_c, 0, 74, 62
1, 248918, Note_on_c, 0, 81, 89
1, 248948, Note_off_c, 0, 83, 65
1, 248959, Note_on_c, 0, 57, 84
1, 248959, Control_c, 0, 64, 64
1, 248959, Control_c, 1, 64, 64
1, 248966, Note_on_c, 0, 72, 40
1, 248977, Control_c, 0, 64, 0
1, 248977, Control_c, 1, 64, 0
1, 248993, Note_off_c, 0, 55, 62
1, 249002, Note_off_c, 0, 72, 37
1, 249033, Control_c, 0, 64, 48
1, 249033, Control_c, 1, 64, 48
1, 249036, Note_on_c, 0, 79, 92
1, 249049, Note_on_c, 0, 71, 82
1, 249052, Control_c, 0, 64, 127
1, 249052, Control_c, 1, 64, 127
1, 249056, Note_on_c, 0, 59, 90
1, 249061, Note_off_c, 0, 62, 61
1, 249063, Note_off_c, 0, 81, 61
1, 249076, Note_off_c, 0, 71, 70
1, 249088, Note_off_c, 0, 57, 63
1, 249096, Note_off_c, 0, 59, 68
1, 249098, Note_off_c, 0, 79, 65
1, 249209, Note_on_c, 0, 91, 97
1, 249210, Note_on_c, 0, 79, 94
1, 249229, Note_on_c, 0, 43, 88
1, 249231, Note_on_c, 0, 31, 86
1, 249246, Note_on_c, 0, 89, 47
1, 249247, Note_off_c, 0, 89, 127
1, 249261, Note_off_c, 0, 79, 63
1, 249268, Note_off_c, 0, 43, 61
1, 249344, Note_on_c, 0, 93, 99
1, 249348, Note_on_c, 0, 81, 90
1, 249358, Note_on_c, 0, 30, 90
1, 249361, Note_on_c, 0, 42, 92
1, 249379, Note_off_c, 0, 91, 61
1, 249381, Note_off_c, 0, 31, 62
1, 249388, Control_c, 0, 64, 103
1, 249388, Control_c, 1, 64, 103
1, 249401, Note_off_c, 0, 81, 63
1, 249407, Control_c, 0, 64, 50
1, 249407, Control_c, 1, 64, 50
1, 249424, Note_off_c, 0, 30, 63
1, 249426, Control_c, 0, 64, 0
1, 249426, Control_c, 1, 64, 0
1, 249429, Note_off_c, 0, 42, 60
1, 249464, Control_c, 0, 64, 25
1, 249464, Control_c, 1, 64, 25
1, 249475, Note_on_c, 0, 83, 102
1, 249476, Note_on_c, 0, 41, 94
1, 249477, Note_on_c, 0, 29, 78
1, 249481, Control_c, 0, 64, 75
1, 249481, Control_c, 1, 64, 75
1, 249488, Note_on_c, 0, 95, 94
1, 249498, Note_on_c, 0, 30, 46
1, 249499, Control_c, 0, 64, 127
1, 249499, Control_c, 1, 64, 127
1, 249524, Note_on_c, 0, 31, 42
1, 249524, Note_on_c, 0, 92, 43
1, 249527, Note_off_c, 0, 30, 57
1, 249531, Note_off_c, 0, 83, 66
1, 249550, Note_off_c, 0, 41, 63
1, 249553, Note_off_c, 0, 93, 47
1, 249568, Note_off_c, 0, 92, 41
1, 249569, Note_off_c, 0, 31, 52
1, 249605, Note_on_c, 0, 84, 99
1, 249605, Poly_aftertouch_c, 0, 34, 0
1, 249612, Note_on_c, 0, 96, 101
1, 249622, Note_on_c, 0, 28, 90
1, 249623, Note_on_c, 0, 40, 87
1, 249651, Note_off_c, 0, 95, 62
1, 249675, Note_off_c, 0, 84, 65
1, 249679, Note_on_c, 0, 92, 9
1, 249680, Note_off_c, 0, 92, 127
1, 249682, Note_off_c, 0, 40, 63
1, 249699, Note_off_c, 0, 29, 33
1, 249750, Note_on_c, 0, 86, 97
1, 249756, Note_on_c, 0, 98, 89
1, 249758, Note_on_c, 0, 26, 89
1, 249759, Note_on_c, 0, 38, 90
1, 249760, Note_off_c, 0, 28, 57
1, 249797, Note_on_c, 0, 97, 52
1, 249802, Note_off_c, 0, 96, 66
1, 249817, Note_off_c, 0, 86, 65
1, 249820, Note_on_c, 0, 27, 34
1, 249820, Control_c, 0, 64, 64
1, 249820, Control_c, 1, 64, 64
1, 249826, Note_off_c, 0, 38, 63
1, 249828, Note_off_c, 0, 97, 61
1, 249831, Poly_aftertouch_c, 0, 28, 0
1, 249837, Control_c, 0, 64, 0
1, 249837, Control_c, 1, 64, 0
1, 249863, Note_off_c, 0, 27, 33
1, 249875, Control_c, 0, 64, 11
1, 249875, Control_c, 1, 64, 11
1, 249886, Note_on_c, 0, 88, 103
1, 249890, Note_on_c, 0, 36, 99
1, 249891, Note_on_c, 0, 100, 106
1, 249895, Control_c, 0, 64, 73
1, 249895, Control_c, 1, 64, 73
1, 249897, Note_on_c, 0, 24, 93
1, 249913, Control_c, 0, 64, 127
1, 249913, Control_c, 1, 64, 127
1, 249917, Note_on_c, 0, 94, 64
1, 249933, Note_off_c, 0, 26, 52
1, 249941, Note_off_c, 0, 94, 65
1, 249947, Note_off_c, 0, 24, 62
1, 249954, Note_off_c, 0, 100, 69
1, 249959, Note_off_c, 0, 88, 66
1, 249963, Note_off_c, 0, 98, 42
1, 249965, Note_off_c, 0, 36, 64
1, 250147, Note_on_c, 0, 84, 96
1, 250153, Note_on_c, 0, 76, 95
1, 250167, Note_on_c, 0, 60, 85
1, 250172, Note_on_c, 0, 59, 80
1, 250173, Note_on_c, 0, 47, 83
1, 250175, Control_c, 0, 64, 118
1, 250175, Control_c, 1, 64, 118
1, 250180, Note_on_c, 0, 48, 77
1, 250195, Control_c, 0, 64, 64
1, 250195, Control_c, 1, 64, 64
1, 250199, Note_off_c, 0, 76, 63
1, 250204, Note_off_c, 0, 59, 62
1, 250207, Note_off_c, 0, 47, 69
1, 250211, Control_c, 0, 64, 47
1, 250211, Control_c, 1, 64, 47
1, 250220, Note_off_c, 0, 60, 59
1, 250231, Control_c, 0, 64, 65
1, 250231, Control_c, 1, 64, 65
1, 250250, Control_c, 1, 64, 127
1, 250250, Control_c, 0, 64, 127
1, 250288, Note_on_c, 0, 83, 90
1, 250296, Note_on_c, 0, 74, 91
1, 250316, Poly_aftertouch_c, 0, 60, 127
1, 250325, Note_on_c, 0, 50, 80
1, 250326, Note_off_c, 0, 84, 62
1, 250339, Note_off_c, 0, 48, 53
1, 250343, Control_c, 0, 64, 92
1, 250343, Control_c, 1, 64, 92
1, 250352, Note_off_c, 0, 74, 65
1, 250361, Note_off_c, 0, 83, 65
1, 250361, Control_c, 0, 64, 66
1, 250361, Control_c, 1, 64, 66
1, 250381, Control_c, 1, 64, 79
1, 250381, Control_c, 0, 64, 79
1, 250399, Control_c, 0, 64, 127
1, 250399, Control_c, 1, 64, 127
1, 250442, Note_on_c, 0, 52, 85
1, 250445, Note_on_c, 0, 82, 94
1, 250448, Note_on_c, 0, 73, 89
1, 250457, Note_off_c, 0, 50, 62
1, 250498, Note_on_c, 0, 83, 45
1, 250504, Note_off_c, 0, 73, 60
1, 250520, Note_off_c, 0, 52, 61
1, 250530, Note_off_c, 0, 83, 56
1, 250549, Control_c, 0, 64, 87
1, 250549, Control_c, 1, 64, 87
1, 250567, Note_off_c, 0, 82, 54
1, 250568, Control_c, 0, 64, 48
1, 250568, Control_c, 1, 64, 48
1, 250580, Note_on_c, 0, 81, 85
1, 250585, Control_c, 0, 64, 26
1, 250585, Control_c, 1, 64, 26
1, 250589, Note_on_c, 0, 72, 84
1, 250598, Note_on_c, 0, 53, 89
1, 250604, Control_c, 0, 64, 35
1, 250604, Control_c, 1, 64, 35
1, 250625, Control_c, 1, 64, 67
1, 250625, Control_c, 0, 64, 67
1, 250637, Note_off_c, 0, 72, 64
1, 250642, Control_c, 0, 64, 127
1, 250642, Control_c, 1, 64, 127
1, 250656, Poly_aftertouch_c, 0, 80, 0
1, 250712, Note_on_c, 0, 79, 82
1, 250726, Note_on_c, 0, 70, 87
1, 250731, Note_on_c, 0, 55, 74
1, 250732, Note_off_c, 0, 53, 61
1, 250748, Note_off_c, 0, 81, 59
1, 250799, Note_off_c, 0, 70, 61
1, 250820, Note_off_c, 0, 79, 58
1, 250831, Note_on_c, 0, 57, 88
1, 250839, Note_on_c, 0, 77, 83
1, 250840, Poly_aftertouch_c, 0, 60, 0
1, 250847, Note_on_c, 0, 69, 88
1, 250868, Control_c, 0, 64, 61
1, 250868, Control_c, 1, 64, 61
1, 250869, Note_off_c, 0, 55, 64
1, 250879, Note_off_c, 0, 57, 66
1, 250886, Note_on_c, 0, 76, 42
1, 250886, Control_c, 0, 64, 23
1, 250886, Control_c, 1, 64, 23
1, 250887, Note_off_c, 0, 76, 127
1, 250899, Note_off_c, 0, 69, 62
1, 250919, Note_off_c, 0, 77, 64
1, 250923, Control_c, 0, 64, 45
1, 250923, Control_c, 1, 64, 45
1, 250943, Control_c, 1, 64, 92
1, 250943, Control_c, 0, 64, 92
1, 250961, Control_c, 0, 64, 127
1, 250961, Control_c, 1, 64, 127
1, 251017, Note_on_c, 0, 29, 91
1, 251019, Note_on_c, 0, 41, 85
1, 251020, Note_on_c, 0, 77, 89
1, 251021, Note_off_c, 0, 77, 127
1, 251026, Note_on_c, 0, 88, 78
1, 251027, Note_on_c, 0, 89, 87
1, 251055, Poly_aftertouch_c, 0, 77, 0
1, 251074, Note_off_c, 0, 41, 56
1, 251094, Note_off_c, 0, 88, 61
1, 251095, Note_off_c, 0, 89, 63
1, 251113, Poly_aftertouch_c, 0, 87, 0
1, 251159, Note_on_c, 0, 93, 97
1, 251160, Note_on_c, 0, 27, 84
1, 251161, Note_on_c, 0, 81, 80
1, 251163, Note_off_c, 0, 29, 50
1, 251166, Note_on_c, 0, 79, 78
1, 251167, Note_on_c, 0, 39, 84
1, 251186, Control_c, 0, 64, 82
1, 251186, Control_c, 1, 64, 82
1, 251193, Note_on_c, 0, 91, 34
1, 251194, Note_off_c, 0, 79, 69
1, 251194, Note_off_c, 0, 91, 127
1, 251200, Note_off_c, 0, 81, 64
1, 251205, Control_c, 0, 64, 23
1, 251205, Control_c, 1, 64, 23
1, 251206, Note_off_c, 0, 39, 63
1, 251215, Note_off_c, 0, 93, 63
1, 251220, Note_off_c, 0, 27, 64
1, 251222, Control_c, 0, 64, 0
1, 251222, Control_c, 1, 64, 0
1, 251260, Control_c, 1, 64, 13
1, 251260, Control_c, 0, 64, 13
1, 251277, Poly_aftertouch_c, 0, 30, 0
1, 251280, Control_c, 0, 64, 69
1, 251280, Control_c, 1, 64, 69
1, 251282, Note_on_c, 0, 38, 92
1, 251290, Note_on_c, 0, 26, 89
1, 251292, Note_on_c, 0, 94, 97
1, 251293, Note_on_c, 0, 82, 102
1, 251298, Control_c, 0, 64, 127
1, 251298, Control_c, 1, 64, 127
1, 251317, Note_off_c, 0, 26, 64
1, 251336, Note_off_c, 0, 38, 65
1, 251338, Note_off_c, 0, 82, 66
1, 251339, Note_off_c, 0, 94, 65
1, 251435, Poly_aftertouch_c, 0, 28, 0
1, 251468, Note_on_c, 0, 82, 91
1, 251475, Note_on_c, 0, 74, 79
1, 251494, Poly_aftertouch_c, 0, 26, 0
1, 251500, Note_on_c, 0, 58, 80
1, 251501, Note_off_c, 0, 74, 67
1, 251529, Note_on_c, 0, 83, 24
1, 251539, Note_off_c, 0, 82, 62
1, 251583, Note_off_c, 0, 83, 41
1, 251602, Note_on_c, 0, 81, 87
1, 251606, Note_on_c, 0, 62, 81
1, 251612, Note_off_c, 0, 58, 61
1, 251615, Control_c, 0, 64, 88
1, 251615, Control_c, 1, 64, 88
1, 251624, Note_on_c, 0, 72, 63
1, 251635, Control_c, 0, 64, 34
1, 251635, Control_c, 1, 64, 34
1, 251647, Note_off_c, 0, 72, 60
1, 251652, Control_c, 0, 64, 0
1, 251652, Control_c, 1, 64, 0
1, 251673, Poly_aftertouch_c, 0, 80, 127
1, 251681, Poly_aftertouch_c, 0, 80, 0
1, 251689, Control_c, 0, 64, 17
1, 251689, Control_c, 1, 64, 17
1, 251692, Note_off_c, 0, 62, 62
1, 251710, Control_c, 0, 64, 64
1, 251710, Control_c, 1, 64, 64
1, 251718, Note_on_c, 0, 64, 90
1, 251721, Note_on_c, 0, 80, 72
1, 251723, Note_on_c, 0, 52, 82
1, 251729, Control_c, 0, 64, 127
1, 251729, Control_c, 1, 64, 127
1, 251733, Note_on_c, 0, 71, 90
1, 251760, Note_off_c, 0, 64, 61
1, 251760, Poly_aftertouch_c, 0, 64, 0
1, 251768, Note_off_c, 0, 71, 62
1, 251768, Note_off_c, 0, 81, 58
1, 251784, Note_off_c, 0, 52, 63
1, 251795, Note_off_c, 0, 80, 66
1, 251840, Poly_aftertouch_c, 0, 56, 127
1, 251857, Poly_aftertouch_c, 0, 56, 0
1, 251893, Note_on_c, 0, 88, 90
1, 251911, Note_on_c, 0, 76, 69
1, 251922, Note_on_c, 0, 77, 65
1, 251922, Note_on_c, 0, 40, 83
1, 251930, Note_on_c, 0, 28, 83
1, 251945, Note_off_c, 0, 76, 64
1, 251945, Note_off_c, 0, 77, 64
1, 251960, Note_off_c, 0, 40, 63
1, 252039, Note_on_c, 0, 92, 95
1, 252040, Note_on_c, 0, 80, 90
1, 252046, Note_on_c, 0, 26, 80
1, 252054, Note_on_c, 0, 90, 80
1, 252058, Note_off_c, 0, 88, 59
1, 252078, Note_off_c, 0, 28, 46
1, 252083, Control_c, 0, 64, 58
1, 252083, Control_c, 1, 64, 58
1, 252088, Note_off_c, 0, 90, 64
1, 252088, Note_on_c, 0, 38, 35
1, 252093, Note_off_c, 0, 80, 60
1, 252100, Note_on_c, 0, 27, 29
1, 252102, Control_c, 0, 64, 0
1, 252102, Control_c, 1, 64, 0
1, 252125, Poly_aftertouch_c, 0, 30, 0
1, 252140, Control_c, 0, 64, 14
1, 252140, Control_c, 1, 64, 14
1, 252142, Poly_aftertouch_c, 0, 30, 0
1, 252143, Note_off_c, 0, 38, 33
1, 252149, Note_on_c, 0, 36, 89
1, 252156, Note_on_c, 0, 81, 94
1, 252158, Control_c, 0, 64, 67
1, 252158, Control_c, 1, 64, 67
1, 252161, Note_on_c, 0, 93, 102
1, 252167, Note_off_c, 0, 27, 29
1, 252171, Note_on_c, 0, 24, 79
1, 252178, Control_c, 0, 64, 127
1, 252178, Control_c, 1, 64, 127
1, 252193, Note_on_c, 0, 87, 43
1, 252195, Note_off_c, 0, 92, 64
1, 252201, Note_off_c, 0, 93, 66
1, 252202, Note_off_c, 0, 24, 63
1, 252203, Note_off_c, 0, 26, 42
1, 252206, Note_off_c, 0, 81, 65
1, 252230, Note_off_c, 0, 36, 62
1, 252233, Note_off_c, 0, 87, 56
1, 252347, Note_on_c, 0, 81, 89
1, 252361, Note_on_c, 0, 72, 86
1, 252385, Note_on_c, 0, 57, 71
1, 252387, Note_off_c, 0, 72, 68
1, 252403, Note_on_c, 0, 59, 62
1, 252409, Note_off_c, 0, 81, 63
1, 252431, Note_off_c, 0, 59, 40
1, 252439, Note_off_c, 0, 57, 60
1, 252488, Note_on_c, 0, 60, 84
1, 252492, Note_on_c, 0, 79, 85
1, 252500, Note_on_c, 0, 71, 82
1, 252534, Control_c, 0, 64, 73
1, 252534, Control_c, 1, 64, 73
1, 252550, Note_off_c, 0, 71, 59
1, 252551, Control_c, 0, 64, 37
1, 252551, Control_c, 1, 64, 37
1, 252561, Note_off_c, 0, 60, 61
1, 252570, Control_c, 0, 64, 29
1, 252570, Control_c, 1, 64, 29
1, 252590, Control_c, 1, 64, 46
1, 252590, Control_c, 0, 64, 46
1, 252600, Note_on_c, 0, 62, 84
1, 252608, Control_c, 0, 64, 86
1, 252608, Control_c, 1, 64, 86
1, 252610, Note_on_c, 0, 77, 66
1, 252613, Note_on_c, 0, 50, 78
1, 252627, Control_c, 0, 64, 127
1, 252627, Control_c, 1, 64, 127
1, 252628, Note_on_c, 0, 69, 86
1, 252648, Note_off_c, 0, 62, 60
1, 252656, Note_off_c, 0, 79, 53
1, 252661, Note_off_c, 0, 69, 59
1, 252673, Note_off_c, 0, 50, 63
1, 252686, Note_off_c, 0, 77, 63
1, 252785, Note_on_c, 0, 86, 96
1, 252789, Note_on_c, 0, 74, 87
1, 252797, Note_on_c, 0, 29, 88
1, 252800, Note_on_c, 0, 41, 83
1, 252818, Note_on_c, 0, 76, 55
1, 252819, Note_off_c, 0, 76, 127
1, 252829, Note_off_c, 0, 74, 60
1, 252834, Note_on_c, 0, 84, 34
1, 252835, Note_off_c, 0, 84, 127
1, 252851, Note_off_c, 0, 41, 59
1, 252866, Note_off_c, 0, 86, 62
1, 252924, Note_on_c, 0, 89, 95
1, 252928, Note_on_c, 0, 77, 93
1, 252931, Note_on_c, 0, 26, 91
1, 252946, Note_off_c, 0, 29, 63
1, 252964, Control_c, 0, 64, 84
1, 252964, Control_c, 1, 64, 84
1, 252976, Note_off_c, 0, 77, 62
1, 252982, Control_c, 0, 64, 23
1, 252982, Control_c, 1, 64, 23
1, 253002, Control_c, 1, 64, 0
1, 253002, Control_c, 0, 64, 0
1, 253007, Note_off_c, 0, 26, 51
1, 253037, Poly_aftertouch_c, 0, 28, 127
1, 253045, Note_on_c, 0, 40, 99
1, 253050, Note_on_c, 0, 88, 93
1, 253057, Note_on_c, 0, 76, 102
1, 253057, Control_c, 0, 64, 34
1, 253057, Control_c, 1, 64, 34
1, 253077, Control_c, 1, 64, 127
1, 253077, Control_c, 0, 64, 127
1, 253078, Note_on_c, 0, 32, 46
1, 253079, Note_off_c, 0, 32, 127
1, 253080, Note_off_c, 0, 89, 64
1, 253080, Note_on_c, 0, 89, 31
1, 253084, Poly_aftertouch_c, 0, 28, 0
1, 253092, Note_off_c, 0, 89, 66
1, 253096, Note_off_c, 0, 40, 64
1, 253102, Note_on_c, 0, 87, 39
1, 253106, Note_off_c, 0, 76, 67
1, 253107, Note_off_c, 0, 88, 64
1, 253111, Note_on_c, 0, 30, 8
1, 253112, Note_off_c, 0, 30, 127
1, 253123, Poly_aftertouch_c, 0, 32, 0
1, 253137, Note_off_c, 0, 87, 56
1, 253163, Poly_aftertouch_c, 0, 30, 127
1, 253193, Poly_aftertouch_c, 0, 30, 0
1, 253253, Note_on_c, 0, 77, 88
1, 253253, Note_on_c, 0, 68, 89
1, 253269, Note_on_c, 0, 64, 87
1, 253300, Note_off_c, 0, 68, 59
1, 253324, Note_off_c, 0, 77, 53
1, 253382, Note_off_c, 0, 64, 47
1, 253382, Poly_aftertouch_c, 0, 64, 0
1, 253390, Note_on_c, 0, 80, 86
1, 253400, Note_on_c, 0, 52, 86
1, 253401, Note_on_c, 0, 71, 74
1, 253423, Poly_aftertouch_c, 0, 56, 0
1, 253433, Note_on_c, 0, 78, 42
1, 253457, Note_off_c, 0, 71, 60
1, 253465, Note_off_c, 0, 52, 62
1, 253477, Note_off_c, 0, 78, 41
1, 253481, Note_off_c, 0, 80, 65
1, 253525, Control_c, 0, 64, 64
1, 253525, Control_c, 1, 64, 64
1, 253544, Control_c, 1, 64, 0
1, 253544, Control_c, 0, 64, 0
1, 253557, Note_on_c, 0, 81, 65
1, 253557, Note_on_c, 0, 69, 97
1, 253567, Note_on_c, 0, 57, 89
1, 253570, Note_on_c, 0, 45, 90
1, 253575, Note_on_c, 0, 78, 66
1, 253582, Note_on_c, 0, 73, 53
1, 253583, Note_off_c, 0, 73, 127
1, 253599, Note_off_c, 0, 78, 66
1, 253600, Control_c, 0, 64, 21
1, 253600, Control_c, 1, 64, 21
1, 253619, Control_c, 1, 64, 69
1, 253619, Control_c, 0, 64, 69
1, 253624, Note_off_c, 0, 69, 50
1, 253637, Control_c, 0, 64, 127
1, 253637, Control_c, 1, 64, 127
1, 253665, Note_on_c, 0, 69, 51
1, 253699, Note_off_c, 0, 45, 54
1, 253705, Note_on_c, 0, 48, 80
1, 253710, Note_on_c, 0, 76, 82
1, 253712, Note_off_c, 0, 57, 60
1, 253745, Note_off_c, 0, 81, 56
1, 253745, Note_on_c, 0, 77, 49
1, 253749, Note_off_c, 0, 69, 57
1, 253769, Note_off_c, 0, 48, 60
1, 253771, Note_off_c, 0, 77, 59
1, 253789, Note_off_c, 0, 76, 63
1, 253892, Note_on_c, 0, 80, 96
1, 253896, Note_on_c, 0, 71, 91
1, 253901, Note_on_c, 0, 68, 92
1, 253902, Note_on_c, 0, 64, 88
1, 253903, Note_on_c, 0, 52, 88
1, 253944, Note_off_c, 0, 71, 65
1, 253952, Note_off_c, 0, 64, 58
1, 253952, Poly_aftertouch_c, 0, 64, 0
1, 253953, Note_off_c, 0, 68, 59
1, 253964, Note_off_c, 0, 52, 59
1, 253981, Note_off_c, 0, 80, 64
1, 253994, Control_c, 0, 64, 51
1, 253994, Control_c, 1, 64, 51
1, 254013, Control_c, 1, 64, 0
1, 254013, Control_c, 0, 64, 0
1, 254056, Note_on_c, 0, 81, 98
1, 254059, Note_on_c, 0, 69, 102
1, 254067, Note_on_c, 0, 47, 95
1, 254069, Note_on_c, 0, 59, 83
1, 254069, Control_c, 0, 64, 68
1, 254069, Control_c, 1, 64, 68
1, 254072, Note_on_c, 0, 72, 84
1, 254079, Note_on_c, 0, 57, 70
1, 254087, Control_c, 0, 64, 127
1, 254087, Control_c, 1, 64, 127
1, 254092, Note_off_c, 0, 72, 64
1, 254096, Note_off_c, 0, 59, 72
1, 254100, Note_on_c, 0, 78, 40
1, 254102, Note_off_c, 0, 57, 64
1, 254104, Note_off_c, 0, 69, 66
1, 254117, Note_on_c, 0, 45, 18
1, 254118, Note_off_c, 0, 47, 66
1, 254118, Note_off_c, 0, 45, 127
1, 254119, Note_off_c, 0, 81, 63
1, 254136, Note_off_c, 0, 78, 55
1, 254148, Note_on_c, 0, 75, 12
1, 254161, Note_off_c, 0, 75, 127
1, 254174, Poly_aftertouch_c, 0, 45, 0
1, 254409, Note_on_c, 0, 88, 89
1, 254418, Note_on_c, 0, 76, 90
1, 254444, Note_on_c, 0, 85, 58
1, 254468, Note_off_c, 0, 85, 63
1, 254477, Note_off_c, 0, 76, 65
1, 254480, Control_c, 0, 64, 69
1, 254480, Control_c, 1, 64, 69
1, 254498, Control_c, 1, 64, 0
1, 254498, Control_c, 0, 64, 0
1, 254592, Note_on_c, 0, 77, 98
1, 254593, Note_on_c, 0, 89, 100
1, 254594, Note_on_c, 0, 45, 102
1, 254599, Note_on_c, 0, 33, 96
1, 254613, Control_c, 0, 64, 83
1, 254613, Control_c, 1, 64, 83
1, 254627, Note_off_c, 0, 33, 70
1, 254628, Control_c, 0, 64, 127
1, 254628, Control_c, 1, 64, 127
1, 254642, Note_off_c, 0, 77, 65
1, 254643, Note_off_c, 0, 89, 67
1, 254644, Note_off_c, 0, 45, 67
1, 254659, Note_off_c, 0, 88, 56
1, 254812, Note_on_c, 0, 72, 84
1, 254824, Note_on_c, 0, 69, 72
1, 254824, Note_on_c, 0, 60, 87
1, 254839, Note_on_c, 0, 57, 73
1, 254855, Note_off_c, 0, 69, 66
1, 254871, Note_off_c, 0, 72, 59
1, 254874, Note_off_c, 0, 60, 58
1, 254878, Note_off_c, 0, 57, 66
1, 254953, Note_on_c, 0, 74, 88
1, 254958, Note_on_c, 0, 71, 80
1, 254962, Note_on_c, 0, 62, 90
1, 254969, Note_on_c, 0, 59, 83
1, 255009, Note_off_c, 0, 62, 65
1, 255010, Note_off_c, 0, 71, 62
1, 255018, Note_off_c, 0, 59, 57
1, 255041, Control_c, 0, 64, 97
1, 255041, Control_c, 1, 64, 97
1, 255061, Control_c, 1, 64, 54
1, 255061, Control_c, 0, 64, 54
1, 255078, Control_c, 0, 64, 13
1, 255078, Control_c, 1, 64, 13
1, 255081, Note_on_c, 0, 72, 82
1, 255085, Note_on_c, 0, 76, 87
1, 255090, Note_off_c, 0, 74, 61
1, 255093, Note_on_c, 0, 64, 91
1, 255095, Note_on_c, 0, 60, 89
1, 255104, Note_off_c, 0, 72, 64
1, 255116, Control_c, 0, 64, 45
1, 255116, Control_c, 1, 64, 45
1, 255125, Note_off_c, 0, 76, 68
1, 255136, Control_c, 0, 64, 94
1, 255136, Control_c, 1, 64, 94
1, 255146, Note_off_c, 0, 60, 64
1, 255153, Control_c, 0, 64, 127
1, 255153, Control_c, 1, 64, 127
1, 255154, Note_off_c, 0, 64, 62
1, 255154, Poly_aftertouch_c, 0, 64, 0
1, 255220, Note_on_c, 0, 80, 94
1, 255228, Note_on_c, 0, 92, 95
1, 255235, Note_on_c, 0, 59, 88
1, 255237, Note_on_c, 0, 62, 88
1, 255280, Note_off_c, 0, 80, 65
1, 255289, Note_off_c, 0, 92, 64
1, 255299, Note_off_c, 0, 62, 61
1, 255345, Note_off_c, 0, 59, 50
1, 255355, Note_on_c, 0, 57, 82
1, 255356, Note_on_c, 0, 81, 97
1, 255357, Note_on_c, 0, 93, 96
1, 255358, Note_on_c, 0, 60, 86
1, 255386, Note_off_c, 0, 60, 70
1, 255391, Note_on_c, 0, 92, 40
1, 255403, Note_off_c, 0, 93, 67
1, 255405, Note_off_c, 0, 57, 65
1, 255407, Note_off_c, 0, 81, 65
1, 255439, Note_off_c, 0, 92, 55
1, 255491, Control_c, 0, 64, 78
1, 255491, Control_c, 1, 64, 78
1, 255510, Control_c, 1, 64, 27
1, 255510, Control_c, 0, 64, 27
1, 255521, Note_on_c, 0, 84, 98
1, 255526, Note_on_c, 0, 72, 96
1, 255529, Control_c, 0, 64, 0
1, 255529, Control_c, 1, 64, 0
1, 255533, Note_on_c, 0, 40, 96
1, 255542, Note_on_c, 0, 28, 86
1, 255554, Note_off_c, 0, 72, 66
1, 255557, Note_on_c, 0, 82, 49
1, 255565, Control_c, 0, 64, 32
1, 255565, Control_c, 1, 64, 32
1, 255571, Note_off_c, 0, 84, 65
1, 255574, Note_off_c, 0, 40, 65
1, 255578, Note_on_c, 0, 83, 28
1, 255579, Note_off_c, 0, 83, 127
1, 255580, Note_off_c, 0, 28, 67
1, 255583, Note_on_c, 0, 29, 37
1, 255584, Control_c, 0, 64, 79
1, 255584, Control_c, 1, 64, 79
1, 255593, Note_off_c, 0, 82, 35
1, 255603, Control_c, 0, 64, 127
1, 255603, Control_c, 1, 64, 127
1, 255637, Note_off_c, 0, 29, 31
1, 255659, Poly_aftertouch_c, 0, 30, 127
1, 255681, Poly_aftertouch_c, 0, 30, 0
1, 255724, Note_on_c, 0, 64, 72
1, 255735, Note_on_c, 0, 56, 80
1, 255737, Note_on_c, 0, 68, 59
1, 255741, Note_on_c, 0, 70, 51
1, 255754, Note_off_c, 0, 64, 63
1, 255754, Note_on_c, 0, 65, 38
1, 255754, Poly_aftertouch_c, 0, 64, 0
1, 255755, Note_on_c, 0, 52, 56
1, 255768, Note_off_c, 0, 68, 60
1, 255776, Note_off_c, 0, 70, 58
1, 255794, Note_off_c, 0, 56, 54
1, 255798, Note_off_c, 0, 65, 49
1, 255798, Note_off_c, 0, 52, 60
1, 255860, Note_on_c, 0, 66, 85
1, 255860, Note_on_c, 0, 69, 81
1, 255865, Note_on_c, 0, 54, 79
1, 255868, Note_on_c, 0, 57, 80
1, 255884, Control_c, 0, 64, 96
1, 255884, Control_c, 1, 64, 96
1, 255891, Note_on_c, 0, 68, 28
1, 255904, Control_c, 0, 64, 48
1, 255904, Control_c, 1, 64, 48
1, 255916, Note_on_c, 0, 65, 30
1, 255921, Control_c, 0, 64, 8
1, 255921, Control_c, 1, 64, 8
1, 255922, Note_off_c, 0, 66, 62
1, 255934, Note_off_c, 0, 57, 62
1, 255935, Note_off_c, 0, 69, 62
1, 255939, Control_c, 0, 64, 13
1, 255939, Control_c, 1, 64, 13
1, 255940, Note_off_c, 0, 68, 54
1, 255944, Note_off_c, 0, 54, 60
1, 255946, Poly_aftertouch_c, 0, 70, 0
1, 255959, Control_c, 0, 64, 41
1, 255959, Control_c, 1, 64, 41
1, 255970, Note_off_c, 0, 65, 37
1, 255978, Note_on_c, 0, 68, 80
1, 255978, Control_c, 0, 64, 94
1, 255978, Control_c, 1, 64, 94
1, 255985, Note_on_c, 0, 59, 86
1, 255993, Note_on_c, 0, 56, 84
1, 255995, Note_on_c, 0, 71, 48
1, 255996, Control_c, 0, 64, 127
1, 255996, Control_c, 1, 64, 127
1, 256027, Note_off_c, 0, 68, 61
1, 256031, Note_off_c, 0, 71, 61
1, 256047, Note_off_c, 0, 59, 63
1, 256066, Note_off_c, 0, 56, 58
1, 256115, Note_on_c, 0, 54, 82
1, 256115, Note_on_c, 0, 57, 87
1, 256126, Note_on_c, 0, 75, 93
1, 256133, Note_on_c, 0, 87, 96
1, 256155, Note_on_c, 0, 82, 52
1, 256157, Note_on_c, 0, 85, 57
1, 256183, Note_off_c, 0, 75, 64
1, 256184, Note_off_c, 0, 85, 62
1, 256189, Note_off_c, 0, 82, 63
1, 256196, Note_off_c, 0, 57, 58
1, 256206, Note_off_c, 0, 87, 62
1, 256238, Note_off_c, 0, 54, 64
1, 256242, Note_on_c, 0, 56, 81
1, 256246, Note_on_c, 0, 52, 77
1, 256264, Note_on_c, 0, 88, 93
1, 256266, Note_on_c, 0, 76, 92
1, 256276, Note_off_c, 0, 56, 68
1, 256299, Note_off_c, 0, 52, 61
1, 256311, Note_off_c, 0, 76, 66
1, 256311, Note_on_c, 0, 82, 27
1, 256312, Note_off_c, 0, 82, 127
1, 256316, Note_off_c, 0, 88, 67
1, 256334, Control_c, 0, 64, 59
1, 256334, Control_c, 1, 64, 59
1, 256353, Control_c, 1, 64, 0
1, 256353, Control_c, 0, 64, 0
1, 256395, Note_on_c, 0, 45, 97
1, 256397, Note_on_c, 0, 77, 104
1, 256397, Note_on_c, 0, 89, 98
1, 256405, Note_on_c, 0, 33, 89
1, 256407, Control_c, 0, 64, 19
1, 256407, Control_c, 1, 64, 19
1, 256427, Control_c, 1, 64, 82
1, 256427, Control_c, 0, 64, 82
1, 256437, Note_off_c, 0, 33, 65
1, 256441, Note_off_c, 0, 77, 64
1, 256442, Note_on_c, 0, 35, 45
1, 256444, Note_off_c, 0, 45, 66
1, 256444, Control_c, 0, 64, 127
1, 256444, Control_c, 1, 64, 127
1, 256447, Note_off_c, 0, 89, 64
1, 256456, Note_on_c, 0, 87, 16
1, 256457, Note_off_c, 0, 87, 127
1, 256474, Note_on_c, 0, 88, 27
1, 256475, Note_off_c, 0, 88, 127
1, 256483, Note_off_c, 0, 35, 56
1, 256580, Note_on_c, 0, 72, 86
1, 256584, Note_on_c, 0, 69, 82
1, 256600, Note_on_c, 0, 60, 85
1, 256617, Note_off_c, 0, 69, 56
1, 256620, Note_on_c, 0, 57, 59
1, 256627, Note_off_c, 0, 72, 53
1, 256632, Poly_aftertouch_c, 0, 33, 0
1, 256658, Note_off_c, 0, 60, 56
1, 256666, Note_off_c, 0, 57, 63
1, 256705, Note_on_c, 0, 74, 74
1, 256716, Note_on_c, 0, 71, 85
1, 256722, Note_on_c, 0, 62, 86
1, 256725, Control_c, 0, 64, 80
1, 256725, Control_c, 1, 64, 80
1, 256729, Note_on_c, 0, 59, 79
1, 256745, Control_c, 0, 64, 16
1, 256745, Control_c, 1, 64, 16
1, 256763, Control_c, 1, 64, 0
1, 256763, Control_c, 0, 64, 0
1, 256772, Note_off_c, 0, 71, 61
1, 256779, Note_off_c, 0, 62, 63
1, 256801, Control_c, 0, 64, 20
1, 256801, Control_c, 1, 64, 20
1, 256804, Note_off_c, 0, 59, 63
1, 256820, Control_c, 0, 64, 66
1, 256820, Control_c, 1, 64, 66
1, 256833, Note_on_c, 0, 72, 81
1, 256837, Control_c, 0, 64, 127
1, 256837, Control_c, 1, 64, 127
1, 256840, Note_on_c, 0, 76, 85
1, 256843, Note_on_c, 0, 64, 88
1, 256845, Note_off_c, 0, 74, 41
1, 256848, Note_on_c, 0, 60, 86
1, 256871, Note_off_c, 0, 72, 60
1, 256888, Note_off_c, 0, 76, 64
1, 256908, Note_off_c, 0, 60, 55
1, 256911, Note_off_c, 0, 64, 61
1, 256911, Poly_aftertouch_c, 0, 64, 0
1, 256977, Note_on_c, 0, 59, 85
1, 256977, Note_on_c, 0, 80, 96
1, 256983, Note_on_c, 0, 62, 80
1, 256986, Note_on_c, 0, 92, 95
1, 257034, Note_off_c, 0, 80, 66
1, 257051, Note_off_c, 0, 92, 61
1, 257079, Note_off_c, 0, 62, 54
1, 257091, Poly_aftertouch_c, 0, 90, 127
1, 257100, Note_on_c, 0, 57, 80
1, 257104, Note_on_c, 0, 60, 82
1, 257105, Note_off_c, 0, 59, 61
1, 257111, Note_on_c, 0, 81, 98
1, 257112, Note_on_c, 0, 93, 102
1, 257119, Poly_aftertouch_c, 0, 90, 0
1, 257129, Note_off_c, 0, 60, 64
1, 257137, Note_on_c, 0, 92, 47
1, 257154, Note_off_c, 0, 57, 63
1, 257156, Note_off_c, 0, 81, 65
1, 257157, Note_off_c, 0, 93, 64
1, 257169, Note_off_c, 0, 92, 59
1, 257231, Control_c, 0, 64, 111
1, 257231, Control_c, 1, 64, 111
1, 257252, Control_c, 1, 64, 55
1, 257252, Control_c, 0, 64, 55
1, 257268, Note_on_c, 0, 84, 97
1, 257273, Note_on_c, 0, 40, 100
1, 257275, Note_on_c, 0, 72, 97
1, 257276, Note_on_c, 0, 28, 95
1, 257288, Control_c, 0, 64, 0
1, 257288, Control_c, 1, 64, 0
1, 257297, Note_on_c, 0, 82, 57
1, 257304, Note_on_c, 0, 83, 54
1, 257305, Note_off_c, 0, 83, 127
1, 257305, Control_c, 0, 64, 24
1, 257305, Control_c, 1, 64, 24
1, 257306, Note_off_c, 0, 72, 68
1, 257309, Note_off_c, 0, 28, 68
1, 257316, Note_off_c, 0, 40, 66
1, 257318, Note_on_c, 0, 29, 42
1, 257319, Note_off_c, 0, 84, 65
1, 257324, Control_c, 0, 64, 71
1, 257324, Control_c, 1, 64, 71
1, 257327, Note_off_c, 0, 82, 63
1, 257327, Note_on_c, 0, 30, 25
1, 257344, Control_c, 0, 64, 127
1, 257344, Control_c, 1, 64, 127
1, 257364, Note_off_c, 0, 29, 46
1, 257391, Note_off_c, 0, 30, 50
1, 257475, Note_on_c, 0, 64, 70
1, 257476, Note_on_c, 0, 70, 66
1, 257482, Note_on_c, 0, 56, 78
1, 257486, Note_on_c, 0, 65, 51
1, 257489, Poly_aftertouch_c, 0, 28, 127
1, 257491, Note_on_c, 0, 52, 67
1, 257500, Poly_aftertouch_c, 0, 28, 0
1, 257506, Note_off_c, 0, 64, 64
1, 257506, Poly_aftertouch_c, 0, 64, 0
1, 257512, Note_off_c, 0, 70, 70
1, 257515, Note_on_c, 0, 68, 9
1, 257516, Note_off_c, 0, 68, 127
1, 257517, Note_off_c, 0, 65, 58
1, 257521, Note_off_c, 0, 56, 55
1, 257537, Note_off_c, 0, 52, 59
1, 257596, Poly_aftertouch_c, 0, 68, 127
1, 257605, Note_on_c, 0, 66, 87
1, 257607, Note_on_c, 0, 69, 80
1, 257610, Note_on_c, 0, 57, 81
1, 257611, Note_on_c, 0, 54, 82
1, 257626, Control_c, 0, 64, 78
1, 257626, Control_c, 1, 64, 78
1, 257644, Control_c, 1, 64, 30
1, 257644, Control_c, 0, 64, 30
1, 257653, Poly_aftertouch_c, 0, 68, 0
1, 257673, Note_off_c, 0, 57, 64
1, 257674, Note_off_c, 0, 66, 62
1, 257682, Control_c, 0, 64, 13
1, 257682, Control_c, 1, 64, 13
1, 257684, Note_off_c, 0, 69, 61
1, 257697, Note_off_c, 0, 54, 61
1, 257699, Control_c, 0, 64, 43
1, 257699, Control_c, 1, 64, 43
1, 257718, Control_c, 1, 64, 97
1, 257718, Control_c, 0, 64, 97
1, 257730, Note_on_c, 0, 71, 73
1, 257734, Note_on_c, 0, 68, 74
1, 257735, Note_on_c, 0, 59, 87
1, 257738, Control_c, 0, 64, 127
1, 257738, Control_c, 1, 64, 127
1, 257743, Note_on_c, 0, 56, 88
1, 257770, Note_off_c, 0, 68, 63
1, 257778, Note_off_c, 0, 71, 65
1, 257819, Note_off_c, 0, 59, 55
1, 257866, Note_on_c, 0, 57, 84
1, 257868, Note_on_c, 0, 54, 80
1, 257878, Note_off_c, 0, 56, 37
1, 257948, Note_off_c, 0, 57, 60
1, 257995, Note_on_c, 0, 88, 85
1, 257997, Note_off_c, 0, 54, 61
1, 257999, Note_on_c, 0, 52, 77
1, 258002, Note_on_c, 0, 76, 84
1, 258016, Note_on_c, 0, 56, 77
1, 258043, Note_off_c, 0, 56, 67
1, 258044, Note_off_c, 0, 76, 61
1, 258060, Note_off_c, 0, 52, 62
1, 258069, Note_off_c, 0, 88, 66
1, 258073, Control_c, 0, 64, 104
1, 258073, Control_c, 1, 64, 104
1, 258094, Control_c, 1, 64, 50
1, 258094, Control_c, 0, 64, 50
1, 258111, Control_c, 0, 64, 0
1, 258111, Control_c, 1, 64, 0
1, 258146, Note_on_c, 0, 89, 97
1, 258149, Note_on_c, 0, 77, 93
1, 258168, Control_c, 0, 64, 41
1, 258168, Control_c, 1, 64, 41
1, 258171, Note_on_c, 0, 45, 94
1, 258179, Note_on_c, 0, 33, 89
1, 258187, Control_c, 0, 64, 116
1, 258187, Control_c, 1, 64, 116
1, 258196, Note_off_c, 0, 77, 63
1, 258201, Note_off_c, 0, 89, 65
1, 258205, Control_c, 0, 64, 127
1, 258205, Control_c, 1, 64, 127
1, 258209, Note_off_c, 0, 45, 62
1, 258211, Note_off_c, 0, 33, 64
1, 258334, Note_on_c, 0, 72, 90
1, 258338, Note_on_c, 0, 69, 82
1, 258356, Note_on_c, 0, 60, 85
1, 258365, Note_off_c, 0, 69, 68
1, 258365, Note_on_c, 0, 57, 74
1, 258371, Note_off_c, 0, 72, 59
1, 258387, Note_off_c, 0, 60, 61
1, 258406, Note_off_c, 0, 57, 66
1, 258411, Poly_aftertouch_c, 0, 33, 0
1, 258467, Note_on_c, 0, 74, 81
1, 258474, Note_on_c, 0, 71, 86
1, 258484, Note_on_c, 0, 62, 88
1, 258485, Note_on_c, 0, 59, 86
1, 258486, Control_c, 0, 64, 60
1, 258486, Control_c, 1, 64, 60
1, 258522, Note_off_c, 0, 71, 63
1, 258522, Control_c, 0, 64, 0
1, 258522, Control_c, 1, 64, 0
1, 258536, Note_off_c, 0, 62, 63
1, 258541, Control_c, 0, 64, 25
1, 258541, Control_c, 1, 64, 25
1, 258548, Note_off_c, 0, 59, 63
1, 258561, Control_c, 0, 64, 67
1, 258561, Control_c, 1, 64, 67
1, 258580, Control_c, 1, 64, 127
1, 258580, Control_c, 0, 64, 127
1, 258594, Note_on_c, 0, 72, 45
1, 258594, Note_on_c, 0, 76, 87
1, 258604, Note_on_c, 0, 64, 91
1, 258610, Note_on_c, 0, 60, 88
1, 258612, Note_off_c, 0, 74, 33
1, 258632, Note_off_c, 0, 72, 62
1, 258633, Note_off_c, 0, 76, 67
1, 258671, Note_off_c, 0, 64, 61
1, 258671, Poly_aftertouch_c, 0, 64, 0
1, 258690, Note_off_c, 0, 60, 48
1, 258734, Note_on_c, 0, 80, 91
1, 258735, Note_on_c, 0, 59, 82
1, 258738, Note_on_c, 0, 92, 93
1, 258739, Note_on_c, 0, 62, 85
1, 258794, Note_off_c, 0, 80, 60
1, 258808, Poly_aftertouch_c, 0, 90, 0
1, 258809, Note_off_c, 0, 92, 63
1, 258824, Note_off_c, 0, 62, 59
1, 258853, Note_on_c, 0, 57, 83
1, 258855, Note_on_c, 0, 93, 96
1, 258856, Note_off_c, 0, 59, 62
1, 258858, Note_on_c, 0, 81, 91
1, 258859, Note_on_c, 0, 60, 82
1, 258877, Note_on_c, 0, 92, 55
1, 258885, Note_off_c, 0, 60, 64
1, 258896, Note_on_c, 0, 83, 47
1, 258897, Note_off_c, 0, 83, 127
1, 258903, Note_off_c, 0, 92, 62
1, 258907, Note_off_c, 0, 57, 66
1, 258909, Note_off_c, 0, 81, 64
1, 258910, Note_off_c, 0, 93, 65
1, 258992, Control_c, 0, 64, 91
1, 258992, Control_c, 1, 64, 91
1, 259010, Control_c, 1, 64, 47
1, 259010, Control_c, 0, 64, 47
1, 259019, Note_on_c, 0, 72, 97
1, 259020, Note_on_c, 0, 84, 84
1, 259021, Note_on_c, 0, 83, 87
1, 259028, Control_c, 0, 64, 14
1, 259028, Control_c, 1, 64, 14
1, 259032, Note_on_c, 0, 40, 89
1, 259033, Note_on_c, 0, 28, 94
1, 259034, Note_on_c, 0, 38, 85
1, 259051, Control_c, 0, 64, 24
1, 259051, Control_c, 1, 64, 24
1, 259053, Note_off_c, 0, 84, 74
1, 259060, Note_off_c, 0, 72, 67
1, 259062, Note_on_c, 0, 71, 48
1, 259063, Note_off_c, 0, 71, 127
1, 259067, Note_off_c, 0, 28, 67
1, 259068, Note_off_c, 0, 40, 68
1, 259068, Note_off_c, 0, 38, 66
1, 259069, Control_c, 0, 64, 55
1, 259069, Control_c, 1, 64, 55
1, 259071, Note_off_c, 0, 83, 67
1, 259085, Control_c, 0, 64, 127
1, 259085, Control_c, 1, 64, 127
1, 259202, Note_on_c, 0, 68, 86
1, 259208, Note_on_c, 0, 64, 74
1, 259224, Note_on_c, 0, 56, 80
1, 259226, Note_on_c, 0, 52, 75
1, 259240, Note_off_c, 0, 64, 68
1, 259240, Poly_aftertouch_c, 0, 64, 0
1, 259250, Note_off_c, 0, 68, 56
1, 259260, Note_off_c, 0, 56, 62
1, 259260, Poly_aftertouch_c, 0, 38, 0
1, 259264, Note_off_c, 0, 52, 61
1, 259264, Poly_aftertouch_c, 0, 28, 0
1, 259337, Note_on_c, 0, 69, 86
1, 259341, Note_on_c, 0, 66, 85
1, 259345, Note_on_c, 0, 54, 84
1, 259346, Note_on_c, 0, 57, 82
1, 259366, Control_c, 0, 64, 86
1, 259366, Control_c, 1, 64, 86
1, 259385, Control_c, 1, 64, 44
1, 259385, Control_c, 0, 64, 44
1, 259404, Control_c, 0, 64, 28
1, 259404, Control_c, 1, 64, 28
1, 259406, Note_off_c, 0, 66, 61
1, 259413, Note_off_c, 0, 57, 64
1, 259422, Control_c, 0, 64, 45
1, 259422, Control_c, 1, 64, 45
1, 259427, Note_off_c, 0, 54, 61
1, 259441, Control_c, 0, 64, 85
1, 259441, Control_c, 1, 64, 85
1, 259457, Note_on_c, 0, 68, 80
1, 259458, Control_c, 0, 64, 127
1, 259458, Control_c, 1, 64, 127
1, 259459, Note_off_c, 0, 69, 43
1, 259461, Note_on_c, 0, 71, 88
1, 259469, Note_on_c, 0, 59, 86
1, 259471, Note_on_c, 0, 56, 88
1, 259502, Note_off_c, 0, 68, 64
1, 259502, Note_off_c, 0, 71, 65
1, 259536, Note_off_c, 0, 59, 62
1, 259544, Note_off_c, 0, 56, 59
1, 259596, Note_on_c, 0, 57, 90
1, 259602, Note_on_c, 0, 54, 82
1, 259611, Note_on_c, 0, 75, 90
1, 259615, Note_on_c, 0, 87, 96
1, 259670, Note_off_c, 0, 75, 63
1, 259674, Note_off_c, 0, 57, 63
1, 259675, Note_off_c, 0, 87, 60
1, 259722, Note_on_c, 0, 52, 80
1, 259728, Note_off_c, 0, 54, 66
1, 259730, Note_on_c, 0, 56, 84
1, 259735, Note_on_c, 0, 88, 89
1, 259740, Note_on_c, 0, 76, 93
1, 259774, Note_off_c, 0, 56, 63
1, 259780, Note_off_c, 0, 52, 63
1, 259781, Note_on_c, 0, 82, 36
1, 259782, Note_off_c, 0, 76, 62
1, 259782, Note_off_c, 0, 82, 127
1, 259788, Note_off_c, 0, 88, 66
1, 259795, Control_c, 0, 64, 84
1, 259795, Control_c, 1, 64, 84
1, 259815, Control_c, 1, 64, 29
1, 259815, Control_c, 0, 64, 29
1, 259826, Poly_aftertouch_c, 0, 87, 0
1, 259834, Control_c, 0, 64, 0
1, 259834, Control_c, 1, 64, 0
1, 259870, Control_c, 1, 64, 24
1, 259870, Control_c, 0, 64, 24
1, 259872, Note_on_c, 0, 89, 99
1, 259874, Note_on_c, 0, 77, 102
1, 259884, Note_on_c, 0, 45, 102
1, 259890, Note_on_c, 0, 33, 93
1, 259890, Control_c, 0, 64, 78
1, 259890, Control_c, 1, 64, 78
1, 259908, Control_c, 1, 64, 127
1, 259908, Control_c, 0, 64, 127
1, 259918, Note_off_c, 0, 77, 65
1, 259921, Note_off_c, 0, 33, 65
1, 259924, Note_off_c, 0, 89, 66
1, 259927, Note_on_c, 0, 88, 43
1, 259928, Note_off_c, 0, 88, 127
1, 259933, Note_off_c, 0, 45, 64
1, 259947, Note_on_c, 0, 35, 29
1, 259999, Note_off_c, 0, 35, 41
1, 260054, Note_on_c, 0, 72, 86
1, 260061, Note_on_c, 0, 69, 79
1, 260081, Note_on_c, 0, 60, 68
1, 260096, Note_on_c, 0, 57, 56
1, 260098, Note_on_c, 0, 62, 56
1, 260100, Note_off_c, 0, 69, 65
1, 260116, Poly_aftertouch_c, 0, 33, 0
1, 260119, Note_off_c, 0, 72, 57
1, 260123, Note_off_c, 0, 60, 66
1, 260132, Note_off_c, 0, 62, 58
1, 260145, Note_off_c, 0, 57, 58
1, 260174, Poly_aftertouch_c, 0, 71, 127
1, 260186, Note_on_c, 0, 74, 87
1, 260189, Control_c, 0, 64, 94
1, 260189, Control_c, 1, 64, 94
1, 260196, Note_on_c, 0, 62, 88
1, 260200, Note_on_c, 0, 59, 80
1, 260208, Control_c, 0, 64, 51
1, 260208, Control_c, 1, 64, 51
1, 260228, Control_c, 1, 64, 29
1, 260228, Control_c, 0, 64, 29
1, 260246, Control_c, 0, 64, 39
1, 260246, Control_c, 1, 64, 39
1, 260256, Poly_aftertouch_c, 0, 69, 0
1, 260256, Poly_aftertouch_c, 0, 71, 0
1, 260259, Note_off_c, 0, 62, 62
1, 260264, Control_c, 0, 64, 67
1, 260264, Control_c, 1, 64, 67
1, 260274, Note_off_c, 0, 59, 62
1, 260283, Control_c, 0, 64, 127
1, 260283, Control_c, 1, 64, 127
1, 260303, Note_on_c, 0, 72, 79
1, 260314, Note_on_c, 0, 76, 88
1, 260315, Note_on_c, 0, 64, 88
1, 260324, Note_off_c, 0, 74, 41
1, 260328, Note_on_c, 0, 60, 82
1, 260347, Note_off_c, 0, 72, 64
1, 260356, Note_off_c, 0, 76, 65
1, 260390, Note_off_c, 0, 64, 57
1, 260390, Poly_aftertouch_c, 0, 64, 0
1, 260420, Note_off_c, 0, 60, 56
1, 260455, Note_on_c, 0, 59, 80
1, 260460, Note_on_c, 0, 80, 94
1, 260461, Note_on_c, 0, 62, 84
1, 260464, Note_on_c, 0, 92, 97
1, 260516, Note_off_c, 0, 80, 66
1, 260528, Note_off_c, 0, 92, 66
1, 260558, Note_off_c, 0, 62, 50
1, 260580, Note_on_c, 0, 57, 80
1, 260581, Note_on_c, 0, 60, 86
1, 260586, Note_off_c, 0, 59, 62
1, 260588, Note_on_c, 0, 93, 98
1, 260589, Note_on_c, 0, 81, 98
1, 260616, Note_on_c, 0, 92, 52
1, 260617, Note_off_c, 0, 60, 64
1, 260635, Note_off_c, 0, 57, 64
1, 260637, Note_off_c, 0, 81, 63
1, 260638, Note_off_c, 0, 93, 63
1, 260650, Note_off_c, 0, 92, 60
1, 260733, Control_c, 0, 64, 70
1, 260733, Control_c, 1, 64, 70
1, 260744, Note_on_c, 0, 84, 97
1, 260752, Note_on_c, 0, 40, 96
1, 260752, Control_c, 0, 64, 33
1, 260752, Control_c, 1, 64, 33
1, 260753, Note_on_c, 0, 72, 97
1, 260760, Note_on_c, 0, 28, 89
1, 260778, Note_off_c, 0, 72, 66
1, 260783, Note_on_c, 0, 82, 52
1, 260785, Note_on_c, 0, 29, 55
1, 260788, Note_off_c, 0, 40, 69
1, 260788, Control_c, 0, 64, 50
1, 260788, Control_c, 1, 64, 50
1, 260793, Note_off_c, 0, 28, 66
1, 260800, Note_off_c, 0, 84, 65
1, 260806, Control_c, 0, 64, 90
1, 260806, Control_c, 1, 64, 90
1, 260815, Note_off_c, 0, 82, 35
1, 260826, Note_off_c, 0, 29, 53
1, 260826, Control_c, 0, 64, 127
1, 260826, Control_c, 1, 64, 127
1, 260938, Note_on_c, 0, 64, 81
1, 260941, Note_on_c, 0, 68, 85
1, 260961, Poly_aftertouch_c, 0, 28, 0
1, 260965, Note_on_c, 0, 56, 76
1, 260972, Note_off_c, 0, 64, 66
1, 260972, Poly_aftertouch_c, 0, 64, 0
1, 260979, Note_on_c, 0, 52, 62
1, 260991, Note_off_c, 0, 68, 53
1, 261000, Note_off_c, 0, 56, 62
1, 261022, Note_off_c, 0, 52, 61
1, 261054, Poly_aftertouch_c, 0, 51, 127
1, 261080, Note_on_c, 0, 69, 88
1, 261083, Note_on_c, 0, 57, 81
1, 261084, Note_on_c, 0, 66, 87
1, 261091, Note_on_c, 0, 54, 80
1, 261094, Poly_aftertouch_c, 0, 51, 0
1, 261107, Control_c, 0, 64, 75
1, 261107, Control_c, 1, 64, 75
1, 261126, Control_c, 1, 64, 38
1, 261126, Control_c, 0, 64, 38
1, 261135, Note_on_c, 0, 68, 27
1, 261143, Note_off_c, 0, 66, 62
1, 261151, Note_off_c, 0, 57, 63
1, 261163, Control_c, 0, 64, 54
1, 261163, Control_c, 1, 64, 54
1, 261166, Note_off_c, 0, 69, 60
1, 261180, Poly_aftertouch_c, 0, 65, 0
1, 261182, Control_c, 0, 64, 92
1, 261182, Control_c, 1, 64, 92
1, 261199, Control_c, 1, 64, 127
1, 261199, Control_c, 0, 64, 127
1, 261204, Note_on_c, 0, 59, 87
1, 261209, Note_on_c, 0, 56, 90
1, 261209, Note_on_c, 0, 71, 91
1, 261213, Note_off_c, 0, 54, 36
1, 261260, Note_off_c, 0, 71, 67
1, 261264, Note_off_c, 0, 68, 64
1, 261287, Note_off_c, 0, 59, 60
1, 261337, Note_on_c, 0, 57, 86
1, 261342, Note_on_c, 0, 54, 85
1, 261366, Note_off_c, 0, 56, 54
1, 261452, Note_on_c, 0, 88, 91
1, 261455, Note_off_c, 0, 57, 54
1, 261456, Note_on_c, 0, 76, 93
1, 261461, Note_on_c, 0, 52, 80
1, 261463, Note_on_c, 0, 56, 89
1, 261470, Note_off_c, 0, 54, 65
1, 261503, Note_on_c, 0, 82, 31
1, 261508, Note_off_c, 0, 76, 64
1, 261523, Note_off_c, 0, 56, 65
1, 261531, Note_off_c, 0, 52, 63
1, 261541, Note_off_c, 0, 88, 65
1, 261553, Note_off_c, 0, 82, 31
1, 261593, Control_c, 0, 64, 99
1, 261593, Control_c, 1, 64, 99
1, 261613, Control_c, 1, 64, 50
1, 261613, Control_c, 0, 64, 50
1, 261626, Note_on_c, 0, 77, 106
1, 261627, Note_on_c, 0, 89, 105
1, 261630, Control_c, 0, 64, 11
1, 261630, Control_c, 1, 64, 11
1, 261635, Note_on_c, 0, 45, 102
1, 261641, Note_on_c, 0, 33, 91
1, 261649, Control_c, 0, 64, 15
1, 261649, Control_c, 1, 64, 15
1, 261667, Control_c, 1, 64, 42
1, 261667, Note_on_c, 0, 88, 47
1, 261667, Control_c, 0, 64, 42
1, 261668, Note_off_c, 0, 88, 127
1, 261673, Note_off_c, 0, 77, 65
1, 261677, Note_off_c, 0, 33, 67
1, 261677, Note_off_c, 0, 45, 64
1, 261680, Note_off_c, 0, 89, 68
1, 261686, Control_c, 0, 64, 89
1, 261686, Control_c, 1, 64, 89
1, 261689, Note_on_c, 0, 85, 34
1, 261690, Note_off_c, 0, 85, 127
1, 261705, Note_on_c, 0, 35, 26
1, 261706, Note_off_c, 0, 35, 127
1, 261706, Control_c, 0, 64, 127
1, 261706, Control_c, 1, 64, 127
1, 261763, Poly_aftertouch_c, 0, 35, 0
1, 261828, Note_on_c, 0, 69, 90
1, 261829, Note_on_c, 0, 73, 93
1, 261835, Note_on_c, 0, 61, 84
1, 261861, Note_on_c, 0, 57, 57
1, 261864, Note_on_c, 0, 55, 52
1, 261872, Poly_aftertouch_c, 0, 33, 0
1, 261880, Note_off_c, 0, 69, 57
1, 261880, Note_off_c, 0, 73, 64
1, 261897, Note_off_c, 0, 61, 60
1, 261912, Note_off_c, 0, 57, 59
1, 261912, Note_off_c, 0, 55, 57
1, 261941, Poly_aftertouch_c, 0, 58, 0
1, 261973, Note_on_c, 0, 71, 98
1, 261973, Note_on_c, 0, 59, 84
1, 261974, Note_on_c, 0, 62, 86
1, 261975, Note_on_c, 0, 74, 57
1, 261989, Control_c, 0, 64, 98
1, 261989, Control_c, 1, 64, 98
1, 262005, Control_c, 1, 64, 52
1, 262005, Control_c, 0, 64, 52
1, 262024, Control_c, 0, 64, 18
1, 262024, Control_c, 1, 64, 18
1, 262028, Note_off_c, 0, 71, 64
1, 262038, Note_off_c, 0, 62, 63
1, 262058, Note_off_c, 0, 59, 59
1, 262060, Note_off_c, 0, 74, 63
1, 262060, Control_c, 0, 64, 44
1, 262060, Control_c, 1, 64, 44
1, 262080, Control_c, 1, 64, 92
1, 262080, Control_c, 0, 64, 92
1, 262099, Control_c, 0, 64, 127
1, 262099, Control_c, 1, 64, 127
1, 262105, Note_on_c, 0, 64, 90
1, 262106, Note_on_c, 0, 76, 94
1, 262106, Note_on_c, 0, 73, 95
1, 262111, Note_on_c, 0, 61, 92
1, 262153, Note_off_c, 0, 73, 67
1, 262158, Note_off_c, 0, 76, 66
1, 262209, Note_off_c, 0, 61, 55
1, 262214, Note_off_c, 0, 64, 45
1, 262214, Poly_aftertouch_c, 0, 64, 0
1, 262262, Note_on_c, 0, 59, 80
1, 262265, Note_on_c, 0, 62, 82
1, 262271, Note_on_c, 0, 80, 108
1, 262277, Note_on_c, 0, 92, 109
1, 262291, Note_on_c, 0, 87, 79
1, 262293, Note_on_c, 0, 90, 75
1, 262294, Note_off_c, 0, 90, 127
1, 262305, Note_on_c, 0, 79, 67
1, 262308, Note_off_c, 0, 87, 70
1, 262327, Note_off_c, 0, 80, 66
1, 262327, Note_off_c, 0, 79, 64
1, 262332, Note_off_c, 0, 92, 68
1, 262413, Note_off_c, 0, 59, 61
1, 262417, Note_on_c, 0, 61, 79
1, 262419, Note_on_c, 0, 57, 80
1, 262421, Note_off_c, 0, 62, 59
1, 262446, Note_on_c, 0, 81, 105
1, 262449, Note_on_c, 0, 93, 103
1, 262476, Note_off_c, 0, 61, 65
1, 262480, Note_on_c, 0, 92, 56
1, 262487, Note_off_c, 0, 57, 65
1, 262500, Note_off_c, 0, 81, 65
1, 262510, Note_off_c, 0, 92, 61
1, 262511, Note_off_c, 0, 93, 66
1, 262530, Poly_aftertouch_c, 0, 87, 0
1, 262584, Control_c, 0, 64, 64
1, 262584, Control_c, 1, 64, 64
1, 262623, Control_c, 1, 64, 0
1, 262623, Control_c, 0, 64, 0
1, 262628, Note_on_c, 0, 38, 104
1, 262629, Note_on_c, 0, 82, 110
1, 262631, Note_on_c, 0, 94, 111
1, 262633, Note_on_c, 0, 26, 98
1, 262642, Control_c, 0, 64, 14
1, 262642, Control_c, 1, 64, 14
1, 262650, Note_on_c, 0, 90, 76
1, 262651, Note_off_c, 0, 90, 127
1, 262660, Control_c, 0, 64, 70
1, 262660, Control_c, 1, 64, 70
1, 262661, Note_off_c, 0, 38, 70
1, 262667, Note_off_c, 0, 26, 71
1, 262671, Note_off_c, 0, 82, 64
1, 262678, Note_on_c, 0, 28, 34
1, 262678, Control_c, 0, 64, 127
1, 262678, Control_c, 1, 64, 127
1, 262680, Note_off_c, 0, 94, 65
1, 262724, Poly_aftertouch_c, 0, 34, 0
1, 262727, Note_off_c, 0, 28, 50
1, 262779, Poly_aftertouch_c, 0, 32, 0
1, 262857, Note_on_c, 0, 77, 80
1, 262859, Note_on_c, 0, 74, 80
1, 262866, Poly_aftertouch_c, 0, 26, 0
1, 262882, Note_on_c, 0, 65, 75
1, 262885, Note_on_c, 0, 62, 72
1, 262894, Note_off_c, 0, 74, 60
1, 262895, Note_off_c, 0, 77, 61
1, 262911, Note_on_c, 0, 76, 17
1, 262912, Note_off_c, 0, 76, 127
1, 262913, Note_off_c, 0, 65, 63
1, 262921, Note_off_c, 0, 62, 62
1, 262990, Note_on_c, 0, 79, 86
1, 262998, Note_on_c, 0, 76, 50
1, 263003, Note_on_c, 0, 67, 83
1, 263007, Note_on_c, 0, 64, 77
1, 263048, Note_off_c, 0, 76, 63
1, 263060, Note_off_c, 0, 67, 62
1, 263071, Note_off_c, 0, 64, 63
1, 263071, Poly_aftertouch_c, 0, 64, 0
1, 263072, Note_off_c, 0, 79, 63
1, 263107, Note_on_c, 0, 77, 82
1, 263119, Note_on_c, 0, 69, 87
1, 263120, Note_on_c, 0, 81, 89
1, 263123, Note_on_c, 0, 65, 86
1, 263156, Note_off_c, 0, 77, 64
1, 263171, Note_off_c, 0, 69, 63
1, 263172, Note_off_c, 0, 81, 65
1, 263178, Note_on_c, 0, 66, 19
1, 263179, Note_off_c, 0, 66, 127
1, 263185, Control_c, 0, 64, 93
1, 263185, Control_c, 1, 64, 93
1, 263192, Note_off_c, 0, 65, 64
1, 263203, Control_c, 0, 64, 59
1, 263203, Control_c, 1, 64, 59
1, 263222, Control_c, 1, 64, 57
1, 263222, Control_c, 0, 64, 57
1, 263240, Control_c, 0, 64, 73
1, 263240, Control_c, 1, 64, 73
1, 263255, Note_on_c, 0, 64, 83
1, 263256, Note_on_c, 0, 79, 108
1, 263257, Note_on_c, 0, 91, 101
1, 263260, Control_c, 0, 64, 127
1, 263260, Control_c, 1, 64, 127
1, 263299, Note_off_c, 0, 79, 66
1, 263304, Note_off_c, 0, 91, 66
1, 263374, Note_on_c, 0, 74, 93
1, 263383, Note_on_c, 0, 62, 81
1, 263388, Note_on_c, 0, 77, 106
1, 263392, Note_on_c, 0, 89, 95
1, 263394, Note_on_c, 0, 76, 49
1, 263395, Note_off_c, 0, 76, 127
1, 263397, Poly_aftertouch_c, 0, 63, 127
1, 263405, Note_on_c, 0, 85, 46
1, 263409, Note_off_c, 0, 74, 64
1, 263409, Note_off_c, 0, 85, 61
1, 263411, Note_on_c, 0, 63, 11
1, 263413, Note_off_c, 0, 64, 29
1, 263413, Poly_aftertouch_c, 0, 64, 0
1, 263419, Note_off_c, 0, 63, 61
1, 263419, Poly_aftertouch_c, 0, 63, 0
1, 263431, Note_off_c, 0, 77, 68
1, 263436, Note_off_c, 0, 89, 65
1, 263444, Note_off_c, 0, 62, 65
1, 263540, Control_c, 0, 64, 94
1, 263540, Control_c, 1, 64, 94
1, 263559, Control_c, 1, 64, 50
1, 263559, Control_c, 0, 64, 50
1, 263562, Note_on_c, 0, 87, 102
1, 263564, Note_on_c, 0, 75, 101
1, 263579, Control_c, 0, 64, 35
1, 263579, Control_c, 1, 64, 35
1, 263583, Note_on_c, 0, 31, 93
1, 263590, Note_on_c, 0, 43, 63
1, 263598, Note_on_c, 0, 73, 61
1, 263598, Control_c, 0, 64, 52
1, 263598, Control_c, 1, 64, 52
1, 263612, Note_off_c, 0, 75, 62
1, 263613, Note_off_c, 0, 87, 67
1, 263613, Control_c, 0, 64, 87
1, 263613, Control_c, 1, 64, 87
1, 263616, Note_off_c, 0, 31, 68
1, 263623, Note_off_c, 0, 43, 64
1, 263623, Note_off_c, 0, 73, 62
1, 263632, Control_c, 0, 64, 127
1, 263632, Control_c, 1, 64, 127
1, 263679, Poly_aftertouch_c, 0, 32, 0
1, 263754, Note_on_c, 0, 71, 88
1, 263764, Note_on_c, 0, 67, 71
1, 263777, Note_on_c, 0, 65, 59
1, 263785, Note_on_c, 0, 59, 65
1, 263793, Note_off_c, 0, 67, 67
1, 263798, Note_off_c, 0, 71, 58
1, 263808, Poly_aftertouch_c, 0, 31, 0
1, 263809, Note_off_c, 0, 59, 63
1, 263810, Note_off_c, 0, 65, 60
1, 263813, Note_on_c, 0, 55, 31
1, 263860, Note_off_c, 0, 55, 47
1, 263885, Note_on_c, 0, 60, 65
1, 263888, Note_on_c, 0, 69, 90
1, 263889, Note_on_c, 0, 72, 88
1, 263893, Note_on_c, 0, 57, 81
1, 263894, Control_c, 0, 64, 69
1, 263894, Control_c, 1, 64, 69
1, 263914, Control_c, 1, 64, 40
1, 263914, Control_c, 0, 64, 40
1, 263933, Control_c, 0, 64, 48
1, 263933, Control_c, 1, 64, 48
1, 263943, Note_off_c, 0, 69, 61
1, 263950, Control_c, 0, 64, 76
1, 263950, Control_c, 1, 64, 76
1, 263954, Note_off_c, 0, 60, 62
1, 263968, Note_off_c, 0, 57, 65
1, 263971, Control_c, 0, 64, 127
1, 263971, Control_c, 1, 64, 127
1, 263974, Note_on_c, 0, 59, 16
1, 263983, Note_off_c, 0, 59, 127
1, 264000, Note_on_c, 0, 71, 84
1, 264017, Note_on_c, 0, 74, 86
1, 264017, Note_on_c, 0, 62, 90
1, 264022, Note_off_c, 0, 72, 62
1, 264042, Note_off_c, 0, 71, 64
1, 264055, Note_off_c, 0, 74, 66
1, 264056, Poly_aftertouch_c, 0, 59, 127
1, 264082, Poly_aftertouch_c, 0, 59, 0
1, 264086, Note_off_c, 0, 62, 61
1, 264147, Note_on_c, 0, 57, 91
1, 264148, Note_on_c, 0, 78, 99
1, 264153, Note_on_c, 0, 60, 89
1, 264153, Note_on_c, 0, 90, 102
1, 264202, Note_off_c, 0, 78, 68
1, 264207, Note_off_c, 0, 90, 66
1, 264265, Note_off_c, 0, 60, 43
1, 264268, Note_on_c, 0, 55, 80
1, 264271, Note_on_c, 0, 59, 84
1, 264276, Note_off_c, 0, 57, 63
1, 264287, Note_on_c, 0, 79, 101
1, 264288, Note_on_c, 0, 91, 98
1, 264302, Note_off_c, 0, 59, 69
1, 264315, Note_on_c, 0, 90, 64
1, 264325, Note_off_c, 0, 55, 62
1, 264331, Note_off_c, 0, 79, 67
1, 264337, Note_off_c, 0, 90, 65
1, 264337, Note_off_c, 0, 91, 63
1, 264349, Note_on_c, 0, 89, 13
1, 264350, Note_off_c, 0, 89, 127
1, 264383, Control_c, 0, 64, 69
1, 264383, Control_c, 1, 64, 69
1, 264401, Control_c, 1, 64, 15
1, 264401, Control_c, 0, 64, 15
1, 264406, Poly_aftertouch_c, 0, 89, 0
1, 264432, Note_on_c, 0, 36, 103
1, 264437, Note_on_c, 0, 80, 108
1, 264438, Note_on_c, 0, 24, 95
1, 264438, Note_on_c, 0, 92, 108
1, 264438, Control_c, 0, 64, 26
1, 264438, Control_c, 1, 64, 26
1, 264457, Control_c, 1, 64, 78
1, 264457, Control_c, 0, 64, 78
1, 264461, Note_on_c, 0, 25, 62
1, 264466, Note_off_c, 0, 36, 69
1, 264469, Note_on_c, 0, 90, 47
1, 264470, Note_off_c, 0, 90, 127
1, 264472, Note_off_c, 0, 24, 66
1, 264476, Control_c, 0, 64, 127
1, 264476, Control_c, 1, 64, 127
1, 264485, Note_off_c, 0, 80, 69
1, 264486, Note_off_c, 0, 92, 69
1, 264506, Note_off_c, 0, 25, 53
1, 264510, Note_on_c, 0, 26, 13
1, 264553, Poly_aftertouch_c, 0, 30, 127
1, 264569, Note_off_c, 0, 26, 38
1, 264599, Poly_aftertouch_c, 0, 30, 0
1, 264632, Note_on_c, 0, 76, 82
1, 264655, Note_on_c, 0, 72, 61
1, 264668, Note_on_c, 0, 64, 62
1, 264669, Note_on_c, 0, 60, 59
1, 264678, Note_off_c, 0, 72, 61
1, 264684, Note_off_c, 0, 76, 55
1, 264702, Note_off_c, 0, 64, 63
1, 264702, Poly_aftertouch_c, 0, 64, 0
1, 264715, Note_off_c, 0, 60, 59
1, 264734, Poly_aftertouch_c, 0, 78, 0
1, 264767, Note_on_c, 0, 77, 86
1, 264771, Note_on_c, 0, 74, 85
1, 264774, Note_on_c, 0, 62, 70
1, 264793, Control_c, 0, 64, 121
1, 264793, Control_c, 1, 64, 121
1, 264813, Control_c, 1, 64, 69
1, 264813, Control_c, 0, 64, 69
1, 264826, Note_off_c, 0, 74, 63
1, 264831, Control_c, 0, 64, 63
1, 264831, Control_c, 1, 64, 63
1, 264843, Poly_aftertouch_c, 0, 65, 0
1, 264850, Control_c, 0, 64, 82
1, 264850, Control_c, 1, 64, 82
1, 264858, Note_off_c, 0, 62, 61
1, 264868, Control_c, 0, 64, 127
1, 264868, Control_c, 1, 64, 127
1, 264885, Note_on_c, 0, 76, 80
1, 264902, Note_on_c, 0, 64, 84
1, 264903, Note_on_c, 0, 79, 82
1, 264905, Note_off_c, 0, 77, 40
1, 264907, Note_on_c, 0, 67, 82
1, 264939, Note_off_c, 0, 76, 65
1, 264957, Note_off_c, 0, 79, 62
1, 264965, Note_off_c, 0, 67, 62
1, 265017, Note_on_c, 0, 62, 83
1, 265019, Note_off_c, 0, 64, 47
1, 265019, Poly_aftertouch_c, 0, 64, 0
1, 265033, Note_on_c, 0, 77, 102
1, 265037, Note_on_c, 0, 89, 97
1, 265077, Note_on_c, 0, 87, 35
1, 265078, Note_off_c, 0, 87, 127
1, 265082, Note_off_c, 0, 77, 66
1, 265091, Note_off_c, 0, 89, 66
1, 265114, Note_off_c, 0, 62, 61
1, 265128, Note_on_c, 0, 60, 75
1, 265168, Note_on_c, 0, 72, 78
1, 265176, Note_on_c, 0, 76, 99
1, 265177, Note_on_c, 0, 88, 92
1, 265195, Note_off_c, 0, 72, 69
1, 265204, Note_on_c, 0, 86, 60
1, 265205, Note_off_c, 0, 86, 127
1, 265217, Note_off_c, 0, 60, 62
1, 265217, Note_off_c, 0, 76, 67
1, 265217, Note_on_c, 0, 85, 29
1, 265231, Note_off_c, 0, 88, 65
1, 265271, Note_off_c, 0, 85, 33
1, 265300, Control_c, 0, 64, 83
1, 265300, Control_c, 1, 64, 83
1, 265319, Control_c, 1, 64, 34
1, 265319, Control_c, 0, 64, 34
1, 265341, Note_on_c, 0, 91, 101
1, 265342, Note_on_c, 0, 79, 106
1, 265356, Control_c, 0, 64, 13
1, 265356, Control_c, 1, 64, 13
1, 265358, Note_on_c, 0, 38, 93
1, 265362, Note_on_c, 0, 28, 91
1, 265372, Note_on_c, 0, 90, 51
1, 265373, Note_off_c, 0, 90, 127
1, 265374, Control_c, 0, 64, 52
1, 265374, Control_c, 1, 64, 52
1, 265377, Note_off_c, 0, 79, 64
1, 265381, Note_on_c, 0, 40, 63
1, 265382, Note_off_c, 0, 40, 127
1, 265383, Note_on_c, 0, 26, 58
1, 265384, Note_off_c, 0, 26, 127
1, 265386, Note_off_c, 0, 91, 67
1, 265388, Note_off_c, 0, 38, 70
1, 265392, Note_off_c, 0, 28, 66
1, 265392, Control_c, 0, 64, 127
1, 265392, Control_c, 1, 64, 127
1, 265423, Poly_aftertouch_c, 0, 40, 0
1, 265426, Note_on_c, 0, 85, 23
1, 265427, Note_off_c, 0, 85, 127
1, 265527, Note_on_c, 0, 75, 96
1, 265542, Note_on_c, 0, 70, 83
1, 265570, Poly_aftertouch_c, 0, 28, 0
1, 265572, Note_off_c, 0, 70, 69
1, 265575, Note_on_c, 0, 62, 73
1, 265584, Note_on_c, 0, 61, 61
1, 265592, Note_on_c, 0, 58, 60
1, 265597, Note_off_c, 0, 75, 65
1, 265612, Note_off_c, 0, 62, 66
1, 265619, Note_off_c, 0, 61, 62
1, 265626, Note_off_c, 0, 58, 66
1, 265675, Note_on_c, 0, 72, 92
1, 265678, Note_on_c, 0, 76, 83
1, 265700, Note_on_c, 0, 64, 79
1, 265705, Note_on_c, 0, 60, 74
1, 265711, Control_c, 0, 64, 89
1, 265711, Control_c, 1, 64, 89
1, 265720, Note_on_c, 0, 62, 58
1, 265723, Note_off_c, 0, 72, 62
1, 265730, Control_c, 0, 64, 61
1, 265730, Control_c, 1, 64, 61
1, 265744, Note_off_c, 0, 62, 61
1, 265748, Control_c, 0, 64, 65
1, 265748, Control_c, 1, 64, 65
1, 265761, Note_off_c, 0, 64, 57
1, 265761, Poly_aftertouch_c, 0, 64, 0
1, 265767, Control_c, 0, 64, 91
1, 265767, Control_c, 1, 64, 91
1, 265786, Control_c, 1, 64, 127
1, 265786, Control_c, 0, 64, 127
1, 265788, Note_off_c, 0, 60, 53
1, 265796, Note_on_c, 0, 74, 57
1, 265806, Note_on_c, 0, 77, 84
1, 265814, Note_on_c, 0, 65, 84
1, 265817, Note_on_c, 0, 62, 84
1, 265825, Note_off_c, 0, 76, 66
1, 265826, Poly_aftertouch_c, 0, 76, 0
1, 265838, Note_off_c, 0, 74, 65
1, 265849, Note_off_c, 0, 77, 63
1, 265865, Note_off_c, 0, 65, 61
1, 265909, Note_off_c, 0, 62, 56
1, 265909, Note_on_c, 0, 60, 34
1, 265946, Note_on_c, 0, 88, 98
1, 265959, Note_on_c, 0, 58, 80
1, 265983, Note_on_c, 0, 77, 39
1, 265984, Note_off_c, 0, 77, 127
1, 265985, Note_on_c, 0, 82, 39
1, 265986, Note_off_c, 0, 82, 127
1, 265987, Poly_aftertouch_c, 0, 76, 0
1, 265993, Note_off_c, 0, 88, 64
1, 265997, Note_on_c, 0, 63, 41
1, 266006, Note_off_c, 0, 60, 52
1, 266012, Note_on_c, 0, 70, 82
1, 266028, Poly_aftertouch_c, 0, 77, 0
1, 266043, Note_off_c, 0, 63, 49
1, 266043, Poly_aftertouch_c, 0, 63, 0
1, 266058, Poly_aftertouch_c, 0, 60, 0
1, 266074, Note_off_c, 0, 70, 65
1, 266077, Note_on_c, 0, 74, 98
1, 266078, Note_on_c, 0, 86, 97
1, 266100, Note_off_c, 0, 58, 66
1, 266105, Note_on_c, 0, 85, 56
1, 266115, Note_off_c, 0, 74, 67
1, 266133, Note_off_c, 0, 85, 61
1, 266134, Note_off_c, 0, 86, 66
1, 266198, Control_c, 0, 64, 56
1, 266198, Control_c, 1, 64, 56
1, 266231, Note_on_c, 0, 89, 102
1, 266234, Note_on_c, 0, 77, 108
1, 266236, Note_on_c, 0, 38, 94
1, 266237, Note_on_c, 0, 37, 77
1, 266240, Note_on_c, 0, 24, 95
1, 266253, Control_c, 0, 64, 34
1, 266253, Control_c, 1, 64, 34
1, 266255, Note_on_c, 0, 36, 72
1, 266260, Note_on_c, 0, 87, 61
1, 266270, Note_on_c, 0, 27, 52
1, 266271, Note_off_c, 0, 27, 127
1, 266271, Note_on_c, 0, 26, 50
1, 266272, Note_off_c, 0, 26, 127
1, 266272, Control_c, 0, 64, 99
1, 266272, Control_c, 1, 64, 99
1, 266273, Note_off_c, 0, 38, 64
1, 266273, Note_off_c, 0, 37, 64
1, 266276, Note_off_c, 0, 77, 66
1, 266278, Note_off_c, 0, 89, 64
1, 266279, Note_off_c, 0, 24, 69
1, 266285, Note_off_c, 0, 36, 62
1, 266289, Note_off_c, 0, 87, 64
1, 266290, Control_c, 0, 64, 127
1, 266290, Control_c, 1, 64, 127
1, 266302, Note_on_c, 0, 30, 16
1, 266314, Note_off_c, 0, 30, 58
1, 266330, Poly_aftertouch_c, 0, 26, 0
1, 266434, Poly_aftertouch_c, 0, 24, 0
1, 266439, Note_on_c, 0, 69, 87
1, 266443, Note_on_c, 0, 72, 80
1, 266467, Note_on_c, 0, 60, 67
1, 266471, Note_off_c, 0, 69, 69
1, 266471, Note_on_c, 0, 57, 65
1, 266476, Note_off_c, 0, 72, 63
1, 266499, Note_on_c, 0, 71, 13
1, 266500, Note_off_c, 0, 71, 127
1, 266510, Note_off_c, 0, 60, 61
1, 266518, Note_off_c, 0, 57, 63
1, 266521, Poly_aftertouch_c, 0, 74, 0
1, 266530, Note_on_c, 0, 74, 18
1, 266531, Note_off_c, 0, 74, 127
1, 266553, Poly_aftertouch_c, 0, 70, 127
1, 266567, Poly_aftertouch_c, 0, 70, 0
1, 266568, Note_on_c, 0, 71, 46
1, 266575, Note_on_c, 0, 74, 53
1, 266585, Note_on_c, 0, 62, 70
1, 266588, Note_on_c, 0, 59, 67
1, 266628, Control_c, 0, 64, 93
1, 266628, Control_c, 1, 64, 93
1, 266634, Note_off_c, 0, 71, 62
1, 266648, Control_c, 0, 64, 56
1, 266648, Control_c, 1, 64, 56
1, 266651, Note_off_c, 0, 62, 62
1, 266653, Note_off_c, 0, 74, 61
1, 266661, Note_off_c, 0, 59, 58
1, 266663, Poly_aftertouch_c, 0, 72, 0
1, 266666, Control_c, 0, 64, 54
1, 266666, Control_c, 1, 64, 54
1, 266679, Note_on_c, 0, 64, 58
1, 266680, Poly_aftertouch_c, 0, 69, 0
1, 266685, Control_c, 0, 64, 83
1, 266685, Control_c, 1, 64, 83
1, 266697, Note_on_c, 0, 60, 78
1, 266697, Note_on_c, 0, 76, 89
1, 266704, Control_c, 0, 64, 127
1, 266704, Control_c, 1, 64, 127
1, 266705, Note_on_c, 0, 72, 55
1, 266740, Note_on_c, 0, 74, 27
1, 266741, Note_off_c, 0, 72, 61
1, 266741, Note_off_c, 0, 74, 127
1, 266742, Note_off_c, 0, 76, 64
1, 266745, Note_off_c, 0, 64, 63
1, 266745, Poly_aftertouch_c, 0, 64, 0
1, 266759, Poly_aftertouch_c, 0, 61, 0
1, 266778, Note_off_c, 0, 60, 57
1, 266827, Note_on_c, 0, 59, 80
1, 266840, Note_on_c, 0, 74, 101
1, 266845, Note_on_c, 0, 86, 96
1, 266864, Note_on_c, 0, 68, 61
1, 266891, Note_off_c, 0, 74, 69
1, 266891, Note_off_c, 0, 68, 62
1, 266899, Note_off_c, 0, 86, 64
1, 266923, Note_off_c, 0, 59, 51
1, 266946, Poly_aftertouch_c, 0, 61, 0
1, 266958, Note_on_c, 0, 69, 86
1, 266969, Note_on_c, 0, 57, 80
1, 266978, Note_on_c, 0, 84, 87
1, 266980, Note_on_c, 0, 72, 95
1, 267003, Note_off_c, 0, 69, 59
1, 267014, Note_on_c, 0, 82, 50
1, 267027, Note_off_c, 0, 72, 61
1, 267042, Note_off_c, 0, 57, 63
1, 267044, Note_off_c, 0, 84, 64
1, 267048, Note_off_c, 0, 82, 60
1, 267074, Poly_aftertouch_c, 0, 60, 0
1, 267077, Control_c, 0, 64, 82
1, 267077, Control_c, 1, 64, 82
1, 267097, Control_c, 1, 64, 32
1, 267097, Control_c, 0, 64, 32
1, 267133, Note_on_c, 0, 86, 98
1, 267133, Control_c, 0, 64, 23
1, 267133, Control_c, 1, 64, 23
1, 267136, Note_on_c, 0, 74, 100
1, 267142, Note_on_c, 0, 47, 96
1, 267148, Note_on_c, 0, 35, 89
1, 267151, Control_c, 0, 64, 70
1, 267151, Control_c, 1, 64, 70
1, 267172, Control_c, 1, 64, 127
1, 267172, Control_c, 0, 64, 127
1, 267178, Note_off_c, 0, 35, 64
1, 267185, Note_off_c, 0, 74, 67
1, 267191, Note_off_c, 0, 47, 68
1, 267192, Note_off_c, 0, 86, 67
1, 267193, Note_on_c, 0, 37, 34
1, 267223, Note_on_c, 0, 36, 7
1, 267248, Note_off_c, 0, 37, 44
1, 267306, Note_off_c, 0, 36, 35
1, 267316, Note_on_c, 0, 69, 87
1, 267318, Note_on_c, 0, 65, 82
1, 267326, Note_on_c, 0, 57, 75
1, 267332, Note_on_c, 0, 53, 74
1, 267347, Note_off_c, 0, 65, 65
1, 267352, Note_off_c, 0, 69, 56
1, 267364, Note_off_c, 0, 57, 65
1, 267379, Poly_aftertouch_c, 0, 35, 0
1, 267399, Note_off_c, 0, 53, 60
1, 267444, Note_on_c, 0, 62, 86
1, 267444, Note_on_c, 0, 74, 86
1, 267497, Note_off_c, 0, 62, 64
1, 267520, Note_off_c, 0, 74, 63
1, 267527, Control_c, 0, 64, 60
1, 267527, Control_c, 1, 64, 60
1, 267546, Control_c, 1, 64, 16
1, 267546, Control_c, 0, 64, 16
1, 267584, Control_c, 0, 64, 38
1, 267584, Control_c, 1, 64, 38
1, 267592, Note_on_c, 0, 77, 95
1, 267592, Note_on_c, 0, 65, 90
1, 267600, Note_on_c, 0, 74, 81
1, 267602, Control_c, 0, 64, 93
1, 267602, Control_c, 1, 64, 93
1, 267606, Note_on_c, 0, 52, 93
1, 267613, Note_on_c, 0, 40, 87
1, 267620, Control_c, 0, 64, 127
1, 267620, Control_c, 1, 64, 127
1, 267644, Note_off_c, 0, 65, 64
1, 267646, Note_off_c, 0, 40, 65
1, 267652, Note_off_c, 0, 52, 65
1, 267653, Note_off_c, 0, 74, 58
1, 267667, Note_off_c, 0, 77, 63
1, 267795, Note_on_c, 0, 84, 99
1, 267801, Note_on_c, 0, 72, 101
1, 267806, Note_on_c, 0, 76, 89
1, 267811, Note_on_c, 0, 64, 93
1, 267812, Note_on_c, 0, 52, 89
1, 267834, Note_off_c, 0, 76, 67
1, 267867, Note_off_c, 0, 72, 58
1, 267896, Note_off_c, 0, 84, 61
1, 267998, Note_off_c, 0, 64, 24
1, 267998, Poly_aftertouch_c, 0, 64, 0
1, 268000, Note_on_c, 0, 62, 82
1, 268007, Note_on_c, 0, 56, 75
1, 268011, Note_on_c, 0, 83, 98
1, 268012, Note_on_c, 0, 71, 95
1, 268013, Note_on_c, 0, 74, 90
1, 268049, Note_on_c, 0, 80, 49
1, 268050, Note_off_c, 0, 62, 58
1, 268067, Note_on_c, 0, 81, 24
1, 268080, Note_off_c, 0, 56, 65
1, 268084, Note_off_c, 0, 52, 61
1, 268085, Note_off_c, 0, 80, 60
1, 268111, Note_off_c, 0, 74, 39
1, 268119, Note_off_c, 0, 71, 60
1, 268124, Note_off_c, 0, 81, 33
1, 268125, Control_c, 0, 64, 105
1, 268125, Control_c, 1, 64, 105
1, 268128, Note_off_c, 0, 83, 64
1, 268144, Control_c, 0, 64, 41
1, 268144, Control_c, 1, 64, 41
1, 268163, Control_c, 1, 64, 0
1, 268163, Control_c, 0, 64, 0
1, 268199, Note_on_c, 0, 45, 98
1, 268213, Note_on_c, 0, 74, 93
1, 268215, Note_on_c, 0, 71, 96
1, 268215, Note_on_c, 0, 83, 95
1, 268215, Note_on_c, 0, 33, 92
1, 268220, Control_c, 0, 64, 63
1, 268220, Control_c, 1, 64, 63
1, 268237, Control_c, 1, 64, 127
1, 268237, Note_on_c, 0, 80, 38
1, 268237, Control_c, 0, 64, 127
1, 268241, Note_off_c, 0, 33, 68
1, 268251, Note_off_c, 0, 45, 65
1, 268253, Note_off_c, 0, 74, 65
1, 268271, Note_off_c, 0, 71, 61
1, 268285, Note_off_c, 0, 80, 54
1, 268289, Note_off_c, 0, 83, 65
1, 268416, Note_on_c, 0, 72, 88
1, 268419, Note_on_c, 0, 69, 84
1, 268429, Note_on_c, 0, 60, 86
1, 268444, Note_on_c, 0, 57, 63
1, 268468, Note_off_c, 0, 60, 53
1, 268470, Note_off_c, 0, 69, 59
1, 268474, Note_off_c, 0, 72, 62
1, 268489, Note_off_c, 0, 57, 65
1, 268550, Note_on_c, 0, 59, 80
1, 268551, Note_on_c, 0, 62, 89
1, 268562, Note_on_c, 0, 74, 91
1, 268563, Note_on_c, 0, 71, 91
1, 268605, Note_off_c, 0, 62, 65
1, 268624, Note_off_c, 0, 71, 63
1, 268627, Note_off_c, 0, 59, 62
1, 268659, Note_off_c, 0, 74, 49
1, 268685, Note_on_c, 0, 64, 88
1, 268687, Note_on_c, 0, 72, 85
1, 268687, Control_c, 0, 64, 72
1, 268687, Control_c, 1, 64, 72
1, 268692, Note_on_c, 0, 60, 90
1, 268693, Note_on_c, 0, 76, 85
1, 268707, Control_c, 0, 64, 34
1, 268707, Control_c, 1, 64, 34
1, 268742, Note_off_c, 0, 72, 62
1, 268742, Control_c, 0, 64, 60
1, 268742, Control_c, 1, 64, 60
1, 268751, Note_off_c, 0, 76, 64
1, 268758, Note_off_c, 0, 64, 60
1, 268758, Poly_aftertouch_c, 0, 64, 0
1, 268761, Control_c, 0, 64, 107
1, 268761, Control_c, 1, 64, 107
1, 268762, Note_off_c, 0, 60, 56
1, 268781, Control_c, 0, 64, 127
1, 268781, Control_c, 1, 64, 127
1, 268829, Note_on_c, 0, 59, 81
1, 268833, Note_on_c, 0, 62, 82
1, 268838, Note_on_c, 0, 80, 95
1, 268842, Note_on_c, 0, 68, 94
1, 268902, Note_off_c, 0, 68, 64
1, 268909, Note_on_c, 0, 78, 7
1, 268917, Note_off_c, 0, 80, 65
1, 268948, Note_off_c, 0, 62, 52
1, 268957, Poly_aftertouch_c, 0, 75, 127
1, 268961, Note_on_c, 0, 60, 82
1, 268964, Note_off_c, 0, 59, 55
1, 268969, Note_on_c, 0, 57, 77
1, 268970, Note_on_c, 0, 69, 95
1, 268973, Note_on_c, 0, 81, 92
1, 268977, Poly_aftertouch_c, 0, 75, 0
1, 268993, Note_off_c, 0, 78, 35
1, 269015, Note_off_c, 0, 69, 64
1, 269019, Note_off_c, 0, 60, 62
1, 269027, Note_off_c, 0, 57, 63
1, 269033, Note_off_c, 0, 81, 62
1, 269080, Control_c, 0, 64, 60
1, 269080, Control_c, 1, 64, 60
1, 269100, Control_c, 1, 64, 8
1, 269100, Control_c, 0, 64, 8
1, 269122, Note_on_c, 0, 77, 102
1, 269122, Note_on_c, 0, 89, 101
1, 269131, Note_on_c, 0, 47, 99
1, 269136, Control_c, 0, 64, 34
1, 269136, Control_c, 1, 64, 34
1, 269139, Note_on_c, 0, 35, 89
1, 269156, Control_c, 0, 64, 82
1, 269156, Control_c, 1, 64, 82
1, 269165, Note_off_c, 0, 77, 64
1, 269170, Note_off_c, 0, 89, 66
1, 269173, Note_off_c, 0, 35, 66
1, 269173, Note_on_c, 0, 87, 29
1, 269174, Note_off_c, 0, 47, 62
1, 269175, Control_c, 0, 64, 127
1, 269175, Control_c, 1, 64, 127
1, 269223, Note_off_c, 0, 87, 54
1, 269314, Note_on_c, 0, 73, 91
1, 269320, Note_on_c, 0, 69, 80
1, 269347, Note_on_c, 0, 61, 66
1, 269356, Poly_aftertouch_c, 0, 35, 0
1, 269357, Note_on_c, 0, 57, 61
1, 269358, Note_off_c, 0, 69, 53
1, 269368, Note_off_c, 0, 73, 64
1, 269385, Note_off_c, 0, 61, 63
1, 269409, Note_off_c, 0, 57, 61
1, 269446, Note_on_c, 0, 74, 89
1, 269453, Note_on_c, 0, 71, 85
1, 269454, Note_on_c, 0, 62, 87
1, 269455, Note_on_c, 0, 59, 81
1, 269456, Control_c, 0, 64, 80
1, 269456, Control_c, 1, 64, 80
1, 269473, Control_c, 1, 64, 57
1, 269473, Control_c, 0, 64, 57
1, 269494, Control_c, 0, 64, 68
1, 269494, Control_c, 1, 64, 68
1, 269511, Control_c, 1, 64, 101
1, 269511, Control_c, 0, 64, 101
1, 269516, Note_off_c, 0, 71, 62
1, 269518, Note_off_c, 0, 59, 50
1, 269519, Note_off_c, 0, 62, 62
1, 269530, Control_c, 0, 64, 127
1, 269530, Control_c, 1, 64, 127
1, 269541, Note_off_c, 0, 74, 63
1, 269567, Note_on_c, 0, 76, 91
1, 269570, Note_on_c, 0, 73, 85
1, 269575, Note_on_c, 0, 64, 87
1, 269577, Note_on_c, 0, 61, 89
1, 269608, Note_off_c, 0, 76, 68
1, 269617, Note_off_c, 0, 73, 63
1, 269635, Note_off_c, 0, 64, 62
1, 269635, Poly_aftertouch_c, 0, 64, 0
1, 269648, Note_off_c, 0, 61, 58
1, 269701, Note_on_c, 0, 59, 83
1, 269701, Note_on_c, 0, 62, 87
1, 269709, Note_on_c, 0, 80, 104
1, 269720, Note_on_c, 0, 92, 94
1, 269736, Note_on_c, 0, 87, 68
1, 269737, Note_on_c, 0, 90, 73
1, 269757, Note_off_c, 0, 87, 67
1, 269757, Note_off_c, 0, 90, 69
1, 269766, Note_off_c, 0, 80, 65
1, 269780, Note_off_c, 0, 92, 64
1, 269787, Poly_aftertouch_c, 0, 85, 0
1, 269788, Note_off_c, 0, 62, 53
1, 269814, Note_on_c, 0, 61, 80
1, 269820, Note_on_c, 0, 57, 80
1, 269832, Note_off_c, 0, 59, 60
1, 269834, Poly_aftertouch_c, 0, 79, 0
1, 269841, Note_on_c, 0, 81, 99
1, 269847, Note_on_c, 0, 93, 98
1, 269855, Poly_aftertouch_c, 0, 85, 0
1, 269860, Note_off_c, 0, 61, 66
1, 269866, Note_off_c, 0, 57, 62
1, 269872, Note_on_c, 0, 92, 56
1, 269883, Note_off_c, 0, 81, 66
1, 269883, Note_on_c, 0, 87, 23
1, 269884, Note_off_c, 0, 87, 127
1, 269889, Note_off_c, 0, 93, 65
1, 269902, Note_off_c, 0, 92, 61
1, 269923, Control_c, 0, 64, 98
1, 269923, Control_c, 1, 64, 98
1, 269942, Control_c, 1, 64, 40
1, 269942, Control_c, 0, 64, 40
1, 269960, Control_c, 0, 64, 0
1, 269960, Control_c, 1, 64, 0
1, 269998, Control_c, 1, 64, 19
1, 269998, Note_on_c, 0, 39, 91
1, 269998, Control_c, 0, 64, 19
1, 269999, Note_on_c, 0, 82, 105
1, 269999, Note_on_c, 0, 94, 105
1, 270004, Note_on_c, 0, 40, 97
1, 270009, Note_on_c, 0, 28, 80
1, 270012, Note_on_c, 0, 26, 81
1, 270015, Control_c, 0, 64, 81
1, 270015, Control_c, 1, 64, 81
1, 270016, Note_on_c, 0, 95, 78
1, 270018, Note_on_c, 0, 92, 61
1, 270019, Note_off_c, 0, 92, 127
1, 270027, Note_off_c, 0, 39, 64
1, 270034, Note_off_c, 0, 40, 71
1, 270035, Control_c, 0, 64, 127
1, 270035, Control_c, 1, 64, 127
1, 270041, Note_on_c, 0, 96, 45
1, 270042, Note_off_c, 0, 28, 65
1, 270044, Note_off_c, 0, 82, 65
1, 270045, Note_off_c, 0, 95, 70
1, 270047, Note_off_c, 0, 26, 58
1, 270050, Note_on_c, 0, 83, 43
1, 270051, Note_off_c, 0, 83, 127
1, 270058, Note_off_c, 0, 94, 64
1, 270074, Note_off_c, 0, 96, 57
1, 270203, Note_on_c, 0, 77, 82
1, 270204, Note_on_c, 0, 74, 82
1, 270224, Poly_aftertouch_c, 0, 39, 0
1, 270234, Note_on_c, 0, 65, 69
1, 270235, Note_on_c, 0, 76, 48
1, 270238, Note_off_c, 0, 74, 68
1, 270248, Note_on_c, 0, 62, 55
1, 270249, Note_off_c, 0, 77, 61
1, 270264, Note_off_c, 0, 65, 67
1, 270265, Note_off_c, 0, 76, 39
1, 270285, Note_off_c, 0, 62, 62
1, 270328, Note_on_c, 0, 79, 87
1, 270332, Note_on_c, 0, 67, 85
1, 270334, Control_c, 0, 64, 97
1, 270334, Control_c, 1, 64, 97
1, 270336, Note_on_c, 0, 76, 93
1, 270338, Note_on_c, 0, 64, 70
1, 270353, Control_c, 0, 64, 64
1, 270353, Control_c, 1, 64, 64
1, 270389, Note_off_c, 0, 76, 64
1, 270390, Control_c, 0, 64, 89
1, 270390, Control_c, 1, 64, 89
1, 270394, Note_off_c, 0, 67, 63
1, 270409, Control_c, 0, 64, 127
1, 270409, Control_c, 1, 64, 127
1, 270412, Note_off_c, 0, 64, 62
1, 270412, Poly_aftertouch_c, 0, 64, 0
1, 270414, Note_off_c, 0, 79, 63
1, 270450, Note_on_c, 0, 77, 80
1, 270451, Note_on_c, 0, 69, 81
1, 270451, Note_on_c, 0, 65, 87
1, 270462, Note_on_c, 0, 81, 84
1, 270491, Note_off_c, 0, 69, 60
1, 270496, Note_off_c, 0, 77, 63
1, 270504, Note_off_c, 0, 81, 60
1, 270523, Note_off_c, 0, 65, 60
1, 270587, Note_on_c, 0, 79, 103
1, 270588, Note_on_c, 0, 64, 80
1, 270593, Note_on_c, 0, 91, 97
1, 270595, Note_on_c, 0, 63, 62
1, 270618, Note_on_c, 0, 90, 62
1, 270620, Note_off_c, 0, 63, 62
1, 270620, Poly_aftertouch_c, 0, 63, 0
1, 270631, Note_off_c, 0, 79, 67
1, 270643, Note_off_c, 0, 90, 64
1, 270643, Note_off_c, 0, 91, 63
1, 270693, Note_on_c, 0, 74, 90
1, 270700, Note_on_c, 0, 62, 86
1, 270715, Poly_aftertouch_c, 0, 73, 127
1, 270730, Note_on_c, 0, 77, 102
1, 270732, Note_on_c, 0, 89, 96
1, 270734, Note_off_c, 0, 74, 60
1, 270734, Poly_aftertouch_c, 0, 73, 0
1, 270756, Note_off_c, 0, 64, 51
1, 270756, Note_off_c, 0, 62, 65
1, 270756, Poly_aftertouch_c, 0, 64, 0
1, 270766, Note_off_c, 0, 77, 65
1, 270775, Note_off_c, 0, 89, 64
1, 270822, Control_c, 0, 64, 102
1, 270822, Control_c, 1, 64, 102
1, 270840, Control_c, 1, 64, 47
1, 270840, Control_c, 0, 64, 47
1, 270859, Control_c, 0, 64, 0
1, 270859, Control_c, 1, 64, 0
1, 270879, Note_on_c, 0, 87, 90
1, 270881, Note_on_c, 0, 75, 103
1, 270888, Note_on_c, 0, 45, 98
1, 270891, Note_on_c, 0, 33, 91
1, 270894, Note_on_c, 0, 43, 82
1, 270895, Note_off_c, 0, 43, 127
1, 270895, Control_c, 0, 64, 37
1, 270895, Control_c, 1, 64, 37
1, 270915, Control_c, 1, 64, 103
1, 270915, Control_c, 0, 64, 103
1, 270919, Poly_aftertouch_c, 0, 43, 0
1, 270923, Note_off_c, 0, 33, 66
1, 270923, Note_on_c, 0, 88, 42
1, 270930, Note_off_c, 0, 45, 63
1, 270931, Note_off_c, 0, 75, 67
1, 270933, Control_c, 0, 64, 127
1, 270933, Control_c, 1, 64, 127
1, 270938, Note_off_c, 0, 87, 66
1, 270960, Note_off_c, 0, 88, 59
1, 271001, Poly_aftertouch_c, 0, 34, 127
1, 271032, Poly_aftertouch_c, 0, 35, 0
1, 271037, Poly_aftertouch_c, 0, 34, 0
1, 271073, Note_on_c, 0, 71, 72
1, 271074, Note_on_c, 0, 67, 73
1, 271081, Note_on_c, 0, 72, 62
1, 271085, Note_on_c, 0, 69, 61
1, 271086, Note_on_c, 0, 59, 78
1, 271092, Note_on_c, 0, 70, 40
1, 271093, Note_off_c, 0, 70, 127
1, 271108, Note_off_c, 0, 67, 70
1, 271108, Note_off_c, 0, 71, 67
1, 271114, Note_off_c, 0, 69, 59
1, 271114, Note_off_c, 0, 72, 63
1, 271118, Poly_aftertouch_c, 0, 33, 0
1, 271119, Note_off_c, 0, 59, 69
1, 271135, Poly_aftertouch_c, 0, 70, 0
1, 271193, Note_on_c, 0, 72, 86
1, 271196, Control_c, 0, 64, 83
1, 271196, Control_c, 1, 64, 83
1, 271197, Note_on_c, 0, 69, 87
1, 271201, Note_on_c, 0, 57, 83
1, 271214, Poly_aftertouch_c, 0, 55, 0
1, 271214, Control_c, 0, 64, 38
1, 271214, Control_c, 1, 64, 38
1, 271233, Control_c, 1, 64, 21
1, 271233, Control_c, 0, 64, 21
1, 271237, Poly_aftertouch_c, 0, 60, 127
1, 271253, Control_c, 0, 64, 45
1, 271253, Control_c, 1, 64, 45
1, 271257, Note_off_c, 0, 69, 60
1, 271262, Poly_aftertouch_c, 0, 60, 0
1, 271272, Control_c, 0, 64, 102
1, 271272, Control_c, 1, 64, 102
1, 271273, Note_off_c, 0, 57, 65
1, 271289, Control_c, 0, 64, 127
1, 271289, Control_c, 1, 64, 127
1, 271312, Note_on_c, 0, 71, 83
1, 271320, Note_on_c, 0, 74, 84
1, 271322, Note_on_c, 0, 62, 89
1, 271330, Note_off_c, 0, 72, 59
1, 271336, Note_on_c, 0, 59, 55
1, 271346, Note_off_c, 0, 71, 62
1, 271362, Note_off_c, 0, 74, 63
1, 271386, Note_off_c, 0, 59, 61
1, 271398, Note_off_c, 0, 62, 60
1, 271454, Note_on_c, 0, 57, 83
1, 271459, Note_on_c, 0, 60, 85
1, 271459, Note_on_c, 0, 78, 96
1, 271463, Note_on_c, 0, 90, 100
1, 271509, Note_off_c, 0, 78, 67
1, 271519, Note_off_c, 0, 90, 61
1, 271545, Note_off_c, 0, 60, 58
1, 271562, Note_on_c, 0, 55, 77
1, 271570, Poly_aftertouch_c, 0, 91, 0
1, 271577, Note_off_c, 0, 57, 58
1, 271588, Note_on_c, 0, 59, 60
1, 271589, Note_on_c, 0, 91, 77
1, 271591, Note_on_c, 0, 79, 92
1, 271592, Note_off_c, 0, 55, 64
1, 271613, Note_off_c, 0, 59, 60
1, 271623, Note_on_c, 0, 90, 43
1, 271634, Note_off_c, 0, 79, 61
1, 271643, Note_off_c, 0, 91, 64
1, 271659, Note_off_c, 0, 90, 58
1, 271663, Control_c, 0, 64, 76
1, 271663, Control_c, 1, 64, 76
1, 271682, Control_c, 1, 64, 20
1, 271682, Control_c, 0, 64, 20
1, 271700, Control_c, 0, 64, 0
1, 271700, Control_c, 1, 64, 0
1, 271721, Control_c, 1, 64, 12
1, 271721, Control_c, 0, 64, 12
1, 271734, Note_on_c, 0, 36, 100
1, 271737, Note_on_c, 0, 92, 104
1, 271738, Note_on_c, 0, 80, 99
1, 271739, Note_on_c, 0, 26, 96
1, 271740, Control_c, 0, 64, 62
1, 271740, Control_c, 1, 64, 62
1, 271747, Note_on_c, 0, 24, 80
1, 271758, Control_c, 0, 64, 127
1, 271758, Control_c, 1, 64, 127
1, 271763, Note_off_c, 0, 36, 74
1, 271771, Note_off_c, 0, 26, 65
1, 271783, Note_off_c, 0, 24, 55
1, 271787, Note_off_c, 0, 92, 69
1, 271790, Note_off_c, 0, 80, 65
1, 271930, Note_on_c, 0, 76, 89
1, 271931, Note_on_c, 0, 72, 87
1, 271961, Poly_aftertouch_c, 0, 26, 0
1, 271964, Note_off_c, 0, 72, 65
1, 271964, Note_on_c, 0, 64, 76
1, 271985, Note_off_c, 0, 76, 64
1, 271996, Note_off_c, 0, 64, 65
1, 271996, Poly_aftertouch_c, 0, 64, 0
1, 272062, Note_on_c, 0, 77, 87
1, 272066, Note_on_c, 0, 74, 87
1, 272075, Note_on_c, 0, 65, 84
1, 272076, Note_on_c, 0, 62, 75
1, 272104, Poly_aftertouch_c, 0, 60, 127
1, 272124, Note_off_c, 0, 74, 63
1, 272134, Note_off_c, 0, 65, 60
1, 272138, Poly_aftertouch_c, 0, 60, 0
1, 272150, Control_c, 0, 64, 96
1, 272150, Control_c, 1, 64, 96
1, 272155, Note_off_c, 0, 77, 59
1, 272168, Note_off_c, 0, 62, 51
1, 272169, Control_c, 0, 64, 67
1, 272169, Control_c, 1, 64, 67
1, 272185, Note_on_c, 0, 76, 80
1, 272187, Control_c, 0, 64, 70
1, 272187, Control_c, 1, 64, 70
1, 272193, Note_on_c, 0, 79, 83
1, 272194, Note_on_c, 0, 64, 87
1, 272195, Note_on_c, 0, 67, 85
1, 272206, Control_c, 0, 64, 107
1, 272206, Control_c, 1, 64, 107
1, 272225, Control_c, 1, 64, 127
1, 272225, Control_c, 0, 64, 127
1, 272236, Note_off_c, 0, 76, 65
1, 272245, Note_off_c, 0, 79, 65
1, 272251, Note_off_c, 0, 67, 62
1, 272288, Note_off_c, 0, 64, 46
1, 272288, Poly_aftertouch_c, 0, 64, 0
1, 272311, Note_on_c, 0, 62, 81
1, 272334, Note_on_c, 0, 77, 98
1, 272340, Note_on_c, 0, 89, 96
1, 272366, Note_on_c, 0, 87, 56
1, 272373, Note_on_c, 0, 88, 51
1, 272374, Note_off_c, 0, 88, 127
1, 272386, Note_off_c, 0, 77, 64
1, 272393, Note_off_c, 0, 87, 63
1, 272398, Note_off_c, 0, 89, 64
1, 272425, Note_on_c, 0, 60, 73
1, 272452, Note_off_c, 0, 62, 59
1, 272458, Note_on_c, 0, 72, 75
1, 272477, Note_on_c, 0, 76, 99
1, 272477, Note_on_c, 0, 88, 94
1, 272486, Note_off_c, 0, 72, 69
1, 272515, Note_off_c, 0, 60, 61
1, 272524, Note_off_c, 0, 76, 65
1, 272533, Note_off_c, 0, 88, 66
1, 272543, Note_on_c, 0, 86, 8
1, 272544, Note_off_c, 0, 86, 127
1, 272600, Poly_aftertouch_c, 0, 85, 0
1, 272601, Control_c, 0, 64, 82
1, 272601, Control_c, 1, 64, 82
1, 272618, Control_c, 1, 64, 35
1, 272618, Control_c, 0, 64, 35
1, 272642, Note_on_c, 0, 91, 101
1, 272643, Note_on_c, 0, 79, 106
1, 272655, Note_on_c, 0, 40, 91
1, 272655, Control_c, 0, 64, 11
1, 272655, Control_c, 1, 64, 11
1, 272659, Note_on_c, 0, 28, 89
1, 272662, Note_on_c, 0, 38, 82
1, 272675, Control_c, 0, 64, 45
1, 272675, Control_c, 1, 64, 45
1, 272687, Note_off_c, 0, 79, 66
1, 272688, Note_off_c, 0, 91, 65
1, 272690, Note_off_c, 0, 28, 65
1, 272691, Note_off_c, 0, 40, 68
1, 272692, Control_c, 0, 64, 127
1, 272692, Control_c, 1, 64, 127
1, 272698, Note_off_c, 0, 38, 64
1, 272726, Poly_aftertouch_c, 0, 26, 0
1, 272753, Poly_aftertouch_c, 0, 34, 0
1, 272768, Poly_aftertouch_c, 0, 39, 127
1, 272773, Poly_aftertouch_c, 0, 29, 127
1, 272779, Poly_aftertouch_c, 0, 90, 0
1, 272781, Poly_aftertouch_c, 0, 39, 0
1, 272790, Poly_aftertouch_c, 0, 26, 127
1, 272802, Poly_aftertouch_c, 0, 29, 0
1, 272807, Poly_aftertouch_c, 0, 26, 0
1, 272842, Note_on_c, 0, 70, 90
1, 272846, Note_on_c, 0, 74, 87
1, 272853, Poly_aftertouch_c, 0, 28, 0
1, 272890, Note_off_c, 0, 70, 61
1, 272890, Note_on_c, 0, 58, 71
1, 272901, Note_off_c, 0, 74, 61
1, 272920, Note_on_c, 0, 62, 41
1, 272960, Note_off_c, 0, 62, 51
1, 272971, Note_on_c, 0, 76, 75
1, 272972, Note_on_c, 0, 72, 87
1, 272993, Control_c, 0, 64, 69
1, 272993, Control_c, 1, 64, 69
1, 272999, Note_off_c, 0, 58, 62
1, 273002, Note_on_c, 0, 60, 71
1, 273005, Note_on_c, 0, 64, 76
1, 273012, Control_c, 0, 64, 44
1, 273012, Control_c, 1, 64, 44
1, 273019, Note_on_c, 0, 74, 23
1, 273031, Control_c, 0, 64, 55
1, 273031, Control_c, 1, 64, 55
1, 273034, Note_off_c, 0, 72, 62
1, 273048, Control_c, 0, 64, 83
1, 273048, Control_c, 1, 64, 83
1, 273064, Poly_aftertouch_c, 0, 61, 0
1, 273068, Control_c, 0, 64, 127
1, 273068, Control_c, 1, 64, 127
1, 273094, Note_off_c, 0, 60, 50
1, 273105, Note_on_c, 0, 62, 80
1, 273106, Note_on_c, 0, 65, 82
1, 273106, Note_on_c, 0, 77, 83
1, 273115, Note_off_c, 0, 76, 62
1, 273126, Note_off_c, 0, 64, 61
1, 273126, Poly_aftertouch_c, 0, 64, 0
1, 273128, Note_off_c, 0, 74, 63
1, 273136, Note_off_c, 0, 77, 64
1, 273166, Note_off_c, 0, 65, 62
1, 273233, Note_on_c, 0, 60, 77
1, 273239, Note_on_c, 0, 88, 95
1, 273242, Note_on_c, 0, 76, 87
1, 273253, Note_on_c, 0, 77, 72
1, 273268, Note_off_c, 0, 62, 40
1, 273275, Note_off_c, 0, 77, 50
1, 273278, Note_on_c, 0, 58, 71
1, 273286, Note_off_c, 0, 76, 63
1, 273287, Note_off_c, 0, 88, 67
1, 273309, Note_off_c, 0, 60, 58
1, 273330, Note_on_c, 0, 70, 86
1, 273330, Poly_aftertouch_c, 0, 87, 0
1, 273361, Note_on_c, 0, 74, 95
1, 273364, Note_on_c, 0, 86, 91
1, 273377, Note_off_c, 0, 70, 62
1, 273391, Note_on_c, 0, 85, 62
1, 273407, Note_off_c, 0, 58, 64
1, 273411, Note_off_c, 0, 74, 65
1, 273418, Note_off_c, 0, 85, 65
1, 273426, Note_off_c, 0, 86, 65
1, 273465, Poly_aftertouch_c, 0, 80, 127
1, 273480, Control_c, 0, 64, 113
1, 273480, Control_c, 1, 64, 113
1, 273498, Control_c, 1, 64, 57
1, 273498, Control_c, 0, 64, 57
1, 273502, Poly_aftertouch_c, 0, 80, 0
1, 273518, Control_c, 0, 64, 11
1, 273518, Control_c, 1, 64, 11
1, 273529, Note_on_c, 0, 77, 106
1, 273529, Note_on_c, 0, 89, 99
1, 273534, Note_on_c, 0, 36, 93
1, 273545, Note_on_c, 0, 24, 89
1, 273549, Note_on_c, 0, 26, 79
1, 273555, Control_c, 0, 64, 45
1, 273555, Control_c, 1, 64, 45
1, 273571, Note_off_c, 0, 77, 64
1, 273573, Control_c, 0, 64, 118
1, 273573, Control_c, 1, 64, 118
1, 273578, Note_off_c, 0, 89, 66
1, 273581, Note_off_c, 0, 24, 63
1, 273582, Note_off_c, 0, 36, 62
1, 273584, Note_on_c, 0, 27, 33
1, 273584, Note_on_c, 0, 87, 25
1, 273585, Note_off_c, 0, 87, 127
1, 273586, Note_off_c, 0, 26, 63
1, 273592, Control_c, 0, 64, 127
1, 273592, Control_c, 1, 64, 127
1, 273642, Note_off_c, 0, 27, 47
1, 273661, Poly_aftertouch_c, 0, 37, 0
1, 273718, Note_on_c, 0, 72, 88
1, 273721, Note_on_c, 0, 69, 82
1, 273754, Note_off_c, 0, 69, 62
1, 273770, Note_off_c, 0, 72, 60
1, 273776, Note_on_c, 0, 60, 63
1, 273811, Note_on_c, 0, 57, 40
1, 273815, Note_on_c, 0, 62, 13
1, 273816, Note_off_c, 0, 60, 63
1, 273851, Note_on_c, 0, 74, 76
1, 273855, Note_on_c, 0, 71, 85
1, 273869, Note_off_c, 0, 62, 64
1, 273869, Note_on_c, 0, 62, 56
1, 273875, Note_off_c, 0, 57, 50
1, 273885, Note_on_c, 0, 59, 62
1, 273916, Note_off_c, 0, 71, 64
1, 273955, Note_off_c, 0, 62, 54
1, 273976, Note_on_c, 0, 72, 76
1, 273977, Note_on_c, 0, 64, 79
1, 273979, Note_on_c, 0, 61, 76
1, 273986, Note_on_c, 0, 76, 81
1, 273988, Note_off_c, 0, 74, 39
1, 274002, Note_on_c, 0, 60, 80
1, 274017, Note_off_c, 0, 61, 59
1, 274022, Note_off_c, 0, 72, 62
1, 274026, Note_off_c, 0, 76, 62
1, 274035, Note_off_c, 0, 64, 63
1, 274035, Poly_aftertouch_c, 0, 64, 0
1, 274046, Note_off_c, 0, 59, 31
1, 274071, Note_off_c, 0, 60, 59
1, 274079, Control_c, 0, 64, 86
1, 274079, Control_c, 1, 64, 86
1, 274098, Control_c, 1, 64, 69
1, 274098, Control_c, 0, 64, 69
1, 274116, Control_c, 0, 64, 82
1, 274116, Control_c, 1, 64, 82
1, 274126, Note_on_c, 0, 74, 94
1, 274128, Note_on_c, 0, 59, 69
1, 274131, Note_on_c, 0, 86, 97
1, 274135, Control_c, 0, 64, 127
1, 274135, Control_c, 1, 64, 127
1, 274160, Note_on_c, 0, 85, 57
1, 274164, Note_on_c, 0, 68, 54
1, 274177, Note_off_c, 0, 74, 65
1, 274192, Note_off_c, 0, 85, 61
1, 274192, Note_off_c, 0, 86, 64
1, 274197, Note_off_c, 0, 68, 59
1, 274226, Note_off_c, 0, 59, 56
1, 274259, Poly_aftertouch_c, 0, 70, 127
1, 274269, Note_on_c, 0, 69, 86
1, 274277, Note_on_c, 0, 57, 79
1, 274279, Note_on_c, 0, 72, 96
1, 274282, Note_on_c, 0, 84, 93
1, 274306, Poly_aftertouch_c, 0, 70, 0
1, 274314, Note_off_c, 0, 69, 60
1, 274314, Note_on_c, 0, 83, 56
1, 274335, Note_off_c, 0, 72, 64
1, 274346, Note_off_c, 0, 83, 42
1, 274346, Note_off_c, 0, 84, 64
1, 274350, Note_off_c, 0, 57, 62
1, 274353, Note_on_c, 0, 82, 10
1, 274397, Control_c, 0, 64, 95
1, 274397, Control_c, 1, 64, 95
1, 274416, Control_c, 1, 64, 51
1, 274416, Control_c, 0, 64, 51
1, 274431, Note_off_c, 0, 82, 47
1, 274433, Control_c, 0, 64, 27
1, 274433, Control_c, 1, 64, 27
1, 274445, Note_on_c, 0, 74, 97
1, 274447, Note_on_c, 0, 86, 97
1, 274452, Control_c, 0, 64, 40
1, 274452, Control_c, 1, 64, 40
1, 274464, Note_on_c, 0, 48, 92
1, 274466, Note_on_c, 0, 36, 86
1, 274471, Control_c, 0, 64, 73
1, 274471, Control_c, 1, 64, 73
1, 274490, Control_c, 1, 64, 127
1, 274490, Control_c, 0, 64, 127
1, 274499, Note_off_c, 0, 36, 66
1, 274505, Note_off_c, 0, 74, 65
1, 274506, Note_off_c, 0, 86, 66
1, 274514, Note_off_c, 0, 48, 66
1, 274539, Note_on_c, 0, 84, 12
1, 274544, Note_on_c, 0, 47, 14
1, 274561, Note_off_c, 0, 47, 48
1, 274573, Note_off_c, 0, 84, 38
1, 274586, Poly_aftertouch_c, 0, 35, 0
1, 274587, Poly_aftertouch_c, 0, 37, 127
1, 274611, Poly_aftertouch_c, 0, 37, 0
1, 274631, Note_on_c, 0, 69, 89
1, 274638, Note_on_c, 0, 65, 83
1, 274650, Note_on_c, 0, 57, 77
1, 274668, Note_on_c, 0, 55, 66
1, 274672, Note_on_c, 0, 53, 61
1, 274688, Note_off_c, 0, 69, 61
1, 274688, Note_off_c, 0, 65, 54
1, 274693, Note_off_c, 0, 57, 64
1, 274699, Poly_aftertouch_c, 0, 36, 0
1, 274715, Note_off_c, 0, 55, 62
1, 274715, Note_off_c, 0, 53, 61
1, 274755, Poly_aftertouch_c, 0, 56, 0
1, 274770, Note_on_c, 0, 74, 84
1, 274776, Note_on_c, 0, 62, 81
1, 274828, Note_off_c, 0, 62, 61
1, 274836, Note_off_c, 0, 74, 63
1, 274884, Control_c, 0, 64, 59
1, 274884, Control_c, 1, 64, 59
1, 274903, Control_c, 1, 64, 0
1, 274903, Control_c, 0, 64, 0
1, 274924, Note_on_c, 0, 77, 95
1, 274926, Note_on_c, 0, 65, 97
1, 274930, Note_on_c, 0, 74, 86
1, 274939, Control_c, 0, 64, 21
1, 274939, Control_c, 1, 64, 21
1, 274940, Note_on_c, 0, 52, 96
1, 274944, Note_on_c, 0, 40, 89
1, 274958, Control_c, 0, 64, 70
1, 274958, Control_c, 1, 64, 70
1, 274979, Control_c, 1, 64, 127
1, 274979, Control_c, 0, 64, 127
1, 274981, Note_off_c, 0, 65, 64
1, 274984, Note_off_c, 0, 40, 68
1, 274989, Note_off_c, 0, 52, 63
1, 274990, Note_off_c, 0, 74, 61
1, 275002, Note_on_c, 0, 42, 20
1, 275010, Note_off_c, 0, 77, 62
1, 275036, Note_off_c, 0, 42, 46
1, 275140, Note_on_c, 0, 84, 98
1, 275147, Note_on_c, 0, 72, 99
1, 275153, Note_on_c, 0, 76, 87
1, 275154, Note_on_c, 0, 64, 90
1, 275162, Note_on_c, 0, 52, 81
1, 275177, Note_off_c, 0, 76, 71
1, 275187, Note_on_c, 0, 82, 37
1, 275200, Note_off_c, 0, 72, 63
1, 275226, Note_off_c, 0, 84, 62
1, 275230, Note_off_c, 0, 82, 57
1, 275236, Poly_aftertouch_c, 0, 53, 0
1, 275320, Note_off_c, 0, 64, 59
1, 275320, Poly_aftertouch_c, 0, 64, 0
1, 275323, Note_on_c, 0, 62, 83
1, 275326, Note_on_c, 0, 83, 98
1, 275331, Note_on_c, 0, 71, 97
1, 275333, Note_on_c, 0, 56, 73
1, 275333, Note_on_c, 0, 74, 91
1, 275334, Note_off_c, 0, 74, 127
1, 275365, Note_on_c, 0, 80, 54
1, 275371, Note_off_c, 0, 62, 58
1, 275387, Poly_aftertouch_c, 0, 74, 127
1, 275394, Note_off_c, 0, 80, 62
1, 275396, Note_off_c, 0, 56, 65
1, 275405, Note_off_c, 0, 52, 61
1, 275436, Note_off_c, 0, 71, 58
1, 275450, Note_off_c, 0, 83, 62
1, 275450, Poly_aftertouch_c, 0, 74, 0
1, 275502, Control_c, 0, 64, 62
1, 275502, Control_c, 1, 64, 62
1, 275519, Control_c, 1, 64, 0
1, 275519, Control_c, 0, 64, 0
1, 275540, Note_on_c, 0, 45, 103
1, 275545, Note_on_c, 0, 71, 102
1, 275548, Note_on_c, 0, 74, 93
1, 275548, Note_on_c, 0, 33, 100
1, 275551, Note_on_c, 0, 83, 93
1, 275552, Note_on_c, 0, 84, 90
1, 275576, Control_c, 0, 64, 63
1, 275576, Control_c, 1, 64, 63
1, 275581, Note_off_c, 0, 33, 64
1, 275588, Note_off_c, 0, 45, 65
1, 275593, Control_c, 0, 64, 127
1, 275593, Control_c, 1, 64, 127
1, 275616, Note_off_c, 0, 84, 59
1, 275621, Note_on_c, 0, 34, 22
1, 275622, Note_off_c, 0, 34, 127
1, 275662, Note_off_c, 0, 83, 64
1, 275666, Note_off_c, 0, 71, 61
1, 275749, Note_off_c, 0, 74, 19
1, 275813, Note_on_c, 0, 72, 85
1, 275814, Note_on_c, 0, 69, 84
1, 275818, Note_on_c, 0, 60, 86
1, 275835, Note_on_c, 0, 57, 56
1, 275843, Note_on_c, 0, 71, 55
1, 275875, Note_off_c, 0, 69, 60
1, 275879, Note_off_c, 0, 71, 41
1, 275883, Note_off_c, 0, 60, 61
1, 275892, Note_off_c, 0, 57, 62
1, 275893, Note_off_c, 0, 72, 63
1, 275985, Note_on_c, 0, 74, 80
1, 275987, Note_on_c, 0, 71, 80
1, 275988, Note_on_c, 0, 59, 87
1, 275992, Note_on_c, 0, 62, 84
1, 276051, Note_off_c, 0, 62, 63
1, 276053, Note_off_c, 0, 71, 62
1, 276064, Note_off_c, 0, 59, 59
1, 276079, Note_off_c, 0, 74, 62
1, 276160, Note_on_c, 0, 72, 89
1, 276162, Note_on_c, 0, 76, 89
1, 276167, Note_on_c, 0, 60, 89
1, 276170, Note_on_c, 0, 64, 85
1, 276227, Note_off_c, 0, 72, 62
1, 276243, Note_off_c, 0, 76, 64
1, 276246, Note_off_c, 0, 60, 58
1, 276255, Note_off_c, 0, 64, 58
1, 276255, Poly_aftertouch_c, 0, 64, 0
1, 276370, Note_on_c, 0, 80, 96
1, 276374, Note_on_c, 0, 68, 96
1, 276382, Note_on_c, 0, 59, 87
1, 276383, Note_on_c, 0, 62, 88
1, 276397, Note_on_c, 0, 78, 67
1, 276419, Note_off_c, 0, 78, 67
1, 276479, Note_off_c, 0, 62, 53
1, 276484, Note_off_c, 0, 68, 60
1, 276488, Note_off_c, 0, 59, 59
1, 276508, Note_off_c, 0, 80, 62
1, 276616, Note_on_c, 0, 60, 90
1, 276617, Note_on_c, 0, 57, 84
1, 276624, Control_c, 0, 64, 76
1, 276624, Control_c, 1, 64, 76
1, 276631, Note_on_c, 0, 81, 96
1, 276635, Note_on_c, 0, 69, 95
1, 276642, Control_c, 0, 64, 25
1, 276642, Control_c, 1, 64, 25
1, 276662, Control_c, 1, 64, 0
1, 276662, Control_c, 0, 64, 0
1, 276699, Control_c, 0, 64, 32
1, 276699, Control_c, 1, 64, 32
1, 276719, Control_c, 1, 64, 83
1, 276719, Control_c, 0, 64, 83
1, 276725, Note_off_c, 0, 60, 61
1, 276734, Note_off_c, 0, 57, 67
1, 276736, Control_c, 0, 64, 127
1, 276736, Control_c, 1, 64, 127
1, 277135, Note_on_c, 0, 41, 98
1, 277137, Note_on_c, 0, 29, 97
1, 277165, Note_off_c, 0, 81, 61
1, 277192, Note_off_c, 0, 69, 57
1, 277193, Note_on_c, 0, 32, 34
1, 277205, Control_c, 0, 64, 79
1, 277205, Control_c, 1, 64, 79
1, 277223, Control_c, 1, 64, 35
1, 277223, Control_c, 0, 64, 35
1, 277234, Note_off_c, 0, 32, 47
1, 277241, Control_c, 0, 64, 0
1, 277241, Control_c, 1, 64, 0
1, 277317, Control_c, 1, 64, 38
1, 277317, Control_c, 0, 64, 38
1, 277335, Control_c, 0, 64, 127
1, 277335, Control_c, 1, 64, 127
1, 277336, Poly_aftertouch_c, 0, 37, 0
1, 277632, Note_off_c, 0, 29, 49
1, 277667, Note_off_c, 0, 41, 45
1, 277802, Note_on_c, 0, 41, 60
1, 277824, Note_on_c, 0, 29, 45
1, 277944, Note_on_c, 0, 56, 88
1, 277979, Note_on_c, 0, 44, 60
1, 277999, Note_off_c, 0, 29, 56
1, 278021, Note_off_c, 0, 41, 36
1, 278028, Note_off_c, 0, 44, 42
1, 278146, Poly_aftertouch_c, 0, 44, 0
1, 278161, Note_on_c, 0, 29, 31
1, 278204, Note_off_c, 0, 29, 51
1, 278225, Poly_aftertouch_c, 0, 41, 127
1, 278265, Poly_aftertouch_c, 0, 41, 0
1, 278383, Control_c, 0, 64, 92
1, 278383, Control_c, 1, 64, 92
1, 278395, Note_on_c, 0, 57, 82
1, 278403, Control_c, 0, 64, 59
1, 278403, Control_c, 1, 64, 59
1, 278423, Control_c, 1, 64, 46
1, 278423, Control_c, 0, 64, 46
1, 278428, Note_on_c, 0, 45, 53
1, 278430, Note_on_c, 0, 41, 38
1, 278438, Note_on_c, 0, 29, 47
1, 278441, Control_c, 0, 64, 51
1, 278441, Control_c, 1, 64, 51
1, 278448, Note_off_c, 0, 56, 61
1, 278458, Control_c, 0, 64, 62
1, 278458, Control_c, 1, 64, 62
1, 278478, Control_c, 1, 64, 74
1, 278478, Control_c, 0, 64, 74
1, 278487, Note_off_c, 0, 41, 42
1, 278496, Control_c, 0, 64, 103
1, 278496, Control_c, 1, 64, 103
1, 278507, Note_off_c, 0, 29, 59
1, 278514, Control_c, 0, 64, 127
1, 278514, Control_c, 1, 64, 127
1, 278580, Note_off_c, 0, 45, 37
1, 278635, Note_on_c, 0, 41, 41
1, 278655, Note_on_c, 0, 29, 37
1, 278678, Note_off_c, 0, 41, 51
1, 278698, Note_off_c, 0, 29, 51
1, 278730, Note_on_c, 0, 59, 76
1, 278757, Note_on_c, 0, 56, 53
1, 278761, Note_on_c, 0, 58, 20
1, 278819, Poly_aftertouch_c, 0, 47, 127
1, 278823, Note_off_c, 0, 57, 61
1, 278828, Note_off_c, 0, 58, 28
1, 278867, Poly_aftertouch_c, 0, 47, 0
1, 278876, Note_on_c, 0, 29, 45
1, 278924, Note_off_c, 0, 29, 56
1, 278987, Poly_aftertouch_c, 0, 41, 0
1, 279057, Control_c, 0, 64, 89
1, 279057, Control_c, 1, 64, 89
1, 279063, Note_on_c, 0, 60, 72
1, 279067, Note_on_c, 0, 57, 49
1, 279077, Control_c, 0, 64, 61
1, 279077, Control_c, 1, 64, 61
1, 279094, Control_c, 1, 64, 48
1, 279094, Control_c, 0, 64, 48
1, 279096, Note_on_c, 0, 29, 36
1, 279102, Note_on_c, 0, 48, 24
1, 279113, Control_c, 0, 64, 51
1, 279113, Control_c, 1, 64, 51
1, 279118, Note_off_c, 0, 59, 57
1, 279133, Control_c, 0, 64, 60
1, 279133, Control_c, 1, 64, 60
1, 279144, Note_off_c, 0, 56, 41
1, 279151, Control_c, 0, 64, 72
1, 279151, Control_c, 1, 64, 72
1, 279154, Note_off_c, 0, 57, 57
1, 279166, Note_off_c, 0, 29, 54
1, 279169, Control_c, 0, 64, 96
1, 279169, Control_c, 1, 64, 96
1, 279171, Note_off_c, 0, 48, 49
1, 279188, Control_c, 0, 64, 127
1, 279188, Control_c, 1, 64, 127
1, 279197, Poly_aftertouch_c, 0, 41, 0
1, 279285, Note_on_c, 0, 41, 31
1, 279315, Note_on_c, 0, 29, 25
1, 279335, Note_off_c, 0, 41, 48
1, 279336, Note_on_c, 0, 61, 79
1, 279355, Note_on_c, 0, 49, 62
1, 279368, Note_on_c, 0, 58, 60
1, 279369, Note_off_c, 0, 29, 44
1, 279374, Control_c, 0, 67, 8
1, 279374, Control_c, 1, 67, 8
1, 279413, Control_c, 1, 67, 13
1, 279413, Control_c, 0, 67, 13
1, 279441, Note_off_c, 0, 60, 48
1, 279469, Control_c, 0, 67, 19
1, 279469, Control_c, 1, 67, 19
1, 279506, Control_c, 1, 67, 24
1, 279506, Note_on_c, 0, 29, 36
1, 279506, Control_c, 0, 67, 24
1, 279508, Note_on_c, 0, 41, 15
1, 279550, Note_off_c, 0, 29, 50
1, 279556, Note_off_c, 0, 49, 47
1, 279572, Note_off_c, 0, 41, 37
1, 279630, Note_on_c, 0, 59, 58
1, 279637, Note_on_c, 0, 62, 77
1, 279637, Control_c, 0, 64, 89
1, 279637, Control_c, 1, 64, 89
1, 279655, Control_c, 1, 64, 65
1, 279655, Note_on_c, 0, 50, 42
1, 279655, Control_c, 0, 64, 65
1, 279659, Note_on_c, 0, 29, 53
1, 279662, Note_off_c, 0, 61, 60
1, 279675, Control_c, 0, 64, 62
1, 279675, Control_c, 1, 64, 62
1, 279693, Note_off_c, 0, 59, 51
1, 279694, Control_c, 0, 64, 67
1, 279694, Control_c, 1, 64, 67
1, 279702, Note_off_c, 0, 58, 43
1, 279710, Note_off_c, 0, 29, 60
1, 279713, Control_c, 0, 64, 74
1, 279713, Control_c, 1, 64, 74
1, 279733, Control_c, 1, 64, 89
1, 279733, Control_c, 0, 64, 89
1, 279736, Control_c, 0, 67, 28
1, 279736, Control_c, 1, 67, 28
1, 279742, Note_off_c, 0, 50, 61
1, 279749, Control_c, 0, 64, 127
1, 279749, Control_c, 1, 64, 127
1, 279751, Poly_aftertouch_c, 0, 41, 0
1, 279832, Note_on_c, 0, 29, 51
1, 279878, Note_off_c, 0, 29, 58
1, 279907, Note_on_c, 0, 63, 78
1, 279930, Note_on_c, 0, 51, 58
1, 279933, Note_on_c, 0, 57, 54
1, 279943, Poly_aftertouch_c, 0, 41, 0
1, 279985, Note_off_c, 0, 62, 53
1, 280003, Note_on_c, 0, 29, 54
1, 280062, Note_off_c, 0, 29, 55
1, 280068, Note_off_c, 0, 57, 60
1, 280074, Note_off_c, 0, 51, 51
1, 280076, Poly_aftertouch_c, 0, 41, 127
1, 280103, Poly_aftertouch_c, 0, 41, 0
1, 280293, Control_c, 0, 64, 83
1, 280293, Control_c, 1, 64, 83
1, 280304, Note_on_c, 0, 64, 70
1, 280311, Control_c, 0, 64, 51
1, 280311, Control_c, 1, 64, 51
1, 280317, Note_on_c, 0, 28, 42
1, 280323, Note_on_c, 0, 52, 47
1, 280329, Control_c, 0, 64, 23
1, 280329, Control_c, 1, 64, 23
1, 280333, Note_on_c, 0, 40, 23
1, 280336, Note_on_c, 0, 56, 53
1, 280349, Control_c, 0, 64, 14
1, 280349, Control_c, 1, 64, 14
1, 280355, Note_off_c, 0, 63, 64
1, 280355, Poly_aftertouch_c, 0, 63, 0
1, 280386, Control_c, 0, 64, 30
1, 280386, Control_c, 1, 64, 30
1, 280395, Note_off_c, 0, 40, 59
1, 280402, Note_off_c, 0, 28, 61
1, 280404, Control_c, 0, 64, 56
1, 280404, Control_c, 1, 64, 56
1, 280425, Control_c, 1, 64, 95
1, 280425, Control_c, 0, 64, 95
1, 280443, Control_c, 0, 64, 127
1, 280443, Control_c, 1, 64, 127
1, 280468, Note_off_c, 0, 56, 59
1, 280468, Note_off_c, 0, 52, 54
1, 280537, Note_on_c, 0, 40, 49
1, 280541, Note_on_c, 0, 28, 52
1, 280575, Note_off_c, 0, 40, 54
1, 280580, Note_off_c, 0, 28, 54
1, 280617, Note_on_c, 0, 66, 83
1, 280641, Note_on_c, 0, 54, 54
1, 280649, Note_on_c, 0, 63, 61
1, 280710, Note_off_c, 0, 64, 47
1, 280710, Poly_aftertouch_c, 0, 64, 0
1, 280739, Note_on_c, 0, 40, 47
1, 280752, Note_on_c, 0, 28, 43
1, 280786, Note_off_c, 0, 40, 52
1, 280809, Note_off_c, 0, 28, 55
1, 280885, Note_on_c, 0, 64, 64
1, 280894, Note_on_c, 0, 67, 85
1, 280904, Note_on_c, 0, 55, 60
1, 280908, Note_off_c, 0, 54, 35
1, 280911, Control_c, 0, 64, 92
1, 280911, Control_c, 1, 64, 92
1, 280926, Note_on_c, 0, 40, 54
1, 280927, Note_on_c, 0, 28, 60
1, 280929, Control_c, 0, 64, 68
1, 280929, Control_c, 1, 64, 68
1, 280949, Control_c, 1, 64, 66
1, 280949, Control_c, 0, 64, 66
1, 280959, Note_off_c, 0, 63, 36
1, 280959, Poly_aftertouch_c, 0, 63, 0
1, 280966, Control_c, 0, 64, 77
1, 280966, Control_c, 1, 64, 77
1, 280968, Note_off_c, 0, 28, 63
1, 280969, Note_off_c, 0, 40, 60
1, 280970, Note_off_c, 0, 64, 59
1, 280970, Poly_aftertouch_c, 0, 64, 0
1, 280986, Control_c, 0, 64, 107
1, 280986, Control_c, 1, 64, 107
1, 280993, Note_off_c, 0, 66, 58
1, 280997, Note_off_c, 0, 55, 61
1, 281005, Control_c, 0, 64, 127
1, 281005, Control_c, 1, 64, 127
1, 281086, Note_on_c, 0, 40, 63
1, 281090, Note_on_c, 0, 28, 58
1, 281123, Note_on_c, 0, 68, 84
1, 281132, Note_off_c, 0, 28, 56
1, 281139, Note_off_c, 0, 40, 55
1, 281139, Note_on_c, 0, 56, 71
1, 281171, Note_on_c, 0, 64, 47
1, 281175, Note_on_c, 0, 65, 55
1, 281224, Note_off_c, 0, 67, 59
1, 281253, Note_on_c, 0, 28, 61
1, 281275, Note_off_c, 0, 65, 58
1, 281275, Note_off_c, 0, 64, 60
1, 281275, Note_on_c, 0, 40, 55
1, 281275, Poly_aftertouch_c, 0, 64, 0
1, 281279, Note_off_c, 0, 56, 51
1, 281295, Note_off_c, 0, 28, 62
1, 281308, Note_off_c, 0, 40, 55
1, 281433, Note_on_c, 0, 66, 70
1, 281443, Note_on_c, 0, 69, 82
1, 281454, Control_c, 0, 64, 86
1, 281454, Control_c, 1, 64, 86
1, 281465, Note_on_c, 0, 57, 61
1, 281467, Note_on_c, 0, 63, 47
1, 281474, Control_c, 0, 64, 50
1, 281474, Control_c, 1, 64, 50
1, 281481, Note_on_c, 0, 52, 64
1, 281492, Control_c, 0, 64, 23
1, 281492, Control_c, 1, 64, 23
1, 281495, Note_on_c, 0, 40, 47
1, 281515, Note_off_c, 0, 68, 61
1, 281521, Note_on_c, 0, 41, 22
1, 281527, Control_c, 0, 64, 27
1, 281527, Control_c, 1, 64, 27
1, 281528, Note_off_c, 0, 52, 58
1, 281548, Control_c, 0, 64, 47
1, 281548, Control_c, 1, 64, 47
1, 281552, Note_off_c, 0, 40, 59
1, 281568, Control_c, 0, 64, 85
1, 281568, Control_c, 1, 64, 85
1, 281580, Note_off_c, 0, 41, 41
1, 281585, Control_c, 0, 64, 127
1, 281585, Control_c, 1, 64, 127
1, 281605, Note_off_c, 0, 57, 39
1, 281673, Note_off_c, 0, 63, 34
1, 281673, Poly_aftertouch_c, 0, 63, 0
1, 281674, Poly_aftertouch_c, 0, 63, 0
1, 281679, Note_off_c, 0, 69, 58
1, 281687, Note_on_c, 0, 40, 59
1, 281689, Note_on_c, 0, 52, 58
1, 281755, Note_off_c, 0, 52, 49
1, 281821, Note_on_c, 0, 72, 80
1, 281840, Note_on_c, 0, 63, 49
1, 281846, Control_c, 0, 64, 68
1, 281846, Control_c, 1, 64, 68
1, 281847, Note_on_c, 0, 60, 65
1, 281865, Control_c, 0, 64, 35
1, 281865, Control_c, 1, 64, 35
1, 281884, Control_c, 1, 64, 25
1, 281884, Control_c, 0, 64, 25
1, 281903, Control_c, 0, 64, 30
1, 281903, Control_c, 1, 64, 30
1, 281921, Control_c, 1, 64, 48
1, 281921, Control_c, 0, 64, 48
1, 281930, Note_off_c, 0, 40, 36
1, 281940, Control_c, 0, 64, 80
1, 281940, Control_c, 1, 64, 80
1, 281959, Control_c, 1, 64, 127
1, 281959, Control_c, 0, 64, 127
1, 281977, Control_c, 0, 67, 32
1, 281977, Control_c, 1, 67, 32
1, 282057, Note_on_c, 0, 52, 33
1, 282068, Note_on_c, 0, 40, 33
1, 282115, Note_off_c, 0, 52, 44
1, 282120, Note_off_c, 0, 40, 49
1, 282269, Note_on_c, 0, 40, 38
1, 282279, Note_on_c, 0, 52, 25
1, 282312, Note_off_c, 0, 63, 58
1, 282314, Control_c, 0, 67, 38
1, 282314, Control_c, 1, 67, 38
1, 282329, Note_off_c, 0, 40, 48
1, 282340, Note_off_c, 0, 52, 45
1, 282341, Note_off_c, 0, 60, 54
1, 282345, Note_off_c, 0, 66, 53
1, 282351, Control_c, 0, 67, 43
1, 282351, Control_c, 1, 67, 43
1, 282372, Control_c, 1, 67, 47
1, 282372, Control_c, 0, 67, 47
1, 282375, Note_off_c, 0, 72, 48
1, 282389, Control_c, 0, 67, 52
1, 282389, Control_c, 1, 67, 52
1, 282407, Control_c, 1, 67, 56
1, 282407, Control_c, 0, 67, 56
1, 282446, Control_c, 0, 67, 62
1, 282446, Control_c, 1, 67, 62
1, 282489, Note_on_c, 0, 40, 47
1, 282513, Note_on_c, 0, 52, 17
1, 282590, Note_off_c, 0, 52, 41
1, 282594, Control_c, 0, 64, 95
1, 282594, Control_c, 1, 64, 95
1, 282614, Control_c, 1, 64, 69
1, 282614, Control_c, 0, 64, 69
1, 282618, Note_off_c, 0, 40, 52
1, 282623, Note_on_c, 0, 71, 59
1, 282633, Control_c, 0, 64, 64
1, 282633, Control_c, 1, 64, 64
1, 282640, Note_on_c, 0, 59, 38
1, 282646, Note_on_c, 0, 68, 39
1, 282651, Control_c, 0, 64, 69
1, 282651, Control_c, 1, 64, 69
1, 282670, Control_c, 1, 64, 76
1, 282670, Control_c, 0, 64, 76
1, 282689, Control_c, 0, 64, 92
1, 282689, Control_c, 1, 64, 92
1, 282706, Control_c, 1, 64, 127
1, 282706, Control_c, 0, 64, 127
1, 282757, Poly_aftertouch_c, 0, 64, 127
1, 282778, Note_on_c, 0, 40, 45
1, 282823, Note_off_c, 0, 40, 50
1, 282880, Poly_aftertouch_c, 0, 52, 0
1, 283045, Control_c, 0, 64, 96
1, 283045, Control_c, 1, 64, 96
1, 283064, Control_c, 1, 64, 61
1, 283064, Control_c, 0, 64, 61
1, 283082, Note_on_c, 0, 41, 53
1, 283082, Control_c, 0, 64, 29
1, 283082, Control_c, 1, 64, 29
1, 283092, Note_on_c, 0, 53, 51
1, 283113, Poly_aftertouch_c, 0, 59, 24
1, 283118, Control_c, 0, 64, 0
1, 283118, Control_c, 1, 64, 0
1, 283131, Note_off_c, 0, 59, 52
1, 283131, Poly_aftertouch_c, 0, 59, 0
1, 283157, Control_c, 0, 64, 11
1, 283157, Control_c, 1, 64, 11
1, 283170, Poly_aftertouch_c, 0, 64, 0
1, 283175, Control_c, 0, 64, 33
1, 283175, Control_c, 1, 64, 33
1, 283188, Note_off_c, 0, 68, 42
1, 283194, Control_c, 0, 64, 67
1, 283194, Control_c, 1, 64, 67
1, 283213, Control_c, 1, 64, 127
1, 283213, Control_c, 0, 64, 127
1, 283222, Note_off_c, 0, 53, 55
1, 283231, Note_off_c, 0, 71, 55
1, 283250, Note_off_c, 0, 41, 56
1, 283464, Note_on_c, 0, 41, 21
1, 283534, Note_off_c, 0, 41, 47
1, 283555, Note_on_c, 0, 68, 56
1, 283557, Poly_aftertouch_c, 0, 53, 0
1, 283586, Note_on_c, 0, 56, 30
1, 283681, Control_c, 0, 67, 70
1, 283681, Control_c, 1, 67, 70
1, 283700, Control_c, 1, 67, 75
1, 283700, Control_c, 0, 67, 75
1, 283712, Note_on_c, 0, 41, 27
1, 283718, Control_c, 0, 67, 79
1, 283718, Control_c, 1, 67, 79
1, 283756, Control_c, 1, 67, 85
1, 283756, Control_c, 0, 67, 85
1, 283776, Note_off_c, 0, 56, 38
1, 283779, Note_off_c, 0, 41, 47
1, 283830, Poly_aftertouch_c, 0, 53, 0
1, 283932, Note_on_c, 0, 41, 39
1, 283940, Note_on_c, 0, 69, 65
1, 283942, Control_c, 0, 64, 82
1, 283942, Control_c, 1, 64, 82
1, 283961, Control_c, 1, 64, 66
1, 283961, Control_c, 0, 64, 66
1, 283981, Control_c, 0, 64, 68
1, 283981, Control_c, 1, 64, 68
1, 283986, Poly_aftertouch_c, 0, 63, 0
1, 283999, Control_c, 0, 64, 75
1, 283999, Control_c, 1, 64, 75
1, 284005, Note_off_c, 0, 41, 54
1, 284013, Poly_aftertouch_c, 0, 57, 127
1, 284014, Note_off_c, 0, 68, 51
1, 284017, Control_c, 0, 64, 88
1, 284017, Control_c, 1, 64, 88
1, 284020, Control_c, 1, 67, 90
1, 284020, Control_c, 0, 67, 90
1, 284038, Poly_aftertouch_c, 0, 53, 0
1, 284038, Control_c, 0, 64, 127
1, 284038, Control_c, 1, 64, 127
1, 284054, Control_c, 1, 67, 94
1, 284054, Control_c, 0, 67, 94
1, 284076, Poly_aftertouch_c, 0, 57, 0
1, 284135, Note_on_c, 0, 41, 45
1, 284139, Note_on_c, 0, 53, 28
1, 284172, Note_off_c, 0, 41, 57
1, 284189, Note_off_c, 0, 53, 42
1, 284225, Note_on_c, 0, 71, 74
1, 284250, Note_on_c, 0, 68, 53
1, 284258, Note_on_c, 0, 59, 35
1, 284319, Note_off_c, 0, 69, 60
1, 284344, Note_on_c, 0, 41, 50
1, 284349, Note_on_c, 0, 53, 46
1, 284375, Note_off_c, 0, 59, 28
1, 284375, Poly_aftertouch_c, 0, 59, 0
1, 284400, Note_off_c, 0, 41, 59
1, 284401, Note_off_c, 0, 53, 49
1, 284500, Note_on_c, 0, 69, 61
1, 284504, Control_c, 0, 64, 110
1, 284504, Control_c, 1, 64, 110
1, 284507, Note_on_c, 0, 72, 81
1, 284523, Control_c, 0, 64, 73
1, 284523, Control_c, 1, 64, 73
1, 284544, Control_c, 1, 64, 59
1, 284544, Note_on_c, 0, 53, 43
1, 284544, Control_c, 0, 64, 59
1, 284545, Note_on_c, 0, 60, 24
1, 284545, Note_on_c, 0, 41, 53
1, 284546, Note_off_c, 0, 68, 48
1, 284556, Note_off_c, 0, 71, 58
1, 284563, Control_c, 0, 64, 61
1, 284563, Control_c, 1, 64, 61
1, 284580, Control_c, 1, 64, 68
1, 284580, Control_c, 0, 64, 68
1, 284581, Note_off_c, 0, 53, 55
1, 284587, Note_off_c, 0, 69, 41
1, 284594, Note_off_c, 0, 41, 61
1, 284597, Control_c, 0, 64, 81
1, 284597, Control_c, 1, 64, 81
1, 284617, Control_c, 1, 64, 127
1, 284617, Control_c, 0, 64, 127
1, 284633, Note_off_c, 0, 60, 58
1, 284721, Note_on_c, 0, 53, 39
1, 284736, Note_on_c, 0, 41, 32
1, 284768, Note_off_c, 0, 53, 47
1, 284777, Note_on_c, 0, 73, 82
1, 284787, Note_off_c, 0, 41, 48
1, 284804, Note_on_c, 0, 61, 55
1, 284805, Note_on_c, 0, 70, 62
1, 284884, Note_off_c, 0, 72, 55
1, 284947, Note_on_c, 0, 41, 28
1, 284952, Note_on_c, 0, 53, 27
1, 284999, Note_off_c, 0, 61, 42
1, 284999, Note_off_c, 0, 53, 51
1, 285003, Note_off_c, 0, 41, 51
1, 285063, Note_on_c, 0, 74, 80
1, 285066, Control_c, 0, 64, 78
1, 285066, Control_c, 1, 64, 78
1, 285078, Note_on_c, 0, 71, 47
1, 285079, Note_on_c, 0, 62, 44
1, 285084, Control_c, 0, 64, 60
1, 285084, Control_c, 1, 64, 60
1, 285090, Note_off_c, 0, 73, 61
1, 285104, Control_c, 0, 64, 61
1, 285104, Control_c, 1, 64, 61
1, 285111, Note_on_c, 0, 53, 52
1, 285122, Note_on_c, 0, 41, 51
1, 285123, Control_c, 0, 64, 69
1, 285123, Control_c, 1, 64, 69
1, 285135, Note_off_c, 0, 71, 50
1, 285140, Control_c, 0, 64, 85
1, 285140, Control_c, 1, 64, 85
1, 285152, Note_off_c, 0, 70, 50
1, 285156, Note_off_c, 0, 53, 62
1, 285159, Note_off_c, 0, 41, 59
1, 285159, Control_c, 0, 64, 127
1, 285159, Control_c, 1, 64, 127
1, 285171, Note_off_c, 0, 62, 60
1, 285197, Control_c, 0, 67, 99
1, 285197, Control_c, 1, 67, 99
1, 285305, Note_on_c, 0, 41, 39
1, 285342, Note_on_c, 0, 75, 75
1, 285353, Note_off_c, 0, 41, 47
1, 285353, Note_on_c, 0, 69, 57
1, 285362, Note_on_c, 0, 63, 51
1, 285385, Control_c, 0, 67, 103
1, 285385, Control_c, 1, 67, 103
1, 285435, Note_off_c, 0, 74, 38
1, 285443, Note_off_c, 0, 69, 56
1, 285456, Note_on_c, 0, 41, 54
1, 285458, Note_off_c, 0, 63, 36
1, 285495, Poly_aftertouch_c, 0, 53, 127
1, 285502, Note_off_c, 0, 41, 61
1, 285524, Poly_aftertouch_c, 0, 53, 0
1, 285719, Note_on_c, 0, 76, 67
1, 285721, Control_c, 0, 64, 78
1, 285721, Control_c, 1, 64, 78
1, 285730, Note_on_c, 0, 67, 54
1, 285738, Control_c, 0, 64, 45
1, 285738, Control_c, 1, 64, 45
1, 285743, Note_on_c, 0, 64, 42
1, 285747, Note_on_c, 0, 36, 48
1, 285757, Control_c, 0, 64, 15
1, 285757, Control_c, 1, 64, 15
1, 285758, Control_c, 1, 67, 107
1, 285758, Control_c, 0, 67, 107
1, 285764, Note_on_c, 0, 48, 21
1, 285780, Note_off_c, 0, 75, 65
1, 285796, Control_c, 0, 64, 8
1, 285796, Control_c, 1, 64, 8
1, 285797, Control_c, 1, 67, 112
1, 285797, Control_c, 0, 67, 112
1, 285815, Control_c, 0, 64, 23
1, 285815, Control_c, 1, 64, 23
1, 285827, Note_off_c, 0, 48, 46
1, 285834, Control_c, 0, 64, 49
1, 285834, Control_c, 1, 64, 49
1, 285836, Note_off_c, 0, 36, 57
1, 285854, Control_c, 0, 64, 90
1, 285854, Control_c, 1, 64, 90
1, 285857, Control_c, 1, 67, 117
1, 285857, Control_c, 0, 67, 117
1, 285871, Control_c, 0, 64, 127
1, 285871, Control_c, 1, 64, 127
1, 285907, Note_off_c, 0, 67, 61
1, 285946, Note_off_c, 0, 64, 59
1, 285989, Note_on_c, 0, 48, 39
1, 285998, Note_on_c, 0, 36, 50
1, 286038, Note_off_c, 0, 48, 51
1, 286049, Note_off_c, 0, 36, 53
1, 286058, Control_c, 0, 67, 121
1, 286058, Control_c, 1, 67, 121
1, 286084, Note_on_c, 0, 78, 74
1, 286108, Note_on_c, 0, 75, 61
1, 286118, Note_on_c, 0, 66, 44
1, 286156, Note_off_c, 0, 76, 51
1, 286208, Control_c, 0, 67, 125
1, 286208, Control_c, 1, 67, 125
1, 286255, Note_on_c, 0, 36, 49
1, 286264, Note_on_c, 0, 48, 42
1, 286307, Note_off_c, 0, 48, 52
1, 286315, Note_off_c, 0, 36, 57
1, 286380, Poly_aftertouch_c, 0, 66, 20
1, 286389, Note_off_c, 0, 66, 40
1, 286389, Poly_aftertouch_c, 0, 66, 0
1, 286393, Note_on_c, 0, 76, 47
1, 286402, Note_on_c, 0, 79, 78
1, 286414, Control_c, 0, 64, 93
1, 286414, Control_c, 1, 64, 93
1, 286433, Control_c, 1, 64, 67
1, 286433, Control_c, 0, 64, 67
1, 286434, Note_off_c, 0, 75, 61
1, 286440, Note_off_c, 0, 76, 53
1, 286445, Note_on_c, 0, 67, 43
1, 286452, Note_on_c, 0, 36, 50
1, 286452, Control_c, 0, 64, 62
1, 286452, Control_c, 1, 64, 62
1, 286453, Note_on_c, 0, 48, 36
1, 286470, Control_c, 0, 64, 68
1, 286470, Control_c, 1, 64, 68
1, 286489, Control_c, 1, 64, 79
1, 286489, Control_c, 0, 64, 79
1, 286493, Note_off_c, 0, 48, 54
1, 286504, Note_off_c, 0, 36, 61
1, 286508, Control_c, 0, 64, 127
1, 286508, Control_c, 1, 64, 127
1, 286514, Note_off_c, 0, 67, 56
1, 286537, Note_off_c, 0, 78, 36
1, 286643, Note_on_c, 0, 36, 43
1, 286656, Note_on_c, 0, 48, 23
1, 286687, Note_on_c, 0, 81, 78
1, 286688, Note_off_c, 0, 36, 52
1, 286704, Note_on_c, 0, 78, 57
1, 286710, Note_off_c, 0, 48, 39
1, 286713, Note_on_c, 0, 69, 57
1, 286793, Note_on_c, 0, 36, 62
1, 286817, Note_off_c, 0, 69, 57
1, 286821, Note_off_c, 0, 79, 59
1, 286830, Note_on_c, 0, 48, 27
1, 286832, Note_off_c, 0, 78, 61
1, 286866, Note_off_c, 0, 36, 58
1, 286887, Note_off_c, 0, 48, 40
1, 287074, Note_on_c, 0, 79, 37
1, 287076, Note_on_c, 0, 70, 36
1, 287079, Note_on_c, 0, 82, 66
1, 287086, Control_c, 0, 64, 73
1, 287086, Control_c, 1, 64, 73
1, 287107, Control_c, 1, 64, 46
1, 287107, Control_c, 0, 64, 46
1, 287125, Control_c, 0, 64, 30
1, 287125, Control_c, 1, 64, 30
1, 287132, Note_on_c, 0, 24, 53
1, 287141, Note_on_c, 0, 36, 32
1, 287152, Note_off_c, 0, 81, 61
1, 287162, Control_c, 0, 64, 40
1, 287162, Control_c, 1, 64, 40
1, 287182, Control_c, 1, 64, 65
1, 287182, Control_c, 0, 64, 65
1, 287192, Note_off_c, 0, 24, 59
1, 287193, Note_off_c, 0, 36, 46
1, 287198, Control_c, 0, 64, 127
1, 287198, Control_c, 1, 64, 127
1, 287215, Note_off_c, 0, 79, 59
1, 287239, Note_off_c, 0, 82, 63
1, 287379, Note_on_c, 0, 24, 35
1, 287385, Note_on_c, 0, 36, 21
1, 287394, Note_off_c, 0, 70, 32
1, 287515, Note_on_c, 0, 83, 69
1, 287531, Note_on_c, 0, 80, 51
1, 287535, Control_c, 0, 64, 109
1, 287535, Control_c, 1, 64, 109
1, 287538, Note_on_c, 0, 77, 47
1, 287555, Control_c, 0, 64, 70
1, 287555, Control_c, 1, 64, 70
1, 287557, Note_on_c, 0, 71, 43
1, 287575, Control_c, 0, 64, 49
1, 287575, Control_c, 1, 64, 49
1, 287593, Control_c, 1, 64, 44
1, 287593, Control_c, 0, 64, 44
1, 287594, Note_off_c, 0, 36, 44
1, 287595, Poly_aftertouch_c, 0, 36, 0
1, 287612, Control_c, 0, 64, 48
1, 287612, Control_c, 1, 64, 48
1, 287624, Note_off_c, 0, 24, 53
1, 287630, Control_c, 0, 64, 61
1, 287630, Control_c, 1, 64, 61
1, 287650, Control_c, 1, 64, 79
1, 287650, Control_c, 0, 64, 79
1, 287661, Poly_aftertouch_c, 0, 82, 0
1, 287667, Control_c, 0, 64, 127
1, 287667, Control_c, 1, 64, 127
1, 287780, Note_on_c, 0, 24, 44
1, 287781, Note_on_c, 0, 36, 24
1, 287830, Note_off_c, 0, 24, 50
1, 287835, Note_off_c, 0, 36, 48
1, 287854, Note_off_c, 0, 80, 62
1, 287880, Note_off_c, 0, 77, 58
1, 287887, Note_off_c, 0, 71, 37
1, 287907, Note_off_c, 0, 83, 56
1, 288060, Note_on_c, 0, 24, 37
1, 288108, Note_off_c, 0, 24, 48
1, 288123, Poly_aftertouch_c, 0, 36, 127
1, 288167, Poly_aftertouch_c, 0, 36, 0
1, 288287, Note_on_c, 0, 24, 30
1, 288326, Note_on_c, 0, 36, 21
1, 288418, Control_c, 0, 64, 83
1, 288418, Control_c, 1, 64, 83
1, 288436, Control_c, 1, 64, 56
1, 288436, Control_c, 0, 64, 56
1, 288454, Control_c, 0, 64, 42
1, 288454, Control_c, 1, 64, 42
1, 288472, Note_on_c, 0, 84, 48
1, 288474, Note_on_c, 0, 76, 31
1, 288492, Control_c, 0, 64, 47
1, 288492, Control_c, 1, 64, 47
1, 288510, Control_c, 1, 64, 60
1, 288510, Control_c, 0, 64, 60
1, 288514, Note_on_c, 0, 72, 44
1, 288529, Control_c, 0, 64, 78
1, 288529, Control_c, 1, 64, 78
1, 288547, Control_c, 1, 64, 121
1, 288547, Control_c, 0, 64, 121
1, 288552, Poly_aftertouch_c, 0, 79, 127
1, 288554, Note_off_c, 0, 36, 20
1, 288567, Control_c, 0, 64, 127
1, 288567, Control_c, 1, 64, 127
1, 288573, Note_off_c, 0, 24, 43
1, 288694, Note_on_c, 0, 24, 43
1, 288740, Note_on_c, 0, 36, 6
1, 288774, Note_off_c, 0, 24, 57
1, 288825, Note_off_c, 0, 36, 34
1, 289285, Note_off_c, 0, 84, 35
1, 289308, Poly_aftertouch_c, 0, 81, 0
1, 289319, Poly_aftertouch_c, 0, 78, 0
1, 289353, Control_c, 0, 64, 107
1, 289353, Control_c, 1, 64, 107
1, 289357, Poly_aftertouch_c, 0, 79, 0
1, 289358, Note_on_c, 0, 29, 42
1, 289371, Control_c, 0, 64, 67
1, 289371, Control_c, 1, 64, 67
1, 289372, Note_off_c, 0, 72, 55
1, 289377, Note_off_c, 0, 76, 40
1, 289390, Control_c, 0, 64, 38
1, 289390, Control_c, 1, 64, 38
1, 289407, Control_c, 1, 64, 21
1, 289407, Control_c, 0, 64, 21
1, 289411, Note_on_c, 0, 41, 13
1, 289447, Control_c, 0, 64, 27
1, 289447, Control_c, 1, 64, 27
1, 289465, Control_c, 1, 64, 41
1, 289465, Control_c, 0, 64, 41
1, 289484, Control_c, 0, 64, 65
1, 289484, Control_c, 1, 64, 65
1, 289503, Control_c, 1, 64, 94
1, 289503, Control_c, 0, 64, 94
1, 289521, Control_c, 0, 64, 127
1, 289521, Control_c, 1, 64, 127
1, 289672, Poly_aftertouch_c, 0, 41, 22
1, 289689, Note_off_c, 0, 41, 40
1, 289689, Poly_aftertouch_c, 0, 41, 0
1, 289707, Note_off_c, 0, 29, 47
1, 289852, Note_on_c, 0, 41, 20
1, 289865, Note_on_c, 0, 29, 42
1, 289930, Note_off_c, 0, 41, 43
1, 289930, Poly_aftertouch_c, 0, 41, 0
1, 289941, Note_on_c, 0, 56, 48
1, 289943, Note_off_c, 0, 29, 54
1, 289977, Note_on_c, 0, 44, 25
1, 290127, Note_on_c, 0, 29, 36
1, 290128, Note_on_c, 0, 41, 26
1, 290157, Note_off_c, 0, 44, 37
1, 290179, Note_off_c, 0, 41, 45
1, 290179, Poly_aftertouch_c, 0, 41, 0
1, 290187, Note_off_c, 0, 29, 44
1, 290363, Control_c, 0, 64, 104
1, 290363, Control_c, 1, 64, 104
1, 290367, Note_on_c, 0, 45, 37
1, 290376, Note_on_c, 0, 57, 54
1, 290381, Poly_aftertouch_c, 0, 51, 127
1, 290383, Control_c, 0, 64, 76
1, 290383, Control_c, 1, 64, 76
1, 290387, Note_on_c, 0, 29, 35
1, 290399, Note_on_c, 0, 41, 26
1, 290400, Control_c, 0, 64, 66
1, 290400, Control_c, 1, 64, 66
1, 290420, Control_c, 1, 64, 69
1, 290420, Control_c, 0, 64, 69
1, 290426, Poly_aftertouch_c, 0, 51, 0
1, 290438, Control_c, 0, 64, 74
1, 290438, Control_c, 1, 64, 74
1, 290441, Note_off_c, 0, 29, 58
1, 290446, Note_off_c, 0, 41, 48
1, 290446, Poly_aftertouch_c, 0, 41, 0
1, 290451, Note_off_c, 0, 56, 56
1, 290456, Control_c, 0, 64, 83
1, 290456, Control_c, 1, 64, 83
1, 290477, Control_c, 1, 64, 107
1, 290477, Control_c, 0, 64, 107
1, 290495, Control_c, 0, 64, 127
1, 290495, Control_c, 1, 64, 127
1, 290513, Note_off_c, 0, 45, 54
1, 290583, Note_on_c, 0, 29, 53
1, 290593, Note_on_c, 0, 41, 48
1, 290637, Note_off_c, 0, 29, 55
1, 290642, Note_off_c, 0, 41, 61
1, 290642, Poly_aftertouch_c, 0, 41, 0
1, 290717, Note_on_c, 0, 56, 64
1, 290728, Note_on_c, 0, 59, 65
1, 290767, Note_off_c, 0, 57, 62
1, 290819, Poly_aftertouch_c, 0, 47, 127
1, 290855, Poly_aftertouch_c, 0, 47, 0
1, 290869, Note_on_c, 0, 41, 42
1, 290873, Note_on_c, 0, 29, 43
1, 290905, Note_off_c, 0, 41, 54
1, 290905, Poly_aftertouch_c, 0, 41, 0
1, 290911, Note_off_c, 0, 29, 52
1, 291000, Control_c, 0, 64, 83
1, 291000, Control_c, 1, 64, 83
1, 291016, Note_on_c, 0, 57, 67
1, 291017, Note_off_c, 0, 56, 62
1, 291019, Control_c, 0, 64, 58
1, 291019, Control_c, 1, 64, 58
1, 291037, Control_c, 1, 64, 47
1, 291037, Control_c, 0, 64, 47
1, 291042, Note_on_c, 0, 60, 68
1, 291043, Note_off_c, 0, 59, 59
1, 291043, Poly_aftertouch_c, 0, 59, 0
1, 291051, Note_on_c, 0, 29, 44
1, 291053, Note_on_c, 0, 48, 33
1, 291067, Note_on_c, 0, 41, 37
1, 291074, Control_c, 0, 64, 56
1, 291074, Control_c, 1, 64, 56
1, 291093, Control_c, 1, 64, 69
1, 291093, Control_c, 0, 64, 69
1, 291101, Note_off_c, 0, 29, 64
1, 291105, Note_off_c, 0, 41, 54
1, 291105, Poly_aftertouch_c, 0, 41, 0
1, 291112, Control_c, 0, 64, 90
1, 291112, Control_c, 1, 64, 90
1, 291131, Control_c, 1, 64, 127
1, 291131, Control_c, 0, 64, 127
1, 291149, Note_off_c, 0, 48, 51
1, 291169, Note_off_c, 0, 57, 62
1, 291229, Note_on_c, 0, 29, 54
1, 291235, Note_on_c, 0, 41, 49
1, 291308, Note_off_c, 0, 41, 50
1, 291308, Poly_aftertouch_c, 0, 41, 0
1, 291318, Note_on_c, 0, 61, 72
1, 291321, Note_off_c, 0, 29, 54
1, 291328, Note_on_c, 0, 58, 63
1, 291333, Note_on_c, 0, 49, 48
1, 291373, Note_off_c, 0, 60, 55
1, 291487, Note_on_c, 0, 29, 55
1, 291500, Note_on_c, 0, 41, 45
1, 291534, Note_off_c, 0, 41, 58
1, 291534, Poly_aftertouch_c, 0, 41, 0
1, 291542, Note_off_c, 0, 29, 59
1, 291548, Note_off_c, 0, 49, 39
1, 291582, Control_c, 0, 64, 101
1, 291582, Control_c, 1, 64, 101
1, 291590, Note_on_c, 0, 59, 66
1, 291599, Control_c, 0, 64, 68
1, 291599, Control_c, 1, 64, 68
1, 291600, Note_off_c, 0, 61, 63
1, 291612, Note_on_c, 0, 62, 70
1, 291616, Control_c, 0, 64, 49
1, 291616, Control_c, 1, 64, 49
1, 291636, Control_c, 1, 64, 46
1, 291636, Control_c, 0, 64, 46
1, 291649, Note_on_c, 0, 50, 38
1, 291654, Control_c, 0, 64, 50
1, 291654, Control_c, 1, 64, 50
1, 291662, Note_on_c, 0, 41, 39
1, 291669, Note_on_c, 0, 29, 48
1, 291673, Control_c, 0, 64, 59
1, 291673, Control_c, 1, 64, 59
1, 291692, Control_c, 1, 64, 70
1, 291692, Control_c, 0, 64, 70
1, 291695, Note_off_c, 0, 50, 53
1, 291703, Note_off_c, 0, 41, 57
1, 291703, Poly_aftertouch_c, 0, 41, 0
1, 291711, Control_c, 0, 64, 88
1, 291711, Control_c, 1, 64, 88
1, 291712, Note_off_c, 0, 29, 62
1, 291718, Note_off_c, 0, 58, 50
1, 291730, Control_c, 0, 64, 127
1, 291730, Control_c, 1, 64, 127
1, 291755, Note_off_c, 0, 59, 60
1, 291755, Poly_aftertouch_c, 0, 59, 0
1, 291826, Note_on_c, 0, 29, 56
1, 291833, Note_on_c, 0, 41, 47
1, 291869, Note_off_c, 0, 41, 56
1, 291869, Poly_aftertouch_c, 0, 41, 0
1, 291874, Note_off_c, 0, 29, 61
1, 291880, Note_on_c, 0, 63, 72
1, 291887, Note_on_c, 0, 57, 60
1, 291920, Note_on_c, 0, 51, 43
1, 291940, Note_off_c, 0, 62, 52
1, 292028, Note_on_c, 0, 29, 42
1, 292029, Note_on_c, 0, 41, 37
1, 292054, Note_off_c, 0, 57, 63
1, 292071, Note_off_c, 0, 41, 51
1, 292071, Poly_aftertouch_c, 0, 41, 0
1, 292079, Note_off_c, 0, 29, 62
1, 292158, Note_off_c, 0, 51, 34
1, 292235, Control_c, 0, 64, 93
1, 292235, Control_c, 1, 64, 93
1, 292254, Control_c, 1, 64, 59
1, 292254, Control_c, 0, 64, 59
1, 292260, Note_on_c, 0, 64, 62
1, 292264, Note_on_c, 0, 56, 59
1, 292272, Control_c, 0, 64, 29
1, 292272, Control_c, 1, 64, 29
1, 292284, Note_on_c, 0, 40, 47
1, 292290, Note_on_c, 0, 52, 27
1, 292290, Control_c, 0, 64, 11
1, 292290, Control_c, 1, 64, 11
1, 292301, Note_on_c, 0, 28, 47
1, 292326, Note_off_c, 0, 63, 62
1, 292346, Note_off_c, 0, 40, 51
1, 292350, Note_off_c, 0, 28, 61
1, 292366, Control_c, 0, 64, 30
1, 292366, Control_c, 1, 64, 30
1, 292385, Control_c, 1, 64, 55
1, 292385, Control_c, 0, 64, 55
1, 292405, Control_c, 0, 64, 90
1, 292405, Control_c, 1, 64, 90
1, 292422, Control_c, 1, 64, 127
1, 292422, Control_c, 0, 64, 127
1, 292446, Note_off_c, 0, 56, 61
1, 292475, Note_off_c, 0, 52, 35
1, 292485, Note_on_c, 0, 28, 58
1, 292493, Note_on_c, 0, 40, 54
1, 292542, Note_off_c, 0, 28, 60
1, 292542, Note_off_c, 0, 40, 52
1, 292583, Note_on_c, 0, 66, 73
1, 292608, Note_on_c, 0, 63, 61
1, 292613, Note_on_c, 0, 54, 35
1, 292636, Note_off_c, 0, 64, 46
1, 292735, Note_on_c, 0, 40, 53
1, 292745, Note_on_c, 0, 28, 55
1, 292782, Note_off_c, 0, 40, 59
1, 292796, Note_off_c, 0, 28, 60
1, 292841, Note_off_c, 0, 54, 42
1, 292854, Note_on_c, 0, 64, 64
1, 292872, Control_c, 0, 64, 79
1, 292872, Control_c, 1, 64, 79
1, 292878, Note_on_c, 0, 67, 76
1, 292890, Control_c, 0, 64, 55
1, 292890, Control_c, 1, 64, 55
1, 292892, Note_on_c, 0, 55, 34
1, 292897, Note_off_c, 0, 63, 58
1, 292910, Control_c, 0, 64, 48
1, 292910, Control_c, 1, 64, 48
1, 292915, Note_on_c, 0, 40, 53
1, 292919, Note_on_c, 0, 28, 54
1, 292928, Control_c, 0, 64, 53
1, 292928, Control_c, 1, 64, 53
1, 292946, Control_c, 1, 64, 62
1, 292946, Control_c, 0, 64, 62
1, 292959, Note_off_c, 0, 40, 63
1, 292963, Note_off_c, 0, 28, 60
1, 292964, Control_c, 0, 64, 78
1, 292964, Control_c, 1, 64, 78
1, 292975, Note_off_c, 0, 64, 55
1, 292983, Note_off_c, 0, 66, 49
1, 292983, Poly_aftertouch_c, 0, 66, 0
1, 292984, Control_c, 0, 64, 118
1, 292984, Control_c, 1, 64, 118
1, 293003, Control_c, 1, 64, 127
1, 293003, Control_c, 0, 64, 127
1, 293011, Note_off_c, 0, 55, 57
1, 293077, Note_on_c, 0, 40, 60
1, 293085, Note_on_c, 0, 28, 61
1, 293131, Note_off_c, 0, 28, 60
1, 293132, Note_off_c, 0, 40, 59
1, 293136, Note_on_c, 0, 68, 75
1, 293147, Note_on_c, 0, 65, 67
1, 293151, Note_on_c, 0, 56, 60
1, 293246, Note_off_c, 0, 67, 54
1, 293246, Note_on_c, 0, 28, 66
1, 293247, Note_on_c, 0, 40, 56
1, 293283, Note_off_c, 0, 28, 64
1, 293284, Note_off_c, 0, 40, 61
1, 293309, Note_off_c, 0, 65, 59
1, 293317, Note_off_c, 0, 56, 38
1, 293453, Control_c, 0, 64, 74
1, 293453, Control_c, 1, 64, 74
1, 293469, Note_on_c, 0, 69, 69
1, 293470, Note_on_c, 0, 66, 62
1, 293471, Control_c, 0, 64, 45
1, 293471, Control_c, 1, 64, 45
1, 293479, Note_on_c, 0, 57, 51
1, 293489, Control_c, 0, 64, 29
1, 293489, Control_c, 1, 64, 29
1, 293495, Note_on_c, 0, 63, 44
1, 293495, Note_on_c, 0, 52, 66
1, 293508, Note_on_c, 0, 40, 47
1, 293517, Note_off_c, 0, 68, 63
1, 293527, Control_c, 0, 64, 35
1, 293527, Control_c, 1, 64, 35
1, 293538, Note_off_c, 0, 52, 62
1, 293545, Control_c, 0, 64, 52
1, 293545, Control_c, 1, 64, 52
1, 293559, Note_off_c, 0, 40, 59
1, 293564, Control_c, 0, 64, 80
1, 293564, Control_c, 1, 64, 80
1, 293583, Control_c, 1, 64, 127
1, 293583, Control_c, 0, 64, 127
1, 293664, Note_off_c, 0, 63, 60
1, 293664, Note_off_c, 0, 57, 37
1, 293669, Note_off_c, 0, 69, 59
1, 293709, Note_on_c, 0, 40, 53
1, 293711, Note_on_c, 0, 52, 55
1, 293780, Note_off_c, 0, 52, 49
1, 293851, Note_on_c, 0, 72, 73
1, 293863, Note_on_c, 0, 60, 43
1, 293876, Note_on_c, 0, 63, 46
1, 293882, Control_c, 0, 64, 69
1, 293882, Control_c, 1, 64, 69
1, 293901, Control_c, 1, 64, 38
1, 293901, Control_c, 0, 64, 38
1, 293911, Note_off_c, 0, 40, 49
1, 293912, Poly_aftertouch_c, 0, 40, 0
1, 293920, Control_c, 0, 64, 20
1, 293920, Control_c, 1, 64, 20
1, 293949, Note_off_c, 0, 60, 64
1, 293949, Note_on_c, 0, 60, 14
1, 293976, Control_c, 0, 64, 37
1, 293976, Control_c, 1, 64, 37
1, 293996, Control_c, 1, 64, 64
1, 293996, Control_c, 0, 64, 64
1, 294014, Control_c, 0, 64, 104
1, 294014, Control_c, 1, 64, 104
1, 294032, Control_c, 1, 64, 127
1, 294032, Control_c, 0, 64, 127
1, 294057, Note_on_c, 0, 40, 45
1, 294068, Note_on_c, 0, 52, 30
1, 294115, Note_off_c, 0, 52, 49
1, 294117, Note_off_c, 0, 40, 45
1, 294259, Note_off_c, 0, 63, 49
1, 294287, Note_on_c, 0, 40, 41
1, 294295, Note_off_c, 0, 66, 39
1, 294295, Poly_aftertouch_c, 0, 66, 0
1, 294297, Note_on_c, 0, 52, 19
1, 294346, Note_off_c, 0, 40, 53
1, 294348, Note_off_c, 0, 60, 39
1, 294355, Note_off_c, 0, 52, 46
1, 294360, Note_off_c, 0, 72, 38
1, 294529, Note_on_c, 0, 40, 39
1, 294613, Poly_aftertouch_c, 0, 52, 127
1, 294631, Control_c, 0, 64, 104
1, 294631, Control_c, 1, 64, 104
1, 294652, Control_c, 1, 64, 67
1, 294652, Control_c, 0, 64, 67
1, 294669, Control_c, 0, 64, 43
1, 294669, Control_c, 1, 64, 43
1, 294675, Poly_aftertouch_c, 0, 52, 0
1, 294687, Control_c, 0, 64, 39
1, 294687, Control_c, 1, 64, 39
1, 294689, Note_off_c, 0, 40, 52
1, 294697, Note_on_c, 0, 68, 39
1, 294697, Note_on_c, 0, 59, 40
1, 294697, Note_on_c, 0, 71, 43
1, 294706, Control_c, 0, 64, 42
1, 294706, Control_c, 1, 64, 42
1, 294723, Control_c, 1, 64, 52
1, 294723, Control_c, 0, 64, 52
1, 294727, Note_on_c, 0, 64, 32
1, 294745, Control_c, 0, 64, 65
1, 294745, Control_c, 1, 64, 65
1, 294762, Control_c, 1, 64, 83
1, 294762, Control_c, 0, 64, 83
1, 294781, Control_c, 0, 64, 127
1, 294781, Control_c, 1, 64, 127
1, 294862, Note_on_c, 0, 40, 43
1, 294908, Note_off_c, 0, 40, 49
1, 294964, Poly_aftertouch_c, 0, 52, 0
1, 295174, Control_c, 0, 64, 106
1, 295174, Control_c, 1, 64, 106
1, 295193, Control_c, 1, 64, 64
1, 295193, Control_c, 0, 64, 64
1, 295212, Control_c, 0, 64, 33
1, 295212, Control_c, 1, 64, 33
1, 295230, Control_c, 1, 64, 17
1, 295230, Control_c, 0, 64, 17
1, 295236, Note_on_c, 0, 53, 39
1, 295240, Note_on_c, 0, 41, 41
1, 295268, Control_c, 0, 64, 26
1, 295268, Control_c, 1, 64, 26
1, 295283, Note_off_c, 0, 59, 61
1, 295283, Poly_aftertouch_c, 0, 59, 0
1, 295286, Control_c, 0, 64, 45
1, 295286, Control_c, 1, 64, 45
1, 295296, Note_off_c, 0, 64, 55
1, 295301, Note_off_c, 0, 53, 51
1, 295304, Control_c, 0, 64, 78
1, 295304, Control_c, 1, 64, 78
1, 295310, Note_off_c, 0, 71, 55
1, 295315, Note_off_c, 0, 68, 48
1, 295323, Control_c, 0, 64, 127
1, 295323, Control_c, 1, 64, 127
1, 295325, Note_off_c, 0, 41, 52
1, 295325, Poly_aftertouch_c, 0, 41, 0
1, 295507, Note_on_c, 0, 41, 40
1, 295522, Note_on_c, 0, 53, 29
1, 295572, Note_off_c, 0, 53, 47
1, 295617, Note_off_c, 0, 41, 48
1, 295617, Note_on_c, 0, 68, 55
1, 295617, Poly_aftertouch_c, 0, 41, 0
1, 295623, Note_on_c, 0, 56, 48
1, 295780, Note_on_c, 0, 41, 46
1, 295784, Note_on_c, 0, 53, 26
1, 295814, Note_off_c, 0, 41, 55
1, 295814, Poly_aftertouch_c, 0, 41, 0
1, 295820, Note_off_c, 0, 56, 52
1, 295842, Note_off_c, 0, 53, 41
1, 295959, Control_c, 0, 64, 76
1, 295959, Control_c, 1, 64, 76
1, 295960, Note_on_c, 0, 69, 69
1, 295972, Note_on_c, 0, 57, 41
1, 295977, Control_c, 0, 64, 51
1, 295977, Control_c, 1, 64, 51
1, 295983, Note_on_c, 0, 41, 37
1, 295998, Control_c, 0, 64, 46
1, 295998, Control_c, 1, 64, 46
1, 296016, Control_c, 1, 64, 48
1, 296016, Note_on_c, 0, 53, 32
1, 296016, Control_c, 0, 64, 48
1, 296034, Control_c, 0, 64, 58
1, 296034, Control_c, 1, 64, 58
1, 296047, Note_off_c, 0, 68, 57
1, 296049, Note_off_c, 0, 41, 58
1, 296049, Poly_aftertouch_c, 0, 41, 0
1, 296053, Control_c, 0, 64, 72
1, 296053, Control_c, 1, 64, 72
1, 296064, Note_off_c, 0, 53, 44
1, 296072, Control_c, 0, 64, 98
1, 296072, Control_c, 1, 64, 98
1, 296076, Note_off_c, 0, 57, 57
1, 296092, Control_c, 0, 64, 127
1, 296092, Control_c, 1, 64, 127
1, 296179, Note_on_c, 0, 53, 46
1, 296220, Note_off_c, 0, 53, 51
1, 296244, Note_on_c, 0, 71, 77
1, 296266, Note_on_c, 0, 68, 61
1, 296270, Note_on_c, 0, 59, 42
1, 296298, Poly_aftertouch_c, 0, 41, 0
1, 296327, Note_off_c, 0, 69, 61
1, 296408, Note_off_c, 0, 59, 28
1, 296408, Poly_aftertouch_c, 0, 59, 0
1, 296417, Note_on_c, 0, 53, 25
1, 296417, Note_on_c, 0, 41, 40
1, 296457, Note_off_c, 0, 41, 51
1, 296463, Note_off_c, 0, 53, 45
1, 296522, Control_c, 0, 64, 76
1, 296522, Control_c, 1, 64, 76
1, 296541, Control_c, 1, 64, 48
1, 296541, Control_c, 0, 64, 48
1, 296544, Note_on_c, 0, 72, 81
1, 296548, Note_on_c, 0, 69, 62
1, 296556, Note_on_c, 0, 60, 46
1, 296558, Control_c, 0, 64, 36
1, 296558, Control_c, 1, 64, 36
1, 296560, Note_off_c, 0, 68, 57
1, 296567, Note_on_c, 0, 41, 53
1, 296588, Note_on_c, 0, 53, 36
1, 296596, Control_c, 0, 64, 45
1, 296596, Control_c, 1, 64, 45
1, 296615, Control_c, 1, 64, 63
1, 296615, Control_c, 0, 64, 63
1, 296617, Note_off_c, 0, 71, 56
1, 296625, Note_off_c, 0, 41, 56
1, 296626, Note_off_c, 0, 53, 48
1, 296634, Control_c, 0, 64, 87
1, 296634, Control_c, 1, 64, 87
1, 296652, Control_c, 1, 64, 127
1, 296652, Control_c, 0, 64, 127
1, 296670, Note_off_c, 0, 69, 58
1, 296677, Note_off_c, 0, 60, 50
1, 296762, Note_on_c, 0, 41, 51
1, 296764, Note_on_c, 0, 53, 32
1, 296809, Note_off_c, 0, 53, 49
1, 296813, Note_off_c, 0, 41, 59
1, 296819, Note_on_c, 0, 73, 83
1, 296848, Note_on_c, 0, 61, 51
1, 296848, Note_on_c, 0, 70, 63
1, 296927, Note_off_c, 0, 72, 55
1, 296983, Note_on_c, 0, 41, 52
1, 297024, Note_off_c, 0, 41, 62
1, 297045, Note_off_c, 0, 61, 59
1, 297079, Poly_aftertouch_c, 0, 53, 0
1, 297083, Control_c, 0, 64, 83
1, 297083, Control_c, 1, 64, 83
1, 297101, Note_on_c, 0, 71, 65
1, 297102, Control_c, 0, 64, 52
1, 297102, Control_c, 1, 64, 52
1, 297107, Note_on_c, 0, 74, 82
1, 297111, Note_on_c, 0, 62, 49
1, 297112, Note_off_c, 0, 73, 66
1, 297121, Control_c, 0, 64, 32
1, 297121, Control_c, 1, 64, 32
1, 297157, Note_on_c, 0, 41, 56
1, 297158, Control_c, 0, 64, 41
1, 297158, Control_c, 1, 64, 41
1, 297177, Control_c, 1, 64, 62
1, 297177, Control_c, 0, 64, 62
1, 297196, Control_c, 0, 64, 94
1, 297196, Control_c, 1, 64, 94
1, 297197, Note_off_c, 0, 41, 59
1, 297200, Note_off_c, 0, 70, 33
1, 297211, Note_off_c, 0, 71, 56
1, 297214, Control_c, 0, 64, 127
1, 297214, Control_c, 1, 64, 127
1, 297219, Poly_aftertouch_c, 0, 53, 0
1, 297231, Note_off_c, 0, 62, 56
1, 297301, Note_on_c, 0, 41, 61
1, 297342, Note_off_c, 0, 41, 64
1, 297366, Note_on_c, 0, 75, 75
1, 297380, Note_on_c, 0, 69, 68
1, 297388, Note_on_c, 0, 63, 67
1, 297395, Poly_aftertouch_c, 0, 53, 127
1, 297428, Poly_aftertouch_c, 0, 53, 0
1, 297481, Note_off_c, 0, 74, 58
1, 297481, Note_on_c, 0, 41, 54
1, 297485, Note_off_c, 0, 69, 59
1, 297527, Note_off_c, 0, 41, 62
1, 297611, Note_off_c, 0, 63, 28
1, 297718, Note_on_c, 0, 67, 64
1, 297719, Control_c, 0, 64, 84
1, 297719, Control_c, 1, 64, 84
1, 297731, Note_on_c, 0, 76, 75
1, 297735, Note_on_c, 0, 64, 51
1, 297738, Control_c, 0, 64, 52
1, 297738, Control_c, 1, 64, 52
1, 297739, Note_on_c, 0, 36, 52
1, 297740, Note_on_c, 0, 48, 43
1, 297758, Control_c, 0, 64, 30
1, 297758, Control_c, 1, 64, 30
1, 297774, Note_off_c, 0, 75, 66
1, 297775, Control_c, 0, 64, 25
1, 297775, Control_c, 1, 64, 25
1, 297782, Note_off_c, 0, 48, 51
1, 297814, Control_c, 0, 64, 41
1, 297814, Control_c, 1, 64, 41
1, 297816, Note_off_c, 0, 36, 61
1, 297832, Control_c, 0, 64, 69
1, 297832, Control_c, 1, 64, 69
1, 297851, Control_c, 1, 64, 127
1, 297851, Control_c, 0, 64, 127
1, 297875, Note_off_c, 0, 67, 63
1, 297916, Note_off_c, 0, 64, 60
1, 297960, Note_on_c, 0, 48, 33
1, 297977, Note_on_c, 0, 36, 37
1, 298010, Note_off_c, 0, 48, 45
1, 298018, Note_off_c, 0, 36, 53
1, 298049, Note_on_c, 0, 78, 78
1, 298071, Note_on_c, 0, 75, 67
1, 298080, Note_on_c, 0, 66, 45
1, 298112, Note_off_c, 0, 76, 51
1, 298223, Note_on_c, 0, 36, 42
1, 298241, Note_on_c, 0, 48, 36
1, 298286, Note_off_c, 0, 48, 50
1, 298290, Note_off_c, 0, 36, 56
1, 298321, Note_off_c, 0, 66, 42
1, 298321, Poly_aftertouch_c, 0, 66, 0
1, 298337, Control_c, 0, 64, 101
1, 298337, Control_c, 1, 64, 101
1, 298343, Note_on_c, 0, 76, 56
1, 298348, Note_on_c, 0, 67, 63
1, 298354, Note_on_c, 0, 79, 78
1, 298355, Control_c, 0, 64, 65
1, 298355, Control_c, 1, 64, 65
1, 298375, Control_c, 1, 64, 42
1, 298375, Control_c, 0, 64, 42
1, 298394, Control_c, 0, 64, 37
1, 298394, Control_c, 1, 64, 37
1, 298424, Note_on_c, 0, 48, 41
1, 298431, Control_c, 0, 64, 51
1, 298431, Control_c, 1, 64, 51
1, 298445, Note_on_c, 0, 36, 41
1, 298448, Control_c, 0, 64, 73
1, 298448, Control_c, 1, 64, 73
1, 298468, Control_c, 1, 64, 127
1, 298468, Control_c, 0, 64, 127
1, 298475, Note_off_c, 0, 48, 51
1, 298493, Note_off_c, 0, 76, 60
1, 298496, Note_off_c, 0, 36, 61
1, 298499, Note_off_c, 0, 75, 38
1, 298512, Note_off_c, 0, 78, 47
1, 298528, Note_off_c, 0, 67, 59
1, 298616, Note_on_c, 0, 36, 49
1, 298648, Note_on_c, 0, 48, 7
1, 298658, Note_on_c, 0, 81, 74
1, 298659, Note_off_c, 0, 36, 55
1, 298662, Note_on_c, 0, 78, 61
1, 298693, Note_on_c, 0, 69, 41
1, 298715, Note_on_c, 0, 67, 31
1, 298733, Note_off_c, 0, 48, 33
1, 298752, Note_off_c, 0, 67, 53
1, 298787, Note_on_c, 0, 36, 50
1, 298796, Note_off_c, 0, 79, 62
1, 298818, Note_off_c, 0, 78, 62
1, 298830, Note_off_c, 0, 69, 58
1, 298871, Poly_aftertouch_c, 0, 48, 0
1, 298881, Note_off_c, 0, 36, 57
1, 299030, Control_c, 0, 64, 79
1, 299030, Control_c, 1, 64, 79
1, 299045, Note_on_c, 0, 82, 62
1, 299046, Note_on_c, 0, 70, 50
1, 299050, Control_c, 0, 64, 48
1, 299050, Control_c, 1, 64, 48
1, 299064, Note_on_c, 0, 79, 53
1, 299066, Control_c, 0, 64, 28
1, 299066, Control_c, 1, 64, 28
1, 299079, Note_on_c, 0, 36, 40
1, 299085, Control_c, 0, 64, 24
1, 299085, Control_c, 1, 64, 24
1, 299100, Note_on_c, 0, 24, 41
1, 299106, Note_off_c, 0, 81, 53
1, 299123, Note_off_c, 0, 36, 56
1, 299123, Control_c, 0, 64, 39
1, 299123, Control_c, 1, 64, 39
1, 299144, Control_c, 1, 64, 64
1, 299144, Control_c, 0, 64, 64
1, 299155, Note_off_c, 0, 79, 59
1, 299162, Control_c, 0, 64, 108
1, 299162, Control_c, 1, 64, 108
1, 299179, Control_c, 1, 64, 127
1, 299179, Control_c, 0, 64, 127
1, 299188, Note_off_c, 0, 82, 64
1, 299264, Note_off_c, 0, 24, 37
1, 299329, Poly_aftertouch_c, 0, 70, 24
1, 299360, Note_off_c, 0, 70, 45
1, 299360, Poly_aftertouch_c, 0, 70, 0
1, 299403, Note_on_c, 0, 24, 35
1, 299498, Control_c, 0, 64, 107
1, 299498, Control_c, 1, 64, 107
1, 299513, Note_on_c, 0, 80, 41
1, 299513, Note_on_c, 0, 83, 58
1, 299516, Control_c, 0, 64, 64
1, 299516, Control_c, 1, 64, 64
1, 299525, Note_on_c, 0, 71, 41
1, 299530, Note_on_c, 0, 77, 43
1, 299534, Control_c, 0, 64, 35
1, 299534, Control_c, 1, 64, 35
1, 299555, Control_c, 1, 64, 23
1, 299555, Control_c, 0, 64, 23
1, 299589, Note_off_c, 0, 24, 36
1, 299590, Control_c, 0, 64, 35
1, 299590, Control_c, 1, 64, 35
1, 299611, Control_c, 1, 64, 58
1, 299611, Control_c, 0, 64, 58
1, 299630, Control_c, 0, 64, 94
1, 299630, Control_c, 1, 64, 94
1, 299647, Control_c, 1, 64, 127
1, 299647, Control_c, 0, 64, 127
1, 299661, Poly_aftertouch_c, 0, 82, 127
1, 299742, Poly_aftertouch_c, 0, 82, 0
1, 299747, Note_on_c, 0, 24, 40
1, 299816, Note_off_c, 0, 24, 46
1, 299871, Note_off_c, 0, 77, 47
1, 299879, Note_off_c, 0, 71, 33
1, 299894, Note_off_c, 0, 83, 53
1, 299938, Note_off_c, 0, 80, 33
1, 300021, Note_on_c, 0, 24, 33
1, 300100, Note_off_c, 0, 24, 45
1, 300133, Poly_aftertouch_c, 0, 36, 0
1, 300263, Note_on_c, 0, 24, 42
1, 300363, Note_off_c, 0, 24, 51
1, 300409, Note_on_c, 0, 84, 47
1, 300447, Note_on_c, 0, 72, 34
1, 300448, Note_on_c, 0, 79, 41
1, 300449, Note_on_c, 0, 76, 37
1, 300644, Note_on_c, 0, 24, 40
1, 300699, Note_off_c, 0, 72, 50
1, 300709, Note_off_c, 0, 24, 46
1, 300734, Note_off_c, 0, 76, 60
1, 300763, Note_off_c, 0, 79, 49
1, 300775, Note_off_c, 0, 84, 59
1, 301175, Note_on_c, 0, 87, 57
1, 301195, Note_on_c, 0, 75, 39
1, 301220, Control_c, 0, 64, 81
1, 301220, Control_c, 1, 64, 81
1, 301239, Control_c, 1, 64, 58
1, 301239, Control_c, 0, 64, 58
1, 301258, Control_c, 0, 64, 63
1, 301258, Control_c, 1, 64, 63
1, 301276, Control_c, 1, 64, 82
1, 301276, Control_c, 0, 64, 82
1, 301296, Control_c, 0, 64, 127
1, 301296, Control_c, 1, 64, 127
1, 301373, Note_off_c, 0, 75, 52
1, 301382, Note_off_c, 0, 87, 57
1, 301487, Note_on_c, 0, 87, 48
1, 301538, Note_on_c, 0, 75, 14
1, 301596, Note_on_c, 0, 74, 55
1, 301606, Note_on_c, 0, 62, 54
1, 301608, Note_off_c, 0, 75, 50
1, 301609, Note_off_c, 0, 87, 54
1, 301746, Note_on_c, 0, 87, 60
1, 301748, Note_on_c, 0, 75, 45
1, 301759, Note_off_c, 0, 74, 51
1, 301805, Note_off_c, 0, 75, 47
1, 301809, Note_off_c, 0, 87, 51
1, 301988, Control_c, 0, 64, 94
1, 301988, Control_c, 1, 64, 94
1, 302006, Control_c, 1, 64, 67
1, 302006, Control_c, 0, 64, 67
1, 302024, Note_on_c, 0, 60, 63
1, 302024, Control_c, 0, 64, 62
1, 302024, Control_c, 1, 64, 62
1, 302033, Note_on_c, 0, 72, 59
1, 302043, Note_on_c, 0, 87, 53
1, 302043, Control_c, 0, 64, 68
1, 302043, Control_c, 1, 64, 68
1, 302046, Note_off_c, 0, 62, 58
1, 302062, Control_c, 0, 64, 79
1, 302062, Control_c, 1, 64, 79
1, 302063, Note_on_c, 0, 75, 35
1, 302084, Control_c, 0, 64, 118
1, 302084, Control_c, 1, 64, 118
1, 302100, Control_c, 1, 64, 127
1, 302100, Control_c, 0, 64, 127
1, 302118, Note_off_c, 0, 75, 50
1, 302130, Note_off_c, 0, 87, 60
1, 302172, Note_off_c, 0, 72, 61
1, 302250, Note_on_c, 0, 87, 57
1, 302256, Note_on_c, 0, 75, 49
1, 302327, Note_off_c, 0, 75, 55
1, 302353, Note_off_c, 0, 87, 55
1, 302360, Note_on_c, 0, 70, 68
1, 302381, Note_on_c, 0, 62, 60
1, 302381, Control_c, 0, 64, 94
1, 302381, Control_c, 1, 64, 94
1, 302382, Note_on_c, 0, 58, 66
1, 302399, Control_c, 0, 64, 82
1, 302399, Control_c, 1, 64, 82
1, 302419, Control_c, 1, 64, 90
1, 302419, Control_c, 0, 64, 90
1, 302423, Note_off_c, 0, 60, 60
1, 302438, Control_c, 0, 64, 127
1, 302438, Control_c, 1, 64, 127
1, 302496, Note_on_c, 0, 75, 54
1, 302508, Note_on_c, 0, 87, 56
1, 302558, Note_off_c, 0, 75, 55
1, 302559, Note_off_c, 0, 87, 59
1, 302598, Note_off_c, 0, 70, 39
1, 302598, Poly_aftertouch_c, 0, 70, 0
1, 302643, Control_c, 0, 64, 86
1, 302643, Control_c, 1, 64, 86
1, 302661, Control_c, 1, 64, 70
1, 302661, Control_c, 0, 64, 70
1, 302663, Note_on_c, 0, 69, 73
1, 302678, Note_on_c, 0, 60, 60
1, 302679, Control_c, 0, 64, 75
1, 302679, Control_c, 1, 64, 75
1, 302683, Note_on_c, 0, 57, 65
1, 302685, Note_on_c, 0, 87, 63
1, 302687, Note_off_c, 0, 62, 39
1, 302691, Note_on_c, 0, 75, 59
1, 302699, Control_c, 0, 64, 95
1, 302699, Control_c, 1, 64, 95
1, 302717, Control_c, 1, 64, 127
1, 302717, Control_c, 0, 64, 127
1, 302730, Note_off_c, 0, 58, 38
1, 302744, Note_off_c, 0, 75, 59
1, 302752, Note_off_c, 0, 60, 60
1, 302754, Note_off_c, 0, 87, 52
1, 302811, Note_off_c, 0, 69, 59
1, 302830, Control_c, 0, 67, 120
1, 302830, Control_c, 1, 67, 120
1, 302867, Control_c, 1, 67, 116
1, 302867, Control_c, 0, 67, 116
1, 302875, Note_on_c, 0, 75, 60
1, 302876, Note_on_c, 0, 87, 65
1, 302887, Control_c, 0, 64, 81
1, 302887, Control_c, 1, 64, 81
1, 302905, Control_c, 1, 64, 72
1, 302905, Control_c, 0, 64, 72
1, 302924, Control_c, 0, 64, 79
1, 302924, Control_c, 1, 64, 79
1, 302927, Note_off_c, 0, 75, 50
1, 302935, Note_on_c, 0, 55, 63
1, 302940, Note_on_c, 0, 67, 62
1, 302942, Note_off_c, 0, 87, 55
1, 302944, Control_c, 0, 64, 99
1, 302944, Control_c, 1, 64, 99
1, 302949, Note_on_c, 0, 58, 55
1, 302961, Control_c, 0, 64, 127
1, 302961, Control_c, 1, 64, 127
1, 303003, Note_off_c, 0, 57, 61
1, 303056, Note_off_c, 0, 67, 63
1, 303062, Note_on_c, 0, 87, 68
1, 303063, Note_off_c, 0, 55, 62
1, 303067, Note_on_c, 0, 75, 55
1, 303128, Note_off_c, 0, 75, 56
1, 303155, Note_off_c, 0, 87, 60
1, 303243, Control_c, 0, 64, 77
1, 303243, Control_c, 1, 64, 77
1, 303261, Note_on_c, 0, 66, 68
1, 303262, Control_c, 0, 64, 58
1, 303262, Control_c, 1, 64, 58
1, 303263, Note_off_c, 0, 58, 58
1, 303272, Note_on_c, 0, 57, 50
1, 303274, Note_on_c, 0, 54, 62
1, 303281, Control_c, 0, 64, 62
1, 303281, Control_c, 1, 64, 62
1, 303290, Note_on_c, 0, 75, 57
1, 303290, Note_on_c, 0, 87, 60
1, 303298, Control_c, 0, 64, 75
1, 303298, Control_c, 1, 64, 75
1, 303318, Control_c, 1, 64, 127
1, 303318, Control_c, 0, 64, 127
1, 303353, Note_off_c, 0, 75, 57
1, 303367, Note_off_c, 0, 87, 58
1, 303377, Note_off_c, 0, 57, 58
1, 303428, Note_off_c, 0, 66, 59
1, 303428, Poly_aftertouch_c, 0, 66, 0
1, 303472, Note_off_c, 0, 54, 60
1, 303483, Note_on_c, 0, 87, 57
1, 303491, Note_on_c, 0, 75, 57
1, 303549, Note_off_c, 0, 75, 55
1, 303560, Control_c, 0, 64, 92
1, 303560, Control_c, 1, 64, 92
1, 303561, Note_off_c, 0, 87, 56
1, 303579, Control_c, 0, 64, 65
1, 303579, Control_c, 1, 64, 65
1, 303592, Note_on_c, 0, 55, 61
1, 303594, Note_on_c, 0, 67, 60
1, 303596, Note_on_c, 0, 58, 55
1, 303598, Control_c, 0, 64, 61
1, 303598, Control_c, 1, 64, 61
1, 303616, Control_c, 1, 64, 72
1, 303616, Control_c, 0, 64, 72
1, 303635, Control_c, 0, 64, 105
1, 303635, Control_c, 1, 64, 105
1, 303654, Control_c, 1, 64, 127
1, 303654, Control_c, 0, 64, 127
1, 303693, Note_on_c, 0, 75, 58
1, 303698, Note_on_c, 0, 87, 57
1, 303727, Note_off_c, 0, 67, 62
1, 303730, Note_off_c, 0, 55, 61
1, 303768, Control_c, 0, 67, 112
1, 303768, Control_c, 1, 67, 112
1, 303804, Control_c, 1, 67, 108
1, 303804, Control_c, 0, 67, 108
1, 303863, Note_off_c, 0, 87, 33
1, 303882, Note_off_c, 0, 75, 42
1, 304024, Note_on_c, 0, 57, 52
1, 304028, Control_c, 0, 64, 91
1, 304028, Control_c, 1, 64, 91
1, 304034, Note_off_c, 0, 58, 59
1, 304041, Note_on_c, 0, 66, 54
1, 304047, Control_c, 0, 64, 62
1, 304047, Control_c, 1, 64, 62
1, 304050, Note_on_c, 0, 54, 49
1, 304061, Note_on_c, 0, 86, 48
1, 304065, Control_c, 0, 64, 42
1, 304065, Control_c, 1, 64, 42
1, 304120, Control_c, 1, 64, 59
1, 304120, Control_c, 0, 64, 59
1, 304141, Control_c, 0, 64, 89
1, 304141, Control_c, 1, 64, 89
1, 304159, Control_c, 1, 64, 127
1, 304159, Control_c, 0, 64, 127
1, 304167, Poly_aftertouch_c, 0, 74, 127
1, 304195, Note_off_c, 0, 57, 62
1, 304206, Note_off_c, 0, 86, 60
1, 304224, Poly_aftertouch_c, 0, 74, 0
1, 304265, Note_off_c, 0, 66, 58
1, 304265, Poly_aftertouch_c, 0, 66, 0
1, 304346, Note_on_c, 0, 86, 55
1, 304366, Note_on_c, 0, 74, 47
1, 304383, Note_off_c, 0, 54, 63
1, 304401, Note_off_c, 0, 74, 50
1, 304429, Note_off_c, 0, 86, 56
1, 304437, Note_on_c, 0, 55, 61
1, 304441, Note_on_c, 0, 63, 60
1, 304441, Note_on_c, 0, 51, 64
1, 304595, Note_on_c, 0, 86, 64
1, 304635, Note_on_c, 0, 74, 25
1, 304684, Note_off_c, 0, 74, 41
1, 304694, Note_off_c, 0, 86, 57
1, 304705, Note_off_c, 0, 55, 56
1, 304714, Poly_aftertouch_c, 0, 86, 0
1, 304739, Note_off_c, 0, 63, 63
1, 304758, Control_c, 0, 64, 98
1, 304758, Control_c, 1, 64, 98
1, 304759, Note_off_c, 0, 51, 60
1, 304759, Control_c, 0, 67, 101
1, 304759, Control_c, 1, 67, 101
1, 304769, Note_on_c, 0, 54, 65
1, 304774, Note_on_c, 0, 62, 70
1, 304776, Control_c, 0, 64, 69
1, 304776, Control_c, 1, 64, 69
1, 304777, Note_on_c, 0, 50, 65
1, 304796, Control_c, 0, 64, 62
1, 304796, Control_c, 1, 64, 62
1, 304797, Control_c, 1, 67, 97
1, 304797, Control_c, 0, 67, 97
1, 304810, Note_on_c, 0, 74, 55
1, 304815, Control_c, 0, 64, 69
1, 304815, Control_c, 1, 64, 69
1, 304833, Control_c, 1, 64, 80
1, 304833, Control_c, 0, 64, 80
1, 304851, Note_off_c, 0, 74, 64
1, 304851, Control_c, 0, 64, 118
1, 304851, Control_c, 1, 64, 118
1, 304855, Control_c, 1, 67, 90
1, 304855, Poly_aftertouch_c, 0, 86, 127
1, 304855, Control_c, 0, 67, 90
1, 304871, Control_c, 0, 64, 127
1, 304871, Control_c, 1, 64, 127
1, 304872, Control_c, 1, 67, 86
1, 304872, Control_c, 0, 67, 86
1, 304875, Poly_aftertouch_c, 0, 86, 0
1, 304889, Control_c, 0, 67, 82
1, 304889, Control_c, 1, 67, 82
1, 304925, Control_c, 1, 67, 74
1, 304925, Control_c, 0, 67, 74
1, 304941, Note_off_c, 0, 54, 62
1, 304947, Note_off_c, 0, 62, 60
1, 304964, Control_c, 0, 67, 69
1, 304964, Control_c, 1, 67, 69
1, 304978, Note_on_c, 0, 86, 65
1, 304985, Note_on_c, 0, 74, 58
1, 305022, Control_c, 0, 67, 64
1, 305022, Control_c, 1, 67, 64
1, 305058, Note_off_c, 0, 74, 55
1, 305061, Note_on_c, 0, 58, 77
1, 305066, Note_on_c, 0, 46, 80
1, 305077, Note_off_c, 0, 50, 62
1, 305085, Note_off_c, 0, 86, 61
1, 305114, Control_c, 0, 67, 60
1, 305114, Control_c, 1, 67, 60
1, 305151, Control_c, 1, 67, 55
1, 305151, Control_c, 0, 67, 55
1, 305188, Control_c, 0, 67, 50
1, 305188, Control_c, 1, 67, 50
1, 305195, Note_on_c, 0, 86, 68
1, 305204, Note_on_c, 0, 74, 62
1, 305231, Note_on_c, 0, 85, 32
1, 305239, Note_off_c, 0, 74, 53
1, 305243, Control_c, 0, 67, 45
1, 305243, Control_c, 1, 67, 45
1, 305274, Note_off_c, 0, 86, 62
1, 305282, Note_off_c, 0, 85, 46
1, 305290, Note_off_c, 0, 58, 62
1, 305301, Control_c, 0, 67, 40
1, 305301, Control_c, 1, 67, 40
1, 305353, Note_on_c, 0, 45, 80
1, 305357, Control_c, 0, 64, 89
1, 305357, Control_c, 1, 64, 89
1, 305359, Note_on_c, 0, 57, 77
1, 305372, Note_on_c, 0, 86, 71
1, 305373, Note_off_c, 0, 46, 63
1, 305376, Control_c, 0, 64, 62
1, 305376, Control_c, 1, 64, 62
1, 305378, Control_c, 1, 67, 36
1, 305378, Note_on_c, 0, 74, 58
1, 305378, Control_c, 0, 67, 36
1, 305394, Control_c, 0, 64, 57
1, 305394, Control_c, 1, 64, 57
1, 305413, Control_c, 1, 64, 67
1, 305413, Control_c, 0, 64, 67
1, 305433, Control_c, 0, 64, 86
1, 305433, Control_c, 1, 64, 86
1, 305439, Note_off_c, 0, 74, 53
1, 305451, Control_c, 0, 64, 127
1, 305451, Control_c, 1, 64, 127
1, 305452, Control_c, 1, 67, 30
1, 305452, Control_c, 0, 67, 30
1, 305469, Note_off_c, 0, 86, 62
1, 305489, Control_c, 0, 67, 26
1, 305489, Control_c, 1, 67, 26
1, 305514, Note_off_c, 0, 57, 61
1, 305542, Note_on_c, 0, 86, 69
1, 305567, Note_on_c, 0, 74, 66
1, 305612, Note_off_c, 0, 74, 55
1, 305617, Note_on_c, 0, 54, 81
1, 305619, Note_on_c, 0, 42, 81
1, 305646, Note_off_c, 0, 86, 62
1, 305657, Note_off_c, 0, 45, 59
1, 305723, Note_on_c, 0, 86, 72
1, 305731, Control_c, 0, 64, 86
1, 305731, Control_c, 1, 64, 86
1, 305742, Note_on_c, 0, 74, 72
1, 305749, Control_c, 0, 64, 76
1, 305749, Control_c, 1, 64, 76
1, 305769, Control_c, 1, 64, 86
1, 305769, Control_c, 0, 64, 86
1, 305775, Note_off_c, 0, 54, 63
1, 305788, Control_c, 0, 64, 127
1, 305788, Control_c, 1, 64, 127
1, 305798, Note_off_c, 0, 74, 52
1, 305838, Note_off_c, 0, 86, 62
1, 305892, Note_off_c, 0, 42, 61
1, 305904, Note_on_c, 0, 38, 79
1, 305910, Note_on_c, 0, 50, 75
1, 305919, Note_on_c, 0, 86, 72
1, 305919, Control_c, 0, 64, 98
1, 305919, Control_c, 1, 64, 98
1, 305938, Control_c, 1, 64, 66
1, 305938, Control_c, 0, 64, 66
1, 305939, Note_on_c, 0, 74, 71
1, 305956, Control_c, 0, 64, 46
1, 305956, Control_c, 1, 64, 46
1, 305975, Control_c, 1, 64, 42
1, 305975, Control_c, 0, 64, 42
1, 306007, Poly_aftertouch_c, 0, 84, 0
1, 306012, Control_c, 0, 64, 54
1, 306012, Control_c, 1, 64, 54
1, 306014, Note_off_c, 0, 74, 56
1, 306031, Control_c, 0, 64, 83
1, 306031, Control_c, 1, 64, 83
1, 306039, Note_off_c, 0, 86, 62
1, 306050, Control_c, 0, 64, 127
1, 306050, Control_c, 1, 64, 127
1, 306094, Note_off_c, 0, 50, 59
1, 306104, Note_on_c, 0, 86, 69
1, 306119, Note_on_c, 0, 74, 64
1, 306222, Note_off_c, 0, 74, 58
1, 306306, Note_on_c, 0, 37, 70
1, 306312, Note_on_c, 0, 49, 68
1, 306334, Note_off_c, 0, 38, 47
1, 306349, Control_c, 0, 64, 116
1, 306349, Control_c, 1, 64, 116
1, 306368, Control_c, 1, 64, 64
1, 306368, Control_c, 0, 64, 64
1, 306387, Control_c, 0, 64, 23
1, 306387, Control_c, 1, 64, 23
1, 306406, Control_c, 1, 64, 0
1, 306406, Control_c, 0, 64, 0
1, 306445, Note_on_c, 0, 85, 67
1, 306457, Note_on_c, 0, 73, 62
1, 306460, Control_c, 0, 64, 17
1, 306460, Control_c, 1, 64, 17
1, 306480, Control_c, 1, 64, 57
1, 306480, Control_c, 0, 64, 57
1, 306499, Control_c, 0, 64, 127
1, 306499, Control_c, 1, 64, 127
1, 306505, Note_off_c, 0, 86, 56
1, 306524, Note_off_c, 0, 37, 63
1, 306547, Note_off_c, 0, 73, 56
1, 306552, Note_off_c, 0, 85, 64
1, 306568, Note_off_c, 0, 49, 62
1, 306574, Control_c, 0, 67, 30
1, 306574, Control_c, 1, 67, 30
1, 306688, Note_on_c, 0, 85, 63
1, 306698, Note_on_c, 0, 73, 56
1, 306723, Control_c, 0, 67, 35
1, 306723, Control_c, 1, 67, 35
1, 306739, Note_off_c, 0, 73, 60
1, 306740, Note_off_c, 0, 85, 56
1, 306855, Control_c, 0, 67, 41
1, 306855, Control_c, 1, 67, 41
1, 306867, Note_on_c, 0, 73, 46
1, 306868, Note_on_c, 0, 85, 61
1, 306891, Control_c, 0, 67, 45
1, 306891, Control_c, 1, 67, 45
1, 306936, Note_off_c, 0, 73, 52
1, 306955, Note_off_c, 0, 85, 59
1, 306998, Note_on_c, 0, 72, 70
1, 307004, Note_on_c, 0, 60, 62
1, 307103, Note_on_c, 0, 73, 57
1, 307103, Note_on_c, 0, 85, 66
1, 307112, Note_off_c, 0, 72, 61
1, 307156, Note_off_c, 0, 85, 52
1, 307160, Note_off_c, 0, 73, 54
1, 307304, Control_c, 0, 64, 112
1, 307304, Control_c, 1, 64, 112
1, 307313, Note_on_c, 0, 85, 64
1, 307321, Control_c, 0, 64, 75
1, 307321, Control_c, 1, 64, 75
1, 307327, Note_on_c, 0, 58, 73
1, 307329, Note_on_c, 0, 73, 50
1, 307340, Control_c, 0, 64, 64
1, 307340, Control_c, 1, 64, 64
1, 307344, Note_on_c, 0, 70, 59
1, 307360, Note_off_c, 0, 60, 56
1, 307360, Control_c, 0, 64, 71
1, 307360, Control_c, 1, 64, 71
1, 307380, Control_c, 1, 64, 91
1, 307380, Control_c, 0, 64, 91
1, 307386, Note_off_c, 0, 73, 58
1, 307396, Control_c, 0, 64, 127
1, 307396, Control_c, 1, 64, 127
1, 307412, Note_off_c, 0, 85, 61
1, 307443, Note_off_c, 0, 70, 63
1, 307443, Poly_aftertouch_c, 0, 70, 0
1, 307501, Note_on_c, 0, 85, 57
1, 307524, Note_on_c, 0, 73, 55
1, 307566, Note_off_c, 0, 73, 63
1, 307587, Note_off_c, 0, 85, 59
1, 307593, Note_on_c, 0, 56, 67
1, 307602, Note_on_c, 0, 68, 66
1, 307607, Note_on_c, 0, 60, 63
1, 307609, Note_off_c, 0, 58, 61
1, 307641, Control_c, 0, 64, 110
1, 307641, Control_c, 1, 64, 110
1, 307659, Control_c, 1, 64, 77
1, 307659, Control_c, 0, 64, 77
1, 307678, Control_c, 0, 64, 73
1, 307678, Control_c, 1, 64, 73
1, 307681, Note_on_c, 0, 73, 60
1, 307684, Note_on_c, 0, 85, 56
1, 307697, Control_c, 0, 64, 88
1, 307697, Control_c, 1, 64, 88
1, 307716, Control_c, 1, 64, 127
1, 307716, Control_c, 0, 64, 127
1, 307734, Note_off_c, 0, 73, 54
1, 307755, Note_off_c, 0, 85, 58
1, 307790, Note_off_c, 0, 68, 57
1, 307849, Note_off_c, 0, 60, 49
1, 307854, Note_on_c, 0, 85, 62
1, 307861, Note_on_c, 0, 58, 77
1, 307863, Note_on_c, 0, 67, 74
1, 307865, Control_c, 0, 64, 76
1, 307865, Control_c, 1, 64, 76
1, 307871, Note_on_c, 0, 73, 60
1, 307873, Note_off_c, 0, 56, 59
1, 307884, Control_c, 0, 64, 64
1, 307884, Control_c, 1, 64, 64
1, 307887, Note_on_c, 0, 55, 64
1, 307901, Note_off_c, 0, 73, 59
1, 307902, Control_c, 0, 64, 73
1, 307902, Control_c, 1, 64, 73
1, 307922, Control_c, 1, 64, 104
1, 307922, Control_c, 0, 64, 104
1, 307923, Note_off_c, 0, 85, 53
1, 307940, Control_c, 0, 64, 127
1, 307940, Control_c, 1, 64, 127
1, 307960, Note_off_c, 0, 58, 63
1, 308000, Note_off_c, 0, 67, 58
1, 308004, Note_on_c, 0, 73, 68
1, 308014, Note_on_c, 0, 85, 63
1, 308073, Note_off_c, 0, 73, 57
1, 308086, Note_off_c, 0, 85, 59
1, 308088, Control_c, 0, 64, 102
1, 308088, Control_c, 1, 64, 102
1, 308108, Control_c, 1, 64, 69
1, 308108, Note_on_c, 0, 53, 74
1, 308108, Control_c, 0, 64, 69
1, 308111, Note_on_c, 0, 56, 71
1, 308112, Note_on_c, 0, 65, 70
1, 308127, Control_c, 0, 64, 60
1, 308127, Control_c, 1, 64, 60
1, 308145, Control_c, 1, 64, 70
1, 308145, Control_c, 0, 64, 70
1, 308147, Note_off_c, 0, 55, 59
1, 308165, Control_c, 0, 64, 98
1, 308165, Control_c, 1, 64, 98
1, 308175, Note_on_c, 0, 85, 61
1, 308185, Control_c, 0, 64, 127
1, 308185, Control_c, 1, 64, 127
1, 308186, Note_on_c, 0, 73, 61
1, 308230, Note_off_c, 0, 73, 59
1, 308258, Note_off_c, 0, 65, 55
1, 308262, Note_off_c, 0, 85, 62
1, 308350, Note_on_c, 0, 85, 60
1, 308352, Control_c, 0, 64, 82
1, 308352, Control_c, 1, 64, 82
1, 308370, Control_c, 1, 64, 60
1, 308370, Note_on_c, 0, 73, 58
1, 308370, Control_c, 0, 64, 60
1, 308373, Note_off_c, 0, 53, 58
1, 308378, Note_on_c, 0, 64, 71
1, 308381, Note_on_c, 0, 55, 68
1, 308382, Note_on_c, 0, 52, 66
1, 308408, Control_c, 0, 64, 78
1, 308408, Control_c, 1, 64, 78
1, 308410, Note_off_c, 0, 56, 48
1, 308419, Note_off_c, 0, 73, 63
1, 308427, Control_c, 0, 64, 127
1, 308427, Control_c, 1, 64, 127
1, 308443, Note_off_c, 0, 85, 60
1, 308503, Control_c, 0, 67, 50
1, 308503, Control_c, 1, 67, 50
1, 308504, Note_off_c, 0, 55, 61
1, 308518, Note_on_c, 0, 85, 60
1, 308520, Note_off_c, 0, 64, 61
1, 308536, Note_on_c, 0, 73, 64
1, 308585, Note_off_c, 0, 73, 52
1, 308612, Note_off_c, 0, 85, 62
1, 308613, Control_c, 0, 64, 78
1, 308613, Control_c, 1, 64, 78
1, 308636, Control_c, 1, 64, 61
1, 308636, Note_on_c, 0, 53, 69
1, 308636, Control_c, 0, 64, 61
1, 308640, Note_on_c, 0, 56, 63
1, 308641, Note_on_c, 0, 65, 68
1, 308652, Control_c, 0, 64, 64
1, 308652, Control_c, 1, 64, 64
1, 308653, Control_c, 1, 67, 56
1, 308653, Control_c, 0, 67, 56
1, 308661, Note_off_c, 0, 52, 56
1, 308669, Control_c, 0, 64, 79
1, 308669, Control_c, 1, 64, 79
1, 308689, Control_c, 1, 64, 127
1, 308689, Control_c, 0, 64, 127
1, 308691, Control_c, 0, 67, 60
1, 308691, Control_c, 1, 67, 60
1, 308724, Note_on_c, 0, 85, 68
1, 308725, Control_c, 0, 67, 64
1, 308725, Control_c, 1, 67, 64
1, 308727, Note_on_c, 0, 73, 65
1, 308763, Control_c, 0, 67, 68
1, 308763, Control_c, 1, 67, 68
1, 308799, Note_off_c, 0, 65, 54
1, 308827, Note_off_c, 0, 73, 51
1, 308847, Note_off_c, 0, 85, 63
1, 308923, Note_off_c, 0, 53, 58
1, 308932, Control_c, 0, 64, 74
1, 308932, Control_c, 1, 64, 74
1, 308950, Control_c, 1, 64, 41
1, 308950, Control_c, 0, 64, 41
1, 308957, Note_on_c, 0, 55, 55
1, 308958, Note_on_c, 0, 52, 57
1, 308962, Note_off_c, 0, 56, 60
1, 308966, Note_on_c, 0, 64, 57
1, 308966, Note_on_c, 0, 84, 60
1, 308970, Control_c, 0, 64, 29
1, 308970, Control_c, 1, 64, 29
1, 308988, Control_c, 1, 64, 33
1, 308988, Control_c, 0, 64, 33
1, 308993, Note_on_c, 0, 72, 39
1, 309007, Control_c, 0, 64, 53
1, 309007, Control_c, 1, 64, 53
1, 309025, Control_c, 1, 64, 91
1, 309025, Control_c, 0, 64, 91
1, 309030, Note_off_c, 0, 72, 51
1, 309037, Note_off_c, 0, 55, 62
1, 309043, Control_c, 0, 64, 127
1, 309043, Control_c, 1, 64, 127
1, 309066, Note_off_c, 0, 64, 62
1, 309075, Note_off_c, 0, 84, 57
1, 309164, Note_on_c, 0, 84, 55
1, 309180, Note_on_c, 0, 72, 38
1, 309227, Note_off_c, 0, 72, 48
1, 309245, Note_on_c, 0, 49, 67
1, 309252, Note_on_c, 0, 61, 58
1, 309253, Note_off_c, 0, 84, 60
1, 309262, Note_off_c, 0, 52, 60
1, 309269, Note_on_c, 0, 53, 62
1, 309307, Control_c, 0, 64, 91
1, 309307, Control_c, 1, 64, 91
1, 309326, Control_c, 1, 64, 61
1, 309326, Control_c, 0, 64, 61
1, 309328, Control_c, 0, 67, 72
1, 309328, Control_c, 1, 67, 72
1, 309344, Control_c, 1, 64, 51
1, 309344, Control_c, 0, 64, 51
1, 309363, Control_c, 0, 64, 62
1, 309363, Control_c, 1, 64, 62
1, 309364, Control_c, 1, 67, 76
1, 309364, Control_c, 0, 67, 76
1, 309375, Note_on_c, 0, 84, 57
1, 309382, Control_c, 0, 64, 89
1, 309382, Control_c, 1, 64, 89
1, 309389, Note_on_c, 0, 72, 39
1, 309400, Control_c, 0, 64, 127
1, 309400, Control_c, 1, 64, 127
1, 309419, Control_c, 1, 67, 81
1, 309419, Control_c, 0, 67, 81
1, 309427, Note_off_c, 0, 72, 52
1, 309434, Note_off_c, 0, 84, 53
1, 309463, Note_off_c, 0, 61, 54
1, 309482, Note_off_c, 0, 53, 50
1, 309513, Note_off_c, 0, 49, 53
1, 309531, Control_c, 0, 64, 106
1, 309531, Control_c, 1, 64, 106
1, 309550, Control_c, 1, 64, 71
1, 309550, Control_c, 0, 64, 71
1, 309553, Note_on_c, 0, 48, 56
1, 309553, Note_on_c, 0, 60, 63
1, 309560, Note_on_c, 0, 52, 55
1, 309562, Note_on_c, 0, 72, 49
1, 309564, Note_on_c, 0, 84, 60
1, 309568, Control_c, 0, 64, 61
1, 309568, Control_c, 1, 64, 61
1, 309589, Control_c, 1, 64, 71
1, 309589, Control_c, 0, 64, 71
1, 309603, Note_off_c, 0, 72, 60
1, 309604, Control_c, 0, 64, 105
1, 309604, Control_c, 1, 64, 105
1, 309611, Note_off_c, 0, 84, 58
1, 309625, Control_c, 0, 64, 127
1, 309625, Control_c, 1, 64, 127
1, 309643, Note_off_c, 0, 52, 60
1, 309669, Note_off_c, 0, 60, 56
1, 309720, Note_on_c, 0, 72, 63
1, 309740, Note_on_c, 0, 84, 61
1, 309765, Note_off_c, 0, 72, 59
1, 309794, Note_off_c, 0, 84, 56
1, 309809, Note_on_c, 0, 56, 63
1, 309814, Note_on_c, 0, 44, 73
1, 309846, Note_off_c, 0, 48, 60
1, 309848, Control_c, 0, 67, 85
1, 309848, Control_c, 1, 67, 85
1, 309921, Note_on_c, 0, 72, 62
1, 309925, Note_on_c, 0, 84, 64
1, 309965, Note_on_c, 0, 82, 18
1, 309968, Note_off_c, 0, 72, 58
1, 309999, Note_off_c, 0, 84, 59
1, 310031, Note_off_c, 0, 82, 43
1, 310038, Note_off_c, 0, 56, 52
1, 310110, Note_on_c, 0, 43, 63
1, 310111, Control_c, 0, 64, 85
1, 310111, Control_c, 1, 64, 85
1, 310122, Note_on_c, 0, 84, 52
1, 310123, Note_on_c, 0, 55, 58
1, 310124, Note_on_c, 0, 72, 56
1, 310130, Control_c, 0, 64, 35
1, 310130, Control_c, 1, 64, 35
1, 310148, Control_c, 1, 64, 0
1, 310148, Control_c, 0, 64, 0
1, 310159, Note_off_c, 0, 44, 37
1, 310177, Note_off_c, 0, 72, 52
1, 310205, Control_c, 0, 64, 14
1, 310205, Control_c, 1, 64, 14
1, 310211, Poly_aftertouch_c, 0, 82, 0
1, 310221, Note_off_c, 0, 84, 52
1, 310223, Control_c, 0, 64, 39
1, 310223, Control_c, 1, 64, 39
1, 310243, Control_c, 1, 64, 86
1, 310243, Control_c, 0, 64, 86
1, 310261, Control_c, 0, 64, 127
1, 310261, Control_c, 1, 64, 127
1, 310272, Note_off_c, 0, 55, 59
1, 310318, Note_on_c, 0, 84, 57
1, 310327, Note_on_c, 0, 72, 59
1, 310370, Note_off_c, 0, 72, 62
1, 310402, Note_off_c, 0, 84, 55
1, 310413, Poly_aftertouch_c, 0, 82, 0
1, 310422, Note_on_c, 0, 52, 50
1, 310424, Note_on_c, 0, 40, 44
1, 310451, Note_off_c, 0, 43, 60
1, 310462, Note_on_c, 0, 41, 36
1, 310510, Note_off_c, 0, 41, 45
1, 310541, Note_on_c, 0, 84, 60
1, 310541, Control_c, 0, 67, 89
1, 310541, Control_c, 1, 67, 89
1, 310542, Note_on_c, 0, 72, 54
1, 310549, Note_off_c, 0, 52, 53
1, 310586, Note_off_c, 0, 72, 59
1, 310604, Note_off_c, 0, 84, 53
1, 310612, Poly_aftertouch_c, 0, 82, 127
1, 310660, Poly_aftertouch_c, 0, 82, 0
1, 310771, Note_off_c, 0, 40, 47
1, 310771, Note_on_c, 0, 36, 57
1, 310785, Control_c, 0, 64, 74
1, 310785, Control_c, 1, 64, 74
1, 310788, Control_c, 1, 67, 93
1, 310788, Control_c, 0, 67, 93
1, 310797, Note_on_c, 0, 84, 53
1, 310802, Note_on_c, 0, 48, 46
1, 310804, Control_c, 0, 64, 35
1, 310804, Control_c, 1, 64, 35
1, 310822, Control_c, 1, 64, 0
1, 310822, Control_c, 0, 64, 0
1, 310823, Control_c, 0, 67, 100
1, 310823, Control_c, 1, 67, 100
1, 310879, Control_c, 1, 67, 105
1, 310879, Control_c, 0, 67, 105
1, 310897, Control_c, 0, 64, 33
1, 310897, Control_c, 1, 64, 33
1, 310917, Control_c, 1, 64, 70
1, 310917, Control_c, 0, 64, 70
1, 310920, Poly_aftertouch_c, 0, 72, 0
1, 310923, Note_off_c, 0, 84, 52
1, 310937, Control_c, 0, 64, 127
1, 310937, Control_c, 1, 64, 127
1, 310992, Note_off_c, 0, 48, 57
1, 311045, Note_on_c, 0, 84, 58
1, 311050, Note_on_c, 0, 72, 51
1, 311066, Control_c, 0, 67, 109
1, 311066, Control_c, 1, 67, 109
1, 311100, Note_off_c, 0, 72, 45
1, 311195, Note_off_c, 0, 36, 54
1, 311204, Note_on_c, 0, 47, 47
1, 311214, Note_on_c, 0, 35, 46
1, 311235, Control_c, 0, 64, 75
1, 311235, Control_c, 1, 64, 75
1, 311254, Control_c, 1, 64, 34
1, 311254, Control_c, 0, 64, 34
1, 311272, Control_c, 0, 64, 0
1, 311272, Control_c, 1, 64, 0
1, 311322, Note_off_c, 0, 84, 34
1, 311332, Note_on_c, 0, 83, 52
1, 311347, Control_c, 0, 64, 22
1, 311347, Control_c, 1, 64, 22
1, 311359, Note_on_c, 0, 71, 24
1, 311365, Control_c, 0, 64, 63
1, 311365, Control_c, 1, 64, 63
1, 311385, Control_c, 1, 64, 127
1, 311385, Control_c, 0, 64, 127
1, 311390, Note_off_c, 0, 35, 60
1, 311401, Note_off_c, 0, 83, 49
1, 311421, Control_c, 0, 67, 113
1, 311421, Control_c, 1, 67, 113
1, 311432, Note_off_c, 0, 47, 63
1, 311486, Note_off_c, 0, 71, 42
1, 311608, Note_on_c, 0, 83, 45
1, 311608, Note_on_c, 0, 71, 57
1, 311659, Note_off_c, 0, 71, 56
1, 311671, Note_off_c, 0, 83, 47
1, 311777, Control_c, 0, 67, 118
1, 311777, Control_c, 1, 67, 118
1, 311812, Note_on_c, 0, 71, 53
1, 311813, Note_on_c, 0, 83, 50
1, 311856, Note_off_c, 0, 71, 47
1, 311889, Control_c, 0, 67, 122
1, 311889, Control_c, 1, 67, 122
1, 311894, Note_off_c, 0, 83, 56
1, 311925, Note_on_c, 0, 57, 49
1, 311926, Note_on_c, 0, 69, 55
1, 311944, Note_on_c, 0, 60, 46
1, 312002, Control_c, 0, 67, 127
1, 312002, Control_c, 1, 67, 127
1, 312070, Note_off_c, 0, 69, 45
1, 312076, Note_on_c, 0, 83, 52
1, 312125, Note_off_c, 0, 83, 60
1, 312282, Control_c, 0, 64, 113
1, 312282, Control_c, 1, 64, 113
1, 312296, Note_off_c, 0, 57, 60
1, 312296, Poly_aftertouch_c, 0, 60, 24
1, 312301, Control_c, 0, 64, 70
1, 312301, Control_c, 1, 64, 70
1, 312311, Note_off_c, 0, 60, 55
1, 312311, Poly_aftertouch_c, 0, 60, 0
1, 312319, Control_c, 0, 64, 46
1, 312319, Control_c, 1, 64, 46
1, 312331, Note_on_c, 0, 67, 58
1, 312337, Note_on_c, 0, 59, 50
1, 312338, Note_on_c, 0, 55, 43
1, 312338, Control_c, 0, 64, 43
1, 312338, Control_c, 1, 64, 43
1, 312350, Note_on_c, 0, 83, 50
1, 312357, Control_c, 0, 64, 52
1, 312357, Control_c, 1, 64, 52
1, 312376, Control_c, 1, 64, 67
1, 312376, Control_c, 0, 64, 67
1, 312396, Control_c, 0, 64, 88
1, 312396, Control_c, 1, 64, 88
1, 312403, Note_off_c, 0, 59, 60
1, 312403, Poly_aftertouch_c, 0, 59, 0
1, 312404, Note_off_c, 0, 83, 58
1, 312413, Control_c, 0, 64, 127
1, 312413, Control_c, 1, 64, 127
1, 312430, Poly_aftertouch_c, 0, 71, 0
1, 312468, Note_off_c, 0, 67, 62
1, 312542, Note_on_c, 0, 83, 63
1, 312590, Note_on_c, 0, 71, 27
1, 312617, Note_off_c, 0, 83, 46
1, 312619, Note_on_c, 0, 54, 62
1, 312620, Note_on_c, 0, 66, 62
1, 312632, Note_off_c, 0, 55, 61
1, 312641, Note_off_c, 0, 71, 43
1, 312641, Note_on_c, 0, 57, 62
1, 312657, Control_c, 0, 64, 86
1, 312657, Control_c, 1, 64, 86
1, 312676, Control_c, 1, 64, 69
1, 312676, Control_c, 0, 64, 69
1, 312694, Control_c, 0, 64, 72
1, 312694, Control_c, 1, 64, 72
1, 312714, Control_c, 1, 64, 86
1, 312714, Control_c, 0, 64, 86
1, 312732, Control_c, 0, 64, 127
1, 312732, Control_c, 1, 64, 127
1, 312755, Note_on_c, 0, 71, 59
1, 312759, Note_on_c, 0, 83, 60
1, 312787, Note_off_c, 0, 66, 58
1, 312787, Poly_aftertouch_c, 0, 66, 0
1, 312795, Note_off_c, 0, 71, 61
1, 312801, Note_off_c, 0, 83, 59
1, 312863, Control_c, 0, 64, 106
1, 312863, Control_c, 1, 64, 106
1, 312882, Control_c, 1, 64, 73
1, 312882, Control_c, 0, 64, 73
1, 312888, Note_off_c, 0, 54, 52
1, 312900, Control_c, 0, 64, 58
1, 312900, Control_c, 1, 64, 58
1, 312908, Note_on_c, 0, 64, 69
1, 312912, Note_on_c, 0, 55, 61
1, 312919, Control_c, 0, 64, 64
1, 312919, Control_c, 1, 64, 64
1, 312928, Note_on_c, 0, 52, 61
1, 312929, Note_off_c, 0, 57, 48
1, 312935, Note_on_c, 0, 83, 59
1, 312937, Control_c, 0, 64, 80
1, 312937, Control_c, 1, 64, 80
1, 312939, Note_on_c, 0, 71, 52
1, 312956, Control_c, 0, 64, 127
1, 312956, Control_c, 1, 64, 127
1, 312968, Note_off_c, 0, 71, 60
1, 312973, Note_off_c, 0, 83, 63
1, 312991, Note_off_c, 0, 55, 60
1, 313034, Note_off_c, 0, 64, 64
1, 313085, Note_on_c, 0, 71, 58
1, 313102, Note_on_c, 0, 83, 59
1, 313138, Note_off_c, 0, 71, 59
1, 313143, Note_off_c, 0, 83, 62
1, 313156, Note_on_c, 0, 51, 71
1, 313157, Note_on_c, 0, 54, 73
1, 313158, Note_on_c, 0, 63, 71
1, 313161, Control_c, 0, 64, 98
1, 313161, Control_c, 1, 64, 98
1, 313175, Note_off_c, 0, 52, 62
1, 313180, Control_c, 0, 64, 66
1, 313180, Control_c, 1, 64, 66
1, 313200, Control_c, 1, 64, 53
1, 313200, Control_c, 0, 64, 53
1, 313219, Control_c, 0, 64, 59
1, 313219, Control_c, 1, 64, 59
1, 313237, Control_c, 1, 64, 74
1, 313237, Control_c, 0, 64, 74
1, 313257, Control_c, 0, 64, 116
1, 313257, Control_c, 1, 64, 116
1, 313260, Note_on_c, 0, 83, 64
1, 313273, Note_on_c, 0, 71, 56
1, 313274, Control_c, 0, 64, 127
1, 313274, Control_c, 1, 64, 127
1, 313315, Note_off_c, 0, 71, 66
1, 313347, Note_off_c, 0, 63, 62
1, 313362, Note_off_c, 0, 54, 54
1, 313385, Note_off_c, 0, 51, 60
1, 313433, Note_on_c, 0, 52, 59
1, 313444, Note_on_c, 0, 64, 60
1, 313444, Control_c, 0, 64, 94
1, 313444, Control_c, 1, 64, 94
1, 313455, Note_on_c, 0, 55, 55
1, 313462, Control_c, 0, 64, 62
1, 313462, Control_c, 1, 64, 62
1, 313465, Note_on_c, 0, 82, 66
1, 313480, Note_on_c, 0, 70, 54
1, 313480, Control_c, 0, 64, 45
1, 313480, Control_c, 1, 64, 45
1, 313499, Control_c, 1, 64, 48
1, 313499, Control_c, 0, 64, 48
1, 313500, Note_off_c, 0, 83, 50
1, 313519, Control_c, 0, 64, 64
1, 313519, Control_c, 1, 64, 64
1, 313529, Note_off_c, 0, 70, 60
1, 313529, Poly_aftertouch_c, 0, 70, 0
1, 313536, Control_c, 0, 64, 90
1, 313536, Control_c, 1, 64, 90
1, 313550, Note_off_c, 0, 82, 62
1, 313553, Control_c, 0, 64, 127
1, 313553, Control_c, 1, 64, 127
1, 313556, Note_off_c, 0, 55, 60
1, 313578, Note_off_c, 0, 64, 57
1, 313641, Note_on_c, 0, 82, 64
1, 313656, Note_on_c, 0, 70, 60
1, 313705, Note_off_c, 0, 70, 62
1, 313705, Poly_aftertouch_c, 0, 70, 0
1, 313706, Control_c, 0, 64, 106
1, 313706, Control_c, 1, 64, 106
1, 313721, Note_on_c, 0, 50, 65
1, 313725, Note_off_c, 0, 82, 59
1, 313725, Control_c, 0, 64, 70
1, 313725, Control_c, 1, 64, 70
1, 313742, Note_on_c, 0, 62, 51
1, 313743, Control_c, 0, 64, 49
1, 313743, Control_c, 1, 64, 49
1, 313761, Control_c, 1, 64, 43
1, 313761, Control_c, 0, 64, 43
1, 313767, Note_on_c, 0, 53, 53
1, 313780, Control_c, 0, 64, 50
1, 313780, Control_c, 1, 64, 50
1, 313782, Note_off_c, 0, 52, 56
1, 313799, Control_c, 0, 64, 69
1, 313799, Control_c, 1, 64, 69
1, 313817, Control_c, 1, 64, 108
1, 313817, Control_c, 0, 64, 108
1, 313834, Control_c, 0, 64, 127
1, 313834, Control_c, 1, 64, 127
1, 313841, Note_on_c, 0, 82, 67
1, 313845, Note_on_c, 0, 70, 60
1, 313857, Note_off_c, 0, 62, 60
1, 313884, Note_off_c, 0, 50, 62
1, 313895, Note_off_c, 0, 70, 59
1, 313895, Poly_aftertouch_c, 0, 70, 0
1, 313914, Note_off_c, 0, 82, 53
1, 314081, Note_off_c, 0, 53, 57
1, 314098, Control_c, 0, 64, 102
1, 314098, Control_c, 1, 64, 102
1, 314115, Note_on_c, 0, 61, 54
1, 314117, Control_c, 0, 64, 63
1, 314117, Control_c, 1, 64, 63
1, 314136, Control_c, 1, 64, 34
1, 314136, Control_c, 0, 64, 34
1, 314146, Note_on_c, 0, 49, 52
1, 314152, Note_on_c, 0, 81, 55
1, 314154, Control_c, 0, 64, 18
1, 314154, Control_c, 1, 64, 18
1, 314155, Note_on_c, 0, 52, 43
1, 314177, Note_on_c, 0, 69, 29
1, 314193, Control_c, 0, 64, 25
1, 314193, Control_c, 1, 64, 25
1, 314211, Control_c, 1, 64, 45
1, 314211, Control_c, 0, 64, 45
1, 314224, Note_off_c, 0, 52, 59
1, 314228, Control_c, 0, 64, 79
1, 314228, Control_c, 1, 64, 79
1, 314233, Note_off_c, 0, 69, 40
1, 314249, Control_c, 0, 64, 127
1, 314249, Control_c, 1, 64, 127
1, 314262, Note_off_c, 0, 81, 56
1, 314265, Note_off_c, 0, 49, 62
1, 314285, Note_off_c, 0, 61, 58
1, 314426, Note_on_c, 0, 81, 52
1, 314482, Note_off_c, 0, 81, 52
1, 314533, Poly_aftertouch_c, 0, 69, 0
1, 314573, Note_on_c, 0, 67, 56
1, 314583, Note_on_c, 0, 55, 52
1, 314587, Note_on_c, 0, 58, 43
1, 314734, Note_off_c, 0, 67, 36
1, 314751, Note_on_c, 0, 81, 39
1, 314761, Note_on_c, 0, 69, 33
1, 314810, Note_off_c, 0, 69, 48
1, 314820, Note_off_c, 0, 81, 41
1, 314898, Note_off_c, 0, 55, 56
1, 314903, Control_c, 0, 64, 94
1, 314903, Control_c, 1, 64, 94
1, 314922, Control_c, 1, 64, 62
1, 314922, Control_c, 0, 64, 62
1, 314927, Note_off_c, 0, 58, 59
1, 314935, Note_on_c, 0, 65, 55
1, 314942, Note_on_c, 0, 57, 49
1, 314942, Control_c, 0, 64, 42
1, 314942, Control_c, 1, 64, 42
1, 314950, Note_on_c, 0, 53, 47
1, 314963, Note_on_c, 0, 69, 34
1, 314963, Note_on_c, 0, 81, 48
1, 314978, Control_c, 0, 64, 49
1, 314978, Control_c, 1, 64, 49
1, 314997, Control_c, 1, 64, 65
1, 314997, Control_c, 0, 64, 65
1, 315009, Note_off_c, 0, 69, 49
1, 315016, Control_c, 0, 64, 90
1, 315016, Control_c, 1, 64, 90
1, 315018, Note_off_c, 0, 81, 53
1, 315034, Control_c, 0, 64, 127
1, 315034, Control_c, 1, 64, 127
1, 315035, Note_off_c, 0, 57, 62
1, 315080, Note_off_c, 0, 65, 56
1, 315143, Note_on_c, 0, 81, 61
1, 315147, Note_on_c, 0, 69, 45
1, 315184, Note_off_c, 0, 69, 53
1, 315195, Note_off_c, 0, 81, 52
1, 315208, Note_on_c, 0, 52, 66
1, 315222, Control_c, 0, 64, 117
1, 315222, Control_c, 1, 64, 117
1, 315226, Note_on_c, 0, 55, 64
1, 315233, Note_on_c, 0, 64, 57
1, 315241, Control_c, 0, 64, 81
1, 315241, Control_c, 1, 64, 81
1, 315259, Control_c, 1, 64, 71
1, 315259, Control_c, 0, 64, 71
1, 315264, Note_off_c, 0, 53, 59
1, 315278, Control_c, 0, 64, 76
1, 315278, Control_c, 1, 64, 76
1, 315296, Control_c, 1, 64, 89
1, 315296, Control_c, 0, 64, 89
1, 315315, Control_c, 0, 64, 127
1, 315315, Control_c, 1, 64, 127
1, 315322, Note_on_c, 0, 69, 53
1, 315330, Note_on_c, 0, 81, 62
1, 315366, Note_off_c, 0, 64, 53
1, 315367, Note_off_c, 0, 81, 60
1, 315367, Note_off_c, 0, 69, 61
1, 315446, Control_c, 0, 64, 91
1, 315446, Control_c, 1, 64, 91
1, 315465, Control_c, 1, 64, 62
1, 315465, Control_c, 0, 64, 62
1, 315484, Control_c, 0, 64, 46
1, 315484, Control_c, 1, 64, 46
1, 315488, Note_off_c, 0, 52, 58
1, 315491, Note_on_c, 0, 69, 57
1, 315495, Note_on_c, 0, 62, 66
1, 315503, Note_on_c, 0, 81, 58
1, 315503, Control_c, 0, 64, 48
1, 315503, Control_c, 1, 64, 48
1, 315504, Note_on_c, 0, 50, 63
1, 315511, Note_on_c, 0, 53, 43
1, 315522, Control_c, 0, 64, 63
1, 315522, Control_c, 1, 64, 63
1, 315532, Note_off_c, 0, 69, 64
1, 315537, Note_off_c, 0, 55, 56
1, 315541, Control_c, 0, 64, 90
1, 315541, Control_c, 1, 64, 90
1, 315542, Note_off_c, 0, 81, 64
1, 315558, Control_c, 0, 64, 127
1, 315558, Control_c, 1, 64, 127
1, 315567, Note_off_c, 0, 53, 62
1, 315581, Poly_aftertouch_c, 0, 52, 0
1, 315589, Note_off_c, 0, 62, 61
1, 315660, Note_on_c, 0, 81, 61
1, 315662, Note_on_c, 0, 69, 53
1, 315689, Note_off_c, 0, 69, 59
1, 315702, Note_off_c, 0, 81, 57
1, 315732, Note_on_c, 0, 49, 71
1, 315746, Note_on_c, 0, 61, 69
1, 315746, Control_c, 0, 64, 112
1, 315746, Control_c, 1, 64, 112
1, 315762, Note_off_c, 0, 50, 62
1, 315764, Control_c, 0, 64, 72
1, 315764, Control_c, 1, 64, 72
1, 315779, Note_on_c, 0, 52, 47
1, 315783, Control_c, 0, 64, 53
1, 315783, Control_c, 1, 64, 53
1, 315802, Control_c, 1, 64, 57
1, 315802, Control_c, 0, 64, 57
1, 315816, Note_on_c, 0, 69, 41
1, 315820, Control_c, 0, 64, 69
1, 315820, Control_c, 1, 64, 69
1, 315823, Note_on_c, 0, 81, 62
1, 315840, Control_c, 0, 64, 99
1, 315840, Control_c, 1, 64, 99
1, 315858, Control_c, 1, 64, 127
1, 315858, Control_c, 0, 64, 127
1, 315870, Note_off_c, 0, 69, 61
1, 315893, Note_off_c, 0, 61, 50
1, 315898, Note_off_c, 0, 52, 56
1, 315937, Note_off_c, 0, 49, 62
1, 316007, Control_c, 0, 64, 84
1, 316007, Control_c, 1, 64, 84
1, 316012, Note_on_c, 0, 50, 61
1, 316015, Note_on_c, 0, 62, 59
1, 316026, Control_c, 0, 64, 58
1, 316026, Control_c, 1, 64, 58
1, 316030, Note_off_c, 0, 81, 48
1, 316033, Note_on_c, 0, 80, 56
1, 316041, Note_on_c, 0, 68, 51
1, 316044, Control_c, 0, 64, 49
1, 316044, Control_c, 1, 64, 49
1, 316050, Note_on_c, 0, 53, 51
1, 316065, Control_c, 0, 64, 55
1, 316065, Control_c, 1, 64, 55
1, 316083, Control_c, 1, 64, 73
1, 316083, Control_c, 0, 64, 73
1, 316086, Note_off_c, 0, 68, 62
1, 316101, Control_c, 0, 64, 127
1, 316101, Control_c, 1, 64, 127
1, 316102, Note_off_c, 0, 53, 56
1, 316104, Note_off_c, 0, 80, 56
1, 316119, Note_off_c, 0, 62, 48
1, 316208, Note_on_c, 0, 68, 55
1, 316215, Note_on_c, 0, 80, 59
1, 316252, Note_off_c, 0, 68, 60
1, 316264, Note_off_c, 0, 80, 59
1, 316269, Control_c, 0, 64, 95
1, 316269, Control_c, 1, 64, 95
1, 316283, Note_on_c, 0, 48, 59
1, 316288, Note_on_c, 0, 52, 49
1, 316288, Control_c, 0, 64, 64
1, 316288, Control_c, 1, 64, 64
1, 316295, Note_on_c, 0, 60, 52
1, 316307, Control_c, 0, 64, 46
1, 316307, Control_c, 1, 64, 46
1, 316345, Control_c, 1, 64, 59
1, 316345, Control_c, 0, 64, 59
1, 316363, Control_c, 0, 64, 84
1, 316363, Control_c, 1, 64, 84
1, 316382, Control_c, 1, 64, 127
1, 316382, Control_c, 0, 64, 127
1, 316398, Note_on_c, 0, 80, 63
1, 316405, Note_on_c, 0, 68, 50
1, 316439, Note_off_c, 0, 50, 37
1, 316444, Note_off_c, 0, 60, 43
1, 316444, Poly_aftertouch_c, 0, 60, 0
1, 316465, Note_off_c, 0, 68, 59
1, 316485, Note_off_c, 0, 80, 38
1, 316644, Control_c, 0, 64, 122
1, 316644, Control_c, 1, 64, 122
1, 316652, Note_off_c, 0, 48, 59
1, 316663, Control_c, 0, 64, 72
1, 316663, Control_c, 1, 64, 72
1, 316669, Note_on_c, 0, 59, 54
1, 316681, Control_c, 0, 64, 44
1, 316681, Control_c, 1, 64, 44
1, 316685, Note_on_c, 0, 50, 52
1, 316691, Note_on_c, 0, 47, 52
1, 316693, Note_off_c, 0, 52, 52
1, 316700, Control_c, 0, 64, 30
1, 316700, Control_c, 1, 64, 30
1, 316712, Note_on_c, 0, 79, 61
1, 316734, Note_on_c, 0, 67, 34
1, 316738, Control_c, 0, 64, 40
1, 316738, Control_c, 1, 64, 40
1, 316756, Control_c, 1, 64, 62
1, 316756, Control_c, 0, 64, 62
1, 316777, Control_c, 0, 64, 99
1, 316777, Control_c, 1, 64, 99
1, 316785, Note_off_c, 0, 67, 50
1, 316794, Control_c, 0, 64, 127
1, 316794, Control_c, 1, 64, 127
1, 316815, Note_off_c, 0, 79, 49
1, 316825, Note_off_c, 0, 50, 58
1, 316850, Note_off_c, 0, 59, 61
1, 316850, Poly_aftertouch_c, 0, 59, 0
1, 316944, Note_on_c, 0, 79, 59
1, 316950, Note_on_c, 0, 67, 38
1, 316999, Note_off_c, 0, 67, 51
1, 317007, Note_off_c, 0, 79, 49
1, 317034, Note_on_c, 0, 48, 56
1, 317034, Note_on_c, 0, 60, 58
1, 317037, Note_off_c, 0, 47, 54
1, 317049, Note_on_c, 0, 52, 53
1, 317058, Control_c, 0, 64, 82
1, 317058, Control_c, 1, 64, 82
1, 317075, Control_c, 1, 64, 67
1, 317075, Control_c, 0, 64, 67
1, 317093, Control_c, 0, 64, 70
1, 317093, Control_c, 1, 64, 70
1, 317112, Control_c, 1, 64, 85
1, 317112, Control_c, 0, 64, 85
1, 317131, Control_c, 0, 64, 127
1, 317131, Control_c, 1, 64, 127
1, 317136, Note_on_c, 0, 79, 67
1, 317138, Note_off_c, 0, 60, 58
1, 317138, Poly_aftertouch_c, 0, 60, 0
1, 317146, Note_on_c, 0, 67, 48
1, 317153, Note_off_c, 0, 48, 59
1, 317198, Note_off_c, 0, 67, 63
1, 317299, Control_c, 0, 64, 92
1, 317299, Control_c, 1, 64, 92
1, 317317, Control_c, 1, 64, 61
1, 317317, Control_c, 0, 64, 61
1, 317319, Note_on_c, 0, 57, 62
1, 317324, Note_on_c, 0, 45, 51
1, 317332, Note_on_c, 0, 49, 45
1, 317337, Control_c, 0, 64, 47
1, 317337, Control_c, 1, 64, 47
1, 317347, Note_on_c, 0, 78, 67
1, 317356, Note_off_c, 0, 79, 50
1, 317356, Control_c, 0, 64, 53
1, 317356, Control_c, 1, 64, 53
1, 317366, Note_on_c, 0, 66, 48
1, 317374, Control_c, 0, 64, 72
1, 317374, Control_c, 1, 64, 72
1, 317375, Note_off_c, 0, 52, 28
1, 317394, Control_c, 0, 64, 127
1, 317394, Control_c, 1, 64, 127
1, 317402, Note_off_c, 0, 66, 56
1, 317402, Poly_aftertouch_c, 0, 66, 0
1, 317422, Note_off_c, 0, 78, 58
1, 317429, Note_on_c, 0, 48, 19
1, 317446, Note_off_c, 0, 57, 61
1, 317492, Note_off_c, 0, 49, 23
1, 317497, Note_off_c, 0, 48, 45
1, 317514, Note_on_c, 0, 66, 59
1, 317517, Note_on_c, 0, 78, 59
1, 317582, Note_off_c, 0, 66, 54
1, 317582, Poly_aftertouch_c, 0, 66, 0
1, 317586, Note_off_c, 0, 45, 53
1, 317590, Note_on_c, 0, 47, 62
1, 317600, Note_on_c, 0, 59, 65
1, 317601, Control_c, 0, 64, 78
1, 317601, Control_c, 1, 64, 78
1, 317604, Note_off_c, 0, 78, 59
1, 317618, Control_c, 0, 64, 54
1, 317618, Control_c, 1, 64, 54
1, 317654, Control_c, 1, 64, 65
1, 317654, Control_c, 0, 64, 65
1, 317670, Note_on_c, 0, 50, 24
1, 317672, Control_c, 0, 64, 96
1, 317672, Control_c, 1, 64, 96
1, 317680, Note_on_c, 0, 51, 32
1, 317692, Control_c, 0, 64, 127
1, 317692, Control_c, 1, 64, 127
1, 317694, Note_off_c, 0, 47, 61
1, 317700, Note_on_c, 0, 77, 67
1, 317702, Note_off_c, 0, 59, 60
1, 317702, Poly_aftertouch_c, 0, 59, 0
1, 317717, Note_on_c, 0, 65, 53
1, 317730, Note_off_c, 0, 51, 61
1, 317752, Note_off_c, 0, 65, 58
1, 317773, Note_off_c, 0, 77, 58
1, 317861, Control_c, 0, 64, 81
1, 317861, Control_c, 1, 64, 81
1, 317881, Control_c, 1, 64, 54
1, 317881, Control_c, 0, 64, 54
1, 317895, Note_on_c, 0, 47, 30
1, 317897, Control_c, 0, 64, 51
1, 317897, Control_c, 1, 64, 51
1, 317902, Note_on_c, 0, 77, 66
1, 317904, Note_on_c, 0, 65, 38
1, 317904, Note_on_c, 0, 56, 62
1, 317914, Note_on_c, 0, 44, 63
1, 317916, Control_c, 0, 64, 64
1, 317916, Control_c, 1, 64, 64
1, 317936, Control_c, 1, 64, 94
1, 317936, Control_c, 0, 64, 94
1, 317949, Note_off_c, 0, 65, 53
1, 317954, Note_off_c, 0, 77, 49
1, 317954, Control_c, 0, 64, 127
1, 317954, Control_c, 1, 64, 127
1, 317970, Note_off_c, 0, 50, 50
1, 318042, Note_off_c, 0, 56, 50
1, 318066, Note_on_c, 0, 77, 63
1, 318088, Note_off_c, 0, 44, 62
1, 318090, Note_on_c, 0, 65, 25
1, 318093, Note_off_c, 0, 47, 53
1, 318147, Note_off_c, 0, 65, 41
1, 318185, Note_on_c, 0, 45, 66
1, 318196, Control_c, 0, 64, 75
1, 318196, Control_c, 1, 64, 75
1, 318198, Note_on_c, 0, 57, 62
1, 318204, Note_on_c, 0, 48, 58
1, 318217, Control_c, 0, 64, 56
1, 318217, Control_c, 1, 64, 56
1, 318226, Note_off_c, 0, 77, 53
1, 318234, Control_c, 0, 64, 58
1, 318234, Control_c, 1, 64, 58
1, 318241, Note_on_c, 0, 76, 61
1, 318254, Control_c, 0, 64, 70
1, 318254, Control_c, 1, 64, 70
1, 318273, Control_c, 1, 64, 97
1, 318273, Control_c, 0, 64, 97
1, 318284, Note_off_c, 0, 45, 62
1, 318287, Note_on_c, 0, 64, 43
1, 318292, Control_c, 0, 64, 127
1, 318292, Control_c, 1, 64, 127
1, 318293, Note_off_c, 0, 57, 57
1, 318323, Note_off_c, 0, 64, 51
1, 318460, Control_c, 0, 64, 83
1, 318460, Control_c, 1, 64, 83
1, 318475, Note_on_c, 0, 45, 46
1, 318477, Control_c, 0, 64, 52
1, 318477, Control_c, 1, 64, 52
1, 318492, Note_on_c, 0, 54, 52
1, 318495, Note_on_c, 0, 75, 60
1, 318496, Control_c, 0, 64, 34
1, 318496, Control_c, 1, 64, 34
1, 318511, Note_on_c, 0, 63, 45
1, 318516, Note_on_c, 0, 42, 50
1, 318524, Note_off_c, 0, 76, 48
1, 318534, Control_c, 0, 64, 45
1, 318534, Control_c, 1, 64, 45
1, 318547, Note_off_c, 0, 48, 35
1, 318553, Control_c, 0, 64, 74
1, 318553, Control_c, 1, 64, 74
1, 318556, Note_off_c, 0, 63, 57
1, 318573, Control_c, 0, 64, 127
1, 318573, Control_c, 1, 64, 127
1, 318581, Note_off_c, 0, 75, 59
1, 318621, Note_off_c, 0, 45, 57
1, 318653, Note_off_c, 0, 54, 56
1, 318687, Note_on_c, 0, 63, 49
1, 318709, Note_on_c, 0, 75, 58
1, 318759, Control_c, 0, 64, 92
1, 318759, Control_c, 1, 64, 92
1, 318777, Note_off_c, 0, 63, 41
1, 318777, Control_c, 0, 64, 60
1, 318777, Control_c, 1, 64, 60
1, 318794, Note_on_c, 0, 47, 57
1, 318798, Control_c, 0, 64, 44
1, 318798, Control_c, 1, 64, 44
1, 318811, Note_off_c, 0, 75, 56
1, 318815, Control_c, 0, 64, 48
1, 318815, Control_c, 1, 64, 48
1, 318818, Note_on_c, 0, 44, 55
1, 318824, Note_on_c, 0, 56, 55
1, 318827, Note_off_c, 0, 42, 58
1, 318833, Control_c, 0, 64, 65
1, 318833, Control_c, 1, 64, 65
1, 318853, Control_c, 1, 64, 97
1, 318853, Control_c, 0, 64, 97
1, 318871, Control_c, 0, 64, 127
1, 318871, Control_c, 1, 64, 127
1, 318909, Note_on_c, 0, 74, 61
1, 318922, Note_on_c, 0, 62, 46
1, 318967, Note_off_c, 0, 62, 50
1, 318993, Note_off_c, 0, 56, 57
1, 319001, Note_off_c, 0, 47, 35
1, 319021, Note_off_c, 0, 44, 57
1, 319023, Note_off_c, 0, 74, 46
1, 319096, Control_c, 0, 64, 78
1, 319096, Control_c, 1, 64, 78
1, 319114, Control_c, 1, 64, 49
1, 319114, Control_c, 0, 64, 49
1, 319131, Note_on_c, 0, 45, 59
1, 319131, Note_on_c, 0, 57, 55
1, 319134, Note_on_c, 0, 48, 49
1, 319135, Control_c, 0, 64, 33
1, 319135, Control_c, 1, 64, 33
1, 319154, Note_on_c, 0, 62, 24
1, 319154, Note_on_c, 0, 74, 39
1, 319171, Control_c, 0, 64, 46
1, 319171, Control_c, 1, 64, 46
1, 319190, Control_c, 1, 64, 70
1, 319190, Control_c, 0, 64, 70
1, 319200, Note_off_c, 0, 62, 45
1, 319201, Note_off_c, 0, 74, 48
1, 319208, Control_c, 0, 64, 127
1, 319208, Control_c, 1, 64, 127
1, 319270, Note_off_c, 0, 57, 48
1, 319277, Note_off_c, 0, 48, 57
1, 319309, Note_on_c, 0, 74, 69
1, 319329, Note_on_c, 0, 62, 36
1, 319374, Note_off_c, 0, 62, 50
1, 319452, Control_c, 0, 64, 72
1, 319452, Control_c, 1, 64, 72
1, 319471, Control_c, 1, 64, 44
1, 319471, Control_c, 0, 64, 44
1, 319477, Note_on_c, 0, 41, 55
1, 319490, Control_c, 0, 64, 34
1, 319490, Control_c, 1, 64, 34
1, 319502, Note_on_c, 0, 53, 31
1, 319508, Control_c, 0, 64, 38
1, 319508, Control_c, 1, 64, 38
1, 319524, Note_off_c, 0, 45, 63
1, 319527, Control_c, 0, 64, 57
1, 319527, Control_c, 1, 64, 57
1, 319536, Note_on_c, 0, 72, 52
1, 319547, Control_c, 0, 64, 91
1, 319547, Control_c, 1, 64, 91
1, 319563, Control_c, 1, 64, 127
1, 319563, Control_c, 0, 64, 127
1, 319568, Note_on_c, 0, 60, 33
1, 319596, Note_off_c, 0, 74, 26
1, 319613, Note_off_c, 0, 60, 50
1, 319613, Poly_aftertouch_c, 0, 60, 0
1, 319618, Note_off_c, 0, 53, 46
1, 319623, Note_off_c, 0, 72, 52
1, 319788, Control_c, 0, 64, 100
1, 319788, Control_c, 1, 64, 100
1, 319797, Note_off_c, 0, 41, 59
1, 319808, Control_c, 0, 64, 63
1, 319808, Control_c, 1, 64, 63
1, 319815, Note_on_c, 0, 38, 49
1, 319824, Note_on_c, 0, 71, 52
1, 319827, Control_c, 0, 64, 36
1, 319827, Control_c, 1, 64, 36
1, 319846, Control_c, 1, 64, 26
1, 319846, Control_c, 0, 64, 26
1, 319848, Note_on_c, 0, 50, 31
1, 319861, Note_on_c, 0, 59, 21
1, 319900, Control_c, 0, 64, 40
1, 319900, Control_c, 1, 64, 40
1, 319916, Note_off_c, 0, 59, 42
1, 319916, Poly_aftertouch_c, 0, 59, 0
1, 319920, Control_c, 0, 64, 64
1, 319920, Control_c, 1, 64, 64
1, 319921, Note_off_c, 0, 71, 51
1, 319941, Control_c, 0, 64, 97
1, 319941, Control_c, 1, 64, 97
1, 319957, Control_c, 1, 64, 127
1, 319957, Control_c, 0, 64, 127
1, 319987, Note_off_c, 0, 50, 36
1, 320067, Note_on_c, 0, 59, 33
1, 320067, Note_on_c, 0, 71, 50
1, 320109, Note_off_c, 0, 59, 46
1, 320109, Poly_aftertouch_c, 0, 59, 0
1, 320175, Note_on_c, 0, 40, 54
1, 320178, Note_off_c, 0, 38, 54
1, 320184, Note_on_c, 0, 52, 38
1, 320201, Control_c, 0, 64, 98
1, 320201, Control_c, 1, 64, 98
1, 320220, Control_c, 1, 64, 62
1, 320220, Control_c, 0, 64, 62
1, 320239, Control_c, 0, 64, 36
1, 320239, Control_c, 1, 64, 36
1, 320256, Control_c, 1, 64, 30
1, 320256, Control_c, 0, 64, 30
1, 320268, Note_off_c, 0, 52, 38
1, 320281, Note_off_c, 0, 71, 52
1, 320294, Control_c, 0, 64, 43
1, 320294, Control_c, 1, 64, 43
1, 320301, Note_on_c, 0, 68, 57
1, 320312, Control_c, 0, 64, 67
1, 320312, Control_c, 1, 64, 67
1, 320320, Note_on_c, 0, 56, 38
1, 320332, Control_c, 0, 64, 105
1, 320332, Control_c, 1, 64, 105
1, 320351, Control_c, 1, 64, 127
1, 320351, Control_c, 0, 64, 127
1, 320401, Note_off_c, 0, 56, 37
1, 320529, Note_off_c, 0, 40, 56
1, 320556, Control_c, 0, 64, 75
1, 320556, Control_c, 1, 64, 75
1, 320563, Note_on_c, 0, 36, 47
1, 320575, Control_c, 0, 64, 46
1, 320575, Control_c, 1, 64, 46
1, 320592, Note_on_c, 0, 69, 55
1, 320594, Control_c, 0, 64, 30
1, 320594, Control_c, 1, 64, 30
1, 320598, Note_on_c, 0, 57, 41
1, 320606, Note_on_c, 0, 48, 27
1, 320632, Control_c, 0, 64, 41
1, 320632, Control_c, 1, 64, 41
1, 320645, Note_off_c, 0, 57, 49
1, 320649, Control_c, 0, 64, 62
1, 320649, Control_c, 1, 64, 62
1, 320669, Control_c, 1, 64, 96
1, 320669, Control_c, 0, 64, 96
1, 320688, Control_c, 0, 64, 127
1, 320688, Control_c, 1, 64, 127
1, 320696, Note_off_c, 0, 68, 41
1, 320706, Note_off_c, 0, 69, 46
1, 320818, Note_off_c, 0, 48, 47
1, 320834, Note_on_c, 0, 69, 54
1, 320865, Note_on_c, 0, 57, 25
1, 320923, Note_off_c, 0, 57, 44
1, 320997, Note_on_c, 0, 35, 48
1, 321005, Note_on_c, 0, 47, 40
1, 321005, Control_c, 0, 64, 116
1, 321005, Control_c, 1, 64, 116
1, 321025, Control_c, 1, 64, 71
1, 321025, Control_c, 0, 64, 71
1, 321041, Note_off_c, 0, 36, 37
1, 321041, Control_c, 0, 64, 46
1, 321041, Control_c, 1, 64, 46
1, 321062, Control_c, 1, 64, 32
1, 321062, Control_c, 0, 64, 32
1, 321099, Note_on_c, 0, 71, 53
1, 321117, Control_c, 0, 64, 43
1, 321117, Control_c, 1, 64, 43
1, 321139, Control_c, 1, 64, 66
1, 321139, Control_c, 0, 64, 66
1, 321145, Note_on_c, 0, 59, 26
1, 321156, Control_c, 0, 64, 103
1, 321156, Control_c, 1, 64, 103
1, 321163, Note_off_c, 0, 69, 61
1, 321173, Control_c, 0, 64, 127
1, 321173, Control_c, 1, 64, 127
1, 321186, Note_off_c, 0, 47, 36
1, 321190, Note_off_c, 0, 59, 48
1, 321190, Poly_aftertouch_c, 0, 59, 0
1, 321380, Control_c, 0, 64, 92
1, 321380, Control_c, 1, 64, 92
1, 321399, Control_c, 1, 64, 57
1, 321399, Control_c, 0, 64, 57
1, 321411, Note_off_c, 0, 35, 60
1, 321417, Control_c, 0, 64, 26
1, 321417, Control_c, 1, 64, 26
1, 321420, Note_on_c, 0, 33, 61
1, 321420, Note_on_c, 0, 72, 53
1, 321436, Control_c, 0, 64, 11
1, 321436, Control_c, 1, 64, 11
1, 321440, Note_on_c, 0, 45, 43
1, 321463, Note_on_c, 0, 60, 6
1, 321464, Note_off_c, 0, 71, 43
1, 321492, Control_c, 0, 64, 25
1, 321492, Control_c, 1, 64, 25
1, 321511, Control_c, 1, 64, 47
1, 321511, Control_c, 0, 64, 47
1, 321529, Control_c, 0, 64, 76
1, 321529, Control_c, 1, 64, 76
1, 321539, Note_off_c, 0, 60, 32
1, 321539, Poly_aftertouch_c, 0, 60, 0
1, 321549, Note_off_c, 0, 72, 50
1, 321549, Control_c, 0, 64, 127
1, 321549, Control_c, 1, 64, 127
1, 321702, Note_on_c, 0, 72, 60
1, 321726, Note_on_c, 0, 60, 16
1, 321793, Note_off_c, 0, 60, 46
1, 321793, Poly_aftertouch_c, 0, 60, 0
1, 321855, Note_off_c, 0, 45, 55
1, 321893, Note_off_c, 0, 33, 59
1, 321981, Note_on_c, 0, 74, 67
1, 321991, Note_on_c, 0, 62, 45
1, 322012, Note_off_c, 0, 72, 56
1, 322033, Note_off_c, 0, 62, 53
1, 322358, Note_on_c, 0, 75, 64
1, 322386, Note_on_c, 0, 63, 51
1, 322409, Control_c, 0, 64, 103
1, 322409, Control_c, 1, 64, 103
1, 322429, Control_c, 1, 64, 59
1, 322429, Control_c, 0, 64, 59
1, 322431, Note_off_c, 0, 74, 57
1, 322447, Control_c, 0, 64, 16
1, 322447, Control_c, 1, 64, 16
1, 322485, Control_c, 1, 64, 9
1, 322485, Control_c, 0, 64, 9
1, 322503, Control_c, 0, 64, 40
1, 322503, Control_c, 1, 64, 40
1, 322522, Control_c, 1, 64, 98
1, 322522, Control_c, 0, 64, 98
1, 322541, Control_c, 0, 64, 127
1, 322541, Control_c, 1, 64, 127
1, 322560, Note_off_c, 0, 63, 61
1, 322642, Note_off_c, 0, 75, 64
1, 322833, Note_on_c, 0, 87, 71
1, 322865, Note_on_c, 0, 75, 44
1, 322908, Note_off_c, 0, 75, 52
1, 322922, Note_off_c, 0, 87, 55
1, 322978, Note_on_c, 0, 74, 67
1, 322983, Note_on_c, 0, 62, 61
1, 323095, Note_on_c, 0, 87, 65
1, 323118, Note_off_c, 0, 74, 53
1, 323146, Note_on_c, 0, 75, 28
1, 323192, Note_off_c, 0, 87, 53
1, 323196, Note_off_c, 0, 75, 53
1, 323345, Control_c, 0, 64, 90
1, 323345, Control_c, 1, 64, 90
1, 323365, Note_off_c, 0, 62, 57
1, 323365, Control_c, 0, 64, 67
1, 323365, Control_c, 1, 64, 67
1, 323367, Note_on_c, 0, 87, 59
1, 323378, Note_on_c, 0, 60, 52
1, 323381, Note_on_c, 0, 72, 54
1, 323382, Control_c, 0, 64, 62
1, 323382, Control_c, 1, 64, 62
1, 323399, Control_c, 1, 64, 68
1, 323399, Control_c, 0, 64, 68
1, 323411, Note_on_c, 0, 75, 19
1, 323418, Control_c, 0, 64, 79
1, 323418, Control_c, 1, 64, 79
1, 323439, Control_c, 1, 64, 110
1, 323439, Control_c, 0, 64, 110
1, 323457, Control_c, 0, 64, 127
1, 323457, Control_c, 1, 64, 127
1, 323466, Note_off_c, 0, 87, 59
1, 323473, Note_off_c, 0, 75, 43
1, 323481, Note_off_c, 0, 72, 61
1, 323592, Note_on_c, 0, 87, 57
1, 323596, Note_on_c, 0, 75, 48
1, 323649, Note_off_c, 0, 75, 56
1, 323654, Note_off_c, 0, 87, 56
1, 323691, Note_on_c, 0, 70, 61
1, 323695, Note_on_c, 0, 58, 67
1, 323698, Note_on_c, 0, 62, 58
1, 323722, Note_off_c, 0, 60, 52
1, 323722, Poly_aftertouch_c, 0, 60, 0
1, 323789, Note_on_c, 0, 87, 68
1, 323797, Note_on_c, 0, 75, 51
1, 323843, Note_off_c, 0, 75, 63
1, 323849, Note_off_c, 0, 87, 54
1, 323880, Note_off_c, 0, 70, 48
1, 323880, Poly_aftertouch_c, 0, 70, 0
1, 323952, Note_off_c, 0, 62, 48
1, 323956, Note_off_c, 0, 58, 58
1, 323962, Control_c, 0, 64, 90
1, 323962, Control_c, 1, 64, 90
1, 323977, Note_on_c, 0, 87, 67
1, 323978, Note_on_c, 0, 69, 73
1, 323981, Note_on_c, 0, 57, 64
1, 323981, Control_c, 0, 64, 75
1, 323981, Control_c, 1, 64, 75
1, 323989, Note_on_c, 0, 75, 47
1, 323989, Note_on_c, 0, 60, 59
1, 324001, Control_c, 0, 64, 79
1, 324001, Control_c, 1, 64, 79
1, 324020, Control_c, 1, 64, 100
1, 324020, Control_c, 0, 64, 100
1, 324038, Note_off_c, 0, 75, 63
1, 324038, Control_c, 0, 64, 127
1, 324038, Control_c, 1, 64, 127
1, 324039, Note_off_c, 0, 87, 52
1, 324061, Note_off_c, 0, 60, 57
1, 324061, Poly_aftertouch_c, 0, 60, 0
1, 324105, Note_off_c, 0, 69, 56
1, 324147, Note_on_c, 0, 75, 67
1, 324154, Note_on_c, 0, 87, 68
1, 324199, Note_off_c, 0, 75, 54
1, 324221, Note_off_c, 0, 87, 61
1, 324225, Control_c, 0, 64, 108
1, 324225, Control_c, 1, 64, 108
1, 324227, Note_on_c, 0, 67, 72
1, 324230, Note_on_c, 0, 55, 63
1, 324239, Note_on_c, 0, 58, 61
1, 324243, Control_c, 0, 64, 114
1, 324243, Control_c, 1, 64, 114
1, 324263, Control_c, 1, 64, 127
1, 324263, Control_c, 0, 64, 127
1, 324332, Note_on_c, 0, 75, 64
1, 324337, Note_off_c, 0, 57, 50
1, 324339, Note_on_c, 0, 87, 59
1, 324340, Note_off_c, 0, 67, 63
1, 324353, Note_off_c, 0, 55, 60
1, 324374, Note_off_c, 0, 75, 63
1, 324394, Note_off_c, 0, 87, 60
1, 324487, Control_c, 0, 64, 105
1, 324487, Control_c, 1, 64, 105
1, 324507, Control_c, 1, 64, 75
1, 324507, Control_c, 0, 64, 75
1, 324508, Note_on_c, 0, 66, 65
1, 324521, Note_on_c, 0, 57, 34
1, 324521, Note_on_c, 0, 54, 64
1, 324521, Note_on_c, 0, 87, 70
1, 324523, Note_on_c, 0, 75, 53
1, 324525, Poly_aftertouch_c, 0, 59, 0
1, 324525, Control_c, 0, 64, 70
1, 324525, Control_c, 1, 64, 70
1, 324544, Control_c, 1, 64, 86
1, 324544, Control_c, 0, 64, 86
1, 324562, Control_c, 0, 64, 127
1, 324562, Control_c, 1, 64, 127
1, 324572, Note_off_c, 0, 75, 64
1, 324602, Note_off_c, 0, 87, 60
1, 324630, Note_off_c, 0, 57, 59
1, 324635, Note_off_c, 0, 58, 22
1, 324637, Note_off_c, 0, 66, 47
1, 324637, Poly_aftertouch_c, 0, 66, 0
1, 324676, Note_on_c, 0, 87, 57
1, 324697, Note_on_c, 0, 75, 63
1, 324710, Note_off_c, 0, 54, 63
1, 324746, Note_off_c, 0, 75, 58
1, 324749, Control_c, 0, 64, 83
1, 324749, Control_c, 1, 64, 83
1, 324770, Control_c, 1, 64, 68
1, 324770, Control_c, 0, 64, 68
1, 324774, Note_off_c, 0, 87, 64
1, 324779, Note_on_c, 0, 67, 66
1, 324781, Note_on_c, 0, 55, 63
1, 324787, Note_on_c, 0, 58, 62
1, 324788, Control_c, 0, 64, 71
1, 324788, Control_c, 1, 64, 71
1, 324805, Control_c, 1, 64, 85
1, 324805, Control_c, 0, 64, 85
1, 324824, Control_c, 0, 64, 127
1, 324824, Control_c, 1, 64, 127
1, 324870, Note_on_c, 0, 87, 67
1, 324872, Note_on_c, 0, 75, 68
1, 324900, Note_off_c, 0, 67, 61
1, 324920, Note_off_c, 0, 55, 62
1, 324956, Note_off_c, 0, 75, 59
1, 324974, Note_off_c, 0, 87, 58
1, 325031, Control_c, 0, 67, 123
1, 325031, Control_c, 1, 67, 123
1, 325086, Control_c, 1, 67, 117
1, 325086, Control_c, 0, 67, 117
1, 325105, Control_c, 0, 64, 96
1, 325105, Control_c, 1, 64, 96
1, 325123, Control_c, 1, 64, 68
1, 325123, Control_c, 0, 64, 68
1, 325131, Note_on_c, 0, 54, 62
1, 325133, Note_on_c, 0, 66, 60
1, 325134, Note_off_c, 0, 58, 60
1, 325139, Note_on_c, 0, 57, 57
1, 325140, Note_on_c, 0, 86, 62
1, 325142, Control_c, 0, 64, 59
1, 325142, Control_c, 1, 64, 59
1, 325158, Note_on_c, 0, 74, 38
1, 325161, Control_c, 0, 64, 64
1, 325161, Control_c, 1, 64, 64
1, 325180, Control_c, 1, 64, 77
1, 325180, Control_c, 0, 64, 77
1, 325200, Control_c, 0, 64, 127
1, 325200, Control_c, 1, 64, 127
1, 325209, Note_off_c, 0, 74, 47
1, 325226, Note_off_c, 0, 57, 61
1, 325240, Note_off_c, 0, 86, 60
1, 325270, Note_off_c, 0, 66, 62
1, 325270, Poly_aftertouch_c, 0, 66, 0
1, 325345, Note_on_c, 0, 86, 63
1, 325348, Note_on_c, 0, 74, 54
1, 325373, Note_off_c, 0, 54, 60
1, 325391, Note_off_c, 0, 74, 60
1, 325413, Note_on_c, 0, 51, 66
1, 325418, Note_off_c, 0, 86, 61
1, 325423, Note_on_c, 0, 63, 65
1, 325441, Note_on_c, 0, 55, 61
1, 325479, Control_c, 0, 64, 80
1, 325479, Control_c, 1, 64, 80
1, 325499, Control_c, 1, 64, 74
1, 325499, Control_c, 0, 64, 74
1, 325501, Poly_aftertouch_c, 0, 54, 127
1, 325517, Control_c, 0, 64, 89
1, 325517, Control_c, 1, 64, 89
1, 325535, Control_c, 1, 64, 127
1, 325535, Control_c, 0, 64, 127
1, 325536, Note_on_c, 0, 86, 72
1, 325536, Note_on_c, 0, 74, 71
1, 325549, Poly_aftertouch_c, 0, 54, 0
1, 325572, Note_off_c, 0, 74, 59
1, 325606, Note_off_c, 0, 86, 62
1, 325614, Note_off_c, 0, 63, 61
1, 325618, Note_off_c, 0, 55, 56
1, 325668, Poly_aftertouch_c, 0, 85, 0
1, 325686, Control_c, 0, 64, 78
1, 325686, Control_c, 1, 64, 78
1, 325691, Note_on_c, 0, 62, 73
1, 325695, Note_on_c, 0, 54, 65
1, 325696, Note_on_c, 0, 86, 74
1, 325698, Note_off_c, 0, 51, 61
1, 325701, Note_on_c, 0, 50, 62
1, 325704, Control_c, 0, 64, 64
1, 325704, Control_c, 1, 64, 64
1, 325707, Note_on_c, 0, 74, 67
1, 325724, Control_c, 0, 64, 73
1, 325724, Control_c, 1, 64, 73
1, 325741, Control_c, 1, 64, 103
1, 325741, Control_c, 0, 64, 103
1, 325752, Note_off_c, 0, 74, 57
1, 325760, Control_c, 0, 64, 127
1, 325760, Control_c, 1, 64, 127
1, 325776, Note_off_c, 0, 86, 62
1, 325803, Note_off_c, 0, 54, 61
1, 325816, Control_c, 0, 67, 113
1, 325816, Control_c, 1, 67, 113
1, 325819, Note_off_c, 0, 62, 59
1, 325853, Control_c, 0, 67, 109
1, 325853, Control_c, 1, 67, 109
1, 325854, Note_on_c, 0, 86, 80
1, 325870, Note_on_c, 0, 74, 77
1, 325891, Control_c, 0, 67, 102
1, 325891, Control_c, 1, 67, 102
1, 325928, Control_c, 1, 67, 97
1, 325928, Control_c, 0, 67, 97
1, 325929, Note_off_c, 0, 74, 56
1, 325941, Note_on_c, 0, 58, 77
1, 325943, Note_on_c, 0, 46, 81
1, 325946, Note_off_c, 0, 86, 64
1, 325979, Note_off_c, 0, 50, 61
1, 325983, Poly_aftertouch_c, 0, 85, 0
1, 326004, Control_c, 0, 64, 70
1, 326004, Control_c, 1, 64, 70
1, 326023, Control_c, 1, 64, 46
1, 326023, Control_c, 0, 64, 46
1, 326024, Control_c, 0, 67, 92
1, 326024, Control_c, 1, 67, 92
1, 326035, Note_on_c, 0, 86, 81
1, 326042, Control_c, 0, 64, 48
1, 326042, Control_c, 1, 64, 48
1, 326046, Note_on_c, 0, 74, 77
1, 326059, Control_c, 0, 64, 65
1, 326059, Control_c, 1, 64, 65
1, 326060, Control_c, 1, 67, 87
1, 326060, Control_c, 0, 67, 87
1, 326078, Control_c, 0, 64, 107
1, 326078, Control_c, 1, 64, 107
1, 326097, Control_c, 1, 64, 127
1, 326097, Control_c, 0, 64, 127
1, 326112, Note_off_c, 0, 74, 61
1, 326131, Note_off_c, 0, 86, 63
1, 326143, Note_off_c, 0, 58, 62
1, 326171, Control_c, 0, 67, 83
1, 326171, Control_c, 1, 67, 83
1, 326209, Note_on_c, 0, 45, 78
1, 326215, Note_on_c, 0, 57, 78
1, 326218, Note_on_c, 0, 86, 80
1, 326225, Note_on_c, 0, 74, 79
1, 326227, Control_c, 0, 64, 108
1, 326227, Control_c, 1, 64, 108
1, 326229, Control_c, 1, 67, 79
1, 326229, Control_c, 0, 67, 79
1, 326230, Note_off_c, 0, 46, 51
1, 326247, Control_c, 0, 64, 85
1, 326247, Control_c, 1, 64, 85
1, 326266, Control_c, 1, 64, 94
1, 326266, Control_c, 0, 64, 94
1, 326284, Control_c, 0, 64, 127
1, 326284, Control_c, 1, 64, 127
1, 326292, Note_off_c, 0, 74, 59
1, 326301, Control_c, 0, 67, 75
1, 326301, Control_c, 1, 67, 75
1, 326309, Note_off_c, 0, 86, 63
1, 326316, Note_off_c, 0, 57, 59
1, 326383, Note_on_c, 0, 86, 80
1, 326387, Note_on_c, 0, 74, 74
1, 326396, Control_c, 0, 67, 69
1, 326396, Control_c, 1, 67, 69
1, 326434, Control_c, 1, 67, 64
1, 326434, Control_c, 0, 67, 64
1, 326444, Note_on_c, 0, 54, 80
1, 326448, Note_on_c, 0, 42, 79
1, 326453, Note_off_c, 0, 74, 63
1, 326481, Note_off_c, 0, 86, 64
1, 326490, Control_c, 0, 64, 83
1, 326490, Control_c, 1, 64, 83
1, 326493, Note_off_c, 0, 45, 60
1, 326509, Control_c, 0, 64, 56
1, 326509, Control_c, 1, 64, 56
1, 326529, Control_c, 1, 64, 45
1, 326529, Control_c, 0, 64, 45
1, 326545, Control_c, 0, 64, 51
1, 326545, Control_c, 1, 64, 51
1, 326552, Note_on_c, 0, 86, 78
1, 326560, Note_on_c, 0, 74, 80
1, 326564, Control_c, 0, 64, 76
1, 326564, Control_c, 1, 64, 76
1, 326575, Note_off_c, 0, 54, 63
1, 326583, Control_c, 0, 64, 127
1, 326583, Control_c, 1, 64, 127
1, 326588, Poly_aftertouch_c, 0, 46, 0
1, 326651, Note_off_c, 0, 74, 59
1, 326659, Poly_aftertouch_c, 0, 80, 127
1, 326684, Note_off_c, 0, 86, 62
1, 326702, Poly_aftertouch_c, 0, 80, 0
1, 326725, Note_on_c, 0, 38, 73
1, 326730, Note_off_c, 0, 42, 61
1, 326737, Note_on_c, 0, 50, 65
1, 326752, Control_c, 0, 64, 84
1, 326752, Control_c, 1, 64, 84
1, 326761, Note_on_c, 0, 86, 80
1, 326771, Control_c, 0, 64, 58
1, 326771, Control_c, 1, 64, 58
1, 326773, Note_on_c, 0, 74, 77
1, 326789, Control_c, 0, 64, 52
1, 326789, Control_c, 1, 64, 52
1, 326810, Control_c, 1, 64, 60
1, 326810, Control_c, 0, 64, 60
1, 326827, Control_c, 0, 64, 78
1, 326827, Control_c, 1, 64, 78
1, 326846, Control_c, 1, 64, 127
1, 326846, Control_c, 0, 64, 127
1, 326874, Note_off_c, 0, 74, 57
1, 326880, Poly_aftertouch_c, 0, 80, 0
1, 326901, Note_off_c, 0, 86, 64
1, 326947, Note_off_c, 0, 50, 61
1, 326957, Control_c, 0, 67, 60
1, 326957, Control_c, 1, 67, 60
1, 326962, Note_on_c, 0, 86, 80
1, 326977, Note_on_c, 0, 74, 80
1, 327062, Note_off_c, 0, 74, 58
1, 327163, Note_on_c, 0, 49, 62
1, 327171, Note_off_c, 0, 38, 60
1, 327176, Note_on_c, 0, 37, 57
1, 327201, Control_c, 0, 64, 82
1, 327201, Control_c, 1, 64, 82
1, 327220, Control_c, 1, 64, 49
1, 327220, Control_c, 0, 64, 49
1, 327239, Control_c, 0, 64, 21
1, 327239, Control_c, 1, 64, 21
1, 327258, Control_c, 1, 64, 10
1, 327258, Control_c, 0, 64, 10
1, 327289, Note_on_c, 0, 85, 84
1, 327301, Note_on_c, 0, 73, 69
1, 327314, Control_c, 0, 64, 35
1, 327314, Control_c, 1, 64, 35
1, 327332, Control_c, 1, 64, 73
1, 327332, Control_c, 0, 64, 73
1, 327351, Control_c, 0, 64, 127
1, 327351, Control_c, 1, 64, 127
1, 327396, Note_off_c, 0, 86, 63
1, 327398, Note_off_c, 0, 37, 62
1, 327432, Note_off_c, 0, 49, 62
1, 327444, Note_off_c, 0, 73, 60
1, 327478, Note_off_c, 0, 85, 65
1, 327576, Note_on_c, 0, 85, 74
1, 327588, Note_on_c, 0, 73, 70
1, 327628, Note_off_c, 0, 73, 59
1, 327631, Control_c, 0, 67, 64
1, 327631, Control_c, 1, 67, 64
1, 327654, Note_off_c, 0, 85, 60
1, 327766, Note_on_c, 0, 85, 57
1, 327785, Note_on_c, 0, 73, 51
1, 327835, Note_off_c, 0, 73, 57
1, 327853, Note_off_c, 0, 85, 46
1, 327899, Note_on_c, 0, 72, 52
1, 327926, Note_on_c, 0, 60, 52
1, 327989, Note_on_c, 0, 85, 70
1, 328003, Note_off_c, 0, 72, 55
1, 328026, Note_on_c, 0, 73, 46
1, 328075, Note_off_c, 0, 73, 52
1, 328101, Note_off_c, 0, 85, 57
1, 328212, Control_c, 0, 64, 75
1, 328212, Control_c, 1, 64, 75
1, 328214, Note_on_c, 0, 58, 66
1, 328222, Note_on_c, 0, 70, 50
1, 328226, Note_off_c, 0, 60, 53
1, 328226, Poly_aftertouch_c, 0, 60, 0
1, 328231, Control_c, 0, 64, 58
1, 328231, Control_c, 1, 64, 58
1, 328242, Note_on_c, 0, 85, 70
1, 328250, Control_c, 0, 64, 60
1, 328250, Control_c, 1, 64, 60
1, 328267, Control_c, 1, 64, 73
1, 328267, Control_c, 0, 64, 73
1, 328271, Note_on_c, 0, 73, 36
1, 328287, Control_c, 0, 64, 127
1, 328287, Control_c, 1, 64, 127
1, 328314, Note_off_c, 0, 73, 52
1, 328331, Note_off_c, 0, 70, 63
1, 328331, Poly_aftertouch_c, 0, 70, 0
1, 328332, Note_off_c, 0, 85, 62
1, 328419, Note_on_c, 0, 85, 68
1, 328424, Note_on_c, 0, 73, 62
1, 328476, Note_on_c, 0, 56, 64
1, 328478, Note_off_c, 0, 58, 64
1, 328484, Note_off_c, 0, 73, 54
1, 328498, Note_on_c, 0, 68, 56
1, 328500, Note_on_c, 0, 60, 68
1, 328504, Note_off_c, 0, 85, 64
1, 328601, Note_on_c, 0, 85, 69
1, 328611, Note_on_c, 0, 73, 69
1, 328657, Note_off_c, 0, 73, 57
1, 328686, Note_off_c, 0, 68, 54
1, 328687, Note_off_c, 0, 85, 63
1, 328714, Note_off_c, 0, 60, 54
1, 328714, Poly_aftertouch_c, 0, 60, 0
1, 328736, Control_c, 0, 64, 112
1, 328736, Control_c, 1, 64, 112
1, 328752, Note_on_c, 0, 67, 72
1, 328756, Control_c, 0, 64, 61
1, 328756, Control_c, 1, 64, 61
1, 328757, Note_on_c, 0, 58, 70
1, 328761, Note_on_c, 0, 55, 64
1, 328763, Note_off_c, 0, 56, 54
1, 328763, Note_on_c, 0, 85, 66
1, 328775, Control_c, 0, 64, 26
1, 328775, Control_c, 1, 64, 26
1, 328788, Note_on_c, 0, 73, 59
1, 328792, Control_c, 0, 64, 21
1, 328792, Control_c, 1, 64, 21
1, 328812, Control_c, 1, 64, 38
1, 328812, Control_c, 0, 64, 38
1, 328828, Note_off_c, 0, 73, 66
1, 328830, Control_c, 0, 64, 83
1, 328830, Control_c, 1, 64, 83
1, 328849, Control_c, 1, 64, 127
1, 328849, Control_c, 0, 64, 127
1, 328851, Note_off_c, 0, 85, 62
1, 328869, Note_off_c, 0, 58, 62
1, 328904, Note_off_c, 0, 67, 59
1, 328915, Note_on_c, 0, 85, 63
1, 328920, Note_on_c, 0, 73, 70
1, 328980, Note_off_c, 0, 73, 58
1, 328994, Note_on_c, 0, 53, 77
1, 329000, Note_on_c, 0, 65, 75
1, 329004, Note_off_c, 0, 85, 63
1, 329007, Note_on_c, 0, 56, 67
1, 329085, Note_on_c, 0, 85, 67
1, 329111, Note_on_c, 0, 73, 66
1, 329115, Note_off_c, 0, 65, 59
1, 329119, Note_off_c, 0, 55, 28
1, 329150, Note_off_c, 0, 73, 60
1, 329180, Note_off_c, 0, 85, 63
1, 329199, Poly_aftertouch_c, 0, 80, 0
1, 329223, Control_c, 0, 64, 105
1, 329223, Control_c, 1, 64, 105
1, 329224, Note_off_c, 0, 53, 47
1, 329238, Note_on_c, 0, 64, 78
1, 329239, Note_on_c, 0, 55, 77
1, 329241, Control_c, 0, 64, 54
1, 329241, Control_c, 1, 64, 54
1, 329246, Note_on_c, 0, 52, 72
1, 329260, Note_on_c, 0, 85, 64
1, 329260, Control_c, 0, 64, 18
1, 329260, Control_c, 1, 64, 18
1, 329271, Note_on_c, 0, 73, 68
1, 329297, Control_c, 0, 64, 37
1, 329297, Control_c, 1, 64, 37
1, 329312, Note_off_c, 0, 73, 62
1, 329318, Control_c, 0, 64, 81
1, 329318, Control_c, 1, 64, 81
1, 329324, Note_off_c, 0, 56, 37
1, 329336, Control_c, 0, 64, 127
1, 329336, Control_c, 1, 64, 127
1, 329345, Note_off_c, 0, 85, 63
1, 329365, Note_off_c, 0, 55, 57
1, 329370, Note_off_c, 0, 64, 62
1, 329400, Note_on_c, 0, 85, 65
1, 329415, Note_on_c, 0, 73, 72
1, 329459, Note_off_c, 0, 73, 59
1, 329474, Note_off_c, 0, 52, 56
1, 329482, Note_on_c, 0, 53, 73
1, 329488, Note_on_c, 0, 56, 70
1, 329491, Note_on_c, 0, 65, 72
1, 329496, Note_off_c, 0, 85, 64
1, 329503, Control_c, 0, 64, 80
1, 329503, Control_c, 1, 64, 80
1, 329506, Poly_aftertouch_c, 0, 80, 127
1, 329523, Control_c, 0, 64, 67
1, 329523, Control_c, 1, 64, 67
1, 329534, Poly_aftertouch_c, 0, 80, 0
1, 329541, Control_c, 0, 64, 81
1, 329541, Control_c, 1, 64, 81
1, 329559, Control_c, 1, 64, 127
1, 329559, Control_c, 0, 64, 127
1, 329565, Note_on_c, 0, 85, 70
1, 329579, Note_on_c, 0, 73, 76
1, 329604, Note_off_c, 0, 65, 59
1, 329673, Note_off_c, 0, 73, 52
1, 329675, Poly_aftertouch_c, 0, 82, 0
1, 329716, Note_off_c, 0, 85, 57
1, 329758, Note_off_c, 0, 53, 55
1, 329803, Control_c, 0, 64, 72
1, 329803, Control_c, 1, 64, 72
1, 329823, Note_off_c, 0, 56, 54
1, 329823, Control_c, 0, 64, 43
1, 329823, Control_c, 1, 64, 43
1, 329829, Note_on_c, 0, 55, 54
1, 329831, Note_on_c, 0, 64, 63
1, 329832, Note_on_c, 0, 52, 60
1, 329842, Control_c, 0, 64, 34
1, 329842, Control_c, 1, 64, 34
1, 329846, Note_on_c, 0, 84, 57
1, 329860, Control_c, 0, 64, 41
1, 329860, Control_c, 1, 64, 41
1, 329861, Note_on_c, 0, 72, 48
1, 329878, Control_c, 0, 64, 65
1, 329878, Control_c, 1, 64, 65
1, 329897, Control_c, 1, 64, 127
1, 329897, Control_c, 0, 64, 127
1, 329906, Note_off_c, 0, 72, 48
1, 329918, Note_off_c, 0, 55, 60
1, 329950, Note_off_c, 0, 84, 62
1, 329970, Note_off_c, 0, 64, 62
1, 330049, Note_on_c, 0, 84, 61
1, 330061, Note_on_c, 0, 72, 41
1, 330105, Note_off_c, 0, 72, 46
1, 330120, Note_on_c, 0, 49, 71
1, 330121, Control_c, 0, 64, 106
1, 330121, Control_c, 1, 64, 106
1, 330131, Note_on_c, 0, 61, 59
1, 330139, Control_c, 0, 64, 61
1, 330139, Control_c, 1, 64, 61
1, 330141, Note_off_c, 0, 84, 62
1, 330149, Note_on_c, 0, 53, 58
1, 330156, Note_off_c, 0, 52, 58
1, 330158, Control_c, 0, 64, 37
1, 330158, Control_c, 1, 64, 37
1, 330178, Control_c, 1, 64, 41
1, 330178, Control_c, 0, 64, 41
1, 330196, Control_c, 0, 64, 66
1, 330196, Control_c, 1, 64, 66
1, 330215, Control_c, 1, 64, 127
1, 330215, Control_c, 0, 64, 127
1, 330264, Note_on_c, 0, 84, 73
1, 330275, Note_on_c, 0, 72, 48
1, 330308, Control_c, 0, 67, 60
1, 330308, Control_c, 1, 67, 60
1, 330311, Note_off_c, 0, 72, 52
1, 330333, Note_off_c, 0, 61, 58
1, 330335, Note_off_c, 0, 84, 62
1, 330374, Note_off_c, 0, 49, 62
1, 330384, Note_on_c, 0, 60, 72
1, 330390, Note_off_c, 0, 53, 36
1, 330395, Note_on_c, 0, 48, 63
1, 330411, Note_on_c, 0, 52, 63
1, 330435, Note_on_c, 0, 84, 74
1, 330440, Control_c, 0, 67, 56
1, 330440, Control_c, 1, 67, 56
1, 330445, Note_on_c, 0, 72, 52
1, 330476, Control_c, 0, 67, 50
1, 330476, Control_c, 1, 67, 50
1, 330493, Note_off_c, 0, 72, 60
1, 330494, Control_c, 0, 67, 45
1, 330494, Control_c, 1, 67, 45
1, 330496, Note_off_c, 0, 52, 61
1, 330518, Note_off_c, 0, 84, 61
1, 330530, Note_off_c, 0, 60, 58
1, 330530, Poly_aftertouch_c, 0, 60, 0
1, 330533, Note_on_c, 0, 74, 23
1, 330534, Note_off_c, 0, 74, 127
1, 330584, Note_on_c, 0, 84, 65
1, 330602, Note_on_c, 0, 72, 64
1, 330607, Control_c, 0, 64, 79
1, 330607, Control_c, 1, 64, 79
1, 330628, Control_c, 1, 64, 54
1, 330628, Control_c, 0, 64, 54
1, 330642, Note_on_c, 0, 56, 71
1, 330642, Note_on_c, 0, 44, 81
1, 330647, Note_off_c, 0, 72, 54
1, 330650, Note_on_c, 0, 82, 20
1, 330665, Control_c, 0, 64, 67
1, 330665, Control_c, 1, 64, 67
1, 330679, Note_off_c, 0, 48, 61
1, 330683, Control_c, 0, 64, 108
1, 330683, Control_c, 1, 64, 108
1, 330691, Note_off_c, 0, 82, 50
1, 330701, Control_c, 0, 64, 127
1, 330701, Control_c, 1, 64, 127
1, 330705, Note_off_c, 0, 84, 59
1, 330725, Note_on_c, 0, 46, 28
1, 330767, Note_on_c, 0, 84, 73
1, 330768, Note_on_c, 0, 72, 75
1, 330840, Note_off_c, 0, 72, 56
1, 330846, Note_off_c, 0, 56, 60
1, 330859, Note_off_c, 0, 84, 62
1, 330910, Control_c, 0, 64, 94
1, 330910, Control_c, 1, 64, 94
1, 330924, Note_on_c, 0, 43, 71
1, 330927, Note_on_c, 0, 55, 72
1, 330927, Control_c, 0, 64, 58
1, 330927, Control_c, 1, 64, 58
1, 330930, Note_off_c, 0, 46, 39
1, 330940, Note_on_c, 0, 84, 82
1, 330942, Note_off_c, 0, 44, 60
1, 330945, Control_c, 0, 64, 40
1, 330945, Control_c, 1, 64, 40
1, 330962, Note_on_c, 0, 72, 73
1, 330963, Control_c, 0, 64, 43
1, 330963, Control_c, 1, 64, 43
1, 330982, Control_c, 1, 64, 60
1, 330982, Control_c, 0, 64, 60
1, 331001, Control_c, 0, 64, 96
1, 331001, Control_c, 1, 64, 96
1, 331006, Note_off_c, 0, 72, 55
1, 331020, Control_c, 0, 64, 127
1, 331020, Control_c, 1, 64, 127
1, 331032, Note_off_c, 0, 84, 63
1, 331052, Note_off_c, 0, 55, 60
1, 331114, Note_on_c, 0, 84, 80
1, 331135, Note_on_c, 0, 72, 71
1, 331188, Note_on_c, 0, 52, 69
1, 331199, Note_on_c, 0, 40, 68
1, 331205, Note_off_c, 0, 72, 56
1, 331242, Note_off_c, 0, 84, 60
1, 331246, Note_off_c, 0, 43, 62
1, 331264, Control_c, 0, 64, 109
1, 331264, Control_c, 1, 64, 109
1, 331282, Control_c, 1, 64, 61
1, 331282, Control_c, 0, 64, 61
1, 331301, Control_c, 0, 64, 29
1, 331301, Control_c, 1, 64, 29
1, 331320, Control_c, 1, 64, 22
1, 331320, Control_c, 0, 64, 22
1, 331322, Note_on_c, 0, 84, 75
1, 331327, Note_off_c, 0, 52, 57
1, 331337, Control_c, 0, 64, 29
1, 331337, Control_c, 1, 64, 29
1, 331339, Note_on_c, 0, 72, 59
1, 331358, Control_c, 0, 64, 50
1, 331358, Control_c, 1, 64, 50
1, 331376, Control_c, 1, 64, 85
1, 331376, Control_c, 0, 64, 85
1, 331395, Control_c, 0, 64, 127
1, 331395, Control_c, 1, 64, 127
1, 331422, Note_off_c, 0, 72, 48
1, 331424, Poly_aftertouch_c, 0, 78, 0
1, 331464, Note_off_c, 0, 84, 57
1, 331517, Note_off_c, 0, 40, 56
1, 331529, Note_on_c, 0, 36, 52
1, 331562, Note_on_c, 0, 48, 44
1, 331563, Control_c, 0, 64, 76
1, 331563, Control_c, 1, 64, 76
1, 331580, Note_on_c, 0, 84, 58
1, 331582, Control_c, 0, 64, 46
1, 331582, Control_c, 1, 64, 46
1, 331586, Note_on_c, 0, 72, 42
1, 331600, Control_c, 0, 64, 36
1, 331600, Control_c, 1, 64, 36
1, 331619, Control_c, 1, 64, 45
1, 331619, Control_c, 0, 64, 45
1, 331635, Note_off_c, 0, 72, 44
1, 331637, Control_c, 0, 64, 72
1, 331637, Control_c, 1, 64, 72
1, 331657, Control_c, 1, 64, 127
1, 331657, Control_c, 0, 64, 127
1, 331691, Note_off_c, 0, 84, 61
1, 331704, Note_off_c, 0, 48, 27
1, 331799, Note_on_c, 0, 84, 57
1, 331810, Note_on_c, 0, 86, 47
1, 331818, Note_on_c, 0, 72, 18
1, 331877, Note_off_c, 0, 72, 40
1, 331880, Note_on_c, 0, 47, 53
1, 331880, Control_c, 0, 64, 81
1, 331880, Control_c, 1, 64, 81
1, 331887, Note_off_c, 0, 86, 41
1, 331900, Note_on_c, 0, 35, 54
1, 331900, Control_c, 0, 64, 38
1, 331900, Control_c, 1, 64, 38
1, 331918, Control_c, 1, 64, 0
1, 331918, Control_c, 0, 64, 0
1, 331949, Note_off_c, 0, 36, 48
1, 331975, Control_c, 0, 64, 24
1, 331975, Control_c, 1, 64, 24
1, 331993, Control_c, 1, 64, 64
1, 331993, Control_c, 0, 64, 64
1, 332007, Note_on_c, 0, 83, 62
1, 332010, Note_on_c, 0, 71, 58
1, 332012, Control_c, 0, 64, 127
1, 332012, Control_c, 1, 64, 127
1, 332021, Note_off_c, 0, 35, 61
1, 332031, Note_off_c, 0, 84, 36
1, 332076, Note_off_c, 0, 71, 52
1, 332079, Note_off_c, 0, 47, 42
1, 332089, Note_off_c, 0, 83, 60
1, 332200, Control_c, 0, 67, 49
1, 332200, Control_c, 1, 67, 49
1, 332227, Note_on_c, 0, 83, 58
1, 332230, Note_on_c, 0, 71, 53
1, 332271, Note_off_c, 0, 71, 50
1, 332276, Note_off_c, 0, 83, 56
1, 332303, Poly_aftertouch_c, 0, 82, 0
1, 332380, Note_on_c, 0, 71, 63
1, 332390, Note_on_c, 0, 83, 62
1, 332433, Note_off_c, 0, 71, 56
1, 332476, Note_on_c, 0, 69, 66
1, 332478, Note_off_c, 0, 83, 59
1, 332486, Note_on_c, 0, 57, 61
1, 332501, Note_on_c, 0, 60, 58
1, 332602, Note_off_c, 0, 69, 58
1, 332618, Note_on_c, 0, 83, 66
1, 332622, Note_on_c, 0, 71, 57
1, 332667, Note_off_c, 0, 71, 60
1, 332694, Note_off_c, 0, 83, 57
1, 332779, Control_c, 0, 64, 111
1, 332779, Control_c, 1, 64, 111
1, 332787, Note_off_c, 0, 57, 61
1, 332799, Control_c, 0, 64, 66
1, 332799, Control_c, 1, 64, 66
1, 332815, Note_on_c, 0, 67, 62
1, 332816, Note_on_c, 0, 55, 56
1, 332817, Control_c, 0, 64, 37
1, 332817, Control_c, 1, 64, 37
1, 332827, Note_on_c, 0, 59, 48
1, 332835, Control_c, 0, 64, 32
1, 332835, Control_c, 1, 64, 32
1, 332853, Note_on_c, 0, 83, 61
1, 332854, Control_c, 0, 64, 40
1, 332854, Control_c, 1, 64, 40
1, 332873, Control_c, 1, 64, 61
1, 332873, Control_c, 0, 64, 61
1, 332876, Note_on_c, 0, 71, 49
1, 332891, Control_c, 0, 64, 96
1, 332891, Control_c, 1, 64, 96
1, 332894, Note_off_c, 0, 59, 59
1, 332904, Note_off_c, 0, 83, 52
1, 332909, Control_c, 0, 64, 127
1, 332909, Control_c, 1, 64, 127
1, 332913, Note_off_c, 0, 71, 54
1, 332931, Note_off_c, 0, 60, 32
1, 332931, Poly_aftertouch_c, 0, 60, 0
1, 332946, Note_off_c, 0, 67, 63
1, 333023, Note_on_c, 0, 71, 57
1, 333033, Note_on_c, 0, 83, 63
1, 333078, Note_off_c, 0, 71, 57
1, 333089, Note_on_c, 0, 54, 61
1, 333092, Note_on_c, 0, 66, 73
1, 333095, Note_off_c, 0, 83, 49
1, 333108, Note_off_c, 0, 55, 58
1, 333112, Poly_aftertouch_c, 0, 80, 0
1, 333114, Note_on_c, 0, 57, 61
1, 333135, Control_c, 0, 67, 53
1, 333135, Control_c, 1, 67, 53
1, 333174, Control_c, 1, 64, 79
1, 333174, Control_c, 0, 64, 79
1, 333192, Control_c, 0, 64, 68
1, 333192, Control_c, 1, 64, 68
1, 333209, Control_c, 1, 64, 83
1, 333209, Control_c, 0, 64, 83
1, 333221, Note_on_c, 0, 83, 68
1, 333224, Note_on_c, 0, 71, 57
1, 333229, Control_c, 0, 64, 127
1, 333229, Control_c, 1, 64, 127
1, 333259, Note_off_c, 0, 66, 59
1, 333259, Poly_aftertouch_c, 0, 66, 0
1, 333268, Note_off_c, 0, 71, 61
1, 333289, Note_off_c, 0, 83, 46
1, 333323, Poly_aftertouch_c, 0, 72, 0
1, 333350, Note_on_c, 0, 64, 80
1, 333355, Note_off_c, 0, 57, 57
1, 333360, Note_on_c, 0, 52, 70
1, 333368, Note_on_c, 0, 55, 58
1, 333377, Note_on_c, 0, 83, 63
1, 333377, Control_c, 0, 64, 81
1, 333377, Control_c, 1, 64, 81
1, 333385, Note_on_c, 0, 71, 64
1, 333398, Control_c, 0, 64, 60
1, 333398, Control_c, 1, 64, 60
1, 333413, Note_off_c, 0, 71, 57
1, 333414, Control_c, 0, 64, 65
1, 333414, Control_c, 1, 64, 65
1, 333420, Note_off_c, 0, 55, 61
1, 333435, Control_c, 0, 64, 88
1, 333435, Control_c, 1, 64, 88
1, 333443, Note_off_c, 0, 54, 37
1, 333453, Control_c, 0, 64, 127
1, 333453, Control_c, 1, 64, 127
1, 333455, Note_off_c, 0, 83, 60
1, 333473, Note_off_c, 0, 64, 58
1, 333510, Note_on_c, 0, 71, 65
1, 333514, Note_on_c, 0, 83, 56
1, 333576, Note_on_c, 0, 54, 71
1, 333584, Note_on_c, 0, 51, 72
1, 333588, Note_off_c, 0, 71, 60
1, 333588, Note_on_c, 0, 63, 75
1, 333604, Note_off_c, 0, 52, 59
1, 333605, Note_off_c, 0, 83, 59
1, 333640, Control_c, 0, 64, 101
1, 333640, Control_c, 1, 64, 101
1, 333660, Control_c, 1, 64, 64
1, 333660, Control_c, 0, 64, 64
1, 333669, Note_on_c, 0, 83, 68
1, 333677, Control_c, 0, 64, 53
1, 333677, Control_c, 1, 64, 53
1, 333684, Note_on_c, 0, 71, 53
1, 333696, Control_c, 0, 64, 64
1, 333696, Control_c, 1, 64, 64
1, 333716, Control_c, 1, 64, 96
1, 333716, Control_c, 0, 64, 96
1, 333724, Note_off_c, 0, 71, 66
1, 333733, Control_c, 0, 64, 127
1, 333733, Control_c, 1, 64, 127
1, 333736, Note_off_c, 0, 63, 59
1, 333760, Note_off_c, 0, 54, 62
1, 333776, Note_off_c, 0, 51, 60
1, 333822, Note_on_c, 0, 52, 64
1, 333823, Note_on_c, 0, 64, 70
1, 333826, Control_c, 0, 64, 110
1, 333826, Control_c, 1, 64, 110
1, 333841, Note_on_c, 0, 55, 70
1, 333846, Control_c, 0, 64, 64
1, 333846, Control_c, 1, 64, 64
1, 333848, Note_on_c, 0, 82, 77
1, 333851, Note_off_c, 0, 83, 58
1, 333863, Note_on_c, 0, 70, 68
1, 333865, Control_c, 0, 64, 38
1, 333865, Control_c, 1, 64, 38
1, 333883, Control_c, 1, 64, 41
1, 333883, Control_c, 0, 64, 41
1, 333897, Note_off_c, 0, 55, 58
1, 333901, Note_off_c, 0, 70, 62
1, 333901, Poly_aftertouch_c, 0, 70, 0
1, 333902, Control_c, 0, 64, 66
1, 333902, Control_c, 1, 64, 66
1, 333921, Note_off_c, 0, 64, 57
1, 333921, Control_c, 0, 64, 127
1, 333921, Control_c, 1, 64, 127
1, 333941, Note_off_c, 0, 82, 64
1, 334006, Note_on_c, 0, 82, 64
1, 334024, Note_on_c, 0, 70, 69
1, 334057, Note_on_c, 0, 50, 70
1, 334058, Note_off_c, 0, 70, 67
1, 334058, Poly_aftertouch_c, 0, 70, 0
1, 334069, Note_on_c, 0, 62, 67
1, 334083, Note_on_c, 0, 53, 62
1, 334088, Control_c, 0, 64, 93
1, 334088, Control_c, 1, 64, 93
1, 334089, Control_c, 1, 67, 57
1, 334089, Control_c, 0, 67, 57
1, 334097, Note_off_c, 0, 82, 64
1, 334103, Note_off_c, 0, 52, 61
1, 334107, Control_c, 0, 64, 56
1, 334107, Control_c, 1, 64, 56
1, 334127, Control_c, 1, 64, 41
1, 334127, Control_c, 0, 64, 41
1, 334145, Control_c, 0, 64, 53
1, 334145, Control_c, 1, 64, 53
1, 334147, Control_c, 1, 67, 62
1, 334147, Control_c, 0, 67, 62
1, 334166, Control_c, 0, 64, 87
1, 334166, Control_c, 1, 64, 87
1, 334177, Note_off_c, 0, 62, 59
1, 334184, Control_c, 0, 64, 127
1, 334184, Control_c, 1, 64, 127
1, 334188, Note_on_c, 0, 70, 70
1, 334196, Note_on_c, 0, 82, 68
1, 334204, Note_off_c, 0, 50, 61
1, 334245, Note_off_c, 0, 70, 55
1, 334245, Poly_aftertouch_c, 0, 70, 0
1, 334272, Poly_aftertouch_c, 0, 80, 0
1, 334275, Note_off_c, 0, 82, 61
1, 334409, Note_on_c, 0, 61, 56
1, 334409, Note_on_c, 0, 52, 55
1, 334409, Control_c, 0, 64, 66
1, 334409, Control_c, 1, 64, 66
1, 334410, Note_off_c, 0, 53, 59
1, 334416, Note_on_c, 0, 49, 62
1, 334426, Control_c, 0, 64, 28
1, 334426, Control_c, 1, 64, 28
1, 334438, Note_on_c, 0, 81, 57
1, 334444, Control_c, 0, 64, 15
1, 334444, Control_c, 1, 64, 15
1, 334465, Control_c, 1, 64, 25
1, 334465, Control_c, 0, 64, 25
1, 334481, Note_on_c, 0, 69, 23
1, 334483, Control_c, 0, 64, 56
1, 334483, Control_c, 1, 64, 56
1, 334493, Note_off_c, 0, 52, 61
1, 334501, Control_c, 0, 64, 127
1, 334501, Control_c, 1, 64, 127
1, 334510, Note_off_c, 0, 49, 64
1, 334514, Note_off_c, 0, 61, 60
1, 334525, Note_off_c, 0, 81, 62
1, 334533, Note_off_c, 0, 69, 39
1, 334538, Control_c, 0, 67, 68
1, 334538, Control_c, 1, 67, 68
1, 334628, Note_on_c, 0, 81, 54
1, 334647, Note_on_c, 0, 69, 51
1, 334682, Note_off_c, 0, 69, 53
1, 334687, Note_off_c, 0, 81, 52
1, 334687, Control_c, 0, 67, 72
1, 334687, Control_c, 1, 67, 72
1, 334707, Control_c, 1, 67, 76
1, 334707, Control_c, 0, 67, 76
1, 334734, Note_on_c, 0, 55, 64
1, 334739, Note_on_c, 0, 58, 57
1, 334741, Note_on_c, 0, 67, 59
1, 334745, Control_c, 0, 67, 80
1, 334745, Control_c, 1, 67, 80
1, 334763, Control_c, 1, 64, 105
1, 334763, Control_c, 0, 64, 105
1, 334783, Control_c, 0, 64, 66
1, 334783, Control_c, 1, 64, 66
1, 334802, Control_c, 1, 64, 53
1, 334802, Control_c, 0, 64, 53
1, 334820, Control_c, 0, 64, 62
1, 334820, Control_c, 1, 64, 62
1, 334838, Control_c, 1, 64, 83
1, 334838, Control_c, 0, 64, 83
1, 334849, Note_on_c, 0, 81, 48
1, 334851, Note_off_c, 0, 67, 57
1, 334857, Control_c, 0, 64, 127
1, 334857, Control_c, 1, 64, 127
1, 334871, Note_on_c, 0, 69, 25
1, 334923, Note_off_c, 0, 69, 46
1, 334940, Note_off_c, 0, 81, 61
1, 335025, Control_c, 0, 64, 95
1, 335025, Control_c, 1, 64, 95
1, 335039, Note_off_c, 0, 55, 49
1, 335043, Control_c, 0, 64, 62
1, 335043, Control_c, 1, 64, 62
1, 335059, Note_off_c, 0, 58, 58
1, 335064, Note_on_c, 0, 57, 57
1, 335064, Control_c, 0, 64, 47
1, 335064, Control_c, 1, 64, 47
1, 335065, Note_on_c, 0, 65, 54
1, 335071, Note_on_c, 0, 53, 54
1, 335081, Control_c, 0, 64, 51
1, 335081, Control_c, 1, 64, 51
1, 335096, Note_on_c, 0, 81, 47
1, 335099, Note_on_c, 0, 69, 33
1, 335099, Control_c, 0, 64, 65
1, 335099, Control_c, 1, 64, 65
1, 335120, Control_c, 1, 64, 94
1, 335120, Control_c, 0, 64, 94
1, 335139, Control_c, 0, 64, 127
1, 335139, Control_c, 1, 64, 127
1, 335140, Note_off_c, 0, 69, 43
1, 335148, Note_off_c, 0, 57, 62
1, 335150, Note_off_c, 0, 81, 47
1, 335169, Note_off_c, 0, 65, 55
1, 335250, Note_on_c, 0, 69, 57
1, 335251, Note_on_c, 0, 81, 71
1, 335286, Note_off_c, 0, 69, 57
1, 335309, Note_off_c, 0, 81, 49
1, 335309, Note_on_c, 0, 52, 68
1, 335323, Note_on_c, 0, 64, 59
1, 335324, Control_c, 0, 64, 71
1, 335324, Control_c, 1, 64, 71
1, 335325, Note_on_c, 0, 55, 60
1, 335344, Control_c, 0, 64, 41
1, 335344, Control_c, 1, 64, 41
1, 335363, Control_c, 1, 64, 35
1, 335363, Control_c, 0, 64, 35
1, 335381, Control_c, 0, 64, 48
1, 335381, Control_c, 1, 64, 48
1, 335401, Control_c, 1, 64, 82
1, 335401, Control_c, 0, 64, 82
1, 335403, Note_off_c, 0, 53, 34
1, 335406, Note_on_c, 0, 69, 61
1, 335410, Note_on_c, 0, 81, 68
1, 335418, Control_c, 0, 64, 127
1, 335418, Control_c, 1, 64, 127
1, 335425, Note_off_c, 0, 64, 60
1, 335438, Control_c, 0, 67, 85
1, 335438, Control_c, 1, 67, 85
1, 335447, Note_off_c, 0, 69, 62
1, 335471, Note_off_c, 0, 81, 58
1, 335514, Control_c, 0, 67, 89
1, 335514, Control_c, 1, 67, 89
1, 335526, Note_off_c, 0, 52, 49
1, 335549, Control_c, 0, 64, 74
1, 335549, Control_c, 1, 64, 74
1, 335550, Note_on_c, 0, 81, 68
1, 335550, Note_on_c, 0, 50, 68
1, 335553, Note_on_c, 0, 62, 65
1, 335558, Note_on_c, 0, 53, 63
1, 335567, Note_on_c, 0, 69, 63
1, 335567, Control_c, 0, 64, 54
1, 335567, Control_c, 1, 64, 54
1, 335569, Control_c, 1, 67, 93
1, 335569, Control_c, 0, 67, 93
1, 335574, Note_off_c, 0, 55, 55
1, 335587, Control_c, 0, 64, 60
1, 335587, Control_c, 1, 64, 60
1, 335602, Note_off_c, 0, 69, 66
1, 335605, Control_c, 0, 64, 82
1, 335605, Control_c, 1, 64, 82
1, 335625, Note_off_c, 0, 53, 61
1, 335627, Control_c, 0, 64, 127
1, 335627, Control_c, 1, 64, 127
1, 335630, Note_off_c, 0, 62, 62
1, 335638, Note_off_c, 0, 81, 60
1, 335662, Control_c, 0, 67, 98
1, 335662, Control_c, 1, 67, 98
1, 335700, Note_on_c, 0, 81, 63
1, 335706, Note_on_c, 0, 69, 70
1, 335757, Note_off_c, 0, 69, 56
1, 335764, Note_on_c, 0, 61, 59
1, 335766, Note_on_c, 0, 49, 71
1, 335774, Control_c, 0, 64, 118
1, 335774, Control_c, 1, 64, 118
1, 335776, Note_off_c, 0, 81, 61
1, 335776, Note_on_c, 0, 52, 57
1, 335790, Note_off_c, 0, 50, 60
1, 335792, Control_c, 0, 64, 68
1, 335792, Control_c, 1, 64, 68
1, 335795, Control_c, 1, 67, 102
1, 335795, Control_c, 0, 67, 102
1, 335813, Control_c, 0, 64, 44
1, 335813, Control_c, 1, 64, 44
1, 335830, Control_c, 1, 64, 46
1, 335830, Control_c, 0, 64, 46
1, 335848, Note_on_c, 0, 81, 66
1, 335849, Control_c, 0, 64, 67
1, 335849, Control_c, 1, 64, 67
1, 335868, Control_c, 1, 64, 127
1, 335868, Control_c, 0, 64, 127
1, 335870, Control_c, 0, 67, 106
1, 335870, Control_c, 1, 67, 106
1, 335873, Note_on_c, 0, 69, 68
1, 335900, Note_off_c, 0, 52, 56
1, 335909, Note_off_c, 0, 69, 62
1, 335916, Note_off_c, 0, 61, 56
1, 335953, Note_off_c, 0, 49, 55
1, 336013, Note_on_c, 0, 50, 58
1, 336022, Note_on_c, 0, 62, 57
1, 336035, Control_c, 0, 64, 97
1, 336035, Control_c, 1, 64, 97
1, 336039, Note_on_c, 0, 53, 53
1, 336040, Note_off_c, 0, 81, 54
1, 336048, Note_on_c, 0, 80, 70
1, 336054, Control_c, 0, 64, 58
1, 336054, Control_c, 1, 64, 58
1, 336057, Control_c, 1, 67, 111
1, 336057, Control_c, 0, 67, 111
1, 336074, Control_c, 0, 64, 32
1, 336074, Control_c, 1, 64, 32
1, 336081, Note_on_c, 0, 68, 45
1, 336112, Control_c, 0, 64, 46
1, 336112, Control_c, 1, 64, 46
1, 336113, Control_c, 1, 67, 115
1, 336113, Control_c, 0, 67, 115
1, 336120, Note_off_c, 0, 68, 57
1, 336124, Note_off_c, 0, 53, 52
1, 336131, Control_c, 0, 64, 79
1, 336131, Control_c, 1, 64, 79
1, 336132, Note_off_c, 0, 62, 53
1, 336134, Note_off_c, 0, 80, 64
1, 336149, Control_c, 0, 64, 127
1, 336149, Control_c, 1, 64, 127
1, 336222, Control_c, 1, 67, 120
1, 336222, Control_c, 0, 67, 120
1, 336225, Note_on_c, 0, 80, 63
1, 336226, Note_on_c, 0, 68, 57
1, 336270, Note_off_c, 0, 68, 64
1, 336270, Note_on_c, 0, 48, 62
1, 336280, Note_on_c, 0, 52, 62
1, 336284, Note_on_c, 0, 60, 58
1, 336289, Note_off_c, 0, 80, 53
1, 336296, Control_c, 0, 64, 81
1, 336296, Control_c, 1, 64, 81
1, 336318, Control_c, 1, 64, 52
1, 336318, Control_c, 0, 64, 52
1, 336337, Control_c, 0, 64, 42
1, 336337, Control_c, 1, 64, 42
1, 336354, Control_c, 1, 64, 52
1, 336354, Control_c, 0, 64, 52
1, 336374, Control_c, 0, 64, 79
1, 336374, Control_c, 1, 64, 79
1, 336378, Note_off_c, 0, 60, 56
1, 336378, Poly_aftertouch_c, 0, 60, 0
1, 336387, Note_on_c, 0, 68, 59
1, 336388, Note_off_c, 0, 50, 32
1, 336393, Control_c, 0, 64, 127
1, 336393, Control_c, 1, 64, 127
1, 336408, Note_on_c, 0, 80, 63
1, 336412, Control_c, 0, 67, 125
1, 336412, Control_c, 1, 67, 125
1, 336437, Note_off_c, 0, 68, 60
1, 336454, Note_off_c, 0, 80, 60
1, 336529, Note_off_c, 0, 48, 54
1, 336600, Control_c, 0, 64, 85
1, 336600, Control_c, 1, 64, 85
1, 336602, Note_on_c, 0, 59, 49
1, 336609, Note_on_c, 0, 47, 49
1, 336617, Control_c, 0, 64, 52
1, 336617, Control_c, 1, 64, 52
1, 336631, Note_on_c, 0, 50, 49
1, 336635, Control_c, 0, 64, 28
1, 336635, Control_c, 1, 64, 28
1, 336638, Note_off_c, 0, 52, 45
1, 336654, Control_c, 0, 64, 23
1, 336654, Control_c, 1, 64, 23
1, 336664, Note_on_c, 0, 79, 58
1, 336673, Control_c, 0, 64, 31
1, 336673, Control_c, 1, 64, 31
1, 336691, Control_c, 1, 64, 57
1, 336691, Control_c, 0, 64, 57
1, 336710, Control_c, 0, 64, 109
1, 336710, Control_c, 1, 64, 109
1, 336729, Note_off_c, 0, 50, 61
1, 336729, Control_c, 0, 64, 127
1, 336729, Control_c, 1, 64, 127
1, 336749, Note_off_c, 0, 79, 44
1, 336756, Note_off_c, 0, 59, 60
1, 336763, Poly_aftertouch_c, 0, 67, 0
1, 336878, Note_on_c, 0, 79, 57
1, 336884, Note_off_c, 0, 47, 53
1, 336896, Note_on_c, 0, 48, 56
1, 336907, Note_on_c, 0, 60, 55
1, 336920, Note_on_c, 0, 52, 45
1, 336925, Note_off_c, 0, 79, 62
1, 336969, Poly_aftertouch_c, 0, 67, 0
1, 336973, Control_c, 0, 64, 98
1, 336973, Control_c, 1, 64, 98
1, 336991, Note_off_c, 0, 48, 60
1, 336991, Control_c, 0, 64, 65
1, 336991, Control_c, 1, 64, 65
1, 336993, Note_off_c, 0, 60, 56
1, 336993, Poly_aftertouch_c, 0, 60, 0
1, 337011, Control_c, 0, 64, 56
1, 337011, Control_c, 1, 64, 56
1, 337029, Control_c, 1, 64, 65
1, 337029, Control_c, 0, 64, 65
1, 337038, Note_on_c, 0, 79, 62
1, 337047, Control_c, 0, 64, 86
1, 337047, Control_c, 1, 64, 86
1, 337066, Control_c, 1, 64, 127
1, 337066, Control_c, 0, 64, 127
1, 337150, Poly_aftertouch_c, 0, 67, 0
1, 337175, Note_on_c, 0, 57, 54
1, 337177, Control_c, 0, 64, 76
1, 337177, Control_c, 1, 64, 76
1, 337184, Note_on_c, 0, 45, 49
1, 337197, Control_c, 0, 64, 52
1, 337197, Control_c, 1, 64, 52
1, 337211, Note_on_c, 0, 48, 45
1, 337223, Note_on_c, 0, 78, 61
1, 337228, Note_off_c, 0, 52, 58
1, 337232, Control_c, 0, 64, 66
1, 337232, Control_c, 1, 64, 66
1, 337254, Control_c, 1, 64, 100
1, 337254, Control_c, 0, 64, 100
1, 337261, Note_off_c, 0, 79, 36
1, 337266, Note_on_c, 0, 66, 30
1, 337272, Control_c, 0, 64, 127
1, 337272, Control_c, 1, 64, 127
1, 337288, Note_off_c, 0, 78, 52
1, 337300, Note_off_c, 0, 57, 59
1, 337313, Note_off_c, 0, 66, 44
1, 337313, Poly_aftertouch_c, 0, 66, 0
1, 337382, Note_off_c, 0, 48, 35
1, 337399, Note_on_c, 0, 78, 60
1, 337458, Note_on_c, 0, 66, 15
1, 337474, Note_off_c, 0, 45, 56
1, 337498, Note_on_c, 0, 47, 54
1, 337502, Note_off_c, 0, 78, 52
1, 337502, Note_on_c, 0, 59, 54
1, 337524, Note_off_c, 0, 66, 37
1, 337524, Poly_aftertouch_c, 0, 66, 0
1, 337527, Note_on_c, 0, 50, 50
1, 337534, Control_c, 0, 64, 96
1, 337534, Control_c, 1, 64, 96
1, 337553, Control_c, 1, 64, 62
1, 337553, Control_c, 0, 64, 62
1, 337571, Control_c, 0, 64, 49
1, 337571, Control_c, 1, 64, 49
1, 337590, Control_c, 1, 64, 54
1, 337590, Control_c, 0, 64, 54
1, 337594, Note_off_c, 0, 47, 62
1, 337604, Note_on_c, 0, 77, 66
1, 337608, Control_c, 0, 64, 68
1, 337608, Control_c, 1, 64, 68
1, 337622, Note_on_c, 0, 65, 42
1, 337623, Note_off_c, 0, 59, 60
1, 337626, Control_c, 0, 64, 99
1, 337626, Control_c, 1, 64, 99
1, 337645, Control_c, 1, 64, 127
1, 337645, Control_c, 0, 64, 127
1, 337670, Note_off_c, 0, 65, 49
1, 337698, Note_off_c, 0, 77, 58
1, 337831, Note_on_c, 0, 77, 64
1, 337834, Control_c, 0, 64, 97
1, 337834, Control_c, 1, 64, 97
1, 337842, Note_on_c, 0, 56, 36
1, 337842, Note_on_c, 0, 47, 43
1, 337850, Note_on_c, 0, 65, 33
1, 337852, Control_c, 0, 64, 74
1, 337852, Control_c, 1, 64, 74
1, 337858, Note_on_c, 0, 44, 49
1, 337871, Control_c, 0, 64, 72
1, 337871, Control_c, 1, 64, 72
1, 337885, Note_off_c, 0, 50, 39
1, 337889, Control_c, 0, 64, 89
1, 337889, Control_c, 1, 64, 89
1, 337894, Note_off_c, 0, 65, 50
1, 337909, Control_c, 0, 64, 127
1, 337909, Control_c, 1, 64, 127
1, 337920, Note_off_c, 0, 77, 59
1, 338000, Note_off_c, 0, 47, 52
1, 338020, Note_on_c, 0, 77, 61
1, 338024, Note_off_c, 0, 56, 47
1, 338065, Note_on_c, 0, 65, 14
1, 338072, Note_off_c, 0, 44, 60
1, 338115, Control_c, 0, 64, 86
1, 338115, Control_c, 1, 64, 86
1, 338133, Control_c, 1, 64, 59
1, 338133, Control_c, 0, 64, 59
1, 338134, Note_off_c, 0, 65, 35
1, 338146, Note_on_c, 0, 45, 58
1, 338153, Control_c, 0, 64, 50
1, 338153, Control_c, 1, 64, 50
1, 338154, Note_on_c, 0, 57, 55
1, 338161, Note_on_c, 0, 48, 45
1, 338170, Control_c, 0, 64, 56
1, 338170, Control_c, 1, 64, 56
1, 338189, Control_c, 1, 64, 72
1, 338189, Control_c, 0, 64, 72
1, 338207, Note_off_c, 0, 77, 50
1, 338207, Control_c, 0, 64, 111
1, 338207, Control_c, 1, 64, 111
1, 338214, Note_on_c, 0, 76, 64
1, 338226, Control_c, 0, 64, 127
1, 338226, Control_c, 1, 64, 127
1, 338247, Note_off_c, 0, 57, 62
1, 338252, Note_off_c, 0, 45, 60
1, 338262, Note_on_c, 0, 64, 28
1, 338315, Note_off_c, 0, 64, 42
1, 338432, Control_c, 0, 64, 83
1, 338432, Control_c, 1, 64, 83
1, 338439, Note_on_c, 0, 44, 43
1, 338451, Control_c, 0, 64, 53
1, 338451, Control_c, 1, 64, 53
1, 338470, Control_c, 1, 64, 37
1, 338470, Control_c, 0, 64, 37
1, 338483, Note_on_c, 0, 75, 58
1, 338485, Note_off_c, 0, 44, 35
1, 338491, Note_on_c, 0, 45, 42
1, 338493, Note_on_c, 0, 54, 51
1, 338494, Note_on_c, 0, 63, 47
1, 338504, Note_on_c, 0, 42, 44
1, 338504, Control_c, 0, 64, 50
1, 338504, Control_c, 1, 64, 50
1, 338513, Note_off_c, 0, 76, 49
1, 338517, Note_off_c, 0, 48, 32
1, 338523, Control_c, 0, 64, 75
1, 338523, Control_c, 1, 64, 75
1, 338537, Note_off_c, 0, 63, 60
1, 338544, Control_c, 0, 64, 127
1, 338544, Control_c, 1, 64, 127
1, 338560, Note_off_c, 0, 75, 59
1, 338606, Note_off_c, 0, 45, 59
1, 338618, Note_off_c, 0, 54, 58
1, 338673, Note_on_c, 0, 63, 43
1, 338682, Note_on_c, 0, 75, 57
1, 338793, Note_off_c, 0, 42, 58
1, 338798, Note_off_c, 0, 63, 38
1, 338805, Note_on_c, 0, 44, 61
1, 338806, Control_c, 0, 64, 73
1, 338806, Control_c, 1, 64, 73
1, 338813, Note_on_c, 0, 56, 59
1, 338825, Control_c, 0, 64, 49
1, 338825, Control_c, 1, 64, 49
1, 338827, Note_on_c, 0, 47, 48
1, 338844, Control_c, 0, 64, 47
1, 338844, Control_c, 1, 64, 47
1, 338853, Note_off_c, 0, 75, 57
1, 338863, Control_c, 0, 64, 58
1, 338863, Control_c, 1, 64, 58
1, 338882, Control_c, 1, 64, 81
1, 338882, Control_c, 0, 64, 81
1, 338900, Control_c, 0, 64, 127
1, 338900, Control_c, 1, 64, 127
1, 338919, Note_on_c, 0, 74, 61
1, 338940, Note_on_c, 0, 62, 38
1, 338982, Note_off_c, 0, 56, 48
1, 338986, Note_off_c, 0, 62, 49
1, 339007, Note_off_c, 0, 74, 55
1, 339023, Note_off_c, 0, 47, 37
1, 339045, Note_off_c, 0, 44, 56
1, 339162, Control_c, 0, 64, 72
1, 339162, Control_c, 1, 64, 72
1, 339173, Note_on_c, 0, 74, 57
1, 339180, Control_c, 0, 64, 43
1, 339180, Control_c, 1, 64, 43
1, 339182, Note_on_c, 0, 57, 52
1, 339184, Note_on_c, 0, 45, 54
1, 339198, Note_on_c, 0, 48, 44
1, 339199, Control_c, 0, 64, 28
1, 339199, Control_c, 1, 64, 28
1, 339237, Control_c, 1, 64, 40
1, 339237, Control_c, 0, 64, 40
1, 339256, Control_c, 0, 64, 63
1, 339256, Control_c, 1, 64, 63
1, 339275, Control_c, 1, 64, 100
1, 339275, Control_c, 0, 64, 100
1, 339281, Note_off_c, 0, 74, 56
1, 339291, Poly_aftertouch_c, 0, 62, 0
1, 339294, Control_c, 0, 64, 127
1, 339294, Control_c, 1, 64, 127
1, 339378, Note_off_c, 0, 57, 37
1, 339382, Note_on_c, 0, 74, 59
1, 339412, Note_off_c, 0, 48, 54
1, 339527, Poly_aftertouch_c, 0, 62, 0
1, 339536, Control_c, 0, 64, 91
1, 339536, Control_c, 1, 64, 91
1, 339546, Note_on_c, 0, 53, 67
1, 339554, Control_c, 0, 64, 61
1, 339554, Control_c, 1, 64, 61
1, 339558, Note_on_c, 0, 41, 56
1, 339575, Control_c, 0, 64, 46
1, 339575, Control_c, 1, 64, 46
1, 339607, Note_off_c, 0, 45, 62
1, 339611, Control_c, 0, 64, 57
1, 339611, Control_c, 1, 64, 57
1, 339630, Control_c, 1, 64, 72
1, 339630, Control_c, 0, 64, 72
1, 339650, Control_c, 0, 64, 102
1, 339650, Control_c, 1, 64, 102
1, 339666, Note_on_c, 0, 72, 59
1, 339667, Control_c, 0, 64, 127
1, 339667, Control_c, 1, 64, 127
1, 339682, Note_off_c, 0, 74, 56
1, 339691, Note_off_c, 0, 53, 51
1, 339693, Note_on_c, 0, 60, 28
1, 339748, Note_off_c, 0, 60, 49
1, 339748, Poly_aftertouch_c, 0, 60, 0
1, 339749, Note_off_c, 0, 72, 57
1, 339961, Note_off_c, 0, 41, 57
1, 339966, Control_c, 0, 64, 78
1, 339966, Control_c, 1, 64, 78
1, 339978, Note_on_c, 0, 38, 48
1, 339979, Note_on_c, 0, 71, 58
1, 339985, Control_c, 0, 64, 48
1, 339985, Control_c, 1, 64, 48
1, 339998, Note_on_c, 0, 50, 36
1, 340003, Control_c, 0, 64, 28
1, 340003, Control_c, 1, 64, 28
1, 340018, Note_on_c, 0, 59, 29
1, 340061, Control_c, 0, 64, 42
1, 340061, Control_c, 1, 64, 42
1, 340076, Note_off_c, 0, 59, 56
1, 340081, Control_c, 0, 64, 66
1, 340081, Control_c, 1, 64, 66
1, 340098, Control_c, 1, 64, 104
1, 340098, Control_c, 0, 64, 104
1, 340113, Note_off_c, 0, 71, 59
1, 340114, Control_c, 0, 64, 127
1, 340114, Control_c, 1, 64, 127
1, 340196, Note_off_c, 0, 50, 56
1, 340249, Note_on_c, 0, 71, 41
1, 340328, Poly_aftertouch_c, 0, 59, 0
1, 340398, Control_c, 0, 64, 104
1, 340398, Control_c, 1, 64, 104
1, 340401, Note_off_c, 0, 38, 54
1, 340413, Note_on_c, 0, 40, 49
1, 340414, Note_on_c, 0, 52, 35
1, 340417, Control_c, 0, 64, 66
1, 340417, Control_c, 1, 64, 66
1, 340435, Control_c, 1, 64, 40
1, 340435, Control_c, 0, 64, 40
1, 340454, Control_c, 0, 64, 32
1, 340454, Control_c, 1, 64, 32
1, 340493, Control_c, 1, 64, 45
1, 340493, Control_c, 0, 64, 45
1, 340510, Control_c, 0, 64, 67
1, 340510, Control_c, 1, 64, 67
1, 340528, Control_c, 1, 64, 105
1, 340528, Control_c, 0, 64, 105
1, 340535, Note_on_c, 0, 68, 46
1, 340548, Control_c, 0, 64, 127
1, 340548, Control_c, 1, 64, 127
1, 340556, Note_off_c, 0, 52, 35
1, 340580, Note_on_c, 0, 56, 26
1, 340601, Note_off_c, 0, 71, 36
1, 340644, Note_off_c, 0, 56, 45
1, 340755, Note_off_c, 0, 68, 38
1, 340824, Note_off_c, 0, 40, 50
1, 340827, Control_c, 0, 64, 118
1, 340827, Control_c, 1, 64, 118
1, 340847, Control_c, 1, 64, 69
1, 340847, Control_c, 0, 64, 69
1, 340865, Control_c, 0, 64, 38
1, 340865, Control_c, 1, 64, 38
1, 340869, Note_on_c, 0, 36, 42
1, 340885, Control_c, 0, 64, 19
1, 340885, Control_c, 1, 64, 19
1, 340892, Note_on_c, 0, 69, 40
1, 340901, Note_on_c, 0, 57, 18
1, 340907, Note_on_c, 0, 48, 28
1, 340941, Control_c, 0, 64, 32
1, 340941, Control_c, 1, 64, 32
1, 340961, Control_c, 1, 64, 58
1, 340961, Control_c, 0, 64, 58
1, 340978, Control_c, 0, 64, 100
1, 340978, Control_c, 1, 64, 100
1, 340997, Control_c, 1, 64, 127
1, 340997, Control_c, 0, 64, 127
1, 341029, Note_off_c, 0, 69, 49
1, 341052, Note_off_c, 0, 57, 30
1, 341079, Note_off_c, 0, 48, 36
1, 341184, Control_c, 0, 64, 88
1, 341184, Control_c, 1, 64, 88
1, 341201, Note_on_c, 0, 69, 50
1, 341202, Control_c, 0, 64, 72
1, 341202, Control_c, 1, 64, 72
1, 341221, Control_c, 1, 64, 76
1, 341221, Control_c, 0, 64, 76
1, 341229, Note_on_c, 0, 57, 22
1, 341240, Control_c, 0, 64, 88
1, 341240, Control_c, 1, 64, 88
1, 341259, Control_c, 1, 64, 127
1, 341259, Control_c, 0, 64, 127
1, 341314, Note_off_c, 0, 36, 56
1, 341326, Note_on_c, 0, 35, 42
1, 341351, Note_off_c, 0, 69, 49
1, 341351, Note_on_c, 0, 47, 29
1, 341354, Note_off_c, 0, 57, 35
1, 341502, Control_c, 0, 64, 81
1, 341502, Control_c, 1, 64, 81
1, 341515, Note_on_c, 0, 69, 46
1, 341519, Control_c, 0, 64, 66
1, 341519, Control_c, 1, 64, 66
1, 341528, Note_off_c, 0, 47, 41
1, 341529, Note_on_c, 0, 57, 26
1, 341537, Control_c, 0, 64, 69
1, 341537, Control_c, 1, 64, 69
1, 341559, Control_c, 1, 64, 78
1, 341559, Control_c, 0, 64, 78
1, 341578, Control_c, 0, 64, 103
1, 341578, Control_c, 1, 64, 103
1, 341595, Control_c, 1, 64, 127
1, 341595, Control_c, 0, 64, 127
1, 341655, Note_off_c, 0, 69, 48
1, 341680, Note_off_c, 0, 57, 36
1, 341877, Control_c, 0, 64, 105
1, 341877, Control_c, 1, 64, 105
1, 341896, Control_c, 1, 64, 71
1, 341896, Control_c, 0, 64, 71
1, 341914, Control_c, 0, 64, 48
1, 341914, Control_c, 1, 64, 48
1, 341933, Control_c, 1, 64, 29
1, 341933, Control_c, 0, 64, 29
1, 341940, Note_on_c, 0, 69, 39
1, 341948, Note_on_c, 0, 33, 27
1, 341952, Control_c, 0, 64, 17
1, 341952, Control_c, 1, 64, 17
1, 341961, Note_on_c, 0, 45, 26
1, 341970, Control_c, 0, 64, 11
1, 341970, Control_c, 1, 64, 11
1, 341972, Note_on_c, 0, 57, 19
1, 341979, Note_off_c, 0, 35, 31
1, 342101, Control_c, 0, 64, 29
1, 342101, Control_c, 1, 64, 29
1, 342120, Control_c, 1, 64, 51
1, 342120, Control_c, 0, 64, 51
1, 342140, Control_c, 0, 64, 75
1, 342140, Control_c, 1, 64, 75
1, 342158, Control_c, 1, 64, 100
1, 342158, Control_c, 0, 64, 100
1, 342176, Control_c, 0, 64, 127
1, 342176, Control_c, 1, 64, 127
1, 342192, Note_off_c, 0, 57, 38
1, 342201, Note_off_c, 0, 69, 35
1, 342410, Note_on_c, 0, 57, 25
1, 342415, Note_on_c, 0, 69, 36
1, 342600, Note_off_c, 0, 69, 28
1, 342608, Note_off_c, 0, 57, 35
1, 343181, Note_on_c, 0, 69, 30
1, 343247, Note_on_c, 0, 57, 16
1, 343502, Note_off_c, 0, 69, 37
1, 343506, Poly_aftertouch_c, 0, 57, 22
1, 343526, Note_off_c, 0, 57, 36
1, 343526, Poly_aftertouch_c, 0, 57, 0
1, 343547, Note_off_c, 0, 45, 35
1, 343550, Note_off_c, 0, 33, 40
1, 343842, Control_c, 0, 64, 116
1, 343842, Control_c, 1, 64, 116
1, 343861, Control_c, 1, 64, 111
1, 343861, Control_c, 0, 64, 111
1, 343899, Control_c, 0, 64, 107
1, 343899, Control_c, 1, 64, 107
1, 343916, Control_c, 1, 64, 103
1, 343916, Control_c, 0, 64, 103
1, 343936, Control_c, 0, 64, 97
1, 343936, Control_c, 1, 64, 97
1, 343955, Control_c, 1, 64, 89
1, 343955, Control_c, 0, 64, 89
1, 343973, Control_c, 0, 64, 82
1, 343973, Control_c, 1, 64, 82
1, 343992, Control_c, 1, 64, 76
1, 343992, Control_c, 0, 64, 76
1, 344010, Control_c, 0, 64, 72
1, 344010, Control_c, 1, 64, 72
1, 344030, Control_c, 1, 64, 69
1, 344030, Control_c, 0, 64, 69
1, 344047, Control_c, 0, 64, 67
1, 344047, Control_c, 1, 64, 67
1, 344067, Control_c, 1, 64, 66
1, 344067, Control_c, 0, 64, 66
1, 344085, Control_c, 0, 64, 64
1, 344085, Control_c, 1, 64, 64
1, 344142, Control_c, 1, 64, 63
1, 344142, Control_c, 0, 64, 63
1, 344198, Control_c, 0, 64, 62
1, 344198, Control_c, 1, 64, 62
1, 344272, Control_c, 1, 64, 61
1, 344272, Control_c, 0, 64, 61
1, 344310, Control_c, 0, 64, 60
1, 344310, Control_c, 1, 64, 60
1, 344367, Control_c, 1, 64, 58
1, 344367, Control_c, 0, 64, 58
1, 344423, Control_c, 0, 64, 56
1, 344423, Control_c, 1, 64, 56
1, 344460, Control_c, 1, 64, 54
1, 344460, Control_c, 0, 64, 54
1, 344534, Control_c, 0, 64, 52
1, 344534, Control_c, 1, 64, 52
1, 344647, Control_c, 1, 64, 50
1, 344647, Control_c, 0, 64, 50
1, 344759, Control_c, 0, 64, 48
1, 344759, Control_c, 1, 64, 48
1, 344797, Control_c, 1, 64, 45
1, 344797, Control_c, 0, 64, 45
1, 344835, Control_c, 0, 64, 43
1, 344835, Control_c, 1, 64, 43
1, 344872, Control_c, 1, 64, 41
1, 344872, Control_c, 0, 64, 41
1, 344984, Control_c, 0, 64, 37
1, 344984, Control_c, 1, 64, 37
1, 345058, Control_c, 1, 64, 32
1, 345058, Control_c, 0, 64, 32
1, 345152, Control_c, 0, 64, 28
1, 345152, Control_c, 1, 64, 28
1, 345360, Control_c, 1, 64, 24
1, 345360, Control_c, 0, 64, 24
1, 345880, Note_on_c, 0, 33, 31
1, 345999, Note_off_c, 0, 33, 49
1, 346033, Control_c, 0, 64, 20
1, 346033, Control_c, 1, 64, 20
1, 346164, Note_on_c, 0, 64, 52
1, 346207, Note_on_c, 0, 60, 19
1, 346350, Control_c, 0, 64, 16
1, 346350, Control_c, 1, 64, 16
1, 346407, Control_c, 1, 64, 10
1, 346407, Control_c, 0, 64, 10
1, 346481, Control_c, 0, 64, 0
1, 346481, Control_c, 1, 64, 0
1, 346519, Note_on_c, 0, 40, 33
1, 346641, Note_off_c, 0, 40, 53
1, 346694, Note_on_c, 0, 62, 65
1, 346718, Note_on_c, 0, 59, 44
1, 346828, Note_off_c, 0, 60, 39
1, 346828, Poly_aftertouch_c, 0, 60, 0
1, 346890, Note_off_c, 0, 64, 52
1, 346945, Note_on_c, 0, 45, 50
1, 347089, Note_off_c, 0, 45, 61
1, 347143, Note_on_c, 0, 60, 71
1, 347145, Note_on_c, 0, 57, 45
1, 347226, Note_off_c, 0, 59, 58
1, 347258, Note_off_c, 0, 62, 56
1, 347355, Note_on_c, 0, 52, 53
1, 347521, Note_off_c, 0, 52, 42
1, 347562, Note_on_c, 0, 62, 70
1, 347571, Note_off_c, 0, 57, 59
1, 347571, Poly_aftertouch_c, 0, 57, 0
1, 347586, Note_on_c, 0, 59, 42
1, 347655, Note_off_c, 0, 60, 55
1, 347655, Poly_aftertouch_c, 0, 60, 0
1, 347803, Note_on_c, 0, 45, 43
1, 347840, Note_on_c, 0, 57, 18
1, 347908, Note_off_c, 0, 57, 44
1, 347908, Poly_aftertouch_c, 0, 57, 0
1, 347990, Note_off_c, 0, 45, 53
1, 348037, Note_on_c, 0, 64, 57
1, 348068, Note_on_c, 0, 60, 42
1, 348082, Note_off_c, 0, 59, 52
1, 348083, Note_off_c, 0, 62, 58
1, 348596, Control_c, 0, 64, 10
1, 348596, Control_c, 1, 64, 10
1, 348616, Control_c, 1, 64, 16
1, 348616, Control_c, 0, 64, 16
1, 348634, Control_c, 0, 64, 26
1, 348634, Control_c, 1, 64, 26
1, 348651, Note_on_c, 0, 76, 56
1, 348652, Control_c, 0, 64, 40
1, 348652, Control_c, 1, 64, 40
1, 348671, Control_c, 1, 64, 57
1, 348671, Control_c, 0, 64, 57
1, 348690, Control_c, 0, 64, 68
1, 348690, Control_c, 1, 64, 68
1, 348709, Control_c, 1, 64, 74
1, 348709, Control_c, 0, 64, 74
1, 348727, Control_c, 0, 64, 80
1, 348727, Control_c, 1, 64, 80
1, 348746, Control_c, 1, 64, 92
1, 348746, Control_c, 0, 64, 92
1, 348766, Control_c, 0, 64, 118
1, 348766, Control_c, 1, 64, 118
1, 348784, Control_c, 1, 64, 127
1, 348784, Control_c, 0, 64, 127
1, 348855, Note_off_c, 0, 76, 34
1, 348907, Note_off_c, 0, 60, 50
1, 348907, Poly_aftertouch_c, 0, 60, 0
1, 348908, Poly_aftertouch_c, 0, 60, 0
1, 348924, Note_off_c, 0, 64, 62
1, 349195, Control_c, 0, 64, 111
1, 349195, Control_c, 1, 64, 111
1, 349210, Note_on_c, 0, 81, 57
1, 349213, Control_c, 0, 64, 72
1, 349213, Control_c, 1, 64, 72
1, 349233, Control_c, 1, 64, 43
1, 349233, Control_c, 0, 64, 43
1, 349253, Control_c, 0, 64, 23
1, 349253, Control_c, 1, 64, 23
1, 349308, Control_c, 1, 64, 41
1, 349308, Control_c, 0, 64, 41
1, 349326, Control_c, 0, 64, 65
1, 349326, Control_c, 1, 64, 65
1, 349345, Control_c, 1, 64, 92
1, 349345, Control_c, 0, 64, 92
1, 349363, Control_c, 0, 64, 127
1, 349363, Control_c, 1, 64, 127
1, 349515, Control_c, 1, 64, 91
1, 349515, Control_c, 0, 64, 91
1, 349532, Control_c, 0, 64, 64
1, 349532, Control_c, 1, 64, 64
1, 349547, Note_on_c, 0, 66, 55
1, 349551, Control_c, 0, 64, 46
1, 349551, Control_c, 1, 64, 46
1, 349571, Control_c, 1, 64, 41
1, 349571, Control_c, 0, 64, 41
1, 349575, Note_on_c, 0, 60, 32
1, 349585, Note_on_c, 0, 63, 33
1, 349590, Control_c, 0, 64, 44
1, 349590, Control_c, 1, 64, 44
1, 349607, Control_c, 1, 64, 54
1, 349607, Control_c, 0, 64, 54
1, 349626, Control_c, 0, 64, 66
1, 349626, Control_c, 1, 64, 66
1, 349645, Control_c, 1, 64, 77
1, 349645, Control_c, 0, 64, 77
1, 349663, Control_c, 0, 64, 89
1, 349663, Control_c, 1, 64, 89
1, 349681, Control_c, 1, 64, 103
1, 349681, Control_c, 0, 64, 103
1, 349701, Control_c, 0, 64, 121
1, 349701, Control_c, 1, 64, 121
1, 349721, Control_c, 1, 64, 127
1, 349721, Control_c, 0, 64, 127
1, 349733, Note_off_c, 0, 81, 36
1, 349926, Control_c, 0, 64, 111
1, 349926, Control_c, 1, 64, 111
1, 349945, Control_c, 1, 64, 79
1, 349945, Control_c, 0, 64, 79
1, 349963, Control_c, 0, 64, 58
1, 349963, Control_c, 1, 64, 58
1, 349982, Control_c, 1, 64, 45
1, 349982, Note_on_c, 0, 69, 46
1, 349982, Control_c, 0, 64, 45
1, 350039, Control_c, 0, 64, 55
1, 350039, Control_c, 1, 64, 55
1, 350056, Control_c, 1, 64, 67
1, 350056, Control_c, 0, 64, 67
1, 350075, Control_c, 0, 64, 80
1, 350075, Control_c, 1, 64, 80
1, 350094, Control_c, 1, 64, 105
1, 350094, Control_c, 0, 64, 105
1, 350113, Control_c, 0, 64, 127
1, 350113, Control_c, 1, 64, 127
1, 350145, Note_off_c, 0, 69, 60
1, 350274, Note_off_c, 0, 66, 59
1, 350274, Poly_aftertouch_c, 0, 66, 0
1, 350285, Note_off_c, 0, 63, 42
1, 350305, Note_off_c, 0, 60, 44
1, 350719, Note_on_c, 0, 28, 39
1, 350767, Control_c, 0, 64, 111
1, 350767, Control_c, 1, 64, 111
1, 350787, Control_c, 1, 64, 95
1, 350787, Control_c, 0, 64, 95
1, 350806, Control_c, 0, 64, 82
1, 350806, Control_c, 1, 64, 82
1, 350824, Control_c, 1, 64, 74
1, 350824, Control_c, 0, 64, 74
1, 350843, Control_c, 0, 64, 72
1, 350843, Control_c, 1, 64, 72
1, 350955, Control_c, 1, 64, 69
1, 350955, Control_c, 0, 64, 69
1, 350997, Note_on_c, 0, 59, 56
1, 351010, Control_c, 0, 64, 67
1, 351010, Control_c, 1, 64, 67
1, 351025, Note_off_c, 0, 28, 50
1, 351029, Note_on_c, 0, 56, 50
1, 351029, Control_c, 0, 64, 66
1, 351029, Control_c, 1, 64, 66
1, 351049, Control_c, 1, 64, 64
1, 351049, Control_c, 0, 64, 64
1, 351067, Control_c, 0, 64, 63
1, 351067, Control_c, 1, 64, 63
1, 351086, Control_c, 1, 64, 62
1, 351086, Control_c, 0, 64, 62
1, 351106, Control_c, 0, 64, 61
1, 351106, Control_c, 1, 64, 61
1, 351141, Control_c, 1, 64, 60
1, 351141, Control_c, 0, 64, 60
1, 351198, Control_c, 0, 64, 58
1, 351198, Control_c, 1, 64, 58
1, 351255, Control_c, 1, 64, 56
1, 351255, Control_c, 0, 64, 56
1, 351292, Note_on_c, 0, 35, 40
1, 351330, Control_c, 0, 64, 54
1, 351330, Control_c, 1, 64, 54
1, 351423, Control_c, 1, 64, 52
1, 351423, Control_c, 0, 64, 52
1, 351465, Note_off_c, 0, 35, 35
1, 351497, Note_on_c, 0, 57, 65
1, 351513, Note_on_c, 0, 54, 43
1, 351517, Control_c, 0, 64, 50
1, 351517, Control_c, 1, 64, 50
1, 351611, Note_off_c, 0, 56, 55
1, 351637, Note_off_c, 0, 59, 53
1, 351706, Control_c, 0, 64, 48
1, 351706, Control_c, 1, 64, 48
1, 351731, Note_on_c, 0, 40, 47
1, 351816, Control_c, 0, 64, 46
1, 351816, Control_c, 1, 64, 46
1, 351847, Note_off_c, 0, 40, 61
1, 351871, Control_c, 0, 64, 44
1, 351871, Control_c, 1, 64, 44
1, 351928, Note_on_c, 0, 56, 75
1, 351940, Note_on_c, 0, 52, 46
1, 352021, Note_off_c, 0, 57, 55
1, 352021, Poly_aftertouch_c, 0, 57, 0
1, 352042, Note_off_c, 0, 54, 59
1, 352060, Control_c, 0, 64, 42
1, 352060, Control_c, 1, 64, 42
1, 352119, Note_on_c, 0, 47, 53
1, 352153, Control_c, 0, 64, 40
1, 352153, Control_c, 1, 64, 40
1, 352247, Control_c, 1, 64, 35
1, 352247, Control_c, 0, 64, 35
1, 352264, Note_off_c, 0, 47, 37
1, 352341, Control_c, 0, 64, 31
1, 352341, Control_c, 1, 64, 31
1, 352351, Note_on_c, 0, 57, 67
1, 352363, Note_off_c, 0, 52, 54
1, 352368, Note_on_c, 0, 54, 48
1, 352430, Note_off_c, 0, 56, 58
1, 352528, Control_c, 0, 64, 27
1, 352528, Control_c, 1, 64, 27
1, 352596, Note_on_c, 0, 40, 46
1, 352640, Control_c, 0, 64, 23
1, 352640, Control_c, 1, 64, 23
1, 352703, Note_off_c, 0, 40, 61
1, 352770, Control_c, 0, 64, 19
1, 352770, Control_c, 1, 64, 19
1, 352819, Note_on_c, 0, 59, 51
1, 352821, Note_off_c, 0, 57, 56
1, 352821, Poly_aftertouch_c, 0, 57, 0
1, 352845, Note_on_c, 0, 56, 38
1, 352888, Note_off_c, 0, 54, 38
1, 352921, Control_c, 0, 64, 14
1, 352921, Control_c, 1, 64, 14
1, 353386, Note_on_c, 0, 71, 58
1, 353426, Control_c, 0, 64, 23
1, 353426, Control_c, 1, 64, 23
1, 353444, Control_c, 1, 64, 30
1, 353444, Control_c, 0, 64, 30
1, 353464, Control_c, 0, 64, 41
1, 353464, Control_c, 1, 64, 41
1, 353481, Control_c, 1, 64, 57
1, 353481, Control_c, 0, 64, 57
1, 353500, Control_c, 0, 64, 68
1, 353500, Control_c, 1, 64, 68
1, 353521, Control_c, 1, 64, 73
1, 353521, Control_c, 0, 64, 73
1, 353538, Control_c, 0, 64, 77
1, 353538, Control_c, 1, 64, 77
1, 353550, Note_off_c, 0, 71, 55
1, 353556, Control_c, 0, 64, 83
1, 353556, Control_c, 1, 64, 83
1, 353576, Control_c, 1, 64, 94
1, 353576, Control_c, 0, 64, 94
1, 353595, Control_c, 0, 64, 116
1, 353595, Control_c, 1, 64, 116
1, 353613, Control_c, 1, 64, 127
1, 353613, Control_c, 0, 64, 127
1, 353644, Note_off_c, 0, 59, 59
1, 353674, Note_off_c, 0, 56, 61
1, 353891, Note_on_c, 0, 75, 56
1, 354138, Control_c, 0, 64, 97
1, 354138, Control_c, 1, 64, 97
1, 354156, Control_c, 1, 64, 76
1, 354156, Control_c, 0, 64, 76
1, 354174, Control_c, 0, 64, 61
1, 354174, Control_c, 1, 64, 61
1, 354194, Control_c, 1, 64, 49
1, 354194, Control_c, 0, 64, 49
1, 354211, Control_c, 0, 64, 39
1, 354211, Control_c, 1, 64, 39
1, 354231, Control_c, 1, 64, 29
1, 354231, Control_c, 0, 64, 29
1, 354249, Control_c, 0, 64, 19
1, 354249, Control_c, 1, 64, 19
1, 354251, Note_on_c, 0, 64, 46
1, 354268, Note_on_c, 0, 59, 19
1, 354268, Control_c, 0, 64, 12
1, 354268, Control_c, 1, 64, 12
1, 354271, Note_on_c, 0, 56, 33
1, 354322, Note_off_c, 0, 75, 57
1, 354475, Control_c, 0, 64, 18
1, 354475, Control_c, 1, 64, 18
1, 354492, Control_c, 1, 64, 25
1, 354492, Control_c, 0, 64, 25
1, 354512, Control_c, 0, 64, 35
1, 354512, Control_c, 1, 64, 35
1, 354531, Control_c, 1, 64, 50
1, 354531, Control_c, 0, 64, 50
1, 354548, Control_c, 0, 64, 64
1, 354548, Control_c, 1, 64, 64
1, 354568, Control_c, 1, 64, 71
1, 354568, Control_c, 0, 64, 71
1, 354586, Control_c, 0, 64, 74
1, 354586, Control_c, 1, 64, 74
1, 354606, Control_c, 1, 64, 76
1, 354606, Control_c, 0, 64, 76
1, 354622, Control_c, 0, 64, 81
1, 354622, Control_c, 1, 64, 81
1, 354625, Note_on_c, 0, 76, 39
1, 354643, Control_c, 0, 64, 91
1, 354643, Control_c, 1, 64, 91
1, 354662, Control_c, 1, 64, 109
1, 354662, Control_c, 0, 64, 109
1, 354679, Control_c, 0, 64, 127
1, 354679, Control_c, 1, 64, 127
1, 354714, Note_off_c, 0, 76, 60
1, 354933, Note_off_c, 0, 56, 49
1, 354938, Note_off_c, 0, 59, 44
1, 354959, Note_off_c, 0, 64, 57
1, 355342, Note_on_c, 0, 33, 36
1, 355392, Control_c, 0, 64, 114
1, 355392, Control_c, 1, 64, 114
1, 355411, Control_c, 1, 64, 108
1, 355411, Control_c, 0, 64, 108
1, 355448, Control_c, 0, 64, 102
1, 355448, Control_c, 1, 64, 102
1, 355485, Control_c, 1, 64, 92
1, 355485, Control_c, 0, 64, 92
1, 355503, Control_c, 0, 64, 84
1, 355503, Control_c, 1, 64, 84
1, 355523, Control_c, 1, 64, 76
1, 355523, Control_c, 0, 64, 76
1, 355542, Control_c, 0, 64, 70
1, 355542, Control_c, 1, 64, 70
1, 355559, Control_c, 1, 64, 66
1, 355559, Control_c, 0, 64, 66
1, 355580, Control_c, 0, 64, 63
1, 355580, Control_c, 1, 64, 63
1, 355587, Note_on_c, 0, 64, 53
1, 355599, Control_c, 0, 64, 62
1, 355599, Control_c, 1, 64, 62
1, 355604, Note_on_c, 0, 60, 33
1, 355616, Control_c, 0, 64, 61
1, 355616, Control_c, 1, 64, 61
1, 355626, Note_off_c, 0, 33, 51
1, 355633, Control_c, 0, 64, 60
1, 355633, Control_c, 1, 64, 60
1, 355672, Control_c, 1, 64, 57
1, 355672, Control_c, 0, 64, 57
1, 355710, Control_c, 0, 64, 55
1, 355710, Control_c, 1, 64, 55
1, 355765, Control_c, 1, 64, 53
1, 355765, Control_c, 0, 64, 53
1, 355890, Note_on_c, 0, 40, 35
1, 356006, Note_off_c, 0, 40, 47
1, 356028, Control_c, 0, 64, 51
1, 356028, Control_c, 1, 64, 51
1, 356090, Note_on_c, 0, 59, 49
1, 356101, Note_on_c, 0, 62, 59
1, 356121, Control_c, 0, 64, 49
1, 356121, Control_c, 1, 64, 49
1, 356158, Note_off_c, 0, 60, 42
1, 356198, Note_off_c, 0, 64, 47
1, 356215, Control_c, 0, 64, 47
1, 356215, Control_c, 1, 64, 47
1, 356272, Control_c, 1, 64, 45
1, 356272, Control_c, 0, 64, 45
1, 356304, Note_on_c, 0, 45, 47
1, 356308, Control_c, 0, 64, 42
1, 356308, Control_c, 1, 64, 42
1, 356346, Control_c, 1, 64, 40
1, 356346, Control_c, 0, 64, 40
1, 356462, Note_off_c, 0, 45, 59
1, 356529, Note_on_c, 0, 57, 51
1, 356540, Note_on_c, 0, 60, 62
1, 356607, Note_off_c, 0, 59, 52
1, 356623, Note_off_c, 0, 62, 50
1, 356758, Note_on_c, 0, 52, 54
1, 356887, Note_off_c, 0, 52, 52
1, 356948, Note_on_c, 0, 62, 65
1, 356953, Note_on_c, 0, 59, 61
1, 357017, Note_off_c, 0, 60, 45
1, 357033, Note_off_c, 0, 57, 48
1, 357033, Poly_aftertouch_c, 0, 57, 0
1, 357180, Note_on_c, 0, 45, 51
1, 357323, Note_off_c, 0, 45, 57
1, 357339, Control_c, 0, 64, 36
1, 357339, Control_c, 1, 64, 36
1, 357432, Note_on_c, 0, 64, 54
1, 357433, Note_off_c, 0, 59, 58
1, 357433, Note_on_c, 0, 60, 44
1, 357454, Note_off_c, 0, 62, 53
1, 357562, Control_c, 0, 64, 32
1, 357562, Control_c, 1, 64, 32
1, 357975, Control_c, 1, 64, 37
1, 357975, Control_c, 0, 64, 37
1, 357995, Note_on_c, 0, 76, 58
1, 357995, Control_c, 0, 64, 44
1, 357995, Control_c, 1, 64, 44
1, 358013, Control_c, 1, 64, 55
1, 358013, Control_c, 0, 64, 55
1, 358030, Control_c, 0, 64, 65
1, 358030, Control_c, 1, 64, 65
1, 358049, Control_c, 1, 64, 70
1, 358049, Control_c, 0, 64, 70
1, 358070, Control_c, 0, 64, 74
1, 358070, Control_c, 1, 64, 74
1, 358087, Control_c, 1, 64, 78
1, 358087, Control_c, 0, 64, 78
1, 358106, Control_c, 0, 64, 84
1, 358106, Control_c, 1, 64, 84
1, 358124, Control_c, 1, 64, 90
1, 358124, Control_c, 0, 64, 90
1, 358143, Control_c, 0, 64, 97
1, 358143, Control_c, 1, 64, 97
1, 358161, Control_c, 1, 64, 103
1, 358161, Control_c, 0, 64, 103
1, 358169, Note_off_c, 0, 76, 31
1, 358199, Control_c, 0, 64, 108
1, 358199, Control_c, 1, 64, 108
1, 358243, Note_off_c, 0, 60, 55
1, 358254, Note_off_c, 0, 64, 59
1, 358311, Control_c, 0, 64, 113
1, 358311, Control_c, 1, 64, 113
1, 358349, Control_c, 1, 64, 118
1, 358349, Control_c, 0, 64, 118
1, 358405, Control_c, 0, 64, 122
1, 358405, Control_c, 1, 64, 122
1, 358442, Control_c, 1, 64, 127
1, 358442, Control_c, 0, 64, 127
1, 358540, Note_on_c, 0, 81, 49
1, 358573, Control_c, 0, 64, 114
1, 358573, Control_c, 1, 64, 114
1, 358592, Control_c, 1, 64, 102
1, 358592, Control_c, 0, 64, 102
1, 358611, Control_c, 0, 64, 89
1, 358611, Control_c, 1, 64, 89
1, 358630, Control_c, 1, 64, 77
1, 358630, Control_c, 0, 64, 77
1, 358648, Control_c, 0, 64, 68
1, 358648, Control_c, 1, 64, 68
1, 358666, Control_c, 1, 64, 62
1, 358666, Control_c, 0, 64, 62
1, 358686, Control_c, 0, 64, 57
1, 358686, Control_c, 1, 64, 57
1, 358705, Control_c, 1, 64, 49
1, 358705, Control_c, 0, 64, 49
1, 358723, Control_c, 0, 64, 38
1, 358723, Control_c, 1, 64, 38
1, 358742, Control_c, 1, 64, 27
1, 358742, Control_c, 0, 64, 27
1, 358760, Control_c, 0, 64, 20
1, 358760, Control_c, 1, 64, 20
1, 358798, Control_c, 1, 64, 15
1, 358798, Control_c, 0, 64, 15
1, 358839, Note_on_c, 0, 66, 45
1, 358883, Note_on_c, 0, 60, 36
1, 358889, Note_on_c, 0, 63, 30
1, 358930, Control_c, 0, 64, 19
1, 358930, Control_c, 1, 64, 19
1, 358948, Control_c, 1, 64, 28
1, 358948, Control_c, 0, 64, 28
1, 358965, Control_c, 0, 64, 40
1, 358965, Control_c, 1, 64, 40
1, 358983, Note_off_c, 0, 81, 50
1, 358984, Control_c, 0, 64, 57
1, 358984, Control_c, 1, 64, 57
1, 359005, Control_c, 1, 64, 70
1, 359005, Control_c, 0, 64, 70
1, 359023, Control_c, 0, 64, 77
1, 359023, Control_c, 1, 64, 77
1, 359041, Control_c, 1, 64, 81
1, 359041, Control_c, 0, 64, 81
1, 359062, Control_c, 0, 64, 85
1, 359062, Control_c, 1, 64, 85
1, 359079, Control_c, 1, 64, 90
1, 359079, Control_c, 0, 64, 90
1, 359097, Control_c, 0, 64, 97
1, 359097, Control_c, 1, 64, 97
1, 359116, Control_c, 1, 64, 106
1, 359116, Control_c, 0, 64, 106
1, 359135, Control_c, 0, 64, 114
1, 359135, Control_c, 1, 64, 114
1, 359191, Control_c, 1, 64, 119
1, 359191, Control_c, 0, 64, 119
1, 359209, Control_c, 0, 64, 127
1, 359209, Control_c, 1, 64, 127
1, 359243, Note_on_c, 0, 69, 39
1, 359318, Note_off_c, 0, 69, 56
1, 359432, Note_off_c, 0, 66, 60
1, 359432, Poly_aftertouch_c, 0, 66, 0
1, 359435, Note_off_c, 0, 63, 42
1, 359447, Note_off_c, 0, 60, 48
1, 359900, Note_on_c, 0, 28, 36
1, 359921, Control_c, 0, 64, 117
1, 359921, Control_c, 1, 64, 117
1, 359959, Control_c, 1, 64, 110
1, 359959, Control_c, 0, 64, 110
1, 359977, Control_c, 0, 64, 106
1, 359977, Control_c, 1, 64, 106
1, 359997, Control_c, 1, 64, 102
1, 359997, Control_c, 0, 64, 102
1, 360015, Control_c, 0, 64, 97
1, 360015, Control_c, 1, 64, 97
1, 360054, Control_c, 1, 64, 93
1, 360054, Control_c, 0, 64, 93
1, 360108, Control_c, 0, 64, 87
1, 360108, Control_c, 1, 64, 87
1, 360127, Control_c, 1, 64, 84
1, 360127, Control_c, 0, 64, 84
1, 360138, Note_on_c, 0, 56, 37
1, 360147, Note_on_c, 0, 59, 41
1, 360147, Control_c, 0, 64, 79
1, 360147, Control_c, 1, 64, 79
1, 360164, Control_c, 1, 64, 75
1, 360164, Control_c, 0, 64, 75
1, 360182, Note_off_c, 0, 28, 40
1, 360183, Control_c, 0, 64, 70
1, 360183, Control_c, 1, 64, 70
1, 360202, Control_c, 1, 64, 67
1, 360202, Control_c, 0, 64, 67
1, 360222, Control_c, 0, 64, 65
1, 360222, Control_c, 1, 64, 65
1, 360239, Control_c, 1, 64, 64
1, 360239, Control_c, 0, 64, 64
1, 360277, Control_c, 0, 64, 63
1, 360277, Control_c, 1, 64, 63
1, 360295, Control_c, 1, 64, 62
1, 360295, Control_c, 0, 64, 62
1, 360334, Control_c, 0, 64, 61
1, 360334, Control_c, 1, 64, 61
1, 360370, Control_c, 1, 64, 60
1, 360370, Control_c, 0, 64, 60
1, 360454, Note_on_c, 0, 35, 33
1, 360501, Control_c, 0, 64, 58
1, 360501, Control_c, 1, 64, 58
1, 360560, Note_off_c, 0, 35, 47
1, 360577, Control_c, 0, 64, 56
1, 360577, Control_c, 1, 64, 56
1, 360639, Note_on_c, 0, 57, 53
1, 360651, Control_c, 0, 64, 54
1, 360651, Control_c, 1, 64, 54
1, 360659, Note_on_c, 0, 54, 37
1, 360718, Note_off_c, 0, 56, 38
1, 360736, Note_off_c, 0, 59, 37
1, 360744, Control_c, 0, 64, 52
1, 360744, Control_c, 1, 64, 52
1, 360885, Note_on_c, 0, 40, 44
1, 360952, Control_c, 0, 64, 50
1, 360952, Control_c, 1, 64, 50
1, 361011, Note_off_c, 0, 40, 61
1, 361066, Note_on_c, 0, 56, 54
1, 361081, Control_c, 0, 64, 47
1, 361081, Control_c, 1, 64, 47
1, 361092, Note_on_c, 0, 52, 37
1, 361138, Control_c, 0, 64, 45
1, 361138, Control_c, 1, 64, 45
1, 361173, Note_off_c, 0, 57, 37
1, 361173, Poly_aftertouch_c, 0, 57, 0
1, 361180, Note_off_c, 0, 54, 36
1, 361287, Control_c, 0, 64, 43
1, 361287, Control_c, 1, 64, 43
1, 361288, Note_on_c, 0, 47, 43
1, 361407, Note_off_c, 0, 47, 56
1, 361497, Note_on_c, 0, 57, 55
1, 361508, Note_on_c, 0, 54, 47
1, 361535, Note_off_c, 0, 56, 56
1, 361542, Note_off_c, 0, 52, 38
1, 361661, Control_c, 0, 64, 41
1, 361661, Control_c, 1, 64, 41
1, 361729, Note_on_c, 0, 40, 46
1, 361750, Note_on_c, 0, 52, 9
1, 361755, Control_c, 0, 64, 37
1, 361755, Control_c, 1, 64, 37
1, 361831, Note_off_c, 0, 52, 34
1, 361843, Note_off_c, 0, 40, 60
1, 361887, Control_c, 0, 64, 33
1, 361887, Control_c, 1, 64, 33
1, 361957, Note_on_c, 0, 56, 45
1, 361961, Note_off_c, 0, 57, 56
1, 361961, Poly_aftertouch_c, 0, 57, 0
1, 361969, Note_on_c, 0, 59, 45
1, 361981, Note_off_c, 0, 54, 49
1, 361999, Control_c, 0, 64, 29
1, 361999, Control_c, 1, 64, 29
1, 362129, Control_c, 1, 64, 25
1, 362129, Control_c, 0, 64, 25
1, 362523, Note_on_c, 0, 71, 47
1, 362561, Control_c, 0, 64, 33
1, 362561, Control_c, 1, 64, 33
1, 362580, Control_c, 1, 64, 39
1, 362580, Control_c, 0, 64, 39
1, 362598, Control_c, 0, 64, 49
1, 362598, Control_c, 1, 64, 49
1, 362617, Control_c, 1, 64, 62
1, 362617, Control_c, 0, 64, 62
1, 362636, Control_c, 0, 64, 68
1, 362636, Control_c, 1, 64, 68
1, 362654, Control_c, 1, 64, 71
1, 362654, Control_c, 0, 64, 71
1, 362673, Control_c, 0, 64, 73
1, 362673, Control_c, 1, 64, 73
1, 362692, Control_c, 1, 64, 76
1, 362692, Control_c, 0, 64, 76
1, 362710, Control_c, 0, 64, 79
1, 362710, Control_c, 1, 64, 79
1, 362713, Note_off_c, 0, 71, 54
1, 362729, Control_c, 0, 64, 84
1, 362729, Control_c, 1, 64, 84
1, 362747, Control_c, 1, 64, 88
1, 362747, Control_c, 0, 64, 88
1, 362774, Note_off_c, 0, 59, 57
1, 362784, Control_c, 0, 64, 93
1, 362784, Control_c, 1, 64, 93
1, 362820, Note_off_c, 0, 56, 61
1, 363043, Note_on_c, 0, 75, 47
1, 363253, Control_c, 0, 64, 98
1, 363253, Control_c, 1, 64, 98
1, 363328, Control_c, 1, 64, 92
1, 363328, Control_c, 0, 64, 92
1, 363347, Control_c, 0, 64, 80
1, 363347, Control_c, 1, 64, 80
1, 363366, Control_c, 1, 64, 66
1, 363366, Control_c, 0, 64, 66
1, 363384, Control_c, 0, 64, 52
1, 363384, Control_c, 1, 64, 52
1, 363400, Note_on_c, 0, 64, 38
1, 363403, Control_c, 0, 64, 39
1, 363403, Control_c, 1, 64, 39
1, 363420, Note_on_c, 0, 59, 23
1, 363422, Control_c, 0, 64, 30
1, 363422, Control_c, 1, 64, 30
1, 363424, Note_on_c, 0, 56, 29
1, 363440, Control_c, 0, 64, 22
1, 363440, Control_c, 1, 64, 22
1, 363459, Control_c, 1, 64, 18
1, 363459, Control_c, 0, 64, 18
1, 363555, Note_off_c, 0, 75, 56
1, 363590, Control_c, 0, 64, 26
1, 363590, Control_c, 1, 64, 26
1, 363610, Control_c, 1, 64, 32
1, 363610, Control_c, 0, 64, 32
1, 363628, Control_c, 0, 64, 45
1, 363628, Control_c, 1, 64, 45
1, 363646, Control_c, 1, 64, 64
1, 363646, Control_c, 0, 64, 64
1, 363666, Control_c, 0, 64, 79
1, 363666, Control_c, 1, 64, 79
1, 363684, Control_c, 1, 64, 90
1, 363684, Control_c, 0, 64, 90
1, 363702, Control_c, 0, 64, 97
1, 363702, Control_c, 1, 64, 97
1, 363740, Control_c, 1, 64, 107
1, 363740, Control_c, 0, 64, 107
1, 363759, Control_c, 0, 64, 127
1, 363759, Control_c, 1, 64, 127
1, 363793, Note_on_c, 0, 76, 41
1, 363908, Note_off_c, 0, 76, 60
1, 363965, Control_c, 0, 67, 121
1, 363965, Control_c, 1, 67, 121
1, 363983, Control_c, 1, 67, 117
1, 363983, Control_c, 0, 67, 117
1, 364001, Control_c, 0, 67, 112
1, 364001, Control_c, 1, 67, 112
1, 364021, Control_c, 1, 67, 106
1, 364021, Control_c, 0, 67, 106
1, 364039, Control_c, 0, 67, 99
1, 364039, Control_c, 1, 67, 99
1, 364059, Control_c, 1, 67, 93
1, 364059, Control_c, 0, 67, 93
1, 364076, Control_c, 0, 67, 85
1, 364076, Control_c, 1, 67, 85
1, 364083, Note_off_c, 0, 59, 36
1, 364096, Control_c, 0, 67, 79
1, 364096, Control_c, 1, 67, 79
1, 364114, Control_c, 1, 67, 73
1, 364114, Control_c, 0, 67, 73
1, 364133, Control_c, 0, 67, 68
1, 364133, Control_c, 1, 67, 68
1, 364171, Control_c, 1, 67, 62
1, 364171, Control_c, 0, 67, 62
1, 364188, Note_off_c, 0, 56, 53
1, 364208, Control_c, 0, 67, 57
1, 364208, Control_c, 1, 67, 57
1, 364245, Control_c, 1, 67, 51
1, 364245, Control_c, 0, 67, 51
1, 364257, Note_off_c, 0, 64, 51
1, 364283, Control_c, 0, 67, 46
1, 364283, Control_c, 1, 67, 46
1, 364376, Control_c, 1, 64, 111
1, 364376, Control_c, 0, 64, 111
1, 364395, Control_c, 0, 64, 104
1, 364395, Control_c, 1, 64, 104
1, 364397, Control_c, 1, 67, 40
1, 364397, Control_c, 0, 67, 40
1, 364413, Control_c, 0, 64, 99
1, 364413, Control_c, 1, 64, 99
1, 364434, Control_c, 1, 67, 36
1, 364434, Control_c, 0, 67, 36
1, 364450, Control_c, 0, 64, 95
1, 364450, Control_c, 1, 64, 95
1, 364488, Control_c, 1, 67, 32
1, 364488, Control_c, 0, 67, 32
1, 364507, Control_c, 0, 64, 91
1, 364507, Control_c, 1, 64, 91
1, 364545, Control_c, 1, 64, 87
1, 364545, Control_c, 0, 64, 87
1, 364581, Note_on_c, 0, 33, 38
1, 364601, Control_c, 0, 64, 85
1, 364601, Control_c, 1, 64, 85
1, 364676, Control_c, 1, 64, 82
1, 364676, Control_c, 0, 64, 82
1, 364695, Control_c, 0, 64, 80
1, 364695, Control_c, 1, 64, 80
1, 364713, Control_c, 1, 64, 76
1, 364713, Control_c, 0, 64, 76
1, 364732, Control_c, 0, 64, 72
1, 364732, Control_c, 1, 64, 72
1, 364752, Control_c, 1, 64, 70
1, 364752, Control_c, 0, 64, 70
1, 364848, Note_on_c, 0, 64, 62
1, 364863, Control_c, 0, 64, 67
1, 364863, Control_c, 1, 64, 67
1, 364879, Note_on_c, 0, 61, 39
1, 364881, Control_c, 0, 64, 66
1, 364881, Control_c, 1, 64, 66
1, 364902, Control_c, 1, 64, 64
1, 364902, Control_c, 0, 64, 64
1, 364917, Note_off_c, 0, 33, 50
1, 364938, Control_c, 0, 64, 63
1, 364938, Control_c, 1, 64, 63
1, 364975, Control_c, 1, 64, 61
1, 364975, Control_c, 0, 64, 61
1, 364976, Control_c, 0, 67, 28
1, 364976, Control_c, 1, 67, 28
1, 365031, Control_c, 1, 64, 60
1, 365031, Control_c, 0, 64, 60
1, 365087, Control_c, 0, 67, 23
1, 365087, Control_c, 1, 67, 23
1, 365124, Control_c, 1, 64, 58
1, 365124, Control_c, 0, 64, 58
1, 365149, Note_on_c, 0, 40, 47
1, 365219, Control_c, 0, 67, 19
1, 365219, Control_c, 1, 67, 19
1, 365256, Control_c, 1, 67, 15
1, 365256, Control_c, 0, 67, 15
1, 365274, Control_c, 0, 64, 56
1, 365274, Control_c, 1, 64, 56
1, 365302, Note_on_c, 0, 62, 74
1, 365312, Control_c, 0, 67, 8
1, 365312, Control_c, 1, 67, 8
1, 365349, Note_on_c, 0, 59, 20
1, 365369, Control_c, 0, 67, 0
1, 365369, Control_c, 1, 67, 0
1, 365406, Control_c, 1, 64, 54
1, 365406, Control_c, 0, 64, 54
1, 365416, Note_off_c, 0, 40, 37
1, 365480, Control_c, 0, 64, 52
1, 365480, Control_c, 1, 64, 52
1, 365492, Note_off_c, 0, 61, 39
1, 365523, Poly_aftertouch_c, 0, 57, 0
1, 365537, Control_c, 0, 64, 50
1, 365537, Control_c, 1, 64, 50
1, 365551, Note_on_c, 0, 45, 50
1, 365626, Note_off_c, 0, 64, 30
1, 365628, Control_c, 0, 64, 48
1, 365628, Control_c, 1, 64, 48
1, 365687, Control_c, 1, 64, 46
1, 365687, Control_c, 0, 64, 46
1, 365721, Note_off_c, 0, 45, 60
1, 365742, Note_on_c, 0, 61, 77
1, 365757, Note_on_c, 0, 57, 49
1, 365818, Note_off_c, 0, 59, 43
1, 365849, Note_off_c, 0, 62, 61
1, 365983, Note_on_c, 0, 52, 33
1, 366153, Note_on_c, 0, 62, 73
1, 366208, Note_on_c, 0, 59, 38
1, 366215, Note_off_c, 0, 52, 46
1, 366225, Note_off_c, 0, 57, 49
1, 366272, Note_off_c, 0, 61, 53
1, 366387, Note_on_c, 0, 45, 51
1, 366402, Note_on_c, 0, 57, 41
1, 366579, Note_off_c, 0, 57, 36
1, 366601, Note_off_c, 0, 45, 61
1, 366628, Note_on_c, 0, 64, 68
1, 366642, Note_on_c, 0, 61, 45
1, 366650, Note_off_c, 0, 62, 53
1, 366663, Note_off_c, 0, 59, 52
1, 367147, Control_c, 0, 64, 50
1, 367147, Control_c, 1, 64, 50
1, 367156, Note_on_c, 0, 76, 64
1, 367166, Control_c, 0, 64, 53
1, 367166, Control_c, 1, 64, 53
1, 367184, Control_c, 1, 64, 56
1, 367184, Control_c, 0, 64, 56
1, 367203, Control_c, 0, 64, 58
1, 367203, Control_c, 1, 64, 58
1, 367221, Control_c, 1, 64, 61
1, 367221, Control_c, 0, 64, 61
1, 367241, Control_c, 0, 64, 65
1, 367241, Control_c, 1, 64, 65
1, 367258, Control_c, 1, 64, 70
1, 367258, Control_c, 0, 64, 70
1, 367278, Control_c, 0, 64, 76
1, 367278, Control_c, 1, 64, 76
1, 367298, Control_c, 1, 64, 84
1, 367298, Control_c, 0, 64, 84
1, 367315, Control_c, 0, 64, 92
1, 367315, Control_c, 1, 64, 92
1, 367334, Control_c, 1, 64, 101
1, 367334, Control_c, 0, 64, 101
1, 367352, Control_c, 0, 64, 108
1, 367352, Control_c, 1, 64, 108
1, 367372, Control_c, 1, 64, 114
1, 367372, Control_c, 0, 64, 114
1, 367380, Note_off_c, 0, 76, 35
1, 367389, Control_c, 0, 64, 122
1, 367389, Control_c, 1, 64, 122
1, 367408, Control_c, 1, 64, 127
1, 367408, Control_c, 0, 64, 127
1, 367463, Note_off_c, 0, 64, 59
1, 367472, Note_off_c, 0, 61, 50
1, 367623, Note_on_c, 0, 81, 61
1, 367839, Control_c, 0, 64, 100
1, 367839, Control_c, 1, 64, 100
1, 367857, Control_c, 1, 64, 82
1, 367857, Control_c, 0, 64, 82
1, 367877, Control_c, 0, 64, 67
1, 367877, Control_c, 1, 64, 67
1, 367895, Control_c, 1, 64, 53
1, 367895, Control_c, 0, 64, 53
1, 367910, Note_on_c, 0, 67, 76
1, 367913, Control_c, 0, 64, 41
1, 367913, Control_c, 1, 64, 41
1, 367933, Control_c, 1, 64, 28
1, 367933, Control_c, 0, 64, 28
1, 367946, Note_on_c, 0, 64, 38
1, 367952, Control_c, 0, 64, 18
1, 367952, Control_c, 1, 64, 18
1, 367959, Note_on_c, 0, 61, 41
1, 368063, Control_c, 0, 64, 22
1, 368063, Control_c, 1, 64, 22
1, 368083, Control_c, 1, 64, 31
1, 368083, Control_c, 0, 64, 31
1, 368101, Control_c, 0, 64, 44
1, 368101, Control_c, 1, 64, 44
1, 368120, Control_c, 1, 64, 63
1, 368120, Control_c, 0, 64, 63
1, 368138, Control_c, 0, 64, 76
1, 368138, Control_c, 1, 64, 76
1, 368158, Control_c, 1, 64, 84
1, 368158, Control_c, 0, 64, 84
1, 368177, Control_c, 0, 64, 86
1, 368177, Control_c, 1, 64, 86
1, 368213, Control_c, 1, 64, 97
1, 368213, Control_c, 0, 64, 97
1, 368232, Control_c, 0, 64, 127
1, 368232, Control_c, 1, 64, 127
1, 368383, Note_off_c, 0, 81, 35
1, 368459, Note_on_c, 0, 69, 51
1, 368571, Note_off_c, 0, 69, 45
1, 368851, Control_c, 0, 64, 116
1, 368851, Control_c, 1, 64, 116
1, 368869, Control_c, 1, 64, 108
1, 368869, Control_c, 0, 64, 108
1, 368888, Control_c, 0, 64, 104
1, 368888, Control_c, 1, 64, 104
1, 368906, Control_c, 1, 64, 97
1, 368906, Control_c, 0, 64, 97
1, 368924, Control_c, 0, 64, 88
1, 368924, Control_c, 1, 64, 88
1, 368943, Control_c, 1, 64, 79
1, 368943, Control_c, 0, 64, 79
1, 368963, Control_c, 0, 64, 73
1, 368963, Control_c, 1, 64, 73
1, 369037, Control_c, 1, 64, 71
1, 369037, Control_c, 0, 64, 71
1, 369093, Control_c, 0, 64, 69
1, 369093, Control_c, 1, 64, 69
1, 369150, Control_c, 1, 67, 8
1, 369150, Control_c, 0, 67, 8
1, 369168, Control_c, 0, 64, 67
1, 369168, Control_c, 1, 64, 67
1, 369187, Control_c, 1, 64, 66
1, 369187, Control_c, 0, 64, 66
1, 369189, Control_c, 0, 67, 12
1, 369189, Control_c, 1, 67, 12
1, 369206, Control_c, 1, 64, 64
1, 369206, Control_c, 0, 64, 64
1, 369207, Control_c, 0, 67, 17
1, 369207, Control_c, 1, 67, 17
1, 369224, Control_c, 1, 64, 62
1, 369224, Control_c, 0, 64, 62
1, 369225, Control_c, 0, 67, 22
1, 369225, Control_c, 1, 67, 22
1, 369244, Control_c, 1, 64, 59
1, 369244, Control_c, 0, 64, 59
1, 369245, Control_c, 0, 67, 28
1, 369245, Control_c, 1, 67, 28
1, 369262, Control_c, 1, 64, 57
1, 369262, Control_c, 0, 64, 57
1, 369263, Control_c, 0, 67, 33
1, 369263, Control_c, 1, 67, 33
1, 369280, Control_c, 1, 67, 38
1, 369280, Control_c, 0, 67, 38
1, 369300, Control_c, 0, 64, 55
1, 369300, Control_c, 1, 64, 55
1, 369302, Control_c, 1, 67, 42
1, 369302, Control_c, 0, 67, 42
1, 369318, Control_c, 0, 67, 46
1, 369318, Control_c, 1, 67, 46
1, 369336, Control_c, 1, 67, 50
1, 369336, Control_c, 0, 67, 50
1, 369375, Control_c, 0, 67, 56
1, 369375, Control_c, 1, 67, 56
1, 369430, Control_c, 1, 64, 57
1, 369430, Control_c, 0, 64, 57
1, 369450, Control_c, 0, 64, 59
1, 369450, Control_c, 1, 64, 59
1, 369468, Control_c, 1, 64, 60
1, 369468, Control_c, 0, 64, 60
1, 369487, Control_c, 0, 64, 61
1, 369487, Control_c, 1, 64, 61
1, 369489, Control_c, 1, 67, 61
1, 369489, Control_c, 0, 67, 61
1, 369506, Control_c, 0, 64, 63
1, 369506, Control_c, 1, 64, 63
1, 369524, Control_c, 1, 64, 64
1, 369524, Control_c, 1, 67, 67
1, 369524, Control_c, 0, 64, 64
1, 369524, Control_c, 0, 67, 67
1, 369542, Control_c, 0, 64, 65
1, 369542, Control_c, 1, 64, 65
1, 369561, Control_c, 1, 64, 66
1, 369561, Control_c, 0, 64, 66
1, 369562, Control_c, 0, 67, 73
1, 369562, Control_c, 1, 67, 73
1, 369580, Control_c, 1, 64, 67
1, 369580, Control_c, 0, 64, 67
1, 369598, Control_c, 0, 67, 77
1, 369598, Control_c, 1, 67, 77
1, 369618, Control_c, 1, 64, 70
1, 369618, Control_c, 0, 64, 70
1, 369628, Note_on_c, 0, 34, 31
1, 369637, Control_c, 0, 67, 81
1, 369637, Control_c, 1, 67, 81
1, 369642, Note_on_c, 0, 46, 7
1, 369656, Control_c, 0, 64, 72
1, 369656, Control_c, 1, 64, 72
1, 369674, Control_c, 1, 67, 87
1, 369674, Control_c, 0, 67, 87
1, 369692, Control_c, 0, 64, 76
1, 369692, Control_c, 1, 64, 76
1, 369711, Control_c, 1, 67, 93
1, 369711, Control_c, 0, 67, 93
1, 369729, Control_c, 0, 64, 80
1, 369729, Control_c, 1, 64, 80
1, 369749, Control_c, 1, 64, 83
1, 369749, Control_c, 0, 64, 83
1, 369750, Control_c, 0, 67, 97
1, 369750, Control_c, 1, 67, 97
1, 369767, Control_c, 1, 64, 87
1, 369767, Control_c, 0, 64, 87
1, 369786, Control_c, 0, 64, 91
1, 369786, Control_c, 1, 64, 91
1, 369805, Control_c, 1, 64, 96
1, 369805, Control_c, 0, 64, 96
1, 369806, Control_c, 0, 67, 103
1, 369806, Control_c, 1, 67, 103
1, 369843, Control_c, 1, 64, 102
1, 369843, Control_c, 0, 64, 102
1, 369844, Control_c, 0, 67, 108
1, 369844, Control_c, 1, 67, 108
1, 369932, Note_on_c, 0, 58, 31
1, 369933, Control_c, 0, 64, 106
1, 369933, Control_c, 1, 64, 106
1, 369966, Note_off_c, 0, 46, 31
1, 369992, Control_c, 0, 67, 112
1, 369992, Control_c, 1, 67, 112
1, 370011, Control_c, 1, 64, 111
1, 370011, Control_c, 0, 64, 111
1, 370012, Control_c, 0, 67, 116
1, 370012, Control_c, 1, 67, 116
1, 370030, Control_c, 1, 67, 120
1, 370030, Control_c, 0, 67, 120
1, 370049, Control_c, 0, 64, 119
1, 370049, Control_c, 1, 64, 119
1, 370067, Control_c, 1, 64, 127
1, 370067, Control_c, 0, 64, 127
1, 370068, Control_c, 0, 67, 126
1, 370068, Control_c, 1, 67, 126
1, 370219, Note_off_c, 0, 34, 40
1, 370234, Control_c, 0, 64, 110
1, 370234, Control_c, 1, 64, 110
1, 370235, Note_on_c, 0, 33, 43
1, 370254, Control_c, 0, 64, 90
1, 370254, Control_c, 1, 64, 90
1, 370273, Control_c, 1, 64, 79
1, 370273, Control_c, 0, 64, 79
1, 370291, Control_c, 0, 64, 77
1, 370291, Control_c, 1, 64, 77
1, 370310, Control_c, 1, 64, 79
1, 370310, Control_c, 0, 64, 79
1, 370329, Control_c, 0, 64, 83
1, 370329, Control_c, 1, 64, 83
1, 370347, Control_c, 1, 64, 87
1, 370347, Control_c, 0, 64, 87
1, 370367, Control_c, 0, 64, 92
1, 370367, Control_c, 1, 64, 92
1, 370376, Poly_aftertouch_c, 0, 45, 0
1, 370381, Note_off_c, 0, 58, 42
1, 370386, Control_c, 0, 64, 97
1, 370386, Control_c, 1, 64, 97
1, 370395, Note_on_c, 0, 57, 45
1, 370403, Control_c, 0, 64, 102
1, 370403, Control_c, 1, 64, 102
1, 370422, Control_c, 1, 64, 108
1, 370422, Control_c, 0, 64, 108
1, 370441, Control_c, 0, 64, 121
1, 370441, Control_c, 1, 64, 121
1, 370460, Control_c, 1, 64, 127
1, 370460, Control_c, 0, 64, 127
1, 370666, Control_c, 0, 64, 113
1, 370666, Control_c, 1, 64, 113
1, 370672, Note_on_c, 0, 31, 44
1, 370684, Control_c, 0, 64, 84
1, 370684, Control_c, 1, 64, 84
1, 370698, Note_on_c, 0, 43, 17
1, 370703, Note_off_c, 0, 33, 36
1, 370703, Control_c, 0, 64, 65
1, 370703, Control_c, 1, 64, 65
1, 370722, Control_c, 1, 64, 55
1, 370722, Control_c, 0, 64, 55
1, 370750, Note_off_c, 0, 43, 38
1, 370778, Control_c, 0, 64, 61
1, 370778, Control_c, 1, 64, 61
1, 370797, Control_c, 1, 64, 65
1, 370797, Control_c, 0, 64, 65
1, 370815, Control_c, 0, 64, 69
1, 370815, Control_c, 1, 64, 69
1, 370833, Control_c, 1, 64, 74
1, 370833, Control_c, 0, 64, 74
1, 370853, Control_c, 0, 64, 81
1, 370853, Control_c, 1, 64, 81
1, 370869, Control_c, 1, 64, 92
1, 370869, Note_on_c, 0, 55, 41
1, 370869, Control_c, 0, 64, 92
1, 370890, Control_c, 0, 64, 112
1, 370890, Control_c, 1, 64, 112
1, 370909, Control_c, 1, 64, 127
1, 370909, Control_c, 0, 64, 127
1, 370966, Note_off_c, 0, 57, 35
1, 371070, Note_off_c, 0, 31, 44
1, 371077, Control_c, 0, 64, 96
1, 371077, Control_c, 1, 64, 96
1, 371086, Note_on_c, 0, 33, 45
1, 371097, Control_c, 0, 64, 73
1, 371097, Control_c, 1, 64, 73
1, 371115, Control_c, 1, 64, 59
1, 371115, Control_c, 0, 64, 59
1, 371133, Control_c, 0, 64, 54
1, 371133, Control_c, 1, 64, 54
1, 371154, Poly_aftertouch_c, 0, 45, 127
1, 371171, Control_c, 0, 64, 56
1, 371171, Control_c, 1, 64, 56
1, 371190, Control_c, 1, 64, 61
1, 371190, Control_c, 0, 64, 61
1, 371195, Poly_aftertouch_c, 0, 45, 0
1, 371209, Control_c, 0, 64, 65
1, 371209, Control_c, 1, 64, 65
1, 371227, Control_c, 1, 64, 70
1, 371227, Control_c, 0, 64, 70
1, 371246, Control_c, 0, 64, 76
1, 371246, Control_c, 1, 64, 76
1, 371264, Control_c, 1, 64, 84
1, 371264, Note_on_c, 0, 57, 42
1, 371264, Control_c, 0, 64, 84
1, 371283, Control_c, 0, 64, 100
1, 371283, Control_c, 1, 64, 100
1, 371301, Note_off_c, 0, 55, 38
1, 371301, Control_c, 0, 64, 127
1, 371301, Control_c, 1, 64, 127
1, 371487, Note_off_c, 0, 33, 58
1, 371488, Control_c, 0, 64, 111
1, 371488, Control_c, 1, 64, 111
1, 371506, Note_on_c, 0, 34, 53
1, 371509, Control_c, 0, 64, 79
1, 371509, Control_c, 1, 64, 79
1, 371528, Control_c, 1, 64, 61
1, 371528, Control_c, 0, 64, 61
1, 371545, Control_c, 0, 64, 54
1, 371545, Control_c, 1, 64, 54
1, 371564, Control_c, 1, 64, 57
1, 371564, Control_c, 0, 64, 57
1, 371584, Control_c, 0, 64, 62
1, 371584, Control_c, 1, 64, 62
1, 371589, Poly_aftertouch_c, 0, 46, 127
1, 371601, Control_c, 0, 64, 68
1, 371601, Control_c, 1, 64, 68
1, 371621, Control_c, 1, 64, 76
1, 371621, Control_c, 0, 64, 76
1, 371639, Control_c, 0, 64, 91
1, 371639, Control_c, 1, 64, 91
1, 371644, Poly_aftertouch_c, 0, 46, 0
1, 371658, Control_c, 0, 64, 127
1, 371658, Control_c, 1, 64, 127
1, 371715, Note_on_c, 0, 58, 41
1, 371761, Note_off_c, 0, 57, 38
1, 371901, Control_c, 0, 64, 93
1, 371901, Control_c, 1, 64, 93
1, 371905, Note_off_c, 0, 34, 55
1, 371916, Note_on_c, 0, 31, 44
1, 371917, Control_c, 0, 64, 67
1, 371917, Control_c, 1, 64, 67
1, 371938, Control_c, 1, 64, 48
1, 371938, Control_c, 0, 64, 48
1, 371957, Control_c, 0, 64, 40
1, 371957, Control_c, 1, 64, 40
1, 372032, Control_c, 1, 64, 43
1, 372032, Control_c, 0, 64, 43
1, 372051, Control_c, 0, 64, 52
1, 372051, Control_c, 1, 64, 52
1, 372070, Control_c, 1, 64, 65
1, 372070, Control_c, 0, 64, 65
1, 372088, Control_c, 0, 64, 76
1, 372088, Control_c, 1, 64, 76
1, 372107, Control_c, 1, 64, 87
1, 372107, Control_c, 0, 64, 87
1, 372126, Control_c, 0, 64, 98
1, 372126, Control_c, 1, 64, 98
1, 372144, Control_c, 1, 64, 110
1, 372144, Control_c, 0, 64, 110
1, 372156, Note_on_c, 0, 55, 34
1, 372163, Control_c, 0, 64, 127
1, 372163, Control_c, 1, 64, 127
1, 372198, Note_off_c, 0, 58, 59
1, 372252, Note_off_c, 0, 61, 55
1, 372281, Note_off_c, 0, 55, 56
1, 372281, Note_off_c, 0, 64, 54
1, 372452, Note_off_c, 0, 31, 40
1, 372489, Note_on_c, 0, 38, 40
1, 372497, Note_on_c, 0, 45, 33
1, 372555, Control_c, 0, 64, 97
1, 372555, Control_c, 1, 64, 97
1, 372575, Control_c, 1, 64, 80
1, 372575, Control_c, 0, 64, 80
1, 372595, Control_c, 0, 64, 68
1, 372595, Control_c, 1, 64, 68
1, 372612, Control_c, 1, 64, 61
1, 372612, Control_c, 0, 64, 61
1, 372631, Control_c, 0, 64, 58
1, 372631, Control_c, 1, 64, 58
1, 372687, Control_c, 1, 64, 54
1, 372687, Control_c, 0, 64, 54
1, 372705, Control_c, 0, 64, 50
1, 372705, Control_c, 1, 64, 50
1, 372725, Control_c, 1, 64, 44
1, 372725, Control_c, 0, 64, 44
1, 372742, Control_c, 0, 64, 38
1, 372742, Control_c, 1, 64, 38
1, 372762, Control_c, 1, 64, 34
1, 372762, Control_c, 0, 64, 34
1, 372772, Note_on_c, 0, 66, 37
1, 372800, Note_on_c, 0, 57, 29
1, 372800, Control_c, 0, 64, 28
1, 372800, Control_c, 1, 64, 28
1, 372814, Note_on_c, 0, 62, 30
1, 372893, Control_c, 0, 64, 38
1, 372893, Control_c, 1, 64, 38
1, 372912, Control_c, 1, 64, 51
1, 372912, Control_c, 0, 64, 51
1, 372921, Note_off_c, 0, 67, 55
1, 372924, Note_off_c, 0, 45, 31
1, 372929, Control_c, 0, 64, 67
1, 372929, Control_c, 1, 64, 67
1, 372948, Control_c, 1, 64, 77
1, 372948, Control_c, 0, 64, 77
1, 372968, Control_c, 0, 64, 85
1, 372968, Control_c, 1, 64, 85
1, 372986, Note_off_c, 0, 38, 55
1, 373005, Control_c, 0, 64, 91
1, 373005, Control_c, 1, 64, 91
1, 373024, Control_c, 1, 64, 97
1, 373024, Control_c, 0, 64, 97
1, 373042, Control_c, 0, 64, 108
1, 373042, Control_c, 1, 64, 108
1, 373062, Control_c, 1, 64, 127
1, 373062, Control_c, 0, 64, 127
1, 373324, Control_c, 0, 64, 96
1, 373324, Control_c, 1, 64, 96
1, 373341, Control_c, 1, 64, 71
1, 373341, Control_c, 0, 64, 71
1, 373361, Note_on_c, 0, 26, 30
1, 373361, Control_c, 0, 64, 55
1, 373361, Control_c, 1, 64, 55
1, 373379, Control_c, 1, 64, 52
1, 373379, Note_on_c, 0, 38, 28
1, 373379, Control_c, 0, 64, 52
1, 373399, Control_c, 0, 64, 54
1, 373399, Control_c, 1, 64, 54
1, 373416, Control_c, 1, 64, 61
1, 373416, Control_c, 0, 64, 61
1, 373436, Control_c, 0, 64, 69
1, 373436, Control_c, 1, 64, 69
1, 373454, Control_c, 1, 64, 81
1, 373454, Control_c, 0, 64, 81
1, 373472, Note_off_c, 0, 38, 56
1, 373473, Control_c, 0, 64, 107
1, 373473, Control_c, 1, 64, 107
1, 373475, Note_off_c, 0, 26, 57
1, 373492, Control_c, 0, 64, 127
1, 373492, Control_c, 1, 64, 127
1, 373572, Note_off_c, 0, 62, 50
1, 373580, Note_off_c, 0, 66, 59
1, 373580, Poly_aftertouch_c, 0, 66, 0
1, 373614, Note_off_c, 0, 57, 49
1, 374129, Control_c, 0, 64, 111
1, 374129, Control_c, 1, 64, 111
1, 374147, Control_c, 1, 64, 105
1, 374147, Control_c, 0, 64, 105
1, 374165, Control_c, 0, 64, 98
1, 374165, Control_c, 1, 64, 98
1, 374185, Control_c, 1, 64, 89
1, 374185, Control_c, 0, 64, 89
1, 374203, Control_c, 0, 64, 79
1, 374203, Control_c, 1, 64, 79
1, 374222, Control_c, 1, 64, 69
1, 374222, Control_c, 0, 64, 69
1, 374242, Control_c, 0, 64, 62
1, 374242, Control_c, 1, 64, 62
1, 374260, Control_c, 1, 64, 59
1, 374260, Control_c, 0, 64, 59
1, 374293, Note_on_c, 0, 31, 35
1, 374484, Control_c, 0, 64, 57
1, 374484, Control_c, 1, 64, 57
1, 374498, Note_on_c, 0, 62, 59
1, 374507, Note_on_c, 0, 59, 23
1, 374560, Control_c, 0, 64, 55
1, 374560, Control_c, 1, 64, 55
1, 374646, Note_off_c, 0, 31, 42
1, 374709, Control_c, 0, 64, 53
1, 374709, Control_c, 1, 64, 53
1, 374800, Note_on_c, 0, 38, 36
1, 374915, Control_c, 0, 64, 51
1, 374915, Control_c, 1, 64, 51
1, 374966, Note_on_c, 0, 60, 68
1, 375006, Note_on_c, 0, 57, 41
1, 375017, Note_off_c, 0, 38, 49
1, 375047, Control_c, 0, 64, 49
1, 375047, Control_c, 1, 64, 49
1, 375074, Note_off_c, 0, 59, 51
1, 375190, Note_on_c, 0, 43, 41
1, 375246, Note_off_c, 0, 62, 36
1, 375298, Note_off_c, 0, 43, 60
1, 375306, Control_c, 0, 67, 122
1, 375306, Control_c, 1, 67, 122
1, 375327, Control_c, 1, 64, 47
1, 375327, Control_c, 0, 64, 47
1, 375369, Note_on_c, 0, 59, 69
1, 375373, Note_on_c, 0, 55, 48
1, 375439, Control_c, 0, 67, 116
1, 375439, Control_c, 1, 67, 116
1, 375450, Note_off_c, 0, 60, 59
1, 375455, Note_off_c, 0, 57, 53
1, 375476, Control_c, 0, 67, 110
1, 375476, Control_c, 1, 67, 110
1, 375556, Note_on_c, 0, 50, 53
1, 375784, Note_on_c, 0, 60, 64
1, 375804, Note_on_c, 0, 57, 48
1, 375827, Note_off_c, 0, 50, 43
1, 375831, Control_c, 0, 67, 105
1, 375831, Control_c, 1, 67, 105
1, 375841, Note_off_c, 0, 55, 47
1, 375845, Note_off_c, 0, 59, 56
1, 375870, Control_c, 0, 67, 98
1, 375870, Control_c, 1, 67, 98
1, 375907, Control_c, 1, 67, 91
1, 375907, Control_c, 0, 67, 91
1, 375944, Control_c, 0, 67, 87
1, 375944, Control_c, 1, 67, 87
1, 375996, Note_on_c, 0, 43, 40
1, 376017, Note_on_c, 0, 55, 29
1, 376075, Control_c, 0, 67, 81
1, 376075, Control_c, 1, 67, 81
1, 376080, Note_off_c, 0, 55, 45
1, 376113, Control_c, 0, 67, 76
1, 376113, Control_c, 1, 67, 76
1, 376149, Control_c, 1, 67, 71
1, 376149, Control_c, 0, 67, 71
1, 376157, Note_off_c, 0, 43, 59
1, 376189, Control_c, 0, 67, 67
1, 376189, Control_c, 1, 67, 67
1, 376207, Control_c, 1, 64, 45
1, 376207, Control_c, 0, 64, 45
1, 376251, Note_on_c, 0, 62, 55
1, 376261, Note_on_c, 0, 59, 47
1, 376261, Control_c, 0, 67, 63
1, 376261, Control_c, 1, 67, 63
1, 376295, Note_off_c, 0, 60, 43
1, 376304, Note_off_c, 0, 57, 53
1, 376450, Control_c, 0, 64, 43
1, 376450, Control_c, 1, 64, 43
1, 376838, Note_on_c, 0, 74, 58
1, 376842, Control_c, 0, 64, 48
1, 376842, Control_c, 1, 64, 48
1, 376861, Control_c, 1, 64, 54
1, 376861, Control_c, 0, 64, 54
1, 376880, Control_c, 0, 64, 59
1, 376880, Control_c, 1, 64, 59
1, 376899, Control_c, 1, 64, 63
1, 376899, Control_c, 0, 64, 63
1, 376917, Control_c, 0, 64, 67
1, 376917, Control_c, 1, 64, 67
1, 376936, Control_c, 1, 64, 71
1, 376936, Control_c, 0, 64, 71
1, 376956, Control_c, 0, 64, 78
1, 376956, Control_c, 1, 64, 78
1, 376973, Control_c, 1, 64, 90
1, 376973, Control_c, 0, 64, 90
1, 376993, Control_c, 0, 64, 114
1, 376993, Control_c, 1, 64, 114
1, 377012, Control_c, 1, 64, 127
1, 377012, Control_c, 0, 64, 127
1, 377182, Note_off_c, 0, 59, 59
1, 377213, Note_off_c, 0, 62, 51
1, 377291, Control_c, 0, 67, 67
1, 377291, Control_c, 1, 67, 67
1, 377311, Note_on_c, 0, 79, 56
1, 377362, Note_off_c, 0, 74, 40
1, 377629, Control_c, 0, 64, 96
1, 377629, Control_c, 1, 64, 96
1, 377648, Control_c, 1, 64, 68
1, 377648, Control_c, 0, 64, 68
1, 377666, Control_c, 0, 64, 47
1, 377666, Control_c, 1, 64, 47
1, 377685, Control_c, 1, 64, 34
1, 377685, Control_c, 0, 64, 34
1, 377687, Note_on_c, 0, 65, 57
1, 377704, Control_c, 0, 64, 28
1, 377704, Control_c, 1, 64, 28
1, 377719, Note_on_c, 0, 62, 32
1, 377734, Note_on_c, 0, 59, 38
1, 377741, Control_c, 0, 64, 24
1, 377741, Control_c, 1, 64, 24
1, 377797, Control_c, 1, 64, 38
1, 377797, Control_c, 0, 64, 38
1, 377816, Control_c, 0, 64, 59
1, 377816, Control_c, 1, 64, 59
1, 377834, Control_c, 1, 64, 80
1, 377834, Control_c, 0, 64, 80
1, 377854, Control_c, 0, 64, 105
1, 377854, Control_c, 1, 64, 105
1, 377857, Note_off_c, 0, 79, 42
1, 377873, Control_c, 0, 64, 127
1, 377873, Control_c, 1, 64, 127
1, 377909, Control_c, 1, 67, 71
1, 377909, Control_c, 0, 67, 71
1, 378040, Control_c, 0, 64, 88
1, 378040, Control_c, 1, 64, 88
1, 378060, Control_c, 1, 64, 69
1, 378060, Control_c, 0, 64, 69
1, 378078, Control_c, 0, 64, 60
1, 378078, Control_c, 1, 64, 60
1, 378098, Control_c, 1, 64, 62
1, 378098, Control_c, 0, 64, 62
1, 378115, Control_c, 0, 64, 67
1, 378115, Control_c, 1, 64, 67
1, 378125, Note_on_c, 0, 67, 34
1, 378133, Control_c, 0, 64, 73
1, 378133, Control_c, 1, 64, 73
1, 378153, Control_c, 1, 64, 83
1, 378153, Control_c, 0, 64, 83
1, 378171, Control_c, 0, 64, 99
1, 378171, Control_c, 1, 64, 99
1, 378175, Control_c, 1, 67, 75
1, 378175, Control_c, 0, 67, 75
1, 378190, Control_c, 0, 64, 127
1, 378190, Control_c, 1, 64, 127
1, 378227, Control_c, 1, 67, 79
1, 378227, Control_c, 0, 67, 79
1, 378298, Note_off_c, 0, 67, 55
1, 378321, Control_c, 0, 67, 85
1, 378321, Control_c, 1, 67, 85
1, 378358, Control_c, 1, 67, 92
1, 378358, Control_c, 0, 67, 92
1, 378396, Control_c, 0, 67, 99
1, 378396, Control_c, 1, 67, 99
1, 378415, Control_c, 1, 67, 104
1, 378415, Control_c, 0, 67, 104
1, 378433, Control_c, 0, 67, 109
1, 378433, Control_c, 1, 67, 109
1, 378452, Control_c, 1, 67, 114
1, 378452, Control_c, 0, 67, 114
1, 378472, Control_c, 0, 67, 118
1, 378472, Control_c, 1, 67, 118
1, 378528, Control_c, 1, 67, 122
1, 378528, Control_c, 0, 67, 122
1, 378585, Control_c, 0, 64, 111
1, 378585, Control_c, 1, 64, 111
1, 378587, Control_c, 1, 67, 127
1, 378587, Control_c, 0, 67, 127
1, 378602, Control_c, 0, 64, 96
1, 378602, Control_c, 1, 64, 96
1, 378621, Control_c, 1, 64, 86
1, 378621, Control_c, 0, 64, 86
1, 378640, Control_c, 0, 64, 79
1, 378640, Control_c, 1, 64, 79
1, 378658, Control_c, 1, 64, 75
1, 378658, Control_c, 0, 64, 75
1, 378695, Control_c, 0, 64, 73
1, 378695, Control_c, 1, 64, 73
1, 378733, Control_c, 1, 64, 69
1, 378733, Control_c, 0, 64, 69
1, 378752, Control_c, 0, 64, 67
1, 378752, Control_c, 1, 64, 67
1, 378771, Control_c, 1, 64, 65
1, 378771, Control_c, 0, 64, 65
1, 378789, Control_c, 0, 64, 63
1, 378789, Control_c, 1, 64, 63
1, 378808, Control_c, 1, 64, 59
1, 378808, Control_c, 0, 64, 59
1, 378827, Control_c, 0, 64, 55
1, 378827, Control_c, 1, 64, 55
1, 378846, Control_c, 1, 64, 52
1, 378846, Control_c, 0, 64, 52
1, 378958, Control_c, 0, 64, 54
1, 378958, Control_c, 1, 64, 54
1, 378977, Control_c, 1, 64, 58
1, 378977, Control_c, 0, 64, 58
1, 378995, Control_c, 0, 64, 61
1, 378995, Control_c, 1, 64, 61
1, 379015, Control_c, 1, 64, 62
1, 379015, Control_c, 0, 64, 62
1, 379032, Control_c, 0, 64, 64
1, 379032, Control_c, 1, 64, 64
1, 379051, Control_c, 1, 64, 65
1, 379051, Control_c, 0, 64, 65
1, 379071, Control_c, 0, 64, 67
1, 379071, Control_c, 1, 64, 67
1, 379089, Control_c, 1, 64, 69
1, 379089, Control_c, 0, 64, 69
1, 379108, Control_c, 0, 64, 72
1, 379108, Control_c, 1, 64, 72
1, 379126, Control_c, 1, 64, 75
1, 379126, Control_c, 0, 64, 75
1, 379146, Control_c, 0, 64, 77
1, 379146, Control_c, 1, 64, 77
1, 379164, Control_c, 1, 64, 80
1, 379164, Control_c, 0, 64, 80
1, 379183, Control_c, 0, 64, 84
1, 379183, Control_c, 1, 64, 84
1, 379201, Control_c, 1, 64, 89
1, 379201, Control_c, 0, 64, 89
1, 379220, Control_c, 0, 64, 94
1, 379220, Control_c, 1, 64, 94
1, 379238, Control_c, 1, 64, 98
1, 379238, Control_c, 0, 64, 98
1, 379294, Note_on_c, 0, 32, 30
1, 379302, Note_on_c, 0, 44, 6
1, 379500, Control_c, 0, 64, 102
1, 379500, Control_c, 1, 64, 102
1, 379538, Note_off_c, 0, 44, 35
1, 379581, Note_on_c, 0, 56, 36
1, 379631, Control_c, 0, 64, 106
1, 379631, Control_c, 1, 64, 106
1, 379688, Control_c, 1, 64, 110
1, 379688, Control_c, 0, 64, 110
1, 379725, Control_c, 0, 64, 115
1, 379725, Control_c, 1, 64, 115
1, 379781, Note_off_c, 0, 32, 48
1, 379807, Note_on_c, 0, 31, 44
1, 379856, Control_c, 0, 64, 103
1, 379856, Control_c, 1, 64, 103
1, 379877, Control_c, 1, 64, 91
1, 379877, Control_c, 0, 64, 91
1, 379893, Control_c, 0, 64, 81
1, 379893, Control_c, 1, 64, 81
1, 379910, Poly_aftertouch_c, 0, 43, 0
1, 379913, Control_c, 0, 64, 76
1, 379913, Control_c, 1, 64, 76
1, 379950, Control_c, 1, 64, 78
1, 379950, Control_c, 0, 64, 78
1, 379970, Control_c, 0, 64, 82
1, 379970, Control_c, 1, 64, 82
1, 379987, Control_c, 1, 64, 86
1, 379987, Control_c, 0, 64, 86
1, 380006, Control_c, 0, 64, 91
1, 380006, Control_c, 1, 64, 91
1, 380024, Control_c, 1, 64, 96
1, 380024, Control_c, 0, 64, 96
1, 380029, Note_on_c, 0, 55, 44
1, 380043, Control_c, 0, 64, 102
1, 380043, Control_c, 1, 64, 102
1, 380062, Control_c, 1, 64, 109
1, 380062, Control_c, 0, 64, 109
1, 380082, Control_c, 0, 64, 118
1, 380082, Control_c, 1, 64, 118
1, 380095, Note_off_c, 0, 56, 31
1, 380099, Control_c, 0, 64, 127
1, 380099, Control_c, 1, 64, 127
1, 380231, Control_c, 1, 64, 111
1, 380231, Control_c, 0, 64, 111
1, 380249, Control_c, 0, 64, 86
1, 380249, Control_c, 1, 64, 86
1, 380268, Control_c, 1, 64, 68
1, 380268, Control_c, 0, 64, 68
1, 380272, Note_on_c, 0, 29, 34
1, 380288, Control_c, 0, 64, 57
1, 380288, Control_c, 1, 64, 57
1, 380303, Note_off_c, 0, 31, 40
1, 380305, Control_c, 0, 64, 54
1, 380305, Control_c, 1, 64, 54
1, 380343, Control_c, 1, 64, 59
1, 380343, Control_c, 0, 64, 59
1, 380358, Poly_aftertouch_c, 0, 41, 127
1, 380361, Control_c, 0, 64, 63
1, 380361, Control_c, 1, 64, 63
1, 380381, Control_c, 1, 64, 68
1, 380381, Control_c, 0, 64, 68
1, 380390, Poly_aftertouch_c, 0, 41, 0
1, 380399, Control_c, 0, 64, 74
1, 380399, Control_c, 1, 64, 74
1, 380419, Control_c, 1, 64, 81
1, 380419, Control_c, 0, 64, 81
1, 380436, Control_c, 0, 64, 93
1, 380436, Control_c, 1, 64, 93
1, 380455, Control_c, 1, 64, 114
1, 380455, Control_c, 0, 64, 114
1, 380473, Control_c, 0, 64, 127
1, 380473, Control_c, 1, 64, 127
1, 380496, Note_on_c, 0, 53, 42
1, 380601, Note_off_c, 0, 55, 37
1, 380605, Control_c, 0, 64, 100
1, 380605, Control_c, 1, 64, 100
1, 380624, Control_c, 1, 64, 78
1, 380624, Control_c, 0, 64, 78
1, 380643, Control_c, 0, 64, 63
1, 380643, Control_c, 1, 64, 63
1, 380662, Control_c, 1, 64, 56
1, 380662, Control_c, 0, 64, 56
1, 380678, Note_off_c, 0, 29, 53
1, 380699, Note_on_c, 0, 31, 43
1, 380717, Control_c, 0, 64, 61
1, 380717, Control_c, 1, 64, 61
1, 380736, Control_c, 1, 64, 64
1, 380736, Control_c, 0, 64, 64
1, 380755, Control_c, 0, 64, 67
1, 380755, Control_c, 1, 64, 67
1, 380771, Poly_aftertouch_c, 0, 43, 127
1, 380772, Control_c, 0, 64, 72
1, 380772, Control_c, 1, 64, 72
1, 380792, Control_c, 1, 64, 81
1, 380792, Control_c, 0, 64, 81
1, 380812, Control_c, 0, 64, 99
1, 380812, Control_c, 1, 64, 99
1, 380830, Control_c, 1, 64, 127
1, 380830, Control_c, 0, 64, 127
1, 380843, Poly_aftertouch_c, 0, 43, 0
1, 380916, Note_on_c, 0, 55, 39
1, 380955, Note_off_c, 0, 53, 34
1, 381110, Control_c, 0, 64, 101
1, 381110, Control_c, 1, 64, 101
1, 381123, Note_off_c, 0, 31, 55
1, 381127, Control_c, 0, 64, 73
1, 381127, Control_c, 1, 64, 73
1, 381146, Control_c, 1, 64, 54
1, 381146, Note_on_c, 0, 32, 39
1, 381146, Control_c, 0, 64, 54
1, 381167, Control_c, 0, 64, 46
1, 381167, Control_c, 1, 64, 46
1, 381205, Control_c, 1, 64, 48
1, 381205, Control_c, 0, 64, 48
1, 381223, Control_c, 0, 64, 55
1, 381223, Control_c, 1, 64, 55
1, 381243, Control_c, 1, 64, 65
1, 381243, Control_c, 0, 64, 65
1, 381260, Control_c, 0, 64, 75
1, 381260, Control_c, 1, 64, 75
1, 381266, Poly_aftertouch_c, 0, 44, 0
1, 381280, Control_c, 0, 64, 87
1, 381280, Control_c, 1, 64, 87
1, 381297, Control_c, 1, 64, 107
1, 381297, Control_c, 0, 64, 107
1, 381316, Control_c, 0, 64, 127
1, 381316, Control_c, 1, 64, 127
1, 381350, Note_on_c, 0, 56, 47
1, 381419, Note_off_c, 0, 55, 34
1, 381560, Control_c, 0, 64, 86
1, 381560, Control_c, 1, 64, 86
1, 381565, Note_on_c, 0, 29, 35
1, 381578, Control_c, 0, 64, 65
1, 381578, Control_c, 1, 64, 65
1, 381598, Control_c, 1, 64, 53
1, 381598, Control_c, 0, 64, 53
1, 381621, Note_off_c, 0, 32, 48
1, 381634, Control_c, 0, 64, 57
1, 381634, Control_c, 1, 64, 57
1, 381655, Control_c, 1, 64, 62
1, 381655, Control_c, 0, 64, 62
1, 381672, Control_c, 0, 64, 69
1, 381672, Control_c, 1, 64, 69
1, 381692, Control_c, 1, 64, 79
1, 381692, Control_c, 0, 64, 79
1, 381709, Control_c, 0, 64, 95
1, 381709, Control_c, 1, 64, 95
1, 381728, Control_c, 1, 64, 127
1, 381728, Control_c, 0, 64, 127
1, 381800, Note_on_c, 0, 53, 32
1, 381855, Note_off_c, 0, 56, 59
1, 381872, Note_off_c, 0, 59, 59
1, 381943, Note_off_c, 0, 62, 52
1, 382051, Note_off_c, 0, 53, 37
1, 382102, Control_c, 0, 64, 100
1, 382102, Control_c, 1, 64, 100
1, 382122, Control_c, 1, 64, 72
1, 382122, Control_c, 0, 64, 72
1, 382132, Note_on_c, 0, 36, 32
1, 382140, Control_c, 0, 64, 54
1, 382140, Control_c, 1, 64, 54
1, 382149, Note_off_c, 0, 29, 38
1, 382154, Note_on_c, 0, 43, 11
1, 382158, Control_c, 0, 64, 45
1, 382158, Control_c, 1, 64, 45
1, 382196, Control_c, 1, 64, 47
1, 382196, Control_c, 0, 64, 47
1, 382215, Control_c, 0, 64, 57
1, 382215, Control_c, 1, 64, 57
1, 382234, Control_c, 1, 64, 68
1, 382234, Control_c, 0, 64, 68
1, 382252, Control_c, 0, 64, 80
1, 382252, Control_c, 1, 64, 80
1, 382271, Control_c, 1, 64, 99
1, 382271, Control_c, 0, 64, 99
1, 382290, Control_c, 0, 64, 127
1, 382290, Control_c, 1, 64, 127
1, 382413, Note_off_c, 0, 43, 34
1, 382421, Control_c, 0, 64, 107
1, 382421, Control_c, 1, 64, 107
1, 382437, Note_on_c, 0, 55, 35
1, 382438, Control_c, 0, 64, 78
1, 382438, Control_c, 1, 64, 78
1, 382443, Note_on_c, 0, 64, 37
1, 382458, Control_c, 0, 64, 60
1, 382458, Control_c, 1, 64, 60
1, 382476, Control_c, 1, 64, 51
1, 382476, Control_c, 0, 64, 51
1, 382481, Note_on_c, 0, 60, 18
1, 382514, Control_c, 0, 64, 54
1, 382514, Control_c, 1, 64, 54
1, 382533, Control_c, 1, 64, 60
1, 382533, Control_c, 0, 64, 60
1, 382552, Control_c, 0, 64, 68
1, 382552, Control_c, 1, 64, 68
1, 382559, Note_off_c, 0, 65, 32
1, 382570, Control_c, 0, 64, 76
1, 382570, Control_c, 1, 64, 76
1, 382590, Control_c, 1, 64, 85
1, 382590, Control_c, 0, 64, 85
1, 382608, Control_c, 0, 64, 101
1, 382608, Control_c, 1, 64, 101
1, 382627, Control_c, 1, 64, 127
1, 382627, Control_c, 0, 64, 127
1, 382744, Note_off_c, 0, 36, 39
1, 382964, Control_c, 0, 64, 116
1, 382964, Control_c, 1, 64, 116
1, 382982, Control_c, 1, 64, 85
1, 382982, Control_c, 0, 64, 85
1, 383002, Control_c, 0, 64, 66
1, 383002, Control_c, 1, 64, 66
1, 383020, Control_c, 1, 64, 53
1, 383020, Control_c, 0, 64, 53
1, 383038, Control_c, 0, 64, 51
1, 383038, Control_c, 1, 64, 51
1, 383042, Note_on_c, 0, 24, 23
1, 383077, Control_c, 0, 64, 54
1, 383077, Control_c, 1, 64, 54
1, 383096, Control_c, 1, 64, 59
1, 383096, Control_c, 0, 64, 59
1, 383113, Control_c, 0, 64, 62
1, 383113, Control_c, 1, 64, 62
1, 383131, Control_c, 1, 64, 65
1, 383131, Control_c, 0, 64, 65
1, 383148, Poly_aftertouch_c, 0, 36, 0
1, 383150, Control_c, 0, 64, 69
1, 383150, Control_c, 1, 64, 69
1, 383169, Control_c, 1, 64, 74
1, 383169, Control_c, 0, 64, 74
1, 383187, Control_c, 0, 64, 81
1, 383187, Control_c, 1, 64, 81
1, 383203, Note_off_c, 0, 24, 56
1, 383206, Control_c, 0, 64, 95
1, 383206, Control_c, 1, 64, 95
1, 383226, Control_c, 1, 64, 127
1, 383226, Control_c, 0, 64, 127
1, 383371, Note_off_c, 0, 64, 53
1, 383386, Note_off_c, 0, 60, 39
1, 383402, Note_off_c, 0, 55, 44
1, 383688, Note_on_c, 0, 48, 37
1, 383722, Note_on_c, 0, 51, 37
1, 383769, Control_c, 0, 64, 110
1, 383769, Control_c, 1, 64, 110
1, 383787, Control_c, 1, 64, 92
1, 383787, Control_c, 0, 64, 92
1, 383806, Control_c, 0, 64, 80
1, 383806, Control_c, 1, 64, 80
1, 383826, Control_c, 1, 64, 75
1, 383826, Control_c, 0, 64, 75
1, 383946, Note_on_c, 0, 63, 44
1, 383972, Note_on_c, 0, 60, 34
1, 383974, Control_c, 0, 64, 78
1, 383974, Control_c, 1, 64, 78
1, 383993, Control_c, 1, 64, 82
1, 383993, Control_c, 0, 64, 82
1, 384013, Control_c, 0, 64, 88
1, 384013, Control_c, 1, 64, 88
1, 384031, Control_c, 1, 64, 96
1, 384031, Control_c, 0, 64, 96
1, 384049, Control_c, 0, 64, 107
1, 384049, Control_c, 1, 64, 107
1, 384051, Note_off_c, 0, 51, 49
1, 384067, Control_c, 0, 64, 127
1, 384067, Control_c, 1, 64, 127
1, 384358, Note_off_c, 0, 48, 38
1, 384384, Note_on_c, 0, 46, 40
1, 384405, Note_on_c, 0, 50, 31
1, 384460, Control_c, 0, 64, 110
1, 384460, Control_c, 1, 64, 110
1, 384480, Control_c, 1, 64, 85
1, 384480, Control_c, 0, 64, 85
1, 384496, Note_off_c, 0, 63, 55
1, 384498, Control_c, 0, 64, 70
1, 384498, Control_c, 1, 64, 70
1, 384517, Control_c, 1, 64, 65
1, 384517, Control_c, 0, 64, 65
1, 384555, Control_c, 0, 64, 68
1, 384555, Control_c, 1, 64, 68
1, 384573, Control_c, 1, 64, 71
1, 384573, Control_c, 0, 64, 71
1, 384593, Control_c, 0, 64, 75
1, 384593, Control_c, 1, 64, 75
1, 384605, Note_on_c, 0, 62, 48
1, 384611, Control_c, 0, 64, 79
1, 384611, Control_c, 1, 64, 79
1, 384629, Control_c, 1, 64, 85
1, 384629, Control_c, 0, 64, 85
1, 384636, Note_off_c, 0, 50, 55
1, 384636, Note_on_c, 0, 58, 34
1, 384648, Control_c, 0, 64, 91
1, 384648, Control_c, 1, 64, 91
1, 384667, Control_c, 1, 64, 100
1, 384667, Control_c, 0, 64, 100
1, 384668, Control_c, 0, 67, 122
1, 384668, Control_c, 1, 67, 122
1, 384677, Note_off_c, 0, 46, 62
1, 384678, Note_off_c, 0, 60, 31
1, 384685, Control_c, 0, 64, 112
1, 384685, Control_c, 1, 64, 112
1, 384705, Control_c, 1, 64, 127
1, 384705, Control_c, 0, 64, 127
1, 384892, Note_on_c, 0, 30, 53
1, 384906, Note_on_c, 0, 42, 37
1, 384985, Control_c, 0, 64, 109
1, 384985, Control_c, 1, 64, 109
1, 385003, Control_c, 1, 64, 86
1, 385003, Control_c, 0, 64, 86
1, 385023, Control_c, 0, 64, 73
1, 385023, Control_c, 1, 64, 73
1, 385024, Control_c, 1, 67, 118
1, 385024, Control_c, 0, 67, 118
1, 385041, Control_c, 0, 64, 70
1, 385041, Control_c, 1, 64, 70
1, 385061, Control_c, 1, 64, 73
1, 385061, Control_c, 0, 64, 73
1, 385079, Note_on_c, 0, 60, 63
1, 385079, Control_c, 0, 64, 79
1, 385079, Control_c, 0, 67, 113
1, 385079, Control_c, 1, 64, 79
1, 385079, Control_c, 1, 67, 113
1, 385098, Control_c, 1, 64, 91
1, 385098, Control_c, 0, 64, 91
1, 385109, Note_on_c, 0, 54, 31
1, 385114, Control_c, 0, 64, 119
1, 385114, Control_c, 1, 64, 119
1, 385127, Note_off_c, 0, 62, 48
1, 385127, Note_on_c, 0, 57, 31
1, 385132, Control_c, 0, 64, 127
1, 385132, Control_c, 1, 64, 127
1, 385170, Poly_aftertouch_c, 0, 42, 24
1, 385191, Control_c, 0, 67, 109
1, 385191, Control_c, 1, 67, 109
1, 385198, Note_off_c, 0, 58, 34
1, 385206, Note_off_c, 0, 42, 33
1, 385206, Poly_aftertouch_c, 0, 42, 0
1, 385207, Poly_aftertouch_c, 0, 42, 0
1, 385246, Control_c, 0, 67, 103
1, 385246, Control_c, 1, 67, 103
1, 385275, Note_off_c, 0, 30, 49
1, 385296, Note_on_c, 0, 29, 53
1, 385305, Control_c, 0, 67, 99
1, 385305, Control_c, 1, 67, 99
1, 385307, Note_on_c, 0, 41, 42
1, 385416, Control_c, 0, 67, 95
1, 385416, Control_c, 1, 67, 95
1, 385465, Note_off_c, 0, 54, 40
1, 385487, Note_off_c, 0, 57, 38
1, 385501, Note_on_c, 0, 58, 47
1, 385503, Note_on_c, 0, 62, 70
1, 385509, Control_c, 0, 64, 107
1, 385509, Control_c, 1, 64, 107
1, 385528, Control_c, 1, 64, 82
1, 385528, Control_c, 0, 64, 82
1, 385534, Note_off_c, 0, 41, 61
1, 385543, Note_on_c, 0, 53, 37
1, 385546, Note_off_c, 0, 60, 42
1, 385547, Control_c, 0, 64, 71
1, 385547, Control_c, 1, 64, 71
1, 385584, Control_c, 1, 64, 75
1, 385584, Control_c, 0, 64, 75
1, 385603, Control_c, 0, 64, 81
1, 385603, Control_c, 1, 64, 81
1, 385622, Control_c, 1, 64, 91
1, 385622, Control_c, 0, 64, 91
1, 385641, Control_c, 0, 64, 107
1, 385641, Control_c, 1, 64, 107
1, 385659, Control_c, 1, 64, 127
1, 385659, Control_c, 0, 64, 127
1, 385788, Note_on_c, 0, 27, 57
1, 385801, Note_off_c, 0, 29, 49
1, 385805, Note_on_c, 0, 39, 38
1, 385835, Note_off_c, 0, 53, 43
1, 385908, Note_off_c, 0, 62, 39
1, 386033, Control_c, 0, 64, 107
1, 386033, Control_c, 1, 64, 107
1, 386051, Control_c, 1, 64, 79
1, 386051, Control_c, 0, 64, 79
1, 386054, Note_on_c, 0, 60, 48
1, 386071, Control_c, 0, 64, 64
1, 386071, Control_c, 1, 64, 64
1, 386080, Note_on_c, 0, 63, 65
1, 386080, Note_on_c, 0, 51, 39
1, 386090, Control_c, 0, 64, 60
1, 386090, Control_c, 1, 64, 60
1, 386108, Control_c, 1, 64, 61
1, 386108, Control_c, 0, 64, 61
1, 386126, Control_c, 0, 64, 66
1, 386126, Control_c, 1, 64, 66
1, 386145, Control_c, 1, 64, 73
1, 386145, Control_c, 0, 64, 73
1, 386153, Note_off_c, 0, 58, 19
1, 386164, Control_c, 0, 64, 86
1, 386164, Control_c, 1, 64, 86
1, 386183, Control_c, 1, 64, 124
1, 386183, Control_c, 0, 64, 124
1, 386285, Note_off_c, 0, 27, 62
1, 386331, Note_off_c, 0, 39, 36
1, 386351, Note_on_c, 0, 29, 57
1, 386355, Note_on_c, 0, 41, 63
1, 386370, Control_c, 0, 64, 91
1, 386370, Control_c, 1, 64, 91
1, 386374, Note_off_c, 0, 51, 41
1, 386390, Control_c, 0, 64, 76
1, 386390, Control_c, 1, 64, 76
1, 386408, Control_c, 1, 64, 74
1, 386408, Control_c, 0, 64, 74
1, 386426, Control_c, 0, 64, 78
1, 386426, Control_c, 1, 64, 78
1, 386445, Control_c, 1, 64, 87
1, 386445, Control_c, 0, 64, 87
1, 386464, Control_c, 0, 64, 103
1, 386464, Control_c, 1, 64, 103
1, 386482, Control_c, 1, 64, 127
1, 386482, Control_c, 0, 64, 127
1, 386523, Note_on_c, 0, 53, 60
1, 386613, Note_off_c, 0, 41, 62
1, 386821, Note_on_c, 0, 42, 53
1, 386821, Note_on_c, 0, 30, 63
1, 386839, Control_c, 0, 64, 95
1, 386839, Control_c, 1, 64, 95
1, 386858, Control_c, 1, 64, 64
1, 386858, Control_c, 0, 64, 64
1, 386876, Control_c, 0, 64, 41
1, 386876, Control_c, 1, 64, 41
1, 386884, Note_off_c, 0, 29, 54
1, 386895, Control_c, 0, 64, 33
1, 386895, Control_c, 1, 64, 33
1, 386951, Control_c, 1, 64, 49
1, 386951, Control_c, 0, 64, 49
1, 386970, Control_c, 0, 64, 70
1, 386970, Control_c, 1, 64, 70
1, 386988, Control_c, 1, 64, 93
1, 386988, Control_c, 0, 64, 93
1, 387007, Control_c, 0, 64, 127
1, 387007, Control_c, 1, 64, 127
1, 387008, Control_c, 1, 67, 99
1, 387008, Control_c, 0, 67, 99
1, 387040, Note_off_c, 0, 63, 59
1, 387068, Note_on_c, 0, 62, 65
1, 387073, Note_on_c, 0, 58, 49
1, 387081, Note_on_c, 0, 54, 31
1, 387137, Note_off_c, 0, 53, 31
1, 387310, Note_off_c, 0, 60, 34
1, 387330, Note_off_c, 0, 30, 59
1, 387345, Note_off_c, 0, 42, 33
1, 387356, Note_on_c, 0, 29, 51
1, 387361, Control_c, 0, 64, 83
1, 387361, Control_c, 1, 64, 83
1, 387373, Note_on_c, 0, 41, 48
1, 387381, Control_c, 0, 64, 53
1, 387381, Control_c, 1, 64, 53
1, 387401, Control_c, 1, 64, 31
1, 387401, Control_c, 0, 64, 31
1, 387457, Control_c, 0, 64, 40
1, 387457, Control_c, 1, 64, 40
1, 387475, Control_c, 1, 64, 59
1, 387475, Control_c, 0, 64, 59
1, 387493, Control_c, 0, 64, 79
1, 387493, Control_c, 1, 64, 79
1, 387498, Note_on_c, 0, 53, 56
1, 387515, Control_c, 0, 64, 110
1, 387515, Control_c, 1, 64, 110
1, 387517, Note_off_c, 0, 29, 60
1, 387531, Control_c, 0, 64, 127
1, 387531, Control_c, 1, 64, 127
1, 387541, Note_off_c, 0, 41, 60
1, 387545, Note_off_c, 0, 58, 57
1, 387555, Note_off_c, 0, 54, 47
1, 387571, Note_off_c, 0, 62, 60
1, 387963, Note_on_c, 0, 50, 45
1, 387964, Note_on_c, 0, 46, 46
1, 387999, Control_c, 0, 64, 108
1, 387999, Control_c, 1, 64, 108
1, 388018, Control_c, 1, 64, 72
1, 388018, Control_c, 0, 64, 72
1, 388036, Control_c, 0, 64, 47
1, 388036, Control_c, 1, 64, 47
1, 388055, Control_c, 1, 64, 31
1, 388055, Control_c, 0, 64, 31
1, 388111, Control_c, 0, 64, 36
1, 388111, Control_c, 1, 64, 36
1, 388114, Note_on_c, 0, 62, 64
1, 388130, Control_c, 0, 64, 52
1, 388130, Control_c, 1, 64, 52
1, 388139, Note_on_c, 0, 58, 41
1, 388148, Control_c, 0, 64, 72
1, 388148, Control_c, 1, 64, 72
1, 388168, Control_c, 1, 64, 95
1, 388168, Control_c, 0, 64, 95
1, 388186, Control_c, 0, 64, 127
1, 388186, Control_c, 1, 64, 127
1, 388235, Note_off_c, 0, 53, 29
1, 388255, Note_off_c, 0, 50, 35
1, 388259, Control_c, 0, 67, 95
1, 388259, Control_c, 1, 67, 95
1, 388388, Note_off_c, 0, 46, 53
1, 388389, Note_on_c, 0, 45, 51
1, 388394, Note_on_c, 0, 48, 53
1, 388467, Control_c, 0, 64, 103
1, 388467, Control_c, 1, 64, 103
1, 388486, Control_c, 1, 64, 75
1, 388486, Control_c, 0, 64, 75
1, 388504, Control_c, 0, 64, 63
1, 388504, Control_c, 1, 64, 63
1, 388512, Note_on_c, 0, 60, 64
1, 388531, Note_on_c, 0, 57, 56
1, 388541, Control_c, 0, 64, 68
1, 388541, Control_c, 1, 64, 68
1, 388546, Note_off_c, 0, 48, 60
1, 388560, Control_c, 0, 64, 73
1, 388560, Control_c, 1, 64, 73
1, 388575, Note_off_c, 0, 45, 62
1, 388579, Control_c, 0, 64, 84
1, 388579, Control_c, 1, 64, 84
1, 388599, Control_c, 1, 64, 111
1, 388599, Control_c, 0, 64, 111
1, 388602, Note_off_c, 0, 62, 59
1, 388617, Control_c, 0, 64, 127
1, 388617, Control_c, 1, 64, 127
1, 388690, Note_off_c, 0, 57, 60
1, 388709, Note_off_c, 0, 58, 38
1, 388791, Note_on_c, 0, 29, 38
1, 388797, Note_on_c, 0, 41, 30
1, 388823, Note_on_c, 0, 31, 38
1, 388873, Note_off_c, 0, 31, 43
1, 388942, Note_on_c, 0, 59, 72
1, 388972, Note_on_c, 0, 53, 31
1, 388972, Note_on_c, 0, 56, 48
1, 388978, Note_off_c, 0, 41, 52
1, 389081, Note_off_c, 0, 60, 36
1, 389093, Note_off_c, 0, 53, 33
1, 389152, Note_off_c, 0, 29, 51
1, 389156, Note_on_c, 0, 28, 64
1, 389174, Note_on_c, 0, 40, 50
1, 389341, Note_on_c, 0, 60, 72
1, 389365, Control_c, 0, 64, 122
1, 389365, Control_c, 1, 64, 122
1, 389376, Note_on_c, 0, 57, 56
1, 389381, Note_off_c, 0, 59, 59
1, 389384, Control_c, 0, 64, 78
1, 389384, Control_c, 1, 64, 78
1, 389390, Note_on_c, 0, 52, 37
1, 389402, Control_c, 0, 64, 60
1, 389402, Control_c, 1, 64, 60
1, 389441, Control_c, 1, 64, 65
1, 389441, Control_c, 0, 64, 65
1, 389456, Note_off_c, 0, 40, 50
1, 389458, Control_c, 0, 64, 73
1, 389458, Control_c, 1, 64, 73
1, 389477, Control_c, 1, 64, 90
1, 389477, Control_c, 0, 64, 90
1, 389497, Control_c, 0, 64, 127
1, 389497, Control_c, 1, 64, 127
1, 389572, Control_c, 1, 67, 99
1, 389572, Control_c, 0, 67, 99
1, 389592, Note_off_c, 0, 28, 61
1, 389592, Note_on_c, 0, 26, 63
1, 389606, Note_on_c, 0, 38, 51
1, 389608, Note_off_c, 0, 56, 19
1, 389614, Note_off_c, 0, 52, 38
1, 389680, Note_off_c, 0, 60, 55
1, 389812, Note_on_c, 0, 59, 58
1, 389817, Note_on_c, 0, 62, 70
1, 389834, Control_c, 0, 64, 82
1, 389834, Control_c, 1, 64, 82
1, 389853, Control_c, 1, 64, 58
1, 389853, Control_c, 0, 64, 58
1, 389860, Note_off_c, 0, 38, 50
1, 389868, Note_on_c, 0, 50, 29
1, 389871, Control_c, 0, 64, 44
1, 389871, Control_c, 1, 64, 44
1, 389926, Control_c, 1, 64, 55
1, 389926, Control_c, 0, 64, 55
1, 389946, Control_c, 0, 64, 71
1, 389946, Control_c, 1, 64, 71
1, 389964, Control_c, 1, 64, 95
1, 389964, Control_c, 0, 64, 95
1, 389984, Control_c, 0, 64, 127
1, 389984, Control_c, 1, 64, 127
1, 390056, Note_off_c, 0, 50, 36
1, 390119, Note_on_c, 0, 28, 60
1, 390121, Note_off_c, 0, 26, 57
1, 390127, Note_on_c, 0, 40, 42
1, 390288, Note_on_c, 0, 52, 65
1, 390320, Control_c, 0, 67, 103
1, 390320, Control_c, 1, 67, 103
1, 390355, Note_off_c, 0, 40, 45
1, 390376, Control_c, 0, 64, 81
1, 390376, Control_c, 1, 64, 81
1, 390395, Control_c, 1, 64, 68
1, 390395, Control_c, 0, 64, 68
1, 390432, Control_c, 0, 64, 76
1, 390432, Control_c, 1, 64, 76
1, 390453, Control_c, 1, 64, 91
1, 390453, Control_c, 0, 64, 91
1, 390469, Control_c, 0, 64, 127
1, 390469, Control_c, 1, 64, 127
1, 390508, Control_c, 1, 67, 107
1, 390508, Control_c, 0, 67, 107
1, 390608, Note_off_c, 0, 28, 61
1, 390609, Note_on_c, 0, 29, 57
1, 390622, Note_on_c, 0, 41, 41
1, 390639, Control_c, 0, 67, 111
1, 390639, Control_c, 1, 67, 111
1, 390641, Note_off_c, 0, 62, 33
1, 390676, Control_c, 0, 67, 116
1, 390676, Control_c, 1, 67, 116
1, 390781, Note_on_c, 0, 60, 66
1, 390787, Control_c, 0, 64, 102
1, 390787, Control_c, 1, 64, 102
1, 390793, Note_off_c, 0, 41, 37
1, 390806, Control_c, 0, 64, 78
1, 390806, Control_c, 1, 64, 78
1, 390809, Note_off_c, 0, 52, 54
1, 390823, Note_on_c, 0, 53, 42
1, 390824, Control_c, 0, 64, 64
1, 390824, Control_c, 1, 64, 64
1, 390845, Control_c, 1, 64, 56
1, 390845, Control_c, 0, 64, 56
1, 390862, Control_c, 0, 64, 52
1, 390862, Control_c, 1, 64, 52
1, 390882, Control_c, 1, 64, 47
1, 390882, Control_c, 0, 64, 47
1, 390900, Control_c, 0, 64, 42
1, 390900, Control_c, 1, 64, 42
1, 390920, Control_c, 1, 64, 35
1, 390920, Control_c, 0, 64, 35
1, 390935, Note_off_c, 0, 59, 27
1, 390936, Control_c, 0, 64, 31
1, 390936, Control_c, 1, 64, 31
1, 390994, Control_c, 1, 64, 27
1, 390994, Control_c, 0, 64, 27
1, 391118, Note_off_c, 0, 29, 55
1, 391118, Note_on_c, 0, 28, 52
1, 391123, Control_c, 0, 64, 36
1, 391123, Control_c, 1, 64, 36
1, 391144, Control_c, 1, 64, 44
1, 391144, Control_c, 0, 64, 44
1, 391151, Note_on_c, 0, 40, 23
1, 391162, Control_c, 0, 64, 57
1, 391162, Control_c, 1, 64, 57
1, 391183, Control_c, 1, 64, 67
1, 391183, Control_c, 0, 64, 67
1, 391199, Control_c, 0, 64, 73
1, 391199, Control_c, 1, 64, 73
1, 391202, Control_c, 1, 67, 122
1, 391202, Control_c, 0, 67, 122
1, 391219, Control_c, 0, 64, 78
1, 391219, Control_c, 1, 64, 78
1, 391221, Control_c, 1, 67, 126
1, 391221, Control_c, 0, 67, 126
1, 391240, Control_c, 0, 64, 85
1, 391240, Control_c, 1, 64, 85
1, 391256, Control_c, 1, 64, 100
1, 391256, Control_c, 0, 64, 100
1, 391259, Note_off_c, 0, 28, 62
1, 391274, Control_c, 0, 64, 127
1, 391274, Control_c, 1, 64, 127
1, 391300, Note_off_c, 0, 40, 48
1, 391318, Note_off_c, 0, 53, 59
1, 391337, Note_on_c, 0, 52, 55
1, 391614, Note_off_c, 0, 60, 34
1, 391623, Note_off_c, 0, 57, 44
1, 391792, Note_on_c, 0, 45, 48
1, 391795, Note_on_c, 0, 48, 40
1, 391836, Control_c, 0, 64, 111
1, 391836, Control_c, 1, 64, 111
1, 391855, Control_c, 1, 64, 77
1, 391855, Control_c, 0, 64, 77
1, 391873, Control_c, 0, 64, 57
1, 391873, Control_c, 1, 64, 57
1, 391893, Control_c, 1, 64, 52
1, 391893, Control_c, 0, 64, 52
1, 391911, Control_c, 0, 64, 54
1, 391911, Control_c, 1, 64, 54
1, 391926, Note_on_c, 0, 57, 36
1, 391928, Control_c, 0, 64, 59
1, 391928, Control_c, 1, 64, 59
1, 391930, Note_on_c, 0, 60, 58
1, 391948, Control_c, 0, 64, 64
1, 391948, Control_c, 1, 64, 64
1, 391967, Control_c, 1, 64, 71
1, 391967, Control_c, 0, 64, 71
1, 391986, Control_c, 0, 64, 80
1, 391986, Control_c, 1, 64, 80
1, 392004, Control_c, 1, 64, 102
1, 392004, Control_c, 0, 64, 102
1, 392023, Control_c, 0, 64, 127
1, 392023, Control_c, 1, 64, 127
1, 392030, Note_off_c, 0, 48, 41
1, 392196, Note_off_c, 0, 45, 59
1, 392206, Note_on_c, 0, 44, 60
1, 392242, Note_on_c, 0, 47, 45
1, 392266, Control_c, 0, 64, 101
1, 392266, Control_c, 1, 64, 101
1, 392287, Control_c, 1, 64, 75
1, 392287, Control_c, 0, 64, 75
1, 392304, Control_c, 0, 64, 61
1, 392304, Control_c, 1, 64, 61
1, 392341, Control_c, 1, 64, 64
1, 392341, Control_c, 0, 64, 64
1, 392346, Note_on_c, 0, 59, 68
1, 392355, Note_off_c, 0, 47, 60
1, 392359, Control_c, 0, 64, 70
1, 392359, Control_c, 1, 64, 70
1, 392379, Control_c, 1, 64, 81
1, 392379, Control_c, 0, 64, 81
1, 392398, Note_on_c, 0, 56, 32
1, 392398, Control_c, 0, 64, 104
1, 392398, Control_c, 1, 64, 104
1, 392404, Note_off_c, 0, 44, 63
1, 392416, Control_c, 0, 64, 127
1, 392416, Control_c, 1, 64, 127
1, 392484, Note_off_c, 0, 60, 51
1, 392522, Note_off_c, 0, 52, 35
1, 392599, Note_off_c, 0, 57, 36
1, 392623, Control_c, 0, 64, 93
1, 392623, Control_c, 1, 64, 93
1, 392631, Note_on_c, 0, 40, 49
1, 392632, Note_on_c, 0, 28, 48
1, 392641, Control_c, 0, 64, 65
1, 392641, Control_c, 1, 64, 65
1, 392659, Control_c, 1, 64, 51
1, 392659, Control_c, 0, 64, 51
1, 392698, Control_c, 0, 64, 59
1, 392698, Control_c, 1, 64, 59
1, 392716, Control_c, 1, 64, 67
1, 392716, Control_c, 0, 64, 67
1, 392734, Control_c, 0, 64, 78
1, 392734, Control_c, 1, 64, 78
1, 392753, Control_c, 1, 64, 95
1, 392753, Control_c, 0, 64, 95
1, 392774, Control_c, 0, 64, 127
1, 392774, Control_c, 1, 64, 127
1, 392775, Note_on_c, 0, 52, 62
1, 392793, Note_off_c, 0, 40, 61
1, 392807, Note_off_c, 0, 56, 52
1, 392995, Note_on_c, 0, 27, 64
1, 392997, Note_off_c, 0, 28, 59
1, 393018, Note_on_c, 0, 39, 48
1, 393034, Control_c, 0, 64, 86
1, 393034, Control_c, 1, 64, 86
1, 393053, Control_c, 1, 64, 65
1, 393053, Control_c, 0, 64, 65
1, 393072, Control_c, 0, 64, 57
1, 393072, Control_c, 1, 64, 57
1, 393109, Control_c, 1, 64, 64
1, 393109, Control_c, 0, 64, 64
1, 393120, Note_off_c, 0, 27, 63
1, 393128, Control_c, 0, 64, 73
1, 393128, Control_c, 1, 64, 73
1, 393147, Control_c, 1, 64, 92
1, 393147, Control_c, 0, 64, 92
1, 393165, Control_c, 0, 64, 127
1, 393165, Control_c, 1, 64, 127
1, 393172, Note_off_c, 0, 39, 61
1, 393213, Note_on_c, 0, 51, 54
1, 393269, Note_off_c, 0, 51, 62
1, 393294, Note_off_c, 0, 59, 61
1, 393520, Note_on_c, 0, 47, 45
1, 393527, Note_on_c, 0, 50, 50
1, 393670, Control_c, 0, 64, 103
1, 393670, Control_c, 1, 64, 103
1, 393689, Control_c, 1, 64, 70
1, 393689, Control_c, 0, 64, 70
1, 393708, Control_c, 0, 64, 47
1, 393708, Control_c, 1, 64, 47
1, 393727, Control_c, 1, 64, 34
1, 393727, Control_c, 0, 64, 34
1, 393731, Note_on_c, 0, 62, 73
1, 393745, Control_c, 0, 64, 29
1, 393745, Control_c, 1, 64, 29
1, 393750, Note_on_c, 0, 59, 52
1, 393858, Control_c, 0, 64, 45
1, 393858, Control_c, 1, 64, 45
1, 393866, Note_off_c, 0, 52, 37
1, 393876, Control_c, 0, 64, 65
1, 393876, Control_c, 1, 64, 65
1, 393882, Note_off_c, 0, 50, 60
1, 393895, Control_c, 0, 64, 86
1, 393895, Control_c, 1, 64, 86
1, 393914, Control_c, 1, 64, 127
1, 393914, Control_c, 0, 64, 127
1, 394083, Note_off_c, 0, 47, 53
1, 394097, Note_on_c, 0, 48, 48
1, 394106, Note_on_c, 0, 45, 53
1, 394194, Control_c, 0, 64, 87
1, 394194, Control_c, 1, 64, 87
1, 394213, Control_c, 1, 64, 62
1, 394213, Control_c, 0, 64, 62
1, 394232, Control_c, 0, 64, 48
1, 394232, Control_c, 1, 64, 48
1, 394271, Note_on_c, 0, 60, 63
1, 394288, Control_c, 0, 64, 53
1, 394288, Control_c, 1, 64, 53
1, 394305, Note_on_c, 0, 57, 42
1, 394308, Control_c, 0, 64, 61
1, 394308, Control_c, 1, 64, 61
1, 394315, Note_off_c, 0, 48, 60
1, 394316, Note_off_c, 0, 59, 60
1, 394325, Note_off_c, 0, 62, 61
1, 394325, Control_c, 0, 64, 66
1, 394325, Control_c, 1, 64, 66
1, 394338, Note_off_c, 0, 45, 62
1, 394344, Control_c, 0, 64, 72
1, 394344, Control_c, 1, 64, 72
1, 394363, Control_c, 1, 64, 77
1, 394363, Control_c, 0, 64, 77
1, 394382, Control_c, 0, 64, 85
1, 394382, Control_c, 1, 64, 85
1, 394402, Control_c, 1, 64, 97
1, 394402, Control_c, 0, 64, 97
1, 394419, Control_c, 0, 64, 127
1, 394419, Control_c, 1, 64, 127
1, 394583, Note_on_c, 0, 29, 38
1, 394588, Note_on_c, 0, 41, 34
1, 394644, Control_c, 0, 64, 85
1, 394644, Control_c, 1, 64, 85
1, 394664, Control_c, 1, 64, 61
1, 394664, Control_c, 0, 64, 61
1, 394681, Control_c, 0, 64, 48
1, 394681, Control_c, 1, 64, 48
1, 394697, Note_off_c, 0, 41, 34
1, 394719, Control_c, 0, 64, 54
1, 394719, Control_c, 1, 64, 54
1, 394737, Control_c, 1, 64, 65
1, 394737, Control_c, 0, 64, 65
1, 394747, Note_on_c, 0, 53, 50
1, 394755, Control_c, 0, 64, 81
1, 394755, Control_c, 1, 64, 81
1, 394775, Control_c, 1, 64, 127
1, 394775, Control_c, 0, 64, 127
1, 395000, Control_c, 0, 64, 82
1, 395000, Control_c, 1, 64, 82
1, 395022, Control_c, 1, 64, 59
1, 395022, Note_on_c, 0, 28, 50
1, 395022, Control_c, 0, 64, 59
1, 395033, Note_on_c, 0, 40, 28
1, 395034, Note_off_c, 0, 29, 35
1, 395037, Control_c, 0, 64, 50
1, 395037, Control_c, 1, 64, 50
1, 395074, Control_c, 1, 64, 58
1, 395074, Control_c, 0, 64, 58
1, 395093, Control_c, 0, 64, 68
1, 395093, Control_c, 1, 64, 68
1, 395113, Control_c, 1, 64, 83
1, 395113, Control_c, 0, 64, 83
1, 395131, Control_c, 0, 64, 127
1, 395131, Control_c, 1, 64, 127
1, 395138, Note_off_c, 0, 28, 60
1, 395166, Note_off_c, 0, 53, 54
1, 395208, Note_off_c, 0, 40, 23
1, 395211, Note_on_c, 0, 52, 42
1, 395281, Note_off_c, 0, 60, 56
1, 395316, Note_off_c, 0, 57, 56
1, 395512, Note_on_c, 0, 48, 41
1, 395514, Note_on_c, 0, 45, 45
1, 395598, Control_c, 0, 64, 83
1, 395598, Control_c, 1, 64, 83
1, 395617, Control_c, 1, 64, 54
1, 395617, Control_c, 0, 64, 54
1, 395636, Control_c, 0, 64, 31
1, 395636, Control_c, 1, 64, 31
1, 395654, Control_c, 1, 64, 24
1, 395654, Control_c, 0, 64, 24
1, 395657, Note_on_c, 0, 60, 53
1, 395675, Note_on_c, 0, 57, 34
1, 395711, Control_c, 0, 64, 28
1, 395711, Control_c, 1, 64, 28
1, 395730, Control_c, 1, 64, 40
1, 395730, Control_c, 0, 64, 40
1, 395748, Control_c, 0, 64, 58
1, 395748, Control_c, 1, 64, 58
1, 395767, Control_c, 1, 64, 79
1, 395767, Control_c, 0, 64, 79
1, 395786, Control_c, 0, 64, 112
1, 395786, Control_c, 1, 64, 112
1, 395805, Control_c, 1, 64, 127
1, 395805, Control_c, 0, 64, 127
1, 395809, Note_off_c, 0, 48, 34
1, 395901, Note_off_c, 0, 52, 32
1, 395983, Note_off_c, 0, 45, 46
1, 396021, Note_on_c, 0, 44, 38
1, 396025, Note_on_c, 0, 47, 33
1, 396047, Control_c, 0, 64, 102
1, 396047, Control_c, 1, 64, 102
1, 396067, Control_c, 1, 64, 69
1, 396067, Control_c, 0, 64, 69
1, 396085, Control_c, 0, 64, 48
1, 396085, Control_c, 1, 64, 48
1, 396104, Control_c, 1, 64, 41
1, 396104, Control_c, 0, 64, 41
1, 396142, Control_c, 0, 64, 45
1, 396142, Control_c, 1, 64, 45
1, 396156, Note_on_c, 0, 59, 49
1, 396160, Control_c, 0, 64, 56
1, 396160, Control_c, 1, 64, 56
1, 396172, Note_on_c, 0, 56, 41
1, 396177, Control_c, 0, 64, 68
1, 396177, Control_c, 1, 64, 68
1, 396197, Note_off_c, 0, 47, 49
1, 396197, Control_c, 0, 64, 79
1, 396197, Control_c, 1, 64, 79
1, 396216, Control_c, 1, 64, 94
1, 396216, Control_c, 0, 64, 94
1, 396219, Note_off_c, 0, 60, 30
1, 396224, Note_off_c, 0, 57, 40
1, 396235, Control_c, 0, 64, 121
1, 396235, Control_c, 1, 64, 121
1, 396245, Note_off_c, 0, 44, 61
1, 396252, Control_c, 0, 64, 127
1, 396252, Control_c, 1, 64, 127
1, 396534, Note_on_c, 0, 28, 22
1, 396546, Note_on_c, 0, 40, 30
1, 396571, Control_c, 0, 64, 111
1, 396571, Control_c, 1, 64, 111
1, 396592, Control_c, 1, 64, 81
1, 396592, Control_c, 0, 64, 81
1, 396609, Control_c, 0, 64, 61
1, 396609, Control_c, 1, 64, 61
1, 396628, Control_c, 1, 64, 43
1, 396628, Control_c, 0, 64, 43
1, 396647, Control_c, 0, 64, 31
1, 396647, Control_c, 1, 64, 31
1, 396740, Control_c, 1, 64, 42
1, 396740, Control_c, 0, 64, 42
1, 396758, Control_c, 0, 64, 59
1, 396758, Control_c, 1, 64, 59
1, 396761, Note_on_c, 0, 52, 35
1, 396768, Note_off_c, 0, 40, 36
1, 396778, Control_c, 0, 64, 75
1, 396778, Control_c, 1, 64, 75
1, 396798, Control_c, 1, 64, 91
1, 396798, Control_c, 0, 64, 91
1, 396815, Control_c, 0, 64, 112
1, 396815, Control_c, 1, 64, 112
1, 396834, Control_c, 1, 64, 127
1, 396834, Control_c, 0, 64, 127
1, 397098, Note_on_c, 0, 26, 39
1, 397106, Note_off_c, 0, 28, 37
1, 397124, Note_on_c, 0, 38, 31
1, 397133, Control_c, 0, 64, 88
1, 397133, Control_c, 1, 64, 88
1, 397152, Control_c, 1, 64, 65
1, 397152, Control_c, 0, 64, 65
1, 397170, Control_c, 0, 64, 49
1, 397170, Control_c, 1, 64, 49
1, 397191, Control_c, 1, 64, 38
1, 397191, Control_c, 0, 64, 38
1, 397209, Control_c, 0, 64, 34
1, 397209, Control_c, 1, 64, 34
1, 397283, Control_c, 1, 64, 42
1, 397283, Control_c, 0, 64, 42
1, 397302, Control_c, 0, 64, 55
1, 397302, Control_c, 1, 64, 55
1, 397313, Note_on_c, 0, 50, 41
1, 397318, Control_c, 0, 64, 68
1, 397318, Control_c, 1, 64, 68
1, 397326, Note_off_c, 0, 52, 52
1, 397341, Control_c, 0, 64, 76
1, 397341, Control_c, 1, 64, 76
1, 397358, Control_c, 1, 64, 83
1, 397358, Control_c, 0, 64, 83
1, 397375, Note_off_c, 0, 26, 53
1, 397378, Control_c, 0, 64, 91
1, 397378, Control_c, 1, 64, 91
1, 397396, Control_c, 1, 64, 106
1, 397396, Control_c, 0, 64, 106
1, 397414, Control_c, 0, 64, 127
1, 397414, Control_c, 1, 64, 127
1, 398050, Control_c, 1, 64, 110
1, 398050, Control_c, 0, 64, 110
1, 398063, Note_on_c, 0, 57, 41
1, 398069, Control_c, 0, 64, 87
1, 398069, Control_c, 1, 64, 87
1, 398072, Note_on_c, 0, 45, 36
1, 398077, Note_on_c, 0, 53, 27
1, 398088, Control_c, 0, 64, 73
1, 398088, Control_c, 1, 64, 73
1, 398107, Control_c, 1, 64, 64
1, 398107, Control_c, 0, 64, 64
1, 398126, Control_c, 0, 64, 61
1, 398126, Control_c, 1, 64, 61
1, 398144, Control_c, 1, 64, 60
1, 398144, Control_c, 0, 64, 60
1, 398203, Control_c, 0, 64, 57
1, 398203, Control_c, 1, 64, 57
1, 398238, Control_c, 1, 64, 53
1, 398238, Control_c, 0, 64, 53
1, 398252, Note_off_c, 0, 56, 38
1, 398256, Note_off_c, 0, 59, 38
1, 398257, Poly_aftertouch_c, 0, 59, 0
1, 398276, Control_c, 0, 64, 51
1, 398276, Control_c, 1, 64, 51
1, 398313, Control_c, 1, 64, 47
1, 398313, Control_c, 0, 64, 47
1, 398369, Control_c, 0, 64, 45
1, 398369, Control_c, 1, 64, 45
1, 398424, Control_c, 1, 64, 43
1, 398424, Control_c, 0, 64, 43
1, 398463, Control_c, 0, 64, 41
1, 398463, Control_c, 1, 64, 41
1, 398594, Control_c, 1, 64, 37
1, 398594, Control_c, 0, 64, 37
1, 398912, Control_c, 0, 64, 41
1, 398912, Control_c, 1, 64, 41
1, 398930, Control_c, 1, 64, 48
1, 398930, Control_c, 0, 64, 48
1, 398949, Control_c, 0, 64, 60
1, 398949, Control_c, 1, 64, 60
1, 398969, Control_c, 1, 64, 72
1, 398969, Control_c, 0, 64, 72
1, 398986, Control_c, 0, 64, 81
1, 398986, Control_c, 1, 64, 81
1, 399006, Control_c, 1, 64, 93
1, 399006, Control_c, 0, 64, 93
1, 399023, Control_c, 0, 64, 110
1, 399023, Control_c, 1, 64, 110
1, 399043, Control_c, 1, 64, 127
1, 399043, Control_c, 0, 64, 127
1, 399979, Control_c, 0, 64, 122
1, 399979, Control_c, 1, 64, 122
1, 399998, Control_c, 1, 64, 102
1, 399998, Control_c, 0, 64, 102
1, 400016, Control_c, 0, 64, 88
1, 400016, Control_c, 1, 64, 88
1, 400035, Control_c, 1, 64, 76
1, 400035, Control_c, 0, 64, 76
1, 400054, Control_c, 0, 64, 67
1, 400054, Control_c, 1, 64, 67
1, 400073, Control_c, 1, 64, 62
1, 400073, Note_on_c, 0, 33, 14
1, 400073, Control_c, 0, 64, 62
1, 400088, Note_on_c, 0, 49, 21
1, 400090, Note_on_c, 0, 52, 19
1, 400091, Control_c, 0, 64, 60
1, 400091, Control_c, 1, 64, 60
1, 400129, Control_c, 1, 64, 58
1, 400129, Control_c, 0, 64, 58
1, 400166, Control_c, 0, 64, 53
1, 400166, Control_c, 1, 64, 53
1, 400184, Control_c, 1, 64, 50
1, 400184, Control_c, 0, 64, 50
1, 400204, Control_c, 0, 64, 48
1, 400204, Control_c, 1, 64, 48
1, 400260, Control_c, 1, 64, 46
1, 400260, Control_c, 0, 64, 46
1, 400265, Note_off_c, 0, 38, 52
1, 400287, Note_off_c, 0, 50, 52
1, 400306, Note_off_c, 0, 53, 50
1, 400315, Control_c, 0, 64, 44
1, 400315, Control_c, 1, 64, 44
1, 400353, Control_c, 1, 64, 41
1, 400353, Control_c, 0, 64, 41
1, 400392, Control_c, 0, 64, 37
1, 400392, Control_c, 1, 64, 37
1, 400409, Control_c, 1, 64, 32
1, 400409, Control_c, 0, 64, 32
1, 400427, Control_c, 0, 64, 27
1, 400427, Control_c, 1, 64, 27
1, 400447, Control_c, 1, 64, 23
1, 400447, Control_c, 0, 64, 23
1, 400484, Control_c, 0, 64, 19
1, 400484, Control_c, 1, 64, 19
1, 400915, Control_c, 1, 64, 24
1, 400915, Control_c, 0, 64, 24
1, 400933, Control_c, 0, 64, 28
1, 400933, Control_c, 1, 64, 28
1, 400953, Control_c, 1, 64, 33
1, 400953, Control_c, 0, 64, 33
1, 400970, Control_c, 0, 64, 39
1, 400970, Control_c, 1, 64, 39
1, 400989, Control_c, 1, 64, 46
1, 400989, Control_c, 0, 64, 46
1, 401009, Control_c, 0, 64, 55
1, 401009, Control_c, 1, 64, 55
1, 401027, Control_c, 1, 64, 59
1, 401027, Control_c, 0, 64, 59
1, 401083, Control_c, 0, 64, 55
1, 401083, Control_c, 1, 64, 55
1, 401102, Control_c, 1, 64, 51
1, 401102, Control_c, 0, 64, 51
1, 401120, Control_c, 0, 64, 46
1, 401120, Control_c, 1, 64, 46
1, 401139, Control_c, 1, 64, 41
1, 401139, Control_c, 0, 64, 41
1, 401177, Control_c, 0, 64, 37
1, 401177, Control_c, 1, 64, 37
1, 401251, Control_c, 1, 64, 33
1, 401251, Control_c, 0, 64, 33
1, 401421, Control_c, 0, 64, 37
1, 401421, Control_c, 1, 64, 37
1, 401457, Control_c, 1, 64, 40
1, 401457, Control_c, 0, 64, 40
1, 401532, Control_c, 0, 64, 43
1, 401532, Control_c, 1, 64, 43
1, 401552, Control_c, 1, 64, 47
1, 401552, Control_c, 0, 64, 47
1, 401608, Control_c, 0, 64, 49
1, 401608, Control_c, 1, 64, 49
1, 401626, Control_c, 1, 64, 51
1, 401626, Control_c, 0, 64, 51
1, 401644, Control_c, 0, 64, 56
1, 401644, Control_c, 1, 64, 56
1, 401663, Control_c, 1, 64, 62
1, 401663, Control_c, 0, 64, 62
1, 401682, Control_c, 0, 64, 68
1, 401682, Control_c, 1, 64, 68
1, 401701, Control_c, 1, 64, 73
1, 401701, Control_c, 0, 64, 73
1, 401720, Control_c, 0, 64, 77
1, 401720, Control_c, 1, 64, 77
1, 401739, Control_c, 1, 64, 82
1, 401739, Control_c, 0, 64, 82
1, 401757, Control_c, 0, 64, 85
1, 401757, Control_c, 1, 64, 85
1, 401777, Control_c, 1, 64, 88
1, 401777, Control_c, 0, 64, 88
1, 401814, Control_c, 0, 64, 94
1, 401814, Control_c, 1, 64, 94
1, 401851, Control_c, 1, 64, 99
1, 401851, Control_c, 0, 64, 99
1, 401869, Control_c, 0, 64, 103
1, 401869, Control_c, 1, 64, 103
1, 401890, Control_c, 1, 64, 109
1, 401890, Control_c, 0, 64, 109
1, 401906, Control_c, 0, 64, 127
1, 401906, Control_c, 1, 64, 127
1, 402977, Note_off_c, 0, 33, 41
1, 403004, Note_off_c, 0, 57, 55
1, 403004, Note_off_c, 0, 49, 41
1, 403012, Note_off_c, 0, 52, 43
1, 403066, Note_off_c, 0, 45, 41
1, 404865, Note_on_c, 0, 69, 62
1, 404889, Note_on_c, 0, 93, 48
1, 404930, Note_on_c, 0, 57, 34
1, 405013, Poly_aftertouch_c, 0, 85, 127
1, 405342, Note_on_c, 0, 81, 33
1, 405364, Poly_aftertouch_c, 0, 85, 24
1, 405366, Note_on_c, 0, 61, 33
1, 405368, Note_off_c, 0, 57, 38
1, 405400, Poly_aftertouch_c, 0, 85, 0
1, 405696, Note_on_c, 0, 85, 37
1, 405708, Note_on_c, 0, 57, 36
1, 405737, Note_off_c, 0, 61, 36
1, 405780, Note_off_c, 0, 81, 37
1, 405780, Note_off_c, 0, 69, 50
1, 406049, Note_off_c, 0, 57, 57
1, 406055, Note_on_c, 0, 92, 51
1, 406062, Note_on_c, 0, 68, 48
1, 406096, Note_on_c, 0, 61, 40
1, 406103, Note_off_c, 0, 93, 57
1, 406106, Note_off_c, 0, 85, 43
1, 406177, Poly_aftertouch_c, 0, 81, 127
1, 406251, Note_off_c, 0, 68, 53
1, 406430, Note_off_c, 0, 61, 54
1, 406454, Control_c, 0, 64, 99
1, 406454, Control_c, 1, 64, 99
1, 406467, Note_on_c, 0, 90, 51
1, 406472, Note_on_c, 0, 66, 47
1, 406475, Note_on_c, 0, 57, 40
1, 406475, Control_c, 0, 64, 89
1, 406475, Control_c, 1, 64, 89
1, 406492, Poly_aftertouch_c, 0, 81, 0
1, 406494, Control_c, 0, 64, 94
1, 406494, Control_c, 1, 64, 94
1, 406511, Control_c, 1, 64, 112
1, 406511, Control_c, 0, 64, 112
1, 406513, Note_on_c, 0, 85, 21
1, 406530, Control_c, 0, 64, 127
1, 406530, Control_c, 1, 64, 127
1, 406542, Note_off_c, 0, 92, 60
1, 406621, Note_off_c, 0, 66, 62
1, 406621, Poly_aftertouch_c, 0, 66, 0
1, 406775, Poly_aftertouch_c, 0, 85, 24
1, 406779, Note_on_c, 0, 68, 49
1, 406780, Note_off_c, 0, 57, 50
1, 406786, Note_on_c, 0, 92, 47
1, 406790, Note_on_c, 0, 61, 44
1, 406805, Note_on_c, 0, 81, 21
1, 406811, Note_off_c, 0, 85, 42
1, 406811, Poly_aftertouch_c, 0, 85, 0
1, 406854, Note_off_c, 0, 90, 48
1, 406906, Note_off_c, 0, 68, 54
1, 407074, Note_off_c, 0, 61, 53
1, 407087, Poly_aftertouch_c, 0, 81, 24
1, 407114, Note_on_c, 0, 90, 52
1, 407118, Note_on_c, 0, 66, 51
1, 407128, Note_on_c, 0, 57, 40
1, 407134, Note_off_c, 0, 81, 40
1, 407134, Poly_aftertouch_c, 0, 81, 0
1, 407162, Note_on_c, 0, 85, 24
1, 407411, Note_off_c, 0, 57, 55
1, 407432, Note_off_c, 0, 92, 55
1, 407443, Note_on_c, 0, 81, 37
1, 407449, Note_on_c, 0, 61, 38
1, 407451, Poly_aftertouch_c, 0, 85, 24
1, 407472, Note_off_c, 0, 85, 46
1, 407472, Poly_aftertouch_c, 0, 85, 0
1, 407476, Note_off_c, 0, 90, 43
1, 407504, Note_off_c, 0, 66, 37
1, 407504, Poly_aftertouch_c, 0, 66, 0
1, 407754, Poly_aftertouch_c, 0, 81, 24
1, 407784, Control_c, 0, 64, 99
1, 407784, Control_c, 1, 64, 99
1, 407795, Note_off_c, 0, 81, 39
1, 407795, Poly_aftertouch_c, 0, 81, 0
1, 407799, Note_off_c, 0, 61, 40
1, 407799, Note_on_c, 0, 88, 47
1, 407801, Control_c, 0, 64, 67
1, 407801, Control_c, 1, 64, 67
1, 407813, Note_on_c, 0, 56, 36
1, 407813, Note_on_c, 0, 64, 47
1, 407820, Control_c, 0, 64, 46
1, 407820, Control_c, 1, 64, 46
1, 407841, Control_c, 1, 64, 42
1, 407841, Control_c, 0, 64, 42
1, 407857, Control_c, 0, 64, 47
1, 407857, Control_c, 1, 64, 47
1, 407879, Control_c, 1, 64, 63
1, 407879, Control_c, 0, 64, 63
1, 407897, Control_c, 0, 64, 91
1, 407897, Control_c, 1, 64, 91
1, 407907, Poly_aftertouch_c, 0, 83, 127
1, 407915, Control_c, 0, 64, 127
1, 407915, Control_c, 1, 64, 127
1, 408120, Poly_aftertouch_c, 0, 83, 24
1, 408154, Note_off_c, 0, 56, 38
1, 408158, Poly_aftertouch_c, 0, 83, 0
1, 408172, Note_on_c, 0, 80, 31
1, 408174, Note_on_c, 0, 59, 36
1, 408508, Note_on_c, 0, 54, 40
1, 408511, Note_on_c, 0, 81, 39
1, 408511, Poly_aftertouch_c, 0, 59, 24
1, 408576, Note_off_c, 0, 59, 34
1, 408576, Poly_aftertouch_c, 0, 59, 0
1, 408598, Note_off_c, 0, 64, 47
1, 408636, Note_off_c, 0, 80, 40
1, 408852, Poly_aftertouch_c, 0, 81, 24
1, 408880, Note_on_c, 0, 63, 40
1, 408887, Note_on_c, 0, 87, 45
1, 408897, Note_on_c, 0, 78, 34
1, 408901, Note_on_c, 0, 57, 37
1, 408909, Note_off_c, 0, 54, 36
1, 408926, Note_off_c, 0, 81, 32
1, 408926, Poly_aftertouch_c, 0, 81, 0
1, 408927, Note_off_c, 0, 88, 41
1, 409056, Note_off_c, 0, 63, 58
1, 409281, Control_c, 0, 64, 87
1, 409281, Control_c, 1, 64, 87
1, 409290, Note_off_c, 0, 57, 44
1, 409297, Note_on_c, 0, 88, 42
1, 409300, Control_c, 0, 64, 63
1, 409300, Control_c, 1, 64, 63
1, 409310, Note_off_c, 0, 78, 48
1, 409310, Note_on_c, 0, 64, 38
1, 409319, Control_c, 0, 64, 53
1, 409319, Control_c, 1, 64, 53
1, 409326, Note_on_c, 0, 52, 29
1, 409352, Note_on_c, 0, 80, 16
1, 409355, Control_c, 0, 64, 61
1, 409355, Control_c, 1, 64, 61
1, 409371, Note_off_c, 0, 87, 29
1, 409375, Control_c, 0, 64, 70
1, 409375, Control_c, 1, 64, 70
1, 409393, Control_c, 1, 64, 85
1, 409393, Control_c, 0, 64, 85
1, 409413, Control_c, 0, 64, 127
1, 409413, Control_c, 1, 64, 127
1, 409656, Note_on_c, 0, 83, 47
1, 409659, Note_off_c, 0, 64, 48
1, 409665, Note_on_c, 0, 56, 44
1, 409668, Note_on_c, 0, 59, 40
1, 409684, Note_off_c, 0, 80, 46
1, 409714, Note_off_c, 0, 52, 37
1, 409720, Note_off_c, 0, 88, 35
1, 409975, Control_c, 0, 64, 97
1, 409975, Control_c, 1, 64, 97
1, 409992, Control_c, 1, 64, 71
1, 409992, Control_c, 0, 64, 71
1, 410012, Note_off_c, 0, 56, 36
1, 410012, Note_on_c, 0, 85, 48
1, 410012, Control_c, 0, 64, 59
1, 410012, Control_c, 1, 64, 59
1, 410029, Note_off_c, 0, 59, 46
1, 410029, Poly_aftertouch_c, 0, 59, 0
1, 410035, Note_on_c, 0, 61, 45
1, 410039, Note_on_c, 0, 52, 32
1, 410050, Control_c, 0, 64, 62
1, 410050, Control_c, 1, 64, 62
1, 410052, Note_off_c, 0, 83, 37
1, 410062, Note_on_c, 0, 80, 24
1, 410067, Control_c, 0, 64, 69
1, 410067, Control_c, 1, 64, 69
1, 410088, Control_c, 1, 64, 80
1, 410088, Control_c, 0, 64, 80
1, 410106, Control_c, 0, 64, 101
1, 410106, Control_c, 1, 64, 101
1, 410124, Control_c, 1, 64, 127
1, 410124, Control_c, 0, 64, 127
1, 410321, Note_off_c, 0, 61, 59
1, 410344, Note_off_c, 0, 52, 40
1, 410344, Note_on_c, 0, 86, 47
1, 410370, Note_on_c, 0, 56, 37
1, 410373, Note_on_c, 0, 62, 44
1, 410401, Note_off_c, 0, 80, 45
1, 410406, Note_off_c, 0, 85, 62
1, 410406, Poly_aftertouch_c, 0, 85, 0
1, 410431, Note_off_c, 0, 86, 63
1, 410445, Note_off_c, 0, 56, 58
1, 410467, Note_off_c, 0, 62, 60
1, 410892, Control_c, 0, 64, 101
1, 410892, Control_c, 1, 64, 101
1, 410903, Note_on_c, 0, 93, 45
1, 410904, Note_on_c, 0, 69, 61
1, 410911, Control_c, 0, 64, 72
1, 410911, Control_c, 1, 64, 72
1, 410925, Note_on_c, 0, 57, 38
1, 410929, Control_c, 0, 64, 54
1, 410929, Control_c, 1, 64, 54
1, 410948, Control_c, 1, 64, 50
1, 410948, Control_c, 0, 64, 50
1, 410953, Note_on_c, 0, 85, 27
1, 410986, Control_c, 0, 64, 57
1, 410986, Control_c, 1, 64, 57
1, 411003, Control_c, 1, 64, 65
1, 411003, Control_c, 0, 64, 65
1, 411023, Control_c, 0, 64, 73
1, 411023, Control_c, 1, 64, 73
1, 411041, Control_c, 1, 64, 81
1, 411041, Control_c, 0, 64, 81
1, 411060, Control_c, 0, 64, 91
1, 411060, Control_c, 1, 64, 91
1, 411079, Control_c, 1, 64, 103
1, 411079, Control_c, 0, 64, 103
1, 411097, Control_c, 0, 64, 127
1, 411097, Control_c, 1, 64, 127
1, 411289, Note_on_c, 0, 61, 37
1, 411297, Note_on_c, 0, 81, 12
1, 411316, Note_off_c, 0, 85, 43
1, 411316, Poly_aftertouch_c, 0, 85, 0
1, 411365, Note_off_c, 0, 57, 30
1, 411599, Note_on_c, 0, 57, 29
1, 411604, Poly_aftertouch_c, 0, 81, 24
1, 411609, Note_on_c, 0, 85, 33
1, 411649, Note_off_c, 0, 81, 40
1, 411649, Poly_aftertouch_c, 0, 81, 0
1, 411661, Note_off_c, 0, 61, 40
1, 411684, Note_off_c, 0, 69, 46
1, 411936, Note_on_c, 0, 92, 53
1, 411942, Note_on_c, 0, 68, 44
1, 411953, Note_on_c, 0, 61, 47
1, 411989, Note_off_c, 0, 85, 39
1, 411989, Poly_aftertouch_c, 0, 85, 0
1, 411991, Note_off_c, 0, 93, 61
1, 411994, Note_off_c, 0, 57, 40
1, 411996, Note_on_c, 0, 81, 31
1, 412122, Note_off_c, 0, 68, 53
1, 412303, Note_off_c, 0, 61, 51
1, 412314, Control_c, 0, 64, 98
1, 412314, Control_c, 1, 64, 98
1, 412330, Poly_aftertouch_c, 0, 81, 24
1, 412331, Note_on_c, 0, 57, 42
1, 412332, Control_c, 0, 64, 76
1, 412332, Control_c, 1, 64, 76
1, 412341, Note_on_c, 0, 66, 45
1, 412342, Note_on_c, 0, 90, 49
1, 412347, Note_off_c, 0, 81, 51
1, 412347, Poly_aftertouch_c, 0, 81, 0
1, 412352, Control_c, 0, 64, 70
1, 412352, Control_c, 1, 64, 70
1, 412361, Note_on_c, 0, 85, 35
1, 412371, Control_c, 0, 64, 74
1, 412371, Control_c, 1, 64, 74
1, 412389, Control_c, 1, 64, 82
1, 412389, Control_c, 0, 64, 82
1, 412408, Control_c, 0, 64, 106
1, 412408, Control_c, 1, 64, 106
1, 412411, Note_off_c, 0, 92, 56
1, 412426, Control_c, 0, 64, 127
1, 412426, Control_c, 1, 64, 127
1, 412489, Note_off_c, 0, 66, 62
1, 412489, Poly_aftertouch_c, 0, 66, 0
1, 412656, Note_on_c, 0, 68, 52
1, 412658, Note_off_c, 0, 57, 56
1, 412658, Note_on_c, 0, 92, 52
1, 412670, Note_on_c, 0, 61, 45
1, 412674, Note_on_c, 0, 81, 27
1, 412706, Note_off_c, 0, 85, 42
1, 412706, Poly_aftertouch_c, 0, 85, 0
1, 412724, Note_off_c, 0, 90, 46
1, 412787, Note_off_c, 0, 68, 55
1, 412944, Note_off_c, 0, 61, 54
1, 412952, Poly_aftertouch_c, 0, 81, 24
1, 412971, Control_c, 0, 64, 87
1, 412971, Control_c, 1, 64, 87
1, 412984, Note_on_c, 0, 57, 44
1, 412990, Control_c, 0, 64, 70
1, 412990, Control_c, 1, 64, 70
1, 412991, Note_on_c, 0, 66, 46
1, 412993, Note_off_c, 0, 81, 45
1, 412993, Poly_aftertouch_c, 0, 81, 0
1, 412995, Note_on_c, 0, 90, 38
1, 412998, Note_on_c, 0, 85, 35
1, 413026, Control_c, 0, 64, 73
1, 413026, Control_c, 1, 64, 73
1, 413044, Control_c, 1, 64, 81
1, 413044, Control_c, 0, 64, 81
1, 413063, Control_c, 0, 64, 98
1, 413063, Control_c, 1, 64, 98
1, 413081, Control_c, 1, 64, 127
1, 413081, Control_c, 0, 64, 127
1, 413243, Note_off_c, 0, 92, 52
1, 413326, Note_on_c, 0, 81, 34
1, 413345, Note_on_c, 0, 61, 35
1, 413349, Note_off_c, 0, 57, 36
1, 413356, Note_off_c, 0, 90, 58
1, 413366, Note_off_c, 0, 85, 39
1, 413366, Poly_aftertouch_c, 0, 85, 0
1, 413440, Note_off_c, 0, 66, 31
1, 413440, Poly_aftertouch_c, 0, 66, 0
1, 413588, Poly_aftertouch_c, 0, 81, 24
1, 413648, Note_off_c, 0, 81, 35
1, 413648, Poly_aftertouch_c, 0, 81, 0
1, 413649, Poly_aftertouch_c, 0, 81, 0
1, 413662, Control_c, 0, 64, 91
1, 413662, Control_c, 1, 64, 91
1, 413680, Control_c, 1, 64, 66
1, 413680, Control_c, 0, 64, 66
1, 413681, Note_on_c, 0, 88, 49
1, 413685, Note_off_c, 0, 61, 42
1, 413693, Note_on_c, 0, 56, 33
1, 413698, Control_c, 0, 64, 53
1, 413698, Control_c, 1, 64, 53
1, 413700, Note_on_c, 0, 64, 38
1, 413736, Control_c, 0, 64, 57
1, 413736, Control_c, 1, 64, 57
1, 413756, Control_c, 1, 64, 65
1, 413756, Control_c, 0, 64, 65
1, 413775, Control_c, 0, 64, 76
1, 413775, Control_c, 1, 64, 76
1, 413793, Control_c, 1, 64, 90
1, 413793, Control_c, 0, 64, 90
1, 413802, Poly_aftertouch_c, 0, 83, 127
1, 413811, Control_c, 0, 64, 118
1, 413811, Control_c, 1, 64, 118
1, 413830, Control_c, 1, 64, 127
1, 413830, Control_c, 0, 64, 127
1, 414022, Note_on_c, 0, 80, 36
1, 414040, Note_on_c, 0, 59, 40
1, 414040, Poly_aftertouch_c, 0, 83, 0
1, 414043, Note_off_c, 0, 56, 41
1, 414319, Control_c, 0, 64, 80
1, 414319, Control_c, 1, 64, 80
1, 414327, Poly_aftertouch_c, 0, 59, 24
1, 414336, Control_c, 0, 64, 59
1, 414336, Control_c, 1, 64, 59
1, 414346, Note_on_c, 0, 81, 43
1, 414354, Control_c, 0, 64, 56
1, 414354, Control_c, 1, 64, 56
1, 414360, Note_on_c, 0, 54, 34
1, 414366, Note_off_c, 0, 59, 40
1, 414366, Poly_aftertouch_c, 0, 59, 0
1, 414373, Control_c, 0, 64, 62
1, 414373, Control_c, 1, 64, 62
1, 414391, Control_c, 1, 64, 72
1, 414391, Control_c, 0, 64, 72
1, 414410, Control_c, 0, 64, 95
1, 414410, Control_c, 1, 64, 95
1, 414413, Note_off_c, 0, 64, 55
1, 414429, Control_c, 0, 64, 127
1, 414429, Control_c, 1, 64, 127
1, 414598, Note_off_c, 0, 80, 22
1, 414668, Note_on_c, 0, 63, 41
1, 414671, Note_on_c, 0, 87, 52
1, 414676, Note_off_c, 0, 54, 41
1, 414687, Note_on_c, 0, 57, 40
1, 414696, Note_on_c, 0, 78, 34
1, 414728, Note_off_c, 0, 81, 31
1, 414729, Note_off_c, 0, 88, 37
1, 414813, Note_off_c, 0, 63, 50
1, 415065, Control_c, 0, 64, 102
1, 415065, Control_c, 1, 64, 102
1, 415068, Note_on_c, 0, 88, 44
1, 415076, Note_off_c, 0, 57, 39
1, 415076, Note_on_c, 0, 64, 38
1, 415078, Note_on_c, 0, 52, 35
1, 415084, Control_c, 0, 64, 72
1, 415084, Control_c, 1, 64, 72
1, 415102, Note_off_c, 0, 78, 46
1, 415102, Control_c, 0, 64, 52
1, 415102, Control_c, 1, 64, 52
1, 415107, Note_on_c, 0, 80, 33
1, 415122, Control_c, 0, 64, 41
1, 415122, Control_c, 1, 64, 41
1, 415148, Note_off_c, 0, 87, 53
1, 415178, Control_c, 0, 64, 44
1, 415178, Control_c, 1, 64, 44
1, 415197, Control_c, 1, 64, 54
1, 415197, Control_c, 0, 64, 54
1, 415215, Control_c, 0, 64, 68
1, 415215, Control_c, 1, 64, 68
1, 415234, Control_c, 1, 64, 83
1, 415234, Control_c, 0, 64, 83
1, 415254, Control_c, 0, 64, 107
1, 415254, Control_c, 1, 64, 107
1, 415272, Control_c, 1, 64, 127
1, 415272, Control_c, 0, 64, 127
1, 415423, Note_on_c, 0, 83, 47
1, 415447, Note_on_c, 0, 56, 42
1, 415448, Note_off_c, 0, 64, 44
1, 415460, Note_on_c, 0, 59, 33
1, 415486, Note_off_c, 0, 80, 42
1, 415498, Note_off_c, 0, 88, 35
1, 415499, Note_on_c, 0, 76, 20
1, 415520, Note_off_c, 0, 52, 32
1, 415761, Poly_aftertouch_c, 0, 76, 24
1, 415778, Control_c, 0, 64, 118
1, 415778, Control_c, 1, 64, 118
1, 415795, Control_c, 1, 64, 78
1, 415795, Control_c, 0, 64, 78
1, 415797, Note_off_c, 0, 56, 32
1, 415802, Note_on_c, 0, 85, 47
1, 415810, Note_off_c, 0, 59, 42
1, 415810, Note_on_c, 0, 52, 30
1, 415810, Poly_aftertouch_c, 0, 59, 0
1, 415813, Note_off_c, 0, 76, 40
1, 415813, Poly_aftertouch_c, 0, 76, 0
1, 415814, Control_c, 0, 64, 57
1, 415814, Control_c, 1, 64, 57
1, 415817, Note_on_c, 0, 61, 41
1, 415819, Note_off_c, 0, 83, 38
1, 415833, Control_c, 0, 64, 47
1, 415833, Control_c, 1, 64, 47
1, 415853, Note_on_c, 0, 80, 16
1, 415871, Control_c, 0, 64, 50
1, 415871, Control_c, 1, 64, 50
1, 415889, Control_c, 1, 64, 61
1, 415889, Control_c, 0, 64, 61
1, 415909, Control_c, 0, 64, 74
1, 415909, Control_c, 1, 64, 74
1, 415927, Control_c, 1, 64, 93
1, 415927, Control_c, 0, 64, 93
1, 415945, Control_c, 0, 64, 127
1, 415945, Control_c, 1, 64, 127
1, 416082, Note_off_c, 0, 61, 53
1, 416130, Note_off_c, 0, 52, 36
1, 416159, Note_on_c, 0, 86, 47
1, 416175, Note_on_c, 0, 62, 48
1, 416177, Note_on_c, 0, 56, 33
1, 416209, Note_off_c, 0, 80, 44
1, 416216, Note_off_c, 0, 85, 58
1, 416216, Poly_aftertouch_c, 0, 85, 0
1, 416237, Note_off_c, 0, 86, 60
1, 416245, Note_off_c, 0, 56, 60
1, 416257, Note_off_c, 0, 62, 51
1, 416764, Note_on_c, 0, 93, 78
1, 416769, Control_c, 0, 64, 89
1, 416769, Control_c, 1, 64, 89
1, 416788, Control_c, 1, 64, 60
1, 416788, Control_c, 0, 64, 60
1, 416807, Control_c, 0, 64, 41
1, 416807, Control_c, 1, 64, 41
1, 416814, Note_on_c, 0, 85, 39
1, 416821, Note_on_c, 0, 57, 32
1, 416825, Note_on_c, 0, 69, 36
1, 416825, Control_c, 0, 64, 34
1, 416825, Control_c, 1, 64, 34
1, 416881, Control_c, 1, 64, 47
1, 416881, Control_c, 0, 64, 47
1, 416900, Control_c, 0, 64, 62
1, 416900, Control_c, 1, 64, 62
1, 416918, Control_c, 1, 64, 77
1, 416918, Control_c, 0, 64, 77
1, 416938, Control_c, 0, 64, 98
1, 416938, Control_c, 1, 64, 98
1, 416956, Control_c, 1, 64, 127
1, 416956, Control_c, 0, 64, 127
1, 417151, Note_on_c, 0, 81, 41
1, 417156, Note_off_c, 0, 85, 52
1, 417156, Poly_aftertouch_c, 0, 85, 0
1, 417174, Note_on_c, 0, 61, 33
1, 417193, Note_off_c, 0, 57, 39
1, 417490, Note_on_c, 0, 57, 32
1, 417520, Note_off_c, 0, 61, 34
1, 417536, Note_on_c, 0, 88, 21
1, 417556, Note_off_c, 0, 81, 40
1, 417557, Poly_aftertouch_c, 0, 81, 0
1, 417581, Note_off_c, 0, 69, 52
1, 417862, Note_on_c, 0, 92, 74
1, 417876, Note_off_c, 0, 88, 56
1, 417879, Note_off_c, 0, 57, 42
1, 417898, Note_on_c, 0, 64, 46
1, 417911, Note_on_c, 0, 68, 37
1, 417915, Note_on_c, 0, 81, 29
1, 417952, Note_off_c, 0, 93, 61
1, 418073, Note_off_c, 0, 68, 37
1, 418267, Control_c, 0, 64, 107
1, 418267, Control_c, 1, 64, 107
1, 418283, Note_on_c, 0, 90, 81
1, 418284, Control_c, 0, 64, 76
1, 418284, Control_c, 1, 64, 76
1, 418287, Note_on_c, 0, 57, 40
1, 418304, Control_c, 0, 64, 58
1, 418304, Control_c, 1, 64, 58
1, 418315, Note_on_c, 0, 86, 50
1, 418323, Control_c, 0, 64, 55
1, 418323, Control_c, 1, 64, 55
1, 418328, Note_on_c, 0, 66, 36
1, 418342, Control_c, 0, 64, 61
1, 418342, Control_c, 1, 64, 61
1, 418349, Note_off_c, 0, 81, 39
1, 418360, Control_c, 0, 64, 69
1, 418360, Control_c, 1, 64, 69
1, 418361, Note_off_c, 0, 64, 28
1, 418379, Control_c, 0, 64, 86
1, 418379, Control_c, 1, 64, 86
1, 418397, Control_c, 1, 64, 127
1, 418397, Control_c, 0, 64, 127
1, 418406, Note_off_c, 0, 92, 61
1, 418409, Note_off_c, 0, 66, 56
1, 418409, Poly_aftertouch_c, 0, 66, 0
1, 418600, Note_on_c, 0, 92, 73
1, 418613, Note_off_c, 0, 57, 53
1, 418627, Note_off_c, 0, 86, 52
1, 418635, Note_on_c, 0, 81, 39
1, 418637, Note_on_c, 0, 62, 45
1, 418642, Note_on_c, 0, 68, 35
1, 418660, Note_off_c, 0, 90, 62
1, 418717, Note_off_c, 0, 68, 44
1, 418908, Note_off_c, 0, 62, 57
1, 418941, Control_c, 0, 64, 106
1, 418941, Control_c, 1, 64, 106
1, 418943, Note_on_c, 0, 90, 67
1, 418957, Control_c, 0, 64, 73
1, 418957, Control_c, 1, 64, 73
1, 418960, Poly_aftertouch_c, 0, 81, 24
1, 418963, Note_on_c, 0, 85, 47
1, 418969, Note_on_c, 0, 57, 34
1, 418977, Control_c, 0, 64, 53
1, 418977, Control_c, 1, 64, 53
1, 418981, Note_on_c, 0, 66, 32
1, 418997, Control_c, 0, 64, 50
1, 418997, Control_c, 1, 64, 50
1, 418998, Note_off_c, 0, 81, 42
1, 418998, Poly_aftertouch_c, 0, 81, 0
1, 419015, Control_c, 0, 64, 52
1, 419015, Control_c, 1, 64, 52
1, 419034, Control_c, 1, 64, 61
1, 419034, Control_c, 0, 64, 61
1, 419052, Control_c, 0, 64, 73
1, 419052, Control_c, 1, 64, 73
1, 419072, Control_c, 1, 64, 95
1, 419072, Control_c, 0, 64, 95
1, 419090, Control_c, 0, 64, 127
1, 419090, Control_c, 1, 64, 127
1, 419198, Note_off_c, 0, 92, 57
1, 419280, Note_on_c, 0, 81, 45
1, 419287, Note_off_c, 0, 66, 41
1, 419287, Poly_aftertouch_c, 0, 66, 0
1, 419295, Note_off_c, 0, 57, 39
1, 419306, Note_on_c, 0, 61, 38
1, 419333, Note_off_c, 0, 85, 58
1, 419333, Poly_aftertouch_c, 0, 85, 0
1, 419363, Note_off_c, 0, 90, 64
1, 419626, Note_off_c, 0, 61, 51
1, 419648, Note_on_c, 0, 88, 67
1, 419650, Note_off_c, 0, 81, 55
1, 419650, Poly_aftertouch_c, 0, 81, 0
1, 419651, Control_c, 0, 64, 95
1, 419651, Control_c, 1, 64, 95
1, 419668, Note_on_c, 0, 56, 43
1, 419669, Control_c, 0, 64, 65
1, 419669, Control_c, 1, 64, 65
1, 419684, Note_on_c, 0, 64, 30
1, 419688, Control_c, 0, 64, 43
1, 419688, Control_c, 1, 64, 43
1, 419707, Control_c, 1, 64, 30
1, 419707, Control_c, 0, 64, 30
1, 419750, Poly_aftertouch_c, 0, 83, 127
1, 419783, Control_c, 0, 64, 47
1, 419783, Control_c, 1, 64, 47
1, 419802, Control_c, 1, 64, 66
1, 419802, Control_c, 0, 64, 66
1, 419820, Control_c, 0, 64, 83
1, 419820, Control_c, 1, 64, 83
1, 419839, Control_c, 1, 64, 109
1, 419839, Control_c, 0, 64, 109
1, 419858, Control_c, 0, 64, 127
1, 419858, Control_c, 1, 64, 127
1, 419959, Note_off_c, 0, 56, 55
1, 419998, Poly_aftertouch_c, 0, 83, 24
1, 420012, Note_on_c, 0, 80, 38
1, 420028, Note_on_c, 0, 59, 26
1, 420032, Poly_aftertouch_c, 0, 83, 0
1, 420288, Control_c, 0, 64, 86
1, 420288, Control_c, 1, 64, 86
1, 420307, Control_c, 1, 64, 69
1, 420307, Control_c, 0, 64, 69
1, 420323, Poly_aftertouch_c, 0, 59, 24
1, 420326, Control_c, 0, 64, 66
1, 420326, Control_c, 1, 64, 66
1, 420339, Note_on_c, 0, 81, 42
1, 420344, Control_c, 0, 64, 68
1, 420344, Control_c, 1, 64, 68
1, 420347, Note_on_c, 0, 54, 31
1, 420363, Control_c, 0, 64, 72
1, 420363, Control_c, 1, 64, 72
1, 420369, Note_off_c, 0, 59, 39
1, 420369, Poly_aftertouch_c, 0, 59, 0
1, 420382, Control_c, 0, 64, 79
1, 420382, Control_c, 1, 64, 79
1, 420401, Control_c, 1, 64, 92
1, 420401, Control_c, 0, 64, 92
1, 420420, Control_c, 0, 64, 127
1, 420420, Control_c, 1, 64, 127
1, 420427, Note_off_c, 0, 64, 47
1, 420482, Note_off_c, 0, 80, 42
1, 420673, Note_on_c, 0, 87, 56
1, 420685, Note_off_c, 0, 54, 42
1, 420691, Note_on_c, 0, 57, 40
1, 420700, Note_on_c, 0, 78, 30
1, 420720, Note_on_c, 0, 63, 34
1, 420750, Note_off_c, 0, 88, 48
1, 420776, Note_off_c, 0, 81, 30
1, 420776, Poly_aftertouch_c, 0, 81, 0
1, 420832, Note_off_c, 0, 63, 47
1, 421058, Note_off_c, 0, 57, 50
1, 421075, Control_c, 0, 64, 115
1, 421075, Control_c, 1, 64, 115
1, 421095, Control_c, 1, 64, 77
1, 421095, Note_on_c, 0, 88, 52
1, 421095, Control_c, 0, 64, 77
1, 421102, Note_on_c, 0, 52, 37
1, 421112, Control_c, 0, 64, 54
1, 421112, Control_c, 1, 64, 54
1, 421124, Note_on_c, 0, 64, 18
1, 421130, Control_c, 0, 64, 38
1, 421130, Control_c, 1, 64, 38
1, 421149, Control_c, 1, 64, 32
1, 421149, Control_c, 0, 64, 32
1, 421153, Note_on_c, 0, 80, 20
1, 421181, Note_off_c, 0, 78, 42
1, 421197, Note_off_c, 0, 87, 63
1, 421205, Control_c, 0, 64, 39
1, 421205, Control_c, 1, 64, 39
1, 421224, Control_c, 1, 64, 51
1, 421224, Control_c, 0, 64, 51
1, 421243, Control_c, 0, 64, 67
1, 421243, Control_c, 1, 64, 67
1, 421262, Control_c, 1, 64, 80
1, 421262, Control_c, 0, 64, 80
1, 421281, Control_c, 0, 64, 94
1, 421281, Control_c, 1, 64, 94
1, 421299, Control_c, 1, 64, 109
1, 421299, Control_c, 0, 64, 109
1, 421318, Control_c, 0, 64, 127
1, 421318, Control_c, 1, 64, 127
1, 421437, Note_on_c, 0, 83, 57
1, 421459, Note_on_c, 0, 56, 43
1, 421460, Note_off_c, 0, 64, 41
1, 421473, Note_on_c, 0, 59, 36
1, 421482, Note_on_c, 0, 76, 25
1, 421497, Note_off_c, 0, 52, 33
1, 421514, Note_off_c, 0, 88, 46
1, 421518, Note_off_c, 0, 80, 45
1, 421771, Note_off_c, 0, 56, 49
1, 421786, Poly_aftertouch_c, 0, 76, 24
1, 421786, Control_c, 0, 64, 88
1, 421786, Control_c, 1, 64, 88
1, 421803, Control_c, 1, 64, 63
1, 421803, Control_c, 0, 64, 63
1, 421805, Note_on_c, 0, 85, 59
1, 421810, Note_on_c, 0, 52, 36
1, 421823, Note_off_c, 0, 59, 47
1, 421823, Poly_aftertouch_c, 0, 59, 0
1, 421823, Control_c, 0, 64, 47
1, 421823, Control_c, 1, 64, 47
1, 421829, Note_off_c, 0, 76, 40
1, 421829, Poly_aftertouch_c, 0, 76, 0
1, 421836, Note_on_c, 0, 61, 46
1, 421842, Control_c, 0, 64, 44
1, 421842, Control_c, 1, 64, 44
1, 421863, Note_off_c, 0, 83, 41
1, 421875, Note_on_c, 0, 80, 29
1, 421878, Control_c, 0, 64, 53
1, 421878, Control_c, 1, 64, 53
1, 421898, Control_c, 1, 64, 66
1, 421898, Control_c, 0, 64, 66
1, 421916, Control_c, 0, 64, 81
1, 421916, Control_c, 1, 64, 81
1, 421936, Control_c, 1, 64, 108
1, 421936, Control_c, 0, 64, 108
1, 421954, Control_c, 0, 64, 127
1, 421954, Control_c, 1, 64, 127
1, 422089, Note_off_c, 0, 61, 53
1, 422115, Note_off_c, 0, 52, 38
1, 422120, Note_on_c, 0, 56, 42
1, 422145, Note_on_c, 0, 86, 58
1, 422168, Note_on_c, 0, 62, 39
1, 422188, Note_off_c, 0, 85, 65
1, 422188, Poly_aftertouch_c, 0, 85, 0
1, 422197, Note_off_c, 0, 80, 44
1, 422209, Note_off_c, 0, 56, 59
1, 422214, Note_off_c, 0, 62, 56
1, 422224, Note_off_c, 0, 86, 64
1, 422624, Note_on_c, 0, 93, 70
1, 422627, Control_c, 0, 64, 99
1, 422627, Control_c, 1, 64, 99
1, 422647, Control_c, 1, 64, 68
1, 422647, Control_c, 0, 64, 68
1, 422665, Control_c, 0, 64, 47
1, 422665, Control_c, 1, 64, 47
1, 422669, Note_on_c, 0, 57, 30
1, 422676, Note_on_c, 0, 85, 35
1, 422684, Note_on_c, 0, 69, 31
1, 422684, Control_c, 0, 64, 35
1, 422684, Control_c, 1, 64, 35
1, 422703, Control_c, 1, 64, 30
1, 422703, Control_c, 0, 64, 30
1, 422778, Control_c, 0, 64, 45
1, 422778, Control_c, 1, 64, 45
1, 422796, Control_c, 1, 64, 64
1, 422796, Control_c, 0, 64, 64
1, 422816, Control_c, 0, 64, 84
1, 422816, Control_c, 1, 64, 84
1, 422834, Control_c, 1, 64, 116
1, 422834, Control_c, 0, 64, 116
1, 422852, Control_c, 0, 64, 127
1, 422852, Control_c, 1, 64, 127
1, 422992, Note_on_c, 0, 61, 36
1, 422998, Note_off_c, 0, 85, 54
1, 422998, Note_on_c, 0, 81, 37
1, 422998, Poly_aftertouch_c, 0, 85, 0
1, 423010, Note_off_c, 0, 57, 40
1, 423318, Note_on_c, 0, 88, 51
1, 423326, Note_on_c, 0, 57, 38
1, 423390, Note_off_c, 0, 69, 51
1, 423404, Note_off_c, 0, 81, 45
1, 423404, Poly_aftertouch_c, 0, 81, 0
1, 423408, Note_off_c, 0, 61, 37
1, 423646, Note_off_c, 0, 57, 50
1, 423651, Note_on_c, 0, 92, 67
1, 423678, Note_on_c, 0, 64, 41
1, 423693, Note_off_c, 0, 88, 39
1, 423717, Note_on_c, 0, 68, 34
1, 423735, Note_off_c, 0, 93, 62
1, 423774, Poly_aftertouch_c, 0, 81, 127
1, 423826, Note_off_c, 0, 68, 37
1, 424013, Control_c, 0, 64, 100
1, 424013, Control_c, 1, 64, 100
1, 424025, Poly_aftertouch_c, 0, 64, 24
1, 424032, Control_c, 0, 64, 72
1, 424032, Control_c, 1, 64, 72
1, 424041, Note_on_c, 0, 90, 70
1, 424050, Note_off_c, 0, 64, 47
1, 424050, Poly_aftertouch_c, 0, 64, 0
1, 424050, Control_c, 0, 64, 59
1, 424050, Control_c, 1, 64, 59
1, 424057, Note_on_c, 0, 57, 37
1, 424082, Note_on_c, 0, 66, 39
1, 424087, Control_c, 0, 64, 64
1, 424087, Control_c, 1, 64, 64
1, 424106, Control_c, 1, 64, 72
1, 424106, Control_c, 0, 64, 72
1, 424116, Poly_aftertouch_c, 0, 81, 0
1, 424125, Note_on_c, 0, 86, 28
1, 424125, Control_c, 0, 64, 85
1, 424125, Control_c, 1, 64, 85
1, 424145, Control_c, 1, 64, 127
1, 424145, Control_c, 0, 64, 127
1, 424156, Note_off_c, 0, 66, 62
1, 424156, Poly_aftertouch_c, 0, 66, 0
1, 424194, Note_off_c, 0, 92, 61
1, 424360, Note_on_c, 0, 92, 66
1, 424376, Note_on_c, 0, 68, 32
1, 424384, Note_on_c, 0, 62, 46
1, 424392, Note_off_c, 0, 57, 42
1, 424413, Note_on_c, 0, 81, 24
1, 424419, Note_off_c, 0, 86, 49
1, 424442, Note_off_c, 0, 90, 64
1, 424505, Note_off_c, 0, 68, 37
1, 424646, Note_off_c, 0, 62, 57
1, 424705, Control_c, 0, 64, 89
1, 424705, Control_c, 1, 64, 89
1, 424709, Note_on_c, 0, 57, 44
1, 424722, Control_c, 0, 64, 63
1, 424722, Control_c, 1, 64, 63
1, 424724, Note_on_c, 0, 90, 58
1, 424742, Control_c, 0, 64, 46
1, 424742, Control_c, 1, 64, 46
1, 424757, Note_on_c, 0, 66, 6
1, 424761, Control_c, 0, 64, 41
1, 424761, Control_c, 1, 64, 41
1, 424795, Note_off_c, 0, 81, 42
1, 424797, Control_c, 0, 64, 49
1, 424797, Control_c, 1, 64, 49
1, 424811, Poly_aftertouch_c, 0, 85, 127
1, 424817, Control_c, 0, 64, 62
1, 424817, Control_c, 1, 64, 62
1, 424836, Control_c, 1, 64, 79
1, 424836, Control_c, 0, 64, 79
1, 424856, Control_c, 0, 64, 107
1, 424856, Control_c, 1, 64, 107
1, 424874, Control_c, 1, 64, 127
1, 424874, Control_c, 0, 64, 127
1, 425047, Note_on_c, 0, 61, 41
1, 425048, Note_on_c, 0, 81, 41
1, 425059, Note_off_c, 0, 57, 34
1, 425062, Note_off_c, 0, 92, 63
1, 425071, Note_off_c, 0, 66, 33
1, 425071, Poly_aftertouch_c, 0, 66, 0
1, 425072, Poly_aftertouch_c, 0, 85, 24
1, 425108, Poly_aftertouch_c, 0, 85, 0
1, 425112, Note_off_c, 0, 90, 63
1, 425362, Poly_aftertouch_c, 0, 61, 20
1, 425392, Note_off_c, 0, 61, 37
1, 425392, Poly_aftertouch_c, 0, 61, 0
1, 425397, Control_c, 0, 64, 104
1, 425397, Control_c, 1, 64, 104
1, 425410, Note_on_c, 0, 88, 59
1, 425413, Note_off_c, 0, 81, 48
1, 425416, Control_c, 0, 64, 72
1, 425416, Control_c, 1, 64, 72
1, 425418, Note_on_c, 0, 56, 42
1, 425436, Control_c, 0, 64, 51
1, 425436, Control_c, 1, 64, 51
1, 425450, Note_on_c, 0, 64, 26
1, 425454, Control_c, 0, 64, 42
1, 425454, Control_c, 1, 64, 42
1, 425478, Note_on_c, 0, 83, 21
1, 425510, Control_c, 0, 64, 51
1, 425510, Control_c, 1, 64, 51
1, 425528, Control_c, 1, 64, 63
1, 425528, Control_c, 0, 64, 63
1, 425548, Control_c, 0, 64, 76
1, 425548, Control_c, 1, 64, 76
1, 425568, Control_c, 1, 64, 89
1, 425568, Control_c, 0, 64, 89
1, 425585, Control_c, 0, 64, 110
1, 425585, Control_c, 1, 64, 110
1, 425604, Control_c, 1, 64, 127
1, 425604, Control_c, 0, 64, 127
1, 425726, Note_off_c, 0, 56, 53
1, 425761, Note_on_c, 0, 80, 39
1, 425761, Poly_aftertouch_c, 0, 83, 24
1, 425782, Note_on_c, 0, 59, 30
1, 425800, Note_off_c, 0, 83, 41
1, 425800, Poly_aftertouch_c, 0, 83, 0
1, 426035, Control_c, 0, 64, 93
1, 426035, Control_c, 1, 64, 93
1, 426054, Control_c, 1, 64, 75
1, 426054, Control_c, 0, 64, 75
1, 426071, Control_c, 0, 64, 71
1, 426071, Control_c, 1, 64, 71
1, 426079, Note_on_c, 0, 54, 35
1, 426084, Note_off_c, 0, 59, 40
1, 426084, Poly_aftertouch_c, 0, 59, 0
1, 426089, Control_c, 0, 64, 73
1, 426089, Control_c, 1, 64, 73
1, 426109, Control_c, 1, 64, 78
1, 426109, Control_c, 0, 64, 78
1, 426122, Note_on_c, 0, 81, 28
1, 426128, Control_c, 0, 64, 89
1, 426128, Control_c, 1, 64, 89
1, 426147, Note_off_c, 0, 64, 56
1, 426147, Poly_aftertouch_c, 0, 64, 0
1, 426147, Control_c, 0, 64, 119
1, 426147, Control_c, 1, 64, 119
1, 426157, Note_off_c, 0, 80, 54
1, 426165, Control_c, 0, 64, 127
1, 426165, Control_c, 1, 64, 127
1, 426390, Note_off_c, 0, 54, 42
1, 426408, Note_on_c, 0, 87, 57
1, 426418, Note_on_c, 0, 57, 38
1, 426431, Note_on_c, 0, 63, 34
1, 426455, Note_on_c, 0, 78, 13
1, 426457, Note_off_c, 0, 88, 52
1, 426460, Note_off_c, 0, 81, 40
1, 426574, Note_off_c, 0, 63, 38
1, 426765, Control_c, 0, 64, 82
1, 426765, Control_c, 1, 64, 82
1, 426784, Control_c, 1, 64, 59
1, 426784, Control_c, 0, 64, 59
1, 426800, Note_on_c, 0, 88, 56
1, 426802, Control_c, 0, 64, 43
1, 426802, Control_c, 1, 64, 43
1, 426815, Note_off_c, 0, 57, 37
1, 426815, Note_on_c, 0, 52, 30
1, 426821, Control_c, 0, 64, 38
1, 426821, Control_c, 1, 64, 38
1, 426837, Note_on_c, 0, 64, 10
1, 426849, Note_off_c, 0, 78, 42
1, 426856, Control_c, 0, 64, 40
1, 426856, Control_c, 1, 64, 40
1, 426863, Note_on_c, 0, 80, 31
1, 426869, Note_off_c, 0, 87, 58
1, 426875, Control_c, 0, 64, 49
1, 426875, Control_c, 1, 64, 49
1, 426896, Control_c, 1, 64, 63
1, 426896, Control_c, 0, 64, 63
1, 426913, Control_c, 0, 64, 77
1, 426913, Control_c, 1, 64, 77
1, 426933, Control_c, 1, 64, 96
1, 426933, Control_c, 0, 64, 96
1, 426952, Control_c, 0, 64, 127
1, 426952, Control_c, 1, 64, 127
1, 427154, Note_on_c, 0, 83, 53
1, 427200, Note_on_c, 0, 59, 33
1, 427202, Note_off_c, 0, 64, 39
1, 427202, Poly_aftertouch_c, 0, 64, 0
1, 427203, Note_on_c, 0, 56, 37
1, 427208, Note_off_c, 0, 88, 55
1, 427249, Note_off_c, 0, 80, 45
1, 427267, Note_off_c, 0, 52, 31
1, 427283, Poly_aftertouch_c, 0, 76, 127
1, 427482, Note_off_c, 0, 56, 47
1, 427531, Control_c, 0, 64, 101
1, 427531, Control_c, 1, 64, 101
1, 427535, Note_on_c, 0, 85, 61
1, 427551, Control_c, 0, 64, 73
1, 427551, Control_c, 1, 64, 73
1, 427553, Note_on_c, 0, 52, 35
1, 427570, Note_on_c, 0, 61, 31
1, 427570, Control_c, 0, 64, 56
1, 427570, Control_c, 1, 64, 56
1, 427583, Poly_aftertouch_c, 0, 76, 0
1, 427586, Control_c, 0, 64, 50
1, 427586, Control_c, 1, 64, 50
1, 427611, Note_on_c, 0, 80, 31
1, 427626, Control_c, 0, 64, 54
1, 427626, Control_c, 1, 64, 54
1, 427643, Note_off_c, 0, 83, 32
1, 427643, Poly_aftertouch_c, 0, 83, 0
1, 427644, Control_c, 0, 64, 62
1, 427644, Control_c, 1, 64, 62
1, 427663, Control_c, 1, 64, 73
1, 427663, Control_c, 0, 64, 73
1, 427665, Note_off_c, 0, 59, 35
1, 427665, Poly_aftertouch_c, 0, 59, 0
1, 427682, Control_c, 0, 64, 89
1, 427682, Control_c, 1, 64, 89
1, 427702, Control_c, 1, 64, 127
1, 427702, Control_c, 0, 64, 127
1, 427876, Note_off_c, 0, 61, 43
1, 427876, Poly_aftertouch_c, 0, 61, 0
1, 427894, Note_off_c, 0, 52, 37
1, 427912, Note_on_c, 0, 86, 64
1, 427930, Note_on_c, 0, 56, 40
1, 427936, Note_on_c, 0, 62, 49
1, 427959, Note_off_c, 0, 80, 47
1, 427968, Note_off_c, 0, 85, 61
1, 427993, Note_off_c, 0, 62, 59
1, 427994, Note_off_c, 0, 86, 64
1, 427996, Note_off_c, 0, 56, 57
1, 428639, Note_on_c, 0, 93, 62
1, 428641, Note_on_c, 0, 69, 76
1, 428654, Control_c, 0, 64, 101
1, 428654, Control_c, 1, 64, 101
1, 428667, Note_on_c, 0, 85, 39
1, 428672, Control_c, 0, 64, 76
1, 428672, Control_c, 1, 64, 76
1, 428692, Control_c, 1, 64, 60
1, 428692, Note_on_c, 0, 57, 29
1, 428692, Control_c, 0, 64, 60
1, 428712, Control_c, 0, 64, 50
1, 428712, Control_c, 1, 64, 50
1, 428729, Control_c, 1, 64, 46
1, 428729, Control_c, 0, 64, 46
1, 428749, Control_c, 0, 64, 44
1, 428749, Control_c, 1, 64, 44
1, 428843, Control_c, 1, 64, 52
1, 428843, Control_c, 0, 64, 52
1, 428862, Control_c, 0, 64, 63
1, 428862, Control_c, 1, 64, 63
1, 428880, Control_c, 1, 64, 74
1, 428880, Control_c, 0, 64, 74
1, 428900, Control_c, 0, 64, 88
1, 428900, Control_c, 1, 64, 88
1, 428917, Control_c, 1, 64, 117
1, 428917, Control_c, 0, 64, 117
1, 428936, Control_c, 0, 64, 127
1, 428936, Control_c, 1, 64, 127
1, 429075, Note_on_c, 0, 81, 47
1, 429097, Note_on_c, 0, 61, 44
1, 429104, Note_off_c, 0, 85, 43
1, 429123, Note_off_c, 0, 57, 40
1, 429416, Note_off_c, 0, 61, 38
1, 429416, Poly_aftertouch_c, 0, 61, 0
1, 429424, Note_on_c, 0, 57, 38
1, 429451, Note_on_c, 0, 86, 35
1, 429467, Poly_aftertouch_c, 0, 81, 24
1, 429539, Note_off_c, 0, 69, 57
1, 429544, Note_off_c, 0, 81, 31
1, 429544, Poly_aftertouch_c, 0, 81, 0
1, 429853, Note_on_c, 0, 92, 55
1, 429853, Note_on_c, 0, 68, 65
1, 429869, Note_on_c, 0, 81, 39
1, 429878, Note_off_c, 0, 57, 51
1, 429879, Note_on_c, 0, 62, 46
1, 429897, Note_off_c, 0, 86, 42
1, 430044, Note_off_c, 0, 92, 42
1, 430111, Note_off_c, 0, 68, 61
1, 430206, Note_off_c, 0, 62, 31
1, 430278, Poly_aftertouch_c, 0, 81, 24
1, 430283, Control_c, 0, 64, 90
1, 430283, Control_c, 1, 64, 90
1, 430294, Note_on_c, 0, 67, 69
1, 430302, Control_c, 0, 64, 66
1, 430302, Control_c, 1, 64, 66
1, 430321, Control_c, 1, 64, 57
1, 430321, Control_c, 0, 64, 57
1, 430329, Note_on_c, 0, 57, 49
1, 430336, Note_on_c, 0, 91, 51
1, 430338, Note_off_c, 0, 81, 38
1, 430338, Poly_aftertouch_c, 0, 81, 0
1, 430359, Control_c, 0, 64, 64
1, 430359, Control_c, 1, 64, 64
1, 430378, Control_c, 1, 64, 75
1, 430378, Control_c, 0, 64, 75
1, 430379, Note_off_c, 0, 93, 57
1, 430396, Control_c, 0, 64, 94
1, 430396, Control_c, 1, 64, 94
1, 430415, Control_c, 1, 64, 127
1, 430415, Control_c, 0, 64, 127
1, 430503, Note_off_c, 0, 67, 58
1, 430609, Poly_aftertouch_c, 0, 88, 127
1, 430620, Note_off_c, 0, 57, 59
1, 430636, Poly_aftertouch_c, 0, 88, 0
1, 430640, Note_on_c, 0, 93, 61
1, 430646, Note_on_c, 0, 69, 65
1, 430656, Note_on_c, 0, 64, 47
1, 430666, Note_on_c, 0, 81, 37
1, 430684, Note_off_c, 0, 91, 42
1, 430813, Note_off_c, 0, 69, 56
1, 430950, Poly_aftertouch_c, 0, 64, 24
1, 430954, Poly_aftertouch_c, 0, 81, 24
1, 430957, Control_c, 0, 64, 93
1, 430957, Control_c, 1, 64, 93
1, 430966, Note_off_c, 0, 64, 58
1, 430966, Poly_aftertouch_c, 0, 64, 0
1, 430977, Control_c, 0, 64, 64
1, 430977, Control_c, 1, 64, 64
1, 430986, Note_on_c, 0, 67, 54
1, 430993, Note_on_c, 0, 91, 53
1, 430995, Note_off_c, 0, 81, 40
1, 430995, Poly_aftertouch_c, 0, 81, 0
1, 430995, Control_c, 0, 64, 46
1, 430995, Control_c, 1, 64, 46
1, 430999, Note_on_c, 0, 57, 39
1, 431014, Control_c, 0, 64, 41
1, 431014, Control_c, 1, 64, 41
1, 431052, Control_c, 1, 64, 47
1, 431052, Control_c, 0, 64, 47
1, 431070, Control_c, 0, 64, 61
1, 431070, Control_c, 1, 64, 61
1, 431071, Note_off_c, 0, 93, 49
1, 431073, Poly_aftertouch_c, 0, 85, 127
1, 431089, Control_c, 0, 64, 77
1, 431089, Control_c, 1, 64, 77
1, 431108, Control_c, 1, 64, 103
1, 431108, Control_c, 0, 64, 103
1, 431126, Control_c, 0, 64, 127
1, 431126, Control_c, 1, 64, 127
1, 431326, Note_on_c, 0, 81, 42
1, 431331, Note_on_c, 0, 61, 38
1, 431345, Note_off_c, 0, 57, 40
1, 431349, Poly_aftertouch_c, 0, 85, 0
1, 431388, Note_off_c, 0, 67, 54
1, 431720, Note_off_c, 0, 61, 40
1, 431720, Poly_aftertouch_c, 0, 61, 0
1, 431736, Note_on_c, 0, 66, 60
1, 431753, Note_on_c, 0, 57, 46
1, 431763, Control_c, 0, 64, 79
1, 431763, Control_c, 1, 64, 79
1, 431765, Note_on_c, 0, 90, 65
1, 431782, Control_c, 0, 64, 55
1, 431782, Control_c, 1, 64, 55
1, 431794, Note_off_c, 0, 81, 49
1, 431794, Poly_aftertouch_c, 0, 81, 0
1, 431801, Control_c, 0, 64, 41
1, 431801, Control_c, 1, 64, 41
1, 431856, Control_c, 1, 64, 44
1, 431856, Control_c, 0, 64, 44
1, 431875, Control_c, 0, 64, 58
1, 431875, Control_c, 1, 64, 58
1, 431893, Control_c, 1, 64, 75
1, 431893, Control_c, 0, 64, 75
1, 431907, Poly_aftertouch_c, 0, 86, 127
1, 431911, Control_c, 0, 64, 98
1, 431911, Control_c, 1, 64, 98
1, 431931, Control_c, 1, 64, 127
1, 431931, Control_c, 0, 64, 127
1, 432042, Note_off_c, 0, 91, 27
1, 432083, Note_off_c, 0, 57, 58
1, 432091, Poly_aftertouch_c, 0, 86, 0
1, 432096, Note_on_c, 0, 62, 41
1, 432117, Note_on_c, 0, 81, 40
1, 432418, Control_c, 0, 64, 103
1, 432418, Control_c, 1, 64, 103
1, 432436, Control_c, 1, 64, 72
1, 432436, Control_c, 0, 64, 72
1, 432444, Note_on_c, 0, 55, 41
1, 432455, Control_c, 0, 64, 56
1, 432455, Control_c, 1, 64, 56
1, 432475, Note_off_c, 0, 81, 55
1, 432475, Poly_aftertouch_c, 0, 81, 0
1, 432493, Note_on_c, 0, 85, 36
1, 432493, Control_c, 0, 64, 61
1, 432493, Control_c, 1, 64, 61
1, 432501, Note_off_c, 0, 66, 43
1, 432501, Poly_aftertouch_c, 0, 66, 0
1, 432510, Control_c, 0, 64, 70
1, 432510, Control_c, 1, 64, 70
1, 432530, Control_c, 1, 64, 88
1, 432530, Control_c, 0, 64, 88
1, 432549, Control_c, 0, 64, 127
1, 432549, Control_c, 1, 64, 127
1, 432580, Note_off_c, 0, 90, 43
1, 432748, Note_off_c, 0, 55, 48
1, 432749, Note_off_c, 0, 62, 56
1, 432779, Note_on_c, 0, 88, 49
1, 432789, Note_on_c, 0, 64, 46
1, 432802, Note_on_c, 0, 61, 45
1, 432819, Note_off_c, 0, 85, 36
1, 432870, Poly_aftertouch_c, 0, 79, 127
1, 433114, Poly_aftertouch_c, 0, 79, 24
1, 433121, Poly_aftertouch_c, 0, 61, 24
1, 433134, Note_off_c, 0, 64, 52
1, 433134, Poly_aftertouch_c, 0, 64, 0
1, 433148, Control_c, 0, 64, 89
1, 433148, Control_c, 1, 64, 89
1, 433157, Poly_aftertouch_c, 0, 79, 0
1, 433159, Note_on_c, 0, 86, 51
1, 433167, Note_off_c, 0, 61, 37
1, 433167, Poly_aftertouch_c, 0, 61, 0
1, 433167, Control_c, 0, 64, 63
1, 433167, Control_c, 1, 64, 63
1, 433174, Note_on_c, 0, 81, 33
1, 433177, Note_on_c, 0, 62, 40
1, 433179, Note_on_c, 0, 54, 32
1, 433185, Control_c, 0, 64, 42
1, 433185, Control_c, 1, 64, 42
1, 433203, Control_c, 1, 64, 30
1, 433203, Control_c, 0, 64, 30
1, 433205, Note_off_c, 0, 88, 57
1, 433222, Control_c, 0, 64, 24
1, 433222, Control_c, 1, 64, 24
1, 433297, Control_c, 1, 64, 33
1, 433297, Control_c, 0, 64, 33
1, 433316, Control_c, 0, 64, 48
1, 433316, Control_c, 1, 64, 48
1, 433335, Control_c, 1, 64, 68
1, 433335, Control_c, 0, 64, 68
1, 433354, Control_c, 0, 64, 87
1, 433354, Control_c, 1, 64, 87
1, 433373, Control_c, 1, 64, 116
1, 433373, Control_c, 0, 64, 116
1, 433391, Control_c, 0, 64, 127
1, 433391, Control_c, 1, 64, 127
1, 433526, Note_on_c, 0, 78, 37
1, 433533, Note_on_c, 0, 57, 36
1, 433574, Note_off_c, 0, 54, 28
1, 433656, Note_off_c, 0, 81, 38
1, 433656, Poly_aftertouch_c, 0, 81, 0
1, 433859, Control_c, 0, 64, 111
1, 433859, Control_c, 1, 64, 111
1, 433878, Control_c, 1, 64, 77
1, 433878, Control_c, 0, 64, 77
1, 433896, Control_c, 0, 64, 57
1, 433896, Control_c, 1, 64, 57
1, 433904, Note_on_c, 0, 85, 40
1, 433905, Note_off_c, 0, 57, 46
1, 433915, Control_c, 0, 64, 44
1, 433915, Control_c, 1, 64, 44
1, 433917, Note_on_c, 0, 54, 24
1, 433933, Control_c, 0, 64, 42
1, 433933, Control_c, 1, 64, 42
1, 433941, Note_on_c, 0, 61, 33
1, 433951, Note_on_c, 0, 81, 31
1, 433966, Note_off_c, 0, 62, 38
1, 433967, Note_off_c, 0, 78, 46
1, 433971, Control_c, 0, 64, 47
1, 433971, Control_c, 1, 64, 47
1, 433990, Control_c, 1, 64, 59
1, 433990, Control_c, 0, 64, 59
1, 434009, Control_c, 0, 64, 73
1, 434009, Control_c, 1, 64, 73
1, 434028, Control_c, 1, 64, 90
1, 434028, Control_c, 0, 64, 90
1, 434046, Control_c, 0, 64, 127
1, 434046, Control_c, 1, 64, 127
1, 434098, Note_off_c, 0, 86, 30
1, 434229, Note_off_c, 0, 54, 43
1, 434274, Note_off_c, 0, 81, 51
1, 434274, Poly_aftertouch_c, 0, 81, 0
1, 434291, Note_on_c, 0, 78, 31
1, 434298, Note_on_c, 0, 57, 26
1, 434801, Note_off_c, 0, 57, 35
1, 434811, Note_on_c, 0, 68, 56
1, 434813, Control_c, 0, 64, 94
1, 434813, Control_c, 1, 64, 94
1, 434815, Note_on_c, 0, 92, 58
1, 434816, Note_off_c, 0, 78, 44
1, 434822, Note_off_c, 0, 85, 56
1, 434830, Note_on_c, 0, 56, 33
1, 434833, Control_c, 0, 64, 70
1, 434833, Control_c, 1, 64, 70
1, 434845, Note_off_c, 0, 61, 46
1, 434845, Poly_aftertouch_c, 0, 61, 0
1, 434850, Control_c, 0, 64, 55
1, 434850, Control_c, 1, 64, 55
1, 434870, Control_c, 1, 64, 48
1, 434870, Control_c, 0, 64, 48
1, 434922, Poly_aftertouch_c, 0, 84, 127
1, 434924, Control_c, 0, 64, 50
1, 434924, Control_c, 1, 64, 50
1, 434945, Control_c, 1, 64, 58
1, 434945, Control_c, 0, 64, 58
1, 434963, Control_c, 0, 64, 67
1, 434963, Control_c, 1, 64, 67
1, 434983, Control_c, 1, 64, 76
1, 434983, Control_c, 0, 64, 76
1, 435001, Control_c, 0, 64, 89
1, 435001, Control_c, 1, 64, 89
1, 435020, Control_c, 1, 64, 112
1, 435020, Control_c, 0, 64, 112
1, 435038, Control_c, 0, 64, 127
1, 435038, Control_c, 1, 64, 127
1, 435172, Note_on_c, 0, 80, 31
1, 435181, Poly_aftertouch_c, 0, 84, 0
1, 435184, Note_on_c, 0, 60, 40
1, 435195, Note_off_c, 0, 56, 40
1, 435501, Note_on_c, 0, 56, 41
1, 435542, Note_on_c, 0, 85, 33
1, 435568, Note_off_c, 0, 80, 44
1, 435655, Note_off_c, 0, 68, 38
1, 435732, Poly_aftertouch_c, 0, 60, 20
1, 435748, Note_off_c, 0, 60, 22
1, 435748, Poly_aftertouch_c, 0, 60, 0
1, 435766, Note_off_c, 0, 92, 53
1, 435873, Note_off_c, 0, 56, 50
1, 435887, Note_on_c, 0, 67, 64
1, 435898, Note_on_c, 0, 91, 51
1, 435921, Note_off_c, 0, 85, 43
1, 435924, Note_on_c, 0, 61, 44
1, 435930, Note_on_c, 0, 80, 34
1, 436236, Control_c, 0, 64, 92
1, 436236, Control_c, 1, 64, 92
1, 436255, Control_c, 1, 64, 69
1, 436255, Control_c, 0, 64, 69
1, 436268, Note_off_c, 0, 61, 55
1, 436268, Poly_aftertouch_c, 0, 61, 0
1, 436271, Note_on_c, 0, 66, 62
1, 436273, Control_c, 0, 64, 58
1, 436273, Control_c, 1, 64, 58
1, 436275, Note_on_c, 0, 90, 60
1, 436289, Note_on_c, 0, 56, 48
1, 436310, Control_c, 0, 64, 60
1, 436310, Control_c, 1, 64, 60
1, 436316, Note_off_c, 0, 67, 58
1, 436319, Note_on_c, 0, 87, 38
1, 436330, Control_c, 0, 64, 66
1, 436330, Control_c, 1, 64, 66
1, 436332, Note_off_c, 0, 91, 54
1, 436337, Note_off_c, 0, 80, 51
1, 436349, Control_c, 0, 64, 72
1, 436349, Control_c, 1, 64, 72
1, 436368, Control_c, 1, 64, 78
1, 436368, Control_c, 0, 64, 78
1, 436386, Control_c, 0, 64, 89
1, 436386, Control_c, 1, 64, 89
1, 436405, Control_c, 1, 64, 105
1, 436405, Control_c, 0, 64, 105
1, 436423, Control_c, 0, 64, 127
1, 436423, Control_c, 1, 64, 127
1, 436595, Note_on_c, 0, 80, 40
1, 436599, Note_on_c, 0, 92, 51
1, 436602, Note_on_c, 0, 68, 56
1, 436610, Note_off_c, 0, 66, 53
1, 436610, Poly_aftertouch_c, 0, 66, 0
1, 436611, Note_off_c, 0, 87, 48
1, 436616, Note_on_c, 0, 63, 55
1, 436627, Note_off_c, 0, 56, 34
1, 436640, Note_off_c, 0, 90, 57
1, 436910, Control_c, 0, 64, 94
1, 436910, Control_c, 1, 64, 94
1, 436923, Note_off_c, 0, 63, 62
1, 436929, Control_c, 0, 64, 65
1, 436929, Control_c, 1, 64, 65
1, 436939, Note_on_c, 0, 66, 56
1, 436946, Control_c, 0, 64, 45
1, 436946, Control_c, 1, 64, 45
1, 436952, Note_on_c, 0, 90, 56
1, 436962, Note_off_c, 0, 80, 56
1, 436965, Control_c, 0, 64, 36
1, 436965, Control_c, 1, 64, 36
1, 436967, Note_on_c, 0, 84, 37
1, 436975, Note_on_c, 0, 56, 26
1, 436980, Note_off_c, 0, 92, 59
1, 437005, Note_off_c, 0, 68, 36
1, 437022, Control_c, 0, 64, 43
1, 437022, Control_c, 1, 64, 43
1, 437042, Control_c, 1, 64, 56
1, 437042, Control_c, 0, 64, 56
1, 437060, Control_c, 0, 64, 71
1, 437060, Control_c, 1, 64, 71
1, 437079, Control_c, 1, 64, 88
1, 437079, Control_c, 0, 64, 88
1, 437098, Control_c, 0, 64, 127
1, 437098, Control_c, 1, 64, 127
1, 437282, Note_off_c, 0, 56, 39
1, 437282, Note_on_c, 0, 80, 43
1, 437294, Note_on_c, 0, 60, 42
1, 437307, Note_off_c, 0, 84, 51
1, 437603, Poly_aftertouch_c, 0, 60, 24
1, 437621, Control_c, 0, 64, 110
1, 437621, Control_c, 1, 64, 110
1, 437625, Note_off_c, 0, 60, 49
1, 437625, Poly_aftertouch_c, 0, 60, 0
1, 437636, Note_on_c, 0, 64, 48
1, 437640, Control_c, 0, 64, 75
1, 437640, Control_c, 1, 64, 75
1, 437642, Note_on_c, 0, 88, 57
1, 437655, Note_on_c, 0, 56, 40
1, 437658, Control_c, 0, 64, 53
1, 437658, Control_c, 1, 64, 53
1, 437677, Control_c, 1, 64, 40
1, 437677, Control_c, 0, 64, 40
1, 437686, Note_on_c, 0, 85, 26
1, 437707, Note_off_c, 0, 80, 47
1, 437707, Note_off_c, 0, 66, 40
1, 437707, Poly_aftertouch_c, 0, 66, 0
1, 437722, Note_off_c, 0, 90, 45
1, 437752, Control_c, 0, 64, 50
1, 437752, Control_c, 1, 64, 50
1, 437771, Control_c, 1, 64, 66
1, 437771, Control_c, 0, 64, 66
1, 437790, Control_c, 0, 64, 83
1, 437790, Control_c, 1, 64, 83
1, 437809, Control_c, 1, 64, 116
1, 437809, Control_c, 0, 64, 116
1, 437827, Control_c, 0, 64, 127
1, 437827, Control_c, 1, 64, 127
1, 437988, Note_on_c, 0, 80, 32
1, 437991, Note_off_c, 0, 56, 43
1, 438002, Note_on_c, 0, 61, 39
1, 438004, Note_off_c, 0, 85, 45
1, 438351, Control_c, 0, 64, 80
1, 438351, Control_c, 1, 64, 80
1, 438369, Note_on_c, 0, 54, 30
1, 438372, Control_c, 0, 64, 57
1, 438372, Control_c, 1, 64, 57
1, 438378, Note_on_c, 0, 84, 37
1, 438389, Control_c, 0, 64, 44
1, 438389, Control_c, 1, 64, 44
1, 438392, Note_off_c, 0, 61, 34
1, 438392, Poly_aftertouch_c, 0, 61, 0
1, 438427, Control_c, 0, 64, 46
1, 438427, Control_c, 1, 64, 46
1, 438446, Control_c, 1, 64, 57
1, 438446, Control_c, 0, 64, 57
1, 438452, Note_off_c, 0, 80, 47
1, 438464, Control_c, 0, 64, 73
1, 438464, Control_c, 1, 64, 73
1, 438482, Control_c, 1, 64, 96
1, 438482, Control_c, 0, 64, 96
1, 438500, Control_c, 0, 64, 127
1, 438500, Control_c, 1, 64, 127
1, 438715, Note_off_c, 0, 54, 42
1, 438717, Note_off_c, 0, 88, 52
1, 438720, Note_on_c, 0, 87, 53
1, 438722, Note_on_c, 0, 60, 39
1, 438737, Note_on_c, 0, 63, 40
1, 438749, Note_on_c, 0, 78, 23
1, 438765, Note_off_c, 0, 64, 29
1, 438765, Poly_aftertouch_c, 0, 64, 0
1, 438803, Note_off_c, 0, 84, 32
1, 438818, Note_off_c, 0, 63, 56
1, 438849, Note_off_c, 0, 60, 51
1, 438849, Poly_aftertouch_c, 0, 60, 0
1, 439173, Control_c, 0, 64, 88
1, 439173, Control_c, 1, 64, 88
1, 439184, Note_on_c, 0, 52, 33
1, 439184, Note_on_c, 0, 85, 46
1, 439184, Note_on_c, 0, 80, 41
1, 439185, Poly_aftertouch_c, 0, 78, 24
1, 439192, Control_c, 0, 64, 64
1, 439192, Control_c, 1, 64, 64
1, 439194, Note_on_c, 0, 61, 24
1, 439212, Control_c, 0, 64, 47
1, 439212, Control_c, 1, 64, 47
1, 439215, Note_off_c, 0, 78, 43
1, 439215, Poly_aftertouch_c, 0, 78, 0
1, 439229, Note_off_c, 0, 87, 52
1, 439231, Control_c, 0, 64, 40
1, 439231, Control_c, 1, 64, 40
1, 439306, Control_c, 1, 64, 45
1, 439306, Control_c, 0, 64, 45
1, 439326, Control_c, 0, 64, 56
1, 439326, Control_c, 1, 64, 56
1, 439344, Control_c, 1, 64, 69
1, 439344, Control_c, 0, 64, 69
1, 439361, Control_c, 0, 64, 83
1, 439361, Control_c, 1, 64, 83
1, 439381, Control_c, 1, 64, 104
1, 439381, Control_c, 0, 64, 104
1, 439400, Control_c, 0, 64, 127
1, 439400, Control_c, 1, 64, 127
1, 439558, Note_on_c, 0, 56, 33
1, 439584, Note_on_c, 0, 76, 30
1, 439653, Note_off_c, 0, 52, 26
1, 439665, Note_off_c, 0, 80, 44
1, 439968, Note_off_c, 0, 56, 39
1, 439980, Control_c, 0, 64, 100
1, 439980, Control_c, 1, 64, 100
1, 439996, Note_on_c, 0, 83, 37
1, 439998, Control_c, 0, 64, 75
1, 439998, Control_c, 1, 64, 75
1, 440017, Control_c, 1, 64, 57
1, 440017, Control_c, 0, 64, 57
1, 440023, Note_on_c, 0, 52, 24
1, 440028, Note_on_c, 0, 59, 28
1, 440036, Control_c, 0, 64, 43
1, 440036, Control_c, 1, 64, 43
1, 440055, Control_c, 1, 64, 36
1, 440055, Control_c, 0, 64, 36
1, 440058, Note_off_c, 0, 76, 41
1, 440100, Note_off_c, 0, 61, 31
1, 440100, Poly_aftertouch_c, 0, 61, 0
1, 440130, Control_c, 0, 64, 41
1, 440130, Control_c, 1, 64, 41
1, 440147, Poly_aftertouch_c, 0, 79, 127
1, 440148, Control_c, 0, 64, 53
1, 440148, Control_c, 1, 64, 53
1, 440167, Control_c, 1, 64, 65
1, 440167, Control_c, 0, 64, 65
1, 440185, Control_c, 0, 64, 73
1, 440185, Control_c, 1, 64, 73
1, 440191, Note_off_c, 0, 85, 42
1, 440205, Control_c, 0, 64, 77
1, 440205, Control_c, 1, 64, 77
1, 440223, Control_c, 1, 64, 80
1, 440223, Control_c, 0, 64, 80
1, 440242, Control_c, 0, 64, 84
1, 440242, Control_c, 1, 64, 84
1, 440261, Control_c, 1, 64, 95
1, 440261, Control_c, 0, 64, 95
1, 440279, Control_c, 0, 64, 127
1, 440279, Control_c, 1, 64, 127
1, 440377, Note_off_c, 0, 52, 38
1, 440412, Note_on_c, 0, 76, 21
1, 440414, Note_on_c, 0, 55, 32
1, 440486, Note_off_c, 0, 83, 54
1, 440486, Poly_aftertouch_c, 0, 83, 0
1, 440492, Poly_aftertouch_c, 0, 79, 0
1, 440971, Poly_aftertouch_c, 0, 55, 24
1, 441071, Note_on_c, 0, 66, 28
1, 441077, Note_on_c, 0, 54, 28
1, 441114, Note_off_c, 0, 55, 24
1, 441114, Poly_aftertouch_c, 0, 55, 0
1, 441121, Control_c, 0, 64, 116
1, 441121, Control_c, 1, 64, 116
1, 441141, Control_c, 1, 64, 84
1, 441141, Control_c, 0, 64, 84
1, 441147, Note_on_c, 0, 90, 67
1, 441160, Control_c, 0, 64, 63
1, 441160, Control_c, 1, 64, 63
1, 441175, Note_off_c, 0, 59, 52
1, 441175, Poly_aftertouch_c, 0, 59, 0
1, 441177, Control_c, 0, 64, 50
1, 441177, Control_c, 1, 64, 50
1, 441181, Note_off_c, 0, 76, 42
1, 441197, Control_c, 0, 64, 46
1, 441197, Control_c, 1, 64, 46
1, 441252, Control_c, 1, 64, 48
1, 441252, Control_c, 0, 64, 48
1, 441257, Poly_aftertouch_c, 0, 82, 127
1, 441272, Control_c, 0, 64, 54
1, 441272, Control_c, 1, 64, 54
1, 441290, Control_c, 1, 64, 59
1, 441290, Control_c, 0, 64, 59
1, 441309, Control_c, 0, 64, 63
1, 441309, Control_c, 1, 64, 63
1, 441328, Control_c, 1, 64, 66
1, 441328, Control_c, 0, 64, 66
1, 441347, Control_c, 0, 64, 70
1, 441347, Control_c, 1, 64, 70
1, 441365, Control_c, 1, 64, 76
1, 441365, Control_c, 0, 64, 76
1, 441385, Control_c, 0, 64, 87
1, 441385, Control_c, 1, 64, 87
1, 441403, Control_c, 1, 64, 104
1, 441403, Control_c, 0, 64, 104
1, 441421, Poly_aftertouch_c, 0, 87, 0
1, 441421, Control_c, 0, 64, 127
1, 441421, Control_c, 1, 64, 127
1, 441580, Poly_aftertouch_c, 0, 82, 0
1, 441583, Note_on_c, 0, 58, 35
1, 441602, Note_on_c, 0, 78, 23
1, 441624, Note_off_c, 0, 54, 41
1, 441903, Note_on_c, 0, 85, 46
1, 441923, Note_on_c, 0, 54, 36
1, 441939, Note_off_c, 0, 58, 40
1, 441958, Note_off_c, 0, 78, 42
1, 441958, Poly_aftertouch_c, 0, 78, 0
1, 441992, Note_off_c, 0, 90, 62
1, 442227, Note_on_c, 0, 88, 72
1, 442272, Note_off_c, 0, 54, 40
1, 442276, Note_off_c, 0, 85, 56
1, 442278, Note_on_c, 0, 64, 40
1, 442286, Note_off_c, 0, 66, 41
1, 442286, Poly_aftertouch_c, 0, 66, 0
1, 442302, Note_on_c, 0, 61, 38
1, 442306, Note_on_c, 0, 78, 19
1, 442528, Note_off_c, 0, 64, 27
1, 442528, Poly_aftertouch_c, 0, 64, 0
1, 442529, Poly_aftertouch_c, 0, 64, 0
1, 442600, Control_c, 0, 64, 87
1, 442600, Control_c, 1, 64, 87
1, 442603, Note_on_c, 0, 86, 70
1, 442607, Note_off_c, 0, 61, 45
1, 442607, Poly_aftertouch_c, 0, 61, 0
1, 442620, Control_c, 0, 64, 63
1, 442620, Control_c, 1, 64, 63
1, 442635, Note_on_c, 0, 54, 46
1, 442639, Note_on_c, 0, 62, 38
1, 442639, Control_c, 0, 64, 49
1, 442639, Control_c, 1, 64, 49
1, 442640, Note_on_c, 0, 83, 39
1, 442694, Control_c, 0, 64, 57
1, 442694, Control_c, 1, 64, 57
1, 442704, Note_off_c, 0, 78, 39
1, 442704, Poly_aftertouch_c, 0, 78, 0
1, 442712, Control_c, 0, 64, 66
1, 442712, Control_c, 1, 64, 66
1, 442732, Control_c, 1, 64, 77
1, 442732, Control_c, 0, 64, 77
1, 442751, Control_c, 0, 64, 92
1, 442751, Control_c, 1, 64, 92
1, 442770, Control_c, 1, 64, 127
1, 442770, Control_c, 0, 64, 127
1, 442920, Note_on_c, 0, 85, 77
1, 442928, Note_off_c, 0, 62, 37
1, 442949, Note_off_c, 0, 83, 56
1, 442949, Poly_aftertouch_c, 0, 83, 0
1, 442956, Note_on_c, 0, 59, 42
1, 442960, Note_on_c, 0, 78, 51
1, 442970, Note_on_c, 0, 61, 31
1, 442980, Note_off_c, 0, 88, 59
1, 443001, Note_off_c, 0, 54, 33
1, 443007, Note_off_c, 0, 86, 62
1, 443274, Control_c, 0, 64, 89
1, 443274, Control_c, 1, 64, 89
1, 443283, Note_off_c, 0, 59, 54
1, 443283, Poly_aftertouch_c, 0, 59, 0
1, 443288, Note_on_c, 0, 86, 67
1, 443292, Control_c, 0, 64, 61
1, 443292, Control_c, 1, 64, 61
1, 443300, Note_on_c, 0, 81, 40
1, 443311, Control_c, 0, 64, 40
1, 443311, Control_c, 1, 64, 40
1, 443323, Note_on_c, 0, 53, 39
1, 443329, Control_c, 0, 64, 28
1, 443329, Control_c, 1, 64, 28
1, 443338, Note_on_c, 0, 62, 14
1, 443351, Control_c, 0, 64, 23
1, 443351, Control_c, 1, 64, 23
1, 443352, Note_off_c, 0, 85, 60
1, 443361, Note_off_c, 0, 61, 35
1, 443361, Poly_aftertouch_c, 0, 61, 0
1, 443363, Note_off_c, 0, 78, 42
1, 443363, Poly_aftertouch_c, 0, 78, 0
1, 443443, Control_c, 0, 64, 34
1, 443443, Control_c, 1, 64, 34
1, 443462, Control_c, 1, 64, 50
1, 443462, Control_c, 0, 64, 50
1, 443481, Control_c, 0, 64, 70
1, 443481, Control_c, 1, 64, 70
1, 443499, Control_c, 1, 64, 89
1, 443499, Control_c, 0, 64, 89
1, 443517, Control_c, 0, 64, 127
1, 443517, Control_c, 1, 64, 127
1, 443633, Note_off_c, 0, 81, 55
1, 443633, Poly_aftertouch_c, 0, 81, 0
1, 443643, Note_on_c, 0, 77, 41
1, 443649, Note_on_c, 0, 57, 40
1, 443658, Note_off_c, 0, 53, 35
1, 443671, Note_off_c, 0, 62, 40
1, 443747, Note_off_c, 0, 77, 64
1, 443747, Note_on_c, 0, 77, 6
1, 443989, Note_off_c, 0, 57, 58
1, 444016, Note_on_c, 0, 88, 60
1, 444023, Control_c, 0, 64, 102
1, 444023, Control_c, 1, 64, 102
1, 444043, Control_c, 1, 64, 73
1, 444043, Control_c, 0, 64, 73
1, 444047, Note_on_c, 0, 52, 40
1, 444057, Note_on_c, 0, 80, 40
1, 444061, Control_c, 0, 64, 51
1, 444061, Control_c, 1, 64, 51
1, 444062, Note_off_c, 0, 77, 40
1, 444080, Control_c, 0, 64, 36
1, 444080, Control_c, 1, 64, 36
1, 444094, Note_on_c, 0, 64, 24
1, 444097, Control_c, 0, 64, 28
1, 444097, Control_c, 1, 64, 28
1, 444116, Control_c, 1, 64, 23
1, 444116, Control_c, 0, 64, 23
1, 444171, Note_off_c, 0, 86, 37
1, 444210, Control_c, 0, 64, 33
1, 444210, Control_c, 1, 64, 33
1, 444229, Control_c, 1, 64, 45
1, 444229, Control_c, 0, 64, 45
1, 444248, Control_c, 0, 64, 61
1, 444248, Control_c, 1, 64, 61
1, 444266, Control_c, 1, 64, 74
1, 444266, Control_c, 0, 64, 74
1, 444286, Control_c, 0, 64, 83
1, 444286, Control_c, 1, 64, 83
1, 444303, Control_c, 1, 64, 90
1, 444303, Control_c, 0, 64, 90
1, 444322, Control_c, 0, 64, 98
1, 444322, Control_c, 1, 64, 98
1, 444343, Control_c, 1, 64, 108
1, 444343, Control_c, 0, 64, 108
1, 444360, Control_c, 0, 64, 127
1, 444360, Control_c, 1, 64, 127
1, 444400, Note_on_c, 0, 56, 41
1, 444400, Note_on_c, 0, 76, 42
1, 444463, Note_off_c, 0, 80, 36
1, 444496, Note_off_c, 0, 52, 29
1, 444702, Note_off_c, 0, 56, 56
1, 444747, Note_on_c, 0, 52, 35
1, 444772, Note_on_c, 0, 83, 45
1, 444889, Note_off_c, 0, 76, 36
1, 445067, Poly_aftertouch_c, 0, 52, 24
1, 445086, Note_on_c, 0, 86, 63
1, 445103, Note_off_c, 0, 64, 40
1, 445129, Note_on_c, 0, 76, 20
1, 445141, Note_off_c, 0, 88, 54
1, 445148, Note_on_c, 0, 62, 17
1, 445150, Note_off_c, 0, 52, 34
1, 445150, Poly_aftertouch_c, 0, 52, 0
1, 445156, Note_off_c, 0, 83, 42
1, 445156, Poly_aftertouch_c, 0, 83, 0
1, 445264, Poly_aftertouch_c, 0, 60, 0
1, 445338, Poly_aftertouch_c, 0, 59, 127
1, 445385, Poly_aftertouch_c, 0, 59, 0
1, 445443, Note_off_c, 0, 62, 48
1, 445470, Note_on_c, 0, 84, 58
1, 445473, Poly_aftertouch_c, 0, 76, 24
1, 445479, Note_on_c, 0, 52, 35
1, 445482, Control_c, 0, 64, 117
1, 445482, Control_c, 1, 64, 117
1, 445484, Note_on_c, 0, 60, 37
1, 445502, Control_c, 0, 64, 82
1, 445502, Control_c, 1, 64, 82
1, 445519, Note_on_c, 0, 81, 26
1, 445521, Note_off_c, 0, 76, 37
1, 445521, Poly_aftertouch_c, 0, 76, 0
1, 445521, Control_c, 0, 64, 61
1, 445521, Control_c, 1, 64, 61
1, 445539, Control_c, 1, 64, 49
1, 445539, Control_c, 0, 64, 49
1, 445576, Control_c, 0, 64, 51
1, 445576, Control_c, 1, 64, 51
1, 445595, Control_c, 1, 64, 61
1, 445595, Control_c, 0, 64, 61
1, 445615, Control_c, 0, 64, 72
1, 445615, Control_c, 1, 64, 72
1, 445634, Control_c, 1, 64, 87
1, 445634, Control_c, 0, 64, 87
1, 445651, Control_c, 0, 64, 111
1, 445651, Control_c, 1, 64, 111
1, 445671, Control_c, 1, 64, 127
1, 445671, Control_c, 0, 64, 127
1, 445813, Note_on_c, 0, 83, 64
1, 445818, Note_on_c, 0, 59, 42
1, 445834, Note_off_c, 0, 81, 42
1, 445834, Poly_aftertouch_c, 0, 81, 0
1, 445845, Note_off_c, 0, 52, 38
1, 445845, Poly_aftertouch_c, 0, 52, 0
1, 445846, Note_on_c, 0, 76, 33
1, 445852, Note_off_c, 0, 60, 37
1, 445859, Note_on_c, 0, 57, 34
1, 445868, Note_off_c, 0, 86, 53
1, 445908, Note_off_c, 0, 84, 47
1, 446135, Note_off_c, 0, 57, 41
1, 446157, Control_c, 0, 64, 99
1, 446157, Control_c, 1, 64, 99
1, 446170, Note_on_c, 0, 52, 34
1, 446175, Note_on_c, 0, 60, 32
1, 446175, Control_c, 0, 64, 71
1, 446175, Control_c, 1, 64, 71
1, 446195, Control_c, 1, 64, 55
1, 446195, Control_c, 0, 64, 55
1, 446204, Note_off_c, 0, 59, 31
1, 446204, Note_on_c, 0, 84, 54
1, 446213, Control_c, 0, 64, 52
1, 446213, Control_c, 1, 64, 52
1, 446228, Note_on_c, 0, 79, 6
1, 446231, Control_c, 0, 64, 55
1, 446231, Control_c, 1, 64, 55
1, 446250, Control_c, 1, 64, 63
1, 446250, Control_c, 0, 64, 63
1, 446269, Control_c, 0, 64, 72
1, 446269, Control_c, 1, 64, 72
1, 446289, Control_c, 1, 64, 86
1, 446289, Control_c, 0, 64, 86
1, 446307, Control_c, 0, 64, 113
1, 446307, Control_c, 1, 64, 113
1, 446325, Control_c, 1, 64, 127
1, 446325, Control_c, 0, 64, 127
1, 446332, Note_off_c, 0, 79, 40
1, 446346, Note_off_c, 0, 84, 60
1, 446346, Note_off_c, 0, 83, 35
1, 446346, Poly_aftertouch_c, 0, 83, 0
1, 446352, Note_on_c, 0, 86, 67
1, 446372, Note_off_c, 0, 76, 35
1, 446372, Poly_aftertouch_c, 0, 76, 0
1, 446482, Note_on_c, 0, 55, 38
1, 446489, Note_off_c, 0, 52, 38
1, 446489, Poly_aftertouch_c, 0, 52, 0
1, 446504, Note_on_c, 0, 84, 66
1, 446516, Note_off_c, 0, 86, 51
1, 446554, Note_off_c, 0, 60, 34
1, 446560, Poly_aftertouch_c, 0, 76, 127
1, 446614, Note_off_c, 0, 84, 60
1, 446622, Note_on_c, 0, 83, 62
1, 446738, Note_off_c, 0, 83, 56
1, 446738, Poly_aftertouch_c, 0, 83, 0
1, 446748, Note_on_c, 0, 84, 59
1, 446980, Control_c, 0, 64, 88
1, 446980, Control_c, 1, 64, 88
1, 446985, Note_off_c, 0, 55, 39
1, 446985, Poly_aftertouch_c, 0, 55, 0
1, 446999, Control_c, 0, 64, 64
1, 446999, Control_c, 1, 64, 64
1, 447012, Note_on_c, 0, 50, 38
1, 447014, Note_on_c, 0, 86, 50
1, 447017, Control_c, 0, 64, 43
1, 447017, Control_c, 1, 64, 43
1, 447038, Control_c, 1, 64, 29
1, 447038, Control_c, 0, 64, 29
1, 447049, Note_on_c, 0, 77, 35
1, 447056, Control_c, 0, 64, 20
1, 447056, Control_c, 1, 64, 20
1, 447066, Note_on_c, 0, 62, 17
1, 447066, Poly_aftertouch_c, 0, 76, 0
1, 447074, Control_c, 0, 64, 15
1, 447074, Control_c, 1, 64, 15
1, 447081, Note_off_c, 0, 84, 56
1, 447169, Control_c, 0, 64, 20
1, 447169, Control_c, 1, 64, 20
1, 447186, Control_c, 1, 64, 30
1, 447186, Control_c, 0, 64, 30
1, 447206, Control_c, 0, 64, 46
1, 447206, Control_c, 1, 64, 46
1, 447224, Control_c, 1, 64, 65
1, 447224, Control_c, 0, 64, 65
1, 447243, Control_c, 0, 64, 78
1, 447243, Control_c, 1, 64, 78
1, 447261, Control_c, 1, 64, 90
1, 447261, Control_c, 0, 64, 90
1, 447280, Control_c, 0, 64, 98
1, 447280, Control_c, 1, 64, 98
1, 447299, Control_c, 1, 64, 106
1, 447299, Control_c, 0, 64, 106
1, 447317, Control_c, 0, 64, 124
1, 447317, Control_c, 1, 64, 124
1, 447450, Note_on_c, 0, 74, 38
1, 447464, Note_off_c, 0, 50, 35
1, 447464, Note_on_c, 0, 53, 39
1, 447509, Note_off_c, 0, 77, 34
1, 447842, Control_c, 0, 64, 114
1, 447842, Control_c, 1, 64, 114
1, 447857, Poly_aftertouch_c, 0, 62, 24
1, 447859, Control_c, 0, 64, 81
1, 447859, Control_c, 1, 64, 81
1, 447879, Control_c, 1, 64, 61
1, 447879, Control_c, 0, 64, 61
1, 447888, Note_on_c, 0, 83, 48
1, 447893, Note_off_c, 0, 53, 54
1, 447897, Control_c, 0, 64, 52
1, 447897, Control_c, 1, 64, 52
1, 447915, Note_on_c, 0, 59, 28
1, 447934, Note_on_c, 0, 50, 40
1, 447934, Control_c, 0, 64, 59
1, 447934, Control_c, 1, 64, 59
1, 447944, Note_off_c, 0, 62, 30
1, 447944, Note_on_c, 0, 77, 27
1, 447944, Poly_aftertouch_c, 0, 62, 0
1, 447952, Control_c, 0, 64, 66
1, 447952, Control_c, 1, 64, 66
1, 447973, Control_c, 1, 64, 76
1, 447973, Control_c, 0, 64, 76
1, 447991, Control_c, 0, 64, 92
1, 447991, Control_c, 1, 64, 92
1, 448010, Control_c, 1, 64, 127
1, 448010, Control_c, 0, 64, 127
1, 448070, Note_off_c, 0, 74, 32
1, 448235, Control_c, 0, 64, 101
1, 448235, Control_c, 1, 64, 101
1, 448253, Control_c, 1, 64, 76
1, 448253, Control_c, 0, 64, 76
1, 448259, Note_on_c, 0, 74, 30
1, 448259, Note_on_c, 0, 81, 65
1, 448261, Note_off_c, 0, 59, 41
1, 448266, Note_off_c, 0, 50, 57
1, 448271, Control_c, 0, 64, 64
1, 448271, Control_c, 1, 64, 64
1, 448275, Note_off_c, 0, 77, 51
1, 448275, Note_on_c, 0, 53, 42
1, 448302, Note_on_c, 0, 57, 40
1, 448310, Control_c, 0, 64, 69
1, 448310, Control_c, 1, 64, 69
1, 448328, Control_c, 1, 64, 77
1, 448328, Control_c, 0, 64, 77
1, 448347, Control_c, 0, 64, 91
1, 448347, Control_c, 1, 64, 91
1, 448366, Control_c, 1, 64, 127
1, 448366, Control_c, 0, 64, 127
1, 448453, Note_off_c, 0, 83, 32
1, 448453, Poly_aftertouch_c, 0, 83, 0
1, 448589, Control_c, 0, 64, 93
1, 448589, Control_c, 1, 64, 93
1, 448598, Note_off_c, 0, 53, 58
1, 448610, Control_c, 0, 64, 64
1, 448610, Control_c, 1, 64, 64
1, 448627, Control_c, 1, 64, 41
1, 448627, Control_c, 0, 64, 41
1, 448632, Note_on_c, 0, 80, 62
1, 448640, Note_on_c, 0, 56, 46
1, 448645, Control_c, 0, 64, 26
1, 448645, Control_c, 1, 64, 26
1, 448670, Note_on_c, 0, 52, 35
1, 448686, Note_off_c, 0, 74, 41
1, 448687, Note_off_c, 0, 81, 60
1, 448687, Poly_aftertouch_c, 0, 81, 0
1, 448713, Poly_aftertouch_c, 0, 83, 0
1, 448720, Note_off_c, 0, 57, 53
1, 448721, Control_c, 0, 64, 46
1, 448721, Control_c, 1, 64, 46
1, 448740, Control_c, 1, 64, 72
1, 448740, Control_c, 0, 64, 72
1, 448743, Note_off_c, 0, 86, 61
1, 448759, Control_c, 0, 64, 105
1, 448759, Control_c, 1, 64, 105
1, 448778, Control_c, 1, 64, 127
1, 448778, Control_c, 0, 64, 127
1, 448786, Note_off_c, 0, 56, 58
1, 448942, Note_on_c, 0, 83, 74
1, 448945, Control_c, 0, 64, 93
1, 448945, Control_c, 1, 64, 93
1, 448965, Control_c, 1, 64, 70
1, 448965, Control_c, 0, 64, 70
1, 448973, Note_on_c, 0, 56, 35
1, 448983, Note_on_c, 0, 59, 41
1, 448983, Control_c, 0, 64, 62
1, 448983, Control_c, 1, 64, 62
1, 448985, Note_on_c, 0, 76, 27
1, 449002, Control_c, 0, 64, 64
1, 449002, Control_c, 1, 64, 64
1, 449016, Note_off_c, 0, 52, 49
1, 449016, Poly_aftertouch_c, 0, 52, 0
1, 449021, Control_c, 0, 64, 70
1, 449021, Control_c, 1, 64, 70
1, 449034, Note_off_c, 0, 80, 58
1, 449038, Control_c, 0, 64, 80
1, 449038, Control_c, 1, 64, 80
1, 449058, Control_c, 1, 64, 102
1, 449058, Control_c, 0, 64, 102
1, 449077, Control_c, 0, 64, 127
1, 449077, Control_c, 1, 64, 127
1, 449299, Note_on_c, 0, 88, 67
1, 449301, Control_c, 0, 64, 101
1, 449301, Control_c, 1, 64, 101
1, 449318, Poly_aftertouch_c, 0, 76, 24
1, 449319, Control_c, 0, 64, 68
1, 449319, Control_c, 1, 64, 68
1, 449323, Note_on_c, 0, 80, 50
1, 449335, Note_on_c, 0, 64, 42
1, 449337, Control_c, 0, 64, 44
1, 449337, Control_c, 1, 64, 44
1, 449339, Note_off_c, 0, 59, 52
1, 449345, Note_off_c, 0, 56, 45
1, 449345, Note_on_c, 0, 52, 46
1, 449352, Note_off_c, 0, 76, 42
1, 449352, Poly_aftertouch_c, 0, 76, 0
1, 449356, Control_c, 0, 64, 29
1, 449356, Control_c, 1, 64, 29
1, 449378, Control_c, 1, 64, 23
1, 449378, Control_c, 0, 64, 23
1, 449386, Note_off_c, 0, 83, 61
1, 449433, Control_c, 0, 64, 30
1, 449433, Control_c, 1, 64, 30
1, 449451, Control_c, 1, 64, 47
1, 449451, Control_c, 0, 64, 47
1, 449470, Control_c, 0, 64, 70
1, 449470, Control_c, 1, 64, 70
1, 449490, Control_c, 1, 64, 97
1, 449490, Control_c, 0, 64, 97
1, 449507, Control_c, 0, 64, 127
1, 449507, Control_c, 1, 64, 127
1, 449659, Note_off_c, 0, 64, 56
1, 449661, Note_on_c, 0, 86, 70
1, 449677, Control_c, 0, 64, 88
1, 449677, Control_c, 1, 64, 88
1, 449688, Note_on_c, 0, 56, 42
1, 449696, Control_c, 0, 64, 67
1, 449696, Control_c, 1, 64, 67
1, 449699, Note_on_c, 0, 62, 47
1, 449709, Note_off_c, 0, 80, 59
1, 449713, Control_c, 0, 64, 59
1, 449713, Control_c, 1, 64, 59
1, 449732, Control_c, 1, 64, 61
1, 449732, Control_c, 0, 64, 61
1, 449751, Control_c, 0, 64, 68
1, 449751, Control_c, 1, 64, 68
1, 449770, Control_c, 1, 64, 78
1, 449770, Control_c, 0, 64, 78
1, 449774, Poly_aftertouch_c, 0, 76, 127
1, 449779, Note_off_c, 0, 88, 62
1, 449788, Control_c, 0, 64, 101
1, 449788, Control_c, 1, 64, 101
1, 449807, Control_c, 1, 64, 127
1, 449807, Control_c, 0, 64, 127
1, 449884, Note_off_c, 0, 52, 32
1, 449884, Poly_aftertouch_c, 0, 52, 0
1, 450040, Note_off_c, 0, 56, 59
1, 450080, Note_on_c, 0, 52, 38
1, 450105, Note_on_c, 0, 61, 33
1, 450107, Control_c, 0, 64, 91
1, 450107, Control_c, 1, 64, 91
1, 450125, Control_c, 1, 64, 63
1, 450125, Control_c, 0, 64, 63
1, 450144, Control_c, 0, 64, 40
1, 450144, Control_c, 1, 64, 40
1, 450150, Note_on_c, 0, 85, 65
1, 450163, Control_c, 0, 64, 25
1, 450163, Control_c, 1, 64, 25
1, 450182, Control_c, 1, 64, 17
1, 450182, Control_c, 0, 64, 17
1, 450187, Note_off_c, 0, 62, 32
1, 450187, Poly_aftertouch_c, 0, 62, 0
1, 450200, Note_on_c, 0, 81, 25
1, 450219, Control_c, 0, 64, 12
1, 450219, Control_c, 1, 64, 12
1, 450233, Poly_aftertouch_c, 0, 76, 0
1, 450259, Note_off_c, 0, 86, 58
1, 450369, Control_c, 0, 64, 27
1, 450369, Control_c, 1, 64, 27
1, 450387, Control_c, 1, 64, 45
1, 450387, Control_c, 0, 64, 45
1, 450406, Control_c, 0, 64, 69
1, 450406, Control_c, 1, 64, 69
1, 450426, Control_c, 1, 64, 89
1, 450426, Control_c, 0, 64, 89
1, 450444, Control_c, 0, 64, 127
1, 450444, Control_c, 1, 64, 127
1, 450515, Note_off_c, 0, 81, 49
1, 450515, Poly_aftertouch_c, 0, 81, 0
1, 450534, Note_on_c, 0, 57, 38
1, 450534, Note_on_c, 0, 76, 47
1, 450660, Note_off_c, 0, 52, 25
1, 450660, Poly_aftertouch_c, 0, 52, 0
1, 450860, Note_off_c, 0, 57, 47
1, 450899, Note_on_c, 0, 52, 37
1, 450916, Note_off_c, 0, 61, 40
1, 450916, Note_on_c, 0, 62, 29
1, 450916, Poly_aftertouch_c, 0, 61, 0
1, 450967, Note_off_c, 0, 85, 64
1, 450975, Note_off_c, 0, 76, 52
1, 451004, Control_c, 0, 64, 93
1, 451004, Control_c, 1, 64, 93
1, 451021, Note_on_c, 0, 86, 51
1, 451025, Control_c, 0, 64, 66
1, 451025, Control_c, 1, 64, 66
1, 451043, Control_c, 1, 64, 54
1, 451043, Control_c, 0, 64, 54
1, 451060, Control_c, 0, 64, 56
1, 451060, Control_c, 1, 64, 56
1, 451080, Control_c, 1, 64, 62
1, 451080, Control_c, 0, 64, 62
1, 451099, Control_c, 0, 64, 69
1, 451099, Control_c, 1, 64, 69
1, 451118, Control_c, 1, 64, 81
1, 451118, Control_c, 0, 64, 81
1, 451137, Control_c, 0, 64, 105
1, 451137, Control_c, 1, 64, 105
1, 451154, Control_c, 1, 64, 127
1, 451154, Control_c, 0, 64, 127
1, 451193, Note_off_c, 0, 86, 61
1, 451217, Note_on_c, 0, 88, 51
1, 451228, Poly_aftertouch_c, 0, 83, 0
1, 451276, Note_off_c, 0, 88, 45
1, 451298, Note_on_c, 0, 76, 37
1, 451359, Note_on_c, 0, 86, 55
1, 451390, Poly_aftertouch_c, 0, 62, 24
1, 451431, Note_on_c, 0, 59, 35
1, 451439, Note_off_c, 0, 86, 54
1, 451448, Note_off_c, 0, 52, 37
1, 451448, Poly_aftertouch_c, 0, 52, 0
1, 451449, Note_off_c, 0, 62, 37
1, 451449, Poly_aftertouch_c, 0, 62, 0
1, 451450, Poly_aftertouch_c, 0, 62, 0
1, 451460, Note_on_c, 0, 88, 45
1, 451505, Note_off_c, 0, 88, 52
1, 451530, Note_on_c, 0, 86, 58
1, 451583, Note_off_c, 0, 86, 57
1, 451610, Note_on_c, 0, 88, 59
1, 451684, Note_on_c, 0, 86, 61
1, 451727, Note_off_c, 0, 88, 58
1, 451772, Note_off_c, 0, 86, 61
1, 451777, Note_on_c, 0, 85, 64
1, 451808, Poly_aftertouch_c, 0, 76, 24
1, 451873, Note_off_c, 0, 76, 38
1, 451873, Poly_aftertouch_c, 0, 76, 0
1, 451893, Note_off_c, 0, 85, 62
1, 451913, Note_on_c, 0, 86, 59
1, 452156, Poly_aftertouch_c, 0, 59, 24
1, 452168, Note_off_c, 0, 59, 56
1, 452168, Poly_aftertouch_c, 0, 59, 0
1, 452220, Note_on_c, 0, 52, 39
1, 452221, Control_c, 0, 64, 100
1, 452221, Control_c, 1, 64, 100
1, 452241, Control_c, 1, 64, 73
1, 452241, Control_c, 0, 64, 73
1, 452259, Control_c, 0, 64, 53
1, 452259, Control_c, 1, 64, 53
1, 452278, Control_c, 1, 64, 38
1, 452278, Control_c, 0, 64, 38
1, 452279, Note_on_c, 0, 88, 45
1, 452295, Poly_aftertouch_c, 0, 64, 127
1, 452295, Control_c, 0, 64, 27
1, 452295, Control_c, 1, 64, 27
1, 452300, Note_on_c, 0, 76, 32
1, 452301, Note_on_c, 0, 85, 40
1, 452316, Control_c, 0, 64, 18
1, 452316, Control_c, 1, 64, 18
1, 452325, Note_off_c, 0, 86, 27
1, 452333, Control_c, 0, 64, 13
1, 452333, Control_c, 1, 64, 13
1, 452428, Control_c, 1, 64, 20
1, 452428, Control_c, 0, 64, 20
1, 452446, Control_c, 0, 64, 30
1, 452446, Control_c, 1, 64, 30
1, 452465, Control_c, 1, 64, 44
1, 452465, Control_c, 0, 64, 44
1, 452483, Control_c, 0, 64, 63
1, 452483, Control_c, 1, 64, 63
1, 452503, Control_c, 1, 64, 76
1, 452503, Control_c, 0, 64, 76
1, 452513, Poly_aftertouch_c, 0, 64, 24
1, 452519, Control_c, 0, 64, 85
1, 452519, Control_c, 1, 64, 85
1, 452540, Control_c, 1, 64, 93
1, 452540, Control_c, 0, 64, 93
1, 452559, Control_c, 0, 64, 103
1, 452559, Control_c, 1, 64, 103
1, 452578, Control_c, 1, 64, 127
1, 452578, Control_c, 0, 64, 127
1, 452782, Poly_aftertouch_c, 0, 64, 32
1, 453010, Note_on_c, 0, 61, 27
1, 453051, Poly_aftertouch_c, 0, 64, 24
1, 453064, Note_off_c, 0, 76, 41
1, 453064, Poly_aftertouch_c, 0, 76, 0
1, 453081, Note_off_c, 0, 52, 39
1, 453081, Poly_aftertouch_c, 0, 52, 0
1, 453119, Note_off_c, 0, 61, 44
1, 453119, Poly_aftertouch_c, 0, 61, 0
1, 453145, Poly_aftertouch_c, 0, 64, 0
1, 453157, Note_off_c, 0, 88, 59
1, 453169, Note_off_c, 0, 85, 56
1, 453494, Note_on_c, 0, 81, 42
1, 453552, Note_on_c, 0, 57, 28
1, 453815, Note_on_c, 0, 85, 57
1, 453836, Note_on_c, 0, 61, 37
1, 454072, Note_on_c, 0, 88, 70
1, 454098, Note_on_c, 0, 64, 38
1, 454199, Note_off_c, 0, 85, 30
1, 454226, Note_off_c, 0, 57, 38
1, 454435, Poly_aftertouch_c, 0, 61, 24
1, 454498, Note_off_c, 0, 61, 36
1, 454498, Poly_aftertouch_c, 0, 61, 0
1, 454504, Note_on_c, 0, 69, 37
1, 454512, Note_on_c, 0, 57, 41
1, 454584, Note_off_c, 0, 64, 26
1, 454597, Note_on_c, 0, 93, 80
1, 454616, Note_off_c, 0, 81, 61
1, 454616, Poly_aftertouch_c, 0, 81, 0
1, 454694, Poly_aftertouch_c, 0, 85, 127
1, 454987, Note_on_c, 0, 61, 46
1, 455005, Note_on_c, 0, 81, 48
1, 455016, Poly_aftertouch_c, 0, 85, 0
1, 455035, Note_off_c, 0, 88, 60
1, 455058, Note_off_c, 0, 57, 52
1, 455088, Poly_aftertouch_c, 0, 90, 0
1, 455295, Note_off_c, 0, 61, 54
1, 455295, Poly_aftertouch_c, 0, 61, 0
1, 455312, Note_on_c, 0, 57, 45
1, 455317, Note_on_c, 0, 86, 64
1, 455326, Poly_aftertouch_c, 0, 69, 24
1, 455369, Note_off_c, 0, 69, 39
1, 455369, Poly_aftertouch_c, 0, 69, 0
1, 455370, Poly_aftertouch_c, 0, 69, 0
1, 455393, Note_off_c, 0, 81, 58
1, 455393, Poly_aftertouch_c, 0, 81, 0
1, 455638, Note_on_c, 0, 92, 87
1, 455663, Note_on_c, 0, 68, 47
1, 455678, Note_off_c, 0, 86, 60
1, 455678, Note_on_c, 0, 81, 38
1, 455681, Note_on_c, 0, 62, 47
1, 455761, Note_off_c, 0, 93, 61
1, 455778, Note_off_c, 0, 57, 33
1, 455879, Note_off_c, 0, 68, 46
1, 456035, Note_off_c, 0, 62, 41
1, 456041, Control_c, 0, 64, 82
1, 456041, Control_c, 1, 64, 82
1, 456050, Note_on_c, 0, 91, 81
1, 456057, Control_c, 0, 64, 58
1, 456057, Control_c, 1, 64, 58
1, 456073, Note_on_c, 0, 67, 46
1, 456076, Control_c, 0, 64, 48
1, 456076, Control_c, 1, 64, 48
1, 456080, Note_on_c, 0, 57, 36
1, 456084, Note_off_c, 0, 92, 58
1, 456115, Control_c, 0, 64, 61
1, 456115, Control_c, 1, 64, 61
1, 456134, Control_c, 1, 64, 82
1, 456134, Control_c, 0, 64, 82
1, 456153, Control_c, 0, 64, 127
1, 456153, Control_c, 1, 64, 127
1, 456233, Note_off_c, 0, 67, 61
1, 456257, Note_off_c, 0, 81, 26
1, 456257, Poly_aftertouch_c, 0, 81, 0
1, 456319, Poly_aftertouch_c, 0, 88, 127
1, 456368, Note_on_c, 0, 93, 82
1, 456388, Poly_aftertouch_c, 0, 90, 127
1, 456393, Note_on_c, 0, 81, 50
1, 456400, Note_off_c, 0, 57, 48
1, 456411, Note_on_c, 0, 64, 40
1, 456414, Note_on_c, 0, 69, 42
1, 456418, Poly_aftertouch_c, 0, 88, 0
1, 456419, Poly_aftertouch_c, 0, 90, 0
1, 456447, Note_off_c, 0, 91, 62
1, 456516, Note_off_c, 0, 69, 53
1, 456714, Control_c, 0, 64, 109
1, 456714, Control_c, 1, 64, 109
1, 456725, Note_on_c, 0, 91, 73
1, 456726, Note_off_c, 0, 64, 53
1, 456732, Control_c, 0, 64, 77
1, 456732, Control_c, 1, 64, 77
1, 456751, Control_c, 1, 64, 64
1, 456751, Control_c, 0, 64, 64
1, 456756, Note_on_c, 0, 57, 38
1, 456762, Note_on_c, 0, 67, 41
1, 456772, Note_off_c, 0, 81, 44
1, 456772, Poly_aftertouch_c, 0, 81, 0
1, 456791, Control_c, 0, 64, 70
1, 456791, Control_c, 1, 64, 70
1, 456807, Control_c, 1, 64, 78
1, 456807, Control_c, 0, 64, 78
1, 456826, Control_c, 0, 64, 93
1, 456826, Control_c, 1, 64, 93
1, 456845, Control_c, 1, 64, 127
1, 456845, Control_c, 0, 64, 127
1, 456848, Note_off_c, 0, 93, 58
1, 456919, Poly_aftertouch_c, 0, 85, 127
1, 457041, Note_off_c, 0, 57, 59
1, 457049, Note_off_c, 0, 67, 54
1, 457053, Note_on_c, 0, 81, 50
1, 457055, Note_on_c, 0, 61, 46
1, 457067, Poly_aftertouch_c, 0, 85, 0
1, 457419, Note_on_c, 0, 90, 82
1, 457425, Control_c, 0, 64, 80
1, 457425, Control_c, 1, 64, 80
1, 457431, Note_off_c, 0, 61, 37
1, 457431, Poly_aftertouch_c, 0, 61, 0
1, 457444, Control_c, 0, 64, 58
1, 457444, Control_c, 1, 64, 58
1, 457459, Note_on_c, 0, 57, 47
1, 457463, Control_c, 0, 64, 44
1, 457463, Control_c, 1, 64, 44
1, 457480, Control_c, 1, 64, 42
1, 457480, Control_c, 0, 64, 42
1, 457487, Note_on_c, 0, 66, 33
1, 457500, Note_on_c, 0, 86, 6
1, 457510, Note_off_c, 0, 81, 56
1, 457510, Poly_aftertouch_c, 0, 81, 0
1, 457519, Control_c, 0, 64, 53
1, 457519, Control_c, 1, 64, 53
1, 457538, Control_c, 1, 64, 67
1, 457538, Control_c, 0, 64, 67
1, 457555, Control_c, 0, 64, 83
1, 457555, Control_c, 1, 64, 83
1, 457575, Control_c, 1, 64, 115
1, 457575, Control_c, 0, 64, 115
1, 457594, Control_c, 0, 64, 127
1, 457594, Control_c, 1, 64, 127
1, 457680, Note_off_c, 0, 91, 31
1, 457744, Note_off_c, 0, 86, 40
1, 457794, Note_off_c, 0, 57, 61
1, 457804, Note_on_c, 0, 62, 46
1, 457805, Note_on_c, 0, 81, 45
1, 458099, Control_c, 0, 64, 111
1, 458099, Control_c, 1, 64, 111
1, 458119, Control_c, 1, 64, 76
1, 458119, Control_c, 0, 64, 76
1, 458133, Note_on_c, 0, 55, 41
1, 458137, Control_c, 0, 64, 59
1, 458137, Control_c, 1, 64, 59
1, 458147, Note_off_c, 0, 81, 56
1, 458147, Poly_aftertouch_c, 0, 81, 0
1, 458150, Note_on_c, 0, 85, 49
1, 458174, Control_c, 0, 64, 62
1, 458174, Control_c, 1, 64, 62
1, 458193, Control_c, 1, 64, 70
1, 458193, Control_c, 0, 64, 70
1, 458194, Note_off_c, 0, 66, 46
1, 458194, Poly_aftertouch_c, 0, 66, 0
1, 458213, Control_c, 0, 64, 88
1, 458213, Control_c, 1, 64, 88
1, 458230, Control_c, 1, 64, 127
1, 458230, Control_c, 0, 64, 127
1, 458278, Note_off_c, 0, 90, 64
1, 458453, Note_off_c, 0, 62, 48
1, 458468, Note_off_c, 0, 55, 42
1, 458468, Poly_aftertouch_c, 0, 55, 0
1, 458471, Note_on_c, 0, 88, 71
1, 458503, Note_on_c, 0, 64, 34
1, 458507, Note_on_c, 0, 61, 41
1, 458509, Note_off_c, 0, 85, 63
1, 458532, Note_on_c, 0, 79, 31
1, 458853, Note_off_c, 0, 64, 46
1, 458862, Note_on_c, 0, 86, 66
1, 458866, Control_c, 0, 64, 86
1, 458866, Control_c, 1, 64, 86
1, 458884, Note_off_c, 0, 79, 43
1, 458885, Control_c, 0, 64, 62
1, 458885, Control_c, 1, 64, 62
1, 458890, Note_on_c, 0, 54, 36
1, 458902, Control_c, 0, 64, 48
1, 458902, Control_c, 1, 64, 48
1, 458906, Note_on_c, 0, 81, 27
1, 458928, Note_off_c, 0, 88, 66
1, 458941, Note_off_c, 0, 61, 25
1, 458941, Poly_aftertouch_c, 0, 61, 0
1, 458945, Note_on_c, 0, 62, 21
1, 458960, Control_c, 0, 64, 58
1, 458960, Control_c, 1, 64, 58
1, 458980, Control_c, 1, 64, 69
1, 458980, Control_c, 0, 64, 69
1, 458998, Control_c, 0, 64, 81
1, 458998, Control_c, 1, 64, 81
1, 459017, Control_c, 1, 64, 100
1, 459017, Control_c, 0, 64, 100
1, 459035, Control_c, 0, 64, 127
1, 459035, Control_c, 1, 64, 127
1, 459215, Note_off_c, 0, 54, 39
1, 459226, Note_on_c, 0, 78, 45
1, 459245, Note_on_c, 0, 57, 41
1, 459312, Note_off_c, 0, 81, 52
1, 459312, Poly_aftertouch_c, 0, 81, 0
1, 459615, Control_c, 0, 64, 82
1, 459615, Control_c, 1, 64, 82
1, 459630, Note_off_c, 0, 57, 53
1, 459633, Control_c, 0, 64, 60
1, 459633, Control_c, 1, 64, 60
1, 459641, Note_on_c, 0, 85, 56
1, 459653, Control_c, 0, 64, 45
1, 459653, Control_c, 1, 64, 45
1, 459667, Note_off_c, 0, 62, 39
1, 459673, Control_c, 0, 64, 42
1, 459673, Control_c, 1, 64, 42
1, 459676, Note_on_c, 0, 54, 23
1, 459694, Note_on_c, 0, 61, 24
1, 459720, Note_on_c, 0, 81, 21
1, 459747, Control_c, 0, 64, 48
1, 459747, Control_c, 1, 64, 48
1, 459765, Control_c, 1, 64, 57
1, 459765, Control_c, 0, 64, 57
1, 459784, Control_c, 0, 64, 69
1, 459784, Control_c, 1, 64, 69
1, 459802, Note_off_c, 0, 78, 48
1, 459802, Poly_aftertouch_c, 0, 78, 0
1, 459803, Control_c, 0, 64, 85
1, 459803, Control_c, 1, 64, 85
1, 459821, Control_c, 1, 64, 118
1, 459821, Control_c, 0, 64, 118
1, 459840, Control_c, 0, 64, 127
1, 459840, Control_c, 1, 64, 127
1, 459955, Note_off_c, 0, 86, 34
1, 460025, Note_off_c, 0, 54, 42
1, 460044, Note_on_c, 0, 57, 32
1, 460046, Note_off_c, 0, 81, 53
1, 460046, Poly_aftertouch_c, 0, 81, 0
1, 460052, Note_on_c, 0, 78, 23
1, 460514, Note_off_c, 0, 57, 23
1, 460532, Note_on_c, 0, 92, 79
1, 460551, Control_c, 0, 64, 91
1, 460551, Control_c, 1, 64, 91
1, 460569, Control_c, 1, 64, 69
1, 460569, Control_c, 0, 64, 69
1, 460575, Note_on_c, 0, 56, 38
1, 460577, Note_on_c, 0, 68, 25
1, 460579, Note_off_c, 0, 78, 51
1, 460579, Poly_aftertouch_c, 0, 78, 0
1, 460590, Control_c, 0, 64, 56
1, 460590, Control_c, 1, 64, 56
1, 460607, Control_c, 1, 64, 53
1, 460607, Note_on_c, 0, 84, 37
1, 460607, Control_c, 0, 64, 53
1, 460665, Control_c, 0, 64, 55
1, 460665, Control_c, 1, 64, 55
1, 460668, Note_off_c, 0, 61, 50
1, 460668, Poly_aftertouch_c, 0, 61, 0
1, 460683, Control_c, 0, 64, 61
1, 460683, Control_c, 1, 64, 61
1, 460701, Control_c, 1, 64, 69
1, 460701, Control_c, 0, 64, 69
1, 460720, Control_c, 0, 64, 81
1, 460720, Control_c, 1, 64, 81
1, 460739, Control_c, 1, 64, 100
1, 460739, Control_c, 0, 64, 100
1, 460742, Note_off_c, 0, 85, 33
1, 460756, Control_c, 0, 64, 127
1, 460756, Control_c, 1, 64, 127
1, 460938, Note_off_c, 0, 56, 51
1, 460972, Note_on_c, 0, 80, 39
1, 460974, Note_on_c, 0, 60, 39
1, 460987, Note_off_c, 0, 84, 50
1, 461320, Note_on_c, 0, 85, 55
1, 461352, Note_on_c, 0, 56, 17
1, 461418, Note_off_c, 0, 80, 46
1, 461456, Note_off_c, 0, 60, 33
1, 461482, Note_off_c, 0, 68, 42
1, 461511, Note_off_c, 0, 92, 55
1, 461646, Note_on_c, 0, 91, 82
1, 461665, Note_off_c, 0, 56, 49
1, 461680, Note_on_c, 0, 80, 41
1, 461692, Note_off_c, 0, 85, 63
1, 461700, Note_on_c, 0, 67, 44
1, 461711, Note_on_c, 0, 61, 33
1, 462068, Control_c, 0, 64, 85
1, 462068, Control_c, 1, 64, 85
1, 462072, Note_on_c, 0, 90, 83
1, 462087, Control_c, 0, 64, 59
1, 462087, Control_c, 1, 64, 59
1, 462095, Note_off_c, 0, 67, 51
1, 462105, Control_c, 0, 64, 41
1, 462105, Control_c, 1, 64, 41
1, 462114, Note_on_c, 0, 56, 42
1, 462123, Note_off_c, 0, 61, 46
1, 462123, Poly_aftertouch_c, 0, 61, 0
1, 462127, Note_on_c, 0, 66, 36
1, 462161, Control_c, 0, 64, 55
1, 462161, Control_c, 1, 64, 55
1, 462172, Note_off_c, 0, 80, 55
1, 462177, Control_c, 0, 64, 75
1, 462177, Control_c, 1, 64, 75
1, 462199, Control_c, 1, 64, 110
1, 462199, Control_c, 0, 64, 110
1, 462218, Control_c, 0, 64, 127
1, 462218, Control_c, 1, 64, 127
1, 462233, Note_on_c, 0, 87, 36
1, 462255, Note_off_c, 0, 91, 62
1, 462393, Note_off_c, 0, 66, 58
1, 462393, Poly_aftertouch_c, 0, 66, 0
1, 462415, Note_off_c, 0, 56, 49
1, 462422, Note_on_c, 0, 92, 80
1, 462430, Note_on_c, 0, 68, 52
1, 462430, Note_on_c, 0, 80, 53
1, 462438, Note_on_c, 0, 63, 44
1, 462445, Note_off_c, 0, 87, 57
1, 462497, Note_off_c, 0, 90, 65
1, 462753, Note_off_c, 0, 63, 55
1, 462760, Note_on_c, 0, 90, 69
1, 462760, Control_c, 0, 64, 76
1, 462760, Control_c, 1, 64, 76
1, 462779, Control_c, 1, 64, 50
1, 462779, Control_c, 0, 64, 50
1, 462781, Note_on_c, 0, 66, 44
1, 462785, Note_on_c, 0, 84, 46
1, 462797, Control_c, 0, 64, 36
1, 462797, Control_c, 1, 64, 36
1, 462803, Note_off_c, 0, 68, 35
1, 462812, Note_on_c, 0, 56, 41
1, 462832, Note_off_c, 0, 92, 65
1, 462873, Control_c, 0, 64, 46
1, 462873, Control_c, 1, 64, 46
1, 462891, Note_off_c, 0, 80, 42
1, 462891, Control_c, 0, 64, 66
1, 462891, Control_c, 1, 64, 66
1, 462910, Control_c, 1, 64, 91
1, 462910, Control_c, 0, 64, 91
1, 462928, Control_c, 0, 64, 127
1, 462928, Control_c, 1, 64, 127
1, 463052, Note_off_c, 0, 56, 52
1, 463112, Note_on_c, 0, 60, 35
1, 463129, Note_on_c, 0, 80, 41
1, 463130, Note_off_c, 0, 84, 61
1, 463479, Note_on_c, 0, 88, 63
1, 463507, Note_off_c, 0, 66, 49
1, 463507, Poly_aftertouch_c, 0, 66, 0
1, 463508, Control_c, 0, 64, 79
1, 463508, Control_c, 1, 64, 79
1, 463527, Control_c, 1, 64, 52
1, 463527, Control_c, 0, 64, 52
1, 463528, Note_on_c, 0, 85, 46
1, 463535, Note_on_c, 0, 56, 30
1, 463537, Note_off_c, 0, 60, 39
1, 463545, Control_c, 0, 64, 31
1, 463545, Control_c, 1, 64, 31
1, 463554, Note_on_c, 0, 64, 35
1, 463564, Control_c, 0, 64, 21
1, 463564, Control_c, 1, 64, 21
1, 463592, Note_off_c, 0, 80, 52
1, 463617, Note_off_c, 0, 90, 64
1, 463640, Control_c, 0, 64, 37
1, 463640, Control_c, 1, 64, 37
1, 463659, Control_c, 1, 64, 58
1, 463659, Control_c, 0, 64, 58
1, 463678, Control_c, 0, 64, 82
1, 463678, Control_c, 1, 64, 82
1, 463696, Control_c, 1, 64, 121
1, 463696, Control_c, 0, 64, 121
1, 463714, Control_c, 0, 64, 127
1, 463714, Control_c, 1, 64, 127
1, 463868, Note_on_c, 0, 61, 38
1, 463871, Note_on_c, 0, 80, 43
1, 463877, Note_off_c, 0, 56, 41
1, 463922, Note_off_c, 0, 85, 45
1, 464182, Control_c, 0, 64, 102
1, 464182, Control_c, 1, 64, 102
1, 464202, Control_c, 1, 64, 69
1, 464202, Control_c, 0, 64, 69
1, 464204, Note_on_c, 0, 54, 32
1, 464214, Note_on_c, 0, 84, 44
1, 464221, Control_c, 0, 64, 47
1, 464221, Control_c, 1, 64, 47
1, 464225, Note_off_c, 0, 61, 38
1, 464225, Poly_aftertouch_c, 0, 61, 0
1, 464239, Control_c, 0, 64, 35
1, 464239, Control_c, 1, 64, 35
1, 464295, Control_c, 1, 64, 48
1, 464295, Control_c, 0, 64, 48
1, 464304, Note_off_c, 0, 80, 46
1, 464314, Control_c, 0, 64, 67
1, 464314, Control_c, 1, 64, 67
1, 464332, Control_c, 1, 64, 90
1, 464332, Control_c, 0, 64, 90
1, 464351, Control_c, 0, 64, 127
1, 464351, Control_c, 1, 64, 127
1, 464536, Note_on_c, 0, 87, 55
1, 464539, Note_off_c, 0, 64, 40
1, 464549, Note_on_c, 0, 78, 37
1, 464550, Note_off_c, 0, 54, 42
1, 464552, Note_off_c, 0, 88, 60
1, 464561, Note_on_c, 0, 63, 39
1, 464563, Note_on_c, 0, 60, 21
1, 464605, Note_off_c, 0, 84, 32
1, 464641, Note_off_c, 0, 63, 62
1, 464645, Note_off_c, 0, 60, 47
1, 464969, Note_on_c, 0, 85, 53
1, 464971, Note_on_c, 0, 80, 43
1, 464987, Control_c, 0, 64, 81
1, 464987, Control_c, 1, 64, 81
1, 465001, Note_on_c, 0, 61, 16
1, 465005, Note_on_c, 0, 52, 25
1, 465009, Control_c, 0, 64, 57
1, 465009, Control_c, 1, 64, 57
1, 465025, Control_c, 1, 64, 40
1, 465025, Control_c, 0, 64, 40
1, 465027, Note_off_c, 0, 87, 63
1, 465044, Control_c, 0, 64, 32
1, 465044, Control_c, 1, 64, 32
1, 465049, Note_off_c, 0, 78, 46
1, 465049, Poly_aftertouch_c, 0, 78, 0
1, 465118, Control_c, 0, 64, 40
1, 465118, Control_c, 1, 64, 40
1, 465138, Control_c, 1, 64, 54
1, 465138, Control_c, 0, 64, 54
1, 465158, Control_c, 0, 64, 72
1, 465158, Control_c, 1, 64, 72
1, 465175, Control_c, 1, 64, 89
1, 465175, Control_c, 0, 64, 89
1, 465194, Control_c, 0, 64, 118
1, 465194, Control_c, 1, 64, 118
1, 465212, Control_c, 1, 64, 127
1, 465212, Control_c, 0, 64, 127
1, 465339, Note_on_c, 0, 56, 33
1, 465356, Note_on_c, 0, 76, 32
1, 465373, Note_off_c, 0, 52, 36
1, 465373, Poly_aftertouch_c, 0, 52, 0
1, 465451, Note_off_c, 0, 80, 44
1, 465656, Note_off_c, 0, 56, 41
1, 465736, Control_c, 0, 64, 94
1, 465736, Control_c, 1, 64, 94
1, 465750, Note_on_c, 0, 83, 43
1, 465755, Control_c, 0, 64, 67
1, 465755, Control_c, 1, 64, 67
1, 465763, Note_on_c, 0, 52, 12
1, 465774, Control_c, 0, 64, 47
1, 465774, Control_c, 1, 64, 47
1, 465785, Note_on_c, 0, 59, 26
1, 465793, Control_c, 0, 64, 35
1, 465793, Control_c, 1, 64, 35
1, 465812, Control_c, 1, 64, 29
1, 465812, Control_c, 0, 64, 29
1, 465820, Note_off_c, 0, 61, 35
1, 465820, Poly_aftertouch_c, 0, 61, 0
1, 465850, Note_off_c, 0, 76, 37
1, 465850, Poly_aftertouch_c, 0, 76, 0
1, 465860, Poly_aftertouch_c, 0, 79, 127
1, 465888, Control_c, 0, 64, 38
1, 465888, Control_c, 1, 64, 38
1, 465905, Control_c, 1, 64, 56
1, 465905, Control_c, 0, 64, 56
1, 465924, Control_c, 0, 64, 78
1, 465924, Control_c, 1, 64, 78
1, 465942, Control_c, 1, 64, 114
1, 465942, Control_c, 0, 64, 114
1, 465958, Note_off_c, 0, 85, 36
1, 465959, Control_c, 0, 64, 127
1, 465959, Control_c, 1, 64, 127
1, 466145, Note_on_c, 0, 76, 31
1, 466157, Note_on_c, 0, 55, 35
1, 466159, Note_off_c, 0, 52, 40
1, 466159, Poly_aftertouch_c, 0, 52, 0
1, 466215, Note_off_c, 0, 83, 58
1, 466226, Poly_aftertouch_c, 0, 79, 0
1, 466710, Note_on_c, 0, 54, 30
1, 466754, Note_on_c, 0, 66, 11
1, 466760, Poly_aftertouch_c, 0, 55, 24
1, 466765, Control_c, 0, 64, 83
1, 466765, Control_c, 1, 64, 83
1, 466784, Control_c, 1, 64, 59
1, 466784, Control_c, 0, 64, 59
1, 466802, Note_on_c, 0, 90, 54
1, 466803, Control_c, 0, 64, 42
1, 466803, Control_c, 1, 64, 42
1, 466806, Note_off_c, 0, 55, 40
1, 466806, Poly_aftertouch_c, 0, 55, 0
1, 466823, Control_c, 0, 64, 35
1, 466823, Control_c, 1, 64, 35
1, 466827, Note_off_c, 0, 59, 35
1, 466827, Poly_aftertouch_c, 0, 59, 0
1, 466852, Note_on_c, 0, 82, 30
1, 466864, Note_off_c, 0, 76, 38
1, 466864, Poly_aftertouch_c, 0, 76, 0
1, 466915, Control_c, 0, 64, 45
1, 466915, Control_c, 1, 64, 45
1, 466935, Control_c, 1, 64, 59
1, 466935, Control_c, 0, 64, 59
1, 466953, Control_c, 0, 64, 72
1, 466953, Control_c, 1, 64, 72
1, 466972, Control_c, 1, 64, 84
1, 466972, Control_c, 0, 64, 84
1, 466991, Control_c, 0, 64, 101
1, 466991, Control_c, 1, 64, 101
1, 467003, Poly_aftertouch_c, 0, 87, 0
1, 467009, Control_c, 0, 64, 127
1, 467009, Control_c, 1, 64, 127
1, 467197, Note_on_c, 0, 78, 33
1, 467208, Note_on_c, 0, 58, 30
1, 467233, Note_off_c, 0, 82, 48
1, 467240, Note_off_c, 0, 54, 42
1, 467519, Note_on_c, 0, 85, 49
1, 467530, Note_on_c, 0, 54, 34
1, 467581, Note_off_c, 0, 78, 43
1, 467581, Poly_aftertouch_c, 0, 78, 0
1, 467583, Note_off_c, 0, 90, 61
1, 467835, Poly_aftertouch_c, 0, 58, 24
1, 467855, Note_on_c, 0, 88, 57
1, 467862, Note_on_c, 0, 64, 57
1, 467878, Note_off_c, 0, 58, 41
1, 467878, Note_off_c, 0, 54, 43
1, 467878, Poly_aftertouch_c, 0, 58, 0
1, 467879, Note_off_c, 0, 66, 41
1, 467879, Poly_aftertouch_c, 0, 66, 0
1, 467905, Note_on_c, 0, 61, 31
1, 467919, Note_off_c, 0, 85, 45
1, 467937, Note_on_c, 0, 78, 22
1, 468054, Note_off_c, 0, 61, 64
1, 468054, Note_on_c, 0, 61, 6
1, 468193, Note_off_c, 0, 64, 52
1, 468207, Control_c, 0, 64, 99
1, 468207, Control_c, 1, 64, 99
1, 468210, Note_on_c, 0, 54, 50
1, 468225, Control_c, 0, 64, 73
1, 468225, Control_c, 1, 64, 73
1, 468229, Note_on_c, 0, 86, 57
1, 468234, Note_off_c, 0, 78, 49
1, 468234, Poly_aftertouch_c, 0, 78, 0
1, 468239, Note_off_c, 0, 61, 41
1, 468239, Poly_aftertouch_c, 0, 61, 0
1, 468244, Control_c, 0, 64, 59
1, 468244, Control_c, 1, 64, 59
1, 468258, Note_on_c, 0, 83, 30
1, 468260, Note_on_c, 0, 62, 50
1, 468262, Control_c, 0, 64, 57
1, 468262, Control_c, 1, 64, 57
1, 468282, Control_c, 1, 64, 59
1, 468282, Control_c, 0, 64, 59
1, 468301, Control_c, 0, 64, 65
1, 468301, Control_c, 1, 64, 65
1, 468319, Control_c, 1, 64, 72
1, 468319, Control_c, 0, 64, 72
1, 468338, Control_c, 0, 64, 79
1, 468338, Control_c, 1, 64, 79
1, 468358, Control_c, 1, 64, 89
1, 468358, Control_c, 0, 64, 89
1, 468376, Control_c, 0, 64, 105
1, 468376, Control_c, 1, 64, 105
1, 468394, Control_c, 1, 64, 127
1, 468394, Control_c, 0, 64, 127
1, 468400, Poly_aftertouch_c, 0, 82, 0
1, 468531, Note_off_c, 0, 88, 53
1, 468548, Note_on_c, 0, 61, 51
1, 468556, Note_on_c, 0, 85, 60
1, 468563, Note_off_c, 0, 83, 43
1, 468573, Note_off_c, 0, 62, 52
1, 468600, Note_on_c, 0, 78, 27
1, 468609, Note_off_c, 0, 86, 49
1, 468613, Note_on_c, 0, 59, 35
1, 468626, Note_off_c, 0, 54, 32
1, 468874, Poly_aftertouch_c, 0, 59, 24
1, 468879, Control_c, 0, 64, 93
1, 468879, Control_c, 1, 64, 93
1, 468899, Note_on_c, 0, 86, 51
1, 468902, Note_off_c, 0, 59, 48
1, 468902, Poly_aftertouch_c, 0, 59, 0
1, 468902, Control_c, 0, 64, 65
1, 468902, Control_c, 1, 64, 65
1, 468907, Note_on_c, 0, 62, 42
1, 468909, Note_off_c, 0, 78, 48
1, 468909, Poly_aftertouch_c, 0, 78, 0
1, 468917, Note_on_c, 0, 81, 28
1, 468919, Control_c, 0, 64, 44
1, 468919, Control_c, 1, 64, 44
1, 468925, Note_off_c, 0, 61, 47
1, 468925, Poly_aftertouch_c, 0, 61, 0
1, 468934, Note_off_c, 0, 85, 35
1, 468936, Control_c, 0, 64, 30
1, 468936, Control_c, 1, 64, 30
1, 468945, Note_on_c, 0, 53, 36
1, 468956, Control_c, 0, 64, 23
1, 468956, Control_c, 1, 64, 23
1, 469050, Control_c, 1, 64, 32
1, 469050, Control_c, 0, 64, 32
1, 469068, Control_c, 0, 64, 45
1, 469068, Control_c, 1, 64, 45
1, 469088, Control_c, 1, 64, 64
1, 469088, Control_c, 0, 64, 64
1, 469106, Control_c, 0, 64, 79
1, 469106, Control_c, 1, 64, 79
1, 469125, Control_c, 1, 64, 96
1, 469125, Control_c, 0, 64, 96
1, 469145, Control_c, 0, 64, 116
1, 469145, Control_c, 1, 64, 116
1, 469162, Control_c, 1, 64, 127
1, 469162, Control_c, 0, 64, 127
1, 469249, Note_off_c, 0, 81, 44
1, 469249, Poly_aftertouch_c, 0, 81, 0
1, 469259, Note_off_c, 0, 53, 31
1, 469259, Note_on_c, 0, 77, 39
1, 469272, Note_on_c, 0, 57, 32
1, 469377, Note_off_c, 0, 62, 28
1, 469605, Note_off_c, 0, 57, 52
1, 469639, Note_on_c, 0, 52, 42
1, 469663, Note_on_c, 0, 64, 28
1, 469686, Control_c, 0, 64, 89
1, 469686, Control_c, 1, 64, 89
1, 469704, Control_c, 1, 64, 65
1, 469704, Control_c, 0, 64, 65
1, 469716, Note_on_c, 0, 88, 48
1, 469720, Note_on_c, 0, 80, 33
1, 469721, Control_c, 0, 64, 47
1, 469721, Control_c, 1, 64, 47
1, 469732, Note_off_c, 0, 77, 37
1, 469733, Poly_aftertouch_c, 0, 77, 0
1, 469741, Control_c, 0, 64, 33
1, 469741, Control_c, 1, 64, 33
1, 469762, Control_c, 1, 64, 23
1, 469762, Control_c, 0, 64, 23
1, 469780, Control_c, 0, 64, 16
1, 469780, Control_c, 1, 64, 16
1, 469816, Note_off_c, 0, 86, 55
1, 469891, Control_c, 0, 64, 28
1, 469891, Control_c, 1, 64, 28
1, 469911, Control_c, 1, 64, 38
1, 469911, Control_c, 0, 64, 38
1, 469929, Control_c, 0, 64, 53
1, 469929, Control_c, 1, 64, 53
1, 469948, Control_c, 1, 64, 67
1, 469948, Control_c, 0, 64, 67
1, 469967, Control_c, 0, 64, 75
1, 469967, Control_c, 1, 64, 75
1, 469985, Control_c, 1, 64, 77
1, 469985, Control_c, 0, 64, 77
1, 470004, Control_c, 0, 64, 80
1, 470004, Control_c, 1, 64, 80
1, 470024, Control_c, 1, 64, 85
1, 470024, Control_c, 0, 64, 85
1, 470042, Control_c, 0, 64, 95
1, 470042, Control_c, 1, 64, 95
1, 470061, Control_c, 1, 64, 116
1, 470061, Control_c, 0, 64, 116
1, 470079, Control_c, 0, 64, 127
1, 470079, Control_c, 1, 64, 127
1, 470097, Note_off_c, 0, 80, 48
1, 470101, Note_on_c, 0, 76, 40
1, 470102, Note_on_c, 0, 56, 36
1, 470208, Note_off_c, 0, 52, 36
1, 470208, Poly_aftertouch_c, 0, 52, 0
1, 470392, Note_off_c, 0, 56, 49
1, 470434, Note_on_c, 0, 52, 41
1, 470439, Note_on_c, 0, 83, 29
1, 470524, Note_off_c, 0, 76, 40
1, 470524, Poly_aftertouch_c, 0, 76, 0
1, 470746, Note_on_c, 0, 62, 42
1, 470747, Note_off_c, 0, 64, 40
1, 470751, Note_on_c, 0, 86, 60
1, 470763, Note_on_c, 0, 76, 40
1, 470773, Note_on_c, 0, 59, 52
1, 470788, Note_off_c, 0, 83, 44
1, 470827, Note_off_c, 0, 88, 44
1, 470842, Note_off_c, 0, 52, 32
1, 470842, Poly_aftertouch_c, 0, 52, 0
1, 471045, Note_off_c, 0, 59, 55
1, 471045, Poly_aftertouch_c, 0, 59, 0
1, 471082, Note_off_c, 0, 62, 60
1, 471090, Control_c, 0, 64, 94
1, 471090, Control_c, 1, 64, 94
1, 471106, Note_on_c, 0, 52, 39
1, 471108, Control_c, 0, 64, 66
1, 471108, Control_c, 1, 64, 66
1, 471109, Note_on_c, 0, 84, 64
1, 471121, Note_on_c, 0, 60, 47
1, 471125, Control_c, 0, 64, 46
1, 471125, Control_c, 1, 64, 46
1, 471140, Note_off_c, 0, 76, 47
1, 471140, Poly_aftertouch_c, 0, 76, 0
1, 471144, Note_on_c, 0, 81, 34
1, 471145, Control_c, 0, 64, 36
1, 471145, Control_c, 1, 64, 36
1, 471202, Control_c, 1, 64, 44
1, 471202, Control_c, 0, 64, 44
1, 471222, Control_c, 0, 64, 58
1, 471222, Control_c, 1, 64, 58
1, 471240, Control_c, 1, 64, 73
1, 471240, Control_c, 0, 64, 73
1, 471258, Control_c, 0, 64, 90
1, 471258, Control_c, 1, 64, 90
1, 471278, Control_c, 1, 64, 127
1, 471278, Control_c, 0, 64, 127
1, 471393, Note_on_c, 0, 59, 47
1, 471401, Note_on_c, 0, 83, 67
1, 471403, Note_off_c, 0, 52, 47
1, 471403, Poly_aftertouch_c, 0, 52, 0
1, 471428, Note_off_c, 0, 81, 51
1, 471428, Poly_aftertouch_c, 0, 81, 0
1, 471432, Note_on_c, 0, 76, 41
1, 471434, Note_off_c, 0, 86, 54
1, 471463, Note_off_c, 0, 60, 54
1, 471469, Note_off_c, 0, 84, 54
1, 471559, Poly_aftertouch_c, 0, 57, 127
1, 471737, Note_on_c, 0, 84, 62
1, 471747, Note_on_c, 0, 60, 38
1, 471747, Control_c, 0, 64, 93
1, 471747, Control_c, 1, 64, 93
1, 471748, Poly_aftertouch_c, 0, 57, 0
1, 471764, Control_c, 0, 64, 65
1, 471764, Control_c, 1, 64, 65
1, 471768, Note_off_c, 0, 59, 47
1, 471768, Poly_aftertouch_c, 0, 59, 0
1, 471774, Note_on_c, 0, 52, 36
1, 471783, Note_on_c, 0, 79, 28
1, 471783, Control_c, 0, 64, 44
1, 471783, Control_c, 1, 64, 44
1, 471801, Control_c, 1, 64, 32
1, 471801, Control_c, 0, 64, 32
1, 471820, Control_c, 0, 64, 28
1, 471820, Control_c, 1, 64, 28
1, 471864, Note_off_c, 0, 76, 44
1, 471864, Poly_aftertouch_c, 0, 76, 0
1, 471876, Control_c, 0, 64, 39
1, 471876, Control_c, 1, 64, 39
1, 471891, Note_off_c, 0, 83, 28
1, 471894, Control_c, 0, 64, 57
1, 471894, Control_c, 1, 64, 57
1, 471913, Note_on_c, 0, 86, 61
1, 471914, Control_c, 0, 64, 76
1, 471914, Control_c, 1, 64, 76
1, 471920, Note_off_c, 0, 84, 57
1, 471932, Control_c, 0, 64, 97
1, 471932, Control_c, 1, 64, 97
1, 471952, Control_c, 1, 64, 127
1, 471952, Control_c, 0, 64, 127
1, 472005, Note_off_c, 0, 79, 38
1, 472026, Note_on_c, 0, 76, 36
1, 472070, Note_on_c, 0, 84, 60
1, 472096, Note_on_c, 0, 55, 42
1, 472106, Note_off_c, 0, 86, 36
1, 472123, Note_off_c, 0, 52, 40
1, 472123, Poly_aftertouch_c, 0, 52, 0
1, 472162, Note_off_c, 0, 60, 40
1, 472171, Note_off_c, 0, 84, 61
1, 472184, Note_on_c, 0, 83, 64
1, 472307, Note_off_c, 0, 83, 56
1, 472313, Note_on_c, 0, 84, 62
1, 472588, Control_c, 0, 64, 87
1, 472588, Control_c, 1, 64, 87
1, 472608, Control_c, 1, 64, 66
1, 472608, Control_c, 0, 64, 66
1, 472615, Note_on_c, 0, 86, 48
1, 472616, Note_off_c, 0, 55, 43
1, 472616, Poly_aftertouch_c, 0, 55, 0
1, 472625, Control_c, 0, 64, 51
1, 472625, Control_c, 1, 64, 51
1, 472627, Note_off_c, 0, 76, 45
1, 472627, Poly_aftertouch_c, 0, 76, 0
1, 472639, Note_on_c, 0, 77, 35
1, 472643, Note_on_c, 0, 62, 39
1, 472644, Note_on_c, 0, 50, 40
1, 472644, Control_c, 0, 64, 42
1, 472644, Control_c, 1, 64, 42
1, 472662, Control_c, 1, 64, 36
1, 472662, Control_c, 0, 64, 36
1, 472680, Control_c, 0, 64, 28
1, 472680, Control_c, 1, 64, 28
1, 472700, Control_c, 1, 64, 21
1, 472700, Control_c, 0, 64, 21
1, 472717, Note_off_c, 0, 84, 53
1, 472737, Control_c, 0, 64, 17
1, 472737, Control_c, 1, 64, 17
1, 472793, Control_c, 1, 64, 23
1, 472793, Control_c, 0, 64, 23
1, 472812, Control_c, 0, 64, 34
1, 472812, Control_c, 1, 64, 34
1, 472831, Control_c, 1, 64, 51
1, 472831, Control_c, 0, 64, 51
1, 472850, Control_c, 0, 64, 71
1, 472850, Control_c, 1, 64, 71
1, 472871, Control_c, 1, 64, 87
1, 472871, Control_c, 0, 64, 87
1, 472887, Control_c, 0, 64, 106
1, 472887, Control_c, 1, 64, 106
1, 472906, Control_c, 1, 64, 127
1, 472906, Control_c, 0, 64, 127
1, 472989, Note_off_c, 0, 50, 52
1, 473011, Note_on_c, 0, 74, 37
1, 473014, Note_on_c, 0, 53, 37
1, 473022, Note_off_c, 0, 77, 53
1, 473352, Note_on_c, 0, 83, 57
1, 473374, Control_c, 0, 64, 111
1, 473374, Control_c, 1, 64, 111
1, 473390, Note_off_c, 0, 53, 40
1, 473390, Note_on_c, 0, 50, 44
1, 473392, Note_on_c, 0, 59, 34
1, 473392, Control_c, 0, 64, 118
1, 473392, Control_c, 1, 64, 118
1, 473396, Note_off_c, 0, 62, 40
1, 473398, Note_on_c, 0, 77, 26
1, 473411, Control_c, 0, 64, 127
1, 473411, Control_c, 1, 64, 127
1, 473482, Note_off_c, 0, 74, 39
1, 473686, Note_off_c, 0, 59, 55
1, 473686, Poly_aftertouch_c, 0, 59, 0
1, 473693, Note_on_c, 0, 81, 66
1, 473726, Note_off_c, 0, 77, 51
1, 473730, Note_on_c, 0, 57, 41
1, 473733, Note_on_c, 0, 53, 47
1, 473745, Note_on_c, 0, 74, 15
1, 473766, Note_off_c, 0, 50, 45
1, 473991, Note_off_c, 0, 83, 22
1, 474010, Control_c, 0, 64, 102
1, 474010, Control_c, 1, 64, 102
1, 474028, Note_off_c, 0, 53, 55
1, 474030, Control_c, 0, 64, 69
1, 474030, Control_c, 1, 64, 69
1, 474034, Poly_aftertouch_c, 0, 74, 24
1, 474049, Control_c, 0, 64, 44
1, 474049, Control_c, 1, 64, 44
1, 474051, Note_on_c, 0, 80, 59
1, 474066, Control_c, 0, 64, 26
1, 474066, Control_c, 1, 64, 26
1, 474080, Note_off_c, 0, 74, 39
1, 474080, Note_on_c, 0, 56, 40
1, 474080, Poly_aftertouch_c, 0, 74, 0
1, 474085, Control_c, 0, 64, 20
1, 474085, Control_c, 1, 64, 20
1, 474088, Note_on_c, 0, 52, 42
1, 474113, Note_off_c, 0, 57, 37
1, 474119, Note_off_c, 0, 81, 57
1, 474119, Poly_aftertouch_c, 0, 81, 0
1, 474137, Poly_aftertouch_c, 0, 83, 0
1, 474143, Control_c, 0, 64, 34
1, 474143, Control_c, 1, 64, 34
1, 474159, Control_c, 1, 64, 55
1, 474159, Control_c, 0, 64, 55
1, 474165, Note_off_c, 0, 86, 59
1, 474180, Control_c, 0, 64, 78
1, 474180, Control_c, 1, 64, 78
1, 474197, Control_c, 1, 64, 105
1, 474197, Control_c, 0, 64, 105
1, 474204, Note_off_c, 0, 56, 58
1, 474216, Control_c, 0, 64, 127
1, 474216, Control_c, 1, 64, 127
1, 474364, Note_on_c, 0, 83, 67
1, 474380, Note_on_c, 0, 56, 46
1, 474401, Note_off_c, 0, 52, 52
1, 474401, Note_on_c, 0, 59, 47
1, 474401, Poly_aftertouch_c, 0, 52, 0
1, 474409, Note_on_c, 0, 76, 11
1, 474424, Note_off_c, 0, 80, 61
1, 474694, Poly_aftertouch_c, 0, 76, 24
1, 474701, Control_c, 0, 64, 119
1, 474701, Control_c, 1, 64, 119
1, 474717, Note_on_c, 0, 88, 60
1, 474721, Control_c, 0, 64, 78
1, 474721, Control_c, 1, 64, 78
1, 474738, Note_off_c, 0, 56, 53
1, 474739, Control_c, 0, 64, 55
1, 474739, Control_c, 1, 64, 55
1, 474742, Note_on_c, 0, 64, 38
1, 474747, Note_off_c, 0, 76, 39
1, 474747, Poly_aftertouch_c, 0, 76, 0
1, 474751, Note_on_c, 0, 80, 42
1, 474752, Note_off_c, 0, 59, 54
1, 474752, Poly_aftertouch_c, 0, 59, 0
1, 474758, Control_c, 0, 64, 41
1, 474758, Control_c, 1, 64, 41
1, 474764, Note_on_c, 0, 52, 44
1, 474772, Note_off_c, 0, 83, 58
1, 474815, Control_c, 0, 64, 48
1, 474815, Control_c, 1, 64, 48
1, 474833, Control_c, 1, 64, 62
1, 474833, Control_c, 0, 64, 62
1, 474853, Control_c, 0, 64, 78
1, 474853, Control_c, 1, 64, 78
1, 474870, Control_c, 1, 64, 98
1, 474870, Control_c, 0, 64, 98
1, 474890, Control_c, 0, 64, 127
1, 474890, Control_c, 1, 64, 127
1, 475016, Note_off_c, 0, 64, 56
1, 475038, Note_on_c, 0, 86, 62
1, 475060, Note_off_c, 0, 80, 53
1, 475061, Note_on_c, 0, 62, 41
1, 475065, Note_on_c, 0, 56, 38
1, 475100, Note_off_c, 0, 88, 46
1, 475140, Poly_aftertouch_c, 0, 76, 127
1, 475236, Note_off_c, 0, 52, 36
1, 475236, Poly_aftertouch_c, 0, 52, 0
1, 475407, Note_off_c, 0, 56, 59
1, 475463, Note_on_c, 0, 52, 30
1, 475465, Note_on_c, 0, 61, 39
1, 475470, Control_c, 0, 64, 87
1, 475470, Control_c, 1, 64, 87
1, 475484, Poly_aftertouch_c, 0, 76, 24
1, 475488, Control_c, 0, 64, 61
1, 475488, Control_c, 1, 64, 61
1, 475495, Note_on_c, 0, 85, 56
1, 475508, Control_c, 0, 64, 38
1, 475508, Control_c, 1, 64, 38
1, 475518, Poly_aftertouch_c, 0, 76, 0
1, 475522, Note_off_c, 0, 62, 36
1, 475526, Control_c, 0, 64, 24
1, 475526, Control_c, 1, 64, 24
1, 475544, Control_c, 1, 64, 19
1, 475544, Control_c, 0, 64, 19
1, 475598, Note_off_c, 0, 86, 55
1, 475620, Control_c, 0, 64, 30
1, 475620, Control_c, 1, 64, 30
1, 475639, Control_c, 1, 64, 46
1, 475639, Control_c, 0, 64, 46
1, 475658, Control_c, 0, 64, 66
1, 475658, Control_c, 1, 64, 66
1, 475676, Control_c, 1, 64, 82
1, 475676, Control_c, 0, 64, 82
1, 475694, Control_c, 0, 64, 99
1, 475694, Control_c, 1, 64, 99
1, 475696, Poly_aftertouch_c, 0, 81, 127
1, 475713, Control_c, 0, 64, 112
1, 475713, Control_c, 1, 64, 112
1, 475732, Control_c, 1, 64, 127
1, 475732, Control_c, 0, 64, 127
1, 475840, Poly_aftertouch_c, 0, 81, 0
1, 475855, Note_on_c, 0, 76, 33
1, 475862, Note_on_c, 0, 57, 31
1, 475989, Note_off_c, 0, 52, 36
1, 475989, Poly_aftertouch_c, 0, 52, 0
1, 476161, Note_off_c, 0, 57, 39
1, 476171, Note_on_c, 0, 52, 44
1, 476189, Note_on_c, 0, 62, 38
1, 476201, Note_off_c, 0, 85, 63
1, 476209, Note_off_c, 0, 61, 34
1, 476209, Poly_aftertouch_c, 0, 61, 0
1, 476219, Control_c, 0, 64, 118
1, 476219, Control_c, 1, 64, 118
1, 476238, Control_c, 1, 64, 83
1, 476238, Control_c, 0, 64, 83
1, 476257, Note_off_c, 0, 76, 39
1, 476257, Control_c, 0, 64, 65
1, 476257, Control_c, 1, 64, 65
1, 476273, Note_on_c, 0, 86, 51
1, 476275, Control_c, 0, 64, 61
1, 476275, Control_c, 1, 64, 61
1, 476294, Control_c, 1, 64, 64
1, 476294, Control_c, 0, 64, 64
1, 476312, Control_c, 0, 64, 69
1, 476312, Control_c, 1, 64, 69
1, 476332, Control_c, 1, 64, 76
1, 476332, Control_c, 0, 64, 76
1, 476349, Control_c, 0, 64, 88
1, 476349, Control_c, 1, 64, 88
1, 476369, Control_c, 1, 64, 114
1, 476369, Control_c, 0, 64, 114
1, 476388, Control_c, 0, 64, 127
1, 476388, Control_c, 1, 64, 127
1, 476414, Note_off_c, 0, 86, 62
1, 476432, Note_on_c, 0, 88, 55
1, 476434, Poly_aftertouch_c, 0, 83, 0
1, 476516, Note_off_c, 0, 88, 51
1, 476531, Note_on_c, 0, 76, 34
1, 476570, Note_on_c, 0, 86, 56
1, 476620, Note_off_c, 0, 86, 61
1, 476660, Note_on_c, 0, 88, 49
1, 476706, Poly_aftertouch_c, 0, 62, 24
1, 476708, Note_off_c, 0, 88, 59
1, 476720, Note_on_c, 0, 59, 38
1, 476747, Note_on_c, 0, 86, 57
1, 476794, Note_off_c, 0, 86, 62
1, 476819, Note_off_c, 0, 62, 39
1, 476819, Poly_aftertouch_c, 0, 62, 0
1, 476820, Poly_aftertouch_c, 0, 62, 0
1, 476821, Note_on_c, 0, 88, 54
1, 476850, Note_off_c, 0, 52, 37
1, 476850, Poly_aftertouch_c, 0, 52, 0
1, 476857, Note_off_c, 0, 88, 52
1, 476889, Note_on_c, 0, 86, 58
1, 476899, Poly_aftertouch_c, 0, 76, 24
1, 476934, Note_off_c, 0, 86, 62
1, 476953, Note_on_c, 0, 88, 64
1, 477013, Note_off_c, 0, 88, 55
1, 477046, Note_on_c, 0, 86, 56
1, 477092, Note_off_c, 0, 86, 61
1, 477101, Note_off_c, 0, 76, 34
1, 477101, Poly_aftertouch_c, 0, 76, 0
1, 477102, Poly_aftertouch_c, 0, 76, 0
1, 477111, Note_on_c, 0, 85, 54
1, 477213, Note_off_c, 0, 85, 60
1, 477245, Note_on_c, 0, 86, 51
1, 477511, Control_c, 0, 64, 99
1, 477511, Control_c, 1, 64, 99
1, 477529, Control_c, 1, 64, 72
1, 477529, Control_c, 0, 64, 72
1, 477531, Note_off_c, 0, 59, 58
1, 477531, Poly_aftertouch_c, 0, 59, 0
1, 477548, Control_c, 0, 64, 53
1, 477548, Control_c, 1, 64, 53
1, 477566, Control_c, 1, 64, 40
1, 477566, Control_c, 0, 64, 40
1, 477581, Note_on_c, 0, 64, 11
1, 477582, Note_on_c, 0, 85, 36
1, 477584, Control_c, 0, 64, 30
1, 477584, Control_c, 1, 64, 30
1, 477586, Note_on_c, 0, 52, 26
1, 477590, Note_on_c, 0, 88, 45
1, 477604, Note_on_c, 0, 76, 23
1, 477604, Control_c, 0, 64, 23
1, 477604, Control_c, 1, 64, 23
1, 477623, Control_c, 1, 64, 16
1, 477623, Control_c, 0, 64, 16
1, 477632, Note_off_c, 0, 86, 31
1, 477641, Control_c, 0, 64, 12
1, 477641, Control_c, 1, 64, 12
1, 477717, Control_c, 1, 64, 8
1, 477717, Control_c, 0, 64, 8
1, 477847, Control_c, 0, 64, 14
1, 477847, Control_c, 1, 64, 14
1, 477866, Control_c, 1, 64, 20
1, 477866, Control_c, 0, 64, 20
1, 477884, Control_c, 0, 64, 27
1, 477884, Control_c, 1, 64, 27
1, 477903, Control_c, 1, 64, 37
1, 477903, Control_c, 0, 64, 37
1, 477922, Control_c, 0, 64, 52
1, 477922, Control_c, 1, 64, 52
1, 477941, Control_c, 1, 64, 65
1, 477941, Control_c, 0, 64, 65
1, 477959, Control_c, 0, 64, 71
1, 477959, Control_c, 1, 64, 71
1, 477997, Control_c, 1, 64, 74
1, 477997, Control_c, 0, 64, 74
1, 478015, Control_c, 0, 64, 76
1, 478015, Control_c, 1, 64, 76
1, 478034, Control_c, 1, 64, 82
1, 478034, Control_c, 0, 64, 82
1, 478053, Control_c, 0, 64, 92
1, 478053, Control_c, 1, 64, 92
1, 478072, Control_c, 1, 64, 104
1, 478072, Control_c, 0, 64, 104
1, 478090, Control_c, 0, 64, 121
1, 478090, Control_c, 1, 64, 121
1, 478109, Control_c, 1, 64, 127
1, 478109, Control_c, 0, 64, 127
1, 478421, Note_on_c, 0, 61, 21
1, 479207, Note_off_c, 0, 52, 41
1, 479207, Poly_aftertouch_c, 0, 52, 0
1, 479237, Note_off_c, 0, 61, 53
1, 479237, Poly_aftertouch_c, 0, 61, 0
1, 479260, Note_off_c, 0, 85, 57
1, 479264, Note_off_c, 0, 76, 39
1, 479265, Note_off_c, 0, 88, 52
1, 479269, Note_off_c, 0, 64, 38
1, 480118, Note_on_c, 0, 57, 37
1, 480149, Control_c, 0, 64, 90
1, 480149, Control_c, 1, 64, 90
1, 480169, Control_c, 1, 64, 69
1, 480169, Control_c, 0, 64, 69
1, 480187, Control_c, 0, 64, 57
1, 480187, Control_c, 1, 64, 57
1, 480224, Control_c, 1, 64, 62
1, 480224, Control_c, 0, 64, 62
1, 480243, Control_c, 0, 64, 72
1, 480243, Control_c, 1, 64, 72
1, 480262, Control_c, 1, 64, 89
1, 480262, Control_c, 0, 64, 89
1, 480281, Control_c, 0, 64, 127
1, 480281, Control_c, 1, 64, 127
1, 480540, Note_on_c, 0, 64, 50
1, 480561, Note_off_c, 0, 57, 52
1, 481011, Control_c, 0, 64, 95
1, 481011, Control_c, 1, 64, 95
1, 481021, Note_on_c, 0, 73, 59
1, 481029, Control_c, 0, 64, 81
1, 481029, Control_c, 1, 64, 81
1, 481067, Control_c, 1, 64, 89
1, 481067, Control_c, 0, 64, 89
1, 481076, Note_on_c, 0, 69, 10
1, 481084, Control_c, 0, 64, 103
1, 481084, Control_c, 1, 64, 103
1, 481104, Control_c, 1, 64, 127
1, 481104, Control_c, 0, 64, 127
1, 481242, Note_off_c, 0, 69, 34
1, 481263, Note_on_c, 0, 81, 52
1, 481381, Note_on_c, 0, 68, 54
1, 481412, Note_off_c, 0, 73, 60
1, 481476, Note_on_c, 0, 88, 57
1, 481477, Note_off_c, 0, 81, 55
1, 481683, Note_off_c, 0, 88, 63
1, 481695, Note_off_c, 0, 68, 53
1, 481699, Note_on_c, 0, 85, 60
1, 481701, Note_off_c, 0, 64, 56
1, 481702, Control_c, 0, 64, 86
1, 481702, Control_c, 1, 64, 86
1, 481712, Note_on_c, 0, 69, 50
1, 481720, Control_c, 0, 64, 64
1, 481720, Control_c, 1, 64, 64
1, 481741, Control_c, 1, 64, 54
1, 481741, Control_c, 0, 64, 54
1, 481761, Control_c, 0, 64, 57
1, 481761, Control_c, 1, 64, 57
1, 481778, Control_c, 1, 64, 64
1, 481778, Control_c, 0, 64, 64
1, 481796, Control_c, 0, 64, 75
1, 481796, Control_c, 1, 64, 75
1, 481816, Control_c, 1, 64, 97
1, 481816, Control_c, 0, 64, 97
1, 481834, Control_c, 0, 64, 127
1, 481834, Control_c, 1, 64, 127
1, 481906, Note_on_c, 0, 97, 60
1, 482008, Note_on_c, 0, 64, 57
1, 482054, Note_off_c, 0, 69, 36
1, 482109, Note_off_c, 0, 97, 63
1, 482109, Note_on_c, 0, 92, 53
1, 482122, Note_off_c, 0, 85, 52
1, 482297, Poly_aftertouch_c, 0, 94, 0
1, 482341, Control_c, 0, 64, 93
1, 482341, Control_c, 1, 64, 93
1, 482342, Note_off_c, 0, 92, 53
1, 482358, Note_on_c, 0, 66, 61
1, 482358, Control_c, 0, 64, 62
1, 482358, Control_c, 1, 64, 62
1, 482368, Note_off_c, 0, 64, 53
1, 482374, Note_on_c, 0, 81, 45
1, 482377, Control_c, 0, 64, 39
1, 482377, Control_c, 1, 64, 39
1, 482395, Control_c, 1, 64, 30
1, 482395, Control_c, 0, 64, 30
1, 482452, Control_c, 0, 64, 38
1, 482452, Control_c, 1, 64, 38
1, 482473, Control_c, 1, 64, 52
1, 482473, Control_c, 0, 64, 52
1, 482489, Control_c, 0, 64, 71
1, 482489, Control_c, 1, 64, 71
1, 482508, Control_c, 1, 64, 98
1, 482508, Control_c, 0, 64, 98
1, 482527, Control_c, 0, 64, 127
1, 482527, Control_c, 1, 64, 127
1, 482543, Note_off_c, 0, 81, 58
1, 482557, Note_on_c, 0, 93, 60
1, 482739, Note_off_c, 0, 93, 55
1, 482742, Note_on_c, 0, 88, 59
1, 482899, Note_on_c, 0, 78, 57
1, 482939, Control_c, 0, 64, 92
1, 482939, Control_c, 1, 64, 92
1, 482958, Control_c, 1, 64, 63
1, 482958, Control_c, 0, 64, 63
1, 482968, Note_on_c, 0, 57, 40
1, 482972, Note_off_c, 0, 66, 52
1, 482972, Poly_aftertouch_c, 0, 66, 0
1, 482976, Control_c, 0, 64, 42
1, 482976, Control_c, 1, 64, 42
1, 482989, Note_off_c, 0, 88, 41
1, 482995, Control_c, 0, 64, 35
1, 482995, Control_c, 1, 64, 35
1, 483026, Note_on_c, 0, 90, 68
1, 483047, Note_off_c, 0, 78, 56
1, 483047, Poly_aftertouch_c, 0, 78, 0
1, 483050, Control_c, 0, 64, 51
1, 483050, Control_c, 1, 64, 51
1, 483071, Control_c, 1, 64, 71
1, 483071, Control_c, 0, 64, 71
1, 483089, Control_c, 0, 64, 100
1, 483089, Control_c, 1, 64, 100
1, 483102, Note_off_c, 0, 90, 63
1, 483106, Control_c, 0, 64, 127
1, 483106, Control_c, 1, 64, 127
1, 483310, Note_off_c, 0, 57, 59
1, 483328, Note_on_c, 0, 64, 59
1, 483651, Control_c, 0, 64, 101
1, 483651, Control_c, 1, 64, 101
1, 483669, Control_c, 1, 64, 70
1, 483669, Control_c, 0, 64, 70
1, 483682, Note_on_c, 0, 72, 59
1, 483688, Control_c, 0, 64, 53
1, 483688, Control_c, 1, 64, 53
1, 483692, Note_on_c, 0, 69, 43
1, 483725, Control_c, 0, 64, 57
1, 483725, Control_c, 1, 64, 57
1, 483744, Control_c, 1, 64, 66
1, 483744, Control_c, 0, 64, 66
1, 483762, Control_c, 0, 64, 78
1, 483762, Control_c, 1, 64, 78
1, 483781, Control_c, 1, 64, 99
1, 483781, Control_c, 0, 64, 99
1, 483799, Control_c, 0, 64, 127
1, 483799, Control_c, 1, 64, 127
1, 483843, Note_off_c, 0, 69, 49
1, 483885, Note_on_c, 0, 81, 54
1, 484001, Note_on_c, 0, 68, 61
1, 484055, Note_off_c, 0, 72, 50
1, 484098, Note_off_c, 0, 81, 60
1, 484113, Note_on_c, 0, 88, 58
1, 484261, Note_off_c, 0, 88, 61
1, 484318, Note_on_c, 0, 84, 62
1, 484322, Control_c, 0, 64, 90
1, 484322, Control_c, 1, 64, 90
1, 484329, Note_off_c, 0, 64, 55
1, 484330, Note_off_c, 0, 68, 55
1, 484333, Note_on_c, 0, 69, 56
1, 484341, Control_c, 0, 64, 64
1, 484341, Control_c, 1, 64, 64
1, 484361, Control_c, 1, 64, 50
1, 484361, Control_c, 0, 64, 50
1, 484399, Control_c, 0, 64, 53
1, 484399, Control_c, 1, 64, 53
1, 484418, Control_c, 1, 64, 64
1, 484418, Control_c, 0, 64, 64
1, 484437, Control_c, 0, 64, 79
1, 484437, Control_c, 1, 64, 79
1, 484455, Control_c, 1, 64, 112
1, 484455, Control_c, 0, 64, 112
1, 484474, Control_c, 0, 64, 127
1, 484474, Control_c, 1, 64, 127
1, 484510, Note_on_c, 0, 96, 69
1, 484654, Note_on_c, 0, 64, 57
1, 484700, Note_off_c, 0, 69, 35
1, 484709, Note_on_c, 0, 92, 64
1, 484787, Note_off_c, 0, 84, 35
1, 484805, Note_off_c, 0, 96, 35
1, 484845, Poly_aftertouch_c, 0, 94, 127
1, 484979, Control_c, 0, 64, 83
1, 484979, Control_c, 1, 64, 83
1, 484987, Poly_aftertouch_c, 0, 94, 0
1, 484989, Note_on_c, 0, 66, 56
1, 484998, Control_c, 0, 64, 61
1, 484998, Control_c, 1, 64, 61
1, 485001, Note_off_c, 0, 92, 63
1, 485008, Note_off_c, 0, 64, 62
1, 485012, Note_on_c, 0, 81, 48
1, 485016, Control_c, 0, 64, 45
1, 485016, Control_c, 1, 64, 45
1, 485035, Control_c, 1, 64, 38
1, 485035, Control_c, 0, 64, 38
1, 485110, Control_c, 0, 64, 45
1, 485110, Control_c, 1, 64, 45
1, 485129, Control_c, 1, 64, 61
1, 485129, Control_c, 0, 64, 61
1, 485148, Control_c, 0, 64, 78
1, 485148, Control_c, 1, 64, 78
1, 485167, Control_c, 1, 64, 103
1, 485167, Control_c, 0, 64, 103
1, 485184, Control_c, 0, 64, 127
1, 485184, Control_c, 1, 64, 127
1, 485200, Note_off_c, 0, 81, 61
1, 485210, Note_on_c, 0, 93, 62
1, 485385, Note_on_c, 0, 88, 57
1, 485391, Note_off_c, 0, 93, 59
1, 485568, Note_on_c, 0, 78, 53
1, 485624, Note_on_c, 0, 56, 48
1, 485634, Control_c, 0, 64, 88
1, 485634, Control_c, 1, 64, 88
1, 485653, Control_c, 1, 64, 62
1, 485653, Control_c, 0, 64, 62
1, 485660, Note_off_c, 0, 66, 36
1, 485660, Poly_aftertouch_c, 0, 66, 0
1, 485673, Note_off_c, 0, 88, 46
1, 485673, Control_c, 0, 64, 46
1, 485673, Control_c, 1, 64, 46
1, 485686, Note_on_c, 0, 90, 68
1, 485692, Control_c, 0, 64, 42
1, 485692, Control_c, 1, 64, 42
1, 485728, Control_c, 1, 64, 51
1, 485728, Control_c, 0, 64, 51
1, 485746, Control_c, 0, 64, 66
1, 485746, Control_c, 1, 64, 66
1, 485754, Note_off_c, 0, 78, 57
1, 485754, Poly_aftertouch_c, 0, 78, 0
1, 485767, Control_c, 0, 64, 86
1, 485767, Control_c, 1, 64, 86
1, 485784, Control_c, 1, 64, 127
1, 485784, Control_c, 0, 64, 127
1, 485790, Note_off_c, 0, 90, 63
1, 485978, Note_on_c, 0, 63, 69
1, 486001, Note_off_c, 0, 56, 59
1, 486307, Control_c, 0, 64, 111
1, 486307, Control_c, 1, 64, 111
1, 486327, Control_c, 1, 64, 73
1, 486327, Control_c, 0, 64, 73
1, 486330, Note_on_c, 0, 68, 46
1, 486333, Note_on_c, 0, 71, 65
1, 486346, Control_c, 0, 64, 53
1, 486346, Control_c, 1, 64, 53
1, 486353, Note_off_c, 0, 63, 61
1, 486365, Control_c, 0, 64, 47
1, 486365, Control_c, 1, 64, 47
1, 486403, Control_c, 1, 64, 58
1, 486403, Control_c, 0, 64, 58
1, 486421, Control_c, 0, 64, 73
1, 486421, Control_c, 1, 64, 73
1, 486439, Control_c, 1, 64, 99
1, 486439, Control_c, 0, 64, 99
1, 486459, Control_c, 0, 64, 127
1, 486459, Control_c, 1, 64, 127
1, 486477, Note_off_c, 0, 68, 57
1, 486512, Note_on_c, 0, 80, 58
1, 486637, Note_on_c, 0, 66, 63
1, 486654, Note_off_c, 0, 71, 58
1, 486711, Note_on_c, 0, 87, 67
1, 486769, Note_off_c, 0, 80, 40
1, 486887, Note_off_c, 0, 87, 64
1, 486928, Note_off_c, 0, 66, 56
1, 486928, Poly_aftertouch_c, 0, 66, 0
1, 486946, Note_on_c, 0, 68, 53
1, 486981, Note_on_c, 0, 83, 49
1, 486981, Control_c, 0, 64, 78
1, 486981, Control_c, 1, 64, 78
1, 487000, Control_c, 1, 64, 57
1, 487000, Control_c, 0, 64, 57
1, 487020, Control_c, 0, 64, 45
1, 487020, Control_c, 1, 64, 45
1, 487038, Control_c, 1, 64, 43
1, 487038, Control_c, 0, 64, 43
1, 487075, Control_c, 0, 64, 49
1, 487075, Control_c, 1, 64, 49
1, 487095, Control_c, 1, 64, 64
1, 487095, Control_c, 0, 64, 64
1, 487112, Control_c, 0, 64, 82
1, 487112, Control_c, 1, 64, 82
1, 487132, Control_c, 1, 64, 127
1, 487132, Control_c, 0, 64, 127
1, 487152, Note_on_c, 0, 95, 68
1, 487272, Note_on_c, 0, 63, 53
1, 487290, Note_off_c, 0, 68, 58
1, 487343, Note_off_c, 0, 83, 41
1, 487349, Note_on_c, 0, 90, 66
1, 487396, Note_off_c, 0, 95, 58
1, 487449, Poly_aftertouch_c, 0, 92, 127
1, 487546, Poly_aftertouch_c, 0, 92, 0
1, 487599, Control_c, 0, 64, 86
1, 487599, Control_c, 1, 64, 86
1, 487608, Note_off_c, 0, 90, 63
1, 487608, Note_on_c, 0, 64, 39
1, 487614, Note_on_c, 0, 80, 43
1, 487617, Control_c, 0, 64, 58
1, 487617, Control_c, 1, 64, 58
1, 487628, Note_off_c, 0, 63, 48
1, 487637, Control_c, 0, 64, 37
1, 487637, Control_c, 1, 64, 37
1, 487656, Control_c, 1, 64, 27
1, 487656, Control_c, 0, 64, 27
1, 487730, Control_c, 0, 64, 37
1, 487730, Control_c, 1, 64, 37
1, 487750, Control_c, 1, 64, 56
1, 487750, Control_c, 0, 64, 56
1, 487768, Control_c, 0, 64, 79
1, 487768, Control_c, 1, 64, 79
1, 487787, Control_c, 1, 64, 115
1, 487787, Control_c, 0, 64, 115
1, 487806, Control_c, 0, 64, 127
1, 487806, Control_c, 1, 64, 127
1, 487840, Note_on_c, 0, 92, 43
1, 487998, Note_off_c, 0, 64, 35
1, 488010, Note_on_c, 0, 87, 53
1, 488013, Note_off_c, 0, 80, 49
1, 488047, Note_off_c, 0, 92, 63
1, 488251, Note_on_c, 0, 52, 39
1, 488270, Note_on_c, 0, 76, 42
1, 488293, Control_c, 0, 64, 91
1, 488293, Control_c, 1, 64, 91
1, 488311, Control_c, 1, 64, 64
1, 488311, Control_c, 0, 64, 64
1, 488330, Control_c, 0, 64, 46
1, 488330, Control_c, 1, 64, 46
1, 488348, Control_c, 1, 64, 40
1, 488348, Control_c, 0, 64, 40
1, 488366, Note_on_c, 0, 88, 46
1, 488405, Control_c, 0, 64, 49
1, 488405, Control_c, 1, 64, 49
1, 488424, Control_c, 1, 64, 66
1, 488424, Control_c, 0, 64, 66
1, 488442, Control_c, 0, 64, 91
1, 488442, Control_c, 1, 64, 91
1, 488460, Note_off_c, 0, 87, 19
1, 488460, Control_c, 0, 64, 127
1, 488460, Control_c, 1, 64, 127
1, 488469, Note_off_c, 0, 76, 39
1, 488473, Note_off_c, 0, 88, 63
1, 488644, Note_off_c, 0, 52, 56
1, 488644, Poly_aftertouch_c, 0, 52, 0
1, 488703, Note_on_c, 0, 59, 45
1, 489060, Control_c, 0, 64, 90
1, 489060, Control_c, 1, 64, 90
1, 489073, Note_on_c, 0, 64, 39
1, 489080, Note_on_c, 0, 68, 47
1, 489080, Control_c, 0, 64, 65
1, 489080, Control_c, 1, 64, 65
1, 489097, Control_c, 1, 64, 50
1, 489097, Control_c, 0, 64, 50
1, 489115, Control_c, 0, 64, 48
1, 489115, Control_c, 1, 64, 48
1, 489154, Control_c, 1, 64, 54
1, 489154, Control_c, 0, 64, 54
1, 489172, Control_c, 0, 64, 63
1, 489172, Control_c, 1, 64, 63
1, 489190, Control_c, 1, 64, 74
1, 489190, Control_c, 0, 64, 74
1, 489210, Control_c, 0, 64, 93
1, 489210, Control_c, 1, 64, 93
1, 489229, Control_c, 1, 64, 127
1, 489229, Control_c, 0, 64, 127
1, 489268, Note_off_c, 0, 64, 35
1, 489282, Note_on_c, 0, 76, 48
1, 489384, Note_off_c, 0, 68, 57
1, 489409, Note_on_c, 0, 63, 40
1, 489459, Note_off_c, 0, 76, 59
1, 489504, Note_on_c, 0, 83, 46
1, 489719, Note_off_c, 0, 83, 62
1, 489733, Control_c, 0, 64, 96
1, 489733, Control_c, 1, 64, 96
1, 489749, Note_off_c, 0, 63, 43
1, 489752, Control_c, 0, 64, 68
1, 489752, Control_c, 1, 64, 68
1, 489756, Note_on_c, 0, 64, 36
1, 489761, Note_on_c, 0, 80, 32
1, 489769, Note_off_c, 0, 59, 43
1, 489769, Poly_aftertouch_c, 0, 59, 0
1, 489771, Control_c, 0, 64, 51
1, 489771, Control_c, 1, 64, 51
1, 489790, Control_c, 1, 64, 47
1, 489790, Control_c, 0, 64, 47
1, 489827, Control_c, 0, 64, 54
1, 489827, Control_c, 1, 64, 54
1, 489846, Control_c, 1, 64, 65
1, 489846, Control_c, 0, 64, 65
1, 489864, Control_c, 0, 64, 76
1, 489864, Control_c, 1, 64, 76
1, 489883, Control_c, 1, 64, 93
1, 489883, Control_c, 0, 64, 93
1, 489902, Control_c, 0, 64, 127
1, 489902, Control_c, 1, 64, 127
1, 489970, Note_on_c, 0, 92, 53
1, 490078, Note_on_c, 0, 59, 38
1, 490182, Note_off_c, 0, 64, 36
1, 490216, Note_off_c, 0, 92, 53
1, 490226, Note_on_c, 0, 87, 51
1, 490278, Note_off_c, 0, 80, 38
1, 490463, Control_c, 0, 64, 86
1, 490463, Control_c, 1, 64, 86
1, 490482, Control_c, 1, 64, 59
1, 490482, Control_c, 0, 64, 59
1, 490500, Note_off_c, 0, 59, 50
1, 490500, Note_on_c, 0, 62, 39
1, 490500, Poly_aftertouch_c, 0, 59, 0
1, 490501, Control_c, 0, 64, 38
1, 490501, Control_c, 1, 64, 38
1, 490520, Control_c, 1, 64, 28
1, 490520, Control_c, 0, 64, 28
1, 490533, Note_on_c, 0, 76, 47
1, 490538, Note_off_c, 0, 87, 37
1, 490594, Control_c, 0, 64, 35
1, 490594, Control_c, 1, 64, 35
1, 490613, Control_c, 1, 64, 49
1, 490613, Control_c, 0, 64, 49
1, 490632, Control_c, 0, 64, 69
1, 490632, Control_c, 1, 64, 69
1, 490651, Control_c, 1, 64, 91
1, 490651, Control_c, 0, 64, 91
1, 490670, Control_c, 0, 64, 127
1, 490670, Control_c, 1, 64, 127
1, 490752, Note_off_c, 0, 62, 62
1, 490790, Note_on_c, 0, 88, 42
1, 491016, Note_on_c, 0, 83, 40
1, 491046, Poly_aftertouch_c, 0, 76, 24
1, 491082, Note_off_c, 0, 76, 37
1, 491082, Poly_aftertouch_c, 0, 76, 0
1, 491280, Note_on_c, 0, 57, 35
1, 491382, Control_c, 0, 64, 103
1, 491382, Control_c, 1, 64, 103
1, 491399, Control_c, 1, 64, 73
1, 491399, Control_c, 0, 64, 73
1, 491415, Note_on_c, 0, 74, 37
1, 491418, Control_c, 0, 64, 51
1, 491418, Control_c, 1, 64, 51
1, 491438, Control_c, 1, 64, 33
1, 491438, Control_c, 0, 64, 33
1, 491455, Control_c, 0, 64, 21
1, 491455, Control_c, 1, 64, 21
1, 491474, Control_c, 1, 64, 15
1, 491474, Control_c, 0, 64, 15
1, 491544, Note_on_c, 0, 86, 49
1, 491568, Control_c, 0, 64, 22
1, 491568, Control_c, 1, 64, 22
1, 491580, Note_off_c, 0, 88, 42
1, 491586, Control_c, 0, 64, 32
1, 491586, Control_c, 1, 64, 32
1, 491605, Control_c, 1, 64, 46
1, 491605, Control_c, 0, 64, 46
1, 491613, Note_off_c, 0, 83, 45
1, 491624, Control_c, 0, 64, 64
1, 491624, Control_c, 1, 64, 64
1, 491643, Control_c, 1, 64, 76
1, 491643, Control_c, 0, 64, 76
1, 491661, Control_c, 0, 64, 87
1, 491661, Control_c, 1, 64, 87
1, 491680, Control_c, 1, 64, 96
1, 491680, Control_c, 0, 64, 96
1, 491700, Control_c, 0, 64, 104
1, 491700, Control_c, 1, 64, 104
1, 491718, Control_c, 1, 64, 122
1, 491718, Control_c, 0, 64, 122
1, 491736, Control_c, 0, 64, 127
1, 491736, Control_c, 1, 64, 127
1, 491757, Note_off_c, 0, 86, 53
1, 491818, Poly_aftertouch_c, 0, 74, 24
1, 491855, Note_off_c, 0, 74, 41
1, 491855, Poly_aftertouch_c, 0, 74, 0
1, 491993, Note_on_c, 0, 64, 38
1, 491994, Note_off_c, 0, 57, 39
1, 492429, Control_c, 0, 64, 118
1, 492429, Control_c, 1, 64, 118
1, 492448, Control_c, 1, 64, 86
1, 492448, Control_c, 0, 64, 86
1, 492464, Note_on_c, 0, 73, 43
1, 492464, Control_c, 0, 64, 70
1, 492464, Control_c, 1, 64, 70
1, 492485, Control_c, 1, 64, 67
1, 492485, Control_c, 0, 64, 67
1, 492493, Note_on_c, 0, 69, 32
1, 492522, Control_c, 0, 64, 73
1, 492522, Control_c, 1, 64, 73
1, 492541, Control_c, 1, 64, 82
1, 492541, Control_c, 0, 64, 82
1, 492560, Control_c, 0, 64, 104
1, 492560, Control_c, 1, 64, 104
1, 492579, Control_c, 1, 64, 127
1, 492579, Control_c, 0, 64, 127
1, 492701, Note_off_c, 0, 69, 34
1, 492722, Note_on_c, 0, 81, 37
1, 492776, Note_off_c, 0, 73, 53
1, 492781, Note_on_c, 0, 68, 42
1, 492919, Note_off_c, 0, 81, 56
1, 492959, Note_on_c, 0, 88, 44
1, 493177, Note_off_c, 0, 88, 62
1, 493177, Control_c, 0, 64, 100
1, 493177, Control_c, 1, 64, 100
1, 493180, Note_on_c, 0, 69, 41
1, 493190, Note_on_c, 0, 85, 45
1, 493195, Control_c, 0, 64, 75
1, 493195, Control_c, 1, 64, 75
1, 493200, Note_off_c, 0, 64, 34
1, 493201, Note_off_c, 0, 68, 35
1, 493214, Control_c, 0, 64, 68
1, 493214, Control_c, 1, 64, 68
1, 493234, Control_c, 1, 64, 70
1, 493234, Control_c, 0, 64, 70
1, 493252, Control_c, 0, 64, 76
1, 493252, Control_c, 1, 64, 76
1, 493272, Control_c, 1, 64, 87
1, 493272, Control_c, 0, 64, 87
1, 493290, Control_c, 0, 64, 127
1, 493290, Control_c, 1, 64, 127
1, 493406, Note_on_c, 0, 97, 81
1, 493568, Note_on_c, 0, 64, 46
1, 493590, Note_off_c, 0, 69, 36
1, 493685, Note_on_c, 0, 92, 58
1, 493705, Note_off_c, 0, 97, 64
1, 493732, Note_off_c, 0, 85, 59
1, 493909, Control_c, 0, 64, 103
1, 493909, Control_c, 1, 64, 103
1, 493916, Note_off_c, 0, 64, 56
1, 493927, Control_c, 0, 64, 72
1, 493927, Control_c, 1, 64, 72
1, 493930, Note_on_c, 0, 66, 48
1, 493937, Note_off_c, 0, 92, 59
1, 493945, Control_c, 0, 64, 53
1, 493945, Control_c, 1, 64, 53
1, 493948, Note_on_c, 0, 81, 46
1, 493966, Control_c, 0, 64, 47
1, 493966, Control_c, 1, 64, 47
1, 494001, Control_c, 1, 64, 57
1, 494001, Control_c, 0, 64, 57
1, 494020, Control_c, 0, 64, 73
1, 494020, Control_c, 1, 64, 73
1, 494040, Control_c, 1, 64, 98
1, 494040, Control_c, 0, 64, 98
1, 494058, Control_c, 0, 64, 127
1, 494058, Control_c, 1, 64, 127
1, 494069, Poly_aftertouch_c, 0, 83, 0
1, 494145, Note_on_c, 0, 93, 62
1, 494146, Note_off_c, 0, 81, 53
1, 494336, Note_on_c, 0, 88, 62
1, 494366, Note_off_c, 0, 93, 55
1, 494520, Note_on_c, 0, 78, 56
1, 494526, Control_c, 0, 64, 104
1, 494526, Control_c, 1, 64, 104
1, 494547, Control_c, 1, 64, 70
1, 494547, Control_c, 0, 64, 70
1, 494563, Control_c, 0, 64, 47
1, 494563, Control_c, 1, 64, 47
1, 494570, Note_off_c, 0, 66, 36
1, 494570, Poly_aftertouch_c, 0, 66, 0
1, 494579, Note_on_c, 0, 57, 20
1, 494583, Control_c, 0, 64, 34
1, 494583, Control_c, 1, 64, 34
1, 494600, Control_c, 1, 64, 29
1, 494600, Control_c, 0, 64, 29
1, 494609, Note_off_c, 0, 88, 38
1, 494638, Note_on_c, 0, 90, 74
1, 494657, Control_c, 0, 64, 44
1, 494657, Control_c, 1, 64, 44
1, 494659, Note_off_c, 0, 78, 60
1, 494659, Poly_aftertouch_c, 0, 78, 0
1, 494675, Control_c, 0, 64, 68
1, 494675, Control_c, 1, 64, 68
1, 494697, Control_c, 1, 64, 103
1, 494697, Control_c, 0, 64, 103
1, 494706, Note_off_c, 0, 90, 65
1, 494713, Control_c, 0, 64, 127
1, 494713, Control_c, 1, 64, 127
1, 494952, Note_off_c, 0, 57, 53
1, 494970, Note_on_c, 0, 64, 51
1, 495286, Note_on_c, 0, 69, 38
1, 495303, Note_on_c, 0, 72, 57
1, 495442, Note_off_c, 0, 69, 37
1, 495476, Note_on_c, 0, 81, 53
1, 495623, Note_off_c, 0, 72, 51
1, 495631, Note_on_c, 0, 68, 45
1, 495707, Note_off_c, 0, 81, 57
1, 495715, Note_on_c, 0, 88, 59
1, 495880, Note_off_c, 0, 88, 59
1, 495943, Note_off_c, 0, 64, 51
1, 495944, Note_on_c, 0, 84, 58
1, 495947, Control_c, 0, 64, 81
1, 495947, Control_c, 1, 64, 81
1, 495967, Control_c, 1, 64, 64
1, 495967, Control_c, 0, 64, 64
1, 495969, Note_on_c, 0, 69, 36
1, 495977, Note_off_c, 0, 68, 36
1, 495986, Control_c, 0, 64, 63
1, 495986, Control_c, 1, 64, 63
1, 496004, Control_c, 1, 64, 67
1, 496004, Control_c, 0, 64, 67
1, 496022, Control_c, 0, 64, 75
1, 496022, Control_c, 1, 64, 75
1, 496042, Control_c, 1, 64, 94
1, 496042, Control_c, 0, 64, 94
1, 496061, Control_c, 0, 64, 127
1, 496061, Control_c, 1, 64, 127
1, 496137, Note_on_c, 0, 96, 75
1, 496287, Note_on_c, 0, 64, 45
1, 496305, Note_off_c, 0, 69, 36
1, 496377, Note_off_c, 0, 84, 60
1, 496383, Note_on_c, 0, 92, 59
1, 496431, Note_off_c, 0, 96, 49
1, 496516, Poly_aftertouch_c, 0, 94, 127
1, 496529, Poly_aftertouch_c, 0, 94, 0
1, 496585, Control_c, 0, 64, 108
1, 496585, Control_c, 1, 64, 108
1, 496603, Control_c, 1, 64, 74
1, 496603, Control_c, 0, 64, 74
1, 496617, Note_off_c, 0, 92, 62
1, 496621, Control_c, 0, 64, 54
1, 496621, Control_c, 1, 64, 54
1, 496631, Note_on_c, 0, 66, 41
1, 496632, Note_off_c, 0, 64, 50
1, 496632, Note_on_c, 0, 81, 51
1, 496640, Control_c, 0, 64, 50
1, 496640, Control_c, 1, 64, 50
1, 496659, Control_c, 1, 64, 53
1, 496659, Control_c, 0, 64, 53
1, 496678, Control_c, 0, 64, 62
1, 496678, Control_c, 1, 64, 62
1, 496696, Control_c, 1, 64, 76
1, 496696, Control_c, 0, 64, 76
1, 496716, Control_c, 0, 64, 112
1, 496716, Control_c, 1, 64, 112
1, 496735, Control_c, 1, 64, 127
1, 496735, Control_c, 0, 64, 127
1, 496825, Note_on_c, 0, 93, 59
1, 496841, Note_off_c, 0, 81, 57
1, 497037, Note_on_c, 0, 88, 57
1, 497069, Note_off_c, 0, 93, 51
1, 497216, Note_on_c, 0, 56, 37
1, 497219, Control_c, 0, 64, 85
1, 497219, Control_c, 1, 64, 85
1, 497239, Control_c, 1, 64, 56
1, 497239, Control_c, 0, 64, 56
1, 497241, Note_on_c, 0, 78, 49
1, 497258, Control_c, 0, 64, 35
1, 497258, Control_c, 1, 64, 35
1, 497276, Control_c, 1, 64, 26
1, 497276, Control_c, 0, 64, 26
1, 497277, Note_off_c, 0, 88, 33
1, 497285, Note_off_c, 0, 66, 36
1, 497285, Poly_aftertouch_c, 0, 66, 0
1, 497339, Note_on_c, 0, 90, 66
1, 497351, Control_c, 0, 64, 43
1, 497351, Control_c, 1, 64, 43
1, 497371, Control_c, 1, 64, 70
1, 497371, Control_c, 0, 64, 70
1, 497389, Control_c, 0, 64, 127
1, 497389, Control_c, 1, 64, 127
1, 497391, Note_off_c, 0, 78, 52
1, 497391, Poly_aftertouch_c, 0, 78, 0
1, 497424, Note_off_c, 0, 90, 63
1, 497638, Note_on_c, 0, 63, 54
1, 497640, Note_off_c, 0, 56, 55
1, 497963, Poly_aftertouch_c, 0, 80, 0
1, 497989, Control_c, 0, 64, 95
1, 497989, Control_c, 1, 64, 95
1, 498007, Control_c, 1, 64, 66
1, 498007, Control_c, 0, 64, 66
1, 498025, Control_c, 0, 64, 59
1, 498025, Control_c, 1, 64, 59
1, 498029, Note_on_c, 0, 68, 41
1, 498044, Control_c, 0, 64, 63
1, 498044, Control_c, 1, 64, 63
1, 498046, Note_on_c, 0, 71, 52
1, 498063, Control_c, 0, 64, 70
1, 498063, Control_c, 1, 64, 70
1, 498078, Note_off_c, 0, 63, 51
1, 498082, Control_c, 0, 64, 86
1, 498082, Control_c, 1, 64, 86
1, 498101, Control_c, 1, 64, 127
1, 498101, Control_c, 0, 64, 127
1, 498199, Note_off_c, 0, 68, 56
1, 498254, Note_on_c, 0, 80, 44
1, 498348, Note_off_c, 0, 71, 57
1, 498354, Note_on_c, 0, 66, 47
1, 498450, Note_on_c, 0, 87, 62
1, 498487, Note_off_c, 0, 80, 39
1, 498593, Note_off_c, 0, 87, 62
1, 498618, Note_off_c, 0, 66, 60
1, 498618, Poly_aftertouch_c, 0, 66, 0
1, 498657, Note_on_c, 0, 68, 43
1, 498679, Control_c, 0, 64, 102
1, 498679, Control_c, 1, 64, 102
1, 498685, Note_on_c, 0, 83, 53
1, 498699, Control_c, 0, 64, 72
1, 498699, Control_c, 1, 64, 72
1, 498720, Control_c, 1, 64, 55
1, 498720, Control_c, 0, 64, 55
1, 498756, Control_c, 0, 64, 61
1, 498756, Control_c, 1, 64, 61
1, 498775, Control_c, 1, 64, 76
1, 498775, Control_c, 0, 64, 76
1, 498794, Control_c, 0, 64, 127
1, 498794, Control_c, 1, 64, 127
1, 498873, Note_on_c, 0, 95, 69
1, 499002, Note_on_c, 0, 63, 38
1, 499061, Note_off_c, 0, 68, 36
1, 499098, Note_off_c, 0, 83, 51
1, 499111, Note_on_c, 0, 90, 64
1, 499160, Note_off_c, 0, 95, 60
1, 499206, Poly_aftertouch_c, 0, 92, 127
1, 499293, Poly_aftertouch_c, 0, 92, 0
1, 499354, Control_c, 0, 64, 80
1, 499354, Control_c, 1, 64, 80
1, 499363, Note_off_c, 0, 63, 38
1, 499365, Note_on_c, 0, 64, 37
1, 499368, Note_off_c, 0, 90, 62
1, 499373, Control_c, 0, 64, 58
1, 499373, Control_c, 1, 64, 58
1, 499392, Control_c, 1, 64, 47
1, 499392, Control_c, 0, 64, 47
1, 499401, Note_on_c, 0, 80, 51
1, 499429, Control_c, 0, 64, 53
1, 499429, Control_c, 1, 64, 53
1, 499449, Control_c, 1, 64, 65
1, 499449, Control_c, 0, 64, 65
1, 499468, Control_c, 0, 64, 85
1, 499468, Control_c, 1, 64, 85
1, 499485, Control_c, 1, 64, 127
1, 499485, Control_c, 0, 64, 127
1, 499579, Note_off_c, 0, 64, 54
1, 499616, Note_on_c, 0, 92, 57
1, 499736, Note_on_c, 0, 90, 7
1, 499751, Note_off_c, 0, 90, 30
1, 499792, Note_off_c, 0, 92, 61
1, 499816, Note_on_c, 0, 87, 52
1, 499853, Note_off_c, 0, 80, 38
1, 500035, Note_on_c, 0, 52, 30
1, 500047, Control_c, 0, 64, 90
1, 500047, Control_c, 1, 64, 90
1, 500067, Control_c, 1, 64, 62
1, 500067, Control_c, 0, 64, 62
1, 500084, Control_c, 0, 64, 42
1, 500084, Control_c, 1, 64, 42
1, 500102, Note_off_c, 0, 87, 38
1, 500103, Control_c, 0, 64, 38
1, 500103, Control_c, 1, 64, 38
1, 500112, Note_on_c, 0, 76, 40
1, 500141, Control_c, 0, 64, 44
1, 500141, Control_c, 1, 64, 44
1, 500160, Control_c, 1, 64, 58
1, 500160, Control_c, 0, 64, 58
1, 500178, Control_c, 0, 64, 78
1, 500178, Control_c, 1, 64, 78
1, 500198, Control_c, 1, 64, 127
1, 500198, Control_c, 0, 64, 127
1, 500217, Note_on_c, 0, 88, 46
1, 500225, Note_off_c, 0, 76, 54
1, 500225, Poly_aftertouch_c, 0, 76, 0
1, 500259, Note_off_c, 0, 88, 55
1, 500553, Note_off_c, 0, 52, 44
1, 500553, Poly_aftertouch_c, 0, 52, 0
1, 500580, Note_on_c, 0, 59, 42
1, 500936, Note_on_c, 0, 64, 38
1, 500952, Note_on_c, 0, 68, 41
1, 501133, Note_off_c, 0, 64, 39
1, 501169, Note_on_c, 0, 76, 48
1, 501289, Note_on_c, 0, 63, 51
1, 501312, Note_off_c, 0, 68, 36
1, 501347, Note_off_c, 0, 76, 61
1, 501347, Poly_aftertouch_c, 0, 76, 0
1, 501376, Note_on_c, 0, 83, 56
1, 501619, Note_off_c, 0, 63, 53
1, 501619, Note_on_c, 0, 80, 49
1, 501636, Note_off_c, 0, 83, 35
1, 501638, Control_c, 0, 64, 85
1, 501638, Control_c, 1, 64, 85
1, 501641, Note_on_c, 0, 64, 44
1, 501648, Note_off_c, 0, 59, 51
1, 501648, Poly_aftertouch_c, 0, 59, 0
1, 501656, Control_c, 0, 64, 63
1, 501656, Control_c, 1, 64, 63
1, 501676, Control_c, 1, 64, 57
1, 501676, Control_c, 0, 64, 57
1, 501695, Control_c, 0, 64, 59
1, 501695, Control_c, 1, 64, 59
1, 501713, Control_c, 1, 64, 67
1, 501713, Control_c, 0, 64, 67
1, 501733, Control_c, 0, 64, 79
1, 501733, Control_c, 1, 64, 79
1, 501751, Control_c, 1, 64, 127
1, 501751, Control_c, 0, 64, 127
1, 501843, Note_on_c, 0, 92, 58
1, 501943, Note_on_c, 0, 59, 48
1, 501989, Note_off_c, 0, 64, 37
1, 502087, Note_on_c, 0, 87, 56
1, 502089, Note_off_c, 0, 92, 49
1, 502139, Note_off_c, 0, 80, 37
1, 502293, Control_c, 0, 64, 83
1, 502293, Control_c, 1, 64, 83
1, 502310, Note_off_c, 0, 59, 54
1, 502310, Poly_aftertouch_c, 0, 59, 0
1, 502312, Control_c, 0, 64, 57
1, 502312, Control_c, 1, 64, 57
1, 502316, Note_off_c, 0, 87, 56
1, 502331, Control_c, 0, 64, 38
1, 502331, Control_c, 1, 64, 38
1, 502342, Note_on_c, 0, 62, 41
1, 502368, Note_on_c, 0, 76, 41
1, 502406, Control_c, 0, 64, 47
1, 502406, Control_c, 1, 64, 47
1, 502424, Control_c, 1, 64, 61
1, 502424, Control_c, 0, 64, 61
1, 502443, Control_c, 0, 64, 75
1, 502443, Control_c, 1, 64, 75
1, 502462, Control_c, 1, 64, 89
1, 502462, Control_c, 0, 64, 89
1, 502481, Control_c, 0, 64, 127
1, 502481, Control_c, 1, 64, 127
1, 502555, Control_c, 1, 67, 122
1, 502555, Control_c, 0, 67, 122
1, 502578, Note_off_c, 0, 62, 62
1, 502591, Note_on_c, 0, 88, 49
1, 502593, Control_c, 0, 67, 116
1, 502593, Control_c, 1, 67, 116
1, 502612, Control_c, 1, 67, 111
1, 502612, Control_c, 0, 67, 111
1, 502629, Control_c, 0, 67, 105
1, 502629, Control_c, 1, 67, 105
1, 502649, Control_c, 1, 67, 98
1, 502649, Control_c, 0, 67, 98
1, 502668, Control_c, 0, 67, 89
1, 502668, Control_c, 1, 67, 89
1, 502687, Control_c, 1, 67, 81
1, 502687, Control_c, 0, 67, 81
1, 502706, Control_c, 0, 67, 75
1, 502706, Control_c, 1, 67, 75
1, 502724, Control_c, 1, 67, 70
1, 502724, Control_c, 0, 67, 70
1, 502762, Control_c, 0, 67, 64
1, 502762, Control_c, 1, 67, 64
1, 502785, Note_on_c, 0, 83, 42
1, 502798, Control_c, 0, 67, 59
1, 502798, Control_c, 1, 67, 59
1, 502850, Note_off_c, 0, 76, 36
1, 502850, Poly_aftertouch_c, 0, 76, 0
1, 502874, Control_c, 0, 67, 55
1, 502874, Control_c, 1, 67, 55
1, 503073, Note_on_c, 0, 57, 32
1, 503169, Note_on_c, 0, 74, 44
1, 503172, Control_c, 0, 64, 86
1, 503172, Control_c, 1, 64, 86
1, 503192, Control_c, 1, 64, 62
1, 503192, Control_c, 0, 64, 62
1, 503211, Control_c, 0, 64, 44
1, 503211, Control_c, 1, 64, 44
1, 503230, Control_c, 1, 64, 34
1, 503230, Control_c, 0, 64, 34
1, 503248, Control_c, 0, 64, 28
1, 503248, Control_c, 1, 64, 28
1, 503268, Control_c, 1, 64, 22
1, 503268, Control_c, 0, 64, 22
1, 503304, Control_c, 0, 64, 18
1, 503304, Control_c, 1, 64, 18
1, 503312, Note_on_c, 0, 86, 53
1, 503356, Note_off_c, 0, 83, 44
1, 503377, Note_off_c, 0, 88, 36
1, 503455, Control_c, 0, 64, 30
1, 503455, Control_c, 1, 64, 30
1, 503473, Control_c, 1, 64, 48
1, 503473, Control_c, 0, 64, 48
1, 503491, Control_c, 0, 64, 72
1, 503491, Control_c, 1, 64, 72
1, 503512, Control_c, 1, 64, 98
1, 503512, Control_c, 0, 64, 98
1, 503529, Control_c, 0, 64, 127
1, 503529, Control_c, 1, 64, 127
1, 503653, Note_off_c, 0, 86, 55
1, 503696, Control_c, 0, 67, 50
1, 503696, Control_c, 1, 67, 50
1, 503716, Control_c, 1, 67, 40
1, 503716, Control_c, 0, 67, 40
1, 503727, Note_off_c, 0, 74, 53
1, 503727, Poly_aftertouch_c, 0, 74, 0
1, 503735, Control_c, 0, 67, 29
1, 503735, Control_c, 1, 67, 29
1, 503754, Control_c, 1, 67, 17
1, 503754, Control_c, 0, 67, 17
1, 503791, Control_c, 0, 67, 0
1, 503791, Control_c, 1, 67, 0
1, 503823, Note_on_c, 0, 64, 46
1, 503949, Note_off_c, 0, 57, 52
1, 504337, Note_on_c, 0, 73, 58
1, 504371, Control_c, 0, 64, 94
1, 504371, Control_c, 1, 64, 94
1, 504391, Control_c, 1, 64, 73
1, 504391, Control_c, 0, 64, 73
1, 504406, Note_on_c, 0, 69, 35
1, 504408, Control_c, 0, 64, 66
1, 504408, Control_c, 1, 64, 66
1, 504428, Control_c, 1, 64, 70
1, 504428, Control_c, 0, 64, 70
1, 504447, Control_c, 0, 64, 84
1, 504447, Control_c, 1, 64, 84
1, 504465, Control_c, 1, 64, 127
1, 504465, Control_c, 0, 64, 127
1, 504624, Note_off_c, 0, 69, 40
1, 504639, Note_on_c, 0, 81, 42
1, 504776, Note_on_c, 0, 68, 60
1, 504844, Note_off_c, 0, 73, 58
1, 504862, Note_on_c, 0, 88, 62
1, 504876, Note_off_c, 0, 81, 57
1, 505097, Note_off_c, 0, 88, 50
1, 505115, Note_on_c, 0, 85, 60
1, 505120, Note_on_c, 0, 69, 63
1, 505139, Control_c, 0, 64, 87
1, 505139, Control_c, 1, 64, 87
1, 505158, Control_c, 1, 64, 65
1, 505158, Control_c, 0, 64, 65
1, 505171, Note_off_c, 0, 64, 49
1, 505174, Control_c, 0, 64, 59
1, 505174, Control_c, 1, 64, 59
1, 505188, Note_off_c, 0, 68, 38
1, 505194, Control_c, 0, 64, 62
1, 505194, Control_c, 1, 64, 62
1, 505213, Control_c, 1, 64, 72
1, 505213, Control_c, 0, 64, 72
1, 505232, Control_c, 0, 64, 97
1, 505232, Control_c, 1, 64, 97
1, 505251, Control_c, 1, 64, 127
1, 505251, Control_c, 0, 64, 127
1, 505328, Note_on_c, 0, 97, 68
1, 505439, Note_on_c, 0, 64, 64
1, 505479, Note_off_c, 0, 69, 48
1, 505559, Note_on_c, 0, 92, 68
1, 505585, Note_off_c, 0, 85, 62
1, 505591, Note_off_c, 0, 97, 63
1, 505596, Note_on_c, 0, 94, 46
1, 505757, Control_c, 0, 64, 86
1, 505757, Control_c, 1, 64, 86
1, 505778, Control_c, 1, 64, 60
1, 505778, Control_c, 0, 64, 60
1, 505787, Note_off_c, 0, 94, 41
1, 505797, Note_on_c, 0, 67, 71
1, 505797, Control_c, 0, 64, 45
1, 505797, Control_c, 1, 64, 45
1, 505809, Note_off_c, 0, 64, 58
1, 505812, Control_c, 0, 64, 42
1, 505812, Control_c, 1, 64, 42
1, 505821, Note_off_c, 0, 92, 59
1, 505823, Note_on_c, 0, 81, 53
1, 505849, Control_c, 0, 64, 52
1, 505849, Control_c, 1, 64, 52
1, 505869, Control_c, 1, 64, 70
1, 505869, Control_c, 0, 64, 70
1, 505888, Control_c, 0, 64, 104
1, 505888, Control_c, 1, 64, 104
1, 505906, Control_c, 1, 64, 127
1, 505906, Control_c, 0, 64, 127
1, 506016, Note_on_c, 0, 93, 69
1, 506045, Note_off_c, 0, 67, 63
1, 506216, Note_on_c, 0, 88, 61
1, 506302, Note_off_c, 0, 81, 40
1, 506330, Note_on_c, 0, 50, 51
1, 506431, Control_c, 0, 64, 85
1, 506431, Control_c, 1, 64, 85
1, 506449, Control_c, 1, 64, 60
1, 506449, Control_c, 0, 64, 60
1, 506467, Control_c, 0, 64, 47
1, 506467, Control_c, 1, 64, 47
1, 506475, Note_on_c, 0, 79, 61
1, 506504, Control_c, 0, 64, 53
1, 506504, Control_c, 1, 64, 53
1, 506524, Control_c, 1, 64, 68
1, 506524, Control_c, 0, 64, 68
1, 506542, Control_c, 0, 64, 100
1, 506542, Control_c, 1, 64, 100
1, 506562, Control_c, 1, 64, 127
1, 506562, Control_c, 0, 64, 127
1, 506574, Note_on_c, 0, 91, 70
1, 506662, Note_off_c, 0, 93, 51
1, 506666, Note_off_c, 0, 88, 37
1, 506748, Note_on_c, 0, 57, 65
1, 506763, Note_off_c, 0, 50, 59
1, 506838, Note_off_c, 0, 57, 62
1, 507110, Note_on_c, 0, 62, 58
1, 507195, Note_off_c, 0, 91, 57
1, 507257, Note_off_c, 0, 79, 63
1, 507260, Note_on_c, 0, 69, 60
1, 507280, Note_off_c, 0, 62, 61
1, 507502, Note_on_c, 0, 74, 59
1, 507645, Note_on_c, 0, 66, 75
1, 507727, Note_off_c, 0, 69, 50
1, 507761, Note_off_c, 0, 74, 53
1, 507761, Poly_aftertouch_c, 0, 74, 0
1, 507788, Note_on_c, 0, 81, 56
1, 507893, Note_off_c, 0, 81, 62
1, 507987, Note_on_c, 0, 64, 64
1, 508004, Control_c, 0, 64, 107
1, 508004, Control_c, 1, 64, 107
1, 508012, Note_on_c, 0, 81, 66
1, 508021, Control_c, 0, 64, 74
1, 508021, Control_c, 1, 64, 74
1, 508036, Note_off_c, 0, 66, 57
1, 508036, Poly_aftertouch_c, 0, 66, 0
1, 508039, Control_c, 0, 64, 58
1, 508039, Control_c, 1, 64, 58
1, 508060, Control_c, 1, 64, 54
1, 508060, Control_c, 0, 64, 54
1, 508096, Control_c, 0, 64, 65
1, 508096, Control_c, 1, 64, 65
1, 508116, Control_c, 1, 64, 83
1, 508116, Control_c, 0, 64, 83
1, 508134, Control_c, 0, 64, 127
1, 508134, Control_c, 1, 64, 127
1, 508173, Note_on_c, 0, 93, 68
1, 508225, Note_off_c, 0, 81, 60
1, 508292, Note_on_c, 0, 62, 66
1, 508299, Note_off_c, 0, 64, 61
1, 508433, Note_on_c, 0, 90, 71
1, 508466, Note_on_c, 0, 78, 49
1, 508467, Note_off_c, 0, 93, 43
1, 508534, Note_off_c, 0, 78, 49
1, 508534, Poly_aftertouch_c, 0, 78, 0
1, 508598, Note_off_c, 0, 90, 56
1, 508669, Note_off_c, 0, 62, 56
1, 508679, Note_on_c, 0, 61, 57
1, 508688, Note_on_c, 0, 76, 61
1, 508696, Control_c, 0, 64, 99
1, 508696, Control_c, 1, 64, 99
1, 508714, Control_c, 1, 64, 68
1, 508714, Control_c, 0, 64, 68
1, 508733, Control_c, 0, 64, 50
1, 508733, Control_c, 1, 64, 50
1, 508752, Control_c, 1, 64, 48
1, 508752, Control_c, 0, 64, 48
1, 508770, Control_c, 0, 64, 54
1, 508770, Control_c, 1, 64, 54
1, 508789, Control_c, 1, 64, 68
1, 508789, Control_c, 0, 64, 68
1, 508808, Control_c, 0, 64, 99
1, 508808, Control_c, 1, 64, 99
1, 508827, Control_c, 1, 64, 127
1, 508827, Control_c, 0, 64, 127
1, 508871, Note_on_c, 0, 88, 66
1, 508883, Note_off_c, 0, 76, 55
1, 508883, Poly_aftertouch_c, 0, 76, 0
1, 509057, Note_off_c, 0, 88, 56
1, 509069, Note_on_c, 0, 86, 62
1, 509091, Note_on_c, 0, 74, 52
1, 509180, Note_off_c, 0, 74, 60
1, 509180, Poly_aftertouch_c, 0, 74, 0
1, 509335, Note_off_c, 0, 61, 56
1, 509335, Poly_aftertouch_c, 0, 61, 0
1, 509343, Note_on_c, 0, 56, 54
1, 509370, Control_c, 0, 64, 92
1, 509370, Control_c, 1, 64, 92
1, 509387, Control_c, 1, 64, 59
1, 509387, Control_c, 0, 64, 59
1, 509407, Control_c, 0, 64, 30
1, 509407, Control_c, 1, 64, 30
1, 509426, Control_c, 1, 64, 12
1, 509426, Note_on_c, 0, 85, 58
1, 509426, Control_c, 0, 64, 12
1, 509434, Note_on_c, 0, 73, 54
1, 509482, Control_c, 0, 64, 8
1, 509482, Control_c, 1, 64, 8
1, 509495, Note_off_c, 0, 86, 41
1, 509500, Control_c, 0, 64, 20
1, 509500, Control_c, 1, 64, 20
1, 509520, Control_c, 1, 64, 47
1, 509520, Control_c, 0, 64, 47
1, 509537, Control_c, 0, 64, 87
1, 509537, Control_c, 1, 64, 87
1, 509557, Control_c, 1, 64, 127
1, 509557, Control_c, 0, 64, 127
1, 509765, Note_off_c, 0, 85, 64
1, 509780, Note_on_c, 0, 63, 67
1, 509815, Note_off_c, 0, 56, 59
1, 509820, Note_off_c, 0, 73, 61
1, 510137, Poly_aftertouch_c, 0, 80, 0
1, 510178, Note_on_c, 0, 72, 61
1, 510192, Control_c, 0, 64, 91
1, 510192, Control_c, 1, 64, 91
1, 510204, Note_off_c, 0, 63, 59
1, 510208, Note_on_c, 0, 68, 47
1, 510211, Control_c, 0, 64, 65
1, 510211, Control_c, 1, 64, 65
1, 510231, Control_c, 1, 64, 62
1, 510231, Control_c, 0, 64, 62
1, 510248, Control_c, 0, 64, 70
1, 510248, Control_c, 1, 64, 70
1, 510267, Control_c, 1, 64, 93
1, 510267, Control_c, 0, 64, 93
1, 510287, Control_c, 0, 64, 127
1, 510287, Control_c, 1, 64, 127
1, 510345, Note_off_c, 0, 68, 64
1, 510345, Note_on_c, 0, 68, 35
1, 510350, Note_off_c, 0, 68, 52
1, 510401, Note_on_c, 0, 80, 57
1, 510500, Note_on_c, 0, 67, 56
1, 510528, Note_off_c, 0, 72, 54
1, 510607, Note_on_c, 0, 87, 70
1, 510622, Note_off_c, 0, 80, 62
1, 510735, Note_off_c, 0, 87, 64
1, 510809, Note_off_c, 0, 67, 58
1, 510824, Note_on_c, 0, 84, 62
1, 510825, Note_on_c, 0, 68, 56
1, 510848, Control_c, 0, 64, 115
1, 510848, Control_c, 1, 64, 115
1, 510867, Control_c, 1, 64, 75
1, 510867, Control_c, 0, 64, 75
1, 510886, Control_c, 0, 64, 55
1, 510886, Control_c, 1, 64, 55
1, 510904, Control_c, 1, 64, 50
1, 510904, Control_c, 0, 64, 50
1, 510941, Control_c, 0, 64, 62
1, 510941, Control_c, 1, 64, 62
1, 510961, Control_c, 1, 64, 81
1, 510961, Control_c, 0, 64, 81
1, 510979, Control_c, 0, 64, 127
1, 510979, Control_c, 1, 64, 127
1, 511008, Note_on_c, 0, 96, 75
1, 511132, Note_on_c, 0, 63, 64
1, 511165, Note_off_c, 0, 68, 55
1, 511178, Note_off_c, 0, 84, 61
1, 511265, Note_on_c, 0, 91, 72
1, 511312, Note_off_c, 0, 96, 61
1, 511445, Note_off_c, 0, 91, 48
1, 511484, Control_c, 0, 64, 82
1, 511484, Control_c, 1, 64, 82
1, 511487, Note_on_c, 0, 66, 66
1, 511503, Control_c, 0, 64, 54
1, 511503, Control_c, 1, 64, 54
1, 511513, Note_on_c, 0, 80, 62
1, 511514, Note_off_c, 0, 63, 61
1, 511520, Control_c, 0, 64, 37
1, 511520, Control_c, 1, 64, 37
1, 511578, Control_c, 1, 64, 57
1, 511578, Control_c, 0, 64, 57
1, 511597, Control_c, 0, 64, 87
1, 511597, Control_c, 1, 64, 87
1, 511616, Control_c, 1, 64, 127
1, 511616, Control_c, 0, 64, 127
1, 511710, Note_on_c, 0, 92, 68
1, 511776, Note_off_c, 0, 66, 62
1, 511776, Poly_aftertouch_c, 0, 66, 0
1, 511896, Note_on_c, 0, 87, 67
1, 511973, Note_off_c, 0, 80, 37
1, 512068, Note_on_c, 0, 49, 60
1, 512120, Control_c, 0, 64, 99
1, 512120, Control_c, 1, 64, 99
1, 512139, Control_c, 1, 64, 64
1, 512139, Control_c, 0, 64, 64
1, 512142, Note_on_c, 0, 78, 62
1, 512159, Control_c, 0, 64, 39
1, 512159, Control_c, 1, 64, 39
1, 512177, Control_c, 1, 64, 27
1, 512177, Control_c, 0, 64, 27
1, 512245, Note_on_c, 0, 90, 71
1, 512250, Control_c, 0, 64, 47
1, 512250, Control_c, 1, 64, 47
1, 512271, Control_c, 1, 64, 78
1, 512271, Control_c, 0, 64, 78
1, 512289, Control_c, 0, 64, 127
1, 512289, Control_c, 1, 64, 127
1, 512317, Note_off_c, 0, 92, 62
1, 512354, Note_off_c, 0, 87, 54
1, 512462, Note_on_c, 0, 56, 62
1, 512483, Note_off_c, 0, 49, 61
1, 512560, Note_off_c, 0, 56, 61
1, 512746, Note_on_c, 0, 61, 61
1, 512805, Note_off_c, 0, 90, 62
1, 512865, Note_off_c, 0, 78, 63
1, 512865, Poly_aftertouch_c, 0, 78, 0
1, 512918, Note_on_c, 0, 68, 65
1, 512957, Note_off_c, 0, 61, 49
1, 512957, Poly_aftertouch_c, 0, 61, 0
1, 513109, Note_on_c, 0, 73, 59
1, 513262, Note_on_c, 0, 64, 68
1, 513360, Note_off_c, 0, 68, 47
1, 513400, Note_on_c, 0, 80, 68
1, 513402, Note_off_c, 0, 73, 52
1, 513528, Note_off_c, 0, 80, 62
1, 513611, Note_on_c, 0, 63, 61
1, 513618, Control_c, 0, 64, 78
1, 513618, Control_c, 1, 64, 78
1, 513638, Control_c, 1, 64, 56
1, 513638, Control_c, 0, 64, 56
1, 513655, Note_off_c, 0, 64, 49
1, 513656, Note_on_c, 0, 80, 57
1, 513656, Control_c, 0, 64, 46
1, 513656, Control_c, 1, 64, 46
1, 513693, Control_c, 1, 64, 50
1, 513693, Control_c, 0, 64, 50
1, 513713, Control_c, 0, 64, 62
1, 513713, Control_c, 1, 64, 62
1, 513730, Control_c, 1, 64, 80
1, 513730, Control_c, 0, 64, 80
1, 513750, Control_c, 0, 64, 127
1, 513750, Control_c, 1, 64, 127
1, 513808, Note_on_c, 0, 92, 64
1, 513947, Note_on_c, 0, 61, 56
1, 513971, Note_off_c, 0, 63, 50
1, 514062, Note_on_c, 0, 88, 61
1, 514072, Note_off_c, 0, 80, 44
1, 514117, Note_off_c, 0, 92, 59
1, 514170, Note_off_c, 0, 88, 62
1, 514293, Control_c, 0, 64, 90
1, 514293, Control_c, 1, 64, 90
1, 514302, Note_on_c, 0, 59, 48
1, 514310, Note_on_c, 0, 75, 53
1, 514310, Control_c, 0, 64, 59
1, 514310, Control_c, 1, 64, 59
1, 514329, Control_c, 1, 64, 38
1, 514329, Control_c, 0, 64, 38
1, 514348, Control_c, 0, 64, 31
1, 514348, Control_c, 1, 64, 31
1, 514356, Note_off_c, 0, 61, 38
1, 514356, Poly_aftertouch_c, 0, 61, 0
1, 514404, Control_c, 0, 64, 50
1, 514404, Control_c, 1, 64, 50
1, 514423, Control_c, 1, 64, 77
1, 514423, Control_c, 0, 64, 77
1, 514442, Control_c, 0, 64, 127
1, 514442, Control_c, 1, 64, 127
1, 514499, Note_on_c, 0, 87, 60
1, 514526, Note_off_c, 0, 75, 55
1, 514673, Note_off_c, 0, 59, 62
1, 514673, Poly_aftertouch_c, 0, 59, 0
1, 514721, Note_on_c, 0, 85, 56
1, 514743, Note_off_c, 0, 87, 62
1, 514758, Note_on_c, 0, 73, 40
1, 514837, Note_off_c, 0, 73, 52
1, 514844, Note_off_c, 0, 85, 56
1, 514994, Note_on_c, 0, 54, 40
1, 515002, Control_c, 0, 64, 79
1, 515002, Control_c, 1, 64, 79
1, 515022, Control_c, 1, 64, 55
1, 515022, Control_c, 0, 64, 55
1, 515041, Control_c, 0, 64, 38
1, 515041, Control_c, 1, 64, 38
1, 515060, Control_c, 1, 64, 27
1, 515060, Control_c, 0, 64, 27
1, 515076, Note_on_c, 0, 83, 44
1, 515078, Control_c, 0, 64, 20
1, 515078, Control_c, 1, 64, 20
1, 515103, Note_on_c, 0, 71, 34
1, 515153, Control_c, 0, 64, 28
1, 515153, Control_c, 1, 64, 28
1, 515172, Control_c, 1, 64, 45
1, 515172, Control_c, 0, 64, 45
1, 515192, Control_c, 0, 64, 68
1, 515192, Control_c, 1, 64, 68
1, 515209, Control_c, 1, 64, 92
1, 515209, Control_c, 0, 64, 92
1, 515228, Control_c, 0, 64, 127
1, 515228, Control_c, 1, 64, 127
1, 515377, Control_c, 1, 67, 8
1, 515377, Control_c, 0, 67, 8
1, 515411, Note_on_c, 0, 61, 55
1, 515415, Control_c, 0, 67, 12
1, 515415, Control_c, 1, 67, 12
1, 515426, Note_off_c, 0, 54, 47
1, 515471, Control_c, 0, 67, 17
1, 515471, Control_c, 1, 67, 17
1, 515509, Note_off_c, 0, 71, 45
1, 515527, Control_c, 0, 67, 21
1, 515527, Control_c, 1, 67, 21
1, 515566, Control_c, 1, 67, 26
1, 515566, Control_c, 0, 67, 26
1, 515584, Control_c, 0, 67, 30
1, 515584, Control_c, 1, 67, 30
1, 515601, Control_c, 1, 67, 35
1, 515601, Control_c, 0, 67, 35
1, 515621, Control_c, 0, 67, 39
1, 515621, Control_c, 1, 67, 39
1, 515639, Control_c, 1, 67, 44
1, 515639, Control_c, 0, 67, 44
1, 515659, Note_off_c, 0, 83, 52
1, 515659, Control_c, 0, 67, 48
1, 515659, Control_c, 1, 67, 48
1, 515677, Control_c, 1, 67, 52
1, 515677, Control_c, 0, 67, 52
1, 515696, Control_c, 0, 67, 57
1, 515696, Control_c, 1, 67, 57
1, 515716, Control_c, 1, 67, 61
1, 515716, Control_c, 0, 67, 61
1, 515733, Control_c, 0, 67, 65
1, 515733, Control_c, 1, 67, 65
1, 515758, Note_on_c, 0, 66, 52
1, 515772, Control_c, 0, 67, 71
1, 515772, Control_c, 1, 67, 71
1, 515982, Note_on_c, 0, 70, 52
1, 516043, Note_off_c, 0, 66, 58
1, 516043, Poly_aftertouch_c, 0, 66, 0
1, 516070, Control_c, 0, 67, 75
1, 516070, Control_c, 1, 67, 75
1, 516089, Control_c, 1, 67, 79
1, 516089, Control_c, 0, 67, 79
1, 516127, Control_c, 0, 67, 86
1, 516127, Control_c, 1, 67, 86
1, 516134, Note_off_c, 0, 61, 49
1, 516134, Poly_aftertouch_c, 0, 61, 0
1, 516164, Control_c, 0, 67, 93
1, 516164, Control_c, 1, 67, 93
1, 516220, Control_c, 1, 67, 97
1, 516220, Control_c, 0, 67, 97
1, 516241, Note_on_c, 0, 78, 50
1, 516405, Note_on_c, 0, 65, 47
1, 516426, Control_c, 0, 64, 100
1, 516426, Control_c, 1, 64, 100
1, 516428, Control_c, 1, 67, 101
1, 516428, Control_c, 0, 67, 101
1, 516445, Control_c, 0, 64, 70
1, 516445, Control_c, 1, 64, 70
1, 516464, Control_c, 1, 64, 61
1, 516464, Control_c, 1, 67, 106
1, 516464, Control_c, 0, 64, 61
1, 516464, Control_c, 0, 67, 106
1, 516467, Note_off_c, 0, 70, 58
1, 516467, Poly_aftertouch_c, 0, 70, 0
1, 516482, Control_c, 0, 64, 65
1, 516482, Control_c, 1, 64, 65
1, 516501, Control_c, 1, 64, 76
1, 516501, Control_c, 0, 64, 76
1, 516503, Control_c, 0, 67, 111
1, 516503, Control_c, 1, 67, 111
1, 516522, Control_c, 1, 64, 111
1, 516522, Control_c, 0, 64, 111
1, 516538, Control_c, 0, 64, 127
1, 516538, Control_c, 1, 64, 127
1, 516543, Note_off_c, 0, 78, 56
1, 516543, Poly_aftertouch_c, 0, 78, 0
1, 516552, Note_on_c, 0, 85, 53
1, 516595, Control_c, 0, 67, 115
1, 516595, Control_c, 1, 67, 115
1, 516707, Control_c, 1, 64, 97
1, 516707, Control_c, 0, 64, 97
1, 516727, Control_c, 0, 64, 69
1, 516727, Control_c, 1, 64, 69
1, 516744, Control_c, 1, 64, 58
1, 516744, Control_c, 0, 64, 58
1, 516751, Note_off_c, 0, 65, 58
1, 516762, Note_off_c, 0, 85, 63
1, 516762, Control_c, 0, 64, 61
1, 516762, Control_c, 1, 64, 61
1, 516774, Note_on_c, 0, 66, 40
1, 516780, Control_c, 0, 64, 71
1, 516780, Control_c, 1, 64, 71
1, 516800, Control_c, 1, 64, 95
1, 516800, Control_c, 0, 64, 95
1, 516802, Note_on_c, 0, 82, 47
1, 516818, Control_c, 0, 64, 127
1, 516818, Control_c, 1, 64, 127
1, 516975, Note_on_c, 0, 94, 54
1, 517100, Control_c, 0, 64, 97
1, 517100, Control_c, 1, 64, 97
1, 517119, Control_c, 1, 64, 73
1, 517119, Control_c, 0, 64, 73
1, 517125, Note_on_c, 0, 62, 41
1, 517137, Control_c, 0, 64, 68
1, 517137, Control_c, 1, 64, 68
1, 517156, Control_c, 1, 64, 76
1, 517156, Control_c, 0, 64, 76
1, 517175, Control_c, 0, 64, 92
1, 517175, Control_c, 1, 64, 92
1, 517194, Control_c, 1, 64, 127
1, 517194, Control_c, 0, 64, 127
1, 517211, Note_off_c, 0, 82, 55
1, 517227, Note_on_c, 0, 89, 48
1, 517235, Note_off_c, 0, 66, 35
1, 517235, Poly_aftertouch_c, 0, 66, 0
1, 517280, Note_off_c, 0, 94, 44
1, 517380, Control_c, 0, 64, 94
1, 517380, Control_c, 1, 64, 94
1, 517400, Control_c, 1, 64, 68
1, 517400, Control_c, 0, 64, 68
1, 517401, Note_off_c, 0, 62, 49
1, 517419, Control_c, 0, 64, 59
1, 517419, Control_c, 1, 64, 59
1, 517434, Note_off_c, 0, 89, 57
1, 517436, Control_c, 0, 64, 64
1, 517436, Control_c, 1, 64, 64
1, 517439, Note_on_c, 0, 61, 40
1, 517456, Control_c, 0, 64, 77
1, 517456, Control_c, 1, 64, 77
1, 517473, Control_c, 1, 64, 116
1, 517473, Control_c, 0, 64, 116
1, 517479, Note_on_c, 0, 78, 40
1, 517493, Control_c, 0, 64, 127
1, 517493, Control_c, 1, 64, 127
1, 517549, Control_c, 1, 67, 119
1, 517549, Control_c, 0, 67, 119
1, 517638, Note_on_c, 0, 90, 59
1, 517706, Note_off_c, 0, 90, 60
1, 517717, Note_off_c, 0, 78, 36
1, 517717, Poly_aftertouch_c, 0, 78, 0
1, 517736, Control_c, 0, 67, 123
1, 517736, Control_c, 1, 67, 123
1, 517803, Note_on_c, 0, 59, 40
1, 517809, Control_c, 0, 64, 87
1, 517809, Control_c, 1, 64, 87
1, 517811, Note_off_c, 0, 61, 35
1, 517811, Poly_aftertouch_c, 0, 61, 0
1, 517830, Control_c, 0, 64, 66
1, 517830, Control_c, 1, 64, 66
1, 517850, Control_c, 1, 64, 61
1, 517850, Control_c, 0, 64, 61
1, 517868, Control_c, 0, 64, 65
1, 517868, Control_c, 1, 64, 65
1, 517886, Control_c, 1, 64, 76
1, 517886, Control_c, 0, 64, 76
1, 517906, Control_c, 0, 64, 102
1, 517906, Control_c, 1, 64, 102
1, 517923, Control_c, 1, 64, 127
1, 517923, Control_c, 0, 64, 127
1, 517926, Note_on_c, 0, 86, 55
1, 517950, Note_on_c, 0, 74, 34
1, 518006, Note_off_c, 0, 74, 48
1, 518006, Poly_aftertouch_c, 0, 74, 0
1, 518061, Note_off_c, 0, 86, 46
1, 518106, Note_off_c, 0, 59, 49
1, 518106, Poly_aftertouch_c, 0, 59, 0
1, 518152, Note_on_c, 0, 52, 35
1, 518186, Control_c, 0, 64, 76
1, 518186, Control_c, 1, 64, 76
1, 518204, Control_c, 1, 64, 52
1, 518204, Control_c, 0, 64, 52
1, 518222, Control_c, 0, 64, 41
1, 518222, Control_c, 1, 64, 41
1, 518226, Note_on_c, 0, 73, 48
1, 518241, Control_c, 0, 67, 127
1, 518241, Control_c, 1, 67, 127
1, 518262, Control_c, 1, 64, 47
1, 518262, Control_c, 0, 64, 47
1, 518278, Control_c, 0, 64, 63
1, 518278, Control_c, 1, 64, 63
1, 518298, Control_c, 1, 64, 86
1, 518298, Control_c, 0, 64, 86
1, 518317, Control_c, 0, 64, 127
1, 518317, Control_c, 1, 64, 127
1, 518348, Note_on_c, 0, 85, 63
1, 518408, Note_off_c, 0, 85, 54
1, 518424, Note_off_c, 0, 73, 37
1, 518482, Note_off_c, 0, 52, 40
1, 518482, Poly_aftertouch_c, 0, 52, 0
1, 518488, Note_on_c, 0, 59, 26
1, 518569, Note_off_c, 0, 59, 58
1, 518569, Poly_aftertouch_c, 0, 59, 0
1, 518620, Note_on_c, 0, 83, 57
1, 518707, Note_off_c, 0, 83, 55
1, 518737, Poly_aftertouch_c, 0, 71, 0
1, 518833, Note_on_c, 0, 64, 40
1, 518943, Note_off_c, 0, 64, 54
1, 518955, Note_on_c, 0, 68, 45
1, 519163, Note_on_c, 0, 76, 39
1, 519293, Note_on_c, 0, 63, 45
1, 519304, Note_off_c, 0, 68, 47
1, 519382, Note_off_c, 0, 76, 52
1, 519382, Poly_aftertouch_c, 0, 76, 0
1, 519418, Note_on_c, 0, 83, 39
1, 519602, Note_off_c, 0, 63, 58
1, 519619, Note_off_c, 0, 83, 62
1, 519626, Control_c, 0, 64, 87
1, 519626, Control_c, 1, 64, 87
1, 519648, Control_c, 1, 64, 62
1, 519648, Control_c, 0, 64, 62
1, 519652, Note_on_c, 0, 64, 40
1, 519658, Note_on_c, 0, 80, 45
1, 519663, Control_c, 0, 64, 52
1, 519663, Control_c, 1, 64, 52
1, 519702, Control_c, 1, 64, 60
1, 519702, Control_c, 0, 64, 60
1, 519720, Control_c, 0, 64, 72
1, 519720, Control_c, 1, 64, 72
1, 519740, Control_c, 1, 64, 94
1, 519740, Control_c, 0, 64, 94
1, 519757, Control_c, 0, 64, 127
1, 519757, Control_c, 1, 64, 127
1, 519865, Note_on_c, 0, 92, 44
1, 519978, Note_on_c, 0, 61, 40
1, 519981, Note_off_c, 0, 64, 48
1, 520068, Note_off_c, 0, 92, 55
1, 520076, Note_on_c, 0, 87, 46
1, 520081, Note_off_c, 0, 80, 43
1, 520240, Note_off_c, 0, 87, 62
1, 520264, Control_c, 0, 64, 83
1, 520264, Control_c, 1, 64, 83
1, 520270, Note_off_c, 0, 61, 50
1, 520270, Poly_aftertouch_c, 0, 61, 0
1, 520282, Control_c, 0, 64, 63
1, 520282, Control_c, 1, 64, 63
1, 520289, Note_on_c, 0, 59, 40
1, 520300, Control_c, 0, 64, 61
1, 520300, Control_c, 1, 64, 61
1, 520305, Note_on_c, 0, 76, 41
1, 520320, Control_c, 0, 64, 66
1, 520320, Control_c, 1, 64, 66
1, 520338, Control_c, 1, 64, 76
1, 520338, Control_c, 0, 64, 76
1, 520357, Control_c, 0, 64, 101
1, 520357, Control_c, 1, 64, 101
1, 520375, Control_c, 1, 64, 127
1, 520375, Control_c, 0, 64, 127
1, 520457, Note_on_c, 0, 88, 50
1, 520523, Note_off_c, 0, 76, 40
1, 520523, Poly_aftertouch_c, 0, 76, 0
1, 520572, Note_off_c, 0, 59, 53
1, 520572, Poly_aftertouch_c, 0, 59, 0
1, 520606, Note_on_c, 0, 57, 40
1, 520630, Note_off_c, 0, 88, 39
1, 520709, Note_on_c, 0, 85, 55
1, 520743, Note_on_c, 0, 73, 37
1, 520807, Note_off_c, 0, 85, 35
1, 520831, Note_off_c, 0, 73, 39
1, 520928, Note_on_c, 0, 50, 42
1, 520945, Note_off_c, 0, 57, 34
1, 520957, Control_c, 0, 64, 78
1, 520957, Control_c, 1, 64, 78
1, 520974, Control_c, 1, 64, 55
1, 520974, Control_c, 0, 64, 55
1, 520994, Control_c, 0, 64, 45
1, 520994, Control_c, 1, 64, 45
1, 521009, Note_on_c, 0, 71, 41
1, 521031, Control_c, 0, 64, 54
1, 521031, Control_c, 1, 64, 54
1, 521049, Control_c, 1, 64, 68
1, 521049, Control_c, 0, 64, 68
1, 521070, Control_c, 0, 64, 92
1, 521070, Control_c, 1, 64, 92
1, 521086, Control_c, 1, 64, 127
1, 521086, Control_c, 0, 64, 127
1, 521113, Note_on_c, 0, 83, 47
1, 521125, Note_off_c, 0, 71, 29
1, 521300, Note_on_c, 0, 57, 41
1, 521317, Note_off_c, 0, 50, 36
1, 521366, Note_on_c, 0, 81, 49
1, 521381, Note_off_c, 0, 83, 31
1, 521465, Note_off_c, 0, 81, 55
1, 521582, Note_on_c, 0, 62, 43
1, 521725, Note_off_c, 0, 62, 56
1, 521748, Note_off_c, 0, 57, 59
1, 521749, Note_on_c, 0, 65, 47
1, 521939, Note_on_c, 0, 74, 41
1, 521946, Poly_aftertouch_c, 0, 85, 0
1, 522103, Note_on_c, 0, 57, 31
1, 522123, Note_off_c, 0, 65, 36
1, 522182, Note_on_c, 0, 83, 46
1, 522194, Note_off_c, 0, 74, 35
1, 522194, Poly_aftertouch_c, 0, 74, 0
1, 522376, Note_off_c, 0, 83, 59
1, 522378, Control_c, 0, 64, 113
1, 522378, Control_c, 1, 64, 113
1, 522397, Control_c, 1, 64, 76
1, 522397, Control_c, 0, 64, 76
1, 522404, Note_on_c, 0, 77, 54
1, 522408, Note_on_c, 0, 52, 42
1, 522409, Note_off_c, 0, 57, 41
1, 522416, Control_c, 0, 64, 56
1, 522416, Control_c, 1, 64, 56
1, 522434, Control_c, 1, 64, 49
1, 522434, Control_c, 0, 64, 49
1, 522472, Control_c, 0, 64, 56
1, 522472, Control_c, 1, 64, 56
1, 522491, Control_c, 1, 64, 69
1, 522491, Control_c, 0, 64, 69
1, 522509, Control_c, 0, 64, 88
1, 522509, Control_c, 1, 64, 88
1, 522528, Control_c, 1, 64, 127
1, 522528, Control_c, 0, 64, 127
1, 522603, Note_on_c, 0, 89, 42
1, 522682, Note_off_c, 0, 52, 48
1, 522682, Poly_aftertouch_c, 0, 52, 0
1, 522713, Note_on_c, 0, 59, 38
1, 522756, Note_off_c, 0, 59, 61
1, 522756, Poly_aftertouch_c, 0, 59, 0
1, 522769, Poly_aftertouch_c, 0, 77, 24
1, 522826, Note_on_c, 0, 81, 43
1, 522846, Note_off_c, 0, 89, 35
1, 522850, Note_off_c, 0, 77, 31
1, 522850, Poly_aftertouch_c, 0, 77, 0
1, 523097, Note_on_c, 0, 64, 22
1, 523153, Note_on_c, 0, 68, 40
1, 523162, Note_off_c, 0, 64, 42
1, 523344, Note_on_c, 0, 76, 46
1, 523529, Note_on_c, 0, 62, 41
1, 523645, Note_on_c, 0, 83, 44
1, 523665, Note_off_c, 0, 68, 41
1, 523671, Note_off_c, 0, 81, 50
1, 523674, Note_off_c, 0, 76, 33
1, 523674, Poly_aftertouch_c, 0, 76, 0
1, 523876, Control_c, 0, 64, 122
1, 523876, Control_c, 1, 64, 122
1, 523884, Note_off_c, 0, 83, 60
1, 523894, Control_c, 0, 64, 78
1, 523894, Control_c, 1, 64, 78
1, 523903, Note_on_c, 0, 57, 40
1, 523912, Control_c, 0, 64, 56
1, 523912, Control_c, 1, 64, 56
1, 523924, Note_on_c, 0, 80, 32
1, 523930, Control_c, 0, 64, 44
1, 523930, Control_c, 1, 64, 44
1, 523949, Note_off_c, 0, 62, 35
1, 523988, Control_c, 0, 64, 55
1, 523988, Control_c, 1, 64, 55
1, 524008, Control_c, 1, 64, 70
1, 524008, Control_c, 0, 64, 70
1, 524025, Control_c, 0, 64, 96
1, 524025, Control_c, 1, 64, 96
1, 524044, Control_c, 1, 64, 127
1, 524044, Control_c, 0, 64, 127
1, 524142, Note_on_c, 0, 92, 46
1, 524296, Note_on_c, 0, 64, 26
1, 524342, Note_off_c, 0, 57, 32
1, 524409, Note_on_c, 0, 86, 48
1, 524443, Note_off_c, 0, 64, 45
1, 524448, Note_off_c, 0, 80, 44
1, 524537, Note_off_c, 0, 92, 46
1, 524613, Note_on_c, 0, 70, 41
1, 524730, Note_off_c, 0, 70, 58
1, 524730, Poly_aftertouch_c, 0, 70, 0
1, 524777, Note_on_c, 0, 73, 46
1, 524971, Note_on_c, 0, 81, 60
1, 525115, Note_off_c, 0, 73, 54
1, 525148, Note_on_c, 0, 68, 43
1, 525200, Note_off_c, 0, 81, 41
1, 525240, Note_off_c, 0, 86, 49
1, 525250, Note_on_c, 0, 88, 44
1, 525465, Note_off_c, 0, 68, 53
1, 525465, Control_c, 0, 64, 109
1, 525465, Control_c, 1, 64, 109
1, 525487, Control_c, 1, 64, 79
1, 525487, Control_c, 0, 64, 79
1, 525491, Note_off_c, 0, 88, 64
1, 525502, Note_on_c, 0, 69, 39
1, 525504, Control_c, 0, 64, 66
1, 525504, Control_c, 1, 64, 66
1, 525523, Control_c, 1, 64, 67
1, 525523, Control_c, 0, 64, 67
1, 525532, Note_on_c, 0, 85, 53
1, 525542, Control_c, 0, 64, 74
1, 525542, Control_c, 1, 64, 74
1, 525562, Control_c, 1, 64, 89
1, 525562, Control_c, 0, 64, 89
1, 525579, Control_c, 0, 64, 127
1, 525579, Control_c, 1, 64, 127
1, 525757, Note_on_c, 0, 97, 41
1, 525825, Note_on_c, 0, 61, 26
1, 525979, Note_off_c, 0, 97, 61
1, 525982, Note_on_c, 0, 92, 52
1, 526021, Note_off_c, 0, 85, 46
1, 526161, Note_on_c, 0, 57, 30
1, 526195, Poly_aftertouch_c, 0, 69, 24
1, 526254, Control_c, 0, 64, 81
1, 526254, Control_c, 1, 64, 81
1, 526272, Control_c, 1, 64, 60
1, 526272, Control_c, 0, 64, 60
1, 526291, Control_c, 0, 64, 48
1, 526291, Control_c, 1, 64, 48
1, 526326, Note_on_c, 0, 64, 30
1, 526336, Note_off_c, 0, 92, 52
1, 526339, Note_off_c, 0, 61, 36
1, 526339, Poly_aftertouch_c, 0, 61, 0
1, 526346, Note_on_c, 0, 81, 40
1, 526346, Control_c, 0, 64, 57
1, 526346, Control_c, 1, 64, 57
1, 526365, Control_c, 1, 64, 72
1, 526365, Control_c, 0, 64, 72
1, 526384, Control_c, 0, 64, 98
1, 526384, Control_c, 1, 64, 98
1, 526394, Note_off_c, 0, 69, 21
1, 526394, Poly_aftertouch_c, 0, 69, 0
1, 526402, Control_c, 0, 64, 127
1, 526402, Control_c, 1, 64, 127
1, 526517, Note_off_c, 0, 64, 50
1, 526553, Note_off_c, 0, 57, 53
1, 526620, Note_on_c, 0, 93, 44
1, 526901, Note_on_c, 0, 85, 43
1, 526907, Note_off_c, 0, 81, 45
1, 526908, Note_off_c, 0, 93, 35
1, 527047, Note_on_c, 0, 57, 19
1, 527189, Control_c, 0, 64, 102
1, 527189, Control_c, 1, 64, 102
1, 527209, Control_c, 1, 64, 69
1, 527209, Control_c, 0, 64, 69
1, 527227, Control_c, 0, 64, 44
1, 527227, Control_c, 1, 64, 44
1, 527244, Control_c, 1, 64, 31
1, 527244, Control_c, 0, 64, 31
1, 527281, Note_on_c, 0, 76, 35
1, 527319, Control_c, 0, 64, 44
1, 527319, Control_c, 1, 64, 44
1, 527339, Control_c, 1, 64, 63
1, 527339, Control_c, 0, 64, 63
1, 527357, Control_c, 0, 64, 85
1, 527357, Control_c, 1, 64, 85
1, 527376, Control_c, 1, 64, 127
1, 527376, Control_c, 0, 64, 127
1, 527432, Note_on_c, 0, 88, 50
1, 527529, Note_off_c, 0, 76, 36
1, 527529, Poly_aftertouch_c, 0, 76, 0
1, 527541, Note_off_c, 0, 88, 60
1, 527546, Note_off_c, 0, 85, 42
1, 527907, Note_on_c, 0, 64, 47
1, 527908, Note_off_c, 0, 57, 40
1, 528342, Note_on_c, 0, 73, 47
1, 528359, Note_on_c, 0, 69, 34
1, 528454, Note_off_c, 0, 69, 33
1, 528454, Poly_aftertouch_c, 0, 69, 0
1, 528581, Note_on_c, 0, 81, 40
1, 528647, Note_off_c, 0, 73, 50
1, 528687, Note_on_c, 0, 68, 34
1, 528738, Note_off_c, 0, 81, 53
1, 528777, Note_on_c, 0, 88, 40
1, 529017, Note_off_c, 0, 68, 41
1, 529019, Note_off_c, 0, 88, 60
1, 529024, Control_c, 0, 64, 84
1, 529024, Control_c, 1, 64, 84
1, 529036, Note_on_c, 0, 85, 45
1, 529038, Note_off_c, 0, 64, 38
1, 529039, Note_on_c, 0, 69, 33
1, 529041, Control_c, 0, 64, 64
1, 529041, Control_c, 1, 64, 64
1, 529061, Control_c, 1, 64, 62
1, 529061, Control_c, 0, 64, 62
1, 529079, Control_c, 0, 64, 66
1, 529079, Control_c, 1, 64, 66
1, 529100, Control_c, 1, 64, 74
1, 529100, Control_c, 0, 64, 74
1, 529117, Control_c, 0, 64, 94
1, 529117, Control_c, 1, 64, 94
1, 529135, Control_c, 1, 64, 127
1, 529135, Control_c, 0, 64, 127
1, 529248, Note_on_c, 0, 97, 74
1, 529349, Note_on_c, 0, 64, 38
1, 529362, Note_off_c, 0, 69, 36
1, 529362, Poly_aftertouch_c, 0, 69, 0
1, 529510, Note_on_c, 0, 92, 60
1, 529515, Note_off_c, 0, 85, 51
1, 529536, Note_off_c, 0, 97, 60
1, 529678, Control_c, 0, 64, 101
1, 529678, Control_c, 1, 64, 101
1, 529698, Control_c, 1, 64, 71
1, 529698, Control_c, 0, 64, 71
1, 529702, Note_off_c, 0, 64, 52
1, 529716, Control_c, 0, 64, 55
1, 529716, Control_c, 1, 64, 55
1, 529742, Note_on_c, 0, 67, 32
1, 529754, Control_c, 0, 64, 61
1, 529754, Control_c, 1, 64, 61
1, 529755, Note_off_c, 0, 92, 57
1, 529757, Note_on_c, 0, 81, 51
1, 529773, Control_c, 0, 64, 73
1, 529773, Control_c, 1, 64, 73
1, 529791, Control_c, 1, 64, 98
1, 529791, Control_c, 0, 64, 98
1, 529809, Control_c, 0, 64, 127
1, 529809, Control_c, 1, 64, 127
1, 529942, Note_off_c, 0, 67, 54
1, 529963, Note_on_c, 0, 93, 78
1, 530202, Note_on_c, 0, 88, 55
1, 530290, Note_off_c, 0, 81, 34
1, 530322, Note_on_c, 0, 50, 41
1, 530484, Control_c, 0, 64, 86
1, 530484, Control_c, 1, 64, 86
1, 530490, Note_on_c, 0, 79, 56
1, 530503, Control_c, 0, 64, 61
1, 530503, Control_c, 1, 64, 61
1, 530520, Control_c, 1, 64, 42
1, 530520, Control_c, 0, 64, 42
1, 530540, Control_c, 0, 64, 32
1, 530540, Control_c, 1, 64, 32
1, 530560, Control_c, 1, 64, 26
1, 530560, Control_c, 0, 64, 26
1, 530616, Control_c, 0, 64, 31
1, 530616, Control_c, 1, 64, 31
1, 530633, Control_c, 1, 64, 48
1, 530633, Control_c, 0, 64, 48
1, 530652, Control_c, 0, 64, 74
1, 530652, Control_c, 1, 64, 74
1, 530671, Control_c, 1, 64, 109
1, 530671, Control_c, 0, 64, 109
1, 530675, Note_on_c, 0, 91, 82
1, 530690, Control_c, 0, 64, 127
1, 530690, Control_c, 1, 64, 127
1, 530763, Note_off_c, 0, 88, 43
1, 530792, Note_off_c, 0, 93, 57
1, 530862, Note_on_c, 0, 57, 42
1, 530874, Note_off_c, 0, 50, 52
1, 530913, Note_off_c, 0, 57, 64
1, 531198, Note_off_c, 0, 91, 56
1, 531208, Note_on_c, 0, 62, 41
1, 531276, Note_off_c, 0, 62, 60
1, 531286, Note_off_c, 0, 79, 32
1, 531370, Note_on_c, 0, 69, 49
1, 531584, Note_on_c, 0, 74, 42
1, 531698, Poly_aftertouch_c, 0, 69, 24
1, 531718, Note_off_c, 0, 69, 50
1, 531718, Poly_aftertouch_c, 0, 69, 0
1, 531738, Note_on_c, 0, 66, 40
1, 531866, Note_off_c, 0, 74, 37
1, 531866, Poly_aftertouch_c, 0, 74, 0
1, 531870, Note_on_c, 0, 81, 45
1, 531948, Note_off_c, 0, 81, 45
1, 532072, Note_on_c, 0, 64, 45
1, 532074, Control_c, 0, 64, 115
1, 532074, Control_c, 1, 64, 115
1, 532088, Note_off_c, 0, 66, 35
1, 532088, Poly_aftertouch_c, 0, 66, 0
1, 532093, Control_c, 0, 64, 89
1, 532093, Control_c, 1, 64, 89
1, 532100, Note_on_c, 0, 81, 50
1, 532109, Control_c, 0, 64, 86
1, 532109, Control_c, 1, 64, 86
1, 532131, Control_c, 1, 64, 94
1, 532131, Control_c, 0, 64, 94
1, 532149, Control_c, 0, 64, 127
1, 532149, Control_c, 1, 64, 127
1, 532277, Note_on_c, 0, 93, 71
1, 532334, Note_off_c, 0, 81, 49
1, 532365, Note_off_c, 0, 64, 55
1, 532393, Note_on_c, 0, 62, 46
1, 532541, Note_on_c, 0, 90, 68
1, 532562, Note_on_c, 0, 78, 45
1, 532585, Note_off_c, 0, 93, 38
1, 532609, Note_off_c, 0, 78, 49
1, 532609, Poly_aftertouch_c, 0, 78, 0
1, 532725, Note_off_c, 0, 90, 47
1, 532804, Control_c, 0, 64, 97
1, 532804, Control_c, 1, 64, 97
1, 532816, Note_on_c, 0, 61, 45
1, 532824, Control_c, 0, 64, 69
1, 532824, Control_c, 1, 64, 69
1, 532832, Note_off_c, 0, 62, 36
1, 532843, Control_c, 0, 64, 55
1, 532843, Control_c, 1, 64, 55
1, 532849, Note_on_c, 0, 76, 41
1, 532879, Control_c, 0, 64, 62
1, 532879, Control_c, 1, 64, 62
1, 532899, Control_c, 1, 64, 73
1, 532899, Control_c, 0, 64, 73
1, 532917, Control_c, 0, 64, 99
1, 532917, Control_c, 1, 64, 99
1, 532935, Control_c, 1, 64, 127
1, 532935, Control_c, 0, 64, 127
1, 533032, Note_on_c, 0, 88, 54
1, 533049, Note_off_c, 0, 76, 35
1, 533049, Poly_aftertouch_c, 0, 76, 0
1, 533218, Note_off_c, 0, 88, 58
1, 533228, Note_on_c, 0, 86, 52
1, 533244, Note_on_c, 0, 74, 33
1, 533337, Note_off_c, 0, 74, 34
1, 533337, Poly_aftertouch_c, 0, 74, 0
1, 533562, Note_on_c, 0, 56, 32
1, 533610, Control_c, 0, 64, 104
1, 533610, Control_c, 1, 64, 104
1, 533629, Control_c, 1, 64, 71
1, 533629, Control_c, 0, 64, 71
1, 533647, Control_c, 0, 64, 48
1, 533647, Control_c, 1, 64, 48
1, 533650, Note_off_c, 0, 61, 21
1, 533650, Poly_aftertouch_c, 0, 61, 0
1, 533666, Control_c, 0, 64, 32
1, 533666, Control_c, 1, 64, 32
1, 533683, Control_c, 1, 64, 23
1, 533683, Control_c, 0, 64, 23
1, 533685, Note_on_c, 0, 85, 43
1, 533702, Note_on_c, 0, 73, 30
1, 533769, Note_off_c, 0, 86, 43
1, 533796, Control_c, 0, 64, 28
1, 533796, Control_c, 1, 64, 28
1, 533817, Control_c, 1, 64, 35
1, 533817, Control_c, 0, 64, 35
1, 533834, Control_c, 0, 64, 47
1, 533834, Control_c, 1, 64, 47
1, 533853, Control_c, 1, 64, 66
1, 533853, Control_c, 0, 64, 66
1, 533872, Control_c, 0, 64, 85
1, 533872, Control_c, 1, 64, 85
1, 533890, Control_c, 1, 64, 124
1, 533890, Control_c, 0, 64, 124
1, 533997, Note_off_c, 0, 85, 59
1, 534078, Note_off_c, 0, 73, 45
1, 534087, Note_on_c, 0, 63, 36
1, 534095, Note_off_c, 0, 56, 40
1, 534498, Note_on_c, 0, 72, 45
1, 534522, Note_off_c, 0, 63, 57
1, 534523, Note_on_c, 0, 68, 22
1, 534658, Note_off_c, 0, 68, 39
1, 534735, Note_on_c, 0, 80, 32
1, 534818, Note_off_c, 0, 72, 51
1, 534877, Note_on_c, 0, 67, 33
1, 534929, Note_on_c, 0, 87, 54
1, 534937, Note_off_c, 0, 80, 55
1, 535070, Note_off_c, 0, 87, 63
1, 535154, Note_on_c, 0, 84, 62
1, 535155, Note_off_c, 0, 67, 51
1, 535181, Note_on_c, 0, 68, 41
1, 535345, Note_on_c, 0, 96, 80
1, 535419, Note_off_c, 0, 84, 58
1, 535458, Note_on_c, 0, 63, 43
1, 535475, Note_off_c, 0, 68, 36
1, 535599, Note_on_c, 0, 91, 61
1, 535646, Note_off_c, 0, 96, 56
1, 535781, Control_c, 0, 64, 90
1, 535781, Control_c, 1, 64, 90
1, 535800, Control_c, 1, 64, 67
1, 535800, Control_c, 0, 64, 67
1, 535811, Note_off_c, 0, 91, 44
1, 535817, Control_c, 0, 64, 61
1, 535817, Control_c, 1, 64, 61
1, 535825, Note_on_c, 0, 66, 41
1, 535837, Control_c, 0, 64, 66
1, 535837, Control_c, 1, 64, 66
1, 535843, Note_on_c, 0, 80, 56
1, 535848, Note_off_c, 0, 63, 35
1, 535856, Control_c, 0, 64, 78
1, 535856, Control_c, 1, 64, 78
1, 535864, Poly_aftertouch_c, 0, 90, 0
1, 535874, Control_c, 0, 64, 113
1, 535874, Control_c, 1, 64, 113
1, 535893, Control_c, 1, 64, 127
1, 535893, Control_c, 0, 64, 127
1, 536040, Note_on_c, 0, 92, 78
1, 536059, Note_off_c, 0, 66, 61
1, 536059, Poly_aftertouch_c, 0, 66, 0
1, 536251, Note_on_c, 0, 87, 59
1, 536359, Note_off_c, 0, 80, 37
1, 536402, Note_on_c, 0, 49, 33
1, 536525, Note_on_c, 0, 78, 56
1, 536529, Control_c, 0, 64, 122
1, 536529, Control_c, 1, 64, 122
1, 536548, Control_c, 1, 64, 84
1, 536548, Control_c, 0, 64, 84
1, 536569, Control_c, 0, 64, 64
1, 536569, Control_c, 1, 64, 64
1, 536586, Control_c, 1, 64, 49
1, 536586, Control_c, 0, 64, 49
1, 536604, Control_c, 0, 64, 40
1, 536604, Control_c, 1, 64, 40
1, 536623, Control_c, 1, 64, 33
1, 536623, Control_c, 0, 64, 33
1, 536655, Note_on_c, 0, 90, 74
1, 536661, Control_c, 0, 64, 29
1, 536661, Control_c, 1, 64, 29
1, 536698, Control_c, 1, 64, 37
1, 536698, Control_c, 0, 64, 37
1, 536717, Control_c, 0, 64, 56
1, 536717, Control_c, 1, 64, 56
1, 536723, Note_off_c, 0, 87, 37
1, 536734, Note_off_c, 0, 92, 63
1, 536734, Control_c, 0, 64, 81
1, 536734, Control_c, 1, 64, 81
1, 536754, Control_c, 1, 64, 127
1, 536754, Control_c, 0, 64, 127
1, 536919, Note_on_c, 0, 56, 33
1, 536970, Note_off_c, 0, 49, 40
1, 536990, Note_off_c, 0, 56, 56
1, 537236, Note_on_c, 0, 61, 36
1, 537284, Note_off_c, 0, 90, 63
1, 537330, Note_off_c, 0, 78, 57
1, 537330, Poly_aftertouch_c, 0, 78, 0
1, 537454, Note_on_c, 0, 68, 42
1, 537485, Note_off_c, 0, 61, 35
1, 537485, Poly_aftertouch_c, 0, 61, 0
1, 537698, Note_on_c, 0, 73, 48
1, 537851, Note_on_c, 0, 64, 36
1, 537936, Note_off_c, 0, 68, 30
1, 537937, Note_off_c, 0, 73, 47
1, 537974, Note_on_c, 0, 80, 58
1, 538056, Note_off_c, 0, 80, 63
1, 538179, Note_on_c, 0, 63, 47
1, 538187, Note_off_c, 0, 64, 39
1, 538206, Note_on_c, 0, 80, 61
1, 538234, Control_c, 0, 64, 102
1, 538234, Control_c, 1, 64, 102
1, 538252, Control_c, 1, 64, 90
1, 538252, Control_c, 0, 64, 90
1, 538289, Control_c, 0, 64, 107
1, 538289, Control_c, 1, 64, 107
1, 538307, Control_c, 1, 64, 127
1, 538307, Control_c, 0, 64, 127
1, 538381, Note_on_c, 0, 92, 62
1, 538475, Note_off_c, 0, 63, 54
1, 538499, Note_on_c, 0, 61, 50
1, 538570, Note_off_c, 0, 80, 45
1, 538651, Note_on_c, 0, 88, 47
1, 538665, Note_off_c, 0, 92, 57
1, 538783, Note_off_c, 0, 88, 57
1, 538851, Control_c, 0, 64, 101
1, 538851, Control_c, 1, 64, 101
1, 538869, Control_c, 1, 64, 69
1, 538869, Control_c, 0, 64, 69
1, 538871, Poly_aftertouch_c, 0, 87, 0
1, 538886, Note_on_c, 0, 59, 34
1, 538886, Control_c, 0, 64, 50
1, 538886, Control_c, 1, 64, 50
1, 538905, Control_c, 1, 64, 44
1, 538905, Control_c, 0, 64, 44
1, 538910, Note_on_c, 0, 75, 47
1, 538916, Note_off_c, 0, 61, 35
1, 538916, Poly_aftertouch_c, 0, 61, 0
1, 538944, Control_c, 0, 64, 54
1, 538944, Control_c, 1, 64, 54
1, 538963, Control_c, 1, 64, 71
1, 538963, Control_c, 0, 64, 71
1, 538982, Control_c, 0, 64, 101
1, 538982, Control_c, 1, 64, 101
1, 539000, Control_c, 1, 64, 127
1, 539000, Control_c, 0, 64, 127
1, 539082, Note_on_c, 0, 87, 52
1, 539124, Note_off_c, 0, 75, 51
1, 539257, Note_off_c, 0, 59, 61
1, 539257, Poly_aftertouch_c, 0, 59, 0
1, 539307, Note_on_c, 0, 85, 59
1, 539323, Note_on_c, 0, 73, 43
1, 539340, Note_off_c, 0, 87, 48
1, 539407, Note_off_c, 0, 85, 57
1, 539411, Note_off_c, 0, 73, 50
1, 539625, Note_on_c, 0, 54, 38
1, 539674, Control_c, 0, 64, 117
1, 539674, Control_c, 1, 64, 117
1, 539695, Control_c, 1, 64, 78
1, 539695, Control_c, 0, 64, 78
1, 539712, Control_c, 0, 64, 56
1, 539712, Control_c, 1, 64, 56
1, 539731, Control_c, 1, 64, 42
1, 539731, Control_c, 0, 64, 42
1, 539741, Note_on_c, 0, 83, 45
1, 539748, Control_c, 0, 64, 36
1, 539748, Control_c, 1, 64, 36
1, 539783, Note_on_c, 0, 71, 28
1, 539823, Control_c, 0, 64, 42
1, 539823, Control_c, 1, 64, 42
1, 539843, Control_c, 1, 64, 52
1, 539843, Control_c, 0, 64, 52
1, 539861, Control_c, 0, 64, 65
1, 539861, Control_c, 1, 64, 65
1, 539880, Control_c, 1, 64, 78
1, 539880, Control_c, 0, 64, 78
1, 539900, Control_c, 0, 64, 96
1, 539900, Control_c, 1, 64, 96
1, 539918, Control_c, 1, 64, 127
1, 539918, Control_c, 0, 64, 127
1, 540141, Note_on_c, 0, 61, 35
1, 540159, Note_off_c, 0, 54, 40
1, 540265, Note_off_c, 0, 71, 35
1, 540446, Note_off_c, 0, 83, 52
1, 540489, Note_on_c, 0, 66, 37
1, 540724, Note_off_c, 0, 66, 49
1, 540724, Poly_aftertouch_c, 0, 66, 0
1, 540742, Note_on_c, 0, 70, 32
1, 540745, Note_off_c, 0, 61, 33
1, 540745, Poly_aftertouch_c, 0, 61, 0
1, 540955, Note_on_c, 0, 78, 34
1, 541115, Note_on_c, 0, 65, 42
1, 541158, Note_off_c, 0, 70, 44
1, 541158, Poly_aftertouch_c, 0, 70, 0
1, 541264, Note_off_c, 0, 78, 48
1, 541264, Poly_aftertouch_c, 0, 78, 0
1, 541268, Note_on_c, 0, 85, 48
1, 541489, Note_off_c, 0, 65, 55
1, 541509, Control_c, 0, 64, 85
1, 541509, Control_c, 1, 64, 85
1, 541522, Note_off_c, 0, 85, 62
1, 541526, Note_on_c, 0, 66, 39
1, 541527, Control_c, 0, 64, 66
1, 541527, Control_c, 1, 64, 66
1, 541546, Control_c, 1, 64, 58
1, 541546, Control_c, 0, 64, 58
1, 541563, Note_on_c, 0, 82, 48
1, 541584, Control_c, 0, 64, 62
1, 541584, Control_c, 1, 64, 62
1, 541603, Control_c, 1, 64, 70
1, 541603, Control_c, 0, 64, 70
1, 541621, Control_c, 0, 64, 85
1, 541621, Control_c, 1, 64, 85
1, 541639, Control_c, 1, 64, 127
1, 541639, Control_c, 0, 64, 127
1, 541734, Note_on_c, 0, 94, 74
1, 541887, Note_on_c, 0, 62, 40
1, 541982, Note_off_c, 0, 66, 36
1, 541982, Poly_aftertouch_c, 0, 66, 0
1, 541992, Note_on_c, 0, 89, 58
1, 542019, Note_off_c, 0, 82, 53
1, 542032, Note_off_c, 0, 94, 53
1, 542127, Control_c, 0, 64, 93
1, 542127, Control_c, 1, 64, 93
1, 542145, Control_c, 1, 64, 67
1, 542145, Control_c, 0, 64, 67
1, 542165, Control_c, 0, 64, 55
1, 542165, Control_c, 1, 64, 55
1, 542175, Note_off_c, 0, 62, 49
1, 542202, Control_c, 0, 64, 62
1, 542202, Control_c, 1, 64, 62
1, 542206, Note_off_c, 0, 89, 58
1, 542211, Note_on_c, 0, 61, 39
1, 542220, Control_c, 0, 64, 73
1, 542220, Control_c, 1, 64, 73
1, 542233, Note_on_c, 0, 78, 62
1, 542238, Control_c, 0, 64, 95
1, 542238, Control_c, 1, 64, 95
1, 542259, Control_c, 1, 64, 127
1, 542259, Control_c, 0, 64, 127
1, 542397, Note_on_c, 0, 90, 69
1, 542470, Note_off_c, 0, 78, 60
1, 542470, Poly_aftertouch_c, 0, 78, 0
1, 542489, Note_off_c, 0, 90, 63
1, 542535, Note_off_c, 0, 61, 38
1, 542535, Poly_aftertouch_c, 0, 61, 0
1, 542547, Note_on_c, 0, 59, 45
1, 542697, Note_on_c, 0, 86, 66
1, 542786, Note_on_c, 0, 74, 17
1, 542849, Note_off_c, 0, 74, 38
1, 542849, Poly_aftertouch_c, 0, 74, 0
1, 542887, Poly_aftertouch_c, 0, 59, 24
1, 542937, Note_off_c, 0, 59, 36
1, 542937, Poly_aftertouch_c, 0, 59, 0
1, 542955, Note_on_c, 0, 52, 47
1, 542988, Control_c, 0, 64, 108
1, 542988, Control_c, 1, 64, 108
1, 543007, Control_c, 1, 64, 72
1, 543007, Control_c, 0, 64, 72
1, 543026, Control_c, 0, 64, 51
1, 543026, Control_c, 1, 64, 51
1, 543043, Control_c, 1, 64, 40
1, 543043, Control_c, 0, 64, 40
1, 543080, Note_on_c, 0, 73, 55
1, 543081, Control_c, 0, 64, 42
1, 543081, Control_c, 1, 64, 42
1, 543099, Control_c, 1, 64, 54
1, 543099, Control_c, 0, 64, 54
1, 543118, Control_c, 0, 64, 74
1, 543118, Control_c, 1, 64, 74
1, 543137, Control_c, 1, 64, 105
1, 543137, Control_c, 0, 64, 105
1, 543156, Control_c, 0, 64, 127
1, 543156, Control_c, 1, 64, 127
1, 543202, Note_on_c, 0, 85, 54
1, 543250, Note_off_c, 0, 86, 50
1, 543283, Note_off_c, 0, 73, 35
1, 543321, Note_off_c, 0, 85, 54
1, 543321, Note_on_c, 0, 59, 36
1, 543329, Note_off_c, 0, 52, 37
1, 543329, Poly_aftertouch_c, 0, 52, 0
1, 543434, Note_off_c, 0, 59, 55
1, 543434, Poly_aftertouch_c, 0, 59, 0
1, 543515, Note_on_c, 0, 83, 52
1, 543644, Poly_aftertouch_c, 0, 71, 0
1, 543651, Note_off_c, 0, 83, 48
1, 543711, Note_on_c, 0, 64, 32
1, 543808, Note_off_c, 0, 64, 56
1, 543846, Note_on_c, 0, 68, 41
1, 544005, Note_on_c, 0, 76, 51
1, 544176, Note_on_c, 0, 63, 45
1, 544188, Note_off_c, 0, 68, 36
1, 544234, Note_off_c, 0, 76, 58
1, 544234, Poly_aftertouch_c, 0, 76, 0
1, 544270, Note_on_c, 0, 83, 47
1, 544440, Note_off_c, 0, 63, 58
1, 544466, Control_c, 0, 64, 106
1, 544466, Control_c, 1, 64, 106
1, 544476, Note_off_c, 0, 83, 63
1, 544478, Note_on_c, 0, 64, 46
1, 544484, Control_c, 0, 64, 77
1, 544484, Control_c, 1, 64, 77
1, 544500, Note_on_c, 0, 80, 56
1, 544502, Control_c, 0, 64, 61
1, 544502, Control_c, 1, 64, 61
1, 544542, Control_c, 1, 64, 63
1, 544542, Control_c, 0, 64, 63
1, 544560, Control_c, 0, 64, 72
1, 544560, Control_c, 1, 64, 72
1, 544578, Control_c, 1, 64, 89
1, 544578, Control_c, 0, 64, 89
1, 544597, Control_c, 0, 64, 127
1, 544597, Control_c, 1, 64, 127
1, 544687, Note_on_c, 0, 92, 80
1, 544861, Note_on_c, 0, 61, 44
1, 544879, Note_off_c, 0, 64, 40
1, 544959, Note_on_c, 0, 87, 57
1, 544982, Note_off_c, 0, 80, 55
1, 544987, Note_off_c, 0, 92, 59
1, 545159, Control_c, 0, 64, 93
1, 545159, Control_c, 1, 64, 93
1, 545168, Note_on_c, 0, 59, 45
1, 545178, Control_c, 0, 64, 65
1, 545178, Control_c, 1, 64, 65
1, 545183, Note_off_c, 0, 61, 38
1, 545183, Poly_aftertouch_c, 0, 61, 0
1, 545189, Note_off_c, 0, 87, 59
1, 545197, Control_c, 0, 64, 49
1, 545197, Control_c, 1, 64, 49
1, 545215, Control_c, 1, 64, 45
1, 545215, Control_c, 0, 64, 45
1, 545222, Note_on_c, 0, 76, 58
1, 545252, Control_c, 0, 64, 58
1, 545252, Control_c, 1, 64, 58
1, 545272, Control_c, 1, 64, 77
1, 545272, Control_c, 0, 64, 77
1, 545290, Control_c, 0, 64, 127
1, 545290, Control_c, 1, 64, 127
1, 545407, Note_on_c, 0, 88, 65
1, 545442, Note_off_c, 0, 76, 56
1, 545442, Poly_aftertouch_c, 0, 76, 0
1, 545475, Note_off_c, 0, 59, 52
1, 545475, Poly_aftertouch_c, 0, 59, 0
1, 545521, Note_on_c, 0, 57, 44
1, 545667, Note_on_c, 0, 85, 62
1, 545678, Note_off_c, 0, 88, 41
1, 545697, Note_on_c, 0, 73, 39
1, 545765, Note_off_c, 0, 73, 43
1, 545845, Note_off_c, 0, 85, 53
1, 545852, Note_off_c, 0, 57, 36
1, 545862, Note_on_c, 0, 50, 40
1, 545907, Control_c, 0, 64, 99
1, 545907, Control_c, 1, 64, 99
1, 545926, Control_c, 1, 64, 69
1, 545926, Control_c, 0, 64, 69
1, 545946, Control_c, 0, 64, 50
1, 545946, Control_c, 1, 64, 50
1, 545963, Control_c, 1, 64, 48
1, 545963, Control_c, 0, 64, 48
1, 545980, Note_on_c, 0, 71, 23
1, 545980, Control_c, 0, 64, 50
1, 545980, Control_c, 1, 64, 50
1, 546001, Control_c, 1, 64, 59
1, 546001, Control_c, 0, 64, 59
1, 546020, Control_c, 0, 64, 74
1, 546020, Control_c, 1, 64, 74
1, 546039, Control_c, 1, 64, 98
1, 546039, Control_c, 0, 64, 98
1, 546057, Control_c, 0, 64, 127
1, 546057, Control_c, 1, 64, 127
1, 546112, Note_on_c, 0, 83, 52
1, 546179, Note_off_c, 0, 71, 38
1, 546245, Note_off_c, 0, 50, 35
1, 546245, Note_on_c, 0, 57, 34
1, 546378, Note_on_c, 0, 81, 56
1, 546391, Note_on_c, 0, 69, 36
1, 546416, Note_off_c, 0, 83, 29
1, 546436, Note_off_c, 0, 69, 44
1, 546436, Poly_aftertouch_c, 0, 69, 0
1, 546583, Note_off_c, 0, 81, 35
1, 546584, Poly_aftertouch_c, 0, 81, 0
1, 546613, Note_on_c, 0, 62, 29
1, 546783, Note_off_c, 0, 57, 39
1, 546793, Note_on_c, 0, 65, 30
1, 546796, Note_off_c, 0, 62, 38
1, 546966, Note_on_c, 0, 74, 68
1, 547180, Note_on_c, 0, 57, 38
1, 547264, Note_off_c, 0, 65, 37
1, 547288, Note_on_c, 0, 83, 45
1, 547311, Note_off_c, 0, 74, 38
1, 547311, Poly_aftertouch_c, 0, 74, 0
1, 547480, Note_off_c, 0, 57, 36
1, 547487, Note_on_c, 0, 52, 41
1, 547499, Control_c, 0, 64, 103
1, 547499, Control_c, 1, 64, 103
1, 547518, Control_c, 1, 64, 71
1, 547518, Control_c, 0, 64, 71
1, 547536, Control_c, 0, 64, 52
1, 547536, Control_c, 1, 64, 52
1, 547555, Control_c, 1, 64, 47
1, 547555, Control_c, 0, 64, 47
1, 547574, Note_off_c, 0, 83, 61
1, 547584, Note_on_c, 0, 77, 58
1, 547591, Control_c, 0, 64, 56
1, 547591, Control_c, 1, 64, 56
1, 547611, Control_c, 1, 64, 74
1, 547611, Control_c, 0, 64, 74
1, 547630, Control_c, 0, 64, 114
1, 547630, Control_c, 1, 64, 114
1, 547648, Control_c, 1, 64, 127
1, 547648, Control_c, 0, 64, 127
1, 547788, Note_off_c, 0, 52, 50
1, 547788, Poly_aftertouch_c, 0, 52, 0
1, 547830, Note_on_c, 0, 89, 49
1, 547861, Note_on_c, 0, 59, 25
1, 547955, Note_off_c, 0, 59, 60
1, 547955, Poly_aftertouch_c, 0, 59, 0
1, 547981, Poly_aftertouch_c, 0, 77, 24
1, 548051, Note_on_c, 0, 81, 44
1, 548055, Note_off_c, 0, 89, 34
1, 548247, Note_off_c, 0, 77, 19
1, 548247, Poly_aftertouch_c, 0, 77, 0
1, 548248, Poly_aftertouch_c, 0, 77, 0
1, 548280, Note_on_c, 0, 64, 10
1, 548367, Note_off_c, 0, 64, 43
1, 548367, Note_on_c, 0, 68, 29
1, 548569, Note_on_c, 0, 76, 50
1, 548729, Note_on_c, 0, 62, 37
1, 548893, Note_off_c, 0, 68, 41
1, 548910, Note_on_c, 0, 83, 41
1, 548932, Note_off_c, 0, 76, 52
1, 548932, Poly_aftertouch_c, 0, 76, 0
1, 548966, Note_off_c, 0, 81, 35
1, 549118, Note_on_c, 0, 57, 38
1, 549143, Note_off_c, 0, 62, 35
1, 549165, Control_c, 0, 64, 105
1, 549165, Control_c, 1, 64, 105
1, 549183, Control_c, 1, 64, 69
1, 549183, Control_c, 0, 64, 69
1, 549202, Control_c, 0, 64, 47
1, 549202, Control_c, 1, 64, 47
1, 549221, Control_c, 1, 64, 42
1, 549221, Control_c, 0, 64, 42
1, 549243, Note_off_c, 0, 83, 61
1, 549258, Note_on_c, 0, 80, 45
1, 549276, Control_c, 0, 64, 51
1, 549276, Control_c, 1, 64, 51
1, 549296, Control_c, 1, 64, 66
1, 549296, Control_c, 0, 64, 66
1, 549315, Control_c, 0, 64, 87
1, 549315, Control_c, 1, 64, 87
1, 549333, Control_c, 1, 64, 127
1, 549333, Control_c, 0, 64, 127
1, 549535, Note_on_c, 0, 92, 40
1, 549622, Note_on_c, 0, 64, 26
1, 549628, Note_off_c, 0, 57, 36
1, 549777, Note_off_c, 0, 64, 52
1, 549839, Note_on_c, 0, 86, 43
1, 549891, Note_off_c, 0, 80, 40
1, 549997, Note_off_c, 0, 92, 46
1, 550103, Note_on_c, 0, 69, 26
1, 550175, Note_off_c, 0, 69, 39
1, 550175, Poly_aftertouch_c, 0, 69, 0
1, 550220, Note_on_c, 0, 73, 39
1, 550444, Note_on_c, 0, 81, 42
1, 550612, Note_on_c, 0, 68, 31
1, 550635, Note_off_c, 0, 73, 35
1, 550701, Poly_aftertouch_c, 0, 81, 20
1, 550706, Note_off_c, 0, 81, 32
1, 550706, Poly_aftertouch_c, 0, 81, 0
1, 550754, Note_off_c, 0, 86, 55
1, 550761, Note_on_c, 0, 88, 39
1, 551009, Note_on_c, 0, 69, 34
1, 551012, Note_off_c, 0, 68, 43
1, 551017, Control_c, 0, 64, 88
1, 551017, Control_c, 1, 64, 88
1, 551036, Control_c, 1, 64, 67
1, 551036, Control_c, 0, 64, 67
1, 551055, Control_c, 0, 64, 64
1, 551055, Control_c, 1, 64, 64
1, 551070, Note_off_c, 0, 88, 58
1, 551072, Control_c, 0, 64, 68
1, 551072, Control_c, 1, 64, 68
1, 551092, Control_c, 1, 64, 76
1, 551092, Control_c, 0, 64, 76
1, 551111, Control_c, 0, 64, 101
1, 551111, Control_c, 1, 64, 101
1, 551114, Note_on_c, 0, 85, 42
1, 551130, Control_c, 0, 64, 127
1, 551130, Control_c, 1, 64, 127
1, 551392, Note_on_c, 0, 97, 44
1, 551520, Note_on_c, 0, 61, 28
1, 551684, Note_off_c, 0, 97, 58
1, 551692, Note_on_c, 0, 92, 47
1, 551804, Note_off_c, 0, 85, 47
1, 551943, Note_on_c, 0, 57, 23
1, 552169, Note_on_c, 0, 64, 30
1, 552178, Note_off_c, 0, 61, 29
1, 552178, Poly_aftertouch_c, 0, 61, 0
1, 552281, Note_on_c, 0, 81, 35
1, 552291, Control_c, 0, 64, 121
1, 552291, Control_c, 1, 64, 121
1, 552310, Control_c, 1, 64, 83
1, 552310, Control_c, 0, 64, 83
1, 552328, Control_c, 0, 64, 65
1, 552328, Control_c, 1, 64, 65
1, 552346, Control_c, 1, 64, 57
1, 552346, Control_c, 0, 64, 57
1, 552403, Control_c, 0, 64, 63
1, 552403, Control_c, 1, 64, 63
1, 552411, Poly_aftertouch_c, 0, 69, 24
1, 552421, Control_c, 0, 64, 73
1, 552421, Control_c, 1, 64, 73
1, 552441, Control_c, 1, 64, 88
1, 552441, Control_c, 0, 64, 88
1, 552458, Control_c, 0, 64, 127
1, 552458, Control_c, 1, 64, 127
1, 552548, Note_off_c, 0, 69, 34
1, 552548, Poly_aftertouch_c, 0, 69, 0
1, 552595, Note_on_c, 0, 93, 49
1, 552682, Note_off_c, 0, 92, 19
1, 552975, Note_off_c, 0, 93, 37
1, 552975, Note_on_c, 0, 85, 30
1, 553036, Note_off_c, 0, 81, 48
1, 553036, Poly_aftertouch_c, 0, 81, 0
1, 553390, Note_on_c, 0, 76, 23
1, 553675, Note_on_c, 0, 88, 47
1, 553908, Note_off_c, 0, 85, 43
1, 555308, Note_off_c, 0, 64, 53
1, 555348, Note_off_c, 0, 57, 51
1, 555362, Note_off_c, 0, 76, 39
1, 555362, Poly_aftertouch_c, 0, 76, 0
1, 555512, Note_off_c, 0, 88, 37
1, 555922, Control_c, 0, 64, 116
1, 555922, Control_c, 1, 64, 116
1, 555940, Control_c, 1, 64, 108
1, 555940, Control_c, 0, 64, 108
1, 555960, Control_c, 0, 64, 103
1, 555960, Control_c, 1, 64, 103
1, 555978, Control_c, 1, 64, 99
1, 555978, Control_c, 0, 64, 99
1, 556015, Control_c, 0, 64, 92
1, 556015, Control_c, 1, 64, 92
1, 556053, Control_c, 1, 64, 87
1, 556053, Control_c, 0, 64, 87
1, 556091, Control_c, 0, 64, 85
1, 556091, Control_c, 1, 64, 85
1, 556128, Control_c, 1, 64, 83
1, 556128, Control_c, 0, 64, 83
1, 556146, Control_c, 0, 64, 81
1, 556146, Control_c, 1, 64, 81
1, 556166, Control_c, 1, 64, 78
1, 556166, Control_c, 0, 64, 78
1, 556185, Control_c, 0, 64, 76
1, 556185, Control_c, 1, 64, 76
1, 556202, Control_c, 1, 64, 73
1, 556202, Control_c, 0, 64, 73
1, 556222, Control_c, 0, 64, 70
1, 556222, Control_c, 1, 64, 70
1, 556240, Control_c, 1, 64, 66
1, 556240, Control_c, 0, 64, 66
1, 556259, Control_c, 0, 64, 62
1, 556259, Control_c, 1, 64, 62
1, 556277, Control_c, 1, 64, 58
1, 556277, Control_c, 0, 64, 58
1, 556297, Control_c, 0, 64, 53
1, 556297, Control_c, 1, 64, 53
1, 556313, Note_on_c, 0, 92, 46
1, 556314, Control_c, 0, 64, 49
1, 556314, Control_c, 1, 64, 49
1, 556333, Control_c, 1, 64, 46
1, 556333, Control_c, 0, 64, 46
1, 556353, Control_c, 0, 64, 41
1, 556353, Control_c, 1, 64, 41
1, 556370, Note_off_c, 0, 92, 59
1, 556370, Control_c, 0, 64, 36
1, 556370, Control_c, 1, 64, 36
1, 556389, Control_c, 1, 64, 32
1, 556389, Control_c, 0, 64, 32
1, 556392, Note_on_c, 0, 95, 49
1, 556409, Control_c, 0, 64, 28
1, 556409, Control_c, 1, 64, 28
1, 556498, Note_on_c, 0, 33, 50
1, 556501, Note_off_c, 0, 95, 62
1, 556504, Note_on_c, 0, 81, 54
1, 556505, Note_on_c, 0, 93, 60
1, 556514, Note_on_c, 0, 48, 30
1, 556520, Control_c, 0, 64, 39
1, 556520, Control_c, 1, 64, 39
1, 556528, Note_off_c, 0, 81, 61
1, 556528, Poly_aftertouch_c, 0, 81, 0
1, 556539, Control_c, 0, 64, 55
1, 556539, Control_c, 1, 64, 55
1, 556547, Note_off_c, 0, 33, 63
1, 556559, Control_c, 0, 64, 75
1, 556559, Control_c, 1, 64, 75
1, 556577, Control_c, 1, 64, 93
1, 556577, Control_c, 0, 64, 93
1, 556588, Note_off_c, 0, 48, 42
1, 556595, Control_c, 0, 64, 127
1, 556595, Control_c, 1, 64, 127
1, 556684, Note_off_c, 0, 93, 40
1, 556742, Note_on_c, 0, 92, 55
1, 556758, Note_on_c, 0, 80, 29
1, 556812, Note_off_c, 0, 80, 48
1, 556860, Note_off_c, 0, 92, 38
1, 556876, Control_c, 0, 64, 95
1, 556876, Control_c, 1, 64, 95
1, 556895, Control_c, 1, 64, 76
1, 556895, Control_c, 0, 64, 76
1, 556909, Note_on_c, 0, 93, 63
1, 556914, Control_c, 0, 64, 64
1, 556914, Control_c, 1, 64, 64
1, 556917, Note_on_c, 0, 57, 42
1, 556920, Note_on_c, 0, 60, 45
1, 556933, Control_c, 0, 64, 59
1, 556933, Control_c, 1, 64, 59
1, 556942, Note_on_c, 0, 65, 30
1, 556948, Note_on_c, 0, 81, 6
1, 556949, Note_off_c, 0, 81, 127
1, 556949, Poly_aftertouch_c, 0, 81, 0
1, 556953, Note_on_c, 0, 53, 36
1, 556957, Note_off_c, 0, 60, 59
1, 556964, Note_off_c, 0, 57, 50
1, 556989, Note_off_c, 0, 65, 43
1, 556990, Note_off_c, 0, 93, 62
1, 556993, Note_off_c, 0, 53, 49
1, 557007, Control_c, 0, 64, 57
1, 557007, Control_c, 1, 64, 57
1, 557053, Note_on_c, 0, 95, 63
1, 557070, Note_on_c, 0, 83, 47
1, 557100, Note_off_c, 0, 83, 53
1, 557100, Control_c, 0, 64, 55
1, 557100, Control_c, 1, 64, 55
1, 557136, Note_off_c, 0, 95, 59
1, 557195, Control_c, 0, 64, 53
1, 557195, Control_c, 1, 64, 53
1, 557198, Note_on_c, 0, 93, 66
1, 557204, Note_on_c, 0, 57, 31
1, 557221, Note_on_c, 0, 64, 46
1, 557228, Note_on_c, 0, 52, 48
1, 557229, Note_on_c, 0, 81, 27
1, 557230, Note_on_c, 0, 60, 42
1, 557236, Note_off_c, 0, 93, 59
1, 557250, Note_off_c, 0, 81, 38
1, 557250, Poly_aftertouch_c, 0, 81, 0
1, 557340, Note_on_c, 0, 95, 71
1, 557357, Note_on_c, 0, 83, 37
1, 557373, Note_off_c, 0, 95, 68
1, 557392, Note_off_c, 0, 83, 37
1, 557400, Control_c, 0, 64, 55
1, 557400, Control_c, 1, 64, 55
1, 557419, Note_off_c, 0, 64, 60
1, 557419, Control_c, 0, 64, 58
1, 557419, Control_c, 1, 64, 58
1, 557440, Control_c, 1, 64, 61
1, 557440, Control_c, 0, 64, 61
1, 557457, Control_c, 0, 64, 64
1, 557457, Control_c, 1, 64, 64
1, 557465, Note_on_c, 0, 96, 80
1, 557475, Control_c, 0, 64, 69
1, 557475, Control_c, 1, 64, 69
1, 557480, Note_on_c, 0, 84, 58
1, 557495, Control_c, 0, 64, 73
1, 557495, Control_c, 1, 64, 73
1, 557501, Note_off_c, 0, 96, 63
1, 557503, Note_off_c, 0, 60, 58
1, 557505, Note_off_c, 0, 84, 62
1, 557513, Note_off_c, 0, 57, 54
1, 557514, Control_c, 0, 64, 79
1, 557514, Control_c, 1, 64, 79
1, 557531, Control_c, 1, 64, 87
1, 557531, Control_c, 0, 64, 87
1, 557546, Note_off_c, 0, 52, 60
1, 557546, Poly_aftertouch_c, 0, 52, 0
1, 557549, Control_c, 0, 64, 99
1, 557549, Control_c, 1, 64, 99
1, 557570, Control_c, 1, 64, 118
1, 557570, Control_c, 0, 64, 118
1, 557589, Control_c, 0, 64, 127
1, 557589, Control_c, 1, 64, 127
1, 557615, Note_on_c, 0, 93, 75
1, 557620, Note_on_c, 0, 81, 53
1, 557648, Note_off_c, 0, 81, 60
1, 557648, Poly_aftertouch_c, 0, 81, 0
1, 557672, Note_off_c, 0, 93, 65
1, 557749, Poly_aftertouch_c, 0, 83, 0
1, 557776, Note_on_c, 0, 33, 61
1, 557791, Note_on_c, 0, 99, 77
1, 557838, Note_off_c, 0, 33, 61
1, 557865, Note_on_c, 0, 101, 56
1, 557866, Note_on_c, 0, 47, 69
1, 557897, Note_on_c, 0, 100, 67
1, 557899, Note_off_c, 0, 99, 64
1, 557902, Note_off_c, 0, 47, 66
1, 557932, Note_off_c, 0, 101, 63
1, 557936, Note_on_c, 0, 88, 36
1, 557962, Control_c, 0, 64, 97
1, 557962, Control_c, 1, 64, 97
1, 557976, Note_off_c, 0, 88, 32
1, 557980, Control_c, 0, 64, 81
1, 557980, Control_c, 1, 64, 81
1, 557999, Control_c, 1, 64, 71
1, 557999, Control_c, 0, 64, 71
1, 558018, Control_c, 0, 64, 67
1, 558018, Control_c, 1, 64, 67
1, 558037, Control_c, 1, 64, 65
1, 558037, Control_c, 0, 64, 65
1, 558056, Note_on_c, 0, 87, 74
1, 558056, Control_c, 0, 64, 64
1, 558056, Control_c, 1, 64, 64
1, 558057, Note_on_c, 0, 99, 77
1, 558075, Control_c, 0, 64, 62
1, 558075, Control_c, 1, 64, 62
1, 558090, Note_off_c, 0, 87, 67
1, 558091, Note_off_c, 0, 100, 54
1, 558092, Control_c, 0, 64, 59
1, 558092, Control_c, 1, 64, 59
1, 558111, Note_off_c, 0, 99, 55
1, 558113, Control_c, 0, 64, 54
1, 558113, Control_c, 1, 64, 54
1, 558131, Control_c, 1, 64, 51
1, 558131, Control_c, 0, 64, 51
1, 558175, Note_on_c, 0, 59, 42
1, 558185, Note_on_c, 0, 68, 57
1, 558189, Note_on_c, 0, 56, 54
1, 558190, Note_on_c, 0, 100, 78
1, 558205, Note_on_c, 0, 88, 51
1, 558224, Control_c, 0, 64, 49
1, 558224, Control_c, 1, 64, 49
1, 558238, Note_off_c, 0, 88, 59
1, 558242, Control_c, 0, 64, 47
1, 558242, Control_c, 1, 64, 47
1, 558262, Control_c, 1, 64, 44
1, 558262, Control_c, 0, 64, 44
1, 558280, Control_c, 0, 64, 42
1, 558280, Control_c, 1, 64, 42
1, 558283, Note_off_c, 0, 100, 58
1, 558291, Note_off_c, 0, 68, 61
1, 558307, Note_on_c, 0, 101, 82
1, 558318, Control_c, 0, 64, 40
1, 558318, Control_c, 1, 64, 40
1, 558330, Note_on_c, 0, 89, 59
1, 558354, Note_off_c, 0, 89, 63
1, 558378, Note_off_c, 0, 101, 63
1, 558420, Note_off_c, 0, 56, 50
1, 558449, Control_c, 0, 64, 36
1, 558449, Control_c, 1, 64, 36
1, 558464, Note_on_c, 0, 100, 73
1, 558467, Note_off_c, 0, 59, 59
1, 558467, Poly_aftertouch_c, 0, 59, 0
1, 558472, Note_on_c, 0, 88, 64
1, 558476, Note_on_c, 0, 56, 35
1, 558503, Note_off_c, 0, 88, 64
1, 558508, Note_off_c, 0, 100, 57
1, 558525, Note_on_c, 0, 64, 28
1, 558526, Note_on_c, 0, 52, 16
1, 558568, Poly_aftertouch_c, 0, 65, 0
1, 558580, Control_c, 0, 64, 42
1, 558580, Control_c, 1, 64, 42
1, 558599, Control_c, 1, 64, 48
1, 558599, Control_c, 0, 64, 48
1, 558611, Note_on_c, 0, 98, 77
1, 558617, Note_on_c, 0, 86, 60
1, 558617, Control_c, 0, 64, 55
1, 558617, Control_c, 1, 64, 55
1, 558626, Poly_aftertouch_c, 0, 53, 0
1, 558637, Control_c, 0, 64, 61
1, 558637, Control_c, 1, 64, 61
1, 558641, Note_off_c, 0, 86, 63
1, 558642, Note_off_c, 0, 98, 68
1, 558655, Control_c, 0, 64, 66
1, 558655, Control_c, 1, 64, 66
1, 558673, Control_c, 1, 64, 69
1, 558673, Control_c, 0, 64, 69
1, 558692, Control_c, 0, 64, 72
1, 558692, Control_c, 1, 64, 72
1, 558695, Note_off_c, 0, 64, 41
1, 558711, Control_c, 0, 64, 76
1, 558711, Control_c, 1, 64, 76
1, 558730, Control_c, 1, 64, 82
1, 558730, Control_c, 0, 64, 82
1, 558741, Note_on_c, 0, 96, 81
1, 558747, Control_c, 0, 64, 91
1, 558747, Control_c, 1, 64, 91
1, 558750, Note_on_c, 0, 84, 66
1, 558760, Note_off_c, 0, 56, 52
1, 558766, Control_c, 0, 64, 102
1, 558766, Control_c, 1, 64, 102
1, 558770, Note_off_c, 0, 96, 67
1, 558774, Note_off_c, 0, 84, 65
1, 558785, Note_off_c, 0, 52, 52
1, 558785, Poly_aftertouch_c, 0, 52, 0
1, 558785, Control_c, 0, 64, 114
1, 558785, Control_c, 1, 64, 114
1, 558804, Control_c, 1, 64, 127
1, 558804, Control_c, 0, 64, 127
1, 558882, Note_on_c, 0, 95, 80
1, 558887, Note_on_c, 0, 83, 67
1, 558913, Note_off_c, 0, 83, 65
1, 558921, Note_off_c, 0, 95, 63
1, 558987, Note_on_c, 0, 92, 78
1, 559029, Note_on_c, 0, 33, 38
1, 559052, Note_on_c, 0, 95, 70
1, 559068, Note_on_c, 0, 35, 25
1, 559081, Note_off_c, 0, 33, 45
1, 559099, Note_on_c, 0, 48, 73
1, 559110, Note_on_c, 0, 93, 68
1, 559120, Note_off_c, 0, 92, 60
1, 559122, Control_c, 0, 64, 91
1, 559122, Control_c, 1, 64, 91
1, 559123, Note_off_c, 0, 35, 40
1, 559133, Note_off_c, 0, 48, 67
1, 559140, Control_c, 0, 64, 72
1, 559140, Control_c, 1, 64, 72
1, 559142, Note_on_c, 0, 81, 56
1, 559145, Note_off_c, 0, 95, 62
1, 559159, Control_c, 0, 64, 61
1, 559159, Control_c, 1, 64, 61
1, 559166, Note_off_c, 0, 81, 60
1, 559166, Poly_aftertouch_c, 0, 81, 0
1, 559179, Control_c, 0, 64, 55
1, 559179, Control_c, 1, 64, 55
1, 559206, Note_off_c, 0, 93, 64
1, 559254, Control_c, 0, 64, 53
1, 559254, Control_c, 1, 64, 53
1, 559264, Note_on_c, 0, 92, 80
1, 559275, Note_on_c, 0, 80, 66
1, 559291, Control_c, 0, 64, 50
1, 559291, Control_c, 1, 64, 50
1, 559309, Note_off_c, 0, 80, 70
1, 559329, Control_c, 0, 64, 48
1, 559329, Control_c, 1, 64, 48
1, 559335, Note_off_c, 0, 92, 62
1, 559385, Note_on_c, 0, 65, 53
1, 559389, Note_on_c, 0, 57, 49
1, 559395, Note_on_c, 0, 93, 71
1, 559405, Note_on_c, 0, 60, 41
1, 559418, Note_on_c, 0, 53, 46
1, 559422, Note_on_c, 0, 81, 47
1, 559453, Note_off_c, 0, 81, 36
1, 559453, Poly_aftertouch_c, 0, 81, 0
1, 559474, Note_off_c, 0, 65, 37
1, 559484, Note_off_c, 0, 93, 59
1, 559493, Note_off_c, 0, 60, 47
1, 559506, Note_off_c, 0, 57, 52
1, 559519, Note_on_c, 0, 95, 79
1, 559523, Note_off_c, 0, 53, 58
1, 559535, Control_c, 0, 64, 50
1, 559535, Control_c, 1, 64, 50
1, 559540, Note_on_c, 0, 83, 61
1, 559554, Control_c, 0, 64, 53
1, 559554, Control_c, 1, 64, 53
1, 559565, Note_off_c, 0, 83, 64
1, 559572, Control_c, 0, 64, 56
1, 559572, Control_c, 1, 64, 56
1, 559591, Control_c, 1, 64, 59
1, 559591, Control_c, 0, 64, 59
1, 559609, Control_c, 0, 64, 61
1, 559609, Control_c, 1, 64, 61
1, 559618, Note_off_c, 0, 95, 57
1, 559628, Control_c, 0, 64, 62
1, 559628, Control_c, 1, 64, 62
1, 559669, Note_on_c, 0, 93, 72
1, 559676, Note_on_c, 0, 60, 47
1, 559677, Note_on_c, 0, 57, 42
1, 559683, Note_on_c, 0, 64, 52
1, 559684, Note_on_c, 0, 81, 57
1, 559704, Note_on_c, 0, 52, 51
1, 559710, Note_off_c, 0, 81, 62
1, 559710, Poly_aftertouch_c, 0, 81, 0
1, 559717, Note_off_c, 0, 93, 54
1, 559759, Control_c, 0, 64, 64
1, 559759, Control_c, 1, 64, 64
1, 559778, Control_c, 1, 64, 65
1, 559778, Control_c, 0, 64, 65
1, 559797, Control_c, 0, 64, 66
1, 559797, Control_c, 1, 64, 66
1, 559803, Note_on_c, 0, 95, 80
1, 559810, Note_on_c, 0, 83, 58
1, 559812, Note_off_c, 0, 64, 61
1, 559816, Control_c, 0, 64, 67
1, 559816, Control_c, 1, 64, 67
1, 559830, Note_off_c, 0, 83, 62
1, 559836, Note_off_c, 0, 95, 64
1, 559853, Control_c, 0, 64, 71
1, 559853, Control_c, 1, 64, 71
1, 559873, Control_c, 1, 64, 75
1, 559873, Control_c, 0, 64, 75
1, 559890, Note_off_c, 0, 60, 57
1, 559890, Control_c, 0, 64, 81
1, 559890, Control_c, 1, 64, 81
1, 559903, Note_off_c, 0, 57, 60
1, 559908, Control_c, 0, 64, 91
1, 559908, Control_c, 1, 64, 91
1, 559928, Control_c, 1, 64, 106
1, 559928, Control_c, 0, 64, 106
1, 559935, Note_on_c, 0, 96, 86
1, 559945, Control_c, 0, 64, 127
1, 559945, Control_c, 1, 64, 127
1, 559946, Note_on_c, 0, 84, 63
1, 559947, Note_off_c, 0, 52, 58
1, 559947, Poly_aftertouch_c, 0, 52, 0
1, 559967, Note_off_c, 0, 84, 64
1, 559968, Note_off_c, 0, 96, 62
1, 560076, Note_on_c, 0, 93, 81
1, 560082, Note_on_c, 0, 81, 64
1, 560105, Note_off_c, 0, 81, 63
1, 560105, Poly_aftertouch_c, 0, 81, 0
1, 560114, Note_off_c, 0, 93, 60
1, 560185, Note_on_c, 0, 33, 57
1, 560202, Poly_aftertouch_c, 0, 83, 0
1, 560226, Note_on_c, 0, 99, 74
1, 560251, Note_off_c, 0, 33, 61
1, 560274, Note_on_c, 0, 101, 74
1, 560283, Note_on_c, 0, 47, 66
1, 560321, Note_off_c, 0, 47, 66
1, 560326, Note_on_c, 0, 100, 71
1, 560339, Control_c, 0, 64, 96
1, 560339, Control_c, 1, 64, 96
1, 560342, Note_on_c, 0, 88, 68
1, 560348, Note_off_c, 0, 99, 63
1, 560357, Control_c, 0, 64, 79
1, 560357, Control_c, 1, 64, 79
1, 560366, Note_off_c, 0, 101, 63
1, 560373, Note_off_c, 0, 88, 70
1, 560376, Control_c, 0, 64, 67
1, 560376, Control_c, 1, 64, 67
1, 560396, Control_c, 1, 64, 59
1, 560396, Control_c, 0, 64, 59
1, 560415, Control_c, 0, 64, 56
1, 560415, Control_c, 1, 64, 56
1, 560427, Note_off_c, 0, 100, 63
1, 560451, Control_c, 0, 64, 54
1, 560451, Control_c, 1, 64, 54
1, 560490, Note_on_c, 0, 99, 83
1, 560499, Note_on_c, 0, 87, 70
1, 560528, Note_off_c, 0, 87, 68
1, 560545, Control_c, 0, 64, 52
1, 560545, Control_c, 1, 64, 52
1, 560561, Note_off_c, 0, 99, 58
1, 560602, Note_on_c, 0, 68, 49
1, 560603, Note_on_c, 0, 59, 46
1, 560610, Note_on_c, 0, 56, 49
1, 560635, Note_on_c, 0, 100, 80
1, 560638, Control_c, 0, 64, 50
1, 560638, Control_c, 1, 64, 50
1, 560645, Note_on_c, 0, 88, 57
1, 560651, Note_off_c, 0, 68, 64
1, 560668, Note_off_c, 0, 88, 63
1, 560724, Note_off_c, 0, 100, 57
1, 560732, Control_c, 0, 64, 48
1, 560732, Control_c, 1, 64, 48
1, 560766, Note_on_c, 0, 101, 62
1, 560779, Note_off_c, 0, 56, 58
1, 560826, Control_c, 0, 64, 46
1, 560826, Control_c, 1, 64, 46
1, 560883, Note_off_c, 0, 59, 47
1, 560883, Poly_aftertouch_c, 0, 59, 0
1, 560939, Control_c, 0, 67, 121
1, 560939, Control_c, 1, 67, 121
1, 560972, Note_on_c, 0, 56, 49
1, 560986, Note_on_c, 0, 64, 42
1, 560987, Note_on_c, 0, 100, 66
1, 561001, Note_on_c, 0, 88, 55
1, 561005, Note_on_c, 0, 52, 49
1, 561012, Note_off_c, 0, 101, 33
1, 561012, Control_c, 0, 64, 50
1, 561012, Control_c, 1, 64, 50
1, 561032, Control_c, 1, 64, 57
1, 561032, Control_c, 0, 64, 57
1, 561043, Note_off_c, 0, 64, 62
1, 561052, Control_c, 0, 64, 65
1, 561052, Control_c, 1, 64, 65
1, 561053, Control_c, 1, 67, 116
1, 561053, Control_c, 0, 67, 116
1, 561070, Control_c, 0, 64, 74
1, 561070, Control_c, 1, 64, 74
1, 561088, Control_c, 1, 64, 84
1, 561088, Control_c, 0, 64, 84
1, 561092, Control_c, 0, 67, 110
1, 561092, Control_c, 1, 67, 110
1, 561099, Note_off_c, 0, 52, 58
1, 561099, Poly_aftertouch_c, 0, 52, 0
1, 561103, Note_off_c, 0, 56, 55
1, 561107, Control_c, 0, 64, 101
1, 561107, Control_c, 1, 64, 101
1, 561120, Note_off_c, 0, 88, 62
1, 561126, Control_c, 0, 64, 127
1, 561126, Control_c, 1, 64, 127
1, 561127, Control_c, 1, 67, 106
1, 561127, Control_c, 0, 67, 106
1, 561163, Control_c, 0, 67, 102
1, 561163, Control_c, 1, 67, 102
1, 561202, Note_off_c, 0, 100, 60
1, 561333, Note_on_c, 0, 103, 79
1, 561342, Note_on_c, 0, 93, 66
1, 561362, Note_off_c, 0, 103, 67
1, 561395, Note_off_c, 0, 93, 45
1, 561396, Note_on_c, 0, 101, 85
1, 561419, Note_off_c, 0, 101, 70
1, 561438, Note_on_c, 0, 100, 85
1, 561465, Note_off_c, 0, 100, 57
1, 561485, Note_on_c, 0, 98, 86
1, 561489, Poly_aftertouch_c, 0, 91, 0
1, 561495, Note_on_c, 0, 89, 25
1, 561516, Note_on_c, 0, 33, 52
1, 561525, Note_off_c, 0, 98, 43
1, 561526, Note_on_c, 0, 96, 83
1, 561551, Note_off_c, 0, 89, 31
1, 561574, Note_on_c, 0, 95, 85
1, 561582, Note_off_c, 0, 96, 58
1, 561615, Poly_aftertouch_c, 0, 88, 0
1, 561617, Note_off_c, 0, 33, 59
1, 561623, Note_on_c, 0, 93, 81
1, 561635, Note_off_c, 0, 95, 59
1, 561640, Note_on_c, 0, 83, 41
1, 561650, Poly_aftertouch_c, 0, 86, 0
1, 561670, Note_on_c, 0, 81, 65
1, 561676, Note_off_c, 0, 83, 55
1, 561676, Note_on_c, 0, 48, 52
1, 561706, Poly_aftertouch_c, 0, 84, 0
1, 561714, Note_off_c, 0, 48, 53
1, 561722, Note_off_c, 0, 81, 62
1, 561722, Poly_aftertouch_c, 0, 81, 0
1, 561769, Poly_aftertouch_c, 0, 47, 0
1, 561778, Note_off_c, 0, 93, 64
1, 561839, Note_on_c, 0, 80, 78
1, 561844, Note_on_c, 0, 92, 78
1, 561856, Control_c, 0, 64, 103
1, 561856, Control_c, 1, 64, 103
1, 561857, Control_c, 1, 67, 106
1, 561857, Control_c, 0, 67, 106
1, 561874, Note_off_c, 0, 80, 65
1, 561874, Control_c, 0, 64, 78
1, 561874, Control_c, 1, 64, 78
1, 561893, Control_c, 1, 64, 62
1, 561893, Control_c, 0, 64, 62
1, 561912, Control_c, 0, 64, 54
1, 561912, Control_c, 1, 64, 54
1, 561913, Note_off_c, 0, 92, 59
1, 561934, Poly_aftertouch_c, 0, 58, 127
1, 561947, Poly_aftertouch_c, 0, 58, 0
1, 561948, Control_c, 0, 67, 110
1, 561948, Control_c, 1, 67, 110
1, 561967, Control_c, 1, 64, 52
1, 561967, Control_c, 0, 64, 52
1, 561986, Note_on_c, 0, 60, 45
1, 561986, Control_c, 0, 64, 50
1, 561986, Control_c, 1, 64, 50
1, 561987, Note_on_c, 0, 65, 53
1, 561987, Note_on_c, 0, 93, 74
1, 561995, Note_on_c, 0, 57, 46
1, 561998, Note_on_c, 0, 53, 44
1, 562004, Note_on_c, 0, 81, 53
1, 562005, Control_c, 0, 64, 48
1, 562005, Control_c, 1, 64, 48
1, 562028, Note_off_c, 0, 81, 60
1, 562028, Poly_aftertouch_c, 0, 81, 0
1, 562043, Control_c, 0, 64, 45
1, 562043, Control_c, 1, 64, 45
1, 562057, Note_off_c, 0, 60, 56
1, 562077, Note_off_c, 0, 53, 59
1, 562079, Note_off_c, 0, 65, 41
1, 562084, Note_off_c, 0, 93, 45
1, 562100, Control_c, 0, 64, 43
1, 562100, Control_c, 1, 64, 43
1, 562101, Note_off_c, 0, 57, 59
1, 562117, Control_c, 0, 67, 115
1, 562117, Control_c, 1, 67, 115
1, 562118, Note_on_c, 0, 95, 74
1, 562135, Note_on_c, 0, 83, 58
1, 562135, Control_c, 0, 67, 120
1, 562135, Control_c, 1, 67, 120
1, 562155, Control_c, 1, 64, 41
1, 562155, Control_c, 0, 64, 41
1, 562156, Control_c, 0, 67, 124
1, 562156, Control_c, 1, 67, 124
1, 562162, Note_off_c, 0, 83, 62
1, 562230, Control_c, 0, 64, 37
1, 562230, Control_c, 1, 64, 37
1, 562248, Note_off_c, 0, 95, 37
1, 562259, Note_on_c, 0, 93, 72
1, 562270, Note_on_c, 0, 64, 46
1, 562272, Note_on_c, 0, 81, 55
1, 562277, Note_on_c, 0, 57, 38
1, 562280, Note_on_c, 0, 52, 48
1, 562298, Note_off_c, 0, 81, 62
1, 562298, Poly_aftertouch_c, 0, 81, 0
1, 562303, Note_on_c, 0, 60, 29
1, 562320, Poly_aftertouch_c, 0, 83, 0
1, 562324, Note_off_c, 0, 93, 59
1, 562343, Poly_aftertouch_c, 0, 83, 0
1, 562343, Control_c, 0, 64, 42
1, 562343, Control_c, 1, 64, 42
1, 562360, Control_c, 1, 64, 49
1, 562360, Control_c, 0, 64, 49
1, 562379, Control_c, 0, 64, 58
1, 562379, Control_c, 1, 64, 58
1, 562391, Note_off_c, 0, 64, 57
1, 562398, Note_on_c, 0, 95, 80
1, 562398, Control_c, 0, 64, 67
1, 562398, Control_c, 1, 64, 67
1, 562418, Control_c, 1, 64, 72
1, 562418, Control_c, 0, 64, 72
1, 562429, Poly_aftertouch_c, 0, 83, 0
1, 562433, Control_c, 0, 64, 77
1, 562433, Control_c, 1, 64, 77
1, 562445, Note_off_c, 0, 95, 62
1, 562455, Control_c, 0, 64, 82
1, 562455, Control_c, 1, 64, 82
1, 562474, Control_c, 1, 64, 90
1, 562474, Control_c, 0, 64, 90
1, 562491, Control_c, 0, 64, 100
1, 562491, Control_c, 1, 64, 100
1, 562494, Note_off_c, 0, 60, 50
1, 562498, Note_off_c, 0, 57, 60
1, 562511, Control_c, 0, 64, 115
1, 562511, Control_c, 1, 64, 115
1, 562526, Note_on_c, 0, 96, 82
1, 562528, Control_c, 0, 64, 127
1, 562528, Control_c, 1, 64, 127
1, 562548, Note_on_c, 0, 84, 51
1, 562549, Note_off_c, 0, 52, 59
1, 562549, Poly_aftertouch_c, 0, 52, 0
1, 562559, Note_off_c, 0, 96, 65
1, 562575, Note_off_c, 0, 84, 60
1, 562669, Note_on_c, 0, 95, 71
1, 562672, Note_on_c, 0, 81, 58
1, 562673, Note_on_c, 0, 83, 60
1, 562674, Note_on_c, 0, 93, 67
1, 562697, Note_off_c, 0, 81, 62
1, 562697, Note_off_c, 0, 83, 63
1, 562697, Poly_aftertouch_c, 0, 81, 0
1, 562698, Note_off_c, 0, 95, 70
1, 562702, Note_off_c, 0, 93, 67
1, 562790, Note_on_c, 0, 33, 51
1, 562841, Note_on_c, 0, 99, 65
1, 562847, Note_off_c, 0, 33, 51
1, 562867, Note_on_c, 0, 101, 74
1, 562882, Note_on_c, 0, 47, 66
1, 562917, Note_on_c, 0, 100, 69
1, 562920, Note_off_c, 0, 47, 66
1, 562936, Note_off_c, 0, 99, 64
1, 562943, Note_on_c, 0, 88, 63
1, 562946, Note_off_c, 0, 101, 50
1, 562972, Note_off_c, 0, 88, 66
1, 562998, Poly_aftertouch_c, 0, 89, 0
1, 563019, Note_off_c, 0, 100, 63
1, 563035, Control_c, 0, 64, 118
1, 563035, Control_c, 1, 64, 118
1, 563053, Control_c, 1, 64, 85
1, 563053, Control_c, 0, 64, 85
1, 563073, Control_c, 0, 64, 65
1, 563073, Control_c, 1, 64, 65
1, 563082, Note_on_c, 0, 99, 78
1, 563091, Control_c, 0, 64, 51
1, 563091, Control_c, 1, 64, 51
1, 563093, Note_on_c, 0, 87, 62
1, 563110, Control_c, 0, 64, 46
1, 563110, Control_c, 1, 64, 46
1, 563119, Note_off_c, 0, 87, 65
1, 563129, Control_c, 0, 64, 43
1, 563129, Control_c, 1, 64, 43
1, 563135, Note_off_c, 0, 99, 59
1, 563147, Control_c, 0, 64, 40
1, 563147, Control_c, 1, 64, 40
1, 563165, Control_c, 1, 64, 35
1, 563165, Control_c, 0, 64, 35
1, 563179, Note_on_c, 0, 68, 56
1, 563186, Note_on_c, 0, 56, 51
1, 563186, Control_c, 0, 64, 30
1, 563186, Control_c, 1, 64, 30
1, 563187, Note_on_c, 0, 59, 42
1, 563201, Note_on_c, 0, 100, 75
1, 563220, Note_on_c, 0, 88, 53
1, 563221, Control_c, 0, 64, 26
1, 563221, Control_c, 1, 64, 26
1, 563234, Note_off_c, 0, 68, 56
1, 563248, Note_off_c, 0, 88, 62
1, 563292, Note_off_c, 0, 100, 62
1, 563323, Note_on_c, 0, 101, 70
1, 563372, Control_c, 0, 64, 22
1, 563372, Control_c, 1, 64, 22
1, 563389, Poly_aftertouch_c, 0, 89, 0
1, 563440, Note_off_c, 0, 101, 59
1, 563462, Note_off_c, 0, 59, 59
1, 563462, Poly_aftertouch_c, 0, 59, 0
1, 563477, Note_on_c, 0, 88, 66
1, 563480, Note_on_c, 0, 100, 78
1, 563490, Note_on_c, 0, 64, 58
1, 563493, Note_off_c, 0, 56, 64
1, 563493, Note_on_c, 0, 56, 22
1, 563504, Note_on_c, 0, 52, 53
1, 563511, Note_off_c, 0, 88, 68
1, 563529, Note_off_c, 0, 100, 61
1, 563619, Note_on_c, 0, 86, 72
1, 563621, Note_on_c, 0, 98, 77
1, 563646, Note_off_c, 0, 86, 68
1, 563652, Note_off_c, 0, 98, 69
1, 563724, Note_off_c, 0, 64, 54
1, 563756, Note_on_c, 0, 96, 83
1, 563763, Control_c, 0, 64, 31
1, 563763, Control_c, 1, 64, 31
1, 563770, Note_on_c, 0, 84, 65
1, 563784, Control_c, 0, 64, 41
1, 563784, Control_c, 1, 64, 41
1, 563787, Note_off_c, 0, 96, 65
1, 563795, Note_off_c, 0, 84, 65
1, 563804, Control_c, 0, 64, 57
1, 563804, Control_c, 1, 64, 57
1, 563816, Note_off_c, 0, 56, 61
1, 563821, Control_c, 0, 64, 70
1, 563821, Control_c, 1, 64, 70
1, 563828, Note_off_c, 0, 52, 60
1, 563828, Poly_aftertouch_c, 0, 52, 0
1, 563840, Control_c, 0, 64, 77
1, 563840, Control_c, 1, 64, 77
1, 563859, Control_c, 1, 64, 84
1, 563859, Control_c, 0, 64, 84
1, 563878, Control_c, 0, 64, 95
1, 563878, Control_c, 1, 64, 95
1, 563895, Control_c, 1, 64, 127
1, 563895, Control_c, 0, 64, 127
1, 563896, Note_on_c, 0, 95, 83
1, 563904, Note_on_c, 0, 83, 68
1, 563925, Note_off_c, 0, 83, 66
1, 563941, Note_off_c, 0, 95, 61
1, 564003, Note_on_c, 0, 92, 80
1, 564024, Note_on_c, 0, 33, 58
1, 564067, Note_off_c, 0, 33, 53
1, 564071, Note_on_c, 0, 95, 74
1, 564118, Note_on_c, 0, 48, 70
1, 564122, Note_on_c, 0, 93, 73
1, 564140, Note_on_c, 0, 81, 67
1, 564142, Note_off_c, 0, 92, 61
1, 564145, Note_off_c, 0, 48, 62
1, 564163, Note_off_c, 0, 95, 63
1, 564167, Note_off_c, 0, 81, 63
1, 564167, Poly_aftertouch_c, 0, 81, 0
1, 564171, Poly_aftertouch_c, 0, 35, 0
1, 564197, Control_c, 0, 64, 116
1, 564197, Control_c, 1, 64, 116
1, 564212, Note_off_c, 0, 93, 64
1, 564214, Control_c, 0, 64, 82
1, 564214, Control_c, 1, 64, 82
1, 564233, Control_c, 1, 64, 63
1, 564233, Control_c, 0, 64, 63
1, 564253, Control_c, 0, 64, 48
1, 564253, Control_c, 1, 64, 48
1, 564270, Control_c, 1, 64, 41
1, 564270, Control_c, 0, 64, 41
1, 564273, Note_on_c, 0, 92, 82
1, 564277, Note_on_c, 0, 80, 74
1, 564308, Control_c, 0, 64, 35
1, 564308, Control_c, 1, 64, 35
1, 564316, Note_off_c, 0, 80, 64
1, 564337, Note_off_c, 0, 92, 63
1, 564344, Control_c, 0, 64, 30
1, 564344, Control_c, 1, 64, 30
1, 564377, Note_on_c, 0, 57, 44
1, 564401, Note_on_c, 0, 65, 54
1, 564405, Note_on_c, 0, 93, 79
1, 564412, Note_on_c, 0, 60, 42
1, 564415, Note_on_c, 0, 53, 52
1, 564420, Note_on_c, 0, 81, 60
1, 564445, Note_off_c, 0, 81, 64
1, 564445, Poly_aftertouch_c, 0, 81, 0
1, 564458, Control_c, 0, 64, 26
1, 564458, Control_c, 1, 64, 26
1, 564474, Note_off_c, 0, 60, 54
1, 564483, Note_off_c, 0, 93, 63
1, 564486, Note_off_c, 0, 65, 52
1, 564521, Note_off_c, 0, 53, 54
1, 564522, Note_off_c, 0, 57, 50
1, 564532, Note_on_c, 0, 95, 79
1, 564552, Note_on_c, 0, 83, 63
1, 564585, Note_off_c, 0, 83, 68
1, 564608, Control_c, 0, 64, 21
1, 564608, Control_c, 1, 64, 21
1, 564645, Note_off_c, 0, 95, 53
1, 564685, Note_on_c, 0, 93, 77
1, 564688, Note_on_c, 0, 64, 48
1, 564692, Note_on_c, 0, 57, 37
1, 564698, Note_on_c, 0, 81, 61
1, 564708, Note_on_c, 0, 52, 52
1, 564721, Note_on_c, 0, 60, 35
1, 564727, Note_off_c, 0, 81, 64
1, 564727, Poly_aftertouch_c, 0, 81, 0
1, 564739, Control_c, 0, 64, 28
1, 564739, Control_c, 1, 64, 28
1, 564754, Note_off_c, 0, 93, 63
1, 564756, Control_c, 0, 64, 36
1, 564756, Control_c, 1, 64, 36
1, 564776, Control_c, 1, 64, 45
1, 564776, Control_c, 0, 64, 45
1, 564794, Control_c, 0, 64, 58
1, 564794, Control_c, 1, 64, 58
1, 564813, Control_c, 1, 64, 69
1, 564813, Control_c, 0, 64, 69
1, 564828, Note_on_c, 0, 95, 81
1, 564829, Note_off_c, 0, 64, 58
1, 564833, Control_c, 0, 64, 76
1, 564833, Control_c, 1, 64, 76
1, 564837, Note_on_c, 0, 83, 58
1, 564851, Control_c, 0, 64, 82
1, 564851, Control_c, 1, 64, 82
1, 564861, Note_off_c, 0, 83, 63
1, 564862, Note_off_c, 0, 95, 63
1, 564871, Control_c, 0, 64, 89
1, 564871, Control_c, 1, 64, 89
1, 564888, Control_c, 1, 64, 99
1, 564888, Control_c, 0, 64, 99
1, 564908, Control_c, 0, 64, 127
1, 564908, Control_c, 1, 64, 127
1, 564916, Note_off_c, 0, 60, 55
1, 564926, Note_off_c, 0, 57, 60
1, 564958, Note_on_c, 0, 96, 88
1, 564969, Note_on_c, 0, 84, 75
1, 564970, Note_off_c, 0, 52, 57
1, 564970, Poly_aftertouch_c, 0, 52, 0
1, 564992, Note_off_c, 0, 84, 70
1, 564994, Note_off_c, 0, 96, 59
1, 565096, Note_on_c, 0, 93, 88
1, 565102, Note_on_c, 0, 81, 71
1, 565122, Note_off_c, 0, 81, 67
1, 565122, Poly_aftertouch_c, 0, 81, 0
1, 565149, Note_off_c, 0, 93, 62
1, 565214, Note_on_c, 0, 33, 60
1, 565256, Note_on_c, 0, 99, 80
1, 565272, Note_off_c, 0, 33, 61
1, 565297, Note_on_c, 0, 101, 73
1, 565307, Note_on_c, 0, 47, 69
1, 565342, Note_off_c, 0, 47, 66
1, 565351, Note_on_c, 0, 100, 76
1, 565370, Note_on_c, 0, 88, 68
1, 565374, Control_c, 0, 64, 122
1, 565374, Control_c, 1, 64, 122
1, 565379, Note_off_c, 0, 99, 62
1, 565385, Note_off_c, 0, 101, 63
1, 565392, Control_c, 0, 64, 84
1, 565392, Control_c, 1, 64, 84
1, 565400, Note_off_c, 0, 88, 69
1, 565401, Note_on_c, 0, 89, 6
1, 565412, Control_c, 0, 64, 64
1, 565412, Control_c, 1, 64, 64
1, 565430, Note_off_c, 0, 89, 32
1, 565431, Control_c, 0, 64, 50
1, 565431, Control_c, 1, 64, 50
1, 565439, Note_off_c, 0, 100, 64
1, 565450, Control_c, 0, 64, 42
1, 565450, Control_c, 1, 64, 42
1, 565468, Control_c, 1, 64, 38
1, 565468, Control_c, 0, 64, 38
1, 565505, Note_on_c, 0, 99, 86
1, 565505, Control_c, 0, 64, 33
1, 565505, Control_c, 1, 64, 33
1, 565512, Note_on_c, 0, 87, 75
1, 565541, Note_off_c, 0, 87, 69
1, 565580, Note_off_c, 0, 99, 59
1, 565581, Control_c, 0, 64, 29
1, 565581, Control_c, 1, 64, 29
1, 565642, Note_on_c, 0, 68, 44
1, 565643, Note_on_c, 0, 59, 44
1, 565644, Note_on_c, 0, 56, 51
1, 565649, Note_on_c, 0, 100, 83
1, 565656, Note_on_c, 0, 88, 68
1, 565686, Note_off_c, 0, 68, 55
1, 565687, Note_off_c, 0, 88, 64
1, 565721, Note_off_c, 0, 59, 47
1, 565721, Poly_aftertouch_c, 0, 59, 0
1, 565754, Note_off_c, 0, 100, 54
1, 565768, Control_c, 0, 64, 24
1, 565768, Control_c, 1, 64, 24
1, 565795, Note_on_c, 0, 101, 73
1, 565827, Note_on_c, 0, 89, 31
1, 565829, Note_off_c, 0, 56, 53
1, 565861, Poly_aftertouch_c, 0, 59, 127
1, 565861, Control_c, 0, 67, 119
1, 565861, Control_c, 1, 67, 119
1, 565869, Note_off_c, 0, 89, 35
1, 565899, Control_c, 0, 67, 113
1, 565899, Control_c, 1, 67, 113
1, 565937, Control_c, 1, 67, 107
1, 565937, Control_c, 0, 67, 107
1, 565956, Poly_aftertouch_c, 0, 59, 0
1, 565974, Control_c, 0, 67, 101
1, 565974, Control_c, 1, 67, 101
1, 566024, Note_on_c, 0, 56, 47
1, 566029, Note_on_c, 0, 88, 54
1, 566031, Note_on_c, 0, 100, 63
1, 566034, Note_off_c, 0, 101, 33
1, 566049, Note_on_c, 0, 64, 34
1, 566065, Note_on_c, 0, 52, 40
1, 566123, Control_c, 0, 64, 32
1, 566123, Control_c, 1, 64, 32
1, 566131, Note_off_c, 0, 88, 57
1, 566134, Note_off_c, 0, 64, 62
1, 566142, Control_c, 0, 64, 45
1, 566142, Control_c, 1, 64, 45
1, 566162, Control_c, 1, 64, 65
1, 566162, Control_c, 0, 64, 65
1, 566179, Control_c, 0, 64, 81
1, 566179, Control_c, 1, 64, 81
1, 566199, Control_c, 1, 64, 100
1, 566199, Control_c, 0, 64, 100
1, 566203, Note_off_c, 0, 52, 58
1, 566203, Poly_aftertouch_c, 0, 52, 0
1, 566215, Note_off_c, 0, 100, 61
1, 566216, Control_c, 0, 64, 127
1, 566216, Control_c, 1, 64, 127
1, 566218, Note_off_c, 0, 56, 54
1, 566218, Control_c, 0, 67, 97
1, 566218, Control_c, 1, 67, 97
1, 566235, Control_c, 1, 67, 92
1, 566235, Control_c, 0, 67, 92
1, 566255, Control_c, 0, 67, 88
1, 566255, Control_c, 1, 67, 88
1, 566292, Control_c, 1, 67, 82
1, 566292, Control_c, 0, 67, 82
1, 566358, Note_on_c, 0, 103, 80
1, 566382, Note_on_c, 0, 91, 52
1, 566385, Note_on_c, 0, 93, 33
1, 566387, Note_off_c, 0, 103, 65
1, 566404, Control_c, 0, 67, 78
1, 566404, Control_c, 1, 67, 78
1, 566419, Note_on_c, 0, 101, 88
1, 566432, Note_off_c, 0, 93, 49
1, 566440, Control_c, 0, 67, 72
1, 566440, Control_c, 1, 67, 72
1, 566461, Control_c, 1, 67, 68
1, 566461, Control_c, 0, 67, 68
1, 566473, Note_on_c, 0, 100, 82
1, 566481, Note_off_c, 0, 101, 36
1, 566495, Note_on_c, 0, 33, 54
1, 566516, Note_on_c, 0, 89, 22
1, 566518, Note_off_c, 0, 91, 24
1, 566534, Note_on_c, 0, 98, 84
1, 566546, Note_off_c, 0, 100, 41
1, 566559, Note_off_c, 0, 89, 45
1, 566585, Note_on_c, 0, 96, 83
1, 566588, Note_off_c, 0, 98, 50
1, 566591, Note_on_c, 0, 34, 17
1, 566604, Note_off_c, 0, 33, 51
1, 566620, Note_off_c, 0, 96, 55
1, 566638, Note_on_c, 0, 95, 83
1, 566651, Note_off_c, 0, 34, 42
1, 566664, Note_on_c, 0, 49, 78
1, 566666, Note_off_c, 0, 95, 60
1, 566678, Note_on_c, 0, 93, 82
1, 566694, Note_on_c, 0, 83, 38
1, 566698, Note_off_c, 0, 49, 68
1, 566729, Note_on_c, 0, 81, 42
1, 566732, Poly_aftertouch_c, 0, 35, 0
1, 566733, Note_off_c, 0, 83, 51
1, 566766, Note_off_c, 0, 81, 35
1, 566766, Poly_aftertouch_c, 0, 81, 0
1, 566879, Note_on_c, 0, 92, 80
1, 566884, Note_on_c, 0, 80, 74
1, 566888, Note_off_c, 0, 93, 59
1, 566927, Note_off_c, 0, 80, 58
1, 567004, Control_c, 0, 64, 79
1, 567004, Control_c, 1, 64, 79
1, 567022, Control_c, 1, 64, 51
1, 567022, Control_c, 0, 64, 51
1, 567035, Note_on_c, 0, 93, 77
1, 567038, Note_on_c, 0, 57, 59
1, 567039, Control_c, 0, 64, 19
1, 567039, Control_c, 1, 64, 19
1, 567042, Note_on_c, 0, 81, 65
1, 567046, Note_on_c, 0, 67, 54
1, 567050, Note_off_c, 0, 92, 28
1, 567061, Control_c, 0, 64, 0
1, 567061, Control_c, 1, 64, 0
1, 567078, Note_off_c, 0, 81, 62
1, 567078, Poly_aftertouch_c, 0, 81, 0
1, 567098, Note_off_c, 0, 67, 55
1, 567107, Note_on_c, 0, 61, 13
1, 567125, Note_off_c, 0, 93, 63
1, 567180, Note_on_c, 0, 82, 75
1, 567182, Note_off_c, 0, 61, 41
1, 567182, Poly_aftertouch_c, 0, 61, 0
1, 567185, Note_on_c, 0, 94, 78
1, 567222, Note_off_c, 0, 82, 65
1, 567254, Note_off_c, 0, 94, 63
1, 567302, Control_c, 0, 64, 43
1, 567302, Control_c, 1, 64, 43
1, 567305, Note_off_c, 0, 57, 62
1, 567319, Note_on_c, 0, 93, 82
1, 567321, Control_c, 0, 64, 127
1, 567321, Control_c, 1, 64, 127
1, 567328, Note_on_c, 0, 55, 67
1, 567333, Note_on_c, 0, 61, 40
1, 567342, Note_on_c, 0, 81, 48
1, 567345, Note_on_c, 0, 64, 48
1, 567370, Note_off_c, 0, 61, 54
1, 567370, Poly_aftertouch_c, 0, 61, 0
1, 567372, Note_off_c, 0, 81, 37
1, 567372, Poly_aftertouch_c, 0, 81, 0
1, 567373, Note_off_c, 0, 93, 66
1, 567376, Note_off_c, 0, 55, 62
1, 567376, Note_off_c, 0, 64, 55
1, 567376, Poly_aftertouch_c, 0, 55, 0
1, 567463, Note_on_c, 0, 100, 89
1, 567493, Note_off_c, 0, 100, 64
1, 567505, Note_on_c, 0, 88, 31
1, 567555, Note_off_c, 0, 88, 54
1, 567564, Control_c, 0, 67, 72
1, 567564, Control_c, 1, 67, 72
1, 567615, Note_on_c, 0, 85, 78
1, 567615, Note_on_c, 0, 97, 84
1, 567640, Control_c, 0, 64, 91
1, 567640, Control_c, 1, 64, 91
1, 567641, Note_off_c, 0, 85, 71
1, 567655, Note_off_c, 0, 97, 65
1, 567658, Control_c, 0, 64, 47
1, 567658, Control_c, 1, 64, 47
1, 567677, Control_c, 1, 64, 0
1, 567677, Control_c, 0, 64, 0
1, 567749, Note_on_c, 0, 94, 85
1, 567759, Note_on_c, 0, 82, 69
1, 567789, Note_off_c, 0, 82, 71
1, 567799, Note_on_c, 0, 38, 50
1, 567815, Note_off_c, 0, 94, 62
1, 567850, Note_off_c, 0, 38, 53
1, 567864, Control_c, 0, 64, 54
1, 567864, Control_c, 1, 64, 54
1, 567883, Control_c, 1, 64, 127
1, 567883, Control_c, 0, 64, 127
1, 567890, Note_on_c, 0, 53, 71
1, 567895, Note_on_c, 0, 92, 86
1, 567900, Note_on_c, 0, 80, 76
1, 567921, Note_off_c, 0, 53, 65
1, 567927, Note_off_c, 0, 80, 74
1, 567941, Poly_aftertouch_c, 0, 40, 0
1, 567947, Note_off_c, 0, 92, 61
1, 567976, Control_c, 0, 67, 76
1, 567976, Control_c, 1, 67, 76
1, 568040, Note_on_c, 0, 98, 75
1, 568061, Note_off_c, 0, 98, 65
1, 568061, Note_on_c, 0, 86, 44
1, 568061, Note_on_c, 0, 96, 54
1, 568088, Note_off_c, 0, 96, 61
1, 568095, Note_off_c, 0, 86, 58
1, 568108, Control_c, 0, 64, 122
1, 568108, Control_c, 1, 64, 122
1, 568126, Control_c, 1, 64, 64
1, 568126, Control_c, 0, 64, 64
1, 568128, Control_c, 0, 67, 82
1, 568128, Control_c, 1, 67, 82
1, 568145, Control_c, 1, 67, 87
1, 568145, Control_c, 0, 67, 87
1, 568164, Control_c, 0, 64, 0
1, 568164, Control_c, 1, 64, 0
1, 568165, Control_c, 1, 67, 92
1, 568165, Control_c, 0, 67, 92
1, 568184, Note_on_c, 0, 93, 77
1, 568199, Note_on_c, 0, 65, 50
1, 568199, Note_on_c, 0, 81, 62
1, 568201, Control_c, 0, 67, 97
1, 568201, Control_c, 1, 67, 97
1, 568208, Note_on_c, 0, 57, 42
1, 568210, Note_on_c, 0, 62, 34
1, 568216, Note_off_c, 0, 93, 70
1, 568220, Note_off_c, 0, 81, 63
1, 568220, Poly_aftertouch_c, 0, 81, 0
1, 568249, Note_off_c, 0, 62, 51
1, 568266, Note_off_c, 0, 57, 61
1, 568314, Note_on_c, 0, 91, 71
1, 568338, Note_on_c, 0, 79, 60
1, 568361, Note_off_c, 0, 79, 62
1, 568366, Note_off_c, 0, 91, 55
1, 568426, Control_c, 0, 64, 32
1, 568426, Control_c, 1, 64, 32
1, 568444, Control_c, 1, 64, 66
1, 568444, Control_c, 0, 64, 66
1, 568464, Control_c, 0, 64, 91
1, 568464, Control_c, 1, 64, 91
1, 568477, Note_off_c, 0, 65, 57
1, 568477, Note_on_c, 0, 88, 75
1, 568482, Control_c, 0, 64, 127
1, 568482, Control_c, 1, 64, 127
1, 568490, Note_on_c, 0, 53, 49
1, 568495, Note_on_c, 0, 76, 51
1, 568499, Note_on_c, 0, 57, 47
1, 568507, Note_on_c, 0, 62, 42
1, 568523, Note_off_c, 0, 76, 59
1, 568523, Poly_aftertouch_c, 0, 76, 0
1, 568533, Note_off_c, 0, 88, 63
1, 568544, Note_off_c, 0, 62, 53
1, 568548, Note_off_c, 0, 57, 62
1, 568553, Note_off_c, 0, 53, 57
1, 568631, Note_on_c, 0, 93, 80
1, 568637, Note_on_c, 0, 81, 68
1, 568658, Note_off_c, 0, 93, 70
1, 568661, Note_off_c, 0, 81, 63
1, 568661, Poly_aftertouch_c, 0, 81, 0
1, 568775, Note_on_c, 0, 89, 78
1, 568789, Note_on_c, 0, 77, 63
1, 568805, Note_off_c, 0, 89, 68
1, 568808, Note_off_c, 0, 77, 63
1, 568837, Control_c, 0, 64, 89
1, 568837, Control_c, 1, 64, 89
1, 568858, Control_c, 1, 64, 52
1, 568858, Control_c, 0, 64, 52
1, 568893, Control_c, 0, 64, 0
1, 568893, Control_c, 1, 64, 0
1, 568919, Note_on_c, 0, 74, 61
1, 568927, Note_on_c, 0, 86, 52
1, 568941, Note_on_c, 0, 88, 49
1, 568943, Note_off_c, 0, 74, 61
1, 568943, Poly_aftertouch_c, 0, 74, 0
1, 568956, Note_off_c, 0, 86, 61
1, 568975, Note_off_c, 0, 88, 36
1, 569069, Note_on_c, 0, 31, 53
1, 569070, Note_on_c, 0, 90, 68
1, 569079, Control_c, 0, 64, 26
1, 569079, Control_c, 1, 64, 26
1, 569100, Control_c, 1, 64, 55
1, 569100, Control_c, 0, 64, 55
1, 569118, Control_c, 0, 64, 76
1, 569118, Control_c, 1, 64, 76
1, 569119, Note_off_c, 0, 31, 62
1, 569136, Control_c, 0, 64, 93
1, 569136, Control_c, 1, 64, 93
1, 569139, Note_on_c, 0, 93, 64
1, 569155, Control_c, 0, 64, 127
1, 569155, Control_c, 1, 64, 127
1, 569175, Note_on_c, 0, 47, 58
1, 569187, Note_on_c, 0, 91, 67
1, 569188, Note_off_c, 0, 90, 60
1, 569202, Note_on_c, 0, 79, 69
1, 569208, Note_off_c, 0, 47, 58
1, 569219, Note_off_c, 0, 93, 62
1, 569231, Note_off_c, 0, 79, 65
1, 569249, Control_c, 0, 67, 93
1, 569249, Control_c, 1, 67, 93
1, 569266, Note_off_c, 0, 91, 62
1, 569295, Poly_aftertouch_c, 0, 81, 0
1, 569348, Note_on_c, 0, 90, 76
1, 569362, Note_on_c, 0, 78, 67
1, 569394, Note_off_c, 0, 78, 65
1, 569394, Poly_aftertouch_c, 0, 78, 0
1, 569418, Control_c, 0, 64, 81
1, 569418, Control_c, 1, 64, 81
1, 569436, Control_c, 1, 64, 41
1, 569436, Control_c, 0, 64, 41
1, 569456, Control_c, 0, 64, 0
1, 569456, Control_c, 1, 64, 0
1, 569480, Note_on_c, 0, 91, 74
1, 569489, Note_on_c, 0, 65, 59
1, 569494, Note_on_c, 0, 79, 60
1, 569495, Note_on_c, 0, 55, 52
1, 569505, Note_off_c, 0, 90, 47
1, 569505, Note_on_c, 0, 59, 44
1, 569511, Control_c, 0, 67, 89
1, 569511, Control_c, 1, 67, 89
1, 569515, Note_off_c, 0, 79, 63
1, 569525, Note_off_c, 0, 91, 59
1, 569553, Note_off_c, 0, 59, 62
1, 569569, Note_off_c, 0, 65, 57
1, 569618, Note_on_c, 0, 92, 80
1, 569620, Note_on_c, 0, 80, 74
1, 569655, Note_off_c, 0, 80, 66
1, 569700, Note_off_c, 0, 92, 63
1, 569718, Control_c, 0, 64, 18
1, 569718, Control_c, 1, 64, 18
1, 569738, Control_c, 1, 64, 93
1, 569738, Control_c, 0, 64, 93
1, 569753, Control_c, 0, 64, 127
1, 569753, Control_c, 1, 64, 127
1, 569754, Note_on_c, 0, 91, 79
1, 569756, Note_off_c, 0, 55, 60
1, 569756, Poly_aftertouch_c, 0, 55, 0
1, 569764, Note_on_c, 0, 62, 67
1, 569770, Note_on_c, 0, 53, 71
1, 569784, Note_on_c, 0, 90, 29
1, 569795, Note_off_c, 0, 91, 61
1, 569798, Note_off_c, 0, 62, 64
1, 569806, Note_off_c, 0, 53, 66
1, 569834, Note_off_c, 0, 90, 54
1, 569851, Poly_aftertouch_c, 0, 79, 127
1, 569864, Poly_aftertouch_c, 0, 59, 0
1, 569874, Poly_aftertouch_c, 0, 79, 0
1, 569884, Note_on_c, 0, 98, 89
1, 569911, Note_off_c, 0, 98, 69
1, 569968, Poly_aftertouch_c, 0, 97, 0
1, 569999, Poly_aftertouch_c, 0, 88, 0
1, 570035, Note_on_c, 0, 95, 81
1, 570050, Note_on_c, 0, 83, 56
1, 570061, Note_off_c, 0, 95, 72
1, 570075, Control_c, 0, 64, 100
1, 570075, Control_c, 1, 64, 100
1, 570078, Note_off_c, 0, 83, 62
1, 570092, Control_c, 0, 64, 52
1, 570092, Control_c, 1, 64, 52
1, 570110, Control_c, 1, 64, 0
1, 570110, Control_c, 0, 64, 0
1, 570170, Note_on_c, 0, 92, 76
1, 570203, Note_on_c, 0, 82, 32
1, 570204, Note_off_c, 0, 82, 127
1, 570228, Note_off_c, 0, 92, 61
1, 570253, Note_on_c, 0, 36, 55
1, 570290, Note_off_c, 0, 36, 56
1, 570298, Control_c, 0, 64, 57
1, 570298, Control_c, 1, 64, 57
1, 570315, Control_c, 1, 64, 127
1, 570315, Control_c, 0, 64, 127
1, 570317, Note_on_c, 0, 90, 85
1, 570325, Note_on_c, 0, 78, 78
1, 570329, Note_on_c, 0, 52, 72
1, 570351, Note_off_c, 0, 78, 72
1, 570351, Poly_aftertouch_c, 0, 78, 0
1, 570362, Note_off_c, 0, 52, 64
1, 570362, Poly_aftertouch_c, 0, 52, 0
1, 570380, Note_off_c, 0, 90, 66
1, 570471, Note_on_c, 0, 96, 77
1, 570489, Note_off_c, 0, 96, 50
1, 570497, Note_on_c, 0, 84, 35
1, 570503, Note_on_c, 0, 95, 33
1, 570541, Note_off_c, 0, 84, 37
1, 570546, Note_off_c, 0, 95, 52
1, 570575, Poly_aftertouch_c, 0, 83, 127
1, 570595, Poly_aftertouch_c, 0, 83, 0
1, 570597, Control_c, 0, 64, 70
1, 570597, Control_c, 1, 64, 70
1, 570615, Control_c, 1, 64, 18
1, 570615, Control_c, 0, 64, 18
1, 570619, Note_on_c, 0, 64, 59
1, 570625, Note_on_c, 0, 91, 66
1, 570634, Control_c, 0, 64, 0
1, 570634, Control_c, 1, 64, 0
1, 570637, Note_on_c, 0, 79, 54
1, 570638, Note_on_c, 0, 55, 42
1, 570650, Note_off_c, 0, 91, 66
1, 570650, Note_on_c, 0, 60, 37
1, 570668, Note_off_c, 0, 79, 58
1, 570682, Note_off_c, 0, 55, 59
1, 570682, Poly_aftertouch_c, 0, 55, 0
1, 570688, Note_off_c, 0, 60, 48
1, 570746, Note_on_c, 0, 89, 81
1, 570764, Note_on_c, 0, 77, 63
1, 570786, Note_off_c, 0, 77, 63
1, 570825, Note_off_c, 0, 89, 58
1, 570859, Control_c, 0, 64, 13
1, 570859, Control_c, 1, 64, 13
1, 570878, Control_c, 1, 64, 60
1, 570878, Control_c, 0, 64, 60
1, 570897, Control_c, 0, 64, 92
1, 570897, Control_c, 1, 64, 92
1, 570906, Note_on_c, 0, 87, 78
1, 570914, Control_c, 0, 64, 127
1, 570914, Control_c, 1, 64, 127
1, 570918, Note_on_c, 0, 75, 64
1, 570927, Note_on_c, 0, 52, 50
1, 570928, Note_off_c, 0, 64, 52
1, 570931, Note_on_c, 0, 55, 35
1, 570941, Note_off_c, 0, 75, 65
1, 570946, Note_on_c, 0, 60, 33
1, 570965, Note_off_c, 0, 87, 62
1, 570976, Note_off_c, 0, 55, 54
1, 570976, Poly_aftertouch_c, 0, 55, 0
1, 570980, Note_off_c, 0, 52, 55
1, 570980, Poly_aftertouch_c, 0, 52, 0
1, 570993, Note_off_c, 0, 60, 43
1, 571056, Note_on_c, 0, 91, 75
1, 571064, Note_on_c, 0, 79, 67
1, 571077, Note_on_c, 0, 93, 51
1, 571078, Note_off_c, 0, 93, 127
1, 571087, Note_off_c, 0, 79, 65
1, 571088, Note_off_c, 0, 91, 62
1, 571213, Note_on_c, 0, 88, 73
1, 571240, Note_off_c, 0, 88, 70
1, 571271, Control_c, 0, 67, 93
1, 571271, Control_c, 1, 67, 93
1, 571335, Poly_aftertouch_c, 0, 76, 0
1, 571344, Note_on_c, 0, 84, 82
1, 571356, Note_on_c, 0, 72, 63
1, 571381, Note_off_c, 0, 84, 60
1, 571381, Note_off_c, 0, 72, 63
1, 571421, Control_c, 0, 64, 98
1, 571421, Control_c, 1, 64, 98
1, 571440, Control_c, 1, 64, 53
1, 571440, Control_c, 0, 64, 53
1, 571458, Control_c, 0, 64, 0
1, 571458, Control_c, 1, 64, 0
1, 571477, Note_on_c, 0, 35, 59
1, 571500, Note_on_c, 0, 85, 79
1, 571531, Note_off_c, 0, 35, 63
1, 571550, Note_on_c, 0, 88, 66
1, 571552, Control_c, 0, 64, 24
1, 571552, Control_c, 1, 64, 24
1, 571570, Control_c, 1, 64, 63
1, 571570, Control_c, 0, 64, 63
1, 571575, Note_on_c, 0, 50, 68
1, 571590, Control_c, 0, 64, 110
1, 571590, Control_c, 1, 64, 110
1, 571607, Control_c, 1, 64, 127
1, 571607, Control_c, 0, 64, 127
1, 571608, Note_on_c, 0, 74, 71
1, 571610, Note_off_c, 0, 50, 65
1, 571610, Note_on_c, 0, 86, 71
1, 571622, Note_off_c, 0, 85, 62
1, 571625, Control_c, 0, 67, 89
1, 571625, Control_c, 1, 67, 89
1, 571631, Note_off_c, 0, 88, 64
1, 571640, Note_off_c, 0, 74, 68
1, 571640, Poly_aftertouch_c, 0, 74, 0
1, 571662, Note_off_c, 0, 86, 56
1, 571749, Note_on_c, 0, 85, 86
1, 571765, Note_on_c, 0, 73, 69
1, 571776, Control_c, 0, 64, 112
1, 571776, Control_c, 1, 64, 112
1, 571786, Note_off_c, 0, 73, 65
1, 571793, Control_c, 0, 64, 69
1, 571793, Control_c, 1, 64, 69
1, 571813, Note_off_c, 0, 85, 48
1, 571813, Control_c, 0, 64, 34
1, 571813, Control_c, 1, 64, 34
1, 571833, Control_c, 1, 64, 0
1, 571833, Control_c, 0, 64, 0
1, 571893, Note_on_c, 0, 86, 76
1, 571897, Note_on_c, 0, 57, 52
1, 571907, Note_on_c, 0, 65, 47
1, 571908, Note_on_c, 0, 59, 45
1, 571908, Note_on_c, 0, 74, 55
1, 571932, Note_off_c, 0, 74, 59
1, 571932, Poly_aftertouch_c, 0, 74, 0
1, 571958, Note_off_c, 0, 86, 62
1, 571961, Note_off_c, 0, 59, 60
1, 571966, Note_off_c, 0, 57, 56
1, 572047, Note_on_c, 0, 88, 78
1, 572051, Note_on_c, 0, 76, 69
1, 572080, Note_off_c, 0, 76, 67
1, 572092, Note_off_c, 0, 88, 58
1, 572249, Note_off_c, 0, 65, 51
1, 572262, Control_c, 0, 64, 18
1, 572262, Control_c, 1, 64, 18
1, 572266, Note_on_c, 0, 53, 49
1, 572279, Note_on_c, 0, 91, 59
1, 572281, Control_c, 0, 64, 38
1, 572281, Control_c, 1, 64, 38
1, 572292, Note_on_c, 0, 79, 50
1, 572300, Control_c, 0, 64, 64
1, 572300, Control_c, 1, 64, 64
1, 572319, Control_c, 1, 64, 81
1, 572319, Control_c, 0, 64, 81
1, 572338, Control_c, 0, 64, 99
1, 572338, Control_c, 1, 64, 99
1, 572345, Note_off_c, 0, 53, 49
1, 572357, Control_c, 0, 64, 127
1, 572357, Control_c, 1, 64, 127
1, 572376, Poly_aftertouch_c, 0, 59, 0
1, 572381, Poly_aftertouch_c, 0, 57, 0
1, 572394, Control_c, 0, 67, 93
1, 572394, Control_c, 1, 67, 93
1, 572471, Note_off_c, 0, 79, 35
1, 572472, Poly_aftertouch_c, 0, 79, 0
1, 572476, Note_off_c, 0, 91, 61
1, 572488, Control_c, 0, 67, 97
1, 572488, Control_c, 1, 67, 97
1, 572525, Control_c, 1, 67, 101
1, 572525, Control_c, 0, 67, 101
1, 572563, Control_c, 0, 67, 108
1, 572563, Control_c, 1, 67, 108
1, 572598, Note_on_c, 0, 95, 79
1, 572600, Control_c, 0, 67, 113
1, 572600, Control_c, 1, 67, 113
1, 572605, Note_on_c, 0, 83, 74
1, 572642, Note_off_c, 0, 95, 47
1, 572655, Note_on_c, 0, 93, 83
1, 572713, Note_on_c, 0, 91, 85
1, 572723, Note_off_c, 0, 93, 42
1, 572734, Note_on_c, 0, 81, 37
1, 572749, Note_off_c, 0, 91, 60
1, 572767, Note_on_c, 0, 89, 86
1, 572776, Note_on_c, 0, 36, 47
1, 572777, Note_off_c, 0, 81, 36
1, 572797, Note_off_c, 0, 83, 33
1, 572798, Poly_aftertouch_c, 0, 83, 0
1, 572802, Note_off_c, 0, 89, 50
1, 572813, Note_on_c, 0, 88, 85
1, 572833, Note_on_c, 0, 77, 54
1, 572858, Note_off_c, 0, 77, 41
1, 572867, Note_on_c, 0, 76, 69
1, 572867, Note_on_c, 0, 86, 83
1, 572869, Note_off_c, 0, 88, 40
1, 572871, Note_off_c, 0, 36, 60
1, 572889, Poly_aftertouch_c, 0, 79, 127
1, 572896, Note_off_c, 0, 76, 65
1, 572902, Poly_aftertouch_c, 0, 79, 0
1, 572917, Note_on_c, 0, 84, 80
1, 572922, Note_off_c, 0, 86, 55
1, 572927, Note_on_c, 0, 52, 63
1, 572939, Note_on_c, 0, 74, 36
1, 572963, Note_off_c, 0, 52, 65
1, 572963, Poly_aftertouch_c, 0, 52, 0
1, 572977, Note_off_c, 0, 74, 47
1, 572977, Poly_aftertouch_c, 0, 74, 0
1, 573022, Note_off_c, 0, 84, 63
1, 573068, Control_c, 0, 64, 96
1, 573068, Control_c, 1, 64, 96
1, 573084, Poly_aftertouch_c, 0, 72, 0
1, 573088, Control_c, 0, 64, 61
1, 573088, Control_c, 1, 64, 61
1, 573106, Control_c, 1, 64, 28
1, 573106, Note_on_c, 0, 83, 66
1, 573106, Control_c, 0, 64, 28
1, 573121, Note_on_c, 0, 71, 53
1, 573151, Note_off_c, 0, 71, 57
1, 573158, Note_off_c, 0, 83, 60
1, 573199, Control_c, 0, 64, 0
1, 573199, Control_c, 1, 64, 0
1, 573257, Note_on_c, 0, 84, 72
1, 573264, Note_on_c, 0, 72, 57
1, 573266, Note_on_c, 0, 52, 55
1, 573271, Note_on_c, 0, 64, 57
1, 573275, Note_on_c, 0, 57, 47
1, 573287, Note_off_c, 0, 72, 60
1, 573305, Note_off_c, 0, 84, 62
1, 573322, Note_off_c, 0, 57, 61
1, 573336, Note_off_c, 0, 52, 55
1, 573336, Poly_aftertouch_c, 0, 52, 0
1, 573421, Note_on_c, 0, 86, 52
1, 573421, Note_on_c, 0, 74, 57
1, 573446, Note_off_c, 0, 74, 60
1, 573446, Poly_aftertouch_c, 0, 74, 0
1, 573456, Note_off_c, 0, 86, 56
1, 573460, Note_on_c, 0, 84, 25
1, 573461, Note_off_c, 0, 84, 127
1, 573560, Poly_aftertouch_c, 0, 64, 24
1, 573578, Note_off_c, 0, 64, 46
1, 573578, Poly_aftertouch_c, 0, 64, 0
1, 573611, Control_c, 0, 64, 11
1, 573611, Control_c, 1, 64, 11
1, 573627, Note_on_c, 0, 89, 66
1, 573628, Control_c, 0, 64, 22
1, 573628, Control_c, 1, 64, 22
1, 573635, Note_on_c, 0, 77, 60
1, 573636, Note_on_c, 0, 48, 39
1, 573648, Control_c, 0, 64, 40
1, 573648, Control_c, 1, 64, 40
1, 573667, Control_c, 1, 64, 61
1, 573667, Control_c, 0, 64, 61
1, 573676, Note_on_c, 0, 52, 30
1, 573682, Note_on_c, 0, 57, 32
1, 573683, Control_c, 0, 64, 72
1, 573683, Control_c, 1, 64, 72
1, 573684, Control_c, 1, 67, 109
1, 573684, Control_c, 0, 67, 109
1, 573704, Control_c, 0, 64, 77
1, 573704, Control_c, 1, 64, 77
1, 573723, Control_c, 1, 64, 81
1, 573723, Control_c, 0, 64, 81
1, 573742, Control_c, 0, 64, 89
1, 573742, Control_c, 1, 64, 89
1, 573760, Control_c, 1, 64, 112
1, 573760, Control_c, 0, 64, 112
1, 573780, Control_c, 0, 64, 127
1, 573780, Control_c, 1, 64, 127
1, 573800, Note_off_c, 0, 77, 55
1, 573804, Note_off_c, 0, 57, 55
1, 573861, Note_off_c, 0, 52, 30
1, 573861, Poly_aftertouch_c, 0, 52, 0
1, 573867, Note_off_c, 0, 89, 57
1, 573877, Note_off_c, 0, 48, 40
1, 573985, Control_c, 0, 67, 105
1, 573985, Control_c, 1, 67, 105
1, 574001, Note_on_c, 0, 93, 80
1, 574029, Note_off_c, 0, 93, 55
1, 574033, Note_on_c, 0, 81, 63
1, 574058, Note_on_c, 0, 91, 86
1, 574078, Control_c, 0, 67, 101
1, 574078, Control_c, 1, 67, 101
1, 574087, Note_off_c, 0, 91, 47
1, 574110, Note_on_c, 0, 89, 86
1, 574131, Note_off_c, 0, 81, 34
1, 574134, Control_c, 0, 67, 97
1, 574134, Control_c, 1, 67, 97
1, 574137, Note_off_c, 0, 89, 59
1, 574137, Poly_aftertouch_c, 0, 83, 0
1, 574160, Note_on_c, 0, 88, 86
1, 574172, Note_on_c, 0, 38, 53
1, 574182, Note_off_c, 0, 88, 64
1, 574190, Control_c, 0, 67, 93
1, 574190, Control_c, 1, 67, 93
1, 574201, Note_on_c, 0, 86, 83
1, 574223, Note_off_c, 0, 86, 70
1, 574226, Poly_aftertouch_c, 0, 79, 127
1, 574231, Note_on_c, 0, 84, 86
1, 574235, Poly_aftertouch_c, 0, 79, 0
1, 574253, Note_off_c, 0, 38, 57
1, 574256, Note_off_c, 0, 84, 71
1, 574257, Note_on_c, 0, 83, 85
1, 574265, Control_c, 0, 67, 87
1, 574265, Control_c, 1, 67, 87
1, 574276, Note_on_c, 0, 72, 50
1, 574283, Control_c, 0, 67, 83
1, 574283, Control_c, 1, 67, 83
1, 574292, Note_on_c, 0, 53, 71
1, 574295, Poly_aftertouch_c, 0, 76, 0
1, 574302, Control_c, 0, 67, 79
1, 574302, Control_c, 1, 67, 79
1, 574305, Note_off_c, 0, 72, 59
1, 574315, Note_on_c, 0, 71, 44
1, 574322, Note_on_c, 0, 74, 11
1, 574331, Note_off_c, 0, 53, 66
1, 574331, Poly_aftertouch_c, 0, 40, 0
1, 574339, Control_c, 0, 67, 74
1, 574339, Control_c, 1, 67, 74
1, 574347, Note_off_c, 0, 74, 41
1, 574347, Poly_aftertouch_c, 0, 74, 0
1, 574352, Note_off_c, 0, 71, 54
1, 574371, Note_off_c, 0, 83, 63
1, 574396, Control_c, 0, 64, 119
1, 574396, Control_c, 1, 64, 119
1, 574416, Control_c, 1, 64, 78
1, 574416, Control_c, 0, 64, 78
1, 574434, Control_c, 0, 64, 54
1, 574434, Control_c, 1, 64, 54
1, 574453, Control_c, 1, 64, 40
1, 574453, Control_c, 0, 64, 40
1, 574461, Note_on_c, 0, 82, 77
1, 574463, Note_on_c, 0, 70, 74
1, 574471, Control_c, 0, 64, 36
1, 574471, Control_c, 1, 64, 36
1, 574489, Note_off_c, 0, 70, 71
1, 574489, Poly_aftertouch_c, 0, 70, 0
1, 574509, Control_c, 0, 64, 31
1, 574509, Control_c, 1, 64, 31
1, 574518, Poly_aftertouch_c, 0, 80, 0
1, 574526, Note_off_c, 0, 82, 57
1, 574526, Control_c, 0, 64, 26
1, 574526, Control_c, 1, 64, 26
1, 574548, Control_c, 1, 64, 22
1, 574548, Control_c, 0, 64, 22
1, 574551, Poly_aftertouch_c, 0, 80, 0
1, 574565, Control_c, 0, 64, 18
1, 574565, Control_c, 1, 64, 18
1, 574596, Note_on_c, 0, 83, 79
1, 574604, Note_on_c, 0, 71, 72
1, 574624, Note_on_c, 0, 65, 52
1, 574628, Note_on_c, 0, 57, 47
1, 574632, Note_off_c, 0, 71, 68
1, 574634, Poly_aftertouch_c, 0, 80, 0
1, 574636, Note_on_c, 0, 59, 47
1, 574639, Control_c, 0, 64, 14
1, 574639, Control_c, 1, 64, 14
1, 574658, Note_off_c, 0, 65, 57
1, 574666, Note_off_c, 0, 59, 60
1, 574669, Note_off_c, 0, 83, 63
1, 574680, Note_off_c, 0, 57, 64
1, 574698, Control_c, 0, 64, 10
1, 574698, Control_c, 1, 64, 10
1, 574751, Note_on_c, 0, 84, 72
1, 574754, Note_on_c, 0, 72, 71
1, 574785, Note_off_c, 0, 72, 64
1, 574824, Note_off_c, 0, 84, 62
1, 574833, Poly_aftertouch_c, 0, 83, 0
1, 574864, Note_on_c, 0, 40, 65
1, 574883, Control_c, 0, 64, 19
1, 574883, Control_c, 1, 64, 19
1, 574903, Control_c, 1, 64, 36
1, 574903, Control_c, 0, 64, 36
1, 574904, Note_off_c, 0, 40, 60
1, 574921, Control_c, 0, 64, 61
1, 574921, Control_c, 0, 67, 78
1, 574921, Control_c, 1, 64, 61
1, 574921, Control_c, 1, 67, 78
1, 574940, Control_c, 1, 64, 82
1, 574940, Control_c, 0, 64, 82
1, 574959, Control_c, 0, 64, 108
1, 574959, Control_c, 1, 64, 108
1, 574969, Note_on_c, 0, 88, 59
1, 574978, Control_c, 0, 64, 127
1, 574978, Control_c, 1, 64, 127
1, 574979, Control_c, 1, 67, 83
1, 574979, Control_c, 0, 67, 83
1, 574988, Note_on_c, 0, 76, 39
1, 574988, Note_on_c, 0, 56, 69
1, 575003, Note_on_c, 0, 74, 26
1, 575016, Control_c, 0, 67, 91
1, 575016, Control_c, 1, 67, 91
1, 575023, Note_off_c, 0, 56, 67
1, 575032, Control_c, 0, 67, 97
1, 575032, Control_c, 1, 67, 97
1, 575052, Control_c, 1, 67, 105
1, 575052, Control_c, 0, 67, 105
1, 575054, Note_off_c, 0, 74, 40
1, 575054, Poly_aftertouch_c, 0, 74, 0
1, 575070, Control_c, 0, 67, 113
1, 575070, Control_c, 1, 67, 113
1, 575073, Poly_aftertouch_c, 0, 86, 0
1, 575089, Control_c, 0, 67, 120
1, 575089, Control_c, 1, 67, 120
1, 575109, Control_c, 1, 67, 126
1, 575109, Control_c, 0, 67, 126
1, 575285, Note_on_c, 0, 62, 52
1, 575292, Note_off_c, 0, 88, 64
1, 575298, Note_on_c, 0, 59, 41
1, 575301, Note_on_c, 0, 52, 58
1, 575317, Note_off_c, 0, 62, 57
1, 575325, Note_on_c, 0, 86, 72
1, 575336, Note_off_c, 0, 59, 49
1, 575341, Note_off_c, 0, 52, 63
1, 575341, Poly_aftertouch_c, 0, 52, 0
1, 575343, Note_off_c, 0, 86, 67
1, 575352, Note_on_c, 0, 84, 76
1, 575369, Note_off_c, 0, 76, 50
1, 575374, Note_off_c, 0, 84, 68
1, 575381, Note_on_c, 0, 83, 78
1, 575400, Note_off_c, 0, 83, 69
1, 575414, Note_on_c, 0, 81, 82
1, 575433, Note_off_c, 0, 81, 70
1, 575449, Note_on_c, 0, 79, 81
1, 575453, Poly_aftertouch_c, 0, 74, 0
1, 575464, Note_on_c, 0, 71, 48
1, 575472, Note_off_c, 0, 79, 69
1, 575493, Note_on_c, 0, 77, 81
1, 575496, Note_off_c, 0, 71, 58
1, 575508, Poly_aftertouch_c, 0, 72, 0
1, 575511, Note_on_c, 0, 69, 48
1, 575518, Note_off_c, 0, 77, 68
1, 575535, Note_on_c, 0, 76, 77
1, 575543, Note_off_c, 0, 69, 37
1, 575543, Poly_aftertouch_c, 0, 69, 0
1, 575545, Poly_aftertouch_c, 0, 83, 0
1, 575564, Note_off_c, 0, 76, 69
1, 575579, Note_on_c, 0, 67, 19
1, 575591, Note_on_c, 0, 74, 81
1, 575597, Poly_aftertouch_c, 0, 81, 0
1, 575621, Note_off_c, 0, 74, 72
1, 575621, Note_on_c, 0, 65, 30
1, 575625, Note_on_c, 0, 33, 59
1, 575636, Note_on_c, 0, 72, 85
1, 575646, Note_off_c, 0, 67, 42
1, 575660, Note_on_c, 0, 71, 79
1, 575662, Note_off_c, 0, 72, 71
1, 575667, Note_off_c, 0, 65, 48
1, 575686, Note_on_c, 0, 69, 76
1, 575687, Note_off_c, 0, 71, 70
1, 575690, Note_off_c, 0, 33, 61
1, 575715, Note_off_c, 0, 69, 64
1, 575715, Poly_aftertouch_c, 0, 69, 0
1, 575719, Note_on_c, 0, 48, 73
1, 575734, Note_on_c, 0, 67, 69
1, 575745, Control_c, 0, 64, 89
1, 575745, Control_c, 1, 64, 89
1, 575749, Note_off_c, 0, 48, 66
1, 575762, Poly_aftertouch_c, 0, 69, 0
1, 575762, Control_c, 0, 64, 61
1, 575762, Control_c, 1, 64, 61
1, 575766, Note_off_c, 0, 67, 69
1, 575782, Control_c, 0, 64, 36
1, 575782, Control_c, 1, 64, 36
1, 575802, Control_c, 1, 64, 15
1, 575802, Control_c, 0, 64, 15
1, 575897, Note_on_c, 0, 72, 70
1, 575905, Note_on_c, 0, 60, 57
1, 575916, Note_on_c, 0, 71, 57
1, 575927, Note_off_c, 0, 72, 67
1, 575935, Note_off_c, 0, 60, 58
1, 575941, Note_off_c, 0, 71, 60
1, 576028, Note_on_c, 0, 52, 56
1, 576033, Note_on_c, 0, 60, 50
1, 576043, Note_on_c, 0, 76, 81
1, 576048, Note_on_c, 0, 64, 69
1, 576068, Note_off_c, 0, 60, 36
1, 576073, Note_off_c, 0, 52, 63
1, 576073, Poly_aftertouch_c, 0, 52, 0
1, 576074, Note_off_c, 0, 64, 63
1, 576074, Poly_aftertouch_c, 0, 64, 0
1, 576078, Note_off_c, 0, 76, 63
1, 576205, Note_on_c, 0, 81, 74
1, 576207, Note_on_c, 0, 69, 75
1, 576230, Note_off_c, 0, 69, 67
1, 576231, Note_off_c, 0, 81, 65
1, 576279, Note_on_c, 0, 80, 12
1, 576280, Note_off_c, 0, 80, 127
1, 576369, Note_on_c, 0, 72, 76
1, 576371, Note_on_c, 0, 84, 73
1, 576386, Note_on_c, 0, 45, 60
1, 576391, Note_on_c, 0, 33, 58
1, 576398, Note_off_c, 0, 72, 71
1, 576416, Note_off_c, 0, 84, 60
1, 576432, Poly_aftertouch_c, 0, 83, 0
1, 576550, Note_on_c, 0, 88, 77
1, 576561, Note_on_c, 0, 76, 70
1, 576592, Note_off_c, 0, 76, 68
1, 576602, Note_off_c, 0, 88, 62
1, 576817, Note_on_c, 0, 93, 80
1, 576832, Control_c, 0, 64, 8
1, 576832, Control_c, 1, 64, 8
1, 576836, Note_on_c, 0, 81, 61
1, 576850, Control_c, 0, 64, 18
1, 576850, Control_c, 1, 64, 18
1, 576867, Control_c, 1, 64, 31
1, 576867, Control_c, 0, 64, 31
1, 576887, Control_c, 0, 64, 50
1, 576887, Control_c, 1, 64, 50
1, 576905, Control_c, 1, 64, 67
1, 576905, Control_c, 0, 64, 67
1, 576924, Control_c, 0, 64, 75
1, 576924, Control_c, 1, 64, 75
1, 576938, Note_off_c, 0, 33, 60
1, 576942, Control_c, 0, 64, 80
1, 576942, Control_c, 1, 64, 80
1, 576961, Control_c, 1, 64, 87
1, 576961, Control_c, 0, 64, 87
1, 576963, Note_off_c, 0, 81, 26
1, 576980, Control_c, 0, 64, 99
1, 576980, Control_c, 1, 64, 99
1, 576997, Note_off_c, 0, 45, 61
1, 576997, Control_c, 0, 64, 127
1, 576997, Control_c, 1, 64, 127
1, 577022, Poly_aftertouch_c, 0, 36, 0
1, 577041, Note_off_c, 0, 93, 63
1, 577090, Note_on_c, 0, 33, 64
1, 577121, Note_on_c, 0, 92, 59
1, 577173, Note_off_c, 0, 33, 56
1, 577199, Note_on_c, 0, 95, 65
1, 577234, Note_on_c, 0, 49, 67
1, 577243, Note_on_c, 0, 93, 69
1, 577246, Note_off_c, 0, 92, 61
1, 577258, Note_on_c, 0, 81, 64
1, 577259, Note_off_c, 0, 49, 64
1, 577286, Note_off_c, 0, 95, 61
1, 577290, Note_off_c, 0, 81, 67
1, 577386, Note_off_c, 0, 93, 55
1, 577400, Note_on_c, 0, 92, 78
1, 577436, Note_on_c, 0, 80, 59
1, 577467, Note_off_c, 0, 80, 54
1, 577579, Control_c, 0, 64, 86
1, 577579, Control_c, 1, 64, 86
1, 577591, Note_on_c, 0, 67, 89
1, 577597, Control_c, 0, 64, 50
1, 577597, Control_c, 1, 64, 50
1, 577617, Control_c, 1, 64, 24
1, 577617, Control_c, 0, 64, 24
1, 577621, Note_off_c, 0, 92, 56
1, 577626, Note_on_c, 0, 93, 74
1, 577640, Note_on_c, 0, 57, 53
1, 577646, Note_on_c, 0, 81, 49
1, 577651, Note_on_c, 0, 61, 30
1, 577653, Control_c, 0, 64, 42
1, 577653, Control_c, 1, 64, 42
1, 577672, Control_c, 1, 64, 73
1, 577672, Control_c, 0, 64, 73
1, 577677, Note_off_c, 0, 81, 56
1, 577691, Control_c, 0, 64, 127
1, 577691, Control_c, 1, 64, 127
1, 577698, Note_off_c, 0, 61, 51
1, 577698, Poly_aftertouch_c, 0, 61, 0
1, 577714, Note_off_c, 0, 93, 63
1, 577789, Note_on_c, 0, 94, 77
1, 577791, Note_on_c, 0, 82, 63
1, 577817, Note_off_c, 0, 67, 60
1, 577839, Note_off_c, 0, 82, 58
1, 577887, Note_off_c, 0, 94, 63
1, 577916, Poly_aftertouch_c, 0, 61, 127
1, 577934, Control_c, 0, 64, 85
1, 577934, Control_c, 1, 64, 85
1, 577942, Note_off_c, 0, 57, 62
1, 577952, Note_on_c, 0, 64, 82
1, 577953, Control_c, 0, 64, 47
1, 577953, Control_c, 1, 64, 47
1, 577955, Note_on_c, 0, 93, 81
1, 577960, Poly_aftertouch_c, 0, 61, 0
1, 577962, Note_on_c, 0, 55, 62
1, 577975, Control_c, 0, 64, 25
1, 577975, Control_c, 1, 64, 25
1, 577991, Control_c, 1, 64, 29
1, 577991, Control_c, 0, 64, 29
1, 577999, Note_on_c, 0, 81, 8
1, 578000, Note_off_c, 0, 81, 127
1, 578007, Note_off_c, 0, 93, 65
1, 578009, Control_c, 0, 64, 51
1, 578009, Control_c, 1, 64, 51
1, 578018, Note_off_c, 0, 55, 63
1, 578018, Poly_aftertouch_c, 0, 55, 0
1, 578029, Control_c, 0, 64, 89
1, 578029, Control_c, 1, 64, 89
1, 578035, Note_off_c, 0, 64, 60
1, 578035, Poly_aftertouch_c, 0, 64, 0
1, 578048, Control_c, 0, 64, 127
1, 578048, Control_c, 1, 64, 127
1, 578116, Note_on_c, 0, 100, 80
1, 578145, Note_off_c, 0, 100, 70
1, 578203, Poly_aftertouch_c, 0, 88, 0
1, 578261, Note_on_c, 0, 97, 82
1, 578270, Note_on_c, 0, 85, 61
1, 578292, Note_off_c, 0, 85, 66
1, 578293, Note_off_c, 0, 97, 65
1, 578328, Control_c, 0, 64, 94
1, 578328, Control_c, 1, 64, 94
1, 578346, Control_c, 1, 64, 51
1, 578346, Control_c, 0, 64, 51
1, 578365, Control_c, 0, 64, 0
1, 578365, Control_c, 1, 64, 0
1, 578398, Note_on_c, 0, 94, 81
1, 578412, Note_on_c, 0, 82, 62
1, 578435, Note_off_c, 0, 82, 67
1, 578459, Note_off_c, 0, 94, 61
1, 578466, Note_on_c, 0, 38, 62
1, 578477, Control_c, 0, 64, 59
1, 578477, Control_c, 1, 64, 59
1, 578497, Control_c, 1, 64, 127
1, 578497, Control_c, 0, 64, 127
1, 578506, Note_off_c, 0, 38, 63
1, 578527, Note_on_c, 0, 92, 84
1, 578537, Note_on_c, 0, 80, 73
1, 578545, Note_on_c, 0, 53, 70
1, 578559, Note_off_c, 0, 80, 70
1, 578581, Note_off_c, 0, 53, 66
1, 578587, Note_off_c, 0, 92, 62
1, 578675, Note_on_c, 0, 98, 80
1, 578680, Note_on_c, 0, 86, 71
1, 578694, Note_on_c, 0, 58, 56
1, 578703, Note_off_c, 0, 86, 66
1, 578704, Note_off_c, 0, 98, 69
1, 578743, Note_off_c, 0, 58, 63
1, 578777, Control_c, 0, 64, 83
1, 578777, Control_c, 1, 64, 83
1, 578796, Control_c, 1, 64, 37
1, 578796, Control_c, 0, 64, 37
1, 578814, Control_c, 0, 64, 0
1, 578814, Control_c, 1, 64, 0
1, 578826, Note_on_c, 0, 65, 69
1, 578829, Note_on_c, 0, 93, 80
1, 578834, Note_on_c, 0, 62, 49
1, 578847, Note_on_c, 0, 81, 53
1, 578855, Note_off_c, 0, 93, 68
1, 578863, Note_on_c, 0, 57, 50
1, 578878, Note_off_c, 0, 81, 42
1, 578919, Note_off_c, 0, 62, 55
1, 578923, Note_off_c, 0, 57, 61
1, 578951, Note_on_c, 0, 91, 77
1, 578971, Note_on_c, 0, 79, 64
1, 578993, Note_off_c, 0, 79, 65
1, 579022, Note_off_c, 0, 91, 53
1, 579076, Control_c, 0, 64, 69
1, 579076, Control_c, 1, 64, 69
1, 579095, Control_c, 1, 64, 127
1, 579095, Control_c, 0, 64, 127
1, 579116, Note_on_c, 0, 62, 64
1, 579130, Note_on_c, 0, 53, 54
1, 579133, Note_on_c, 0, 88, 68
1, 579135, Note_off_c, 0, 65, 61
1, 579137, Note_on_c, 0, 57, 51
1, 579155, Note_on_c, 0, 76, 44
1, 579181, Note_off_c, 0, 57, 64
1, 579183, Note_off_c, 0, 88, 61
1, 579191, Note_off_c, 0, 76, 58
1, 579191, Note_off_c, 0, 53, 56
1, 579203, Note_off_c, 0, 62, 57
1, 579288, Note_on_c, 0, 93, 78
1, 579302, Note_on_c, 0, 81, 59
1, 579315, Note_off_c, 0, 93, 70
1, 579323, Note_off_c, 0, 81, 63
1, 579432, Note_on_c, 0, 89, 78
1, 579440, Note_on_c, 0, 77, 69
1, 579456, Note_off_c, 0, 77, 65
1, 579462, Note_off_c, 0, 89, 63
1, 579587, Note_on_c, 0, 86, 78
1, 579601, Note_on_c, 0, 74, 56
1, 579621, Note_off_c, 0, 86, 59
1, 579625, Note_off_c, 0, 74, 60
1, 579714, Control_c, 0, 64, 115
1, 579714, Control_c, 1, 64, 115
1, 579732, Control_c, 1, 64, 71
1, 579732, Control_c, 0, 64, 71
1, 579750, Control_c, 0, 64, 41
1, 579750, Control_c, 1, 64, 41
1, 579769, Control_c, 1, 64, 18
1, 579769, Note_on_c, 0, 31, 60
1, 579769, Control_c, 0, 64, 18
1, 579788, Control_c, 0, 64, 14
1, 579788, Control_c, 1, 64, 14
1, 579806, Control_c, 1, 64, 19
1, 579806, Control_c, 0, 64, 19
1, 579817, Note_on_c, 0, 89, 51
1, 579820, Note_off_c, 0, 31, 61
1, 579826, Control_c, 0, 64, 40
1, 579826, Control_c, 1, 64, 40
1, 579842, Note_on_c, 0, 93, 57
1, 579844, Control_c, 0, 64, 79
1, 579844, Control_c, 1, 64, 79
1, 579864, Note_off_c, 0, 89, 51
1, 579864, Control_c, 0, 64, 127
1, 579864, Control_c, 1, 64, 127
1, 579866, Note_on_c, 0, 47, 60
1, 579902, Note_off_c, 0, 47, 64
1, 579902, Note_on_c, 0, 91, 67
1, 579927, Note_on_c, 0, 79, 41
1, 579940, Note_off_c, 0, 93, 61
1, 579966, Note_off_c, 0, 79, 52
1, 579970, Note_off_c, 0, 91, 61
1, 580062, Note_on_c, 0, 90, 76
1, 580077, Note_on_c, 0, 78, 64
1, 580102, Note_off_c, 0, 78, 66
1, 580102, Poly_aftertouch_c, 0, 78, 0
1, 580143, Control_c, 0, 64, 83
1, 580143, Control_c, 1, 64, 83
1, 580163, Control_c, 1, 64, 39
1, 580163, Control_c, 0, 64, 39
1, 580181, Control_c, 0, 64, 0
1, 580181, Control_c, 1, 64, 0
1, 580196, Note_on_c, 0, 65, 67
1, 580198, Note_off_c, 0, 90, 36
1, 580202, Note_on_c, 0, 91, 75
1, 580204, Note_on_c, 0, 59, 52
1, 580211, Note_on_c, 0, 55, 59
1, 580212, Note_on_c, 0, 79, 64
1, 580243, Note_off_c, 0, 79, 66
1, 580254, Note_off_c, 0, 59, 61
1, 580256, Note_off_c, 0, 91, 59
1, 580263, Note_off_c, 0, 65, 54
1, 580332, Note_on_c, 0, 92, 81
1, 580336, Note_on_c, 0, 80, 77
1, 580369, Note_off_c, 0, 80, 65
1, 580398, Note_off_c, 0, 92, 65
1, 580405, Control_c, 0, 64, 50
1, 580405, Control_c, 1, 64, 50
1, 580424, Control_c, 1, 64, 127
1, 580424, Control_c, 0, 64, 127
1, 580433, Note_off_c, 0, 55, 61
1, 580433, Poly_aftertouch_c, 0, 55, 0
1, 580457, Note_on_c, 0, 91, 82
1, 580464, Note_on_c, 0, 62, 69
1, 580479, Note_on_c, 0, 53, 58
1, 580491, Note_on_c, 0, 59, 39
1, 580496, Note_off_c, 0, 62, 68
1, 580510, Note_off_c, 0, 91, 65
1, 580513, Note_off_c, 0, 53, 64
1, 580531, Note_off_c, 0, 59, 36
1, 580571, Poly_aftertouch_c, 0, 79, 127
1, 580590, Poly_aftertouch_c, 0, 79, 0
1, 580615, Note_on_c, 0, 98, 81
1, 580643, Note_off_c, 0, 98, 69
1, 580653, Note_on_c, 0, 86, 31
1, 580654, Note_off_c, 0, 86, 127
1, 580702, Poly_aftertouch_c, 0, 86, 0
1, 580743, Note_on_c, 0, 95, 82
1, 580751, Note_on_c, 0, 83, 73
1, 580770, Note_off_c, 0, 95, 67
1, 580776, Note_off_c, 0, 83, 70
1, 580837, Control_c, 0, 64, 76
1, 580837, Control_c, 1, 64, 76
1, 580856, Control_c, 1, 64, 12
1, 580856, Control_c, 0, 64, 12
1, 580873, Control_c, 0, 64, 0
1, 580873, Control_c, 1, 64, 0
1, 580885, Note_on_c, 0, 92, 82
1, 580898, Note_on_c, 0, 36, 61
1, 580907, Note_on_c, 0, 80, 56
1, 580932, Note_off_c, 0, 80, 63
1, 580947, Note_off_c, 0, 36, 64
1, 580948, Control_c, 0, 64, 32
1, 580948, Control_c, 1, 64, 32
1, 580950, Note_off_c, 0, 92, 64
1, 580967, Control_c, 0, 64, 86
1, 580967, Control_c, 1, 64, 86
1, 580986, Control_c, 1, 64, 127
1, 580986, Control_c, 0, 64, 127
1, 580991, Note_on_c, 0, 52, 63
1, 581016, Note_on_c, 0, 78, 80
1, 581017, Note_on_c, 0, 90, 87
1, 581021, Note_off_c, 0, 52, 61
1, 581021, Poly_aftertouch_c, 0, 52, 0
1, 581041, Note_off_c, 0, 78, 64
1, 581041, Poly_aftertouch_c, 0, 78, 0
1, 581075, Note_off_c, 0, 90, 66
1, 581164, Note_on_c, 0, 96, 80
1, 581183, Note_on_c, 0, 84, 61
1, 581190, Note_off_c, 0, 96, 69
1, 581203, Note_off_c, 0, 84, 64
1, 581267, Control_c, 0, 64, 78
1, 581267, Control_c, 1, 64, 78
1, 581285, Control_c, 1, 64, 39
1, 581285, Control_c, 0, 64, 39
1, 581304, Note_on_c, 0, 64, 54
1, 581304, Control_c, 0, 64, 0
1, 581304, Control_c, 1, 64, 0
1, 581309, Note_on_c, 0, 91, 81
1, 581321, Note_on_c, 0, 79, 65
1, 581324, Note_on_c, 0, 60, 36
1, 581331, Note_on_c, 0, 55, 35
1, 581338, Note_off_c, 0, 91, 60
1, 581341, Note_off_c, 0, 79, 65
1, 581364, Note_off_c, 0, 60, 45
1, 581366, Note_on_c, 0, 62, 11
1, 581377, Note_off_c, 0, 55, 49
1, 581377, Poly_aftertouch_c, 0, 55, 0
1, 581438, Note_on_c, 0, 89, 81
1, 581448, Note_on_c, 0, 77, 75
1, 581450, Note_off_c, 0, 62, 26
1, 581473, Note_off_c, 0, 77, 69
1, 581505, Note_off_c, 0, 89, 53
1, 581529, Control_c, 0, 64, 39
1, 581529, Control_c, 1, 64, 39
1, 581548, Control_c, 1, 64, 84
1, 581548, Control_c, 0, 64, 84
1, 581566, Control_c, 0, 64, 127
1, 581566, Control_c, 1, 64, 127
1, 581583, Note_off_c, 0, 64, 62
1, 581583, Poly_aftertouch_c, 0, 64, 0
1, 581592, Note_on_c, 0, 60, 56
1, 581607, Note_on_c, 0, 87, 74
1, 581612, Note_on_c, 0, 55, 44
1, 581613, Note_on_c, 0, 75, 67
1, 581617, Note_on_c, 0, 52, 42
1, 581633, Note_off_c, 0, 75, 65
1, 581654, Note_off_c, 0, 60, 55
1, 581656, Note_off_c, 0, 87, 60
1, 581659, Note_off_c, 0, 55, 56
1, 581659, Poly_aftertouch_c, 0, 55, 0
1, 581678, Control_c, 0, 67, 122
1, 581678, Control_c, 1, 67, 122
1, 581680, Note_off_c, 0, 52, 58
1, 581680, Poly_aftertouch_c, 0, 52, 0
1, 581751, Note_on_c, 0, 91, 81
1, 581757, Note_on_c, 0, 79, 75
1, 581777, Note_off_c, 0, 91, 63
1, 581784, Note_off_c, 0, 79, 70
1, 581809, Control_c, 0, 67, 118
1, 581809, Control_c, 1, 67, 118
1, 581892, Note_on_c, 0, 88, 82
1, 581906, Note_on_c, 0, 76, 72
1, 581929, Note_off_c, 0, 88, 60
1, 581933, Note_off_c, 0, 76, 66
1, 582044, Note_on_c, 0, 84, 82
1, 582055, Note_on_c, 0, 72, 74
1, 582083, Note_off_c, 0, 72, 69
1, 582095, Note_off_c, 0, 84, 57
1, 582165, Control_c, 0, 64, 93
1, 582165, Control_c, 1, 64, 93
1, 582186, Control_c, 1, 64, 40
1, 582186, Control_c, 0, 64, 40
1, 582188, Note_on_c, 0, 35, 59
1, 582204, Control_c, 0, 64, 0
1, 582204, Control_c, 1, 64, 0
1, 582209, Note_on_c, 0, 85, 81
1, 582241, Note_off_c, 0, 35, 60
1, 582258, Note_on_c, 0, 88, 71
1, 582276, Note_on_c, 0, 50, 71
1, 582277, Control_c, 0, 64, 31
1, 582277, Control_c, 1, 64, 31
1, 582296, Control_c, 1, 64, 76
1, 582296, Control_c, 0, 64, 76
1, 582310, Note_on_c, 0, 86, 67
1, 582313, Note_off_c, 0, 85, 51
1, 582316, Control_c, 0, 64, 127
1, 582316, Control_c, 1, 64, 127
1, 582317, Note_off_c, 0, 50, 67
1, 582322, Note_on_c, 0, 74, 64
1, 582334, Note_off_c, 0, 88, 64
1, 582341, Note_off_c, 0, 74, 64
1, 582371, Control_c, 0, 67, 111
1, 582371, Control_c, 1, 67, 111
1, 582372, Note_off_c, 0, 86, 62
1, 582391, Control_c, 0, 67, 107
1, 582391, Control_c, 1, 67, 107
1, 582427, Control_c, 1, 67, 103
1, 582427, Control_c, 0, 67, 103
1, 582449, Note_on_c, 0, 85, 80
1, 582481, Note_on_c, 0, 73, 62
1, 582502, Note_off_c, 0, 73, 64
1, 582517, Note_off_c, 0, 85, 62
1, 582520, Control_c, 0, 64, 89
1, 582520, Control_c, 1, 64, 89
1, 582540, Control_c, 1, 64, 52
1, 582540, Control_c, 0, 64, 52
1, 582558, Control_c, 0, 64, 11
1, 582558, Control_c, 1, 64, 11
1, 582577, Control_c, 1, 64, 0
1, 582577, Control_c, 0, 64, 0
1, 582593, Note_on_c, 0, 65, 54
1, 582593, Note_on_c, 0, 86, 76
1, 582599, Note_on_c, 0, 57, 53
1, 582602, Note_on_c, 0, 74, 65
1, 582611, Note_on_c, 0, 59, 36
1, 582625, Note_off_c, 0, 74, 64
1, 582647, Note_off_c, 0, 59, 52
1, 582650, Note_off_c, 0, 86, 61
1, 582653, Note_off_c, 0, 57, 56
1, 582745, Note_on_c, 0, 88, 77
1, 582758, Note_on_c, 0, 76, 60
1, 582783, Control_c, 0, 67, 107
1, 582783, Control_c, 1, 67, 107
1, 582784, Note_off_c, 0, 76, 62
1, 582796, Note_off_c, 0, 88, 56
1, 582895, Control_c, 0, 67, 111
1, 582895, Control_c, 1, 67, 111
1, 582970, Control_c, 1, 64, 10
1, 582970, Control_c, 0, 64, 10
1, 582989, Control_c, 0, 64, 21
1, 582989, Control_c, 1, 64, 21
1, 582990, Control_c, 1, 67, 117
1, 582990, Control_c, 0, 67, 117
1, 583008, Control_c, 0, 64, 38
1, 583008, Control_c, 1, 64, 38
1, 583016, Note_on_c, 0, 91, 62
1, 583018, Note_on_c, 0, 59, 42
1, 583027, Control_c, 0, 64, 57
1, 583027, Control_c, 1, 64, 57
1, 583029, Note_on_c, 0, 79, 51
1, 583031, Note_off_c, 0, 65, 37
1, 583045, Note_on_c, 0, 53, 31
1, 583046, Control_c, 0, 64, 68
1, 583046, Control_c, 1, 64, 68
1, 583047, Control_c, 1, 67, 121
1, 583047, Control_c, 0, 67, 121
1, 583054, Note_on_c, 0, 57, 29
1, 583064, Control_c, 0, 64, 73
1, 583064, Control_c, 1, 64, 73
1, 583082, Control_c, 1, 64, 76
1, 583082, Control_c, 0, 64, 76
1, 583085, Control_c, 0, 67, 126
1, 583085, Control_c, 1, 67, 126
1, 583102, Control_c, 1, 64, 83
1, 583102, Control_c, 0, 64, 83
1, 583109, Note_off_c, 0, 57, 60
1, 583120, Control_c, 0, 64, 104
1, 583120, Control_c, 1, 64, 104
1, 583139, Control_c, 1, 64, 127
1, 583139, Control_c, 0, 64, 127
1, 583150, Note_off_c, 0, 59, 62
1, 583170, Note_off_c, 0, 53, 55
1, 583203, Note_off_c, 0, 79, 56
1, 583246, Note_off_c, 0, 91, 60
1, 583389, Note_on_c, 0, 95, 71
1, 583409, Note_off_c, 0, 95, 67
1, 583414, Note_on_c, 0, 83, 52
1, 583427, Note_on_c, 0, 93, 82
1, 583442, Note_off_c, 0, 83, 59
1, 583450, Note_off_c, 0, 93, 69
1, 583473, Note_on_c, 0, 91, 87
1, 583492, Note_off_c, 0, 91, 71
1, 583492, Note_on_c, 0, 36, 57
1, 583506, Note_on_c, 0, 89, 91
1, 583525, Note_off_c, 0, 89, 64
1, 583546, Note_on_c, 0, 88, 88
1, 583560, Note_off_c, 0, 36, 59
1, 583564, Note_off_c, 0, 88, 64
1, 583564, Poly_aftertouch_c, 0, 81, 0
1, 583582, Note_on_c, 0, 86, 91
1, 583607, Note_on_c, 0, 52, 77
1, 583623, Note_on_c, 0, 84, 80
1, 583630, Note_off_c, 0, 86, 58
1, 583634, Note_off_c, 0, 52, 68
1, 583634, Poly_aftertouch_c, 0, 52, 0
1, 583661, Note_on_c, 0, 76, 15
1, 583679, Note_off_c, 0, 76, 48
1, 583719, Note_off_c, 0, 84, 51
1, 583724, Poly_aftertouch_c, 0, 74, 0
1, 583779, Note_on_c, 0, 83, 77
1, 583806, Note_on_c, 0, 71, 45
1, 583811, Control_c, 0, 64, 121
1, 583811, Control_c, 1, 64, 121
1, 583832, Control_c, 1, 64, 72
1, 583832, Control_c, 0, 64, 72
1, 583839, Note_off_c, 0, 71, 53
1, 583850, Control_c, 0, 64, 40
1, 583850, Control_c, 1, 64, 40
1, 583858, Note_off_c, 0, 83, 57
1, 583869, Control_c, 0, 64, 8
1, 583869, Control_c, 1, 64, 8
1, 583886, Control_c, 1, 64, 0
1, 583886, Control_c, 0, 64, 0
1, 583928, Note_on_c, 0, 84, 79
1, 583930, Note_on_c, 0, 64, 60
1, 583934, Note_on_c, 0, 72, 63
1, 583936, Note_on_c, 0, 52, 52
1, 583944, Note_on_c, 0, 57, 47
1, 583957, Note_off_c, 0, 72, 63
1, 583970, Note_off_c, 0, 84, 64
1, 583993, Note_off_c, 0, 57, 60
1, 583996, Note_off_c, 0, 52, 56
1, 583996, Poly_aftertouch_c, 0, 52, 0
1, 584079, Note_on_c, 0, 86, 75
1, 584079, Note_on_c, 0, 74, 71
1, 584109, Note_off_c, 0, 74, 67
1, 584134, Note_off_c, 0, 86, 57
1, 584255, Note_off_c, 0, 64, 50
1, 584255, Poly_aftertouch_c, 0, 64, 0
1, 584299, Control_c, 0, 64, 8
1, 584299, Control_c, 1, 64, 8
1, 584305, Note_on_c, 0, 89, 68
1, 584317, Note_on_c, 0, 77, 56
1, 584317, Control_c, 0, 64, 17
1, 584317, Control_c, 1, 64, 17
1, 584328, Note_on_c, 0, 48, 49
1, 584335, Control_c, 0, 64, 31
1, 584335, Control_c, 1, 64, 31
1, 584351, Note_on_c, 0, 57, 45
1, 584354, Note_on_c, 0, 52, 27
1, 584354, Control_c, 0, 64, 53
1, 584354, Control_c, 1, 64, 53
1, 584373, Control_c, 1, 64, 72
1, 584373, Control_c, 0, 64, 72
1, 584393, Control_c, 0, 64, 86
1, 584393, Control_c, 1, 64, 86
1, 584412, Control_c, 1, 64, 102
1, 584412, Control_c, 0, 64, 102
1, 584427, Note_off_c, 0, 52, 42
1, 584427, Poly_aftertouch_c, 0, 52, 0
1, 584428, Control_c, 0, 64, 127
1, 584428, Control_c, 1, 64, 127
1, 584456, Note_off_c, 0, 57, 61
1, 584458, Note_off_c, 0, 77, 56
1, 584505, Note_off_c, 0, 89, 62
1, 584515, Note_off_c, 0, 48, 33
1, 584690, Note_on_c, 0, 93, 72
1, 584708, Note_off_c, 0, 93, 65
1, 584725, Note_on_c, 0, 81, 49
1, 584727, Note_on_c, 0, 83, 16
1, 584735, Note_on_c, 0, 91, 81
1, 584755, Note_off_c, 0, 81, 60
1, 584760, Note_off_c, 0, 91, 70
1, 584775, Note_on_c, 0, 89, 87
1, 584792, Note_off_c, 0, 83, 39
1, 584796, Note_off_c, 0, 89, 72
1, 584812, Note_on_c, 0, 88, 87
1, 584832, Note_off_c, 0, 88, 64
1, 584851, Note_on_c, 0, 86, 88
1, 584860, Note_on_c, 0, 77, 25
1, 584877, Note_off_c, 0, 86, 72
1, 584886, Note_on_c, 0, 38, 62
1, 584887, Note_on_c, 0, 84, 87
1, 584905, Note_off_c, 0, 77, 33
1, 584912, Note_off_c, 0, 84, 73
1, 584913, Note_on_c, 0, 83, 83
1, 584928, Note_off_c, 0, 38, 59
1, 584952, Poly_aftertouch_c, 0, 76, 0
1, 584980, Note_on_c, 0, 53, 72
1, 584991, Note_on_c, 0, 81, 31
1, 584992, Note_on_c, 0, 71, 40
1, 585014, Note_off_c, 0, 53, 66
1, 585028, Note_off_c, 0, 71, 49
1, 585034, Note_off_c, 0, 83, 60
1, 585038, Note_off_c, 0, 81, 30
1, 585067, Control_c, 0, 64, 108
1, 585067, Control_c, 1, 64, 108
1, 585085, Control_c, 1, 64, 69
1, 585085, Control_c, 0, 64, 69
1, 585104, Control_c, 0, 64, 37
1, 585104, Control_c, 1, 64, 37
1, 585122, Control_c, 1, 64, 9
1, 585122, Control_c, 0, 64, 9
1, 585126, Note_on_c, 0, 82, 79
1, 585162, Note_on_c, 0, 70, 38
1, 585194, Note_off_c, 0, 82, 62
1, 585206, Note_off_c, 0, 70, 55
1, 585206, Poly_aftertouch_c, 0, 70, 0
1, 585267, Note_on_c, 0, 83, 77
1, 585269, Note_on_c, 0, 65, 58
1, 585279, Note_on_c, 0, 71, 66
1, 585284, Note_on_c, 0, 57, 52
1, 585294, Note_on_c, 0, 59, 32
1, 585305, Note_off_c, 0, 65, 64
1, 585310, Note_off_c, 0, 71, 69
1, 585327, Note_off_c, 0, 59, 47
1, 585334, Note_off_c, 0, 57, 65
1, 585341, Note_off_c, 0, 83, 63
1, 585422, Note_on_c, 0, 84, 78
1, 585433, Note_on_c, 0, 72, 66
1, 585464, Note_off_c, 0, 72, 68
1, 585494, Note_off_c, 0, 84, 62
1, 585513, Note_on_c, 0, 40, 60
1, 585582, Note_off_c, 0, 40, 50
1, 585588, Control_c, 0, 64, 19
1, 585588, Control_c, 1, 64, 19
1, 585610, Control_c, 1, 64, 30
1, 585610, Control_c, 0, 64, 30
1, 585627, Control_c, 0, 64, 47
1, 585627, Control_c, 1, 64, 47
1, 585646, Note_on_c, 0, 88, 68
1, 585648, Control_c, 0, 64, 64
1, 585648, Control_c, 1, 64, 64
1, 585656, Note_on_c, 0, 76, 59
1, 585663, Note_on_c, 0, 56, 58
1, 585666, Control_c, 0, 64, 73
1, 585666, Control_c, 1, 64, 73
1, 585685, Control_c, 1, 64, 80
1, 585685, Control_c, 0, 64, 80
1, 585692, Note_off_c, 0, 56, 57
1, 585703, Control_c, 0, 64, 92
1, 585703, Control_c, 1, 64, 92
1, 585721, Control_c, 1, 64, 127
1, 585721, Control_c, 0, 64, 127
1, 585780, Poly_aftertouch_c, 0, 58, 0
1, 585829, Note_off_c, 0, 76, 61
1, 585872, Note_off_c, 0, 88, 66
1, 586010, Note_on_c, 0, 62, 62
1, 586023, Note_on_c, 0, 81, 76
1, 586026, Note_on_c, 0, 52, 53
1, 586030, Note_on_c, 0, 93, 61
1, 586051, Note_off_c, 0, 62, 64
1, 586053, Note_off_c, 0, 93, 64
1, 586053, Note_on_c, 0, 59, 11
1, 586071, Note_on_c, 0, 91, 63
1, 586072, Note_off_c, 0, 52, 62
1, 586072, Poly_aftertouch_c, 0, 52, 0
1, 586073, Note_off_c, 0, 81, 55
1, 586091, Note_off_c, 0, 91, 64
1, 586118, Note_on_c, 0, 89, 81
1, 586131, Note_off_c, 0, 59, 28
1, 586141, Note_off_c, 0, 89, 71
1, 586148, Note_on_c, 0, 79, 27
1, 586157, Note_on_c, 0, 88, 80
1, 586182, Note_on_c, 0, 77, 53
1, 586183, Note_off_c, 0, 88, 64
1, 586201, Note_off_c, 0, 79, 43
1, 586208, Note_on_c, 0, 86, 84
1, 586216, Note_off_c, 0, 77, 51
1, 586234, Note_off_c, 0, 86, 61
1, 586250, Note_on_c, 0, 76, 52
1, 586265, Note_on_c, 0, 84, 80
1, 586280, Note_off_c, 0, 76, 61
1, 586288, Note_off_c, 0, 84, 64
1, 586306, Note_on_c, 0, 83, 80
1, 586330, Note_on_c, 0, 74, 31
1, 586332, Note_off_c, 0, 83, 66
1, 586353, Note_on_c, 0, 81, 81
1, 586373, Note_off_c, 0, 74, 44
1, 586378, Note_on_c, 0, 72, 33
1, 586379, Note_off_c, 0, 81, 63
1, 586403, Note_on_c, 0, 79, 81
1, 586417, Note_off_c, 0, 72, 48
1, 586425, Note_on_c, 0, 71, 34
1, 586427, Note_off_c, 0, 79, 67
1, 586445, Note_on_c, 0, 77, 80
1, 586466, Note_off_c, 0, 71, 53
1, 586471, Note_on_c, 0, 69, 34
1, 586472, Note_off_c, 0, 77, 64
1, 586491, Note_on_c, 0, 76, 80
1, 586515, Note_off_c, 0, 69, 34
1, 586519, Note_off_c, 0, 76, 68
1, 586533, Note_on_c, 0, 74, 76
1, 586561, Note_off_c, 0, 74, 63
1, 586583, Note_on_c, 0, 72, 70
1, 586598, Poly_aftertouch_c, 0, 67, 127
1, 586609, Note_off_c, 0, 72, 69
1, 586609, Poly_aftertouch_c, 0, 67, 0
1, 586619, Note_on_c, 0, 71, 77
1, 586625, Note_on_c, 0, 33, 59
1, 586657, Note_on_c, 0, 69, 72
1, 586669, Note_off_c, 0, 71, 40
1, 586695, Note_on_c, 0, 48, 63
1, 586714, Control_c, 0, 64, 83
1, 586714, Control_c, 1, 64, 83
1, 586718, Note_on_c, 0, 57, 55
1, 586733, Control_c, 0, 64, 50
1, 586733, Control_c, 1, 64, 50
1, 586751, Control_c, 1, 64, 16
1, 586751, Control_c, 0, 64, 16
1, 586808, Control_c, 0, 64, 9
1, 586808, Control_c, 1, 64, 9
1, 586826, Control_c, 1, 64, 31
1, 586826, Control_c, 0, 64, 31
1, 586845, Control_c, 0, 64, 64
1, 586845, Control_c, 1, 64, 64
1, 586850, Note_off_c, 0, 57, 57
1, 586851, Poly_aftertouch_c, 0, 57, 0
1, 586864, Control_c, 0, 64, 105
1, 586864, Control_c, 1, 64, 105
1, 586882, Control_c, 1, 64, 127
1, 586882, Control_c, 0, 64, 127
1, 586913, Note_off_c, 0, 69, 59
1, 586949, Note_off_c, 0, 33, 61
1, 587017, Note_off_c, 0, 48, 62
1, 587093, Note_on_c, 0, 74, 56
1, 587118, Note_off_c, 0, 74, 59
1, 587171, Poly_aftertouch_c, 0, 60, 127
1, 587201, Poly_aftertouch_c, 0, 72, 0
1, 587206, Note_on_c, 0, 76, 83
1, 587227, Note_on_c, 0, 64, 43
1, 587233, Note_off_c, 0, 76, 68
1, 587266, Note_off_c, 0, 64, 54
1, 587266, Poly_aftertouch_c, 0, 64, 0
1, 587323, Poly_aftertouch_c, 0, 75, 0
1, 587336, Note_on_c, 0, 52, 66
1, 587336, Note_on_c, 0, 79, 84
1, 587350, Note_on_c, 0, 60, 27
1, 587358, Note_on_c, 0, 69, 52
1, 587359, Note_off_c, 0, 79, 52
1, 587364, Note_off_c, 0, 60, 58
1, 587364, Poly_aftertouch_c, 0, 60, 0
1, 587368, Note_on_c, 0, 64, 14
1, 587369, Note_on_c, 0, 81, 47
1, 587374, Note_off_c, 0, 52, 64
1, 587374, Poly_aftertouch_c, 0, 52, 0
1, 587389, Note_off_c, 0, 69, 58
1, 587403, Note_off_c, 0, 81, 41
1, 587445, Note_off_c, 0, 64, 34
1, 587445, Poly_aftertouch_c, 0, 64, 0
1, 587468, Note_on_c, 0, 84, 80
1, 587472, Note_on_c, 0, 72, 68
1, 587490, Note_off_c, 0, 84, 70
1, 587498, Note_off_c, 0, 72, 65
1, 587579, Note_on_c, 0, 76, 79
1, 587586, Note_on_c, 0, 88, 71
1, 587601, Note_on_c, 0, 45, 58
1, 587602, Note_on_c, 0, 52, 46
1, 587603, Note_off_c, 0, 76, 67
1, 587604, Note_off_c, 0, 88, 54
1, 587667, Note_off_c, 0, 45, 59
1, 587714, Note_on_c, 0, 60, 72
1, 587718, Note_on_c, 0, 79, 79
1, 587721, Note_on_c, 0, 91, 71
1, 587721, Note_on_c, 0, 93, 80
1, 587722, Note_off_c, 0, 52, 56
1, 587722, Poly_aftertouch_c, 0, 52, 0
1, 587730, Note_on_c, 0, 81, 65
1, 587741, Note_off_c, 0, 79, 70
1, 587747, Note_off_c, 0, 93, 70
1, 587751, Note_off_c, 0, 60, 67
1, 587751, Poly_aftertouch_c, 0, 60, 0
1, 587752, Note_off_c, 0, 81, 64
1, 587753, Note_off_c, 0, 91, 66
1, 587769, Poly_aftertouch_c, 0, 76, 127
1, 587770, Poly_aftertouch_c, 0, 76, 0
1, 587863, Note_on_c, 0, 96, 93
1, 587865, Note_on_c, 0, 84, 80
1, 587886, Note_off_c, 0, 84, 64
1, 587892, Note_off_c, 0, 96, 60
1, 587995, Note_on_c, 0, 88, 80
1, 588007, Note_on_c, 0, 100, 69
1, 588019, Note_on_c, 0, 98, 53
1, 588020, Note_off_c, 0, 88, 64
1, 588031, Note_off_c, 0, 100, 65
1, 588047, Note_off_c, 0, 98, 60
1, 588072, Poly_aftertouch_c, 0, 99, 0
1, 588304, Note_on_c, 0, 105, 67
1, 588315, Note_on_c, 0, 33, 45
1, 588315, Note_on_c, 0, 93, 60
1, 588325, Note_on_c, 0, 48, 41
1, 588325, Control_c, 0, 64, 81
1, 588325, Control_c, 1, 64, 81
1, 588344, Control_c, 1, 64, 53
1, 588344, Control_c, 0, 64, 53
1, 588361, Control_c, 0, 64, 29
1, 588361, Control_c, 1, 64, 29
1, 588379, Control_c, 1, 64, 12
1, 588379, Control_c, 0, 64, 12
1, 588529, Control_c, 0, 64, 21
1, 588529, Control_c, 1, 64, 21
1, 588549, Control_c, 1, 64, 41
1, 588549, Control_c, 0, 64, 41
1, 588566, Control_c, 0, 64, 66
1, 588566, Control_c, 1, 64, 66
1, 588586, Control_c, 1, 64, 87
1, 588586, Control_c, 0, 64, 87
1, 588604, Control_c, 0, 64, 127
1, 588604, Control_c, 1, 64, 127
1, 588635, Note_off_c, 0, 33, 61
1, 588695, Note_off_c, 0, 48, 61
1, 588728, Note_off_c, 0, 105, 63
1, 588740, Note_off_c, 0, 93, 56
1, 588848, Control_c, 0, 67, 121
1, 588848, Control_c, 1, 67, 121
1, 588866, Control_c, 1, 67, 117
1, 588866, Control_c, 0, 67, 117
1, 588886, Control_c, 0, 67, 109
1, 588886, Control_c, 1, 67, 109
1, 588903, Control_c, 1, 67, 97
1, 588903, Control_c, 0, 67, 97
1, 588923, Control_c, 0, 67, 81
1, 588923, Control_c, 1, 67, 81
1, 588941, Control_c, 1, 67, 61
1, 588941, Control_c, 0, 67, 61
1, 588961, Control_c, 0, 67, 37
1, 588961, Control_c, 1, 67, 37
1, 588997, Control_c, 1, 67, 0
1, 588997, Control_c, 0, 67, 0
1, 589382, Note_on_c, 0, 68, 77
1, 589428, Control_c, 0, 64, 101
1, 589428, Control_c, 1, 64, 101
1, 589447, Control_c, 1, 64, 70
1, 589447, Control_c, 0, 64, 70
1, 589466, Control_c, 0, 64, 45
1, 589466, Control_c, 1, 64, 45
1, 589485, Control_c, 1, 64, 20
1, 589485, Control_c, 0, 64, 20
1, 589498, Note_on_c, 0, 69, 84
1, 589515, Note_off_c, 0, 68, 63
1, 589520, Control_c, 0, 64, 0
1, 589520, Control_c, 1, 64, 0
1, 589613, Note_on_c, 0, 88, 81
1, 589618, Note_on_c, 0, 71, 86
1, 589621, Note_off_c, 0, 69, 58
1, 589663, Note_off_c, 0, 88, 65
1, 589695, Note_off_c, 0, 71, 62
1, 589712, Note_on_c, 0, 88, 76
1, 589712, Note_on_c, 0, 72, 84
1, 589778, Note_off_c, 0, 72, 63
1, 589782, Control_c, 0, 64, 18
1, 589782, Control_c, 1, 64, 18
1, 589803, Control_c, 1, 64, 116
1, 589803, Control_c, 0, 64, 116
1, 589809, Note_on_c, 0, 81, 94
1, 589813, Note_off_c, 0, 88, 56
1, 589814, Note_on_c, 0, 93, 96
1, 589821, Control_c, 0, 64, 127
1, 589821, Control_c, 1, 64, 127
1, 589831, Note_on_c, 0, 74, 88
1, 589863, Note_off_c, 0, 93, 64
1, 589878, Note_off_c, 0, 81, 61
1, 589882, Note_off_c, 0, 74, 63
1, 589929, Note_on_c, 0, 77, 86
1, 590024, Note_on_c, 0, 76, 82
1, 590072, Note_off_c, 0, 77, 53
1, 590093, Note_on_c, 0, 74, 85
1, 590125, Note_off_c, 0, 76, 66
1, 590141, Note_off_c, 0, 74, 67
1, 590170, Poly_aftertouch_c, 0, 75, 0
1, 590186, Note_on_c, 0, 72, 88
1, 590277, Note_on_c, 0, 76, 82
1, 590286, Note_off_c, 0, 72, 59
1, 590383, Note_on_c, 0, 74, 85
1, 590383, Control_c, 0, 64, 76
1, 590383, Control_c, 1, 64, 76
1, 590394, Note_on_c, 0, 40, 64
1, 590395, Note_off_c, 0, 76, 62
1, 590400, Control_c, 0, 64, 25
1, 590400, Control_c, 1, 64, 25
1, 590420, Control_c, 1, 64, 0
1, 590420, Control_c, 0, 64, 0
1, 590467, Note_on_c, 0, 72, 87
1, 590468, Note_off_c, 0, 74, 63
1, 590526, Note_off_c, 0, 40, 61
1, 590530, Control_c, 0, 64, 38
1, 590530, Control_c, 1, 64, 38
1, 590548, Note_on_c, 0, 71, 87
1, 590549, Note_on_c, 0, 45, 84
1, 590552, Note_off_c, 0, 72, 64
1, 590552, Control_c, 0, 64, 107
1, 590552, Control_c, 1, 64, 107
1, 590561, Note_on_c, 0, 33, 77
1, 590570, Control_c, 0, 64, 127
1, 590570, Control_c, 1, 64, 127
1, 590573, Note_on_c, 0, 31, 65
1, 590574, Note_off_c, 0, 31, 127
1, 590583, Note_off_c, 0, 45, 69
1, 590590, Note_off_c, 0, 33, 63
1, 590607, Poly_aftertouch_c, 0, 31, 0
1, 590651, Note_on_c, 0, 74, 86
1, 590667, Note_off_c, 0, 71, 60
1, 590677, Note_on_c, 0, 76, 44
1, 590713, Note_off_c, 0, 76, 54
1, 590745, Note_off_c, 0, 74, 62
1, 590760, Note_on_c, 0, 72, 86
1, 590839, Note_off_c, 0, 72, 62
1, 590841, Note_on_c, 0, 71, 83
1, 590906, Note_off_c, 0, 71, 63
1, 590929, Note_on_c, 0, 69, 89
1, 590944, Control_c, 0, 64, 90
1, 590944, Control_c, 1, 64, 90
1, 590963, Control_c, 1, 64, 52
1, 590963, Control_c, 0, 64, 52
1, 590991, Note_off_c, 0, 69, 56
1, 590999, Control_c, 0, 64, 0
1, 590999, Control_c, 1, 64, 0
1, 591015, Note_on_c, 0, 72, 81
1, 591119, Note_on_c, 0, 93, 73
1, 591120, Note_on_c, 0, 95, 82
1, 591125, Note_on_c, 0, 71, 82
1, 591132, Note_off_c, 0, 72, 59
1, 591147, Note_off_c, 0, 93, 68
1, 591148, Note_off_c, 0, 95, 71
1, 591209, Note_on_c, 0, 93, 82
1, 591214, Note_on_c, 0, 69, 78
1, 591219, Note_off_c, 0, 71, 61
1, 591240, Note_on_c, 0, 95, 40
1, 591241, Note_off_c, 0, 95, 127
1, 591280, Note_off_c, 0, 93, 60
1, 591281, Control_c, 0, 64, 28
1, 591281, Control_c, 1, 64, 28
1, 591285, Note_on_c, 0, 88, 93
1, 591290, Note_on_c, 0, 68, 89
1, 591290, Note_on_c, 0, 100, 98
1, 591301, Control_c, 0, 64, 127
1, 591301, Control_c, 1, 64, 127
1, 591310, Note_off_c, 0, 69, 60
1, 591338, Note_off_c, 0, 88, 66
1, 591346, Note_off_c, 0, 100, 64
1, 591381, Note_off_c, 0, 68, 63
1, 591398, Note_on_c, 0, 71, 82
1, 591506, Note_on_c, 0, 69, 85
1, 591526, Note_off_c, 0, 71, 60
1, 591572, Note_on_c, 0, 68, 81
1, 591580, Note_off_c, 0, 69, 62
1, 591598, Note_off_c, 0, 68, 70
1, 591665, Note_on_c, 0, 66, 86
1, 591752, Note_on_c, 0, 69, 75
1, 591754, Note_off_c, 0, 66, 61
1, 591754, Poly_aftertouch_c, 0, 66, 0
1, 591823, Note_on_c, 0, 45, 76
1, 591824, Control_c, 0, 64, 86
1, 591824, Control_c, 1, 64, 86
1, 591844, Control_c, 1, 64, 49
1, 591844, Control_c, 0, 64, 49
1, 591850, Note_on_c, 0, 68, 78
1, 591862, Control_c, 0, 64, 0
1, 591862, Control_c, 1, 64, 0
1, 591866, Note_off_c, 0, 45, 61
1, 591877, Note_off_c, 0, 69, 61
1, 591926, Note_on_c, 0, 45, 78
1, 591936, Note_on_c, 0, 66, 84
1, 591955, Note_off_c, 0, 68, 61
1, 592003, Note_on_c, 0, 40, 85
1, 592004, Note_on_c, 0, 52, 89
1, 592005, Note_off_c, 0, 45, 62
1, 592007, Note_on_c, 0, 64, 86
1, 592024, Note_off_c, 0, 66, 63
1, 592024, Poly_aftertouch_c, 0, 66, 0
1, 592029, Control_c, 0, 64, 67
1, 592029, Control_c, 1, 64, 67
1, 592035, Note_off_c, 0, 40, 66
1, 592044, Note_off_c, 0, 52, 65
1, 592044, Poly_aftertouch_c, 0, 52, 0
1, 592047, Control_c, 0, 64, 127
1, 592047, Control_c, 1, 64, 127
1, 592118, Note_on_c, 0, 68, 82
1, 592133, Note_off_c, 0, 64, 57
1, 592133, Poly_aftertouch_c, 0, 64, 0
1, 592217, Note_on_c, 0, 66, 84
1, 592233, Note_off_c, 0, 68, 62
1, 592251, Poly_aftertouch_c, 0, 69, 0
1, 592281, Note_off_c, 0, 66, 65
1, 592281, Poly_aftertouch_c, 0, 66, 0
1, 592284, Note_on_c, 0, 64, 79
1, 592343, Note_off_c, 0, 64, 62
1, 592343, Poly_aftertouch_c, 0, 64, 0
1, 592363, Note_on_c, 0, 68, 83
1, 592386, Control_c, 0, 64, 77
1, 592386, Control_c, 1, 64, 77
1, 592404, Control_c, 1, 64, 38
1, 592404, Control_c, 0, 64, 38
1, 592424, Control_c, 0, 64, 0
1, 592424, Control_c, 1, 64, 0
1, 592464, Note_on_c, 0, 69, 78
1, 592466, Note_off_c, 0, 68, 64
1, 592552, Note_off_c, 0, 69, 60
1, 592579, Note_on_c, 0, 71, 79
1, 592580, Note_on_c, 0, 88, 81
1, 592631, Note_off_c, 0, 88, 64
1, 592645, Note_off_c, 0, 71, 63
1, 592674, Note_on_c, 0, 88, 67
1, 592691, Note_on_c, 0, 72, 77
1, 592741, Control_c, 0, 64, 48
1, 592741, Control_c, 1, 64, 48
1, 592751, Note_off_c, 0, 72, 59
1, 592753, Note_off_c, 0, 88, 64
1, 592755, Note_on_c, 0, 93, 89
1, 592759, Note_on_c, 0, 81, 86
1, 592759, Control_c, 0, 64, 127
1, 592759, Control_c, 1, 64, 127
1, 592789, Note_on_c, 0, 74, 84
1, 592807, Note_off_c, 0, 93, 61
1, 592810, Note_off_c, 0, 81, 61
1, 592851, Note_off_c, 0, 74, 65
1, 592877, Poly_aftertouch_c, 0, 91, 0
1, 592908, Note_on_c, 0, 77, 73
1, 592987, Note_on_c, 0, 76, 72
1, 593013, Note_off_c, 0, 77, 57
1, 593066, Note_on_c, 0, 74, 82
1, 593074, Note_off_c, 0, 76, 62
1, 593099, Note_off_c, 0, 74, 60
1, 593152, Note_on_c, 0, 72, 86
1, 593210, Control_c, 0, 64, 69
1, 593210, Control_c, 1, 64, 69
1, 593225, Note_off_c, 0, 72, 48
1, 593226, Control_c, 0, 64, 24
1, 593226, Control_c, 1, 64, 24
1, 593231, Note_on_c, 0, 76, 75
1, 593246, Control_c, 0, 64, 0
1, 593246, Control_c, 1, 64, 0
1, 593326, Note_on_c, 0, 74, 80
1, 593334, Note_on_c, 0, 40, 68
1, 593337, Note_off_c, 0, 76, 62
1, 593374, Note_off_c, 0, 40, 64
1, 593403, Note_off_c, 0, 74, 62
1, 593406, Note_on_c, 0, 72, 80
1, 593417, Note_on_c, 0, 40, 73
1, 593482, Note_off_c, 0, 40, 61
1, 593489, Note_on_c, 0, 71, 84
1, 593489, Control_c, 0, 64, 70
1, 593489, Control_c, 1, 64, 70
1, 593490, Note_on_c, 0, 33, 89
1, 593491, Note_on_c, 0, 45, 86
1, 593495, Note_off_c, 0, 72, 63
1, 593509, Control_c, 0, 64, 127
1, 593509, Control_c, 1, 64, 127
1, 593523, Note_off_c, 0, 45, 69
1, 593526, Note_off_c, 0, 33, 66
1, 593584, Note_on_c, 0, 74, 80
1, 593597, Note_off_c, 0, 71, 55
1, 593690, Note_on_c, 0, 72, 80
1, 593691, Note_off_c, 0, 74, 62
1, 593769, Note_on_c, 0, 71, 79
1, 593772, Note_off_c, 0, 72, 61
1, 593844, Note_off_c, 0, 71, 64
1, 593851, Note_on_c, 0, 69, 85
1, 593883, Control_c, 0, 64, 87
1, 593883, Control_c, 1, 64, 87
1, 593903, Control_c, 1, 64, 44
1, 593903, Control_c, 0, 64, 44
1, 593915, Note_off_c, 0, 69, 62
1, 593920, Control_c, 0, 64, 0
1, 593920, Control_c, 1, 64, 0
1, 593936, Note_on_c, 0, 72, 76
1, 594039, Note_on_c, 0, 71, 80
1, 594044, Note_on_c, 0, 93, 84
1, 594048, Note_off_c, 0, 72, 61
1, 594100, Note_off_c, 0, 93, 63
1, 594116, Note_on_c, 0, 69, 78
1, 594126, Note_off_c, 0, 71, 62
1, 594129, Note_on_c, 0, 93, 77
1, 594206, Note_on_c, 0, 68, 87
1, 594210, Note_on_c, 0, 100, 96
1, 594211, Note_on_c, 0, 88, 95
1, 594219, Control_c, 0, 64, 63
1, 594219, Control_c, 1, 64, 63
1, 594220, Note_off_c, 0, 93, 64
1, 594223, Note_off_c, 0, 69, 61
1, 594238, Control_c, 0, 64, 127
1, 594238, Control_c, 1, 64, 127
1, 594255, Note_off_c, 0, 100, 66
1, 594263, Note_off_c, 0, 88, 65
1, 594290, Note_off_c, 0, 68, 63
1, 594313, Note_on_c, 0, 71, 85
1, 594413, Note_on_c, 0, 69, 81
1, 594433, Note_off_c, 0, 71, 56
1, 594466, Note_on_c, 0, 68, 80
1, 594479, Note_off_c, 0, 69, 61
1, 594494, Note_off_c, 0, 68, 70
1, 594568, Note_on_c, 0, 66, 82
1, 594638, Note_on_c, 0, 69, 76
1, 594680, Note_off_c, 0, 66, 61
1, 594680, Poly_aftertouch_c, 0, 66, 0
1, 594740, Note_on_c, 0, 45, 80
1, 594742, Note_on_c, 0, 68, 79
1, 594780, Note_off_c, 0, 45, 67
1, 594782, Control_c, 0, 64, 78
1, 594782, Control_c, 1, 64, 78
1, 594784, Note_off_c, 0, 69, 56
1, 594799, Control_c, 0, 64, 33
1, 594799, Control_c, 1, 64, 33
1, 594818, Control_c, 1, 64, 0
1, 594818, Control_c, 0, 64, 0
1, 594839, Note_on_c, 0, 45, 70
1, 594845, Note_on_c, 0, 66, 83
1, 594869, Note_off_c, 0, 68, 61
1, 594892, Note_off_c, 0, 45, 62
1, 594915, Note_on_c, 0, 40, 90
1, 594916, Note_on_c, 0, 52, 86
1, 594917, Note_on_c, 0, 64, 85
1, 594928, Note_off_c, 0, 66, 63
1, 594928, Poly_aftertouch_c, 0, 66, 0
1, 594949, Control_c, 0, 64, 45
1, 594949, Control_c, 1, 64, 45
1, 594957, Note_off_c, 0, 52, 62
1, 594957, Poly_aftertouch_c, 0, 52, 0
1, 594961, Note_off_c, 0, 40, 62
1, 594968, Control_c, 0, 64, 127
1, 594968, Control_c, 1, 64, 127
1, 594991, Note_off_c, 0, 64, 57
1, 594991, Poly_aftertouch_c, 0, 64, 0
1, 595019, Note_on_c, 0, 68, 87
1, 595109, Note_on_c, 0, 66, 83
1, 595124, Note_off_c, 0, 68, 63
1, 595179, Note_on_c, 0, 64, 87
1, 595180, Note_off_c, 0, 66, 65
1, 595180, Poly_aftertouch_c, 0, 66, 0
1, 595232, Note_off_c, 0, 64, 66
1, 595232, Poly_aftertouch_c, 0, 64, 0
1, 595250, Control_c, 0, 64, 95
1, 595250, Control_c, 1, 64, 95
1, 595267, Control_c, 1, 64, 28
1, 595267, Control_c, 0, 64, 28
1, 595268, Note_on_c, 0, 44, 82
1, 595287, Control_c, 0, 64, 0
1, 595287, Control_c, 1, 64, 0
1, 595355, Note_on_c, 0, 56, 90
1, 595381, Control_c, 0, 64, 75
1, 595381, Control_c, 1, 64, 75
1, 595393, Note_off_c, 0, 44, 61
1, 595397, Note_on_c, 0, 68, 83
1, 595397, Control_c, 0, 64, 127
1, 595397, Control_c, 1, 64, 127
1, 595428, Note_off_c, 0, 56, 64
1, 595478, Note_on_c, 0, 80, 96
1, 595481, Note_off_c, 0, 68, 65
1, 595538, Note_off_c, 0, 80, 65
1, 595762, Poly_aftertouch_c, 0, 92, 127
1, 595791, Control_c, 0, 64, 52
1, 595791, Control_c, 1, 64, 52
1, 595797, Note_on_c, 0, 80, 101
1, 595800, Note_on_c, 0, 44, 101
1, 595805, Note_on_c, 0, 87, 96
1, 595809, Note_on_c, 0, 32, 92
1, 595810, Note_off_c, 0, 32, 127
1, 595810, Control_c, 0, 64, 0
1, 595810, Control_c, 1, 64, 0
1, 595829, Note_on_c, 0, 90, 71
1, 595858, Note_off_c, 0, 90, 51
1, 595862, Poly_aftertouch_c, 0, 32, 127
1, 595923, Control_c, 0, 64, 38
1, 595923, Control_c, 1, 64, 38
1, 595942, Control_c, 1, 64, 127
1, 595942, Control_c, 0, 64, 127
1, 596039, Poly_aftertouch_c, 0, 32, 0
1, 596041, Note_on_c, 0, 90, 86
1, 596043, Note_off_c, 0, 87, 63
1, 596064, Note_off_c, 0, 80, 61
1, 596082, Note_off_c, 0, 44, 59
1, 596125, Poly_aftertouch_c, 0, 92, 0
1, 596140, Note_on_c, 0, 88, 75
1, 596212, Note_on_c, 0, 87, 78
1, 596241, Note_off_c, 0, 90, 57
1, 596248, Note_off_c, 0, 88, 65
1, 596304, Note_on_c, 0, 85, 87
1, 596308, Note_on_c, 0, 44, 85
1, 596332, Note_off_c, 0, 87, 64
1, 596335, Control_c, 0, 64, 82
1, 596335, Control_c, 1, 64, 82
1, 596353, Control_c, 1, 64, 43
1, 596353, Control_c, 0, 64, 43
1, 596382, Note_off_c, 0, 44, 63
1, 596384, Note_on_c, 0, 88, 80
1, 596390, Note_on_c, 0, 56, 86
1, 596390, Control_c, 0, 64, 68
1, 596390, Control_c, 1, 64, 68
1, 596410, Control_c, 1, 64, 127
1, 596410, Control_c, 0, 64, 127
1, 596421, Note_off_c, 0, 85, 64
1, 596434, Note_off_c, 0, 56, 62
1, 596441, Note_on_c, 0, 87, 72
1, 596458, Poly_aftertouch_c, 0, 43, 0
1, 596486, Note_off_c, 0, 88, 65
1, 596521, Note_on_c, 0, 85, 87
1, 596561, Note_off_c, 0, 87, 65
1, 596584, Note_on_c, 0, 71, 88
1, 596590, Note_on_c, 0, 83, 90
1, 596595, Note_on_c, 0, 92, 99
1, 596628, Note_off_c, 0, 85, 67
1, 596659, Note_off_c, 0, 83, 65
1, 596663, Note_off_c, 0, 71, 61
1, 596668, Note_off_c, 0, 92, 65
1, 596690, Note_on_c, 0, 75, 85
1, 596766, Note_on_c, 0, 73, 80
1, 596771, Note_off_c, 0, 75, 65
1, 596813, Note_on_c, 0, 71, 77
1, 596829, Note_off_c, 0, 73, 68
1, 596856, Note_off_c, 0, 71, 66
1, 596926, Note_on_c, 0, 69, 85
1, 597008, Note_on_c, 0, 73, 80
1, 597010, Note_off_c, 0, 69, 50
1, 597063, Note_on_c, 0, 32, 87
1, 597065, Control_c, 0, 64, 107
1, 597065, Control_c, 1, 64, 107
1, 597084, Control_c, 1, 64, 48
1, 597084, Control_c, 0, 64, 48
1, 597101, Control_c, 0, 64, 0
1, 597101, Control_c, 1, 64, 0
1, 597105, Note_on_c, 0, 71, 71
1, 597130, Note_off_c, 0, 73, 65
1, 597134, Note_on_c, 0, 72, 32
1, 597141, Note_off_c, 0, 32, 63
1, 597146, Note_on_c, 0, 44, 85
1, 597159, Control_c, 0, 64, 48
1, 597159, Control_c, 1, 64, 48
1, 597168, Note_on_c, 0, 69, 85
1, 597177, Control_c, 0, 64, 127
1, 597177, Control_c, 1, 64, 127
1, 597180, Note_off_c, 0, 71, 61
1, 597181, Note_off_c, 0, 72, 34
1, 597188, Note_off_c, 0, 44, 63
1, 597219, Note_off_c, 0, 69, 65
1, 597270, Control_c, 0, 64, 103
1, 597270, Control_c, 1, 64, 103
1, 597290, Control_c, 1, 64, 55
1, 597290, Control_c, 0, 64, 55
1, 597300, Note_on_c, 0, 68, 95
1, 597303, Note_on_c, 0, 80, 93
1, 597309, Control_c, 0, 64, 27
1, 597309, Control_c, 1, 64, 27
1, 597314, Note_on_c, 0, 56, 89
1, 597327, Control_c, 0, 64, 41
1, 597327, Control_c, 1, 64, 41
1, 597345, Control_c, 1, 64, 79
1, 597345, Control_c, 0, 64, 79
1, 597365, Control_c, 0, 64, 127
1, 597365, Control_c, 1, 64, 127
1, 597387, Note_off_c, 0, 56, 61
1, 597397, Note_off_c, 0, 80, 63
1, 597412, Note_on_c, 0, 59, 81
1, 597429, Poly_aftertouch_c, 0, 78, 0
1, 597453, Note_off_c, 0, 68, 60
1, 597511, Note_on_c, 0, 57, 81
1, 597534, Note_off_c, 0, 59, 56
1, 597551, Note_on_c, 0, 56, 76
1, 597573, Note_off_c, 0, 57, 64
1, 597591, Note_off_c, 0, 56, 65
1, 597660, Note_on_c, 0, 54, 87
1, 597751, Note_on_c, 0, 57, 75
1, 597752, Note_off_c, 0, 54, 63
1, 597782, Note_on_c, 0, 32, 80
1, 597849, Note_on_c, 0, 56, 80
1, 597870, Note_off_c, 0, 57, 62
1, 597885, Note_off_c, 0, 32, 61
1, 597902, Note_on_c, 0, 44, 74
1, 597919, Note_on_c, 0, 54, 83
1, 597934, Note_off_c, 0, 56, 61
1, 597934, Poly_aftertouch_c, 0, 34, 0
1, 597944, Control_c, 0, 64, 87
1, 597944, Control_c, 1, 64, 87
1, 597964, Control_c, 1, 64, 30
1, 597964, Control_c, 0, 64, 30
1, 597984, Control_c, 0, 64, 0
1, 597984, Control_c, 1, 64, 0
1, 597996, Note_on_c, 0, 52, 85
1, 598003, Note_on_c, 0, 40, 81
1, 598005, Note_on_c, 0, 56, 81
1, 598017, Note_off_c, 0, 44, 52
1, 598040, Note_off_c, 0, 54, 63
1, 598057, Control_c, 0, 64, 52
1, 598057, Control_c, 1, 64, 52
1, 598076, Control_c, 1, 64, 127
1, 598076, Control_c, 0, 64, 127
1, 598127, Note_off_c, 0, 40, 61
1, 598134, Note_on_c, 0, 44, 83
1, 598189, Note_off_c, 0, 52, 57
1, 598189, Poly_aftertouch_c, 0, 52, 0
1, 598227, Note_on_c, 0, 42, 74
1, 598255, Note_off_c, 0, 44, 47
1, 598263, Note_off_c, 0, 56, 62
1, 598285, Note_on_c, 0, 40, 75
1, 598338, Note_off_c, 0, 42, 61
1, 598357, Control_c, 0, 64, 80
1, 598357, Control_c, 1, 64, 80
1, 598374, Control_c, 1, 64, 23
1, 598374, Control_c, 0, 64, 23
1, 598378, Note_on_c, 0, 39, 73
1, 598394, Control_c, 0, 64, 0
1, 598394, Control_c, 1, 64, 0
1, 598414, Note_off_c, 0, 40, 62
1, 598451, Control_c, 0, 64, 47
1, 598451, Control_c, 1, 64, 47
1, 598469, Control_c, 1, 64, 108
1, 598469, Control_c, 0, 64, 108
1, 598475, Note_off_c, 0, 39, 63
1, 598476, Note_on_c, 0, 42, 83
1, 598487, Control_c, 0, 64, 127
1, 598487, Control_c, 1, 64, 127
1, 598531, Note_on_c, 0, 68, 74
1, 598564, Note_on_c, 0, 40, 80
1, 598577, Note_off_c, 0, 42, 61
1, 598600, Note_on_c, 0, 80, 83
1, 598626, Note_off_c, 0, 68, 63
1, 598632, Note_on_c, 0, 39, 81
1, 598677, Note_off_c, 0, 40, 55
1, 598691, Note_off_c, 0, 80, 64
1, 598694, Control_c, 0, 64, 121
1, 598694, Control_c, 1, 64, 121
1, 598712, Control_c, 1, 64, 50
1, 598712, Control_c, 0, 64, 50
1, 598727, Note_off_c, 0, 39, 63
1, 598729, Control_c, 0, 64, 0
1, 598729, Control_c, 1, 64, 0
1, 598758, Note_on_c, 0, 49, 97
1, 598760, Note_on_c, 0, 37, 89
1, 598778, Note_on_c, 0, 92, 102
1, 598782, Note_on_c, 0, 80, 97
1, 598795, Note_on_c, 0, 87, 75
1, 598824, Control_c, 0, 64, 63
1, 598824, Control_c, 1, 64, 63
1, 598844, Control_c, 1, 64, 127
1, 598844, Control_c, 0, 64, 127
1, 598948, Note_on_c, 0, 90, 86
1, 598960, Note_off_c, 0, 37, 64
1, 598967, Note_off_c, 0, 87, 63
1, 598971, Note_off_c, 0, 80, 62
1, 598992, Note_off_c, 0, 92, 64
1, 599015, Note_off_c, 0, 49, 57
1, 599045, Note_on_c, 0, 88, 74
1, 599088, Note_off_c, 0, 90, 61
1, 599110, Note_on_c, 0, 87, 82
1, 599136, Note_off_c, 0, 88, 65
1, 599198, Note_on_c, 0, 85, 83
1, 599218, Note_off_c, 0, 87, 63
1, 599222, Note_on_c, 0, 49, 86
1, 599271, Note_on_c, 0, 88, 78
1, 599301, Note_off_c, 0, 85, 64
1, 599315, Note_off_c, 0, 49, 63
1, 599317, Note_on_c, 0, 61, 86
1, 599335, Note_on_c, 0, 87, 83
1, 599366, Note_off_c, 0, 61, 60
1, 599375, Note_off_c, 0, 88, 65
1, 599404, Control_c, 0, 64, 86
1, 599404, Control_c, 1, 64, 86
1, 599415, Note_on_c, 0, 85, 84
1, 599423, Control_c, 0, 64, 43
1, 599423, Control_c, 1, 64, 43
1, 599437, Note_off_c, 0, 87, 65
1, 599442, Control_c, 0, 64, 31
1, 599442, Control_c, 1, 64, 31
1, 599462, Control_c, 1, 64, 55
1, 599462, Control_c, 0, 64, 55
1, 599473, Note_on_c, 0, 71, 89
1, 599476, Note_on_c, 0, 83, 87
1, 599480, Control_c, 0, 64, 110
1, 599480, Control_c, 1, 64, 110
1, 599481, Note_on_c, 0, 92, 96
1, 599498, Control_c, 0, 64, 127
1, 599498, Control_c, 1, 64, 127
1, 599506, Note_on_c, 0, 93, 75
1, 599517, Note_off_c, 0, 85, 66
1, 599535, Note_off_c, 0, 93, 69
1, 599559, Note_off_c, 0, 83, 63
1, 599570, Note_off_c, 0, 92, 65
1, 599577, Note_off_c, 0, 71, 58
1, 599592, Note_on_c, 0, 75, 86
1, 599670, Note_on_c, 0, 73, 82
1, 599673, Note_off_c, 0, 75, 63
1, 599720, Note_on_c, 0, 71, 73
1, 599740, Note_off_c, 0, 73, 68
1, 599772, Note_off_c, 0, 71, 67
1, 599827, Note_on_c, 0, 69, 82
1, 599896, Note_off_c, 0, 69, 59
1, 599901, Note_on_c, 0, 73, 80
1, 599957, Note_on_c, 0, 37, 83
1, 599999, Note_on_c, 0, 71, 76
1, 600014, Note_off_c, 0, 73, 63
1, 600040, Note_off_c, 0, 37, 63
1, 600046, Note_on_c, 0, 49, 82
1, 600053, Note_on_c, 0, 69, 82
1, 600059, Note_off_c, 0, 71, 64
1, 600082, Note_off_c, 0, 49, 64
1, 600102, Note_off_c, 0, 69, 63
1, 600117, Control_c, 0, 64, 73
1, 600117, Control_c, 1, 64, 73
1, 600134, Control_c, 1, 64, 24
1, 600134, Control_c, 0, 64, 24
1, 600154, Control_c, 0, 64, 0
1, 600154, Control_c, 1, 64, 0
1, 600180, Note_on_c, 0, 80, 91
1, 600181, Note_on_c, 0, 68, 90
1, 600187, Note_on_c, 0, 56, 91
1, 600191, Control_c, 0, 64, 18
1, 600191, Control_c, 1, 64, 18
1, 600209, Control_c, 1, 64, 59
1, 600209, Control_c, 0, 64, 59
1, 600229, Control_c, 0, 64, 127
1, 600229, Control_c, 1, 64, 127
1, 600232, Note_on_c, 0, 78, 27
1, 600255, Note_off_c, 0, 80, 67
1, 600266, Note_off_c, 0, 56, 60
1, 600295, Note_on_c, 0, 59, 83
1, 600349, Note_off_c, 0, 68, 62
1, 600350, Note_off_c, 0, 78, 41
1, 600395, Note_on_c, 0, 57, 82
1, 600424, Note_off_c, 0, 59, 60
1, 600430, Note_on_c, 0, 56, 80
1, 600457, Note_off_c, 0, 57, 63
1, 600472, Note_off_c, 0, 56, 66
1, 600552, Note_on_c, 0, 54, 87
1, 600632, Note_on_c, 0, 57, 74
1, 600636, Note_off_c, 0, 54, 63
1, 600661, Note_on_c, 0, 25, 85
1, 600729, Note_on_c, 0, 56, 78
1, 600733, Note_off_c, 0, 25, 61
1, 600746, Note_on_c, 0, 37, 80
1, 600754, Note_off_c, 0, 57, 63
1, 600790, Note_on_c, 0, 54, 82
1, 600804, Note_off_c, 0, 37, 62
1, 600806, Note_off_c, 0, 56, 60
1, 600847, Control_c, 0, 64, 71
1, 600847, Control_c, 1, 64, 71
1, 600865, Control_c, 1, 64, 18
1, 600865, Control_c, 0, 64, 18
1, 600883, Control_c, 0, 64, 0
1, 600883, Control_c, 1, 64, 0
1, 600893, Note_on_c, 0, 52, 86
1, 600894, Note_on_c, 0, 40, 86
1, 600895, Note_on_c, 0, 56, 90
1, 600924, Note_off_c, 0, 54, 64
1, 600939, Control_c, 0, 64, 29
1, 600939, Control_c, 1, 64, 29
1, 600958, Control_c, 1, 64, 70
1, 600958, Control_c, 0, 64, 70
1, 600978, Control_c, 0, 64, 127
1, 600978, Control_c, 1, 64, 127
1, 601001, Note_on_c, 0, 44, 85
1, 601006, Note_off_c, 0, 40, 60
1, 601086, Note_on_c, 0, 42, 77
1, 601089, Note_off_c, 0, 52, 58
1, 601089, Poly_aftertouch_c, 0, 52, 0
1, 601093, Note_off_c, 0, 44, 62
1, 601129, Note_off_c, 0, 56, 61
1, 601166, Note_off_c, 0, 42, 61
1, 601178, Note_on_c, 0, 40, 81
1, 601275, Control_c, 0, 64, 99
1, 601275, Control_c, 1, 64, 99
1, 601277, Note_on_c, 0, 39, 89
1, 601296, Control_c, 0, 64, 54
1, 601296, Control_c, 1, 64, 54
1, 601300, Note_off_c, 0, 40, 61
1, 601333, Control_c, 0, 64, 0
1, 601333, Control_c, 1, 64, 0
1, 601370, Control_c, 1, 64, 37
1, 601370, Control_c, 0, 64, 37
1, 601377, Note_off_c, 0, 39, 61
1, 601386, Note_on_c, 0, 40, 80
1, 601389, Control_c, 0, 64, 81
1, 601389, Control_c, 1, 64, 81
1, 601407, Control_c, 1, 64, 127
1, 601407, Control_c, 0, 64, 127
1, 601425, Note_on_c, 0, 57, 82
1, 601470, Note_on_c, 0, 39, 80
1, 601499, Note_off_c, 0, 40, 59
1, 601527, Note_on_c, 0, 69, 82
1, 601532, Note_on_c, 0, 37, 86
1, 601533, Note_off_c, 0, 57, 62
1, 601558, Note_off_c, 0, 39, 63
1, 601587, Note_off_c, 0, 69, 63
1, 601632, Control_c, 0, 64, 82
1, 601632, Control_c, 1, 64, 82
1, 601643, Note_on_c, 0, 33, 95
1, 601648, Note_off_c, 0, 37, 56
1, 601651, Control_c, 0, 64, 12
1, 601651, Control_c, 1, 64, 12
1, 601670, Control_c, 1, 64, 0
1, 601670, Control_c, 0, 64, 0
1, 601688, Note_on_c, 0, 69, 99
1, 601689, Note_on_c, 0, 81, 97
1, 601691, Note_on_c, 0, 73, 94
1, 601764, Control_c, 0, 64, 37
1, 601764, Control_c, 1, 64, 37
1, 601782, Control_c, 1, 64, 90
1, 601782, Control_c, 0, 64, 90
1, 601801, Control_c, 0, 64, 127
1, 601801, Control_c, 1, 64, 127
1, 601841, Note_off_c, 0, 33, 62
1, 601871, Note_off_c, 0, 69, 52
1, 601885, Note_on_c, 0, 76, 80
1, 601886, Note_off_c, 0, 73, 33
1, 601887, Poly_aftertouch_c, 0, 73, 0
1, 601896, Note_off_c, 0, 81, 56
1, 601965, Note_on_c, 0, 74, 83
1, 602006, Note_off_c, 0, 76, 64
1, 602054, Note_off_c, 0, 74, 62
1, 602061, Note_on_c, 0, 73, 88
1, 602102, Note_off_c, 0, 73, 64
1, 602145, Note_on_c, 0, 74, 86
1, 602212, Note_off_c, 0, 74, 62
1, 602234, Note_on_c, 0, 77, 82
1, 602335, Note_on_c, 0, 86, 89
1, 602344, Control_c, 0, 64, 72
1, 602344, Control_c, 1, 64, 72
1, 602346, Note_on_c, 0, 76, 84
1, 602357, Note_off_c, 0, 77, 61
1, 602362, Control_c, 0, 64, 29
1, 602362, Control_c, 1, 64, 29
1, 602381, Control_c, 1, 64, 0
1, 602381, Control_c, 0, 64, 0
1, 602389, Note_off_c, 0, 86, 65
1, 602425, Note_on_c, 0, 86, 71
1, 602445, Note_on_c, 0, 74, 84
1, 602450, Note_off_c, 0, 76, 60
1, 602492, Note_on_c, 0, 81, 94
1, 602500, Note_on_c, 0, 93, 88
1, 602508, Note_on_c, 0, 95, 75
1, 602509, Note_off_c, 0, 95, 127
1, 602511, Control_c, 0, 64, 23
1, 602511, Control_c, 1, 64, 23
1, 602516, Note_off_c, 0, 86, 61
1, 602532, Control_c, 0, 64, 127
1, 602532, Control_c, 1, 64, 127
1, 602533, Note_on_c, 0, 76, 80
1, 602543, Note_off_c, 0, 93, 67
1, 602550, Note_off_c, 0, 74, 63
1, 602551, Note_off_c, 0, 81, 62
1, 602628, Note_off_c, 0, 76, 62
1, 602635, Note_on_c, 0, 79, 88
1, 602727, Note_on_c, 0, 77, 80
1, 602738, Note_off_c, 0, 79, 61
1, 602789, Note_on_c, 0, 76, 83
1, 602804, Note_off_c, 0, 77, 64
1, 602838, Note_off_c, 0, 76, 65
1, 602848, Note_on_c, 0, 79, 87
1, 602848, Control_c, 0, 67, 8
1, 602848, Control_c, 1, 67, 8
1, 602868, Control_c, 1, 67, 12
1, 602868, Control_c, 0, 67, 12
1, 602886, Control_c, 0, 67, 17
1, 602886, Control_c, 1, 67, 17
1, 602906, Control_c, 1, 67, 21
1, 602906, Control_c, 0, 67, 21
1, 602930, Note_off_c, 0, 79, 50
1, 602938, Note_on_c, 0, 82, 87
1, 602943, Control_c, 0, 67, 26
1, 602943, Control_c, 1, 67, 26
1, 602980, Control_c, 1, 64, 89
1, 602980, Control_c, 0, 64, 89
1, 603001, Control_c, 0, 64, 43
1, 603001, Control_c, 1, 64, 43
1, 603017, Control_c, 1, 64, 0
1, 603017, Control_c, 0, 64, 0
1, 603024, Note_on_c, 0, 45, 76
1, 603031, Note_on_c, 0, 81, 76
1, 603035, Note_off_c, 0, 82, 66
1, 603060, Note_off_c, 0, 45, 66
1, 603103, Note_on_c, 0, 79, 80
1, 603109, Note_off_c, 0, 81, 64
1, 603117, Note_on_c, 0, 45, 83
1, 603166, Control_c, 0, 64, 10
1, 603166, Control_c, 1, 64, 10
1, 603178, Note_off_c, 0, 45, 60
1, 603185, Control_c, 0, 64, 101
1, 603185, Control_c, 1, 64, 101
1, 603189, Note_on_c, 0, 38, 91
1, 603191, Note_off_c, 0, 79, 64
1, 603193, Note_on_c, 0, 77, 87
1, 603194, Note_on_c, 0, 50, 78
1, 603203, Control_c, 0, 64, 127
1, 603203, Control_c, 1, 64, 127
1, 603204, Control_c, 1, 67, 31
1, 603204, Control_c, 0, 67, 31
1, 603221, Note_off_c, 0, 38, 70
1, 603221, Control_c, 0, 67, 37
1, 603221, Control_c, 1, 67, 37
1, 603226, Note_off_c, 0, 50, 66
1, 603231, Note_on_c, 0, 84, 51
1, 603242, Control_c, 0, 67, 43
1, 603242, Control_c, 1, 67, 43
1, 603261, Control_c, 1, 67, 49
1, 603261, Control_c, 0, 67, 49
1, 603263, Note_off_c, 0, 84, 55
1, 603279, Control_c, 0, 67, 56
1, 603279, Control_c, 1, 67, 56
1, 603299, Control_c, 1, 67, 66
1, 603299, Control_c, 0, 67, 66
1, 603302, Note_off_c, 0, 77, 43
1, 603304, Note_on_c, 0, 81, 81
1, 603316, Control_c, 0, 67, 81
1, 603316, Control_c, 1, 67, 81
1, 603336, Control_c, 1, 67, 99
1, 603336, Control_c, 0, 67, 99
1, 603355, Control_c, 0, 64, 76
1, 603355, Control_c, 1, 64, 76
1, 603357, Control_c, 1, 67, 116
1, 603357, Control_c, 0, 67, 116
1, 603373, Control_c, 0, 64, 32
1, 603373, Control_c, 1, 64, 32
1, 603374, Control_c, 1, 67, 127
1, 603374, Control_c, 0, 67, 127
1, 603392, Control_c, 0, 64, 0
1, 603392, Control_c, 1, 64, 0
1, 603405, Note_on_c, 0, 79, 76
1, 603408, Note_off_c, 0, 81, 62
1, 603413, Note_on_c, 0, 62, 75
1, 603441, Note_off_c, 0, 62, 69
1, 603472, Note_off_c, 0, 79, 62
1, 603484, Note_on_c, 0, 62, 82
1, 603484, Note_on_c, 0, 77, 78
1, 603508, Note_off_c, 0, 62, 67
1, 603588, Note_on_c, 0, 70, 85
1, 603588, Note_on_c, 0, 76, 81
1, 603604, Note_off_c, 0, 77, 57
1, 603628, Note_off_c, 0, 70, 63
1, 603628, Poly_aftertouch_c, 0, 70, 0
1, 603659, Note_off_c, 0, 76, 56
1, 603677, Note_on_c, 0, 79, 78
1, 603776, Note_on_c, 0, 77, 76
1, 603778, Note_off_c, 0, 79, 62
1, 603791, Note_on_c, 0, 50, 69
1, 603831, Note_off_c, 0, 50, 66
1, 603857, Note_off_c, 0, 77, 60
1, 603864, Note_on_c, 0, 76, 82
1, 603876, Note_on_c, 0, 50, 73
1, 603914, Note_off_c, 0, 50, 69
1, 603939, Note_on_c, 0, 57, 80
1, 603940, Note_off_c, 0, 76, 63
1, 603948, Note_on_c, 0, 74, 81
1, 603983, Note_off_c, 0, 57, 65
1, 604046, Note_off_c, 0, 74, 57
1, 604046, Note_on_c, 0, 77, 76
1, 604130, Note_on_c, 0, 38, 73
1, 604139, Note_on_c, 0, 76, 71
1, 604144, Note_off_c, 0, 77, 61
1, 604179, Note_off_c, 0, 38, 64
1, 604196, Control_c, 0, 67, 122
1, 604196, Control_c, 1, 67, 122
1, 604205, Note_off_c, 0, 76, 62
1, 604211, Note_on_c, 0, 74, 72
1, 604215, Note_on_c, 0, 38, 51
1, 604215, Control_c, 0, 67, 116
1, 604215, Control_c, 1, 67, 116
1, 604234, Control_c, 1, 67, 107
1, 604234, Control_c, 0, 67, 107
1, 604250, Note_off_c, 0, 38, 60
1, 604252, Control_c, 0, 67, 93
1, 604252, Control_c, 1, 67, 93
1, 604272, Control_c, 1, 67, 77
1, 604272, Control_c, 0, 67, 77
1, 604286, Note_on_c, 0, 46, 80
1, 604289, Control_c, 0, 67, 62
1, 604289, Control_c, 1, 67, 62
1, 604309, Control_c, 1, 67, 51
1, 604309, Control_c, 0, 67, 51
1, 604324, Note_on_c, 0, 72, 78
1, 604326, Control_c, 0, 67, 46
1, 604326, Control_c, 1, 67, 46
1, 604331, Note_off_c, 0, 74, 56
1, 604374, Note_off_c, 0, 46, 42
1, 604406, Note_on_c, 0, 75, 77
1, 604407, Note_off_c, 0, 72, 58
1, 604411, Note_on_c, 0, 44, 64
1, 604453, Note_on_c, 0, 43, 25
1, 604461, Note_off_c, 0, 44, 52
1, 604482, Note_on_c, 0, 74, 71
1, 604495, Control_c, 0, 67, 42
1, 604495, Control_c, 1, 67, 42
1, 604503, Note_off_c, 0, 75, 68
1, 604533, Note_off_c, 0, 43, 62
1, 604533, Control_c, 0, 67, 36
1, 604533, Control_c, 1, 67, 36
1, 604538, Poly_aftertouch_c, 0, 44, 127
1, 604551, Control_c, 0, 67, 32
1, 604551, Control_c, 1, 67, 32
1, 604558, Poly_aftertouch_c, 0, 44, 0
1, 604561, Note_on_c, 0, 72, 81
1, 604571, Control_c, 0, 67, 25
1, 604571, Control_c, 1, 67, 25
1, 604578, Note_off_c, 0, 74, 61
1, 604589, Control_c, 0, 67, 17
1, 604589, Control_c, 1, 67, 17
1, 604610, Control_c, 1, 67, 10
1, 604610, Control_c, 0, 67, 10
1, 604636, Note_on_c, 0, 71, 84
1, 604643, Note_off_c, 0, 72, 62
1, 604645, Control_c, 0, 64, 51
1, 604645, Control_c, 1, 64, 51
1, 604646, Control_c, 1, 67, 0
1, 604646, Control_c, 0, 67, 0
1, 604651, Note_on_c, 0, 31, 92
1, 604656, Note_on_c, 0, 43, 64
1, 604665, Control_c, 0, 64, 127
1, 604665, Control_c, 1, 64, 127
1, 604681, Note_off_c, 0, 31, 68
1, 604683, Note_on_c, 0, 33, 53
1, 604691, Note_off_c, 0, 43, 64
1, 604724, Note_off_c, 0, 33, 50
1, 604730, Note_on_c, 0, 77, 9
1, 604734, Note_off_c, 0, 71, 46
1, 604737, Note_on_c, 0, 74, 83
1, 604808, Note_off_c, 0, 77, 28
1, 604834, Note_off_c, 0, 74, 63
1, 604841, Note_on_c, 0, 72, 81
1, 604872, Poly_aftertouch_c, 0, 31, 0
1, 604905, Note_on_c, 0, 71, 82
1, 604906, Note_off_c, 0, 72, 63
1, 604966, Note_off_c, 0, 71, 64
1, 605013, Note_on_c, 0, 72, 89
1, 605058, Control_c, 0, 64, 84
1, 605058, Control_c, 1, 64, 84
1, 605077, Control_c, 1, 64, 45
1, 605077, Control_c, 0, 64, 45
1, 605095, Control_c, 0, 64, 0
1, 605095, Control_c, 1, 64, 0
1, 605107, Note_on_c, 0, 75, 72
1, 605108, Note_off_c, 0, 72, 59
1, 605157, Note_on_c, 0, 74, 43
1, 605175, Note_off_c, 0, 75, 67
1, 605209, Note_off_c, 0, 74, 64
1, 605209, Note_on_c, 0, 74, 33
1, 605210, Note_on_c, 0, 84, 81
1, 605258, Note_off_c, 0, 74, 59
1, 605267, Note_off_c, 0, 84, 63
1, 605294, Note_on_c, 0, 84, 72
1, 605311, Note_on_c, 0, 72, 78
1, 605377, Note_on_c, 0, 79, 93
1, 605378, Note_on_c, 0, 91, 94
1, 605379, Note_on_c, 0, 74, 88
1, 605385, Note_off_c, 0, 84, 64
1, 605396, Control_c, 0, 64, 20
1, 605396, Control_c, 1, 64, 20
1, 605400, Note_off_c, 0, 72, 61
1, 605414, Control_c, 0, 64, 127
1, 605414, Control_c, 1, 64, 127
1, 605421, Note_off_c, 0, 91, 62
1, 605431, Note_off_c, 0, 79, 62
1, 605454, Note_off_c, 0, 74, 63
1, 605487, Note_on_c, 0, 77, 86
1, 605585, Note_on_c, 0, 75, 81
1, 605595, Note_off_c, 0, 77, 57
1, 605613, Note_on_c, 0, 82, 28
1, 605639, Note_on_c, 0, 74, 79
1, 605661, Note_off_c, 0, 75, 62
1, 605688, Note_off_c, 0, 82, 45
1, 605695, Note_off_c, 0, 74, 67
1, 605728, Note_on_c, 0, 77, 83
1, 605796, Note_off_c, 0, 77, 59
1, 605817, Poly_aftertouch_c, 0, 79, 0
1, 605822, Note_on_c, 0, 80, 86
1, 605885, Note_on_c, 0, 43, 71
1, 605919, Note_off_c, 0, 43, 66
1, 605930, Note_off_c, 0, 80, 65
1, 605937, Control_c, 0, 64, 109
1, 605937, Control_c, 1, 64, 109
1, 605956, Control_c, 1, 64, 56
1, 605956, Control_c, 0, 64, 56
1, 605966, Poly_aftertouch_c, 0, 79, 127
1, 605974, Control_c, 0, 64, 0
1, 605974, Control_c, 1, 64, 0
1, 605979, Note_on_c, 0, 43, 81
1, 605991, Poly_aftertouch_c, 0, 79, 0
1, 605999, Note_on_c, 0, 77, 81
1, 606027, Note_off_c, 0, 43, 64
1, 606055, Note_on_c, 0, 36, 90
1, 606056, Note_on_c, 0, 48, 77
1, 606069, Control_c, 0, 64, 43
1, 606069, Control_c, 1, 64, 43
1, 606085, Note_off_c, 0, 36, 64
1, 606086, Note_off_c, 0, 48, 67
1, 606086, Control_c, 0, 64, 127
1, 606086, Control_c, 1, 64, 127
1, 606091, Note_on_c, 0, 75, 89
1, 606108, Note_off_c, 0, 77, 52
1, 606179, Poly_aftertouch_c, 0, 76, 0
1, 606184, Note_off_c, 0, 75, 64
1, 606191, Note_on_c, 0, 79, 78
1, 606255, Control_c, 0, 64, 90
1, 606255, Control_c, 1, 64, 90
1, 606275, Control_c, 1, 64, 32
1, 606275, Control_c, 0, 64, 32
1, 606289, Note_on_c, 0, 60, 80
1, 606293, Control_c, 0, 64, 0
1, 606293, Control_c, 1, 64, 0
1, 606297, Note_on_c, 0, 77, 80
1, 606304, Note_off_c, 0, 79, 62
1, 606318, Note_off_c, 0, 60, 70
1, 606318, Poly_aftertouch_c, 0, 60, 0
1, 606356, Note_on_c, 0, 60, 71
1, 606374, Note_off_c, 0, 77, 62
1, 606378, Note_on_c, 0, 75, 84
1, 606397, Note_off_c, 0, 60, 58
1, 606397, Poly_aftertouch_c, 0, 60, 0
1, 606424, Control_c, 0, 64, 107
1, 606424, Control_c, 1, 64, 107
1, 606442, Control_c, 1, 64, 127
1, 606442, Control_c, 0, 64, 127
1, 606453, Note_on_c, 0, 74, 81
1, 606455, Note_on_c, 0, 68, 88
1, 606460, Note_off_c, 0, 75, 64
1, 606495, Note_off_c, 0, 68, 61
1, 606535, Note_off_c, 0, 74, 53
1, 606554, Note_on_c, 0, 77, 78
1, 606634, Note_on_c, 0, 75, 74
1, 606656, Note_off_c, 0, 77, 60
1, 606663, Poly_aftertouch_c, 0, 81, 127
1, 606665, Note_on_c, 0, 48, 77
1, 606687, Control_c, 0, 64, 69
1, 606687, Control_c, 1, 64, 69
1, 606693, Poly_aftertouch_c, 0, 81, 0
1, 606703, Note_off_c, 0, 48, 67
1, 606705, Control_c, 0, 64, 0
1, 606705, Control_c, 1, 64, 0
1, 606717, Note_off_c, 0, 75, 61
1, 606719, Note_on_c, 0, 74, 77
1, 606744, Note_on_c, 0, 48, 80
1, 606779, Control_c, 0, 64, 30
1, 606779, Control_c, 1, 64, 30
1, 606799, Control_c, 1, 64, 86
1, 606799, Control_c, 0, 64, 86
1, 606811, Note_on_c, 0, 55, 82
1, 606812, Note_off_c, 0, 48, 61
1, 606817, Note_on_c, 0, 72, 81
1, 606818, Control_c, 0, 64, 127
1, 606818, Control_c, 1, 64, 127
1, 606833, Note_off_c, 0, 74, 58
1, 606861, Note_off_c, 0, 55, 61
1, 606861, Poly_aftertouch_c, 0, 55, 0
1, 606874, Note_off_c, 0, 72, 56
1, 606906, Note_on_c, 0, 75, 79
1, 606921, Poly_aftertouch_c, 0, 53, 127
1, 606959, Poly_aftertouch_c, 0, 53, 0
1, 607005, Note_on_c, 0, 74, 77
1, 607024, Note_off_c, 0, 75, 66
1, 607024, Note_on_c, 0, 36, 76
1, 607061, Control_c, 0, 64, 113
1, 607061, Control_c, 1, 64, 113
1, 607079, Control_c, 1, 64, 60
1, 607079, Control_c, 0, 64, 60
1, 607089, Note_on_c, 0, 72, 73
1, 607090, Note_off_c, 0, 74, 59
1, 607097, Control_c, 0, 64, 9
1, 607097, Control_c, 1, 64, 9
1, 607116, Control_c, 1, 64, 0
1, 607116, Control_c, 0, 64, 0
1, 607138, Note_off_c, 0, 36, 57
1, 607154, Control_c, 0, 64, 35
1, 607154, Control_c, 1, 64, 35
1, 607173, Control_c, 1, 64, 82
1, 607173, Control_c, 0, 64, 82
1, 607187, Note_on_c, 0, 70, 84
1, 607187, Note_on_c, 0, 44, 80
1, 607192, Control_c, 0, 64, 127
1, 607192, Control_c, 1, 64, 127
1, 607197, Note_off_c, 0, 72, 61
1, 607253, Note_off_c, 0, 44, 61
1, 607263, Note_on_c, 0, 73, 82
1, 607275, Note_off_c, 0, 70, 62
1, 607275, Poly_aftertouch_c, 0, 70, 0
1, 607296, Note_on_c, 0, 42, 85
1, 607351, Note_on_c, 0, 41, 58
1, 607359, Note_on_c, 0, 72, 80
1, 607365, Note_off_c, 0, 73, 67
1, 607368, Note_off_c, 0, 42, 58
1, 607414, Note_on_c, 0, 42, 60
1, 607440, Note_off_c, 0, 41, 61
1, 607443, Note_off_c, 0, 72, 59
1, 607445, Note_on_c, 0, 70, 87
1, 607472, Note_off_c, 0, 42, 65
1, 607472, Control_c, 0, 64, 106
1, 607472, Control_c, 1, 64, 106
1, 607491, Control_c, 1, 64, 41
1, 607491, Control_c, 0, 64, 41
1, 607509, Control_c, 0, 64, 0
1, 607509, Control_c, 1, 64, 0
1, 607525, Note_on_c, 0, 69, 85
1, 607535, Note_on_c, 0, 41, 98
1, 607539, Note_on_c, 0, 29, 93
1, 607543, Note_off_c, 0, 70, 64
1, 607543, Poly_aftertouch_c, 0, 70, 0
1, 607575, Note_off_c, 0, 29, 65
1, 607579, Note_off_c, 0, 41, 65
1, 607603, Control_c, 0, 64, 26
1, 607603, Control_c, 1, 64, 26
1, 607623, Control_c, 1, 64, 104
1, 607623, Control_c, 0, 64, 104
1, 607627, Note_on_c, 0, 72, 83
1, 607641, Control_c, 0, 64, 127
1, 607641, Control_c, 1, 64, 127
1, 607650, Note_off_c, 0, 69, 57
1, 607710, Note_on_c, 0, 70, 81
1, 607721, Note_off_c, 0, 72, 61
1, 607722, Poly_aftertouch_c, 0, 74, 0
1, 607784, Note_on_c, 0, 69, 88
1, 607792, Note_off_c, 0, 70, 65
1, 607792, Poly_aftertouch_c, 0, 70, 0
1, 607837, Note_off_c, 0, 69, 64
1, 607897, Note_on_c, 0, 72, 85
1, 607992, Note_on_c, 0, 75, 81
1, 607993, Note_off_c, 0, 72, 63
1, 608071, Note_on_c, 0, 89, 81
1, 608081, Note_on_c, 0, 73, 84
1, 608090, Control_c, 0, 64, 102
1, 608090, Control_c, 1, 64, 102
1, 608093, Note_off_c, 0, 75, 64
1, 608109, Control_c, 0, 64, 47
1, 608109, Control_c, 1, 64, 47
1, 608127, Control_c, 1, 64, 0
1, 608127, Control_c, 0, 64, 0
1, 608132, Note_off_c, 0, 89, 61
1, 608157, Note_off_c, 0, 73, 63
1, 608157, Note_on_c, 0, 89, 60
1, 608178, Note_on_c, 0, 72, 88
1, 608196, Note_on_c, 0, 88, 33
1, 608197, Note_off_c, 0, 88, 127
1, 608222, Control_c, 0, 64, 42
1, 608222, Control_c, 1, 64, 42
1, 608240, Control_c, 1, 64, 127
1, 608240, Control_c, 0, 64, 127
1, 608248, Note_on_c, 0, 82, 97
1, 608253, Note_on_c, 0, 94, 90
1, 608257, Note_on_c, 0, 70, 95
1, 608267, Note_off_c, 0, 72, 62
1, 608268, Note_off_c, 0, 89, 58
1, 608272, Note_off_c, 0, 94, 77
1, 608303, Note_off_c, 0, 70, 63
1, 608303, Poly_aftertouch_c, 0, 70, 0
1, 608304, Note_off_c, 0, 82, 67
1, 608445, Note_on_c, 0, 73, 83
1, 608518, Note_on_c, 0, 34, 87
1, 608543, Note_on_c, 0, 72, 84
1, 608582, Note_off_c, 0, 34, 58
1, 608604, Note_on_c, 0, 46, 84
1, 608624, Note_off_c, 0, 73, 36
1, 608638, Note_off_c, 0, 46, 67
1, 608641, Note_off_c, 0, 72, 59
1, 608645, Note_on_c, 0, 70, 87
1, 608670, Control_c, 0, 64, 68
1, 608670, Control_c, 1, 64, 68
1, 608702, Note_off_c, 0, 70, 65
1, 608702, Poly_aftertouch_c, 0, 70, 0
1, 608707, Control_c, 0, 64, 0
1, 608707, Control_c, 1, 64, 0
1, 608745, Control_c, 1, 64, 31
1, 608745, Note_on_c, 0, 53, 86
1, 608745, Control_c, 0, 64, 31
1, 608754, Note_on_c, 0, 69, 87
1, 608763, Control_c, 0, 64, 95
1, 608763, Control_c, 1, 64, 95
1, 608782, Control_c, 1, 64, 127
1, 608782, Control_c, 0, 64, 127
1, 608796, Note_off_c, 0, 53, 60
1, 608836, Note_on_c, 0, 55, 81
1, 608858, Note_on_c, 0, 72, 80
1, 608859, Note_off_c, 0, 69, 39
1, 608905, Note_on_c, 0, 53, 74
1, 608910, Note_off_c, 0, 55, 61
1, 608910, Poly_aftertouch_c, 0, 55, 0
1, 608940, Note_on_c, 0, 70, 81
1, 608957, Note_on_c, 0, 52, 78
1, 608966, Note_off_c, 0, 72, 60
1, 608968, Note_off_c, 0, 53, 57
1, 609012, Note_off_c, 0, 52, 60
1, 609012, Poly_aftertouch_c, 0, 52, 0
1, 609028, Note_on_c, 0, 69, 80
1, 609059, Note_off_c, 0, 70, 59
1, 609059, Poly_aftertouch_c, 0, 70, 0
1, 609101, Control_c, 0, 64, 89
1, 609101, Control_c, 1, 64, 89
1, 609109, Note_on_c, 0, 52, 98
1, 609116, Note_on_c, 0, 40, 90
1, 609120, Control_c, 0, 64, 15
1, 609120, Control_c, 1, 64, 15
1, 609140, Control_c, 1, 64, 0
1, 609140, Control_c, 0, 64, 0
1, 609156, Note_on_c, 0, 68, 85
1, 609192, Note_off_c, 0, 69, 61
1, 609232, Control_c, 0, 64, 73
1, 609232, Control_c, 1, 64, 73
1, 609243, Note_on_c, 0, 71, 77
1, 609245, Note_off_c, 0, 40, 63
1, 609250, Control_c, 0, 64, 127
1, 609250, Control_c, 1, 64, 127
1, 609259, Note_off_c, 0, 68, 63
1, 609293, Note_off_c, 0, 52, 62
1, 609293, Poly_aftertouch_c, 0, 52, 0
1, 609334, Note_on_c, 0, 69, 89
1, 609377, Note_off_c, 0, 71, 64
1, 609400, Note_on_c, 0, 68, 82
1, 609421, Note_off_c, 0, 69, 60
1, 609451, Note_off_c, 0, 68, 67
1, 609531, Note_on_c, 0, 71, 91
1, 609586, Note_off_c, 0, 71, 63
1, 609631, Note_on_c, 0, 74, 82
1, 609686, Note_on_c, 0, 88, 85
1, 609721, Note_on_c, 0, 72, 86
1, 609724, Note_off_c, 0, 88, 56
1, 609737, Note_off_c, 0, 74, 60
1, 609737, Control_c, 0, 64, 80
1, 609737, Control_c, 1, 64, 80
1, 609756, Control_c, 1, 64, 24
1, 609756, Control_c, 0, 64, 24
1, 609763, Note_on_c, 0, 88, 60
1, 609775, Control_c, 0, 64, 0
1, 609775, Control_c, 1, 64, 0
1, 609778, Note_on_c, 0, 71, 79
1, 609785, Note_on_c, 0, 86, 53
1, 609797, Note_off_c, 0, 72, 58
1, 609810, Note_off_c, 0, 86, 38
1, 609812, Control_c, 0, 64, 8
1, 609812, Control_c, 1, 64, 8
1, 609831, Control_c, 1, 64, 61
1, 609831, Control_c, 0, 64, 61
1, 609835, Note_on_c, 0, 93, 94
1, 609836, Note_on_c, 0, 81, 97
1, 609848, Note_on_c, 0, 69, 94
1, 609850, Control_c, 0, 64, 127
1, 609850, Control_c, 1, 64, 127
1, 609856, Note_off_c, 0, 88, 66
1, 609878, Note_off_c, 0, 93, 63
1, 609886, Note_off_c, 0, 71, 54
1, 609904, Note_off_c, 0, 69, 65
1, 609904, Note_off_c, 0, 81, 63
1, 610042, Note_on_c, 0, 72, 84
1, 610103, Note_on_c, 0, 35, 64
1, 610117, Note_on_c, 0, 33, 58
1, 610118, Note_off_c, 0, 72, 55
1, 610130, Note_on_c, 0, 71, 87
1, 610151, Note_off_c, 0, 35, 62
1, 610159, Note_off_c, 0, 33, 53
1, 610179, Note_on_c, 0, 47, 78
1, 610203, Note_off_c, 0, 71, 60
1, 610205, Note_on_c, 0, 69, 80
1, 610223, Note_off_c, 0, 47, 64
1, 610299, Control_c, 0, 64, 67
1, 610299, Control_c, 1, 64, 67
1, 610309, Note_on_c, 0, 67, 87
1, 610314, Note_on_c, 0, 52, 67
1, 610314, Note_on_c, 0, 53, 62
1, 610317, Control_c, 0, 64, 43
1, 610317, Control_c, 1, 64, 43
1, 610336, Control_c, 1, 64, 49
1, 610336, Control_c, 0, 64, 49
1, 610340, Note_off_c, 0, 69, 54
1, 610346, Note_off_c, 0, 53, 63
1, 610350, Note_off_c, 0, 52, 63
1, 610350, Poly_aftertouch_c, 0, 52, 0
1, 610355, Control_c, 0, 64, 69
1, 610355, Control_c, 1, 64, 69
1, 610374, Control_c, 1, 64, 112
1, 610374, Control_c, 0, 64, 112
1, 610392, Control_c, 0, 64, 127
1, 610392, Control_c, 1, 64, 127
1, 610405, Note_on_c, 0, 53, 76
1, 610405, Note_on_c, 0, 70, 84
1, 610408, Note_off_c, 0, 67, 60
1, 610477, Note_off_c, 0, 53, 58
1, 610480, Note_on_c, 0, 52, 63
1, 610505, Note_off_c, 0, 70, 65
1, 610505, Poly_aftertouch_c, 0, 70, 0
1, 610507, Note_on_c, 0, 69, 78
1, 610517, Note_on_c, 0, 50, 78
1, 610530, Note_off_c, 0, 52, 59
1, 610530, Poly_aftertouch_c, 0, 52, 0
1, 610562, Note_off_c, 0, 50, 61
1, 610582, Note_on_c, 0, 67, 88
1, 610592, Note_off_c, 0, 69, 57
1, 610617, Control_c, 0, 64, 67
1, 610617, Control_c, 1, 64, 67
1, 610635, Control_c, 1, 64, 0
1, 610635, Control_c, 0, 64, 0
1, 610647, Note_on_c, 0, 65, 79
1, 610660, Note_on_c, 0, 50, 100
1, 610663, Note_on_c, 0, 38, 92
1, 610665, Note_off_c, 0, 67, 63
1, 610731, Control_c, 0, 64, 81
1, 610731, Control_c, 1, 64, 81
1, 610748, Control_c, 1, 64, 127
1, 610748, Control_c, 0, 64, 127
1, 610755, Note_on_c, 0, 69, 86
1, 610761, Note_off_c, 0, 38, 63
1, 610778, Note_off_c, 0, 65, 57
1, 610805, Note_off_c, 0, 50, 63
1, 610846, Note_on_c, 0, 67, 88
1, 610854, Note_off_c, 0, 69, 63
1, 610911, Note_on_c, 0, 65, 82
1, 610921, Note_off_c, 0, 67, 63
1, 610973, Note_off_c, 0, 65, 66
1, 611051, Note_on_c, 0, 77, 78
1, 611056, Note_on_c, 0, 76, 80
1, 611093, Note_on_c, 0, 73, 62
1, 611130, Note_on_c, 0, 74, 81
1, 611146, Note_on_c, 0, 68, 51
1, 611168, Note_on_c, 0, 89, 90
1, 611171, Note_off_c, 0, 76, 63
1, 611176, Note_off_c, 0, 77, 62
1, 611186, Note_off_c, 0, 73, 35
1, 611191, Note_off_c, 0, 68, 65
1, 611194, Note_on_c, 0, 69, 78
1, 611231, Note_on_c, 0, 65, 77
1, 611232, Note_off_c, 0, 74, 62
1, 611243, Note_off_c, 0, 89, 64
1, 611256, Note_on_c, 0, 77, 81
1, 611264, Note_off_c, 0, 69, 61
1, 611283, Note_off_c, 0, 65, 65
1, 611305, Note_off_c, 0, 77, 61
1, 611404, Control_c, 0, 64, 118
1, 611404, Control_c, 1, 64, 118
1, 611422, Control_c, 1, 64, 54
1, 611422, Control_c, 0, 64, 54
1, 611428, Note_on_c, 0, 52, 88
1, 611436, Note_on_c, 0, 40, 87
1, 611440, Control_c, 0, 64, 0
1, 611440, Control_c, 1, 64, 0
1, 611447, Note_on_c, 0, 64, 87
1, 611515, Control_c, 0, 64, 26
1, 611515, Control_c, 1, 64, 26
1, 611534, Control_c, 1, 64, 72
1, 611534, Control_c, 0, 64, 72
1, 611537, Note_off_c, 0, 64, 39
1, 611537, Poly_aftertouch_c, 0, 64, 0
1, 611542, Note_on_c, 0, 68, 84
1, 611554, Control_c, 0, 64, 127
1, 611554, Control_c, 1, 64, 127
1, 611575, Note_off_c, 0, 40, 62
1, 611617, Note_off_c, 0, 52, 64
1, 611617, Poly_aftertouch_c, 0, 52, 0
1, 611641, Note_on_c, 0, 66, 83
1, 611676, Note_off_c, 0, 68, 64
1, 611713, Note_on_c, 0, 64, 87
1, 611729, Note_off_c, 0, 66, 65
1, 611729, Poly_aftertouch_c, 0, 66, 0
1, 611754, Note_off_c, 0, 64, 69
1, 611754, Poly_aftertouch_c, 0, 64, 0
1, 611805, Note_on_c, 0, 76, 86
1, 611881, Note_on_c, 0, 71, 63
1, 611957, Note_on_c, 0, 88, 87
1, 611964, Note_off_c, 0, 76, 58
1, 611967, Note_on_c, 0, 68, 77
1, 611999, Note_on_c, 0, 64, 81
1, 612008, Note_off_c, 0, 71, 63
1, 612014, Note_off_c, 0, 88, 63
1, 612021, Note_on_c, 0, 76, 77
1, 612057, Note_off_c, 0, 68, 65
1, 612065, Note_off_c, 0, 64, 64
1, 612065, Poly_aftertouch_c, 0, 64, 0
1, 612066, Note_off_c, 0, 76, 65
1, 612129, Poly_aftertouch_c, 0, 77, 0
1, 612264, Control_c, 0, 64, 83
1, 612264, Control_c, 1, 64, 83
1, 612270, Note_on_c, 0, 60, 84
1, 612273, Note_on_c, 0, 45, 80
1, 612282, Control_c, 0, 64, 36
1, 612282, Control_c, 1, 64, 36
1, 612283, Note_on_c, 0, 33, 78
1, 612303, Control_c, 0, 64, 0
1, 612303, Control_c, 1, 64, 0
1, 612358, Control_c, 1, 64, 9
1, 612358, Control_c, 0, 64, 9
1, 612366, Note_on_c, 0, 64, 78
1, 612378, Control_c, 0, 64, 51
1, 612378, Control_c, 1, 64, 51
1, 612386, Note_off_c, 0, 60, 59
1, 612386, Poly_aftertouch_c, 0, 60, 0
1, 612395, Control_c, 0, 64, 127
1, 612395, Control_c, 1, 64, 127
1, 612425, Note_off_c, 0, 33, 61
1, 612463, Note_on_c, 0, 62, 78
1, 612468, Note_off_c, 0, 45, 63
1, 612493, Note_off_c, 0, 64, 62
1, 612493, Poly_aftertouch_c, 0, 64, 0
1, 612537, Note_on_c, 0, 60, 85
1, 612563, Note_off_c, 0, 62, 61
1, 612594, Note_off_c, 0, 60, 66
1, 612594, Poly_aftertouch_c, 0, 60, 0
1, 612664, Note_on_c, 0, 72, 80
1, 612756, Note_on_c, 0, 69, 68
1, 612806, Note_off_c, 0, 72, 52
1, 612822, Note_on_c, 0, 84, 80
1, 612829, Note_on_c, 0, 64, 59
1, 612890, Note_off_c, 0, 69, 56
1, 612891, Note_off_c, 0, 84, 63
1, 612902, Note_on_c, 0, 60, 64
1, 612932, Note_on_c, 0, 72, 68
1, 612939, Note_off_c, 0, 64, 61
1, 612939, Poly_aftertouch_c, 0, 64, 0
1, 612980, Note_off_c, 0, 72, 60
1, 612984, Note_off_c, 0, 60, 61
1, 612984, Poly_aftertouch_c, 0, 60, 0
1, 613025, Note_on_c, 0, 81, 86
1, 613042, Note_on_c, 0, 64, 69
1, 613085, Note_off_c, 0, 81, 61
1, 613116, Note_on_c, 0, 69, 80
1, 613142, Note_on_c, 0, 60, 75
1, 613168, Note_off_c, 0, 64, 57
1, 613168, Poly_aftertouch_c, 0, 64, 0
1, 613169, Note_off_c, 0, 69, 60
1, 613214, Note_on_c, 0, 76, 87
1, 613218, Note_on_c, 0, 57, 71
1, 613234, Note_off_c, 0, 60, 60
1, 613234, Poly_aftertouch_c, 0, 60, 0
1, 613270, Note_off_c, 0, 76, 63
1, 613291, Note_on_c, 0, 52, 74
1, 613297, Note_on_c, 0, 64, 83
1, 613303, Note_off_c, 0, 57, 63
1, 613357, Note_off_c, 0, 64, 61
1, 613357, Note_off_c, 0, 52, 61
1, 613357, Poly_aftertouch_c, 0, 52, 0
1, 613357, Poly_aftertouch_c, 0, 64, 0
1, 613394, Note_on_c, 0, 72, 91
1, 613395, Note_on_c, 0, 57, 80
1, 613456, Note_off_c, 0, 72, 60
1, 613477, Note_on_c, 0, 60, 80
1, 613490, Note_on_c, 0, 52, 80
1, 613503, Note_off_c, 0, 57, 63
1, 613536, Note_off_c, 0, 60, 59
1, 613536, Poly_aftertouch_c, 0, 60, 0
1, 613538, Note_on_c, 0, 48, 75
1, 613562, Note_on_c, 0, 69, 87
1, 613573, Note_off_c, 0, 52, 60
1, 613573, Poly_aftertouch_c, 0, 52, 0
1, 613609, Note_on_c, 0, 45, 73
1, 613634, Note_off_c, 0, 48, 62
1, 613650, Note_off_c, 0, 45, 65
1, 613660, Note_on_c, 0, 57, 81
1, 613762, Control_c, 0, 64, 88
1, 613762, Control_c, 1, 64, 88
1, 613767, Poly_aftertouch_c, 0, 63, 0
1, 613782, Control_c, 0, 64, 26
1, 613782, Control_c, 1, 64, 26
1, 613790, Note_on_c, 0, 61, 92
1, 613798, Note_on_c, 0, 43, 91
1, 613801, Control_c, 0, 64, 0
1, 613801, Control_c, 1, 64, 0
1, 613803, Note_on_c, 0, 31, 89
1, 613816, Note_off_c, 0, 69, 52
1, 613874, Control_c, 0, 64, 22
1, 613874, Control_c, 1, 64, 22
1, 613892, Control_c, 1, 64, 78
1, 613892, Control_c, 0, 64, 78
1, 613911, Control_c, 0, 64, 127
1, 613911, Control_c, 1, 64, 127
1, 613917, Note_off_c, 0, 57, 60
1, 613941, Note_on_c, 0, 64, 78
1, 613950, Note_off_c, 0, 31, 63
1, 613995, Note_off_c, 0, 43, 64
1, 614003, Note_off_c, 0, 61, 47
1, 614055, Note_on_c, 0, 62, 78
1, 614094, Note_off_c, 0, 64, 62
1, 614094, Poly_aftertouch_c, 0, 64, 0
1, 614165, Note_on_c, 0, 61, 81
1, 614168, Note_off_c, 0, 62, 63
1, 614190, Note_off_c, 0, 61, 69
1, 614260, Note_on_c, 0, 73, 80
1, 614335, Poly_aftertouch_c, 0, 60, 0
1, 614355, Note_on_c, 0, 69, 74
1, 614377, Note_off_c, 0, 73, 57
1, 614397, Note_on_c, 0, 64, 68
1, 614422, Note_on_c, 0, 85, 85
1, 614468, Note_off_c, 0, 69, 59
1, 614501, Note_on_c, 0, 61, 61
1, 614503, Note_off_c, 0, 85, 65
1, 614514, Note_on_c, 0, 73, 82
1, 614516, Note_off_c, 0, 64, 62
1, 614516, Poly_aftertouch_c, 0, 64, 0
1, 614548, Note_off_c, 0, 61, 61
1, 614584, Note_off_c, 0, 73, 63
1, 614610, Note_on_c, 0, 64, 76
1, 614614, Note_on_c, 0, 81, 88
1, 614673, Note_off_c, 0, 81, 63
1, 614697, Note_on_c, 0, 69, 82
1, 614698, Note_off_c, 0, 64, 59
1, 614698, Poly_aftertouch_c, 0, 64, 0
1, 614703, Note_on_c, 0, 61, 65
1, 614727, Note_on_c, 0, 58, 48
1, 614759, Note_off_c, 0, 69, 62
1, 614772, Note_on_c, 0, 57, 57
1, 614796, Note_on_c, 0, 76, 88
1, 614806, Note_off_c, 0, 61, 61
1, 614821, Note_on_c, 0, 52, 72
1, 614822, Note_off_c, 0, 58, 32
1, 614845, Note_off_c, 0, 57, 60
1, 614853, Note_off_c, 0, 76, 65
1, 614889, Note_off_c, 0, 52, 61
1, 614889, Poly_aftertouch_c, 0, 52, 0
1, 614890, Note_on_c, 0, 64, 78
1, 614942, Note_off_c, 0, 64, 60
1, 614942, Poly_aftertouch_c, 0, 64, 0
1, 614950, Note_on_c, 0, 57, 71
1, 614986, Note_on_c, 0, 73, 86
1, 615033, Note_on_c, 0, 52, 77
1, 615061, Note_on_c, 0, 61, 80
1, 615064, Note_off_c, 0, 73, 59
1, 615075, Note_off_c, 0, 57, 59
1, 615078, Note_on_c, 0, 49, 66
1, 615116, Note_off_c, 0, 52, 58
1, 615116, Poly_aftertouch_c, 0, 52, 0
1, 615125, Note_off_c, 0, 61, 62
1, 615158, Note_on_c, 0, 45, 67
1, 615158, Note_on_c, 0, 69, 81
1, 615189, Note_off_c, 0, 49, 63
1, 615209, Note_off_c, 0, 45, 62
1, 615214, Note_on_c, 0, 57, 81
1, 615260, Control_c, 0, 64, 70
1, 615260, Control_c, 1, 64, 70
1, 615278, Control_c, 1, 64, 0
1, 615278, Control_c, 0, 64, 0
1, 615308, Note_off_c, 0, 69, 46
1, 615329, Note_on_c, 0, 41, 99
1, 615336, Note_on_c, 0, 29, 93
1, 615342, Note_on_c, 0, 62, 86
1, 615353, Control_c, 0, 64, 9
1, 615353, Control_c, 1, 64, 9
1, 615361, Note_off_c, 0, 57, 58
1, 615371, Control_c, 0, 64, 70
1, 615371, Control_c, 1, 64, 70
1, 615373, Note_off_c, 0, 29, 69
1, 615374, Note_off_c, 0, 41, 65
1, 615390, Control_c, 0, 64, 127
1, 615390, Control_c, 1, 64, 127
1, 615444, Note_on_c, 0, 65, 83
1, 615456, Note_off_c, 0, 62, 62
1, 615537, Note_on_c, 0, 64, 83
1, 615555, Note_off_c, 0, 65, 54
1, 615601, Note_on_c, 0, 62, 85
1, 615641, Note_off_c, 0, 64, 63
1, 615641, Poly_aftertouch_c, 0, 64, 0
1, 615645, Note_off_c, 0, 62, 66
1, 615711, Note_on_c, 0, 74, 84
1, 615755, Note_on_c, 0, 69, 69
1, 615811, Note_on_c, 0, 65, 66
1, 615821, Note_on_c, 0, 88, 89
1, 615831, Note_off_c, 0, 74, 60
1, 615860, Note_on_c, 0, 62, 80
1, 615875, Note_off_c, 0, 88, 66
1, 615876, Note_on_c, 0, 76, 88
1, 615880, Poly_aftertouch_c, 0, 66, 0
1, 615888, Note_off_c, 0, 69, 62
1, 615900, Note_off_c, 0, 65, 63
1, 615916, Note_off_c, 0, 62, 67
1, 615920, Note_off_c, 0, 76, 66
1, 616101, Control_c, 0, 64, 82
1, 616101, Control_c, 1, 64, 82
1, 616103, Note_on_c, 0, 38, 94
1, 616105, Note_on_c, 0, 65, 90
1, 616111, Note_on_c, 0, 26, 91
1, 616120, Control_c, 0, 64, 25
1, 616120, Control_c, 1, 64, 25
1, 616139, Control_c, 1, 64, 0
1, 616139, Control_c, 0, 64, 0
1, 616142, Note_on_c, 0, 28, 49
1, 616189, Note_off_c, 0, 28, 34
1, 616215, Control_c, 0, 64, 47
1, 616215, Control_c, 1, 64, 47
1, 616225, Note_on_c, 0, 69, 80
1, 616231, Control_c, 0, 64, 127
1, 616231, Control_c, 1, 64, 127
1, 616243, Note_off_c, 0, 65, 63
1, 616257, Note_off_c, 0, 26, 61
1, 616290, Note_off_c, 0, 38, 64
1, 616312, Note_on_c, 0, 67, 85
1, 616339, Note_off_c, 0, 69, 60
1, 616393, Note_on_c, 0, 65, 90
1, 616417, Note_off_c, 0, 65, 69
1, 616418, Note_off_c, 0, 67, 60
1, 616485, Note_on_c, 0, 77, 92
1, 616563, Note_on_c, 0, 74, 60
1, 616592, Note_off_c, 0, 77, 62
1, 616602, Poly_aftertouch_c, 0, 75, 0
1, 616606, Note_on_c, 0, 69, 73
1, 616611, Note_on_c, 0, 89, 92
1, 616632, Poly_aftertouch_c, 0, 70, 127
1, 616659, Note_on_c, 0, 65, 89
1, 616664, Poly_aftertouch_c, 0, 70, 0
1, 616665, Note_off_c, 0, 89, 63
1, 616671, Note_off_c, 0, 74, 63
1, 616673, Note_on_c, 0, 77, 85
1, 616694, Note_off_c, 0, 69, 63
1, 616710, Note_off_c, 0, 65, 65
1, 616715, Note_off_c, 0, 77, 61
1, 616773, Poly_aftertouch_c, 0, 79, 0
1, 616926, Note_on_c, 0, 45, 88
1, 616930, Note_on_c, 0, 33, 94
1, 616931, Note_on_c, 0, 69, 87
1, 616944, Control_c, 0, 64, 71
1, 616944, Control_c, 1, 64, 71
1, 616945, Note_on_c, 0, 43, 61
1, 616963, Control_c, 0, 64, 0
1, 616963, Control_c, 1, 64, 0
1, 617074, Control_c, 1, 64, 27
1, 617074, Control_c, 0, 64, 27
1, 617086, Note_on_c, 0, 73, 80
1, 617090, Note_off_c, 0, 43, 20
1, 617092, Note_off_c, 0, 69, 58
1, 617093, Control_c, 0, 64, 95
1, 617093, Control_c, 1, 64, 95
1, 617112, Control_c, 1, 64, 127
1, 617112, Control_c, 0, 64, 127
1, 617120, Note_off_c, 0, 33, 60
1, 617170, Note_off_c, 0, 45, 63
1, 617204, Note_on_c, 0, 71, 77
1, 617238, Note_off_c, 0, 73, 63
1, 617290, Note_on_c, 0, 69, 85
1, 617308, Note_off_c, 0, 71, 63
1, 617348, Note_off_c, 0, 69, 64
1, 617428, Note_on_c, 0, 76, 55
1, 617429, Note_off_c, 0, 76, 127
1, 617429, Note_on_c, 0, 81, 73
1, 617433, Note_on_c, 0, 77, 68
1, 617434, Note_off_c, 0, 77, 127
1, 617533, Note_on_c, 0, 76, 63
1, 617566, Note_off_c, 0, 81, 50
1, 617577, Poly_aftertouch_c, 0, 79, 0
1, 617579, Note_on_c, 0, 91, 83
1, 617590, Note_on_c, 0, 73, 73
1, 617617, Note_on_c, 0, 68, 65
1, 617619, Note_off_c, 0, 76, 60
1, 617656, Note_off_c, 0, 91, 61
1, 617679, Note_off_c, 0, 73, 63
1, 617693, Note_on_c, 0, 79, 70
1, 617694, Note_on_c, 0, 81, 61
1, 617713, Note_off_c, 0, 68, 63
1, 617720, Note_off_c, 0, 79, 64
1, 617725, Note_off_c, 0, 81, 67
1, 617793, Note_on_c, 0, 73, 84
1, 617807, Note_on_c, 0, 88, 67
1, 617808, Note_on_c, 0, 89, 65
1, 617830, Note_off_c, 0, 89, 65
1, 617838, Note_off_c, 0, 88, 70
1, 617864, Note_on_c, 0, 76, 71
1, 617875, Note_on_c, 0, 77, 62
1, 617882, Note_off_c, 0, 73, 62
1, 617900, Note_on_c, 0, 69, 72
1, 617901, Note_off_c, 0, 77, 64
1, 617903, Poly_aftertouch_c, 0, 87, 0
1, 617906, Note_off_c, 0, 76, 63
1, 617919, Note_on_c, 0, 68, 39
1, 617943, Note_on_c, 0, 63, 63
1, 617963, Note_off_c, 0, 68, 48
1, 617969, Note_on_c, 0, 85, 82
1, 617970, Note_off_c, 0, 69, 54
1, 617974, Note_off_c, 0, 63, 59
1, 617977, Note_on_c, 0, 64, 68
1, 618017, Note_on_c, 0, 87, 21
1, 618018, Note_off_c, 0, 87, 127
1, 618040, Note_on_c, 0, 73, 80
1, 618048, Note_off_c, 0, 85, 62
1, 618061, Note_on_c, 0, 61, 71
1, 618076, Note_off_c, 0, 64, 61
1, 618076, Poly_aftertouch_c, 0, 64, 0
1, 618093, Poly_aftertouch_c, 0, 86, 0
1, 618103, Note_off_c, 0, 73, 63
1, 618110, Note_off_c, 0, 61, 59
1, 618123, Poly_aftertouch_c, 0, 75, 127
1, 618138, Note_on_c, 0, 81, 82
1, 618152, Poly_aftertouch_c, 0, 75, 0
1, 618166, Note_on_c, 0, 64, 78
1, 618180, Note_on_c, 0, 80, 35
1, 618197, Note_on_c, 0, 69, 86
1, 618209, Note_off_c, 0, 81, 62
1, 618230, Note_off_c, 0, 80, 55
1, 618250, Note_off_c, 0, 69, 59
1, 618252, Note_on_c, 0, 61, 78
1, 618282, Note_off_c, 0, 64, 54
1, 618282, Poly_aftertouch_c, 0, 64, 0
1, 618302, Note_on_c, 0, 76, 87
1, 618313, Note_on_c, 0, 57, 53
1, 618320, Note_off_c, 0, 61, 66
1, 618349, Note_on_c, 0, 52, 80
1, 618385, Note_off_c, 0, 57, 62
1, 618390, Note_off_c, 0, 76, 52
1, 618397, Note_off_c, 0, 52, 59
1, 618397, Poly_aftertouch_c, 0, 52, 0
1, 618411, Note_on_c, 0, 64, 63
1, 618414, Note_on_c, 0, 62, 76
1, 618429, Poly_aftertouch_c, 0, 55, 0
1, 618460, Control_c, 0, 64, 91
1, 618460, Control_c, 1, 64, 91
1, 618475, Note_off_c, 0, 62, 61
1, 618479, Control_c, 0, 64, 24
1, 618479, Control_c, 1, 64, 24
1, 618497, Control_c, 1, 64, 0
1, 618497, Control_c, 0, 64, 0
1, 618523, Note_on_c, 0, 69, 83
1, 618533, Note_on_c, 0, 42, 96
1, 618542, Note_on_c, 0, 30, 86
1, 618553, Note_off_c, 0, 64, 50
1, 618553, Poly_aftertouch_c, 0, 64, 0
1, 618553, Control_c, 0, 64, 52
1, 618553, Control_c, 1, 64, 52
1, 618573, Control_c, 1, 64, 127
1, 618573, Control_c, 0, 64, 127
1, 618586, Note_off_c, 0, 30, 67
1, 618609, Note_on_c, 0, 73, 82
1, 618610, Note_off_c, 0, 69, 59
1, 618613, Note_off_c, 0, 42, 60
1, 618691, Note_on_c, 0, 72, 66
1, 618710, Note_on_c, 0, 71, 83
1, 618729, Note_off_c, 0, 73, 59
1, 618738, Note_off_c, 0, 72, 58
1, 618785, Note_on_c, 0, 69, 73
1, 618797, Note_off_c, 0, 71, 61
1, 618830, Note_off_c, 0, 69, 62
1, 618902, Note_on_c, 0, 81, 90
1, 618980, Note_on_c, 0, 78, 63
1, 619032, Note_off_c, 0, 81, 59
1, 619049, Note_on_c, 0, 93, 87
1, 619053, Note_on_c, 0, 73, 68
1, 619116, Note_on_c, 0, 69, 78
1, 619117, Note_off_c, 0, 78, 63
1, 619126, Note_off_c, 0, 93, 64
1, 619144, Note_on_c, 0, 81, 77
1, 619161, Note_off_c, 0, 73, 63
1, 619187, Note_off_c, 0, 69, 61
1, 619202, Note_off_c, 0, 81, 62
1, 619248, Note_on_c, 0, 90, 90
1, 619259, Note_on_c, 0, 73, 85
1, 619313, Note_on_c, 0, 70, 53
1, 619323, Poly_aftertouch_c, 0, 87, 0
1, 619325, Note_off_c, 0, 90, 66
1, 619342, Note_on_c, 0, 78, 83
1, 619345, Note_off_c, 0, 70, 58
1, 619361, Note_off_c, 0, 73, 56
1, 619372, Note_on_c, 0, 69, 58
1, 619389, Note_off_c, 0, 78, 61
1, 619404, Note_on_c, 0, 66, 71
1, 619435, Note_on_c, 0, 85, 87
1, 619467, Note_off_c, 0, 69, 57
1, 619496, Note_on_c, 0, 61, 70
1, 619505, Note_on_c, 0, 73, 85
1, 619512, Note_off_c, 0, 66, 62
1, 619517, Note_off_c, 0, 85, 63
1, 619547, Note_off_c, 0, 61, 59
1, 619557, Poly_aftertouch_c, 0, 82, 0
1, 619574, Note_off_c, 0, 73, 64
1, 619608, Note_on_c, 0, 66, 79
1, 619622, Note_on_c, 0, 83, 66
1, 619646, Note_on_c, 0, 81, 56
1, 619652, Note_off_c, 0, 83, 53
1, 619672, Note_on_c, 0, 69, 82
1, 619686, Note_on_c, 0, 61, 79
1, 619687, Note_off_c, 0, 81, 65
1, 619701, Note_off_c, 0, 66, 61
1, 619712, Note_on_c, 0, 58, 66
1, 619727, Note_off_c, 0, 69, 62
1, 619779, Note_on_c, 0, 78, 83
1, 619785, Note_on_c, 0, 57, 56
1, 619803, Note_on_c, 0, 54, 72
1, 619810, Note_off_c, 0, 61, 60
1, 619815, Note_off_c, 0, 57, 60
1, 619824, Note_off_c, 0, 58, 56
1, 619846, Note_off_c, 0, 54, 65
1, 619863, Note_on_c, 0, 66, 83
1, 619873, Note_on_c, 0, 53, 16
1, 619902, Control_c, 0, 64, 64
1, 619902, Control_c, 1, 64, 64
1, 619920, Control_c, 1, 64, 0
1, 619920, Control_c, 0, 64, 0
1, 619928, Note_off_c, 0, 53, 39
1, 619933, Note_off_c, 0, 78, 60
1, 619953, Note_off_c, 0, 66, 54
1, 619970, Note_on_c, 0, 41, 98
1, 619979, Note_on_c, 0, 69, 86
1, 619980, Note_on_c, 0, 29, 92
1, 619995, Control_c, 0, 64, 62
1, 619995, Control_c, 1, 64, 62
1, 620011, Note_off_c, 0, 41, 66
1, 620013, Control_c, 0, 64, 127
1, 620013, Control_c, 1, 64, 127
1, 620015, Note_off_c, 0, 29, 69
1, 620095, Note_on_c, 0, 73, 87
1, 620103, Note_off_c, 0, 69, 62
1, 620110, Poly_aftertouch_c, 0, 32, 127
1, 620127, Poly_aftertouch_c, 0, 32, 0
1, 620191, Note_on_c, 0, 71, 85
1, 620203, Note_off_c, 0, 73, 65
1, 620259, Note_on_c, 0, 69, 80
1, 620296, Note_off_c, 0, 71, 62
1, 620296, Note_off_c, 0, 69, 66
1, 620360, Note_on_c, 0, 81, 89
1, 620400, Note_on_c, 0, 77, 66
1, 620455, Note_on_c, 0, 73, 57
1, 620474, Note_off_c, 0, 81, 63
1, 620488, Note_on_c, 0, 93, 93
1, 620509, Note_on_c, 0, 69, 80
1, 620525, Note_off_c, 0, 77, 63
1, 620539, Note_on_c, 0, 81, 78
1, 620545, Note_off_c, 0, 73, 64
1, 620547, Note_off_c, 0, 93, 64
1, 620552, Note_on_c, 0, 83, 48
1, 620553, Note_off_c, 0, 83, 127
1, 620563, Note_off_c, 0, 69, 64
1, 620566, Note_off_c, 0, 81, 66
1, 620585, Poly_aftertouch_c, 0, 83, 0
1, 620760, Note_on_c, 0, 74, 87
1, 620762, Control_c, 0, 64, 76
1, 620762, Control_c, 1, 64, 76
1, 620773, Note_on_c, 0, 38, 98
1, 620780, Note_on_c, 0, 26, 93
1, 620780, Control_c, 0, 64, 9
1, 620780, Control_c, 1, 64, 9
1, 620800, Control_c, 1, 64, 0
1, 620800, Control_c, 0, 64, 0
1, 620840, Note_on_c, 0, 24, 25
1, 620841, Note_off_c, 0, 24, 127
1, 620875, Control_c, 0, 64, 52
1, 620875, Control_c, 1, 64, 52
1, 620893, Control_c, 1, 64, 127
1, 620893, Control_c, 0, 64, 127
1, 620904, Poly_aftertouch_c, 0, 24, 0
1, 620913, Note_on_c, 0, 77, 86
1, 620930, Note_off_c, 0, 74, 60
1, 620939, Note_off_c, 0, 26, 61
1, 620981, Note_off_c, 0, 38, 64
1, 621024, Note_on_c, 0, 76, 87
1, 621065, Note_off_c, 0, 77, 58
1, 621121, Note_on_c, 0, 74, 80
1, 621166, Note_off_c, 0, 76, 64
1, 621175, Note_off_c, 0, 74, 68
1, 621235, Poly_aftertouch_c, 0, 72, 0
1, 621239, Note_on_c, 0, 86, 115
1, 621342, Note_on_c, 0, 80, 87
1, 621352, Note_off_c, 0, 86, 61
1, 621367, Note_off_c, 0, 80, 71
1, 621371, Note_on_c, 0, 81, 80
1, 621393, Note_on_c, 0, 79, 62
1, 621394, Note_off_c, 0, 79, 127
1, 621398, Note_on_c, 0, 77, 81
1, 621405, Note_on_c, 0, 98, 97
1, 621454, Note_off_c, 0, 98, 65
1, 621468, Note_on_c, 0, 86, 89
1, 621491, Note_off_c, 0, 81, 61
1, 621504, Note_on_c, 0, 74, 79
1, 621505, Note_on_c, 0, 72, 83
1, 621514, Note_off_c, 0, 77, 63
1, 621515, Note_off_c, 0, 86, 65
1, 621527, Note_off_c, 0, 72, 70
1, 621543, Note_off_c, 0, 74, 66
1, 621650, Note_on_c, 0, 80, 30
1, 621704, Note_off_c, 0, 80, 49
1, 621759, Note_on_c, 0, 81, 93
1, 621781, Note_on_c, 0, 45, 101
1, 621786, Note_on_c, 0, 33, 95
1, 621791, Control_c, 0, 64, 116
1, 621791, Control_c, 1, 64, 116
1, 621811, Control_c, 1, 64, 51
1, 621811, Control_c, 0, 64, 51
1, 621813, Note_on_c, 0, 35, 59
1, 621814, Note_off_c, 0, 35, 127
1, 621829, Control_c, 0, 64, 0
1, 621829, Control_c, 1, 64, 0
1, 621931, Note_on_c, 0, 85, 87
1, 621941, Control_c, 0, 64, 61
1, 621941, Control_c, 1, 64, 61
1, 621957, Note_off_c, 0, 81, 61
1, 621960, Control_c, 0, 64, 127
1, 621960, Control_c, 1, 64, 127
1, 621994, Note_off_c, 0, 33, 61
1, 622033, Note_off_c, 0, 45, 64
1, 622068, Note_on_c, 0, 83, 89
1, 622100, Note_off_c, 0, 85, 65
1, 622187, Note_off_c, 0, 83, 64
1, 622189, Note_on_c, 0, 81, 91
1, 622254, Note_off_c, 0, 81, 62
1, 622386, Note_on_c, 0, 81, 84
1, 622386, Note_on_c, 0, 105, 97
1, 622394, Note_on_c, 0, 69, 80
1, 622449, Note_off_c, 0, 81, 63
1, 622467, Note_off_c, 0, 105, 64
1, 622480, Note_off_c, 0, 69, 58
1, 622491, Note_on_c, 0, 93, 80
1, 622564, Note_off_c, 0, 93, 64
1, 622600, Note_on_c, 0, 100, 87
1, 622605, Note_on_c, 0, 76, 80
1, 622612, Note_on_c, 0, 64, 82
1, 622649, Note_off_c, 0, 76, 59
1, 622671, Note_off_c, 0, 100, 64
1, 622677, Note_off_c, 0, 64, 60
1, 622677, Poly_aftertouch_c, 0, 64, 0
1, 622699, Note_on_c, 0, 88, 77
1, 622747, Note_off_c, 0, 88, 66
1, 622799, Note_on_c, 0, 97, 92
1, 622808, Note_on_c, 0, 73, 97
1, 622809, Note_on_c, 0, 61, 91
1, 622858, Note_off_c, 0, 73, 62
1, 622874, Note_off_c, 0, 61, 65
1, 622876, Note_off_c, 0, 97, 65
1, 622881, Note_on_c, 0, 85, 82
1, 622955, Note_off_c, 0, 85, 65
1, 622993, Note_on_c, 0, 93, 88
1, 623000, Note_on_c, 0, 69, 89
1, 623006, Note_on_c, 0, 57, 89
1, 623039, Note_on_c, 0, 92, 30
1, 623047, Note_off_c, 0, 69, 61
1, 623056, Note_off_c, 0, 93, 63
1, 623060, Note_off_c, 0, 57, 64
1, 623063, Note_on_c, 0, 81, 80
1, 623096, Note_off_c, 0, 92, 29
1, 623140, Note_off_c, 0, 81, 61
1, 623183, Note_on_c, 0, 88, 87
1, 623189, Note_on_c, 0, 64, 82
1, 623198, Note_on_c, 0, 52, 86
1, 623238, Note_off_c, 0, 64, 59
1, 623238, Poly_aftertouch_c, 0, 64, 0
1, 623240, Note_off_c, 0, 88, 63
1, 623248, Note_on_c, 0, 76, 77
1, 623261, Note_off_c, 0, 52, 57
1, 623261, Poly_aftertouch_c, 0, 52, 0
1, 623312, Note_off_c, 0, 76, 62
1, 623312, Poly_aftertouch_c, 0, 58, 0
1, 623322, Poly_aftertouch_c, 0, 54, 127
1, 623341, Poly_aftertouch_c, 0, 54, 0
1, 623364, Note_on_c, 0, 85, 89
1, 623384, Note_on_c, 0, 61, 92
1, 623389, Note_on_c, 0, 49, 87
1, 623440, Note_off_c, 0, 61, 62
1, 623444, Note_on_c, 0, 73, 83
1, 623460, Note_off_c, 0, 85, 64
1, 623462, Note_off_c, 0, 49, 62
1, 623523, Note_off_c, 0, 73, 60
1, 623556, Note_on_c, 0, 81, 81
1, 623571, Note_on_c, 0, 57, 84
1, 623573, Note_on_c, 0, 45, 88
1, 623610, Note_on_c, 0, 80, 20
1, 623633, Note_off_c, 0, 57, 62
1, 623635, Note_on_c, 0, 69, 78
1, 623636, Note_off_c, 0, 81, 61
1, 623647, Note_off_c, 0, 45, 59
1, 623674, Note_off_c, 0, 80, 52
1, 623700, Note_off_c, 0, 69, 60
1, 623751, Note_on_c, 0, 76, 87
1, 623762, Note_on_c, 0, 52, 86
1, 623766, Note_on_c, 0, 40, 81
1, 623796, Note_off_c, 0, 52, 63
1, 623796, Poly_aftertouch_c, 0, 52, 0
1, 623812, Note_on_c, 0, 41, 38
1, 623813, Note_off_c, 0, 41, 127
1, 623816, Note_off_c, 0, 76, 58
1, 623832, Note_off_c, 0, 40, 61
1, 623832, Note_on_c, 0, 64, 69
1, 623861, Poly_aftertouch_c, 0, 41, 0
1, 623897, Note_off_c, 0, 64, 61
1, 623897, Poly_aftertouch_c, 0, 64, 0
1, 623947, Note_on_c, 0, 73, 83
1, 623983, Note_on_c, 0, 49, 90
1, 623984, Note_on_c, 0, 37, 87
1, 624042, Note_off_c, 0, 73, 62
1, 624045, Note_off_c, 0, 49, 61
1, 624053, Note_on_c, 0, 61, 79
1, 624096, Note_off_c, 0, 37, 61
1, 624131, Note_off_c, 0, 61, 60
1, 624165, Note_on_c, 0, 69, 81
1, 624189, Note_on_c, 0, 45, 87
1, 624193, Note_on_c, 0, 33, 81
1, 624220, Note_on_c, 0, 35, 60
1, 624248, Note_on_c, 0, 57, 80
1, 624249, Note_off_c, 0, 45, 61
1, 624250, Note_off_c, 0, 69, 55
1, 624258, Note_off_c, 0, 35, 38
1, 624266, Note_off_c, 0, 33, 60
1, 624287, Poly_aftertouch_c, 0, 68, 127
1, 624306, Poly_aftertouch_c, 0, 68, 0
1, 624311, Note_off_c, 0, 57, 64
1, 624427, Note_on_c, 0, 63, 82
1, 624449, Note_on_c, 0, 39, 91
1, 624452, Note_on_c, 0, 27, 88
1, 624518, Note_on_c, 0, 51, 73
1, 624530, Note_off_c, 0, 63, 60
1, 624571, Poly_aftertouch_c, 0, 61, 0
1, 624588, Note_off_c, 0, 39, 55
1, 624591, Note_off_c, 0, 27, 58
1, 624599, Control_c, 0, 64, 96
1, 624599, Control_c, 1, 64, 96
1, 624601, Note_off_c, 0, 51, 61
1, 624618, Control_c, 0, 64, 55
1, 624618, Control_c, 1, 64, 55
1, 624634, Note_on_c, 0, 64, 76
1, 624636, Control_c, 0, 64, 27
1, 624636, Control_c, 1, 64, 27
1, 624656, Note_on_c, 0, 40, 87
1, 624656, Note_on_c, 0, 28, 81
1, 624675, Control_c, 0, 64, 36
1, 624675, Control_c, 1, 64, 36
1, 624693, Control_c, 1, 64, 66
1, 624693, Control_c, 0, 64, 66
1, 624712, Note_on_c, 0, 52, 71
1, 624712, Control_c, 0, 64, 127
1, 624712, Control_c, 1, 64, 127
1, 624721, Note_off_c, 0, 64, 61
1, 624721, Poly_aftertouch_c, 0, 64, 0
1, 624729, Note_off_c, 0, 40, 63
1, 624729, Note_off_c, 0, 28, 62
1, 624770, Note_off_c, 0, 52, 63
1, 624770, Poly_aftertouch_c, 0, 52, 0
1, 624854, Note_on_c, 0, 68, 84
1, 624857, Note_on_c, 0, 44, 85
1, 624858, Note_on_c, 0, 32, 87
1, 624904, Note_off_c, 0, 44, 57
1, 624924, Note_off_c, 0, 32, 63
1, 624942, Note_on_c, 0, 56, 65
1, 624946, Note_off_c, 0, 68, 62
1, 624971, Poly_aftertouch_c, 0, 66, 0
1, 624974, Poly_aftertouch_c, 0, 34, 0
1, 624993, Control_c, 0, 64, 81
1, 624993, Control_c, 1, 64, 81
1, 625012, Control_c, 1, 64, 37
1, 625012, Control_c, 0, 64, 37
1, 625022, Note_off_c, 0, 56, 63
1, 625031, Control_c, 0, 64, 21
1, 625031, Control_c, 1, 64, 21
1, 625035, Note_on_c, 0, 45, 87
1, 625041, Note_on_c, 0, 33, 86
1, 625050, Note_on_c, 0, 69, 84
1, 625050, Control_c, 0, 64, 37
1, 625050, Control_c, 1, 64, 37
1, 625068, Control_c, 1, 64, 73
1, 625068, Control_c, 0, 64, 73
1, 625086, Control_c, 0, 64, 127
1, 625086, Control_c, 1, 64, 127
1, 625100, Note_off_c, 0, 45, 62
1, 625112, Note_off_c, 0, 33, 60
1, 625129, Note_on_c, 0, 57, 75
1, 625133, Note_off_c, 0, 69, 60
1, 625147, Poly_aftertouch_c, 0, 39, 127
1, 625176, Poly_aftertouch_c, 0, 39, 0
1, 625187, Note_off_c, 0, 57, 62
1, 625255, Control_c, 0, 64, 97
1, 625255, Control_c, 1, 64, 97
1, 625260, Note_on_c, 0, 51, 91
1, 625263, Note_on_c, 0, 39, 87
1, 625267, Note_on_c, 0, 75, 85
1, 625274, Control_c, 0, 64, 64
1, 625274, Control_c, 1, 64, 64
1, 625293, Control_c, 1, 64, 72
1, 625293, Control_c, 0, 64, 72
1, 625311, Control_c, 0, 64, 127
1, 625311, Control_c, 1, 64, 127
1, 625339, Note_on_c, 0, 73, 10
1, 625362, Note_on_c, 0, 63, 80
1, 625363, Note_off_c, 0, 51, 60
1, 625366, Note_off_c, 0, 39, 65
1, 625377, Note_off_c, 0, 75, 64
1, 625421, Note_off_c, 0, 73, 34
1, 625449, Note_off_c, 0, 63, 62
1, 625468, Note_on_c, 0, 52, 86
1, 625473, Note_on_c, 0, 76, 84
1, 625476, Note_on_c, 0, 40, 84
1, 625479, Control_c, 0, 64, 102
1, 625479, Control_c, 1, 64, 102
1, 625498, Control_c, 1, 64, 121
1, 625498, Control_c, 0, 64, 121
1, 625518, Control_c, 0, 64, 127
1, 625518, Control_c, 1, 64, 127
1, 625531, Note_off_c, 0, 52, 61
1, 625531, Poly_aftertouch_c, 0, 52, 0
1, 625539, Note_off_c, 0, 40, 60
1, 625556, Note_on_c, 0, 64, 75
1, 625563, Note_off_c, 0, 76, 62
1, 625593, Poly_aftertouch_c, 0, 46, 127
1, 625614, Poly_aftertouch_c, 0, 46, 0
1, 625617, Note_off_c, 0, 64, 63
1, 625617, Poly_aftertouch_c, 0, 64, 0
1, 625685, Note_on_c, 0, 44, 88
1, 625688, Note_on_c, 0, 56, 85
1, 625700, Note_on_c, 0, 80, 93
1, 625746, Note_on_c, 0, 54, 16
1, 625762, Note_on_c, 0, 78, 25
1, 625768, Note_off_c, 0, 56, 59
1, 625790, Note_off_c, 0, 44, 59
1, 625792, Note_off_c, 0, 80, 64
1, 625817, Note_off_c, 0, 78, 52
1, 625817, Note_on_c, 0, 68, 72
1, 625821, Note_off_c, 0, 54, 39
1, 625842, Poly_aftertouch_c, 0, 43, 0
1, 625887, Note_off_c, 0, 68, 62
1, 625901, Note_on_c, 0, 57, 89
1, 625904, Note_on_c, 0, 45, 89
1, 625908, Note_on_c, 0, 81, 84
1, 625949, Note_on_c, 0, 80, 44
1, 625962, Note_off_c, 0, 45, 62
1, 625963, Note_off_c, 0, 57, 65
1, 625986, Note_on_c, 0, 69, 80
1, 625990, Note_off_c, 0, 80, 58
1, 626004, Note_off_c, 0, 81, 62
1, 626054, Note_off_c, 0, 69, 61
1, 626177, Note_on_c, 0, 87, 92
1, 626182, Note_on_c, 0, 63, 91
1, 626182, Note_on_c, 0, 51, 90
1, 626191, Control_c, 0, 64, 98
1, 626191, Control_c, 1, 64, 98
1, 626210, Control_c, 1, 64, 56
1, 626210, Control_c, 0, 64, 56
1, 626219, Note_on_c, 0, 85, 55
1, 626229, Control_c, 0, 64, 9
1, 626229, Control_c, 1, 64, 9
1, 626244, Note_off_c, 0, 85, 61
1, 626245, Control_c, 0, 64, 0
1, 626245, Control_c, 1, 64, 0
1, 626292, Note_on_c, 0, 75, 78
1, 626453, Control_c, 0, 64, 12
1, 626453, Control_c, 1, 64, 12
1, 626471, Control_c, 1, 64, 29
1, 626471, Control_c, 0, 64, 29
1, 626491, Control_c, 0, 64, 46
1, 626491, Control_c, 1, 64, 46
1, 626509, Control_c, 1, 64, 51
1, 626509, Control_c, 0, 64, 51
1, 626528, Control_c, 0, 64, 48
1, 626528, Control_c, 1, 64, 48
1, 626565, Control_c, 1, 64, 54
1, 626565, Control_c, 0, 64, 54
1, 626583, Control_c, 0, 64, 64
1, 626583, Control_c, 1, 64, 64
1, 626603, Control_c, 1, 64, 75
1, 626603, Control_c, 0, 64, 75
1, 626621, Control_c, 0, 64, 91
1, 626621, Control_c, 1, 64, 91
1, 626637, Poly_aftertouch_c, 0, 85, 127
1, 626638, Control_c, 0, 64, 127
1, 626638, Control_c, 1, 64, 127
1, 626643, Poly_aftertouch_c, 0, 82, 127
1, 626754, Poly_aftertouch_c, 0, 82, 0
1, 626779, Poly_aftertouch_c, 0, 85, 0
1, 627103, Note_off_c, 0, 75, 62
1, 627157, Note_off_c, 0, 51, 59
1, 627182, Note_off_c, 0, 87, 61
1, 627199, Note_off_c, 0, 63, 63
1, 627581, Note_on_c, 0, 88, 72
1, 627590, Note_on_c, 0, 64, 60
1, 627628, Note_off_c, 0, 64, 64
1, 627628, Poly_aftertouch_c, 0, 64, 0
1, 627636, Note_off_c, 0, 88, 62
1, 627681, Note_on_c, 0, 88, 71
1, 627697, Note_on_c, 0, 64, 77
1, 627707, Control_c, 0, 64, 111
1, 627707, Control_c, 1, 64, 111
1, 627726, Control_c, 1, 64, 62
1, 627726, Control_c, 0, 64, 62
1, 627737, Note_off_c, 0, 64, 63
1, 627737, Poly_aftertouch_c, 0, 64, 0
1, 627743, Control_c, 0, 64, 42
1, 627743, Control_c, 1, 64, 42
1, 627763, Control_c, 1, 64, 53
1, 627763, Control_c, 0, 64, 53
1, 627766, Note_on_c, 0, 93, 87
1, 627777, Note_off_c, 0, 88, 66
1, 627779, Note_on_c, 0, 69, 80
1, 627780, Control_c, 0, 64, 74
1, 627780, Control_c, 1, 64, 74
1, 627801, Control_c, 1, 64, 127
1, 627801, Control_c, 0, 64, 127
1, 627810, Note_off_c, 0, 93, 57
1, 627820, Note_on_c, 0, 81, 81
1, 627834, Note_off_c, 0, 69, 57
1, 627834, Note_on_c, 0, 57, 75
1, 627869, Note_off_c, 0, 81, 60
1, 627872, Note_off_c, 0, 57, 63
1, 627983, Note_on_c, 0, 76, 77
1, 627986, Note_on_c, 0, 52, 77
1, 628019, Note_off_c, 0, 52, 64
1, 628019, Poly_aftertouch_c, 0, 52, 0
1, 628021, Note_off_c, 0, 76, 62
1, 628025, Control_c, 0, 64, 94
1, 628025, Control_c, 1, 64, 94
1, 628043, Control_c, 1, 64, 56
1, 628043, Control_c, 0, 64, 56
1, 628063, Control_c, 0, 64, 44
1, 628063, Control_c, 1, 64, 44
1, 628066, Note_on_c, 0, 76, 73
1, 628083, Control_c, 0, 64, 53
1, 628083, Control_c, 1, 64, 53
1, 628085, Note_on_c, 0, 52, 75
1, 628100, Control_c, 0, 64, 72
1, 628100, Control_c, 1, 64, 72
1, 628118, Control_c, 1, 64, 127
1, 628118, Control_c, 0, 64, 127
1, 628119, Note_off_c, 0, 52, 66
1, 628119, Poly_aftertouch_c, 0, 52, 0
1, 628131, Note_on_c, 0, 57, 75
1, 628141, Note_off_c, 0, 76, 64
1, 628142, Note_on_c, 0, 81, 88
1, 628182, Note_off_c, 0, 57, 63
1, 628188, Note_on_c, 0, 69, 74
1, 628195, Note_on_c, 0, 45, 67
1, 628206, Note_off_c, 0, 81, 64
1, 628220, Note_off_c, 0, 69, 67
1, 628220, Note_on_c, 0, 47, 44
1, 628223, Note_off_c, 0, 45, 60
1, 628263, Note_off_c, 0, 47, 55
1, 628361, Note_on_c, 0, 64, 79
1, 628361, Control_c, 0, 64, 86
1, 628361, Control_c, 1, 64, 86
1, 628362, Note_on_c, 0, 88, 77
1, 628381, Control_c, 0, 64, 51
1, 628381, Control_c, 1, 64, 51
1, 628393, Note_off_c, 0, 64, 64
1, 628393, Poly_aftertouch_c, 0, 64, 0
1, 628398, Control_c, 0, 64, 44
1, 628398, Control_c, 1, 64, 44
1, 628403, Note_off_c, 0, 88, 54
1, 628419, Control_c, 0, 64, 57
1, 628419, Control_c, 1, 64, 57
1, 628436, Control_c, 1, 64, 78
1, 628436, Control_c, 0, 64, 78
1, 628449, Note_on_c, 0, 88, 76
1, 628454, Note_on_c, 0, 64, 78
1, 628454, Control_c, 0, 64, 127
1, 628454, Control_c, 1, 64, 127
1, 628512, Note_off_c, 0, 64, 63
1, 628512, Poly_aftertouch_c, 0, 64, 0
1, 628522, Note_on_c, 0, 91, 91
1, 628526, Note_on_c, 0, 67, 80
1, 628535, Note_off_c, 0, 88, 66
1, 628575, Note_off_c, 0, 67, 57
1, 628578, Note_on_c, 0, 79, 78
1, 628582, Note_off_c, 0, 91, 62
1, 628592, Note_on_c, 0, 55, 72
1, 628593, Note_on_c, 0, 57, 55
1, 628624, Note_off_c, 0, 79, 60
1, 628626, Note_off_c, 0, 55, 66
1, 628630, Note_off_c, 0, 57, 64
1, 628718, Control_c, 0, 64, 90
1, 628718, Control_c, 1, 64, 90
1, 628736, Control_c, 1, 64, 50
1, 628736, Control_c, 0, 64, 50
1, 628739, Note_on_c, 0, 50, 69
1, 628748, Note_on_c, 0, 74, 77
1, 628755, Control_c, 0, 64, 28
1, 628755, Control_c, 1, 64, 28
1, 628775, Control_c, 1, 64, 32
1, 628775, Control_c, 0, 64, 32
1, 628781, Note_off_c, 0, 50, 66
1, 628793, Control_c, 0, 64, 51
1, 628793, Control_c, 1, 64, 51
1, 628812, Control_c, 1, 64, 81
1, 628812, Control_c, 0, 64, 81
1, 628827, Note_on_c, 0, 50, 80
1, 628829, Control_c, 0, 64, 127
1, 628829, Control_c, 1, 64, 127
1, 628863, Note_off_c, 0, 50, 67
1, 628875, Note_on_c, 0, 55, 78
1, 628894, Note_on_c, 0, 79, 81
1, 628898, Note_off_c, 0, 74, 63
1, 628938, Note_on_c, 0, 43, 70
1, 628938, Note_on_c, 0, 67, 79
1, 628939, Note_off_c, 0, 55, 55
1, 628959, Note_off_c, 0, 79, 63
1, 628975, Note_off_c, 0, 43, 63
1, 628976, Note_off_c, 0, 67, 62
1, 628986, Note_on_c, 0, 45, 26
1, 629045, Note_off_c, 0, 45, 44
1, 629054, Control_c, 0, 64, 121
1, 629054, Control_c, 1, 64, 121
1, 629074, Control_c, 1, 64, 61
1, 629074, Control_c, 0, 64, 61
1, 629092, Control_c, 0, 64, 21
1, 629092, Control_c, 1, 64, 21
1, 629102, Note_on_c, 0, 86, 85
1, 629113, Note_on_c, 0, 62, 78
1, 629130, Control_c, 0, 64, 37
1, 629130, Control_c, 1, 64, 37
1, 629149, Control_c, 1, 64, 70
1, 629149, Control_c, 0, 64, 70
1, 629163, Note_off_c, 0, 62, 61
1, 629166, Control_c, 0, 64, 127
1, 629166, Control_c, 1, 64, 127
1, 629203, Note_off_c, 0, 86, 64
1, 629203, Note_on_c, 0, 86, 56
1, 629204, Note_on_c, 0, 62, 67
1, 629254, Note_off_c, 0, 62, 56
1, 629263, Note_on_c, 0, 65, 82
1, 629276, Note_on_c, 0, 89, 82
1, 629283, Note_off_c, 0, 86, 64
1, 629322, Note_on_c, 0, 77, 78
1, 629323, Note_off_c, 0, 65, 62
1, 629330, Note_off_c, 0, 89, 56
1, 629331, Note_on_c, 0, 53, 80
1, 629358, Note_off_c, 0, 77, 62
1, 629362, Note_off_c, 0, 53, 68
1, 629466, Control_c, 0, 64, 110
1, 629466, Control_c, 1, 64, 110
1, 629484, Note_on_c, 0, 48, 78
1, 629485, Control_c, 0, 64, 61
1, 629485, Control_c, 1, 64, 61
1, 629504, Control_c, 1, 64, 22
1, 629504, Control_c, 0, 64, 22
1, 629509, Note_on_c, 0, 72, 63
1, 629523, Control_c, 0, 64, 15
1, 629523, Control_c, 1, 64, 15
1, 629527, Note_off_c, 0, 48, 63
1, 629539, Note_off_c, 0, 72, 56
1, 629542, Control_c, 0, 64, 27
1, 629542, Control_c, 1, 64, 27
1, 629560, Control_c, 1, 64, 55
1, 629560, Control_c, 0, 64, 55
1, 629574, Note_on_c, 0, 48, 73
1, 629579, Control_c, 0, 64, 102
1, 629579, Control_c, 1, 64, 102
1, 629584, Note_on_c, 0, 72, 80
1, 629598, Control_c, 0, 64, 127
1, 629598, Control_c, 1, 64, 127
1, 629616, Note_off_c, 0, 48, 63
1, 629626, Note_on_c, 0, 53, 75
1, 629644, Note_off_c, 0, 72, 61
1, 629650, Note_on_c, 0, 77, 82
1, 629694, Note_off_c, 0, 53, 61
1, 629701, Note_on_c, 0, 65, 76
1, 629712, Note_off_c, 0, 77, 61
1, 629714, Note_on_c, 0, 41, 78
1, 629735, Note_off_c, 0, 65, 67
1, 629777, Note_off_c, 0, 41, 59
1, 629777, Note_on_c, 0, 43, 14
1, 629792, Note_off_c, 0, 43, 31
1, 629822, Control_c, 0, 64, 122
1, 629822, Control_c, 1, 64, 122
1, 629841, Control_c, 1, 64, 64
1, 629841, Control_c, 0, 64, 64
1, 629860, Control_c, 0, 64, 33
1, 629860, Control_c, 1, 64, 33
1, 629875, Note_on_c, 0, 50, 73
1, 629878, Control_c, 0, 64, 37
1, 629878, Control_c, 1, 64, 37
1, 629884, Note_on_c, 0, 82, 75
1, 629897, Control_c, 0, 64, 59
1, 629897, Control_c, 1, 64, 59
1, 629916, Control_c, 1, 64, 89
1, 629916, Control_c, 0, 64, 89
1, 629926, Note_off_c, 0, 50, 61
1, 629932, Note_off_c, 0, 82, 57
1, 629933, Control_c, 0, 64, 127
1, 629933, Control_c, 1, 64, 127
1, 629954, Note_on_c, 0, 38, 69
1, 629975, Note_on_c, 0, 82, 65
1, 630047, Note_on_c, 0, 40, 78
1, 630047, Control_c, 0, 64, 118
1, 630047, Control_c, 1, 64, 118
1, 630056, Note_off_c, 0, 38, 59
1, 630063, Note_on_c, 0, 88, 81
1, 630067, Control_c, 0, 64, 67
1, 630067, Control_c, 1, 64, 67
1, 630080, Note_off_c, 0, 82, 64
1, 630083, Control_c, 0, 64, 43
1, 630083, Control_c, 1, 64, 43
1, 630102, Control_c, 1, 64, 46
1, 630102, Control_c, 0, 64, 46
1, 630122, Control_c, 0, 64, 63
1, 630122, Control_c, 1, 64, 63
1, 630129, Note_off_c, 0, 88, 64
1, 630131, Note_off_c, 0, 40, 61
1, 630142, Control_c, 0, 64, 88
1, 630142, Control_c, 1, 64, 88
1, 630154, Note_on_c, 0, 52, 75
1, 630158, Note_on_c, 0, 76, 77
1, 630159, Control_c, 0, 64, 127
1, 630159, Control_c, 1, 64, 127
1, 630210, Note_off_c, 0, 76, 62
1, 630213, Note_off_c, 0, 52, 59
1, 630213, Poly_aftertouch_c, 0, 52, 0
1, 630233, Control_c, 0, 64, 91
1, 630233, Control_c, 1, 64, 91
1, 630252, Control_c, 1, 64, 62
1, 630252, Control_c, 0, 64, 62
1, 630259, Note_on_c, 0, 84, 83
1, 630265, Note_on_c, 0, 57, 77
1, 630270, Control_c, 0, 64, 40
1, 630270, Control_c, 1, 64, 40
1, 630291, Control_c, 1, 64, 28
1, 630291, Control_c, 0, 64, 28
1, 630308, Control_c, 0, 64, 22
1, 630308, Control_c, 1, 64, 22
1, 630333, Note_off_c, 0, 84, 64
1, 630365, Note_off_c, 0, 57, 56
1, 630365, Control_c, 0, 64, 14
1, 630365, Control_c, 1, 64, 14
1, 630368, Note_on_c, 0, 72, 71
1, 630372, Note_on_c, 0, 60, 75
1, 630403, Control_c, 0, 64, 0
1, 630403, Control_c, 1, 64, 0
1, 630424, Note_off_c, 0, 72, 61
1, 630436, Note_off_c, 0, 60, 60
1, 630439, Control_c, 0, 67, 8
1, 630439, Control_c, 1, 67, 8
1, 630455, Note_on_c, 0, 83, 83
1, 630463, Note_on_c, 0, 52, 74
1, 630496, Control_c, 0, 64, 31
1, 630496, Control_c, 0, 67, 12
1, 630496, Control_c, 1, 64, 31
1, 630496, Control_c, 1, 67, 12
1, 630515, Control_c, 1, 64, 69
1, 630515, Control_c, 0, 64, 69
1, 630516, Note_off_c, 0, 83, 62
1, 630534, Control_c, 0, 64, 127
1, 630534, Control_c, 1, 64, 127
1, 630546, Note_on_c, 0, 71, 72
1, 630563, Note_on_c, 0, 56, 72
1, 630572, Note_off_c, 0, 71, 69
1, 630590, Control_c, 0, 67, 17
1, 630590, Control_c, 1, 67, 17
1, 630676, Note_on_c, 0, 59, 71
1, 630694, Note_on_c, 0, 88, 76
1, 630698, Note_off_c, 0, 56, 63
1, 630702, Control_c, 0, 64, 70
1, 630702, Control_c, 1, 64, 70
1, 630715, Note_off_c, 0, 52, 43
1, 630715, Poly_aftertouch_c, 0, 52, 0
1, 630720, Control_c, 0, 64, 11
1, 630720, Control_c, 1, 64, 11
1, 630731, Note_off_c, 0, 88, 60
1, 630738, Control_c, 0, 64, 0
1, 630738, Control_c, 1, 64, 0
1, 630743, Note_off_c, 0, 59, 62
1, 630763, Note_on_c, 0, 64, 74
1, 630789, Note_on_c, 0, 88, 76
1, 630820, Note_off_c, 0, 64, 59
1, 630820, Poly_aftertouch_c, 0, 64, 0
1, 630833, Control_c, 0, 64, 47
1, 630833, Control_c, 1, 64, 47
1, 630834, Control_c, 1, 67, 12
1, 630834, Control_c, 0, 67, 12
1, 630852, Control_c, 0, 64, 127
1, 630852, Control_c, 1, 64, 127
1, 630866, Note_on_c, 0, 93, 90
1, 630869, Note_on_c, 0, 57, 83
1, 630877, Note_off_c, 0, 88, 64
1, 630914, Note_off_c, 0, 93, 60
1, 630920, Note_on_c, 0, 81, 78
1, 630930, Note_off_c, 0, 57, 63
1, 630959, Note_off_c, 0, 81, 61
1, 630964, Note_on_c, 0, 57, 74
1, 631002, Control_c, 0, 67, 18
1, 631002, Control_c, 1, 67, 18
1, 631028, Note_off_c, 0, 57, 63
1, 631039, Control_c, 0, 67, 28
1, 631039, Control_c, 1, 67, 28
1, 631057, Control_c, 1, 67, 39
1, 631057, Control_c, 0, 67, 39
1, 631065, Note_on_c, 0, 62, 76
1, 631076, Control_c, 0, 67, 50
1, 631076, Control_c, 1, 67, 50
1, 631079, Note_on_c, 0, 69, 79
1, 631096, Control_c, 0, 67, 60
1, 631096, Control_c, 1, 67, 60
1, 631110, Note_off_c, 0, 62, 59
1, 631114, Control_c, 0, 64, 84
1, 631114, Control_c, 1, 64, 84
1, 631115, Control_c, 1, 67, 66
1, 631115, Control_c, 0, 67, 66
1, 631121, Note_off_c, 0, 69, 57
1, 631132, Control_c, 0, 64, 28
1, 631132, Control_c, 1, 64, 28
1, 631137, Note_on_c, 0, 50, 77
1, 631152, Control_c, 0, 64, 0
1, 631152, Control_c, 1, 64, 0
1, 631153, Control_c, 1, 67, 70
1, 631153, Control_c, 0, 67, 70
1, 631174, Note_on_c, 0, 69, 71
1, 631183, Note_off_c, 0, 50, 67
1, 631241, Note_off_c, 0, 69, 61
1, 631244, Note_on_c, 0, 74, 84
1, 631244, Control_c, 0, 64, 53
1, 631244, Control_c, 1, 64, 53
1, 631245, Control_c, 1, 67, 74
1, 631245, Control_c, 0, 67, 74
1, 631257, Note_on_c, 0, 50, 76
1, 631263, Control_c, 0, 64, 127
1, 631263, Control_c, 1, 64, 127
1, 631309, Note_off_c, 0, 74, 47
1, 631325, Note_on_c, 0, 62, 59
1, 631352, Note_off_c, 0, 62, 62
1, 631369, Note_on_c, 0, 52, 41
1, 631388, Note_off_c, 0, 50, 68
1, 631410, Note_off_c, 0, 52, 48
1, 631410, Poly_aftertouch_c, 0, 52, 0
1, 631427, Note_on_c, 0, 55, 74
1, 631450, Control_c, 0, 64, 81
1, 631450, Control_c, 1, 64, 81
1, 631469, Control_c, 1, 64, 21
1, 631469, Control_c, 0, 64, 21
1, 631474, Note_on_c, 0, 86, 76
1, 631485, Note_off_c, 0, 55, 52
1, 631487, Control_c, 0, 64, 0
1, 631487, Control_c, 1, 64, 0
1, 631494, Note_on_c, 0, 43, 68
1, 631501, Note_off_c, 0, 86, 67
1, 631525, Note_on_c, 0, 45, 35
1, 631532, Note_off_c, 0, 43, 66
1, 631561, Note_on_c, 0, 86, 75
1, 631578, Note_off_c, 0, 45, 33
1, 631620, Control_c, 0, 64, 26
1, 631620, Control_c, 1, 64, 26
1, 631627, Note_on_c, 0, 91, 89
1, 631629, Note_on_c, 0, 55, 84
1, 631637, Note_off_c, 0, 86, 63
1, 631639, Control_c, 0, 64, 127
1, 631639, Control_c, 1, 64, 127
1, 631674, Note_off_c, 0, 91, 66
1, 631682, Note_off_c, 0, 55, 65
1, 631696, Note_on_c, 0, 79, 76
1, 631721, Note_off_c, 0, 79, 70
1, 631738, Note_on_c, 0, 55, 78
1, 631790, Note_off_c, 0, 55, 63
1, 631824, Control_c, 0, 64, 76
1, 631824, Control_c, 1, 64, 76
1, 631825, Note_on_c, 0, 60, 73
1, 631843, Control_c, 0, 64, 10
1, 631843, Control_c, 1, 64, 10
1, 631849, Note_on_c, 0, 67, 70
1, 631863, Control_c, 0, 64, 0
1, 631863, Control_c, 1, 64, 0
1, 631865, Control_c, 1, 67, 78
1, 631865, Control_c, 0, 67, 78
1, 631873, Note_off_c, 0, 60, 60
1, 631884, Note_off_c, 0, 67, 68
1, 631913, Note_on_c, 0, 48, 76
1, 631949, Note_on_c, 0, 67, 67
1, 631958, Note_off_c, 0, 48, 62
1, 631976, Note_on_c, 0, 65, 38
1, 631993, Control_c, 0, 64, 96
1, 631993, Control_c, 1, 64, 96
1, 632000, Note_off_c, 0, 67, 62
1, 632008, Note_on_c, 0, 72, 83
1, 632012, Control_c, 0, 64, 127
1, 632012, Control_c, 1, 64, 127
1, 632021, Note_off_c, 0, 65, 33
1, 632024, Note_on_c, 0, 48, 74
1, 632076, Note_off_c, 0, 72, 43
1, 632076, Note_on_c, 0, 60, 63
1, 632100, Note_off_c, 0, 60, 61
1, 632164, Note_off_c, 0, 48, 60
1, 632198, Note_on_c, 0, 53, 75
1, 632199, Control_c, 0, 64, 89
1, 632199, Control_c, 1, 64, 89
1, 632218, Control_c, 1, 64, 33
1, 632218, Control_c, 0, 64, 33
1, 632230, Note_on_c, 0, 84, 75
1, 632236, Control_c, 0, 64, 0
1, 632236, Control_c, 1, 64, 0
1, 632237, Note_off_c, 0, 53, 63
1, 632255, Note_on_c, 0, 41, 84
1, 632266, Note_off_c, 0, 84, 56
1, 632307, Note_off_c, 0, 41, 60
1, 632312, Note_on_c, 0, 84, 68
1, 632372, Note_on_c, 0, 89, 88
1, 632380, Note_off_c, 0, 84, 63
1, 632385, Control_c, 0, 64, 62
1, 632385, Control_c, 1, 64, 62
1, 632390, Note_on_c, 0, 53, 88
1, 632405, Control_c, 0, 64, 127
1, 632405, Control_c, 1, 64, 127
1, 632418, Note_off_c, 0, 89, 63
1, 632432, Note_on_c, 0, 77, 80
1, 632437, Note_off_c, 0, 53, 66
1, 632459, Note_off_c, 0, 77, 67
1, 632480, Note_on_c, 0, 53, 76
1, 632531, Note_off_c, 0, 53, 60
1, 632575, Poly_aftertouch_c, 0, 76, 0
1, 632590, Note_on_c, 0, 65, 73
1, 632596, Note_on_c, 0, 58, 65
1, 632612, Control_c, 0, 64, 110
1, 632612, Control_c, 1, 64, 110
1, 632620, Note_off_c, 0, 65, 69
1, 632630, Control_c, 0, 64, 51
1, 632630, Control_c, 1, 64, 51
1, 632633, Note_off_c, 0, 58, 63
1, 632648, Control_c, 0, 64, 0
1, 632648, Control_c, 1, 64, 0
1, 632656, Note_on_c, 0, 46, 76
1, 632678, Note_on_c, 0, 65, 73
1, 632731, Note_off_c, 0, 65, 61
1, 632737, Note_off_c, 0, 46, 62
1, 632742, Control_c, 0, 64, 60
1, 632742, Control_c, 1, 64, 60
1, 632762, Control_c, 1, 64, 127
1, 632762, Control_c, 0, 64, 127
1, 632764, Note_on_c, 0, 70, 80
1, 632802, Note_on_c, 0, 46, 80
1, 632836, Note_on_c, 0, 58, 65
1, 632844, Note_off_c, 0, 70, 61
1, 632860, Note_off_c, 0, 58, 62
1, 632876, Note_off_c, 0, 46, 59
1, 632904, Note_on_c, 0, 46, 62
1, 632975, Note_off_c, 0, 46, 61
1, 632992, Note_on_c, 0, 50, 73
1, 633003, Control_c, 0, 64, 114
1, 633003, Control_c, 1, 64, 114
1, 633008, Note_on_c, 0, 82, 80
1, 633024, Control_c, 0, 64, 64
1, 633024, Control_c, 1, 64, 64
1, 633042, Control_c, 1, 64, 14
1, 633042, Control_c, 0, 64, 14
1, 633050, Note_off_c, 0, 50, 61
1, 633060, Control_c, 0, 64, 0
1, 633060, Control_c, 1, 64, 0
1, 633075, Note_off_c, 0, 82, 61
1, 633083, Note_on_c, 0, 38, 72
1, 633121, Note_on_c, 0, 82, 53
1, 633208, Note_on_c, 0, 88, 66
1, 633213, Note_off_c, 0, 38, 61
1, 633215, Note_on_c, 0, 40, 71
1, 633247, Control_c, 0, 64, 64
1, 633247, Control_c, 1, 64, 64
1, 633260, Note_off_c, 0, 82, 36
1, 633266, Control_c, 0, 64, 127
1, 633266, Control_c, 1, 64, 127
1, 633275, Note_off_c, 0, 88, 62
1, 633280, Note_off_c, 0, 40, 60
1, 633284, Control_c, 0, 67, 82
1, 633284, Control_c, 1, 67, 82
1, 633303, Note_on_c, 0, 52, 69
1, 633313, Note_on_c, 0, 76, 68
1, 633348, Note_off_c, 0, 76, 65
1, 633363, Note_off_c, 0, 52, 57
1, 633363, Poly_aftertouch_c, 0, 52, 0
1, 633407, Note_on_c, 0, 84, 78
1, 633426, Note_on_c, 0, 57, 76
1, 633457, Note_off_c, 0, 84, 60
1, 633486, Note_on_c, 0, 72, 75
1, 633508, Note_on_c, 0, 60, 77
1, 633524, Note_off_c, 0, 57, 59
1, 633524, Note_off_c, 0, 72, 61
1, 633547, Control_c, 0, 64, 91
1, 633547, Control_c, 1, 64, 91
1, 633567, Control_c, 1, 64, 46
1, 633567, Control_c, 0, 64, 46
1, 633582, Note_off_c, 0, 60, 57
1, 633592, Note_on_c, 0, 88, 82
1, 633601, Note_on_c, 0, 64, 75
1, 633623, Control_c, 0, 64, 31
1, 633623, Control_c, 1, 64, 31
1, 633628, Note_off_c, 0, 88, 61
1, 633641, Control_c, 0, 64, 68
1, 633641, Control_c, 1, 64, 68
1, 633659, Control_c, 1, 64, 127
1, 633659, Control_c, 0, 64, 127
1, 633672, Note_on_c, 0, 76, 70
1, 633711, Note_off_c, 0, 64, 61
1, 633711, Poly_aftertouch_c, 0, 64, 0
1, 633713, Note_off_c, 0, 76, 65
1, 633713, Note_on_c, 0, 59, 68
1, 633758, Note_off_c, 0, 59, 59
1, 633766, Note_on_c, 0, 56, 68
1, 633766, Note_on_c, 0, 83, 82
1, 633824, Note_off_c, 0, 83, 63
1, 633827, Note_off_c, 0, 56, 62
1, 633856, Note_on_c, 0, 71, 71
1, 633891, Note_off_c, 0, 71, 63
1, 633901, Note_on_c, 0, 52, 71
1, 633940, Control_c, 0, 64, 90
1, 633940, Control_c, 1, 64, 90
1, 633946, Note_off_c, 0, 52, 61
1, 633946, Poly_aftertouch_c, 0, 52, 0
1, 633960, Control_c, 0, 64, 50
1, 633960, Control_c, 1, 64, 50
1, 633970, Note_on_c, 0, 88, 90
1, 633973, Note_on_c, 0, 40, 74
1, 633979, Control_c, 0, 64, 12
1, 633979, Control_c, 1, 64, 12
1, 634016, Control_c, 1, 64, 20
1, 634016, Control_c, 0, 64, 20
1, 634026, Note_off_c, 0, 88, 63
1, 634033, Control_c, 0, 64, 47
1, 634033, Control_c, 1, 64, 47
1, 634047, Note_off_c, 0, 40, 61
1, 634052, Control_c, 0, 64, 87
1, 634052, Control_c, 1, 64, 87
1, 634057, Note_on_c, 0, 76, 62
1, 634071, Control_c, 0, 64, 127
1, 634071, Control_c, 1, 64, 127
1, 634074, Note_on_c, 0, 52, 74
1, 634091, Note_off_c, 0, 76, 64
1, 634124, Note_off_c, 0, 52, 56
1, 634124, Poly_aftertouch_c, 0, 52, 0
1, 634142, Note_on_c, 0, 81, 76
1, 634166, Control_c, 0, 67, 78
1, 634166, Control_c, 1, 67, 78
1, 634197, Note_on_c, 0, 57, 65
1, 634213, Note_off_c, 0, 81, 55
1, 634225, Note_on_c, 0, 55, 43
1, 634234, Note_on_c, 0, 69, 76
1, 634261, Note_off_c, 0, 69, 68
1, 634265, Note_off_c, 0, 55, 53
1, 634282, Note_on_c, 0, 60, 77
1, 634291, Note_off_c, 0, 57, 56
1, 634320, Note_off_c, 0, 60, 66
1, 634334, Control_c, 0, 64, 66
1, 634334, Control_c, 1, 64, 66
1, 634351, Control_c, 1, 64, 24
1, 634351, Note_on_c, 0, 88, 86
1, 634351, Control_c, 0, 64, 24
1, 634371, Control_c, 0, 64, 12
1, 634371, Control_c, 1, 64, 12
1, 634377, Note_on_c, 0, 64, 73
1, 634390, Control_c, 0, 64, 23
1, 634390, Control_c, 1, 64, 23
1, 634400, Note_off_c, 0, 88, 61
1, 634408, Control_c, 0, 64, 52
1, 634408, Control_c, 1, 64, 52
1, 634427, Control_c, 1, 64, 97
1, 634427, Control_c, 0, 64, 97
1, 634430, Poly_aftertouch_c, 0, 87, 0
1, 634438, Note_on_c, 0, 62, 22
1, 634438, Note_on_c, 0, 76, 64
1, 634445, Control_c, 0, 64, 127
1, 634445, Control_c, 1, 64, 127
1, 634454, Note_on_c, 0, 59, 72
1, 634460, Note_off_c, 0, 64, 61
1, 634460, Poly_aftertouch_c, 0, 64, 0
1, 634465, Note_off_c, 0, 76, 58
1, 634494, Note_off_c, 0, 62, 40
1, 634526, Note_off_c, 0, 59, 57
1, 634527, Note_on_c, 0, 55, 75
1, 634543, Note_on_c, 0, 79, 83
1, 634572, Note_off_c, 0, 55, 61
1, 634599, Note_off_c, 0, 79, 65
1, 634659, Note_on_c, 0, 52, 72
1, 634664, Note_on_c, 0, 67, 36
1, 634708, Note_off_c, 0, 67, 50
1, 634714, Note_off_c, 0, 52, 58
1, 634714, Poly_aftertouch_c, 0, 52, 0
1, 634725, Control_c, 0, 64, 122
1, 634725, Control_c, 1, 64, 122
1, 634745, Control_c, 1, 64, 63
1, 634745, Control_c, 0, 64, 63
1, 634748, Note_on_c, 0, 88, 90
1, 634760, Note_on_c, 0, 40, 69
1, 634762, Control_c, 0, 64, 20
1, 634762, Control_c, 1, 64, 20
1, 634785, Note_on_c, 0, 87, 35
1, 634791, Note_on_c, 0, 42, 31
1, 634801, Control_c, 0, 64, 8
1, 634801, Control_c, 1, 64, 8
1, 634803, Note_off_c, 0, 88, 60
1, 634820, Control_c, 0, 64, 29
1, 634820, Control_c, 1, 64, 29
1, 634829, Note_off_c, 0, 87, 53
1, 634831, Note_off_c, 0, 42, 45
1, 634831, Note_off_c, 0, 40, 61
1, 634838, Control_c, 0, 64, 65
1, 634838, Control_c, 1, 64, 65
1, 634842, Note_on_c, 0, 76, 68
1, 634857, Control_c, 0, 64, 127
1, 634857, Control_c, 1, 64, 127
1, 634860, Note_on_c, 0, 52, 76
1, 634872, Note_off_c, 0, 76, 67
1, 634916, Note_off_c, 0, 52, 58
1, 634916, Poly_aftertouch_c, 0, 52, 0
1, 634940, Note_on_c, 0, 77, 88
1, 634951, Control_c, 0, 67, 74
1, 634951, Control_c, 1, 67, 74
1, 634973, Note_on_c, 0, 53, 77
1, 635003, Note_off_c, 0, 77, 61
1, 635049, Note_on_c, 0, 65, 71
1, 635078, Note_off_c, 0, 65, 66
1, 635083, Note_on_c, 0, 57, 74
1, 635096, Note_off_c, 0, 53, 54
1, 635100, Control_c, 0, 64, 75
1, 635100, Control_c, 1, 64, 75
1, 635119, Control_c, 1, 64, 36
1, 635119, Control_c, 0, 64, 36
1, 635128, Note_off_c, 0, 57, 65
1, 635139, Control_c, 0, 64, 20
1, 635139, Control_c, 1, 64, 20
1, 635157, Control_c, 1, 64, 27
1, 635157, Control_c, 0, 64, 27
1, 635168, Note_on_c, 0, 88, 94
1, 635170, Note_on_c, 0, 64, 74
1, 635175, Control_c, 0, 64, 51
1, 635175, Control_c, 1, 64, 51
1, 635194, Control_c, 1, 64, 88
1, 635194, Control_c, 0, 64, 88
1, 635213, Control_c, 0, 64, 127
1, 635213, Control_c, 1, 64, 127
1, 635214, Control_c, 1, 67, 70
1, 635214, Control_c, 0, 67, 70
1, 635218, Note_off_c, 0, 88, 60
1, 635250, Note_on_c, 0, 76, 80
1, 635261, Note_on_c, 0, 59, 67
1, 635264, Note_off_c, 0, 64, 59
1, 635264, Poly_aftertouch_c, 0, 64, 0
1, 635300, Note_off_c, 0, 76, 60
1, 635305, Control_c, 0, 67, 65
1, 635305, Control_c, 1, 67, 65
1, 635339, Note_off_c, 0, 59, 60
1, 635341, Note_on_c, 0, 55, 71
1, 635396, Note_on_c, 0, 76, 77
1, 635397, Note_off_c, 0, 55, 58
1, 635458, Note_on_c, 0, 64, 73
1, 635467, Note_off_c, 0, 76, 61
1, 635475, Note_on_c, 0, 52, 59
1, 635499, Note_off_c, 0, 64, 61
1, 635499, Poly_aftertouch_c, 0, 64, 0
1, 635554, Note_off_c, 0, 52, 57
1, 635554, Poly_aftertouch_c, 0, 52, 0
1, 635562, Poly_aftertouch_c, 0, 53, 0
1, 635568, Control_c, 0, 64, 83
1, 635568, Control_c, 1, 64, 83
1, 635587, Control_c, 1, 64, 43
1, 635587, Control_c, 0, 64, 43
1, 635599, Note_on_c, 0, 40, 64
1, 635645, Control_c, 0, 64, 9
1, 635645, Control_c, 1, 64, 9
1, 635650, Note_on_c, 0, 88, 71
1, 635662, Control_c, 0, 64, 31
1, 635662, Control_c, 1, 64, 31
1, 635676, Note_off_c, 0, 88, 67
1, 635680, Control_c, 0, 64, 69
1, 635680, Control_c, 1, 64, 69
1, 635698, Note_off_c, 0, 40, 61
1, 635700, Note_on_c, 0, 76, 72
1, 635700, Control_c, 0, 64, 127
1, 635700, Control_c, 1, 64, 127
1, 635716, Note_on_c, 0, 52, 67
1, 635724, Poly_aftertouch_c, 0, 42, 0
1, 635748, Note_off_c, 0, 76, 60
1, 635796, Note_off_c, 0, 52, 60
1, 635796, Poly_aftertouch_c, 0, 52, 0
1, 635840, Note_on_c, 0, 75, 86
1, 635856, Note_on_c, 0, 53, 66
1, 635908, Note_off_c, 0, 75, 65
1, 635942, Note_on_c, 0, 57, 68
1, 635954, Note_on_c, 0, 63, 71
1, 635960, Note_off_c, 0, 53, 59
1, 635999, Control_c, 0, 64, 75
1, 635999, Control_c, 1, 64, 75
1, 636000, Note_off_c, 0, 57, 62
1, 636004, Note_off_c, 0, 63, 58
1, 636018, Control_c, 0, 64, 46
1, 636018, Control_c, 1, 64, 46
1, 636025, Note_on_c, 0, 64, 70
1, 636037, Control_c, 0, 64, 42
1, 636037, Control_c, 1, 64, 42
1, 636055, Control_c, 1, 64, 54
1, 636055, Control_c, 0, 64, 54
1, 636074, Control_c, 0, 64, 73
1, 636074, Control_c, 1, 64, 73
1, 636093, Control_c, 1, 64, 114
1, 636093, Control_c, 0, 64, 114
1, 636112, Control_c, 0, 64, 127
1, 636112, Control_c, 1, 64, 127
1, 636116, Note_on_c, 0, 59, 66
1, 636128, Note_off_c, 0, 64, 60
1, 636128, Poly_aftertouch_c, 0, 64, 0
1, 636182, Note_on_c, 0, 56, 76
1, 636183, Note_off_c, 0, 59, 63
1, 636186, Note_on_c, 0, 76, 83
1, 636213, Note_off_c, 0, 56, 67
1, 636267, Note_off_c, 0, 76, 63
1, 636288, Note_on_c, 0, 64, 73
1, 636303, Note_on_c, 0, 50, 71
1, 636321, Note_off_c, 0, 64, 65
1, 636321, Poly_aftertouch_c, 0, 64, 0
1, 636349, Note_on_c, 0, 52, 32
1, 636375, Note_off_c, 0, 50, 63
1, 636392, Control_c, 0, 64, 65
1, 636392, Control_c, 1, 64, 65
1, 636395, Note_off_c, 0, 52, 50
1, 636395, Poly_aftertouch_c, 0, 52, 0
1, 636402, Note_on_c, 0, 40, 75
1, 636411, Control_c, 0, 64, 29
1, 636411, Control_c, 1, 64, 29
1, 636414, Note_on_c, 0, 88, 97
1, 636424, Note_on_c, 0, 38, 44
1, 636425, Note_off_c, 0, 38, 127
1, 636428, Control_c, 0, 64, 22
1, 636428, Control_c, 1, 64, 22
1, 636434, Note_on_c, 0, 42, 36
1, 636447, Control_c, 0, 64, 34
1, 636447, Control_c, 1, 64, 34
1, 636466, Note_off_c, 0, 88, 64
1, 636467, Control_c, 0, 64, 62
1, 636467, Control_c, 1, 64, 62
1, 636482, Poly_aftertouch_c, 0, 38, 0
1, 636485, Note_off_c, 0, 40, 60
1, 636486, Note_off_c, 0, 42, 44
1, 636486, Control_c, 0, 64, 104
1, 636486, Control_c, 1, 64, 104
1, 636497, Note_on_c, 0, 76, 73
1, 636504, Control_c, 0, 64, 127
1, 636504, Control_c, 1, 64, 127
1, 636516, Note_on_c, 0, 52, 68
1, 636537, Note_off_c, 0, 76, 63
1, 636571, Note_off_c, 0, 52, 58
1, 636571, Poly_aftertouch_c, 0, 52, 0
1, 636634, Note_on_c, 0, 75, 91
1, 636652, Note_on_c, 0, 53, 57
1, 636670, Note_on_c, 0, 55, 54
1, 636710, Note_off_c, 0, 55, 52
1, 636718, Note_off_c, 0, 75, 64
1, 636727, Note_on_c, 0, 57, 71
1, 636751, Note_on_c, 0, 63, 77
1, 636752, Note_off_c, 0, 53, 58
1, 636772, Note_off_c, 0, 57, 62
1, 636804, Control_c, 0, 64, 91
1, 636804, Control_c, 1, 64, 91
1, 636809, Note_off_c, 0, 63, 61
1, 636811, Note_on_c, 0, 64, 74
1, 636842, Control_c, 0, 64, 108
1, 636842, Control_c, 1, 64, 108
1, 636860, Control_c, 1, 64, 127
1, 636860, Control_c, 0, 64, 127
1, 636907, Note_on_c, 0, 59, 63
1, 636920, Note_off_c, 0, 64, 57
1, 636920, Poly_aftertouch_c, 0, 64, 0
1, 636957, Note_on_c, 0, 56, 76
1, 636963, Note_off_c, 0, 59, 61
1, 636964, Note_on_c, 0, 76, 85
1, 637028, Note_off_c, 0, 56, 62
1, 637043, Note_off_c, 0, 76, 62
1, 637063, Note_on_c, 0, 64, 74
1, 637089, Note_on_c, 0, 52, 80
1, 637095, Note_off_c, 0, 64, 62
1, 637095, Poly_aftertouch_c, 0, 64, 0
1, 637107, Note_on_c, 0, 65, 32
1, 637156, Note_off_c, 0, 65, 46
1, 637158, Control_c, 0, 64, 88
1, 637158, Control_c, 1, 64, 88
1, 637166, Note_off_c, 0, 52, 60
1, 637166, Poly_aftertouch_c, 0, 52, 0
1, 637179, Control_c, 0, 64, 43
1, 637179, Control_c, 1, 64, 43
1, 637196, Control_c, 1, 64, 0
1, 637196, Control_c, 0, 64, 0
1, 637199, Note_on_c, 0, 93, 110
1, 637207, Note_on_c, 0, 41, 90
1, 637227, Note_on_c, 0, 44, 65
1, 637233, Control_c, 0, 64, 25
1, 637233, Control_c, 1, 64, 25
1, 637253, Control_c, 1, 64, 67
1, 637253, Control_c, 0, 64, 67
1, 637263, Note_off_c, 0, 93, 67
1, 637265, Note_off_c, 0, 44, 62
1, 637271, Control_c, 0, 64, 127
1, 637271, Control_c, 1, 64, 127
1, 637292, Note_on_c, 0, 81, 80
1, 637307, Note_off_c, 0, 41, 57
1, 637322, Note_off_c, 0, 81, 65
1, 637327, Control_c, 0, 67, 59
1, 637327, Control_c, 1, 67, 59
1, 637329, Note_on_c, 0, 53, 74
1, 637347, Control_c, 0, 67, 46
1, 637347, Control_c, 1, 67, 46
1, 637366, Control_c, 1, 67, 26
1, 637366, Control_c, 0, 67, 26
1, 637393, Note_off_c, 0, 53, 58
1, 637401, Control_c, 0, 67, 0
1, 637401, Control_c, 1, 67, 0
1, 637440, Note_on_c, 0, 57, 73
1, 637449, Note_on_c, 0, 75, 70
1, 637469, Note_on_c, 0, 77, 52
1, 637474, Note_on_c, 0, 76, 48
1, 637480, Note_on_c, 0, 78, 21
1, 637491, Note_off_c, 0, 77, 60
1, 637502, Note_off_c, 0, 76, 58
1, 637523, Note_off_c, 0, 75, 64
1, 637527, Note_off_c, 0, 57, 58
1, 637531, Note_on_c, 0, 66, 62
1, 637548, Note_on_c, 0, 59, 76
1, 637550, Note_off_c, 0, 78, 38
1, 637555, Note_on_c, 0, 63, 56
1, 637556, Note_off_c, 0, 66, 63
1, 637582, Note_off_c, 0, 63, 59
1, 637625, Note_off_c, 0, 59, 59
1, 637651, Note_on_c, 0, 56, 42
1, 637690, Note_off_c, 0, 56, 54
1, 637721, Control_c, 0, 64, 63
1, 637721, Control_c, 1, 64, 63
1, 637740, Control_c, 1, 64, 21
1, 637740, Poly_aftertouch_c, 0, 57, 127
1, 637740, Control_c, 0, 64, 21
1, 637745, Note_on_c, 0, 52, 84
1, 637749, Poly_aftertouch_c, 0, 57, 0
1, 637758, Control_c, 0, 64, 16
1, 637758, Control_c, 1, 64, 16
1, 637774, Note_on_c, 0, 76, 86
1, 637776, Control_c, 0, 64, 33
1, 637776, Control_c, 1, 64, 33
1, 637796, Control_c, 1, 64, 69
1, 637796, Control_c, 0, 64, 69
1, 637800, Note_off_c, 0, 52, 60
1, 637800, Poly_aftertouch_c, 0, 52, 0
1, 637813, Note_on_c, 0, 40, 84
1, 637813, Control_c, 0, 64, 127
1, 637813, Control_c, 1, 64, 127
1, 637853, Note_on_c, 0, 42, 54
1, 637866, Note_on_c, 0, 64, 71
1, 637892, Note_off_c, 0, 42, 50
1, 637894, Note_off_c, 0, 76, 58
1, 637897, Note_off_c, 0, 64, 66
1, 637897, Poly_aftertouch_c, 0, 64, 0
1, 637904, Note_off_c, 0, 40, 59
1, 637912, Note_on_c, 0, 52, 83
1, 637984, Note_off_c, 0, 52, 59
1, 637984, Poly_aftertouch_c, 0, 52, 0
1, 637984, Control_c, 0, 64, 76
1, 637984, Control_c, 1, 64, 76
1, 638001, Control_c, 1, 64, 19
1, 638001, Control_c, 0, 64, 19
1, 638006, Note_on_c, 0, 93, 106
1, 638012, Note_on_c, 0, 41, 91
1, 638020, Control_c, 0, 64, 0
1, 638020, Control_c, 1, 64, 0
1, 638058, Control_c, 1, 64, 25
1, 638058, Control_c, 0, 64, 25
1, 638069, Note_off_c, 0, 93, 65
1, 638077, Control_c, 0, 64, 78
1, 638077, Control_c, 1, 64, 78
1, 638085, Note_on_c, 0, 81, 54
1, 638096, Control_c, 0, 64, 127
1, 638096, Control_c, 1, 64, 127
1, 638111, Note_off_c, 0, 41, 61
1, 638143, Note_on_c, 0, 53, 81
1, 638144, Note_off_c, 0, 81, 64
1, 638205, Note_off_c, 0, 53, 60
1, 638240, Note_on_c, 0, 75, 91
1, 638273, Note_on_c, 0, 57, 57
1, 638301, Note_on_c, 0, 55, 42
1, 638335, Note_off_c, 0, 57, 61
1, 638344, Note_off_c, 0, 55, 54
1, 638348, Note_on_c, 0, 63, 80
1, 638358, Poly_aftertouch_c, 0, 78, 127
1, 638359, Note_off_c, 0, 75, 61
1, 638362, Note_on_c, 0, 59, 81
1, 638427, Note_off_c, 0, 59, 61
1, 638438, Poly_aftertouch_c, 0, 78, 0
1, 638445, Poly_aftertouch_c, 0, 73, 0
1, 638453, Note_on_c, 0, 56, 80
1, 638468, Note_off_c, 0, 63, 46
1, 638496, Note_off_c, 0, 56, 64
1, 638509, Control_c, 0, 64, 104
1, 638509, Control_c, 1, 64, 104
1, 638526, Control_c, 1, 64, 63
1, 638526, Control_c, 0, 64, 63
1, 638545, Control_c, 0, 64, 49
1, 638545, Control_c, 1, 64, 49
1, 638563, Control_c, 1, 64, 60
1, 638563, Control_c, 0, 64, 60
1, 638569, Note_on_c, 0, 52, 84
1, 638583, Control_c, 0, 64, 80
1, 638583, Control_c, 1, 64, 80
1, 638593, Note_on_c, 0, 76, 85
1, 638600, Control_c, 0, 64, 127
1, 638600, Control_c, 1, 64, 127
1, 638640, Note_on_c, 0, 40, 83
1, 638641, Note_off_c, 0, 52, 55
1, 638641, Poly_aftertouch_c, 0, 52, 0
1, 638677, Note_on_c, 0, 64, 81
1, 638700, Note_on_c, 0, 42, 27
1, 638711, Note_off_c, 0, 64, 66
1, 638711, Poly_aftertouch_c, 0, 64, 0
1, 638719, Note_off_c, 0, 76, 63
1, 638737, Note_off_c, 0, 40, 57
1, 638758, Note_off_c, 0, 42, 42
1, 638775, Note_on_c, 0, 53, 61
1, 638786, Note_on_c, 0, 52, 51
1, 638807, Note_off_c, 0, 53, 59
1, 638816, Note_off_c, 0, 52, 55
1, 638816, Poly_aftertouch_c, 0, 52, 0
1, 638824, Control_c, 0, 64, 103
1, 638824, Control_c, 1, 64, 103
1, 638845, Control_c, 1, 64, 55
1, 638845, Control_c, 0, 64, 55
1, 638863, Control_c, 0, 64, 0
1, 638863, Control_c, 1, 64, 0
1, 638877, Note_on_c, 0, 93, 104
1, 638886, Note_on_c, 0, 81, 102
1, 638887, Note_on_c, 0, 53, 92
1, 638888, Note_off_c, 0, 53, 127
1, 638888, Note_on_c, 0, 45, 86
1, 638889, Note_on_c, 0, 87, 94
1, 638890, Note_on_c, 0, 41, 79
1, 638945, Poly_aftertouch_c, 0, 53, 127
1, 638955, Control_c, 0, 64, 48
1, 638955, Control_c, 1, 64, 48
1, 638976, Control_c, 1, 64, 127
1, 638976, Control_c, 0, 64, 127
1, 639004, Poly_aftertouch_c, 0, 88, 127
1, 639025, Note_off_c, 0, 41, 61
1, 639028, Note_off_c, 0, 93, 61
1, 639043, Note_off_c, 0, 45, 61
1, 639046, Note_off_c, 0, 81, 59
1, 639047, Note_off_c, 0, 87, 64
1, 639053, Poly_aftertouch_c, 0, 88, 0
1, 639060, Poly_aftertouch_c, 0, 53, 0
1, 639205, Note_on_c, 0, 87, 89
1, 639206, Note_on_c, 0, 75, 91
1, 639267, Note_off_c, 0, 75, 63
1, 639268, Note_off_c, 0, 87, 65
1, 639314, Note_on_c, 0, 74, 84
1, 639330, Note_on_c, 0, 62, 80
1, 639370, Note_off_c, 0, 74, 64
1, 639378, Note_off_c, 0, 62, 56
1, 639396, Note_on_c, 0, 87, 90
1, 639396, Note_on_c, 0, 75, 92
1, 639423, Note_on_c, 0, 80, 64
1, 639424, Note_off_c, 0, 80, 127
1, 639454, Note_off_c, 0, 75, 65
1, 639456, Poly_aftertouch_c, 0, 80, 0
1, 639464, Note_off_c, 0, 87, 64
1, 639472, Note_on_c, 0, 74, 98
1, 639484, Note_on_c, 0, 62, 87
1, 639521, Note_off_c, 0, 74, 65
1, 639528, Note_off_c, 0, 62, 59
1, 639538, Note_on_c, 0, 87, 89
1, 639543, Note_on_c, 0, 75, 92
1, 639599, Note_off_c, 0, 75, 64
1, 639600, Poly_aftertouch_c, 0, 68, 127
1, 639605, Note_off_c, 0, 87, 66
1, 639610, Note_on_c, 0, 74, 98
1, 639612, Poly_aftertouch_c, 0, 70, 0
1, 639616, Note_on_c, 0, 62, 91
1, 639623, Poly_aftertouch_c, 0, 68, 0
1, 639657, Note_off_c, 0, 74, 67
1, 639670, Note_on_c, 0, 65, 29
1, 639687, Note_on_c, 0, 87, 96
1, 639688, Note_on_c, 0, 75, 97
1, 639691, Note_off_c, 0, 62, 66
1, 639718, Note_off_c, 0, 65, 46
1, 639742, Note_off_c, 0, 75, 66
1, 639755, Note_off_c, 0, 87, 66
1, 639799, Control_c, 0, 64, 61
1, 639799, Control_c, 1, 64, 61
1, 639817, Control_c, 1, 64, 0
1, 639817, Control_c, 0, 64, 0
1, 639828, Note_on_c, 0, 88, 101
1, 639830, Note_on_c, 0, 76, 100
1, 639831, Note_on_c, 0, 52, 88
1, 639835, Note_on_c, 0, 80, 92
1, 639838, Note_on_c, 0, 41, 78
1, 639842, Note_on_c, 0, 40, 82
1, 639848, Note_on_c, 0, 48, 66
1, 639868, Note_on_c, 0, 53, 51
1, 639869, Note_off_c, 0, 53, 127
1, 639871, Note_off_c, 0, 52, 66
1, 639871, Poly_aftertouch_c, 0, 52, 0
1, 639876, Note_off_c, 0, 41, 65
1, 639878, Note_off_c, 0, 80, 60
1, 639878, Control_c, 0, 64, 54
1, 639878, Control_c, 1, 64, 54
1, 639882, Note_off_c, 0, 40, 65
1, 639883, Note_off_c, 0, 48, 59
1, 639885, Note_off_c, 0, 76, 67
1, 639890, Note_off_c, 0, 88, 68
1, 639892, Control_c, 0, 64, 127
1, 639892, Control_c, 1, 64, 127
1, 639907, Poly_aftertouch_c, 0, 53, 0
1, 640056, Note_on_c, 0, 76, 85
1, 640060, Note_on_c, 0, 64, 85
1, 640105, Note_off_c, 0, 64, 58
1, 640105, Poly_aftertouch_c, 0, 64, 0
1, 640118, Note_off_c, 0, 76, 63
1, 640162, Note_on_c, 0, 63, 87
1, 640177, Note_on_c, 0, 51, 77
1, 640203, Note_off_c, 0, 63, 63
1, 640211, Note_off_c, 0, 51, 67
1, 640231, Note_on_c, 0, 76, 88
1, 640233, Note_on_c, 0, 64, 88
1, 640290, Note_off_c, 0, 64, 60
1, 640290, Poly_aftertouch_c, 0, 64, 0
1, 640291, Note_off_c, 0, 76, 63
1, 640306, Note_on_c, 0, 63, 95
1, 640320, Note_on_c, 0, 51, 84
1, 640356, Note_off_c, 0, 63, 63
1, 640375, Note_off_c, 0, 51, 44
1, 640390, Note_on_c, 0, 76, 84
1, 640395, Note_on_c, 0, 64, 85
1, 640433, Note_on_c, 0, 74, 44
1, 640450, Note_off_c, 0, 64, 61
1, 640450, Poly_aftertouch_c, 0, 64, 0
1, 640452, Note_off_c, 0, 76, 64
1, 640463, Note_on_c, 0, 63, 97
1, 640467, Note_off_c, 0, 74, 41
1, 640476, Note_on_c, 0, 51, 85
1, 640509, Note_off_c, 0, 63, 63
1, 640530, Note_on_c, 0, 76, 93
1, 640534, Note_on_c, 0, 64, 86
1, 640547, Note_off_c, 0, 51, 62
1, 640583, Note_off_c, 0, 64, 59
1, 640583, Poly_aftertouch_c, 0, 64, 0
1, 640594, Note_off_c, 0, 76, 64
1, 640660, Control_c, 0, 64, 95
1, 640660, Control_c, 1, 64, 95
1, 640679, Control_c, 1, 64, 41
1, 640679, Control_c, 0, 64, 41
1, 640690, Note_on_c, 0, 81, 96
1, 640698, Note_on_c, 0, 69, 96
1, 640698, Control_c, 0, 64, 0
1, 640698, Control_c, 1, 64, 0
1, 640701, Note_on_c, 0, 75, 87
1, 640702, Note_on_c, 0, 41, 92
1, 640706, Note_on_c, 0, 29, 86
1, 640707, Note_on_c, 0, 33, 90
1, 640735, Control_c, 0, 64, 10
1, 640735, Control_c, 1, 64, 10
1, 640739, Note_on_c, 0, 80, 29
1, 640740, Note_off_c, 0, 80, 127
1, 640741, Note_off_c, 0, 33, 65
1, 640743, Note_off_c, 0, 69, 63
1, 640748, Note_off_c, 0, 75, 64
1, 640749, Note_off_c, 0, 29, 67
1, 640753, Control_c, 0, 64, 60
1, 640753, Control_c, 1, 64, 60
1, 640755, Note_off_c, 0, 41, 62
1, 640757, Note_off_c, 0, 81, 65
1, 640773, Control_c, 0, 64, 127
1, 640773, Control_c, 1, 64, 127
1, 640941, Poly_aftertouch_c, 0, 33, 0
1, 640949, Note_on_c, 0, 63, 82
1, 640960, Note_on_c, 0, 51, 82
1, 641035, Note_off_c, 0, 51, 39
1, 641036, Note_off_c, 0, 63, 60
1, 641070, Note_on_c, 0, 50, 85
1, 641085, Note_on_c, 0, 38, 76
1, 641127, Note_off_c, 0, 38, 66
1, 641131, Note_off_c, 0, 50, 61
1, 641144, Note_on_c, 0, 63, 86
1, 641144, Note_on_c, 0, 51, 84
1, 641208, Note_off_c, 0, 51, 61
1, 641226, Note_off_c, 0, 63, 60
1, 641227, Note_on_c, 0, 50, 94
1, 641239, Note_on_c, 0, 38, 83
1, 641289, Note_off_c, 0, 50, 63
1, 641313, Note_on_c, 0, 63, 85
1, 641315, Note_off_c, 0, 38, 58
1, 641319, Note_on_c, 0, 51, 86
1, 641385, Note_off_c, 0, 51, 61
1, 641395, Note_off_c, 0, 63, 61
1, 641396, Note_on_c, 0, 50, 95
1, 641402, Note_on_c, 0, 38, 85
1, 641402, Poly_aftertouch_c, 0, 40, 0
1, 641458, Note_off_c, 0, 50, 63
1, 641487, Note_on_c, 0, 63, 89
1, 641491, Note_on_c, 0, 51, 87
1, 641502, Note_off_c, 0, 38, 60
1, 641573, Note_off_c, 0, 51, 60
1, 641592, Note_off_c, 0, 63, 59
1, 641690, Control_c, 0, 64, 82
1, 641690, Control_c, 1, 64, 82
1, 641703, Note_on_c, 0, 40, 89
1, 641706, Note_on_c, 0, 35, 82
1, 641709, Control_c, 0, 64, 26
1, 641709, Control_c, 1, 64, 26
1, 641712, Note_on_c, 0, 64, 88
1, 641713, Note_on_c, 0, 52, 90
1, 641714, Note_on_c, 0, 28, 84
1, 641714, Note_on_c, 0, 56, 86
1, 641734, Control_c, 0, 64, 0
1, 641734, Control_c, 1, 64, 0
1, 641750, Note_on_c, 0, 61, 45
1, 641788, Note_off_c, 0, 61, 49
1, 641838, Poly_aftertouch_c, 0, 58, 0
1, 641896, Control_c, 0, 64, 15
1, 641896, Control_c, 1, 64, 15
1, 641914, Control_c, 1, 64, 58
1, 641914, Control_c, 0, 64, 58
1, 641933, Control_c, 0, 64, 127
1, 641933, Control_c, 1, 64, 127
1, 642085, Note_off_c, 0, 28, 58
1, 642092, Note_off_c, 0, 64, 60
1, 642092, Poly_aftertouch_c, 0, 64, 0
1, 642127, Note_off_c, 0, 52, 56
1, 642127, Poly_aftertouch_c, 0, 52, 0
1, 642143, Note_off_c, 0, 56, 59
1, 642146, Note_off_c, 0, 40, 60
1, 642173, Note_off_c, 0, 35, 57
1, 642358, Note_on_c, 0, 40, 74
1, 642402, Note_off_c, 0, 40, 61
1, 642470, Note_on_c, 0, 39, 83
1, 642504, Note_off_c, 0, 39, 70
1, 642544, Note_on_c, 0, 40, 82
1, 642592, Note_off_c, 0, 40, 62
1, 642613, Note_on_c, 0, 39, 87
1, 642657, Note_off_c, 0, 39, 66
1, 642699, Note_on_c, 0, 40, 79
1, 642731, Note_off_c, 0, 40, 70
1, 642736, Note_on_c, 0, 41, 44
1, 642779, Note_off_c, 0, 41, 51
1, 642810, Note_on_c, 0, 51, 93
1, 642852, Control_c, 0, 64, 65
1, 642852, Control_c, 1, 64, 65
1, 642867, Note_off_c, 0, 51, 63
1, 642868, Control_c, 0, 64, 31
1, 642868, Control_c, 1, 64, 31
1, 642887, Note_on_c, 0, 52, 80
1, 642906, Control_c, 0, 64, 44
1, 642906, Control_c, 1, 64, 44
1, 642925, Control_c, 1, 64, 68
1, 642925, Control_c, 0, 64, 68
1, 642930, Note_off_c, 0, 52, 60
1, 642930, Poly_aftertouch_c, 0, 52, 0
1, 642944, Control_c, 0, 64, 103
1, 642944, Control_c, 1, 64, 103
1, 642963, Control_c, 1, 64, 127
1, 642963, Control_c, 0, 64, 127
1, 642974, Note_on_c, 0, 51, 89
1, 643019, Note_off_c, 0, 51, 59
1, 643055, Note_on_c, 0, 52, 87
1, 643103, Note_off_c, 0, 52, 60
1, 643103, Poly_aftertouch_c, 0, 52, 0
1, 643180, Note_on_c, 0, 63, 94
1, 643186, Control_c, 0, 64, 94
1, 643186, Control_c, 1, 64, 94
1, 643206, Control_c, 1, 64, 47
1, 643206, Control_c, 0, 64, 47
1, 643224, Control_c, 0, 64, 15
1, 643224, Control_c, 1, 64, 15
1, 643237, Note_off_c, 0, 63, 65
1, 643242, Control_c, 0, 64, 28
1, 643242, Control_c, 1, 64, 28
1, 643264, Control_c, 1, 64, 62
1, 643264, Control_c, 0, 64, 62
1, 643273, Note_on_c, 0, 64, 83
1, 643281, Control_c, 0, 64, 127
1, 643281, Control_c, 1, 64, 127
1, 643333, Note_off_c, 0, 64, 61
1, 643333, Poly_aftertouch_c, 0, 64, 0
1, 643365, Note_on_c, 0, 63, 88
1, 643393, Control_c, 0, 64, 74
1, 643393, Control_c, 1, 64, 74
1, 643413, Control_c, 1, 64, 46
1, 643413, Control_c, 0, 64, 46
1, 643430, Control_c, 0, 64, 52
1, 643430, Control_c, 1, 64, 52
1, 643439, Note_off_c, 0, 63, 62
1, 643449, Control_c, 0, 64, 77
1, 643449, Control_c, 1, 64, 77
1, 643454, Note_on_c, 0, 64, 83
1, 643469, Control_c, 0, 64, 127
1, 643469, Control_c, 1, 64, 127
1, 643516, Note_off_c, 0, 64, 59
1, 643516, Poly_aftertouch_c, 0, 64, 0
1, 643554, Note_on_c, 0, 63, 81
1, 643581, Control_c, 0, 64, 85
1, 643581, Control_c, 1, 64, 85
1, 643599, Control_c, 1, 64, 61
1, 643599, Control_c, 0, 64, 61
1, 643617, Note_off_c, 0, 63, 64
1, 643617, Control_c, 0, 64, 66
1, 643617, Control_c, 1, 64, 66
1, 643634, Note_on_c, 0, 64, 72
1, 643636, Control_c, 0, 64, 90
1, 643636, Control_c, 1, 64, 90
1, 643638, Control_c, 1, 67, 8
1, 643638, Control_c, 0, 67, 8
1, 643656, Control_c, 0, 64, 127
1, 643656, Control_c, 1, 64, 127
1, 643657, Control_c, 1, 67, 13
1, 643657, Control_c, 0, 67, 13
1, 643674, Control_c, 0, 67, 19
1, 643674, Control_c, 1, 67, 19
1, 643692, Control_c, 1, 67, 27
1, 643692, Control_c, 0, 67, 27
1, 643699, Note_off_c, 0, 64, 59
1, 643699, Poly_aftertouch_c, 0, 64, 0
1, 643712, Control_c, 0, 67, 36
1, 643712, Control_c, 1, 67, 36
1, 643730, Control_c, 1, 67, 44
1, 643730, Control_c, 0, 67, 44
1, 643737, Note_on_c, 0, 63, 77
1, 643749, Control_c, 0, 64, 83
1, 643749, Control_c, 1, 64, 83
1, 643750, Control_c, 1, 67, 51
1, 643750, Control_c, 0, 67, 51
1, 643768, Control_c, 0, 64, 72
1, 643768, Control_c, 1, 64, 72
1, 643770, Control_c, 1, 67, 55
1, 643770, Control_c, 0, 67, 55
1, 643787, Control_c, 0, 64, 87
1, 643787, Control_c, 1, 64, 87
1, 643790, Control_c, 1, 67, 60
1, 643790, Control_c, 0, 67, 60
1, 643802, Note_off_c, 0, 63, 59
1, 643805, Control_c, 0, 64, 127
1, 643805, Control_c, 1, 64, 127
1, 643806, Control_c, 1, 67, 68
1, 643806, Control_c, 0, 67, 68
1, 643820, Note_on_c, 0, 64, 64
1, 643823, Control_c, 0, 67, 78
1, 643823, Control_c, 1, 67, 78
1, 643843, Control_c, 1, 67, 88
1, 643843, Control_c, 0, 67, 88
1, 643862, Control_c, 0, 67, 97
1, 643862, Control_c, 1, 67, 97
1, 643864, Note_off_c, 0, 64, 61
1, 643864, Poly_aftertouch_c, 0, 64, 0
1, 643879, Control_c, 0, 67, 104
1, 643879, Control_c, 1, 67, 104
1, 643901, Control_c, 1, 64, 92
1, 643901, Control_c, 0, 64, 92
1, 643902, Control_c, 0, 67, 109
1, 643902, Control_c, 1, 67, 109
1, 643918, Control_c, 1, 64, 69
1, 643918, Control_c, 0, 64, 69
1, 643920, Control_c, 0, 67, 115
1, 643920, Control_c, 1, 67, 115
1, 643928, Note_on_c, 0, 63, 64
1, 643937, Control_c, 0, 64, 71
1, 643937, Control_c, 0, 67, 121
1, 643937, Control_c, 1, 64, 71
1, 643937, Control_c, 1, 67, 121
1, 643955, Control_c, 1, 64, 91
1, 643955, Control_c, 0, 64, 91
1, 643958, Control_c, 0, 67, 126
1, 643958, Control_c, 1, 67, 126
1, 643972, Note_off_c, 0, 63, 61
1, 643972, Control_c, 0, 64, 127
1, 643972, Control_c, 1, 64, 127
1, 644002, Note_on_c, 0, 64, 60
1, 644051, Note_off_c, 0, 64, 62
1, 644051, Poly_aftertouch_c, 0, 64, 0
1, 644096, Note_on_c, 0, 63, 68
1, 644105, Control_c, 0, 64, 90
1, 644105, Control_c, 1, 64, 90
1, 644123, Control_c, 1, 64, 72
1, 644123, Control_c, 0, 64, 72
1, 644142, Note_off_c, 0, 63, 59
1, 644142, Control_c, 0, 64, 77
1, 644142, Control_c, 1, 64, 77
1, 644161, Control_c, 1, 64, 100
1, 644161, Control_c, 0, 64, 100
1, 644179, Control_c, 0, 64, 127
1, 644179, Control_c, 1, 64, 127
1, 644186, Note_on_c, 0, 64, 54
1, 644252, Note_off_c, 0, 64, 58
1, 644252, Poly_aftertouch_c, 0, 64, 0
1, 644287, Note_on_c, 0, 63, 60
1, 644311, Control_c, 0, 64, 87
1, 644311, Control_c, 1, 64, 87
1, 644329, Control_c, 1, 64, 75
1, 644329, Control_c, 0, 64, 75
1, 644336, Note_off_c, 0, 63, 60
1, 644348, Control_c, 0, 64, 82
1, 644348, Control_c, 1, 64, 82
1, 644367, Control_c, 1, 64, 103
1, 644367, Control_c, 0, 64, 103
1, 644385, Control_c, 0, 64, 127
1, 644385, Control_c, 1, 64, 127
1, 644386, Note_on_c, 0, 64, 59
1, 644427, Note_off_c, 0, 64, 62
1, 644427, Poly_aftertouch_c, 0, 64, 0
1, 644478, Note_on_c, 0, 63, 55
1, 644522, Note_off_c, 0, 63, 58
1, 644559, Note_on_c, 0, 64, 69
1, 644667, Control_c, 0, 64, 76
1, 644667, Control_c, 1, 64, 76
1, 644684, Control_c, 1, 64, 44
1, 644684, Control_c, 0, 64, 44
1, 644691, Note_on_c, 0, 57, 54
1, 644697, Note_on_c, 0, 72, 69
1, 644699, Note_on_c, 0, 63, 37
1, 644704, Control_c, 0, 64, 28
1, 644704, Control_c, 1, 64, 28
1, 644709, Note_off_c, 0, 64, 36
1, 644709, Poly_aftertouch_c, 0, 64, 0
1, 644731, Note_off_c, 0, 63, 59
1, 644741, Control_c, 0, 64, 50
1, 644741, Control_c, 1, 64, 50
1, 644760, Control_c, 1, 64, 86
1, 644760, Control_c, 0, 64, 86
1, 644779, Control_c, 0, 64, 127
1, 644779, Control_c, 1, 64, 127
1, 644802, Note_on_c, 0, 64, 64
1, 644868, Note_on_c, 0, 63, 43
1, 644871, Note_off_c, 0, 64, 53
1, 644871, Poly_aftertouch_c, 0, 64, 0
1, 644871, Control_c, 0, 64, 104
1, 644871, Control_c, 1, 64, 104
1, 644875, Note_on_c, 0, 76, 73
1, 644876, Note_on_c, 0, 60, 63
1, 644890, Control_c, 0, 64, 68
1, 644890, Control_c, 1, 64, 68
1, 644907, Note_off_c, 0, 57, 51
1, 644909, Note_off_c, 0, 72, 46
1, 644909, Control_c, 0, 64, 52
1, 644909, Control_c, 1, 64, 52
1, 644917, Note_off_c, 0, 63, 60
1, 644928, Control_c, 0, 64, 59
1, 644928, Control_c, 1, 64, 59
1, 644946, Note_off_c, 0, 60, 53
1, 644946, Control_c, 0, 64, 79
1, 644946, Control_c, 1, 64, 79
1, 644966, Control_c, 1, 64, 127
1, 644966, Control_c, 0, 64, 127
1, 644977, Note_on_c, 0, 64, 65
1, 645040, Control_c, 0, 64, 118
1, 645040, Control_c, 1, 64, 118
1, 645052, Note_off_c, 0, 64, 59
1, 645052, Poly_aftertouch_c, 0, 64, 0
1, 645058, Control_c, 0, 64, 70
1, 645058, Control_c, 1, 64, 70
1, 645063, Note_on_c, 0, 74, 71
1, 645077, Control_c, 0, 64, 53
1, 645077, Control_c, 1, 64, 53
1, 645087, Note_on_c, 0, 59, 55
1, 645088, Note_on_c, 0, 63, 44
1, 645095, Control_c, 0, 64, 61
1, 645095, Control_c, 1, 64, 61
1, 645115, Control_c, 1, 64, 78
1, 645115, Control_c, 0, 64, 78
1, 645123, Note_off_c, 0, 76, 52
1, 645135, Control_c, 0, 64, 127
1, 645135, Control_c, 1, 64, 127
1, 645137, Note_off_c, 0, 63, 62
1, 645154, Note_on_c, 0, 64, 56
1, 645209, Note_off_c, 0, 59, 53
1, 645237, Note_on_c, 0, 72, 75
1, 645245, Note_off_c, 0, 64, 60
1, 645245, Poly_aftertouch_c, 0, 64, 0
1, 645269, Note_on_c, 0, 57, 56
1, 645271, Note_off_c, 0, 74, 59
1, 645279, Note_on_c, 0, 63, 42
1, 645283, Control_c, 0, 64, 108
1, 645283, Control_c, 1, 64, 108
1, 645317, Note_on_c, 0, 64, 61
1, 645320, Control_c, 0, 64, 127
1, 645320, Control_c, 1, 64, 127
1, 645329, Note_off_c, 0, 63, 57
1, 645351, Note_off_c, 0, 72, 53
1, 645396, Control_c, 0, 64, 112
1, 645396, Control_c, 1, 64, 112
1, 645414, Control_c, 1, 64, 70
1, 645414, Control_c, 0, 64, 70
1, 645422, Note_off_c, 0, 64, 53
1, 645422, Poly_aftertouch_c, 0, 64, 0
1, 645434, Control_c, 0, 64, 47
1, 645434, Control_c, 1, 64, 47
1, 645441, Note_on_c, 0, 71, 79
1, 645443, Note_off_c, 0, 57, 62
1, 645452, Note_on_c, 0, 56, 67
1, 645470, Control_c, 0, 64, 62
1, 645470, Control_c, 1, 64, 62
1, 645472, Note_on_c, 0, 63, 49
1, 645491, Control_c, 0, 64, 91
1, 645491, Control_c, 1, 64, 91
1, 645508, Control_c, 1, 64, 127
1, 645508, Control_c, 0, 64, 127
1, 645525, Note_off_c, 0, 63, 56
1, 645560, Note_on_c, 0, 64, 69
1, 645602, Control_c, 0, 64, 85
1, 645602, Control_c, 1, 64, 85
1, 645620, Control_c, 1, 64, 60
1, 645620, Control_c, 0, 64, 60
1, 645621, Note_off_c, 0, 56, 60
1, 645638, Control_c, 0, 64, 62
1, 645638, Control_c, 1, 64, 62
1, 645644, Note_on_c, 0, 52, 61
1, 645649, Note_on_c, 0, 68, 68
1, 645657, Control_c, 0, 64, 81
1, 645657, Control_c, 1, 64, 81
1, 645659, Note_on_c, 0, 63, 51
1, 645677, Note_off_c, 0, 64, 48
1, 645677, Poly_aftertouch_c, 0, 64, 0
1, 645677, Control_c, 0, 64, 127
1, 645677, Control_c, 1, 64, 127
1, 645692, Note_off_c, 0, 63, 61
1, 645712, Note_off_c, 0, 71, 55
1, 645749, Note_on_c, 0, 64, 51
1, 645770, Control_c, 0, 64, 73
1, 645770, Control_c, 1, 64, 73
1, 645789, Control_c, 1, 64, 54
1, 645789, Control_c, 0, 64, 54
1, 645809, Control_c, 0, 64, 62
1, 645809, Control_c, 1, 64, 62
1, 645826, Control_c, 1, 64, 88
1, 645826, Control_c, 0, 64, 88
1, 645832, Note_on_c, 0, 63, 54
1, 645842, Note_on_c, 0, 54, 71
1, 645845, Control_c, 0, 64, 127
1, 645845, Control_c, 1, 64, 127
1, 645848, Note_on_c, 0, 69, 78
1, 645855, Note_off_c, 0, 52, 59
1, 645855, Poly_aftertouch_c, 0, 52, 0
1, 645871, Note_off_c, 0, 64, 49
1, 645871, Poly_aftertouch_c, 0, 64, 0
1, 645873, Note_off_c, 0, 68, 59
1, 645884, Note_off_c, 0, 63, 62
1, 645901, Control_c, 0, 64, 114
1, 645901, Control_c, 1, 64, 114
1, 645920, Control_c, 1, 64, 76
1, 645920, Control_c, 0, 64, 76
1, 645940, Control_c, 0, 64, 54
1, 645940, Control_c, 1, 64, 54
1, 645955, Note_on_c, 0, 64, 52
1, 645958, Control_c, 0, 64, 58
1, 645958, Control_c, 1, 64, 58
1, 645977, Control_c, 1, 64, 76
1, 645977, Control_c, 0, 64, 76
1, 645995, Control_c, 0, 64, 127
1, 645995, Control_c, 1, 64, 127
1, 645997, Control_c, 1, 67, 117
1, 645997, Control_c, 0, 67, 117
1, 646014, Control_c, 0, 67, 111
1, 646014, Control_c, 1, 67, 111
1, 646020, Note_on_c, 0, 71, 74
1, 646025, Note_on_c, 0, 63, 64
1, 646027, Note_on_c, 0, 56, 71
1, 646031, Note_off_c, 0, 54, 63
1, 646050, Note_off_c, 0, 64, 58
1, 646050, Poly_aftertouch_c, 0, 64, 0
1, 646051, Control_c, 0, 64, 81
1, 646051, Control_c, 1, 64, 81
1, 646067, Note_off_c, 0, 69, 56
1, 646070, Control_c, 0, 64, 59
1, 646070, Control_c, 1, 64, 59
1, 646088, Control_c, 1, 64, 61
1, 646088, Control_c, 0, 64, 61
1, 646107, Control_c, 0, 64, 78
1, 646107, Control_c, 1, 64, 78
1, 646109, Control_c, 1, 67, 106
1, 646109, Control_c, 0, 67, 106
1, 646117, Note_off_c, 0, 63, 60
1, 646125, Control_c, 0, 64, 127
1, 646125, Control_c, 1, 64, 127
1, 646129, Control_c, 1, 67, 101
1, 646129, Control_c, 0, 67, 101
1, 646133, Note_on_c, 0, 64, 62
1, 646145, Control_c, 0, 67, 95
1, 646145, Control_c, 1, 67, 95
1, 646164, Note_off_c, 0, 71, 58
1, 646164, Control_c, 0, 67, 88
1, 646164, Control_c, 1, 67, 88
1, 646182, Control_c, 1, 67, 82
1, 646182, Control_c, 0, 67, 82
1, 646190, Note_off_c, 0, 56, 61
1, 646201, Control_c, 0, 64, 97
1, 646201, Control_c, 1, 64, 97
1, 646203, Control_c, 1, 67, 77
1, 646203, Control_c, 0, 67, 77
1, 646206, Note_on_c, 0, 57, 67
1, 646220, Control_c, 0, 64, 64
1, 646220, Control_c, 1, 64, 64
1, 646233, Note_off_c, 0, 64, 59
1, 646233, Poly_aftertouch_c, 0, 64, 0
1, 646234, Note_on_c, 0, 72, 78
1, 646240, Control_c, 0, 64, 49
1, 646240, Control_c, 1, 64, 49
1, 646241, Control_c, 1, 67, 72
1, 646241, Note_on_c, 0, 63, 52
1, 646241, Control_c, 0, 67, 72
1, 646258, Control_c, 0, 64, 60
1, 646258, Control_c, 1, 64, 60
1, 646277, Note_off_c, 0, 63, 64
1, 646277, Control_c, 0, 64, 88
1, 646277, Control_c, 1, 64, 88
1, 646294, Control_c, 1, 64, 127
1, 646294, Control_c, 0, 64, 127
1, 646295, Control_c, 0, 67, 65
1, 646295, Control_c, 1, 67, 65
1, 646314, Control_c, 1, 67, 61
1, 646314, Control_c, 0, 67, 61
1, 646347, Note_on_c, 0, 64, 64
1, 646371, Control_c, 0, 64, 90
1, 646371, Control_c, 1, 64, 90
1, 646388, Control_c, 1, 64, 59
1, 646388, Control_c, 0, 64, 59
1, 646407, Control_c, 0, 64, 54
1, 646407, Control_c, 1, 64, 54
1, 646412, Note_on_c, 0, 76, 78
1, 646421, Note_off_c, 0, 64, 55
1, 646421, Poly_aftertouch_c, 0, 64, 0
1, 646423, Note_on_c, 0, 63, 47
1, 646425, Control_c, 0, 64, 70
1, 646425, Control_c, 1, 64, 70
1, 646431, Note_on_c, 0, 60, 63
1, 646444, Note_off_c, 0, 57, 60
1, 646444, Control_c, 0, 64, 127
1, 646444, Control_c, 1, 64, 127
1, 646450, Note_off_c, 0, 72, 57
1, 646473, Note_off_c, 0, 63, 61
1, 646503, Note_on_c, 0, 64, 68
1, 646556, Control_c, 0, 64, 71
1, 646556, Control_c, 1, 64, 71
1, 646576, Control_c, 1, 64, 40
1, 646576, Control_c, 0, 64, 40
1, 646593, Control_c, 0, 64, 34
1, 646593, Control_c, 1, 64, 34
1, 646595, Note_off_c, 0, 60, 60
1, 646596, Note_on_c, 0, 74, 79
1, 646602, Note_off_c, 0, 64, 59
1, 646602, Poly_aftertouch_c, 0, 64, 0
1, 646604, Note_on_c, 0, 63, 61
1, 646613, Control_c, 0, 64, 49
1, 646613, Control_c, 1, 64, 49
1, 646620, Note_on_c, 0, 59, 59
1, 646631, Control_c, 0, 64, 91
1, 646631, Control_c, 1, 64, 91
1, 646650, Control_c, 1, 64, 127
1, 646650, Control_c, 0, 64, 127
1, 646661, Note_off_c, 0, 63, 60
1, 646683, Note_off_c, 0, 76, 59
1, 646686, Note_on_c, 0, 64, 73
1, 646725, Control_c, 0, 64, 101
1, 646725, Control_c, 1, 64, 101
1, 646745, Control_c, 1, 64, 61
1, 646745, Control_c, 0, 64, 61
1, 646762, Control_c, 0, 64, 49
1, 646762, Control_c, 1, 64, 49
1, 646772, Note_on_c, 0, 72, 76
1, 646774, Note_off_c, 0, 59, 60
1, 646781, Control_c, 0, 64, 63
1, 646781, Control_c, 1, 64, 63
1, 646784, Note_off_c, 0, 64, 59
1, 646784, Poly_aftertouch_c, 0, 64, 0
1, 646795, Note_on_c, 0, 57, 63
1, 646798, Note_on_c, 0, 63, 66
1, 646799, Control_c, 0, 64, 101
1, 646799, Control_c, 1, 64, 101
1, 646800, Note_off_c, 0, 74, 57
1, 646818, Control_c, 0, 64, 127
1, 646818, Control_c, 1, 64, 127
1, 646837, Control_c, 1, 67, 65
1, 646837, Control_c, 0, 67, 65
1, 646839, Note_off_c, 0, 63, 62
1, 646879, Note_on_c, 0, 64, 70
1, 646896, Note_off_c, 0, 72, 59
1, 646931, Control_c, 0, 64, 77
1, 646931, Control_c, 1, 64, 77
1, 646950, Control_c, 1, 64, 47
1, 646950, Control_c, 0, 64, 47
1, 646967, Control_c, 0, 64, 41
1, 646967, Control_c, 1, 64, 41
1, 646976, Note_on_c, 0, 71, 73
1, 646989, Control_c, 0, 64, 56
1, 646989, Control_c, 1, 64, 56
1, 646990, Note_off_c, 0, 57, 61
1, 646990, Control_c, 0, 67, 69
1, 646990, Control_c, 1, 67, 69
1, 646995, Note_on_c, 0, 56, 63
1, 647002, Note_on_c, 0, 63, 51
1, 647007, Note_off_c, 0, 64, 58
1, 647007, Poly_aftertouch_c, 0, 64, 0
1, 647008, Control_c, 0, 64, 91
1, 647008, Control_c, 1, 64, 91
1, 647024, Control_c, 1, 64, 127
1, 647024, Control_c, 0, 64, 127
1, 647025, Control_c, 0, 67, 75
1, 647025, Control_c, 1, 67, 75
1, 647044, Control_c, 1, 67, 81
1, 647044, Control_c, 0, 67, 81
1, 647053, Note_off_c, 0, 63, 59
1, 647061, Control_c, 0, 67, 85
1, 647061, Control_c, 1, 67, 85
1, 647098, Control_c, 1, 64, 103
1, 647098, Note_on_c, 0, 64, 65
1, 647098, Control_c, 0, 64, 103
1, 647119, Control_c, 0, 64, 61
1, 647119, Control_c, 1, 64, 61
1, 647136, Control_c, 1, 64, 43
1, 647136, Control_c, 0, 64, 43
1, 647155, Control_c, 0, 64, 51
1, 647155, Control_c, 1, 64, 51
1, 647162, Note_off_c, 0, 56, 59
1, 647173, Control_c, 0, 64, 73
1, 647173, Control_c, 1, 64, 73
1, 647187, Note_off_c, 0, 64, 56
1, 647187, Poly_aftertouch_c, 0, 64, 0
1, 647190, Note_on_c, 0, 52, 53
1, 647193, Control_c, 0, 64, 127
1, 647193, Control_c, 1, 64, 127
1, 647195, Control_c, 1, 67, 89
1, 647195, Control_c, 0, 67, 89
1, 647198, Note_on_c, 0, 68, 68
1, 647204, Note_on_c, 0, 63, 49
1, 647211, Control_c, 0, 67, 94
1, 647211, Control_c, 1, 67, 94
1, 647226, Note_off_c, 0, 71, 51
1, 647229, Control_c, 0, 67, 99
1, 647229, Control_c, 1, 67, 99
1, 647249, Note_off_c, 0, 63, 64
1, 647296, Note_on_c, 0, 64, 59
1, 647362, Control_c, 0, 64, 76
1, 647362, Control_c, 1, 64, 76
1, 647364, Control_c, 1, 67, 104
1, 647364, Control_c, 0, 67, 104
1, 647378, Note_on_c, 0, 63, 55
1, 647378, Note_on_c, 0, 69, 72
1, 647379, Note_off_c, 0, 64, 62
1, 647379, Poly_aftertouch_c, 0, 64, 0
1, 647381, Control_c, 0, 64, 49
1, 647381, Control_c, 1, 64, 49
1, 647382, Control_c, 1, 67, 109
1, 647382, Control_c, 0, 67, 109
1, 647384, Note_off_c, 0, 52, 61
1, 647384, Poly_aftertouch_c, 0, 52, 0
1, 647389, Note_on_c, 0, 54, 62
1, 647391, Note_off_c, 0, 68, 53
1, 647400, Control_c, 0, 64, 41
1, 647400, Control_c, 1, 64, 41
1, 647401, Control_c, 1, 67, 114
1, 647401, Control_c, 0, 67, 114
1, 647418, Control_c, 0, 64, 46
1, 647418, Control_c, 1, 64, 46
1, 647419, Control_c, 1, 67, 119
1, 647419, Control_c, 0, 67, 119
1, 647429, Note_off_c, 0, 63, 60
1, 647436, Control_c, 0, 64, 65
1, 647436, Control_c, 1, 64, 65
1, 647456, Control_c, 1, 64, 101
1, 647456, Control_c, 0, 64, 101
1, 647458, Control_c, 0, 67, 123
1, 647458, Control_c, 1, 67, 123
1, 647474, Control_c, 1, 64, 127
1, 647474, Control_c, 0, 64, 127
1, 647485, Note_on_c, 0, 64, 57
1, 647490, Note_off_c, 0, 69, 47
1, 647510, Control_c, 0, 67, 127
1, 647510, Control_c, 1, 67, 127
1, 647540, Note_off_c, 0, 64, 56
1, 647540, Poly_aftertouch_c, 0, 64, 0
1, 647553, Note_on_c, 0, 71, 70
1, 647554, Note_on_c, 0, 56, 65
1, 647556, Note_off_c, 0, 54, 57
1, 647569, Note_on_c, 0, 63, 59
1, 647608, Note_off_c, 0, 63, 65
1, 647612, Note_off_c, 0, 71, 59
1, 647628, Note_off_c, 0, 56, 61
1, 647640, Note_on_c, 0, 64, 46
1, 647676, Note_off_c, 0, 64, 56
1, 647676, Poly_aftertouch_c, 0, 64, 0
1, 647718, Control_c, 0, 64, 86
1, 647718, Control_c, 1, 64, 86
1, 647736, Control_c, 1, 64, 61
1, 647736, Control_c, 0, 64, 61
1, 647754, Control_c, 0, 64, 43
1, 647754, Control_c, 1, 64, 43
1, 647773, Control_c, 1, 64, 38
1, 647773, Control_c, 0, 64, 38
1, 647779, Note_on_c, 0, 84, 79
1, 647791, Note_on_c, 0, 57, 53
1, 647803, Note_on_c, 0, 63, 47
1, 647842, Poly_aftertouch_c, 0, 59, 0
1, 647843, Note_off_c, 0, 84, 55
1, 647848, Note_off_c, 0, 63, 65
1, 647848, Control_c, 0, 64, 30
1, 647848, Control_c, 1, 64, 30
1, 647866, Note_off_c, 0, 57, 61
1, 647866, Control_c, 0, 64, 20
1, 647866, Control_c, 1, 64, 20
1, 647873, Note_on_c, 0, 72, 64
1, 647886, Control_c, 0, 64, 8
1, 647886, Control_c, 1, 64, 8
1, 647904, Note_on_c, 0, 64, 68
1, 647907, Note_off_c, 0, 72, 67
1, 647923, Control_c, 0, 64, 0
1, 647923, Control_c, 1, 64, 0
1, 647954, Note_off_c, 0, 64, 56
1, 647954, Poly_aftertouch_c, 0, 64, 0
1, 647969, Note_on_c, 0, 63, 49
1, 647974, Note_on_c, 0, 60, 51
1, 647988, Note_on_c, 0, 89, 70
1, 647993, Note_on_c, 0, 88, 60
1, 648012, Note_off_c, 0, 89, 66
1, 648024, Note_off_c, 0, 88, 65
1, 648028, Note_off_c, 0, 60, 61
1, 648059, Note_off_c, 0, 63, 63
1, 648061, Note_on_c, 0, 76, 69
1, 648087, Note_on_c, 0, 64, 66
1, 648113, Note_off_c, 0, 76, 64
1, 648138, Note_off_c, 0, 64, 59
1, 648138, Poly_aftertouch_c, 0, 64, 0
1, 648149, Note_on_c, 0, 86, 73
1, 648155, Note_on_c, 0, 59, 58
1, 648164, Note_on_c, 0, 63, 55
1, 648182, Note_off_c, 0, 86, 63
1, 648202, Note_off_c, 0, 59, 62
1, 648210, Note_off_c, 0, 63, 64
1, 648232, Note_on_c, 0, 74, 70
1, 648253, Note_on_c, 0, 64, 64
1, 648274, Note_off_c, 0, 74, 62
1, 648296, Note_off_c, 0, 64, 55
1, 648296, Poly_aftertouch_c, 0, 64, 0
1, 648325, Note_on_c, 0, 84, 75
1, 648326, Note_on_c, 0, 57, 63
1, 648344, Note_on_c, 0, 63, 53
1, 648366, Note_off_c, 0, 84, 60
1, 648373, Note_off_c, 0, 57, 63
1, 648382, Note_off_c, 0, 63, 65
1, 648411, Note_on_c, 0, 72, 64
1, 648418, Note_on_c, 0, 64, 70
1, 648461, Note_off_c, 0, 72, 57
1, 648469, Note_off_c, 0, 64, 59
1, 648469, Poly_aftertouch_c, 0, 64, 0
1, 648495, Note_on_c, 0, 63, 56
1, 648495, Note_on_c, 0, 83, 82
1, 648504, Note_on_c, 0, 56, 73
1, 648542, Note_off_c, 0, 63, 62
1, 648547, Note_off_c, 0, 83, 60
1, 648558, Note_off_c, 0, 56, 63
1, 648595, Note_on_c, 0, 71, 61
1, 648602, Note_on_c, 0, 64, 61
1, 648625, Note_off_c, 0, 71, 64
1, 648630, Note_off_c, 0, 64, 62
1, 648630, Poly_aftertouch_c, 0, 64, 0
1, 648664, Note_on_c, 0, 52, 65
1, 648672, Note_on_c, 0, 80, 81
1, 648706, Note_on_c, 0, 53, 27
1, 648733, Note_on_c, 0, 78, 11
1, 648734, Note_off_c, 0, 78, 43
1, 648742, Note_off_c, 0, 52, 61
1, 648742, Poly_aftertouch_c, 0, 52, 0
1, 648748, Note_off_c, 0, 80, 62
1, 648749, Poly_aftertouch_c, 0, 63, 127
1, 648758, Poly_aftertouch_c, 0, 63, 0
1, 648762, Note_off_c, 0, 53, 33
1, 648766, Note_on_c, 0, 68, 66
1, 648778, Note_on_c, 0, 64, 57
1, 648815, Note_off_c, 0, 68, 65
1, 648825, Note_off_c, 0, 64, 60
1, 648825, Poly_aftertouch_c, 0, 64, 0
1, 648855, Note_on_c, 0, 81, 73
1, 648870, Note_on_c, 0, 54, 71
1, 648914, Note_off_c, 0, 81, 56
1, 648914, Poly_aftertouch_c, 0, 63, 0
1, 648929, Note_off_c, 0, 54, 59
1, 648943, Note_on_c, 0, 69, 64
1, 648981, Note_on_c, 0, 64, 53
1, 648987, Note_off_c, 0, 69, 56
1, 649031, Note_on_c, 0, 63, 67
1, 649032, Note_off_c, 0, 64, 63
1, 649032, Poly_aftertouch_c, 0, 64, 0
1, 649037, Note_on_c, 0, 83, 77
1, 649040, Note_on_c, 0, 56, 63
1, 649087, Note_off_c, 0, 56, 61
1, 649088, Note_off_c, 0, 63, 60
1, 649093, Note_off_c, 0, 83, 61
1, 649130, Note_on_c, 0, 71, 65
1, 649134, Note_on_c, 0, 64, 74
1, 649171, Note_off_c, 0, 71, 60
1, 649193, Note_off_c, 0, 64, 58
1, 649193, Poly_aftertouch_c, 0, 64, 0
1, 649231, Note_on_c, 0, 84, 80
1, 649233, Note_on_c, 0, 57, 76
1, 649242, Note_on_c, 0, 63, 64
1, 649276, Note_off_c, 0, 63, 63
1, 649294, Note_off_c, 0, 84, 63
1, 649303, Note_off_c, 0, 57, 60
1, 649324, Note_on_c, 0, 72, 67
1, 649339, Note_on_c, 0, 64, 76
1, 649358, Note_off_c, 0, 72, 67
1, 649383, Note_off_c, 0, 64, 61
1, 649383, Poly_aftertouch_c, 0, 64, 0
1, 649417, Note_on_c, 0, 60, 63
1, 649419, Note_on_c, 0, 63, 54
1, 649423, Note_on_c, 0, 88, 79
1, 649464, Note_off_c, 0, 63, 65
1, 649468, Note_off_c, 0, 60, 60
1, 649474, Note_off_c, 0, 88, 64
1, 649505, Note_on_c, 0, 76, 69
1, 649508, Note_on_c, 0, 64, 69
1, 649565, Note_off_c, 0, 76, 61
1, 649581, Note_off_c, 0, 64, 57
1, 649581, Poly_aftertouch_c, 0, 64, 0
1, 649586, Note_on_c, 0, 63, 61
1, 649593, Note_on_c, 0, 86, 79
1, 649603, Note_on_c, 0, 59, 60
1, 649638, Note_off_c, 0, 63, 56
1, 649642, Note_off_c, 0, 86, 62
1, 649645, Note_off_c, 0, 59, 63
1, 649689, Note_on_c, 0, 74, 69
1, 649693, Note_on_c, 0, 64, 65
1, 649735, Note_off_c, 0, 64, 57
1, 649735, Poly_aftertouch_c, 0, 64, 0
1, 649737, Note_off_c, 0, 74, 60
1, 649766, Note_on_c, 0, 84, 76
1, 649769, Note_on_c, 0, 57, 67
1, 649790, Note_on_c, 0, 63, 44
1, 649814, Note_off_c, 0, 84, 64
1, 649826, Note_off_c, 0, 57, 63
1, 649827, Note_off_c, 0, 63, 56
1, 649861, Note_on_c, 0, 72, 69
1, 649866, Note_on_c, 0, 64, 65
1, 649904, Note_off_c, 0, 64, 65
1, 649904, Poly_aftertouch_c, 0, 64, 0
1, 649914, Note_off_c, 0, 72, 62
1, 649925, Note_on_c, 0, 63, 53
1, 649944, Note_on_c, 0, 83, 77
1, 649948, Note_on_c, 0, 56, 66
1, 649984, Note_off_c, 0, 63, 60
1, 649990, Note_off_c, 0, 83, 63
1, 649996, Note_off_c, 0, 56, 65
1, 650036, Note_on_c, 0, 64, 62
1, 650040, Note_on_c, 0, 71, 67
1, 650073, Note_off_c, 0, 64, 64
1, 650073, Poly_aftertouch_c, 0, 64, 0
1, 650079, Note_off_c, 0, 71, 62
1, 650113, Control_c, 0, 64, 16
1, 650113, Control_c, 1, 64, 16
1, 650124, Note_on_c, 0, 52, 57
1, 650126, Note_on_c, 0, 80, 80
1, 650132, Control_c, 0, 64, 38
1, 650132, Control_c, 1, 64, 38
1, 650151, Control_c, 1, 64, 63
1, 650151, Control_c, 0, 64, 63
1, 650169, Control_c, 0, 64, 81
1, 650169, Control_c, 1, 64, 81
1, 650188, Control_c, 1, 64, 99
1, 650188, Control_c, 0, 64, 99
1, 650196, Note_off_c, 0, 52, 59
1, 650196, Poly_aftertouch_c, 0, 52, 0
1, 650197, Note_off_c, 0, 80, 59
1, 650207, Control_c, 0, 64, 127
1, 650207, Control_c, 1, 64, 127
1, 650224, Note_on_c, 0, 68, 71
1, 650232, Note_on_c, 0, 64, 63
1, 650241, Poly_aftertouch_c, 0, 53, 0
1, 650257, Poly_aftertouch_c, 0, 78, 0
1, 650271, Note_off_c, 0, 64, 65
1, 650271, Poly_aftertouch_c, 0, 64, 0
1, 650280, Note_off_c, 0, 68, 60
1, 650314, Note_on_c, 0, 81, 73
1, 650335, Note_on_c, 0, 54, 63
1, 650341, Note_on_c, 0, 63, 48
1, 650367, Note_off_c, 0, 81, 55
1, 650402, Note_off_c, 0, 54, 61
1, 650407, Note_on_c, 0, 69, 69
1, 650431, Control_c, 0, 64, 116
1, 650431, Control_c, 1, 64, 116
1, 650445, Note_off_c, 0, 63, 61
1, 650449, Control_c, 0, 64, 87
1, 650449, Control_c, 1, 64, 87
1, 650451, Note_off_c, 0, 69, 58
1, 650456, Note_on_c, 0, 64, 57
1, 650469, Control_c, 0, 64, 70
1, 650469, Control_c, 1, 64, 70
1, 650487, Control_c, 1, 64, 67
1, 650487, Control_c, 0, 64, 67
1, 650499, Note_on_c, 0, 83, 75
1, 650503, Note_on_c, 0, 56, 58
1, 650504, Control_c, 0, 64, 76
1, 650504, Control_c, 1, 64, 76
1, 650511, Note_off_c, 0, 64, 57
1, 650511, Poly_aftertouch_c, 0, 64, 0
1, 650525, Control_c, 0, 64, 92
1, 650525, Control_c, 1, 64, 92
1, 650540, Note_off_c, 0, 56, 63
1, 650542, Control_c, 0, 64, 127
1, 650542, Control_c, 1, 64, 127
1, 650570, Note_on_c, 0, 71, 74
1, 650573, Note_off_c, 0, 83, 61
1, 650594, Note_on_c, 0, 64, 36
1, 650594, Poly_aftertouch_c, 0, 80, 0
1, 650600, Control_c, 0, 67, 123
1, 650600, Control_c, 1, 67, 123
1, 650637, Control_c, 1, 67, 118
1, 650637, Control_c, 0, 67, 118
1, 650638, Note_off_c, 0, 64, 44
1, 650638, Poly_aftertouch_c, 0, 64, 0
1, 650714, Note_off_c, 0, 71, 64
1, 650714, Note_on_c, 0, 71, 42
1, 650767, Control_c, 0, 64, 79
1, 650767, Control_c, 1, 64, 79
1, 650787, Control_c, 1, 64, 44
1, 650787, Control_c, 0, 64, 44
1, 650796, Note_off_c, 0, 71, 62
1, 650804, Note_on_c, 0, 73, 61
1, 650805, Note_on_c, 0, 57, 59
1, 650806, Control_c, 0, 64, 13
1, 650806, Control_c, 1, 64, 13
1, 650819, Note_on_c, 0, 68, 54
1, 650823, Control_c, 0, 64, 9
1, 650823, Control_c, 1, 64, 9
1, 650842, Control_c, 1, 64, 19
1, 650842, Control_c, 0, 64, 19
1, 650862, Control_c, 0, 64, 43
1, 650862, Control_c, 1, 64, 43
1, 650866, Note_off_c, 0, 68, 62
1, 650881, Control_c, 0, 64, 77
1, 650881, Control_c, 1, 64, 77
1, 650899, Control_c, 1, 64, 127
1, 650899, Control_c, 0, 64, 127
1, 650936, Control_c, 0, 67, 114
1, 650936, Control_c, 1, 67, 114
1, 650942, Note_on_c, 0, 69, 69
1, 650947, Note_off_c, 0, 73, 62
1, 650973, Control_c, 0, 67, 107
1, 650973, Control_c, 1, 67, 107
1, 650993, Control_c, 1, 64, 109
1, 650993, Control_c, 0, 64, 109
1, 650994, Control_c, 0, 67, 103
1, 650994, Control_c, 1, 67, 103
1, 651000, Note_off_c, 0, 57, 61
1, 651005, Note_on_c, 0, 74, 65
1, 651012, Control_c, 0, 64, 76
1, 651012, Control_c, 1, 64, 76
1, 651014, Control_c, 1, 67, 99
1, 651014, Control_c, 0, 67, 99
1, 651025, Note_off_c, 0, 69, 51
1, 651025, Note_on_c, 0, 59, 63
1, 651029, Control_c, 0, 64, 61
1, 651029, Control_c, 1, 64, 61
1, 651032, Note_on_c, 0, 68, 54
1, 651048, Control_c, 0, 64, 67
1, 651048, Control_c, 1, 64, 67
1, 651049, Control_c, 1, 67, 94
1, 651049, Control_c, 0, 67, 94
1, 651069, Control_c, 0, 64, 85
1, 651069, Control_c, 1, 64, 85
1, 651075, Note_off_c, 0, 68, 66
1, 651087, Control_c, 0, 64, 127
1, 651087, Control_c, 1, 64, 127
1, 651115, Note_on_c, 0, 69, 65
1, 651162, Control_c, 0, 67, 90
1, 651162, Control_c, 1, 67, 90
1, 651174, Note_on_c, 0, 76, 75
1, 651180, Control_c, 0, 64, 80
1, 651180, Control_c, 1, 64, 80
1, 651195, Note_on_c, 0, 61, 69
1, 651198, Control_c, 0, 64, 50
1, 651198, Control_c, 1, 64, 50
1, 651200, Control_c, 1, 67, 84
1, 651200, Control_c, 0, 67, 84
1, 651203, Note_off_c, 0, 69, 56
1, 651213, Note_off_c, 0, 59, 59
1, 651213, Note_on_c, 0, 68, 51
1, 651216, Control_c, 0, 64, 44
1, 651216, Control_c, 1, 64, 44
1, 651236, Control_c, 1, 64, 61
1, 651236, Control_c, 0, 64, 61
1, 651237, Control_c, 0, 67, 78
1, 651237, Control_c, 1, 67, 78
1, 651249, Note_off_c, 0, 74, 52
1, 651253, Note_off_c, 0, 68, 64
1, 651255, Control_c, 0, 64, 91
1, 651255, Control_c, 1, 64, 91
1, 651274, Control_c, 1, 64, 127
1, 651274, Control_c, 0, 64, 127
1, 651275, Control_c, 0, 67, 73
1, 651275, Control_c, 1, 67, 73
1, 651288, Note_on_c, 0, 69, 73
1, 651349, Control_c, 0, 64, 76
1, 651349, Control_c, 1, 64, 76
1, 651352, Control_c, 1, 67, 67
1, 651352, Control_c, 0, 67, 67
1, 651361, Note_on_c, 0, 73, 76
1, 651364, Note_off_c, 0, 61, 57
1, 651367, Note_on_c, 0, 57, 65
1, 651368, Control_c, 0, 64, 49
1, 651368, Control_c, 1, 64, 49
1, 651378, Note_on_c, 0, 68, 63
1, 651385, Control_c, 0, 64, 47
1, 651385, Control_c, 1, 64, 47
1, 651386, Control_c, 1, 67, 60
1, 651386, Control_c, 0, 67, 60
1, 651394, Note_off_c, 0, 69, 58
1, 651405, Control_c, 0, 64, 65
1, 651405, Control_c, 1, 64, 65
1, 651415, Note_off_c, 0, 68, 64
1, 651423, Control_c, 0, 64, 97
1, 651423, Control_c, 1, 64, 97
1, 651442, Control_c, 1, 64, 127
1, 651442, Control_c, 0, 64, 127
1, 651462, Note_on_c, 0, 69, 71
1, 651483, Note_off_c, 0, 73, 59
1, 651494, Note_off_c, 0, 76, 56
1, 651517, Control_c, 0, 67, 55
1, 651517, Control_c, 1, 67, 55
1, 651535, Control_c, 1, 64, 77
1, 651535, Control_c, 0, 64, 77
1, 651554, Control_c, 0, 64, 45
1, 651554, Control_c, 1, 64, 45
1, 651562, Note_on_c, 0, 68, 68
1, 651563, Note_on_c, 0, 77, 82
1, 651564, Note_on_c, 0, 62, 67
1, 651572, Control_c, 0, 64, 31
1, 651572, Control_c, 0, 67, 51
1, 651572, Control_c, 1, 64, 31
1, 651572, Control_c, 1, 67, 51
1, 651577, Note_off_c, 0, 69, 56
1, 651581, Note_off_c, 0, 57, 56
1, 651591, Control_c, 0, 64, 42
1, 651591, Control_c, 1, 64, 42
1, 651611, Control_c, 1, 64, 73
1, 651611, Control_c, 0, 64, 73
1, 651629, Control_c, 0, 64, 127
1, 651629, Control_c, 1, 64, 127
1, 651638, Note_off_c, 0, 68, 60
1, 651672, Note_on_c, 0, 69, 69
1, 651674, Note_off_c, 0, 62, 56
1, 651723, Control_c, 0, 64, 108
1, 651723, Control_c, 1, 64, 108
1, 651732, Note_on_c, 0, 61, 68
1, 651735, Note_on_c, 0, 76, 80
1, 651742, Control_c, 0, 64, 68
1, 651742, Control_c, 1, 64, 68
1, 651761, Control_c, 1, 64, 47
1, 651761, Control_c, 0, 64, 47
1, 651767, Note_off_c, 0, 69, 54
1, 651773, Note_on_c, 0, 68, 58
1, 651774, Note_off_c, 0, 77, 59
1, 651779, Control_c, 0, 64, 52
1, 651779, Control_c, 1, 64, 52
1, 651797, Control_c, 1, 64, 76
1, 651797, Control_c, 0, 64, 76
1, 651816, Note_off_c, 0, 68, 66
1, 651816, Control_c, 0, 64, 127
1, 651816, Control_c, 1, 64, 127
1, 651849, Note_on_c, 0, 69, 69
1, 651891, Control_c, 0, 64, 108
1, 651891, Control_c, 1, 64, 108
1, 651909, Control_c, 1, 64, 69
1, 651909, Control_c, 0, 64, 69
1, 651925, Note_on_c, 0, 77, 80
1, 651928, Control_c, 0, 64, 56
1, 651928, Control_c, 1, 64, 56
1, 651939, Note_on_c, 0, 68, 64
1, 651940, Note_off_c, 0, 69, 59
1, 651940, Note_on_c, 0, 62, 67
1, 651946, Note_off_c, 0, 76, 59
1, 651947, Control_c, 0, 64, 69
1, 651947, Control_c, 1, 64, 69
1, 651953, Note_off_c, 0, 61, 56
1, 651966, Control_c, 0, 64, 104
1, 651966, Control_c, 1, 64, 104
1, 651984, Control_c, 1, 64, 127
1, 651984, Control_c, 0, 64, 127
1, 652025, Note_on_c, 0, 69, 69
1, 652030, Note_off_c, 0, 77, 62
1, 652035, Note_off_c, 0, 68, 53
1, 652060, Control_c, 0, 64, 93
1, 652060, Control_c, 1, 64, 93
1, 652079, Control_c, 1, 64, 61
1, 652079, Control_c, 0, 64, 61
1, 652090, Note_off_c, 0, 69, 60
1, 652097, Control_c, 0, 64, 52
1, 652097, Control_c, 1, 64, 52
1, 652111, Note_on_c, 0, 75, 81
1, 652114, Control_c, 0, 64, 67
1, 652114, Control_c, 1, 64, 67
1, 652115, Control_c, 1, 67, 47
1, 652115, Control_c, 0, 67, 47
1, 652127, Note_on_c, 0, 67, 63
1, 652128, Note_on_c, 0, 60, 62
1, 652133, Control_c, 0, 64, 118
1, 652133, Control_c, 1, 64, 118
1, 652155, Control_c, 1, 64, 127
1, 652155, Control_c, 0, 64, 127
1, 652167, Note_off_c, 0, 67, 66
1, 652187, Note_off_c, 0, 62, 45
1, 652207, Control_c, 0, 67, 52
1, 652207, Control_c, 1, 67, 52
1, 652212, Note_on_c, 0, 68, 75
1, 652229, Control_c, 0, 64, 85
1, 652229, Control_c, 1, 64, 85
1, 652248, Control_c, 1, 64, 54
1, 652248, Control_c, 0, 64, 54
1, 652265, Control_c, 0, 64, 40
1, 652265, Control_c, 1, 64, 40
1, 652285, Control_c, 1, 64, 51
1, 652285, Control_c, 0, 64, 51
1, 652297, Note_on_c, 0, 74, 77
1, 652298, Note_off_c, 0, 68, 56
1, 652303, Control_c, 0, 64, 87
1, 652303, Control_c, 1, 64, 87
1, 652311, Note_on_c, 0, 59, 60
1, 652312, Note_on_c, 0, 66, 65
1, 652320, Note_off_c, 0, 60, 37
1, 652322, Control_c, 0, 64, 127
1, 652322, Control_c, 1, 64, 127
1, 652324, Control_c, 1, 67, 56
1, 652324, Control_c, 0, 67, 56
1, 652358, Note_off_c, 0, 66, 56
1, 652362, Note_off_c, 0, 75, 30
1, 652378, Control_c, 0, 67, 60
1, 652378, Control_c, 1, 67, 60
1, 652385, Note_on_c, 0, 67, 74
1, 652396, Control_c, 0, 64, 95
1, 652396, Control_c, 1, 64, 95
1, 652416, Control_c, 1, 64, 69
1, 652416, Control_c, 0, 64, 69
1, 652434, Control_c, 0, 64, 72
1, 652434, Control_c, 1, 64, 72
1, 652452, Control_c, 1, 64, 98
1, 652452, Control_c, 0, 64, 98
1, 652471, Control_c, 0, 64, 127
1, 652471, Control_c, 1, 64, 127
1, 652478, Note_off_c, 0, 59, 59
1, 652483, Note_off_c, 0, 67, 50
1, 652491, Note_on_c, 0, 57, 66
1, 652493, Note_on_c, 0, 72, 80
1, 652507, Note_on_c, 0, 66, 63
1, 652508, Control_c, 0, 64, 105
1, 652508, Control_c, 1, 64, 105
1, 652527, Control_c, 1, 64, 66
1, 652527, Control_c, 0, 64, 66
1, 652529, Control_c, 0, 67, 67
1, 652529, Control_c, 1, 67, 67
1, 652547, Control_c, 1, 64, 44
1, 652547, Control_c, 1, 67, 73
1, 652547, Control_c, 0, 64, 44
1, 652547, Control_c, 0, 67, 73
1, 652550, Note_off_c, 0, 66, 59
1, 652551, Note_off_c, 0, 74, 51
1, 652565, Control_c, 0, 64, 47
1, 652565, Control_c, 1, 64, 47
1, 652584, Control_c, 1, 64, 68
1, 652584, Control_c, 0, 64, 68
1, 652593, Note_on_c, 0, 67, 72
1, 652604, Control_c, 0, 64, 127
1, 652604, Control_c, 1, 64, 127
1, 652621, Control_c, 1, 67, 77
1, 652621, Control_c, 0, 67, 77
1, 652650, Note_off_c, 0, 57, 61
1, 652677, Control_c, 0, 64, 84
1, 652677, Control_c, 1, 64, 84
1, 652679, Note_on_c, 0, 59, 55
1, 652681, Note_on_c, 0, 74, 83
1, 652683, Note_off_c, 0, 67, 53
1, 652696, Note_on_c, 0, 66, 66
1, 652696, Control_c, 0, 64, 60
1, 652696, Control_c, 1, 64, 60
1, 652714, Control_c, 1, 64, 50
1, 652714, Control_c, 0, 64, 50
1, 652723, Note_off_c, 0, 72, 57
1, 652734, Control_c, 0, 64, 61
1, 652734, Control_c, 1, 64, 61
1, 652735, Control_c, 1, 67, 82
1, 652735, Control_c, 0, 67, 82
1, 652752, Control_c, 0, 64, 86
1, 652752, Control_c, 1, 64, 86
1, 652760, Note_off_c, 0, 66, 53
1, 652769, Control_c, 0, 64, 127
1, 652769, Control_c, 1, 64, 127
1, 652777, Note_on_c, 0, 67, 61
1, 652828, Control_c, 0, 64, 86
1, 652828, Control_c, 1, 64, 86
1, 652847, Control_c, 1, 64, 58
1, 652847, Control_c, 0, 64, 58
1, 652865, Control_c, 0, 64, 31
1, 652865, Control_c, 1, 64, 31
1, 652868, Note_on_c, 0, 71, 74
1, 652870, Note_off_c, 0, 59, 58
1, 652874, Note_on_c, 0, 55, 64
1, 652880, Note_off_c, 0, 67, 60
1, 652883, Control_c, 0, 64, 27
1, 652883, Control_c, 1, 64, 27
1, 652902, Control_c, 1, 64, 40
1, 652902, Control_c, 0, 64, 40
1, 652916, Note_on_c, 0, 66, 25
1, 652917, Control_c, 0, 64, 76
1, 652917, Control_c, 1, 64, 76
1, 652940, Control_c, 1, 64, 127
1, 652940, Control_c, 0, 64, 127
1, 652959, Control_c, 0, 67, 87
1, 652959, Control_c, 1, 67, 87
1, 652975, Note_off_c, 0, 71, 60
1, 652975, Note_off_c, 0, 66, 32
1, 652979, Note_on_c, 0, 67, 70
1, 653016, Control_c, 0, 64, 108
1, 653016, Control_c, 1, 64, 108
1, 653034, Control_c, 1, 64, 64
1, 653034, Control_c, 0, 64, 64
1, 653036, Control_c, 0, 67, 91
1, 653036, Control_c, 1, 67, 91
1, 653051, Note_off_c, 0, 67, 55
1, 653051, Control_c, 0, 64, 40
1, 653051, Control_c, 1, 64, 40
1, 653072, Note_on_c, 0, 66, 67
1, 653073, Note_on_c, 0, 75, 71
1, 653074, Note_on_c, 0, 60, 60
1, 653090, Control_c, 0, 64, 62
1, 653090, Control_c, 1, 64, 62
1, 653095, Note_off_c, 0, 55, 38
1, 653096, Note_off_c, 0, 74, 56
1, 653108, Control_c, 0, 64, 109
1, 653108, Control_c, 1, 64, 109
1, 653117, Note_off_c, 0, 66, 56
1, 653126, Control_c, 0, 64, 127
1, 653126, Control_c, 1, 64, 127
1, 653145, Control_c, 1, 67, 96
1, 653145, Control_c, 0, 67, 96
1, 653170, Note_on_c, 0, 67, 57
1, 653201, Control_c, 0, 64, 79
1, 653201, Control_c, 1, 64, 79
1, 653215, Note_off_c, 0, 60, 42
1, 653220, Control_c, 0, 64, 52
1, 653220, Control_c, 1, 64, 52
1, 653221, Control_c, 1, 67, 100
1, 653221, Control_c, 0, 67, 100
1, 653239, Control_c, 0, 64, 48
1, 653239, Control_c, 1, 64, 48
1, 653242, Note_on_c, 0, 74, 74
1, 653253, Note_on_c, 0, 59, 60
1, 653257, Control_c, 0, 64, 64
1, 653257, Control_c, 1, 64, 64
1, 653261, Note_off_c, 0, 67, 61
1, 653261, Note_on_c, 0, 66, 61
1, 653277, Control_c, 0, 64, 100
1, 653277, Control_c, 1, 64, 100
1, 653295, Control_c, 1, 64, 127
1, 653295, Control_c, 0, 64, 127
1, 653296, Control_c, 0, 67, 105
1, 653296, Control_c, 1, 67, 105
1, 653303, Note_off_c, 0, 75, 37
1, 653311, Note_off_c, 0, 66, 58
1, 653332, Control_c, 0, 67, 111
1, 653332, Control_c, 1, 67, 111
1, 653352, Control_c, 1, 64, 110
1, 653352, Control_c, 0, 64, 110
1, 653359, Note_on_c, 0, 67, 59
1, 653370, Control_c, 0, 64, 73
1, 653370, Control_c, 1, 64, 73
1, 653389, Control_c, 1, 64, 49
1, 653389, Control_c, 0, 64, 49
1, 653422, Note_off_c, 0, 74, 58
1, 653429, Control_c, 0, 64, 63
1, 653429, Control_c, 1, 64, 63
1, 653430, Control_c, 1, 67, 115
1, 653430, Note_on_c, 0, 75, 71
1, 653430, Control_c, 0, 67, 115
1, 653442, Note_off_c, 0, 59, 61
1, 653443, Control_c, 0, 64, 94
1, 653443, Control_c, 1, 64, 94
1, 653451, Note_on_c, 0, 66, 60
1, 653454, Note_off_c, 0, 67, 57
1, 653459, Note_on_c, 0, 60, 55
1, 653461, Control_c, 0, 64, 127
1, 653461, Control_c, 1, 64, 127
1, 653462, Control_c, 1, 67, 120
1, 653462, Control_c, 0, 67, 120
1, 653482, Control_c, 0, 67, 124
1, 653482, Control_c, 1, 67, 124
1, 653514, Note_off_c, 0, 66, 46
1, 653540, Note_on_c, 0, 67, 66
1, 653558, Control_c, 0, 64, 109
1, 653558, Control_c, 1, 64, 109
1, 653575, Control_c, 1, 64, 127
1, 653575, Control_c, 0, 64, 127
1, 653604, Note_off_c, 0, 67, 57
1, 653629, Note_off_c, 0, 60, 56
1, 653645, Note_on_c, 0, 58, 69
1, 653646, Note_on_c, 0, 65, 66
1, 653664, Note_on_c, 0, 73, 80
1, 653672, Note_off_c, 0, 75, 57
1, 653718, Note_off_c, 0, 65, 58
1, 653809, Note_on_c, 0, 66, 66
1, 653823, Note_off_c, 0, 58, 61
1, 653875, Control_c, 0, 64, 106
1, 653875, Control_c, 1, 64, 106
1, 653880, Note_on_c, 0, 57, 56
1, 653888, Note_on_c, 0, 64, 52
1, 653892, Note_off_c, 0, 66, 52
1, 653894, Control_c, 0, 64, 69
1, 653894, Control_c, 1, 64, 69
1, 653912, Control_c, 1, 64, 45
1, 653912, Control_c, 0, 64, 45
1, 653915, Note_on_c, 0, 72, 70
1, 653932, Control_c, 0, 64, 42
1, 653932, Control_c, 1, 64, 42
1, 653946, Note_off_c, 0, 64, 60
1, 653946, Poly_aftertouch_c, 0, 64, 0
1, 653949, Control_c, 0, 64, 51
1, 653949, Control_c, 1, 64, 51
1, 653960, Note_off_c, 0, 73, 55
1, 653969, Control_c, 0, 64, 74
1, 653969, Control_c, 1, 64, 74
1, 653988, Control_c, 1, 64, 127
1, 653988, Control_c, 0, 64, 127
1, 654014, Note_on_c, 0, 65, 61
1, 654081, Control_c, 0, 64, 98
1, 654081, Control_c, 1, 64, 98
1, 654084, Note_on_c, 0, 75, 79
1, 654085, Note_off_c, 0, 65, 49
1, 654097, Note_off_c, 0, 57, 60
1, 654100, Control_c, 0, 64, 63
1, 654100, Control_c, 1, 64, 63
1, 654115, Note_off_c, 0, 72, 57
1, 654117, Note_on_c, 0, 60, 58
1, 654119, Note_on_c, 0, 64, 54
1, 654119, Control_c, 0, 64, 45
1, 654119, Control_c, 1, 64, 45
1, 654137, Control_c, 1, 64, 51
1, 654137, Control_c, 0, 64, 51
1, 654156, Control_c, 0, 64, 72
1, 654156, Control_c, 1, 64, 72
1, 654164, Note_off_c, 0, 64, 63
1, 654164, Poly_aftertouch_c, 0, 64, 0
1, 654175, Control_c, 0, 64, 127
1, 654175, Control_c, 1, 64, 127
1, 654200, Note_on_c, 0, 65, 67
1, 654265, Note_on_c, 0, 73, 81
1, 654267, Control_c, 0, 64, 80
1, 654267, Control_c, 1, 64, 80
1, 654275, Note_on_c, 0, 58, 67
1, 654281, Note_off_c, 0, 60, 50
1, 654281, Note_off_c, 0, 65, 59
1, 654286, Control_c, 0, 64, 51
1, 654286, Control_c, 1, 64, 51
1, 654298, Note_on_c, 0, 64, 59
1, 654305, Control_c, 0, 64, 43
1, 654305, Control_c, 1, 64, 43
1, 654306, Note_off_c, 0, 75, 63
1, 654324, Control_c, 0, 64, 57
1, 654324, Control_c, 1, 64, 57
1, 654336, Note_off_c, 0, 64, 64
1, 654336, Poly_aftertouch_c, 0, 64, 0
1, 654343, Control_c, 0, 64, 91
1, 654343, Control_c, 1, 64, 91
1, 654362, Control_c, 1, 64, 127
1, 654362, Control_c, 0, 64, 127
1, 654378, Note_on_c, 0, 65, 71
1, 654418, Control_c, 0, 64, 118
1, 654418, Control_c, 1, 64, 118
1, 654438, Control_c, 1, 64, 75
1, 654438, Control_c, 0, 64, 75
1, 654440, Note_off_c, 0, 58, 51
1, 654448, Note_on_c, 0, 56, 70
1, 654451, Note_on_c, 0, 72, 76
1, 654457, Control_c, 0, 64, 45
1, 654457, Control_c, 1, 64, 45
1, 654470, Note_on_c, 0, 64, 61
1, 654474, Note_off_c, 0, 65, 56
1, 654474, Control_c, 0, 64, 36
1, 654474, Control_c, 1, 64, 36
1, 654494, Control_c, 1, 64, 46
1, 654494, Control_c, 0, 64, 46
1, 654511, Control_c, 0, 64, 78
1, 654511, Control_c, 1, 64, 78
1, 654520, Note_off_c, 0, 64, 61
1, 654520, Poly_aftertouch_c, 0, 64, 0
1, 654532, Control_c, 0, 64, 127
1, 654532, Control_c, 1, 64, 127
1, 654565, Note_on_c, 0, 65, 71
1, 654587, Control_c, 0, 64, 92
1, 654587, Control_c, 1, 64, 92
1, 654602, Note_off_c, 0, 73, 29
1, 654604, Control_c, 0, 64, 62
1, 654604, Control_c, 1, 64, 62
1, 654625, Control_c, 1, 64, 32
1, 654625, Control_c, 0, 64, 32
1, 654632, Note_off_c, 0, 56, 60
1, 654639, Note_on_c, 0, 54, 64
1, 654643, Control_c, 0, 64, 22
1, 654643, Control_c, 1, 64, 22
1, 654646, Note_on_c, 0, 70, 75
1, 654658, Note_off_c, 0, 65, 60
1, 654661, Control_c, 0, 64, 29
1, 654661, Control_c, 1, 64, 29
1, 654665, Note_on_c, 0, 64, 67
1, 654680, Control_c, 0, 64, 57
1, 654680, Control_c, 1, 64, 57
1, 654684, Note_off_c, 0, 72, 58
1, 654699, Note_off_c, 0, 64, 65
1, 654699, Poly_aftertouch_c, 0, 64, 0
1, 654699, Control_c, 0, 64, 116
1, 654699, Control_c, 1, 64, 116
1, 654718, Control_c, 1, 64, 127
1, 654718, Control_c, 0, 64, 127
1, 654755, Control_c, 0, 64, 107
1, 654755, Control_c, 1, 64, 107
1, 654763, Note_on_c, 0, 65, 62
1, 654774, Control_c, 0, 64, 74
1, 654774, Control_c, 1, 64, 74
1, 654792, Control_c, 1, 64, 53
1, 654792, Control_c, 0, 64, 53
1, 654830, Control_c, 0, 64, 67
1, 654830, Control_c, 1, 64, 67
1, 654831, Control_c, 1, 67, 120
1, 654831, Control_c, 0, 67, 120
1, 654833, Note_on_c, 0, 73, 73
1, 654847, Note_off_c, 0, 65, 57
1, 654847, Note_on_c, 0, 58, 68
1, 654848, Control_c, 0, 64, 93
1, 654848, Control_c, 1, 64, 93
1, 654850, Note_on_c, 0, 64, 62
1, 654864, Note_off_c, 0, 54, 47
1, 654866, Control_c, 0, 64, 127
1, 654866, Control_c, 1, 64, 127
1, 654887, Control_c, 1, 64, 100
1, 654887, Control_c, 0, 64, 100
1, 654906, Control_c, 0, 64, 65
1, 654906, Control_c, 1, 64, 65
1, 654908, Note_off_c, 0, 64, 51
1, 654908, Poly_aftertouch_c, 0, 64, 0
1, 654910, Note_off_c, 0, 70, 52
1, 654924, Control_c, 0, 64, 45
1, 654924, Control_c, 1, 64, 45
1, 654937, Note_on_c, 0, 65, 60
1, 654943, Control_c, 0, 64, 47
1, 654943, Control_c, 1, 64, 47
1, 654961, Control_c, 1, 64, 63
1, 654961, Control_c, 0, 64, 63
1, 654980, Control_c, 0, 64, 87
1, 654980, Control_c, 1, 64, 87
1, 654998, Control_c, 1, 64, 127
1, 654998, Control_c, 0, 64, 127
1, 655008, Note_off_c, 0, 65, 54
1, 655014, Note_on_c, 0, 72, 72
1, 655022, Note_on_c, 0, 56, 66
1, 655036, Control_c, 0, 64, 91
1, 655036, Control_c, 1, 64, 91
1, 655046, Note_on_c, 0, 64, 63
1, 655054, Control_c, 0, 64, 61
1, 655054, Control_c, 1, 64, 61
1, 655073, Note_off_c, 0, 58, 47
1, 655074, Poly_aftertouch_c, 0, 58, 0
1, 655074, Control_c, 0, 64, 51
1, 655074, Control_c, 1, 64, 51
1, 655092, Control_c, 1, 64, 58
1, 655092, Control_c, 0, 64, 58
1, 655096, Note_on_c, 0, 65, 62
1, 655106, Note_off_c, 0, 64, 53
1, 655106, Poly_aftertouch_c, 0, 64, 0
1, 655110, Control_c, 0, 64, 77
1, 655110, Control_c, 1, 64, 77
1, 655129, Control_c, 1, 64, 127
1, 655129, Control_c, 0, 64, 127
1, 655149, Control_c, 0, 67, 116
1, 655149, Control_c, 1, 67, 116
1, 655185, Control_c, 1, 67, 111
1, 655185, Control_c, 0, 67, 111
1, 655190, Note_on_c, 0, 70, 76
1, 655193, Note_off_c, 0, 65, 58
1, 655204, Note_on_c, 0, 54, 67
1, 655206, Control_c, 0, 64, 89
1, 655206, Control_c, 1, 64, 89
1, 655224, Control_c, 1, 64, 68
1, 655224, Control_c, 0, 64, 68
1, 655242, Control_c, 0, 64, 64
1, 655242, Control_c, 1, 64, 64
1, 655250, Note_off_c, 0, 56, 46
1, 655258, Note_off_c, 0, 72, 45
1, 655259, Note_on_c, 0, 64, 44
1, 655260, Control_c, 0, 64, 75
1, 655260, Control_c, 1, 64, 75
1, 655264, Note_off_c, 0, 70, 62
1, 655280, Control_c, 0, 64, 103
1, 655280, Control_c, 1, 64, 103
1, 655282, Poly_aftertouch_c, 0, 73, 24
1, 655294, Note_off_c, 0, 64, 55
1, 655294, Poly_aftertouch_c, 0, 64, 0
1, 655296, Control_c, 0, 64, 127
1, 655296, Control_c, 1, 64, 127
1, 655300, Note_on_c, 0, 65, 51
1, 655335, Control_c, 0, 64, 102
1, 655335, Control_c, 1, 64, 102
1, 655352, Note_off_c, 0, 65, 58
1, 655354, Control_c, 0, 64, 79
1, 655354, Control_c, 1, 64, 79
1, 655374, Note_off_c, 0, 54, 60
1, 655374, Note_on_c, 0, 69, 73
1, 655380, Note_on_c, 0, 64, 75
1, 655381, Note_on_c, 0, 53, 69
1, 655389, Note_off_c, 0, 73, 27
1, 655389, Poly_aftertouch_c, 0, 73, 0
1, 655390, Poly_aftertouch_c, 0, 73, 0
1, 655390, Control_c, 0, 64, 101
1, 655390, Control_c, 1, 64, 101
1, 655411, Control_c, 1, 64, 127
1, 655411, Control_c, 0, 64, 127
1, 655414, Note_off_c, 0, 64, 66
1, 655414, Poly_aftertouch_c, 0, 64, 0
1, 655415, Note_off_c, 0, 69, 58
1, 655432, Note_off_c, 0, 53, 59
1, 655444, Note_on_c, 0, 65, 69
1, 655466, Control_c, 0, 67, 107
1, 655466, Control_c, 1, 67, 107
1, 655486, Note_off_c, 0, 65, 63
1, 655486, Control_c, 0, 64, 79
1, 655486, Control_c, 1, 64, 79
1, 655504, Control_c, 1, 64, 39
1, 655504, Control_c, 0, 64, 39
1, 655506, Control_c, 0, 67, 103
1, 655506, Control_c, 1, 67, 103
1, 655540, Note_on_c, 0, 81, 89
1, 655541, Control_c, 0, 64, 0
1, 655541, Control_c, 1, 64, 0
1, 655560, Control_c, 1, 67, 99
1, 655560, Control_c, 0, 67, 99
1, 655563, Note_on_c, 0, 41, 81
1, 655567, Note_on_c, 0, 53, 73
1, 655571, Note_on_c, 0, 75, 69
1, 655579, Control_c, 0, 64, 34
1, 655579, Control_c, 1, 64, 34
1, 655597, Control_c, 1, 64, 87
1, 655597, Control_c, 0, 64, 87
1, 655608, Note_off_c, 0, 53, 61
1, 655616, Control_c, 0, 64, 127
1, 655616, Control_c, 1, 64, 127
1, 655617, Note_off_c, 0, 75, 56
1, 655624, Note_off_c, 0, 81, 63
1, 655656, Note_on_c, 0, 69, 73
1, 655692, Control_c, 0, 64, 103
1, 655692, Control_c, 1, 64, 103
1, 655710, Control_c, 1, 64, 57
1, 655710, Control_c, 0, 64, 57
1, 655711, Control_c, 0, 67, 94
1, 655711, Control_c, 1, 67, 94
1, 655714, Note_off_c, 0, 69, 60
1, 655728, Control_c, 0, 64, 19
1, 655728, Control_c, 1, 64, 19
1, 655737, Note_on_c, 0, 52, 85
1, 655738, Note_on_c, 0, 40, 80
1, 655746, Note_on_c, 0, 76, 65
1, 655746, Note_on_c, 0, 80, 83
1, 655747, Note_off_c, 0, 41, 58
1, 655766, Control_c, 0, 64, 38
1, 655766, Control_c, 1, 64, 38
1, 655779, Note_off_c, 0, 40, 64
1, 655783, Note_off_c, 0, 52, 61
1, 655783, Poly_aftertouch_c, 0, 52, 0
1, 655783, Control_c, 0, 64, 86
1, 655783, Control_c, 1, 64, 86
1, 655803, Control_c, 1, 64, 127
1, 655803, Control_c, 0, 64, 127
1, 655804, Control_c, 0, 67, 98
1, 655804, Control_c, 1, 67, 98
1, 655816, Note_off_c, 0, 76, 61
1, 655817, Note_off_c, 0, 80, 64
1, 655838, Note_on_c, 0, 68, 78
1, 655873, Note_off_c, 0, 68, 62
1, 655877, Control_c, 0, 64, 78
1, 655877, Control_c, 1, 64, 78
1, 655898, Control_c, 1, 64, 45
1, 655898, Control_c, 0, 64, 45
1, 655915, Control_c, 0, 64, 33
1, 655915, Control_c, 1, 64, 33
1, 655935, Control_c, 1, 64, 42
1, 655935, Control_c, 0, 64, 42
1, 655944, Note_on_c, 0, 74, 77
1, 655953, Note_on_c, 0, 56, 74
1, 655953, Note_on_c, 0, 71, 77
1, 655953, Control_c, 0, 64, 72
1, 655953, Control_c, 1, 64, 72
1, 655954, Control_c, 1, 67, 102
1, 655954, Control_c, 0, 67, 102
1, 655961, Note_on_c, 0, 64, 64
1, 655972, Control_c, 0, 64, 127
1, 655972, Control_c, 1, 64, 127
1, 656012, Note_off_c, 0, 71, 60
1, 656016, Note_off_c, 0, 64, 58
1, 656016, Poly_aftertouch_c, 0, 64, 0
1, 656063, Note_on_c, 0, 65, 71
1, 656065, Control_c, 0, 64, 72
1, 656065, Control_c, 1, 64, 72
1, 656084, Control_c, 1, 64, 35
1, 656084, Control_c, 0, 64, 35
1, 656103, Control_c, 0, 64, 16
1, 656103, Control_c, 1, 64, 16
1, 656123, Control_c, 1, 64, 21
1, 656123, Control_c, 0, 64, 21
1, 656130, Note_off_c, 0, 56, 55
1, 656140, Control_c, 0, 64, 48
1, 656140, Control_c, 0, 67, 107
1, 656140, Control_c, 1, 64, 48
1, 656140, Control_c, 1, 67, 107
1, 656144, Note_on_c, 0, 72, 76
1, 656151, Note_on_c, 0, 57, 68
1, 656155, Note_off_c, 0, 65, 60
1, 656158, Control_c, 0, 64, 98
1, 656158, Control_c, 1, 64, 98
1, 656160, Note_on_c, 0, 63, 72
1, 656179, Control_c, 0, 64, 127
1, 656179, Control_c, 1, 64, 127
1, 656180, Control_c, 1, 67, 113
1, 656180, Control_c, 0, 67, 113
1, 656181, Note_off_c, 0, 74, 54
1, 656181, Note_on_c, 0, 69, 56
1, 656219, Note_off_c, 0, 69, 63
1, 656229, Note_off_c, 0, 63, 60
1, 656230, Note_off_c, 0, 72, 59
1, 656233, Control_c, 0, 64, 106
1, 656233, Control_c, 1, 64, 106
1, 656267, Note_on_c, 0, 64, 69
1, 656271, Control_c, 0, 64, 127
1, 656271, Control_c, 1, 64, 127
1, 656308, Control_c, 1, 67, 117
1, 656308, Control_c, 0, 67, 117
1, 656327, Control_c, 0, 64, 116
1, 656327, Control_c, 1, 64, 116
1, 656348, Control_c, 1, 64, 63
1, 656348, Control_c, 0, 64, 63
1, 656353, Note_on_c, 0, 52, 60
1, 656364, Note_on_c, 0, 61, 67
1, 656367, Note_off_c, 0, 57, 38
1, 656367, Note_on_c, 0, 71, 68
1, 656367, Control_c, 0, 67, 124
1, 656367, Control_c, 1, 67, 124
1, 656368, Note_off_c, 0, 64, 60
1, 656368, Poly_aftertouch_c, 0, 64, 0
1, 656383, Control_c, 0, 64, 0
1, 656383, Control_c, 1, 64, 0
1, 656395, Note_on_c, 0, 68, 51
1, 656428, Note_off_c, 0, 68, 60
1, 656456, Note_off_c, 0, 61, 45
1, 656477, Control_c, 0, 64, 27
1, 656477, Control_c, 1, 64, 27
1, 656481, Note_on_c, 0, 62, 61
1, 656496, Control_c, 0, 64, 64
1, 656496, Control_c, 1, 64, 64
1, 656516, Control_c, 1, 64, 89
1, 656516, Control_c, 0, 64, 89
1, 656541, Note_off_c, 0, 52, 53
1, 656541, Poly_aftertouch_c, 0, 52, 0
1, 656549, Note_on_c, 0, 57, 62
1, 656552, Control_c, 0, 64, 66
1, 656552, Control_c, 1, 64, 66
1, 656555, Note_off_c, 0, 62, 45
1, 656569, Note_on_c, 0, 59, 60
1, 656570, Note_on_c, 0, 69, 70
1, 656570, Control_c, 0, 64, 28
1, 656570, Control_c, 1, 64, 28
1, 656586, Note_off_c, 0, 71, 56
1, 656588, Control_c, 0, 64, 0
1, 656588, Control_c, 1, 64, 0
1, 656606, Note_off_c, 0, 59, 63
1, 656627, Control_c, 0, 64, 33
1, 656627, Control_c, 1, 64, 33
1, 656632, Note_off_c, 0, 57, 62
1, 656645, Note_off_c, 0, 69, 55
1, 656645, Control_c, 0, 64, 75
1, 656645, Control_c, 1, 64, 75
1, 656661, Note_on_c, 0, 60, 69
1, 656662, Control_c, 0, 64, 127
1, 656662, Control_c, 1, 64, 127
1, 656692, Note_on_c, 0, 62, 60
1, 656719, Note_off_c, 0, 62, 62
1, 656727, Note_off_c, 0, 60, 61
1, 656748, Note_on_c, 0, 63, 81
1, 656809, Note_off_c, 0, 63, 64
1, 656887, Note_on_c, 0, 64, 6
1, 656945, Control_c, 0, 64, 104
1, 656945, Control_c, 1, 64, 104
1, 656959, Note_off_c, 0, 64, 33
1, 656959, Poly_aftertouch_c, 0, 64, 0
1, 656964, Control_c, 0, 64, 59
1, 656964, Control_c, 1, 64, 59
1, 657001, Control_c, 1, 64, 0
1, 657001, Control_c, 0, 64, 0
1, 657026, Note_on_c, 0, 73, 68
1, 657032, Note_on_c, 0, 57, 54
1, 657058, Control_c, 0, 64, 34
1, 657058, Control_c, 1, 64, 34
1, 657061, Note_on_c, 0, 68, 61
1, 657077, Control_c, 0, 64, 79
1, 657077, Control_c, 1, 64, 79
1, 657095, Control_c, 1, 64, 127
1, 657095, Control_c, 0, 64, 127
1, 657096, Note_off_c, 0, 73, 58
1, 657115, Note_on_c, 0, 85, 66
1, 657120, Note_off_c, 0, 57, 57
1, 657130, Note_on_c, 0, 81, 42
1, 657131, Note_off_c, 0, 68, 62
1, 657173, Note_off_c, 0, 81, 50
1, 657183, Note_on_c, 0, 69, 65
1, 657191, Note_off_c, 0, 85, 62
1, 657207, Control_c, 0, 64, 92
1, 657207, Control_c, 1, 64, 92
1, 657214, Note_on_c, 0, 74, 72
1, 657226, Note_off_c, 0, 69, 51
1, 657226, Control_c, 0, 64, 52
1, 657226, Control_c, 1, 64, 52
1, 657245, Control_c, 1, 64, 16
1, 657245, Control_c, 0, 64, 16
1, 657261, Note_on_c, 0, 59, 70
1, 657263, Note_off_c, 0, 74, 58
1, 657282, Control_c, 0, 64, 46
1, 657282, Control_c, 1, 64, 46
1, 657296, Note_on_c, 0, 86, 70
1, 657302, Note_on_c, 0, 68, 52
1, 657302, Control_c, 0, 64, 97
1, 657302, Control_c, 1, 64, 97
1, 657315, Note_on_c, 0, 81, 37
1, 657319, Control_c, 0, 64, 127
1, 657319, Control_c, 1, 64, 127
1, 657330, Note_off_c, 0, 59, 61
1, 657348, Note_off_c, 0, 68, 66
1, 657353, Note_off_c, 0, 81, 54
1, 657354, Note_off_c, 0, 86, 62
1, 657384, Note_on_c, 0, 69, 75
1, 657384, Note_on_c, 0, 76, 79
1, 657387, Poly_aftertouch_c, 0, 85, 0
1, 657393, Control_c, 0, 64, 76
1, 657393, Control_c, 1, 64, 76
1, 657413, Control_c, 1, 64, 42
1, 657413, Control_c, 0, 64, 42
1, 657428, Note_off_c, 0, 69, 46
1, 657432, Control_c, 0, 64, 32
1, 657432, Control_c, 1, 64, 32
1, 657451, Control_c, 1, 64, 47
1, 657451, Control_c, 0, 64, 47
1, 657452, Note_on_c, 0, 61, 70
1, 657453, Note_off_c, 0, 76, 62
1, 657457, Note_on_c, 0, 68, 70
1, 657461, Note_on_c, 0, 88, 71
1, 657472, Control_c, 0, 64, 77
1, 657472, Control_c, 1, 64, 77
1, 657486, Note_on_c, 0, 81, 41
1, 657488, Control_c, 0, 64, 127
1, 657488, Control_c, 1, 64, 127
1, 657509, Note_off_c, 0, 68, 59
1, 657517, Note_off_c, 0, 61, 61
1, 657523, Note_off_c, 0, 81, 63
1, 657527, Note_off_c, 0, 88, 60
1, 657554, Note_on_c, 0, 69, 78
1, 657574, Note_on_c, 0, 73, 73
1, 657582, Control_c, 0, 64, 80
1, 657582, Control_c, 1, 64, 80
1, 657586, Note_off_c, 0, 69, 61
1, 657600, Control_c, 0, 64, 52
1, 657600, Control_c, 1, 64, 52
1, 657619, Control_c, 1, 64, 32
1, 657619, Control_c, 0, 64, 32
1, 657620, Note_off_c, 0, 73, 61
1, 657645, Note_on_c, 0, 68, 78
1, 657649, Note_on_c, 0, 85, 77
1, 657656, Control_c, 0, 64, 58
1, 657656, Control_c, 1, 64, 58
1, 657660, Note_on_c, 0, 57, 62
1, 657673, Note_on_c, 0, 81, 42
1, 657675, Control_c, 0, 64, 112
1, 657675, Control_c, 1, 64, 112
1, 657681, Note_on_c, 0, 59, 51
1, 657694, Control_c, 0, 64, 127
1, 657694, Control_c, 1, 64, 127
1, 657709, Note_off_c, 0, 68, 60
1, 657714, Note_off_c, 0, 59, 54
1, 657714, Note_off_c, 0, 81, 51
1, 657718, Note_off_c, 0, 57, 62
1, 657744, Note_off_c, 0, 85, 64
1, 657770, Note_on_c, 0, 69, 76
1, 657771, Note_on_c, 0, 77, 77
1, 657788, Control_c, 0, 64, 86
1, 657788, Control_c, 1, 64, 86
1, 657789, Control_c, 1, 67, 120
1, 657789, Control_c, 0, 67, 120
1, 657806, Control_c, 0, 64, 48
1, 657806, Control_c, 1, 64, 48
1, 657821, Note_on_c, 0, 62, 57
1, 657825, Control_c, 0, 64, 9
1, 657825, Control_c, 1, 64, 9
1, 657826, Control_c, 1, 67, 115
1, 657826, Control_c, 0, 67, 115
1, 657835, Note_off_c, 0, 77, 60
1, 657844, Note_on_c, 0, 68, 45
1, 657845, Note_off_c, 0, 69, 53
1, 657862, Control_c, 0, 64, 35
1, 657862, Control_c, 1, 64, 35
1, 657866, Note_on_c, 0, 89, 76
1, 657880, Control_c, 0, 64, 79
1, 657880, Control_c, 1, 64, 79
1, 657890, Note_on_c, 0, 81, 47
1, 657891, Note_off_c, 0, 68, 63
1, 657896, Note_off_c, 0, 62, 63
1, 657899, Control_c, 0, 64, 127
1, 657899, Control_c, 1, 64, 127
1, 657904, Note_on_c, 0, 87, 35
1, 657925, Note_off_c, 0, 89, 59
1, 657934, Note_on_c, 0, 69, 65
1, 657945, Note_off_c, 0, 87, 56
1, 657945, Note_off_c, 0, 81, 60
1, 657969, Note_on_c, 0, 76, 73
1, 657993, Control_c, 0, 64, 64
1, 657993, Control_c, 1, 64, 64
1, 658007, Note_on_c, 0, 61, 73
1, 658010, Control_c, 0, 64, 31
1, 658010, Control_c, 1, 64, 31
1, 658017, Note_on_c, 0, 68, 62
1, 658021, Note_off_c, 0, 69, 51
1, 658036, Note_off_c, 0, 76, 58
1, 658050, Control_c, 0, 64, 62
1, 658050, Control_c, 1, 64, 62
1, 658051, Note_on_c, 0, 88, 68
1, 658068, Control_c, 0, 64, 127
1, 658068, Control_c, 1, 64, 127
1, 658072, Note_off_c, 0, 61, 60
1, 658075, Note_off_c, 0, 68, 63
1, 658075, Note_on_c, 0, 81, 53
1, 658114, Note_off_c, 0, 81, 61
1, 658119, Note_off_c, 0, 88, 63
1, 658138, Note_on_c, 0, 69, 65
1, 658142, Control_c, 0, 64, 72
1, 658142, Control_c, 1, 64, 72
1, 658155, Note_on_c, 0, 77, 77
1, 658161, Control_c, 0, 64, 40
1, 658161, Control_c, 1, 64, 40
1, 658178, Note_off_c, 0, 69, 59
1, 658181, Note_on_c, 0, 62, 60
1, 658181, Control_c, 0, 64, 31
1, 658181, Control_c, 1, 64, 31
1, 658192, Note_on_c, 0, 68, 54
1, 658198, Control_c, 0, 64, 50
1, 658198, Control_c, 1, 64, 50
1, 658215, Note_off_c, 0, 77, 58
1, 658217, Control_c, 0, 64, 89
1, 658217, Control_c, 1, 64, 89
1, 658228, Note_on_c, 0, 89, 75
1, 658236, Control_c, 0, 64, 127
1, 658236, Control_c, 1, 64, 127
1, 658247, Note_off_c, 0, 68, 61
1, 658247, Note_on_c, 0, 69, 72
1, 658266, Note_off_c, 0, 62, 60
1, 658278, Note_on_c, 0, 88, 41
1, 658305, Note_off_c, 0, 89, 62
1, 658309, Poly_aftertouch_c, 0, 81, 127
1, 658310, Note_off_c, 0, 88, 60
1, 658312, Control_c, 0, 64, 118
1, 658312, Control_c, 1, 64, 118
1, 658318, Note_off_c, 0, 69, 56
1, 658320, Poly_aftertouch_c, 0, 81, 0
1, 658330, Control_c, 0, 64, 64
1, 658330, Control_c, 1, 64, 64
1, 658342, Note_on_c, 0, 60, 62
1, 658348, Control_c, 0, 64, 33
1, 658348, Control_c, 1, 64, 33
1, 658349, Control_c, 1, 67, 109
1, 658349, Note_on_c, 0, 75, 78
1, 658349, Control_c, 0, 67, 109
1, 658376, Note_on_c, 0, 67, 60
1, 658387, Control_c, 0, 64, 63
1, 658387, Control_c, 1, 64, 63
1, 658388, Control_c, 1, 67, 104
1, 658388, Control_c, 0, 67, 104
1, 658405, Control_c, 0, 64, 127
1, 658405, Control_c, 1, 64, 127
1, 658415, Note_off_c, 0, 67, 64
1, 658416, Note_off_c, 0, 75, 63
1, 658423, Note_off_c, 0, 60, 61
1, 658439, Note_on_c, 0, 87, 71
1, 658446, Note_on_c, 0, 80, 48
1, 658457, Note_on_c, 0, 68, 74
1, 658486, Note_off_c, 0, 80, 57
1, 658500, Control_c, 0, 64, 105
1, 658500, Control_c, 1, 64, 105
1, 658512, Note_off_c, 0, 68, 58
1, 658514, Note_off_c, 0, 87, 65
1, 658518, Control_c, 0, 64, 61
1, 658518, Control_c, 1, 64, 61
1, 658520, Control_c, 1, 67, 100
1, 658520, Control_c, 0, 67, 100
1, 658536, Control_c, 0, 64, 31
1, 658536, Control_c, 1, 64, 31
1, 658544, Note_on_c, 0, 74, 72
1, 658548, Note_on_c, 0, 59, 62
1, 658550, Note_on_c, 0, 66, 63
1, 658574, Control_c, 0, 64, 53
1, 658574, Control_c, 1, 64, 53
1, 658577, Note_on_c, 0, 76, 35
1, 658592, Control_c, 0, 64, 103
1, 658592, Control_c, 1, 64, 103
1, 658605, Note_off_c, 0, 74, 61
1, 658609, Control_c, 0, 64, 127
1, 658609, Control_c, 1, 64, 127
1, 658622, Note_off_c, 0, 76, 33
1, 658625, Note_off_c, 0, 59, 60
1, 658627, Note_off_c, 0, 66, 44
1, 658631, Note_on_c, 0, 86, 69
1, 658648, Control_c, 0, 67, 96
1, 658648, Control_c, 1, 67, 96
1, 658654, Note_on_c, 0, 67, 73
1, 658679, Note_off_c, 0, 86, 60
1, 658687, Control_c, 0, 64, 89
1, 658687, Control_c, 1, 64, 89
1, 658690, Note_off_c, 0, 67, 62
1, 658705, Control_c, 0, 64, 52
1, 658705, Control_c, 1, 64, 52
1, 658723, Control_c, 1, 64, 35
1, 658723, Control_c, 0, 64, 35
1, 658734, Note_on_c, 0, 72, 74
1, 658742, Control_c, 0, 64, 46
1, 658742, Control_c, 1, 64, 46
1, 658743, Control_c, 1, 67, 92
1, 658743, Note_on_c, 0, 57, 72
1, 658743, Control_c, 0, 67, 92
1, 658761, Control_c, 0, 64, 80
1, 658761, Control_c, 1, 64, 80
1, 658778, Note_off_c, 0, 72, 62
1, 658779, Control_c, 0, 64, 127
1, 658779, Control_c, 1, 64, 127
1, 658798, Note_on_c, 0, 66, 44
1, 658813, Note_on_c, 0, 84, 65
1, 658817, Note_off_c, 0, 57, 61
1, 658832, Note_off_c, 0, 66, 56
1, 658861, Note_on_c, 0, 67, 58
1, 658873, Control_c, 0, 64, 68
1, 658873, Control_c, 1, 64, 68
1, 658886, Note_off_c, 0, 84, 60
1, 658892, Control_c, 0, 64, 35
1, 658892, Control_c, 1, 64, 35
1, 658910, Control_c, 1, 64, 29
1, 658910, Note_on_c, 0, 59, 62
1, 658910, Control_c, 0, 64, 29
1, 658914, Note_on_c, 0, 74, 76
1, 658920, Note_on_c, 0, 66, 73
1, 658927, Note_off_c, 0, 67, 40
1, 658928, Control_c, 0, 64, 48
1, 658928, Control_c, 1, 64, 48
1, 658948, Control_c, 1, 64, 95
1, 658948, Control_c, 0, 64, 95
1, 658967, Control_c, 0, 64, 127
1, 658967, Control_c, 1, 64, 127
1, 658971, Note_off_c, 0, 74, 61
1, 658981, Note_off_c, 0, 66, 54
1, 658997, Note_on_c, 0, 86, 73
1, 658999, Note_off_c, 0, 59, 62
1, 659038, Note_on_c, 0, 67, 67
1, 659045, Note_on_c, 0, 79, 49
1, 659054, Note_off_c, 0, 86, 61
1, 659060, Control_c, 0, 64, 67
1, 659060, Control_c, 1, 64, 67
1, 659074, Note_off_c, 0, 67, 65
1, 659079, Note_off_c, 0, 79, 56
1, 659079, Control_c, 0, 64, 26
1, 659079, Control_c, 1, 64, 26
1, 659103, Note_on_c, 0, 71, 79
1, 659109, Note_on_c, 0, 55, 67
1, 659116, Control_c, 0, 64, 11
1, 659116, Control_c, 1, 64, 11
1, 659135, Control_c, 1, 64, 43
1, 659135, Control_c, 0, 64, 43
1, 659141, Note_on_c, 0, 57, 38
1, 659155, Control_c, 0, 64, 99
1, 659155, Control_c, 1, 64, 99
1, 659158, Note_off_c, 0, 71, 61
1, 659158, Control_c, 0, 67, 96
1, 659158, Control_c, 1, 67, 96
1, 659172, Control_c, 1, 64, 127
1, 659172, Control_c, 0, 64, 127
1, 659173, Note_on_c, 0, 83, 75
1, 659190, Note_off_c, 0, 57, 31
1, 659198, Note_off_c, 0, 55, 60
1, 659229, Control_c, 0, 64, 99
1, 659229, Control_c, 1, 64, 99
1, 659230, Note_on_c, 0, 67, 64
1, 659248, Control_c, 0, 64, 58
1, 659248, Control_c, 1, 64, 58
1, 659249, Note_off_c, 0, 83, 61
1, 659267, Control_c, 0, 64, 18
1, 659267, Control_c, 1, 64, 18
1, 659275, Poly_aftertouch_c, 0, 66, 127
1, 659285, Control_c, 0, 67, 100
1, 659285, Control_c, 1, 67, 100
1, 659290, Note_on_c, 0, 75, 79
1, 659303, Control_c, 0, 64, 37
1, 659303, Control_c, 1, 64, 37
1, 659305, Note_on_c, 0, 60, 58
1, 659307, Note_off_c, 0, 67, 62
1, 659323, Control_c, 0, 64, 85
1, 659323, Control_c, 1, 64, 85
1, 659326, Control_c, 1, 67, 104
1, 659326, Control_c, 0, 67, 104
1, 659341, Control_c, 0, 64, 127
1, 659341, Control_c, 1, 64, 127
1, 659342, Control_c, 1, 67, 109
1, 659342, Control_c, 0, 67, 109
1, 659360, Control_c, 0, 67, 116
1, 659360, Control_c, 1, 67, 116
1, 659368, Note_off_c, 0, 75, 60
1, 659377, Note_off_c, 0, 60, 58
1, 659377, Control_c, 0, 67, 120
1, 659377, Control_c, 1, 67, 120
1, 659396, Note_on_c, 0, 87, 74
1, 659399, Note_on_c, 0, 67, 65
1, 659411, Poly_aftertouch_c, 0, 66, 0
1, 659416, Control_c, 0, 64, 93
1, 659416, Control_c, 1, 64, 93
1, 659435, Control_c, 1, 64, 57
1, 659435, Control_c, 0, 64, 57
1, 659446, Note_off_c, 0, 87, 60
1, 659453, Control_c, 0, 64, 48
1, 659453, Control_c, 1, 64, 48
1, 659455, Poly_aftertouch_c, 0, 79, 127
1, 659457, Poly_aftertouch_c, 0, 85, 0
1, 659460, Note_on_c, 0, 59, 63
1, 659465, Note_off_c, 0, 67, 56
1, 659471, Control_c, 0, 64, 59
1, 659471, Control_c, 1, 64, 59
1, 659490, Control_c, 1, 64, 81
1, 659490, Control_c, 0, 64, 81
1, 659494, Note_on_c, 0, 74, 72
1, 659502, Poly_aftertouch_c, 0, 79, 0
1, 659510, Control_c, 0, 64, 127
1, 659510, Control_c, 1, 64, 127
1, 659530, Note_on_c, 0, 61, 10
1, 659547, Note_off_c, 0, 74, 63
1, 659551, Note_on_c, 0, 86, 68
1, 659554, Note_off_c, 0, 59, 61
1, 659557, Note_on_c, 0, 66, 55
1, 659566, Control_c, 0, 64, 76
1, 659566, Control_c, 1, 64, 76
1, 659585, Control_c, 1, 64, 53
1, 659585, Control_c, 0, 64, 53
1, 659588, Note_off_c, 0, 66, 59
1, 659592, Note_on_c, 0, 67, 67
1, 659604, Control_c, 0, 64, 50
1, 659604, Control_c, 1, 64, 50
1, 659614, Note_off_c, 0, 61, 35
1, 659621, Control_c, 0, 64, 65
1, 659621, Control_c, 1, 64, 65
1, 659641, Control_c, 1, 64, 105
1, 659641, Control_c, 0, 64, 105
1, 659644, Note_off_c, 0, 86, 63
1, 659659, Note_on_c, 0, 60, 67
1, 659659, Control_c, 0, 64, 127
1, 659659, Control_c, 1, 64, 127
1, 659667, Note_on_c, 0, 75, 80
1, 659674, Note_on_c, 0, 66, 62
1, 659694, Note_off_c, 0, 67, 47
1, 659712, Note_off_c, 0, 66, 65
1, 659715, Control_c, 0, 64, 94
1, 659715, Control_c, 1, 64, 94
1, 659720, Note_off_c, 0, 75, 61
1, 659725, Poly_aftertouch_c, 0, 79, 127
1, 659732, Note_off_c, 0, 60, 63
1, 659733, Control_c, 0, 64, 64
1, 659733, Control_c, 1, 64, 64
1, 659750, Note_on_c, 0, 67, 50
1, 659752, Control_c, 0, 64, 42
1, 659752, Control_c, 1, 64, 42
1, 659773, Note_on_c, 0, 87, 73
1, 659792, Control_c, 0, 64, 63
1, 659792, Control_c, 1, 64, 63
1, 659809, Control_c, 1, 64, 116
1, 659809, Control_c, 0, 64, 116
1, 659810, Note_off_c, 0, 67, 62
1, 659816, Note_off_c, 0, 87, 58
1, 659827, Control_c, 0, 64, 127
1, 659827, Control_c, 1, 64, 127
1, 659833, Note_on_c, 0, 58, 75
1, 659857, Note_on_c, 0, 73, 80
1, 659861, Poly_aftertouch_c, 0, 79, 0
1, 659903, Control_c, 0, 64, 88
1, 659903, Control_c, 1, 64, 88
1, 659920, Note_off_c, 0, 58, 63
1, 659921, Note_off_c, 0, 73, 61
1, 659921, Control_c, 0, 64, 55
1, 659921, Control_c, 1, 64, 55
1, 659941, Control_c, 1, 64, 41
1, 659941, Control_c, 0, 64, 41
1, 659954, Note_on_c, 0, 66, 62
1, 659958, Control_c, 0, 64, 50
1, 659958, Control_c, 1, 64, 50
1, 659960, Control_c, 1, 67, 116
1, 659960, Control_c, 0, 67, 116
1, 659963, Note_on_c, 0, 85, 75
1, 659977, Control_c, 0, 64, 78
1, 659977, Control_c, 1, 64, 78
1, 659988, Note_off_c, 0, 66, 64
1, 659996, Control_c, 0, 64, 127
1, 659996, Control_c, 1, 64, 127
1, 660009, Poly_aftertouch_c, 0, 65, 0
1, 660034, Note_on_c, 0, 57, 67
1, 660036, Note_off_c, 0, 85, 63
1, 660043, Note_on_c, 0, 72, 80
1, 660049, Note_on_c, 0, 64, 58
1, 660054, Poly_aftertouch_c, 0, 78, 0
1, 660070, Control_c, 0, 64, 87
1, 660070, Control_c, 1, 64, 87
1, 660090, Control_c, 1, 64, 54
1, 660090, Control_c, 0, 64, 54
1, 660096, Note_off_c, 0, 57, 59
1, 660100, Note_off_c, 0, 72, 62
1, 660109, Control_c, 0, 64, 38
1, 660109, Control_c, 1, 64, 38
1, 660116, Note_off_c, 0, 64, 59
1, 660116, Poly_aftertouch_c, 0, 64, 0
1, 660127, Control_c, 0, 64, 46
1, 660127, Control_c, 1, 64, 46
1, 660136, Note_on_c, 0, 65, 72
1, 660141, Note_on_c, 0, 84, 60
1, 660146, Note_on_c, 0, 86, 63
1, 660147, Control_c, 0, 64, 73
1, 660147, Control_c, 1, 64, 73
1, 660165, Control_c, 1, 64, 127
1, 660165, Control_c, 0, 64, 127
1, 660176, Note_off_c, 0, 86, 66
1, 660197, Note_off_c, 0, 84, 62
1, 660210, Note_off_c, 0, 65, 60
1, 660234, Note_on_c, 0, 64, 49
1, 660234, Note_on_c, 0, 60, 61
1, 660238, Note_on_c, 0, 75, 81
1, 660239, Control_c, 0, 64, 99
1, 660239, Control_c, 1, 64, 99
1, 660259, Control_c, 1, 64, 64
1, 660259, Control_c, 0, 64, 64
1, 660260, Control_c, 0, 67, 112
1, 660260, Control_c, 1, 67, 112
1, 660268, Note_off_c, 0, 64, 54
1, 660268, Poly_aftertouch_c, 0, 64, 0
1, 660275, Note_off_c, 0, 60, 63
1, 660277, Control_c, 0, 64, 42
1, 660277, Control_c, 1, 64, 42
1, 660288, Note_off_c, 0, 75, 64
1, 660293, Control_c, 0, 64, 46
1, 660293, Control_c, 1, 64, 46
1, 660305, Poly_aftertouch_c, 0, 77, 0
1, 660314, Control_c, 0, 64, 67
1, 660314, Control_c, 1, 64, 67
1, 660326, Note_on_c, 0, 65, 68
1, 660326, Note_on_c, 0, 87, 74
1, 660332, Control_c, 0, 64, 127
1, 660332, Control_c, 1, 64, 127
1, 660374, Note_off_c, 0, 65, 57
1, 660390, Note_on_c, 0, 58, 71
1, 660391, Note_off_c, 0, 87, 66
1, 660407, Note_on_c, 0, 64, 27
1, 660420, Note_on_c, 0, 73, 76
1, 660427, Control_c, 0, 64, 88
1, 660427, Control_c, 1, 64, 88
1, 660430, Note_on_c, 0, 77, 31
1, 660436, Poly_aftertouch_c, 0, 80, 0
1, 660445, Note_off_c, 0, 77, 49
1, 660445, Control_c, 0, 64, 58
1, 660445, Control_c, 1, 64, 58
1, 660464, Control_c, 1, 64, 48
1, 660464, Control_c, 0, 64, 48
1, 660466, Note_off_c, 0, 58, 63
1, 660467, Note_off_c, 0, 64, 42
1, 660467, Poly_aftertouch_c, 0, 64, 0
1, 660483, Control_c, 0, 64, 60
1, 660483, Control_c, 1, 64, 60
1, 660488, Note_off_c, 0, 73, 56
1, 660503, Control_c, 0, 64, 90
1, 660503, Control_c, 1, 64, 90
1, 660509, Note_on_c, 0, 65, 56
1, 660510, Note_on_c, 0, 85, 80
1, 660521, Control_c, 0, 64, 127
1, 660521, Control_c, 1, 64, 127
1, 660548, Note_on_c, 0, 56, 69
1, 660558, Note_off_c, 0, 65, 59
1, 660563, Note_on_c, 0, 64, 57
1, 660575, Note_off_c, 0, 85, 65
1, 660576, Control_c, 0, 67, 116
1, 660576, Control_c, 1, 67, 116
1, 660600, Note_off_c, 0, 56, 55
1, 660604, Note_on_c, 0, 72, 74
1, 660649, Note_on_c, 0, 65, 66
1, 660670, Note_on_c, 0, 84, 76
1, 660677, Note_off_c, 0, 72, 61
1, 660685, Note_off_c, 0, 64, 32
1, 660685, Poly_aftertouch_c, 0, 64, 0
1, 660708, Control_c, 0, 64, 79
1, 660708, Control_c, 1, 64, 79
1, 660720, Note_off_c, 0, 65, 59
1, 660725, Control_c, 0, 64, 32
1, 660725, Control_c, 1, 64, 32
1, 660733, Note_off_c, 0, 84, 63
1, 660740, Poly_aftertouch_c, 0, 77, 127
1, 660743, Control_c, 0, 64, 0
1, 660743, Control_c, 1, 64, 0
1, 660767, Note_on_c, 0, 54, 70
1, 660792, Note_on_c, 0, 70, 71
1, 660800, Control_c, 0, 64, 21
1, 660800, Control_c, 1, 64, 21
1, 660820, Control_c, 1, 64, 71
1, 660820, Control_c, 0, 64, 71
1, 660831, Note_off_c, 0, 54, 59
1, 660837, Control_c, 0, 64, 127
1, 660837, Control_c, 1, 64, 127
1, 660842, Note_off_c, 0, 70, 62
1, 660853, Note_on_c, 0, 82, 68
1, 660868, Note_on_c, 0, 65, 73
1, 660875, Control_c, 0, 67, 120
1, 660875, Control_c, 1, 67, 120
1, 660932, Control_c, 1, 64, 82
1, 660932, Control_c, 0, 64, 82
1, 660941, Note_off_c, 0, 65, 52
1, 660951, Control_c, 0, 64, 65
1, 660951, Control_c, 1, 64, 65
1, 660961, Note_off_c, 0, 82, 61
1, 660964, Note_on_c, 0, 58, 60
1, 660969, Note_on_c, 0, 64, 45
1, 660971, Control_c, 0, 64, 70
1, 660971, Control_c, 1, 64, 70
1, 660986, Note_on_c, 0, 73, 61
1, 660988, Control_c, 0, 64, 96
1, 660988, Control_c, 1, 64, 96
1, 661007, Control_c, 1, 64, 127
1, 661007, Control_c, 0, 64, 127
1, 661021, Note_off_c, 0, 73, 63
1, 661028, Note_on_c, 0, 75, 20
1, 661042, Note_off_c, 0, 58, 61
1, 661043, Note_off_c, 0, 64, 55
1, 661043, Poly_aftertouch_c, 0, 64, 0
1, 661052, Note_on_c, 0, 85, 72
1, 661063, Control_c, 0, 64, 110
1, 661063, Control_c, 1, 64, 110
1, 661068, Note_on_c, 0, 65, 62
1, 661082, Control_c, 0, 64, 72
1, 661082, Control_c, 1, 64, 72
1, 661085, Note_off_c, 0, 75, 53
1, 661100, Control_c, 0, 64, 47
1, 661100, Control_c, 1, 64, 47
1, 661102, Note_off_c, 0, 85, 58
1, 661112, Note_off_c, 0, 65, 63
1, 661118, Control_c, 0, 64, 44
1, 661118, Control_c, 1, 64, 44
1, 661138, Control_c, 1, 64, 59
1, 661138, Control_c, 0, 64, 59
1, 661149, Note_on_c, 0, 56, 64
1, 661156, Control_c, 0, 64, 91
1, 661156, Control_c, 1, 64, 91
1, 661159, Note_on_c, 0, 72, 63
1, 661175, Control_c, 0, 64, 127
1, 661175, Control_c, 1, 64, 127
1, 661181, Note_on_c, 0, 64, 17
1, 661201, Note_off_c, 0, 56, 60
1, 661209, Note_off_c, 0, 72, 62
1, 661209, Note_on_c, 0, 84, 75
1, 661237, Note_on_c, 0, 65, 69
1, 661251, Control_c, 0, 64, 68
1, 661251, Control_c, 1, 64, 68
1, 661268, Control_c, 1, 64, 11
1, 661268, Control_c, 0, 64, 11
1, 661281, Note_off_c, 0, 65, 59
1, 661282, Note_off_c, 0, 84, 64
1, 661288, Control_c, 0, 64, 0
1, 661288, Control_c, 1, 64, 0
1, 661315, Note_off_c, 0, 64, 29
1, 661315, Poly_aftertouch_c, 0, 64, 0
1, 661325, Control_c, 0, 64, 48
1, 661325, Control_c, 1, 64, 48
1, 661330, Poly_aftertouch_c, 0, 77, 0
1, 661334, Note_on_c, 0, 70, 71
1, 661341, Note_on_c, 0, 54, 69
1, 661342, Control_c, 0, 64, 90
1, 661342, Control_c, 1, 64, 90
1, 661362, Control_c, 1, 64, 127
1, 661362, Control_c, 0, 64, 127
1, 661410, Note_off_c, 0, 70, 62
1, 661418, Note_off_c, 0, 54, 62
1, 661424, Note_on_c, 0, 82, 65
1, 661437, Control_c, 0, 67, 115
1, 661437, Control_c, 1, 67, 115
1, 661443, Note_on_c, 0, 65, 67
1, 661456, Control_c, 0, 64, 104
1, 661456, Control_c, 1, 64, 104
1, 661475, Control_c, 1, 64, 62
1, 661475, Control_c, 0, 64, 62
1, 661481, Note_off_c, 0, 82, 61
1, 661481, Note_on_c, 0, 77, 22
1, 661482, Note_off_c, 0, 77, 47
1, 661488, Note_off_c, 0, 65, 63
1, 661494, Control_c, 0, 64, 29
1, 661494, Control_c, 1, 64, 29
1, 661496, Control_c, 1, 67, 111
1, 661496, Control_c, 0, 67, 111
1, 661508, Note_on_c, 0, 69, 78
1, 661531, Control_c, 0, 64, 43
1, 661531, Control_c, 1, 64, 43
1, 661542, Note_on_c, 0, 53, 66
1, 661548, Control_c, 0, 64, 75
1, 661548, Control_c, 1, 64, 75
1, 661550, Control_c, 1, 67, 106
1, 661550, Control_c, 0, 67, 106
1, 661569, Control_c, 0, 64, 127
1, 661569, Control_c, 1, 64, 127
1, 661573, Note_off_c, 0, 69, 60
1, 661590, Note_off_c, 0, 53, 55
1, 661601, Note_on_c, 0, 81, 78
1, 661603, Note_on_c, 0, 65, 76
1, 661610, Note_on_c, 0, 77, 51
1, 661624, Control_c, 0, 67, 97
1, 661624, Control_c, 1, 67, 97
1, 661633, Note_off_c, 0, 65, 67
1, 661637, Note_off_c, 0, 77, 39
1, 661643, Control_c, 0, 67, 89
1, 661643, Control_c, 1, 67, 89
1, 661646, Note_off_c, 0, 81, 60
1, 661663, Control_c, 0, 67, 78
1, 661663, Control_c, 1, 67, 78
1, 661680, Control_c, 1, 67, 67
1, 661680, Control_c, 0, 67, 67
1, 661700, Control_c, 0, 67, 59
1, 661700, Control_c, 1, 67, 59
1, 661721, Control_c, 1, 64, 72
1, 661721, Control_c, 0, 64, 72
1, 661722, Control_c, 0, 67, 53
1, 661722, Control_c, 1, 67, 53
1, 661736, Control_c, 1, 64, 27
1, 661736, Note_on_c, 0, 81, 80
1, 661736, Control_c, 0, 64, 27
1, 661755, Control_c, 0, 64, 0
1, 661755, Control_c, 1, 64, 0
1, 661756, Control_c, 1, 67, 48
1, 661756, Control_c, 0, 67, 48
1, 661776, Note_on_c, 0, 41, 73
1, 661794, Control_c, 0, 64, 20
1, 661794, Control_c, 1, 64, 20
1, 661795, Control_c, 1, 67, 43
1, 661795, Control_c, 0, 67, 43
1, 661813, Control_c, 0, 64, 59
1, 661813, Control_c, 1, 64, 59
1, 661823, Note_off_c, 0, 81, 63
1, 661827, Note_on_c, 0, 93, 65
1, 661831, Control_c, 0, 64, 127
1, 661831, Control_c, 1, 64, 127
1, 661851, Control_c, 1, 67, 39
1, 661851, Control_c, 0, 67, 39
1, 661854, Note_off_c, 0, 41, 59
1, 661855, Note_on_c, 0, 87, 73
1, 661886, Control_c, 0, 67, 34
1, 661886, Control_c, 1, 67, 34
1, 661889, Note_on_c, 0, 53, 65
1, 661906, Control_c, 0, 64, 98
1, 661906, Control_c, 1, 64, 98
1, 661912, Note_off_c, 0, 93, 63
1, 661916, Note_off_c, 0, 87, 63
1, 661925, Control_c, 0, 64, 52
1, 661925, Control_c, 1, 64, 52
1, 661930, Note_off_c, 0, 53, 61
1, 661940, Note_on_c, 0, 80, 86
1, 661943, Control_c, 0, 64, 15
1, 661943, Control_c, 1, 64, 15
1, 661961, Control_c, 1, 64, 21
1, 661961, Control_c, 0, 64, 21
1, 661963, Control_c, 0, 67, 29
1, 661963, Control_c, 1, 67, 29
1, 661968, Note_on_c, 0, 40, 71
1, 661980, Control_c, 0, 64, 47
1, 661980, Control_c, 1, 64, 47
1, 661999, Control_c, 1, 64, 100
1, 661999, Control_c, 0, 64, 100
1, 662002, Note_off_c, 0, 40, 64
1, 662002, Control_c, 0, 67, 20
1, 662002, Control_c, 1, 67, 20
1, 662010, Note_on_c, 0, 88, 67
1, 662011, Note_off_c, 0, 80, 65
1, 662018, Control_c, 0, 64, 127
1, 662018, Control_c, 1, 64, 127
1, 662020, Control_c, 1, 67, 9
1, 662020, Control_c, 0, 67, 9
1, 662024, Note_on_c, 0, 52, 72
1, 662031, Note_on_c, 0, 92, 81
1, 662036, Control_c, 0, 67, 0
1, 662036, Control_c, 1, 67, 0
1, 662057, Note_off_c, 0, 52, 65
1, 662057, Poly_aftertouch_c, 0, 52, 0
1, 662066, Note_off_c, 0, 88, 63
1, 662074, Note_off_c, 0, 92, 62
1, 662158, Note_on_c, 0, 74, 79
1, 662171, Note_on_c, 0, 56, 78
1, 662184, Note_off_c, 0, 74, 70
1, 662203, Note_on_c, 0, 86, 65
1, 662213, Note_off_c, 0, 56, 57
1, 662268, Note_on_c, 0, 65, 76
1, 662274, Note_off_c, 0, 86, 61
1, 662279, Control_c, 0, 64, 68
1, 662279, Control_c, 1, 64, 68
1, 662299, Control_c, 1, 64, 11
1, 662299, Control_c, 0, 64, 11
1, 662301, Note_on_c, 0, 73, 87
1, 662318, Control_c, 0, 64, 0
1, 662318, Control_c, 1, 64, 0
1, 662336, Control_c, 1, 64, 12
1, 662336, Control_c, 0, 64, 12
1, 662351, Note_on_c, 0, 81, 52
1, 662354, Note_off_c, 0, 65, 60
1, 662355, Note_on_c, 0, 57, 65
1, 662355, Control_c, 0, 64, 62
1, 662355, Control_c, 1, 64, 62
1, 662364, Note_off_c, 0, 73, 65
1, 662374, Control_c, 0, 64, 127
1, 662374, Control_c, 1, 64, 127
1, 662381, Note_on_c, 0, 85, 80
1, 662391, Note_off_c, 0, 57, 65
1, 662410, Note_off_c, 0, 81, 63
1, 662441, Note_off_c, 0, 85, 66
1, 662446, Control_c, 0, 64, 97
1, 662446, Control_c, 1, 64, 97
1, 662467, Control_c, 1, 64, 43
1, 662467, Control_c, 0, 64, 43
1, 662485, Control_c, 0, 64, 0
1, 662485, Control_c, 1, 64, 0
1, 662499, Note_on_c, 0, 37, 78
1, 662502, Control_c, 0, 64, 9
1, 662502, Control_c, 1, 64, 9
1, 662509, Note_on_c, 0, 81, 84
1, 662523, Control_c, 0, 64, 42
1, 662523, Control_c, 1, 64, 42
1, 662542, Control_c, 1, 64, 108
1, 662542, Control_c, 0, 64, 108
1, 662560, Control_c, 0, 64, 127
1, 662560, Control_c, 1, 64, 127
1, 662570, Note_on_c, 0, 79, 10
1, 662571, Note_off_c, 0, 81, 63
1, 662571, Note_off_c, 0, 79, 127
1, 662595, Note_off_c, 0, 37, 60
1, 662608, Note_on_c, 0, 49, 75
1, 662611, Note_on_c, 0, 93, 51
1, 662621, Poly_aftertouch_c, 0, 35, 0
1, 662625, Note_on_c, 0, 89, 46
1, 662630, Note_on_c, 0, 91, 50
1, 662643, Note_off_c, 0, 93, 58
1, 662649, Poly_aftertouch_c, 0, 79, 0
1, 662653, Note_off_c, 0, 49, 64
1, 662653, Poly_aftertouch_c, 0, 36, 0
1, 662663, Note_off_c, 0, 91, 63
1, 662669, Note_off_c, 0, 89, 50
1, 662672, Control_c, 0, 64, 86
1, 662672, Control_c, 1, 64, 86
1, 662691, Control_c, 1, 64, 50
1, 662691, Control_c, 0, 64, 50
1, 662702, Note_on_c, 0, 38, 71
1, 662702, Note_on_c, 0, 78, 85
1, 662710, Control_c, 0, 64, 46
1, 662710, Control_c, 1, 64, 46
1, 662729, Control_c, 1, 64, 72
1, 662729, Control_c, 0, 64, 72
1, 662748, Note_on_c, 0, 86, 44
1, 662748, Control_c, 0, 64, 127
1, 662748, Control_c, 1, 64, 127
1, 662750, Note_off_c, 0, 38, 66
1, 662760, Note_on_c, 0, 50, 77
1, 662774, Note_off_c, 0, 78, 64
1, 662783, Note_on_c, 0, 90, 82
1, 662796, Note_off_c, 0, 50, 67
1, 662836, Poly_aftertouch_c, 0, 40, 0
1, 662839, Note_off_c, 0, 86, 63
1, 662839, Poly_aftertouch_c, 0, 77, 0
1, 662870, Note_off_c, 0, 90, 66
1, 662898, Control_c, 0, 64, 105
1, 662898, Control_c, 1, 64, 105
1, 662917, Control_c, 1, 64, 61
1, 662917, Control_c, 0, 64, 61
1, 662931, Note_on_c, 0, 72, 82
1, 662935, Note_on_c, 0, 54, 62
1, 662936, Control_c, 0, 64, 36
1, 662936, Control_c, 1, 64, 36
1, 662953, Control_c, 1, 64, 43
1, 662953, Control_c, 0, 64, 43
1, 662973, Control_c, 0, 64, 71
1, 662973, Control_c, 1, 64, 71
1, 662982, Note_off_c, 0, 72, 56
1, 662991, Control_c, 0, 64, 127
1, 662991, Control_c, 1, 64, 127
1, 663011, Note_on_c, 0, 63, 77
1, 663030, Note_on_c, 0, 84, 76
1, 663034, Note_off_c, 0, 54, 38
1, 663048, Note_off_c, 0, 63, 67
1, 663060, Note_on_c, 0, 81, 51
1, 663090, Note_off_c, 0, 81, 58
1, 663109, Note_on_c, 0, 71, 81
1, 663111, Note_off_c, 0, 84, 55
1, 663136, Poly_aftertouch_c, 0, 54, 0
1, 663141, Note_on_c, 0, 55, 31
1, 663142, Note_on_c, 0, 62, 76
1, 663161, Note_off_c, 0, 71, 61
1, 663182, Note_off_c, 0, 62, 63
1, 663185, Poly_aftertouch_c, 0, 80, 0
1, 663187, Note_on_c, 0, 83, 72
1, 663194, Note_off_c, 0, 55, 48
1, 663214, Note_off_c, 0, 83, 67
1, 663234, Control_c, 0, 64, 81
1, 663234, Control_c, 1, 64, 81
1, 663254, Control_c, 1, 64, 39
1, 663254, Control_c, 0, 64, 39
1, 663272, Control_c, 0, 64, 14
1, 663272, Control_c, 1, 64, 14
1, 663292, Control_c, 1, 64, 24
1, 663292, Control_c, 0, 64, 24
1, 663310, Control_c, 0, 64, 53
1, 663310, Control_c, 1, 64, 53
1, 663321, Note_on_c, 0, 77, 71
1, 663322, Note_on_c, 0, 79, 71
1, 663326, Note_on_c, 0, 35, 73
1, 663330, Control_c, 0, 64, 104
1, 663330, Control_c, 1, 64, 104
1, 663346, Control_c, 1, 64, 127
1, 663346, Control_c, 0, 64, 127
1, 663356, Note_on_c, 0, 33, 38
1, 663357, Note_off_c, 0, 33, 127
1, 663359, Note_off_c, 0, 79, 57
1, 663359, Note_off_c, 0, 77, 60
1, 663394, Note_off_c, 0, 35, 59
1, 663397, Note_on_c, 0, 47, 50
1, 663406, Poly_aftertouch_c, 0, 33, 0
1, 663415, Note_on_c, 0, 89, 61
1, 663416, Note_on_c, 0, 86, 69
1, 663456, Note_off_c, 0, 86, 63
1, 663478, Note_off_c, 0, 47, 62
1, 663489, Note_off_c, 0, 89, 64
1, 663515, Control_c, 0, 64, 76
1, 663515, Control_c, 1, 64, 76
1, 663518, Note_on_c, 0, 36, 61
1, 663519, Note_on_c, 0, 76, 80
1, 663533, Control_c, 0, 64, 29
1, 663533, Control_c, 1, 64, 29
1, 663541, Note_on_c, 0, 38, 52
1, 663571, Control_c, 0, 64, 17
1, 663571, Control_c, 1, 64, 17
1, 663589, Note_off_c, 0, 76, 59
1, 663591, Control_c, 0, 64, 53
1, 663591, Control_c, 1, 64, 53
1, 663593, Note_on_c, 0, 48, 77
1, 663594, Note_off_c, 0, 36, 56
1, 663600, Note_off_c, 0, 38, 48
1, 663607, Note_on_c, 0, 88, 74
1, 663608, Note_on_c, 0, 84, 73
1, 663608, Control_c, 0, 64, 127
1, 663608, Control_c, 1, 64, 127
1, 663625, Poly_aftertouch_c, 0, 39, 0
1, 663670, Note_off_c, 0, 88, 65
1, 663673, Note_off_c, 0, 48, 61
1, 663675, Note_off_c, 0, 84, 64
1, 663701, Note_on_c, 0, 74, 84
1, 663707, Poly_aftertouch_c, 0, 86, 0
1, 663710, Note_on_c, 0, 38, 73
1, 663746, Note_on_c, 0, 40, 47
1, 663754, Note_off_c, 0, 74, 62
1, 663757, Control_c, 0, 64, 99
1, 663757, Control_c, 1, 64, 99
1, 663771, Note_on_c, 0, 86, 82
1, 663777, Control_c, 0, 64, 84
1, 663777, Control_c, 1, 64, 84
1, 663792, Note_off_c, 0, 38, 62
1, 663793, Note_off_c, 0, 40, 35
1, 663796, Control_c, 0, 64, 122
1, 663796, Control_c, 1, 64, 122
1, 663803, Note_on_c, 0, 50, 78
1, 663814, Control_c, 0, 64, 127
1, 663814, Control_c, 1, 64, 127
1, 663826, Poly_aftertouch_c, 0, 44, 0
1, 663863, Note_off_c, 0, 86, 64
1, 663870, Note_off_c, 0, 50, 63
1, 663870, Control_c, 0, 64, 73
1, 663870, Control_c, 1, 64, 73
1, 663873, Poly_aftertouch_c, 0, 83, 127
1, 663882, Poly_aftertouch_c, 0, 83, 0
1, 663886, Note_on_c, 0, 73, 92
1, 663888, Control_c, 0, 64, 35
1, 663888, Control_c, 1, 64, 35
1, 663890, Note_on_c, 0, 40, 80
1, 663908, Control_c, 0, 64, 9
1, 663908, Control_c, 1, 64, 9
1, 663914, Note_on_c, 0, 42, 51
1, 663927, Control_c, 0, 64, 21
1, 663927, Control_c, 1, 64, 21
1, 663942, Note_on_c, 0, 81, 48
1, 663946, Control_c, 0, 64, 55
1, 663946, Control_c, 1, 64, 55
1, 663952, Note_off_c, 0, 42, 54
1, 663954, Note_off_c, 0, 73, 63
1, 663961, Note_off_c, 0, 40, 61
1, 663965, Control_c, 0, 64, 127
1, 663965, Control_c, 1, 64, 127
1, 663974, Note_on_c, 0, 85, 81
1, 663976, Note_on_c, 0, 52, 77
1, 664018, Note_off_c, 0, 52, 61
1, 664018, Poly_aftertouch_c, 0, 52, 0
1, 664020, Note_off_c, 0, 81, 62
1, 664062, Note_off_c, 0, 85, 65
1, 664079, Note_on_c, 0, 72, 87
1, 664102, Note_on_c, 0, 57, 77
1, 664128, Note_on_c, 0, 80, 65
1, 664134, Control_c, 0, 64, 117
1, 664134, Control_c, 1, 64, 117
1, 664142, Note_off_c, 0, 72, 63
1, 664152, Control_c, 0, 64, 60
1, 664152, Control_c, 1, 64, 60
1, 664154, Note_off_c, 0, 80, 64
1, 664171, Control_c, 0, 64, 19
1, 664171, Control_c, 1, 64, 19
1, 664179, Note_off_c, 0, 57, 59
1, 664183, Note_on_c, 0, 84, 78
1, 664196, Note_on_c, 0, 60, 70
1, 664197, Note_on_c, 0, 81, 46
1, 664208, Control_c, 0, 64, 47
1, 664208, Control_c, 1, 64, 47
1, 664222, Note_on_c, 0, 82, 12
1, 664226, Control_c, 0, 64, 127
1, 664226, Control_c, 1, 64, 127
1, 664234, Note_off_c, 0, 81, 63
1, 664257, Note_off_c, 0, 60, 59
1, 664266, Note_off_c, 0, 84, 62
1, 664277, Note_on_c, 0, 71, 86
1, 664278, Note_on_c, 0, 64, 81
1, 664301, Note_off_c, 0, 82, 22
1, 664349, Note_on_c, 0, 80, 60
1, 664351, Note_off_c, 0, 64, 59
1, 664351, Poly_aftertouch_c, 0, 64, 0
1, 664352, Note_off_c, 0, 71, 64
1, 664370, Note_on_c, 0, 52, 79
1, 664374, Note_on_c, 0, 56, 38
1, 664380, Note_on_c, 0, 83, 82
1, 664418, Note_off_c, 0, 56, 43
1, 664440, Note_off_c, 0, 52, 61
1, 664440, Poly_aftertouch_c, 0, 52, 0
1, 664455, Note_off_c, 0, 83, 61
1, 664458, Poly_aftertouch_c, 0, 58, 127
1, 664465, Note_off_c, 0, 80, 35
1, 664468, Note_on_c, 0, 62, 81
1, 664472, Note_on_c, 0, 68, 86
1, 664524, Note_off_c, 0, 62, 63
1, 664544, Control_c, 0, 64, 81
1, 664544, Control_c, 1, 64, 81
1, 664553, Poly_aftertouch_c, 0, 58, 0
1, 664564, Control_c, 0, 64, 39
1, 664564, Control_c, 1, 64, 39
1, 664569, Note_on_c, 0, 52, 82
1, 664572, Note_off_c, 0, 68, 56
1, 664575, Note_on_c, 0, 80, 75
1, 664582, Control_c, 0, 64, 0
1, 664582, Control_c, 1, 64, 0
1, 664596, Note_on_c, 0, 76, 27
1, 664620, Control_c, 0, 64, 13
1, 664620, Control_c, 1, 64, 13
1, 664638, Control_c, 1, 64, 50
1, 664638, Control_c, 0, 64, 50
1, 664641, Note_on_c, 0, 69, 87
1, 664646, Note_on_c, 0, 61, 82
1, 664648, Poly_aftertouch_c, 0, 78, 0
1, 664656, Control_c, 0, 64, 127
1, 664656, Control_c, 1, 64, 127
1, 664659, Note_off_c, 0, 76, 30
1, 664696, Note_off_c, 0, 69, 62
1, 664696, Note_on_c, 0, 57, 46
1, 664702, Note_on_c, 0, 81, 66
1, 664707, Note_on_c, 0, 76, 39
1, 664719, Note_off_c, 0, 61, 61
1, 664723, Note_off_c, 0, 52, 64
1, 664723, Note_on_c, 0, 52, 46
1, 664734, Note_off_c, 0, 57, 56
1, 664745, Note_off_c, 0, 76, 47
1, 664756, Note_off_c, 0, 81, 62
1, 664763, Note_off_c, 0, 52, 52
1, 664763, Poly_aftertouch_c, 0, 52, 0
1, 664770, Control_c, 0, 64, 86
1, 664770, Control_c, 1, 64, 86
1, 664773, Note_off_c, 0, 80, 40
1, 664790, Control_c, 0, 64, 39
1, 664790, Control_c, 1, 64, 39
1, 664792, Poly_aftertouch_c, 0, 58, 0
1, 664807, Control_c, 0, 64, 0
1, 664807, Control_c, 1, 64, 0
1, 664825, Control_c, 1, 64, 10
1, 664825, Control_c, 0, 64, 10
1, 664844, Control_c, 0, 64, 47
1, 664844, Control_c, 1, 64, 47
1, 664859, Note_on_c, 0, 82, 88
1, 664862, Control_c, 0, 64, 127
1, 664862, Control_c, 1, 64, 127
1, 664868, Note_on_c, 0, 37, 84
1, 664936, Note_on_c, 0, 94, 80
1, 664941, Note_on_c, 0, 36, 20
1, 664945, Note_off_c, 0, 82, 62
1, 664954, Note_on_c, 0, 91, 71
1, 664967, Note_on_c, 0, 49, 82
1, 664980, Note_off_c, 0, 37, 59
1, 664994, Control_c, 0, 64, 107
1, 664994, Control_c, 1, 64, 107
1, 665009, Note_off_c, 0, 36, 40
1, 665012, Note_off_c, 0, 91, 56
1, 665012, Control_c, 0, 64, 54
1, 665012, Control_c, 1, 64, 54
1, 665027, Note_off_c, 0, 94, 63
1, 665030, Note_off_c, 0, 49, 64
1, 665039, Note_on_c, 0, 81, 86
1, 665049, Control_c, 0, 64, 0
1, 665049, Control_c, 1, 64, 0
1, 665053, Note_on_c, 0, 38, 75
1, 665070, Control_c, 0, 64, 19
1, 665070, Control_c, 1, 64, 19
1, 665088, Control_c, 1, 64, 62
1, 665088, Control_c, 0, 64, 62
1, 665100, Note_on_c, 0, 50, 82
1, 665102, Note_off_c, 0, 38, 63
1, 665107, Control_c, 0, 64, 127
1, 665107, Control_c, 1, 64, 127
1, 665125, Note_off_c, 0, 81, 63
1, 665129, Note_on_c, 0, 93, 76
1, 665133, Note_on_c, 0, 89, 68
1, 665148, Note_on_c, 0, 90, 44
1, 665151, Note_off_c, 0, 50, 62
1, 665164, Note_off_c, 0, 89, 68
1, 665175, Poly_aftertouch_c, 0, 40, 0
1, 665178, Note_off_c, 0, 93, 64
1, 665187, Note_off_c, 0, 90, 54
1, 665192, Poly_aftertouch_c, 0, 91, 0
1, 665264, Poly_aftertouch_c, 0, 91, 0
1, 665275, Note_on_c, 0, 75, 85
1, 665275, Control_c, 0, 64, 110
1, 665275, Control_c, 1, 64, 110
1, 665290, Note_on_c, 0, 66, 83
1, 665293, Control_c, 0, 64, 61
1, 665293, Control_c, 1, 64, 61
1, 665312, Control_c, 1, 64, 37
1, 665312, Control_c, 0, 64, 37
1, 665331, Control_c, 0, 64, 47
1, 665331, Control_c, 1, 64, 47
1, 665338, Note_off_c, 0, 75, 60
1, 665349, Control_c, 0, 64, 76
1, 665349, Control_c, 1, 64, 76
1, 665354, Note_on_c, 0, 87, 70
1, 665356, Note_off_c, 0, 66, 60
1, 665368, Control_c, 0, 64, 127
1, 665368, Control_c, 1, 64, 127
1, 665394, Note_off_c, 0, 87, 60
1, 665396, Note_on_c, 0, 72, 75
1, 665431, Note_on_c, 0, 74, 87
1, 665452, Note_on_c, 0, 67, 72
1, 665462, Note_off_c, 0, 72, 61
1, 665493, Note_off_c, 0, 74, 64
1, 665505, Poly_aftertouch_c, 0, 68, 0
1, 665508, Note_off_c, 0, 67, 59
1, 665517, Note_on_c, 0, 83, 10
1, 665519, Note_on_c, 0, 86, 77
1, 665539, Note_on_c, 0, 85, 39
1, 665541, Note_off_c, 0, 83, 63
1, 665576, Note_off_c, 0, 85, 52
1, 665576, Note_off_c, 0, 86, 62
1, 665630, Control_c, 0, 64, 87
1, 665630, Control_c, 1, 64, 87
1, 665650, Control_c, 1, 64, 47
1, 665650, Control_c, 0, 64, 47
1, 665654, Poly_aftertouch_c, 0, 69, 0
1, 665661, Note_on_c, 0, 80, 90
1, 665668, Control_c, 0, 64, 18
1, 665668, Control_c, 1, 64, 18
1, 665684, Note_on_c, 0, 35, 85
1, 665685, Control_c, 0, 64, 24
1, 665685, Control_c, 1, 64, 24
1, 665706, Control_c, 1, 64, 54
1, 665706, Control_c, 0, 64, 54
1, 665724, Control_c, 0, 64, 127
1, 665724, Control_c, 1, 64, 127
1, 665760, Note_off_c, 0, 35, 52
1, 665767, Note_on_c, 0, 92, 81
1, 665791, Note_on_c, 0, 89, 52
1, 665792, Note_on_c, 0, 88, 57
1, 665793, Note_off_c, 0, 80, 40
1, 665793, Note_on_c, 0, 47, 70
1, 665826, Note_off_c, 0, 88, 67
1, 665832, Note_off_c, 0, 47, 65
1, 665834, Note_off_c, 0, 89, 63
1, 665837, Control_c, 0, 64, 114
1, 665837, Control_c, 1, 64, 114
1, 665846, Note_off_c, 0, 92, 64
1, 665853, Note_on_c, 0, 79, 88
1, 665854, Control_c, 0, 64, 61
1, 665854, Control_c, 1, 64, 61
1, 665858, Note_on_c, 0, 36, 68
1, 665874, Control_c, 0, 64, 27
1, 665874, Control_c, 1, 64, 27
1, 665892, Control_c, 1, 64, 32
1, 665892, Control_c, 0, 64, 32
1, 665911, Control_c, 0, 64, 59
1, 665911, Control_c, 1, 64, 59
1, 665919, Note_on_c, 0, 48, 88
1, 665920, Note_off_c, 0, 79, 63
1, 665923, Note_off_c, 0, 36, 60
1, 665926, Note_on_c, 0, 88, 66
1, 665931, Control_c, 0, 64, 127
1, 665931, Control_c, 1, 64, 127
1, 665934, Note_on_c, 0, 91, 83
1, 665951, Note_off_c, 0, 48, 69
1, 665964, Note_off_c, 0, 88, 66
1, 665988, Poly_aftertouch_c, 0, 90, 0
1, 665991, Note_off_c, 0, 91, 63
1, 666089, Note_on_c, 0, 64, 78
1, 666091, Note_on_c, 0, 73, 81
1, 666128, Note_on_c, 0, 75, 44
1, 666135, Control_c, 0, 64, 87
1, 666135, Control_c, 1, 64, 87
1, 666154, Control_c, 1, 64, 51
1, 666154, Control_c, 0, 64, 51
1, 666164, Note_off_c, 0, 75, 56
1, 666168, Note_off_c, 0, 73, 47
1, 666173, Control_c, 0, 64, 40
1, 666173, Control_c, 1, 64, 40
1, 666176, Note_off_c, 0, 64, 64
1, 666176, Note_on_c, 0, 64, 32
1, 666188, Note_on_c, 0, 85, 64
1, 666193, Control_c, 0, 64, 55
1, 666193, Control_c, 1, 64, 55
1, 666199, Note_on_c, 0, 82, 45
1, 666211, Control_c, 0, 64, 89
1, 666211, Control_c, 1, 64, 89
1, 666222, Note_on_c, 0, 70, 69
1, 666224, Note_off_c, 0, 64, 52
1, 666224, Poly_aftertouch_c, 0, 64, 0
1, 666229, Control_c, 0, 64, 127
1, 666229, Control_c, 1, 64, 127
1, 666240, Note_off_c, 0, 82, 66
1, 666244, Note_off_c, 0, 85, 57
1, 666255, Note_on_c, 0, 72, 84
1, 666284, Note_on_c, 0, 65, 80
1, 666301, Note_off_c, 0, 70, 63
1, 666303, Poly_aftertouch_c, 0, 83, 0
1, 666321, Note_off_c, 0, 72, 63
1, 666323, Note_on_c, 0, 80, 30
1, 666343, Note_on_c, 0, 84, 81
1, 666347, Note_on_c, 0, 69, 81
1, 666353, Note_on_c, 0, 81, 47
1, 666360, Note_off_c, 0, 65, 59
1, 666367, Poly_aftertouch_c, 0, 78, 0
1, 666375, Note_off_c, 0, 80, 58
1, 666382, Note_off_c, 0, 69, 60
1, 666382, Note_off_c, 0, 81, 57
1, 666400, Note_off_c, 0, 84, 65
1, 666510, Control_c, 0, 64, 81
1, 666510, Control_c, 1, 64, 81
1, 666530, Control_c, 1, 64, 40
1, 666530, Control_c, 0, 64, 40
1, 666533, Note_on_c, 0, 78, 79
1, 666548, Control_c, 0, 64, 10
1, 666548, Control_c, 1, 64, 10
1, 666551, Note_on_c, 0, 33, 79
1, 666586, Control_c, 0, 64, 36
1, 666586, Control_c, 1, 64, 36
1, 666604, Control_c, 1, 64, 76
1, 666604, Control_c, 0, 64, 76
1, 666621, Control_c, 0, 64, 127
1, 666621, Control_c, 1, 64, 127
1, 666624, Note_on_c, 0, 90, 71
1, 666626, Note_off_c, 0, 78, 62
1, 666629, Note_off_c, 0, 33, 59
1, 666641, Note_on_c, 0, 87, 62
1, 666670, Note_on_c, 0, 45, 51
1, 666709, Note_off_c, 0, 45, 54
1, 666715, Note_off_c, 0, 90, 65
1, 666732, Note_on_c, 0, 34, 77
1, 666742, Note_on_c, 0, 77, 84
1, 666752, Note_off_c, 0, 87, 62
1, 666752, Control_c, 0, 64, 71
1, 666752, Control_c, 1, 64, 71
1, 666772, Control_c, 1, 64, 42
1, 666772, Control_c, 0, 64, 42
1, 666792, Control_c, 0, 64, 44
1, 666792, Control_c, 1, 64, 44
1, 666795, Note_on_c, 0, 33, 33
1, 666810, Control_c, 0, 64, 67
1, 666810, Control_c, 1, 64, 67
1, 666817, Note_off_c, 0, 34, 59
1, 666820, Note_off_c, 0, 77, 63
1, 666827, Control_c, 0, 64, 127
1, 666827, Control_c, 1, 64, 127
1, 666830, Note_on_c, 0, 89, 72
1, 666837, Note_on_c, 0, 46, 70
1, 666849, Note_on_c, 0, 86, 38
1, 666852, Note_off_c, 0, 33, 34
1, 666878, Note_off_c, 0, 46, 66
1, 666884, Note_off_c, 0, 86, 58
1, 666890, Note_off_c, 0, 89, 65
1, 666935, Note_on_c, 0, 74, 82
1, 666936, Note_on_c, 0, 38, 76
1, 666940, Control_c, 0, 64, 73
1, 666940, Control_c, 1, 64, 73
1, 666947, Note_on_c, 0, 76, 39
1, 666959, Control_c, 0, 64, 56
1, 666959, Control_c, 1, 64, 56
1, 666978, Control_c, 1, 64, 69
1, 666978, Control_c, 0, 64, 69
1, 666986, Note_off_c, 0, 76, 36
1, 666991, Note_off_c, 0, 74, 63
1, 666997, Control_c, 0, 64, 127
1, 666997, Control_c, 1, 64, 127
1, 667008, Note_on_c, 0, 82, 57
1, 667016, Note_on_c, 0, 86, 67
1, 667024, Note_off_c, 0, 38, 61
1, 667029, Note_on_c, 0, 88, 70
1, 667032, Note_on_c, 0, 50, 78
1, 667036, Note_off_c, 0, 82, 64
1, 667050, Note_off_c, 0, 88, 65
1, 667089, Note_off_c, 0, 86, 62
1, 667089, Control_c, 0, 64, 76
1, 667089, Control_c, 1, 64, 76
1, 667105, Note_off_c, 0, 50, 62
1, 667109, Note_on_c, 0, 73, 88
1, 667109, Control_c, 0, 64, 32
1, 667109, Control_c, 1, 64, 32
1, 667124, Note_on_c, 0, 40, 81
1, 667127, Control_c, 0, 64, 15
1, 667127, Control_c, 1, 64, 15
1, 667147, Control_c, 1, 64, 33
1, 667147, Control_c, 0, 64, 33
1, 667165, Note_on_c, 0, 42, 27
1, 667165, Control_c, 0, 64, 80
1, 667165, Control_c, 1, 64, 80
1, 667174, Note_on_c, 0, 80, 19
1, 667184, Control_c, 0, 64, 127
1, 667184, Control_c, 1, 64, 127
1, 667191, Note_off_c, 0, 73, 60
1, 667191, Note_on_c, 0, 81, 71
1, 667198, Note_on_c, 0, 85, 80
1, 667202, Note_off_c, 0, 40, 61
1, 667210, Note_on_c, 0, 52, 78
1, 667220, Note_off_c, 0, 42, 29
1, 667245, Note_off_c, 0, 80, 55
1, 667246, Poly_aftertouch_c, 0, 80, 0
1, 667256, Note_off_c, 0, 81, 61
1, 667275, Note_off_c, 0, 52, 59
1, 667275, Poly_aftertouch_c, 0, 52, 0
1, 667295, Note_off_c, 0, 85, 64
1, 667306, Note_on_c, 0, 72, 88
1, 667315, Control_c, 0, 64, 82
1, 667315, Control_c, 1, 64, 82
1, 667332, Control_c, 1, 64, 60
1, 667332, Control_c, 0, 64, 60
1, 667334, Note_on_c, 0, 57, 78
1, 667344, Note_on_c, 0, 80, 54
1, 667352, Control_c, 0, 64, 65
1, 667352, Control_c, 1, 64, 65
1, 667371, Control_c, 1, 64, 87
1, 667371, Control_c, 0, 64, 87
1, 667376, Note_off_c, 0, 72, 62
1, 667377, Note_off_c, 0, 80, 62
1, 667390, Control_c, 0, 64, 127
1, 667390, Control_c, 1, 64, 127
1, 667407, Note_on_c, 0, 84, 78
1, 667416, Note_on_c, 0, 81, 63
1, 667441, Note_on_c, 0, 60, 57
1, 667475, Note_off_c, 0, 57, 26
1, 667481, Note_off_c, 0, 60, 62
1, 667481, Note_on_c, 0, 59, 29
1, 667486, Note_off_c, 0, 81, 63
1, 667496, Note_off_c, 0, 84, 63
1, 667502, Control_c, 0, 64, 103
1, 667502, Control_c, 1, 64, 103
1, 667504, Note_on_c, 0, 64, 82
1, 667513, Note_on_c, 0, 71, 84
1, 667521, Control_c, 0, 64, 53
1, 667521, Control_c, 1, 64, 53
1, 667526, Note_off_c, 0, 59, 34
1, 667542, Control_c, 0, 64, 11
1, 667542, Control_c, 1, 64, 11
1, 667558, Control_c, 1, 64, 15
1, 667558, Control_c, 0, 64, 15
1, 667570, Note_off_c, 0, 64, 60
1, 667570, Poly_aftertouch_c, 0, 64, 0
1, 667576, Control_c, 0, 64, 44
1, 667576, Control_c, 1, 64, 44
1, 667592, Note_on_c, 0, 52, 75
1, 667595, Control_c, 0, 64, 104
1, 667595, Control_c, 1, 64, 104
1, 667604, Note_off_c, 0, 71, 50
1, 667609, Note_on_c, 0, 83, 81
1, 667613, Control_c, 0, 64, 127
1, 667613, Control_c, 1, 64, 127
1, 667615, Note_on_c, 0, 80, 74
1, 667676, Note_off_c, 0, 52, 61
1, 667676, Poly_aftertouch_c, 0, 52, 0
1, 667681, Note_off_c, 0, 80, 64
1, 667693, Note_off_c, 0, 83, 62
1, 667703, Note_on_c, 0, 62, 80
1, 667719, Note_on_c, 0, 68, 91
1, 667764, Control_c, 0, 64, 80
1, 667764, Control_c, 1, 64, 80
1, 667770, Note_off_c, 0, 62, 60
1, 667783, Control_c, 0, 64, 21
1, 667783, Control_c, 1, 64, 21
1, 667791, Note_on_c, 0, 52, 81
1, 667801, Control_c, 0, 64, 0
1, 667801, Control_c, 1, 64, 0
1, 667826, Note_on_c, 0, 80, 74
1, 667849, Note_off_c, 0, 68, 39
1, 667850, Note_on_c, 0, 75, 14
1, 667877, Control_c, 0, 64, 30
1, 667877, Control_c, 1, 64, 30
1, 667885, Note_on_c, 0, 78, 18
1, 667896, Control_c, 0, 64, 71
1, 667896, Control_c, 1, 64, 71
1, 667897, Note_on_c, 0, 57, 77
1, 667900, Note_off_c, 0, 78, 39
1, 667903, Note_on_c, 0, 69, 75
1, 667905, Note_off_c, 0, 52, 61
1, 667905, Poly_aftertouch_c, 0, 52, 0
1, 667907, Note_on_c, 0, 61, 88
1, 667911, Note_on_c, 0, 67, 65
1, 667914, Control_c, 0, 64, 127
1, 667914, Control_c, 1, 64, 127
1, 667942, Note_off_c, 0, 67, 43
1, 667949, Note_on_c, 0, 76, 70
1, 667957, Note_off_c, 0, 61, 63
1, 667963, Note_off_c, 0, 57, 63
1, 667964, Note_off_c, 0, 69, 61
1, 667977, Note_on_c, 0, 81, 68
1, 667989, Note_on_c, 0, 83, 64
1, 667998, Note_off_c, 0, 75, 37
1, 668003, Note_off_c, 0, 76, 61
1, 668012, Note_off_c, 0, 83, 64
1, 668028, Note_off_c, 0, 81, 61
1, 668096, Note_off_c, 0, 80, 52
1, 668097, Poly_aftertouch_c, 0, 80, 0
1, 668195, Control_c, 0, 64, 93
1, 668195, Control_c, 1, 64, 93
1, 668208, Note_on_c, 0, 82, 74
1, 668214, Control_c, 0, 64, 51
1, 668214, Control_c, 1, 64, 51
1, 668228, Note_on_c, 0, 70, 73
1, 668232, Control_c, 0, 64, 22
1, 668232, Control_c, 1, 64, 22
1, 668240, Note_on_c, 0, 67, 54
1, 668244, Note_on_c, 0, 61, 59
1, 668251, Control_c, 0, 64, 31
1, 668251, Control_c, 1, 64, 31
1, 668270, Control_c, 1, 64, 62
1, 668270, Control_c, 0, 64, 62
1, 668289, Control_c, 0, 64, 127
1, 668289, Control_c, 1, 64, 127
1, 668309, Note_on_c, 0, 94, 72
1, 668310, Note_off_c, 0, 70, 56
1, 668310, Note_off_c, 0, 67, 57
1, 668320, Note_off_c, 0, 82, 63
1, 668323, Note_on_c, 0, 91, 62
1, 668363, Note_off_c, 0, 91, 60
1, 668405, Note_off_c, 0, 94, 64
1, 668414, Note_on_c, 0, 81, 80
1, 668419, Note_off_c, 0, 61, 58
1, 668420, Control_c, 0, 64, 68
1, 668420, Control_c, 1, 64, 68
1, 668437, Control_c, 1, 64, 34
1, 668437, Control_c, 0, 64, 34
1, 668439, Note_on_c, 0, 62, 66
1, 668439, Note_on_c, 0, 69, 79
1, 668445, Note_on_c, 0, 66, 68
1, 668476, Control_c, 0, 64, 64
1, 668476, Control_c, 1, 64, 64
1, 668492, Note_off_c, 0, 81, 63
1, 668494, Control_c, 0, 64, 127
1, 668494, Control_c, 1, 64, 127
1, 668502, Note_off_c, 0, 69, 58
1, 668505, Note_on_c, 0, 90, 69
1, 668517, Note_on_c, 0, 93, 81
1, 668522, Note_off_c, 0, 66, 55
1, 668567, Note_off_c, 0, 90, 63
1, 668578, Note_off_c, 0, 62, 61
1, 668588, Control_c, 0, 64, 95
1, 668588, Control_c, 1, 64, 95
1, 668597, Note_on_c, 0, 80, 90
1, 668599, Note_on_c, 0, 59, 58
1, 668607, Control_c, 0, 64, 61
1, 668607, Control_c, 1, 64, 61
1, 668613, Note_off_c, 0, 93, 42
1, 668616, Note_on_c, 0, 68, 68
1, 668619, Note_on_c, 0, 65, 57
1, 668625, Control_c, 0, 64, 60
1, 668625, Control_c, 1, 64, 60
1, 668644, Control_c, 1, 64, 81
1, 668644, Control_c, 0, 64, 81
1, 668663, Control_c, 0, 64, 127
1, 668663, Control_c, 1, 64, 127
1, 668685, Note_off_c, 0, 80, 62
1, 668691, Note_on_c, 0, 92, 76
1, 668696, Note_on_c, 0, 89, 47
1, 668702, Note_off_c, 0, 65, 59
1, 668702, Note_off_c, 0, 68, 61
1, 668740, Note_off_c, 0, 89, 56
1, 668756, Control_c, 0, 64, 103
1, 668756, Control_c, 1, 64, 103
1, 668775, Control_c, 1, 64, 66
1, 668775, Control_c, 0, 64, 66
1, 668783, Note_on_c, 0, 79, 87
1, 668785, Note_off_c, 0, 59, 61
1, 668790, Note_on_c, 0, 81, 55
1, 668794, Control_c, 0, 64, 54
1, 668794, Control_c, 1, 64, 54
1, 668795, Note_on_c, 0, 60, 71
1, 668796, Note_off_c, 0, 92, 61
1, 668805, Note_on_c, 0, 67, 68
1, 668810, Note_on_c, 0, 64, 61
1, 668813, Control_c, 0, 64, 63
1, 668813, Control_c, 1, 64, 63
1, 668820, Note_off_c, 0, 81, 41
1, 668832, Control_c, 0, 64, 83
1, 668832, Control_c, 1, 64, 83
1, 668850, Control_c, 1, 64, 127
1, 668850, Control_c, 0, 64, 127
1, 668856, Note_off_c, 0, 79, 65
1, 668866, Note_off_c, 0, 67, 60
1, 668869, Note_on_c, 0, 88, 62
1, 668876, Note_on_c, 0, 91, 82
1, 668881, Note_off_c, 0, 64, 59
1, 668881, Poly_aftertouch_c, 0, 64, 0
1, 668912, Note_off_c, 0, 88, 64
1, 668913, Note_on_c, 0, 90, 35
1, 668943, Control_c, 0, 64, 121
1, 668943, Control_c, 1, 64, 121
1, 668951, Note_off_c, 0, 60, 56
1, 668962, Note_off_c, 0, 90, 51
1, 668963, Control_c, 0, 64, 70
1, 668963, Control_c, 1, 64, 70
1, 668975, Note_on_c, 0, 78, 87
1, 668979, Note_on_c, 0, 57, 73
1, 668982, Control_c, 0, 64, 55
1, 668982, Control_c, 1, 64, 55
1, 668983, Note_on_c, 0, 63, 71
1, 668984, Note_on_c, 0, 66, 68
1, 668985, Note_off_c, 0, 91, 47
1, 669000, Control_c, 0, 64, 68
1, 669000, Control_c, 1, 64, 68
1, 669019, Control_c, 1, 64, 104
1, 669019, Note_on_c, 0, 80, 34
1, 669019, Control_c, 0, 64, 104
1, 669031, Note_on_c, 0, 87, 61
1, 669037, Control_c, 0, 64, 127
1, 669037, Control_c, 1, 64, 127
1, 669045, Note_off_c, 0, 78, 63
1, 669053, Note_off_c, 0, 66, 52
1, 669065, Note_on_c, 0, 90, 66
1, 669070, Note_off_c, 0, 80, 58
1, 669090, Note_off_c, 0, 63, 49
1, 669115, Note_off_c, 0, 87, 65
1, 669126, Note_off_c, 0, 57, 55
1, 669130, Control_c, 0, 64, 95
1, 669130, Control_c, 1, 64, 95
1, 669145, Note_on_c, 0, 77, 89
1, 669150, Control_c, 0, 64, 61
1, 669150, Control_c, 1, 64, 61
1, 669156, Note_off_c, 0, 90, 61
1, 669158, Note_on_c, 0, 62, 67
1, 669161, Note_on_c, 0, 65, 74
1, 669162, Note_on_c, 0, 58, 65
1, 669167, Control_c, 0, 64, 47
1, 669167, Control_c, 1, 64, 47
1, 669186, Control_c, 1, 64, 55
1, 669186, Control_c, 0, 64, 55
1, 669206, Control_c, 0, 64, 72
1, 669206, Control_c, 1, 64, 72
1, 669209, Note_off_c, 0, 65, 60
1, 669218, Note_off_c, 0, 62, 61
1, 669220, Note_off_c, 0, 77, 63
1, 669224, Control_c, 0, 64, 127
1, 669224, Control_c, 1, 64, 127
1, 669228, Note_on_c, 0, 86, 60
1, 669232, Note_on_c, 0, 89, 81
1, 669244, Note_off_c, 0, 58, 64
1, 669296, Note_off_c, 0, 86, 62
1, 669299, Note_off_c, 0, 89, 63
1, 669333, Note_on_c, 0, 74, 86
1, 669337, Control_c, 0, 64, 95
1, 669337, Control_c, 1, 64, 95
1, 669347, Note_on_c, 0, 50, 73
1, 669351, Note_on_c, 0, 62, 67
1, 669355, Control_c, 0, 64, 70
1, 669355, Control_c, 1, 64, 70
1, 669375, Control_c, 1, 64, 72
1, 669375, Control_c, 0, 64, 72
1, 669390, Note_off_c, 0, 62, 65
1, 669392, Control_c, 0, 64, 106
1, 669392, Control_c, 1, 64, 106
1, 669403, Note_off_c, 0, 74, 63
1, 669412, Control_c, 0, 64, 127
1, 669412, Control_c, 1, 64, 127
1, 669437, Note_on_c, 0, 86, 81
1, 669446, Note_on_c, 0, 82, 49
1, 669478, Note_off_c, 0, 82, 63
1, 669487, Control_c, 0, 64, 72
1, 669487, Control_c, 1, 64, 72
1, 669505, Note_off_c, 0, 86, 64
1, 669505, Control_c, 0, 64, 31
1, 669505, Control_c, 1, 64, 31
1, 669508, Note_off_c, 0, 50, 56
1, 669520, Note_on_c, 0, 73, 85
1, 669524, Control_c, 0, 64, 16
1, 669524, Control_c, 1, 64, 16
1, 669531, Note_on_c, 0, 64, 74
1, 669532, Note_on_c, 0, 52, 72
1, 669543, Control_c, 0, 64, 33
1, 669543, Control_c, 1, 64, 33
1, 669560, Control_c, 1, 64, 74
1, 669560, Control_c, 0, 64, 74
1, 669566, Note_off_c, 0, 64, 64
1, 669566, Poly_aftertouch_c, 0, 64, 0
1, 669583, Control_c, 0, 64, 127
1, 669583, Control_c, 1, 64, 127
1, 669584, Note_off_c, 0, 73, 61
1, 669591, Note_on_c, 0, 81, 63
1, 669609, Note_off_c, 0, 52, 61
1, 669609, Poly_aftertouch_c, 0, 52, 0
1, 669626, Note_on_c, 0, 85, 68
1, 669667, Note_off_c, 0, 81, 52
1, 669674, Control_c, 0, 64, 78
1, 669674, Control_c, 1, 64, 78
1, 669692, Control_c, 1, 64, 43
1, 669692, Control_c, 0, 64, 43
1, 669700, Note_on_c, 0, 76, 87
1, 669702, Note_off_c, 0, 85, 54
1, 669711, Note_on_c, 0, 40, 82
1, 669711, Control_c, 0, 64, 26
1, 669711, Control_c, 1, 64, 26
1, 669716, Note_on_c, 0, 52, 79
1, 669730, Control_c, 0, 64, 34
1, 669730, Control_c, 1, 64, 34
1, 669748, Control_c, 1, 64, 63
1, 669748, Control_c, 0, 64, 63
1, 669767, Control_c, 0, 64, 127
1, 669767, Control_c, 1, 64, 127
1, 669769, Note_off_c, 0, 40, 60
1, 669772, Note_off_c, 0, 76, 63
1, 669778, Note_on_c, 0, 88, 74
1, 669806, Note_on_c, 0, 84, 56
1, 669828, Note_off_c, 0, 52, 57
1, 669828, Poly_aftertouch_c, 0, 52, 0
1, 669842, Control_c, 0, 64, 107
1, 669842, Control_c, 1, 64, 107
1, 669861, Control_c, 1, 64, 57
1, 669861, Control_c, 0, 64, 57
1, 669871, Note_off_c, 0, 88, 62
1, 669871, Poly_aftertouch_c, 0, 85, 0
1, 669880, Control_c, 0, 64, 26
1, 669880, Control_c, 1, 64, 26
1, 669886, Note_on_c, 0, 75, 92
1, 669891, Note_on_c, 0, 54, 80
1, 669898, Control_c, 0, 64, 33
1, 669898, Control_c, 1, 64, 33
1, 669905, Note_on_c, 0, 52, 63
1, 669917, Control_c, 0, 64, 67
1, 669917, Control_c, 1, 64, 67
1, 669936, Control_c, 1, 64, 127
1, 669936, Control_c, 0, 64, 127
1, 669957, Note_off_c, 0, 75, 64
1, 669987, Note_off_c, 0, 52, 59
1, 669987, Poly_aftertouch_c, 0, 52, 0
1, 669999, Note_on_c, 0, 87, 80
1, 670014, Note_off_c, 0, 54, 59
1, 670026, Note_on_c, 0, 82, 50
1, 670029, Note_off_c, 0, 84, 61
1, 670048, Control_c, 0, 64, 101
1, 670048, Control_c, 1, 64, 101
1, 670052, Note_on_c, 0, 52, 74
1, 670052, Note_on_c, 0, 56, 80
1, 670063, Note_on_c, 0, 74, 84
1, 670067, Control_c, 0, 64, 53
1, 670067, Control_c, 1, 64, 53
1, 670068, Note_off_c, 0, 87, 65
1, 670085, Control_c, 0, 64, 23
1, 670085, Control_c, 1, 64, 23
1, 670104, Control_c, 1, 64, 34
1, 670104, Control_c, 0, 64, 34
1, 670122, Control_c, 0, 64, 76
1, 670122, Control_c, 1, 64, 76
1, 670140, Note_off_c, 0, 74, 64
1, 670141, Control_c, 0, 64, 127
1, 670141, Control_c, 1, 64, 127
1, 670150, Note_on_c, 0, 86, 86
1, 670152, Poly_aftertouch_c, 0, 80, 0
1, 670155, Note_off_c, 0, 56, 59
1, 670172, Note_off_c, 0, 52, 59
1, 670172, Poly_aftertouch_c, 0, 52, 0
1, 670174, Note_off_c, 0, 82, 21
1, 670203, Note_on_c, 0, 81, 19
1, 670216, Note_on_c, 0, 57, 76
1, 670225, Note_on_c, 0, 52, 65
1, 670232, Note_off_c, 0, 86, 62
1, 670233, Control_c, 0, 64, 66
1, 670233, Control_c, 1, 64, 66
1, 670241, Note_on_c, 0, 73, 88
1, 670254, Control_c, 0, 64, 39
1, 670254, Control_c, 1, 64, 39
1, 670273, Control_c, 1, 64, 45
1, 670273, Control_c, 0, 64, 45
1, 670280, Note_on_c, 0, 75, 43
1, 670291, Control_c, 0, 64, 74
1, 670291, Control_c, 1, 64, 74
1, 670310, Control_c, 1, 64, 127
1, 670310, Control_c, 0, 64, 127
1, 670322, Note_off_c, 0, 73, 59
1, 670322, Note_off_c, 0, 75, 39
1, 670326, Note_on_c, 0, 85, 74
1, 670338, Note_off_c, 0, 57, 62
1, 670372, Note_off_c, 0, 52, 60
1, 670372, Poly_aftertouch_c, 0, 52, 0
1, 670378, Note_off_c, 0, 81, 56
1, 670404, Control_c, 0, 64, 89
1, 670404, Control_c, 1, 64, 89
1, 670409, Note_on_c, 0, 72, 89
1, 670417, Note_off_c, 0, 85, 61
1, 670422, Control_c, 0, 64, 50
1, 670422, Control_c, 1, 64, 50
1, 670423, Note_on_c, 0, 60, 81
1, 670439, Note_on_c, 0, 52, 65
1, 670440, Control_c, 0, 64, 32
1, 670440, Control_c, 1, 64, 32
1, 670460, Control_c, 1, 64, 46
1, 670460, Control_c, 0, 64, 46
1, 670479, Control_c, 0, 64, 86
1, 670479, Control_c, 1, 64, 86
1, 670485, Note_off_c, 0, 72, 62
1, 670496, Note_on_c, 0, 81, 69
1, 670497, Control_c, 0, 64, 127
1, 670497, Control_c, 1, 64, 127
1, 670510, Note_on_c, 0, 84, 81
1, 670527, Note_off_c, 0, 52, 59
1, 670527, Poly_aftertouch_c, 0, 52, 0
1, 670544, Note_off_c, 0, 60, 59
1, 670570, Note_off_c, 0, 81, 62
1, 670588, Note_off_c, 0, 84, 65
1, 670590, Control_c, 0, 64, 69
1, 670590, Control_c, 1, 64, 69
1, 670606, Note_on_c, 0, 71, 86
1, 670610, Note_on_c, 0, 64, 78
1, 670610, Control_c, 0, 64, 31
1, 670610, Control_c, 1, 64, 31
1, 670622, Note_on_c, 0, 52, 70
1, 670646, Control_c, 0, 64, 58
1, 670646, Control_c, 1, 64, 58
1, 670668, Control_c, 1, 64, 127
1, 670668, Control_c, 0, 64, 127
1, 670677, Note_off_c, 0, 71, 65
1, 670677, Note_on_c, 0, 80, 65
1, 670705, Poly_aftertouch_c, 0, 50, 0
1, 670709, Note_on_c, 0, 83, 80
1, 670712, Note_off_c, 0, 64, 61
1, 670712, Poly_aftertouch_c, 0, 64, 0
1, 670748, Note_on_c, 0, 81, 49
1, 670752, Note_off_c, 0, 52, 58
1, 670752, Poly_aftertouch_c, 0, 52, 0
1, 670762, Note_off_c, 0, 80, 64
1, 670786, Note_off_c, 0, 83, 62
1, 670796, Control_c, 0, 64, 112
1, 670796, Control_c, 1, 64, 112
1, 670797, Note_on_c, 0, 68, 91
1, 670804, Note_off_c, 0, 81, 46
1, 670812, Note_on_c, 0, 62, 86
1, 670815, Control_c, 0, 64, 57
1, 670815, Control_c, 1, 64, 57
1, 670819, Note_on_c, 0, 52, 66
1, 670833, Control_c, 0, 64, 15
1, 670833, Control_c, 1, 64, 15
1, 670871, Control_c, 1, 64, 52
1, 670871, Control_c, 0, 64, 52
1, 670891, Note_off_c, 0, 68, 61
1, 670891, Control_c, 0, 64, 127
1, 670891, Control_c, 1, 64, 127
1, 670901, Note_on_c, 0, 80, 72
1, 670906, Note_on_c, 0, 76, 50
1, 670955, Note_off_c, 0, 76, 44
1, 670960, Note_on_c, 0, 57, 74
1, 670963, Note_on_c, 0, 61, 79
1, 670968, Note_off_c, 0, 62, 57
1, 670973, Note_on_c, 0, 69, 91
1, 670984, Control_c, 0, 64, 102
1, 670984, Control_c, 1, 64, 102
1, 670994, Note_off_c, 0, 61, 69
1, 670998, Poly_aftertouch_c, 0, 78, 127
1, 671002, Control_c, 0, 64, 52
1, 671002, Control_c, 1, 64, 52
1, 671012, Note_off_c, 0, 52, 35
1, 671012, Poly_aftertouch_c, 0, 52, 0
1, 671030, Note_off_c, 0, 57, 65
1, 671032, Note_off_c, 0, 80, 53
1, 671032, Poly_aftertouch_c, 0, 78, 0
1, 671040, Note_off_c, 0, 69, 63
1, 671059, Control_c, 0, 64, 42
1, 671059, Control_c, 1, 64, 42
1, 671078, Control_c, 1, 64, 127
1, 671078, Control_c, 0, 64, 127
1, 671080, Note_on_c, 0, 76, 44
1, 671127, Poly_aftertouch_c, 0, 81, 0
1, 671135, Note_off_c, 0, 76, 41
1, 671139, Note_on_c, 0, 49, 87
1, 671146, Note_on_c, 0, 70, 91
1, 671152, Note_on_c, 0, 37, 84
1, 671184, Note_on_c, 0, 78, 8
1, 671210, Control_c, 0, 64, 57
1, 671210, Control_c, 1, 64, 57
1, 671228, Control_c, 1, 64, 0
1, 671228, Control_c, 0, 64, 0
1, 671239, Note_on_c, 0, 79, 71
1, 671245, Note_off_c, 0, 70, 61
1, 671257, Note_off_c, 0, 49, 60
1, 671264, Control_c, 0, 64, 33
1, 671264, Control_c, 1, 64, 33
1, 671274, Note_on_c, 0, 82, 68
1, 671285, Control_c, 0, 64, 122
1, 671285, Control_c, 1, 64, 122
1, 671301, Note_off_c, 0, 37, 64
1, 671301, Control_c, 0, 64, 127
1, 671301, Control_c, 1, 64, 127
1, 671306, Note_off_c, 0, 79, 63
1, 671327, Note_on_c, 0, 69, 88
1, 671330, Note_off_c, 0, 82, 65
1, 671337, Note_on_c, 0, 38, 79
1, 671338, Note_on_c, 0, 50, 80
1, 671405, Note_off_c, 0, 69, 61
1, 671418, Note_off_c, 0, 50, 63
1, 671427, Note_off_c, 0, 78, 64
1, 671427, Note_on_c, 0, 78, 28
1, 671434, Note_on_c, 0, 81, 81
1, 671475, Poly_aftertouch_c, 0, 40, 0
1, 671509, Note_on_c, 0, 68, 88
1, 671520, Note_off_c, 0, 38, 53
1, 671521, Note_on_c, 0, 35, 82
1, 671525, Note_on_c, 0, 47, 84
1, 671526, Note_off_c, 0, 78, 60
1, 671527, Note_off_c, 0, 81, 59
1, 671528, Control_c, 0, 64, 67
1, 671528, Control_c, 1, 64, 67
1, 671546, Control_c, 1, 64, 14
1, 671546, Control_c, 0, 64, 14
1, 671564, Control_c, 0, 64, 0
1, 671564, Control_c, 1, 64, 0
1, 671584, Control_c, 1, 64, 17
1, 671584, Control_c, 0, 64, 17
1, 671595, Note_off_c, 0, 47, 64
1, 671602, Control_c, 0, 64, 68
1, 671602, Control_c, 1, 64, 68
1, 671604, Note_on_c, 0, 77, 57
1, 671615, Note_on_c, 0, 80, 74
1, 671620, Control_c, 0, 64, 127
1, 671620, Control_c, 1, 64, 127
1, 671621, Note_off_c, 0, 68, 58
1, 671658, Note_off_c, 0, 77, 55
1, 671692, Note_off_c, 0, 35, 55
1, 671696, Note_on_c, 0, 36, 78
1, 671696, Note_on_c, 0, 67, 86
1, 671698, Control_c, 0, 64, 87
1, 671698, Control_c, 1, 64, 87
1, 671709, Note_on_c, 0, 48, 80
1, 671714, Note_off_c, 0, 80, 66
1, 671717, Control_c, 0, 64, 42
1, 671717, Control_c, 1, 64, 42
1, 671733, Control_c, 1, 64, 30
1, 671733, Control_c, 0, 64, 30
1, 671751, Control_c, 0, 64, 52
1, 671751, Control_c, 1, 64, 52
1, 671770, Control_c, 1, 64, 127
1, 671770, Control_c, 0, 64, 127
1, 671776, Note_off_c, 0, 67, 65
1, 671782, Note_off_c, 0, 48, 61
1, 671782, Note_on_c, 0, 76, 67
1, 671791, Note_on_c, 0, 79, 80
1, 671846, Note_off_c, 0, 76, 62
1, 671860, Note_off_c, 0, 36, 60
1, 671863, Control_c, 0, 64, 71
1, 671863, Control_c, 1, 64, 71
1, 671873, Note_on_c, 0, 33, 81
1, 671875, Note_off_c, 0, 79, 54
1, 671877, Note_on_c, 0, 45, 82
1, 671878, Note_on_c, 0, 66, 94
1, 671882, Control_c, 0, 64, 45
1, 671882, Control_c, 1, 64, 45
1, 671900, Control_c, 1, 64, 60
1, 671900, Control_c, 0, 64, 60
1, 671920, Control_c, 0, 64, 110
1, 671920, Control_c, 1, 64, 110
1, 671937, Note_off_c, 0, 45, 60
1, 671937, Control_c, 0, 64, 127
1, 671937, Control_c, 1, 64, 127
1, 671939, Note_off_c, 0, 66, 58
1, 671968, Note_on_c, 0, 75, 63
1, 671987, Note_on_c, 0, 78, 71
1, 672050, Note_on_c, 0, 65, 82
1, 672050, Control_c, 0, 64, 81
1, 672050, Control_c, 1, 64, 81
1, 672058, Note_on_c, 0, 34, 84
1, 672061, Note_on_c, 0, 46, 86
1, 672069, Control_c, 0, 64, 48
1, 672069, Control_c, 1, 64, 48
1, 672070, Note_off_c, 0, 78, 66
1, 672076, Note_off_c, 0, 75, 50
1, 672082, Note_off_c, 0, 33, 59
1, 672088, Control_c, 0, 64, 46
1, 672088, Control_c, 1, 64, 46
1, 672108, Control_c, 1, 64, 69
1, 672108, Control_c, 0, 64, 69
1, 672125, Control_c, 0, 64, 127
1, 672125, Control_c, 1, 64, 127
1, 672133, Note_off_c, 0, 46, 62
1, 672136, Note_on_c, 0, 77, 82
1, 672137, Note_off_c, 0, 34, 62
1, 672139, Note_off_c, 0, 65, 58
1, 672163, Note_on_c, 0, 74, 69
1, 672201, Control_c, 0, 64, 117
1, 672201, Control_c, 1, 64, 117
1, 672209, Note_off_c, 0, 77, 63
1, 672213, Note_off_c, 0, 74, 55
1, 672218, Control_c, 0, 64, 64
1, 672218, Control_c, 1, 64, 64
1, 672237, Control_c, 1, 64, 36
1, 672237, Control_c, 0, 64, 36
1, 672250, Note_on_c, 0, 62, 81
1, 672252, Note_on_c, 0, 38, 84
1, 672256, Control_c, 0, 64, 42
1, 672256, Control_c, 1, 64, 42
1, 672259, Note_on_c, 0, 50, 78
1, 672275, Control_c, 0, 64, 69
1, 672275, Control_c, 1, 64, 69
1, 672295, Control_c, 1, 64, 127
1, 672295, Control_c, 0, 64, 127
1, 672324, Note_off_c, 0, 62, 63
1, 672335, Note_off_c, 0, 50, 55
1, 672357, Note_on_c, 0, 74, 68
1, 672372, Note_on_c, 0, 70, 39
1, 672409, Note_on_c, 0, 71, 40
1, 672414, Note_off_c, 0, 70, 54
1, 672426, Control_c, 0, 64, 84
1, 672426, Control_c, 1, 64, 84
1, 672443, Note_off_c, 0, 71, 50
1, 672445, Poly_aftertouch_c, 0, 76, 0
1, 672445, Control_c, 0, 64, 44
1, 672445, Control_c, 1, 64, 44
1, 672446, Note_on_c, 0, 61, 80
1, 672448, Note_off_c, 0, 38, 51
1, 672459, Note_off_c, 0, 74, 60
1, 672480, Control_c, 0, 64, 0
1, 672480, Control_c, 1, 64, 0
1, 672484, Note_on_c, 0, 40, 71
1, 672486, Note_on_c, 0, 52, 69
1, 672519, Control_c, 0, 64, 26
1, 672519, Control_c, 1, 64, 26
1, 672527, Note_off_c, 0, 52, 65
1, 672527, Poly_aftertouch_c, 0, 52, 0
1, 672535, Note_off_c, 0, 61, 58
1, 672536, Control_c, 0, 64, 75
1, 672536, Control_c, 1, 64, 75
1, 672540, Note_on_c, 0, 69, 59
1, 672554, Note_on_c, 0, 73, 72
1, 672555, Control_c, 0, 64, 127
1, 672555, Control_c, 1, 64, 127
1, 672572, Note_off_c, 0, 40, 63
1, 672597, Note_off_c, 0, 69, 55
1, 672648, Note_off_c, 0, 73, 59
1, 672649, Control_c, 0, 64, 85
1, 672649, Control_c, 1, 64, 85
1, 672669, Control_c, 1, 64, 44
1, 672669, Control_c, 0, 64, 44
1, 672672, Note_on_c, 0, 64, 76
1, 672688, Control_c, 0, 64, 0
1, 672688, Control_c, 1, 64, 0
1, 672690, Note_on_c, 0, 28, 77
1, 672698, Note_on_c, 0, 40, 78
1, 672725, Control_c, 0, 64, 21
1, 672725, Control_c, 1, 64, 21
1, 672733, Note_on_c, 0, 29, 39
1, 672734, Note_off_c, 0, 29, 127
1, 672738, Note_off_c, 0, 28, 67
1, 672740, Note_off_c, 0, 64, 61
1, 672740, Poly_aftertouch_c, 0, 64, 0
1, 672744, Control_c, 0, 64, 63
1, 672744, Control_c, 1, 64, 63
1, 672763, Control_c, 1, 64, 127
1, 672763, Control_c, 0, 64, 127
1, 672771, Note_on_c, 0, 76, 72
1, 672775, Note_on_c, 0, 72, 35
1, 672787, Poly_aftertouch_c, 0, 29, 0
1, 672804, Note_off_c, 0, 40, 55
1, 672832, Note_off_c, 0, 72, 44
1, 672832, Note_off_c, 0, 76, 62
1, 672855, Note_on_c, 0, 63, 87
1, 672891, Poly_aftertouch_c, 0, 73, 0
1, 672893, Note_on_c, 0, 42, 75
1, 672893, Control_c, 0, 64, 69
1, 672893, Control_c, 1, 64, 69
1, 672905, Note_on_c, 0, 40, 59
1, 672910, Control_c, 0, 64, 38
1, 672910, Control_c, 1, 64, 38
1, 672931, Note_off_c, 0, 63, 59
1, 672931, Control_c, 0, 64, 41
1, 672931, Control_c, 1, 64, 41
1, 672950, Control_c, 1, 64, 68
1, 672950, Control_c, 0, 64, 68
1, 672954, Note_off_c, 0, 42, 58
1, 672959, Note_off_c, 0, 40, 63
1, 672965, Note_on_c, 0, 75, 75
1, 672968, Control_c, 0, 64, 127
1, 672968, Control_c, 1, 64, 127
1, 672976, Note_on_c, 0, 72, 34
1, 673027, Note_off_c, 0, 72, 52
1, 673035, Note_on_c, 0, 62, 80
1, 673038, Note_off_c, 0, 75, 64
1, 673054, Note_on_c, 0, 44, 77
1, 673056, Note_on_c, 0, 40, 81
1, 673062, Control_c, 0, 64, 79
1, 673062, Control_c, 1, 64, 79
1, 673082, Control_c, 1, 64, 38
1, 673082, Control_c, 0, 64, 38
1, 673099, Control_c, 0, 64, 26
1, 673099, Control_c, 1, 64, 26
1, 673112, Note_off_c, 0, 62, 63
1, 673117, Control_c, 0, 64, 48
1, 673117, Control_c, 1, 64, 48
1, 673124, Note_on_c, 0, 74, 80
1, 673138, Control_c, 0, 64, 95
1, 673138, Control_c, 1, 64, 95
1, 673156, Control_c, 1, 64, 127
1, 673156, Control_c, 0, 64, 127
1, 673163, Note_off_c, 0, 44, 59
1, 673172, Note_off_c, 0, 40, 60
1, 673210, Note_off_c, 0, 74, 60
1, 673224, Note_on_c, 0, 61, 88
1, 673229, Note_on_c, 0, 45, 76
1, 673230, Control_c, 0, 64, 101
1, 673230, Control_c, 1, 64, 101
1, 673231, Note_on_c, 0, 40, 63
1, 673249, Control_c, 0, 64, 63
1, 673249, Control_c, 1, 64, 63
1, 673268, Control_c, 1, 64, 57
1, 673268, Control_c, 0, 64, 57
1, 673286, Control_c, 0, 64, 76
1, 673286, Control_c, 1, 64, 76
1, 673295, Note_on_c, 0, 69, 46
1, 673302, Note_off_c, 0, 45, 62
1, 673303, Note_off_c, 0, 61, 59
1, 673304, Control_c, 0, 64, 127
1, 673304, Control_c, 1, 64, 127
1, 673312, Note_on_c, 0, 73, 71
1, 673326, Note_off_c, 0, 40, 59
1, 673339, Note_off_c, 0, 69, 59
1, 673393, Note_on_c, 0, 60, 85
1, 673396, Note_off_c, 0, 73, 56
1, 673398, Note_on_c, 0, 48, 83
1, 673399, Control_c, 0, 64, 112
1, 673399, Control_c, 1, 64, 112
1, 673412, Note_on_c, 0, 40, 68
1, 673417, Control_c, 0, 64, 66
1, 673417, Control_c, 1, 64, 66
1, 673436, Control_c, 1, 64, 44
1, 673436, Control_c, 0, 64, 44
1, 673455, Control_c, 0, 64, 51
1, 673455, Control_c, 1, 64, 51
1, 673464, Note_off_c, 0, 60, 60
1, 673473, Control_c, 0, 64, 75
1, 673473, Control_c, 1, 64, 75
1, 673480, Note_on_c, 0, 69, 62
1, 673491, Note_off_c, 0, 48, 51
1, 673493, Control_c, 0, 64, 127
1, 673493, Control_c, 1, 64, 127
1, 673504, Note_on_c, 0, 72, 78
1, 673510, Note_off_c, 0, 40, 59
1, 673543, Note_off_c, 0, 69, 62
1, 673558, Note_off_c, 0, 72, 60
1, 673566, Control_c, 0, 64, 85
1, 673566, Control_c, 1, 64, 85
1, 673579, Note_on_c, 0, 59, 84
1, 673585, Note_on_c, 0, 40, 67
1, 673585, Control_c, 0, 64, 45
1, 673585, Control_c, 1, 64, 45
1, 673588, Note_on_c, 0, 52, 84
1, 673605, Control_c, 0, 64, 22
1, 673605, Control_c, 1, 64, 22
1, 673623, Control_c, 1, 64, 32
1, 673623, Control_c, 0, 64, 32
1, 673639, Note_off_c, 0, 59, 64
1, 673641, Control_c, 0, 64, 66
1, 673641, Control_c, 1, 64, 66
1, 673651, Note_off_c, 0, 40, 59
1, 673651, Note_on_c, 0, 68, 44
1, 673658, Control_c, 0, 64, 127
1, 673658, Control_c, 1, 64, 127
1, 673680, Note_off_c, 0, 52, 60
1, 673680, Poly_aftertouch_c, 0, 52, 0
1, 673691, Note_off_c, 0, 68, 53
1, 673694, Note_on_c, 0, 71, 70
1, 673725, Note_off_c, 0, 71, 64
1, 673754, Control_c, 0, 64, 76
1, 673754, Control_c, 1, 64, 76
1, 673773, Control_c, 1, 64, 40
1, 673773, Control_c, 0, 64, 40
1, 673782, Note_on_c, 0, 56, 81
1, 673789, Note_on_c, 0, 52, 79
1, 673791, Note_on_c, 0, 64, 79
1, 673791, Control_c, 0, 64, 26
1, 673791, Control_c, 1, 64, 26
1, 673811, Control_c, 1, 64, 37
1, 673811, Control_c, 0, 64, 37
1, 673829, Control_c, 0, 64, 71
1, 673829, Control_c, 1, 64, 71
1, 673848, Control_c, 1, 64, 127
1, 673848, Control_c, 0, 64, 127
1, 673849, Note_off_c, 0, 64, 62
1, 673849, Poly_aftertouch_c, 0, 64, 0
1, 673870, Note_on_c, 0, 76, 75
1, 673872, Note_off_c, 0, 52, 39
1, 673872, Poly_aftertouch_c, 0, 52, 0
1, 673893, Note_on_c, 0, 75, 44
1, 673898, Note_off_c, 0, 76, 67
1, 673927, Note_off_c, 0, 56, 57
1, 673928, Note_off_c, 0, 75, 56
1, 673943, Control_c, 0, 64, 68
1, 673943, Control_c, 1, 64, 68
1, 673947, Poly_aftertouch_c, 0, 71, 0
1, 673960, Control_c, 0, 64, 36
1, 673960, Control_c, 1, 64, 36
1, 673972, Note_on_c, 0, 73, 88
1, 673977, Note_on_c, 0, 57, 84
1, 673977, Control_c, 0, 64, 30
1, 673977, Control_c, 1, 64, 30
1, 673978, Note_on_c, 0, 52, 86
1, 673997, Control_c, 0, 64, 47
1, 673997, Control_c, 1, 64, 47
1, 674017, Control_c, 1, 64, 92
1, 674017, Control_c, 0, 64, 92
1, 674033, Note_on_c, 0, 75, 35
1, 674035, Control_c, 0, 64, 127
1, 674035, Control_c, 1, 64, 127
1, 674044, Note_off_c, 0, 73, 63
1, 674068, Note_off_c, 0, 52, 59
1, 674068, Poly_aftertouch_c, 0, 52, 0
1, 674073, Note_on_c, 0, 85, 83
1, 674076, Note_off_c, 0, 75, 53
1, 674090, Note_on_c, 0, 81, 45
1, 674124, Note_off_c, 0, 57, 58
1, 674127, Control_c, 0, 64, 109
1, 674127, Control_c, 1, 64, 109
1, 674134, Note_off_c, 0, 85, 64
1, 674144, Note_off_c, 0, 81, 48
1, 674147, Control_c, 0, 64, 61
1, 674147, Control_c, 1, 64, 61
1, 674152, Note_on_c, 0, 72, 84
1, 674155, Poly_aftertouch_c, 0, 82, 0
1, 674161, Poly_aftertouch_c, 0, 82, 0
1, 674166, Control_c, 0, 64, 33
1, 674166, Control_c, 1, 64, 33
1, 674169, Note_on_c, 0, 52, 81
1, 674171, Note_on_c, 0, 60, 84
1, 674184, Control_c, 0, 64, 37
1, 674184, Control_c, 1, 64, 37
1, 674204, Control_c, 1, 64, 63
1, 674204, Control_c, 0, 64, 63
1, 674223, Control_c, 0, 64, 127
1, 674223, Control_c, 1, 64, 127
1, 674226, Note_off_c, 0, 72, 62
1, 674230, Note_on_c, 0, 81, 46
1, 674256, Note_on_c, 0, 84, 80
1, 674271, Note_off_c, 0, 52, 60
1, 674271, Poly_aftertouch_c, 0, 52, 0
1, 674291, Note_off_c, 0, 60, 59
1, 674304, Note_off_c, 0, 81, 62
1, 674328, Note_off_c, 0, 84, 62
1, 674334, Control_c, 0, 64, 121
1, 674334, Control_c, 1, 64, 121
1, 674337, Note_on_c, 0, 71, 91
1, 674339, Note_on_c, 0, 52, 77
1, 674344, Note_on_c, 0, 64, 91
1, 674352, Control_c, 0, 64, 62
1, 674352, Control_c, 1, 64, 62
1, 674372, Control_c, 1, 64, 26
1, 674372, Control_c, 0, 64, 26
1, 674401, Note_off_c, 0, 71, 64
1, 674401, Note_on_c, 0, 80, 48
1, 674408, Control_c, 0, 64, 55
1, 674408, Control_c, 1, 64, 55
1, 674414, Note_off_c, 0, 52, 59
1, 674414, Poly_aftertouch_c, 0, 52, 0
1, 674428, Control_c, 0, 64, 127
1, 674428, Control_c, 1, 64, 127
1, 674440, Note_on_c, 0, 83, 86
1, 674441, Note_off_c, 0, 80, 64
1, 674458, Note_off_c, 0, 64, 64
1, 674458, Poly_aftertouch_c, 0, 64, 0
1, 674478, Note_off_c, 0, 83, 60
1, 674522, Control_c, 0, 64, 86
1, 674522, Control_c, 1, 64, 86
1, 674534, Note_on_c, 0, 76, 93
1, 674539, Note_on_c, 0, 68, 83
1, 674540, Control_c, 0, 64, 54
1, 674540, Control_c, 1, 64, 54
1, 674555, Note_on_c, 0, 64, 71
1, 674560, Control_c, 0, 64, 47
1, 674560, Control_c, 1, 64, 47
1, 674579, Control_c, 1, 64, 62
1, 674579, Control_c, 0, 64, 62
1, 674597, Control_c, 0, 64, 105
1, 674597, Control_c, 1, 64, 105
1, 674599, Note_off_c, 0, 76, 64
1, 674616, Control_c, 0, 64, 127
1, 674616, Control_c, 1, 64, 127
1, 674638, Note_on_c, 0, 88, 74
1, 674654, Note_off_c, 0, 64, 61
1, 674654, Poly_aftertouch_c, 0, 64, 0
1, 674679, Note_off_c, 0, 68, 60
1, 674683, Note_off_c, 0, 88, 63
1, 674691, Control_c, 0, 64, 87
1, 674691, Control_c, 1, 64, 87
1, 674709, Control_c, 1, 64, 43
1, 674709, Control_c, 0, 64, 43
1, 674725, Note_on_c, 0, 69, 87
1, 674727, Control_c, 0, 64, 21
1, 674727, Control_c, 1, 64, 21
1, 674735, Note_on_c, 0, 64, 74
1, 674737, Note_on_c, 0, 85, 101
1, 674746, Control_c, 0, 64, 33
1, 674746, Control_c, 1, 64, 33
1, 674766, Control_c, 1, 64, 70
1, 674766, Control_c, 0, 64, 70
1, 674784, Control_c, 0, 64, 127
1, 674784, Control_c, 1, 64, 127
1, 674826, Note_off_c, 0, 85, 64
1, 674829, Note_off_c, 0, 64, 62
1, 674829, Poly_aftertouch_c, 0, 64, 0
1, 674852, Note_on_c, 0, 93, 65
1, 674852, Note_on_c, 0, 97, 83
1, 674866, Note_on_c, 0, 94, 46
1, 674867, Note_off_c, 0, 69, 61
1, 674898, Note_off_c, 0, 94, 57
1, 674919, Note_off_c, 0, 97, 65
1, 674921, Note_on_c, 0, 84, 90
1, 674926, Note_on_c, 0, 64, 76
1, 674931, Note_on_c, 0, 72, 85
1, 674933, Control_c, 0, 64, 101
1, 674933, Control_c, 1, 64, 101
1, 674953, Control_c, 1, 64, 59
1, 674953, Control_c, 0, 64, 59
1, 674972, Control_c, 0, 64, 44
1, 674972, Control_c, 1, 64, 44
1, 674985, Poly_aftertouch_c, 0, 92, 127
1, 674987, Control_c, 0, 64, 56
1, 674987, Control_c, 1, 64, 56
1, 674991, Poly_aftertouch_c, 0, 92, 0
1, 675010, Control_c, 0, 64, 84
1, 675010, Control_c, 1, 64, 84
1, 675011, Note_off_c, 0, 84, 64
1, 675027, Control_c, 0, 64, 127
1, 675027, Control_c, 1, 64, 127
1, 675033, Note_off_c, 0, 64, 62
1, 675033, Poly_aftertouch_c, 0, 64, 0
1, 675036, Note_off_c, 0, 93, 64
1, 675036, Note_on_c, 0, 93, 30
1, 675036, Note_on_c, 0, 96, 80
1, 675040, Note_off_c, 0, 72, 58
1, 675073, Note_on_c, 0, 95, 48
1, 675083, Note_on_c, 0, 64, 62
1, 675098, Note_on_c, 0, 76, 93
1, 675109, Note_off_c, 0, 93, 65
1, 675110, Note_off_c, 0, 96, 63
1, 675115, Note_off_c, 0, 95, 41
1, 675119, Note_on_c, 0, 83, 91
1, 675121, Control_c, 0, 64, 102
1, 675121, Control_c, 1, 64, 102
1, 675140, Control_c, 1, 64, 66
1, 675140, Control_c, 0, 64, 66
1, 675152, Note_off_c, 0, 64, 63
1, 675152, Poly_aftertouch_c, 0, 64, 0
1, 675158, Control_c, 0, 64, 59
1, 675158, Control_c, 1, 64, 59
1, 675169, Note_off_c, 0, 76, 64
1, 675177, Control_c, 0, 64, 76
1, 675177, Control_c, 1, 64, 76
1, 675193, Note_on_c, 0, 92, 70
1, 675195, Note_off_c, 0, 83, 66
1, 675195, Control_c, 0, 64, 127
1, 675195, Control_c, 1, 64, 127
1, 675222, Note_on_c, 0, 95, 75
1, 675226, Note_off_c, 0, 92, 70
1, 675269, Note_off_c, 0, 95, 63
1, 675274, Poly_aftertouch_c, 0, 94, 0
1, 675294, Note_on_c, 0, 76, 86
1, 675294, Note_on_c, 0, 80, 84
1, 675319, Note_on_c, 0, 88, 92
1, 675322, Note_off_c, 0, 80, 64
1, 675350, Note_off_c, 0, 76, 65
1, 675395, Poly_aftertouch_c, 0, 75, 127
1, 675408, Note_on_c, 0, 100, 96
1, 675422, Poly_aftertouch_c, 0, 75, 0
1, 675435, Note_on_c, 0, 95, 71
1, 675440, Note_on_c, 0, 97, 61
1, 675483, Note_off_c, 0, 97, 61
1, 675551, Control_c, 0, 64, 98
1, 675551, Control_c, 1, 64, 98
1, 675571, Control_c, 1, 64, 44
1, 675571, Control_c, 0, 64, 44
1, 675573, Note_off_c, 0, 88, 60
1, 675575, Note_on_c, 0, 81, 91
1, 675577, Note_on_c, 0, 76, 86
1, 675581, Note_off_c, 0, 95, 55
1, 675583, Note_off_c, 0, 100, 63
1, 675583, Poly_aftertouch_c, 0, 98, 0
1, 675586, Note_on_c, 0, 69, 88
1, 675589, Control_c, 0, 64, 0
1, 675589, Control_c, 1, 64, 0
1, 675645, Control_c, 1, 64, 21
1, 675645, Control_c, 0, 64, 21
1, 675663, Control_c, 0, 64, 68
1, 675663, Control_c, 1, 64, 68
1, 675683, Control_c, 1, 64, 127
1, 675683, Control_c, 0, 64, 127
1, 675738, Note_on_c, 0, 96, 92
1, 675739, Note_on_c, 0, 88, 86
1, 675740, Note_on_c, 0, 84, 89
1, 675741, Note_off_c, 0, 81, 61
1, 675770, Note_on_c, 0, 95, 56
1, 675777, Note_off_c, 0, 76, 62
1, 675779, Note_off_c, 0, 95, 127
1, 675788, Note_off_c, 0, 69, 60
1, 675793, Note_off_c, 0, 88, 60
1, 675828, Poly_aftertouch_c, 0, 94, 0
1, 675855, Poly_aftertouch_c, 0, 90, 0
1, 675882, Note_off_c, 0, 96, 63
1, 675885, Note_off_c, 0, 84, 60
1, 675902, Note_on_c, 0, 76, 89
1, 675911, Note_on_c, 0, 64, 87
1, 675957, Note_off_c, 0, 76, 65
1, 675971, Note_off_c, 0, 64, 61
1, 675971, Poly_aftertouch_c, 0, 64, 0
1, 676006, Note_on_c, 0, 95, 98
1, 676007, Note_on_c, 0, 83, 95
1, 676048, Note_on_c, 0, 93, 45
1, 676049, Note_off_c, 0, 93, 127
1, 676063, Note_off_c, 0, 83, 63
1, 676078, Note_off_c, 0, 95, 65
1, 676096, Note_on_c, 0, 72, 95
1, 676100, Note_on_c, 0, 60, 90
1, 676104, Poly_aftertouch_c, 0, 92, 0
1, 676149, Note_off_c, 0, 72, 64
1, 676160, Note_on_c, 0, 93, 96
1, 676163, Note_off_c, 0, 60, 63
1, 676170, Note_on_c, 0, 81, 93
1, 676212, Note_on_c, 0, 83, 37
1, 676226, Note_off_c, 0, 81, 63
1, 676230, Note_off_c, 0, 93, 66
1, 676253, Note_on_c, 0, 71, 102
1, 676258, Note_on_c, 0, 59, 95
1, 676259, Note_off_c, 0, 83, 41
1, 676304, Note_off_c, 0, 71, 68
1, 676332, Note_off_c, 0, 59, 60
1, 676333, Note_on_c, 0, 88, 99
1, 676334, Note_on_c, 0, 76, 100
1, 676374, Poly_aftertouch_c, 0, 61, 127
1, 676384, Note_off_c, 0, 76, 66
1, 676397, Note_off_c, 0, 88, 66
1, 676405, Poly_aftertouch_c, 0, 61, 0
1, 676443, Note_on_c, 0, 69, 95
1, 676444, Note_on_c, 0, 64, 91
1, 676449, Note_on_c, 0, 57, 87
1, 676481, Note_on_c, 0, 67, 38
1, 676482, Note_off_c, 0, 67, 127
1, 676486, Note_off_c, 0, 64, 59
1, 676486, Poly_aftertouch_c, 0, 64, 0
1, 676494, Note_off_c, 0, 69, 62
1, 676519, Note_on_c, 0, 84, 95
1, 676522, Note_on_c, 0, 72, 99
1, 676525, Note_off_c, 0, 57, 63
1, 676537, Note_on_c, 0, 76, 74
1, 676558, Note_off_c, 0, 76, 66
1, 676566, Note_on_c, 0, 82, 34
1, 676577, Note_off_c, 0, 72, 63
1, 676595, Note_off_c, 0, 84, 64
1, 676613, Note_off_c, 0, 82, 55
1, 676629, Note_on_c, 0, 64, 93
1, 676636, Note_on_c, 0, 52, 88
1, 676677, Note_off_c, 0, 64, 65
1, 676677, Poly_aftertouch_c, 0, 64, 0
1, 676696, Note_on_c, 0, 54, 15
1, 676696, Note_on_c, 0, 83, 96
1, 676697, Note_on_c, 0, 71, 98
1, 676699, Note_off_c, 0, 52, 54
1, 676699, Poly_aftertouch_c, 0, 52, 0
1, 676731, Poly_aftertouch_c, 0, 76, 0
1, 676752, Note_off_c, 0, 71, 66
1, 676761, Note_off_c, 0, 83, 63
1, 676769, Note_off_c, 0, 54, 50
1, 676792, Note_on_c, 0, 60, 96
1, 676804, Note_on_c, 0, 48, 87
1, 676821, Poly_aftertouch_c, 0, 80, 127
1, 676829, Note_on_c, 0, 50, 56
1, 676849, Poly_aftertouch_c, 0, 80, 0
1, 676851, Note_off_c, 0, 60, 63
1, 676858, Note_on_c, 0, 69, 101
1, 676862, Note_on_c, 0, 81, 91
1, 676864, Note_off_c, 0, 48, 57
1, 676865, Note_off_c, 0, 50, 36
1, 676876, Note_on_c, 0, 79, 79
1, 676902, Note_off_c, 0, 79, 55
1, 676912, Note_off_c, 0, 69, 63
1, 676917, Note_off_c, 0, 81, 63
1, 676945, Poly_aftertouch_c, 0, 51, 0
1, 676961, Note_on_c, 0, 47, 95
1, 676962, Note_on_c, 0, 59, 88
1, 676963, Note_on_c, 0, 60, 92
1, 676989, Note_off_c, 0, 60, 70
1, 677011, Note_off_c, 0, 59, 62
1, 677031, Note_on_c, 0, 76, 96
1, 677032, Note_on_c, 0, 64, 93
1, 677045, Note_off_c, 0, 47, 59
1, 677093, Note_off_c, 0, 76, 64
1, 677096, Note_off_c, 0, 64, 62
1, 677096, Poly_aftertouch_c, 0, 64, 0
1, 677142, Note_on_c, 0, 57, 86
1, 677150, Note_on_c, 0, 45, 81
1, 677151, Note_on_c, 0, 52, 78
1, 677206, Note_off_c, 0, 57, 62
1, 677206, Note_off_c, 0, 52, 48
1, 677206, Poly_aftertouch_c, 0, 52, 0
1, 677236, Note_on_c, 0, 72, 95
1, 677238, Note_on_c, 0, 60, 98
1, 677247, Note_on_c, 0, 64, 80
1, 677252, Note_off_c, 0, 45, 61
1, 677268, Poly_aftertouch_c, 0, 47, 127
1, 677271, Note_off_c, 0, 64, 71
1, 677271, Poly_aftertouch_c, 0, 64, 0
1, 677292, Poly_aftertouch_c, 0, 48, 0
1, 677297, Note_off_c, 0, 60, 63
1, 677308, Note_off_c, 0, 72, 59
1, 677308, Poly_aftertouch_c, 0, 47, 0
1, 677360, Note_on_c, 0, 52, 96
1, 677363, Note_on_c, 0, 40, 90
1, 677413, Note_off_c, 0, 52, 61
1, 677413, Poly_aftertouch_c, 0, 52, 0
1, 677429, Note_off_c, 0, 40, 60
1, 677433, Note_on_c, 0, 59, 93
1, 677435, Note_on_c, 0, 71, 92
1, 677495, Note_on_c, 0, 63, 16
1, 677499, Note_off_c, 0, 59, 62
1, 677504, Note_off_c, 0, 71, 63
1, 677533, Note_on_c, 0, 48, 91
1, 677538, Note_on_c, 0, 36, 89
1, 677554, Poly_aftertouch_c, 0, 68, 0
1, 677561, Note_off_c, 0, 63, 44
1, 677589, Note_off_c, 0, 48, 64
1, 677607, Note_on_c, 0, 57, 97
1, 677611, Note_off_c, 0, 36, 61
1, 677612, Note_on_c, 0, 69, 92
1, 677663, Note_off_c, 0, 57, 67
1, 677664, Note_off_c, 0, 69, 60
1, 677719, Note_on_c, 0, 47, 91
1, 677721, Note_on_c, 0, 35, 89
1, 677768, Note_on_c, 0, 45, 24
1, 677769, Note_off_c, 0, 45, 127
1, 677771, Note_off_c, 0, 47, 65
1, 677786, Note_off_c, 0, 35, 55
1, 677802, Note_on_c, 0, 64, 74
1, 677805, Note_on_c, 0, 52, 84
1, 677818, Note_on_c, 0, 62, 70
1, 677824, Poly_aftertouch_c, 0, 45, 0
1, 677844, Note_off_c, 0, 62, 59
1, 677849, Note_off_c, 0, 52, 61
1, 677849, Poly_aftertouch_c, 0, 52, 0
1, 677859, Note_off_c, 0, 64, 62
1, 677859, Poly_aftertouch_c, 0, 64, 0
1, 677983, Note_on_c, 0, 45, 78
1, 677986, Note_on_c, 0, 40, 71
1, 677986, Note_on_c, 0, 33, 77
1, 678004, Control_c, 0, 64, 79
1, 678004, Control_c, 1, 64, 79
1, 678022, Control_c, 1, 64, 30
1, 678022, Control_c, 0, 64, 30
1, 678042, Control_c, 0, 64, 0
1, 678042, Control_c, 1, 64, 0
1, 678079, Control_c, 1, 64, 16
1, 678079, Control_c, 0, 64, 16
1, 678096, Note_on_c, 0, 60, 78
1, 678097, Control_c, 0, 64, 47
1, 678097, Control_c, 1, 64, 47
1, 678102, Note_on_c, 0, 57, 63
1, 678111, Note_off_c, 0, 45, 61
1, 678115, Note_on_c, 0, 48, 64
1, 678115, Control_c, 0, 64, 84
1, 678115, Control_c, 1, 64, 84
1, 678129, Note_on_c, 0, 56, 53
1, 678132, Control_c, 0, 64, 127
1, 678132, Control_c, 1, 64, 127
1, 678143, Note_off_c, 0, 40, 58
1, 678150, Note_on_c, 0, 50, 24
1, 678154, Note_off_c, 0, 48, 63
1, 678159, Poly_aftertouch_c, 0, 40, 0
1, 678165, Note_off_c, 0, 56, 39
1, 678170, Note_off_c, 0, 57, 61
1, 678193, Note_off_c, 0, 33, 60
1, 678213, Note_off_c, 0, 50, 50
1, 678219, Note_on_c, 0, 35, 71
1, 678219, Note_on_c, 0, 47, 83
1, 678258, Poly_aftertouch_c, 0, 40, 127
1, 678281, Note_on_c, 0, 56, 78
1, 678292, Note_on_c, 0, 52, 83
1, 678292, Note_on_c, 0, 64, 89
1, 678302, Note_off_c, 0, 60, 52
1, 678310, Note_off_c, 0, 47, 59
1, 678354, Note_off_c, 0, 56, 62
1, 678354, Poly_aftertouch_c, 0, 40, 0
1, 678370, Note_off_c, 0, 52, 61
1, 678370, Poly_aftertouch_c, 0, 52, 0
1, 678400, Note_off_c, 0, 35, 56
1, 678402, Note_on_c, 0, 40, 21
1, 678409, Note_on_c, 0, 45, 92
1, 678409, Note_on_c, 0, 33, 86
1, 678427, Note_off_c, 0, 64, 56
1, 678427, Poly_aftertouch_c, 0, 64, 0
1, 678453, Control_c, 0, 64, 76
1, 678453, Control_c, 1, 64, 76
1, 678464, Note_on_c, 0, 60, 82
1, 678470, Control_c, 0, 64, 45
1, 678470, Control_c, 1, 64, 45
1, 678473, Note_on_c, 0, 57, 84
1, 678490, Control_c, 0, 64, 48
1, 678490, Control_c, 1, 64, 48
1, 678494, Note_on_c, 0, 48, 77
1, 678498, Note_on_c, 0, 50, 57
1, 678507, Note_off_c, 0, 45, 63
1, 678509, Control_c, 0, 64, 67
1, 678509, Control_c, 1, 64, 67
1, 678530, Control_c, 1, 64, 89
1, 678530, Control_c, 0, 64, 89
1, 678531, Note_off_c, 0, 40, 56
1, 678537, Note_off_c, 0, 50, 59
1, 678537, Note_off_c, 0, 48, 65
1, 678545, Control_c, 0, 64, 127
1, 678545, Control_c, 1, 64, 127
1, 678555, Note_off_c, 0, 57, 62
1, 678574, Note_off_c, 0, 33, 60
1, 678591, Note_on_c, 0, 40, 73
1, 678596, Note_on_c, 0, 47, 95
1, 678604, Note_on_c, 0, 35, 80
1, 678606, Note_off_c, 0, 60, 60
1, 678639, Control_c, 0, 64, 109
1, 678639, Control_c, 1, 64, 109
1, 678658, Control_c, 1, 64, 75
1, 678658, Control_c, 0, 64, 75
1, 678671, Note_on_c, 0, 52, 90
1, 678672, Note_on_c, 0, 56, 88
1, 678672, Note_on_c, 0, 64, 93
1, 678677, Control_c, 0, 64, 72
1, 678677, Control_c, 1, 64, 72
1, 678696, Control_c, 1, 64, 96
1, 678696, Control_c, 0, 64, 96
1, 678715, Control_c, 0, 64, 127
1, 678715, Control_c, 1, 64, 127
1, 678718, Note_off_c, 0, 47, 61
1, 678741, Poly_aftertouch_c, 0, 37, 0
1, 678748, Note_off_c, 0, 40, 57
1, 678758, Note_off_c, 0, 52, 58
1, 678758, Poly_aftertouch_c, 0, 52, 0
1, 678761, Note_off_c, 0, 35, 58
1, 678767, Note_off_c, 0, 56, 60
1, 678798, Note_on_c, 0, 45, 94
1, 678800, Note_on_c, 0, 33, 84
1, 678808, Note_on_c, 0, 40, 69
1, 678809, Note_off_c, 0, 64, 54
1, 678809, Poly_aftertouch_c, 0, 64, 0
1, 678860, Note_on_c, 0, 60, 84
1, 678865, Note_on_c, 0, 57, 81
1, 678878, Note_on_c, 0, 48, 80
1, 678883, Control_c, 0, 64, 85
1, 678883, Control_c, 1, 64, 85
1, 678896, Note_on_c, 0, 50, 59
1, 678902, Control_c, 0, 64, 79
1, 678902, Control_c, 1, 64, 79
1, 678905, Note_on_c, 0, 56, 51
1, 678906, Note_off_c, 0, 56, 127
1, 678911, Note_on_c, 0, 58, 37
1, 678921, Control_c, 0, 64, 97
1, 678921, Control_c, 1, 64, 97
1, 678926, Note_off_c, 0, 45, 62
1, 678932, Note_off_c, 0, 50, 58
1, 678936, Note_off_c, 0, 40, 59
1, 678940, Control_c, 0, 64, 127
1, 678940, Control_c, 1, 64, 127
1, 678946, Note_off_c, 0, 48, 59
1, 678954, Note_off_c, 0, 58, 26
1, 678962, Note_off_c, 0, 57, 63
1, 678986, Note_off_c, 0, 33, 61
1, 678994, Note_off_c, 0, 60, 61
1, 678994, Note_on_c, 0, 40, 78
1, 678998, Note_on_c, 0, 35, 78
1, 678999, Note_on_c, 0, 47, 91
1, 679052, Control_c, 0, 64, 83
1, 679052, Control_c, 1, 64, 83
1, 679063, Note_on_c, 0, 56, 81
1, 679069, Note_on_c, 0, 52, 91
1, 679069, Note_on_c, 0, 64, 92
1, 679069, Control_c, 0, 64, 77
1, 679069, Control_c, 1, 64, 77
1, 679089, Control_c, 1, 64, 96
1, 679089, Control_c, 0, 64, 96
1, 679107, Control_c, 0, 64, 127
1, 679107, Control_c, 1, 64, 127
1, 679115, Note_off_c, 0, 47, 62
1, 679143, Note_off_c, 0, 40, 57
1, 679157, Note_off_c, 0, 56, 56
1, 679166, Note_off_c, 0, 52, 60
1, 679166, Poly_aftertouch_c, 0, 52, 0
1, 679177, Note_off_c, 0, 35, 59
1, 679198, Note_on_c, 0, 45, 93
1, 679199, Note_on_c, 0, 33, 85
1, 679208, Note_on_c, 0, 40, 70
1, 679209, Note_off_c, 0, 64, 54
1, 679209, Poly_aftertouch_c, 0, 64, 0
1, 679255, Note_on_c, 0, 58, 87
1, 679259, Note_on_c, 0, 60, 80
1, 679292, Note_on_c, 0, 48, 73
1, 679298, Note_on_c, 0, 50, 55
1, 679314, Control_c, 0, 64, 82
1, 679314, Control_c, 1, 64, 82
1, 679316, Note_off_c, 0, 45, 61
1, 679326, Note_off_c, 0, 48, 66
1, 679330, Note_off_c, 0, 50, 60
1, 679331, Control_c, 0, 64, 56
1, 679331, Control_c, 1, 64, 56
1, 679335, Note_off_c, 0, 40, 59
1, 679345, Note_on_c, 0, 57, 27
1, 679350, Note_off_c, 0, 58, 64
1, 679350, Control_c, 0, 64, 52
1, 679350, Control_c, 1, 64, 52
1, 679370, Control_c, 1, 64, 61
1, 679370, Control_c, 0, 64, 61
1, 679389, Control_c, 0, 64, 72
1, 679389, Control_c, 1, 64, 72
1, 679398, Note_off_c, 0, 60, 58
1, 679403, Note_off_c, 0, 33, 58
1, 679405, Note_on_c, 0, 40, 76
1, 679405, Note_on_c, 0, 47, 89
1, 679407, Note_off_c, 0, 57, 40
1, 679408, Control_c, 0, 64, 95
1, 679408, Control_c, 1, 64, 95
1, 679417, Note_on_c, 0, 35, 70
1, 679429, Control_c, 0, 64, 127
1, 679429, Control_c, 1, 64, 127
1, 679447, Note_on_c, 0, 36, 48
1, 679457, Note_on_c, 0, 52, 92
1, 679460, Note_on_c, 0, 64, 92
1, 679467, Note_on_c, 0, 56, 84
1, 679483, Note_on_c, 0, 61, 64
1, 679498, Note_off_c, 0, 36, 32
1, 679509, Note_off_c, 0, 61, 62
1, 679514, Note_off_c, 0, 47, 57
1, 679522, Note_off_c, 0, 52, 60
1, 679522, Poly_aftertouch_c, 0, 52, 0
1, 679546, Note_off_c, 0, 40, 48
1, 679547, Note_off_c, 0, 64, 61
1, 679547, Poly_aftertouch_c, 0, 64, 0
1, 679550, Note_off_c, 0, 56, 60
1, 679584, Note_off_c, 0, 35, 58
1, 679633, Control_c, 0, 64, 90
1, 679633, Control_c, 1, 64, 90
1, 679652, Control_c, 1, 64, 38
1, 679652, Control_c, 0, 64, 38
1, 679663, Note_on_c, 0, 45, 93
1, 679668, Note_on_c, 0, 33, 90
1, 679669, Note_on_c, 0, 40, 84
1, 679670, Control_c, 0, 64, 0
1, 679670, Control_c, 1, 64, 0
1, 679673, Note_on_c, 0, 60, 97
1, 679674, Note_on_c, 0, 48, 99
1, 679711, Note_on_c, 0, 58, 55
1, 679744, Control_c, 0, 64, 44
1, 679744, Control_c, 1, 64, 44
1, 679749, Note_off_c, 0, 58, 39
1, 679764, Control_c, 0, 64, 94
1, 679764, Control_c, 1, 64, 94
1, 679781, Control_c, 1, 64, 127
1, 679781, Control_c, 0, 64, 127
1, 679811, Note_on_c, 0, 57, 80
1, 679847, Note_off_c, 0, 48, 56
1, 679848, Note_off_c, 0, 60, 51
1, 679872, Note_on_c, 0, 52, 79
1, 679919, Note_off_c, 0, 57, 60
1, 679972, Note_off_c, 0, 52, 60
1, 679972, Poly_aftertouch_c, 0, 52, 0
1, 679977, Note_on_c, 0, 57, 68
1, 680034, Note_off_c, 0, 57, 64
1, 680091, Note_off_c, 0, 45, 59
1, 680093, Note_on_c, 0, 60, 86
1, 680116, Note_off_c, 0, 40, 60
1, 680139, Note_off_c, 0, 33, 60
1, 680198, Note_on_c, 0, 64, 87
1, 680231, Control_c, 0, 64, 73
1, 680231, Control_c, 1, 64, 73
1, 680244, Note_off_c, 0, 60, 56
1, 680248, Control_c, 0, 64, 15
1, 680248, Control_c, 1, 64, 15
1, 680268, Control_c, 1, 64, 0
1, 680268, Control_c, 0, 64, 0
1, 680282, Note_on_c, 0, 69, 87
1, 680289, Note_on_c, 0, 40, 98
1, 680294, Note_on_c, 0, 28, 92
1, 680305, Control_c, 0, 64, 33
1, 680305, Control_c, 1, 64, 33
1, 680307, Note_off_c, 0, 64, 63
1, 680307, Poly_aftertouch_c, 0, 64, 0
1, 680325, Control_c, 0, 64, 78
1, 680325, Control_c, 1, 64, 78
1, 680329, Note_off_c, 0, 28, 70
1, 680334, Note_off_c, 0, 40, 64
1, 680339, Note_on_c, 0, 29, 41
1, 680340, Note_off_c, 0, 29, 127
1, 680344, Control_c, 0, 64, 127
1, 680344, Control_c, 1, 64, 127
1, 680379, Note_on_c, 0, 72, 89
1, 680382, Note_off_c, 0, 69, 62
1, 680393, Poly_aftertouch_c, 0, 29, 0
1, 680425, Note_off_c, 0, 72, 61
1, 680543, Note_on_c, 0, 60, 77
1, 680544, Note_on_c, 0, 76, 88
1, 680544, Note_on_c, 0, 52, 81
1, 680545, Note_on_c, 0, 64, 89
1, 680547, Note_on_c, 0, 57, 69
1, 680573, Note_on_c, 0, 74, 54
1, 680574, Note_off_c, 0, 60, 67
1, 680574, Note_off_c, 0, 57, 65
1, 680579, Note_off_c, 0, 52, 67
1, 680579, Poly_aftertouch_c, 0, 52, 0
1, 680606, Note_off_c, 0, 74, 39
1, 680632, Poly_aftertouch_c, 0, 59, 0
1, 680669, Note_on_c, 0, 72, 79
1, 680716, Note_off_c, 0, 76, 57
1, 680746, Note_off_c, 0, 64, 55
1, 680746, Poly_aftertouch_c, 0, 64, 0
1, 680757, Note_on_c, 0, 69, 76
1, 680779, Note_off_c, 0, 72, 60
1, 680859, Note_on_c, 0, 72, 80
1, 680861, Note_off_c, 0, 69, 60
1, 680909, Note_off_c, 0, 72, 62
1, 680971, Note_on_c, 0, 76, 95
1, 681072, Poly_aftertouch_c, 0, 80, 0
1, 681092, Note_on_c, 0, 81, 89
1, 681186, Control_c, 0, 64, 71
1, 681186, Control_c, 1, 64, 71
1, 681203, Note_off_c, 0, 76, 50
1, 681203, Control_c, 0, 64, 15
1, 681203, Control_c, 1, 64, 15
1, 681209, Note_on_c, 0, 84, 86
1, 681222, Control_c, 0, 64, 0
1, 681222, Control_c, 1, 64, 0
1, 681223, Note_on_c, 0, 45, 104
1, 681228, Note_on_c, 0, 33, 98
1, 681249, Note_off_c, 0, 81, 64
1, 681263, Note_off_c, 0, 33, 68
1, 681279, Control_c, 0, 64, 45
1, 681279, Control_c, 1, 64, 45
1, 681280, Note_off_c, 0, 45, 64
1, 681298, Control_c, 0, 64, 95
1, 681298, Control_c, 1, 64, 95
1, 681316, Control_c, 1, 64, 127
1, 681316, Note_on_c, 0, 88, 87
1, 681316, Control_c, 0, 64, 127
1, 681337, Note_off_c, 0, 84, 64
1, 681412, Note_off_c, 0, 88, 66
1, 681710, Note_on_c, 0, 93, 99
1, 681719, Note_on_c, 0, 81, 93
1, 681720, Note_on_c, 0, 84, 91
1, 681722, Note_on_c, 0, 69, 99
1, 681725, Note_on_c, 0, 57, 86
1, 681729, Note_on_c, 0, 64, 88
1, 681729, Poly_aftertouch_c, 0, 64, 0
1, 681730, Note_off_c, 0, 64, 127
1, 681732, Note_on_c, 0, 60, 84
1, 681785, Poly_aftertouch_c, 0, 64, 127
1, 683283, Poly_aftertouch_c, 0, 69, 24
1, 683334, Note_off_c, 0, 69, 39
1, 683334, Poly_aftertouch_c, 0, 69, 0
1, 683381, Note_off_c, 0, 81, 48
1, 683422, Poly_aftertouch_c, 0, 64, 0
1, 683435, Note_off_c, 0, 84, 54
1, 683442, Note_off_c, 0, 60, 46
1, 683496, Note_off_c, 0, 57, 61
1, 683571, Note_off_c, 0, 93, 63
1, 684086, Control_c, 0, 64, 121
1, 684086, Control_c, 1, 64, 121
1, 684106, Control_c, 1, 64, 116
1, 684106, Control_c, 0, 64, 116
1, 684124, Control_c, 0, 64, 109
1, 684124, Control_c, 1, 64, 109
1, 684143, Control_c, 1, 64, 103
1, 684143, Control_c, 0, 64, 103
1, 684161, Control_c, 0, 64, 96
1, 684161, Control_c, 1, 64, 96
1, 684180, Control_c, 1, 64, 91
1, 684180, Control_c, 0, 64, 91
1, 684199, Control_c, 0, 64, 87
1, 684199, Control_c, 1, 64, 87
1, 684217, Control_c, 1, 64, 84
1, 684217, Control_c, 0, 64, 84
1, 684236, Control_c, 0, 64, 82
1, 684236, Control_c, 1, 64, 82
1, 684273, Control_c, 1, 64, 79
1, 684273, Control_c, 0, 64, 79
1, 684312, Control_c, 0, 64, 77
1, 684312, Control_c, 1, 64, 77
1, 684330, Control_c, 1, 64, 75
1, 684330, Control_c, 0, 64, 75
1, 684348, Control_c, 0, 64, 73
1, 684348, Control_c, 1, 64, 73
1, 684405, Control_c, 1, 64, 70
1, 684405, Control_c, 0, 64, 70
1, 684443, Control_c, 0, 64, 66
1, 684443, Control_c, 1, 64, 66
1, 684461, Control_c, 1, 64, 62
1, 684461, Control_c, 0, 64, 62
1, 684480, Control_c, 0, 64, 59
1, 684480, Control_c, 1, 64, 59
1, 684518, Control_c, 1, 64, 57
1, 684518, Control_c, 0, 64, 57
1, 684536, Control_c, 0, 64, 53
1, 684536, Control_c, 1, 64, 53
1, 684555, Control_c, 1, 64, 45
1, 684555, Control_c, 0, 64, 45
1, 684573, Control_c, 0, 64, 35
1, 684573, Control_c, 1, 64, 35
1, 684593, Control_c, 1, 64, 28
1, 684593, Control_c, 0, 64, 28
1, 684610, Control_c, 0, 64, 24
1, 684610, Control_c, 1, 64, 24
1, 684685, Control_c, 1, 64, 19
1, 684685, Control_c, 0, 64, 19
1, 684724, Control_c, 0, 64, 15
1, 684724, Control_c, 1, 64, 15
1, 684799, Control_c, 1, 64, 11
1, 684799, Control_c, 0, 64, 11
1, 687961, Control_c, 0, 67, 9
1, 687961, Control_c, 1, 67, 9
1, 687999, Control_c, 1, 67, 20
1, 687999, Control_c, 0, 67, 20
1, 688018, Control_c, 0, 67, 38
1, 688018, Control_c, 1, 67, 38
1, 688036, Control_c, 1, 67, 64
1, 688036, Control_c, 0, 67, 64
1, 688055, Control_c, 0, 67, 92
1, 688055, Control_c, 1, 67, 92
1, 688075, Control_c, 1, 67, 120
1, 688075, Control_c, 0, 67, 120
1, 688092, Control_c, 0, 67, 127
1, 688092, Control_c, 1, 67, 127
1, 688186, Control_c, 1, 64, 0
1, 688186, Control_c, 0, 64, 0
1, 689184, Note_on_c, 0, 81, 60
1, 689200, Note_on_c, 0, 76, 63
1, 689249, Note_off_c, 0, 81, 59
1, 689269, Note_on_c, 0, 69, 80
1, 689285, Note_off_c, 0, 76, 60
1, 689320, Note_on_c, 0, 57, 63
1, 689325, Note_off_c, 0, 69, 63
1, 689325, Poly_aftertouch_c, 0, 69, 0
1, 689360, Note_off_c, 0, 57, 65
1, 689642, Note_on_c, 0, 69, 54
1, 689653, Note_on_c, 0, 57, 48
1, 689686, Note_off_c, 0, 57, 56
1, 689695, Note_off_c, 0, 69, 58
1, 689695, Poly_aftertouch_c, 0, 69, 0
1, 689738, Note_on_c, 0, 69, 50
1, 689759, Note_on_c, 0, 57, 53
1, 689832, Note_on_c, 0, 72, 70
1, 689833, Note_off_c, 0, 69, 60
1, 689833, Poly_aftertouch_c, 0, 69, 0
1, 689842, Note_on_c, 0, 60, 69
1, 689843, Note_off_c, 0, 57, 62
1, 689925, Note_off_c, 0, 60, 60
1, 689927, Note_off_c, 0, 72, 61
1, 689933, Note_on_c, 0, 71, 73
1, 689946, Note_on_c, 0, 59, 55
1, 689993, Note_off_c, 0, 71, 61
1, 690010, Note_on_c, 0, 69, 78
1, 690037, Note_on_c, 0, 57, 58
1, 690038, Note_off_c, 0, 59, 60
1, 690052, Note_off_c, 0, 69, 62
1, 690052, Poly_aftertouch_c, 0, 69, 0
1, 690130, Note_off_c, 0, 57, 61
1, 690139, Note_on_c, 0, 88, 83
1, 690167, Note_on_c, 0, 64, 78
1, 690170, Note_on_c, 0, 83, 75
1, 690199, Note_off_c, 0, 88, 63
1, 690202, Note_off_c, 0, 64, 65
1, 690223, Note_on_c, 0, 76, 79
1, 690238, Note_off_c, 0, 83, 63
1, 690279, Note_off_c, 0, 76, 63
1, 690534, Note_on_c, 0, 52, 48
1, 690559, Note_on_c, 0, 64, 60
1, 690581, Note_off_c, 0, 52, 62
1, 690581, Poly_aftertouch_c, 0, 52, 0
1, 690601, Note_off_c, 0, 64, 62
1, 690645, Note_on_c, 0, 52, 62
1, 690666, Note_on_c, 0, 64, 65
1, 690723, Note_off_c, 0, 64, 58
1, 690726, Note_off_c, 0, 52, 57
1, 690726, Poly_aftertouch_c, 0, 52, 0
1, 690753, Note_on_c, 0, 68, 71
1, 690756, Note_on_c, 0, 56, 65
1, 690837, Note_off_c, 0, 56, 61
1, 690847, Note_on_c, 0, 54, 59
1, 690850, Note_on_c, 0, 66, 73
1, 690854, Note_off_c, 0, 68, 64
1, 690908, Note_off_c, 0, 66, 63
1, 690925, Note_on_c, 0, 64, 76
1, 690940, Note_off_c, 0, 54, 61
1, 690967, Note_off_c, 0, 64, 64
1, 690967, Note_on_c, 0, 52, 41
1, 691057, Note_on_c, 0, 81, 68
1, 691062, Note_off_c, 0, 52, 57
1, 691062, Poly_aftertouch_c, 0, 52, 0
1, 691074, Note_on_c, 0, 57, 68
1, 691075, Note_on_c, 0, 83, 37
1, 691076, Note_off_c, 0, 83, 127
1, 691088, Note_on_c, 0, 76, 59
1, 691095, Note_on_c, 0, 77, 43
1, 691113, Note_off_c, 0, 57, 65
1, 691115, Note_off_c, 0, 81, 60
1, 691125, Note_off_c, 0, 77, 38
1, 691131, Note_on_c, 0, 69, 73
1, 691144, Note_off_c, 0, 76, 64
1, 691202, Note_off_c, 0, 69, 62
1, 691202, Poly_aftertouch_c, 0, 69, 0
1, 691423, Note_on_c, 0, 57, 56
1, 691444, Note_on_c, 0, 69, 56
1, 691461, Note_off_c, 0, 57, 65
1, 691484, Note_off_c, 0, 69, 63
1, 691484, Poly_aftertouch_c, 0, 69, 0
1, 691546, Note_on_c, 0, 69, 61
1, 691549, Note_on_c, 0, 57, 62
1, 691612, Note_off_c, 0, 57, 55
1, 691613, Note_off_c, 0, 69, 52
1, 691613, Poly_aftertouch_c, 0, 69, 0
1, 691635, Note_on_c, 0, 72, 70
1, 691644, Note_on_c, 0, 60, 66
1, 691719, Note_off_c, 0, 60, 58
1, 691724, Note_off_c, 0, 72, 59
1, 691735, Note_on_c, 0, 59, 55
1, 691737, Note_on_c, 0, 71, 72
1, 691798, Note_off_c, 0, 71, 63
1, 691816, Note_on_c, 0, 69, 75
1, 691837, Note_off_c, 0, 59, 56
1, 691849, Note_on_c, 0, 57, 47
1, 691861, Note_off_c, 0, 69, 62
1, 691861, Poly_aftertouch_c, 0, 69, 0
1, 691950, Note_on_c, 0, 88, 77
1, 691951, Note_off_c, 0, 57, 64
1, 691990, Note_on_c, 0, 64, 70
1, 691996, Note_on_c, 0, 83, 68
1, 692004, Control_c, 0, 64, 13
1, 692004, Control_c, 1, 64, 13
1, 692024, Control_c, 1, 64, 36
1, 692024, Control_c, 0, 64, 36
1, 692033, Note_off_c, 0, 88, 61
1, 692038, Note_on_c, 0, 76, 73
1, 692041, Control_c, 0, 64, 66
1, 692041, Control_c, 1, 64, 66
1, 692054, Note_off_c, 0, 64, 59
1, 692056, Note_off_c, 0, 83, 63
1, 692060, Control_c, 0, 64, 92
1, 692060, Control_c, 1, 64, 92
1, 692080, Control_c, 1, 64, 127
1, 692080, Control_c, 0, 64, 127
1, 692105, Note_off_c, 0, 76, 62
1, 692544, Note_on_c, 0, 64, 53
1, 692555, Note_on_c, 0, 52, 52
1, 692566, Control_c, 0, 64, 113
1, 692566, Control_c, 1, 64, 113
1, 692585, Control_c, 1, 64, 99
1, 692585, Control_c, 0, 64, 99
1, 692604, Control_c, 0, 64, 85
1, 692604, Control_c, 1, 64, 85
1, 692622, Note_off_c, 0, 64, 62
1, 692622, Control_c, 0, 64, 71
1, 692622, Control_c, 1, 64, 71
1, 692633, Note_off_c, 0, 52, 61
1, 692633, Poly_aftertouch_c, 0, 52, 0
1, 692640, Control_c, 0, 64, 58
1, 692640, Control_c, 1, 64, 58
1, 692660, Control_c, 1, 64, 48
1, 692660, Control_c, 0, 64, 48
1, 692678, Control_c, 0, 64, 39
1, 692678, Control_c, 1, 64, 39
1, 692698, Control_c, 1, 64, 32
1, 692698, Control_c, 0, 64, 32
1, 692716, Control_c, 0, 64, 25
1, 692716, Control_c, 1, 64, 25
1, 692735, Control_c, 1, 64, 19
1, 692735, Control_c, 0, 64, 19
1, 692753, Control_c, 0, 64, 12
1, 692753, Control_c, 1, 64, 12
1, 692809, Control_c, 1, 64, 0
1, 692809, Control_c, 0, 64, 0
1, 692959, Note_on_c, 0, 81, 49
1, 693003, Note_on_c, 0, 76, 57
1, 693005, Note_off_c, 0, 81, 61
1, 693038, Note_on_c, 0, 69, 72
1, 693052, Control_c, 0, 64, 20
1, 693052, Control_c, 1, 64, 20
1, 693068, Note_off_c, 0, 76, 61
1, 693071, Note_on_c, 0, 57, 58
1, 693071, Control_c, 0, 64, 47
1, 693071, Control_c, 1, 64, 47
1, 693091, Control_c, 1, 64, 72
1, 693091, Control_c, 0, 64, 72
1, 693093, Note_off_c, 0, 69, 59
1, 693093, Poly_aftertouch_c, 0, 69, 0
1, 693108, Control_c, 0, 64, 87
1, 693108, Control_c, 1, 64, 87
1, 693110, Note_off_c, 0, 57, 64
1, 693127, Control_c, 0, 64, 92
1, 693127, Control_c, 1, 64, 92
1, 693148, Control_c, 1, 64, 86
1, 693148, Control_c, 0, 64, 86
1, 693165, Control_c, 0, 64, 76
1, 693165, Control_c, 1, 64, 76
1, 693184, Control_c, 1, 64, 64
1, 693184, Control_c, 0, 64, 64
1, 693203, Control_c, 0, 64, 52
1, 693203, Control_c, 1, 64, 52
1, 693222, Control_c, 1, 64, 41
1, 693222, Control_c, 0, 64, 41
1, 693240, Control_c, 0, 64, 30
1, 693240, Control_c, 1, 64, 30
1, 693258, Control_c, 1, 64, 21
1, 693258, Control_c, 0, 64, 21
1, 693278, Control_c, 0, 64, 16
1, 693278, Control_c, 1, 64, 16
1, 693315, Control_c, 1, 64, 10
1, 693315, Control_c, 0, 64, 10
1, 693377, Note_on_c, 0, 57, 59
1, 693383, Note_on_c, 0, 69, 53
1, 693416, Note_off_c, 0, 57, 65
1, 693428, Control_c, 0, 64, 0
1, 693428, Control_c, 1, 64, 0
1, 693429, Note_off_c, 0, 69, 61
1, 693429, Poly_aftertouch_c, 0, 69, 0
1, 693497, Note_on_c, 0, 57, 64
1, 693498, Note_on_c, 0, 69, 58
1, 693562, Note_off_c, 0, 57, 57
1, 693563, Note_off_c, 0, 69, 56
1, 693563, Poly_aftertouch_c, 0, 69, 0
1, 693568, Note_on_c, 0, 72, 70
1, 693582, Note_on_c, 0, 60, 69
1, 693658, Note_off_c, 0, 60, 57
1, 693663, Note_off_c, 0, 72, 60
1, 693676, Note_on_c, 0, 71, 71
1, 693679, Note_on_c, 0, 59, 57
1, 693742, Note_off_c, 0, 71, 62
1, 693764, Note_on_c, 0, 69, 70
1, 693779, Note_off_c, 0, 59, 59
1, 693784, Note_on_c, 0, 57, 53
1, 693795, Note_off_c, 0, 69, 65
1, 693795, Poly_aftertouch_c, 0, 69, 0
1, 693868, Note_off_c, 0, 57, 62
1, 693893, Note_on_c, 0, 88, 72
1, 693896, Control_c, 0, 64, 17
1, 693896, Control_c, 1, 64, 17
1, 693914, Control_c, 1, 64, 35
1, 693914, Control_c, 0, 64, 35
1, 693918, Note_on_c, 0, 64, 66
1, 693929, Note_on_c, 0, 83, 75
1, 693933, Control_c, 0, 64, 56
1, 693933, Control_c, 1, 64, 56
1, 693942, Note_off_c, 0, 88, 63
1, 693950, Note_off_c, 0, 64, 66
1, 693952, Control_c, 0, 64, 75
1, 693952, Control_c, 1, 64, 75
1, 693966, Note_on_c, 0, 76, 75
1, 693970, Control_c, 0, 64, 95
1, 693970, Control_c, 1, 64, 95
1, 693980, Note_off_c, 0, 83, 63
1, 693988, Control_c, 0, 64, 127
1, 693988, Control_c, 1, 64, 127
1, 694018, Note_off_c, 0, 76, 61
1, 694195, Control_c, 0, 64, 77
1, 694195, Control_c, 1, 64, 77
1, 694215, Control_c, 1, 64, 44
1, 694215, Control_c, 0, 64, 44
1, 694251, Control_c, 0, 64, 0
1, 694251, Control_c, 1, 64, 0
1, 694284, Note_on_c, 0, 52, 59
1, 694308, Note_on_c, 0, 64, 51
1, 694324, Note_off_c, 0, 52, 64
1, 694324, Poly_aftertouch_c, 0, 52, 0
1, 694344, Note_off_c, 0, 64, 59
1, 694388, Note_on_c, 0, 64, 53
1, 694395, Note_on_c, 0, 52, 68
1, 694445, Note_off_c, 0, 64, 56
1, 694479, Note_on_c, 0, 68, 69
1, 694482, Note_off_c, 0, 52, 59
1, 694482, Poly_aftertouch_c, 0, 52, 0
1, 694490, Note_on_c, 0, 56, 66
1, 694580, Note_on_c, 0, 66, 72
1, 694581, Note_off_c, 0, 56, 62
1, 694584, Note_off_c, 0, 68, 62
1, 694584, Note_on_c, 0, 54, 65
1, 694634, Note_off_c, 0, 66, 63
1, 694654, Note_on_c, 0, 64, 73
1, 694672, Note_off_c, 0, 54, 59
1, 694697, Note_off_c, 0, 64, 63
1, 694705, Note_on_c, 0, 52, 49
1, 694777, Note_on_c, 0, 81, 80
1, 694793, Control_c, 0, 64, 19
1, 694793, Control_c, 1, 64, 19
1, 694801, Note_off_c, 0, 52, 60
1, 694801, Poly_aftertouch_c, 0, 52, 0
1, 694808, Note_on_c, 0, 76, 63
1, 694813, Control_c, 0, 64, 45
1, 694813, Control_c, 1, 64, 45
1, 694821, Note_on_c, 0, 57, 64
1, 694831, Control_c, 0, 64, 66
1, 694831, Control_c, 1, 64, 66
1, 694845, Note_off_c, 0, 81, 61
1, 694849, Control_c, 0, 64, 86
1, 694849, Control_c, 1, 64, 86
1, 694857, Note_off_c, 0, 57, 66
1, 694861, Note_on_c, 0, 69, 76
1, 694868, Control_c, 0, 64, 127
1, 694868, Control_c, 1, 64, 127
1, 694872, Note_off_c, 0, 76, 63
1, 694908, Note_off_c, 0, 69, 61
1, 694908, Poly_aftertouch_c, 0, 69, 0
1, 694980, Control_c, 0, 64, 117
1, 694980, Control_c, 1, 64, 117
1, 695000, Control_c, 1, 64, 71
1, 695000, Control_c, 0, 64, 71
1, 695019, Control_c, 0, 64, 35
1, 695019, Control_c, 1, 64, 35
1, 695037, Control_c, 1, 64, 0
1, 695037, Control_c, 0, 64, 0
1, 695151, Note_on_c, 0, 57, 53
1, 695163, Note_on_c, 0, 69, 58
1, 695192, Note_off_c, 0, 57, 64
1, 695200, Note_off_c, 0, 69, 63
1, 695200, Poly_aftertouch_c, 0, 69, 0
1, 695258, Note_on_c, 0, 57, 56
1, 695260, Note_on_c, 0, 69, 61
1, 695316, Note_off_c, 0, 57, 60
1, 695325, Note_off_c, 0, 69, 53
1, 695325, Poly_aftertouch_c, 0, 69, 0
1, 695352, Note_on_c, 0, 72, 72
1, 695358, Note_on_c, 0, 60, 66
1, 695418, Note_off_c, 0, 60, 53
1, 695447, Note_off_c, 0, 72, 60
1, 695454, Note_on_c, 0, 59, 60
1, 695461, Note_on_c, 0, 71, 73
1, 695521, Note_off_c, 0, 71, 62
1, 695537, Note_on_c, 0, 69, 76
1, 695547, Note_off_c, 0, 59, 59
1, 695571, Note_on_c, 0, 57, 51
1, 695583, Note_off_c, 0, 69, 61
1, 695583, Poly_aftertouch_c, 0, 69, 0
1, 695673, Note_off_c, 0, 57, 61
1, 695683, Note_on_c, 0, 88, 73
1, 695728, Note_on_c, 0, 83, 63
1, 695736, Note_on_c, 0, 64, 56
1, 695756, Note_off_c, 0, 88, 55
1, 695787, Note_on_c, 0, 76, 78
1, 695815, Note_off_c, 0, 83, 62
1, 695822, Control_c, 0, 64, 11
1, 695822, Control_c, 1, 64, 11
1, 695842, Control_c, 1, 64, 33
1, 695842, Control_c, 0, 64, 33
1, 695860, Control_c, 0, 64, 64
1, 695860, Control_c, 1, 64, 64
1, 695879, Note_off_c, 0, 76, 62
1, 695879, Control_c, 0, 64, 88
1, 695879, Control_c, 1, 64, 88
1, 695899, Control_c, 1, 64, 127
1, 695899, Control_c, 0, 64, 127
1, 695938, Note_off_c, 0, 64, 60
1, 696255, Control_c, 0, 64, 111
1, 696255, Control_c, 1, 64, 111
1, 696272, Control_c, 1, 64, 99
1, 696272, Control_c, 0, 64, 99
1, 696292, Control_c, 0, 64, 90
1, 696292, Control_c, 1, 64, 90
1, 696301, Note_on_c, 0, 52, 38
1, 696310, Control_c, 0, 64, 82
1, 696310, Control_c, 1, 64, 82
1, 696318, Note_on_c, 0, 64, 31
1, 696328, Control_c, 0, 64, 76
1, 696328, Control_c, 1, 64, 76
1, 696348, Control_c, 1, 64, 69
1, 696348, Control_c, 0, 64, 69
1, 696366, Control_c, 0, 64, 65
1, 696366, Control_c, 1, 64, 65
1, 696384, Control_c, 1, 64, 63
1, 696384, Control_c, 0, 64, 63
1, 696405, Control_c, 0, 64, 62
1, 696405, Control_c, 1, 64, 62
1, 696413, Note_off_c, 0, 52, 60
1, 696413, Poly_aftertouch_c, 0, 52, 0
1, 696441, Control_c, 0, 64, 61
1, 696441, Control_c, 1, 64, 61
1, 696457, Note_off_c, 0, 64, 60
1, 696497, Control_c, 0, 64, 60
1, 696497, Control_c, 1, 64, 60
1, 696591, Control_c, 1, 64, 57
1, 696591, Control_c, 0, 64, 57
1, 696592, Control_c, 0, 67, 123
1, 696592, Control_c, 1, 67, 123
1, 696630, Control_c, 1, 64, 53
1, 696630, Control_c, 0, 64, 53
1, 696646, Control_c, 0, 64, 51
1, 696646, Control_c, 1, 64, 51
1, 696666, Control_c, 1, 64, 48
1, 696666, Control_c, 0, 64, 48
1, 696667, Control_c, 0, 67, 117
1, 696667, Control_c, 1, 67, 117
1, 696686, Control_c, 1, 64, 44
1, 696686, Control_c, 0, 64, 44
1, 696703, Control_c, 0, 64, 37
1, 696703, Control_c, 1, 64, 37
1, 696705, Control_c, 1, 67, 111
1, 696705, Control_c, 0, 67, 111
1, 696721, Control_c, 0, 64, 27
1, 696721, Control_c, 1, 64, 27
1, 696741, Control_c, 1, 64, 11
1, 696741, Control_c, 0, 64, 11
1, 696743, Control_c, 0, 67, 103
1, 696743, Control_c, 1, 67, 103
1, 696758, Control_c, 1, 64, 0
1, 696758, Control_c, 0, 64, 0
1, 696760, Control_c, 0, 67, 98
1, 696760, Control_c, 1, 67, 98
1, 696763, Note_on_c, 0, 57, 49
1, 696778, Control_c, 0, 67, 92
1, 696778, Control_c, 1, 67, 92
1, 696797, Control_c, 1, 67, 86
1, 696797, Control_c, 0, 67, 86
1, 696811, Note_on_c, 0, 64, 44
1, 696816, Control_c, 0, 67, 81
1, 696816, Control_c, 1, 67, 81
1, 696821, Note_on_c, 0, 93, 60
1, 696852, Control_c, 0, 67, 75
1, 696852, Control_c, 1, 67, 75
1, 696865, Note_on_c, 0, 88, 58
1, 696869, Note_off_c, 0, 57, 63
1, 696884, Note_off_c, 0, 93, 64
1, 696887, Note_off_c, 0, 64, 60
1, 696888, Control_c, 0, 64, 34
1, 696888, Control_c, 1, 64, 34
1, 696890, Control_c, 1, 67, 68
1, 696890, Control_c, 0, 67, 68
1, 696893, Note_on_c, 0, 69, 74
1, 696897, Note_on_c, 0, 81, 85
1, 696907, Note_off_c, 0, 88, 64
1, 696908, Control_c, 0, 64, 82
1, 696908, Control_c, 1, 64, 82
1, 696909, Control_c, 1, 67, 62
1, 696909, Control_c, 0, 67, 62
1, 696927, Note_off_c, 0, 69, 63
1, 696927, Poly_aftertouch_c, 0, 69, 0
1, 696927, Control_c, 0, 64, 127
1, 696927, Control_c, 1, 64, 127
1, 696930, Control_c, 1, 67, 53
1, 696930, Control_c, 0, 67, 53
1, 696947, Control_c, 0, 67, 44
1, 696947, Control_c, 1, 67, 44
1, 696954, Note_off_c, 0, 81, 63
1, 696965, Control_c, 0, 67, 35
1, 696965, Control_c, 1, 67, 35
1, 696983, Control_c, 1, 67, 27
1, 696983, Control_c, 0, 67, 27
1, 697002, Control_c, 0, 67, 23
1, 697002, Control_c, 1, 67, 23
1, 697115, Control_c, 1, 64, 86
1, 697115, Control_c, 0, 64, 86
1, 697135, Control_c, 0, 64, 51
1, 697135, Control_c, 1, 64, 51
1, 697153, Control_c, 1, 64, 13
1, 697153, Control_c, 0, 64, 13
1, 697171, Control_c, 0, 64, 0
1, 697171, Control_c, 1, 64, 0
1, 697243, Note_on_c, 0, 81, 64
1, 697247, Note_on_c, 0, 69, 56
1, 697284, Note_off_c, 0, 69, 61
1, 697284, Poly_aftertouch_c, 0, 69, 0
1, 697288, Note_off_c, 0, 81, 59
1, 697364, Note_on_c, 0, 69, 64
1, 697368, Note_on_c, 0, 81, 57
1, 697413, Note_off_c, 0, 69, 59
1, 697413, Poly_aftertouch_c, 0, 69, 0
1, 697414, Note_off_c, 0, 81, 60
1, 697442, Note_on_c, 0, 82, 69
1, 697444, Note_on_c, 0, 70, 66
1, 697511, Note_off_c, 0, 70, 59
1, 697539, Note_off_c, 0, 82, 62
1, 697552, Note_on_c, 0, 81, 73
1, 697565, Note_on_c, 0, 69, 72
1, 697621, Note_off_c, 0, 81, 62
1, 697625, Note_off_c, 0, 69, 57
1, 697625, Poly_aftertouch_c, 0, 69, 0
1, 697658, Note_on_c, 0, 79, 59
1, 697676, Note_on_c, 0, 67, 57
1, 697709, Note_off_c, 0, 79, 59
1, 697760, Note_on_c, 0, 89, 75
1, 697771, Note_off_c, 0, 67, 61
1, 697782, Note_on_c, 0, 81, 63
1, 697783, Note_on_c, 0, 65, 56
1, 697806, Note_on_c, 0, 62, 56
1, 697806, Control_c, 0, 64, 11
1, 697806, Control_c, 1, 64, 11
1, 697821, Note_off_c, 0, 89, 63
1, 697825, Control_c, 0, 64, 32
1, 697825, Control_c, 1, 64, 32
1, 697846, Control_c, 1, 64, 70
1, 697846, Note_on_c, 0, 77, 78
1, 697846, Control_c, 0, 64, 70
1, 697850, Note_off_c, 0, 81, 62
1, 697861, Note_off_c, 0, 65, 60
1, 697862, Control_c, 0, 64, 127
1, 697862, Control_c, 1, 64, 127
1, 697877, Note_off_c, 0, 62, 61
1, 697892, Note_off_c, 0, 77, 62
1, 698051, Control_c, 0, 64, 78
1, 698051, Control_c, 1, 64, 78
1, 698070, Control_c, 1, 64, 49
1, 698070, Control_c, 0, 64, 49
1, 698088, Control_c, 0, 64, 20
1, 698088, Control_c, 1, 64, 20
1, 698126, Control_c, 1, 64, 0
1, 698126, Control_c, 0, 64, 0
1, 698173, Note_on_c, 0, 74, 62
1, 698191, Note_on_c, 0, 62, 50
1, 698213, Note_off_c, 0, 74, 58
1, 698221, Note_off_c, 0, 62, 59
1, 698284, Note_on_c, 0, 74, 56
1, 698291, Note_on_c, 0, 62, 53
1, 698346, Note_off_c, 0, 62, 57
1, 698359, Note_on_c, 0, 77, 75
1, 698362, Note_off_c, 0, 74, 60
1, 698365, Note_on_c, 0, 65, 73
1, 698442, Note_off_c, 0, 65, 59
1, 698453, Note_on_c, 0, 64, 60
1, 698476, Note_on_c, 0, 76, 74
1, 698483, Note_off_c, 0, 77, 59
1, 698536, Note_on_c, 0, 62, 62
1, 698545, Note_off_c, 0, 76, 63
1, 698554, Note_on_c, 0, 74, 77
1, 698555, Note_off_c, 0, 64, 60
1, 698599, Note_off_c, 0, 62, 61
1, 698612, Note_off_c, 0, 74, 61
1, 698692, Note_on_c, 0, 91, 77
1, 698695, Note_on_c, 0, 55, 66
1, 698717, Note_on_c, 0, 62, 36
1, 698723, Note_on_c, 0, 86, 68
1, 698745, Control_c, 0, 64, 43
1, 698745, Control_c, 1, 64, 43
1, 698762, Control_c, 1, 64, 122
1, 698762, Control_c, 0, 64, 122
1, 698764, Note_off_c, 0, 91, 59
1, 698767, Note_on_c, 0, 67, 76
1, 698768, Note_off_c, 0, 55, 60
1, 698769, Note_on_c, 0, 79, 83
1, 698781, Control_c, 0, 64, 127
1, 698781, Control_c, 1, 64, 127
1, 698783, Note_off_c, 0, 62, 49
1, 698796, Note_off_c, 0, 86, 64
1, 698822, Note_off_c, 0, 67, 60
1, 698826, Note_off_c, 0, 79, 65
1, 699006, Control_c, 0, 64, 99
1, 699006, Control_c, 1, 64, 99
1, 699024, Control_c, 1, 64, 65
1, 699024, Control_c, 0, 64, 65
1, 699043, Control_c, 0, 64, 38
1, 699043, Control_c, 1, 64, 38
1, 699061, Control_c, 1, 64, 18
1, 699061, Control_c, 0, 64, 18
1, 699080, Control_c, 0, 64, 11
1, 699080, Control_c, 1, 64, 11
1, 699101, Note_on_c, 0, 67, 62
1, 699111, Note_on_c, 0, 79, 64
1, 699141, Note_off_c, 0, 67, 65
1, 699149, Note_off_c, 0, 79, 65
1, 699154, Control_c, 0, 64, 0
1, 699154, Control_c, 1, 64, 0
1, 699213, Note_on_c, 0, 79, 54
1, 699224, Note_on_c, 0, 67, 51
1, 699273, Note_off_c, 0, 79, 55
1, 699280, Note_off_c, 0, 67, 59
1, 699304, Note_on_c, 0, 69, 61
1, 699308, Note_on_c, 0, 81, 72
1, 699350, Note_off_c, 0, 69, 60
1, 699350, Poly_aftertouch_c, 0, 69, 0
1, 699390, Poly_aftertouch_c, 0, 71, 0
1, 699397, Note_off_c, 0, 81, 60
1, 699408, Note_on_c, 0, 67, 73
1, 699413, Note_on_c, 0, 79, 73
1, 699460, Note_off_c, 0, 67, 57
1, 699476, Note_off_c, 0, 79, 62
1, 699505, Note_on_c, 0, 77, 66
1, 699525, Note_on_c, 0, 65, 55
1, 699568, Note_off_c, 0, 77, 55
1, 699619, Note_off_c, 0, 65, 61
1, 699626, Note_on_c, 0, 88, 56
1, 699630, Note_on_c, 0, 79, 69
1, 699638, Note_on_c, 0, 64, 51
1, 699642, Control_c, 0, 64, 27
1, 699642, Control_c, 1, 64, 27
1, 699651, Note_on_c, 0, 60, 55
1, 699659, Control_c, 0, 64, 71
1, 699659, Control_c, 1, 64, 71
1, 699666, Note_on_c, 0, 86, 31
1, 699673, Note_off_c, 0, 88, 65
1, 699676, Note_off_c, 0, 79, 62
1, 699678, Control_c, 0, 64, 127
1, 699678, Control_c, 1, 64, 127
1, 699681, Note_off_c, 0, 64, 64
1, 699695, Note_on_c, 0, 76, 77
1, 699716, Note_off_c, 0, 86, 31
1, 699716, Control_c, 0, 67, 19
1, 699716, Control_c, 1, 67, 19
1, 699723, Note_off_c, 0, 76, 68
1, 699727, Note_off_c, 0, 60, 61
1, 699773, Control_c, 0, 67, 13
1, 699773, Control_c, 1, 67, 13
1, 699980, Control_c, 1, 64, 99
1, 699980, Control_c, 0, 64, 99
1, 699997, Control_c, 0, 64, 63
1, 699997, Control_c, 1, 64, 63
1, 700016, Control_c, 1, 64, 30
1, 700016, Control_c, 0, 64, 30
1, 700025, Note_on_c, 0, 60, 53
1, 700027, Note_on_c, 0, 72, 56
1, 700035, Control_c, 0, 64, 0
1, 700035, Control_c, 1, 64, 0
1, 700063, Note_off_c, 0, 60, 62
1, 700068, Note_off_c, 0, 72, 62
1, 700129, Note_on_c, 0, 72, 52
1, 700140, Note_on_c, 0, 60, 46
1, 700167, Control_c, 0, 67, 8
1, 700167, Control_c, 1, 67, 8
1, 700174, Note_off_c, 0, 72, 51
1, 700185, Note_off_c, 0, 60, 49
1, 700200, Note_on_c, 0, 76, 71
1, 700206, Note_on_c, 0, 64, 73
1, 700221, Control_c, 0, 67, 0
1, 700221, Control_c, 1, 67, 0
1, 700272, Note_off_c, 0, 64, 59
1, 700309, Note_on_c, 0, 62, 60
1, 700312, Note_off_c, 0, 76, 62
1, 700318, Note_on_c, 0, 74, 74
1, 700380, Note_on_c, 0, 60, 59
1, 700382, Note_off_c, 0, 74, 63
1, 700390, Note_off_c, 0, 62, 60
1, 700397, Note_on_c, 0, 72, 78
1, 700436, Note_off_c, 0, 60, 62
1, 700449, Note_off_c, 0, 72, 61
1, 700544, Note_on_c, 0, 89, 78
1, 700556, Note_on_c, 0, 50, 63
1, 700562, Note_on_c, 0, 59, 55
1, 700572, Note_on_c, 0, 83, 71
1, 700577, Control_c, 0, 64, 56
1, 700577, Control_c, 1, 64, 56
1, 700596, Control_c, 1, 64, 127
1, 700596, Control_c, 0, 64, 127
1, 700601, Note_off_c, 0, 50, 59
1, 700610, Note_off_c, 0, 89, 63
1, 700616, Note_off_c, 0, 59, 59
1, 700624, Note_off_c, 0, 83, 58
1, 700625, Note_on_c, 0, 77, 83
1, 700656, Note_on_c, 0, 65, 72
1, 700675, Note_off_c, 0, 77, 63
1, 700687, Note_off_c, 0, 65, 69
1, 700878, Control_c, 0, 64, 101
1, 700878, Control_c, 1, 64, 101
1, 700896, Control_c, 1, 64, 65
1, 700896, Control_c, 0, 64, 65
1, 700915, Control_c, 0, 64, 35
1, 700915, Control_c, 1, 64, 35
1, 700977, Note_on_c, 0, 59, 55
1, 700981, Note_on_c, 0, 71, 66
1, 700988, Control_c, 0, 64, 0
1, 700988, Control_c, 1, 64, 0
1, 701019, Note_off_c, 0, 71, 62
1, 701022, Note_off_c, 0, 59, 62
1, 701091, Note_on_c, 0, 71, 61
1, 701102, Note_on_c, 0, 59, 75
1, 701141, Note_off_c, 0, 59, 56
1, 701159, Note_off_c, 0, 71, 57
1, 701168, Note_on_c, 0, 74, 76
1, 701192, Note_on_c, 0, 62, 60
1, 701246, Note_off_c, 0, 62, 62
1, 701258, Note_on_c, 0, 60, 66
1, 701285, Note_off_c, 0, 74, 62
1, 701289, Note_on_c, 0, 72, 80
1, 701350, Note_on_c, 0, 59, 52
1, 701352, Note_off_c, 0, 72, 63
1, 701356, Note_off_c, 0, 60, 61
1, 701364, Note_on_c, 0, 71, 79
1, 701404, Note_off_c, 0, 59, 64
1, 701427, Note_off_c, 0, 71, 64
1, 701495, Control_c, 0, 64, 16
1, 701495, Control_c, 1, 64, 16
1, 701499, Note_on_c, 0, 88, 82
1, 701508, Note_on_c, 0, 48, 68
1, 701514, Control_c, 0, 64, 60
1, 701514, Control_c, 1, 64, 60
1, 701518, Note_on_c, 0, 57, 67
1, 701529, Note_on_c, 0, 81, 80
1, 701532, Control_c, 0, 64, 114
1, 701532, Control_c, 1, 64, 114
1, 701543, Note_off_c, 0, 48, 63
1, 701550, Control_c, 0, 64, 127
1, 701550, Control_c, 1, 64, 127
1, 701561, Note_off_c, 0, 88, 65
1, 701564, Note_off_c, 0, 57, 64
1, 701585, Note_on_c, 0, 76, 81
1, 701589, Note_off_c, 0, 81, 63
1, 701593, Note_on_c, 0, 64, 73
1, 701622, Note_off_c, 0, 64, 68
1, 701634, Note_off_c, 0, 76, 62
1, 701924, Note_on_c, 0, 69, 63
1, 701929, Note_on_c, 0, 57, 54
1, 701944, Control_c, 0, 64, 98
1, 701944, Control_c, 1, 64, 98
1, 701963, Control_c, 1, 64, 66
1, 701963, Control_c, 0, 64, 66
1, 701969, Note_off_c, 0, 69, 60
1, 701969, Poly_aftertouch_c, 0, 69, 0
1, 701978, Note_off_c, 0, 57, 65
1, 701980, Control_c, 0, 64, 41
1, 701980, Control_c, 1, 64, 41
1, 701999, Control_c, 1, 64, 21
1, 701999, Control_c, 0, 64, 21
1, 702018, Control_c, 0, 64, 12
1, 702018, Control_c, 1, 64, 12
1, 702025, Note_on_c, 0, 69, 58
1, 702034, Note_on_c, 0, 57, 55
1, 702095, Note_off_c, 0, 69, 46
1, 702095, Poly_aftertouch_c, 0, 69, 0
1, 702117, Note_on_c, 0, 72, 73
1, 702119, Note_off_c, 0, 57, 57
1, 702131, Control_c, 0, 64, 0
1, 702131, Control_c, 1, 64, 0
1, 702150, Note_on_c, 0, 60, 61
1, 702213, Note_off_c, 0, 60, 57
1, 702226, Note_on_c, 0, 59, 52
1, 702233, Note_on_c, 0, 71, 64
1, 702234, Note_off_c, 0, 72, 56
1, 702329, Note_on_c, 0, 57, 48
1, 702339, Note_on_c, 0, 69, 67
1, 702350, Note_off_c, 0, 59, 50
1, 702387, Note_off_c, 0, 71, 45
1, 702448, Note_off_c, 0, 57, 61
1, 702470, Note_off_c, 0, 69, 60
1, 702470, Poly_aftertouch_c, 0, 69, 0
1, 702481, Note_on_c, 0, 65, 59
1, 702485, Note_on_c, 0, 53, 45
1, 702599, Control_c, 0, 64, 14
1, 702599, Control_c, 1, 64, 14
1, 702618, Control_c, 1, 64, 32
1, 702618, Control_c, 0, 64, 32
1, 702638, Control_c, 0, 64, 57
1, 702638, Control_c, 1, 64, 57
1, 702656, Control_c, 1, 64, 76
1, 702656, Control_c, 0, 64, 76
1, 702675, Control_c, 0, 64, 88
1, 702675, Control_c, 1, 64, 88
1, 702694, Control_c, 1, 64, 98
1, 702694, Control_c, 0, 64, 98
1, 702711, Control_c, 0, 64, 105
1, 702711, Control_c, 1, 64, 105
1, 702728, Note_on_c, 0, 57, 53
1, 702730, Control_c, 0, 64, 127
1, 702730, Control_c, 1, 64, 127
1, 702766, Note_on_c, 0, 69, 62
1, 702787, Note_off_c, 0, 53, 60
1, 702792, Note_on_c, 0, 59, 48
1, 702816, Note_on_c, 0, 71, 56
1, 702833, Note_off_c, 0, 57, 61
1, 702833, Note_on_c, 0, 63, 60
1, 702834, Note_off_c, 0, 65, 57
1, 702870, Note_on_c, 0, 75, 75
1, 702887, Note_off_c, 0, 63, 61
1, 702895, Note_off_c, 0, 69, 59
1, 702895, Poly_aftertouch_c, 0, 69, 0
1, 702928, Note_off_c, 0, 71, 60
1, 702936, Note_on_c, 0, 52, 61
1, 702960, Note_off_c, 0, 75, 62
1, 702960, Note_on_c, 0, 64, 76
1, 702970, Note_on_c, 0, 56, 59
1, 703027, Note_off_c, 0, 64, 61
1, 703035, Note_on_c, 0, 68, 52
1, 703038, Note_off_c, 0, 52, 58
1, 703038, Poly_aftertouch_c, 0, 52, 0
1, 703053, Note_off_c, 0, 56, 60
1, 703059, Note_off_c, 0, 59, 40
1, 703068, Note_on_c, 0, 76, 80
1, 703081, Note_off_c, 0, 68, 64
1, 703081, Note_on_c, 0, 64, 55
1, 703085, Control_c, 0, 64, 83
1, 703085, Control_c, 1, 64, 83
1, 703105, Control_c, 1, 64, 52
1, 703105, Control_c, 0, 64, 52
1, 703124, Control_c, 0, 64, 22
1, 703124, Control_c, 1, 64, 22
1, 703180, Control_c, 1, 64, 0
1, 703180, Control_c, 0, 64, 0
1, 703184, Note_on_c, 0, 74, 77
1, 703190, Note_on_c, 0, 62, 63
1, 703192, Note_off_c, 0, 64, 61
1, 703211, Note_off_c, 0, 76, 55
1, 703276, Note_off_c, 0, 62, 58
1, 703283, Note_on_c, 0, 59, 53
1, 703298, Note_on_c, 0, 71, 70
1, 703301, Note_off_c, 0, 74, 59
1, 703383, Note_off_c, 0, 59, 61
1, 703398, Note_off_c, 0, 71, 60
1, 703432, Note_on_c, 0, 69, 68
1, 703436, Note_on_c, 0, 57, 52
1, 703980, Note_on_c, 0, 45, 51
1, 703980, Note_on_c, 0, 72, 52
1, 703982, Note_off_c, 0, 69, 54
1, 703982, Poly_aftertouch_c, 0, 69, 0
1, 703990, Note_on_c, 0, 76, 64
1, 704003, Control_c, 0, 64, 10
1, 704003, Control_c, 1, 64, 10
1, 704021, Control_c, 1, 64, 34
1, 704021, Control_c, 0, 64, 34
1, 704023, Note_on_c, 0, 81, 78
1, 704026, Note_off_c, 0, 72, 63
1, 704038, Note_off_c, 0, 45, 63
1, 704040, Note_off_c, 0, 76, 62
1, 704041, Control_c, 0, 64, 69
1, 704041, Control_c, 1, 64, 69
1, 704060, Control_c, 1, 64, 119
1, 704060, Control_c, 0, 64, 119
1, 704067, Note_off_c, 0, 57, 40
1, 704077, Control_c, 0, 64, 127
1, 704077, Control_c, 1, 64, 127
1, 704078, Note_off_c, 0, 81, 63
1, 704378, Control_c, 0, 64, 94
1, 704378, Control_c, 1, 64, 94
1, 704396, Control_c, 1, 64, 52
1, 704396, Control_c, 0, 64, 52
1, 704414, Control_c, 0, 64, 0
1, 704414, Control_c, 1, 64, 0
1, 704505, Note_on_c, 0, 57, 64
1, 704536, Note_on_c, 0, 64, 56
1, 704577, Note_on_c, 0, 93, 80
1, 704588, Note_on_c, 0, 88, 58
1, 704602, Note_off_c, 0, 57, 63
1, 704603, Control_c, 0, 64, 127
1, 704603, Control_c, 1, 64, 127
1, 704605, Note_on_c, 0, 69, 92
1, 704617, Note_on_c, 0, 81, 91
1, 704630, Note_off_c, 0, 64, 62
1, 704640, Note_off_c, 0, 93, 64
1, 704648, Note_off_c, 0, 88, 65
1, 704655, Note_off_c, 0, 69, 64
1, 704655, Poly_aftertouch_c, 0, 69, 0
1, 704682, Note_off_c, 0, 81, 63
1, 704883, Control_c, 0, 64, 94
1, 704883, Control_c, 1, 64, 94
1, 704903, Control_c, 1, 64, 66
1, 704903, Control_c, 0, 64, 66
1, 704920, Control_c, 0, 64, 43
1, 704920, Control_c, 1, 64, 43
1, 704939, Control_c, 1, 64, 21
1, 704939, Control_c, 0, 64, 21
1, 704952, Note_on_c, 0, 69, 65
1, 704958, Note_on_c, 0, 81, 64
1, 704995, Note_off_c, 0, 69, 62
1, 704995, Poly_aftertouch_c, 0, 69, 0
1, 704996, Control_c, 0, 64, 0
1, 704996, Control_c, 1, 64, 0
1, 705015, Note_off_c, 0, 81, 60
1, 705045, Note_on_c, 0, 69, 64
1, 705064, Note_on_c, 0, 81, 59
1, 705133, Note_off_c, 0, 69, 60
1, 705133, Poly_aftertouch_c, 0, 69, 0
1, 705144, Note_off_c, 0, 81, 55
1, 705156, Note_on_c, 0, 70, 76
1, 705161, Note_on_c, 0, 82, 75
1, 705218, Poly_aftertouch_c, 0, 86, 127
1, 705222, Note_off_c, 0, 70, 65
1, 705248, Poly_aftertouch_c, 0, 86, 0
1, 705257, Note_on_c, 0, 81, 76
1, 705266, Note_off_c, 0, 82, 65
1, 705276, Note_on_c, 0, 69, 71
1, 705343, Note_off_c, 0, 81, 63
1, 705346, Note_on_c, 0, 79, 74
1, 705363, Note_off_c, 0, 69, 57
1, 705363, Poly_aftertouch_c, 0, 69, 0
1, 705378, Note_on_c, 0, 67, 69
1, 705411, Note_off_c, 0, 79, 62
1, 705456, Note_on_c, 0, 89, 80
1, 705481, Note_on_c, 0, 81, 73
1, 705485, Note_on_c, 0, 65, 71
1, 705487, Note_off_c, 0, 67, 58
1, 705501, Control_c, 0, 64, 55
1, 705501, Control_c, 1, 64, 55
1, 705510, Note_on_c, 0, 62, 70
1, 705518, Note_off_c, 0, 89, 63
1, 705520, Control_c, 0, 64, 127
1, 705520, Control_c, 1, 64, 127
1, 705533, Note_on_c, 0, 77, 85
1, 705541, Note_off_c, 0, 81, 63
1, 705545, Note_off_c, 0, 62, 67
1, 705546, Note_off_c, 0, 65, 62
1, 705576, Note_off_c, 0, 77, 63
1, 705838, Control_c, 0, 64, 70
1, 705838, Control_c, 1, 64, 70
1, 705857, Control_c, 1, 64, 34
1, 705857, Control_c, 0, 64, 34
1, 705866, Note_on_c, 0, 62, 62
1, 705866, Note_on_c, 0, 74, 69
1, 705875, Control_c, 0, 64, 0
1, 705875, Control_c, 1, 64, 0
1, 705904, Note_off_c, 0, 62, 62
1, 705917, Note_off_c, 0, 74, 63
1, 705964, Note_on_c, 0, 74, 62
1, 705965, Note_on_c, 0, 62, 64
1, 706036, Note_off_c, 0, 74, 60
1, 706060, Note_on_c, 0, 65, 78
1, 706061, Note_off_c, 0, 62, 62
1, 706063, Note_on_c, 0, 77, 79
1, 706138, Note_off_c, 0, 65, 63
1, 706138, Note_on_c, 0, 64, 73
1, 706167, Note_on_c, 0, 76, 78
1, 706169, Note_off_c, 0, 77, 63
1, 706222, Note_on_c, 0, 62, 60
1, 706240, Note_off_c, 0, 76, 63
1, 706242, Note_on_c, 0, 74, 81
1, 706248, Note_off_c, 0, 64, 61
1, 706281, Note_off_c, 0, 62, 63
1, 706304, Note_off_c, 0, 74, 61
1, 706368, Note_on_c, 0, 91, 84
1, 706376, Note_on_c, 0, 55, 67
1, 706390, Note_on_c, 0, 62, 57
1, 706404, Note_on_c, 0, 86, 78
1, 706419, Control_c, 0, 64, 95
1, 706419, Control_c, 1, 64, 95
1, 706431, Note_on_c, 0, 67, 88
1, 706436, Control_c, 0, 64, 127
1, 706436, Control_c, 1, 64, 127
1, 706437, Note_on_c, 0, 79, 85
1, 706445, Note_off_c, 0, 91, 61
1, 706448, Note_off_c, 0, 55, 59
1, 706467, Note_off_c, 0, 62, 61
1, 706469, Note_off_c, 0, 86, 65
1, 706483, Note_off_c, 0, 67, 66
1, 706506, Note_off_c, 0, 79, 64
1, 706754, Control_c, 0, 64, 83
1, 706754, Control_c, 1, 64, 83
1, 706758, Note_on_c, 0, 67, 63
1, 706763, Note_on_c, 0, 79, 73
1, 706775, Control_c, 0, 64, 45
1, 706775, Control_c, 1, 64, 45
1, 706793, Control_c, 1, 64, 0
1, 706793, Control_c, 0, 64, 0
1, 706798, Note_off_c, 0, 67, 64
1, 706819, Note_off_c, 0, 79, 58
1, 706848, Note_on_c, 0, 79, 64
1, 706853, Note_on_c, 0, 67, 63
1, 706940, Note_off_c, 0, 79, 42
1, 706950, Note_on_c, 0, 81, 73
1, 706951, Note_off_c, 0, 67, 62
1, 706955, Note_on_c, 0, 69, 76
1, 707011, Poly_aftertouch_c, 0, 83, 0
1, 707017, Poly_aftertouch_c, 0, 83, 0
1, 707026, Note_off_c, 0, 69, 59
1, 707026, Poly_aftertouch_c, 0, 69, 0
1, 707052, Note_on_c, 0, 79, 80
1, 707060, Note_off_c, 0, 81, 60
1, 707069, Note_on_c, 0, 67, 71
1, 707134, Note_off_c, 0, 67, 57
1, 707143, Note_off_c, 0, 79, 63
1, 707151, Note_on_c, 0, 77, 75
1, 707178, Note_on_c, 0, 65, 63
1, 707219, Note_off_c, 0, 77, 60
1, 707255, Note_on_c, 0, 88, 81
1, 707270, Note_off_c, 0, 65, 61
1, 707279, Note_on_c, 0, 79, 83
1, 707281, Note_on_c, 0, 64, 73
1, 707297, Control_c, 0, 64, 48
1, 707297, Control_c, 1, 64, 48
1, 707304, Note_on_c, 0, 60, 69
1, 707317, Control_c, 0, 64, 127
1, 707317, Control_c, 1, 64, 127
1, 707326, Note_off_c, 0, 88, 65
1, 707334, Note_off_c, 0, 64, 61
1, 707339, Note_on_c, 0, 76, 83
1, 707341, Note_off_c, 0, 79, 66
1, 707353, Note_off_c, 0, 60, 61
1, 707396, Note_off_c, 0, 76, 63
1, 707657, Note_on_c, 0, 60, 69
1, 707669, Note_on_c, 0, 72, 67
1, 707691, Control_c, 0, 64, 84
1, 707691, Control_c, 1, 64, 84
1, 707694, Note_off_c, 0, 60, 65
1, 707709, Control_c, 0, 64, 53
1, 707709, Control_c, 1, 64, 53
1, 707712, Note_off_c, 0, 72, 64
1, 707729, Control_c, 0, 64, 19
1, 707729, Control_c, 1, 64, 19
1, 707747, Control_c, 1, 64, 0
1, 707747, Control_c, 0, 64, 0
1, 707762, Note_on_c, 0, 72, 66
1, 707767, Note_on_c, 0, 60, 66
1, 707843, Note_off_c, 0, 72, 54
1, 707847, Note_on_c, 0, 64, 80
1, 707856, Note_off_c, 0, 60, 62
1, 707860, Note_on_c, 0, 76, 80
1, 707929, Note_off_c, 0, 64, 59
1, 707937, Poly_aftertouch_c, 0, 77, 0
1, 707939, Note_on_c, 0, 62, 66
1, 707967, Note_on_c, 0, 74, 80
1, 707975, Note_off_c, 0, 76, 62
1, 708015, Note_on_c, 0, 60, 74
1, 708030, Note_off_c, 0, 62, 62
1, 708037, Note_off_c, 0, 74, 64
1, 708040, Note_on_c, 0, 72, 83
1, 708072, Note_off_c, 0, 60, 60
1, 708103, Note_off_c, 0, 72, 65
1, 708172, Note_on_c, 0, 89, 90
1, 708177, Control_c, 0, 64, 12
1, 708177, Control_c, 1, 64, 12
1, 708180, Note_on_c, 0, 59, 71
1, 708185, Note_on_c, 0, 50, 74
1, 708195, Control_c, 0, 64, 127
1, 708195, Control_c, 1, 64, 127
1, 708197, Note_on_c, 0, 83, 84
1, 708224, Note_off_c, 0, 50, 64
1, 708239, Note_off_c, 0, 89, 64
1, 708246, Note_on_c, 0, 77, 87
1, 708247, Note_off_c, 0, 59, 59
1, 708262, Note_off_c, 0, 83, 65
1, 708265, Note_on_c, 0, 65, 83
1, 708287, Poly_aftertouch_c, 0, 58, 127
1, 708301, Note_off_c, 0, 77, 64
1, 708324, Note_off_c, 0, 65, 63
1, 708332, Poly_aftertouch_c, 0, 58, 0
1, 708485, Note_on_c, 0, 75, 25
1, 708535, Note_off_c, 0, 75, 53
1, 708566, Note_on_c, 0, 59, 66
1, 708573, Note_on_c, 0, 71, 73
1, 708606, Note_off_c, 0, 59, 64
1, 708629, Note_off_c, 0, 71, 61
1, 708645, Control_c, 0, 64, 118
1, 708645, Control_c, 1, 64, 118
1, 708660, Note_on_c, 0, 71, 64
1, 708663, Control_c, 0, 64, 67
1, 708663, Control_c, 1, 64, 67
1, 708668, Note_on_c, 0, 59, 62
1, 708683, Control_c, 0, 64, 21
1, 708683, Control_c, 1, 64, 21
1, 708701, Control_c, 1, 64, 0
1, 708701, Control_c, 0, 64, 0
1, 708759, Note_off_c, 0, 59, 59
1, 708770, Note_on_c, 0, 74, 77
1, 708771, Note_on_c, 0, 62, 74
1, 708778, Note_off_c, 0, 71, 38
1, 708810, Note_on_c, 0, 76, 21
1, 708850, Note_off_c, 0, 62, 60
1, 708852, Note_on_c, 0, 60, 73
1, 708858, Note_off_c, 0, 76, 30
1, 708868, Note_on_c, 0, 72, 78
1, 708873, Note_off_c, 0, 74, 64
1, 708932, Note_on_c, 0, 59, 60
1, 708946, Note_on_c, 0, 71, 81
1, 708947, Note_off_c, 0, 72, 62
1, 708951, Note_off_c, 0, 60, 56
1, 708984, Note_off_c, 0, 59, 64
1, 709010, Note_off_c, 0, 71, 64
1, 709077, Note_on_c, 0, 88, 89
1, 709091, Note_on_c, 0, 57, 74
1, 709096, Note_on_c, 0, 48, 69
1, 709099, Note_on_c, 0, 81, 86
1, 709114, Control_c, 0, 64, 51
1, 709114, Control_c, 1, 64, 51
1, 709132, Control_c, 1, 64, 127
1, 709132, Control_c, 0, 64, 127
1, 709136, Note_off_c, 0, 48, 64
1, 709146, Note_off_c, 0, 88, 66
1, 709158, Note_on_c, 0, 76, 85
1, 709159, Note_off_c, 0, 57, 60
1, 709172, Note_off_c, 0, 81, 63
1, 709174, Note_on_c, 0, 64, 85
1, 709216, Poly_aftertouch_c, 0, 47, 0
1, 709221, Note_off_c, 0, 64, 61
1, 709222, Note_off_c, 0, 76, 64
1, 709486, Note_on_c, 0, 57, 70
1, 709496, Note_on_c, 0, 69, 68
1, 709524, Note_off_c, 0, 57, 63
1, 709549, Note_off_c, 0, 69, 58
1, 709549, Poly_aftertouch_c, 0, 69, 0
1, 709586, Note_on_c, 0, 69, 62
1, 709587, Note_on_c, 0, 57, 68
1, 709688, Note_on_c, 0, 72, 80
1, 709695, Note_off_c, 0, 57, 61
1, 709697, Note_on_c, 0, 60, 80
1, 709704, Note_off_c, 0, 69, 49
1, 709704, Poly_aftertouch_c, 0, 69, 0
1, 709732, Control_c, 0, 64, 101
1, 709732, Control_c, 1, 64, 101
1, 709750, Control_c, 1, 64, 84
1, 709750, Control_c, 0, 64, 84
1, 709770, Control_c, 0, 64, 73
1, 709770, Control_c, 1, 64, 73
1, 709786, Note_on_c, 0, 59, 68
1, 709787, Control_c, 0, 64, 65
1, 709787, Control_c, 1, 64, 65
1, 709799, Note_on_c, 0, 71, 71
1, 709806, Control_c, 0, 64, 60
1, 709806, Control_c, 1, 64, 60
1, 709816, Note_off_c, 0, 60, 40
1, 709817, Note_off_c, 0, 72, 54
1, 709823, Control_c, 0, 64, 57
1, 709823, Control_c, 1, 64, 57
1, 709843, Control_c, 1, 64, 55
1, 709843, Control_c, 0, 64, 55
1, 709862, Control_c, 0, 64, 51
1, 709862, Control_c, 1, 64, 51
1, 709881, Control_c, 1, 64, 45
1, 709881, Control_c, 0, 64, 45
1, 709893, Note_on_c, 0, 69, 67
1, 709897, Note_on_c, 0, 57, 65
1, 709899, Control_c, 0, 64, 37
1, 709899, Control_c, 1, 64, 37
1, 709918, Control_c, 1, 64, 29
1, 709918, Control_c, 0, 64, 29
1, 709937, Control_c, 0, 64, 23
1, 709937, Control_c, 1, 64, 23
1, 709938, Note_off_c, 0, 59, 54
1, 709939, Note_off_c, 0, 71, 60
1, 709955, Control_c, 0, 64, 16
1, 709955, Control_c, 1, 64, 16
1, 709993, Control_c, 1, 64, 0
1, 709993, Control_c, 0, 64, 0
1, 710028, Note_on_c, 0, 65, 75
1, 710047, Note_on_c, 0, 53, 70
1, 710051, Note_off_c, 0, 57, 61
1, 710088, Note_off_c, 0, 69, 43
1, 710088, Poly_aftertouch_c, 0, 69, 0
1, 710200, Control_c, 0, 64, 43
1, 710200, Control_c, 1, 64, 43
1, 710219, Control_c, 1, 64, 83
1, 710219, Control_c, 0, 64, 83
1, 710237, Control_c, 0, 64, 127
1, 710237, Control_c, 1, 64, 127
1, 710356, Note_on_c, 0, 57, 63
1, 710357, Note_on_c, 0, 69, 64
1, 710370, Note_on_c, 0, 59, 51
1, 710404, Note_on_c, 0, 71, 60
1, 710415, Note_off_c, 0, 53, 60
1, 710434, Note_on_c, 0, 63, 78
1, 710435, Note_on_c, 0, 75, 79
1, 710449, Note_off_c, 0, 65, 59
1, 710475, Note_off_c, 0, 57, 61
1, 710525, Note_off_c, 0, 63, 62
1, 710526, Note_off_c, 0, 69, 59
1, 710526, Poly_aftertouch_c, 0, 69, 0
1, 710570, Note_on_c, 0, 64, 83
1, 710584, Note_off_c, 0, 75, 64
1, 710584, Note_on_c, 0, 52, 77
1, 710600, Note_on_c, 0, 56, 67
1, 710644, Note_on_c, 0, 68, 63
1, 710650, Note_off_c, 0, 64, 62
1, 710678, Note_on_c, 0, 76, 83
1, 710688, Note_off_c, 0, 52, 61
1, 710688, Note_off_c, 0, 56, 61
1, 710688, Poly_aftertouch_c, 0, 52, 0
1, 710698, Note_on_c, 0, 64, 70
1, 710710, Note_off_c, 0, 59, 55
1, 710716, Note_off_c, 0, 68, 63
1, 710721, Note_off_c, 0, 71, 41
1, 710722, Poly_aftertouch_c, 0, 71, 0
1, 710729, Poly_aftertouch_c, 0, 59, 0
1, 710760, Control_c, 0, 64, 81
1, 710760, Control_c, 1, 64, 81
1, 710779, Control_c, 1, 64, 52
1, 710779, Control_c, 0, 64, 52
1, 710797, Control_c, 0, 64, 21
1, 710797, Control_c, 1, 64, 21
1, 710800, Note_on_c, 0, 74, 84
1, 710816, Control_c, 0, 64, 0
1, 710816, Control_c, 1, 64, 0
1, 710819, Note_on_c, 0, 62, 81
1, 710835, Note_off_c, 0, 64, 60
1, 710840, Note_off_c, 0, 76, 57
1, 710897, Note_on_c, 0, 59, 61
1, 710915, Note_on_c, 0, 71, 87
1, 710934, Note_off_c, 0, 62, 61
1, 710939, Note_off_c, 0, 74, 56
1, 711030, Note_off_c, 0, 59, 62
1, 711048, Note_on_c, 0, 69, 86
1, 711050, Note_off_c, 0, 71, 62
1, 711063, Note_on_c, 0, 57, 80
1, 711608, Note_on_c, 0, 72, 58
1, 711637, Note_on_c, 0, 76, 68
1, 711651, Note_on_c, 0, 45, 70
1, 711669, Note_on_c, 0, 81, 79
1, 711676, Note_off_c, 0, 69, 56
1, 711676, Poly_aftertouch_c, 0, 69, 0
1, 711679, Control_c, 0, 64, 48
1, 711679, Control_c, 1, 64, 48
1, 711697, Control_c, 1, 64, 127
1, 711697, Control_c, 0, 64, 127
1, 711707, Note_off_c, 0, 57, 61
1, 711721, Note_off_c, 0, 72, 62
1, 711738, Note_off_c, 0, 76, 64
1, 711740, Note_off_c, 0, 45, 62
1, 711758, Note_off_c, 0, 81, 64
1, 712520, Control_c, 0, 64, 96
1, 712520, Control_c, 1, 64, 96
1, 712539, Control_c, 1, 64, 72
1, 712539, Control_c, 0, 64, 72
1, 712558, Control_c, 0, 64, 58
1, 712558, Control_c, 1, 64, 58
1, 712577, Control_c, 1, 64, 54
1, 712577, Control_c, 0, 64, 54
1, 712595, Control_c, 0, 64, 52
1, 712595, Control_c, 1, 64, 52
1, 712615, Control_c, 1, 64, 44
1, 712615, Control_c, 0, 64, 44
1, 712632, Control_c, 0, 64, 27
1, 712632, Control_c, 1, 64, 27
1, 712670, Control_c, 1, 64, 0
1, 712670, Control_c, 0, 64, 0
1, 712801, Note_on_c, 0, 44, 57
1, 712810, Note_on_c, 0, 40, 62
1, 712836, Note_on_c, 0, 88, 97
1, 712837, Control_c, 0, 64, 17
1, 712837, Control_c, 1, 64, 17
1, 712839, Note_on_c, 0, 76, 94
1, 712857, Control_c, 0, 64, 37
1, 712857, Control_c, 1, 64, 37
1, 712876, Control_c, 1, 64, 63
1, 712876, Control_c, 0, 64, 63
1, 712883, Note_off_c, 0, 76, 64
1, 712888, Note_off_c, 0, 88, 67
1, 712895, Control_c, 0, 64, 81
1, 712895, Control_c, 1, 64, 81
1, 712912, Control_c, 1, 64, 95
1, 712912, Control_c, 0, 64, 95
1, 712931, Control_c, 0, 64, 101
1, 712931, Control_c, 1, 64, 101
1, 712936, Note_on_c, 0, 42, 76
1, 712938, Note_on_c, 0, 45, 80
1, 712944, Note_off_c, 0, 40, 61
1, 712954, Note_off_c, 0, 44, 60
1, 712969, Control_c, 0, 64, 109
1, 712969, Control_c, 1, 64, 109
1, 712989, Control_c, 1, 64, 127
1, 712989, Control_c, 0, 64, 127
1, 713046, Note_on_c, 0, 47, 80
1, 713049, Note_on_c, 0, 44, 78
1, 713055, Note_off_c, 0, 42, 63
1, 713056, Note_off_c, 0, 45, 61
1, 713108, Note_off_c, 0, 44, 60
1, 713137, Control_c, 0, 64, 96
1, 713137, Control_c, 1, 64, 96
1, 713156, Note_off_c, 0, 47, 58
1, 713156, Control_c, 0, 64, 55
1, 713156, Control_c, 1, 64, 55
1, 713183, Note_on_c, 0, 45, 84
1, 713190, Note_on_c, 0, 84, 88
1, 713191, Note_on_c, 0, 48, 82
1, 713192, Note_on_c, 0, 72, 87
1, 713192, Control_c, 0, 64, 0
1, 713192, Control_c, 1, 64, 0
1, 713219, Note_off_c, 0, 72, 66
1, 713244, Note_off_c, 0, 84, 63
1, 713287, Control_c, 0, 64, 11
1, 713287, Control_c, 1, 64, 11
1, 713292, Note_on_c, 0, 50, 81
1, 713297, Note_on_c, 0, 47, 80
1, 713305, Control_c, 0, 64, 29
1, 713305, Control_c, 1, 64, 29
1, 713306, Note_off_c, 0, 45, 60
1, 713311, Note_off_c, 0, 48, 58
1, 713325, Control_c, 0, 64, 58
1, 713325, Control_c, 1, 64, 58
1, 713345, Control_c, 1, 64, 86
1, 713345, Control_c, 0, 64, 86
1, 713362, Control_c, 0, 64, 127
1, 713362, Control_c, 1, 64, 127
1, 713399, Note_on_c, 0, 52, 83
1, 713403, Note_off_c, 0, 47, 59
1, 713407, Note_off_c, 0, 50, 62
1, 713414, Note_on_c, 0, 48, 80
1, 713468, Note_off_c, 0, 52, 61
1, 713468, Poly_aftertouch_c, 0, 52, 0
1, 713511, Control_c, 0, 64, 93
1, 713511, Control_c, 1, 64, 93
1, 713531, Control_c, 1, 64, 53
1, 713531, Control_c, 0, 64, 53
1, 713537, Note_off_c, 0, 48, 61
1, 713542, Note_on_c, 0, 50, 77
1, 713553, Note_on_c, 0, 68, 90
1, 713553, Note_on_c, 0, 80, 91
1, 713560, Note_on_c, 0, 53, 85
1, 713568, Control_c, 0, 64, 0
1, 713568, Control_c, 1, 64, 0
1, 713588, Note_off_c, 0, 68, 66
1, 713616, Note_off_c, 0, 53, 60
1, 713622, Note_off_c, 0, 80, 65
1, 713623, Control_c, 0, 64, 20
1, 713623, Control_c, 1, 64, 20
1, 713643, Control_c, 1, 64, 47
1, 713643, Control_c, 0, 64, 47
1, 713662, Control_c, 0, 64, 76
1, 713662, Control_c, 1, 64, 76
1, 713670, Note_on_c, 0, 48, 75
1, 713678, Note_off_c, 0, 50, 61
1, 713681, Control_c, 0, 64, 108
1, 713681, Control_c, 1, 64, 108
1, 713695, Note_on_c, 0, 52, 79
1, 713698, Control_c, 0, 64, 127
1, 713698, Control_c, 1, 64, 127
1, 713771, Note_on_c, 0, 47, 72
1, 713784, Note_on_c, 0, 50, 83
1, 713787, Note_off_c, 0, 52, 60
1, 713787, Poly_aftertouch_c, 0, 52, 0
1, 713790, Note_off_c, 0, 48, 60
1, 713868, Control_c, 0, 64, 88
1, 713868, Control_c, 1, 64, 88
1, 713882, Note_off_c, 0, 50, 61
1, 713885, Note_on_c, 0, 45, 75
1, 713886, Control_c, 0, 64, 47
1, 713886, Control_c, 1, 64, 47
1, 713888, Note_off_c, 0, 47, 64
1, 713897, Note_on_c, 0, 48, 73
1, 713904, Control_c, 0, 64, 0
1, 713904, Control_c, 1, 64, 0
1, 713913, Note_on_c, 0, 81, 89
1, 713918, Note_on_c, 0, 69, 85
1, 713954, Note_off_c, 0, 69, 61
1, 713954, Poly_aftertouch_c, 0, 69, 0
1, 713971, Note_off_c, 0, 81, 62
1, 713991, Note_off_c, 0, 48, 47
1, 714005, Note_off_c, 0, 45, 62
1, 714007, Note_on_c, 0, 50, 78
1, 714010, Note_on_c, 0, 47, 77
1, 714017, Control_c, 0, 64, 24
1, 714017, Control_c, 1, 64, 24
1, 714036, Control_c, 1, 64, 54
1, 714036, Control_c, 0, 64, 54
1, 714055, Control_c, 0, 64, 86
1, 714055, Control_c, 1, 64, 86
1, 714074, Control_c, 1, 64, 127
1, 714074, Control_c, 0, 64, 127
1, 714096, Note_on_c, 0, 48, 75
1, 714104, Note_off_c, 0, 47, 62
1, 714109, Note_off_c, 0, 50, 61
1, 714129, Note_on_c, 0, 52, 77
1, 714152, Note_off_c, 0, 48, 61
1, 714225, Control_c, 0, 64, 97
1, 714225, Control_c, 1, 64, 97
1, 714242, Control_c, 1, 64, 56
1, 714242, Control_c, 0, 64, 56
1, 714252, Note_off_c, 0, 52, 55
1, 714252, Poly_aftertouch_c, 0, 52, 0
1, 714259, Control_c, 0, 64, 8
1, 714259, Control_c, 1, 64, 8
1, 714261, Note_on_c, 0, 78, 90
1, 714262, Note_on_c, 0, 66, 90
1, 714263, Note_on_c, 0, 54, 74
1, 714268, Note_on_c, 0, 50, 59
1, 714282, Control_c, 0, 64, 0
1, 714282, Control_c, 1, 64, 0
1, 714312, Note_off_c, 0, 66, 59
1, 714328, Note_off_c, 0, 78, 65
1, 714335, Control_c, 0, 64, 10
1, 714335, Control_c, 1, 64, 10
1, 714355, Control_c, 1, 64, 35
1, 714355, Control_c, 0, 64, 35
1, 714357, Note_on_c, 0, 52, 73
1, 714358, Note_on_c, 0, 56, 71
1, 714367, Note_off_c, 0, 54, 55
1, 714372, Control_c, 0, 64, 69
1, 714372, Control_c, 1, 64, 69
1, 714380, Note_off_c, 0, 50, 56
1, 714392, Control_c, 0, 64, 111
1, 714392, Control_c, 1, 64, 111
1, 714410, Control_c, 1, 64, 127
1, 714410, Control_c, 0, 64, 127
1, 714474, Note_on_c, 0, 54, 80
1, 714475, Note_off_c, 0, 56, 60
1, 714485, Note_on_c, 0, 57, 77
1, 714487, Note_off_c, 0, 52, 56
1, 714487, Poly_aftertouch_c, 0, 52, 0
1, 714557, Note_off_c, 0, 57, 62
1, 714598, Control_c, 0, 64, 81
1, 714598, Control_c, 1, 64, 81
1, 714609, Note_on_c, 0, 56, 75
1, 714610, Note_off_c, 0, 54, 62
1, 714615, Control_c, 0, 64, 39
1, 714615, Control_c, 1, 64, 39
1, 714621, Note_on_c, 0, 76, 89
1, 714621, Note_on_c, 0, 64, 85
1, 714632, Note_on_c, 0, 59, 82
1, 714635, Control_c, 0, 64, 0
1, 714635, Control_c, 1, 64, 0
1, 714654, Note_off_c, 0, 56, 64
1, 714663, Note_off_c, 0, 64, 61
1, 714682, Note_off_c, 0, 76, 64
1, 714691, Control_c, 0, 64, 18
1, 714691, Control_c, 1, 64, 18
1, 714694, Note_off_c, 0, 59, 61
1, 714709, Control_c, 0, 64, 49
1, 714709, Control_c, 1, 64, 49
1, 714729, Control_c, 1, 64, 84
1, 714729, Control_c, 0, 64, 84
1, 714749, Control_c, 0, 64, 127
1, 714749, Control_c, 1, 64, 127
1, 714750, Note_on_c, 0, 57, 80
1, 714751, Note_on_c, 0, 60, 83
1, 714834, Note_on_c, 0, 59, 79
1, 714842, Note_off_c, 0, 60, 60
1, 714851, Note_off_c, 0, 57, 62
1, 714885, Note_on_c, 0, 62, 78
1, 714906, Note_off_c, 0, 59, 61
1, 714954, Control_c, 0, 64, 100
1, 714954, Control_c, 1, 64, 100
1, 714972, Control_c, 1, 64, 52
1, 714972, Control_c, 0, 64, 52
1, 714979, Note_on_c, 0, 69, 93
1, 714988, Note_on_c, 0, 64, 84
1, 714991, Control_c, 0, 64, 0
1, 714991, Control_c, 1, 64, 0
1, 714996, Note_on_c, 0, 60, 87
1, 714999, Note_off_c, 0, 62, 57
1, 715001, Note_on_c, 0, 65, 69
1, 715023, Note_off_c, 0, 65, 63
1, 715080, Note_off_c, 0, 60, 58
1, 715089, Note_off_c, 0, 64, 41
1, 715102, Note_on_c, 0, 62, 85
1, 715103, Control_c, 0, 64, 11
1, 715103, Control_c, 1, 64, 11
1, 715121, Note_on_c, 0, 59, 79
1, 715123, Control_c, 0, 64, 36
1, 715123, Control_c, 1, 64, 36
1, 715142, Control_c, 1, 64, 71
1, 715142, Control_c, 0, 64, 71
1, 715160, Control_c, 0, 64, 127
1, 715160, Control_c, 1, 64, 127
1, 715183, Note_off_c, 0, 62, 61
1, 715198, Note_on_c, 0, 60, 83
1, 715206, Note_off_c, 0, 69, 47
1, 715206, Poly_aftertouch_c, 0, 69, 0
1, 715222, Note_off_c, 0, 59, 40
1, 715224, Note_on_c, 0, 57, 84
1, 715256, Note_off_c, 0, 60, 61
1, 715309, Control_c, 0, 64, 106
1, 715309, Control_c, 1, 64, 106
1, 715324, Note_off_c, 0, 57, 60
1, 715328, Control_c, 0, 64, 57
1, 715328, Control_c, 1, 64, 57
1, 715335, Note_on_c, 0, 56, 80
1, 715339, Note_on_c, 0, 76, 92
1, 715343, Note_on_c, 0, 64, 87
1, 715347, Note_on_c, 0, 59, 82
1, 715347, Control_c, 0, 64, 0
1, 715347, Control_c, 1, 64, 0
1, 715400, Note_off_c, 0, 64, 57
1, 715405, Note_off_c, 0, 76, 61
1, 715434, Note_on_c, 0, 54, 75
1, 715440, Control_c, 0, 64, 20
1, 715440, Control_c, 1, 64, 20
1, 715449, Note_on_c, 0, 57, 83
1, 715452, Note_off_c, 0, 59, 59
1, 715458, Control_c, 0, 64, 52
1, 715458, Control_c, 1, 64, 52
1, 715460, Note_off_c, 0, 56, 58
1, 715477, Control_c, 0, 64, 89
1, 715477, Control_c, 1, 64, 89
1, 715497, Control_c, 1, 64, 127
1, 715497, Control_c, 0, 64, 127
1, 715561, Note_off_c, 0, 57, 62
1, 715565, Note_on_c, 0, 56, 77
1, 715568, Note_off_c, 0, 54, 66
1, 715572, Note_on_c, 0, 52, 76
1, 715665, Control_c, 0, 64, 63
1, 715665, Control_c, 1, 64, 63
1, 715667, Note_on_c, 0, 68, 83
1, 715682, Note_on_c, 0, 62, 86
1, 715683, Note_on_c, 0, 59, 85
1, 715684, Control_c, 0, 64, 0
1, 715684, Control_c, 1, 64, 0
1, 715701, Note_off_c, 0, 52, 59
1, 715701, Poly_aftertouch_c, 0, 52, 0
1, 715705, Note_off_c, 0, 56, 61
1, 715744, Note_off_c, 0, 62, 56
1, 715771, Note_off_c, 0, 59, 60
1, 715776, Control_c, 0, 64, 21
1, 715776, Control_c, 1, 64, 21
1, 715795, Control_c, 1, 64, 65
1, 715795, Control_c, 0, 64, 65
1, 715798, Note_on_c, 0, 60, 80
1, 715803, Note_on_c, 0, 57, 77
1, 715805, Note_off_c, 0, 68, 63
1, 715815, Control_c, 0, 64, 127
1, 715815, Control_c, 1, 64, 127
1, 715905, Note_off_c, 0, 60, 47
1, 715912, Note_on_c, 0, 56, 84
1, 715918, Note_on_c, 0, 59, 75
1, 715943, Note_off_c, 0, 57, 57
1, 715949, Note_off_c, 0, 59, 65
1, 716002, Control_c, 0, 64, 102
1, 716002, Control_c, 1, 64, 102
1, 716015, Note_off_c, 0, 56, 59
1, 716020, Control_c, 0, 64, 52
1, 716020, Control_c, 1, 64, 52
1, 716028, Note_on_c, 0, 54, 74
1, 716038, Note_on_c, 0, 76, 93
1, 716038, Control_c, 0, 64, 0
1, 716038, Control_c, 1, 64, 0
1, 716050, Note_on_c, 0, 57, 78
1, 716066, Note_on_c, 0, 64, 73
1, 716094, Note_off_c, 0, 64, 67
1, 716098, Note_off_c, 0, 76, 62
1, 716114, Control_c, 0, 64, 31
1, 716114, Control_c, 1, 64, 31
1, 716132, Control_c, 1, 64, 73
1, 716132, Control_c, 0, 64, 73
1, 716143, Note_on_c, 0, 52, 59
1, 716145, Note_on_c, 0, 56, 80
1, 716150, Control_c, 0, 64, 127
1, 716150, Control_c, 1, 64, 127
1, 716158, Note_off_c, 0, 54, 60
1, 716185, Note_off_c, 0, 57, 59
1, 716262, Note_on_c, 0, 54, 80
1, 716288, Note_on_c, 0, 51, 80
1, 716293, Note_off_c, 0, 52, 60
1, 716293, Poly_aftertouch_c, 0, 52, 0
1, 716298, Note_off_c, 0, 56, 61
1, 716376, Control_c, 0, 64, 68
1, 716376, Control_c, 1, 64, 68
1, 716389, Note_on_c, 0, 66, 90
1, 716390, Note_on_c, 0, 57, 82
1, 716400, Note_on_c, 0, 60, 87
1, 716413, Control_c, 0, 64, 0
1, 716413, Control_c, 1, 64, 0
1, 716423, Note_off_c, 0, 54, 61
1, 716469, Control_c, 0, 64, 17
1, 716469, Control_c, 1, 64, 17
1, 716471, Note_off_c, 0, 51, 59
1, 716485, Note_off_c, 0, 57, 63
1, 716485, Note_off_c, 0, 60, 57
1, 716489, Control_c, 0, 64, 60
1, 716489, Control_c, 1, 64, 60
1, 716507, Control_c, 1, 64, 127
1, 716507, Control_c, 0, 64, 127
1, 716522, Note_on_c, 0, 59, 79
1, 716525, Note_off_c, 0, 66, 60
1, 716537, Note_on_c, 0, 56, 82
1, 716623, Note_off_c, 0, 59, 62
1, 716626, Note_on_c, 0, 57, 74
1, 716638, Note_on_c, 0, 54, 82
1, 716646, Note_off_c, 0, 56, 62
1, 716663, Note_off_c, 0, 57, 66
1, 716712, Control_c, 0, 64, 105
1, 716712, Control_c, 1, 64, 105
1, 716732, Control_c, 1, 64, 51
1, 716732, Control_c, 0, 64, 51
1, 716750, Control_c, 0, 64, 0
1, 716750, Control_c, 1, 64, 0
1, 716752, Note_on_c, 0, 52, 75
1, 716766, Note_off_c, 0, 54, 61
1, 716768, Note_on_c, 0, 76, 94
1, 716768, Note_on_c, 0, 56, 81
1, 716778, Note_on_c, 0, 64, 82
1, 716815, Note_off_c, 0, 64, 64
1, 716826, Control_c, 0, 64, 38
1, 716826, Control_c, 1, 64, 38
1, 716830, Note_off_c, 0, 76, 63
1, 716844, Control_c, 0, 64, 84
1, 716844, Control_c, 1, 64, 84
1, 716863, Control_c, 1, 64, 127
1, 716863, Control_c, 0, 64, 127
1, 716870, Poly_aftertouch_c, 0, 65, 0
1, 716873, Note_off_c, 0, 56, 47
1, 716881, Note_on_c, 0, 51, 72
1, 716884, Note_on_c, 0, 54, 80
1, 716894, Note_off_c, 0, 52, 57
1, 716894, Poly_aftertouch_c, 0, 52, 0
1, 716951, Note_on_c, 0, 64, 87
1, 716982, Note_on_c, 0, 52, 68
1, 716984, Note_off_c, 0, 54, 62
1, 716990, Note_on_c, 0, 49, 73
1, 716994, Note_off_c, 0, 51, 63
1, 717005, Note_off_c, 0, 64, 64
1, 717070, Control_c, 0, 64, 76
1, 717070, Control_c, 1, 64, 76
1, 717088, Control_c, 1, 64, 30
1, 717088, Control_c, 0, 64, 30
1, 717097, Note_off_c, 0, 52, 59
1, 717097, Poly_aftertouch_c, 0, 52, 0
1, 717105, Control_c, 0, 64, 0
1, 717105, Control_c, 1, 64, 0
1, 717136, Note_on_c, 0, 56, 82
1, 717142, Note_on_c, 0, 88, 96
1, 717143, Control_c, 0, 64, 20
1, 717143, Control_c, 1, 64, 20
1, 717147, Note_on_c, 0, 76, 102
1, 717163, Control_c, 0, 64, 61
1, 717163, Control_c, 1, 64, 61
1, 717171, Note_off_c, 0, 49, 62
1, 717180, Control_c, 0, 64, 127
1, 717180, Control_c, 1, 64, 127
1, 717182, Note_on_c, 0, 52, 46
1, 717187, Note_off_c, 0, 76, 64
1, 717188, Note_off_c, 0, 88, 66
1, 717218, Note_off_c, 0, 56, 58
1, 717308, Note_on_c, 0, 51, 79
1, 717329, Note_on_c, 0, 54, 82
1, 717335, Note_off_c, 0, 52, 58
1, 717335, Poly_aftertouch_c, 0, 52, 0
1, 717347, Note_on_c, 0, 49, 74
1, 717347, Note_on_c, 0, 76, 93
1, 717347, Note_on_c, 0, 64, 90
1, 717375, Note_off_c, 0, 64, 69
1, 717387, Control_c, 0, 64, 73
1, 717387, Control_c, 1, 64, 73
1, 717403, Note_off_c, 0, 76, 66
1, 717405, Control_c, 0, 64, 22
1, 717405, Control_c, 1, 64, 22
1, 717416, Note_off_c, 0, 54, 62
1, 717419, Note_on_c, 0, 52, 70
1, 717425, Control_c, 0, 64, 0
1, 717425, Control_c, 1, 64, 0
1, 717426, Note_off_c, 0, 51, 59
1, 717462, Control_c, 0, 64, 43
1, 717462, Control_c, 1, 64, 43
1, 717480, Control_c, 1, 64, 118
1, 717480, Control_c, 0, 64, 118
1, 717499, Control_c, 0, 64, 127
1, 717499, Control_c, 1, 64, 127
1, 717525, Note_on_c, 0, 47, 79
1, 717540, Note_on_c, 0, 51, 81
1, 717546, Note_on_c, 0, 90, 106
1, 717548, Note_on_c, 0, 78, 103
1, 717555, Control_c, 0, 64, 104
1, 717555, Control_c, 1, 64, 104
1, 717559, Note_off_c, 0, 49, 61
1, 717560, Note_off_c, 0, 52, 60
1, 717560, Poly_aftertouch_c, 0, 52, 0
1, 717575, Control_c, 0, 64, 52
1, 717575, Control_c, 1, 64, 52
1, 717579, Note_on_c, 0, 85, 52
1, 717592, Note_off_c, 0, 78, 65
1, 717592, Control_c, 0, 64, 0
1, 717592, Control_c, 1, 64, 0
1, 717593, Note_off_c, 0, 90, 68
1, 717607, Note_off_c, 0, 85, 40
1, 717624, Note_off_c, 0, 51, 64
1, 717629, Control_c, 0, 64, 34
1, 717629, Control_c, 1, 64, 34
1, 717635, Note_on_c, 0, 54, 84
1, 717648, Control_c, 0, 64, 84
1, 717648, Control_c, 1, 64, 84
1, 717667, Note_off_c, 0, 47, 63
1, 717667, Control_c, 0, 64, 127
1, 717667, Control_c, 1, 64, 127
1, 717745, Note_on_c, 0, 78, 95
1, 717749, Note_on_c, 0, 66, 95
1, 717750, Note_on_c, 0, 51, 82
1, 717767, Note_on_c, 0, 47, 72
1, 717785, Note_off_c, 0, 66, 62
1, 717789, Note_off_c, 0, 54, 61
1, 717814, Note_off_c, 0, 78, 66
1, 717892, Control_c, 0, 64, 84
1, 717892, Control_c, 1, 64, 84
1, 717904, Note_on_c, 0, 49, 81
1, 717910, Control_c, 0, 64, 33
1, 717910, Control_c, 1, 64, 33
1, 717915, Note_on_c, 0, 45, 81
1, 717926, Note_off_c, 0, 47, 58
1, 717928, Control_c, 0, 64, 0
1, 717928, Control_c, 1, 64, 0
1, 717940, Note_off_c, 0, 51, 54
1, 717951, Note_on_c, 0, 91, 103
1, 717955, Note_on_c, 0, 79, 101
1, 717985, Control_c, 0, 64, 31
1, 717985, Control_c, 1, 64, 31
1, 717995, Note_off_c, 0, 79, 66
1, 717996, Note_off_c, 0, 91, 64
1, 718001, Note_on_c, 0, 90, 31
1, 718002, Note_off_c, 0, 90, 127
1, 718003, Control_c, 0, 64, 87
1, 718003, Control_c, 1, 64, 87
1, 718024, Control_c, 1, 64, 127
1, 718024, Control_c, 0, 64, 127
1, 718038, Note_off_c, 0, 49, 63
1, 718059, Note_on_c, 0, 52, 81
1, 718063, Note_off_c, 0, 45, 63
1, 718169, Note_on_c, 0, 79, 94
1, 718170, Note_on_c, 0, 45, 78
1, 718175, Note_on_c, 0, 49, 82
1, 718175, Note_on_c, 0, 67, 97
1, 718211, Note_off_c, 0, 67, 63
1, 718211, Note_on_c, 0, 77, 39
1, 718212, Note_off_c, 0, 77, 127
1, 718215, Note_off_c, 0, 52, 54
1, 718215, Poly_aftertouch_c, 0, 52, 0
1, 718228, Note_on_c, 0, 78, 28
1, 718229, Note_off_c, 0, 79, 63
1, 718248, Poly_aftertouch_c, 0, 77, 0
1, 718281, Note_off_c, 0, 78, 54
1, 718362, Note_on_c, 0, 44, 89
1, 718365, Note_off_c, 0, 45, 58
1, 718371, Note_on_c, 0, 48, 82
1, 718379, Control_c, 0, 64, 121
1, 718379, Control_c, 1, 64, 121
1, 718380, Note_off_c, 0, 49, 60
1, 718398, Control_c, 0, 64, 57
1, 718398, Control_c, 1, 64, 57
1, 718416, Control_c, 1, 64, 0
1, 718416, Control_c, 0, 64, 0
1, 718419, Note_on_c, 0, 80, 99
1, 718423, Note_on_c, 0, 92, 105
1, 718534, Note_on_c, 0, 51, 90
1, 718548, Control_c, 0, 64, 15
1, 718548, Control_c, 1, 64, 15
1, 718557, Note_off_c, 0, 48, 60
1, 718565, Control_c, 0, 64, 40
1, 718565, Control_c, 1, 64, 40
1, 718585, Control_c, 1, 64, 70
1, 718585, Control_c, 0, 64, 70
1, 718601, Note_off_c, 0, 51, 65
1, 718603, Control_c, 0, 64, 104
1, 718603, Control_c, 1, 64, 104
1, 718622, Control_c, 1, 64, 127
1, 718622, Control_c, 0, 64, 127
1, 718629, Note_off_c, 0, 44, 64
1, 718760, Note_on_c, 0, 44, 95
1, 718764, Note_on_c, 0, 32, 89
1, 718810, Control_c, 0, 64, 82
1, 718810, Control_c, 1, 64, 82
1, 718828, Control_c, 1, 64, 46
1, 718828, Control_c, 0, 64, 46
1, 718865, Control_c, 0, 64, 0
1, 718865, Control_c, 1, 64, 0
1, 719053, Control_c, 1, 64, 50
1, 719053, Control_c, 0, 64, 50
1, 719071, Control_c, 0, 64, 127
1, 719071, Control_c, 1, 64, 127
1, 719090, Note_off_c, 0, 32, 63
1, 719121, Note_off_c, 0, 92, 64
1, 719127, Note_off_c, 0, 44, 63
1, 719166, Poly_aftertouch_c, 0, 90, 127
1, 719185, Note_off_c, 0, 80, 63
1, 719194, Poly_aftertouch_c, 0, 90, 0
1, 719615, Control_c, 0, 64, 62
1, 719615, Control_c, 1, 64, 62
1, 719634, Control_c, 1, 64, 0
1, 719634, Control_c, 0, 64, 0
1, 719637, Note_on_c, 0, 64, 83
1, 719640, Note_on_c, 0, 68, 78
1, 719689, Control_c, 0, 64, 16
1, 719689, Control_c, 1, 64, 16
1, 719709, Control_c, 1, 64, 58
1, 719709, Control_c, 0, 64, 58
1, 719727, Control_c, 0, 64, 127
1, 719727, Control_c, 1, 64, 127
1, 719768, Note_off_c, 0, 64, 52
1, 719783, Note_on_c, 0, 66, 76
1, 719785, Note_on_c, 0, 69, 79
1, 719847, Note_on_c, 0, 52, 77
1, 719871, Note_off_c, 0, 66, 62
1, 719876, Note_on_c, 0, 71, 73
1, 719877, Note_off_c, 0, 68, 64
1, 719877, Note_on_c, 0, 68, 51
1, 719886, Note_off_c, 0, 69, 58
1, 719886, Poly_aftertouch_c, 0, 69, 0
1, 719914, Note_off_c, 0, 52, 61
1, 719914, Poly_aftertouch_c, 0, 52, 0
1, 719922, Note_off_c, 0, 68, 64
1, 719947, Note_off_c, 0, 71, 64
1, 719988, Control_c, 0, 64, 74
1, 719988, Control_c, 1, 64, 74
1, 720007, Control_c, 1, 64, 26
1, 720007, Control_c, 0, 64, 26
1, 720017, Note_on_c, 0, 72, 87
1, 720017, Note_on_c, 0, 60, 83
1, 720025, Note_on_c, 0, 69, 73
1, 720026, Control_c, 0, 64, 0
1, 720026, Control_c, 1, 64, 0
1, 720052, Note_off_c, 0, 69, 67
1, 720052, Poly_aftertouch_c, 0, 69, 0
1, 720064, Control_c, 0, 64, 9
1, 720064, Control_c, 1, 64, 9
1, 720083, Control_c, 1, 64, 45
1, 720083, Control_c, 0, 64, 45
1, 720088, Note_off_c, 0, 60, 62
1, 720101, Control_c, 0, 64, 101
1, 720101, Control_c, 1, 64, 101
1, 720120, Control_c, 1, 64, 127
1, 720120, Control_c, 0, 64, 127
1, 720135, Note_on_c, 0, 74, 85
1, 720150, Note_off_c, 0, 72, 60
1, 720151, Poly_aftertouch_c, 0, 72, 0
1, 720164, Note_on_c, 0, 48, 75
1, 720170, Note_on_c, 0, 71, 54
1, 720223, Note_off_c, 0, 48, 62
1, 720241, Note_off_c, 0, 71, 46
1, 720251, Note_on_c, 0, 76, 80
1, 720268, Note_on_c, 0, 72, 78
1, 720287, Note_off_c, 0, 74, 57
1, 720288, Control_c, 0, 64, 75
1, 720288, Control_c, 1, 64, 75
1, 720325, Control_c, 1, 64, 0
1, 720325, Control_c, 0, 64, 0
1, 720336, Note_on_c, 0, 56, 93
1, 720350, Note_on_c, 0, 77, 86
1, 720351, Note_off_c, 0, 72, 51
1, 720372, Note_off_c, 0, 76, 61
1, 720383, Control_c, 0, 64, 51
1, 720383, Control_c, 1, 64, 51
1, 720391, Note_off_c, 0, 56, 64
1, 720399, Control_c, 0, 64, 127
1, 720399, Control_c, 1, 64, 127
1, 720429, Note_on_c, 0, 74, 64
1, 720484, Note_on_c, 0, 76, 77
1, 720494, Note_on_c, 0, 72, 76
1, 720508, Note_on_c, 0, 44, 82
1, 720515, Note_off_c, 0, 74, 57
1, 720516, Note_off_c, 0, 77, 45
1, 720564, Note_off_c, 0, 72, 60
1, 720568, Note_off_c, 0, 44, 62
1, 720606, Poly_aftertouch_c, 0, 46, 127
1, 720617, Note_on_c, 0, 74, 76
1, 720642, Note_off_c, 0, 76, 61
1, 720659, Poly_aftertouch_c, 0, 46, 0
1, 720661, Poly_aftertouch_c, 0, 71, 0
1, 720682, Control_c, 0, 64, 68
1, 720682, Control_c, 1, 64, 68
1, 720700, Control_c, 1, 64, 16
1, 720700, Note_on_c, 0, 72, 83
1, 720700, Control_c, 0, 64, 16
1, 720701, Note_on_c, 0, 57, 90
1, 720706, Note_on_c, 0, 69, 73
1, 720714, Note_off_c, 0, 74, 62
1, 720718, Control_c, 0, 64, 0
1, 720718, Control_c, 1, 64, 0
1, 720734, Note_off_c, 0, 69, 66
1, 720734, Poly_aftertouch_c, 0, 69, 0
1, 720756, Control_c, 0, 64, 10
1, 720756, Control_c, 1, 64, 10
1, 720764, Note_on_c, 0, 49, 24
1, 720766, Note_off_c, 0, 57, 64
1, 720774, Control_c, 0, 64, 47
1, 720774, Control_c, 1, 64, 47
1, 720793, Control_c, 1, 64, 110
1, 720793, Control_c, 0, 64, 110
1, 720813, Control_c, 0, 64, 127
1, 720813, Control_c, 1, 64, 127
1, 720821, Note_on_c, 0, 74, 88
1, 720822, Note_off_c, 0, 49, 31
1, 720829, Note_off_c, 0, 72, 58
1, 720835, Note_on_c, 0, 71, 70
1, 720843, Note_on_c, 0, 45, 81
1, 720883, Note_off_c, 0, 71, 57
1, 720908, Note_off_c, 0, 45, 62
1, 720929, Note_on_c, 0, 76, 77
1, 720941, Note_off_c, 0, 74, 60
1, 720946, Note_on_c, 0, 72, 57
1, 720970, Note_off_c, 0, 72, 60
1, 720989, Note_off_c, 0, 76, 64
1, 720999, Control_c, 0, 64, 68
1, 720999, Control_c, 1, 64, 68
1, 721017, Control_c, 1, 64, 20
1, 721017, Control_c, 0, 64, 20
1, 721022, Note_on_c, 0, 54, 93
1, 721037, Control_c, 0, 64, 0
1, 721037, Control_c, 1, 64, 0
1, 721055, Note_on_c, 0, 74, 76
1, 721062, Note_on_c, 0, 78, 80
1, 721074, Control_c, 0, 64, 18
1, 721074, Control_c, 1, 64, 18
1, 721081, Note_off_c, 0, 54, 64
1, 721089, Note_off_c, 0, 74, 60
1, 721092, Control_c, 0, 64, 58
1, 721092, Control_c, 1, 64, 58
1, 721112, Control_c, 1, 64, 127
1, 721112, Control_c, 0, 64, 127
1, 721171, Note_on_c, 0, 80, 86
1, 721178, Note_off_c, 0, 78, 63
1, 721191, Note_on_c, 0, 42, 80
1, 721195, Note_on_c, 0, 76, 62
1, 721261, Note_on_c, 0, 81, 73
1, 721266, Note_off_c, 0, 42, 62
1, 721276, Note_on_c, 0, 78, 78
1, 721279, Note_off_c, 0, 76, 60
1, 721336, Poly_aftertouch_c, 0, 44, 0
1, 721356, Control_c, 0, 64, 88
1, 721356, Control_c, 1, 64, 88
1, 721371, Note_off_c, 0, 78, 63
1, 721374, Control_c, 0, 64, 41
1, 721374, Control_c, 1, 64, 41
1, 721387, Note_on_c, 0, 83, 80
1, 721391, Note_on_c, 0, 52, 99
1, 721392, Control_c, 0, 64, 0
1, 721392, Control_c, 1, 64, 0
1, 721405, Note_off_c, 0, 81, 63
1, 721409, Note_off_c, 0, 80, 57
1, 721432, Note_off_c, 0, 83, 63
1, 721449, Control_c, 0, 64, 22
1, 721449, Control_c, 1, 64, 22
1, 721450, Note_off_c, 0, 52, 65
1, 721450, Poly_aftertouch_c, 0, 52, 0
1, 721467, Control_c, 0, 64, 63
1, 721467, Control_c, 1, 64, 63
1, 721486, Control_c, 1, 64, 127
1, 721486, Control_c, 0, 64, 127
1, 721497, Note_on_c, 0, 84, 90
1, 721516, Note_on_c, 0, 81, 73
1, 721542, Note_off_c, 0, 81, 69
1, 721557, Note_on_c, 0, 40, 78
1, 721621, Note_on_c, 0, 86, 85
1, 721621, Note_on_c, 0, 83, 86
1, 721623, Note_off_c, 0, 40, 63
1, 721651, Note_off_c, 0, 84, 61
1, 721711, Control_c, 0, 64, 86
1, 721711, Control_c, 1, 64, 86
1, 721729, Control_c, 1, 64, 28
1, 721729, Control_c, 0, 64, 28
1, 721735, Note_on_c, 0, 88, 93
1, 721743, Note_on_c, 0, 45, 99
1, 721744, Note_on_c, 0, 84, 88
1, 721748, Control_c, 0, 64, 0
1, 721748, Control_c, 1, 64, 0
1, 721753, Note_off_c, 0, 83, 42
1, 721763, Note_off_c, 0, 86, 63
1, 721798, Note_off_c, 0, 45, 65
1, 721803, Note_off_c, 0, 84, 63
1, 721805, Control_c, 0, 64, 20
1, 721805, Control_c, 1, 64, 20
1, 721824, Control_c, 1, 64, 67
1, 721824, Control_c, 0, 64, 67
1, 721842, Control_c, 0, 64, 127
1, 721842, Control_c, 1, 64, 127
1, 721861, Note_on_c, 0, 83, 93
1, 721867, Note_on_c, 0, 86, 85
1, 721905, Note_off_c, 0, 88, 60
1, 721917, Note_on_c, 0, 33, 81
1, 721953, Note_off_c, 0, 83, 64
1, 721956, Note_off_c, 0, 33, 67
1, 721960, Note_on_c, 0, 84, 76
1, 721963, Note_on_c, 0, 81, 79
1, 722002, Note_off_c, 0, 86, 64
1, 722015, Note_off_c, 0, 84, 62
1, 722023, Note_off_c, 0, 81, 62
1, 722066, Control_c, 0, 64, 69
1, 722066, Control_c, 1, 64, 69
1, 722088, Note_on_c, 0, 52, 92
1, 722098, Note_on_c, 0, 80, 82
1, 722104, Control_c, 0, 64, 0
1, 722104, Control_c, 1, 64, 0
1, 722105, Note_on_c, 0, 83, 80
1, 722152, Note_off_c, 0, 52, 64
1, 722152, Poly_aftertouch_c, 0, 52, 0
1, 722160, Control_c, 0, 64, 28
1, 722160, Control_c, 1, 64, 28
1, 722180, Control_c, 1, 64, 70
1, 722180, Control_c, 0, 64, 70
1, 722197, Control_c, 0, 64, 127
1, 722197, Control_c, 1, 64, 127
1, 722203, Note_on_c, 0, 81, 74
1, 722213, Note_on_c, 0, 78, 84
1, 722235, Note_on_c, 0, 40, 74
1, 722236, Note_off_c, 0, 80, 61
1, 722295, Note_on_c, 0, 76, 79
1, 722306, Note_on_c, 0, 80, 73
1, 722314, Note_off_c, 0, 40, 60
1, 722320, Note_off_c, 0, 78, 64
1, 722346, Note_off_c, 0, 81, 62
1, 722351, Note_off_c, 0, 76, 62
1, 722366, Note_off_c, 0, 80, 65
1, 722387, Note_off_c, 0, 83, 35
1, 722404, Control_c, 0, 64, 96
1, 722404, Control_c, 1, 64, 96
1, 722422, Control_c, 1, 64, 44
1, 722422, Control_c, 0, 64, 44
1, 722431, Note_on_c, 0, 44, 101
1, 722440, Note_on_c, 0, 86, 96
1, 722441, Control_c, 0, 64, 0
1, 722441, Control_c, 1, 64, 0
1, 722449, Note_on_c, 0, 83, 86
1, 722486, Note_off_c, 0, 44, 63
1, 722502, Note_off_c, 0, 83, 56
1, 722516, Control_c, 0, 64, 42
1, 722516, Control_c, 1, 64, 42
1, 722534, Control_c, 1, 64, 90
1, 722534, Control_c, 0, 64, 90
1, 722538, Note_off_c, 0, 86, 64
1, 722538, Note_on_c, 0, 86, 14
1, 722553, Control_c, 0, 64, 127
1, 722553, Control_c, 1, 64, 127
1, 722562, Note_on_c, 0, 84, 87
1, 722570, Note_on_c, 0, 81, 80
1, 722587, Note_off_c, 0, 86, 62
1, 722589, Note_on_c, 0, 32, 88
1, 722603, Poly_aftertouch_c, 0, 83, 0
1, 722611, Note_off_c, 0, 84, 66
1, 722627, Note_off_c, 0, 81, 63
1, 722649, Note_off_c, 0, 32, 64
1, 722693, Note_on_c, 0, 80, 87
1, 722693, Note_on_c, 0, 83, 83
1, 722777, Control_c, 0, 64, 80
1, 722777, Control_c, 1, 64, 80
1, 722786, Note_on_c, 0, 81, 77
1, 722793, Note_on_c, 0, 52, 89
1, 722796, Control_c, 0, 64, 30
1, 722796, Control_c, 1, 64, 30
1, 722799, Note_on_c, 0, 78, 83
1, 722814, Control_c, 0, 64, 0
1, 722814, Control_c, 1, 64, 0
1, 722826, Note_off_c, 0, 80, 63
1, 722839, Note_off_c, 0, 83, 52
1, 722857, Note_off_c, 0, 52, 63
1, 722857, Poly_aftertouch_c, 0, 52, 0
1, 722868, Note_on_c, 0, 76, 61
1, 722869, Control_c, 0, 64, 13
1, 722869, Control_c, 1, 64, 13
1, 722881, Note_off_c, 0, 78, 64
1, 722888, Control_c, 0, 64, 48
1, 722888, Control_c, 1, 64, 48
1, 722906, Note_off_c, 0, 76, 66
1, 722908, Control_c, 0, 64, 93
1, 722908, Control_c, 1, 64, 93
1, 722918, Note_on_c, 0, 80, 73
1, 722927, Control_c, 0, 64, 127
1, 722927, Control_c, 1, 64, 127
1, 722931, Note_on_c, 0, 40, 80
1, 722957, Note_off_c, 0, 81, 60
1, 722986, Note_on_c, 0, 78, 89
1, 723001, Note_off_c, 0, 40, 62
1, 723017, Note_off_c, 0, 80, 64
1, 723017, Note_on_c, 0, 75, 65
1, 723046, Note_off_c, 0, 78, 65
1, 723050, Note_off_c, 0, 75, 66
1, 723117, Control_c, 0, 64, 85
1, 723117, Control_c, 1, 64, 85
1, 723133, Control_c, 1, 64, 35
1, 723133, Control_c, 0, 64, 35
1, 723137, Note_on_c, 0, 42, 104
1, 723146, Note_on_c, 0, 84, 90
1, 723152, Control_c, 0, 64, 0
1, 723152, Control_c, 1, 64, 0
1, 723157, Note_on_c, 0, 81, 78
1, 723193, Note_off_c, 0, 42, 63
1, 723203, Note_off_c, 0, 81, 53
1, 723207, Control_c, 0, 64, 15
1, 723207, Control_c, 1, 64, 15
1, 723226, Control_c, 1, 64, 55
1, 723226, Control_c, 0, 64, 55
1, 723246, Control_c, 0, 64, 127
1, 723246, Control_c, 1, 64, 127
1, 723258, Note_on_c, 0, 83, 83
1, 723267, Note_on_c, 0, 80, 86
1, 723270, Note_off_c, 0, 84, 57
1, 723307, Note_on_c, 0, 30, 90
1, 723369, Note_off_c, 0, 30, 65
1, 723372, Note_off_c, 0, 80, 60
1, 723376, Note_on_c, 0, 81, 65
1, 723408, Note_on_c, 0, 78, 86
1, 723416, Note_off_c, 0, 83, 59
1, 723450, Note_off_c, 0, 81, 62
1, 723468, Note_off_c, 0, 78, 63
1, 723508, Control_c, 0, 64, 60
1, 723508, Control_c, 1, 64, 60
1, 723520, Note_on_c, 0, 52, 94
1, 723527, Control_c, 0, 64, 0
1, 723527, Control_c, 1, 64, 0
1, 723535, Note_on_c, 0, 80, 81
1, 723542, Note_on_c, 0, 76, 80
1, 723572, Note_on_c, 0, 44, 46
1, 723588, Note_off_c, 0, 52, 63
1, 723588, Poly_aftertouch_c, 0, 52, 0
1, 723601, Control_c, 0, 64, 38
1, 723601, Control_c, 1, 64, 38
1, 723617, Note_off_c, 0, 44, 35
1, 723621, Control_c, 0, 64, 83
1, 723621, Control_c, 1, 64, 83
1, 723630, Poly_aftertouch_c, 0, 46, 0
1, 723638, Control_c, 0, 64, 127
1, 723638, Control_c, 1, 64, 127
1, 723642, Note_on_c, 0, 78, 82
1, 723653, Note_off_c, 0, 76, 60
1, 723676, Note_on_c, 0, 40, 76
1, 723676, Note_on_c, 0, 75, 69
1, 723732, Note_off_c, 0, 75, 55
1, 723753, Note_on_c, 0, 76, 80
1, 723761, Note_off_c, 0, 80, 34
1, 723763, Note_off_c, 0, 40, 60
1, 723771, Note_off_c, 0, 78, 64
1, 723820, Note_off_c, 0, 76, 63
1, 723883, Control_c, 0, 64, 97
1, 723883, Control_c, 1, 64, 97
1, 723901, Control_c, 1, 64, 45
1, 723901, Control_c, 0, 64, 45
1, 723914, Note_on_c, 0, 52, 88
1, 723918, Control_c, 0, 64, 0
1, 723918, Control_c, 1, 64, 0
1, 723920, Note_on_c, 0, 40, 88
1, 723922, Note_on_c, 0, 88, 90
1, 723937, Note_on_c, 0, 80, 89
1, 723964, Note_off_c, 0, 52, 61
1, 723964, Poly_aftertouch_c, 0, 52, 0
1, 723976, Control_c, 0, 64, 29
1, 723976, Control_c, 1, 64, 29
1, 723984, Note_off_c, 0, 40, 62
1, 723994, Control_c, 0, 64, 78
1, 723994, Control_c, 1, 64, 78
1, 724013, Control_c, 1, 64, 127
1, 724013, Control_c, 0, 64, 127
1, 724040, Note_off_c, 0, 88, 42
1, 724051, Note_on_c, 0, 87, 87
1, 724057, Note_on_c, 0, 78, 90
1, 724065, Note_off_c, 0, 80, 31
1, 724111, Note_on_c, 0, 28, 91
1, 724111, Note_on_c, 0, 40, 87
1, 724132, Note_off_c, 0, 87, 65
1, 724135, Note_off_c, 0, 40, 73
1, 724137, Note_off_c, 0, 78, 64
1, 724146, Note_off_c, 0, 28, 68
1, 724192, Note_on_c, 0, 85, 91
1, 724199, Control_c, 0, 64, 69
1, 724199, Control_c, 1, 64, 69
1, 724214, Note_on_c, 0, 76, 77
1, 724218, Control_c, 0, 64, 0
1, 724218, Control_c, 1, 64, 0
1, 724274, Control_c, 1, 64, 20
1, 724274, Control_c, 0, 64, 20
1, 724293, Control_c, 0, 64, 76
1, 724293, Control_c, 1, 64, 76
1, 724296, Note_on_c, 0, 54, 97
1, 724298, Note_on_c, 0, 42, 88
1, 724306, Note_off_c, 0, 76, 34
1, 724313, Control_c, 0, 64, 127
1, 724313, Control_c, 1, 64, 127
1, 724317, Note_on_c, 0, 75, 79
1, 724319, Note_on_c, 0, 83, 85
1, 724346, Note_off_c, 0, 54, 62
1, 724363, Note_off_c, 0, 85, 65
1, 724370, Note_off_c, 0, 42, 63
1, 724439, Note_on_c, 0, 76, 92
1, 724445, Control_c, 0, 64, 70
1, 724445, Control_c, 1, 64, 70
1, 724449, Note_on_c, 0, 85, 80
1, 724460, Poly_aftertouch_c, 0, 82, 127
1, 724462, Control_c, 0, 64, 0
1, 724462, Control_c, 1, 64, 0
1, 724464, Note_off_c, 0, 83, 58
1, 724473, Poly_aftertouch_c, 0, 82, 0
1, 724478, Note_on_c, 0, 30, 90
1, 724478, Note_on_c, 0, 42, 98
1, 724496, Note_off_c, 0, 75, 26
1, 724511, Note_off_c, 0, 42, 68
1, 724518, Control_c, 0, 64, 47
1, 724518, Control_c, 1, 64, 47
1, 724523, Note_on_c, 0, 29, 42
1, 724537, Control_c, 0, 64, 127
1, 724537, Control_c, 1, 64, 127
1, 724539, Note_off_c, 0, 30, 62
1, 724546, Note_off_c, 0, 76, 58
1, 724556, Note_on_c, 0, 75, 93
1, 724562, Note_on_c, 0, 83, 72
1, 724576, Note_off_c, 0, 29, 34
1, 724582, Note_off_c, 0, 85, 63
1, 724607, Note_off_c, 0, 83, 61
1, 724638, Note_off_c, 0, 75, 66
1, 724668, Control_c, 0, 64, 63
1, 724668, Control_c, 1, 64, 63
1, 724682, Note_on_c, 0, 55, 87
1, 724687, Note_on_c, 0, 81, 91
1, 724687, Control_c, 0, 64, 0
1, 724687, Control_c, 1, 64, 0
1, 724699, Note_on_c, 0, 43, 56
1, 724710, Note_on_c, 0, 73, 81
1, 724725, Control_c, 0, 64, 27
1, 724725, Control_c, 1, 64, 27
1, 724739, Note_off_c, 0, 55, 62
1, 724742, Control_c, 0, 64, 88
1, 724742, Control_c, 1, 64, 88
1, 724754, Note_off_c, 0, 43, 63
1, 724761, Control_c, 0, 64, 127
1, 724761, Control_c, 1, 64, 127
1, 724822, Note_on_c, 0, 72, 86
1, 724822, Note_on_c, 0, 80, 87
1, 724830, Note_off_c, 0, 73, 64
1, 724836, Control_c, 0, 64, 76
1, 724836, Control_c, 1, 64, 76
1, 724855, Control_c, 1, 64, 32
1, 724855, Control_c, 0, 64, 32
1, 724858, Note_off_c, 0, 81, 61
1, 724875, Note_on_c, 0, 43, 90
1, 724875, Control_c, 0, 64, 15
1, 724875, Control_c, 1, 64, 15
1, 724881, Note_on_c, 0, 31, 89
1, 724894, Control_c, 0, 64, 35
1, 724894, Control_c, 1, 64, 35
1, 724907, Note_off_c, 0, 43, 66
1, 724911, Control_c, 0, 64, 81
1, 724911, Control_c, 1, 64, 81
1, 724917, Note_off_c, 0, 31, 70
1, 724931, Control_c, 0, 64, 127
1, 724931, Control_c, 1, 64, 127
1, 724946, Note_on_c, 0, 81, 82
1, 724956, Note_on_c, 0, 73, 93
1, 724990, Note_off_c, 0, 72, 55
1, 725000, Note_off_c, 0, 80, 64
1, 725000, Poly_aftertouch_c, 0, 33, 127
1, 725017, Poly_aftertouch_c, 0, 33, 0
1, 725018, Poly_aftertouch_c, 0, 34, 0
1, 725113, Note_on_c, 0, 80, 93
1, 725116, Note_on_c, 0, 72, 90
1, 725124, Note_on_c, 0, 56, 90
1, 725126, Note_on_c, 0, 44, 91
1, 725130, Note_off_c, 0, 73, 63
1, 725152, Note_on_c, 0, 58, 60
1, 725153, Control_c, 0, 64, 58
1, 725153, Control_c, 1, 64, 58
1, 725174, Control_c, 1, 64, 0
1, 725174, Control_c, 0, 64, 0
1, 725186, Note_off_c, 0, 58, 61
1, 725209, Note_off_c, 0, 81, 59
1, 725264, Poly_aftertouch_c, 0, 46, 0
1, 725274, Note_on_c, 0, 75, 89
1, 725312, Note_off_c, 0, 72, 59
1, 725448, Note_on_c, 0, 68, 92
1, 725487, Note_on_c, 0, 70, 37
1, 725532, Note_off_c, 0, 70, 34
1, 725567, Control_c, 0, 64, 48
1, 725567, Control_c, 1, 64, 48
1, 725586, Control_c, 1, 64, 127
1, 725586, Control_c, 0, 64, 127
1, 725700, Note_off_c, 0, 68, 63
1, 725723, Note_off_c, 0, 75, 64
1, 725727, Note_off_c, 0, 56, 59
1, 725735, Note_off_c, 0, 44, 58
1, 725763, Note_off_c, 0, 80, 65
1, 725998, Control_c, 0, 64, 108
1, 725998, Control_c, 1, 64, 108
1, 726016, Control_c, 1, 64, 53
1, 726016, Control_c, 0, 64, 53
1, 726035, Control_c, 0, 64, 0
1, 726035, Control_c, 1, 64, 0
1, 726057, Note_on_c, 0, 49, 52
1, 726065, Note_on_c, 0, 45, 43
1, 726076, Note_on_c, 0, 93, 86
1, 726091, Control_c, 0, 64, 35
1, 726091, Control_c, 1, 64, 35
1, 726111, Control_c, 1, 64, 86
1, 726111, Control_c, 0, 64, 86
1, 726121, Note_off_c, 0, 49, 59
1, 726130, Control_c, 0, 64, 127
1, 726130, Control_c, 1, 64, 127
1, 726158, Note_off_c, 0, 45, 59
1, 726160, Note_off_c, 0, 93, 63
1, 726169, Note_on_c, 0, 50, 62
1, 726174, Note_on_c, 0, 47, 59
1, 726254, Note_on_c, 0, 81, 72
1, 726260, Note_off_c, 0, 50, 62
1, 726269, Note_on_c, 0, 49, 62
1, 726271, Note_off_c, 0, 47, 62
1, 726281, Note_off_c, 0, 81, 67
1, 726290, Note_on_c, 0, 52, 72
1, 726319, Note_off_c, 0, 49, 64
1, 726336, Control_c, 0, 64, 62
1, 726336, Control_c, 1, 64, 62
1, 726353, Control_c, 1, 64, 10
1, 726353, Control_c, 0, 64, 10
1, 726366, Note_off_c, 0, 52, 55
1, 726366, Poly_aftertouch_c, 0, 52, 0
1, 726371, Control_c, 0, 64, 0
1, 726371, Control_c, 1, 64, 0
1, 726402, Note_on_c, 0, 50, 80
1, 726409, Note_on_c, 0, 53, 79
1, 726413, Note_on_c, 0, 89, 84
1, 726428, Control_c, 0, 64, 30
1, 726428, Control_c, 1, 64, 30
1, 726447, Control_c, 1, 64, 72
1, 726447, Control_c, 0, 64, 72
1, 726449, Control_c, 0, 67, 8
1, 726449, Control_c, 1, 67, 8
1, 726467, Control_c, 1, 64, 127
1, 726467, Control_c, 0, 64, 127
1, 726477, Note_on_c, 0, 87, 10
1, 726478, Note_off_c, 0, 87, 127
1, 726491, Note_off_c, 0, 89, 63
1, 726515, Note_on_c, 0, 52, 80
1, 726524, Note_on_c, 0, 55, 71
1, 726528, Note_off_c, 0, 50, 57
1, 726528, Note_off_c, 0, 53, 60
1, 726529, Poly_aftertouch_c, 0, 53, 0
1, 726540, Control_c, 0, 67, 12
1, 726540, Control_c, 1, 67, 12
1, 726565, Note_on_c, 0, 77, 79
1, 726600, Note_off_c, 0, 77, 61
1, 726613, Note_on_c, 0, 57, 60
1, 726613, Control_c, 0, 64, 75
1, 726613, Control_c, 1, 64, 75
1, 726623, Note_on_c, 0, 53, 81
1, 726624, Note_off_c, 0, 52, 60
1, 726624, Poly_aftertouch_c, 0, 52, 0
1, 726625, Note_off_c, 0, 55, 63
1, 726633, Control_c, 0, 64, 28
1, 726633, Control_c, 1, 64, 28
1, 726652, Control_c, 1, 64, 0
1, 726652, Control_c, 0, 64, 0
1, 726669, Note_off_c, 0, 57, 60
1, 726709, Control_c, 0, 64, 21
1, 726709, Control_c, 1, 64, 21
1, 726710, Control_c, 1, 67, 16
1, 726710, Control_c, 0, 67, 16
1, 726721, Note_off_c, 0, 53, 62
1, 726727, Control_c, 0, 64, 63
1, 726727, Control_c, 1, 64, 63
1, 726747, Control_c, 1, 64, 127
1, 726747, Control_c, 0, 64, 127
1, 726750, Note_on_c, 0, 85, 90
1, 726750, Control_c, 0, 67, 20
1, 726750, Control_c, 1, 67, 20
1, 726760, Note_on_c, 0, 55, 70
1, 726773, Note_on_c, 0, 54, 16
1, 726782, Note_on_c, 0, 58, 68
1, 726820, Note_on_c, 0, 86, 13
1, 726826, Note_off_c, 0, 85, 63
1, 726833, Note_off_c, 0, 55, 59
1, 726881, Note_off_c, 0, 58, 64
1, 726885, Note_on_c, 0, 57, 78
1, 726891, Note_off_c, 0, 86, 35
1, 726891, Note_on_c, 0, 53, 68
1, 726896, Note_on_c, 0, 73, 83
1, 726952, Note_off_c, 0, 73, 61
1, 726972, Control_c, 0, 64, 104
1, 726972, Control_c, 1, 64, 104
1, 726974, Note_off_c, 0, 57, 57
1, 726979, Note_off_c, 0, 54, 22
1, 726988, Control_c, 0, 64, 57
1, 726988, Control_c, 1, 64, 57
1, 726991, Note_on_c, 0, 52, 68
1, 726992, Note_off_c, 0, 53, 55
1, 727004, Note_on_c, 0, 55, 71
1, 727026, Control_c, 0, 64, 0
1, 727026, Control_c, 1, 64, 0
1, 727094, Note_on_c, 0, 86, 84
1, 727102, Note_on_c, 0, 50, 73
1, 727102, Control_c, 0, 64, 11
1, 727102, Control_c, 1, 64, 11
1, 727104, Note_off_c, 0, 52, 61
1, 727104, Note_off_c, 0, 55, 61
1, 727104, Poly_aftertouch_c, 0, 52, 0
1, 727114, Note_on_c, 0, 53, 68
1, 727118, Control_c, 0, 64, 41
1, 727118, Control_c, 1, 64, 41
1, 727130, Note_on_c, 0, 85, 35
1, 727139, Control_c, 0, 64, 76
1, 727139, Control_c, 1, 64, 76
1, 727155, Note_off_c, 0, 85, 35
1, 727157, Control_c, 0, 64, 127
1, 727157, Control_c, 1, 64, 127
1, 727160, Note_off_c, 0, 86, 63
1, 727177, Control_c, 0, 67, 25
1, 727177, Control_c, 1, 67, 25
1, 727212, Note_off_c, 0, 50, 61
1, 727213, Note_off_c, 0, 53, 55
1, 727217, Note_on_c, 0, 52, 71
1, 727222, Note_on_c, 0, 55, 70
1, 727247, Note_on_c, 0, 74, 79
1, 727290, Note_off_c, 0, 74, 60
1, 727299, Note_off_c, 0, 52, 61
1, 727299, Poly_aftertouch_c, 0, 52, 0
1, 727303, Note_off_c, 0, 55, 62
1, 727307, Note_on_c, 0, 53, 56
1, 727318, Note_on_c, 0, 57, 69
1, 727326, Control_c, 0, 64, 99
1, 727326, Control_c, 1, 64, 99
1, 727336, Note_off_c, 0, 53, 60
1, 727344, Control_c, 0, 64, 51
1, 727344, Control_c, 1, 64, 51
1, 727363, Control_c, 1, 64, 0
1, 727363, Control_c, 0, 64, 0
1, 727389, Note_off_c, 0, 57, 64
1, 727418, Note_on_c, 0, 83, 86
1, 727418, Control_c, 0, 67, 29
1, 727418, Control_c, 1, 67, 29
1, 727426, Note_on_c, 0, 55, 77
1, 727436, Note_on_c, 0, 59, 69
1, 727437, Control_c, 0, 64, 22
1, 727437, Control_c, 1, 64, 22
1, 727457, Control_c, 1, 64, 61
1, 727457, Control_c, 0, 64, 61
1, 727471, Note_off_c, 0, 59, 63
1, 727476, Control_c, 0, 64, 127
1, 727476, Control_c, 1, 64, 127
1, 727478, Control_c, 1, 67, 33
1, 727478, Control_c, 0, 67, 33
1, 727492, Note_off_c, 0, 83, 64
1, 727538, Note_off_c, 0, 55, 60
1, 727541, Note_on_c, 0, 57, 75
1, 727542, Note_on_c, 0, 61, 74
1, 727568, Note_on_c, 0, 71, 79
1, 727607, Control_c, 0, 67, 37
1, 727607, Control_c, 1, 67, 37
1, 727617, Note_off_c, 0, 71, 60
1, 727640, Note_off_c, 0, 57, 59
1, 727645, Note_on_c, 0, 59, 75
1, 727646, Note_off_c, 0, 61, 59
1, 727663, Note_on_c, 0, 62, 67
1, 727682, Control_c, 0, 64, 99
1, 727682, Control_c, 1, 64, 99
1, 727683, Control_c, 1, 67, 41
1, 727683, Control_c, 0, 67, 41
1, 727701, Control_c, 0, 64, 53
1, 727701, Control_c, 1, 64, 53
1, 727705, Note_off_c, 0, 62, 64
1, 727738, Control_c, 0, 64, 0
1, 727738, Control_c, 1, 64, 0
1, 727755, Note_on_c, 0, 81, 92
1, 727769, Note_off_c, 0, 59, 62
1, 727769, Note_on_c, 0, 61, 69
1, 727774, Control_c, 0, 64, 11
1, 727774, Control_c, 1, 64, 11
1, 727794, Control_c, 1, 64, 44
1, 727794, Control_c, 0, 64, 44
1, 727801, Note_on_c, 0, 64, 80
1, 727810, Note_off_c, 0, 61, 65
1, 727813, Control_c, 0, 64, 88
1, 727813, Control_c, 1, 64, 88
1, 727827, Note_off_c, 0, 81, 62
1, 727830, Control_c, 0, 64, 127
1, 727830, Control_c, 1, 64, 127
1, 727856, Note_off_c, 0, 64, 56
1, 727887, Note_on_c, 0, 69, 79
1, 727912, Note_on_c, 0, 62, 80
1, 727927, Note_on_c, 0, 65, 71
1, 727928, Note_off_c, 0, 69, 59
1, 727928, Poly_aftertouch_c, 0, 69, 0
1, 728012, Note_off_c, 0, 62, 57
1, 728020, Note_on_c, 0, 64, 77
1, 728032, Note_on_c, 0, 67, 80
1, 728038, Control_c, 0, 64, 100
1, 728038, Control_c, 1, 64, 100
1, 728044, Note_off_c, 0, 65, 58
1, 728057, Control_c, 0, 64, 53
1, 728057, Control_c, 1, 64, 53
1, 728075, Control_c, 1, 64, 0
1, 728075, Control_c, 0, 64, 0
1, 728101, Note_on_c, 0, 74, 91
1, 728120, Note_off_c, 0, 64, 58
1, 728124, Note_off_c, 0, 67, 57
1, 728132, Note_on_c, 0, 69, 80
1, 728149, Control_c, 0, 64, 22
1, 728149, Control_c, 1, 64, 22
1, 728151, Control_c, 1, 67, 45
1, 728151, Control_c, 0, 67, 45
1, 728152, Note_on_c, 0, 65, 78
1, 728154, Note_off_c, 0, 74, 65
1, 728169, Control_c, 0, 64, 60
1, 728169, Control_c, 1, 64, 60
1, 728187, Control_c, 1, 64, 124
1, 728187, Control_c, 0, 64, 124
1, 728212, Note_off_c, 0, 69, 54
1, 728212, Poly_aftertouch_c, 0, 69, 0
1, 728246, Note_on_c, 0, 67, 81
1, 728253, Note_on_c, 0, 64, 73
1, 728278, Note_off_c, 0, 65, 56
1, 728283, Note_on_c, 0, 69, 80
1, 728329, Note_off_c, 0, 67, 58
1, 728332, Note_on_c, 0, 62, 74
1, 728339, Note_off_c, 0, 69, 58
1, 728339, Poly_aftertouch_c, 0, 69, 0
1, 728348, Note_off_c, 0, 64, 62
1, 728357, Note_on_c, 0, 65, 59
1, 728384, Note_off_c, 0, 65, 62
1, 728402, Note_off_c, 0, 62, 62
1, 728432, Control_c, 0, 64, 75
1, 728432, Control_c, 1, 64, 75
1, 728449, Control_c, 1, 64, 33
1, 728449, Control_c, 0, 64, 33
1, 728456, Note_on_c, 0, 81, 82
1, 728469, Control_c, 0, 64, 0
1, 728469, Control_c, 1, 64, 0
1, 728482, Note_on_c, 0, 64, 73
1, 728496, Note_on_c, 0, 78, 43
1, 728509, Note_on_c, 0, 61, 61
1, 728524, Control_c, 0, 64, 29
1, 728524, Control_c, 1, 64, 29
1, 728534, Note_off_c, 0, 78, 56
1, 728538, Note_off_c, 0, 81, 62
1, 728542, Control_c, 0, 64, 66
1, 728542, Control_c, 1, 64, 66
1, 728562, Control_c, 1, 64, 127
1, 728562, Control_c, 0, 64, 127
1, 728571, Note_off_c, 0, 64, 44
1, 728583, Note_on_c, 0, 62, 73
1, 728587, Note_on_c, 0, 59, 68
1, 728589, Note_off_c, 0, 61, 60
1, 728603, Note_on_c, 0, 69, 75
1, 728636, Control_c, 0, 67, 41
1, 728636, Control_c, 1, 67, 41
1, 728652, Note_off_c, 0, 69, 55
1, 728652, Poly_aftertouch_c, 0, 69, 0
1, 728690, Note_off_c, 0, 62, 61
1, 728699, Note_off_c, 0, 59, 58
1, 728704, Note_on_c, 0, 61, 73
1, 728714, Note_on_c, 0, 57, 62
1, 728768, Control_c, 0, 64, 66
1, 728768, Control_c, 1, 64, 66
1, 728781, Note_off_c, 0, 61, 61
1, 728786, Control_c, 0, 64, 22
1, 728786, Control_c, 1, 64, 22
1, 728790, Note_off_c, 0, 57, 63
1, 728805, Control_c, 0, 64, 0
1, 728805, Control_c, 1, 64, 0
1, 728817, Note_on_c, 0, 71, 84
1, 728826, Note_on_c, 0, 67, 86
1, 728861, Control_c, 0, 64, 23
1, 728861, Control_c, 1, 64, 23
1, 728878, Note_off_c, 0, 71, 54
1, 728880, Control_c, 0, 64, 56
1, 728880, Control_c, 1, 64, 56
1, 728898, Note_off_c, 0, 67, 63
1, 728900, Control_c, 0, 64, 93
1, 728900, Control_c, 1, 64, 93
1, 728917, Control_c, 1, 64, 127
1, 728917, Control_c, 0, 64, 127
1, 728939, Note_on_c, 0, 69, 75
1, 728939, Note_on_c, 0, 72, 80
1, 728955, Control_c, 0, 67, 37
1, 728955, Control_c, 1, 67, 37
1, 728989, Note_on_c, 0, 55, 81
1, 729009, Note_off_c, 0, 69, 54
1, 729009, Poly_aftertouch_c, 0, 69, 0
1, 729037, Note_on_c, 0, 74, 79
1, 729041, Note_off_c, 0, 72, 60
1, 729041, Note_on_c, 0, 71, 65
1, 729054, Note_off_c, 0, 55, 61
1, 729072, Note_off_c, 0, 71, 66
1, 729100, Note_off_c, 0, 74, 64
1, 729124, Control_c, 0, 64, 70
1, 729124, Control_c, 1, 64, 70
1, 729142, Control_c, 1, 64, 27
1, 729142, Control_c, 0, 64, 27
1, 729144, Note_on_c, 0, 63, 91
1, 729161, Control_c, 0, 64, 0
1, 729161, Control_c, 1, 64, 0
1, 729163, Control_c, 1, 67, 33
1, 729163, Control_c, 0, 67, 33
1, 729167, Note_on_c, 0, 72, 78
1, 729168, Note_on_c, 0, 75, 80
1, 729193, Note_off_c, 0, 72, 69
1, 729202, Note_off_c, 0, 63, 65
1, 729217, Control_c, 0, 64, 32
1, 729217, Control_c, 1, 64, 32
1, 729236, Control_c, 1, 64, 69
1, 729236, Control_c, 0, 64, 69
1, 729254, Control_c, 0, 64, 127
1, 729254, Control_c, 1, 64, 127
1, 729269, Note_on_c, 0, 77, 83
1, 729289, Note_off_c, 0, 75, 65
1, 729291, Control_c, 0, 67, 29
1, 729291, Control_c, 1, 67, 29
1, 729305, Note_on_c, 0, 74, 55
1, 729311, Note_on_c, 0, 51, 80
1, 729348, Control_c, 0, 67, 23
1, 729348, Control_c, 1, 67, 23
1, 729378, Note_on_c, 0, 79, 80
1, 729387, Note_off_c, 0, 51, 63
1, 729396, Note_off_c, 0, 74, 59
1, 729408, Note_on_c, 0, 75, 68
1, 729436, Note_off_c, 0, 77, 56
1, 729439, Control_c, 0, 64, 94
1, 729439, Control_c, 1, 64, 94
1, 729461, Control_c, 1, 64, 48
1, 729461, Control_c, 0, 64, 48
1, 729480, Control_c, 0, 64, 0
1, 729480, Control_c, 1, 64, 0
1, 729494, Note_on_c, 0, 59, 89
1, 729508, Note_on_c, 0, 80, 88
1, 729522, Note_off_c, 0, 75, 64
1, 729522, Note_off_c, 0, 79, 62
1, 729536, Control_c, 0, 64, 12
1, 729536, Control_c, 1, 64, 12
1, 729552, Note_off_c, 0, 59, 64
1, 729553, Control_c, 0, 64, 45
1, 729553, Control_c, 1, 64, 45
1, 729573, Control_c, 1, 64, 89
1, 729573, Control_c, 0, 64, 89
1, 729592, Control_c, 0, 64, 127
1, 729592, Control_c, 1, 64, 127
1, 729614, Note_on_c, 0, 79, 76
1, 729641, Note_off_c, 0, 80, 64
1, 729646, Note_on_c, 0, 75, 74
1, 729672, Note_on_c, 0, 47, 80
1, 729685, Control_c, 0, 67, 19
1, 729685, Control_c, 1, 67, 19
1, 729700, Poly_aftertouch_c, 0, 77, 0
1, 729723, Note_off_c, 0, 47, 59
1, 729739, Note_off_c, 0, 75, 62
1, 729780, Poly_aftertouch_c, 0, 77, 127
1, 729783, Note_off_c, 0, 79, 62
1, 729805, Poly_aftertouch_c, 0, 49, 0
1, 729816, Control_c, 0, 64, 73
1, 729816, Control_c, 1, 64, 73
1, 729834, Control_c, 1, 64, 34
1, 729834, Control_c, 0, 64, 34
1, 729842, Note_on_c, 0, 60, 84
1, 729855, Control_c, 0, 64, 0
1, 729855, Control_c, 1, 64, 0
1, 729862, Note_on_c, 0, 72, 73
1, 729867, Note_on_c, 0, 75, 78
1, 729875, Poly_aftertouch_c, 0, 77, 0
1, 729890, Control_c, 0, 64, 11
1, 729890, Control_c, 1, 64, 11
1, 729895, Note_off_c, 0, 72, 65
1, 729910, Control_c, 0, 64, 36
1, 729910, Control_c, 1, 64, 36
1, 729914, Note_off_c, 0, 60, 59
1, 729928, Control_c, 0, 64, 73
1, 729928, Control_c, 1, 64, 73
1, 729948, Control_c, 1, 64, 127
1, 729948, Control_c, 0, 64, 127
1, 729957, Note_on_c, 0, 77, 78
1, 729973, Note_off_c, 0, 75, 64
1, 729989, Note_on_c, 0, 48, 72
1, 729992, Note_on_c, 0, 74, 62
1, 730022, Control_c, 0, 67, 15
1, 730022, Control_c, 1, 67, 15
1, 730031, Note_off_c, 0, 74, 59
1, 730045, Note_on_c, 0, 75, 60
1, 730062, Note_off_c, 0, 48, 62
1, 730071, Note_on_c, 0, 79, 76
1, 730098, Note_off_c, 0, 75, 62
1, 730102, Note_off_c, 0, 77, 60
1, 730148, Note_off_c, 0, 79, 63
1, 730153, Control_c, 0, 64, 70
1, 730153, Control_c, 1, 64, 70
1, 730171, Control_c, 1, 64, 24
1, 730171, Control_c, 0, 64, 24
1, 730175, Note_on_c, 0, 57, 90
1, 730190, Control_c, 0, 64, 0
1, 730190, Control_c, 1, 64, 0
1, 730197, Note_on_c, 0, 81, 88
1, 730203, Note_on_c, 0, 77, 76
1, 730228, Control_c, 0, 67, 11
1, 730228, Control_c, 1, 67, 11
1, 730246, Control_c, 1, 64, 23
1, 730246, Control_c, 0, 64, 23
1, 730249, Note_off_c, 0, 57, 64
1, 730250, Note_off_c, 0, 77, 56
1, 730266, Control_c, 0, 64, 58
1, 730266, Control_c, 1, 64, 58
1, 730284, Control_c, 1, 64, 104
1, 730284, Control_c, 0, 64, 104
1, 730303, Control_c, 0, 64, 127
1, 730303, Control_c, 1, 64, 127
1, 730316, Note_on_c, 0, 83, 82
1, 730322, Note_on_c, 0, 79, 84
1, 730337, Note_on_c, 0, 45, 78
1, 730376, Note_off_c, 0, 81, 51
1, 730413, Note_off_c, 0, 45, 62
1, 730428, Note_off_c, 0, 79, 63
1, 730430, Note_on_c, 0, 84, 88
1, 730433, Note_off_c, 0, 83, 64
1, 730475, Note_off_c, 0, 84, 64
1, 730490, Control_c, 0, 64, 77
1, 730490, Control_c, 1, 64, 77
1, 730502, Poly_aftertouch_c, 0, 81, 0
1, 730509, Control_c, 0, 64, 37
1, 730509, Control_c, 1, 64, 37
1, 730518, Note_on_c, 0, 55, 88
1, 730544, Note_on_c, 0, 83, 89
1, 730546, Control_c, 0, 64, 0
1, 730546, Control_c, 1, 64, 0
1, 730550, Note_on_c, 0, 86, 79
1, 730583, Control_c, 0, 64, 25
1, 730583, Control_c, 1, 64, 25
1, 730592, Note_off_c, 0, 83, 63
1, 730594, Note_off_c, 0, 55, 64
1, 730602, Control_c, 0, 64, 57
1, 730602, Control_c, 1, 64, 57
1, 730621, Control_c, 1, 64, 98
1, 730621, Control_c, 0, 64, 98
1, 730639, Control_c, 0, 64, 127
1, 730639, Control_c, 1, 64, 127
1, 730652, Note_on_c, 0, 87, 91
1, 730664, Note_on_c, 0, 43, 71
1, 730683, Note_off_c, 0, 86, 58
1, 730686, Note_on_c, 0, 84, 57
1, 730693, Note_on_c, 0, 46, 41
1, 730739, Note_off_c, 0, 43, 62
1, 730740, Note_off_c, 0, 46, 51
1, 730742, Note_off_c, 0, 84, 56
1, 730759, Note_on_c, 0, 89, 78
1, 730767, Note_on_c, 0, 86, 78
1, 730807, Note_off_c, 0, 87, 62
1, 730826, Control_c, 0, 64, 83
1, 730826, Control_c, 1, 64, 83
1, 730846, Control_c, 1, 64, 38
1, 730846, Control_c, 0, 64, 38
1, 730855, Note_on_c, 0, 48, 93
1, 730866, Note_on_c, 0, 91, 86
1, 730866, Control_c, 0, 64, 0
1, 730866, Control_c, 1, 64, 0
1, 730875, Note_off_c, 0, 86, 65
1, 730899, Note_off_c, 0, 89, 64
1, 730918, Note_off_c, 0, 48, 64
1, 730940, Control_c, 0, 64, 25
1, 730940, Control_c, 1, 64, 25
1, 730957, Control_c, 1, 64, 65
1, 730957, Control_c, 0, 64, 65
1, 730958, Note_on_c, 0, 87, 72
1, 730976, Control_c, 0, 64, 127
1, 730976, Control_c, 1, 64, 127
1, 730995, Note_on_c, 0, 89, 77
1, 730996, Note_on_c, 0, 86, 82
1, 731026, Note_on_c, 0, 36, 80
1, 731048, Note_off_c, 0, 87, 61
1, 731049, Note_off_c, 0, 91, 54
1, 731068, Note_off_c, 0, 36, 67
1, 731096, Note_on_c, 0, 84, 79
1, 731098, Note_off_c, 0, 86, 63
1, 731107, Note_on_c, 0, 87, 46
1, 731116, Note_off_c, 0, 89, 64
1, 731146, Note_off_c, 0, 84, 60
1, 731149, Note_off_c, 0, 87, 68
1, 731163, Control_c, 0, 64, 85
1, 731163, Control_c, 1, 64, 85
1, 731183, Control_c, 1, 64, 39
1, 731183, Control_c, 0, 64, 39
1, 731201, Control_c, 0, 64, 0
1, 731201, Control_c, 1, 64, 0
1, 731207, Note_on_c, 0, 55, 78
1, 731213, Note_on_c, 0, 86, 89
1, 731235, Note_on_c, 0, 83, 71
1, 731277, Control_c, 0, 64, 23
1, 731277, Control_c, 1, 64, 23
1, 731286, Note_off_c, 0, 55, 59
1, 731294, Control_c, 0, 64, 55
1, 731294, Control_c, 1, 64, 55
1, 731314, Control_c, 1, 64, 88
1, 731314, Control_c, 0, 64, 88
1, 731327, Note_on_c, 0, 84, 73
1, 731333, Control_c, 0, 64, 127
1, 731333, Control_c, 1, 64, 127
1, 731335, Note_off_c, 0, 86, 58
1, 731337, Note_on_c, 0, 81, 80
1, 731339, Note_on_c, 0, 43, 67
1, 731342, Note_off_c, 0, 83, 60
1, 731431, Note_on_c, 0, 83, 75
1, 731433, Note_off_c, 0, 43, 59
1, 731433, Note_on_c, 0, 79, 72
1, 731435, Note_off_c, 0, 81, 63
1, 731457, Note_off_c, 0, 84, 63
1, 731471, Note_off_c, 0, 83, 61
1, 731475, Note_off_c, 0, 79, 59
1, 731540, Control_c, 0, 64, 98
1, 731540, Control_c, 1, 64, 98
1, 731557, Control_c, 1, 64, 54
1, 731557, Control_c, 0, 64, 54
1, 731582, Note_on_c, 0, 45, 61
1, 731589, Note_on_c, 0, 41, 64
1, 731594, Note_on_c, 0, 89, 83
1, 731594, Control_c, 0, 64, 0
1, 731594, Control_c, 1, 64, 0
1, 731649, Control_c, 1, 64, 8
1, 731649, Control_c, 0, 64, 8
1, 731669, Control_c, 0, 64, 34
1, 731669, Control_c, 1, 64, 34
1, 731674, Note_off_c, 0, 89, 62
1, 731688, Note_off_c, 0, 41, 56
1, 731688, Control_c, 0, 64, 69
1, 731688, Control_c, 1, 64, 69
1, 731703, Note_off_c, 0, 45, 57
1, 731705, Note_on_c, 0, 43, 63
1, 731705, Control_c, 0, 64, 127
1, 731705, Control_c, 1, 64, 127
1, 731706, Note_on_c, 0, 46, 67
1, 731751, Note_on_c, 0, 77, 68
1, 731791, Note_off_c, 0, 77, 61
1, 731799, Note_off_c, 0, 43, 62
1, 731800, Note_off_c, 0, 46, 63
1, 731805, Note_on_c, 0, 45, 58
1, 731815, Note_on_c, 0, 48, 76
1, 731843, Note_off_c, 0, 45, 62
1, 731875, Control_c, 0, 64, 84
1, 731875, Control_c, 1, 64, 84
1, 731888, Note_off_c, 0, 48, 63
1, 731893, Control_c, 0, 64, 42
1, 731893, Control_c, 1, 64, 42
1, 731912, Control_c, 1, 64, 0
1, 731912, Control_c, 0, 64, 0
1, 731932, Note_on_c, 0, 85, 88
1, 731942, Note_on_c, 0, 46, 80
1, 731954, Note_on_c, 0, 49, 74
1, 731981, Note_on_c, 0, 82, 35
1, 731996, Note_off_c, 0, 82, 38
1, 732006, Control_c, 0, 64, 25
1, 732006, Control_c, 1, 64, 25
1, 732025, Control_c, 1, 64, 59
1, 732025, Control_c, 0, 64, 59
1, 732042, Control_c, 0, 64, 103
1, 732042, Control_c, 1, 64, 103
1, 732044, Note_on_c, 0, 48, 77
1, 732050, Note_on_c, 0, 51, 82
1, 732056, Note_off_c, 0, 49, 64
1, 732061, Control_c, 0, 64, 127
1, 732061, Control_c, 1, 64, 127
1, 732063, Note_off_c, 0, 46, 60
1, 732065, Note_on_c, 0, 73, 80
1, 732067, Note_off_c, 0, 85, 61
1, 732135, Note_off_c, 0, 73, 62
1, 732160, Note_on_c, 0, 53, 81
1, 732164, Note_off_c, 0, 51, 62
1, 732175, Note_on_c, 0, 49, 85
1, 732181, Note_off_c, 0, 48, 62
1, 732193, Control_c, 0, 64, 91
1, 732193, Control_c, 1, 64, 91
1, 732213, Control_c, 1, 64, 48
1, 732213, Control_c, 0, 64, 48
1, 732215, Control_c, 0, 67, 15
1, 732215, Control_c, 1, 67, 15
1, 732219, Note_off_c, 0, 53, 62
1, 732232, Control_c, 0, 64, 0
1, 732232, Control_c, 1, 64, 0
1, 732270, Note_on_c, 0, 81, 88
1, 732296, Note_on_c, 0, 54, 82
1, 732303, Note_off_c, 0, 49, 58
1, 732306, Note_on_c, 0, 51, 71
1, 732324, Control_c, 0, 64, 22
1, 732324, Control_c, 1, 64, 22
1, 732343, Control_c, 1, 64, 57
1, 732343, Control_c, 0, 64, 57
1, 732354, Note_off_c, 0, 81, 62
1, 732361, Note_off_c, 0, 51, 51
1, 732361, Control_c, 0, 64, 97
1, 732361, Control_c, 1, 64, 97
1, 732363, Control_c, 1, 67, 19
1, 732363, Control_c, 0, 67, 19
1, 732381, Control_c, 0, 64, 127
1, 732381, Control_c, 1, 64, 127
1, 732405, Note_off_c, 0, 54, 62
1, 732410, Note_on_c, 0, 69, 76
1, 732420, Note_on_c, 0, 53, 77
1, 732423, Note_on_c, 0, 49, 75
1, 732457, Note_off_c, 0, 69, 58
1, 732457, Poly_aftertouch_c, 0, 69, 0
1, 732510, Note_on_c, 0, 51, 74
1, 732510, Control_c, 0, 64, 66
1, 732510, Control_c, 1, 64, 66
1, 732513, Control_c, 1, 67, 23
1, 732513, Control_c, 0, 67, 23
1, 732516, Note_on_c, 0, 48, 70
1, 732520, Note_off_c, 0, 49, 63
1, 732528, Control_c, 0, 64, 14
1, 732528, Control_c, 1, 64, 14
1, 732530, Note_off_c, 0, 53, 58
1, 732549, Control_c, 0, 64, 0
1, 732549, Control_c, 1, 64, 0
1, 732622, Note_on_c, 0, 82, 80
1, 732626, Note_on_c, 0, 49, 79
1, 732636, Note_off_c, 0, 51, 62
1, 732644, Note_on_c, 0, 46, 69
1, 732647, Note_off_c, 0, 48, 62
1, 732680, Control_c, 0, 64, 13
1, 732680, Control_c, 1, 64, 13
1, 732698, Note_off_c, 0, 82, 64
1, 732698, Control_c, 0, 64, 33
1, 732698, Control_c, 0, 67, 27
1, 732698, Control_c, 1, 64, 33
1, 732698, Control_c, 1, 67, 27
1, 732717, Control_c, 1, 64, 61
1, 732717, Control_c, 0, 64, 61
1, 732735, Note_off_c, 0, 49, 53
1, 732736, Control_c, 0, 64, 91
1, 732736, Control_c, 1, 64, 91
1, 732749, Note_on_c, 0, 51, 74
1, 732755, Note_off_c, 0, 46, 59
1, 732755, Control_c, 0, 64, 127
1, 732755, Control_c, 1, 64, 127
1, 732760, Note_on_c, 0, 70, 73
1, 732763, Note_on_c, 0, 48, 55
1, 732802, Note_off_c, 0, 70, 64
1, 732829, Control_c, 0, 67, 31
1, 732829, Control_c, 1, 67, 31
1, 732835, Note_on_c, 0, 53, 74
1, 732838, Note_off_c, 0, 51, 63
1, 732844, Note_off_c, 0, 48, 59
1, 732861, Note_on_c, 0, 49, 53
1, 732864, Control_c, 0, 64, 104
1, 732864, Control_c, 1, 64, 104
1, 732887, Control_c, 1, 64, 60
1, 732887, Control_c, 0, 64, 60
1, 732895, Note_off_c, 0, 49, 53
1, 732899, Note_off_c, 0, 53, 59
1, 732905, Control_c, 0, 64, 13
1, 732905, Control_c, 1, 64, 13
1, 732924, Control_c, 1, 64, 0
1, 732924, Control_c, 0, 64, 0
1, 732925, Control_c, 0, 67, 35
1, 732925, Control_c, 1, 67, 35
1, 732961, Note_on_c, 0, 87, 88
1, 732973, Note_on_c, 0, 51, 75
1, 732977, Note_on_c, 0, 55, 74
1, 732979, Control_c, 0, 64, 8
1, 732979, Control_c, 1, 64, 8
1, 732998, Control_c, 1, 64, 36
1, 732998, Control_c, 0, 64, 36
1, 733018, Control_c, 0, 64, 74
1, 733018, Control_c, 1, 64, 74
1, 733035, Control_c, 1, 64, 127
1, 733035, Control_c, 0, 64, 127
1, 733043, Note_off_c, 0, 87, 63
1, 733078, Note_on_c, 0, 53, 72
1, 733085, Note_on_c, 0, 56, 81
1, 733091, Note_on_c, 0, 75, 79
1, 733093, Note_off_c, 0, 55, 61
1, 733098, Note_off_c, 0, 51, 61
1, 733162, Note_off_c, 0, 75, 63
1, 733185, Note_on_c, 0, 58, 78
1, 733188, Note_off_c, 0, 56, 61
1, 733192, Note_off_c, 0, 53, 60
1, 733203, Control_c, 0, 64, 104
1, 733203, Control_c, 1, 64, 104
1, 733208, Note_on_c, 0, 55, 66
1, 733223, Control_c, 0, 64, 59
1, 733223, Control_c, 1, 64, 59
1, 733241, Control_c, 1, 64, 14
1, 733241, Control_c, 0, 64, 14
1, 733257, Note_off_c, 0, 58, 63
1, 733259, Control_c, 0, 64, 0
1, 733259, Control_c, 1, 64, 0
1, 733279, Note_on_c, 0, 83, 87
1, 733285, Note_on_c, 0, 59, 75
1, 733292, Note_on_c, 0, 56, 80
1, 733303, Note_off_c, 0, 55, 59
1, 733315, Control_c, 0, 64, 26
1, 733315, Control_c, 1, 64, 26
1, 733334, Note_off_c, 0, 56, 64
1, 733334, Control_c, 0, 64, 63
1, 733334, Control_c, 1, 64, 63
1, 733356, Control_c, 1, 64, 127
1, 733356, Control_c, 0, 64, 127
1, 733358, Note_off_c, 0, 83, 63
1, 733366, Note_off_c, 0, 59, 61
1, 733401, Note_on_c, 0, 71, 80
1, 733408, Control_c, 0, 67, 31
1, 733408, Control_c, 1, 67, 31
1, 733431, Note_on_c, 0, 58, 73
1, 733431, Note_on_c, 0, 61, 84
1, 733447, Note_off_c, 0, 71, 61
1, 733485, Control_c, 0, 67, 27
1, 733485, Control_c, 1, 67, 27
1, 733529, Note_on_c, 0, 59, 70
1, 733530, Note_off_c, 0, 58, 60
1, 733531, Note_off_c, 0, 61, 61
1, 733560, Control_c, 0, 64, 83
1, 733560, Control_c, 1, 64, 83
1, 733577, Control_c, 1, 64, 41
1, 733577, Note_on_c, 0, 63, 77
1, 733577, Control_c, 0, 64, 41
1, 733596, Control_c, 0, 64, 0
1, 733596, Control_c, 1, 64, 0
1, 733613, Note_on_c, 0, 79, 84
1, 733631, Note_on_c, 0, 64, 62
1, 733634, Control_c, 0, 67, 23
1, 733634, Control_c, 1, 67, 23
1, 733640, Note_off_c, 0, 59, 48
1, 733643, Note_on_c, 0, 61, 73
1, 733647, Note_off_c, 0, 63, 60
1, 733672, Control_c, 0, 64, 22
1, 733672, Control_c, 1, 64, 22
1, 733673, Note_off_c, 0, 64, 57
1, 733673, Control_c, 0, 67, 18
1, 733673, Control_c, 1, 67, 18
1, 733691, Control_c, 1, 64, 54
1, 733691, Control_c, 0, 64, 54
1, 733697, Note_off_c, 0, 79, 62
1, 733709, Control_c, 0, 64, 96
1, 733709, Control_c, 1, 64, 96
1, 733712, Control_c, 1, 67, 12
1, 733712, Control_c, 0, 67, 12
1, 733728, Control_c, 0, 64, 127
1, 733728, Control_c, 1, 64, 127
1, 733737, Note_on_c, 0, 67, 80
1, 733765, Poly_aftertouch_c, 0, 64, 0
1, 733782, Note_off_c, 0, 67, 62
1, 733799, Poly_aftertouch_c, 0, 59, 127
1, 733822, Control_c, 0, 67, 0
1, 733822, Control_c, 1, 67, 0
1, 733851, Note_off_c, 0, 61, 55
1, 733869, Note_on_c, 0, 58, 73
1, 733874, Note_on_c, 0, 63, 75
1, 733891, Poly_aftertouch_c, 0, 59, 0
1, 733915, Control_c, 0, 64, 91
1, 733915, Control_c, 1, 64, 91
1, 733929, Note_off_c, 0, 63, 53
1, 733933, Control_c, 0, 64, 49
1, 733933, Control_c, 1, 64, 49
1, 733954, Note_on_c, 0, 61, 78
1, 733956, Note_on_c, 0, 80, 88
1, 733971, Control_c, 0, 64, 0
1, 733971, Control_c, 1, 64, 0
1, 733978, Note_on_c, 0, 59, 63
1, 734018, Note_on_c, 0, 56, 77
1, 734020, Note_off_c, 0, 58, 60
1, 734026, Control_c, 0, 64, 33
1, 734026, Control_c, 1, 64, 33
1, 734027, Note_off_c, 0, 80, 65
1, 734046, Control_c, 0, 64, 71
1, 734046, Control_c, 1, 64, 71
1, 734064, Control_c, 1, 64, 127
1, 734064, Note_on_c, 0, 68, 75
1, 734064, Control_c, 0, 64, 127
1, 734085, Note_off_c, 0, 61, 62
1, 734094, Note_off_c, 0, 68, 70
1, 734140, Note_on_c, 0, 58, 77
1, 734145, Note_off_c, 0, 56, 61
1, 734156, Note_on_c, 0, 61, 71
1, 734233, Note_on_c, 0, 63, 82
1, 734237, Note_off_c, 0, 58, 63
1, 734241, Note_off_c, 0, 59, 64
1, 734241, Note_on_c, 0, 59, 24
1, 734242, Note_off_c, 0, 61, 61
1, 734268, Note_off_c, 0, 59, 61
1, 734290, Control_c, 0, 64, 84
1, 734290, Control_c, 1, 64, 84
1, 734291, Note_off_c, 0, 63, 62
1, 734310, Control_c, 0, 64, 42
1, 734310, Control_c, 1, 64, 42
1, 734325, Note_on_c, 0, 65, 83
1, 734329, Control_c, 0, 64, 0
1, 734329, Control_c, 1, 64, 0
1, 734383, Note_on_c, 0, 60, 66
1, 734391, Note_on_c, 0, 59, 56
1, 734403, Control_c, 0, 64, 33
1, 734403, Control_c, 1, 64, 33
1, 734413, Note_off_c, 0, 65, 47
1, 734418, Note_off_c, 0, 59, 58
1, 734418, Note_off_c, 0, 60, 64
1, 734420, Control_c, 0, 64, 71
1, 734420, Control_c, 1, 64, 71
1, 734438, Note_on_c, 0, 63, 77
1, 734440, Note_on_c, 0, 66, 56
1, 734440, Control_c, 0, 64, 127
1, 734440, Control_c, 1, 64, 127
1, 734528, Note_off_c, 0, 63, 57
1, 734540, Note_on_c, 0, 49, 87
1, 734558, Note_on_c, 0, 65, 68
1, 734561, Note_on_c, 0, 68, 71
1, 734566, Note_off_c, 0, 66, 61
1, 734592, Note_off_c, 0, 65, 66
1, 734602, Note_off_c, 0, 49, 61
1, 734634, Note_off_c, 0, 68, 63
1, 734682, Note_on_c, 0, 57, 91
1, 734682, Control_c, 0, 64, 64
1, 734682, Control_c, 1, 64, 64
1, 734695, Note_on_c, 0, 66, 76
1, 734698, Note_on_c, 0, 69, 80
1, 734719, Control_c, 0, 64, 0
1, 734719, Control_c, 1, 64, 0
1, 734736, Note_off_c, 0, 57, 64
1, 734741, Note_off_c, 0, 66, 55
1, 734757, Control_c, 0, 64, 23
1, 734757, Control_c, 1, 64, 23
1, 734776, Control_c, 1, 64, 62
1, 734776, Control_c, 0, 64, 62
1, 734795, Control_c, 0, 64, 127
1, 734795, Control_c, 1, 64, 127
1, 734806, Note_on_c, 0, 68, 78
1, 734827, Note_on_c, 0, 71, 64
1, 734845, Note_on_c, 0, 42, 87
1, 734858, Poly_aftertouch_c, 0, 66, 0
1, 734904, Note_off_c, 0, 69, 40
1, 734904, Note_off_c, 0, 68, 59
1, 734904, Poly_aftertouch_c, 0, 69, 0
1, 734912, Note_off_c, 0, 42, 63
1, 734916, Note_on_c, 0, 73, 82
1, 734924, Note_off_c, 0, 71, 62
1, 734968, Note_off_c, 0, 73, 60
1, 734981, Poly_aftertouch_c, 0, 49, 0
1, 734982, Control_c, 0, 64, 87
1, 734982, Control_c, 1, 64, 87
1, 735001, Control_c, 1, 64, 47
1, 735001, Control_c, 0, 64, 47
1, 735014, Note_on_c, 0, 59, 91
1, 735019, Control_c, 0, 64, 13
1, 735019, Control_c, 1, 64, 13
1, 735037, Note_on_c, 0, 71, 77
1, 735038, Note_on_c, 0, 75, 80
1, 735056, Control_c, 0, 64, 19
1, 735056, Control_c, 1, 64, 19
1, 735071, Note_off_c, 0, 59, 63
1, 735075, Control_c, 0, 64, 44
1, 735075, Control_c, 1, 64, 44
1, 735092, Note_off_c, 0, 71, 56
1, 735094, Control_c, 0, 64, 82
1, 735094, Control_c, 1, 64, 82
1, 735113, Control_c, 1, 64, 127
1, 735113, Control_c, 0, 64, 127
1, 735140, Note_on_c, 0, 76, 75
1, 735140, Note_on_c, 0, 73, 79
1, 735172, Note_on_c, 0, 47, 78
1, 735184, Note_off_c, 0, 75, 58
1, 735237, Note_off_c, 0, 47, 61
1, 735242, Note_on_c, 0, 75, 52
1, 735252, Note_on_c, 0, 78, 86
1, 735260, Note_off_c, 0, 73, 63
1, 735270, Note_off_c, 0, 76, 63
1, 735278, Note_off_c, 0, 75, 69
1, 735319, Note_off_c, 0, 78, 67
1, 735338, Control_c, 0, 64, 101
1, 735338, Control_c, 1, 64, 101
1, 735354, Note_on_c, 0, 56, 93
1, 735356, Control_c, 0, 64, 55
1, 735356, Control_c, 1, 64, 55
1, 735375, Control_c, 1, 64, 13
1, 735375, Control_c, 0, 64, 13
1, 735393, Note_on_c, 0, 76, 80
1, 735394, Note_on_c, 0, 80, 83
1, 735405, Note_off_c, 0, 56, 64
1, 735431, Control_c, 0, 64, 43
1, 735431, Control_c, 1, 64, 43
1, 735450, Control_c, 1, 64, 85
1, 735450, Control_c, 0, 64, 85
1, 735469, Control_c, 0, 64, 127
1, 735469, Control_c, 1, 64, 127
1, 735495, Note_on_c, 0, 81, 78
1, 735506, Note_on_c, 0, 78, 82
1, 735513, Note_off_c, 0, 76, 32
1, 735523, Note_on_c, 0, 40, 86
1, 735578, Note_off_c, 0, 40, 63
1, 735585, Note_off_c, 0, 80, 64
1, 735585, Note_on_c, 0, 80, 49
1, 735600, Note_on_c, 0, 83, 87
1, 735614, Note_off_c, 0, 78, 64
1, 735623, Note_off_c, 0, 81, 63
1, 735645, Note_off_c, 0, 80, 65
1, 735652, Note_off_c, 0, 83, 65
1, 735676, Control_c, 0, 64, 61
1, 735676, Control_c, 1, 64, 61
1, 735694, Control_c, 1, 64, 11
1, 735694, Control_c, 0, 64, 11
1, 735703, Note_on_c, 0, 57, 98
1, 735710, Control_c, 0, 64, 0
1, 735710, Control_c, 1, 64, 0
1, 735734, Note_on_c, 0, 85, 84
1, 735735, Note_on_c, 0, 81, 78
1, 735751, Control_c, 0, 64, 27
1, 735751, Control_c, 1, 64, 27
1, 735767, Note_off_c, 0, 57, 67
1, 735769, Control_c, 0, 64, 69
1, 735769, Control_c, 1, 64, 69
1, 735775, Note_on_c, 0, 83, 30
1, 735776, Note_off_c, 0, 83, 127
1, 735786, Control_c, 0, 64, 127
1, 735786, Control_c, 1, 64, 127
1, 735788, Note_off_c, 0, 81, 59
1, 735842, Note_on_c, 0, 83, 66
1, 735842, Note_on_c, 0, 86, 78
1, 735870, Note_on_c, 0, 45, 80
1, 735881, Note_off_c, 0, 85, 62
1, 735944, Note_off_c, 0, 45, 59
1, 735954, Note_on_c, 0, 88, 81
1, 735958, Note_on_c, 0, 85, 71
1, 735959, Note_off_c, 0, 83, 64
1, 735976, Note_off_c, 0, 86, 64
1, 736000, Note_off_c, 0, 85, 63
1, 736024, Note_off_c, 0, 88, 65
1, 736030, Control_c, 0, 64, 93
1, 736030, Control_c, 1, 64, 93
1, 736049, Control_c, 1, 64, 51
1, 736049, Control_c, 0, 64, 51
1, 736060, Note_on_c, 0, 53, 96
1, 736066, Control_c, 0, 64, 15
1, 736066, Control_c, 1, 64, 15
1, 736091, Note_on_c, 0, 89, 90
1, 736096, Note_on_c, 0, 86, 85
1, 736105, Control_c, 0, 64, 25
1, 736105, Control_c, 1, 64, 25
1, 736124, Control_c, 1, 64, 52
1, 736124, Control_c, 0, 64, 52
1, 736133, Note_off_c, 0, 53, 63
1, 736143, Control_c, 0, 64, 91
1, 736143, Control_c, 1, 64, 91
1, 736162, Control_c, 1, 64, 127
1, 736162, Control_c, 0, 64, 127
1, 736165, Note_off_c, 0, 86, 61
1, 736207, Note_on_c, 0, 88, 87
1, 736208, Note_on_c, 0, 91, 83
1, 736246, Note_off_c, 0, 89, 63
1, 736249, Note_on_c, 0, 38, 89
1, 736310, Note_off_c, 0, 38, 64
1, 736320, Note_on_c, 0, 89, 68
1, 736334, Note_off_c, 0, 88, 64
1, 736335, Note_on_c, 0, 93, 93
1, 736353, Note_off_c, 0, 91, 61
1, 736372, Note_off_c, 0, 89, 61
1, 736425, Control_c, 0, 64, 69
1, 736425, Control_c, 1, 64, 69
1, 736442, Control_c, 1, 64, 23
1, 736442, Control_c, 0, 64, 23
1, 736450, Note_on_c, 0, 52, 97
1, 736461, Control_c, 0, 64, 0
1, 736461, Control_c, 1, 64, 0
1, 736467, Note_on_c, 0, 88, 89
1, 736476, Note_on_c, 0, 92, 91
1, 736492, Note_off_c, 0, 93, 63
1, 736517, Control_c, 0, 64, 30
1, 736517, Control_c, 1, 64, 30
1, 736524, Note_off_c, 0, 52, 62
1, 736524, Poly_aftertouch_c, 0, 52, 0
1, 736535, Control_c, 0, 64, 70
1, 736535, Control_c, 1, 64, 70
1, 736556, Control_c, 1, 64, 127
1, 736556, Control_c, 0, 64, 127
1, 736565, Note_off_c, 0, 88, 51
1, 736599, Note_on_c, 0, 90, 89
1, 736601, Poly_aftertouch_c, 0, 44, 0
1, 736613, Note_on_c, 0, 93, 85
1, 736623, Poly_aftertouch_c, 0, 88, 0
1, 736636, Note_on_c, 0, 40, 85
1, 736698, Note_off_c, 0, 40, 62
1, 736709, Note_on_c, 0, 95, 62
1, 736752, Note_off_c, 0, 93, 64
1, 736780, Note_off_c, 0, 90, 64
1, 736804, Note_off_c, 0, 92, 64
1, 736931, Note_on_c, 0, 97, 93
1, 736937, Note_on_c, 0, 85, 99
1, 736938, Note_on_c, 0, 45, 100
1, 736950, Note_on_c, 0, 93, 74
1, 736951, Note_on_c, 0, 33, 93
1, 736967, Control_c, 0, 64, 76
1, 736967, Control_c, 1, 64, 76
1, 736976, Note_on_c, 0, 92, 52
1, 736985, Control_c, 0, 64, 29
1, 736985, Control_c, 1, 64, 29
1, 737004, Control_c, 1, 64, 0
1, 737004, Control_c, 0, 64, 0
1, 737038, Note_off_c, 0, 95, 35
1, 737039, Poly_aftertouch_c, 0, 95, 0
1, 737303, Control_c, 0, 64, 48
1, 737303, Control_c, 1, 64, 48
1, 737322, Control_c, 1, 64, 91
1, 737322, Control_c, 0, 64, 91
1, 737340, Control_c, 0, 64, 127
1, 737340, Control_c, 1, 64, 127
1, 737421, Poly_aftertouch_c, 0, 96, 0
1, 737538, Note_off_c, 0, 93, 61
1, 737539, Note_off_c, 0, 97, 64
1, 737547, Note_off_c, 0, 92, 33
1, 737601, Note_off_c, 0, 85, 62
1, 737624, Note_off_c, 0, 33, 39
1, 737663, Note_off_c, 0, 45, 58
1, 737802, Note_on_c, 0, 45, 97
1, 737804, Note_on_c, 0, 33, 90
1, 737828, Control_c, 0, 64, 81
1, 737828, Control_c, 1, 64, 81
1, 737846, Control_c, 1, 64, 12
1, 737846, Control_c, 0, 64, 12
1, 737864, Control_c, 0, 64, 0
1, 737864, Control_c, 1, 64, 0
1, 737907, Note_on_c, 0, 81, 105
1, 737908, Note_on_c, 0, 93, 105
1, 737912, Note_on_c, 0, 85, 100
1, 737920, Control_c, 0, 64, 41
1, 737920, Control_c, 1, 64, 41
1, 737924, Note_off_c, 0, 33, 61
1, 737940, Control_c, 0, 64, 127
1, 737940, Control_c, 1, 64, 127
1, 738007, Note_off_c, 0, 45, 61
1, 738052, Note_off_c, 0, 85, 56
1, 738057, Note_on_c, 0, 47, 86
1, 738074, Note_off_c, 0, 93, 48
1, 738082, Note_on_c, 0, 86, 88
1, 738159, Note_off_c, 0, 81, 58
1, 738170, Note_on_c, 0, 88, 82
1, 738179, Note_on_c, 0, 49, 87
1, 738191, Note_off_c, 0, 47, 59
1, 738202, Note_off_c, 0, 86, 64
1, 738240, Note_off_c, 0, 49, 64
1, 738249, Note_off_c, 0, 88, 64
1, 738295, Note_on_c, 0, 77, 99
1, 738295, Note_on_c, 0, 89, 96
1, 738299, Note_on_c, 0, 50, 93
1, 738305, Note_on_c, 0, 38, 88
1, 738333, Control_c, 0, 64, 71
1, 738333, Control_c, 1, 64, 71
1, 738349, Note_off_c, 0, 38, 62
1, 738352, Control_c, 0, 64, 25
1, 738352, Control_c, 1, 64, 25
1, 738366, Note_off_c, 0, 89, 64
1, 738369, Control_c, 0, 64, 0
1, 738369, Control_c, 1, 64, 0
1, 738419, Note_on_c, 0, 79, 93
1, 738421, Note_off_c, 0, 50, 64
1, 738439, Note_on_c, 0, 52, 91
1, 738441, Note_off_c, 0, 77, 62
1, 738518, Note_on_c, 0, 81, 85
1, 738548, Note_off_c, 0, 79, 65
1, 738548, Note_on_c, 0, 53, 88
1, 738560, Note_off_c, 0, 52, 61
1, 738560, Poly_aftertouch_c, 0, 52, 0
1, 738593, Note_off_c, 0, 81, 62
1, 738607, Note_off_c, 0, 53, 64
1, 738633, Control_c, 0, 64, 56
1, 738633, Control_c, 1, 64, 56
1, 738650, Control_c, 1, 64, 127
1, 738650, Control_c, 0, 64, 127
1, 738654, Note_on_c, 0, 85, 101
1, 738660, Note_on_c, 0, 73, 96
1, 738661, Note_on_c, 0, 55, 93
1, 738673, Note_on_c, 0, 82, 80
1, 738674, Note_on_c, 0, 43, 81
1, 738688, Note_on_c, 0, 41, 63
1, 738689, Note_off_c, 0, 41, 127
1, 738697, Note_off_c, 0, 73, 66
1, 738701, Note_on_c, 0, 86, 51
1, 738706, Note_off_c, 0, 82, 64
1, 738714, Note_off_c, 0, 43, 63
1, 738731, Note_on_c, 0, 74, 10
1, 738732, Note_off_c, 0, 74, 127
1, 738733, Note_off_c, 0, 86, 58
1, 738738, Note_off_c, 0, 85, 63
1, 738740, Note_off_c, 0, 55, 53
1, 738763, Note_on_c, 0, 82, 54
1, 738793, Note_on_c, 0, 81, 80
1, 738796, Note_on_c, 0, 80, 58
1, 738800, Note_on_c, 0, 53, 90
1, 738806, Note_off_c, 0, 82, 53
1, 738812, Poly_aftertouch_c, 0, 74, 0
1, 738820, Note_off_c, 0, 80, 64
1, 738826, Note_on_c, 0, 83, 32
1, 738871, Note_off_c, 0, 83, 30
1, 738882, Note_off_c, 0, 53, 63
1, 738886, Note_on_c, 0, 52, 71
1, 738899, Note_on_c, 0, 79, 85
1, 738906, Note_off_c, 0, 81, 62
1, 738945, Note_off_c, 0, 52, 60
1, 738945, Poly_aftertouch_c, 0, 52, 0
1, 738954, Note_off_c, 0, 79, 64
1, 739021, Note_on_c, 0, 86, 95
1, 739027, Note_on_c, 0, 50, 91
1, 739028, Note_on_c, 0, 77, 85
1, 739029, Note_on_c, 0, 74, 85
1, 739030, Note_off_c, 0, 74, 127
1, 739036, Note_on_c, 0, 38, 75
1, 739044, Control_c, 0, 64, 67
1, 739044, Control_c, 1, 64, 67
1, 739059, Note_on_c, 0, 76, 52
1, 739060, Note_off_c, 0, 77, 62
1, 739060, Note_off_c, 0, 76, 127
1, 739062, Control_c, 0, 64, 17
1, 739062, Control_c, 1, 64, 17
1, 739068, Note_off_c, 0, 38, 59
1, 739081, Control_c, 0, 64, 0
1, 739081, Control_c, 1, 64, 0
1, 739084, Poly_aftertouch_c, 0, 74, 127
1, 739087, Note_off_c, 0, 50, 62
1, 739134, Note_on_c, 0, 77, 58
1, 739146, Note_on_c, 0, 76, 54
1, 739149, Note_off_c, 0, 86, 60
1, 739152, Note_on_c, 0, 74, 46
1, 739156, Note_on_c, 0, 52, 85
1, 739160, Note_on_c, 0, 79, 83
1, 739169, Note_off_c, 0, 77, 62
1, 739173, Control_c, 0, 64, 18
1, 739173, Control_c, 1, 64, 18
1, 739194, Control_c, 1, 64, 69
1, 739194, Control_c, 0, 64, 69
1, 739213, Control_c, 0, 64, 127
1, 739213, Control_c, 1, 64, 127
1, 739216, Note_off_c, 0, 76, 50
1, 739224, Note_off_c, 0, 74, 53
1, 739224, Poly_aftertouch_c, 0, 74, 0
1, 739264, Note_on_c, 0, 53, 82
1, 739264, Note_on_c, 0, 81, 80
1, 739271, Note_off_c, 0, 52, 60
1, 739271, Poly_aftertouch_c, 0, 52, 0
1, 739294, Note_off_c, 0, 79, 62
1, 739321, Note_off_c, 0, 53, 62
1, 739343, Control_c, 0, 64, 83
1, 739343, Control_c, 1, 64, 83
1, 739363, Control_c, 1, 64, 30
1, 739363, Control_c, 0, 64, 30
1, 739373, Note_on_c, 0, 83, 90
1, 739379, Note_on_c, 0, 71, 89
1, 739382, Control_c, 0, 64, 0
1, 739382, Control_c, 1, 64, 0
1, 739394, Note_on_c, 0, 55, 85
1, 739394, Note_on_c, 0, 43, 83
1, 739408, Note_off_c, 0, 81, 55
1, 739424, Note_off_c, 0, 43, 68
1, 739437, Control_c, 0, 64, 37
1, 739437, Control_c, 1, 64, 37
1, 739456, Control_c, 1, 64, 101
1, 739456, Control_c, 0, 64, 101
1, 739475, Control_c, 0, 64, 127
1, 739475, Control_c, 1, 64, 127
1, 739502, Note_on_c, 0, 73, 84
1, 739523, Note_on_c, 0, 57, 81
1, 739608, Note_on_c, 0, 59, 85
1, 739612, Note_off_c, 0, 55, 41
1, 739613, Poly_aftertouch_c, 0, 55, 0
1, 739618, Note_off_c, 0, 57, 62
1, 739622, Note_on_c, 0, 74, 69
1, 739655, Note_off_c, 0, 83, 62
1, 739658, Note_off_c, 0, 59, 66
1, 739659, Note_off_c, 0, 73, 31
1, 739674, Note_off_c, 0, 71, 60
1, 739682, Note_off_c, 0, 74, 63
1, 739682, Poly_aftertouch_c, 0, 74, 0
1, 739699, Control_c, 0, 64, 98
1, 739699, Control_c, 1, 64, 98
1, 739719, Control_c, 1, 64, 44
1, 739719, Control_c, 0, 64, 44
1, 739737, Control_c, 0, 64, 0
1, 739737, Control_c, 1, 64, 0
1, 739749, Note_on_c, 0, 45, 88
1, 739752, Note_on_c, 0, 57, 89
1, 739757, Note_on_c, 0, 69, 94
1, 739761, Note_on_c, 0, 81, 91
1, 739770, Note_on_c, 0, 73, 87
1, 739791, Note_off_c, 0, 45, 65
1, 739791, Control_c, 0, 64, 42
1, 739791, Control_c, 1, 64, 42
1, 739812, Control_c, 1, 64, 127
1, 739812, Control_c, 0, 64, 127
1, 739870, Note_off_c, 0, 73, 58
1, 739889, Note_on_c, 0, 59, 82
1, 739889, Note_on_c, 0, 74, 83
1, 739890, Note_off_c, 0, 57, 59
1, 739906, Note_off_c, 0, 81, 51
1, 739993, Note_on_c, 0, 76, 83
1, 739998, Note_on_c, 0, 61, 87
1, 740003, Note_off_c, 0, 69, 56
1, 740003, Poly_aftertouch_c, 0, 69, 0
1, 740007, Note_off_c, 0, 59, 61
1, 740025, Note_off_c, 0, 74, 62
1, 740025, Poly_aftertouch_c, 0, 74, 0
1, 740057, Note_off_c, 0, 76, 65
1, 740071, Note_off_c, 0, 61, 62
1, 740092, Control_c, 0, 64, 67
1, 740092, Control_c, 1, 64, 67
1, 740120, Note_on_c, 0, 77, 64
1, 740120, Note_on_c, 0, 65, 95
1, 740121, Note_on_c, 0, 62, 89
1, 740127, Note_on_c, 0, 50, 88
1, 740127, Control_c, 0, 64, 0
1, 740127, Control_c, 1, 64, 0
1, 740186, Note_off_c, 0, 65, 60
1, 740186, Control_c, 0, 64, 27
1, 740186, Control_c, 1, 64, 27
1, 740205, Control_c, 1, 64, 75
1, 740205, Control_c, 0, 64, 75
1, 740223, Control_c, 0, 64, 127
1, 740223, Control_c, 1, 64, 127
1, 740251, Note_off_c, 0, 62, 64
1, 740252, Note_on_c, 0, 76, 81
1, 740261, Note_on_c, 0, 60, 78
1, 740272, Note_on_c, 0, 67, 23
1, 740289, Note_off_c, 0, 67, 48
1, 740348, Note_on_c, 0, 58, 80
1, 740352, Note_on_c, 0, 74, 79
1, 740360, Note_off_c, 0, 60, 62
1, 740364, Note_off_c, 0, 50, 59
1, 740391, Note_off_c, 0, 77, 37
1, 740404, Note_off_c, 0, 76, 62
1, 740410, Note_off_c, 0, 58, 67
1, 740430, Note_off_c, 0, 74, 62
1, 740430, Poly_aftertouch_c, 0, 74, 0
1, 740448, Control_c, 0, 64, 115
1, 740448, Control_c, 1, 64, 115
1, 740467, Control_c, 1, 64, 52
1, 740467, Control_c, 0, 64, 52
1, 740481, Note_on_c, 0, 81, 95
1, 740482, Note_on_c, 0, 73, 89
1, 740484, Control_c, 0, 64, 0
1, 740484, Control_c, 1, 64, 0
1, 740493, Note_on_c, 0, 57, 86
1, 740496, Note_on_c, 0, 69, 83
1, 740497, Note_on_c, 0, 45, 83
1, 740541, Control_c, 0, 64, 19
1, 740541, Control_c, 1, 64, 19
1, 740560, Control_c, 1, 64, 66
1, 740560, Control_c, 0, 64, 66
1, 740580, Control_c, 0, 64, 127
1, 740580, Control_c, 1, 64, 127
1, 740610, Note_off_c, 0, 73, 61
1, 740619, Note_on_c, 0, 52, 80
1, 740624, Note_on_c, 0, 74, 83
1, 740645, Note_off_c, 0, 57, 59
1, 740671, Note_off_c, 0, 69, 55
1, 740671, Poly_aftertouch_c, 0, 69, 0
1, 740692, Note_on_c, 0, 49, 80
1, 740701, Note_on_c, 0, 76, 82
1, 740709, Note_off_c, 0, 52, 61
1, 740709, Poly_aftertouch_c, 0, 52, 0
1, 740717, Note_off_c, 0, 45, 59
1, 740728, Note_off_c, 0, 74, 60
1, 740728, Poly_aftertouch_c, 0, 74, 0
1, 740749, Note_off_c, 0, 49, 62
1, 740754, Note_off_c, 0, 76, 64
1, 740775, Note_off_c, 0, 81, 58
1, 740804, Control_c, 0, 64, 72
1, 740804, Control_c, 1, 64, 72
1, 740810, Poly_aftertouch_c, 0, 81, 0
1, 740823, Control_c, 0, 64, 0
1, 740823, Control_c, 1, 64, 0
1, 740838, Note_on_c, 0, 89, 97
1, 740841, Note_on_c, 0, 31, 87
1, 740842, Note_on_c, 0, 43, 98
1, 740843, Note_on_c, 0, 77, 100
1, 740882, Poly_aftertouch_c, 0, 81, 127
1, 740894, Note_off_c, 0, 31, 60
1, 740897, Control_c, 0, 64, 43
1, 740897, Control_c, 1, 64, 43
1, 740904, Note_off_c, 0, 43, 62
1, 740917, Control_c, 0, 64, 127
1, 740917, Control_c, 1, 64, 127
1, 740930, Poly_aftertouch_c, 0, 87, 0
1, 740955, Note_on_c, 0, 43, 40
1, 740971, Note_off_c, 0, 89, 59
1, 740986, Note_off_c, 0, 43, 56
1, 740999, Note_on_c, 0, 45, 82
1, 741003, Note_on_c, 0, 83, 87
1, 741054, Note_off_c, 0, 77, 57
1, 741074, Poly_aftertouch_c, 0, 81, 0
1, 741077, Note_on_c, 0, 84, 79
1, 741086, Note_off_c, 0, 45, 60
1, 741099, Note_on_c, 0, 47, 86
1, 741107, Note_off_c, 0, 83, 57
1, 741138, Note_off_c, 0, 84, 65
1, 741152, Note_off_c, 0, 47, 66
1, 741226, Note_on_c, 0, 48, 95
1, 741233, Control_c, 0, 64, 76
1, 741233, Control_c, 1, 64, 76
1, 741235, Note_on_c, 0, 75, 91
1, 741236, Note_on_c, 0, 36, 80
1, 741245, Note_on_c, 0, 87, 87
1, 741252, Control_c, 0, 64, 15
1, 741252, Control_c, 1, 64, 15
1, 741253, Note_on_c, 0, 85, 86
1, 741254, Note_on_c, 0, 73, 73
1, 741256, Note_on_c, 0, 38, 65
1, 741270, Control_c, 0, 64, 0
1, 741270, Control_c, 1, 64, 0
1, 741275, Note_off_c, 0, 73, 42
1, 741278, Note_off_c, 0, 36, 68
1, 741281, Note_off_c, 0, 85, 57
1, 741305, Note_off_c, 0, 38, 63
1, 741308, Note_off_c, 0, 87, 66
1, 741309, Control_c, 0, 64, 21
1, 741309, Control_c, 1, 64, 21
1, 741312, Note_off_c, 0, 75, 64
1, 741327, Control_c, 0, 64, 64
1, 741327, Control_c, 1, 64, 64
1, 741342, Note_off_c, 0, 48, 64
1, 741342, Note_on_c, 0, 48, 27
1, 741346, Control_c, 0, 64, 127
1, 741346, Control_c, 1, 64, 127
1, 741374, Note_on_c, 0, 50, 84
1, 741376, Note_on_c, 0, 76, 65
1, 741377, Note_off_c, 0, 48, 60
1, 741401, Note_on_c, 0, 77, 54
1, 741429, Poly_aftertouch_c, 0, 73, 0
1, 741479, Note_off_c, 0, 77, 64
1, 741479, Note_on_c, 0, 77, 25
1, 741480, Note_off_c, 0, 50, 53
1, 741489, Note_on_c, 0, 51, 84
1, 741529, Note_off_c, 0, 76, 39
1, 741537, Note_off_c, 0, 77, 62
1, 741546, Note_off_c, 0, 51, 62
1, 741551, Control_c, 0, 64, 93
1, 741551, Control_c, 1, 64, 93
1, 741572, Control_c, 1, 64, 33
1, 741572, Control_c, 0, 64, 33
1, 741590, Control_c, 0, 64, 0
1, 741590, Control_c, 1, 64, 0
1, 741595, Note_on_c, 0, 83, 99
1, 741604, Note_on_c, 0, 53, 90
1, 741604, Note_on_c, 0, 71, 81
1, 741611, Note_on_c, 0, 69, 79
1, 741613, Note_on_c, 0, 41, 86
1, 741620, Note_on_c, 0, 80, 71
1, 741634, Note_off_c, 0, 69, 50
1, 741634, Poly_aftertouch_c, 0, 69, 0
1, 741642, Note_off_c, 0, 71, 62
1, 741646, Control_c, 0, 64, 19
1, 741646, Control_c, 1, 64, 19
1, 741664, Control_c, 1, 64, 66
1, 741664, Control_c, 0, 64, 66
1, 741674, Note_off_c, 0, 83, 60
1, 741677, Note_off_c, 0, 41, 61
1, 741682, Control_c, 0, 64, 127
1, 741682, Control_c, 1, 64, 127
1, 741698, Note_off_c, 0, 80, 64
1, 741698, Note_on_c, 0, 80, 32
1, 741722, Note_on_c, 0, 51, 83
1, 741726, Note_on_c, 0, 79, 80
1, 741728, Note_off_c, 0, 80, 60
1, 741741, Note_off_c, 0, 53, 53
1, 741742, Poly_aftertouch_c, 0, 53, 0
1, 741751, Note_on_c, 0, 78, 23
1, 741806, Note_off_c, 0, 78, 50
1, 741816, Poly_aftertouch_c, 0, 81, 0
1, 741823, Note_on_c, 0, 50, 82
1, 741824, Note_off_c, 0, 51, 60
1, 741829, Note_on_c, 0, 77, 75
1, 741841, Note_off_c, 0, 79, 58
1, 741881, Note_off_c, 0, 50, 64
1, 741886, Note_off_c, 0, 77, 63
1, 741926, Control_c, 0, 64, 95
1, 741926, Control_c, 1, 64, 95
1, 741946, Control_c, 1, 64, 36
1, 741946, Control_c, 0, 64, 36
1, 741958, Note_on_c, 0, 84, 89
1, 741965, Control_c, 0, 64, 0
1, 741965, Control_c, 1, 64, 0
1, 741971, Note_on_c, 0, 48, 84
1, 741977, Note_on_c, 0, 72, 83
1, 741978, Note_on_c, 0, 75, 85
1, 741978, Note_on_c, 0, 36, 81
1, 742003, Note_off_c, 0, 36, 66
1, 742020, Control_c, 0, 64, 21
1, 742020, Control_c, 1, 64, 21
1, 742028, Note_off_c, 0, 48, 59
1, 742040, Control_c, 0, 64, 70
1, 742040, Control_c, 1, 64, 70
1, 742058, Control_c, 1, 64, 127
1, 742058, Control_c, 0, 64, 127
1, 742095, Note_on_c, 0, 77, 85
1, 742102, Note_off_c, 0, 84, 59
1, 742104, Note_on_c, 0, 50, 81
1, 742109, Note_off_c, 0, 75, 63
1, 742129, Poly_aftertouch_c, 0, 38, 127
1, 742131, Poly_aftertouch_c, 0, 38, 0
1, 742144, Note_off_c, 0, 72, 56
1, 742171, Poly_aftertouch_c, 0, 36, 0
1, 742208, Note_on_c, 0, 51, 84
1, 742211, Note_off_c, 0, 50, 61
1, 742223, Note_on_c, 0, 79, 82
1, 742245, Note_off_c, 0, 77, 54
1, 742266, Note_off_c, 0, 51, 63
1, 742282, Control_c, 0, 64, 101
1, 742282, Control_c, 1, 64, 101
1, 742301, Control_c, 1, 64, 38
1, 742301, Control_c, 0, 64, 38
1, 742319, Control_c, 0, 64, 0
1, 742319, Control_c, 1, 64, 0
1, 742328, Note_on_c, 0, 81, 92
1, 742332, Note_on_c, 0, 53, 88
1, 742333, Note_on_c, 0, 69, 93
1, 742334, Note_on_c, 0, 41, 86
1, 742360, Note_off_c, 0, 79, 60
1, 742370, Note_off_c, 0, 41, 66
1, 742394, Control_c, 0, 64, 21
1, 742394, Control_c, 1, 64, 21
1, 742401, Note_off_c, 0, 53, 57
1, 742409, Note_off_c, 0, 81, 59
1, 742412, Control_c, 0, 64, 69
1, 742412, Control_c, 1, 64, 69
1, 742432, Control_c, 1, 64, 127
1, 742432, Control_c, 0, 64, 127
1, 742470, Note_on_c, 0, 55, 82
1, 742475, Note_on_c, 0, 71, 79
1, 742478, Poly_aftertouch_c, 0, 43, 0
1, 742489, Note_off_c, 0, 69, 60
1, 742489, Poly_aftertouch_c, 0, 69, 0
1, 742570, Note_on_c, 0, 57, 80
1, 742571, Note_on_c, 0, 72, 79
1, 742576, Note_off_c, 0, 55, 62
1, 742578, Note_off_c, 0, 71, 63
1, 742627, Note_off_c, 0, 57, 64
1, 742657, Control_c, 0, 64, 69
1, 742657, Control_c, 1, 64, 69
1, 742666, Note_off_c, 0, 72, 58
1, 742675, Control_c, 0, 64, 0
1, 742675, Control_c, 1, 64, 0
1, 742689, Note_on_c, 0, 67, 84
1, 742690, Note_on_c, 0, 79, 91
1, 742692, Note_on_c, 0, 71, 86
1, 742703, Note_on_c, 0, 55, 86
1, 742704, Note_on_c, 0, 43, 83
1, 742738, Note_off_c, 0, 43, 65
1, 742750, Control_c, 0, 64, 26
1, 742750, Control_c, 1, 64, 26
1, 742769, Control_c, 1, 64, 71
1, 742769, Control_c, 0, 64, 71
1, 742777, Note_off_c, 0, 55, 63
1, 742788, Control_c, 0, 64, 127
1, 742788, Control_c, 1, 64, 127
1, 742804, Note_off_c, 0, 71, 64
1, 742804, Note_on_c, 0, 71, 35
1, 742815, Note_off_c, 0, 79, 60
1, 742821, Note_on_c, 0, 72, 80
1, 742841, Poly_aftertouch_c, 0, 45, 0
1, 742845, Note_on_c, 0, 57, 79
1, 742876, Note_off_c, 0, 71, 54
1, 742887, Note_off_c, 0, 67, 56
1, 742935, Note_on_c, 0, 74, 85
1, 742943, Note_on_c, 0, 59, 77
1, 742950, Note_off_c, 0, 57, 61
1, 742955, Note_off_c, 0, 72, 59
1, 743001, Note_off_c, 0, 59, 64
1, 743005, Note_off_c, 0, 74, 59
1, 743005, Poly_aftertouch_c, 0, 74, 0
1, 743031, Control_c, 0, 64, 87
1, 743031, Control_c, 1, 64, 87
1, 743052, Control_c, 1, 64, 34
1, 743052, Control_c, 0, 64, 34
1, 743064, Note_on_c, 0, 75, 87
1, 743066, Note_on_c, 0, 60, 86
1, 743067, Note_on_c, 0, 63, 88
1, 743068, Note_on_c, 0, 48, 82
1, 743069, Control_c, 0, 64, 0
1, 743069, Control_c, 1, 64, 0
1, 743091, Note_on_c, 0, 76, 66
1, 743116, Note_off_c, 0, 76, 61
1, 743124, Control_c, 0, 64, 21
1, 743124, Control_c, 1, 64, 21
1, 743131, Note_off_c, 0, 63, 65
1, 743143, Control_c, 0, 64, 64
1, 743143, Control_c, 1, 64, 64
1, 743152, Note_off_c, 0, 75, 61
1, 743162, Control_c, 0, 64, 127
1, 743162, Control_c, 1, 64, 127
1, 743181, Note_on_c, 0, 74, 79
1, 743202, Note_on_c, 0, 58, 74
1, 743207, Note_off_c, 0, 60, 59
1, 743286, Note_on_c, 0, 56, 80
1, 743294, Note_on_c, 0, 72, 76
1, 743301, Note_off_c, 0, 48, 58
1, 743308, Note_off_c, 0, 58, 63
1, 743343, Note_off_c, 0, 56, 63
1, 743344, Note_off_c, 0, 74, 56
1, 743344, Poly_aftertouch_c, 0, 74, 0
1, 743388, Control_c, 0, 64, 84
1, 743388, Control_c, 1, 64, 84
1, 743397, Note_off_c, 0, 72, 51
1, 743405, Control_c, 0, 64, 30
1, 743405, Control_c, 1, 64, 30
1, 743409, Note_on_c, 0, 79, 88
1, 743419, Note_on_c, 0, 67, 84
1, 743419, Note_on_c, 0, 71, 83
1, 743423, Control_c, 0, 64, 0
1, 743423, Control_c, 1, 64, 0
1, 743432, Note_on_c, 0, 55, 81
1, 743437, Note_on_c, 0, 43, 84
1, 743480, Control_c, 0, 64, 32
1, 743480, Control_c, 1, 64, 32
1, 743499, Control_c, 1, 64, 82
1, 743499, Control_c, 0, 64, 82
1, 743518, Control_c, 0, 64, 127
1, 743518, Control_c, 1, 64, 127
1, 743542, Note_off_c, 0, 79, 55
1, 743545, Note_on_c, 0, 50, 83
1, 743548, Note_on_c, 0, 72, 82
1, 743563, Note_off_c, 0, 55, 53
1, 743575, Note_off_c, 0, 43, 57
1, 743608, Note_off_c, 0, 67, 58
1, 743608, Note_on_c, 0, 47, 54
1, 743609, Note_off_c, 0, 71, 58
1, 743613, Note_off_c, 0, 50, 63
1, 743628, Note_on_c, 0, 74, 71
1, 743665, Note_off_c, 0, 47, 63
1, 743666, Note_off_c, 0, 72, 63
1, 743697, Note_off_c, 0, 74, 63
1, 743697, Poly_aftertouch_c, 0, 74, 0
1, 743743, Control_c, 0, 64, 51
1, 743743, Control_c, 1, 64, 51
1, 743761, Control_c, 1, 64, 0
1, 743761, Control_c, 0, 64, 0
1, 743788, Note_on_c, 0, 28, 75
1, 743788, Note_on_c, 0, 41, 81
1, 743789, Note_on_c, 0, 89, 88
1, 743790, Note_on_c, 0, 77, 93
1, 743793, Note_on_c, 0, 40, 69
1, 743793, Note_on_c, 0, 29, 71
1, 743794, Note_on_c, 0, 88, 85
1, 743795, Note_on_c, 0, 81, 82
1, 743796, Note_off_c, 0, 81, 127
1, 743832, Note_off_c, 0, 28, 66
1, 743836, Poly_aftertouch_c, 0, 81, 0
1, 743838, Note_off_c, 0, 41, 67
1, 743842, Note_off_c, 0, 40, 64
1, 743847, Note_off_c, 0, 29, 67
1, 743849, Control_c, 0, 64, 31
1, 743849, Control_c, 1, 64, 31
1, 743853, Note_off_c, 0, 89, 64
1, 743854, Control_c, 0, 64, 78
1, 743854, Control_c, 1, 64, 78
1, 743872, Control_c, 1, 64, 127
1, 743872, Control_c, 0, 64, 127
1, 743884, Note_off_c, 0, 77, 64
1, 743884, Note_on_c, 0, 77, 43
1, 743930, Note_on_c, 0, 43, 74
1, 743944, Note_on_c, 0, 41, 54
1, 743944, Note_on_c, 0, 82, 83
1, 743961, Note_off_c, 0, 88, 59
1, 743973, Note_off_c, 0, 41, 63
1, 743992, Note_off_c, 0, 77, 61
1, 744007, Poly_aftertouch_c, 0, 81, 0
1, 744014, Note_off_c, 0, 43, 63
1, 744024, Note_on_c, 0, 45, 80
1, 744037, Note_on_c, 0, 84, 53
1, 744059, Note_off_c, 0, 45, 66
1, 744090, Note_off_c, 0, 84, 63
1, 744093, Note_off_c, 0, 82, 63
1, 744117, Control_c, 0, 64, 72
1, 744117, Control_c, 1, 64, 72
1, 744135, Control_c, 1, 64, 11
1, 744135, Control_c, 0, 64, 11
1, 744154, Control_c, 0, 64, 0
1, 744154, Control_c, 1, 64, 0
1, 744156, Note_on_c, 0, 46, 86
1, 744158, Note_on_c, 0, 34, 80
1, 744161, Note_on_c, 0, 73, 92
1, 744165, Note_on_c, 0, 85, 93
1, 744191, Control_c, 0, 64, 10
1, 744191, Control_c, 1, 64, 10
1, 744197, Note_off_c, 0, 34, 67
1, 744210, Control_c, 0, 64, 53
1, 744210, Control_c, 1, 64, 53
1, 744220, Note_off_c, 0, 46, 61
1, 744228, Control_c, 0, 64, 127
1, 744228, Control_c, 1, 64, 127
1, 744246, Note_off_c, 0, 85, 64
1, 744276, Poly_aftertouch_c, 0, 32, 0
1, 744295, Note_on_c, 0, 75, 82
1, 744300, Note_on_c, 0, 48, 80
1, 744318, Note_on_c, 0, 78, 47
1, 744371, Note_off_c, 0, 48, 62
1, 744372, Note_off_c, 0, 73, 43
1, 744373, Poly_aftertouch_c, 0, 73, 0
1, 744376, Note_on_c, 0, 77, 73
1, 744391, Note_off_c, 0, 75, 62
1, 744403, Note_on_c, 0, 49, 84
1, 744456, Note_off_c, 0, 78, 43
1, 744458, Note_off_c, 0, 49, 60
1, 744476, Note_off_c, 0, 77, 59
1, 744491, Control_c, 0, 64, 64
1, 744491, Control_c, 1, 64, 64
1, 744495, Note_on_c, 0, 81, 88
1, 744507, Note_on_c, 0, 69, 85
1, 744510, Control_c, 0, 64, 0
1, 744510, Control_c, 1, 64, 0
1, 744515, Note_on_c, 0, 51, 92
1, 744520, Note_on_c, 0, 78, 69
1, 744520, Note_on_c, 0, 39, 88
1, 744553, Note_off_c, 0, 39, 68
1, 744573, Note_off_c, 0, 51, 64
1, 744575, Note_off_c, 0, 69, 55
1, 744575, Poly_aftertouch_c, 0, 69, 0
1, 744584, Control_c, 0, 64, 33
1, 744584, Control_c, 1, 64, 33
1, 744603, Control_c, 1, 64, 76
1, 744603, Control_c, 0, 64, 76
1, 744622, Control_c, 0, 64, 127
1, 744622, Control_c, 1, 64, 127
1, 744632, Note_on_c, 0, 77, 78
1, 744637, Note_off_c, 0, 81, 53
1, 744648, Note_on_c, 0, 53, 86
1, 744666, Note_on_c, 0, 79, 50
1, 744698, Note_off_c, 0, 79, 57
1, 744707, Note_off_c, 0, 53, 62
1, 744734, Note_off_c, 0, 78, 38
1, 744752, Note_on_c, 0, 75, 81
1, 744756, Note_on_c, 0, 54, 82
1, 744758, Note_off_c, 0, 77, 61
1, 744809, Control_c, 0, 64, 103
1, 744809, Control_c, 1, 64, 103
1, 744815, Note_off_c, 0, 54, 63
1, 744823, Note_off_c, 0, 75, 64
1, 744828, Control_c, 0, 64, 49
1, 744828, Control_c, 1, 64, 49
1, 744847, Control_c, 1, 64, 0
1, 744847, Control_c, 0, 64, 0
1, 744857, Note_on_c, 0, 82, 91
1, 744858, Note_on_c, 0, 58, 92
1, 744862, Note_on_c, 0, 46, 87
1, 744863, Note_on_c, 0, 70, 90
1, 744885, Control_c, 0, 64, 23
1, 744885, Control_c, 1, 64, 23
1, 744899, Note_off_c, 0, 46, 68
1, 744902, Control_c, 0, 64, 72
1, 744902, Control_c, 1, 64, 72
1, 744910, Note_off_c, 0, 70, 62
1, 744912, Poly_aftertouch_c, 0, 78, 0
1, 744916, Note_off_c, 0, 58, 64
1, 744916, Note_on_c, 0, 83, 31
1, 744921, Control_c, 0, 64, 127
1, 744921, Control_c, 1, 64, 127
1, 744935, Poly_aftertouch_c, 0, 78, 0
1, 744943, Note_off_c, 0, 82, 63
1, 744959, Note_off_c, 0, 83, 33
1, 744965, Note_on_c, 0, 73, 61
1, 744978, Poly_aftertouch_c, 0, 71, 0
1, 744994, Note_on_c, 0, 75, 70
1, 744994, Note_on_c, 0, 60, 86
1, 745003, Note_off_c, 0, 73, 66
1, 745022, Note_on_c, 0, 76, 67
1, 745023, Note_off_c, 0, 75, 51
1, 745043, Note_off_c, 0, 60, 62
1, 745089, Note_on_c, 0, 77, 80
1, 745108, Note_on_c, 0, 61, 86
1, 745116, Note_off_c, 0, 76, 31
1, 745138, Note_off_c, 0, 61, 70
1, 745146, Note_off_c, 0, 77, 62
1, 745240, Control_c, 0, 64, 59
1, 745240, Control_c, 1, 64, 59
1, 745259, Control_c, 1, 64, 0
1, 745259, Control_c, 0, 64, 0
1, 745272, Note_on_c, 0, 87, 92
1, 745273, Note_on_c, 0, 75, 89
1, 745286, Note_on_c, 0, 37, 78
1, 745291, Note_on_c, 0, 25, 75
1, 745294, Note_on_c, 0, 79, 61
1, 745297, Note_on_c, 0, 27, 65
1, 745298, Note_off_c, 0, 27, 127
1, 745300, Note_on_c, 0, 39, 72
1, 745316, Control_c, 0, 64, 18
1, 745316, Control_c, 1, 64, 18
1, 745319, Note_off_c, 0, 79, 63
1, 745327, Note_off_c, 0, 25, 55
1, 745333, Note_off_c, 0, 37, 66
1, 745334, Control_c, 0, 64, 54
1, 745334, Control_c, 1, 64, 54
1, 745338, Poly_aftertouch_c, 0, 27, 0
1, 745342, Note_off_c, 0, 39, 65
1, 745352, Control_c, 0, 64, 103
1, 745352, Control_c, 1, 64, 103
1, 745370, Control_c, 1, 64, 127
1, 745370, Control_c, 0, 64, 127
1, 745408, Note_on_c, 0, 80, 81
1, 745411, Note_off_c, 0, 87, 64
1, 745450, Note_on_c, 0, 41, 65
1, 745459, Note_off_c, 0, 75, 47
1, 745524, Note_on_c, 0, 82, 74
1, 745531, Note_off_c, 0, 41, 62
1, 745539, Note_on_c, 0, 43, 67
1, 745576, Note_off_c, 0, 43, 64
1, 745595, Control_c, 0, 64, 109
1, 745595, Control_c, 1, 64, 109
1, 745615, Control_c, 1, 64, 53
1, 745615, Control_c, 0, 64, 53
1, 745619, Note_off_c, 0, 80, 41
1, 745620, Poly_aftertouch_c, 0, 44, 127
1, 745624, Poly_aftertouch_c, 0, 44, 0
1, 745629, Note_on_c, 0, 83, 77
1, 745633, Note_on_c, 0, 71, 90
1, 745633, Control_c, 0, 64, 0
1, 745633, Control_c, 1, 64, 0
1, 745656, Note_on_c, 0, 44, 83
1, 745658, Note_off_c, 0, 82, 68
1, 745660, Note_on_c, 0, 32, 80
1, 745689, Control_c, 0, 64, 31
1, 745689, Control_c, 1, 64, 31
1, 745691, Note_off_c, 0, 32, 66
1, 745699, Note_off_c, 0, 44, 60
1, 745707, Control_c, 0, 64, 79
1, 745707, Control_c, 1, 64, 79
1, 745727, Control_c, 1, 64, 127
1, 745727, Control_c, 0, 64, 127
1, 745765, Note_off_c, 0, 83, 54
1, 745775, Note_on_c, 0, 73, 66
1, 745800, Note_on_c, 0, 46, 80
1, 745803, Poly_aftertouch_c, 0, 34, 127
1, 745809, Poly_aftertouch_c, 0, 34, 0
1, 745817, Note_off_c, 0, 71, 60
1, 745817, Note_on_c, 0, 74, 45
1, 745854, Note_off_c, 0, 73, 64
1, 745854, Note_on_c, 0, 73, 60
1, 745862, Note_off_c, 0, 74, 51
1, 745862, Poly_aftertouch_c, 0, 74, 0
1, 745866, Note_on_c, 0, 75, 79
1, 745872, Note_off_c, 0, 73, 64
1, 745900, Note_on_c, 0, 47, 74
1, 745942, Note_off_c, 0, 46, 63
1, 745942, Note_off_c, 0, 47, 65
1, 745970, Control_c, 0, 64, 67
1, 745970, Control_c, 1, 64, 67
1, 745977, Note_on_c, 0, 76, 74
1, 745980, Note_on_c, 0, 79, 83
1, 745988, Control_c, 0, 64, 16
1, 745988, Control_c, 1, 64, 16
1, 745991, Note_on_c, 0, 67, 79
1, 746003, Note_on_c, 0, 49, 84
1, 746007, Control_c, 0, 64, 0
1, 746007, Control_c, 1, 64, 0
1, 746018, Note_on_c, 0, 37, 78
1, 746019, Note_off_c, 0, 75, 63
1, 746045, Control_c, 0, 64, 34
1, 746045, Control_c, 1, 64, 34
1, 746051, Note_off_c, 0, 37, 68
1, 746060, Note_off_c, 0, 49, 59
1, 746063, Control_c, 0, 64, 80
1, 746063, Control_c, 1, 64, 80
1, 746082, Control_c, 1, 64, 127
1, 746082, Control_c, 0, 64, 127
1, 746116, Note_on_c, 0, 75, 85
1, 746144, Note_on_c, 0, 51, 82
1, 746153, Note_off_c, 0, 79, 56
1, 746157, Note_off_c, 0, 76, 62
1, 746196, Note_off_c, 0, 67, 33
1, 746222, Note_off_c, 0, 51, 59
1, 746233, Note_on_c, 0, 73, 81
1, 746238, Note_off_c, 0, 75, 65
1, 746258, Note_on_c, 0, 52, 71
1, 746267, Note_on_c, 0, 53, 46
1, 746297, Note_off_c, 0, 52, 64
1, 746297, Poly_aftertouch_c, 0, 52, 0
1, 746306, Note_off_c, 0, 53, 53
1, 746318, Note_off_c, 0, 73, 64
1, 746326, Control_c, 0, 64, 98
1, 746326, Control_c, 1, 64, 98
1, 746343, Control_c, 1, 64, 52
1, 746343, Control_c, 0, 64, 52
1, 746358, Note_on_c, 0, 80, 85
1, 746362, Control_c, 0, 64, 14
1, 746362, Control_c, 1, 64, 14
1, 746363, Note_on_c, 0, 68, 95
1, 746367, Note_on_c, 0, 56, 88
1, 746378, Note_on_c, 0, 44, 70
1, 746378, Note_on_c, 0, 71, 77
1, 746399, Note_on_c, 0, 78, 48
1, 746400, Control_c, 0, 64, 36
1, 746400, Control_c, 1, 64, 36
1, 746418, Control_c, 1, 64, 73
1, 746418, Control_c, 0, 64, 73
1, 746420, Note_off_c, 0, 44, 63
1, 746426, Note_off_c, 0, 56, 61
1, 746432, Note_off_c, 0, 78, 59
1, 746437, Control_c, 0, 64, 127
1, 746437, Control_c, 1, 64, 127
1, 746483, Note_off_c, 0, 80, 64
1, 746493, Note_on_c, 0, 73, 81
1, 746504, Poly_aftertouch_c, 0, 46, 127
1, 746508, Note_on_c, 0, 58, 87
1, 746518, Note_off_c, 0, 71, 62
1, 746532, Note_off_c, 0, 68, 38
1, 746541, Poly_aftertouch_c, 0, 46, 0
1, 746593, Note_off_c, 0, 58, 61
1, 746617, Note_on_c, 0, 75, 80
1, 746621, Note_on_c, 0, 59, 84
1, 746649, Note_off_c, 0, 59, 70
1, 746657, Note_off_c, 0, 73, 64
1, 746697, Note_off_c, 0, 75, 65
1, 746775, Control_c, 0, 64, 88
1, 746775, Control_c, 1, 64, 88
1, 746795, Control_c, 1, 64, 37
1, 746795, Control_c, 0, 64, 37
1, 746811, Control_c, 0, 64, 0
1, 746811, Control_c, 1, 64, 0
1, 746828, Note_on_c, 0, 77, 80
1, 746828, Note_on_c, 0, 85, 92
1, 746829, Note_on_c, 0, 73, 84
1, 746839, Note_on_c, 0, 37, 90
1, 746840, Note_on_c, 0, 25, 82
1, 746868, Note_on_c, 0, 27, 60
1, 746869, Control_c, 0, 64, 14
1, 746869, Control_c, 1, 64, 14
1, 746877, Note_off_c, 0, 37, 68
1, 746887, Control_c, 0, 64, 48
1, 746887, Control_c, 1, 64, 48
1, 746889, Note_off_c, 0, 25, 67
1, 746906, Control_c, 0, 64, 93
1, 746906, Control_c, 1, 64, 93
1, 746915, Note_off_c, 0, 27, 64
1, 746925, Control_c, 0, 64, 127
1, 746925, Control_c, 1, 64, 127
1, 746932, Note_off_c, 0, 77, 56
1, 746982, Note_off_c, 0, 85, 64
1, 746984, Note_on_c, 0, 78, 80
1, 746995, Note_on_c, 0, 39, 78
1, 747010, Note_off_c, 0, 73, 57
1, 747080, Note_on_c, 0, 80, 73
1, 747105, Note_on_c, 0, 41, 78
1, 747106, Note_off_c, 0, 39, 62
1, 747151, Note_off_c, 0, 78, 58
1, 747175, Note_off_c, 0, 41, 61
1, 747186, Control_c, 0, 64, 64
1, 747186, Control_c, 1, 64, 64
1, 747192, Note_on_c, 0, 81, 85
1, 747197, Note_on_c, 0, 69, 84
1, 747204, Control_c, 0, 64, 20
1, 747204, Control_c, 1, 64, 20
1, 747205, Note_off_c, 0, 80, 67
1, 747220, Note_on_c, 0, 30, 87
1, 747222, Control_c, 0, 64, 0
1, 747222, Control_c, 1, 64, 0
1, 747225, Note_on_c, 0, 42, 79
1, 747262, Control_c, 0, 64, 31
1, 747262, Control_c, 1, 64, 31
1, 747279, Control_c, 1, 64, 69
1, 747279, Control_c, 0, 64, 69
1, 747293, Note_off_c, 0, 30, 62
1, 747297, Note_off_c, 0, 42, 61
1, 747299, Control_c, 0, 64, 127
1, 747299, Control_c, 1, 64, 127
1, 747304, Note_on_c, 0, 79, 47
1, 747318, Note_off_c, 0, 81, 56
1, 747330, Note_on_c, 0, 71, 80
1, 747342, Note_off_c, 0, 69, 58
1, 747342, Poly_aftertouch_c, 0, 69, 0
1, 747367, Poly_aftertouch_c, 0, 32, 0
1, 747383, Poly_aftertouch_c, 0, 29, 0
1, 747384, Note_on_c, 0, 43, 67
1, 747418, Note_off_c, 0, 79, 32
1, 747425, Note_on_c, 0, 73, 83
1, 747432, Note_off_c, 0, 71, 62
1, 747462, Note_off_c, 0, 43, 61
1, 747468, Note_on_c, 0, 45, 72
1, 747484, Note_off_c, 0, 73, 64
1, 747510, Note_off_c, 0, 45, 61
1, 747523, Control_c, 0, 64, 82
1, 747523, Control_c, 1, 64, 82
1, 747542, Control_c, 1, 64, 39
1, 747542, Control_c, 0, 64, 39
1, 747560, Control_c, 0, 64, 0
1, 747560, Control_c, 1, 64, 0
1, 747567, Note_on_c, 0, 47, 84
1, 747572, Note_on_c, 0, 83, 94
1, 747573, Note_on_c, 0, 71, 91
1, 747574, Note_on_c, 0, 35, 80
1, 747580, Note_on_c, 0, 75, 82
1, 747613, Note_off_c, 0, 35, 65
1, 747616, Control_c, 0, 64, 31
1, 747616, Control_c, 1, 64, 31
1, 747635, Control_c, 1, 64, 71
1, 747635, Control_c, 0, 64, 71
1, 747655, Control_c, 0, 64, 127
1, 747655, Control_c, 1, 64, 127
1, 747696, Note_on_c, 0, 76, 82
1, 747702, Note_off_c, 0, 47, 55
1, 747703, Note_off_c, 0, 83, 63
1, 747723, Note_on_c, 0, 49, 83
1, 747777, Note_off_c, 0, 71, 60
1, 747834, Note_on_c, 0, 78, 85
1, 747838, Note_on_c, 0, 51, 80
1, 747841, Note_off_c, 0, 49, 61
1, 747851, Note_off_c, 0, 75, 41
1, 747873, Note_off_c, 0, 76, 57
1, 747910, Note_off_c, 0, 51, 64
1, 747916, Control_c, 0, 64, 80
1, 747916, Control_c, 1, 64, 80
1, 747935, Control_c, 1, 64, 40
1, 747935, Control_c, 0, 64, 40
1, 747956, Note_on_c, 0, 80, 85
1, 747965, Note_on_c, 0, 68, 86
1, 747968, Note_on_c, 0, 40, 82
1, 747968, Note_on_c, 0, 52, 88
1, 747972, Control_c, 0, 64, 0
1, 747972, Control_c, 1, 64, 0
1, 747973, Note_off_c, 0, 78, 66
1, 747981, Note_on_c, 0, 66, 81
1, 747990, Control_c, 0, 64, 19
1, 747990, Control_c, 1, 64, 19
1, 748010, Control_c, 1, 64, 53
1, 748010, Control_c, 0, 64, 53
1, 748017, Note_off_c, 0, 40, 63
1, 748023, Note_off_c, 0, 66, 59
1, 748029, Control_c, 0, 64, 102
1, 748029, Control_c, 1, 64, 102
1, 748039, Note_off_c, 0, 80, 66
1, 748046, Control_c, 0, 64, 127
1, 748046, Control_c, 1, 64, 127
1, 748066, Note_off_c, 0, 68, 62
1, 748087, Note_off_c, 0, 52, 56
1, 748087, Poly_aftertouch_c, 0, 52, 0
1, 748129, Note_on_c, 0, 69, 86
1, 748135, Note_on_c, 0, 54, 80
1, 748238, Note_off_c, 0, 69, 61
1, 748238, Poly_aftertouch_c, 0, 69, 0
1, 748241, Note_on_c, 0, 71, 84
1, 748247, Note_on_c, 0, 56, 80
1, 748285, Note_off_c, 0, 54, 61
1, 748293, Note_off_c, 0, 71, 65
1, 748323, Note_off_c, 0, 56, 63
1, 748329, Control_c, 0, 64, 74
1, 748329, Control_c, 1, 64, 74
1, 748347, Control_c, 1, 64, 29
1, 748347, Control_c, 0, 64, 29
1, 748365, Control_c, 0, 64, 0
1, 748365, Control_c, 1, 64, 0
1, 748379, Note_on_c, 0, 57, 87
1, 748384, Note_on_c, 0, 45, 86
1, 748385, Note_on_c, 0, 69, 92
1, 748386, Note_on_c, 0, 81, 88
1, 748403, Note_on_c, 0, 73, 79
1, 748405, Control_c, 0, 64, 24
1, 748405, Control_c, 1, 64, 24
1, 748414, Note_on_c, 0, 78, 51
1, 748421, Control_c, 0, 64, 65
1, 748421, Control_c, 1, 64, 65
1, 748442, Control_c, 1, 64, 127
1, 748442, Control_c, 0, 64, 127
1, 748449, Note_off_c, 0, 78, 59
1, 748452, Note_off_c, 0, 45, 62
1, 748511, Note_off_c, 0, 73, 57
1, 748551, Note_off_c, 0, 57, 57
1, 748561, Note_on_c, 0, 59, 81
1, 748564, Note_on_c, 0, 74, 88
1, 748624, Note_off_c, 0, 81, 53
1, 748673, Note_on_c, 0, 76, 86
1, 748686, Note_on_c, 0, 61, 79
1, 748695, Note_off_c, 0, 59, 63
1, 748696, Note_off_c, 0, 69, 58
1, 748696, Poly_aftertouch_c, 0, 69, 0
1, 748705, Note_off_c, 0, 74, 63
1, 748705, Poly_aftertouch_c, 0, 74, 0
1, 748713, Poly_aftertouch_c, 0, 57, 0
1, 748766, Note_off_c, 0, 76, 63
1, 748800, Note_off_c, 0, 61, 62
1, 748833, Control_c, 0, 64, 116
1, 748833, Control_c, 1, 64, 116
1, 748839, Note_on_c, 0, 77, 86
1, 748840, Note_on_c, 0, 62, 81
1, 748846, Note_on_c, 0, 65, 90
1, 748850, Note_on_c, 0, 50, 82
1, 748852, Control_c, 0, 64, 59
1, 748852, Control_c, 1, 64, 59
1, 748890, Control_c, 1, 64, 0
1, 748890, Control_c, 0, 64, 0
1, 748927, Control_c, 0, 64, 10
1, 748927, Control_c, 1, 64, 10
1, 748946, Control_c, 1, 64, 44
1, 748946, Control_c, 0, 64, 44
1, 748965, Control_c, 0, 64, 102
1, 748965, Control_c, 1, 64, 102
1, 748983, Control_c, 1, 64, 127
1, 748983, Control_c, 0, 64, 127
1, 749022, Note_on_c, 0, 67, 86
1, 749029, Note_on_c, 0, 57, 79
1, 749052, Note_off_c, 0, 65, 60
1, 749072, Note_off_c, 0, 62, 57
1, 749187, Note_on_c, 0, 69, 93
1, 749201, Note_on_c, 0, 53, 81
1, 749205, Note_off_c, 0, 77, 60
1, 749219, Note_off_c, 0, 67, 63
1, 749231, Note_off_c, 0, 57, 63
1, 749264, Note_off_c, 0, 69, 61
1, 749264, Poly_aftertouch_c, 0, 69, 0
1, 749268, Note_off_c, 0, 50, 58
1, 749275, Note_off_c, 0, 53, 63
1, 749395, Note_on_c, 0, 52, 86
1, 749396, Note_on_c, 0, 40, 82
1, 749399, Note_on_c, 0, 76, 93
1, 749404, Note_on_c, 0, 64, 90
1, 749408, Note_on_c, 0, 68, 86
1, 749414, Control_c, 0, 64, 63
1, 749414, Control_c, 1, 64, 63
1, 749433, Control_c, 1, 64, 11
1, 749433, Control_c, 0, 64, 11
1, 749453, Control_c, 0, 64, 0
1, 749453, Control_c, 1, 64, 0
1, 749509, Control_c, 1, 64, 9
1, 749509, Control_c, 0, 64, 9
1, 749526, Control_c, 0, 64, 40
1, 749526, Control_c, 1, 64, 40
1, 749546, Control_c, 1, 64, 83
1, 749546, Control_c, 0, 64, 83
1, 749564, Control_c, 0, 64, 127
1, 749564, Control_c, 1, 64, 127
1, 749600, Poly_aftertouch_c, 0, 73, 0
1, 749616, Note_on_c, 0, 69, 88
1, 749618, Note_on_c, 0, 47, 80
1, 749647, Note_off_c, 0, 68, 51
1, 749659, Note_off_c, 0, 52, 54
1, 749659, Poly_aftertouch_c, 0, 52, 0
1, 749809, Note_on_c, 0, 71, 89
1, 749811, Note_on_c, 0, 44, 87
1, 749839, Note_off_c, 0, 47, 63
1, 749848, Note_off_c, 0, 40, 57
1, 749868, Note_off_c, 0, 69, 58
1, 749868, Poly_aftertouch_c, 0, 69, 0
1, 749879, Note_off_c, 0, 44, 64
1, 749884, Note_off_c, 0, 76, 54
1, 749892, Note_off_c, 0, 64, 59
1, 749930, Note_off_c, 0, 71, 63
1, 750214, Note_on_c, 0, 76, 89
1, 750221, Note_on_c, 0, 73, 88
1, 750224, Note_on_c, 0, 64, 88
1, 750225, Note_on_c, 0, 69, 85
1, 750245, Note_on_c, 0, 45, 82
1, 750251, Note_on_c, 0, 33, 84
1, 750275, Control_c, 0, 64, 81
1, 750275, Control_c, 1, 64, 81
1, 750293, Control_c, 1, 64, 46
1, 750293, Control_c, 0, 64, 46
1, 750331, Control_c, 0, 64, 0
1, 750331, Control_c, 1, 64, 0
1, 750706, Control_c, 1, 64, 21
1, 750706, Control_c, 0, 64, 21
1, 750725, Control_c, 0, 64, 46
1, 750725, Control_c, 1, 64, 46
1, 750743, Control_c, 1, 64, 66
1, 750743, Control_c, 0, 64, 66
1, 750763, Control_c, 0, 64, 87
1, 750763, Control_c, 1, 64, 87
1, 750780, Control_c, 1, 64, 127
1, 750780, Control_c, 0, 64, 127
1, 750789, Note_off_c, 0, 33, 56
1, 750884, Note_off_c, 0, 45, 58
1, 751271, Poly_aftertouch_c, 0, 69, 24
1, 751279, Note_off_c, 0, 64, 47
1, 751310, Note_off_c, 0, 69, 41
1, 751310, Poly_aftertouch_c, 0, 69, 0
1, 751372, Note_off_c, 0, 73, 57
1, 751387, Note_off_c, 0, 76, 56
1, 752053, Control_c, 0, 64, 115
1, 752053, Control_c, 1, 64, 115
1, 752073, Control_c, 1, 64, 106
1, 752073, Control_c, 0, 64, 106
1, 752091, Control_c, 0, 64, 101
1, 752091, Control_c, 1, 64, 101
1, 752128, Control_c, 1, 64, 94
1, 752128, Control_c, 0, 64, 94
1, 752165, Control_c, 0, 64, 88
1, 752165, Control_c, 1, 64, 88
1, 752184, Control_c, 1, 64, 85
1, 752184, Control_c, 0, 64, 85
1, 752203, Control_c, 0, 64, 82
1, 752203, Control_c, 1, 64, 82
1, 752222, Control_c, 1, 64, 80
1, 752222, Control_c, 0, 64, 80
1, 752240, Control_c, 0, 64, 78
1, 752240, Control_c, 1, 64, 78
1, 752260, Control_c, 1, 64, 76
1, 752260, Control_c, 0, 64, 76
1, 752278, Control_c, 0, 64, 73
1, 752278, Control_c, 1, 64, 73
1, 752297, Control_c, 1, 64, 70
1, 752297, Control_c, 0, 64, 70
1, 752315, Control_c, 0, 64, 67
1, 752315, Control_c, 1, 64, 67
1, 752334, Control_c, 1, 64, 66
1, 752334, Control_c, 0, 64, 66
1, 752353, Control_c, 0, 64, 65
1, 752353, Control_c, 1, 64, 65
1, 752390, Control_c, 1, 64, 64
1, 752390, Control_c, 0, 64, 64
1, 752465, Control_c, 0, 64, 63
1, 752465, Control_c, 1, 64, 63
1, 752503, Control_c, 1, 64, 62
1, 752503, Control_c, 0, 64, 62
1, 752521, Control_c, 0, 64, 60
1, 752521, Control_c, 1, 64, 60
1, 752541, Control_c, 1, 64, 58
1, 752541, Control_c, 0, 64, 58
1, 752559, Control_c, 0, 64, 55
1, 752559, Control_c, 1, 64, 55
1, 752577, Control_c, 1, 64, 51
1, 752577, Control_c, 0, 64, 51
1, 752597, Control_c, 0, 64, 48
1, 752597, Control_c, 1, 64, 48
1, 752615, Control_c, 1, 64, 45
1, 752615, Control_c, 0, 64, 45
1, 752634, Control_c, 0, 64, 43
1, 752634, Control_c, 1, 64, 43
1, 752652, Control_c, 1, 64, 41
1, 752652, Control_c, 0, 64, 41
1, 752708, Control_c, 0, 64, 37
1, 752708, Control_c, 1, 64, 37
1, 752764, Note_on_c, 0, 64, 75
1, 752791, Note_on_c, 0, 52, 47
1, 752877, Control_c, 0, 64, 43
1, 752877, Control_c, 1, 64, 43
1, 752895, Control_c, 1, 64, 56
1, 752895, Control_c, 0, 64, 56
1, 752914, Control_c, 0, 64, 69
1, 752914, Control_c, 1, 64, 69
1, 752933, Control_c, 1, 64, 81
1, 752933, Control_c, 0, 64, 81
1, 752952, Control_c, 0, 64, 96
1, 752952, Control_c, 1, 64, 96
1, 752970, Control_c, 1, 64, 127
1, 752970, Control_c, 0, 64, 127
1, 753275, Note_off_c, 0, 52, 29
1, 753275, Poly_aftertouch_c, 0, 52, 0
1, 753353, Note_on_c, 0, 33, 37
1, 753431, Note_on_c, 0, 65, 74
1, 753438, Control_c, 0, 64, 95
1, 753438, Control_c, 1, 64, 95
1, 753457, Control_c, 1, 64, 63
1, 753457, Control_c, 0, 64, 63
1, 753476, Control_c, 0, 64, 36
1, 753476, Control_c, 1, 64, 36
1, 753486, Note_on_c, 0, 53, 37
1, 753495, Note_off_c, 0, 64, 57
1, 753495, Control_c, 0, 64, 26
1, 753495, Control_c, 1, 64, 26
1, 753532, Control_c, 1, 64, 41
1, 753532, Control_c, 0, 64, 41
1, 753551, Control_c, 0, 64, 66
1, 753551, Control_c, 1, 64, 66
1, 753570, Control_c, 1, 64, 102
1, 753570, Control_c, 0, 64, 102
1, 753588, Control_c, 0, 64, 127
1, 753588, Control_c, 1, 64, 127
1, 753685, Note_off_c, 0, 33, 53
1, 753691, Note_off_c, 0, 53, 37
1, 753797, Poly_aftertouch_c, 0, 35, 0
1, 753811, Note_on_c, 0, 64, 78
1, 753813, Note_on_c, 0, 48, 40
1, 753911, Note_off_c, 0, 48, 52
1, 753931, Note_off_c, 0, 65, 55
1, 753991, Note_on_c, 0, 40, 52
1, 754017, Note_off_c, 0, 64, 60
1, 754187, Note_off_c, 0, 40, 37
1, 754189, Note_on_c, 0, 74, 65
1, 754190, Note_on_c, 0, 72, 69
1, 754217, Note_on_c, 0, 52, 39
1, 754289, Note_off_c, 0, 52, 42
1, 754289, Poly_aftertouch_c, 0, 52, 0
1, 754340, Note_on_c, 0, 45, 49
1, 754341, Note_off_c, 0, 74, 61
1, 754341, Poly_aftertouch_c, 0, 74, 0
1, 754450, Note_off_c, 0, 45, 36
1, 754454, Note_on_c, 0, 69, 80
1, 754480, Note_on_c, 0, 36, 56
1, 754484, Note_off_c, 0, 72, 48
1, 754558, Poly_aftertouch_c, 0, 59, 0
1, 754568, Note_off_c, 0, 36, 61
1, 754603, Poly_aftertouch_c, 0, 57, 0
1, 754607, Note_off_c, 0, 69, 57
1, 754607, Poly_aftertouch_c, 0, 69, 0
1, 754718, Note_on_c, 0, 40, 62
1, 754729, Control_c, 0, 64, 76
1, 754729, Control_c, 1, 64, 76
1, 754732, Note_on_c, 0, 67, 81
1, 754749, Control_c, 0, 64, 47
1, 754749, Control_c, 1, 64, 47
1, 754767, Control_c, 1, 64, 41
1, 754767, Control_c, 0, 64, 41
1, 754786, Control_c, 0, 64, 55
1, 754786, Control_c, 1, 64, 55
1, 754805, Control_c, 1, 64, 80
1, 754805, Control_c, 0, 64, 80
1, 754826, Control_c, 0, 64, 127
1, 754826, Control_c, 1, 64, 127
1, 754846, Poly_aftertouch_c, 0, 55, 127
1, 754868, Note_off_c, 0, 40, 60
1, 754887, Poly_aftertouch_c, 0, 55, 0
1, 754939, Note_off_c, 0, 67, 49
1, 754942, Note_on_c, 0, 55, 60
1, 754988, Note_on_c, 0, 72, 86
1, 755020, Note_off_c, 0, 55, 59
1, 755057, Note_on_c, 0, 48, 50
1, 755108, Poly_aftertouch_c, 0, 60, 127
1, 755141, Poly_aftertouch_c, 0, 60, 0
1, 755251, Note_on_c, 0, 76, 83
1, 755269, Note_on_c, 0, 60, 62
1, 755273, Control_c, 0, 64, 68
1, 755273, Control_c, 1, 64, 68
1, 755286, Note_on_c, 0, 64, 62
1, 755292, Control_c, 0, 64, 43
1, 755292, Control_c, 1, 64, 43
1, 755300, Note_off_c, 0, 72, 45
1, 755309, Control_c, 0, 64, 46
1, 755309, Control_c, 1, 64, 46
1, 755329, Control_c, 1, 64, 65
1, 755329, Control_c, 0, 64, 65
1, 755348, Control_c, 0, 64, 94
1, 755348, Control_c, 1, 64, 94
1, 755360, Note_off_c, 0, 60, 53
1, 755365, Control_c, 0, 64, 127
1, 755365, Control_c, 1, 64, 127
1, 755379, Note_off_c, 0, 48, 52
1, 755408, Note_on_c, 0, 52, 58
1, 755409, Note_off_c, 0, 64, 61
1, 755513, Note_on_c, 0, 74, 80
1, 755540, Note_on_c, 0, 62, 48
1, 755558, Note_on_c, 0, 44, 66
1, 755640, Note_off_c, 0, 76, 61
1, 755671, Note_off_c, 0, 62, 57
1, 755681, Note_off_c, 0, 44, 60
1, 755692, Note_off_c, 0, 74, 61
1, 755692, Poly_aftertouch_c, 0, 74, 0
1, 755710, Note_off_c, 0, 52, 24
1, 755710, Poly_aftertouch_c, 0, 52, 0
1, 755731, Note_on_c, 0, 45, 62
1, 755741, Control_c, 0, 64, 107
1, 755741, Control_c, 1, 64, 107
1, 755760, Control_c, 1, 64, 62
1, 755760, Control_c, 0, 64, 62
1, 755776, Note_on_c, 0, 72, 79
1, 755778, Control_c, 0, 64, 32
1, 755778, Control_c, 1, 64, 32
1, 755796, Control_c, 1, 64, 27
1, 755796, Control_c, 0, 64, 27
1, 755816, Note_on_c, 0, 60, 57
1, 755816, Control_c, 0, 64, 33
1, 755816, Control_c, 1, 64, 33
1, 755835, Control_c, 1, 64, 56
1, 755835, Control_c, 0, 64, 56
1, 755849, Note_off_c, 0, 60, 60
1, 755852, Control_c, 0, 64, 100
1, 755852, Control_c, 1, 64, 100
1, 755872, Control_c, 1, 64, 127
1, 755872, Control_c, 0, 64, 127
1, 755888, Note_off_c, 0, 45, 61
1, 755943, Note_on_c, 0, 60, 69
1, 755978, Note_off_c, 0, 72, 59
1, 756011, Note_on_c, 0, 77, 85
1, 756032, Note_off_c, 0, 60, 59
1, 756060, Note_on_c, 0, 53, 52
1, 756292, Note_on_c, 0, 81, 81
1, 756297, Note_off_c, 0, 77, 56
1, 756304, Control_c, 0, 64, 77
1, 756304, Control_c, 1, 64, 77
1, 756308, Note_on_c, 0, 65, 46
1, 756321, Control_c, 0, 64, 47
1, 756321, Control_c, 1, 64, 47
1, 756322, Note_on_c, 0, 69, 51
1, 756340, Control_c, 0, 64, 35
1, 756340, Control_c, 1, 64, 35
1, 756358, Control_c, 1, 64, 40
1, 756358, Control_c, 0, 64, 40
1, 756377, Control_c, 0, 64, 60
1, 756377, Control_c, 1, 64, 60
1, 756394, Note_off_c, 0, 53, 54
1, 756395, Control_c, 0, 64, 96
1, 756395, Control_c, 1, 64, 96
1, 756414, Control_c, 1, 64, 127
1, 756414, Control_c, 0, 64, 127
1, 756430, Note_off_c, 0, 69, 53
1, 756430, Poly_aftertouch_c, 0, 69, 0
1, 756436, Note_on_c, 0, 57, 61
1, 756445, Note_off_c, 0, 65, 40
1, 756554, Note_on_c, 0, 79, 80
1, 756594, Note_on_c, 0, 49, 55
1, 756595, Note_on_c, 0, 67, 44
1, 756626, Note_off_c, 0, 57, 51
1, 756663, Note_off_c, 0, 81, 60
1, 756668, Poly_aftertouch_c, 0, 69, 0
1, 756707, Note_off_c, 0, 49, 63
1, 756720, Note_off_c, 0, 79, 60
1, 756724, Note_off_c, 0, 67, 30
1, 756766, Note_on_c, 0, 50, 51
1, 756807, Control_c, 0, 64, 111
1, 756807, Control_c, 1, 64, 111
1, 756827, Control_c, 1, 64, 67
1, 756827, Control_c, 0, 64, 67
1, 756845, Note_on_c, 0, 77, 69
1, 756845, Control_c, 0, 64, 40
1, 756845, Control_c, 1, 64, 40
1, 756863, Control_c, 1, 64, 31
1, 756863, Control_c, 0, 64, 31
1, 756884, Note_on_c, 0, 65, 53
1, 756902, Control_c, 0, 64, 44
1, 756902, Control_c, 1, 64, 44
1, 756919, Control_c, 1, 64, 68
1, 756919, Control_c, 0, 64, 68
1, 756939, Control_c, 0, 64, 116
1, 756939, Control_c, 1, 64, 116
1, 756957, Control_c, 1, 64, 127
1, 756957, Control_c, 0, 64, 127
1, 756976, Note_off_c, 0, 65, 53
1, 757004, Note_on_c, 0, 62, 38
1, 757140, Note_on_c, 0, 76, 71
1, 757146, Note_on_c, 0, 57, 42
1, 757168, Note_off_c, 0, 62, 48
1, 757186, Note_on_c, 0, 64, 38
1, 757221, Note_off_c, 0, 77, 56
1, 757312, Note_off_c, 0, 64, 29
1, 757320, Note_off_c, 0, 76, 59
1, 757403, Note_off_c, 0, 57, 57
1, 757443, Note_on_c, 0, 59, 36
1, 757446, Note_on_c, 0, 74, 66
1, 757462, Control_c, 0, 64, 72
1, 757462, Control_c, 1, 64, 72
1, 757470, Note_on_c, 0, 62, 46
1, 757481, Control_c, 0, 64, 46
1, 757481, Control_c, 1, 64, 46
1, 757501, Control_c, 1, 64, 38
1, 757501, Control_c, 0, 64, 38
1, 757538, Control_c, 0, 64, 47
1, 757538, Control_c, 1, 64, 47
1, 757553, Note_off_c, 0, 62, 61
1, 757557, Control_c, 0, 64, 64
1, 757557, Control_c, 1, 64, 64
1, 757575, Control_c, 1, 64, 93
1, 757575, Control_c, 0, 64, 93
1, 757594, Control_c, 0, 64, 127
1, 757594, Control_c, 1, 64, 127
1, 757642, Note_on_c, 0, 57, 42
1, 757657, Note_off_c, 0, 59, 37
1, 757764, Note_on_c, 0, 75, 60
1, 757790, Note_off_c, 0, 50, 35
1, 757810, Note_off_c, 0, 74, 62
1, 757810, Note_on_c, 0, 63, 17
1, 757810, Poly_aftertouch_c, 0, 74, 0
1, 757837, Note_on_c, 0, 53, 38
1, 757882, Note_off_c, 0, 63, 46
1, 758035, Poly_aftertouch_c, 0, 57, 24
1, 758086, Note_on_c, 0, 52, 41
1, 758099, Control_c, 0, 64, 84
1, 758099, Control_c, 1, 64, 84
1, 758102, Note_off_c, 0, 53, 37
1, 758118, Control_c, 0, 64, 52
1, 758118, Control_c, 1, 64, 52
1, 758126, Note_on_c, 0, 77, 64
1, 758137, Control_c, 0, 64, 31
1, 758137, Control_c, 1, 64, 31
1, 758162, Note_off_c, 0, 57, 19
1, 758162, Poly_aftertouch_c, 0, 57, 0
1, 758175, Note_on_c, 0, 65, 32
1, 758187, Note_off_c, 0, 75, 60
1, 758192, Control_c, 0, 64, 49
1, 758192, Control_c, 1, 64, 49
1, 758211, Control_c, 1, 64, 80
1, 758211, Control_c, 0, 64, 80
1, 758227, Note_off_c, 0, 65, 58
1, 758230, Control_c, 0, 64, 127
1, 758230, Control_c, 1, 64, 127
1, 758327, Note_on_c, 0, 60, 47
1, 758388, Note_on_c, 0, 76, 71
1, 758427, Note_off_c, 0, 60, 57
1, 758495, Note_off_c, 0, 77, 57
1, 758498, Note_on_c, 0, 57, 49
1, 758524, Note_off_c, 0, 76, 63
1, 758584, Note_off_c, 0, 57, 59
1, 758584, Poly_aftertouch_c, 0, 57, 0
1, 758662, Note_on_c, 0, 84, 75
1, 758666, Note_on_c, 0, 64, 25
1, 758705, Note_on_c, 0, 72, 48
1, 758761, Note_off_c, 0, 72, 58
1, 758791, Note_off_c, 0, 52, 51
1, 758791, Poly_aftertouch_c, 0, 52, 0
1, 758807, Note_on_c, 0, 57, 44
1, 758827, Note_off_c, 0, 64, 44
1, 758925, Note_off_c, 0, 57, 60
1, 758925, Poly_aftertouch_c, 0, 57, 0
1, 758927, Note_on_c, 0, 81, 78
1, 758954, Note_on_c, 0, 48, 55
1, 758959, Note_off_c, 0, 84, 43
1, 759048, Note_off_c, 0, 48, 61
1, 759068, Note_off_c, 0, 81, 61
1, 759167, Control_c, 0, 64, 77
1, 759167, Control_c, 1, 64, 77
1, 759175, Note_on_c, 0, 52, 60
1, 759180, Note_on_c, 0, 79, 78
1, 759185, Control_c, 0, 64, 49
1, 759185, Control_c, 1, 64, 49
1, 759203, Control_c, 1, 64, 40
1, 759203, Control_c, 0, 64, 40
1, 759220, Note_on_c, 0, 67, 49
1, 759222, Control_c, 0, 64, 47
1, 759222, Control_c, 1, 64, 47
1, 759242, Control_c, 1, 64, 70
1, 759242, Control_c, 0, 64, 70
1, 759252, Note_off_c, 0, 67, 55
1, 759257, Control_c, 0, 64, 127
1, 759257, Control_c, 1, 64, 127
1, 759316, Note_off_c, 0, 52, 61
1, 759316, Poly_aftertouch_c, 0, 52, 0
1, 759361, Note_on_c, 0, 67, 66
1, 759388, Note_off_c, 0, 79, 61
1, 759417, Poly_aftertouch_c, 0, 53, 0
1, 759425, Note_on_c, 0, 84, 87
1, 759468, Note_on_c, 0, 60, 50
1, 759468, Note_on_c, 0, 72, 52
1, 759475, Note_off_c, 0, 67, 55
1, 759496, Note_off_c, 0, 72, 57
1, 759676, Note_on_c, 0, 88, 84
1, 759681, Note_on_c, 0, 72, 53
1, 759690, Control_c, 0, 64, 82
1, 759690, Control_c, 1, 64, 82
1, 759704, Note_off_c, 0, 84, 54
1, 759707, Note_on_c, 0, 76, 64
1, 759711, Control_c, 0, 64, 52
1, 759711, Control_c, 1, 64, 52
1, 759728, Control_c, 1, 64, 40
1, 759728, Control_c, 0, 64, 40
1, 759746, Control_c, 0, 64, 44
1, 759746, Control_c, 1, 64, 44
1, 759766, Control_c, 1, 64, 61
1, 759766, Control_c, 0, 64, 61
1, 759784, Control_c, 0, 64, 92
1, 759784, Control_c, 1, 64, 92
1, 759802, Note_off_c, 0, 76, 56
1, 759802, Control_c, 0, 64, 127
1, 759802, Control_c, 1, 64, 127
1, 759838, Note_off_c, 0, 72, 53
1, 759867, Note_off_c, 0, 60, 61
1, 759871, Note_on_c, 0, 64, 65
1, 759920, Note_on_c, 0, 86, 85
1, 759945, Note_on_c, 0, 74, 66
1, 760038, Note_on_c, 0, 85, 38
1, 760039, Poly_aftertouch_c, 0, 76, 0
1, 760047, Note_on_c, 0, 56, 61
1, 760062, Note_off_c, 0, 88, 63
1, 760078, Note_off_c, 0, 85, 55
1, 760087, Note_off_c, 0, 74, 42
1, 760087, Poly_aftertouch_c, 0, 74, 0
1, 760124, Note_off_c, 0, 86, 63
1, 760137, Note_off_c, 0, 64, 28
1, 760146, Note_off_c, 0, 56, 63
1, 760195, Control_c, 0, 64, 72
1, 760195, Control_c, 1, 64, 72
1, 760202, Note_on_c, 0, 57, 55
1, 760202, Note_on_c, 0, 84, 79
1, 760214, Control_c, 0, 64, 47
1, 760214, Control_c, 1, 64, 47
1, 760235, Note_on_c, 0, 72, 66
1, 760253, Control_c, 0, 64, 57
1, 760253, Control_c, 1, 64, 57
1, 760271, Control_c, 1, 64, 78
1, 760271, Control_c, 0, 64, 78
1, 760272, Poly_aftertouch_c, 0, 83, 0
1, 760274, Note_off_c, 0, 72, 59
1, 760290, Control_c, 0, 64, 127
1, 760290, Control_c, 1, 64, 127
1, 760344, Note_off_c, 0, 57, 62
1, 760344, Poly_aftertouch_c, 0, 57, 0
1, 760411, Note_on_c, 0, 72, 70
1, 760415, Note_off_c, 0, 84, 63
1, 760457, Note_on_c, 0, 89, 87
1, 760501, Note_on_c, 0, 77, 45
1, 760508, Note_off_c, 0, 72, 56
1, 760531, Note_off_c, 0, 77, 38
1, 760540, Note_on_c, 0, 65, 55
1, 760763, Note_on_c, 0, 93, 86
1, 760780, Note_on_c, 0, 77, 65
1, 760790, Note_on_c, 0, 81, 66
1, 760793, Note_off_c, 0, 89, 55
1, 760794, Control_c, 0, 64, 76
1, 760794, Control_c, 1, 64, 76
1, 760814, Control_c, 1, 64, 53
1, 760814, Control_c, 0, 64, 53
1, 760832, Control_c, 0, 64, 49
1, 760832, Control_c, 1, 64, 49
1, 760851, Control_c, 1, 64, 59
1, 760851, Control_c, 0, 64, 59
1, 760871, Control_c, 0, 64, 77
1, 760871, Control_c, 1, 64, 77
1, 760888, Control_c, 1, 64, 127
1, 760888, Control_c, 0, 64, 127
1, 760916, Note_off_c, 0, 81, 54
1, 760981, Note_on_c, 0, 69, 51
1, 760992, Note_off_c, 0, 65, 38
1, 760997, Note_off_c, 0, 77, 57
1, 761049, Poly_aftertouch_c, 0, 70, 0
1, 761063, Note_on_c, 0, 91, 84
1, 761079, Note_on_c, 0, 79, 69
1, 761186, Note_on_c, 0, 61, 64
1, 761191, Poly_aftertouch_c, 0, 70, 0
1, 761230, Note_off_c, 0, 79, 61
1, 761231, Note_off_c, 0, 93, 62
1, 761257, Note_off_c, 0, 91, 62
1, 761276, Note_off_c, 0, 69, 34
1, 761326, Note_off_c, 0, 61, 63
1, 761340, Note_on_c, 0, 89, 80
1, 761357, Control_c, 0, 64, 73
1, 761357, Control_c, 1, 64, 73
1, 761374, Control_c, 1, 64, 48
1, 761374, Control_c, 0, 64, 48
1, 761376, Note_on_c, 0, 62, 55
1, 761379, Note_on_c, 0, 77, 57
1, 761394, Control_c, 0, 64, 45
1, 761394, Control_c, 1, 64, 45
1, 761412, Control_c, 1, 64, 53
1, 761412, Control_c, 0, 64, 53
1, 761431, Control_c, 0, 64, 69
1, 761431, Control_c, 1, 64, 69
1, 761451, Control_c, 1, 64, 107
1, 761451, Control_c, 0, 64, 107
1, 761468, Control_c, 0, 64, 127
1, 761468, Control_c, 1, 64, 127
1, 761490, Note_off_c, 0, 77, 52
1, 761583, Note_on_c, 0, 74, 50
1, 761621, Note_on_c, 0, 88, 80
1, 761652, Note_on_c, 0, 76, 45
1, 761728, Note_on_c, 0, 69, 55
1, 761736, Poly_aftertouch_c, 0, 77, 0
1, 761757, Note_off_c, 0, 74, 34
1, 761757, Poly_aftertouch_c, 0, 74, 0
1, 761762, Note_off_c, 0, 89, 59
1, 761782, Note_off_c, 0, 76, 37
1, 761822, Note_off_c, 0, 88, 64
1, 761917, Control_c, 0, 64, 79
1, 761917, Control_c, 1, 64, 79
1, 761919, Note_on_c, 0, 86, 80
1, 761938, Control_c, 0, 64, 49
1, 761938, Control_c, 1, 64, 49
1, 761940, Note_off_c, 0, 69, 56
1, 761955, Control_c, 0, 64, 33
1, 761955, Control_c, 1, 64, 33
1, 761971, Note_on_c, 0, 71, 49
1, 761992, Control_c, 0, 64, 45
1, 761992, Control_c, 1, 64, 45
1, 761995, Note_on_c, 0, 74, 11
1, 762011, Control_c, 0, 64, 69
1, 762011, Control_c, 1, 64, 69
1, 762030, Control_c, 1, 64, 127
1, 762030, Control_c, 0, 64, 127
1, 762074, Note_off_c, 0, 74, 36
1, 762074, Poly_aftertouch_c, 0, 74, 0
1, 762112, Note_on_c, 0, 69, 61
1, 762120, Note_off_c, 0, 62, 60
1, 762146, Note_off_c, 0, 71, 50
1, 762237, Note_on_c, 0, 87, 84
1, 762284, Note_on_c, 0, 75, 44
1, 762298, Note_off_c, 0, 86, 63
1, 762319, Note_off_c, 0, 75, 56
1, 762332, Note_on_c, 0, 65, 50
1, 762372, Note_off_c, 0, 69, 54
1, 762514, Note_off_c, 0, 65, 55
1, 762647, Note_on_c, 0, 89, 80
1, 762653, Note_on_c, 0, 73, 59
1, 762668, Control_c, 0, 64, 73
1, 762668, Control_c, 1, 64, 73
1, 762674, Poly_aftertouch_c, 0, 66, 0
1, 762685, Control_c, 0, 64, 48
1, 762685, Control_c, 1, 64, 48
1, 762698, Note_on_c, 0, 77, 37
1, 762702, Control_c, 0, 64, 44
1, 762702, Control_c, 1, 64, 44
1, 762723, Control_c, 1, 64, 55
1, 762723, Control_c, 0, 64, 55
1, 762734, Note_off_c, 0, 87, 60
1, 762741, Control_c, 0, 64, 81
1, 762741, Control_c, 1, 64, 81
1, 762760, Control_c, 1, 64, 127
1, 762760, Control_c, 0, 64, 127
1, 762809, Note_off_c, 0, 77, 24
1, 762940, Note_on_c, 0, 69, 47
1, 762970, Note_on_c, 0, 88, 78
1, 763017, Note_on_c, 0, 76, 23
1, 763023, Note_off_c, 0, 89, 59
1, 763056, Poly_aftertouch_c, 0, 77, 0
1, 763101, Note_off_c, 0, 76, 41
1, 763124, Note_off_c, 0, 73, 60
1, 763133, Note_off_c, 0, 69, 56
1, 763145, Note_on_c, 0, 64, 56
1, 763284, Control_c, 0, 64, 95
1, 763284, Control_c, 1, 64, 95
1, 763305, Control_c, 1, 64, 63
1, 763305, Control_c, 0, 64, 63
1, 763312, Note_on_c, 0, 85, 76
1, 763322, Control_c, 0, 64, 45
1, 763322, Control_c, 1, 64, 45
1, 763335, Note_on_c, 0, 73, 48
1, 763339, Note_off_c, 0, 88, 59
1, 763347, Note_off_c, 0, 64, 52
1, 763350, Note_on_c, 0, 70, 49
1, 763359, Control_c, 0, 64, 56
1, 763359, Control_c, 1, 64, 56
1, 763370, Poly_aftertouch_c, 0, 86, 0
1, 763378, Control_c, 0, 64, 77
1, 763378, Control_c, 1, 64, 77
1, 763396, Control_c, 1, 64, 127
1, 763396, Control_c, 0, 64, 127
1, 763435, Note_off_c, 0, 73, 62
1, 763554, Note_on_c, 0, 67, 51
1, 763603, Note_on_c, 0, 82, 74
1, 763612, Note_off_c, 0, 85, 65
1, 763660, Note_off_c, 0, 70, 64
1, 763660, Note_on_c, 0, 70, 17
1, 763690, Note_off_c, 0, 67, 59
1, 763743, Note_on_c, 0, 64, 46
1, 763747, Note_off_c, 0, 70, 51
1, 763900, Note_off_c, 0, 64, 55
1, 763902, Control_c, 0, 64, 79
1, 763902, Control_c, 1, 64, 79
1, 763919, Control_c, 1, 64, 51
1, 763919, Note_on_c, 0, 80, 68
1, 763919, Control_c, 0, 64, 51
1, 763939, Control_c, 0, 64, 36
1, 763939, Control_c, 1, 64, 36
1, 763945, Note_on_c, 0, 65, 34
1, 763969, Note_on_c, 0, 68, 31
1, 763976, Control_c, 0, 64, 42
1, 763976, Control_c, 1, 64, 42
1, 763993, Note_off_c, 0, 82, 64
1, 763995, Control_c, 0, 64, 59
1, 763995, Control_c, 1, 64, 59
1, 764014, Control_c, 1, 64, 91
1, 764014, Control_c, 0, 64, 91
1, 764033, Control_c, 0, 64, 127
1, 764033, Control_c, 1, 64, 127
1, 764148, Note_on_c, 0, 62, 50
1, 764157, Note_off_c, 0, 68, 42
1, 764190, Note_on_c, 0, 81, 78
1, 764201, Poly_aftertouch_c, 0, 78, 127
1, 764211, Note_on_c, 0, 69, 45
1, 764245, Note_off_c, 0, 69, 52
1, 764255, Poly_aftertouch_c, 0, 78, 0
1, 764259, Note_off_c, 0, 80, 62
1, 764262, Note_off_c, 0, 65, 39
1, 764316, Note_off_c, 0, 62, 59
1, 764355, Note_on_c, 0, 57, 46
1, 764480, Note_off_c, 0, 57, 61
1, 764480, Poly_aftertouch_c, 0, 57, 0
1, 764504, Note_on_c, 0, 62, 49
1, 764514, Note_on_c, 0, 85, 79
1, 764568, Note_on_c, 0, 73, 24
1, 764573, Note_off_c, 0, 81, 62
1, 764622, Note_off_c, 0, 73, 40
1, 764683, Note_on_c, 0, 57, 46
1, 764720, Note_off_c, 0, 62, 37
1, 764802, Note_on_c, 0, 86, 85
1, 764870, Note_on_c, 0, 53, 52
1, 764872, Note_off_c, 0, 85, 64
1, 764874, Note_off_c, 0, 57, 58
1, 764874, Poly_aftertouch_c, 0, 57, 0
1, 764919, Note_off_c, 0, 53, 61
1, 765089, Note_on_c, 0, 68, 61
1, 765156, Control_c, 0, 64, 75
1, 765156, Control_c, 1, 64, 75
1, 765171, Note_on_c, 0, 87, 81
1, 765174, Control_c, 0, 64, 36
1, 765174, Control_c, 1, 64, 36
1, 765193, Control_c, 1, 64, 13
1, 765193, Control_c, 0, 64, 13
1, 765195, Note_on_c, 0, 75, 54
1, 765232, Control_c, 0, 64, 26
1, 765232, Control_c, 1, 64, 26
1, 765250, Control_c, 1, 64, 54
1, 765250, Control_c, 0, 64, 54
1, 765253, Note_off_c, 0, 86, 60
1, 765268, Control_c, 0, 64, 127
1, 765268, Control_c, 1, 64, 127
1, 765424, Note_off_c, 0, 75, 49
1, 765435, Note_on_c, 0, 65, 43
1, 765467, Note_on_c, 0, 86, 77
1, 765492, Note_off_c, 0, 87, 65
1, 765495, Note_on_c, 0, 74, 45
1, 765501, Note_off_c, 0, 68, 54
1, 765535, Note_off_c, 0, 74, 52
1, 765535, Poly_aftertouch_c, 0, 74, 0
1, 765580, Note_off_c, 0, 65, 54
1, 765604, Note_on_c, 0, 62, 49
1, 765736, Control_c, 0, 64, 111
1, 765736, Control_c, 1, 64, 111
1, 765741, Note_off_c, 0, 86, 58
1, 765752, Note_on_c, 0, 83, 71
1, 765755, Control_c, 0, 64, 69
1, 765755, Control_c, 1, 64, 69
1, 765765, Note_on_c, 0, 65, 50
1, 765773, Note_off_c, 0, 62, 50
1, 765773, Control_c, 0, 64, 50
1, 765773, Control_c, 1, 64, 50
1, 765811, Control_c, 1, 64, 56
1, 765811, Control_c, 0, 64, 56
1, 765828, Note_on_c, 0, 71, 21
1, 765828, Control_c, 0, 64, 69
1, 765828, Control_c, 1, 64, 69
1, 765849, Control_c, 1, 64, 98
1, 765849, Control_c, 0, 64, 98
1, 765868, Control_c, 0, 64, 127
1, 765868, Control_c, 1, 64, 127
1, 765889, Note_off_c, 0, 71, 42
1, 765974, Note_on_c, 0, 62, 49
1, 766087, Note_on_c, 0, 80, 70
1, 766092, Note_on_c, 0, 81, 19
1, 766116, Note_off_c, 0, 83, 58
1, 766130, Control_c, 0, 67, 8
1, 766130, Control_c, 1, 67, 8
1, 766141, Note_off_c, 0, 81, 42
1, 766145, Note_on_c, 0, 68, 39
1, 766216, Note_on_c, 0, 59, 43
1, 766223, Note_off_c, 0, 62, 48
1, 766233, Note_off_c, 0, 68, 60
1, 766289, Note_off_c, 0, 65, 23
1, 766426, Note_on_c, 0, 64, 37
1, 766428, Control_c, 0, 64, 93
1, 766428, Control_c, 1, 64, 93
1, 766439, Note_on_c, 0, 78, 67
1, 766446, Control_c, 0, 64, 61
1, 766446, Control_c, 1, 64, 61
1, 766450, Control_c, 1, 67, 12
1, 766450, Control_c, 0, 67, 12
1, 766452, Note_off_c, 0, 59, 58
1, 766467, Control_c, 0, 64, 42
1, 766467, Control_c, 1, 64, 42
1, 766504, Control_c, 1, 64, 51
1, 766504, Control_c, 0, 64, 51
1, 766520, Note_off_c, 0, 80, 60
1, 766523, Control_c, 0, 64, 70
1, 766523, Control_c, 1, 64, 70
1, 766541, Control_c, 1, 64, 127
1, 766541, Control_c, 0, 64, 127
1, 766560, Control_c, 0, 67, 17
1, 766560, Control_c, 1, 67, 17
1, 766573, Poly_aftertouch_c, 0, 66, 127
1, 766598, Control_c, 0, 67, 22
1, 766598, Control_c, 1, 67, 22
1, 766698, Note_on_c, 0, 60, 47
1, 766701, Poly_aftertouch_c, 0, 66, 0
1, 766727, Note_on_c, 0, 79, 70
1, 766740, Note_off_c, 0, 64, 36
1, 766755, Poly_aftertouch_c, 0, 75, 0
1, 766782, Note_off_c, 0, 78, 62
1, 766850, Note_off_c, 0, 60, 57
1, 766906, Note_on_c, 0, 55, 41
1, 766952, Control_c, 0, 67, 28
1, 766952, Control_c, 1, 67, 28
1, 767011, Control_c, 1, 64, 101
1, 767011, Control_c, 0, 64, 101
1, 767023, Note_off_c, 0, 55, 60
1, 767027, Control_c, 0, 64, 66
1, 767027, Control_c, 1, 64, 66
1, 767033, Note_on_c, 0, 83, 57
1, 767047, Control_c, 0, 64, 48
1, 767047, Control_c, 1, 64, 48
1, 767050, Note_on_c, 0, 60, 43
1, 767073, Note_on_c, 0, 81, 42
1, 767083, Control_c, 0, 64, 55
1, 767083, Control_c, 1, 64, 55
1, 767103, Control_c, 1, 64, 68
1, 767103, Control_c, 0, 64, 68
1, 767120, Note_off_c, 0, 79, 60
1, 767120, Note_off_c, 0, 81, 32
1, 767123, Control_c, 0, 64, 91
1, 767123, Control_c, 1, 64, 91
1, 767125, Control_c, 1, 67, 33
1, 767125, Control_c, 0, 67, 33
1, 767140, Control_c, 0, 64, 127
1, 767140, Control_c, 1, 64, 127
1, 767220, Note_on_c, 0, 55, 43
1, 767268, Note_off_c, 0, 60, 32
1, 767334, Note_on_c, 0, 84, 73
1, 767376, Note_off_c, 0, 83, 63
1, 767403, Note_off_c, 0, 55, 52
1, 767408, Note_on_c, 0, 52, 47
1, 767465, Note_off_c, 0, 52, 60
1, 767465, Poly_aftertouch_c, 0, 52, 0
1, 767652, Note_on_c, 0, 51, 47
1, 767665, Control_c, 0, 64, 105
1, 767665, Control_c, 1, 64, 105
1, 767683, Control_c, 1, 64, 66
1, 767683, Control_c, 0, 64, 66
1, 767696, Note_on_c, 0, 85, 73
1, 767702, Control_c, 0, 64, 43
1, 767702, Control_c, 1, 64, 43
1, 767739, Control_c, 1, 64, 55
1, 767739, Control_c, 0, 64, 55
1, 767748, Note_on_c, 0, 73, 27
1, 767755, Control_c, 0, 64, 80
1, 767755, Control_c, 1, 64, 80
1, 767758, Note_off_c, 0, 84, 61
1, 767777, Control_c, 0, 64, 127
1, 767777, Control_c, 1, 64, 127
1, 767884, Note_off_c, 0, 73, 35
1, 767922, Note_on_c, 0, 66, 44
1, 768020, Note_on_c, 0, 84, 76
1, 768034, Note_off_c, 0, 85, 66
1, 768063, Note_off_c, 0, 51, 55
1, 768076, Note_off_c, 0, 66, 50
1, 768083, Note_on_c, 0, 72, 26
1, 768115, Note_on_c, 0, 57, 49
1, 768131, Note_off_c, 0, 72, 39
1, 768140, Note_off_c, 0, 84, 58
1, 768298, Note_off_c, 0, 57, 47
1, 768298, Poly_aftertouch_c, 0, 57, 0
1, 768300, Control_c, 0, 64, 117
1, 768300, Control_c, 1, 64, 117
1, 768320, Control_c, 1, 64, 76
1, 768320, Control_c, 0, 64, 76
1, 768323, Note_on_c, 0, 65, 44
1, 768336, Note_on_c, 0, 81, 55
1, 768338, Control_c, 0, 64, 59
1, 768338, Control_c, 1, 64, 59
1, 768376, Control_c, 1, 64, 65
1, 768376, Control_c, 0, 64, 65
1, 768395, Control_c, 0, 64, 77
1, 768395, Control_c, 1, 64, 77
1, 768401, Note_on_c, 0, 83, 21
1, 768402, Note_off_c, 0, 83, 127
1, 768412, Control_c, 0, 64, 127
1, 768412, Control_c, 1, 64, 127
1, 768470, Control_c, 1, 67, 37
1, 768470, Control_c, 0, 67, 37
1, 768471, Note_off_c, 0, 65, 48
1, 768531, Note_on_c, 0, 50, 50
1, 768589, Note_off_c, 0, 81, 55
1, 768624, Note_on_c, 0, 77, 60
1, 768664, Note_off_c, 0, 50, 59
1, 768710, Note_on_c, 0, 53, 46
1, 768744, Note_off_c, 0, 77, 60
1, 768806, Control_c, 0, 67, 42
1, 768806, Control_c, 1, 67, 42
1, 768825, Control_c, 1, 67, 46
1, 768825, Control_c, 0, 67, 46
1, 768880, Control_c, 0, 67, 50
1, 768880, Control_c, 1, 67, 50
1, 768937, Control_c, 1, 64, 82
1, 768937, Control_c, 0, 64, 82
1, 768953, Note_off_c, 0, 53, 38
1, 768953, Note_on_c, 0, 50, 42
1, 768955, Note_on_c, 0, 84, 67
1, 768957, Control_c, 0, 64, 55
1, 768957, Control_c, 1, 64, 55
1, 768974, Control_c, 1, 64, 40
1, 768974, Control_c, 0, 64, 40
1, 768976, Control_c, 0, 67, 55
1, 768976, Control_c, 1, 67, 55
1, 768998, Note_on_c, 0, 72, 25
1, 769013, Control_c, 0, 64, 42
1, 769013, Control_c, 1, 64, 42
1, 769031, Control_c, 1, 64, 56
1, 769031, Control_c, 0, 64, 56
1, 769050, Control_c, 0, 64, 80
1, 769050, Control_c, 1, 64, 80
1, 769065, Note_off_c, 0, 72, 36
1, 769068, Control_c, 0, 64, 127
1, 769068, Control_c, 1, 64, 127
1, 769106, Control_c, 1, 67, 59
1, 769106, Control_c, 0, 67, 59
1, 769188, Note_on_c, 0, 65, 34
1, 769287, Note_on_c, 0, 83, 70
1, 769295, Note_off_c, 0, 84, 61
1, 769360, Note_on_c, 0, 56, 38
1, 769374, Note_off_c, 0, 65, 36
1, 769461, Control_c, 0, 67, 63
1, 769461, Control_c, 1, 67, 63
1, 769536, Control_c, 1, 67, 67
1, 769536, Control_c, 0, 67, 67
1, 769592, Control_c, 0, 67, 72
1, 769592, Control_c, 1, 67, 72
1, 769636, Note_off_c, 0, 56, 53
1, 769649, Control_c, 0, 64, 72
1, 769649, Control_c, 1, 64, 72
1, 769651, Control_c, 1, 67, 76
1, 769651, Note_on_c, 0, 64, 47
1, 769651, Control_c, 0, 67, 76
1, 769667, Control_c, 0, 64, 44
1, 769667, Control_c, 1, 64, 44
1, 769674, Note_on_c, 0, 80, 64
1, 769685, Control_c, 0, 64, 31
1, 769685, Control_c, 1, 64, 31
1, 769687, Control_c, 1, 67, 80
1, 769687, Control_c, 0, 67, 80
1, 769694, Note_off_c, 0, 83, 40
1, 769709, Note_on_c, 0, 68, 33
1, 769724, Control_c, 0, 64, 38
1, 769724, Control_c, 1, 64, 38
1, 769725, Note_off_c, 0, 50, 54
1, 769725, Control_c, 0, 67, 88
1, 769725, Control_c, 1, 67, 88
1, 769743, Control_c, 1, 64, 60
1, 769743, Control_c, 0, 64, 60
1, 769744, Control_c, 0, 67, 92
1, 769744, Control_c, 1, 67, 92
1, 769760, Control_c, 1, 64, 109
1, 769760, Control_c, 0, 64, 109
1, 769763, Control_c, 0, 67, 97
1, 769763, Control_c, 1, 67, 97
1, 769779, Control_c, 1, 64, 127
1, 769779, Control_c, 0, 64, 127
1, 769781, Control_c, 0, 67, 102
1, 769781, Control_c, 1, 67, 102
1, 769794, Note_off_c, 0, 64, 56
1, 769818, Control_c, 0, 67, 107
1, 769818, Control_c, 1, 67, 107
1, 769825, Note_off_c, 0, 80, 64
1, 769850, Note_off_c, 0, 68, 38
1, 769859, Note_on_c, 0, 48, 49
1, 770050, Note_on_c, 0, 76, 63
1, 770150, Note_on_c, 0, 57, 42
1, 770160, Note_off_c, 0, 48, 50
1, 770196, Poly_aftertouch_c, 0, 64, 0
1, 770344, Note_off_c, 0, 57, 60
1, 770344, Poly_aftertouch_c, 0, 57, 0
1, 770379, Control_c, 0, 67, 111
1, 770379, Control_c, 1, 67, 111
1, 770396, Control_c, 1, 64, 84
1, 770396, Control_c, 0, 64, 84
1, 770398, Note_on_c, 0, 47, 47
1, 770417, Control_c, 0, 64, 50
1, 770417, Control_c, 1, 64, 50
1, 770419, Control_c, 1, 67, 118
1, 770419, Control_c, 0, 67, 118
1, 770435, Control_c, 0, 64, 25
1, 770435, Control_c, 1, 64, 25
1, 770446, Note_on_c, 0, 79, 61
1, 770451, Note_off_c, 0, 76, 51
1, 770454, Control_c, 0, 64, 20
1, 770454, Control_c, 1, 64, 20
1, 770455, Control_c, 1, 67, 124
1, 770455, Control_c, 0, 67, 124
1, 770491, Control_c, 0, 64, 28
1, 770491, Control_c, 1, 64, 28
1, 770509, Control_c, 1, 64, 47
1, 770509, Control_c, 0, 64, 47
1, 770528, Control_c, 0, 64, 78
1, 770528, Control_c, 1, 64, 78
1, 770548, Control_c, 1, 64, 127
1, 770548, Control_c, 0, 64, 127
1, 770570, Poly_aftertouch_c, 0, 67, 127
1, 770580, Note_off_c, 0, 47, 61
1, 770624, Poly_aftertouch_c, 0, 67, 0
1, 770707, Note_on_c, 0, 62, 43
1, 770794, Note_on_c, 0, 77, 57
1, 770808, Note_off_c, 0, 62, 43
1, 770847, Note_off_c, 0, 79, 54
1, 770874, Note_on_c, 0, 57, 44
1, 770893, Note_off_c, 0, 77, 57
1, 770923, Note_off_c, 0, 57, 63
1, 770923, Poly_aftertouch_c, 0, 57, 0
1, 771090, Control_c, 0, 64, 101
1, 771090, Control_c, 1, 64, 101
1, 771109, Control_c, 1, 64, 64
1, 771109, Control_c, 0, 64, 64
1, 771129, Control_c, 0, 64, 39
1, 771129, Control_c, 1, 64, 39
1, 771131, Note_on_c, 0, 74, 60
1, 771147, Note_on_c, 0, 40, 44
1, 771147, Control_c, 0, 64, 31
1, 771147, Control_c, 1, 64, 31
1, 771183, Control_c, 1, 64, 41
1, 771183, Control_c, 0, 64, 41
1, 771186, Note_on_c, 0, 62, 27
1, 771202, Control_c, 0, 64, 63
1, 771202, Control_c, 1, 64, 63
1, 771221, Control_c, 1, 64, 99
1, 771221, Control_c, 0, 64, 99
1, 771239, Control_c, 0, 64, 127
1, 771239, Control_c, 1, 64, 127
1, 771248, Note_off_c, 0, 40, 60
1, 771257, Note_off_c, 0, 62, 59
1, 771398, Note_on_c, 0, 56, 40
1, 771421, Note_off_c, 0, 74, 52
1, 771421, Poly_aftertouch_c, 0, 74, 0
1, 771484, Note_on_c, 0, 71, 56
1, 771581, Note_off_c, 0, 56, 35
1, 771597, Note_on_c, 0, 52, 33
1, 771839, Control_c, 0, 64, 122
1, 771839, Control_c, 1, 64, 122
1, 771858, Control_c, 1, 64, 72
1, 771858, Control_c, 0, 64, 72
1, 771876, Control_c, 0, 64, 42
1, 771876, Control_c, 1, 64, 42
1, 771880, Note_on_c, 0, 45, 35
1, 771894, Control_c, 0, 64, 20
1, 771894, Control_c, 1, 64, 20
1, 771896, Note_on_c, 0, 72, 47
1, 771914, Control_c, 0, 64, 12
1, 771914, Control_c, 1, 64, 12
1, 771928, Note_off_c, 0, 52, 37
1, 771928, Poly_aftertouch_c, 0, 52, 0
1, 771933, Note_on_c, 0, 60, 29
1, 771945, Note_off_c, 0, 71, 35
1, 771970, Control_c, 0, 64, 26
1, 771970, Control_c, 1, 64, 26
1, 771988, Control_c, 1, 64, 48
1, 771988, Control_c, 0, 64, 48
1, 772008, Control_c, 0, 64, 80
1, 772008, Control_c, 1, 64, 80
1, 772025, Control_c, 1, 64, 127
1, 772025, Control_c, 0, 64, 127
1, 772084, Note_off_c, 0, 60, 26
1, 772159, Note_on_c, 0, 59, 32
1, 772284, Note_on_c, 0, 74, 55
1, 772359, Note_off_c, 0, 59, 47
1, 772390, Note_off_c, 0, 72, 37
1, 772406, Poly_aftertouch_c, 0, 62, 0
1, 772418, Note_on_c, 0, 52, 39
1, 772783, Note_on_c, 0, 60, 34
1, 772811, Note_off_c, 0, 52, 38
1, 772811, Poly_aftertouch_c, 0, 52, 0
1, 772812, Poly_aftertouch_c, 0, 52, 0
1, 772831, Control_c, 0, 64, 79
1, 772831, Control_c, 1, 64, 79
1, 772849, Control_c, 1, 64, 48
1, 772849, Control_c, 0, 64, 48
1, 772868, Control_c, 0, 64, 19
1, 772868, Control_c, 1, 64, 19
1, 772889, Note_on_c, 0, 76, 46
1, 772981, Control_c, 0, 64, 44
1, 772981, Control_c, 1, 64, 44
1, 772987, Poly_aftertouch_c, 0, 64, 127
1, 772993, Note_off_c, 0, 74, 34
1, 772993, Poly_aftertouch_c, 0, 74, 0
1, 773000, Control_c, 0, 64, 77
1, 773000, Control_c, 1, 64, 77
1, 773018, Control_c, 1, 64, 127
1, 773018, Control_c, 0, 64, 127
1, 773021, Poly_aftertouch_c, 0, 64, 0
1, 773058, Note_off_c, 0, 76, 59
1, 773218, Note_on_c, 0, 52, 33
1, 773331, Note_off_c, 0, 45, 38
1, 773358, Note_on_c, 0, 88, 55
1, 773422, Poly_aftertouch_c, 0, 60, 20
1, 773429, Note_off_c, 0, 60, 37
1, 773429, Poly_aftertouch_c, 0, 60, 0
1, 773457, Poly_aftertouch_c, 0, 76, 0
1, 773498, Poly_aftertouch_c, 0, 52, 24
1, 773504, Note_on_c, 0, 45, 47
1, 773551, Note_off_c, 0, 52, 37
1, 773551, Poly_aftertouch_c, 0, 52, 0
1, 773555, Note_off_c, 0, 45, 60
1, 773904, Note_on_c, 0, 73, 57
1, 773916, Control_c, 0, 64, 98
1, 773916, Control_c, 1, 64, 98
1, 773935, Control_c, 1, 64, 63
1, 773935, Control_c, 0, 64, 63
1, 773953, Control_c, 0, 64, 38
1, 773953, Control_c, 1, 64, 38
1, 773972, Control_c, 1, 64, 31
1, 773972, Control_c, 0, 64, 31
1, 774010, Control_c, 0, 64, 43
1, 774010, Control_c, 1, 64, 43
1, 774028, Control_c, 1, 64, 64
1, 774028, Control_c, 0, 64, 64
1, 774029, Note_on_c, 0, 89, 56
1, 774047, Control_c, 0, 64, 89
1, 774047, Control_c, 1, 64, 89
1, 774066, Control_c, 1, 64, 127
1, 774066, Control_c, 0, 64, 127
1, 774097, Note_off_c, 0, 88, 39
1, 774144, Poly_aftertouch_c, 0, 77, 0
1, 774252, Note_on_c, 0, 69, 42
1, 774350, Note_off_c, 0, 89, 49
1, 774353, Note_on_c, 0, 88, 49
1, 774463, Note_on_c, 0, 64, 42
1, 774478, Note_off_c, 0, 69, 35
1, 774540, Note_off_c, 0, 73, 34
1, 774736, Note_on_c, 0, 70, 52
1, 774777, Control_c, 0, 64, 98
1, 774777, Control_c, 1, 64, 98
1, 774796, Control_c, 1, 64, 63
1, 774796, Control_c, 0, 64, 63
1, 774815, Control_c, 0, 64, 38
1, 774815, Control_c, 1, 64, 38
1, 774833, Control_c, 1, 64, 30
1, 774833, Control_c, 0, 64, 30
1, 774834, Note_off_c, 0, 64, 37
1, 774847, Note_on_c, 0, 85, 58
1, 774860, Note_off_c, 0, 88, 46
1, 774871, Control_c, 0, 64, 35
1, 774871, Control_c, 1, 64, 35
1, 774890, Control_c, 1, 64, 48
1, 774890, Control_c, 0, 64, 48
1, 774907, Control_c, 0, 64, 69
1, 774907, Control_c, 1, 64, 69
1, 774928, Control_c, 1, 64, 92
1, 774928, Control_c, 0, 64, 92
1, 774946, Control_c, 0, 64, 127
1, 774946, Control_c, 1, 64, 127
1, 774958, Poly_aftertouch_c, 0, 73, 127
1, 775078, Poly_aftertouch_c, 0, 73, 0
1, 775088, Note_off_c, 0, 70, 63
1, 775105, Note_on_c, 0, 67, 44
1, 775257, Note_off_c, 0, 85, 62
1, 775273, Note_on_c, 0, 82, 54
1, 775296, Note_off_c, 0, 67, 44
1, 775344, Note_on_c, 0, 64, 30
1, 775347, Poly_aftertouch_c, 0, 70, 127
1, 775490, Poly_aftertouch_c, 0, 70, 0
1, 775572, Note_off_c, 0, 64, 53
1, 775608, Note_on_c, 0, 65, 49
1, 775657, Control_c, 0, 64, 97
1, 775657, Control_c, 1, 64, 97
1, 775677, Control_c, 1, 64, 61
1, 775677, Control_c, 0, 64, 61
1, 775695, Control_c, 0, 64, 28
1, 775695, Control_c, 1, 64, 28
1, 775713, Control_c, 1, 64, 11
1, 775713, Control_c, 0, 64, 11
1, 775750, Control_c, 0, 64, 15
1, 775750, Control_c, 1, 64, 15
1, 775754, Note_on_c, 0, 80, 54
1, 775769, Control_c, 0, 64, 29
1, 775769, Control_c, 1, 64, 29
1, 775788, Control_c, 1, 64, 52
1, 775788, Control_c, 0, 64, 52
1, 775805, Control_c, 0, 64, 82
1, 775805, Control_c, 1, 64, 82
1, 775824, Note_off_c, 0, 82, 46
1, 775826, Control_c, 0, 64, 127
1, 775826, Control_c, 1, 64, 127
1, 775849, Poly_aftertouch_c, 0, 68, 127
1, 776012, Note_on_c, 0, 62, 35
1, 776041, Poly_aftertouch_c, 0, 68, 0
1, 776132, Note_on_c, 0, 81, 52
1, 776207, Note_off_c, 0, 80, 47
1, 776234, Note_off_c, 0, 62, 41
1, 776235, Note_off_c, 0, 65, 34
1, 776247, Note_on_c, 0, 57, 36
1, 776409, Note_off_c, 0, 57, 50
1, 776409, Poly_aftertouch_c, 0, 57, 0
1, 776446, Note_on_c, 0, 62, 36
1, 776452, Note_on_c, 0, 85, 62
1, 776496, Note_off_c, 0, 81, 61
1, 776639, Note_on_c, 0, 57, 32
1, 776676, Note_off_c, 0, 62, 40
1, 776788, Note_on_c, 0, 86, 60
1, 776832, Note_on_c, 0, 53, 47
1, 776849, Note_off_c, 0, 85, 46
1, 776878, Note_off_c, 0, 57, 35
1, 776878, Poly_aftertouch_c, 0, 57, 0
1, 776890, Note_off_c, 0, 53, 60
1, 777186, Note_on_c, 0, 68, 51
1, 777230, Control_c, 0, 64, 104
1, 777230, Control_c, 1, 64, 104
1, 777249, Control_c, 1, 64, 65
1, 777249, Control_c, 0, 64, 65
1, 777267, Control_c, 0, 64, 41
1, 777267, Control_c, 1, 64, 41
1, 777304, Control_c, 1, 64, 49
1, 777304, Control_c, 0, 64, 49
1, 777313, Note_on_c, 0, 87, 53
1, 777323, Control_c, 0, 64, 67
1, 777323, Control_c, 1, 64, 67
1, 777341, Control_c, 1, 64, 99
1, 777341, Control_c, 0, 64, 99
1, 777362, Control_c, 0, 64, 127
1, 777362, Control_c, 1, 64, 127
1, 777386, Note_off_c, 0, 86, 49
1, 777388, Poly_aftertouch_c, 0, 75, 127
1, 777526, Note_on_c, 0, 65, 43
1, 777612, Poly_aftertouch_c, 0, 75, 24
1, 777636, Note_off_c, 0, 87, 64
1, 777636, Poly_aftertouch_c, 0, 75, 0
1, 777656, Note_on_c, 0, 86, 58
1, 777669, Note_off_c, 0, 68, 52
1, 777719, Note_off_c, 0, 65, 37
1, 777739, Note_on_c, 0, 62, 54
1, 777955, Note_off_c, 0, 62, 59
1, 777962, Note_on_c, 0, 65, 61
1, 777979, Control_c, 0, 64, 118
1, 777979, Control_c, 1, 64, 118
1, 777996, Control_c, 1, 64, 72
1, 777996, Control_c, 0, 64, 72
1, 778016, Control_c, 0, 64, 48
1, 778016, Control_c, 1, 64, 48
1, 778021, Note_off_c, 0, 86, 46
1, 778036, Control_c, 0, 64, 46
1, 778036, Control_c, 1, 64, 46
1, 778053, Control_c, 1, 64, 55
1, 778053, Control_c, 0, 64, 55
1, 778058, Note_on_c, 0, 83, 62
1, 778072, Control_c, 0, 64, 70
1, 778072, Control_c, 1, 64, 70
1, 778091, Control_c, 1, 64, 97
1, 778091, Control_c, 0, 64, 97
1, 778109, Control_c, 0, 64, 127
1, 778109, Control_c, 1, 64, 127
1, 778217, Poly_aftertouch_c, 0, 71, 0
1, 778287, Note_on_c, 0, 62, 35
1, 778408, Note_on_c, 0, 80, 65
1, 778443, Poly_aftertouch_c, 0, 81, 0
1, 778450, Note_off_c, 0, 83, 37
1, 778465, Note_on_c, 0, 68, 12
1, 778489, Note_on_c, 0, 59, 48
1, 778499, Note_off_c, 0, 65, 54
1, 778517, Note_off_c, 0, 62, 35
1, 778585, Note_off_c, 0, 68, 41
1, 778695, Note_off_c, 0, 59, 59
1, 778719, Note_on_c, 0, 64, 46
1, 778746, Control_c, 0, 64, 87
1, 778746, Control_c, 1, 64, 87
1, 778765, Control_c, 1, 64, 54
1, 778765, Control_c, 0, 64, 54
1, 778782, Control_c, 0, 64, 29
1, 778782, Control_c, 1, 64, 29
1, 778784, Note_on_c, 0, 78, 58
1, 778802, Control_c, 0, 64, 24
1, 778802, Control_c, 1, 64, 24
1, 778820, Control_c, 1, 64, 29
1, 778820, Control_c, 0, 64, 29
1, 778836, Note_on_c, 0, 66, 21
1, 778840, Control_c, 0, 64, 47
1, 778840, Control_c, 1, 64, 47
1, 778859, Control_c, 1, 64, 81
1, 778859, Control_c, 0, 64, 81
1, 778869, Note_off_c, 0, 80, 54
1, 778875, Control_c, 0, 64, 127
1, 778875, Control_c, 1, 64, 127
1, 779023, Note_on_c, 0, 60, 39
1, 779036, Note_off_c, 0, 66, 40
1, 779037, Poly_aftertouch_c, 0, 66, 0
1, 779106, Note_off_c, 0, 64, 30
1, 779115, Note_on_c, 0, 79, 58
1, 779164, Note_off_c, 0, 78, 55
1, 779207, Poly_aftertouch_c, 0, 67, 127
1, 779214, Note_off_c, 0, 60, 39
1, 779214, Poly_aftertouch_c, 0, 60, 0
1, 779239, Note_on_c, 0, 55, 42
1, 779243, Poly_aftertouch_c, 0, 67, 0
1, 779359, Note_off_c, 0, 55, 56
1, 779388, Note_on_c, 0, 60, 31
1, 779442, Note_on_c, 0, 83, 59
1, 779527, Note_off_c, 0, 79, 62
1, 779567, Note_on_c, 0, 55, 27
1, 779580, Note_off_c, 0, 60, 41
1, 779580, Poly_aftertouch_c, 0, 60, 0
1, 779762, Note_on_c, 0, 84, 60
1, 779802, Note_on_c, 0, 52, 48
1, 779807, Note_off_c, 0, 83, 59
1, 779839, Note_off_c, 0, 55, 42
1, 779851, Note_off_c, 0, 52, 60
1, 779851, Poly_aftertouch_c, 0, 52, 0
1, 780039, Note_on_c, 0, 51, 51
1, 780094, Control_c, 0, 64, 94
1, 780094, Control_c, 1, 64, 94
1, 780113, Control_c, 1, 64, 61
1, 780113, Control_c, 0, 64, 61
1, 780130, Control_c, 0, 64, 41
1, 780130, Control_c, 1, 64, 41
1, 780153, Note_on_c, 0, 85, 62
1, 780168, Control_c, 0, 64, 47
1, 780168, Control_c, 1, 64, 47
1, 780186, Control_c, 1, 64, 65
1, 780186, Note_on_c, 0, 73, 38
1, 780186, Control_c, 0, 64, 65
1, 780203, Note_off_c, 0, 84, 62
1, 780204, Control_c, 0, 64, 96
1, 780204, Control_c, 1, 64, 96
1, 780224, Control_c, 1, 64, 127
1, 780224, Control_c, 0, 64, 127
1, 780348, Note_on_c, 0, 66, 58
1, 780446, Poly_aftertouch_c, 0, 73, 22
1, 780465, Note_off_c, 0, 73, 34
1, 780465, Poly_aftertouch_c, 0, 73, 0
1, 780493, Note_off_c, 0, 85, 64
1, 780500, Note_on_c, 0, 84, 64
1, 780534, Note_off_c, 0, 51, 54
1, 780562, Note_off_c, 0, 66, 41
1, 780573, Note_on_c, 0, 72, 24
1, 780575, Note_on_c, 0, 57, 49
1, 780624, Note_off_c, 0, 72, 46
1, 780667, Note_off_c, 0, 84, 60
1, 780775, Note_on_c, 0, 65, 42
1, 780803, Note_off_c, 0, 57, 37
1, 780803, Poly_aftertouch_c, 0, 57, 0
1, 780867, Note_on_c, 0, 81, 54
1, 781009, Poly_aftertouch_c, 0, 69, 0
1, 781019, Note_off_c, 0, 65, 31
1, 781060, Note_on_c, 0, 50, 39
1, 781123, Control_c, 0, 64, 97
1, 781123, Control_c, 1, 64, 97
1, 781130, Note_off_c, 0, 81, 52
1, 781141, Control_c, 0, 64, 69
1, 781141, Control_c, 1, 64, 69
1, 781160, Control_c, 1, 64, 64
1, 781160, Control_c, 0, 64, 64
1, 781178, Control_c, 0, 64, 70
1, 781178, Control_c, 1, 64, 70
1, 781179, Note_on_c, 0, 77, 61
1, 781197, Control_c, 0, 64, 80
1, 781197, Control_c, 1, 64, 80
1, 781217, Control_c, 1, 64, 111
1, 781217, Control_c, 0, 64, 111
1, 781233, Note_off_c, 0, 50, 49
1, 781234, Control_c, 0, 64, 127
1, 781234, Control_c, 1, 64, 127
1, 781295, Note_on_c, 0, 53, 46
1, 781336, Note_off_c, 0, 77, 57
1, 781511, Note_off_c, 0, 53, 51
1, 781528, Note_on_c, 0, 50, 44
1, 781532, Note_on_c, 0, 84, 67
1, 781533, Control_c, 0, 64, 88
1, 781533, Control_c, 1, 64, 88
1, 781555, Control_c, 1, 64, 61
1, 781555, Control_c, 0, 64, 61
1, 781573, Control_c, 0, 64, 52
1, 781573, Control_c, 1, 64, 52
1, 781590, Control_c, 1, 64, 56
1, 781590, Control_c, 0, 64, 56
1, 781609, Control_c, 0, 64, 67
1, 781609, Control_c, 1, 64, 67
1, 781629, Control_c, 1, 64, 90
1, 781629, Control_c, 0, 64, 90
1, 781647, Control_c, 0, 64, 127
1, 781647, Control_c, 1, 64, 127
1, 781739, Note_on_c, 0, 65, 53
1, 781853, Note_on_c, 0, 83, 61
1, 781882, Note_off_c, 0, 84, 50
1, 781895, Note_on_c, 0, 71, 34
1, 781940, Note_off_c, 0, 71, 48
1, 781958, Note_off_c, 0, 65, 38
1, 781960, Note_on_c, 0, 56, 39
1, 782135, Control_c, 0, 64, 99
1, 782135, Control_c, 1, 64, 99
1, 782152, Control_c, 1, 64, 62
1, 782152, Control_c, 0, 64, 62
1, 782171, Control_c, 0, 64, 37
1, 782171, Control_c, 1, 64, 37
1, 782192, Note_on_c, 0, 64, 42
1, 782201, Note_off_c, 0, 83, 51
1, 782204, Note_off_c, 0, 56, 52
1, 782207, Control_c, 0, 64, 42
1, 782207, Control_c, 1, 64, 42
1, 782216, Note_on_c, 0, 80, 58
1, 782226, Note_off_c, 0, 50, 61
1, 782228, Control_c, 0, 64, 62
1, 782228, Control_c, 1, 64, 62
1, 782246, Control_c, 1, 64, 97
1, 782246, Control_c, 0, 64, 97
1, 782255, Note_on_c, 0, 68, 27
1, 782265, Control_c, 0, 64, 127
1, 782265, Control_c, 1, 64, 127
1, 782312, Note_off_c, 0, 64, 59
1, 782353, Note_off_c, 0, 80, 51
1, 782369, Note_on_c, 0, 48, 45
1, 782382, Note_off_c, 0, 68, 38
1, 782556, Note_on_c, 0, 76, 57
1, 782606, Note_on_c, 0, 64, 40
1, 782652, Note_off_c, 0, 48, 45
1, 782661, Note_off_c, 0, 64, 45
1, 782664, Note_on_c, 0, 57, 36
1, 782830, Note_off_c, 0, 57, 60
1, 782830, Poly_aftertouch_c, 0, 57, 0
1, 782846, Control_c, 0, 64, 105
1, 782846, Control_c, 1, 64, 105
1, 782863, Control_c, 1, 64, 65
1, 782863, Control_c, 0, 64, 65
1, 782882, Control_c, 0, 64, 36
1, 782882, Control_c, 1, 64, 36
1, 782902, Control_c, 1, 64, 21
1, 782902, Control_c, 0, 64, 21
1, 782905, Note_on_c, 0, 47, 33
1, 782939, Control_c, 0, 64, 25
1, 782939, Control_c, 1, 64, 25
1, 782947, Note_off_c, 0, 76, 54
1, 782957, Control_c, 0, 64, 40
1, 782957, Control_c, 1, 64, 40
1, 782968, Note_on_c, 0, 79, 56
1, 782976, Control_c, 0, 64, 67
1, 782976, Control_c, 1, 64, 67
1, 782994, Control_c, 1, 64, 103
1, 782994, Note_on_c, 0, 67, 36
1, 782994, Control_c, 0, 64, 103
1, 783013, Control_c, 0, 64, 127
1, 783013, Control_c, 1, 64, 127
1, 783067, Note_off_c, 0, 47, 48
1, 783112, Note_off_c, 0, 67, 60
1, 783191, Note_on_c, 0, 62, 49
1, 783332, Note_on_c, 0, 77, 58
1, 783362, Note_off_c, 0, 62, 35
1, 783363, Note_off_c, 0, 79, 53
1, 783377, Note_on_c, 0, 57, 46
1, 783418, Note_off_c, 0, 77, 56
1, 783420, Note_off_c, 0, 57, 63
1, 783420, Poly_aftertouch_c, 0, 57, 0
1, 783454, Poly_aftertouch_c, 0, 65, 127
1, 783488, Poly_aftertouch_c, 0, 65, 0
1, 783631, Control_c, 0, 64, 100
1, 783631, Control_c, 1, 64, 100
1, 783650, Control_c, 1, 64, 63
1, 783650, Control_c, 0, 64, 63
1, 783651, Note_on_c, 0, 40, 45
1, 783668, Control_c, 0, 64, 34
1, 783668, Control_c, 1, 64, 34
1, 783687, Control_c, 1, 64, 21
1, 783687, Control_c, 0, 64, 21
1, 783701, Note_on_c, 0, 74, 49
1, 783726, Control_c, 0, 64, 30
1, 783726, Control_c, 1, 64, 30
1, 783732, Note_on_c, 0, 62, 26
1, 783743, Control_c, 0, 64, 49
1, 783743, Control_c, 1, 64, 49
1, 783762, Control_c, 1, 64, 79
1, 783762, Control_c, 0, 64, 79
1, 783775, Note_off_c, 0, 40, 60
1, 783781, Control_c, 0, 64, 127
1, 783781, Control_c, 1, 64, 127
1, 783886, Note_off_c, 0, 62, 38
1, 783928, Note_on_c, 0, 56, 46
1, 783965, Note_off_c, 0, 74, 53
1, 783965, Poly_aftertouch_c, 0, 74, 0
1, 784049, Note_on_c, 0, 71, 54
1, 784106, Note_off_c, 0, 56, 55
1, 784170, Note_on_c, 0, 52, 33
1, 784466, Note_on_c, 0, 45, 43
1, 784493, Control_c, 0, 64, 90
1, 784493, Control_c, 1, 64, 90
1, 784511, Control_c, 1, 64, 61
1, 784511, Control_c, 0, 64, 61
1, 784529, Control_c, 0, 64, 40
1, 784529, Control_c, 1, 64, 40
1, 784535, Note_on_c, 0, 72, 47
1, 784549, Control_c, 0, 64, 27
1, 784549, Control_c, 1, 64, 27
1, 784567, Note_off_c, 0, 52, 30
1, 784567, Poly_aftertouch_c, 0, 52, 0
1, 784567, Control_c, 0, 64, 21
1, 784567, Control_c, 1, 64, 21
1, 784594, Note_off_c, 0, 71, 50
1, 784617, Poly_aftertouch_c, 0, 60, 127
1, 784642, Control_c, 0, 64, 26
1, 784642, Control_c, 1, 64, 26
1, 784661, Control_c, 1, 64, 39
1, 784661, Control_c, 0, 64, 39
1, 784679, Control_c, 0, 64, 58
1, 784679, Control_c, 1, 64, 58
1, 784698, Control_c, 1, 64, 78
1, 784698, Control_c, 0, 64, 78
1, 784717, Control_c, 0, 64, 102
1, 784717, Control_c, 1, 64, 102
1, 784734, Control_c, 1, 64, 127
1, 784734, Poly_aftertouch_c, 0, 60, 0
1, 784734, Control_c, 0, 64, 127
1, 784828, Note_on_c, 0, 59, 26
1, 784939, Note_on_c, 0, 74, 50
1, 785015, Note_off_c, 0, 72, 61
1, 785070, Poly_aftertouch_c, 0, 62, 0
1, 785078, Note_off_c, 0, 59, 38
1, 785118, Note_on_c, 0, 52, 34
1, 785552, Note_on_c, 0, 60, 32
1, 785629, Poly_aftertouch_c, 0, 52, 24
1, 785634, Control_c, 0, 64, 102
1, 785634, Control_c, 1, 64, 102
1, 785654, Control_c, 1, 64, 77
1, 785654, Control_c, 0, 64, 77
1, 785671, Control_c, 0, 64, 60
1, 785671, Control_c, 1, 64, 60
1, 785690, Control_c, 1, 64, 47
1, 785690, Control_c, 0, 64, 47
1, 785696, Note_on_c, 0, 76, 39
1, 785703, Note_off_c, 0, 52, 33
1, 785703, Poly_aftertouch_c, 0, 52, 0
1, 785709, Control_c, 0, 64, 39
1, 785709, Control_c, 1, 64, 39
1, 785728, Control_c, 1, 64, 31
1, 785728, Control_c, 0, 64, 31
1, 785745, Control_c, 0, 64, 21
1, 785745, Control_c, 1, 64, 21
1, 785760, Note_off_c, 0, 74, 44
1, 785760, Poly_aftertouch_c, 0, 74, 0
1, 785764, Control_c, 0, 64, 12
1, 785764, Control_c, 1, 64, 12
1, 785789, Poly_aftertouch_c, 0, 64, 127
1, 785821, Control_c, 0, 64, 0
1, 785821, Control_c, 1, 64, 0
1, 786008, Control_c, 1, 64, 10
1, 786008, Control_c, 0, 64, 10
1, 786120, Control_c, 0, 64, 14
1, 786120, Control_c, 1, 64, 14
1, 786139, Control_c, 1, 64, 22
1, 786139, Control_c, 0, 64, 22
1, 786158, Control_c, 0, 64, 35
1, 786158, Control_c, 1, 64, 35
1, 786177, Control_c, 1, 64, 52
1, 786177, Control_c, 0, 64, 52
1, 786196, Control_c, 0, 64, 61
1, 786196, Control_c, 1, 64, 61
1, 786214, Control_c, 1, 64, 59
1, 786214, Control_c, 0, 64, 59
1, 786234, Control_c, 0, 64, 56
1, 786234, Control_c, 1, 64, 56
1, 786252, Control_c, 1, 64, 52
1, 786252, Control_c, 0, 64, 52
1, 786270, Control_c, 0, 64, 50
1, 786270, Control_c, 1, 64, 50
1, 786291, Control_c, 1, 64, 52
1, 786291, Control_c, 0, 64, 52
1, 786308, Control_c, 0, 64, 57
1, 786308, Control_c, 1, 64, 57
1, 786327, Control_c, 1, 64, 59
1, 786327, Control_c, 0, 64, 59
1, 786345, Control_c, 0, 64, 60
1, 786345, Control_c, 1, 64, 60
1, 786365, Control_c, 1, 64, 63
1, 786365, Control_c, 0, 64, 63
1, 786383, Control_c, 0, 64, 68
1, 786383, Control_c, 1, 64, 68
1, 786401, Control_c, 1, 64, 79
1, 786401, Control_c, 0, 64, 79
1, 786420, Control_c, 0, 64, 103
1, 786420, Control_c, 1, 64, 103
1, 786439, Control_c, 1, 64, 127
1, 786439, Control_c, 0, 64, 127
1, 786750, Note_off_c, 0, 60, 40
1, 786847, Note_off_c, 0, 45, 50
1, 786856, Note_off_c, 0, 76, 47
1, 786911, Poly_aftertouch_c, 0, 64, 0
1, 787169, Control_c, 0, 64, 118
1, 787169, Control_c, 1, 64, 118
1, 787188, Control_c, 1, 64, 112
1, 787188, Control_c, 0, 64, 112
1, 787206, Control_c, 0, 64, 107
1, 787206, Control_c, 1, 64, 107
1, 787225, Control_c, 1, 64, 103
1, 787225, Control_c, 0, 64, 103
1, 787262, Control_c, 0, 64, 97
1, 787262, Control_c, 1, 64, 97
1, 787299, Control_c, 1, 64, 91
1, 787299, Control_c, 0, 64, 91
1, 787992, Control_c, 0, 64, 87
1, 787992, Control_c, 1, 64, 87
1, 788011, Control_c, 1, 64, 84
1, 788011, Control_c, 0, 64, 84
1, 788030, Control_c, 0, 64, 82
1, 788030, Control_c, 1, 64, 82
1, 788086, Control_c, 1, 64, 80
1, 788086, Control_c, 0, 64, 80
1, 788180, Control_c, 0, 64, 77
1, 788180, Control_c, 1, 64, 77
1, 788217, Control_c, 1, 64, 73
1, 788217, Control_c, 0, 64, 73
1, 788367, Control_c, 0, 64, 71
1, 788367, Control_c, 1, 64, 71
1, 788443, Control_c, 1, 64, 69
1, 788443, Control_c, 0, 64, 69
1, 788461, Control_c, 0, 64, 67
1, 788461, Control_c, 1, 64, 67
1, 788478, Control_c, 1, 64, 65
1, 788478, Control_c, 0, 64, 65
1, 788498, Control_c, 0, 64, 64
1, 788498, Control_c, 1, 64, 64
1, 788516, Control_c, 1, 64, 62
1, 788516, Control_c, 0, 64, 62
1, 788536, Control_c, 0, 64, 61
1, 788536, Control_c, 1, 64, 61
1, 788573, Control_c, 1, 64, 60
1, 788573, Control_c, 0, 64, 60
1, 788667, Control_c, 0, 64, 58
1, 788667, Control_c, 1, 64, 58
1, 788723, Control_c, 1, 64, 56
1, 788723, Control_c, 0, 64, 56
1, 788816, Control_c, 0, 64, 54
1, 788816, Control_c, 1, 64, 54
1, 790259, Control_c, 1, 64, 52
1, 790259, Control_c, 0, 64, 52
1, 790412, Note_on_c, 0, 52, 62
1, 790445, Control_c, 0, 64, 50
1, 790445, Control_c, 1, 64, 50
1, 790451, Note_off_c, 0, 52, 65
1, 790451, Poly_aftertouch_c, 0, 52, 0
1, 790562, Note_on_c, 0, 64, 65
1, 790594, Note_on_c, 0, 52, 30
1, 790613, Control_c, 0, 64, 48
1, 790613, Control_c, 1, 64, 48
1, 790624, Note_off_c, 0, 64, 58
1, 790646, Note_off_c, 0, 52, 40
1, 790646, Poly_aftertouch_c, 0, 52, 0
1, 790669, Control_c, 0, 64, 44
1, 790669, Control_c, 1, 64, 44
1, 790689, Control_c, 1, 64, 37
1, 790689, Control_c, 0, 64, 37
1, 790706, Control_c, 0, 64, 23
1, 790706, Control_c, 1, 64, 23
1, 790744, Control_c, 1, 64, 0
1, 790744, Control_c, 0, 64, 0
1, 790748, Note_on_c, 0, 45, 71
1, 790760, Note_on_c, 0, 60, 62
1, 790768, Note_on_c, 0, 57, 54
1, 790792, Note_off_c, 0, 45, 65
1, 790824, Note_off_c, 0, 57, 57
1, 790824, Poly_aftertouch_c, 0, 57, 0
1, 790828, Note_off_c, 0, 60, 45
1, 790871, Poly_aftertouch_c, 0, 60, 0
1, 790887, Note_on_c, 0, 62, 63
1, 790888, Note_on_c, 0, 59, 56
1, 790958, Note_off_c, 0, 59, 59
1, 790974, Note_on_c, 0, 64, 56
1, 790977, Note_off_c, 0, 62, 62
1, 791000, Note_on_c, 0, 52, 68
1, 791002, Note_off_c, 0, 64, 60
1, 791038, Note_off_c, 0, 52, 65
1, 791038, Poly_aftertouch_c, 0, 52, 0
1, 791115, Note_on_c, 0, 64, 54
1, 791124, Note_on_c, 0, 76, 61
1, 791144, Note_off_c, 0, 64, 60
1, 791150, Note_off_c, 0, 76, 64
1, 791157, Note_on_c, 0, 75, 14
1, 791189, Note_off_c, 0, 75, 34
1, 791247, Note_on_c, 0, 45, 68
1, 791257, Note_on_c, 0, 72, 73
1, 791280, Note_on_c, 0, 69, 48
1, 791287, Note_off_c, 0, 45, 64
1, 791314, Note_off_c, 0, 69, 55
1, 791375, Note_on_c, 0, 71, 66
1, 791387, Note_on_c, 0, 74, 62
1, 791440, Note_off_c, 0, 71, 59
1, 791453, Note_on_c, 0, 76, 67
1, 791456, Note_off_c, 0, 74, 60
1, 791456, Poly_aftertouch_c, 0, 74, 0
1, 791481, Note_on_c, 0, 52, 63
1, 791484, Note_off_c, 0, 76, 67
1, 791491, Note_off_c, 0, 72, 24
1, 791518, Note_off_c, 0, 52, 64
1, 791518, Poly_aftertouch_c, 0, 52, 0
1, 791590, Note_on_c, 0, 88, 77
1, 791606, Note_on_c, 0, 76, 52
1, 791637, Note_off_c, 0, 76, 59
1, 791641, Note_off_c, 0, 88, 52
1, 791728, Note_on_c, 0, 86, 66
1, 791733, Note_on_c, 0, 53, 68
1, 791737, Note_on_c, 0, 83, 69
1, 791768, Note_off_c, 0, 53, 65
1, 791803, Note_off_c, 0, 83, 59
1, 791842, Note_off_c, 0, 86, 55
1, 791852, Note_on_c, 0, 84, 46
1, 791881, Note_off_c, 0, 84, 59
1, 791889, Note_on_c, 0, 81, 42
1, 791979, Note_on_c, 0, 83, 70
1, 791989, Note_on_c, 0, 79, 61
1, 792009, Note_off_c, 0, 81, 34
1, 792032, Note_off_c, 0, 79, 60
1, 792060, Note_off_c, 0, 83, 61
1, 792098, Note_on_c, 0, 53, 68
1, 792106, Note_on_c, 0, 84, 68
1, 792129, Note_on_c, 0, 81, 45
1, 792133, Note_off_c, 0, 53, 64
1, 792165, Note_off_c, 0, 81, 53
1, 792192, Note_on_c, 0, 53, 84
1, 792214, Note_on_c, 0, 83, 75
1, 792222, Note_on_c, 0, 79, 65
1, 792228, Note_off_c, 0, 84, 54
1, 792310, Note_off_c, 0, 79, 49
1, 792319, Note_on_c, 0, 81, 65
1, 792326, Note_on_c, 0, 77, 65
1, 792340, Note_off_c, 0, 83, 61
1, 792355, Note_off_c, 0, 81, 64
1, 792359, Note_off_c, 0, 77, 67
1, 792447, Note_on_c, 0, 45, 78
1, 792482, Note_off_c, 0, 45, 65
1, 792539, Note_on_c, 0, 69, 76
1, 792560, Note_on_c, 0, 57, 63
1, 792584, Note_off_c, 0, 69, 55
1, 792599, Note_off_c, 0, 57, 65
1, 792599, Poly_aftertouch_c, 0, 57, 0
1, 792679, Note_on_c, 0, 38, 80
1, 792690, Note_on_c, 0, 62, 67
1, 792690, Note_on_c, 0, 65, 74
1, 792700, Note_on_c, 0, 66, 45
1, 792730, Note_off_c, 0, 62, 63
1, 792739, Note_off_c, 0, 65, 60
1, 792740, Note_off_c, 0, 66, 40
1, 792754, Note_off_c, 0, 38, 58
1, 792806, Note_on_c, 0, 64, 70
1, 792822, Note_on_c, 0, 67, 61
1, 792892, Note_on_c, 0, 65, 63
1, 792902, Note_off_c, 0, 64, 61
1, 792909, Note_off_c, 0, 67, 62
1, 792912, Note_on_c, 0, 69, 72
1, 792919, Note_on_c, 0, 45, 73
1, 792931, Note_off_c, 0, 65, 66
1, 792939, Note_off_c, 0, 69, 68
1, 792951, Note_off_c, 0, 45, 64
1, 793024, Note_on_c, 0, 69, 80
1, 793028, Note_on_c, 0, 81, 81
1, 793049, Note_off_c, 0, 69, 71
1, 793076, Note_off_c, 0, 81, 60
1, 793151, Note_on_c, 0, 38, 71
1, 793156, Note_on_c, 0, 77, 86
1, 793162, Poly_aftertouch_c, 0, 71, 0
1, 793195, Note_on_c, 0, 74, 40
1, 793198, Note_off_c, 0, 38, 61
1, 793243, Note_off_c, 0, 74, 33
1, 793243, Poly_aftertouch_c, 0, 74, 0
1, 793275, Note_on_c, 0, 79, 60
1, 793276, Note_on_c, 0, 76, 72
1, 793309, Note_off_c, 0, 77, 50
1, 793365, Note_off_c, 0, 76, 59
1, 793369, Note_on_c, 0, 81, 76
1, 793372, Note_on_c, 0, 45, 66
1, 793377, Note_off_c, 0, 79, 59
1, 793377, Note_on_c, 0, 77, 29
1, 793385, Note_off_c, 0, 77, 61
1, 793394, Note_off_c, 0, 81, 70
1, 793424, Note_off_c, 0, 45, 62
1, 793436, Note_off_c, 0, 53, 59
1, 793494, Note_on_c, 0, 93, 88
1, 793514, Note_on_c, 0, 81, 59
1, 793526, Note_off_c, 0, 93, 60
1, 793534, Control_c, 0, 67, 120
1, 793534, Control_c, 1, 67, 120
1, 793542, Note_off_c, 0, 81, 44
1, 793612, Note_on_c, 0, 47, 67
1, 793613, Note_on_c, 0, 52, 68
1, 793619, Note_on_c, 0, 92, 76
1, 793633, Note_on_c, 0, 88, 62
1, 793646, Note_off_c, 0, 47, 67
1, 793727, Note_off_c, 0, 92, 63
1, 793732, Note_off_c, 0, 88, 34
1, 793737, Note_on_c, 0, 83, 65
1, 793738, Note_on_c, 0, 90, 69
1, 793774, Note_off_c, 0, 90, 65
1, 793810, Note_off_c, 0, 83, 58
1, 793860, Note_on_c, 0, 88, 80
1, 793891, Note_on_c, 0, 80, 60
1, 793917, Note_off_c, 0, 80, 64
1, 793919, Note_off_c, 0, 88, 65
1, 793987, Note_on_c, 0, 83, 62
1, 793993, Note_on_c, 0, 47, 60
1, 794002, Note_on_c, 0, 90, 72
1, 794021, Note_off_c, 0, 83, 69
1, 794025, Note_off_c, 0, 90, 72
1, 794028, Note_off_c, 0, 47, 64
1, 794088, Note_off_c, 0, 52, 52
1, 794088, Poly_aftertouch_c, 0, 52, 0
1, 794099, Note_on_c, 0, 47, 79
1, 794105, Note_on_c, 0, 88, 71
1, 794124, Note_on_c, 0, 80, 73
1, 794135, Note_on_c, 0, 89, 37
1, 794136, Note_off_c, 0, 89, 127
1, 794150, Note_off_c, 0, 80, 64
1, 794170, Note_off_c, 0, 88, 63
1, 794173, Note_off_c, 0, 47, 60
1, 794209, Note_on_c, 0, 47, 61
1, 794226, Note_on_c, 0, 76, 72
1, 794226, Note_on_c, 0, 83, 75
1, 794251, Note_off_c, 0, 83, 71
1, 794255, Note_off_c, 0, 76, 63
1, 794319, Control_c, 0, 67, 124
1, 794319, Control_c, 1, 67, 124
1, 794377, Note_on_c, 0, 40, 74
1, 794425, Note_off_c, 0, 40, 63
1, 794501, Note_on_c, 0, 64, 72
1, 794536, Note_off_c, 0, 64, 64
1, 794615, Poly_aftertouch_c, 0, 52, 0
1, 794623, Note_on_c, 0, 33, 62
1, 794636, Note_on_c, 0, 31, 55
1, 794647, Note_on_c, 0, 60, 62
1, 794660, Note_on_c, 0, 61, 36
1, 794664, Note_on_c, 0, 57, 47
1, 794666, Note_off_c, 0, 33, 61
1, 794684, Note_off_c, 0, 31, 39
1, 794692, Note_off_c, 0, 60, 59
1, 794703, Note_off_c, 0, 61, 35
1, 794755, Note_on_c, 0, 59, 68
1, 794766, Note_on_c, 0, 62, 63
1, 794792, Note_off_c, 0, 57, 24
1, 794792, Poly_aftertouch_c, 0, 57, 0
1, 794835, Note_off_c, 0, 59, 57
1, 794848, Note_on_c, 0, 40, 67
1, 794859, Note_on_c, 0, 64, 75
1, 794861, Note_off_c, 0, 62, 61
1, 794865, Note_on_c, 0, 60, 32
1, 794885, Note_off_c, 0, 40, 65
1, 794892, Note_off_c, 0, 64, 70
1, 794913, Note_off_c, 0, 60, 42
1, 794985, Note_on_c, 0, 64, 73
1, 794985, Note_on_c, 0, 76, 75
1, 795016, Note_off_c, 0, 64, 68
1, 795021, Note_off_c, 0, 76, 57
1, 795091, Note_on_c, 0, 33, 75
1, 795108, Note_on_c, 0, 72, 80
1, 795123, Note_on_c, 0, 69, 63
1, 795135, Note_off_c, 0, 33, 64
1, 795162, Note_off_c, 0, 69, 61
1, 795230, Note_off_c, 0, 72, 53
1, 795230, Note_on_c, 0, 71, 72
1, 795238, Note_on_c, 0, 74, 60
1, 795298, Note_off_c, 0, 71, 58
1, 795311, Note_on_c, 0, 76, 75
1, 795316, Note_off_c, 0, 74, 60
1, 795316, Note_on_c, 0, 40, 65
1, 795316, Poly_aftertouch_c, 0, 74, 0
1, 795340, Note_off_c, 0, 76, 70
1, 795367, Note_off_c, 0, 40, 61
1, 795378, Poly_aftertouch_c, 0, 72, 0
1, 795398, Note_off_c, 0, 47, 61
1, 795436, Note_on_c, 0, 76, 73
1, 795438, Note_on_c, 0, 88, 78
1, 795463, Note_off_c, 0, 76, 68
1, 795494, Note_off_c, 0, 88, 58
1, 795558, Note_on_c, 0, 45, 59
1, 795562, Note_on_c, 0, 41, 60
1, 795579, Note_on_c, 0, 83, 69
1, 795582, Note_on_c, 0, 86, 64
1, 795603, Note_off_c, 0, 41, 63
1, 795637, Note_off_c, 0, 83, 60
1, 795689, Note_on_c, 0, 81, 66
1, 795701, Note_on_c, 0, 84, 57
1, 795715, Note_off_c, 0, 86, 62
1, 795728, Note_off_c, 0, 81, 61
1, 795736, Note_off_c, 0, 84, 67
1, 795835, Note_on_c, 0, 79, 70
1, 795842, Note_on_c, 0, 83, 62
1, 795885, Note_off_c, 0, 79, 56
1, 795893, Note_off_c, 0, 83, 57
1, 795908, Note_on_c, 0, 41, 67
1, 795937, Note_on_c, 0, 84, 69
1, 795947, Note_off_c, 0, 41, 63
1, 795948, Note_off_c, 0, 45, 59
1, 795955, Note_on_c, 0, 81, 47
1, 795983, Note_off_c, 0, 84, 52
1, 795992, Note_off_c, 0, 81, 61
1, 796041, Note_on_c, 0, 41, 78
1, 796052, Note_on_c, 0, 83, 73
1, 796054, Note_on_c, 0, 79, 69
1, 796105, Note_off_c, 0, 79, 59
1, 796160, Note_on_c, 0, 81, 80
1, 796166, Note_on_c, 0, 77, 72
1, 796182, Note_off_c, 0, 83, 39
1, 796198, Note_off_c, 0, 77, 61
1, 796202, Note_off_c, 0, 81, 63
1, 796277, Note_on_c, 0, 57, 65
1, 796326, Note_off_c, 0, 57, 61
1, 796326, Poly_aftertouch_c, 0, 57, 0
1, 796399, Note_on_c, 0, 69, 74
1, 796424, Note_on_c, 0, 57, 46
1, 796444, Note_off_c, 0, 69, 53
1, 796459, Note_off_c, 0, 57, 55
1, 796459, Poly_aftertouch_c, 0, 57, 0
1, 796526, Note_on_c, 0, 65, 81
1, 796538, Note_on_c, 0, 62, 67
1, 796538, Note_on_c, 0, 50, 81
1, 796575, Note_off_c, 0, 50, 65
1, 796576, Note_off_c, 0, 62, 62
1, 796594, Note_off_c, 0, 65, 60
1, 796656, Note_on_c, 0, 64, 73
1, 796663, Note_on_c, 0, 67, 56
1, 796739, Note_off_c, 0, 64, 60
1, 796744, Note_on_c, 0, 65, 31
1, 796758, Note_on_c, 0, 69, 74
1, 796759, Note_off_c, 0, 67, 62
1, 796773, Note_on_c, 0, 57, 74
1, 796787, Note_off_c, 0, 69, 70
1, 796787, Note_off_c, 0, 65, 46
1, 796803, Note_off_c, 0, 57, 67
1, 796803, Poly_aftertouch_c, 0, 57, 0
1, 796871, Note_on_c, 0, 69, 76
1, 796873, Note_on_c, 0, 81, 82
1, 796899, Note_off_c, 0, 69, 67
1, 796910, Note_off_c, 0, 81, 52
1, 796992, Note_on_c, 0, 50, 76
1, 796997, Note_on_c, 0, 77, 76
1, 797018, Note_on_c, 0, 74, 62
1, 797028, Note_off_c, 0, 50, 67
1, 797059, Note_off_c, 0, 74, 54
1, 797059, Poly_aftertouch_c, 0, 74, 0
1, 797111, Note_on_c, 0, 76, 77
1, 797113, Note_on_c, 0, 79, 63
1, 797140, Note_off_c, 0, 77, 52
1, 797166, Poly_aftertouch_c, 0, 74, 0
1, 797173, Note_off_c, 0, 76, 60
1, 797200, Note_on_c, 0, 57, 64
1, 797203, Note_on_c, 0, 81, 76
1, 797206, Poly_aftertouch_c, 0, 77, 0
1, 797209, Note_off_c, 0, 79, 62
1, 797220, Note_off_c, 0, 81, 51
1, 797226, Note_off_c, 0, 41, 59
1, 797238, Note_off_c, 0, 57, 66
1, 797238, Poly_aftertouch_c, 0, 57, 0
1, 797322, Note_on_c, 0, 40, 77
1, 797324, Note_on_c, 0, 93, 90
1, 797337, Note_on_c, 0, 81, 42
1, 797354, Note_on_c, 0, 83, 45
1, 797355, Note_off_c, 0, 40, 66
1, 797373, Note_off_c, 0, 81, 55
1, 797385, Note_off_c, 0, 93, 62
1, 797389, Note_off_c, 0, 83, 39
1, 797470, Note_on_c, 0, 92, 77
1, 797472, Note_on_c, 0, 88, 63
1, 797487, Note_on_c, 0, 59, 71
1, 797493, Note_on_c, 0, 52, 64
1, 797532, Note_off_c, 0, 52, 62
1, 797533, Note_off_c, 0, 59, 61
1, 797552, Note_off_c, 0, 88, 45
1, 797564, Note_on_c, 0, 90, 70
1, 797579, Note_on_c, 0, 83, 68
1, 797595, Note_off_c, 0, 92, 64
1, 797612, Note_off_c, 0, 90, 66
1, 797627, Note_off_c, 0, 83, 63
1, 797700, Note_on_c, 0, 88, 84
1, 797731, Note_on_c, 0, 80, 51
1, 797757, Note_off_c, 0, 88, 65
1, 797765, Note_off_c, 0, 80, 33
1, 797835, Note_on_c, 0, 90, 80
1, 797837, Note_on_c, 0, 59, 68
1, 797842, Note_on_c, 0, 52, 70
1, 797846, Note_on_c, 0, 83, 56
1, 797871, Note_off_c, 0, 59, 67
1, 797873, Note_off_c, 0, 83, 62
1, 797875, Control_c, 0, 67, 118
1, 797875, Control_c, 1, 67, 118
1, 797876, Note_off_c, 0, 52, 64
1, 797879, Note_off_c, 0, 90, 67
1, 797895, Control_c, 0, 67, 112
1, 797895, Control_c, 1, 67, 112
1, 797912, Control_c, 1, 67, 105
1, 797912, Control_c, 0, 67, 105
1, 797932, Control_c, 0, 67, 97
1, 797932, Control_c, 1, 67, 97
1, 797950, Control_c, 1, 67, 91
1, 797950, Control_c, 0, 67, 91
1, 797951, Note_on_c, 0, 88, 81
1, 797967, Note_on_c, 0, 59, 78
1, 797967, Note_on_c, 0, 80, 81
1, 797969, Note_on_c, 0, 52, 75
1, 797969, Control_c, 0, 67, 84
1, 797969, Control_c, 1, 67, 84
1, 797988, Control_c, 1, 67, 77
1, 797988, Control_c, 0, 67, 77
1, 798006, Control_c, 0, 67, 66
1, 798006, Control_c, 1, 67, 66
1, 798014, Note_off_c, 0, 59, 61
1, 798022, Note_off_c, 0, 52, 58
1, 798024, Control_c, 0, 67, 54
1, 798024, Control_c, 1, 67, 54
1, 798045, Control_c, 1, 67, 43
1, 798045, Control_c, 0, 67, 43
1, 798058, Note_off_c, 0, 88, 51
1, 798064, Control_c, 0, 67, 33
1, 798064, Control_c, 1, 67, 33
1, 798066, Note_on_c, 0, 76, 72
1, 798070, Note_off_c, 0, 80, 37
1, 798074, Note_on_c, 0, 83, 76
1, 798082, Control_c, 0, 67, 27
1, 798082, Control_c, 1, 67, 27
1, 798101, Control_c, 1, 67, 23
1, 798101, Control_c, 0, 67, 23
1, 798102, Note_on_c, 0, 84, 33
1, 798111, Note_off_c, 0, 76, 54
1, 798118, Control_c, 0, 67, 18
1, 798118, Control_c, 1, 67, 18
1, 798123, Note_off_c, 0, 83, 59
1, 798138, Control_c, 0, 67, 12
1, 798138, Control_c, 1, 67, 12
1, 798145, Note_off_c, 0, 84, 32
1, 798215, Note_on_c, 0, 55, 96
1, 798234, Note_on_c, 0, 52, 79
1, 798250, Control_c, 0, 67, 0
1, 798250, Control_c, 1, 67, 0
1, 798267, Note_off_c, 0, 52, 62
1, 798413, Note_on_c, 0, 70, 71
1, 798418, Note_on_c, 0, 58, 67
1, 798454, Note_off_c, 0, 58, 67
1, 798460, Note_off_c, 0, 70, 53
1, 798564, Note_on_c, 0, 64, 70
1, 798569, Note_on_c, 0, 61, 64
1, 798572, Note_on_c, 0, 45, 71
1, 798610, Note_off_c, 0, 61, 60
1, 798634, Note_off_c, 0, 45, 58
1, 798683, Note_on_c, 0, 62, 70
1, 798691, Note_on_c, 0, 65, 67
1, 798733, Note_off_c, 0, 62, 61
1, 798734, Note_off_c, 0, 64, 54
1, 798781, Note_on_c, 0, 67, 72
1, 798786, Note_off_c, 0, 65, 60
1, 798804, Note_on_c, 0, 52, 69
1, 798810, Note_off_c, 0, 67, 69
1, 798818, Poly_aftertouch_c, 0, 64, 127
1, 798820, Poly_aftertouch_c, 0, 64, 0
1, 798842, Note_off_c, 0, 52, 63
1, 798934, Note_on_c, 0, 82, 81
1, 798938, Note_on_c, 0, 70, 68
1, 798964, Note_off_c, 0, 70, 64
1, 799019, Note_off_c, 0, 82, 62
1, 799055, Note_on_c, 0, 45, 75
1, 799055, Note_on_c, 0, 73, 79
1, 799063, Note_on_c, 0, 76, 60
1, 799096, Note_off_c, 0, 45, 64
1, 799100, Note_off_c, 0, 73, 59
1, 799100, Poly_aftertouch_c, 0, 73, 0
1, 799111, Control_c, 0, 67, 8
1, 799111, Control_c, 1, 67, 8
1, 799185, Note_on_c, 0, 74, 69
1, 799194, Note_on_c, 0, 77, 61
1, 799220, Note_off_c, 0, 74, 61
1, 799225, Note_off_c, 0, 76, 57
1, 799258, Note_on_c, 0, 79, 76
1, 799267, Note_off_c, 0, 77, 62
1, 799284, Note_off_c, 0, 79, 70
1, 799293, Note_on_c, 0, 52, 56
1, 799330, Note_off_c, 0, 52, 61
1, 799334, Control_c, 0, 67, 12
1, 799334, Control_c, 1, 67, 12
1, 799374, Control_c, 1, 67, 16
1, 799374, Control_c, 0, 67, 16
1, 799404, Note_on_c, 0, 94, 75
1, 799407, Note_on_c, 0, 82, 60
1, 799430, Control_c, 0, 67, 23
1, 799430, Control_c, 1, 67, 23
1, 799441, Note_off_c, 0, 82, 68
1, 799447, Control_c, 0, 67, 28
1, 799447, Control_c, 1, 67, 28
1, 799467, Control_c, 1, 67, 34
1, 799467, Control_c, 0, 67, 34
1, 799468, Note_off_c, 0, 94, 62
1, 799487, Control_c, 0, 67, 39
1, 799487, Control_c, 1, 67, 39
1, 799523, Control_c, 1, 67, 45
1, 799523, Control_c, 0, 67, 45
1, 799528, Note_on_c, 0, 45, 69
1, 799534, Note_on_c, 0, 89, 74
1, 799539, Note_on_c, 0, 93, 74
1, 799572, Note_off_c, 0, 45, 66
1, 799620, Note_off_c, 0, 89, 50
1, 799648, Note_on_c, 0, 91, 71
1, 799665, Note_on_c, 0, 88, 62
1, 799666, Note_off_c, 0, 93, 62
1, 799681, Note_off_c, 0, 91, 61
1, 799724, Note_off_c, 0, 88, 61
1, 799772, Note_on_c, 0, 89, 69
1, 799782, Note_on_c, 0, 86, 64
1, 799829, Note_off_c, 0, 86, 54
1, 799845, Note_off_c, 0, 89, 60
1, 799883, Note_on_c, 0, 91, 72
1, 799887, Note_on_c, 0, 45, 65
1, 799887, Note_on_c, 0, 88, 65
1, 799920, Note_off_c, 0, 45, 63
1, 799931, Note_off_c, 0, 88, 57
1, 799992, Note_on_c, 0, 89, 75
1, 799997, Note_on_c, 0, 86, 72
1, 800000, Note_on_c, 0, 45, 77
1, 800008, Control_c, 0, 67, 40
1, 800008, Control_c, 1, 67, 40
1, 800033, Note_off_c, 0, 91, 31
1, 800051, Note_off_c, 0, 86, 55
1, 800083, Note_off_c, 0, 55, 60
1, 800083, Note_on_c, 0, 88, 64
1, 800097, Note_on_c, 0, 85, 80
1, 800113, Note_off_c, 0, 89, 62
1, 800120, Note_off_c, 0, 85, 72
1, 800122, Control_c, 0, 67, 36
1, 800122, Control_c, 1, 67, 36
1, 800137, Note_off_c, 0, 88, 67
1, 800178, Control_c, 0, 67, 30
1, 800178, Control_c, 1, 67, 30
1, 800181, Note_off_c, 0, 45, 61
1, 800210, Note_on_c, 0, 53, 96
1, 800215, Control_c, 0, 67, 26
1, 800215, Control_c, 1, 67, 26
1, 800238, Note_on_c, 0, 50, 62
1, 800253, Control_c, 0, 67, 21
1, 800253, Control_c, 1, 67, 21
1, 800268, Note_off_c, 0, 50, 60
1, 800271, Control_c, 0, 67, 17
1, 800271, Control_c, 1, 67, 17
1, 800349, Note_on_c, 0, 57, 77
1, 800351, Note_on_c, 0, 69, 69
1, 800361, Note_on_c, 0, 67, 59
1, 800380, Note_off_c, 0, 57, 70
1, 800380, Poly_aftertouch_c, 0, 57, 0
1, 800381, Note_off_c, 0, 69, 65
1, 800389, Note_off_c, 0, 67, 59
1, 800483, Note_on_c, 0, 62, 70
1, 800483, Note_on_c, 0, 59, 76
1, 800507, Note_on_c, 0, 43, 45
1, 800515, Note_off_c, 0, 59, 63
1, 800544, Note_off_c, 0, 43, 57
1, 800545, Note_off_c, 0, 62, 56
1, 800604, Note_on_c, 0, 60, 60
1, 800617, Note_on_c, 0, 64, 60
1, 800702, Note_off_c, 0, 60, 59
1, 800706, Note_on_c, 0, 62, 44
1, 800719, Note_off_c, 0, 64, 61
1, 800730, Note_on_c, 0, 65, 61
1, 800732, Note_on_c, 0, 50, 69
1, 800742, Note_off_c, 0, 62, 55
1, 800757, Note_off_c, 0, 65, 61
1, 800758, Control_c, 0, 67, 21
1, 800758, Control_c, 1, 67, 21
1, 800782, Note_off_c, 0, 50, 64
1, 800844, Note_on_c, 0, 69, 68
1, 800846, Note_on_c, 0, 81, 77
1, 800870, Note_off_c, 0, 69, 62
1, 800879, Note_off_c, 0, 81, 63
1, 800915, Poly_aftertouch_c, 0, 78, 0
1, 800927, Control_c, 0, 67, 25
1, 800927, Control_c, 1, 67, 25
1, 800953, Note_on_c, 0, 43, 77
1, 800982, Note_on_c, 0, 74, 74
1, 800992, Note_off_c, 0, 43, 66
1, 800992, Note_on_c, 0, 71, 58
1, 801022, Note_off_c, 0, 71, 59
1, 801029, Note_on_c, 0, 72, 25
1, 801036, Note_on_c, 0, 76, 9
1, 801037, Note_off_c, 0, 76, 127
1, 801105, Note_off_c, 0, 72, 64
1, 801105, Note_on_c, 0, 72, 23
1, 801131, Poly_aftertouch_c, 0, 76, 127
1, 801177, Note_off_c, 0, 72, 58
1, 801187, Poly_aftertouch_c, 0, 71, 0
1, 801196, Note_on_c, 0, 77, 70
1, 801200, Poly_aftertouch_c, 0, 76, 0
1, 801204, Note_off_c, 0, 74, 52
1, 801205, Poly_aftertouch_c, 0, 74, 0
1, 801208, Note_on_c, 0, 50, 66
1, 801218, Note_off_c, 0, 77, 62
1, 801248, Note_off_c, 0, 50, 65
1, 801321, Note_on_c, 0, 93, 72
1, 801330, Note_on_c, 0, 81, 56
1, 801336, Note_on_c, 0, 95, 57
1, 801360, Note_off_c, 0, 81, 43
1, 801365, Note_off_c, 0, 93, 59
1, 801369, Note_off_c, 0, 95, 62
1, 801458, Note_on_c, 0, 43, 65
1, 801458, Note_on_c, 0, 91, 65
1, 801462, Note_on_c, 0, 88, 64
1, 801499, Note_off_c, 0, 43, 64
1, 801537, Note_off_c, 0, 88, 61
1, 801561, Note_off_c, 0, 91, 57
1, 801576, Note_on_c, 0, 89, 49
1, 801602, Note_on_c, 0, 86, 45
1, 801615, Note_off_c, 0, 89, 62
1, 801679, Note_off_c, 0, 86, 49
1, 801712, Note_on_c, 0, 88, 67
1, 801713, Note_on_c, 0, 84, 59
1, 801789, Note_off_c, 0, 84, 49
1, 801794, Note_off_c, 0, 88, 60
1, 801834, Note_on_c, 0, 89, 70
1, 801846, Note_on_c, 0, 43, 54
1, 801849, Note_on_c, 0, 86, 60
1, 801883, Note_off_c, 0, 43, 63
1, 801892, Note_off_c, 0, 86, 60
1, 801916, Note_off_c, 0, 89, 47
1, 801946, Note_on_c, 0, 88, 71
1, 801955, Note_on_c, 0, 84, 65
1, 801970, Note_on_c, 0, 43, 63
1, 802025, Note_off_c, 0, 84, 60
1, 802057, Note_off_c, 0, 53, 58
1, 802063, Note_on_c, 0, 83, 60
1, 802071, Note_on_c, 0, 86, 56
1, 802077, Note_off_c, 0, 88, 64
1, 802099, Note_off_c, 0, 86, 63
1, 802099, Note_off_c, 0, 83, 67
1, 802124, Control_c, 0, 67, 29
1, 802124, Control_c, 1, 67, 29
1, 802161, Note_off_c, 0, 43, 59
1, 802177, Note_on_c, 0, 52, 89
1, 802194, Note_on_c, 0, 48, 70
1, 802229, Note_off_c, 0, 48, 65
1, 802296, Note_on_c, 0, 67, 83
1, 802317, Note_on_c, 0, 59, 63
1, 802337, Note_off_c, 0, 67, 60
1, 802341, Note_off_c, 0, 59, 61
1, 802349, Control_c, 0, 67, 33
1, 802349, Control_c, 1, 67, 33
1, 802406, Control_c, 1, 67, 37
1, 802406, Control_c, 0, 67, 37
1, 802444, Control_c, 0, 67, 42
1, 802444, Control_c, 1, 67, 42
1, 802460, Note_on_c, 0, 57, 68
1, 802462, Note_on_c, 0, 41, 71
1, 802464, Note_on_c, 0, 60, 66
1, 802480, Control_c, 0, 67, 48
1, 802480, Control_c, 1, 67, 48
1, 802499, Note_off_c, 0, 57, 64
1, 802499, Poly_aftertouch_c, 0, 57, 0
1, 802499, Control_c, 0, 67, 52
1, 802499, Control_c, 1, 67, 52
1, 802503, Note_off_c, 0, 41, 64
1, 802504, Note_off_c, 0, 60, 61
1, 802536, Control_c, 0, 67, 58
1, 802536, Control_c, 1, 67, 58
1, 802586, Note_on_c, 0, 62, 65
1, 802589, Note_on_c, 0, 59, 65
1, 802611, Control_c, 0, 67, 62
1, 802611, Control_c, 1, 67, 62
1, 802670, Note_off_c, 0, 59, 59
1, 802680, Note_off_c, 0, 62, 61
1, 802688, Note_on_c, 0, 48, 66
1, 802691, Note_on_c, 0, 64, 65
1, 802692, Note_on_c, 0, 60, 39
1, 802719, Note_off_c, 0, 64, 64
1, 802730, Note_off_c, 0, 48, 62
1, 802735, Note_off_c, 0, 60, 33
1, 802808, Note_on_c, 0, 69, 67
1, 802814, Note_on_c, 0, 72, 68
1, 802841, Note_off_c, 0, 69, 65
1, 802847, Note_on_c, 0, 74, 21
1, 802851, Note_off_c, 0, 72, 62
1, 802898, Note_on_c, 0, 41, 68
1, 802902, Note_off_c, 0, 74, 32
1, 802941, Note_on_c, 0, 71, 63
1, 802960, Note_on_c, 0, 74, 37
1, 802977, Note_off_c, 0, 71, 64
1, 803020, Note_off_c, 0, 52, 56
1, 803051, Note_on_c, 0, 76, 67
1, 803068, Note_on_c, 0, 72, 56
1, 803143, Note_off_c, 0, 74, 22
1, 803146, Note_off_c, 0, 41, 61
1, 803147, Note_on_c, 0, 77, 55
1, 803148, Note_off_c, 0, 72, 44
1, 803154, Note_off_c, 0, 76, 60
1, 803162, Note_on_c, 0, 50, 83
1, 803172, Note_off_c, 0, 77, 62
1, 803172, Note_on_c, 0, 47, 76
1, 803191, Control_c, 0, 67, 66
1, 803191, Control_c, 1, 67, 66
1, 803219, Note_off_c, 0, 47, 60
1, 803248, Control_c, 0, 67, 71
1, 803248, Control_c, 1, 67, 71
1, 803286, Control_c, 1, 67, 75
1, 803286, Control_c, 0, 67, 75
1, 803288, Note_on_c, 0, 65, 79
1, 803327, Note_on_c, 0, 57, 47
1, 803341, Note_off_c, 0, 65, 52
1, 803341, Control_c, 0, 67, 80
1, 803341, Control_c, 1, 67, 80
1, 803366, Note_off_c, 0, 57, 36
1, 803366, Poly_aftertouch_c, 0, 57, 0
1, 803427, Note_on_c, 0, 55, 64
1, 803430, Note_on_c, 0, 40, 71
1, 803433, Note_on_c, 0, 59, 68
1, 803435, Control_c, 0, 67, 84
1, 803435, Control_c, 1, 67, 84
1, 803469, Note_off_c, 0, 55, 62
1, 803486, Note_off_c, 0, 40, 53
1, 803546, Note_on_c, 0, 57, 67
1, 803561, Note_on_c, 0, 60, 58
1, 803606, Note_off_c, 0, 57, 64
1, 803606, Poly_aftertouch_c, 0, 57, 0
1, 803614, Note_off_c, 0, 59, 22
1, 803630, Note_off_c, 0, 60, 59
1, 803654, Note_on_c, 0, 47, 67
1, 803659, Note_on_c, 0, 62, 35
1, 803660, Note_off_c, 0, 62, 127
1, 803698, Control_c, 0, 67, 88
1, 803698, Control_c, 1, 67, 88
1, 803727, Note_off_c, 0, 47, 52
1, 803733, Control_c, 0, 67, 93
1, 803733, Control_c, 1, 67, 93
1, 803762, Note_on_c, 0, 67, 62
1, 803771, Control_c, 0, 67, 98
1, 803771, Control_c, 1, 67, 98
1, 803776, Note_on_c, 0, 71, 50
1, 803791, Note_off_c, 0, 67, 61
1, 803816, Note_off_c, 0, 71, 50
1, 803828, Control_c, 0, 67, 102
1, 803828, Control_c, 1, 67, 102
1, 803877, Note_on_c, 0, 40, 62
1, 803884, Note_on_c, 0, 72, 73
1, 803888, Note_on_c, 0, 69, 43
1, 803922, Note_off_c, 0, 69, 48
1, 803993, Note_off_c, 0, 50, 61
1, 803995, Note_off_c, 0, 72, 33
1, 803998, Note_on_c, 0, 74, 70
1, 804013, Note_on_c, 0, 71, 58
1, 804086, Note_on_c, 0, 76, 63
1, 804096, Note_off_c, 0, 71, 41
1, 804097, Note_off_c, 0, 74, 60
1, 804103, Note_off_c, 0, 40, 61
1, 804118, Note_off_c, 0, 76, 64
1, 804120, Note_on_c, 0, 48, 87
1, 804129, Note_on_c, 0, 45, 75
1, 804165, Note_off_c, 0, 45, 64
1, 804236, Note_on_c, 0, 65, 60
1, 804242, Note_on_c, 0, 64, 66
1, 804273, Note_off_c, 0, 65, 65
1, 804286, Note_off_c, 0, 64, 64
1, 804298, Control_c, 0, 67, 106
1, 804298, Control_c, 1, 67, 106
1, 804301, Poly_aftertouch_c, 0, 55, 0
1, 804353, Note_on_c, 0, 57, 54
1, 804367, Note_on_c, 0, 38, 73
1, 804369, Note_on_c, 0, 53, 36
1, 804370, Note_off_c, 0, 53, 127
1, 804388, Note_off_c, 0, 57, 60
1, 804388, Poly_aftertouch_c, 0, 57, 0
1, 804417, Note_off_c, 0, 38, 60
1, 804464, Control_c, 0, 67, 110
1, 804464, Control_c, 1, 67, 110
1, 804489, Note_on_c, 0, 77, 85
1, 804512, Note_on_c, 0, 69, 69
1, 804541, Note_off_c, 0, 69, 66
1, 804553, Note_off_c, 0, 77, 54
1, 804595, Control_c, 0, 67, 115
1, 804595, Control_c, 1, 67, 115
1, 804604, Note_on_c, 0, 67, 73
1, 804613, Note_on_c, 0, 74, 65
1, 804619, Note_on_c, 0, 47, 69
1, 804623, Note_on_c, 0, 43, 61
1, 804631, Note_off_c, 0, 48, 59
1, 804633, Control_c, 0, 67, 121
1, 804633, Control_c, 1, 67, 121
1, 804637, Note_off_c, 0, 67, 70
1, 804642, Note_off_c, 0, 74, 68
1, 804670, Control_c, 0, 67, 127
1, 804670, Control_c, 1, 67, 127
1, 804727, Note_off_c, 0, 43, 62
1, 804789, Note_on_c, 0, 62, 68
1, 804805, Note_on_c, 0, 53, 62
1, 804853, Note_off_c, 0, 53, 55
1, 804868, Note_off_c, 0, 62, 60
1, 804902, Note_on_c, 0, 52, 55
1, 804905, Note_on_c, 0, 36, 75
1, 804908, Note_on_c, 0, 55, 61
1, 804937, Note_off_c, 0, 52, 56
1, 804946, Note_off_c, 0, 55, 63
1, 804953, Note_off_c, 0, 36, 62
1, 805062, Note_on_c, 0, 76, 75
1, 805084, Note_on_c, 0, 67, 54
1, 805116, Note_off_c, 0, 67, 38
1, 805166, Note_off_c, 0, 76, 56
1, 805176, Note_on_c, 0, 65, 68
1, 805179, Note_on_c, 0, 45, 66
1, 805183, Note_on_c, 0, 72, 62
1, 805202, Note_off_c, 0, 47, 60
1, 805202, Note_on_c, 0, 41, 55
1, 805215, Note_off_c, 0, 65, 65
1, 805216, Note_off_c, 0, 72, 66
1, 805290, Note_off_c, 0, 41, 61
1, 805374, Note_on_c, 0, 60, 56
1, 805387, Note_on_c, 0, 62, 45
1, 805426, Note_off_c, 0, 62, 52
1, 805483, Note_on_c, 0, 35, 63
1, 805507, Note_on_c, 0, 53, 57
1, 805509, Note_on_c, 0, 50, 49
1, 805534, Note_off_c, 0, 35, 60
1, 805535, Note_off_c, 0, 53, 59
1, 805549, Note_off_c, 0, 50, 56
1, 805591, Note_off_c, 0, 60, 24
1, 805683, Note_on_c, 0, 74, 68
1, 805729, Note_on_c, 0, 65, 22
1, 805825, Note_off_c, 0, 65, 51
1, 805849, Note_off_c, 0, 74, 36
1, 805862, Note_on_c, 0, 71, 57
1, 805865, Note_on_c, 0, 44, 59
1, 805868, Note_on_c, 0, 64, 42
1, 805884, Note_on_c, 0, 40, 46
1, 805892, Note_off_c, 0, 45, 49
1, 805898, Note_off_c, 0, 71, 65
1, 805907, Note_off_c, 0, 64, 51
1, 806067, Note_on_c, 0, 59, 66
1, 806088, Note_on_c, 0, 50, 55
1, 806124, Note_off_c, 0, 50, 59
1, 806240, Note_off_c, 0, 40, 57
1, 806316, Note_off_c, 0, 44, 62
1, 806317, Poly_aftertouch_c, 0, 59, 24
1, 806373, Note_on_c, 0, 49, 43
1, 806374, Note_on_c, 0, 52, 40
1, 806377, Note_on_c, 0, 45, 33
1, 806387, Note_on_c, 0, 33, 42
1, 806409, Note_off_c, 0, 59, 28
1, 806409, Poly_aftertouch_c, 0, 59, 0
1, 806410, Poly_aftertouch_c, 0, 59, 0
1, 806445, Poly_aftertouch_c, 0, 54, 127
1, 806550, Poly_aftertouch_c, 0, 54, 0
1, 806661, Note_off_c, 0, 33, 61
1, 806712, Note_off_c, 0, 45, 62
1, 806880, Note_off_c, 0, 49, 63
1, 806918, Note_off_c, 0, 52, 60
1, 807052, Note_on_c, 0, 55, 59
1, 807073, Note_on_c, 0, 52, 44
1, 807114, Note_off_c, 0, 52, 48
1, 807244, Note_on_c, 0, 70, 62
1, 807269, Note_on_c, 0, 58, 33
1, 807280, Note_off_c, 0, 70, 66
1, 807301, Note_off_c, 0, 58, 35
1, 807385, Note_on_c, 0, 45, 66
1, 807403, Note_on_c, 0, 61, 58
1, 807411, Note_on_c, 0, 63, 31
1, 807430, Note_off_c, 0, 45, 63
1, 807433, Note_on_c, 0, 64, 48
1, 807477, Note_off_c, 0, 63, 43
1, 807501, Note_off_c, 0, 61, 60
1, 807545, Note_on_c, 0, 65, 63
1, 807546, Note_on_c, 0, 62, 60
1, 807562, Note_off_c, 0, 64, 56
1, 807591, Note_off_c, 0, 62, 61
1, 807633, Note_off_c, 0, 65, 58
1, 807651, Note_on_c, 0, 67, 65
1, 807652, Note_on_c, 0, 52, 68
1, 807660, Note_on_c, 0, 64, 50
1, 807683, Note_off_c, 0, 52, 63
1, 807685, Note_off_c, 0, 67, 67
1, 807696, Note_off_c, 0, 64, 52
1, 807789, Note_on_c, 0, 70, 79
1, 807790, Note_on_c, 0, 82, 85
1, 807815, Note_off_c, 0, 70, 73
1, 807842, Note_off_c, 0, 82, 59
1, 807913, Note_on_c, 0, 73, 75
1, 807921, Note_on_c, 0, 76, 63
1, 807926, Note_on_c, 0, 45, 66
1, 807959, Note_off_c, 0, 45, 63
1, 808046, Note_on_c, 0, 74, 65
1, 808054, Note_on_c, 0, 77, 66
1, 808061, Note_off_c, 0, 73, 38
1, 808061, Poly_aftertouch_c, 0, 73, 0
1, 808061, Poly_aftertouch_c, 0, 73, 0
1, 808091, Note_off_c, 0, 76, 54
1, 808105, Note_off_c, 0, 74, 62
1, 808135, Note_off_c, 0, 77, 62
1, 808147, Note_on_c, 0, 79, 56
1, 808162, Note_on_c, 0, 52, 70
1, 808170, Note_off_c, 0, 79, 60
1, 808221, Note_off_c, 0, 52, 51
1, 808309, Note_on_c, 0, 94, 43
1, 808343, Note_off_c, 0, 94, 58
1, 808414, Note_on_c, 0, 45, 69
1, 808420, Note_on_c, 0, 89, 54
1, 808421, Note_on_c, 0, 93, 67
1, 808461, Note_off_c, 0, 45, 63
1, 808517, Note_off_c, 0, 89, 64
1, 808544, Note_off_c, 0, 93, 64
1, 808547, Note_on_c, 0, 88, 67
1, 808548, Note_on_c, 0, 91, 67
1, 808584, Note_off_c, 0, 91, 60
1, 808607, Note_off_c, 0, 88, 64
1, 808680, Note_on_c, 0, 89, 70
1, 808685, Note_on_c, 0, 86, 69
1, 808724, Note_off_c, 0, 86, 60
1, 808751, Note_off_c, 0, 89, 62
1, 808804, Note_on_c, 0, 91, 67
1, 808805, Note_on_c, 0, 88, 60
1, 808818, Note_on_c, 0, 45, 48
1, 808850, Note_off_c, 0, 88, 57
1, 808856, Note_off_c, 0, 45, 54
1, 808930, Note_on_c, 0, 89, 61
1, 808939, Note_on_c, 0, 86, 52
1, 808940, Note_on_c, 0, 45, 62
1, 808998, Note_off_c, 0, 91, 56
1, 809048, Note_off_c, 0, 86, 62
1, 809056, Note_on_c, 0, 88, 58
1, 809065, Note_on_c, 0, 85, 68
1, 809069, Note_off_c, 0, 55, 62
1, 809085, Note_off_c, 0, 89, 60
1, 809100, Note_off_c, 0, 85, 64
1, 809101, Note_on_c, 0, 87, 26
1, 809103, Note_off_c, 0, 87, 127
1, 809114, Note_off_c, 0, 88, 64
1, 809202, Note_off_c, 0, 45, 61
1, 809226, Note_on_c, 0, 53, 91
1, 809252, Note_on_c, 0, 50, 65
1, 809283, Note_off_c, 0, 50, 62
1, 809357, Note_on_c, 0, 69, 72
1, 809362, Note_on_c, 0, 57, 72
1, 809385, Note_off_c, 0, 69, 65
1, 809396, Note_off_c, 0, 57, 64
1, 809396, Poly_aftertouch_c, 0, 57, 0
1, 809491, Note_on_c, 0, 62, 78
1, 809495, Note_on_c, 0, 59, 68
1, 809502, Note_on_c, 0, 43, 65
1, 809532, Note_off_c, 0, 59, 61
1, 809551, Note_off_c, 0, 43, 64
1, 809614, Note_on_c, 0, 60, 73
1, 809617, Note_off_c, 0, 62, 33
1, 809625, Note_on_c, 0, 64, 64
1, 809702, Note_off_c, 0, 60, 60
1, 809708, Note_off_c, 0, 64, 62
1, 809717, Note_on_c, 0, 65, 72
1, 809726, Note_on_c, 0, 50, 73
1, 809749, Note_off_c, 0, 65, 69
1, 809765, Note_off_c, 0, 50, 66
1, 809767, Poly_aftertouch_c, 0, 62, 0
1, 809844, Note_on_c, 0, 69, 86
1, 809844, Note_on_c, 0, 81, 86
1, 809863, Note_off_c, 0, 69, 68
1, 809885, Note_off_c, 0, 81, 51
1, 809921, Note_on_c, 0, 78, 12
1, 809922, Note_off_c, 0, 78, 127
1, 809957, Note_on_c, 0, 43, 67
1, 809960, Poly_aftertouch_c, 0, 75, 0
1, 809982, Note_on_c, 0, 74, 80
1, 809990, Note_on_c, 0, 71, 73
1, 809994, Note_off_c, 0, 43, 65
1, 810021, Note_off_c, 0, 71, 66
1, 810040, Note_off_c, 0, 74, 53
1, 810100, Note_on_c, 0, 76, 61
1, 810108, Note_on_c, 0, 72, 67
1, 810185, Note_on_c, 0, 74, 30
1, 810193, Note_off_c, 0, 72, 60
1, 810197, Note_on_c, 0, 77, 73
1, 810199, Note_off_c, 0, 76, 63
1, 810204, Note_off_c, 0, 74, 63
1, 810223, Note_on_c, 0, 50, 60
1, 810224, Note_off_c, 0, 77, 69
1, 810263, Note_off_c, 0, 50, 64
1, 810320, Note_on_c, 0, 93, 85
1, 810329, Note_on_c, 0, 81, 67
1, 810360, Note_off_c, 0, 81, 67
1, 810385, Note_off_c, 0, 93, 63
1, 810481, Note_on_c, 0, 91, 72
1, 810483, Note_on_c, 0, 43, 53
1, 810490, Note_on_c, 0, 88, 61
1, 810519, Note_off_c, 0, 43, 65
1, 810599, Note_off_c, 0, 88, 54
1, 810629, Note_on_c, 0, 89, 57
1, 810633, Note_off_c, 0, 91, 49
1, 810635, Note_on_c, 0, 86, 60
1, 810665, Note_off_c, 0, 89, 65
1, 810688, Note_off_c, 0, 86, 59
1, 810755, Note_on_c, 0, 88, 62
1, 810766, Note_on_c, 0, 84, 58
1, 810847, Note_off_c, 0, 88, 59
1, 810851, Note_off_c, 0, 84, 62
1, 810875, Note_on_c, 0, 86, 56
1, 810879, Note_on_c, 0, 89, 58
1, 810904, Note_on_c, 0, 43, 33
1, 810943, Note_off_c, 0, 43, 46
1, 810973, Note_off_c, 0, 86, 58
1, 811024, Note_on_c, 0, 88, 56
1, 811029, Note_on_c, 0, 84, 52
1, 811048, Note_on_c, 0, 43, 45
1, 811072, Note_off_c, 0, 89, 37
1, 811132, Note_off_c, 0, 53, 58
1, 811139, Note_on_c, 0, 83, 63
1, 811146, Note_on_c, 0, 86, 58
1, 811147, Note_off_c, 0, 84, 58
1, 811173, Note_off_c, 0, 88, 61
1, 811177, Note_off_c, 0, 83, 61
1, 811186, Note_off_c, 0, 86, 64
1, 811265, Note_off_c, 0, 43, 61
1, 811290, Note_on_c, 0, 52, 82
1, 811297, Note_on_c, 0, 48, 70
1, 811337, Note_off_c, 0, 48, 63
1, 811405, Note_on_c, 0, 67, 70
1, 811408, Note_on_c, 0, 59, 75
1, 811437, Note_off_c, 0, 59, 69
1, 811438, Note_off_c, 0, 67, 70
1, 811540, Note_on_c, 0, 60, 80
1, 811549, Note_on_c, 0, 57, 71
1, 811557, Note_on_c, 0, 41, 71
1, 811587, Note_off_c, 0, 57, 61
1, 811587, Poly_aftertouch_c, 0, 57, 0
1, 811602, Note_off_c, 0, 41, 62
1, 811608, Note_off_c, 0, 60, 60
1, 811672, Note_on_c, 0, 59, 75
1, 811677, Note_on_c, 0, 62, 73
1, 811753, Note_off_c, 0, 59, 58
1, 811763, Note_on_c, 0, 60, 58
1, 811781, Note_on_c, 0, 64, 70
1, 811783, Note_off_c, 0, 62, 50
1, 811795, Note_on_c, 0, 48, 66
1, 811798, Note_off_c, 0, 60, 64
1, 811811, Note_off_c, 0, 64, 67
1, 811839, Note_off_c, 0, 48, 64
1, 811905, Note_on_c, 0, 72, 77
1, 811907, Note_on_c, 0, 69, 69
1, 811937, Note_off_c, 0, 69, 67
1, 811946, Note_off_c, 0, 72, 53
1, 812017, Note_on_c, 0, 41, 63
1, 812035, Note_on_c, 0, 74, 78
1, 812051, Note_on_c, 0, 71, 53
1, 812078, Note_off_c, 0, 71, 59
1, 812107, Note_off_c, 0, 74, 47
1, 812110, Note_off_c, 0, 52, 56
1, 812145, Note_on_c, 0, 76, 72
1, 812158, Note_on_c, 0, 72, 70
1, 812208, Note_off_c, 0, 41, 58
1, 812234, Note_off_c, 0, 72, 47
1, 812239, Note_off_c, 0, 76, 61
1, 812243, Note_on_c, 0, 77, 75
1, 812249, Note_on_c, 0, 74, 54
1, 812259, Note_on_c, 0, 50, 84
1, 812273, Note_off_c, 0, 77, 64
1, 812278, Note_off_c, 0, 74, 60
1, 812281, Note_on_c, 0, 47, 67
1, 812322, Note_off_c, 0, 47, 67
1, 812396, Note_on_c, 0, 65, 81
1, 812447, Note_off_c, 0, 65, 62
1, 812456, Note_on_c, 0, 57, 24
1, 812514, Note_off_c, 0, 57, 32
1, 812514, Poly_aftertouch_c, 0, 57, 0
1, 812547, Note_on_c, 0, 59, 68
1, 812554, Note_on_c, 0, 40, 65
1, 812558, Note_on_c, 0, 55, 57
1, 812597, Note_off_c, 0, 40, 60
1, 812602, Note_off_c, 0, 55, 64
1, 812610, Note_off_c, 0, 59, 54
1, 812662, Note_on_c, 0, 57, 63
1, 812676, Note_on_c, 0, 60, 62
1, 812741, Note_off_c, 0, 57, 59
1, 812741, Poly_aftertouch_c, 0, 57, 0
1, 812764, Note_off_c, 0, 60, 61
1, 812770, Note_on_c, 0, 62, 65
1, 812780, Note_on_c, 0, 47, 66
1, 812787, Note_on_c, 0, 59, 17
1, 812802, Note_off_c, 0, 62, 63
1, 812819, Note_off_c, 0, 59, 35
1, 812827, Note_off_c, 0, 47, 61
1, 812901, Note_on_c, 0, 67, 64
1, 812902, Note_on_c, 0, 71, 71
1, 812924, Note_off_c, 0, 67, 63
1, 812936, Note_off_c, 0, 71, 62
1, 812988, Note_on_c, 0, 40, 57
1, 813035, Note_on_c, 0, 72, 73
1, 813039, Note_off_c, 0, 50, 58
1, 813052, Note_on_c, 0, 69, 51
1, 813083, Note_off_c, 0, 69, 56
1, 813143, Note_on_c, 0, 74, 62
1, 813151, Note_off_c, 0, 72, 54
1, 813171, Note_on_c, 0, 71, 54
1, 813190, Note_off_c, 0, 40, 57
1, 813227, Note_on_c, 0, 48, 70
1, 813233, Note_off_c, 0, 74, 62
1, 813239, Note_on_c, 0, 45, 60
1, 813242, Note_on_c, 0, 76, 60
1, 813245, Note_off_c, 0, 71, 61
1, 813270, Note_off_c, 0, 76, 63
1, 813280, Note_off_c, 0, 45, 61
1, 813397, Note_on_c, 0, 64, 69
1, 813432, Note_on_c, 0, 55, 33
1, 813464, Note_off_c, 0, 64, 60
1, 813484, Note_off_c, 0, 55, 43
1, 813489, Note_on_c, 0, 38, 66
1, 813524, Note_on_c, 0, 53, 51
1, 813531, Note_on_c, 0, 57, 57
1, 813547, Note_off_c, 0, 38, 58
1, 813558, Note_off_c, 0, 53, 55
1, 813561, Note_off_c, 0, 57, 59
1, 813561, Poly_aftertouch_c, 0, 57, 0
1, 813677, Note_on_c, 0, 77, 80
1, 813706, Note_on_c, 0, 69, 63
1, 813747, Note_off_c, 0, 69, 57
1, 813797, Note_off_c, 0, 77, 35
1, 813816, Note_on_c, 0, 74, 66
1, 813817, Note_on_c, 0, 47, 61
1, 813819, Note_off_c, 0, 48, 60
1, 813824, Note_on_c, 0, 67, 62
1, 813826, Note_on_c, 0, 43, 50
1, 813861, Note_off_c, 0, 74, 55
1, 813861, Note_off_c, 0, 67, 65
1, 813927, Note_off_c, 0, 43, 62
1, 814003, Note_on_c, 0, 62, 76
1, 814061, Note_on_c, 0, 53, 33
1, 814148, Note_off_c, 0, 53, 39
1, 814151, Note_on_c, 0, 36, 57
1, 814156, Note_on_c, 0, 52, 51
1, 814164, Note_on_c, 0, 55, 63
1, 814191, Note_off_c, 0, 52, 56
1, 814204, Note_off_c, 0, 55, 64
1, 814211, Note_off_c, 0, 62, 53
1, 814272, Note_off_c, 0, 36, 50
1, 814353, Note_on_c, 0, 76, 60
1, 814381, Note_on_c, 0, 67, 49
1, 814516, Note_on_c, 0, 45, 51
1, 814520, Note_off_c, 0, 47, 59
1, 814528, Note_off_c, 0, 67, 59
1, 814529, Note_off_c, 0, 76, 54
1, 814533, Note_on_c, 0, 41, 49
1, 814534, Note_on_c, 0, 72, 54
1, 814541, Note_on_c, 0, 65, 40
1, 814576, Note_off_c, 0, 72, 61
1, 814580, Note_off_c, 0, 65, 56
1, 814692, Note_off_c, 0, 41, 61
1, 814750, Note_on_c, 0, 60, 63
1, 814814, Note_on_c, 0, 52, 29
1, 814957, Note_on_c, 0, 35, 45
1, 814967, Note_on_c, 0, 53, 52
1, 814975, Note_on_c, 0, 50, 24
1, 814994, Note_off_c, 0, 52, 53
1, 815016, Note_off_c, 0, 53, 63
1, 815023, Note_off_c, 0, 50, 44
1, 815050, Note_off_c, 0, 35, 57
1, 815052, Note_off_c, 0, 60, 51
1, 815052, Poly_aftertouch_c, 0, 60, 0
1, 815204, Note_on_c, 0, 74, 48
1, 815213, Note_on_c, 0, 65, 55
1, 815431, Note_off_c, 0, 65, 48
1, 815464, Note_on_c, 0, 71, 44
1, 815467, Note_on_c, 0, 44, 49
1, 815469, Note_off_c, 0, 74, 48
1, 815479, Note_on_c, 0, 40, 31
1, 815490, Note_on_c, 0, 64, 27
1, 815516, Note_off_c, 0, 71, 62
1, 815531, Note_off_c, 0, 45, 52
1, 815532, Note_off_c, 0, 64, 46
1, 815774, Note_on_c, 0, 59, 41
1, 815801, Note_on_c, 0, 50, 50
1, 816236, Note_off_c, 0, 40, 56
1, 816275, Note_on_c, 0, 49, 38
1, 816278, Note_off_c, 0, 44, 57
1, 816279, Note_on_c, 0, 45, 32
1, 816283, Note_on_c, 0, 52, 36
1, 816287, Note_on_c, 0, 33, 37
1, 816333, Note_off_c, 0, 50, 44
1, 816357, Note_off_c, 0, 59, 57
1, 817643, Control_c, 0, 64, 19
1, 817643, Control_c, 1, 64, 19
1, 817661, Control_c, 1, 64, 42
1, 817661, Control_c, 0, 64, 42
1, 817680, Control_c, 0, 64, 62
1, 817680, Control_c, 1, 64, 62
1, 817699, Control_c, 1, 64, 71
1, 817699, Control_c, 0, 64, 71
1, 817717, Control_c, 0, 64, 82
1, 817717, Control_c, 1, 64, 82
1, 817737, Control_c, 1, 64, 106
1, 817737, Control_c, 0, 64, 106
1, 817755, Control_c, 0, 64, 127
1, 817755, Control_c, 1, 64, 127
1, 817774, Note_off_c, 0, 33, 52
1, 817800, Note_off_c, 0, 45, 55
1, 818206, Note_off_c, 0, 49, 50
1, 818226, Note_off_c, 0, 52, 44
1, 819421, Control_c, 0, 64, 115
1, 819421, Control_c, 1, 64, 115
1, 819440, Control_c, 1, 64, 107
1, 819440, Control_c, 0, 64, 107
1, 819458, Control_c, 0, 64, 102
1, 819458, Control_c, 1, 64, 102
1, 819496, Control_c, 1, 64, 96
1, 819496, Control_c, 0, 64, 96
1, 819533, Control_c, 0, 64, 90
1, 819533, Control_c, 1, 64, 90
1, 819571, Control_c, 1, 64, 88
1, 819571, Control_c, 0, 64, 88
1, 819925, Control_c, 0, 64, 85
1, 819925, Control_c, 1, 64, 85
1, 819963, Control_c, 1, 64, 82
1, 819963, Control_c, 0, 64, 82
1, 820001, Control_c, 0, 64, 78
1, 820001, Control_c, 1, 64, 78
1, 820020, Control_c, 1, 64, 73
1, 820020, Control_c, 0, 64, 73
1, 820038, Control_c, 0, 64, 67
1, 820038, Control_c, 1, 64, 67
1, 820057, Control_c, 1, 64, 62
1, 820057, Control_c, 0, 64, 62
1, 820075, Control_c, 0, 64, 59
1, 820075, Control_c, 1, 64, 59
1, 820095, Control_c, 1, 64, 57
1, 820095, Control_c, 0, 64, 57
1, 820226, Control_c, 0, 64, 61
1, 820226, Control_c, 1, 64, 61
1, 820245, Control_c, 1, 64, 65
1, 820245, Control_c, 0, 64, 65
1, 820255, Note_on_c, 0, 92, 60
1, 820263, Control_c, 0, 64, 70
1, 820263, Control_c, 1, 64, 70
1, 820283, Control_c, 1, 64, 77
1, 820283, Control_c, 0, 64, 77
1, 820301, Control_c, 0, 64, 88
1, 820301, Control_c, 1, 64, 88
1, 820319, Control_c, 1, 64, 106
1, 820319, Control_c, 0, 64, 106
1, 820338, Control_c, 0, 64, 127
1, 820338, Control_c, 1, 64, 127
1, 820352, Note_on_c, 0, 93, 64
1, 820389, Note_off_c, 0, 92, 59
1, 820417, Note_off_c, 0, 93, 63
1, 820423, Note_on_c, 0, 95, 72
1, 820507, Control_c, 0, 64, 99
1, 820507, Control_c, 1, 64, 99
1, 820511, Note_on_c, 0, 93, 76
1, 820525, Control_c, 0, 64, 73
1, 820525, Control_c, 1, 64, 73
1, 820527, Note_on_c, 0, 81, 61
1, 820543, Control_c, 0, 64, 55
1, 820543, Control_c, 1, 64, 55
1, 820551, Note_on_c, 0, 49, 42
1, 820553, Note_on_c, 0, 33, 40
1, 820562, Control_c, 0, 64, 45
1, 820562, Control_c, 1, 64, 45
1, 820581, Control_c, 1, 64, 41
1, 820581, Control_c, 0, 64, 41
1, 820588, Note_off_c, 0, 95, 58
1, 820656, Control_c, 0, 64, 47
1, 820656, Control_c, 1, 64, 47
1, 820674, Control_c, 1, 64, 56
1, 820674, Control_c, 0, 64, 56
1, 820694, Control_c, 0, 64, 64
1, 820694, Control_c, 1, 64, 64
1, 820712, Control_c, 1, 64, 70
1, 820712, Control_c, 0, 64, 70
1, 820731, Control_c, 0, 64, 76
1, 820731, Control_c, 1, 64, 76
1, 820750, Control_c, 1, 64, 83
1, 820750, Control_c, 0, 64, 83
1, 820769, Control_c, 0, 64, 97
1, 820769, Control_c, 1, 64, 97
1, 820787, Control_c, 1, 64, 127
1, 820787, Control_c, 0, 64, 127
1, 820796, Note_off_c, 0, 33, 52
1, 820821, Poly_aftertouch_c, 0, 49, 24
1, 820826, Poly_aftertouch_c, 0, 35, 0
1, 820828, Note_off_c, 0, 81, 61
1, 820867, Note_off_c, 0, 49, 39
1, 820867, Poly_aftertouch_c, 0, 49, 0
1, 820868, Poly_aftertouch_c, 0, 49, 0
1, 821336, Note_on_c, 0, 92, 85
1, 821372, Note_on_c, 0, 80, 52
1, 821401, Note_on_c, 0, 69, 38
1, 821414, Note_on_c, 0, 64, 44
1, 821427, Note_on_c, 0, 73, 33
1, 821460, Note_off_c, 0, 93, 60
1, 821485, Note_on_c, 0, 90, 21
1, 821562, Note_off_c, 0, 90, 49
1, 821672, Note_off_c, 0, 69, 34
1, 821693, Note_off_c, 0, 80, 37
1, 821782, Note_off_c, 0, 64, 34
1, 821941, Note_on_c, 0, 90, 86
1, 821986, Note_off_c, 0, 73, 59
1, 821986, Note_on_c, 0, 61, 51
1, 821990, Note_on_c, 0, 69, 47
1, 821990, Note_on_c, 0, 78, 43
1, 822024, Note_on_c, 0, 64, 35
1, 822032, Note_off_c, 0, 69, 59
1, 822064, Note_off_c, 0, 64, 52
1, 822102, Note_off_c, 0, 61, 58
1, 822111, Note_off_c, 0, 92, 39
1, 822149, Note_off_c, 0, 78, 47
1, 822642, Note_on_c, 0, 92, 72
1, 822642, Control_c, 0, 64, 76
1, 822642, Control_c, 1, 64, 76
1, 822659, Control_c, 1, 64, 46
1, 822659, Note_on_c, 0, 80, 47
1, 822659, Control_c, 0, 64, 46
1, 822669, Note_on_c, 0, 35, 31
1, 822678, Control_c, 0, 64, 18
1, 822678, Control_c, 1, 64, 18
1, 822683, Note_on_c, 0, 50, 43
1, 822696, Control_c, 0, 64, 0
1, 822696, Control_c, 1, 64, 0
1, 822738, Note_off_c, 0, 90, 58
1, 822809, Control_c, 0, 64, 17
1, 822809, Control_c, 1, 64, 17
1, 822827, Control_c, 1, 64, 30
1, 822827, Control_c, 0, 64, 30
1, 822847, Control_c, 0, 64, 48
1, 822847, Control_c, 1, 64, 48
1, 822866, Control_c, 1, 64, 69
1, 822866, Control_c, 0, 64, 69
1, 822884, Control_c, 0, 64, 90
1, 822884, Control_c, 1, 64, 90
1, 822892, Note_off_c, 0, 35, 55
1, 822901, Control_c, 0, 64, 127
1, 822901, Control_c, 1, 64, 127
1, 822938, Note_off_c, 0, 50, 61
1, 823013, Note_off_c, 0, 92, 64
1, 823443, Note_on_c, 0, 68, 41
1, 823477, Note_on_c, 0, 62, 35
1, 823769, Note_on_c, 0, 86, 51
1, 823783, Note_off_c, 0, 62, 39
1, 823785, Note_on_c, 0, 74, 38
1, 823824, Note_off_c, 0, 80, 34
1, 823894, Note_off_c, 0, 74, 39
1, 823963, Note_off_c, 0, 86, 37
1, 824098, Note_on_c, 0, 56, 33
1, 824105, Note_on_c, 0, 62, 34
1, 824161, Note_off_c, 0, 68, 40
1, 824191, Note_on_c, 0, 86, 54
1, 824227, Note_on_c, 0, 74, 29
1, 824314, Note_off_c, 0, 62, 34
1, 824330, Note_off_c, 0, 56, 54
1, 824406, Note_off_c, 0, 74, 41
1, 824496, Note_off_c, 0, 86, 64
1, 824863, Note_on_c, 0, 90, 64
1, 824886, Note_on_c, 0, 78, 50
1, 824993, Note_off_c, 0, 78, 38
1, 824994, Note_off_c, 0, 90, 66
1, 824997, Control_c, 0, 64, 85
1, 824997, Control_c, 1, 64, 85
1, 825017, Control_c, 1, 64, 53
1, 825017, Control_c, 0, 64, 53
1, 825034, Note_on_c, 0, 88, 70
1, 825034, Control_c, 0, 64, 24
1, 825034, Control_c, 1, 64, 24
1, 825056, Control_c, 1, 64, 12
1, 825056, Control_c, 0, 64, 12
1, 825058, Note_on_c, 0, 52, 48
1, 825063, Note_on_c, 0, 37, 40
1, 825067, Note_on_c, 0, 76, 58
1, 825112, Control_c, 0, 64, 20
1, 825112, Control_c, 1, 64, 20
1, 825130, Control_c, 1, 64, 33
1, 825130, Control_c, 0, 64, 33
1, 825149, Control_c, 0, 64, 54
1, 825149, Control_c, 1, 64, 54
1, 825167, Control_c, 1, 64, 74
1, 825167, Control_c, 0, 64, 74
1, 825187, Control_c, 0, 64, 92
1, 825187, Control_c, 1, 64, 92
1, 825205, Control_c, 1, 64, 127
1, 825205, Control_c, 0, 64, 127
1, 825233, Note_off_c, 0, 37, 55
1, 825290, Note_off_c, 0, 52, 60
1, 825499, Note_off_c, 0, 76, 34
1, 825748, Note_on_c, 0, 86, 68
1, 825774, Note_on_c, 0, 74, 31
1, 825806, Note_on_c, 0, 69, 36
1, 825829, Note_on_c, 0, 64, 28
1, 825840, Note_off_c, 0, 88, 66
1, 826006, Note_off_c, 0, 74, 61
1, 826045, Note_off_c, 0, 64, 38
1, 826370, Note_on_c, 0, 85, 66
1, 826375, Note_on_c, 0, 57, 40
1, 826400, Note_on_c, 0, 73, 39
1, 826430, Note_off_c, 0, 69, 31
1, 826444, Poly_aftertouch_c, 0, 64, 127
1, 826485, Poly_aftertouch_c, 0, 64, 0
1, 826513, Note_off_c, 0, 57, 60
1, 826513, Poly_aftertouch_c, 0, 57, 0
1, 826542, Note_off_c, 0, 86, 61
1, 826576, Note_off_c, 0, 73, 47
1, 827114, Control_c, 0, 64, 104
1, 827114, Control_c, 1, 64, 104
1, 827123, Note_on_c, 0, 88, 54
1, 827133, Control_c, 0, 64, 73
1, 827133, Control_c, 1, 64, 73
1, 827136, Note_on_c, 0, 76, 41
1, 827153, Control_c, 0, 64, 51
1, 827153, Control_c, 1, 64, 51
1, 827155, Note_on_c, 0, 35, 31
1, 827169, Control_c, 0, 64, 31
1, 827169, Control_c, 1, 64, 31
1, 827177, Note_on_c, 0, 50, 31
1, 827190, Control_c, 0, 64, 14
1, 827190, Control_c, 1, 64, 14
1, 827245, Note_off_c, 0, 85, 34
1, 827301, Control_c, 0, 64, 9
1, 827301, Control_c, 1, 64, 9
1, 827320, Control_c, 1, 64, 21
1, 827320, Control_c, 0, 64, 21
1, 827338, Control_c, 0, 64, 35
1, 827338, Control_c, 1, 64, 35
1, 827358, Control_c, 1, 64, 56
1, 827358, Control_c, 0, 64, 56
1, 827376, Control_c, 0, 64, 76
1, 827376, Control_c, 1, 64, 76
1, 827396, Note_off_c, 0, 35, 55
1, 827396, Control_c, 0, 64, 102
1, 827396, Control_c, 1, 64, 102
1, 827414, Control_c, 1, 64, 127
1, 827414, Control_c, 0, 64, 127
1, 827424, Note_off_c, 0, 88, 59
1, 827478, Note_off_c, 0, 50, 53
1, 828061, Note_on_c, 0, 62, 30
1, 828068, Note_on_c, 0, 59, 30
1, 828396, Note_on_c, 0, 80, 45
1, 828434, Note_on_c, 0, 68, 23
1, 828476, Note_off_c, 0, 76, 34
1, 828483, Note_off_c, 0, 59, 36
1, 828610, Note_off_c, 0, 80, 36
1, 828639, Note_off_c, 0, 68, 42
1, 828840, Note_on_c, 0, 52, 31
1, 828865, Note_on_c, 0, 59, 12
1, 828871, Note_on_c, 0, 80, 36
1, 828926, Note_on_c, 0, 68, 26
1, 828961, Note_off_c, 0, 62, 39
1, 829034, Note_off_c, 0, 59, 41
1, 829077, Note_off_c, 0, 52, 53
1, 829251, Note_off_c, 0, 68, 43
1, 829377, Note_off_c, 0, 80, 47
1, 829829, Note_on_c, 0, 93, 53
1, 829852, Note_on_c, 0, 49, 45
1, 829876, Note_on_c, 0, 33, 38
1, 829922, Control_c, 0, 64, 107
1, 829922, Control_c, 1, 64, 107
1, 829926, Note_on_c, 0, 35, 22
1, 829941, Control_c, 0, 64, 76
1, 829941, Control_c, 1, 64, 76
1, 829959, Control_c, 1, 64, 54
1, 829959, Control_c, 0, 64, 54
1, 829973, Note_on_c, 0, 81, 82
1, 829977, Control_c, 0, 64, 35
1, 829977, Control_c, 1, 64, 35
1, 829993, Note_off_c, 0, 35, 28
1, 829997, Control_c, 0, 64, 19
1, 829997, Control_c, 1, 64, 19
1, 830015, Control_c, 1, 64, 13
1, 830015, Control_c, 0, 64, 13
1, 830090, Control_c, 0, 64, 19
1, 830090, Control_c, 1, 64, 19
1, 830108, Control_c, 1, 64, 26
1, 830108, Control_c, 0, 64, 26
1, 830129, Control_c, 0, 64, 37
1, 830129, Control_c, 1, 64, 37
1, 830145, Control_c, 1, 64, 53
1, 830145, Control_c, 0, 64, 53
1, 830165, Control_c, 0, 64, 70
1, 830165, Control_c, 1, 64, 70
1, 830184, Control_c, 1, 64, 85
1, 830184, Control_c, 0, 64, 85
1, 830202, Control_c, 0, 64, 105
1, 830202, Control_c, 1, 64, 105
1, 830221, Control_c, 1, 64, 127
1, 830221, Control_c, 0, 64, 127
1, 830236, Note_off_c, 0, 33, 49
1, 830298, Note_off_c, 0, 49, 58
1, 830299, Poly_aftertouch_c, 0, 49, 0
1, 830453, Note_off_c, 0, 81, 60
1, 830823, Note_on_c, 0, 69, 17
1, 830833, Note_on_c, 0, 73, 23
1, 830849, Note_on_c, 0, 64, 30
1, 830885, Note_on_c, 0, 92, 49
1, 830954, Note_off_c, 0, 93, 61
1, 830958, Note_on_c, 0, 80, 74
1, 831013, Note_off_c, 0, 64, 49
1, 831049, Note_off_c, 0, 69, 37
1, 831369, Note_off_c, 0, 80, 59
1, 831373, Note_off_c, 0, 73, 40
1, 831405, Note_on_c, 0, 69, 41
1, 831415, Note_on_c, 0, 61, 41
1, 831493, Note_off_c, 0, 69, 48
1, 831525, Poly_aftertouch_c, 0, 64, 127
1, 831545, Note_off_c, 0, 61, 61
1, 831549, Note_on_c, 0, 90, 66
1, 831556, Poly_aftertouch_c, 0, 64, 0
1, 831594, Note_on_c, 0, 78, 74
1, 831637, Note_off_c, 0, 92, 63
1, 831911, Note_off_c, 0, 78, 59
1, 831926, Note_off_c, 0, 90, 58
1, 832105, Note_on_c, 0, 90, 53
1, 832126, Note_on_c, 0, 78, 54
1, 832211, Note_off_c, 0, 78, 53
1, 832385, Note_on_c, 0, 35, 35
1, 832387, Note_on_c, 0, 50, 28
1, 832392, Control_c, 0, 64, 83
1, 832392, Control_c, 1, 64, 83
1, 832412, Control_c, 1, 64, 61
1, 832412, Control_c, 0, 64, 61
1, 832429, Control_c, 0, 64, 43
1, 832429, Control_c, 1, 64, 43
1, 832436, Note_on_c, 0, 80, 62
1, 832443, Note_on_c, 0, 92, 54
1, 832448, Control_c, 0, 64, 29
1, 832448, Control_c, 1, 64, 29
1, 832468, Control_c, 1, 64, 15
1, 832468, Control_c, 0, 64, 15
1, 832521, Note_off_c, 0, 90, 42
1, 832599, Control_c, 0, 64, 28
1, 832599, Control_c, 1, 64, 28
1, 832617, Control_c, 1, 64, 48
1, 832617, Control_c, 0, 64, 48
1, 832636, Control_c, 0, 64, 74
1, 832636, Control_c, 1, 64, 74
1, 832655, Control_c, 1, 64, 118
1, 832655, Control_c, 0, 64, 118
1, 832674, Control_c, 0, 64, 127
1, 832674, Control_c, 1, 64, 127
1, 832732, Note_off_c, 0, 35, 52
1, 832778, Note_off_c, 0, 92, 63
1, 832802, Note_off_c, 0, 50, 53
1, 833317, Note_on_c, 0, 68, 36
1, 833431, Poly_aftertouch_c, 0, 62, 127
1, 833621, Poly_aftertouch_c, 0, 62, 0
1, 833632, Poly_aftertouch_c, 0, 80, 24
1, 833648, Note_on_c, 0, 74, 42
1, 833657, Note_on_c, 0, 86, 40
1, 833662, Note_off_c, 0, 80, 45
1, 833662, Poly_aftertouch_c, 0, 80, 0
1, 833828, Note_off_c, 0, 74, 40
1, 833892, Note_off_c, 0, 86, 34
1, 833987, Note_on_c, 0, 62, 27
1, 833989, Note_on_c, 0, 56, 31
1, 833992, Note_off_c, 0, 68, 43
1, 834107, Note_on_c, 0, 86, 38
1, 834129, Note_on_c, 0, 74, 34
1, 834156, Note_off_c, 0, 62, 36
1, 834211, Note_off_c, 0, 56, 55
1, 834270, Note_off_c, 0, 74, 25
1, 834403, Note_off_c, 0, 86, 37
1, 834746, Note_on_c, 0, 90, 64
1, 834771, Note_on_c, 0, 78, 40
1, 834864, Note_off_c, 0, 90, 59
1, 834883, Note_off_c, 0, 78, 39
1, 834920, Control_c, 0, 64, 93
1, 834920, Control_c, 1, 64, 93
1, 834939, Control_c, 1, 64, 62
1, 834939, Control_c, 0, 64, 62
1, 834945, Note_on_c, 0, 88, 54
1, 834958, Note_on_c, 0, 76, 47
1, 834958, Control_c, 0, 64, 40
1, 834958, Control_c, 1, 64, 40
1, 834974, Control_c, 1, 64, 31
1, 834974, Control_c, 0, 64, 31
1, 834980, Note_on_c, 0, 37, 37
1, 834982, Note_on_c, 0, 52, 30
1, 835014, Control_c, 0, 64, 35
1, 835014, Control_c, 1, 64, 35
1, 835031, Control_c, 1, 64, 48
1, 835031, Control_c, 0, 64, 48
1, 835052, Control_c, 0, 64, 69
1, 835052, Control_c, 1, 64, 69
1, 835069, Control_c, 1, 64, 95
1, 835069, Control_c, 0, 64, 95
1, 835088, Control_c, 0, 64, 127
1, 835088, Control_c, 1, 64, 127
1, 835117, Note_off_c, 0, 37, 55
1, 835196, Note_off_c, 0, 52, 52
1, 835413, Note_off_c, 0, 76, 37
1, 835600, Note_on_c, 0, 74, 51
1, 835607, Note_on_c, 0, 86, 61
1, 835643, Note_on_c, 0, 69, 38
1, 835669, Note_on_c, 0, 64, 20
1, 835674, Note_off_c, 0, 88, 38
1, 835857, Note_off_c, 0, 64, 41
1, 835916, Note_off_c, 0, 74, 62
1, 836165, Note_off_c, 0, 69, 45
1, 836192, Note_on_c, 0, 64, 28
1, 836209, Note_on_c, 0, 57, 31
1, 836311, Note_on_c, 0, 73, 61
1, 836318, Note_off_c, 0, 64, 37
1, 836361, Note_on_c, 0, 85, 34
1, 836404, Note_off_c, 0, 57, 52
1, 836404, Poly_aftertouch_c, 0, 57, 0
1, 836492, Note_off_c, 0, 86, 49
1, 836636, Note_off_c, 0, 73, 59
1, 836696, Note_off_c, 0, 85, 44
1, 836839, Note_on_c, 0, 85, 55
1, 836878, Note_on_c, 0, 73, 54
1, 836940, Note_off_c, 0, 73, 48
1, 837148, Control_c, 0, 64, 99
1, 837148, Control_c, 1, 64, 99
1, 837160, Note_on_c, 0, 50, 29
1, 837164, Note_on_c, 0, 35, 28
1, 837165, Control_c, 0, 64, 70
1, 837165, Control_c, 1, 64, 70
1, 837186, Control_c, 1, 64, 49
1, 837186, Control_c, 0, 64, 49
1, 837198, Note_on_c, 0, 76, 57
1, 837199, Note_on_c, 0, 88, 60
1, 837205, Control_c, 0, 64, 33
1, 837205, Control_c, 1, 64, 33
1, 837223, Control_c, 1, 64, 24
1, 837223, Control_c, 0, 64, 24
1, 837240, Control_c, 0, 64, 19
1, 837240, Control_c, 1, 64, 19
1, 837259, Control_c, 1, 64, 15
1, 837259, Control_c, 0, 64, 15
1, 837288, Note_off_c, 0, 85, 30
1, 837334, Control_c, 0, 64, 27
1, 837334, Control_c, 1, 64, 27
1, 837354, Control_c, 1, 64, 47
1, 837354, Control_c, 0, 64, 47
1, 837371, Control_c, 0, 64, 74
1, 837371, Control_c, 1, 64, 74
1, 837391, Control_c, 1, 64, 116
1, 837391, Control_c, 0, 64, 116
1, 837409, Control_c, 0, 64, 127
1, 837409, Control_c, 1, 64, 127
1, 837430, Note_off_c, 0, 35, 51
1, 837450, Note_off_c, 0, 88, 55
1, 837499, Note_off_c, 0, 50, 53
1, 838104, Note_on_c, 0, 62, 29
1, 838160, Note_on_c, 0, 59, 14
1, 838509, Note_on_c, 0, 80, 43
1, 838527, Note_off_c, 0, 76, 33
1, 838536, Poly_aftertouch_c, 0, 59, 24
1, 838555, Note_on_c, 0, 68, 22
1, 838653, Note_off_c, 0, 59, 28
1, 838653, Poly_aftertouch_c, 0, 59, 0
1, 838741, Note_off_c, 0, 68, 42
1, 838749, Note_off_c, 0, 80, 39
1, 838749, Poly_aftertouch_c, 0, 80, 0
1, 838954, Note_on_c, 0, 52, 28
1, 839008, Note_off_c, 0, 62, 40
1, 839033, Poly_aftertouch_c, 0, 59, 127
1, 839071, Note_on_c, 0, 80, 34
1, 839087, Poly_aftertouch_c, 0, 59, 0
1, 839109, Note_on_c, 0, 68, 33
1, 839188, Note_off_c, 0, 52, 37
1, 839225, Control_c, 0, 67, 120
1, 839225, Control_c, 1, 67, 120
1, 839243, Control_c, 1, 67, 111
1, 839243, Control_c, 0, 67, 111
1, 839262, Control_c, 0, 67, 99
1, 839262, Control_c, 1, 67, 99
1, 839281, Control_c, 1, 67, 85
1, 839281, Control_c, 0, 67, 85
1, 839300, Control_c, 0, 67, 71
1, 839300, Control_c, 1, 67, 71
1, 839318, Control_c, 1, 67, 60
1, 839318, Control_c, 0, 67, 60
1, 839338, Control_c, 0, 67, 50
1, 839338, Control_c, 1, 67, 50
1, 839356, Control_c, 1, 67, 41
1, 839356, Control_c, 0, 67, 41
1, 839374, Control_c, 0, 67, 32
1, 839374, Control_c, 1, 67, 32
1, 839393, Control_c, 1, 67, 24
1, 839393, Control_c, 0, 67, 24
1, 839411, Control_c, 0, 67, 18
1, 839411, Control_c, 1, 67, 18
1, 839431, Control_c, 1, 67, 12
1, 839431, Control_c, 0, 67, 12
1, 839468, Control_c, 0, 67, 0
1, 839468, Control_c, 1, 67, 0
1, 839524, Note_off_c, 0, 68, 42
1, 839664, Note_off_c, 0, 80, 59
1, 839664, Poly_aftertouch_c, 0, 80, 0
1, 840242, Note_on_c, 0, 49, 45
1, 840263, Note_on_c, 0, 33, 24
1, 840271, Control_c, 0, 64, 115
1, 840271, Control_c, 1, 64, 115
1, 840281, Note_on_c, 0, 97, 84
1, 840290, Control_c, 0, 64, 68
1, 840290, Control_c, 1, 64, 68
1, 840295, Note_on_c, 0, 85, 69
1, 840310, Control_c, 0, 64, 40
1, 840310, Control_c, 1, 64, 40
1, 840328, Control_c, 1, 64, 23
1, 840328, Control_c, 0, 64, 23
1, 840348, Control_c, 0, 64, 12
1, 840348, Control_c, 1, 64, 12
1, 840360, Note_on_c, 0, 35, 16
1, 840361, Note_off_c, 0, 35, 127
1, 840424, Control_c, 0, 64, 8
1, 840424, Control_c, 1, 64, 8
1, 840442, Control_c, 1, 64, 25
1, 840442, Control_c, 0, 64, 25
1, 840460, Control_c, 0, 64, 48
1, 840460, Control_c, 1, 64, 48
1, 840479, Control_c, 1, 64, 76
1, 840479, Control_c, 0, 64, 76
1, 840498, Control_c, 0, 64, 127
1, 840498, Control_c, 1, 64, 127
1, 840602, Note_off_c, 0, 33, 46
1, 840667, Note_off_c, 0, 49, 54
1, 840948, Note_off_c, 0, 97, 63
1, 841058, Note_off_c, 0, 85, 53
1, 841324, Note_on_c, 0, 95, 82
1, 841349, Note_on_c, 0, 83, 57
1, 841378, Note_on_c, 0, 73, 35
1, 841384, Note_on_c, 0, 69, 37
1, 841386, Note_on_c, 0, 64, 42
1, 841609, Note_off_c, 0, 69, 49
1, 841647, Note_off_c, 0, 64, 57
1, 841856, Note_off_c, 0, 83, 32
1, 841996, Note_on_c, 0, 93, 74
1, 841999, Note_off_c, 0, 73, 54
1, 842016, Note_on_c, 0, 81, 60
1, 842018, Note_on_c, 0, 61, 42
1, 842058, Note_on_c, 0, 69, 7
1, 842072, Note_off_c, 0, 95, 65
1, 842080, Note_on_c, 0, 64, 6
1, 842126, Note_off_c, 0, 61, 58
1, 842138, Note_off_c, 0, 69, 25
1, 842161, Note_off_c, 0, 64, 32
1, 842449, Note_off_c, 0, 81, 53
1, 842766, Note_on_c, 0, 89, 63
1, 842773, Note_on_c, 0, 77, 31
1, 842781, Control_c, 0, 64, 118
1, 842781, Control_c, 1, 64, 118
1, 842784, Note_on_c, 0, 54, 44
1, 842799, Control_c, 0, 64, 76
1, 842799, Control_c, 1, 64, 76
1, 842806, Note_on_c, 0, 38, 35
1, 842819, Control_c, 0, 64, 53
1, 842819, Control_c, 1, 64, 53
1, 842835, Note_off_c, 0, 93, 38
1, 842838, Control_c, 0, 64, 38
1, 842838, Control_c, 1, 64, 38
1, 842856, Control_c, 1, 64, 30
1, 842856, Control_c, 0, 64, 30
1, 842874, Control_c, 0, 64, 24
1, 842874, Control_c, 1, 64, 24
1, 842894, Control_c, 1, 64, 18
1, 842894, Control_c, 0, 64, 18
1, 842943, Poly_aftertouch_c, 0, 40, 0
1, 842949, Control_c, 0, 64, 23
1, 842949, Control_c, 1, 64, 23
1, 842969, Control_c, 1, 64, 34
1, 842969, Control_c, 0, 64, 34
1, 842986, Control_c, 0, 64, 48
1, 842986, Control_c, 1, 64, 48
1, 843006, Control_c, 1, 64, 67
1, 843006, Control_c, 0, 64, 67
1, 843025, Control_c, 0, 64, 87
1, 843025, Control_c, 1, 64, 87
1, 843043, Control_c, 1, 64, 127
1, 843043, Control_c, 0, 64, 127
1, 843161, Note_off_c, 0, 38, 50
1, 843226, Note_off_c, 0, 54, 48
1, 843857, Note_on_c, 0, 71, 28
1, 843858, Note_off_c, 0, 77, 55
1, 843864, Note_on_c, 0, 62, 29
1, 843909, Note_on_c, 0, 66, 19
1, 844198, Note_on_c, 0, 90, 54
1, 844205, Poly_aftertouch_c, 0, 66, 24
1, 844232, Note_off_c, 0, 66, 39
1, 844232, Poly_aftertouch_c, 0, 66, 0
1, 844242, Note_off_c, 0, 62, 40
1, 844242, Note_on_c, 0, 78, 19
1, 844300, Note_off_c, 0, 71, 40
1, 844326, Note_off_c, 0, 89, 49
1, 844392, Note_off_c, 0, 78, 46
1, 844405, Note_off_c, 0, 90, 62
1, 844595, Note_on_c, 0, 59, 26
1, 844600, Note_on_c, 0, 66, 17
1, 844616, Note_on_c, 0, 90, 52
1, 844686, Poly_aftertouch_c, 0, 62, 127
1, 844737, Note_off_c, 0, 66, 36
1, 844737, Poly_aftertouch_c, 0, 66, 0
1, 844801, Note_off_c, 0, 59, 55
1, 844802, Poly_aftertouch_c, 0, 62, 0
1, 845562, Note_on_c, 0, 95, 74
1, 845570, Control_c, 0, 64, 89
1, 845570, Control_c, 1, 64, 89
1, 845588, Note_on_c, 0, 83, 42
1, 845589, Control_c, 0, 64, 59
1, 845589, Control_c, 1, 64, 59
1, 845605, Control_c, 1, 64, 36
1, 845605, Note_on_c, 0, 47, 44
1, 845605, Control_c, 0, 64, 36
1, 845617, Note_on_c, 0, 32, 37
1, 845625, Control_c, 0, 64, 25
1, 845625, Control_c, 1, 64, 25
1, 845662, Note_off_c, 0, 90, 46
1, 845701, Control_c, 0, 64, 30
1, 845701, Control_c, 1, 64, 30
1, 845721, Control_c, 1, 64, 41
1, 845721, Control_c, 0, 64, 41
1, 845738, Control_c, 0, 64, 58
1, 845738, Control_c, 1, 64, 58
1, 845758, Control_c, 1, 64, 76
1, 845758, Control_c, 0, 64, 76
1, 845777, Control_c, 0, 64, 103
1, 845777, Control_c, 1, 64, 103
1, 845794, Control_c, 1, 64, 127
1, 845794, Control_c, 0, 64, 127
1, 845850, Note_off_c, 0, 32, 56
1, 845921, Note_off_c, 0, 47, 62
1, 846436, Note_off_c, 0, 83, 46
1, 846527, Note_on_c, 0, 93, 74
1, 846539, Note_on_c, 0, 81, 54
1, 846595, Note_on_c, 0, 68, 27
1, 846607, Note_on_c, 0, 62, 39
1, 846655, Poly_aftertouch_c, 0, 83, 0
1, 846667, Note_off_c, 0, 95, 64
1, 846818, Note_off_c, 0, 81, 62
1, 846887, Note_off_c, 0, 62, 51
1, 847210, Note_on_c, 0, 92, 80
1, 847253, Note_on_c, 0, 80, 37
1, 847259, Note_on_c, 0, 62, 34
1, 847266, Note_on_c, 0, 56, 37
1, 847290, Note_off_c, 0, 68, 41
1, 847372, Note_off_c, 0, 62, 49
1, 847409, Note_off_c, 0, 93, 58
1, 847426, Note_off_c, 0, 56, 59
1, 847487, Note_off_c, 0, 92, 65
1, 848078, Note_on_c, 0, 87, 68
1, 848097, Control_c, 0, 64, 108
1, 848097, Control_c, 1, 64, 108
1, 848114, Note_on_c, 0, 75, 33
1, 848116, Note_on_c, 0, 52, 37
1, 848116, Control_c, 0, 64, 75
1, 848116, Control_c, 1, 64, 75
1, 848134, Control_c, 1, 64, 53
1, 848134, Control_c, 0, 64, 53
1, 848141, Note_on_c, 0, 37, 33
1, 848153, Control_c, 0, 64, 37
1, 848153, Control_c, 1, 64, 37
1, 848172, Control_c, 1, 64, 28
1, 848172, Control_c, 0, 64, 28
1, 848187, Note_off_c, 0, 80, 59
1, 848187, Poly_aftertouch_c, 0, 80, 0
1, 848191, Control_c, 0, 64, 23
1, 848191, Control_c, 1, 64, 23
1, 848266, Control_c, 1, 64, 37
1, 848266, Control_c, 0, 64, 37
1, 848284, Control_c, 0, 64, 58
1, 848284, Control_c, 1, 64, 58
1, 848303, Control_c, 1, 64, 81
1, 848303, Control_c, 0, 64, 81
1, 848323, Control_c, 0, 64, 127
1, 848323, Control_c, 1, 64, 127
1, 848384, Note_off_c, 0, 37, 52
1, 848458, Note_off_c, 0, 52, 51
1, 848660, Control_c, 0, 67, 8
1, 848660, Control_c, 1, 67, 8
1, 848734, Control_c, 1, 67, 12
1, 848734, Control_c, 0, 67, 12
1, 848771, Control_c, 0, 67, 17
1, 848771, Control_c, 1, 67, 17
1, 848808, Control_c, 1, 67, 23
1, 848808, Control_c, 0, 67, 23
1, 848847, Control_c, 0, 67, 27
1, 848847, Control_c, 1, 67, 27
1, 848902, Control_c, 1, 67, 33
1, 848902, Control_c, 0, 67, 33
1, 848958, Control_c, 0, 67, 38
1, 848958, Control_c, 1, 67, 38
1, 849014, Control_c, 1, 67, 42
1, 849014, Note_on_c, 0, 68, 18
1, 849014, Control_c, 0, 67, 42
1, 849017, Note_on_c, 0, 61, 26
1, 849021, Note_on_c, 0, 64, 17
1, 849059, Note_off_c, 0, 75, 37
1, 849238, Control_c, 0, 67, 47
1, 849238, Control_c, 1, 67, 47
1, 849277, Control_c, 1, 67, 51
1, 849277, Control_c, 0, 67, 51
1, 849315, Control_c, 0, 67, 56
1, 849315, Control_c, 1, 67, 56
1, 849324, Note_off_c, 0, 64, 36
1, 849333, Note_off_c, 0, 61, 40
1, 849351, Control_c, 0, 67, 61
1, 849351, Control_c, 1, 67, 61
1, 849354, Note_on_c, 0, 88, 43
1, 849389, Control_c, 0, 67, 65
1, 849389, Control_c, 1, 67, 65
1, 849391, Note_on_c, 0, 76, 29
1, 849426, Control_c, 0, 67, 69
1, 849426, Control_c, 1, 67, 69
1, 849464, Control_c, 1, 67, 75
1, 849464, Control_c, 0, 67, 75
1, 849500, Control_c, 0, 67, 79
1, 849500, Control_c, 1, 67, 79
1, 849524, Note_off_c, 0, 87, 34
1, 849538, Control_c, 0, 67, 84
1, 849538, Control_c, 1, 67, 84
1, 849543, Note_off_c, 0, 76, 35
1, 849574, Note_off_c, 0, 88, 35
1, 849595, Control_c, 0, 67, 89
1, 849595, Control_c, 1, 67, 89
1, 849652, Control_c, 1, 67, 93
1, 849652, Control_c, 0, 67, 93
1, 849694, Note_on_c, 0, 61, 26
1, 849707, Control_c, 0, 67, 97
1, 849707, Control_c, 1, 67, 97
1, 849731, Note_on_c, 0, 64, 17
1, 849735, Note_on_c, 0, 56, 27
1, 849774, Note_off_c, 0, 68, 39
1, 849775, Note_on_c, 0, 88, 38
1, 849801, Control_c, 0, 67, 101
1, 849801, Control_c, 1, 67, 101
1, 849857, Control_c, 1, 67, 105
1, 849857, Control_c, 0, 67, 105
1, 849889, Note_off_c, 0, 56, 53
1, 849890, Note_off_c, 0, 64, 29
1, 849896, Poly_aftertouch_c, 0, 76, 0
1, 849940, Note_off_c, 0, 61, 38
1, 850138, Control_c, 0, 67, 109
1, 850138, Control_c, 1, 67, 109
1, 850231, Control_c, 1, 67, 115
1, 850231, Control_c, 0, 67, 115
1, 850306, Control_c, 0, 67, 119
1, 850306, Control_c, 1, 67, 119
1, 850568, Control_c, 1, 67, 125
1, 850568, Control_c, 0, 67, 125
1, 850763, Note_on_c, 0, 93, 54
1, 850774, Control_c, 0, 64, 94
1, 850774, Control_c, 1, 64, 94
1, 850787, Note_on_c, 0, 81, 34
1, 850792, Control_c, 0, 64, 66
1, 850792, Control_c, 1, 64, 66
1, 850807, Note_off_c, 0, 88, 42
1, 850811, Control_c, 0, 64, 45
1, 850811, Control_c, 1, 64, 45
1, 850827, Note_on_c, 0, 30, 25
1, 850829, Control_c, 0, 64, 33
1, 850829, Control_c, 1, 64, 33
1, 850847, Note_on_c, 0, 42, 20
1, 850848, Control_c, 0, 64, 29
1, 850848, Control_c, 1, 64, 29
1, 850905, Control_c, 1, 64, 40
1, 850905, Control_c, 0, 64, 40
1, 850924, Control_c, 0, 64, 59
1, 850924, Control_c, 1, 64, 59
1, 850943, Control_c, 1, 64, 83
1, 850943, Control_c, 0, 64, 83
1, 850961, Control_c, 0, 64, 127
1, 850961, Control_c, 1, 64, 127
1, 851005, Note_off_c, 0, 30, 46
1, 851027, Note_off_c, 0, 42, 46
1, 851035, Note_off_c, 0, 93, 61
1, 851953, Note_on_c, 0, 69, 23
1, 851956, Note_on_c, 0, 57, 31
1, 851984, Note_on_c, 0, 66, 14
1, 852025, Poly_aftertouch_c, 0, 61, 127
1, 852145, Note_off_c, 0, 69, 39
1, 852213, Note_off_c, 0, 66, 39
1, 852213, Poly_aftertouch_c, 0, 66, 0
1, 852266, Poly_aftertouch_c, 0, 61, 0
1, 852303, Note_off_c, 0, 57, 52
1, 852303, Poly_aftertouch_c, 0, 57, 0
1, 852371, Note_on_c, 0, 85, 51
1, 852379, Note_on_c, 0, 73, 26
1, 852653, Note_off_c, 0, 73, 41
1, 852661, Poly_aftertouch_c, 0, 81, 22
1, 852683, Control_c, 0, 64, 95
1, 852683, Control_c, 1, 64, 95
1, 852702, Control_c, 1, 64, 65
1, 852702, Control_c, 0, 64, 65
1, 852712, Note_off_c, 0, 81, 19
1, 852712, Poly_aftertouch_c, 0, 81, 0
1, 852721, Control_c, 0, 64, 46
1, 852721, Control_c, 1, 64, 46
1, 852723, Note_on_c, 0, 35, 35
1, 852724, Note_on_c, 0, 86, 50
1, 852724, Note_on_c, 0, 74, 41
1, 852740, Control_c, 0, 64, 40
1, 852740, Control_c, 1, 64, 40
1, 852777, Control_c, 1, 64, 45
1, 852777, Control_c, 0, 64, 45
1, 852790, Note_off_c, 0, 85, 46
1, 852796, Control_c, 0, 64, 57
1, 852796, Control_c, 1, 64, 57
1, 852799, Poly_aftertouch_c, 0, 47, 127
1, 852815, Control_c, 0, 64, 74
1, 852815, Control_c, 1, 64, 74
1, 852833, Control_c, 1, 64, 95
1, 852833, Control_c, 0, 64, 95
1, 852847, Poly_aftertouch_c, 0, 47, 0
1, 852850, Control_c, 0, 64, 127
1, 852850, Control_c, 1, 64, 127
1, 852900, Note_off_c, 0, 74, 34
1, 853411, Note_off_c, 0, 35, 40
1, 853446, Note_on_c, 0, 28, 38
1, 853449, Control_c, 0, 64, 104
1, 853449, Control_c, 1, 64, 104
1, 853469, Control_c, 1, 64, 70
1, 853469, Control_c, 0, 64, 70
1, 853476, Note_on_c, 0, 40, 17
1, 853487, Control_c, 0, 64, 45
1, 853487, Control_c, 1, 64, 45
1, 853498, Note_on_c, 0, 92, 54
1, 853506, Control_c, 0, 64, 25
1, 853506, Control_c, 1, 64, 25
1, 853525, Control_c, 1, 64, 14
1, 853525, Control_c, 0, 64, 14
1, 853540, Note_on_c, 0, 80, 35
1, 853600, Control_c, 0, 64, 19
1, 853600, Control_c, 1, 64, 19
1, 853615, Note_off_c, 0, 86, 42
1, 853619, Control_c, 0, 64, 32
1, 853619, Control_c, 1, 64, 32
1, 853638, Control_c, 1, 64, 52
1, 853638, Control_c, 0, 64, 52
1, 853657, Control_c, 0, 64, 74
1, 853657, Control_c, 1, 64, 74
1, 853672, Note_off_c, 0, 28, 59
1, 853675, Control_c, 0, 64, 96
1, 853675, Control_c, 1, 64, 96
1, 853694, Control_c, 1, 64, 127
1, 853694, Control_c, 0, 64, 127
1, 853719, Note_off_c, 0, 40, 53
1, 853742, Note_off_c, 0, 92, 64
1, 854449, Note_on_c, 0, 56, 28
1, 854470, Note_on_c, 0, 68, 19
1, 854477, Note_on_c, 0, 61, 26
1, 854561, Note_off_c, 0, 68, 58
1, 854705, Note_off_c, 0, 61, 40
1, 854741, Note_off_c, 0, 56, 54
1, 854751, Note_on_c, 0, 84, 51
1, 854804, Note_on_c, 0, 72, 38
1, 854863, Note_off_c, 0, 72, 56
1, 855097, Control_c, 0, 64, 108
1, 855097, Control_c, 1, 64, 108
1, 855117, Control_c, 1, 64, 75
1, 855117, Control_c, 0, 64, 75
1, 855136, Control_c, 0, 64, 54
1, 855136, Control_c, 1, 64, 54
1, 855139, Note_on_c, 0, 85, 53
1, 855147, Note_on_c, 0, 73, 34
1, 855153, Note_on_c, 0, 33, 41
1, 855155, Control_c, 0, 64, 41
1, 855155, Control_c, 1, 64, 41
1, 855203, Note_on_c, 0, 45, 8
1, 855208, Control_c, 0, 64, 48
1, 855208, Control_c, 1, 64, 48
1, 855215, Note_off_c, 0, 80, 53
1, 855215, Poly_aftertouch_c, 0, 80, 0
1, 855228, Control_c, 0, 64, 59
1, 855228, Control_c, 1, 64, 59
1, 855238, Note_off_c, 0, 84, 49
1, 855246, Control_c, 0, 64, 71
1, 855246, Control_c, 1, 64, 71
1, 855266, Control_c, 1, 64, 85
1, 855266, Control_c, 0, 64, 85
1, 855286, Control_c, 0, 64, 107
1, 855286, Control_c, 1, 64, 107
1, 855289, Note_off_c, 0, 45, 45
1, 855304, Control_c, 0, 64, 127
1, 855304, Control_c, 1, 64, 127
1, 855316, Note_off_c, 0, 73, 57
1, 855908, Note_off_c, 0, 33, 45
1, 855922, Control_c, 0, 64, 82
1, 855922, Control_c, 1, 64, 82
1, 855928, Note_on_c, 0, 90, 47
1, 855940, Control_c, 0, 64, 57
1, 855940, Control_c, 1, 64, 57
1, 855958, Control_c, 1, 64, 37
1, 855958, Control_c, 0, 64, 37
1, 855961, Note_on_c, 0, 78, 30
1, 855968, Note_on_c, 0, 26, 32
1, 855976, Control_c, 0, 64, 20
1, 855976, Control_c, 1, 64, 20
1, 855978, Note_on_c, 0, 38, 18
1, 855996, Control_c, 0, 64, 10
1, 855996, Control_c, 1, 64, 10
1, 856061, Note_off_c, 0, 85, 40
1, 856108, Control_c, 0, 64, 15
1, 856108, Control_c, 1, 64, 15
1, 856128, Control_c, 1, 64, 28
1, 856128, Control_c, 0, 64, 28
1, 856146, Control_c, 0, 64, 47
1, 856146, Control_c, 1, 64, 47
1, 856165, Control_c, 1, 64, 68
1, 856165, Control_c, 0, 64, 68
1, 856175, Note_off_c, 0, 26, 56
1, 856183, Control_c, 0, 64, 85
1, 856183, Control_c, 1, 64, 85
1, 856202, Control_c, 1, 64, 106
1, 856202, Control_c, 0, 64, 106
1, 856221, Control_c, 0, 64, 127
1, 856221, Control_c, 1, 64, 127
1, 856224, Note_off_c, 0, 38, 54
1, 856338, Note_off_c, 0, 90, 59
1, 856988, Note_on_c, 0, 66, 19
1, 856989, Note_on_c, 0, 59, 14
1, 856990, Note_on_c, 0, 54, 29
1, 857183, Note_off_c, 0, 66, 42
1, 857183, Poly_aftertouch_c, 0, 66, 0
1, 857240, Note_off_c, 0, 59, 39
1, 857340, Note_off_c, 0, 54, 47
1, 857357, Note_on_c, 0, 83, 41
1, 857371, Note_on_c, 0, 71, 23
1, 857446, Note_off_c, 0, 71, 41
1, 857756, Control_c, 0, 64, 114
1, 857756, Control_c, 1, 64, 114
1, 857762, Note_on_c, 0, 88, 53
1, 857775, Control_c, 0, 64, 75
1, 857775, Control_c, 1, 64, 75
1, 857792, Control_c, 1, 64, 51
1, 857792, Control_c, 0, 64, 51
1, 857802, Note_on_c, 0, 28, 35
1, 857812, Control_c, 0, 64, 33
1, 857812, Control_c, 1, 64, 33
1, 857831, Control_c, 1, 64, 27
1, 857831, Control_c, 0, 64, 27
1, 857844, Note_off_c, 0, 83, 36
1, 857852, Poly_aftertouch_c, 0, 76, 127
1, 857887, Control_c, 0, 64, 40
1, 857887, Control_c, 1, 64, 40
1, 857899, Poly_aftertouch_c, 0, 40, 127
1, 857904, Control_c, 0, 64, 57
1, 857904, Control_c, 1, 64, 57
1, 857910, Note_off_c, 0, 78, 55
1, 857924, Control_c, 0, 64, 75
1, 857924, Control_c, 1, 64, 75
1, 857944, Control_c, 1, 64, 94
1, 857944, Control_c, 0, 64, 94
1, 857963, Control_c, 0, 64, 127
1, 857963, Control_c, 1, 64, 127
1, 857982, Note_off_c, 0, 28, 51
1, 858179, Note_off_c, 0, 88, 52
1, 858204, Poly_aftertouch_c, 0, 76, 0
1, 858748, Control_c, 0, 64, 96
1, 858748, Control_c, 1, 64, 96
1, 858763, Note_on_c, 0, 86, 40
1, 858767, Control_c, 0, 64, 70
1, 858767, Control_c, 1, 64, 70
1, 858774, Note_on_c, 0, 83, 31
1, 858785, Note_on_c, 0, 33, 29
1, 858785, Control_c, 0, 64, 51
1, 858785, Control_c, 1, 64, 51
1, 858787, Note_on_c, 0, 74, 21
1, 858801, Note_on_c, 0, 45, 25
1, 858803, Control_c, 0, 64, 36
1, 858803, Control_c, 1, 64, 36
1, 858822, Control_c, 1, 64, 26
1, 858822, Poly_aftertouch_c, 0, 40, 0
1, 858822, Control_c, 0, 64, 26
1, 858842, Control_c, 0, 64, 21
1, 858842, Control_c, 1, 64, 21
1, 858972, Control_c, 1, 64, 32
1, 858972, Control_c, 0, 64, 32
1, 858991, Control_c, 0, 64, 44
1, 858991, Control_c, 1, 64, 44
1, 859010, Control_c, 1, 64, 64
1, 859010, Control_c, 0, 64, 64
1, 859029, Control_c, 0, 64, 81
1, 859029, Control_c, 1, 64, 81
1, 859050, Control_c, 1, 64, 104
1, 859050, Control_c, 0, 64, 104
1, 859066, Control_c, 0, 64, 127
1, 859066, Control_c, 1, 64, 127
1, 859089, Note_off_c, 0, 33, 53
1, 859132, Note_off_c, 0, 45, 55
1, 859855, Note_on_c, 0, 64, 17
1, 859863, Note_on_c, 0, 52, 24
1, 859871, Note_on_c, 0, 57, 10
1, 860147, Note_off_c, 0, 74, 53
1, 860152, Note_off_c, 0, 83, 55
1, 860769, Note_on_c, 0, 85, 34
1, 860803, Note_on_c, 0, 73, 32
1, 860828, Note_on_c, 0, 81, 28
1, 860843, Note_off_c, 0, 64, 37
1, 860975, Note_off_c, 0, 57, 39
1, 860975, Poly_aftertouch_c, 0, 57, 0
1, 861017, Note_off_c, 0, 52, 40
1, 861170, Note_off_c, 0, 86, 40
1, 861612, Control_c, 0, 64, 93
1, 861612, Control_c, 1, 64, 93
1, 861632, Control_c, 1, 64, 64
1, 861632, Control_c, 0, 64, 64
1, 861648, Control_c, 0, 64, 40
1, 861648, Control_c, 1, 64, 40
1, 861664, Note_on_c, 0, 33, 34
1, 861667, Control_c, 0, 64, 25
1, 861667, Control_c, 1, 64, 25
1, 861706, Control_c, 1, 64, 29
1, 861706, Control_c, 0, 64, 29
1, 861724, Control_c, 0, 64, 47
1, 861724, Control_c, 1, 64, 47
1, 861744, Control_c, 1, 64, 76
1, 861744, Control_c, 0, 64, 76
1, 861762, Control_c, 0, 64, 127
1, 861762, Control_c, 1, 64, 127
1, 861907, Note_off_c, 0, 33, 41
1, 861943, Note_off_c, 0, 73, 55
1, 861996, Note_off_c, 0, 81, 39
1, 861996, Poly_aftertouch_c, 0, 81, 0
1, 862055, Note_off_c, 0, 85, 60
1, 862463, Note_on_c, 0, 49, 59
1, 862628, Note_on_c, 0, 97, 51
1, 862643, Note_on_c, 0, 85, 41
1, 862687, Note_off_c, 0, 49, 61
1, 863038, Note_off_c, 0, 97, 62
1, 863141, Note_off_c, 0, 85, 44
1, 863608, Note_on_c, 0, 95, 46
1, 863619, Note_on_c, 0, 64, 36
1, 863623, Note_on_c, 0, 73, 34
1, 863625, Note_on_c, 0, 69, 30
1, 863660, Note_on_c, 0, 83, 32
1, 863834, Note_off_c, 0, 64, 43
1, 863840, Note_off_c, 0, 69, 41
1, 863845, Note_off_c, 0, 83, 43
1, 864276, Note_off_c, 0, 73, 44
1, 864324, Note_on_c, 0, 61, 30
1, 864337, Note_on_c, 0, 69, 32
1, 864345, Note_on_c, 0, 93, 41
1, 864364, Note_on_c, 0, 81, 18
1, 864395, Note_off_c, 0, 69, 51
1, 864397, Note_off_c, 0, 95, 36
1, 864401, Poly_aftertouch_c, 0, 64, 127
1, 864442, Poly_aftertouch_c, 0, 64, 0
1, 864490, Note_off_c, 0, 61, 53
1, 864761, Poly_aftertouch_c, 0, 81, 24
1, 864808, Note_off_c, 0, 81, 39
1, 864808, Poly_aftertouch_c, 0, 81, 0
1, 864892, Note_on_c, 0, 38, 36
1, 865263, Control_c, 0, 64, 103
1, 865263, Control_c, 1, 64, 103
1, 865264, Note_on_c, 0, 54, 51
1, 865281, Control_c, 0, 64, 71
1, 865281, Control_c, 1, 64, 71
1, 865301, Control_c, 1, 64, 48
1, 865301, Control_c, 0, 64, 48
1, 865314, Note_on_c, 0, 89, 38
1, 865318, Control_c, 0, 64, 31
1, 865318, Control_c, 1, 64, 31
1, 865336, Control_c, 1, 64, 20
1, 865336, Control_c, 0, 64, 20
1, 865360, Note_off_c, 0, 93, 38
1, 865390, Poly_aftertouch_c, 0, 77, 127
1, 865412, Control_c, 0, 64, 25
1, 865412, Control_c, 1, 64, 25
1, 865431, Control_c, 1, 64, 36
1, 865431, Control_c, 0, 64, 36
1, 865449, Control_c, 0, 64, 54
1, 865449, Control_c, 1, 64, 54
1, 865468, Control_c, 1, 64, 73
1, 865468, Control_c, 0, 64, 73
1, 865486, Control_c, 0, 64, 93
1, 865486, Control_c, 1, 64, 93
1, 865505, Control_c, 1, 64, 127
1, 865505, Control_c, 0, 64, 127
1, 865537, Note_off_c, 0, 38, 39
1, 865600, Note_off_c, 0, 54, 62
1, 866206, Note_on_c, 0, 71, 30
1, 866235, Note_on_c, 0, 62, 25
1, 866255, Note_on_c, 0, 66, 23
1, 866274, Poly_aftertouch_c, 0, 77, 0
1, 866515, Poly_aftertouch_c, 0, 66, 20
1, 866528, Note_off_c, 0, 66, 32
1, 866528, Poly_aftertouch_c, 0, 66, 0
1, 866597, Note_on_c, 0, 90, 35
1, 866635, Note_on_c, 0, 78, 30
1, 866662, Note_off_c, 0, 62, 31
1, 866784, Note_off_c, 0, 89, 37
1, 866837, Note_off_c, 0, 78, 45
1, 866850, Note_off_c, 0, 90, 45
1, 867021, Note_on_c, 0, 59, 25
1, 867046, Note_off_c, 0, 71, 35
1, 867052, Note_on_c, 0, 66, 20
1, 867066, Note_on_c, 0, 90, 31
1, 867076, Poly_aftertouch_c, 0, 62, 127
1, 867115, Note_on_c, 0, 78, 8
1, 867133, Note_off_c, 0, 66, 51
1, 867133, Poly_aftertouch_c, 0, 66, 0
1, 867232, Poly_aftertouch_c, 0, 62, 0
1, 867240, Note_off_c, 0, 59, 55
1, 867252, Note_off_c, 0, 78, 39
1, 867914, Note_on_c, 0, 32, 23
1, 868133, Note_on_c, 0, 47, 56
1, 868164, Control_c, 0, 64, 92
1, 868164, Control_c, 1, 64, 92
1, 868181, Control_c, 1, 64, 64
1, 868181, Control_c, 0, 64, 64
1, 868186, Note_on_c, 0, 95, 52
1, 868200, Control_c, 0, 64, 44
1, 868200, Control_c, 1, 64, 44
1, 868215, Note_on_c, 0, 83, 29
1, 868217, Control_c, 0, 64, 34
1, 868217, Control_c, 1, 64, 34
1, 868275, Control_c, 1, 64, 44
1, 868275, Control_c, 0, 64, 44
1, 868280, Note_off_c, 0, 90, 44
1, 868294, Control_c, 0, 64, 55
1, 868294, Control_c, 1, 64, 55
1, 868314, Control_c, 1, 64, 67
1, 868314, Control_c, 0, 64, 67
1, 868332, Control_c, 0, 64, 77
1, 868332, Control_c, 1, 64, 77
1, 868351, Control_c, 1, 64, 89
1, 868351, Control_c, 0, 64, 89
1, 868369, Control_c, 0, 64, 107
1, 868369, Control_c, 1, 64, 107
1, 868388, Control_c, 1, 64, 127
1, 868388, Control_c, 0, 64, 127
1, 868412, Note_off_c, 0, 32, 57
1, 868489, Note_off_c, 0, 47, 63
1, 868756, Note_off_c, 0, 83, 30
1, 869100, Note_on_c, 0, 68, 39
1, 869116, Note_on_c, 0, 93, 41
1, 869136, Note_on_c, 0, 62, 36
1, 869152, Note_off_c, 0, 95, 36
1, 869209, Poly_aftertouch_c, 0, 81, 127
1, 869418, Note_off_c, 0, 62, 36
1, 869428, Poly_aftertouch_c, 0, 81, 0
1, 869923, Note_on_c, 0, 62, 29
1, 869924, Note_on_c, 0, 92, 35
1, 869925, Note_off_c, 0, 68, 35
1, 869925, Note_on_c, 0, 56, 30
1, 869969, Note_on_c, 0, 80, 7
1, 870033, Note_off_c, 0, 62, 50
1, 870092, Note_off_c, 0, 93, 34
1, 870121, Note_off_c, 0, 56, 56
1, 870129, Note_off_c, 0, 92, 56
1, 870539, Note_on_c, 0, 37, 33
1, 870854, Note_on_c, 0, 52, 50
1, 870896, Control_c, 0, 64, 122
1, 870896, Control_c, 1, 64, 122
1, 870916, Control_c, 1, 64, 80
1, 870916, Control_c, 0, 64, 80
1, 870934, Control_c, 0, 64, 56
1, 870934, Control_c, 1, 64, 56
1, 870952, Control_c, 1, 64, 35
1, 870952, Note_on_c, 0, 87, 32
1, 870952, Control_c, 0, 64, 35
1, 870964, Note_on_c, 0, 75, 27
1, 870970, Control_c, 0, 64, 21
1, 870970, Control_c, 1, 64, 21
1, 870991, Control_c, 1, 64, 16
1, 870991, Control_c, 0, 64, 16
1, 871044, Note_off_c, 0, 80, 42
1, 871044, Poly_aftertouch_c, 0, 80, 0
1, 871065, Control_c, 0, 64, 21
1, 871065, Control_c, 1, 64, 21
1, 871083, Control_c, 1, 64, 31
1, 871083, Control_c, 0, 64, 31
1, 871103, Control_c, 0, 64, 44
1, 871103, Control_c, 1, 64, 44
1, 871121, Control_c, 1, 64, 64
1, 871121, Control_c, 0, 64, 64
1, 871140, Control_c, 0, 64, 81
1, 871140, Control_c, 1, 64, 81
1, 871158, Control_c, 1, 64, 104
1, 871158, Control_c, 0, 64, 104
1, 871176, Control_c, 0, 64, 127
1, 871176, Control_c, 1, 64, 127
1, 871184, Note_off_c, 0, 37, 55
1, 871255, Note_off_c, 0, 52, 60
1, 871703, Note_off_c, 0, 75, 44
1, 871975, Note_on_c, 0, 68, 13
1, 871984, Note_on_c, 0, 61, 17
1, 871988, Note_on_c, 0, 64, 32
1, 872334, Note_off_c, 0, 64, 32
1, 872354, Note_off_c, 0, 61, 37
1, 872397, Note_on_c, 0, 88, 35
1, 872440, Note_on_c, 0, 76, 25
1, 872502, Note_off_c, 0, 87, 35
1, 872554, Note_off_c, 0, 76, 36
1, 872599, Note_off_c, 0, 88, 43
1, 872723, Note_on_c, 0, 61, 32
1, 872752, Note_on_c, 0, 56, 22
1, 872754, Note_on_c, 0, 64, 19
1, 872783, Note_off_c, 0, 68, 38
1, 872843, Note_on_c, 0, 88, 37
1, 872942, Poly_aftertouch_c, 0, 76, 127
1, 872948, Note_off_c, 0, 64, 35
1, 872975, Poly_aftertouch_c, 0, 76, 0
1, 872990, Note_off_c, 0, 56, 52
1, 873003, Note_off_c, 0, 61, 34
1, 873927, Control_c, 0, 64, 82
1, 873927, Control_c, 1, 64, 82
1, 873929, Note_on_c, 0, 93, 46
1, 873937, Note_on_c, 0, 30, 32
1, 873948, Control_c, 0, 64, 60
1, 873948, Control_c, 1, 64, 60
1, 873954, Note_on_c, 0, 81, 32
1, 873965, Control_c, 0, 64, 43
1, 873965, Control_c, 1, 64, 43
1, 873970, Note_on_c, 0, 42, 16
1, 873985, Control_c, 0, 64, 34
1, 873985, Control_c, 1, 64, 34
1, 874004, Note_off_c, 0, 88, 37
1, 874060, Control_c, 0, 64, 42
1, 874060, Control_c, 1, 64, 42
1, 874078, Control_c, 1, 64, 58
1, 874078, Control_c, 0, 64, 58
1, 874097, Control_c, 0, 64, 76
1, 874097, Control_c, 1, 64, 76
1, 874116, Control_c, 1, 64, 100
1, 874116, Control_c, 0, 64, 100
1, 874134, Note_off_c, 0, 30, 54
1, 874134, Control_c, 0, 64, 127
1, 874134, Control_c, 1, 64, 127
1, 874172, Note_off_c, 0, 42, 54
1, 874222, Note_off_c, 0, 93, 51
1, 874994, Note_on_c, 0, 69, 51
1, 875053, Note_on_c, 0, 57, 29
1, 875060, Note_on_c, 0, 66, 23
1, 875089, Note_on_c, 0, 61, 21
1, 875291, Note_off_c, 0, 69, 60
1, 875321, Poly_aftertouch_c, 0, 66, 24
1, 875340, Poly_aftertouch_c, 0, 61, 24
1, 875352, Note_off_c, 0, 66, 40
1, 875352, Poly_aftertouch_c, 0, 66, 0
1, 875353, Poly_aftertouch_c, 0, 66, 0
1, 875381, Note_on_c, 0, 85, 49
1, 875388, Note_off_c, 0, 57, 52
1, 875388, Poly_aftertouch_c, 0, 57, 0
1, 875405, Note_off_c, 0, 61, 37
1, 875405, Poly_aftertouch_c, 0, 61, 0
1, 875406, Poly_aftertouch_c, 0, 61, 0
1, 875412, Note_on_c, 0, 73, 31
1, 875426, Note_off_c, 0, 81, 39
1, 875641, Note_off_c, 0, 73, 42
1, 875725, Control_c, 0, 64, 112
1, 875725, Control_c, 1, 64, 112
1, 875745, Control_c, 1, 64, 76
1, 875745, Control_c, 0, 64, 76
1, 875762, Control_c, 0, 64, 55
1, 875762, Control_c, 1, 64, 55
1, 875764, Note_on_c, 0, 86, 41
1, 875776, Note_on_c, 0, 74, 39
1, 875778, Note_on_c, 0, 35, 30
1, 875780, Note_on_c, 0, 47, 33
1, 875780, Control_c, 0, 64, 44
1, 875780, Control_c, 1, 64, 44
1, 875838, Control_c, 1, 64, 51
1, 875838, Control_c, 0, 64, 51
1, 875854, Note_off_c, 0, 85, 42
1, 875857, Control_c, 0, 64, 62
1, 875857, Control_c, 1, 64, 62
1, 875876, Control_c, 1, 64, 76
1, 875876, Control_c, 0, 64, 76
1, 875894, Control_c, 0, 64, 96
1, 875894, Control_c, 1, 64, 96
1, 875913, Control_c, 1, 64, 127
1, 875913, Control_c, 0, 64, 127
1, 876001, Note_off_c, 0, 74, 32
1, 876005, Note_off_c, 0, 47, 41
1, 876559, Note_off_c, 0, 35, 41
1, 876577, Note_on_c, 0, 92, 47
1, 876584, Control_c, 0, 64, 93
1, 876584, Control_c, 1, 64, 93
1, 876605, Control_c, 1, 64, 67
1, 876605, Control_c, 0, 64, 67
1, 876616, Note_on_c, 0, 28, 31
1, 876624, Control_c, 0, 64, 45
1, 876624, Control_c, 1, 64, 45
1, 876626, Note_on_c, 0, 80, 33
1, 876630, Note_on_c, 0, 40, 27
1, 876642, Control_c, 0, 64, 24
1, 876642, Control_c, 1, 64, 24
1, 876661, Control_c, 1, 64, 10
1, 876661, Control_c, 0, 64, 10
1, 876679, Note_off_c, 0, 86, 41
1, 876774, Control_c, 0, 64, 20
1, 876774, Control_c, 1, 64, 20
1, 876792, Control_c, 1, 64, 36
1, 876792, Control_c, 0, 64, 36
1, 876812, Control_c, 0, 64, 60
1, 876812, Control_c, 1, 64, 60
1, 876826, Note_off_c, 0, 28, 57
1, 876829, Control_c, 0, 64, 82
1, 876829, Control_c, 1, 64, 82
1, 876849, Control_c, 1, 64, 110
1, 876849, Control_c, 0, 64, 110
1, 876867, Control_c, 0, 64, 127
1, 876867, Control_c, 1, 64, 127
1, 876871, Note_off_c, 0, 40, 54
1, 876877, Note_off_c, 0, 92, 63
1, 877622, Note_on_c, 0, 68, 41
1, 877648, Note_on_c, 0, 56, 31
1, 877758, Poly_aftertouch_c, 0, 61, 127
1, 877853, Note_off_c, 0, 68, 53
1, 877993, Note_on_c, 0, 84, 44
1, 877994, Poly_aftertouch_c, 0, 61, 0
1, 878024, Note_off_c, 0, 56, 51
1, 878043, Note_on_c, 0, 72, 32
1, 878104, Note_off_c, 0, 72, 55
1, 878365, Control_c, 0, 64, 90
1, 878365, Control_c, 1, 64, 90
1, 878383, Control_c, 1, 64, 66
1, 878383, Control_c, 0, 64, 66
1, 878392, Note_on_c, 0, 85, 44
1, 878402, Control_c, 0, 64, 50
1, 878402, Control_c, 1, 64, 50
1, 878411, Note_on_c, 0, 73, 27
1, 878418, Control_c, 0, 64, 41
1, 878418, Control_c, 1, 64, 41
1, 878438, Note_on_c, 0, 33, 30
1, 878442, Note_on_c, 0, 45, 22
1, 878484, Note_off_c, 0, 80, 45
1, 878484, Poly_aftertouch_c, 0, 80, 0
1, 878496, Control_c, 0, 64, 52
1, 878496, Control_c, 1, 64, 52
1, 878515, Control_c, 1, 64, 66
1, 878515, Control_c, 0, 64, 66
1, 878533, Control_c, 0, 64, 80
1, 878533, Control_c, 1, 64, 80
1, 878554, Control_c, 1, 64, 98
1, 878554, Control_c, 0, 64, 98
1, 878571, Control_c, 0, 64, 127
1, 878571, Control_c, 1, 64, 127
1, 878591, Note_off_c, 0, 84, 32
1, 878612, Note_off_c, 0, 45, 35
1, 878649, Note_off_c, 0, 73, 40
1, 879213, Poly_aftertouch_c, 0, 33, 24
1, 879253, Note_off_c, 0, 33, 38
1, 879253, Poly_aftertouch_c, 0, 33, 0
1, 879301, Note_on_c, 0, 26, 35
1, 879321, Control_c, 0, 64, 108
1, 879321, Control_c, 1, 64, 108
1, 879338, Control_c, 1, 64, 75
1, 879338, Control_c, 0, 64, 75
1, 879342, Note_on_c, 0, 38, 10
1, 879357, Control_c, 0, 64, 53
1, 879357, Control_c, 1, 64, 53
1, 879358, Note_on_c, 0, 90, 40
1, 879375, Control_c, 0, 64, 34
1, 879375, Control_c, 1, 64, 34
1, 879393, Control_c, 1, 64, 21
1, 879393, Control_c, 0, 64, 21
1, 879402, Note_on_c, 0, 78, 27
1, 879413, Control_c, 0, 64, 13
1, 879413, Control_c, 1, 64, 13
1, 879506, Control_c, 1, 64, 21
1, 879506, Control_c, 0, 64, 21
1, 879525, Control_c, 0, 64, 35
1, 879525, Control_c, 1, 64, 35
1, 879544, Control_c, 1, 64, 56
1, 879544, Control_c, 0, 64, 56
1, 879549, Note_off_c, 0, 85, 40
1, 879563, Control_c, 0, 64, 76
1, 879563, Control_c, 1, 64, 76
1, 879582, Control_c, 1, 64, 94
1, 879582, Control_c, 0, 64, 94
1, 879600, Control_c, 0, 64, 127
1, 879600, Control_c, 1, 64, 127
1, 879606, Note_off_c, 0, 26, 53
1, 879653, Note_off_c, 0, 38, 49
1, 879760, Note_off_c, 0, 90, 56
1, 880599, Note_on_c, 0, 59, 23
1, 880610, Note_on_c, 0, 66, 24
1, 880617, Note_on_c, 0, 54, 29
1, 880855, Note_off_c, 0, 66, 48
1, 880968, Note_off_c, 0, 59, 40
1, 881028, Note_on_c, 0, 83, 39
1, 881066, Note_off_c, 0, 54, 41
1, 881121, Poly_aftertouch_c, 0, 71, 127
1, 881159, Poly_aftertouch_c, 0, 71, 0
1, 881484, Note_on_c, 0, 88, 39
1, 881490, Control_c, 0, 64, 114
1, 881490, Control_c, 1, 64, 114
1, 881509, Control_c, 1, 64, 78
1, 881509, Control_c, 0, 64, 78
1, 881526, Note_on_c, 0, 76, 17
1, 881528, Control_c, 0, 64, 55
1, 881528, Control_c, 1, 64, 55
1, 881537, Note_on_c, 0, 28, 27
1, 881547, Control_c, 0, 64, 37
1, 881547, Control_c, 1, 64, 37
1, 881552, Note_on_c, 0, 40, 23
1, 881566, Control_c, 0, 64, 25
1, 881566, Control_c, 1, 64, 25
1, 881603, Control_c, 1, 64, 21
1, 881603, Control_c, 0, 64, 21
1, 881605, Note_off_c, 0, 83, 36
1, 881626, Note_off_c, 0, 78, 55
1, 881641, Control_c, 0, 64, 25
1, 881641, Control_c, 1, 64, 25
1, 881659, Control_c, 1, 64, 33
1, 881659, Control_c, 0, 64, 33
1, 881678, Control_c, 0, 64, 45
1, 881678, Control_c, 1, 64, 45
1, 881697, Control_c, 1, 64, 62
1, 881697, Control_c, 0, 64, 62
1, 881715, Control_c, 0, 64, 74
1, 881715, Control_c, 1, 64, 74
1, 881723, Note_off_c, 0, 28, 57
1, 881734, Control_c, 0, 64, 83
1, 881734, Control_c, 1, 64, 83
1, 881753, Control_c, 1, 64, 91
1, 881753, Control_c, 0, 64, 91
1, 881772, Control_c, 0, 64, 99
1, 881772, Control_c, 1, 64, 99
1, 881790, Control_c, 1, 64, 114
1, 881790, Control_c, 0, 64, 114
1, 881809, Control_c, 0, 64, 127
1, 881809, Control_c, 1, 64, 127
1, 881992, Note_off_c, 0, 76, 54
1, 882022, Note_off_c, 0, 88, 42
1, 882792, Poly_aftertouch_c, 0, 40, 24
1, 882801, Control_c, 0, 64, 88
1, 882801, Control_c, 1, 64, 88
1, 882811, Note_on_c, 0, 86, 32
1, 882818, Control_c, 0, 64, 68
1, 882818, Control_c, 1, 64, 68
1, 882829, Note_on_c, 0, 83, 24
1, 882832, Note_on_c, 0, 74, 25
1, 882838, Control_c, 0, 64, 54
1, 882838, Control_c, 1, 64, 54
1, 882853, Note_on_c, 0, 45, 20
1, 882856, Control_c, 0, 64, 45
1, 882856, Control_c, 1, 64, 45
1, 882858, Note_on_c, 0, 33, 22
1, 882876, Control_c, 0, 64, 40
1, 882876, Control_c, 1, 64, 40
1, 882882, Note_off_c, 0, 40, 30
1, 882882, Poly_aftertouch_c, 0, 40, 0
1, 882913, Control_c, 0, 64, 34
1, 882913, Control_c, 1, 64, 34
1, 882932, Control_c, 1, 64, 30
1, 882932, Control_c, 0, 64, 30
1, 882951, Control_c, 0, 64, 24
1, 882951, Control_c, 1, 64, 24
1, 882971, Control_c, 1, 64, 20
1, 882971, Control_c, 0, 64, 20
1, 883007, Control_c, 0, 64, 16
1, 883007, Control_c, 1, 64, 16
1, 883119, Control_c, 1, 64, 27
1, 883119, Control_c, 0, 64, 27
1, 883139, Control_c, 0, 64, 40
1, 883139, Control_c, 1, 64, 40
1, 883157, Control_c, 1, 64, 59
1, 883157, Control_c, 0, 64, 59
1, 883175, Control_c, 0, 64, 76
1, 883175, Control_c, 1, 64, 76
1, 883194, Control_c, 1, 64, 90
1, 883194, Control_c, 0, 64, 90
1, 883212, Control_c, 0, 64, 102
1, 883212, Control_c, 1, 64, 102
1, 883232, Control_c, 1, 64, 115
1, 883232, Control_c, 0, 64, 115
1, 883250, Control_c, 0, 64, 127
1, 883250, Control_c, 1, 64, 127
1, 883265, Note_off_c, 0, 33, 54
1, 883265, Poly_aftertouch_c, 0, 33, 0
1, 883307, Note_off_c, 0, 45, 55
1, 884454, Note_on_c, 0, 52, 25
1, 884495, Poly_aftertouch_c, 0, 64, 127
1, 884511, Poly_aftertouch_c, 0, 57, 127
1, 884825, Note_off_c, 0, 83, 51
1, 884872, Note_off_c, 0, 74, 44
1, 885833, Note_on_c, 0, 73, 28
1, 885854, Note_on_c, 0, 85, 25
1, 885869, Note_on_c, 0, 81, 29
1, 886141, Note_off_c, 0, 86, 40
1, 886882, Control_c, 0, 64, 101
1, 886882, Control_c, 1, 64, 101
1, 886901, Control_c, 1, 64, 95
1, 886901, Control_c, 0, 64, 95
1, 886920, Control_c, 0, 64, 99
1, 886920, Control_c, 1, 64, 99
1, 886937, Control_c, 1, 64, 127
1, 886937, Control_c, 0, 64, 127
1, 887305, Poly_aftertouch_c, 0, 64, 0
1, 887380, Note_off_c, 0, 81, 39
1, 887389, Poly_aftertouch_c, 0, 57, 0
1, 887392, Note_off_c, 0, 73, 42
1, 887406, Note_off_c, 0, 85, 60
1, 887432, Note_off_c, 0, 52, 37
1, 888210, Control_c, 0, 64, 118
1, 888210, Control_c, 1, 64, 118
1, 888230, Control_c, 1, 64, 112
1, 888230, Control_c, 0, 64, 112
1, 888267, Control_c, 0, 64, 108
1, 888267, Control_c, 1, 64, 108
1, 888304, Control_c, 1, 64, 104
1, 888304, Control_c, 0, 64, 104
1, 888341, Control_c, 0, 64, 100
1, 888341, Control_c, 1, 64, 100
1, 888379, Control_c, 1, 64, 93
1, 888379, Control_c, 0, 64, 93
1, 888398, Control_c, 0, 64, 88
1, 888398, Control_c, 1, 64, 88
1, 888416, Control_c, 1, 64, 82
1, 888416, Control_c, 0, 64, 82
1, 888436, Control_c, 0, 64, 78
1, 888436, Control_c, 1, 64, 78
1, 888454, Control_c, 1, 64, 73
1, 888454, Control_c, 0, 64, 73
1, 888472, Control_c, 0, 64, 69
1, 888472, Control_c, 1, 64, 69
1, 888492, Control_c, 1, 64, 66
1, 888492, Control_c, 0, 64, 66
1, 888510, Control_c, 0, 64, 64
1, 888510, Control_c, 1, 64, 64
1, 888547, Control_c, 1, 64, 63
1, 888547, Control_c, 0, 64, 63
1, 888586, Control_c, 0, 64, 62
1, 888586, Control_c, 1, 64, 62
1, 888624, Control_c, 1, 64, 61
1, 888624, Control_c, 0, 64, 61
1, 888678, Control_c, 0, 64, 58
1, 888678, Control_c, 1, 64, 58
1, 888717, Control_c, 1, 64, 56
1, 888717, Control_c, 0, 64, 56
1, 888754, Control_c, 0, 64, 53
1, 888754, Control_c, 1, 64, 53
1, 888772, Control_c, 1, 64, 51
1, 888772, Control_c, 0, 64, 51
1, 888792, Control_c, 0, 64, 48
1, 888792, Control_c, 1, 64, 48
1, 888823, Note_on_c, 0, 45, 40
1, 888827, Control_c, 0, 64, 46
1, 888827, Control_c, 1, 64, 46
1, 888829, Note_on_c, 0, 81, 50
1, 888835, Note_on_c, 0, 72, 52
1, 888922, Note_off_c, 0, 72, 42
1, 888948, Note_off_c, 0, 45, 60
1, 888979, Note_on_c, 0, 71, 26
1, 889043, Note_off_c, 0, 71, 48
1, 889077, Note_on_c, 0, 69, 50
1, 889197, Note_on_c, 0, 60, 48
1, 889237, Note_off_c, 0, 69, 30
1, 889261, Note_off_c, 0, 81, 59
1, 889291, Note_off_c, 0, 60, 57
1, 889302, Note_on_c, 0, 59, 43
1, 889374, Note_on_c, 0, 57, 52
1, 889378, Note_off_c, 0, 59, 59
1, 889407, Note_on_c, 0, 81, 69
1, 889436, Note_off_c, 0, 57, 63
1, 889436, Note_on_c, 0, 69, 23
1, 889437, Note_off_c, 0, 81, 69
1, 889510, Note_on_c, 0, 81, 76
1, 889584, Note_on_c, 0, 48, 36
1, 889590, Note_off_c, 0, 69, 42
1, 889614, Control_c, 0, 64, 49
1, 889614, Control_c, 1, 64, 49
1, 889634, Control_c, 1, 64, 54
1, 889634, Control_c, 0, 64, 54
1, 889635, Note_off_c, 0, 48, 61
1, 889642, Note_on_c, 0, 47, 53
1, 889651, Control_c, 0, 64, 59
1, 889651, Control_c, 1, 64, 59
1, 889670, Control_c, 1, 64, 65
1, 889670, Control_c, 0, 64, 65
1, 889690, Control_c, 0, 64, 70
1, 889690, Control_c, 1, 64, 70
1, 889708, Control_c, 1, 64, 74
1, 889708, Control_c, 0, 64, 74
1, 889728, Control_c, 0, 64, 78
1, 889728, Control_c, 1, 64, 78
1, 889730, Note_off_c, 0, 81, 61
1, 889733, Note_off_c, 0, 47, 54
1, 889744, Note_on_c, 0, 45, 48
1, 889746, Control_c, 0, 64, 83
1, 889746, Control_c, 1, 64, 83
1, 889766, Control_c, 1, 64, 88
1, 889766, Control_c, 0, 64, 88
1, 889783, Control_c, 0, 64, 93
1, 889783, Control_c, 1, 64, 93
1, 889846, Note_off_c, 0, 45, 62
1, 889859, Control_c, 0, 64, 82
1, 889859, Control_c, 1, 64, 82
1, 889871, Note_on_c, 0, 40, 48
1, 889875, Control_c, 0, 64, 70
1, 889875, Control_c, 1, 64, 70
1, 889894, Note_on_c, 0, 88, 66
1, 889895, Control_c, 0, 64, 58
1, 889895, Control_c, 1, 64, 58
1, 889904, Note_on_c, 0, 80, 51
1, 889912, Note_off_c, 0, 40, 60
1, 889912, Poly_aftertouch_c, 0, 40, 0
1, 889913, Control_c, 0, 64, 46
1, 889913, Control_c, 1, 64, 46
1, 889933, Control_c, 1, 64, 37
1, 889933, Control_c, 0, 64, 37
1, 889951, Control_c, 0, 64, 32
1, 889951, Control_c, 1, 64, 32
1, 889964, Note_off_c, 0, 80, 60
1, 889964, Poly_aftertouch_c, 0, 80, 0
1, 889980, Note_on_c, 0, 78, 64
1, 890008, Control_c, 0, 64, 28
1, 890008, Control_c, 1, 64, 28
1, 890074, Note_off_c, 0, 78, 61
1, 890094, Note_on_c, 0, 76, 50
1, 890138, Control_c, 0, 64, 24
1, 890138, Control_c, 1, 64, 24
1, 890168, Note_on_c, 0, 68, 48
1, 890196, Note_off_c, 0, 76, 36
1, 890202, Note_off_c, 0, 88, 60
1, 890233, Control_c, 0, 64, 19
1, 890233, Control_c, 1, 64, 19
1, 890246, Note_on_c, 0, 66, 64
1, 890276, Note_off_c, 0, 68, 61
1, 890335, Note_on_c, 0, 64, 65
1, 890341, Note_on_c, 0, 88, 79
1, 890342, Note_off_c, 0, 66, 61
1, 890344, Control_c, 0, 64, 29
1, 890344, Control_c, 1, 64, 29
1, 890363, Control_c, 1, 64, 40
1, 890363, Control_c, 0, 64, 40
1, 890369, Note_on_c, 0, 76, 48
1, 890375, Note_off_c, 0, 64, 66
1, 890382, Control_c, 0, 64, 56
1, 890382, Control_c, 1, 64, 56
1, 890385, Note_off_c, 0, 88, 61
1, 890400, Note_off_c, 0, 76, 56
1, 890400, Control_c, 0, 64, 70
1, 890400, Control_c, 1, 64, 70
1, 890420, Control_c, 1, 64, 79
1, 890420, Control_c, 0, 64, 79
1, 890438, Control_c, 0, 64, 85
1, 890438, Control_c, 1, 64, 85
1, 890458, Control_c, 1, 64, 92
1, 890458, Control_c, 0, 64, 92
1, 890463, Note_on_c, 0, 88, 74
1, 890475, Control_c, 0, 64, 105
1, 890475, Control_c, 1, 64, 105
1, 890485, Note_on_c, 0, 76, 54
1, 890489, Note_on_c, 0, 56, 67
1, 890494, Control_c, 0, 64, 127
1, 890494, Control_c, 1, 64, 127
1, 890545, Note_off_c, 0, 56, 53
1, 890558, Note_off_c, 0, 76, 35
1, 890574, Note_on_c, 0, 54, 61
1, 890579, Note_off_c, 0, 88, 64
1, 890660, Note_on_c, 0, 52, 54
1, 890674, Note_off_c, 0, 54, 56
1, 890767, Note_off_c, 0, 52, 60
1, 890777, Note_on_c, 0, 45, 63
1, 890794, Control_c, 0, 64, 85
1, 890794, Control_c, 1, 64, 85
1, 890805, Note_on_c, 0, 81, 70
1, 890811, Control_c, 0, 64, 59
1, 890811, Control_c, 1, 64, 59
1, 890818, Note_off_c, 0, 45, 65
1, 890831, Control_c, 0, 64, 37
1, 890831, Control_c, 1, 64, 37
1, 890850, Control_c, 1, 64, 21
1, 890850, Control_c, 0, 64, 21
1, 890869, Control_c, 0, 64, 14
1, 890869, Control_c, 1, 64, 14
1, 890884, Note_on_c, 0, 71, 59
1, 890940, Note_off_c, 0, 71, 60
1, 890968, Note_on_c, 0, 69, 59
1, 891075, Note_on_c, 0, 60, 54
1, 891076, Note_off_c, 0, 69, 56
1, 891093, Note_off_c, 0, 81, 57
1, 891160, Note_on_c, 0, 59, 56
1, 891164, Note_off_c, 0, 60, 53
1, 891228, Note_off_c, 0, 59, 60
1, 891231, Note_on_c, 0, 57, 67
1, 891238, Note_on_c, 0, 81, 71
1, 891253, Note_on_c, 0, 69, 48
1, 891269, Note_off_c, 0, 81, 66
1, 891272, Note_off_c, 0, 57, 65
1, 891285, Note_off_c, 0, 69, 35
1, 891318, Control_c, 0, 64, 25
1, 891318, Control_c, 1, 64, 25
1, 891336, Control_c, 1, 64, 37
1, 891336, Control_c, 0, 64, 37
1, 891350, Note_on_c, 0, 81, 76
1, 891353, Control_c, 0, 64, 57
1, 891353, Control_c, 1, 64, 57
1, 891374, Control_c, 1, 64, 72
1, 891374, Control_c, 0, 64, 72
1, 891386, Note_on_c, 0, 69, 44
1, 891393, Note_on_c, 0, 48, 59
1, 891393, Control_c, 0, 64, 82
1, 891393, Control_c, 1, 64, 82
1, 891411, Control_c, 1, 64, 92
1, 891411, Control_c, 0, 64, 92
1, 891424, Note_off_c, 0, 69, 37
1, 891430, Control_c, 0, 64, 102
1, 891430, Control_c, 1, 64, 102
1, 891449, Control_c, 1, 64, 127
1, 891449, Control_c, 0, 64, 127
1, 891465, Note_off_c, 0, 48, 57
1, 891482, Note_on_c, 0, 47, 58
1, 891493, Note_off_c, 0, 81, 56
1, 891544, Note_off_c, 0, 47, 61
1, 891556, Note_on_c, 0, 45, 58
1, 891600, Control_c, 0, 64, 121
1, 891600, Control_c, 1, 64, 121
1, 891617, Control_c, 1, 64, 80
1, 891617, Control_c, 0, 64, 80
1, 891629, Note_off_c, 0, 45, 61
1, 891636, Control_c, 0, 64, 55
1, 891636, Control_c, 1, 64, 55
1, 891646, Note_on_c, 0, 36, 72
1, 891649, Note_on_c, 0, 88, 77
1, 891655, Control_c, 0, 64, 36
1, 891655, Control_c, 1, 64, 36
1, 891678, Note_on_c, 0, 79, 52
1, 891680, Note_off_c, 0, 36, 64
1, 891711, Control_c, 0, 64, 47
1, 891711, Control_c, 1, 64, 47
1, 891718, Note_off_c, 0, 88, 65
1, 891721, Note_off_c, 0, 79, 53
1, 891730, Control_c, 0, 64, 61
1, 891730, Control_c, 1, 64, 61
1, 891748, Control_c, 1, 64, 72
1, 891748, Control_c, 0, 64, 72
1, 891768, Note_on_c, 0, 76, 64
1, 891768, Control_c, 0, 64, 80
1, 891768, Control_c, 1, 64, 80
1, 891786, Control_c, 1, 64, 90
1, 891786, Control_c, 0, 64, 90
1, 891805, Control_c, 0, 64, 103
1, 891805, Control_c, 1, 64, 103
1, 891807, Note_off_c, 0, 76, 61
1, 891824, Control_c, 0, 64, 122
1, 891824, Control_c, 1, 64, 122
1, 891842, Control_c, 1, 64, 127
1, 891842, Control_c, 0, 64, 127
1, 891861, Control_c, 0, 64, 107
1, 891861, Control_c, 1, 64, 107
1, 891881, Control_c, 1, 64, 81
1, 891881, Control_c, 0, 64, 81
1, 891893, Note_on_c, 0, 72, 58
1, 891900, Control_c, 0, 64, 53
1, 891900, Control_c, 1, 64, 53
1, 891917, Control_c, 1, 64, 22
1, 891917, Control_c, 0, 64, 22
1, 891938, Note_on_c, 0, 79, 68
1, 891964, Note_on_c, 0, 43, 49
1, 891992, Control_c, 0, 64, 16
1, 891992, Control_c, 1, 64, 16
1, 891998, Note_off_c, 0, 72, 60
1, 892010, Control_c, 0, 64, 39
1, 892010, Control_c, 1, 64, 39
1, 892019, Note_off_c, 0, 43, 61
1, 892025, Note_on_c, 0, 55, 56
1, 892026, Note_off_c, 0, 79, 62
1, 892030, Control_c, 0, 64, 69
1, 892030, Control_c, 1, 64, 69
1, 892048, Control_c, 1, 64, 98
1, 892048, Control_c, 0, 64, 98
1, 892062, Note_on_c, 0, 67, 64
1, 892067, Control_c, 0, 64, 127
1, 892067, Control_c, 1, 64, 127
1, 892081, Note_off_c, 0, 55, 64
1, 892083, Note_on_c, 0, 52, 67
1, 892109, Note_off_c, 0, 67, 57
1, 892116, Note_off_c, 0, 52, 64
1, 892166, Note_on_c, 0, 64, 63
1, 892198, Control_c, 0, 64, 85
1, 892198, Control_c, 1, 64, 85
1, 892217, Control_c, 1, 64, 55
1, 892217, Control_c, 0, 64, 55
1, 892225, Note_off_c, 0, 64, 59
1, 892236, Control_c, 0, 64, 27
1, 892236, Control_c, 1, 64, 27
1, 892240, Note_on_c, 0, 72, 59
1, 892241, Note_on_c, 0, 36, 58
1, 892254, Control_c, 0, 64, 14
1, 892254, Control_c, 1, 64, 14
1, 892273, Note_off_c, 0, 36, 57
1, 892281, Note_on_c, 0, 48, 64
1, 892290, Control_c, 0, 64, 22
1, 892290, Control_c, 1, 64, 22
1, 892311, Control_c, 1, 64, 37
1, 892311, Control_c, 0, 64, 37
1, 892318, Note_off_c, 0, 48, 64
1, 892328, Note_on_c, 0, 60, 69
1, 892331, Control_c, 0, 64, 61
1, 892331, Control_c, 1, 64, 61
1, 892343, Note_off_c, 0, 72, 54
1, 892347, Control_c, 0, 64, 83
1, 892347, Control_c, 1, 64, 83
1, 892366, Control_c, 1, 64, 112
1, 892366, Control_c, 0, 64, 112
1, 892374, Note_off_c, 0, 60, 58
1, 892385, Control_c, 0, 64, 127
1, 892385, Control_c, 1, 64, 127
1, 892398, Note_on_c, 0, 56, 68
1, 892420, Note_on_c, 0, 68, 46
1, 892434, Note_off_c, 0, 56, 65
1, 892458, Note_off_c, 0, 68, 56
1, 892535, Control_c, 0, 64, 109
1, 892535, Control_c, 1, 64, 109
1, 892552, Control_c, 1, 64, 78
1, 892552, Control_c, 0, 64, 78
1, 892572, Control_c, 0, 64, 56
1, 892572, Control_c, 1, 64, 56
1, 892591, Control_c, 1, 64, 37
1, 892591, Control_c, 0, 64, 37
1, 892595, Note_on_c, 0, 45, 69
1, 892603, Note_on_c, 0, 81, 74
1, 892609, Control_c, 0, 64, 25
1, 892609, Control_c, 1, 64, 25
1, 892628, Control_c, 1, 64, 18
1, 892628, Control_c, 0, 64, 18
1, 892637, Note_off_c, 0, 45, 62
1, 892664, Note_on_c, 0, 72, 8
1, 892665, Control_c, 0, 64, 11
1, 892665, Control_c, 1, 64, 11
1, 892722, Note_off_c, 0, 72, 28
1, 892727, Note_on_c, 0, 71, 57
1, 892769, Note_off_c, 0, 71, 64
1, 892803, Note_on_c, 0, 69, 62
1, 892863, Note_off_c, 0, 69, 49
1, 892902, Note_on_c, 0, 60, 39
1, 892934, Note_off_c, 0, 81, 59
1, 892966, Note_off_c, 0, 60, 55
1, 892966, Note_on_c, 0, 59, 56
1, 893049, Note_off_c, 0, 59, 62
1, 893053, Note_on_c, 0, 57, 62
1, 893063, Note_on_c, 0, 81, 76
1, 893081, Note_on_c, 0, 69, 48
1, 893090, Note_off_c, 0, 57, 66
1, 893092, Note_off_c, 0, 81, 70
1, 893111, Note_off_c, 0, 69, 52
1, 893152, Control_c, 0, 64, 18
1, 893152, Control_c, 1, 64, 18
1, 893171, Control_c, 1, 64, 33
1, 893171, Control_c, 0, 64, 33
1, 893176, Note_on_c, 0, 81, 83
1, 893190, Control_c, 0, 64, 57
1, 893190, Control_c, 1, 64, 57
1, 893206, Note_on_c, 0, 48, 64
1, 893206, Note_on_c, 0, 69, 51
1, 893208, Control_c, 0, 64, 77
1, 893208, Control_c, 1, 64, 77
1, 893228, Control_c, 1, 64, 95
1, 893228, Control_c, 0, 64, 95
1, 893238, Note_off_c, 0, 69, 56
1, 893244, Control_c, 0, 64, 127
1, 893244, Control_c, 1, 64, 127
1, 893267, Note_off_c, 0, 48, 56
1, 893311, Note_on_c, 0, 47, 50
1, 893338, Note_off_c, 0, 81, 62
1, 893368, Note_off_c, 0, 47, 61
1, 893388, Note_on_c, 0, 45, 49
1, 893473, Note_off_c, 0, 45, 62
1, 893498, Note_on_c, 0, 40, 60
1, 893524, Note_on_c, 0, 88, 71
1, 893525, Note_on_c, 0, 80, 67
1, 893528, Control_c, 0, 64, 77
1, 893528, Control_c, 1, 64, 77
1, 893540, Note_off_c, 0, 40, 62
1, 893540, Poly_aftertouch_c, 0, 40, 0
1, 893545, Control_c, 0, 64, 48
1, 893545, Control_c, 1, 64, 48
1, 893564, Control_c, 1, 64, 18
1, 893564, Control_c, 0, 64, 18
1, 893579, Note_off_c, 0, 80, 55
1, 893579, Poly_aftertouch_c, 0, 80, 0
1, 893622, Note_on_c, 0, 78, 66
1, 893681, Note_off_c, 0, 78, 57
1, 893707, Note_on_c, 0, 76, 59
1, 893783, Note_on_c, 0, 68, 50
1, 893794, Note_off_c, 0, 76, 48
1, 893810, Note_off_c, 0, 88, 59
1, 893845, Control_c, 0, 64, 0
1, 893845, Control_c, 1, 64, 0
1, 893862, Note_on_c, 0, 66, 66
1, 893882, Note_off_c, 0, 68, 60
1, 893921, Control_c, 0, 64, 12
1, 893921, Control_c, 1, 64, 12
1, 893934, Note_on_c, 0, 64, 65
1, 893939, Control_c, 0, 64, 33
1, 893939, Control_c, 1, 64, 33
1, 893940, Note_off_c, 0, 66, 62
1, 893949, Note_on_c, 0, 88, 80
1, 893957, Control_c, 0, 64, 63
1, 893957, Control_c, 1, 64, 63
1, 893961, Note_on_c, 0, 76, 60
1, 893971, Note_off_c, 0, 64, 67
1, 893977, Note_off_c, 0, 88, 66
1, 893977, Control_c, 0, 64, 87
1, 893977, Control_c, 1, 64, 87
1, 893985, Note_off_c, 0, 76, 63
1, 893994, Control_c, 0, 64, 127
1, 893994, Control_c, 1, 64, 127
1, 894058, Note_on_c, 0, 88, 88
1, 894067, Note_on_c, 0, 76, 72
1, 894091, Note_on_c, 0, 56, 60
1, 894105, Note_off_c, 0, 76, 48
1, 894158, Note_on_c, 0, 54, 66
1, 894164, Note_off_c, 0, 88, 64
1, 894167, Note_off_c, 0, 56, 47
1, 894230, Note_on_c, 0, 52, 51
1, 894254, Note_off_c, 0, 54, 50
1, 894360, Note_off_c, 0, 52, 59
1, 894367, Note_on_c, 0, 45, 66
1, 894388, Control_c, 0, 64, 91
1, 894388, Control_c, 1, 64, 91
1, 894393, Note_on_c, 0, 81, 78
1, 894407, Control_c, 0, 64, 60
1, 894407, Control_c, 1, 64, 60
1, 894408, Note_off_c, 0, 45, 65
1, 894418, Note_on_c, 0, 72, 40
1, 894424, Control_c, 0, 64, 31
1, 894424, Control_c, 1, 64, 31
1, 894443, Control_c, 1, 64, 8
1, 894443, Control_c, 0, 64, 8
1, 894456, Note_off_c, 0, 72, 36
1, 894496, Note_on_c, 0, 71, 49
1, 894528, Note_off_c, 0, 71, 56
1, 894569, Note_on_c, 0, 69, 61
1, 894644, Note_on_c, 0, 60, 53
1, 894659, Note_off_c, 0, 69, 52
1, 894664, Note_off_c, 0, 81, 57
1, 894727, Note_on_c, 0, 59, 59
1, 894743, Note_off_c, 0, 60, 56
1, 894799, Note_off_c, 0, 59, 60
1, 894801, Note_on_c, 0, 81, 76
1, 894803, Note_on_c, 0, 57, 66
1, 894815, Note_on_c, 0, 69, 54
1, 894827, Note_off_c, 0, 81, 64
1, 894838, Note_off_c, 0, 57, 67
1, 894844, Note_off_c, 0, 69, 57
1, 894857, Control_c, 0, 64, 18
1, 894857, Control_c, 1, 64, 18
1, 894876, Control_c, 1, 64, 31
1, 894876, Control_c, 0, 64, 31
1, 894893, Control_c, 0, 64, 51
1, 894893, Control_c, 1, 64, 51
1, 894908, Note_on_c, 0, 81, 76
1, 894911, Control_c, 0, 64, 69
1, 894911, Control_c, 1, 64, 69
1, 894932, Control_c, 1, 64, 77
1, 894932, Control_c, 0, 64, 77
1, 894934, Note_on_c, 0, 69, 61
1, 894950, Control_c, 0, 64, 84
1, 894950, Control_c, 1, 64, 84
1, 894953, Note_on_c, 0, 48, 64
1, 894957, Note_off_c, 0, 69, 60
1, 894969, Control_c, 0, 64, 92
1, 894969, Control_c, 1, 64, 92
1, 894986, Control_c, 1, 64, 105
1, 894986, Control_c, 0, 64, 105
1, 895006, Control_c, 0, 64, 127
1, 895006, Control_c, 1, 64, 127
1, 895019, Note_off_c, 0, 48, 53
1, 895041, Note_off_c, 0, 81, 56
1, 895041, Note_on_c, 0, 47, 64
1, 895109, Note_on_c, 0, 45, 70
1, 895136, Control_c, 0, 64, 105
1, 895136, Control_c, 1, 64, 105
1, 895142, Note_off_c, 0, 47, 50
1, 895155, Control_c, 0, 64, 76
1, 895155, Control_c, 1, 64, 76
1, 895174, Control_c, 1, 64, 55
1, 895174, Control_c, 0, 64, 55
1, 895181, Note_off_c, 0, 45, 62
1, 895192, Control_c, 0, 64, 45
1, 895192, Control_c, 1, 64, 45
1, 895206, Note_on_c, 0, 36, 71
1, 895209, Note_on_c, 0, 88, 71
1, 895210, Note_on_c, 0, 79, 64
1, 895230, Control_c, 0, 64, 51
1, 895230, Control_c, 1, 64, 51
1, 895237, Note_off_c, 0, 36, 65
1, 895249, Control_c, 0, 64, 59
1, 895249, Control_c, 1, 64, 59
1, 895267, Control_c, 1, 64, 66
1, 895267, Control_c, 0, 64, 66
1, 895270, Note_off_c, 0, 79, 51
1, 895278, Note_off_c, 0, 88, 59
1, 895286, Control_c, 0, 64, 74
1, 895286, Control_c, 1, 64, 74
1, 895304, Control_c, 1, 64, 83
1, 895304, Control_c, 0, 64, 83
1, 895313, Note_on_c, 0, 76, 71
1, 895325, Control_c, 0, 64, 101
1, 895325, Control_c, 1, 64, 101
1, 895342, Control_c, 1, 64, 127
1, 895342, Control_c, 0, 64, 127
1, 895371, Note_off_c, 0, 76, 57
1, 895418, Control_c, 0, 64, 89
1, 895418, Control_c, 1, 64, 89
1, 895437, Control_c, 1, 64, 60
1, 895437, Control_c, 0, 64, 60
1, 895450, Note_on_c, 0, 72, 63
1, 895456, Control_c, 0, 64, 34
1, 895456, Control_c, 1, 64, 34
1, 895474, Control_c, 1, 64, 23
1, 895474, Control_c, 0, 64, 23
1, 895482, Note_on_c, 0, 43, 55
1, 895491, Note_on_c, 0, 79, 72
1, 895511, Control_c, 0, 64, 36
1, 895511, Control_c, 1, 64, 36
1, 895530, Control_c, 1, 64, 55
1, 895530, Control_c, 0, 64, 55
1, 895538, Note_off_c, 0, 43, 54
1, 895545, Note_off_c, 0, 72, 59
1, 895549, Control_c, 0, 64, 75
1, 895549, Control_c, 0, 67, 120
1, 895549, Control_c, 1, 64, 75
1, 895549, Control_c, 1, 67, 120
1, 895550, Note_on_c, 0, 55, 61
1, 895563, Note_off_c, 0, 79, 62
1, 895566, Control_c, 0, 64, 91
1, 895566, Control_c, 1, 64, 91
1, 895585, Control_c, 1, 64, 107
1, 895585, Control_c, 0, 64, 107
1, 895586, Control_c, 0, 67, 116
1, 895586, Control_c, 1, 67, 116
1, 895596, Note_on_c, 0, 67, 62
1, 895600, Note_off_c, 0, 55, 64
1, 895612, Note_on_c, 0, 52, 60
1, 895642, Control_c, 0, 64, 94
1, 895642, Control_c, 1, 64, 94
1, 895648, Note_off_c, 0, 52, 61
1, 895649, Note_off_c, 0, 67, 56
1, 895661, Control_c, 0, 64, 81
1, 895661, Control_c, 1, 64, 81
1, 895680, Control_c, 1, 64, 65
1, 895680, Control_c, 0, 64, 65
1, 895697, Control_c, 0, 64, 50
1, 895697, Control_c, 1, 64, 50
1, 895718, Control_c, 1, 64, 42
1, 895718, Note_on_c, 0, 64, 55
1, 895718, Control_c, 0, 64, 42
1, 895747, Note_on_c, 0, 36, 65
1, 895750, Note_on_c, 0, 72, 68
1, 895753, Control_c, 0, 64, 45
1, 895753, Control_c, 1, 64, 45
1, 895755, Note_off_c, 0, 64, 63
1, 895772, Control_c, 0, 64, 52
1, 895772, Control_c, 1, 64, 52
1, 895784, Note_off_c, 0, 36, 61
1, 895791, Control_c, 0, 64, 59
1, 895791, Control_c, 1, 64, 59
1, 895811, Control_c, 1, 64, 65
1, 895811, Control_c, 1, 67, 121
1, 895811, Control_c, 0, 64, 65
1, 895811, Control_c, 0, 67, 121
1, 895829, Control_c, 0, 64, 70
1, 895829, Control_c, 1, 64, 70
1, 895832, Note_on_c, 0, 50, 44
1, 895848, Control_c, 0, 64, 74
1, 895848, Control_c, 1, 64, 74
1, 895868, Control_c, 1, 64, 78
1, 895868, Control_c, 0, 64, 78
1, 895875, Note_off_c, 0, 50, 50
1, 895886, Note_on_c, 0, 60, 49
1, 895886, Poly_aftertouch_c, 0, 48, 0
1, 895887, Control_c, 0, 64, 82
1, 895887, Control_c, 1, 64, 82
1, 895904, Control_c, 1, 64, 86
1, 895904, Control_c, 0, 64, 86
1, 895914, Note_off_c, 0, 60, 56
1, 895921, Control_c, 0, 67, 125
1, 895921, Control_c, 1, 67, 125
1, 895930, Note_on_c, 0, 68, 47
1, 895931, Note_on_c, 0, 56, 57
1, 895941, Control_c, 0, 64, 92
1, 895941, Control_c, 1, 64, 92
1, 895958, Note_off_c, 0, 72, 43
1, 895959, Poly_aftertouch_c, 0, 72, 0
1, 895961, Note_off_c, 0, 56, 58
1, 895968, Note_off_c, 0, 68, 54
1, 896035, Control_c, 0, 64, 88
1, 896035, Control_c, 1, 64, 88
1, 896053, Control_c, 1, 64, 81
1, 896053, Control_c, 0, 64, 81
1, 896073, Control_c, 0, 64, 72
1, 896073, Control_c, 1, 64, 72
1, 896091, Control_c, 1, 64, 63
1, 896091, Control_c, 0, 64, 63
1, 896110, Control_c, 0, 64, 57
1, 896110, Control_c, 1, 64, 57
1, 896114, Note_on_c, 0, 45, 73
1, 896130, Control_c, 0, 64, 54
1, 896130, Control_c, 1, 64, 54
1, 896147, Control_c, 1, 64, 52
1, 896147, Control_c, 0, 64, 52
1, 896153, Note_off_c, 0, 45, 64
1, 896154, Note_on_c, 0, 93, 81
1, 896167, Control_c, 0, 64, 50
1, 896167, Control_c, 1, 64, 50
1, 896185, Control_c, 1, 64, 47
1, 896185, Control_c, 0, 64, 47
1, 896198, Note_on_c, 0, 85, 31
1, 896201, Control_c, 0, 64, 43
1, 896201, Control_c, 1, 64, 43
1, 896222, Control_c, 1, 64, 38
1, 896222, Control_c, 0, 64, 38
1, 896249, Note_off_c, 0, 85, 33
1, 896259, Control_c, 0, 64, 34
1, 896259, Control_c, 1, 64, 34
1, 896290, Note_on_c, 0, 83, 53
1, 896318, Note_off_c, 0, 83, 59
1, 896385, Note_on_c, 0, 81, 52
1, 896423, Note_off_c, 0, 81, 52
1, 896442, Note_on_c, 0, 73, 57
1, 896464, Note_off_c, 0, 93, 62
1, 896485, Control_c, 0, 64, 30
1, 896485, Control_c, 1, 64, 30
1, 896517, Note_off_c, 0, 73, 61
1, 896521, Note_on_c, 0, 71, 59
1, 896541, Control_c, 0, 64, 24
1, 896541, Control_c, 1, 64, 24
1, 896570, Note_on_c, 0, 69, 67
1, 896583, Note_off_c, 0, 71, 62
1, 896590, Note_on_c, 0, 93, 88
1, 896607, Note_off_c, 0, 69, 64
1, 896622, Note_on_c, 0, 81, 42
1, 896625, Note_off_c, 0, 93, 60
1, 896660, Note_off_c, 0, 81, 37
1, 896671, Control_c, 0, 64, 39
1, 896671, Control_c, 1, 64, 39
1, 896690, Control_c, 1, 64, 60
1, 896690, Control_c, 0, 64, 60
1, 896699, Note_on_c, 0, 93, 89
1, 896710, Control_c, 0, 64, 79
1, 896710, Control_c, 1, 64, 79
1, 896728, Control_c, 1, 64, 98
1, 896728, Control_c, 0, 64, 98
1, 896731, Note_on_c, 0, 81, 53
1, 896738, Note_on_c, 0, 61, 66
1, 896746, Control_c, 0, 64, 127
1, 896746, Control_c, 1, 64, 127
1, 896771, Note_off_c, 0, 81, 46
1, 896778, Note_off_c, 0, 61, 63
1, 896820, Note_on_c, 0, 59, 53
1, 896826, Note_off_c, 0, 93, 62
1, 896869, Note_on_c, 0, 57, 43
1, 896880, Poly_aftertouch_c, 0, 81, 127
1, 896919, Poly_aftertouch_c, 0, 81, 0
1, 896929, Note_off_c, 0, 59, 54
1, 896993, Note_off_c, 0, 57, 60
1, 897013, Note_on_c, 0, 50, 64
1, 897027, Control_c, 0, 64, 107
1, 897027, Control_c, 1, 64, 107
1, 897040, Note_on_c, 0, 89, 72
1, 897046, Control_c, 0, 64, 78
1, 897046, Control_c, 1, 64, 78
1, 897049, Note_on_c, 0, 81, 59
1, 897054, Note_off_c, 0, 50, 67
1, 897065, Control_c, 0, 64, 58
1, 897065, Control_c, 1, 64, 58
1, 897083, Control_c, 1, 64, 45
1, 897083, Control_c, 0, 64, 45
1, 897101, Note_off_c, 0, 81, 55
1, 897101, Control_c, 0, 64, 40
1, 897101, Control_c, 1, 64, 40
1, 897123, Note_on_c, 0, 79, 65
1, 897177, Control_c, 0, 64, 36
1, 897177, Control_c, 1, 64, 36
1, 897199, Note_off_c, 0, 79, 50
1, 897218, Note_on_c, 0, 77, 57
1, 897231, Note_off_c, 0, 89, 56
1, 897289, Control_c, 0, 64, 31
1, 897289, Control_c, 1, 64, 31
1, 897291, Note_on_c, 0, 69, 57
1, 897294, Note_off_c, 0, 77, 62
1, 897327, Control_c, 0, 64, 25
1, 897327, Control_c, 1, 64, 25
1, 897365, Note_on_c, 0, 67, 60
1, 897388, Note_off_c, 0, 69, 56
1, 897438, Note_on_c, 0, 86, 76
1, 897445, Note_on_c, 0, 65, 62
1, 897448, Note_off_c, 0, 67, 62
1, 897456, Control_c, 0, 64, 39
1, 897456, Control_c, 1, 64, 39
1, 897471, Note_off_c, 0, 86, 59
1, 897474, Note_on_c, 0, 74, 41
1, 897475, Control_c, 0, 64, 56
1, 897475, Control_c, 1, 64, 56
1, 897482, Note_off_c, 0, 65, 66
1, 897495, Control_c, 0, 64, 73
1, 897495, Control_c, 1, 64, 73
1, 897512, Note_off_c, 0, 74, 36
1, 897514, Control_c, 0, 64, 87
1, 897514, Control_c, 1, 64, 87
1, 897532, Control_c, 1, 64, 104
1, 897532, Control_c, 0, 64, 104
1, 897548, Note_on_c, 0, 86, 84
1, 897551, Control_c, 0, 64, 127
1, 897551, Control_c, 1, 64, 127
1, 897586, Note_on_c, 0, 74, 40
1, 897593, Note_on_c, 0, 57, 67
1, 897624, Note_off_c, 0, 74, 47
1, 897669, Note_off_c, 0, 57, 56
1, 897692, Note_on_c, 0, 55, 63
1, 897698, Note_off_c, 0, 86, 61
1, 897746, Note_off_c, 0, 55, 56
1, 897762, Note_on_c, 0, 53, 56
1, 897816, Note_off_c, 0, 53, 61
1, 897831, Control_c, 0, 64, 96
1, 897831, Control_c, 1, 64, 96
1, 897844, Note_on_c, 0, 83, 66
1, 897851, Control_c, 0, 64, 64
1, 897851, Control_c, 1, 64, 64
1, 897855, Note_on_c, 0, 43, 60
1, 897855, Note_on_c, 0, 91, 75
1, 897870, Control_c, 0, 64, 39
1, 897870, Control_c, 1, 64, 39
1, 897885, Note_off_c, 0, 43, 65
1, 897887, Control_c, 0, 64, 20
1, 897887, Control_c, 1, 64, 20
1, 897906, Control_c, 1, 64, 11
1, 897906, Control_c, 0, 64, 11
1, 897931, Note_off_c, 0, 83, 60
1, 897939, Note_on_c, 0, 81, 65
1, 897984, Note_off_c, 0, 81, 55
1, 898004, Note_on_c, 0, 79, 63
1, 898133, Note_off_c, 0, 79, 58
1, 898138, Note_off_c, 0, 91, 58
1, 898145, Note_on_c, 0, 72, 55
1, 898205, Note_off_c, 0, 72, 55
1, 898245, Note_on_c, 0, 69, 57
1, 898283, Control_c, 0, 64, 15
1, 898283, Control_c, 1, 64, 15
1, 898285, Note_off_c, 0, 69, 62
1, 898288, Note_on_c, 0, 91, 81
1, 898296, Note_on_c, 0, 79, 63
1, 898299, Control_c, 0, 64, 26
1, 898299, Control_c, 1, 64, 26
1, 898314, Note_off_c, 0, 91, 62
1, 898317, Control_c, 0, 64, 41
1, 898317, Control_c, 1, 64, 41
1, 898318, Note_off_c, 0, 79, 63
1, 898328, Note_on_c, 0, 67, 36
1, 898336, Control_c, 0, 64, 61
1, 898336, Control_c, 1, 64, 61
1, 898357, Control_c, 1, 64, 73
1, 898357, Control_c, 0, 64, 73
1, 898374, Note_off_c, 0, 67, 33
1, 898374, Control_c, 0, 64, 83
1, 898374, Control_c, 1, 64, 83
1, 898393, Control_c, 1, 64, 96
1, 898393, Control_c, 0, 64, 96
1, 898403, Note_on_c, 0, 91, 90
1, 898409, Note_on_c, 0, 79, 71
1, 898412, Control_c, 0, 64, 127
1, 898412, Control_c, 1, 64, 127
1, 898463, Note_on_c, 0, 60, 58
1, 898488, Note_off_c, 0, 60, 59
1, 898509, Note_off_c, 0, 91, 59
1, 898541, Note_off_c, 0, 79, 45
1, 898625, Note_on_c, 0, 55, 53
1, 898679, Note_off_c, 0, 55, 64
1, 898718, Note_on_c, 0, 48, 69
1, 898730, Control_c, 0, 64, 105
1, 898730, Control_c, 1, 64, 105
1, 898733, Note_on_c, 0, 88, 71
1, 898745, Note_on_c, 0, 86, 70
1, 898748, Note_on_c, 0, 79, 59
1, 898749, Control_c, 0, 64, 75
1, 898749, Control_c, 1, 64, 75
1, 898753, Note_off_c, 0, 48, 67
1, 898767, Control_c, 0, 64, 55
1, 898767, Control_c, 1, 64, 55
1, 898786, Control_c, 1, 64, 42
1, 898786, Control_c, 0, 64, 42
1, 898796, Note_off_c, 0, 79, 61
1, 898805, Control_c, 0, 64, 37
1, 898805, Control_c, 1, 64, 37
1, 898818, Note_on_c, 0, 77, 60
1, 898880, Note_off_c, 0, 77, 50
1, 898884, Note_on_c, 0, 76, 63
1, 898928, Note_off_c, 0, 88, 62
1, 898948, Note_off_c, 0, 86, 49
1, 898986, Note_off_c, 0, 76, 61
1, 899024, Note_on_c, 0, 67, 53
1, 899067, Control_c, 0, 64, 33
1, 899067, Control_c, 1, 64, 33
1, 899090, Note_on_c, 0, 65, 60
1, 899104, Control_c, 0, 64, 27
1, 899104, Control_c, 1, 64, 27
1, 899117, Note_off_c, 0, 67, 61
1, 899142, Note_on_c, 0, 84, 76
1, 899162, Note_off_c, 0, 65, 58
1, 899169, Note_off_c, 0, 84, 72
1, 899169, Note_on_c, 0, 72, 41
1, 899177, Note_on_c, 0, 64, 56
1, 899179, Control_c, 0, 64, 33
1, 899179, Control_c, 1, 64, 33
1, 899199, Control_c, 1, 64, 43
1, 899199, Control_c, 0, 64, 43
1, 899206, Note_off_c, 0, 72, 37
1, 899209, Note_off_c, 0, 64, 61
1, 899218, Control_c, 0, 64, 59
1, 899218, Control_c, 1, 64, 59
1, 899235, Control_c, 1, 64, 71
1, 899235, Control_c, 0, 64, 71
1, 899246, Note_on_c, 0, 84, 85
1, 899252, Control_c, 0, 64, 81
1, 899252, Control_c, 1, 64, 81
1, 899260, Note_on_c, 0, 72, 62
1, 899274, Control_c, 0, 64, 92
1, 899274, Control_c, 1, 64, 92
1, 899287, Note_off_c, 0, 72, 58
1, 899293, Control_c, 0, 64, 108
1, 899293, Control_c, 1, 64, 108
1, 899309, Control_c, 1, 64, 127
1, 899309, Control_c, 0, 64, 127
1, 899314, Note_on_c, 0, 55, 68
1, 899381, Note_off_c, 0, 84, 60
1, 899388, Note_off_c, 0, 55, 59
1, 899406, Note_on_c, 0, 53, 61
1, 899447, Note_off_c, 0, 53, 63
1, 899470, Note_on_c, 0, 52, 59
1, 899510, Note_off_c, 0, 52, 62
1, 899554, Control_c, 0, 64, 108
1, 899554, Control_c, 1, 64, 108
1, 899568, Note_on_c, 0, 89, 81
1, 899572, Note_on_c, 0, 81, 63
1, 899572, Control_c, 0, 64, 76
1, 899572, Control_c, 1, 64, 76
1, 899591, Control_c, 1, 64, 55
1, 899591, Control_c, 0, 64, 55
1, 899601, Note_on_c, 0, 38, 69
1, 899610, Control_c, 0, 64, 41
1, 899610, Control_c, 1, 64, 41
1, 899629, Control_c, 1, 64, 34
1, 899629, Control_c, 0, 64, 34
1, 899643, Note_off_c, 0, 38, 63
1, 899674, Note_off_c, 0, 81, 61
1, 899678, Note_on_c, 0, 79, 65
1, 899740, Note_off_c, 0, 79, 61
1, 899761, Note_on_c, 0, 77, 58
1, 899767, Note_off_c, 0, 89, 60
1, 899787, Note_on_c, 0, 82, 9
1, 899813, Note_off_c, 0, 82, 33
1, 899835, Control_c, 0, 64, 28
1, 899835, Control_c, 1, 64, 28
1, 899847, Note_off_c, 0, 77, 62
1, 899854, Note_on_c, 0, 69, 65
1, 899938, Note_off_c, 0, 69, 57
1, 899938, Note_on_c, 0, 67, 67
1, 899966, Control_c, 0, 64, 33
1, 899966, Control_c, 1, 64, 33
1, 899984, Control_c, 1, 64, 46
1, 899984, Control_c, 0, 64, 46
1, 899995, Note_off_c, 0, 67, 58
1, 900001, Note_on_c, 0, 83, 77
1, 900002, Control_c, 0, 64, 64
1, 900002, Control_c, 1, 64, 64
1, 900020, Note_on_c, 0, 65, 56
1, 900021, Control_c, 0, 64, 77
1, 900021, Control_c, 1, 64, 77
1, 900030, Note_off_c, 0, 83, 66
1, 900040, Control_c, 0, 64, 88
1, 900040, Control_c, 1, 64, 88
1, 900051, Note_off_c, 0, 65, 59
1, 900059, Control_c, 0, 64, 96
1, 900059, Control_c, 1, 64, 96
1, 900079, Control_c, 1, 64, 103
1, 900079, Control_c, 0, 64, 103
1, 900097, Control_c, 0, 64, 119
1, 900097, Control_c, 1, 64, 119
1, 900115, Control_c, 1, 64, 127
1, 900115, Control_c, 0, 64, 127
1, 900119, Note_on_c, 0, 83, 80
1, 900156, Note_on_c, 0, 57, 65
1, 900156, Poly_aftertouch_c, 0, 71, 127
1, 900197, Poly_aftertouch_c, 0, 71, 0
1, 900218, Note_off_c, 0, 57, 57
1, 900255, Note_on_c, 0, 55, 55
1, 900279, Note_off_c, 0, 83, 34
1, 900287, Note_off_c, 0, 55, 60
1, 900300, Note_on_c, 0, 53, 58
1, 900332, Note_off_c, 0, 53, 60
1, 900415, Control_c, 0, 64, 90
1, 900415, Control_c, 1, 64, 90
1, 900422, Note_on_c, 0, 81, 53
1, 900426, Note_on_c, 0, 88, 79
1, 900434, Control_c, 0, 64, 64
1, 900434, Control_c, 1, 64, 64
1, 900445, Note_on_c, 0, 36, 73
1, 900453, Control_c, 0, 64, 43
1, 900453, Control_c, 1, 64, 43
1, 900471, Control_c, 1, 64, 31
1, 900471, Control_c, 0, 64, 31
1, 900476, Note_off_c, 0, 36, 65
1, 900491, Control_c, 0, 64, 26
1, 900491, Control_c, 1, 64, 26
1, 900503, Note_off_c, 0, 81, 61
1, 900531, Note_on_c, 0, 77, 60
1, 900548, Control_c, 0, 64, 21
1, 900548, Control_c, 1, 64, 21
1, 900597, Note_off_c, 0, 77, 60
1, 900611, Note_on_c, 0, 76, 62
1, 900612, Note_off_c, 0, 88, 64
1, 900676, Control_c, 0, 64, 34
1, 900676, Control_c, 1, 64, 34
1, 900696, Control_c, 1, 64, 53
1, 900696, Control_c, 0, 64, 53
1, 900698, Note_on_c, 0, 69, 65
1, 900702, Note_off_c, 0, 76, 61
1, 900714, Control_c, 0, 64, 73
1, 900714, Control_c, 1, 64, 73
1, 900734, Control_c, 1, 64, 87
1, 900734, Control_c, 0, 64, 87
1, 900752, Control_c, 0, 64, 98
1, 900752, Control_c, 1, 64, 98
1, 900776, Note_off_c, 0, 69, 56
1, 900789, Note_on_c, 0, 65, 62
1, 900789, Control_c, 0, 64, 103
1, 900789, Control_c, 1, 64, 103
1, 900809, Control_c, 1, 64, 114
1, 900809, Control_c, 0, 64, 114
1, 900827, Control_c, 0, 64, 127
1, 900827, Control_c, 1, 64, 127
1, 900833, Note_off_c, 0, 65, 63
1, 900862, Note_on_c, 0, 64, 56
1, 900868, Note_on_c, 0, 81, 76
1, 900891, Note_off_c, 0, 64, 60
1, 900893, Note_off_c, 0, 81, 68
1, 900920, Control_c, 0, 64, 92
1, 900920, Control_c, 1, 64, 92
1, 900939, Control_c, 1, 64, 67
1, 900939, Control_c, 0, 64, 67
1, 900959, Control_c, 0, 64, 47
1, 900959, Control_c, 1, 64, 47
1, 900976, Control_c, 1, 64, 37
1, 900976, Control_c, 0, 64, 37
1, 900989, Note_on_c, 0, 81, 73
1, 900990, Note_on_c, 0, 69, 58
1, 901005, Note_on_c, 0, 57, 57
1, 901014, Control_c, 0, 64, 41
1, 901014, Control_c, 1, 64, 41
1, 901033, Control_c, 1, 64, 52
1, 901033, Control_c, 0, 64, 52
1, 901038, Note_off_c, 0, 69, 53
1, 901052, Control_c, 0, 64, 65
1, 901052, Control_c, 1, 64, 65
1, 901061, Note_off_c, 0, 57, 59
1, 901070, Note_off_c, 0, 81, 57
1, 901070, Control_c, 0, 64, 77
1, 901070, Control_c, 1, 64, 77
1, 901086, Note_on_c, 0, 53, 53
1, 901088, Control_c, 0, 64, 93
1, 901088, Control_c, 1, 64, 93
1, 901107, Control_c, 1, 64, 127
1, 901107, Control_c, 0, 64, 127
1, 901134, Note_off_c, 0, 53, 60
1, 901152, Note_on_c, 0, 52, 58
1, 901193, Note_off_c, 0, 52, 62
1, 901220, Control_c, 0, 64, 103
1, 901220, Control_c, 1, 64, 103
1, 901239, Control_c, 1, 64, 73
1, 901239, Control_c, 0, 64, 73
1, 901259, Control_c, 0, 64, 51
1, 901259, Control_c, 1, 64, 51
1, 901266, Note_on_c, 0, 77, 74
1, 901275, Control_c, 0, 64, 40
1, 901275, Control_c, 1, 64, 40
1, 901296, Note_on_c, 0, 41, 41
1, 901314, Control_c, 0, 64, 49
1, 901314, Control_c, 1, 64, 49
1, 901317, Note_off_c, 0, 77, 49
1, 901332, Control_c, 0, 64, 65
1, 901332, Control_c, 1, 64, 65
1, 901341, Note_on_c, 0, 65, 54
1, 901342, Note_off_c, 0, 41, 46
1, 901351, Control_c, 0, 64, 80
1, 901351, Control_c, 1, 64, 80
1, 901364, Note_on_c, 0, 53, 59
1, 901370, Control_c, 0, 64, 99
1, 901370, Control_c, 1, 64, 99
1, 901389, Control_c, 1, 64, 127
1, 901389, Control_c, 0, 64, 127
1, 901393, Note_off_c, 0, 65, 62
1, 901403, Note_off_c, 0, 53, 62
1, 901444, Note_on_c, 0, 52, 53
1, 901452, Note_on_c, 0, 64, 61
1, 901479, Note_off_c, 0, 52, 55
1, 901480, Note_off_c, 0, 64, 60
1, 901483, Control_c, 0, 64, 87
1, 901483, Control_c, 1, 64, 87
1, 901501, Control_c, 1, 64, 59
1, 901501, Control_c, 0, 64, 59
1, 901519, Control_c, 0, 64, 33
1, 901519, Control_c, 1, 64, 33
1, 901538, Control_c, 1, 64, 17
1, 901538, Control_c, 0, 64, 17
1, 901539, Note_on_c, 0, 74, 74
1, 901568, Note_on_c, 0, 38, 67
1, 901575, Control_c, 0, 64, 24
1, 901575, Control_c, 1, 64, 24
1, 901594, Control_c, 1, 64, 42
1, 901594, Control_c, 0, 64, 42
1, 901604, Note_off_c, 0, 38, 64
1, 901611, Note_on_c, 0, 62, 63
1, 901613, Control_c, 0, 64, 69
1, 901613, Control_c, 1, 64, 69
1, 901616, Note_on_c, 0, 50, 61
1, 901622, Note_off_c, 0, 74, 57
1, 901633, Control_c, 0, 64, 95
1, 901633, Control_c, 1, 64, 95
1, 901650, Control_c, 1, 64, 127
1, 901650, Control_c, 0, 64, 127
1, 901668, Note_off_c, 0, 50, 58
1, 901681, Note_off_c, 0, 62, 56
1, 901700, Note_on_c, 0, 65, 68
1, 901701, Note_on_c, 0, 53, 66
1, 901731, Note_off_c, 0, 65, 62
1, 901737, Note_off_c, 0, 53, 62
1, 901742, Control_c, 0, 64, 91
1, 901742, Control_c, 1, 64, 91
1, 901763, Control_c, 1, 64, 60
1, 901763, Control_c, 0, 64, 60
1, 901781, Control_c, 0, 64, 31
1, 901781, Control_c, 1, 64, 31
1, 901800, Control_c, 1, 64, 12
1, 901800, Control_c, 0, 64, 12
1, 901813, Note_on_c, 0, 76, 73
1, 901825, Note_on_c, 0, 40, 64
1, 901857, Control_c, 0, 64, 27
1, 901857, Control_c, 1, 64, 27
1, 901858, Note_off_c, 0, 40, 59
1, 901858, Poly_aftertouch_c, 0, 40, 0
1, 901868, Note_on_c, 0, 64, 65
1, 901876, Control_c, 0, 64, 54
1, 901876, Control_c, 1, 64, 54
1, 901881, Note_on_c, 0, 52, 51
1, 901894, Control_c, 0, 64, 89
1, 901894, Control_c, 1, 64, 89
1, 901895, Note_off_c, 0, 76, 55
1, 901913, Control_c, 0, 64, 127
1, 901913, Control_c, 1, 64, 127
1, 901916, Note_off_c, 0, 52, 54
1, 901937, Note_off_c, 0, 64, 54
1, 901940, Note_on_c, 0, 68, 71
1, 901965, Note_off_c, 0, 68, 66
1, 901972, Note_on_c, 0, 56, 67
1, 902008, Note_off_c, 0, 56, 67
1, 902082, Control_c, 0, 64, 78
1, 902082, Control_c, 1, 64, 78
1, 902093, Note_on_c, 0, 81, 77
1, 902100, Note_on_c, 0, 45, 75
1, 902100, Control_c, 0, 64, 51
1, 902100, Control_c, 1, 64, 51
1, 902118, Control_c, 1, 64, 31
1, 902118, Control_c, 0, 64, 31
1, 902137, Control_c, 0, 64, 25
1, 902137, Control_c, 1, 64, 25
1, 902142, Note_off_c, 0, 45, 65
1, 902160, Note_off_c, 0, 81, 59
1, 902162, Note_on_c, 0, 69, 62
1, 902169, Note_on_c, 0, 57, 65
1, 902221, Note_off_c, 0, 57, 59
1, 902237, Note_off_c, 0, 69, 55
1, 902253, Note_on_c, 0, 71, 62
1, 902268, Note_on_c, 0, 59, 61
1, 902278, Note_off_c, 0, 71, 64
1, 902306, Note_off_c, 0, 59, 63
1, 902378, Note_on_c, 0, 48, 72
1, 902378, Note_on_c, 0, 84, 80
1, 902415, Note_off_c, 0, 48, 64
1, 902442, Note_off_c, 0, 84, 60
1, 902448, Note_on_c, 0, 72, 54
1, 902458, Note_on_c, 0, 60, 59
1, 902497, Note_off_c, 0, 60, 60
1, 902531, Note_on_c, 0, 75, 68
1, 902533, Note_off_c, 0, 72, 59
1, 902560, Note_off_c, 0, 75, 71
1, 902561, Note_on_c, 0, 63, 55
1, 902594, Note_off_c, 0, 63, 67
1, 902669, Note_on_c, 0, 52, 61
1, 902670, Note_on_c, 0, 88, 70
1, 902700, Note_off_c, 0, 52, 60
1, 902716, Note_on_c, 0, 64, 66
1, 902719, Note_on_c, 0, 76, 64
1, 902745, Note_off_c, 0, 88, 50
1, 902760, Note_off_c, 0, 64, 58
1, 902806, Note_off_c, 0, 76, 61
1, 902815, Note_on_c, 0, 80, 59
1, 902823, Note_on_c, 0, 68, 57
1, 902850, Note_off_c, 0, 80, 67
1, 902850, Poly_aftertouch_c, 0, 80, 0
1, 902854, Note_off_c, 0, 68, 63
1, 903008, Note_on_c, 0, 45, 70
1, 903013, Note_on_c, 0, 93, 78
1, 903045, Note_off_c, 0, 45, 66
1, 903050, Note_on_c, 0, 85, 63
1, 903100, Note_off_c, 0, 85, 60
1, 903128, Note_on_c, 0, 90, 22
1, 903129, Note_off_c, 0, 90, 34
1, 903198, Note_on_c, 0, 83, 7
1, 903225, Note_off_c, 0, 83, 33
1, 903232, Note_on_c, 0, 81, 59
1, 903272, Note_off_c, 0, 81, 53
1, 903274, Poly_aftertouch_c, 0, 83, 0
1, 903290, Note_on_c, 0, 73, 50
1, 903319, Note_off_c, 0, 93, 59
1, 903361, Note_on_c, 0, 71, 56
1, 903366, Note_off_c, 0, 73, 58
1, 903403, Note_on_c, 0, 69, 60
1, 903419, Note_off_c, 0, 71, 62
1, 903447, Note_off_c, 0, 69, 61
1, 903457, Note_on_c, 0, 93, 78
1, 903471, Note_on_c, 0, 81, 53
1, 903485, Note_off_c, 0, 93, 71
1, 903503, Note_off_c, 0, 81, 41
1, 903557, Note_on_c, 0, 93, 81
1, 903574, Note_on_c, 0, 61, 68
1, 903579, Note_on_c, 0, 81, 64
1, 903616, Note_off_c, 0, 81, 46
1, 903620, Note_off_c, 0, 61, 62
1, 903656, Note_on_c, 0, 59, 46
1, 903708, Note_on_c, 0, 57, 42
1, 903717, Note_off_c, 0, 93, 63
1, 903725, Poly_aftertouch_c, 0, 81, 127
1, 903747, Poly_aftertouch_c, 0, 81, 0
1, 903754, Note_off_c, 0, 59, 54
1, 903840, Note_off_c, 0, 57, 61
1, 903855, Note_on_c, 0, 50, 60
1, 903898, Note_on_c, 0, 89, 72
1, 903907, Note_off_c, 0, 50, 63
1, 903907, Note_on_c, 0, 81, 54
1, 903915, Control_c, 0, 64, 37
1, 903915, Control_c, 1, 64, 37
1, 903935, Control_c, 1, 64, 52
1, 903935, Control_c, 0, 64, 52
1, 903953, Note_off_c, 0, 81, 58
1, 903953, Control_c, 0, 64, 65
1, 903953, Control_c, 1, 64, 65
1, 903972, Control_c, 1, 64, 72
1, 903972, Control_c, 0, 64, 72
1, 903986, Note_on_c, 0, 79, 60
1, 903989, Control_c, 0, 64, 75
1, 903989, Control_c, 1, 64, 75
1, 904009, Control_c, 1, 64, 77
1, 904009, Control_c, 0, 64, 77
1, 904027, Control_c, 0, 64, 81
1, 904027, Control_c, 1, 64, 81
1, 904029, Note_off_c, 0, 79, 64
1, 904047, Control_c, 0, 64, 89
1, 904047, Control_c, 1, 64, 89
1, 904057, Note_on_c, 0, 77, 58
1, 904064, Control_c, 0, 64, 101
1, 904064, Control_c, 1, 64, 101
1, 904084, Control_c, 1, 64, 115
1, 904084, Control_c, 0, 64, 115
1, 904091, Note_off_c, 0, 89, 58
1, 904117, Note_off_c, 0, 77, 55
1, 904121, Control_c, 0, 64, 109
1, 904121, Control_c, 1, 64, 109
1, 904139, Control_c, 1, 64, 92
1, 904139, Control_c, 0, 64, 92
1, 904149, Note_on_c, 0, 69, 58
1, 904157, Control_c, 0, 64, 75
1, 904157, Control_c, 1, 64, 75
1, 904178, Control_c, 1, 64, 59
1, 904178, Control_c, 0, 64, 59
1, 904195, Control_c, 0, 64, 46
1, 904195, Control_c, 1, 64, 46
1, 904215, Control_c, 1, 64, 39
1, 904215, Control_c, 0, 64, 39
1, 904217, Note_off_c, 0, 69, 55
1, 904224, Note_on_c, 0, 67, 58
1, 904277, Note_off_c, 0, 67, 61
1, 904277, Note_on_c, 0, 86, 76
1, 904288, Note_on_c, 0, 65, 65
1, 904309, Control_c, 0, 64, 35
1, 904309, Control_c, 1, 64, 35
1, 904315, Note_off_c, 0, 86, 63
1, 904322, Note_on_c, 0, 74, 31
1, 904324, Note_off_c, 0, 65, 67
1, 904346, Control_c, 0, 64, 27
1, 904346, Control_c, 1, 64, 27
1, 904365, Control_c, 1, 64, 21
1, 904365, Control_c, 0, 64, 21
1, 904367, Note_off_c, 0, 74, 35
1, 904386, Note_on_c, 0, 86, 83
1, 904402, Note_on_c, 0, 74, 67
1, 904435, Note_on_c, 0, 57, 68
1, 904449, Note_off_c, 0, 74, 54
1, 904457, Control_c, 0, 64, 26
1, 904457, Control_c, 1, 64, 26
1, 904467, Poly_aftertouch_c, 0, 76, 0
1, 904477, Control_c, 0, 64, 41
1, 904477, Control_c, 1, 64, 41
1, 904478, Note_off_c, 0, 57, 60
1, 904495, Control_c, 0, 64, 64
1, 904495, Control_c, 1, 64, 64
1, 904515, Control_c, 1, 64, 85
1, 904515, Control_c, 0, 64, 85
1, 904517, Note_on_c, 0, 55, 68
1, 904533, Control_c, 0, 64, 112
1, 904533, Control_c, 1, 64, 112
1, 904546, Note_off_c, 0, 86, 63
1, 904551, Control_c, 0, 64, 127
1, 904551, Control_c, 1, 64, 127
1, 904569, Note_off_c, 0, 55, 60
1, 904587, Note_on_c, 0, 53, 63
1, 904657, Note_off_c, 0, 53, 58
1, 904683, Control_c, 0, 64, 94
1, 904683, Control_c, 1, 64, 94
1, 904694, Note_on_c, 0, 43, 67
1, 904702, Control_c, 0, 64, 69
1, 904702, Control_c, 1, 64, 69
1, 904711, Note_on_c, 0, 83, 44
1, 904715, Note_on_c, 0, 91, 77
1, 904720, Control_c, 0, 64, 50
1, 904720, Control_c, 1, 64, 50
1, 904730, Note_off_c, 0, 43, 67
1, 904738, Control_c, 0, 64, 34
1, 904738, Control_c, 1, 64, 34
1, 904758, Control_c, 1, 64, 25
1, 904758, Control_c, 0, 64, 25
1, 904778, Note_off_c, 0, 83, 61
1, 904790, Note_on_c, 0, 81, 65
1, 904794, Control_c, 0, 64, 20
1, 904794, Control_c, 1, 64, 20
1, 904823, Note_off_c, 0, 81, 63
1, 904877, Note_on_c, 0, 79, 46
1, 904969, Note_off_c, 0, 91, 53
1, 904978, Note_on_c, 0, 71, 47
1, 904979, Note_off_c, 0, 79, 42
1, 905044, Note_off_c, 0, 71, 56
1, 905044, Note_on_c, 0, 69, 61
1, 905076, Control_c, 0, 64, 16
1, 905076, Control_c, 1, 64, 16
1, 905115, Note_off_c, 0, 69, 58
1, 905119, Note_on_c, 0, 91, 78
1, 905123, Note_on_c, 0, 67, 59
1, 905132, Note_on_c, 0, 79, 57
1, 905148, Note_off_c, 0, 91, 64
1, 905156, Note_off_c, 0, 67, 62
1, 905157, Note_off_c, 0, 79, 61
1, 905215, Note_on_c, 0, 91, 87
1, 905227, Control_c, 0, 64, 20
1, 905227, Control_c, 1, 64, 20
1, 905232, Note_on_c, 0, 79, 78
1, 905244, Control_c, 0, 64, 32
1, 905244, Control_c, 1, 64, 32
1, 905263, Control_c, 1, 64, 50
1, 905263, Control_c, 0, 64, 50
1, 905270, Note_on_c, 0, 59, 59
1, 905283, Control_c, 0, 64, 70
1, 905283, Control_c, 1, 64, 70
1, 905300, Control_c, 1, 64, 85
1, 905300, Control_c, 0, 64, 85
1, 905315, Note_off_c, 0, 59, 54
1, 905319, Control_c, 0, 64, 106
1, 905319, Control_c, 1, 64, 106
1, 905338, Control_c, 1, 64, 127
1, 905338, Control_c, 0, 64, 127
1, 905354, Note_on_c, 0, 57, 67
1, 905377, Note_off_c, 0, 91, 61
1, 905403, Note_off_c, 0, 79, 59
1, 905425, Note_off_c, 0, 57, 57
1, 905444, Note_on_c, 0, 55, 57
1, 905517, Note_off_c, 0, 55, 60
1, 905524, Control_c, 0, 64, 82
1, 905524, Control_c, 1, 64, 82
1, 905528, Note_on_c, 0, 48, 67
1, 905544, Control_c, 0, 64, 58
1, 905544, Control_c, 1, 64, 58
1, 905560, Note_on_c, 0, 88, 78
1, 905562, Control_c, 0, 64, 42
1, 905562, Control_c, 1, 64, 42
1, 905574, Note_off_c, 0, 48, 66
1, 905582, Control_c, 0, 64, 34
1, 905582, Control_c, 1, 64, 34
1, 905584, Note_on_c, 0, 79, 58
1, 905610, Note_off_c, 0, 79, 63
1, 905669, Note_on_c, 0, 77, 62
1, 905705, Note_off_c, 0, 77, 61
1, 905733, Note_on_c, 0, 76, 60
1, 905782, Note_off_c, 0, 88, 60
1, 905814, Note_off_c, 0, 76, 61
1, 905817, Note_on_c, 0, 67, 57
1, 905893, Note_on_c, 0, 65, 61
1, 905899, Note_off_c, 0, 67, 59
1, 905961, Note_off_c, 0, 65, 60
1, 905963, Note_on_c, 0, 84, 76
1, 905972, Note_on_c, 0, 64, 64
1, 905987, Note_off_c, 0, 84, 64
1, 905992, Control_c, 0, 64, 40
1, 905992, Control_c, 1, 64, 40
1, 906003, Note_off_c, 0, 64, 65
1, 906012, Control_c, 0, 64, 51
1, 906012, Control_c, 1, 64, 51
1, 906031, Control_c, 1, 64, 62
1, 906031, Control_c, 0, 64, 62
1, 906050, Control_c, 0, 64, 69
1, 906050, Control_c, 1, 64, 69
1, 906068, Control_c, 1, 64, 71
1, 906068, Control_c, 0, 64, 71
1, 906075, Note_on_c, 0, 84, 85
1, 906087, Control_c, 0, 64, 75
1, 906087, Control_c, 1, 64, 75
1, 906105, Control_c, 1, 64, 84
1, 906105, Control_c, 0, 64, 84
1, 906109, Poly_aftertouch_c, 0, 72, 127
1, 906113, Note_on_c, 0, 72, 13
1, 906124, Control_c, 0, 64, 105
1, 906124, Control_c, 1, 64, 105
1, 906127, Note_on_c, 0, 55, 61
1, 906128, Note_off_c, 0, 72, 57
1, 906128, Poly_aftertouch_c, 0, 72, 0
1, 906142, Control_c, 0, 64, 127
1, 906142, Control_c, 1, 64, 127
1, 906172, Note_off_c, 0, 55, 55
1, 906184, Note_off_c, 0, 84, 63
1, 906209, Note_on_c, 0, 53, 60
1, 906225, Note_on_c, 0, 80, 43
1, 906248, Note_off_c, 0, 53, 62
1, 906263, Note_off_c, 0, 80, 59
1, 906263, Poly_aftertouch_c, 0, 80, 0
1, 906275, Note_on_c, 0, 52, 53
1, 906312, Note_off_c, 0, 52, 53
1, 906368, Control_c, 0, 64, 105
1, 906368, Control_c, 1, 64, 105
1, 906372, Note_on_c, 0, 81, 67
1, 906374, Note_on_c, 0, 89, 82
1, 906387, Control_c, 0, 64, 74
1, 906387, Control_c, 1, 64, 74
1, 906389, Note_on_c, 0, 38, 77
1, 906405, Control_c, 0, 64, 52
1, 906405, Control_c, 1, 64, 52
1, 906422, Note_off_c, 0, 38, 65
1, 906422, Control_c, 0, 64, 37
1, 906422, Control_c, 1, 64, 37
1, 906442, Control_c, 1, 64, 29
1, 906442, Control_c, 0, 64, 29
1, 906466, Note_off_c, 0, 81, 59
1, 906486, Note_on_c, 0, 79, 66
1, 906535, Control_c, 0, 64, 25
1, 906535, Control_c, 1, 64, 25
1, 906557, Note_off_c, 0, 79, 61
1, 906562, Note_off_c, 0, 89, 62
1, 906566, Note_on_c, 0, 77, 65
1, 906646, Note_off_c, 0, 77, 62
1, 906659, Note_on_c, 0, 69, 68
1, 906666, Control_c, 0, 64, 21
1, 906666, Control_c, 1, 64, 21
1, 906736, Note_off_c, 0, 69, 58
1, 906745, Note_on_c, 0, 67, 64
1, 906797, Note_off_c, 0, 67, 59
1, 906798, Control_c, 0, 64, 27
1, 906798, Control_c, 1, 64, 27
1, 906810, Note_on_c, 0, 65, 65
1, 906811, Note_on_c, 0, 83, 72
1, 906817, Control_c, 0, 64, 39
1, 906817, Control_c, 1, 64, 39
1, 906837, Control_c, 1, 64, 57
1, 906837, Control_c, 0, 64, 57
1, 906839, Note_off_c, 0, 83, 65
1, 906845, Note_off_c, 0, 65, 65
1, 906855, Control_c, 0, 64, 72
1, 906855, Control_c, 1, 64, 72
1, 906872, Control_c, 1, 64, 84
1, 906872, Control_c, 0, 64, 84
1, 906890, Control_c, 0, 64, 98
1, 906890, Control_c, 1, 64, 98
1, 906904, Note_on_c, 0, 83, 85
1, 906910, Control_c, 0, 64, 122
1, 906910, Control_c, 1, 64, 122
1, 906930, Control_c, 1, 64, 127
1, 906930, Control_c, 0, 64, 127
1, 906942, Poly_aftertouch_c, 0, 71, 127
1, 906951, Note_on_c, 0, 57, 63
1, 906963, Poly_aftertouch_c, 0, 71, 0
1, 907025, Note_off_c, 0, 57, 57
1, 907032, Note_on_c, 0, 55, 69
1, 907069, Note_off_c, 0, 55, 65
1, 907071, Note_off_c, 0, 83, 37
1, 907096, Note_on_c, 0, 53, 58
1, 907124, Note_off_c, 0, 53, 56
1, 907209, Control_c, 0, 64, 78
1, 907209, Control_c, 1, 64, 78
1, 907215, Note_on_c, 0, 88, 79
1, 907216, Note_on_c, 0, 81, 25
1, 907228, Control_c, 0, 64, 50
1, 907228, Control_c, 1, 64, 50
1, 907230, Note_on_c, 0, 36, 67
1, 907247, Control_c, 0, 64, 23
1, 907247, Control_c, 1, 64, 23
1, 907258, Note_off_c, 0, 36, 65
1, 907266, Control_c, 0, 64, 9
1, 907266, Control_c, 1, 64, 9
1, 907284, Note_off_c, 0, 81, 61
1, 907297, Note_on_c, 0, 77, 69
1, 907315, Poly_aftertouch_c, 0, 83, 0
1, 907322, Poly_aftertouch_c, 0, 83, 0
1, 907339, Note_off_c, 0, 77, 52
1, 907378, Note_on_c, 0, 76, 67
1, 907397, Control_c, 0, 64, 15
1, 907397, Control_c, 1, 64, 15
1, 907420, Note_off_c, 0, 88, 49
1, 907435, Control_c, 0, 64, 24
1, 907435, Control_c, 1, 64, 24
1, 907453, Control_c, 1, 64, 32
1, 907453, Control_c, 0, 64, 32
1, 907470, Control_c, 0, 64, 47
1, 907470, Control_c, 1, 64, 47
1, 907472, Note_on_c, 0, 69, 73
1, 907483, Note_off_c, 0, 76, 61
1, 907489, Control_c, 0, 64, 64
1, 907489, Control_c, 1, 64, 64
1, 907510, Control_c, 1, 64, 71
1, 907510, Control_c, 0, 64, 71
1, 907555, Note_off_c, 0, 69, 55
1, 907571, Note_on_c, 0, 65, 64
1, 907615, Note_off_c, 0, 65, 65
1, 907622, Control_c, 0, 64, 67
1, 907622, Control_c, 1, 64, 67
1, 907636, Note_on_c, 0, 64, 54
1, 907640, Control_c, 0, 64, 61
1, 907640, Control_c, 1, 64, 61
1, 907644, Note_on_c, 0, 81, 71
1, 907659, Control_c, 0, 64, 57
1, 907659, Control_c, 1, 64, 57
1, 907665, Note_off_c, 0, 64, 59
1, 907671, Note_off_c, 0, 81, 69
1, 907678, Control_c, 0, 64, 53
1, 907678, Control_c, 1, 64, 53
1, 907752, Control_c, 1, 64, 59
1, 907752, Control_c, 0, 64, 59
1, 907758, Note_on_c, 0, 81, 78
1, 907771, Control_c, 0, 64, 64
1, 907771, Control_c, 1, 64, 64
1, 907777, Note_on_c, 0, 69, 43
1, 907791, Note_on_c, 0, 57, 48
1, 907791, Control_c, 0, 64, 69
1, 907791, Control_c, 1, 64, 69
1, 907809, Control_c, 1, 64, 75
1, 907809, Control_c, 0, 64, 75
1, 907815, Note_off_c, 0, 69, 49
1, 907827, Control_c, 0, 64, 85
1, 907827, Control_c, 1, 64, 85
1, 907835, Note_off_c, 0, 81, 58
1, 907837, Note_off_c, 0, 57, 49
1, 907845, Control_c, 0, 64, 102
1, 907845, Control_c, 1, 64, 102
1, 907865, Control_c, 1, 64, 127
1, 907865, Control_c, 0, 64, 127
1, 907873, Note_on_c, 0, 53, 58
1, 907890, Poly_aftertouch_c, 0, 55, 0
1, 907911, Note_off_c, 0, 53, 63
1, 907948, Note_on_c, 0, 52, 40
1, 907989, Note_off_c, 0, 52, 46
1, 907995, Control_c, 0, 64, 87
1, 907995, Control_c, 1, 64, 87
1, 908015, Control_c, 1, 64, 63
1, 908015, Control_c, 0, 64, 63
1, 908034, Control_c, 0, 64, 47
1, 908034, Control_c, 1, 64, 47
1, 908041, Note_on_c, 0, 77, 70
1, 908053, Note_on_c, 0, 41, 65
1, 908053, Control_c, 0, 64, 44
1, 908053, Control_c, 1, 64, 44
1, 908071, Control_c, 1, 64, 47
1, 908071, Control_c, 0, 64, 47
1, 908084, Note_off_c, 0, 77, 50
1, 908087, Note_off_c, 0, 41, 63
1, 908089, Control_c, 0, 64, 57
1, 908089, Control_c, 1, 64, 57
1, 908100, Note_on_c, 0, 65, 59
1, 908108, Control_c, 0, 64, 69
1, 908108, Control_c, 1, 64, 69
1, 908127, Control_c, 1, 64, 83
1, 908127, Control_c, 0, 64, 83
1, 908138, Note_on_c, 0, 53, 57
1, 908146, Control_c, 0, 64, 110
1, 908146, Control_c, 1, 64, 110
1, 908159, Note_off_c, 0, 65, 60
1, 908163, Control_c, 0, 64, 127
1, 908163, Control_c, 1, 64, 127
1, 908193, Note_off_c, 0, 53, 59
1, 908204, Note_on_c, 0, 52, 62
1, 908228, Note_on_c, 0, 64, 44
1, 908244, Note_off_c, 0, 52, 62
1, 908266, Note_off_c, 0, 64, 52
1, 908276, Control_c, 0, 64, 95
1, 908276, Control_c, 1, 64, 95
1, 908296, Control_c, 1, 64, 61
1, 908296, Control_c, 0, 64, 61
1, 908301, Note_on_c, 0, 74, 79
1, 908315, Control_c, 0, 64, 31
1, 908315, Control_c, 1, 64, 31
1, 908332, Note_on_c, 0, 38, 70
1, 908333, Control_c, 0, 64, 22
1, 908333, Control_c, 1, 64, 22
1, 908370, Control_c, 1, 64, 38
1, 908370, Control_c, 0, 64, 38
1, 908371, Note_off_c, 0, 38, 65
1, 908373, Note_on_c, 0, 62, 62
1, 908378, Note_off_c, 0, 74, 59
1, 908387, Note_on_c, 0, 50, 63
1, 908389, Control_c, 0, 64, 63
1, 908389, Control_c, 1, 64, 63
1, 908409, Control_c, 1, 64, 89
1, 908409, Control_c, 0, 64, 89
1, 908426, Control_c, 0, 64, 127
1, 908426, Control_c, 1, 64, 127
1, 908439, Note_off_c, 0, 62, 53
1, 908439, Note_off_c, 0, 50, 61
1, 908456, Note_on_c, 0, 65, 69
1, 908482, Note_on_c, 0, 53, 57
1, 908488, Note_off_c, 0, 65, 67
1, 908511, Note_off_c, 0, 53, 59
1, 908520, Control_c, 0, 64, 96
1, 908520, Control_c, 1, 64, 96
1, 908539, Control_c, 1, 64, 65
1, 908539, Control_c, 0, 64, 65
1, 908557, Control_c, 0, 64, 40
1, 908557, Control_c, 1, 64, 40
1, 908561, Note_on_c, 0, 76, 80
1, 908577, Control_c, 0, 64, 30
1, 908577, Control_c, 1, 64, 30
1, 908600, Note_on_c, 0, 40, 58
1, 908614, Control_c, 0, 64, 40
1, 908614, Control_c, 1, 64, 40
1, 908635, Control_c, 1, 64, 60
1, 908635, Control_c, 0, 64, 60
1, 908636, Note_off_c, 0, 40, 54
1, 908636, Poly_aftertouch_c, 0, 40, 0
1, 908638, Note_on_c, 0, 64, 72
1, 908639, Note_off_c, 0, 76, 59
1, 908650, Control_c, 0, 64, 81
1, 908650, Control_c, 1, 64, 81
1, 908653, Note_on_c, 0, 52, 54
1, 908670, Control_c, 0, 64, 127
1, 908670, Control_c, 1, 64, 127
1, 908686, Note_off_c, 0, 52, 57
1, 908706, Note_off_c, 0, 64, 57
1, 908709, Note_on_c, 0, 68, 74
1, 908744, Note_off_c, 0, 68, 66
1, 908756, Note_on_c, 0, 56, 42
1, 908799, Note_off_c, 0, 56, 56
1, 908820, Control_c, 0, 64, 103
1, 908820, Control_c, 1, 64, 103
1, 908838, Control_c, 1, 64, 67
1, 908838, Control_c, 0, 64, 67
1, 908857, Control_c, 0, 64, 40
1, 908857, Control_c, 1, 64, 40
1, 908875, Control_c, 1, 64, 31
1, 908875, Control_c, 0, 64, 31
1, 908876, Note_on_c, 0, 81, 78
1, 908894, Note_on_c, 0, 45, 47
1, 908913, Control_c, 0, 64, 42
1, 908913, Control_c, 1, 64, 42
1, 908924, Note_off_c, 0, 81, 59
1, 908924, Note_on_c, 0, 57, 56
1, 908931, Control_c, 0, 64, 61
1, 908931, Control_c, 1, 64, 61
1, 908949, Note_off_c, 0, 45, 50
1, 908949, Control_c, 0, 64, 79
1, 908949, Control_c, 1, 64, 79
1, 908960, Note_on_c, 0, 69, 50
1, 908967, Control_c, 0, 64, 99
1, 908967, Control_c, 1, 64, 99
1, 908988, Control_c, 1, 64, 127
1, 908988, Control_c, 0, 64, 127
1, 908990, Note_off_c, 0, 57, 53
1, 909004, Note_off_c, 0, 69, 61
1, 909004, Poly_aftertouch_c, 0, 47, 0
1, 909026, Control_c, 0, 64, 109
1, 909026, Control_c, 1, 64, 109
1, 909041, Note_on_c, 0, 52, 50
1, 909044, Control_c, 0, 64, 93
1, 909044, Control_c, 1, 64, 93
1, 909063, Control_c, 1, 64, 76
1, 909063, Control_c, 0, 64, 76
1, 909074, Note_on_c, 0, 64, 60
1, 909076, Note_off_c, 0, 52, 57
1, 909080, Control_c, 0, 64, 60
1, 909080, Control_c, 1, 64, 60
1, 909102, Control_c, 1, 64, 50
1, 909102, Control_c, 0, 64, 50
1, 909114, Note_off_c, 0, 64, 64
1, 909179, Note_on_c, 0, 72, 71
1, 909199, Note_on_c, 0, 36, 60
1, 909224, Note_on_c, 0, 48, 53
1, 909228, Note_off_c, 0, 72, 47
1, 909228, Poly_aftertouch_c, 0, 72, 0
1, 909250, Note_off_c, 0, 36, 59
1, 909274, Note_on_c, 0, 60, 49
1, 909314, Note_off_c, 0, 48, 53
1, 909331, Note_off_c, 0, 60, 58
1, 909343, Control_c, 0, 64, 48
1, 909343, Control_c, 1, 64, 48
1, 909372, Note_on_c, 0, 47, 52
1, 909380, Control_c, 0, 64, 46
1, 909380, Control_c, 1, 64, 46
1, 909395, Note_on_c, 0, 59, 59
1, 909412, Note_off_c, 0, 47, 63
1, 909417, Control_c, 0, 64, 43
1, 909417, Control_c, 1, 64, 43
1, 909447, Note_off_c, 0, 59, 63
1, 909456, Control_c, 0, 64, 41
1, 909456, Control_c, 1, 64, 41
1, 909527, Note_on_c, 0, 57, 42
1, 909550, Control_c, 0, 64, 36
1, 909550, Control_c, 1, 64, 36
1, 909596, Note_on_c, 0, 33, 51
1, 909604, Control_c, 0, 64, 32
1, 909604, Control_c, 1, 64, 32
1, 909613, Note_on_c, 0, 69, 58
1, 909627, Note_on_c, 0, 45, 18
1, 909644, Control_c, 0, 64, 26
1, 909644, Control_c, 1, 64, 26
1, 909737, Control_c, 1, 64, 34
1, 909737, Control_c, 0, 64, 34
1, 909755, Control_c, 0, 64, 55
1, 909755, Control_c, 1, 64, 55
1, 909775, Control_c, 1, 64, 78
1, 909775, Control_c, 0, 64, 78
1, 909788, Note_off_c, 0, 33, 61
1, 909788, Poly_aftertouch_c, 0, 33, 0
1, 909792, Control_c, 0, 64, 103
1, 909792, Control_c, 1, 64, 103
1, 909806, Note_off_c, 0, 69, 56
1, 909809, Control_c, 0, 64, 127
1, 909809, Control_c, 1, 64, 127
1, 909813, Note_off_c, 0, 45, 55
1, 909813, Note_off_c, 0, 57, 51
1, 910244, Control_c, 0, 64, 119
1, 910244, Control_c, 1, 64, 119
1, 910300, Control_c, 1, 64, 112
1, 910300, Control_c, 0, 64, 112
1, 910373, Control_c, 0, 64, 119
1, 910373, Control_c, 1, 64, 119
1, 910392, Control_c, 1, 64, 127
1, 910392, Control_c, 0, 64, 127
1, 911215, Control_c, 0, 64, 89
1, 911215, Control_c, 1, 64, 89
1, 911234, Control_c, 1, 64, 71
1, 911234, Control_c, 0, 64, 71
1, 911253, Control_c, 0, 64, 62
1, 911253, Control_c, 1, 64, 62
1, 911347, Control_c, 1, 64, 59
1, 911347, Control_c, 0, 64, 59
1, 911365, Control_c, 0, 64, 50
1, 911365, Control_c, 1, 64, 50
1, 911385, Control_c, 1, 64, 30
1, 911385, Control_c, 0, 64, 30
1, 911420, Note_on_c, 0, 56, 62
1, 911421, Control_c, 0, 64, 0
1, 911421, Control_c, 1, 64, 0
1, 911426, Note_on_c, 0, 57, 59
1, 911461, Note_off_c, 0, 56, 65
1, 911470, Note_off_c, 0, 57, 62
1, 911496, Note_on_c, 0, 60, 68
1, 911535, Note_off_c, 0, 60, 63
1, 911569, Note_on_c, 0, 64, 66
1, 911600, Note_off_c, 0, 64, 65
1, 911628, Note_on_c, 0, 68, 86
1, 911663, Note_off_c, 0, 68, 64
1, 911666, Note_on_c, 0, 69, 74
1, 911737, Note_off_c, 0, 69, 57
1, 911740, Note_on_c, 0, 72, 66
1, 911783, Note_off_c, 0, 72, 58
1, 911783, Poly_aftertouch_c, 0, 72, 0
1, 911833, Note_on_c, 0, 76, 56
1, 911859, Note_off_c, 0, 76, 60
1, 911864, Note_on_c, 0, 80, 92
1, 911887, Note_off_c, 0, 80, 68
1, 911887, Poly_aftertouch_c, 0, 80, 0
1, 911910, Note_on_c, 0, 81, 76
1, 911956, Note_off_c, 0, 81, 62
1, 912001, Note_on_c, 0, 84, 49
1, 912061, Note_on_c, 0, 81, 71
1, 912070, Note_off_c, 0, 84, 63
1, 912116, Note_on_c, 0, 87, 90
1, 912121, Note_on_c, 0, 88, 80
1, 912133, Note_on_c, 0, 76, 72
1, 912135, Note_off_c, 0, 81, 60
1, 912146, Note_off_c, 0, 87, 66
1, 912202, Note_off_c, 0, 76, 58
1, 912238, Note_on_c, 0, 83, 67
1, 912313, Note_on_c, 0, 80, 73
1, 912323, Note_off_c, 0, 88, 60
1, 912323, Note_off_c, 0, 83, 62
1, 912349, Note_on_c, 0, 75, 78
1, 912367, Note_on_c, 0, 76, 71
1, 912370, Note_off_c, 0, 80, 63
1, 912370, Poly_aftertouch_c, 0, 80, 0
1, 912384, Note_off_c, 0, 75, 64
1, 912398, Poly_aftertouch_c, 0, 77, 0
1, 912402, Note_off_c, 0, 76, 66
1, 912485, Note_on_c, 0, 71, 65
1, 912548, Note_off_c, 0, 71, 60
1, 912564, Note_on_c, 0, 68, 66
1, 912601, Note_off_c, 0, 68, 66
1, 912612, Note_on_c, 0, 64, 67
1, 912612, Note_on_c, 0, 63, 78
1, 912639, Note_off_c, 0, 63, 70
1, 912661, Note_off_c, 0, 64, 63
1, 912699, Note_on_c, 0, 68, 60
1, 912770, Note_on_c, 0, 64, 62
1, 912782, Note_off_c, 0, 68, 61
1, 912843, Note_off_c, 0, 64, 63
1, 912867, Note_on_c, 0, 56, 88
1, 912869, Note_on_c, 0, 57, 59
1, 912899, Note_off_c, 0, 56, 59
1, 912905, Note_on_c, 0, 59, 49
1, 912931, Note_off_c, 0, 57, 64
1, 912935, Note_off_c, 0, 59, 56
1, 912949, Note_on_c, 0, 60, 72
1, 912979, Note_off_c, 0, 60, 65
1, 912999, Note_on_c, 0, 64, 67
1, 913030, Note_off_c, 0, 64, 66
1, 913105, Note_on_c, 0, 69, 79
1, 913107, Note_on_c, 0, 68, 91
1, 913138, Note_off_c, 0, 68, 65
1, 913158, Note_off_c, 0, 69, 60
1, 913190, Note_on_c, 0, 74, 50
1, 913202, Poly_aftertouch_c, 0, 71, 0
1, 913248, Note_off_c, 0, 74, 63
1, 913266, Poly_aftertouch_c, 0, 72, 0
1, 913279, Note_on_c, 0, 77, 59
1, 913313, Note_off_c, 0, 77, 63
1, 913372, Note_on_c, 0, 80, 76
1, 913376, Note_on_c, 0, 81, 76
1, 913390, Note_off_c, 0, 80, 70
1, 913390, Poly_aftertouch_c, 0, 80, 0
1, 913426, Note_off_c, 0, 81, 63
1, 913430, Note_on_c, 0, 84, 63
1, 913516, Note_on_c, 0, 81, 73
1, 913526, Note_off_c, 0, 84, 62
1, 913587, Note_off_c, 0, 81, 62
1, 913605, Note_on_c, 0, 88, 68
1, 913612, Note_on_c, 0, 87, 88
1, 913616, Note_on_c, 0, 76, 61
1, 913633, Note_off_c, 0, 87, 64
1, 913700, Note_off_c, 0, 76, 56
1, 913700, Note_on_c, 0, 83, 75
1, 913794, Note_off_c, 0, 88, 28
1, 913796, Note_on_c, 0, 80, 80
1, 913799, Note_off_c, 0, 83, 60
1, 913847, Note_on_c, 0, 75, 80
1, 913857, Note_on_c, 0, 76, 68
1, 913864, Note_off_c, 0, 80, 64
1, 913864, Poly_aftertouch_c, 0, 80, 0
1, 913888, Note_off_c, 0, 75, 66
1, 913900, Note_off_c, 0, 76, 62
1, 913964, Note_on_c, 0, 71, 69
1, 913986, Note_on_c, 0, 72, 40
1, 914024, Note_off_c, 0, 72, 56
1, 914043, Note_off_c, 0, 71, 59
1, 914043, Note_on_c, 0, 68, 70
1, 914089, Note_on_c, 0, 64, 76
1, 914093, Note_on_c, 0, 63, 82
1, 914094, Note_off_c, 0, 68, 64
1, 914115, Note_off_c, 0, 63, 64
1, 914126, Note_off_c, 0, 64, 64
1, 914362, Note_on_c, 0, 57, 72
1, 914367, Note_on_c, 0, 56, 84
1, 914395, Note_off_c, 0, 56, 68
1, 914408, Note_off_c, 0, 57, 66
1, 914416, Note_on_c, 0, 60, 60
1, 914463, Note_off_c, 0, 60, 58
1, 914488, Note_on_c, 0, 64, 72
1, 914523, Note_off_c, 0, 64, 66
1, 914596, Note_on_c, 0, 69, 72
1, 914599, Note_on_c, 0, 68, 81
1, 914629, Note_off_c, 0, 68, 73
1, 914667, Note_on_c, 0, 72, 63
1, 914673, Note_off_c, 0, 69, 57
1, 914725, Note_off_c, 0, 72, 60
1, 914794, Note_on_c, 0, 77, 45
1, 914795, Note_on_c, 0, 76, 32
1, 914822, Note_off_c, 0, 77, 38
1, 914838, Note_on_c, 0, 80, 93
1, 914843, Note_off_c, 0, 76, 34
1, 914861, Note_off_c, 0, 80, 68
1, 914861, Poly_aftertouch_c, 0, 80, 0
1, 914864, Note_on_c, 0, 81, 73
1, 914907, Note_off_c, 0, 81, 63
1, 914922, Note_on_c, 0, 84, 59
1, 915018, Note_off_c, 0, 84, 61
1, 915018, Note_on_c, 0, 81, 72
1, 915082, Note_on_c, 0, 88, 71
1, 915084, Note_on_c, 0, 87, 90
1, 915086, Note_off_c, 0, 81, 57
1, 915092, Note_on_c, 0, 76, 64
1, 915108, Note_off_c, 0, 87, 71
1, 915173, Note_off_c, 0, 76, 48
1, 915189, Note_on_c, 0, 83, 72
1, 915198, Note_off_c, 0, 88, 50
1, 915273, Note_off_c, 0, 83, 60
1, 915280, Note_on_c, 0, 80, 74
1, 915288, Poly_aftertouch_c, 0, 88, 0
1, 915336, Note_on_c, 0, 75, 77
1, 915337, Note_on_c, 0, 76, 69
1, 915348, Note_off_c, 0, 80, 61
1, 915348, Poly_aftertouch_c, 0, 80, 0
1, 915373, Note_off_c, 0, 75, 64
1, 915383, Note_off_c, 0, 76, 63
1, 915449, Note_on_c, 0, 71, 70
1, 915472, Note_on_c, 0, 72, 37
1, 915505, Note_off_c, 0, 72, 56
1, 915510, Note_off_c, 0, 71, 54
1, 915539, Note_on_c, 0, 68, 68
1, 915573, Note_off_c, 0, 68, 65
1, 915585, Note_on_c, 0, 64, 72
1, 915586, Note_on_c, 0, 63, 81
1, 915611, Note_off_c, 0, 63, 70
1, 915636, Note_off_c, 0, 64, 62
1, 915679, Note_on_c, 0, 68, 67
1, 915745, Note_on_c, 0, 64, 66
1, 915757, Note_off_c, 0, 68, 62
1, 915817, Note_off_c, 0, 64, 62
1, 915828, Note_on_c, 0, 56, 89
1, 915839, Note_on_c, 0, 57, 68
1, 915864, Note_off_c, 0, 56, 62
1, 915909, Note_off_c, 0, 57, 62
1, 915926, Note_on_c, 0, 60, 72
1, 915969, Note_off_c, 0, 60, 60
1, 915989, Note_on_c, 0, 64, 70
1, 916022, Note_off_c, 0, 64, 67
1, 916074, Note_on_c, 0, 68, 89
1, 916085, Note_on_c, 0, 69, 82
1, 916102, Note_off_c, 0, 68, 73
1, 916156, Note_off_c, 0, 69, 56
1, 916169, Note_on_c, 0, 72, 59
1, 916227, Note_off_c, 0, 72, 63
1, 916254, Note_on_c, 0, 76, 59
1, 916278, Note_off_c, 0, 76, 64
1, 916322, Note_on_c, 0, 80, 89
1, 916344, Note_off_c, 0, 80, 75
1, 916344, Poly_aftertouch_c, 0, 80, 0
1, 916361, Note_on_c, 0, 81, 59
1, 916368, Note_on_c, 0, 83, 55
1, 916394, Note_off_c, 0, 81, 66
1, 916394, Note_off_c, 0, 83, 62
1, 916424, Note_on_c, 0, 84, 60
1, 916496, Note_on_c, 0, 81, 74
1, 916502, Note_off_c, 0, 84, 63
1, 916577, Note_on_c, 0, 87, 86
1, 916579, Note_on_c, 0, 88, 72
1, 916581, Note_off_c, 0, 81, 56
1, 916588, Note_on_c, 0, 76, 76
1, 916600, Note_off_c, 0, 87, 71
1, 916653, Note_off_c, 0, 76, 55
1, 916682, Note_on_c, 0, 83, 70
1, 916761, Note_on_c, 0, 80, 74
1, 916762, Note_off_c, 0, 83, 62
1, 916763, Note_off_c, 0, 88, 29
1, 916813, Note_on_c, 0, 76, 68
1, 916815, Note_on_c, 0, 75, 80
1, 916818, Note_off_c, 0, 80, 59
1, 916818, Poly_aftertouch_c, 0, 80, 0
1, 916840, Note_off_c, 0, 75, 69
1, 916856, Note_off_c, 0, 76, 62
1, 916945, Note_on_c, 0, 71, 50
1, 917007, Note_off_c, 0, 71, 55
1, 917019, Note_on_c, 0, 68, 64
1, 917027, Poly_aftertouch_c, 0, 72, 0
1, 917061, Note_off_c, 0, 68, 63
1, 917081, Note_on_c, 0, 64, 65
1, 917083, Note_on_c, 0, 63, 72
1, 917109, Note_off_c, 0, 63, 68
1, 917113, Note_off_c, 0, 64, 66
1, 917187, Control_c, 0, 67, 118
1, 917187, Control_c, 1, 67, 118
1, 917205, Control_c, 1, 67, 108
1, 917205, Control_c, 0, 67, 108
1, 917224, Control_c, 0, 67, 97
1, 917224, Control_c, 1, 67, 97
1, 917243, Control_c, 1, 67, 88
1, 917243, Control_c, 0, 67, 88
1, 917261, Control_c, 0, 67, 80
1, 917261, Control_c, 1, 67, 80
1, 917281, Control_c, 1, 67, 74
1, 917281, Control_c, 0, 67, 74
1, 917299, Control_c, 0, 67, 67
1, 917299, Control_c, 1, 67, 67
1, 917318, Control_c, 1, 67, 58
1, 917318, Control_c, 0, 67, 58
1, 917336, Control_c, 0, 67, 48
1, 917336, Control_c, 1, 67, 48
1, 917346, Note_on_c, 0, 57, 80
1, 917355, Control_c, 0, 67, 38
1, 917355, Control_c, 1, 67, 38
1, 917363, Note_on_c, 0, 56, 93
1, 917373, Control_c, 0, 67, 26
1, 917373, Control_c, 1, 67, 26
1, 917392, Control_c, 1, 67, 14
1, 917392, Control_c, 0, 67, 14
1, 917410, Note_off_c, 0, 56, 64
1, 917424, Note_off_c, 0, 57, 64
1, 917424, Note_on_c, 0, 61, 68
1, 917449, Control_c, 0, 67, 0
1, 917449, Control_c, 1, 67, 0
1, 917458, Note_off_c, 0, 61, 64
1, 917469, Note_on_c, 0, 64, 69
1, 917509, Note_off_c, 0, 64, 67
1, 917537, Poly_aftertouch_c, 0, 62, 0
1, 917567, Note_on_c, 0, 69, 73
1, 917600, Note_on_c, 0, 68, 87
1, 917626, Note_off_c, 0, 68, 75
1, 917663, Note_on_c, 0, 73, 80
1, 917688, Note_off_c, 0, 69, 60
1, 917718, Note_off_c, 0, 73, 63
1, 917734, Note_on_c, 0, 76, 71
1, 917777, Note_off_c, 0, 76, 61
1, 917826, Note_on_c, 0, 77, 23
1, 917827, Note_off_c, 0, 77, 127
1, 917837, Note_on_c, 0, 81, 70
1, 917837, Note_on_c, 0, 80, 87
1, 917859, Note_off_c, 0, 80, 75
1, 917859, Poly_aftertouch_c, 0, 80, 0
1, 917937, Note_on_c, 0, 85, 79
1, 917968, Note_off_c, 0, 81, 56
1, 918003, Note_on_c, 0, 88, 77
1, 918009, Note_off_c, 0, 85, 67
1, 918069, Note_on_c, 0, 92, 105
1, 918072, Note_on_c, 0, 93, 84
1, 918093, Note_on_c, 0, 81, 73
1, 918103, Note_off_c, 0, 88, 67
1, 918108, Note_off_c, 0, 92, 70
1, 918139, Note_off_c, 0, 81, 58
1, 918152, Note_off_c, 0, 93, 54
1, 918195, Note_on_c, 0, 89, 60
1, 918209, Note_on_c, 0, 88, 62
1, 918241, Note_on_c, 0, 86, 49
1, 918262, Note_off_c, 0, 88, 46
1, 918269, Note_off_c, 0, 89, 59
1, 918316, Note_on_c, 0, 81, 71
1, 918321, Note_on_c, 0, 80, 86
1, 918323, Note_off_c, 0, 86, 65
1, 918360, Note_off_c, 0, 80, 66
1, 918360, Poly_aftertouch_c, 0, 80, 0
1, 918382, Note_off_c, 0, 81, 62
1, 918438, Note_on_c, 0, 77, 73
1, 918525, Note_off_c, 0, 77, 60
1, 918525, Note_on_c, 0, 74, 67
1, 918553, Note_on_c, 0, 68, 87
1, 918569, Note_on_c, 0, 69, 79
1, 918575, Note_off_c, 0, 74, 64
1, 918579, Note_off_c, 0, 68, 72
1, 918618, Note_off_c, 0, 69, 61
1, 918728, Note_on_c, 0, 64, 39
1, 918730, Note_on_c, 0, 65, 19
1, 918767, Note_off_c, 0, 64, 47
1, 918793, Note_off_c, 0, 65, 29
1, 918796, Control_c, 0, 67, 8
1, 918796, Control_c, 1, 67, 8
1, 918805, Note_on_c, 0, 54, 93
1, 918813, Note_on_c, 0, 55, 75
1, 918847, Note_on_c, 0, 63, 45
1, 918849, Control_c, 0, 67, 12
1, 918849, Control_c, 1, 67, 12
1, 918866, Note_off_c, 0, 54, 60
1, 918880, Note_off_c, 0, 55, 62
1, 918885, Note_off_c, 0, 63, 34
1, 918890, Control_c, 0, 67, 16
1, 918890, Control_c, 1, 67, 16
1, 918906, Note_on_c, 0, 59, 73
1, 918948, Note_off_c, 0, 59, 64
1, 918973, Note_on_c, 0, 62, 65
1, 919000, Note_off_c, 0, 62, 62
1, 919055, Note_on_c, 0, 66, 86
1, 919065, Note_on_c, 0, 67, 80
1, 919082, Note_off_c, 0, 66, 73
1, 919143, Note_off_c, 0, 67, 59
1, 919149, Note_on_c, 0, 71, 67
1, 919216, Note_on_c, 0, 74, 76
1, 919218, Note_off_c, 0, 71, 63
1, 919264, Note_off_c, 0, 74, 63
1, 919306, Note_on_c, 0, 78, 85
1, 919329, Note_on_c, 0, 79, 76
1, 919330, Note_off_c, 0, 78, 74
1, 919417, Note_on_c, 0, 83, 75
1, 919421, Note_off_c, 0, 79, 60
1, 919491, Note_on_c, 0, 86, 72
1, 919509, Note_off_c, 0, 83, 62
1, 919561, Note_on_c, 0, 90, 90
1, 919562, Note_on_c, 0, 91, 78
1, 919575, Note_on_c, 0, 79, 69
1, 919590, Note_off_c, 0, 90, 65
1, 919593, Note_off_c, 0, 86, 52
1, 919644, Note_off_c, 0, 79, 54
1, 919668, Note_on_c, 0, 88, 70
1, 919670, Note_off_c, 0, 91, 41
1, 919741, Note_on_c, 0, 84, 70
1, 919769, Note_off_c, 0, 88, 63
1, 919799, Note_on_c, 0, 78, 81
1, 919800, Note_on_c, 0, 79, 75
1, 919808, Note_off_c, 0, 84, 64
1, 919832, Note_off_c, 0, 78, 65
1, 919860, Note_off_c, 0, 79, 64
1, 919915, Note_on_c, 0, 76, 75
1, 920011, Note_off_c, 0, 76, 61
1, 920013, Note_on_c, 0, 72, 73
1, 920047, Note_on_c, 0, 66, 69
1, 920048, Note_off_c, 0, 72, 63
1, 920053, Note_on_c, 0, 67, 70
1, 920074, Note_off_c, 0, 66, 45
1, 920088, Note_off_c, 0, 67, 67
1, 920107, Control_c, 0, 67, 22
1, 920107, Control_c, 1, 67, 22
1, 920125, Control_c, 1, 67, 28
1, 920125, Control_c, 0, 67, 28
1, 920145, Control_c, 0, 67, 34
1, 920145, Control_c, 1, 67, 34
1, 920155, Note_on_c, 0, 64, 63
1, 920164, Control_c, 0, 67, 41
1, 920164, Control_c, 1, 67, 41
1, 920181, Control_c, 1, 67, 48
1, 920181, Control_c, 0, 67, 48
1, 920200, Control_c, 0, 67, 54
1, 920200, Control_c, 1, 67, 54
1, 920219, Control_c, 1, 67, 59
1, 920219, Control_c, 0, 67, 59
1, 920223, Note_off_c, 0, 64, 61
1, 920256, Control_c, 0, 67, 65
1, 920256, Control_c, 1, 67, 65
1, 920303, Note_on_c, 0, 53, 86
1, 920306, Note_on_c, 0, 65, 83
1, 920320, Note_on_c, 0, 50, 57
1, 920322, Note_on_c, 0, 52, 53
1, 920357, Note_off_c, 0, 50, 57
1, 920357, Note_off_c, 0, 52, 55
1, 920363, Note_off_c, 0, 53, 54
1, 920419, Note_on_c, 0, 57, 71
1, 920444, Note_on_c, 0, 60, 55
1, 920454, Note_off_c, 0, 57, 67
1, 920484, Note_off_c, 0, 60, 64
1, 920496, Note_off_c, 0, 65, 59
1, 920569, Note_on_c, 0, 64, 79
1, 920580, Note_on_c, 0, 65, 72
1, 920584, Note_on_c, 0, 77, 78
1, 920591, Note_off_c, 0, 64, 69
1, 920638, Note_off_c, 0, 65, 50
1, 920686, Note_on_c, 0, 69, 69
1, 920706, Note_on_c, 0, 72, 59
1, 920717, Note_off_c, 0, 69, 67
1, 920719, Poly_aftertouch_c, 0, 76, 0
1, 920742, Note_off_c, 0, 72, 65
1, 920758, Note_off_c, 0, 77, 61
1, 920825, Note_on_c, 0, 76, 84
1, 920848, Note_on_c, 0, 89, 82
1, 920849, Note_on_c, 0, 77, 78
1, 920850, Note_off_c, 0, 76, 64
1, 920913, Note_on_c, 0, 86, 69
1, 920916, Note_off_c, 0, 89, 44
1, 920958, Note_on_c, 0, 82, 71
1, 920959, Note_off_c, 0, 77, 57
1, 920987, Note_off_c, 0, 86, 64
1, 921011, Note_off_c, 0, 82, 62
1, 921116, Control_c, 0, 67, 69
1, 921116, Control_c, 1, 67, 69
1, 921121, Note_on_c, 0, 51, 82
1, 921137, Control_c, 0, 67, 74
1, 921137, Control_c, 1, 67, 74
1, 921155, Note_off_c, 0, 51, 69
1, 921155, Control_c, 0, 67, 78
1, 921155, Control_c, 1, 67, 78
1, 921160, Note_on_c, 0, 64, 80
1, 921174, Note_on_c, 0, 65, 43
1, 921217, Note_off_c, 0, 65, 36
1, 921256, Note_on_c, 0, 56, 65
1, 921274, Note_on_c, 0, 59, 53
1, 921277, Poly_aftertouch_c, 0, 52, 0
1, 921286, Note_off_c, 0, 56, 65
1, 921316, Note_off_c, 0, 59, 64
1, 921334, Note_off_c, 0, 64, 58
1, 921398, Note_on_c, 0, 63, 86
1, 921421, Note_off_c, 0, 63, 64
1, 921421, Note_on_c, 0, 76, 74
1, 921446, Poly_aftertouch_c, 0, 64, 127
1, 921520, Poly_aftertouch_c, 0, 64, 0
1, 921559, Note_on_c, 0, 68, 21
1, 921560, Note_off_c, 0, 68, 127
1, 921588, Note_off_c, 0, 76, 47
1, 921654, Note_on_c, 0, 75, 84
1, 921673, Note_off_c, 0, 75, 72
1, 921680, Note_on_c, 0, 88, 87
1, 921690, Note_on_c, 0, 76, 75
1, 921763, Note_off_c, 0, 88, 58
1, 921773, Note_off_c, 0, 76, 34
1, 921773, Note_on_c, 0, 84, 71
1, 921803, Note_off_c, 0, 84, 70
1, 921812, Note_on_c, 0, 81, 57
1, 921836, Note_off_c, 0, 81, 62
1, 921921, Control_c, 0, 67, 82
1, 921921, Control_c, 1, 67, 82
1, 921952, Note_on_c, 0, 49, 77
1, 921959, Control_c, 0, 67, 88
1, 921959, Control_c, 1, 67, 88
1, 921975, Note_on_c, 0, 62, 79
1, 921986, Note_on_c, 0, 50, 69
1, 921989, Note_off_c, 0, 49, 64
1, 922015, Control_c, 0, 67, 92
1, 922015, Control_c, 1, 67, 92
1, 922029, Note_off_c, 0, 50, 58
1, 922084, Note_on_c, 0, 56, 41
1, 922104, Note_on_c, 0, 53, 34
1, 922129, Note_off_c, 0, 56, 36
1, 922153, Note_off_c, 0, 53, 34
1, 922154, Note_off_c, 0, 62, 59
1, 922228, Note_on_c, 0, 61, 68
1, 922229, Poly_aftertouch_c, 0, 57, 0
1, 922241, Note_on_c, 0, 74, 84
1, 922250, Note_on_c, 0, 62, 66
1, 922251, Note_off_c, 0, 61, 64
1, 922278, Control_c, 0, 67, 88
1, 922278, Control_c, 1, 67, 88
1, 922289, Note_off_c, 0, 62, 64
1, 922369, Note_on_c, 0, 69, 60
1, 922406, Note_off_c, 0, 69, 64
1, 922421, Note_off_c, 0, 74, 62
1, 922457, Poly_aftertouch_c, 0, 65, 0
1, 922485, Note_on_c, 0, 75, 86
1, 922509, Note_off_c, 0, 75, 73
1, 922513, Note_on_c, 0, 88, 81
1, 922523, Note_on_c, 0, 76, 62
1, 922611, Note_on_c, 0, 80, 68
1, 922615, Note_on_c, 0, 83, 64
1, 922619, Note_off_c, 0, 88, 56
1, 922643, Note_off_c, 0, 76, 27
1, 922648, Note_off_c, 0, 80, 63
1, 922648, Poly_aftertouch_c, 0, 80, 0
1, 922666, Note_off_c, 0, 83, 64
1, 922709, Control_c, 0, 67, 92
1, 922709, Control_c, 1, 67, 92
1, 922784, Control_c, 1, 67, 96
1, 922784, Control_c, 0, 67, 96
1, 922786, Note_on_c, 0, 54, 74
1, 922798, Note_on_c, 0, 69, 80
1, 922811, Note_on_c, 0, 57, 72
1, 922819, Note_off_c, 0, 54, 66
1, 922819, Control_c, 0, 67, 100
1, 922819, Control_c, 1, 67, 100
1, 922851, Note_off_c, 0, 57, 56
1, 922857, Control_c, 0, 67, 104
1, 922857, Control_c, 1, 67, 104
1, 922896, Control_c, 1, 67, 109
1, 922896, Control_c, 0, 67, 109
1, 922913, Note_on_c, 0, 60, 62
1, 922934, Control_c, 0, 67, 115
1, 922934, Control_c, 1, 67, 115
1, 922943, Note_off_c, 0, 60, 61
1, 922951, Note_on_c, 0, 64, 49
1, 922985, Note_off_c, 0, 64, 60
1, 922989, Note_off_c, 0, 69, 60
1, 923061, Note_on_c, 0, 68, 75
1, 923088, Note_on_c, 0, 81, 82
1, 923093, Note_off_c, 0, 68, 67
1, 923107, Note_on_c, 0, 69, 55
1, 923137, Note_off_c, 0, 69, 54
1, 923202, Poly_aftertouch_c, 0, 71, 0
1, 923206, Note_on_c, 0, 72, 64
1, 923218, Note_on_c, 0, 76, 58
1, 923233, Note_off_c, 0, 72, 63
1, 923260, Note_off_c, 0, 76, 63
1, 923279, Note_off_c, 0, 81, 60
1, 923385, Note_on_c, 0, 80, 74
1, 923411, Note_on_c, 0, 93, 67
1, 923418, Note_off_c, 0, 80, 72
1, 923418, Poly_aftertouch_c, 0, 80, 0
1, 923428, Note_on_c, 0, 81, 66
1, 923447, Note_off_c, 0, 93, 59
1, 923478, Poly_aftertouch_c, 0, 91, 0
1, 923492, Note_off_c, 0, 81, 49
1, 923496, Control_c, 0, 67, 122
1, 923496, Control_c, 1, 67, 122
1, 923514, Control_c, 1, 67, 127
1, 923514, Control_c, 0, 67, 127
1, 923766, Note_on_c, 0, 57, 62
1, 923781, Note_on_c, 0, 56, 73
1, 923814, Note_off_c, 0, 56, 67
1, 923825, Note_off_c, 0, 57, 60
1, 923841, Note_on_c, 0, 61, 66
1, 923870, Note_on_c, 0, 64, 54
1, 923877, Note_off_c, 0, 61, 65
1, 923924, Note_off_c, 0, 64, 64
1, 923985, Note_on_c, 0, 69, 62
1, 924000, Note_on_c, 0, 68, 84
1, 924023, Note_off_c, 0, 68, 73
1, 924083, Note_on_c, 0, 73, 75
1, 924108, Note_off_c, 0, 69, 60
1, 924130, Note_off_c, 0, 73, 64
1, 924165, Note_on_c, 0, 76, 58
1, 924188, Note_off_c, 0, 76, 62
1, 924234, Note_on_c, 0, 80, 89
1, 924253, Note_off_c, 0, 80, 64
1, 924253, Note_on_c, 0, 81, 60
1, 924253, Poly_aftertouch_c, 0, 80, 0
1, 924357, Note_on_c, 0, 85, 74
1, 924373, Note_off_c, 0, 81, 53
1, 924412, Note_on_c, 0, 88, 74
1, 924422, Note_off_c, 0, 85, 63
1, 924467, Note_on_c, 0, 93, 78
1, 924474, Note_on_c, 0, 92, 98
1, 924512, Note_off_c, 0, 88, 65
1, 924517, Note_on_c, 0, 81, 56
1, 924522, Note_off_c, 0, 92, 62
1, 924575, Note_off_c, 0, 81, 49
1, 924581, Note_off_c, 0, 93, 55
1, 924583, Note_on_c, 0, 89, 69
1, 924647, Note_on_c, 0, 86, 75
1, 924667, Note_off_c, 0, 89, 62
1, 924712, Note_on_c, 0, 81, 76
1, 924723, Note_off_c, 0, 86, 64
1, 924727, Note_on_c, 0, 80, 81
1, 924753, Note_off_c, 0, 80, 72
1, 924753, Poly_aftertouch_c, 0, 80, 0
1, 924768, Note_off_c, 0, 81, 62
1, 924824, Note_on_c, 0, 77, 75
1, 924922, Note_off_c, 0, 77, 60
1, 924927, Note_on_c, 0, 74, 67
1, 924969, Note_off_c, 0, 74, 62
1, 924972, Note_on_c, 0, 69, 72
1, 925001, Note_on_c, 0, 68, 23
1, 925001, Note_on_c, 0, 66, 28
1, 925002, Note_off_c, 0, 66, 127
1, 925005, Note_off_c, 0, 69, 63
1, 925041, Note_off_c, 0, 68, 32
1, 925119, Note_on_c, 0, 65, 30
1, 925123, Note_on_c, 0, 64, 38
1, 925164, Note_off_c, 0, 64, 50
1, 925165, Note_off_c, 0, 65, 45
1, 925217, Note_on_c, 0, 55, 69
1, 925233, Note_on_c, 0, 54, 50
1, 925234, Note_off_c, 0, 54, 127
1, 925281, Note_off_c, 0, 55, 60
1, 925321, Note_on_c, 0, 59, 56
1, 925347, Note_off_c, 0, 59, 59
1, 925372, Note_on_c, 0, 62, 62
1, 925407, Note_off_c, 0, 62, 63
1, 925456, Note_on_c, 0, 66, 76
1, 925479, Note_on_c, 0, 67, 69
1, 925480, Note_off_c, 0, 66, 71
1, 925545, Note_off_c, 0, 67, 50
1, 925556, Note_on_c, 0, 71, 76
1, 925599, Note_off_c, 0, 71, 63
1, 925651, Note_on_c, 0, 74, 37
1, 925692, Note_off_c, 0, 74, 37
1, 925718, Note_on_c, 0, 78, 73
1, 925724, Note_on_c, 0, 79, 72
1, 925748, Note_off_c, 0, 78, 70
1, 925816, Note_on_c, 0, 83, 77
1, 925822, Note_off_c, 0, 79, 61
1, 925893, Note_on_c, 0, 86, 64
1, 925895, Note_off_c, 0, 83, 62
1, 925958, Note_on_c, 0, 91, 71
1, 925964, Note_on_c, 0, 79, 60
1, 925964, Note_on_c, 0, 90, 81
1, 925991, Note_off_c, 0, 90, 71
1, 926004, Note_off_c, 0, 86, 62
1, 926052, Note_off_c, 0, 79, 47
1, 926070, Note_on_c, 0, 88, 66
1, 926080, Note_off_c, 0, 91, 36
1, 926132, Note_on_c, 0, 84, 70
1, 926165, Note_off_c, 0, 88, 63
1, 926197, Note_on_c, 0, 79, 76
1, 926198, Note_on_c, 0, 78, 80
1, 926201, Note_off_c, 0, 84, 63
1, 926230, Note_off_c, 0, 78, 67
1, 926251, Note_off_c, 0, 79, 64
1, 926317, Note_on_c, 0, 76, 66
1, 926402, Note_off_c, 0, 76, 62
1, 926406, Note_on_c, 0, 72, 68
1, 926439, Note_on_c, 0, 66, 76
1, 926441, Note_off_c, 0, 72, 63
1, 926454, Note_on_c, 0, 67, 64
1, 926468, Note_off_c, 0, 66, 70
1, 926487, Note_off_c, 0, 67, 66
1, 926559, Note_on_c, 0, 64, 62
1, 926634, Note_off_c, 0, 64, 61
1, 926635, Note_on_c, 0, 59, 8
1, 926636, Note_off_c, 0, 59, 127
1, 926691, Note_on_c, 0, 52, 82
1, 926702, Note_on_c, 0, 53, 80
1, 926715, Note_on_c, 0, 65, 73
1, 926719, Note_off_c, 0, 52, 67
1, 926736, Note_off_c, 0, 53, 59
1, 926836, Note_on_c, 0, 57, 53
1, 926870, Note_off_c, 0, 57, 57
1, 926887, Note_off_c, 0, 65, 61
1, 926966, Note_on_c, 0, 64, 70
1, 926971, Poly_aftertouch_c, 0, 60, 0
1, 926975, Note_on_c, 0, 77, 80
1, 926981, Note_on_c, 0, 65, 72
1, 926997, Note_on_c, 0, 76, 62
1, 926999, Note_off_c, 0, 64, 67
1, 927052, Note_off_c, 0, 65, 49
1, 927077, Note_off_c, 0, 76, 36
1, 927093, Note_on_c, 0, 69, 66
1, 927105, Note_on_c, 0, 72, 56
1, 927120, Note_off_c, 0, 69, 63
1, 927140, Note_off_c, 0, 77, 64
1, 927140, Note_on_c, 0, 77, 36
1, 927147, Note_off_c, 0, 72, 65
1, 927152, Note_off_c, 0, 77, 62
1, 927236, Note_on_c, 0, 76, 78
1, 927247, Note_on_c, 0, 89, 81
1, 927254, Note_off_c, 0, 76, 64
1, 927262, Note_on_c, 0, 77, 76
1, 927298, Note_off_c, 0, 77, 56
1, 927319, Note_off_c, 0, 89, 59
1, 927333, Note_on_c, 0, 86, 71
1, 927349, Poly_aftertouch_c, 0, 88, 0
1, 927369, Note_on_c, 0, 82, 71
1, 927382, Note_off_c, 0, 86, 64
1, 927403, Note_off_c, 0, 82, 66
1, 927536, Note_on_c, 0, 51, 85
1, 927563, Note_off_c, 0, 51, 71
1, 927564, Note_on_c, 0, 64, 80
1, 927594, Note_on_c, 0, 52, 57
1, 927622, Note_off_c, 0, 52, 58
1, 927668, Note_on_c, 0, 56, 68
1, 927702, Note_off_c, 0, 56, 66
1, 927708, Note_on_c, 0, 59, 39
1, 927742, Note_off_c, 0, 64, 55
1, 927747, Note_off_c, 0, 59, 38
1, 927810, Note_on_c, 0, 63, 84
1, 927829, Note_on_c, 0, 64, 62
1, 927837, Note_off_c, 0, 63, 72
1, 927844, Note_on_c, 0, 76, 61
1, 927907, Note_off_c, 0, 64, 57
1, 927938, Note_on_c, 0, 71, 54
1, 927962, Note_on_c, 0, 68, 36
1, 927974, Note_off_c, 0, 71, 65
1, 927982, Note_off_c, 0, 76, 60
1, 928006, Note_off_c, 0, 68, 50
1, 928084, Note_on_c, 0, 75, 74
1, 928095, Note_on_c, 0, 88, 72
1, 928101, Note_on_c, 0, 76, 70
1, 928110, Note_on_c, 0, 86, 61
1, 928114, Note_off_c, 0, 75, 69
1, 928151, Note_off_c, 0, 86, 46
1, 928164, Note_off_c, 0, 88, 60
1, 928178, Note_on_c, 0, 84, 70
1, 928202, Note_on_c, 0, 81, 58
1, 928204, Note_off_c, 0, 76, 58
1, 928205, Note_off_c, 0, 84, 70
1, 928225, Note_off_c, 0, 81, 60
1, 928368, Note_on_c, 0, 49, 68
1, 928387, Note_on_c, 0, 62, 73
1, 928396, Note_on_c, 0, 50, 74
1, 928406, Note_off_c, 0, 49, 66
1, 928431, Note_off_c, 0, 50, 66
1, 928475, Poly_aftertouch_c, 0, 60, 0
1, 928484, Note_on_c, 0, 60, 27
1, 928485, Note_off_c, 0, 60, 127
1, 928500, Note_on_c, 0, 53, 48
1, 928542, Note_off_c, 0, 53, 39
1, 928553, Note_off_c, 0, 62, 60
1, 928632, Note_on_c, 0, 61, 78
1, 928661, Note_off_c, 0, 61, 70
1, 928666, Note_on_c, 0, 74, 73
1, 928675, Note_on_c, 0, 62, 49
1, 928711, Note_off_c, 0, 62, 36
1, 928719, Note_on_c, 0, 64, 18
1, 928758, Note_on_c, 0, 65, 67
1, 928773, Note_off_c, 0, 64, 36
1, 928782, Note_on_c, 0, 69, 59
1, 928785, Note_off_c, 0, 65, 65
1, 928818, Note_off_c, 0, 69, 63
1, 928826, Note_off_c, 0, 74, 60
1, 928907, Note_on_c, 0, 75, 73
1, 928935, Note_on_c, 0, 88, 80
1, 928938, Note_off_c, 0, 75, 70
1, 928947, Note_on_c, 0, 76, 72
1, 928981, Note_off_c, 0, 76, 59
1, 929023, Note_off_c, 0, 88, 53
1, 929037, Note_on_c, 0, 83, 57
1, 929044, Note_on_c, 0, 80, 63
1, 929084, Note_off_c, 0, 80, 67
1, 929084, Poly_aftertouch_c, 0, 80, 0
1, 929087, Note_off_c, 0, 83, 62
1, 929205, Note_on_c, 0, 56, 73
1, 929230, Note_off_c, 0, 56, 61
1, 929239, Note_on_c, 0, 69, 78
1, 929254, Note_on_c, 0, 57, 70
1, 929294, Note_off_c, 0, 57, 62
1, 929386, Note_on_c, 0, 60, 31
1, 929387, Note_on_c, 0, 64, 49
1, 929417, Note_off_c, 0, 64, 57
1, 929418, Note_off_c, 0, 69, 58
1, 929437, Note_off_c, 0, 60, 33
1, 929487, Note_on_c, 0, 68, 78
1, 929517, Note_off_c, 0, 68, 70
1, 929527, Note_on_c, 0, 81, 83
1, 929539, Note_on_c, 0, 69, 70
1, 929564, Note_off_c, 0, 69, 61
1, 929664, Note_on_c, 0, 72, 59
1, 929702, Note_on_c, 0, 76, 51
1, 929704, Note_off_c, 0, 72, 62
1, 929740, Note_off_c, 0, 76, 64
1, 929756, Note_off_c, 0, 81, 60
1, 929871, Note_on_c, 0, 80, 66
1, 929904, Note_off_c, 0, 80, 70
1, 929904, Poly_aftertouch_c, 0, 80, 0
1, 929965, Note_on_c, 0, 93, 70
1, 929977, Note_on_c, 0, 81, 53
1, 930832, Control_c, 0, 64, 11
1, 930832, Control_c, 1, 64, 11
1, 930850, Control_c, 1, 64, 33
1, 930850, Control_c, 0, 64, 33
1, 930854, Note_on_c, 0, 57, 50
1, 930869, Control_c, 0, 64, 61
1, 930869, Control_c, 1, 64, 61
1, 930888, Control_c, 1, 64, 82
1, 930888, Control_c, 0, 64, 82
1, 930907, Control_c, 0, 64, 118
1, 930907, Control_c, 1, 64, 118
1, 930927, Control_c, 1, 64, 127
1, 930927, Control_c, 0, 64, 127
1, 930962, Note_off_c, 0, 93, 55
1, 930967, Note_off_c, 0, 81, 43
1, 930973, Note_off_c, 0, 57, 62
1, 931144, Note_on_c, 0, 72, 58
1, 931168, Note_on_c, 0, 93, 62
1, 931191, Note_off_c, 0, 93, 65
1, 931201, Note_off_c, 0, 72, 52
1, 931227, Control_c, 0, 64, 114
1, 931227, Control_c, 1, 64, 114
1, 931244, Control_c, 1, 64, 71
1, 931244, Control_c, 0, 64, 71
1, 931264, Control_c, 0, 64, 50
1, 931264, Control_c, 1, 64, 50
1, 931272, Note_on_c, 0, 64, 35
1, 931282, Control_c, 0, 64, 53
1, 931282, Control_c, 1, 64, 53
1, 931300, Control_c, 1, 64, 63
1, 931300, Control_c, 0, 64, 63
1, 931319, Note_on_c, 0, 57, 42
1, 931319, Control_c, 0, 64, 77
1, 931319, Control_c, 1, 64, 77
1, 931320, Note_off_c, 0, 64, 55
1, 931338, Control_c, 0, 64, 115
1, 931338, Control_c, 1, 64, 115
1, 931345, Note_on_c, 0, 96, 73
1, 931356, Control_c, 0, 64, 127
1, 931356, Control_c, 1, 64, 127
1, 931362, Note_off_c, 0, 57, 38
1, 931365, Note_on_c, 0, 84, 42
1, 931377, Note_off_c, 0, 96, 68
1, 931402, Note_off_c, 0, 84, 52
1, 931409, Note_on_c, 0, 74, 52
1, 931442, Note_off_c, 0, 74, 62
1, 931464, Note_on_c, 0, 76, 24
1, 931480, Note_on_c, 0, 65, 57
1, 931481, Note_off_c, 0, 76, 54
1, 931505, Note_on_c, 0, 95, 79
1, 931514, Note_on_c, 0, 83, 73
1, 931539, Note_off_c, 0, 95, 63
1, 931543, Note_off_c, 0, 83, 69
1, 931549, Note_on_c, 0, 57, 46
1, 931564, Note_off_c, 0, 65, 60
1, 931596, Note_off_c, 0, 57, 50
1, 931600, Control_c, 0, 64, 88
1, 931600, Control_c, 1, 64, 88
1, 931618, Control_c, 1, 64, 68
1, 931618, Control_c, 0, 64, 68
1, 931636, Control_c, 0, 64, 71
1, 931636, Control_c, 1, 64, 71
1, 931639, Note_on_c, 0, 75, 77
1, 931656, Control_c, 0, 64, 92
1, 931656, Control_c, 1, 64, 92
1, 931662, Poly_aftertouch_c, 0, 59, 0
1, 931674, Control_c, 0, 64, 127
1, 931674, Control_c, 1, 64, 127
1, 931676, Note_off_c, 0, 75, 65
1, 931679, Note_on_c, 0, 93, 75
1, 931687, Note_on_c, 0, 81, 65
1, 931707, Note_off_c, 0, 81, 64
1, 931708, Note_off_c, 0, 93, 73
1, 931733, Note_on_c, 0, 66, 52
1, 931747, Poly_aftertouch_c, 0, 63, 127
1, 931768, Control_c, 0, 64, 105
1, 931768, Control_c, 1, 64, 105
1, 931778, Note_off_c, 0, 66, 61
1, 931786, Control_c, 0, 64, 64
1, 931786, Control_c, 1, 64, 64
1, 931794, Poly_aftertouch_c, 0, 63, 0
1, 931805, Note_on_c, 0, 57, 46
1, 931805, Control_c, 0, 64, 36
1, 931805, Control_c, 1, 64, 36
1, 931843, Note_off_c, 0, 57, 51
1, 931843, Control_c, 0, 64, 60
1, 931843, Control_c, 1, 64, 60
1, 931850, Note_on_c, 0, 92, 81
1, 931858, Note_on_c, 0, 80, 76
1, 931862, Control_c, 0, 64, 89
1, 931862, Control_c, 1, 64, 89
1, 931864, Note_on_c, 0, 76, 82
1, 931880, Control_c, 0, 64, 127
1, 931880, Control_c, 1, 64, 127
1, 931889, Note_off_c, 0, 80, 76
1, 931889, Poly_aftertouch_c, 0, 80, 0
1, 931896, Note_off_c, 0, 92, 63
1, 931906, Note_on_c, 0, 66, 20
1, 931910, Note_on_c, 0, 63, 14
1, 931911, Note_off_c, 0, 76, 60
1, 931916, Poly_aftertouch_c, 0, 62, 0
1, 931965, Note_off_c, 0, 66, 44
1, 931976, Note_off_c, 0, 63, 49
1, 931981, Poly_aftertouch_c, 0, 64, 127
1, 932002, Poly_aftertouch_c, 0, 74, 0
1, 932019, Note_on_c, 0, 88, 79
1, 932021, Note_on_c, 0, 57, 59
1, 932030, Control_c, 0, 64, 108
1, 932030, Control_c, 1, 64, 108
1, 932039, Note_on_c, 0, 76, 55
1, 932048, Control_c, 0, 64, 64
1, 932048, Control_c, 1, 64, 64
1, 932051, Note_off_c, 0, 57, 59
1, 932061, Note_on_c, 0, 59, 44
1, 932062, Note_off_c, 0, 76, 59
1, 932063, Note_off_c, 0, 88, 64
1, 932067, Control_c, 0, 64, 37
1, 932067, Control_c, 1, 64, 37
1, 932076, Poly_aftertouch_c, 0, 64, 0
1, 932084, Control_c, 0, 64, 44
1, 932084, Control_c, 1, 64, 44
1, 932098, Note_off_c, 0, 59, 39
1, 932104, Note_on_c, 0, 74, 82
1, 932104, Control_c, 0, 64, 70
1, 932104, Control_c, 1, 64, 70
1, 932124, Control_c, 1, 64, 127
1, 932124, Control_c, 0, 64, 127
1, 932155, Note_off_c, 0, 74, 61
1, 932181, Note_on_c, 0, 64, 56
1, 932195, Note_on_c, 0, 90, 77
1, 932215, Note_on_c, 0, 78, 51
1, 932217, Control_c, 0, 64, 85
1, 932217, Control_c, 1, 64, 85
1, 932234, Note_off_c, 0, 90, 64
1, 932236, Control_c, 0, 64, 80
1, 932236, Control_c, 1, 64, 80
1, 932246, Note_off_c, 0, 78, 61
1, 932254, Control_c, 0, 64, 111
1, 932254, Control_c, 1, 64, 111
1, 932262, Note_on_c, 0, 57, 63
1, 932263, Poly_aftertouch_c, 0, 62, 127
1, 932273, Control_c, 0, 64, 127
1, 932273, Control_c, 1, 64, 127
1, 932286, Note_off_c, 0, 64, 59
1, 932290, Note_off_c, 0, 57, 62
1, 932320, Note_on_c, 0, 71, 73
1, 932356, Poly_aftertouch_c, 0, 62, 0
1, 932361, Note_on_c, 0, 92, 74
1, 932381, Note_off_c, 0, 71, 57
1, 932392, Note_on_c, 0, 80, 35
1, 932396, Note_off_c, 0, 92, 63
1, 932411, Note_on_c, 0, 64, 52
1, 932423, Control_c, 0, 64, 84
1, 932423, Control_c, 1, 64, 84
1, 932439, Note_off_c, 0, 80, 56
1, 932439, Poly_aftertouch_c, 0, 80, 0
1, 932442, Control_c, 0, 64, 46
1, 932442, Control_c, 1, 64, 46
1, 932453, Note_on_c, 0, 57, 58
1, 932461, Control_c, 0, 64, 22
1, 932461, Control_c, 1, 64, 22
1, 932479, Control_c, 1, 64, 27
1, 932479, Control_c, 0, 64, 27
1, 932496, Note_off_c, 0, 57, 63
1, 932499, Control_c, 0, 64, 50
1, 932499, Control_c, 1, 64, 50
1, 932508, Note_off_c, 0, 64, 61
1, 932517, Control_c, 0, 64, 89
1, 932517, Control_c, 1, 64, 89
1, 932536, Control_c, 1, 64, 127
1, 932536, Control_c, 0, 64, 127
1, 932542, Note_on_c, 0, 93, 80
1, 932543, Note_on_c, 0, 81, 75
1, 932544, Note_on_c, 0, 72, 80
1, 932568, Note_off_c, 0, 81, 70
1, 932569, Note_off_c, 0, 93, 64
1, 932571, Note_on_c, 0, 87, 33
1, 932572, Note_off_c, 0, 87, 127
1, 932595, Note_off_c, 0, 72, 57
1, 932607, Note_on_c, 0, 64, 59
1, 932620, Poly_aftertouch_c, 0, 62, 127
1, 932668, Control_c, 0, 64, 74
1, 932668, Control_c, 1, 64, 74
1, 932674, Note_on_c, 0, 57, 58
1, 932685, Control_c, 0, 64, 61
1, 932685, Control_c, 1, 64, 61
1, 932704, Control_c, 1, 64, 72
1, 932704, Control_c, 0, 64, 72
1, 932708, Note_on_c, 0, 96, 78
1, 932711, Note_off_c, 0, 57, 57
1, 932715, Note_on_c, 0, 84, 69
1, 932716, Note_off_c, 0, 64, 61
1, 932723, Control_c, 0, 64, 100
1, 932723, Control_c, 1, 64, 100
1, 932737, Note_off_c, 0, 96, 67
1, 932741, Control_c, 0, 64, 127
1, 932741, Control_c, 1, 64, 127
1, 932745, Note_off_c, 0, 84, 69
1, 932754, Note_on_c, 0, 74, 80
1, 932773, Poly_aftertouch_c, 0, 62, 0
1, 932788, Note_off_c, 0, 74, 57
1, 932817, Note_on_c, 0, 65, 51
1, 932884, Note_on_c, 0, 95, 73
1, 932887, Note_on_c, 0, 83, 71
1, 932892, Note_on_c, 0, 57, 59
1, 932911, Note_off_c, 0, 95, 67
1, 932916, Note_off_c, 0, 83, 70
1, 932916, Note_on_c, 0, 92, 26
1, 932925, Note_off_c, 0, 57, 57
1, 932933, Note_on_c, 0, 62, 24
1, 932935, Note_off_c, 0, 65, 61
1, 932946, Note_on_c, 0, 59, 38
1, 932947, Control_c, 0, 64, 68
1, 932947, Control_c, 1, 64, 68
1, 932966, Control_c, 1, 64, 48
1, 932966, Control_c, 0, 64, 48
1, 932971, Poly_aftertouch_c, 0, 61, 0
1, 932976, Note_off_c, 0, 92, 48
1, 932985, Control_c, 0, 64, 54
1, 932985, Control_c, 1, 64, 54
1, 932989, Note_off_c, 0, 59, 37
1, 932992, Note_off_c, 0, 62, 58
1, 933002, Note_on_c, 0, 75, 75
1, 933004, Control_c, 0, 64, 71
1, 933004, Control_c, 1, 64, 71
1, 933022, Control_c, 1, 64, 127
1, 933022, Control_c, 0, 64, 127
1, 933031, Note_on_c, 0, 63, 30
1, 933045, Note_on_c, 0, 93, 80
1, 933049, Note_on_c, 0, 81, 70
1, 933052, Note_off_c, 0, 75, 63
1, 933071, Note_off_c, 0, 93, 66
1, 933074, Note_off_c, 0, 81, 68
1, 933078, Note_off_c, 0, 63, 37
1, 933098, Note_on_c, 0, 66, 60
1, 933142, Note_off_c, 0, 66, 62
1, 933153, Control_c, 0, 64, 99
1, 933153, Control_c, 1, 64, 99
1, 933156, Note_on_c, 0, 57, 71
1, 933172, Control_c, 0, 64, 63
1, 933172, Control_c, 1, 64, 63
1, 933184, Note_on_c, 0, 62, 29
1, 933186, Note_off_c, 0, 57, 65
1, 933192, Control_c, 0, 64, 52
1, 933192, Control_c, 1, 64, 52
1, 933195, Note_on_c, 0, 64, 50
1, 933209, Control_c, 0, 64, 63
1, 933209, Control_c, 1, 64, 63
1, 933220, Note_on_c, 0, 92, 78
1, 933221, Note_on_c, 0, 80, 77
1, 933229, Note_off_c, 0, 62, 54
1, 933229, Control_c, 0, 64, 87
1, 933229, Control_c, 1, 64, 87
1, 933230, Note_off_c, 0, 64, 57
1, 933246, Note_on_c, 0, 76, 81
1, 933247, Note_off_c, 0, 80, 64
1, 933247, Poly_aftertouch_c, 0, 80, 0
1, 933247, Control_c, 0, 64, 127
1, 933247, Control_c, 1, 64, 127
1, 933253, Note_off_c, 0, 92, 67
1, 933272, Poly_aftertouch_c, 0, 61, 0
1, 933287, Note_on_c, 0, 63, 34
1, 933293, Note_off_c, 0, 76, 57
1, 933331, Note_off_c, 0, 63, 48
1, 933335, Note_on_c, 0, 64, 59
1, 933362, Poly_aftertouch_c, 0, 66, 127
1, 933385, Note_on_c, 0, 88, 75
1, 933391, Poly_aftertouch_c, 0, 66, 0
1, 933394, Note_on_c, 0, 76, 60
1, 933396, Control_c, 0, 64, 75
1, 933396, Control_c, 1, 64, 75
1, 933405, Note_on_c, 0, 57, 65
1, 933414, Control_c, 0, 64, 44
1, 933414, Control_c, 1, 64, 44
1, 933422, Note_off_c, 0, 76, 59
1, 933423, Note_off_c, 0, 88, 62
1, 933430, Note_off_c, 0, 57, 65
1, 933434, Control_c, 0, 64, 42
1, 933434, Control_c, 1, 64, 42
1, 933453, Control_c, 1, 64, 62
1, 933453, Control_c, 0, 64, 62
1, 933460, Note_off_c, 0, 64, 61
1, 933472, Control_c, 0, 64, 107
1, 933472, Control_c, 1, 64, 107
1, 933490, Control_c, 1, 64, 127
1, 933490, Control_c, 0, 64, 127
1, 933498, Note_on_c, 0, 74, 77
1, 933533, Poly_aftertouch_c, 0, 62, 0
1, 933543, Note_off_c, 0, 74, 52
1, 933546, Note_on_c, 0, 90, 80
1, 933549, Poly_aftertouch_c, 0, 59, 0
1, 933557, Note_on_c, 0, 78, 67
1, 933565, Note_on_c, 0, 64, 62
1, 933581, Note_off_c, 0, 78, 66
1, 933584, Control_c, 0, 64, 102
1, 933584, Control_c, 1, 64, 102
1, 933602, Note_off_c, 0, 90, 60
1, 933602, Control_c, 0, 64, 63
1, 933602, Control_c, 1, 64, 63
1, 933621, Control_c, 1, 64, 42
1, 933621, Control_c, 0, 64, 42
1, 933639, Control_c, 0, 64, 50
1, 933639, Control_c, 1, 64, 50
1, 933659, Control_c, 1, 64, 75
1, 933659, Control_c, 0, 64, 75
1, 933667, Note_off_c, 0, 64, 58
1, 933675, Note_on_c, 0, 57, 33
1, 933677, Control_c, 0, 64, 127
1, 933677, Control_c, 1, 64, 127
1, 933692, Note_on_c, 0, 71, 73
1, 933712, Note_on_c, 0, 92, 74
1, 933727, Note_on_c, 0, 59, 13
1, 933728, Note_off_c, 0, 57, 49
1, 933737, Note_on_c, 0, 80, 44
1, 933745, Note_on_c, 0, 64, 53
1, 933756, Poly_aftertouch_c, 0, 62, 0
1, 933757, Note_off_c, 0, 92, 57
1, 933761, Note_off_c, 0, 71, 60
1, 933770, Note_off_c, 0, 80, 59
1, 933770, Poly_aftertouch_c, 0, 80, 0
1, 933795, Note_off_c, 0, 59, 30
1, 933811, Note_off_c, 0, 64, 57
1, 933826, Note_on_c, 0, 57, 64
1, 933868, Note_off_c, 0, 57, 66
1, 933903, Control_c, 0, 64, 69
1, 933903, Control_c, 1, 64, 69
1, 933916, Note_on_c, 0, 93, 63
1, 933922, Control_c, 0, 64, 38
1, 933922, Control_c, 1, 64, 38
1, 933941, Control_c, 1, 64, 33
1, 933941, Note_on_c, 0, 60, 72
1, 933941, Control_c, 0, 64, 33
1, 933958, Control_c, 0, 64, 45
1, 933958, Control_c, 1, 64, 45
1, 933975, Note_off_c, 0, 93, 63
1, 933976, Control_c, 0, 64, 75
1, 933976, Control_c, 1, 64, 75
1, 933985, Note_on_c, 0, 81, 50
1, 933997, Control_c, 0, 64, 127
1, 933997, Control_c, 1, 64, 127
1, 933998, Note_off_c, 0, 60, 57
1, 934018, Note_off_c, 0, 81, 59
1, 934033, Note_on_c, 0, 52, 48
1, 934070, Poly_aftertouch_c, 0, 51, 127
1, 934081, Note_on_c, 0, 45, 71
1, 934095, Note_on_c, 0, 96, 81
1, 934096, Note_off_c, 0, 52, 53
1, 934108, Poly_aftertouch_c, 0, 51, 0
1, 934108, Control_c, 0, 64, 109
1, 934108, Control_c, 1, 64, 109
1, 934119, Note_off_c, 0, 45, 61
1, 934126, Control_c, 0, 64, 67
1, 934126, Control_c, 1, 64, 67
1, 934133, Note_off_c, 0, 96, 58
1, 934147, Control_c, 0, 64, 54
1, 934147, Control_c, 1, 64, 54
1, 934160, Note_on_c, 0, 84, 69
1, 934163, Control_c, 0, 64, 66
1, 934163, Control_c, 1, 64, 66
1, 934180, Note_on_c, 0, 62, 70
1, 934182, Control_c, 0, 64, 100
1, 934182, Control_c, 1, 64, 100
1, 934202, Control_c, 1, 64, 127
1, 934202, Control_c, 0, 64, 127
1, 934219, Note_off_c, 0, 84, 60
1, 934222, Note_off_c, 0, 62, 59
1, 934227, Poly_aftertouch_c, 0, 47, 0
1, 934241, Note_on_c, 0, 53, 60
1, 934244, Note_on_c, 0, 95, 83
1, 934258, Control_c, 0, 64, 95
1, 934258, Control_c, 1, 64, 95
1, 934277, Control_c, 1, 64, 65
1, 934277, Control_c, 0, 64, 65
1, 934294, Control_c, 0, 64, 59
1, 934294, Control_c, 1, 64, 59
1, 934301, Note_on_c, 0, 45, 66
1, 934302, Note_off_c, 0, 95, 65
1, 934310, Poly_aftertouch_c, 0, 60, 0
1, 934313, Control_c, 0, 64, 73
1, 934313, Control_c, 1, 64, 73
1, 934324, Note_off_c, 0, 53, 48
1, 934333, Control_c, 0, 64, 114
1, 934333, Control_c, 1, 64, 114
1, 934334, Note_off_c, 0, 45, 60
1, 934345, Note_on_c, 0, 83, 71
1, 934348, Note_on_c, 0, 47, 34
1, 934350, Control_c, 0, 64, 127
1, 934350, Control_c, 1, 64, 127
1, 934364, Note_off_c, 0, 47, 64
1, 934385, Note_off_c, 0, 83, 62
1, 934402, Note_on_c, 0, 63, 81
1, 934421, Note_on_c, 0, 93, 76
1, 934456, Note_off_c, 0, 63, 61
1, 934466, Poly_aftertouch_c, 0, 50, 0
1, 934470, Note_off_c, 0, 93, 60
1, 934479, Note_on_c, 0, 91, 14
1, 934480, Note_off_c, 0, 91, 127
1, 934509, Note_on_c, 0, 54, 65
1, 934510, Note_on_c, 0, 81, 73
1, 934520, Control_c, 0, 64, 73
1, 934520, Control_c, 1, 64, 73
1, 934539, Control_c, 1, 64, 22
1, 934539, Control_c, 0, 64, 22
1, 934558, Control_c, 0, 64, 0
1, 934558, Control_c, 1, 64, 0
1, 934561, Note_on_c, 0, 45, 50
1, 934564, Note_off_c, 0, 54, 56
1, 934573, Note_off_c, 0, 81, 61
1, 934582, Note_on_c, 0, 50, 37
1, 934584, Note_on_c, 0, 49, 12
1, 934593, Note_off_c, 0, 45, 57
1, 934594, Control_c, 0, 64, 45
1, 934594, Control_c, 1, 64, 45
1, 934603, Note_on_c, 0, 92, 88
1, 934613, Control_c, 0, 64, 127
1, 934613, Control_c, 1, 64, 127
1, 934620, Note_on_c, 0, 64, 87
1, 934628, Note_off_c, 0, 50, 48
1, 934630, Poly_aftertouch_c, 0, 52, 127
1, 934657, Note_off_c, 0, 49, 28
1, 934664, Note_off_c, 0, 92, 65
1, 934669, Poly_aftertouch_c, 0, 47, 0
1, 934672, Note_off_c, 0, 64, 57
1, 934689, Note_on_c, 0, 80, 83
1, 934741, Note_off_c, 0, 80, 63
1, 934741, Poly_aftertouch_c, 0, 80, 0
1, 934745, Poly_aftertouch_c, 0, 54, 0
1, 934760, Note_on_c, 0, 49, 56
1, 934780, Note_on_c, 0, 45, 60
1, 934781, Control_c, 0, 64, 106
1, 934781, Control_c, 1, 64, 106
1, 934790, Note_on_c, 0, 88, 78
1, 934801, Control_c, 0, 64, 60
1, 934801, Control_c, 1, 64, 60
1, 934808, Note_off_c, 0, 45, 58
1, 934814, Note_on_c, 0, 47, 44
1, 934819, Poly_aftertouch_c, 0, 52, 0
1, 934819, Control_c, 0, 64, 37
1, 934819, Control_c, 1, 64, 37
1, 934833, Note_off_c, 0, 49, 56
1, 934840, Control_c, 0, 64, 43
1, 934840, Control_c, 1, 64, 43
1, 934852, Note_on_c, 0, 62, 81
1, 934854, Note_off_c, 0, 47, 49
1, 934856, Control_c, 0, 64, 72
1, 934856, Control_c, 1, 64, 72
1, 934865, Note_off_c, 0, 88, 62
1, 934876, Control_c, 0, 64, 127
1, 934876, Control_c, 1, 64, 127
1, 934883, Note_on_c, 0, 76, 68
1, 934913, Note_off_c, 0, 76, 68
1, 934916, Note_off_c, 0, 62, 60
1, 934932, Control_c, 0, 64, 103
1, 934932, Control_c, 1, 64, 103
1, 934942, Note_on_c, 0, 52, 55
1, 934950, Control_c, 0, 64, 67
1, 934950, Control_c, 1, 64, 67
1, 934968, Control_c, 1, 64, 46
1, 934968, Control_c, 0, 64, 46
1, 934970, Note_on_c, 0, 90, 84
1, 934988, Control_c, 0, 64, 57
1, 934988, Control_c, 1, 64, 57
1, 934992, Note_on_c, 0, 45, 66
1, 935007, Control_c, 0, 64, 88
1, 935007, Control_c, 1, 64, 88
1, 935025, Control_c, 1, 64, 127
1, 935025, Control_c, 0, 64, 127
1, 935039, Note_off_c, 0, 90, 65
1, 935042, Note_off_c, 0, 45, 56
1, 935062, Note_on_c, 0, 59, 81
1, 935075, Note_on_c, 0, 78, 62
1, 935076, Note_off_c, 0, 52, 54
1, 935108, Note_off_c, 0, 78, 65
1, 935111, Poly_aftertouch_c, 0, 50, 0
1, 935117, Poly_aftertouch_c, 0, 47, 127
1, 935132, Note_off_c, 0, 59, 60
1, 935145, Poly_aftertouch_c, 0, 47, 0
1, 935150, Note_on_c, 0, 92, 78
1, 935175, Control_c, 0, 64, 119
1, 935175, Control_c, 1, 64, 119
1, 935194, Control_c, 1, 64, 59
1, 935194, Control_c, 0, 64, 59
1, 935201, Note_off_c, 0, 92, 61
1, 935204, Note_on_c, 0, 52, 38
1, 935204, Note_on_c, 0, 45, 66
1, 935212, Control_c, 0, 64, 10
1, 935212, Control_c, 1, 64, 10
1, 935235, Note_on_c, 0, 80, 71
1, 935247, Note_off_c, 0, 45, 58
1, 935250, Control_c, 0, 64, 18
1, 935250, Control_c, 1, 64, 18
1, 935264, Note_off_c, 0, 52, 58
1, 935268, Control_c, 0, 64, 59
1, 935268, Control_c, 1, 64, 59
1, 935278, Note_off_c, 0, 80, 65
1, 935278, Poly_aftertouch_c, 0, 80, 0
1, 935285, Note_on_c, 0, 60, 82
1, 935286, Control_c, 0, 64, 127
1, 935286, Control_c, 1, 64, 127
1, 935298, Note_on_c, 0, 93, 82
1, 935348, Note_off_c, 0, 60, 61
1, 935358, Poly_aftertouch_c, 0, 47, 0
1, 935359, Note_on_c, 0, 50, 8
1, 935359, Poly_aftertouch_c, 0, 51, 0
1, 935365, Note_off_c, 0, 93, 62
1, 935369, Note_on_c, 0, 52, 69
1, 935396, Note_on_c, 0, 81, 71
1, 935419, Note_on_c, 0, 45, 66
1, 935444, Note_off_c, 0, 81, 62
1, 935447, Note_off_c, 0, 45, 61
1, 935456, Control_c, 0, 64, 76
1, 935456, Control_c, 1, 64, 76
1, 935476, Control_c, 1, 64, 43
1, 935476, Control_c, 0, 64, 43
1, 935491, Note_off_c, 0, 52, 58
1, 935493, Control_c, 0, 64, 38
1, 935493, Control_c, 1, 64, 38
1, 935500, Note_on_c, 0, 62, 80
1, 935512, Note_on_c, 0, 96, 74
1, 935512, Control_c, 0, 64, 56
1, 935512, Control_c, 1, 64, 56
1, 935525, Note_off_c, 0, 50, 19
1, 935531, Control_c, 0, 64, 94
1, 935531, Control_c, 1, 64, 94
1, 935549, Control_c, 1, 64, 127
1, 935549, Control_c, 0, 64, 127
1, 935560, Note_off_c, 0, 62, 60
1, 935562, Note_on_c, 0, 53, 68
1, 935570, Note_off_c, 0, 96, 64
1, 935579, Note_on_c, 0, 84, 73
1, 935639, Note_off_c, 0, 84, 62
1, 935643, Note_on_c, 0, 45, 64
1, 935660, Note_on_c, 0, 47, 59
1, 935667, Note_on_c, 0, 95, 84
1, 935670, Note_off_c, 0, 45, 62
1, 935688, Note_on_c, 0, 50, 46
1, 935696, Control_c, 0, 64, 72
1, 935696, Control_c, 1, 64, 72
1, 935698, Note_off_c, 0, 47, 65
1, 935703, Note_off_c, 0, 53, 30
1, 935718, Control_c, 0, 64, 47
1, 935718, Control_c, 1, 64, 47
1, 935720, Note_off_c, 0, 95, 61
1, 935728, Note_off_c, 0, 50, 58
1, 935735, Control_c, 0, 64, 51
1, 935735, Control_c, 1, 64, 51
1, 935738, Note_on_c, 0, 63, 77
1, 935750, Note_on_c, 0, 83, 70
1, 935754, Control_c, 0, 64, 73
1, 935754, Control_c, 1, 64, 73
1, 935773, Control_c, 1, 64, 127
1, 935773, Control_c, 0, 64, 127
1, 935785, Note_off_c, 0, 63, 62
1, 935791, Note_off_c, 0, 83, 61
1, 935813, Note_on_c, 0, 93, 86
1, 935838, Note_on_c, 0, 54, 59
1, 935868, Note_off_c, 0, 93, 64
1, 935882, Note_on_c, 0, 45, 66
1, 935885, Note_on_c, 0, 50, 41
1, 935886, Note_on_c, 0, 52, 37
1, 935900, Note_off_c, 0, 54, 52
1, 935904, Control_c, 0, 64, 77
1, 935904, Control_c, 1, 64, 77
1, 935908, Note_on_c, 0, 81, 73
1, 935918, Note_off_c, 0, 45, 64
1, 935922, Note_on_c, 0, 49, 12
1, 935924, Control_c, 0, 64, 38
1, 935924, Control_c, 1, 64, 38
1, 935942, Control_c, 1, 64, 30
1, 935942, Control_c, 0, 64, 30
1, 935952, Note_off_c, 0, 50, 62
1, 935954, Note_off_c, 0, 81, 62
1, 935960, Control_c, 0, 64, 50
1, 935960, Control_c, 1, 64, 50
1, 935961, Note_off_c, 0, 52, 61
1, 935970, Note_on_c, 0, 64, 82
1, 935983, Control_c, 0, 64, 96
1, 935983, Control_c, 1, 64, 96
1, 935996, Note_on_c, 0, 92, 77
1, 935999, Note_off_c, 0, 49, 26
1, 936002, Control_c, 0, 64, 127
1, 936002, Control_c, 1, 64, 127
1, 936015, Note_off_c, 0, 64, 56
1, 936018, Note_on_c, 0, 62, 30
1, 936022, Note_on_c, 0, 54, 11
1, 936045, Note_on_c, 0, 52, 43
1, 936061, Note_off_c, 0, 62, 51
1, 936067, Note_off_c, 0, 92, 61
1, 936080, Note_on_c, 0, 80, 81
1, 936108, Note_off_c, 0, 54, 43
1, 936118, Poly_aftertouch_c, 0, 51, 0
1, 936130, Note_on_c, 0, 45, 56
1, 936142, Note_off_c, 0, 80, 63
1, 936142, Poly_aftertouch_c, 0, 80, 0
1, 936155, Note_on_c, 0, 47, 49
1, 936164, Note_off_c, 0, 45, 57
1, 936166, Control_c, 0, 64, 108
1, 936166, Control_c, 1, 64, 108
1, 936179, Note_on_c, 0, 88, 80
1, 936181, Note_off_c, 0, 52, 56
1, 936185, Control_c, 0, 64, 60
1, 936185, Control_c, 1, 64, 60
1, 936191, Note_off_c, 0, 47, 56
1, 936205, Control_c, 0, 64, 24
1, 936205, Control_c, 1, 64, 24
1, 936208, Note_on_c, 0, 60, 63
1, 936208, Note_on_c, 0, 62, 67
1, 936223, Control_c, 0, 64, 20
1, 936223, Control_c, 1, 64, 20
1, 936230, Poly_aftertouch_c, 0, 50, 0
1, 936241, Control_c, 0, 64, 34
1, 936241, Control_c, 1, 64, 34
1, 936242, Note_off_c, 0, 62, 64
1, 936256, Note_on_c, 0, 76, 65
1, 936259, Note_off_c, 0, 88, 64
1, 936260, Control_c, 0, 64, 68
1, 936260, Control_c, 1, 64, 68
1, 936278, Note_off_c, 0, 60, 56
1, 936280, Control_c, 0, 64, 127
1, 936280, Control_c, 1, 64, 127
1, 936291, Note_on_c, 0, 52, 60
1, 936297, Note_off_c, 0, 76, 62
1, 936316, Control_c, 0, 67, 121
1, 936316, Control_c, 1, 67, 121
1, 936359, Note_on_c, 0, 90, 81
1, 936363, Note_on_c, 0, 45, 58
1, 936373, Control_c, 0, 64, 81
1, 936373, Control_c, 1, 64, 81
1, 936392, Control_c, 1, 64, 69
1, 936392, Control_c, 0, 64, 69
1, 936398, Note_off_c, 0, 45, 54
1, 936410, Note_off_c, 0, 90, 59
1, 936411, Control_c, 0, 64, 82
1, 936411, Control_c, 1, 64, 82
1, 936412, Note_off_c, 0, 52, 53
1, 936422, Note_on_c, 0, 50, 17
1, 936423, Note_on_c, 0, 59, 72
1, 936427, Control_c, 0, 64, 127
1, 936427, Control_c, 1, 64, 127
1, 936453, Note_on_c, 0, 78, 72
1, 936478, Note_off_c, 0, 78, 67
1, 936487, Note_off_c, 0, 59, 61
1, 936493, Poly_aftertouch_c, 0, 47, 0
1, 936508, Note_on_c, 0, 52, 43
1, 936511, Note_off_c, 0, 50, 40
1, 936521, Note_on_c, 0, 92, 78
1, 936559, Control_c, 0, 67, 114
1, 936559, Control_c, 1, 67, 114
1, 936579, Control_c, 1, 64, 118
1, 936579, Control_c, 0, 64, 118
1, 936598, Control_c, 0, 64, 64
1, 936598, Control_c, 1, 64, 64
1, 936600, Control_c, 1, 67, 110
1, 936600, Note_on_c, 0, 45, 63
1, 936600, Control_c, 0, 67, 110
1, 936604, Note_on_c, 0, 80, 71
1, 936617, Note_off_c, 0, 52, 60
1, 936617, Control_c, 0, 64, 21
1, 936617, Control_c, 1, 64, 21
1, 936631, Note_off_c, 0, 92, 58
1, 936661, Note_on_c, 0, 57, 79
1, 936669, Note_off_c, 0, 80, 63
1, 936669, Poly_aftertouch_c, 0, 80, 0
1, 936672, Control_c, 0, 64, 35
1, 936672, Control_c, 1, 64, 35
1, 936676, Note_on_c, 0, 93, 89
1, 936690, Control_c, 0, 64, 83
1, 936690, Control_c, 1, 64, 83
1, 936700, Note_off_c, 0, 45, 59
1, 936710, Control_c, 0, 64, 127
1, 936710, Control_c, 1, 64, 127
1, 936719, Note_off_c, 0, 57, 62
1, 936719, Poly_aftertouch_c, 0, 47, 0
1, 936728, Control_c, 0, 67, 103
1, 936728, Control_c, 1, 67, 103
1, 936748, Control_c, 1, 67, 98
1, 936748, Control_c, 0, 67, 98
1, 936766, Control_c, 0, 67, 92
1, 936766, Control_c, 1, 67, 92
1, 936775, Note_on_c, 0, 85, 81
1, 936784, Control_c, 0, 67, 85
1, 936784, Control_c, 1, 67, 85
1, 936788, Note_off_c, 0, 93, 56
1, 936804, Control_c, 0, 67, 79
1, 936804, Control_c, 1, 67, 79
1, 936822, Control_c, 1, 67, 74
1, 936822, Control_c, 0, 67, 74
1, 936836, Note_on_c, 0, 81, 67
1, 936838, Note_on_c, 0, 61, 82
1, 936840, Control_c, 0, 64, 78
1, 936840, Control_c, 1, 64, 78
1, 936847, Note_off_c, 0, 85, 65
1, 936850, Note_on_c, 0, 49, 72
1, 936859, Control_c, 0, 64, 35
1, 936859, Control_c, 1, 64, 35
1, 936869, Note_off_c, 0, 61, 66
1, 936878, Control_c, 0, 64, 15
1, 936878, Control_c, 1, 64, 15
1, 936885, Note_off_c, 0, 49, 68
1, 936897, Control_c, 0, 64, 30
1, 936897, Control_c, 1, 64, 30
1, 936904, Note_off_c, 0, 81, 60
1, 936909, Note_on_c, 0, 91, 82
1, 936916, Control_c, 0, 64, 67
1, 936916, Control_c, 1, 64, 67
1, 936917, Control_c, 1, 67, 68
1, 936917, Control_c, 0, 67, 68
1, 936935, Control_c, 0, 64, 127
1, 936935, Control_c, 1, 64, 127
1, 936953, Control_c, 1, 67, 60
1, 936953, Control_c, 0, 67, 60
1, 936972, Control_c, 0, 64, 116
1, 936972, Control_c, 1, 64, 116
1, 936973, Control_c, 1, 67, 56
1, 936973, Control_c, 0, 67, 56
1, 936980, Note_on_c, 0, 59, 85
1, 936985, Note_on_c, 0, 86, 83
1, 936986, Note_on_c, 0, 47, 82
1, 936992, Control_c, 0, 64, 63
1, 936992, Control_c, 1, 64, 63
1, 937009, Control_c, 1, 64, 36
1, 937009, Control_c, 0, 64, 36
1, 937010, Control_c, 0, 67, 51
1, 937010, Control_c, 1, 67, 51
1, 937016, Note_off_c, 0, 59, 61
1, 937016, Note_on_c, 0, 49, 48
1, 937033, Note_off_c, 0, 47, 59
1, 937036, Note_off_c, 0, 91, 55
1, 937047, Control_c, 0, 64, 46
1, 937047, Control_c, 1, 64, 46
1, 937048, Control_c, 1, 67, 45
1, 937048, Control_c, 0, 67, 45
1, 937055, Note_off_c, 0, 49, 36
1, 937057, Note_off_c, 0, 86, 65
1, 937057, Note_on_c, 0, 81, 69
1, 937066, Control_c, 0, 64, 66
1, 937066, Control_c, 1, 64, 66
1, 937085, Control_c, 1, 64, 63
1, 937085, Control_c, 0, 64, 63
1, 937103, Control_c, 0, 64, 41
1, 937103, Control_c, 1, 64, 41
1, 937121, Note_on_c, 0, 88, 83
1, 937129, Note_on_c, 0, 57, 88
1, 937131, Note_on_c, 0, 45, 88
1, 937139, Control_c, 0, 64, 0
1, 937139, Control_c, 1, 64, 0
1, 937152, Note_off_c, 0, 81, 62
1, 937175, Note_off_c, 0, 57, 64
1, 937177, Control_c, 0, 64, 31
1, 937177, Control_c, 1, 64, 31
1, 937184, Note_off_c, 0, 45, 62
1, 937197, Control_c, 0, 64, 69
1, 937197, Control_c, 1, 64, 69
1, 937198, Control_c, 1, 67, 40
1, 937198, Control_c, 0, 67, 40
1, 937212, Note_on_c, 0, 85, 80
1, 937216, Control_c, 0, 64, 127
1, 937216, Control_c, 1, 64, 127
1, 937237, Note_off_c, 0, 88, 64
1, 937252, Control_c, 0, 64, 108
1, 937252, Control_c, 1, 64, 108
1, 937257, Note_on_c, 0, 79, 80
1, 937270, Poly_aftertouch_c, 0, 47, 0
1, 937271, Control_c, 0, 64, 46
1, 937271, Control_c, 1, 64, 46
1, 937283, Note_off_c, 0, 85, 65
1, 937290, Control_c, 0, 64, 0
1, 937290, Control_c, 1, 64, 0
1, 937299, Note_on_c, 0, 62, 93
1, 937306, Note_on_c, 0, 50, 92
1, 937308, Control_c, 0, 67, 36
1, 937308, Control_c, 1, 67, 36
1, 937322, Note_off_c, 0, 79, 58
1, 937332, Note_on_c, 0, 89, 88
1, 937348, Control_c, 0, 64, 17
1, 937348, Control_c, 0, 67, 29
1, 937348, Control_c, 1, 64, 17
1, 937348, Control_c, 1, 67, 29
1, 937349, Note_off_c, 0, 62, 65
1, 937365, Control_c, 0, 64, 63
1, 937365, Control_c, 1, 64, 63
1, 937369, Note_off_c, 0, 50, 65
1, 937384, Control_c, 0, 64, 127
1, 937384, Control_c, 1, 64, 127
1, 937386, Control_c, 1, 67, 25
1, 937386, Control_c, 0, 67, 25
1, 937421, Control_c, 0, 67, 21
1, 937421, Control_c, 1, 67, 21
1, 937435, Note_on_c, 0, 81, 83
1, 937436, Note_off_c, 0, 89, 62
1, 937439, Control_c, 0, 67, 16
1, 937439, Control_c, 1, 67, 16
1, 937459, Control_c, 1, 64, 116
1, 937459, Control_c, 0, 64, 116
1, 937474, Note_on_c, 0, 57, 81
1, 937477, Control_c, 0, 64, 63
1, 937477, Control_c, 1, 64, 63
1, 937480, Control_c, 1, 67, 12
1, 937480, Note_on_c, 0, 45, 78
1, 937480, Control_c, 0, 67, 12
1, 937492, Note_on_c, 0, 77, 68
1, 937499, Note_off_c, 0, 81, 63
1, 937503, Note_off_c, 0, 57, 64
1, 937514, Control_c, 0, 64, 0
1, 937514, Control_c, 1, 64, 0
1, 937523, Note_off_c, 0, 45, 62
1, 937563, Note_on_c, 0, 85, 77
1, 937583, Note_off_c, 0, 77, 56
1, 937644, Note_on_c, 0, 41, 69
1, 937644, Note_on_c, 0, 79, 78
1, 937655, Note_on_c, 0, 53, 63
1, 937685, Note_off_c, 0, 41, 63
1, 937686, Note_off_c, 0, 53, 60
1, 937688, Note_off_c, 0, 85, 60
1, 937717, Note_off_c, 0, 79, 62
1, 937730, Note_on_c, 0, 76, 34
1, 937754, Note_on_c, 0, 86, 78
1, 937777, Control_c, 0, 64, 22
1, 937777, Control_c, 1, 64, 22
1, 937779, Note_off_c, 0, 76, 34
1, 937795, Control_c, 0, 64, 55
1, 937795, Control_c, 1, 64, 55
1, 937813, Control_c, 1, 64, 88
1, 937813, Control_c, 0, 64, 88
1, 937816, Note_on_c, 0, 38, 69
1, 937821, Note_on_c, 0, 50, 60
1, 937832, Control_c, 0, 64, 127
1, 937832, Control_c, 1, 64, 127
1, 937847, Note_off_c, 0, 86, 63
1, 937850, Note_off_c, 0, 50, 60
1, 937853, Note_on_c, 0, 77, 70
1, 937856, Note_off_c, 0, 38, 62
1, 937870, Control_c, 0, 64, 115
1, 937870, Control_c, 1, 64, 115
1, 937872, Note_on_c, 0, 74, 66
1, 937882, Note_off_c, 0, 77, 66
1, 937890, Control_c, 0, 64, 69
1, 937890, Control_c, 1, 64, 69
1, 937904, Note_off_c, 0, 74, 65
1, 937907, Control_c, 0, 64, 31
1, 937907, Control_c, 1, 64, 31
1, 937926, Control_c, 1, 64, 0
1, 937926, Control_c, 0, 64, 0
1, 937964, Control_c, 0, 64, 14
1, 937964, Control_c, 1, 64, 14
1, 937982, Control_c, 1, 64, 40
1, 937982, Control_c, 0, 64, 40
1, 937994, Note_on_c, 0, 91, 78
1, 937999, Note_on_c, 0, 43, 69
1, 938002, Control_c, 0, 64, 72
1, 938002, Control_c, 1, 64, 72
1, 938006, Note_on_c, 0, 55, 53
1, 938018, Note_on_c, 0, 89, 61
1, 938020, Control_c, 0, 64, 105
1, 938020, Control_c, 1, 64, 105
1, 938037, Note_off_c, 0, 43, 64
1, 938038, Note_off_c, 0, 55, 57
1, 938039, Control_c, 0, 64, 127
1, 938039, Control_c, 1, 64, 127
1, 938057, Control_c, 1, 64, 86
1, 938057, Control_c, 0, 64, 86
1, 938077, Control_c, 0, 64, 40
1, 938077, Control_c, 1, 64, 40
1, 938082, Note_off_c, 0, 91, 49
1, 938094, Control_c, 0, 64, 0
1, 938094, Control_c, 1, 64, 0
1, 938105, Note_on_c, 0, 83, 66
1, 938108, Note_off_c, 0, 89, 34
1, 938126, Note_on_c, 0, 82, 33
1, 938131, Control_c, 0, 64, 24
1, 938131, Control_c, 1, 64, 24
1, 938137, Note_on_c, 0, 79, 75
1, 938141, Note_off_c, 0, 83, 64
1, 938147, Note_on_c, 0, 59, 83
1, 938150, Control_c, 0, 64, 64
1, 938150, Control_c, 1, 64, 64
1, 938156, Note_on_c, 0, 47, 76
1, 938170, Control_c, 0, 64, 127
1, 938170, Control_c, 1, 64, 127
1, 938176, Note_off_c, 0, 82, 50
1, 938190, Note_off_c, 0, 59, 59
1, 938197, Note_off_c, 0, 47, 65
1, 938216, Note_on_c, 0, 89, 82
1, 938218, Note_off_c, 0, 79, 52
1, 938226, Control_c, 0, 64, 77
1, 938226, Control_c, 1, 64, 77
1, 938246, Control_c, 1, 64, 50
1, 938246, Control_c, 0, 64, 50
1, 938264, Control_c, 0, 64, 42
1, 938264, Control_c, 1, 64, 42
1, 938270, Note_on_c, 0, 88, 23
1, 938271, Note_off_c, 0, 88, 127
1, 938282, Control_c, 0, 64, 55
1, 938282, Control_c, 1, 64, 55
1, 938298, Note_on_c, 0, 84, 69
1, 938299, Note_on_c, 0, 57, 88
1, 938300, Control_c, 0, 64, 78
1, 938300, Control_c, 1, 64, 78
1, 938309, Note_off_c, 0, 89, 63
1, 938310, Note_on_c, 0, 45, 82
1, 938318, Control_c, 0, 64, 127
1, 938318, Control_c, 1, 64, 127
1, 938338, Note_on_c, 0, 79, 79
1, 938343, Note_off_c, 0, 57, 60
1, 938352, Note_on_c, 0, 47, 35
1, 938353, Note_off_c, 0, 47, 127
1, 938360, Note_off_c, 0, 45, 59
1, 938376, Control_c, 0, 64, 79
1, 938376, Control_c, 1, 64, 79
1, 938394, Control_c, 1, 64, 38
1, 938394, Control_c, 0, 64, 38
1, 938403, Poly_aftertouch_c, 0, 47, 0
1, 938409, Note_off_c, 0, 79, 58
1, 938413, Control_c, 0, 64, 0
1, 938413, Control_c, 1, 64, 0
1, 938416, Note_on_c, 0, 86, 81
1, 938448, Note_on_c, 0, 43, 90
1, 938449, Note_on_c, 0, 55, 89
1, 938452, Control_c, 0, 64, 26
1, 938452, Control_c, 1, 64, 26
1, 938470, Control_c, 1, 64, 69
1, 938470, Control_c, 0, 64, 69
1, 938477, Note_on_c, 0, 46, 48
1, 938485, Note_off_c, 0, 84, 62
1, 938486, Control_c, 0, 64, 127
1, 938486, Control_c, 1, 64, 127
1, 938488, Note_on_c, 0, 83, 79
1, 938489, Note_off_c, 0, 43, 62
1, 938490, Note_off_c, 0, 55, 64
1, 938518, Note_off_c, 0, 86, 63
1, 938521, Note_off_c, 0, 46, 57
1, 938524, Control_c, 0, 64, 96
1, 938524, Control_c, 1, 64, 96
1, 938525, Note_on_c, 0, 77, 80
1, 938545, Control_c, 0, 64, 40
1, 938545, Control_c, 1, 64, 40
1, 938563, Control_c, 1, 64, 0
1, 938563, Control_c, 0, 64, 0
1, 938570, Note_off_c, 0, 83, 64
1, 938610, Note_on_c, 0, 60, 93
1, 938614, Note_on_c, 0, 48, 88
1, 938618, Note_on_c, 0, 88, 83
1, 938620, Control_c, 0, 64, 40
1, 938620, Control_c, 1, 64, 40
1, 938638, Control_c, 1, 64, 100
1, 938638, Control_c, 0, 64, 100
1, 938648, Note_off_c, 0, 77, 35
1, 938653, Note_on_c, 0, 50, 45
1, 938654, Note_off_c, 0, 50, 127
1, 938658, Control_c, 0, 64, 127
1, 938658, Control_c, 1, 64, 127
1, 938662, Note_off_c, 0, 60, 64
1, 938676, Note_off_c, 0, 48, 62
1, 938698, Poly_aftertouch_c, 0, 50, 0
1, 938722, Note_on_c, 0, 79, 81
1, 938724, Poly_aftertouch_c, 0, 51, 0
1, 938730, Control_c, 0, 64, 105
1, 938730, Control_c, 1, 64, 105
1, 938734, Note_off_c, 0, 88, 64
1, 938752, Control_c, 0, 64, 62
1, 938752, Control_c, 1, 64, 62
1, 938769, Control_c, 1, 64, 13
1, 938769, Control_c, 0, 64, 13
1, 938780, Note_on_c, 0, 76, 65
1, 938788, Note_on_c, 0, 55, 80
1, 938788, Control_c, 0, 64, 0
1, 938788, Control_c, 1, 64, 0
1, 938791, Note_off_c, 0, 79, 61
1, 938803, Note_on_c, 0, 43, 56
1, 938822, Note_off_c, 0, 55, 63
1, 938824, Control_c, 0, 64, 35
1, 938824, Control_c, 1, 64, 35
1, 938844, Control_c, 1, 64, 74
1, 938844, Control_c, 0, 64, 74
1, 938848, Note_off_c, 0, 43, 63
1, 938855, Note_on_c, 0, 83, 75
1, 938863, Control_c, 0, 64, 127
1, 938863, Control_c, 1, 64, 127
1, 938871, Note_off_c, 0, 76, 54
1, 938900, Control_c, 0, 64, 105
1, 938900, Control_c, 1, 64, 105
1, 938919, Control_c, 1, 64, 56
1, 938919, Control_c, 0, 64, 56
1, 938937, Control_c, 0, 64, 15
1, 938937, Control_c, 1, 64, 15
1, 938957, Note_on_c, 0, 52, 68
1, 938958, Note_on_c, 0, 77, 68
1, 938969, Note_on_c, 0, 40, 63
1, 938974, Control_c, 0, 64, 24
1, 938974, Control_c, 1, 64, 24
1, 938979, Note_off_c, 0, 83, 57
1, 938994, Control_c, 0, 64, 58
1, 938994, Control_c, 1, 64, 58
1, 938998, Note_off_c, 0, 52, 64
1, 939002, Note_on_c, 0, 74, 62
1, 939010, Note_off_c, 0, 77, 55
1, 939012, Note_off_c, 0, 40, 65
1, 939012, Poly_aftertouch_c, 0, 40, 0
1, 939012, Control_c, 0, 64, 93
1, 939012, Control_c, 1, 64, 93
1, 939031, Control_c, 1, 64, 109
1, 939031, Control_c, 0, 64, 109
1, 939033, Control_c, 0, 67, 8
1, 939033, Control_c, 1, 67, 8
1, 939039, Note_off_c, 0, 74, 64
1, 939052, Control_c, 0, 64, 82
1, 939052, Control_c, 1, 64, 82
1, 939056, Note_on_c, 0, 84, 78
1, 939068, Control_c, 0, 64, 53
1, 939068, Control_c, 1, 64, 53
1, 939088, Control_c, 1, 64, 48
1, 939088, Control_c, 0, 64, 48
1, 939105, Control_c, 0, 64, 63
1, 939105, Control_c, 1, 64, 63
1, 939119, Note_on_c, 0, 36, 73
1, 939125, Control_c, 0, 64, 84
1, 939125, Control_c, 1, 64, 84
1, 939138, Note_on_c, 0, 48, 45
1, 939141, Control_c, 0, 64, 127
1, 939141, Control_c, 1, 64, 127
1, 939148, Note_off_c, 0, 84, 63
1, 939156, Note_off_c, 0, 36, 63
1, 939158, Note_on_c, 0, 76, 67
1, 939178, Note_on_c, 0, 72, 67
1, 939180, Note_off_c, 0, 48, 50
1, 939181, Note_off_c, 0, 76, 66
1, 939200, Control_c, 0, 64, 68
1, 939200, Control_c, 1, 64, 68
1, 939208, Poly_aftertouch_c, 0, 39, 0
1, 939217, Note_off_c, 0, 72, 64
1, 939218, Control_c, 0, 64, 22
1, 939218, Control_c, 1, 64, 22
1, 939236, Control_c, 1, 64, 0
1, 939236, Control_c, 0, 64, 0
1, 939294, Control_c, 0, 64, 22
1, 939294, Control_c, 1, 64, 22
1, 939310, Control_c, 1, 64, 55
1, 939310, Control_c, 0, 64, 55
1, 939311, Note_on_c, 0, 89, 75
1, 939320, Note_on_c, 0, 38, 68
1, 939321, Note_on_c, 0, 50, 64
1, 939329, Control_c, 0, 64, 86
1, 939329, Control_c, 1, 64, 86
1, 939349, Control_c, 1, 64, 127
1, 939349, Control_c, 0, 64, 127
1, 939357, Note_off_c, 0, 38, 63
1, 939358, Note_off_c, 0, 50, 65
1, 939386, Control_c, 0, 64, 73
1, 939386, Control_c, 1, 64, 73
1, 939405, Control_c, 1, 64, 24
1, 939405, Control_c, 0, 64, 24
1, 939418, Note_on_c, 0, 82, 73
1, 939423, Note_off_c, 0, 89, 60
1, 939423, Control_c, 0, 64, 0
1, 939423, Control_c, 1, 64, 0
1, 939452, Note_on_c, 0, 77, 57
1, 939460, Control_c, 0, 64, 27
1, 939460, Control_c, 1, 64, 27
1, 939474, Note_off_c, 0, 82, 58
1, 939480, Control_c, 0, 64, 69
1, 939480, Control_c, 1, 64, 69
1, 939499, Control_c, 1, 64, 127
1, 939499, Control_c, 0, 64, 127
1, 939503, Note_on_c, 0, 53, 73
1, 939505, Note_on_c, 0, 41, 69
1, 939536, Note_on_c, 0, 88, 76
1, 939536, Control_c, 0, 64, 69
1, 939536, Control_c, 1, 64, 69
1, 939537, Note_off_c, 0, 53, 66
1, 939539, Note_off_c, 0, 77, 51
1, 939542, Note_off_c, 0, 41, 65
1, 939555, Control_c, 0, 64, 16
1, 939555, Control_c, 1, 64, 16
1, 939574, Control_c, 1, 64, 0
1, 939574, Control_c, 0, 64, 0
1, 939590, Note_on_c, 0, 84, 68
1, 939591, Control_c, 0, 64, 15
1, 939591, Control_c, 1, 64, 15
1, 939612, Control_c, 1, 64, 55
1, 939612, Control_c, 0, 64, 55
1, 939630, Control_c, 0, 64, 127
1, 939630, Control_c, 1, 64, 127
1, 939640, Note_off_c, 0, 88, 61
1, 939645, Note_on_c, 0, 45, 82
1, 939659, Note_on_c, 0, 57, 71
1, 939660, Note_on_c, 0, 55, 61
1, 939682, Note_off_c, 0, 45, 64
1, 939688, Note_on_c, 0, 76, 56
1, 939690, Note_off_c, 0, 55, 62
1, 939690, Note_off_c, 0, 57, 64
1, 939690, Note_on_c, 0, 77, 43
1, 939705, Control_c, 0, 64, 76
1, 939705, Control_c, 1, 64, 76
1, 939708, Note_on_c, 0, 86, 80
1, 939717, Note_off_c, 0, 76, 60
1, 939721, Note_off_c, 0, 77, 38
1, 939724, Control_c, 0, 64, 32
1, 939724, Control_c, 1, 64, 32
1, 939743, Control_c, 1, 64, 0
1, 939743, Control_c, 0, 64, 0
1, 939770, Note_off_c, 0, 84, 61
1, 939778, Control_c, 0, 64, 11
1, 939778, Control_c, 1, 64, 11
1, 939791, Note_on_c, 0, 58, 82
1, 939795, Note_on_c, 0, 46, 83
1, 939797, Control_c, 0, 64, 56
1, 939797, Control_c, 1, 64, 56
1, 939818, Control_c, 1, 64, 127
1, 939818, Control_c, 0, 64, 127
1, 939826, Note_off_c, 0, 58, 73
1, 939828, Note_on_c, 0, 74, 80
1, 939835, Note_on_c, 0, 82, 74
1, 939852, Note_off_c, 0, 46, 60
1, 939860, Note_off_c, 0, 74, 56
1, 939864, Note_on_c, 0, 45, 16
1, 939873, Control_c, 0, 64, 86
1, 939873, Control_c, 1, 64, 86
1, 939893, Control_c, 1, 64, 42
1, 939893, Control_c, 0, 64, 42
1, 939904, Note_off_c, 0, 86, 34
1, 939906, Note_off_c, 0, 45, 39
1, 939909, Control_c, 0, 64, 0
1, 939909, Control_c, 1, 64, 0
1, 939923, Note_off_c, 0, 82, 57
1, 939956, Note_on_c, 0, 89, 65
1, 939964, Note_on_c, 0, 88, 70
1, 939964, Note_on_c, 0, 36, 80
1, 939966, Control_c, 0, 64, 29
1, 939966, Control_c, 1, 64, 29
1, 939968, Note_on_c, 0, 48, 76
1, 939985, Control_c, 0, 64, 71
1, 939985, Control_c, 1, 64, 71
1, 939998, Note_off_c, 0, 48, 65
1, 940001, Note_off_c, 0, 89, 63
1, 940001, Note_on_c, 0, 39, 31
1, 940003, Note_off_c, 0, 36, 64
1, 940004, Control_c, 0, 64, 107
1, 940004, Control_c, 1, 64, 107
1, 940022, Control_c, 1, 64, 88
1, 940022, Control_c, 0, 64, 88
1, 940042, Control_c, 0, 64, 45
1, 940042, Control_c, 1, 64, 45
1, 940053, Note_off_c, 0, 88, 63
1, 940054, Note_off_c, 0, 39, 54
1, 940060, Note_on_c, 0, 81, 66
1, 940062, Control_c, 0, 64, 0
1, 940062, Control_c, 1, 64, 0
1, 940086, Note_on_c, 0, 76, 64
1, 940116, Control_c, 0, 64, 47
1, 940116, Control_c, 1, 64, 47
1, 940135, Control_c, 1, 64, 112
1, 940135, Control_c, 0, 64, 112
1, 940141, Note_on_c, 0, 52, 77
1, 940142, Note_on_c, 0, 40, 77
1, 940143, Note_off_c, 0, 76, 63
1, 940144, Note_off_c, 0, 81, 42
1, 940153, Control_c, 0, 64, 127
1, 940153, Control_c, 1, 64, 127
1, 940163, Note_on_c, 0, 86, 83
1, 940174, Note_off_c, 0, 52, 69
1, 940182, Note_off_c, 0, 40, 61
1, 940182, Poly_aftertouch_c, 0, 40, 0
1, 940191, Control_c, 0, 64, 99
1, 940191, Control_c, 1, 64, 99
1, 940211, Control_c, 1, 64, 55
1, 940211, Control_c, 0, 64, 55
1, 940229, Control_c, 0, 64, 0
1, 940229, Control_c, 1, 64, 0
1, 940254, Note_off_c, 0, 86, 64
1, 940256, Note_on_c, 0, 81, 73
1, 940284, Control_c, 0, 64, 18
1, 940284, Control_c, 1, 64, 18
1, 940285, Note_on_c, 0, 56, 96
1, 940286, Note_on_c, 0, 74, 74
1, 940287, Note_on_c, 0, 44, 90
1, 940303, Control_c, 0, 64, 60
1, 940303, Control_c, 1, 64, 60
1, 940312, Note_off_c, 0, 81, 53
1, 940323, Control_c, 0, 64, 93
1, 940323, Control_c, 1, 64, 93
1, 940333, Note_off_c, 0, 56, 58
1, 940340, Control_c, 0, 64, 80
1, 940340, Control_c, 1, 64, 80
1, 940346, Note_off_c, 0, 44, 61
1, 940361, Control_c, 0, 64, 37
1, 940361, Control_c, 1, 64, 37
1, 940367, Note_on_c, 0, 84, 84
1, 940371, Note_off_c, 0, 74, 58
1, 940379, Control_c, 0, 64, 0
1, 940379, Control_c, 1, 64, 0
1, 940434, Note_on_c, 0, 57, 86
1, 940438, Note_on_c, 0, 45, 86
1, 940451, Note_on_c, 0, 81, 78
1, 940454, Control_c, 0, 64, 16
1, 940454, Control_c, 1, 64, 16
1, 940466, Note_on_c, 0, 51, 41
1, 940467, Note_off_c, 0, 51, 127
1, 940469, Note_off_c, 0, 57, 67
1, 940483, Note_off_c, 0, 84, 63
1, 940491, Note_off_c, 0, 45, 59
1, 940509, Control_c, 0, 64, 0
1, 940509, Control_c, 1, 64, 0
1, 940518, Poly_aftertouch_c, 0, 51, 0
1, 940523, Note_on_c, 0, 72, 65
1, 940530, Note_off_c, 0, 81, 62
1, 940584, Control_c, 0, 64, 8
1, 940584, Control_c, 1, 64, 8
1, 940598, Note_on_c, 0, 83, 77
1, 940602, Control_c, 0, 64, 46
1, 940602, Control_c, 1, 64, 46
1, 940603, Note_off_c, 0, 72, 53
1, 940610, Note_on_c, 0, 41, 82
1, 940613, Note_on_c, 0, 53, 78
1, 940621, Control_c, 0, 64, 83
1, 940621, Control_c, 1, 64, 83
1, 940641, Control_c, 1, 64, 127
1, 940641, Control_c, 0, 64, 127
1, 940649, Note_off_c, 0, 53, 66
1, 940652, Note_off_c, 0, 41, 65
1, 940677, Note_on_c, 0, 81, 73
1, 940694, Note_off_c, 0, 83, 62
1, 940697, Control_c, 0, 64, 77
1, 940697, Control_c, 1, 64, 77
1, 940715, Control_c, 1, 64, 30
1, 940715, Control_c, 0, 64, 30
1, 940734, Control_c, 0, 64, 0
1, 940734, Control_c, 1, 64, 0
1, 940736, Note_off_c, 0, 81, 59
1, 940763, Note_on_c, 0, 71, 69
1, 940791, Control_c, 0, 64, 46
1, 940791, Control_c, 1, 64, 46
1, 940800, Note_on_c, 0, 63, 95
1, 940800, Note_on_c, 0, 51, 90
1, 940810, Control_c, 0, 64, 115
1, 940810, Control_c, 1, 64, 115
1, 940811, Note_off_c, 0, 71, 60
1, 940829, Control_c, 0, 64, 127
1, 940829, Control_c, 1, 64, 127
1, 940842, Note_on_c, 0, 84, 72
1, 940854, Note_off_c, 0, 63, 61
1, 940854, Note_on_c, 0, 83, 60
1, 940858, Note_off_c, 0, 51, 64
1, 940885, Control_c, 0, 64, 75
1, 940885, Control_c, 1, 64, 75
1, 940895, Note_off_c, 0, 83, 47
1, 940899, Note_on_c, 0, 81, 74
1, 940903, Control_c, 0, 64, 21
1, 940903, Control_c, 1, 64, 21
1, 940921, Control_c, 1, 64, 0
1, 940921, Control_c, 0, 64, 0
1, 940936, Note_on_c, 0, 64, 90
1, 940938, Note_off_c, 0, 84, 60
1, 940940, Note_on_c, 0, 52, 89
1, 940960, Control_c, 0, 64, 9
1, 940960, Control_c, 1, 64, 9
1, 940970, Note_off_c, 0, 64, 65
1, 940976, Control_c, 0, 64, 57
1, 940976, Control_c, 1, 64, 57
1, 940978, Note_off_c, 0, 81, 61
1, 940988, Note_on_c, 0, 54, 27
1, 940989, Note_off_c, 0, 54, 127
1, 940989, Note_on_c, 0, 72, 69
1, 940993, Note_off_c, 0, 52, 63
1, 940995, Control_c, 0, 64, 127
1, 940995, Control_c, 1, 64, 127
1, 941047, Poly_aftertouch_c, 0, 54, 0
1, 941053, Control_c, 0, 64, 75
1, 941053, Control_c, 1, 64, 75
1, 941061, Note_off_c, 0, 72, 55
1, 941072, Control_c, 0, 64, 35
1, 941072, Control_c, 1, 64, 35
1, 941087, Note_on_c, 0, 80, 81
1, 941089, Control_c, 0, 64, 0
1, 941089, Control_c, 1, 64, 0
1, 941115, Note_on_c, 0, 52, 82
1, 941117, Note_on_c, 0, 40, 82
1, 941128, Control_c, 0, 64, 14
1, 941128, Control_c, 1, 64, 14
1, 941145, Note_off_c, 0, 52, 67
1, 941145, Control_c, 0, 64, 53
1, 941145, Control_c, 1, 64, 53
1, 941160, Note_off_c, 0, 40, 63
1, 941160, Poly_aftertouch_c, 0, 40, 0
1, 941164, Control_c, 0, 64, 105
1, 941164, Control_c, 1, 64, 105
1, 941183, Control_c, 1, 64, 127
1, 941183, Control_c, 0, 64, 127
1, 941202, Control_c, 0, 67, 12
1, 941202, Control_c, 1, 67, 12
1, 941204, Note_on_c, 0, 74, 55
1, 941223, Note_off_c, 0, 80, 63
1, 941223, Poly_aftertouch_c, 0, 80, 0
1, 941241, Poly_aftertouch_c, 0, 42, 0
1, 941241, Control_c, 0, 64, 70
1, 941241, Control_c, 1, 64, 70
1, 941246, Note_on_c, 0, 71, 64
1, 941260, Control_c, 0, 64, 23
1, 941260, Control_c, 1, 64, 23
1, 941262, Note_off_c, 0, 74, 54
1, 941277, Control_c, 0, 64, 0
1, 941277, Control_c, 1, 64, 0
1, 941283, Note_off_c, 0, 71, 49
1, 941293, Note_on_c, 0, 83, 79
1, 941306, Note_on_c, 0, 45, 80
1, 941309, Note_on_c, 0, 33, 84
1, 941334, Control_c, 0, 64, 33
1, 941334, Control_c, 1, 64, 33
1, 941341, Note_off_c, 0, 45, 68
1, 941349, Note_off_c, 0, 33, 68
1, 941349, Poly_aftertouch_c, 0, 33, 0
1, 941353, Control_c, 0, 64, 78
1, 941353, Control_c, 1, 64, 78
1, 941370, Control_c, 1, 64, 127
1, 941370, Control_c, 0, 64, 127
1, 941391, Control_c, 0, 67, 17
1, 941391, Control_c, 1, 67, 17
1, 941407, Control_c, 1, 64, 99
1, 941407, Note_on_c, 0, 74, 76
1, 941407, Control_c, 0, 64, 99
1, 941416, Note_off_c, 0, 83, 63
1, 941427, Control_c, 0, 64, 46
1, 941427, Control_c, 1, 64, 46
1, 941446, Control_c, 1, 64, 0
1, 941446, Control_c, 0, 64, 0
1, 941469, Note_on_c, 0, 71, 58
1, 941473, Note_off_c, 0, 74, 55
1, 941496, Note_off_c, 0, 71, 61
1, 941501, Note_on_c, 0, 56, 78
1, 941503, Note_on_c, 0, 44, 78
1, 941503, Control_c, 0, 64, 22
1, 941503, Control_c, 1, 64, 22
1, 941521, Control_c, 1, 64, 62
1, 941521, Control_c, 0, 64, 62
1, 941530, Note_on_c, 0, 81, 70
1, 941531, Note_off_c, 0, 56, 68
1, 941540, Control_c, 0, 64, 127
1, 941540, Control_c, 1, 64, 127
1, 941544, Note_off_c, 0, 44, 65
1, 941558, Control_c, 0, 67, 24
1, 941558, Control_c, 1, 67, 24
1, 941615, Control_c, 1, 64, 94
1, 941615, Control_c, 0, 64, 94
1, 941634, Control_c, 0, 64, 54
1, 941634, Control_c, 1, 64, 54
1, 941650, Control_c, 1, 64, 0
1, 941650, Control_c, 0, 64, 0
1, 941651, Note_on_c, 0, 69, 63
1, 941659, Note_off_c, 0, 81, 56
1, 941661, Note_on_c, 0, 57, 79
1, 941668, Note_on_c, 0, 45, 69
1, 941689, Note_off_c, 0, 69, 61
1, 941694, Note_off_c, 0, 57, 68
1, 941694, Note_on_c, 0, 76, 71
1, 941708, Note_off_c, 0, 45, 63
1, 941708, Control_c, 0, 64, 21
1, 941708, Control_c, 1, 64, 21
1, 941726, Control_c, 1, 64, 64
1, 941726, Control_c, 0, 64, 64
1, 941728, Control_c, 0, 67, 28
1, 941728, Control_c, 1, 67, 28
1, 941745, Control_c, 1, 64, 127
1, 941745, Control_c, 0, 64, 127
1, 941748, Control_c, 0, 67, 32
1, 941748, Control_c, 1, 67, 32
1, 941787, Note_off_c, 0, 76, 62
1, 941796, Poly_aftertouch_c, 0, 72, 127
1, 941812, Poly_aftertouch_c, 0, 72, 0
1, 941866, Note_on_c, 0, 57, 71
1, 941895, Control_c, 0, 64, 67
1, 941895, Control_c, 1, 64, 67
1, 941914, Control_c, 1, 64, 11
1, 941914, Control_c, 0, 64, 11
1, 941932, Control_c, 0, 64, 0
1, 941932, Control_c, 1, 64, 0
1, 941933, Control_c, 1, 67, 36
1, 941933, Control_c, 0, 67, 36
1, 941989, Control_c, 0, 64, 39
1, 941989, Control_c, 1, 64, 39
1, 942004, Note_on_c, 0, 69, 79
1, 942006, Control_c, 0, 64, 92
1, 942006, Control_c, 1, 64, 92
1, 942014, Note_off_c, 0, 57, 63
1, 942014, Note_on_c, 0, 93, 77
1, 942028, Control_c, 0, 64, 127
1, 942028, Control_c, 0, 67, 43
1, 942028, Control_c, 1, 64, 127
1, 942028, Control_c, 1, 67, 43
1, 942051, Note_off_c, 0, 93, 62
1, 942064, Control_c, 0, 64, 76
1, 942064, Control_c, 1, 64, 76
1, 942083, Control_c, 1, 64, 30
1, 942083, Control_c, 0, 64, 30
1, 942084, Note_off_c, 0, 69, 57
1, 942092, Note_on_c, 0, 64, 67
1, 942100, Poly_aftertouch_c, 0, 81, 0
1, 942102, Control_c, 0, 64, 0
1, 942102, Control_c, 1, 64, 0
1, 942120, Control_c, 1, 64, 13
1, 942120, Control_c, 0, 64, 13
1, 942138, Control_c, 0, 64, 48
1, 942138, Control_c, 1, 64, 48
1, 942158, Control_c, 1, 64, 101
1, 942158, Control_c, 0, 64, 101
1, 942165, Note_on_c, 0, 57, 72
1, 942171, Note_off_c, 0, 64, 63
1, 942176, Control_c, 0, 64, 127
1, 942176, Control_c, 1, 64, 127
1, 942177, Control_c, 1, 67, 47
1, 942177, Control_c, 0, 67, 47
1, 942210, Note_on_c, 0, 97, 67
1, 942213, Control_c, 0, 64, 89
1, 942213, Control_c, 1, 64, 89
1, 942214, Control_c, 1, 67, 51
1, 942214, Control_c, 0, 67, 51
1, 942220, Note_on_c, 0, 85, 56
1, 942226, Note_off_c, 0, 57, 60
1, 942232, Control_c, 0, 64, 52
1, 942232, Control_c, 1, 64, 52
1, 942240, Note_on_c, 0, 67, 79
1, 942248, Note_off_c, 0, 85, 61
1, 942248, Note_off_c, 0, 97, 65
1, 942249, Control_c, 0, 64, 20
1, 942249, Control_c, 1, 64, 20
1, 942288, Control_c, 1, 64, 41
1, 942288, Control_c, 0, 64, 41
1, 942307, Control_c, 0, 64, 76
1, 942307, Control_c, 1, 64, 76
1, 942320, Note_off_c, 0, 67, 59
1, 942320, Note_on_c, 0, 62, 69
1, 942326, Control_c, 0, 64, 127
1, 942326, Control_c, 1, 64, 127
1, 942361, Note_on_c, 0, 95, 83
1, 942364, Control_c, 0, 67, 55
1, 942364, Control_c, 1, 67, 55
1, 942372, Note_on_c, 0, 83, 74
1, 942372, Note_on_c, 0, 55, 77
1, 942388, Note_off_c, 0, 62, 63
1, 942397, Note_off_c, 0, 83, 70
1, 942418, Note_off_c, 0, 95, 62
1, 942420, Control_c, 0, 64, 114
1, 942420, Control_c, 1, 64, 114
1, 942438, Control_c, 1, 64, 63
1, 942438, Control_c, 0, 64, 63
1, 942455, Control_c, 0, 64, 16
1, 942455, Control_c, 1, 64, 16
1, 942458, Note_on_c, 0, 64, 80
1, 942459, Note_off_c, 0, 55, 49
1, 942475, Control_c, 0, 64, 0
1, 942475, Control_c, 1, 64, 0
1, 942495, Control_c, 1, 64, 14
1, 942495, Control_c, 0, 64, 14
1, 942509, Note_on_c, 0, 93, 80
1, 942512, Control_c, 0, 64, 53
1, 942512, Control_c, 1, 64, 53
1, 942514, Note_on_c, 0, 81, 75
1, 942529, Note_on_c, 0, 61, 70
1, 942531, Control_c, 0, 64, 127
1, 942531, Control_c, 1, 64, 127
1, 942541, Note_off_c, 0, 81, 69
1, 942550, Control_c, 0, 67, 59
1, 942550, Control_c, 1, 67, 59
1, 942554, Note_off_c, 0, 64, 58
1, 942567, Note_off_c, 0, 93, 63
1, 942588, Control_c, 0, 64, 101
1, 942588, Control_c, 1, 64, 101
1, 942599, Note_on_c, 0, 53, 80
1, 942606, Control_c, 0, 64, 62
1, 942606, Control_c, 1, 64, 62
1, 942612, Note_off_c, 0, 61, 63
1, 942625, Control_c, 0, 64, 11
1, 942625, Control_c, 1, 64, 11
1, 942643, Control_c, 1, 64, 0
1, 942643, Control_c, 0, 64, 0
1, 942675, Note_on_c, 0, 65, 87
1, 942681, Control_c, 0, 64, 44
1, 942681, Control_c, 1, 64, 44
1, 942686, Note_on_c, 0, 98, 90
1, 942688, Note_off_c, 0, 53, 59
1, 942692, Note_on_c, 0, 86, 81
1, 942700, Control_c, 0, 64, 127
1, 942700, Control_c, 1, 64, 127
1, 942719, Note_off_c, 0, 86, 67
1, 942730, Note_off_c, 0, 98, 59
1, 942750, Note_off_c, 0, 65, 60
1, 942755, Control_c, 0, 67, 64
1, 942755, Control_c, 1, 67, 64
1, 942789, Note_on_c, 0, 57, 81
1, 942792, Control_c, 0, 64, 80
1, 942792, Control_c, 1, 64, 80
1, 942813, Control_c, 1, 64, 25
1, 942813, Control_c, 0, 64, 25
1, 942830, Note_off_c, 0, 57, 66
1, 942831, Control_c, 0, 64, 0
1, 942831, Control_c, 1, 64, 0
1, 942835, Note_on_c, 0, 50, 64
1, 942863, Note_on_c, 0, 81, 73
1, 942868, Control_c, 0, 64, 22
1, 942868, Control_c, 0, 67, 70
1, 942868, Control_c, 1, 64, 22
1, 942868, Control_c, 1, 67, 70
1, 942869, Note_on_c, 0, 93, 71
1, 942887, Control_c, 0, 64, 68
1, 942887, Control_c, 1, 64, 68
1, 942888, Control_c, 1, 67, 75
1, 942888, Control_c, 0, 67, 75
1, 942891, Note_off_c, 0, 81, 70
1, 942905, Note_off_c, 0, 93, 65
1, 942906, Control_c, 0, 64, 127
1, 942906, Control_c, 1, 64, 127
1, 942907, Control_c, 1, 67, 80
1, 942907, Control_c, 0, 67, 80
1, 942921, Note_off_c, 0, 50, 62
1, 942923, Control_c, 0, 67, 84
1, 942923, Control_c, 1, 67, 84
1, 942943, Control_c, 1, 64, 114
1, 942943, Control_c, 0, 64, 114
1, 942944, Note_on_c, 0, 61, 67
1, 942944, Control_c, 0, 67, 88
1, 942944, Control_c, 1, 67, 88
1, 942963, Control_c, 1, 64, 57
1, 942963, Control_c, 0, 64, 57
1, 942981, Control_c, 0, 67, 92
1, 942981, Control_c, 1, 67, 92
1, 942999, Control_c, 1, 64, 0
1, 942999, Control_c, 0, 64, 0
1, 943019, Note_off_c, 0, 61, 59
1, 943025, Note_on_c, 0, 91, 71
1, 943037, Control_c, 0, 64, 20
1, 943037, Control_c, 1, 64, 20
1, 943041, Note_on_c, 0, 57, 57
1, 943043, Note_on_c, 0, 79, 48
1, 943048, Note_on_c, 0, 50, 72
1, 943055, Control_c, 0, 64, 60
1, 943055, Control_c, 1, 64, 60
1, 943062, Note_off_c, 0, 91, 57
1, 943074, Control_c, 0, 64, 127
1, 943074, Control_c, 1, 64, 127
1, 943077, Control_c, 1, 67, 99
1, 943077, Control_c, 0, 67, 99
1, 943078, Note_off_c, 0, 79, 55
1, 943103, Poly_aftertouch_c, 0, 81, 0
1, 943107, Note_off_c, 0, 57, 59
1, 943111, Note_off_c, 0, 50, 59
1, 943111, Control_c, 0, 67, 104
1, 943111, Control_c, 1, 67, 104
1, 943147, Note_on_c, 0, 62, 69
1, 943169, Control_c, 0, 64, 67
1, 943169, Control_c, 1, 64, 67
1, 943185, Control_c, 1, 64, 19
1, 943185, Control_c, 0, 64, 19
1, 943188, Note_on_c, 0, 89, 68
1, 943201, Note_on_c, 0, 77, 56
1, 943203, Control_c, 0, 64, 0
1, 943203, Control_c, 1, 64, 0
1, 943215, Note_off_c, 0, 62, 57
1, 943225, Note_off_c, 0, 77, 59
1, 943229, Note_off_c, 0, 89, 60
1, 943243, Control_c, 0, 64, 31
1, 943243, Control_c, 1, 64, 31
1, 943261, Control_c, 1, 64, 86
1, 943261, Control_c, 0, 64, 86
1, 943268, Note_on_c, 0, 57, 47
1, 943275, Note_on_c, 0, 59, 50
1, 943280, Control_c, 0, 64, 127
1, 943280, Control_c, 1, 64, 127
1, 943317, Control_c, 1, 64, 88
1, 943317, Control_c, 0, 64, 88
1, 943322, Note_off_c, 0, 59, 59
1, 943326, Note_on_c, 0, 55, 74
1, 943337, Control_c, 0, 64, 45
1, 943337, Control_c, 1, 64, 45
1, 943367, Note_on_c, 0, 91, 78
1, 943374, Note_on_c, 0, 79, 71
1, 943375, Control_c, 0, 64, 8
1, 943375, Control_c, 1, 64, 8
1, 943392, Control_c, 1, 64, 36
1, 943392, Control_c, 0, 64, 36
1, 943401, Note_on_c, 0, 67, 76
1, 943402, Note_off_c, 0, 79, 70
1, 943411, Control_c, 0, 64, 84
1, 943411, Control_c, 1, 64, 84
1, 943416, Note_off_c, 0, 91, 59
1, 943430, Control_c, 0, 64, 127
1, 943430, Control_c, 1, 64, 127
1, 943431, Note_off_c, 0, 55, 55
1, 943431, Note_off_c, 0, 57, 20
1, 943483, Note_on_c, 0, 62, 79
1, 943491, Note_off_c, 0, 67, 59
1, 943505, Control_c, 0, 64, 81
1, 943505, Control_c, 1, 64, 81
1, 943526, Control_c, 1, 64, 47
1, 943526, Control_c, 0, 64, 47
1, 943530, Note_on_c, 0, 95, 84
1, 943542, Note_on_c, 0, 83, 72
1, 943544, Control_c, 0, 64, 44
1, 943544, Control_c, 1, 64, 44
1, 943547, Note_off_c, 0, 62, 64
1, 943559, Note_on_c, 0, 55, 77
1, 943563, Control_c, 0, 64, 67
1, 943563, Control_c, 1, 64, 67
1, 943568, Note_off_c, 0, 83, 64
1, 943579, Control_c, 0, 64, 127
1, 943579, Control_c, 1, 64, 127
1, 943586, Note_off_c, 0, 95, 64
1, 943610, Note_on_c, 0, 65, 86
1, 943636, Control_c, 0, 64, 117
1, 943636, Control_c, 1, 64, 117
1, 943654, Note_off_c, 0, 55, 60
1, 943654, Control_c, 0, 64, 67
1, 943654, Control_c, 1, 64, 67
1, 943672, Control_c, 1, 64, 31
1, 943672, Control_c, 0, 64, 31
1, 943685, Note_on_c, 0, 93, 81
1, 943692, Note_on_c, 0, 81, 78
1, 943692, Control_c, 0, 64, 23
1, 943692, Control_c, 1, 64, 23
1, 943694, Note_on_c, 0, 60, 80
1, 943710, Note_off_c, 0, 65, 56
1, 943710, Control_c, 0, 64, 43
1, 943710, Control_c, 1, 64, 43
1, 943720, Note_off_c, 0, 81, 64
1, 943729, Control_c, 0, 64, 89
1, 943729, Control_c, 1, 64, 89
1, 943741, Note_off_c, 0, 93, 60
1, 943748, Control_c, 0, 64, 127
1, 943748, Control_c, 1, 64, 127
1, 943770, Note_off_c, 0, 60, 64
1, 943778, Note_on_c, 0, 53, 70
1, 943840, Note_on_c, 0, 91, 80
1, 943843, Note_on_c, 0, 62, 81
1, 943851, Note_on_c, 0, 79, 71
1, 943863, Note_off_c, 0, 53, 60
1, 943881, Note_off_c, 0, 79, 65
1, 943903, Note_off_c, 0, 91, 60
1, 943918, Poly_aftertouch_c, 0, 55, 0
1, 943934, Note_on_c, 0, 59, 49
1, 943938, Control_c, 0, 64, 106
1, 943938, Control_c, 1, 64, 106
1, 943946, Note_off_c, 0, 62, 60
1, 943956, Control_c, 0, 64, 59
1, 943956, Control_c, 1, 64, 59
1, 943987, Note_on_c, 0, 52, 75
1, 943990, Note_off_c, 0, 59, 63
1, 943990, Control_c, 0, 64, 0
1, 943990, Control_c, 1, 64, 0
1, 944029, Control_c, 1, 64, 25
1, 944029, Control_c, 0, 64, 25
1, 944033, Note_on_c, 0, 96, 85
1, 944041, Note_on_c, 0, 84, 77
1, 944047, Control_c, 0, 64, 76
1, 944047, Control_c, 1, 64, 76
1, 944060, Note_off_c, 0, 52, 60
1, 944066, Note_off_c, 0, 84, 71
1, 944066, Control_c, 0, 64, 127
1, 944066, Control_c, 1, 64, 127
1, 944067, Note_off_c, 0, 96, 62
1, 944070, Note_on_c, 0, 64, 81
1, 944165, Note_off_c, 0, 64, 56
1, 944184, Note_on_c, 0, 55, 67
1, 944217, Control_c, 0, 64, 101
1, 944217, Control_c, 1, 64, 101
1, 944219, Note_on_c, 0, 79, 77
1, 944221, Note_on_c, 0, 91, 68
1, 944232, Note_on_c, 0, 50, 62
1, 944235, Control_c, 0, 64, 54
1, 944235, Control_c, 1, 64, 54
1, 944243, Note_off_c, 0, 91, 61
1, 944248, Note_off_c, 0, 79, 69
1, 944255, Note_off_c, 0, 55, 61
1, 944281, Note_off_c, 0, 50, 60
1, 944291, Control_c, 0, 64, 29
1, 944291, Control_c, 1, 64, 29
1, 944310, Control_c, 1, 64, 68
1, 944310, Control_c, 0, 64, 68
1, 944329, Control_c, 0, 64, 127
1, 944329, Control_c, 1, 64, 127
1, 944331, Note_on_c, 0, 59, 68
1, 944383, Note_on_c, 0, 77, 73
1, 944401, Note_on_c, 0, 89, 56
1, 944404, Note_off_c, 0, 59, 59
1, 944410, Note_off_c, 0, 77, 69
1, 944414, Note_on_c, 0, 55, 60
1, 944432, Note_off_c, 0, 89, 60
1, 944434, Note_on_c, 0, 48, 70
1, 944464, Note_off_c, 0, 55, 62
1, 944521, Note_on_c, 0, 60, 72
1, 944526, Note_off_c, 0, 48, 61
1, 944557, Note_on_c, 0, 76, 66
1, 944563, Note_off_c, 0, 60, 63
1, 944568, Note_on_c, 0, 88, 46
1, 944570, Note_on_c, 0, 55, 41
1, 944571, Control_c, 0, 64, 82
1, 944571, Control_c, 1, 64, 82
1, 944579, Note_off_c, 0, 76, 64
1, 944590, Control_c, 0, 64, 36
1, 944590, Control_c, 1, 64, 36
1, 944602, Note_off_c, 0, 88, 55
1, 944609, Control_c, 0, 64, 0
1, 944609, Control_c, 1, 64, 0
1, 944648, Note_on_c, 0, 46, 73
1, 944657, Note_off_c, 0, 55, 41
1, 944665, Control_c, 0, 64, 27
1, 944665, Control_c, 1, 64, 27
1, 944680, Note_off_c, 0, 46, 67
1, 944683, Control_c, 0, 64, 73
1, 944683, Control_c, 1, 64, 73
1, 944703, Control_c, 1, 64, 127
1, 944703, Control_c, 0, 64, 127
1, 944747, Note_on_c, 0, 86, 75
1, 944755, Note_on_c, 0, 74, 56
1, 944769, Note_on_c, 0, 65, 76
1, 944780, Note_off_c, 0, 86, 64
1, 944785, Note_off_c, 0, 74, 59
1, 944836, Note_off_c, 0, 65, 59
1, 944861, Note_on_c, 0, 54, 42
1, 944890, Control_c, 0, 64, 118
1, 944890, Control_c, 1, 64, 118
1, 944909, Control_c, 1, 64, 58
1, 944909, Control_c, 0, 64, 58
1, 944913, Note_on_c, 0, 89, 76
1, 944920, Note_off_c, 0, 54, 47
1, 944923, Note_on_c, 0, 77, 63
1, 944928, Note_on_c, 0, 48, 66
1, 944928, Control_c, 0, 64, 0
1, 944928, Control_c, 1, 64, 0
1, 944942, Note_on_c, 0, 50, 64
1, 944945, Note_off_c, 0, 77, 64
1, 944964, Note_off_c, 0, 89, 58
1, 944980, Note_off_c, 0, 48, 62
1, 944983, Control_c, 0, 64, 22
1, 944983, Control_c, 1, 64, 22
1, 945001, Note_off_c, 0, 50, 59
1, 945001, Control_c, 0, 64, 64
1, 945001, Control_c, 1, 64, 64
1, 945021, Control_c, 1, 64, 127
1, 945021, Control_c, 0, 64, 127
1, 945037, Note_on_c, 0, 64, 72
1, 945084, Note_on_c, 0, 93, 81
1, 945085, Note_on_c, 0, 81, 76
1, 945096, Note_on_c, 0, 53, 67
1, 945106, Note_off_c, 0, 64, 57
1, 945113, Note_off_c, 0, 81, 71
1, 945117, Note_off_c, 0, 93, 63
1, 945164, Note_off_c, 0, 53, 61
1, 945203, Note_on_c, 0, 50, 28
1, 945205, Note_on_c, 0, 62, 79
1, 945251, Note_off_c, 0, 50, 49
1, 945258, Note_on_c, 0, 94, 78
1, 945268, Note_off_c, 0, 62, 60
1, 945273, Note_on_c, 0, 82, 56
1, 945288, Note_off_c, 0, 94, 68
1, 945300, Note_off_c, 0, 82, 63
1, 945301, Control_c, 0, 64, 71
1, 945301, Control_c, 1, 64, 71
1, 945303, Note_on_c, 0, 53, 60
1, 945321, Control_c, 0, 64, 14
1, 945321, Control_c, 1, 64, 14
1, 945334, Note_off_c, 0, 53, 42
1, 945341, Control_c, 0, 64, 0
1, 945341, Control_c, 1, 64, 0
1, 945360, Note_on_c, 0, 45, 69
1, 945388, Note_off_c, 0, 45, 61
1, 945395, Control_c, 0, 64, 9
1, 945395, Control_c, 1, 64, 9
1, 945409, Note_on_c, 0, 47, 38
1, 945413, Control_c, 0, 64, 50
1, 945413, Control_c, 1, 64, 50
1, 945433, Control_c, 1, 64, 105
1, 945433, Control_c, 0, 64, 105
1, 945437, Note_on_c, 0, 84, 86
1, 945451, Control_c, 0, 64, 127
1, 945451, Control_c, 1, 64, 127
1, 945453, Note_on_c, 0, 72, 69
1, 945458, Note_off_c, 0, 47, 29
1, 945468, Note_on_c, 0, 64, 80
1, 945477, Note_off_c, 0, 72, 64
1, 945492, Note_off_c, 0, 84, 60
1, 945529, Note_off_c, 0, 64, 62
1, 945582, Note_on_c, 0, 52, 60
1, 945612, Note_on_c, 0, 53, 42
1, 945617, Note_on_c, 0, 88, 79
1, 945619, Control_c, 0, 64, 74
1, 945619, Control_c, 1, 64, 74
1, 945620, Note_on_c, 0, 76, 75
1, 945630, Note_on_c, 0, 48, 65
1, 945637, Control_c, 0, 64, 25
1, 945637, Control_c, 1, 64, 25
1, 945649, Note_off_c, 0, 76, 68
1, 945653, Note_off_c, 0, 53, 34
1, 945656, Control_c, 0, 64, 0
1, 945656, Control_c, 1, 64, 0
1, 945658, Note_off_c, 0, 88, 65
1, 945675, Control_c, 0, 67, 109
1, 945675, Control_c, 1, 67, 109
1, 945695, Control_c, 1, 64, 27
1, 945695, Control_c, 0, 64, 27
1, 945707, Note_off_c, 0, 52, 51
1, 945713, Control_c, 0, 64, 74
1, 945713, Control_c, 1, 64, 74
1, 945714, Control_c, 1, 67, 113
1, 945714, Control_c, 0, 67, 113
1, 945730, Note_off_c, 0, 48, 56
1, 945732, Control_c, 0, 64, 127
1, 945732, Control_c, 1, 64, 127
1, 945751, Note_on_c, 0, 62, 66
1, 945803, Note_on_c, 0, 80, 70
1, 945808, Note_on_c, 0, 92, 69
1, 945814, Note_on_c, 0, 52, 59
1, 945831, Note_off_c, 0, 62, 61
1, 945831, Note_off_c, 0, 80, 68
1, 945831, Poly_aftertouch_c, 0, 80, 0
1, 945842, Note_off_c, 0, 92, 68
1, 945845, Control_c, 0, 64, 68
1, 945845, Control_c, 1, 64, 68
1, 945863, Control_c, 1, 64, 23
1, 945863, Control_c, 0, 64, 23
1, 945881, Control_c, 0, 64, 0
1, 945881, Control_c, 1, 64, 0
1, 945890, Note_on_c, 0, 48, 61
1, 945897, Note_off_c, 0, 52, 63
1, 945919, Control_c, 0, 64, 18
1, 945919, Control_c, 1, 64, 18
1, 945932, Poly_aftertouch_c, 0, 54, 0
1, 945937, Control_c, 0, 64, 55
1, 945937, Control_c, 1, 64, 55
1, 945947, Note_on_c, 0, 60, 64
1, 945948, Note_on_c, 0, 93, 80
1, 945955, Note_on_c, 0, 81, 70
1, 945956, Control_c, 0, 64, 115
1, 945956, Control_c, 1, 64, 115
1, 945962, Note_off_c, 0, 48, 57
1, 945976, Control_c, 0, 64, 127
1, 945976, Control_c, 1, 64, 127
1, 945977, Note_off_c, 0, 93, 65
1, 945984, Note_off_c, 0, 81, 70
1, 946024, Note_off_c, 0, 60, 58
1, 946024, Poly_aftertouch_c, 0, 50, 0
1, 946029, Note_on_c, 0, 52, 61
1, 946059, Note_on_c, 0, 53, 67
1, 946077, Poly_aftertouch_c, 0, 92, 0
1, 946107, Control_c, 0, 64, 71
1, 946107, Control_c, 1, 64, 71
1, 946109, Note_off_c, 0, 52, 58
1, 946125, Control_c, 0, 64, 12
1, 946125, Control_c, 1, 64, 12
1, 946129, Note_off_c, 0, 53, 60
1, 946143, Control_c, 0, 64, 0
1, 946143, Control_c, 1, 64, 0
1, 946145, Note_on_c, 0, 86, 78
1, 946157, Note_on_c, 0, 74, 69
1, 946158, Note_on_c, 0, 59, 76
1, 946182, Note_off_c, 0, 74, 69
1, 946194, Note_off_c, 0, 86, 63
1, 946198, Control_c, 0, 64, 23
1, 946198, Control_c, 1, 64, 23
1, 946219, Control_c, 1, 64, 62
1, 946219, Control_c, 0, 64, 62
1, 946223, Note_off_c, 0, 59, 50
1, 946238, Control_c, 0, 64, 115
1, 946238, Control_c, 1, 64, 115
1, 946250, Note_on_c, 0, 57, 70
1, 946257, Control_c, 0, 64, 127
1, 946257, Control_c, 1, 64, 127
1, 946314, Note_off_c, 0, 57, 63
1, 946316, Note_on_c, 0, 52, 68
1, 946321, Note_on_c, 0, 75, 75
1, 946321, Note_on_c, 0, 87, 76
1, 946351, Note_off_c, 0, 75, 64
1, 946355, Note_on_c, 0, 60, 78
1, 946366, Note_off_c, 0, 52, 61
1, 946377, Note_off_c, 0, 87, 60
1, 946399, Note_off_c, 0, 60, 58
1, 946444, Control_c, 0, 64, 114
1, 946444, Control_c, 1, 64, 114
1, 946464, Control_c, 1, 64, 55
1, 946464, Control_c, 0, 64, 55
1, 946481, Control_c, 0, 64, 0
1, 946481, Control_c, 1, 64, 0
1, 946489, Note_on_c, 0, 88, 81
1, 946490, Poly_aftertouch_c, 0, 57, 0
1, 946499, Note_on_c, 0, 76, 70
1, 946508, Note_on_c, 0, 40, 81
1, 946529, Note_off_c, 0, 76, 68
1, 946534, Note_off_c, 0, 88, 63
1, 946537, Control_c, 0, 64, 13
1, 946537, Control_c, 1, 64, 13
1, 946540, Note_off_c, 0, 40, 65
1, 946540, Poly_aftertouch_c, 0, 40, 0
1, 946556, Control_c, 0, 64, 55
1, 946556, Control_c, 1, 64, 55
1, 946558, Control_c, 1, 67, 117
1, 946558, Control_c, 0, 67, 117
1, 946575, Control_c, 0, 64, 127
1, 946575, Control_c, 1, 64, 127
1, 946612, Control_c, 1, 67, 123
1, 946612, Control_c, 0, 67, 123
1, 946630, Note_on_c, 0, 56, 63
1, 946696, Note_on_c, 0, 83, 69
1, 946701, Note_off_c, 0, 56, 56
1, 946711, Note_on_c, 0, 71, 57
1, 946722, Note_on_c, 0, 47, 66
1, 946737, Note_off_c, 0, 71, 60
1, 946750, Note_off_c, 0, 83, 51
1, 946762, Control_c, 0, 64, 67
1, 946762, Control_c, 1, 64, 67
1, 946764, Control_c, 1, 67, 127
1, 946764, Control_c, 0, 67, 127
1, 946781, Control_c, 0, 64, 20
1, 946781, Control_c, 1, 64, 20
1, 946799, Control_c, 1, 64, 0
1, 946799, Control_c, 0, 64, 0
1, 946817, Note_on_c, 0, 45, 71
1, 946848, Note_off_c, 0, 47, 45
1, 946892, Note_on_c, 0, 84, 80
1, 946905, Note_on_c, 0, 72, 61
1, 946909, Note_on_c, 0, 59, 73
1, 946920, Note_off_c, 0, 45, 46
1, 946931, Note_off_c, 0, 72, 62
1, 946943, Note_off_c, 0, 84, 57
1, 946989, Note_off_c, 0, 59, 58
1, 946994, Note_on_c, 0, 52, 59
1, 947060, Note_on_c, 0, 45, 65
1, 947069, Note_off_c, 0, 52, 61
1, 947076, Note_on_c, 0, 88, 74
1, 947095, Note_on_c, 0, 76, 58
1, 947116, Note_on_c, 0, 57, 69
1, 947125, Note_off_c, 0, 76, 64
1, 947129, Note_off_c, 0, 45, 57
1, 947139, Note_off_c, 0, 88, 65
1, 947206, Note_on_c, 0, 52, 52
1, 947212, Note_off_c, 0, 57, 59
1, 947260, Note_on_c, 0, 48, 62
1, 947262, Note_off_c, 0, 52, 60
1, 947283, Note_on_c, 0, 92, 77
1, 947287, Note_on_c, 0, 80, 72
1, 947321, Note_off_c, 0, 48, 57
1, 947326, Note_off_c, 0, 80, 61
1, 947326, Poly_aftertouch_c, 0, 80, 0
1, 947354, Note_off_c, 0, 92, 60
1, 947433, Note_on_c, 0, 45, 53
1, 947535, Note_on_c, 0, 93, 67
1, 947539, Note_off_c, 0, 45, 54
1, 947544, Note_on_c, 0, 33, 39
1, 947556, Note_on_c, 0, 81, 40
1, 947642, Control_c, 0, 64, 8
1, 947642, Control_c, 1, 64, 8
1, 947660, Control_c, 1, 64, 27
1, 947660, Control_c, 0, 64, 27
1, 947678, Control_c, 0, 64, 53
1, 947678, Control_c, 1, 64, 53
1, 947696, Note_off_c, 0, 81, 54
1, 947698, Control_c, 0, 64, 73
1, 947698, Control_c, 1, 64, 73
1, 947716, Control_c, 1, 64, 86
1, 947716, Control_c, 0, 64, 86
1, 947724, Note_off_c, 0, 93, 60
1, 947735, Control_c, 0, 64, 99
1, 947735, Control_c, 1, 64, 99
1, 947748, Note_off_c, 0, 33, 53
1, 947748, Poly_aftertouch_c, 0, 33, 0
1, 947753, Control_c, 0, 64, 114
1, 947753, Control_c, 1, 64, 114
1, 947772, Control_c, 1, 64, 127
1, 947772, Control_c, 0, 64, 127
1, 948110, Control_c, 0, 64, 122
1, 948110, Control_c, 1, 64, 122
1, 948128, Control_c, 1, 64, 111
1, 948128, Control_c, 0, 64, 111
1, 948165, Control_c, 0, 64, 107
1, 948165, Control_c, 1, 64, 107
1, 948203, Control_c, 1, 64, 102
1, 948203, Control_c, 0, 64, 102
1, 948221, Control_c, 0, 64, 97
1, 948221, Control_c, 1, 64, 97
1, 948241, Control_c, 1, 64, 92
1, 948241, Control_c, 0, 64, 92
1, 948259, Control_c, 0, 64, 87
1, 948259, Control_c, 1, 64, 87
1, 948277, Control_c, 1, 64, 84
1, 948277, Control_c, 0, 64, 84
1, 948298, Control_c, 0, 64, 82
1, 948298, Control_c, 1, 64, 82
1, 948315, Control_c, 1, 64, 80
1, 948315, Control_c, 0, 64, 80
1, 948334, Control_c, 0, 64, 76
1, 948334, Control_c, 1, 64, 76
1, 948353, Control_c, 1, 64, 73
1, 948353, Control_c, 0, 64, 73
1, 948372, Control_c, 0, 64, 68
1, 948372, Control_c, 1, 64, 68
1, 948390, Control_c, 1, 64, 64
1, 948390, Control_c, 0, 64, 64
1, 948410, Control_c, 0, 64, 62
1, 948410, Control_c, 1, 64, 62
1, 948502, Control_c, 1, 64, 61
1, 948502, Control_c, 0, 64, 61
1, 948558, Control_c, 0, 64, 60
1, 948558, Control_c, 1, 64, 60
1, 948614, Control_c, 1, 64, 58
1, 948614, Control_c, 0, 64, 58
1, 948634, Control_c, 0, 64, 56
1, 948634, Control_c, 1, 64, 56
1, 948671, Control_c, 1, 64, 54
1, 948671, Control_c, 0, 64, 54
1, 949213, Control_c, 0, 64, 56
1, 949213, Control_c, 1, 64, 56
1, 949345, Control_c, 1, 67, 123
1, 949345, Control_c, 0, 67, 123
1, 949383, Control_c, 0, 64, 58
1, 949383, Control_c, 1, 64, 58
1, 949384, Control_c, 1, 67, 118
1, 949384, Control_c, 0, 67, 118
1, 949420, Control_c, 0, 64, 61
1, 949420, Control_c, 1, 64, 61
1, 949421, Control_c, 1, 67, 113
1, 949421, Control_c, 0, 67, 113
1, 949438, Control_c, 0, 64, 62
1, 949438, Control_c, 1, 64, 62
1, 949458, Control_c, 1, 64, 64
1, 949458, Control_c, 1, 67, 107
1, 949458, Control_c, 0, 64, 64
1, 949458, Control_c, 0, 67, 107
1, 949476, Control_c, 0, 64, 65
1, 949476, Control_c, 1, 64, 65
1, 949478, Control_c, 1, 67, 102
1, 949478, Control_c, 0, 67, 102
1, 949494, Control_c, 0, 64, 67
1, 949494, Control_c, 1, 64, 67
1, 949495, Control_c, 1, 67, 94
1, 949495, Control_c, 0, 67, 94
1, 949515, Control_c, 0, 64, 70
1, 949515, Control_c, 1, 64, 70
1, 949516, Control_c, 1, 67, 84
1, 949516, Control_c, 0, 67, 84
1, 949532, Control_c, 0, 64, 74
1, 949532, Control_c, 1, 64, 74
1, 949534, Control_c, 1, 67, 74
1, 949534, Control_c, 0, 67, 74
1, 949551, Control_c, 0, 64, 80
1, 949551, Control_c, 0, 67, 65
1, 949551, Control_c, 1, 64, 80
1, 949551, Control_c, 1, 67, 65
1, 949573, Control_c, 1, 64, 90
1, 949573, Control_c, 0, 64, 90
1, 949575, Control_c, 0, 67, 58
1, 949575, Control_c, 1, 67, 58
1, 949589, Control_c, 1, 64, 103
1, 949589, Control_c, 0, 64, 103
1, 949590, Control_c, 0, 67, 54
1, 949590, Control_c, 1, 67, 54
1, 949606, Control_c, 1, 64, 127
1, 949606, Control_c, 0, 64, 127
1, 949663, Control_c, 0, 67, 50
1, 949663, Control_c, 1, 67, 50
1, 949701, Control_c, 1, 67, 44
1, 949701, Control_c, 0, 67, 44
1, 949719, Control_c, 0, 67, 37
1, 949719, Control_c, 1, 67, 37
1, 949736, Control_c, 1, 67, 30
1, 949736, Note_on_c, 0, 76, 47
1, 949736, Control_c, 0, 67, 30
1, 949749, Note_on_c, 0, 72, 42
1, 949755, Control_c, 0, 67, 22
1, 949755, Control_c, 1, 67, 22
1, 949776, Control_c, 1, 67, 14
1, 949776, Control_c, 0, 67, 14
1, 949785, Note_off_c, 0, 76, 64
1, 949785, Note_off_c, 0, 72, 50
1, 949794, Control_c, 0, 67, 9
1, 949794, Control_c, 1, 67, 9
1, 949811, Note_on_c, 0, 69, 50
1, 949818, Note_on_c, 0, 81, 64
1, 949850, Control_c, 0, 67, 0
1, 949850, Control_c, 1, 67, 0
1, 949856, Note_off_c, 0, 69, 62
1, 949857, Note_off_c, 0, 81, 63
1, 949861, Note_on_c, 0, 84, 73
1, 949882, Note_on_c, 0, 64, 57
1, 949904, Note_off_c, 0, 84, 62
1, 949916, Note_off_c, 0, 64, 61
1, 949970, Note_on_c, 0, 88, 79
1, 950014, Note_on_c, 0, 57, 67
1, 950020, Note_on_c, 0, 45, 87
1, 950032, Note_on_c, 0, 100, 93
1, 950054, Note_off_c, 0, 57, 66
1, 950059, Note_off_c, 0, 88, 62
1, 950070, Note_off_c, 0, 45, 58
1, 950111, Note_off_c, 0, 100, 63
1, 950150, Control_c, 0, 64, 88
1, 950150, Control_c, 1, 64, 88
1, 950168, Control_c, 1, 64, 61
1, 950168, Control_c, 0, 64, 61
1, 950188, Control_c, 0, 64, 39
1, 950188, Control_c, 1, 64, 39
1, 950205, Control_c, 1, 64, 26
1, 950205, Control_c, 0, 64, 26
1, 950224, Control_c, 0, 64, 20
1, 950224, Control_c, 1, 64, 20
1, 950244, Note_on_c, 0, 93, 80
1, 950249, Note_on_c, 0, 96, 71
1, 950262, Control_c, 0, 64, 15
1, 950262, Control_c, 1, 64, 15
1, 950272, Note_off_c, 0, 93, 70
1, 950278, Note_off_c, 0, 96, 59
1, 950278, Note_on_c, 0, 48, 42
1, 950295, Note_on_c, 0, 95, 33
1, 950296, Note_off_c, 0, 95, 127
1, 950298, Control_c, 0, 64, 10
1, 950298, Control_c, 1, 64, 10
1, 950324, Note_off_c, 0, 48, 35
1, 950350, Poly_aftertouch_c, 0, 52, 0
1, 950416, Note_on_c, 0, 88, 74
1, 950421, Note_on_c, 0, 57, 68
1, 950465, Note_off_c, 0, 88, 64
1, 950467, Note_off_c, 0, 57, 65
1, 950622, Note_on_c, 0, 81, 65
1, 950623, Note_on_c, 0, 84, 67
1, 950642, Note_on_c, 0, 64, 45
1, 950647, Note_on_c, 0, 60, 38
1, 950654, Note_off_c, 0, 81, 67
1, 950657, Note_off_c, 0, 84, 64
1, 950678, Note_off_c, 0, 64, 49
1, 950690, Note_off_c, 0, 60, 45
1, 950768, Control_c, 0, 64, 20
1, 950768, Control_c, 1, 64, 20
1, 950785, Control_c, 1, 64, 32
1, 950785, Control_c, 0, 64, 32
1, 950786, Note_on_c, 0, 76, 67
1, 950804, Note_on_c, 0, 69, 60
1, 950804, Control_c, 0, 64, 54
1, 950804, Control_c, 1, 64, 54
1, 950817, Note_off_c, 0, 76, 67
1, 950822, Control_c, 0, 64, 76
1, 950822, Control_c, 1, 64, 76
1, 950843, Control_c, 1, 64, 99
1, 950843, Control_c, 0, 64, 99
1, 950845, Note_off_c, 0, 69, 61
1, 950861, Control_c, 0, 64, 127
1, 950861, Control_c, 1, 64, 127
1, 950966, Note_on_c, 0, 71, 66
1, 950980, Note_on_c, 0, 68, 74
1, 951004, Note_on_c, 0, 76, 60
1, 951006, Note_off_c, 0, 71, 63
1, 951015, Note_off_c, 0, 68, 68
1, 951020, Note_on_c, 0, 64, 57
1, 951070, Note_on_c, 0, 59, 73
1, 951072, Note_off_c, 0, 64, 63
1, 951074, Note_on_c, 0, 80, 79
1, 951083, Note_off_c, 0, 76, 63
1, 951098, Poly_aftertouch_c, 0, 69, 0
1, 951109, Note_off_c, 0, 59, 65
1, 951132, Note_off_c, 0, 80, 64
1, 951132, Poly_aftertouch_c, 0, 80, 0
1, 951177, Note_on_c, 0, 83, 83
1, 951214, Note_on_c, 0, 52, 68
1, 951215, Control_c, 0, 64, 107
1, 951215, Control_c, 1, 64, 107
1, 951220, Note_on_c, 0, 40, 86
1, 951225, Note_on_c, 0, 95, 97
1, 951236, Control_c, 0, 64, 64
1, 951236, Control_c, 1, 64, 64
1, 951248, Note_off_c, 0, 83, 64
1, 951252, Note_off_c, 0, 52, 63
1, 951253, Control_c, 0, 64, 22
1, 951253, Control_c, 1, 64, 22
1, 951272, Control_c, 1, 64, 0
1, 951272, Control_c, 0, 64, 0
1, 951281, Note_off_c, 0, 40, 60
1, 951281, Poly_aftertouch_c, 0, 40, 0
1, 951284, Note_off_c, 0, 95, 66
1, 951418, Note_on_c, 0, 92, 83
1, 951428, Note_on_c, 0, 88, 60
1, 951437, Note_on_c, 0, 47, 60
1, 951439, Note_on_c, 0, 44, 64
1, 951446, Note_off_c, 0, 92, 68
1, 951453, Note_off_c, 0, 88, 64
1, 951468, Note_off_c, 0, 47, 61
1, 951473, Note_off_c, 0, 44, 63
1, 951583, Note_on_c, 0, 83, 72
1, 951586, Note_on_c, 0, 52, 64
1, 951630, Note_off_c, 0, 83, 65
1, 951636, Note_off_c, 0, 52, 61
1, 951777, Note_on_c, 0, 80, 69
1, 951789, Note_on_c, 0, 56, 53
1, 951793, Note_on_c, 0, 59, 40
1, 951793, Note_on_c, 0, 76, 51
1, 951823, Note_off_c, 0, 76, 60
1, 951827, Note_off_c, 0, 59, 35
1, 951831, Note_off_c, 0, 56, 59
1, 951844, Note_off_c, 0, 80, 58
1, 951844, Poly_aftertouch_c, 0, 80, 0
1, 951910, Control_c, 0, 64, 11
1, 951910, Control_c, 1, 64, 11
1, 951929, Control_c, 1, 64, 20
1, 951929, Control_c, 0, 64, 20
1, 951946, Control_c, 0, 64, 34
1, 951946, Control_c, 1, 64, 34
1, 951965, Control_c, 1, 64, 55
1, 951965, Note_on_c, 0, 71, 55
1, 951965, Control_c, 0, 64, 55
1, 951967, Note_on_c, 0, 64, 50
1, 951985, Control_c, 0, 64, 73
1, 951985, Control_c, 1, 64, 73
1, 951993, Note_off_c, 0, 71, 61
1, 952003, Control_c, 0, 64, 87
1, 952003, Control_c, 1, 64, 87
1, 952004, Note_off_c, 0, 64, 59
1, 952021, Control_c, 0, 64, 110
1, 952021, Control_c, 1, 64, 110
1, 952040, Control_c, 1, 64, 127
1, 952040, Control_c, 0, 64, 127
1, 952136, Note_on_c, 0, 64, 57
1, 952187, Note_off_c, 0, 64, 63
1, 952187, Note_on_c, 0, 60, 60
1, 952201, Note_on_c, 0, 57, 64
1, 952222, Note_off_c, 0, 60, 62
1, 952241, Note_on_c, 0, 69, 64
1, 952278, Note_off_c, 0, 57, 62
1, 952280, Note_off_c, 0, 69, 61
1, 952291, Note_on_c, 0, 52, 64
1, 952295, Note_on_c, 0, 72, 78
1, 952323, Poly_aftertouch_c, 0, 62, 0
1, 952326, Note_off_c, 0, 72, 67
1, 952330, Note_off_c, 0, 52, 64
1, 952396, Note_on_c, 0, 76, 80
1, 952406, Note_on_c, 0, 45, 78
1, 952412, Note_on_c, 0, 33, 86
1, 952414, Control_c, 0, 64, 77
1, 952414, Control_c, 1, 64, 77
1, 952427, Note_on_c, 0, 88, 91
1, 952433, Control_c, 0, 64, 41
1, 952433, Control_c, 1, 64, 41
1, 952443, Note_off_c, 0, 45, 69
1, 952449, Note_off_c, 0, 76, 62
1, 952451, Control_c, 0, 64, 0
1, 952451, Control_c, 1, 64, 0
1, 952455, Note_off_c, 0, 33, 65
1, 952455, Poly_aftertouch_c, 0, 33, 0
1, 952477, Note_off_c, 0, 88, 65
1, 952620, Note_on_c, 0, 84, 81
1, 952621, Note_on_c, 0, 81, 78
1, 952638, Note_on_c, 0, 36, 56
1, 952640, Note_on_c, 0, 40, 49
1, 952646, Note_off_c, 0, 81, 72
1, 952657, Note_off_c, 0, 84, 62
1, 952676, Note_off_c, 0, 36, 57
1, 952680, Note_off_c, 0, 40, 51
1, 952680, Poly_aftertouch_c, 0, 40, 0
1, 952789, Note_on_c, 0, 45, 67
1, 952789, Note_on_c, 0, 76, 75
1, 952826, Note_off_c, 0, 76, 62
1, 952829, Note_off_c, 0, 45, 63
1, 952981, Note_on_c, 0, 72, 65
1, 952985, Note_on_c, 0, 69, 59
1, 953002, Note_on_c, 0, 52, 45
1, 953006, Note_on_c, 0, 48, 35
1, 953012, Note_off_c, 0, 69, 58
1, 953016, Note_off_c, 0, 72, 66
1, 953042, Note_off_c, 0, 52, 34
1, 953051, Control_c, 0, 67, 8
1, 953051, Control_c, 1, 67, 8
1, 953054, Note_off_c, 0, 48, 32
1, 953088, Control_c, 0, 64, 10
1, 953088, Control_c, 1, 64, 10
1, 953107, Control_c, 1, 64, 23
1, 953107, Control_c, 0, 64, 23
1, 953126, Control_c, 0, 64, 42
1, 953126, Control_c, 1, 64, 42
1, 953127, Control_c, 1, 67, 12
1, 953127, Control_c, 0, 67, 12
1, 953145, Control_c, 0, 64, 61
1, 953145, Control_c, 1, 64, 61
1, 953158, Note_on_c, 0, 57, 49
1, 953164, Note_on_c, 0, 64, 51
1, 953164, Control_c, 0, 64, 73
1, 953164, Control_c, 0, 67, 19
1, 953164, Control_c, 1, 64, 73
1, 953164, Control_c, 1, 67, 19
1, 953169, Note_on_c, 0, 65, 32
1, 953183, Control_c, 0, 64, 81
1, 953183, Control_c, 1, 64, 81
1, 953184, Control_c, 1, 67, 26
1, 953184, Control_c, 0, 67, 26
1, 953199, Note_off_c, 0, 57, 53
1, 953200, Note_off_c, 0, 64, 54
1, 953200, Control_c, 0, 64, 89
1, 953200, Control_c, 1, 64, 89
1, 953202, Control_c, 1, 67, 37
1, 953202, Control_c, 0, 67, 37
1, 953217, Note_off_c, 0, 65, 43
1, 953219, Control_c, 0, 64, 99
1, 953219, Control_c, 1, 64, 99
1, 953220, Control_c, 1, 67, 47
1, 953220, Control_c, 0, 67, 47
1, 953238, Control_c, 0, 64, 118
1, 953238, Control_c, 1, 64, 118
1, 953239, Control_c, 1, 67, 54
1, 953239, Control_c, 0, 67, 54
1, 953257, Control_c, 0, 64, 127
1, 953257, Control_c, 1, 64, 127
1, 953349, Note_on_c, 0, 59, 55
1, 953359, Note_on_c, 0, 63, 63
1, 953362, Note_on_c, 0, 56, 65
1, 953388, Note_on_c, 0, 52, 57
1, 953391, Note_off_c, 0, 59, 64
1, 953395, Note_off_c, 0, 56, 65
1, 953443, Note_off_c, 0, 52, 61
1, 953463, Note_off_c, 0, 63, 64
1, 953463, Note_on_c, 0, 47, 60
1, 953467, Note_on_c, 0, 68, 74
1, 953502, Note_off_c, 0, 47, 64
1, 953508, Note_off_c, 0, 68, 66
1, 953573, Note_on_c, 0, 69, 56
1, 953601, Note_off_c, 0, 69, 57
1, 953613, Control_c, 0, 64, 96
1, 953613, Control_c, 1, 64, 96
1, 953631, Control_c, 1, 64, 66
1, 953631, Control_c, 0, 64, 66
1, 953636, Note_on_c, 0, 83, 78
1, 953641, Note_on_c, 0, 28, 77
1, 953645, Note_on_c, 0, 80, 73
1, 953651, Control_c, 0, 64, 39
1, 953651, Control_c, 1, 64, 39
1, 953667, Control_c, 1, 64, 16
1, 953667, Note_on_c, 0, 81, 53
1, 953667, Control_c, 0, 64, 16
1, 953669, Note_on_c, 0, 78, 46
1, 953698, Note_off_c, 0, 81, 40
1, 953706, Note_off_c, 0, 78, 55
1, 953800, Control_c, 0, 64, 0
1, 953800, Control_c, 1, 64, 0
1, 954249, Control_c, 1, 67, 58
1, 954249, Control_c, 0, 67, 58
1, 954286, Control_c, 0, 64, 16
1, 954286, Control_c, 1, 64, 16
1, 954292, Note_off_c, 0, 28, 61
1, 954299, Note_on_c, 0, 76, 60
1, 954305, Control_c, 0, 64, 39
1, 954305, Control_c, 1, 64, 39
1, 954323, Note_on_c, 0, 40, 43
1, 954325, Control_c, 0, 64, 67
1, 954325, Control_c, 1, 64, 67
1, 954327, Control_c, 1, 67, 65
1, 954327, Control_c, 0, 67, 65
1, 954330, Note_off_c, 0, 80, 60
1, 954330, Note_off_c, 0, 83, 50
1, 954330, Poly_aftertouch_c, 0, 80, 0
1, 954339, Note_off_c, 0, 76, 65
1, 954343, Control_c, 0, 64, 88
1, 954343, Control_c, 1, 64, 88
1, 954346, Control_c, 1, 67, 69
1, 954346, Control_c, 0, 67, 69
1, 954362, Control_c, 0, 64, 127
1, 954362, Control_c, 1, 64, 127
1, 954364, Control_c, 1, 67, 74
1, 954364, Control_c, 0, 67, 74
1, 954366, Note_off_c, 0, 40, 60
1, 954366, Poly_aftertouch_c, 0, 40, 0
1, 954380, Control_c, 0, 67, 80
1, 954380, Control_c, 1, 67, 80
1, 954399, Control_c, 1, 67, 88
1, 954399, Control_c, 0, 67, 88
1, 954417, Control_c, 0, 67, 98
1, 954417, Control_c, 1, 67, 98
1, 954436, Control_c, 1, 67, 108
1, 954436, Control_c, 0, 67, 108
1, 954455, Control_c, 0, 67, 117
1, 954455, Control_c, 1, 67, 117
1, 954474, Control_c, 1, 67, 123
1, 954474, Control_c, 0, 67, 123
1, 954511, Control_c, 0, 67, 127
1, 954511, Control_c, 1, 67, 127
1, 954669, Note_on_c, 0, 72, 58
1, 954677, Note_on_c, 0, 76, 70
1, 954694, Note_off_c, 0, 72, 61
1, 954721, Note_off_c, 0, 76, 62
1, 954730, Note_on_c, 0, 81, 54
1, 954738, Note_on_c, 0, 69, 55
1, 954771, Note_off_c, 0, 81, 67
1, 954775, Note_on_c, 0, 84, 73
1, 954786, Note_off_c, 0, 69, 61
1, 954799, Note_on_c, 0, 64, 65
1, 954812, Note_off_c, 0, 84, 63
1, 954835, Note_off_c, 0, 64, 67
1, 954867, Control_c, 0, 64, 94
1, 954867, Control_c, 1, 64, 94
1, 954882, Note_on_c, 0, 88, 72
1, 954884, Control_c, 0, 64, 54
1, 954884, Control_c, 1, 64, 54
1, 954904, Control_c, 1, 64, 0
1, 954904, Control_c, 0, 64, 0
1, 954934, Note_on_c, 0, 100, 87
1, 954937, Note_on_c, 0, 57, 45
1, 954937, Note_on_c, 0, 45, 78
1, 954952, Note_off_c, 0, 88, 59
1, 954973, Note_off_c, 0, 45, 67
1, 954973, Note_off_c, 0, 57, 50
1, 954990, Note_off_c, 0, 100, 60
1, 955142, Note_on_c, 0, 93, 78
1, 955143, Note_on_c, 0, 96, 76
1, 955171, Note_off_c, 0, 93, 69
1, 955171, Note_on_c, 0, 48, 42
1, 955176, Note_off_c, 0, 96, 65
1, 955182, Note_on_c, 0, 52, 25
1, 955217, Note_off_c, 0, 48, 35
1, 955245, Note_off_c, 0, 52, 33
1, 955303, Note_on_c, 0, 57, 64
1, 955308, Note_on_c, 0, 88, 72
1, 955341, Note_off_c, 0, 57, 66
1, 955347, Note_off_c, 0, 88, 62
1, 955494, Note_on_c, 0, 84, 66
1, 955499, Note_on_c, 0, 81, 53
1, 955501, Note_on_c, 0, 60, 48
1, 955527, Note_off_c, 0, 84, 68
1, 955531, Note_off_c, 0, 81, 40
1, 955534, Note_off_c, 0, 60, 52
1, 955540, Poly_aftertouch_c, 0, 64, 0
1, 955615, Control_c, 0, 64, 24
1, 955615, Control_c, 1, 64, 24
1, 955634, Control_c, 1, 64, 50
1, 955634, Control_c, 0, 64, 50
1, 955647, Note_on_c, 0, 76, 58
1, 955654, Control_c, 0, 64, 73
1, 955654, Control_c, 1, 64, 73
1, 955660, Note_on_c, 0, 69, 57
1, 955672, Control_c, 0, 64, 90
1, 955672, Control_c, 1, 64, 90
1, 955674, Note_off_c, 0, 76, 63
1, 955687, Note_off_c, 0, 69, 60
1, 955690, Control_c, 0, 64, 127
1, 955690, Control_c, 1, 64, 127
1, 955829, Note_on_c, 0, 71, 66
1, 955838, Note_on_c, 0, 68, 70
1, 955864, Note_on_c, 0, 76, 54
1, 955866, Note_off_c, 0, 71, 69
1, 955869, Note_on_c, 0, 64, 61
1, 955871, Note_off_c, 0, 68, 68
1, 955922, Note_off_c, 0, 64, 61
1, 955933, Note_off_c, 0, 76, 60
1, 955936, Note_on_c, 0, 80, 72
1, 955939, Note_on_c, 0, 59, 64
1, 955969, Note_off_c, 0, 80, 67
1, 955969, Poly_aftertouch_c, 0, 80, 0
1, 955973, Note_off_c, 0, 59, 65
1, 956054, Note_on_c, 0, 83, 71
1, 956083, Control_c, 0, 64, 75
1, 956083, Control_c, 1, 64, 75
1, 956086, Note_on_c, 0, 95, 92
1, 956088, Note_on_c, 0, 52, 51
1, 956089, Note_on_c, 0, 40, 74
1, 956103, Control_c, 0, 64, 39
1, 956103, Control_c, 1, 64, 39
1, 956113, Note_off_c, 0, 83, 52
1, 956116, Note_off_c, 0, 52, 57
1, 956119, Control_c, 0, 64, 0
1, 956119, Control_c, 1, 64, 0
1, 956127, Note_off_c, 0, 40, 64
1, 956127, Poly_aftertouch_c, 0, 40, 0
1, 956142, Note_off_c, 0, 95, 64
1, 956283, Note_on_c, 0, 92, 80
1, 956292, Note_on_c, 0, 88, 66
1, 956303, Note_on_c, 0, 44, 54
1, 956323, Note_off_c, 0, 88, 69
1, 956330, Note_off_c, 0, 92, 60
1, 956330, Note_on_c, 0, 47, 18
1, 956339, Note_off_c, 0, 44, 60
1, 956401, Note_off_c, 0, 47, 29
1, 956449, Note_on_c, 0, 83, 72
1, 956453, Note_on_c, 0, 52, 53
1, 956493, Note_off_c, 0, 83, 63
1, 956499, Note_off_c, 0, 52, 61
1, 956639, Note_on_c, 0, 80, 67
1, 956649, Note_on_c, 0, 56, 53
1, 956658, Note_on_c, 0, 76, 51
1, 956680, Note_off_c, 0, 56, 59
1, 956682, Control_c, 0, 64, 16
1, 956682, Control_c, 1, 64, 16
1, 956684, Note_off_c, 0, 76, 62
1, 956701, Control_c, 0, 64, 32
1, 956701, Control_c, 1, 64, 32
1, 956705, Note_off_c, 0, 80, 51
1, 956705, Poly_aftertouch_c, 0, 80, 0
1, 956721, Control_c, 0, 64, 53
1, 956721, Control_c, 1, 64, 53
1, 956739, Control_c, 1, 64, 68
1, 956739, Control_c, 0, 64, 68
1, 956757, Control_c, 0, 64, 76
1, 956757, Control_c, 1, 64, 76
1, 956777, Control_c, 1, 64, 79
1, 956777, Control_c, 0, 64, 79
1, 956795, Control_c, 0, 64, 83
1, 956795, Control_c, 1, 64, 83
1, 956814, Control_c, 1, 64, 90
1, 956814, Control_c, 0, 64, 90
1, 956832, Control_c, 0, 64, 105
1, 956832, Control_c, 1, 64, 105
1, 956844, Note_on_c, 0, 71, 15
1, 956846, Note_on_c, 0, 64, 35
1, 956851, Control_c, 0, 64, 127
1, 956851, Control_c, 1, 64, 127
1, 956895, Note_off_c, 0, 64, 45
1, 956911, Note_off_c, 0, 71, 35
1, 956995, Note_on_c, 0, 64, 67
1, 957028, Note_off_c, 0, 64, 66
1, 957064, Note_on_c, 0, 57, 70
1, 957078, Note_on_c, 0, 69, 72
1, 957117, Note_off_c, 0, 69, 59
1, 957122, Poly_aftertouch_c, 0, 60, 0
1, 957125, Note_off_c, 0, 57, 60
1, 957146, Note_on_c, 0, 72, 69
1, 957147, Note_on_c, 0, 52, 63
1, 957171, Note_off_c, 0, 72, 68
1, 957181, Note_off_c, 0, 52, 63
1, 957244, Note_on_c, 0, 76, 72
1, 957264, Control_c, 0, 64, 112
1, 957264, Control_c, 1, 64, 112
1, 957281, Control_c, 1, 64, 72
1, 957281, Control_c, 0, 64, 72
1, 957284, Note_on_c, 0, 45, 53
1, 957285, Note_on_c, 0, 88, 88
1, 957288, Note_on_c, 0, 33, 77
1, 957292, Note_off_c, 0, 76, 58
1, 957298, Control_c, 0, 64, 36
1, 957298, Control_c, 1, 64, 36
1, 957319, Control_c, 1, 64, 0
1, 957319, Control_c, 0, 64, 0
1, 957324, Note_off_c, 0, 45, 63
1, 957334, Note_off_c, 0, 33, 63
1, 957334, Poly_aftertouch_c, 0, 33, 0
1, 957341, Note_off_c, 0, 88, 64
1, 957489, Note_on_c, 0, 81, 69
1, 957490, Note_on_c, 0, 84, 73
1, 957514, Note_on_c, 0, 36, 44
1, 957515, Note_off_c, 0, 84, 64
1, 957515, Note_on_c, 0, 40, 37
1, 957518, Note_off_c, 0, 81, 69
1, 957556, Note_off_c, 0, 36, 49
1, 957560, Note_off_c, 0, 40, 32
1, 957560, Poly_aftertouch_c, 0, 40, 0
1, 957654, Note_on_c, 0, 76, 59
1, 957656, Note_on_c, 0, 45, 60
1, 957685, Note_off_c, 0, 76, 59
1, 957696, Note_off_c, 0, 45, 64
1, 957852, Note_on_c, 0, 72, 61
1, 957854, Note_on_c, 0, 48, 47
1, 957854, Note_on_c, 0, 69, 60
1, 957859, Note_on_c, 0, 52, 37
1, 957888, Note_off_c, 0, 72, 63
1, 957893, Note_off_c, 0, 69, 63
1, 957904, Note_off_c, 0, 48, 62
1, 957905, Note_off_c, 0, 52, 51
1, 957955, Control_c, 0, 64, 15
1, 957955, Control_c, 1, 64, 15
1, 957974, Control_c, 1, 64, 34
1, 957974, Control_c, 0, 64, 34
1, 957992, Control_c, 0, 64, 56
1, 957992, Control_c, 1, 64, 56
1, 958012, Control_c, 1, 64, 69
1, 958012, Control_c, 0, 64, 69
1, 958030, Control_c, 0, 64, 74
1, 958030, Control_c, 1, 64, 74
1, 958039, Note_on_c, 0, 64, 44
1, 958039, Note_on_c, 0, 57, 54
1, 958068, Control_c, 0, 64, 77
1, 958068, Control_c, 1, 64, 77
1, 958076, Note_off_c, 0, 64, 51
1, 958086, Control_c, 0, 64, 83
1, 958086, Control_c, 1, 64, 83
1, 958088, Note_off_c, 0, 57, 63
1, 958105, Control_c, 0, 64, 95
1, 958105, Control_c, 1, 64, 95
1, 958125, Control_c, 1, 64, 127
1, 958125, Control_c, 0, 64, 127
1, 958139, Poly_aftertouch_c, 0, 65, 0
1, 958244, Note_on_c, 0, 59, 57
1, 958254, Note_on_c, 0, 56, 56
1, 958273, Note_on_c, 0, 64, 45
1, 958281, Note_off_c, 0, 56, 61
1, 958281, Note_on_c, 0, 58, 10
1, 958282, Note_off_c, 0, 59, 64
1, 958296, Note_on_c, 0, 52, 55
1, 958339, Note_off_c, 0, 52, 63
1, 958344, Note_off_c, 0, 64, 63
1, 958357, Note_on_c, 0, 68, 71
1, 958359, Note_on_c, 0, 47, 55
1, 958366, Note_off_c, 0, 58, 51
1, 958388, Note_off_c, 0, 68, 70
1, 958392, Note_off_c, 0, 47, 60
1, 958465, Note_on_c, 0, 71, 69
1, 958480, Control_c, 0, 64, 103
1, 958480, Control_c, 1, 64, 103
1, 958498, Control_c, 1, 64, 72
1, 958498, Control_c, 0, 64, 72
1, 958513, Note_off_c, 0, 71, 60
1, 958515, Control_c, 0, 64, 45
1, 958515, Control_c, 1, 64, 45
1, 958535, Note_on_c, 0, 83, 80
1, 958536, Control_c, 0, 64, 18
1, 958536, Control_c, 1, 64, 18
1, 958539, Note_on_c, 0, 28, 60
1, 958553, Control_c, 0, 64, 0
1, 958553, Control_c, 1, 64, 0
1, 958554, Note_on_c, 0, 80, 69
1, 959116, Control_c, 0, 64, 13
1, 959116, Control_c, 1, 64, 13
1, 959134, Control_c, 1, 64, 25
1, 959134, Control_c, 0, 64, 25
1, 959142, Note_off_c, 0, 28, 59
1, 959153, Control_c, 0, 64, 43
1, 959153, Control_c, 1, 64, 43
1, 959162, Note_on_c, 0, 76, 49
1, 959172, Control_c, 0, 64, 63
1, 959172, Control_c, 1, 64, 63
1, 959175, Note_on_c, 0, 40, 45
1, 959191, Control_c, 0, 64, 74
1, 959191, Control_c, 1, 64, 74
1, 959198, Note_off_c, 0, 83, 51
1, 959209, Control_c, 0, 64, 81
1, 959209, Control_c, 1, 64, 81
1, 959211, Note_off_c, 0, 76, 58
1, 959211, Control_c, 0, 67, 120
1, 959211, Control_c, 1, 67, 120
1, 959214, Note_off_c, 0, 80, 49
1, 959214, Poly_aftertouch_c, 0, 80, 0
1, 959218, Note_off_c, 0, 40, 60
1, 959218, Poly_aftertouch_c, 0, 40, 0
1, 959228, Control_c, 0, 64, 87
1, 959228, Control_c, 1, 64, 87
1, 959231, Control_c, 1, 67, 114
1, 959231, Control_c, 0, 67, 114
1, 959246, Control_c, 0, 64, 95
1, 959246, Control_c, 1, 64, 95
1, 959247, Control_c, 1, 67, 105
1, 959247, Control_c, 0, 67, 105
1, 959266, Control_c, 0, 64, 110
1, 959266, Control_c, 1, 64, 110
1, 959267, Control_c, 1, 67, 93
1, 959267, Control_c, 0, 67, 93
1, 959285, Control_c, 0, 64, 127
1, 959285, Control_c, 1, 64, 127
1, 959286, Control_c, 1, 67, 79
1, 959286, Control_c, 0, 67, 79
1, 959304, Control_c, 0, 67, 65
1, 959304, Control_c, 1, 67, 65
1, 959321, Control_c, 1, 67, 53
1, 959321, Control_c, 0, 67, 53
1, 959341, Control_c, 0, 67, 41
1, 959341, Control_c, 1, 67, 41
1, 959359, Control_c, 1, 67, 29
1, 959359, Control_c, 0, 67, 29
1, 959378, Control_c, 0, 67, 18
1, 959378, Control_c, 1, 67, 18
1, 959396, Control_c, 1, 67, 9
1, 959396, Control_c, 0, 67, 9
1, 959471, Control_c, 0, 67, 0
1, 959471, Control_c, 1, 67, 0
1, 959520, Note_on_c, 0, 73, 69
1, 959551, Note_on_c, 0, 76, 51
1, 959554, Note_off_c, 0, 73, 66
1, 959566, Note_on_c, 0, 81, 59
1, 959581, Note_off_c, 0, 76, 58
1, 959595, Note_on_c, 0, 69, 61
1, 959630, Note_on_c, 0, 85, 77
1, 959632, Note_off_c, 0, 81, 59
1, 959640, Note_off_c, 0, 69, 62
1, 959656, Note_on_c, 0, 64, 63
1, 959676, Note_off_c, 0, 85, 65
1, 959690, Note_off_c, 0, 64, 62
1, 959728, Note_on_c, 0, 88, 77
1, 959787, Note_on_c, 0, 100, 99
1, 959791, Note_on_c, 0, 57, 61
1, 959794, Note_on_c, 0, 45, 88
1, 959820, Note_off_c, 0, 88, 64
1, 959827, Note_off_c, 0, 57, 64
1, 959830, Note_off_c, 0, 45, 64
1, 959846, Control_c, 0, 64, 75
1, 959846, Control_c, 1, 64, 75
1, 959865, Note_off_c, 0, 100, 63
1, 959865, Control_c, 0, 64, 23
1, 959865, Control_c, 1, 64, 23
1, 959884, Control_c, 1, 64, 0
1, 959884, Control_c, 0, 64, 0
1, 959980, Note_on_c, 0, 97, 87
1, 959981, Note_on_c, 0, 93, 82
1, 959988, Note_on_c, 0, 49, 71
1, 959994, Note_on_c, 0, 52, 60
1, 960025, Note_off_c, 0, 52, 59
1, 960027, Note_off_c, 0, 93, 60
1, 960030, Note_off_c, 0, 49, 66
1, 960041, Note_off_c, 0, 97, 65
1, 960144, Note_on_c, 0, 88, 76
1, 960145, Note_on_c, 0, 57, 74
1, 960184, Note_off_c, 0, 57, 66
1, 960189, Note_off_c, 0, 88, 63
1, 960317, Note_on_c, 0, 85, 80
1, 960333, Note_on_c, 0, 61, 63
1, 960334, Note_on_c, 0, 64, 63
1, 960338, Note_on_c, 0, 81, 63
1, 960367, Note_off_c, 0, 64, 64
1, 960368, Note_off_c, 0, 81, 67
1, 960374, Note_off_c, 0, 61, 58
1, 960384, Note_off_c, 0, 85, 65
1, 960461, Note_on_c, 0, 76, 68
1, 960480, Note_on_c, 0, 69, 62
1, 960516, Note_off_c, 0, 69, 62
1, 960528, Note_off_c, 0, 76, 61
1, 960627, Note_on_c, 0, 89, 59
1, 960636, Note_on_c, 0, 50, 65
1, 960684, Note_on_c, 0, 86, 62
1, 960720, Note_on_c, 0, 53, 71
1, 960726, Note_on_c, 0, 81, 68
1, 960732, Note_off_c, 0, 89, 54
1, 960734, Note_off_c, 0, 50, 58
1, 960751, Note_on_c, 0, 57, 69
1, 960782, Note_off_c, 0, 86, 63
1, 960796, Note_on_c, 0, 74, 80
1, 960803, Note_off_c, 0, 57, 62
1, 960806, Note_off_c, 0, 81, 63
1, 960813, Note_off_c, 0, 53, 62
1, 960824, Note_on_c, 0, 65, 69
1, 960857, Note_off_c, 0, 74, 59
1, 960869, Note_off_c, 0, 65, 61
1, 961002, Note_on_c, 0, 77, 80
1, 961021, Note_on_c, 0, 62, 66
1, 961054, Note_off_c, 0, 77, 59
1, 961057, Note_off_c, 0, 62, 64
1, 961185, Note_on_c, 0, 81, 80
1, 961215, Note_on_c, 0, 57, 49
1, 961251, Note_off_c, 0, 81, 64
1, 961261, Note_off_c, 0, 57, 64
1, 961425, Note_on_c, 0, 86, 61
1, 961446, Note_on_c, 0, 50, 58
1, 961453, Note_on_c, 0, 88, 47
1, 961488, Note_off_c, 0, 86, 62
1, 961489, Note_off_c, 0, 88, 36
1, 961495, Note_off_c, 0, 50, 63
1, 961717, Control_c, 0, 64, 21
1, 961717, Control_c, 1, 64, 21
1, 961727, Note_on_c, 0, 93, 58
1, 961728, Note_on_c, 0, 89, 50
1, 961737, Note_on_c, 0, 38, 50
1, 961737, Control_c, 0, 64, 40
1, 961737, Control_c, 1, 64, 40
1, 961755, Control_c, 1, 64, 59
1, 961755, Control_c, 0, 64, 59
1, 961773, Control_c, 0, 64, 68
1, 961773, Control_c, 1, 64, 68
1, 961783, Note_off_c, 0, 89, 63
1, 961784, Note_off_c, 0, 93, 59
1, 961788, Note_off_c, 0, 38, 63
1, 961792, Control_c, 0, 64, 70
1, 961792, Control_c, 1, 64, 70
1, 961831, Control_c, 1, 64, 76
1, 961831, Control_c, 0, 64, 76
1, 961848, Control_c, 0, 64, 86
1, 961848, Control_c, 1, 64, 86
1, 961867, Control_c, 1, 64, 111
1, 961867, Control_c, 0, 64, 111
1, 961887, Control_c, 0, 64, 127
1, 961887, Control_c, 1, 64, 127
1, 962036, Note_on_c, 0, 80, 22
1, 962144, Note_on_c, 0, 74, 62
1, 962154, Note_on_c, 0, 71, 62
1, 962167, Note_off_c, 0, 80, 33
1, 962167, Poly_aftertouch_c, 0, 80, 0
1, 962179, Note_off_c, 0, 74, 66
1, 962183, Note_off_c, 0, 71, 62
1, 962228, Note_on_c, 0, 67, 66
1, 962232, Note_on_c, 0, 79, 62
1, 962268, Note_off_c, 0, 67, 64
1, 962273, Note_off_c, 0, 79, 64
1, 962281, Note_on_c, 0, 83, 75
1, 962296, Note_on_c, 0, 62, 55
1, 962329, Note_off_c, 0, 83, 61
1, 962337, Note_off_c, 0, 62, 64
1, 962382, Note_on_c, 0, 86, 78
1, 962429, Note_on_c, 0, 55, 67
1, 962431, Note_on_c, 0, 43, 88
1, 962435, Note_on_c, 0, 98, 99
1, 962464, Note_off_c, 0, 86, 64
1, 962467, Note_off_c, 0, 55, 67
1, 962470, Note_on_c, 0, 94, 44
1, 962485, Control_c, 0, 64, 76
1, 962485, Control_c, 1, 64, 76
1, 962489, Note_off_c, 0, 43, 62
1, 962504, Control_c, 0, 64, 38
1, 962504, Control_c, 1, 64, 38
1, 962509, Note_off_c, 0, 94, 38
1, 962514, Note_off_c, 0, 98, 64
1, 962522, Control_c, 0, 64, 0
1, 962522, Control_c, 1, 64, 0
1, 962621, Note_on_c, 0, 95, 87
1, 962622, Note_on_c, 0, 91, 85
1, 962631, Note_on_c, 0, 50, 73
1, 962637, Note_on_c, 0, 47, 66
1, 962659, Note_off_c, 0, 91, 61
1, 962670, Note_off_c, 0, 50, 66
1, 962673, Note_off_c, 0, 47, 65
1, 962676, Note_off_c, 0, 95, 66
1, 962780, Note_on_c, 0, 86, 88
1, 962790, Note_on_c, 0, 55, 71
1, 962823, Note_off_c, 0, 55, 66
1, 962837, Note_off_c, 0, 86, 67
1, 962974, Note_on_c, 0, 83, 68
1, 962975, Note_on_c, 0, 59, 62
1, 962976, Note_on_c, 0, 62, 65
1, 962976, Note_on_c, 0, 79, 77
1, 963001, Note_off_c, 0, 62, 62
1, 963010, Note_off_c, 0, 59, 62
1, 963016, Note_off_c, 0, 79, 57
1, 963025, Note_off_c, 0, 83, 62
1, 963134, Note_on_c, 0, 74, 74
1, 963154, Note_on_c, 0, 67, 64
1, 963191, Note_off_c, 0, 67, 65
1, 963196, Note_off_c, 0, 74, 58
1, 963323, Note_on_c, 0, 48, 59
1, 963332, Note_on_c, 0, 88, 63
1, 963381, Note_on_c, 0, 84, 68
1, 963434, Note_off_c, 0, 48, 59
1, 963434, Note_on_c, 0, 52, 66
1, 963447, Note_on_c, 0, 79, 58
1, 963448, Note_off_c, 0, 88, 50
1, 963462, Note_on_c, 0, 55, 68
1, 963513, Note_off_c, 0, 84, 62
1, 963526, Note_off_c, 0, 52, 62
1, 963527, Note_on_c, 0, 72, 77
1, 963539, Note_off_c, 0, 79, 64
1, 963547, Note_on_c, 0, 64, 68
1, 963548, Note_off_c, 0, 55, 63
1, 963580, Note_off_c, 0, 72, 59
1, 963599, Note_off_c, 0, 64, 61
1, 963713, Note_on_c, 0, 76, 79
1, 963762, Note_on_c, 0, 60, 35
1, 963765, Note_off_c, 0, 76, 60
1, 963780, Note_on_c, 0, 59, 27
1, 963807, Note_off_c, 0, 60, 44
1, 963827, Note_off_c, 0, 59, 34
1, 963924, Note_on_c, 0, 79, 78
1, 963947, Note_on_c, 0, 55, 53
1, 963981, Note_off_c, 0, 79, 62
1, 963992, Note_off_c, 0, 55, 65
1, 964180, Note_on_c, 0, 84, 73
1, 964192, Note_on_c, 0, 48, 56
1, 964237, Note_off_c, 0, 48, 64
1, 964246, Note_off_c, 0, 84, 61
1, 964301, Control_c, 0, 64, 14
1, 964301, Control_c, 1, 64, 14
1, 964319, Control_c, 1, 64, 28
1, 964319, Control_c, 0, 64, 28
1, 964339, Control_c, 0, 64, 45
1, 964339, Control_c, 1, 64, 45
1, 964357, Control_c, 1, 64, 59
1, 964357, Control_c, 0, 64, 59
1, 964376, Control_c, 0, 64, 64
1, 964376, Control_c, 1, 64, 64
1, 964395, Note_on_c, 0, 91, 67
1, 964405, Note_on_c, 0, 88, 55
1, 964409, Note_on_c, 0, 36, 59
1, 964433, Control_c, 0, 64, 66
1, 964433, Control_c, 1, 64, 66
1, 964434, Note_off_c, 0, 91, 63
1, 964442, Note_off_c, 0, 88, 64
1, 964449, Note_off_c, 0, 36, 63
1, 964451, Control_c, 0, 64, 71
1, 964451, Control_c, 1, 64, 71
1, 964470, Control_c, 1, 64, 79
1, 964470, Control_c, 0, 64, 79
1, 964481, Poly_aftertouch_c, 0, 93, 0
1, 964488, Control_c, 0, 64, 93
1, 964488, Control_c, 1, 64, 93
1, 964507, Control_c, 1, 64, 127
1, 964507, Control_c, 0, 64, 127
1, 964683, Note_on_c, 0, 70, 62
1, 964691, Note_on_c, 0, 65, 63
1, 964737, Note_off_c, 0, 70, 62
1, 964746, Note_on_c, 0, 58, 65
1, 964753, Note_on_c, 0, 77, 58
1, 964771, Note_off_c, 0, 65, 61
1, 964788, Note_off_c, 0, 77, 63
1, 964792, Note_on_c, 0, 82, 75
1, 964809, Note_on_c, 0, 53, 63
1, 964829, Note_off_c, 0, 58, 64
1, 964854, Note_off_c, 0, 53, 64
1, 964856, Note_off_c, 0, 82, 66
1, 964885, Poly_aftertouch_c, 0, 84, 0
1, 964915, Note_on_c, 0, 86, 89
1, 964940, Note_on_c, 0, 50, 78
1, 964947, Note_on_c, 0, 38, 88
1, 964956, Control_c, 0, 64, 107
1, 964956, Control_c, 1, 64, 107
1, 964957, Note_on_c, 0, 98, 98
1, 964975, Control_c, 0, 64, 64
1, 964975, Control_c, 1, 64, 64
1, 964977, Note_off_c, 0, 50, 70
1, 964984, Note_off_c, 0, 86, 65
1, 964994, Control_c, 0, 64, 25
1, 964994, Control_c, 1, 64, 25
1, 965004, Note_off_c, 0, 38, 62
1, 965011, Control_c, 0, 64, 0
1, 965011, Control_c, 1, 64, 0
1, 965039, Note_off_c, 0, 98, 62
1, 965151, Note_on_c, 0, 94, 84
1, 965151, Note_on_c, 0, 89, 80
1, 965163, Note_on_c, 0, 46, 69
1, 965164, Note_on_c, 0, 41, 68
1, 965186, Note_off_c, 0, 89, 60
1, 965197, Note_off_c, 0, 46, 66
1, 965200, Note_off_c, 0, 41, 63
1, 965219, Note_off_c, 0, 94, 64
1, 965319, Note_on_c, 0, 86, 80
1, 965323, Note_on_c, 0, 50, 72
1, 965367, Note_off_c, 0, 50, 65
1, 965372, Note_off_c, 0, 86, 64
1, 965502, Note_on_c, 0, 82, 79
1, 965515, Note_on_c, 0, 77, 63
1, 965516, Note_on_c, 0, 53, 64
1, 965518, Note_on_c, 0, 58, 60
1, 965550, Note_off_c, 0, 77, 63
1, 965554, Note_off_c, 0, 58, 66
1, 965558, Note_off_c, 0, 53, 63
1, 965592, Note_off_c, 0, 82, 60
1, 965662, Note_on_c, 0, 74, 66
1, 965681, Note_on_c, 0, 62, 58
1, 965706, Control_c, 0, 64, 18
1, 965706, Control_c, 1, 64, 18
1, 965715, Note_off_c, 0, 74, 63
1, 965722, Note_off_c, 0, 62, 62
1, 965722, Control_c, 0, 64, 41
1, 965722, Control_c, 1, 64, 41
1, 965742, Control_c, 1, 64, 66
1, 965742, Control_c, 0, 64, 66
1, 965761, Control_c, 0, 64, 82
1, 965761, Control_c, 1, 64, 82
1, 965780, Control_c, 1, 64, 101
1, 965780, Control_c, 0, 64, 101
1, 965798, Control_c, 0, 64, 127
1, 965798, Control_c, 1, 64, 127
1, 965842, Note_on_c, 0, 69, 67
1, 965844, Note_on_c, 0, 75, 65
1, 965853, Note_on_c, 0, 64, 62
1, 965869, Note_off_c, 0, 75, 66
1, 965883, Note_on_c, 0, 76, 68
1, 965884, Note_off_c, 0, 69, 60
1, 965893, Note_on_c, 0, 57, 57
1, 965899, Note_off_c, 0, 64, 60
1, 965935, Note_on_c, 0, 81, 70
1, 965945, Note_off_c, 0, 76, 59
1, 965958, Note_on_c, 0, 52, 62
1, 965971, Note_off_c, 0, 57, 61
1, 965993, Note_off_c, 0, 81, 63
1, 965997, Note_off_c, 0, 52, 64
1, 966053, Note_on_c, 0, 84, 84
1, 966096, Note_on_c, 0, 48, 68
1, 966096, Note_on_c, 0, 96, 102
1, 966099, Note_on_c, 0, 36, 83
1, 966116, Control_c, 0, 64, 75
1, 966116, Control_c, 1, 64, 75
1, 966119, Note_on_c, 0, 38, 61
1, 966129, Note_off_c, 0, 84, 60
1, 966135, Note_off_c, 0, 48, 64
1, 966135, Control_c, 0, 64, 46
1, 966135, Control_c, 1, 64, 46
1, 966140, Note_off_c, 0, 36, 69
1, 966154, Control_c, 0, 64, 23
1, 966154, Control_c, 1, 64, 23
1, 966160, Note_off_c, 0, 38, 58
1, 966172, Control_c, 0, 64, 16
1, 966172, Control_c, 1, 64, 16
1, 966187, Note_off_c, 0, 96, 59
1, 966289, Note_on_c, 0, 93, 81
1, 966289, Note_on_c, 0, 88, 83
1, 966329, Note_off_c, 0, 88, 60
1, 966329, Note_on_c, 0, 45, 37
1, 966353, Note_off_c, 0, 93, 62
1, 966379, Note_off_c, 0, 45, 33
1, 966411, Poly_aftertouch_c, 0, 40, 0
1, 966445, Note_on_c, 0, 48, 56
1, 966445, Note_on_c, 0, 84, 72
1, 966494, Note_off_c, 0, 48, 60
1, 966507, Note_off_c, 0, 84, 62
1, 966566, Control_c, 0, 64, 12
1, 966566, Control_c, 1, 64, 12
1, 966644, Note_on_c, 0, 81, 61
1, 966645, Note_on_c, 0, 57, 59
1, 966653, Note_on_c, 0, 52, 42
1, 966658, Note_on_c, 0, 76, 54
1, 966691, Note_off_c, 0, 76, 53
1, 966698, Note_off_c, 0, 57, 59
1, 966709, Note_off_c, 0, 81, 61
1, 966713, Note_off_c, 0, 52, 47
1, 966789, Control_c, 0, 64, 17
1, 966789, Control_c, 1, 64, 17
1, 966807, Note_on_c, 0, 72, 61
1, 966808, Control_c, 0, 64, 28
1, 966808, Control_c, 1, 64, 28
1, 966821, Note_on_c, 0, 60, 52
1, 966826, Control_c, 0, 64, 45
1, 966826, Control_c, 1, 64, 45
1, 966846, Control_c, 1, 64, 64
1, 966846, Control_c, 0, 64, 64
1, 966848, Note_off_c, 0, 72, 62
1, 966852, Note_off_c, 0, 60, 59
1, 966864, Control_c, 0, 64, 73
1, 966864, Control_c, 1, 64, 73
1, 966885, Control_c, 1, 64, 78
1, 966885, Control_c, 0, 64, 78
1, 966902, Control_c, 0, 64, 87
1, 966902, Control_c, 1, 64, 87
1, 966921, Control_c, 1, 64, 107
1, 966921, Control_c, 0, 64, 107
1, 966940, Control_c, 0, 64, 127
1, 966940, Control_c, 1, 64, 127
1, 967000, Note_on_c, 0, 62, 64
1, 967011, Note_on_c, 0, 65, 68
1, 967044, Note_off_c, 0, 65, 65
1, 967050, Note_on_c, 0, 57, 60
1, 967057, Note_off_c, 0, 62, 58
1, 967067, Note_on_c, 0, 71, 56
1, 967070, Control_c, 0, 64, 77
1, 967070, Control_c, 1, 64, 77
1, 967090, Control_c, 1, 64, 48
1, 967090, Control_c, 0, 64, 48
1, 967094, Note_off_c, 0, 57, 66
1, 967099, Note_off_c, 0, 71, 63
1, 967108, Note_on_c, 0, 53, 47
1, 967108, Control_c, 0, 64, 32
1, 967108, Control_c, 1, 64, 32
1, 967122, Note_on_c, 0, 74, 42
1, 967146, Note_off_c, 0, 53, 50
1, 967159, Note_off_c, 0, 74, 37
1, 967203, Note_on_c, 0, 81, 74
1, 967221, Control_c, 0, 64, 15
1, 967221, Control_c, 1, 64, 15
1, 967239, Note_on_c, 0, 93, 88
1, 967241, Note_on_c, 0, 35, 73
1, 967245, Note_off_c, 0, 81, 53
1, 967315, Control_c, 0, 64, 8
1, 967315, Control_c, 1, 64, 8
1, 967332, Control_c, 1, 64, 19
1, 967332, Control_c, 0, 64, 19
1, 967352, Control_c, 0, 64, 33
1, 967352, Control_c, 1, 64, 33
1, 967372, Control_c, 1, 64, 53
1, 967372, Control_c, 0, 64, 53
1, 967388, Note_off_c, 0, 93, 61
1, 967389, Note_on_c, 0, 86, 73
1, 967390, Note_on_c, 0, 89, 73
1, 967391, Note_off_c, 0, 35, 60
1, 967391, Control_c, 0, 64, 59
1, 967391, Control_c, 1, 64, 59
1, 967408, Control_c, 1, 64, 50
1, 967408, Control_c, 0, 64, 50
1, 967410, Note_on_c, 0, 47, 72
1, 967427, Note_off_c, 0, 86, 60
1, 967427, Control_c, 0, 64, 32
1, 967427, Control_c, 1, 64, 32
1, 967428, Note_off_c, 0, 89, 64
1, 967442, Note_off_c, 0, 47, 66
1, 967445, Control_c, 0, 64, 10
1, 967445, Control_c, 1, 64, 10
1, 967577, Control_c, 1, 67, 8
1, 967577, Control_c, 0, 67, 8
1, 967622, Note_on_c, 0, 62, 71
1, 967627, Note_on_c, 0, 65, 70
1, 967631, Note_on_c, 0, 70, 46
1, 967654, Note_off_c, 0, 62, 67
1, 967680, Note_off_c, 0, 70, 46
1, 967695, Note_on_c, 0, 59, 46
1, 967700, Note_off_c, 0, 65, 57
1, 967700, Note_on_c, 0, 68, 52
1, 967723, Note_on_c, 0, 56, 57
1, 967740, Note_on_c, 0, 71, 55
1, 967741, Note_off_c, 0, 59, 63
1, 967742, Note_off_c, 0, 68, 66
1, 967744, Control_c, 0, 64, 34
1, 967744, Control_c, 1, 64, 34
1, 967764, Control_c, 1, 64, 64
1, 967764, Control_c, 0, 64, 64
1, 967768, Poly_aftertouch_c, 0, 73, 0
1, 967770, Note_off_c, 0, 56, 65
1, 967771, Note_off_c, 0, 71, 59
1, 967784, Control_c, 0, 64, 86
1, 967784, Control_c, 1, 64, 86
1, 967801, Control_c, 1, 64, 121
1, 967801, Control_c, 0, 64, 121
1, 967819, Control_c, 0, 64, 127
1, 967819, Control_c, 1, 64, 127
1, 967833, Note_on_c, 0, 79, 78
1, 967857, Note_on_c, 0, 89, 86
1, 967871, Note_off_c, 0, 79, 64
1, 967877, Note_on_c, 0, 40, 68
1, 967951, Control_c, 0, 64, 106
1, 967951, Control_c, 1, 64, 106
1, 967970, Control_c, 1, 64, 75
1, 967970, Control_c, 0, 64, 75
1, 967977, Note_off_c, 0, 89, 31
1, 967988, Control_c, 0, 64, 51
1, 967988, Control_c, 1, 64, 51
1, 968007, Control_c, 1, 64, 33
1, 968007, Control_c, 0, 64, 33
1, 968009, Note_on_c, 0, 83, 72
1, 968017, Note_on_c, 0, 86, 69
1, 968018, Note_off_c, 0, 40, 55
1, 968026, Control_c, 0, 64, 24
1, 968026, Control_c, 1, 64, 24
1, 968045, Control_c, 1, 67, 13
1, 968045, Control_c, 0, 67, 13
1, 968048, Note_off_c, 0, 86, 69
1, 968048, Note_on_c, 0, 52, 64
1, 968059, Note_off_c, 0, 83, 60
1, 968082, Control_c, 0, 64, 19
1, 968082, Control_c, 1, 64, 19
1, 968083, Control_c, 1, 67, 18
1, 968083, Control_c, 0, 67, 18
1, 968087, Note_off_c, 0, 52, 64
1, 968101, Control_c, 0, 64, 13
1, 968101, Control_c, 1, 64, 13
1, 968120, Control_c, 1, 67, 23
1, 968120, Control_c, 0, 67, 23
1, 968213, Control_c, 0, 67, 27
1, 968213, Control_c, 1, 67, 27
1, 968251, Control_c, 1, 67, 32
1, 968251, Note_on_c, 0, 62, 70
1, 968251, Control_c, 0, 67, 32
1, 968269, Control_c, 0, 67, 36
1, 968269, Control_c, 1, 67, 36
1, 968279, Note_on_c, 0, 59, 41
1, 968288, Control_c, 0, 67, 40
1, 968288, Control_c, 1, 67, 40
1, 968306, Control_c, 1, 67, 44
1, 968306, Control_c, 0, 67, 44
1, 968310, Note_off_c, 0, 59, 47
1, 968315, Note_on_c, 0, 56, 59
1, 968323, Note_off_c, 0, 62, 59
1, 968326, Note_on_c, 0, 64, 11
1, 968326, Control_c, 0, 67, 49
1, 968326, Control_c, 1, 67, 49
1, 968345, Poly_aftertouch_c, 0, 57, 0
1, 968353, Note_on_c, 0, 68, 67
1, 968363, Control_c, 0, 67, 54
1, 968363, Control_c, 1, 67, 54
1, 968369, Note_off_c, 0, 56, 64
1, 968379, Note_on_c, 0, 53, 66
1, 968389, Note_off_c, 0, 68, 67
1, 968410, Note_off_c, 0, 64, 33
1, 968412, Note_off_c, 0, 53, 64
1, 968474, Control_c, 0, 67, 58
1, 968474, Control_c, 1, 67, 58
1, 968512, Note_on_c, 0, 74, 36
1, 968529, Note_on_c, 0, 33, 75
1, 968529, Note_on_c, 0, 86, 78
1, 968529, Note_on_c, 0, 84, 76
1, 968549, Note_off_c, 0, 74, 47
1, 968588, Control_c, 0, 67, 62
1, 968588, Control_c, 1, 67, 62
1, 968603, Note_off_c, 0, 84, 57
1, 968603, Note_off_c, 0, 86, 55
1, 968661, Control_c, 0, 64, 0
1, 968661, Control_c, 1, 64, 0
1, 968719, Note_on_c, 0, 83, 66
1, 968734, Note_on_c, 0, 74, 62
1, 968747, Note_off_c, 0, 33, 46
1, 968747, Poly_aftertouch_c, 0, 33, 0
1, 968753, Note_on_c, 0, 40, 59
1, 968767, Note_off_c, 0, 74, 68
1, 968774, Control_c, 0, 67, 67
1, 968774, Control_c, 1, 67, 67
1, 968790, Note_off_c, 0, 40, 61
1, 968793, Note_off_c, 0, 83, 63
1, 968831, Control_c, 0, 67, 72
1, 968831, Control_c, 1, 67, 72
1, 968867, Control_c, 1, 67, 76
1, 968867, Control_c, 0, 67, 76
1, 968924, Control_c, 0, 67, 81
1, 968924, Control_c, 1, 67, 81
1, 968936, Note_on_c, 0, 80, 80
1, 968947, Note_on_c, 0, 45, 65
1, 968949, Note_on_c, 0, 71, 59
1, 968961, Control_c, 0, 67, 85
1, 968961, Control_c, 1, 67, 85
1, 968978, Note_off_c, 0, 71, 56
1, 968982, Note_off_c, 0, 45, 63
1, 968999, Note_off_c, 0, 80, 58
1, 968999, Poly_aftertouch_c, 0, 80, 0
1, 969210, Note_on_c, 0, 52, 60
1, 969217, Note_on_c, 0, 81, 68
1, 969239, Note_on_c, 0, 72, 48
1, 969246, Note_off_c, 0, 52, 62
1, 969318, Control_c, 0, 64, 17
1, 969318, Control_c, 1, 64, 17
1, 969335, Control_c, 1, 64, 37
1, 969335, Control_c, 0, 64, 37
1, 969355, Control_c, 0, 64, 62
1, 969355, Control_c, 1, 64, 62
1, 969373, Control_c, 1, 64, 78
1, 969373, Control_c, 0, 64, 78
1, 969392, Control_c, 0, 64, 91
1, 969392, Control_c, 1, 64, 91
1, 969410, Control_c, 1, 64, 107
1, 969410, Control_c, 0, 64, 107
1, 969430, Control_c, 0, 64, 127
1, 969430, Control_c, 1, 64, 127
1, 969499, Note_off_c, 0, 72, 59
1, 969499, Note_on_c, 0, 57, 50
1, 969523, Control_c, 0, 67, 90
1, 969523, Control_c, 1, 67, 90
1, 969535, Note_off_c, 0, 57, 57
1, 969540, Note_off_c, 0, 81, 62
1, 969541, Control_c, 0, 67, 97
1, 969541, Control_c, 1, 67, 97
1, 969561, Control_c, 1, 67, 105
1, 969561, Control_c, 0, 67, 105
1, 969579, Control_c, 0, 67, 113
1, 969579, Control_c, 1, 67, 113
1, 969598, Control_c, 1, 67, 120
1, 969598, Control_c, 0, 67, 120
1, 969616, Control_c, 0, 67, 127
1, 969616, Control_c, 1, 67, 127
1, 969772, Note_on_c, 0, 73, 66
1, 969793, Note_on_c, 0, 76, 60
1, 969802, Note_off_c, 0, 73, 68
1, 969815, Note_on_c, 0, 81, 60
1, 969838, Note_off_c, 0, 76, 62
1, 969842, Note_on_c, 0, 69, 59
1, 969874, Note_off_c, 0, 81, 55
1, 969874, Note_on_c, 0, 85, 74
1, 969882, Note_off_c, 0, 69, 64
1, 969904, Note_on_c, 0, 64, 73
1, 969922, Note_off_c, 0, 85, 62
1, 969933, Note_off_c, 0, 64, 70
1, 969954, Control_c, 0, 64, 69
1, 969954, Control_c, 1, 64, 69
1, 969973, Control_c, 1, 64, 18
1, 969973, Control_c, 0, 64, 18
1, 969981, Note_on_c, 0, 88, 72
1, 969992, Control_c, 0, 64, 0
1, 969992, Control_c, 1, 64, 0
1, 970033, Note_on_c, 0, 100, 87
1, 970045, Note_on_c, 0, 45, 75
1, 970048, Note_on_c, 0, 57, 47
1, 970053, Note_off_c, 0, 88, 64
1, 970086, Note_off_c, 0, 45, 67
1, 970087, Note_off_c, 0, 57, 54
1, 970089, Note_off_c, 0, 100, 64
1, 970226, Note_on_c, 0, 93, 78
1, 970229, Note_on_c, 0, 97, 83
1, 970245, Note_on_c, 0, 49, 59
1, 970255, Note_off_c, 0, 93, 68
1, 970267, Note_off_c, 0, 97, 64
1, 970274, Note_on_c, 0, 52, 15
1, 970275, Note_off_c, 0, 49, 64
1, 970345, Note_off_c, 0, 52, 28
1, 970391, Note_on_c, 0, 88, 75
1, 970392, Note_on_c, 0, 57, 66
1, 970432, Note_off_c, 0, 57, 67
1, 970438, Note_off_c, 0, 88, 67
1, 970582, Note_on_c, 0, 85, 77
1, 970594, Note_on_c, 0, 81, 60
1, 970601, Note_on_c, 0, 61, 53
1, 970608, Note_on_c, 0, 64, 42
1, 970634, Note_off_c, 0, 81, 67
1, 970642, Note_off_c, 0, 85, 61
1, 970646, Note_off_c, 0, 64, 50
1, 970650, Note_off_c, 0, 61, 64
1, 970749, Note_on_c, 0, 76, 55
1, 970815, Note_off_c, 0, 76, 59
1, 970891, Note_on_c, 0, 50, 66
1, 970905, Note_on_c, 0, 89, 63
1, 970951, Note_on_c, 0, 86, 64
1, 970990, Note_off_c, 0, 50, 62
1, 971001, Note_on_c, 0, 53, 58
1, 971016, Note_off_c, 0, 89, 55
1, 971023, Note_on_c, 0, 81, 68
1, 971035, Note_on_c, 0, 57, 53
1, 971055, Note_off_c, 0, 86, 61
1, 971082, Note_off_c, 0, 81, 61
1, 971088, Note_on_c, 0, 74, 68
1, 971108, Note_off_c, 0, 53, 54
1, 971112, Note_on_c, 0, 65, 70
1, 971118, Note_off_c, 0, 57, 62
1, 971132, Note_off_c, 0, 74, 62
1, 971155, Note_off_c, 0, 65, 61
1, 971203, Poly_aftertouch_c, 0, 76, 0
1, 971323, Note_on_c, 0, 62, 58
1, 971326, Note_on_c, 0, 77, 40
1, 971356, Note_off_c, 0, 77, 36
1, 971364, Note_off_c, 0, 62, 62
1, 971367, Poly_aftertouch_c, 0, 76, 0
1, 971506, Note_on_c, 0, 81, 70
1, 971519, Note_on_c, 0, 57, 59
1, 971559, Note_off_c, 0, 57, 64
1, 971560, Note_off_c, 0, 81, 60
1, 971751, Note_on_c, 0, 86, 67
1, 971774, Note_on_c, 0, 50, 50
1, 971804, Note_off_c, 0, 86, 61
1, 971818, Note_off_c, 0, 50, 64
1, 971920, Control_c, 0, 64, 16
1, 971920, Control_c, 1, 64, 16
1, 971938, Control_c, 1, 64, 36
1, 971938, Control_c, 0, 64, 36
1, 971957, Control_c, 0, 64, 56
1, 971957, Control_c, 1, 64, 56
1, 971975, Control_c, 1, 64, 66
1, 971975, Control_c, 0, 64, 66
1, 971996, Control_c, 0, 64, 67
1, 971996, Control_c, 1, 64, 67
1, 972049, Control_c, 1, 64, 71
1, 972049, Control_c, 0, 64, 71
1, 972051, Note_on_c, 0, 89, 44
1, 972053, Note_on_c, 0, 38, 52
1, 972061, Note_on_c, 0, 93, 48
1, 972068, Control_c, 0, 64, 79
1, 972068, Control_c, 1, 64, 79
1, 972087, Control_c, 1, 64, 98
1, 972087, Control_c, 0, 64, 98
1, 972093, Note_off_c, 0, 93, 62
1, 972096, Note_off_c, 0, 38, 60
1, 972098, Note_off_c, 0, 89, 59
1, 972105, Control_c, 0, 64, 127
1, 972105, Control_c, 1, 64, 127
1, 972414, Note_on_c, 0, 71, 56
1, 972415, Note_on_c, 0, 74, 59
1, 972437, Note_off_c, 0, 71, 60
1, 972449, Note_off_c, 0, 74, 66
1, 972469, Note_on_c, 0, 67, 64
1, 972478, Note_on_c, 0, 79, 55
1, 972519, Note_off_c, 0, 79, 66
1, 972535, Note_off_c, 0, 67, 59
1, 972544, Note_on_c, 0, 83, 61
1, 972566, Note_on_c, 0, 62, 50
1, 972567, Note_off_c, 0, 83, 64
1, 972598, Note_off_c, 0, 62, 59
1, 972655, Note_on_c, 0, 86, 64
1, 972668, Control_c, 0, 64, 96
1, 972668, Control_c, 1, 64, 96
1, 972686, Control_c, 1, 64, 61
1, 972686, Control_c, 0, 64, 61
1, 972692, Note_on_c, 0, 55, 54
1, 972704, Control_c, 0, 64, 23
1, 972704, Control_c, 1, 64, 23
1, 972707, Note_on_c, 0, 98, 90
1, 972708, Note_on_c, 0, 43, 72
1, 972724, Control_c, 0, 64, 0
1, 972724, Control_c, 1, 64, 0
1, 972733, Note_off_c, 0, 55, 56
1, 972740, Note_off_c, 0, 86, 53
1, 972745, Note_off_c, 0, 43, 66
1, 972763, Note_off_c, 0, 98, 64
1, 972905, Note_on_c, 0, 91, 74
1, 972907, Note_on_c, 0, 95, 77
1, 972923, Note_on_c, 0, 47, 52
1, 972929, Note_on_c, 0, 50, 45
1, 972940, Note_off_c, 0, 91, 62
1, 972948, Note_off_c, 0, 95, 63
1, 972959, Note_off_c, 0, 47, 59
1, 972967, Note_off_c, 0, 50, 52
1, 973070, Note_on_c, 0, 86, 72
1, 973082, Note_on_c, 0, 55, 60
1, 973116, Note_off_c, 0, 86, 65
1, 973122, Note_off_c, 0, 55, 64
1, 973269, Note_on_c, 0, 83, 62
1, 973274, Note_on_c, 0, 79, 59
1, 973286, Note_on_c, 0, 62, 46
1, 973310, Note_off_c, 0, 83, 59
1, 973310, Note_on_c, 0, 59, 15
1, 973314, Note_off_c, 0, 79, 64
1, 973323, Note_off_c, 0, 62, 55
1, 973374, Note_off_c, 0, 59, 30
1, 973429, Note_on_c, 0, 67, 62
1, 973445, Note_on_c, 0, 74, 55
1, 973467, Note_off_c, 0, 67, 66
1, 973494, Note_off_c, 0, 74, 60
1, 973633, Note_on_c, 0, 88, 35
1, 973636, Note_on_c, 0, 48, 31
1, 973675, Note_on_c, 0, 84, 64
1, 973694, Note_on_c, 0, 50, 9
1, 973701, Note_off_c, 0, 48, 55
1, 973701, Note_on_c, 0, 52, 56
1, 973721, Note_off_c, 0, 88, 44
1, 973731, Note_on_c, 0, 79, 57
1, 973751, Note_on_c, 0, 55, 64
1, 973776, Note_off_c, 0, 50, 32
1, 973782, Note_off_c, 0, 84, 61
1, 973789, Note_off_c, 0, 52, 59
1, 973809, Note_off_c, 0, 79, 63
1, 973812, Note_on_c, 0, 72, 64
1, 973813, Note_off_c, 0, 55, 62
1, 973834, Note_on_c, 0, 64, 57
1, 973850, Note_off_c, 0, 72, 62
1, 973876, Note_off_c, 0, 64, 64
1, 974023, Note_on_c, 0, 76, 67
1, 974033, Note_on_c, 0, 60, 63
1, 974058, Note_off_c, 0, 76, 62
1, 974072, Note_off_c, 0, 60, 62
1, 974238, Note_on_c, 0, 79, 67
1, 974250, Note_on_c, 0, 55, 57
1, 974268, Note_off_c, 0, 79, 67
1, 974290, Note_off_c, 0, 55, 63
1, 974480, Note_on_c, 0, 84, 63
1, 974483, Note_on_c, 0, 48, 56
1, 974523, Note_off_c, 0, 84, 56
1, 974526, Note_off_c, 0, 48, 62
1, 974718, Note_on_c, 0, 91, 62
1, 974730, Note_on_c, 0, 36, 45
1, 974732, Note_on_c, 0, 88, 46
1, 974745, Control_c, 0, 64, 15
1, 974745, Control_c, 1, 64, 15
1, 974752, Note_off_c, 0, 91, 66
1, 974764, Control_c, 0, 64, 34
1, 974764, Control_c, 1, 64, 34
1, 974771, Note_off_c, 0, 36, 57
1, 974774, Note_off_c, 0, 88, 65
1, 974782, Control_c, 0, 64, 59
1, 974782, Control_c, 1, 64, 59
1, 974801, Control_c, 1, 64, 73
1, 974801, Control_c, 0, 64, 73
1, 974820, Control_c, 0, 64, 82
1, 974820, Control_c, 1, 64, 82
1, 974839, Control_c, 1, 64, 91
1, 974839, Control_c, 0, 64, 91
1, 974859, Control_c, 0, 64, 102
1, 974859, Control_c, 1, 64, 102
1, 974877, Control_c, 1, 64, 127
1, 974877, Control_c, 0, 64, 127
1, 975038, Note_on_c, 0, 70, 65
1, 975068, Note_on_c, 0, 65, 55
1, 975088, Note_off_c, 0, 70, 62
1, 975091, Note_on_c, 0, 77, 56
1, 975111, Note_on_c, 0, 58, 59
1, 975116, Note_off_c, 0, 65, 61
1, 975158, Note_off_c, 0, 77, 58
1, 975158, Note_on_c, 0, 82, 71
1, 975172, Note_on_c, 0, 53, 57
1, 975173, Note_off_c, 0, 58, 61
1, 975204, Note_off_c, 0, 82, 64
1, 975217, Note_off_c, 0, 53, 63
1, 975277, Note_on_c, 0, 88, 76
1, 975307, Control_c, 0, 64, 99
1, 975307, Control_c, 1, 64, 99
1, 975319, Note_on_c, 0, 38, 86
1, 975324, Control_c, 0, 64, 66
1, 975324, Control_c, 1, 64, 66
1, 975327, Note_on_c, 0, 50, 43
1, 975330, Note_on_c, 0, 100, 89
1, 975333, Note_on_c, 0, 98, 84
1, 975345, Control_c, 0, 64, 33
1, 975345, Control_c, 1, 64, 33
1, 975359, Note_off_c, 0, 88, 66
1, 975368, Note_off_c, 0, 50, 56
1, 975383, Note_off_c, 0, 100, 65
1, 975391, Note_off_c, 0, 38, 62
1, 975398, Note_off_c, 0, 98, 65
1, 975522, Note_on_c, 0, 94, 81
1, 975524, Note_on_c, 0, 89, 75
1, 975528, Note_on_c, 0, 46, 73
1, 975534, Note_on_c, 0, 41, 69
1, 975554, Note_off_c, 0, 89, 68
1, 975562, Note_off_c, 0, 46, 66
1, 975569, Note_off_c, 0, 41, 65
1, 975593, Note_off_c, 0, 94, 58
1, 975680, Note_on_c, 0, 86, 73
1, 975686, Note_on_c, 0, 50, 70
1, 975730, Note_off_c, 0, 50, 66
1, 975732, Note_off_c, 0, 86, 63
1, 975870, Note_on_c, 0, 53, 67
1, 975875, Note_on_c, 0, 82, 76
1, 975877, Note_on_c, 0, 58, 60
1, 975881, Note_on_c, 0, 77, 65
1, 975913, Note_off_c, 0, 53, 62
1, 975917, Note_off_c, 0, 58, 67
1, 975918, Note_off_c, 0, 77, 62
1, 975952, Note_off_c, 0, 82, 60
1, 976041, Note_on_c, 0, 62, 67
1, 976042, Note_on_c, 0, 74, 52
1, 976071, Note_off_c, 0, 74, 56
1, 976081, Note_off_c, 0, 62, 62
1, 976093, Control_c, 0, 64, 12
1, 976093, Control_c, 1, 64, 12
1, 976112, Control_c, 1, 64, 25
1, 976112, Control_c, 0, 64, 25
1, 976131, Control_c, 0, 64, 44
1, 976131, Control_c, 1, 64, 44
1, 976149, Control_c, 1, 64, 63
1, 976149, Control_c, 0, 64, 63
1, 976169, Control_c, 0, 64, 71
1, 976169, Control_c, 1, 64, 71
1, 976187, Control_c, 1, 64, 73
1, 976187, Control_c, 0, 64, 73
1, 976205, Control_c, 0, 64, 76
1, 976205, Control_c, 1, 64, 76
1, 976217, Note_on_c, 0, 69, 56
1, 976224, Control_c, 0, 64, 84
1, 976224, Control_c, 1, 64, 84
1, 976229, Note_on_c, 0, 64, 65
1, 976243, Control_c, 0, 64, 104
1, 976243, Control_c, 1, 64, 104
1, 976247, Note_off_c, 0, 69, 58
1, 976247, Note_on_c, 0, 76, 63
1, 976260, Note_on_c, 0, 57, 64
1, 976261, Control_c, 0, 64, 127
1, 976261, Control_c, 1, 64, 127
1, 976263, Note_off_c, 0, 64, 65
1, 976265, Note_on_c, 0, 71, 20
1, 976300, Note_on_c, 0, 81, 66
1, 976303, Note_off_c, 0, 76, 61
1, 976317, Note_off_c, 0, 57, 62
1, 976320, Note_on_c, 0, 52, 54
1, 976325, Note_off_c, 0, 71, 40
1, 976342, Note_off_c, 0, 81, 62
1, 976353, Note_off_c, 0, 52, 58
1, 976417, Note_on_c, 0, 84, 71
1, 976431, Control_c, 0, 64, 115
1, 976431, Control_c, 1, 64, 115
1, 976449, Control_c, 1, 64, 74
1, 976449, Control_c, 0, 64, 74
1, 976457, Note_on_c, 0, 96, 92
1, 976463, Note_off_c, 0, 84, 50
1, 976469, Note_on_c, 0, 36, 75
1, 976469, Control_c, 0, 64, 42
1, 976469, Control_c, 1, 64, 42
1, 976470, Note_on_c, 0, 48, 48
1, 976486, Control_c, 0, 64, 8
1, 976486, Control_c, 1, 64, 8
1, 976500, Note_off_c, 0, 36, 60
1, 976504, Control_c, 0, 64, 0
1, 976504, Control_c, 1, 64, 0
1, 976506, Note_off_c, 0, 48, 58
1, 976519, Note_off_c, 0, 96, 64
1, 976645, Note_on_c, 0, 88, 70
1, 976650, Note_on_c, 0, 93, 70
1, 976675, Note_off_c, 0, 88, 67
1, 976683, Note_on_c, 0, 40, 44
1, 976687, Note_on_c, 0, 45, 32
1, 976705, Note_off_c, 0, 93, 57
1, 976723, Note_off_c, 0, 40, 47
1, 976746, Note_off_c, 0, 45, 34
1, 976798, Note_on_c, 0, 84, 62
1, 976814, Note_on_c, 0, 48, 50
1, 976843, Note_off_c, 0, 84, 61
1, 976853, Note_off_c, 0, 48, 62
1, 977000, Note_on_c, 0, 52, 50
1, 977000, Note_on_c, 0, 81, 59
1, 977012, Note_on_c, 0, 57, 45
1, 977043, Note_on_c, 0, 76, 27
1, 977055, Note_off_c, 0, 57, 55
1, 977056, Note_off_c, 0, 81, 54
1, 977079, Note_off_c, 0, 52, 53
1, 977085, Note_off_c, 0, 76, 45
1, 977104, Control_c, 0, 64, 13
1, 977104, Control_c, 1, 64, 13
1, 977123, Control_c, 1, 64, 26
1, 977123, Control_c, 0, 64, 26
1, 977143, Control_c, 0, 64, 44
1, 977143, Control_c, 1, 64, 44
1, 977152, Note_on_c, 0, 72, 61
1, 977160, Control_c, 0, 64, 63
1, 977160, Control_c, 1, 64, 63
1, 977178, Control_c, 1, 64, 72
1, 977178, Control_c, 0, 64, 72
1, 977180, Note_on_c, 0, 60, 43
1, 977190, Note_off_c, 0, 72, 63
1, 977197, Control_c, 0, 64, 76
1, 977197, Control_c, 1, 64, 76
1, 977218, Note_off_c, 0, 60, 57
1, 977235, Control_c, 0, 64, 82
1, 977235, Control_c, 1, 64, 82
1, 977255, Control_c, 1, 64, 91
1, 977255, Control_c, 0, 64, 91
1, 977273, Control_c, 0, 64, 105
1, 977273, Control_c, 1, 64, 105
1, 977291, Control_c, 1, 64, 127
1, 977291, Control_c, 0, 64, 127
1, 977367, Note_on_c, 0, 62, 59
1, 977373, Note_on_c, 0, 65, 58
1, 977410, Note_off_c, 0, 62, 65
1, 977411, Note_off_c, 0, 65, 63
1, 977415, Note_on_c, 0, 57, 57
1, 977416, Note_on_c, 0, 71, 56
1, 977455, Note_on_c, 0, 74, 67
1, 977458, Note_off_c, 0, 57, 65
1, 977459, Note_off_c, 0, 71, 65
1, 977467, Note_on_c, 0, 53, 61
1, 977481, Note_off_c, 0, 74, 68
1, 977497, Note_off_c, 0, 53, 60
1, 977535, Control_c, 0, 64, 93
1, 977535, Control_c, 1, 64, 93
1, 977553, Control_c, 1, 64, 59
1, 977553, Control_c, 0, 64, 59
1, 977564, Note_on_c, 0, 81, 73
1, 977571, Control_c, 0, 64, 21
1, 977571, Control_c, 1, 64, 21
1, 977592, Control_c, 1, 64, 0
1, 977592, Control_c, 0, 64, 0
1, 977614, Note_on_c, 0, 93, 81
1, 977620, Note_on_c, 0, 35, 63
1, 977625, Note_off_c, 0, 81, 58
1, 977703, Control_c, 0, 64, 20
1, 977703, Control_c, 1, 64, 20
1, 977722, Control_c, 1, 64, 41
1, 977722, Control_c, 0, 64, 41
1, 977741, Control_c, 0, 64, 63
1, 977741, Control_c, 1, 64, 63
1, 977746, Note_off_c, 0, 93, 43
1, 977759, Control_c, 0, 64, 74
1, 977759, Control_c, 1, 64, 74
1, 977762, Note_off_c, 0, 35, 60
1, 977769, Note_on_c, 0, 89, 65
1, 977777, Note_on_c, 0, 86, 49
1, 977779, Control_c, 0, 64, 77
1, 977779, Control_c, 1, 64, 77
1, 977782, Poly_aftertouch_c, 0, 37, 0
1, 977788, Note_on_c, 0, 47, 64
1, 977802, Note_off_c, 0, 89, 67
1, 977815, Note_off_c, 0, 86, 64
1, 977821, Note_off_c, 0, 47, 65
1, 977834, Control_c, 0, 64, 82
1, 977834, Control_c, 1, 64, 82
1, 977853, Control_c, 1, 64, 91
1, 977853, Control_c, 0, 64, 91
1, 977873, Control_c, 0, 64, 110
1, 977873, Control_c, 1, 64, 110
1, 977890, Control_c, 1, 64, 127
1, 977890, Control_c, 0, 64, 127
1, 977928, Control_c, 0, 64, 101
1, 977928, Control_c, 1, 64, 101
1, 977948, Control_c, 1, 64, 68
1, 977948, Control_c, 0, 64, 68
1, 977965, Control_c, 0, 64, 34
1, 977965, Control_c, 1, 64, 34
1, 978003, Control_c, 1, 64, 0
1, 978003, Control_c, 0, 64, 0
1, 978006, Note_on_c, 0, 62, 50
1, 978006, Note_on_c, 0, 65, 52
1, 978010, Note_on_c, 0, 60, 46
1, 978016, Note_on_c, 0, 70, 35
1, 978036, Note_on_c, 0, 59, 48
1, 978038, Note_off_c, 0, 62, 59
1, 978049, Note_off_c, 0, 60, 36
1, 978058, Note_off_c, 0, 65, 65
1, 978067, Note_on_c, 0, 56, 61
1, 978077, Note_on_c, 0, 68, 47
1, 978092, Note_off_c, 0, 59, 62
1, 978092, Note_on_c, 0, 71, 60
1, 978113, Note_off_c, 0, 68, 60
1, 978118, Note_off_c, 0, 70, 35
1, 978122, Note_off_c, 0, 56, 62
1, 978127, Note_off_c, 0, 71, 64
1, 978155, Poly_aftertouch_c, 0, 73, 0
1, 978160, Poly_aftertouch_c, 0, 73, 0
1, 978203, Note_on_c, 0, 77, 63
1, 978226, Control_c, 0, 64, 16
1, 978226, Control_c, 1, 64, 16
1, 978239, Note_on_c, 0, 89, 76
1, 978245, Control_c, 0, 64, 33
1, 978245, Control_c, 1, 64, 33
1, 978247, Note_off_c, 0, 77, 62
1, 978253, Note_on_c, 0, 40, 57
1, 978264, Control_c, 0, 64, 56
1, 978264, Control_c, 1, 64, 56
1, 978266, Note_on_c, 0, 41, 37
1, 978284, Control_c, 0, 64, 72
1, 978284, Control_c, 1, 64, 72
1, 978290, Note_on_c, 0, 88, 10
1, 978291, Note_off_c, 0, 88, 127
1, 978302, Control_c, 0, 64, 80
1, 978302, Control_c, 1, 64, 80
1, 978321, Control_c, 1, 64, 84
1, 978321, Control_c, 0, 64, 84
1, 978358, Control_c, 0, 64, 88
1, 978358, Control_c, 1, 64, 88
1, 978377, Control_c, 1, 64, 95
1, 978377, Control_c, 0, 64, 95
1, 978383, Poly_aftertouch_c, 0, 88, 0
1, 978387, Note_off_c, 0, 89, 61
1, 978394, Note_off_c, 0, 40, 53
1, 978396, Note_on_c, 0, 86, 69
1, 978397, Control_c, 0, 64, 108
1, 978397, Control_c, 1, 64, 108
1, 978401, Note_on_c, 0, 83, 60
1, 978415, Control_c, 0, 64, 127
1, 978415, Control_c, 1, 64, 127
1, 978439, Note_off_c, 0, 86, 63
1, 978439, Note_on_c, 0, 52, 56
1, 978444, Note_off_c, 0, 83, 63
1, 978452, Note_off_c, 0, 41, 23
1, 978470, Note_off_c, 0, 52, 56
1, 978634, Note_on_c, 0, 62, 64
1, 978645, Note_on_c, 0, 59, 47
1, 978669, Note_on_c, 0, 65, 33
1, 978680, Note_off_c, 0, 62, 57
1, 978680, Note_off_c, 0, 59, 56
1, 978690, Note_on_c, 0, 56, 57
1, 978744, Note_on_c, 0, 68, 65
1, 978748, Note_on_c, 0, 53, 60
1, 978751, Control_c, 0, 64, 96
1, 978751, Control_c, 1, 64, 96
1, 978757, Note_off_c, 0, 65, 38
1, 978760, Note_off_c, 0, 56, 62
1, 978770, Control_c, 0, 64, 65
1, 978770, Control_c, 1, 64, 65
1, 978780, Note_off_c, 0, 68, 69
1, 978782, Note_off_c, 0, 53, 62
1, 978788, Control_c, 0, 64, 34
1, 978788, Control_c, 1, 64, 34
1, 978826, Control_c, 1, 64, 0
1, 978826, Control_c, 0, 64, 0
1, 978895, Note_on_c, 0, 74, 49
1, 978912, Note_on_c, 0, 33, 71
1, 978927, Note_on_c, 0, 86, 69
1, 978932, Note_off_c, 0, 74, 49
1, 978956, Note_on_c, 0, 84, 51
1, 978975, Note_off_c, 0, 33, 55
1, 978975, Poly_aftertouch_c, 0, 33, 0
1, 978992, Note_off_c, 0, 84, 37
1, 979164, Note_on_c, 0, 83, 65
1, 979165, Note_off_c, 0, 86, 41
1, 979177, Note_on_c, 0, 40, 60
1, 979218, Note_off_c, 0, 83, 57
1, 979220, Note_off_c, 0, 40, 65
1, 979407, Note_on_c, 0, 45, 53
1, 979415, Note_on_c, 0, 71, 55
1, 979416, Note_on_c, 0, 80, 58
1, 979445, Note_off_c, 0, 45, 62
1, 979457, Note_off_c, 0, 71, 62
1, 979462, Note_off_c, 0, 80, 59
1, 979462, Poly_aftertouch_c, 0, 80, 0
1, 979723, Note_on_c, 0, 72, 49
1, 979732, Note_on_c, 0, 81, 53
1, 979733, Note_on_c, 0, 52, 40
1, 979798, Note_off_c, 0, 52, 52
1, 980194, Note_on_c, 0, 57, 37
1, 980248, Control_c, 0, 64, 8
1, 980248, Control_c, 1, 64, 8
1, 980268, Control_c, 1, 64, 29
1, 980268, Control_c, 0, 64, 29
1, 980286, Control_c, 0, 64, 61
1, 980286, Control_c, 1, 64, 61
1, 980305, Control_c, 1, 64, 86
1, 980305, Control_c, 0, 64, 86
1, 980323, Control_c, 0, 64, 127
1, 980323, Control_c, 1, 64, 127
1, 980335, Note_off_c, 0, 57, 50
1, 980504, Note_off_c, 0, 81, 55
1, 980531, Note_off_c, 0, 72, 37
1, 981054, Control_c, 0, 67, 119
1, 981054, Control_c, 1, 67, 119
1, 981073, Control_c, 1, 67, 110
1, 981073, Control_c, 0, 67, 110
1, 981092, Control_c, 0, 67, 99
1, 981092, Control_c, 1, 67, 99
1, 981109, Control_c, 1, 67, 90
1, 981109, Control_c, 0, 67, 90
1, 981130, Control_c, 0, 67, 83
1, 981130, Control_c, 1, 67, 83
1, 981147, Control_c, 1, 67, 79
1, 981147, Control_c, 0, 67, 79
1, 981184, Control_c, 0, 67, 75
1, 981184, Control_c, 1, 67, 75
1, 981204, Control_c, 1, 64, 107
1, 981204, Control_c, 0, 64, 107
1, 981222, Control_c, 0, 64, 96
1, 981222, Control_c, 1, 64, 96
1, 981242, Control_c, 1, 64, 87
1, 981242, Control_c, 0, 64, 87
1, 981259, Control_c, 0, 64, 79
1, 981259, Control_c, 1, 64, 79
1, 981279, Control_c, 1, 64, 73
1, 981279, Control_c, 0, 64, 73
1, 981280, Control_c, 0, 67, 68
1, 981280, Control_c, 1, 67, 68
1, 981297, Control_c, 1, 64, 68
1, 981297, Control_c, 0, 64, 68
1, 981315, Control_c, 0, 64, 64
1, 981315, Control_c, 1, 64, 64
1, 981318, Control_c, 1, 67, 63
1, 981318, Control_c, 0, 67, 63
1, 981334, Control_c, 0, 64, 60
1, 981334, Control_c, 1, 64, 60
1, 981353, Control_c, 1, 64, 58
1, 981353, Control_c, 0, 64, 58
1, 981354, Control_c, 0, 67, 59
1, 981354, Control_c, 1, 67, 59
1, 981466, Control_c, 1, 64, 56
1, 981466, Control_c, 0, 64, 56
1, 981560, Control_c, 0, 64, 53
1, 981560, Control_c, 1, 64, 53
1, 981577, Control_c, 1, 64, 50
1, 981577, Control_c, 0, 64, 50
1, 981597, Control_c, 0, 64, 46
1, 981597, Control_c, 1, 64, 46
1, 981615, Control_c, 1, 64, 41
1, 981615, Control_c, 0, 64, 41
1, 981652, Control_c, 0, 64, 37
1, 981652, Control_c, 1, 64, 37
1, 981690, Control_c, 1, 64, 31
1, 981690, Control_c, 0, 64, 31
1, 981803, Control_c, 0, 67, 55
1, 981803, Control_c, 1, 67, 55
1, 981821, Control_c, 1, 67, 51
1, 981821, Control_c, 0, 67, 51
1, 981841, Control_c, 0, 67, 44
1, 981841, Control_c, 1, 67, 44
1, 981858, Control_c, 1, 67, 38
1, 981858, Control_c, 0, 67, 38
1, 981878, Control_c, 0, 64, 39
1, 981878, Control_c, 1, 64, 39
1, 981879, Control_c, 1, 67, 33
1, 981879, Control_c, 0, 67, 33
1, 981896, Control_c, 0, 64, 47
1, 981896, Control_c, 1, 64, 47
1, 981915, Control_c, 1, 64, 58
1, 981915, Control_c, 0, 64, 58
1, 981916, Control_c, 0, 67, 29
1, 981916, Control_c, 1, 67, 29
1, 981926, Note_on_c, 0, 33, 54
1, 981934, Control_c, 0, 64, 64
1, 981934, Control_c, 1, 64, 64
1, 981946, Note_on_c, 0, 57, 31
1, 981953, Control_c, 0, 64, 67
1, 981953, Control_c, 1, 64, 67
1, 981970, Control_c, 1, 67, 24
1, 981970, Control_c, 0, 67, 24
1, 981991, Control_c, 0, 64, 70
1, 981991, Control_c, 1, 64, 70
1, 982009, Control_c, 1, 64, 73
1, 982009, Control_c, 0, 64, 73
1, 982011, Control_c, 0, 67, 20
1, 982011, Control_c, 1, 67, 20
1, 982027, Control_c, 1, 64, 78
1, 982027, Control_c, 0, 64, 78
1, 982046, Control_c, 0, 64, 85
1, 982046, Control_c, 1, 64, 85
1, 982064, Control_c, 1, 64, 93
1, 982064, Control_c, 0, 64, 93
1, 982066, Control_c, 0, 67, 16
1, 982066, Control_c, 1, 67, 16
1, 982083, Control_c, 1, 64, 102
1, 982083, Control_c, 0, 64, 102
1, 982102, Control_c, 0, 64, 111
1, 982102, Control_c, 1, 64, 111
1, 982120, Control_c, 1, 64, 127
1, 982120, Control_c, 0, 64, 127
1, 982283, Note_off_c, 0, 57, 39
1, 982287, Note_on_c, 0, 68, 45
1, 982311, Note_off_c, 0, 33, 58
1, 982311, Note_on_c, 0, 44, 48
1, 982311, Poly_aftertouch_c, 0, 33, 0
1, 982400, Note_off_c, 0, 44, 51
1, 982400, Control_c, 0, 67, 9
1, 982400, Control_c, 1, 67, 9
1, 982531, Note_off_c, 0, 68, 60
1, 982585, Note_on_c, 0, 45, 56
1, 982598, Note_on_c, 0, 69, 54
1, 982833, Note_on_c, 0, 80, 62
1, 982854, Note_on_c, 0, 56, 56
1, 982855, Note_off_c, 0, 69, 59
1, 982899, Note_off_c, 0, 56, 61
1, 982910, Note_off_c, 0, 45, 53
1, 982926, Control_c, 0, 67, 0
1, 982926, Control_c, 1, 67, 0
1, 983065, Note_on_c, 0, 81, 73
1, 983103, Note_on_c, 0, 45, 56
1, 983115, Note_off_c, 0, 80, 59
1, 983115, Poly_aftertouch_c, 0, 80, 0
1, 983119, Note_on_c, 0, 57, 42
1, 983143, Note_on_c, 0, 69, 7
1, 983164, Note_off_c, 0, 57, 52
1, 983221, Note_off_c, 0, 69, 26
1, 983303, Note_off_c, 0, 45, 61
1, 983307, Note_on_c, 0, 83, 83
1, 983328, Note_on_c, 0, 47, 67
1, 983345, Note_on_c, 0, 59, 53
1, 983374, Note_on_c, 0, 71, 24
1, 983380, Note_off_c, 0, 59, 57
1, 983403, Note_off_c, 0, 81, 49
1, 983428, Note_off_c, 0, 71, 40
1, 983522, Note_off_c, 0, 47, 57
1, 983548, Note_on_c, 0, 84, 82
1, 983554, Note_on_c, 0, 48, 70
1, 983566, Note_on_c, 0, 72, 62
1, 983570, Note_on_c, 0, 60, 60
1, 983585, Note_off_c, 0, 83, 62
1, 983618, Note_off_c, 0, 72, 53
1, 983625, Note_off_c, 0, 60, 52
1, 983741, Note_off_c, 0, 84, 59
1, 983747, Note_on_c, 0, 81, 80
1, 983756, Note_off_c, 0, 48, 58
1, 983760, Note_on_c, 0, 57, 63
1, 983760, Note_on_c, 0, 45, 77
1, 983782, Note_on_c, 0, 69, 56
1, 983799, Note_off_c, 0, 57, 64
1, 983811, Note_off_c, 0, 69, 59
1, 983811, Note_off_c, 0, 81, 62
1, 983818, Note_off_c, 0, 45, 60
1, 984083, Note_on_c, 0, 28, 86
1, 984107, Note_on_c, 0, 52, 70
1, 984123, Control_c, 0, 64, 84
1, 984123, Control_c, 1, 64, 84
1, 984142, Control_c, 1, 64, 60
1, 984142, Control_c, 0, 64, 60
1, 984162, Control_c, 0, 64, 41
1, 984162, Control_c, 1, 64, 41
1, 984179, Control_c, 1, 64, 24
1, 984179, Control_c, 0, 64, 24
1, 984199, Control_c, 0, 64, 13
1, 984199, Control_c, 1, 64, 13
1, 984274, Control_c, 1, 64, 24
1, 984274, Control_c, 0, 64, 24
1, 984292, Control_c, 0, 64, 44
1, 984292, Control_c, 1, 64, 44
1, 984310, Control_c, 1, 64, 70
1, 984310, Control_c, 0, 64, 70
1, 984329, Control_c, 0, 64, 95
1, 984329, Control_c, 1, 64, 95
1, 984349, Control_c, 1, 64, 127
1, 984349, Control_c, 0, 64, 127
1, 984366, Note_on_c, 0, 63, 66
1, 984367, Note_off_c, 0, 52, 59
1, 984382, Note_on_c, 0, 39, 62
1, 984389, Note_off_c, 0, 28, 61
1, 984451, Note_off_c, 0, 39, 60
1, 984529, Note_off_c, 0, 63, 63
1, 984600, Note_on_c, 0, 64, 67
1, 984611, Note_on_c, 0, 40, 67
1, 984782, Note_off_c, 0, 40, 60
1, 984785, Note_on_c, 0, 51, 71
1, 984792, Note_on_c, 0, 75, 73
1, 984796, Note_off_c, 0, 64, 57
1, 984836, Note_off_c, 0, 51, 55
1, 984890, Note_off_c, 0, 75, 62
1, 984972, Note_on_c, 0, 76, 80
1, 984976, Note_on_c, 0, 52, 78
1, 985088, Note_on_c, 0, 88, 97
1, 985095, Note_on_c, 0, 64, 89
1, 985213, Note_off_c, 0, 64, 52
1, 985231, Note_off_c, 0, 76, 60
1, 985238, Note_off_c, 0, 88, 64
1, 985244, Note_off_c, 0, 52, 54
1, 985334, Note_on_c, 0, 86, 96
1, 985340, Note_on_c, 0, 74, 86
1, 985344, Note_on_c, 0, 62, 78
1, 985348, Note_on_c, 0, 50, 83
1, 985421, Note_off_c, 0, 62, 59
1, 985434, Note_off_c, 0, 74, 60
1, 985441, Note_off_c, 0, 86, 64
1, 985452, Note_off_c, 0, 50, 58
1, 985539, Note_on_c, 0, 84, 92
1, 985543, Note_on_c, 0, 72, 88
1, 985550, Note_on_c, 0, 60, 80
1, 985553, Note_on_c, 0, 48, 83
1, 985611, Note_off_c, 0, 60, 60
1, 985639, Note_off_c, 0, 72, 60
1, 985656, Note_off_c, 0, 84, 63
1, 985658, Note_off_c, 0, 48, 60
1, 985742, Note_on_c, 0, 83, 91
1, 985749, Note_on_c, 0, 71, 86
1, 985755, Note_on_c, 0, 47, 84
1, 985756, Note_on_c, 0, 59, 78
1, 985795, Note_off_c, 0, 59, 64
1, 985810, Note_off_c, 0, 71, 62
1, 985814, Note_off_c, 0, 83, 64
1, 985835, Note_off_c, 0, 47, 61
1, 986088, Control_c, 0, 64, 100
1, 986088, Control_c, 1, 64, 100
1, 986101, Note_on_c, 0, 33, 85
1, 986107, Control_c, 0, 64, 62
1, 986107, Control_c, 1, 64, 62
1, 986126, Control_c, 1, 64, 30
1, 986126, Control_c, 0, 64, 30
1, 986129, Note_on_c, 0, 57, 75
1, 986145, Control_c, 0, 64, 9
1, 986145, Control_c, 1, 64, 9
1, 986276, Control_c, 1, 64, 23
1, 986276, Control_c, 0, 64, 23
1, 986296, Control_c, 0, 64, 41
1, 986296, Control_c, 1, 64, 41
1, 986313, Control_c, 1, 64, 66
1, 986313, Control_c, 0, 64, 66
1, 986332, Control_c, 0, 64, 86
1, 986332, Control_c, 1, 64, 86
1, 986351, Control_c, 1, 64, 121
1, 986351, Control_c, 0, 64, 121
1, 986370, Control_c, 0, 64, 127
1, 986370, Control_c, 1, 64, 127
1, 986376, Note_off_c, 0, 57, 61
1, 986384, Note_on_c, 0, 68, 70
1, 986387, Note_off_c, 0, 33, 58
1, 986387, Poly_aftertouch_c, 0, 33, 0
1, 986389, Note_on_c, 0, 44, 64
1, 986449, Note_off_c, 0, 44, 56
1, 986553, Note_off_c, 0, 68, 61
1, 986593, Note_on_c, 0, 45, 72
1, 986606, Note_on_c, 0, 69, 73
1, 986807, Note_on_c, 0, 56, 63
1, 986807, Note_on_c, 0, 80, 76
1, 986838, Note_off_c, 0, 45, 43
1, 986842, Note_off_c, 0, 69, 53
1, 986888, Note_off_c, 0, 56, 61
1, 987016, Note_on_c, 0, 81, 81
1, 987024, Note_on_c, 0, 45, 70
1, 987043, Note_on_c, 0, 69, 58
1, 987044, Note_on_c, 0, 57, 58
1, 987074, Note_off_c, 0, 80, 61
1, 987074, Poly_aftertouch_c, 0, 80, 0
1, 987092, Note_off_c, 0, 57, 61
1, 987094, Note_off_c, 0, 69, 53
1, 987220, Note_off_c, 0, 45, 56
1, 987221, Note_on_c, 0, 83, 86
1, 987233, Note_on_c, 0, 47, 76
1, 987243, Note_on_c, 0, 59, 67
1, 987253, Note_on_c, 0, 71, 60
1, 987282, Note_off_c, 0, 59, 64
1, 987287, Note_off_c, 0, 71, 59
1, 987310, Note_off_c, 0, 81, 61
1, 987409, Note_off_c, 0, 47, 57
1, 987411, Poly_aftertouch_c, 0, 82, 0
1, 987419, Note_on_c, 0, 48, 76
1, 987420, Note_on_c, 0, 84, 88
1, 987431, Note_on_c, 0, 72, 76
1, 987453, Note_on_c, 0, 60, 58
1, 987461, Note_off_c, 0, 83, 63
1, 987489, Note_off_c, 0, 60, 56
1, 987503, Note_off_c, 0, 72, 58
1, 987606, Note_on_c, 0, 45, 83
1, 987609, Note_on_c, 0, 81, 85
1, 987614, Note_off_c, 0, 84, 62
1, 987630, Note_off_c, 0, 48, 40
1, 987633, Note_on_c, 0, 57, 55
1, 987635, Note_on_c, 0, 59, 37
1, 987635, Note_on_c, 0, 69, 69
1, 987640, Note_on_c, 0, 71, 50
1, 987668, Note_off_c, 0, 57, 56
1, 987669, Note_off_c, 0, 69, 64
1, 987674, Note_off_c, 0, 71, 59
1, 987678, Note_off_c, 0, 59, 46
1, 987680, Note_off_c, 0, 81, 61
1, 987683, Note_off_c, 0, 45, 63
1, 987724, Poly_aftertouch_c, 0, 47, 127
1, 987735, Poly_aftertouch_c, 0, 47, 0
1, 987922, Note_on_c, 0, 28, 91
1, 987922, Control_c, 0, 64, 95
1, 987922, Control_c, 1, 64, 95
1, 987940, Note_on_c, 0, 52, 80
1, 987941, Control_c, 0, 64, 55
1, 987941, Control_c, 1, 64, 55
1, 987961, Control_c, 1, 64, 17
1, 987961, Control_c, 0, 64, 17
1, 987979, Control_c, 0, 64, 0
1, 987979, Control_c, 1, 64, 0
1, 988036, Control_c, 1, 64, 8
1, 988036, Control_c, 0, 64, 8
1, 988054, Control_c, 0, 64, 30
1, 988054, Control_c, 1, 64, 30
1, 988073, Control_c, 1, 64, 62
1, 988073, Control_c, 0, 64, 62
1, 988093, Control_c, 0, 64, 95
1, 988093, Control_c, 1, 64, 95
1, 988110, Control_c, 1, 64, 127
1, 988110, Control_c, 0, 64, 127
1, 988178, Note_on_c, 0, 63, 75
1, 988182, Note_on_c, 0, 39, 77
1, 988183, Note_off_c, 0, 52, 59
1, 988187, Note_off_c, 0, 28, 58
1, 988257, Note_off_c, 0, 39, 64
1, 988313, Note_off_c, 0, 63, 62
1, 988380, Note_on_c, 0, 40, 81
1, 988383, Note_on_c, 0, 64, 82
1, 988565, Note_on_c, 0, 51, 82
1, 988569, Note_off_c, 0, 40, 62
1, 988571, Note_on_c, 0, 75, 85
1, 988581, Note_off_c, 0, 64, 60
1, 988629, Note_off_c, 0, 51, 63
1, 988671, Note_off_c, 0, 75, 65
1, 988759, Note_on_c, 0, 76, 91
1, 988767, Note_on_c, 0, 52, 73
1, 988800, Note_on_c, 0, 50, 37
1, 988801, Note_off_c, 0, 50, 127
1, 988851, Poly_aftertouch_c, 0, 50, 0
1, 988924, Note_on_c, 0, 63, 86
1, 988930, Note_on_c, 0, 87, 83
1, 988932, Note_off_c, 0, 52, 60
1, 988933, Note_off_c, 0, 76, 61
1, 988986, Note_off_c, 0, 63, 65
1, 989000, Note_on_c, 0, 88, 29
1, 989010, Note_off_c, 0, 87, 65
1, 989049, Note_off_c, 0, 88, 43
1, 989076, Note_on_c, 0, 88, 79
1, 989101, Note_on_c, 0, 64, 82
1, 989208, Note_on_c, 0, 100, 102
1, 989229, Note_on_c, 0, 76, 95
1, 989277, Note_off_c, 0, 76, 66
1, 989289, Note_off_c, 0, 88, 61
1, 989295, Note_off_c, 0, 100, 65
1, 989305, Note_off_c, 0, 64, 64
1, 989777, Control_c, 0, 64, 109
1, 989777, Control_c, 1, 64, 109
1, 989794, Note_on_c, 0, 57, 86
1, 989795, Control_c, 0, 64, 61
1, 989795, Control_c, 1, 64, 61
1, 989804, Note_on_c, 0, 33, 83
1, 989812, Control_c, 0, 64, 17
1, 989812, Control_c, 1, 64, 17
1, 989832, Control_c, 1, 64, 0
1, 989832, Control_c, 0, 64, 0
1, 989889, Control_c, 0, 64, 9
1, 989889, Control_c, 1, 64, 9
1, 989907, Control_c, 1, 64, 34
1, 989907, Control_c, 0, 64, 34
1, 989926, Control_c, 0, 64, 68
1, 989926, Control_c, 1, 64, 68
1, 989944, Control_c, 1, 64, 108
1, 989944, Control_c, 0, 64, 108
1, 989964, Control_c, 0, 64, 127
1, 989964, Control_c, 1, 64, 127
1, 990042, Note_on_c, 0, 44, 86
1, 990045, Note_on_c, 0, 68, 80
1, 990049, Note_off_c, 0, 33, 59
1, 990049, Poly_aftertouch_c, 0, 33, 0
1, 990060, Note_off_c, 0, 57, 62
1, 990109, Note_off_c, 0, 44, 60
1, 990171, Note_off_c, 0, 68, 62
1, 990231, Note_on_c, 0, 45, 81
1, 990231, Note_on_c, 0, 69, 83
1, 990416, Note_on_c, 0, 56, 81
1, 990422, Note_on_c, 0, 80, 89
1, 990476, Note_off_c, 0, 69, 57
1, 990480, Note_off_c, 0, 45, 60
1, 990502, Note_off_c, 0, 56, 59
1, 990608, Note_on_c, 0, 81, 87
1, 990617, Control_c, 0, 64, 94
1, 990617, Control_c, 1, 64, 94
1, 990619, Note_on_c, 0, 69, 79
1, 990620, Note_on_c, 0, 45, 83
1, 990626, Note_on_c, 0, 57, 80
1, 990639, Control_c, 0, 64, 62
1, 990639, Control_c, 1, 64, 62
1, 990656, Control_c, 1, 64, 59
1, 990656, Control_c, 0, 64, 59
1, 990675, Control_c, 0, 64, 70
1, 990675, Control_c, 1, 64, 70
1, 990679, Note_off_c, 0, 80, 62
1, 990679, Poly_aftertouch_c, 0, 80, 0
1, 990694, Control_c, 0, 64, 94
1, 990694, Control_c, 1, 64, 94
1, 990700, Note_off_c, 0, 69, 59
1, 990712, Control_c, 0, 64, 127
1, 990712, Control_c, 1, 64, 127
1, 990715, Note_off_c, 0, 57, 62
1, 990806, Note_off_c, 0, 45, 57
1, 990807, Note_on_c, 0, 83, 89
1, 990817, Note_on_c, 0, 47, 82
1, 990824, Note_on_c, 0, 59, 80
1, 990830, Note_on_c, 0, 71, 78
1, 990891, Note_off_c, 0, 59, 59
1, 990896, Note_off_c, 0, 81, 53
1, 990899, Note_off_c, 0, 71, 57
1, 991004, Note_off_c, 0, 47, 55
1, 991014, Note_on_c, 0, 84, 92
1, 991017, Note_on_c, 0, 72, 86
1, 991018, Note_on_c, 0, 48, 81
1, 991029, Note_on_c, 0, 60, 80
1, 991059, Note_off_c, 0, 83, 60
1, 991095, Note_off_c, 0, 72, 60
1, 991117, Note_off_c, 0, 60, 58
1, 991207, Note_on_c, 0, 81, 89
1, 991213, Note_off_c, 0, 48, 62
1, 991216, Note_on_c, 0, 45, 83
1, 991220, Note_on_c, 0, 57, 79
1, 991222, Note_on_c, 0, 71, 68
1, 991228, Note_on_c, 0, 69, 76
1, 991232, Note_on_c, 0, 83, 47
1, 991233, Note_off_c, 0, 83, 127
1, 991235, Note_on_c, 0, 47, 66
1, 991240, Note_off_c, 0, 84, 63
1, 991249, Note_off_c, 0, 57, 70
1, 991255, Note_off_c, 0, 71, 65
1, 991255, Note_off_c, 0, 69, 68
1, 991268, Poly_aftertouch_c, 0, 83, 0
1, 991270, Note_off_c, 0, 47, 56
1, 991281, Note_off_c, 0, 81, 62
1, 991288, Note_off_c, 0, 45, 63
1, 991550, Note_on_c, 0, 52, 85
1, 991550, Note_on_c, 0, 28, 91
1, 991554, Control_c, 0, 64, 68
1, 991554, Control_c, 1, 64, 68
1, 991573, Control_c, 1, 64, 26
1, 991573, Control_c, 0, 64, 26
1, 991577, Note_on_c, 0, 29, 53
1, 991592, Control_c, 0, 64, 0
1, 991592, Control_c, 1, 64, 0
1, 991648, Control_c, 1, 64, 19
1, 991648, Control_c, 0, 64, 19
1, 991649, Note_off_c, 0, 29, 40
1, 991668, Control_c, 0, 64, 46
1, 991668, Control_c, 1, 64, 46
1, 991685, Control_c, 1, 64, 77
1, 991685, Control_c, 0, 64, 77
1, 991704, Control_c, 0, 64, 127
1, 991704, Control_c, 1, 64, 127
1, 991758, Note_on_c, 0, 32, 22
1, 991784, Note_on_c, 0, 63, 80
1, 991791, Note_on_c, 0, 39, 79
1, 991793, Note_off_c, 0, 52, 59
1, 991801, Note_off_c, 0, 28, 62
1, 991817, Note_off_c, 0, 32, 45
1, 991865, Note_off_c, 0, 39, 64
1, 991897, Note_off_c, 0, 63, 62
1, 991958, Note_on_c, 0, 64, 88
1, 991960, Note_on_c, 0, 40, 78
1, 992017, Note_on_c, 0, 41, 17
1, 992018, Note_off_c, 0, 41, 127
1, 992089, Note_on_c, 0, 51, 84
1, 992091, Note_off_c, 0, 40, 61
1, 992104, Note_off_c, 0, 64, 60
1, 992105, Note_on_c, 0, 75, 84
1, 992147, Note_off_c, 0, 51, 63
1, 992178, Note_off_c, 0, 75, 65
1, 992246, Note_on_c, 0, 76, 90
1, 992265, Note_on_c, 0, 52, 87
1, 992373, Note_on_c, 0, 88, 102
1, 992389, Note_on_c, 0, 64, 97
1, 992544, Note_off_c, 0, 88, 65
1, 992557, Note_off_c, 0, 76, 63
1, 992563, Note_off_c, 0, 64, 61
1, 992588, Note_off_c, 0, 52, 58
1, 992637, Note_on_c, 0, 86, 92
1, 992654, Note_on_c, 0, 74, 79
1, 992656, Note_on_c, 0, 72, 86
1, 992657, Note_on_c, 0, 62, 84
1, 992659, Note_on_c, 0, 84, 69
1, 992667, Note_on_c, 0, 50, 87
1, 992691, Note_off_c, 0, 84, 35
1, 992713, Note_off_c, 0, 72, 59
1, 992726, Note_off_c, 0, 74, 62
1, 992729, Note_off_c, 0, 62, 60
1, 992734, Note_off_c, 0, 50, 63
1, 992735, Note_off_c, 0, 86, 63
1, 992818, Note_on_c, 0, 84, 83
1, 992824, Note_on_c, 0, 72, 97
1, 992825, Note_on_c, 0, 60, 87
1, 992836, Note_on_c, 0, 48, 78
1, 992870, Note_on_c, 0, 50, 53
1, 992880, Note_off_c, 0, 72, 62
1, 992885, Note_off_c, 0, 60, 62
1, 992898, Note_off_c, 0, 50, 41
1, 992906, Note_off_c, 0, 84, 63
1, 992917, Note_off_c, 0, 48, 61
1, 993001, Note_on_c, 0, 83, 96
1, 993003, Note_on_c, 0, 59, 85
1, 993004, Note_on_c, 0, 71, 93
1, 993005, Note_on_c, 0, 47, 87
1, 993051, Note_off_c, 0, 59, 60
1, 993056, Note_off_c, 0, 83, 64
1, 993065, Note_off_c, 0, 71, 64
1, 993081, Note_off_c, 0, 47, 64
1, 993130, Poly_aftertouch_c, 0, 49, 0
1, 993259, Control_c, 0, 64, 105
1, 993259, Control_c, 1, 64, 105
1, 993276, Control_c, 1, 64, 56
1, 993276, Control_c, 0, 64, 56
1, 993280, Note_on_c, 0, 33, 91
1, 993290, Note_on_c, 0, 57, 85
1, 993314, Control_c, 0, 64, 0
1, 993314, Control_c, 1, 64, 0
1, 993370, Control_c, 1, 64, 26
1, 993370, Control_c, 0, 64, 26
1, 993390, Control_c, 0, 64, 66
1, 993390, Control_c, 1, 64, 66
1, 993407, Control_c, 1, 64, 127
1, 993407, Control_c, 0, 64, 127
1, 993497, Note_on_c, 0, 44, 87
1, 993508, Note_on_c, 0, 68, 84
1, 993509, Note_off_c, 0, 57, 60
1, 993513, Note_off_c, 0, 33, 61
1, 993513, Poly_aftertouch_c, 0, 33, 0
1, 993572, Note_off_c, 0, 44, 62
1, 993628, Note_off_c, 0, 68, 64
1, 993681, Note_on_c, 0, 45, 84
1, 993688, Note_on_c, 0, 69, 82
1, 993866, Note_on_c, 0, 56, 82
1, 993873, Note_on_c, 0, 80, 86
1, 993921, Note_off_c, 0, 69, 58
1, 993936, Note_off_c, 0, 45, 56
1, 993952, Note_on_c, 0, 47, 28
1, 993969, Note_off_c, 0, 56, 57
1, 994005, Note_off_c, 0, 47, 45
1, 994069, Note_on_c, 0, 81, 84
1, 994077, Note_on_c, 0, 45, 82
1, 994081, Note_on_c, 0, 69, 76
1, 994081, Control_c, 0, 64, 88
1, 994081, Control_c, 1, 64, 88
1, 994082, Note_on_c, 0, 57, 81
1, 994100, Control_c, 0, 64, 66
1, 994100, Control_c, 1, 64, 66
1, 994119, Control_c, 1, 64, 67
1, 994119, Control_c, 0, 64, 67
1, 994135, Note_off_c, 0, 80, 63
1, 994135, Poly_aftertouch_c, 0, 80, 0
1, 994138, Control_c, 0, 64, 78
1, 994138, Control_c, 1, 64, 78
1, 994156, Control_c, 1, 64, 116
1, 994156, Control_c, 0, 64, 116
1, 994171, Note_off_c, 0, 69, 60
1, 994174, Control_c, 0, 64, 127
1, 994174, Control_c, 1, 64, 127
1, 994189, Note_off_c, 0, 57, 62
1, 994265, Note_on_c, 0, 83, 91
1, 994272, Note_on_c, 0, 47, 87
1, 994274, Note_on_c, 0, 71, 83
1, 994275, Note_off_c, 0, 45, 63
1, 994284, Note_on_c, 0, 59, 76
1, 994315, Note_on_c, 0, 57, 44
1, 994348, Note_off_c, 0, 59, 63
1, 994348, Note_off_c, 0, 57, 58
1, 994350, Note_off_c, 0, 71, 56
1, 994413, Note_off_c, 0, 81, 32
1, 994457, Note_on_c, 0, 84, 97
1, 994461, Note_on_c, 0, 48, 85
1, 994461, Note_on_c, 0, 72, 89
1, 994474, Note_off_c, 0, 47, 46
1, 994475, Note_on_c, 0, 60, 78
1, 994505, Note_off_c, 0, 83, 62
1, 994513, Note_on_c, 0, 59, 38
1, 994514, Note_off_c, 0, 59, 127
1, 994540, Note_off_c, 0, 60, 58
1, 994542, Note_off_c, 0, 72, 61
1, 994631, Note_off_c, 0, 84, 51
1, 994644, Note_on_c, 0, 81, 92
1, 994651, Note_on_c, 0, 57, 81
1, 994655, Note_on_c, 0, 45, 84
1, 994657, Note_on_c, 0, 69, 86
1, 994667, Note_off_c, 0, 48, 51
1, 994671, Note_on_c, 0, 71, 72
1, 994672, Note_on_c, 0, 47, 60
1, 994686, Note_off_c, 0, 57, 64
1, 994694, Note_off_c, 0, 71, 63
1, 994713, Note_off_c, 0, 69, 57
1, 994726, Note_off_c, 0, 47, 48
1, 994726, Note_off_c, 0, 45, 62
1, 994728, Note_off_c, 0, 81, 63
1, 994764, Poly_aftertouch_c, 0, 78, 0
1, 994767, Poly_aftertouch_c, 0, 59, 0
1, 994980, Control_c, 0, 64, 82
1, 994980, Control_c, 1, 64, 82
1, 994981, Note_on_c, 0, 28, 96
1, 994988, Note_on_c, 0, 52, 88
1, 995000, Control_c, 0, 64, 38
1, 995000, Control_c, 1, 64, 38
1, 995011, Note_on_c, 0, 53, 57
1, 995016, Control_c, 0, 64, 0
1, 995016, Control_c, 1, 64, 0
1, 995093, Control_c, 1, 64, 45
1, 995093, Control_c, 0, 64, 45
1, 995112, Control_c, 0, 64, 104
1, 995112, Control_c, 1, 64, 104
1, 995130, Control_c, 1, 64, 127
1, 995130, Control_c, 0, 64, 127
1, 995223, Note_on_c, 0, 63, 86
1, 995227, Note_on_c, 0, 39, 86
1, 995242, Note_off_c, 0, 28, 61
1, 995245, Note_off_c, 0, 52, 60
1, 995266, Poly_aftertouch_c, 0, 53, 24
1, 995295, Note_on_c, 0, 61, 8
1, 995296, Note_off_c, 0, 53, 37
1, 995296, Poly_aftertouch_c, 0, 53, 0
1, 995297, Poly_aftertouch_c, 0, 53, 0
1, 995300, Note_off_c, 0, 39, 65
1, 995364, Note_off_c, 0, 63, 63
1, 995375, Note_off_c, 0, 61, 32
1, 995418, Note_on_c, 0, 40, 80
1, 995422, Note_on_c, 0, 64, 87
1, 995484, Note_on_c, 0, 41, 6
1, 995485, Note_off_c, 0, 41, 127
1, 995575, Poly_aftertouch_c, 0, 41, 127
1, 995599, Note_on_c, 0, 51, 86
1, 995606, Note_on_c, 0, 75, 89
1, 995615, Note_off_c, 0, 40, 59
1, 995617, Note_off_c, 0, 64, 59
1, 995657, Poly_aftertouch_c, 0, 41, 0
1, 995660, Note_on_c, 0, 52, 37
1, 995662, Note_off_c, 0, 51, 61
1, 995696, Note_off_c, 0, 52, 54
1, 995704, Note_off_c, 0, 75, 66
1, 995737, Poly_aftertouch_c, 0, 73, 0
1, 995777, Note_on_c, 0, 76, 93
1, 995791, Note_on_c, 0, 52, 77
1, 995933, Note_off_c, 0, 52, 61
1, 995939, Poly_aftertouch_c, 0, 53, 0
1, 995940, Note_on_c, 0, 63, 89
1, 995941, Note_off_c, 0, 76, 62
1, 995947, Note_on_c, 0, 87, 88
1, 995997, Note_off_c, 0, 63, 65
1, 996022, Note_off_c, 0, 87, 67
1, 996082, Note_on_c, 0, 88, 85
1, 996101, Note_on_c, 0, 64, 88
1, 996206, Note_on_c, 0, 100, 106
1, 996221, Note_on_c, 0, 76, 96
1, 996269, Note_off_c, 0, 76, 67
1, 996278, Note_off_c, 0, 100, 66
1, 996298, Note_off_c, 0, 64, 64
1, 996299, Note_off_c, 0, 88, 61
1, 996753, Note_on_c, 0, 57, 91
1, 996758, Control_c, 0, 64, 66
1, 996758, Control_c, 1, 64, 66
1, 996761, Note_on_c, 0, 33, 95
1, 996777, Control_c, 0, 64, 20
1, 996777, Control_c, 1, 64, 20
1, 996795, Control_c, 1, 64, 0
1, 996795, Control_c, 0, 64, 0
1, 996852, Control_c, 0, 64, 18
1, 996852, Control_c, 1, 64, 18
1, 996871, Control_c, 1, 64, 46
1, 996871, Control_c, 0, 64, 46
1, 996889, Control_c, 0, 64, 76
1, 996889, Control_c, 1, 64, 76
1, 996909, Control_c, 1, 64, 107
1, 996909, Control_c, 0, 64, 107
1, 996927, Control_c, 0, 64, 127
1, 996927, Control_c, 1, 64, 127
1, 997021, Note_on_c, 0, 44, 86
1, 997024, Note_on_c, 0, 68, 85
1, 997041, Note_off_c, 0, 33, 61
1, 997041, Poly_aftertouch_c, 0, 33, 0
1, 997050, Note_off_c, 0, 57, 64
1, 997106, Note_off_c, 0, 44, 61
1, 997141, Note_off_c, 0, 68, 64
1, 997168, Poly_aftertouch_c, 0, 66, 0
1, 997200, Note_on_c, 0, 69, 89
1, 997207, Note_on_c, 0, 45, 82
1, 997349, Note_on_c, 0, 56, 83
1, 997350, Note_on_c, 0, 80, 84
1, 997356, Note_off_c, 0, 69, 60
1, 997359, Note_off_c, 0, 45, 63
1, 997414, Note_off_c, 0, 56, 63
1, 997430, Note_off_c, 0, 80, 65
1, 997430, Poly_aftertouch_c, 0, 80, 0
1, 997487, Note_on_c, 0, 81, 91
1, 997518, Note_on_c, 0, 57, 87
1, 997609, Note_on_c, 0, 93, 98
1, 997623, Note_on_c, 0, 69, 96
1, 997701, Note_off_c, 0, 81, 63
1, 997735, Note_off_c, 0, 69, 55
1, 997805, Note_on_c, 0, 79, 93
1, 997806, Note_on_c, 0, 91, 86
1, 997809, Note_on_c, 0, 55, 80
1, 997836, Note_on_c, 0, 67, 69
1, 997855, Note_on_c, 0, 65, 56
1, 997859, Note_off_c, 0, 93, 63
1, 997885, Note_off_c, 0, 79, 62
1, 997889, Note_off_c, 0, 65, 53
1, 997908, Note_off_c, 0, 91, 63
1, 997911, Note_off_c, 0, 67, 63
1, 997965, Note_off_c, 0, 57, 51
1, 997978, Note_on_c, 0, 89, 97
1, 997985, Note_on_c, 0, 77, 91
1, 997998, Note_on_c, 0, 65, 85
1, 998001, Note_on_c, 0, 53, 88
1, 998051, Note_off_c, 0, 77, 61
1, 998058, Note_off_c, 0, 65, 63
1, 998062, Note_off_c, 0, 55, 38
1, 998147, Note_on_c, 0, 76, 95
1, 998148, Note_on_c, 0, 52, 89
1, 998152, Note_on_c, 0, 64, 82
1, 998153, Note_on_c, 0, 88, 84
1, 998175, Note_off_c, 0, 64, 70
1, 998179, Note_off_c, 0, 53, 63
1, 998182, Note_off_c, 0, 89, 63
1, 998204, Note_off_c, 0, 76, 64
1, 998207, Note_off_c, 0, 52, 64
1, 998213, Note_off_c, 0, 88, 67
1, 998460, Note_on_c, 0, 26, 98
1, 998461, Control_c, 0, 64, 109
1, 998461, Control_c, 1, 64, 109
1, 998476, Note_on_c, 0, 50, 88
1, 998479, Control_c, 0, 64, 57
1, 998479, Control_c, 1, 64, 57
1, 998498, Control_c, 1, 64, 0
1, 998498, Control_c, 0, 64, 0
1, 998574, Control_c, 0, 64, 32
1, 998574, Control_c, 1, 64, 32
1, 998593, Control_c, 1, 64, 81
1, 998593, Control_c, 0, 64, 81
1, 998612, Control_c, 0, 64, 127
1, 998612, Control_c, 1, 64, 127
1, 998687, Note_on_c, 0, 37, 86
1, 998692, Note_on_c, 0, 61, 80
1, 998701, Note_off_c, 0, 26, 61
1, 998708, Note_off_c, 0, 50, 61
1, 998721, Note_on_c, 0, 58, 48
1, 998757, Note_off_c, 0, 58, 58
1, 998766, Note_off_c, 0, 37, 62
1, 998812, Note_off_c, 0, 61, 61
1, 998876, Note_on_c, 0, 62, 86
1, 998877, Note_on_c, 0, 38, 83
1, 999013, Note_on_c, 0, 49, 87
1, 999026, Note_off_c, 0, 38, 62
1, 999027, Note_on_c, 0, 73, 81
1, 999038, Note_off_c, 0, 62, 59
1, 999090, Note_off_c, 0, 49, 61
1, 999113, Note_off_c, 0, 73, 65
1, 999251, Note_on_c, 0, 74, 89
1, 999252, Note_on_c, 0, 86, 93
1, 999265, Note_on_c, 0, 50, 77
1, 999267, Note_on_c, 0, 62, 81
1, 999270, Note_on_c, 0, 48, 75
1, 999306, Note_off_c, 0, 48, 65
1, 999378, Note_off_c, 0, 62, 58
1, 999390, Note_off_c, 0, 50, 61
1, 999392, Note_off_c, 0, 74, 60
1, 999412, Note_off_c, 0, 86, 63
1, 999470, Note_on_c, 0, 88, 99
1, 999471, Note_on_c, 0, 64, 97
1, 999474, Note_on_c, 0, 76, 99
1, 999478, Note_on_c, 0, 52, 92
1, 999517, Note_on_c, 0, 54, 48
1, 999525, Note_on_c, 0, 58, 25
1, 999556, Note_off_c, 0, 54, 56
1, 999565, Note_off_c, 0, 64, 58
1, 999579, Note_off_c, 0, 52, 63
1, 999580, Note_off_c, 0, 76, 62
1, 999581, Note_off_c, 0, 88, 67
1, 999588, Note_off_c, 0, 58, 52
1, 999664, Note_on_c, 0, 65, 97
1, 999666, Note_on_c, 0, 89, 103
1, 999666, Note_on_c, 0, 77, 105
1, 999667, Note_on_c, 0, 53, 92
1, 999734, Note_off_c, 0, 65, 64
1, 999749, Note_off_c, 0, 77, 62
1, 999754, Note_off_c, 0, 89, 66
1, 999760, Note_off_c, 0, 53, 60
1, 999773, Poly_aftertouch_c, 0, 56, 0
1, 999802, Poly_aftertouch_c, 0, 55, 127
1, 999814, Poly_aftertouch_c, 0, 55, 0
1, 999840, Note_on_c, 0, 62, 87
1, 999845, Note_on_c, 0, 86, 99
1, 999845, Note_on_c, 0, 50, 91
1, 999846, Note_on_c, 0, 74, 98
1, 999871, Note_off_c, 0, 62, 64
1, 999889, Note_off_c, 0, 74, 64
1, 999898, Note_off_c, 0, 86, 64
1, 999904, Note_off_c, 0, 50, 64
1, 1000146, Control_c, 0, 64, 65
1, 1000146, Control_c, 1, 64, 65
1, 1000148, Note_on_c, 0, 31, 96
1, 1000152, Note_on_c, 0, 55, 92
1, 1000183, Control_c, 0, 64, 0
1, 1000183, Control_c, 1, 64, 0
1, 1000240, Control_c, 1, 64, 36
1, 1000240, Control_c, 0, 64, 36
1, 1000258, Control_c, 0, 64, 88
1, 1000258, Control_c, 1, 64, 88
1, 1000278, Control_c, 1, 64, 127
1, 1000278, Control_c, 0, 64, 127
1, 1000369, Note_on_c, 0, 42, 81
1, 1000375, Note_on_c, 0, 66, 77
1, 1000385, Note_off_c, 0, 55, 60
1, 1000389, Note_off_c, 0, 31, 63
1, 1000428, Note_on_c, 0, 63, 12
1, 1000449, Note_off_c, 0, 42, 62
1, 1000482, Note_off_c, 0, 66, 62
1, 1000500, Note_off_c, 0, 63, 35
1, 1000555, Note_on_c, 0, 67, 74
1, 1000577, Note_on_c, 0, 43, 45
1, 1000685, Note_on_c, 0, 78, 82
1, 1000689, Note_on_c, 0, 54, 83
1, 1000690, Note_off_c, 0, 67, 57
1, 1000692, Note_off_c, 0, 43, 63
1, 1000748, Note_off_c, 0, 54, 63
1, 1000776, Note_off_c, 0, 78, 65
1, 1000840, Note_on_c, 0, 79, 89
1, 1000865, Note_on_c, 0, 55, 77
1, 1000875, Note_on_c, 0, 57, 76
1, 1000946, Note_on_c, 0, 91, 99
1, 1000967, Note_on_c, 0, 67, 80
1, 1000972, Note_on_c, 0, 69, 85
1, 1000995, Note_off_c, 0, 69, 60
1, 1001027, Note_off_c, 0, 57, 38
1, 1001036, Note_off_c, 0, 79, 63
1, 1001043, Note_off_c, 0, 67, 62
1, 1001138, Note_on_c, 0, 77, 95
1, 1001140, Note_on_c, 0, 89, 90
1, 1001144, Note_on_c, 0, 53, 81
1, 1001146, Note_on_c, 0, 65, 73
1, 1001188, Note_off_c, 0, 91, 58
1, 1001197, Note_off_c, 0, 55, 60
1, 1001212, Note_off_c, 0, 77, 61
1, 1001224, Note_off_c, 0, 65, 61
1, 1001230, Note_off_c, 0, 89, 63
1, 1001260, Note_on_c, 0, 54, 18
1, 1001285, Poly_aftertouch_c, 0, 87, 0
1, 1001296, Note_on_c, 0, 88, 96
1, 1001304, Note_on_c, 0, 76, 93
1, 1001316, Note_on_c, 0, 64, 85
1, 1001323, Note_on_c, 0, 52, 87
1, 1001325, Note_off_c, 0, 54, 47
1, 1001347, Note_off_c, 0, 53, 58
1, 1001368, Note_off_c, 0, 76, 63
1, 1001376, Note_off_c, 0, 64, 59
1, 1001456, Note_on_c, 0, 50, 89
1, 1001461, Note_on_c, 0, 86, 93
1, 1001465, Note_on_c, 0, 74, 95
1, 1001472, Note_on_c, 0, 62, 63
1, 1001493, Note_off_c, 0, 88, 67
1, 1001501, Note_off_c, 0, 52, 56
1, 1001501, Note_off_c, 0, 62, 63
1, 1001516, Note_off_c, 0, 86, 67
1, 1001519, Note_off_c, 0, 50, 65
1, 1001520, Note_off_c, 0, 74, 62
1, 1001530, Poly_aftertouch_c, 0, 76, 0
1, 1001561, Poly_aftertouch_c, 0, 82, 0
1, 1001600, Poly_aftertouch_c, 0, 76, 0
1, 1001757, Control_c, 0, 64, 83
1, 1001757, Control_c, 1, 64, 83
1, 1001767, Note_on_c, 0, 24, 96
1, 1001767, Note_on_c, 0, 48, 86
1, 1001774, Control_c, 0, 64, 33
1, 1001774, Control_c, 1, 64, 33
1, 1001795, Control_c, 1, 64, 0
1, 1001795, Control_c, 0, 64, 0
1, 1001851, Control_c, 0, 64, 22
1, 1001851, Control_c, 1, 64, 22
1, 1001868, Control_c, 1, 64, 68
1, 1001868, Control_c, 0, 64, 68
1, 1001888, Control_c, 0, 64, 127
1, 1001888, Control_c, 1, 64, 127
1, 1001901, Poly_aftertouch_c, 0, 58, 0
1, 1001965, Note_off_c, 0, 48, 57
1, 1001970, Note_on_c, 0, 59, 69
1, 1001972, Note_on_c, 0, 35, 84
1, 1001990, Note_off_c, 0, 24, 63
1, 1002044, Note_off_c, 0, 35, 61
1, 1002070, Note_off_c, 0, 59, 63
1, 1002160, Note_on_c, 0, 60, 85
1, 1002167, Note_on_c, 0, 36, 84
1, 1002302, Note_on_c, 0, 47, 83
1, 1002307, Note_on_c, 0, 71, 81
1, 1002313, Note_off_c, 0, 36, 62
1, 1002319, Note_off_c, 0, 60, 58
1, 1002362, Note_off_c, 0, 47, 63
1, 1002390, Note_off_c, 0, 71, 62
1, 1002453, Poly_aftertouch_c, 0, 70, 0
1, 1002540, Note_on_c, 0, 72, 91
1, 1002541, Note_on_c, 0, 84, 92
1, 1002542, Note_on_c, 0, 48, 89
1, 1002545, Note_on_c, 0, 60, 82
1, 1002685, Note_off_c, 0, 60, 60
1, 1002686, Note_off_c, 0, 72, 60
1, 1002697, Note_off_c, 0, 84, 63
1, 1002700, Note_off_c, 0, 48, 59
1, 1002770, Note_on_c, 0, 86, 99
1, 1002773, Note_on_c, 0, 74, 96
1, 1002778, Note_on_c, 0, 50, 88
1, 1002779, Note_on_c, 0, 62, 92
1, 1002882, Note_off_c, 0, 62, 60
1, 1002883, Note_off_c, 0, 74, 63
1, 1002890, Note_off_c, 0, 50, 62
1, 1002911, Note_off_c, 0, 86, 64
1, 1002979, Note_on_c, 0, 88, 101
1, 1002979, Note_on_c, 0, 64, 97
1, 1002981, Note_on_c, 0, 76, 102
1, 1002983, Note_on_c, 0, 52, 93
1, 1003060, Note_off_c, 0, 64, 62
1, 1003061, Note_off_c, 0, 76, 64
1, 1003066, Note_off_c, 0, 88, 69
1, 1003073, Note_off_c, 0, 52, 60
1, 1003157, Note_on_c, 0, 84, 99
1, 1003158, Note_on_c, 0, 60, 89
1, 1003160, Note_on_c, 0, 48, 93
1, 1003161, Note_on_c, 0, 72, 96
1, 1003184, Note_off_c, 0, 60, 69
1, 1003198, Note_off_c, 0, 72, 64
1, 1003206, Note_off_c, 0, 84, 63
1, 1003213, Note_off_c, 0, 48, 67
1, 1003493, Note_on_c, 0, 26, 93
1, 1003497, Control_c, 0, 64, 76
1, 1003497, Control_c, 1, 64, 76
1, 1003501, Note_on_c, 0, 50, 86
1, 1003516, Control_c, 0, 64, 27
1, 1003516, Control_c, 1, 64, 27
1, 1003534, Control_c, 1, 64, 0
1, 1003534, Control_c, 0, 64, 0
1, 1003572, Control_c, 0, 64, 15
1, 1003572, Control_c, 1, 64, 15
1, 1003590, Control_c, 1, 64, 59
1, 1003590, Control_c, 0, 64, 59
1, 1003609, Control_c, 0, 64, 127
1, 1003609, Control_c, 1, 64, 127
1, 1003635, Poly_aftertouch_c, 0, 37, 0
1, 1003727, Note_on_c, 0, 37, 81
1, 1003731, Note_off_c, 0, 26, 60
1, 1003732, Note_off_c, 0, 50, 60
1, 1003732, Note_on_c, 0, 61, 79
1, 1003789, Note_off_c, 0, 37, 61
1, 1003822, Poly_aftertouch_c, 0, 58, 0
1, 1003835, Note_off_c, 0, 61, 61
1, 1003897, Note_on_c, 0, 62, 80
1, 1003902, Note_on_c, 0, 38, 70
1, 1004030, Note_on_c, 0, 49, 86
1, 1004031, Note_on_c, 0, 73, 81
1, 1004032, Note_off_c, 0, 38, 59
1, 1004034, Note_off_c, 0, 62, 59
1, 1004088, Note_off_c, 0, 49, 63
1, 1004093, Poly_aftertouch_c, 0, 39, 0
1, 1004101, Note_off_c, 0, 73, 64
1, 1004185, Note_on_c, 0, 77, 92
1, 1004223, Note_on_c, 0, 53, 81
1, 1004256, Note_on_c, 0, 52, 36
1, 1004257, Note_off_c, 0, 52, 127
1, 1004300, Note_on_c, 0, 89, 105
1, 1004302, Poly_aftertouch_c, 0, 52, 0
1, 1004320, Note_on_c, 0, 65, 94
1, 1004350, Note_on_c, 0, 87, 45
1, 1004387, Note_off_c, 0, 87, 59
1, 1004460, Note_off_c, 0, 89, 63
1, 1004470, Note_off_c, 0, 65, 59
1, 1004475, Note_off_c, 0, 77, 64
1, 1004504, Note_off_c, 0, 53, 61
1, 1004566, Note_on_c, 0, 86, 93
1, 1004573, Note_on_c, 0, 74, 84
1, 1004593, Note_on_c, 0, 62, 76
1, 1004604, Note_on_c, 0, 50, 77
1, 1004630, Note_off_c, 0, 74, 63
1, 1004646, Poly_aftertouch_c, 0, 76, 0
1, 1004648, Note_off_c, 0, 62, 58
1, 1004652, Note_off_c, 0, 50, 60
1, 1004654, Note_off_c, 0, 86, 63
1, 1004755, Note_on_c, 0, 84, 86
1, 1004759, Note_on_c, 0, 72, 85
1, 1004773, Note_on_c, 0, 48, 80
1, 1004775, Note_on_c, 0, 60, 72
1, 1004809, Note_off_c, 0, 60, 63
1, 1004810, Note_off_c, 0, 72, 61
1, 1004829, Note_off_c, 0, 84, 62
1, 1004844, Note_off_c, 0, 48, 61
1, 1004918, Note_on_c, 0, 46, 84
1, 1004923, Note_on_c, 0, 58, 76
1, 1004930, Note_on_c, 0, 70, 88
1, 1004931, Note_on_c, 0, 82, 84
1, 1004953, Note_off_c, 0, 58, 67
1, 1004983, Note_off_c, 0, 82, 62
1, 1004988, Note_off_c, 0, 70, 61
1, 1004996, Note_off_c, 0, 46, 64
1, 1005095, Poly_aftertouch_c, 0, 58, 0
1, 1005163, Control_c, 0, 64, 89
1, 1005163, Control_c, 1, 64, 89
1, 1005178, Note_on_c, 0, 48, 89
1, 1005181, Note_on_c, 0, 24, 88
1, 1005181, Control_c, 0, 64, 47
1, 1005181, Control_c, 1, 64, 47
1, 1005238, Note_on_c, 0, 30, 38
1, 1005239, Note_off_c, 0, 30, 127
1, 1005239, Control_c, 0, 64, 18
1, 1005239, Control_c, 1, 64, 18
1, 1005257, Control_c, 1, 64, 58
1, 1005257, Control_c, 0, 64, 58
1, 1005275, Control_c, 0, 64, 127
1, 1005275, Control_c, 1, 64, 127
1, 1005299, Poly_aftertouch_c, 0, 30, 0
1, 1005357, Note_off_c, 0, 48, 57
1, 1005357, Note_on_c, 0, 59, 69
1, 1005361, Note_on_c, 0, 35, 85
1, 1005393, Note_off_c, 0, 24, 60
1, 1005456, Note_off_c, 0, 35, 61
1, 1005456, Poly_aftertouch_c, 0, 27, 0
1, 1005464, Note_off_c, 0, 59, 62
1, 1005531, Note_on_c, 0, 36, 58
1, 1005531, Note_on_c, 0, 60, 87
1, 1005663, Note_on_c, 0, 71, 80
1, 1005674, Note_on_c, 0, 47, 78
1, 1005681, Note_off_c, 0, 60, 59
1, 1005690, Note_on_c, 0, 45, 64
1, 1005691, Note_off_c, 0, 36, 60
1, 1005719, Note_off_c, 0, 45, 56
1, 1005735, Note_off_c, 0, 47, 65
1, 1005736, Note_off_c, 0, 71, 65
1, 1005835, Note_on_c, 0, 76, 86
1, 1005871, Note_on_c, 0, 52, 79
1, 1005879, Note_on_c, 0, 77, 38
1, 1005880, Note_off_c, 0, 77, 127
1, 1005952, Note_on_c, 0, 88, 99
1, 1005961, Note_on_c, 0, 64, 94
1, 1005987, Note_on_c, 0, 85, 69
1, 1006007, Note_off_c, 0, 85, 67
1, 1006051, Note_off_c, 0, 64, 61
1, 1006057, Note_off_c, 0, 76, 64
1, 1006061, Note_off_c, 0, 88, 70
1, 1006067, Poly_aftertouch_c, 0, 77, 0
1, 1006111, Note_off_c, 0, 52, 60
1, 1006169, Note_on_c, 0, 84, 92
1, 1006175, Note_on_c, 0, 72, 87
1, 1006205, Note_on_c, 0, 60, 80
1, 1006213, Note_on_c, 0, 48, 82
1, 1006245, Note_off_c, 0, 72, 60
1, 1006257, Note_off_c, 0, 84, 62
1, 1006267, Note_off_c, 0, 60, 60
1, 1006284, Note_off_c, 0, 48, 60
1, 1006348, Note_on_c, 0, 83, 93
1, 1006354, Note_on_c, 0, 71, 89
1, 1006363, Note_on_c, 0, 59, 84
1, 1006375, Note_on_c, 0, 47, 78
1, 1006413, Note_off_c, 0, 71, 63
1, 1006422, Note_off_c, 0, 83, 62
1, 1006425, Note_off_c, 0, 59, 61
1, 1006446, Note_off_c, 0, 47, 62
1, 1006515, Note_on_c, 0, 81, 85
1, 1006516, Note_on_c, 0, 69, 94
1, 1006521, Note_on_c, 0, 57, 87
1, 1006526, Poly_aftertouch_c, 0, 49, 0
1, 1006527, Note_on_c, 0, 45, 78
1, 1006549, Note_on_c, 0, 47, 69
1, 1006570, Note_off_c, 0, 69, 63
1, 1006573, Note_off_c, 0, 57, 64
1, 1006575, Note_off_c, 0, 81, 63
1, 1006579, Note_off_c, 0, 47, 60
1, 1006605, Note_off_c, 0, 45, 63
1, 1006755, Control_c, 0, 64, 76
1, 1006755, Control_c, 1, 64, 76
1, 1006773, Control_c, 1, 64, 30
1, 1006773, Control_c, 0, 64, 30
1, 1006780, Note_on_c, 0, 29, 87
1, 1006782, Note_on_c, 0, 53, 86
1, 1006790, Control_c, 0, 64, 0
1, 1006790, Control_c, 1, 64, 0
1, 1006829, Control_c, 1, 64, 17
1, 1006829, Control_c, 0, 64, 17
1, 1006847, Control_c, 0, 64, 55
1, 1006847, Control_c, 1, 64, 55
1, 1006866, Control_c, 1, 64, 112
1, 1006866, Control_c, 0, 64, 112
1, 1006886, Control_c, 0, 64, 127
1, 1006886, Control_c, 1, 64, 127
1, 1006955, Note_off_c, 0, 53, 56
1, 1006965, Note_on_c, 0, 64, 81
1, 1006977, Note_on_c, 0, 40, 85
1, 1007109, Note_off_c, 0, 29, 57
1, 1007127, Note_on_c, 0, 41, 88
1, 1007136, Poly_aftertouch_c, 0, 31, 127
1, 1007138, Note_off_c, 0, 40, 61
1, 1007150, Note_on_c, 0, 65, 84
1, 1007164, Note_off_c, 0, 64, 59
1, 1007175, Note_off_c, 0, 41, 64
1, 1007175, Poly_aftertouch_c, 0, 31, 0
1, 1007181, Note_off_c, 0, 65, 67
1, 1007331, Note_on_c, 0, 75, 102
1, 1007337, Note_on_c, 0, 87, 99
1, 1007339, Note_on_c, 0, 63, 106
1, 1007342, Note_on_c, 0, 51, 96
1, 1007369, Note_on_c, 0, 88, 55
1, 1007378, Note_off_c, 0, 63, 67
1, 1007379, Note_off_c, 0, 75, 65
1, 1007385, Note_off_c, 0, 87, 65
1, 1007388, Note_off_c, 0, 51, 65
1, 1007400, Note_off_c, 0, 88, 61
1, 1007456, Poly_aftertouch_c, 0, 54, 127
1, 1007486, Poly_aftertouch_c, 0, 54, 0
1, 1007626, Note_on_c, 0, 52, 86
1, 1007629, Note_on_c, 0, 28, 96
1, 1007633, Control_c, 0, 64, 84
1, 1007633, Control_c, 1, 64, 84
1, 1007652, Control_c, 1, 64, 42
1, 1007652, Control_c, 0, 64, 42
1, 1007671, Control_c, 0, 64, 0
1, 1007671, Control_c, 1, 64, 0
1, 1007745, Control_c, 1, 64, 18
1, 1007745, Control_c, 0, 64, 18
1, 1007765, Control_c, 0, 64, 44
1, 1007765, Control_c, 1, 64, 44
1, 1007783, Control_c, 1, 64, 72
1, 1007783, Control_c, 0, 64, 72
1, 1007798, Note_on_c, 0, 63, 72
1, 1007802, Control_c, 0, 64, 96
1, 1007802, Control_c, 1, 64, 96
1, 1007816, Note_on_c, 0, 39, 80
1, 1007821, Control_c, 0, 64, 127
1, 1007821, Control_c, 1, 64, 127
1, 1007870, Note_on_c, 0, 61, 39
1, 1007887, Note_off_c, 0, 52, 52
1, 1007925, Note_off_c, 0, 39, 62
1, 1007940, Note_off_c, 0, 61, 46
1, 1007960, Note_off_c, 0, 28, 56
1, 1007980, Note_on_c, 0, 40, 85
1, 1007981, Note_on_c, 0, 64, 78
1, 1008007, Note_off_c, 0, 63, 64
1, 1008023, Note_off_c, 0, 40, 64
1, 1008024, Note_off_c, 0, 64, 62
1, 1008193, Note_on_c, 0, 78, 94
1, 1008195, Note_on_c, 0, 92, 98
1, 1008195, Note_on_c, 0, 80, 96
1, 1008197, Note_on_c, 0, 56, 97
1, 1008197, Note_on_c, 0, 68, 103
1, 1008208, Note_on_c, 0, 90, 77
1, 1008218, Note_off_c, 0, 80, 68
1, 1008218, Poly_aftertouch_c, 0, 80, 0
1, 1008219, Note_off_c, 0, 92, 74
1, 1008222, Note_off_c, 0, 68, 67
1, 1008227, Note_off_c, 0, 78, 64
1, 1008228, Note_off_c, 0, 90, 69
1, 1008238, Note_off_c, 0, 56, 67
1, 1008613, Note_on_c, 0, 57, 91
1, 1008617, Note_on_c, 0, 33, 83
1, 1008625, Control_c, 0, 64, 86
1, 1008625, Control_c, 1, 64, 86
1, 1008639, Note_on_c, 0, 31, 64
1, 1008640, Note_off_c, 0, 31, 127
1, 1008643, Control_c, 0, 64, 40
1, 1008643, Control_c, 1, 64, 40
1, 1008662, Control_c, 1, 64, 0
1, 1008662, Control_c, 0, 64, 0
1, 1008738, Control_c, 0, 64, 13
1, 1008738, Control_c, 1, 64, 13
1, 1008757, Control_c, 1, 64, 39
1, 1008757, Control_c, 0, 64, 39
1, 1008777, Control_c, 0, 64, 67
1, 1008777, Control_c, 1, 64, 67
1, 1008794, Control_c, 1, 64, 89
1, 1008794, Control_c, 0, 64, 89
1, 1008813, Control_c, 0, 64, 127
1, 1008813, Control_c, 1, 64, 127
1, 1008856, Note_on_c, 0, 44, 85
1, 1008861, Note_on_c, 0, 68, 86
1, 1008874, Note_off_c, 0, 57, 62
1, 1008879, Note_off_c, 0, 33, 62
1, 1008879, Poly_aftertouch_c, 0, 33, 0
1, 1008939, Note_off_c, 0, 44, 61
1, 1008970, Note_off_c, 0, 68, 64
1, 1009042, Note_on_c, 0, 69, 91
1, 1009046, Note_on_c, 0, 45, 86
1, 1009212, Note_off_c, 0, 45, 60
1, 1009218, Note_on_c, 0, 56, 88
1, 1009227, Note_on_c, 0, 80, 89
1, 1009234, Note_off_c, 0, 69, 59
1, 1009278, Note_off_c, 0, 56, 62
1, 1009311, Note_off_c, 0, 80, 66
1, 1009311, Poly_aftertouch_c, 0, 80, 0
1, 1009351, Poly_aftertouch_c, 0, 78, 0
1, 1009385, Note_on_c, 0, 81, 91
1, 1009395, Note_on_c, 0, 57, 84
1, 1009535, Note_off_c, 0, 57, 62
1, 1009537, Note_on_c, 0, 68, 89
1, 1009547, Note_off_c, 0, 81, 64
1, 1009554, Note_on_c, 0, 92, 89
1, 1009597, Note_off_c, 0, 68, 65
1, 1009623, Note_off_c, 0, 92, 65
1, 1009705, Note_on_c, 0, 93, 87
1, 1009724, Note_on_c, 0, 69, 78
1, 1009817, Note_on_c, 0, 105, 104
1, 1009831, Note_on_c, 0, 81, 96
1, 1009881, Note_off_c, 0, 81, 67
1, 1009882, Note_off_c, 0, 93, 65
1, 1009893, Note_off_c, 0, 105, 67
1, 1009896, Note_off_c, 0, 69, 63
1, 1010359, Note_on_c, 0, 57, 91
1, 1010365, Control_c, 0, 64, 91
1, 1010365, Control_c, 1, 64, 91
1, 1010379, Note_on_c, 0, 33, 94
1, 1010385, Control_c, 0, 64, 47
1, 1010385, Control_c, 1, 64, 47
1, 1010404, Control_c, 1, 64, 0
1, 1010404, Control_c, 0, 64, 0
1, 1010460, Control_c, 0, 64, 33
1, 1010460, Control_c, 1, 64, 33
1, 1010480, Control_c, 1, 64, 79
1, 1010480, Control_c, 0, 64, 79
1, 1010498, Control_c, 0, 64, 127
1, 1010498, Control_c, 1, 64, 127
1, 1010588, Note_on_c, 0, 44, 89
1, 1010592, Note_on_c, 0, 68, 85
1, 1010600, Note_off_c, 0, 33, 59
1, 1010600, Poly_aftertouch_c, 0, 33, 0
1, 1010606, Note_off_c, 0, 57, 62
1, 1010664, Note_off_c, 0, 44, 63
1, 1010687, Note_off_c, 0, 68, 66
1, 1010752, Note_on_c, 0, 69, 89
1, 1010768, Note_on_c, 0, 45, 83
1, 1010893, Note_on_c, 0, 80, 84
1, 1010899, Note_off_c, 0, 69, 60
1, 1010902, Note_on_c, 0, 56, 87
1, 1010913, Note_off_c, 0, 45, 61
1, 1010963, Note_off_c, 0, 56, 63
1, 1010976, Note_off_c, 0, 80, 66
1, 1010976, Poly_aftertouch_c, 0, 80, 0
1, 1011037, Note_on_c, 0, 81, 93
1, 1011069, Note_on_c, 0, 57, 86
1, 1011166, Note_on_c, 0, 93, 101
1, 1011186, Note_on_c, 0, 69, 94
1, 1011251, Note_off_c, 0, 81, 63
1, 1011278, Note_off_c, 0, 69, 57
1, 1011352, Note_on_c, 0, 79, 89
1, 1011353, Note_on_c, 0, 55, 84
1, 1011359, Note_on_c, 0, 91, 84
1, 1011365, Note_on_c, 0, 67, 81
1, 1011404, Note_on_c, 0, 87, 34
1, 1011414, Note_on_c, 0, 81, 18
1, 1011415, Note_off_c, 0, 93, 59
1, 1011415, Note_off_c, 0, 81, 127
1, 1011439, Note_off_c, 0, 79, 62
1, 1011442, Note_off_c, 0, 67, 61
1, 1011454, Note_off_c, 0, 87, 55
1, 1011458, Note_off_c, 0, 91, 63
1, 1011473, Note_off_c, 0, 57, 38
1, 1011484, Poly_aftertouch_c, 0, 81, 0
1, 1011522, Note_on_c, 0, 89, 93
1, 1011528, Note_on_c, 0, 77, 92
1, 1011545, Note_on_c, 0, 53, 86
1, 1011545, Note_on_c, 0, 65, 85
1, 1011586, Note_off_c, 0, 55, 47
1, 1011592, Note_off_c, 0, 77, 62
1, 1011605, Note_off_c, 0, 65, 59
1, 1011688, Note_on_c, 0, 88, 90
1, 1011689, Note_on_c, 0, 76, 96
1, 1011689, Note_on_c, 0, 52, 87
1, 1011698, Note_on_c, 0, 64, 66
1, 1011710, Note_on_c, 0, 65, 51
1, 1011718, Note_off_c, 0, 89, 64
1, 1011721, Note_off_c, 0, 53, 62
1, 1011732, Note_off_c, 0, 64, 64
1, 1011738, Note_off_c, 0, 65, 61
1, 1011746, Note_off_c, 0, 52, 64
1, 1011747, Note_off_c, 0, 76, 64
1, 1011748, Note_off_c, 0, 88, 66
1, 1011992, Note_on_c, 0, 26, 101
1, 1011995, Control_c, 0, 64, 59
1, 1011995, Control_c, 1, 64, 59
1, 1012000, Note_on_c, 0, 50, 92
1, 1012033, Control_c, 0, 64, 0
1, 1012033, Control_c, 1, 64, 0
1, 1012069, Control_c, 1, 64, 40
1, 1012069, Control_c, 0, 64, 40
1, 1012089, Control_c, 0, 64, 91
1, 1012089, Control_c, 1, 64, 91
1, 1012108, Control_c, 1, 64, 127
1, 1012108, Control_c, 0, 64, 127
1, 1012199, Note_on_c, 0, 37, 87
1, 1012219, Note_off_c, 0, 26, 60
1, 1012220, Note_on_c, 0, 61, 79
1, 1012226, Note_off_c, 0, 50, 57
1, 1012263, Note_on_c, 0, 58, 35
1, 1012276, Note_off_c, 0, 37, 64
1, 1012309, Note_off_c, 0, 58, 51
1, 1012317, Note_off_c, 0, 61, 62
1, 1012393, Note_on_c, 0, 62, 81
1, 1012396, Note_on_c, 0, 40, 83
1, 1012544, Note_on_c, 0, 49, 78
1, 1012550, Note_on_c, 0, 73, 82
1, 1012551, Note_off_c, 0, 40, 57
1, 1012566, Note_off_c, 0, 62, 60
1, 1012582, Note_off_c, 0, 49, 63
1, 1012595, Poly_aftertouch_c, 0, 64, 0
1, 1012613, Note_on_c, 0, 50, 20
1, 1012623, Note_off_c, 0, 73, 64
1, 1012670, Note_off_c, 0, 50, 47
1, 1012785, Note_on_c, 0, 86, 89
1, 1012785, Note_on_c, 0, 50, 81
1, 1012787, Note_on_c, 0, 74, 82
1, 1012794, Note_on_c, 0, 62, 75
1, 1012857, Note_off_c, 0, 62, 56
1, 1012877, Note_off_c, 0, 50, 61
1, 1012880, Note_off_c, 0, 74, 56
1, 1012901, Note_off_c, 0, 86, 63
1, 1012985, Note_on_c, 0, 88, 95
1, 1012987, Note_on_c, 0, 76, 99
1, 1012993, Note_on_c, 0, 64, 84
1, 1012997, Note_on_c, 0, 52, 84
1, 1013022, Note_on_c, 0, 62, 49
1, 1013052, Note_off_c, 0, 64, 64
1, 1013057, Note_off_c, 0, 62, 39
1, 1013063, Note_off_c, 0, 76, 63
1, 1013078, Note_off_c, 0, 52, 60
1, 1013085, Note_off_c, 0, 88, 64
1, 1013168, Note_on_c, 0, 89, 100
1, 1013168, Note_on_c, 0, 77, 101
1, 1013173, Note_on_c, 0, 65, 93
1, 1013176, Note_on_c, 0, 53, 88
1, 1013219, Note_on_c, 0, 56, 40
1, 1013225, Note_off_c, 0, 65, 65
1, 1013235, Note_on_c, 0, 61, 11
1, 1013247, Note_off_c, 0, 77, 63
1, 1013248, Note_off_c, 0, 89, 65
1, 1013263, Note_off_c, 0, 53, 60
1, 1013264, Note_off_c, 0, 56, 50
1, 1013319, Note_off_c, 0, 61, 39
1, 1013347, Note_on_c, 0, 62, 84
1, 1013351, Note_on_c, 0, 50, 90
1, 1013355, Note_on_c, 0, 86, 96
1, 1013359, Note_on_c, 0, 74, 92
1, 1013382, Note_off_c, 0, 62, 66
1, 1013400, Note_off_c, 0, 74, 62
1, 1013400, Note_off_c, 0, 86, 65
1, 1013414, Note_off_c, 0, 50, 66
1, 1013623, Control_c, 0, 64, 92
1, 1013623, Control_c, 1, 64, 92
1, 1013633, Note_on_c, 0, 31, 96
1, 1013643, Control_c, 0, 64, 45
1, 1013643, Control_c, 1, 64, 45
1, 1013648, Note_on_c, 0, 55, 91
1, 1013662, Control_c, 0, 64, 0
1, 1013662, Control_c, 1, 64, 0
1, 1013718, Control_c, 1, 64, 26
1, 1013718, Control_c, 0, 64, 26
1, 1013736, Control_c, 0, 64, 72
1, 1013736, Control_c, 1, 64, 72
1, 1013754, Control_c, 1, 64, 127
1, 1013754, Control_c, 0, 64, 127
1, 1013832, Note_on_c, 0, 32, 36
1, 1013850, Note_on_c, 0, 42, 84
1, 1013856, Note_off_c, 0, 55, 62
1, 1013861, Note_on_c, 0, 66, 80
1, 1013862, Note_off_c, 0, 31, 61
1, 1013887, Note_off_c, 0, 32, 43
1, 1013911, Note_off_c, 0, 42, 64
1, 1013950, Note_off_c, 0, 66, 61
1, 1013974, Poly_aftertouch_c, 0, 63, 0
1, 1014034, Note_on_c, 0, 67, 74
1, 1014035, Note_on_c, 0, 65, 74
1, 1014044, Note_on_c, 0, 43, 44
1, 1014098, Note_off_c, 0, 65, 58
1, 1014160, Note_on_c, 0, 78, 79
1, 1014162, Note_on_c, 0, 54, 82
1, 1014163, Note_off_c, 0, 67, 59
1, 1014172, Note_off_c, 0, 43, 62
1, 1014220, Note_off_c, 0, 54, 60
1, 1014240, Note_off_c, 0, 78, 65
1, 1014320, Note_on_c, 0, 79, 89
1, 1014343, Note_on_c, 0, 55, 77
1, 1014374, Note_on_c, 0, 57, 57
1, 1014436, Note_on_c, 0, 91, 99
1, 1014455, Note_on_c, 0, 67, 92
1, 1014528, Note_off_c, 0, 57, 21
1, 1014529, Note_off_c, 0, 67, 62
1, 1014534, Note_off_c, 0, 79, 63
1, 1014629, Note_on_c, 0, 77, 95
1, 1014630, Note_on_c, 0, 89, 89
1, 1014636, Note_on_c, 0, 65, 80
1, 1014637, Note_on_c, 0, 53, 80
1, 1014681, Note_off_c, 0, 55, 63
1, 1014683, Note_off_c, 0, 91, 57
1, 1014704, Note_off_c, 0, 77, 61
1, 1014709, Note_off_c, 0, 65, 61
1, 1014727, Note_off_c, 0, 89, 63
1, 1014796, Note_on_c, 0, 88, 93
1, 1014803, Note_on_c, 0, 76, 90
1, 1014816, Note_on_c, 0, 64, 81
1, 1014818, Note_on_c, 0, 52, 85
1, 1014838, Note_off_c, 0, 53, 57
1, 1014843, Note_on_c, 0, 87, 39
1, 1014866, Note_off_c, 0, 76, 63
1, 1014878, Note_off_c, 0, 64, 60
1, 1014879, Note_off_c, 0, 87, 56
1, 1014951, Note_on_c, 0, 50, 91
1, 1014957, Note_on_c, 0, 86, 93
1, 1014958, Note_on_c, 0, 74, 95
1, 1014964, Note_on_c, 0, 62, 67
1, 1014985, Note_off_c, 0, 52, 63
1, 1014986, Note_off_c, 0, 62, 63
1, 1014988, Note_off_c, 0, 88, 67
1, 1015008, Note_off_c, 0, 50, 67
1, 1015009, Note_off_c, 0, 86, 66
1, 1015014, Note_off_c, 0, 74, 64
1, 1015233, Control_c, 0, 64, 86
1, 1015233, Control_c, 1, 64, 86
1, 1015244, Note_on_c, 0, 24, 98
1, 1015251, Note_on_c, 0, 48, 88
1, 1015252, Control_c, 0, 64, 39
1, 1015252, Control_c, 1, 64, 39
1, 1015271, Control_c, 1, 64, 0
1, 1015271, Control_c, 0, 64, 0
1, 1015289, Note_on_c, 0, 58, 43
1, 1015304, Note_on_c, 0, 61, 21
1, 1015327, Control_c, 0, 64, 24
1, 1015327, Control_c, 1, 64, 24
1, 1015331, Note_off_c, 0, 58, 53
1, 1015345, Control_c, 0, 64, 70
1, 1015345, Control_c, 1, 64, 70
1, 1015363, Note_off_c, 0, 61, 29
1, 1015365, Control_c, 0, 64, 127
1, 1015365, Control_c, 1, 64, 127
1, 1015409, Poly_aftertouch_c, 0, 30, 0
1, 1015442, Note_off_c, 0, 48, 56
1, 1015452, Note_on_c, 0, 59, 72
1, 1015458, Note_on_c, 0, 36, 74
1, 1015460, Note_off_c, 0, 24, 61
1, 1015465, Note_on_c, 0, 35, 72
1, 1015512, Note_off_c, 0, 35, 48
1, 1015524, Note_off_c, 0, 36, 61
1, 1015555, Note_off_c, 0, 59, 63
1, 1015634, Note_on_c, 0, 60, 83
1, 1015653, Note_on_c, 0, 36, 66
1, 1015672, Note_on_c, 0, 38, 50
1, 1015733, Note_off_c, 0, 36, 54
1, 1015783, Note_on_c, 0, 48, 70
1, 1015785, Note_on_c, 0, 47, 59
1, 1015789, Note_on_c, 0, 71, 80
1, 1015792, Note_off_c, 0, 38, 31
1, 1015799, Note_off_c, 0, 60, 60
1, 1015825, Note_off_c, 0, 47, 63
1, 1015833, Note_off_c, 0, 48, 62
1, 1015864, Note_off_c, 0, 71, 64
1, 1015995, Note_on_c, 0, 72, 86
1, 1015997, Note_on_c, 0, 84, 91
1, 1016009, Note_on_c, 0, 48, 84
1, 1016027, Note_on_c, 0, 60, 69
1, 1016036, Note_on_c, 0, 59, 62
1, 1016065, Note_off_c, 0, 60, 61
1, 1016073, Note_off_c, 0, 59, 64
1, 1016081, Note_off_c, 0, 72, 58
1, 1016089, Note_off_c, 0, 48, 60
1, 1016117, Note_off_c, 0, 84, 61
1, 1016200, Note_on_c, 0, 86, 96
1, 1016204, Note_on_c, 0, 74, 95
1, 1016208, Note_on_c, 0, 62, 85
1, 1016215, Note_on_c, 0, 50, 87
1, 1016274, Note_off_c, 0, 62, 61
1, 1016286, Note_off_c, 0, 74, 59
1, 1016293, Note_off_c, 0, 50, 61
1, 1016319, Note_off_c, 0, 86, 62
1, 1016382, Note_on_c, 0, 88, 96
1, 1016389, Note_on_c, 0, 76, 100
1, 1016392, Note_on_c, 0, 64, 95
1, 1016402, Note_on_c, 0, 52, 86
1, 1016438, Note_on_c, 0, 85, 46
1, 1016442, Note_on_c, 0, 54, 45
1, 1016450, Note_off_c, 0, 64, 65
1, 1016461, Note_off_c, 0, 76, 64
1, 1016469, Note_off_c, 0, 88, 65
1, 1016473, Note_off_c, 0, 85, 60
1, 1016481, Note_off_c, 0, 52, 60
1, 1016485, Note_off_c, 0, 54, 53
1, 1016507, Poly_aftertouch_c, 0, 58, 127
1, 1016539, Poly_aftertouch_c, 0, 58, 0
1, 1016545, Note_on_c, 0, 60, 89
1, 1016553, Note_on_c, 0, 84, 96
1, 1016556, Note_on_c, 0, 72, 96
1, 1016560, Note_on_c, 0, 48, 87
1, 1016586, Note_on_c, 0, 83, 57
1, 1016587, Note_off_c, 0, 83, 127
1, 1016590, Note_off_c, 0, 60, 62
1, 1016590, Note_on_c, 0, 51, 49
1, 1016602, Note_off_c, 0, 84, 64
1, 1016602, Note_off_c, 0, 72, 63
1, 1016610, Note_off_c, 0, 48, 63
1, 1016629, Note_off_c, 0, 51, 54
1, 1016661, Poly_aftertouch_c, 0, 54, 0
1, 1016862, Control_c, 0, 64, 103
1, 1016862, Control_c, 1, 64, 103
1, 1016875, Note_on_c, 0, 26, 92
1, 1016880, Note_on_c, 0, 50, 88
1, 1016880, Control_c, 0, 64, 55
1, 1016880, Control_c, 1, 64, 55
1, 1016903, Note_on_c, 0, 52, 63
1, 1016918, Control_c, 0, 64, 0
1, 1016918, Control_c, 1, 64, 0
1, 1016955, Control_c, 1, 64, 13
1, 1016955, Control_c, 0, 64, 13
1, 1016974, Note_off_c, 0, 52, 64
1, 1016974, Note_on_c, 0, 52, 11
1, 1016974, Control_c, 0, 64, 48
1, 1016974, Control_c, 1, 64, 48
1, 1016993, Control_c, 1, 64, 92
1, 1016993, Control_c, 0, 64, 92
1, 1017010, Poly_aftertouch_c, 0, 28, 0
1, 1017011, Control_c, 0, 64, 127
1, 1017011, Control_c, 1, 64, 127
1, 1017094, Note_on_c, 0, 37, 86
1, 1017097, Note_on_c, 0, 61, 79
1, 1017104, Note_off_c, 0, 26, 60
1, 1017106, Note_off_c, 0, 50, 58
1, 1017138, Note_on_c, 0, 58, 30
1, 1017155, Note_off_c, 0, 52, 38
1, 1017167, Note_off_c, 0, 37, 63
1, 1017195, Note_off_c, 0, 61, 61
1, 1017195, Note_off_c, 0, 58, 48
1, 1017272, Note_on_c, 0, 62, 84
1, 1017285, Note_on_c, 0, 38, 78
1, 1017328, Note_on_c, 0, 40, 42
1, 1017384, Note_off_c, 0, 40, 34
1, 1017406, Note_on_c, 0, 49, 85
1, 1017407, Note_off_c, 0, 38, 61
1, 1017411, Note_on_c, 0, 73, 81
1, 1017420, Note_off_c, 0, 62, 61
1, 1017457, Note_off_c, 0, 49, 60
1, 1017482, Note_off_c, 0, 73, 64
1, 1017577, Note_on_c, 0, 76, 86
1, 1017606, Note_on_c, 0, 53, 86
1, 1017608, Note_on_c, 0, 77, 56
1, 1017609, Note_off_c, 0, 77, 127
1, 1017703, Note_on_c, 0, 88, 85
1, 1017704, Note_on_c, 0, 89, 90
1, 1017714, Note_on_c, 0, 65, 96
1, 1017744, Poly_aftertouch_c, 0, 77, 127
1, 1017799, Note_off_c, 0, 76, 62
1, 1017801, Poly_aftertouch_c, 0, 77, 0
1, 1017803, Note_off_c, 0, 65, 62
1, 1017820, Note_off_c, 0, 89, 63
1, 1017831, Note_off_c, 0, 53, 62
1, 1017833, Note_off_c, 0, 88, 65
1, 1017929, Note_on_c, 0, 86, 95
1, 1017932, Note_on_c, 0, 74, 89
1, 1017938, Note_on_c, 0, 62, 81
1, 1017947, Note_on_c, 0, 50, 86
1, 1017977, Note_off_c, 0, 74, 62
1, 1017991, Note_off_c, 0, 86, 63
1, 1017997, Note_off_c, 0, 62, 59
1, 1018016, Note_off_c, 0, 50, 62
1, 1018102, Note_on_c, 0, 84, 88
1, 1018103, Note_on_c, 0, 72, 85
1, 1018108, Note_on_c, 0, 48, 81
1, 1018109, Note_on_c, 0, 60, 75
1, 1018146, Note_off_c, 0, 72, 62
1, 1018157, Note_off_c, 0, 60, 60
1, 1018171, Note_off_c, 0, 84, 62
1, 1018182, Poly_aftertouch_c, 0, 78, 0
1, 1018266, Note_on_c, 0, 46, 88
1, 1018273, Note_on_c, 0, 70, 95
1, 1018274, Note_on_c, 0, 58, 83
1, 1018275, Note_on_c, 0, 82, 93
1, 1018304, Note_off_c, 0, 58, 72
1, 1018313, Note_on_c, 0, 45, 45
1, 1018325, Note_off_c, 0, 70, 61
1, 1018335, Note_off_c, 0, 82, 65
1, 1018343, Note_off_c, 0, 46, 63
1, 1018347, Note_off_c, 0, 48, 34
1, 1018347, Note_off_c, 0, 45, 54
1, 1018387, Poly_aftertouch_c, 0, 80, 0
1, 1018528, Control_c, 0, 64, 86
1, 1018528, Control_c, 1, 64, 86
1, 1018533, Note_on_c, 0, 24, 94
1, 1018536, Note_on_c, 0, 48, 93
1, 1018548, Control_c, 0, 64, 38
1, 1018548, Control_c, 1, 64, 38
1, 1018564, Control_c, 1, 64, 0
1, 1018564, Control_c, 0, 64, 0
1, 1018577, Note_on_c, 0, 58, 41
1, 1018581, Note_on_c, 0, 30, 46
1, 1018596, Note_on_c, 0, 61, 19
1, 1018601, Note_off_c, 0, 61, 127
1, 1018620, Note_off_c, 0, 58, 51
1, 1018632, Note_off_c, 0, 30, 35
1, 1018639, Control_c, 0, 64, 47
1, 1018639, Control_c, 1, 64, 47
1, 1018659, Control_c, 1, 64, 127
1, 1018659, Control_c, 0, 64, 127
1, 1018738, Note_on_c, 0, 59, 70
1, 1018738, Note_on_c, 0, 35, 87
1, 1018739, Note_off_c, 0, 48, 57
1, 1018766, Note_off_c, 0, 24, 61
1, 1018812, Note_off_c, 0, 35, 59
1, 1018839, Note_off_c, 0, 59, 63
1, 1018930, Note_on_c, 0, 59, 75
1, 1018933, Note_on_c, 0, 36, 77
1, 1018934, Note_on_c, 0, 60, 78
1, 1018994, Note_off_c, 0, 59, 62
1, 1018997, Note_on_c, 0, 35, 8
1, 1019032, Note_off_c, 0, 35, 33
1, 1019053, Note_on_c, 0, 47, 82
1, 1019067, Note_off_c, 0, 36, 58
1, 1019070, Note_on_c, 0, 71, 74
1, 1019078, Note_off_c, 0, 60, 60
1, 1019113, Note_off_c, 0, 47, 65
1, 1019142, Note_off_c, 0, 71, 65
1, 1019241, Note_on_c, 0, 76, 94
1, 1019252, Note_on_c, 0, 52, 88
1, 1019346, Note_on_c, 0, 88, 99
1, 1019352, Note_on_c, 0, 64, 95
1, 1019395, Note_on_c, 0, 85, 50
1, 1019425, Note_off_c, 0, 64, 64
1, 1019427, Note_off_c, 0, 85, 60
1, 1019441, Note_off_c, 0, 76, 62
1, 1019446, Note_off_c, 0, 88, 68
1, 1019457, Note_off_c, 0, 52, 61
1, 1019538, Note_on_c, 0, 84, 95
1, 1019542, Note_on_c, 0, 72, 95
1, 1019555, Note_on_c, 0, 60, 84
1, 1019564, Note_on_c, 0, 48, 83
1, 1019605, Note_off_c, 0, 72, 60
1, 1019614, Note_off_c, 0, 60, 62
1, 1019630, Note_off_c, 0, 84, 62
1, 1019632, Note_off_c, 0, 48, 59
1, 1019697, Poly_aftertouch_c, 0, 51, 127
1, 1019708, Note_on_c, 0, 83, 91
1, 1019708, Poly_aftertouch_c, 0, 51, 0
1, 1019713, Note_on_c, 0, 71, 93
1, 1019722, Note_on_c, 0, 59, 86
1, 1019731, Note_on_c, 0, 47, 81
1, 1019776, Note_on_c, 0, 49, 38
1, 1019782, Note_off_c, 0, 71, 64
1, 1019786, Note_off_c, 0, 59, 62
1, 1019791, Note_off_c, 0, 83, 63
1, 1019805, Note_off_c, 0, 47, 61
1, 1019821, Note_off_c, 0, 49, 47
1, 1019838, Poly_aftertouch_c, 0, 80, 0
1, 1019870, Note_on_c, 0, 81, 93
1, 1019877, Note_on_c, 0, 69, 92
1, 1019880, Note_on_c, 0, 57, 84
1, 1019884, Note_on_c, 0, 45, 87
1, 1019937, Note_off_c, 0, 69, 62
1, 1019940, Note_off_c, 0, 57, 64
1, 1019942, Note_off_c, 0, 81, 63
1, 1019965, Note_off_c, 0, 45, 62
1, 1020139, Control_c, 0, 64, 74
1, 1020139, Control_c, 1, 64, 74
1, 1020154, Note_on_c, 0, 29, 92
1, 1020158, Note_on_c, 0, 53, 86
1, 1020158, Control_c, 0, 64, 32
1, 1020158, Control_c, 1, 64, 32
1, 1020175, Control_c, 1, 64, 0
1, 1020175, Control_c, 0, 64, 0
1, 1020231, Control_c, 0, 64, 21
1, 1020231, Control_c, 1, 64, 21
1, 1020250, Control_c, 1, 64, 51
1, 1020250, Control_c, 0, 64, 51
1, 1020269, Control_c, 0, 64, 79
1, 1020269, Control_c, 1, 64, 79
1, 1020288, Control_c, 1, 64, 108
1, 1020288, Control_c, 0, 64, 108
1, 1020289, Poly_aftertouch_c, 0, 61, 0
1, 1020306, Control_c, 0, 64, 127
1, 1020306, Control_c, 1, 64, 127
1, 1020321, Note_off_c, 0, 53, 56
1, 1020333, Note_on_c, 0, 64, 79
1, 1020346, Note_on_c, 0, 40, 86
1, 1020444, Note_on_c, 0, 62, 17
1, 1020467, Note_off_c, 0, 29, 57
1, 1020484, Note_on_c, 0, 41, 87
1, 1020494, Note_off_c, 0, 40, 61
1, 1020494, Note_on_c, 0, 65, 85
1, 1020516, Note_off_c, 0, 64, 63
1, 1020516, Note_off_c, 0, 62, 46
1, 1020534, Note_off_c, 0, 41, 63
1, 1020538, Note_off_c, 0, 65, 65
1, 1020682, Note_on_c, 0, 75, 97
1, 1020683, Note_on_c, 0, 87, 93
1, 1020690, Note_on_c, 0, 63, 101
1, 1020691, Note_on_c, 0, 51, 95
1, 1020705, Note_on_c, 0, 88, 68
1, 1020714, Note_off_c, 0, 63, 70
1, 1020723, Note_off_c, 0, 75, 62
1, 1020724, Note_off_c, 0, 88, 67
1, 1020730, Note_off_c, 0, 51, 57
1, 1020733, Note_off_c, 0, 87, 64
1, 1020760, Note_on_c, 0, 50, 16
1, 1020828, Note_off_c, 0, 50, 40
1, 1020957, Note_on_c, 0, 52, 91
1, 1020961, Control_c, 0, 64, 84
1, 1020961, Control_c, 1, 64, 84
1, 1020964, Note_on_c, 0, 28, 95
1, 1020980, Control_c, 0, 64, 38
1, 1020980, Control_c, 1, 64, 38
1, 1020998, Control_c, 1, 64, 0
1, 1020998, Control_c, 0, 64, 0
1, 1021074, Control_c, 0, 64, 11
1, 1021074, Control_c, 1, 64, 11
1, 1021092, Control_c, 1, 64, 41
1, 1021092, Control_c, 0, 64, 41
1, 1021112, Control_c, 0, 64, 71
1, 1021112, Control_c, 1, 64, 71
1, 1021130, Control_c, 1, 64, 96
1, 1021130, Control_c, 0, 64, 96
1, 1021147, Control_c, 0, 64, 127
1, 1021147, Control_c, 1, 64, 127
1, 1021149, Note_on_c, 0, 63, 87
1, 1021151, Note_on_c, 0, 39, 81
1, 1021189, Note_off_c, 0, 52, 57
1, 1021190, Note_on_c, 0, 61, 51
1, 1021209, Note_off_c, 0, 28, 55
1, 1021250, Note_off_c, 0, 61, 53
1, 1021253, Note_off_c, 0, 39, 61
1, 1021317, Note_on_c, 0, 64, 80
1, 1021318, Note_on_c, 0, 40, 87
1, 1021328, Note_off_c, 0, 63, 66
1, 1021364, Note_off_c, 0, 40, 64
1, 1021369, Note_off_c, 0, 64, 61
1, 1021546, Note_on_c, 0, 92, 97
1, 1021547, Note_on_c, 0, 80, 97
1, 1021548, Note_on_c, 0, 68, 102
1, 1021550, Note_on_c, 0, 56, 98
1, 1021551, Note_off_c, 0, 56, 127
1, 1021567, Note_off_c, 0, 68, 64
1, 1021568, Note_off_c, 0, 92, 64
1, 1021575, Note_on_c, 0, 82, 58
1, 1021576, Note_off_c, 0, 82, 127
1, 1021597, Poly_aftertouch_c, 0, 56, 0
1, 1021598, Note_off_c, 0, 80, 65
1, 1021933, Note_on_c, 0, 57, 91
1, 1021933, Control_c, 0, 64, 85
1, 1021933, Control_c, 1, 64, 85
1, 1021950, Note_on_c, 0, 33, 96
1, 1021954, Control_c, 0, 64, 36
1, 1021954, Control_c, 1, 64, 36
1, 1021973, Control_c, 1, 64, 0
1, 1021973, Control_c, 0, 64, 0
1, 1022046, Control_c, 0, 64, 23
1, 1022046, Control_c, 1, 64, 23
1, 1022066, Control_c, 1, 64, 59
1, 1022066, Control_c, 0, 64, 59
1, 1022087, Control_c, 0, 64, 94
1, 1022087, Control_c, 1, 64, 94
1, 1022102, Control_c, 1, 64, 127
1, 1022102, Control_c, 0, 64, 127
1, 1022190, Note_on_c, 0, 44, 87
1, 1022194, Note_on_c, 0, 68, 85
1, 1022210, Note_off_c, 0, 33, 58
1, 1022210, Poly_aftertouch_c, 0, 33, 0
1, 1022211, Note_off_c, 0, 57, 63
1, 1022270, Poly_aftertouch_c, 0, 34, 0
1, 1022278, Note_off_c, 0, 44, 61
1, 1022317, Note_off_c, 0, 68, 63
1, 1022317, Poly_aftertouch_c, 0, 66, 0
1, 1022379, Note_on_c, 0, 69, 88
1, 1022384, Note_on_c, 0, 45, 80
1, 1022552, Note_on_c, 0, 56, 85
1, 1022555, Note_off_c, 0, 45, 58
1, 1022558, Note_on_c, 0, 80, 87
1, 1022568, Note_off_c, 0, 69, 60
1, 1022622, Note_off_c, 0, 56, 63
1, 1022653, Note_off_c, 0, 80, 65
1, 1022687, Poly_aftertouch_c, 0, 78, 127
1, 1022691, Poly_aftertouch_c, 0, 78, 0
1, 1022723, Note_on_c, 0, 81, 89
1, 1022732, Note_on_c, 0, 57, 82
1, 1022877, Note_on_c, 0, 68, 82
1, 1022892, Note_off_c, 0, 57, 63
1, 1022896, Note_on_c, 0, 92, 87
1, 1022904, Note_off_c, 0, 81, 62
1, 1022946, Note_off_c, 0, 68, 65
1, 1022977, Note_off_c, 0, 92, 67
1, 1023054, Note_on_c, 0, 93, 85
1, 1023073, Note_on_c, 0, 69, 82
1, 1023105, Note_on_c, 0, 95, 31
1, 1023106, Note_off_c, 0, 95, 127
1, 1023207, Note_on_c, 0, 105, 101
1, 1023216, Note_on_c, 0, 81, 98
1, 1023262, Poly_aftertouch_c, 0, 95, 0
1, 1023266, Note_off_c, 0, 93, 65
1, 1023270, Note_off_c, 0, 81, 67
1, 1023274, Note_off_c, 0, 69, 61
1, 1023280, Note_off_c, 0, 105, 65
1, 1023348, Poly_aftertouch_c, 0, 78, 0
1, 1024238, Poly_aftertouch_c, 0, 45, 0
1, 1024357, Note_on_c, 0, 45, 96
1, 1024358, Note_on_c, 0, 57, 102
1, 1024359, Note_on_c, 0, 69, 102
1, 1024366, Note_on_c, 0, 33, 90
1, 1024370, Control_c, 0, 64, 69
1, 1024370, Control_c, 1, 64, 69
1, 1024387, Control_c, 1, 64, 0
1, 1024387, Control_c, 0, 64, 0
1, 1024479, Poly_aftertouch_c, 0, 68, 0
1, 1024481, Control_c, 0, 64, 16
1, 1024481, Control_c, 1, 64, 16
1, 1024499, Control_c, 1, 64, 63
1, 1024499, Control_c, 0, 64, 63
1, 1024518, Control_c, 0, 64, 127
1, 1024518, Control_c, 1, 64, 127
1, 1024556, Note_off_c, 0, 33, 59
1, 1024556, Poly_aftertouch_c, 0, 33, 0
1, 1024588, Note_off_c, 0, 57, 59
1, 1024626, Note_off_c, 0, 69, 52
1, 1024630, Note_off_c, 0, 45, 61
1, 1024776, Note_on_c, 0, 60, 67
1, 1024814, Note_on_c, 0, 36, 46
1, 1024845, Note_on_c, 0, 63, 69
1, 1024869, Note_on_c, 0, 42, 69
1, 1024870, Note_on_c, 0, 39, 44
1, 1024888, Note_on_c, 0, 66, 65
1, 1024903, Note_on_c, 0, 45, 61
1, 1024907, Note_off_c, 0, 60, 59
1, 1024923, Note_off_c, 0, 36, 57
1, 1024941, Note_off_c, 0, 39, 62
1, 1024943, Note_off_c, 0, 63, 64
1, 1024953, Note_off_c, 0, 45, 64
1, 1024957, Note_off_c, 0, 42, 62
1, 1024959, Note_on_c, 0, 69, 74
1, 1024973, Note_on_c, 0, 48, 75
1, 1024976, Note_off_c, 0, 66, 64
1, 1024984, Note_off_c, 0, 69, 68
1, 1025037, Note_off_c, 0, 48, 63
1, 1025049, Note_on_c, 0, 72, 82
1, 1025110, Note_on_c, 0, 51, 63
1, 1025148, Note_on_c, 0, 75, 75
1, 1025158, Note_on_c, 0, 54, 69
1, 1025191, Note_on_c, 0, 78, 85
1, 1025204, Note_on_c, 0, 57, 72
1, 1025212, Note_on_c, 0, 81, 82
1, 1025219, Note_off_c, 0, 51, 59
1, 1025230, Note_off_c, 0, 75, 63
1, 1025238, Note_off_c, 0, 72, 61
1, 1025246, Note_on_c, 0, 84, 95
1, 1025256, Note_on_c, 0, 60, 92
1, 1025265, Note_off_c, 0, 54, 63
1, 1025267, Note_off_c, 0, 78, 66
1, 1025268, Note_off_c, 0, 81, 66
1, 1025272, Note_off_c, 0, 57, 64
1, 1025297, Note_off_c, 0, 84, 66
1, 1025304, Note_off_c, 0, 60, 65
1, 1025454, Control_c, 0, 64, 97
1, 1025454, Control_c, 1, 64, 97
1, 1025472, Control_c, 1, 64, 43
1, 1025472, Control_c, 0, 64, 43
1, 1025491, Control_c, 0, 64, 0
1, 1025491, Control_c, 1, 64, 0
1, 1025503, Note_on_c, 0, 72, 87
1, 1025509, Note_on_c, 0, 60, 81
1, 1025510, Note_on_c, 0, 48, 88
1, 1025522, Note_on_c, 0, 36, 83
1, 1025527, Note_on_c, 0, 71, 65
1, 1025528, Control_c, 0, 64, 17
1, 1025528, Control_c, 1, 64, 17
1, 1025547, Control_c, 1, 64, 67
1, 1025547, Control_c, 0, 64, 67
1, 1025552, Note_off_c, 0, 48, 62
1, 1025556, Note_off_c, 0, 60, 59
1, 1025558, Note_off_c, 0, 71, 42
1, 1025566, Control_c, 0, 64, 127
1, 1025566, Control_c, 1, 64, 127
1, 1025569, Note_off_c, 0, 72, 62
1, 1025576, Note_off_c, 0, 36, 59
1, 1025753, Control_c, 0, 64, 114
1, 1025753, Control_c, 1, 64, 114
1, 1025772, Control_c, 1, 64, 63
1, 1025772, Control_c, 0, 64, 63
1, 1025790, Note_on_c, 0, 69, 96
1, 1025791, Note_on_c, 0, 45, 89
1, 1025791, Control_c, 0, 64, 38
1, 1025791, Control_c, 1, 64, 38
1, 1025794, Note_on_c, 0, 57, 89
1, 1025797, Note_on_c, 0, 33, 91
1, 1025810, Control_c, 0, 64, 51
1, 1025810, Control_c, 1, 64, 51
1, 1025824, Note_off_c, 0, 57, 69
1, 1025828, Control_c, 0, 64, 83
1, 1025828, Control_c, 1, 64, 83
1, 1025835, Note_off_c, 0, 33, 66
1, 1025835, Poly_aftertouch_c, 0, 33, 0
1, 1025844, Note_off_c, 0, 45, 63
1, 1025846, Control_c, 0, 64, 127
1, 1025846, Control_c, 1, 64, 127
1, 1025848, Note_off_c, 0, 69, 63
1, 1026090, Control_c, 0, 64, 70
1, 1026090, Control_c, 1, 64, 70
1, 1026108, Control_c, 1, 64, 0
1, 1026108, Control_c, 0, 64, 0
1, 1026112, Note_on_c, 0, 75, 102
1, 1026115, Note_on_c, 0, 63, 100
1, 1026124, Note_on_c, 0, 51, 97
1, 1026129, Note_on_c, 0, 39, 93
1, 1026203, Control_c, 0, 64, 84
1, 1026203, Control_c, 1, 64, 84
1, 1026221, Control_c, 1, 64, 127
1, 1026221, Control_c, 0, 64, 127
1, 1026300, Note_off_c, 0, 39, 62
1, 1026326, Note_off_c, 0, 63, 61
1, 1026341, Note_off_c, 0, 51, 61
1, 1026386, Note_off_c, 0, 75, 59
1, 1026527, Note_on_c, 0, 68, 71
1, 1026534, Note_on_c, 0, 44, 55
1, 1026567, Note_on_c, 0, 47, 65
1, 1026584, Note_on_c, 0, 71, 68
1, 1026610, Note_on_c, 0, 51, 67
1, 1026612, Note_off_c, 0, 68, 60
1, 1026644, Note_off_c, 0, 44, 59
1, 1026644, Note_on_c, 0, 75, 79
1, 1026650, Note_off_c, 0, 71, 64
1, 1026672, Note_off_c, 0, 47, 62
1, 1026687, Note_on_c, 0, 56, 81
1, 1026694, Note_off_c, 0, 51, 61
1, 1026704, Note_off_c, 0, 75, 66
1, 1026733, Note_off_c, 0, 56, 62
1, 1026758, Note_on_c, 0, 80, 81
1, 1026823, Note_on_c, 0, 59, 69
1, 1026858, Note_on_c, 0, 83, 80
1, 1026883, Note_off_c, 0, 59, 57
1, 1026896, Note_on_c, 0, 87, 88
1, 1026898, Note_on_c, 0, 63, 84
1, 1026928, Note_off_c, 0, 80, 63
1, 1026930, Note_on_c, 0, 92, 93
1, 1026939, Note_on_c, 0, 68, 95
1, 1026947, Note_off_c, 0, 83, 66
1, 1026968, Note_off_c, 0, 87, 66
1, 1026971, Note_off_c, 0, 63, 37
1, 1026972, Note_off_c, 0, 92, 69
1, 1026983, Note_off_c, 0, 68, 68
1, 1027138, Control_c, 0, 64, 93
1, 1027138, Control_c, 1, 64, 93
1, 1027157, Control_c, 1, 64, 39
1, 1027157, Control_c, 0, 64, 39
1, 1027176, Control_c, 0, 64, 0
1, 1027176, Control_c, 1, 64, 0
1, 1027186, Note_on_c, 0, 76, 95
1, 1027189, Note_on_c, 0, 64, 84
1, 1027192, Note_on_c, 0, 52, 88
1, 1027196, Note_on_c, 0, 40, 88
1, 1027213, Control_c, 0, 64, 30
1, 1027213, Control_c, 1, 64, 30
1, 1027221, Note_off_c, 0, 52, 68
1, 1027226, Note_off_c, 0, 64, 65
1, 1027232, Control_c, 0, 64, 80
1, 1027232, Control_c, 1, 64, 80
1, 1027240, Note_off_c, 0, 40, 63
1, 1027242, Note_off_c, 0, 76, 65
1, 1027250, Control_c, 0, 64, 127
1, 1027250, Control_c, 1, 64, 127
1, 1027331, Poly_aftertouch_c, 0, 42, 127
1, 1027334, Poly_aftertouch_c, 0, 42, 0
1, 1027419, Control_c, 0, 64, 92
1, 1027419, Control_c, 1, 64, 92
1, 1027438, Control_c, 1, 64, 57
1, 1027438, Control_c, 0, 64, 57
1, 1027450, Note_on_c, 0, 64, 91
1, 1027454, Note_on_c, 0, 40, 88
1, 1027456, Note_on_c, 0, 52, 88
1, 1027456, Control_c, 0, 64, 55
1, 1027456, Control_c, 1, 64, 55
1, 1027457, Note_on_c, 0, 28, 89
1, 1027474, Control_c, 0, 64, 76
1, 1027474, Control_c, 1, 64, 76
1, 1027489, Note_off_c, 0, 40, 63
1, 1027493, Note_off_c, 0, 28, 69
1, 1027493, Control_c, 0, 64, 127
1, 1027493, Control_c, 1, 64, 127
1, 1027502, Note_off_c, 0, 52, 56
1, 1027519, Note_off_c, 0, 64, 61
1, 1027561, Poly_aftertouch_c, 0, 30, 0
1, 1027737, Control_c, 0, 64, 74
1, 1027737, Control_c, 1, 64, 74
1, 1027749, Note_on_c, 0, 69, 99
1, 1027754, Note_on_c, 0, 57, 92
1, 1027755, Note_on_c, 0, 45, 99
1, 1027758, Note_on_c, 0, 33, 92
1, 1027775, Control_c, 0, 64, 0
1, 1027775, Control_c, 1, 64, 0
1, 1027831, Control_c, 1, 64, 40
1, 1027831, Control_c, 0, 64, 40
1, 1027850, Control_c, 0, 64, 127
1, 1027850, Control_c, 1, 64, 127
1, 1027900, Note_off_c, 0, 33, 63
1, 1027900, Poly_aftertouch_c, 0, 33, 0
1, 1027911, Note_off_c, 0, 57, 60
1, 1027932, Note_off_c, 0, 69, 54
1, 1027965, Note_off_c, 0, 45, 60
1, 1028078, Note_on_c, 0, 60, 67
1, 1028105, Note_on_c, 0, 36, 60
1, 1028155, Note_on_c, 0, 63, 74
1, 1028186, Note_on_c, 0, 66, 73
1, 1028189, Note_on_c, 0, 42, 70
1, 1028199, Note_on_c, 0, 39, 62
1, 1028205, Note_off_c, 0, 60, 59
1, 1028236, Note_on_c, 0, 45, 56
1, 1028243, Note_off_c, 0, 63, 63
1, 1028252, Note_off_c, 0, 36, 59
1, 1028253, Note_on_c, 0, 69, 76
1, 1028269, Note_off_c, 0, 39, 63
1, 1028279, Note_off_c, 0, 66, 65
1, 1028282, Note_off_c, 0, 42, 60
1, 1028291, Note_off_c, 0, 45, 63
1, 1028292, Note_off_c, 0, 69, 61
1, 1028302, Note_on_c, 0, 48, 75
1, 1028357, Note_on_c, 0, 72, 83
1, 1028361, Note_off_c, 0, 48, 64
1, 1028424, Note_on_c, 0, 51, 69
1, 1028449, Note_on_c, 0, 75, 81
1, 1028456, Note_on_c, 0, 54, 71
1, 1028485, Note_on_c, 0, 78, 82
1, 1028512, Note_on_c, 0, 81, 88
1, 1028517, Note_on_c, 0, 57, 72
1, 1028532, Note_off_c, 0, 51, 60
1, 1028534, Note_off_c, 0, 72, 60
1, 1028537, Note_on_c, 0, 84, 99
1, 1028547, Note_off_c, 0, 75, 61
1, 1028555, Note_on_c, 0, 60, 92
1, 1028562, Note_off_c, 0, 54, 63
1, 1028567, Note_off_c, 0, 57, 67
1, 1028569, Note_off_c, 0, 78, 67
1, 1028574, Note_off_c, 0, 81, 62
1, 1028586, Note_off_c, 0, 84, 67
1, 1028603, Note_off_c, 0, 60, 66
1, 1028768, Control_c, 0, 64, 64
1, 1028768, Control_c, 1, 64, 64
1, 1028785, Control_c, 1, 64, 0
1, 1028785, Control_c, 0, 64, 0
1, 1028800, Note_on_c, 0, 72, 94
1, 1028811, Note_on_c, 0, 48, 87
1, 1028811, Note_on_c, 0, 60, 82
1, 1028813, Note_on_c, 0, 36, 89
1, 1028842, Control_c, 0, 64, 37
1, 1028842, Control_c, 1, 64, 37
1, 1028861, Control_c, 1, 64, 107
1, 1028861, Control_c, 0, 64, 107
1, 1028870, Note_off_c, 0, 48, 60
1, 1028871, Note_off_c, 0, 60, 57
1, 1028879, Control_c, 0, 64, 127
1, 1028879, Control_c, 1, 64, 127
1, 1028888, Note_off_c, 0, 72, 58
1, 1028903, Note_off_c, 0, 36, 58
1, 1029058, Note_on_c, 0, 69, 98
1, 1029059, Note_on_c, 0, 45, 90
1, 1029064, Note_on_c, 0, 57, 91
1, 1029069, Note_on_c, 0, 33, 85
1, 1029102, Note_off_c, 0, 33, 63
1, 1029102, Poly_aftertouch_c, 0, 33, 0
1, 1029110, Note_off_c, 0, 45, 64
1, 1029115, Note_off_c, 0, 57, 63
1, 1029140, Note_off_c, 0, 69, 62
1, 1029209, Poly_aftertouch_c, 0, 35, 0
1, 1029366, Control_c, 0, 64, 98
1, 1029366, Control_c, 1, 64, 98
1, 1029377, Note_on_c, 0, 75, 72
1, 1029383, Control_c, 0, 64, 37
1, 1029383, Control_c, 1, 64, 37
1, 1029390, Note_on_c, 0, 63, 102
1, 1029397, Note_on_c, 0, 51, 95
1, 1029401, Control_c, 0, 64, 0
1, 1029401, Control_c, 1, 64, 0
1, 1029410, Note_on_c, 0, 39, 84
1, 1029433, Note_on_c, 0, 73, 49
1, 1029475, Note_off_c, 0, 73, 49
1, 1029478, Control_c, 0, 64, 32
1, 1029478, Control_c, 1, 64, 32
1, 1029497, Control_c, 1, 64, 127
1, 1029497, Control_c, 0, 64, 127
1, 1029617, Note_off_c, 0, 51, 57
1, 1029637, Note_on_c, 0, 44, 66
1, 1029650, Note_off_c, 0, 39, 57
1, 1029656, Note_on_c, 0, 68, 66
1, 1029663, Note_off_c, 0, 63, 64
1, 1029673, Note_on_c, 0, 47, 55
1, 1029701, Note_on_c, 0, 71, 68
1, 1029702, Note_off_c, 0, 75, 63
1, 1029705, Note_off_c, 0, 44, 60
1, 1029707, Note_off_c, 0, 68, 62
1, 1029715, Note_off_c, 0, 47, 63
1, 1029731, Note_on_c, 0, 51, 66
1, 1029736, Note_off_c, 0, 71, 68
1, 1029766, Note_off_c, 0, 51, 65
1, 1029811, Note_on_c, 0, 75, 81
1, 1029844, Note_on_c, 0, 56, 73
1, 1029898, Note_on_c, 0, 80, 78
1, 1029907, Note_on_c, 0, 59, 22
1, 1029911, Note_on_c, 0, 83, 74
1, 1029931, Note_on_c, 0, 87, 88
1, 1029948, Note_off_c, 0, 75, 63
1, 1029952, Note_off_c, 0, 56, 62
1, 1029955, Note_on_c, 0, 63, 89
1, 1029963, Note_on_c, 0, 85, 46
1, 1029966, Note_off_c, 0, 80, 64
1, 1029978, Note_off_c, 0, 83, 65
1, 1029983, Note_off_c, 0, 59, 60
1, 1029988, Note_on_c, 0, 88, 34
1, 1029989, Note_off_c, 0, 88, 127
1, 1029998, Note_off_c, 0, 85, 57
1, 1030007, Note_off_c, 0, 87, 67
1, 1030010, Note_off_c, 0, 63, 65
1, 1030037, Poly_aftertouch_c, 0, 88, 0
1, 1030227, Control_c, 0, 64, 74
1, 1030227, Control_c, 1, 64, 74
1, 1030245, Control_c, 1, 64, 10
1, 1030245, Note_on_c, 0, 76, 95
1, 1030245, Control_c, 0, 64, 10
1, 1030249, Note_on_c, 0, 64, 94
1, 1030253, Note_on_c, 0, 52, 95
1, 1030258, Note_on_c, 0, 40, 88
1, 1030263, Control_c, 0, 64, 0
1, 1030263, Control_c, 1, 64, 0
1, 1030302, Control_c, 1, 64, 15
1, 1030302, Control_c, 0, 64, 15
1, 1030321, Control_c, 0, 64, 66
1, 1030321, Control_c, 1, 64, 66
1, 1030339, Control_c, 1, 64, 127
1, 1030339, Control_c, 0, 64, 127
1, 1030430, Note_on_c, 0, 44, 64
1, 1030441, Note_off_c, 0, 52, 56
1, 1030441, Note_on_c, 0, 68, 73
1, 1030453, Note_on_c, 0, 71, 73
1, 1030454, Note_off_c, 0, 64, 59
1, 1030458, Note_off_c, 0, 40, 54
1, 1030462, Note_on_c, 0, 47, 60
1, 1030488, Note_off_c, 0, 68, 63
1, 1030512, Note_off_c, 0, 47, 63
1, 1030521, Note_off_c, 0, 44, 61
1, 1030522, Note_off_c, 0, 71, 64
1, 1030526, Note_off_c, 0, 76, 60
1, 1030549, Note_on_c, 0, 52, 74
1, 1030588, Note_on_c, 0, 76, 78
1, 1030606, Note_off_c, 0, 52, 62
1, 1030634, Note_on_c, 0, 77, 43
1, 1030635, Note_off_c, 0, 77, 127
1, 1030670, Note_on_c, 0, 56, 76
1, 1030670, Note_on_c, 0, 80, 76
1, 1030717, Note_on_c, 0, 83, 78
1, 1030734, Note_on_c, 0, 59, 73
1, 1030746, Note_off_c, 0, 76, 59
1, 1030749, Note_on_c, 0, 88, 88
1, 1030762, Note_off_c, 0, 56, 61
1, 1030764, Note_off_c, 0, 80, 63
1, 1030795, Note_on_c, 0, 64, 86
1, 1030796, Note_off_c, 0, 83, 65
1, 1030809, Note_off_c, 0, 59, 62
1, 1030811, Note_off_c, 0, 88, 66
1, 1030847, Note_off_c, 0, 64, 60
1, 1031213, Note_on_c, 0, 57, 97
1, 1031215, Note_on_c, 0, 69, 98
1, 1031225, Note_on_c, 0, 45, 102
1, 1031226, Note_on_c, 0, 33, 97
1, 1031237, Control_c, 0, 64, 60
1, 1031237, Control_c, 1, 64, 60
1, 1031256, Control_c, 1, 64, 0
1, 1031256, Control_c, 0, 64, 0
1, 1031332, Control_c, 0, 64, 70
1, 1031332, Control_c, 1, 64, 70
1, 1031349, Control_c, 1, 64, 127
1, 1031349, Control_c, 0, 64, 127
1, 1031407, Note_off_c, 0, 57, 60
1, 1031430, Note_off_c, 0, 33, 62
1, 1031430, Poly_aftertouch_c, 0, 33, 0
1, 1031447, Note_off_c, 0, 69, 56
1, 1031493, Note_off_c, 0, 45, 56
1, 1031637, Note_on_c, 0, 60, 62
1, 1031657, Note_on_c, 0, 36, 59
1, 1031691, Note_on_c, 0, 63, 71
1, 1031718, Note_on_c, 0, 39, 64
1, 1031725, Note_on_c, 0, 42, 74
1, 1031725, Note_on_c, 0, 66, 64
1, 1031746, Note_off_c, 0, 60, 57
1, 1031754, Note_off_c, 0, 36, 53
1, 1031761, Note_on_c, 0, 45, 64
1, 1031791, Note_off_c, 0, 63, 63
1, 1031793, Note_on_c, 0, 69, 71
1, 1031805, Note_off_c, 0, 39, 63
1, 1031819, Note_off_c, 0, 42, 60
1, 1031826, Note_off_c, 0, 66, 66
1, 1031829, Note_off_c, 0, 45, 63
1, 1031836, Note_on_c, 0, 48, 80
1, 1031837, Note_off_c, 0, 69, 63
1, 1031897, Note_off_c, 0, 48, 62
1, 1031905, Note_on_c, 0, 72, 80
1, 1031960, Note_on_c, 0, 51, 74
1, 1031991, Note_on_c, 0, 75, 77
1, 1031994, Note_on_c, 0, 54, 77
1, 1032023, Note_on_c, 0, 78, 84
1, 1032046, Note_on_c, 0, 57, 79
1, 1032048, Note_on_c, 0, 81, 83
1, 1032061, Note_off_c, 0, 72, 59
1, 1032061, Note_off_c, 0, 51, 63
1, 1032066, Note_off_c, 0, 75, 65
1, 1032074, Note_on_c, 0, 84, 94
1, 1032095, Note_on_c, 0, 60, 92
1, 1032099, Note_off_c, 0, 78, 67
1, 1032103, Note_off_c, 0, 54, 65
1, 1032105, Note_off_c, 0, 81, 63
1, 1032113, Note_off_c, 0, 57, 63
1, 1032131, Note_off_c, 0, 84, 65
1, 1032149, Note_off_c, 0, 60, 65
1, 1032286, Control_c, 0, 64, 89
1, 1032286, Control_c, 1, 64, 89
1, 1032305, Control_c, 1, 64, 40
1, 1032305, Control_c, 0, 64, 40
1, 1032321, Note_on_c, 0, 72, 95
1, 1032323, Control_c, 0, 64, 9
1, 1032323, Control_c, 1, 64, 9
1, 1032326, Note_on_c, 0, 60, 88
1, 1032327, Note_on_c, 0, 48, 96
1, 1032334, Note_on_c, 0, 36, 93
1, 1032342, Control_c, 0, 64, 27
1, 1032342, Control_c, 1, 64, 27
1, 1032360, Control_c, 1, 64, 66
1, 1032360, Control_c, 0, 64, 66
1, 1032379, Control_c, 0, 64, 127
1, 1032379, Control_c, 1, 64, 127
1, 1032398, Note_off_c, 0, 60, 58
1, 1032415, Note_off_c, 0, 72, 59
1, 1032435, Note_off_c, 0, 48, 54
1, 1032442, Poly_aftertouch_c, 0, 70, 0
1, 1032462, Note_off_c, 0, 36, 61
1, 1032529, Poly_aftertouch_c, 0, 39, 0
1, 1032595, Note_on_c, 0, 69, 94
1, 1032598, Note_on_c, 0, 57, 91
1, 1032602, Note_on_c, 0, 45, 98
1, 1032608, Note_on_c, 0, 33, 93
1, 1032648, Note_off_c, 0, 57, 65
1, 1032660, Note_off_c, 0, 33, 60
1, 1032660, Poly_aftertouch_c, 0, 33, 0
1, 1032661, Note_off_c, 0, 45, 62
1, 1032670, Note_off_c, 0, 69, 62
1, 1032940, Control_c, 0, 64, 56
1, 1032940, Control_c, 1, 64, 56
1, 1032944, Note_on_c, 0, 75, 101
1, 1032945, Note_on_c, 0, 63, 101
1, 1032956, Note_on_c, 0, 51, 100
1, 1032957, Note_on_c, 0, 39, 95
1, 1032960, Control_c, 0, 64, 0
1, 1032960, Control_c, 1, 64, 0
1, 1032988, Note_on_c, 0, 73, 47
1, 1033028, Note_off_c, 0, 73, 38
1, 1033035, Control_c, 0, 64, 55
1, 1033035, Control_c, 1, 64, 55
1, 1033054, Control_c, 1, 64, 127
1, 1033054, Control_c, 0, 64, 127
1, 1033134, Note_off_c, 0, 39, 63
1, 1033135, Note_off_c, 0, 63, 62
1, 1033175, Note_off_c, 0, 51, 62
1, 1033195, Note_off_c, 0, 75, 61
1, 1033334, Note_on_c, 0, 44, 67
1, 1033337, Note_on_c, 0, 68, 77
1, 1033379, Note_on_c, 0, 47, 67
1, 1033406, Note_on_c, 0, 71, 64
1, 1033421, Note_on_c, 0, 51, 73
1, 1033428, Note_off_c, 0, 68, 62
1, 1033454, Note_on_c, 0, 75, 80
1, 1033455, Note_off_c, 0, 44, 59
1, 1033471, Note_off_c, 0, 71, 62
1, 1033482, Note_off_c, 0, 47, 62
1, 1033499, Note_on_c, 0, 56, 81
1, 1033510, Note_off_c, 0, 75, 67
1, 1033514, Note_off_c, 0, 51, 63
1, 1033561, Note_off_c, 0, 56, 64
1, 1033582, Note_on_c, 0, 80, 78
1, 1033638, Note_on_c, 0, 59, 67
1, 1033679, Note_on_c, 0, 83, 78
1, 1033692, Poly_aftertouch_c, 0, 82, 127
1, 1033715, Note_on_c, 0, 87, 86
1, 1033721, Note_on_c, 0, 63, 86
1, 1033729, Note_off_c, 0, 59, 55
1, 1033745, Poly_aftertouch_c, 0, 82, 0
1, 1033746, Note_on_c, 0, 92, 92
1, 1033755, Note_off_c, 0, 80, 62
1, 1033770, Note_off_c, 0, 83, 66
1, 1033777, Note_on_c, 0, 68, 89
1, 1033787, Note_off_c, 0, 63, 63
1, 1033794, Note_off_c, 0, 87, 68
1, 1033799, Note_off_c, 0, 92, 69
1, 1033823, Note_off_c, 0, 68, 69
1, 1033971, Control_c, 0, 64, 62
1, 1033971, Control_c, 1, 64, 62
1, 1033989, Control_c, 1, 64, 22
1, 1033989, Control_c, 0, 64, 22
1, 1034001, Note_on_c, 0, 76, 92
1, 1034009, Note_on_c, 0, 64, 88
1, 1034016, Note_on_c, 0, 52, 89
1, 1034022, Note_on_c, 0, 40, 88
1, 1034025, Control_c, 0, 64, 47
1, 1034025, Control_c, 1, 64, 47
1, 1034047, Control_c, 1, 64, 91
1, 1034047, Control_c, 0, 64, 91
1, 1034049, Note_off_c, 0, 52, 68
1, 1034054, Note_on_c, 0, 41, 37
1, 1034055, Note_off_c, 0, 41, 127
1, 1034062, Control_c, 0, 64, 127
1, 1034062, Control_c, 1, 64, 127
1, 1034064, Note_off_c, 0, 64, 60
1, 1034065, Note_off_c, 0, 76, 63
1, 1034068, Note_off_c, 0, 40, 63
1, 1034267, Note_on_c, 0, 40, 89
1, 1034269, Note_on_c, 0, 64, 91
1, 1034274, Note_on_c, 0, 28, 91
1, 1034276, Note_on_c, 0, 52, 91
1, 1034315, Note_off_c, 0, 40, 63
1, 1034316, Note_off_c, 0, 52, 62
1, 1034321, Note_off_c, 0, 28, 65
1, 1034343, Note_off_c, 0, 64, 59
1, 1034373, Poly_aftertouch_c, 0, 30, 127
1, 1034421, Poly_aftertouch_c, 0, 30, 0
1, 1034551, Control_c, 0, 64, 107
1, 1034551, Control_c, 1, 64, 107
1, 1034557, Note_on_c, 0, 69, 99
1, 1034561, Note_on_c, 0, 57, 97
1, 1034562, Note_on_c, 0, 45, 100
1, 1034567, Note_on_c, 0, 33, 93
1, 1034570, Control_c, 0, 64, 49
1, 1034570, Control_c, 1, 64, 49
1, 1034588, Control_c, 1, 64, 0
1, 1034588, Control_c, 0, 64, 0
1, 1034644, Control_c, 0, 64, 19
1, 1034644, Control_c, 1, 64, 19
1, 1034664, Control_c, 1, 64, 79
1, 1034664, Control_c, 0, 64, 79
1, 1034682, Control_c, 0, 64, 127
1, 1034682, Control_c, 1, 64, 127
1, 1034707, Poly_aftertouch_c, 0, 66, 0
1, 1034721, Note_off_c, 0, 57, 60
1, 1034723, Note_off_c, 0, 33, 63
1, 1034723, Poly_aftertouch_c, 0, 33, 0
1, 1034746, Note_off_c, 0, 69, 53
1, 1034763, Note_off_c, 0, 45, 59
1, 1034872, Note_on_c, 0, 60, 76
1, 1034927, Note_on_c, 0, 36, 58
1, 1034939, Note_on_c, 0, 63, 70
1, 1034960, Note_on_c, 0, 35, 20
1, 1034982, Note_on_c, 0, 66, 72
1, 1034989, Note_on_c, 0, 42, 72
1, 1034995, Note_on_c, 0, 39, 57
1, 1035015, Note_off_c, 0, 60, 58
1, 1035025, Note_on_c, 0, 45, 68
1, 1035026, Note_off_c, 0, 35, 40
1, 1035047, Note_on_c, 0, 69, 79
1, 1035050, Note_off_c, 0, 63, 64
1, 1035069, Note_off_c, 0, 36, 58
1, 1035084, Note_off_c, 0, 66, 65
1, 1035088, Note_off_c, 0, 39, 62
1, 1035089, Note_off_c, 0, 45, 62
1, 1035100, Note_off_c, 0, 42, 60
1, 1035103, Note_off_c, 0, 69, 61
1, 1035110, Note_on_c, 0, 48, 78
1, 1035150, Note_on_c, 0, 72, 88
1, 1035170, Note_off_c, 0, 48, 61
1, 1035222, Note_on_c, 0, 51, 75
1, 1035240, Note_on_c, 0, 75, 81
1, 1035265, Note_on_c, 0, 54, 74
1, 1035283, Note_on_c, 0, 78, 86
1, 1035316, Note_on_c, 0, 81, 87
1, 1035317, Note_on_c, 0, 57, 80
1, 1035343, Note_off_c, 0, 51, 59
1, 1035345, Note_off_c, 0, 72, 58
1, 1035357, Note_off_c, 0, 75, 63
1, 1035359, Note_on_c, 0, 84, 100
1, 1035374, Note_off_c, 0, 54, 62
1, 1035374, Poly_aftertouch_c, 0, 50, 0
1, 1035375, Note_on_c, 0, 60, 93
1, 1035386, Note_off_c, 0, 78, 67
1, 1035391, Note_off_c, 0, 57, 65
1, 1035393, Note_off_c, 0, 81, 63
1, 1035410, Note_off_c, 0, 84, 68
1, 1035416, Note_off_c, 0, 60, 65
1, 1035600, Control_c, 0, 64, 68
1, 1035600, Control_c, 1, 64, 68
1, 1035618, Control_c, 1, 64, 11
1, 1035618, Control_c, 0, 64, 11
1, 1035633, Note_on_c, 0, 48, 90
1, 1035633, Note_on_c, 0, 72, 93
1, 1035634, Note_on_c, 0, 60, 88
1, 1035636, Control_c, 0, 64, 0
1, 1035636, Control_c, 1, 64, 0
1, 1035640, Note_on_c, 0, 36, 90
1, 1035656, Control_c, 0, 64, 15
1, 1035656, Control_c, 1, 64, 15
1, 1035674, Control_c, 1, 64, 57
1, 1035674, Control_c, 0, 64, 57
1, 1035693, Control_c, 0, 64, 127
1, 1035693, Control_c, 1, 64, 127
1, 1035704, Note_off_c, 0, 60, 56
1, 1035713, Note_off_c, 0, 48, 54
1, 1035730, Note_off_c, 0, 72, 58
1, 1035762, Note_off_c, 0, 36, 61
1, 1035778, Poly_aftertouch_c, 0, 70, 127
1, 1035782, Poly_aftertouch_c, 0, 70, 0
1, 1035880, Control_c, 0, 64, 73
1, 1035880, Control_c, 1, 64, 73
1, 1035893, Note_on_c, 0, 69, 95
1, 1035897, Note_on_c, 0, 45, 89
1, 1035898, Note_on_c, 0, 57, 91
1, 1035899, Control_c, 0, 64, 57
1, 1035899, Control_c, 1, 64, 57
1, 1035906, Note_on_c, 0, 33, 89
1, 1035917, Control_c, 0, 64, 69
1, 1035917, Control_c, 1, 64, 69
1, 1035936, Control_c, 1, 64, 99
1, 1035936, Control_c, 0, 64, 99
1, 1035950, Note_off_c, 0, 57, 62
1, 1035953, Control_c, 0, 64, 127
1, 1035953, Control_c, 1, 64, 127
1, 1035962, Note_off_c, 0, 33, 57
1, 1035962, Poly_aftertouch_c, 0, 33, 0
1, 1035963, Note_off_c, 0, 45, 61
1, 1035980, Note_off_c, 0, 69, 61
1, 1036198, Control_c, 0, 64, 76
1, 1036198, Control_c, 1, 64, 76
1, 1036207, Note_on_c, 0, 63, 97
1, 1036208, Note_on_c, 0, 75, 81
1, 1036214, Note_on_c, 0, 51, 97
1, 1036215, Note_on_c, 0, 39, 90
1, 1036217, Control_c, 0, 64, 16
1, 1036217, Control_c, 1, 64, 16
1, 1036236, Control_c, 1, 64, 0
1, 1036236, Control_c, 0, 64, 0
1, 1036291, Control_c, 0, 64, 41
1, 1036291, Control_c, 1, 64, 41
1, 1036311, Control_c, 1, 64, 127
1, 1036311, Control_c, 0, 64, 127
1, 1036439, Note_on_c, 0, 68, 70
1, 1036441, Note_off_c, 0, 51, 59
1, 1036446, Note_on_c, 0, 44, 71
1, 1036451, Note_off_c, 0, 39, 60
1, 1036454, Note_off_c, 0, 63, 63
1, 1036461, Note_off_c, 0, 75, 57
1, 1036464, Note_on_c, 0, 71, 67
1, 1036468, Note_on_c, 0, 47, 70
1, 1036505, Note_off_c, 0, 68, 64
1, 1036524, Note_off_c, 0, 44, 61
1, 1036536, Note_off_c, 0, 71, 65
1, 1036539, Note_off_c, 0, 47, 59
1, 1036546, Note_on_c, 0, 51, 74
1, 1036576, Note_off_c, 0, 51, 67
1, 1036602, Note_on_c, 0, 75, 84
1, 1036664, Note_on_c, 0, 56, 73
1, 1036698, Note_on_c, 0, 80, 76
1, 1036728, Note_on_c, 0, 59, 60
1, 1036734, Note_on_c, 0, 87, 86
1, 1036737, Note_on_c, 0, 83, 71
1, 1036749, Note_off_c, 0, 75, 61
1, 1036758, Note_on_c, 0, 82, 20
1, 1036760, Note_off_c, 0, 56, 61
1, 1036760, Note_on_c, 0, 85, 60
1, 1036776, Note_on_c, 0, 63, 94
1, 1036791, Note_off_c, 0, 80, 64
1, 1036797, Note_off_c, 0, 85, 69
1, 1036801, Note_off_c, 0, 83, 63
1, 1036804, Note_off_c, 0, 59, 61
1, 1036819, Note_off_c, 0, 82, 48
1, 1036820, Note_off_c, 0, 87, 66
1, 1036827, Note_off_c, 0, 63, 65
1, 1037040, Control_c, 0, 64, 63
1, 1037040, Control_c, 1, 64, 63
1, 1037045, Note_on_c, 0, 76, 80
1, 1037048, Note_on_c, 0, 52, 98
1, 1037053, Note_on_c, 0, 64, 88
1, 1037054, Note_on_c, 0, 40, 91
1, 1037059, Control_c, 0, 64, 0
1, 1037059, Control_c, 1, 64, 0
1, 1037114, Control_c, 1, 64, 28
1, 1037114, Control_c, 0, 64, 28
1, 1037134, Control_c, 0, 64, 89
1, 1037134, Control_c, 1, 64, 89
1, 1037152, Control_c, 1, 64, 127
1, 1037152, Control_c, 0, 64, 127
1, 1037243, Note_on_c, 0, 44, 61
1, 1037260, Note_on_c, 0, 68, 71
1, 1037262, Note_off_c, 0, 52, 56
1, 1037272, Note_off_c, 0, 64, 60
1, 1037278, Note_on_c, 0, 71, 68
1, 1037280, Note_on_c, 0, 47, 66
1, 1037283, Note_off_c, 0, 40, 56
1, 1037310, Note_off_c, 0, 68, 62
1, 1037321, Note_off_c, 0, 76, 64
1, 1037321, Note_on_c, 0, 76, 36
1, 1037344, Note_off_c, 0, 44, 61
1, 1037346, Note_off_c, 0, 71, 65
1, 1037349, Note_off_c, 0, 47, 61
1, 1037356, Note_off_c, 0, 76, 56
1, 1037369, Note_on_c, 0, 52, 75
1, 1037390, Poly_aftertouch_c, 0, 76, 0
1, 1037423, Note_off_c, 0, 52, 66
1, 1037441, Poly_aftertouch_c, 0, 76, 127
1, 1037501, Note_on_c, 0, 56, 71
1, 1037531, Note_on_c, 0, 83, 80
1, 1037535, Note_on_c, 0, 79, 63
1, 1037551, Note_on_c, 0, 59, 61
1, 1037559, Note_on_c, 0, 80, 19
1, 1037561, Note_off_c, 0, 79, 61
1, 1037573, Note_off_c, 0, 80, 59
1, 1037584, Poly_aftertouch_c, 0, 76, 0
1, 1037587, Note_off_c, 0, 56, 60
1, 1037587, Note_on_c, 0, 84, 58
1, 1037593, Note_on_c, 0, 88, 86
1, 1037610, Note_off_c, 0, 84, 63
1, 1037627, Note_on_c, 0, 64, 85
1, 1037628, Note_off_c, 0, 83, 65
1, 1037647, Note_off_c, 0, 59, 58
1, 1037648, Note_off_c, 0, 88, 65
1, 1037675, Note_off_c, 0, 64, 61
1, 1037901, Poly_aftertouch_c, 0, 80, 0
1, 1037990, Note_on_c, 0, 80, 108
1, 1037992, Note_on_c, 0, 68, 103
1, 1037994, Control_c, 0, 64, 98
1, 1037994, Control_c, 1, 64, 98
1, 1038014, Control_c, 1, 64, 43
1, 1038014, Control_c, 0, 64, 43
1, 1038018, Note_on_c, 0, 56, 96
1, 1038019, Note_on_c, 0, 44, 92
1, 1038032, Control_c, 0, 64, 0
1, 1038032, Control_c, 1, 64, 0
1, 1038037, Note_on_c, 0, 78, 43
1, 1038076, Note_off_c, 0, 78, 38
1, 1038126, Control_c, 0, 64, 29
1, 1038126, Control_c, 1, 64, 29
1, 1038145, Control_c, 1, 64, 127
1, 1038145, Control_c, 0, 64, 127
1, 1038217, Poly_aftertouch_c, 0, 46, 127
1, 1038231, Note_off_c, 0, 44, 59
1, 1038256, Poly_aftertouch_c, 0, 46, 0
1, 1038277, Note_off_c, 0, 56, 60
1, 1038285, Note_off_c, 0, 68, 61
1, 1038345, Poly_aftertouch_c, 0, 78, 127
1, 1038366, Note_off_c, 0, 80, 61
1, 1038426, Poly_aftertouch_c, 0, 78, 0
1, 1038454, Note_on_c, 0, 73, 75
1, 1038470, Note_on_c, 0, 49, 66
1, 1038514, Note_on_c, 0, 52, 67
1, 1038522, Note_on_c, 0, 76, 72
1, 1038547, Note_on_c, 0, 56, 74
1, 1038556, Note_off_c, 0, 73, 61
1, 1038582, Note_off_c, 0, 49, 60
1, 1038583, Note_on_c, 0, 80, 81
1, 1038595, Note_off_c, 0, 76, 64
1, 1038621, Note_off_c, 0, 52, 61
1, 1038629, Note_on_c, 0, 61, 84
1, 1038643, Note_off_c, 0, 80, 67
1, 1038646, Note_off_c, 0, 56, 61
1, 1038681, Note_off_c, 0, 61, 65
1, 1038696, Note_on_c, 0, 85, 85
1, 1038790, Note_on_c, 0, 88, 74
1, 1038815, Note_on_c, 0, 64, 45
1, 1038846, Note_on_c, 0, 92, 84
1, 1038852, Note_off_c, 0, 64, 60
1, 1038857, Note_on_c, 0, 68, 77
1, 1038868, Note_off_c, 0, 85, 61
1, 1038888, Note_on_c, 0, 97, 95
1, 1038899, Note_off_c, 0, 88, 65
1, 1038904, Note_on_c, 0, 94, 68
1, 1038918, Note_on_c, 0, 73, 97
1, 1038928, Note_off_c, 0, 92, 66
1, 1038928, Note_off_c, 0, 94, 67
1, 1038932, Note_off_c, 0, 68, 55
1, 1038946, Note_off_c, 0, 97, 66
1, 1038967, Note_off_c, 0, 73, 66
1, 1039037, Poly_aftertouch_c, 0, 74, 0
1, 1039155, Control_c, 0, 64, 113
1, 1039155, Control_c, 1, 64, 113
1, 1039174, Control_c, 1, 64, 57
1, 1039174, Control_c, 0, 64, 57
1, 1039194, Note_on_c, 0, 81, 92
1, 1039195, Control_c, 0, 64, 8
1, 1039195, Control_c, 1, 64, 8
1, 1039202, Note_on_c, 0, 69, 89
1, 1039207, Note_on_c, 0, 57, 86
1, 1039213, Note_on_c, 0, 45, 90
1, 1039230, Control_c, 0, 64, 37
1, 1039230, Control_c, 1, 64, 37
1, 1039249, Control_c, 1, 64, 87
1, 1039249, Control_c, 0, 64, 87
1, 1039257, Note_off_c, 0, 57, 67
1, 1039261, Note_off_c, 0, 69, 59
1, 1039266, Note_off_c, 0, 81, 62
1, 1039267, Control_c, 0, 64, 127
1, 1039267, Control_c, 1, 64, 127
1, 1039270, Note_off_c, 0, 45, 64
1, 1039457, Control_c, 0, 64, 69
1, 1039457, Control_c, 1, 64, 69
1, 1039474, Control_c, 1, 64, 56
1, 1039474, Note_on_c, 0, 52, 88
1, 1039474, Control_c, 0, 64, 56
1, 1039475, Note_on_c, 0, 76, 90
1, 1039478, Note_on_c, 0, 64, 84
1, 1039486, Note_on_c, 0, 40, 74
1, 1039492, Control_c, 0, 64, 70
1, 1039492, Control_c, 1, 64, 70
1, 1039501, Note_on_c, 0, 74, 66
1, 1039505, Note_on_c, 0, 38, 54
1, 1039506, Note_off_c, 0, 38, 127
1, 1039509, Control_c, 0, 64, 127
1, 1039509, Control_c, 1, 64, 127
1, 1039525, Note_off_c, 0, 74, 127
1, 1039528, Note_off_c, 0, 52, 63
1, 1039532, Note_off_c, 0, 40, 62
1, 1039534, Note_off_c, 0, 64, 59
1, 1039542, Note_off_c, 0, 76, 64
1, 1039551, Poly_aftertouch_c, 0, 38, 0
1, 1039615, Poly_aftertouch_c, 0, 73, 0
1, 1039787, Note_on_c, 0, 73, 93
1, 1039791, Control_c, 0, 64, 104
1, 1039791, Control_c, 1, 64, 104
1, 1039792, Note_on_c, 0, 61, 97
1, 1039798, Note_on_c, 0, 49, 98
1, 1039801, Note_on_c, 0, 37, 90
1, 1039807, Note_on_c, 0, 74, 79
1, 1039811, Control_c, 0, 64, 48
1, 1039811, Control_c, 1, 64, 48
1, 1039828, Control_c, 1, 64, 0
1, 1039828, Control_c, 0, 64, 0
1, 1039837, Note_off_c, 0, 74, 52
1, 1039886, Control_c, 0, 64, 8
1, 1039886, Control_c, 1, 64, 8
1, 1039904, Control_c, 1, 64, 67
1, 1039904, Control_c, 0, 64, 67
1, 1039923, Control_c, 0, 64, 127
1, 1039923, Control_c, 1, 64, 127
1, 1039934, Note_off_c, 0, 37, 63
1, 1039956, Poly_aftertouch_c, 0, 74, 0
1, 1039962, Note_off_c, 0, 61, 53
1, 1039988, Note_off_c, 0, 49, 59
1, 1040034, Note_off_c, 0, 73, 45
1, 1040181, Note_on_c, 0, 66, 74
1, 1040195, Note_on_c, 0, 42, 60
1, 1040217, Note_on_c, 0, 45, 67
1, 1040236, Note_on_c, 0, 69, 68
1, 1040259, Note_on_c, 0, 49, 66
1, 1040270, Note_off_c, 0, 66, 61
1, 1040307, Note_on_c, 0, 73, 79
1, 1040313, Note_off_c, 0, 69, 61
1, 1040321, Note_off_c, 0, 42, 60
1, 1040339, Note_off_c, 0, 45, 61
1, 1040341, Note_on_c, 0, 54, 86
1, 1040359, Note_off_c, 0, 49, 63
1, 1040365, Note_off_c, 0, 73, 65
1, 1040405, Note_off_c, 0, 54, 66
1, 1040425, Note_on_c, 0, 78, 81
1, 1040504, Note_on_c, 0, 57, 71
1, 1040529, Note_on_c, 0, 81, 81
1, 1040568, Note_on_c, 0, 82, 15
1, 1040568, Note_on_c, 0, 85, 81
1, 1040585, Note_off_c, 0, 57, 62
1, 1040588, Note_on_c, 0, 61, 83
1, 1040591, Note_off_c, 0, 78, 58
1, 1040620, Note_on_c, 0, 90, 97
1, 1040630, Note_off_c, 0, 81, 62
1, 1040638, Note_on_c, 0, 66, 96
1, 1040643, Note_off_c, 0, 82, 28
1, 1040646, Note_off_c, 0, 61, 64
1, 1040648, Note_on_c, 0, 87, 50
1, 1040659, Note_off_c, 0, 85, 66
1, 1040664, Note_off_c, 0, 90, 70
1, 1040680, Note_off_c, 0, 87, 60
1, 1040690, Note_off_c, 0, 66, 69
1, 1040859, Control_c, 0, 64, 119
1, 1040859, Control_c, 1, 64, 119
1, 1040878, Control_c, 1, 64, 59
1, 1040878, Control_c, 0, 64, 59
1, 1040897, Control_c, 0, 64, 18
1, 1040897, Control_c, 1, 64, 18
1, 1040908, Note_on_c, 0, 74, 92
1, 1040912, Note_on_c, 0, 50, 91
1, 1040918, Note_on_c, 0, 38, 88
1, 1040922, Note_on_c, 0, 62, 78
1, 1040929, Note_on_c, 0, 60, 77
1, 1040935, Control_c, 0, 64, 51
1, 1040935, Control_c, 1, 64, 51
1, 1040952, Note_off_c, 0, 60, 41
1, 1040953, Control_c, 0, 64, 127
1, 1040953, Control_c, 1, 64, 127
1, 1040961, Note_off_c, 0, 62, 63
1, 1040964, Note_off_c, 0, 38, 63
1, 1040972, Note_off_c, 0, 50, 64
1, 1040981, Note_off_c, 0, 74, 64
1, 1041160, Control_c, 0, 64, 81
1, 1041160, Control_c, 1, 64, 81
1, 1041177, Control_c, 1, 64, 36
1, 1041177, Control_c, 0, 64, 36
1, 1041203, Note_on_c, 0, 78, 99
1, 1041204, Note_on_c, 0, 66, 95
1, 1041206, Note_on_c, 0, 54, 94
1, 1041210, Note_on_c, 0, 42, 90
1, 1041215, Control_c, 0, 64, 12
1, 1041215, Control_c, 1, 64, 12
1, 1041233, Control_c, 1, 64, 54
1, 1041233, Control_c, 0, 64, 54
1, 1041251, Control_c, 0, 64, 127
1, 1041251, Control_c, 1, 64, 127
1, 1041363, Note_off_c, 0, 42, 56
1, 1041364, Note_off_c, 0, 66, 55
1, 1041376, Note_off_c, 0, 78, 55
1, 1041379, Note_off_c, 0, 54, 55
1, 1041515, Control_c, 0, 64, 65
1, 1041515, Control_c, 1, 64, 65
1, 1041532, Control_c, 1, 64, 0
1, 1041532, Note_on_c, 0, 78, 98
1, 1041532, Control_c, 0, 64, 0
1, 1041536, Note_on_c, 0, 66, 98
1, 1041542, Note_on_c, 0, 54, 90
1, 1041547, Note_on_c, 0, 42, 87
1, 1041588, Control_c, 0, 64, 32
1, 1041588, Control_c, 1, 64, 32
1, 1041609, Control_c, 1, 64, 127
1, 1041609, Control_c, 0, 64, 127
1, 1041670, Note_off_c, 0, 42, 61
1, 1041686, Note_off_c, 0, 66, 59
1, 1041701, Note_off_c, 0, 54, 61
1, 1041765, Note_off_c, 0, 78, 47
1, 1041918, Note_on_c, 0, 71, 79
1, 1041940, Note_on_c, 0, 47, 60
1, 1041946, Note_on_c, 0, 50, 66
1, 1041982, Note_on_c, 0, 74, 56
1, 1041986, Note_on_c, 0, 54, 65
1, 1041999, Note_off_c, 0, 71, 59
1, 1042036, Note_off_c, 0, 47, 62
1, 1042037, Note_on_c, 0, 78, 82
1, 1042048, Note_off_c, 0, 50, 63
1, 1042057, Note_off_c, 0, 74, 61
1, 1042067, Note_on_c, 0, 59, 75
1, 1042072, Note_off_c, 0, 54, 66
1, 1042104, Note_off_c, 0, 78, 66
1, 1042120, Note_off_c, 0, 59, 65
1, 1042167, Note_on_c, 0, 83, 76
1, 1042185, Note_on_c, 0, 62, 76
1, 1042247, Note_on_c, 0, 86, 59
1, 1042284, Note_off_c, 0, 62, 60
1, 1042284, Note_on_c, 0, 66, 80
1, 1042292, Note_on_c, 0, 90, 94
1, 1042307, Note_off_c, 0, 83, 59
1, 1042327, Note_on_c, 0, 95, 88
1, 1042331, Note_on_c, 0, 72, 79
1, 1042333, Note_off_c, 0, 86, 64
1, 1042338, Note_on_c, 0, 71, 73
1, 1042345, Note_off_c, 0, 66, 66
1, 1042359, Note_off_c, 0, 72, 71
1, 1042365, Note_off_c, 0, 90, 67
1, 1042377, Note_off_c, 0, 71, 63
1, 1042383, Note_off_c, 0, 95, 67
1, 1042562, Control_c, 0, 64, 86
1, 1042562, Control_c, 1, 64, 86
1, 1042581, Control_c, 1, 64, 41
1, 1042581, Control_c, 0, 64, 41
1, 1042596, Note_on_c, 0, 79, 94
1, 1042599, Control_c, 0, 64, 17
1, 1042599, Control_c, 1, 64, 17
1, 1042606, Note_on_c, 0, 55, 90
1, 1042606, Note_on_c, 0, 67, 91
1, 1042610, Note_on_c, 0, 43, 90
1, 1042619, Control_c, 0, 64, 30
1, 1042619, Control_c, 1, 64, 30
1, 1042637, Control_c, 1, 64, 62
1, 1042637, Control_c, 0, 64, 62
1, 1042656, Control_c, 0, 64, 127
1, 1042656, Control_c, 1, 64, 127
1, 1042691, Note_off_c, 0, 67, 57
1, 1042708, Note_off_c, 0, 79, 62
1, 1042727, Poly_aftertouch_c, 0, 46, 127
1, 1042731, Note_off_c, 0, 55, 58
1, 1042762, Note_off_c, 0, 43, 60
1, 1042785, Poly_aftertouch_c, 0, 46, 0
1, 1042863, Control_c, 0, 64, 76
1, 1042863, Control_c, 1, 64, 76
1, 1042880, Control_c, 1, 64, 35
1, 1042880, Control_c, 0, 64, 35
1, 1042888, Note_on_c, 0, 74, 90
1, 1042892, Note_on_c, 0, 50, 85
1, 1042892, Note_on_c, 0, 62, 89
1, 1042898, Control_c, 0, 64, 14
1, 1042898, Control_c, 1, 64, 14
1, 1042899, Note_on_c, 0, 38, 82
1, 1042917, Control_c, 0, 64, 27
1, 1042917, Control_c, 1, 64, 27
1, 1042937, Control_c, 1, 64, 65
1, 1042937, Control_c, 0, 64, 65
1, 1042955, Control_c, 0, 64, 127
1, 1042955, Control_c, 1, 64, 127
1, 1042987, Note_off_c, 0, 50, 60
1, 1042999, Note_off_c, 0, 62, 53
1, 1043015, Note_off_c, 0, 74, 60
1, 1043036, Note_off_c, 0, 38, 59
1, 1043199, Control_c, 0, 64, 94
1, 1043199, Control_c, 1, 64, 94
1, 1043211, Note_on_c, 0, 59, 86
1, 1043212, Note_on_c, 0, 72, 86
1, 1043214, Note_on_c, 0, 47, 93
1, 1043214, Note_on_c, 0, 71, 86
1, 1043217, Note_on_c, 0, 35, 90
1, 1043217, Control_c, 0, 64, 42
1, 1043217, Control_c, 1, 64, 42
1, 1043238, Control_c, 1, 64, 0
1, 1043238, Control_c, 0, 64, 0
1, 1043248, Note_on_c, 0, 60, 48
1, 1043249, Note_off_c, 0, 60, 127
1, 1043293, Control_c, 0, 64, 26
1, 1043293, Control_c, 1, 64, 26
1, 1043310, Control_c, 1, 64, 79
1, 1043310, Control_c, 0, 64, 79
1, 1043329, Control_c, 0, 64, 127
1, 1043329, Control_c, 1, 64, 127
1, 1043335, Note_off_c, 0, 72, 59
1, 1043384, Note_off_c, 0, 59, 59
1, 1043387, Note_off_c, 0, 35, 60
1, 1043430, Note_off_c, 0, 71, 59
1, 1043434, Note_off_c, 0, 47, 58
1, 1043620, Note_on_c, 0, 64, 74
1, 1043627, Note_on_c, 0, 40, 66
1, 1043645, Note_on_c, 0, 43, 48
1, 1043694, Note_on_c, 0, 47, 66
1, 1043696, Note_off_c, 0, 64, 60
1, 1043700, Note_on_c, 0, 67, 69
1, 1043728, Note_off_c, 0, 40, 53
1, 1043743, Note_on_c, 0, 71, 76
1, 1043749, Note_off_c, 0, 67, 60
1, 1043768, Note_off_c, 0, 43, 61
1, 1043782, Note_on_c, 0, 52, 80
1, 1043784, Note_off_c, 0, 47, 62
1, 1043794, Note_off_c, 0, 71, 61
1, 1043847, Note_off_c, 0, 52, 63
1, 1043849, Note_on_c, 0, 76, 80
1, 1043911, Note_on_c, 0, 55, 71
1, 1043928, Note_on_c, 0, 79, 76
1, 1043978, Note_on_c, 0, 59, 71
1, 1043981, Note_off_c, 0, 76, 56
1, 1043983, Note_on_c, 0, 83, 81
1, 1043995, Note_off_c, 0, 55, 60
1, 1044022, Note_on_c, 0, 88, 92
1, 1044025, Note_off_c, 0, 79, 64
1, 1044029, Note_on_c, 0, 84, 68
1, 1044040, Note_on_c, 0, 64, 88
1, 1044049, Note_off_c, 0, 84, 66
1, 1044058, Note_off_c, 0, 83, 66
1, 1044069, Note_off_c, 0, 59, 59
1, 1044081, Note_off_c, 0, 88, 67
1, 1044090, Note_off_c, 0, 64, 65
1, 1044285, Control_c, 0, 64, 69
1, 1044285, Control_c, 1, 64, 69
1, 1044303, Control_c, 1, 64, 17
1, 1044303, Control_c, 0, 64, 17
1, 1044304, Note_on_c, 0, 72, 94
1, 1044308, Note_on_c, 0, 48, 92
1, 1044312, Note_on_c, 0, 36, 89
1, 1044316, Note_on_c, 0, 60, 86
1, 1044320, Control_c, 0, 64, 0
1, 1044320, Control_c, 1, 64, 0
1, 1044338, Note_off_c, 0, 60, 71
1, 1044342, Note_on_c, 0, 62, 39
1, 1044359, Control_c, 0, 64, 43
1, 1044359, Control_c, 1, 64, 43
1, 1044378, Control_c, 1, 64, 104
1, 1044378, Control_c, 0, 64, 104
1, 1044387, Note_off_c, 0, 62, 36
1, 1044396, Control_c, 0, 64, 127
1, 1044396, Control_c, 1, 64, 127
1, 1044447, Note_off_c, 0, 36, 61
1, 1044472, Note_off_c, 0, 72, 60
1, 1044482, Note_off_c, 0, 48, 56
1, 1044603, Control_c, 0, 64, 71
1, 1044603, Control_c, 1, 64, 71
1, 1044610, Note_on_c, 0, 76, 99
1, 1044619, Note_on_c, 0, 64, 85
1, 1044622, Control_c, 0, 64, 27
1, 1044622, Control_c, 1, 64, 27
1, 1044630, Note_on_c, 0, 52, 86
1, 1044635, Note_on_c, 0, 40, 86
1, 1044658, Control_c, 0, 64, 15
1, 1044658, Control_c, 1, 64, 15
1, 1044678, Control_c, 1, 64, 49
1, 1044678, Control_c, 0, 64, 49
1, 1044696, Control_c, 0, 64, 118
1, 1044696, Control_c, 1, 64, 118
1, 1044713, Control_c, 1, 64, 127
1, 1044713, Control_c, 0, 64, 127
1, 1044828, Note_off_c, 0, 40, 53
1, 1044829, Note_off_c, 0, 64, 56
1, 1044844, Note_off_c, 0, 52, 56
1, 1044854, Note_off_c, 0, 76, 60
1, 1044925, Poly_aftertouch_c, 0, 44, 0
1, 1044987, Note_on_c, 0, 76, 101
1, 1044993, Control_c, 0, 64, 68
1, 1044993, Control_c, 1, 64, 68
1, 1044997, Note_on_c, 0, 64, 92
1, 1045011, Note_on_c, 0, 52, 89
1, 1045016, Note_on_c, 0, 40, 80
1, 1045033, Control_c, 0, 64, 0
1, 1045033, Control_c, 1, 64, 0
1, 1045090, Control_c, 1, 64, 25
1, 1045090, Control_c, 0, 64, 25
1, 1045107, Control_c, 0, 64, 73
1, 1045107, Control_c, 1, 64, 73
1, 1045127, Control_c, 1, 64, 127
1, 1045127, Control_c, 0, 64, 127
1, 1045328, Note_off_c, 0, 40, 48
1, 1045341, Note_off_c, 0, 52, 49
1, 1045353, Note_on_c, 0, 69, 65
1, 1045365, Note_off_c, 0, 64, 53
1, 1045365, Note_on_c, 0, 45, 56
1, 1045404, Note_on_c, 0, 48, 64
1, 1045405, Note_on_c, 0, 72, 65
1, 1045406, Note_off_c, 0, 76, 48
1, 1045414, Note_off_c, 0, 69, 55
1, 1045460, Note_off_c, 0, 45, 62
1, 1045461, Note_off_c, 0, 72, 59
1, 1045481, Note_off_c, 0, 48, 59
1, 1045502, Note_on_c, 0, 52, 72
1, 1045532, Note_on_c, 0, 76, 75
1, 1045565, Note_off_c, 0, 52, 61
1, 1045626, Note_on_c, 0, 81, 75
1, 1045628, Note_off_c, 0, 76, 60
1, 1045631, Note_on_c, 0, 57, 65
1, 1045676, Note_on_c, 0, 84, 72
1, 1045701, Note_off_c, 0, 81, 61
1, 1045704, Note_on_c, 0, 60, 72
1, 1045708, Control_c, 0, 64, 68
1, 1045708, Control_c, 1, 64, 68
1, 1045714, Note_off_c, 0, 57, 61
1, 1045726, Control_c, 0, 64, 16
1, 1045726, Control_c, 1, 64, 16
1, 1045742, Note_on_c, 0, 89, 95
1, 1045747, Note_on_c, 0, 77, 91
1, 1045763, Control_c, 0, 64, 27
1, 1045763, Control_c, 1, 64, 27
1, 1045765, Note_off_c, 0, 60, 62
1, 1045766, Note_off_c, 0, 84, 63
1, 1045780, Note_on_c, 0, 65, 76
1, 1045781, Control_c, 0, 64, 73
1, 1045781, Control_c, 1, 64, 73
1, 1045786, Note_on_c, 0, 85, 48
1, 1045796, Note_on_c, 0, 64, 55
1, 1045798, Control_c, 0, 64, 127
1, 1045798, Control_c, 1, 64, 127
1, 1045800, Note_off_c, 0, 89, 64
1, 1045804, Note_off_c, 0, 77, 63
1, 1045809, Note_off_c, 0, 65, 69
1, 1045821, Note_off_c, 0, 85, 36
1, 1045831, Note_off_c, 0, 64, 57
1, 1046025, Control_c, 0, 64, 69
1, 1046025, Control_c, 1, 64, 69
1, 1046039, Note_on_c, 0, 70, 89
1, 1046043, Control_c, 0, 64, 36
1, 1046043, Control_c, 1, 64, 36
1, 1046046, Note_on_c, 0, 58, 89
1, 1046050, Note_on_c, 0, 46, 92
1, 1046053, Note_on_c, 0, 34, 92
1, 1046062, Control_c, 0, 64, 42
1, 1046062, Control_c, 1, 64, 42
1, 1046081, Control_c, 1, 64, 73
1, 1046081, Control_c, 0, 64, 73
1, 1046093, Note_on_c, 0, 68, 32
1, 1046096, Note_off_c, 0, 46, 60
1, 1046098, Control_c, 0, 64, 127
1, 1046098, Control_c, 1, 64, 127
1, 1046107, Note_off_c, 0, 34, 62
1, 1046110, Note_off_c, 0, 58, 63
1, 1046127, Note_off_c, 0, 70, 63
1, 1046140, Note_off_c, 0, 68, 53
1, 1046289, Control_c, 0, 64, 99
1, 1046289, Control_c, 1, 64, 99
1, 1046306, Control_c, 1, 64, 62
1, 1046306, Control_c, 0, 64, 62
1, 1046308, Note_on_c, 0, 74, 99
1, 1046321, Note_on_c, 0, 50, 88
1, 1046321, Note_on_c, 0, 62, 84
1, 1046324, Control_c, 0, 64, 53
1, 1046324, Control_c, 1, 64, 53
1, 1046329, Note_on_c, 0, 38, 81
1, 1046342, Note_on_c, 0, 40, 71
1, 1046342, Control_c, 0, 64, 67
1, 1046342, Control_c, 1, 64, 67
1, 1046353, Note_off_c, 0, 62, 63
1, 1046354, Note_on_c, 0, 64, 41
1, 1046355, Note_off_c, 0, 64, 127
1, 1046361, Control_c, 0, 64, 101
1, 1046361, Control_c, 1, 64, 101
1, 1046367, Note_off_c, 0, 50, 61
1, 1046371, Note_off_c, 0, 38, 67
1, 1046376, Note_off_c, 0, 40, 59
1, 1046379, Control_c, 0, 64, 127
1, 1046379, Control_c, 1, 64, 127
1, 1046391, Note_off_c, 0, 74, 63
1, 1046399, Poly_aftertouch_c, 0, 64, 0
1, 1046663, Note_on_c, 0, 75, 99
1, 1046667, Note_on_c, 0, 63, 97
1, 1046676, Note_on_c, 0, 51, 92
1, 1046679, Control_c, 0, 64, 85
1, 1046679, Control_c, 1, 64, 85
1, 1046684, Note_on_c, 0, 39, 86
1, 1046700, Control_c, 0, 64, 26
1, 1046700, Control_c, 1, 64, 26
1, 1046717, Control_c, 1, 64, 0
1, 1046717, Control_c, 0, 64, 0
1, 1046774, Control_c, 0, 64, 8
1, 1046774, Control_c, 1, 64, 8
1, 1046792, Control_c, 1, 64, 69
1, 1046792, Control_c, 0, 64, 69
1, 1046812, Control_c, 0, 64, 127
1, 1046812, Control_c, 1, 64, 127
1, 1046979, Note_off_c, 0, 51, 55
1, 1047001, Note_on_c, 0, 44, 61
1, 1047023, Note_on_c, 0, 68, 67
1, 1047032, Note_off_c, 0, 39, 53
1, 1047050, Note_off_c, 0, 63, 63
1, 1047052, Note_on_c, 0, 47, 54
1, 1047063, Note_on_c, 0, 71, 65
1, 1047067, Note_off_c, 0, 75, 55
1, 1047096, Note_off_c, 0, 44, 60
1, 1047096, Note_off_c, 0, 47, 64
1, 1047103, Note_on_c, 0, 51, 77
1, 1047105, Note_off_c, 0, 68, 62
1, 1047135, Note_off_c, 0, 71, 65
1, 1047167, Note_off_c, 0, 51, 61
1, 1047211, Note_on_c, 0, 75, 72
1, 1047266, Note_on_c, 0, 56, 36
1, 1047304, Note_on_c, 0, 55, 31
1, 1047310, Note_on_c, 0, 80, 73
1, 1047319, Note_off_c, 0, 75, 63
1, 1047344, Note_on_c, 0, 59, 72
1, 1047346, Note_on_c, 0, 83, 74
1, 1047357, Note_off_c, 0, 55, 47
1, 1047397, Note_on_c, 0, 88, 88
1, 1047399, Note_off_c, 0, 56, 28
1, 1047408, Note_on_c, 0, 76, 87
1, 1047414, Note_on_c, 0, 64, 89
1, 1047421, Note_off_c, 0, 80, 60
1, 1047426, Note_on_c, 0, 82, 24
1, 1047427, Note_off_c, 0, 82, 127
1, 1047444, Note_off_c, 0, 83, 64
1, 1047452, Note_off_c, 0, 59, 61
1, 1047462, Note_off_c, 0, 64, 63
1, 1047463, Note_off_c, 0, 76, 65
1, 1047464, Note_off_c, 0, 88, 67
1, 1047471, Note_on_c, 0, 62, 9
1, 1047472, Note_off_c, 0, 62, 127
1, 1047549, Poly_aftertouch_c, 0, 62, 0
1, 1047653, Control_c, 0, 64, 64
1, 1047653, Control_c, 1, 64, 64
1, 1047673, Control_c, 1, 64, 21
1, 1047673, Control_c, 0, 64, 21
1, 1047685, Note_on_c, 0, 45, 89
1, 1047686, Note_on_c, 0, 33, 86
1, 1047691, Note_on_c, 0, 69, 88
1, 1047696, Note_on_c, 0, 57, 84
1, 1047711, Control_c, 0, 64, 45
1, 1047711, Control_c, 1, 64, 45
1, 1047728, Control_c, 1, 64, 89
1, 1047728, Control_c, 0, 64, 89
1, 1047747, Control_c, 0, 64, 127
1, 1047747, Control_c, 1, 64, 127
1, 1047750, Note_off_c, 0, 57, 60
1, 1047797, Note_off_c, 0, 69, 59
1, 1047811, Note_off_c, 0, 33, 59
1, 1047811, Poly_aftertouch_c, 0, 33, 0
1, 1047845, Note_off_c, 0, 45, 57
1, 1047915, Control_c, 0, 64, 85
1, 1047915, Control_c, 1, 64, 85
1, 1047934, Control_c, 1, 64, 48
1, 1047934, Control_c, 0, 64, 48
1, 1047949, Note_on_c, 0, 72, 97
1, 1047951, Control_c, 0, 64, 38
1, 1047951, Control_c, 1, 64, 38
1, 1047957, Note_on_c, 0, 60, 88
1, 1047960, Note_on_c, 0, 48, 88
1, 1047962, Note_on_c, 0, 36, 87
1, 1047971, Control_c, 0, 64, 56
1, 1047971, Control_c, 1, 64, 56
1, 1047990, Control_c, 1, 64, 98
1, 1047990, Control_c, 0, 64, 98
1, 1048008, Control_c, 0, 64, 127
1, 1048008, Control_c, 1, 64, 127
1, 1048047, Note_off_c, 0, 60, 60
1, 1048050, Note_off_c, 0, 36, 60
1, 1048064, Note_off_c, 0, 48, 56
1, 1048079, Note_off_c, 0, 72, 61
1, 1048236, Control_c, 0, 64, 89
1, 1048236, Control_c, 1, 64, 89
1, 1048251, Control_c, 1, 64, 35
1, 1048251, Control_c, 0, 64, 35
1, 1048253, Note_on_c, 0, 74, 97
1, 1048256, Note_on_c, 0, 62, 96
1, 1048262, Note_on_c, 0, 50, 95
1, 1048264, Note_on_c, 0, 38, 91
1, 1048270, Control_c, 0, 64, 0
1, 1048270, Control_c, 1, 64, 0
1, 1048328, Control_c, 1, 64, 37
1, 1048328, Control_c, 0, 64, 37
1, 1048346, Control_c, 0, 64, 101
1, 1048346, Control_c, 1, 64, 101
1, 1048365, Control_c, 1, 64, 127
1, 1048365, Control_c, 0, 64, 127
1, 1048457, Note_on_c, 0, 41, 64
1, 1048469, Note_off_c, 0, 62, 60
1, 1048471, Note_on_c, 0, 65, 72
1, 1048479, Note_off_c, 0, 50, 51
1, 1048493, Note_off_c, 0, 38, 57
1, 1048500, Note_on_c, 0, 45, 67
1, 1048530, Note_on_c, 0, 69, 69
1, 1048533, Note_off_c, 0, 65, 61
1, 1048573, Note_off_c, 0, 41, 61
1, 1048577, Note_off_c, 0, 45, 61
1, 1048580, Note_off_c, 0, 69, 60
1, 1048603, Note_off_c, 0, 74, 23
1, 1048603, Note_on_c, 0, 50, 74
1, 1048644, Note_on_c, 0, 74, 72
1, 1048660, Note_off_c, 0, 50, 63
1, 1048706, Note_on_c, 0, 77, 73
1, 1048716, Note_on_c, 0, 53, 72
1, 1048761, Note_on_c, 0, 81, 81
1, 1048772, Note_on_c, 0, 57, 69
1, 1048792, Note_off_c, 0, 74, 42
1, 1048800, Note_off_c, 0, 53, 60
1, 1048809, Note_on_c, 0, 86, 91
1, 1048811, Note_off_c, 0, 77, 62
1, 1048831, Note_on_c, 0, 62, 88
1, 1048838, Note_on_c, 0, 83, 26
1, 1048841, Note_off_c, 0, 57, 63
1, 1048843, Note_off_c, 0, 81, 63
1, 1048868, Note_off_c, 0, 86, 64
1, 1048883, Note_off_c, 0, 62, 64
1, 1048889, Note_off_c, 0, 83, 46
1, 1049057, Control_c, 0, 64, 79
1, 1049057, Control_c, 1, 64, 79
1, 1049073, Note_on_c, 0, 76, 97
1, 1049075, Control_c, 0, 64, 25
1, 1049075, Control_c, 1, 64, 25
1, 1049082, Note_on_c, 0, 52, 96
1, 1049083, Note_on_c, 0, 64, 93
1, 1049084, Note_on_c, 0, 40, 91
1, 1049094, Control_c, 0, 64, 0
1, 1049094, Control_c, 1, 64, 0
1, 1049152, Control_c, 1, 64, 41
1, 1049152, Control_c, 0, 64, 41
1, 1049157, Note_on_c, 0, 73, 8
1, 1049158, Note_off_c, 0, 73, 127
1, 1049171, Control_c, 0, 64, 91
1, 1049171, Control_c, 1, 64, 91
1, 1049188, Control_c, 1, 64, 127
1, 1049188, Control_c, 0, 64, 127
1, 1049255, Poly_aftertouch_c, 0, 73, 127
1, 1049261, Poly_aftertouch_c, 0, 73, 0
1, 1049271, Note_on_c, 0, 44, 69
1, 1049287, Note_off_c, 0, 52, 53
1, 1049297, Note_on_c, 0, 68, 70
1, 1049305, Note_on_c, 0, 47, 66
1, 1049309, Note_off_c, 0, 64, 61
1, 1049313, Note_off_c, 0, 40, 56
1, 1049343, Note_on_c, 0, 71, 69
1, 1049345, Note_off_c, 0, 68, 62
1, 1049369, Note_off_c, 0, 47, 60
1, 1049369, Note_off_c, 0, 44, 61
1, 1049378, Note_off_c, 0, 71, 65
1, 1049389, Note_off_c, 0, 76, 57
1, 1049396, Note_on_c, 0, 52, 76
1, 1049449, Note_off_c, 0, 52, 59
1, 1049453, Note_on_c, 0, 76, 64
1, 1049475, Note_on_c, 0, 77, 59
1, 1049513, Note_on_c, 0, 56, 76
1, 1049548, Note_on_c, 0, 80, 66
1, 1049577, Note_on_c, 0, 81, 58
1, 1049586, Note_on_c, 0, 83, 78
1, 1049592, Note_on_c, 0, 59, 74
1, 1049603, Note_off_c, 0, 80, 53
1, 1049604, Note_off_c, 0, 81, 63
1, 1049618, Note_off_c, 0, 56, 61
1, 1049620, Note_off_c, 0, 76, 60
1, 1049632, Note_on_c, 0, 88, 88
1, 1049640, Note_on_c, 0, 84, 32
1, 1049646, Note_off_c, 0, 77, 37
1, 1049654, Note_off_c, 0, 83, 64
1, 1049655, Note_on_c, 0, 64, 86
1, 1049665, Note_off_c, 0, 59, 58
1, 1049685, Note_off_c, 0, 84, 34
1, 1049690, Note_off_c, 0, 88, 67
1, 1049706, Note_off_c, 0, 64, 63
1, 1050002, Note_on_c, 0, 69, 96
1, 1050003, Note_on_c, 0, 57, 93
1, 1050009, Note_on_c, 0, 45, 95
1, 1050011, Control_c, 0, 64, 92
1, 1050011, Control_c, 1, 64, 92
1, 1050016, Note_on_c, 0, 33, 94
1, 1050032, Control_c, 0, 64, 38
1, 1050032, Control_c, 1, 64, 38
1, 1050050, Control_c, 1, 64, 0
1, 1050050, Control_c, 0, 64, 0
1, 1050124, Control_c, 0, 64, 41
1, 1050124, Control_c, 1, 64, 41
1, 1050142, Control_c, 1, 64, 92
1, 1050142, Control_c, 0, 64, 92
1, 1050162, Control_c, 0, 64, 127
1, 1050162, Control_c, 1, 64, 127
1, 1050325, Note_on_c, 0, 37, 63
1, 1050334, Note_on_c, 0, 61, 67
1, 1050349, Note_off_c, 0, 45, 52
1, 1050371, Note_on_c, 0, 40, 57
1, 1050374, Note_off_c, 0, 57, 58
1, 1050375, Note_off_c, 0, 69, 42
1, 1050377, Note_off_c, 0, 33, 47
1, 1050377, Poly_aftertouch_c, 0, 33, 0
1, 1050393, Note_on_c, 0, 64, 58
1, 1050408, Note_off_c, 0, 61, 61
1, 1050450, Note_off_c, 0, 37, 62
1, 1050460, Note_off_c, 0, 64, 62
1, 1050472, Note_off_c, 0, 40, 61
1, 1050476, Note_on_c, 0, 45, 75
1, 1050538, Note_on_c, 0, 69, 73
1, 1050546, Note_off_c, 0, 45, 63
1, 1050614, Note_on_c, 0, 49, 73
1, 1050642, Note_on_c, 0, 73, 73
1, 1050677, Note_on_c, 0, 76, 75
1, 1050682, Note_on_c, 0, 52, 71
1, 1050708, Note_off_c, 0, 69, 55
1, 1050731, Note_off_c, 0, 49, 62
1, 1050736, Note_on_c, 0, 81, 92
1, 1050748, Note_off_c, 0, 73, 62
1, 1050752, Note_on_c, 0, 57, 86
1, 1050762, Note_off_c, 0, 76, 64
1, 1050774, Note_off_c, 0, 52, 61
1, 1050794, Note_off_c, 0, 81, 62
1, 1050810, Note_off_c, 0, 57, 65
1, 1051023, Control_c, 0, 64, 95
1, 1051023, Control_c, 1, 64, 95
1, 1051043, Control_c, 1, 64, 50
1, 1051043, Control_c, 0, 64, 50
1, 1051060, Control_c, 0, 64, 0
1, 1051060, Control_c, 1, 64, 0
1, 1051089, Note_on_c, 0, 73, 98
1, 1051090, Note_on_c, 0, 61, 94
1, 1051093, Note_on_c, 0, 49, 96
1, 1051094, Note_on_c, 0, 37, 92
1, 1051116, Control_c, 0, 64, 27
1, 1051116, Control_c, 1, 64, 27
1, 1051135, Control_c, 1, 64, 73
1, 1051135, Control_c, 0, 64, 73
1, 1051155, Control_c, 0, 64, 127
1, 1051155, Control_c, 1, 64, 127
1, 1051223, Note_off_c, 0, 49, 60
1, 1051228, Note_off_c, 0, 61, 57
1, 1051243, Note_off_c, 0, 37, 60
1, 1051264, Note_off_c, 0, 73, 58
1, 1051306, Poly_aftertouch_c, 0, 39, 0
1, 1051379, Control_c, 0, 64, 98
1, 1051379, Control_c, 1, 64, 98
1, 1051396, Control_c, 1, 64, 57
1, 1051396, Control_c, 0, 64, 57
1, 1051405, Note_on_c, 0, 76, 99
1, 1051406, Note_on_c, 0, 64, 94
1, 1051410, Note_on_c, 0, 52, 97
1, 1051414, Note_on_c, 0, 40, 91
1, 1051414, Control_c, 0, 64, 36
1, 1051414, Control_c, 1, 64, 36
1, 1051435, Control_c, 1, 64, 48
1, 1051435, Control_c, 0, 64, 48
1, 1051454, Control_c, 0, 64, 79
1, 1051454, Control_c, 1, 64, 79
1, 1051462, Note_off_c, 0, 64, 64
1, 1051467, Note_off_c, 0, 52, 62
1, 1051469, Note_on_c, 0, 38, 18
1, 1051472, Control_c, 0, 64, 127
1, 1051472, Control_c, 1, 64, 127
1, 1051491, Note_off_c, 0, 40, 59
1, 1051520, Note_off_c, 0, 76, 64
1, 1051535, Note_off_c, 0, 38, 43
1, 1051801, Note_on_c, 0, 80, 101
1, 1051804, Note_on_c, 0, 68, 96
1, 1051808, Control_c, 0, 64, 58
1, 1051808, Control_c, 1, 64, 58
1, 1051809, Note_on_c, 0, 56, 101
1, 1051814, Note_on_c, 0, 44, 96
1, 1051827, Control_c, 0, 64, 0
1, 1051827, Control_c, 1, 64, 0
1, 1051899, Note_on_c, 0, 78, 19
1, 1051900, Note_off_c, 0, 78, 127
1, 1051922, Control_c, 0, 64, 10
1, 1051922, Control_c, 1, 64, 10
1, 1051940, Control_c, 1, 64, 105
1, 1051940, Control_c, 0, 64, 105
1, 1051959, Control_c, 0, 64, 127
1, 1051959, Control_c, 1, 64, 127
1, 1052006, Note_off_c, 0, 44, 60
1, 1052041, Note_off_c, 0, 68, 62
1, 1052058, Note_off_c, 0, 56, 60
1, 1052117, Note_off_c, 0, 80, 60
1, 1052241, Note_on_c, 0, 73, 80
1, 1052244, Note_on_c, 0, 49, 65
1, 1052279, Note_on_c, 0, 52, 68
1, 1052302, Note_on_c, 0, 76, 66
1, 1052321, Note_on_c, 0, 56, 71
1, 1052337, Note_off_c, 0, 73, 60
1, 1052364, Note_on_c, 0, 80, 80
1, 1052375, Note_off_c, 0, 49, 62
1, 1052380, Note_off_c, 0, 76, 63
1, 1052400, Note_off_c, 0, 52, 60
1, 1052410, Note_on_c, 0, 61, 83
1, 1052427, Note_off_c, 0, 56, 58
1, 1052428, Note_off_c, 0, 80, 66
1, 1052466, Note_off_c, 0, 61, 64
1, 1052486, Note_on_c, 0, 85, 80
1, 1052550, Note_on_c, 0, 64, 73
1, 1052589, Note_on_c, 0, 88, 77
1, 1052616, Note_on_c, 0, 92, 89
1, 1052624, Note_on_c, 0, 68, 84
1, 1052638, Note_off_c, 0, 64, 59
1, 1052639, Note_off_c, 0, 85, 65
1, 1052654, Note_on_c, 0, 97, 95
1, 1052666, Note_off_c, 0, 88, 64
1, 1052682, Note_on_c, 0, 73, 94
1, 1052686, Note_off_c, 0, 68, 61
1, 1052693, Note_off_c, 0, 92, 66
1, 1052710, Note_off_c, 0, 97, 68
1, 1052740, Note_off_c, 0, 73, 68
1, 1052894, Control_c, 0, 64, 101
1, 1052894, Control_c, 1, 64, 101
1, 1052914, Control_c, 1, 64, 53
1, 1052914, Control_c, 0, 64, 53
1, 1052931, Note_on_c, 0, 81, 87
1, 1052931, Control_c, 0, 64, 25
1, 1052931, Control_c, 1, 64, 25
1, 1052935, Note_on_c, 0, 69, 85
1, 1052939, Note_on_c, 0, 57, 90
1, 1052945, Note_on_c, 0, 45, 87
1, 1052949, Control_c, 0, 64, 38
1, 1052949, Control_c, 1, 64, 38
1, 1052971, Control_c, 1, 64, 69
1, 1052971, Control_c, 0, 64, 69
1, 1052974, Note_on_c, 0, 79, 47
1, 1052975, Note_off_c, 0, 79, 127
1, 1052989, Control_c, 0, 64, 127
1, 1052989, Control_c, 1, 64, 127
1, 1052994, Note_off_c, 0, 57, 66
1, 1053004, Note_off_c, 0, 69, 60
1, 1053011, Note_off_c, 0, 45, 63
1, 1053017, Note_off_c, 0, 81, 63
1, 1053067, Poly_aftertouch_c, 0, 43, 127
1, 1053086, Poly_aftertouch_c, 0, 43, 0
1, 1053195, Control_c, 0, 64, 102
1, 1053195, Control_c, 1, 64, 102
1, 1053212, Control_c, 1, 64, 62
1, 1053212, Control_c, 0, 64, 62
1, 1053214, Note_on_c, 0, 76, 96
1, 1053214, Note_on_c, 0, 52, 90
1, 1053218, Note_on_c, 0, 64, 91
1, 1053222, Note_on_c, 0, 40, 86
1, 1053231, Control_c, 0, 64, 50
1, 1053231, Control_c, 1, 64, 50
1, 1053251, Control_c, 1, 64, 68
1, 1053251, Control_c, 0, 64, 68
1, 1053268, Control_c, 0, 64, 121
1, 1053268, Control_c, 1, 64, 121
1, 1053277, Note_off_c, 0, 64, 64
1, 1053286, Note_off_c, 0, 52, 61
1, 1053286, Control_c, 0, 64, 127
1, 1053286, Control_c, 1, 64, 127
1, 1053297, Note_off_c, 0, 76, 62
1, 1053298, Note_off_c, 0, 40, 61
1, 1053341, Poly_aftertouch_c, 0, 42, 127
1, 1053365, Poly_aftertouch_c, 0, 42, 0
1, 1053552, Note_on_c, 0, 73, 96
1, 1053554, Note_on_c, 0, 61, 95
1, 1053567, Control_c, 0, 64, 81
1, 1053567, Control_c, 1, 64, 81
1, 1053569, Note_on_c, 0, 49, 95
1, 1053572, Note_on_c, 0, 37, 91
1, 1053588, Control_c, 0, 64, 25
1, 1053588, Control_c, 1, 64, 25
1, 1053606, Control_c, 1, 64, 0
1, 1053606, Control_c, 0, 64, 0
1, 1053634, Note_on_c, 0, 39, 18
1, 1053663, Control_c, 0, 64, 37
1, 1053663, Control_c, 1, 64, 37
1, 1053682, Control_c, 1, 64, 114
1, 1053682, Control_c, 0, 64, 114
1, 1053700, Control_c, 0, 64, 127
1, 1053700, Control_c, 1, 64, 127
1, 1053728, Note_off_c, 0, 39, 42
1, 1053742, Note_off_c, 0, 37, 63
1, 1053766, Note_off_c, 0, 61, 58
1, 1053796, Note_off_c, 0, 49, 59
1, 1053860, Note_off_c, 0, 73, 57
1, 1053985, Note_on_c, 0, 66, 75
1, 1054004, Note_on_c, 0, 42, 59
1, 1054031, Note_on_c, 0, 45, 65
1, 1054050, Note_on_c, 0, 69, 63
1, 1054059, Note_on_c, 0, 49, 71
1, 1054060, Note_off_c, 0, 66, 63
1, 1054113, Note_on_c, 0, 73, 80
1, 1054115, Note_off_c, 0, 69, 60
1, 1054122, Note_off_c, 0, 42, 61
1, 1054144, Note_off_c, 0, 45, 61
1, 1054145, Note_on_c, 0, 54, 85
1, 1054163, Note_off_c, 0, 49, 63
1, 1054168, Note_off_c, 0, 73, 65
1, 1054204, Note_off_c, 0, 54, 64
1, 1054225, Note_on_c, 0, 78, 79
1, 1054290, Note_on_c, 0, 57, 70
1, 1054310, Note_on_c, 0, 80, 62
1, 1054334, Note_on_c, 0, 81, 76
1, 1054340, Note_off_c, 0, 80, 55
1, 1054356, Note_off_c, 0, 57, 59
1, 1054359, Note_on_c, 0, 85, 88
1, 1054371, Note_on_c, 0, 61, 80
1, 1054388, Note_off_c, 0, 78, 62
1, 1054397, Note_on_c, 0, 90, 95
1, 1054403, Note_off_c, 0, 81, 62
1, 1054417, Note_on_c, 0, 66, 93
1, 1054436, Note_off_c, 0, 85, 67
1, 1054438, Note_off_c, 0, 61, 62
1, 1054454, Note_off_c, 0, 90, 67
1, 1054467, Note_off_c, 0, 66, 66
1, 1054636, Control_c, 0, 64, 84
1, 1054636, Control_c, 1, 64, 84
1, 1054654, Control_c, 1, 64, 38
1, 1054654, Control_c, 0, 64, 38
1, 1054672, Note_on_c, 0, 74, 92
1, 1054672, Note_on_c, 0, 50, 94
1, 1054672, Control_c, 0, 64, 13
1, 1054672, Control_c, 1, 64, 13
1, 1054678, Note_on_c, 0, 62, 87
1, 1054679, Note_on_c, 0, 38, 90
1, 1054692, Control_c, 0, 64, 30
1, 1054692, Control_c, 1, 64, 30
1, 1054710, Control_c, 1, 64, 69
1, 1054710, Control_c, 0, 64, 69
1, 1054729, Control_c, 0, 64, 127
1, 1054729, Control_c, 1, 64, 127
1, 1054746, Note_off_c, 0, 62, 61
1, 1054770, Note_off_c, 0, 50, 58
1, 1054774, Note_off_c, 0, 38, 62
1, 1054775, Note_off_c, 0, 74, 62
1, 1054916, Control_c, 0, 64, 67
1, 1054916, Control_c, 1, 64, 67
1, 1054936, Control_c, 1, 64, 20
1, 1054936, Control_c, 0, 64, 20
1, 1054954, Note_on_c, 0, 78, 99
1, 1054957, Note_on_c, 0, 66, 97
1, 1054967, Note_on_c, 0, 54, 96
1, 1054969, Note_on_c, 0, 42, 86
1, 1054991, Control_c, 0, 64, 66
1, 1054991, Control_c, 1, 64, 66
1, 1055010, Control_c, 1, 64, 127
1, 1055010, Control_c, 0, 64, 127
1, 1055089, Poly_aftertouch_c, 0, 44, 0
1, 1055144, Note_off_c, 0, 66, 59
1, 1055161, Note_off_c, 0, 54, 61
1, 1055169, Note_off_c, 0, 42, 60
1, 1055174, Note_off_c, 0, 78, 60
1, 1055290, Control_c, 0, 64, 85
1, 1055290, Control_c, 1, 64, 85
1, 1055302, Note_on_c, 0, 78, 95
1, 1055307, Note_on_c, 0, 66, 97
1, 1055308, Control_c, 0, 64, 26
1, 1055308, Control_c, 1, 64, 26
1, 1055313, Note_on_c, 0, 54, 94
1, 1055315, Note_on_c, 0, 42, 92
1, 1055329, Control_c, 0, 64, 0
1, 1055329, Control_c, 1, 64, 0
1, 1055365, Control_c, 1, 64, 9
1, 1055365, Control_c, 0, 64, 9
1, 1055384, Control_c, 0, 64, 59
1, 1055384, Control_c, 1, 64, 59
1, 1055403, Control_c, 1, 64, 127
1, 1055403, Control_c, 0, 64, 127
1, 1055479, Note_off_c, 0, 42, 60
1, 1055485, Note_off_c, 0, 66, 58
1, 1055512, Note_off_c, 0, 54, 60
1, 1055549, Note_off_c, 0, 78, 57
1, 1055689, Note_on_c, 0, 71, 69
1, 1055709, Note_on_c, 0, 47, 63
1, 1055748, Note_on_c, 0, 50, 73
1, 1055753, Note_on_c, 0, 74, 66
1, 1055778, Note_off_c, 0, 71, 56
1, 1055783, Note_on_c, 0, 54, 69
1, 1055813, Note_on_c, 0, 78, 80
1, 1055822, Note_off_c, 0, 74, 61
1, 1055838, Note_off_c, 0, 47, 58
1, 1055857, Note_off_c, 0, 50, 62
1, 1055871, Note_on_c, 0, 59, 76
1, 1055872, Note_off_c, 0, 54, 66
1, 1055874, Note_off_c, 0, 78, 66
1, 1055921, Note_on_c, 0, 83, 81
1, 1055931, Note_off_c, 0, 59, 64
1, 1056000, Note_on_c, 0, 86, 71
1, 1056007, Note_on_c, 0, 62, 69
1, 1056065, Note_on_c, 0, 90, 85
1, 1056077, Note_off_c, 0, 83, 55
1, 1056081, Note_off_c, 0, 62, 57
1, 1056094, Note_on_c, 0, 66, 81
1, 1056104, Note_on_c, 0, 92, 64
1, 1056105, Note_off_c, 0, 86, 64
1, 1056107, Note_on_c, 0, 95, 90
1, 1056132, Note_off_c, 0, 92, 65
1, 1056142, Note_on_c, 0, 71, 82
1, 1056145, Note_off_c, 0, 90, 67
1, 1056150, Note_off_c, 0, 66, 60
1, 1056174, Note_off_c, 0, 95, 68
1, 1056193, Note_off_c, 0, 71, 65
1, 1056203, Poly_aftertouch_c, 0, 91, 0
1, 1056339, Control_c, 0, 64, 96
1, 1056339, Control_c, 1, 64, 96
1, 1056358, Control_c, 1, 64, 56
1, 1056358, Control_c, 0, 64, 56
1, 1056377, Control_c, 0, 64, 40
1, 1056377, Control_c, 1, 64, 40
1, 1056386, Note_on_c, 0, 79, 93
1, 1056391, Note_on_c, 0, 55, 88
1, 1056396, Note_on_c, 0, 67, 86
1, 1056396, Control_c, 0, 64, 53
1, 1056396, Control_c, 1, 64, 53
1, 1056401, Note_on_c, 0, 43, 89
1, 1056415, Control_c, 0, 64, 74
1, 1056415, Control_c, 1, 64, 74
1, 1056432, Control_c, 1, 64, 127
1, 1056432, Control_c, 0, 64, 127
1, 1056452, Note_off_c, 0, 55, 64
1, 1056493, Note_off_c, 0, 67, 40
1, 1056494, Note_off_c, 0, 79, 61
1, 1056537, Poly_aftertouch_c, 0, 46, 127
1, 1056559, Note_off_c, 0, 43, 61
1, 1056599, Poly_aftertouch_c, 0, 46, 0
1, 1056658, Control_c, 0, 64, 69
1, 1056658, Control_c, 1, 64, 69
1, 1056675, Control_c, 1, 64, 36
1, 1056675, Control_c, 0, 64, 36
1, 1056679, Note_on_c, 0, 74, 95
1, 1056683, Note_on_c, 0, 62, 91
1, 1056684, Note_on_c, 0, 50, 88
1, 1056693, Control_c, 0, 64, 28
1, 1056693, Control_c, 1, 64, 28
1, 1056701, Note_on_c, 0, 38, 75
1, 1056707, Note_on_c, 0, 36, 76
1, 1056712, Control_c, 0, 64, 41
1, 1056712, Control_c, 1, 64, 41
1, 1056732, Control_c, 1, 64, 77
1, 1056732, Control_c, 0, 64, 77
1, 1056737, Note_off_c, 0, 36, 60
1, 1056750, Control_c, 0, 64, 127
1, 1056750, Control_c, 1, 64, 127
1, 1056837, Note_off_c, 0, 74, 61
1, 1056850, Note_off_c, 0, 62, 60
1, 1056853, Note_off_c, 0, 50, 61
1, 1056887, Note_off_c, 0, 38, 59
1, 1057028, Note_on_c, 0, 71, 95
1, 1057030, Note_on_c, 0, 47, 95
1, 1057031, Control_c, 0, 64, 102
1, 1057031, Control_c, 1, 64, 102
1, 1057033, Note_on_c, 0, 35, 95
1, 1057036, Note_on_c, 0, 59, 89
1, 1057051, Control_c, 0, 64, 47
1, 1057051, Control_c, 1, 64, 47
1, 1057070, Control_c, 1, 64, 0
1, 1057070, Control_c, 0, 64, 0
1, 1057125, Control_c, 0, 64, 26
1, 1057125, Control_c, 1, 64, 26
1, 1057144, Control_c, 1, 64, 91
1, 1057144, Control_c, 0, 64, 91
1, 1057162, Control_c, 0, 64, 127
1, 1057162, Control_c, 1, 64, 127
1, 1057199, Note_off_c, 0, 35, 61
1, 1057200, Note_off_c, 0, 59, 59
1, 1057241, Note_off_c, 0, 71, 58
1, 1057252, Note_off_c, 0, 47, 62
1, 1057406, Poly_aftertouch_c, 0, 66, 0
1, 1057429, Poly_aftertouch_c, 0, 44, 0
1, 1057446, Note_on_c, 0, 64, 73
1, 1057465, Note_on_c, 0, 40, 64
1, 1057480, Note_on_c, 0, 43, 65
1, 1057522, Note_on_c, 0, 67, 73
1, 1057524, Note_off_c, 0, 64, 60
1, 1057529, Note_on_c, 0, 47, 64
1, 1057564, Note_off_c, 0, 40, 54
1, 1057570, Note_on_c, 0, 71, 73
1, 1057576, Note_off_c, 0, 67, 60
1, 1057579, Note_off_c, 0, 43, 62
1, 1057608, Note_on_c, 0, 52, 75
1, 1057609, Note_off_c, 0, 47, 63
1, 1057614, Note_off_c, 0, 71, 62
1, 1057664, Note_off_c, 0, 52, 60
1, 1057675, Note_on_c, 0, 76, 82
1, 1057731, Note_on_c, 0, 55, 75
1, 1057733, Poly_aftertouch_c, 0, 72, 0
1, 1057743, Note_on_c, 0, 79, 79
1, 1057786, Note_on_c, 0, 59, 72
1, 1057796, Note_on_c, 0, 83, 87
1, 1057798, Note_off_c, 0, 76, 58
1, 1057816, Note_off_c, 0, 55, 61
1, 1057828, Note_on_c, 0, 88, 97
1, 1057830, Note_off_c, 0, 79, 64
1, 1057836, Note_on_c, 0, 84, 66
1, 1057846, Note_on_c, 0, 64, 88
1, 1057867, Note_off_c, 0, 84, 68
1, 1057875, Note_off_c, 0, 59, 56
1, 1057876, Note_off_c, 0, 83, 64
1, 1057897, Note_off_c, 0, 88, 67
1, 1057900, Note_off_c, 0, 64, 64
1, 1058061, Control_c, 0, 64, 86
1, 1058061, Control_c, 1, 64, 86
1, 1058080, Control_c, 1, 64, 41
1, 1058080, Control_c, 0, 64, 41
1, 1058097, Note_on_c, 0, 48, 92
1, 1058097, Control_c, 0, 64, 11
1, 1058097, Control_c, 1, 64, 11
1, 1058098, Note_on_c, 0, 36, 92
1, 1058099, Note_on_c, 0, 72, 95
1, 1058104, Note_on_c, 0, 60, 90
1, 1058117, Control_c, 0, 64, 23
1, 1058117, Control_c, 1, 64, 23
1, 1058136, Control_c, 1, 64, 57
1, 1058136, Control_c, 0, 64, 57
1, 1058154, Control_c, 0, 64, 127
1, 1058154, Control_c, 1, 64, 127
1, 1058230, Note_off_c, 0, 60, 59
1, 1058241, Poly_aftertouch_c, 0, 70, 127
1, 1058246, Note_off_c, 0, 36, 60
1, 1058252, Poly_aftertouch_c, 0, 70, 0
1, 1058269, Note_off_c, 0, 72, 60
1, 1058271, Note_off_c, 0, 48, 58
1, 1058361, Control_c, 0, 64, 105
1, 1058361, Control_c, 1, 64, 105
1, 1058379, Control_c, 1, 64, 65
1, 1058379, Control_c, 0, 64, 65
1, 1058396, Control_c, 0, 64, 50
1, 1058396, Control_c, 1, 64, 50
1, 1058398, Note_on_c, 0, 76, 96
1, 1058401, Note_on_c, 0, 64, 92
1, 1058405, Note_on_c, 0, 52, 96
1, 1058411, Note_on_c, 0, 40, 90
1, 1058416, Control_c, 0, 64, 62
1, 1058416, Control_c, 1, 64, 62
1, 1058435, Control_c, 1, 64, 92
1, 1058435, Control_c, 0, 64, 92
1, 1058455, Control_c, 0, 64, 127
1, 1058455, Control_c, 1, 64, 127
1, 1058536, Poly_aftertouch_c, 0, 42, 127
1, 1058573, Poly_aftertouch_c, 0, 42, 0
1, 1058628, Note_off_c, 0, 64, 60
1, 1058649, Note_off_c, 0, 52, 55
1, 1058650, Note_off_c, 0, 76, 51
1, 1058655, Note_off_c, 0, 40, 56
1, 1058753, Control_c, 0, 64, 57
1, 1058753, Control_c, 1, 64, 57
1, 1058761, Note_on_c, 0, 76, 101
1, 1058762, Note_on_c, 0, 64, 95
1, 1058766, Note_on_c, 0, 52, 101
1, 1058772, Control_c, 0, 64, 0
1, 1058772, Control_c, 1, 64, 0
1, 1058776, Note_on_c, 0, 40, 88
1, 1058827, Control_c, 0, 64, 43
1, 1058827, Control_c, 1, 64, 43
1, 1058848, Control_c, 1, 64, 127
1, 1058848, Control_c, 0, 64, 127
1, 1058852, Note_on_c, 0, 69, 24
1, 1058853, Note_off_c, 0, 69, 127
1, 1059084, Note_on_c, 0, 69, 75
1, 1059087, Note_off_c, 0, 40, 47
1, 1059088, Note_off_c, 0, 52, 46
1, 1059092, Note_off_c, 0, 64, 46
1, 1059110, Note_on_c, 0, 45, 61
1, 1059131, Note_on_c, 0, 48, 62
1, 1059136, Note_off_c, 0, 76, 53
1, 1059147, Note_off_c, 0, 69, 57
1, 1059149, Note_on_c, 0, 72, 69
1, 1059182, Note_off_c, 0, 45, 60
1, 1059206, Note_off_c, 0, 48, 61
1, 1059208, Note_off_c, 0, 72, 58
1, 1059208, Poly_aftertouch_c, 0, 65, 0
1, 1059222, Note_on_c, 0, 52, 71
1, 1059264, Note_on_c, 0, 76, 84
1, 1059285, Note_off_c, 0, 52, 63
1, 1059357, Note_on_c, 0, 57, 67
1, 1059372, Note_off_c, 0, 76, 55
1, 1059377, Note_on_c, 0, 81, 80
1, 1059439, Note_off_c, 0, 57, 62
1, 1059439, Note_on_c, 0, 84, 64
1, 1059443, Note_on_c, 0, 60, 60
1, 1059446, Note_off_c, 0, 81, 62
1, 1059458, Note_on_c, 0, 83, 43
1, 1059465, Control_c, 0, 64, 65
1, 1059465, Control_c, 1, 64, 65
1, 1059483, Control_c, 1, 64, 30
1, 1059483, Control_c, 0, 64, 30
1, 1059487, Note_on_c, 0, 77, 97
1, 1059487, Note_on_c, 0, 89, 95
1, 1059495, Note_off_c, 0, 60, 64
1, 1059496, Note_on_c, 0, 65, 89
1, 1059498, Note_off_c, 0, 83, 40
1, 1059512, Note_off_c, 0, 84, 64
1, 1059515, Note_on_c, 0, 82, 37
1, 1059520, Control_c, 0, 64, 55
1, 1059520, Control_c, 1, 64, 55
1, 1059527, Note_off_c, 0, 82, 127
1, 1059536, Note_on_c, 0, 85, 37
1, 1059537, Note_off_c, 0, 85, 127
1, 1059538, Control_c, 0, 64, 127
1, 1059538, Control_c, 1, 64, 127
1, 1059542, Note_off_c, 0, 77, 62
1, 1059543, Note_off_c, 0, 89, 64
1, 1059546, Note_off_c, 0, 65, 65
1, 1059764, Control_c, 0, 64, 106
1, 1059764, Control_c, 1, 64, 106
1, 1059773, Note_on_c, 0, 46, 97
1, 1059776, Note_on_c, 0, 70, 91
1, 1059776, Note_on_c, 0, 34, 96
1, 1059782, Control_c, 0, 64, 64
1, 1059782, Control_c, 1, 64, 64
1, 1059784, Note_on_c, 0, 58, 91
1, 1059821, Control_c, 0, 64, 105
1, 1059821, Control_c, 1, 64, 105
1, 1059838, Control_c, 1, 64, 127
1, 1059838, Control_c, 0, 64, 127
1, 1059843, Note_off_c, 0, 46, 64
1, 1059851, Note_off_c, 0, 58, 63
1, 1059864, Note_off_c, 0, 34, 63
1, 1059888, Note_off_c, 0, 70, 59
1, 1059889, Poly_aftertouch_c, 0, 68, 127
1, 1059935, Poly_aftertouch_c, 0, 68, 0
1, 1060008, Control_c, 0, 64, 107
1, 1060008, Control_c, 1, 64, 107
1, 1060026, Control_c, 1, 64, 65
1, 1060026, Control_c, 0, 64, 65
1, 1060045, Control_c, 0, 64, 50
1, 1060045, Control_c, 1, 64, 50
1, 1060051, Note_on_c, 0, 62, 95
1, 1060054, Note_on_c, 0, 74, 97
1, 1060056, Note_on_c, 0, 50, 92
1, 1060061, Note_on_c, 0, 38, 92
1, 1060065, Control_c, 0, 64, 64
1, 1060065, Control_c, 1, 64, 64
1, 1060083, Control_c, 1, 64, 102
1, 1060083, Control_c, 0, 64, 102
1, 1060100, Control_c, 0, 64, 127
1, 1060100, Control_c, 1, 64, 127
1, 1060113, Note_off_c, 0, 62, 62
1, 1060117, Note_off_c, 0, 50, 62
1, 1060126, Note_off_c, 0, 38, 62
1, 1060151, Note_off_c, 0, 74, 60
1, 1060401, Note_on_c, 0, 63, 101
1, 1060401, Control_c, 0, 64, 99
1, 1060401, Control_c, 1, 64, 99
1, 1060402, Note_on_c, 0, 75, 99
1, 1060418, Note_on_c, 0, 51, 96
1, 1060420, Control_c, 0, 64, 45
1, 1060420, Control_c, 1, 64, 45
1, 1060421, Note_on_c, 0, 39, 89
1, 1060437, Control_c, 0, 64, 0
1, 1060437, Control_c, 1, 64, 0
1, 1060494, Control_c, 1, 64, 11
1, 1060494, Control_c, 0, 64, 11
1, 1060513, Control_c, 0, 64, 67
1, 1060513, Control_c, 1, 64, 67
1, 1060533, Control_c, 1, 64, 127
1, 1060533, Control_c, 0, 64, 127
1, 1060720, Note_off_c, 0, 51, 57
1, 1060731, Note_on_c, 0, 44, 67
1, 1060733, Note_on_c, 0, 68, 71
1, 1060747, Note_off_c, 0, 39, 54
1, 1060753, Note_off_c, 0, 63, 62
1, 1060764, Note_on_c, 0, 47, 63
1, 1060787, Note_off_c, 0, 75, 61
1, 1060792, Note_on_c, 0, 71, 79
1, 1060815, Note_off_c, 0, 68, 64
1, 1060830, Note_off_c, 0, 71, 64
1, 1060838, Note_off_c, 0, 44, 60
1, 1060844, Note_on_c, 0, 51, 82
1, 1060853, Note_off_c, 0, 47, 63
1, 1060898, Note_off_c, 0, 51, 60
1, 1060923, Note_on_c, 0, 75, 73
1, 1060987, Note_on_c, 0, 56, 70
1, 1061027, Note_on_c, 0, 80, 68
1, 1061057, Note_off_c, 0, 75, 60
1, 1061062, Note_on_c, 0, 83, 74
1, 1061066, Note_on_c, 0, 59, 80
1, 1061112, Control_c, 0, 64, 64
1, 1061112, Control_c, 1, 64, 64
1, 1061124, Note_off_c, 0, 56, 61
1, 1061125, Note_off_c, 0, 80, 62
1, 1061128, Note_on_c, 0, 88, 93
1, 1061130, Control_c, 0, 64, 32
1, 1061130, Control_c, 1, 64, 32
1, 1061136, Note_on_c, 0, 76, 85
1, 1061149, Control_c, 0, 64, 44
1, 1061149, Control_c, 1, 64, 44
1, 1061150, Note_on_c, 0, 64, 90
1, 1061164, Note_on_c, 0, 77, 57
1, 1061165, Note_off_c, 0, 77, 127
1, 1061168, Note_off_c, 0, 83, 65
1, 1061168, Control_c, 0, 64, 85
1, 1061168, Control_c, 1, 64, 85
1, 1061177, Note_off_c, 0, 59, 61
1, 1061187, Control_c, 0, 64, 127
1, 1061187, Control_c, 1, 64, 127
1, 1061189, Note_off_c, 0, 88, 68
1, 1061193, Note_off_c, 0, 76, 64
1, 1061200, Note_off_c, 0, 64, 65
1, 1061411, Control_c, 0, 64, 80
1, 1061411, Control_c, 1, 64, 80
1, 1061430, Control_c, 1, 64, 40
1, 1061430, Control_c, 0, 64, 40
1, 1061448, Note_on_c, 0, 45, 81
1, 1061448, Note_on_c, 0, 69, 89
1, 1061448, Control_c, 0, 64, 13
1, 1061448, Control_c, 1, 64, 13
1, 1061458, Note_on_c, 0, 33, 81
1, 1061460, Note_on_c, 0, 57, 75
1, 1061467, Control_c, 0, 64, 20
1, 1061467, Control_c, 1, 64, 20
1, 1061487, Control_c, 1, 64, 50
1, 1061487, Control_c, 0, 64, 50
1, 1061504, Control_c, 0, 64, 112
1, 1061504, Control_c, 1, 64, 112
1, 1061523, Control_c, 1, 64, 127
1, 1061523, Control_c, 0, 64, 127
1, 1061553, Note_off_c, 0, 57, 56
1, 1061578, Note_off_c, 0, 69, 56
1, 1061588, Note_off_c, 0, 33, 59
1, 1061588, Poly_aftertouch_c, 0, 33, 0
1, 1061610, Note_off_c, 0, 45, 59
1, 1061711, Control_c, 0, 64, 75
1, 1061711, Control_c, 1, 64, 75
1, 1061730, Control_c, 1, 64, 45
1, 1061730, Control_c, 0, 64, 45
1, 1061742, Note_on_c, 0, 72, 92
1, 1061747, Note_on_c, 0, 60, 83
1, 1061750, Note_on_c, 0, 48, 86
1, 1061750, Control_c, 0, 64, 43
1, 1061750, Control_c, 1, 64, 43
1, 1061765, Note_on_c, 0, 36, 75
1, 1061768, Control_c, 0, 64, 63
1, 1061768, Control_c, 1, 64, 63
1, 1061771, Note_on_c, 0, 38, 63
1, 1061786, Control_c, 0, 64, 108
1, 1061786, Control_c, 1, 64, 108
1, 1061805, Control_c, 1, 64, 127
1, 1061805, Control_c, 0, 64, 127
1, 1061893, Note_off_c, 0, 60, 59
1, 1061900, Note_off_c, 0, 36, 60
1, 1061901, Note_off_c, 0, 48, 60
1, 1061905, Note_off_c, 0, 38, 59
1, 1061911, Note_off_c, 0, 72, 59
1, 1062047, Control_c, 0, 64, 85
1, 1062047, Control_c, 1, 64, 85
1, 1062067, Control_c, 1, 64, 28
1, 1062067, Control_c, 0, 64, 28
1, 1062075, Note_on_c, 0, 74, 98
1, 1062077, Note_on_c, 0, 62, 96
1, 1062083, Note_on_c, 0, 50, 92
1, 1062087, Control_c, 0, 64, 0
1, 1062087, Control_c, 1, 64, 0
1, 1062088, Note_on_c, 0, 38, 89
1, 1062142, Control_c, 0, 64, 38
1, 1062142, Control_c, 1, 64, 38
1, 1062161, Control_c, 1, 64, 104
1, 1062161, Control_c, 0, 64, 104
1, 1062178, Control_c, 0, 64, 127
1, 1062178, Control_c, 1, 64, 127
1, 1062330, Note_off_c, 0, 62, 51
1, 1062339, Note_off_c, 0, 50, 55
1, 1062342, Note_on_c, 0, 65, 67
1, 1062344, Note_off_c, 0, 38, 55
1, 1062350, Note_on_c, 0, 41, 63
1, 1062369, Note_on_c, 0, 45, 69
1, 1062371, Note_off_c, 0, 74, 38
1, 1062376, Note_off_c, 0, 65, 64
1, 1062392, Note_on_c, 0, 69, 73
1, 1062422, Note_off_c, 0, 69, 64
1, 1062437, Note_off_c, 0, 41, 60
1, 1062438, Note_off_c, 0, 45, 59
1, 1062451, Note_on_c, 0, 50, 77
1, 1062499, Note_on_c, 0, 74, 86
1, 1062505, Note_off_c, 0, 50, 64
1, 1062562, Note_on_c, 0, 53, 79
1, 1062573, Note_on_c, 0, 77, 80
1, 1062621, Note_on_c, 0, 57, 71
1, 1062621, Note_on_c, 0, 81, 82
1, 1062623, Note_off_c, 0, 74, 59
1, 1062660, Note_off_c, 0, 77, 63
1, 1062669, Note_off_c, 0, 53, 60
1, 1062670, Note_on_c, 0, 86, 93
1, 1062682, Note_on_c, 0, 62, 90
1, 1062689, Note_on_c, 0, 83, 38
1, 1062711, Note_off_c, 0, 81, 63
1, 1062722, Note_off_c, 0, 57, 61
1, 1062730, Note_off_c, 0, 83, 36
1, 1062741, Note_off_c, 0, 62, 65
1, 1062743, Note_off_c, 0, 86, 63
1, 1062928, Control_c, 0, 64, 87
1, 1062928, Control_c, 1, 64, 87
1, 1062946, Control_c, 1, 64, 39
1, 1062946, Note_on_c, 0, 76, 100
1, 1062946, Control_c, 0, 64, 39
1, 1062947, Note_on_c, 0, 52, 91
1, 1062950, Note_on_c, 0, 64, 100
1, 1062954, Note_on_c, 0, 38, 86
1, 1062962, Note_on_c, 0, 40, 79
1, 1062965, Control_c, 0, 64, 0
1, 1062965, Control_c, 1, 64, 0
1, 1062971, Note_on_c, 0, 50, 68
1, 1062993, Note_off_c, 0, 38, 68
1, 1062999, Note_on_c, 0, 73, 44
1, 1063004, Note_off_c, 0, 50, 42
1, 1063021, Control_c, 0, 64, 32
1, 1063021, Control_c, 1, 64, 32
1, 1063033, Note_off_c, 0, 73, 37
1, 1063040, Control_c, 0, 64, 73
1, 1063040, Control_c, 1, 64, 73
1, 1063059, Control_c, 1, 64, 127
1, 1063059, Control_c, 0, 64, 127
1, 1063183, Note_on_c, 0, 44, 65
1, 1063204, Note_off_c, 0, 52, 54
1, 1063204, Note_on_c, 0, 68, 71
1, 1063210, Note_on_c, 0, 47, 60
1, 1063223, Note_off_c, 0, 64, 61
1, 1063245, Note_off_c, 0, 40, 53
1, 1063251, Note_on_c, 0, 71, 65
1, 1063253, Note_off_c, 0, 68, 63
1, 1063258, Note_off_c, 0, 76, 53
1, 1063291, Note_off_c, 0, 44, 61
1, 1063297, Note_off_c, 0, 47, 62
1, 1063299, Note_off_c, 0, 71, 63
1, 1063304, Note_on_c, 0, 52, 73
1, 1063367, Note_on_c, 0, 76, 77
1, 1063369, Note_off_c, 0, 52, 63
1, 1063425, Note_on_c, 0, 56, 73
1, 1063454, Note_on_c, 0, 80, 80
1, 1063484, Note_on_c, 0, 59, 75
1, 1063491, Note_on_c, 0, 83, 80
1, 1063521, Note_off_c, 0, 76, 59
1, 1063529, Note_on_c, 0, 88, 92
1, 1063533, Note_off_c, 0, 56, 62
1, 1063539, Note_off_c, 0, 80, 64
1, 1063549, Note_on_c, 0, 84, 50
1, 1063551, Note_on_c, 0, 64, 88
1, 1063577, Note_off_c, 0, 83, 64
1, 1063578, Note_off_c, 0, 84, 59
1, 1063593, Note_off_c, 0, 59, 61
1, 1063594, Note_off_c, 0, 88, 65
1, 1063614, Note_off_c, 0, 64, 63
1, 1063935, Note_on_c, 0, 69, 91
1, 1063935, Note_on_c, 0, 57, 94
1, 1063939, Note_on_c, 0, 45, 99
1, 1063944, Note_on_c, 0, 33, 97
1, 1063977, Control_c, 0, 64, 74
1, 1063977, Control_c, 1, 64, 74
1, 1063983, Note_on_c, 0, 60, 36
1, 1063984, Note_on_c, 0, 66, 56
1, 1063994, Control_c, 0, 64, 18
1, 1063994, Control_c, 1, 64, 18
1, 1064014, Control_c, 1, 64, 0
1, 1064014, Control_c, 0, 64, 0
1, 1064031, Note_off_c, 0, 60, 33
1, 1064032, Note_off_c, 0, 66, 48
1, 1064069, Control_c, 0, 64, 22
1, 1064069, Control_c, 1, 64, 22
1, 1064089, Control_c, 1, 64, 70
1, 1064089, Control_c, 0, 64, 70
1, 1064107, Control_c, 0, 64, 127
1, 1064107, Control_c, 1, 64, 127
1, 1064289, Poly_aftertouch_c, 0, 66, 0
1, 1064294, Note_off_c, 0, 69, 52
1, 1064300, Note_on_c, 0, 60, 63
1, 1064312, Note_off_c, 0, 45, 58
1, 1064313, Note_off_c, 0, 57, 59
1, 1064319, Note_on_c, 0, 36, 60
1, 1064328, Note_off_c, 0, 33, 50
1, 1064328, Poly_aftertouch_c, 0, 33, 0
1, 1064332, Note_on_c, 0, 40, 62
1, 1064371, Note_on_c, 0, 64, 70
1, 1064375, Note_off_c, 0, 60, 61
1, 1064415, Note_off_c, 0, 36, 61
1, 1064415, Note_off_c, 0, 40, 62
1, 1064422, Note_off_c, 0, 64, 61
1, 1064427, Note_on_c, 0, 45, 77
1, 1064484, Note_on_c, 0, 69, 80
1, 1064491, Note_off_c, 0, 45, 63
1, 1064548, Note_on_c, 0, 48, 73
1, 1064575, Note_on_c, 0, 72, 67
1, 1064590, Note_off_c, 0, 69, 58
1, 1064625, Note_on_c, 0, 52, 67
1, 1064633, Note_on_c, 0, 76, 70
1, 1064654, Note_off_c, 0, 72, 61
1, 1064661, Note_off_c, 0, 48, 61
1, 1064688, Note_off_c, 0, 52, 58
1, 1064690, Note_off_c, 0, 76, 63
1, 1064697, Note_on_c, 0, 57, 80
1, 1064746, Note_on_c, 0, 81, 86
1, 1064751, Note_off_c, 0, 57, 65
1, 1064809, Note_on_c, 0, 84, 72
1, 1064816, Note_on_c, 0, 60, 74
1, 1064871, Note_on_c, 0, 88, 86
1, 1064888, Note_off_c, 0, 81, 52
1, 1064893, Note_on_c, 0, 64, 72
1, 1064903, Note_off_c, 0, 60, 60
1, 1064910, Note_off_c, 0, 84, 64
1, 1064921, Note_on_c, 0, 93, 93
1, 1064943, Note_off_c, 0, 64, 59
1, 1064944, Note_on_c, 0, 69, 91
1, 1064951, Note_off_c, 0, 88, 65
1, 1064979, Note_off_c, 0, 93, 66
1, 1064989, Note_off_c, 0, 69, 63
1, 1065037, Poly_aftertouch_c, 0, 67, 0
1, 1065604, Control_c, 0, 67, 8
1, 1065604, Control_c, 1, 67, 8
1, 1065623, Control_c, 1, 67, 16
1, 1065623, Control_c, 0, 67, 16
1, 1065641, Control_c, 0, 67, 21
1, 1065641, Control_c, 1, 67, 21
1, 1065717, Control_c, 1, 67, 16
1, 1065717, Control_c, 0, 67, 16
1, 1065773, Control_c, 0, 64, 118
1, 1065773, Control_c, 1, 64, 118
1, 1065793, Control_c, 1, 64, 89
1, 1065793, Control_c, 0, 64, 89
1, 1065811, Control_c, 0, 64, 69
1, 1065811, Control_c, 1, 64, 69
1, 1065813, Control_c, 1, 67, 12
1, 1065813, Control_c, 0, 67, 12
1, 1065830, Control_c, 0, 64, 54
1, 1065830, Control_c, 1, 64, 54
1, 1065848, Control_c, 1, 64, 46
1, 1065848, Control_c, 0, 64, 46
1, 1065866, Control_c, 0, 64, 42
1, 1065866, Control_c, 1, 64, 42
1, 1065885, Control_c, 1, 67, 16
1, 1065885, Control_c, 0, 67, 16
1, 1065960, Control_c, 0, 64, 40
1, 1065960, Control_c, 1, 64, 40
1, 1066036, Control_c, 1, 64, 31
1, 1066036, Control_c, 0, 64, 31
1, 1066053, Control_c, 0, 64, 20
1, 1066053, Control_c, 1, 64, 20
1, 1066091, Control_c, 1, 67, 22
1, 1066091, Control_c, 0, 67, 22
1, 1066109, Control_c, 0, 67, 26
1, 1066109, Control_c, 1, 67, 26
1, 1066128, Control_c, 1, 67, 34
1, 1066128, Control_c, 0, 67, 34
1, 1066147, Control_c, 0, 67, 41
1, 1066147, Control_c, 1, 67, 41
1, 1066166, Control_c, 1, 67, 46
1, 1066166, Control_c, 0, 67, 46
1, 1066185, Control_c, 0, 64, 0
1, 1066185, Control_c, 1, 64, 0
1, 1066186, Control_c, 1, 67, 51
1, 1066186, Control_c, 0, 67, 51
1, 1066203, Control_c, 0, 67, 56
1, 1066203, Control_c, 1, 67, 56
1, 1066222, Control_c, 1, 67, 63
1, 1066222, Control_c, 0, 67, 63
1, 1066241, Control_c, 0, 67, 72
1, 1066241, Control_c, 1, 67, 72
1, 1066259, Control_c, 1, 67, 83
1, 1066259, Control_c, 0, 67, 83
1, 1066279, Control_c, 0, 67, 92
1, 1066279, Control_c, 1, 67, 92
1, 1066297, Control_c, 1, 67, 101
1, 1066297, Control_c, 0, 67, 101
1, 1066315, Control_c, 0, 67, 109
1, 1066315, Control_c, 1, 67, 109
1, 1066334, Control_c, 1, 67, 119
1, 1066334, Control_c, 0, 67, 119
1, 1066353, Control_c, 0, 67, 127
1, 1066353, Control_c, 1, 67, 127
1, 1066391, Note_on_c, 0, 33, 58
1, 1066398, Note_on_c, 0, 45, 57
1, 1066399, Note_on_c, 0, 96, 70
1, 1066408, Note_on_c, 0, 84, 59
1, 1066429, Note_off_c, 0, 45, 58
1, 1066432, Note_off_c, 0, 96, 68
1, 1066434, Note_off_c, 0, 33, 61
1, 1066434, Poly_aftertouch_c, 0, 33, 0
1, 1066442, Note_off_c, 0, 84, 64
1, 1066539, Note_on_c, 0, 47, 56
1, 1066545, Note_on_c, 0, 83, 67
1, 1066574, Note_on_c, 0, 84, 26
1, 1066575, Note_off_c, 0, 84, 127
1, 1066579, Note_off_c, 0, 47, 65
1, 1066585, Note_off_c, 0, 83, 61
1, 1066656, Note_on_c, 0, 81, 66
1, 1066659, Note_on_c, 0, 48, 58
1, 1066690, Note_on_c, 0, 91, 45
1, 1066691, Note_off_c, 0, 81, 61
1, 1066691, Note_off_c, 0, 91, 127
1, 1066694, Note_off_c, 0, 48, 64
1, 1066786, Note_on_c, 0, 52, 68
1, 1066786, Note_on_c, 0, 76, 74
1, 1066822, Note_off_c, 0, 52, 63
1, 1066823, Note_off_c, 0, 76, 62
1, 1066927, Note_on_c, 0, 45, 57
1, 1066927, Note_on_c, 0, 72, 59
1, 1066928, Note_on_c, 0, 57, 59
1, 1066936, Note_on_c, 0, 84, 36
1, 1066937, Note_off_c, 0, 84, 127
1, 1066959, Note_off_c, 0, 45, 56
1, 1066961, Note_off_c, 0, 72, 63
1, 1066971, Note_off_c, 0, 57, 66
1, 1066973, Note_on_c, 0, 83, 8
1, 1066974, Note_off_c, 0, 83, 127
1, 1067036, Note_on_c, 0, 71, 68
1, 1067042, Note_on_c, 0, 59, 62
1, 1067063, Note_off_c, 0, 71, 68
1, 1067067, Note_off_c, 0, 59, 63
1, 1067074, Note_on_c, 0, 72, 23
1, 1067075, Note_off_c, 0, 72, 127
1, 1067130, Poly_aftertouch_c, 0, 72, 0
1, 1067176, Note_on_c, 0, 69, 60
1, 1067177, Note_on_c, 0, 81, 44
1, 1067178, Note_off_c, 0, 81, 127
1, 1067178, Note_on_c, 0, 48, 57
1, 1067191, Note_on_c, 0, 60, 42
1, 1067200, Note_off_c, 0, 69, 60
1, 1067210, Note_off_c, 0, 48, 56
1, 1067232, Note_off_c, 0, 60, 48
1, 1067282, Note_on_c, 0, 66, 60
1, 1067286, Note_on_c, 0, 63, 66
1, 1067309, Note_off_c, 0, 66, 62
1, 1067322, Note_off_c, 0, 63, 66
1, 1067407, Note_on_c, 0, 68, 74
1, 1067409, Note_on_c, 0, 80, 73
1, 1067424, Note_on_c, 0, 64, 61
1, 1067435, Note_off_c, 0, 68, 70
1, 1067436, Note_off_c, 0, 80, 72
1, 1067439, Note_on_c, 0, 52, 61
1, 1067462, Note_off_c, 0, 64, 65
1, 1067489, Note_off_c, 0, 52, 57
1, 1067514, Note_on_c, 0, 59, 65
1, 1067523, Note_on_c, 0, 71, 71
1, 1067542, Note_off_c, 0, 71, 67
1, 1067547, Note_off_c, 0, 59, 65
1, 1067657, Note_on_c, 0, 88, 77
1, 1067661, Note_on_c, 0, 56, 71
1, 1067668, Note_on_c, 0, 44, 67
1, 1067688, Note_off_c, 0, 88, 70
1, 1067688, Note_on_c, 0, 76, 40
1, 1067689, Note_off_c, 0, 56, 66
1, 1067703, Note_on_c, 0, 85, 20
1, 1067728, Note_off_c, 0, 76, 37
1, 1067735, Note_off_c, 0, 85, 45
1, 1067737, Note_off_c, 0, 44, 58
1, 1067775, Note_on_c, 0, 78, 76
1, 1067787, Note_on_c, 0, 54, 63
1, 1067802, Note_off_c, 0, 78, 73
1, 1067823, Note_off_c, 0, 54, 65
1, 1067913, Note_on_c, 0, 80, 69
1, 1067915, Note_on_c, 0, 92, 82
1, 1067925, Note_on_c, 0, 52, 62
1, 1067944, Note_off_c, 0, 80, 64
1, 1067944, Note_on_c, 0, 40, 50
1, 1067945, Note_off_c, 0, 92, 64
1, 1067962, Note_off_c, 0, 52, 62
1, 1067989, Note_off_c, 0, 40, 47
1, 1068010, Note_on_c, 0, 47, 64
1, 1068018, Note_on_c, 0, 83, 77
1, 1068043, Note_off_c, 0, 83, 71
1, 1068050, Note_off_c, 0, 47, 65
1, 1068149, Note_on_c, 0, 100, 83
1, 1068158, Note_on_c, 0, 88, 64
1, 1068161, Note_on_c, 0, 40, 59
1, 1068175, Note_off_c, 0, 100, 69
1, 1068186, Note_off_c, 0, 88, 66
1, 1068190, Note_on_c, 0, 28, 23
1, 1068191, Note_off_c, 0, 28, 127
1, 1068197, Note_off_c, 0, 40, 57
1, 1068283, Note_on_c, 0, 44, 64
1, 1068291, Note_on_c, 0, 86, 76
1, 1068321, Note_off_c, 0, 44, 62
1, 1068327, Note_off_c, 0, 86, 61
1, 1068401, Note_on_c, 0, 96, 86
1, 1068405, Note_on_c, 0, 84, 70
1, 1068412, Note_on_c, 0, 45, 72
1, 1068421, Note_on_c, 0, 33, 58
1, 1068427, Note_off_c, 0, 96, 71
1, 1068434, Note_off_c, 0, 84, 64
1, 1068441, Note_off_c, 0, 45, 66
1, 1068459, Note_off_c, 0, 33, 55
1, 1068459, Poly_aftertouch_c, 0, 33, 0
1, 1068531, Note_on_c, 0, 83, 75
1, 1068537, Note_on_c, 0, 47, 65
1, 1068564, Note_off_c, 0, 83, 63
1, 1068570, Note_off_c, 0, 47, 64
1, 1068582, Note_on_c, 0, 84, 19
1, 1068583, Note_off_c, 0, 84, 127
1, 1068648, Note_on_c, 0, 48, 65
1, 1068655, Note_on_c, 0, 81, 54
1, 1068667, Note_on_c, 0, 91, 57
1, 1068672, Note_on_c, 0, 36, 39
1, 1068685, Note_off_c, 0, 81, 59
1, 1068689, Note_off_c, 0, 48, 63
1, 1068691, Note_off_c, 0, 91, 42
1, 1068722, Note_off_c, 0, 36, 47
1, 1068767, Note_on_c, 0, 76, 76
1, 1068775, Note_on_c, 0, 52, 68
1, 1068807, Note_off_c, 0, 52, 65
1, 1068809, Note_off_c, 0, 76, 61
1, 1068901, Note_on_c, 0, 84, 70
1, 1068902, Note_on_c, 0, 57, 65
1, 1068902, Note_on_c, 0, 45, 62
1, 1068906, Note_on_c, 0, 72, 69
1, 1068923, Note_off_c, 0, 84, 66
1, 1068935, Note_off_c, 0, 45, 59
1, 1068938, Note_off_c, 0, 72, 68
1, 1068942, Note_off_c, 0, 57, 66
1, 1068945, Note_on_c, 0, 83, 43
1, 1068983, Note_off_c, 0, 83, 37
1, 1069017, Note_on_c, 0, 71, 74
1, 1069019, Note_on_c, 0, 59, 66
1, 1069046, Note_off_c, 0, 71, 68
1, 1069052, Note_off_c, 0, 59, 67
1, 1069136, Note_on_c, 0, 81, 67
1, 1069142, Note_on_c, 0, 69, 75
1, 1069149, Note_on_c, 0, 48, 66
1, 1069156, Note_off_c, 0, 81, 66
1, 1069159, Note_on_c, 0, 60, 63
1, 1069170, Note_off_c, 0, 69, 65
1, 1069179, Note_off_c, 0, 48, 61
1, 1069197, Note_off_c, 0, 60, 63
1, 1069267, Note_on_c, 0, 63, 71
1, 1069299, Note_off_c, 0, 63, 67
1, 1069378, Poly_aftertouch_c, 0, 67, 0
1, 1069381, Note_on_c, 0, 68, 47
1, 1069390, Note_on_c, 0, 80, 78
1, 1069405, Note_on_c, 0, 64, 65
1, 1069414, Note_on_c, 0, 52, 58
1, 1069416, Note_off_c, 0, 80, 64
1, 1069430, Note_off_c, 0, 68, 54
1, 1069439, Note_off_c, 0, 64, 64
1, 1069463, Note_off_c, 0, 52, 56
1, 1069499, Note_on_c, 0, 59, 65
1, 1069523, Note_on_c, 0, 72, 50
1, 1069528, Note_off_c, 0, 59, 63
1, 1069552, Note_off_c, 0, 72, 37
1, 1069575, Poly_aftertouch_c, 0, 71, 0
1, 1069639, Note_on_c, 0, 76, 72
1, 1069640, Note_on_c, 0, 88, 71
1, 1069646, Note_on_c, 0, 56, 70
1, 1069652, Note_on_c, 0, 44, 66
1, 1069661, Note_off_c, 0, 88, 67
1, 1069665, Note_off_c, 0, 76, 64
1, 1069677, Note_off_c, 0, 56, 66
1, 1069701, Poly_aftertouch_c, 0, 85, 0
1, 1069712, Note_off_c, 0, 44, 51
1, 1069719, Poly_aftertouch_c, 0, 85, 0
1, 1069754, Note_on_c, 0, 78, 78
1, 1069765, Note_on_c, 0, 54, 68
1, 1069780, Note_off_c, 0, 78, 72
1, 1069796, Note_off_c, 0, 54, 66
1, 1069893, Note_on_c, 0, 92, 86
1, 1069895, Note_on_c, 0, 80, 85
1, 1069902, Note_on_c, 0, 52, 64
1, 1069919, Note_on_c, 0, 40, 62
1, 1069938, Note_off_c, 0, 80, 66
1, 1069941, Note_off_c, 0, 52, 63
1, 1069947, Note_off_c, 0, 92, 67
1, 1069994, Note_on_c, 0, 47, 72
1, 1070000, Note_off_c, 0, 40, 56
1, 1070008, Note_on_c, 0, 83, 72
1, 1070026, Note_off_c, 0, 47, 67
1, 1070035, Note_off_c, 0, 83, 70
1, 1070140, Note_on_c, 0, 88, 68
1, 1070145, Note_on_c, 0, 100, 69
1, 1070154, Note_on_c, 0, 40, 68
1, 1070166, Note_on_c, 0, 28, 46
1, 1070167, Note_off_c, 0, 88, 70
1, 1070167, Note_off_c, 0, 28, 127
1, 1070168, Note_off_c, 0, 100, 65
1, 1070195, Note_off_c, 0, 40, 64
1, 1070221, Poly_aftertouch_c, 0, 28, 0
1, 1070239, Poly_aftertouch_c, 0, 98, 0
1, 1070284, Poly_aftertouch_c, 0, 29, 0
1, 1070438, Note_on_c, 0, 96, 80
1, 1070446, Note_on_c, 0, 33, 63
1, 1070446, Note_on_c, 0, 45, 63
1, 1070449, Note_on_c, 0, 86, 63
1, 1070453, Note_on_c, 0, 84, 68
1, 1070469, Note_off_c, 0, 96, 64
1, 1070480, Note_off_c, 0, 84, 68
1, 1070481, Note_off_c, 0, 86, 68
1, 1070482, Note_off_c, 0, 33, 58
1, 1070482, Poly_aftertouch_c, 0, 33, 0
1, 1070483, Note_off_c, 0, 45, 65
1, 1070576, Note_on_c, 0, 47, 61
1, 1070585, Note_on_c, 0, 84, 59
1, 1070589, Note_on_c, 0, 83, 60
1, 1070613, Note_off_c, 0, 84, 63
1, 1070613, Note_off_c, 0, 83, 64
1, 1070616, Note_off_c, 0, 47, 65
1, 1070702, Note_on_c, 0, 48, 58
1, 1070702, Note_on_c, 0, 93, 58
1, 1070705, Note_on_c, 0, 81, 54
1, 1070722, Note_on_c, 0, 36, 25
1, 1070723, Note_off_c, 0, 36, 127
1, 1070726, Note_off_c, 0, 93, 63
1, 1070731, Note_off_c, 0, 81, 59
1, 1070740, Note_off_c, 0, 48, 63
1, 1070766, Poly_aftertouch_c, 0, 83, 0
1, 1070792, Poly_aftertouch_c, 0, 36, 0
1, 1070811, Note_on_c, 0, 76, 74
1, 1070818, Note_on_c, 0, 52, 66
1, 1070839, Note_off_c, 0, 76, 70
1, 1070854, Note_off_c, 0, 52, 63
1, 1070930, Note_on_c, 0, 84, 78
1, 1070942, Note_on_c, 0, 72, 62
1, 1070944, Note_on_c, 0, 45, 61
1, 1070945, Note_on_c, 0, 57, 63
1, 1070959, Note_off_c, 0, 84, 69
1, 1070976, Note_off_c, 0, 45, 59
1, 1070978, Note_off_c, 0, 72, 64
1, 1070989, Note_off_c, 0, 57, 66
1, 1071061, Note_on_c, 0, 59, 65
1, 1071067, Note_on_c, 0, 71, 65
1, 1071095, Note_off_c, 0, 59, 65
1, 1071100, Note_off_c, 0, 71, 68
1, 1071164, Note_on_c, 0, 81, 68
1, 1071175, Note_on_c, 0, 69, 66
1, 1071184, Note_off_c, 0, 81, 66
1, 1071187, Note_on_c, 0, 48, 55
1, 1071196, Note_on_c, 0, 60, 63
1, 1071206, Note_off_c, 0, 69, 65
1, 1071224, Note_off_c, 0, 48, 53
1, 1071224, Note_on_c, 0, 79, 20
1, 1071225, Note_off_c, 0, 60, 62
1, 1071225, Note_off_c, 0, 79, 127
1, 1071291, Note_on_c, 0, 66, 72
1, 1071301, Note_on_c, 0, 63, 71
1, 1071319, Note_off_c, 0, 66, 67
1, 1071330, Note_off_c, 0, 63, 70
1, 1071416, Note_on_c, 0, 80, 85
1, 1071417, Note_on_c, 0, 68, 80
1, 1071433, Note_on_c, 0, 64, 61
1, 1071445, Note_off_c, 0, 68, 72
1, 1071453, Note_on_c, 0, 52, 54
1, 1071459, Note_off_c, 0, 64, 61
1, 1071464, Note_off_c, 0, 80, 65
1, 1071489, Note_off_c, 0, 52, 60
1, 1071535, Note_on_c, 0, 59, 66
1, 1071556, Note_on_c, 0, 71, 53
1, 1071570, Note_off_c, 0, 59, 67
1, 1071586, Note_off_c, 0, 71, 59
1, 1071681, Note_on_c, 0, 56, 71
1, 1071684, Note_on_c, 0, 44, 64
1, 1071690, Note_on_c, 0, 88, 57
1, 1071692, Note_on_c, 0, 76, 59
1, 1071713, Note_off_c, 0, 56, 67
1, 1071715, Note_off_c, 0, 76, 61
1, 1071715, Note_on_c, 0, 85, 25
1, 1071716, Note_off_c, 0, 88, 38
1, 1071728, Note_off_c, 0, 44, 56
1, 1071731, Note_off_c, 0, 85, 37
1, 1071756, Poly_aftertouch_c, 0, 86, 0
1, 1071782, Note_on_c, 0, 78, 76
1, 1071795, Note_on_c, 0, 54, 63
1, 1071809, Note_off_c, 0, 78, 72
1, 1071832, Note_off_c, 0, 54, 65
1, 1071919, Note_on_c, 0, 92, 84
1, 1071921, Note_on_c, 0, 80, 58
1, 1071927, Note_on_c, 0, 52, 66
1, 1071944, Note_on_c, 0, 40, 53
1, 1071959, Note_off_c, 0, 80, 69
1, 1071967, Note_off_c, 0, 52, 63
1, 1071969, Note_off_c, 0, 92, 67
1, 1071983, Note_off_c, 0, 40, 55
1, 1072022, Note_on_c, 0, 47, 65
1, 1072032, Note_on_c, 0, 83, 68
1, 1072052, Note_off_c, 0, 83, 67
1, 1072059, Note_off_c, 0, 47, 64
1, 1072154, Note_on_c, 0, 100, 83
1, 1072166, Note_on_c, 0, 28, 60
1, 1072169, Note_on_c, 0, 40, 56
1, 1072172, Note_on_c, 0, 88, 42
1, 1072180, Note_off_c, 0, 100, 69
1, 1072206, Note_off_c, 0, 28, 56
1, 1072207, Note_off_c, 0, 40, 57
1, 1072209, Note_off_c, 0, 88, 53
1, 1072286, Note_on_c, 0, 44, 75
1, 1072302, Note_on_c, 0, 86, 65
1, 1072320, Note_off_c, 0, 44, 65
1, 1072337, Note_off_c, 0, 86, 68
1, 1072412, Note_on_c, 0, 84, 71
1, 1072424, Note_on_c, 0, 96, 61
1, 1072426, Note_on_c, 0, 45, 69
1, 1072432, Note_on_c, 0, 95, 63
1, 1072445, Note_off_c, 0, 84, 65
1, 1072450, Note_on_c, 0, 35, 51
1, 1072453, Note_off_c, 0, 96, 63
1, 1072457, Note_off_c, 0, 95, 66
1, 1072460, Note_off_c, 0, 45, 65
1, 1072468, Note_on_c, 0, 33, 8
1, 1072486, Note_off_c, 0, 35, 51
1, 1072537, Note_on_c, 0, 47, 70
1, 1072541, Note_on_c, 0, 83, 74
1, 1072549, Note_off_c, 0, 33, 29
1, 1072549, Poly_aftertouch_c, 0, 33, 0
1, 1072568, Note_off_c, 0, 83, 68
1, 1072574, Note_off_c, 0, 47, 67
1, 1072639, Note_on_c, 0, 81, 67
1, 1072657, Note_on_c, 0, 91, 63
1, 1072662, Note_on_c, 0, 48, 66
1, 1072676, Note_off_c, 0, 81, 63
1, 1072676, Note_off_c, 0, 91, 64
1, 1072698, Poly_aftertouch_c, 0, 93, 0
1, 1072699, Note_off_c, 0, 48, 64
1, 1072760, Poly_aftertouch_c, 0, 38, 0
1, 1072776, Note_on_c, 0, 76, 74
1, 1072801, Note_on_c, 0, 52, 42
1, 1072807, Note_off_c, 0, 76, 68
1, 1072807, Note_on_c, 0, 53, 40
1, 1072841, Note_off_c, 0, 52, 45
1, 1072850, Note_off_c, 0, 53, 35
1, 1072901, Note_on_c, 0, 84, 65
1, 1072909, Note_on_c, 0, 72, 61
1, 1072910, Note_on_c, 0, 45, 54
1, 1072910, Note_on_c, 0, 57, 64
1, 1072930, Note_off_c, 0, 84, 66
1, 1072937, Note_off_c, 0, 72, 63
1, 1072949, Note_off_c, 0, 45, 55
1, 1072954, Note_off_c, 0, 57, 65
1, 1073030, Note_on_c, 0, 71, 73
1, 1073036, Note_on_c, 0, 59, 64
1, 1073054, Note_on_c, 0, 72, 34
1, 1073055, Note_off_c, 0, 72, 127
1, 1073058, Note_off_c, 0, 59, 63
1, 1073059, Note_off_c, 0, 71, 67
1, 1073140, Note_on_c, 0, 81, 73
1, 1073155, Note_on_c, 0, 60, 62
1, 1073159, Note_on_c, 0, 69, 58
1, 1073165, Note_off_c, 0, 81, 65
1, 1073187, Note_off_c, 0, 69, 59
1, 1073190, Note_off_c, 0, 60, 62
1, 1073190, Note_on_c, 0, 48, 23
1, 1073191, Note_off_c, 0, 48, 127
1, 1073215, Note_on_c, 0, 50, 9
1, 1073246, Note_off_c, 0, 50, 33
1, 1073265, Note_on_c, 0, 66, 73
1, 1073266, Note_on_c, 0, 63, 75
1, 1073293, Note_off_c, 0, 66, 69
1, 1073297, Note_off_c, 0, 63, 70
1, 1073378, Poly_aftertouch_c, 0, 68, 0
1, 1073402, Note_on_c, 0, 80, 83
1, 1073421, Note_on_c, 0, 64, 59
1, 1073426, Note_on_c, 0, 52, 70
1, 1073436, Note_off_c, 0, 80, 69
1, 1073438, Poly_aftertouch_c, 0, 68, 127
1, 1073442, Poly_aftertouch_c, 0, 68, 0
1, 1073454, Note_off_c, 0, 64, 62
1, 1073476, Note_off_c, 0, 52, 55
1, 1073504, Note_on_c, 0, 59, 69
1, 1073515, Note_on_c, 0, 71, 71
1, 1073535, Note_off_c, 0, 59, 67
1, 1073543, Note_off_c, 0, 71, 70
1, 1073643, Note_on_c, 0, 88, 81
1, 1073656, Note_on_c, 0, 76, 65
1, 1073664, Note_on_c, 0, 44, 62
1, 1073665, Note_on_c, 0, 56, 64
1, 1073673, Note_off_c, 0, 88, 65
1, 1073678, Note_on_c, 0, 85, 40
1, 1073688, Note_off_c, 0, 76, 65
1, 1073700, Note_off_c, 0, 56, 65
1, 1073713, Note_off_c, 0, 44, 54
1, 1073714, Note_off_c, 0, 85, 47
1, 1073769, Note_on_c, 0, 54, 70
1, 1073771, Note_on_c, 0, 78, 72
1, 1073798, Note_off_c, 0, 78, 71
1, 1073802, Note_off_c, 0, 54, 68
1, 1073885, Note_on_c, 0, 80, 39
1, 1073895, Note_on_c, 0, 92, 76
1, 1073904, Note_on_c, 0, 52, 68
1, 1073936, Note_on_c, 0, 40, 42
1, 1073940, Note_off_c, 0, 80, 65
1, 1073944, Note_off_c, 0, 52, 63
1, 1073954, Note_off_c, 0, 92, 65
1, 1073995, Note_off_c, 0, 40, 46
1, 1073997, Note_on_c, 0, 47, 67
1, 1074008, Note_on_c, 0, 83, 72
1, 1074032, Note_off_c, 0, 47, 66
1, 1074032, Poly_aftertouch_c, 0, 41, 0
1, 1074037, Note_off_c, 0, 83, 72
1, 1074147, Note_on_c, 0, 40, 59
1, 1074147, Note_on_c, 0, 100, 73
1, 1074149, Note_on_c, 0, 88, 54
1, 1074163, Note_on_c, 0, 28, 48
1, 1074170, Note_off_c, 0, 100, 65
1, 1074175, Note_off_c, 0, 88, 61
1, 1074187, Note_off_c, 0, 40, 62
1, 1074212, Note_off_c, 0, 28, 33
1, 1074427, Note_on_c, 0, 45, 72
1, 1074427, Note_on_c, 0, 97, 81
1, 1074430, Note_on_c, 0, 33, 72
1, 1074431, Note_on_c, 0, 85, 74
1, 1074458, Note_off_c, 0, 97, 70
1, 1074460, Note_off_c, 0, 45, 64
1, 1074461, Note_off_c, 0, 85, 72
1, 1074473, Note_off_c, 0, 33, 62
1, 1074473, Poly_aftertouch_c, 0, 33, 0
1, 1074539, Note_on_c, 0, 47, 82
1, 1074540, Note_on_c, 0, 83, 80
1, 1074573, Note_off_c, 0, 47, 71
1, 1074578, Note_off_c, 0, 83, 64
1, 1074672, Note_on_c, 0, 81, 66
1, 1074677, Note_on_c, 0, 93, 63
1, 1074678, Note_on_c, 0, 49, 67
1, 1074689, Note_on_c, 0, 37, 58
1, 1074701, Note_off_c, 0, 81, 68
1, 1074703, Note_off_c, 0, 93, 65
1, 1074713, Note_off_c, 0, 49, 65
1, 1074720, Note_on_c, 0, 91, 31
1, 1074721, Note_off_c, 0, 91, 127
1, 1074726, Note_off_c, 0, 37, 60
1, 1074793, Note_on_c, 0, 50, 73
1, 1074794, Note_on_c, 0, 77, 75
1, 1074817, Note_on_c, 0, 49, 30
1, 1074818, Note_off_c, 0, 49, 127
1, 1074820, Note_off_c, 0, 77, 67
1, 1074827, Note_off_c, 0, 50, 66
1, 1074884, Poly_aftertouch_c, 0, 49, 0
1, 1074902, Note_on_c, 0, 88, 64
1, 1074913, Note_on_c, 0, 76, 64
1, 1074913, Note_on_c, 0, 52, 70
1, 1074920, Note_on_c, 0, 40, 43
1, 1074927, Note_off_c, 0, 88, 65
1, 1074942, Note_off_c, 0, 76, 67
1, 1074944, Note_off_c, 0, 52, 63
1, 1074948, Note_on_c, 0, 86, 32
1, 1074963, Note_off_c, 0, 40, 35
1, 1074981, Note_off_c, 0, 86, 34
1, 1075019, Note_on_c, 0, 56, 81
1, 1075023, Note_on_c, 0, 74, 74
1, 1075049, Note_off_c, 0, 74, 68
1, 1075056, Note_off_c, 0, 56, 63
1, 1075102, Note_on_c, 0, 76, 19
1, 1075119, Note_off_c, 0, 76, 44
1, 1075143, Note_on_c, 0, 73, 74
1, 1075148, Note_on_c, 0, 85, 75
1, 1075171, Note_off_c, 0, 73, 69
1, 1075171, Note_on_c, 0, 45, 61
1, 1075172, Note_off_c, 0, 85, 64
1, 1075189, Note_on_c, 0, 57, 38
1, 1075197, Note_on_c, 0, 55, 32
1, 1075204, Note_off_c, 0, 45, 58
1, 1075237, Note_off_c, 0, 57, 33
1, 1075247, Note_off_c, 0, 55, 47
1, 1075271, Note_on_c, 0, 71, 72
1, 1075275, Note_on_c, 0, 61, 81
1, 1075300, Note_off_c, 0, 71, 70
1, 1075304, Note_off_c, 0, 61, 67
1, 1075383, Note_on_c, 0, 81, 78
1, 1075396, Note_on_c, 0, 69, 63
1, 1075411, Note_on_c, 0, 66, 64
1, 1075424, Note_on_c, 0, 78, 34
1, 1075425, Note_on_c, 0, 54, 54
1, 1075431, Note_off_c, 0, 69, 64
1, 1075445, Note_off_c, 0, 81, 41
1, 1075449, Note_off_c, 0, 66, 66
1, 1075463, Note_off_c, 0, 78, 51
1, 1075483, Note_on_c, 0, 73, 79
1, 1075488, Note_on_c, 0, 61, 72
1, 1075506, Note_off_c, 0, 73, 71
1, 1075514, Note_off_c, 0, 54, 61
1, 1075518, Note_off_c, 0, 61, 69
1, 1075631, Note_on_c, 0, 57, 72
1, 1075633, Note_on_c, 0, 78, 60
1, 1075636, Note_on_c, 0, 90, 77
1, 1075639, Note_on_c, 0, 45, 70
1, 1075661, Note_off_c, 0, 78, 65
1, 1075673, Note_off_c, 0, 45, 65
1, 1075677, Note_off_c, 0, 57, 64
1, 1075686, Note_off_c, 0, 90, 64
1, 1075746, Note_on_c, 0, 80, 74
1, 1075747, Note_on_c, 0, 56, 78
1, 1075772, Note_off_c, 0, 80, 72
1, 1075778, Note_off_c, 0, 56, 69
1, 1075891, Note_on_c, 0, 81, 71
1, 1075891, Note_on_c, 0, 93, 79
1, 1075896, Note_on_c, 0, 54, 67
1, 1075898, Note_on_c, 0, 42, 66
1, 1075919, Note_off_c, 0, 81, 68
1, 1075936, Note_off_c, 0, 54, 65
1, 1075937, Note_off_c, 0, 93, 46
1, 1075984, Note_off_c, 0, 42, 58
1, 1075993, Note_on_c, 0, 49, 56
1, 1075994, Note_off_c, 0, 49, 127
1, 1076004, Note_on_c, 0, 85, 70
1, 1076032, Note_off_c, 0, 85, 72
1, 1076137, Note_on_c, 0, 98, 74
1, 1076142, Note_on_c, 0, 86, 56
1, 1076159, Note_on_c, 0, 38, 70
1, 1076168, Note_off_c, 0, 86, 62
1, 1076169, Note_off_c, 0, 98, 68
1, 1076175, Note_on_c, 0, 28, 57
1, 1076189, Note_on_c, 0, 26, 25
1, 1076197, Note_off_c, 0, 38, 62
1, 1076215, Note_off_c, 0, 28, 50
1, 1076249, Note_off_c, 0, 26, 33
1, 1076264, Note_on_c, 0, 84, 71
1, 1076284, Note_on_c, 0, 42, 72
1, 1076294, Note_off_c, 0, 84, 66
1, 1076321, Note_off_c, 0, 42, 65
1, 1076383, Note_on_c, 0, 95, 83
1, 1076388, Note_on_c, 0, 83, 72
1, 1076407, Note_on_c, 0, 43, 69
1, 1076411, Note_off_c, 0, 95, 72
1, 1076415, Note_off_c, 0, 83, 69
1, 1076427, Note_on_c, 0, 31, 36
1, 1076436, Note_off_c, 0, 43, 66
1, 1076442, Note_on_c, 0, 33, 43
1, 1076458, Note_on_c, 0, 93, 17
1, 1076459, Note_off_c, 0, 93, 127
1, 1076479, Note_off_c, 0, 31, 34
1, 1076488, Note_off_c, 0, 33, 36
1, 1076488, Poly_aftertouch_c, 0, 33, 0
1, 1076507, Note_on_c, 0, 45, 73
1, 1076515, Note_on_c, 0, 81, 73
1, 1076538, Note_off_c, 0, 45, 66
1, 1076540, Note_off_c, 0, 81, 70
1, 1076618, Note_on_c, 0, 91, 75
1, 1076627, Note_on_c, 0, 79, 67
1, 1076635, Note_on_c, 0, 47, 68
1, 1076636, Note_off_c, 0, 91, 68
1, 1076643, Note_on_c, 0, 89, 58
1, 1076650, Note_on_c, 0, 35, 51
1, 1076658, Note_off_c, 0, 79, 69
1, 1076668, Note_off_c, 0, 89, 61
1, 1076670, Note_off_c, 0, 47, 66
1, 1076685, Note_off_c, 0, 35, 55
1, 1076742, Note_on_c, 0, 75, 75
1, 1076744, Note_on_c, 0, 48, 76
1, 1076770, Note_off_c, 0, 75, 72
1, 1076776, Note_off_c, 0, 48, 66
1, 1076867, Note_on_c, 0, 50, 73
1, 1076871, Note_on_c, 0, 86, 56
1, 1076883, Note_on_c, 0, 74, 64
1, 1076890, Note_on_c, 0, 84, 56
1, 1076899, Note_off_c, 0, 86, 42
1, 1076902, Note_off_c, 0, 50, 67
1, 1076905, Note_off_c, 0, 74, 64
1, 1076912, Note_on_c, 0, 38, 16
1, 1076913, Note_off_c, 0, 38, 127
1, 1076913, Note_on_c, 0, 40, 30
1, 1076914, Note_off_c, 0, 40, 127
1, 1076917, Note_off_c, 0, 84, 59
1, 1076973, Poly_aftertouch_c, 0, 40, 0
1, 1076990, Note_on_c, 0, 54, 78
1, 1076997, Note_on_c, 0, 72, 68
1, 1076999, Note_on_c, 0, 71, 64
1, 1077022, Note_off_c, 0, 54, 67
1, 1077024, Note_off_c, 0, 71, 63
1, 1077024, Note_off_c, 0, 72, 64
1, 1077117, Note_on_c, 0, 71, 67
1, 1077130, Note_on_c, 0, 81, 61
1, 1077132, Note_on_c, 0, 55, 54
1, 1077135, Note_on_c, 0, 45, 58
1, 1077138, Note_on_c, 0, 83, 37
1, 1077139, Note_off_c, 0, 83, 127
1, 1077147, Note_off_c, 0, 71, 69
1, 1077163, Note_off_c, 0, 81, 64
1, 1077166, Note_off_c, 0, 55, 60
1, 1077171, Note_off_c, 0, 45, 57
1, 1077243, Note_on_c, 0, 59, 73
1, 1077244, Note_on_c, 0, 69, 69
1, 1077265, Note_on_c, 0, 71, 45
1, 1077273, Note_off_c, 0, 69, 67
1, 1077280, Note_off_c, 0, 59, 62
1, 1077299, Note_off_c, 0, 71, 38
1, 1077352, Note_on_c, 0, 79, 77
1, 1077365, Note_on_c, 0, 64, 66
1, 1077376, Note_on_c, 0, 67, 47
1, 1077379, Note_on_c, 0, 52, 58
1, 1077405, Note_off_c, 0, 64, 62
1, 1077406, Note_off_c, 0, 79, 60
1, 1077410, Note_off_c, 0, 67, 55
1, 1077446, Note_on_c, 0, 59, 68
1, 1077460, Note_on_c, 0, 71, 65
1, 1077480, Note_off_c, 0, 59, 66
1, 1077493, Note_off_c, 0, 71, 68
1, 1077497, Note_off_c, 0, 52, 57
1, 1077597, Note_on_c, 0, 88, 81
1, 1077603, Note_on_c, 0, 55, 62
1, 1077610, Note_on_c, 0, 76, 66
1, 1077630, Note_on_c, 0, 43, 31
1, 1077634, Note_off_c, 0, 76, 63
1, 1077644, Note_off_c, 0, 88, 43
1, 1077646, Note_off_c, 0, 55, 65
1, 1077686, Note_off_c, 0, 43, 31
1, 1077714, Note_on_c, 0, 54, 67
1, 1077729, Note_on_c, 0, 78, 59
1, 1077730, Poly_aftertouch_c, 0, 45, 0
1, 1077746, Note_off_c, 0, 54, 66
1, 1077752, Note_off_c, 0, 78, 64
1, 1077844, Note_on_c, 0, 79, 65
1, 1077848, Note_on_c, 0, 91, 60
1, 1077849, Note_on_c, 0, 52, 66
1, 1077853, Note_on_c, 0, 89, 60
1, 1077871, Note_off_c, 0, 91, 64
1, 1077878, Note_off_c, 0, 79, 67
1, 1077878, Note_on_c, 0, 40, 42
1, 1077889, Note_off_c, 0, 52, 61
1, 1077903, Note_off_c, 0, 89, 55
1, 1077946, Note_off_c, 0, 40, 44
1, 1077948, Note_on_c, 0, 47, 61
1, 1077981, Note_off_c, 0, 47, 59
1, 1077996, Note_on_c, 0, 83, 33
1, 1077997, Note_off_c, 0, 83, 127
1, 1078090, Note_on_c, 0, 96, 71
1, 1078092, Note_on_c, 0, 84, 67
1, 1078094, Note_on_c, 0, 36, 72
1, 1078099, Note_on_c, 0, 24, 59
1, 1078113, Note_off_c, 0, 96, 67
1, 1078125, Note_off_c, 0, 84, 69
1, 1078128, Note_off_c, 0, 36, 66
1, 1078143, Note_off_c, 0, 24, 51
1, 1078209, Note_on_c, 0, 82, 81
1, 1078222, Note_on_c, 0, 40, 70
1, 1078243, Note_off_c, 0, 82, 66
1, 1078262, Note_off_c, 0, 40, 64
1, 1078333, Note_on_c, 0, 93, 74
1, 1078344, Note_on_c, 0, 29, 63
1, 1078346, Note_on_c, 0, 81, 70
1, 1078350, Note_off_c, 0, 93, 52
1, 1078350, Note_on_c, 0, 41, 66
1, 1078369, Note_on_c, 0, 91, 53
1, 1078372, Note_off_c, 0, 81, 68
1, 1078383, Note_off_c, 0, 29, 59
1, 1078390, Note_off_c, 0, 41, 64
1, 1078396, Note_off_c, 0, 91, 38
1, 1078454, Note_on_c, 0, 43, 69
1, 1078454, Note_on_c, 0, 79, 78
1, 1078487, Note_off_c, 0, 43, 65
1, 1078489, Note_off_c, 0, 79, 62
1, 1078574, Note_on_c, 0, 89, 80
1, 1078583, Note_on_c, 0, 77, 62
1, 1078586, Note_on_c, 0, 45, 63
1, 1078592, Note_on_c, 0, 33, 60
1, 1078600, Note_off_c, 0, 89, 68
1, 1078606, Note_off_c, 0, 77, 62
1, 1078626, Note_off_c, 0, 45, 65
1, 1078629, Note_off_c, 0, 33, 59
1, 1078629, Poly_aftertouch_c, 0, 33, 0
1, 1078696, Note_on_c, 0, 48, 78
1, 1078703, Note_on_c, 0, 76, 75
1, 1078728, Note_off_c, 0, 48, 66
1, 1078733, Note_off_c, 0, 76, 68
1, 1078810, Note_on_c, 0, 86, 79
1, 1078827, Note_on_c, 0, 74, 55
1, 1078832, Note_on_c, 0, 34, 75
1, 1078835, Note_on_c, 0, 46, 66
1, 1078836, Note_off_c, 0, 86, 64
1, 1078855, Note_off_c, 0, 74, 62
1, 1078858, Note_off_c, 0, 34, 67
1, 1078874, Note_off_c, 0, 46, 64
1, 1078915, Poly_aftertouch_c, 0, 84, 0
1, 1078937, Note_on_c, 0, 72, 78
1, 1078954, Note_on_c, 0, 48, 66
1, 1078964, Note_off_c, 0, 72, 69
1, 1078989, Note_off_c, 0, 48, 64
1, 1079048, Note_on_c, 0, 82, 79
1, 1079067, Note_on_c, 0, 70, 71
1, 1079067, Note_on_c, 0, 38, 55
1, 1079074, Note_on_c, 0, 50, 68
1, 1079096, Note_off_c, 0, 70, 70
1, 1079097, Note_off_c, 0, 82, 66
1, 1079105, Note_off_c, 0, 38, 55
1, 1079117, Note_off_c, 0, 50, 63
1, 1079164, Note_on_c, 0, 69, 80
1, 1079169, Note_on_c, 0, 53, 71
1, 1079186, Note_off_c, 0, 69, 70
1, 1079195, Note_off_c, 0, 53, 64
1, 1079308, Note_on_c, 0, 91, 84
1, 1079318, Note_on_c, 0, 79, 75
1, 1079330, Note_off_c, 0, 91, 68
1, 1079343, Note_off_c, 0, 79, 71
1, 1079348, Note_on_c, 0, 40, 59
1, 1079356, Note_on_c, 0, 28, 45
1, 1079379, Note_off_c, 0, 40, 56
1, 1079396, Poly_aftertouch_c, 0, 89, 0
1, 1079403, Note_off_c, 0, 28, 47
1, 1079449, Note_on_c, 0, 41, 74
1, 1079449, Note_on_c, 0, 77, 78
1, 1079454, Poly_aftertouch_c, 0, 29, 0
1, 1079480, Note_off_c, 0, 77, 65
1, 1079487, Note_off_c, 0, 41, 65
1, 1079573, Note_on_c, 0, 88, 66
1, 1079575, Note_on_c, 0, 43, 63
1, 1079581, Note_on_c, 0, 31, 51
1, 1079590, Note_on_c, 0, 76, 57
1, 1079594, Note_off_c, 0, 88, 65
1, 1079612, Note_off_c, 0, 43, 66
1, 1079614, Note_off_c, 0, 76, 62
1, 1079622, Note_off_c, 0, 31, 52
1, 1079668, Poly_aftertouch_c, 0, 86, 0
1, 1079676, Note_on_c, 0, 46, 76
1, 1079683, Poly_aftertouch_c, 0, 33, 0
1, 1079688, Note_on_c, 0, 74, 74
1, 1079710, Note_off_c, 0, 46, 68
1, 1079715, Note_off_c, 0, 74, 70
1, 1079799, Note_on_c, 0, 84, 71
1, 1079818, Note_on_c, 0, 33, 65
1, 1079821, Note_on_c, 0, 45, 61
1, 1079822, Note_on_c, 0, 72, 61
1, 1079830, Note_off_c, 0, 84, 70
1, 1079834, Note_on_c, 0, 83, 47
1, 1079847, Note_off_c, 0, 72, 63
1, 1079856, Note_off_c, 0, 33, 57
1, 1079861, Note_off_c, 0, 45, 64
1, 1079864, Note_off_c, 0, 83, 54
1, 1079884, Poly_aftertouch_c, 0, 35, 0
1, 1079929, Note_on_c, 0, 46, 72
1, 1079929, Note_on_c, 0, 70, 71
1, 1079947, Note_off_c, 0, 70, 67
1, 1079968, Note_off_c, 0, 46, 66
1, 1080047, Note_on_c, 0, 81, 68
1, 1080068, Note_on_c, 0, 48, 66
1, 1080069, Note_on_c, 0, 69, 70
1, 1080076, Note_off_c, 0, 81, 64
1, 1080076, Note_on_c, 0, 36, 29
1, 1080098, Note_off_c, 0, 69, 68
1, 1080109, Note_off_c, 0, 48, 63
1, 1080110, Note_on_c, 0, 79, 28
1, 1080129, Note_off_c, 0, 36, 30
1, 1080139, Note_off_c, 0, 79, 36
1, 1080155, Note_on_c, 0, 52, 72
1, 1080160, Note_on_c, 0, 67, 75
1, 1080180, Note_off_c, 0, 67, 67
1, 1080188, Note_off_c, 0, 52, 65
1, 1080299, Note_on_c, 0, 91, 81
1, 1080306, Note_on_c, 0, 77, 70
1, 1080307, Note_on_c, 0, 89, 67
1, 1080321, Note_on_c, 0, 38, 67
1, 1080324, Note_on_c, 0, 26, 64
1, 1080325, Note_on_c, 0, 79, 44
1, 1080326, Note_off_c, 0, 91, 71
1, 1080332, Note_off_c, 0, 89, 64
1, 1080336, Note_off_c, 0, 77, 69
1, 1080354, Note_off_c, 0, 38, 64
1, 1080360, Note_off_c, 0, 79, 51
1, 1080362, Note_off_c, 0, 26, 59
1, 1080436, Note_on_c, 0, 76, 82
1, 1080440, Note_on_c, 0, 40, 78
1, 1080461, Note_off_c, 0, 76, 64
1, 1080477, Note_off_c, 0, 40, 67
1, 1080517, Note_on_c, 0, 77, 17
1, 1080518, Note_off_c, 0, 77, 127
1, 1080563, Note_on_c, 0, 86, 52
1, 1080579, Note_on_c, 0, 74, 61
1, 1080587, Note_on_c, 0, 41, 69
1, 1080593, Note_on_c, 0, 29, 31
1, 1080596, Note_off_c, 0, 86, 41
1, 1080601, Note_off_c, 0, 74, 63
1, 1080624, Note_off_c, 0, 41, 65
1, 1080649, Note_off_c, 0, 29, 33
1, 1080673, Note_on_c, 0, 72, 74
1, 1080676, Note_on_c, 0, 45, 68
1, 1080701, Note_off_c, 0, 72, 70
1, 1080712, Note_off_c, 0, 45, 64
1, 1080791, Note_on_c, 0, 82, 75
1, 1080807, Note_on_c, 0, 70, 68
1, 1080814, Note_on_c, 0, 34, 61
1, 1080818, Note_on_c, 0, 46, 63
1, 1080834, Note_off_c, 0, 70, 68
1, 1080838, Note_off_c, 0, 82, 66
1, 1080846, Note_off_c, 0, 34, 59
1, 1080851, Note_off_c, 0, 46, 63
1, 1080930, Note_on_c, 0, 69, 65
1, 1080932, Note_on_c, 0, 50, 70
1, 1080955, Note_off_c, 0, 69, 62
1, 1080966, Note_off_c, 0, 50, 65
1, 1081041, Note_on_c, 0, 80, 72
1, 1081054, Note_on_c, 0, 40, 57
1, 1081070, Note_off_c, 0, 80, 73
1, 1081074, Note_on_c, 0, 52, 41
1, 1081093, Note_off_c, 0, 40, 56
1, 1081097, Note_on_c, 0, 68, 16
1, 1081100, Poly_aftertouch_c, 0, 70, 0
1, 1081118, Note_off_c, 0, 52, 35
1, 1081135, Note_off_c, 0, 68, 33
1, 1081165, Note_on_c, 0, 64, 70
1, 1081191, Note_off_c, 0, 64, 64
1, 1081256, Poly_aftertouch_c, 0, 56, 0
1, 1081298, Note_on_c, 0, 81, 78
1, 1081308, Note_on_c, 0, 69, 72
1, 1081309, Note_on_c, 0, 60, 72
1, 1081314, Note_on_c, 0, 48, 70
1, 1081337, Note_off_c, 0, 60, 66
1, 1081338, Note_off_c, 0, 69, 68
1, 1081343, Note_off_c, 0, 81, 34
1, 1081359, Note_off_c, 0, 48, 57
1, 1081382, Poly_aftertouch_c, 0, 78, 0
1, 1081433, Note_on_c, 0, 71, 60
1, 1081442, Poly_aftertouch_c, 0, 79, 0
1, 1081454, Note_off_c, 0, 71, 61
1, 1081543, Note_on_c, 0, 84, 79
1, 1081559, Note_on_c, 0, 72, 69
1, 1081562, Note_on_c, 0, 45, 64
1, 1081565, Note_on_c, 0, 57, 60
1, 1081590, Note_off_c, 0, 72, 65
1, 1081603, Note_off_c, 0, 57, 59
1, 1081612, Note_off_c, 0, 84, 45
1, 1081619, Note_off_c, 0, 45, 52
1, 1081644, Poly_aftertouch_c, 0, 82, 0
1, 1081660, Note_on_c, 0, 76, 69
1, 1081672, Note_on_c, 0, 52, 64
1, 1081689, Note_off_c, 0, 76, 64
1, 1081712, Note_off_c, 0, 52, 63
1, 1081793, Note_on_c, 0, 93, 87
1, 1081809, Note_on_c, 0, 81, 66
1, 1081826, Note_on_c, 0, 48, 64
1, 1081837, Note_on_c, 0, 36, 42
1, 1081842, Note_off_c, 0, 81, 64
1, 1081852, Note_on_c, 0, 92, 18
1, 1081860, Note_off_c, 0, 93, 59
1, 1081860, Note_on_c, 0, 38, 38
1, 1081871, Note_off_c, 0, 48, 63
1, 1081884, Note_off_c, 0, 36, 48
1, 1081905, Note_off_c, 0, 38, 49
1, 1081922, Note_off_c, 0, 92, 43
1, 1081932, Note_on_c, 0, 88, 51
1, 1081935, Note_on_c, 0, 47, 56
1, 1081962, Note_off_c, 0, 88, 59
1, 1081968, Note_off_c, 0, 47, 57
1, 1082076, Note_on_c, 0, 105, 86
1, 1082088, Note_on_c, 0, 45, 60
1, 1082089, Note_on_c, 0, 33, 67
1, 1082105, Note_off_c, 0, 105, 70
1, 1082106, Note_on_c, 0, 93, 62
1, 1082124, Note_off_c, 0, 45, 63
1, 1082126, Note_off_c, 0, 93, 64
1, 1082132, Note_off_c, 0, 33, 62
1, 1082358, Note_on_c, 0, 97, 84
1, 1082364, Note_on_c, 0, 45, 63
1, 1082369, Note_on_c, 0, 85, 67
1, 1082377, Note_on_c, 0, 33, 45
1, 1082384, Note_off_c, 0, 97, 71
1, 1082399, Note_off_c, 0, 85, 69
1, 1082401, Note_off_c, 0, 45, 64
1, 1082420, Note_off_c, 0, 33, 34
1, 1082466, Note_on_c, 0, 47, 80
1, 1082481, Note_on_c, 0, 83, 75
1, 1082498, Note_off_c, 0, 47, 68
1, 1082511, Note_off_c, 0, 83, 63
1, 1082594, Note_on_c, 0, 93, 72
1, 1082603, Note_on_c, 0, 81, 69
1, 1082610, Note_on_c, 0, 37, 51
1, 1082611, Note_on_c, 0, 49, 65
1, 1082612, Note_off_c, 0, 93, 51
1, 1082630, Note_off_c, 0, 81, 69
1, 1082646, Note_off_c, 0, 49, 63
1, 1082650, Note_off_c, 0, 37, 54
1, 1082721, Note_on_c, 0, 50, 65
1, 1082729, Note_on_c, 0, 77, 64
1, 1082752, Note_off_c, 0, 50, 63
1, 1082762, Note_off_c, 0, 77, 65
1, 1082777, Note_on_c, 0, 76, 8
1, 1082778, Note_off_c, 0, 76, 127
1, 1082836, Note_on_c, 0, 88, 62
1, 1082840, Note_on_c, 0, 52, 67
1, 1082844, Note_on_c, 0, 40, 52
1, 1082858, Note_on_c, 0, 86, 59
1, 1082859, Note_off_c, 0, 88, 65
1, 1082871, Note_off_c, 0, 52, 63
1, 1082879, Note_on_c, 0, 76, 9
1, 1082882, Note_off_c, 0, 40, 55
1, 1082884, Note_off_c, 0, 76, 60
1, 1082885, Note_off_c, 0, 86, 62
1, 1082937, Poly_aftertouch_c, 0, 41, 0
1, 1082955, Note_on_c, 0, 56, 74
1, 1082960, Note_on_c, 0, 74, 74
1, 1082987, Note_off_c, 0, 56, 68
1, 1082988, Note_off_c, 0, 74, 71
1, 1083087, Note_on_c, 0, 73, 79
1, 1083088, Note_on_c, 0, 85, 78
1, 1083090, Note_on_c, 0, 57, 69
1, 1083101, Note_on_c, 0, 45, 59
1, 1083116, Note_off_c, 0, 73, 67
1, 1083117, Note_off_c, 0, 85, 72
1, 1083124, Note_off_c, 0, 57, 67
1, 1083132, Note_off_c, 0, 45, 57
1, 1083220, Note_on_c, 0, 71, 76
1, 1083227, Note_on_c, 0, 61, 69
1, 1083250, Note_off_c, 0, 71, 68
1, 1083269, Note_off_c, 0, 61, 60
1, 1083337, Note_on_c, 0, 81, 80
1, 1083347, Note_on_c, 0, 69, 71
1, 1083350, Note_on_c, 0, 66, 65
1, 1083373, Note_on_c, 0, 54, 45
1, 1083379, Note_on_c, 0, 78, 30
1, 1083380, Note_off_c, 0, 69, 63
1, 1083391, Note_off_c, 0, 66, 62
1, 1083418, Note_off_c, 0, 78, 51
1, 1083440, Note_on_c, 0, 61, 66
1, 1083440, Note_on_c, 0, 73, 78
1, 1083453, Note_off_c, 0, 81, 52
1, 1083466, Note_off_c, 0, 73, 73
1, 1083472, Note_off_c, 0, 54, 62
1, 1083477, Note_off_c, 0, 61, 65
1, 1083584, Note_on_c, 0, 78, 70
1, 1083586, Note_on_c, 0, 90, 87
1, 1083587, Note_on_c, 0, 45, 75
1, 1083590, Note_on_c, 0, 57, 64
1, 1083619, Note_off_c, 0, 78, 63
1, 1083622, Note_off_c, 0, 45, 61
1, 1083627, Note_off_c, 0, 57, 65
1, 1083656, Note_off_c, 0, 90, 61
1, 1083677, Note_on_c, 0, 47, 16
1, 1083678, Note_off_c, 0, 47, 127
1, 1083716, Note_on_c, 0, 80, 71
1, 1083718, Note_on_c, 0, 56, 73
1, 1083744, Note_off_c, 0, 80, 72
1, 1083747, Note_off_c, 0, 56, 65
1, 1083849, Note_on_c, 0, 93, 77
1, 1083852, Note_on_c, 0, 81, 66
1, 1083862, Note_on_c, 0, 42, 72
1, 1083869, Note_on_c, 0, 54, 64
1, 1083880, Note_off_c, 0, 93, 58
1, 1083884, Note_off_c, 0, 81, 67
1, 1083899, Poly_aftertouch_c, 0, 90, 0
1, 1083908, Note_off_c, 0, 54, 66
1, 1083944, Note_on_c, 0, 85, 79
1, 1083965, Note_off_c, 0, 42, 58
1, 1083965, Note_on_c, 0, 49, 48
1, 1083972, Note_off_c, 0, 85, 72
1, 1083998, Note_off_c, 0, 49, 49
1, 1084080, Note_on_c, 0, 98, 93
1, 1084090, Note_on_c, 0, 86, 76
1, 1084116, Note_off_c, 0, 86, 71
1, 1084116, Note_on_c, 0, 26, 49
1, 1084117, Note_off_c, 0, 98, 59
1, 1084127, Note_on_c, 0, 38, 50
1, 1084132, Note_on_c, 0, 28, 49
1, 1084169, Note_off_c, 0, 26, 35
1, 1084174, Note_off_c, 0, 38, 51
1, 1084182, Note_off_c, 0, 28, 47
1, 1084232, Note_on_c, 0, 84, 66
1, 1084235, Note_on_c, 0, 42, 72
1, 1084257, Note_off_c, 0, 84, 63
1, 1084270, Note_off_c, 0, 42, 66
1, 1084340, Note_on_c, 0, 95, 85
1, 1084347, Note_on_c, 0, 83, 71
1, 1084365, Note_off_c, 0, 95, 95
1, 1084368, Note_on_c, 0, 43, 62
1, 1084375, Note_off_c, 0, 83, 69
1, 1084381, Note_on_c, 0, 31, 39
1, 1084402, Note_off_c, 0, 43, 64
1, 1084430, Note_off_c, 0, 31, 34
1, 1084470, Note_on_c, 0, 45, 75
1, 1084481, Note_on_c, 0, 81, 63
1, 1084493, Poly_aftertouch_c, 0, 33, 0
1, 1084498, Note_off_c, 0, 45, 65
1, 1084504, Note_off_c, 0, 81, 65
1, 1084577, Note_on_c, 0, 91, 80
1, 1084593, Note_on_c, 0, 79, 57
1, 1084603, Note_off_c, 0, 91, 70
1, 1084607, Note_on_c, 0, 35, 60
1, 1084610, Note_on_c, 0, 47, 56
1, 1084620, Note_off_c, 0, 79, 61
1, 1084640, Note_off_c, 0, 35, 55
1, 1084641, Note_off_c, 0, 47, 57
1, 1084643, Note_on_c, 0, 89, 6
1, 1084644, Note_off_c, 0, 89, 127
1, 1084711, Note_on_c, 0, 75, 79
1, 1084716, Note_on_c, 0, 48, 72
1, 1084733, Note_off_c, 0, 75, 64
1, 1084753, Note_off_c, 0, 48, 64
1, 1084827, Note_on_c, 0, 86, 78
1, 1084848, Note_on_c, 0, 50, 60
1, 1084850, Note_on_c, 0, 38, 58
1, 1084851, Note_on_c, 0, 74, 61
1, 1084854, Note_off_c, 0, 86, 64
1, 1084873, Note_off_c, 0, 74, 64
1, 1084880, Note_off_c, 0, 50, 62
1, 1084888, Note_off_c, 0, 38, 56
1, 1084968, Note_on_c, 0, 72, 60
1, 1084971, Note_on_c, 0, 73, 57
1, 1084972, Note_off_c, 0, 73, 127
1, 1084992, Note_off_c, 0, 72, 63
1, 1085047, Poly_aftertouch_c, 0, 71, 0
1, 1085093, Note_on_c, 0, 83, 55
1, 1085099, Note_on_c, 0, 43, 54
1, 1085116, Note_on_c, 0, 81, 51
1, 1085121, Note_off_c, 0, 83, 61
1, 1085125, Note_on_c, 0, 55, 45
1, 1085132, Note_off_c, 0, 43, 55
1, 1085134, Note_on_c, 0, 45, 38
1, 1085143, Note_off_c, 0, 81, 57
1, 1085166, Note_off_c, 0, 55, 54
1, 1085174, Poly_aftertouch_c, 0, 71, 0
1, 1085181, Note_off_c, 0, 45, 34
1, 1085215, Note_on_c, 0, 69, 69
1, 1085226, Note_on_c, 0, 59, 68
1, 1085243, Note_off_c, 0, 69, 62
1, 1085261, Note_off_c, 0, 59, 67
1, 1085331, Note_on_c, 0, 79, 80
1, 1085347, Note_on_c, 0, 64, 66
1, 1085355, Note_on_c, 0, 67, 54
1, 1085373, Note_on_c, 0, 52, 49
1, 1085385, Note_off_c, 0, 64, 64
1, 1085390, Note_off_c, 0, 67, 61
1, 1085407, Note_off_c, 0, 79, 55
1, 1085443, Note_on_c, 0, 59, 67
1, 1085444, Note_off_c, 0, 52, 42
1, 1085444, Note_on_c, 0, 71, 68
1, 1085473, Note_off_c, 0, 71, 68
1, 1085476, Note_off_c, 0, 59, 66
1, 1085582, Note_on_c, 0, 88, 81
1, 1085597, Note_on_c, 0, 55, 68
1, 1085598, Note_on_c, 0, 43, 65
1, 1085602, Note_on_c, 0, 76, 55
1, 1085629, Note_off_c, 0, 76, 60
1, 1085635, Note_off_c, 0, 88, 60
1, 1085638, Note_off_c, 0, 43, 60
1, 1085638, Note_off_c, 0, 55, 64
1, 1085638, Note_on_c, 0, 85, 7
1, 1085656, Note_off_c, 0, 85, 34
1, 1085707, Note_on_c, 0, 78, 76
1, 1085714, Note_on_c, 0, 54, 69
1, 1085733, Note_off_c, 0, 78, 73
1, 1085748, Note_off_c, 0, 54, 65
1, 1085838, Note_on_c, 0, 91, 81
1, 1085841, Note_on_c, 0, 52, 74
1, 1085846, Note_on_c, 0, 79, 74
1, 1085857, Note_on_c, 0, 40, 56
1, 1085874, Note_off_c, 0, 79, 62
1, 1085878, Note_off_c, 0, 52, 64
1, 1085919, Note_off_c, 0, 91, 42
1, 1085945, Note_on_c, 0, 47, 61
1, 1085946, Poly_aftertouch_c, 0, 89, 127
1, 1085950, Note_on_c, 0, 83, 77
1, 1085954, Note_off_c, 0, 40, 58
1, 1085976, Note_off_c, 0, 83, 68
1, 1085979, Note_off_c, 0, 47, 59
1, 1085986, Poly_aftertouch_c, 0, 89, 0
1, 1086089, Note_on_c, 0, 24, 69
1, 1086089, Note_on_c, 0, 96, 74
1, 1086097, Note_on_c, 0, 36, 69
1, 1086104, Note_on_c, 0, 84, 59
1, 1086109, Note_off_c, 0, 96, 67
1, 1086129, Note_off_c, 0, 84, 63
1, 1086131, Note_off_c, 0, 36, 64
1, 1086131, Note_off_c, 0, 24, 57
1, 1086163, Poly_aftertouch_c, 0, 26, 0
1, 1086172, Poly_aftertouch_c, 0, 94, 0
1, 1086211, Note_on_c, 0, 82, 77
1, 1086232, Note_on_c, 0, 40, 52
1, 1086250, Note_off_c, 0, 82, 64
1, 1086265, Note_on_c, 0, 41, 17
1, 1086266, Note_off_c, 0, 40, 53
1, 1086335, Note_on_c, 0, 93, 83
1, 1086347, Note_on_c, 0, 81, 67
1, 1086349, Note_on_c, 0, 29, 58
1, 1086361, Note_off_c, 0, 93, 70
1, 1086369, Note_off_c, 0, 41, 64
1, 1086369, Note_on_c, 0, 41, 21
1, 1086371, Note_off_c, 0, 81, 64
1, 1086385, Note_off_c, 0, 41, 61
1, 1086389, Note_off_c, 0, 29, 53
1, 1086401, Note_on_c, 0, 31, 21
1, 1086402, Note_off_c, 0, 31, 127
1, 1086402, Poly_aftertouch_c, 0, 90, 0
1, 1086455, Note_on_c, 0, 43, 70
1, 1086458, Note_on_c, 0, 79, 71
1, 1086467, Poly_aftertouch_c, 0, 31, 0
1, 1086489, Note_off_c, 0, 43, 67
1, 1086491, Note_off_c, 0, 79, 67
1, 1086501, Note_on_c, 0, 80, 20
1, 1086504, Note_off_c, 0, 80, 43
1, 1086574, Note_on_c, 0, 89, 77
1, 1086582, Note_on_c, 0, 77, 61
1, 1086594, Note_on_c, 0, 45, 60
1, 1086599, Note_off_c, 0, 89, 68
1, 1086599, Note_on_c, 0, 33, 56
1, 1086616, Note_off_c, 0, 77, 64
1, 1086632, Note_off_c, 0, 45, 64
1, 1086636, Note_off_c, 0, 33, 56
1, 1086697, Note_on_c, 0, 48, 76
1, 1086704, Note_on_c, 0, 76, 75
1, 1086724, Note_on_c, 0, 77, 53
1, 1086725, Note_off_c, 0, 77, 127
1, 1086728, Note_off_c, 0, 48, 66
1, 1086734, Note_off_c, 0, 76, 65
1, 1086824, Note_on_c, 0, 86, 68
1, 1086835, Note_on_c, 0, 74, 56
1, 1086843, Note_off_c, 0, 86, 67
1, 1086849, Note_on_c, 0, 46, 52
1, 1086860, Note_on_c, 0, 34, 47
1, 1086861, Note_off_c, 0, 34, 127
1, 1086862, Note_off_c, 0, 74, 62
1, 1086870, Note_on_c, 0, 37, 33
1, 1086886, Note_off_c, 0, 46, 56
1, 1086887, Note_on_c, 0, 84, 24
1, 1086892, Note_off_c, 0, 84, 43
1, 1086924, Note_off_c, 0, 37, 33
1, 1086946, Note_on_c, 0, 72, 76
1, 1086973, Note_off_c, 0, 72, 69
1, 1086976, Note_on_c, 0, 74, 32
1, 1086977, Note_off_c, 0, 74, 127
1, 1086990, Note_on_c, 0, 50, 50
1, 1087028, Note_off_c, 0, 50, 55
1, 1087075, Note_on_c, 0, 82, 63
1, 1087081, Note_on_c, 0, 70, 68
1, 1087096, Note_on_c, 0, 40, 56
1, 1087101, Note_on_c, 0, 50, 59
1, 1087105, Note_off_c, 0, 82, 67
1, 1087113, Note_on_c, 0, 80, 47
1, 1087114, Note_off_c, 0, 70, 69
1, 1087131, Note_off_c, 0, 40, 55
1, 1087132, Note_off_c, 0, 50, 59
1, 1087149, Note_off_c, 0, 80, 58
1, 1087184, Note_on_c, 0, 69, 69
1, 1087202, Note_on_c, 0, 53, 54
1, 1087205, Note_on_c, 0, 70, 32
1, 1087213, Note_off_c, 0, 69, 62
1, 1087234, Note_off_c, 0, 53, 56
1, 1087254, Note_off_c, 0, 70, 36
1, 1087322, Note_on_c, 0, 91, 77
1, 1087338, Note_on_c, 0, 79, 72
1, 1087345, Note_on_c, 0, 89, 58
1, 1087346, Note_off_c, 0, 91, 64
1, 1087364, Note_off_c, 0, 79, 64
1, 1087364, Note_on_c, 0, 28, 58
1, 1087364, Note_on_c, 0, 40, 58
1, 1087383, Note_off_c, 0, 89, 65
1, 1087401, Note_off_c, 0, 28, 56
1, 1087402, Note_off_c, 0, 40, 58
1, 1087465, Note_on_c, 0, 77, 76
1, 1087507, Note_off_c, 0, 77, 62
1, 1087508, Note_on_c, 0, 41, 16
1, 1087509, Note_on_c, 0, 40, 40
1, 1087561, Note_off_c, 0, 40, 36
1, 1087569, Note_off_c, 0, 41, 28
1, 1087577, Poly_aftertouch_c, 0, 79, 0
1, 1087597, Note_on_c, 0, 43, 69
1, 1087600, Note_on_c, 0, 76, 56
1, 1087602, Note_on_c, 0, 88, 59
1, 1087610, Note_on_c, 0, 31, 56
1, 1087628, Note_off_c, 0, 76, 63
1, 1087629, Note_off_c, 0, 88, 43
1, 1087632, Note_off_c, 0, 43, 66
1, 1087638, Note_on_c, 0, 86, 26
1, 1087643, Note_on_c, 0, 74, 10
1, 1087644, Note_off_c, 0, 74, 127
1, 1087651, Note_off_c, 0, 31, 55
1, 1087654, Note_off_c, 0, 86, 40
1, 1087723, Note_on_c, 0, 46, 69
1, 1087724, Note_on_c, 0, 74, 74
1, 1087751, Note_off_c, 0, 74, 64
1, 1087754, Note_off_c, 0, 46, 61
1, 1087833, Note_on_c, 0, 84, 74
1, 1087839, Note_on_c, 0, 72, 72
1, 1087851, Note_off_c, 0, 84, 51
1, 1087851, Note_on_c, 0, 45, 65
1, 1087860, Note_on_c, 0, 33, 63
1, 1087866, Note_off_c, 0, 72, 70
1, 1087887, Note_off_c, 0, 45, 64
1, 1087895, Note_off_c, 0, 33, 56
1, 1087970, Note_on_c, 0, 70, 80
1, 1087973, Note_on_c, 0, 46, 75
1, 1087997, Note_off_c, 0, 70, 68
1, 1088008, Note_off_c, 0, 46, 68
1, 1088086, Note_on_c, 0, 81, 65
1, 1088098, Note_on_c, 0, 69, 66
1, 1088106, Note_off_c, 0, 81, 65
1, 1088106, Note_on_c, 0, 48, 61
1, 1088116, Note_on_c, 0, 36, 32
1, 1088130, Note_off_c, 0, 69, 66
1, 1088143, Note_off_c, 0, 48, 64
1, 1088169, Note_off_c, 0, 36, 31
1, 1088187, Note_on_c, 0, 52, 79
1, 1088200, Note_on_c, 0, 67, 74
1, 1088217, Note_off_c, 0, 52, 66
1, 1088230, Note_off_c, 0, 67, 69
1, 1088338, Note_on_c, 0, 89, 85
1, 1088357, Note_on_c, 0, 77, 67
1, 1088361, Note_off_c, 0, 89, 65
1, 1088365, Note_on_c, 0, 26, 67
1, 1088373, Note_on_c, 0, 38, 67
1, 1088374, Note_on_c, 0, 87, 31
1, 1088380, Note_off_c, 0, 77, 66
1, 1088406, Note_on_c, 0, 28, 43
1, 1088407, Note_off_c, 0, 26, 60
1, 1088415, Note_off_c, 0, 38, 64
1, 1088419, Note_off_c, 0, 87, 35
1, 1088459, Note_off_c, 0, 28, 45
1, 1088480, Note_on_c, 0, 76, 77
1, 1088511, Note_on_c, 0, 40, 39
1, 1088514, Note_off_c, 0, 76, 66
1, 1088557, Note_off_c, 0, 40, 33
1, 1088614, Note_on_c, 0, 86, 54
1, 1088618, Note_on_c, 0, 74, 62
1, 1088623, Note_on_c, 0, 41, 44
1, 1088625, Note_on_c, 0, 29, 48
1, 1088625, Poly_aftertouch_c, 0, 38, 0
1, 1088628, Note_on_c, 0, 84, 57
1, 1088639, Note_off_c, 0, 74, 64
1, 1088640, Note_off_c, 0, 86, 42
1, 1088656, Note_off_c, 0, 84, 61
1, 1088662, Note_off_c, 0, 41, 48
1, 1088671, Note_off_c, 0, 29, 47
1, 1088723, Note_on_c, 0, 72, 78
1, 1088737, Note_on_c, 0, 45, 49
1, 1088750, Note_off_c, 0, 72, 67
1, 1088775, Note_off_c, 0, 45, 34
1, 1088846, Note_on_c, 0, 46, 67
1, 1088849, Note_on_c, 0, 82, 68
1, 1088853, Note_on_c, 0, 34, 69
1, 1088861, Note_on_c, 0, 70, 63
1, 1088878, Note_off_c, 0, 82, 72
1, 1088881, Note_off_c, 0, 46, 67
1, 1088885, Note_off_c, 0, 34, 65
1, 1088898, Note_off_c, 0, 70, 67
1, 1088924, Poly_aftertouch_c, 0, 80, 0
1, 1088987, Note_on_c, 0, 50, 54
1, 1088992, Note_on_c, 0, 70, 33
1, 1088996, Note_on_c, 0, 69, 42
1, 1089022, Note_off_c, 0, 50, 57
1, 1089033, Note_off_c, 0, 69, 37
1, 1089034, Note_off_c, 0, 70, 33
1, 1089089, Note_on_c, 0, 80, 64
1, 1089091, Note_on_c, 0, 40, 60
1, 1089101, Note_on_c, 0, 52, 47
1, 1089124, Note_off_c, 0, 80, 71
1, 1089127, Note_off_c, 0, 40, 55
1, 1089131, Note_on_c, 0, 68, 36
1, 1089142, Note_off_c, 0, 52, 51
1, 1089161, Note_on_c, 0, 78, 14
1, 1089170, Note_off_c, 0, 78, 37
1, 1089177, Note_off_c, 0, 68, 33
1, 1089213, Note_on_c, 0, 64, 64
1, 1089234, Note_on_c, 0, 56, 59
1, 1089237, Note_off_c, 0, 64, 61
1, 1089269, Note_off_c, 0, 56, 62
1, 1089347, Note_on_c, 0, 81, 79
1, 1089360, Note_on_c, 0, 60, 68
1, 1089363, Note_on_c, 0, 69, 64
1, 1089364, Note_on_c, 0, 48, 61
1, 1089376, Note_on_c, 0, 78, 34
1, 1089377, Note_off_c, 0, 81, 57
1, 1089386, Note_off_c, 0, 69, 62
1, 1089396, Note_off_c, 0, 60, 64
1, 1089416, Note_off_c, 0, 78, 50
1, 1089432, Note_off_c, 0, 48, 47
1, 1089483, Note_on_c, 0, 71, 57
1, 1089490, Note_on_c, 0, 59, 43
1, 1089509, Note_off_c, 0, 71, 60
1, 1089524, Note_off_c, 0, 59, 50
1, 1089597, Note_on_c, 0, 84, 81
1, 1089611, Note_on_c, 0, 72, 71
1, 1089626, Note_on_c, 0, 57, 59
1, 1089632, Note_on_c, 0, 82, 40
1, 1089635, Note_on_c, 0, 45, 63
1, 1089642, Note_off_c, 0, 72, 63
1, 1089666, Note_off_c, 0, 57, 55
1, 1089667, Note_off_c, 0, 84, 60
1, 1089676, Note_off_c, 0, 82, 58
1, 1089730, Note_on_c, 0, 76, 64
1, 1089736, Note_on_c, 0, 52, 64
1, 1089752, Note_off_c, 0, 76, 63
1, 1089763, Note_off_c, 0, 45, 33
1, 1089771, Note_off_c, 0, 52, 63
1, 1089863, Note_on_c, 0, 93, 83
1, 1089884, Note_on_c, 0, 81, 65
1, 1089890, Note_on_c, 0, 48, 67
1, 1089904, Note_on_c, 0, 36, 52
1, 1089921, Note_off_c, 0, 81, 57
1, 1089934, Note_off_c, 0, 48, 61
1, 1089940, Note_on_c, 0, 38, 31
1, 1089943, Note_off_c, 0, 36, 54
1, 1089966, Note_off_c, 0, 93, 60
1, 1089984, Note_off_c, 0, 38, 44
1, 1089992, Note_on_c, 0, 88, 67
1, 1090013, Note_on_c, 0, 47, 63
1, 1090020, Note_off_c, 0, 88, 70
1, 1090049, Note_off_c, 0, 47, 66
1, 1090173, Note_on_c, 0, 105, 79
1, 1090193, Note_on_c, 0, 33, 64
1, 1090195, Note_on_c, 0, 93, 60
1, 1090203, Note_on_c, 0, 45, 45
1, 1090205, Note_off_c, 0, 105, 70
1, 1090219, Note_off_c, 0, 93, 64
1, 1090235, Note_on_c, 0, 103, 13
1, 1090236, Note_off_c, 0, 33, 62
1, 1090236, Note_off_c, 0, 103, 127
1, 1090245, Note_off_c, 0, 45, 36
1, 1091004, Control_c, 0, 67, 122
1, 1091004, Control_c, 1, 67, 122
1, 1091024, Control_c, 1, 67, 117
1, 1091024, Control_c, 0, 67, 117
1, 1091042, Control_c, 0, 67, 109
1, 1091042, Control_c, 1, 67, 109
1, 1091061, Control_c, 1, 67, 99
1, 1091061, Control_c, 0, 67, 99
1, 1091080, Control_c, 0, 67, 88
1, 1091080, Control_c, 1, 67, 88
1, 1091099, Control_c, 1, 67, 75
1, 1091099, Control_c, 0, 67, 75
1, 1091118, Control_c, 0, 67, 63
1, 1091118, Control_c, 1, 67, 63
1, 1091137, Control_c, 1, 67, 53
1, 1091137, Control_c, 0, 67, 53
1, 1091155, Control_c, 0, 67, 43
1, 1091155, Control_c, 1, 67, 43
1, 1091173, Control_c, 1, 67, 33
1, 1091173, Control_c, 0, 67, 33
1, 1091192, Control_c, 0, 67, 24
1, 1091192, Control_c, 1, 67, 24
1, 1091210, Control_c, 1, 67, 16
1, 1091210, Control_c, 0, 67, 16
1, 1091230, Control_c, 0, 67, 9
1, 1091230, Control_c, 1, 67, 9
1, 1091267, Control_c, 1, 67, 0
1, 1091267, Control_c, 0, 67, 0
1, 1091341, Control_c, 0, 64, 10
1, 1091341, Control_c, 1, 64, 10
1, 1091379, Control_c, 1, 64, 18
1, 1091379, Control_c, 0, 64, 18
1, 1091398, Control_c, 0, 64, 25
1, 1091398, Control_c, 1, 64, 25
1, 1091416, Control_c, 1, 64, 34
1, 1091416, Control_c, 0, 64, 34
1, 1091436, Control_c, 0, 64, 44
1, 1091436, Control_c, 1, 64, 44
1, 1091454, Control_c, 1, 64, 52
1, 1091454, Control_c, 0, 64, 52
1, 1091473, Control_c, 0, 64, 58
1, 1091473, Control_c, 1, 64, 58
1, 1091492, Control_c, 1, 64, 63
1, 1091492, Control_c, 0, 64, 63
1, 1091511, Control_c, 0, 64, 69
1, 1091511, Control_c, 1, 64, 69
1, 1091529, Control_c, 1, 64, 76
1, 1091529, Control_c, 0, 64, 76
1, 1091549, Control_c, 0, 64, 91
1, 1091549, Control_c, 1, 64, 91
1, 1091567, Control_c, 1, 64, 127
1, 1091567, Control_c, 0, 64, 127
1, 1093796, Note_on_c, 0, 41, 29
1, 1093874, Note_on_c, 0, 84, 58
1, 1093913, Note_on_c, 0, 81, 31
1, 1093920, Note_on_c, 0, 72, 24
1, 1094426, Note_on_c, 0, 48, 30
1, 1094440, Note_off_c, 0, 72, 37
1, 1094722, Note_off_c, 0, 41, 40
1, 1094731, Note_off_c, 0, 48, 49
1, 1094776, Note_on_c, 0, 53, 36
1, 1094778, Note_on_c, 0, 86, 69
1, 1094847, Note_on_c, 0, 74, 15
1, 1094890, Note_off_c, 0, 84, 34
1, 1094969, Note_off_c, 0, 53, 49
1, 1095021, Note_off_c, 0, 74, 43
1, 1095035, Note_on_c, 0, 57, 53
1, 1095190, Note_on_c, 0, 84, 70
1, 1095223, Note_on_c, 0, 72, 42
1, 1095267, Note_on_c, 0, 60, 53
1, 1095348, Note_off_c, 0, 86, 55
1, 1095352, Note_off_c, 0, 72, 53
1, 1095425, Note_off_c, 0, 60, 60
1, 1095447, Note_on_c, 0, 65, 56
1, 1095451, Note_off_c, 0, 57, 63
1, 1095639, Note_on_c, 0, 83, 27
1, 1095662, Note_on_c, 0, 89, 80
1, 1095693, Note_off_c, 0, 65, 58
1, 1095701, Note_on_c, 0, 77, 56
1, 1095722, Note_on_c, 0, 69, 44
1, 1095723, Note_off_c, 0, 83, 39
1, 1095723, Note_off_c, 0, 84, 54
1, 1095752, Note_off_c, 0, 81, 53
1, 1095849, Note_off_c, 0, 77, 60
1, 1095850, Note_off_c, 0, 89, 64
1, 1095865, Note_off_c, 0, 69, 60
1, 1095914, Note_on_c, 0, 65, 48
1, 1096107, Note_on_c, 0, 81, 71
1, 1096135, Note_on_c, 0, 69, 38
1, 1096160, Note_on_c, 0, 60, 30
1, 1096181, Note_off_c, 0, 69, 44
1, 1096209, Note_off_c, 0, 65, 32
1, 1096330, Note_on_c, 0, 57, 48
1, 1096364, Note_off_c, 0, 60, 41
1, 1096449, Note_off_c, 0, 57, 61
1, 1096501, Note_on_c, 0, 86, 80
1, 1096509, Note_off_c, 0, 81, 58
1, 1096516, Note_on_c, 0, 74, 60
1, 1096633, Note_on_c, 0, 53, 28
1, 1096699, Note_off_c, 0, 74, 56
1, 1096747, Note_on_c, 0, 48, 36
1, 1096880, Note_off_c, 0, 53, 34
1, 1096895, Note_off_c, 0, 48, 51
1, 1096904, Note_on_c, 0, 40, 46
1, 1097049, Note_on_c, 0, 83, 75
1, 1097051, Control_c, 0, 64, 86
1, 1097051, Control_c, 1, 64, 86
1, 1097054, Note_on_c, 0, 71, 50
1, 1097068, Note_on_c, 0, 79, 51
1, 1097069, Control_c, 0, 64, 55
1, 1097069, Control_c, 1, 64, 55
1, 1097088, Control_c, 1, 64, 26
1, 1097088, Control_c, 0, 64, 26
1, 1097114, Note_off_c, 0, 86, 38
1, 1097150, Note_off_c, 0, 71, 64
1, 1097150, Note_on_c, 0, 71, 17
1, 1097163, Control_c, 0, 64, 17
1, 1097163, Control_c, 1, 64, 17
1, 1097184, Control_c, 1, 64, 43
1, 1097184, Control_c, 0, 64, 43
1, 1097201, Control_c, 0, 64, 82
1, 1097201, Control_c, 1, 64, 82
1, 1097219, Control_c, 1, 64, 127
1, 1097219, Control_c, 0, 64, 127
1, 1097323, Note_off_c, 0, 40, 45
1, 1097347, Note_on_c, 0, 52, 40
1, 1097377, Note_off_c, 0, 71, 37
1, 1097522, Note_on_c, 0, 84, 66
1, 1097565, Note_off_c, 0, 52, 40
1, 1097582, Note_on_c, 0, 55, 39
1, 1097608, Note_off_c, 0, 83, 59
1, 1097608, Note_on_c, 0, 72, 28
1, 1097730, Note_off_c, 0, 55, 60
1, 1097784, Note_on_c, 0, 60, 46
1, 1098008, Note_on_c, 0, 50, 39
1, 1098045, Control_c, 0, 64, 89
1, 1098045, Control_c, 1, 64, 89
1, 1098063, Control_c, 1, 64, 58
1, 1098063, Control_c, 0, 64, 58
1, 1098066, Note_off_c, 0, 60, 33
1, 1098080, Control_c, 0, 64, 35
1, 1098080, Control_c, 1, 64, 35
1, 1098100, Control_c, 1, 64, 23
1, 1098100, Control_c, 0, 64, 23
1, 1098123, Note_on_c, 0, 77, 62
1, 1098155, Control_c, 0, 64, 34
1, 1098155, Control_c, 1, 64, 34
1, 1098167, Note_off_c, 0, 79, 59
1, 1098174, Control_c, 0, 64, 56
1, 1098174, Control_c, 1, 64, 56
1, 1098193, Control_c, 1, 64, 83
1, 1098193, Control_c, 0, 64, 83
1, 1098211, Control_c, 0, 64, 127
1, 1098211, Control_c, 1, 64, 127
1, 1098325, Note_on_c, 0, 55, 42
1, 1098339, Note_off_c, 0, 50, 41
1, 1098502, Note_off_c, 0, 55, 55
1, 1098584, Note_on_c, 0, 59, 21
1, 1098686, Note_off_c, 0, 59, 57
1, 1098729, Note_on_c, 0, 65, 37
1, 1098819, Note_off_c, 0, 65, 59
1, 1099016, Note_on_c, 0, 48, 39
1, 1099054, Control_c, 0, 64, 114
1, 1099054, Control_c, 1, 64, 114
1, 1099073, Control_c, 1, 64, 72
1, 1099073, Control_c, 0, 64, 72
1, 1099091, Control_c, 0, 64, 44
1, 1099091, Control_c, 1, 64, 44
1, 1099108, Note_on_c, 0, 76, 47
1, 1099110, Control_c, 0, 64, 23
1, 1099110, Control_c, 1, 64, 23
1, 1099129, Control_c, 1, 64, 13
1, 1099129, Control_c, 0, 64, 13
1, 1099171, Note_off_c, 0, 77, 58
1, 1099204, Control_c, 0, 64, 29
1, 1099204, Control_c, 1, 64, 29
1, 1099222, Control_c, 1, 64, 54
1, 1099222, Control_c, 0, 64, 54
1, 1099241, Control_c, 0, 64, 83
1, 1099241, Control_c, 1, 64, 83
1, 1099260, Control_c, 1, 64, 127
1, 1099260, Control_c, 0, 64, 127
1, 1099386, Note_on_c, 0, 55, 25
1, 1099551, Note_off_c, 0, 55, 48
1, 1099575, Note_off_c, 0, 48, 49
1, 1099604, Note_on_c, 0, 60, 32
1, 1099679, Note_off_c, 0, 84, 39
1, 1099692, Note_off_c, 0, 76, 56
1, 1099706, Note_off_c, 0, 72, 38
1, 1099853, Note_on_c, 0, 64, 36
1, 1099879, Note_off_c, 0, 60, 36
1, 1099902, Note_off_c, 0, 64, 52
1, 1100231, Note_on_c, 0, 38, 41
1, 1100376, Note_on_c, 0, 81, 66
1, 1100402, Control_c, 0, 64, 79
1, 1100402, Control_c, 1, 64, 79
1, 1100420, Control_c, 1, 64, 52
1, 1100420, Note_on_c, 0, 77, 42
1, 1100420, Control_c, 0, 64, 52
1, 1100424, Note_on_c, 0, 69, 32
1, 1100439, Control_c, 0, 64, 31
1, 1100439, Control_c, 1, 64, 31
1, 1100458, Control_c, 1, 64, 21
1, 1100458, Control_c, 0, 64, 21
1, 1100514, Control_c, 0, 64, 26
1, 1100514, Control_c, 1, 64, 26
1, 1100533, Control_c, 1, 64, 43
1, 1100533, Control_c, 0, 64, 43
1, 1100552, Control_c, 0, 64, 70
1, 1100552, Control_c, 1, 64, 70
1, 1100570, Control_c, 1, 64, 107
1, 1100570, Control_c, 0, 64, 107
1, 1100588, Control_c, 0, 64, 127
1, 1100588, Control_c, 1, 64, 127
1, 1100622, Note_on_c, 0, 45, 43
1, 1100652, Note_off_c, 0, 69, 52
1, 1100802, Note_off_c, 0, 45, 61
1, 1100829, Note_off_c, 0, 38, 41
1, 1100833, Note_on_c, 0, 82, 79
1, 1100861, Note_on_c, 0, 50, 45
1, 1100885, Note_on_c, 0, 70, 39
1, 1100955, Note_off_c, 0, 50, 60
1, 1100988, Note_off_c, 0, 81, 37
1, 1101015, Note_on_c, 0, 53, 54
1, 1101159, Note_off_c, 0, 70, 40
1, 1101220, Note_on_c, 0, 81, 80
1, 1101237, Note_on_c, 0, 57, 48
1, 1101237, Note_on_c, 0, 69, 52
1, 1101253, Note_off_c, 0, 82, 64
1, 1101315, Note_off_c, 0, 69, 41
1, 1101382, Note_off_c, 0, 57, 62
1, 1101400, Note_off_c, 0, 53, 59
1, 1101415, Note_on_c, 0, 62, 48
1, 1101594, Note_on_c, 0, 86, 71
1, 1101629, Note_off_c, 0, 81, 53
1, 1101642, Note_off_c, 0, 62, 57
1, 1101643, Note_off_c, 0, 77, 37
1, 1101653, Note_on_c, 0, 74, 16
1, 1101656, Note_on_c, 0, 65, 44
1, 1101747, Note_off_c, 0, 65, 59
1, 1101779, Note_off_c, 0, 86, 63
1, 1101786, Note_off_c, 0, 74, 30
1, 1101816, Note_on_c, 0, 62, 50
1, 1102000, Note_on_c, 0, 77, 71
1, 1102012, Note_on_c, 0, 57, 38
1, 1102048, Note_off_c, 0, 62, 36
1, 1102143, Poly_aftertouch_c, 0, 65, 127
1, 1102170, Poly_aftertouch_c, 0, 65, 0
1, 1102197, Note_off_c, 0, 57, 52
1, 1102197, Note_on_c, 0, 53, 40
1, 1102273, Note_off_c, 0, 53, 58
1, 1102414, Note_on_c, 0, 50, 31
1, 1102417, Note_on_c, 0, 82, 71
1, 1102449, Note_off_c, 0, 77, 55
1, 1102458, Note_on_c, 0, 70, 31
1, 1102604, Note_on_c, 0, 45, 33
1, 1102610, Note_off_c, 0, 50, 38
1, 1102689, Note_off_c, 0, 70, 45
1, 1102812, Note_on_c, 0, 36, 44
1, 1102814, Note_off_c, 0, 45, 42
1, 1102835, Control_c, 0, 64, 101
1, 1102835, Control_c, 1, 64, 101
1, 1102854, Control_c, 1, 64, 62
1, 1102854, Control_c, 0, 64, 62
1, 1102873, Control_c, 0, 64, 30
1, 1102873, Control_c, 1, 64, 30
1, 1102900, Note_on_c, 0, 80, 72
1, 1102922, Note_on_c, 0, 76, 56
1, 1102927, Note_on_c, 0, 68, 41
1, 1102967, Control_c, 0, 64, 15
1, 1102967, Control_c, 1, 64, 15
1, 1102985, Control_c, 1, 64, 38
1, 1102985, Control_c, 0, 64, 38
1, 1103003, Note_off_c, 0, 82, 60
1, 1103003, Control_c, 0, 64, 69
1, 1103003, Control_c, 1, 64, 69
1, 1103024, Control_c, 1, 64, 115
1, 1103024, Control_c, 0, 64, 115
1, 1103040, Control_c, 0, 64, 127
1, 1103040, Control_c, 1, 64, 127
1, 1103127, Note_off_c, 0, 36, 58
1, 1103173, Note_on_c, 0, 48, 41
1, 1103216, Note_off_c, 0, 68, 49
1, 1103335, Note_on_c, 0, 81, 62
1, 1103339, Note_off_c, 0, 48, 52
1, 1103379, Note_on_c, 0, 69, 34
1, 1103393, Note_off_c, 0, 80, 63
1, 1103407, Note_on_c, 0, 52, 37
1, 1103535, Note_off_c, 0, 52, 54
1, 1103569, Note_on_c, 0, 57, 50
1, 1103772, Note_on_c, 0, 46, 50
1, 1103789, Control_c, 0, 64, 79
1, 1103789, Control_c, 1, 64, 79
1, 1103810, Control_c, 1, 64, 47
1, 1103810, Control_c, 0, 64, 47
1, 1103827, Control_c, 0, 64, 15
1, 1103827, Control_c, 1, 64, 15
1, 1103840, Note_off_c, 0, 57, 35
1, 1103844, Control_c, 0, 64, 0
1, 1103844, Control_c, 1, 64, 0
1, 1103873, Note_off_c, 0, 76, 61
1, 1103873, Note_on_c, 0, 74, 52
1, 1103940, Control_c, 0, 64, 17
1, 1103940, Control_c, 1, 64, 17
1, 1103958, Control_c, 1, 64, 34
1, 1103958, Control_c, 0, 64, 34
1, 1103977, Control_c, 0, 64, 57
1, 1103977, Control_c, 1, 64, 57
1, 1103995, Control_c, 1, 64, 78
1, 1103995, Control_c, 0, 64, 78
1, 1104015, Control_c, 0, 64, 96
1, 1104015, Control_c, 1, 64, 96
1, 1104032, Control_c, 1, 64, 127
1, 1104032, Control_c, 0, 64, 127
1, 1104099, Note_off_c, 0, 46, 55
1, 1104113, Note_on_c, 0, 52, 44
1, 1104368, Poly_aftertouch_c, 0, 52, 24
1, 1104391, Note_on_c, 0, 56, 39
1, 1104394, Note_off_c, 0, 52, 34
1, 1104394, Poly_aftertouch_c, 0, 52, 0
1, 1104602, Note_on_c, 0, 62, 40
1, 1104603, Note_off_c, 0, 56, 36
1, 1104662, Note_off_c, 0, 62, 62
1, 1104688, Control_c, 0, 67, 9
1, 1104688, Control_c, 1, 67, 9
1, 1104744, Control_c, 1, 67, 14
1, 1104744, Control_c, 0, 67, 14
1, 1104912, Note_on_c, 0, 45, 42
1, 1104969, Control_c, 0, 64, 92
1, 1104969, Control_c, 1, 64, 92
1, 1104988, Control_c, 1, 64, 59
1, 1104988, Control_c, 0, 64, 59
1, 1105006, Control_c, 0, 64, 30
1, 1105006, Control_c, 1, 64, 30
1, 1105030, Note_on_c, 0, 73, 50
1, 1105043, Control_c, 0, 64, 0
1, 1105043, Control_c, 1, 64, 0
1, 1105104, Note_off_c, 0, 74, 54
1, 1105118, Control_c, 0, 67, 18
1, 1105118, Control_c, 1, 67, 18
1, 1105157, Control_c, 1, 64, 9
1, 1105157, Control_c, 0, 64, 9
1, 1105158, Control_c, 0, 67, 23
1, 1105158, Control_c, 1, 67, 23
1, 1105175, Control_c, 1, 64, 13
1, 1105175, Control_c, 0, 64, 13
1, 1105194, Control_c, 0, 64, 19
1, 1105194, Control_c, 1, 64, 19
1, 1105213, Control_c, 1, 64, 30
1, 1105213, Control_c, 0, 64, 30
1, 1105214, Control_c, 0, 67, 27
1, 1105214, Control_c, 1, 67, 27
1, 1105231, Control_c, 1, 64, 50
1, 1105231, Control_c, 0, 64, 50
1, 1105249, Control_c, 0, 64, 71
1, 1105249, Control_c, 1, 64, 71
1, 1105269, Control_c, 1, 64, 86
1, 1105269, Control_c, 0, 64, 86
1, 1105272, Control_c, 0, 67, 32
1, 1105272, Control_c, 1, 67, 32
1, 1105287, Control_c, 1, 64, 101
1, 1105287, Control_c, 0, 64, 101
1, 1105305, Control_c, 0, 64, 112
1, 1105305, Control_c, 1, 64, 112
1, 1105325, Control_c, 1, 64, 127
1, 1105325, Control_c, 0, 64, 127
1, 1105326, Control_c, 0, 67, 36
1, 1105326, Control_c, 1, 67, 36
1, 1105335, Note_on_c, 0, 52, 31
1, 1105362, Control_c, 0, 67, 42
1, 1105362, Control_c, 1, 67, 42
1, 1105549, Note_off_c, 0, 69, 36
1, 1105608, Note_off_c, 0, 45, 33
1, 1105616, Note_off_c, 0, 52, 39
1, 1105616, Poly_aftertouch_c, 0, 52, 0
1, 1105627, Note_on_c, 0, 57, 31
1, 1105717, Control_c, 0, 67, 46
1, 1105717, Control_c, 1, 67, 46
1, 1105722, Note_off_c, 0, 73, 58
1, 1105755, Control_c, 0, 67, 51
1, 1105755, Control_c, 1, 67, 51
1, 1105774, Control_c, 1, 67, 56
1, 1105774, Control_c, 0, 67, 56
1, 1105790, Note_off_c, 0, 81, 60
1, 1105792, Control_c, 0, 67, 61
1, 1105792, Control_c, 1, 67, 61
1, 1105811, Control_c, 1, 67, 65
1, 1105811, Control_c, 0, 67, 65
1, 1105848, Control_c, 0, 67, 72
1, 1105848, Control_c, 1, 67, 72
1, 1105868, Control_c, 1, 67, 76
1, 1105868, Control_c, 0, 67, 76
1, 1105886, Control_c, 0, 67, 80
1, 1105886, Control_c, 1, 67, 80
1, 1105904, Control_c, 1, 67, 86
1, 1105904, Control_c, 0, 67, 86
1, 1105920, Note_on_c, 0, 61, 33
1, 1105922, Note_off_c, 0, 57, 41
1, 1105923, Control_c, 0, 67, 92
1, 1105923, Control_c, 1, 67, 92
1, 1105943, Control_c, 1, 67, 98
1, 1105943, Control_c, 0, 67, 98
1, 1105962, Control_c, 0, 67, 104
1, 1105962, Control_c, 1, 67, 104
1, 1105979, Control_c, 1, 67, 111
1, 1105979, Control_c, 0, 67, 111
1, 1105993, Note_off_c, 0, 61, 49
1, 1105997, Control_c, 0, 67, 120
1, 1105997, Control_c, 1, 67, 120
1, 1106018, Control_c, 1, 67, 127
1, 1106018, Control_c, 0, 67, 127
1, 1106650, Note_on_c, 0, 41, 39
1, 1106823, Note_on_c, 0, 81, 72
1, 1106841, Control_c, 0, 64, 79
1, 1106841, Control_c, 1, 64, 79
1, 1106860, Control_c, 1, 64, 55
1, 1106860, Control_c, 0, 64, 55
1, 1106872, Note_on_c, 0, 72, 34
1, 1106876, Note_on_c, 0, 84, 38
1, 1106880, Control_c, 0, 64, 39
1, 1106880, Control_c, 1, 64, 39
1, 1106935, Control_c, 1, 64, 47
1, 1106935, Control_c, 0, 64, 47
1, 1106953, Control_c, 0, 64, 61
1, 1106953, Control_c, 1, 64, 61
1, 1106972, Control_c, 1, 64, 73
1, 1106972, Control_c, 0, 64, 73
1, 1106990, Control_c, 0, 64, 86
1, 1106990, Control_c, 1, 64, 86
1, 1107009, Control_c, 1, 64, 108
1, 1107009, Control_c, 0, 64, 108
1, 1107028, Control_c, 0, 64, 127
1, 1107028, Control_c, 1, 64, 127
1, 1107152, Poly_aftertouch_c, 0, 72, 24
1, 1107218, Note_off_c, 0, 72, 36
1, 1107218, Poly_aftertouch_c, 0, 72, 0
1, 1107308, Note_on_c, 0, 48, 31
1, 1107497, Note_off_c, 0, 48, 52
1, 1107510, Note_off_c, 0, 41, 37
1, 1107529, Note_on_c, 0, 86, 58
1, 1107558, Note_on_c, 0, 74, 34
1, 1107560, Note_on_c, 0, 53, 42
1, 1107570, Note_off_c, 0, 84, 39
1, 1107651, Note_off_c, 0, 53, 54
1, 1107729, Note_on_c, 0, 57, 53
1, 1107766, Note_off_c, 0, 74, 40
1, 1107929, Note_on_c, 0, 84, 62
1, 1107940, Note_on_c, 0, 60, 57
1, 1108026, Note_off_c, 0, 86, 37
1, 1108045, Poly_aftertouch_c, 0, 72, 0
1, 1108091, Note_off_c, 0, 57, 61
1, 1108116, Note_on_c, 0, 65, 56
1, 1108122, Note_off_c, 0, 60, 34
1, 1108313, Note_off_c, 0, 65, 49
1, 1108324, Note_on_c, 0, 89, 62
1, 1108325, Note_off_c, 0, 84, 52
1, 1108340, Note_on_c, 0, 69, 45
1, 1108345, Note_on_c, 0, 77, 34
1, 1108357, Note_off_c, 0, 81, 46
1, 1108399, Note_off_c, 0, 77, 45
1, 1108400, Note_off_c, 0, 89, 60
1, 1108488, Note_off_c, 0, 69, 56
1, 1108560, Note_on_c, 0, 65, 37
1, 1108770, Note_on_c, 0, 81, 53
1, 1108781, Note_on_c, 0, 69, 41
1, 1108790, Note_on_c, 0, 60, 39
1, 1108820, Note_off_c, 0, 69, 49
1, 1108828, Note_off_c, 0, 65, 37
1, 1108946, Note_on_c, 0, 57, 47
1, 1108981, Note_off_c, 0, 60, 33
1, 1109053, Note_off_c, 0, 57, 61
1, 1109137, Note_off_c, 0, 81, 53
1, 1109144, Note_on_c, 0, 86, 63
1, 1109167, Note_on_c, 0, 74, 38
1, 1109172, Note_on_c, 0, 53, 33
1, 1109311, Note_off_c, 0, 74, 49
1, 1109316, Note_on_c, 0, 48, 51
1, 1109370, Note_off_c, 0, 53, 32
1, 1109462, Note_off_c, 0, 48, 57
1, 1109505, Note_on_c, 0, 40, 47
1, 1109555, Control_c, 0, 64, 119
1, 1109555, Control_c, 1, 64, 119
1, 1109574, Control_c, 1, 64, 73
1, 1109574, Control_c, 0, 64, 73
1, 1109592, Control_c, 0, 64, 45
1, 1109592, Control_c, 1, 64, 45
1, 1109603, Note_on_c, 0, 79, 78
1, 1109611, Control_c, 0, 64, 23
1, 1109611, Control_c, 1, 64, 23
1, 1109632, Control_c, 1, 64, 12
1, 1109632, Control_c, 0, 64, 12
1, 1109641, Note_on_c, 0, 71, 51
1, 1109660, Note_on_c, 0, 83, 54
1, 1109705, Control_c, 0, 64, 18
1, 1109705, Control_c, 1, 64, 18
1, 1109707, Note_off_c, 0, 86, 38
1, 1109724, Control_c, 0, 64, 31
1, 1109724, Control_c, 1, 64, 31
1, 1109742, Control_c, 1, 64, 51
1, 1109742, Control_c, 0, 64, 51
1, 1109761, Control_c, 0, 64, 71
1, 1109761, Control_c, 1, 64, 71
1, 1109780, Control_c, 1, 64, 87
1, 1109780, Control_c, 0, 64, 87
1, 1109798, Control_c, 0, 64, 104
1, 1109798, Control_c, 1, 64, 104
1, 1109817, Control_c, 1, 64, 127
1, 1109817, Control_c, 0, 64, 127
1, 1109889, Note_off_c, 0, 40, 46
1, 1109892, Note_off_c, 0, 71, 37
1, 1109953, Note_on_c, 0, 52, 21
1, 1110094, Note_on_c, 0, 84, 56
1, 1110129, Note_off_c, 0, 52, 38
1, 1110129, Poly_aftertouch_c, 0, 52, 0
1, 1110130, Note_on_c, 0, 72, 38
1, 1110140, Note_off_c, 0, 83, 36
1, 1110146, Note_on_c, 0, 55, 41
1, 1110250, Note_off_c, 0, 55, 43
1, 1110327, Note_on_c, 0, 60, 44
1, 1110487, Note_off_c, 0, 60, 50
1, 1110511, Note_on_c, 0, 50, 40
1, 1110547, Control_c, 0, 64, 87
1, 1110547, Control_c, 1, 64, 87
1, 1110567, Control_c, 1, 64, 56
1, 1110567, Control_c, 0, 64, 56
1, 1110585, Control_c, 0, 64, 31
1, 1110585, Control_c, 1, 64, 31
1, 1110603, Control_c, 1, 64, 19
1, 1110603, Control_c, 0, 64, 19
1, 1110606, Note_on_c, 0, 77, 68
1, 1110628, Note_off_c, 0, 79, 60
1, 1110641, Control_c, 0, 64, 25
1, 1110641, Control_c, 1, 64, 25
1, 1110659, Control_c, 1, 64, 42
1, 1110659, Control_c, 0, 64, 42
1, 1110678, Control_c, 0, 64, 69
1, 1110678, Control_c, 1, 64, 69
1, 1110698, Control_c, 1, 64, 98
1, 1110698, Control_c, 0, 64, 98
1, 1110716, Control_c, 0, 64, 127
1, 1110716, Control_c, 1, 64, 127
1, 1110818, Note_off_c, 0, 50, 37
1, 1110833, Note_on_c, 0, 55, 41
1, 1110996, Note_off_c, 0, 55, 57
1, 1111039, Note_on_c, 0, 59, 37
1, 1111170, Note_off_c, 0, 59, 58
1, 1111211, Note_on_c, 0, 65, 37
1, 1111284, Note_off_c, 0, 65, 60
1, 1111496, Note_on_c, 0, 48, 37
1, 1111520, Control_c, 0, 64, 105
1, 1111520, Control_c, 1, 64, 105
1, 1111540, Control_c, 1, 64, 71
1, 1111540, Control_c, 0, 64, 71
1, 1111552, Note_on_c, 0, 76, 60
1, 1111558, Control_c, 0, 64, 47
1, 1111558, Control_c, 1, 64, 47
1, 1111577, Control_c, 1, 64, 29
1, 1111577, Control_c, 0, 64, 29
1, 1111595, Control_c, 0, 64, 20
1, 1111595, Control_c, 1, 64, 20
1, 1111618, Note_off_c, 0, 77, 51
1, 1111658, Note_off_c, 0, 72, 55
1, 1111659, Poly_aftertouch_c, 0, 72, 0
1, 1111670, Control_c, 0, 64, 35
1, 1111670, Control_c, 1, 64, 35
1, 1111689, Control_c, 1, 64, 55
1, 1111689, Control_c, 0, 64, 55
1, 1111708, Control_c, 0, 64, 76
1, 1111708, Control_c, 1, 64, 76
1, 1111727, Control_c, 1, 64, 98
1, 1111727, Control_c, 0, 64, 98
1, 1111745, Control_c, 0, 64, 127
1, 1111745, Control_c, 1, 64, 127
1, 1111822, Note_on_c, 0, 55, 39
1, 1111985, Note_off_c, 0, 55, 60
1, 1112013, Note_off_c, 0, 48, 54
1, 1112037, Note_on_c, 0, 60, 41
1, 1112070, Note_off_c, 0, 76, 54
1, 1112076, Note_off_c, 0, 84, 49
1, 1112273, Note_on_c, 0, 64, 32
1, 1112319, Note_off_c, 0, 60, 30
1, 1112323, Note_off_c, 0, 64, 45
1, 1112627, Note_on_c, 0, 38, 48
1, 1112739, Control_c, 0, 64, 106
1, 1112739, Control_c, 1, 64, 106
1, 1112756, Control_c, 1, 64, 74
1, 1112756, Control_c, 0, 64, 74
1, 1112763, Note_on_c, 0, 77, 64
1, 1112776, Control_c, 0, 64, 51
1, 1112776, Control_c, 1, 64, 51
1, 1112792, Control_c, 1, 64, 34
1, 1112792, Control_c, 0, 64, 34
1, 1112795, Note_on_c, 0, 81, 55
1, 1112800, Note_on_c, 0, 69, 45
1, 1112813, Control_c, 0, 64, 24
1, 1112813, Control_c, 1, 64, 24
1, 1112887, Control_c, 1, 64, 34
1, 1112887, Control_c, 0, 64, 34
1, 1112906, Control_c, 0, 64, 50
1, 1112906, Control_c, 1, 64, 50
1, 1112925, Control_c, 1, 64, 73
1, 1112925, Control_c, 0, 64, 73
1, 1112943, Control_c, 0, 64, 98
1, 1112943, Control_c, 1, 64, 98
1, 1112961, Control_c, 1, 64, 127
1, 1112961, Control_c, 0, 64, 127
1, 1113031, Note_off_c, 0, 69, 53
1, 1113102, Note_on_c, 0, 45, 30
1, 1113272, Note_off_c, 0, 45, 50
1, 1113310, Note_off_c, 0, 38, 32
1, 1113321, Note_on_c, 0, 82, 52
1, 1113346, Note_on_c, 0, 50, 36
1, 1113368, Note_on_c, 0, 70, 24
1, 1113386, Note_off_c, 0, 81, 53
1, 1113485, Note_off_c, 0, 50, 37
1, 1113541, Note_on_c, 0, 53, 46
1, 1113636, Note_off_c, 0, 70, 44
1, 1113636, Note_off_c, 0, 82, 51
1, 1113703, Note_on_c, 0, 81, 58
1, 1113757, Note_on_c, 0, 57, 48
1, 1113819, Note_off_c, 0, 57, 62
1, 1113842, Note_off_c, 0, 53, 58
1, 1113884, Note_on_c, 0, 62, 47
1, 1114064, Note_on_c, 0, 86, 53
1, 1114084, Note_on_c, 0, 74, 34
1, 1114086, Note_on_c, 0, 65, 41
1, 1114087, Note_off_c, 0, 81, 35
1, 1114090, Note_off_c, 0, 62, 33
1, 1114096, Note_off_c, 0, 77, 38
1, 1114148, Note_off_c, 0, 86, 61
1, 1114161, Note_off_c, 0, 74, 38
1, 1114170, Note_off_c, 0, 65, 55
1, 1114230, Note_on_c, 0, 62, 51
1, 1114414, Note_on_c, 0, 77, 59
1, 1114435, Note_on_c, 0, 57, 44
1, 1114443, Note_off_c, 0, 62, 37
1, 1114443, Note_on_c, 0, 65, 45
1, 1114482, Note_off_c, 0, 65, 53
1, 1114577, Note_off_c, 0, 57, 47
1, 1114588, Note_on_c, 0, 53, 45
1, 1114677, Note_off_c, 0, 53, 59
1, 1114800, Note_on_c, 0, 50, 33
1, 1114801, Note_off_c, 0, 77, 48
1, 1114805, Note_on_c, 0, 82, 60
1, 1114826, Note_on_c, 0, 70, 42
1, 1114910, Note_off_c, 0, 50, 38
1, 1114939, Note_on_c, 0, 45, 47
1, 1115048, Note_off_c, 0, 70, 38
1, 1115136, Note_on_c, 0, 36, 40
1, 1115147, Note_off_c, 0, 45, 33
1, 1115171, Control_c, 0, 64, 110
1, 1115171, Control_c, 1, 64, 110
1, 1115190, Control_c, 1, 64, 72
1, 1115190, Control_c, 0, 64, 72
1, 1115208, Control_c, 0, 64, 43
1, 1115208, Control_c, 1, 64, 43
1, 1115223, Note_on_c, 0, 76, 72
1, 1115226, Control_c, 0, 64, 17
1, 1115226, Control_c, 1, 64, 17
1, 1115249, Note_on_c, 0, 68, 54
1, 1115305, Note_on_c, 0, 80, 41
1, 1115338, Control_c, 0, 64, 33
1, 1115338, Control_c, 1, 64, 33
1, 1115358, Control_c, 1, 64, 59
1, 1115358, Control_c, 0, 64, 59
1, 1115376, Control_c, 0, 64, 85
1, 1115376, Control_c, 1, 64, 85
1, 1115395, Control_c, 1, 64, 127
1, 1115395, Control_c, 0, 64, 127
1, 1115417, Note_off_c, 0, 82, 52
1, 1115499, Note_off_c, 0, 36, 41
1, 1115511, Note_off_c, 0, 68, 58
1, 1115539, Note_on_c, 0, 48, 30
1, 1115621, Note_off_c, 0, 48, 49
1, 1115646, Note_off_c, 0, 80, 52
1, 1115685, Note_on_c, 0, 81, 55
1, 1115732, Note_on_c, 0, 69, 33
1, 1115757, Note_on_c, 0, 52, 36
1, 1115833, Note_off_c, 0, 52, 59
1, 1115833, Poly_aftertouch_c, 0, 52, 0
1, 1115921, Note_on_c, 0, 57, 40
1, 1116077, Note_on_c, 0, 46, 48
1, 1116108, Control_c, 0, 64, 87
1, 1116108, Control_c, 1, 64, 87
1, 1116124, Note_off_c, 0, 57, 31
1, 1116124, Control_c, 0, 64, 54
1, 1116124, Control_c, 1, 64, 54
1, 1116143, Control_c, 1, 64, 24
1, 1116143, Control_c, 0, 64, 24
1, 1116189, Note_on_c, 0, 74, 62
1, 1116192, Note_off_c, 0, 76, 59
1, 1116218, Control_c, 0, 64, 13
1, 1116218, Control_c, 1, 64, 13
1, 1116238, Control_c, 1, 64, 27
1, 1116238, Control_c, 0, 64, 27
1, 1116256, Control_c, 0, 64, 47
1, 1116256, Control_c, 1, 64, 47
1, 1116274, Control_c, 1, 64, 70
1, 1116274, Control_c, 0, 64, 70
1, 1116294, Control_c, 0, 64, 89
1, 1116294, Control_c, 1, 64, 89
1, 1116312, Control_c, 1, 64, 118
1, 1116312, Control_c, 0, 64, 118
1, 1116332, Control_c, 0, 64, 127
1, 1116332, Control_c, 1, 64, 127
1, 1116373, Note_off_c, 0, 46, 55
1, 1116413, Note_on_c, 0, 52, 39
1, 1116631, Note_on_c, 0, 56, 42
1, 1116712, Note_off_c, 0, 52, 29
1, 1116712, Poly_aftertouch_c, 0, 52, 0
1, 1116797, Note_off_c, 0, 56, 49
1, 1116816, Note_on_c, 0, 62, 34
1, 1116888, Note_off_c, 0, 62, 60
1, 1117187, Note_on_c, 0, 45, 46
1, 1117248, Control_c, 0, 64, 98
1, 1117248, Control_c, 1, 64, 98
1, 1117268, Control_c, 1, 64, 70
1, 1117268, Control_c, 0, 64, 70
1, 1117285, Control_c, 0, 64, 48
1, 1117285, Control_c, 1, 64, 48
1, 1117305, Control_c, 1, 64, 29
1, 1117305, Control_c, 0, 64, 29
1, 1117312, Note_on_c, 0, 73, 50
1, 1117323, Control_c, 0, 64, 13
1, 1117323, Control_c, 1, 64, 13
1, 1117372, Note_off_c, 0, 74, 55
1, 1117378, Control_c, 0, 64, 0
1, 1117378, Control_c, 1, 64, 0
1, 1117492, Control_c, 1, 64, 14
1, 1117492, Control_c, 0, 64, 14
1, 1117510, Control_c, 0, 64, 27
1, 1117510, Control_c, 1, 64, 27
1, 1117530, Control_c, 1, 64, 47
1, 1117530, Control_c, 0, 64, 47
1, 1117547, Control_c, 0, 64, 68
1, 1117547, Control_c, 1, 64, 68
1, 1117566, Control_c, 1, 64, 80
1, 1117566, Control_c, 0, 64, 80
1, 1117586, Control_c, 0, 64, 87
1, 1117586, Control_c, 1, 64, 87
1, 1117607, Note_on_c, 0, 52, 34
1, 1117622, Control_c, 0, 64, 92
1, 1117622, Control_c, 1, 64, 92
1, 1117641, Control_c, 1, 64, 99
1, 1117641, Control_c, 0, 64, 99
1, 1117660, Control_c, 0, 64, 114
1, 1117660, Control_c, 1, 64, 114
1, 1117679, Control_c, 1, 64, 127
1, 1117679, Control_c, 0, 64, 127
1, 1117861, Note_off_c, 0, 45, 53
1, 1117867, Note_off_c, 0, 52, 47
1, 1117867, Poly_aftertouch_c, 0, 52, 0
1, 1117908, Note_on_c, 0, 57, 34
1, 1118207, Note_off_c, 0, 69, 34
1, 1118243, Note_off_c, 0, 57, 40
1, 1118296, Note_on_c, 0, 61, 27
1, 1118358, Note_off_c, 0, 61, 47
1, 1118370, Note_off_c, 0, 73, 62
1, 1118389, Note_off_c, 0, 81, 56
1, 1118976, Note_on_c, 0, 41, 37
1, 1119064, Control_c, 0, 64, 85
1, 1119064, Control_c, 1, 64, 85
1, 1119083, Control_c, 1, 64, 59
1, 1119083, Control_c, 0, 64, 59
1, 1119103, Control_c, 0, 64, 41
1, 1119103, Control_c, 1, 64, 41
1, 1119120, Control_c, 1, 64, 33
1, 1119120, Control_c, 0, 64, 33
1, 1119143, Note_on_c, 0, 84, 60
1, 1119157, Control_c, 0, 64, 38
1, 1119157, Control_c, 1, 64, 38
1, 1119169, Note_on_c, 0, 72, 32
1, 1119173, Note_on_c, 0, 81, 39
1, 1119177, Control_c, 0, 64, 52
1, 1119177, Control_c, 1, 64, 52
1, 1119197, Control_c, 1, 64, 71
1, 1119197, Control_c, 0, 64, 71
1, 1119213, Control_c, 0, 64, 91
1, 1119213, Control_c, 1, 64, 91
1, 1119232, Control_c, 1, 64, 127
1, 1119232, Control_c, 0, 64, 127
1, 1119345, Control_c, 0, 67, 121
1, 1119345, Control_c, 1, 67, 121
1, 1119382, Control_c, 1, 67, 114
1, 1119382, Control_c, 0, 67, 114
1, 1119400, Control_c, 0, 67, 108
1, 1119400, Control_c, 1, 67, 108
1, 1119419, Control_c, 1, 67, 100
1, 1119419, Control_c, 0, 67, 100
1, 1119437, Control_c, 0, 67, 90
1, 1119437, Control_c, 1, 67, 90
1, 1119457, Control_c, 1, 67, 79
1, 1119457, Control_c, 0, 67, 79
1, 1119460, Note_off_c, 0, 41, 57
1, 1119476, Control_c, 0, 67, 66
1, 1119476, Control_c, 1, 67, 66
1, 1119483, Note_off_c, 0, 72, 34
1, 1119495, Control_c, 0, 67, 57
1, 1119495, Control_c, 1, 67, 57
1, 1119506, Note_on_c, 0, 53, 37
1, 1119514, Control_c, 0, 67, 52
1, 1119514, Control_c, 1, 67, 52
1, 1119729, Note_off_c, 0, 53, 35
1, 1119753, Note_on_c, 0, 86, 80
1, 1119767, Note_on_c, 0, 57, 49
1, 1119798, Note_on_c, 0, 74, 28
1, 1119830, Control_c, 0, 67, 48
1, 1119830, Control_c, 1, 67, 48
1, 1119838, Note_off_c, 0, 84, 53
1, 1119906, Control_c, 0, 67, 43
1, 1119906, Control_c, 1, 67, 43
1, 1119938, Note_off_c, 0, 74, 43
1, 1119981, Control_c, 0, 67, 39
1, 1119981, Control_c, 1, 67, 39
1, 1119989, Note_on_c, 0, 63, 50
1, 1120075, Control_c, 0, 67, 34
1, 1120075, Control_c, 1, 67, 34
1, 1120112, Control_c, 1, 67, 29
1, 1120112, Control_c, 0, 67, 29
1, 1120149, Control_c, 0, 67, 22
1, 1120149, Control_c, 1, 67, 22
1, 1120160, Note_on_c, 0, 84, 80
1, 1120177, Note_off_c, 0, 63, 61
1, 1120180, Note_on_c, 0, 72, 33
1, 1120185, Note_off_c, 0, 57, 60
1, 1120188, Control_c, 0, 67, 17
1, 1120188, Control_c, 1, 67, 17
1, 1120190, Note_on_c, 0, 65, 66
1, 1120235, Note_off_c, 0, 72, 44
1, 1120275, Note_off_c, 0, 86, 60
1, 1120318, Control_c, 0, 67, 13
1, 1120318, Control_c, 1, 67, 13
1, 1120320, Note_off_c, 0, 65, 59
1, 1120369, Note_on_c, 0, 69, 66
1, 1120572, Note_on_c, 0, 89, 85
1, 1120617, Control_c, 0, 67, 8
1, 1120617, Control_c, 1, 67, 8
1, 1120623, Note_off_c, 0, 84, 59
1, 1120627, Note_on_c, 0, 77, 41
1, 1120629, Note_on_c, 0, 75, 58
1, 1120634, Note_off_c, 0, 69, 58
1, 1120779, Note_off_c, 0, 89, 63
1, 1120788, Note_off_c, 0, 77, 25
1, 1120803, Note_on_c, 0, 69, 62
1, 1120806, Note_off_c, 0, 81, 61
1, 1120814, Note_off_c, 0, 75, 64
1, 1120897, Note_off_c, 0, 69, 60
1, 1120985, Note_on_c, 0, 84, 81
1, 1121035, Note_on_c, 0, 65, 32
1, 1121114, Poly_aftertouch_c, 0, 72, 0
1, 1121142, Control_c, 0, 67, 0
1, 1121142, Control_c, 1, 67, 0
1, 1121193, Note_on_c, 0, 63, 55
1, 1121226, Poly_aftertouch_c, 0, 83, 0
1, 1121262, Note_off_c, 0, 65, 36
1, 1121366, Note_on_c, 0, 57, 46
1, 1121377, Note_off_c, 0, 63, 60
1, 1121382, Note_on_c, 0, 87, 72
1, 1121388, Note_on_c, 0, 75, 55
1, 1121443, Note_off_c, 0, 84, 55
1, 1121516, Note_on_c, 0, 53, 51
1, 1121535, Note_off_c, 0, 57, 54
1, 1121580, Note_off_c, 0, 53, 60
1, 1121659, Note_off_c, 0, 75, 55
1, 1121802, Note_on_c, 0, 41, 54
1, 1121872, Control_c, 0, 64, 82
1, 1121872, Control_c, 1, 64, 82
1, 1121890, Control_c, 1, 64, 51
1, 1121890, Control_c, 0, 64, 51
1, 1121909, Control_c, 0, 64, 23
1, 1121909, Control_c, 1, 64, 23
1, 1121924, Note_on_c, 0, 85, 77
1, 1121964, Note_on_c, 0, 73, 29
1, 1121974, Note_on_c, 0, 81, 47
1, 1122003, Control_c, 0, 64, 27
1, 1122003, Control_c, 1, 64, 27
1, 1122021, Control_c, 1, 64, 59
1, 1122021, Control_c, 0, 64, 59
1, 1122040, Control_c, 0, 64, 108
1, 1122040, Control_c, 1, 64, 108
1, 1122059, Control_c, 1, 64, 127
1, 1122059, Control_c, 0, 64, 127
1, 1122100, Note_off_c, 0, 87, 63
1, 1122130, Note_off_c, 0, 41, 57
1, 1122208, Note_on_c, 0, 53, 41
1, 1122241, Note_off_c, 0, 73, 41
1, 1122334, Note_off_c, 0, 53, 55
1, 1122363, Note_on_c, 0, 86, 75
1, 1122445, Note_on_c, 0, 74, 20
1, 1122460, Note_on_c, 0, 57, 37
1, 1122463, Note_off_c, 0, 85, 63
1, 1122513, Note_off_c, 0, 57, 63
1, 1122590, Note_on_c, 0, 62, 34
1, 1122789, Note_on_c, 0, 53, 46
1, 1122794, Note_off_c, 0, 62, 42
1, 1122847, Control_c, 0, 64, 76
1, 1122847, Control_c, 1, 64, 76
1, 1122864, Control_c, 1, 64, 48
1, 1122864, Control_c, 0, 64, 48
1, 1122882, Control_c, 0, 64, 27
1, 1122882, Control_c, 1, 64, 27
1, 1122901, Control_c, 1, 64, 19
1, 1122901, Control_c, 0, 64, 19
1, 1122928, Note_on_c, 0, 82, 69
1, 1122957, Control_c, 0, 64, 29
1, 1122957, Control_c, 1, 64, 29
1, 1122976, Control_c, 1, 64, 45
1, 1122976, Control_c, 0, 64, 45
1, 1122995, Control_c, 0, 64, 67
1, 1122995, Control_c, 1, 64, 67
1, 1123015, Control_c, 1, 64, 88
1, 1123015, Control_c, 0, 64, 88
1, 1123017, Note_off_c, 0, 81, 62
1, 1123031, Control_c, 0, 64, 127
1, 1123031, Control_c, 1, 64, 127
1, 1123089, Note_off_c, 0, 53, 48
1, 1123100, Note_on_c, 0, 58, 41
1, 1123313, Note_on_c, 0, 70, 53
1, 1123412, Note_off_c, 0, 58, 56
1, 1123440, Note_off_c, 0, 70, 56
1, 1123473, Note_on_c, 0, 62, 54
1, 1123693, Note_on_c, 0, 53, 46
1, 1123698, Note_off_c, 0, 62, 34
1, 1123705, Control_c, 0, 64, 82
1, 1123705, Control_c, 1, 64, 82
1, 1123725, Control_c, 1, 64, 53
1, 1123725, Control_c, 0, 64, 53
1, 1123741, Note_on_c, 0, 81, 62
1, 1123742, Control_c, 0, 64, 31
1, 1123742, Control_c, 1, 64, 31
1, 1123762, Control_c, 1, 64, 27
1, 1123762, Control_c, 0, 64, 27
1, 1123788, Note_off_c, 0, 82, 62
1, 1123800, Control_c, 0, 64, 43
1, 1123800, Control_c, 1, 64, 43
1, 1123819, Control_c, 1, 64, 70
1, 1123819, Control_c, 0, 64, 70
1, 1123837, Control_c, 0, 64, 127
1, 1123837, Control_c, 1, 64, 127
1, 1123893, Note_off_c, 0, 53, 57
1, 1123922, Note_on_c, 0, 57, 50
1, 1124113, Note_on_c, 0, 69, 44
1, 1124119, Note_off_c, 0, 57, 34
1, 1124229, Note_off_c, 0, 86, 35
1, 1124237, Note_off_c, 0, 69, 57
1, 1124269, Note_off_c, 0, 74, 48
1, 1124285, Note_on_c, 0, 62, 52
1, 1124332, Note_off_c, 0, 62, 64
1, 1124553, Note_on_c, 0, 40, 58
1, 1124642, Control_c, 0, 64, 112
1, 1124642, Control_c, 1, 64, 112
1, 1124661, Control_c, 1, 64, 64
1, 1124661, Control_c, 0, 64, 64
1, 1124679, Control_c, 0, 64, 29
1, 1124679, Control_c, 1, 64, 29
1, 1124686, Note_on_c, 0, 83, 65
1, 1124698, Note_on_c, 0, 84, 63
1, 1124698, Control_c, 0, 64, 10
1, 1124698, Control_c, 1, 64, 10
1, 1124721, Note_on_c, 0, 71, 40
1, 1124735, Control_c, 0, 64, 18
1, 1124735, Control_c, 1, 64, 18
1, 1124744, Note_on_c, 0, 80, 54
1, 1124754, Control_c, 0, 64, 41
1, 1124754, Control_c, 1, 64, 41
1, 1124774, Control_c, 1, 64, 76
1, 1124774, Control_c, 0, 64, 76
1, 1124791, Control_c, 0, 64, 127
1, 1124791, Control_c, 1, 64, 127
1, 1124799, Note_off_c, 0, 84, 46
1, 1124849, Note_off_c, 0, 40, 61
1, 1124899, Note_on_c, 0, 52, 50
1, 1124905, Poly_aftertouch_c, 0, 72, 0
1, 1124947, Note_off_c, 0, 71, 52
1, 1125040, Note_off_c, 0, 52, 60
1, 1125040, Poly_aftertouch_c, 0, 52, 0
1, 1125078, Note_on_c, 0, 56, 52
1, 1125081, Note_on_c, 0, 84, 82
1, 1125107, Note_on_c, 0, 72, 53
1, 1125109, Poly_aftertouch_c, 0, 81, 24
1, 1125132, Note_off_c, 0, 81, 19
1, 1125132, Poly_aftertouch_c, 0, 81, 0
1, 1125154, Note_off_c, 0, 83, 61
1, 1125239, Note_off_c, 0, 56, 62
1, 1125244, Note_off_c, 0, 72, 56
1, 1125265, Note_on_c, 0, 62, 57
1, 1125419, Note_off_c, 0, 62, 59
1, 1125452, Note_on_c, 0, 83, 80
1, 1125459, Note_on_c, 0, 64, 58
1, 1125487, Note_on_c, 0, 71, 18
1, 1125495, Note_on_c, 0, 82, 14
1, 1125496, Note_off_c, 0, 82, 127
1, 1125552, Note_off_c, 0, 71, 38
1, 1125560, Note_off_c, 0, 84, 62
1, 1125648, Note_on_c, 0, 68, 56
1, 1125692, Note_off_c, 0, 64, 53
1, 1125807, Note_on_c, 0, 88, 81
1, 1125857, Note_on_c, 0, 74, 43
1, 1125867, Note_off_c, 0, 68, 54
1, 1125876, Note_on_c, 0, 76, 35
1, 1125882, Note_off_c, 0, 83, 54
1, 1125932, Note_off_c, 0, 76, 44
1, 1125996, Note_off_c, 0, 88, 62
1, 1126006, Note_off_c, 0, 74, 52
1, 1126006, Note_on_c, 0, 68, 67
1, 1126160, Note_on_c, 0, 64, 53
1, 1126168, Note_off_c, 0, 68, 59
1, 1126184, Note_on_c, 0, 83, 77
1, 1126285, Note_off_c, 0, 64, 61
1, 1126389, Note_on_c, 0, 62, 33
1, 1126555, Note_on_c, 0, 86, 79
1, 1126573, Note_on_c, 0, 56, 50
1, 1126601, Note_off_c, 0, 62, 37
1, 1126634, Note_off_c, 0, 83, 59
1, 1126645, Note_off_c, 0, 80, 54
1, 1126723, Poly_aftertouch_c, 0, 74, 0
1, 1126743, Note_off_c, 0, 56, 57
1, 1126762, Note_on_c, 0, 52, 45
1, 1126806, Note_off_c, 0, 52, 49
1, 1126806, Poly_aftertouch_c, 0, 52, 0
1, 1126989, Note_on_c, 0, 40, 52
1, 1127000, Control_c, 0, 64, 90
1, 1127000, Control_c, 1, 64, 90
1, 1127020, Control_c, 1, 64, 59
1, 1127020, Control_c, 0, 64, 59
1, 1127038, Control_c, 0, 64, 31
1, 1127038, Control_c, 1, 64, 31
1, 1127054, Note_on_c, 0, 83, 70
1, 1127055, Control_c, 0, 64, 14
1, 1127055, Control_c, 1, 64, 14
1, 1127069, Note_on_c, 0, 80, 48
1, 1127073, Control_c, 0, 64, 10
1, 1127073, Control_c, 1, 64, 10
1, 1127124, Note_on_c, 0, 71, 30
1, 1127147, Note_off_c, 0, 86, 38
1, 1127150, Control_c, 0, 64, 22
1, 1127150, Control_c, 1, 64, 22
1, 1127169, Control_c, 1, 64, 40
1, 1127169, Control_c, 0, 64, 40
1, 1127186, Note_off_c, 0, 71, 43
1, 1127186, Control_c, 0, 64, 66
1, 1127186, Control_c, 1, 64, 66
1, 1127206, Control_c, 1, 64, 96
1, 1127206, Control_c, 0, 64, 96
1, 1127226, Control_c, 0, 64, 127
1, 1127226, Control_c, 1, 64, 127
1, 1127247, Note_off_c, 0, 40, 59
1, 1127312, Note_on_c, 0, 52, 43
1, 1127374, Note_off_c, 0, 52, 52
1, 1127374, Poly_aftertouch_c, 0, 52, 0
1, 1127482, Note_on_c, 0, 84, 76
1, 1127542, Note_on_c, 0, 72, 28
1, 1127544, Note_on_c, 0, 57, 24
1, 1127552, Note_off_c, 0, 83, 59
1, 1127622, Note_off_c, 0, 57, 57
1, 1127684, Note_on_c, 0, 60, 46
1, 1127865, Note_off_c, 0, 60, 48
1, 1127880, Control_c, 0, 64, 118
1, 1127880, Control_c, 1, 64, 118
1, 1127887, Note_on_c, 0, 52, 35
1, 1127899, Control_c, 0, 64, 72
1, 1127899, Control_c, 1, 64, 72
1, 1127918, Control_c, 1, 64, 45
1, 1127918, Control_c, 0, 64, 45
1, 1127931, Note_on_c, 0, 81, 65
1, 1127935, Control_c, 0, 64, 26
1, 1127935, Control_c, 1, 64, 26
1, 1127955, Control_c, 1, 64, 19
1, 1127955, Control_c, 0, 64, 19
1, 1128011, Control_c, 0, 64, 37
1, 1128011, Control_c, 1, 64, 37
1, 1128022, Note_off_c, 0, 80, 54
1, 1128031, Control_c, 0, 64, 65
1, 1128031, Control_c, 1, 64, 65
1, 1128048, Control_c, 1, 64, 104
1, 1128048, Control_c, 0, 64, 104
1, 1128067, Control_c, 0, 64, 127
1, 1128067, Control_c, 1, 64, 127
1, 1128105, Note_off_c, 0, 52, 55
1, 1128105, Poly_aftertouch_c, 0, 52, 0
1, 1128160, Note_on_c, 0, 57, 26
1, 1128397, Note_on_c, 0, 69, 33
1, 1128536, Note_off_c, 0, 69, 26
1, 1128555, Note_off_c, 0, 57, 51
1, 1128576, Note_on_c, 0, 60, 47
1, 1128813, Note_on_c, 0, 52, 40
1, 1128818, Note_off_c, 0, 60, 34
1, 1128819, Poly_aftertouch_c, 0, 60, 0
1, 1128853, Control_c, 0, 64, 79
1, 1128853, Control_c, 1, 64, 79
1, 1128873, Control_c, 1, 64, 46
1, 1128873, Control_c, 0, 64, 46
1, 1128891, Control_c, 0, 64, 20
1, 1128891, Control_c, 1, 64, 20
1, 1128895, Note_on_c, 0, 79, 60
1, 1128910, Control_c, 0, 64, 12
1, 1128910, Control_c, 1, 64, 12
1, 1128947, Control_c, 1, 64, 19
1, 1128947, Control_c, 0, 64, 19
1, 1128966, Control_c, 0, 64, 40
1, 1128966, Control_c, 1, 64, 40
1, 1128984, Control_c, 1, 64, 71
1, 1128984, Control_c, 0, 64, 71
1, 1129004, Control_c, 0, 64, 127
1, 1129004, Control_c, 1, 64, 127
1, 1129029, Note_off_c, 0, 81, 38
1, 1129029, Poly_aftertouch_c, 0, 81, 0
1, 1129041, Control_c, 0, 67, 8
1, 1129041, Control_c, 1, 67, 8
1, 1129115, Control_c, 1, 67, 13
1, 1129115, Control_c, 0, 67, 13
1, 1129124, Note_on_c, 0, 55, 41
1, 1129134, Control_c, 0, 67, 17
1, 1129134, Control_c, 1, 67, 17
1, 1129141, Note_off_c, 0, 52, 33
1, 1129141, Poly_aftertouch_c, 0, 52, 0
1, 1129154, Control_c, 0, 67, 22
1, 1129154, Control_c, 1, 67, 22
1, 1129172, Control_c, 1, 67, 28
1, 1129172, Control_c, 0, 67, 28
1, 1129190, Control_c, 0, 67, 34
1, 1129190, Control_c, 1, 67, 34
1, 1129211, Control_c, 1, 67, 39
1, 1129211, Control_c, 0, 67, 39
1, 1129228, Control_c, 0, 67, 43
1, 1129228, Control_c, 1, 67, 43
1, 1129265, Control_c, 1, 67, 50
1, 1129265, Control_c, 0, 67, 50
1, 1129284, Control_c, 0, 67, 54
1, 1129284, Control_c, 1, 67, 54
1, 1129302, Note_off_c, 0, 84, 45
1, 1129322, Control_c, 0, 67, 60
1, 1129322, Control_c, 1, 67, 60
1, 1129330, Poly_aftertouch_c, 0, 72, 24
1, 1129367, Note_on_c, 0, 67, 39
1, 1129409, Note_off_c, 0, 79, 56
1, 1129414, Note_off_c, 0, 72, 33
1, 1129414, Poly_aftertouch_c, 0, 72, 0
1, 1129509, Note_off_c, 0, 55, 19
1, 1129528, Note_off_c, 0, 67, 32
1, 1129584, Note_on_c, 0, 60, 33
1, 1129643, Note_off_c, 0, 60, 51
1, 1129960, Note_on_c, 0, 38, 36
1, 1130015, Control_c, 0, 64, 73
1, 1130015, Control_c, 1, 64, 73
1, 1130033, Control_c, 1, 64, 46
1, 1130033, Control_c, 0, 64, 46
1, 1130051, Control_c, 0, 64, 29
1, 1130051, Control_c, 1, 64, 29
1, 1130078, Note_on_c, 0, 81, 65
1, 1130108, Control_c, 0, 64, 38
1, 1130108, Control_c, 1, 64, 38
1, 1130114, Note_on_c, 0, 77, 40
1, 1130127, Control_c, 0, 64, 58
1, 1130127, Control_c, 1, 64, 58
1, 1130145, Control_c, 1, 64, 81
1, 1130145, Control_c, 0, 64, 81
1, 1130165, Control_c, 0, 64, 127
1, 1130165, Control_c, 1, 64, 127
1, 1130180, Poly_aftertouch_c, 0, 69, 127
1, 1130256, Note_off_c, 0, 38, 52
1, 1130276, Poly_aftertouch_c, 0, 69, 0
1, 1130306, Note_on_c, 0, 50, 44
1, 1130381, Note_off_c, 0, 50, 57
1, 1130487, Note_on_c, 0, 82, 77
1, 1130501, Note_on_c, 0, 53, 48
1, 1130533, Note_on_c, 0, 70, 34
1, 1130585, Note_off_c, 0, 70, 50
1, 1130597, Note_off_c, 0, 81, 55
1, 1130597, Poly_aftertouch_c, 0, 81, 0
1, 1130684, Note_on_c, 0, 58, 50
1, 1130831, Note_off_c, 0, 58, 60
1, 1130873, Note_on_c, 0, 86, 81
1, 1130878, Note_on_c, 0, 65, 32
1, 1130880, Note_off_c, 0, 77, 40
1, 1130968, Poly_aftertouch_c, 0, 74, 127
1, 1131051, Note_on_c, 0, 58, 46
1, 1131060, Note_off_c, 0, 65, 41
1, 1131266, Note_off_c, 0, 53, 53
1, 1131281, Note_on_c, 0, 56, 51
1, 1131324, Control_c, 0, 64, 106
1, 1131324, Control_c, 1, 64, 106
1, 1131336, Note_off_c, 0, 58, 32
1, 1131344, Control_c, 0, 64, 73
1, 1131344, Control_c, 1, 64, 73
1, 1131362, Control_c, 1, 64, 50
1, 1131362, Control_c, 0, 64, 50
1, 1131381, Control_c, 0, 64, 32
1, 1131381, Control_c, 1, 64, 32
1, 1131394, Note_on_c, 0, 77, 76
1, 1131399, Control_c, 0, 64, 24
1, 1131399, Control_c, 1, 64, 24
1, 1131455, Control_c, 1, 64, 39
1, 1131455, Control_c, 0, 64, 39
1, 1131475, Control_c, 0, 64, 62
1, 1131475, Control_c, 1, 64, 62
1, 1131493, Control_c, 1, 64, 90
1, 1131493, Control_c, 0, 64, 90
1, 1131512, Control_c, 0, 64, 127
1, 1131512, Control_c, 1, 64, 127
1, 1131585, Note_off_c, 0, 56, 52
1, 1131615, Note_on_c, 0, 50, 44
1, 1131660, Poly_aftertouch_c, 0, 74, 0
1, 1131676, Note_off_c, 0, 86, 49
1, 1131794, Note_on_c, 0, 84, 70
1, 1131817, Note_on_c, 0, 56, 42
1, 1131826, Note_on_c, 0, 72, 35
1, 1131844, Note_off_c, 0, 50, 36
1, 1131918, Note_off_c, 0, 82, 43
1, 1131966, Note_off_c, 0, 72, 45
1, 1131966, Poly_aftertouch_c, 0, 72, 0
1, 1132004, Note_on_c, 0, 59, 48
1, 1132123, Note_off_c, 0, 59, 58
1, 1132149, Note_on_c, 0, 83, 77
1, 1132185, Note_on_c, 0, 71, 43
1, 1132188, Note_on_c, 0, 65, 44
1, 1132222, Note_off_c, 0, 84, 61
1, 1132251, Note_off_c, 0, 71, 42
1, 1132272, Note_off_c, 0, 77, 53
1, 1132279, Note_off_c, 0, 65, 56
1, 1132302, Note_on_c, 0, 59, 51
1, 1132342, Note_off_c, 0, 59, 64
1, 1132346, Note_off_c, 0, 56, 61
1, 1132559, Note_on_c, 0, 36, 53
1, 1132579, Control_c, 0, 64, 87
1, 1132579, Control_c, 1, 64, 87
1, 1132597, Control_c, 1, 64, 57
1, 1132597, Control_c, 0, 64, 57
1, 1132616, Control_c, 0, 64, 34
1, 1132616, Control_c, 1, 64, 34
1, 1132635, Control_c, 1, 64, 23
1, 1132635, Control_c, 0, 64, 23
1, 1132644, Note_on_c, 0, 80, 70
1, 1132654, Note_on_c, 0, 68, 31
1, 1132681, Note_on_c, 0, 76, 48
1, 1132691, Control_c, 0, 64, 31
1, 1132691, Control_c, 1, 64, 31
1, 1132710, Control_c, 1, 64, 50
1, 1132710, Control_c, 0, 64, 50
1, 1132728, Control_c, 0, 64, 77
1, 1132728, Control_c, 1, 64, 77
1, 1132740, Note_off_c, 0, 83, 48
1, 1132748, Control_c, 0, 64, 127
1, 1132748, Control_c, 1, 64, 127
1, 1132830, Note_off_c, 0, 36, 58
1, 1132881, Note_on_c, 0, 48, 46
1, 1132932, Note_off_c, 0, 68, 52
1, 1132950, Note_off_c, 0, 48, 59
1, 1132990, Control_c, 0, 67, 56
1, 1132990, Control_c, 1, 67, 56
1, 1132999, Note_on_c, 0, 81, 73
1, 1133032, Note_on_c, 0, 69, 39
1, 1133034, Note_on_c, 0, 52, 61
1, 1133044, Note_off_c, 0, 80, 64
1, 1133153, Note_off_c, 0, 69, 26
1, 1133220, Note_on_c, 0, 57, 38
1, 1133342, Note_on_c, 0, 84, 80
1, 1133363, Note_off_c, 0, 57, 59
1, 1133373, Note_on_c, 0, 64, 55
1, 1133394, Note_on_c, 0, 72, 42
1, 1133398, Poly_aftertouch_c, 0, 78, 127
1, 1133404, Note_off_c, 0, 81, 60
1, 1133404, Poly_aftertouch_c, 0, 81, 0
1, 1133427, Note_off_c, 0, 76, 57
1, 1133438, Poly_aftertouch_c, 0, 78, 0
1, 1133531, Note_on_c, 0, 57, 54
1, 1133575, Note_off_c, 0, 64, 34
1, 1133752, Note_off_c, 0, 52, 57
1, 1133752, Poly_aftertouch_c, 0, 52, 0
1, 1133804, Note_on_c, 0, 54, 40
1, 1133812, Control_c, 0, 64, 108
1, 1133812, Control_c, 1, 64, 108
1, 1133832, Control_c, 1, 64, 69
1, 1133832, Note_on_c, 0, 75, 66
1, 1133832, Control_c, 0, 64, 69
1, 1133834, Note_off_c, 0, 57, 36
1, 1133851, Control_c, 0, 64, 39
1, 1133851, Control_c, 1, 64, 39
1, 1133870, Control_c, 1, 64, 16
1, 1133870, Control_c, 0, 64, 16
1, 1133889, Control_c, 0, 64, 12
1, 1133889, Control_c, 1, 64, 12
1, 1133926, Control_c, 1, 64, 21
1, 1133926, Control_c, 0, 64, 21
1, 1133929, Note_off_c, 0, 72, 51
1, 1133929, Poly_aftertouch_c, 0, 72, 0
1, 1133945, Control_c, 0, 64, 39
1, 1133945, Control_c, 1, 64, 39
1, 1133965, Control_c, 1, 64, 65
1, 1133965, Control_c, 0, 64, 65
1, 1133983, Control_c, 0, 64, 91
1, 1133983, Control_c, 1, 64, 91
1, 1134001, Control_c, 1, 64, 127
1, 1134001, Control_c, 0, 64, 127
1, 1134023, Note_off_c, 0, 54, 42
1, 1134045, Note_on_c, 0, 48, 47
1, 1134094, Control_c, 0, 67, 60
1, 1134094, Control_c, 1, 67, 60
1, 1134189, Control_c, 1, 67, 68
1, 1134189, Control_c, 0, 67, 68
1, 1134225, Control_c, 0, 67, 73
1, 1134225, Control_c, 1, 67, 73
1, 1134267, Note_off_c, 0, 48, 51
1, 1134277, Note_on_c, 0, 54, 44
1, 1134280, Note_on_c, 0, 82, 59
1, 1134290, Note_on_c, 0, 70, 38
1, 1134319, Control_c, 0, 67, 77
1, 1134319, Control_c, 1, 67, 77
1, 1134432, Note_off_c, 0, 84, 39
1, 1134456, Note_off_c, 0, 54, 59
1, 1134468, Control_c, 0, 67, 83
1, 1134468, Control_c, 1, 67, 83
1, 1134501, Note_on_c, 0, 57, 40
1, 1134526, Control_c, 0, 67, 88
1, 1134526, Control_c, 1, 67, 88
1, 1134570, Note_off_c, 0, 70, 44
1, 1134581, Control_c, 0, 67, 93
1, 1134581, Control_c, 1, 67, 93
1, 1134631, Note_off_c, 0, 82, 38
1, 1134675, Note_on_c, 0, 81, 60
1, 1134723, Note_off_c, 0, 57, 41
1, 1134737, Note_on_c, 0, 69, 15
1, 1134739, Note_on_c, 0, 63, 39
1, 1134796, Note_off_c, 0, 75, 58
1, 1134833, Note_off_c, 0, 69, 37
1, 1134841, Note_off_c, 0, 63, 54
1, 1134875, Note_on_c, 0, 57, 50
1, 1134919, Note_off_c, 0, 57, 63
1, 1135162, Control_c, 0, 64, 106
1, 1135162, Control_c, 1, 64, 106
1, 1135181, Control_c, 1, 64, 70
1, 1135181, Control_c, 0, 64, 70
1, 1135183, Note_on_c, 0, 34, 53
1, 1135199, Control_c, 0, 64, 46
1, 1135199, Control_c, 1, 64, 46
1, 1135218, Control_c, 1, 64, 33
1, 1135218, Control_c, 0, 64, 33
1, 1135248, Note_on_c, 0, 78, 56
1, 1135257, Note_on_c, 0, 74, 41
1, 1135275, Control_c, 0, 64, 44
1, 1135275, Control_c, 1, 64, 44
1, 1135292, Control_c, 1, 64, 64
1, 1135292, Control_c, 0, 64, 64
1, 1135301, Note_on_c, 0, 66, 36
1, 1135311, Control_c, 0, 64, 88
1, 1135311, Control_c, 1, 64, 88
1, 1135330, Control_c, 1, 64, 127
1, 1135330, Control_c, 0, 64, 127
1, 1135348, Control_c, 0, 67, 97
1, 1135348, Control_c, 1, 67, 97
1, 1135405, Note_off_c, 0, 81, 37
1, 1135405, Poly_aftertouch_c, 0, 81, 0
1, 1135419, Note_off_c, 0, 34, 59
1, 1135451, Note_on_c, 0, 46, 36
1, 1135501, Note_off_c, 0, 46, 51
1, 1135526, Note_off_c, 0, 66, 53
1, 1135624, Note_on_c, 0, 79, 72
1, 1135653, Note_on_c, 0, 67, 45
1, 1135682, Note_on_c, 0, 50, 40
1, 1135687, Note_off_c, 0, 74, 52
1, 1135719, Note_off_c, 0, 78, 57
1, 1135783, Note_off_c, 0, 50, 47
1, 1135784, Note_off_c, 0, 67, 33
1, 1135817, Note_on_c, 0, 55, 49
1, 1135959, Note_off_c, 0, 55, 59
1, 1136005, Note_on_c, 0, 58, 47
1, 1136030, Note_on_c, 0, 82, 74
1, 1136075, Note_off_c, 0, 79, 58
1, 1136122, Poly_aftertouch_c, 0, 70, 127
1, 1136134, Note_off_c, 0, 58, 56
1, 1136154, Note_on_c, 0, 55, 49
1, 1136176, Poly_aftertouch_c, 0, 70, 0
1, 1136213, Note_off_c, 0, 55, 58
1, 1136222, Note_off_c, 0, 82, 65
1, 1136360, Control_c, 0, 64, 118
1, 1136360, Control_c, 1, 64, 118
1, 1136379, Control_c, 1, 64, 73
1, 1136379, Control_c, 0, 64, 73
1, 1136398, Control_c, 0, 64, 48
1, 1136398, Control_c, 1, 64, 48
1, 1136415, Control_c, 1, 64, 40
1, 1136415, Control_c, 0, 64, 40
1, 1136416, Note_on_c, 0, 85, 74
1, 1136416, Control_c, 0, 67, 101
1, 1136416, Control_c, 1, 67, 101
1, 1136446, Note_on_c, 0, 82, 40
1, 1136454, Control_c, 0, 64, 52
1, 1136454, Control_c, 1, 64, 52
1, 1136469, Note_on_c, 0, 34, 54
1, 1136471, Note_on_c, 0, 73, 22
1, 1136472, Control_c, 0, 64, 72
1, 1136472, Control_c, 1, 64, 72
1, 1136491, Control_c, 1, 64, 109
1, 1136491, Control_c, 0, 64, 109
1, 1136510, Control_c, 0, 64, 127
1, 1136510, Control_c, 1, 64, 127
1, 1136527, Note_off_c, 0, 73, 52
1, 1136609, Note_off_c, 0, 34, 59
1, 1136632, Note_on_c, 0, 46, 46
1, 1136677, Note_off_c, 0, 46, 54
1, 1136744, Note_off_c, 0, 82, 54
1, 1136793, Note_off_c, 0, 85, 65
1, 1136815, Note_on_c, 0, 93, 85
1, 1136826, Note_on_c, 0, 49, 50
1, 1136851, Note_on_c, 0, 81, 42
1, 1137012, Note_on_c, 0, 55, 58
1, 1137037, Poly_aftertouch_c, 0, 56, 0
1, 1137050, Note_off_c, 0, 81, 40
1, 1137050, Poly_aftertouch_c, 0, 81, 0
1, 1137053, Note_off_c, 0, 49, 55
1, 1137202, Control_c, 0, 67, 105
1, 1137202, Control_c, 1, 67, 105
1, 1137222, Note_on_c, 0, 91, 82
1, 1137229, Note_off_c, 0, 55, 57
1, 1137237, Note_on_c, 0, 79, 58
1, 1137240, Note_on_c, 0, 61, 55
1, 1137277, Note_off_c, 0, 79, 49
1, 1137310, Note_off_c, 0, 93, 56
1, 1137388, Note_off_c, 0, 61, 53
1, 1137390, Note_off_c, 0, 91, 60
1, 1137424, Poly_aftertouch_c, 0, 79, 0
1, 1137440, Note_on_c, 0, 58, 53
1, 1137480, Note_off_c, 0, 58, 63
1, 1137539, Control_c, 0, 67, 111
1, 1137539, Control_c, 1, 67, 111
1, 1137613, Control_c, 1, 67, 116
1, 1137613, Control_c, 0, 67, 116
1, 1137670, Control_c, 0, 64, 91
1, 1137670, Control_c, 1, 64, 91
1, 1137684, Note_on_c, 0, 89, 70
1, 1137688, Control_c, 0, 64, 55
1, 1137688, Control_c, 1, 64, 55
1, 1137700, Note_on_c, 0, 82, 51
1, 1137701, Note_on_c, 0, 36, 43
1, 1137707, Control_c, 0, 64, 25
1, 1137707, Control_c, 1, 64, 25
1, 1137725, Control_c, 1, 64, 10
1, 1137725, Note_on_c, 0, 77, 40
1, 1137725, Control_c, 0, 64, 10
1, 1137782, Control_c, 0, 64, 18
1, 1137782, Control_c, 1, 64, 18
1, 1137801, Control_c, 1, 64, 38
1, 1137801, Control_c, 0, 64, 38
1, 1137820, Control_c, 0, 64, 67
1, 1137820, Control_c, 1, 64, 67
1, 1137838, Control_c, 1, 64, 104
1, 1137838, Control_c, 0, 64, 104
1, 1137857, Control_c, 0, 64, 127
1, 1137857, Control_c, 1, 64, 127
1, 1137876, Control_c, 1, 67, 120
1, 1137876, Control_c, 0, 67, 120
1, 1137890, Note_off_c, 0, 77, 47
1, 1137895, Note_off_c, 0, 36, 54
1, 1137934, Note_on_c, 0, 48, 42
1, 1138003, Note_off_c, 0, 48, 57
1, 1138025, Control_c, 0, 67, 125
1, 1138025, Control_c, 1, 67, 125
1, 1138134, Note_on_c, 0, 86, 63
1, 1138169, Note_off_c, 0, 89, 34
1, 1138201, Note_on_c, 0, 55, 39
1, 1138376, Note_on_c, 0, 58, 33
1, 1138397, Note_off_c, 0, 55, 37
1, 1138622, Note_on_c, 0, 88, 61
1, 1138634, Note_on_c, 0, 67, 33
1, 1138673, Note_off_c, 0, 86, 35
1, 1138678, Note_off_c, 0, 82, 58
1, 1138694, Note_on_c, 0, 76, 15
1, 1138763, Note_off_c, 0, 76, 47
1, 1138843, Note_off_c, 0, 67, 43
1, 1138881, Note_on_c, 0, 60, 42
1, 1138893, Note_off_c, 0, 58, 54
1, 1138930, Note_off_c, 0, 60, 62
1, 1139218, Note_on_c, 0, 41, 38
1, 1139280, Control_c, 0, 64, 80
1, 1139280, Control_c, 1, 64, 80
1, 1139298, Control_c, 1, 64, 55
1, 1139298, Control_c, 0, 64, 55
1, 1139317, Control_c, 0, 64, 34
1, 1139317, Control_c, 1, 64, 34
1, 1139329, Note_on_c, 0, 89, 52
1, 1139336, Control_c, 0, 64, 19
1, 1139336, Control_c, 1, 64, 19
1, 1139344, Note_on_c, 0, 77, 36
1, 1139352, Control_c, 0, 64, 11
1, 1139352, Control_c, 1, 64, 11
1, 1139355, Note_on_c, 0, 81, 21
1, 1139449, Note_off_c, 0, 88, 54
1, 1139468, Control_c, 0, 64, 17
1, 1139468, Control_c, 1, 64, 17
1, 1139486, Control_c, 1, 64, 28
1, 1139486, Control_c, 0, 64, 28
1, 1139505, Control_c, 0, 64, 44
1, 1139505, Control_c, 1, 64, 44
1, 1139523, Control_c, 1, 64, 64
1, 1139523, Control_c, 0, 64, 64
1, 1139543, Control_c, 0, 64, 77
1, 1139543, Control_c, 1, 64, 77
1, 1139560, Control_c, 1, 64, 86
1, 1139560, Control_c, 0, 64, 86
1, 1139579, Control_c, 0, 64, 92
1, 1139579, Control_c, 1, 64, 92
1, 1139600, Control_c, 1, 64, 100
1, 1139600, Control_c, 0, 64, 100
1, 1139616, Control_c, 0, 64, 122
1, 1139616, Control_c, 1, 64, 122
1, 1139634, Control_c, 1, 64, 127
1, 1139634, Control_c, 0, 64, 127
1, 1139646, Note_on_c, 0, 48, 42
1, 1139679, Note_off_c, 0, 41, 38
1, 1139874, Note_off_c, 0, 48, 53
1, 1139937, Note_on_c, 0, 57, 34
1, 1140143, Note_off_c, 0, 57, 52
1, 1140183, Note_on_c, 0, 60, 40
1, 1140522, Note_on_c, 0, 69, 41
1, 1140668, Note_off_c, 0, 89, 46
1, 1140753, Note_off_c, 0, 77, 53
1, 1140771, Note_off_c, 0, 81, 52
1, 1140771, Poly_aftertouch_c, 0, 81, 0
1, 1140802, Note_on_c, 0, 65, 38
1, 1140818, Note_off_c, 0, 69, 32
1, 1140868, Note_off_c, 0, 65, 42
1, 1140957, Note_off_c, 0, 60, 41
1, 1141188, Note_on_c, 0, 41, 51
1, 1141356, Note_on_c, 0, 81, 80
1, 1141376, Control_c, 0, 64, 103
1, 1141376, Control_c, 1, 64, 103
1, 1141395, Control_c, 1, 64, 70
1, 1141395, Control_c, 0, 64, 70
1, 1141409, Note_on_c, 0, 72, 43
1, 1141414, Control_c, 0, 64, 48
1, 1141414, Control_c, 1, 64, 48
1, 1141431, Control_c, 1, 64, 33
1, 1141431, Control_c, 0, 64, 33
1, 1141485, Poly_aftertouch_c, 0, 84, 127
1, 1141508, Control_c, 0, 64, 38
1, 1141508, Control_c, 1, 64, 38
1, 1141527, Control_c, 1, 64, 52
1, 1141527, Control_c, 0, 64, 52
1, 1141545, Control_c, 0, 64, 69
1, 1141545, Control_c, 1, 64, 69
1, 1141564, Control_c, 1, 64, 85
1, 1141564, Control_c, 0, 64, 85
1, 1141581, Control_c, 0, 64, 113
1, 1141581, Control_c, 1, 64, 113
1, 1141601, Control_c, 1, 64, 127
1, 1141601, Control_c, 0, 64, 127
1, 1141698, Note_off_c, 0, 41, 60
1, 1141725, Note_off_c, 0, 72, 47
1, 1141725, Poly_aftertouch_c, 0, 72, 0
1, 1141741, Note_on_c, 0, 53, 46
1, 1141906, Note_off_c, 0, 53, 58
1, 1141936, Note_on_c, 0, 86, 63
1, 1141956, Note_on_c, 0, 57, 52
1, 1141979, Note_on_c, 0, 74, 31
1, 1142036, Poly_aftertouch_c, 0, 84, 0
1, 1142115, Note_off_c, 0, 74, 32
1, 1142136, Note_on_c, 0, 63, 51
1, 1142284, Note_off_c, 0, 63, 60
1, 1142300, Note_off_c, 0, 57, 60
1, 1142314, Note_on_c, 0, 84, 69
1, 1142324, Note_on_c, 0, 65, 57
1, 1142388, Note_off_c, 0, 86, 57
1, 1142445, Note_off_c, 0, 65, 50
1, 1142515, Note_on_c, 0, 69, 58
1, 1142771, Note_off_c, 0, 69, 57
1, 1142785, Note_on_c, 0, 89, 62
1, 1142788, Note_on_c, 0, 75, 51
1, 1142915, Note_off_c, 0, 89, 58
1, 1142937, Note_off_c, 0, 84, 28
1, 1142992, Note_on_c, 0, 69, 50
1, 1143000, Note_off_c, 0, 75, 48
1, 1143093, Note_off_c, 0, 69, 56
1, 1143197, Note_on_c, 0, 84, 61
1, 1143234, Note_on_c, 0, 65, 33
1, 1143257, Note_off_c, 0, 81, 49
1, 1143257, Poly_aftertouch_c, 0, 81, 0
1, 1143360, Poly_aftertouch_c, 0, 72, 0
1, 1143387, Note_on_c, 0, 63, 46
1, 1143449, Note_off_c, 0, 65, 29
1, 1143563, Note_off_c, 0, 63, 56
1, 1143580, Note_on_c, 0, 57, 42
1, 1143593, Note_on_c, 0, 87, 57
1, 1143618, Note_on_c, 0, 75, 22
1, 1143659, Note_off_c, 0, 84, 58
1, 1143735, Note_on_c, 0, 53, 47
1, 1143764, Note_off_c, 0, 57, 52
1, 1143789, Note_off_c, 0, 53, 60
1, 1143813, Note_off_c, 0, 75, 42
1, 1143975, Note_on_c, 0, 41, 62
1, 1144091, Control_c, 0, 64, 76
1, 1144091, Control_c, 1, 64, 76
1, 1144105, Note_on_c, 0, 81, 71
1, 1144109, Control_c, 0, 64, 49
1, 1144109, Control_c, 1, 64, 49
1, 1144128, Control_c, 1, 64, 32
1, 1144128, Control_c, 0, 64, 32
1, 1144145, Control_c, 0, 64, 25
1, 1144145, Control_c, 1, 64, 25
1, 1144148, Note_on_c, 0, 73, 53
1, 1144181, Note_on_c, 0, 85, 47
1, 1144222, Control_c, 0, 64, 34
1, 1144222, Control_c, 1, 64, 34
1, 1144241, Control_c, 1, 64, 50
1, 1144241, Control_c, 0, 64, 50
1, 1144258, Note_off_c, 0, 73, 64
1, 1144258, Note_on_c, 0, 73, 14
1, 1144258, Control_c, 0, 64, 70
1, 1144258, Control_c, 1, 64, 70
1, 1144278, Control_c, 1, 64, 90
1, 1144278, Control_c, 0, 64, 90
1, 1144297, Control_c, 0, 64, 127
1, 1144297, Control_c, 1, 64, 127
1, 1144340, Note_off_c, 0, 41, 52
1, 1144355, Note_off_c, 0, 87, 64
1, 1144403, Note_on_c, 0, 53, 44
1, 1144423, Note_off_c, 0, 73, 49
1, 1144501, Note_off_c, 0, 53, 42
1, 1144582, Note_on_c, 0, 86, 62
1, 1144627, Note_on_c, 0, 57, 16
1, 1144634, Note_on_c, 0, 74, 9
1, 1144694, Note_off_c, 0, 85, 45
1, 1144698, Note_off_c, 0, 57, 41
1, 1144757, Note_on_c, 0, 62, 39
1, 1144816, Poly_aftertouch_c, 0, 76, 0
1, 1144896, Note_off_c, 0, 62, 56
1, 1144917, Note_on_c, 0, 53, 53
1, 1144952, Control_c, 0, 64, 90
1, 1144952, Control_c, 1, 64, 90
1, 1144970, Control_c, 1, 64, 62
1, 1144970, Control_c, 0, 64, 62
1, 1144989, Control_c, 0, 64, 47
1, 1144989, Control_c, 1, 64, 47
1, 1144997, Note_on_c, 0, 82, 81
1, 1145026, Control_c, 0, 64, 53
1, 1145026, Control_c, 1, 64, 53
1, 1145045, Control_c, 1, 64, 66
1, 1145045, Control_c, 0, 64, 66
1, 1145057, Note_off_c, 0, 81, 57
1, 1145057, Poly_aftertouch_c, 0, 81, 0
1, 1145063, Control_c, 0, 64, 86
1, 1145063, Control_c, 1, 64, 86
1, 1145082, Control_c, 1, 64, 127
1, 1145082, Control_c, 0, 64, 127
1, 1145158, Note_off_c, 0, 53, 55
1, 1145166, Note_on_c, 0, 58, 54
1, 1145390, Note_on_c, 0, 70, 65
1, 1145546, Note_off_c, 0, 70, 61
1, 1145597, Note_on_c, 0, 62, 48
1, 1145614, Note_off_c, 0, 58, 29
1, 1145774, Control_c, 0, 64, 90
1, 1145774, Control_c, 1, 64, 90
1, 1145779, Note_on_c, 0, 53, 50
1, 1145795, Control_c, 0, 64, 60
1, 1145795, Control_c, 1, 64, 60
1, 1145812, Control_c, 1, 64, 54
1, 1145812, Control_c, 0, 64, 54
1, 1145813, Note_off_c, 0, 62, 37
1, 1145831, Control_c, 0, 64, 59
1, 1145831, Control_c, 1, 64, 59
1, 1145850, Control_c, 1, 64, 69
1, 1145850, Control_c, 0, 64, 69
1, 1145869, Control_c, 0, 64, 93
1, 1145869, Control_c, 1, 64, 93
1, 1145872, Note_on_c, 0, 81, 69
1, 1145888, Control_c, 0, 64, 127
1, 1145888, Control_c, 1, 64, 127
1, 1145919, Note_off_c, 0, 82, 62
1, 1146035, Note_on_c, 0, 57, 49
1, 1146036, Note_off_c, 0, 53, 52
1, 1146192, Note_off_c, 0, 57, 56
1, 1146232, Note_on_c, 0, 69, 74
1, 1146299, Note_off_c, 0, 86, 48
1, 1146351, Note_off_c, 0, 74, 53
1, 1146424, Note_off_c, 0, 69, 49
1, 1146447, Note_on_c, 0, 62, 46
1, 1146521, Note_off_c, 0, 62, 55
1, 1146770, Note_on_c, 0, 40, 48
1, 1146842, Control_c, 0, 64, 96
1, 1146842, Control_c, 1, 64, 96
1, 1146857, Note_on_c, 0, 80, 80
1, 1146860, Control_c, 0, 64, 70
1, 1146860, Control_c, 1, 64, 70
1, 1146880, Control_c, 1, 64, 51
1, 1146880, Control_c, 0, 64, 51
1, 1146890, Note_on_c, 0, 71, 64
1, 1146898, Control_c, 0, 64, 38
1, 1146898, Control_c, 1, 64, 38
1, 1146917, Control_c, 1, 64, 30
1, 1146917, Control_c, 0, 64, 30
1, 1146931, Note_on_c, 0, 83, 48
1, 1146935, Control_c, 0, 64, 25
1, 1146935, Control_c, 1, 64, 25
1, 1147010, Control_c, 1, 64, 37
1, 1147010, Control_c, 0, 64, 37
1, 1147030, Control_c, 0, 64, 51
1, 1147030, Control_c, 1, 64, 51
1, 1147047, Control_c, 1, 64, 70
1, 1147047, Control_c, 0, 64, 70
1, 1147067, Control_c, 0, 64, 90
1, 1147067, Control_c, 1, 64, 90
1, 1147085, Control_c, 1, 64, 127
1, 1147085, Control_c, 0, 64, 127
1, 1147123, Note_off_c, 0, 71, 55
1, 1147143, Note_off_c, 0, 40, 60
1, 1147166, Note_off_c, 0, 81, 46
1, 1147166, Poly_aftertouch_c, 0, 81, 0
1, 1147183, Note_on_c, 0, 52, 40
1, 1147323, Note_off_c, 0, 52, 49
1, 1147323, Poly_aftertouch_c, 0, 52, 0
1, 1147346, Note_on_c, 0, 84, 63
1, 1147378, Note_on_c, 0, 56, 43
1, 1147413, Note_off_c, 0, 83, 31
1, 1147422, Note_on_c, 0, 72, 20
1, 1147477, Note_off_c, 0, 72, 39
1, 1147488, Note_off_c, 0, 56, 62
1, 1147536, Note_on_c, 0, 62, 54
1, 1147666, Note_off_c, 0, 62, 49
1, 1147711, Note_on_c, 0, 64, 58
1, 1147732, Note_on_c, 0, 83, 66
1, 1147803, Note_off_c, 0, 84, 59
1, 1147903, Note_off_c, 0, 64, 59
1, 1147916, Note_on_c, 0, 68, 60
1, 1148173, Note_off_c, 0, 68, 62
1, 1148193, Note_on_c, 0, 88, 62
1, 1148236, Note_on_c, 0, 74, 40
1, 1148269, Note_off_c, 0, 83, 32
1, 1148325, Note_off_c, 0, 88, 58
1, 1148360, Note_off_c, 0, 74, 37
1, 1148385, Note_on_c, 0, 68, 45
1, 1148507, Note_off_c, 0, 68, 52
1, 1148570, Note_on_c, 0, 83, 59
1, 1148618, Poly_aftertouch_c, 0, 64, 127
1, 1148651, Poly_aftertouch_c, 0, 64, 0
1, 1148700, Note_on_c, 0, 62, 37
1, 1148961, Note_on_c, 0, 86, 57
1, 1148979, Note_off_c, 0, 62, 32
1, 1148983, Note_on_c, 0, 74, 34
1, 1149058, Note_off_c, 0, 74, 45
1, 1149086, Note_on_c, 0, 52, 37
1, 1149087, Note_off_c, 0, 83, 35
1, 1149111, Note_off_c, 0, 80, 40
1, 1149192, Note_off_c, 0, 52, 53
1, 1149192, Poly_aftertouch_c, 0, 52, 0
1, 1149397, Note_on_c, 0, 40, 47
1, 1149545, Note_on_c, 0, 80, 74
1, 1149556, Control_c, 0, 64, 86
1, 1149556, Control_c, 1, 64, 86
1, 1149573, Control_c, 1, 64, 56
1, 1149573, Control_c, 0, 64, 56
1, 1149575, Note_on_c, 0, 83, 57
1, 1149593, Control_c, 0, 64, 35
1, 1149593, Control_c, 1, 64, 35
1, 1149594, Note_off_c, 0, 86, 35
1, 1149649, Control_c, 0, 64, 44
1, 1149649, Control_c, 1, 64, 44
1, 1149669, Control_c, 1, 64, 63
1, 1149669, Control_c, 0, 64, 63
1, 1149687, Control_c, 0, 64, 86
1, 1149687, Control_c, 1, 64, 86
1, 1149706, Control_c, 1, 64, 127
1, 1149706, Control_c, 0, 64, 127
1, 1149749, Poly_aftertouch_c, 0, 40, 24
1, 1149772, Note_off_c, 0, 40, 52
1, 1149772, Poly_aftertouch_c, 0, 40, 0
1, 1149857, Note_on_c, 0, 52, 34
1, 1149942, Note_off_c, 0, 52, 40
1, 1149942, Poly_aftertouch_c, 0, 52, 0
1, 1150023, Note_on_c, 0, 84, 61
1, 1150039, Note_on_c, 0, 57, 28
1, 1150083, Note_on_c, 0, 72, 11
1, 1150126, Note_off_c, 0, 83, 34
1, 1150168, Note_off_c, 0, 57, 33
1, 1150222, Note_on_c, 0, 60, 35
1, 1150389, Note_on_c, 0, 52, 47
1, 1150392, Note_off_c, 0, 60, 40
1, 1150398, Control_c, 0, 64, 106
1, 1150398, Control_c, 1, 64, 106
1, 1150417, Control_c, 1, 64, 71
1, 1150417, Control_c, 0, 64, 71
1, 1150436, Control_c, 0, 64, 52
1, 1150436, Control_c, 1, 64, 52
1, 1150453, Control_c, 1, 64, 50
1, 1150453, Control_c, 0, 64, 50
1, 1150458, Note_on_c, 0, 81, 72
1, 1150473, Control_c, 0, 64, 55
1, 1150473, Control_c, 1, 64, 55
1, 1150492, Control_c, 1, 64, 65
1, 1150492, Control_c, 0, 64, 65
1, 1150510, Note_off_c, 0, 80, 60
1, 1150511, Control_c, 0, 64, 85
1, 1150511, Control_c, 1, 64, 85
1, 1150530, Control_c, 1, 64, 127
1, 1150530, Control_c, 0, 64, 127
1, 1150610, Note_off_c, 0, 52, 56
1, 1150610, Poly_aftertouch_c, 0, 52, 0
1, 1150653, Note_on_c, 0, 57, 45
1, 1150875, Note_on_c, 0, 69, 48
1, 1151012, Note_off_c, 0, 57, 61
1, 1151049, Note_off_c, 0, 69, 34
1, 1151063, Note_on_c, 0, 60, 38
1, 1151246, Note_off_c, 0, 60, 23
1, 1151258, Note_on_c, 0, 52, 37
1, 1151315, Control_c, 0, 64, 92
1, 1151315, Control_c, 1, 64, 92
1, 1151334, Control_c, 1, 64, 64
1, 1151334, Control_c, 0, 64, 64
1, 1151352, Control_c, 0, 64, 48
1, 1151352, Control_c, 1, 64, 48
1, 1151372, Control_c, 1, 64, 46
1, 1151372, Control_c, 0, 64, 46
1, 1151386, Note_on_c, 0, 79, 64
1, 1151389, Control_c, 0, 64, 49
1, 1151389, Control_c, 1, 64, 49
1, 1151410, Control_c, 1, 64, 58
1, 1151410, Control_c, 0, 64, 58
1, 1151428, Control_c, 0, 64, 74
1, 1151428, Control_c, 1, 64, 74
1, 1151438, Note_off_c, 0, 81, 56
1, 1151438, Poly_aftertouch_c, 0, 81, 0
1, 1151446, Control_c, 0, 64, 100
1, 1151446, Control_c, 1, 64, 100
1, 1151464, Control_c, 1, 64, 127
1, 1151464, Control_c, 0, 64, 127
1, 1151601, Note_on_c, 0, 55, 41
1, 1151666, Note_off_c, 0, 52, 32
1, 1151666, Poly_aftertouch_c, 0, 52, 0
1, 1151861, Note_off_c, 0, 55, 32
1, 1151901, Note_on_c, 0, 67, 43
1, 1151902, Note_off_c, 0, 84, 35
1, 1151926, Note_off_c, 0, 79, 61
1, 1151972, Poly_aftertouch_c, 0, 72, 24
1, 1152011, Note_off_c, 0, 72, 41
1, 1152011, Poly_aftertouch_c, 0, 72, 0
1, 1152147, Note_off_c, 0, 67, 34
1, 1152181, Note_on_c, 0, 60, 27
1, 1152255, Note_off_c, 0, 60, 53
1, 1152565, Note_on_c, 0, 38, 43
1, 1152723, Note_on_c, 0, 77, 59
1, 1152739, Control_c, 0, 64, 107
1, 1152739, Control_c, 1, 64, 107
1, 1152753, Note_on_c, 0, 69, 36
1, 1152755, Control_c, 0, 64, 73
1, 1152755, Control_c, 1, 64, 73
1, 1152764, Note_on_c, 0, 81, 39
1, 1152776, Control_c, 0, 64, 52
1, 1152776, Control_c, 1, 64, 52
1, 1152795, Control_c, 1, 64, 44
1, 1152795, Control_c, 0, 64, 44
1, 1152832, Control_c, 0, 64, 54
1, 1152832, Control_c, 1, 64, 54
1, 1152851, Control_c, 1, 64, 67
1, 1152851, Control_c, 0, 64, 67
1, 1152869, Control_c, 0, 64, 88
1, 1152869, Control_c, 1, 64, 88
1, 1152888, Control_c, 1, 64, 127
1, 1152888, Control_c, 0, 64, 127
1, 1152998, Note_off_c, 0, 69, 38
1, 1152999, Poly_aftertouch_c, 0, 69, 0
1, 1153005, Note_off_c, 0, 38, 56
1, 1153061, Note_on_c, 0, 50, 36
1, 1153161, Note_off_c, 0, 50, 58
1, 1153239, Note_on_c, 0, 53, 52
1, 1153246, Note_on_c, 0, 82, 58
1, 1153283, Note_on_c, 0, 70, 23
1, 1153307, Note_off_c, 0, 81, 56
1, 1153307, Poly_aftertouch_c, 0, 81, 0
1, 1153346, Note_off_c, 0, 70, 47
1, 1153442, Note_on_c, 0, 58, 43
1, 1153591, Note_off_c, 0, 58, 60
1, 1153602, Note_on_c, 0, 65, 43
1, 1153621, Note_on_c, 0, 86, 65
1, 1153635, Note_on_c, 0, 74, 41
1, 1153715, Note_off_c, 0, 77, 28
1, 1153783, Note_on_c, 0, 58, 45
1, 1153825, Note_off_c, 0, 65, 32
1, 1154005, Note_off_c, 0, 53, 41
1, 1154021, Note_on_c, 0, 56, 43
1, 1154043, Note_off_c, 0, 58, 50
1, 1154047, Note_on_c, 0, 77, 80
1, 1154048, Control_c, 0, 64, 84
1, 1154048, Control_c, 1, 64, 84
1, 1154067, Control_c, 1, 64, 62
1, 1154067, Control_c, 0, 64, 62
1, 1154085, Control_c, 0, 64, 52
1, 1154085, Control_c, 1, 64, 52
1, 1154123, Control_c, 1, 64, 58
1, 1154123, Control_c, 0, 64, 58
1, 1154142, Control_c, 0, 64, 69
1, 1154142, Control_c, 1, 64, 69
1, 1154160, Control_c, 1, 64, 88
1, 1154160, Control_c, 0, 64, 88
1, 1154180, Control_c, 0, 64, 127
1, 1154180, Control_c, 1, 64, 127
1, 1154211, Note_off_c, 0, 56, 59
1, 1154266, Note_on_c, 0, 50, 42
1, 1154350, Note_off_c, 0, 74, 44
1, 1154375, Note_off_c, 0, 86, 37
1, 1154476, Note_on_c, 0, 56, 40
1, 1154482, Note_off_c, 0, 50, 46
1, 1154494, Note_on_c, 0, 84, 60
1, 1154496, Note_on_c, 0, 72, 60
1, 1154641, Note_off_c, 0, 82, 41
1, 1154691, Note_on_c, 0, 59, 40
1, 1154750, Note_off_c, 0, 72, 58
1, 1154750, Poly_aftertouch_c, 0, 72, 0
1, 1154847, Note_off_c, 0, 59, 60
1, 1154865, Note_on_c, 0, 83, 66
1, 1154877, Note_on_c, 0, 71, 53
1, 1154898, Note_on_c, 0, 65, 44
1, 1154947, Note_off_c, 0, 84, 56
1, 1155016, Note_off_c, 0, 77, 59
1, 1155044, Note_off_c, 0, 65, 51
1, 1155054, Note_on_c, 0, 59, 45
1, 1155079, Note_off_c, 0, 71, 57
1, 1155088, Note_off_c, 0, 56, 60
1, 1155099, Note_off_c, 0, 59, 62
1, 1155325, Note_on_c, 0, 36, 51
1, 1155396, Control_c, 0, 64, 93
1, 1155396, Control_c, 1, 64, 93
1, 1155415, Control_c, 1, 64, 62
1, 1155415, Control_c, 0, 64, 62
1, 1155436, Note_on_c, 0, 76, 68
1, 1155436, Control_c, 0, 64, 39
1, 1155436, Control_c, 1, 64, 39
1, 1155450, Control_c, 1, 64, 33
1, 1155450, Control_c, 0, 64, 33
1, 1155452, Note_on_c, 0, 68, 64
1, 1155468, Note_on_c, 0, 80, 67
1, 1155490, Control_c, 0, 64, 41
1, 1155490, Control_c, 1, 64, 41
1, 1155508, Control_c, 1, 64, 58
1, 1155508, Control_c, 0, 64, 58
1, 1155528, Control_c, 0, 64, 83
1, 1155528, Control_c, 1, 64, 83
1, 1155536, Poly_aftertouch_c, 0, 81, 0
1, 1155546, Control_c, 0, 64, 127
1, 1155546, Control_c, 1, 64, 127
1, 1155557, Note_off_c, 0, 83, 39
1, 1155656, Note_off_c, 0, 36, 52
1, 1155686, Note_on_c, 0, 48, 47
1, 1155758, Note_off_c, 0, 68, 54
1, 1155801, Note_off_c, 0, 48, 59
1, 1155852, Note_on_c, 0, 81, 65
1, 1155860, Note_off_c, 0, 80, 35
1, 1155893, Note_on_c, 0, 69, 29
1, 1155895, Note_on_c, 0, 52, 50
1, 1155942, Note_off_c, 0, 69, 31
1, 1156051, Note_on_c, 0, 57, 40
1, 1156205, Note_on_c, 0, 84, 73
1, 1156215, Note_off_c, 0, 57, 60
1, 1156218, Note_on_c, 0, 64, 46
1, 1156246, Note_on_c, 0, 72, 36
1, 1156261, Note_off_c, 0, 81, 55
1, 1156293, Note_off_c, 0, 76, 62
1, 1156371, Note_on_c, 0, 57, 58
1, 1156382, Poly_aftertouch_c, 0, 74, 0
1, 1156415, Note_off_c, 0, 64, 36
1, 1156644, Note_on_c, 0, 54, 47
1, 1156678, Note_off_c, 0, 52, 41
1, 1156678, Poly_aftertouch_c, 0, 52, 0
1, 1156683, Note_on_c, 0, 75, 80
1, 1156684, Note_off_c, 0, 57, 48
1, 1156707, Control_c, 0, 64, 82
1, 1156707, Control_c, 1, 64, 82
1, 1156725, Control_c, 1, 64, 59
1, 1156725, Control_c, 0, 64, 59
1, 1156744, Control_c, 0, 64, 51
1, 1156744, Control_c, 1, 64, 51
1, 1156762, Control_c, 1, 64, 53
1, 1156762, Control_c, 0, 64, 53
1, 1156782, Control_c, 0, 64, 61
1, 1156782, Control_c, 1, 64, 61
1, 1156800, Control_c, 1, 64, 76
1, 1156800, Control_c, 0, 64, 76
1, 1156817, Note_off_c, 0, 72, 54
1, 1156817, Poly_aftertouch_c, 0, 72, 0
1, 1156818, Control_c, 0, 64, 106
1, 1156818, Control_c, 1, 64, 106
1, 1156837, Control_c, 1, 64, 127
1, 1156837, Control_c, 0, 64, 127
1, 1156849, Note_off_c, 0, 54, 57
1, 1156903, Note_on_c, 0, 48, 44
1, 1157090, Note_on_c, 0, 70, 57
1, 1157091, Note_on_c, 0, 82, 64
1, 1157102, Note_off_c, 0, 48, 55
1, 1157102, Note_on_c, 0, 54, 55
1, 1157211, Note_off_c, 0, 84, 37
1, 1157269, Control_c, 0, 67, 120
1, 1157269, Control_c, 1, 67, 120
1, 1157292, Note_off_c, 0, 54, 59
1, 1157301, Note_on_c, 0, 57, 50
1, 1157324, Control_c, 0, 67, 116
1, 1157324, Control_c, 1, 67, 116
1, 1157337, Note_off_c, 0, 70, 57
1, 1157358, Note_off_c, 0, 82, 53
1, 1157418, Control_c, 0, 67, 108
1, 1157418, Control_c, 1, 67, 108
1, 1157432, Note_on_c, 0, 81, 62
1, 1157437, Control_c, 0, 67, 102
1, 1157437, Control_c, 1, 67, 102
1, 1157447, Note_on_c, 0, 69, 50
1, 1157456, Control_c, 0, 67, 96
1, 1157456, Control_c, 1, 67, 96
1, 1157471, Note_off_c, 0, 57, 58
1, 1157473, Control_c, 0, 67, 91
1, 1157473, Control_c, 1, 67, 91
1, 1157491, Control_c, 1, 67, 87
1, 1157491, Note_on_c, 0, 63, 60
1, 1157491, Control_c, 0, 67, 87
1, 1157530, Control_c, 0, 67, 82
1, 1157530, Control_c, 1, 67, 82
1, 1157586, Control_c, 1, 67, 78
1, 1157586, Control_c, 0, 67, 78
1, 1157593, Note_off_c, 0, 63, 52
1, 1157595, Note_off_c, 0, 75, 59
1, 1157624, Note_on_c, 0, 57, 68
1, 1157624, Control_c, 0, 67, 72
1, 1157624, Control_c, 1, 67, 72
1, 1157629, Note_off_c, 0, 69, 49
1, 1157661, Note_off_c, 0, 57, 64
1, 1157661, Control_c, 0, 67, 67
1, 1157661, Control_c, 1, 67, 67
1, 1157717, Control_c, 1, 67, 61
1, 1157717, Control_c, 0, 67, 61
1, 1157773, Control_c, 0, 67, 57
1, 1157773, Control_c, 1, 67, 57
1, 1157888, Note_on_c, 0, 34, 62
1, 1157914, Note_on_c, 0, 74, 80
1, 1157922, Control_c, 0, 64, 83
1, 1157922, Control_c, 1, 64, 83
1, 1157941, Control_c, 1, 64, 58
1, 1157941, Control_c, 0, 64, 58
1, 1157960, Control_c, 0, 64, 44
1, 1157960, Control_c, 1, 64, 44
1, 1157973, Note_on_c, 0, 66, 32
1, 1157995, Note_on_c, 0, 78, 55
1, 1157997, Control_c, 0, 64, 47
1, 1157997, Control_c, 1, 64, 47
1, 1158016, Control_c, 1, 64, 61
1, 1158016, Control_c, 0, 64, 61
1, 1158036, Control_c, 0, 64, 83
1, 1158036, Control_c, 1, 64, 83
1, 1158055, Control_c, 1, 64, 127
1, 1158055, Control_c, 0, 64, 127
1, 1158137, Note_off_c, 0, 81, 34
1, 1158164, Note_off_c, 0, 34, 54
1, 1158165, Poly_aftertouch_c, 0, 34, 0
1, 1158179, Note_on_c, 0, 46, 33
1, 1158231, Note_off_c, 0, 46, 52
1, 1158233, Note_off_c, 0, 66, 41
1, 1158316, Control_c, 0, 67, 61
1, 1158316, Control_c, 1, 67, 61
1, 1158358, Note_on_c, 0, 79, 73
1, 1158362, Note_on_c, 0, 50, 56
1, 1158374, Note_on_c, 0, 67, 54
1, 1158427, Note_off_c, 0, 74, 59
1, 1158440, Note_off_c, 0, 67, 50
1, 1158444, Note_off_c, 0, 78, 44
1, 1158479, Note_off_c, 0, 50, 58
1, 1158524, Note_on_c, 0, 55, 59
1, 1158681, Note_off_c, 0, 55, 60
1, 1158690, Control_c, 0, 67, 65
1, 1158690, Control_c, 1, 67, 65
1, 1158731, Note_on_c, 0, 58, 44
1, 1158740, Note_on_c, 0, 82, 79
1, 1158778, Note_on_c, 0, 70, 41
1, 1158779, Note_off_c, 0, 79, 60
1, 1158818, Note_off_c, 0, 70, 55
1, 1158854, Note_off_c, 0, 82, 64
1, 1158888, Note_off_c, 0, 58, 60
1, 1158893, Note_on_c, 0, 55, 55
1, 1158938, Note_off_c, 0, 55, 65
1, 1159122, Control_c, 0, 64, 122
1, 1159122, Control_c, 1, 64, 122
1, 1159140, Control_c, 1, 64, 76
1, 1159140, Control_c, 0, 64, 76
1, 1159149, Note_on_c, 0, 82, 80
1, 1159159, Control_c, 0, 64, 56
1, 1159159, Control_c, 1, 64, 56
1, 1159160, Note_on_c, 0, 34, 57
1, 1159171, Note_on_c, 0, 85, 68
1, 1159176, Note_on_c, 0, 73, 57
1, 1159177, Control_c, 0, 64, 53
1, 1159177, Control_c, 1, 64, 53
1, 1159197, Control_c, 1, 64, 57
1, 1159197, Control_c, 0, 64, 57
1, 1159214, Control_c, 0, 64, 67
1, 1159214, Control_c, 1, 64, 67
1, 1159234, Control_c, 1, 64, 91
1, 1159234, Control_c, 0, 64, 91
1, 1159237, Control_c, 0, 67, 70
1, 1159237, Control_c, 1, 67, 70
1, 1159252, Control_c, 1, 64, 127
1, 1159252, Control_c, 0, 64, 127
1, 1159289, Control_c, 0, 67, 75
1, 1159289, Control_c, 1, 67, 75
1, 1159291, Note_off_c, 0, 73, 47
1, 1159403, Note_off_c, 0, 34, 58
1, 1159434, Note_on_c, 0, 46, 46
1, 1159475, Note_off_c, 0, 46, 55
1, 1159587, Note_off_c, 0, 82, 64
1, 1159602, Note_off_c, 0, 85, 65
1, 1159626, Control_c, 0, 67, 79
1, 1159626, Control_c, 1, 67, 79
1, 1159629, Note_on_c, 0, 93, 75
1, 1159663, Note_on_c, 0, 81, 49
1, 1159669, Note_on_c, 0, 49, 50
1, 1159838, Note_on_c, 0, 55, 48
1, 1159842, Note_off_c, 0, 49, 59
1, 1159900, Note_off_c, 0, 81, 55
1, 1160056, Note_off_c, 0, 55, 57
1, 1160088, Note_on_c, 0, 91, 71
1, 1160103, Note_on_c, 0, 61, 37
1, 1160123, Note_on_c, 0, 79, 20
1, 1160149, Note_off_c, 0, 93, 59
1, 1160202, Note_off_c, 0, 91, 60
1, 1160262, Note_off_c, 0, 61, 52
1, 1160276, Note_off_c, 0, 79, 41
1, 1160303, Note_on_c, 0, 58, 35
1, 1160346, Note_off_c, 0, 58, 49
1, 1160394, Control_c, 0, 67, 88
1, 1160394, Control_c, 1, 67, 88
1, 1160412, Control_c, 1, 67, 93
1, 1160412, Control_c, 0, 67, 93
1, 1160451, Control_c, 0, 67, 98
1, 1160451, Control_c, 1, 67, 98
1, 1160507, Control_c, 1, 67, 103
1, 1160507, Control_c, 0, 67, 103
1, 1160580, Control_c, 0, 67, 108
1, 1160580, Control_c, 1, 67, 108
1, 1160613, Note_on_c, 0, 36, 37
1, 1160657, Control_c, 0, 64, 85
1, 1160657, Control_c, 1, 64, 85
1, 1160673, Note_on_c, 0, 82, 65
1, 1160675, Control_c, 0, 64, 61
1, 1160675, Control_c, 1, 64, 61
1, 1160677, Control_c, 1, 67, 113
1, 1160677, Control_c, 0, 67, 113
1, 1160693, Control_c, 0, 64, 44
1, 1160693, Control_c, 1, 64, 44
1, 1160703, Note_on_c, 0, 89, 41
1, 1160713, Note_on_c, 0, 77, 46
1, 1160713, Control_c, 0, 64, 36
1, 1160713, Control_c, 0, 67, 117
1, 1160713, Control_c, 1, 64, 36
1, 1160713, Control_c, 1, 67, 117
1, 1160749, Control_c, 1, 67, 121
1, 1160749, Control_c, 0, 67, 121
1, 1160787, Control_c, 0, 67, 125
1, 1160787, Control_c, 1, 67, 125
1, 1160806, Control_c, 1, 64, 53
1, 1160806, Control_c, 0, 64, 53
1, 1160824, Control_c, 0, 64, 71
1, 1160824, Control_c, 1, 64, 71
1, 1160843, Control_c, 1, 64, 95
1, 1160843, Control_c, 0, 64, 95
1, 1160862, Control_c, 0, 64, 127
1, 1160862, Control_c, 1, 64, 127
1, 1160967, Note_off_c, 0, 77, 56
1, 1160998, Note_off_c, 0, 36, 41
1, 1161031, Note_on_c, 0, 48, 32
1, 1161116, Note_off_c, 0, 48, 54
1, 1161213, Note_off_c, 0, 89, 41
1, 1161270, Note_on_c, 0, 86, 47
1, 1161300, Note_on_c, 0, 55, 39
1, 1161356, Poly_aftertouch_c, 0, 74, 127
1, 1161401, Poly_aftertouch_c, 0, 74, 0
1, 1161500, Note_off_c, 0, 55, 46
1, 1161511, Note_on_c, 0, 58, 44
1, 1161849, Note_on_c, 0, 67, 33
1, 1161878, Note_on_c, 0, 88, 54
1, 1161932, Note_on_c, 0, 76, 24
1, 1161942, Note_off_c, 0, 82, 60
1, 1161942, Note_off_c, 0, 86, 37
1, 1162059, Note_off_c, 0, 76, 37
1, 1162098, Poly_aftertouch_c, 0, 58, 24
1, 1162138, Note_off_c, 0, 58, 41
1, 1162138, Poly_aftertouch_c, 0, 58, 0
1, 1162139, Note_off_c, 0, 67, 36
1, 1162151, Note_on_c, 0, 60, 36
1, 1162271, Note_off_c, 0, 60, 44
1, 1162599, Note_on_c, 0, 41, 42
1, 1162734, Control_c, 0, 64, 86
1, 1162734, Control_c, 1, 64, 86
1, 1162752, Control_c, 1, 64, 64
1, 1162752, Control_c, 0, 64, 64
1, 1162767, Note_on_c, 0, 89, 48
1, 1162771, Control_c, 0, 64, 47
1, 1162771, Control_c, 1, 64, 47
1, 1162788, Note_on_c, 0, 81, 47
1, 1162789, Control_c, 0, 64, 37
1, 1162789, Control_c, 1, 64, 37
1, 1162801, Note_on_c, 0, 77, 24
1, 1162807, Control_c, 0, 64, 30
1, 1162807, Control_c, 1, 64, 30
1, 1162827, Control_c, 1, 64, 24
1, 1162827, Control_c, 0, 64, 24
1, 1162846, Control_c, 0, 64, 20
1, 1162846, Control_c, 1, 64, 20
1, 1162884, Control_c, 1, 64, 13
1, 1162884, Control_c, 0, 64, 13
1, 1162903, Note_off_c, 0, 88, 34
1, 1163033, Control_c, 0, 64, 17
1, 1163033, Control_c, 1, 64, 17
1, 1163053, Control_c, 1, 64, 26
1, 1163053, Control_c, 0, 64, 26
1, 1163071, Control_c, 0, 64, 40
1, 1163071, Control_c, 1, 64, 40
1, 1163089, Control_c, 1, 64, 59
1, 1163089, Control_c, 0, 64, 59
1, 1163109, Control_c, 0, 64, 75
1, 1163109, Control_c, 1, 64, 75
1, 1163127, Control_c, 1, 64, 83
1, 1163127, Control_c, 0, 64, 83
1, 1163147, Control_c, 0, 64, 89
1, 1163147, Control_c, 1, 64, 89
1, 1163164, Control_c, 1, 64, 93
1, 1163164, Control_c, 0, 64, 93
1, 1163183, Control_c, 0, 64, 104
1, 1163183, Control_c, 1, 64, 104
1, 1163201, Control_c, 1, 64, 127
1, 1163201, Control_c, 0, 64, 127
1, 1163430, Note_on_c, 0, 48, 27
1, 1163493, Note_off_c, 0, 41, 33
1, 1163921, Note_on_c, 0, 57, 28
1, 1163949, Poly_aftertouch_c, 0, 48, 24
1, 1164012, Note_off_c, 0, 48, 36
1, 1164012, Poly_aftertouch_c, 0, 48, 0
1, 1164158, Note_off_c, 0, 57, 52
1, 1164712, Note_on_c, 0, 65, 25
1, 1164874, Note_off_c, 0, 65, 31
1, 1165412, Note_off_c, 0, 81, 36
1, 1165425, Note_off_c, 0, 77, 40
1, 1165481, Note_off_c, 0, 89, 28
1, 1166253, Control_c, 0, 64, 118
1, 1166253, Control_c, 1, 64, 118
1, 1166272, Control_c, 1, 64, 113
1, 1166272, Control_c, 0, 64, 113
1, 1166290, Control_c, 0, 64, 108
1, 1166290, Control_c, 1, 64, 108
1, 1166329, Control_c, 1, 64, 102
1, 1166329, Control_c, 0, 64, 102
1, 1166365, Control_c, 0, 64, 98
1, 1166365, Control_c, 1, 64, 98
1, 1166422, Control_c, 1, 64, 93
1, 1166422, Control_c, 0, 64, 93
1, 1166459, Control_c, 0, 64, 89
1, 1166459, Control_c, 1, 64, 89
1, 1166477, Control_c, 1, 64, 86
1, 1166477, Control_c, 0, 64, 86
1, 1166497, Control_c, 0, 64, 82
1, 1166497, Control_c, 1, 64, 82
1, 1166515, Control_c, 1, 64, 78
1, 1166515, Control_c, 0, 64, 78
1, 1166533, Control_c, 0, 64, 76
1, 1166533, Control_c, 1, 64, 76
1, 1166553, Control_c, 1, 64, 73
1, 1166553, Control_c, 0, 64, 73
1, 1166570, Control_c, 0, 64, 71
1, 1166570, Control_c, 1, 64, 71
1, 1166608, Control_c, 1, 64, 69
1, 1166608, Control_c, 0, 64, 69
1, 1166628, Control_c, 0, 64, 68
1, 1166628, Control_c, 1, 64, 68
1, 1166645, Control_c, 1, 64, 67
1, 1166645, Control_c, 0, 64, 67
1, 1166664, Control_c, 0, 64, 66
1, 1166664, Control_c, 1, 64, 66
1, 1166684, Control_c, 1, 64, 65
1, 1166684, Control_c, 0, 64, 65
1, 1166701, Control_c, 0, 64, 63
1, 1166701, Control_c, 1, 64, 63
1, 1166721, Control_c, 1, 64, 61
1, 1166721, Control_c, 0, 64, 61
1, 1166739, Control_c, 0, 64, 60
1, 1166739, Control_c, 1, 64, 60
1, 1167226, Control_c, 1, 64, 61
1, 1167226, Control_c, 0, 64, 61
1, 1167282, Control_c, 0, 64, 62
1, 1167282, Control_c, 1, 64, 62
1, 1167357, Control_c, 1, 64, 63
1, 1167357, Control_c, 0, 64, 63
1, 1167395, Control_c, 0, 64, 64
1, 1167395, Control_c, 1, 64, 64
1, 1167432, Control_c, 1, 64, 65
1, 1167432, Control_c, 0, 64, 65
1, 1167488, Control_c, 0, 64, 67
1, 1167488, Control_c, 1, 64, 67
1, 1167525, Control_c, 1, 64, 68
1, 1167525, Control_c, 0, 64, 68
1, 1167602, Control_c, 0, 64, 70
1, 1167602, Control_c, 1, 64, 70
1, 1167637, Control_c, 1, 64, 72
1, 1167637, Control_c, 0, 64, 72
1, 1167675, Control_c, 0, 64, 74
1, 1167675, Control_c, 1, 64, 74
1, 1167695, Control_c, 1, 64, 76
1, 1167695, Control_c, 0, 64, 76
1, 1167713, Control_c, 0, 64, 78
1, 1167713, Control_c, 1, 64, 78
1, 1167732, Control_c, 1, 64, 82
1, 1167732, Control_c, 0, 64, 82
1, 1167750, Control_c, 0, 64, 89
1, 1167750, Control_c, 1, 64, 89
1, 1167769, Control_c, 1, 64, 97
1, 1167769, Control_c, 0, 64, 97
1, 1167788, Control_c, 0, 64, 110
1, 1167788, Control_c, 1, 64, 110
1, 1167806, Control_c, 1, 64, 127
1, 1167806, Control_c, 0, 64, 127
1, 1169219, Note_on_c, 0, 88, 36
1, 1169233, Note_on_c, 0, 72, 25
1, 1169236, Note_on_c, 0, 84, 34
1, 1169444, Note_off_c, 0, 72, 42
1, 1169444, Poly_aftertouch_c, 0, 72, 0
1, 1169639, Note_on_c, 0, 83, 42
1, 1169649, Note_off_c, 0, 84, 39
1, 1169737, Note_off_c, 0, 83, 47
1, 1170034, Control_c, 0, 64, 91
1, 1170034, Control_c, 1, 64, 91
1, 1170053, Control_c, 1, 64, 69
1, 1170053, Control_c, 0, 64, 69
1, 1170063, Note_on_c, 0, 87, 34
1, 1170070, Control_c, 0, 64, 56
1, 1170070, Control_c, 1, 64, 56
1, 1170078, Note_on_c, 0, 57, 27
1, 1170085, Note_on_c, 0, 83, 21
1, 1170089, Note_on_c, 0, 71, 27
1, 1170089, Control_c, 0, 64, 53
1, 1170089, Control_c, 1, 64, 53
1, 1170129, Control_c, 1, 64, 60
1, 1170129, Control_c, 0, 64, 60
1, 1170146, Control_c, 0, 64, 67
1, 1170146, Control_c, 1, 64, 67
1, 1170166, Control_c, 1, 64, 77
1, 1170166, Control_c, 0, 64, 77
1, 1170183, Control_c, 0, 64, 93
1, 1170183, Control_c, 1, 64, 93
1, 1170202, Control_c, 1, 64, 127
1, 1170202, Control_c, 0, 64, 127
1, 1170353, Poly_aftertouch_c, 0, 83, 22
1, 1170354, Note_on_c, 0, 81, 37
1, 1170368, Note_off_c, 0, 83, 40
1, 1170368, Poly_aftertouch_c, 0, 83, 0
1, 1170373, Note_off_c, 0, 88, 41
1, 1170398, Note_off_c, 0, 87, 54
1, 1170402, Note_off_c, 0, 81, 48
1, 1170607, Note_off_c, 0, 71, 52
1, 1170615, Control_c, 0, 64, 88
1, 1170615, Control_c, 1, 64, 88
1, 1170628, Note_on_c, 0, 84, 46
1, 1170633, Control_c, 0, 64, 70
1, 1170633, Control_c, 1, 64, 70
1, 1170652, Control_c, 1, 64, 64
1, 1170652, Control_c, 0, 64, 64
1, 1170657, Note_on_c, 0, 69, 31
1, 1170663, Note_on_c, 0, 81, 16
1, 1170671, Control_c, 0, 64, 66
1, 1170671, Control_c, 1, 64, 66
1, 1170690, Control_c, 1, 64, 70
1, 1170690, Control_c, 0, 64, 70
1, 1170708, Control_c, 0, 64, 76
1, 1170708, Control_c, 1, 64, 76
1, 1170727, Control_c, 1, 64, 85
1, 1170727, Control_c, 0, 64, 85
1, 1170745, Control_c, 0, 64, 102
1, 1170745, Control_c, 1, 64, 102
1, 1170764, Note_off_c, 0, 81, 37
1, 1170764, Control_c, 0, 64, 127
1, 1170764, Control_c, 1, 64, 127
1, 1170848, Note_on_c, 0, 79, 53
1, 1170897, Note_off_c, 0, 79, 62
1, 1171007, Control_c, 0, 64, 122
1, 1171007, Control_c, 1, 64, 122
1, 1171026, Control_c, 1, 64, 82
1, 1171026, Control_c, 0, 64, 82
1, 1171045, Control_c, 0, 64, 63
1, 1171045, Control_c, 1, 64, 63
1, 1171064, Note_off_c, 0, 69, 53
1, 1171064, Control_c, 0, 64, 58
1, 1171064, Control_c, 1, 64, 58
1, 1171071, Note_on_c, 0, 67, 47
1, 1171078, Note_on_c, 0, 83, 53
1, 1171082, Note_on_c, 0, 79, 34
1, 1171083, Control_c, 0, 64, 61
1, 1171083, Control_c, 1, 64, 61
1, 1171101, Control_c, 1, 64, 67
1, 1171101, Control_c, 0, 64, 67
1, 1171118, Control_c, 0, 64, 75
1, 1171118, Control_c, 1, 64, 75
1, 1171138, Control_c, 1, 64, 88
1, 1171138, Control_c, 0, 64, 88
1, 1171153, Note_off_c, 0, 84, 35
1, 1171157, Control_c, 0, 64, 119
1, 1171157, Control_c, 1, 64, 119
1, 1171177, Control_c, 1, 64, 127
1, 1171177, Control_c, 0, 64, 127
1, 1171280, Note_on_c, 0, 77, 49
1, 1171289, Note_off_c, 0, 79, 37
1, 1171290, Poly_aftertouch_c, 0, 79, 0
1, 1171364, Note_off_c, 0, 77, 56
1, 1171420, Control_c, 0, 64, 84
1, 1171420, Control_c, 1, 64, 84
1, 1171439, Control_c, 1, 64, 62
1, 1171439, Control_c, 0, 64, 62
1, 1171456, Control_c, 0, 64, 53
1, 1171456, Control_c, 1, 64, 53
1, 1171494, Note_on_c, 0, 81, 58
1, 1171495, Control_c, 0, 64, 61
1, 1171495, Control_c, 1, 64, 61
1, 1171508, Note_on_c, 0, 65, 39
1, 1171512, Control_c, 0, 64, 68
1, 1171512, Control_c, 1, 64, 68
1, 1171515, Note_off_c, 0, 83, 57
1, 1171515, Poly_aftertouch_c, 0, 83, 0
1, 1171529, Note_on_c, 0, 77, 40
1, 1171530, Control_c, 0, 64, 78
1, 1171530, Control_c, 1, 64, 78
1, 1171535, Note_off_c, 0, 67, 41
1, 1171551, Control_c, 0, 64, 94
1, 1171551, Control_c, 1, 64, 94
1, 1171569, Control_c, 1, 64, 127
1, 1171569, Control_c, 0, 64, 127
1, 1171659, Note_off_c, 0, 65, 57
1, 1171664, Note_off_c, 0, 77, 39
1, 1171703, Note_off_c, 0, 57, 43
1, 1171720, Note_on_c, 0, 75, 47
1, 1171981, Control_c, 0, 64, 85
1, 1171981, Control_c, 1, 64, 85
1, 1171989, Note_off_c, 0, 75, 50
1, 1171997, Control_c, 0, 64, 60
1, 1171997, Control_c, 1, 64, 60
1, 1172008, Note_on_c, 0, 64, 13
1, 1172010, Note_on_c, 0, 80, 44
1, 1172011, Note_on_c, 0, 52, 42
1, 1172017, Control_c, 0, 64, 41
1, 1172017, Control_c, 1, 64, 41
1, 1172033, Note_on_c, 0, 76, 26
1, 1172038, Control_c, 0, 64, 32
1, 1172038, Control_c, 1, 64, 32
1, 1172112, Control_c, 1, 64, 41
1, 1172112, Control_c, 0, 64, 41
1, 1172130, Control_c, 0, 64, 54
1, 1172130, Control_c, 1, 64, 54
1, 1172149, Control_c, 1, 64, 69
1, 1172149, Control_c, 0, 64, 69
1, 1172170, Control_c, 0, 64, 85
1, 1172170, Control_c, 1, 64, 85
1, 1172186, Control_c, 1, 64, 105
1, 1172186, Control_c, 0, 64, 105
1, 1172205, Control_c, 0, 64, 127
1, 1172205, Control_c, 1, 64, 127
1, 1172224, Note_off_c, 0, 81, 47
1, 1172278, Note_on_c, 0, 71, 43
1, 1172285, Poly_aftertouch_c, 0, 76, 20
1, 1172289, Note_off_c, 0, 76, 41
1, 1172289, Poly_aftertouch_c, 0, 76, 0
1, 1172315, Note_off_c, 0, 80, 37
1, 1172377, Note_off_c, 0, 71, 53
1, 1172486, Control_c, 0, 64, 119
1, 1172486, Control_c, 1, 64, 119
1, 1172504, Control_c, 1, 64, 80
1, 1172504, Control_c, 0, 64, 80
1, 1172516, Note_on_c, 0, 77, 47
1, 1172522, Control_c, 0, 64, 59
1, 1172522, Control_c, 1, 64, 59
1, 1172535, Note_on_c, 0, 59, 26
1, 1172541, Control_c, 0, 64, 49
1, 1172541, Control_c, 1, 64, 49
1, 1172580, Control_c, 1, 64, 56
1, 1172580, Control_c, 0, 64, 56
1, 1172598, Control_c, 0, 64, 64
1, 1172598, Control_c, 1, 64, 64
1, 1172616, Note_off_c, 0, 64, 35
1, 1172617, Control_c, 0, 64, 74
1, 1172617, Control_c, 1, 64, 74
1, 1172625, Poly_aftertouch_c, 0, 71, 127
1, 1172636, Control_c, 0, 64, 87
1, 1172636, Control_c, 1, 64, 87
1, 1172654, Control_c, 1, 64, 112
1, 1172654, Control_c, 0, 64, 112
1, 1172673, Control_c, 0, 64, 127
1, 1172673, Control_c, 1, 64, 127
1, 1172781, Poly_aftertouch_c, 0, 71, 0
1, 1172782, Note_on_c, 0, 68, 35
1, 1172801, Note_off_c, 0, 77, 46
1, 1172885, Note_off_c, 0, 68, 34
1, 1173074, Note_on_c, 0, 56, 34
1, 1173084, Control_c, 0, 64, 88
1, 1173084, Control_c, 1, 64, 88
1, 1173091, Note_on_c, 0, 76, 36
1, 1173104, Control_c, 0, 64, 67
1, 1173104, Control_c, 1, 64, 67
1, 1173122, Control_c, 1, 64, 52
1, 1173122, Control_c, 0, 64, 52
1, 1173136, Note_off_c, 0, 59, 29
1, 1173138, Note_on_c, 0, 68, 31
1, 1173140, Control_c, 0, 64, 46
1, 1173140, Control_c, 1, 64, 46
1, 1173235, Control_c, 1, 64, 49
1, 1173235, Control_c, 0, 64, 49
1, 1173253, Control_c, 0, 64, 56
1, 1173253, Control_c, 1, 64, 56
1, 1173272, Control_c, 1, 64, 64
1, 1173272, Control_c, 0, 64, 64
1, 1173290, Control_c, 0, 64, 71
1, 1173290, Control_c, 1, 64, 71
1, 1173310, Control_c, 1, 64, 78
1, 1173310, Control_c, 0, 64, 78
1, 1173328, Control_c, 0, 64, 86
1, 1173328, Control_c, 1, 64, 86
1, 1173347, Control_c, 1, 64, 95
1, 1173347, Control_c, 0, 64, 95
1, 1173366, Control_c, 0, 64, 110
1, 1173366, Control_c, 1, 64, 110
1, 1173385, Control_c, 1, 64, 127
1, 1173385, Control_c, 0, 64, 127
1, 1173414, Note_on_c, 0, 64, 40
1, 1173435, Note_off_c, 0, 68, 40
1, 1173560, Note_off_c, 0, 76, 40
1, 1173560, Poly_aftertouch_c, 0, 76, 0
1, 1173866, Note_on_c, 0, 60, 37
1, 1173964, Control_c, 0, 64, 84
1, 1173964, Control_c, 1, 64, 84
1, 1173985, Control_c, 1, 64, 63
1, 1173985, Control_c, 0, 64, 63
1, 1173990, Poly_aftertouch_c, 0, 64, 24
1, 1173992, Note_on_c, 0, 76, 71
1, 1174002, Control_c, 0, 64, 54
1, 1174002, Control_c, 1, 64, 54
1, 1174021, Note_on_c, 0, 72, 48
1, 1174040, Control_c, 0, 64, 62
1, 1174040, Control_c, 1, 64, 62
1, 1174053, Note_off_c, 0, 64, 35
1, 1174053, Poly_aftertouch_c, 0, 64, 0
1, 1174058, Note_off_c, 0, 56, 41
1, 1174058, Control_c, 0, 64, 70
1, 1174058, Control_c, 1, 64, 70
1, 1174079, Control_c, 1, 64, 82
1, 1174079, Control_c, 0, 64, 82
1, 1174096, Control_c, 0, 64, 105
1, 1174096, Control_c, 1, 64, 105
1, 1174115, Control_c, 1, 64, 127
1, 1174115, Control_c, 0, 64, 127
1, 1174123, Note_off_c, 0, 52, 58
1, 1174123, Poly_aftertouch_c, 0, 52, 0
1, 1174336, Note_on_c, 0, 71, 51
1, 1174365, Note_off_c, 0, 60, 28
1, 1174418, Note_off_c, 0, 72, 51
1, 1174418, Poly_aftertouch_c, 0, 72, 0
1, 1174486, Note_off_c, 0, 71, 56
1, 1174694, Control_c, 0, 64, 108
1, 1174694, Control_c, 1, 64, 108
1, 1174713, Control_c, 1, 64, 78
1, 1174713, Note_on_c, 0, 59, 35
1, 1174713, Control_c, 0, 64, 78
1, 1174717, Note_on_c, 0, 75, 59
1, 1174721, Note_on_c, 0, 45, 34
1, 1174732, Control_c, 0, 64, 59
1, 1174732, Control_c, 1, 64, 59
1, 1174751, Control_c, 1, 64, 49
1, 1174751, Control_c, 0, 64, 49
1, 1174807, Control_c, 0, 64, 57
1, 1174807, Control_c, 1, 64, 57
1, 1174826, Control_c, 1, 64, 65
1, 1174826, Control_c, 0, 64, 65
1, 1174834, Poly_aftertouch_c, 0, 71, 127
1, 1174844, Control_c, 0, 64, 76
1, 1174844, Control_c, 1, 64, 76
1, 1174863, Control_c, 1, 64, 92
1, 1174863, Control_c, 0, 64, 92
1, 1174882, Control_c, 0, 64, 127
1, 1174882, Control_c, 1, 64, 127
1, 1174885, Poly_aftertouch_c, 0, 71, 0
1, 1174962, Note_on_c, 0, 69, 53
1, 1174970, Note_off_c, 0, 76, 53
1, 1174970, Poly_aftertouch_c, 0, 76, 0
1, 1175029, Note_off_c, 0, 75, 61
1, 1175045, Note_off_c, 0, 69, 51
1, 1175181, Control_c, 0, 64, 86
1, 1175181, Control_c, 1, 64, 86
1, 1175188, Note_on_c, 0, 72, 62
1, 1175198, Note_off_c, 0, 59, 59
1, 1175199, Control_c, 0, 64, 63
1, 1175199, Control_c, 1, 64, 63
1, 1175200, Note_on_c, 0, 69, 51
1, 1175210, Note_on_c, 0, 57, 49
1, 1175217, Control_c, 0, 64, 52
1, 1175217, Control_c, 1, 64, 52
1, 1175257, Control_c, 1, 64, 58
1, 1175257, Control_c, 0, 64, 58
1, 1175262, Note_off_c, 0, 69, 47
1, 1175274, Control_c, 0, 64, 67
1, 1175274, Control_c, 1, 64, 67
1, 1175294, Control_c, 1, 64, 81
1, 1175294, Control_c, 0, 64, 81
1, 1175312, Control_c, 0, 64, 111
1, 1175312, Control_c, 1, 64, 111
1, 1175331, Control_c, 1, 64, 127
1, 1175331, Control_c, 0, 64, 127
1, 1175368, Note_on_c, 0, 67, 61
1, 1175423, Note_off_c, 0, 67, 55
1, 1175575, Control_c, 0, 64, 80
1, 1175575, Control_c, 1, 64, 80
1, 1175585, Note_on_c, 0, 71, 69
1, 1175593, Control_c, 0, 64, 59
1, 1175593, Control_c, 1, 64, 59
1, 1175604, Note_on_c, 0, 67, 44
1, 1175605, Note_on_c, 0, 55, 52
1, 1175606, Note_off_c, 0, 57, 58
1, 1175612, Control_c, 0, 64, 51
1, 1175612, Control_c, 1, 64, 51
1, 1175641, Note_off_c, 0, 72, 55
1, 1175641, Poly_aftertouch_c, 0, 72, 0
1, 1175648, Control_c, 0, 64, 60
1, 1175648, Control_c, 1, 64, 60
1, 1175669, Control_c, 1, 64, 70
1, 1175669, Control_c, 0, 64, 70
1, 1175686, Control_c, 0, 64, 86
1, 1175686, Control_c, 1, 64, 86
1, 1175705, Control_c, 1, 64, 127
1, 1175705, Control_c, 0, 64, 127
1, 1175760, Note_off_c, 0, 67, 54
1, 1175791, Note_on_c, 0, 65, 58
1, 1175844, Note_off_c, 0, 65, 55
1, 1175948, Control_c, 0, 64, 80
1, 1175948, Control_c, 1, 64, 80
1, 1175968, Control_c, 1, 64, 55
1, 1175968, Control_c, 0, 64, 55
1, 1175987, Control_c, 0, 64, 38
1, 1175987, Control_c, 1, 64, 38
1, 1176000, Note_on_c, 0, 69, 64
1, 1176005, Control_c, 0, 64, 33
1, 1176005, Control_c, 1, 64, 33
1, 1176018, Note_on_c, 0, 53, 42
1, 1176027, Note_off_c, 0, 55, 54
1, 1176033, Note_off_c, 0, 71, 61
1, 1176045, Note_on_c, 0, 65, 30
1, 1176061, Control_c, 0, 64, 48
1, 1176061, Control_c, 1, 64, 48
1, 1176080, Control_c, 1, 64, 66
1, 1176080, Control_c, 0, 64, 66
1, 1176099, Control_c, 0, 64, 85
1, 1176099, Control_c, 1, 64, 85
1, 1176117, Control_c, 1, 64, 127
1, 1176117, Control_c, 0, 64, 127
1, 1176132, Note_off_c, 0, 65, 51
1, 1176221, Note_on_c, 0, 63, 43
1, 1176224, Note_off_c, 0, 53, 59
1, 1176264, Note_off_c, 0, 45, 51
1, 1176436, Control_c, 0, 64, 88
1, 1176436, Control_c, 1, 64, 88
1, 1176455, Control_c, 1, 64, 62
1, 1176455, Control_c, 0, 64, 62
1, 1176471, Control_c, 0, 64, 42
1, 1176471, Control_c, 1, 64, 42
1, 1176483, Note_on_c, 0, 68, 51
1, 1176484, Note_on_c, 0, 52, 21
1, 1176490, Control_c, 0, 64, 34
1, 1176490, Control_c, 1, 64, 34
1, 1176494, Note_on_c, 0, 40, 33
1, 1176530, Note_off_c, 0, 63, 30
1, 1176547, Control_c, 0, 64, 41
1, 1176547, Control_c, 1, 64, 41
1, 1176566, Control_c, 1, 64, 53
1, 1176566, Control_c, 0, 64, 53
1, 1176585, Control_c, 0, 64, 67
1, 1176585, Control_c, 1, 64, 67
1, 1176605, Control_c, 1, 64, 82
1, 1176605, Control_c, 0, 64, 82
1, 1176613, Poly_aftertouch_c, 0, 64, 127
1, 1176623, Control_c, 0, 64, 108
1, 1176623, Control_c, 1, 64, 108
1, 1176641, Control_c, 1, 64, 127
1, 1176641, Control_c, 0, 64, 127
1, 1176678, Note_off_c, 0, 69, 34
1, 1176731, Note_on_c, 0, 59, 43
1, 1176739, Note_off_c, 0, 68, 44
1, 1176744, Poly_aftertouch_c, 0, 64, 0
1, 1176844, Note_off_c, 0, 59, 56
1, 1176941, Control_c, 0, 64, 105
1, 1176941, Control_c, 1, 64, 105
1, 1176960, Control_c, 1, 64, 73
1, 1176960, Control_c, 0, 64, 73
1, 1176964, Note_on_c, 0, 65, 52
1, 1176977, Note_on_c, 0, 47, 31
1, 1176977, Control_c, 0, 64, 54
1, 1176977, Control_c, 1, 64, 54
1, 1176997, Control_c, 1, 64, 45
1, 1176997, Control_c, 0, 64, 45
1, 1177034, Control_c, 0, 64, 49
1, 1177034, Control_c, 1, 64, 49
1, 1177054, Control_c, 1, 64, 58
1, 1177054, Control_c, 0, 64, 58
1, 1177071, Control_c, 0, 64, 70
1, 1177071, Control_c, 1, 64, 70
1, 1177091, Control_c, 1, 64, 84
1, 1177091, Control_c, 0, 64, 84
1, 1177096, Note_off_c, 0, 52, 32
1, 1177096, Poly_aftertouch_c, 0, 52, 0
1, 1177107, Poly_aftertouch_c, 0, 59, 127
1, 1177108, Control_c, 0, 64, 112
1, 1177108, Control_c, 1, 64, 112
1, 1177129, Control_c, 1, 64, 127
1, 1177129, Control_c, 0, 64, 127
1, 1177245, Note_off_c, 0, 65, 54
1, 1177252, Note_on_c, 0, 56, 38
1, 1177275, Note_off_c, 0, 40, 36
1, 1177275, Poly_aftertouch_c, 0, 40, 0
1, 1177277, Poly_aftertouch_c, 0, 59, 0
1, 1177448, Note_off_c, 0, 56, 35
1, 1177518, Note_on_c, 0, 40, 24
1, 1177615, Control_c, 0, 64, 118
1, 1177615, Control_c, 1, 64, 118
1, 1177633, Control_c, 1, 64, 78
1, 1177633, Control_c, 0, 64, 78
1, 1177648, Note_on_c, 0, 64, 42
1, 1177649, Note_on_c, 0, 56, 33
1, 1177651, Control_c, 0, 64, 56
1, 1177651, Control_c, 1, 64, 56
1, 1177670, Control_c, 1, 64, 41
1, 1177670, Control_c, 0, 64, 41
1, 1177690, Control_c, 0, 64, 37
1, 1177690, Control_c, 1, 64, 37
1, 1177693, Note_off_c, 0, 47, 35
1, 1177746, Control_c, 0, 64, 42
1, 1177746, Control_c, 1, 64, 42
1, 1177766, Control_c, 1, 64, 53
1, 1177766, Control_c, 0, 64, 53
1, 1177783, Control_c, 0, 64, 66
1, 1177783, Control_c, 1, 64, 66
1, 1177802, Control_c, 1, 64, 80
1, 1177802, Control_c, 0, 64, 80
1, 1177820, Control_c, 0, 64, 99
1, 1177820, Control_c, 1, 64, 99
1, 1177840, Control_c, 1, 64, 127
1, 1177840, Control_c, 0, 64, 127
1, 1177884, Note_off_c, 0, 40, 40
1, 1177884, Poly_aftertouch_c, 0, 40, 0
1, 1178007, Note_on_c, 0, 52, 40
1, 1178049, Note_off_c, 0, 56, 35
1, 1178094, Note_off_c, 0, 52, 58
1, 1178094, Poly_aftertouch_c, 0, 52, 0
1, 1178181, Note_off_c, 0, 64, 61
1, 1178488, Note_on_c, 0, 33, 38
1, 1178550, Control_c, 0, 64, 92
1, 1178550, Control_c, 1, 64, 92
1, 1178570, Control_c, 1, 64, 62
1, 1178570, Control_c, 0, 64, 62
1, 1178589, Control_c, 0, 64, 41
1, 1178589, Control_c, 1, 64, 41
1, 1178607, Control_c, 1, 64, 33
1, 1178607, Control_c, 0, 64, 33
1, 1178630, Note_on_c, 0, 88, 50
1, 1178663, Control_c, 0, 64, 39
1, 1178663, Control_c, 1, 64, 39
1, 1178681, Control_c, 1, 64, 54
1, 1178681, Control_c, 0, 64, 54
1, 1178688, Note_on_c, 0, 84, 20
1, 1178701, Control_c, 0, 64, 75
1, 1178701, Control_c, 1, 64, 75
1, 1178719, Control_c, 1, 64, 107
1, 1178719, Control_c, 0, 64, 107
1, 1178738, Control_c, 0, 64, 127
1, 1178738, Control_c, 1, 64, 127
1, 1178786, Note_off_c, 0, 33, 53
1, 1179118, Note_on_c, 0, 83, 45
1, 1179148, Note_off_c, 0, 84, 38
1, 1179228, Note_off_c, 0, 83, 56
1, 1179228, Poly_aftertouch_c, 0, 83, 0
1, 1179549, Note_on_c, 0, 87, 41
1, 1179567, Note_on_c, 0, 57, 36
1, 1179569, Note_on_c, 0, 83, 28
1, 1179585, Note_on_c, 0, 71, 37
1, 1179802, Note_off_c, 0, 83, 19
1, 1179802, Poly_aftertouch_c, 0, 83, 0
1, 1179834, Note_on_c, 0, 81, 40
1, 1179847, Note_off_c, 0, 87, 54
1, 1179852, Note_off_c, 0, 88, 37
1, 1179900, Note_off_c, 0, 81, 59
1, 1180030, Control_c, 0, 64, 116
1, 1180030, Control_c, 1, 64, 116
1, 1180040, Note_off_c, 0, 71, 51
1, 1180048, Control_c, 0, 64, 93
1, 1180048, Control_c, 1, 64, 93
1, 1180054, Note_on_c, 0, 84, 51
1, 1180075, Note_on_c, 0, 81, 36
1, 1180078, Note_on_c, 0, 69, 44
1, 1180104, Control_c, 0, 64, 110
1, 1180104, Control_c, 1, 64, 110
1, 1180123, Control_c, 1, 64, 127
1, 1180123, Control_c, 0, 64, 127
1, 1180140, Note_off_c, 0, 81, 40
1, 1180250, Note_on_c, 0, 79, 48
1, 1180315, Note_off_c, 0, 79, 58
1, 1180422, Control_c, 0, 64, 94
1, 1180422, Control_c, 1, 64, 94
1, 1180442, Control_c, 1, 64, 72
1, 1180442, Control_c, 0, 64, 72
1, 1180444, Note_off_c, 0, 69, 58
1, 1180460, Control_c, 0, 64, 64
1, 1180460, Control_c, 1, 64, 64
1, 1180465, Note_on_c, 0, 67, 39
1, 1180475, Note_on_c, 0, 83, 54
1, 1180478, Control_c, 0, 64, 67
1, 1180478, Control_c, 1, 64, 67
1, 1180496, Control_c, 1, 64, 74
1, 1180496, Control_c, 0, 64, 74
1, 1180516, Control_c, 0, 64, 87
1, 1180516, Control_c, 1, 64, 87
1, 1180535, Note_off_c, 0, 84, 49
1, 1180536, Control_c, 0, 64, 127
1, 1180536, Control_c, 1, 64, 127
1, 1180550, Poly_aftertouch_c, 0, 79, 127
1, 1180663, Note_on_c, 0, 77, 42
1, 1180727, Poly_aftertouch_c, 0, 79, 0
1, 1180758, Note_off_c, 0, 77, 56
1, 1180816, Control_c, 0, 64, 88
1, 1180816, Control_c, 1, 64, 88
1, 1180835, Control_c, 1, 64, 68
1, 1180835, Control_c, 0, 64, 68
1, 1180853, Control_c, 0, 64, 62
1, 1180853, Control_c, 1, 64, 62
1, 1180872, Control_c, 1, 64, 64
1, 1180872, Control_c, 0, 64, 64
1, 1180878, Note_on_c, 0, 81, 58
1, 1180892, Note_off_c, 0, 67, 52
1, 1180892, Note_on_c, 0, 65, 40
1, 1180892, Control_c, 0, 64, 71
1, 1180892, Control_c, 1, 64, 71
1, 1180909, Control_c, 1, 64, 81
1, 1180909, Control_c, 0, 64, 81
1, 1180913, Note_off_c, 0, 83, 60
1, 1180913, Poly_aftertouch_c, 0, 83, 0
1, 1180929, Control_c, 0, 64, 104
1, 1180929, Control_c, 1, 64, 104
1, 1180946, Control_c, 1, 64, 127
1, 1180946, Control_c, 0, 64, 127
1, 1180967, Note_on_c, 0, 77, 15
1, 1181041, Note_off_c, 0, 65, 58
1, 1181042, Note_off_c, 0, 77, 43
1, 1181078, Note_on_c, 0, 75, 48
1, 1181080, Note_off_c, 0, 57, 50
1, 1181246, Control_c, 0, 64, 82
1, 1181246, Control_c, 1, 64, 82
1, 1181265, Control_c, 1, 64, 59
1, 1181265, Control_c, 0, 64, 59
1, 1181282, Control_c, 0, 64, 47
1, 1181282, Control_c, 1, 64, 47
1, 1181290, Note_off_c, 0, 75, 60
1, 1181290, Note_on_c, 0, 80, 53
1, 1181307, Note_on_c, 0, 52, 29
1, 1181341, Control_c, 0, 64, 54
1, 1181341, Control_c, 1, 64, 54
1, 1181358, Control_c, 1, 64, 64
1, 1181358, Control_c, 0, 64, 64
1, 1181370, Note_on_c, 0, 76, 23
1, 1181372, Poly_aftertouch_c, 0, 64, 127
1, 1181375, Control_c, 0, 64, 78
1, 1181375, Control_c, 1, 64, 78
1, 1181397, Control_c, 1, 64, 105
1, 1181397, Control_c, 0, 64, 105
1, 1181414, Control_c, 0, 64, 127
1, 1181414, Control_c, 1, 64, 127
1, 1181510, Note_off_c, 0, 81, 35
1, 1181518, Note_off_c, 0, 76, 39
1, 1181518, Poly_aftertouch_c, 0, 76, 0
1, 1181534, Note_on_c, 0, 71, 29
1, 1181542, Note_off_c, 0, 80, 49
1, 1181587, Note_off_c, 0, 71, 45
1, 1181696, Control_c, 0, 64, 99
1, 1181696, Control_c, 1, 64, 99
1, 1181704, Poly_aftertouch_c, 0, 64, 24
1, 1181714, Control_c, 0, 64, 70
1, 1181714, Control_c, 1, 64, 70
1, 1181733, Control_c, 1, 64, 53
1, 1181733, Control_c, 0, 64, 53
1, 1181746, Note_on_c, 0, 59, 28
1, 1181746, Note_on_c, 0, 77, 49
1, 1181751, Poly_aftertouch_c, 0, 64, 0
1, 1181751, Control_c, 0, 64, 50
1, 1181751, Control_c, 1, 64, 50
1, 1181769, Note_on_c, 0, 71, 10
1, 1181770, Control_c, 0, 64, 53
1, 1181770, Control_c, 1, 64, 53
1, 1181789, Control_c, 1, 64, 61
1, 1181789, Control_c, 0, 64, 61
1, 1181808, Control_c, 0, 64, 74
1, 1181808, Control_c, 1, 64, 74
1, 1181827, Control_c, 1, 64, 96
1, 1181827, Control_c, 0, 64, 96
1, 1181845, Control_c, 0, 64, 127
1, 1181845, Control_c, 1, 64, 127
1, 1181949, Note_on_c, 0, 68, 47
1, 1181974, Note_off_c, 0, 71, 38
1, 1182000, Note_off_c, 0, 77, 51
1, 1182058, Note_off_c, 0, 68, 47
1, 1182249, Note_on_c, 0, 56, 33
1, 1182281, Note_off_c, 0, 59, 34
1, 1182294, Control_c, 0, 64, 89
1, 1182294, Control_c, 1, 64, 89
1, 1182314, Control_c, 1, 64, 64
1, 1182314, Control_c, 0, 64, 64
1, 1182321, Note_on_c, 0, 76, 47
1, 1182332, Control_c, 0, 64, 48
1, 1182332, Control_c, 1, 64, 48
1, 1182347, Note_on_c, 0, 68, 35
1, 1182351, Control_c, 0, 64, 44
1, 1182351, Control_c, 1, 64, 44
1, 1182388, Control_c, 1, 64, 48
1, 1182388, Control_c, 0, 64, 48
1, 1182407, Control_c, 0, 64, 57
1, 1182407, Control_c, 1, 64, 57
1, 1182425, Control_c, 1, 64, 68
1, 1182425, Control_c, 0, 64, 68
1, 1182444, Control_c, 0, 64, 81
1, 1182444, Control_c, 1, 64, 81
1, 1182464, Control_c, 1, 64, 101
1, 1182464, Control_c, 0, 64, 101
1, 1182482, Control_c, 0, 64, 127
1, 1182482, Control_c, 1, 64, 127
1, 1182546, Note_off_c, 0, 68, 38
1, 1182574, Note_on_c, 0, 64, 21
1, 1182629, Note_off_c, 0, 76, 55
1, 1182629, Poly_aftertouch_c, 0, 76, 0
1, 1182637, Note_off_c, 0, 64, 48
1, 1182810, Note_on_c, 0, 60, 41
1, 1182818, Control_c, 0, 64, 91
1, 1182818, Control_c, 1, 64, 91
1, 1182837, Control_c, 1, 64, 67
1, 1182837, Control_c, 0, 64, 67
1, 1182856, Control_c, 0, 64, 54
1, 1182856, Control_c, 1, 64, 54
1, 1182887, Note_on_c, 0, 76, 52
1, 1182892, Control_c, 0, 64, 58
1, 1182892, Control_c, 1, 64, 58
1, 1182912, Control_c, 1, 64, 65
1, 1182912, Control_c, 0, 64, 65
1, 1182920, Note_on_c, 0, 72, 42
1, 1182931, Control_c, 0, 64, 77
1, 1182931, Control_c, 1, 64, 77
1, 1182950, Control_c, 1, 64, 98
1, 1182950, Control_c, 0, 64, 98
1, 1182967, Control_c, 0, 64, 127
1, 1182967, Control_c, 1, 64, 127
1, 1182968, Note_off_c, 0, 56, 40
1, 1183031, Note_off_c, 0, 52, 39
1, 1183031, Poly_aftertouch_c, 0, 52, 0
1, 1183067, Note_off_c, 0, 60, 38
1, 1183154, Note_off_c, 0, 72, 49
1, 1183154, Poly_aftertouch_c, 0, 72, 0
1, 1183165, Note_on_c, 0, 71, 51
1, 1183256, Note_off_c, 0, 71, 60
1, 1183473, Control_c, 0, 64, 89
1, 1183473, Control_c, 1, 64, 89
1, 1183476, Note_on_c, 0, 45, 43
1, 1183491, Control_c, 0, 64, 66
1, 1183491, Control_c, 1, 64, 66
1, 1183494, Note_on_c, 0, 59, 27
1, 1183511, Control_c, 0, 64, 51
1, 1183511, Control_c, 1, 64, 51
1, 1183530, Control_c, 1, 64, 44
1, 1183530, Control_c, 0, 64, 44
1, 1183543, Note_on_c, 0, 75, 50
1, 1183547, Control_c, 0, 64, 42
1, 1183547, Control_c, 1, 64, 42
1, 1183605, Control_c, 1, 64, 46
1, 1183605, Control_c, 0, 64, 46
1, 1183623, Control_c, 0, 64, 58
1, 1183623, Control_c, 1, 64, 58
1, 1183641, Control_c, 1, 64, 74
1, 1183641, Control_c, 0, 64, 74
1, 1183660, Poly_aftertouch_c, 0, 71, 127
1, 1183660, Control_c, 0, 64, 97
1, 1183660, Control_c, 1, 64, 97
1, 1183680, Control_c, 1, 64, 127
1, 1183680, Control_c, 0, 64, 127
1, 1183714, Poly_aftertouch_c, 0, 71, 0
1, 1183781, Note_off_c, 0, 76, 53
1, 1183781, Poly_aftertouch_c, 0, 76, 0
1, 1183786, Note_on_c, 0, 69, 47
1, 1183825, Note_off_c, 0, 69, 57
1, 1183830, Note_off_c, 0, 75, 62
1, 1183960, Control_c, 0, 64, 97
1, 1183960, Control_c, 1, 64, 97
1, 1183974, Note_on_c, 0, 72, 59
1, 1183976, Note_off_c, 0, 59, 54
1, 1183978, Control_c, 0, 64, 71
1, 1183978, Control_c, 1, 64, 71
1, 1183989, Note_on_c, 0, 57, 44
1, 1183997, Control_c, 0, 64, 61
1, 1183997, Control_c, 1, 64, 61
1, 1184004, Note_on_c, 0, 69, 24
1, 1184016, Control_c, 0, 64, 62
1, 1184016, Control_c, 1, 64, 62
1, 1184035, Control_c, 1, 64, 66
1, 1184035, Control_c, 0, 64, 66
1, 1184054, Control_c, 0, 64, 72
1, 1184054, Control_c, 1, 64, 72
1, 1184065, Note_off_c, 0, 69, 41
1, 1184073, Control_c, 0, 64, 84
1, 1184073, Control_c, 1, 64, 84
1, 1184091, Control_c, 1, 64, 124
1, 1184091, Control_c, 0, 64, 124
1, 1184152, Note_on_c, 0, 67, 54
1, 1184194, Note_off_c, 0, 67, 55
1, 1184316, Control_c, 0, 64, 101
1, 1184316, Control_c, 1, 64, 101
1, 1184335, Control_c, 1, 64, 71
1, 1184335, Control_c, 0, 64, 71
1, 1184354, Control_c, 0, 64, 53
1, 1184354, Control_c, 1, 64, 53
1, 1184359, Note_off_c, 0, 57, 59
1, 1184368, Note_on_c, 0, 71, 65
1, 1184372, Control_c, 0, 64, 48
1, 1184372, Control_c, 1, 64, 48
1, 1184386, Note_on_c, 0, 55, 32
1, 1184409, Control_c, 0, 64, 55
1, 1184409, Control_c, 1, 64, 55
1, 1184428, Control_c, 1, 64, 64
1, 1184428, Control_c, 0, 64, 64
1, 1184445, Note_off_c, 0, 72, 37
1, 1184445, Poly_aftertouch_c, 0, 72, 0
1, 1184447, Control_c, 0, 64, 76
1, 1184447, Control_c, 1, 64, 76
1, 1184466, Control_c, 1, 64, 96
1, 1184466, Control_c, 0, 64, 96
1, 1184470, Poly_aftertouch_c, 0, 67, 127
1, 1184485, Control_c, 0, 64, 127
1, 1184485, Control_c, 1, 64, 127
1, 1184530, Poly_aftertouch_c, 0, 67, 0
1, 1184541, Note_on_c, 0, 65, 48
1, 1184635, Note_off_c, 0, 65, 57
1, 1184709, Control_c, 0, 64, 101
1, 1184709, Control_c, 1, 64, 101
1, 1184728, Control_c, 1, 64, 70
1, 1184728, Control_c, 0, 64, 70
1, 1184747, Control_c, 0, 64, 51
1, 1184747, Control_c, 1, 64, 51
1, 1184753, Note_on_c, 0, 69, 55
1, 1184766, Control_c, 0, 64, 48
1, 1184766, Control_c, 1, 64, 48
1, 1184778, Note_off_c, 0, 55, 47
1, 1184782, Note_on_c, 0, 53, 34
1, 1184785, Note_off_c, 0, 71, 59
1, 1184785, Control_c, 0, 64, 51
1, 1184785, Control_c, 1, 64, 51
1, 1184804, Control_c, 1, 64, 59
1, 1184804, Control_c, 0, 64, 59
1, 1184822, Control_c, 0, 64, 69
1, 1184822, Control_c, 1, 64, 69
1, 1184832, Note_on_c, 0, 65, 27
1, 1184838, Control_c, 0, 64, 82
1, 1184838, Control_c, 1, 64, 82
1, 1184860, Control_c, 1, 64, 107
1, 1184860, Control_c, 0, 64, 107
1, 1184877, Control_c, 0, 64, 127
1, 1184877, Control_c, 1, 64, 127
1, 1184907, Note_off_c, 0, 65, 43
1, 1184963, Note_on_c, 0, 63, 45
1, 1184973, Note_off_c, 0, 53, 49
1, 1184990, Note_off_c, 0, 45, 56
1, 1185178, Control_c, 0, 64, 81
1, 1185178, Control_c, 1, 64, 81
1, 1185193, Note_on_c, 0, 68, 51
1, 1185194, Note_off_c, 0, 63, 44
1, 1185195, Control_c, 0, 64, 56
1, 1185195, Control_c, 1, 64, 56
1, 1185214, Control_c, 1, 64, 40
1, 1185214, Note_on_c, 0, 40, 39
1, 1185214, Control_c, 0, 64, 40
1, 1185227, Note_on_c, 0, 52, 18
1, 1185232, Control_c, 0, 64, 36
1, 1185232, Control_c, 1, 64, 36
1, 1185289, Control_c, 1, 64, 45
1, 1185289, Control_c, 0, 64, 45
1, 1185308, Control_c, 0, 64, 59
1, 1185308, Control_c, 1, 64, 59
1, 1185326, Control_c, 1, 64, 75
1, 1185326, Control_c, 0, 64, 75
1, 1185346, Control_c, 0, 64, 100
1, 1185346, Control_c, 1, 64, 100
1, 1185364, Control_c, 1, 64, 127
1, 1185364, Control_c, 0, 64, 127
1, 1185388, Note_off_c, 0, 69, 37
1, 1185390, Poly_aftertouch_c, 0, 64, 127
1, 1185443, Note_on_c, 0, 59, 38
1, 1185451, Note_off_c, 0, 68, 53
1, 1185461, Poly_aftertouch_c, 0, 64, 0
1, 1185570, Note_off_c, 0, 59, 53
1, 1185683, Control_c, 0, 64, 92
1, 1185683, Control_c, 1, 64, 92
1, 1185701, Control_c, 1, 64, 65
1, 1185701, Note_on_c, 0, 47, 31
1, 1185701, Control_c, 0, 64, 65
1, 1185703, Poly_aftertouch_c, 0, 52, 24
1, 1185718, Control_c, 0, 64, 48
1, 1185718, Control_c, 1, 64, 48
1, 1185725, Note_on_c, 0, 65, 45
1, 1185738, Control_c, 0, 64, 44
1, 1185738, Control_c, 1, 64, 44
1, 1185776, Control_c, 1, 64, 47
1, 1185776, Control_c, 0, 64, 47
1, 1185795, Control_c, 0, 64, 57
1, 1185795, Control_c, 1, 64, 57
1, 1185807, Note_off_c, 0, 52, 30
1, 1185807, Poly_aftertouch_c, 0, 52, 0
1, 1185811, Control_c, 0, 64, 71
1, 1185811, Control_c, 1, 64, 71
1, 1185832, Control_c, 1, 64, 91
1, 1185832, Control_c, 0, 64, 91
1, 1185851, Control_c, 0, 64, 127
1, 1185851, Control_c, 1, 64, 127
1, 1185924, Note_off_c, 0, 40, 37
1, 1185924, Poly_aftertouch_c, 0, 40, 0
1, 1185969, Note_on_c, 0, 56, 46
1, 1185975, Poly_aftertouch_c, 0, 59, 0
1, 1186010, Note_off_c, 0, 65, 35
1, 1186155, Note_off_c, 0, 56, 28
1, 1186226, Note_on_c, 0, 40, 37
1, 1186301, Control_c, 0, 64, 116
1, 1186301, Control_c, 1, 64, 116
1, 1186319, Control_c, 1, 64, 77
1, 1186319, Control_c, 0, 64, 77
1, 1186332, Note_on_c, 0, 64, 44
1, 1186338, Control_c, 0, 64, 56
1, 1186338, Control_c, 1, 64, 56
1, 1186356, Control_c, 1, 64, 47
1, 1186356, Control_c, 0, 64, 47
1, 1186361, Note_on_c, 0, 56, 33
1, 1186363, Note_off_c, 0, 47, 39
1, 1186394, Control_c, 0, 64, 53
1, 1186394, Control_c, 1, 64, 53
1, 1186412, Control_c, 1, 64, 64
1, 1186412, Control_c, 0, 64, 64
1, 1186431, Control_c, 0, 64, 80
1, 1186431, Control_c, 1, 64, 80
1, 1186451, Control_c, 1, 64, 127
1, 1186451, Control_c, 0, 64, 127
1, 1186468, Note_off_c, 0, 40, 52
1, 1186468, Poly_aftertouch_c, 0, 40, 0
1, 1186505, Control_c, 0, 67, 121
1, 1186505, Control_c, 1, 67, 121
1, 1186594, Note_on_c, 0, 52, 42
1, 1186596, Note_off_c, 0, 56, 35
1, 1186648, Note_off_c, 0, 52, 59
1, 1186648, Poly_aftertouch_c, 0, 52, 0
1, 1186654, Control_c, 0, 67, 117
1, 1186654, Control_c, 1, 67, 117
1, 1186675, Control_c, 1, 67, 112
1, 1186675, Control_c, 0, 67, 112
1, 1186693, Control_c, 0, 67, 106
1, 1186693, Control_c, 1, 67, 106
1, 1186713, Control_c, 1, 67, 100
1, 1186713, Control_c, 0, 67, 100
1, 1186716, Note_off_c, 0, 64, 61
1, 1186731, Control_c, 0, 67, 93
1, 1186731, Control_c, 1, 67, 93
1, 1186749, Control_c, 1, 67, 88
1, 1186749, Control_c, 0, 67, 88
1, 1186768, Control_c, 0, 67, 83
1, 1186768, Control_c, 1, 67, 83
1, 1186806, Control_c, 1, 67, 79
1, 1186806, Control_c, 0, 67, 79
1, 1186992, Control_c, 0, 64, 104
1, 1186992, Control_c, 1, 64, 104
1, 1187011, Control_c, 1, 64, 68
1, 1187011, Control_c, 0, 64, 68
1, 1187014, Note_on_c, 0, 38, 59
1, 1187030, Control_c, 0, 64, 45
1, 1187030, Control_c, 1, 64, 45
1, 1187048, Control_c, 1, 64, 43
1, 1187048, Control_c, 0, 64, 43
1, 1187068, Control_c, 0, 64, 47
1, 1187068, Control_c, 1, 64, 47
1, 1187088, Control_c, 1, 64, 59
1, 1187088, Control_c, 0, 64, 59
1, 1187104, Control_c, 0, 64, 82
1, 1187104, Control_c, 1, 64, 82
1, 1187124, Control_c, 1, 64, 127
1, 1187124, Control_c, 0, 64, 127
1, 1187131, Note_on_c, 0, 93, 78
1, 1187147, Note_on_c, 0, 89, 58
1, 1187196, Note_off_c, 0, 38, 61
1, 1187254, Control_c, 0, 67, 72
1, 1187254, Control_c, 1, 67, 72
1, 1187523, Note_on_c, 0, 88, 60
1, 1187577, Note_off_c, 0, 89, 60
1, 1187604, Note_off_c, 0, 88, 60
1, 1187945, Note_on_c, 0, 92, 81
1, 1187958, Note_on_c, 0, 62, 53
1, 1187966, Note_on_c, 0, 76, 38
1, 1187997, Note_on_c, 0, 88, 28
1, 1188086, Note_off_c, 0, 88, 37
1, 1188190, Note_on_c, 0, 86, 62
1, 1188261, Note_off_c, 0, 93, 61
1, 1188282, Note_off_c, 0, 92, 64
1, 1188287, Note_off_c, 0, 86, 59
1, 1188397, Control_c, 0, 64, 91
1, 1188397, Control_c, 1, 64, 91
1, 1188409, Note_on_c, 0, 89, 80
1, 1188415, Control_c, 0, 64, 76
1, 1188415, Control_c, 1, 64, 76
1, 1188417, Control_c, 1, 67, 76
1, 1188417, Control_c, 0, 67, 76
1, 1188419, Note_on_c, 0, 74, 56
1, 1188422, Note_off_c, 0, 76, 57
1, 1188422, Poly_aftertouch_c, 0, 76, 0
1, 1188434, Note_on_c, 0, 86, 66
1, 1188452, Control_c, 0, 64, 83
1, 1188452, Control_c, 1, 64, 83
1, 1188472, Control_c, 1, 64, 97
1, 1188472, Control_c, 0, 64, 97
1, 1188490, Control_c, 0, 64, 127
1, 1188490, Control_c, 1, 64, 127
1, 1188507, Note_off_c, 0, 86, 44
1, 1188622, Note_on_c, 0, 84, 69
1, 1188687, Note_off_c, 0, 84, 61
1, 1188838, Note_on_c, 0, 88, 80
1, 1188845, Control_c, 0, 64, 82
1, 1188845, Control_c, 1, 64, 82
1, 1188849, Note_on_c, 0, 72, 48
1, 1188865, Control_c, 0, 64, 64
1, 1188865, Control_c, 1, 64, 64
1, 1188884, Control_c, 1, 64, 60
1, 1188884, Control_c, 0, 64, 60
1, 1188891, Note_off_c, 0, 74, 52
1, 1188902, Control_c, 0, 64, 64
1, 1188902, Control_c, 1, 64, 64
1, 1188903, Note_off_c, 0, 89, 64
1, 1188920, Control_c, 0, 64, 74
1, 1188920, Control_c, 1, 64, 74
1, 1188940, Control_c, 1, 64, 92
1, 1188940, Control_c, 0, 64, 92
1, 1188958, Control_c, 0, 64, 127
1, 1188958, Control_c, 1, 64, 127
1, 1189031, Note_on_c, 0, 82, 70
1, 1189093, Note_off_c, 0, 82, 53
1, 1189165, Control_c, 0, 64, 100
1, 1189165, Control_c, 1, 64, 100
1, 1189182, Control_c, 1, 64, 73
1, 1189182, Control_c, 0, 64, 73
1, 1189203, Control_c, 0, 64, 60
1, 1189203, Control_c, 1, 64, 60
1, 1189204, Control_c, 1, 67, 80
1, 1189204, Control_c, 0, 67, 80
1, 1189216, Note_on_c, 0, 86, 75
1, 1189226, Note_on_c, 0, 70, 57
1, 1189234, Note_on_c, 0, 82, 53
1, 1189239, Control_c, 0, 64, 67
1, 1189239, Control_c, 1, 64, 67
1, 1189253, Note_off_c, 0, 72, 53
1, 1189253, Poly_aftertouch_c, 0, 72, 0
1, 1189257, Control_c, 0, 64, 80
1, 1189257, Control_c, 1, 64, 80
1, 1189277, Control_c, 1, 64, 115
1, 1189277, Control_c, 0, 64, 115
1, 1189279, Note_off_c, 0, 88, 63
1, 1189296, Control_c, 0, 64, 127
1, 1189296, Control_c, 1, 64, 127
1, 1189297, Control_c, 1, 67, 85
1, 1189297, Control_c, 0, 67, 85
1, 1189309, Note_off_c, 0, 70, 60
1, 1189348, Note_off_c, 0, 62, 60
1, 1189391, Note_off_c, 0, 82, 62
1, 1189421, Note_on_c, 0, 80, 55
1, 1189632, Control_c, 0, 64, 101
1, 1189632, Control_c, 1, 64, 101
1, 1189651, Control_c, 1, 64, 69
1, 1189651, Control_c, 0, 64, 69
1, 1189671, Note_on_c, 0, 85, 61
1, 1189671, Control_c, 0, 64, 47
1, 1189671, Control_c, 1, 64, 47
1, 1189687, Control_c, 1, 64, 36
1, 1189687, Control_c, 0, 64, 36
1, 1189695, Note_on_c, 0, 57, 31
1, 1189707, Note_on_c, 0, 69, 30
1, 1189731, Note_off_c, 0, 80, 36
1, 1189765, Control_c, 0, 64, 52
1, 1189765, Control_c, 1, 64, 52
1, 1189781, Control_c, 1, 64, 71
1, 1189781, Control_c, 0, 64, 71
1, 1189801, Control_c, 0, 64, 94
1, 1189801, Control_c, 1, 64, 94
1, 1189820, Control_c, 1, 64, 127
1, 1189820, Control_c, 0, 64, 127
1, 1189909, Poly_aftertouch_c, 0, 81, 127
1, 1189922, Note_on_c, 0, 76, 42
1, 1189944, Poly_aftertouch_c, 0, 81, 0
1, 1189950, Control_c, 0, 67, 89
1, 1189950, Control_c, 1, 67, 89
1, 1189969, Note_off_c, 0, 85, 61
1, 1190001, Note_off_c, 0, 86, 63
1, 1190025, Control_c, 0, 67, 95
1, 1190025, Control_c, 1, 67, 95
1, 1190026, Note_off_c, 0, 76, 59
1, 1190026, Poly_aftertouch_c, 0, 76, 0
1, 1190175, Control_c, 0, 67, 99
1, 1190175, Control_c, 1, 67, 99
1, 1190249, Control_c, 1, 64, 97
1, 1190249, Control_c, 0, 64, 97
1, 1190258, Note_on_c, 0, 64, 29
1, 1190268, Control_c, 0, 64, 70
1, 1190268, Control_c, 1, 64, 70
1, 1190288, Control_c, 1, 64, 55
1, 1190288, Control_c, 0, 64, 55
1, 1190306, Control_c, 0, 64, 53
1, 1190306, Control_c, 1, 64, 53
1, 1190317, Note_on_c, 0, 82, 48
1, 1190324, Control_c, 0, 64, 55
1, 1190324, Control_c, 1, 64, 55
1, 1190344, Control_c, 1, 64, 63
1, 1190344, Control_c, 0, 64, 63
1, 1190362, Control_c, 0, 64, 74
1, 1190362, Control_c, 1, 64, 74
1, 1190375, Note_off_c, 0, 57, 39
1, 1190380, Control_c, 0, 64, 96
1, 1190380, Control_c, 1, 64, 96
1, 1190399, Control_c, 1, 64, 127
1, 1190399, Control_c, 0, 64, 127
1, 1190460, Note_off_c, 0, 69, 31
1, 1190502, Note_on_c, 0, 73, 43
1, 1190526, Poly_aftertouch_c, 0, 76, 0
1, 1190610, Note_off_c, 0, 82, 58
1, 1190644, Note_off_c, 0, 73, 50
1, 1190731, Note_on_c, 0, 57, 44
1, 1190784, Note_off_c, 0, 64, 38
1, 1190814, Note_off_c, 0, 57, 54
1, 1190831, Note_on_c, 0, 81, 52
1, 1190849, Note_on_c, 0, 73, 35
1, 1191041, Note_off_c, 0, 73, 43
1, 1191059, Note_on_c, 0, 69, 41
1, 1191095, Note_off_c, 0, 69, 48
1, 1191103, Note_off_c, 0, 81, 61
1, 1191295, Note_on_c, 0, 50, 56
1, 1191317, Control_c, 0, 64, 107
1, 1191317, Control_c, 1, 64, 107
1, 1191335, Control_c, 1, 64, 74
1, 1191335, Control_c, 0, 64, 74
1, 1191354, Control_c, 0, 64, 56
1, 1191354, Control_c, 1, 64, 56
1, 1191383, Note_on_c, 0, 91, 78
1, 1191400, Note_on_c, 0, 87, 52
1, 1191410, Control_c, 0, 64, 65
1, 1191410, Control_c, 1, 64, 65
1, 1191429, Control_c, 1, 64, 78
1, 1191429, Control_c, 0, 64, 78
1, 1191447, Control_c, 0, 64, 112
1, 1191447, Control_c, 1, 64, 112
1, 1191457, Note_off_c, 0, 50, 63
1, 1191465, Control_c, 0, 64, 127
1, 1191465, Control_c, 1, 64, 127
1, 1191640, Note_off_c, 0, 87, 57
1, 1191648, Note_on_c, 0, 86, 67
1, 1191758, Note_off_c, 0, 86, 44
1, 1191956, Note_on_c, 0, 74, 48
1, 1191976, Note_on_c, 0, 62, 49
1, 1191990, Control_c, 0, 64, 116
1, 1191990, Control_c, 1, 64, 116
1, 1192010, Control_c, 1, 64, 76
1, 1192010, Control_c, 0, 64, 76
1, 1192028, Control_c, 0, 64, 56
1, 1192028, Control_c, 1, 64, 56
1, 1192037, Note_on_c, 0, 90, 72
1, 1192046, Control_c, 0, 64, 52
1, 1192046, Control_c, 1, 64, 52
1, 1192065, Control_c, 1, 64, 55
1, 1192065, Control_c, 0, 64, 55
1, 1192084, Control_c, 0, 64, 65
1, 1192084, Control_c, 1, 64, 65
1, 1192103, Control_c, 1, 64, 86
1, 1192103, Control_c, 0, 64, 86
1, 1192104, Note_on_c, 0, 86, 27
1, 1192121, Control_c, 0, 64, 127
1, 1192121, Control_c, 1, 64, 127
1, 1192243, Note_off_c, 0, 86, 39
1, 1192275, Note_on_c, 0, 84, 67
1, 1192286, Note_off_c, 0, 90, 63
1, 1192311, Note_off_c, 0, 84, 61
1, 1192481, Note_on_c, 0, 87, 75
1, 1192489, Note_on_c, 0, 72, 57
1, 1192495, Control_c, 0, 64, 90
1, 1192495, Control_c, 1, 64, 90
1, 1192515, Control_c, 1, 64, 86
1, 1192515, Control_c, 0, 64, 86
1, 1192528, Note_off_c, 0, 74, 62
1, 1192531, Control_c, 0, 64, 94
1, 1192531, Control_c, 1, 64, 94
1, 1192551, Control_c, 1, 64, 118
1, 1192551, Control_c, 0, 64, 118
1, 1192569, Note_on_c, 0, 84, 12
1, 1192569, Control_c, 0, 64, 127
1, 1192569, Control_c, 1, 64, 127
1, 1192660, Note_off_c, 0, 84, 45
1, 1192670, Note_on_c, 0, 82, 71
1, 1192671, Note_off_c, 0, 91, 61
1, 1192734, Note_off_c, 0, 87, 64
1, 1192761, Note_off_c, 0, 82, 58
1, 1192849, Note_on_c, 0, 86, 80
1, 1192854, Note_off_c, 0, 72, 55
1, 1192854, Poly_aftertouch_c, 0, 72, 0
1, 1192862, Note_on_c, 0, 70, 58
1, 1192869, Control_c, 0, 64, 102
1, 1192869, Control_c, 1, 64, 102
1, 1192888, Control_c, 1, 64, 77
1, 1192888, Control_c, 0, 64, 77
1, 1192895, Note_on_c, 0, 82, 53
1, 1192908, Control_c, 0, 64, 71
1, 1192908, Control_c, 1, 64, 71
1, 1192925, Control_c, 1, 64, 77
1, 1192925, Control_c, 0, 64, 77
1, 1192940, Note_off_c, 0, 82, 48
1, 1192943, Control_c, 0, 64, 91
1, 1192943, Control_c, 1, 64, 91
1, 1192964, Control_c, 1, 64, 127
1, 1192964, Control_c, 0, 64, 127
1, 1192965, Control_c, 0, 67, 103
1, 1192965, Control_c, 1, 67, 103
1, 1193059, Note_on_c, 0, 80, 47
1, 1193189, Control_c, 0, 64, 97
1, 1193189, Control_c, 1, 64, 97
1, 1193192, Note_off_c, 0, 80, 44
1, 1193207, Control_c, 0, 64, 81
1, 1193207, Control_c, 1, 64, 81
1, 1193226, Control_c, 1, 64, 77
1, 1193226, Control_c, 0, 64, 77
1, 1193239, Note_on_c, 0, 68, 44
1, 1193239, Note_on_c, 0, 84, 68
1, 1193245, Control_c, 0, 64, 82
1, 1193245, Control_c, 1, 64, 82
1, 1193263, Control_c, 1, 64, 97
1, 1193263, Control_c, 0, 64, 97
1, 1193267, Note_on_c, 0, 80, 40
1, 1193281, Control_c, 0, 64, 127
1, 1193281, Control_c, 1, 64, 127
1, 1193295, Note_off_c, 0, 86, 64
1, 1193311, Note_off_c, 0, 70, 57
1, 1193319, Control_c, 0, 67, 108
1, 1193319, Control_c, 1, 67, 108
1, 1193344, Note_off_c, 0, 68, 63
1, 1193379, Note_off_c, 0, 62, 57
1, 1193428, Note_on_c, 0, 78, 62
1, 1193429, Note_off_c, 0, 80, 58
1, 1193638, Control_c, 0, 64, 85
1, 1193638, Control_c, 1, 64, 85
1, 1193650, Note_off_c, 0, 78, 53
1, 1193656, Control_c, 0, 64, 61
1, 1193656, Control_c, 1, 64, 61
1, 1193668, Note_on_c, 0, 83, 61
1, 1193674, Control_c, 0, 64, 47
1, 1193674, Control_c, 1, 64, 47
1, 1193676, Control_c, 1, 67, 112
1, 1193676, Control_c, 0, 67, 112
1, 1193680, Note_on_c, 0, 55, 28
1, 1193706, Note_on_c, 0, 79, 25
1, 1193711, Control_c, 0, 64, 50
1, 1193711, Control_c, 1, 64, 50
1, 1193725, Note_off_c, 0, 84, 39
1, 1193730, Control_c, 0, 64, 60
1, 1193730, Control_c, 1, 64, 60
1, 1193748, Poly_aftertouch_c, 0, 67, 127
1, 1193749, Control_c, 0, 64, 76
1, 1193749, Control_c, 1, 64, 76
1, 1193770, Control_c, 1, 64, 105
1, 1193770, Control_c, 0, 64, 105
1, 1193787, Control_c, 0, 64, 127
1, 1193787, Control_c, 1, 64, 127
1, 1193875, Note_off_c, 0, 79, 46
1, 1193899, Note_on_c, 0, 74, 46
1, 1193949, Note_off_c, 0, 74, 43
1, 1194124, Control_c, 0, 64, 104
1, 1194124, Control_c, 1, 64, 104
1, 1194132, Poly_aftertouch_c, 0, 67, 24
1, 1194142, Control_c, 0, 64, 70
1, 1194142, Control_c, 1, 64, 70
1, 1194150, Note_on_c, 0, 80, 57
1, 1194160, Note_on_c, 0, 62, 31
1, 1194160, Control_c, 0, 64, 51
1, 1194160, Control_c, 1, 64, 51
1, 1194180, Control_c, 1, 64, 45
1, 1194180, Note_on_c, 0, 74, 42
1, 1194180, Control_c, 0, 64, 45
1, 1194196, Poly_aftertouch_c, 0, 67, 0
1, 1194218, Control_c, 0, 64, 55
1, 1194218, Control_c, 1, 64, 55
1, 1194236, Control_c, 1, 64, 74
1, 1194236, Control_c, 0, 64, 74
1, 1194255, Control_c, 0, 64, 127
1, 1194255, Control_c, 1, 64, 127
1, 1194275, Control_c, 1, 67, 118
1, 1194275, Control_c, 0, 67, 118
1, 1194335, Note_off_c, 0, 55, 39
1, 1194346, Note_off_c, 0, 83, 36
1, 1194346, Poly_aftertouch_c, 0, 83, 0
1, 1194351, Note_off_c, 0, 74, 46
1, 1194408, Note_on_c, 0, 71, 40
1, 1194427, Note_off_c, 0, 80, 63
1, 1194447, Note_off_c, 0, 71, 50
1, 1194460, Control_c, 0, 67, 122
1, 1194460, Control_c, 1, 67, 122
1, 1194634, Note_on_c, 0, 55, 35
1, 1194669, Note_off_c, 0, 62, 39
1, 1194705, Control_c, 0, 64, 92
1, 1194705, Control_c, 1, 64, 92
1, 1194723, Control_c, 1, 64, 84
1, 1194723, Control_c, 0, 64, 84
1, 1194736, Note_on_c, 0, 79, 43
1, 1194741, Control_c, 0, 64, 91
1, 1194741, Control_c, 1, 64, 91
1, 1194758, Note_on_c, 0, 71, 28
1, 1194760, Control_c, 0, 64, 108
1, 1194760, Control_c, 1, 64, 108
1, 1194780, Control_c, 1, 64, 127
1, 1194780, Control_c, 0, 64, 127
1, 1194782, Note_off_c, 0, 55, 59
1, 1194965, Note_on_c, 0, 67, 51
1, 1194973, Note_off_c, 0, 71, 39
1, 1194998, Note_off_c, 0, 67, 56
1, 1195017, Note_off_c, 0, 79, 62
1, 1195210, Note_on_c, 0, 48, 50
1, 1195265, Control_c, 0, 64, 116
1, 1195265, Control_c, 1, 64, 116
1, 1195285, Control_c, 1, 64, 78
1, 1195285, Control_c, 0, 64, 78
1, 1195304, Control_c, 0, 64, 61
1, 1195304, Control_c, 1, 64, 61
1, 1195314, Note_on_c, 0, 89, 75
1, 1195325, Note_on_c, 0, 86, 56
1, 1195341, Control_c, 0, 64, 67
1, 1195341, Control_c, 1, 64, 67
1, 1195360, Control_c, 1, 64, 78
1, 1195360, Control_c, 0, 64, 78
1, 1195379, Control_c, 0, 64, 110
1, 1195379, Control_c, 1, 64, 110
1, 1195384, Note_off_c, 0, 48, 62
1, 1195384, Poly_aftertouch_c, 0, 48, 0
1, 1195398, Control_c, 0, 64, 127
1, 1195398, Control_c, 1, 64, 127
1, 1195549, Note_on_c, 0, 83, 55
1, 1195613, Note_off_c, 0, 86, 57
1, 1195679, Note_off_c, 0, 83, 56
1, 1195679, Poly_aftertouch_c, 0, 83, 0
1, 1195688, Poly_aftertouch_c, 0, 83, 0
1, 1195828, Control_c, 0, 64, 108
1, 1195828, Control_c, 1, 64, 108
1, 1195835, Note_on_c, 0, 88, 72
1, 1195838, Note_on_c, 0, 60, 43
1, 1195847, Control_c, 0, 64, 75
1, 1195847, Control_c, 1, 64, 75
1, 1195861, Note_on_c, 0, 84, 49
1, 1195865, Control_c, 0, 64, 59
1, 1195865, Control_c, 1, 64, 59
1, 1195883, Control_c, 1, 64, 61
1, 1195883, Note_on_c, 0, 70, 28
1, 1195883, Control_c, 0, 64, 61
1, 1195902, Control_c, 0, 64, 69
1, 1195902, Control_c, 1, 64, 69
1, 1195915, Note_off_c, 0, 89, 63
1, 1195922, Control_c, 0, 64, 85
1, 1195922, Control_c, 1, 64, 85
1, 1195940, Control_c, 1, 64, 127
1, 1195940, Control_c, 0, 64, 127
1, 1195977, Note_off_c, 0, 84, 60
1, 1195984, Note_on_c, 0, 84, 27
1, 1195985, Note_off_c, 0, 84, 127
1, 1196062, Note_on_c, 0, 82, 65
1, 1196122, Note_off_c, 0, 82, 52
1, 1196243, Note_on_c, 0, 85, 73
1, 1196253, Note_on_c, 0, 82, 56
1, 1196259, Control_c, 0, 64, 104
1, 1196259, Control_c, 1, 64, 104
1, 1196271, Note_on_c, 0, 67, 47
1, 1196277, Control_c, 0, 64, 77
1, 1196277, Control_c, 1, 64, 77
1, 1196296, Control_c, 1, 64, 71
1, 1196296, Control_c, 0, 64, 71
1, 1196314, Control_c, 0, 64, 79
1, 1196314, Control_c, 1, 64, 79
1, 1196318, Note_off_c, 0, 70, 43
1, 1196333, Control_c, 0, 64, 99
1, 1196333, Control_c, 1, 64, 99
1, 1196352, Control_c, 1, 64, 127
1, 1196352, Control_c, 0, 64, 127
1, 1196421, Note_on_c, 0, 79, 64
1, 1196424, Note_off_c, 0, 82, 55
1, 1196436, Note_off_c, 0, 88, 40
1, 1196492, Note_off_c, 0, 85, 62
1, 1196503, Note_off_c, 0, 79, 50
1, 1196613, Control_c, 0, 64, 103
1, 1196613, Control_c, 1, 64, 103
1, 1196633, Control_c, 1, 64, 71
1, 1196633, Control_c, 0, 64, 71
1, 1196638, Note_on_c, 0, 84, 76
1, 1196652, Control_c, 0, 64, 57
1, 1196652, Control_c, 1, 64, 57
1, 1196662, Note_off_c, 0, 67, 36
1, 1196662, Note_on_c, 0, 64, 44
1, 1196672, Note_on_c, 0, 79, 51
1, 1196688, Control_c, 0, 64, 64
1, 1196688, Control_c, 1, 64, 64
1, 1196708, Control_c, 1, 64, 75
1, 1196708, Control_c, 0, 64, 75
1, 1196727, Control_c, 0, 64, 95
1, 1196727, Control_c, 1, 64, 95
1, 1196735, Note_off_c, 0, 64, 61
1, 1196743, Control_c, 0, 64, 127
1, 1196743, Control_c, 1, 64, 127
1, 1196747, Note_off_c, 0, 60, 56
1, 1196771, Note_off_c, 0, 79, 51
1, 1196827, Note_on_c, 0, 76, 55
1, 1196835, Note_off_c, 0, 84, 64
1, 1197063, Control_c, 0, 64, 116
1, 1197063, Control_c, 1, 64, 116
1, 1197081, Control_c, 1, 64, 73
1, 1197081, Control_c, 0, 64, 73
1, 1197085, Note_on_c, 0, 88, 77
1, 1197100, Control_c, 0, 64, 50
1, 1197100, Control_c, 1, 64, 50
1, 1197105, Note_on_c, 0, 47, 45
1, 1197120, Control_c, 0, 64, 42
1, 1197120, Control_c, 1, 64, 42
1, 1197128, Note_on_c, 0, 82, 43
1, 1197140, Note_off_c, 0, 76, 59
1, 1197157, Control_c, 0, 64, 51
1, 1197157, Control_c, 1, 64, 51
1, 1197175, Control_c, 1, 64, 69
1, 1197175, Control_c, 0, 64, 69
1, 1197195, Control_c, 0, 64, 97
1, 1197195, Control_c, 1, 64, 97
1, 1197197, Note_off_c, 0, 82, 42
1, 1197213, Control_c, 0, 64, 127
1, 1197213, Control_c, 1, 64, 127
1, 1197231, Control_c, 1, 67, 127
1, 1197231, Control_c, 0, 67, 127
1, 1197234, Note_off_c, 0, 47, 61
1, 1197346, Note_on_c, 0, 78, 65
1, 1197682, Note_off_c, 0, 78, 38
1, 1197690, Note_on_c, 0, 87, 67
1, 1197700, Control_c, 0, 64, 105
1, 1197700, Control_c, 1, 64, 105
1, 1197721, Control_c, 1, 64, 70
1, 1197721, Control_c, 0, 64, 70
1, 1197736, Note_on_c, 0, 69, 42
1, 1197736, Control_c, 0, 64, 49
1, 1197736, Control_c, 1, 64, 49
1, 1197739, Note_on_c, 0, 83, 30
1, 1197739, Note_on_c, 0, 59, 34
1, 1197756, Control_c, 0, 64, 41
1, 1197756, Control_c, 1, 64, 41
1, 1197793, Control_c, 1, 64, 45
1, 1197793, Control_c, 0, 64, 45
1, 1197812, Control_c, 0, 64, 59
1, 1197812, Control_c, 1, 64, 59
1, 1197830, Control_c, 1, 64, 79
1, 1197830, Control_c, 0, 64, 79
1, 1197849, Control_c, 0, 64, 127
1, 1197849, Control_c, 1, 64, 127
1, 1197968, Note_on_c, 0, 81, 52
1, 1198008, Note_off_c, 0, 83, 48
1, 1198013, Note_off_c, 0, 88, 54
1, 1198049, Note_off_c, 0, 87, 61
1, 1198058, Note_off_c, 0, 81, 60
1, 1198176, Note_on_c, 0, 84, 64
1, 1198187, Control_c, 0, 64, 103
1, 1198187, Control_c, 1, 64, 103
1, 1198204, Control_c, 1, 64, 80
1, 1198204, Note_on_c, 0, 81, 56
1, 1198204, Control_c, 0, 64, 80
1, 1198223, Control_c, 0, 64, 78
1, 1198223, Control_c, 1, 64, 78
1, 1198236, Note_off_c, 0, 81, 54
1, 1198237, Note_on_c, 0, 66, 16
1, 1198241, Control_c, 0, 64, 86
1, 1198241, Control_c, 1, 64, 86
1, 1198262, Control_c, 1, 64, 103
1, 1198262, Control_c, 0, 64, 103
1, 1198279, Control_c, 0, 64, 127
1, 1198279, Control_c, 1, 64, 127
1, 1198361, Note_on_c, 0, 78, 57
1, 1198478, Note_off_c, 0, 78, 39
1, 1198524, Control_c, 0, 64, 116
1, 1198524, Control_c, 1, 64, 116
1, 1198542, Control_c, 1, 64, 78
1, 1198542, Control_c, 0, 64, 78
1, 1198561, Control_c, 0, 64, 60
1, 1198561, Control_c, 1, 64, 60
1, 1198574, Note_on_c, 0, 63, 32
1, 1198587, Note_on_c, 0, 83, 55
1, 1198594, Note_off_c, 0, 66, 37
1, 1198599, Control_c, 0, 64, 65
1, 1198599, Control_c, 1, 64, 65
1, 1198617, Control_c, 1, 64, 77
1, 1198617, Control_c, 0, 64, 77
1, 1198634, Note_off_c, 0, 84, 61
1, 1198634, Control_c, 0, 64, 110
1, 1198634, Control_c, 1, 64, 110
1, 1198639, Note_on_c, 0, 78, 29
1, 1198654, Control_c, 0, 64, 127
1, 1198654, Control_c, 1, 64, 127
1, 1198657, Note_off_c, 0, 69, 34
1, 1198713, Note_off_c, 0, 63, 63
1, 1198722, Note_off_c, 0, 78, 54
1, 1198749, Note_off_c, 0, 59, 62
1, 1198787, Note_on_c, 0, 75, 48
1, 1199048, Control_c, 0, 64, 105
1, 1199048, Control_c, 1, 64, 105
1, 1199050, Note_off_c, 0, 75, 55
1, 1199065, Control_c, 0, 64, 70
1, 1199065, Control_c, 1, 64, 70
1, 1199070, Note_on_c, 0, 52, 29
1, 1199076, Note_on_c, 0, 86, 53
1, 1199084, Control_c, 0, 64, 48
1, 1199084, Control_c, 1, 64, 48
1, 1199091, Note_on_c, 0, 80, 28
1, 1199102, Note_off_c, 0, 83, 36
1, 1199102, Control_c, 0, 64, 38
1, 1199102, Control_c, 1, 64, 38
1, 1199140, Control_c, 1, 64, 41
1, 1199140, Control_c, 0, 64, 41
1, 1199160, Control_c, 0, 64, 54
1, 1199160, Control_c, 1, 64, 54
1, 1199178, Control_c, 1, 64, 72
1, 1199178, Control_c, 0, 64, 72
1, 1199198, Control_c, 0, 64, 96
1, 1199198, Control_c, 1, 64, 96
1, 1199216, Control_c, 1, 64, 127
1, 1199216, Control_c, 0, 64, 127
1, 1199303, Note_on_c, 0, 45, 46
1, 1199307, Note_on_c, 0, 76, 39
1, 1199314, Note_off_c, 0, 80, 53
1, 1199368, Note_off_c, 0, 45, 60
1, 1199376, Note_off_c, 0, 52, 37
1, 1199376, Poly_aftertouch_c, 0, 52, 0
1, 1199628, Control_c, 0, 64, 94
1, 1199628, Control_c, 1, 64, 94
1, 1199645, Control_c, 1, 64, 67
1, 1199645, Note_on_c, 0, 85, 57
1, 1199645, Control_c, 0, 64, 67
1, 1199652, Note_on_c, 0, 69, 43
1, 1199665, Control_c, 0, 64, 55
1, 1199665, Control_c, 1, 64, 55
1, 1199672, Note_on_c, 0, 57, 43
1, 1199681, Note_off_c, 0, 76, 55
1, 1199702, Control_c, 0, 64, 64
1, 1199702, Control_c, 1, 64, 64
1, 1199721, Control_c, 1, 64, 76
1, 1199721, Control_c, 0, 64, 76
1, 1199740, Control_c, 0, 64, 106
1, 1199740, Control_c, 1, 64, 106
1, 1199759, Control_c, 1, 64, 127
1, 1199759, Control_c, 0, 64, 127
1, 1199774, Poly_aftertouch_c, 0, 81, 127
1, 1199796, Note_off_c, 0, 86, 51
1, 1199879, Note_on_c, 0, 76, 42
1, 1199922, Poly_aftertouch_c, 0, 81, 0
1, 1200092, Note_off_c, 0, 76, 45
1, 1200104, Note_on_c, 0, 84, 63
1, 1200124, Note_on_c, 0, 64, 38
1, 1200154, Note_on_c, 0, 81, 26
1, 1200169, Note_off_c, 0, 69, 33
1, 1200173, Note_off_c, 0, 64, 57
1, 1200210, Note_off_c, 0, 57, 47
1, 1200269, Note_off_c, 0, 85, 42
1, 1200281, Note_off_c, 0, 81, 36
1, 1200293, Note_on_c, 0, 76, 49
1, 1200632, Note_on_c, 0, 50, 35
1, 1200632, Note_on_c, 0, 83, 55
1, 1200637, Control_c, 0, 64, 82
1, 1200637, Control_c, 1, 64, 82
1, 1200642, Note_off_c, 0, 76, 52
1, 1200642, Note_on_c, 0, 65, 37
1, 1200657, Control_c, 0, 64, 62
1, 1200657, Control_c, 1, 64, 62
1, 1200676, Control_c, 1, 64, 50
1, 1200676, Control_c, 0, 64, 50
1, 1200693, Control_c, 0, 64, 47
1, 1200693, Control_c, 1, 64, 47
1, 1200716, Note_off_c, 0, 84, 56
1, 1200744, Poly_aftertouch_c, 0, 77, 127
1, 1200769, Control_c, 0, 64, 49
1, 1200769, Control_c, 1, 64, 49
1, 1200788, Control_c, 1, 64, 54
1, 1200788, Control_c, 0, 64, 54
1, 1200808, Control_c, 0, 64, 61
1, 1200808, Control_c, 1, 64, 61
1, 1200825, Control_c, 1, 64, 69
1, 1200825, Control_c, 0, 64, 69
1, 1200844, Control_c, 0, 64, 78
1, 1200844, Control_c, 1, 64, 78
1, 1200863, Control_c, 1, 64, 92
1, 1200863, Control_c, 0, 64, 92
1, 1200881, Control_c, 0, 64, 127
1, 1200881, Control_c, 1, 64, 127
1, 1200898, Note_on_c, 0, 74, 41
1, 1200916, Poly_aftertouch_c, 0, 77, 0
1, 1201154, Note_on_c, 0, 82, 57
1, 1201158, Note_on_c, 0, 62, 22
1, 1201169, Note_off_c, 0, 74, 53
1, 1201277, Poly_aftertouch_c, 0, 77, 127
1, 1201334, Note_off_c, 0, 65, 34
1, 1201377, Note_off_c, 0, 50, 40
1, 1201382, Note_on_c, 0, 74, 45
1, 1201419, Poly_aftertouch_c, 0, 77, 0
1, 1201432, Note_off_c, 0, 83, 32
1, 1201455, Note_off_c, 0, 74, 49
1, 1201657, Note_on_c, 0, 74, 35
1, 1201668, Control_c, 0, 64, 89
1, 1201668, Control_c, 1, 64, 89
1, 1201670, Note_on_c, 0, 80, 50
1, 1201686, Control_c, 0, 64, 69
1, 1201686, Control_c, 1, 64, 69
1, 1201705, Control_c, 1, 64, 65
1, 1201705, Note_on_c, 0, 77, 29
1, 1201705, Control_c, 0, 64, 65
1, 1201724, Control_c, 0, 64, 69
1, 1201724, Control_c, 1, 64, 69
1, 1201743, Control_c, 1, 64, 76
1, 1201743, Control_c, 0, 64, 76
1, 1201761, Control_c, 0, 64, 94
1, 1201761, Control_c, 1, 64, 94
1, 1201773, Note_off_c, 0, 82, 62
1, 1201779, Control_c, 0, 64, 127
1, 1201779, Control_c, 1, 64, 127
1, 1201948, Control_c, 1, 64, 101
1, 1201948, Control_c, 0, 64, 101
1, 1201957, Poly_aftertouch_c, 0, 77, 20
1, 1201959, Note_on_c, 0, 52, 36
1, 1201962, Note_off_c, 0, 77, 56
1, 1201962, Poly_aftertouch_c, 0, 77, 0
1, 1201965, Note_off_c, 0, 74, 55
1, 1201973, Note_off_c, 0, 62, 45
1, 1201986, Control_c, 0, 64, 127
1, 1201986, Control_c, 1, 64, 127
1, 1202201, Note_on_c, 0, 76, 40
1, 1202202, Note_on_c, 0, 72, 36
1, 1202212, Control_c, 0, 64, 90
1, 1202212, Control_c, 1, 64, 90
1, 1202229, Control_c, 1, 64, 66
1, 1202229, Control_c, 0, 64, 66
1, 1202247, Control_c, 0, 64, 54
1, 1202247, Control_c, 1, 64, 54
1, 1202267, Control_c, 1, 64, 57
1, 1202267, Control_c, 0, 64, 57
1, 1202284, Control_c, 0, 64, 66
1, 1202284, Control_c, 1, 64, 66
1, 1202304, Control_c, 1, 64, 83
1, 1202304, Control_c, 0, 64, 83
1, 1202323, Control_c, 0, 64, 127
1, 1202323, Control_c, 1, 64, 127
1, 1202419, Note_off_c, 0, 76, 54
1, 1202474, Note_off_c, 0, 72, 52
1, 1202474, Poly_aftertouch_c, 0, 72, 0
1, 1202482, Note_on_c, 0, 64, 35
1, 1202526, Note_off_c, 0, 52, 38
1, 1202526, Poly_aftertouch_c, 0, 52, 0
1, 1202860, Note_on_c, 0, 74, 39
1, 1202873, Note_on_c, 0, 71, 33
1, 1202954, Note_off_c, 0, 64, 50
1, 1203203, Control_c, 0, 64, 102
1, 1203203, Control_c, 1, 64, 102
1, 1203222, Control_c, 1, 64, 76
1, 1203222, Control_c, 0, 64, 76
1, 1203240, Control_c, 0, 64, 62
1, 1203240, Control_c, 1, 64, 62
1, 1203257, Control_c, 1, 64, 59
1, 1203257, Note_on_c, 0, 57, 24
1, 1203257, Control_c, 0, 64, 59
1, 1203278, Control_c, 0, 64, 61
1, 1203278, Control_c, 1, 64, 61
1, 1203297, Control_c, 1, 64, 69
1, 1203297, Control_c, 0, 64, 69
1, 1203316, Control_c, 0, 64, 88
1, 1203316, Control_c, 1, 64, 88
1, 1203334, Control_c, 1, 64, 127
1, 1203334, Control_c, 0, 64, 127
1, 1203388, Note_off_c, 0, 71, 34
1, 1203497, Note_off_c, 0, 74, 59
1, 1203592, Note_off_c, 0, 80, 59
1, 1203756, Note_on_c, 0, 64, 38
1, 1203981, Note_on_c, 0, 73, 38
1, 1204174, Note_on_c, 0, 81, 42
1, 1204194, Control_c, 0, 64, 88
1, 1204194, Control_c, 1, 64, 88
1, 1204214, Control_c, 1, 64, 64
1, 1204214, Control_c, 0, 64, 64
1, 1204233, Control_c, 0, 64, 50
1, 1204233, Control_c, 1, 64, 50
1, 1204250, Control_c, 1, 64, 46
1, 1204250, Control_c, 0, 64, 46
1, 1204289, Control_c, 0, 64, 51
1, 1204289, Control_c, 1, 64, 51
1, 1204307, Control_c, 1, 64, 64
1, 1204307, Control_c, 0, 64, 64
1, 1204325, Control_c, 0, 64, 80
1, 1204325, Control_c, 1, 64, 80
1, 1204345, Control_c, 1, 64, 127
1, 1204345, Control_c, 0, 64, 127
1, 1204504, Poly_aftertouch_c, 0, 59, 0
1, 1204518, Note_off_c, 0, 73, 40
1, 1204698, Note_off_c, 0, 64, 30
1, 1204744, Note_off_c, 0, 57, 50
1, 1204926, Note_on_c, 0, 93, 39
1, 1205133, Note_off_c, 0, 81, 53
1, 1205634, Note_on_c, 0, 38, 25
1, 1205749, Control_c, 0, 64, 113
1, 1205749, Control_c, 1, 64, 113
1, 1205767, Control_c, 1, 64, 79
1, 1205767, Control_c, 0, 64, 79
1, 1205786, Control_c, 0, 64, 62
1, 1205786, Control_c, 1, 64, 62
1, 1205796, Note_on_c, 0, 92, 39
1, 1205803, Control_c, 0, 64, 59
1, 1205803, Control_c, 1, 64, 59
1, 1205824, Control_c, 1, 64, 61
1, 1205824, Control_c, 0, 64, 61
1, 1205828, Note_on_c, 0, 80, 32
1, 1205843, Control_c, 0, 64, 67
1, 1205843, Control_c, 1, 64, 67
1, 1205861, Control_c, 1, 64, 75
1, 1205861, Control_c, 0, 64, 75
1, 1205880, Control_c, 0, 64, 90
1, 1205880, Control_c, 1, 64, 90
1, 1205898, Control_c, 1, 64, 127
1, 1205898, Control_c, 0, 64, 127
1, 1205978, Note_off_c, 0, 93, 35
1, 1206095, Note_off_c, 0, 92, 60
1, 1206185, Note_off_c, 0, 80, 45
1, 1206233, Note_on_c, 0, 46, 35
1, 1206502, Note_on_c, 0, 89, 61
1, 1206530, Note_off_c, 0, 38, 37
1, 1206537, Note_on_c, 0, 77, 30
1, 1206540, Note_off_c, 0, 46, 41
1, 1206548, Note_on_c, 0, 50, 35
1, 1206714, Note_off_c, 0, 50, 51
1, 1206767, Note_on_c, 0, 53, 21
1, 1206801, Note_off_c, 0, 77, 53
1, 1206801, Poly_aftertouch_c, 0, 77, 0
1, 1206969, Note_on_c, 0, 88, 66
1, 1206999, Note_on_c, 0, 76, 32
1, 1207012, Note_on_c, 0, 58, 44
1, 1207086, Note_off_c, 0, 89, 63
1, 1207187, Note_off_c, 0, 53, 38
1, 1207192, Note_off_c, 0, 58, 61
1, 1207192, Poly_aftertouch_c, 0, 58, 0
1, 1207220, Note_on_c, 0, 62, 49
1, 1207232, Note_off_c, 0, 76, 41
1, 1207408, Note_on_c, 0, 86, 67
1, 1207419, Note_off_c, 0, 62, 61
1, 1207433, Note_on_c, 0, 74, 34
1, 1207448, Note_on_c, 0, 65, 47
1, 1207516, Note_off_c, 0, 88, 64
1, 1207586, Note_off_c, 0, 74, 56
1, 1207605, Note_off_c, 0, 65, 55
1, 1207645, Note_on_c, 0, 68, 62
1, 1207681, Note_off_c, 0, 68, 65
1, 1207976, Control_c, 0, 64, 109
1, 1207976, Control_c, 1, 64, 109
1, 1207986, Note_on_c, 0, 45, 40
1, 1207987, Note_on_c, 0, 85, 59
1, 1207995, Control_c, 0, 64, 78
1, 1207995, Control_c, 1, 64, 78
1, 1208013, Control_c, 1, 64, 59
1, 1208013, Control_c, 0, 64, 59
1, 1208030, Note_on_c, 0, 73, 33
1, 1208031, Control_c, 0, 64, 47
1, 1208031, Control_c, 1, 64, 47
1, 1208051, Control_c, 1, 64, 42
1, 1208051, Control_c, 0, 64, 42
1, 1208069, Control_c, 0, 64, 40
1, 1208069, Control_c, 1, 64, 40
1, 1208091, Note_off_c, 0, 86, 49
1, 1208126, Control_c, 0, 64, 45
1, 1208126, Control_c, 1, 64, 45
1, 1208144, Control_c, 1, 64, 59
1, 1208144, Control_c, 0, 64, 59
1, 1208164, Control_c, 0, 64, 76
1, 1208164, Control_c, 1, 64, 76
1, 1208181, Control_c, 1, 64, 98
1, 1208181, Control_c, 0, 64, 98
1, 1208200, Control_c, 0, 64, 127
1, 1208200, Control_c, 1, 64, 127
1, 1208291, Note_on_c, 0, 52, 39
1, 1208358, Note_off_c, 0, 73, 51
1, 1208460, Note_off_c, 0, 45, 36
1, 1208539, Note_on_c, 0, 82, 61
1, 1208569, Note_on_c, 0, 56, 38
1, 1208569, Note_on_c, 0, 70, 26
1, 1208610, Note_off_c, 0, 85, 64
1, 1208763, Note_off_c, 0, 56, 59
1, 1208771, Note_off_c, 0, 52, 35
1, 1208771, Poly_aftertouch_c, 0, 52, 0
1, 1208800, Note_on_c, 0, 62, 35
1, 1208986, Note_off_c, 0, 70, 43
1, 1209107, Note_on_c, 0, 81, 46
1, 1209112, Note_off_c, 0, 62, 41
1, 1209117, Control_c, 0, 64, 97
1, 1209117, Control_c, 1, 64, 97
1, 1209118, Note_off_c, 0, 82, 62
1, 1209124, Note_on_c, 0, 61, 38
1, 1209137, Control_c, 0, 64, 71
1, 1209137, Control_c, 1, 64, 71
1, 1209156, Control_c, 1, 64, 58
1, 1209156, Control_c, 0, 64, 58
1, 1209179, Note_on_c, 0, 69, 16
1, 1209193, Control_c, 0, 64, 61
1, 1209193, Control_c, 1, 64, 61
1, 1209211, Control_c, 1, 64, 68
1, 1209211, Control_c, 0, 64, 68
1, 1209231, Control_c, 0, 64, 82
1, 1209231, Control_c, 1, 64, 82
1, 1209248, Control_c, 1, 64, 118
1, 1209248, Control_c, 0, 64, 118
1, 1209257, Note_off_c, 0, 69, 41
1, 1209267, Control_c, 0, 64, 127
1, 1209267, Control_c, 1, 64, 127
1, 1209372, Note_on_c, 0, 64, 38
1, 1209448, Note_off_c, 0, 81, 63
1, 1209616, Poly_aftertouch_c, 0, 61, 24
1, 1209643, Note_on_c, 0, 57, 44
1, 1209675, Note_off_c, 0, 61, 36
1, 1209675, Poly_aftertouch_c, 0, 61, 0
1, 1209772, Note_on_c, 0, 91, 86
1, 1209777, Note_off_c, 0, 64, 26
1, 1209820, Note_on_c, 0, 79, 45
1, 1210020, Note_on_c, 0, 69, 50
1, 1210048, Note_off_c, 0, 69, 59
1, 1210090, Note_off_c, 0, 57, 61
1, 1210166, Poly_aftertouch_c, 0, 85, 0
1, 1210217, Note_off_c, 0, 79, 57
1, 1210441, Note_on_c, 0, 38, 48
1, 1210560, Control_c, 0, 64, 89
1, 1210560, Control_c, 1, 64, 89
1, 1210572, Note_on_c, 0, 90, 80
1, 1210578, Control_c, 0, 64, 61
1, 1210578, Control_c, 1, 64, 61
1, 1210586, Note_on_c, 0, 78, 49
1, 1210596, Control_c, 0, 64, 40
1, 1210596, Control_c, 1, 64, 40
1, 1210615, Control_c, 1, 64, 31
1, 1210615, Control_c, 0, 64, 31
1, 1210668, Note_off_c, 0, 78, 64
1, 1210668, Note_on_c, 0, 78, 22
1, 1210692, Note_off_c, 0, 91, 60
1, 1210709, Control_c, 0, 64, 39
1, 1210709, Control_c, 1, 64, 39
1, 1210727, Control_c, 1, 64, 52
1, 1210727, Control_c, 0, 64, 52
1, 1210747, Control_c, 0, 64, 70
1, 1210747, Control_c, 1, 64, 70
1, 1210765, Control_c, 1, 64, 92
1, 1210765, Control_c, 0, 64, 92
1, 1210783, Control_c, 0, 64, 127
1, 1210783, Control_c, 1, 64, 127
1, 1210946, Note_on_c, 0, 45, 42
1, 1211025, Note_off_c, 0, 78, 43
1, 1211176, Note_off_c, 0, 45, 60
1, 1211209, Note_off_c, 0, 38, 37
1, 1211221, Note_on_c, 0, 87, 69
1, 1211224, Note_on_c, 0, 50, 41
1, 1211233, Note_on_c, 0, 75, 49
1, 1211293, Note_off_c, 0, 90, 65
1, 1211427, Note_off_c, 0, 50, 39
1, 1211427, Note_on_c, 0, 54, 58
1, 1211650, Note_off_c, 0, 75, 56
1, 1211657, Note_off_c, 0, 54, 58
1, 1211669, Note_on_c, 0, 86, 71
1, 1211672, Note_on_c, 0, 57, 56
1, 1211694, Note_on_c, 0, 74, 45
1, 1211718, Note_off_c, 0, 87, 63
1, 1211888, Note_on_c, 0, 60, 57
1, 1211895, Note_off_c, 0, 57, 63
1, 1211929, Note_off_c, 0, 74, 52
1, 1212095, Note_off_c, 0, 60, 58
1, 1212103, Note_on_c, 0, 84, 75
1, 1212151, Note_on_c, 0, 62, 44
1, 1212203, Note_off_c, 0, 86, 62
1, 1212241, Poly_aftertouch_c, 0, 72, 127
1, 1212332, Note_off_c, 0, 62, 62
1, 1212347, Note_on_c, 0, 66, 43
1, 1212380, Poly_aftertouch_c, 0, 72, 0
1, 1212384, Note_off_c, 0, 66, 56
1, 1212674, Control_c, 0, 64, 103
1, 1212674, Control_c, 1, 64, 103
1, 1212693, Control_c, 1, 64, 72
1, 1212693, Control_c, 0, 64, 72
1, 1212699, Note_on_c, 0, 43, 35
1, 1212699, Note_on_c, 0, 83, 56
1, 1212711, Control_c, 0, 64, 52
1, 1212711, Control_c, 1, 64, 52
1, 1212727, Note_on_c, 0, 71, 40
1, 1212729, Control_c, 0, 64, 38
1, 1212729, Control_c, 1, 64, 38
1, 1212749, Control_c, 1, 64, 30
1, 1212749, Control_c, 0, 64, 30
1, 1212769, Control_c, 0, 64, 23
1, 1212769, Control_c, 1, 64, 23
1, 1212773, Note_off_c, 0, 84, 63
1, 1212786, Control_c, 0, 64, 18
1, 1212786, Control_c, 1, 64, 18
1, 1212861, Control_c, 1, 64, 23
1, 1212861, Control_c, 0, 64, 23
1, 1212880, Control_c, 0, 64, 37
1, 1212880, Control_c, 1, 64, 37
1, 1212899, Control_c, 1, 64, 59
1, 1212899, Control_c, 0, 64, 59
1, 1212918, Control_c, 0, 64, 82
1, 1212918, Control_c, 1, 64, 82
1, 1212936, Control_c, 1, 64, 121
1, 1212936, Control_c, 0, 64, 121
1, 1212954, Control_c, 0, 64, 127
1, 1212954, Control_c, 1, 64, 127
1, 1213005, Note_on_c, 0, 50, 51
1, 1213025, Note_off_c, 0, 43, 51
1, 1213050, Note_off_c, 0, 71, 60
1, 1213248, Note_on_c, 0, 53, 49
1, 1213384, Note_on_c, 0, 80, 67
1, 1213412, Note_on_c, 0, 68, 39
1, 1213419, Note_off_c, 0, 50, 52
1, 1213441, Note_off_c, 0, 53, 58
1, 1213446, Note_off_c, 0, 83, 52
1, 1213492, Note_on_c, 0, 60, 44
1, 1213522, Note_off_c, 0, 68, 64
1, 1213522, Note_on_c, 0, 68, 8
1, 1213786, Poly_aftertouch_c, 0, 78, 0
1, 1213807, Note_on_c, 0, 59, 42
1, 1213809, Note_off_c, 0, 68, 51
1, 1213822, Note_off_c, 0, 60, 34
1, 1213846, Note_on_c, 0, 79, 60
1, 1213853, Control_c, 0, 64, 101
1, 1213853, Control_c, 1, 64, 101
1, 1213856, Note_off_c, 0, 80, 62
1, 1213873, Control_c, 0, 64, 73
1, 1213873, Control_c, 1, 64, 73
1, 1213876, Poly_aftertouch_c, 0, 75, 0
1, 1213890, Control_c, 0, 64, 56
1, 1213890, Control_c, 1, 64, 56
1, 1213900, Note_on_c, 0, 67, 33
1, 1213908, Control_c, 0, 64, 51
1, 1213908, Control_c, 1, 64, 51
1, 1213947, Control_c, 1, 64, 61
1, 1213947, Control_c, 0, 64, 61
1, 1213966, Control_c, 0, 64, 77
1, 1213966, Control_c, 1, 64, 77
1, 1213985, Control_c, 1, 64, 119
1, 1213985, Control_c, 0, 64, 119
1, 1213995, Note_off_c, 0, 67, 46
1, 1214003, Control_c, 0, 64, 127
1, 1214003, Control_c, 1, 64, 127
1, 1214059, Note_off_c, 0, 59, 61
1, 1214070, Note_on_c, 0, 62, 52
1, 1214133, Note_off_c, 0, 79, 62
1, 1214306, Note_on_c, 0, 55, 53
1, 1214383, Note_on_c, 0, 89, 82
1, 1214437, Note_on_c, 0, 77, 29
1, 1214481, Note_off_c, 0, 62, 39
1, 1214636, Note_on_c, 0, 67, 44
1, 1214657, Poly_aftertouch_c, 0, 79, 0
1, 1214673, Note_off_c, 0, 67, 51
1, 1214682, Poly_aftertouch_c, 0, 77, 20
1, 1214687, Note_off_c, 0, 77, 38
1, 1214687, Poly_aftertouch_c, 0, 77, 0
1, 1214689, Note_off_c, 0, 55, 61
1, 1214950, Note_on_c, 0, 36, 50
1, 1215034, Control_c, 0, 64, 90
1, 1215034, Control_c, 1, 64, 90
1, 1215052, Control_c, 1, 64, 62
1, 1215052, Control_c, 0, 64, 62
1, 1215061, Note_on_c, 0, 88, 72
1, 1215068, Note_on_c, 0, 76, 59
1, 1215070, Control_c, 0, 64, 38
1, 1215070, Control_c, 1, 64, 38
1, 1215089, Control_c, 1, 64, 20
1, 1215089, Control_c, 0, 64, 20
1, 1215107, Control_c, 0, 64, 11
1, 1215107, Control_c, 1, 64, 11
1, 1215135, Note_off_c, 0, 89, 64
1, 1215184, Control_c, 0, 64, 20
1, 1215184, Control_c, 1, 64, 20
1, 1215201, Control_c, 1, 64, 38
1, 1215201, Control_c, 0, 64, 38
1, 1215220, Control_c, 0, 64, 64
1, 1215220, Control_c, 1, 64, 64
1, 1215239, Control_c, 1, 64, 87
1, 1215239, Control_c, 0, 64, 87
1, 1215257, Control_c, 0, 64, 127
1, 1215257, Control_c, 1, 64, 127
1, 1215384, Note_off_c, 0, 76, 60
1, 1215424, Note_on_c, 0, 43, 38
1, 1215536, Note_off_c, 0, 36, 31
1, 1215711, Note_on_c, 0, 85, 64
1, 1215733, Note_on_c, 0, 46, 41
1, 1215744, Note_on_c, 0, 73, 28
1, 1215783, Note_off_c, 0, 88, 52
1, 1215899, Note_off_c, 0, 43, 46
1, 1215921, Note_off_c, 0, 46, 60
1, 1215954, Note_on_c, 0, 52, 40
1, 1215972, Poly_aftertouch_c, 0, 82, 127
1, 1216142, Note_off_c, 0, 73, 40
1, 1216164, Poly_aftertouch_c, 0, 82, 0
1, 1216173, Note_on_c, 0, 84, 64
1, 1216175, Note_off_c, 0, 85, 63
1, 1216182, Note_off_c, 0, 52, 38
1, 1216182, Poly_aftertouch_c, 0, 52, 0
1, 1216192, Note_on_c, 0, 55, 50
1, 1216325, Poly_aftertouch_c, 0, 72, 0
1, 1216419, Note_off_c, 0, 55, 54
1, 1216442, Note_on_c, 0, 58, 51
1, 1216727, Note_on_c, 0, 54, 45
1, 1216748, Note_off_c, 0, 58, 50
1, 1216748, Poly_aftertouch_c, 0, 58, 0
1, 1216754, Control_c, 0, 64, 102
1, 1216754, Control_c, 1, 64, 102
1, 1216773, Control_c, 1, 64, 69
1, 1216773, Control_c, 0, 64, 69
1, 1216793, Control_c, 0, 64, 48
1, 1216793, Control_c, 1, 64, 48
1, 1216811, Control_c, 1, 64, 38
1, 1216811, Control_c, 0, 64, 38
1, 1216829, Note_on_c, 0, 88, 67
1, 1216867, Control_c, 0, 64, 49
1, 1216867, Control_c, 1, 64, 49
1, 1216876, Note_on_c, 0, 76, 20
1, 1216885, Control_c, 0, 64, 65
1, 1216885, Control_c, 1, 64, 65
1, 1216905, Control_c, 1, 64, 82
1, 1216905, Control_c, 0, 64, 82
1, 1216924, Control_c, 0, 64, 105
1, 1216924, Control_c, 1, 64, 105
1, 1216926, Note_off_c, 0, 84, 35
1, 1216942, Control_c, 0, 64, 127
1, 1216942, Control_c, 1, 64, 127
1, 1217115, Note_on_c, 0, 66, 46
1, 1217140, Poly_aftertouch_c, 0, 76, 24
1, 1217162, Note_off_c, 0, 66, 63
1, 1217180, Note_off_c, 0, 76, 40
1, 1217180, Poly_aftertouch_c, 0, 76, 0
1, 1217226, Note_off_c, 0, 54, 61
1, 1217461, Note_on_c, 0, 35, 51
1, 1217524, Control_c, 0, 64, 97
1, 1217524, Control_c, 1, 64, 97
1, 1217540, Control_c, 1, 64, 66
1, 1217540, Control_c, 0, 64, 66
1, 1217560, Control_c, 0, 64, 44
1, 1217560, Control_c, 1, 64, 44
1, 1217580, Control_c, 1, 64, 30
1, 1217580, Control_c, 0, 64, 30
1, 1217595, Note_on_c, 0, 87, 55
1, 1217598, Control_c, 0, 64, 25
1, 1217598, Control_c, 1, 64, 25
1, 1217617, Note_on_c, 0, 75, 33
1, 1217653, Control_c, 0, 64, 34
1, 1217653, Control_c, 1, 64, 34
1, 1217672, Control_c, 1, 64, 50
1, 1217672, Control_c, 0, 64, 50
1, 1217690, Control_c, 0, 64, 72
1, 1217690, Control_c, 1, 64, 72
1, 1217710, Control_c, 1, 64, 99
1, 1217710, Control_c, 0, 64, 99
1, 1217728, Control_c, 0, 64, 127
1, 1217728, Control_c, 1, 64, 127
1, 1217734, Note_off_c, 0, 88, 37
1, 1217859, Note_on_c, 0, 42, 45
1, 1217876, Note_off_c, 0, 35, 35
1, 1217879, Note_off_c, 0, 87, 52
1, 1217948, Note_off_c, 0, 75, 44
1, 1218129, Note_on_c, 0, 84, 52
1, 1218189, Note_on_c, 0, 45, 21
1, 1218295, Note_off_c, 0, 42, 37
1, 1218350, Note_off_c, 0, 45, 41
1, 1218379, Poly_aftertouch_c, 0, 72, 0
1, 1218387, Note_on_c, 0, 51, 40
1, 1218512, Note_off_c, 0, 51, 58
1, 1218621, Note_on_c, 0, 83, 57
1, 1218632, Note_on_c, 0, 54, 41
1, 1218694, Note_off_c, 0, 84, 52
1, 1218840, Note_off_c, 0, 54, 35
1, 1218850, Note_on_c, 0, 57, 42
1, 1219058, Note_on_c, 0, 56, 31
1, 1219143, Note_off_c, 0, 57, 35
1, 1219182, Note_on_c, 0, 52, 35
1, 1219206, Control_c, 0, 64, 91
1, 1219206, Control_c, 1, 64, 91
1, 1219225, Control_c, 1, 64, 66
1, 1219225, Control_c, 0, 64, 66
1, 1219244, Note_on_c, 0, 86, 61
1, 1219246, Control_c, 0, 64, 48
1, 1219246, Control_c, 1, 64, 48
1, 1219263, Control_c, 1, 64, 38
1, 1219263, Control_c, 0, 64, 38
1, 1219279, Note_on_c, 0, 74, 36
1, 1219281, Control_c, 0, 64, 32
1, 1219281, Control_c, 1, 64, 32
1, 1219336, Note_off_c, 0, 83, 49
1, 1219337, Control_c, 0, 64, 37
1, 1219337, Control_c, 1, 64, 37
1, 1219356, Control_c, 1, 64, 51
1, 1219356, Control_c, 0, 64, 51
1, 1219376, Control_c, 0, 64, 71
1, 1219376, Control_c, 1, 64, 71
1, 1219394, Control_c, 1, 64, 94
1, 1219394, Control_c, 0, 64, 94
1, 1219412, Control_c, 0, 64, 127
1, 1219412, Control_c, 1, 64, 127
1, 1219611, Note_off_c, 0, 56, 44
1, 1219629, Note_on_c, 0, 62, 21
1, 1219682, Note_off_c, 0, 62, 54
1, 1219725, Note_off_c, 0, 74, 49
1, 1219734, Note_off_c, 0, 52, 45
1, 1219734, Poly_aftertouch_c, 0, 52, 0
1, 1220030, Note_on_c, 0, 33, 42
1, 1220068, Control_c, 0, 64, 122
1, 1220068, Control_c, 1, 64, 122
1, 1220087, Control_c, 1, 64, 77
1, 1220087, Control_c, 0, 64, 77
1, 1220106, Control_c, 0, 64, 52
1, 1220106, Control_c, 1, 64, 52
1, 1220124, Control_c, 1, 64, 34
1, 1220124, Control_c, 0, 64, 34
1, 1220135, Note_on_c, 0, 85, 60
1, 1220142, Control_c, 0, 64, 26
1, 1220142, Control_c, 1, 64, 26
1, 1220182, Note_on_c, 0, 73, 24
1, 1220200, Control_c, 0, 64, 32
1, 1220200, Control_c, 1, 64, 32
1, 1220217, Control_c, 1, 64, 45
1, 1220217, Control_c, 0, 64, 45
1, 1220236, Control_c, 0, 64, 64
1, 1220236, Control_c, 1, 64, 64
1, 1220255, Control_c, 1, 64, 84
1, 1220255, Control_c, 0, 64, 84
1, 1220259, Note_off_c, 0, 86, 37
1, 1220273, Control_c, 0, 64, 118
1, 1220273, Control_c, 1, 64, 118
1, 1220292, Control_c, 1, 64, 127
1, 1220292, Control_c, 0, 64, 127
1, 1220430, Note_off_c, 0, 33, 39
1, 1220452, Note_on_c, 0, 45, 35
1, 1220491, Poly_aftertouch_c, 0, 73, 24
1, 1220531, Note_off_c, 0, 73, 42
1, 1220531, Poly_aftertouch_c, 0, 73, 0
1, 1220572, Note_off_c, 0, 45, 31
1, 1220721, Note_on_c, 0, 84, 51
1, 1220749, Note_off_c, 0, 85, 51
1, 1220757, Note_on_c, 0, 52, 28
1, 1220842, Poly_aftertouch_c, 0, 72, 127
1, 1220917, Note_off_c, 0, 52, 38
1, 1220917, Poly_aftertouch_c, 0, 52, 0
1, 1220958, Poly_aftertouch_c, 0, 72, 0
1, 1221062, Poly_aftertouch_c, 0, 57, 0
1, 1221265, Control_c, 0, 64, 82
1, 1221265, Control_c, 1, 64, 82
1, 1221270, Note_on_c, 0, 38, 38
1, 1221284, Control_c, 0, 64, 57
1, 1221284, Control_c, 1, 64, 57
1, 1221303, Control_c, 1, 64, 40
1, 1221303, Control_c, 0, 64, 40
1, 1221320, Control_c, 0, 64, 31
1, 1221320, Control_c, 1, 64, 31
1, 1221324, Note_on_c, 0, 82, 51
1, 1221390, Note_on_c, 0, 70, 26
1, 1221394, Control_c, 0, 64, 49
1, 1221394, Control_c, 1, 64, 49
1, 1221401, Note_off_c, 0, 84, 48
1, 1221415, Control_c, 0, 64, 73
1, 1221415, Control_c, 1, 64, 73
1, 1221435, Control_c, 1, 64, 110
1, 1221435, Control_c, 0, 64, 110
1, 1221453, Control_c, 0, 64, 127
1, 1221453, Control_c, 1, 64, 127
1, 1221475, Note_off_c, 0, 82, 58
1, 1221524, Note_off_c, 0, 70, 38
1, 1221590, Note_off_c, 0, 38, 39
1, 1221617, Note_on_c, 0, 50, 27
1, 1221889, Note_on_c, 0, 77, 45
1, 1221898, Note_off_c, 0, 50, 41
1, 1222003, Poly_aftertouch_c, 0, 65, 127
1, 1222043, Note_on_c, 0, 53, 39
1, 1222043, Poly_aftertouch_c, 0, 65, 0
1, 1222241, Note_on_c, 0, 58, 43
1, 1222263, Note_off_c, 0, 53, 32
1, 1222321, Note_off_c, 0, 58, 62
1, 1222321, Poly_aftertouch_c, 0, 58, 0
1, 1222663, Note_on_c, 0, 40, 36
1, 1222763, Note_on_c, 0, 81, 54
1, 1222763, Control_c, 0, 64, 99
1, 1222763, Control_c, 1, 64, 99
1, 1222782, Control_c, 1, 64, 71
1, 1222782, Control_c, 0, 64, 71
1, 1222801, Control_c, 0, 64, 51
1, 1222801, Control_c, 1, 64, 51
1, 1222812, Note_off_c, 0, 77, 29
1, 1222812, Poly_aftertouch_c, 0, 77, 0
1, 1222818, Control_c, 0, 64, 35
1, 1222818, Control_c, 1, 64, 35
1, 1222819, Note_on_c, 0, 71, 30
1, 1222825, Note_on_c, 0, 69, 31
1, 1222830, Note_on_c, 0, 74, 25
1, 1222836, Control_c, 0, 64, 25
1, 1222836, Control_c, 1, 64, 25
1, 1222857, Control_c, 1, 64, 20
1, 1222857, Control_c, 0, 64, 20
1, 1222932, Control_c, 0, 64, 29
1, 1222932, Control_c, 1, 64, 29
1, 1222951, Control_c, 1, 64, 45
1, 1222951, Control_c, 0, 64, 45
1, 1222969, Control_c, 0, 64, 67
1, 1222969, Control_c, 1, 64, 67
1, 1222989, Control_c, 1, 64, 88
1, 1222989, Control_c, 0, 64, 88
1, 1223006, Control_c, 0, 64, 127
1, 1223006, Control_c, 1, 64, 127
1, 1223204, Note_off_c, 0, 40, 39
1, 1223204, Poly_aftertouch_c, 0, 40, 0
1, 1223251, Note_on_c, 0, 52, 20
1, 1223349, Note_off_c, 0, 52, 39
1, 1223349, Poly_aftertouch_c, 0, 52, 0
1, 1223408, Note_off_c, 0, 69, 40
1, 1223412, Note_off_c, 0, 71, 39
1, 1223681, Note_on_c, 0, 59, 29
1, 1223786, Note_on_c, 0, 80, 45
1, 1223871, Poly_aftertouch_c, 0, 68, 127
1, 1223878, Note_off_c, 0, 81, 52
1, 1224104, Poly_aftertouch_c, 0, 68, 0
1, 1224184, Note_on_c, 0, 62, 34
1, 1224232, Poly_aftertouch_c, 0, 74, 24
1, 1224244, Note_off_c, 0, 59, 41
1, 1224286, Note_off_c, 0, 74, 37
1, 1224286, Poly_aftertouch_c, 0, 74, 0
1, 1224348, Note_off_c, 0, 80, 38
1, 1224374, Note_off_c, 0, 62, 33
1, 1224840, Note_on_c, 0, 45, 29
1, 1224990, Control_c, 0, 64, 91
1, 1224990, Control_c, 1, 64, 91
1, 1225008, Note_on_c, 0, 81, 41
1, 1225009, Control_c, 0, 64, 67
1, 1225009, Control_c, 1, 64, 67
1, 1225028, Control_c, 1, 64, 50
1, 1225028, Control_c, 0, 64, 50
1, 1225045, Control_c, 0, 64, 39
1, 1225045, Control_c, 1, 64, 39
1, 1225048, Note_on_c, 0, 69, 20
1, 1225052, Note_on_c, 0, 72, 27
1, 1225067, Control_c, 0, 64, 35
1, 1225067, Control_c, 1, 64, 35
1, 1225159, Control_c, 1, 64, 41
1, 1225159, Control_c, 0, 64, 41
1, 1225179, Control_c, 0, 64, 52
1, 1225179, Control_c, 1, 64, 52
1, 1225197, Control_c, 1, 64, 66
1, 1225197, Control_c, 0, 64, 66
1, 1225216, Control_c, 0, 64, 76
1, 1225216, Control_c, 1, 64, 76
1, 1225234, Control_c, 1, 64, 85
1, 1225234, Control_c, 0, 64, 85
1, 1225252, Control_c, 0, 64, 94
1, 1225252, Control_c, 1, 64, 94
1, 1225272, Control_c, 1, 64, 106
1, 1225272, Control_c, 0, 64, 106
1, 1225290, Control_c, 0, 64, 127
1, 1225290, Control_c, 1, 64, 127
1, 1225677, Note_on_c, 0, 52, 28
1, 1226504, Note_on_c, 0, 60, 30
1, 1227106, Control_c, 0, 64, 109
1, 1227106, Control_c, 1, 64, 109
1, 1227125, Control_c, 1, 64, 95
1, 1227125, Control_c, 0, 64, 95
1, 1227162, Control_c, 0, 64, 127
1, 1227162, Control_c, 1, 64, 127
1, 1227539, Note_off_c, 0, 60, 38
1, 1227553, Note_off_c, 0, 69, 40
1, 1227557, Note_off_c, 0, 45, 41
1, 1227570, Note_off_c, 0, 52, 38
1, 1227570, Poly_aftertouch_c, 0, 52, 0
1, 1227610, Note_off_c, 0, 72, 48
1, 1227666, Note_off_c, 0, 81, 57
1, 1228641, Control_c, 0, 67, 123
1, 1228641, Control_c, 1, 67, 123
1, 1228679, Control_c, 1, 67, 117
1, 1228679, Control_c, 0, 67, 117
1, 1228716, Control_c, 0, 67, 110
1, 1228716, Control_c, 1, 67, 110
1, 1228754, Control_c, 1, 67, 102
1, 1228754, Control_c, 0, 67, 102
1, 1228771, Control_c, 0, 67, 98
1, 1228771, Control_c, 1, 67, 98
1, 1228791, Control_c, 1, 67, 93
1, 1228791, Control_c, 0, 67, 93
1, 1228809, Control_c, 0, 64, 107
1, 1228809, Control_c, 1, 64, 107
1, 1228811, Control_c, 1, 67, 89
1, 1228811, Control_c, 0, 67, 89
1, 1228830, Control_c, 0, 64, 92
1, 1228830, Control_c, 1, 64, 92
1, 1228831, Control_c, 1, 67, 85
1, 1228831, Control_c, 0, 67, 85
1, 1228847, Control_c, 0, 64, 78
1, 1228847, Control_c, 1, 64, 78
1, 1228865, Control_c, 1, 64, 67
1, 1228865, Control_c, 0, 64, 67
1, 1228866, Control_c, 0, 67, 78
1, 1228866, Control_c, 1, 67, 78
1, 1228885, Control_c, 1, 64, 62
1, 1228885, Control_c, 0, 64, 62
1, 1228903, Control_c, 0, 67, 74
1, 1228903, Control_c, 1, 67, 74
1, 1228918, Note_on_c, 0, 88, 47
1, 1228959, Control_c, 0, 67, 70
1, 1228959, Control_c, 1, 67, 70
1, 1228978, Control_c, 1, 64, 61
1, 1228978, Control_c, 0, 64, 61
1, 1229015, Control_c, 0, 64, 60
1, 1229015, Control_c, 1, 64, 60
1, 1229071, Control_c, 1, 64, 58
1, 1229071, Control_c, 0, 64, 58
1, 1229090, Note_off_c, 0, 88, 55
1, 1229090, Control_c, 0, 64, 56
1, 1229090, Control_c, 1, 64, 56
1, 1229100, Note_on_c, 0, 100, 66
1, 1229108, Control_c, 0, 64, 53
1, 1229108, Control_c, 1, 64, 53
1, 1229128, Control_c, 1, 64, 50
1, 1229128, Control_c, 0, 64, 50
1, 1229146, Control_c, 0, 64, 47
1, 1229146, Control_c, 1, 64, 47
1, 1229283, Note_on_c, 0, 99, 68
1, 1229297, Note_on_c, 0, 69, 60
1, 1229312, Note_on_c, 0, 81, 43
1, 1229324, Note_off_c, 0, 69, 60
1, 1229332, Control_c, 0, 64, 45
1, 1229332, Control_c, 1, 64, 45
1, 1229333, Control_c, 1, 67, 63
1, 1229333, Control_c, 0, 67, 63
1, 1229351, Note_off_c, 0, 81, 35
1, 1229371, Control_c, 0, 64, 41
1, 1229371, Control_c, 1, 64, 41
1, 1229372, Control_c, 1, 67, 56
1, 1229372, Control_c, 0, 67, 56
1, 1229377, Note_off_c, 0, 100, 29
1, 1229392, Note_on_c, 0, 96, 72
1, 1229408, Control_c, 0, 64, 37
1, 1229408, Control_c, 1, 64, 37
1, 1229409, Control_c, 1, 67, 50
1, 1229409, Control_c, 0, 67, 50
1, 1229434, Note_off_c, 0, 99, 62
1, 1229446, Control_c, 0, 67, 42
1, 1229446, Control_c, 1, 67, 42
1, 1229465, Control_c, 1, 67, 38
1, 1229465, Control_c, 0, 67, 38
1, 1229501, Control_c, 0, 67, 34
1, 1229501, Control_c, 1, 67, 34
1, 1229502, Note_on_c, 0, 95, 69
1, 1229503, Note_off_c, 0, 96, 53
1, 1229526, Note_on_c, 0, 75, 47
1, 1229557, Note_off_c, 0, 75, 58
1, 1229558, Control_c, 0, 67, 30
1, 1229558, Control_c, 1, 67, 30
1, 1229589, Note_off_c, 0, 95, 64
1, 1229604, Note_on_c, 0, 93, 71
1, 1229677, Note_off_c, 0, 93, 58
1, 1229715, Note_on_c, 0, 92, 73
1, 1229716, Note_on_c, 0, 76, 71
1, 1229720, Note_on_c, 0, 64, 70
1, 1229747, Note_off_c, 0, 76, 67
1, 1229747, Poly_aftertouch_c, 0, 76, 0
1, 1229751, Note_off_c, 0, 64, 64
1, 1229821, Note_on_c, 0, 89, 69
1, 1229842, Note_off_c, 0, 92, 61
1, 1229900, Note_off_c, 0, 89, 63
1, 1229905, Note_on_c, 0, 88, 74
1, 1229910, Note_on_c, 0, 68, 62
1, 1229926, Note_on_c, 0, 71, 33
1, 1229947, Note_off_c, 0, 68, 68
1, 1229948, Note_off_c, 0, 88, 63
1, 1229971, Note_off_c, 0, 71, 33
1, 1230028, Note_on_c, 0, 88, 60
1, 1230119, Note_on_c, 0, 69, 72
1, 1230120, Note_on_c, 0, 57, 74
1, 1230126, Note_on_c, 0, 87, 74
1, 1230134, Note_off_c, 0, 88, 64
1, 1230147, Note_off_c, 0, 69, 66
1, 1230150, Note_off_c, 0, 57, 67
1, 1230243, Note_on_c, 0, 84, 59
1, 1230271, Note_on_c, 0, 86, 41
1, 1230290, Note_off_c, 0, 87, 44
1, 1230311, Note_off_c, 0, 86, 35
1, 1230333, Note_on_c, 0, 63, 55
1, 1230333, Note_on_c, 0, 83, 74
1, 1230336, Note_off_c, 0, 84, 61
1, 1230354, Note_on_c, 0, 60, 26
1, 1230362, Note_off_c, 0, 63, 59
1, 1230396, Note_off_c, 0, 83, 63
1, 1230411, Note_off_c, 0, 60, 30
1, 1230424, Note_on_c, 0, 81, 66
1, 1230523, Note_on_c, 0, 80, 74
1, 1230529, Note_off_c, 0, 81, 41
1, 1230529, Note_on_c, 0, 52, 71
1, 1230626, Note_on_c, 0, 77, 70
1, 1230652, Note_off_c, 0, 80, 63
1, 1230708, Note_off_c, 0, 77, 61
1, 1230708, Poly_aftertouch_c, 0, 77, 0
1, 1230717, Note_on_c, 0, 76, 72
1, 1230717, Control_c, 0, 64, 50
1, 1230717, Control_c, 1, 64, 50
1, 1230718, Note_on_c, 0, 64, 81
1, 1230723, Note_off_c, 0, 52, 61
1, 1230723, Poly_aftertouch_c, 0, 52, 0
1, 1230737, Control_c, 0, 64, 93
1, 1230737, Control_c, 1, 64, 93
1, 1230756, Control_c, 1, 64, 127
1, 1230756, Control_c, 0, 64, 127
1, 1230759, Note_off_c, 0, 64, 64
1, 1230788, Note_off_c, 0, 76, 62
1, 1230788, Poly_aftertouch_c, 0, 76, 0
1, 1230819, Note_on_c, 0, 88, 76
1, 1230887, Control_c, 0, 64, 83
1, 1230887, Control_c, 1, 64, 83
1, 1230906, Control_c, 1, 64, 50
1, 1230906, Control_c, 0, 64, 50
1, 1230909, Control_c, 0, 67, 34
1, 1230909, Control_c, 1, 67, 34
1, 1230925, Control_c, 1, 64, 20
1, 1230925, Control_c, 0, 64, 20
1, 1230945, Note_on_c, 0, 69, 79
1, 1230947, Note_on_c, 0, 81, 73
1, 1230948, Note_on_c, 0, 87, 71
1, 1230970, Note_off_c, 0, 69, 69
1, 1230971, Note_off_c, 0, 81, 70
1, 1230982, Note_off_c, 0, 88, 63
1, 1231047, Note_on_c, 0, 84, 76
1, 1231055, Control_c, 0, 64, 0
1, 1231055, Control_c, 1, 64, 0
1, 1231088, Note_off_c, 0, 87, 64
1, 1231142, Note_off_c, 0, 84, 63
1, 1231152, Note_on_c, 0, 83, 72
1, 1231155, Note_on_c, 0, 75, 66
1, 1231166, Note_on_c, 0, 72, 54
1, 1231185, Note_off_c, 0, 75, 69
1, 1231194, Note_off_c, 0, 72, 57
1, 1231211, Note_off_c, 0, 83, 63
1, 1231240, Note_on_c, 0, 81, 59
1, 1231329, Note_off_c, 0, 81, 55
1, 1231348, Note_on_c, 0, 80, 67
1, 1231357, Note_on_c, 0, 76, 68
1, 1231361, Note_on_c, 0, 64, 64
1, 1231388, Note_off_c, 0, 76, 68
1, 1231388, Poly_aftertouch_c, 0, 76, 0
1, 1231394, Note_off_c, 0, 64, 64
1, 1231449, Note_on_c, 0, 77, 66
1, 1231468, Note_off_c, 0, 80, 62
1, 1231522, Note_off_c, 0, 77, 60
1, 1231522, Poly_aftertouch_c, 0, 77, 0
1, 1231528, Note_on_c, 0, 76, 71
1, 1231550, Note_on_c, 0, 68, 58
1, 1231559, Note_on_c, 0, 71, 43
1, 1231571, Note_off_c, 0, 76, 63
1, 1231571, Poly_aftertouch_c, 0, 76, 0
1, 1231586, Note_off_c, 0, 68, 65
1, 1231594, Note_off_c, 0, 71, 49
1, 1231648, Note_on_c, 0, 76, 61
1, 1231754, Note_off_c, 0, 76, 63
1, 1231754, Poly_aftertouch_c, 0, 76, 0
1, 1231757, Note_on_c, 0, 75, 72
1, 1231758, Note_on_c, 0, 57, 63
1, 1231765, Note_on_c, 0, 69, 61
1, 1231787, Note_off_c, 0, 69, 60
1, 1231795, Note_off_c, 0, 57, 64
1, 1231864, Note_on_c, 0, 72, 69
1, 1231935, Control_c, 0, 67, 30
1, 1231935, Control_c, 1, 67, 30
1, 1231941, Note_off_c, 0, 72, 62
1, 1231949, Note_on_c, 0, 71, 72
1, 1231953, Note_on_c, 0, 63, 67
1, 1231963, Note_off_c, 0, 75, 37
1, 1231969, Note_on_c, 0, 60, 43
1, 1231981, Note_off_c, 0, 63, 66
1, 1232005, Note_off_c, 0, 60, 49
1, 1232014, Note_off_c, 0, 71, 61
1, 1232041, Note_on_c, 0, 69, 66
1, 1232119, Note_off_c, 0, 69, 56
1, 1232138, Note_on_c, 0, 68, 73
1, 1232157, Note_on_c, 0, 52, 75
1, 1232160, Control_c, 0, 64, 19
1, 1232160, Control_c, 1, 64, 19
1, 1232178, Control_c, 1, 64, 54
1, 1232178, Control_c, 0, 64, 54
1, 1232191, Note_off_c, 0, 52, 66
1, 1232191, Poly_aftertouch_c, 0, 52, 0
1, 1232196, Control_c, 0, 64, 95
1, 1232196, Control_c, 1, 64, 95
1, 1232217, Control_c, 1, 64, 127
1, 1232217, Control_c, 0, 64, 127
1, 1232238, Note_on_c, 0, 65, 77
1, 1232252, Note_off_c, 0, 68, 63
1, 1232318, Note_off_c, 0, 65, 62
1, 1232330, Note_on_c, 0, 64, 78
1, 1232372, Note_off_c, 0, 64, 62
1, 1232510, Note_on_c, 0, 89, 69
1, 1232529, Note_on_c, 0, 88, 62
1, 1232535, Control_c, 0, 64, 109
1, 1232535, Control_c, 1, 64, 109
1, 1232554, Control_c, 1, 64, 72
1, 1232554, Control_c, 0, 64, 72
1, 1232556, Control_c, 0, 67, 34
1, 1232556, Control_c, 1, 67, 34
1, 1232571, Control_c, 1, 64, 47
1, 1232571, Control_c, 0, 64, 47
1, 1232590, Control_c, 0, 64, 26
1, 1232590, Control_c, 1, 64, 26
1, 1232609, Control_c, 1, 64, 17
1, 1232609, Control_c, 0, 64, 17
1, 1232620, Note_on_c, 0, 69, 61
1, 1232627, Note_on_c, 0, 57, 55
1, 1232649, Note_off_c, 0, 89, 42
1, 1232651, Note_on_c, 0, 86, 72
1, 1232665, Control_c, 0, 64, 13
1, 1232665, Control_c, 1, 64, 13
1, 1232690, Note_off_c, 0, 88, 24
1, 1232764, Note_on_c, 0, 85, 77
1, 1232778, Note_off_c, 0, 86, 61
1, 1232852, Control_c, 0, 64, 8
1, 1232852, Control_c, 1, 64, 8
1, 1232864, Note_on_c, 0, 82, 71
1, 1232871, Control_c, 0, 67, 30
1, 1232871, Control_c, 1, 67, 30
1, 1232881, Note_off_c, 0, 85, 64
1, 1232906, Note_on_c, 0, 61, 56
1, 1232908, Control_c, 0, 64, 0
1, 1232908, Control_c, 1, 64, 0
1, 1232935, Note_off_c, 0, 82, 65
1, 1232935, Note_on_c, 0, 81, 70
1, 1232966, Control_c, 0, 67, 26
1, 1232966, Control_c, 1, 67, 26
1, 1232985, Note_off_c, 0, 81, 61
1, 1233003, Control_c, 0, 67, 21
1, 1233003, Control_c, 1, 67, 21
1, 1233039, Note_on_c, 0, 80, 78
1, 1233092, Note_on_c, 0, 62, 62
1, 1233096, Control_c, 0, 67, 17
1, 1233096, Control_c, 1, 67, 17
1, 1233121, Note_on_c, 0, 77, 58
1, 1233161, Note_off_c, 0, 80, 64
1, 1233170, Control_c, 0, 67, 13
1, 1233170, Control_c, 1, 67, 13
1, 1233171, Note_on_c, 0, 76, 81
1, 1233192, Note_off_c, 0, 77, 63
1, 1233192, Poly_aftertouch_c, 0, 77, 0
1, 1233196, Note_off_c, 0, 57, 57
1, 1233201, Note_off_c, 0, 61, 27
1, 1233201, Poly_aftertouch_c, 0, 61, 0
1, 1233218, Note_on_c, 0, 65, 63
1, 1233231, Note_on_c, 0, 74, 68
1, 1233232, Note_off_c, 0, 76, 63
1, 1233232, Poly_aftertouch_c, 0, 76, 0
1, 1233255, Note_off_c, 0, 69, 38
1, 1233283, Control_c, 0, 67, 9
1, 1233283, Control_c, 1, 67, 9
1, 1233300, Note_off_c, 0, 74, 62
1, 1233300, Poly_aftertouch_c, 0, 74, 0
1, 1233303, Note_off_c, 0, 62, 59
1, 1233313, Note_on_c, 0, 86, 79
1, 1233386, Note_off_c, 0, 65, 61
1, 1233394, Control_c, 0, 64, 26
1, 1233394, Control_c, 1, 64, 26
1, 1233414, Control_c, 1, 64, 57
1, 1233414, Control_c, 0, 64, 57
1, 1233421, Note_on_c, 0, 67, 67
1, 1233423, Note_on_c, 0, 55, 61
1, 1233434, Control_c, 0, 64, 87
1, 1233434, Control_c, 1, 64, 87
1, 1233442, Note_on_c, 0, 84, 72
1, 1233451, Control_c, 0, 64, 127
1, 1233451, Control_c, 1, 64, 127
1, 1233488, Note_off_c, 0, 86, 50
1, 1233517, Note_on_c, 0, 83, 73
1, 1233567, Note_off_c, 0, 84, 55
1, 1233615, Note_on_c, 0, 80, 75
1, 1233638, Note_off_c, 0, 83, 58
1, 1233667, Note_on_c, 0, 59, 63
1, 1233695, Control_c, 0, 64, 92
1, 1233695, Control_c, 1, 64, 92
1, 1233701, Note_on_c, 0, 79, 68
1, 1233705, Note_off_c, 0, 80, 64
1, 1233714, Control_c, 0, 64, 59
1, 1233714, Control_c, 1, 64, 59
1, 1233733, Control_c, 1, 64, 26
1, 1233733, Control_c, 0, 64, 26
1, 1233751, Control_c, 0, 64, 0
1, 1233751, Control_c, 1, 64, 0
1, 1233760, Note_off_c, 0, 79, 61
1, 1233813, Note_on_c, 0, 77, 75
1, 1233893, Note_on_c, 0, 76, 71
1, 1233896, Note_on_c, 0, 60, 59
1, 1233900, Note_off_c, 0, 77, 61
1, 1233900, Poly_aftertouch_c, 0, 77, 0
1, 1233904, Note_off_c, 0, 59, 60
1, 1233959, Note_on_c, 0, 73, 78
1, 1233967, Note_off_c, 0, 76, 64
1, 1233967, Poly_aftertouch_c, 0, 76, 0
1, 1233989, Note_off_c, 0, 55, 37
1, 1234000, Note_off_c, 0, 73, 65
1, 1234000, Poly_aftertouch_c, 0, 73, 0
1, 1234004, Note_on_c, 0, 72, 72
1, 1234016, Note_on_c, 0, 64, 60
1, 1234038, Note_off_c, 0, 67, 44
1, 1234058, Note_off_c, 0, 60, 51
1, 1234075, Note_off_c, 0, 64, 61
1, 1234076, Note_off_c, 0, 72, 61
1, 1234088, Note_on_c, 0, 84, 80
1, 1234216, Note_on_c, 0, 82, 69
1, 1234217, Note_off_c, 0, 84, 64
1, 1234220, Note_on_c, 0, 53, 72
1, 1234226, Note_on_c, 0, 65, 64
1, 1234253, Note_off_c, 0, 53, 65
1, 1234254, Note_off_c, 0, 65, 62
1, 1234255, Control_c, 0, 67, 13
1, 1234255, Control_c, 1, 67, 13
1, 1234288, Note_off_c, 0, 82, 66
1, 1234299, Note_on_c, 0, 81, 70
1, 1234313, Control_c, 0, 67, 17
1, 1234313, Control_c, 1, 67, 17
1, 1234351, Control_c, 1, 67, 22
1, 1234351, Control_c, 0, 67, 22
1, 1234406, Control_c, 0, 67, 27
1, 1234406, Control_c, 1, 67, 27
1, 1234407, Note_on_c, 0, 78, 70
1, 1234419, Note_on_c, 0, 58, 61
1, 1234432, Note_on_c, 0, 62, 44
1, 1234440, Note_off_c, 0, 81, 60
1, 1234457, Note_off_c, 0, 58, 65
1, 1234457, Poly_aftertouch_c, 0, 58, 0
1, 1234462, Control_c, 0, 67, 32
1, 1234462, Control_c, 1, 67, 32
1, 1234470, Note_off_c, 0, 62, 34
1, 1234479, Note_on_c, 0, 77, 68
1, 1234482, Note_off_c, 0, 78, 65
1, 1234536, Control_c, 0, 67, 36
1, 1234536, Control_c, 1, 67, 36
1, 1234560, Note_off_c, 0, 77, 56
1, 1234560, Poly_aftertouch_c, 0, 77, 0
1, 1234601, Note_on_c, 0, 81, 70
1, 1234612, Control_c, 0, 67, 40
1, 1234612, Control_c, 1, 67, 40
1, 1234628, Note_on_c, 0, 64, 63
1, 1234631, Note_on_c, 0, 52, 67
1, 1234650, Control_c, 0, 67, 45
1, 1234650, Control_c, 1, 67, 45
1, 1234660, Note_off_c, 0, 64, 62
1, 1234667, Note_off_c, 0, 52, 64
1, 1234667, Poly_aftertouch_c, 0, 52, 0
1, 1234687, Control_c, 0, 67, 50
1, 1234687, Control_c, 1, 67, 50
1, 1234708, Note_on_c, 0, 80, 66
1, 1234724, Note_off_c, 0, 81, 50
1, 1234800, Note_on_c, 0, 77, 68
1, 1234824, Note_on_c, 0, 60, 56
1, 1234836, Control_c, 0, 67, 55
1, 1234836, Control_c, 1, 67, 55
1, 1234839, Note_on_c, 0, 57, 43
1, 1234840, Note_off_c, 0, 80, 55
1, 1234853, Note_off_c, 0, 60, 59
1, 1234880, Note_off_c, 0, 57, 49
1, 1234885, Note_off_c, 0, 77, 61
1, 1234885, Poly_aftertouch_c, 0, 77, 0
1, 1234892, Control_c, 0, 67, 60
1, 1234892, Control_c, 1, 67, 60
1, 1234907, Note_on_c, 0, 76, 63
1, 1234982, Note_off_c, 0, 76, 55
1, 1234982, Poly_aftertouch_c, 0, 76, 0
1, 1235016, Note_on_c, 0, 79, 68
1, 1235029, Note_on_c, 0, 50, 68
1, 1235033, Note_on_c, 0, 62, 58
1, 1235041, Control_c, 0, 67, 66
1, 1235041, Control_c, 1, 67, 66
1, 1235067, Note_off_c, 0, 50, 65
1, 1235068, Note_off_c, 0, 62, 62
1, 1235080, Control_c, 0, 67, 72
1, 1235080, Control_c, 1, 67, 72
1, 1235119, Note_on_c, 0, 77, 64
1, 1235132, Note_off_c, 0, 79, 58
1, 1235173, Control_c, 0, 67, 76
1, 1235173, Control_c, 1, 67, 76
1, 1235207, Note_on_c, 0, 74, 66
1, 1235223, Note_on_c, 0, 56, 58
1, 1235250, Note_off_c, 0, 77, 54
1, 1235250, Poly_aftertouch_c, 0, 77, 0
1, 1235265, Note_off_c, 0, 56, 62
1, 1235288, Note_off_c, 0, 74, 62
1, 1235288, Poly_aftertouch_c, 0, 74, 0
1, 1235306, Note_on_c, 0, 71, 60
1, 1235328, Poly_aftertouch_c, 0, 52, 0
1, 1235437, Note_off_c, 0, 71, 57
1, 1235441, Note_on_c, 0, 72, 57
1, 1235457, Note_on_c, 0, 57, 59
1, 1235462, Note_on_c, 0, 45, 61
1, 1235513, Note_off_c, 0, 72, 59
1, 1235520, Note_on_c, 0, 75, 71
1, 1235548, Control_c, 0, 64, 12
1, 1235548, Control_c, 1, 64, 12
1, 1235567, Control_c, 1, 64, 26
1, 1235567, Control_c, 0, 64, 26
1, 1235575, Note_off_c, 0, 75, 66
1, 1235586, Control_c, 0, 64, 48
1, 1235586, Control_c, 1, 64, 48
1, 1235604, Control_c, 1, 64, 66
1, 1235604, Control_c, 0, 64, 66
1, 1235620, Note_on_c, 0, 76, 70
1, 1235622, Control_c, 0, 64, 73
1, 1235622, Control_c, 1, 64, 73
1, 1235632, Note_on_c, 0, 52, 61
1, 1235637, Note_off_c, 0, 45, 61
1, 1235641, Control_c, 0, 64, 76
1, 1235641, Control_c, 1, 64, 76
1, 1235659, Control_c, 1, 64, 80
1, 1235659, Control_c, 0, 64, 80
1, 1235672, Note_off_c, 0, 52, 63
1, 1235676, Note_off_c, 0, 57, 43
1, 1235677, Poly_aftertouch_c, 0, 57, 0
1, 1235679, Control_c, 0, 64, 85
1, 1235679, Control_c, 1, 64, 85
1, 1235698, Control_c, 1, 64, 95
1, 1235698, Control_c, 0, 64, 95
1, 1235712, Note_off_c, 0, 76, 56
1, 1235712, Poly_aftertouch_c, 0, 76, 0
1, 1235716, Control_c, 0, 64, 109
1, 1235716, Control_c, 1, 64, 109
1, 1235719, Note_on_c, 0, 88, 72
1, 1235734, Control_c, 0, 64, 127
1, 1235734, Control_c, 1, 64, 127
1, 1235866, Control_c, 1, 64, 90
1, 1235866, Control_c, 0, 64, 90
1, 1235886, Control_c, 0, 64, 63
1, 1235886, Control_c, 1, 64, 63
1, 1235900, Note_on_c, 0, 69, 80
1, 1235903, Control_c, 0, 64, 32
1, 1235903, Control_c, 1, 64, 32
1, 1235912, Note_on_c, 0, 86, 65
1, 1235923, Note_on_c, 0, 57, 68
1, 1235941, Control_c, 0, 64, 0
1, 1235941, Control_c, 1, 64, 0
1, 1236028, Note_on_c, 0, 85, 65
1, 1236033, Note_off_c, 0, 88, 33
1, 1236035, Control_c, 0, 64, 17
1, 1236035, Control_c, 1, 64, 17
1, 1236036, Control_c, 1, 67, 72
1, 1236036, Control_c, 0, 67, 72
1, 1236054, Control_c, 0, 64, 33
1, 1236054, Control_c, 1, 64, 33
1, 1236072, Control_c, 1, 64, 56
1, 1236072, Control_c, 0, 64, 56
1, 1236075, Note_off_c, 0, 86, 49
1, 1236093, Control_c, 0, 64, 70
1, 1236093, Control_c, 1, 64, 70
1, 1236110, Control_c, 1, 64, 76
1, 1236110, Control_c, 0, 64, 76
1, 1236147, Control_c, 0, 64, 74
1, 1236147, Control_c, 1, 64, 74
1, 1236156, Note_on_c, 0, 82, 50
1, 1236159, Note_off_c, 0, 85, 65
1, 1236163, Control_c, 0, 64, 67
1, 1236163, Control_c, 1, 64, 67
1, 1236164, Control_c, 1, 67, 68
1, 1236164, Control_c, 0, 67, 68
1, 1236185, Control_c, 0, 64, 57
1, 1236185, Control_c, 1, 64, 57
1, 1236191, Note_on_c, 0, 61, 45
1, 1236203, Control_c, 0, 64, 46
1, 1236203, Control_c, 1, 64, 46
1, 1236206, Note_off_c, 0, 82, 66
1, 1236221, Control_c, 0, 64, 35
1, 1236221, Control_c, 1, 64, 35
1, 1236223, Note_on_c, 0, 81, 58
1, 1236241, Control_c, 0, 64, 28
1, 1236241, Control_c, 1, 64, 28
1, 1236261, Note_off_c, 0, 81, 63
1, 1236297, Control_c, 0, 64, 23
1, 1236297, Control_c, 1, 64, 23
1, 1236315, Control_c, 1, 64, 19
1, 1236315, Control_c, 0, 64, 19
1, 1236316, Control_c, 0, 67, 64
1, 1236316, Control_c, 1, 67, 64
1, 1236332, Note_on_c, 0, 80, 69
1, 1236353, Control_c, 0, 64, 14
1, 1236353, Control_c, 1, 64, 14
1, 1236354, Control_c, 1, 67, 57
1, 1236354, Control_c, 0, 67, 57
1, 1236376, Note_off_c, 0, 61, 56
1, 1236376, Poly_aftertouch_c, 0, 61, 0
1, 1236390, Note_on_c, 0, 62, 56
1, 1236391, Control_c, 0, 67, 52
1, 1236391, Control_c, 1, 67, 52
1, 1236422, Note_on_c, 0, 77, 51
1, 1236442, Note_off_c, 0, 80, 63
1, 1236464, Control_c, 0, 67, 48
1, 1236464, Control_c, 1, 67, 48
1, 1236471, Note_on_c, 0, 76, 67
1, 1236475, Note_off_c, 0, 77, 62
1, 1236475, Poly_aftertouch_c, 0, 77, 0
1, 1236516, Note_off_c, 0, 76, 64
1, 1236516, Poly_aftertouch_c, 0, 76, 0
1, 1236524, Note_on_c, 0, 74, 68
1, 1236541, Control_c, 0, 64, 9
1, 1236541, Control_c, 1, 64, 9
1, 1236551, Note_on_c, 0, 65, 70
1, 1236576, Note_off_c, 0, 57, 60
1, 1236581, Note_off_c, 0, 69, 56
1, 1236584, Note_off_c, 0, 74, 56
1, 1236584, Poly_aftertouch_c, 0, 74, 0
1, 1236613, Note_on_c, 0, 86, 76
1, 1236653, Control_c, 0, 64, 0
1, 1236653, Control_c, 1, 64, 0
1, 1236690, Note_off_c, 0, 62, 57
1, 1236746, Control_c, 0, 64, 8
1, 1236746, Control_c, 1, 64, 8
1, 1236754, Note_on_c, 0, 84, 73
1, 1236759, Note_on_c, 0, 67, 80
1, 1236765, Control_c, 0, 64, 37
1, 1236765, Control_c, 1, 64, 37
1, 1236767, Control_c, 1, 67, 41
1, 1236767, Control_c, 0, 67, 41
1, 1236775, Note_on_c, 0, 55, 63
1, 1236777, Note_off_c, 0, 65, 62
1, 1236784, Control_c, 0, 64, 79
1, 1236784, Control_c, 1, 64, 79
1, 1236786, Note_off_c, 0, 86, 49
1, 1236802, Control_c, 0, 64, 127
1, 1236802, Control_c, 1, 64, 127
1, 1236805, Control_c, 1, 67, 35
1, 1236805, Control_c, 0, 67, 35
1, 1236821, Control_c, 0, 67, 31
1, 1236821, Control_c, 1, 67, 31
1, 1236852, Note_on_c, 0, 83, 66
1, 1236858, Control_c, 0, 67, 27
1, 1236858, Control_c, 1, 67, 27
1, 1236914, Note_off_c, 0, 84, 39
1, 1236932, Control_c, 0, 64, 91
1, 1236932, Control_c, 1, 64, 91
1, 1236941, Note_on_c, 0, 80, 63
1, 1236952, Control_c, 0, 64, 67
1, 1236952, Control_c, 1, 64, 67
1, 1236964, Note_off_c, 0, 83, 62
1, 1236970, Control_c, 0, 64, 47
1, 1236970, Control_c, 1, 64, 47
1, 1236990, Control_c, 1, 64, 34
1, 1236990, Control_c, 0, 64, 34
1, 1237007, Control_c, 0, 64, 29
1, 1237007, Control_c, 1, 64, 29
1, 1237016, Note_off_c, 0, 80, 63
1, 1237034, Note_on_c, 0, 59, 49
1, 1237035, Note_on_c, 0, 79, 60
1, 1237064, Control_c, 0, 64, 24
1, 1237064, Control_c, 1, 64, 24
1, 1237084, Control_c, 1, 64, 19
1, 1237084, Control_c, 0, 64, 19
1, 1237099, Note_off_c, 0, 79, 61
1, 1237102, Control_c, 0, 64, 14
1, 1237102, Control_c, 1, 64, 14
1, 1237139, Control_c, 1, 64, 9
1, 1237139, Control_c, 0, 64, 9
1, 1237150, Note_on_c, 0, 77, 63
1, 1237227, Note_on_c, 0, 76, 65
1, 1237262, Note_off_c, 0, 77, 55
1, 1237262, Note_on_c, 0, 60, 55
1, 1237262, Poly_aftertouch_c, 0, 77, 0
1, 1237266, Note_off_c, 0, 59, 56
1, 1237270, Control_c, 0, 64, 15
1, 1237270, Control_c, 1, 64, 15
1, 1237289, Control_c, 1, 64, 34
1, 1237289, Control_c, 0, 64, 34
1, 1237307, Control_c, 0, 64, 62
1, 1237307, Control_c, 1, 64, 62
1, 1237312, Note_off_c, 0, 76, 61
1, 1237312, Note_on_c, 0, 73, 68
1, 1237312, Poly_aftertouch_c, 0, 76, 0
1, 1237326, Control_c, 0, 64, 82
1, 1237326, Control_c, 1, 64, 82
1, 1237345, Control_c, 1, 64, 104
1, 1237345, Control_c, 0, 64, 104
1, 1237346, Note_off_c, 0, 73, 68
1, 1237346, Poly_aftertouch_c, 0, 73, 0
1, 1237362, Control_c, 0, 64, 127
1, 1237362, Control_c, 1, 64, 127
1, 1237363, Note_on_c, 0, 72, 69
1, 1237379, Note_on_c, 0, 64, 62
1, 1237435, Note_off_c, 0, 55, 48
1, 1237436, Note_off_c, 0, 67, 58
1, 1237437, Note_off_c, 0, 72, 61
1, 1237449, Note_on_c, 0, 84, 76
1, 1237463, Note_off_c, 0, 60, 45
1, 1237476, Note_off_c, 0, 64, 62
1, 1237514, Control_c, 0, 67, 31
1, 1237514, Control_c, 1, 67, 31
1, 1237551, Control_c, 1, 64, 99
1, 1237551, Control_c, 0, 64, 99
1, 1237569, Control_c, 0, 64, 70
1, 1237569, Control_c, 1, 64, 70
1, 1237571, Note_on_c, 0, 82, 69
1, 1237586, Note_off_c, 0, 84, 59
1, 1237588, Control_c, 0, 64, 49
1, 1237588, Control_c, 1, 64, 49
1, 1237606, Control_c, 1, 64, 36
1, 1237606, Control_c, 0, 64, 36
1, 1237607, Control_c, 0, 67, 35
1, 1237607, Control_c, 1, 67, 35
1, 1237608, Note_on_c, 0, 65, 77
1, 1237613, Note_on_c, 0, 53, 74
1, 1237643, Note_off_c, 0, 65, 63
1, 1237656, Note_off_c, 0, 82, 65
1, 1237660, Note_off_c, 0, 53, 63
1, 1237665, Note_on_c, 0, 81, 70
1, 1237700, Control_c, 0, 67, 39
1, 1237700, Control_c, 1, 67, 39
1, 1237767, Note_on_c, 0, 78, 65
1, 1237809, Note_on_c, 0, 62, 66
1, 1237811, Note_off_c, 0, 81, 59
1, 1237816, Note_on_c, 0, 58, 57
1, 1237851, Control_c, 0, 67, 44
1, 1237851, Control_c, 1, 67, 44
1, 1237853, Note_off_c, 0, 62, 63
1, 1237864, Note_off_c, 0, 58, 66
1, 1237864, Poly_aftertouch_c, 0, 58, 0
1, 1237871, Note_off_c, 0, 78, 64
1, 1237871, Note_on_c, 0, 77, 59
1, 1237907, Control_c, 0, 64, 32
1, 1237907, Control_c, 1, 64, 32
1, 1237960, Note_off_c, 0, 77, 59
1, 1237960, Poly_aftertouch_c, 0, 77, 0
1, 1237962, Control_c, 0, 67, 48
1, 1237962, Control_c, 1, 67, 48
1, 1237982, Control_c, 1, 64, 28
1, 1237982, Control_c, 0, 64, 28
1, 1237998, Control_c, 0, 67, 55
1, 1237998, Control_c, 1, 67, 55
1, 1238001, Note_on_c, 0, 81, 66
1, 1238013, Note_on_c, 0, 52, 72
1, 1238014, Note_on_c, 0, 64, 68
1, 1238017, Control_c, 0, 67, 60
1, 1238017, Control_c, 1, 67, 60
1, 1238039, Control_c, 1, 64, 24
1, 1238039, Control_c, 0, 64, 24
1, 1238040, Control_c, 0, 67, 65
1, 1238040, Control_c, 1, 67, 65
1, 1238054, Note_off_c, 0, 64, 62
1, 1238056, Control_c, 0, 67, 69
1, 1238056, Control_c, 1, 67, 69
1, 1238057, Note_off_c, 0, 52, 61
1, 1238077, Control_c, 0, 64, 18
1, 1238077, Control_c, 1, 64, 18
1, 1238078, Control_c, 1, 67, 73
1, 1238078, Control_c, 0, 67, 73
1, 1238095, Note_on_c, 0, 80, 66
1, 1238127, Note_off_c, 0, 81, 50
1, 1238131, Control_c, 0, 64, 14
1, 1238131, Control_c, 0, 67, 78
1, 1238131, Control_c, 1, 64, 14
1, 1238131, Control_c, 1, 67, 78
1, 1238201, Note_on_c, 0, 77, 63
1, 1238202, Note_on_c, 0, 60, 56
1, 1238207, Note_on_c, 0, 57, 54
1, 1238225, Control_c, 0, 67, 82
1, 1238225, Control_c, 1, 67, 82
1, 1238233, Note_off_c, 0, 80, 58
1, 1238236, Note_off_c, 0, 60, 62
1, 1238249, Note_off_c, 0, 57, 65
1, 1238278, Note_off_c, 0, 77, 61
1, 1238278, Poly_aftertouch_c, 0, 77, 0
1, 1238292, Note_on_c, 0, 76, 61
1, 1238367, Note_off_c, 0, 76, 60
1, 1238367, Poly_aftertouch_c, 0, 76, 0
1, 1238374, Control_c, 0, 67, 89
1, 1238374, Control_c, 1, 67, 89
1, 1238394, Control_c, 1, 67, 93
1, 1238394, Control_c, 0, 67, 93
1, 1238408, Note_on_c, 0, 50, 75
1, 1238409, Note_on_c, 0, 62, 69
1, 1238411, Control_c, 0, 67, 100
1, 1238411, Control_c, 1, 67, 100
1, 1238412, Note_on_c, 0, 79, 74
1, 1238430, Control_c, 0, 64, 0
1, 1238430, Control_c, 1, 64, 0
1, 1238431, Control_c, 1, 67, 108
1, 1238431, Control_c, 0, 67, 108
1, 1238441, Note_off_c, 0, 62, 64
1, 1238450, Note_off_c, 0, 50, 67
1, 1238450, Control_c, 0, 67, 117
1, 1238450, Control_c, 1, 67, 117
1, 1238467, Control_c, 1, 67, 125
1, 1238467, Control_c, 0, 67, 125
1, 1238524, Note_on_c, 0, 77, 69
1, 1238530, Note_off_c, 0, 79, 58
1, 1238613, Note_on_c, 0, 74, 67
1, 1238619, Note_off_c, 0, 77, 61
1, 1238619, Poly_aftertouch_c, 0, 77, 0
1, 1238677, Note_off_c, 0, 74, 60
1, 1238677, Poly_aftertouch_c, 0, 74, 0
1, 1238715, Note_on_c, 0, 71, 55
1, 1238784, Note_off_c, 0, 71, 59
1, 1238827, Note_on_c, 0, 52, 68
1, 1238835, Note_on_c, 0, 59, 50
1, 1238848, Note_on_c, 0, 68, 68
1, 1238857, Note_off_c, 0, 52, 63
1, 1238866, Note_off_c, 0, 59, 40
1, 1238949, Note_off_c, 0, 68, 50
1, 1238971, Note_on_c, 0, 65, 59
1, 1239038, Note_off_c, 0, 65, 55
1, 1239058, Note_on_c, 0, 62, 60
1, 1239096, Note_off_c, 0, 62, 64
1, 1239140, Note_on_c, 0, 59, 52
1, 1239173, Note_off_c, 0, 59, 58
1, 1239236, Note_on_c, 0, 45, 65
1, 1239277, Note_off_c, 0, 45, 62
1, 1239286, Note_on_c, 0, 52, 15
1, 1239334, Note_on_c, 0, 48, 56
1, 1239338, Note_off_c, 0, 52, 40
1, 1239376, Note_off_c, 0, 48, 64
1, 1239376, Poly_aftertouch_c, 0, 48, 0
1, 1239456, Note_on_c, 0, 62, 58
1, 1239478, Note_on_c, 0, 59, 40
1, 1239495, Note_off_c, 0, 62, 64
1, 1239514, Note_off_c, 0, 59, 36
1, 1239589, Note_on_c, 0, 63, 62
1, 1239593, Note_on_c, 0, 57, 35
1, 1239629, Note_off_c, 0, 63, 58
1, 1239643, Note_off_c, 0, 57, 33
1, 1239650, Note_on_c, 0, 59, 27
1, 1239652, Note_on_c, 0, 52, 71
1, 1239684, Note_on_c, 0, 64, 72
1, 1239700, Note_off_c, 0, 52, 63
1, 1239732, Note_off_c, 0, 64, 59
1, 1239736, Note_off_c, 0, 59, 61
1, 1239780, Note_on_c, 0, 56, 42
1, 1239785, Note_on_c, 0, 68, 67
1, 1239809, Note_off_c, 0, 68, 66
1, 1239821, Note_off_c, 0, 56, 42
1, 1239910, Note_on_c, 0, 69, 47
1, 1239915, Note_on_c, 0, 67, 42
1, 1239930, Note_on_c, 0, 63, 23
1, 1239943, Note_off_c, 0, 69, 56
1, 1239954, Note_off_c, 0, 67, 50
1, 1239978, Note_off_c, 0, 63, 30
1, 1240000, Note_on_c, 0, 71, 62
1, 1240032, Note_off_c, 0, 71, 67
1, 1240051, Poly_aftertouch_c, 0, 62, 0
1, 1240105, Note_on_c, 0, 57, 69
1, 1240114, Note_on_c, 0, 64, 62
1, 1240118, Note_on_c, 0, 72, 77
1, 1240128, Note_on_c, 0, 69, 51
1, 1240144, Note_off_c, 0, 57, 60
1, 1240145, Note_off_c, 0, 72, 66
1, 1240153, Note_off_c, 0, 64, 63
1, 1240159, Note_off_c, 0, 69, 54
1, 1240200, Note_on_c, 0, 72, 80
1, 1240222, Note_on_c, 0, 60, 31
1, 1240223, Note_off_c, 0, 72, 68
1, 1240259, Note_off_c, 0, 60, 47
1, 1240265, Poly_aftertouch_c, 0, 61, 0
1, 1240326, Note_on_c, 0, 74, 68
1, 1240355, Note_off_c, 0, 74, 65
1, 1240355, Note_on_c, 0, 71, 40
1, 1240355, Poly_aftertouch_c, 0, 74, 0
1, 1240396, Note_off_c, 0, 71, 37
1, 1240450, Note_on_c, 0, 75, 70
1, 1240456, Note_on_c, 0, 69, 38
1, 1240497, Note_off_c, 0, 69, 35
1, 1240500, Note_off_c, 0, 75, 59
1, 1240517, Note_on_c, 0, 64, 80
1, 1240545, Note_on_c, 0, 71, 60
1, 1240550, Note_on_c, 0, 76, 70
1, 1240567, Note_off_c, 0, 64, 61
1, 1240586, Note_off_c, 0, 76, 65
1, 1240586, Poly_aftertouch_c, 0, 76, 0
1, 1240612, Note_off_c, 0, 71, 60
1, 1240645, Note_on_c, 0, 68, 59
1, 1240651, Note_on_c, 0, 80, 74
1, 1240681, Note_off_c, 0, 80, 72
1, 1240718, Note_off_c, 0, 68, 65
1, 1240749, Note_on_c, 0, 81, 70
1, 1240779, Note_on_c, 0, 75, 47
1, 1240811, Note_off_c, 0, 75, 58
1, 1240825, Note_on_c, 0, 74, 57
1, 1240827, Note_off_c, 0, 81, 61
1, 1240836, Note_on_c, 0, 83, 64
1, 1240850, Note_off_c, 0, 74, 60
1, 1240850, Poly_aftertouch_c, 0, 74, 0
1, 1240866, Note_off_c, 0, 83, 68
1, 1240941, Note_on_c, 0, 57, 72
1, 1240953, Note_on_c, 0, 64, 69
1, 1240957, Note_on_c, 0, 84, 74
1, 1240965, Note_on_c, 0, 81, 66
1, 1240994, Note_off_c, 0, 81, 69
1, 1240997, Note_off_c, 0, 84, 61
1, 1241000, Note_off_c, 0, 57, 59
1, 1241017, Note_off_c, 0, 64, 57
1, 1241043, Note_on_c, 0, 72, 87
1, 1241072, Note_off_c, 0, 72, 67
1, 1241142, Poly_aftertouch_c, 0, 60, 0
1, 1241161, Note_on_c, 0, 74, 70
1, 1241168, Note_on_c, 0, 71, 66
1, 1241192, Note_off_c, 0, 74, 68
1, 1241192, Poly_aftertouch_c, 0, 74, 0
1, 1241196, Note_off_c, 0, 71, 63
1, 1241269, Note_on_c, 0, 69, 76
1, 1241282, Note_on_c, 0, 75, 68
1, 1241298, Note_off_c, 0, 69, 69
1, 1241336, Note_off_c, 0, 75, 63
1, 1241352, Note_on_c, 0, 64, 63
1, 1241372, Note_on_c, 0, 71, 59
1, 1241381, Note_on_c, 0, 76, 75
1, 1241383, Note_on_c, 0, 65, 54
1, 1241390, Note_on_c, 0, 68, 66
1, 1241412, Note_off_c, 0, 64, 61
1, 1241418, Note_off_c, 0, 65, 39
1, 1241421, Note_off_c, 0, 76, 60
1, 1241421, Poly_aftertouch_c, 0, 76, 0
1, 1241426, Note_off_c, 0, 68, 66
1, 1241452, Note_off_c, 0, 71, 63
1, 1241484, Note_on_c, 0, 80, 83
1, 1241501, Note_on_c, 0, 68, 69
1, 1241508, Note_off_c, 0, 80, 75
1, 1241524, Note_off_c, 0, 68, 65
1, 1241568, Note_on_c, 0, 81, 77
1, 1241592, Note_on_c, 0, 75, 70
1, 1241625, Note_off_c, 0, 75, 70
1, 1241649, Note_off_c, 0, 81, 61
1, 1241651, Note_on_c, 0, 74, 59
1, 1241670, Note_on_c, 0, 83, 64
1, 1241683, Note_off_c, 0, 74, 64
1, 1241683, Poly_aftertouch_c, 0, 74, 0
1, 1241702, Note_off_c, 0, 83, 68
1, 1241777, Note_on_c, 0, 69, 75
1, 1241787, Note_on_c, 0, 76, 67
1, 1241787, Note_on_c, 0, 84, 80
1, 1241796, Note_on_c, 0, 81, 67
1, 1241824, Note_off_c, 0, 81, 70
1, 1241827, Note_off_c, 0, 69, 52
1, 1241831, Note_off_c, 0, 84, 64
1, 1241836, Note_off_c, 0, 76, 61
1, 1241836, Poly_aftertouch_c, 0, 76, 0
1, 1241882, Note_on_c, 0, 84, 73
1, 1241901, Note_on_c, 0, 72, 51
1, 1241911, Note_off_c, 0, 84, 68
1, 1241927, Note_off_c, 0, 72, 55
1, 1241963, Note_on_c, 0, 73, 15
1, 1241963, Poly_aftertouch_c, 0, 73, 0
1, 1241964, Note_off_c, 0, 73, 127
1, 1241996, Note_on_c, 0, 86, 73
1, 1242002, Note_on_c, 0, 83, 71
1, 1242029, Note_off_c, 0, 83, 70
1, 1242030, Note_off_c, 0, 86, 64
1, 1242122, Note_on_c, 0, 87, 78
1, 1242130, Note_on_c, 0, 81, 50
1, 1242161, Note_off_c, 0, 81, 35
1, 1242173, Note_off_c, 0, 87, 59
1, 1242200, Note_on_c, 0, 76, 65
1, 1242207, Note_on_c, 0, 83, 62
1, 1242223, Note_on_c, 0, 88, 77
1, 1242231, Note_on_c, 0, 77, 56
1, 1242247, Note_on_c, 0, 80, 39
1, 1242248, Note_off_c, 0, 80, 127
1, 1242249, Note_off_c, 0, 76, 63
1, 1242249, Poly_aftertouch_c, 0, 76, 0
1, 1242254, Note_off_c, 0, 77, 42
1, 1242254, Poly_aftertouch_c, 0, 77, 0
1, 1242265, Note_off_c, 0, 88, 62
1, 1242281, Note_off_c, 0, 83, 62
1, 1242320, Note_on_c, 0, 80, 61
1, 1242346, Note_on_c, 0, 92, 56
1, 1242359, Note_off_c, 0, 80, 67
1, 1242376, Note_off_c, 0, 92, 62
1, 1242410, Note_on_c, 0, 93, 76
1, 1242430, Note_on_c, 0, 87, 71
1, 1242463, Note_off_c, 0, 87, 66
1, 1242489, Note_off_c, 0, 93, 58
1, 1242511, Note_on_c, 0, 86, 65
1, 1242517, Note_on_c, 0, 95, 70
1, 1242539, Note_off_c, 0, 86, 64
1, 1242544, Note_off_c, 0, 95, 66
1, 1242613, Note_on_c, 0, 69, 73
1, 1242621, Note_on_c, 0, 76, 57
1, 1242633, Note_on_c, 0, 97, 85
1, 1242642, Note_off_c, 0, 69, 65
1, 1242648, Note_on_c, 0, 93, 53
1, 1242664, Note_off_c, 0, 97, 64
1, 1242667, Note_off_c, 0, 76, 64
1, 1242667, Poly_aftertouch_c, 0, 76, 0
1, 1242677, Note_off_c, 0, 93, 60
1, 1242840, Note_on_c, 0, 80, 80
1, 1242843, Note_on_c, 0, 86, 61
1, 1242877, Note_off_c, 0, 80, 63
1, 1242891, Note_off_c, 0, 86, 63
1, 1242962, Note_on_c, 0, 88, 71
1, 1242972, Note_on_c, 0, 79, 45
1, 1242990, Note_off_c, 0, 88, 67
1, 1243007, Note_off_c, 0, 79, 37
1, 1243032, Note_on_c, 0, 62, 54
1, 1243052, Note_on_c, 0, 86, 78
1, 1243062, Note_on_c, 0, 69, 70
1, 1243063, Note_on_c, 0, 89, 74
1, 1243072, Note_on_c, 0, 65, 64
1, 1243083, Note_off_c, 0, 86, 68
1, 1243092, Note_off_c, 0, 89, 70
1, 1243100, Note_off_c, 0, 62, 59
1, 1243104, Note_off_c, 0, 69, 61
1, 1243148, Note_on_c, 0, 77, 77
1, 1243176, Note_off_c, 0, 77, 67
1, 1243176, Poly_aftertouch_c, 0, 77, 0
1, 1243191, Note_off_c, 0, 65, 61
1, 1243284, Note_on_c, 0, 81, 57
1, 1243285, Note_on_c, 0, 74, 51
1, 1243309, Note_off_c, 0, 81, 61
1, 1243309, Note_off_c, 0, 74, 54
1, 1243309, Poly_aftertouch_c, 0, 74, 0
1, 1243368, Note_on_c, 0, 80, 75
1, 1243401, Note_on_c, 0, 72, 21
1, 1243418, Note_off_c, 0, 80, 65
1, 1243455, Note_on_c, 0, 74, 54
1, 1243456, Note_on_c, 0, 79, 76
1, 1243457, Note_off_c, 0, 72, 30
1, 1243463, Note_on_c, 0, 67, 77
1, 1243483, Note_off_c, 0, 79, 69
1, 1243512, Note_off_c, 0, 67, 49
1, 1243540, Note_off_c, 0, 74, 61
1, 1243540, Poly_aftertouch_c, 0, 74, 0
1, 1243543, Note_on_c, 0, 71, 66
1, 1243546, Note_on_c, 0, 83, 80
1, 1243565, Note_off_c, 0, 83, 71
1, 1243595, Note_off_c, 0, 71, 66
1, 1243667, Note_on_c, 0, 84, 79
1, 1243689, Note_on_c, 0, 78, 69
1, 1243720, Note_off_c, 0, 78, 67
1, 1243744, Note_off_c, 0, 84, 64
1, 1243779, Note_on_c, 0, 77, 57
1, 1243788, Note_on_c, 0, 86, 64
1, 1243803, Note_off_c, 0, 77, 61
1, 1243803, Poly_aftertouch_c, 0, 77, 0
1, 1243815, Note_off_c, 0, 86, 63
1, 1243874, Note_on_c, 0, 60, 64
1, 1243878, Note_on_c, 0, 84, 80
1, 1243878, Control_c, 0, 67, 121
1, 1243878, Control_c, 1, 67, 121
1, 1243887, Note_on_c, 0, 88, 74
1, 1243893, Note_on_c, 0, 67, 65
1, 1243899, Note_on_c, 0, 86, 53
1, 1243901, Note_on_c, 0, 64, 71
1, 1243908, Note_off_c, 0, 60, 64
1, 1243910, Note_off_c, 0, 88, 68
1, 1243916, Note_off_c, 0, 84, 60
1, 1243930, Note_off_c, 0, 86, 45
1, 1243939, Note_off_c, 0, 67, 54
1, 1243971, Control_c, 0, 67, 117
1, 1243971, Control_c, 1, 67, 117
1, 1243980, Note_on_c, 0, 76, 73
1, 1244006, Note_off_c, 0, 76, 70
1, 1244006, Poly_aftertouch_c, 0, 76, 0
1, 1244028, Note_off_c, 0, 64, 57
1, 1244046, Control_c, 0, 67, 113
1, 1244046, Control_c, 1, 67, 113
1, 1244083, Control_c, 1, 67, 106
1, 1244083, Control_c, 0, 67, 106
1, 1244093, Note_on_c, 0, 79, 69
1, 1244102, Note_on_c, 0, 72, 59
1, 1244121, Control_c, 0, 67, 99
1, 1244121, Control_c, 1, 67, 99
1, 1244126, Note_off_c, 0, 79, 65
1, 1244129, Note_off_c, 0, 72, 61
1, 1244158, Control_c, 0, 67, 95
1, 1244158, Control_c, 1, 67, 95
1, 1244188, Note_on_c, 0, 78, 79
1, 1244196, Note_on_c, 0, 69, 65
1, 1244222, Note_off_c, 0, 69, 61
1, 1244254, Note_off_c, 0, 78, 63
1, 1244289, Note_on_c, 0, 62, 65
1, 1244289, Note_on_c, 0, 77, 80
1, 1244303, Note_on_c, 0, 74, 61
1, 1244309, Note_on_c, 0, 70, 64
1, 1244327, Note_off_c, 0, 74, 43
1, 1244327, Poly_aftertouch_c, 0, 74, 0
1, 1244332, Note_off_c, 0, 77, 65
1, 1244332, Poly_aftertouch_c, 0, 77, 0
1, 1244340, Note_off_c, 0, 62, 59
1, 1244345, Note_on_c, 0, 65, 60
1, 1244346, Control_c, 0, 67, 89
1, 1244346, Control_c, 1, 67, 89
1, 1244347, Note_off_c, 0, 70, 68
1, 1244359, Note_on_c, 0, 66, 54
1, 1244363, Control_c, 0, 67, 85
1, 1244363, Control_c, 1, 67, 85
1, 1244383, Control_c, 1, 67, 80
1, 1244383, Control_c, 0, 67, 80
1, 1244390, Note_on_c, 0, 77, 76
1, 1244420, Control_c, 0, 67, 75
1, 1244420, Control_c, 1, 67, 75
1, 1244433, Note_off_c, 0, 77, 64
1, 1244433, Poly_aftertouch_c, 0, 77, 0
1, 1244439, Control_c, 0, 67, 71
1, 1244439, Control_c, 1, 67, 71
1, 1244456, Note_off_c, 0, 66, 53
1, 1244472, Note_off_c, 0, 65, 60
1, 1244476, Control_c, 0, 67, 65
1, 1244476, Control_c, 1, 67, 65
1, 1244499, Note_on_c, 0, 84, 81
1, 1244511, Note_on_c, 0, 77, 58
1, 1244537, Note_off_c, 0, 77, 61
1, 1244537, Poly_aftertouch_c, 0, 77, 0
1, 1244541, Note_off_c, 0, 84, 65
1, 1244570, Control_c, 0, 67, 61
1, 1244570, Control_c, 1, 67, 61
1, 1244593, Note_on_c, 0, 82, 84
1, 1244594, Note_on_c, 0, 74, 71
1, 1244621, Note_off_c, 0, 74, 66
1, 1244621, Poly_aftertouch_c, 0, 74, 0
1, 1244643, Note_off_c, 0, 82, 63
1, 1244704, Note_on_c, 0, 60, 64
1, 1244716, Note_on_c, 0, 69, 74
1, 1244745, Note_off_c, 0, 60, 60
1, 1244756, Note_on_c, 0, 64, 31
1, 1244793, Note_on_c, 0, 76, 86
1, 1244813, Note_off_c, 0, 69, 61
1, 1244840, Note_off_c, 0, 76, 64
1, 1244840, Poly_aftertouch_c, 0, 76, 0
1, 1244888, Note_off_c, 0, 64, 57
1, 1244891, Note_on_c, 0, 76, 69
1, 1244895, Note_on_c, 0, 82, 75
1, 1244942, Note_off_c, 0, 76, 64
1, 1244942, Poly_aftertouch_c, 0, 76, 0
1, 1244968, Note_off_c, 0, 82, 66
1, 1244980, Note_on_c, 0, 81, 69
1, 1244990, Note_on_c, 0, 72, 58
1, 1245015, Note_off_c, 0, 81, 61
1, 1245022, Note_off_c, 0, 72, 62
1, 1245076, Control_c, 0, 67, 57
1, 1245076, Control_c, 1, 67, 57
1, 1245092, Note_on_c, 0, 65, 73
1, 1245096, Note_on_c, 0, 59, 67
1, 1245101, Note_on_c, 0, 81, 88
1, 1245120, Note_on_c, 0, 77, 71
1, 1245132, Control_c, 0, 67, 52
1, 1245132, Control_c, 1, 67, 52
1, 1245137, Note_off_c, 0, 65, 63
1, 1245150, Note_off_c, 0, 77, 66
1, 1245150, Poly_aftertouch_c, 0, 77, 0
1, 1245164, Note_off_c, 0, 59, 59
1, 1245165, Note_off_c, 0, 81, 63
1, 1245168, Control_c, 0, 67, 46
1, 1245168, Control_c, 1, 67, 46
1, 1245188, Note_on_c, 0, 69, 72
1, 1245199, Note_on_c, 0, 74, 71
1, 1245219, Note_off_c, 0, 69, 67
1, 1245244, Note_off_c, 0, 74, 61
1, 1245244, Poly_aftertouch_c, 0, 74, 0
1, 1245301, Note_on_c, 0, 80, 86
1, 1245314, Note_on_c, 0, 52, 78
1, 1245317, Note_on_c, 0, 76, 78
1, 1245322, Note_on_c, 0, 59, 73
1, 1245352, Note_off_c, 0, 59, 65
1, 1245382, Note_off_c, 0, 76, 63
1, 1245382, Poly_aftertouch_c, 0, 76, 0
1, 1245388, Note_off_c, 0, 52, 61
1, 1245394, Note_off_c, 0, 80, 63
1, 1245410, Note_on_c, 0, 64, 79
1, 1245429, Note_on_c, 0, 71, 75
1, 1245454, Note_off_c, 0, 64, 64
1, 1245485, Note_off_c, 0, 71, 57
1, 1245530, Note_on_c, 0, 81, 91
1, 1245536, Note_on_c, 0, 64, 80
1, 1245544, Note_on_c, 0, 57, 79
1, 1245544, Control_c, 0, 67, 51
1, 1245544, Control_c, 1, 67, 51
1, 1245546, Note_on_c, 0, 72, 78
1, 1245570, Note_off_c, 0, 72, 69
1, 1245574, Note_off_c, 0, 64, 63
1, 1245600, Note_off_c, 0, 57, 62
1, 1245652, Note_on_c, 0, 69, 75
1, 1245652, Note_on_c, 0, 76, 81
1, 1245655, Note_off_c, 0, 81, 56
1, 1245681, Note_off_c, 0, 69, 65
1, 1245744, Note_on_c, 0, 72, 80
1, 1245751, Note_off_c, 0, 76, 63
1, 1245751, Poly_aftertouch_c, 0, 76, 0
1, 1245796, Note_off_c, 0, 72, 62
1, 1245821, Note_on_c, 0, 69, 72
1, 1245870, Note_off_c, 0, 69, 59
1, 1245931, Note_on_c, 0, 57, 68
1, 1245970, Note_off_c, 0, 57, 65
1, 1245970, Note_on_c, 0, 64, 46
1, 1246003, Note_off_c, 0, 64, 57
1, 1246060, Note_on_c, 0, 61, 70
1, 1246063, Note_on_c, 0, 73, 69
1, 1246086, Note_off_c, 0, 73, 67
1, 1246086, Poly_aftertouch_c, 0, 73, 0
1, 1246093, Note_off_c, 0, 61, 68
1, 1246109, Note_on_c, 0, 68, 54
1, 1246119, Note_on_c, 0, 74, 60
1, 1246160, Note_off_c, 0, 68, 63
1, 1246215, Note_off_c, 0, 74, 62
1, 1246215, Poly_aftertouch_c, 0, 74, 0
1, 1246220, Note_on_c, 0, 76, 71
1, 1246244, Note_on_c, 0, 67, 40
1, 1246250, Note_off_c, 0, 76, 65
1, 1246250, Poly_aftertouch_c, 0, 76, 0
1, 1246291, Note_off_c, 0, 67, 36
1, 1246334, Note_on_c, 0, 77, 81
1, 1246336, Note_on_c, 0, 50, 73
1, 1246353, Note_on_c, 0, 57, 62
1, 1246354, Note_on_c, 0, 74, 57
1, 1246381, Note_off_c, 0, 77, 60
1, 1246381, Note_off_c, 0, 74, 60
1, 1246381, Poly_aftertouch_c, 0, 74, 0
1, 1246381, Poly_aftertouch_c, 0, 77, 0
1, 1246409, Note_off_c, 0, 57, 64
1, 1246409, Note_off_c, 0, 50, 63
1, 1246441, Note_on_c, 0, 65, 86
1, 1246456, Note_on_c, 0, 53, 42
1, 1246465, Note_off_c, 0, 65, 70
1, 1246499, Note_off_c, 0, 53, 61
1, 1246556, Note_on_c, 0, 69, 72
1, 1246557, Note_on_c, 0, 62, 69
1, 1246581, Poly_aftertouch_c, 0, 54, 0
1, 1246588, Note_off_c, 0, 62, 67
1, 1246589, Note_off_c, 0, 69, 63
1, 1246651, Note_on_c, 0, 60, 68
1, 1246657, Note_on_c, 0, 68, 77
1, 1246686, Note_off_c, 0, 60, 63
1, 1246716, Note_off_c, 0, 68, 66
1, 1246757, Note_on_c, 0, 67, 74
1, 1246760, Note_on_c, 0, 55, 62
1, 1246767, Note_on_c, 0, 62, 67
1, 1246800, Note_off_c, 0, 55, 66
1, 1246801, Note_off_c, 0, 67, 57
1, 1246809, Note_on_c, 0, 59, 59
1, 1246838, Note_off_c, 0, 62, 62
1, 1246881, Note_on_c, 0, 71, 36
1, 1246882, Note_off_c, 0, 71, 127
1, 1246890, Note_off_c, 0, 59, 62
1, 1246926, Poly_aftertouch_c, 0, 71, 0
1, 1246928, Control_c, 0, 67, 47
1, 1246928, Control_c, 1, 67, 47
1, 1246951, Note_on_c, 0, 72, 80
1, 1246969, Note_on_c, 0, 66, 74
1, 1247002, Note_off_c, 0, 66, 68
1, 1247042, Note_off_c, 0, 72, 51
1, 1247071, Note_on_c, 0, 65, 59
1, 1247072, Note_on_c, 0, 74, 67
1, 1247111, Note_off_c, 0, 65, 61
1, 1247128, Note_off_c, 0, 74, 48
1, 1247128, Poly_aftertouch_c, 0, 74, 0
1, 1247162, Note_on_c, 0, 74, 61
1, 1247178, Note_on_c, 0, 48, 58
1, 1247183, Note_on_c, 0, 72, 58
1, 1247187, Note_on_c, 0, 55, 62
1, 1247194, Note_off_c, 0, 74, 66
1, 1247194, Poly_aftertouch_c, 0, 74, 0
1, 1247198, Note_on_c, 0, 52, 71
1, 1247204, Note_on_c, 0, 73, 8
1, 1247205, Note_off_c, 0, 73, 127
1, 1247205, Poly_aftertouch_c, 0, 73, 0
1, 1247208, Note_off_c, 0, 72, 60
1, 1247215, Note_off_c, 0, 48, 64
1, 1247215, Poly_aftertouch_c, 0, 48, 0
1, 1247241, Note_off_c, 0, 55, 63
1, 1247254, Note_on_c, 0, 64, 81
1, 1247299, Note_off_c, 0, 64, 63
1, 1247325, Note_off_c, 0, 52, 60
1, 1247408, Note_on_c, 0, 67, 70
1, 1247412, Note_on_c, 0, 60, 60
1, 1247440, Note_off_c, 0, 60, 61
1, 1247441, Note_off_c, 0, 67, 68
1, 1247497, Note_on_c, 0, 66, 81
1, 1247500, Note_on_c, 0, 57, 69
1, 1247538, Note_off_c, 0, 57, 66
1, 1247559, Note_off_c, 0, 66, 62
1, 1247564, Poly_aftertouch_c, 0, 54, 0
1, 1247575, Note_on_c, 0, 50, 73
1, 1247589, Note_on_c, 0, 58, 74
1, 1247593, Note_on_c, 0, 65, 76
1, 1247613, Note_on_c, 0, 62, 52
1, 1247634, Note_off_c, 0, 65, 66
1, 1247636, Note_on_c, 0, 53, 45
1, 1247646, Note_off_c, 0, 50, 63
1, 1247647, Note_off_c, 0, 62, 38
1, 1247672, Note_off_c, 0, 58, 63
1, 1247672, Poly_aftertouch_c, 0, 58, 0
1, 1247714, Note_on_c, 0, 65, 71
1, 1247747, Note_off_c, 0, 53, 64
1, 1247747, Note_off_c, 0, 65, 68
1, 1247747, Note_on_c, 0, 53, 25
1, 1247752, Control_c, 0, 67, 42
1, 1247752, Control_c, 1, 67, 42
1, 1247780, Note_off_c, 0, 53, 59
1, 1247790, Control_c, 0, 67, 37
1, 1247790, Control_c, 1, 67, 37
1, 1247803, Note_on_c, 0, 72, 80
1, 1247836, Note_on_c, 0, 65, 41
1, 1247840, Note_off_c, 0, 72, 55
1, 1247883, Note_off_c, 0, 65, 35
1, 1247893, Note_on_c, 0, 62, 66
1, 1247897, Note_on_c, 0, 70, 79
1, 1247920, Note_off_c, 0, 62, 63
1, 1247936, Note_off_c, 0, 70, 62
1, 1248017, Note_on_c, 0, 48, 51
1, 1248020, Note_on_c, 0, 57, 74
1, 1248029, Note_on_c, 0, 52, 71
1, 1248057, Note_off_c, 0, 48, 51
1, 1248057, Poly_aftertouch_c, 0, 48, 0
1, 1248100, Note_on_c, 0, 64, 80
1, 1248109, Note_off_c, 0, 57, 63
1, 1248152, Note_off_c, 0, 64, 59
1, 1248190, Note_on_c, 0, 70, 77
1, 1248208, Note_on_c, 0, 64, 37
1, 1248211, Note_off_c, 0, 52, 60
1, 1248250, Note_off_c, 0, 64, 53
1, 1248254, Note_off_c, 0, 70, 61
1, 1248266, Note_on_c, 0, 69, 69
1, 1248292, Note_on_c, 0, 60, 64
1, 1248330, Note_off_c, 0, 69, 58
1, 1248333, Note_off_c, 0, 60, 62
1, 1248426, Note_on_c, 0, 53, 68
1, 1248431, Note_on_c, 0, 47, 61
1, 1248438, Note_on_c, 0, 69, 69
1, 1248470, Note_on_c, 0, 65, 28
1, 1248472, Note_off_c, 0, 53, 61
1, 1248481, Control_c, 0, 64, 9
1, 1248481, Control_c, 1, 64, 9
1, 1248520, Control_c, 1, 64, 17
1, 1248520, Control_c, 0, 64, 17
1, 1248522, Note_off_c, 0, 69, 57
1, 1248529, Note_off_c, 0, 65, 44
1, 1248529, Note_on_c, 0, 57, 67
1, 1248531, Note_on_c, 0, 62, 67
1, 1248538, Control_c, 0, 64, 27
1, 1248538, Control_c, 1, 64, 27
1, 1248558, Control_c, 1, 64, 45
1, 1248558, Control_c, 0, 64, 45
1, 1248567, Note_off_c, 0, 57, 66
1, 1248574, Control_c, 0, 64, 62
1, 1248574, Control_c, 1, 64, 62
1, 1248583, Note_off_c, 0, 62, 59
1, 1248594, Control_c, 0, 64, 67
1, 1248594, Control_c, 1, 64, 67
1, 1248605, Note_on_c, 0, 59, 65
1, 1248621, Note_off_c, 0, 47, 56
1, 1248676, Note_off_c, 0, 59, 62
1, 1248736, Note_on_c, 0, 57, 71
1, 1248763, Control_c, 0, 64, 64
1, 1248763, Control_c, 1, 64, 64
1, 1248783, Control_c, 1, 64, 60
1, 1248783, Control_c, 0, 64, 60
1, 1248801, Control_c, 0, 64, 53
1, 1248801, Control_c, 1, 64, 53
1, 1248820, Control_c, 1, 64, 41
1, 1248820, Control_c, 0, 64, 41
1, 1248836, Note_on_c, 0, 40, 54
1, 1248836, Control_c, 0, 64, 28
1, 1248836, Control_c, 1, 64, 28
1, 1248849, Note_off_c, 0, 57, 59
1, 1248851, Note_on_c, 0, 56, 64
1, 1248894, Control_c, 0, 64, 37
1, 1248894, Control_c, 1, 64, 37
1, 1248913, Control_c, 1, 64, 50
1, 1248913, Control_c, 0, 64, 50
1, 1248922, Note_on_c, 0, 50, 65
1, 1248932, Control_c, 0, 64, 62
1, 1248932, Control_c, 1, 64, 62
1, 1248943, Note_on_c, 0, 53, 72
1, 1248950, Control_c, 0, 64, 67
1, 1248950, Control_c, 1, 64, 67
1, 1248953, Note_off_c, 0, 56, 62
1, 1248961, Note_off_c, 0, 50, 65
1, 1248988, Control_c, 0, 64, 70
1, 1248988, Control_c, 1, 64, 70
1, 1248994, Note_off_c, 0, 53, 59
1, 1248997, Note_off_c, 0, 40, 56
1, 1248997, Poly_aftertouch_c, 0, 40, 0
1, 1249007, Control_c, 0, 64, 73
1, 1249007, Control_c, 1, 64, 73
1, 1249020, Poly_aftertouch_c, 0, 40, 0
1, 1249024, Control_c, 0, 64, 77
1, 1249024, Control_c, 1, 64, 77
1, 1249035, Note_on_c, 0, 50, 66
1, 1249043, Control_c, 0, 64, 86
1, 1249043, Control_c, 1, 64, 86
1, 1249063, Control_c, 1, 64, 100
1, 1249063, Control_c, 0, 64, 100
1, 1249082, Control_c, 0, 64, 122
1, 1249082, Control_c, 1, 64, 122
1, 1249100, Control_c, 1, 64, 127
1, 1249100, Control_c, 0, 64, 127
1, 1249137, Note_on_c, 0, 47, 69
1, 1249140, Note_off_c, 0, 50, 62
1, 1249170, Note_off_c, 0, 47, 66
1, 1249174, Control_c, 0, 64, 97
1, 1249174, Control_c, 1, 64, 97
1, 1249194, Control_c, 1, 64, 73
1, 1249194, Control_c, 0, 64, 73
1, 1249212, Control_c, 0, 64, 51
1, 1249212, Control_c, 1, 64, 51
1, 1249231, Control_c, 1, 64, 32
1, 1249231, Control_c, 0, 64, 32
1, 1249247, Note_on_c, 0, 33, 67
1, 1249249, Control_c, 0, 64, 25
1, 1249249, Control_c, 1, 64, 25
1, 1249252, Note_on_c, 0, 45, 62
1, 1249289, Control_c, 0, 64, 32
1, 1249289, Control_c, 1, 64, 32
1, 1249302, Note_off_c, 0, 33, 61
1, 1249304, Control_c, 0, 64, 45
1, 1249304, Control_c, 1, 64, 45
1, 1249324, Control_c, 1, 64, 63
1, 1249324, Control_c, 0, 64, 63
1, 1249346, Control_c, 0, 64, 73
1, 1249346, Control_c, 1, 64, 73
1, 1249354, Note_on_c, 0, 60, 72
1, 1249362, Control_c, 0, 64, 79
1, 1249362, Control_c, 1, 64, 79
1, 1249375, Note_on_c, 0, 48, 35
1, 1249378, Control_c, 0, 64, 84
1, 1249378, Control_c, 1, 64, 84
1, 1249398, Note_off_c, 0, 45, 54
1, 1249399, Control_c, 0, 64, 87
1, 1249399, Control_c, 1, 64, 87
1, 1249415, Note_on_c, 0, 45, 26
1, 1249416, Note_off_c, 0, 45, 127
1, 1249417, Control_c, 0, 64, 92
1, 1249417, Control_c, 1, 64, 92
1, 1249427, Note_off_c, 0, 48, 43
1, 1249427, Poly_aftertouch_c, 0, 48, 0
1, 1249437, Control_c, 0, 64, 99
1, 1249437, Control_c, 1, 64, 99
1, 1249445, Note_off_c, 0, 60, 54
1, 1249455, Control_c, 0, 64, 114
1, 1249455, Control_c, 1, 64, 114
1, 1249465, Note_on_c, 0, 47, 58
1, 1249469, Note_on_c, 0, 59, 69
1, 1249474, Control_c, 0, 64, 127
1, 1249474, Control_c, 1, 64, 127
1, 1249527, Note_off_c, 0, 47, 58
1, 1249537, Note_on_c, 0, 45, 64
1, 1249566, Note_on_c, 0, 57, 69
1, 1249583, Note_off_c, 0, 59, 57
1, 1249618, Note_off_c, 0, 45, 62
1, 1249623, Control_c, 0, 64, 101
1, 1249623, Control_c, 1, 64, 101
1, 1249638, Note_off_c, 0, 57, 61
1, 1249641, Control_c, 0, 64, 67
1, 1249641, Control_c, 1, 64, 67
1, 1249652, Note_on_c, 0, 40, 71
1, 1249654, Note_on_c, 0, 52, 77
1, 1249661, Control_c, 0, 64, 38
1, 1249661, Control_c, 1, 64, 38
1, 1249682, Control_c, 1, 64, 20
1, 1249682, Control_c, 0, 64, 20
1, 1249717, Control_c, 0, 64, 27
1, 1249717, Control_c, 1, 64, 27
1, 1249725, Note_off_c, 0, 40, 61
1, 1249736, Control_c, 0, 64, 43
1, 1249736, Control_c, 1, 64, 43
1, 1249756, Control_c, 1, 64, 67
1, 1249756, Control_c, 0, 64, 67
1, 1249773, Control_c, 0, 64, 84
1, 1249773, Control_c, 1, 64, 84
1, 1249783, Note_on_c, 0, 68, 80
1, 1249793, Control_c, 0, 64, 104
1, 1249793, Control_c, 1, 64, 104
1, 1249798, Note_off_c, 0, 52, 49
1, 1249798, Note_on_c, 0, 56, 59
1, 1249811, Control_c, 0, 64, 127
1, 1249811, Control_c, 1, 64, 127
1, 1249845, Note_off_c, 0, 56, 60
1, 1249874, Note_on_c, 0, 66, 70
1, 1249880, Note_on_c, 0, 54, 71
1, 1249911, Note_off_c, 0, 68, 57
1, 1249953, Note_on_c, 0, 64, 69
1, 1249967, Note_on_c, 0, 52, 62
1, 1249973, Note_off_c, 0, 66, 62
1, 1249984, Note_off_c, 0, 54, 60
1, 1250027, Note_off_c, 0, 64, 62
1, 1250042, Note_off_c, 0, 52, 60
1, 1250056, Control_c, 0, 64, 104
1, 1250056, Control_c, 1, 64, 104
1, 1250068, Note_on_c, 0, 45, 80
1, 1250072, Note_on_c, 0, 57, 71
1, 1250075, Control_c, 0, 64, 68
1, 1250075, Control_c, 1, 64, 68
1, 1250092, Control_c, 1, 64, 40
1, 1250092, Control_c, 0, 64, 40
1, 1250110, Control_c, 0, 64, 27
1, 1250110, Control_c, 1, 64, 27
1, 1250149, Control_c, 1, 64, 39
1, 1250149, Control_c, 0, 64, 39
1, 1250157, Note_on_c, 0, 72, 84
1, 1250166, Note_off_c, 0, 45, 64
1, 1250167, Control_c, 0, 64, 58
1, 1250167, Control_c, 1, 64, 58
1, 1250180, Note_on_c, 0, 60, 56
1, 1250186, Control_c, 0, 64, 77
1, 1250186, Control_c, 1, 64, 77
1, 1250204, Control_c, 1, 64, 97
1, 1250204, Control_c, 0, 64, 97
1, 1250225, Control_c, 0, 64, 127
1, 1250225, Control_c, 1, 64, 127
1, 1250229, Note_off_c, 0, 60, 60
1, 1250250, Note_off_c, 0, 57, 58
1, 1250263, Note_on_c, 0, 71, 75
1, 1250294, Note_on_c, 0, 59, 78
1, 1250348, Note_on_c, 0, 69, 81
1, 1250351, Note_off_c, 0, 72, 54
1, 1250371, Note_on_c, 0, 57, 62
1, 1250387, Note_off_c, 0, 59, 55
1, 1250388, Note_off_c, 0, 71, 62
1, 1250410, Control_c, 0, 64, 95
1, 1250410, Control_c, 1, 64, 95
1, 1250431, Control_c, 1, 64, 82
1, 1250431, Control_c, 1, 67, 32
1, 1250431, Control_c, 0, 64, 82
1, 1250431, Control_c, 0, 67, 32
1, 1250447, Control_c, 0, 64, 86
1, 1250447, Control_c, 1, 64, 86
1, 1250448, Control_c, 1, 67, 27
1, 1250448, Control_c, 0, 67, 27
1, 1250451, Note_off_c, 0, 57, 62
1, 1250456, Note_on_c, 0, 76, 91
1, 1250458, Note_off_c, 0, 69, 59
1, 1250465, Note_on_c, 0, 64, 82
1, 1250465, Control_c, 0, 64, 100
1, 1250465, Control_c, 1, 64, 100
1, 1250466, Control_c, 1, 67, 16
1, 1250466, Control_c, 0, 67, 16
1, 1250485, Control_c, 0, 64, 127
1, 1250485, Control_c, 1, 64, 127
1, 1250486, Control_c, 1, 67, 0
1, 1250486, Control_c, 0, 67, 0
1, 1250548, Note_off_c, 0, 76, 58
1, 1250548, Note_off_c, 0, 64, 58
1, 1250548, Poly_aftertouch_c, 0, 76, 0
1, 1250555, Note_on_c, 0, 71, 80
1, 1250567, Note_on_c, 0, 59, 79
1, 1250596, Note_off_c, 0, 59, 65
1, 1250653, Note_on_c, 0, 64, 79
1, 1250660, Note_off_c, 0, 71, 64
1, 1250720, Note_on_c, 0, 52, 73
1, 1250724, Note_off_c, 0, 64, 54
1, 1250726, Note_on_c, 0, 40, 80
1, 1250734, Note_on_c, 0, 59, 76
1, 1250754, Note_off_c, 0, 52, 66
1, 1250766, Note_off_c, 0, 40, 63
1, 1250796, Note_off_c, 0, 59, 61
1, 1250840, Control_c, 0, 64, 98
1, 1250840, Control_c, 1, 64, 98
1, 1250859, Control_c, 1, 64, 59
1, 1250859, Control_c, 0, 64, 59
1, 1250877, Control_c, 0, 64, 25
1, 1250877, Control_c, 1, 64, 25
1, 1250880, Note_on_c, 0, 57, 90
1, 1250894, Note_on_c, 0, 45, 72
1, 1250895, Control_c, 0, 64, 13
1, 1250895, Control_c, 1, 64, 13
1, 1250898, Note_on_c, 0, 43, 70
1, 1250932, Note_off_c, 0, 43, 65
1, 1250934, Control_c, 0, 64, 25
1, 1250934, Control_c, 1, 64, 25
1, 1250953, Control_c, 1, 64, 48
1, 1250953, Control_c, 0, 64, 48
1, 1250972, Control_c, 0, 64, 79
1, 1250972, Control_c, 1, 64, 79
1, 1250978, Note_on_c, 0, 72, 79
1, 1250992, Control_c, 0, 64, 127
1, 1250992, Control_c, 1, 64, 127
1, 1250994, Note_on_c, 0, 60, 61
1, 1250999, Note_off_c, 0, 45, 61
1, 1251027, Note_off_c, 0, 60, 62
1, 1251054, Note_off_c, 0, 57, 61
1, 1251072, Note_on_c, 0, 71, 75
1, 1251119, Note_on_c, 0, 59, 80
1, 1251124, Note_off_c, 0, 72, 49
1, 1251168, Note_on_c, 0, 69, 79
1, 1251200, Note_off_c, 0, 59, 60
1, 1251200, Note_on_c, 0, 57, 76
1, 1251201, Note_off_c, 0, 71, 61
1, 1251253, Note_off_c, 0, 69, 61
1, 1251264, Note_off_c, 0, 57, 64
1, 1251271, Control_c, 0, 64, 72
1, 1251271, Control_c, 1, 64, 72
1, 1251290, Control_c, 1, 64, 37
1, 1251290, Control_c, 0, 64, 37
1, 1251296, Note_on_c, 0, 64, 88
1, 1251306, Note_on_c, 0, 52, 80
1, 1251307, Control_c, 0, 64, 16
1, 1251307, Control_c, 1, 64, 16
1, 1251336, Note_on_c, 0, 50, 34
1, 1251337, Note_off_c, 0, 50, 127
1, 1251344, Control_c, 0, 64, 32
1, 1251344, Control_c, 1, 64, 32
1, 1251366, Control_c, 1, 64, 60
1, 1251366, Control_c, 0, 64, 60
1, 1251374, Note_off_c, 0, 52, 62
1, 1251384, Control_c, 0, 64, 98
1, 1251384, Control_c, 1, 64, 98
1, 1251395, Note_on_c, 0, 80, 82
1, 1251403, Control_c, 0, 64, 127
1, 1251403, Control_c, 1, 64, 127
1, 1251405, Note_on_c, 0, 68, 67
1, 1251441, Note_off_c, 0, 64, 57
1, 1251469, Note_off_c, 0, 68, 53
1, 1251500, Note_on_c, 0, 78, 53
1, 1251533, Note_on_c, 0, 65, 57
1, 1251538, Note_on_c, 0, 79, 55
1, 1251542, Note_off_c, 0, 80, 58
1, 1251544, Note_on_c, 0, 66, 25
1, 1251572, Note_on_c, 0, 63, 54
1, 1251573, Note_off_c, 0, 65, 64
1, 1251577, Note_on_c, 0, 76, 67
1, 1251591, Note_off_c, 0, 66, 44
1, 1251597, Note_off_c, 0, 79, 51
1, 1251606, Note_off_c, 0, 63, 59
1, 1251609, Note_on_c, 0, 64, 63
1, 1251626, Note_off_c, 0, 78, 44
1, 1251663, Note_off_c, 0, 76, 64
1, 1251663, Poly_aftertouch_c, 0, 76, 0
1, 1251665, Poly_aftertouch_c, 0, 77, 0
1, 1251674, Note_off_c, 0, 64, 60
1, 1251683, Control_c, 0, 64, 80
1, 1251683, Control_c, 1, 64, 80
1, 1251688, Note_on_c, 0, 69, 81
1, 1251701, Note_on_c, 0, 57, 75
1, 1251703, Control_c, 0, 64, 49
1, 1251703, Control_c, 1, 64, 49
1, 1251720, Control_c, 1, 64, 37
1, 1251720, Control_c, 0, 64, 37
1, 1251739, Control_c, 0, 64, 45
1, 1251739, Control_c, 1, 64, 45
1, 1251758, Control_c, 1, 64, 67
1, 1251758, Control_c, 0, 64, 67
1, 1251776, Control_c, 0, 64, 100
1, 1251776, Control_c, 1, 64, 100
1, 1251794, Control_c, 1, 64, 127
1, 1251794, Control_c, 0, 64, 127
1, 1251796, Note_on_c, 0, 84, 86
1, 1251798, Note_off_c, 0, 57, 64
1, 1251833, Note_on_c, 0, 83, 45
1, 1251834, Note_off_c, 0, 83, 127
1, 1251834, Note_on_c, 0, 72, 47
1, 1251868, Note_off_c, 0, 72, 52
1, 1251890, Note_off_c, 0, 69, 55
1, 1251907, Note_on_c, 0, 83, 52
1, 1251931, Note_off_c, 0, 84, 60
1, 1251949, Poly_aftertouch_c, 0, 71, 127
1, 1251990, Note_on_c, 0, 81, 76
1, 1252014, Note_on_c, 0, 69, 74
1, 1252027, Note_off_c, 0, 83, 62
1, 1252032, Poly_aftertouch_c, 0, 71, 0
1, 1252093, Note_off_c, 0, 69, 60
1, 1252095, Control_c, 0, 64, 78
1, 1252095, Control_c, 1, 64, 78
1, 1252109, Note_on_c, 0, 88, 91
1, 1252113, Note_on_c, 0, 76, 88
1, 1252113, Control_c, 0, 64, 68
1, 1252113, Control_c, 1, 64, 68
1, 1252114, Note_off_c, 0, 81, 60
1, 1252133, Control_c, 0, 64, 76
1, 1252133, Control_c, 1, 64, 76
1, 1252151, Control_c, 1, 64, 100
1, 1252151, Control_c, 0, 64, 100
1, 1252171, Control_c, 0, 64, 127
1, 1252171, Control_c, 1, 64, 127
1, 1252182, Note_off_c, 0, 76, 60
1, 1252182, Poly_aftertouch_c, 0, 76, 0
1, 1252213, Note_off_c, 0, 88, 56
1, 1252215, Note_on_c, 0, 71, 81
1, 1252232, Note_on_c, 0, 83, 77
1, 1252251, Note_on_c, 0, 84, 44
1, 1252255, Note_off_c, 0, 71, 63
1, 1252289, Note_off_c, 0, 84, 38
1, 1252317, Note_on_c, 0, 76, 84
1, 1252332, Note_off_c, 0, 83, 64
1, 1252372, Note_on_c, 0, 64, 72
1, 1252384, Note_on_c, 0, 52, 76
1, 1252392, Note_off_c, 0, 76, 59
1, 1252392, Poly_aftertouch_c, 0, 76, 0
1, 1252398, Note_on_c, 0, 71, 80
1, 1252407, Note_off_c, 0, 64, 67
1, 1252416, Note_off_c, 0, 52, 67
1, 1252462, Note_off_c, 0, 71, 61
1, 1252507, Control_c, 0, 64, 67
1, 1252507, Control_c, 1, 64, 67
1, 1252525, Control_c, 1, 64, 13
1, 1252525, Control_c, 0, 64, 13
1, 1252532, Note_on_c, 0, 69, 96
1, 1252541, Note_on_c, 0, 57, 81
1, 1252544, Control_c, 0, 64, 0
1, 1252544, Control_c, 1, 64, 0
1, 1252563, Note_on_c, 0, 55, 55
1, 1252564, Note_off_c, 0, 55, 127
1, 1252581, Control_c, 0, 64, 15
1, 1252581, Control_c, 1, 64, 15
1, 1252601, Control_c, 1, 64, 58
1, 1252601, Control_c, 0, 64, 58
1, 1252619, Control_c, 0, 64, 127
1, 1252619, Control_c, 1, 64, 127
1, 1252645, Note_on_c, 0, 82, 78
1, 1252654, Note_on_c, 0, 70, 69
1, 1252682, Note_off_c, 0, 69, 58
1, 1252690, Note_off_c, 0, 70, 70
1, 1252727, Note_off_c, 0, 82, 67
1, 1252742, Note_on_c, 0, 81, 74
1, 1252749, Note_off_c, 0, 57, 55
1, 1252753, Note_on_c, 0, 69, 78
1, 1252827, Poly_aftertouch_c, 0, 83, 0
1, 1252830, Note_on_c, 0, 67, 78
1, 1252831, Note_off_c, 0, 69, 58
1, 1252836, Note_on_c, 0, 79, 80
1, 1252864, Note_off_c, 0, 67, 66
1, 1252875, Note_off_c, 0, 81, 61
1, 1252900, Note_off_c, 0, 79, 63
1, 1252939, Control_c, 0, 64, 67
1, 1252939, Control_c, 1, 64, 67
1, 1252955, Control_c, 1, 64, 18
1, 1252955, Note_on_c, 0, 62, 89
1, 1252955, Control_c, 0, 64, 18
1, 1252966, Note_on_c, 0, 50, 87
1, 1252974, Control_c, 0, 64, 0
1, 1252974, Control_c, 1, 64, 0
1, 1252993, Control_c, 1, 64, 11
1, 1252993, Control_c, 0, 64, 11
1, 1253013, Control_c, 0, 64, 44
1, 1253013, Control_c, 1, 64, 44
1, 1253014, Note_off_c, 0, 62, 63
1, 1253021, Note_off_c, 0, 50, 64
1, 1253031, Control_c, 0, 64, 93
1, 1253031, Control_c, 1, 64, 93
1, 1253049, Control_c, 1, 64, 127
1, 1253049, Note_on_c, 0, 77, 84
1, 1253049, Control_c, 0, 64, 127
1, 1253075, Note_on_c, 0, 65, 59
1, 1253105, Note_off_c, 0, 65, 60
1, 1253155, Note_on_c, 0, 76, 75
1, 1253174, Note_on_c, 0, 64, 81
1, 1253197, Note_off_c, 0, 77, 53
1, 1253243, Note_off_c, 0, 64, 60
1, 1253247, Note_on_c, 0, 74, 79
1, 1253271, Note_on_c, 0, 62, 64
1, 1253281, Note_off_c, 0, 76, 61
1, 1253281, Poly_aftertouch_c, 0, 76, 0
1, 1253316, Note_off_c, 0, 62, 63
1, 1253330, Control_c, 0, 64, 89
1, 1253330, Control_c, 1, 64, 89
1, 1253349, Control_c, 1, 64, 50
1, 1253349, Control_c, 0, 64, 50
1, 1253351, Note_on_c, 0, 55, 80
1, 1253354, Note_off_c, 0, 74, 61
1, 1253354, Poly_aftertouch_c, 0, 74, 0
1, 1253365, Note_on_c, 0, 67, 87
1, 1253367, Control_c, 0, 64, 20
1, 1253367, Control_c, 1, 64, 20
1, 1253406, Control_c, 1, 64, 40
1, 1253406, Control_c, 0, 64, 40
1, 1253424, Control_c, 0, 64, 72
1, 1253424, Control_c, 1, 64, 72
1, 1253443, Control_c, 1, 64, 127
1, 1253443, Control_c, 0, 64, 127
1, 1253471, Note_on_c, 0, 81, 85
1, 1253473, Note_off_c, 0, 67, 56
1, 1253491, Note_on_c, 0, 69, 52
1, 1253518, Note_off_c, 0, 55, 60
1, 1253519, Note_off_c, 0, 69, 56
1, 1253548, Note_on_c, 0, 67, 66
1, 1253580, Note_on_c, 0, 79, 76
1, 1253620, Note_on_c, 0, 65, 78
1, 1253622, Note_off_c, 0, 67, 62
1, 1253635, Note_off_c, 0, 81, 59
1, 1253652, Note_off_c, 0, 65, 66
1, 1253658, Note_on_c, 0, 77, 75
1, 1253697, Note_off_c, 0, 79, 61
1, 1253724, Note_off_c, 0, 77, 62
1, 1253742, Control_c, 0, 64, 75
1, 1253742, Control_c, 1, 64, 75
1, 1253757, Note_on_c, 0, 60, 85
1, 1253760, Control_c, 0, 64, 38
1, 1253760, Control_c, 1, 64, 38
1, 1253766, Note_on_c, 0, 48, 86
1, 1253780, Control_c, 0, 64, 26
1, 1253780, Control_c, 1, 64, 26
1, 1253797, Control_c, 1, 64, 36
1, 1253797, Control_c, 0, 64, 36
1, 1253816, Note_off_c, 0, 60, 62
1, 1253816, Control_c, 0, 64, 64
1, 1253816, Control_c, 1, 64, 64
1, 1253819, Note_off_c, 0, 48, 62
1, 1253819, Poly_aftertouch_c, 0, 48, 0
1, 1253836, Control_c, 0, 64, 127
1, 1253836, Control_c, 1, 64, 127
1, 1253855, Note_on_c, 0, 76, 88
1, 1253872, Note_on_c, 0, 64, 72
1, 1253905, Note_off_c, 0, 64, 65
1, 1253970, Note_on_c, 0, 62, 74
1, 1253971, Note_on_c, 0, 74, 77
1, 1254019, Note_off_c, 0, 76, 46
1, 1254019, Poly_aftertouch_c, 0, 76, 0
1, 1254043, Note_off_c, 0, 62, 61
1, 1254046, Note_on_c, 0, 72, 79
1, 1254052, Note_on_c, 0, 60, 67
1, 1254094, Note_off_c, 0, 74, 60
1, 1254094, Poly_aftertouch_c, 0, 74, 0
1, 1254131, Note_off_c, 0, 60, 64
1, 1254133, Control_c, 0, 64, 87
1, 1254133, Control_c, 1, 64, 87
1, 1254141, Note_on_c, 0, 53, 85
1, 1254144, Note_on_c, 0, 65, 80
1, 1254145, Note_off_c, 0, 72, 58
1, 1254153, Control_c, 0, 64, 51
1, 1254153, Control_c, 1, 64, 51
1, 1254173, Control_c, 1, 64, 32
1, 1254173, Control_c, 0, 64, 32
1, 1254191, Control_c, 0, 64, 37
1, 1254191, Control_c, 1, 64, 37
1, 1254210, Control_c, 1, 64, 59
1, 1254210, Control_c, 0, 64, 59
1, 1254230, Note_off_c, 0, 65, 62
1, 1254230, Control_c, 0, 64, 91
1, 1254230, Control_c, 1, 64, 91
1, 1254233, Note_on_c, 0, 76, 86
1, 1254244, Note_on_c, 0, 64, 77
1, 1254248, Control_c, 0, 64, 127
1, 1254248, Control_c, 1, 64, 127
1, 1254289, Note_off_c, 0, 64, 59
1, 1254323, Note_off_c, 0, 53, 60
1, 1254339, Note_off_c, 0, 76, 60
1, 1254339, Poly_aftertouch_c, 0, 76, 0
1, 1254362, Note_on_c, 0, 74, 60
1, 1254369, Note_on_c, 0, 62, 78
1, 1254375, Note_on_c, 0, 73, 64
1, 1254414, Note_off_c, 0, 62, 59
1, 1254427, Note_off_c, 0, 73, 44
1, 1254427, Poly_aftertouch_c, 0, 73, 0
1, 1254455, Poly_aftertouch_c, 0, 72, 0
1, 1254458, Note_on_c, 0, 59, 85
1, 1254471, Note_on_c, 0, 47, 70
1, 1254480, Note_off_c, 0, 74, 60
1, 1254480, Poly_aftertouch_c, 0, 74, 0
1, 1254491, Control_c, 0, 64, 99
1, 1254491, Control_c, 1, 64, 99
1, 1254499, Note_on_c, 0, 51, 39
1, 1254503, Note_on_c, 0, 48, 47
1, 1254510, Control_c, 0, 64, 60
1, 1254510, Control_c, 1, 64, 60
1, 1254523, Note_off_c, 0, 59, 55
1, 1254528, Control_c, 0, 64, 35
1, 1254528, Control_c, 1, 64, 35
1, 1254540, Note_off_c, 0, 51, 31
1, 1254546, Note_off_c, 0, 48, 33
1, 1254546, Poly_aftertouch_c, 0, 48, 0
1, 1254550, Note_on_c, 0, 64, 83
1, 1254558, Note_on_c, 0, 52, 76
1, 1254566, Control_c, 0, 64, 48
1, 1254566, Control_c, 1, 64, 48
1, 1254571, Note_off_c, 0, 47, 59
1, 1254584, Control_c, 0, 64, 74
1, 1254584, Control_c, 1, 64, 74
1, 1254603, Control_c, 1, 64, 127
1, 1254603, Control_c, 0, 64, 127
1, 1254633, Note_off_c, 0, 64, 57
1, 1254649, Note_on_c, 0, 74, 80
1, 1254663, Note_off_c, 0, 52, 60
1, 1254687, Note_on_c, 0, 62, 72
1, 1254716, Note_on_c, 0, 60, 31
1, 1254717, Note_off_c, 0, 62, 67
1, 1254747, Note_off_c, 0, 74, 61
1, 1254747, Poly_aftertouch_c, 0, 74, 0
1, 1254762, Note_on_c, 0, 72, 74
1, 1254798, Note_on_c, 0, 62, 43
1, 1254801, Note_off_c, 0, 60, 64
1, 1254801, Note_on_c, 0, 60, 47
1, 1254824, Note_off_c, 0, 60, 62
1, 1254829, Note_off_c, 0, 62, 57
1, 1254860, Note_off_c, 0, 72, 60
1, 1254862, Note_on_c, 0, 45, 85
1, 1254866, Note_on_c, 0, 57, 86
1, 1254903, Control_c, 0, 64, 78
1, 1254903, Control_c, 1, 64, 78
1, 1254921, Control_c, 1, 64, 40
1, 1254921, Control_c, 0, 64, 40
1, 1254940, Control_c, 0, 64, 13
1, 1254940, Control_c, 1, 64, 13
1, 1254951, Note_on_c, 0, 62, 76
1, 1254969, Note_off_c, 0, 57, 61
1, 1254970, Note_on_c, 0, 50, 80
1, 1254977, Control_c, 0, 64, 33
1, 1254977, Control_c, 1, 64, 33
1, 1254996, Control_c, 1, 64, 67
1, 1254996, Control_c, 0, 64, 67
1, 1255010, Note_off_c, 0, 45, 57
1, 1255014, Control_c, 0, 64, 127
1, 1255014, Control_c, 1, 64, 127
1, 1255034, Note_off_c, 0, 62, 61
1, 1255057, Note_on_c, 0, 71, 79
1, 1255076, Note_on_c, 0, 59, 82
1, 1255091, Note_off_c, 0, 50, 63
1, 1255128, Note_off_c, 0, 71, 64
1, 1255141, Note_off_c, 0, 59, 64
1, 1255161, Note_on_c, 0, 68, 70
1, 1255189, Note_on_c, 0, 56, 80
1, 1255250, Note_off_c, 0, 56, 57
1, 1255282, Note_on_c, 0, 52, 81
1, 1255292, Note_on_c, 0, 38, 61
1, 1255294, Control_c, 0, 64, 111
1, 1255294, Control_c, 1, 64, 111
1, 1255296, Note_on_c, 0, 40, 68
1, 1255314, Control_c, 0, 64, 62
1, 1255314, Control_c, 1, 64, 62
1, 1255333, Control_c, 1, 64, 20
1, 1255333, Control_c, 0, 64, 20
1, 1255350, Note_off_c, 0, 38, 60
1, 1255371, Note_on_c, 0, 57, 86
1, 1255373, Control_c, 0, 64, 11
1, 1255373, Control_c, 1, 64, 11
1, 1255378, Note_on_c, 0, 45, 81
1, 1255383, Note_off_c, 0, 52, 59
1, 1255389, Note_off_c, 0, 40, 61
1, 1255391, Control_c, 0, 64, 34
1, 1255391, Control_c, 1, 64, 34
1, 1255408, Control_c, 1, 64, 71
1, 1255408, Control_c, 0, 64, 71
1, 1255427, Control_c, 0, 64, 127
1, 1255427, Control_c, 1, 64, 127
1, 1255433, Note_off_c, 0, 57, 61
1, 1255474, Note_on_c, 0, 52, 79
1, 1255476, Note_off_c, 0, 45, 62
1, 1255482, Note_off_c, 0, 68, 59
1, 1255485, Note_on_c, 0, 64, 80
1, 1255504, Poly_aftertouch_c, 0, 63, 0
1, 1255526, Note_off_c, 0, 64, 63
1, 1255530, Note_off_c, 0, 52, 62
1, 1255608, Note_on_c, 0, 57, 82
1, 1255627, Note_on_c, 0, 69, 67
1, 1255634, Note_on_c, 0, 71, 66
1, 1255666, Note_off_c, 0, 57, 64
1, 1255667, Note_off_c, 0, 71, 64
1, 1255671, Note_off_c, 0, 69, 59
1, 1255728, Note_on_c, 0, 64, 82
1, 1255740, Note_on_c, 0, 76, 69
1, 1255746, Note_on_c, 0, 77, 67
1, 1255767, Note_off_c, 0, 77, 65
1, 1255770, Note_off_c, 0, 76, 69
1, 1255770, Poly_aftertouch_c, 0, 76, 0
1, 1255799, Note_off_c, 0, 64, 60
1, 1255821, Control_c, 0, 64, 91
1, 1255821, Control_c, 1, 64, 91
1, 1255839, Control_c, 1, 64, 46
1, 1255839, Control_c, 0, 64, 46
1, 1255850, Note_on_c, 0, 57, 86
1, 1255857, Control_c, 0, 64, 8
1, 1255857, Control_c, 1, 64, 8
1, 1255870, Note_on_c, 0, 81, 96
1, 1255875, Control_c, 0, 64, 13
1, 1255875, Control_c, 1, 64, 13
1, 1255895, Control_c, 1, 64, 39
1, 1255895, Control_c, 0, 64, 39
1, 1255914, Control_c, 0, 64, 85
1, 1255914, Control_c, 1, 64, 85
1, 1255931, Control_c, 1, 64, 127
1, 1255931, Control_c, 0, 64, 127
1, 1256004, Note_on_c, 0, 94, 84
1, 1256007, Note_on_c, 0, 70, 85
1, 1256059, Note_off_c, 0, 81, 54
1, 1256094, Note_off_c, 0, 70, 64
1, 1256096, Note_off_c, 0, 94, 66
1, 1256119, Note_on_c, 0, 93, 80
1, 1256122, Note_off_c, 0, 57, 55
1, 1256136, Note_on_c, 0, 69, 80
1, 1256194, Note_on_c, 0, 91, 73
1, 1256212, Note_off_c, 0, 69, 58
1, 1256214, Note_off_c, 0, 93, 63
1, 1256222, Note_on_c, 0, 67, 67
1, 1256250, Note_off_c, 0, 91, 63
1, 1256260, Note_off_c, 0, 67, 65
1, 1256270, Control_c, 0, 64, 84
1, 1256270, Control_c, 1, 64, 84
1, 1256288, Control_c, 1, 64, 47
1, 1256288, Control_c, 0, 64, 47
1, 1256307, Control_c, 0, 64, 34
1, 1256307, Control_c, 1, 64, 34
1, 1256325, Control_c, 1, 64, 46
1, 1256325, Control_c, 0, 64, 46
1, 1256343, Note_on_c, 0, 72, 73
1, 1256343, Control_c, 0, 64, 75
1, 1256343, Control_c, 1, 64, 75
1, 1256353, Note_on_c, 0, 50, 86
1, 1256363, Control_c, 0, 64, 127
1, 1256363, Control_c, 1, 64, 127
1, 1256368, Note_on_c, 0, 74, 59
1, 1256373, Note_off_c, 0, 72, 69
1, 1256392, Note_off_c, 0, 74, 62
1, 1256392, Poly_aftertouch_c, 0, 74, 0
1, 1256396, Note_off_c, 0, 50, 60
1, 1256437, Note_on_c, 0, 89, 84
1, 1256466, Note_on_c, 0, 65, 81
1, 1256526, Note_off_c, 0, 65, 60
1, 1256545, Note_on_c, 0, 88, 77
1, 1256575, Note_on_c, 0, 64, 76
1, 1256585, Note_off_c, 0, 89, 55
1, 1256609, Poly_aftertouch_c, 0, 89, 0
1, 1256634, Note_on_c, 0, 86, 85
1, 1256657, Note_on_c, 0, 62, 71
1, 1256659, Note_off_c, 0, 64, 63
1, 1256664, Note_off_c, 0, 88, 63
1, 1256680, Control_c, 0, 64, 87
1, 1256680, Control_c, 1, 64, 87
1, 1256700, Control_c, 1, 64, 47
1, 1256700, Control_c, 0, 64, 47
1, 1256718, Control_c, 0, 64, 17
1, 1256718, Control_c, 1, 64, 17
1, 1256732, Note_on_c, 0, 55, 89
1, 1256734, Note_off_c, 0, 86, 63
1, 1256736, Control_c, 0, 64, 22
1, 1256736, Control_c, 1, 64, 22
1, 1256737, Note_off_c, 0, 62, 61
1, 1256741, Note_on_c, 0, 79, 89
1, 1256755, Control_c, 0, 64, 47
1, 1256755, Control_c, 1, 64, 47
1, 1256775, Control_c, 1, 64, 97
1, 1256775, Control_c, 0, 64, 97
1, 1256793, Control_c, 0, 64, 127
1, 1256793, Control_c, 1, 64, 127
1, 1256810, Note_off_c, 0, 79, 64
1, 1256827, Note_off_c, 0, 55, 60
1, 1256842, Note_on_c, 0, 93, 88
1, 1256859, Note_on_c, 0, 69, 72
1, 1256958, Note_on_c, 0, 91, 79
1, 1256965, Note_on_c, 0, 67, 78
1, 1256969, Note_off_c, 0, 69, 58
1, 1256997, Note_off_c, 0, 93, 61
1, 1257030, Note_on_c, 0, 89, 80
1, 1257031, Note_off_c, 0, 67, 63
1, 1257032, Note_on_c, 0, 65, 73
1, 1257062, Note_off_c, 0, 91, 62
1, 1257065, Note_off_c, 0, 65, 69
1, 1257088, Note_off_c, 0, 89, 65
1, 1257111, Control_c, 0, 64, 86
1, 1257111, Control_c, 1, 64, 86
1, 1257130, Control_c, 1, 64, 50
1, 1257130, Control_c, 0, 64, 50
1, 1257148, Control_c, 0, 64, 37
1, 1257148, Control_c, 1, 64, 37
1, 1257151, Note_on_c, 0, 50, 83
1, 1257167, Control_c, 0, 64, 48
1, 1257167, Control_c, 1, 64, 48
1, 1257173, Note_on_c, 0, 72, 87
1, 1257187, Control_c, 0, 64, 75
1, 1257187, Control_c, 1, 64, 75
1, 1257205, Control_c, 1, 64, 127
1, 1257205, Control_c, 0, 64, 127
1, 1257209, Note_off_c, 0, 50, 65
1, 1257217, Note_off_c, 0, 72, 63
1, 1257269, Note_on_c, 0, 64, 78
1, 1257272, Note_on_c, 0, 88, 77
1, 1257372, Note_off_c, 0, 64, 56
1, 1257377, Note_on_c, 0, 62, 78
1, 1257379, Note_on_c, 0, 86, 72
1, 1257420, Note_off_c, 0, 88, 62
1, 1257438, Note_on_c, 0, 84, 74
1, 1257461, Note_off_c, 0, 62, 61
1, 1257465, Note_on_c, 0, 60, 75
1, 1257475, Note_off_c, 0, 86, 60
1, 1257505, Control_c, 0, 64, 99
1, 1257505, Control_c, 1, 64, 99
1, 1257521, Note_on_c, 0, 53, 81
1, 1257525, Control_c, 0, 64, 58
1, 1257525, Control_c, 1, 64, 58
1, 1257526, Note_off_c, 0, 60, 57
1, 1257537, Note_on_c, 0, 77, 88
1, 1257541, Note_off_c, 0, 84, 61
1, 1257541, Control_c, 0, 64, 34
1, 1257541, Control_c, 1, 64, 34
1, 1257561, Control_c, 1, 64, 39
1, 1257561, Control_c, 0, 64, 39
1, 1257580, Control_c, 0, 64, 62
1, 1257580, Control_c, 1, 64, 62
1, 1257598, Control_c, 1, 64, 111
1, 1257598, Control_c, 0, 64, 111
1, 1257616, Control_c, 0, 64, 127
1, 1257616, Control_c, 1, 64, 127
1, 1257622, Note_off_c, 0, 77, 56
1, 1257634, Note_on_c, 0, 88, 77
1, 1257662, Note_on_c, 0, 64, 73
1, 1257740, Note_on_c, 0, 62, 72
1, 1257740, Note_on_c, 0, 86, 79
1, 1257742, Note_off_c, 0, 53, 50
1, 1257742, Note_off_c, 0, 64, 61
1, 1257761, Note_off_c, 0, 88, 64
1, 1257783, Note_off_c, 0, 62, 60
1, 1257807, Note_off_c, 0, 86, 65
1, 1257841, Control_c, 0, 64, 102
1, 1257841, Control_c, 1, 64, 102
1, 1257860, Control_c, 1, 64, 58
1, 1257860, Control_c, 0, 64, 58
1, 1257871, Note_on_c, 0, 47, 85
1, 1257878, Control_c, 0, 64, 29
1, 1257878, Control_c, 1, 64, 29
1, 1257883, Note_on_c, 0, 71, 84
1, 1257917, Control_c, 0, 64, 54
1, 1257917, Control_c, 1, 64, 54
1, 1257935, Control_c, 1, 64, 91
1, 1257935, Control_c, 0, 64, 91
1, 1257938, Note_off_c, 0, 71, 61
1, 1257954, Control_c, 0, 64, 127
1, 1257954, Control_c, 1, 64, 127
1, 1257961, Note_off_c, 0, 47, 52
1, 1257973, Poly_aftertouch_c, 0, 72, 0
1, 1257983, Note_on_c, 0, 52, 81
1, 1257989, Note_on_c, 0, 77, 83
1, 1258003, Note_on_c, 0, 76, 54
1, 1258035, Note_off_c, 0, 77, 60
1, 1258035, Note_off_c, 0, 76, 44
1, 1258035, Poly_aftertouch_c, 0, 76, 0
1, 1258065, Note_on_c, 0, 86, 80
1, 1258082, Note_off_c, 0, 52, 61
1, 1258092, Note_on_c, 0, 62, 81
1, 1258186, Note_on_c, 0, 60, 81
1, 1258187, Note_on_c, 0, 84, 79
1, 1258194, Note_off_c, 0, 62, 62
1, 1258201, Note_off_c, 0, 86, 62
1, 1258217, Note_off_c, 0, 60, 68
1, 1258251, Note_off_c, 0, 84, 65
1, 1258272, Control_c, 0, 64, 113
1, 1258272, Control_c, 1, 64, 113
1, 1258292, Control_c, 1, 64, 58
1, 1258292, Control_c, 0, 64, 58
1, 1258309, Note_on_c, 0, 45, 74
1, 1258309, Control_c, 0, 64, 9
1, 1258309, Control_c, 1, 64, 9
1, 1258311, Note_on_c, 0, 69, 86
1, 1258328, Control_c, 0, 64, 0
1, 1258328, Control_c, 1, 64, 0
1, 1258347, Control_c, 1, 64, 17
1, 1258347, Control_c, 0, 64, 17
1, 1258365, Control_c, 0, 64, 52
1, 1258365, Control_c, 1, 64, 52
1, 1258385, Control_c, 1, 64, 111
1, 1258385, Control_c, 0, 64, 111
1, 1258387, Note_off_c, 0, 45, 55
1, 1258401, Control_c, 0, 64, 127
1, 1258401, Control_c, 1, 64, 127
1, 1258405, Note_on_c, 0, 50, 77
1, 1258411, Note_off_c, 0, 69, 57
1, 1258414, Note_on_c, 0, 74, 85
1, 1258472, Note_off_c, 0, 74, 61
1, 1258472, Poly_aftertouch_c, 0, 74, 0
1, 1258503, Note_on_c, 0, 84, 84
1, 1258523, Note_off_c, 0, 50, 61
1, 1258538, Note_on_c, 0, 60, 70
1, 1258544, Note_on_c, 0, 59, 73
1, 1258575, Note_off_c, 0, 59, 65
1, 1258598, Note_off_c, 0, 60, 60
1, 1258605, Note_off_c, 0, 84, 54
1, 1258631, Note_on_c, 0, 83, 73
1, 1258633, Note_on_c, 0, 59, 81
1, 1258656, Note_off_c, 0, 59, 73
1, 1258677, Note_on_c, 0, 81, 37
1, 1258694, Note_off_c, 0, 83, 61
1, 1258710, Note_off_c, 0, 81, 55
1, 1258734, Note_on_c, 0, 67, 82
1, 1258739, Control_c, 0, 64, 101
1, 1258739, Control_c, 1, 64, 101
1, 1258747, Note_on_c, 0, 43, 88
1, 1258759, Control_c, 0, 64, 55
1, 1258759, Control_c, 1, 64, 55
1, 1258779, Control_c, 1, 64, 15
1, 1258779, Control_c, 0, 64, 15
1, 1258814, Control_c, 0, 64, 32
1, 1258814, Control_c, 1, 64, 32
1, 1258835, Control_c, 1, 64, 68
1, 1258835, Control_c, 0, 64, 68
1, 1258840, Note_on_c, 0, 72, 80
1, 1258846, Note_off_c, 0, 67, 61
1, 1258850, Note_on_c, 0, 48, 82
1, 1258851, Note_off_c, 0, 43, 59
1, 1258854, Control_c, 0, 64, 127
1, 1258854, Control_c, 1, 64, 127
1, 1258902, Note_off_c, 0, 72, 61
1, 1258940, Note_on_c, 0, 83, 75
1, 1258960, Note_on_c, 0, 59, 79
1, 1258964, Note_off_c, 0, 48, 60
1, 1258964, Poly_aftertouch_c, 0, 48, 0
1, 1259052, Note_on_c, 0, 81, 74
1, 1259062, Note_off_c, 0, 83, 62
1, 1259063, Note_on_c, 0, 57, 86
1, 1259071, Note_off_c, 0, 59, 58
1, 1259111, Note_off_c, 0, 57, 64
1, 1259117, Note_off_c, 0, 81, 62
1, 1259159, Poly_aftertouch_c, 0, 80, 127
1, 1259175, Note_on_c, 0, 65, 89
1, 1259189, Control_c, 0, 64, 83
1, 1259189, Control_c, 1, 64, 83
1, 1259191, Poly_aftertouch_c, 0, 80, 0
1, 1259206, Control_c, 0, 64, 38
1, 1259206, Control_c, 1, 64, 38
1, 1259210, Note_on_c, 0, 41, 68
1, 1259211, Note_on_c, 0, 40, 71
1, 1259226, Control_c, 0, 64, 0
1, 1259226, Control_c, 1, 64, 0
1, 1259250, Note_off_c, 0, 40, 64
1, 1259264, Control_c, 0, 64, 17
1, 1259264, Control_c, 1, 64, 17
1, 1259283, Control_c, 1, 64, 56
1, 1259283, Control_c, 0, 64, 56
1, 1259301, Control_c, 0, 64, 124
1, 1259301, Control_c, 1, 64, 124
1, 1259307, Note_off_c, 0, 65, 53
1, 1259310, Note_on_c, 0, 71, 87
1, 1259324, Note_off_c, 0, 41, 55
1, 1259326, Note_on_c, 0, 47, 81
1, 1259413, Note_off_c, 0, 47, 63
1, 1259414, Note_off_c, 0, 71, 59
1, 1259423, Note_on_c, 0, 81, 81
1, 1259446, Poly_aftertouch_c, 0, 45, 0
1, 1259454, Note_on_c, 0, 57, 79
1, 1259516, Note_off_c, 0, 81, 63
1, 1259519, Note_off_c, 0, 57, 62
1, 1259586, Note_on_c, 0, 64, 86
1, 1259588, Note_on_c, 0, 40, 68
1, 1259606, Note_on_c, 0, 38, 59
1, 1259645, Note_on_c, 0, 75, 33
1, 1259647, Note_off_c, 0, 38, 58
1, 1259692, Note_off_c, 0, 75, 53
1, 1259720, Note_off_c, 0, 64, 56
1, 1259728, Note_on_c, 0, 71, 89
1, 1259732, Note_on_c, 0, 47, 78
1, 1259743, Note_off_c, 0, 40, 57
1, 1259750, Control_c, 0, 64, 113
1, 1259750, Control_c, 1, 64, 113
1, 1259770, Control_c, 1, 64, 59
1, 1259770, Control_c, 0, 64, 59
1, 1259789, Control_c, 0, 64, 13
1, 1259789, Control_c, 1, 64, 13
1, 1259791, Poly_aftertouch_c, 0, 48, 0
1, 1259806, Control_c, 0, 64, 8
1, 1259806, Control_c, 1, 64, 8
1, 1259819, Note_off_c, 0, 47, 63
1, 1259825, Control_c, 0, 64, 23
1, 1259825, Control_c, 1, 64, 23
1, 1259844, Control_c, 1, 64, 59
1, 1259844, Control_c, 0, 64, 59
1, 1259858, Note_on_c, 0, 79, 83
1, 1259863, Control_c, 0, 64, 127
1, 1259863, Control_c, 1, 64, 127
1, 1259864, Note_on_c, 0, 55, 78
1, 1259874, Note_off_c, 0, 71, 59
1, 1259930, Note_off_c, 0, 79, 64
1, 1259948, Note_off_c, 0, 55, 60
1, 1259989, Note_on_c, 0, 40, 84
1, 1259991, Note_on_c, 0, 64, 86
1, 1260069, Control_c, 0, 64, 94
1, 1260069, Control_c, 1, 64, 94
1, 1260087, Control_c, 1, 64, 57
1, 1260087, Control_c, 0, 64, 57
1, 1260106, Control_c, 0, 64, 40
1, 1260106, Control_c, 1, 64, 40
1, 1260113, Note_on_c, 0, 45, 82
1, 1260115, Note_off_c, 0, 64, 52
1, 1260120, Note_on_c, 0, 69, 90
1, 1260125, Note_off_c, 0, 40, 61
1, 1260125, Control_c, 0, 64, 47
1, 1260125, Control_c, 1, 64, 47
1, 1260144, Control_c, 1, 64, 70
1, 1260144, Control_c, 0, 64, 70
1, 1260162, Control_c, 0, 64, 127
1, 1260162, Control_c, 1, 64, 127
1, 1260236, Note_on_c, 0, 79, 81
1, 1260250, Note_on_c, 0, 55, 77
1, 1260252, Note_off_c, 0, 45, 53
1, 1260254, Note_off_c, 0, 69, 57
1, 1260308, Note_off_c, 0, 79, 62
1, 1260318, Note_off_c, 0, 55, 62
1, 1260370, Note_on_c, 0, 62, 82
1, 1260374, Note_on_c, 0, 38, 86
1, 1260402, Poly_aftertouch_c, 0, 77, 0
1, 1260481, Poly_aftertouch_c, 0, 73, 0
1, 1260500, Note_off_c, 0, 62, 57
1, 1260503, Note_on_c, 0, 45, 85
1, 1260509, Note_off_c, 0, 38, 53
1, 1260512, Note_on_c, 0, 69, 90
1, 1260517, Control_c, 0, 64, 90
1, 1260517, Control_c, 1, 64, 90
1, 1260537, Control_c, 1, 64, 48
1, 1260537, Control_c, 0, 64, 48
1, 1260556, Control_c, 0, 64, 24
1, 1260556, Control_c, 1, 64, 24
1, 1260574, Control_c, 1, 64, 32
1, 1260574, Control_c, 0, 64, 32
1, 1260594, Control_c, 0, 64, 59
1, 1260594, Control_c, 1, 64, 59
1, 1260595, Note_off_c, 0, 45, 61
1, 1260611, Control_c, 0, 64, 107
1, 1260611, Control_c, 1, 64, 107
1, 1260621, Note_on_c, 0, 77, 87
1, 1260627, Note_on_c, 0, 53, 77
1, 1260630, Control_c, 0, 64, 127
1, 1260630, Control_c, 1, 64, 127
1, 1260635, Note_off_c, 0, 69, 58
1, 1260709, Note_off_c, 0, 77, 63
1, 1260723, Note_off_c, 0, 53, 60
1, 1260756, Note_on_c, 0, 62, 88
1, 1260757, Note_on_c, 0, 38, 89
1, 1260883, Note_on_c, 0, 43, 88
1, 1260889, Note_on_c, 0, 67, 88
1, 1260890, Note_off_c, 0, 62, 39
1, 1260898, Note_off_c, 0, 38, 62
1, 1260968, Control_c, 0, 64, 62
1, 1260968, Control_c, 1, 64, 62
1, 1260987, Control_c, 1, 64, 17
1, 1260987, Control_c, 0, 64, 17
1, 1260988, Note_off_c, 0, 43, 62
1, 1261003, Note_on_c, 0, 77, 87
1, 1261004, Control_c, 0, 64, 8
1, 1261004, Control_c, 1, 64, 8
1, 1261017, Note_on_c, 0, 53, 78
1, 1261018, Note_off_c, 0, 67, 60
1, 1261023, Control_c, 0, 64, 28
1, 1261023, Control_c, 1, 64, 28
1, 1261043, Control_c, 1, 64, 69
1, 1261043, Control_c, 0, 64, 69
1, 1261062, Control_c, 0, 64, 127
1, 1261062, Control_c, 1, 64, 127
1, 1261073, Note_off_c, 0, 77, 62
1, 1261094, Note_off_c, 0, 53, 59
1, 1261140, Note_on_c, 0, 36, 86
1, 1261140, Note_on_c, 0, 60, 84
1, 1261254, Note_off_c, 0, 36, 49
1, 1261268, Note_off_c, 0, 60, 58
1, 1261276, Note_on_c, 0, 43, 82
1, 1261282, Note_on_c, 0, 67, 85
1, 1261342, Control_c, 0, 64, 65
1, 1261342, Control_c, 1, 64, 65
1, 1261358, Note_off_c, 0, 43, 62
1, 1261360, Control_c, 0, 64, 33
1, 1261360, Control_c, 1, 64, 33
1, 1261384, Note_on_c, 0, 76, 80
1, 1261385, Note_on_c, 0, 52, 77
1, 1261386, Note_off_c, 0, 67, 62
1, 1261398, Control_c, 0, 64, 54
1, 1261398, Control_c, 1, 64, 54
1, 1261417, Control_c, 1, 64, 90
1, 1261417, Control_c, 0, 64, 90
1, 1261436, Control_c, 0, 64, 127
1, 1261436, Control_c, 1, 64, 127
1, 1261462, Note_off_c, 0, 76, 62
1, 1261462, Poly_aftertouch_c, 0, 76, 0
1, 1261477, Note_off_c, 0, 52, 60
1, 1261508, Note_on_c, 0, 36, 89
1, 1261515, Note_on_c, 0, 60, 85
1, 1261648, Note_off_c, 0, 60, 55
1, 1261656, Note_on_c, 0, 41, 88
1, 1261659, Note_on_c, 0, 65, 91
1, 1261673, Note_off_c, 0, 36, 61
1, 1261678, Control_c, 0, 64, 102
1, 1261678, Control_c, 1, 64, 102
1, 1261698, Control_c, 1, 64, 55
1, 1261698, Control_c, 0, 64, 55
1, 1261716, Control_c, 0, 64, 21
1, 1261716, Control_c, 1, 64, 21
1, 1261754, Control_c, 1, 64, 47
1, 1261754, Control_c, 0, 64, 47
1, 1261773, Control_c, 0, 64, 98
1, 1261773, Control_c, 1, 64, 98
1, 1261778, Note_off_c, 0, 41, 62
1, 1261791, Control_c, 0, 64, 127
1, 1261791, Control_c, 1, 64, 127
1, 1261798, Note_on_c, 0, 76, 80
1, 1261805, Note_off_c, 0, 65, 57
1, 1261809, Note_on_c, 0, 52, 80
1, 1261821, Note_on_c, 0, 68, 23
1, 1261882, Note_off_c, 0, 76, 61
1, 1261882, Note_off_c, 0, 68, 42
1, 1261882, Poly_aftertouch_c, 0, 76, 0
1, 1261885, Note_off_c, 0, 52, 61
1, 1261955, Note_on_c, 0, 35, 86
1, 1261968, Note_on_c, 0, 59, 87
1, 1262072, Poly_aftertouch_c, 0, 70, 127
1, 1262118, Poly_aftertouch_c, 0, 70, 0
1, 1262120, Note_on_c, 0, 42, 87
1, 1262126, Note_off_c, 0, 35, 56
1, 1262128, Note_on_c, 0, 66, 87
1, 1262146, Control_c, 0, 64, 83
1, 1262146, Control_c, 1, 64, 83
1, 1262159, Note_off_c, 0, 59, 54
1, 1262165, Control_c, 0, 64, 43
1, 1262165, Control_c, 1, 64, 43
1, 1262185, Control_c, 1, 64, 26
1, 1262185, Control_c, 0, 64, 26
1, 1262203, Control_c, 0, 64, 32
1, 1262203, Control_c, 1, 64, 32
1, 1262222, Control_c, 1, 64, 59
1, 1262222, Control_c, 0, 64, 59
1, 1262240, Control_c, 0, 64, 127
1, 1262240, Control_c, 1, 64, 127
1, 1262288, Note_on_c, 0, 51, 83
1, 1262298, Poly_aftertouch_c, 0, 68, 127
1, 1262303, Note_on_c, 0, 75, 87
1, 1262305, Note_off_c, 0, 42, 61
1, 1262337, Poly_aftertouch_c, 0, 68, 0
1, 1262344, Note_off_c, 0, 51, 64
1, 1262468, Note_off_c, 0, 75, 63
1, 1262477, Note_on_c, 0, 28, 91
1, 1262479, Note_off_c, 0, 66, 50
1, 1262486, Note_on_c, 0, 60, 85
1, 1262580, Poly_aftertouch_c, 0, 70, 0
1, 1262612, Note_off_c, 0, 60, 54
1, 1262633, Control_c, 0, 64, 57
1, 1262633, Control_c, 1, 64, 57
1, 1262652, Control_c, 1, 64, 0
1, 1262652, Control_c, 0, 64, 0
1, 1262666, Note_on_c, 0, 40, 87
1, 1262668, Note_on_c, 0, 69, 89
1, 1262676, Note_off_c, 0, 28, 62
1, 1262708, Control_c, 0, 64, 51
1, 1262708, Control_c, 1, 64, 51
1, 1262727, Control_c, 1, 64, 127
1, 1262727, Control_c, 0, 64, 127
1, 1262730, Note_off_c, 0, 40, 63
1, 1262826, Note_on_c, 0, 76, 82
1, 1262829, Note_off_c, 0, 69, 53
1, 1262949, Note_off_c, 0, 76, 62
1, 1262949, Poly_aftertouch_c, 0, 76, 0
1, 1262972, Note_on_c, 0, 40, 67
1, 1262972, Note_on_c, 0, 64, 83
1, 1263064, Note_on_c, 0, 48, 71
1, 1263071, Note_off_c, 0, 64, 55
1, 1263075, Note_off_c, 0, 40, 59
1, 1263097, Note_on_c, 0, 72, 83
1, 1263172, Note_off_c, 0, 48, 60
1, 1263172, Poly_aftertouch_c, 0, 41, 0
1, 1263182, Note_on_c, 0, 57, 77
1, 1263192, Note_on_c, 0, 81, 84
1, 1263202, Note_off_c, 0, 72, 57
1, 1263258, Note_off_c, 0, 57, 62
1, 1263289, Note_off_c, 0, 81, 54
1, 1263313, Note_on_c, 0, 69, 80
1, 1263335, Note_on_c, 0, 45, 63
1, 1263352, Note_on_c, 0, 43, 32
1, 1263398, Note_off_c, 0, 43, 48
1, 1263426, Note_on_c, 0, 76, 83
1, 1263428, Note_on_c, 0, 52, 72
1, 1263441, Note_off_c, 0, 45, 60
1, 1263443, Note_off_c, 0, 69, 58
1, 1263520, Note_on_c, 0, 84, 88
1, 1263526, Note_off_c, 0, 52, 61
1, 1263526, Note_on_c, 0, 60, 75
1, 1263528, Note_off_c, 0, 76, 63
1, 1263528, Poly_aftertouch_c, 0, 76, 0
1, 1263606, Note_off_c, 0, 60, 57
1, 1263634, Note_on_c, 0, 72, 83
1, 1263653, Note_on_c, 0, 48, 75
1, 1263654, Note_off_c, 0, 84, 56
1, 1263747, Note_on_c, 0, 81, 81
1, 1263750, Note_off_c, 0, 72, 52
1, 1263755, Note_on_c, 0, 57, 71
1, 1263758, Note_off_c, 0, 48, 62
1, 1263838, Note_on_c, 0, 88, 85
1, 1263842, Note_on_c, 0, 64, 80
1, 1263852, Note_off_c, 0, 57, 61
1, 1263858, Note_off_c, 0, 81, 61
1, 1263859, Poly_aftertouch_c, 0, 56, 127
1, 1263879, Poly_aftertouch_c, 0, 56, 0
1, 1263929, Note_off_c, 0, 64, 60
1, 1263937, Note_off_c, 0, 88, 56
1, 1263957, Note_on_c, 0, 76, 80
1, 1263976, Note_on_c, 0, 52, 73
1, 1264068, Note_on_c, 0, 84, 80
1, 1264074, Note_off_c, 0, 76, 46
1, 1264074, Poly_aftertouch_c, 0, 76, 0
1, 1264081, Note_on_c, 0, 60, 80
1, 1264091, Poly_aftertouch_c, 0, 56, 0
1, 1264093, Note_off_c, 0, 52, 60
1, 1264150, Note_on_c, 0, 93, 91
1, 1264153, Note_off_c, 0, 84, 56
1, 1264180, Note_on_c, 0, 69, 82
1, 1264181, Note_off_c, 0, 60, 60
1, 1264222, Note_off_c, 0, 93, 63
1, 1264266, Note_off_c, 0, 69, 57
1, 1264273, Note_on_c, 0, 81, 82
1, 1264308, Note_on_c, 0, 63, 57
1, 1264315, Note_on_c, 0, 57, 76
1, 1264350, Note_off_c, 0, 63, 47
1, 1264385, Note_on_c, 0, 88, 82
1, 1264406, Note_off_c, 0, 81, 61
1, 1264410, Note_on_c, 0, 64, 76
1, 1264421, Note_off_c, 0, 57, 61
1, 1264461, Note_off_c, 0, 88, 60
1, 1264468, Note_on_c, 0, 96, 94
1, 1264470, Poly_aftertouch_c, 0, 63, 127
1, 1264500, Note_off_c, 0, 64, 62
1, 1264501, Note_on_c, 0, 72, 80
1, 1264521, Poly_aftertouch_c, 0, 63, 0
1, 1264540, Note_off_c, 0, 96, 64
1, 1264587, Note_on_c, 0, 84, 81
1, 1264591, Note_off_c, 0, 72, 52
1, 1264617, Note_on_c, 0, 86, 33
1, 1264627, Note_on_c, 0, 60, 73
1, 1264664, Note_on_c, 0, 69, 21
1, 1264711, Note_on_c, 0, 93, 84
1, 1264733, Note_off_c, 0, 60, 59
1, 1264734, Note_off_c, 0, 84, 62
1, 1264753, Note_off_c, 0, 86, 45
1, 1264754, Poly_aftertouch_c, 0, 86, 0
1, 1264799, Note_on_c, 0, 100, 102
1, 1264800, Note_on_c, 0, 76, 97
1, 1264813, Note_off_c, 0, 93, 66
1, 1264816, Note_off_c, 0, 69, 62
1, 1264841, Note_off_c, 0, 100, 65
1, 1264845, Note_off_c, 0, 76, 65
1, 1264845, Poly_aftertouch_c, 0, 76, 0
1, 1265730, Note_on_c, 0, 68, 81
1, 1265764, Note_on_c, 0, 52, 77
1, 1265834, Control_c, 0, 64, 98
1, 1265834, Control_c, 1, 64, 98
1, 1265853, Control_c, 1, 64, 61
1, 1265853, Control_c, 0, 64, 61
1, 1265872, Control_c, 0, 64, 26
1, 1265872, Control_c, 1, 64, 26
1, 1265890, Control_c, 1, 64, 0
1, 1265890, Control_c, 0, 64, 0
1, 1265911, Note_on_c, 0, 56, 76
1, 1265923, Note_on_c, 0, 71, 70
1, 1265943, Note_on_c, 0, 59, 77
1, 1265979, Note_on_c, 0, 74, 74
1, 1265997, Note_on_c, 0, 76, 80
1, 1266010, Note_off_c, 0, 68, 58
1, 1266020, Note_on_c, 0, 64, 91
1, 1266021, Note_on_c, 0, 80, 93
1, 1266026, Note_on_c, 0, 62, 89
1, 1266039, Control_c, 0, 64, 33
1, 1266039, Control_c, 1, 64, 33
1, 1266048, Note_off_c, 0, 71, 62
1, 1266059, Control_c, 0, 64, 127
1, 1266059, Control_c, 1, 64, 127
1, 1266070, Note_off_c, 0, 76, 64
1, 1266070, Note_off_c, 0, 74, 62
1, 1266070, Poly_aftertouch_c, 0, 74, 0
1, 1266070, Poly_aftertouch_c, 0, 76, 0
1, 1266075, Note_on_c, 0, 81, 62
1, 1266080, Note_off_c, 0, 52, 61
1, 1266081, Note_off_c, 0, 62, 66
1, 1266086, Note_off_c, 0, 59, 62
1, 1266087, Note_off_c, 0, 64, 59
1, 1266097, Note_off_c, 0, 81, 62
1, 1266102, Note_off_c, 0, 80, 66
1, 1266122, Note_off_c, 0, 56, 59
1, 1266499, Note_on_c, 0, 69, 80
1, 1266578, Note_off_c, 0, 69, 60
1, 1266582, Note_on_c, 0, 72, 62
1, 1266603, Note_on_c, 0, 81, 84
1, 1266613, Note_off_c, 0, 72, 65
1, 1266658, Note_off_c, 0, 81, 62
1, 1266694, Control_c, 0, 64, 68
1, 1266694, Control_c, 1, 64, 68
1, 1266703, Note_on_c, 0, 81, 88
1, 1266714, Control_c, 0, 64, 0
1, 1266714, Control_c, 1, 64, 0
1, 1266770, Control_c, 1, 64, 12
1, 1266770, Control_c, 0, 64, 12
1, 1266786, Note_on_c, 0, 45, 100
1, 1266788, Control_c, 0, 64, 71
1, 1266788, Control_c, 1, 64, 71
1, 1266791, Note_on_c, 0, 33, 85
1, 1266792, Note_on_c, 0, 93, 100
1, 1266803, Note_on_c, 0, 88, 89
1, 1266804, Note_on_c, 0, 84, 93
1, 1266808, Control_c, 0, 64, 127
1, 1266808, Control_c, 1, 64, 127
1, 1266813, Note_off_c, 0, 81, 68
1, 1266821, Note_off_c, 0, 33, 65
1, 1266828, Note_off_c, 0, 84, 69
1, 1266829, Note_off_c, 0, 88, 67
1, 1266839, Note_off_c, 0, 45, 66
1, 1266856, Note_off_c, 0, 93, 66
1, 1267004, Note_on_c, 0, 72, 80
1, 1267004, Note_on_c, 0, 74, 83
1, 1267005, Note_on_c, 0, 60, 80
1, 1267015, Note_on_c, 0, 62, 71
1, 1267016, Poly_aftertouch_c, 0, 33, 0
1, 1267030, Note_off_c, 0, 72, 64
1, 1267030, Note_off_c, 0, 74, 73
1, 1267030, Poly_aftertouch_c, 0, 74, 0
1, 1267045, Note_off_c, 0, 60, 63
1, 1267045, Note_off_c, 0, 62, 67
1, 1267118, Note_on_c, 0, 87, 86
1, 1267118, Note_on_c, 0, 75, 91
1, 1267171, Note_off_c, 0, 75, 67
1, 1267187, Note_off_c, 0, 87, 63
1, 1267201, Control_c, 0, 64, 88
1, 1267201, Control_c, 1, 64, 88
1, 1267220, Control_c, 1, 64, 36
1, 1267220, Control_c, 0, 64, 36
1, 1267236, Note_on_c, 0, 52, 91
1, 1267239, Note_on_c, 0, 40, 88
1, 1267239, Control_c, 0, 64, 0
1, 1267239, Control_c, 1, 64, 0
1, 1267244, Note_on_c, 0, 76, 96
1, 1267245, Note_on_c, 0, 83, 86
1, 1267250, Note_on_c, 0, 88, 90
1, 1267250, Note_on_c, 0, 80, 76
1, 1267258, Control_c, 0, 64, 15
1, 1267258, Control_c, 1, 64, 15
1, 1267265, Note_off_c, 0, 52, 68
1, 1267270, Note_off_c, 0, 40, 67
1, 1267277, Control_c, 0, 64, 56
1, 1267277, Control_c, 1, 64, 56
1, 1267280, Note_off_c, 0, 80, 55
1, 1267294, Control_c, 0, 64, 127
1, 1267294, Control_c, 1, 64, 127
1, 1267326, Note_off_c, 0, 88, 65
1, 1267329, Note_off_c, 0, 76, 60
1, 1267329, Poly_aftertouch_c, 0, 76, 0
1, 1267330, Note_off_c, 0, 83, 61
1, 1267388, Poly_aftertouch_c, 0, 79, 0
1, 1267390, Note_on_c, 0, 54, 92
1, 1267396, Note_on_c, 0, 66, 95
1, 1267420, Note_off_c, 0, 66, 75
1, 1267451, Note_off_c, 0, 54, 60
1, 1267455, Poly_aftertouch_c, 0, 40, 0
1, 1267511, Note_on_c, 0, 68, 91
1, 1267516, Note_on_c, 0, 80, 81
1, 1267535, Note_on_c, 0, 78, 53
1, 1267561, Note_off_c, 0, 78, 63
1, 1267565, Note_off_c, 0, 68, 64
1, 1267582, Note_off_c, 0, 80, 62
1, 1267594, Control_c, 0, 64, 83
1, 1267594, Control_c, 1, 64, 83
1, 1267612, Control_c, 1, 64, 32
1, 1267612, Control_c, 0, 64, 32
1, 1267627, Note_on_c, 0, 45, 93
1, 1267630, Control_c, 0, 64, 0
1, 1267630, Control_c, 1, 64, 0
1, 1267640, Note_on_c, 0, 69, 93
1, 1267640, Note_on_c, 0, 33, 88
1, 1267642, Note_on_c, 0, 81, 89
1, 1267643, Note_on_c, 0, 76, 80
1, 1267649, Note_on_c, 0, 72, 77
1, 1267669, Control_c, 0, 64, 41
1, 1267669, Control_c, 1, 64, 41
1, 1267670, Note_off_c, 0, 33, 65
1, 1267676, Note_off_c, 0, 45, 62
1, 1267688, Control_c, 0, 64, 104
1, 1267688, Control_c, 1, 64, 104
1, 1267691, Note_on_c, 0, 34, 23
1, 1267692, Note_off_c, 0, 34, 127
1, 1267706, Control_c, 0, 64, 127
1, 1267706, Control_c, 1, 64, 127
1, 1267721, Note_off_c, 0, 81, 63
1, 1267730, Note_off_c, 0, 72, 37
1, 1267734, Note_off_c, 0, 69, 61
1, 1267734, Poly_aftertouch_c, 0, 78, 127
1, 1267735, Note_off_c, 0, 76, 62
1, 1267735, Poly_aftertouch_c, 0, 76, 0
1, 1267747, Poly_aftertouch_c, 0, 34, 0
1, 1267776, Poly_aftertouch_c, 0, 78, 0
1, 1267800, Note_on_c, 0, 64, 81
1, 1267800, Note_on_c, 0, 52, 87
1, 1267819, Note_on_c, 0, 62, 57
1, 1267824, Note_off_c, 0, 64, 68
1, 1267828, Note_off_c, 0, 52, 68
1, 1267846, Note_off_c, 0, 62, 60
1, 1267865, Poly_aftertouch_c, 0, 33, 0
1, 1267911, Note_on_c, 0, 72, 85
1, 1267913, Note_on_c, 0, 60, 86
1, 1267950, Note_off_c, 0, 60, 61
1, 1267966, Note_off_c, 0, 72, 55
1, 1268006, Control_c, 0, 64, 59
1, 1268006, Control_c, 1, 64, 59
1, 1268025, Control_c, 1, 64, 0
1, 1268025, Control_c, 0, 64, 0
1, 1268039, Note_on_c, 0, 71, 85
1, 1268045, Note_on_c, 0, 59, 95
1, 1268049, Note_on_c, 0, 40, 94
1, 1268052, Note_on_c, 0, 28, 90
1, 1268052, Note_on_c, 0, 68, 84
1, 1268057, Note_on_c, 0, 64, 74
1, 1268061, Control_c, 0, 64, 15
1, 1268061, Control_c, 1, 64, 15
1, 1268080, Note_off_c, 0, 28, 67
1, 1268081, Control_c, 0, 64, 56
1, 1268081, Control_c, 1, 64, 56
1, 1268086, Note_off_c, 0, 59, 61
1, 1268091, Note_off_c, 0, 64, 62
1, 1268095, Note_off_c, 0, 40, 64
1, 1268099, Control_c, 0, 64, 127
1, 1268099, Control_c, 1, 64, 127
1, 1268151, Note_off_c, 0, 71, 64
1, 1268171, Note_off_c, 0, 68, 62
1, 1268192, Poly_aftertouch_c, 0, 60, 127
1, 1268195, Poly_aftertouch_c, 0, 60, 0
1, 1268208, Note_on_c, 0, 52, 90
1, 1268240, Note_off_c, 0, 52, 69
1, 1268278, Poly_aftertouch_c, 0, 28, 0
1, 1268313, Note_on_c, 0, 80, 90
1, 1268313, Note_on_c, 0, 68, 87
1, 1268366, Note_off_c, 0, 68, 62
1, 1268378, Note_off_c, 0, 80, 63
1, 1268398, Control_c, 0, 64, 106
1, 1268398, Control_c, 1, 64, 106
1, 1268418, Control_c, 1, 64, 48
1, 1268418, Control_c, 0, 64, 48
1, 1268434, Poly_aftertouch_c, 0, 81, 0
1, 1268436, Control_c, 0, 64, 0
1, 1268436, Control_c, 1, 64, 0
1, 1268447, Note_on_c, 0, 45, 97
1, 1268449, Note_on_c, 0, 33, 93
1, 1268458, Note_on_c, 0, 69, 97
1, 1268474, Control_c, 0, 64, 20
1, 1268474, Control_c, 1, 64, 20
1, 1268479, Note_off_c, 0, 33, 69
1, 1268481, Note_on_c, 0, 73, 57
1, 1268485, Note_off_c, 0, 45, 63
1, 1268493, Control_c, 0, 64, 69
1, 1268493, Control_c, 1, 64, 69
1, 1268495, Note_off_c, 0, 69, 60
1, 1268502, Poly_aftertouch_c, 0, 81, 127
1, 1268505, Note_on_c, 0, 72, 40
1, 1268506, Note_off_c, 0, 72, 127
1, 1268510, Note_off_c, 0, 73, 42
1, 1268511, Control_c, 0, 64, 127
1, 1268511, Control_c, 1, 64, 127
1, 1268523, Poly_aftertouch_c, 0, 81, 0
1, 1268541, Poly_aftertouch_c, 0, 72, 0
1, 1268610, Note_on_c, 0, 48, 95
1, 1268611, Note_on_c, 0, 60, 96
1, 1268644, Note_off_c, 0, 60, 63
1, 1268663, Note_off_c, 0, 48, 65
1, 1268721, Poly_aftertouch_c, 0, 59, 0
1, 1268731, Note_on_c, 0, 75, 88
1, 1268732, Note_on_c, 0, 63, 89
1, 1268754, Note_on_c, 0, 73, 59
1, 1268782, Note_off_c, 0, 73, 62
1, 1268785, Note_off_c, 0, 63, 62
1, 1268797, Note_off_c, 0, 75, 64
1, 1268811, Control_c, 0, 64, 87
1, 1268811, Control_c, 1, 64, 87
1, 1268830, Control_c, 1, 64, 28
1, 1268830, Control_c, 0, 64, 28
1, 1268848, Control_c, 0, 64, 0
1, 1268848, Control_c, 1, 64, 0
1, 1268852, Note_on_c, 0, 40, 80
1, 1268853, Note_on_c, 0, 64, 94
1, 1268854, Note_on_c, 0, 76, 91
1, 1268855, Note_off_c, 0, 76, 127
1, 1268855, Note_on_c, 0, 41, 85
1, 1268855, Poly_aftertouch_c, 0, 76, 0
1, 1268857, Note_on_c, 0, 28, 79
1, 1268858, Note_on_c, 0, 71, 80
1, 1268859, Note_off_c, 0, 71, 127
1, 1268866, Note_on_c, 0, 68, 74
1, 1268872, Note_on_c, 0, 29, 63
1, 1268885, Note_off_c, 0, 41, 67
1, 1268886, Control_c, 0, 64, 21
1, 1268886, Control_c, 1, 64, 21
1, 1268889, Note_off_c, 0, 28, 58
1, 1268890, Note_off_c, 0, 40, 66
1, 1268904, Control_c, 0, 64, 74
1, 1268904, Control_c, 1, 64, 74
1, 1268910, Note_off_c, 0, 29, 59
1, 1268918, Poly_aftertouch_c, 0, 71, 127
1, 1268919, Poly_aftertouch_c, 0, 76, 127
1, 1268924, Control_c, 0, 64, 127
1, 1268924, Control_c, 1, 64, 127
1, 1268937, Poly_aftertouch_c, 0, 76, 0
1, 1268942, Poly_aftertouch_c, 0, 71, 0
1, 1268948, Note_off_c, 0, 64, 59
1, 1268954, Note_off_c, 0, 68, 63
1, 1269002, Note_on_c, 0, 54, 93
1, 1269025, Note_on_c, 0, 55, 73
1, 1269043, Note_off_c, 0, 54, 62
1, 1269051, Note_off_c, 0, 55, 65
1, 1269122, Note_on_c, 0, 68, 87
1, 1269124, Note_on_c, 0, 56, 89
1, 1269170, Note_on_c, 0, 66, 39
1, 1269182, Note_off_c, 0, 56, 63
1, 1269192, Note_off_c, 0, 68, 61
1, 1269211, Note_off_c, 0, 66, 50
1, 1269223, Control_c, 0, 64, 64
1, 1269223, Control_c, 1, 64, 64
1, 1269240, Control_c, 1, 64, 0
1, 1269240, Control_c, 0, 64, 0
1, 1269259, Note_on_c, 0, 45, 97
1, 1269261, Note_on_c, 0, 57, 94
1, 1269262, Note_on_c, 0, 69, 90
1, 1269263, Note_on_c, 0, 33, 89
1, 1269264, Note_on_c, 0, 64, 80
1, 1269272, Note_on_c, 0, 60, 80
1, 1269273, Note_off_c, 0, 60, 127
1, 1269293, Note_on_c, 0, 35, 69
1, 1269301, Control_c, 0, 64, 46
1, 1269301, Control_c, 1, 64, 46
1, 1269307, Note_off_c, 0, 33, 66
1, 1269312, Note_off_c, 0, 45, 66
1, 1269320, Control_c, 0, 64, 127
1, 1269320, Control_c, 1, 64, 127
1, 1269329, Note_off_c, 0, 35, 63
1, 1269333, Poly_aftertouch_c, 0, 60, 127
1, 1269361, Note_off_c, 0, 57, 62
1, 1269363, Note_off_c, 0, 69, 61
1, 1269368, Note_off_c, 0, 64, 61
1, 1269368, Poly_aftertouch_c, 0, 60, 0
1, 1269415, Note_on_c, 0, 52, 98
1, 1269461, Note_off_c, 0, 52, 65
1, 1269548, Note_on_c, 0, 60, 95
1, 1269549, Note_on_c, 0, 48, 98
1, 1269604, Note_off_c, 0, 60, 61
1, 1269607, Note_off_c, 0, 48, 64
1, 1269708, Control_c, 0, 64, 65
1, 1269708, Control_c, 1, 64, 65
1, 1269715, Note_on_c, 0, 59, 89
1, 1269722, Note_on_c, 0, 28, 93
1, 1269723, Note_on_c, 0, 47, 94
1, 1269729, Note_on_c, 0, 56, 84
1, 1269734, Note_on_c, 0, 52, 74
1, 1269746, Control_c, 0, 64, 0
1, 1269746, Control_c, 1, 64, 0
1, 1269765, Note_off_c, 0, 52, 67
1, 1269784, Control_c, 0, 64, 27
1, 1269784, Control_c, 1, 64, 27
1, 1269787, Note_off_c, 0, 47, 63
1, 1269802, Control_c, 0, 64, 76
1, 1269802, Control_c, 1, 64, 76
1, 1269821, Control_c, 1, 64, 127
1, 1269821, Control_c, 0, 64, 127
1, 1269839, Note_off_c, 0, 59, 62
1, 1269854, Note_off_c, 0, 56, 63
1, 1269899, Note_on_c, 0, 40, 94
1, 1270016, Note_off_c, 0, 28, 62
1, 1270046, Note_off_c, 0, 40, 60
1, 1270069, Note_on_c, 0, 92, 99
1, 1270071, Note_on_c, 0, 80, 95
1, 1270077, Note_on_c, 0, 78, 90
1, 1270079, Note_on_c, 0, 90, 86
1, 1270093, Note_off_c, 0, 78, 64
1, 1270094, Note_off_c, 0, 90, 64
1, 1270129, Note_off_c, 0, 92, 65
1, 1270132, Note_off_c, 0, 80, 61
1, 1270187, Note_on_c, 0, 91, 33
1, 1270208, Poly_aftertouch_c, 0, 79, 0
1, 1270228, Note_off_c, 0, 91, 34
1, 1270228, Poly_aftertouch_c, 0, 80, 0
1, 1270264, Poly_aftertouch_c, 0, 90, 0
1, 1270290, Control_c, 0, 64, 58
1, 1270290, Control_c, 1, 64, 58
1, 1270308, Control_c, 1, 64, 0
1, 1270308, Control_c, 0, 64, 0
1, 1270322, Note_on_c, 0, 45, 102
1, 1270330, Note_on_c, 0, 33, 101
1, 1270363, Note_off_c, 0, 33, 69
1, 1270364, Control_c, 0, 64, 50
1, 1270364, Control_c, 1, 64, 50
1, 1270367, Note_off_c, 0, 45, 67
1, 1270382, Control_c, 0, 64, 127
1, 1270382, Control_c, 1, 64, 127
1, 1270400, Note_on_c, 0, 88, 94
1, 1270402, Note_on_c, 0, 93, 103
1, 1270402, Note_on_c, 0, 85, 90
1, 1270405, Note_on_c, 0, 81, 102
1, 1270522, Poly_aftertouch_c, 0, 91, 0
1, 1270576, Note_off_c, 0, 93, 62
1, 1270595, Note_on_c, 0, 76, 91
1, 1270596, Note_off_c, 0, 81, 62
1, 1270599, Note_on_c, 0, 64, 80
1, 1270604, Note_off_c, 0, 88, 63
1, 1270609, Note_on_c, 0, 62, 74
1, 1270624, Note_off_c, 0, 76, 64
1, 1270629, Note_off_c, 0, 85, 66
1, 1270633, Note_off_c, 0, 62, 65
1, 1270642, Note_on_c, 0, 74, 30
1, 1270642, Poly_aftertouch_c, 0, 74, 0
1, 1270643, Note_off_c, 0, 74, 127
1, 1270655, Note_off_c, 0, 64, 62
1, 1270689, Poly_aftertouch_c, 0, 74, 0
1, 1270731, Note_on_c, 0, 73, 98
1, 1270731, Note_on_c, 0, 85, 101
1, 1270783, Note_off_c, 0, 73, 64
1, 1270787, Note_off_c, 0, 85, 65
1, 1270833, Control_c, 0, 64, 104
1, 1270833, Control_c, 1, 64, 104
1, 1270849, Control_c, 1, 64, 47
1, 1270849, Poly_aftertouch_c, 0, 80, 127
1, 1270849, Control_c, 0, 64, 47
1, 1270860, Poly_aftertouch_c, 0, 80, 0
1, 1270868, Note_on_c, 0, 50, 94
1, 1270868, Note_on_c, 0, 38, 92
1, 1270868, Control_c, 0, 64, 0
1, 1270868, Control_c, 1, 64, 0
1, 1270873, Note_on_c, 0, 81, 95
1, 1270880, Note_on_c, 0, 69, 97
1, 1270887, Control_c, 0, 64, 9
1, 1270887, Control_c, 1, 64, 9
1, 1270894, Note_on_c, 0, 74, 74
1, 1270900, Note_off_c, 0, 38, 69
1, 1270906, Control_c, 0, 64, 45
1, 1270906, Control_c, 1, 64, 45
1, 1270911, Note_off_c, 0, 50, 62
1, 1270915, Note_on_c, 0, 77, 44
1, 1270921, Note_off_c, 0, 74, 69
1, 1270924, Control_c, 0, 64, 101
1, 1270924, Control_c, 1, 64, 101
1, 1270935, Note_off_c, 0, 69, 60
1, 1270943, Control_c, 0, 64, 127
1, 1270943, Control_c, 1, 64, 127
1, 1270949, Note_off_c, 0, 77, 40
1, 1270969, Note_off_c, 0, 81, 59
1, 1271031, Note_on_c, 0, 65, 99
1, 1271038, Note_on_c, 0, 53, 82
1, 1271060, Note_off_c, 0, 65, 69
1, 1271060, Note_on_c, 0, 55, 65
1, 1271089, Note_off_c, 0, 53, 60
1, 1271089, Note_off_c, 0, 55, 62
1, 1271139, Poly_aftertouch_c, 0, 54, 0
1, 1271140, Note_on_c, 0, 62, 94
1, 1271142, Note_on_c, 0, 74, 89
1, 1271169, Note_on_c, 0, 72, 52
1, 1271170, Note_off_c, 0, 72, 127
1, 1271186, Note_off_c, 0, 62, 62
1, 1271187, Note_off_c, 0, 74, 62
1, 1271244, Control_c, 0, 64, 62
1, 1271244, Control_c, 1, 64, 62
1, 1271263, Control_c, 1, 64, 18
1, 1271263, Control_c, 0, 64, 18
1, 1271275, Note_on_c, 0, 43, 91
1, 1271276, Note_on_c, 0, 31, 89
1, 1271279, Note_on_c, 0, 71, 93
1, 1271286, Note_on_c, 0, 59, 91
1, 1271300, Note_on_c, 0, 67, 72
1, 1271300, Note_on_c, 0, 62, 79
1, 1271300, Control_c, 0, 64, 50
1, 1271300, Control_c, 1, 64, 50
1, 1271314, Note_off_c, 0, 31, 70
1, 1271319, Control_c, 0, 64, 99
1, 1271319, Control_c, 1, 64, 99
1, 1271328, Note_off_c, 0, 43, 60
1, 1271332, Note_off_c, 0, 62, 68
1, 1271338, Control_c, 0, 64, 127
1, 1271338, Control_c, 1, 64, 127
1, 1271385, Note_off_c, 0, 71, 62
1, 1271394, Note_off_c, 0, 59, 60
1, 1271417, Note_on_c, 0, 55, 96
1, 1271432, Note_off_c, 0, 67, 23
1, 1271459, Note_off_c, 0, 55, 63
1, 1271525, Note_on_c, 0, 65, 90
1, 1271528, Note_on_c, 0, 53, 94
1, 1271579, Note_off_c, 0, 65, 63
1, 1271582, Note_off_c, 0, 53, 63
1, 1271637, Control_c, 0, 64, 63
1, 1271637, Control_c, 1, 64, 63
1, 1271646, Poly_aftertouch_c, 0, 63, 0
1, 1271654, Control_c, 0, 64, 22
1, 1271654, Control_c, 1, 64, 22
1, 1271659, Note_on_c, 0, 36, 91
1, 1271660, Note_on_c, 0, 24, 91
1, 1271666, Note_on_c, 0, 64, 86
1, 1271674, Note_on_c, 0, 52, 83
1, 1271689, Note_off_c, 0, 24, 64
1, 1271691, Control_c, 0, 64, 43
1, 1271691, Control_c, 1, 64, 43
1, 1271693, Note_on_c, 0, 55, 70
1, 1271696, Note_on_c, 0, 57, 53
1, 1271701, Note_on_c, 0, 53, 57
1, 1271702, Note_off_c, 0, 53, 127
1, 1271710, Note_on_c, 0, 60, 55
1, 1271711, Note_on_c, 0, 26, 41
1, 1271711, Control_c, 0, 64, 85
1, 1271711, Control_c, 1, 64, 85
1, 1271714, Note_off_c, 0, 36, 62
1, 1271730, Note_off_c, 0, 55, 59
1, 1271731, Note_off_c, 0, 57, 58
1, 1271732, Control_c, 0, 64, 127
1, 1271732, Control_c, 1, 64, 127
1, 1271744, Note_on_c, 0, 62, 19
1, 1271754, Poly_aftertouch_c, 0, 53, 0
1, 1271764, Note_off_c, 0, 26, 29
1, 1271779, Note_off_c, 0, 52, 59
1, 1271780, Note_off_c, 0, 60, 60
1, 1271787, Note_off_c, 0, 64, 62
1, 1271798, Note_off_c, 0, 62, 52
1, 1271815, Note_on_c, 0, 48, 98
1, 1271856, Note_off_c, 0, 48, 63
1, 1271864, Poly_aftertouch_c, 0, 24, 0
1, 1271935, Note_on_c, 0, 59, 85
1, 1271936, Note_on_c, 0, 47, 86
1, 1271970, Note_on_c, 0, 57, 52
1, 1271971, Note_off_c, 0, 57, 127
1, 1271977, Note_off_c, 0, 47, 61
1, 1271994, Note_off_c, 0, 59, 60
1, 1272048, Control_c, 0, 64, 95
1, 1272048, Control_c, 1, 64, 95
1, 1272069, Control_c, 1, 64, 42
1, 1272069, Control_c, 0, 64, 42
1, 1272070, Note_on_c, 0, 41, 94
1, 1272077, Note_on_c, 0, 29, 89
1, 1272086, Control_c, 0, 64, 0
1, 1272086, Control_c, 1, 64, 0
1, 1272123, Control_c, 1, 64, 14
1, 1272123, Control_c, 0, 64, 14
1, 1272142, Control_c, 0, 64, 51
1, 1272142, Control_c, 1, 64, 51
1, 1272161, Control_c, 1, 64, 101
1, 1272161, Control_c, 0, 64, 101
1, 1272178, Control_c, 0, 64, 127
1, 1272178, Control_c, 1, 64, 127
1, 1272203, Note_on_c, 0, 55, 74
1, 1272213, Note_on_c, 0, 43, 61
1, 1272217, Note_on_c, 0, 45, 63
1, 1272219, Note_on_c, 0, 57, 71
1, 1272220, Poly_aftertouch_c, 0, 31, 0
1, 1272225, Note_off_c, 0, 41, 59
1, 1272228, Note_on_c, 0, 52, 50
1, 1272244, Note_off_c, 0, 29, 60
1, 1272246, Note_off_c, 0, 43, 57
1, 1272252, Note_off_c, 0, 57, 44
1, 1272255, Note_off_c, 0, 45, 62
1, 1272265, Note_off_c, 0, 52, 53
1, 1272272, Note_off_c, 0, 55, 63
1, 1272330, Note_on_c, 0, 38, 90
1, 1272335, Note_on_c, 0, 26, 91
1, 1272369, Note_off_c, 0, 26, 63
1, 1272390, Note_off_c, 0, 38, 60
1, 1272391, Note_on_c, 0, 59, 86
1, 1272398, Note_on_c, 0, 69, 74
1, 1272398, Note_on_c, 0, 71, 85
1, 1272460, Control_c, 0, 64, 75
1, 1272460, Control_c, 1, 64, 75
1, 1272473, Poly_aftertouch_c, 0, 28, 0
1, 1272479, Control_c, 0, 64, 16
1, 1272479, Control_c, 1, 64, 16
1, 1272498, Control_c, 1, 64, 0
1, 1272498, Control_c, 0, 64, 0
1, 1272517, Note_on_c, 0, 55, 99
1, 1272528, Note_on_c, 0, 43, 58
1, 1272535, Control_c, 0, 64, 21
1, 1272535, Control_c, 1, 64, 21
1, 1272554, Control_c, 1, 64, 71
1, 1272554, Control_c, 0, 64, 71
1, 1272561, Note_off_c, 0, 71, 58
1, 1272565, Note_off_c, 0, 59, 62
1, 1272570, Note_off_c, 0, 69, 59
1, 1272573, Control_c, 0, 64, 127
1, 1272573, Control_c, 1, 64, 127
1, 1272666, Note_on_c, 0, 71, 91
1, 1272667, Note_on_c, 0, 59, 93
1, 1272681, Note_on_c, 0, 67, 75
1, 1272682, Note_off_c, 0, 55, 60
1, 1272682, Poly_aftertouch_c, 0, 46, 0
1, 1272700, Note_off_c, 0, 59, 57
1, 1272707, Note_off_c, 0, 43, 60
1, 1272713, Note_off_c, 0, 67, 68
1, 1272734, Note_off_c, 0, 71, 65
1, 1272796, Note_on_c, 0, 52, 96
1, 1272797, Control_c, 0, 64, 83
1, 1272797, Control_c, 1, 64, 83
1, 1272801, Note_on_c, 0, 40, 93
1, 1272816, Control_c, 0, 64, 35
1, 1272816, Control_c, 1, 64, 35
1, 1272844, Note_on_c, 0, 42, 37
1, 1272851, Note_on_c, 0, 83, 81
1, 1272851, Control_c, 0, 64, 17
1, 1272851, Control_c, 1, 64, 17
1, 1272857, Note_on_c, 0, 84, 88
1, 1272858, Note_on_c, 0, 72, 91
1, 1272859, Note_off_c, 0, 52, 61
1, 1272864, Note_off_c, 0, 40, 65
1, 1272870, Control_c, 0, 64, 54
1, 1272870, Control_c, 1, 64, 54
1, 1272881, Note_on_c, 0, 81, 70
1, 1272889, Control_c, 0, 64, 127
1, 1272889, Control_c, 1, 64, 127
1, 1272900, Note_off_c, 0, 42, 37
1, 1272959, Note_off_c, 0, 81, 64
1, 1272959, Note_on_c, 0, 81, 36
1, 1273009, Note_on_c, 0, 69, 98
1, 1273012, Note_on_c, 0, 57, 92
1, 1273036, Note_off_c, 0, 72, 59
1, 1273041, Note_off_c, 0, 83, 59
1, 1273041, Note_off_c, 0, 81, 59
1, 1273042, Note_off_c, 0, 84, 60
1, 1273108, Note_off_c, 0, 69, 52
1, 1273132, Note_on_c, 0, 84, 95
1, 1273139, Note_on_c, 0, 72, 98
1, 1273146, Note_on_c, 0, 81, 83
1, 1273148, Note_off_c, 0, 57, 59
1, 1273186, Note_off_c, 0, 72, 64
1, 1273210, Note_off_c, 0, 81, 60
1, 1273225, Note_off_c, 0, 84, 65
1, 1273241, Note_on_c, 0, 65, 101
1, 1273246, Control_c, 0, 64, 113
1, 1273246, Control_c, 1, 64, 113
1, 1273250, Note_on_c, 0, 53, 94
1, 1273265, Control_c, 0, 64, 58
1, 1273265, Control_c, 1, 64, 58
1, 1273278, Note_on_c, 0, 55, 53
1, 1273279, Note_off_c, 0, 55, 127
1, 1273321, Control_c, 0, 64, 35
1, 1273321, Control_c, 1, 64, 35
1, 1273334, Note_on_c, 0, 98, 99
1, 1273339, Note_on_c, 0, 86, 98
1, 1273339, Control_c, 0, 64, 88
1, 1273339, Control_c, 1, 64, 88
1, 1273348, Note_on_c, 0, 95, 93
1, 1273354, Note_off_c, 0, 53, 60
1, 1273357, Control_c, 0, 64, 127
1, 1273357, Control_c, 1, 64, 127
1, 1273381, Note_off_c, 0, 65, 65
1, 1273434, Poly_aftertouch_c, 0, 55, 0
1, 1273551, Note_on_c, 0, 83, 96
1, 1273553, Note_on_c, 0, 74, 86
1, 1273555, Note_on_c, 0, 71, 83
1, 1273658, Control_c, 0, 64, 64
1, 1273658, Control_c, 1, 64, 64
1, 1273660, Note_off_c, 0, 86, 62
1, 1273665, Note_off_c, 0, 98, 62
1, 1273670, Note_off_c, 0, 95, 63
1, 1273677, Control_c, 0, 64, 8
1, 1273677, Control_c, 1, 64, 8
1, 1273696, Control_c, 1, 64, 0
1, 1273696, Control_c, 0, 64, 0
1, 1273733, Control_c, 0, 64, 26
1, 1273733, Control_c, 1, 64, 26
1, 1273740, Note_on_c, 0, 86, 101
1, 1273744, Note_on_c, 0, 98, 96
1, 1273745, Note_on_c, 0, 95, 91
1, 1273752, Control_c, 0, 64, 84
1, 1273752, Control_c, 1, 64, 84
1, 1273772, Control_c, 1, 64, 127
1, 1273772, Control_c, 0, 64, 127
1, 1273787, Note_on_c, 0, 92, 31
1, 1273788, Note_off_c, 0, 83, 65
1, 1273800, Note_on_c, 0, 96, 23
1, 1273801, Note_off_c, 0, 96, 127
1, 1273817, Note_off_c, 0, 71, 62
1, 1273818, Note_off_c, 0, 86, 62
1, 1273819, Note_off_c, 0, 95, 62
1, 1273823, Note_off_c, 0, 74, 63
1, 1273829, Note_off_c, 0, 98, 64
1, 1273837, Note_off_c, 0, 92, 53
1, 1274240, Control_c, 0, 64, 85
1, 1274240, Control_c, 1, 64, 85
1, 1274250, Note_on_c, 0, 47, 86
1, 1274258, Note_on_c, 0, 35, 82
1, 1274258, Control_c, 0, 64, 45
1, 1274258, Control_c, 1, 64, 45
1, 1274276, Control_c, 1, 64, 32
1, 1274276, Control_c, 0, 64, 32
1, 1274295, Control_c, 0, 64, 45
1, 1274295, Control_c, 1, 64, 45
1, 1274314, Control_c, 1, 64, 68
1, 1274314, Control_c, 0, 64, 68
1, 1274332, Control_c, 0, 64, 100
1, 1274332, Control_c, 1, 64, 100
1, 1274350, Control_c, 1, 64, 127
1, 1274350, Control_c, 0, 64, 127
1, 1274360, Note_on_c, 0, 50, 78
1, 1274363, Note_on_c, 0, 62, 77
1, 1274385, Note_on_c, 0, 59, 60
1, 1274398, Note_off_c, 0, 50, 70
1, 1274401, Poly_aftertouch_c, 0, 37, 127
1, 1274413, Note_off_c, 0, 47, 60
1, 1274421, Note_off_c, 0, 59, 65
1, 1274437, Note_off_c, 0, 35, 59
1, 1274443, Note_off_c, 0, 62, 63
1, 1274476, Poly_aftertouch_c, 0, 37, 0
1, 1274517, Note_on_c, 0, 43, 89
1, 1274524, Note_on_c, 0, 31, 86
1, 1274542, Note_on_c, 0, 64, 88
1, 1274542, Note_on_c, 0, 76, 93
1, 1274561, Note_off_c, 0, 31, 65
1, 1274565, Note_off_c, 0, 43, 61
1, 1274591, Note_on_c, 0, 73, 32
1, 1274632, Control_c, 0, 64, 66
1, 1274632, Control_c, 1, 64, 66
1, 1274637, Note_off_c, 0, 73, 47
1, 1274650, Control_c, 0, 64, 19
1, 1274650, Control_c, 1, 64, 19
1, 1274657, Poly_aftertouch_c, 0, 68, 127
1, 1274695, Note_on_c, 0, 60, 97
1, 1274696, Note_on_c, 0, 48, 93
1, 1274708, Control_c, 0, 64, 55
1, 1274708, Control_c, 1, 64, 55
1, 1274725, Control_c, 1, 64, 127
1, 1274725, Control_c, 0, 64, 127
1, 1274735, Poly_aftertouch_c, 0, 68, 0
1, 1274741, Note_off_c, 0, 64, 62
1, 1274750, Note_off_c, 0, 76, 60
1, 1274825, Note_on_c, 0, 76, 90
1, 1274827, Note_on_c, 0, 64, 94
1, 1274834, Note_on_c, 0, 72, 85
1, 1274842, Note_off_c, 0, 60, 59
1, 1274865, Note_off_c, 0, 64, 60
1, 1274869, Note_off_c, 0, 48, 59
1, 1274877, Note_off_c, 0, 72, 58
1, 1274877, Note_on_c, 0, 70, 23
1, 1274878, Note_off_c, 0, 70, 127
1, 1274895, Note_off_c, 0, 76, 65
1, 1274932, Poly_aftertouch_c, 0, 70, 0
1, 1274948, Control_c, 0, 64, 116
1, 1274948, Control_c, 1, 64, 116
1, 1274951, Note_on_c, 0, 57, 94
1, 1274957, Note_on_c, 0, 45, 96
1, 1274969, Control_c, 0, 64, 59
1, 1274969, Control_c, 1, 64, 59
1, 1274988, Control_c, 1, 64, 16
1, 1274988, Control_c, 0, 64, 16
1, 1275000, Note_on_c, 0, 77, 96
1, 1275003, Note_on_c, 0, 89, 86
1, 1275005, Note_on_c, 0, 91, 86
1, 1275009, Note_on_c, 0, 86, 85
1, 1275011, Note_on_c, 0, 51, 25
1, 1275012, Note_off_c, 0, 51, 127
1, 1275016, Note_off_c, 0, 45, 65
1, 1275017, Note_off_c, 0, 57, 64
1, 1275023, Control_c, 0, 64, 38
1, 1275023, Control_c, 1, 64, 38
1, 1275025, Note_off_c, 0, 91, 64
1, 1275043, Control_c, 0, 64, 82
1, 1275043, Control_c, 1, 64, 82
1, 1275056, Note_on_c, 0, 85, 21
1, 1275060, Control_c, 0, 64, 127
1, 1275060, Control_c, 1, 64, 127
1, 1275066, Poly_aftertouch_c, 0, 51, 0
1, 1275130, Note_off_c, 0, 85, 27
1, 1275164, Note_on_c, 0, 74, 98
1, 1275171, Note_on_c, 0, 62, 96
1, 1275201, Note_off_c, 0, 77, 60
1, 1275214, Note_off_c, 0, 86, 60
1, 1275220, Note_off_c, 0, 89, 62
1, 1275290, Note_on_c, 0, 89, 87
1, 1275299, Note_on_c, 0, 86, 84
1, 1275305, Poly_aftertouch_c, 0, 66, 127
1, 1275319, Note_on_c, 0, 77, 85
1, 1275321, Note_off_c, 0, 74, 61
1, 1275337, Note_off_c, 0, 62, 56
1, 1275343, Note_on_c, 0, 66, 10
1, 1275348, Note_off_c, 0, 77, 66
1, 1275367, Note_off_c, 0, 86, 64
1, 1275369, Note_off_c, 0, 66, 42
1, 1275369, Poly_aftertouch_c, 0, 66, 0
1, 1275381, Note_off_c, 0, 89, 64
1, 1275409, Note_on_c, 0, 71, 98
1, 1275418, Note_on_c, 0, 59, 92
1, 1275451, Note_on_c, 0, 61, 48
1, 1275464, Note_off_c, 0, 59, 64
1, 1275465, Note_off_c, 0, 71, 65
1, 1275485, Note_off_c, 0, 61, 57
1, 1275493, Note_on_c, 0, 103, 99
1, 1275496, Note_on_c, 0, 91, 98
1, 1275503, Note_on_c, 0, 100, 95
1, 1275553, Poly_aftertouch_c, 0, 66, 0
1, 1275664, Note_on_c, 0, 88, 100
1, 1275669, Note_on_c, 0, 76, 91
1, 1275670, Note_on_c, 0, 79, 90
1, 1275699, Control_c, 0, 64, 72
1, 1275699, Control_c, 1, 64, 72
1, 1275718, Control_c, 1, 64, 21
1, 1275718, Control_c, 0, 64, 21
1, 1275736, Control_c, 0, 64, 0
1, 1275736, Control_c, 1, 64, 0
1, 1275805, Note_off_c, 0, 91, 61
1, 1275806, Note_off_c, 0, 103, 61
1, 1275813, Control_c, 0, 64, 28
1, 1275813, Control_c, 1, 64, 28
1, 1275820, Note_off_c, 0, 100, 61
1, 1275829, Control_c, 0, 64, 70
1, 1275829, Control_c, 1, 64, 70
1, 1275849, Control_c, 1, 64, 127
1, 1275849, Control_c, 0, 64, 127
1, 1275875, Note_on_c, 0, 91, 97
1, 1275876, Note_on_c, 0, 103, 90
1, 1275882, Note_on_c, 0, 100, 85
1, 1275893, Note_off_c, 0, 88, 66
1, 1275908, Note_off_c, 0, 76, 62
1, 1275908, Note_on_c, 0, 101, 55
1, 1275921, Note_off_c, 0, 79, 65
1, 1275937, Note_off_c, 0, 101, 60
1, 1275945, Note_off_c, 0, 91, 61
1, 1275953, Note_off_c, 0, 100, 63
1, 1275953, Note_off_c, 0, 103, 64
1, 1276354, Control_c, 0, 64, 71
1, 1276354, Control_c, 1, 64, 71
1, 1276372, Control_c, 1, 64, 29
1, 1276372, Control_c, 0, 64, 29
1, 1276380, Note_on_c, 0, 64, 72
1, 1276391, Control_c, 0, 64, 15
1, 1276391, Control_c, 1, 64, 15
1, 1276399, Note_on_c, 0, 52, 56
1, 1276411, Control_c, 0, 64, 30
1, 1276411, Control_c, 1, 64, 30
1, 1276429, Control_c, 1, 64, 61
1, 1276429, Control_c, 0, 64, 61
1, 1276448, Control_c, 0, 64, 110
1, 1276448, Control_c, 1, 64, 110
1, 1276466, Control_c, 1, 64, 127
1, 1276466, Control_c, 0, 64, 127
1, 1276509, Note_off_c, 0, 64, 53
1, 1276534, Note_on_c, 0, 79, 75
1, 1276550, Note_on_c, 0, 67, 35
1, 1276552, Note_off_c, 0, 52, 59
1, 1276570, Note_on_c, 0, 76, 39
1, 1276595, Note_off_c, 0, 67, 53
1, 1276623, Note_off_c, 0, 79, 62
1, 1276646, Note_off_c, 0, 76, 39
1, 1276698, Note_on_c, 0, 52, 68
1, 1276698, Note_on_c, 0, 40, 73
1, 1276730, Note_off_c, 0, 40, 65
1, 1276731, Note_off_c, 0, 52, 64
1, 1276741, Note_on_c, 0, 80, 80
1, 1276758, Note_on_c, 0, 68, 62
1, 1276772, Note_on_c, 0, 76, 47
1, 1276891, Note_on_c, 0, 64, 85
1, 1276895, Note_off_c, 0, 68, 52
1, 1276896, Note_off_c, 0, 80, 64
1, 1276902, Note_off_c, 0, 76, 58
1, 1276902, Note_on_c, 0, 52, 67
1, 1276935, Note_off_c, 0, 64, 60
1, 1276946, Note_on_c, 0, 53, 26
1, 1276964, Note_off_c, 0, 52, 58
1, 1277003, Note_off_c, 0, 53, 43
1, 1277007, Note_on_c, 0, 80, 85
1, 1277008, Note_on_c, 0, 68, 87
1, 1277015, Note_on_c, 0, 76, 74
1, 1277063, Note_off_c, 0, 76, 59
1, 1277066, Note_off_c, 0, 68, 64
1, 1277084, Note_off_c, 0, 80, 64
1, 1277103, Control_c, 0, 64, 76
1, 1277103, Control_c, 1, 64, 76
1, 1277122, Control_c, 1, 64, 38
1, 1277122, Control_c, 0, 64, 38
1, 1277134, Note_on_c, 0, 54, 94
1, 1277134, Note_on_c, 0, 42, 92
1, 1277141, Control_c, 0, 64, 34
1, 1277141, Control_c, 1, 64, 34
1, 1277144, Note_on_c, 0, 76, 78
1, 1277146, Note_on_c, 0, 69, 87
1, 1277147, Note_on_c, 0, 81, 90
1, 1277160, Control_c, 0, 64, 55
1, 1277160, Control_c, 1, 64, 55
1, 1277166, Note_off_c, 0, 54, 67
1, 1277178, Note_off_c, 0, 42, 66
1, 1277178, Control_c, 0, 64, 93
1, 1277178, Control_c, 1, 64, 93
1, 1277195, Control_c, 1, 64, 127
1, 1277195, Control_c, 0, 64, 127
1, 1277295, Note_off_c, 0, 69, 57
1, 1277304, Note_off_c, 0, 76, 61
1, 1277305, Note_off_c, 0, 81, 60
1, 1277307, Note_on_c, 0, 64, 91
1, 1277315, Note_on_c, 0, 52, 89
1, 1277340, Note_on_c, 0, 54, 50
1, 1277341, Note_off_c, 0, 64, 63
1, 1277357, Note_off_c, 0, 52, 59
1, 1277367, Note_off_c, 0, 54, 63
1, 1277389, Note_on_c, 0, 81, 91
1, 1277397, Note_on_c, 0, 76, 82
1, 1277398, Note_on_c, 0, 69, 91
1, 1277442, Poly_aftertouch_c, 0, 58, 0
1, 1277450, Note_off_c, 0, 69, 60
1, 1277451, Note_off_c, 0, 76, 61
1, 1277465, Note_off_c, 0, 81, 63
1, 1277495, Control_c, 0, 64, 85
1, 1277495, Control_c, 1, 64, 85
1, 1277506, Note_on_c, 0, 56, 99
1, 1277511, Note_on_c, 0, 44, 94
1, 1277514, Control_c, 0, 64, 48
1, 1277514, Control_c, 1, 64, 48
1, 1277528, Note_on_c, 0, 83, 97
1, 1277532, Note_on_c, 0, 71, 95
1, 1277532, Control_c, 0, 64, 38
1, 1277532, Control_c, 1, 64, 38
1, 1277537, Note_on_c, 0, 76, 85
1, 1277551, Control_c, 0, 64, 55
1, 1277551, Control_c, 1, 64, 55
1, 1277557, Note_off_c, 0, 56, 60
1, 1277570, Note_off_c, 0, 44, 64
1, 1277570, Control_c, 0, 64, 93
1, 1277570, Control_c, 1, 64, 93
1, 1277590, Control_c, 1, 64, 127
1, 1277590, Control_c, 0, 64, 127
1, 1277634, Poly_aftertouch_c, 0, 46, 127
1, 1277662, Poly_aftertouch_c, 0, 43, 0
1, 1277662, Poly_aftertouch_c, 0, 46, 0
1, 1277674, Note_off_c, 0, 71, 59
1, 1277685, Note_on_c, 0, 64, 96
1, 1277689, Note_off_c, 0, 76, 62
1, 1277690, Note_off_c, 0, 83, 62
1, 1277695, Note_on_c, 0, 52, 90
1, 1277721, Note_on_c, 0, 54, 54
1, 1277732, Note_off_c, 0, 64, 60
1, 1277740, Note_off_c, 0, 52, 57
1, 1277758, Note_off_c, 0, 54, 55
1, 1277763, Note_on_c, 0, 83, 91
1, 1277765, Note_on_c, 0, 71, 91
1, 1277769, Note_on_c, 0, 76, 72
1, 1277808, Note_off_c, 0, 76, 63
1, 1277828, Note_off_c, 0, 71, 64
1, 1277829, Poly_aftertouch_c, 0, 58, 127
1, 1277836, Note_off_c, 0, 83, 65
1, 1277839, Poly_aftertouch_c, 0, 58, 0
1, 1277869, Control_c, 0, 64, 89
1, 1277869, Control_c, 1, 64, 89
1, 1277874, Note_on_c, 0, 57, 99
1, 1277877, Note_on_c, 0, 45, 96
1, 1277890, Control_c, 0, 64, 49
1, 1277890, Control_c, 1, 64, 49
1, 1277897, Note_on_c, 0, 84, 98
1, 1277902, Note_on_c, 0, 72, 97
1, 1277908, Control_c, 0, 64, 32
1, 1277908, Control_c, 1, 64, 32
1, 1277915, Note_on_c, 0, 78, 79
1, 1277923, Note_off_c, 0, 57, 68
1, 1277926, Control_c, 0, 64, 44
1, 1277926, Control_c, 1, 64, 44
1, 1277932, Note_off_c, 0, 45, 63
1, 1277941, Note_off_c, 0, 78, 72
1, 1277944, Control_c, 0, 64, 79
1, 1277944, Control_c, 1, 64, 79
1, 1277964, Control_c, 1, 64, 127
1, 1277964, Control_c, 0, 64, 127
1, 1278038, Note_off_c, 0, 72, 60
1, 1278040, Note_on_c, 0, 52, 94
1, 1278045, Note_on_c, 0, 64, 90
1, 1278048, Note_on_c, 0, 62, 84
1, 1278053, Note_off_c, 0, 84, 63
1, 1278074, Note_off_c, 0, 62, 71
1, 1278075, Note_off_c, 0, 64, 67
1, 1278099, Note_off_c, 0, 52, 63
1, 1278140, Note_on_c, 0, 84, 101
1, 1278141, Note_on_c, 0, 72, 102
1, 1278178, Poly_aftertouch_c, 0, 58, 0
1, 1278201, Note_off_c, 0, 72, 65
1, 1278206, Note_off_c, 0, 84, 66
1, 1278262, Control_c, 0, 64, 62
1, 1278262, Control_c, 1, 64, 62
1, 1278272, Note_on_c, 0, 58, 102
1, 1278272, Note_on_c, 0, 46, 95
1, 1278280, Control_c, 0, 64, 25
1, 1278280, Control_c, 1, 64, 25
1, 1278295, Note_on_c, 0, 85, 102
1, 1278298, Note_on_c, 0, 73, 103
1, 1278320, Control_c, 0, 64, 53
1, 1278320, Control_c, 1, 64, 53
1, 1278321, Note_on_c, 0, 82, 65
1, 1278326, Note_off_c, 0, 58, 66
1, 1278338, Control_c, 0, 64, 127
1, 1278338, Control_c, 1, 64, 127
1, 1278340, Note_off_c, 0, 46, 66
1, 1278347, Note_off_c, 0, 82, 67
1, 1278417, Poly_aftertouch_c, 0, 45, 0
1, 1278453, Note_on_c, 0, 64, 99
1, 1278461, Note_on_c, 0, 52, 90
1, 1278467, Note_on_c, 0, 82, 21
1, 1278469, Note_off_c, 0, 73, 61
1, 1278475, Note_off_c, 0, 85, 64
1, 1278482, Note_on_c, 0, 58, 55
1, 1278483, Note_off_c, 0, 58, 127
1, 1278487, Note_on_c, 0, 54, 57
1, 1278505, Note_off_c, 0, 64, 64
1, 1278523, Note_off_c, 0, 54, 58
1, 1278527, Note_off_c, 0, 52, 58
1, 1278533, Note_off_c, 0, 82, 43
1, 1278559, Note_on_c, 0, 85, 102
1, 1278562, Note_on_c, 0, 73, 103
1, 1278638, Note_off_c, 0, 73, 63
1, 1278653, Note_off_c, 0, 85, 64
1, 1278696, Control_c, 0, 64, 63
1, 1278696, Control_c, 1, 64, 63
1, 1278698, Note_on_c, 0, 59, 96
1, 1278703, Note_on_c, 0, 47, 94
1, 1278713, Control_c, 0, 64, 24
1, 1278713, Control_c, 1, 64, 24
1, 1278716, Note_on_c, 0, 74, 98
1, 1278717, Note_on_c, 0, 86, 99
1, 1278746, Note_on_c, 0, 80, 56
1, 1278747, Note_off_c, 0, 59, 64
1, 1278748, Control_c, 0, 64, 44
1, 1278748, Control_c, 1, 64, 44
1, 1278752, Note_off_c, 0, 47, 65
1, 1278758, Note_on_c, 0, 85, 35
1, 1278759, Note_off_c, 0, 85, 127
1, 1278767, Control_c, 0, 64, 91
1, 1278767, Control_c, 1, 64, 91
1, 1278783, Note_off_c, 0, 80, 59
1, 1278787, Control_c, 0, 64, 127
1, 1278787, Control_c, 1, 64, 127
1, 1278791, Poly_aftertouch_c, 0, 49, 0
1, 1278869, Note_on_c, 0, 64, 99
1, 1278873, Note_on_c, 0, 52, 92
1, 1278891, Note_off_c, 0, 74, 60
1, 1278900, Note_off_c, 0, 86, 62
1, 1278924, Note_off_c, 0, 64, 65
1, 1278953, Note_off_c, 0, 52, 59
1, 1278976, Note_on_c, 0, 86, 100
1, 1278979, Note_on_c, 0, 74, 98
1, 1278988, Poly_aftertouch_c, 0, 54, 127
1, 1279027, Poly_aftertouch_c, 0, 54, 0
1, 1279054, Note_off_c, 0, 74, 64
1, 1279074, Note_off_c, 0, 86, 66
1, 1279142, Control_c, 0, 64, 80
1, 1279142, Control_c, 1, 64, 80
1, 1279144, Note_on_c, 0, 60, 98
1, 1279149, Note_on_c, 0, 48, 96
1, 1279162, Control_c, 0, 64, 33
1, 1279162, Control_c, 1, 64, 33
1, 1279170, Note_on_c, 0, 87, 102
1, 1279173, Note_on_c, 0, 75, 102
1, 1279198, Control_c, 0, 64, 19
1, 1279198, Control_c, 1, 64, 19
1, 1279210, Note_on_c, 0, 51, 20
1, 1279211, Note_off_c, 0, 51, 127
1, 1279214, Note_on_c, 0, 50, 16
1, 1279215, Note_off_c, 0, 50, 127
1, 1279218, Control_c, 0, 64, 60
1, 1279218, Control_c, 1, 64, 60
1, 1279224, Note_on_c, 0, 85, 29
1, 1279236, Control_c, 0, 64, 127
1, 1279236, Control_c, 1, 64, 127
1, 1279247, Note_off_c, 0, 85, 37
1, 1279265, Note_off_c, 0, 60, 53
1, 1279270, Note_off_c, 0, 48, 62
1, 1279284, Poly_aftertouch_c, 0, 51, 0
1, 1279401, Note_on_c, 0, 64, 96
1, 1279402, Note_on_c, 0, 52, 92
1, 1279404, Note_off_c, 0, 75, 64
1, 1279411, Note_off_c, 0, 87, 64
1, 1279464, Note_off_c, 0, 64, 59
1, 1279488, Note_off_c, 0, 52, 60
1, 1279500, Note_on_c, 0, 75, 104
1, 1279501, Note_on_c, 0, 87, 105
1, 1279520, Poly_aftertouch_c, 0, 54, 0
1, 1279619, Note_off_c, 0, 75, 62
1, 1279635, Note_off_c, 0, 87, 61
1, 1279685, Note_on_c, 0, 61, 103
1, 1279686, Note_on_c, 0, 49, 98
1, 1279705, Control_c, 0, 64, 86
1, 1279705, Control_c, 1, 64, 86
1, 1279724, Control_c, 1, 64, 36
1, 1279724, Control_c, 0, 64, 36
1, 1279732, Note_on_c, 0, 88, 99
1, 1279734, Note_on_c, 0, 76, 101
1, 1279742, Control_c, 0, 64, 0
1, 1279742, Control_c, 1, 64, 0
1, 1279780, Control_c, 1, 64, 34
1, 1279780, Control_c, 0, 64, 34
1, 1279798, Control_c, 0, 64, 103
1, 1279798, Control_c, 1, 64, 103
1, 1279804, Note_off_c, 0, 61, 56
1, 1279812, Note_off_c, 0, 49, 65
1, 1279814, Control_c, 0, 64, 127
1, 1279814, Control_c, 1, 64, 127
1, 1279946, Note_on_c, 0, 64, 97
1, 1279951, Note_on_c, 0, 52, 94
1, 1279988, Note_off_c, 0, 76, 61
1, 1279993, Note_off_c, 0, 88, 63
1, 1279996, Note_off_c, 0, 64, 66
1, 1280032, Note_off_c, 0, 52, 62
1, 1280074, Note_on_c, 0, 88, 102
1, 1280075, Note_on_c, 0, 76, 103
1, 1280384, Note_on_c, 0, 40, 102
1, 1280391, Note_on_c, 0, 28, 98
1, 1280437, Note_off_c, 0, 76, 59
1, 1280442, Note_off_c, 0, 88, 61
1, 1280528, Control_c, 0, 64, 85
1, 1280528, Control_c, 1, 64, 85
1, 1280538, Poly_aftertouch_c, 0, 80, 127
1, 1280545, Note_on_c, 0, 77, 104
1, 1280546, Control_c, 0, 64, 32
1, 1280546, Control_c, 1, 64, 32
1, 1280548, Note_on_c, 0, 80, 56
1, 1280548, Note_on_c, 0, 89, 101
1, 1280551, Note_on_c, 0, 83, 92
1, 1280557, Note_on_c, 0, 86, 90
1, 1280565, Control_c, 0, 64, 0
1, 1280565, Control_c, 1, 64, 0
1, 1280661, Control_c, 1, 64, 13
1, 1280661, Control_c, 0, 64, 13
1, 1280677, Control_c, 0, 64, 51
1, 1280677, Control_c, 1, 64, 51
1, 1280697, Control_c, 1, 64, 101
1, 1280697, Control_c, 0, 64, 101
1, 1280716, Control_c, 0, 64, 127
1, 1280716, Control_c, 1, 64, 127
1, 1280754, Note_off_c, 0, 28, 64
1, 1280796, Poly_aftertouch_c, 0, 30, 127
1, 1280820, Note_off_c, 0, 40, 63
1, 1280846, Poly_aftertouch_c, 0, 30, 0
1, 1281186, Note_on_c, 0, 50, 83
1, 1281188, Note_on_c, 0, 64, 89
1, 1281189, Note_on_c, 0, 56, 83
1, 1281190, Note_on_c, 0, 62, 86
1, 1281201, Note_on_c, 0, 52, 75
1, 1281271, Note_off_c, 0, 56, 61
1, 1281275, Note_off_c, 0, 50, 62
1, 1281286, Note_off_c, 0, 62, 54
1, 1281290, Note_off_c, 0, 52, 60
1, 1281290, Note_off_c, 0, 64, 54
1, 1281641, Note_off_c, 0, 89, 46
1, 1281653, Note_off_c, 0, 83, 58
1, 1281673, Note_off_c, 0, 86, 62
1, 1281681, Note_off_c, 0, 80, 48
1, 1281681, Poly_aftertouch_c, 0, 80, 0
1, 1281685, Note_off_c, 0, 77, 56
1, 1282378, Note_on_c, 0, 83, 89
1, 1282385, Note_on_c, 0, 71, 90
1, 1282396, Note_on_c, 0, 80, 78
1, 1282667, Note_off_c, 0, 80, 56
1, 1282667, Poly_aftertouch_c, 0, 80, 0
1, 1282686, Note_off_c, 0, 71, 55
1, 1282807, Note_on_c, 0, 57, 84
1, 1282814, Note_on_c, 0, 45, 83
1, 1282850, Control_c, 0, 64, 63
1, 1282850, Control_c, 1, 64, 63
1, 1282886, Control_c, 1, 64, 0
1, 1282886, Control_c, 0, 64, 0
1, 1282905, Control_c, 0, 64, 20
1, 1282905, Control_c, 1, 64, 20
1, 1282925, Control_c, 1, 64, 71
1, 1282925, Control_c, 0, 64, 71
1, 1282929, Note_on_c, 0, 84, 96
1, 1282930, Note_on_c, 0, 72, 91
1, 1282931, Note_on_c, 0, 81, 89
1, 1282943, Control_c, 0, 64, 127
1, 1282943, Control_c, 1, 64, 127
1, 1282993, Note_off_c, 0, 45, 62
1, 1283019, Note_off_c, 0, 57, 64
1, 1283105, Note_off_c, 0, 83, 34
1, 1283207, Note_off_c, 0, 72, 60
1, 1283225, Note_on_c, 0, 69, 64
1, 1283231, Note_on_c, 0, 57, 65
1, 1283241, Note_off_c, 0, 81, 62
1, 1283263, Note_off_c, 0, 69, 63
1, 1283270, Note_off_c, 0, 57, 64
1, 1283309, Note_on_c, 0, 81, 78
1, 1283310, Note_on_c, 0, 85, 89
1, 1283321, Note_on_c, 0, 73, 90
1, 1283399, Note_on_c, 0, 67, 66
1, 1283401, Note_on_c, 0, 57, 71
1, 1283403, Note_off_c, 0, 84, 54
1, 1283435, Note_off_c, 0, 67, 65
1, 1283451, Note_off_c, 0, 57, 65
1, 1283484, Note_off_c, 0, 73, 59
1, 1283497, Note_off_c, 0, 81, 59
1, 1283524, Control_c, 0, 64, 65
1, 1283524, Control_c, 1, 64, 65
1, 1283542, Control_c, 1, 64, 38
1, 1283542, Control_c, 0, 64, 38
1, 1283558, Note_on_c, 0, 81, 79
1, 1283559, Note_on_c, 0, 86, 94
1, 1283562, Control_c, 0, 64, 42
1, 1283562, Control_c, 1, 64, 42
1, 1283567, Note_on_c, 0, 41, 86
1, 1283568, Note_on_c, 0, 74, 91
1, 1283573, Note_on_c, 0, 53, 72
1, 1283577, Note_on_c, 0, 55, 71
1, 1283581, Control_c, 0, 64, 72
1, 1283581, Control_c, 1, 64, 72
1, 1283595, Note_off_c, 0, 41, 68
1, 1283597, Control_c, 0, 64, 127
1, 1283597, Control_c, 1, 64, 127
1, 1283601, Note_off_c, 0, 53, 65
1, 1283602, Note_off_c, 0, 55, 63
1, 1283603, Note_off_c, 0, 85, 65
1, 1283614, Note_on_c, 0, 44, 19
1, 1283678, Note_off_c, 0, 44, 42
1, 1283681, Note_on_c, 0, 84, 16
1, 1283682, Note_off_c, 0, 84, 127
1, 1283720, Note_off_c, 0, 74, 59
1, 1283733, Note_on_c, 0, 65, 86
1, 1283735, Note_on_c, 0, 53, 66
1, 1283737, Note_off_c, 0, 81, 63
1, 1283772, Note_off_c, 0, 65, 61
1, 1283779, Note_off_c, 0, 53, 60
1, 1283799, Note_on_c, 0, 88, 93
1, 1283815, Note_on_c, 0, 76, 86
1, 1283835, Note_on_c, 0, 84, 60
1, 1283857, Poly_aftertouch_c, 0, 61, 127
1, 1283858, Note_off_c, 0, 84, 63
1, 1283868, Note_on_c, 0, 64, 81
1, 1283875, Note_on_c, 0, 52, 82
1, 1283875, Poly_aftertouch_c, 0, 61, 0
1, 1283877, Note_off_c, 0, 86, 64
1, 1283887, Note_off_c, 0, 76, 60
1, 1283899, Note_off_c, 0, 64, 71
1, 1283915, Note_off_c, 0, 52, 64
1, 1283953, Control_c, 0, 64, 91
1, 1283953, Control_c, 1, 64, 91
1, 1283972, Control_c, 1, 64, 44
1, 1283972, Control_c, 0, 64, 44
1, 1283981, Poly_aftertouch_c, 0, 54, 127
1, 1283986, Poly_aftertouch_c, 0, 54, 0
1, 1283989, Control_c, 0, 64, 20
1, 1283989, Control_c, 1, 64, 20
1, 1284008, Note_on_c, 0, 86, 90
1, 1284010, Control_c, 0, 64, 30
1, 1284010, Control_c, 1, 64, 30
1, 1284015, Note_on_c, 0, 77, 90
1, 1284016, Note_on_c, 0, 89, 97
1, 1284017, Note_on_c, 0, 50, 91
1, 1284021, Note_on_c, 0, 38, 88
1, 1284028, Control_c, 0, 64, 63
1, 1284028, Control_c, 1, 64, 63
1, 1284043, Note_off_c, 0, 50, 64
1, 1284045, Control_c, 0, 64, 127
1, 1284045, Control_c, 1, 64, 127
1, 1284053, Note_off_c, 0, 38, 70
1, 1284058, Note_on_c, 0, 87, 18
1, 1284059, Note_off_c, 0, 87, 127
1, 1284065, Note_off_c, 0, 88, 60
1, 1284124, Note_off_c, 0, 77, 61
1, 1284139, Poly_aftertouch_c, 0, 39, 127
1, 1284145, Poly_aftertouch_c, 0, 44, 0
1, 1284151, Note_off_c, 0, 86, 59
1, 1284171, Poly_aftertouch_c, 0, 39, 0
1, 1284180, Note_on_c, 0, 62, 89
1, 1284185, Note_on_c, 0, 50, 80
1, 1284213, Note_off_c, 0, 62, 62
1, 1284222, Note_on_c, 0, 86, 69
1, 1284224, Note_off_c, 0, 50, 66
1, 1284225, Note_on_c, 0, 90, 91
1, 1284232, Note_on_c, 0, 78, 93
1, 1284279, Note_on_c, 0, 87, 35
1, 1284289, Poly_aftertouch_c, 0, 56, 0
1, 1284317, Note_on_c, 0, 60, 80
1, 1284319, Note_on_c, 0, 48, 84
1, 1284327, Note_off_c, 0, 87, 49
1, 1284333, Note_off_c, 0, 89, 45
1, 1284346, Note_off_c, 0, 60, 70
1, 1284363, Note_off_c, 0, 48, 61
1, 1284373, Note_off_c, 0, 78, 64
1, 1284381, Note_off_c, 0, 86, 59
1, 1284403, Control_c, 0, 64, 96
1, 1284403, Control_c, 1, 64, 96
1, 1284421, Control_c, 1, 64, 46
1, 1284421, Control_c, 0, 64, 46
1, 1284438, Poly_aftertouch_c, 0, 51, 0
1, 1284441, Control_c, 0, 64, 13
1, 1284441, Control_c, 1, 64, 13
1, 1284449, Note_on_c, 0, 86, 76
1, 1284453, Note_on_c, 0, 79, 92
1, 1284454, Note_on_c, 0, 91, 98
1, 1284459, Control_c, 0, 64, 26
1, 1284459, Control_c, 1, 64, 26
1, 1284464, Note_on_c, 0, 47, 94
1, 1284464, Note_on_c, 0, 35, 91
1, 1284478, Control_c, 0, 64, 62
1, 1284478, Control_c, 1, 64, 62
1, 1284486, Note_on_c, 0, 85, 44
1, 1284487, Note_off_c, 0, 85, 127
1, 1284492, Note_off_c, 0, 47, 74
1, 1284496, Note_on_c, 0, 37, 44
1, 1284496, Control_c, 0, 64, 127
1, 1284496, Control_c, 1, 64, 127
1, 1284497, Note_off_c, 0, 35, 69
1, 1284497, Note_off_c, 0, 37, 127
1, 1284521, Note_on_c, 0, 39, 23
1, 1284537, Note_off_c, 0, 39, 127
1, 1284544, Note_off_c, 0, 90, 62
1, 1284552, Poly_aftertouch_c, 0, 37, 0
1, 1284561, Note_off_c, 0, 79, 63
1, 1284594, Note_off_c, 0, 86, 64
1, 1284621, Note_on_c, 0, 59, 81
1, 1284651, Note_on_c, 0, 47, 57
1, 1284655, Note_on_c, 0, 86, 87
1, 1284656, Note_on_c, 0, 48, 46
1, 1284656, Note_on_c, 0, 80, 99
1, 1284656, Note_on_c, 0, 92, 92
1, 1284658, Note_off_c, 0, 59, 68
1, 1284678, Note_off_c, 0, 47, 63
1, 1284700, Note_off_c, 0, 48, 51
1, 1284707, Note_on_c, 0, 54, 14
1, 1284707, Note_on_c, 0, 90, 48
1, 1284726, Note_off_c, 0, 54, 58
1, 1284762, Note_off_c, 0, 90, 60
1, 1284763, Note_off_c, 0, 91, 54
1, 1284773, Note_on_c, 0, 52, 87
1, 1284782, Note_off_c, 0, 86, 60
1, 1284785, Note_on_c, 0, 40, 80
1, 1284802, Note_off_c, 0, 52, 70
1, 1284807, Note_on_c, 0, 42, 54
1, 1284815, Note_off_c, 0, 80, 61
1, 1284815, Poly_aftertouch_c, 0, 80, 0
1, 1284821, Note_off_c, 0, 40, 66
1, 1284845, Note_off_c, 0, 42, 52
1, 1284851, Control_c, 0, 64, 87
1, 1284851, Control_c, 1, 64, 87
1, 1284871, Control_c, 1, 64, 37
1, 1284871, Control_c, 0, 64, 37
1, 1284875, Poly_aftertouch_c, 0, 46, 0
1, 1284888, Control_c, 0, 64, 0
1, 1284888, Control_c, 1, 64, 0
1, 1284913, Note_on_c, 0, 81, 94
1, 1284917, Note_on_c, 0, 93, 100
1, 1284917, Note_on_c, 0, 84, 84
1, 1284932, Note_on_c, 0, 45, 100
1, 1284935, Note_on_c, 0, 33, 93
1, 1284946, Control_c, 0, 64, 30
1, 1284946, Control_c, 1, 64, 30
1, 1284957, Note_off_c, 0, 45, 68
1, 1284963, Note_on_c, 0, 39, 49
1, 1284963, Control_c, 0, 64, 127
1, 1284963, Control_c, 1, 64, 127
1, 1284964, Note_off_c, 0, 39, 127
1, 1284965, Note_off_c, 0, 33, 71
1, 1284986, Note_off_c, 0, 92, 63
1, 1285010, Poly_aftertouch_c, 0, 39, 0
1, 1285032, Note_off_c, 0, 81, 63
1, 1285075, Note_off_c, 0, 84, 62
1, 1285107, Note_on_c, 0, 91, 57
1, 1285122, Note_on_c, 0, 57, 61
1, 1285123, Note_on_c, 0, 45, 67
1, 1285124, Note_on_c, 0, 59, 56
1, 1285136, Note_on_c, 0, 84, 83
1, 1285139, Note_on_c, 0, 90, 90
1, 1285141, Note_on_c, 0, 78, 96
1, 1285155, Note_off_c, 0, 57, 60
1, 1285155, Note_off_c, 0, 59, 41
1, 1285162, Note_off_c, 0, 45, 61
1, 1285233, Poly_aftertouch_c, 0, 47, 0
1, 1285239, Note_off_c, 0, 93, 34
1, 1285244, Note_off_c, 0, 91, 32
1, 1285261, Note_on_c, 0, 50, 90
1, 1285268, Note_on_c, 0, 38, 81
1, 1285270, Poly_aftertouch_c, 0, 87, 127
1, 1285280, Note_off_c, 0, 78, 55
1, 1285286, Note_off_c, 0, 84, 60
1, 1285289, Note_off_c, 0, 50, 71
1, 1285297, Poly_aftertouch_c, 0, 87, 0
1, 1285306, Note_off_c, 0, 38, 66
1, 1285357, Control_c, 0, 64, 58
1, 1285357, Control_c, 1, 64, 58
1, 1285376, Control_c, 1, 64, 0
1, 1285376, Control_c, 0, 64, 0
1, 1285382, Note_on_c, 0, 83, 83
1, 1285383, Note_on_c, 0, 91, 95
1, 1285384, Note_on_c, 0, 79, 88
1, 1285387, Poly_aftertouch_c, 0, 44, 0
1, 1285406, Note_on_c, 0, 33, 87
1, 1285409, Note_on_c, 0, 45, 83
1, 1285414, Control_c, 0, 64, 22
1, 1285414, Control_c, 1, 64, 22
1, 1285423, Note_off_c, 0, 90, 67
1, 1285431, Note_on_c, 0, 34, 49
1, 1285431, Control_c, 0, 64, 64
1, 1285431, Control_c, 1, 64, 64
1, 1285434, Note_off_c, 0, 33, 64
1, 1285434, Note_off_c, 0, 45, 64
1, 1285434, Note_on_c, 0, 43, 37
1, 1285435, Note_off_c, 0, 43, 127
1, 1285451, Control_c, 0, 64, 127
1, 1285451, Control_c, 1, 64, 127
1, 1285470, Note_on_c, 0, 39, 14
1, 1285474, Note_off_c, 0, 83, 61
1, 1285478, Note_off_c, 0, 34, 41
1, 1285480, Note_off_c, 0, 79, 62
1, 1285487, Note_off_c, 0, 39, 60
1, 1285489, Poly_aftertouch_c, 0, 43, 0
1, 1285544, Note_on_c, 0, 89, 30
1, 1285560, Note_on_c, 0, 55, 86
1, 1285570, Note_on_c, 0, 43, 72
1, 1285572, Note_on_c, 0, 88, 84
1, 1285574, Note_off_c, 0, 91, 61
1, 1285585, Note_on_c, 0, 82, 88
1, 1285586, Note_off_c, 0, 55, 64
1, 1285591, Note_on_c, 0, 76, 83
1, 1285604, Note_off_c, 0, 43, 66
1, 1285610, Note_off_c, 0, 89, 62
1, 1285618, Poly_aftertouch_c, 0, 33, 0
1, 1285662, Poly_aftertouch_c, 0, 49, 0
1, 1285695, Note_off_c, 0, 76, 61
1, 1285703, Note_on_c, 0, 48, 90
1, 1285711, Note_on_c, 0, 36, 86
1, 1285712, Note_off_c, 0, 82, 62
1, 1285730, Note_off_c, 0, 48, 69
1, 1285749, Note_off_c, 0, 36, 69
1, 1285755, Note_on_c, 0, 39, 25
1, 1285769, Control_c, 0, 64, 64
1, 1285769, Control_c, 1, 64, 64
1, 1285780, Note_on_c, 0, 42, 19
1, 1285785, Control_c, 0, 64, 0
1, 1285785, Control_c, 1, 64, 0
1, 1285798, Note_off_c, 0, 42, 127
1, 1285808, Note_off_c, 0, 39, 47
1, 1285836, Note_on_c, 0, 81, 82
1, 1285838, Note_on_c, 0, 77, 82
1, 1285838, Note_on_c, 0, 89, 93
1, 1285845, Control_c, 0, 64, 28
1, 1285845, Control_c, 1, 64, 28
1, 1285849, Note_on_c, 0, 29, 92
1, 1285850, Note_on_c, 0, 41, 97
1, 1285863, Control_c, 0, 64, 78
1, 1285863, Control_c, 1, 64, 78
1, 1285877, Note_off_c, 0, 41, 68
1, 1285881, Control_c, 0, 64, 127
1, 1285881, Control_c, 1, 64, 127
1, 1285882, Note_off_c, 0, 29, 69
1, 1285889, Note_off_c, 0, 88, 59
1, 1285897, Note_on_c, 0, 32, 27
1, 1285940, Note_off_c, 0, 77, 62
1, 1285955, Note_off_c, 0, 32, 44
1, 1285962, Note_off_c, 0, 89, 63
1, 1285971, Poly_aftertouch_c, 0, 88, 0
1, 1286014, Note_on_c, 0, 53, 86
1, 1286018, Note_on_c, 0, 41, 81
1, 1286040, Note_on_c, 0, 86, 86
1, 1286041, Note_off_c, 0, 53, 64
1, 1286042, Note_off_c, 0, 81, 64
1, 1286042, Note_on_c, 0, 81, 38
1, 1286043, Note_on_c, 0, 74, 75
1, 1286044, Note_on_c, 0, 83, 78
1, 1286072, Note_off_c, 0, 41, 61
1, 1286072, Note_on_c, 0, 76, 56
1, 1286084, Note_off_c, 0, 81, 55
1, 1286088, Note_on_c, 0, 84, 26
1, 1286098, Note_off_c, 0, 76, 60
1, 1286138, Note_off_c, 0, 74, 44
1, 1286139, Note_off_c, 0, 84, 32
1, 1286174, Note_on_c, 0, 47, 84
1, 1286175, Note_off_c, 0, 83, 62
1, 1286178, Note_on_c, 0, 35, 82
1, 1286204, Note_off_c, 0, 47, 72
1, 1286217, Note_off_c, 0, 35, 61
1, 1286293, Control_c, 0, 64, 57
1, 1286293, Control_c, 1, 64, 57
1, 1286297, Note_on_c, 0, 84, 86
1, 1286304, Poly_aftertouch_c, 0, 37, 0
1, 1286305, Note_on_c, 0, 72, 79
1, 1286306, Note_on_c, 0, 81, 76
1, 1286310, Control_c, 0, 64, 0
1, 1286310, Control_c, 1, 64, 0
1, 1286315, Note_on_c, 0, 80, 44
1, 1286319, Note_on_c, 0, 28, 95
1, 1286353, Note_on_c, 0, 74, 26
1, 1286355, Note_on_c, 0, 30, 57
1, 1286356, Note_off_c, 0, 86, 61
1, 1286387, Control_c, 0, 64, 19
1, 1286387, Control_c, 1, 64, 19
1, 1286395, Note_off_c, 0, 30, 52
1, 1286405, Control_c, 0, 64, 75
1, 1286405, Control_c, 1, 64, 75
1, 1286407, Note_off_c, 0, 74, 35
1, 1286424, Control_c, 0, 64, 127
1, 1286424, Control_c, 1, 64, 127
1, 1286438, Note_off_c, 0, 72, 56
1, 1286452, Note_off_c, 0, 81, 61
1, 1286463, Note_off_c, 0, 80, 43
1, 1286463, Poly_aftertouch_c, 0, 80, 0
1, 1286482, Note_off_c, 0, 28, 62
1, 1286490, Note_on_c, 0, 40, 83
1, 1286531, Note_off_c, 0, 40, 62
1, 1286545, Note_on_c, 0, 83, 83
1, 1286548, Note_on_c, 0, 80, 87
1, 1286553, Note_on_c, 0, 71, 82
1, 1286593, Note_off_c, 0, 84, 58
1, 1286606, Note_on_c, 0, 82, 27
1, 1286662, Note_off_c, 0, 71, 33
1, 1286690, Note_on_c, 0, 52, 70
1, 1286697, Note_on_c, 0, 40, 62
1, 1286701, Note_off_c, 0, 80, 60
1, 1286701, Poly_aftertouch_c, 0, 80, 0
1, 1286729, Note_off_c, 0, 52, 63
1, 1286730, Note_off_c, 0, 82, 41
1, 1286733, Note_off_c, 0, 40, 54
1, 1286761, Control_c, 0, 64, 84
1, 1286761, Control_c, 1, 64, 84
1, 1286780, Control_c, 1, 64, 27
1, 1286780, Control_c, 0, 64, 27
1, 1286794, Note_on_c, 0, 81, 81
1, 1286794, Note_on_c, 0, 84, 98
1, 1286799, Note_on_c, 0, 72, 81
1, 1286799, Control_c, 0, 64, 0
1, 1286799, Control_c, 1, 64, 0
1, 1286817, Poly_aftertouch_c, 0, 41, 0
1, 1286821, Note_on_c, 0, 45, 88
1, 1286822, Note_on_c, 0, 33, 85
1, 1286827, Note_on_c, 0, 74, 63
1, 1286828, Note_off_c, 0, 74, 127
1, 1286837, Control_c, 0, 64, 46
1, 1286837, Control_c, 1, 64, 46
1, 1286851, Note_off_c, 0, 45, 72
1, 1286853, Control_c, 0, 64, 127
1, 1286853, Control_c, 1, 64, 127
1, 1286857, Note_off_c, 0, 33, 63
1, 1286859, Note_on_c, 0, 39, 36
1, 1286860, Note_off_c, 0, 39, 127
1, 1286871, Note_on_c, 0, 34, 19
1, 1286888, Note_off_c, 0, 83, 50
1, 1286906, Poly_aftertouch_c, 0, 39, 0
1, 1286910, Note_off_c, 0, 34, 55
1, 1286912, Note_off_c, 0, 72, 56
1, 1286917, Note_off_c, 0, 81, 60
1, 1286987, Note_on_c, 0, 57, 83
1, 1286994, Note_on_c, 0, 45, 75
1, 1286997, Note_on_c, 0, 86, 90
1, 1287014, Note_on_c, 0, 83, 79
1, 1287018, Note_on_c, 0, 74, 80
1, 1287020, Note_off_c, 0, 57, 95
1, 1287030, Note_off_c, 0, 45, 65
1, 1287055, Note_off_c, 0, 83, 54
1, 1287076, Note_off_c, 0, 74, 41
1, 1287080, Note_on_c, 0, 47, 11
1, 1287100, Note_off_c, 0, 47, 48
1, 1287115, Note_on_c, 0, 55, 86
1, 1287119, Note_on_c, 0, 43, 83
1, 1287142, Note_off_c, 0, 55, 70
1, 1287156, Note_off_c, 0, 43, 68
1, 1287162, Note_off_c, 0, 84, 27
1, 1287173, Control_c, 0, 64, 102
1, 1287173, Control_c, 1, 64, 102
1, 1287191, Control_c, 1, 64, 50
1, 1287191, Control_c, 0, 64, 50
1, 1287211, Control_c, 0, 64, 0
1, 1287211, Control_c, 1, 64, 0
1, 1287219, Note_on_c, 0, 84, 84
1, 1287225, Note_on_c, 0, 88, 99
1, 1287237, Note_on_c, 0, 76, 75
1, 1287245, Note_on_c, 0, 36, 85
1, 1287247, Note_on_c, 0, 48, 88
1, 1287249, Note_on_c, 0, 77, 75
1, 1287249, Control_c, 0, 64, 39
1, 1287249, Control_c, 1, 64, 39
1, 1287266, Control_c, 1, 64, 103
1, 1287266, Control_c, 0, 64, 103
1, 1287272, Note_off_c, 0, 48, 70
1, 1287273, Note_off_c, 0, 77, 64
1, 1287274, Note_off_c, 0, 86, 58
1, 1287281, Note_off_c, 0, 36, 63
1, 1287283, Note_off_c, 0, 76, 59
1, 1287284, Note_off_c, 0, 84, 65
1, 1287284, Control_c, 0, 64, 127
1, 1287284, Control_c, 1, 64, 127
1, 1287360, Poly_aftertouch_c, 0, 39, 0
1, 1287406, Poly_aftertouch_c, 0, 38, 0
1, 1287410, Note_on_c, 0, 48, 75
1, 1287410, Note_on_c, 0, 60, 79
1, 1287415, Note_on_c, 0, 90, 91
1, 1287422, Note_on_c, 0, 86, 81
1, 1287427, Note_on_c, 0, 78, 86
1, 1287439, Note_off_c, 0, 60, 68
1, 1287447, Note_off_c, 0, 48, 61
1, 1287504, Note_off_c, 0, 88, 51
1, 1287512, Note_off_c, 0, 86, 57
1, 1287525, Note_off_c, 0, 78, 40
1, 1287533, Note_on_c, 0, 48, 75
1, 1287534, Note_on_c, 0, 60, 59
1, 1287539, Note_on_c, 0, 59, 60
1, 1287559, Note_off_c, 0, 60, 64
1, 1287563, Note_off_c, 0, 59, 61
1, 1287568, Note_off_c, 0, 48, 63
1, 1287605, Control_c, 0, 64, 67
1, 1287605, Control_c, 1, 64, 67
1, 1287623, Control_c, 1, 64, 16
1, 1287623, Control_c, 0, 64, 16
1, 1287632, Note_on_c, 0, 91, 98
1, 1287637, Note_on_c, 0, 87, 81
1, 1287640, Note_on_c, 0, 79, 90
1, 1287643, Note_on_c, 0, 52, 98
1, 1287650, Note_on_c, 0, 40, 86
1, 1287660, Control_c, 0, 64, 26
1, 1287660, Control_c, 1, 64, 26
1, 1287667, Note_on_c, 0, 42, 58
1, 1287672, Note_off_c, 0, 52, 70
1, 1287675, Note_off_c, 0, 87, 62
1, 1287679, Note_off_c, 0, 40, 64
1, 1287679, Note_on_c, 0, 41, 50
1, 1287680, Control_c, 0, 64, 70
1, 1287680, Control_c, 1, 64, 70
1, 1287691, Note_off_c, 0, 90, 66
1, 1287696, Control_c, 0, 64, 127
1, 1287696, Control_c, 1, 64, 127
1, 1287700, Note_off_c, 0, 79, 65
1, 1287703, Note_off_c, 0, 42, 62
1, 1287717, Note_off_c, 0, 41, 54
1, 1287745, Poly_aftertouch_c, 0, 46, 0
1, 1287802, Note_on_c, 0, 64, 90
1, 1287813, Note_on_c, 0, 52, 77
1, 1287824, Note_on_c, 0, 93, 92
1, 1287828, Note_on_c, 0, 81, 87
1, 1287834, Note_on_c, 0, 90, 79
1, 1287836, Note_off_c, 0, 64, 63
1, 1287851, Note_off_c, 0, 52, 62
1, 1287886, Note_on_c, 0, 92, 42
1, 1287907, Note_off_c, 0, 81, 61
1, 1287925, Note_off_c, 0, 92, 56
1, 1287934, Note_off_c, 0, 91, 58
1, 1287936, Note_on_c, 0, 62, 75
1, 1287946, Note_on_c, 0, 50, 84
1, 1287950, Note_off_c, 0, 90, 62
1, 1287968, Note_off_c, 0, 62, 68
1, 1287975, Note_off_c, 0, 50, 69
1, 1287977, Control_c, 0, 64, 114
1, 1287977, Control_c, 1, 64, 114
1, 1287996, Control_c, 1, 64, 56
1, 1287996, Control_c, 0, 64, 56
1, 1288016, Control_c, 0, 64, 13
1, 1288016, Control_c, 1, 64, 13
1, 1288033, Control_c, 1, 64, 17
1, 1288033, Note_on_c, 0, 94, 98
1, 1288033, Control_c, 0, 64, 17
1, 1288040, Note_on_c, 0, 82, 98
1, 1288045, Note_on_c, 0, 91, 86
1, 1288052, Control_c, 0, 64, 51
1, 1288052, Control_c, 1, 64, 51
1, 1288058, Note_on_c, 0, 55, 101
1, 1288068, Note_on_c, 0, 43, 87
1, 1288071, Control_c, 0, 64, 127
1, 1288071, Control_c, 1, 64, 127
1, 1288080, Note_on_c, 0, 45, 68
1, 1288082, Note_off_c, 0, 93, 66
1, 1288091, Note_on_c, 0, 46, 54
1, 1288092, Note_off_c, 0, 55, 62
1, 1288097, Note_off_c, 0, 43, 68
1, 1288113, Note_off_c, 0, 91, 62
1, 1288116, Note_off_c, 0, 45, 65
1, 1288121, Poly_aftertouch_c, 0, 49, 0
1, 1288127, Note_off_c, 0, 46, 58
1, 1288173, Note_off_c, 0, 82, 40
1, 1288185, Poly_aftertouch_c, 0, 49, 127
1, 1288194, Poly_aftertouch_c, 0, 49, 0
1, 1288248, Note_on_c, 0, 69, 81
1, 1288249, Note_on_c, 0, 95, 97
1, 1288250, Note_on_c, 0, 83, 93
1, 1288259, Note_on_c, 0, 55, 64
1, 1288260, Note_on_c, 0, 89, 75
1, 1288262, Note_on_c, 0, 67, 67
1, 1288268, Note_on_c, 0, 57, 55
1, 1288270, Note_off_c, 0, 69, 51
1, 1288290, Note_off_c, 0, 67, 63
1, 1288293, Note_off_c, 0, 94, 61
1, 1288293, Note_on_c, 0, 88, 35
1, 1288298, Note_on_c, 0, 92, 12
1, 1288302, Note_off_c, 0, 55, 50
1, 1288303, Note_off_c, 0, 57, 59
1, 1288323, Poly_aftertouch_c, 0, 94, 0
1, 1288342, Note_off_c, 0, 88, 36
1, 1288364, Note_off_c, 0, 83, 61
1, 1288387, Note_off_c, 0, 92, 22
1, 1288404, Poly_aftertouch_c, 0, 93, 0
1, 1288406, Note_on_c, 0, 62, 74
1, 1288406, Note_on_c, 0, 50, 83
1, 1288435, Note_off_c, 0, 62, 69
1, 1288435, Note_off_c, 0, 50, 69
1, 1288460, Note_on_c, 0, 92, 37
1, 1288479, Note_off_c, 0, 89, 62
1, 1288502, Control_c, 0, 64, 87
1, 1288502, Control_c, 1, 64, 87
1, 1288506, Note_off_c, 0, 92, 56
1, 1288515, Poly_aftertouch_c, 0, 52, 127
1, 1288519, Control_c, 0, 64, 27
1, 1288519, Control_c, 1, 64, 27
1, 1288524, Poly_aftertouch_c, 0, 52, 0
1, 1288538, Note_on_c, 0, 84, 92
1, 1288539, Note_on_c, 0, 88, 92
1, 1288539, Control_c, 0, 64, 0
1, 1288539, Control_c, 1, 64, 0
1, 1288541, Note_on_c, 0, 96, 101
1, 1288566, Note_on_c, 0, 48, 91
1, 1288568, Note_on_c, 0, 36, 91
1, 1288592, Note_off_c, 0, 48, 64
1, 1288596, Control_c, 0, 64, 61
1, 1288596, Control_c, 1, 64, 61
1, 1288601, Note_off_c, 0, 36, 69
1, 1288609, Note_on_c, 0, 39, 34
1, 1288610, Note_off_c, 0, 39, 127
1, 1288615, Control_c, 0, 64, 127
1, 1288615, Control_c, 1, 64, 127
1, 1288616, Note_off_c, 0, 95, 60
1, 1288624, Poly_aftertouch_c, 0, 42, 0
1, 1288632, Note_on_c, 0, 38, 13
1, 1288658, Note_off_c, 0, 84, 65
1, 1288661, Poly_aftertouch_c, 0, 39, 0
1, 1288674, Note_off_c, 0, 88, 59
1, 1288677, Poly_aftertouch_c, 0, 42, 0
1, 1288680, Note_off_c, 0, 38, 43
1, 1288748, Note_on_c, 0, 62, 83
1, 1288757, Note_on_c, 0, 50, 78
1, 1288766, Note_on_c, 0, 95, 50
1, 1288766, Note_on_c, 0, 93, 91
1, 1288771, Note_off_c, 0, 96, 60
1, 1288775, Note_off_c, 0, 62, 70
1, 1288777, Note_on_c, 0, 81, 84
1, 1288787, Note_on_c, 0, 87, 77
1, 1288793, Note_off_c, 0, 50, 71
1, 1288802, Note_off_c, 0, 95, 67
1, 1288824, Note_off_c, 0, 81, 57
1, 1288868, Note_off_c, 0, 87, 56
1, 1288884, Note_off_c, 0, 93, 62
1, 1288902, Note_on_c, 0, 41, 93
1, 1288909, Note_on_c, 0, 53, 75
1, 1288929, Note_off_c, 0, 41, 67
1, 1288934, Note_off_c, 0, 53, 63
1, 1289008, Control_c, 0, 64, 91
1, 1289008, Control_c, 1, 64, 91
1, 1289018, Note_on_c, 0, 86, 81
1, 1289019, Note_on_c, 0, 94, 100
1, 1289025, Note_on_c, 0, 82, 91
1, 1289027, Control_c, 0, 64, 41
1, 1289027, Control_c, 1, 64, 41
1, 1289044, Control_c, 1, 64, 0
1, 1289044, Note_on_c, 0, 34, 86
1, 1289044, Control_c, 0, 64, 0
1, 1289046, Note_on_c, 0, 46, 83
1, 1289064, Control_c, 0, 64, 13
1, 1289064, Control_c, 1, 64, 13
1, 1289072, Note_off_c, 0, 34, 67
1, 1289077, Note_off_c, 0, 46, 65
1, 1289083, Control_c, 0, 64, 57
1, 1289083, Control_c, 1, 64, 57
1, 1289098, Poly_aftertouch_c, 0, 95, 0
1, 1289102, Control_c, 0, 64, 127
1, 1289102, Control_c, 1, 64, 127
1, 1289139, Note_off_c, 0, 82, 63
1, 1289153, Note_off_c, 0, 86, 62
1, 1289193, Poly_aftertouch_c, 0, 37, 0
1, 1289201, Note_on_c, 0, 46, 80
1, 1289203, Note_on_c, 0, 58, 89
1, 1289225, Note_on_c, 0, 86, 88
1, 1289230, Note_on_c, 0, 80, 91
1, 1289233, Note_on_c, 0, 92, 83
1, 1289237, Note_off_c, 0, 58, 64
1, 1289266, Note_off_c, 0, 46, 63
1, 1289266, Poly_aftertouch_c, 0, 34, 0
1, 1289306, Note_off_c, 0, 94, 65
1, 1289354, Note_off_c, 0, 80, 60
1, 1289354, Poly_aftertouch_c, 0, 80, 0
1, 1289360, Note_off_c, 0, 86, 61
1, 1289364, Note_on_c, 0, 40, 84
1, 1289364, Note_on_c, 0, 52, 81
1, 1289376, Note_off_c, 0, 92, 65
1, 1289393, Note_off_c, 0, 52, 67
1, 1289409, Note_off_c, 0, 40, 63
1, 1289414, Note_on_c, 0, 42, 23
1, 1289419, Control_c, 0, 64, 106
1, 1289419, Control_c, 1, 64, 106
1, 1289438, Control_c, 1, 64, 53
1, 1289438, Control_c, 0, 64, 53
1, 1289451, Note_off_c, 0, 42, 45
1, 1289460, Note_on_c, 0, 93, 93
1, 1289464, Note_on_c, 0, 84, 83
1, 1289465, Note_on_c, 0, 81, 82
1, 1289475, Control_c, 0, 64, 11
1, 1289475, Control_c, 1, 64, 11
1, 1289495, Control_c, 1, 64, 44
1, 1289495, Control_c, 0, 64, 44
1, 1289512, Note_on_c, 0, 45, 82
1, 1289513, Note_on_c, 0, 33, 80
1, 1289513, Control_c, 0, 64, 106
1, 1289513, Control_c, 1, 64, 106
1, 1289515, Note_on_c, 0, 43, 69
1, 1289520, Note_on_c, 0, 90, 45
1, 1289526, Note_on_c, 0, 31, 57
1, 1289527, Note_off_c, 0, 31, 127
1, 1289531, Control_c, 0, 64, 127
1, 1289531, Control_c, 1, 64, 127
1, 1289539, Note_off_c, 0, 45, 66
1, 1289545, Note_off_c, 0, 43, 62
1, 1289555, Note_off_c, 0, 33, 63
1, 1289557, Note_on_c, 0, 34, 21
1, 1289570, Poly_aftertouch_c, 0, 31, 0
1, 1289595, Note_off_c, 0, 90, 60
1, 1289608, Note_off_c, 0, 81, 62
1, 1289615, Note_off_c, 0, 34, 44
1, 1289631, Note_off_c, 0, 93, 64
1, 1289662, Note_off_c, 0, 84, 64
1, 1289676, Note_on_c, 0, 57, 85
1, 1289687, Note_on_c, 0, 45, 72
1, 1289694, Note_on_c, 0, 85, 90
1, 1289700, Note_on_c, 0, 47, 51
1, 1289703, Note_on_c, 0, 89, 94
1, 1289707, Note_on_c, 0, 77, 84
1, 1289708, Note_off_c, 0, 57, 95
1, 1289719, Note_off_c, 0, 45, 72
1, 1289742, Note_off_c, 0, 47, 53
1, 1289749, Note_on_c, 0, 87, 19
1, 1289750, Note_off_c, 0, 87, 127
1, 1289787, Note_on_c, 0, 86, 33
1, 1289814, Note_off_c, 0, 85, 65
1, 1289828, Note_off_c, 0, 86, 52
1, 1289831, Note_on_c, 0, 50, 85
1, 1289832, Note_on_c, 0, 38, 86
1, 1289855, Note_off_c, 0, 77, 63
1, 1289862, Note_off_c, 0, 50, 71
1, 1289868, Note_off_c, 0, 89, 64
1, 1289875, Note_off_c, 0, 38, 65
1, 1289948, Note_on_c, 0, 88, 94
1, 1289948, Poly_aftertouch_c, 0, 40, 0
1, 1289960, Note_on_c, 0, 76, 87
1, 1289960, Note_on_c, 0, 80, 85
1, 1289961, Control_c, 0, 64, 58
1, 1289961, Control_c, 1, 64, 58
1, 1289980, Control_c, 1, 64, 0
1, 1289980, Control_c, 0, 64, 0
1, 1289985, Note_on_c, 0, 28, 92
1, 1290036, Control_c, 0, 64, 31
1, 1290036, Control_c, 1, 64, 31
1, 1290057, Control_c, 1, 64, 76
1, 1290057, Control_c, 0, 64, 76
1, 1290061, Note_off_c, 0, 76, 62
1, 1290070, Poly_aftertouch_c, 0, 85, 0
1, 1290076, Control_c, 0, 64, 127
1, 1290076, Control_c, 1, 64, 127
1, 1290083, Note_off_c, 0, 88, 64
1, 1290102, Note_off_c, 0, 28, 62
1, 1290108, Note_off_c, 0, 80, 64
1, 1290108, Poly_aftertouch_c, 0, 80, 0
1, 1290123, Note_on_c, 0, 40, 80
1, 1290166, Note_off_c, 0, 40, 65
1, 1290178, Note_on_c, 0, 80, 74
1, 1290191, Note_on_c, 0, 76, 74
1, 1290192, Note_on_c, 0, 68, 81
1, 1290197, Note_on_c, 0, 70, 64
1, 1290215, Note_on_c, 0, 82, 44
1, 1290218, Note_on_c, 0, 81, 57
1, 1290222, Note_off_c, 0, 70, 64
1, 1290252, Note_off_c, 0, 82, 58
1, 1290252, Note_off_c, 0, 81, 51
1, 1290269, Note_off_c, 0, 68, 60
1, 1290274, Note_off_c, 0, 76, 60
1, 1290276, Poly_aftertouch_c, 0, 77, 0
1, 1290297, Poly_aftertouch_c, 0, 78, 0
1, 1290319, Note_on_c, 0, 40, 81
1, 1290322, Note_on_c, 0, 52, 81
1, 1290352, Note_off_c, 0, 40, 66
1, 1290354, Note_off_c, 0, 52, 69
1, 1290378, Note_off_c, 0, 80, 49
1, 1290378, Poly_aftertouch_c, 0, 80, 0
1, 1290431, Control_c, 0, 64, 79
1, 1290431, Control_c, 1, 64, 79
1, 1290439, Note_on_c, 0, 81, 94
1, 1290443, Note_on_c, 0, 76, 86
1, 1290444, Note_on_c, 0, 69, 91
1, 1290449, Note_on_c, 0, 72, 82
1, 1290449, Control_c, 0, 64, 12
1, 1290449, Control_c, 1, 64, 12
1, 1290455, Poly_aftertouch_c, 0, 41, 0
1, 1290468, Control_c, 0, 64, 0
1, 1290468, Control_c, 1, 64, 0
1, 1290497, Poly_aftertouch_c, 0, 40, 0
1, 1290504, Control_c, 0, 64, 21
1, 1290504, Control_c, 1, 64, 21
1, 1290524, Control_c, 1, 64, 79
1, 1290524, Control_c, 0, 64, 79
1, 1290543, Control_c, 0, 64, 127
1, 1290543, Control_c, 1, 64, 127
1, 1290559, Note_off_c, 0, 69, 57
1, 1290563, Note_off_c, 0, 72, 61
1, 1290592, Note_off_c, 0, 76, 62
1, 1290617, Note_off_c, 0, 81, 63
1, 1290630, Note_on_c, 0, 45, 82
1, 1290632, Note_on_c, 0, 57, 74
1, 1290661, Note_off_c, 0, 45, 69
1, 1290665, Note_off_c, 0, 57, 67
1, 1290696, Note_on_c, 0, 88, 99
1, 1290704, Note_on_c, 0, 76, 99
1, 1290705, Note_on_c, 0, 80, 95
1, 1290706, Note_on_c, 0, 83, 90
1, 1290761, Note_off_c, 0, 83, 60
1, 1290769, Note_off_c, 0, 76, 49
1, 1290782, Note_off_c, 0, 88, 63
1, 1290809, Note_off_c, 0, 80, 52
1, 1290809, Poly_aftertouch_c, 0, 80, 0
1, 1290822, Note_on_c, 0, 52, 85
1, 1290826, Note_on_c, 0, 40, 83
1, 1290857, Note_off_c, 0, 52, 63
1, 1290865, Note_off_c, 0, 40, 68
1, 1290940, Note_on_c, 0, 81, 90
1, 1290945, Note_on_c, 0, 76, 86
1, 1290946, Note_on_c, 0, 69, 92
1, 1290949, Note_on_c, 0, 72, 85
1, 1290951, Poly_aftertouch_c, 0, 50, 0
1, 1290954, Control_c, 0, 64, 58
1, 1290954, Control_c, 1, 64, 58
1, 1290973, Control_c, 1, 64, 0
1, 1290973, Control_c, 0, 64, 0
1, 1291011, Control_c, 0, 64, 23
1, 1291011, Control_c, 1, 64, 23
1, 1291029, Control_c, 1, 64, 69
1, 1291029, Control_c, 0, 64, 69
1, 1291048, Control_c, 0, 64, 127
1, 1291048, Control_c, 1, 64, 127
1, 1291051, Note_off_c, 0, 69, 60
1, 1291062, Note_off_c, 0, 72, 61
1, 1291078, Note_off_c, 0, 76, 62
1, 1291090, Note_on_c, 0, 57, 84
1, 1291091, Note_on_c, 0, 45, 87
1, 1291094, Note_off_c, 0, 81, 63
1, 1291118, Note_off_c, 0, 57, 70
1, 1291137, Note_off_c, 0, 45, 56
1, 1291177, Note_on_c, 0, 88, 99
1, 1291179, Note_on_c, 0, 80, 90
1, 1291181, Note_on_c, 0, 76, 93
1, 1291190, Note_on_c, 0, 85, 71
1, 1291191, Note_on_c, 0, 83, 68
1, 1291196, Note_on_c, 0, 81, 80
1, 1291204, Note_on_c, 0, 74, 55
1, 1291205, Note_off_c, 0, 74, 127
1, 1291220, Note_on_c, 0, 79, 51
1, 1291234, Note_off_c, 0, 81, 49
1, 1291234, Note_off_c, 0, 83, 54
1, 1291234, Note_on_c, 0, 82, 21
1, 1291250, Note_off_c, 0, 79, 57
1, 1291279, Note_off_c, 0, 88, 65
1, 1291279, Note_off_c, 0, 80, 34
1, 1291279, Poly_aftertouch_c, 0, 80, 0
1, 1291288, Note_off_c, 0, 82, 57
1, 1291289, Note_off_c, 0, 85, 35
1, 1291297, Note_on_c, 0, 52, 90
1, 1291298, Note_off_c, 0, 76, 61
1, 1291306, Note_on_c, 0, 40, 85
1, 1291334, Note_off_c, 0, 52, 63
1, 1291342, Note_off_c, 0, 40, 65
1, 1291384, Control_c, 0, 64, 78
1, 1291384, Control_c, 1, 64, 78
1, 1291404, Control_c, 1, 64, 48
1, 1291404, Control_c, 0, 64, 48
1, 1291420, Note_on_c, 0, 81, 92
1, 1291421, Control_c, 0, 64, 45
1, 1291421, Control_c, 1, 64, 45
1, 1291425, Note_on_c, 0, 69, 97
1, 1291429, Note_on_c, 0, 72, 88
1, 1291430, Note_on_c, 0, 76, 86
1, 1291441, Control_c, 0, 64, 62
1, 1291441, Control_c, 1, 64, 62
1, 1291446, Poly_aftertouch_c, 0, 41, 0
1, 1291460, Control_c, 0, 64, 97
1, 1291460, Control_c, 1, 64, 97
1, 1291469, Note_off_c, 0, 72, 54
1, 1291478, Control_c, 0, 64, 127
1, 1291478, Control_c, 1, 64, 127
1, 1291545, Note_off_c, 0, 69, 59
1, 1291566, Note_off_c, 0, 76, 61
1, 1291581, Note_on_c, 0, 57, 83
1, 1291582, Note_on_c, 0, 45, 87
1, 1291583, Note_off_c, 0, 81, 62
1, 1291601, Poly_aftertouch_c, 0, 72, 0
1, 1291617, Note_off_c, 0, 57, 64
1, 1291645, Note_off_c, 0, 45, 61
1, 1291670, Note_on_c, 0, 88, 99
1, 1291672, Note_on_c, 0, 76, 103
1, 1291674, Note_on_c, 0, 80, 97
1, 1291674, Note_on_c, 0, 83, 92
1, 1291683, Control_c, 0, 64, 67
1, 1291683, Control_c, 1, 64, 67
1, 1291703, Control_c, 1, 64, 47
1, 1291703, Control_c, 0, 64, 47
1, 1291719, Note_off_c, 0, 83, 57
1, 1291720, Control_c, 0, 64, 61
1, 1291720, Control_c, 1, 64, 61
1, 1291737, Note_off_c, 0, 80, 61
1, 1291737, Poly_aftertouch_c, 0, 80, 0
1, 1291739, Control_c, 0, 64, 92
1, 1291739, Control_c, 1, 64, 92
1, 1291749, Note_off_c, 0, 76, 58
1, 1291758, Note_off_c, 0, 88, 64
1, 1291758, Control_c, 0, 64, 127
1, 1291758, Control_c, 1, 64, 127
1, 1291776, Note_on_c, 0, 52, 90
1, 1291782, Note_on_c, 0, 40, 85
1, 1291803, Poly_aftertouch_c, 0, 86, 0
1, 1291805, Note_off_c, 0, 52, 66
1, 1291814, Note_off_c, 0, 40, 65
1, 1291835, Note_on_c, 0, 42, 20
1, 1291894, Note_off_c, 0, 42, 39
1, 1291904, Note_on_c, 0, 81, 90
1, 1291908, Note_on_c, 0, 69, 91
1, 1291910, Note_on_c, 0, 72, 87
1, 1291916, Note_on_c, 0, 76, 69
1, 1291931, Poly_aftertouch_c, 0, 41, 0
1, 1291938, Note_on_c, 0, 79, 52
1, 1291938, Note_on_c, 0, 74, 55
1, 1291939, Note_on_c, 0, 78, 41
1, 1291964, Note_off_c, 0, 74, 60
1, 1291969, Note_off_c, 0, 79, 40
1, 1291983, Note_off_c, 0, 78, 50
1, 1292012, Note_off_c, 0, 69, 59
1, 1292017, Note_off_c, 0, 72, 60
1, 1292030, Note_off_c, 0, 76, 60
1, 1292039, Control_c, 0, 64, 76
1, 1292039, Control_c, 1, 64, 76
1, 1292051, Note_on_c, 0, 57, 93
1, 1292054, Note_off_c, 0, 81, 62
1, 1292055, Note_on_c, 0, 45, 92
1, 1292058, Control_c, 0, 64, 34
1, 1292058, Control_c, 1, 64, 34
1, 1292077, Control_c, 1, 64, 24
1, 1292077, Control_c, 0, 64, 24
1, 1292097, Control_c, 0, 64, 43
1, 1292097, Control_c, 1, 64, 43
1, 1292107, Note_off_c, 0, 57, 67
1, 1292113, Control_c, 0, 64, 93
1, 1292113, Control_c, 1, 64, 93
1, 1292126, Note_off_c, 0, 45, 62
1, 1292133, Control_c, 0, 64, 127
1, 1292133, Control_c, 1, 64, 127
1, 1292147, Note_on_c, 0, 88, 98
1, 1292150, Note_on_c, 0, 76, 101
1, 1292151, Note_on_c, 0, 80, 95
1, 1292152, Note_on_c, 0, 83, 92
1, 1292192, Note_off_c, 0, 80, 61
1, 1292192, Note_off_c, 0, 83, 58
1, 1292192, Poly_aftertouch_c, 0, 80, 0
1, 1292198, Note_on_c, 0, 86, 23
1, 1292201, Note_off_c, 0, 76, 58
1, 1292215, Note_off_c, 0, 88, 60
1, 1292244, Note_off_c, 0, 86, 42
1, 1292246, Note_on_c, 0, 52, 89
1, 1292252, Note_on_c, 0, 40, 84
1, 1292282, Note_off_c, 0, 52, 62
1, 1292287, Note_off_c, 0, 40, 65
1, 1292376, Poly_aftertouch_c, 0, 41, 127
1, 1292391, Poly_aftertouch_c, 0, 41, 0
1, 1292541, Note_on_c, 0, 69, 99
1, 1292542, Note_on_c, 0, 81, 97
1, 1292543, Note_on_c, 0, 76, 88
1, 1292545, Control_c, 0, 64, 79
1, 1292545, Control_c, 1, 64, 79
1, 1292546, Note_on_c, 0, 72, 88
1, 1292559, Note_on_c, 0, 45, 85
1, 1292560, Note_on_c, 0, 48, 84
1, 1292561, Note_on_c, 0, 57, 94
1, 1292563, Note_on_c, 0, 52, 84
1, 1292563, Control_c, 0, 64, 34
1, 1292563, Control_c, 1, 64, 34
1, 1292584, Control_c, 1, 64, 0
1, 1292584, Control_c, 0, 64, 0
1, 1292649, Note_on_c, 0, 78, 21
1, 1292672, Note_off_c, 0, 78, 29
1, 1292688, Poly_aftertouch_c, 0, 79, 0
1, 1292770, Control_c, 0, 64, 19
1, 1292770, Control_c, 1, 64, 19
1, 1292788, Control_c, 1, 64, 67
1, 1292788, Control_c, 0, 64, 67
1, 1292808, Control_c, 0, 64, 100
1, 1292808, Control_c, 1, 64, 100
1, 1292827, Control_c, 1, 64, 127
1, 1292827, Control_c, 0, 64, 127
1, 1293049, Note_off_c, 0, 72, 51
1, 1293054, Note_off_c, 0, 69, 53
1, 1293092, Note_off_c, 0, 57, 55
1, 1293105, Note_off_c, 0, 45, 50
1, 1293110, Note_off_c, 0, 76, 59
1, 1293134, Note_off_c, 0, 81, 58
1, 1293140, Note_off_c, 0, 52, 57
1, 1293152, Note_off_c, 0, 48, 59
1, 1293406, Control_c, 0, 64, 93
1, 1293406, Control_c, 1, 64, 93
1, 1293425, Control_c, 1, 64, 61
1, 1293425, Control_c, 0, 64, 61
1, 1293444, Control_c, 0, 64, 28
1, 1293444, Control_c, 1, 64, 28
1, 1293462, Control_c, 1, 64, 0
1, 1293462, Control_c, 0, 64, 0
1, 1293744, Control_c, 0, 64, 12
1, 1293744, Control_c, 1, 64, 12
1, 1293757, Note_on_c, 0, 88, 98
1, 1293758, Note_on_c, 0, 80, 92
1, 1293759, Note_on_c, 0, 76, 99
1, 1293762, Note_on_c, 0, 83, 92
1, 1293762, Control_c, 0, 64, 127
1, 1293762, Control_c, 1, 64, 127
1, 1293766, Note_on_c, 0, 40, 84
1, 1293767, Note_off_c, 0, 40, 127
1, 1293767, Note_on_c, 0, 44, 85
1, 1293768, Note_off_c, 0, 44, 127
1, 1293768, Note_on_c, 0, 52, 96
1, 1293769, Note_off_c, 0, 52, 127
1, 1293784, Note_on_c, 0, 47, 65
1, 1293813, Note_on_c, 0, 85, 33
1, 1293822, Note_on_c, 0, 86, 50
1, 1293825, Poly_aftertouch_c, 0, 40, 127
1, 1293831, Poly_aftertouch_c, 0, 44, 127
1, 1293832, Poly_aftertouch_c, 0, 52, 127
1, 1293850, Poly_aftertouch_c, 0, 52, 0
1, 1293860, Note_off_c, 0, 85, 52
1, 1293865, Note_off_c, 0, 86, 47
1, 1293873, Poly_aftertouch_c, 0, 40, 0
1, 1293882, Note_off_c, 0, 47, 61
1, 1293912, Poly_aftertouch_c, 0, 44, 0
1, 1293980, Note_on_c, 0, 86, 18
1, 1294078, Note_off_c, 0, 86, 37
1, 1294623, Note_on_c, 0, 21, 88
1, 1294643, Control_c, 0, 64, 80
1, 1294643, Control_c, 1, 64, 80
1, 1294661, Control_c, 1, 64, 9
1, 1294661, Control_c, 0, 64, 9
1, 1294679, Control_c, 0, 64, 0
1, 1294679, Control_c, 1, 64, 0
1, 1294818, Note_on_c, 0, 33, 99
1, 1294819, Note_off_c, 0, 76, 60
1, 1294828, Control_c, 0, 64, 127
1, 1294828, Control_c, 1, 64, 127
1, 1294847, Note_off_c, 0, 83, 60
1, 1294847, Note_off_c, 0, 80, 62
1, 1294847, Poly_aftertouch_c, 0, 80, 0
1, 1294850, Note_off_c, 0, 21, 61
1, 1294857, Note_off_c, 0, 88, 65
1, 1294881, Note_off_c, 0, 33, 63
1, 1295275, Note_on_c, 0, 81, 104
1, 1295277, Note_on_c, 0, 93, 106
1, 1295278, Note_on_c, 0, 84, 100
1, 1295279, Note_on_c, 0, 60, 102
1, 1295282, Note_on_c, 0, 57, 96
1, 1295285, Note_on_c, 0, 52, 93
1, 1295286, Note_off_c, 0, 52, 127
1, 1295314, Note_on_c, 0, 90, 66
1, 1295350, Note_off_c, 0, 90, 68
1, 1295351, Poly_aftertouch_c, 0, 52, 127
1, 1295396, Poly_aftertouch_c, 0, 54, 127
1, 1295398, Poly_aftertouch_c, 0, 58, 0
1, 1295434, Poly_aftertouch_c, 0, 54, 0
1, 1297335, Poly_aftertouch_c, 0, 81, 24
1, 1297338, Poly_aftertouch_c, 0, 60, 24
1, 1297356, Note_off_c, 0, 81, 48
1, 1297356, Poly_aftertouch_c, 0, 81, 0
1, 1297379, Note_off_c, 0, 60, 44
1, 1297379, Poly_aftertouch_c, 0, 60, 0
1, 1297483, Note_off_c, 0, 84, 43
1, 1297491, Note_off_c, 0, 57, 62
1, 1297511, Note_off_c, 0, 93, 66
1, 1297526, Poly_aftertouch_c, 0, 52, 0
1, 1298329, Control_c, 0, 64, 102
1, 1298329, Control_c, 1, 64, 102
1, 1298347, Control_c, 1, 64, 86
1, 1298347, Control_c, 0, 64, 86
1, 1298367, Control_c, 0, 64, 73
1, 1298367, Control_c, 1, 64, 73
1, 1298385, Control_c, 1, 64, 63
1, 1298385, Control_c, 0, 64, 63
1, 1298404, Control_c, 0, 64, 57
1, 1298404, Control_c, 1, 64, 57
1, 1298422, Control_c, 1, 64, 51
1, 1298422, Control_c, 0, 64, 51
1, 1298442, Control_c, 0, 64, 42
1, 1298442, Control_c, 1, 64, 42
1, 1298460, Control_c, 1, 64, 29
1, 1298460, Control_c, 0, 64, 29
1, 1298479, Control_c, 0, 64, 14
1, 1298479, Control_c, 1, 64, 14
1, 1298516, Control_c, 1, 64, 0
1, 1298516, Control_c, 0, 64, 0
1, 1300415, Poly_aftertouch_c, 0, 60, 0
1, 1300415, Poly_aftertouch_c, 0, 80, 0
1, 1300415, Poly_aftertouch_c, 0, 81, 0
1, 1300415, End_track
0, 0, End_of_file
