0, 0, Header, 1, 6, 480
1, 0, Start_track
1, 0, Title_t, "Untitled"
1, 0, Copyright_t, "\012__________________________________________________________\012Kunst der Fuge comment: this is the Contributor's property.\012Can *not* be used for commercial purposes without authorization!\012Copyright by Contributor - Kunst der Fuge, © 2002-05\012http://www.kunstderfuge.com/thanks.htm -> Contributors' list\012http://www.kunstderfuge.com/notes.htm -> Terms & conditions"
1, 0, Time_signature, 3, 3, 12, 8
1, 0, Key_signature, 0, "major"
1, 0, Tempo, 500000
1, 0, Marker_t, "Brahms"
1, 480, Tempo, 1764706
1, 720, Tempo, 1666667
1, 720, Marker_t, "Variation "
1, 1320, Tempo, 1764706
1, 1380, Tempo, 1818182
1, 1440, Tempo, 1666667
1, 1440, Marker_t, "Op. 21-1 "
1, 2040, Tempo, 1764706
1, 2160, Tempo, 1666667
1, 2160, Marker_t, "Bunji Hisamori "
1, 2760, Tempo, 1764706
1, 2880, Marker_t, "Mar.   1999 "
1, 3480, Tempo, 1935484
1, 3600, Tempo, 1666667
1, 3600, Marker_t, "July 1888, Rev.1"
1, 4200, Tempo, 1764706
1, 4320, Tempo, 1666667
1, 4560, Tempo, 1666667
1, 4920, Tempo, 1764706
1, 5040, Tempo, 1666667
1, 5640, Tempo, 1764706
1, 5760, Tempo, 1666667
1, 6360, Tempo, 1764706
1, 6840, Tempo, 1818182
1, 6960, Tempo, 2068966
1, 7140, Tempo, 2068966
1, 7200, Tempo, 1666667
1, 7800, Tempo, 1764706
1, 7860, Tempo, 1818182
1, 7920, Tempo, 1666667
1, 8520, Tempo, 1764706
1, 8640, Tempo, 1666667
1, 9240, Tempo, 1764706
1, 9960, Tempo, 1935484
1, 10080, Tempo, 1666667
1, 10680, Tempo, 1764706
1, 10800, Tempo, 1666667
1, 11040, Tempo, 1666667
1, 11400, Tempo, 1764706
1, 11520, Tempo, 1666667
1, 12120, Tempo, 1764706
1, 12240, Tempo, 1666667
1, 12840, Tempo, 1764706
1, 13320, Tempo, 1818182
1, 13440, Tempo, 1935484
1, 13620, Tempo, 2142857
1, 13680, Tempo, 1666667
1, 14280, Tempo, 1764706
1, 14400, Tempo, 1666667
1, 15000, Tempo, 1818182
1, 15120, Tempo, 1666667
1, 15720, Tempo, 1764706
1, 15840, Tempo, 1666667
1, 16417, Tempo, 1764706
1, 16477, Tempo, 1818182
1, 16560, Tempo, 1666667
1, 17160, Tempo, 1764706
1, 17220, Tempo, 1818182
1, 17280, Tempo, 1666667
1, 17580, Tempo, 1764706
1, 17880, Tempo, 1818182
1, 18000, Tempo, 1764706
1, 18547, Tempo, 1935484
1, 19080, Tempo, 2068966
1, 19200, Tempo, 2222222
1, 19320, Tempo, 2727273
1, 19440, Tempo, 6000000
1, 19920, Tempo, 1200000
1, 19920, Marker_t, "1"
1, 20100, Tempo, 1224490
1, 20160, Tempo, 1200000
1, 20880, Tempo, 1200000
1, 25800, Tempo, 1224490
1, 26302, Tempo, 1276596
1, 26400, Tempo, 1200000
1, 26580, Tempo, 1363636
1, 26640, Tempo, 1200000
1, 27360, Tempo, 1200000
1, 32280, Tempo, 1224490
1, 32782, Tempo, 1276596
1, 32880, Tempo, 1200000
1, 33060, Tempo, 1363636
1, 33120, Tempo, 1200000
1, 35220, Tempo, 1224490
1, 35280, Tempo, 1200000
1, 38580, Tempo, 1224490
1, 39060, Tempo, 1276596
1, 39240, Tempo, 1333333
1, 39360, Tempo, 1500000
1, 39480, Tempo, 7500000
1, 39600, Tempo, 1132075
1, 39600, Marker_t, "2"
1, 40280, Tempo, 1176471
1, 40320, Tempo, 1132075
1, 41000, Tempo, 1176471
1, 41040, Tempo, 1132075
1, 41720, Tempo, 1176471
1, 41760, Tempo, 1132075
1, 42320, Tempo, 1176471
1, 42400, Tempo, 1276596
1, 42480, Tempo, 1132075
1, 43160, Tempo, 1176471
1, 43200, Tempo, 1132075
1, 43880, Tempo, 1176471
1, 43920, Tempo, 1132075
1, 44600, Tempo, 1176471
1, 44640, Tempo, 1132075
1, 45320, Tempo, 1176471
1, 45920, Tempo, 1224490
1, 46000, Tempo, 1363636
1, 46080, Tempo, 1132075
1, 46760, Tempo, 1176471
1, 46800, Tempo, 1132075
1, 47480, Tempo, 1176471
1, 47520, Tempo, 1132075
1, 48200, Tempo, 1176471
1, 48240, Tempo, 1132075
1, 48800, Tempo, 1176471
1, 48880, Tempo, 1276596
1, 48960, Tempo, 1132075
1, 49640, Tempo, 1176471
1, 49680, Tempo, 1132075
1, 50360, Tempo, 1176471
1, 50400, Tempo, 1132075
1, 51080, Tempo, 1176471
1, 51120, Tempo, 1132075
1, 51800, Tempo, 1176471
1, 52400, Tempo, 1224490
1, 52480, Tempo, 1363636
1, 52560, Tempo, 1132075
1, 53240, Tempo, 1176471
1, 53280, Tempo, 1132075
1, 53960, Tempo, 1176471
1, 54000, Tempo, 1132075
1, 54680, Tempo, 1176471
1, 54720, Tempo, 1132075
1, 55280, Tempo, 1176471
1, 55360, Tempo, 1276596
1, 55440, Tempo, 1132075
1, 56120, Tempo, 1176471
1, 56160, Tempo, 1132075
1, 56840, Tempo, 1176471
1, 56880, Tempo, 1132075
1, 57486, Tempo, 1224490
1, 57600, Tempo, 1176471
1, 58020, Tempo, 1224490
1, 58080, Tempo, 1276596
1, 58200, Tempo, 1333333
1, 58320, Tempo, 1276596
1, 58440, Tempo, 1764706
1, 58560, Tempo, 6000000
1, 58800, Tempo, 1666667
1, 58800, Marker_t, "3"
1, 59040, Tempo, 1578947
1, 59460, Tempo, 1666667
1, 59520, Tempo, 1578947
1, 59640, Tempo, 1666667
1, 59760, Tempo, 1578947
1, 60180, Tempo, 1666667
1, 60240, Tempo, 1578947
1, 60360, Tempo, 1666667
1, 60480, Tempo, 1578947
1, 60900, Tempo, 1666667
1, 61500, Tempo, 1764706
1, 61680, Tempo, 1578947
1, 61860, Tempo, 1666667
1, 61920, Tempo, 1578947
1, 62340, Tempo, 1666667
1, 62400, Tempo, 1578947
1, 62520, Tempo, 1666667
1, 62640, Tempo, 1578947
1, 63060, Tempo, 1666667
1, 63120, Tempo, 1578947
1, 63240, Tempo, 1666667
1, 63360, Tempo, 1578947
1, 63780, Tempo, 1666667
1, 63840, Tempo, 1578947
1, 63960, Tempo, 1666667
1, 64080, Tempo, 1578947
1, 64500, Tempo, 1666667
1, 64560, Tempo, 1578947
1, 64680, Tempo, 1666667
1, 64980, Tempo, 1764706
1, 65108, Tempo, 1935484
1, 65280, Tempo, 1666667
1, 65520, Tempo, 1578947
1, 65940, Tempo, 1666667
1, 66000, Tempo, 1578947
1, 66120, Tempo, 1666667
1, 66240, Tempo, 1578947
1, 66660, Tempo, 1666667
1, 66720, Tempo, 1578947
1, 66840, Tempo, 1666667
1, 66960, Tempo, 1578947
1, 67380, Tempo, 1666667
1, 67980, Tempo, 1764706
1, 68160, Tempo, 1578947
1, 68340, Tempo, 1666667
1, 68400, Tempo, 1578947
1, 68820, Tempo, 1666667
1, 68880, Tempo, 1578947
1, 69000, Tempo, 1666667
1, 69120, Tempo, 1578947
1, 69540, Tempo, 1666667
1, 69600, Tempo, 1578947
1, 69720, Tempo, 1666667
1, 69840, Tempo, 1578947
1, 70260, Tempo, 1666667
1, 70320, Tempo, 1578947
1, 70440, Tempo, 1666667
1, 70560, Tempo, 1578947
1, 70980, Tempo, 1666667
1, 71040, Tempo, 1578947
1, 71160, Tempo, 1666667
1, 71460, Tempo, 1764706
1, 71588, Tempo, 1935484
1, 71760, Tempo, 1666667
1, 72000, Tempo, 1578947
1, 72420, Tempo, 1666667
1, 72480, Tempo, 1578947
1, 72600, Tempo, 1666667
1, 72720, Tempo, 1578947
1, 73140, Tempo, 1666667
1, 73200, Tempo, 1578947
1, 73320, Tempo, 1666667
1, 73440, Tempo, 1578947
1, 73860, Tempo, 1666667
1, 73920, Tempo, 1578947
1, 74040, Tempo, 1666667
1, 74160, Tempo, 1578947
1, 74520, Tempo, 1666667
1, 74640, Tempo, 1578947
1, 74760, Tempo, 1666667
1, 74880, Tempo, 1578947
1, 75300, Tempo, 1666667
1, 75360, Tempo, 1578947
1, 75480, Tempo, 1666667
1, 75600, Tempo, 1578947
1, 76020, Tempo, 1666667
1, 76080, Tempo, 1578947
1, 76200, Tempo, 1666667
1, 76320, Tempo, 1578947
1, 76740, Tempo, 1666667
1, 77400, Tempo, 1818182
1, 77520, Tempo, 1935484
1, 77640, Tempo, 2400000
1, 77760, Tempo, 2727273
1, 78480, Tempo, 1071429
1, 78480, Marker_t, "4"
1, 81180, Tempo, 1111111
1, 81240, Tempo, 1132075
1, 81360, Tempo, 1071429
1, 82680, Tempo, 1111111
1, 82800, Tempo, 1071429
1, 84142, Tempo, 1111111
1, 84697, Tempo, 1132075
1, 84840, Tempo, 1363636
1, 84960, Tempo, 1071429
1, 87660, Tempo, 1111111
1, 87720, Tempo, 1132075
1, 87840, Tempo, 1071429
1, 89160, Tempo, 1111111
1, 89280, Tempo, 1071429
1, 90622, Tempo, 1111111
1, 91177, Tempo, 1132075
1, 91320, Tempo, 1333333
1, 91440, Tempo, 1071429
1, 94080, Tempo, 1111111
1, 94200, Tempo, 1276596
1, 94320, Tempo, 1071429
1, 95640, Tempo, 1111111
1, 95720, Tempo, 1111111
1, 95760, Tempo, 1071429
1, 97080, Tempo, 1132075
1, 97200, Tempo, 1111111
1, 97320, Tempo, 1132075
1, 97440, Tempo, 1176471
1, 97560, Tempo, 1500000
1, 97680, Tempo, 3333333
1, 97920, Tempo, 750000
1, 97920, Marker_t, "5"
1, 98394, Tempo, 1666667
1, 98580, Tempo, 1764706
1, 98640, Tempo, 1666667
1, 99300, Tempo, 1764706
1, 99360, Tempo, 1666667
1, 100020, Tempo, 1764706
1, 100080, Tempo, 1666667
1, 100740, Tempo, 1764706
1, 100800, Tempo, 1666667
1, 101460, Tempo, 1764706
1, 101520, Tempo, 1666667
1, 102180, Tempo, 1764706
1, 102240, Tempo, 1666667
1, 102900, Tempo, 1764706
1, 102960, Tempo, 1666667
1, 103620, Tempo, 1764706
1, 103680, Tempo, 1666667
1, 104340, Tempo, 1764706
1, 104760, Tempo, 1818182
1, 104820, Tempo, 2068966
1, 104880, Tempo, 1666667
1, 105060, Tempo, 1764706
1, 105120, Tempo, 1666667
1, 105780, Tempo, 1764706
1, 105840, Tempo, 1666667
1, 106500, Tempo, 1764706
1, 106560, Tempo, 1666667
1, 107220, Tempo, 1764706
1, 107280, Tempo, 1666667
1, 107940, Tempo, 1764706
1, 108000, Tempo, 1666667
1, 108660, Tempo, 1764706
1, 108720, Tempo, 1666667
1, 109380, Tempo, 1764706
1, 109440, Tempo, 1666667
1, 110100, Tempo, 1764706
1, 110160, Tempo, 1666667
1, 110820, Tempo, 1764706
1, 111240, Tempo, 1818182
1, 111300, Tempo, 2068966
1, 111360, Tempo, 1666667
1, 111540, Tempo, 1764706
1, 111600, Tempo, 1666667
1, 112260, Tempo, 1764706
1, 112320, Tempo, 1666667
1, 112980, Tempo, 1764706
1, 113040, Tempo, 1666667
1, 113700, Tempo, 1764706
1, 113760, Tempo, 1666667
1, 114420, Tempo, 1764706
1, 114480, Tempo, 1666667
1, 115140, Tempo, 2068966
1, 115200, Tempo, 1666667
1, 115860, Tempo, 1818182
1, 115920, Tempo, 1666667
1, 116580, Tempo, 1764706
1, 116640, Tempo, 1666667
1, 117300, Tempo, 1764706
1, 117920, Tempo, 1875000
1, 118000, Tempo, 3333333
1, 118080, Tempo, 1333333
1, 118080, Marker_t, "6"
1, 118720, Tempo, 1363636
1, 118800, Tempo, 1333333
1, 119440, Tempo, 1363636
1, 119520, Tempo, 1333333
1, 120160, Tempo, 1363636
1, 120240, Tempo, 1333333
1, 120840, Tempo, 1363636
1, 120880, Tempo, 1578947
1, 120960, Tempo, 1333333
1, 121600, Tempo, 1363636
1, 121680, Tempo, 1333333
1, 122320, Tempo, 1428571
1, 122400, Tempo, 1333333
1, 123040, Tempo, 1363636
1, 123120, Tempo, 1333333
1, 123760, Tempo, 1428571
1, 123840, Tempo, 1363636
1, 124440, Tempo, 1428571
1, 124480, Tempo, 1578947
1, 124560, Tempo, 1333333
1, 125200, Tempo, 1363636
1, 125280, Tempo, 1333333
1, 125920, Tempo, 1363636
1, 126000, Tempo, 1333333
1, 126640, Tempo, 1363636
1, 126720, Tempo, 1333333
1, 127320, Tempo, 1363636
1, 127360, Tempo, 1578947
1, 127440, Tempo, 1333333
1, 128080, Tempo, 1363636
1, 128160, Tempo, 1333333
1, 128800, Tempo, 1428571
1, 128880, Tempo, 1333333
1, 129520, Tempo, 1363636
1, 129600, Tempo, 1333333
1, 130240, Tempo, 1428571
1, 130320, Tempo, 1363636
1, 130920, Tempo, 1428571
1, 130960, Tempo, 1578947
1, 131040, Tempo, 1333333
1, 131680, Tempo, 1363636
1, 131760, Tempo, 1333333
1, 132400, Tempo, 1428571
1, 132480, Tempo, 1333333
1, 133120, Tempo, 1363636
1, 133200, Tempo, 1333333
1, 133840, Tempo, 1428571
1, 133920, Tempo, 1333333
1, 134560, Tempo, 1363636
1, 134640, Tempo, 1333333
1, 135280, Tempo, 1363636
1, 135360, Tempo, 1333333
1, 136000, Tempo, 1428571
1, 136080, Tempo, 1333333
1, 136720, Tempo, 1363636
1, 137400, Tempo, 1428571
1, 137440, Tempo, 1578947
1, 137480, Tempo, 2727273
1, 137520, Time_signature, 2, 2, 24, 8
1, 137520, Tempo, 1224490
1, 137520, Marker_t, "7"
1, 137640, Tempo, 1176471
1, 138440, Tempo, 1224490
1, 138600, Tempo, 1176471
1, 139400, Tempo, 1224490
1, 139560, Tempo, 1176471
1, 140360, Tempo, 1224490
1, 140520, Tempo, 1176471
1, 141180, Tempo, 1224490
1, 141234, Tempo, 1363636
1, 141360, Tempo, 1224490
1, 141480, Tempo, 1176471
1, 142280, Tempo, 1224490
1, 142440, Tempo, 1176471
1, 143240, Tempo, 1224490
1, 143400, Tempo, 1176471
1, 144200, Tempo, 1224490
1, 144360, Tempo, 1176471
1, 145140, Tempo, 1224490
1, 145200, Tempo, 1224490
1, 145560, Tempo, 1276596
1, 145920, Tempo, 1333333
1, 146040, Tempo, 1666667
1, 146160, Tempo, 1224490
1, 146280, Tempo, 1176471
1, 147080, Tempo, 1224490
1, 147240, Tempo, 1176471
1, 148040, Tempo, 1224490
1, 148200, Tempo, 1176471
1, 149000, Tempo, 1224490
1, 149160, Tempo, 1176471
1, 149820, Tempo, 1224490
1, 149874, Tempo, 1363636
1, 150000, Tempo, 1224490
1, 150120, Tempo, 1176471
1, 150920, Tempo, 1224490
1, 151080, Tempo, 1176471
1, 151880, Tempo, 1224490
1, 152040, Tempo, 1176471
1, 152840, Tempo, 1224490
1, 153000, Tempo, 1176471
1, 153780, Tempo, 1224490
1, 153840, Tempo, 1224490
1, 154200, Tempo, 1276596
1, 154560, Tempo, 1333333
1, 154680, Tempo, 1666667
1, 154800, Tempo, 1276596
1, 154920, Tempo, 1176471
1, 155720, Tempo, 1224490
1, 155880, Tempo, 1176471
1, 156680, Tempo, 1224490
1, 156840, Tempo, 1176471
1, 157640, Tempo, 1224490
1, 158040, Tempo, 1276596
1, 158480, Tempo, 1333333
1, 158520, Tempo, 1428571
1, 158640, Tempo, 1224490
1, 158760, Tempo, 1176471
1, 159560, Tempo, 1224490
1, 159720, Tempo, 1176471
1, 160520, Tempo, 1224490
1, 160680, Tempo, 1176471
1, 161480, Tempo, 1224490
1, 161640, Tempo, 1176471
1, 162420, Tempo, 1224490
1, 162900, Tempo, 1276596
1, 162960, Tempo, 1333333
1, 163080, Tempo, 2068966
1, 163200, Tempo, 2727273
1, 163440, Tempo, 2068966
1, 163440, Marker_t, "8"
1, 163920, Tempo, 666667
1, 163980, Tempo, 659341
1, 164280, Tempo, 659341
1, 168180, Tempo, 666667
1, 168240, Tempo, 659341
1, 172810, Tempo, 666667
1, 172920, Tempo, 722892
1, 173040, Tempo, 659341
1, 176820, Tempo, 666667
1, 176880, Tempo, 659341
1, 181450, Tempo, 666667
1, 181560, Tempo, 722892
1, 181680, Tempo, 659341
1, 185460, Tempo, 666667
1, 185520, Tempo, 659341
1, 188340, Tempo, 666667
1, 188400, Tempo, 659341
1, 191040, Tempo, 674157
1, 191160, Tempo, 750000
1, 191280, Tempo, 638298
1, 191280, Marker_t, "9"
1, 192180, Tempo, 652174
1, 192240, Tempo, 638298
1, 193140, Tempo, 652174
1, 193200, Tempo, 638298
1, 194100, Tempo, 652174
1, 194160, Tempo, 638298
1, 195000, Tempo, 652174
1, 195060, Tempo, 674157
1, 195120, Tempo, 638298
1, 196020, Tempo, 652174
1, 196080, Tempo, 638298
1, 196980, Tempo, 652174
1, 197040, Tempo, 638298
1, 197940, Tempo, 652174
1, 198000, Tempo, 638298
1, 198420, Tempo, 652174
1, 198480, Tempo, 638298
1, 198900, Tempo, 652174
1, 198960, Tempo, 638298
1, 199792, Tempo, 652174
1, 199920, Tempo, 638298
1, 199920, Marker_t, "New Marker 19"
1, 200820, Tempo, 652174
1, 200880, Tempo, 638298
1, 201780, Tempo, 652174
1, 201840, Tempo, 638298
1, 202740, Tempo, 652174
1, 202800, Tempo, 638298
1, 203640, Tempo, 652174
1, 203700, Tempo, 674157
1, 203760, Tempo, 638298
1, 204660, Tempo, 652174
1, 204720, Tempo, 638298
1, 205620, Tempo, 652174
1, 205680, Tempo, 638298
1, 206580, Tempo, 652174
1, 206640, Tempo, 638298
1, 207060, Tempo, 652174
1, 207120, Tempo, 638298
1, 207540, Tempo, 652174
1, 207600, Tempo, 638298
1, 208432, Tempo, 652174
1, 208560, Tempo, 638298
1, 209460, Tempo, 652174
1, 209520, Tempo, 638298
1, 210420, Tempo, 652174
1, 210480, Tempo, 638298
1, 211380, Tempo, 652174
1, 211440, Tempo, 638298
1, 212340, Tempo, 652174
1, 212400, Tempo, 638298
1, 212820, Tempo, 652174
1, 212880, Tempo, 638298
1, 213300, Tempo, 652174
1, 213360, Tempo, 638298
1, 213780, Tempo, 652174
1, 213840, Tempo, 638298
1, 214260, Tempo, 652174
1, 214320, Tempo, 638298
1, 214740, Tempo, 652174
1, 214800, Tempo, 638298
1, 215220, Tempo, 652174
1, 215280, Tempo, 638298
1, 216110, Tempo, 652174
1, 216720, Tempo, 705882
1, 217200, Tempo, 750000
1, 217200, Marker_t, "10"
1, 218100, Tempo, 769231
1, 218160, Tempo, 750000
1, 219060, Tempo, 769231
1, 219120, Tempo, 750000
1, 220020, Tempo, 769231
1, 220080, Tempo, 750000
1, 220920, Tempo, 769231
1, 221047, Tempo, 750000
1, 221940, Tempo, 769231
1, 222000, Tempo, 750000
1, 222900, Tempo, 769231
1, 222960, Tempo, 750000
1, 223860, Tempo, 769231
1, 223920, Tempo, 750000
1, 224820, Tempo, 769231
1, 224880, Tempo, 750000
1, 225720, Tempo, 789474
1, 225840, Tempo, 750000
1, 226740, Tempo, 769231
1, 226800, Tempo, 750000
1, 227700, Tempo, 769231
1, 227760, Tempo, 750000
1, 228660, Tempo, 769231
1, 228720, Tempo, 750000
1, 229560, Tempo, 769231
1, 229687, Tempo, 750000
1, 230580, Tempo, 769231
1, 230640, Tempo, 750000
1, 231540, Tempo, 769231
1, 231600, Tempo, 750000
1, 232500, Tempo, 769231
1, 232560, Tempo, 750000
1, 233460, Tempo, 769231
1, 233520, Tempo, 750000
1, 234360, Tempo, 769231
1, 234480, Tempo, 750000
1, 235380, Tempo, 769231
1, 235440, Tempo, 750000
1, 236340, Tempo, 769231
1, 236400, Tempo, 750000
1, 237300, Tempo, 769231
1, 237360, Tempo, 750000
1, 238200, Tempo, 769231
1, 238320, Tempo, 750000
1, 239220, Tempo, 769231
1, 239280, Tempo, 750000
1, 240180, Tempo, 769231
1, 240240, Tempo, 750000
1, 241100, Tempo, 769231
1, 242060, Tempo, 810811
1, 242160, Tempo, 789474
1, 242580, Tempo, 810811
1, 242760, Tempo, 869565
1, 242880, Tempo, 1935484
1, 243120, Time_signature, 3, 3, 12, 8
1, 243120, Tempo, 1764706
1, 243120, Marker_t, "11"
1, 243800, Tempo, 1818182
1, 243840, Tempo, 1764706
1, 244520, Tempo, 1818182
1, 244560, Tempo, 1764706
1, 245240, Tempo, 1818182
1, 245280, Tempo, 1764706
1, 245960, Tempo, 1818182
1, 246000, Tempo, 1764706
1, 246680, Tempo, 1818182
1, 246720, Tempo, 1764706
1, 247400, Tempo, 1818182
1, 247440, Tempo, 1764706
1, 248120, Tempo, 1818182
1, 248160, Tempo, 1764706
1, 248840, Tempo, 1818182
1, 248880, Tempo, 1764706
1, 249080, Tempo, 1818182
1, 249120, Tempo, 1764706
1, 249320, Tempo, 1818182
1, 249520, Tempo, 1935484
1, 249560, Tempo, 2500000
1, 249600, Tempo, 1764706
1, 250280, Tempo, 1818182
1, 250320, Tempo, 1764706
1, 251000, Tempo, 1818182
1, 251040, Tempo, 1764706
1, 251720, Tempo, 1818182
1, 251760, Tempo, 1764706
1, 252440, Tempo, 1818182
1, 252480, Tempo, 1764706
1, 253160, Tempo, 1818182
1, 253200, Tempo, 1764706
1, 253880, Tempo, 1818182
1, 253920, Tempo, 1764706
1, 254600, Tempo, 1818182
1, 254640, Tempo, 1764706
1, 255320, Tempo, 1818182
1, 255360, Tempo, 1764706
1, 255800, Tempo, 1818182
1, 256000, Tempo, 1935484
1, 256040, Tempo, 2400000
1, 256080, Tempo, 1764706
1, 256760, Tempo, 1818182
1, 256800, Tempo, 1764706
1, 257480, Tempo, 1818182
1, 257520, Tempo, 1764706
1, 258200, Tempo, 1818182
1, 258240, Tempo, 1764706
1, 258920, Tempo, 1818182
1, 258960, Tempo, 1764706
1, 259640, Tempo, 1818182
1, 259680, Tempo, 1764706
1, 260360, Tempo, 1818182
1, 260400, Tempo, 1764706
1, 261080, Tempo, 1818182
1, 261120, Tempo, 1764706
1, 261800, Tempo, 1818182
1, 261840, Tempo, 1764706
1, 262040, Tempo, 1818182
1, 262080, Tempo, 1764706
1, 262280, Tempo, 1818182
1, 262480, Tempo, 1935484
1, 262520, Tempo, 2400000
1, 262560, Tempo, 1764706
1, 263240, Tempo, 1818182
1, 263280, Tempo, 1764706
1, 263960, Tempo, 1818182
1, 264000, Tempo, 1764706
1, 264680, Tempo, 1818182
1, 264720, Tempo, 1764706
1, 265400, Tempo, 1818182
1, 265440, Tempo, 1764706
1, 266120, Tempo, 1818182
1, 266160, Tempo, 1764706
1, 266840, Tempo, 1818182
1, 266880, Tempo, 1764706
1, 267560, Tempo, 1818182
1, 267600, Tempo, 1764706
1, 268280, Tempo, 1818182
1, 268760, Tempo, 1935484
1, 268960, Tempo, 2068966
1, 269000, Tempo, 2727273
1, 269040, Tempo, 1764706
1, 269720, Tempo, 1818182
1, 269760, Tempo, 1764706
1, 270440, Tempo, 1818182
1, 270480, Tempo, 1764706
1, 271160, Tempo, 1818182
1, 271200, Tempo, 1764706
1, 271880, Tempo, 1818182
1, 271920, Tempo, 1764706
1, 272600, Tempo, 1818182
1, 272640, Tempo, 1764706
1, 273320, Tempo, 1818182
1, 273360, Tempo, 1764706
1, 274040, Tempo, 1818182
1, 274080, Tempo, 1764706
1, 274760, Tempo, 1818182
1, 274800, Tempo, 1764706
1, 275480, Tempo, 1818182
1, 275520, Tempo, 1764706
1, 276200, Tempo, 1818182
1, 276240, Tempo, 1764706
1, 276920, Tempo, 1818182
1, 276960, Tempo, 1764706
1, 277640, Tempo, 1818182
1, 277680, Tempo, 1764706
1, 278360, Tempo, 1818182
1, 278400, Tempo, 1764706
1, 279080, Tempo, 1818182
1, 279120, Tempo, 1764706
1, 279800, Tempo, 1818182
1, 279840, Tempo, 1764706
1, 280520, Tempo, 1818182
1, 280560, Tempo, 1764706
1, 281240, Tempo, 1818182
1, 281280, Tempo, 1764706
1, 281960, Tempo, 1818182
1, 282680, Tempo, 1935484
1, 283400, Tempo, 2068966
1, 283880, Tempo, 2222222
1, 283980, Tempo, 2400000
1, 284040, Tempo, 2500000
1, 284100, Tempo, 2727273
1, 284160, Tempo, 1935484
1, 284160, Marker_t, "vv"
1, 284400, Tempo, 1764706
1, 284840, Tempo, 1818182
1, 284880, Tempo, 1764706
1, 285560, Tempo, 1818182
1, 285600, Tempo, 1764706
1, 286280, Tempo, 1818182
1, 286320, Tempo, 1764706
1, 287000, Tempo, 1818182
1, 287040, Tempo, 1764706
1, 287720, Tempo, 1818182
1, 287760, Tempo, 1764706
1, 288440, Tempo, 1818182
1, 288480, Tempo, 1764706
1, 289160, Tempo, 1818182
1, 289200, Tempo, 1764706
1, 289880, Tempo, 1818182
1, 289920, Tempo, 1764706
1, 290600, Tempo, 1818182
1, 290640, Tempo, 1764706
1, 291320, Tempo, 1818182
1, 291360, Tempo, 1764706
1, 292040, Tempo, 1818182
1, 292080, Tempo, 1764706
1, 292760, Tempo, 1818182
1, 292800, Tempo, 1764706
1, 293480, Tempo, 1818182
1, 293520, Tempo, 1764706
1, 294200, Tempo, 1818182
1, 294240, Tempo, 1764706
1, 294920, Tempo, 1818182
1, 294960, Tempo, 1764706
1, 295640, Tempo, 1818182
1, 295680, Tempo, 1764706
1, 296360, Tempo, 1818182
1, 296400, Tempo, 1764706
1, 297080, Tempo, 1818182
1, 297120, Tempo, 1764706
1, 297800, Tempo, 1818182
1, 297840, Tempo, 1764706
1, 298380, Tempo, 1818182
1, 298495, Tempo, 2400000
1, 298560, Tempo, 1764706
1, 299240, Tempo, 1818182
1, 299280, Tempo, 1764706
1, 299960, Tempo, 1818182
1, 300000, Tempo, 1764706
1, 300680, Tempo, 1818182
1, 300720, Tempo, 1764706
1, 301400, Tempo, 1818182
1, 301440, Tempo, 1764706
1, 302120, Tempo, 1818182
1, 302160, Tempo, 1764706
1, 302840, Tempo, 1818182
1, 302880, Tempo, 1764706
1, 303486, Tempo, 1818182
1, 303600, Tempo, 1764706
1, 304206, Tempo, 1818182
1, 304920, Tempo, 1935484
1, 305652, Tempo, 2222222
1, 305760, Tempo, 2068966
1, 306180, Tempo, 2400000
1, 306360, Tempo, 2222222
1, 306540, Tempo, 2727273
1, 306540, End_track
2, 0, Start_track
2, 0, Title_t, "Unnamed Track"
2, 0, Control_c, 0, 0, 0
2, 0, Control_c, 0, 7, 115
2, 0, Control_c, 0, 10, 95
2, 0, Control_c, 0, 91, 100
2, 0, Control_c, 0, 93, 28
2, 0, Control_c, 0, 64, 0
2, 0, Control_c, 0, 64, 0
2, 0, Pitch_bend_c, 0, 8192
2, 0, Control_c, 0, 1, 0
2, 1, Control_c, 0, 32, 0
2, 1, Program_c, 0, 0
2, 240, Control_c, 0, 64, 0
2, 480, Note_on_c, 0, 69, 66
2, 720, Note_on_c, 0, 69, 0
2, 720, Control_c, 0, 64, 0
2, 720, Note_on_c, 0, 69, 67
2, 960, Note_on_c, 0, 69, 0
2, 960, Note_on_c, 0, 74, 67
2, 1200, Note_on_c, 0, 74, 0
2, 1200, Note_on_c, 0, 73, 68
2, 1440, Note_on_c, 0, 73, 0
2, 1440, Note_on_c, 0, 71, 69
2, 1680, Note_on_c, 0, 71, 0
2, 1680, Note_on_c, 0, 79, 70
2, 1920, Note_on_c, 0, 79, 0
2, 1920, Note_on_c, 0, 78, 71
2, 2160, Note_on_c, 0, 78, 0
2, 2160, Note_on_c, 0, 76, 71
2, 2400, Note_on_c, 0, 76, 0
2, 2400, Note_on_c, 0, 71, 71
2, 2520, Note_on_c, 0, 71, 0
2, 2520, Note_on_c, 0, 73, 72
2, 2640, Note_on_c, 0, 73, 0
2, 2640, Note_on_c, 0, 74, 72
2, 2760, Note_on_c, 0, 74, 0
2, 2760, Note_on_c, 0, 76, 73
2, 2880, Note_on_c, 0, 76, 0
2, 2880, Note_on_c, 0, 74, 74
2, 3120, Note_on_c, 0, 74, 0
2, 3120, Note_on_c, 0, 73, 71
2, 3360, Note_on_c, 0, 73, 0
2, 3360, Note_on_c, 0, 71, 64
2, 3566, Note_on_c, 0, 71, 0
2, 3600, Note_on_c, 0, 69, 66
2, 3840, Note_on_c, 0, 69, 0
2, 3840, Note_on_c, 0, 76, 68
2, 4080, Note_on_c, 0, 76, 0
2, 4080, Note_on_c, 0, 74, 70
2, 4320, Note_on_c, 0, 74, 0
2, 4320, Note_on_c, 0, 73, 69
2, 4360, Note_on_c, 0, 73, 0
2, 4360, Note_on_c, 0, 74, 69
2, 4400, Note_on_c, 0, 74, 0
2, 4400, Note_on_c, 0, 73, 70
2, 4440, Note_on_c, 0, 73, 0
2, 4440, Note_on_c, 0, 71, 70
2, 4480, Note_on_c, 0, 71, 0
2, 4500, Note_on_c, 0, 73, 71
2, 4560, Note_on_c, 0, 73, 0
2, 4560, Note_on_c, 0, 83, 72
2, 4800, Note_on_c, 0, 83, 0
2, 4800, Note_on_c, 0, 81, 75
2, 5040, Note_on_c, 0, 81, 0
2, 5040, Note_on_c, 0, 81, 78
2, 5400, Note_on_c, 0, 81, 0
2, 5400, Note_on_c, 0, 81, 73
2, 5520, Note_on_c, 0, 81, 0
2, 5520, Note_on_c, 0, 80, 72
2, 5640, Note_on_c, 0, 80, 0
2, 5640, Note_on_c, 0, 81, 70
2, 5760, Note_on_c, 0, 81, 0
2, 5760, Note_on_c, 0, 76, 69
2, 6120, Note_on_c, 0, 76, 0
2, 6120, Note_on_c, 0, 76, 65
2, 6240, Note_on_c, 0, 76, 0
2, 6240, Note_on_c, 0, 75, 67
2, 6360, Note_on_c, 0, 75, 0
2, 6360, Note_on_c, 0, 76, 70
2, 6480, Note_on_c, 0, 76, 0
2, 6480, Note_on_c, 0, 69, 75
2, 6960, Note_on_c, 0, 69, 0
2, 6960, Note_on_c, 0, 69, 63
2, 7162, Note_on_c, 0, 69, 0
2, 7200, Control_c, 0, 64, 0
2, 7200, Note_on_c, 0, 69, 67
2, 7440, Note_on_c, 0, 69, 0
2, 7440, Note_on_c, 0, 74, 67
2, 7680, Note_on_c, 0, 74, 0
2, 7680, Note_on_c, 0, 73, 68
2, 7920, Note_on_c, 0, 73, 0
2, 7920, Note_on_c, 0, 71, 69
2, 8160, Note_on_c, 0, 71, 0
2, 8160, Note_on_c, 0, 79, 70
2, 8400, Note_on_c, 0, 79, 0
2, 8400, Note_on_c, 0, 78, 71
2, 8640, Note_on_c, 0, 78, 0
2, 8640, Note_on_c, 0, 76, 71
2, 8880, Note_on_c, 0, 76, 0
2, 8880, Note_on_c, 0, 71, 71
2, 9000, Note_on_c, 0, 71, 0
2, 9000, Note_on_c, 0, 73, 72
2, 9120, Note_on_c, 0, 73, 0
2, 9120, Note_on_c, 0, 74, 72
2, 9240, Note_on_c, 0, 74, 0
2, 9240, Note_on_c, 0, 76, 73
2, 9360, Note_on_c, 0, 76, 0
2, 9360, Note_on_c, 0, 74, 74
2, 9600, Note_on_c, 0, 74, 0
2, 9600, Note_on_c, 0, 73, 71
2, 9840, Note_on_c, 0, 73, 0
2, 9840, Note_on_c, 0, 71, 64
2, 10046, Note_on_c, 0, 71, 0
2, 10080, Note_on_c, 0, 69, 66
2, 10320, Note_on_c, 0, 69, 0
2, 10320, Note_on_c, 0, 76, 68
2, 10560, Note_on_c, 0, 76, 0
2, 10560, Note_on_c, 0, 74, 70
2, 10800, Note_on_c, 0, 74, 0
2, 10800, Note_on_c, 0, 73, 69
2, 10840, Note_on_c, 0, 73, 0
2, 10840, Note_on_c, 0, 74, 69
2, 10880, Note_on_c, 0, 74, 0
2, 10880, Note_on_c, 0, 73, 70
2, 10920, Note_on_c, 0, 73, 0
2, 10920, Note_on_c, 0, 71, 70
2, 10960, Note_on_c, 0, 71, 0
2, 10980, Note_on_c, 0, 73, 71
2, 11040, Note_on_c, 0, 73, 0
2, 11040, Note_on_c, 0, 83, 72
2, 11280, Note_on_c, 0, 83, 0
2, 11280, Note_on_c, 0, 81, 75
2, 11520, Note_on_c, 0, 81, 0
2, 11520, Note_on_c, 0, 81, 78
2, 11880, Note_on_c, 0, 81, 0
2, 11880, Note_on_c, 0, 81, 73
2, 12000, Note_on_c, 0, 81, 0
2, 12000, Note_on_c, 0, 80, 72
2, 12120, Note_on_c, 0, 80, 0
2, 12120, Note_on_c, 0, 81, 70
2, 12240, Note_on_c, 0, 81, 0
2, 12240, Note_on_c, 0, 76, 69
2, 12600, Note_on_c, 0, 76, 0
2, 12600, Note_on_c, 0, 76, 65
2, 12720, Note_on_c, 0, 76, 0
2, 12720, Note_on_c, 0, 75, 67
2, 12840, Note_on_c, 0, 75, 0
2, 12840, Note_on_c, 0, 76, 70
2, 12960, Note_on_c, 0, 76, 0
2, 12960, Note_on_c, 0, 69, 75
2, 13440, Note_on_c, 0, 69, 0
2, 13440, Note_on_c, 0, 69, 63
2, 13642, Note_on_c, 0, 69, 0
2, 13680, Control_c, 0, 64, 0
2, 13680, Note_on_c, 0, 69, 63
2, 13720, Note_on_c, 0, 69, 0
2, 13720, Note_on_c, 0, 70, 64
2, 13760, Note_on_c, 0, 70, 0
2, 13760, Note_on_c, 0, 69, 64
2, 13800, Note_on_c, 0, 69, 0
2, 13800, Note_on_c, 0, 68, 65
2, 13860, Note_on_c, 0, 68, 0
2, 13860, Note_on_c, 0, 69, 65
2, 13920, Note_on_c, 0, 69, 0
2, 13920, Note_on_c, 0, 79, 66
2, 14160, Note_on_c, 0, 79, 0
2, 14160, Note_on_c, 0, 77, 68
2, 14400, Note_on_c, 0, 77, 0
2, 14400, Note_on_c, 0, 72, 71
2, 14880, Note_on_c, 0, 72, 0
2, 14880, Note_on_c, 0, 72, 64
2, 15120, Note_on_c, 0, 72, 0
2, 15120, Note_on_c, 0, 72, 67
2, 15160, Note_on_c, 0, 72, 0
2, 15160, Note_on_c, 0, 74, 67
2, 15200, Note_on_c, 0, 74, 0
2, 15200, Note_on_c, 0, 72, 67
2, 15240, Note_on_c, 0, 72, 0
2, 15240, Note_on_c, 0, 71, 68
2, 15300, Note_on_c, 0, 71, 0
2, 15300, Note_on_c, 0, 72, 68
2, 15360, Note_on_c, 0, 72, 0
2, 15360, Note_on_c, 0, 82, 69
2, 15600, Note_on_c, 0, 82, 0
2, 15600, Note_on_c, 0, 81, 71
2, 15840, Note_on_c, 0, 81, 0
2, 15840, Note_on_c, 0, 76, 75
2, 16200, Note_on_c, 0, 76, 0
2, 16200, Note_on_c, 0, 78, 71
2, 16440, Note_on_c, 0, 78, 0
2, 16440, Note_on_c, 0, 79, 76
2, 16560, Note_on_c, 0, 79, 0
2, 16560, Note_on_c, 0, 81, 77
2, 16920, Note_on_c, 0, 81, 0
2, 16920, Note_on_c, 0, 81, 74
2, 17040, Note_on_c, 0, 81, 0
2, 17040, Note_on_c, 0, 80, 75
2, 17160, Note_on_c, 0, 80, 0
2, 17160, Note_on_c, 0, 81, 76
2, 17280, Note_on_c, 0, 81, 0
2, 17280, Note_on_c, 0, 74, 78
2, 17640, Note_on_c, 0, 74, 0
2, 17640, Note_on_c, 0, 74, 82
2, 17760, Note_on_c, 0, 74, 0
2, 17760, Note_on_c, 0, 73, 84
2, 17880, Note_on_c, 0, 73, 0
2, 17880, Note_on_c, 0, 74, 85
2, 18000, Note_on_c, 0, 74, 0
2, 18000, Note_on_c, 0, 74, 86
2, 18240, Note_on_c, 0, 74, 0
2, 18240, Note_on_c, 0, 66, 82
2, 18480, Note_on_c, 0, 66, 0
2, 18480, Note_on_c, 0, 67, 78
2, 18720, Note_on_c, 0, 67, 0
2, 18720, Note_on_c, 0, 69, 74
2, 18960, Note_on_c, 0, 69, 0
2, 18960, Note_on_c, 0, 61, 70
2, 19320, Note_on_c, 0, 61, 0
2, 19320, Note_on_c, 0, 62, 63
2, 19440, Note_on_c, 0, 62, 0
2, 19440, Note_on_c, 0, 62, 61
2, 19882, Note_on_c, 0, 62, 0
2, 20160, Control_c, 0, 64, 0
2, 22800, Note_on_c, 0, 67, 43
2, 22920, Note_on_c, 0, 67, 0
2, 22920, Note_on_c, 0, 66, 43
2, 23040, Note_on_c, 0, 66, 0
2, 23040, Note_on_c, 0, 64, 43
2, 23520, Note_on_c, 0, 64, 0
2, 23520, Note_on_c, 0, 69, 44
2, 23640, Note_on_c, 0, 69, 0
2, 23640, Note_on_c, 0, 67, 45
2, 23760, Note_on_c, 0, 67, 0
2, 23760, Note_on_c, 0, 66, 45
2, 24240, Note_on_c, 0, 66, 0
2, 24240, Note_on_c, 0, 69, 46
2, 24360, Note_on_c, 0, 69, 0
2, 24360, Note_on_c, 0, 66, 46
2, 24480, Note_on_c, 0, 66, 0
2, 24480, Note_on_c, 0, 64, 47
2, 24960, Note_on_c, 0, 64, 0
2, 24960, Note_on_c, 0, 69, 46
2, 25080, Note_on_c, 0, 69, 0
2, 25080, Note_on_c, 0, 67, 45
2, 25200, Note_on_c, 0, 67, 0
2, 25200, Note_on_c, 0, 62, 45
2, 25680, Note_on_c, 0, 62, 0
2, 25680, Note_on_c, 0, 66, 43
2, 25800, Note_on_c, 0, 66, 0
2, 25800, Note_on_c, 0, 62, 42
2, 26160, Note_on_c, 0, 62, 0
2, 26160, Note_on_c, 0, 61, 41
2, 26400, Note_on_c, 0, 61, 0
2, 26640, Control_c, 0, 64, 0
2, 29280, Note_on_c, 0, 67, 43
2, 29400, Note_on_c, 0, 67, 0
2, 29400, Note_on_c, 0, 66, 43
2, 29520, Note_on_c, 0, 66, 0
2, 29520, Note_on_c, 0, 64, 43
2, 30000, Note_on_c, 0, 64, 0
2, 30000, Note_on_c, 0, 69, 44
2, 30120, Note_on_c, 0, 69, 0
2, 30120, Note_on_c, 0, 67, 45
2, 30240, Note_on_c, 0, 67, 0
2, 30240, Note_on_c, 0, 66, 45
2, 30720, Note_on_c, 0, 66, 0
2, 30720, Note_on_c, 0, 69, 46
2, 30840, Note_on_c, 0, 69, 0
2, 30840, Note_on_c, 0, 66, 46
2, 30960, Note_on_c, 0, 66, 0
2, 30960, Note_on_c, 0, 64, 47
2, 31440, Note_on_c, 0, 64, 0
2, 31440, Note_on_c, 0, 69, 46
2, 31560, Note_on_c, 0, 69, 0
2, 31560, Note_on_c, 0, 67, 45
2, 31680, Note_on_c, 0, 67, 0
2, 31680, Note_on_c, 0, 62, 45
2, 32160, Note_on_c, 0, 62, 0
2, 32160, Note_on_c, 0, 66, 43
2, 32280, Note_on_c, 0, 66, 0
2, 32280, Note_on_c, 0, 62, 42
2, 32640, Note_on_c, 0, 62, 0
2, 32640, Note_on_c, 0, 61, 41
2, 32880, Note_on_c, 0, 61, 0
2, 33120, Control_c, 0, 64, 0
2, 35280, Note_on_c, 0, 67, 63
2, 35760, Note_on_c, 0, 67, 0
2, 35760, Note_on_c, 0, 69, 62
2, 35880, Note_on_c, 0, 69, 0
2, 35880, Note_on_c, 0, 67, 62
2, 36000, Note_on_c, 0, 67, 0
2, 36000, Note_on_c, 0, 66, 63
2, 36480, Note_on_c, 0, 66, 0
2, 36480, Note_on_c, 0, 69, 60
2, 36600, Note_on_c, 0, 69, 0
2, 36600, Note_on_c, 0, 66, 59
2, 36720, Note_on_c, 0, 66, 0
2, 36720, Note_on_c, 0, 62, 59
2, 37200, Note_on_c, 0, 62, 0
2, 37200, Note_on_c, 0, 67, 55
2, 37320, Note_on_c, 0, 67, 0
2, 37320, Note_on_c, 0, 62, 54
2, 37440, Note_on_c, 0, 62, 0
2, 37440, Note_on_c, 0, 61, 54
2, 37920, Note_on_c, 0, 61, 0
2, 37920, Note_on_c, 0, 64, 50
2, 38040, Note_on_c, 0, 64, 0
2, 38040, Note_on_c, 0, 61, 50
2, 38160, Note_on_c, 0, 61, 0
2, 38160, Note_on_c, 0, 59, 49
2, 38640, Note_on_c, 0, 59, 0
2, 38640, Note_on_c, 0, 58, 46
2, 39120, Note_on_c, 0, 58, 0
2, 39120, Note_on_c, 0, 57, 42
2, 39600, Note_on_c, 0, 57, 0
2, 39600, Control_c, 0, 64, 0
2, 39600, Note_on_c, 0, 66, 48
2, 40080, Note_on_c, 0, 66, 0
2, 40080, Note_on_c, 0, 69, 51
2, 40320, Note_on_c, 0, 69, 0
2, 40320, Note_on_c, 0, 74, 52
2, 40800, Note_on_c, 0, 74, 0
2, 40800, Note_on_c, 0, 78, 56
2, 41040, Note_on_c, 0, 78, 0
2, 41040, Note_on_c, 0, 79, 57
2, 41520, Note_on_c, 0, 79, 0
2, 41520, Note_on_c, 0, 76, 54
2, 41760, Note_on_c, 0, 76, 0
2, 41760, Note_on_c, 0, 74, 53
2, 42240, Note_on_c, 0, 74, 0
2, 42240, Note_on_c, 0, 73, 49
2, 42442, Note_on_c, 0, 73, 0
2, 42480, Note_on_c, 0, 69, 50
2, 42960, Note_on_c, 0, 69, 0
2, 42960, Note_on_c, 0, 74, 52
2, 43200, Note_on_c, 0, 74, 0
2, 43200, Note_on_c, 0, 76, 53
2, 43680, Note_on_c, 0, 76, 0
2, 43680, Note_on_c, 0, 81, 56
2, 43920, Note_on_c, 0, 81, 0
2, 43920, Note_on_c, 0, 87, 57
2, 44400, Note_on_c, 0, 87, 0
2, 44400, Note_on_c, 0, 90, 59
2, 44640, Note_on_c, 0, 90, 0
2, 44640, Note_on_c, 0, 88, 60
2, 45120, Note_on_c, 0, 88, 0
2, 45120, Note_on_c, 0, 83, 62
2, 45360, Note_on_c, 0, 83, 0
2, 45360, Note_on_c, 0, 86, 63
2, 45840, Note_on_c, 0, 86, 0
2, 45840, Note_on_c, 0, 85, 53
2, 46038, Note_on_c, 0, 85, 0
2, 46080, Control_c, 0, 64, 0
2, 46080, Note_on_c, 0, 66, 48
2, 46560, Note_on_c, 0, 66, 0
2, 46560, Note_on_c, 0, 69, 51
2, 46800, Note_on_c, 0, 69, 0
2, 46800, Note_on_c, 0, 74, 52
2, 47280, Note_on_c, 0, 74, 0
2, 47280, Note_on_c, 0, 78, 56
2, 47520, Note_on_c, 0, 78, 0
2, 47520, Note_on_c, 0, 79, 57
2, 48000, Note_on_c, 0, 79, 0
2, 48000, Note_on_c, 0, 76, 54
2, 48240, Note_on_c, 0, 76, 0
2, 48240, Note_on_c, 0, 74, 53
2, 48720, Note_on_c, 0, 74, 0
2, 48720, Note_on_c, 0, 73, 49
2, 48922, Note_on_c, 0, 73, 0
2, 48960, Note_on_c, 0, 69, 50
2, 49440, Note_on_c, 0, 69, 0
2, 49440, Note_on_c, 0, 74, 52
2, 49680, Note_on_c, 0, 74, 0
2, 49680, Note_on_c, 0, 76, 53
2, 50160, Note_on_c, 0, 76, 0
2, 50160, Note_on_c, 0, 81, 56
2, 50400, Note_on_c, 0, 81, 0
2, 50400, Note_on_c, 0, 87, 57
2, 50880, Note_on_c, 0, 87, 0
2, 50880, Note_on_c, 0, 90, 59
2, 51120, Note_on_c, 0, 90, 0
2, 51120, Note_on_c, 0, 88, 60
2, 51600, Note_on_c, 0, 88, 0
2, 51600, Note_on_c, 0, 83, 62
2, 51840, Note_on_c, 0, 83, 0
2, 51840, Note_on_c, 0, 86, 63
2, 52320, Note_on_c, 0, 86, 0
2, 52320, Note_on_c, 0, 85, 53
2, 52518, Note_on_c, 0, 85, 0
2, 52560, Control_c, 0, 64, 0
2, 52560, Note_on_c, 0, 65, 52
2, 53040, Note_on_c, 0, 65, 0
2, 53040, Note_on_c, 0, 69, 53
2, 53280, Note_on_c, 0, 69, 0
2, 53280, Note_on_c, 0, 74, 54
2, 53760, Note_on_c, 0, 74, 0
2, 53760, Note_on_c, 0, 77, 56
2, 54000, Note_on_c, 0, 77, 0
2, 54000, Note_on_c, 0, 82, 57
2, 54480, Note_on_c, 0, 82, 0
2, 54480, Note_on_c, 0, 83, 58
2, 54720, Note_on_c, 0, 83, 0
2, 54720, Note_on_c, 0, 79, 61
2, 55200, Note_on_c, 0, 79, 0
2, 55200, Note_on_c, 0, 78, 53
2, 55406, Note_on_c, 0, 78, 0
2, 55680, Note_on_c, 0, 72, 55
2, 55920, Note_on_c, 0, 72, 0
2, 55920, Note_on_c, 0, 71, 57
2, 56160, Note_on_c, 0, 71, 0
2, 56160, Note_on_c, 0, 77, 59
2, 57120, Note_on_c, 0, 77, 0
2, 57120, Note_on_c, 0, 76, 52
2, 57360, Note_on_c, 0, 76, 0
2, 57360, Note_on_c, 0, 74, 51
2, 57600, Note_on_c, 0, 74, 0
2, 57600, Note_on_c, 0, 69, 49
2, 58320, Note_on_c, 0, 69, 0
2, 58320, Note_on_c, 0, 62, 45
2, 58766, Note_on_c, 0, 62, 0
2, 58800, Control_c, 0, 64, 0
2, 58800, Note_on_c, 0, 69, 50
2, 59040, Control_c, 0, 64, 0
2, 59280, Note_on_c, 0, 69, 0
2, 59280, Note_on_c, 0, 66, 51
2, 59436, Note_on_c, 0, 66, 0
2, 59520, Note_on_c, 0, 74, 54
2, 60000, Note_on_c, 0, 74, 0
2, 60000, Note_on_c, 0, 71, 55
2, 60192, Note_on_c, 0, 71, 0
2, 60240, Note_on_c, 0, 79, 59
2, 60720, Note_on_c, 0, 79, 0
2, 60720, Note_on_c, 0, 76, 54
2, 60876, Note_on_c, 0, 76, 0
2, 60960, Note_on_c, 0, 74, 55
2, 61200, Note_on_c, 0, 74, 0
2, 61200, Note_on_c, 0, 73, 53
2, 61440, Note_on_c, 0, 73, 0
2, 61440, Note_on_c, 0, 71, 50
2, 61596, Note_on_c, 0, 71, 0
2, 61680, Note_on_c, 0, 69, 52
2, 62160, Note_on_c, 0, 69, 0
2, 62160, Note_on_c, 0, 67, 52
2, 62316, Note_on_c, 0, 67, 0
2, 62400, Note_on_c, 0, 81, 54
2, 62880, Note_on_c, 0, 81, 0
2, 62880, Note_on_c, 0, 79, 60
2, 63036, Note_on_c, 0, 79, 0
2, 63120, Note_on_c, 0, 67, 59
2, 63600, Note_on_c, 0, 67, 0
2, 63600, Note_on_c, 0, 66, 64
2, 63756, Note_on_c, 0, 66, 0
2, 63840, Note_on_c, 0, 78, 68
2, 64320, Note_on_c, 0, 78, 0
2, 64320, Note_on_c, 0, 77, 62
2, 64476, Note_on_c, 0, 77, 0
2, 64560, Note_on_c, 0, 64, 62
2, 65040, Note_on_c, 0, 64, 0
2, 65040, Note_on_c, 0, 61, 54
2, 65196, Note_on_c, 0, 61, 0
2, 65280, Control_c, 0, 64, 0
2, 65280, Note_on_c, 0, 69, 50
2, 65520, Control_c, 0, 64, 0
2, 65760, Note_on_c, 0, 69, 0
2, 65760, Note_on_c, 0, 66, 51
2, 65916, Note_on_c, 0, 66, 0
2, 66000, Note_on_c, 0, 74, 54
2, 66480, Note_on_c, 0, 74, 0
2, 66480, Note_on_c, 0, 71, 55
2, 66672, Note_on_c, 0, 71, 0
2, 66720, Note_on_c, 0, 79, 59
2, 67200, Note_on_c, 0, 79, 0
2, 67200, Note_on_c, 0, 76, 54
2, 67356, Note_on_c, 0, 76, 0
2, 67440, Note_on_c, 0, 74, 55
2, 67680, Note_on_c, 0, 74, 0
2, 67680, Note_on_c, 0, 73, 53
2, 67920, Note_on_c, 0, 73, 0
2, 67920, Note_on_c, 0, 71, 50
2, 68076, Note_on_c, 0, 71, 0
2, 68160, Note_on_c, 0, 69, 52
2, 68640, Note_on_c, 0, 69, 0
2, 68640, Note_on_c, 0, 67, 52
2, 68796, Note_on_c, 0, 67, 0
2, 68880, Note_on_c, 0, 81, 54
2, 69360, Note_on_c, 0, 81, 0
2, 69360, Note_on_c, 0, 79, 60
2, 69516, Note_on_c, 0, 79, 0
2, 69600, Note_on_c, 0, 67, 59
2, 70080, Note_on_c, 0, 67, 0
2, 70080, Note_on_c, 0, 66, 64
2, 70236, Note_on_c, 0, 66, 0
2, 70320, Note_on_c, 0, 78, 68
2, 70800, Note_on_c, 0, 78, 0
2, 70800, Note_on_c, 0, 77, 62
2, 70956, Note_on_c, 0, 77, 0
2, 71040, Note_on_c, 0, 64, 62
2, 71520, Note_on_c, 0, 64, 0
2, 71520, Note_on_c, 0, 61, 54
2, 71676, Note_on_c, 0, 61, 0
2, 71760, Control_c, 0, 64, 0
2, 71760, Note_on_c, 0, 69, 56
2, 72240, Note_on_c, 0, 69, 0
2, 72240, Note_on_c, 0, 67, 56
2, 72396, Note_on_c, 0, 67, 0
2, 72480, Note_on_c, 0, 79, 63
2, 72960, Note_on_c, 0, 79, 0
2, 72960, Note_on_c, 0, 77, 57
2, 73116, Note_on_c, 0, 77, 0
2, 73200, Note_on_c, 0, 65, 59
2, 73680, Note_on_c, 0, 65, 0
2, 73680, Note_on_c, 0, 64, 54
2, 73836, Note_on_c, 0, 64, 0
2, 73920, Note_on_c, 0, 64, 54
2, 74400, Note_on_c, 0, 64, 0
2, 74400, Note_on_c, 0, 62, 48
2, 74556, Note_on_c, 0, 62, 0
2, 74640, Note_on_c, 0, 69, 54
2, 75120, Note_on_c, 0, 69, 0
2, 75120, Note_on_c, 0, 62, 54
2, 75276, Note_on_c, 0, 62, 0
2, 75360, Note_on_c, 0, 81, 62
2, 75840, Note_on_c, 0, 81, 0
2, 75840, Note_on_c, 0, 74, 62
2, 75996, Note_on_c, 0, 74, 0
2, 76080, Note_on_c, 0, 62, 70
2, 76560, Note_on_c, 0, 62, 0
2, 76560, Note_on_c, 0, 59, 66
2, 76716, Note_on_c, 0, 59, 0
2, 76800, Note_on_c, 0, 79, 78
2, 77280, Note_on_c, 0, 79, 0
2, 77280, Note_on_c, 0, 76, 71
2, 77520, Note_on_c, 0, 76, 0
2, 77520, Note_on_c, 0, 73, 62
2, 77760, Note_on_c, 0, 73, 0
2, 77760, Note_on_c, 0, 74, 53
2, 78210, Note_on_c, 0, 74, 0
2, 78240, Control_c, 0, 64, 0
2, 78480, Control_c, 0, 64, 0
2, 78480, Note_on_c, 0, 78, 58
2, 78600, Note_on_c, 0, 78, 0
2, 78600, Note_on_c, 0, 81, 60
2, 78696, Note_on_c, 0, 81, 0
2, 78720, Note_on_c, 0, 81, 61
2, 78840, Note_on_c, 0, 81, 0
2, 78840, Note_on_c, 0, 74, 62
2, 78936, Note_on_c, 0, 74, 0
2, 78960, Note_on_c, 0, 74, 63
2, 79080, Note_on_c, 0, 74, 0
2, 79080, Note_on_c, 0, 78, 64
2, 79176, Note_on_c, 0, 78, 0
2, 79200, Note_on_c, 0, 78, 65
2, 79320, Note_on_c, 0, 78, 0
2, 79320, Note_on_c, 0, 71, 61
2, 79416, Note_on_c, 0, 71, 0
2, 79440, Note_on_c, 0, 71, 61
2, 79560, Note_on_c, 0, 71, 0
2, 79560, Note_on_c, 0, 74, 60
2, 79656, Note_on_c, 0, 74, 0
2, 79680, Note_on_c, 0, 74, 59
2, 79800, Note_on_c, 0, 74, 0
2, 79800, Note_on_c, 0, 67, 59
2, 79896, Note_on_c, 0, 67, 0
2, 79920, Note_on_c, 0, 67, 58
2, 80040, Note_on_c, 0, 67, 0
2, 80040, Note_on_c, 0, 66, 58
2, 80136, Note_on_c, 0, 66, 0
2, 80160, Note_on_c, 0, 66, 57
2, 80280, Note_on_c, 0, 66, 0
2, 80280, Note_on_c, 0, 64, 57
2, 80376, Note_on_c, 0, 64, 0
2, 80400, Note_on_c, 0, 67, 56
2, 80520, Note_on_c, 0, 67, 0
2, 80520, Note_on_c, 0, 66, 55
2, 80616, Note_on_c, 0, 66, 0
2, 80640, Note_on_c, 0, 66, 55
2, 80760, Note_on_c, 0, 66, 0
2, 80760, Note_on_c, 0, 64, 57
2, 80856, Note_on_c, 0, 64, 0
2, 80880, Note_on_c, 0, 71, 60
2, 81000, Note_on_c, 0, 71, 0
2, 81000, Note_on_c, 0, 69, 59
2, 81096, Note_on_c, 0, 69, 0
2, 81120, Note_on_c, 0, 69, 57
2, 81240, Note_on_c, 0, 69, 0
2, 81240, Note_on_c, 0, 67, 55
2, 81336, Note_on_c, 0, 67, 0
2, 81360, Note_on_c, 0, 79, 56
2, 81480, Note_on_c, 0, 79, 0
2, 81480, Note_on_c, 0, 83, 57
2, 81576, Note_on_c, 0, 83, 0
2, 81600, Note_on_c, 0, 83, 58
2, 81720, Note_on_c, 0, 83, 0
2, 81720, Note_on_c, 0, 76, 59
2, 81816, Note_on_c, 0, 76, 0
2, 81840, Note_on_c, 0, 76, 60
2, 81960, Note_on_c, 0, 76, 0
2, 81960, Note_on_c, 0, 79, 61
2, 82056, Note_on_c, 0, 79, 0
2, 82080, Note_on_c, 0, 79, 63
2, 82200, Note_on_c, 0, 79, 0
2, 82200, Note_on_c, 0, 73, 61
2, 82296, Note_on_c, 0, 73, 0
2, 82320, Note_on_c, 0, 73, 60
2, 82440, Note_on_c, 0, 73, 0
2, 82440, Note_on_c, 0, 76, 59
2, 82536, Note_on_c, 0, 76, 0
2, 82560, Note_on_c, 0, 76, 57
2, 82680, Note_on_c, 0, 76, 0
2, 82680, Note_on_c, 0, 69, 56
2, 82776, Note_on_c, 0, 69, 0
2, 82800, Note_on_c, 0, 69, 54
2, 82920, Note_on_c, 0, 69, 0
2, 82920, Note_on_c, 0, 81, 54
2, 83016, Note_on_c, 0, 81, 0
2, 83040, Note_on_c, 0, 81, 55
2, 83160, Note_on_c, 0, 81, 0
2, 83160, Note_on_c, 0, 69, 57
2, 83256, Note_on_c, 0, 69, 0
2, 83280, Note_on_c, 0, 69, 58
2, 83400, Note_on_c, 0, 69, 0
2, 83400, Note_on_c, 0, 81, 59
2, 83496, Note_on_c, 0, 81, 0
2, 83520, Note_on_c, 0, 81, 60
2, 83640, Note_on_c, 0, 81, 0
2, 83640, Note_on_c, 0, 69, 61
2, 83736, Note_on_c, 0, 69, 0
2, 83760, Note_on_c, 0, 69, 62
2, 83880, Note_on_c, 0, 69, 0
2, 83880, Note_on_c, 0, 76, 63
2, 83976, Note_on_c, 0, 76, 0
2, 84000, Note_on_c, 0, 76, 65
2, 84120, Note_on_c, 0, 76, 0
2, 84120, Note_on_c, 0, 69, 66
2, 84216, Note_on_c, 0, 69, 0
2, 84240, Note_on_c, 0, 69, 67
2, 84360, Note_on_c, 0, 69, 0
2, 84360, Note_on_c, 0, 71, 65
2, 84456, Note_on_c, 0, 71, 0
2, 84480, Note_on_c, 0, 71, 64
2, 84600, Note_on_c, 0, 71, 0
2, 84600, Note_on_c, 0, 67, 62
2, 84696, Note_on_c, 0, 67, 0
2, 84720, Note_on_c, 0, 67, 60
2, 84840, Note_on_c, 0, 67, 0
2, 84840, Note_on_c, 0, 66, 58
2, 84936, Note_on_c, 0, 66, 0
2, 84960, Control_c, 0, 64, 0
2, 84960, Note_on_c, 0, 78, 58
2, 85080, Note_on_c, 0, 78, 0
2, 85080, Note_on_c, 0, 81, 60
2, 85176, Note_on_c, 0, 81, 0
2, 85200, Note_on_c, 0, 81, 61
2, 85320, Note_on_c, 0, 81, 0
2, 85320, Note_on_c, 0, 74, 62
2, 85416, Note_on_c, 0, 74, 0
2, 85440, Note_on_c, 0, 74, 63
2, 85560, Note_on_c, 0, 74, 0
2, 85560, Note_on_c, 0, 78, 64
2, 85656, Note_on_c, 0, 78, 0
2, 85680, Note_on_c, 0, 78, 65
2, 85800, Note_on_c, 0, 78, 0
2, 85800, Note_on_c, 0, 71, 61
2, 85896, Note_on_c, 0, 71, 0
2, 85920, Note_on_c, 0, 71, 61
2, 86040, Note_on_c, 0, 71, 0
2, 86040, Note_on_c, 0, 74, 60
2, 86136, Note_on_c, 0, 74, 0
2, 86160, Note_on_c, 0, 74, 59
2, 86280, Note_on_c, 0, 74, 0
2, 86280, Note_on_c, 0, 67, 59
2, 86376, Note_on_c, 0, 67, 0
2, 86400, Note_on_c, 0, 67, 58
2, 86520, Note_on_c, 0, 67, 0
2, 86520, Note_on_c, 0, 66, 58
2, 86616, Note_on_c, 0, 66, 0
2, 86640, Note_on_c, 0, 66, 57
2, 86760, Note_on_c, 0, 66, 0
2, 86760, Note_on_c, 0, 64, 57
2, 86856, Note_on_c, 0, 64, 0
2, 86880, Note_on_c, 0, 67, 56
2, 87000, Note_on_c, 0, 67, 0
2, 87000, Note_on_c, 0, 66, 55
2, 87096, Note_on_c, 0, 66, 0
2, 87120, Note_on_c, 0, 66, 55
2, 87240, Note_on_c, 0, 66, 0
2, 87240, Note_on_c, 0, 64, 57
2, 87336, Note_on_c, 0, 64, 0
2, 87360, Note_on_c, 0, 71, 60
2, 87480, Note_on_c, 0, 71, 0
2, 87480, Note_on_c, 0, 69, 59
2, 87576, Note_on_c, 0, 69, 0
2, 87600, Note_on_c, 0, 69, 57
2, 87720, Note_on_c, 0, 69, 0
2, 87720, Note_on_c, 0, 67, 55
2, 87816, Note_on_c, 0, 67, 0
2, 87840, Note_on_c, 0, 79, 56
2, 87960, Note_on_c, 0, 79, 0
2, 87960, Note_on_c, 0, 83, 57
2, 88056, Note_on_c, 0, 83, 0
2, 88080, Note_on_c, 0, 83, 58
2, 88200, Note_on_c, 0, 83, 0
2, 88200, Note_on_c, 0, 76, 59
2, 88296, Note_on_c, 0, 76, 0
2, 88320, Note_on_c, 0, 76, 60
2, 88440, Note_on_c, 0, 76, 0
2, 88440, Note_on_c, 0, 79, 61
2, 88536, Note_on_c, 0, 79, 0
2, 88560, Note_on_c, 0, 79, 63
2, 88680, Note_on_c, 0, 79, 0
2, 88680, Note_on_c, 0, 73, 61
2, 88776, Note_on_c, 0, 73, 0
2, 88800, Note_on_c, 0, 73, 60
2, 88920, Note_on_c, 0, 73, 0
2, 88920, Note_on_c, 0, 76, 59
2, 89016, Note_on_c, 0, 76, 0
2, 89040, Note_on_c, 0, 76, 57
2, 89160, Note_on_c, 0, 76, 0
2, 89160, Note_on_c, 0, 69, 56
2, 89256, Note_on_c, 0, 69, 0
2, 89280, Note_on_c, 0, 69, 54
2, 89400, Note_on_c, 0, 69, 0
2, 89400, Note_on_c, 0, 81, 54
2, 89496, Note_on_c, 0, 81, 0
2, 89520, Note_on_c, 0, 81, 55
2, 89640, Note_on_c, 0, 81, 0
2, 89640, Note_on_c, 0, 69, 57
2, 89736, Note_on_c, 0, 69, 0
2, 89760, Note_on_c, 0, 69, 58
2, 89880, Note_on_c, 0, 69, 0
2, 89880, Note_on_c, 0, 81, 59
2, 89976, Note_on_c, 0, 81, 0
2, 90000, Note_on_c, 0, 81, 60
2, 90120, Note_on_c, 0, 81, 0
2, 90120, Note_on_c, 0, 69, 61
2, 90216, Note_on_c, 0, 69, 0
2, 90240, Note_on_c, 0, 69, 62
2, 90360, Note_on_c, 0, 69, 0
2, 90360, Note_on_c, 0, 76, 63
2, 90456, Note_on_c, 0, 76, 0
2, 90480, Note_on_c, 0, 76, 65
2, 90600, Note_on_c, 0, 76, 0
2, 90600, Note_on_c, 0, 69, 66
2, 90696, Note_on_c, 0, 69, 0
2, 90720, Note_on_c, 0, 69, 67
2, 90840, Note_on_c, 0, 69, 0
2, 90840, Note_on_c, 0, 71, 65
2, 90936, Note_on_c, 0, 71, 0
2, 90960, Note_on_c, 0, 71, 64
2, 91080, Note_on_c, 0, 71, 0
2, 91080, Note_on_c, 0, 67, 62
2, 91176, Note_on_c, 0, 67, 0
2, 91200, Note_on_c, 0, 67, 60
2, 91320, Note_on_c, 0, 67, 0
2, 91320, Note_on_c, 0, 66, 58
2, 91416, Note_on_c, 0, 66, 0
2, 91440, Control_c, 0, 64, 0
2, 91440, Note_on_c, 0, 65, 63
2, 91560, Note_on_c, 0, 65, 0
2, 91560, Note_on_c, 0, 69, 62
2, 91656, Note_on_c, 0, 69, 0
2, 91680, Note_on_c, 0, 69, 61
2, 91800, Note_on_c, 0, 69, 0
2, 91800, Note_on_c, 0, 62, 61
2, 91896, Note_on_c, 0, 62, 0
2, 91920, Note_on_c, 0, 62, 60
2, 92040, Note_on_c, 0, 62, 0
2, 92040, Note_on_c, 0, 65, 59
2, 92136, Note_on_c, 0, 65, 0
2, 92160, Note_on_c, 0, 65, 58
2, 92280, Note_on_c, 0, 65, 0
2, 92280, Note_on_c, 0, 58, 58
2, 92376, Note_on_c, 0, 58, 0
2, 92400, Note_on_c, 0, 58, 57
2, 92520, Note_on_c, 0, 58, 0
2, 92520, Note_on_c, 0, 62, 56
2, 92616, Note_on_c, 0, 62, 0
2, 92640, Note_on_c, 0, 62, 55
2, 92760, Note_on_c, 0, 62, 0
2, 92760, Note_on_c, 0, 60, 55
2, 92856, Note_on_c, 0, 60, 0
2, 92880, Note_on_c, 0, 60, 54
2, 93072, Note_on_c, 0, 60, 0
2, 93120, Note_on_c, 0, 60, 56
2, 93312, Note_on_c, 0, 60, 0
2, 93360, Note_on_c, 0, 60, 59
2, 93552, Note_on_c, 0, 60, 0
2, 93600, Note_on_c, 0, 60, 63
2, 93792, Note_on_c, 0, 60, 0
2, 93840, Note_on_c, 0, 60, 61
2, 94032, Note_on_c, 0, 60, 0
2, 94080, Note_on_c, 0, 60, 59
2, 94272, Note_on_c, 0, 60, 0
2, 94320, Note_on_c, 0, 81, 61
2, 94440, Note_on_c, 0, 81, 0
2, 94440, Note_on_c, 0, 84, 62
2, 94536, Note_on_c, 0, 84, 0
2, 94560, Note_on_c, 0, 84, 64
2, 94680, Note_on_c, 0, 84, 0
2, 94680, Note_on_c, 0, 78, 66
2, 94776, Note_on_c, 0, 78, 0
2, 94800, Note_on_c, 0, 78, 68
2, 94920, Note_on_c, 0, 78, 0
2, 94920, Note_on_c, 0, 81, 69
2, 95016, Note_on_c, 0, 81, 0
2, 95040, Note_on_c, 0, 81, 73
2, 95160, Note_on_c, 0, 81, 0
2, 95160, Note_on_c, 0, 74, 72
2, 95256, Note_on_c, 0, 74, 0
2, 95280, Note_on_c, 0, 74, 70
2, 95400, Note_on_c, 0, 74, 0
2, 95400, Note_on_c, 0, 78, 69
2, 95496, Note_on_c, 0, 78, 0
2, 95520, Note_on_c, 0, 78, 68
2, 95640, Note_on_c, 0, 78, 0
2, 95640, Note_on_c, 0, 71, 67
2, 95736, Note_on_c, 0, 71, 0
2, 95760, Note_on_c, 0, 71, 64
2, 95880, Note_on_c, 0, 71, 0
2, 95880, Note_on_c, 0, 83, 65
2, 95976, Note_on_c, 0, 83, 0
2, 96000, Note_on_c, 0, 83, 66
2, 96120, Note_on_c, 0, 83, 0
2, 96120, Note_on_c, 0, 71, 67
2, 96216, Note_on_c, 0, 71, 0
2, 96240, Note_on_c, 0, 71, 67
2, 96360, Note_on_c, 0, 71, 0
2, 96360, Note_on_c, 0, 88, 68
2, 96480, Note_on_c, 0, 88, 0
2, 96480, Note_on_c, 0, 88, 69
2, 96600, Note_on_c, 0, 88, 0
2, 96600, Note_on_c, 0, 76, 70
2, 96696, Note_on_c, 0, 76, 0
2, 96720, Note_on_c, 0, 76, 71
2, 96840, Note_on_c, 0, 76, 0
2, 96840, Note_on_c, 0, 91, 72
2, 96936, Note_on_c, 0, 91, 0
2, 96960, Note_on_c, 0, 91, 73
2, 97080, Note_on_c, 0, 91, 0
2, 97080, Note_on_c, 0, 90, 74
2, 97176, Note_on_c, 0, 90, 0
2, 97200, Note_on_c, 0, 88, 75
2, 97320, Note_on_c, 0, 88, 0
2, 97320, Note_on_c, 0, 86, 72
2, 97440, Note_on_c, 0, 86, 0
2, 97440, Note_on_c, 0, 85, 70
2, 97560, Note_on_c, 0, 85, 0
2, 97560, Note_on_c, 0, 83, 67
2, 97680, Note_on_c, 0, 83, 0
2, 97680, Note_on_c, 0, 81, 64
2, 97908, Note_on_c, 0, 81, 0
2, 98520, Note_on_c, 0, 81, 57
2, 98640, Control_c, 0, 64, 0
2, 98760, Note_on_c, 0, 81, 0
2, 98760, Note_on_c, 0, 79, 56
2, 98880, Note_on_c, 0, 79, 0
2, 98880, Note_on_c, 0, 78, 56
2, 99000, Note_on_c, 0, 78, 0
2, 99000, Note_on_c, 0, 76, 55
2, 99240, Note_on_c, 0, 76, 0
2, 99240, Note_on_c, 0, 78, 55
2, 99360, Note_on_c, 0, 78, 0
2, 99360, Note_on_c, 0, 79, 54
2, 99480, Note_on_c, 0, 79, 0
2, 99480, Note_on_c, 0, 78, 54
2, 99600, Note_on_c, 0, 78, 0
2, 99600, Note_on_c, 0, 76, 53
2, 99720, Note_on_c, 0, 76, 0
2, 99720, Note_on_c, 0, 74, 53
2, 99960, Note_on_c, 0, 74, 0
2, 99960, Note_on_c, 0, 73, 52
2, 100080, Note_on_c, 0, 73, 0
2, 100080, Note_on_c, 0, 71, 54
2, 100440, Note_on_c, 0, 71, 0
2, 100440, Note_on_c, 0, 73, 56
2, 100480, Note_on_c, 0, 73, 0
2, 100480, Note_on_c, 0, 71, 56
2, 100520, Note_on_c, 0, 71, 0
2, 100520, Note_on_c, 0, 70, 56
2, 100560, Note_on_c, 0, 70, 0
2, 100560, Note_on_c, 0, 71, 56
2, 100680, Note_on_c, 0, 71, 0
2, 100680, Note_on_c, 0, 74, 57
2, 100800, Note_on_c, 0, 74, 0
2, 100800, Note_on_c, 0, 79, 58
2, 100920, Note_on_c, 0, 79, 0
2, 100920, Note_on_c, 0, 81, 58
2, 101040, Note_on_c, 0, 81, 0
2, 101040, Note_on_c, 0, 83, 59
2, 101160, Note_on_c, 0, 83, 0
2, 101160, Note_on_c, 0, 85, 60
2, 101280, Note_on_c, 0, 85, 0
2, 101280, Note_on_c, 0, 86, 60
2, 101400, Note_on_c, 0, 86, 0
2, 101400, Note_on_c, 0, 74, 61
2, 101520, Note_on_c, 0, 74, 0
2, 101520, Note_on_c, 0, 79, 61
2, 101640, Note_on_c, 0, 79, 0
2, 101640, Note_on_c, 0, 81, 62
2, 101880, Note_on_c, 0, 81, 0
2, 101880, Note_on_c, 0, 81, 63
2, 102000, Note_on_c, 0, 81, 0
2, 102000, Note_on_c, 0, 79, 64
2, 102120, Note_on_c, 0, 79, 0
2, 102120, Note_on_c, 0, 81, 65
2, 102240, Note_on_c, 0, 81, 0
2, 102240, Note_on_c, 0, 82, 65
2, 102360, Note_on_c, 0, 82, 0
2, 102360, Note_on_c, 0, 83, 66
2, 102600, Note_on_c, 0, 83, 0
2, 102600, Note_on_c, 0, 86, 67
2, 102840, Note_on_c, 0, 86, 0
2, 102840, Note_on_c, 0, 88, 69
2, 102960, Note_on_c, 0, 88, 0
2, 102960, Note_on_c, 0, 86, 69
2, 103320, Note_on_c, 0, 86, 0
2, 103320, Note_on_c, 0, 83, 67
2, 103440, Note_on_c, 0, 83, 0
2, 103440, Note_on_c, 0, 81, 66
2, 103560, Note_on_c, 0, 81, 0
2, 103560, Note_on_c, 0, 78, 65
2, 103680, Note_on_c, 0, 78, 0
2, 103680, Note_on_c, 0, 76, 65
2, 103800, Note_on_c, 0, 76, 0
2, 103800, Note_on_c, 0, 80, 64
2, 103920, Note_on_c, 0, 80, 0
2, 103920, Note_on_c, 0, 81, 63
2, 104160, Note_on_c, 0, 81, 0
2, 104160, Note_on_c, 0, 83, 62
2, 104400, Note_on_c, 0, 83, 0
2, 104400, Note_on_c, 0, 81, 60
2, 104763, Note_on_c, 0, 81, 0
2, 105000, Note_on_c, 0, 81, 56
2, 105120, Control_c, 0, 64, 0
2, 105240, Note_on_c, 0, 81, 0
2, 105240, Note_on_c, 0, 79, 56
2, 105360, Note_on_c, 0, 79, 0
2, 105360, Note_on_c, 0, 78, 56
2, 105480, Note_on_c, 0, 78, 0
2, 105480, Note_on_c, 0, 76, 55
2, 105720, Note_on_c, 0, 76, 0
2, 105720, Note_on_c, 0, 78, 55
2, 105840, Note_on_c, 0, 78, 0
2, 105840, Note_on_c, 0, 79, 54
2, 105960, Note_on_c, 0, 79, 0
2, 105960, Note_on_c, 0, 78, 54
2, 106080, Note_on_c, 0, 78, 0
2, 106080, Note_on_c, 0, 76, 53
2, 106200, Note_on_c, 0, 76, 0
2, 106200, Note_on_c, 0, 74, 53
2, 106440, Note_on_c, 0, 74, 0
2, 106440, Note_on_c, 0, 73, 52
2, 106560, Note_on_c, 0, 73, 0
2, 106560, Note_on_c, 0, 71, 54
2, 106920, Note_on_c, 0, 71, 0
2, 106920, Note_on_c, 0, 73, 56
2, 106960, Note_on_c, 0, 73, 0
2, 106960, Note_on_c, 0, 71, 56
2, 107000, Note_on_c, 0, 71, 0
2, 107000, Note_on_c, 0, 70, 56
2, 107040, Note_on_c, 0, 70, 0
2, 107040, Note_on_c, 0, 71, 56
2, 107160, Note_on_c, 0, 71, 0
2, 107160, Note_on_c, 0, 74, 57
2, 107280, Note_on_c, 0, 74, 0
2, 107280, Note_on_c, 0, 79, 58
2, 107400, Note_on_c, 0, 79, 0
2, 107400, Note_on_c, 0, 81, 58
2, 107520, Note_on_c, 0, 81, 0
2, 107520, Note_on_c, 0, 83, 59
2, 107640, Note_on_c, 0, 83, 0
2, 107640, Note_on_c, 0, 85, 60
2, 107760, Note_on_c, 0, 85, 0
2, 107760, Note_on_c, 0, 86, 60
2, 107880, Note_on_c, 0, 86, 0
2, 107880, Note_on_c, 0, 74, 61
2, 108000, Note_on_c, 0, 74, 0
2, 108000, Note_on_c, 0, 79, 61
2, 108120, Note_on_c, 0, 79, 0
2, 108120, Note_on_c, 0, 81, 62
2, 108360, Note_on_c, 0, 81, 0
2, 108360, Note_on_c, 0, 81, 63
2, 108480, Note_on_c, 0, 81, 0
2, 108480, Note_on_c, 0, 79, 64
2, 108600, Note_on_c, 0, 79, 0
2, 108600, Note_on_c, 0, 81, 65
2, 108720, Note_on_c, 0, 81, 0
2, 108720, Note_on_c, 0, 82, 65
2, 108840, Note_on_c, 0, 82, 0
2, 108840, Note_on_c, 0, 83, 66
2, 109080, Note_on_c, 0, 83, 0
2, 109080, Note_on_c, 0, 86, 67
2, 109320, Note_on_c, 0, 86, 0
2, 109320, Note_on_c, 0, 88, 69
2, 109440, Note_on_c, 0, 88, 0
2, 109440, Note_on_c, 0, 86, 69
2, 109800, Note_on_c, 0, 86, 0
2, 109800, Note_on_c, 0, 83, 67
2, 109920, Note_on_c, 0, 83, 0
2, 109920, Note_on_c, 0, 81, 66
2, 110040, Note_on_c, 0, 81, 0
2, 110040, Note_on_c, 0, 78, 65
2, 110160, Note_on_c, 0, 78, 0
2, 110160, Note_on_c, 0, 76, 65
2, 110280, Note_on_c, 0, 76, 0
2, 110280, Note_on_c, 0, 80, 64
2, 110400, Note_on_c, 0, 80, 0
2, 110400, Note_on_c, 0, 81, 63
2, 110640, Note_on_c, 0, 81, 0
2, 110640, Note_on_c, 0, 83, 62
2, 110880, Note_on_c, 0, 83, 0
2, 110880, Note_on_c, 0, 81, 60
2, 111243, Note_on_c, 0, 81, 0
2, 111480, Note_on_c, 0, 81, 56
2, 111600, Control_c, 0, 64, 0
2, 111720, Note_on_c, 0, 81, 0
2, 111720, Note_on_c, 0, 79, 56
2, 111840, Note_on_c, 0, 79, 0
2, 111840, Note_on_c, 0, 77, 57
2, 111960, Note_on_c, 0, 77, 0
2, 111960, Note_on_c, 0, 76, 58
2, 112080, Note_on_c, 0, 76, 0
2, 112080, Note_on_c, 0, 77, 59
2, 112200, Note_on_c, 0, 77, 0
2, 112200, Note_on_c, 0, 81, 59
2, 112320, Note_on_c, 0, 81, 0
2, 112320, Control_c, 0, 64, 0
2, 112320, Note_on_c, 0, 82, 60
2, 112680, Note_on_c, 0, 82, 0
2, 112680, Note_on_c, 0, 81, 62
2, 112800, Note_on_c, 0, 81, 0
2, 112800, Note_on_c, 0, 82, 63
2, 113040, Note_on_c, 0, 82, 0
2, 113040, Note_on_c, 0, 82, 64
2, 113400, Note_on_c, 0, 82, 0
2, 113400, Note_on_c, 0, 81, 66
2, 113520, Note_on_c, 0, 81, 0
2, 113520, Note_on_c, 0, 82, 67
2, 113760, Note_on_c, 0, 82, 0
2, 113760, Note_on_c, 0, 82, 69
2, 114120, Note_on_c, 0, 82, 0
2, 114120, Note_on_c, 0, 80, 71
2, 114240, Note_on_c, 0, 80, 0
2, 114240, Note_on_c, 0, 81, 72
2, 114480, Note_on_c, 0, 81, 0
2, 114480, Note_on_c, 0, 81, 73
2, 114840, Note_on_c, 0, 81, 0
2, 114840, Note_on_c, 0, 81, 75
2, 114960, Note_on_c, 0, 81, 0
2, 114960, Note_on_c, 0, 83, 76
2, 115080, Note_on_c, 0, 83, 0
2, 115080, Note_on_c, 0, 84, 77
2, 115200, Note_on_c, 0, 84, 0
2, 115200, Note_on_c, 0, 86, 78
2, 115560, Note_on_c, 0, 86, 0
2, 115560, Note_on_c, 0, 83, 73
2, 115680, Note_on_c, 0, 83, 0
2, 115680, Note_on_c, 0, 81, 72
2, 115800, Note_on_c, 0, 81, 0
2, 115800, Note_on_c, 0, 79, 71
2, 115920, Note_on_c, 0, 79, 0
2, 115920, Note_on_c, 0, 78, 70
2, 116040, Note_on_c, 0, 78, 0
2, 116040, Note_on_c, 0, 79, 69
2, 116160, Note_on_c, 0, 79, 0
2, 116160, Note_on_c, 0, 80, 69
2, 116280, Note_on_c, 0, 80, 0
2, 116280, Note_on_c, 0, 81, 68
2, 116400, Note_on_c, 0, 81, 0
2, 116400, Note_on_c, 0, 78, 67
2, 116520, Note_on_c, 0, 78, 0
2, 116520, Note_on_c, 0, 76, 66
2, 116640, Note_on_c, 0, 76, 0
2, 116640, Note_on_c, 0, 74, 65
2, 117000, Note_on_c, 0, 74, 0
2, 117000, Note_on_c, 0, 74, 63
2, 117235, Note_on_c, 0, 74, 0
2, 117240, Note_on_c, 0, 83, 61
2, 117360, Note_on_c, 0, 83, 0
2, 117360, Note_on_c, 0, 81, 60
2, 117480, Note_on_c, 0, 81, 0
2, 117480, Note_on_c, 0, 74, 60
2, 117600, Note_on_c, 0, 74, 0
2, 117600, Note_on_c, 0, 79, 59
2, 117720, Note_on_c, 0, 79, 0
2, 117720, Note_on_c, 0, 76, 58
2, 117840, Note_on_c, 0, 76, 0
2, 117840, Note_on_c, 0, 73, 57
2, 117960, Note_on_c, 0, 73, 0
2, 117960, Note_on_c, 0, 71, 56
2, 118080, Note_on_c, 0, 71, 0
2, 118080, Control_c, 0, 64, 0
2, 118080, Control_c, 0, 64, 0
2, 118120, Control_c, 0, 64, 127
2, 118320, Control_c, 0, 64, 0
2, 118360, Control_c, 0, 64, 127
2, 118560, Control_c, 0, 64, 0
2, 118600, Control_c, 0, 64, 127
2, 118800, Control_c, 0, 64, 0
2, 118840, Control_c, 0, 64, 127
2, 119040, Control_c, 0, 64, 0
2, 119080, Control_c, 0, 64, 127
2, 119280, Control_c, 0, 64, 0
2, 119320, Control_c, 0, 64, 127
2, 119520, Control_c, 0, 64, 0
2, 119560, Control_c, 0, 64, 127
2, 119760, Control_c, 0, 64, 0
2, 119800, Control_c, 0, 64, 127
2, 120000, Control_c, 0, 64, 0
2, 120040, Control_c, 0, 64, 127
2, 120240, Control_c, 0, 64, 0
2, 120280, Control_c, 0, 64, 127
2, 120480, Control_c, 0, 64, 0
2, 120520, Control_c, 0, 64, 127
2, 120720, Control_c, 0, 64, 0
2, 120760, Control_c, 0, 64, 127
2, 120960, Control_c, 0, 64, 0
2, 120960, Control_c, 0, 64, 0
2, 121000, Control_c, 0, 64, 127
2, 121200, Control_c, 0, 64, 0
2, 121240, Control_c, 0, 64, 127
2, 121440, Control_c, 0, 64, 0
2, 121480, Control_c, 0, 64, 127
2, 121680, Control_c, 0, 64, 0
2, 121680, Control_c, 0, 64, 0
2, 121720, Control_c, 0, 64, 127
2, 121920, Control_c, 0, 64, 0
2, 121960, Control_c, 0, 64, 127
2, 122160, Control_c, 0, 64, 0
2, 122200, Control_c, 0, 64, 127
2, 122400, Control_c, 0, 64, 0
2, 122440, Control_c, 0, 64, 127
2, 122640, Control_c, 0, 64, 0
2, 122680, Control_c, 0, 64, 127
2, 122880, Control_c, 0, 64, 0
2, 122920, Control_c, 0, 64, 127
2, 123120, Control_c, 0, 64, 0
2, 123160, Control_c, 0, 64, 127
2, 123360, Control_c, 0, 64, 0
2, 123400, Control_c, 0, 64, 127
2, 123600, Control_c, 0, 64, 0
2, 123640, Control_c, 0, 64, 127
2, 123840, Control_c, 0, 64, 0
2, 123880, Control_c, 0, 64, 127
2, 124080, Control_c, 0, 64, 0
2, 124120, Control_c, 0, 64, 127
2, 124320, Control_c, 0, 64, 0
2, 124360, Control_c, 0, 64, 127
2, 124560, Control_c, 0, 64, 0
2, 124560, Control_c, 0, 64, 0
2, 124600, Control_c, 0, 64, 127
2, 124800, Control_c, 0, 64, 0
2, 124840, Control_c, 0, 64, 127
2, 125040, Control_c, 0, 64, 0
2, 125080, Control_c, 0, 64, 127
2, 125280, Control_c, 0, 64, 0
2, 125320, Control_c, 0, 64, 127
2, 125520, Control_c, 0, 64, 0
2, 125560, Control_c, 0, 64, 127
2, 125760, Control_c, 0, 64, 0
2, 125800, Control_c, 0, 64, 127
2, 126000, Control_c, 0, 64, 0
2, 126040, Control_c, 0, 64, 127
2, 126240, Control_c, 0, 64, 0
2, 126280, Control_c, 0, 64, 127
2, 126480, Control_c, 0, 64, 0
2, 126520, Control_c, 0, 64, 127
2, 126720, Control_c, 0, 64, 0
2, 126760, Control_c, 0, 64, 127
2, 126960, Control_c, 0, 64, 0
2, 127000, Control_c, 0, 64, 127
2, 127200, Control_c, 0, 64, 0
2, 127240, Control_c, 0, 64, 127
2, 127440, Control_c, 0, 64, 0
2, 127440, Control_c, 0, 64, 0
2, 127480, Control_c, 0, 64, 127
2, 127680, Control_c, 0, 64, 0
2, 127720, Control_c, 0, 64, 127
2, 127920, Control_c, 0, 64, 0
2, 127960, Control_c, 0, 64, 127
2, 128160, Control_c, 0, 64, 0
2, 128160, Control_c, 0, 64, 0
2, 128200, Control_c, 0, 64, 127
2, 128400, Control_c, 0, 64, 0
2, 128440, Control_c, 0, 64, 127
2, 128640, Control_c, 0, 64, 0
2, 128680, Control_c, 0, 64, 127
2, 128880, Control_c, 0, 64, 0
2, 128920, Control_c, 0, 64, 127
2, 129120, Control_c, 0, 64, 0
2, 129160, Control_c, 0, 64, 127
2, 129360, Control_c, 0, 64, 0
2, 129400, Control_c, 0, 64, 127
2, 129600, Control_c, 0, 64, 0
2, 129640, Control_c, 0, 64, 127
2, 129840, Control_c, 0, 64, 0
2, 129880, Control_c, 0, 64, 127
2, 130080, Control_c, 0, 64, 0
2, 130120, Control_c, 0, 64, 127
2, 130320, Control_c, 0, 64, 0
2, 130360, Control_c, 0, 64, 127
2, 130560, Control_c, 0, 64, 0
2, 130600, Control_c, 0, 64, 127
2, 130800, Control_c, 0, 64, 0
2, 130840, Control_c, 0, 64, 127
2, 131040, Control_c, 0, 64, 0
2, 131080, Control_c, 0, 64, 127
2, 131280, Control_c, 0, 64, 0
2, 131320, Control_c, 0, 64, 127
2, 131520, Control_c, 0, 64, 0
2, 131560, Control_c, 0, 64, 127
2, 131760, Control_c, 0, 64, 0
2, 131800, Control_c, 0, 64, 127
2, 132000, Control_c, 0, 64, 0
2, 132040, Control_c, 0, 64, 127
2, 132240, Control_c, 0, 64, 0
2, 132280, Control_c, 0, 64, 127
2, 132480, Control_c, 0, 64, 0
2, 132520, Control_c, 0, 64, 127
2, 132720, Control_c, 0, 64, 0
2, 132760, Control_c, 0, 64, 127
2, 132960, Control_c, 0, 64, 0
2, 133000, Control_c, 0, 64, 127
2, 133200, Control_c, 0, 64, 0
2, 133240, Control_c, 0, 64, 127
2, 133440, Control_c, 0, 64, 0
2, 133480, Control_c, 0, 64, 127
2, 133680, Control_c, 0, 64, 0
2, 133720, Control_c, 0, 64, 127
2, 133920, Control_c, 0, 64, 0
2, 133960, Control_c, 0, 64, 127
2, 134160, Control_c, 0, 64, 0
2, 134200, Control_c, 0, 64, 127
2, 134400, Control_c, 0, 64, 0
2, 134440, Control_c, 0, 64, 127
2, 134640, Control_c, 0, 64, 0
2, 134680, Control_c, 0, 64, 127
2, 134880, Control_c, 0, 64, 0
2, 134920, Control_c, 0, 64, 127
2, 135120, Control_c, 0, 64, 0
2, 135160, Control_c, 0, 64, 127
2, 135360, Control_c, 0, 64, 0
2, 135400, Control_c, 0, 64, 127
2, 135600, Control_c, 0, 64, 0
2, 135640, Control_c, 0, 64, 127
2, 135840, Control_c, 0, 64, 0
2, 135880, Control_c, 0, 64, 127
2, 136080, Control_c, 0, 64, 0
2, 136120, Control_c, 0, 64, 127
2, 136320, Control_c, 0, 64, 0
2, 136360, Control_c, 0, 64, 127
2, 136560, Control_c, 0, 64, 0
2, 136600, Control_c, 0, 64, 127
2, 136800, Control_c, 0, 64, 0
2, 136840, Control_c, 0, 64, 127
2, 137040, Control_c, 0, 64, 0
2, 137080, Control_c, 0, 64, 127
2, 137280, Control_c, 0, 64, 0
2, 137320, Control_c, 0, 64, 127
2, 137520, Control_c, 0, 64, 0
2, 137520, Control_c, 0, 64, 0
2, 137520, Note_on_c, 0, 69, 48
2, 137560, Control_c, 0, 64, 127
2, 137640, Note_on_c, 0, 69, 0
2, 137640, Control_c, 0, 64, 0
2, 137880, Note_on_c, 0, 62, 49
2, 138000, Note_on_c, 0, 62, 0
2, 138000, Note_on_c, 0, 74, 49
2, 138120, Note_on_c, 0, 74, 0
2, 138360, Note_on_c, 0, 62, 51
2, 138480, Note_on_c, 0, 62, 0
2, 138480, Control_c, 0, 64, 0
2, 138480, Note_on_c, 0, 74, 51
2, 138520, Control_c, 0, 64, 127
2, 138600, Note_on_c, 0, 74, 0
2, 138840, Note_on_c, 0, 67, 53
2, 138960, Note_on_c, 0, 67, 0
2, 138960, Note_on_c, 0, 79, 53
2, 139080, Note_on_c, 0, 79, 0
2, 139320, Note_on_c, 0, 67, 55
2, 139440, Note_on_c, 0, 67, 0
2, 139440, Control_c, 0, 64, 0
2, 139440, Note_on_c, 0, 79, 55
2, 139480, Control_c, 0, 64, 127
2, 139560, Note_on_c, 0, 79, 0
2, 139800, Note_on_c, 0, 78, 57
2, 139920, Note_on_c, 0, 78, 0
2, 139920, Control_c, 0, 64, 0
2, 139920, Note_on_c, 0, 90, 57
2, 139960, Control_c, 0, 64, 127
2, 140040, Note_on_c, 0, 90, 0
2, 140280, Note_on_c, 0, 76, 59
2, 140400, Note_on_c, 0, 76, 0
2, 140400, Control_c, 0, 64, 0
2, 140400, Note_on_c, 0, 88, 59
2, 140440, Control_c, 0, 64, 127
2, 140520, Note_on_c, 0, 88, 0
2, 140760, Note_on_c, 0, 81, 61
2, 140880, Note_on_c, 0, 81, 0
2, 140880, Control_c, 0, 64, 0
2, 140880, Note_on_c, 0, 93, 63
2, 140920, Control_c, 0, 64, 127
2, 141000, Note_on_c, 0, 93, 0
2, 141240, Note_on_c, 0, 57, 56
2, 141360, Note_on_c, 0, 57, 0
2, 141360, Control_c, 0, 64, 0
2, 141360, Note_on_c, 0, 69, 56
2, 141400, Control_c, 0, 64, 127
2, 141480, Note_on_c, 0, 69, 0
2, 141720, Note_on_c, 0, 66, 57
2, 141840, Note_on_c, 0, 66, 0
2, 141840, Control_c, 0, 64, 0
2, 141840, Note_on_c, 0, 78, 58
2, 141880, Control_c, 0, 64, 127
2, 141960, Note_on_c, 0, 78, 0
2, 142200, Note_on_c, 0, 64, 59
2, 142320, Note_on_c, 0, 64, 0
2, 142320, Control_c, 0, 64, 0
2, 142320, Note_on_c, 0, 76, 60
2, 142360, Control_c, 0, 64, 127
2, 142440, Note_on_c, 0, 76, 0
2, 142680, Note_on_c, 0, 76, 61
2, 142800, Note_on_c, 0, 76, 0
2, 142800, Control_c, 0, 64, 0
2, 142800, Note_on_c, 0, 88, 62
2, 142840, Control_c, 0, 64, 127
2, 142920, Note_on_c, 0, 88, 0
2, 143160, Note_on_c, 0, 74, 63
2, 143280, Note_on_c, 0, 74, 0
2, 143280, Control_c, 0, 64, 0
2, 143280, Note_on_c, 0, 86, 64
2, 143320, Control_c, 0, 64, 127
2, 143400, Note_on_c, 0, 86, 0
2, 143640, Note_on_c, 0, 81, 65
2, 143760, Note_on_c, 0, 81, 0
2, 143760, Note_on_c, 0, 93, 65
2, 143880, Note_on_c, 0, 93, 0
2, 144120, Note_on_c, 0, 80, 67
2, 144240, Note_on_c, 0, 80, 0
2, 144240, Control_c, 0, 64, 0
2, 144240, Note_on_c, 0, 92, 67
2, 144280, Control_c, 0, 64, 127
2, 144360, Note_on_c, 0, 92, 0
2, 144600, Note_on_c, 0, 86, 69
2, 144720, Note_on_c, 0, 86, 0
2, 144720, Note_on_c, 0, 98, 69
2, 144840, Note_on_c, 0, 98, 0
2, 145080, Note_on_c, 0, 85, 71
2, 145200, Note_on_c, 0, 85, 0
2, 145200, Control_c, 0, 64, 0
2, 145200, Note_on_c, 0, 97, 73
2, 145240, Control_c, 0, 64, 127
2, 145320, Note_on_c, 0, 97, 0
2, 145560, Note_on_c, 0, 67, 67
2, 145680, Note_on_c, 0, 67, 0
2, 145680, Note_on_c, 0, 79, 65
2, 145800, Note_on_c, 0, 79, 0
2, 146040, Note_on_c, 0, 57, 59
2, 146160, Note_on_c, 0, 57, 0
2, 146160, Control_c, 0, 64, 0
2, 146160, Control_c, 0, 64, 0
2, 146160, Note_on_c, 0, 69, 48
2, 146200, Control_c, 0, 64, 127
2, 146280, Note_on_c, 0, 69, 0
2, 146280, Control_c, 0, 64, 0
2, 146520, Note_on_c, 0, 62, 49
2, 146640, Note_on_c, 0, 62, 0
2, 146640, Note_on_c, 0, 74, 49
2, 146760, Note_on_c, 0, 74, 0
2, 147000, Note_on_c, 0, 62, 51
2, 147120, Note_on_c, 0, 62, 0
2, 147120, Control_c, 0, 64, 0
2, 147120, Note_on_c, 0, 74, 51
2, 147160, Control_c, 0, 64, 127
2, 147240, Note_on_c, 0, 74, 0
2, 147480, Note_on_c, 0, 67, 53
2, 147600, Note_on_c, 0, 67, 0
2, 147600, Note_on_c, 0, 79, 53
2, 147720, Note_on_c, 0, 79, 0
2, 147960, Note_on_c, 0, 67, 55
2, 148080, Note_on_c, 0, 67, 0
2, 148080, Control_c, 0, 64, 0
2, 148080, Note_on_c, 0, 79, 55
2, 148120, Control_c, 0, 64, 127
2, 148200, Note_on_c, 0, 79, 0
2, 148440, Note_on_c, 0, 78, 57
2, 148560, Note_on_c, 0, 78, 0
2, 148560, Control_c, 0, 64, 0
2, 148560, Note_on_c, 0, 90, 57
2, 148600, Control_c, 0, 64, 127
2, 148680, Note_on_c, 0, 90, 0
2, 148920, Note_on_c, 0, 76, 59
2, 149040, Note_on_c, 0, 76, 0
2, 149040, Control_c, 0, 64, 0
2, 149040, Note_on_c, 0, 88, 59
2, 149080, Control_c, 0, 64, 127
2, 149160, Note_on_c, 0, 88, 0
2, 149400, Note_on_c, 0, 81, 61
2, 149520, Note_on_c, 0, 81, 0
2, 149520, Control_c, 0, 64, 0
2, 149520, Note_on_c, 0, 93, 63
2, 149560, Control_c, 0, 64, 127
2, 149640, Note_on_c, 0, 93, 0
2, 149880, Note_on_c, 0, 57, 56
2, 150000, Note_on_c, 0, 57, 0
2, 150000, Control_c, 0, 64, 0
2, 150000, Note_on_c, 0, 69, 56
2, 150040, Control_c, 0, 64, 127
2, 150120, Note_on_c, 0, 69, 0
2, 150360, Note_on_c, 0, 66, 57
2, 150480, Note_on_c, 0, 66, 0
2, 150480, Control_c, 0, 64, 0
2, 150480, Note_on_c, 0, 78, 58
2, 150520, Control_c, 0, 64, 127
2, 150600, Note_on_c, 0, 78, 0
2, 150840, Note_on_c, 0, 64, 59
2, 150960, Note_on_c, 0, 64, 0
2, 150960, Control_c, 0, 64, 0
2, 150960, Note_on_c, 0, 76, 60
2, 151000, Control_c, 0, 64, 127
2, 151080, Note_on_c, 0, 76, 0
2, 151320, Note_on_c, 0, 76, 61
2, 151440, Note_on_c, 0, 76, 0
2, 151440, Control_c, 0, 64, 0
2, 151440, Note_on_c, 0, 88, 62
2, 151480, Control_c, 0, 64, 127
2, 151560, Note_on_c, 0, 88, 0
2, 151800, Note_on_c, 0, 74, 63
2, 151920, Note_on_c, 0, 74, 0
2, 151920, Control_c, 0, 64, 0
2, 151920, Note_on_c, 0, 86, 64
2, 151960, Control_c, 0, 64, 127
2, 152040, Note_on_c, 0, 86, 0
2, 152280, Note_on_c, 0, 81, 65
2, 152400, Note_on_c, 0, 81, 0
2, 152400, Note_on_c, 0, 93, 65
2, 152520, Note_on_c, 0, 93, 0
2, 152760, Note_on_c, 0, 80, 67
2, 152880, Note_on_c, 0, 80, 0
2, 152880, Control_c, 0, 64, 0
2, 152880, Note_on_c, 0, 92, 67
2, 152920, Control_c, 0, 64, 127
2, 153000, Note_on_c, 0, 92, 0
2, 153240, Note_on_c, 0, 86, 69
2, 153360, Note_on_c, 0, 86, 0
2, 153360, Note_on_c, 0, 98, 69
2, 153480, Note_on_c, 0, 98, 0
2, 153720, Note_on_c, 0, 85, 71
2, 153840, Note_on_c, 0, 85, 0
2, 153840, Control_c, 0, 64, 0
2, 153840, Note_on_c, 0, 97, 73
2, 153880, Control_c, 0, 64, 127
2, 153960, Note_on_c, 0, 97, 0
2, 154200, Note_on_c, 0, 67, 67
2, 154320, Note_on_c, 0, 67, 0
2, 154320, Note_on_c, 0, 79, 65
2, 154440, Note_on_c, 0, 79, 0
2, 154680, Note_on_c, 0, 57, 59
2, 154800, Note_on_c, 0, 57, 0
2, 154800, Control_c, 0, 64, 0
2, 154800, Control_c, 0, 64, 0
2, 154800, Note_on_c, 0, 69, 56
2, 154840, Control_c, 0, 64, 127
2, 154920, Note_on_c, 0, 69, 0
2, 155160, Note_on_c, 0, 65, 58
2, 155280, Note_on_c, 0, 65, 0
2, 155280, Note_on_c, 0, 77, 59
2, 155400, Note_on_c, 0, 77, 0
2, 155640, Note_on_c, 0, 65, 62
2, 155760, Note_on_c, 0, 65, 0
2, 155760, Control_c, 0, 64, 0
2, 155760, Note_on_c, 0, 77, 65
2, 155800, Control_c, 0, 64, 127
2, 155880, Note_on_c, 0, 77, 0
2, 156120, Note_on_c, 0, 70, 64
2, 156240, Note_on_c, 0, 70, 0
2, 156240, Note_on_c, 0, 82, 63
2, 156360, Note_on_c, 0, 82, 0
2, 156600, Note_on_c, 0, 70, 62
2, 156720, Note_on_c, 0, 70, 0
2, 156720, Control_c, 0, 64, 0
2, 156720, Note_on_c, 0, 82, 60
2, 156760, Control_c, 0, 64, 127
2, 156840, Note_on_c, 0, 82, 0
2, 157080, Note_on_c, 0, 82, 64
2, 157200, Note_on_c, 0, 82, 0
2, 157200, Note_on_c, 0, 94, 65
2, 157320, Note_on_c, 0, 94, 0
2, 157560, Note_on_c, 0, 81, 69
2, 157680, Note_on_c, 0, 81, 0
2, 157680, Control_c, 0, 64, 0
2, 157680, Note_on_c, 0, 93, 67
2, 157720, Control_c, 0, 64, 127
2, 157800, Note_on_c, 0, 93, 0
2, 158040, Note_on_c, 0, 69, 64
2, 158160, Note_on_c, 0, 69, 0
2, 158160, Note_on_c, 0, 81, 63
2, 158280, Note_on_c, 0, 81, 0
2, 158520, Note_on_c, 0, 57, 59
2, 158640, Note_on_c, 0, 57, 0
2, 158640, Control_c, 0, 64, 0
2, 158640, Note_on_c, 0, 69, 58
2, 158680, Control_c, 0, 64, 127
2, 158760, Note_on_c, 0, 69, 0
2, 159000, Note_on_c, 0, 66, 61
2, 159120, Note_on_c, 0, 66, 0
2, 159120, Note_on_c, 0, 78, 62
2, 159240, Note_on_c, 0, 78, 0
2, 159480, Note_on_c, 0, 72, 66
2, 159600, Note_on_c, 0, 72, 0
2, 159600, Control_c, 0, 64, 0
2, 159600, Note_on_c, 0, 84, 71
2, 159640, Control_c, 0, 64, 127
2, 159720, Note_on_c, 0, 84, 0
2, 159960, Note_on_c, 0, 73, 68
2, 160080, Note_on_c, 0, 73, 0
2, 160080, Note_on_c, 0, 85, 67
2, 160200, Note_on_c, 0, 85, 0
2, 160440, Note_on_c, 0, 59, 65
2, 160560, Note_on_c, 0, 59, 0
2, 160560, Control_c, 0, 64, 0
2, 160560, Note_on_c, 0, 71, 66
2, 160600, Control_c, 0, 64, 127
2, 160680, Note_on_c, 0, 71, 0
2, 160920, Note_on_c, 0, 67, 69
2, 161040, Note_on_c, 0, 67, 0
2, 161040, Note_on_c, 0, 79, 71
2, 161160, Note_on_c, 0, 79, 0
2, 161400, Note_on_c, 0, 74, 74
2, 161520, Note_on_c, 0, 74, 0
2, 161520, Control_c, 0, 64, 0
2, 161520, Note_on_c, 0, 86, 75
2, 161560, Control_c, 0, 64, 127
2, 161640, Note_on_c, 0, 86, 0
2, 161880, Note_on_c, 0, 76, 69
2, 162000, Note_on_c, 0, 76, 0
2, 162000, Note_on_c, 0, 88, 68
2, 162120, Note_on_c, 0, 88, 0
2, 162360, Control_c, 0, 64, 0
2, 162360, Note_on_c, 0, 77, 64
2, 162400, Control_c, 0, 64, 127
2, 162480, Note_on_c, 0, 77, 0
2, 162480, Note_on_c, 0, 89, 63
2, 162600, Note_on_c, 0, 89, 0
2, 162840, Control_c, 0, 64, 0
2, 162840, Note_on_c, 0, 78, 59
2, 162880, Control_c, 0, 64, 127
2, 162960, Note_on_c, 0, 78, 0
2, 162960, Note_on_c, 0, 90, 57
2, 163080, Note_on_c, 0, 90, 0
2, 164220, Control_c, 0, 64, 0
2, 164280, Note_on_c, 0, 49, 77
2, 164358, Note_on_c, 0, 49, 0
2, 164400, Control_c, 0, 64, 0
2, 164400, Control_c, 0, 64, 0
2, 164400, Note_on_c, 0, 50, 77
2, 164640, Note_on_c, 0, 50, 0
2, 164760, Note_on_c, 0, 50, 80
2, 164838, Note_on_c, 0, 50, 0
2, 164880, Note_on_c, 0, 62, 81
2, 165120, Note_on_c, 0, 62, 0
2, 165240, Note_on_c, 0, 60, 83
2, 165318, Note_on_c, 0, 60, 0
2, 165360, Note_on_c, 0, 58, 84
2, 165600, Note_on_c, 0, 58, 0
2, 165720, Note_on_c, 0, 58, 86
2, 165798, Note_on_c, 0, 58, 0
2, 165840, Note_on_c, 0, 67, 87
2, 166080, Note_on_c, 0, 67, 0
2, 166200, Note_on_c, 0, 65, 89
2, 166278, Note_on_c, 0, 65, 0
2, 166320, Note_on_c, 0, 64, 90
2, 166560, Note_on_c, 0, 64, 0
2, 166680, Note_on_c, 0, 64, 92
2, 166758, Note_on_c, 0, 64, 0
2, 166800, Note_on_c, 0, 76, 93
2, 166800, Note_on_c, 0, 67, 93
2, 167040, Note_on_c, 0, 67, 0
2, 167040, Note_on_c, 0, 76, 0
2, 167160, Note_on_c, 0, 77, 96
2, 167238, Note_on_c, 0, 77, 0
2, 167280, Note_on_c, 0, 76, 96
2, 167520, Note_on_c, 0, 76, 0
2, 167640, Note_on_c, 0, 76, 99
2, 167718, Note_on_c, 0, 76, 0
2, 167760, Note_on_c, 0, 88, 100
2, 168000, Note_on_c, 0, 88, 0
2, 168120, Note_on_c, 0, 89, 102
2, 168198, Note_on_c, 0, 89, 0
2, 168240, Note_on_c, 0, 88, 103
2, 168480, Note_on_c, 0, 88, 0
2, 168600, Note_on_c, 0, 88, 105
2, 168678, Note_on_c, 0, 88, 0
2, 168720, Note_on_c, 0, 91, 106
2, 168960, Note_on_c, 0, 91, 0
2, 169080, Note_on_c, 0, 88, 108
2, 169158, Note_on_c, 0, 88, 0
2, 169200, Note_on_c, 0, 86, 109
2, 169440, Note_on_c, 0, 86, 0
2, 169560, Note_on_c, 0, 86, 111
2, 169638, Note_on_c, 0, 86, 0
2, 169680, Note_on_c, 0, 89, 112
2, 169920, Note_on_c, 0, 89, 0
2, 170040, Note_on_c, 0, 89, 115
2, 170118, Note_on_c, 0, 89, 0
2, 170160, Note_on_c, 0, 84, 115
2, 170400, Note_on_c, 0, 84, 0
2, 170520, Note_on_c, 0, 84, 113
2, 170598, Note_on_c, 0, 84, 0
2, 170640, Note_on_c, 0, 88, 113
2, 170880, Note_on_c, 0, 88, 0
2, 171000, Note_on_c, 0, 84, 111
2, 171078, Note_on_c, 0, 84, 0
2, 171120, Note_on_c, 0, 82, 110
2, 171360, Note_on_c, 0, 82, 0
2, 171480, Note_on_c, 0, 82, 109
2, 171558, Note_on_c, 0, 82, 0
2, 171600, Note_on_c, 0, 80, 108
2, 171840, Note_on_c, 0, 80, 0
2, 171960, Note_on_c, 0, 80, 106
2, 172038, Note_on_c, 0, 80, 0
2, 172080, Note_on_c, 0, 81, 106
2, 172320, Note_on_c, 0, 81, 0
2, 172440, Note_on_c, 0, 81, 96
2, 172518, Note_on_c, 0, 81, 0
2, 172560, Note_on_c, 0, 69, 93
2, 172800, Note_on_c, 0, 69, 0
2, 172920, Note_on_c, 0, 69, 83
2, 172998, Note_on_c, 0, 69, 0
2, 173040, Control_c, 0, 64, 0
2, 173040, Control_c, 0, 64, 0
2, 173040, Note_on_c, 0, 50, 77
2, 173280, Note_on_c, 0, 50, 0
2, 173400, Note_on_c, 0, 50, 80
2, 173478, Note_on_c, 0, 50, 0
2, 173520, Note_on_c, 0, 62, 81
2, 173760, Note_on_c, 0, 62, 0
2, 173880, Note_on_c, 0, 60, 83
2, 173958, Note_on_c, 0, 60, 0
2, 174000, Note_on_c, 0, 58, 84
2, 174240, Note_on_c, 0, 58, 0
2, 174360, Note_on_c, 0, 58, 86
2, 174438, Note_on_c, 0, 58, 0
2, 174480, Note_on_c, 0, 67, 87
2, 174720, Note_on_c, 0, 67, 0
2, 174840, Note_on_c, 0, 65, 89
2, 174918, Note_on_c, 0, 65, 0
2, 174960, Note_on_c, 0, 64, 90
2, 175200, Note_on_c, 0, 64, 0
2, 175320, Note_on_c, 0, 64, 92
2, 175398, Note_on_c, 0, 64, 0
2, 175440, Note_on_c, 0, 67, 93
2, 175440, Note_on_c, 0, 76, 93
2, 175680, Note_on_c, 0, 76, 0
2, 175680, Note_on_c, 0, 67, 0
2, 175800, Note_on_c, 0, 77, 96
2, 175878, Note_on_c, 0, 77, 0
2, 175920, Note_on_c, 0, 76, 96
2, 176160, Note_on_c, 0, 76, 0
2, 176280, Note_on_c, 0, 76, 99
2, 176358, Note_on_c, 0, 76, 0
2, 176400, Note_on_c, 0, 88, 100
2, 176640, Note_on_c, 0, 88, 0
2, 176760, Note_on_c, 0, 89, 102
2, 176838, Note_on_c, 0, 89, 0
2, 176880, Note_on_c, 0, 88, 103
2, 177120, Note_on_c, 0, 88, 0
2, 177240, Note_on_c, 0, 88, 105
2, 177318, Note_on_c, 0, 88, 0
2, 177360, Note_on_c, 0, 91, 106
2, 177600, Note_on_c, 0, 91, 0
2, 177720, Note_on_c, 0, 88, 108
2, 177798, Note_on_c, 0, 88, 0
2, 177840, Note_on_c, 0, 86, 109
2, 178080, Note_on_c, 0, 86, 0
2, 178200, Note_on_c, 0, 86, 111
2, 178278, Note_on_c, 0, 86, 0
2, 178320, Note_on_c, 0, 89, 112
2, 178560, Note_on_c, 0, 89, 0
2, 178680, Note_on_c, 0, 89, 115
2, 178758, Note_on_c, 0, 89, 0
2, 178800, Note_on_c, 0, 84, 115
2, 179040, Note_on_c, 0, 84, 0
2, 179160, Note_on_c, 0, 84, 113
2, 179238, Note_on_c, 0, 84, 0
2, 179280, Note_on_c, 0, 88, 113
2, 179520, Note_on_c, 0, 88, 0
2, 179640, Note_on_c, 0, 84, 111
2, 179718, Note_on_c, 0, 84, 0
2, 179760, Note_on_c, 0, 82, 110
2, 180000, Note_on_c, 0, 82, 0
2, 180120, Note_on_c, 0, 82, 109
2, 180198, Note_on_c, 0, 82, 0
2, 180240, Note_on_c, 0, 80, 108
2, 180480, Note_on_c, 0, 80, 0
2, 180600, Note_on_c, 0, 80, 106
2, 180678, Note_on_c, 0, 80, 0
2, 180720, Note_on_c, 0, 81, 106
2, 180960, Note_on_c, 0, 81, 0
2, 181080, Note_on_c, 0, 81, 96
2, 181158, Note_on_c, 0, 81, 0
2, 181200, Note_on_c, 0, 69, 93
2, 181440, Note_on_c, 0, 69, 0
2, 181560, Note_on_c, 0, 69, 83
2, 181638, Note_on_c, 0, 69, 0
2, 181680, Control_c, 0, 64, 0
2, 181680, Note_on_c, 0, 50, 84
2, 181920, Note_on_c, 0, 50, 0
2, 182040, Note_on_c, 0, 50, 86
2, 182118, Note_on_c, 0, 50, 0
2, 182160, Note_on_c, 0, 62, 86
2, 182400, Note_on_c, 0, 62, 0
2, 182520, Note_on_c, 0, 62, 88
2, 182598, Note_on_c, 0, 62, 0
2, 182640, Note_on_c, 0, 60, 89
2, 182880, Note_on_c, 0, 60, 0
2, 183000, Note_on_c, 0, 60, 91
2, 183078, Note_on_c, 0, 60, 0
2, 183120, Note_on_c, 0, 72, 92
2, 183360, Note_on_c, 0, 72, 0
2, 183480, Note_on_c, 0, 70, 94
2, 183558, Note_on_c, 0, 70, 0
2, 183600, Note_on_c, 0, 68, 94
2, 183840, Note_on_c, 0, 68, 0
2, 183960, Note_on_c, 0, 68, 96
2, 184038, Note_on_c, 0, 68, 0
2, 184080, Note_on_c, 0, 77, 97
2, 184320, Note_on_c, 0, 77, 0
2, 184440, Note_on_c, 0, 75, 99
2, 184518, Note_on_c, 0, 75, 0
2, 184560, Note_on_c, 0, 73, 100
2, 184800, Note_on_c, 0, 73, 0
2, 184920, Note_on_c, 0, 73, 102
2, 184998, Note_on_c, 0, 73, 0
2, 185040, Note_on_c, 0, 73, 102
2, 185040, Note_on_c, 0, 85, 102
2, 185280, Note_on_c, 0, 85, 0
2, 185280, Note_on_c, 0, 73, 0
2, 185400, Note_on_c, 0, 73, 104
2, 185400, Note_on_c, 0, 85, 104
2, 185478, Note_on_c, 0, 85, 0
2, 185478, Note_on_c, 0, 73, 0
2, 185520, Note_on_c, 0, 78, 105
2, 185520, Note_on_c, 0, 90, 105
2, 185760, Note_on_c, 0, 90, 0
2, 185760, Note_on_c, 0, 78, 0
2, 185880, Note_on_c, 0, 78, 107
2, 185880, Note_on_c, 0, 90, 107
2, 185958, Note_on_c, 0, 90, 0
2, 185958, Note_on_c, 0, 78, 0
2, 186000, Note_on_c, 0, 79, 108
2, 186000, Note_on_c, 0, 91, 108
2, 186240, Note_on_c, 0, 91, 0
2, 186240, Note_on_c, 0, 79, 0
2, 186360, Note_on_c, 0, 79, 110
2, 186360, Note_on_c, 0, 91, 110
2, 186438, Note_on_c, 0, 91, 0
2, 186438, Note_on_c, 0, 79, 0
2, 186480, Note_on_c, 0, 80, 110
2, 186480, Note_on_c, 0, 92, 110
2, 186720, Note_on_c, 0, 92, 0
2, 186720, Note_on_c, 0, 80, 0
2, 186840, Note_on_c, 0, 80, 112
2, 186840, Note_on_c, 0, 92, 112
2, 186918, Note_on_c, 0, 92, 0
2, 186918, Note_on_c, 0, 80, 0
2, 186960, Note_on_c, 0, 81, 113
2, 186960, Note_on_c, 0, 93, 113
2, 187200, Note_on_c, 0, 93, 0
2, 187200, Note_on_c, 0, 81, 0
2, 187320, Note_on_c, 0, 81, 115
2, 187320, Note_on_c, 0, 93, 115
2, 187398, Note_on_c, 0, 93, 0
2, 187398, Note_on_c, 0, 81, 0
2, 187440, Note_on_c, 0, 81, 116
2, 187440, Note_on_c, 0, 93, 116
2, 187680, Note_on_c, 0, 93, 0
2, 187680, Note_on_c, 0, 81, 0
2, 187800, Note_on_c, 0, 80, 118
2, 187800, Note_on_c, 0, 92, 118
2, 187878, Note_on_c, 0, 92, 0
2, 187878, Note_on_c, 0, 80, 0
2, 187920, Note_on_c, 0, 93, 118
2, 187920, Note_on_c, 0, 81, 118
2, 188160, Note_on_c, 0, 81, 0
2, 188160, Note_on_c, 0, 93, 0
2, 188280, Note_on_c, 0, 79, 120
2, 188280, Note_on_c, 0, 91, 120
2, 188358, Note_on_c, 0, 91, 0
2, 188358, Note_on_c, 0, 79, 0
2, 188400, Note_on_c, 0, 79, 123
2, 188400, Note_on_c, 0, 91, 123
2, 188556, Note_on_c, 0, 91, 0
2, 188556, Note_on_c, 0, 79, 0
2, 188640, Note_on_c, 0, 78, 122
2, 188640, Note_on_c, 0, 90, 122
2, 188796, Note_on_c, 0, 90, 0
2, 188796, Note_on_c, 0, 78, 0
2, 188880, Note_on_c, 0, 89, 120
2, 188880, Note_on_c, 0, 77, 120
2, 189036, Note_on_c, 0, 77, 0
2, 189036, Note_on_c, 0, 89, 0
2, 189120, Note_on_c, 0, 76, 118
2, 189120, Note_on_c, 0, 88, 118
2, 189276, Note_on_c, 0, 88, 0
2, 189276, Note_on_c, 0, 76, 0
2, 189360, Note_on_c, 0, 75, 117
2, 189360, Note_on_c, 0, 87, 117
2, 189600, Note_on_c, 0, 87, 0
2, 189600, Note_on_c, 0, 75, 0
2, 189720, Note_on_c, 0, 75, 114
2, 189720, Note_on_c, 0, 87, 114
2, 189798, Note_on_c, 0, 87, 0
2, 189798, Note_on_c, 0, 75, 0
2, 189840, Note_on_c, 0, 73, 113
2, 189840, Note_on_c, 0, 85, 113
2, 190080, Note_on_c, 0, 85, 0
2, 190080, Note_on_c, 0, 73, 0
2, 190200, Note_on_c, 0, 73, 111
2, 190200, Note_on_c, 0, 85, 111
2, 190278, Note_on_c, 0, 85, 0
2, 190278, Note_on_c, 0, 73, 0
2, 190320, Note_on_c, 0, 74, 110
2, 190320, Note_on_c, 0, 86, 110
2, 190560, Note_on_c, 0, 86, 0
2, 190560, Note_on_c, 0, 74, 0
2, 190680, Note_on_c, 0, 74, 107
2, 190680, Note_on_c, 0, 86, 107
2, 190758, Note_on_c, 0, 86, 0
2, 190758, Note_on_c, 0, 74, 0
2, 190800, Note_on_c, 0, 74, 106
2, 191040, Note_on_c, 0, 74, 0
2, 191160, Note_on_c, 0, 62, 104
2, 191238, Note_on_c, 0, 62, 0
2, 191280, Control_c, 0, 64, 0
2, 191280, Note_on_c, 0, 50, 82
2, 191760, Note_on_c, 0, 50, 0
2, 191760, Note_on_c, 0, 74, 72
2, 191760, Note_on_c, 0, 62, 72
2, 191838, Note_on_c, 0, 62, 0
2, 191838, Note_on_c, 0, 74, 0
2, 191880, Note_on_c, 0, 69, 73
2, 191880, Note_on_c, 0, 57, 73
2, 191958, Note_on_c, 0, 57, 0
2, 191958, Note_on_c, 0, 69, 0
2, 192000, Note_on_c, 0, 57, 76
2, 192000, Note_on_c, 0, 69, 76
2, 192078, Note_on_c, 0, 69, 0
2, 192078, Note_on_c, 0, 57, 0
2, 192120, Note_on_c, 0, 60, 78
2, 192120, Note_on_c, 0, 72, 78
2, 192198, Note_on_c, 0, 72, 0
2, 192198, Note_on_c, 0, 60, 0
2, 192240, Control_c, 0, 64, 0
2, 192240, Note_on_c, 0, 59, 85
2, 192240, Note_on_c, 0, 71, 85
2, 192720, Note_on_c, 0, 71, 0
2, 192720, Note_on_c, 0, 59, 0
2, 192720, Note_on_c, 0, 67, 78
2, 192720, Note_on_c, 0, 79, 78
2, 192798, Note_on_c, 0, 79, 0
2, 192798, Note_on_c, 0, 67, 0
2, 192840, Note_on_c, 0, 62, 79
2, 192840, Note_on_c, 0, 74, 79
2, 192918, Note_on_c, 0, 74, 0
2, 192918, Note_on_c, 0, 62, 0
2, 192960, Note_on_c, 0, 62, 82
2, 192960, Note_on_c, 0, 74, 82
2, 193038, Note_on_c, 0, 74, 0
2, 193038, Note_on_c, 0, 62, 0
2, 193080, Note_on_c, 0, 67, 84
2, 193080, Note_on_c, 0, 79, 84
2, 193158, Note_on_c, 0, 79, 0
2, 193158, Note_on_c, 0, 67, 0
2, 193200, Note_on_c, 0, 64, 92
2, 193200, Note_on_c, 0, 76, 92
2, 193680, Note_on_c, 0, 76, 0
2, 193680, Note_on_c, 0, 64, 0
2, 193680, Note_on_c, 0, 76, 85
2, 193680, Note_on_c, 0, 88, 85
2, 193758, Note_on_c, 0, 88, 0
2, 193758, Note_on_c, 0, 76, 0
2, 193800, Note_on_c, 0, 83, 85
2, 193800, Note_on_c, 0, 71, 85
2, 193878, Note_on_c, 0, 71, 0
2, 193878, Note_on_c, 0, 83, 0
2, 193920, Note_on_c, 0, 71, 86
2, 193920, Note_on_c, 0, 83, 86
2, 193998, Note_on_c, 0, 83, 0
2, 193998, Note_on_c, 0, 71, 0
2, 194040, Note_on_c, 0, 74, 87
2, 194040, Note_on_c, 0, 86, 87
2, 194118, Note_on_c, 0, 86, 0
2, 194118, Note_on_c, 0, 74, 0
2, 194160, Note_on_c, 0, 73, 96
2, 194160, Note_on_c, 0, 85, 96
2, 194238, Note_on_c, 0, 85, 0
2, 194238, Note_on_c, 0, 73, 0
2, 194280, Note_on_c, 0, 69, 82
2, 194280, Note_on_c, 0, 81, 82
2, 194358, Note_on_c, 0, 81, 0
2, 194358, Note_on_c, 0, 69, 0
2, 194400, Note_on_c, 0, 69, 90
2, 194400, Note_on_c, 0, 81, 90
2, 194478, Note_on_c, 0, 81, 0
2, 194478, Note_on_c, 0, 69, 0
2, 194520, Note_on_c, 0, 64, 76
2, 194520, Note_on_c, 0, 76, 76
2, 194598, Note_on_c, 0, 76, 0
2, 194598, Note_on_c, 0, 64, 0
2, 194640, Note_on_c, 0, 76, 84
2, 194640, Note_on_c, 0, 64, 84
2, 194718, Note_on_c, 0, 64, 0
2, 194718, Note_on_c, 0, 76, 0
2, 194760, Note_on_c, 0, 61, 70
2, 194760, Note_on_c, 0, 73, 70
2, 194838, Note_on_c, 0, 73, 0
2, 194838, Note_on_c, 0, 61, 0
2, 194880, Note_on_c, 0, 61, 77
2, 194880, Note_on_c, 0, 73, 77
2, 194958, Note_on_c, 0, 73, 0
2, 194958, Note_on_c, 0, 61, 0
2, 195000, Note_on_c, 0, 69, 64
2, 195000, Note_on_c, 0, 57, 64
2, 195078, Note_on_c, 0, 57, 0
2, 195078, Note_on_c, 0, 69, 0
2, 195120, Note_on_c, 0, 69, 74
2, 195120, Note_on_c, 0, 57, 74
2, 195600, Note_on_c, 0, 57, 0
2, 195600, Note_on_c, 0, 69, 0
2, 195600, Note_on_c, 0, 62, 66
2, 195600, Note_on_c, 0, 74, 66
2, 195678, Note_on_c, 0, 74, 0
2, 195678, Note_on_c, 0, 62, 0
2, 195720, Note_on_c, 0, 57, 69
2, 195720, Note_on_c, 0, 69, 69
2, 195798, Note_on_c, 0, 69, 0
2, 195798, Note_on_c, 0, 57, 0
2, 195840, Note_on_c, 0, 57, 71
2, 195840, Note_on_c, 0, 69, 71
2, 195918, Note_on_c, 0, 69, 0
2, 195918, Note_on_c, 0, 57, 0
2, 195960, Note_on_c, 0, 65, 74
2, 195960, Note_on_c, 0, 77, 74
2, 196038, Note_on_c, 0, 77, 0
2, 196038, Note_on_c, 0, 65, 0
2, 196080, Note_on_c, 0, 64, 82
2, 196080, Note_on_c, 0, 76, 82
2, 196560, Note_on_c, 0, 76, 0
2, 196560, Note_on_c, 0, 64, 0
2, 196560, Note_on_c, 0, 76, 76
2, 196560, Note_on_c, 0, 88, 76
2, 196638, Note_on_c, 0, 88, 0
2, 196638, Note_on_c, 0, 76, 0
2, 196680, Note_on_c, 0, 81, 76
2, 196680, Note_on_c, 0, 69, 76
2, 196758, Note_on_c, 0, 69, 0
2, 196758, Note_on_c, 0, 81, 0
2, 196800, Note_on_c, 0, 69, 79
2, 196800, Note_on_c, 0, 81, 79
2, 196878, Note_on_c, 0, 81, 0
2, 196878, Note_on_c, 0, 69, 0
2, 196920, Note_on_c, 0, 77, 81
2, 196920, Note_on_c, 0, 89, 81
2, 196998, Note_on_c, 0, 89, 0
2, 196998, Note_on_c, 0, 77, 0
2, 197040, Note_on_c, 0, 76, 89
2, 197040, Note_on_c, 0, 88, 89
2, 197520, Note_on_c, 0, 88, 0
2, 197520, Note_on_c, 0, 76, 0
2, 197520, Note_on_c, 0, 75, 84
2, 197520, Note_on_c, 0, 87, 84
2, 197598, Note_on_c, 0, 87, 0
2, 197598, Note_on_c, 0, 75, 0
2, 197640, Note_on_c, 0, 69, 86
2, 197640, Note_on_c, 0, 81, 86
2, 197718, Note_on_c, 0, 81, 0
2, 197718, Note_on_c, 0, 69, 0
2, 197760, Note_on_c, 0, 81, 89
2, 197760, Note_on_c, 0, 69, 89
2, 197838, Note_on_c, 0, 69, 0
2, 197838, Note_on_c, 0, 81, 0
2, 197880, Note_on_c, 0, 81, 92
2, 197880, Note_on_c, 0, 93, 92
2, 197958, Note_on_c, 0, 93, 0
2, 197958, Note_on_c, 0, 81, 0
2, 198000, Note_on_c, 0, 74, 100
2, 198000, Note_on_c, 0, 86, 100
2, 198078, Note_on_c, 0, 86, 0
2, 198078, Note_on_c, 0, 74, 0
2, 198120, Note_on_c, 0, 69, 90
2, 198120, Note_on_c, 0, 81, 90
2, 198198, Note_on_c, 0, 81, 0
2, 198198, Note_on_c, 0, 69, 0
2, 198240, Note_on_c, 0, 69, 91
2, 198240, Note_on_c, 0, 81, 91
2, 198318, Note_on_c, 0, 81, 0
2, 198318, Note_on_c, 0, 69, 0
2, 198360, Note_on_c, 0, 77, 92
2, 198360, Note_on_c, 0, 93, 92
2, 198438, Note_on_c, 0, 93, 0
2, 198438, Note_on_c, 0, 77, 0
2, 198480, Note_on_c, 0, 74, 105
2, 198480, Note_on_c, 0, 86, 105
2, 198558, Note_on_c, 0, 86, 0
2, 198558, Note_on_c, 0, 74, 0
2, 198600, Note_on_c, 0, 67, 94
2, 198600, Note_on_c, 0, 79, 94
2, 198678, Note_on_c, 0, 79, 0
2, 198678, Note_on_c, 0, 67, 0
2, 198720, Note_on_c, 0, 67, 95
2, 198720, Note_on_c, 0, 79, 95
2, 198798, Note_on_c, 0, 79, 0
2, 198798, Note_on_c, 0, 67, 0
2, 198840, Note_on_c, 0, 79, 96
2, 198840, Note_on_c, 0, 91, 96
2, 198918, Note_on_c, 0, 91, 0
2, 198918, Note_on_c, 0, 79, 0
2, 198960, Note_on_c, 0, 79, 107
2, 198960, Note_on_c, 0, 91, 107
2, 199038, Note_on_c, 0, 91, 0
2, 199038, Note_on_c, 0, 79, 0
2, 199200, Note_on_c, 0, 77, 102
2, 199200, Note_on_c, 0, 89, 102
2, 199278, Note_on_c, 0, 89, 0
2, 199278, Note_on_c, 0, 77, 0
2, 199440, Note_on_c, 0, 88, 100
2, 199440, Note_on_c, 0, 76, 100
2, 199518, Note_on_c, 0, 76, 0
2, 199518, Note_on_c, 0, 88, 0
2, 199680, Note_on_c, 0, 88, 96
2, 199680, Note_on_c, 0, 76, 96
2, 199758, Note_on_c, 0, 76, 0
2, 199758, Note_on_c, 0, 88, 0
2, 199920, Control_c, 0, 64, 0
2, 199920, Note_on_c, 0, 69, 82
2, 200400, Note_on_c, 0, 69, 0
2, 200400, Note_on_c, 0, 62, 72
2, 200400, Note_on_c, 0, 74, 72
2, 200478, Note_on_c, 0, 74, 0
2, 200478, Note_on_c, 0, 62, 0
2, 200520, Note_on_c, 0, 57, 73
2, 200520, Note_on_c, 0, 69, 73
2, 200598, Note_on_c, 0, 69, 0
2, 200598, Note_on_c, 0, 57, 0
2, 200640, Note_on_c, 0, 69, 76
2, 200640, Note_on_c, 0, 57, 76
2, 200718, Note_on_c, 0, 57, 0
2, 200718, Note_on_c, 0, 69, 0
2, 200760, Note_on_c, 0, 72, 78
2, 200760, Note_on_c, 0, 60, 78
2, 200838, Note_on_c, 0, 60, 0
2, 200838, Note_on_c, 0, 72, 0
2, 200880, Control_c, 0, 64, 0
2, 200880, Note_on_c, 0, 71, 85
2, 200880, Note_on_c, 0, 59, 85
2, 201360, Note_on_c, 0, 59, 0
2, 201360, Note_on_c, 0, 71, 0
2, 201360, Note_on_c, 0, 79, 78
2, 201360, Note_on_c, 0, 67, 78
2, 201438, Note_on_c, 0, 67, 0
2, 201438, Note_on_c, 0, 79, 0
2, 201480, Note_on_c, 0, 74, 79
2, 201480, Note_on_c, 0, 62, 79
2, 201558, Note_on_c, 0, 62, 0
2, 201558, Note_on_c, 0, 74, 0
2, 201600, Note_on_c, 0, 74, 82
2, 201600, Note_on_c, 0, 62, 82
2, 201678, Note_on_c, 0, 62, 0
2, 201678, Note_on_c, 0, 74, 0
2, 201720, Note_on_c, 0, 79, 84
2, 201720, Note_on_c, 0, 67, 84
2, 201798, Note_on_c, 0, 67, 0
2, 201798, Note_on_c, 0, 79, 0
2, 201840, Note_on_c, 0, 76, 92
2, 201840, Note_on_c, 0, 64, 92
2, 202320, Note_on_c, 0, 64, 0
2, 202320, Note_on_c, 0, 76, 0
2, 202320, Note_on_c, 0, 88, 85
2, 202320, Note_on_c, 0, 76, 85
2, 202398, Note_on_c, 0, 76, 0
2, 202398, Note_on_c, 0, 88, 0
2, 202440, Note_on_c, 0, 71, 85
2, 202440, Note_on_c, 0, 83, 85
2, 202518, Note_on_c, 0, 83, 0
2, 202518, Note_on_c, 0, 71, 0
2, 202560, Note_on_c, 0, 83, 86
2, 202560, Note_on_c, 0, 71, 86
2, 202638, Note_on_c, 0, 71, 0
2, 202638, Note_on_c, 0, 83, 0
2, 202680, Note_on_c, 0, 86, 87
2, 202680, Note_on_c, 0, 74, 87
2, 202758, Note_on_c, 0, 74, 0
2, 202758, Note_on_c, 0, 86, 0
2, 202800, Note_on_c, 0, 85, 96
2, 202800, Note_on_c, 0, 73, 96
2, 202878, Note_on_c, 0, 73, 0
2, 202878, Note_on_c, 0, 85, 0
2, 202920, Note_on_c, 0, 81, 82
2, 202920, Note_on_c, 0, 69, 82
2, 202998, Note_on_c, 0, 69, 0
2, 202998, Note_on_c, 0, 81, 0
2, 203040, Note_on_c, 0, 81, 90
2, 203040, Note_on_c, 0, 69, 90
2, 203118, Note_on_c, 0, 69, 0
2, 203118, Note_on_c, 0, 81, 0
2, 203160, Note_on_c, 0, 76, 76
2, 203160, Note_on_c, 0, 64, 76
2, 203238, Note_on_c, 0, 64, 0
2, 203238, Note_on_c, 0, 76, 0
2, 203280, Note_on_c, 0, 64, 84
2, 203280, Note_on_c, 0, 76, 84
2, 203358, Note_on_c, 0, 76, 0
2, 203358, Note_on_c, 0, 64, 0
2, 203400, Note_on_c, 0, 73, 70
2, 203400, Note_on_c, 0, 61, 70
2, 203478, Note_on_c, 0, 61, 0
2, 203478, Note_on_c, 0, 73, 0
2, 203520, Note_on_c, 0, 73, 77
2, 203520, Note_on_c, 0, 61, 77
2, 203598, Note_on_c, 0, 61, 0
2, 203598, Note_on_c, 0, 73, 0
2, 203640, Note_on_c, 0, 57, 64
2, 203640, Note_on_c, 0, 69, 64
2, 203718, Note_on_c, 0, 69, 0
2, 203718, Note_on_c, 0, 57, 0
2, 203760, Note_on_c, 0, 57, 74
2, 203760, Note_on_c, 0, 69, 74
2, 204240, Note_on_c, 0, 69, 0
2, 204240, Note_on_c, 0, 57, 0
2, 204240, Note_on_c, 0, 74, 66
2, 204240, Note_on_c, 0, 62, 66
2, 204318, Note_on_c, 0, 62, 0
2, 204318, Note_on_c, 0, 74, 0
2, 204360, Note_on_c, 0, 69, 69
2, 204360, Note_on_c, 0, 57, 69
2, 204438, Note_on_c, 0, 57, 0
2, 204438, Note_on_c, 0, 69, 0
2, 204480, Note_on_c, 0, 69, 71
2, 204480, Note_on_c, 0, 57, 71
2, 204558, Note_on_c, 0, 57, 0
2, 204558, Note_on_c, 0, 69, 0
2, 204600, Note_on_c, 0, 77, 74
2, 204600, Note_on_c, 0, 65, 74
2, 204678, Note_on_c, 0, 65, 0
2, 204678, Note_on_c, 0, 77, 0
2, 204720, Note_on_c, 0, 76, 82
2, 204720, Note_on_c, 0, 64, 82
2, 205200, Note_on_c, 0, 64, 0
2, 205200, Note_on_c, 0, 76, 0
2, 205200, Note_on_c, 0, 88, 76
2, 205200, Note_on_c, 0, 76, 76
2, 205278, Note_on_c, 0, 76, 0
2, 205278, Note_on_c, 0, 88, 0
2, 205320, Note_on_c, 0, 69, 76
2, 205320, Note_on_c, 0, 81, 76
2, 205398, Note_on_c, 0, 81, 0
2, 205398, Note_on_c, 0, 69, 0
2, 205440, Note_on_c, 0, 81, 79
2, 205440, Note_on_c, 0, 69, 79
2, 205518, Note_on_c, 0, 69, 0
2, 205518, Note_on_c, 0, 81, 0
2, 205560, Note_on_c, 0, 89, 81
2, 205560, Note_on_c, 0, 77, 81
2, 205638, Note_on_c, 0, 77, 0
2, 205638, Note_on_c, 0, 89, 0
2, 205680, Note_on_c, 0, 88, 89
2, 205680, Note_on_c, 0, 76, 89
2, 206160, Note_on_c, 0, 76, 0
2, 206160, Note_on_c, 0, 88, 0
2, 206160, Note_on_c, 0, 87, 84
2, 206160, Note_on_c, 0, 75, 84
2, 206238, Note_on_c, 0, 75, 0
2, 206238, Note_on_c, 0, 87, 0
2, 206280, Note_on_c, 0, 81, 86
2, 206280, Note_on_c, 0, 69, 86
2, 206358, Note_on_c, 0, 69, 0
2, 206358, Note_on_c, 0, 81, 0
2, 206400, Note_on_c, 0, 69, 89
2, 206400, Note_on_c, 0, 81, 89
2, 206478, Note_on_c, 0, 81, 0
2, 206478, Note_on_c, 0, 69, 0
2, 206520, Note_on_c, 0, 93, 92
2, 206520, Note_on_c, 0, 81, 92
2, 206598, Note_on_c, 0, 81, 0
2, 206598, Note_on_c, 0, 93, 0
2, 206640, Note_on_c, 0, 86, 100
2, 206640, Note_on_c, 0, 74, 100
2, 206718, Note_on_c, 0, 74, 0
2, 206718, Note_on_c, 0, 86, 0
2, 206760, Note_on_c, 0, 81, 90
2, 206760, Note_on_c, 0, 69, 90
2, 206838, Note_on_c, 0, 69, 0
2, 206838, Note_on_c, 0, 81, 0
2, 206880, Note_on_c, 0, 81, 91
2, 206880, Note_on_c, 0, 69, 91
2, 206958, Note_on_c, 0, 69, 0
2, 206958, Note_on_c, 0, 81, 0
2, 207000, Note_on_c, 0, 93, 92
2, 207000, Note_on_c, 0, 77, 92
2, 207078, Note_on_c, 0, 77, 0
2, 207078, Note_on_c, 0, 93, 0
2, 207120, Note_on_c, 0, 86, 105
2, 207120, Note_on_c, 0, 74, 105
2, 207198, Note_on_c, 0, 74, 0
2, 207198, Note_on_c, 0, 86, 0
2, 207240, Note_on_c, 0, 79, 94
2, 207240, Note_on_c, 0, 67, 94
2, 207318, Note_on_c, 0, 67, 0
2, 207318, Note_on_c, 0, 79, 0
2, 207360, Note_on_c, 0, 79, 95
2, 207360, Note_on_c, 0, 67, 95
2, 207438, Note_on_c, 0, 67, 0
2, 207438, Note_on_c, 0, 79, 0
2, 207480, Note_on_c, 0, 91, 96
2, 207480, Note_on_c, 0, 79, 96
2, 207558, Note_on_c, 0, 79, 0
2, 207558, Note_on_c, 0, 91, 0
2, 207600, Note_on_c, 0, 91, 107
2, 207600, Note_on_c, 0, 79, 107
2, 207678, Note_on_c, 0, 79, 0
2, 207678, Note_on_c, 0, 91, 0
2, 207840, Note_on_c, 0, 89, 102
2, 207840, Note_on_c, 0, 77, 102
2, 207918, Note_on_c, 0, 77, 0
2, 207918, Note_on_c, 0, 89, 0
2, 208080, Note_on_c, 0, 76, 100
2, 208080, Note_on_c, 0, 88, 100
2, 208158, Note_on_c, 0, 88, 0
2, 208158, Note_on_c, 0, 76, 0
2, 208320, Note_on_c, 0, 76, 96
2, 208320, Note_on_c, 0, 88, 96
2, 208398, Note_on_c, 0, 88, 0
2, 208398, Note_on_c, 0, 76, 0
2, 208560, Control_c, 0, 64, 0
2, 208560, Note_on_c, 0, 57, 64
2, 208560, Note_on_c, 0, 69, 64
2, 209040, Note_on_c, 0, 69, 0
2, 209040, Note_on_c, 0, 57, 0
2, 209040, Note_on_c, 0, 62, 59
2, 209040, Note_on_c, 0, 74, 59
2, 209118, Note_on_c, 0, 74, 0
2, 209118, Note_on_c, 0, 62, 0
2, 209160, Note_on_c, 0, 69, 60
2, 209160, Note_on_c, 0, 57, 60
2, 209238, Note_on_c, 0, 57, 0
2, 209238, Note_on_c, 0, 69, 0
2, 209280, Note_on_c, 0, 69, 63
2, 209280, Note_on_c, 0, 57, 63
2, 209358, Note_on_c, 0, 57, 0
2, 209358, Note_on_c, 0, 69, 0
2, 209400, Note_on_c, 0, 65, 65
2, 209400, Note_on_c, 0, 77, 65
2, 209478, Note_on_c, 0, 77, 0
2, 209478, Note_on_c, 0, 65, 0
2, 209520, Control_c, 0, 64, 0
2, 209520, Note_on_c, 0, 67, 72
2, 209520, Note_on_c, 0, 79, 72
2, 210000, Note_on_c, 0, 79, 0
2, 210000, Note_on_c, 0, 67, 0
2, 210000, Note_on_c, 0, 67, 68
2, 210000, Note_on_c, 0, 79, 68
2, 210078, Note_on_c, 0, 79, 0
2, 210078, Note_on_c, 0, 67, 0
2, 210120, Note_on_c, 0, 60, 69
2, 210120, Note_on_c, 0, 72, 69
2, 210198, Note_on_c, 0, 72, 0
2, 210198, Note_on_c, 0, 60, 0
2, 210240, Note_on_c, 0, 60, 72
2, 210240, Note_on_c, 0, 72, 72
2, 210318, Note_on_c, 0, 72, 0
2, 210318, Note_on_c, 0, 60, 0
2, 210360, Note_on_c, 0, 72, 74
2, 210360, Note_on_c, 0, 84, 74
2, 210438, Note_on_c, 0, 84, 0
2, 210438, Note_on_c, 0, 72, 0
2, 210480, Note_on_c, 0, 72, 82
2, 210480, Note_on_c, 0, 84, 82
2, 210960, Note_on_c, 0, 84, 0
2, 210960, Note_on_c, 0, 72, 0
2, 210960, Note_on_c, 0, 84, 77
2, 210960, Note_on_c, 0, 72, 77
2, 211038, Note_on_c, 0, 72, 0
2, 211038, Note_on_c, 0, 84, 0
2, 211080, Note_on_c, 0, 65, 78
2, 211080, Note_on_c, 0, 77, 78
2, 211158, Note_on_c, 0, 77, 0
2, 211158, Note_on_c, 0, 65, 0
2, 211200, Note_on_c, 0, 65, 81
2, 211200, Note_on_c, 0, 77, 81
2, 211278, Note_on_c, 0, 77, 0
2, 211278, Note_on_c, 0, 65, 0
2, 211320, Note_on_c, 0, 72, 83
2, 211320, Note_on_c, 0, 84, 83
2, 211398, Note_on_c, 0, 84, 0
2, 211398, Note_on_c, 0, 72, 0
2, 211440, Note_on_c, 0, 73, 91
2, 211440, Note_on_c, 0, 85, 91
2, 211920, Note_on_c, 0, 85, 0
2, 211920, Note_on_c, 0, 73, 0
2, 211920, Note_on_c, 0, 73, 86
2, 211920, Note_on_c, 0, 85, 86
2, 211998, Note_on_c, 0, 85, 0
2, 211998, Note_on_c, 0, 73, 0
2, 212040, Note_on_c, 0, 81, 89
2, 212040, Note_on_c, 0, 69, 89
2, 212118, Note_on_c, 0, 69, 0
2, 212118, Note_on_c, 0, 81, 0
2, 212160, Note_on_c, 0, 69, 92
2, 212160, Note_on_c, 0, 81, 92
2, 212238, Note_on_c, 0, 81, 0
2, 212238, Note_on_c, 0, 69, 0
2, 212280, Note_on_c, 0, 93, 94
2, 212280, Note_on_c, 0, 81, 94
2, 212358, Note_on_c, 0, 81, 0
2, 212358, Note_on_c, 0, 93, 0
2, 212400, Note_on_c, 0, 81, 102
2, 212400, Note_on_c, 0, 93, 102
2, 212478, Note_on_c, 0, 93, 0
2, 212478, Note_on_c, 0, 81, 0
2, 212520, Note_on_c, 0, 77, 92
2, 212520, Note_on_c, 0, 89, 92
2, 212598, Note_on_c, 0, 89, 0
2, 212598, Note_on_c, 0, 77, 0
2, 212640, Note_on_c, 0, 77, 93
2, 212640, Note_on_c, 0, 89, 93
2, 212718, Note_on_c, 0, 89, 0
2, 212718, Note_on_c, 0, 77, 0
2, 212760, Note_on_c, 0, 90, 95
2, 212760, Note_on_c, 0, 78, 95
2, 212838, Note_on_c, 0, 78, 0
2, 212838, Note_on_c, 0, 90, 0
2, 212880, Note_on_c, 0, 78, 108
2, 212880, Note_on_c, 0, 90, 108
2, 212958, Note_on_c, 0, 90, 0
2, 212958, Note_on_c, 0, 78, 0
2, 213000, Note_on_c, 0, 85, 97
2, 213000, Note_on_c, 0, 73, 97
2, 213078, Note_on_c, 0, 73, 0
2, 213078, Note_on_c, 0, 85, 0
2, 213120, Note_on_c, 0, 85, 98
2, 213120, Note_on_c, 0, 73, 98
2, 213198, Note_on_c, 0, 73, 0
2, 213198, Note_on_c, 0, 85, 0
2, 213240, Note_on_c, 0, 74, 99
2, 213240, Note_on_c, 0, 86, 99
2, 213318, Note_on_c, 0, 86, 0
2, 213318, Note_on_c, 0, 74, 0
2, 213360, Note_on_c, 0, 74, 112
2, 213360, Note_on_c, 0, 86, 112
2, 213438, Note_on_c, 0, 86, 0
2, 213438, Note_on_c, 0, 74, 0
2, 213480, Note_on_c, 0, 68, 101
2, 213480, Note_on_c, 0, 80, 101
2, 213558, Note_on_c, 0, 80, 0
2, 213558, Note_on_c, 0, 68, 0
2, 213600, Note_on_c, 0, 68, 103
2, 213600, Note_on_c, 0, 80, 103
2, 213678, Note_on_c, 0, 80, 0
2, 213678, Note_on_c, 0, 68, 0
2, 213720, Note_on_c, 0, 69, 104
2, 213720, Note_on_c, 0, 81, 104
2, 213798, Note_on_c, 0, 81, 0
2, 213798, Note_on_c, 0, 69, 0
2, 213840, Note_on_c, 0, 69, 116
2, 213840, Note_on_c, 0, 81, 116
2, 213918, Note_on_c, 0, 81, 0
2, 213918, Note_on_c, 0, 69, 0
2, 213960, Note_on_c, 0, 77, 106
2, 213960, Note_on_c, 0, 65, 106
2, 214038, Note_on_c, 0, 65, 0
2, 214038, Note_on_c, 0, 77, 0
2, 214080, Note_on_c, 0, 77, 107
2, 214080, Note_on_c, 0, 65, 107
2, 214158, Note_on_c, 0, 65, 0
2, 214158, Note_on_c, 0, 77, 0
2, 214200, Note_on_c, 0, 66, 108
2, 214200, Note_on_c, 0, 78, 108
2, 214278, Note_on_c, 0, 78, 0
2, 214278, Note_on_c, 0, 66, 0
2, 214320, Note_on_c, 0, 70, 121
2, 214320, Note_on_c, 0, 82, 121
2, 214398, Note_on_c, 0, 82, 0
2, 214398, Note_on_c, 0, 70, 0
2, 214440, Note_on_c, 0, 65, 111
2, 214440, Note_on_c, 0, 77, 111
2, 214518, Note_on_c, 0, 77, 0
2, 214518, Note_on_c, 0, 65, 0
2, 214560, Note_on_c, 0, 66, 112
2, 214560, Note_on_c, 0, 78, 112
2, 214638, Note_on_c, 0, 78, 0
2, 214638, Note_on_c, 0, 66, 0
2, 214680, Note_on_c, 0, 79, 113
2, 214680, Note_on_c, 0, 67, 113
2, 214758, Note_on_c, 0, 67, 0
2, 214758, Note_on_c, 0, 79, 0
2, 214800, Note_on_c, 0, 70, 126
2, 214800, Note_on_c, 0, 82, 126
2, 214878, Note_on_c, 0, 82, 0
2, 214878, Note_on_c, 0, 70, 0
2, 214920, Note_on_c, 0, 66, 115
2, 214920, Note_on_c, 0, 78, 115
2, 214998, Note_on_c, 0, 78, 0
2, 214998, Note_on_c, 0, 66, 0
2, 215040, Note_on_c, 0, 66, 116
2, 215040, Note_on_c, 0, 78, 116
2, 215118, Note_on_c, 0, 78, 0
2, 215118, Note_on_c, 0, 66, 0
2, 215160, Note_on_c, 0, 67, 118
2, 215160, Note_on_c, 0, 79, 118
2, 215238, Note_on_c, 0, 79, 0
2, 215238, Note_on_c, 0, 67, 0
2, 215280, Note_on_c, 0, 70, 127
2, 215280, Note_on_c, 0, 82, 127
2, 215358, Note_on_c, 0, 82, 0
2, 215358, Note_on_c, 0, 70, 0
2, 215400, Note_on_c, 0, 66, 120
2, 215400, Note_on_c, 0, 78, 120
2, 215478, Note_on_c, 0, 78, 0
2, 215478, Note_on_c, 0, 66, 0
2, 215520, Note_on_c, 0, 78, 121
2, 215520, Note_on_c, 0, 66, 121
2, 215598, Note_on_c, 0, 66, 0
2, 215598, Note_on_c, 0, 78, 0
2, 215640, Note_on_c, 0, 67, 122
2, 215640, Note_on_c, 0, 79, 122
2, 215718, Note_on_c, 0, 79, 0
2, 215718, Note_on_c, 0, 67, 0
2, 215760, Note_on_c, 0, 82, 123
2, 215760, Note_on_c, 0, 70, 123
2, 215838, Note_on_c, 0, 70, 0
2, 215838, Note_on_c, 0, 82, 0
2, 215880, Note_on_c, 0, 73, 125
2, 215880, Note_on_c, 0, 85, 125
2, 215958, Note_on_c, 0, 85, 0
2, 215958, Note_on_c, 0, 73, 0
2, 216000, Note_on_c, 0, 76, 126
2, 216000, Note_on_c, 0, 88, 126
2, 216078, Note_on_c, 0, 88, 0
2, 216078, Note_on_c, 0, 76, 0
2, 216120, Note_on_c, 0, 79, 127
2, 216120, Note_on_c, 0, 91, 127
2, 216198, Note_on_c, 0, 91, 0
2, 216198, Note_on_c, 0, 79, 0
2, 216240, Note_on_c, 0, 78, 127
2, 216240, Note_on_c, 0, 90, 127
2, 216960, Note_on_c, 0, 90, 0
2, 216960, Note_on_c, 0, 78, 0
2, 217200, Control_c, 0, 64, 0
2, 217220, Note_on_c, 0, 77, 94
2, 218160, Note_on_c, 0, 76, 86
2, 218165, Note_on_c, 0, 77, 0
2, 219120, Note_on_c, 0, 76, 0
2, 219120, Note_on_c, 0, 74, 76
2, 219360, Note_on_c, 0, 74, 0
2, 219360, Note_on_c, 0, 73, 78
2, 219600, Note_on_c, 0, 73, 0
2, 219600, Note_on_c, 0, 74, 74
2, 219840, Note_on_c, 0, 74, 0
2, 219840, Note_on_c, 0, 76, 69
2, 220080, Note_on_c, 0, 76, 0
2, 220080, Note_on_c, 0, 69, 67
2, 221000, Note_on_c, 0, 69, 0
2, 221040, Note_on_c, 0, 81, 87
2, 222000, Note_on_c, 0, 81, 0
2, 222000, Note_on_c, 0, 76, 80
2, 222915, Note_on_c, 0, 76, 0
2, 222960, Note_on_c, 0, 81, 77
2, 223200, Note_on_c, 0, 81, 0
2, 223200, Note_on_c, 0, 80, 78
2, 223440, Note_on_c, 0, 80, 0
2, 223440, Note_on_c, 0, 81, 80
2, 223680, Note_on_c, 0, 81, 0
2, 223680, Note_on_c, 0, 83, 81
2, 223920, Note_on_c, 0, 83, 0
2, 223920, Note_on_c, 0, 76, 83
2, 225360, Note_on_c, 0, 76, 0
2, 225840, Control_c, 0, 64, 0
2, 225860, Note_on_c, 0, 77, 94
2, 226800, Note_on_c, 0, 76, 86
2, 226805, Note_on_c, 0, 77, 0
2, 227760, Note_on_c, 0, 76, 0
2, 227760, Note_on_c, 0, 74, 76
2, 228000, Note_on_c, 0, 74, 0
2, 228000, Note_on_c, 0, 73, 78
2, 228240, Note_on_c, 0, 73, 0
2, 228240, Note_on_c, 0, 74, 74
2, 228480, Note_on_c, 0, 74, 0
2, 228480, Note_on_c, 0, 76, 69
2, 228720, Note_on_c, 0, 76, 0
2, 228720, Note_on_c, 0, 69, 67
2, 229640, Note_on_c, 0, 69, 0
2, 229680, Note_on_c, 0, 81, 87
2, 230640, Note_on_c, 0, 81, 0
2, 230640, Note_on_c, 0, 76, 80
2, 231555, Note_on_c, 0, 76, 0
2, 231600, Note_on_c, 0, 81, 77
2, 231840, Note_on_c, 0, 81, 0
2, 231840, Note_on_c, 0, 80, 78
2, 232080, Note_on_c, 0, 80, 0
2, 232080, Note_on_c, 0, 81, 80
2, 232320, Note_on_c, 0, 81, 0
2, 232320, Note_on_c, 0, 83, 81
2, 232560, Note_on_c, 0, 83, 0
2, 232560, Note_on_c, 0, 76, 83
2, 234000, Note_on_c, 0, 76, 0
2, 234480, Control_c, 0, 64, 0
2, 234480, Note_on_c, 0, 77, 84
2, 235440, Note_on_c, 0, 77, 0
2, 235440, Control_c, 0, 64, 0
2, 235440, Note_on_c, 0, 79, 89
2, 236400, Note_on_c, 0, 79, 0
2, 236400, Note_on_c, 0, 70, 95
2, 236640, Note_on_c, 0, 70, 0
2, 236640, Note_on_c, 0, 69, 92
2, 236880, Note_on_c, 0, 69, 0
2, 236880, Note_on_c, 0, 70, 90
2, 237120, Note_on_c, 0, 70, 0
2, 237120, Note_on_c, 0, 72, 87
2, 237360, Note_on_c, 0, 72, 0
2, 237400, Note_on_c, 0, 69, 86
2, 238320, Note_on_c, 0, 69, 0
2, 238320, Note_on_c, 0, 81, 100
2, 239280, Note_on_c, 0, 81, 0
2, 239280, Note_on_c, 0, 75, 90
2, 240240, Note_on_c, 0, 75, 0
2, 240240, Note_on_c, 0, 74, 83
2, 240480, Note_on_c, 0, 74, 0
2, 240480, Note_on_c, 0, 73, 87
2, 240960, Note_on_c, 0, 73, 0
2, 240960, Note_on_c, 0, 72, 80
2, 241200, Note_on_c, 0, 72, 0
2, 241200, Note_on_c, 0, 77, 82
2, 241440, Note_on_c, 0, 77, 0
2, 241440, Note_on_c, 0, 73, 86
2, 241920, Note_on_c, 0, 73, 0
2, 241920, Note_on_c, 0, 74, 72
2, 242160, Note_on_c, 0, 74, 0
2, 242160, Note_on_c, 0, 69, 69
2, 242640, Note_on_c, 0, 69, 0
2, 242640, Note_on_c, 0, 67, 63
2, 242880, Note_on_c, 0, 67, 0
2, 242880, Note_on_c, 0, 64, 59
2, 243120, Note_on_c, 0, 64, 0
2, 243120, Control_c, 0, 64, 0
2, 243120, Note_on_c, 0, 62, 52
2, 243312, Note_on_c, 0, 62, 0
2, 243360, Note_on_c, 0, 66, 53
2, 243840, Note_on_c, 0, 66, 0
2, 243840, Note_on_c, 0, 67, 55
2, 244032, Note_on_c, 0, 67, 0
2, 244080, Note_on_c, 0, 71, 56
2, 244560, Note_on_c, 0, 71, 0
2, 244560, Note_on_c, 0, 73, 58
2, 244752, Note_on_c, 0, 73, 0
2, 244800, Note_on_c, 0, 74, 59
2, 245520, Note_on_c, 0, 74, 0
2, 245520, Note_on_c, 0, 71, 63
2, 245760, Note_on_c, 0, 71, 0
2, 245760, Note_on_c, 0, 67, 62
2, 246000, Note_on_c, 0, 67, 0
2, 246000, Note_on_c, 0, 64, 61
2, 246192, Note_on_c, 0, 64, 0
2, 246240, Note_on_c, 0, 67, 60
2, 246910, Note_on_c, 0, 67, 0
2, 246960, Note_on_c, 0, 66, 58
2, 247640, Note_on_c, 0, 66, 0
2, 247680, Note_on_c, 0, 64, 56
2, 247920, Note_on_c, 0, 64, 0
2, 247920, Note_on_c, 0, 63, 55
2, 248160, Note_on_c, 0, 63, 0
2, 248160, Note_on_c, 0, 62, 54
2, 248640, Note_on_c, 0, 62, 0
2, 248640, Note_on_c, 0, 62, 53
2, 248880, Note_on_c, 0, 62, 0
2, 248880, Note_on_c, 0, 61, 52
2, 249360, Note_on_c, 0, 61, 0
2, 249620, Note_on_c, 0, 78, 50
2, 250076, Note_on_c, 0, 78, 0
2, 250080, Note_on_c, 0, 78, 53
2, 250320, Note_on_c, 0, 78, 0
2, 250320, Note_on_c, 0, 79, 54
2, 250772, Note_on_c, 0, 79, 0
2, 250800, Note_on_c, 0, 83, 57
2, 251040, Note_on_c, 0, 83, 0
2, 251060, Note_on_c, 0, 91, 62
2, 251520, Note_on_c, 0, 90, 59
2, 251523, Note_on_c, 0, 91, 0
2, 251760, Note_on_c, 0, 90, 0
2, 251760, Note_on_c, 0, 88, 57
2, 251920, Note_on_c, 0, 88, 0
2, 251920, Note_on_c, 0, 86, 56
2, 252080, Note_on_c, 0, 86, 0
2, 252080, Note_on_c, 0, 85, 55
2, 252240, Note_on_c, 0, 85, 0
2, 252240, Note_on_c, 0, 83, 54
2, 252400, Note_on_c, 0, 81, 53
2, 252405, Note_on_c, 0, 83, 0
2, 252480, Note_on_c, 0, 81, 0
2, 252480, Note_on_c, 0, 79, 53
2, 252875, Note_on_c, 0, 79, 0
2, 252880, Note_on_c, 0, 83, 51
2, 252960, Note_on_c, 0, 83, 0
2, 252960, Note_on_c, 0, 85, 50
2, 253120, Note_on_c, 0, 83, 52
2, 253125, Note_on_c, 0, 85, 0
2, 253200, Note_on_c, 0, 83, 0
2, 253200, Note_on_c, 0, 81, 54
2, 253595, Note_on_c, 0, 81, 0
2, 253600, Note_on_c, 0, 88, 59
2, 253680, Note_on_c, 0, 88, 0
2, 253680, Note_on_c, 0, 91, 60
2, 253840, Note_on_c, 0, 91, 0
2, 253840, Note_on_c, 0, 90, 62
2, 253920, Note_on_c, 0, 90, 0
2, 253920, Note_on_c, 0, 89, 65
2, 254320, Note_on_c, 0, 89, 0
2, 254320, Note_on_c, 0, 88, 62
2, 254400, Note_on_c, 0, 88, 0
2, 254400, Note_on_c, 0, 87, 62
2, 254560, Note_on_c, 0, 88, 61
2, 254565, Note_on_c, 0, 87, 0
2, 254640, Note_on_c, 0, 88, 0
2, 254640, Note_on_c, 0, 86, 60
2, 255035, Note_on_c, 0, 86, 0
2, 255040, Note_on_c, 0, 86, 57
2, 255120, Note_on_c, 0, 86, 0
2, 255120, Note_on_c, 0, 85, 57
2, 255280, Note_on_c, 0, 86, 55
2, 255285, Note_on_c, 0, 85, 0
2, 255360, Note_on_c, 0, 86, 0
2, 255360, Note_on_c, 0, 81, 55
2, 255835, Note_on_c, 0, 81, 0
2, 256200, Note_on_c, 0, 57, 50
2, 256440, Note_on_c, 0, 57, 0
2, 256440, Note_on_c, 0, 61, 51
2, 256680, Note_on_c, 0, 61, 0
2, 256680, Note_on_c, 0, 62, 52
2, 256800, Note_on_c, 0, 62, 0
2, 256800, Note_on_c, 0, 64, 52
2, 257520, Note_on_c, 0, 64, 0
2, 257640, Note_on_c, 0, 60, 56
2, 257880, Note_on_c, 0, 60, 0
2, 257880, Note_on_c, 0, 64, 57
2, 258120, Note_on_c, 0, 64, 0
2, 258120, Note_on_c, 0, 65, 58
2, 258240, Note_on_c, 0, 65, 0
2, 258240, Note_on_c, 0, 69, 58
2, 258960, Note_on_c, 0, 69, 0
2, 258960, Note_on_c, 0, 69, 61
2, 259080, Note_on_c, 0, 69, 0
2, 259080, Note_on_c, 0, 71, 61
2, 259200, Note_on_c, 0, 71, 0
2, 259200, Note_on_c, 0, 72, 62
2, 259560, Note_on_c, 0, 74, 63
2, 259565, Note_on_c, 0, 72, 0
2, 259680, Note_on_c, 0, 74, 0
2, 259680, Note_on_c, 0, 76, 64
2, 260040, Note_on_c, 0, 76, 0
2, 260040, Note_on_c, 0, 78, 65
2, 260160, Note_on_c, 0, 78, 0
2, 260160, Note_on_c, 0, 79, 66
2, 260520, Note_on_c, 0, 79, 0
2, 260520, Note_on_c, 0, 81, 67
2, 260640, Note_on_c, 0, 81, 0
2, 260640, Note_on_c, 0, 83, 68
2, 260760, Note_on_c, 0, 83, 0
2, 260760, Note_on_c, 0, 79, 68
2, 260880, Note_on_c, 0, 79, 0
2, 260880, Note_on_c, 0, 78, 68
2, 261000, Note_on_c, 0, 78, 0
2, 261000, Note_on_c, 0, 76, 69
2, 261120, Note_on_c, 0, 76, 0
2, 261120, Note_on_c, 0, 79, 69
2, 261240, Note_on_c, 0, 79, 0
2, 261240, Note_on_c, 0, 76, 67
2, 261360, Note_on_c, 0, 76, 0
2, 261360, Note_on_c, 0, 73, 66
2, 261480, Note_on_c, 0, 73, 0
2, 261480, Note_on_c, 0, 70, 64
2, 261600, Note_on_c, 0, 70, 0
2, 261600, Note_on_c, 0, 69, 63
2, 261720, Note_on_c, 0, 69, 0
2, 261720, Note_on_c, 0, 67, 61
2, 261840, Note_on_c, 0, 67, 0
2, 261840, Note_on_c, 0, 66, 60
2, 261960, Note_on_c, 0, 69, 58
2, 262545, Note_on_c, 0, 66, 0
2, 262550, Note_on_c, 0, 69, 0
2, 262580, Note_on_c, 0, 77, 54
2, 263040, Note_on_c, 0, 76, 55
2, 263047, Note_on_c, 0, 77, 0
2, 263200, Note_on_c, 0, 77, 56
2, 263205, Note_on_c, 0, 76, 0
2, 263280, Note_on_c, 0, 77, 0
2, 263300, Note_on_c, 0, 82, 60
2, 263760, Note_on_c, 0, 82, 0
2, 264020, Note_on_c, 0, 81, 58
2, 264472, Note_on_c, 0, 81, 0
2, 264480, Note_on_c, 0, 84, 60
2, 264635, Note_on_c, 0, 84, 0
2, 264640, Note_on_c, 0, 83, 60
2, 264720, Note_on_c, 0, 83, 0
2, 264720, Note_on_c, 0, 84, 61
2, 265200, Note_on_c, 0, 84, 0
2, 265200, Note_on_c, 0, 84, 62
2, 265430, Note_on_c, 0, 84, 0
2, 265440, Note_on_c, 0, 84, 63
2, 265835, Note_on_c, 0, 84, 0
2, 265840, Note_on_c, 0, 88, 64
2, 265920, Note_on_c, 0, 88, 0
2, 265920, Note_on_c, 0, 90, 65
2, 266080, Note_on_c, 0, 88, 65
2, 266085, Note_on_c, 0, 90, 0
2, 266160, Note_on_c, 0, 88, 0
2, 266160, Note_on_c, 0, 86, 65
2, 266560, Note_on_c, 0, 86, 0
2, 266560, Note_on_c, 0, 91, 67
2, 266640, Note_on_c, 0, 91, 0
2, 266660, Note_on_c, 0, 96, 67
2, 266800, Note_on_c, 0, 95, 67
2, 266820, Note_on_c, 0, 96, 0
2, 266880, Note_on_c, 0, 95, 0
2, 266880, Note_on_c, 0, 94, 68
2, 267280, Note_on_c, 0, 94, 0
2, 267280, Note_on_c, 0, 93, 69
2, 267360, Note_on_c, 0, 93, 0
2, 267360, Note_on_c, 0, 90, 69
2, 267520, Note_on_c, 0, 91, 70
2, 267525, Note_on_c, 0, 90, 0
2, 267600, Note_on_c, 0, 91, 0
2, 267600, Note_on_c, 0, 88, 71
2, 267995, Note_on_c, 0, 88, 0
2, 268000, Note_on_c, 0, 85, 66
2, 268080, Note_on_c, 0, 85, 0
2, 268080, Note_on_c, 0, 81, 65
2, 268160, Note_on_c, 0, 81, 0
2, 268160, Note_on_c, 0, 82, 64
2, 268240, Note_on_c, 0, 82, 0
2, 268240, Note_on_c, 0, 79, 63
2, 268320, Note_on_c, 0, 79, 0
2, 268320, Note_on_c, 0, 78, 62
2, 268440, Note_on_c, 0, 78, 0
2, 269040, Note_on_c, 0, 69, 52
2, 269520, Note_on_c, 0, 69, 0
2, 269520, Note_on_c, 0, 66, 56
2, 269760, Note_on_c, 0, 66, 0
2, 269760, Note_on_c, 0, 69, 57
2, 270240, Note_on_c, 0, 69, 0
2, 270240, Note_on_c, 0, 67, 59
2, 270480, Note_on_c, 0, 67, 0
2, 270480, Note_on_c, 0, 73, 60
2, 270960, Note_on_c, 0, 73, 0
2, 270960, Note_on_c, 0, 71, 62
2, 271200, Note_on_c, 0, 71, 0
2, 271200, Note_on_c, 0, 81, 63
2, 271680, Note_on_c, 0, 81, 0
2, 271680, Note_on_c, 0, 79, 59
2, 271920, Note_on_c, 0, 79, 0
2, 271920, Note_on_c, 0, 78, 58
2, 272160, Note_on_c, 0, 78, 0
2, 272160, Note_on_c, 0, 76, 56
2, 272400, Note_on_c, 0, 76, 0
2, 272400, Note_on_c, 0, 74, 54
2, 272640, Note_on_c, 0, 74, 0
2, 272640, Note_on_c, 0, 73, 50
2, 272880, Note_on_c, 0, 73, 0
2, 272880, Note_on_c, 0, 74, 51
2, 273120, Note_on_c, 0, 74, 0
2, 273120, Note_on_c, 0, 76, 52
2, 273360, Note_on_c, 0, 76, 0
2, 273360, Note_on_c, 0, 77, 53
2, 273600, Note_on_c, 0, 77, 0
2, 273600, Note_on_c, 0, 76, 54
2, 273840, Note_on_c, 0, 76, 0
2, 273840, Note_on_c, 0, 74, 55
2, 274080, Note_on_c, 0, 74, 0
2, 274080, Note_on_c, 0, 73, 57
2, 274320, Note_on_c, 0, 73, 0
2, 274320, Note_on_c, 0, 74, 56
2, 274560, Note_on_c, 0, 74, 0
2, 274560, Note_on_c, 0, 76, 56
2, 274800, Note_on_c, 0, 76, 0
2, 274800, Note_on_c, 0, 69, 55
2, 275280, Note_on_c, 0, 69, 0
2, 275280, Note_on_c, 0, 66, 53
2, 275520, Note_on_c, 0, 66, 0
2, 275520, Note_on_c, 0, 69, 52
2, 276000, Note_on_c, 0, 69, 0
2, 276000, Note_on_c, 0, 78, 53
2, 276240, Note_on_c, 0, 78, 0
2, 276240, Note_on_c, 0, 81, 54
2, 276720, Note_on_c, 0, 81, 0
2, 276720, Note_on_c, 0, 83, 55
2, 276960, Note_on_c, 0, 83, 0
2, 276960, Note_on_c, 0, 85, 56
2, 277440, Note_on_c, 0, 85, 0
2, 277440, Note_on_c, 0, 83, 57
2, 277680, Note_on_c, 0, 83, 0
2, 277680, Note_on_c, 0, 93, 58
2, 278160, Note_on_c, 0, 93, 0
2, 278160, Note_on_c, 0, 92, 59
2, 278400, Note_on_c, 0, 92, 0
2, 278400, Note_on_c, 0, 93, 60
2, 278880, Note_on_c, 0, 93, 0
2, 278880, Note_on_c, 0, 91, 62
2, 279120, Note_on_c, 0, 91, 0
2, 279120, Note_on_c, 0, 90, 62
2, 279360, Note_on_c, 0, 90, 0
2, 279360, Note_on_c, 0, 89, 63
2, 279600, Note_on_c, 0, 89, 0
2, 279600, Note_on_c, 0, 88, 64
2, 279840, Note_on_c, 0, 88, 0
2, 279840, Note_on_c, 0, 87, 64
2, 280320, Note_on_c, 0, 87, 0
2, 280320, Note_on_c, 0, 86, 66
2, 280560, Note_on_c, 0, 86, 0
2, 280560, Note_on_c, 0, 86, 64
2, 281040, Note_on_c, 0, 86, 0
2, 281040, Note_on_c, 0, 91, 60
2, 281280, Note_on_c, 0, 91, 0
2, 281280, Note_on_c, 0, 86, 60
2, 281760, Note_on_c, 0, 86, 0
2, 281760, Note_on_c, 0, 91, 55
2, 282000, Note_on_c, 0, 91, 0
2, 282000, Note_on_c, 0, 86, 53
2, 282480, Note_on_c, 0, 86, 0
2, 282480, Note_on_c, 0, 91, 50
2, 282720, Note_on_c, 0, 91, 0
2, 282720, Note_on_c, 0, 86, 55
2, 283200, Note_on_c, 0, 86, 0
2, 283200, Note_on_c, 0, 86, 51
2, 283680, Note_on_c, 0, 86, 0
2, 283680, Note_on_c, 0, 86, 47
2, 284160, Note_on_c, 0, 86, 0
2, 284160, Note_on_c, 0, 86, 42
2, 284640, Note_on_c, 0, 86, 0
2, 284640, Note_on_c, 0, 74, 38
2, 284880, Note_on_c, 0, 74, 0
2, 284880, Note_on_c, 0, 76, 38
2, 285360, Note_on_c, 0, 76, 0
2, 285360, Note_on_c, 0, 74, 39
2, 285600, Note_on_c, 0, 74, 0
2, 285600, Note_on_c, 0, 76, 40
2, 286080, Note_on_c, 0, 76, 0
2, 286080, Note_on_c, 0, 74, 43
2, 286320, Note_on_c, 0, 74, 0
2, 286320, Note_on_c, 0, 76, 44
2, 286800, Note_on_c, 0, 76, 0
2, 286800, Note_on_c, 0, 76, 47
2, 287280, Note_on_c, 0, 76, 0
2, 287280, Note_on_c, 0, 73, 48
2, 287520, Note_on_c, 0, 73, 0
2, 287520, Note_on_c, 0, 69, 46
2, 287760, Note_on_c, 0, 69, 0
2, 287760, Note_on_c, 0, 76, 44
2, 288000, Note_on_c, 0, 76, 0
2, 288000, Note_on_c, 0, 74, 42
2, 288240, Note_on_c, 0, 74, 0
2, 288240, Note_on_c, 0, 84, 40
2, 288480, Note_on_c, 0, 84, 0
2, 288480, Note_on_c, 0, 83, 42
2, 288720, Note_on_c, 0, 83, 0
2, 288720, Note_on_c, 0, 81, 44
2, 288960, Note_on_c, 0, 81, 0
2, 288960, Note_on_c, 0, 79, 45
2, 289200, Note_on_c, 0, 79, 0
2, 289200, Note_on_c, 0, 78, 47
2, 289440, Note_on_c, 0, 78, 0
2, 289440, Note_on_c, 0, 79, 45
2, 289680, Note_on_c, 0, 79, 0
2, 289680, Note_on_c, 0, 73, 43
2, 289920, Note_on_c, 0, 73, 0
2, 289920, Note_on_c, 0, 74, 42
2, 290400, Note_on_c, 0, 74, 0
2, 290400, Note_on_c, 0, 74, 43
2, 290640, Note_on_c, 0, 74, 0
2, 290640, Note_on_c, 0, 76, 43
2, 291120, Note_on_c, 0, 76, 0
2, 291120, Note_on_c, 0, 74, 44
2, 291360, Note_on_c, 0, 74, 0
2, 291360, Note_on_c, 0, 76, 45
2, 291840, Note_on_c, 0, 76, 0
2, 291840, Note_on_c, 0, 74, 45
2, 292080, Note_on_c, 0, 74, 0
2, 292080, Note_on_c, 0, 76, 46
2, 292560, Note_on_c, 0, 76, 0
2, 292560, Note_on_c, 0, 76, 47
2, 293040, Note_on_c, 0, 76, 0
2, 293040, Note_on_c, 0, 78, 50
2, 293280, Note_on_c, 0, 78, 0
2, 293280, Note_on_c, 0, 79, 54
2, 293520, Note_on_c, 0, 79, 0
2, 293520, Note_on_c, 0, 81, 59
2, 294000, Note_on_c, 0, 81, 0
2, 294000, Note_on_c, 0, 82, 68
2, 294240, Note_on_c, 0, 82, 0
2, 294240, Note_on_c, 0, 83, 77
2, 294360, Note_on_c, 0, 83, 0
2, 294360, Note_on_c, 0, 81, 73
2, 294600, Note_on_c, 0, 81, 0
2, 294600, Note_on_c, 0, 79, 73
2, 294840, Note_on_c, 0, 79, 0
2, 294840, Note_on_c, 0, 78, 72
2, 294960, Note_on_c, 0, 78, 0
2, 294960, Note_on_c, 0, 78, 71
2, 295200, Note_on_c, 0, 78, 0
2, 295200, Note_on_c, 0, 83, 71
2, 295440, Note_on_c, 0, 83, 0
2, 295440, Note_on_c, 0, 76, 70
2, 295680, Note_on_c, 0, 76, 0
2, 295680, Note_on_c, 0, 81, 69
2, 295920, Note_on_c, 0, 81, 0
2, 295920, Note_on_c, 0, 74, 68
2, 296160, Note_on_c, 0, 74, 0
2, 296160, Note_on_c, 0, 79, 68
2, 296400, Note_on_c, 0, 79, 0
2, 296400, Note_on_c, 0, 73, 67
2, 296640, Note_on_c, 0, 73, 0
2, 296640, Note_on_c, 0, 78, 66
2, 296880, Note_on_c, 0, 78, 0
2, 296880, Note_on_c, 0, 71, 65
2, 297120, Note_on_c, 0, 71, 0
2, 297120, Note_on_c, 0, 76, 64
2, 297600, Note_on_c, 0, 76, 0
2, 297600, Note_on_c, 0, 76, 63
2, 297840, Note_on_c, 0, 76, 0
2, 297840, Note_on_c, 0, 76, 62
2, 298320, Note_on_c, 0, 76, 0
2, 298320, Note_on_c, 0, 78, 61
2, 298560, Note_on_c, 0, 78, 0
2, 298560, Note_on_c, 0, 74, 60
2, 299040, Note_on_c, 0, 74, 0
2, 299040, Note_on_c, 0, 78, 58
2, 299280, Note_on_c, 0, 78, 0
2, 299280, Note_on_c, 0, 81, 57
2, 299760, Note_on_c, 0, 81, 0
2, 299760, Note_on_c, 0, 72, 56
2, 300000, Note_on_c, 0, 72, 0
2, 300000, Note_on_c, 0, 71, 55
2, 300480, Note_on_c, 0, 71, 0
2, 300480, Note_on_c, 0, 76, 54
2, 300720, Note_on_c, 0, 76, 0
2, 300720, Note_on_c, 0, 79, 53
2, 301200, Note_on_c, 0, 79, 0
2, 301200, Note_on_c, 0, 70, 51
2, 301440, Note_on_c, 0, 70, 0
2, 301440, Note_on_c, 0, 69, 50
2, 301920, Note_on_c, 0, 69, 0
2, 301920, Note_on_c, 0, 66, 49
2, 302160, Note_on_c, 0, 66, 0
2, 302160, Note_on_c, 0, 69, 48
2, 302640, Note_on_c, 0, 69, 0
2, 302640, Note_on_c, 0, 60, 47
2, 302880, Note_on_c, 0, 60, 0
2, 302880, Note_on_c, 0, 59, 46
2, 303360, Note_on_c, 0, 59, 0
2, 303360, Note_on_c, 0, 64, 44
2, 303600, Note_on_c, 0, 64, 0
2, 303600, Note_on_c, 0, 67, 43
2, 304080, Note_on_c, 0, 67, 0
2, 304080, Note_on_c, 0, 55, 42
2, 304080, Note_on_c, 0, 58, 42
2, 304800, Note_on_c, 0, 58, 0
2, 304800, Note_on_c, 0, 55, 0
2, 304800, Note_on_c, 0, 54, 40
2, 304800, Note_on_c, 0, 58, 40
2, 305040, Note_on_c, 0, 58, 0
2, 305040, Note_on_c, 0, 54, 0
2, 305040, Note_on_c, 0, 54, 39
2, 305040, Note_on_c, 0, 57, 39
2, 305520, Note_on_c, 0, 57, 0
2, 305520, Note_on_c, 0, 54, 0
2, 305520, Note_on_c, 0, 54, 37
2, 305520, Note_on_c, 0, 57, 37
2, 306000, Note_on_c, 0, 57, 0
2, 306000, Note_on_c, 0, 54, 0
2, 306000, Note_on_c, 0, 54, 36
2, 306000, Note_on_c, 0, 57, 36
2, 306360, Control_c, 0, 64, 127
2, 306480, Note_on_c, 0, 57, 0
2, 306480, Note_on_c, 0, 54, 0
2, 306540, Note_on_c, 0, 54, 34
2, 306540, Note_on_c, 0, 57, 34
2, 307020, Note_on_c, 0, 57, 0
2, 307020, Note_on_c, 0, 54, 0
2, 307200, Control_c, 0, 64, 0
2, 307200, End_track
3, 0, Start_track
3, 0, Title_t, "Unnamed Track"
3, 0, Control_c, 0, 0, 0
3, 0, Control_c, 0, 7, 115
3, 0, Control_c, 0, 10, 79
3, 0, Control_c, 0, 91, 100
3, 0, Control_c, 0, 93, 28
3, 0, Control_c, 0, 64, 0
3, 0, Control_c, 0, 64, 0
3, 0, Control_c, 0, 64, 0
3, 0, Control_c, 0, 1, 0
3, 0, Pitch_bend_c, 0, 8192
3, 1, Control_c, 0, 32, 0
3, 1, Program_c, 0, 0
3, 240, Control_c, 0, 64, 0
3, 480, Note_on_c, 0, 57, 66
3, 720, Note_on_c, 0, 57, 0
3, 720, Control_c, 0, 64, 0
3, 720, Note_on_c, 0, 66, 67
3, 720, Note_on_c, 0, 57, 67
3, 960, Note_on_c, 0, 57, 0
3, 960, Note_on_c, 0, 66, 0
3, 960, Note_on_c, 0, 62, 67
3, 960, Note_on_c, 0, 66, 67
3, 1200, Note_on_c, 0, 66, 0
3, 1200, Note_on_c, 0, 62, 0
3, 1200, Note_on_c, 0, 61, 68
3, 1200, Note_on_c, 0, 69, 68
3, 1440, Note_on_c, 0, 69, 0
3, 1440, Note_on_c, 0, 61, 0
3, 1440, Note_on_c, 0, 59, 69
3, 1440, Note_on_c, 0, 67, 69
3, 1680, Note_on_c, 0, 67, 0
3, 1680, Note_on_c, 0, 59, 0
3, 1680, Note_on_c, 0, 67, 70
3, 1680, Note_on_c, 0, 74, 70
3, 1920, Note_on_c, 0, 74, 0
3, 1920, Note_on_c, 0, 71, 71
3, 2160, Note_on_c, 0, 71, 0
3, 2160, Note_on_c, 0, 67, 0
3, 2640, Note_on_c, 0, 67, 72
3, 2640, Note_on_c, 0, 71, 72
3, 2880, Note_on_c, 0, 71, 0
3, 2880, Note_on_c, 0, 67, 0
3, 2880, Note_on_c, 0, 67, 74
3, 3360, Note_on_c, 0, 67, 0
3, 3360, Note_on_c, 0, 67, 66
3, 3566, Note_on_c, 0, 67, 0
3, 3600, Note_on_c, 0, 67, 68
3, 3840, Note_on_c, 0, 67, 0
3, 3840, Note_on_c, 0, 67, 69
3, 3840, Note_on_c, 0, 64, 69
3, 4080, Note_on_c, 0, 64, 0
3, 4080, Note_on_c, 0, 67, 0
3, 4080, Note_on_c, 0, 67, 71
3, 4080, Note_on_c, 0, 62, 71
3, 4320, Note_on_c, 0, 62, 0
3, 4320, Note_on_c, 0, 67, 0
3, 4320, Note_on_c, 0, 67, 69
3, 4560, Note_on_c, 0, 67, 0
3, 4560, Note_on_c, 0, 79, 72
3, 4560, Note_on_c, 0, 74, 72
3, 4560, Note_on_c, 0, 71, 72
3, 4800, Note_on_c, 0, 71, 0
3, 4800, Note_on_c, 0, 74, 0
3, 4800, Note_on_c, 0, 79, 0
3, 4800, Note_on_c, 0, 79, 75
3, 4800, Note_on_c, 0, 69, 75
3, 4800, Note_on_c, 0, 73, 75
3, 5040, Note_on_c, 0, 73, 0
3, 5040, Note_on_c, 0, 69, 0
3, 5040, Note_on_c, 0, 79, 0
3, 5040, Note_on_c, 0, 69, 78
3, 5040, Note_on_c, 0, 74, 78
3, 5280, Note_on_c, 0, 74, 0
3, 5280, Note_on_c, 0, 76, 75
3, 5500, Note_on_c, 0, 68, 72
3, 5501, Note_on_c, 0, 69, 0
3, 5520, Note_on_c, 0, 76, 0
3, 5520, Note_on_c, 0, 74, 72
3, 5520, Note_on_c, 0, 78, 72
3, 5620, Note_on_c, 0, 68, 0
3, 5640, Note_on_c, 0, 69, 70
3, 5760, Note_on_c, 0, 69, 0
3, 5760, Note_on_c, 0, 78, 0
3, 5760, Note_on_c, 0, 74, 0
3, 5760, Note_on_c, 0, 64, 69
3, 5760, Note_on_c, 0, 71, 69
3, 6000, Note_on_c, 0, 71, 0
3, 6000, Note_on_c, 0, 69, 66
3, 6105, Note_on_c, 0, 64, 0
3, 6120, Note_on_c, 0, 64, 65
3, 6220, Note_on_c, 0, 68, 67
3, 6225, Note_on_c, 0, 69, 0
3, 6240, Note_on_c, 0, 74, 67
3, 6480, Note_on_c, 0, 74, 0
3, 6480, Note_on_c, 0, 68, 0
3, 6480, Note_on_c, 0, 64, 0
3, 6480, Note_on_c, 0, 57, 75
3, 6480, Note_on_c, 0, 61, 75
3, 6720, Note_on_c, 0, 61, 0
3, 6720, Note_on_c, 0, 57, 0
3, 6720, Note_on_c, 0, 57, 69
3, 6720, Note_on_c, 0, 62, 69
3, 6960, Note_on_c, 0, 62, 0
3, 6960, Note_on_c, 0, 57, 0
3, 6960, Note_on_c, 0, 57, 63
3, 6960, Note_on_c, 0, 64, 63
3, 7162, Note_on_c, 0, 64, 0
3, 7162, Note_on_c, 0, 57, 0
3, 7200, Control_c, 0, 64, 0
3, 7200, Note_on_c, 0, 57, 67
3, 7200, Note_on_c, 0, 66, 67
3, 7440, Note_on_c, 0, 66, 0
3, 7440, Note_on_c, 0, 57, 0
3, 7440, Note_on_c, 0, 66, 67
3, 7440, Note_on_c, 0, 62, 67
3, 7680, Note_on_c, 0, 62, 0
3, 7680, Note_on_c, 0, 66, 0
3, 7680, Note_on_c, 0, 69, 68
3, 7680, Note_on_c, 0, 61, 68
3, 7920, Note_on_c, 0, 61, 0
3, 7920, Note_on_c, 0, 69, 0
3, 7920, Note_on_c, 0, 67, 69
3, 7920, Note_on_c, 0, 59, 69
3, 8160, Note_on_c, 0, 59, 0
3, 8160, Note_on_c, 0, 67, 0
3, 8160, Note_on_c, 0, 74, 70
3, 8160, Note_on_c, 0, 67, 70
3, 8400, Note_on_c, 0, 74, 0
3, 8400, Note_on_c, 0, 71, 71
3, 8640, Note_on_c, 0, 71, 0
3, 8640, Note_on_c, 0, 67, 0
3, 9120, Note_on_c, 0, 71, 72
3, 9120, Note_on_c, 0, 67, 72
3, 9360, Note_on_c, 0, 67, 0
3, 9360, Note_on_c, 0, 71, 0
3, 9360, Note_on_c, 0, 67, 74
3, 9840, Note_on_c, 0, 67, 0
3, 9840, Note_on_c, 0, 67, 66
3, 10046, Note_on_c, 0, 67, 0
3, 10080, Note_on_c, 0, 67, 68
3, 10320, Note_on_c, 0, 67, 0
3, 10320, Note_on_c, 0, 64, 69
3, 10320, Note_on_c, 0, 67, 69
3, 10560, Note_on_c, 0, 67, 0
3, 10560, Note_on_c, 0, 64, 0
3, 10560, Note_on_c, 0, 62, 71
3, 10560, Note_on_c, 0, 67, 71
3, 10800, Note_on_c, 0, 67, 0
3, 10800, Note_on_c, 0, 62, 0
3, 10800, Note_on_c, 0, 67, 69
3, 11040, Note_on_c, 0, 67, 0
3, 11040, Note_on_c, 0, 71, 72
3, 11040, Note_on_c, 0, 74, 72
3, 11040, Note_on_c, 0, 79, 72
3, 11280, Note_on_c, 0, 79, 0
3, 11280, Note_on_c, 0, 74, 0
3, 11280, Note_on_c, 0, 71, 0
3, 11280, Note_on_c, 0, 73, 75
3, 11280, Note_on_c, 0, 69, 75
3, 11280, Note_on_c, 0, 79, 75
3, 11520, Note_on_c, 0, 79, 0
3, 11520, Note_on_c, 0, 69, 0
3, 11520, Note_on_c, 0, 73, 0
3, 11520, Note_on_c, 0, 74, 78
3, 11520, Note_on_c, 0, 69, 78
3, 11760, Note_on_c, 0, 74, 0
3, 11760, Note_on_c, 0, 76, 75
3, 11980, Note_on_c, 0, 68, 72
3, 11981, Note_on_c, 0, 69, 0
3, 12000, Note_on_c, 0, 76, 0
3, 12000, Note_on_c, 0, 78, 72
3, 12000, Note_on_c, 0, 74, 72
3, 12100, Note_on_c, 0, 68, 0
3, 12120, Note_on_c, 0, 69, 70
3, 12240, Note_on_c, 0, 69, 0
3, 12240, Note_on_c, 0, 74, 0
3, 12240, Note_on_c, 0, 78, 0
3, 12240, Note_on_c, 0, 71, 69
3, 12240, Note_on_c, 0, 64, 69
3, 12480, Note_on_c, 0, 71, 0
3, 12480, Note_on_c, 0, 69, 66
3, 12585, Note_on_c, 0, 64, 0
3, 12600, Note_on_c, 0, 64, 65
3, 12700, Note_on_c, 0, 68, 67
3, 12705, Note_on_c, 0, 69, 0
3, 12720, Note_on_c, 0, 74, 67
3, 12960, Note_on_c, 0, 74, 0
3, 12960, Note_on_c, 0, 68, 0
3, 12960, Note_on_c, 0, 64, 0
3, 12960, Note_on_c, 0, 61, 75
3, 12960, Note_on_c, 0, 57, 75
3, 13200, Note_on_c, 0, 57, 0
3, 13200, Note_on_c, 0, 61, 0
3, 13200, Note_on_c, 0, 62, 69
3, 13200, Note_on_c, 0, 57, 69
3, 13440, Note_on_c, 0, 57, 0
3, 13440, Note_on_c, 0, 62, 0
3, 13440, Note_on_c, 0, 64, 63
3, 13440, Note_on_c, 0, 57, 63
3, 13642, Note_on_c, 0, 57, 0
3, 13642, Note_on_c, 0, 64, 0
3, 13680, Control_c, 0, 64, 0
3, 13680, Note_on_c, 0, 57, 63
3, 13680, Note_on_c, 0, 65, 63
3, 13920, Note_on_c, 0, 65, 0
3, 13920, Note_on_c, 0, 57, 0
3, 13920, Note_on_c, 0, 67, 66
3, 13920, Note_on_c, 0, 69, 66
3, 13920, Note_on_c, 0, 73, 66
3, 14160, Note_on_c, 0, 73, 0
3, 14160, Note_on_c, 0, 69, 0
3, 14160, Note_on_c, 0, 67, 0
3, 14160, Note_on_c, 0, 69, 68
3, 14160, Note_on_c, 0, 74, 68
3, 14160, Note_on_c, 0, 65, 68
3, 14400, Note_on_c, 0, 65, 0
3, 14400, Note_on_c, 0, 74, 0
3, 14400, Note_on_c, 0, 69, 0
3, 14400, Note_on_c, 0, 64, 71
3, 14400, Note_on_c, 0, 60, 71
3, 14640, Note_on_c, 0, 64, 0
3, 14640, Note_on_c, 0, 65, 68
3, 14880, Note_on_c, 0, 65, 0
3, 14880, Note_on_c, 0, 60, 0
3, 14880, Note_on_c, 0, 67, 64
3, 14880, Note_on_c, 0, 60, 64
3, 15120, Note_on_c, 0, 60, 0
3, 15120, Note_on_c, 0, 67, 0
3, 15120, Note_on_c, 0, 65, 67
3, 15120, Note_on_c, 0, 60, 67
3, 15360, Note_on_c, 0, 60, 0
3, 15360, Note_on_c, 0, 65, 0
3, 15360, Note_on_c, 0, 72, 69
3, 15360, Note_on_c, 0, 70, 69
3, 15600, Note_on_c, 0, 70, 0
3, 15600, Note_on_c, 0, 72, 0
3, 15600, Note_on_c, 0, 72, 71
3, 15600, Note_on_c, 0, 69, 71
3, 15840, Note_on_c, 0, 69, 0
3, 15840, Note_on_c, 0, 72, 0
3, 15840, Note_on_c, 0, 73, 75
3, 15840, Note_on_c, 0, 69, 75
3, 15840, Note_on_c, 0, 64, 75
3, 16200, Note_on_c, 0, 64, 0
3, 16200, Note_on_c, 0, 69, 0
3, 16200, Note_on_c, 0, 73, 0
3, 16200, Note_on_c, 0, 73, 71
3, 16200, Note_on_c, 0, 69, 71
3, 16200, Note_on_c, 0, 66, 71
3, 16440, Note_on_c, 0, 66, 0
3, 16440, Note_on_c, 0, 69, 0
3, 16440, Note_on_c, 0, 73, 0
3, 16440, Note_on_c, 0, 73, 76
3, 16440, Note_on_c, 0, 69, 76
3, 16440, Note_on_c, 0, 67, 76
3, 16560, Note_on_c, 0, 67, 0
3, 16560, Note_on_c, 0, 69, 0
3, 16560, Note_on_c, 0, 73, 0
3, 16560, Note_on_c, 0, 72, 77
3, 17040, Note_on_c, 0, 71, 75
3, 17043, Note_on_c, 0, 72, 0
3, 17280, Note_on_c, 0, 71, 0
3, 17280, Note_on_c, 0, 72, 78
3, 17280, Note_on_c, 0, 69, 78
3, 17520, Note_on_c, 0, 67, 81
3, 17523, Note_on_c, 0, 69, 0
3, 17640, Note_on_c, 0, 72, 0
3, 17737, Note_on_c, 0, 67, 0
3, 17740, Note_on_c, 0, 66, 84
3, 17980, Note_on_c, 0, 66, 0
3, 18000, Note_on_c, 0, 62, 86
3, 18000, Note_on_c, 0, 67, 86
3, 18240, Note_on_c, 0, 67, 0
3, 18240, Note_on_c, 0, 62, 0
3, 18240, Note_on_c, 0, 61, 82
3, 18480, Note_on_c, 0, 61, 0
3, 18480, Note_on_c, 0, 59, 78
3, 18720, Note_on_c, 0, 59, 0
3, 18720, Note_on_c, 0, 57, 74
3, 18960, Note_on_c, 0, 57, 0
3, 18960, Note_on_c, 0, 55, 70
3, 19440, Note_on_c, 0, 55, 0
3, 19440, Note_on_c, 0, 54, 61
3, 19886, Note_on_c, 0, 54, 0
3, 20160, Control_c, 0, 64, 0
3, 26640, Control_c, 0, 64, 0
3, 33120, Control_c, 0, 64, 0
3, 39600, Control_c, 0, 64, 0
3, 40080, Note_on_c, 0, 64, 51
3, 40320, Note_on_c, 0, 64, 0
3, 40320, Note_on_c, 0, 66, 52
3, 40800, Note_on_c, 0, 66, 0
3, 40800, Note_on_c, 0, 73, 56
3, 41040, Note_on_c, 0, 73, 0
3, 41040, Note_on_c, 0, 71, 57
3, 41520, Note_on_c, 0, 71, 0
3, 41520, Note_on_c, 0, 67, 54
3, 41760, Note_on_c, 0, 69, 53
3, 42236, Note_on_c, 0, 69, 0
3, 42442, Note_on_c, 0, 67, 0
3, 42960, Note_on_c, 0, 69, 52
3, 43200, Note_on_c, 0, 69, 0
3, 43200, Note_on_c, 0, 69, 53
3, 43680, Note_on_c, 0, 69, 0
3, 43680, Note_on_c, 0, 76, 56
3, 43920, Note_on_c, 0, 76, 0
3, 43920, Note_on_c, 0, 78, 57
3, 44400, Note_on_c, 0, 83, 59
3, 44640, Note_on_c, 0, 83, 0
3, 44640, Note_on_c, 0, 78, 0
3, 44640, Note_on_c, 0, 76, 60
3, 45120, Note_on_c, 0, 76, 0
3, 45120, Note_on_c, 0, 76, 62
3, 45360, Note_on_c, 0, 81, 63
3, 45840, Note_on_c, 0, 76, 0
3, 45840, Note_on_c, 0, 76, 53
3, 46042, Note_on_c, 0, 76, 0
3, 46042, Note_on_c, 0, 81, 0
3, 46080, Control_c, 0, 64, 0
3, 46560, Note_on_c, 0, 64, 51
3, 46800, Note_on_c, 0, 64, 0
3, 46800, Note_on_c, 0, 66, 52
3, 47280, Note_on_c, 0, 66, 0
3, 47280, Note_on_c, 0, 73, 56
3, 47520, Note_on_c, 0, 73, 0
3, 47520, Note_on_c, 0, 71, 57
3, 48000, Note_on_c, 0, 71, 0
3, 48000, Note_on_c, 0, 67, 54
3, 48240, Note_on_c, 0, 69, 53
3, 48716, Note_on_c, 0, 69, 0
3, 48922, Note_on_c, 0, 67, 0
3, 49440, Note_on_c, 0, 69, 52
3, 49680, Note_on_c, 0, 69, 0
3, 49680, Note_on_c, 0, 69, 53
3, 50160, Note_on_c, 0, 69, 0
3, 50160, Note_on_c, 0, 76, 56
3, 50400, Note_on_c, 0, 76, 0
3, 50400, Note_on_c, 0, 78, 57
3, 50880, Note_on_c, 0, 83, 59
3, 51120, Note_on_c, 0, 83, 0
3, 51120, Note_on_c, 0, 78, 0
3, 51120, Note_on_c, 0, 76, 60
3, 51600, Note_on_c, 0, 76, 0
3, 51600, Note_on_c, 0, 76, 62
3, 51840, Note_on_c, 0, 81, 63
3, 52320, Note_on_c, 0, 76, 0
3, 52320, Note_on_c, 0, 76, 53
3, 52522, Note_on_c, 0, 76, 0
3, 52522, Note_on_c, 0, 81, 0
3, 52560, Control_c, 0, 64, 0
3, 53040, Note_on_c, 0, 64, 53
3, 53280, Note_on_c, 0, 64, 0
3, 53280, Note_on_c, 0, 65, 54
3, 53760, Note_on_c, 0, 65, 0
3, 53760, Note_on_c, 0, 72, 56
3, 54000, Note_on_c, 0, 72, 0
3, 54000, Note_on_c, 0, 70, 57
3, 54000, Note_on_c, 0, 74, 57
3, 54480, Note_on_c, 0, 74, 0
3, 54480, Note_on_c, 0, 70, 0
3, 54480, Note_on_c, 0, 71, 58
3, 54480, Note_on_c, 0, 74, 58
3, 54720, Note_on_c, 0, 74, 0
3, 54720, Note_on_c, 0, 71, 0
3, 54720, Note_on_c, 0, 73, 61
3, 54720, Note_on_c, 0, 69, 61
3, 55200, Note_on_c, 0, 73, 0
3, 55200, Note_on_c, 0, 74, 53
3, 55402, Note_on_c, 0, 74, 0
3, 55402, Note_on_c, 0, 69, 0
3, 55680, Note_on_c, 0, 66, 55
3, 55920, Note_on_c, 0, 66, 0
3, 55920, Note_on_c, 0, 67, 57
3, 56160, Note_on_c, 0, 67, 0
3, 56160, Note_on_c, 0, 71, 59
3, 56880, Note_on_c, 0, 65, 54
3, 57600, Note_on_c, 0, 65, 0
3, 57600, Note_on_c, 0, 71, 0
3, 57600, Note_on_c, 0, 55, 49
3, 57600, Note_on_c, 0, 64, 49
3, 57600, Note_on_c, 0, 61, 49
3, 58320, Note_on_c, 0, 61, 0
3, 58320, Note_on_c, 0, 64, 0
3, 58320, Note_on_c, 0, 55, 0
3, 58320, Note_on_c, 0, 54, 45
3, 58762, Note_on_c, 0, 54, 0
3, 58800, Control_c, 0, 64, 0
3, 58800, Note_on_c, 0, 64, 50
3, 58800, Note_on_c, 0, 61, 50
3, 58800, Note_on_c, 0, 55, 50
3, 59040, Control_c, 0, 64, 0
3, 59280, Note_on_c, 0, 55, 0
3, 59280, Note_on_c, 0, 61, 0
3, 59280, Note_on_c, 0, 64, 0
3, 59280, Note_on_c, 0, 62, 51
3, 59280, Note_on_c, 0, 54, 51
3, 59436, Note_on_c, 0, 54, 0
3, 59436, Note_on_c, 0, 62, 0
3, 59520, Note_on_c, 0, 66, 54
3, 59520, Note_on_c, 0, 69, 54
3, 59520, Note_on_c, 0, 60, 54
3, 60000, Note_on_c, 0, 60, 0
3, 60000, Note_on_c, 0, 69, 0
3, 60000, Note_on_c, 0, 66, 0
3, 60000, Note_on_c, 0, 67, 55
3, 60000, Note_on_c, 0, 59, 55
3, 60192, Note_on_c, 0, 59, 0
3, 60192, Note_on_c, 0, 67, 0
3, 60240, Note_on_c, 0, 71, 59
3, 60240, Note_on_c, 0, 74, 59
3, 60240, Note_on_c, 0, 64, 59
3, 60720, Note_on_c, 0, 64, 0
3, 60720, Note_on_c, 0, 74, 0
3, 60720, Note_on_c, 0, 71, 0
3, 60720, Note_on_c, 0, 74, 54
3, 60720, Note_on_c, 0, 71, 54
3, 60720, Note_on_c, 0, 67, 54
3, 60876, Note_on_c, 0, 67, 0
3, 60876, Note_on_c, 0, 71, 0
3, 60876, Note_on_c, 0, 74, 0
3, 60960, Note_on_c, 0, 66, 55
3, 60960, Note_on_c, 0, 67, 55
3, 61200, Note_on_c, 0, 66, 0
3, 61200, Note_on_c, 0, 64, 53
3, 61440, Note_on_c, 0, 64, 0
3, 61440, Note_on_c, 0, 67, 0
3, 61440, Note_on_c, 0, 67, 50
3, 61440, Note_on_c, 0, 64, 50
3, 61596, Note_on_c, 0, 64, 0
3, 61596, Note_on_c, 0, 67, 0
3, 61680, Note_on_c, 0, 64, 52
3, 61680, Note_on_c, 0, 61, 52
3, 61680, Note_on_c, 0, 55, 52
3, 62302, Note_on_c, 0, 55, 0
3, 62306, Note_on_c, 0, 61, 0
3, 62306, Note_on_c, 0, 64, 0
3, 62400, Note_on_c, 0, 69, 54
3, 62400, Note_on_c, 0, 76, 54
3, 62400, Note_on_c, 0, 73, 54
3, 62880, Note_on_c, 0, 69, 0
3, 62880, Note_on_c, 0, 67, 60
3, 63030, Note_on_c, 0, 73, 0
3, 63030, Note_on_c, 0, 76, 0
3, 63036, Note_on_c, 0, 67, 0
3, 63120, Note_on_c, 0, 64, 59
3, 63120, Note_on_c, 0, 61, 59
3, 63120, Note_on_c, 0, 55, 59
3, 63600, Note_on_c, 0, 55, 0
3, 63600, Note_on_c, 0, 61, 0
3, 63600, Note_on_c, 0, 64, 0
3, 63600, Note_on_c, 0, 62, 64
3, 63600, Note_on_c, 0, 54, 64
3, 63756, Note_on_c, 0, 54, 0
3, 63756, Note_on_c, 0, 62, 0
3, 63840, Note_on_c, 0, 66, 68
3, 63840, Note_on_c, 0, 74, 68
3, 64320, Note_on_c, 0, 74, 0
3, 64320, Note_on_c, 0, 66, 0
3, 64320, Note_on_c, 0, 65, 62
3, 64320, Note_on_c, 0, 71, 62
3, 64476, Note_on_c, 0, 71, 0
3, 64476, Note_on_c, 0, 65, 0
3, 64560, Note_on_c, 0, 56, 62
3, 64560, Note_on_c, 0, 59, 62
3, 64560, Note_on_c, 0, 52, 62
3, 65040, Note_on_c, 0, 59, 0
3, 65040, Note_on_c, 0, 56, 0
3, 65040, Note_on_c, 0, 57, 54
3, 65043, Note_on_c, 0, 52, 0
3, 65196, Note_on_c, 0, 57, 0
3, 65280, Control_c, 0, 64, 0
3, 65280, Note_on_c, 0, 55, 50
3, 65280, Note_on_c, 0, 61, 50
3, 65280, Note_on_c, 0, 64, 50
3, 65520, Control_c, 0, 64, 0
3, 65760, Note_on_c, 0, 64, 0
3, 65760, Note_on_c, 0, 61, 0
3, 65760, Note_on_c, 0, 55, 0
3, 65760, Note_on_c, 0, 54, 51
3, 65760, Note_on_c, 0, 62, 51
3, 65916, Note_on_c, 0, 62, 0
3, 65916, Note_on_c, 0, 54, 0
3, 66000, Note_on_c, 0, 60, 54
3, 66000, Note_on_c, 0, 69, 54
3, 66000, Note_on_c, 0, 66, 54
3, 66480, Note_on_c, 0, 66, 0
3, 66480, Note_on_c, 0, 69, 0
3, 66480, Note_on_c, 0, 60, 0
3, 66480, Note_on_c, 0, 59, 55
3, 66480, Note_on_c, 0, 67, 55
3, 66672, Note_on_c, 0, 67, 0
3, 66672, Note_on_c, 0, 59, 0
3, 66720, Note_on_c, 0, 64, 59
3, 66720, Note_on_c, 0, 74, 59
3, 66720, Note_on_c, 0, 71, 59
3, 67200, Note_on_c, 0, 71, 0
3, 67200, Note_on_c, 0, 74, 0
3, 67200, Note_on_c, 0, 64, 0
3, 67200, Note_on_c, 0, 67, 54
3, 67200, Note_on_c, 0, 71, 54
3, 67200, Note_on_c, 0, 74, 54
3, 67356, Note_on_c, 0, 74, 0
3, 67356, Note_on_c, 0, 71, 0
3, 67356, Note_on_c, 0, 67, 0
3, 67440, Note_on_c, 0, 67, 55
3, 67440, Note_on_c, 0, 66, 55
3, 67680, Note_on_c, 0, 66, 0
3, 67680, Note_on_c, 0, 64, 53
3, 67920, Note_on_c, 0, 64, 0
3, 67920, Note_on_c, 0, 67, 0
3, 67920, Note_on_c, 0, 64, 50
3, 67920, Note_on_c, 0, 67, 50
3, 68076, Note_on_c, 0, 67, 0
3, 68076, Note_on_c, 0, 64, 0
3, 68160, Note_on_c, 0, 55, 52
3, 68160, Note_on_c, 0, 61, 52
3, 68160, Note_on_c, 0, 64, 52
3, 68782, Note_on_c, 0, 55, 0
3, 68786, Note_on_c, 0, 64, 0
3, 68786, Note_on_c, 0, 61, 0
3, 68880, Note_on_c, 0, 73, 54
3, 68880, Note_on_c, 0, 76, 54
3, 68880, Note_on_c, 0, 69, 54
3, 69360, Note_on_c, 0, 69, 0
3, 69360, Note_on_c, 0, 67, 60
3, 69510, Note_on_c, 0, 76, 0
3, 69510, Note_on_c, 0, 73, 0
3, 69516, Note_on_c, 0, 67, 0
3, 69600, Note_on_c, 0, 55, 59
3, 69600, Note_on_c, 0, 61, 59
3, 69600, Note_on_c, 0, 64, 59
3, 70080, Note_on_c, 0, 64, 0
3, 70080, Note_on_c, 0, 61, 0
3, 70080, Note_on_c, 0, 55, 0
3, 70080, Note_on_c, 0, 54, 64
3, 70080, Note_on_c, 0, 62, 64
3, 70236, Note_on_c, 0, 62, 0
3, 70236, Note_on_c, 0, 54, 0
3, 70320, Note_on_c, 0, 74, 68
3, 70320, Note_on_c, 0, 66, 68
3, 70800, Note_on_c, 0, 66, 0
3, 70800, Note_on_c, 0, 74, 0
3, 70800, Note_on_c, 0, 71, 62
3, 70800, Note_on_c, 0, 65, 62
3, 70956, Note_on_c, 0, 65, 0
3, 70956, Note_on_c, 0, 71, 0
3, 71040, Note_on_c, 0, 52, 62
3, 71040, Note_on_c, 0, 59, 62
3, 71040, Note_on_c, 0, 56, 62
3, 71520, Note_on_c, 0, 56, 0
3, 71520, Note_on_c, 0, 59, 0
3, 71520, Note_on_c, 0, 57, 54
3, 71523, Note_on_c, 0, 52, 0
3, 71676, Note_on_c, 0, 57, 0
3, 71760, Control_c, 0, 64, 0
3, 71760, Note_on_c, 0, 64, 56
3, 71760, Note_on_c, 0, 61, 56
3, 71760, Note_on_c, 0, 55, 56
3, 72390, Note_on_c, 0, 55, 0
3, 72390, Note_on_c, 0, 61, 0
3, 72393, Note_on_c, 0, 64, 0
3, 72480, Note_on_c, 0, 73, 63
3, 72480, Note_on_c, 0, 67, 63
3, 72480, Note_on_c, 0, 76, 63
3, 72960, Note_on_c, 0, 76, 0
3, 72960, Note_on_c, 0, 67, 0
3, 72960, Note_on_c, 0, 73, 0
3, 72960, Note_on_c, 0, 74, 57
3, 72960, Note_on_c, 0, 65, 57
3, 73116, Note_on_c, 0, 65, 0
3, 73116, Note_on_c, 0, 74, 0
3, 73200, Note_on_c, 0, 62, 59
3, 73200, Note_on_c, 0, 53, 59
3, 73680, Note_on_c, 0, 53, 0
3, 73680, Note_on_c, 0, 62, 0
3, 73680, Note_on_c, 0, 55, 54
3, 73680, Note_on_c, 0, 58, 54
3, 73836, Note_on_c, 0, 58, 0
3, 73836, Note_on_c, 0, 55, 0
3, 73920, Note_on_c, 0, 59, 54
3, 73920, Note_on_c, 0, 52, 54
3, 74555, Note_on_c, 0, 59, 0
3, 74565, Note_on_c, 0, 52, 0
3, 74640, Note_on_c, 0, 64, 54
3, 74640, Note_on_c, 0, 61, 54
3, 74640, Note_on_c, 0, 55, 54
3, 74880, Note_on_c, 0, 55, 0
3, 74880, Note_on_c, 0, 61, 0
3, 74880, Note_on_c, 0, 60, 56
3, 74880, Note_on_c, 0, 54, 54
3, 75120, Note_on_c, 0, 64, 0
3, 75275, Note_on_c, 0, 54, 0
3, 75275, Note_on_c, 0, 60, 0
3, 75360, Note_on_c, 0, 67, 62
3, 75360, Note_on_c, 0, 72, 62
3, 75600, Note_on_c, 0, 67, 0
3, 75600, Note_on_c, 0, 66, 64
3, 75995, Note_on_c, 0, 72, 0
3, 76001, Note_on_c, 0, 66, 0
3, 76080, Note_on_c, 0, 60, 70
3, 76080, Note_on_c, 0, 57, 70
3, 76320, Note_on_c, 0, 57, 0
3, 76320, Note_on_c, 0, 55, 72
3, 76560, Note_on_c, 0, 60, 0
3, 76717, Note_on_c, 0, 55, 0
3, 76800, Note_on_c, 0, 70, 78
3, 76800, Note_on_c, 0, 67, 78
3, 77040, Note_on_c, 0, 70, 0
3, 77040, Note_on_c, 0, 69, 80
3, 77516, Note_on_c, 0, 67, 0
3, 77520, Note_on_c, 0, 69, 0
3, 77520, Note_on_c, 0, 67, 62
3, 77760, Note_on_c, 0, 67, 0
3, 77760, Note_on_c, 0, 66, 53
3, 78217, Note_on_c, 0, 66, 0
3, 78240, Control_c, 0, 64, 0
3, 78480, Control_c, 0, 64, 0
3, 78480, Note_on_c, 0, 74, 58
3, 78480, Note_on_c, 0, 69, 58
3, 78600, Note_on_c, 0, 69, 0
3, 78600, Note_on_c, 0, 74, 0
3, 78600, Note_on_c, 0, 76, 60
3, 78600, Note_on_c, 0, 69, 60
3, 78696, Note_on_c, 0, 69, 0
3, 78696, Note_on_c, 0, 76, 0
3, 78720, Note_on_c, 0, 76, 61
3, 78720, Note_on_c, 0, 69, 61
3, 78840, Note_on_c, 0, 69, 0
3, 78840, Note_on_c, 0, 76, 0
3, 78840, Note_on_c, 0, 66, 62
3, 78936, Note_on_c, 0, 66, 0
3, 78960, Note_on_c, 0, 66, 63
3, 79080, Note_on_c, 0, 66, 0
3, 79080, Note_on_c, 0, 73, 64
3, 79080, Note_on_c, 0, 66, 64
3, 79176, Note_on_c, 0, 66, 0
3, 79176, Note_on_c, 0, 73, 0
3, 79200, Note_on_c, 0, 73, 65
3, 79200, Note_on_c, 0, 66, 65
3, 79320, Note_on_c, 0, 66, 0
3, 79320, Note_on_c, 0, 73, 0
3, 79320, Note_on_c, 0, 62, 61
3, 79416, Note_on_c, 0, 62, 0
3, 79440, Note_on_c, 0, 62, 61
3, 79560, Note_on_c, 0, 62, 0
3, 79560, Note_on_c, 0, 69, 60
3, 79560, Note_on_c, 0, 62, 60
3, 79656, Note_on_c, 0, 62, 0
3, 79656, Note_on_c, 0, 69, 0
3, 79680, Note_on_c, 0, 69, 59
3, 79680, Note_on_c, 0, 62, 59
3, 79800, Note_on_c, 0, 62, 0
3, 79800, Note_on_c, 0, 69, 0
3, 79800, Note_on_c, 0, 62, 59
3, 79896, Note_on_c, 0, 62, 0
3, 79920, Note_on_c, 0, 62, 58
3, 79920, Note_on_c, 0, 59, 58
3, 80124, Note_on_c, 0, 59, 0
3, 80124, Note_on_c, 0, 62, 0
3, 80160, Note_on_c, 0, 62, 57
3, 80160, Note_on_c, 0, 59, 57
3, 80364, Note_on_c, 0, 59, 0
3, 80364, Note_on_c, 0, 62, 0
3, 80400, Note_on_c, 0, 62, 56
3, 80400, Note_on_c, 0, 59, 56
3, 80604, Note_on_c, 0, 59, 0
3, 80604, Note_on_c, 0, 62, 0
3, 80640, Note_on_c, 0, 62, 55
3, 80640, Note_on_c, 0, 59, 55
3, 80844, Note_on_c, 0, 59, 0
3, 80844, Note_on_c, 0, 62, 0
3, 80880, Note_on_c, 0, 64, 60
3, 80880, Note_on_c, 0, 62, 60
3, 81084, Note_on_c, 0, 62, 0
3, 81084, Note_on_c, 0, 64, 0
3, 81120, Note_on_c, 0, 64, 57
3, 81120, Note_on_c, 0, 62, 57
3, 81306, Note_on_c, 0, 64, 0
3, 81324, Note_on_c, 0, 62, 0
3, 81360, Note_on_c, 0, 71, 56
3, 81360, Note_on_c, 0, 76, 56
3, 81480, Note_on_c, 0, 76, 0
3, 81480, Note_on_c, 0, 71, 0
3, 81480, Note_on_c, 0, 78, 57
3, 81480, Note_on_c, 0, 71, 57
3, 81576, Note_on_c, 0, 71, 0
3, 81576, Note_on_c, 0, 78, 0
3, 81600, Note_on_c, 0, 78, 58
3, 81600, Note_on_c, 0, 71, 58
3, 81720, Note_on_c, 0, 71, 0
3, 81720, Note_on_c, 0, 78, 0
3, 81720, Note_on_c, 0, 67, 59
3, 81816, Note_on_c, 0, 67, 0
3, 81840, Note_on_c, 0, 67, 60
3, 81960, Note_on_c, 0, 67, 0
3, 81960, Note_on_c, 0, 74, 61
3, 81960, Note_on_c, 0, 67, 61
3, 82056, Note_on_c, 0, 67, 0
3, 82056, Note_on_c, 0, 74, 0
3, 82080, Note_on_c, 0, 74, 63
3, 82080, Note_on_c, 0, 67, 63
3, 82200, Note_on_c, 0, 67, 0
3, 82200, Note_on_c, 0, 74, 0
3, 82200, Note_on_c, 0, 64, 61
3, 82296, Note_on_c, 0, 64, 0
3, 82320, Note_on_c, 0, 64, 60
3, 82440, Note_on_c, 0, 64, 0
3, 82440, Note_on_c, 0, 71, 59
3, 82440, Note_on_c, 0, 64, 59
3, 82536, Note_on_c, 0, 64, 0
3, 82536, Note_on_c, 0, 71, 0
3, 82560, Note_on_c, 0, 71, 57
3, 82560, Note_on_c, 0, 64, 57
3, 82680, Note_on_c, 0, 64, 0
3, 82680, Note_on_c, 0, 71, 0
3, 82680, Note_on_c, 0, 64, 56
3, 82776, Note_on_c, 0, 64, 0
3, 82800, Note_on_c, 0, 62, 54
3, 82920, Note_on_c, 0, 62, 0
3, 82920, Note_on_c, 0, 74, 54
3, 82920, Note_on_c, 0, 69, 54
3, 83016, Note_on_c, 0, 69, 0
3, 83016, Note_on_c, 0, 74, 0
3, 83040, Note_on_c, 0, 74, 55
3, 83040, Note_on_c, 0, 69, 55
3, 83160, Note_on_c, 0, 69, 0
3, 83160, Note_on_c, 0, 74, 0
3, 83160, Note_on_c, 0, 64, 57
3, 83256, Note_on_c, 0, 64, 0
3, 83280, Note_on_c, 0, 64, 58
3, 83400, Note_on_c, 0, 64, 0
3, 83400, Note_on_c, 0, 76, 59
3, 83400, Note_on_c, 0, 69, 59
3, 83496, Note_on_c, 0, 69, 0
3, 83496, Note_on_c, 0, 76, 0
3, 83520, Note_on_c, 0, 76, 60
3, 83520, Note_on_c, 0, 69, 60
3, 83640, Note_on_c, 0, 69, 0
3, 83640, Note_on_c, 0, 76, 0
3, 83640, Note_on_c, 0, 63, 61
3, 83736, Note_on_c, 0, 63, 0
3, 83760, Note_on_c, 0, 63, 62
3, 83880, Note_on_c, 0, 63, 0
3, 83880, Note_on_c, 0, 68, 63
3, 83880, Note_on_c, 0, 62, 63
3, 83976, Note_on_c, 0, 62, 0
3, 83976, Note_on_c, 0, 68, 0
3, 84000, Note_on_c, 0, 68, 65
3, 84000, Note_on_c, 0, 62, 65
3, 84120, Note_on_c, 0, 62, 0
3, 84120, Note_on_c, 0, 68, 0
3, 84120, Note_on_c, 0, 61, 66
3, 84216, Note_on_c, 0, 61, 0
3, 84240, Note_on_c, 0, 61, 67
3, 84360, Note_on_c, 0, 61, 0
3, 84360, Note_on_c, 0, 61, 65
3, 84360, Note_on_c, 0, 67, 65
3, 84456, Note_on_c, 0, 67, 0
3, 84456, Note_on_c, 0, 61, 0
3, 84480, Note_on_c, 0, 61, 64
3, 84480, Note_on_c, 0, 67, 64
3, 84600, Note_on_c, 0, 67, 0
3, 84600, Note_on_c, 0, 61, 0
3, 84600, Note_on_c, 0, 64, 62
3, 84600, Note_on_c, 0, 57, 62
3, 84696, Note_on_c, 0, 57, 0
3, 84696, Note_on_c, 0, 64, 0
3, 84720, Note_on_c, 0, 64, 60
3, 84720, Note_on_c, 0, 57, 60
3, 84840, Note_on_c, 0, 57, 0
3, 84840, Note_on_c, 0, 64, 0
3, 84840, Note_on_c, 0, 57, 58
3, 84840, Note_on_c, 0, 62, 58
3, 84936, Note_on_c, 0, 62, 0
3, 84936, Note_on_c, 0, 57, 0
3, 84960, Control_c, 0, 64, 0
3, 84960, Note_on_c, 0, 69, 58
3, 84960, Note_on_c, 0, 74, 58
3, 85080, Note_on_c, 0, 74, 0
3, 85080, Note_on_c, 0, 69, 0
3, 85080, Note_on_c, 0, 69, 60
3, 85080, Note_on_c, 0, 76, 60
3, 85176, Note_on_c, 0, 76, 0
3, 85176, Note_on_c, 0, 69, 0
3, 85200, Note_on_c, 0, 69, 61
3, 85200, Note_on_c, 0, 76, 61
3, 85320, Note_on_c, 0, 76, 0
3, 85320, Note_on_c, 0, 69, 0
3, 85320, Note_on_c, 0, 66, 62
3, 85416, Note_on_c, 0, 66, 0
3, 85440, Note_on_c, 0, 66, 63
3, 85560, Note_on_c, 0, 66, 0
3, 85560, Note_on_c, 0, 66, 64
3, 85560, Note_on_c, 0, 73, 64
3, 85656, Note_on_c, 0, 73, 0
3, 85656, Note_on_c, 0, 66, 0
3, 85680, Note_on_c, 0, 66, 65
3, 85680, Note_on_c, 0, 73, 65
3, 85800, Note_on_c, 0, 73, 0
3, 85800, Note_on_c, 0, 66, 0
3, 85800, Note_on_c, 0, 62, 61
3, 85896, Note_on_c, 0, 62, 0
3, 85920, Note_on_c, 0, 62, 61
3, 86040, Note_on_c, 0, 62, 0
3, 86040, Note_on_c, 0, 62, 60
3, 86040, Note_on_c, 0, 69, 60
3, 86136, Note_on_c, 0, 69, 0
3, 86136, Note_on_c, 0, 62, 0
3, 86160, Note_on_c, 0, 62, 59
3, 86160, Note_on_c, 0, 69, 59
3, 86280, Note_on_c, 0, 69, 0
3, 86280, Note_on_c, 0, 62, 0
3, 86280, Note_on_c, 0, 62, 59
3, 86376, Note_on_c, 0, 62, 0
3, 86400, Note_on_c, 0, 59, 58
3, 86400, Note_on_c, 0, 62, 58
3, 86604, Note_on_c, 0, 62, 0
3, 86604, Note_on_c, 0, 59, 0
3, 86640, Note_on_c, 0, 59, 57
3, 86640, Note_on_c, 0, 62, 57
3, 86844, Note_on_c, 0, 62, 0
3, 86844, Note_on_c, 0, 59, 0
3, 86880, Note_on_c, 0, 59, 56
3, 86880, Note_on_c, 0, 62, 56
3, 87084, Note_on_c, 0, 62, 0
3, 87084, Note_on_c, 0, 59, 0
3, 87120, Note_on_c, 0, 59, 55
3, 87120, Note_on_c, 0, 62, 55
3, 87324, Note_on_c, 0, 62, 0
3, 87324, Note_on_c, 0, 59, 0
3, 87360, Note_on_c, 0, 62, 60
3, 87360, Note_on_c, 0, 64, 60
3, 87564, Note_on_c, 0, 64, 0
3, 87564, Note_on_c, 0, 62, 0
3, 87600, Note_on_c, 0, 62, 57
3, 87600, Note_on_c, 0, 64, 57
3, 87786, Note_on_c, 0, 64, 0
3, 87804, Note_on_c, 0, 62, 0
3, 87840, Note_on_c, 0, 76, 56
3, 87840, Note_on_c, 0, 71, 56
3, 87960, Note_on_c, 0, 71, 0
3, 87960, Note_on_c, 0, 76, 0
3, 87960, Note_on_c, 0, 71, 57
3, 87960, Note_on_c, 0, 78, 57
3, 88056, Note_on_c, 0, 78, 0
3, 88056, Note_on_c, 0, 71, 0
3, 88080, Note_on_c, 0, 71, 58
3, 88080, Note_on_c, 0, 78, 58
3, 88200, Note_on_c, 0, 78, 0
3, 88200, Note_on_c, 0, 71, 0
3, 88200, Note_on_c, 0, 67, 59
3, 88296, Note_on_c, 0, 67, 0
3, 88320, Note_on_c, 0, 67, 60
3, 88440, Note_on_c, 0, 67, 0
3, 88440, Note_on_c, 0, 67, 61
3, 88440, Note_on_c, 0, 74, 61
3, 88536, Note_on_c, 0, 74, 0
3, 88536, Note_on_c, 0, 67, 0
3, 88560, Note_on_c, 0, 67, 63
3, 88560, Note_on_c, 0, 74, 63
3, 88680, Note_on_c, 0, 74, 0
3, 88680, Note_on_c, 0, 67, 0
3, 88680, Note_on_c, 0, 64, 61
3, 88776, Note_on_c, 0, 64, 0
3, 88800, Note_on_c, 0, 64, 60
3, 88920, Note_on_c, 0, 64, 0
3, 88920, Note_on_c, 0, 64, 59
3, 88920, Note_on_c, 0, 71, 59
3, 89016, Note_on_c, 0, 71, 0
3, 89016, Note_on_c, 0, 64, 0
3, 89040, Note_on_c, 0, 64, 57
3, 89040, Note_on_c, 0, 71, 57
3, 89160, Note_on_c, 0, 71, 0
3, 89160, Note_on_c, 0, 64, 0
3, 89160, Note_on_c, 0, 64, 56
3, 89256, Note_on_c, 0, 64, 0
3, 89280, Note_on_c, 0, 62, 54
3, 89400, Note_on_c, 0, 62, 0
3, 89400, Note_on_c, 0, 69, 54
3, 89400, Note_on_c, 0, 74, 54
3, 89496, Note_on_c, 0, 74, 0
3, 89496, Note_on_c, 0, 69, 0
3, 89520, Note_on_c, 0, 69, 55
3, 89520, Note_on_c, 0, 74, 55
3, 89640, Note_on_c, 0, 74, 0
3, 89640, Note_on_c, 0, 69, 0
3, 89640, Note_on_c, 0, 64, 57
3, 89736, Note_on_c, 0, 64, 0
3, 89760, Note_on_c, 0, 64, 58
3, 89880, Note_on_c, 0, 64, 0
3, 89880, Note_on_c, 0, 69, 59
3, 89880, Note_on_c, 0, 76, 59
3, 89976, Note_on_c, 0, 76, 0
3, 89976, Note_on_c, 0, 69, 0
3, 90000, Note_on_c, 0, 69, 60
3, 90000, Note_on_c, 0, 76, 60
3, 90120, Note_on_c, 0, 76, 0
3, 90120, Note_on_c, 0, 69, 0
3, 90120, Note_on_c, 0, 63, 61
3, 90216, Note_on_c, 0, 63, 0
3, 90240, Note_on_c, 0, 63, 62
3, 90360, Note_on_c, 0, 63, 0
3, 90360, Note_on_c, 0, 62, 63
3, 90360, Note_on_c, 0, 68, 63
3, 90456, Note_on_c, 0, 68, 0
3, 90456, Note_on_c, 0, 62, 0
3, 90480, Note_on_c, 0, 62, 65
3, 90480, Note_on_c, 0, 68, 65
3, 90600, Note_on_c, 0, 68, 0
3, 90600, Note_on_c, 0, 62, 0
3, 90600, Note_on_c, 0, 61, 66
3, 90696, Note_on_c, 0, 61, 0
3, 90720, Note_on_c, 0, 61, 67
3, 90840, Note_on_c, 0, 61, 0
3, 90840, Note_on_c, 0, 67, 65
3, 90840, Note_on_c, 0, 61, 65
3, 90936, Note_on_c, 0, 61, 0
3, 90936, Note_on_c, 0, 67, 0
3, 90960, Note_on_c, 0, 67, 64
3, 90960, Note_on_c, 0, 61, 64
3, 91080, Note_on_c, 0, 61, 0
3, 91080, Note_on_c, 0, 67, 0
3, 91080, Note_on_c, 0, 57, 62
3, 91080, Note_on_c, 0, 64, 62
3, 91176, Note_on_c, 0, 64, 0
3, 91176, Note_on_c, 0, 57, 0
3, 91200, Note_on_c, 0, 57, 60
3, 91200, Note_on_c, 0, 64, 60
3, 91320, Note_on_c, 0, 64, 0
3, 91320, Note_on_c, 0, 57, 0
3, 91320, Note_on_c, 0, 62, 58
3, 91320, Note_on_c, 0, 57, 58
3, 91416, Note_on_c, 0, 57, 0
3, 91416, Note_on_c, 0, 62, 0
3, 91440, Control_c, 0, 64, 0
3, 91440, Note_on_c, 0, 62, 63
3, 91560, Note_on_c, 0, 62, 0
3, 91560, Note_on_c, 0, 64, 62
3, 91656, Note_on_c, 0, 64, 0
3, 91680, Note_on_c, 0, 64, 61
3, 91800, Note_on_c, 0, 64, 0
3, 92040, Note_on_c, 0, 60, 59
3, 92136, Note_on_c, 0, 60, 0
3, 92160, Note_on_c, 0, 60, 58
3, 92280, Note_on_c, 0, 60, 0
3, 92520, Note_on_c, 0, 57, 56
3, 92616, Note_on_c, 0, 57, 0
3, 92640, Note_on_c, 0, 57, 55
3, 92760, Note_on_c, 0, 57, 0
3, 92760, Note_on_c, 0, 55, 55
3, 92856, Note_on_c, 0, 55, 0
3, 92880, Note_on_c, 0, 58, 54
3, 93000, Note_on_c, 0, 58, 0
3, 93000, Note_on_c, 0, 57, 55
3, 93096, Note_on_c, 0, 57, 0
3, 93120, Note_on_c, 0, 57, 56
3, 93240, Note_on_c, 0, 57, 0
3, 93240, Note_on_c, 0, 55, 57
3, 93336, Note_on_c, 0, 55, 0
3, 93360, Note_on_c, 0, 58, 59
3, 93480, Note_on_c, 0, 58, 0
3, 93480, Note_on_c, 0, 57, 60
3, 93576, Note_on_c, 0, 57, 0
3, 93600, Note_on_c, 0, 57, 63
3, 93720, Note_on_c, 0, 57, 0
3, 93720, Note_on_c, 0, 55, 62
3, 93816, Note_on_c, 0, 55, 0
3, 93840, Note_on_c, 0, 55, 61
3, 93960, Note_on_c, 0, 55, 0
3, 93960, Note_on_c, 0, 54, 60
3, 94056, Note_on_c, 0, 54, 0
3, 94080, Note_on_c, 0, 54, 59
3, 94200, Note_on_c, 0, 54, 0
3, 94200, Note_on_c, 0, 52, 58
3, 94296, Note_on_c, 0, 52, 0
3, 94320, Note_on_c, 0, 72, 61
3, 94440, Note_on_c, 0, 72, 0
3, 94440, Note_on_c, 0, 79, 62
3, 94440, Note_on_c, 0, 72, 62
3, 94536, Note_on_c, 0, 72, 0
3, 94536, Note_on_c, 0, 79, 0
3, 94560, Note_on_c, 0, 79, 64
3, 94560, Note_on_c, 0, 72, 64
3, 94680, Note_on_c, 0, 72, 0
3, 94680, Note_on_c, 0, 79, 0
3, 94680, Note_on_c, 0, 69, 66
3, 94776, Note_on_c, 0, 69, 0
3, 94800, Note_on_c, 0, 69, 68
3, 94920, Note_on_c, 0, 69, 0
3, 94920, Note_on_c, 0, 76, 69
3, 94920, Note_on_c, 0, 69, 69
3, 95016, Note_on_c, 0, 69, 0
3, 95016, Note_on_c, 0, 76, 0
3, 95040, Note_on_c, 0, 76, 73
3, 95040, Note_on_c, 0, 69, 73
3, 95160, Note_on_c, 0, 69, 0
3, 95160, Note_on_c, 0, 76, 0
3, 95160, Note_on_c, 0, 66, 72
3, 95256, Note_on_c, 0, 66, 0
3, 95280, Note_on_c, 0, 66, 70
3, 95400, Note_on_c, 0, 66, 0
3, 95400, Note_on_c, 0, 66, 69
3, 95400, Note_on_c, 0, 72, 69
3, 95496, Note_on_c, 0, 72, 0
3, 95496, Note_on_c, 0, 66, 0
3, 95520, Note_on_c, 0, 66, 68
3, 95520, Note_on_c, 0, 72, 68
3, 95640, Note_on_c, 0, 72, 0
3, 95640, Note_on_c, 0, 66, 0
3, 95640, Note_on_c, 0, 67, 67
3, 95736, Note_on_c, 0, 67, 0
3, 95760, Note_on_c, 0, 67, 64
3, 95880, Note_on_c, 0, 67, 0
3, 95880, Note_on_c, 0, 79, 65
3, 95976, Note_on_c, 0, 79, 0
3, 96000, Note_on_c, 0, 79, 66
3, 96120, Note_on_c, 0, 79, 0
3, 96120, Note_on_c, 0, 67, 67
3, 96216, Note_on_c, 0, 67, 0
3, 96240, Note_on_c, 0, 67, 67
3, 96360, Note_on_c, 0, 67, 0
3, 96360, Note_on_c, 0, 83, 68
3, 96360, Note_on_c, 0, 79, 68
3, 96480, Note_on_c, 0, 79, 0
3, 96480, Note_on_c, 0, 83, 0
3, 96480, Note_on_c, 0, 83, 69
3, 96480, Note_on_c, 0, 79, 69
3, 96600, Note_on_c, 0, 79, 0
3, 96600, Note_on_c, 0, 83, 0
3, 96600, Note_on_c, 0, 71, 70
3, 96600, Note_on_c, 0, 67, 70
3, 96696, Note_on_c, 0, 67, 0
3, 96696, Note_on_c, 0, 71, 0
3, 96720, Note_on_c, 0, 71, 71
3, 96720, Note_on_c, 0, 67, 71
3, 96840, Note_on_c, 0, 67, 0
3, 96840, Note_on_c, 0, 71, 0
3, 96840, Note_on_c, 0, 79, 72
3, 96840, Note_on_c, 0, 86, 72
3, 96936, Note_on_c, 0, 86, 0
3, 96936, Note_on_c, 0, 79, 0
3, 96960, Note_on_c, 0, 86, 73
3, 96960, Note_on_c, 0, 79, 73
3, 97080, Note_on_c, 0, 79, 0
3, 97080, Note_on_c, 0, 86, 0
3, 97080, Note_on_c, 0, 78, 74
3, 97080, Note_on_c, 0, 86, 74
3, 97176, Note_on_c, 0, 86, 0
3, 97176, Note_on_c, 0, 78, 0
3, 97200, Note_on_c, 0, 85, 75
3, 97200, Note_on_c, 0, 76, 75
3, 97320, Note_on_c, 0, 76, 0
3, 97320, Note_on_c, 0, 85, 0
3, 97320, Note_on_c, 0, 83, 72
3, 97320, Note_on_c, 0, 74, 72
3, 97440, Note_on_c, 0, 74, 0
3, 97440, Note_on_c, 0, 83, 0
3, 97440, Note_on_c, 0, 81, 70
3, 97440, Note_on_c, 0, 73, 70
3, 97560, Note_on_c, 0, 73, 0
3, 97560, Note_on_c, 0, 81, 0
3, 97560, Note_on_c, 0, 79, 67
3, 97560, Note_on_c, 0, 71, 67
3, 97680, Note_on_c, 0, 71, 0
3, 97680, Note_on_c, 0, 79, 0
3, 97680, Note_on_c, 0, 78, 64
3, 97680, Note_on_c, 0, 69, 64
3, 97897, Note_on_c, 0, 69, 0
3, 97901, Note_on_c, 0, 78, 0
3, 98640, Control_c, 0, 64, 0
3, 101760, Note_on_c, 0, 69, 63
3, 102240, Note_on_c, 0, 69, 0
3, 102480, Note_on_c, 0, 71, 67
3, 102840, Note_on_c, 0, 71, 0
3, 102840, Note_on_c, 0, 81, 69
3, 102840, Note_on_c, 0, 73, 69
3, 102960, Note_on_c, 0, 73, 0
3, 102960, Note_on_c, 0, 81, 0
3, 102960, Note_on_c, 0, 81, 69
3, 102960, Note_on_c, 0, 74, 69
3, 103200, Note_on_c, 0, 74, 0
3, 103320, Note_on_c, 0, 81, 0
3, 103560, Note_on_c, 0, 69, 65
3, 103800, Note_on_c, 0, 69, 0
3, 103920, Note_on_c, 0, 76, 63
3, 104140, Note_on_c, 0, 74, 62
3, 104160, Note_on_c, 0, 76, 0
3, 104160, Note_on_c, 0, 76, 62
3, 104380, Note_on_c, 0, 74, 0
3, 104400, Note_on_c, 0, 76, 0
3, 104400, Note_on_c, 0, 76, 60
3, 104400, Note_on_c, 0, 73, 60
3, 104760, Note_on_c, 0, 73, 0
3, 104760, Note_on_c, 0, 76, 0
3, 104760, Note_on_c, 0, 79, 58
3, 104880, Note_on_c, 0, 79, 0
3, 104880, Note_on_c, 0, 78, 57
3, 105000, Note_on_c, 0, 78, 0
3, 105000, Note_on_c, 0, 74, 56
3, 105120, Note_on_c, 0, 74, 0
3, 105120, Control_c, 0, 64, 0
3, 105120, Note_on_c, 0, 73, 57
3, 105360, Note_on_c, 0, 73, 0
3, 105360, Note_on_c, 0, 69, 56
3, 105720, Note_on_c, 0, 69, 0
3, 105720, Note_on_c, 0, 69, 55
3, 105840, Note_on_c, 0, 69, 0
3, 105840, Note_on_c, 0, 67, 54
3, 105960, Note_on_c, 0, 67, 0
3, 105960, Note_on_c, 0, 73, 54
3, 106080, Note_on_c, 0, 73, 0
3, 106080, Note_on_c, 0, 71, 53
3, 106200, Note_on_c, 0, 71, 0
3, 106200, Note_on_c, 0, 69, 53
3, 106320, Note_on_c, 0, 67, 52
3, 106325, Note_on_c, 0, 69, 0
3, 106400, Note_on_c, 0, 66, 52
3, 106410, Note_on_c, 0, 67, 0
3, 106480, Note_on_c, 0, 69, 52
3, 106495, Note_on_c, 0, 66, 0
3, 106565, Note_on_c, 0, 69, 0
3, 108240, Note_on_c, 0, 69, 63
3, 108720, Note_on_c, 0, 69, 0
3, 108960, Note_on_c, 0, 71, 67
3, 109320, Note_on_c, 0, 71, 0
3, 109320, Note_on_c, 0, 73, 69
3, 109320, Note_on_c, 0, 81, 69
3, 109440, Note_on_c, 0, 81, 0
3, 109440, Note_on_c, 0, 73, 0
3, 109440, Note_on_c, 0, 74, 69
3, 109440, Note_on_c, 0, 81, 69
3, 109680, Note_on_c, 0, 74, 0
3, 109800, Note_on_c, 0, 81, 0
3, 110040, Note_on_c, 0, 69, 65
3, 110280, Note_on_c, 0, 69, 0
3, 110400, Note_on_c, 0, 76, 63
3, 110620, Note_on_c, 0, 74, 62
3, 110640, Note_on_c, 0, 76, 0
3, 110640, Note_on_c, 0, 76, 62
3, 110860, Note_on_c, 0, 74, 0
3, 110880, Note_on_c, 0, 76, 0
3, 110880, Note_on_c, 0, 73, 60
3, 110880, Note_on_c, 0, 76, 60
3, 111240, Note_on_c, 0, 76, 0
3, 111240, Note_on_c, 0, 73, 0
3, 111240, Note_on_c, 0, 79, 58
3, 111360, Note_on_c, 0, 79, 0
3, 111360, Note_on_c, 0, 77, 57
3, 111480, Note_on_c, 0, 77, 0
3, 111480, Note_on_c, 0, 74, 56
3, 111600, Note_on_c, 0, 74, 0
3, 111600, Control_c, 0, 64, 0
3, 111600, Note_on_c, 0, 73, 56
3, 111840, Note_on_c, 0, 73, 0
3, 111840, Note_on_c, 0, 69, 57
3, 112200, Note_on_c, 0, 77, 59
3, 112320, Control_c, 0, 64, 0
3, 112560, Note_on_c, 0, 69, 0
3, 112680, Note_on_c, 0, 77, 0
3, 112920, Note_on_c, 0, 70, 64
3, 113040, Note_on_c, 0, 76, 64
3, 113400, Note_on_c, 0, 76, 0
3, 113400, Note_on_c, 0, 77, 66
3, 113520, Note_on_c, 0, 77, 0
3, 113520, Note_on_c, 0, 76, 67
3, 113640, Note_on_c, 0, 76, 0
3, 113640, Note_on_c, 0, 70, 0
3, 113640, Note_on_c, 0, 70, 68
3, 113760, Note_on_c, 0, 76, 69
3, 114120, Note_on_c, 0, 76, 0
3, 114120, Note_on_c, 0, 77, 71
3, 114240, Note_on_c, 0, 77, 0
3, 114240, Note_on_c, 0, 76, 72
3, 114360, Note_on_c, 0, 76, 0
3, 114360, Note_on_c, 0, 69, 72
3, 114365, Note_on_c, 0, 70, 0
3, 114480, Note_on_c, 0, 76, 73
3, 114840, Note_on_c, 0, 76, 0
3, 114840, Note_on_c, 0, 79, 75
3, 114960, Note_on_c, 0, 79, 0
3, 114960, Note_on_c, 0, 78, 76
3, 115070, Note_on_c, 0, 69, 0
3, 115080, Note_on_c, 0, 69, 77
3, 115200, Note_on_c, 0, 69, 0
3, 115200, Note_on_c, 0, 78, 0
3, 115200, Note_on_c, 0, 79, 78
3, 115200, Note_on_c, 0, 70, 78
3, 115560, Note_on_c, 0, 70, 0
3, 115560, Note_on_c, 0, 79, 0
3, 115560, Note_on_c, 0, 74, 73
3, 115800, Note_on_c, 0, 74, 0
3, 115800, Note_on_c, 0, 74, 71
3, 115920, Note_on_c, 0, 74, 0
3, 115920, Note_on_c, 0, 74, 70
3, 116040, Note_on_c, 0, 74, 0
3, 116040, Note_on_c, 0, 76, 69
3, 116160, Note_on_c, 0, 76, 0
3, 116160, Note_on_c, 0, 77, 69
3, 116280, Note_on_c, 0, 77, 0
3, 116280, Note_on_c, 0, 76, 68
3, 116400, Note_on_c, 0, 76, 0
3, 116400, Note_on_c, 0, 74, 67
3, 116520, Note_on_c, 0, 74, 0
3, 116520, Note_on_c, 0, 67, 66
3, 116520, Note_on_c, 0, 71, 66
3, 116640, Note_on_c, 0, 71, 0
3, 116640, Note_on_c, 0, 67, 0
3, 116640, Note_on_c, 0, 69, 65
3, 116760, Note_on_c, 0, 69, 0
3, 116760, Note_on_c, 0, 68, 65
3, 116880, Note_on_c, 0, 68, 0
3, 116880, Note_on_c, 0, 67, 64
3, 117000, Note_on_c, 0, 67, 0
3, 117000, Note_on_c, 0, 66, 63
3, 117120, Note_on_c, 0, 66, 0
3, 117120, Note_on_c, 0, 69, 62
3, 117240, Note_on_c, 0, 69, 0
3, 117240, Note_on_c, 0, 71, 61
3, 117240, Note_on_c, 0, 74, 61
3, 117360, Note_on_c, 0, 74, 0
3, 117360, Note_on_c, 0, 71, 0
3, 117360, Note_on_c, 0, 74, 60
3, 117360, Note_on_c, 0, 66, 60
3, 117480, Note_on_c, 0, 66, 0
3, 117480, Note_on_c, 0, 74, 0
3, 117480, Note_on_c, 0, 65, 60
3, 117600, Note_on_c, 0, 65, 0
3, 117600, Note_on_c, 0, 74, 59
3, 117600, Note_on_c, 0, 64, 59
3, 117720, Note_on_c, 0, 64, 0
3, 117720, Note_on_c, 0, 74, 0
3, 117720, Note_on_c, 0, 73, 58
3, 117720, Note_on_c, 0, 67, 58
3, 117840, Note_on_c, 0, 67, 0
3, 117840, Note_on_c, 0, 73, 0
3, 117840, Note_on_c, 0, 67, 57
3, 117840, Note_on_c, 0, 64, 57
3, 117960, Note_on_c, 0, 64, 0
3, 117960, Note_on_c, 0, 67, 0
3, 117960, Note_on_c, 0, 67, 56
3, 117960, Note_on_c, 0, 61, 56
3, 118080, Note_on_c, 0, 61, 0
3, 118080, Note_on_c, 0, 67, 0
3, 118080, Control_c, 0, 64, 0
3, 120960, Control_c, 0, 64, 0
3, 121680, Control_c, 0, 64, 0
3, 124560, Control_c, 0, 64, 0
3, 127440, Control_c, 0, 64, 0
3, 128160, Control_c, 0, 64, 0
3, 131040, Control_c, 0, 64, 0
3, 137520, Control_c, 0, 64, 0
3, 137520, Control_c, 0, 64, 0
3, 137560, Control_c, 0, 64, 127
3, 137640, Control_c, 0, 64, 0
3, 138480, Control_c, 0, 64, 0
3, 138520, Control_c, 0, 64, 127
3, 139440, Control_c, 0, 64, 0
3, 139480, Control_c, 0, 64, 127
3, 139920, Control_c, 0, 64, 0
3, 139960, Control_c, 0, 64, 127
3, 140400, Control_c, 0, 64, 0
3, 140440, Control_c, 0, 64, 127
3, 140880, Control_c, 0, 64, 0
3, 140920, Control_c, 0, 64, 127
3, 141360, Control_c, 0, 64, 0
3, 141400, Control_c, 0, 64, 127
3, 141840, Control_c, 0, 64, 0
3, 141880, Control_c, 0, 64, 127
3, 142320, Control_c, 0, 64, 0
3, 142360, Control_c, 0, 64, 127
3, 142800, Control_c, 0, 64, 0
3, 142840, Control_c, 0, 64, 127
3, 143280, Control_c, 0, 64, 0
3, 143320, Control_c, 0, 64, 127
3, 144240, Control_c, 0, 64, 0
3, 144280, Control_c, 0, 64, 127
3, 145200, Control_c, 0, 64, 0
3, 145240, Control_c, 0, 64, 127
3, 146160, Control_c, 0, 64, 0
3, 146160, Control_c, 0, 64, 0
3, 146200, Control_c, 0, 64, 127
3, 146280, Control_c, 0, 64, 0
3, 147120, Control_c, 0, 64, 0
3, 147160, Control_c, 0, 64, 127
3, 148080, Control_c, 0, 64, 0
3, 148120, Control_c, 0, 64, 127
3, 148560, Control_c, 0, 64, 0
3, 148600, Control_c, 0, 64, 127
3, 149040, Control_c, 0, 64, 0
3, 149080, Control_c, 0, 64, 127
3, 149520, Control_c, 0, 64, 0
3, 149560, Control_c, 0, 64, 127
3, 150000, Control_c, 0, 64, 0
3, 150040, Control_c, 0, 64, 127
3, 150480, Control_c, 0, 64, 0
3, 150520, Control_c, 0, 64, 127
3, 150960, Control_c, 0, 64, 0
3, 151000, Control_c, 0, 64, 127
3, 151440, Control_c, 0, 64, 0
3, 151480, Control_c, 0, 64, 127
3, 151920, Control_c, 0, 64, 0
3, 151960, Control_c, 0, 64, 127
3, 152880, Control_c, 0, 64, 0
3, 152920, Control_c, 0, 64, 127
3, 153840, Control_c, 0, 64, 0
3, 153880, Control_c, 0, 64, 127
3, 154800, Control_c, 0, 64, 0
3, 154800, Control_c, 0, 64, 0
3, 154840, Control_c, 0, 64, 127
3, 155760, Control_c, 0, 64, 0
3, 155800, Control_c, 0, 64, 127
3, 156720, Control_c, 0, 64, 0
3, 156760, Control_c, 0, 64, 127
3, 157680, Control_c, 0, 64, 0
3, 157720, Control_c, 0, 64, 127
3, 158640, Control_c, 0, 64, 0
3, 158680, Control_c, 0, 64, 127
3, 159600, Control_c, 0, 64, 0
3, 159640, Control_c, 0, 64, 127
3, 160560, Control_c, 0, 64, 0
3, 160600, Control_c, 0, 64, 127
3, 161520, Control_c, 0, 64, 0
3, 161560, Control_c, 0, 64, 127
3, 162360, Control_c, 0, 64, 0
3, 162400, Control_c, 0, 64, 127
3, 162840, Control_c, 0, 64, 0
3, 162880, Control_c, 0, 64, 127
3, 164220, Control_c, 0, 64, 0
3, 164400, Control_c, 0, 64, 0
3, 164400, Control_c, 0, 64, 0
3, 164880, Note_on_c, 0, 57, 81
3, 164880, Note_on_c, 0, 53, 81
3, 165120, Note_on_c, 0, 53, 0
3, 165120, Note_on_c, 0, 57, 0
3, 165240, Note_on_c, 0, 57, 83
3, 165240, Note_on_c, 0, 53, 83
3, 165318, Note_on_c, 0, 53, 0
3, 165318, Note_on_c, 0, 57, 0
3, 165360, Note_on_c, 0, 55, 84
3, 165600, Note_on_c, 0, 55, 0
3, 165720, Note_on_c, 0, 55, 86
3, 165798, Note_on_c, 0, 55, 0
3, 165840, Note_on_c, 0, 58, 87
3, 165840, Note_on_c, 0, 62, 87
3, 166080, Note_on_c, 0, 62, 0
3, 166080, Note_on_c, 0, 58, 0
3, 166200, Note_on_c, 0, 58, 89
3, 166200, Note_on_c, 0, 55, 89
3, 166278, Note_on_c, 0, 55, 0
3, 166278, Note_on_c, 0, 58, 0
3, 166320, Note_on_c, 0, 58, 90
3, 166320, Note_on_c, 0, 55, 90
3, 166560, Note_on_c, 0, 55, 0
3, 166560, Note_on_c, 0, 58, 0
3, 166680, Note_on_c, 0, 58, 92
3, 166680, Note_on_c, 0, 55, 92
3, 166758, Note_on_c, 0, 55, 0
3, 166758, Note_on_c, 0, 58, 0
3, 166800, Note_on_c, 0, 70, 93
3, 167040, Note_on_c, 0, 70, 0
3, 167160, Note_on_c, 0, 70, 96
3, 167160, Note_on_c, 0, 67, 96
3, 167238, Note_on_c, 0, 67, 0
3, 167238, Note_on_c, 0, 70, 0
3, 167280, Note_on_c, 0, 70, 96
3, 167280, Note_on_c, 0, 67, 96
3, 167520, Note_on_c, 0, 67, 0
3, 167520, Note_on_c, 0, 70, 0
3, 167640, Note_on_c, 0, 70, 99
3, 167640, Note_on_c, 0, 67, 99
3, 167718, Note_on_c, 0, 67, 0
3, 167718, Note_on_c, 0, 70, 0
3, 167760, Note_on_c, 0, 79, 100
3, 167760, Note_on_c, 0, 82, 100
3, 168000, Note_on_c, 0, 82, 0
3, 168000, Note_on_c, 0, 79, 0
3, 168120, Note_on_c, 0, 82, 102
3, 168120, Note_on_c, 0, 79, 102
3, 168198, Note_on_c, 0, 79, 0
3, 168198, Note_on_c, 0, 82, 0
3, 168240, Note_on_c, 0, 79, 103
3, 168240, Note_on_c, 0, 82, 103
3, 168480, Note_on_c, 0, 82, 0
3, 168480, Note_on_c, 0, 79, 0
3, 168600, Note_on_c, 0, 79, 105
3, 168600, Note_on_c, 0, 82, 105
3, 168678, Note_on_c, 0, 82, 0
3, 168678, Note_on_c, 0, 79, 0
3, 168720, Note_on_c, 0, 82, 106
3, 168720, Note_on_c, 0, 79, 106
3, 168960, Note_on_c, 0, 79, 0
3, 168960, Note_on_c, 0, 82, 0
3, 169080, Note_on_c, 0, 79, 108
3, 169080, Note_on_c, 0, 82, 108
3, 169158, Note_on_c, 0, 82, 0
3, 169158, Note_on_c, 0, 79, 0
3, 169200, Note_on_c, 0, 77, 109
3, 169200, Note_on_c, 0, 82, 109
3, 169440, Note_on_c, 0, 82, 0
3, 169440, Note_on_c, 0, 77, 0
3, 169560, Note_on_c, 0, 77, 111
3, 169560, Note_on_c, 0, 82, 111
3, 169638, Note_on_c, 0, 82, 0
3, 169638, Note_on_c, 0, 77, 0
3, 169680, Note_on_c, 0, 82, 112
3, 169680, Note_on_c, 0, 77, 112
3, 169920, Note_on_c, 0, 77, 0
3, 169920, Note_on_c, 0, 82, 0
3, 170040, Note_on_c, 0, 82, 115
3, 170040, Note_on_c, 0, 77, 115
3, 170118, Note_on_c, 0, 77, 0
3, 170118, Note_on_c, 0, 82, 0
3, 170160, Note_on_c, 0, 76, 115
3, 170160, Note_on_c, 0, 79, 115
3, 170400, Note_on_c, 0, 79, 0
3, 170400, Note_on_c, 0, 76, 0
3, 170520, Note_on_c, 0, 79, 113
3, 170520, Note_on_c, 0, 76, 113
3, 170598, Note_on_c, 0, 76, 0
3, 170598, Note_on_c, 0, 79, 0
3, 170640, Note_on_c, 0, 79, 113
3, 170640, Note_on_c, 0, 76, 113
3, 170880, Note_on_c, 0, 76, 0
3, 170880, Note_on_c, 0, 79, 0
3, 171000, Note_on_c, 0, 76, 111
3, 171000, Note_on_c, 0, 79, 111
3, 171078, Note_on_c, 0, 79, 0
3, 171078, Note_on_c, 0, 76, 0
3, 171120, Note_on_c, 0, 77, 110
3, 171120, Note_on_c, 0, 74, 110
3, 171360, Note_on_c, 0, 74, 0
3, 171360, Note_on_c, 0, 77, 0
3, 171480, Note_on_c, 0, 74, 109
3, 171480, Note_on_c, 0, 77, 109
3, 171558, Note_on_c, 0, 77, 0
3, 171558, Note_on_c, 0, 74, 0
3, 171600, Note_on_c, 0, 71, 108
3, 171840, Note_on_c, 0, 71, 0
3, 171960, Note_on_c, 0, 71, 106
3, 172038, Note_on_c, 0, 71, 0
3, 172080, Note_on_c, 0, 73, 106
3, 172320, Note_on_c, 0, 73, 0
3, 172440, Note_on_c, 0, 73, 96
3, 172518, Note_on_c, 0, 73, 0
3, 172920, Note_on_c, 0, 57, 83
3, 172998, Note_on_c, 0, 57, 0
3, 173040, Control_c, 0, 64, 0
3, 173040, Control_c, 0, 64, 0
3, 173520, Note_on_c, 0, 53, 81
3, 173520, Note_on_c, 0, 57, 81
3, 173760, Note_on_c, 0, 57, 0
3, 173760, Note_on_c, 0, 53, 0
3, 173880, Note_on_c, 0, 53, 83
3, 173880, Note_on_c, 0, 57, 83
3, 173958, Note_on_c, 0, 57, 0
3, 173958, Note_on_c, 0, 53, 0
3, 174000, Note_on_c, 0, 55, 84
3, 174240, Note_on_c, 0, 55, 0
3, 174360, Note_on_c, 0, 55, 86
3, 174438, Note_on_c, 0, 55, 0
3, 174480, Note_on_c, 0, 62, 87
3, 174480, Note_on_c, 0, 58, 87
3, 174720, Note_on_c, 0, 58, 0
3, 174720, Note_on_c, 0, 62, 0
3, 174840, Note_on_c, 0, 55, 89
3, 174840, Note_on_c, 0, 58, 89
3, 174918, Note_on_c, 0, 58, 0
3, 174918, Note_on_c, 0, 55, 0
3, 174960, Note_on_c, 0, 55, 90
3, 174960, Note_on_c, 0, 58, 90
3, 175200, Note_on_c, 0, 58, 0
3, 175200, Note_on_c, 0, 55, 0
3, 175320, Note_on_c, 0, 55, 92
3, 175320, Note_on_c, 0, 58, 92
3, 175398, Note_on_c, 0, 58, 0
3, 175398, Note_on_c, 0, 55, 0
3, 175440, Note_on_c, 0, 70, 93
3, 175680, Note_on_c, 0, 70, 0
3, 175800, Note_on_c, 0, 67, 96
3, 175800, Note_on_c, 0, 70, 96
3, 175878, Note_on_c, 0, 70, 0
3, 175878, Note_on_c, 0, 67, 0
3, 175920, Note_on_c, 0, 67, 96
3, 175920, Note_on_c, 0, 70, 96
3, 176160, Note_on_c, 0, 70, 0
3, 176160, Note_on_c, 0, 67, 0
3, 176280, Note_on_c, 0, 67, 99
3, 176280, Note_on_c, 0, 70, 99
3, 176358, Note_on_c, 0, 70, 0
3, 176358, Note_on_c, 0, 67, 0
3, 176400, Note_on_c, 0, 82, 100
3, 176400, Note_on_c, 0, 79, 100
3, 176640, Note_on_c, 0, 79, 0
3, 176640, Note_on_c, 0, 82, 0
3, 176760, Note_on_c, 0, 79, 102
3, 176760, Note_on_c, 0, 82, 102
3, 176838, Note_on_c, 0, 82, 0
3, 176838, Note_on_c, 0, 79, 0
3, 176880, Note_on_c, 0, 82, 103
3, 176880, Note_on_c, 0, 79, 103
3, 177120, Note_on_c, 0, 79, 0
3, 177120, Note_on_c, 0, 82, 0
3, 177240, Note_on_c, 0, 82, 105
3, 177240, Note_on_c, 0, 79, 105
3, 177318, Note_on_c, 0, 79, 0
3, 177318, Note_on_c, 0, 82, 0
3, 177360, Note_on_c, 0, 79, 106
3, 177360, Note_on_c, 0, 82, 106
3, 177600, Note_on_c, 0, 82, 0
3, 177600, Note_on_c, 0, 79, 0
3, 177720, Note_on_c, 0, 82, 108
3, 177720, Note_on_c, 0, 79, 108
3, 177798, Note_on_c, 0, 79, 0
3, 177798, Note_on_c, 0, 82, 0
3, 177840, Note_on_c, 0, 82, 109
3, 177840, Note_on_c, 0, 77, 109
3, 178080, Note_on_c, 0, 77, 0
3, 178080, Note_on_c, 0, 82, 0
3, 178200, Note_on_c, 0, 82, 111
3, 178200, Note_on_c, 0, 77, 111
3, 178278, Note_on_c, 0, 77, 0
3, 178278, Note_on_c, 0, 82, 0
3, 178320, Note_on_c, 0, 77, 112
3, 178320, Note_on_c, 0, 82, 112
3, 178560, Note_on_c, 0, 82, 0
3, 178560, Note_on_c, 0, 77, 0
3, 178680, Note_on_c, 0, 77, 115
3, 178680, Note_on_c, 0, 82, 115
3, 178758, Note_on_c, 0, 82, 0
3, 178758, Note_on_c, 0, 77, 0
3, 178800, Note_on_c, 0, 79, 115
3, 178800, Note_on_c, 0, 76, 115
3, 179040, Note_on_c, 0, 76, 0
3, 179040, Note_on_c, 0, 79, 0
3, 179160, Note_on_c, 0, 76, 113
3, 179160, Note_on_c, 0, 79, 113
3, 179238, Note_on_c, 0, 79, 0
3, 179238, Note_on_c, 0, 76, 0
3, 179280, Note_on_c, 0, 76, 113
3, 179280, Note_on_c, 0, 79, 113
3, 179520, Note_on_c, 0, 79, 0
3, 179520, Note_on_c, 0, 76, 0
3, 179640, Note_on_c, 0, 79, 111
3, 179640, Note_on_c, 0, 76, 111
3, 179718, Note_on_c, 0, 76, 0
3, 179718, Note_on_c, 0, 79, 0
3, 179760, Note_on_c, 0, 74, 110
3, 179760, Note_on_c, 0, 77, 110
3, 180000, Note_on_c, 0, 77, 0
3, 180000, Note_on_c, 0, 74, 0
3, 180120, Note_on_c, 0, 77, 109
3, 180120, Note_on_c, 0, 74, 109
3, 180198, Note_on_c, 0, 74, 0
3, 180198, Note_on_c, 0, 77, 0
3, 180240, Note_on_c, 0, 71, 108
3, 180480, Note_on_c, 0, 71, 0
3, 180600, Note_on_c, 0, 71, 106
3, 180678, Note_on_c, 0, 71, 0
3, 180720, Note_on_c, 0, 73, 106
3, 180960, Note_on_c, 0, 73, 0
3, 181080, Note_on_c, 0, 73, 96
3, 181158, Note_on_c, 0, 73, 0
3, 181560, Note_on_c, 0, 57, 83
3, 181638, Note_on_c, 0, 57, 0
3, 181680, Control_c, 0, 64, 0
3, 182160, Note_on_c, 0, 57, 86
3, 182160, Note_on_c, 0, 53, 86
3, 182400, Note_on_c, 0, 53, 0
3, 182400, Note_on_c, 0, 57, 0
3, 182400, Note_on_c, 0, 50, 88
3, 182478, Note_on_c, 0, 50, 0
3, 182520, Note_on_c, 0, 53, 88
3, 182520, Note_on_c, 0, 57, 88
3, 182598, Note_on_c, 0, 57, 0
3, 182598, Note_on_c, 0, 53, 0
3, 182640, Note_on_c, 0, 55, 89
3, 182880, Note_on_c, 0, 55, 0
3, 183000, Note_on_c, 0, 55, 91
3, 183078, Note_on_c, 0, 55, 0
3, 183120, Note_on_c, 0, 60, 92
3, 183120, Note_on_c, 0, 67, 92
3, 183360, Note_on_c, 0, 67, 0
3, 183360, Note_on_c, 0, 60, 0
3, 183480, Note_on_c, 0, 60, 94
3, 183480, Note_on_c, 0, 67, 94
3, 183558, Note_on_c, 0, 67, 0
3, 183558, Note_on_c, 0, 60, 0
3, 183600, Note_on_c, 0, 60, 94
3, 183600, Note_on_c, 0, 65, 94
3, 183840, Note_on_c, 0, 65, 0
3, 183840, Note_on_c, 0, 60, 0
3, 183960, Note_on_c, 0, 65, 96
3, 183960, Note_on_c, 0, 60, 96
3, 184038, Note_on_c, 0, 60, 0
3, 184038, Note_on_c, 0, 65, 0
3, 184080, Note_on_c, 0, 68, 97
3, 184080, Note_on_c, 0, 65, 97
3, 184320, Note_on_c, 0, 65, 0
3, 184320, Note_on_c, 0, 68, 0
3, 184440, Note_on_c, 0, 72, 99
3, 184440, Note_on_c, 0, 65, 99
3, 184518, Note_on_c, 0, 65, 0
3, 184518, Note_on_c, 0, 72, 0
3, 184560, Note_on_c, 0, 65, 100
3, 184560, Note_on_c, 0, 70, 100
3, 184800, Note_on_c, 0, 70, 0
3, 184800, Note_on_c, 0, 65, 0
3, 184920, Note_on_c, 0, 70, 102
3, 184920, Note_on_c, 0, 65, 102
3, 184998, Note_on_c, 0, 65, 0
3, 184998, Note_on_c, 0, 70, 0
3, 185040, Note_on_c, 0, 77, 102
3, 185280, Note_on_c, 0, 77, 0
3, 185400, Note_on_c, 0, 77, 104
3, 185478, Note_on_c, 0, 77, 0
3, 185520, Note_on_c, 0, 85, 105
3, 185760, Note_on_c, 0, 85, 0
3, 185880, Note_on_c, 0, 84, 107
3, 185958, Note_on_c, 0, 84, 0
3, 186000, Note_on_c, 0, 84, 108
3, 186240, Note_on_c, 0, 84, 0
3, 186360, Note_on_c, 0, 84, 110
3, 186438, Note_on_c, 0, 84, 0
3, 186480, Note_on_c, 0, 86, 110
3, 186720, Note_on_c, 0, 86, 0
3, 186840, Note_on_c, 0, 86, 112
3, 186918, Note_on_c, 0, 86, 0
3, 186960, Note_on_c, 0, 86, 113
3, 187200, Note_on_c, 0, 86, 0
3, 187320, Note_on_c, 0, 86, 115
3, 187398, Note_on_c, 0, 86, 0
3, 187440, Note_on_c, 0, 86, 116
3, 187680, Note_on_c, 0, 86, 0
3, 187800, Note_on_c, 0, 86, 118
3, 187878, Note_on_c, 0, 86, 0
3, 187920, Note_on_c, 0, 86, 118
3, 188160, Note_on_c, 0, 86, 0
3, 188280, Note_on_c, 0, 81, 120
3, 188280, Note_on_c, 0, 88, 120
3, 188358, Note_on_c, 0, 88, 0
3, 188358, Note_on_c, 0, 81, 0
3, 188400, Note_on_c, 0, 81, 123
3, 188400, Note_on_c, 0, 88, 123
3, 188556, Note_on_c, 0, 88, 0
3, 188556, Note_on_c, 0, 81, 0
3, 188640, Note_on_c, 0, 81, 122
3, 188640, Note_on_c, 0, 86, 122
3, 188796, Note_on_c, 0, 86, 0
3, 188796, Note_on_c, 0, 81, 0
3, 188880, Note_on_c, 0, 81, 120
3, 188880, Note_on_c, 0, 86, 120
3, 189036, Note_on_c, 0, 86, 0
3, 189036, Note_on_c, 0, 81, 0
3, 189120, Note_on_c, 0, 81, 118
3, 189276, Note_on_c, 0, 81, 0
3, 189360, Note_on_c, 0, 82, 117
3, 189600, Note_on_c, 0, 82, 0
3, 189720, Note_on_c, 0, 82, 114
3, 189798, Note_on_c, 0, 82, 0
3, 189840, Note_on_c, 0, 76, 113
3, 189840, Note_on_c, 0, 81, 113
3, 190080, Note_on_c, 0, 81, 0
3, 190080, Note_on_c, 0, 76, 0
3, 190200, Note_on_c, 0, 76, 111
3, 190200, Note_on_c, 0, 81, 111
3, 190278, Note_on_c, 0, 81, 0
3, 190278, Note_on_c, 0, 76, 0
3, 190320, Note_on_c, 0, 77, 110
3, 190320, Note_on_c, 0, 81, 110
3, 190560, Note_on_c, 0, 81, 0
3, 190560, Note_on_c, 0, 77, 0
3, 190680, Note_on_c, 0, 77, 107
3, 190680, Note_on_c, 0, 81, 107
3, 190758, Note_on_c, 0, 81, 0
3, 190758, Note_on_c, 0, 77, 0
3, 190800, Note_on_c, 0, 65, 106
3, 190800, Note_on_c, 0, 69, 106
3, 191040, Note_on_c, 0, 69, 0
3, 191040, Note_on_c, 0, 65, 0
3, 191160, Note_on_c, 0, 53, 104
3, 191160, Note_on_c, 0, 57, 104
3, 191238, Note_on_c, 0, 57, 0
3, 191238, Note_on_c, 0, 53, 0
3, 191280, Control_c, 0, 64, 0
3, 191760, Note_on_c, 0, 53, 72
3, 191760, Note_on_c, 0, 65, 72
3, 191760, Note_on_c, 0, 50, 72
3, 191838, Note_on_c, 0, 50, 0
3, 191838, Note_on_c, 0, 65, 0
3, 191838, Note_on_c, 0, 53, 0
3, 191880, Note_on_c, 0, 62, 73
3, 191880, Note_on_c, 0, 65, 73
3, 191880, Note_on_c, 0, 50, 73
3, 191880, Note_on_c, 0, 53, 73
3, 191958, Note_on_c, 0, 53, 0
3, 191958, Note_on_c, 0, 62, 0
3, 191958, Note_on_c, 0, 65, 0
3, 191958, Note_on_c, 0, 50, 0
3, 192000, Note_on_c, 0, 65, 76
3, 192000, Note_on_c, 0, 62, 76
3, 192000, Note_on_c, 0, 53, 76
3, 192000, Note_on_c, 0, 50, 76
3, 192078, Note_on_c, 0, 50, 0
3, 192078, Note_on_c, 0, 65, 0
3, 192078, Note_on_c, 0, 62, 0
3, 192078, Note_on_c, 0, 53, 0
3, 192120, Note_on_c, 0, 50, 78
3, 192120, Note_on_c, 0, 62, 78
3, 192120, Note_on_c, 0, 66, 78
3, 192120, Note_on_c, 0, 54, 78
3, 192198, Note_on_c, 0, 54, 0
3, 192198, Note_on_c, 0, 50, 0
3, 192198, Note_on_c, 0, 62, 0
3, 192198, Note_on_c, 0, 66, 0
3, 192240, Control_c, 0, 64, 0
3, 192240, Note_on_c, 0, 62, 85
3, 192240, Note_on_c, 0, 67, 85
3, 192240, Note_on_c, 0, 50, 85
3, 192240, Note_on_c, 0, 55, 85
3, 192720, Note_on_c, 0, 55, 0
3, 192720, Note_on_c, 0, 62, 0
3, 192720, Note_on_c, 0, 67, 0
3, 192720, Note_on_c, 0, 50, 0
3, 192720, Note_on_c, 0, 71, 78
3, 192720, Note_on_c, 0, 62, 78
3, 192720, Note_on_c, 0, 59, 78
3, 192720, Note_on_c, 0, 55, 78
3, 192798, Note_on_c, 0, 55, 0
3, 192798, Note_on_c, 0, 71, 0
3, 192798, Note_on_c, 0, 62, 0
3, 192798, Note_on_c, 0, 59, 0
3, 192840, Note_on_c, 0, 50, 79
3, 192840, Note_on_c, 0, 67, 79
3, 192840, Note_on_c, 0, 71, 79
3, 192918, Note_on_c, 0, 71, 0
3, 192918, Note_on_c, 0, 67, 0
3, 192918, Note_on_c, 0, 50, 0
3, 192960, Note_on_c, 0, 50, 82
3, 192960, Note_on_c, 0, 67, 82
3, 192960, Note_on_c, 0, 71, 82
3, 193038, Note_on_c, 0, 71, 0
3, 193038, Note_on_c, 0, 67, 0
3, 193038, Note_on_c, 0, 50, 0
3, 193080, Note_on_c, 0, 59, 84
3, 193080, Note_on_c, 0, 71, 84
3, 193080, Note_on_c, 0, 55, 84
3, 193080, Note_on_c, 0, 62, 84
3, 193158, Note_on_c, 0, 62, 0
3, 193158, Note_on_c, 0, 59, 0
3, 193158, Note_on_c, 0, 71, 0
3, 193158, Note_on_c, 0, 55, 0
3, 193200, Note_on_c, 0, 50, 92
3, 193200, Note_on_c, 0, 62, 92
3, 193200, Note_on_c, 0, 71, 92
3, 193200, Note_on_c, 0, 56, 92
3, 193200, Note_on_c, 0, 59, 92
3, 193200, Note_on_c, 0, 68, 92
3, 193680, Note_on_c, 0, 68, 0
3, 193680, Note_on_c, 0, 62, 0
3, 193680, Note_on_c, 0, 71, 0
3, 193680, Note_on_c, 0, 50, 0
3, 193680, Note_on_c, 0, 59, 0
3, 193680, Note_on_c, 0, 56, 0
3, 193680, Note_on_c, 0, 80, 85
3, 193680, Note_on_c, 0, 64, 85
3, 193680, Note_on_c, 0, 59, 85
3, 193680, Note_on_c, 0, 56, 85
3, 193758, Note_on_c, 0, 56, 0
3, 193758, Note_on_c, 0, 80, 0
3, 193758, Note_on_c, 0, 64, 0
3, 193758, Note_on_c, 0, 59, 0
3, 193800, Note_on_c, 0, 80, 85
3, 193800, Note_on_c, 0, 50, 85
3, 193878, Note_on_c, 0, 50, 0
3, 193878, Note_on_c, 0, 80, 0
3, 193920, Note_on_c, 0, 50, 86
3, 193920, Note_on_c, 0, 80, 86
3, 193998, Note_on_c, 0, 80, 0
3, 193998, Note_on_c, 0, 50, 0
3, 194040, Note_on_c, 0, 80, 87
3, 194040, Note_on_c, 0, 64, 87
3, 194040, Note_on_c, 0, 56, 87
3, 194040, Note_on_c, 0, 59, 87
3, 194118, Note_on_c, 0, 59, 0
3, 194118, Note_on_c, 0, 80, 0
3, 194118, Note_on_c, 0, 64, 0
3, 194118, Note_on_c, 0, 56, 0
3, 194160, Note_on_c, 0, 81, 96
3, 194238, Note_on_c, 0, 81, 0
3, 194400, Note_on_c, 0, 73, 90
3, 194478, Note_on_c, 0, 73, 0
3, 194640, Note_on_c, 0, 73, 84
3, 194640, Note_on_c, 0, 70, 84
3, 194718, Note_on_c, 0, 70, 0
3, 194718, Note_on_c, 0, 73, 0
3, 195120, Note_on_c, 0, 65, 74
3, 195120, Note_on_c, 0, 53, 74
3, 195120, Note_on_c, 0, 62, 74
3, 195120, Note_on_c, 0, 50, 74
3, 195120, Note_on_c, 0, 45, 74
3, 195600, Note_on_c, 0, 45, 0
3, 195600, Note_on_c, 0, 62, 0
3, 195600, Note_on_c, 0, 65, 0
3, 195600, Note_on_c, 0, 53, 0
3, 195600, Note_on_c, 0, 50, 0
3, 195600, Note_on_c, 0, 65, 66
3, 195600, Note_on_c, 0, 53, 66
3, 195678, Note_on_c, 0, 53, 0
3, 195678, Note_on_c, 0, 65, 0
3, 195720, Note_on_c, 0, 65, 69
3, 195720, Note_on_c, 0, 53, 69
3, 195798, Note_on_c, 0, 53, 0
3, 195798, Note_on_c, 0, 65, 0
3, 195840, Note_on_c, 0, 65, 71
3, 195840, Note_on_c, 0, 53, 71
3, 195918, Note_on_c, 0, 53, 0
3, 195918, Note_on_c, 0, 65, 0
3, 195960, Note_on_c, 0, 57, 74
3, 195960, Note_on_c, 0, 69, 74
3, 195960, Note_on_c, 0, 53, 74
3, 196038, Note_on_c, 0, 53, 0
3, 196038, Note_on_c, 0, 69, 0
3, 196038, Note_on_c, 0, 57, 0
3, 196080, Note_on_c, 0, 69, 82
3, 196080, Note_on_c, 0, 52, 82
3, 196080, Note_on_c, 0, 57, 82
3, 196560, Note_on_c, 0, 57, 0
3, 196560, Note_on_c, 0, 52, 0
3, 196560, Note_on_c, 0, 69, 0
3, 196560, Note_on_c, 0, 81, 76
3, 196560, Note_on_c, 0, 64, 76
3, 196638, Note_on_c, 0, 64, 0
3, 196638, Note_on_c, 0, 81, 0
3, 196680, Note_on_c, 0, 57, 76
3, 196758, Note_on_c, 0, 57, 0
3, 196800, Note_on_c, 0, 57, 79
3, 196878, Note_on_c, 0, 57, 0
3, 196920, Note_on_c, 0, 65, 81
3, 196998, Note_on_c, 0, 65, 0
3, 197040, Note_on_c, 0, 57, 89
3, 197040, Note_on_c, 0, 81, 89
3, 197040, Note_on_c, 0, 64, 89
3, 197040, Note_on_c, 0, 69, 89
3, 197520, Note_on_c, 0, 69, 0
3, 197520, Note_on_c, 0, 57, 0
3, 197520, Note_on_c, 0, 81, 0
3, 197520, Note_on_c, 0, 64, 0
3, 197520, Note_on_c, 0, 81, 84
3, 197520, Note_on_c, 0, 63, 84
3, 197598, Note_on_c, 0, 63, 0
3, 197598, Note_on_c, 0, 81, 0
3, 197640, Note_on_c, 0, 57, 86
3, 197718, Note_on_c, 0, 57, 0
3, 197760, Note_on_c, 0, 57, 89
3, 197838, Note_on_c, 0, 57, 0
3, 197880, Note_on_c, 0, 69, 92
3, 197958, Note_on_c, 0, 69, 0
3, 198000, Note_on_c, 0, 81, 100
3, 198000, Note_on_c, 0, 69, 100
3, 198000, Note_on_c, 0, 57, 100
3, 198000, Note_on_c, 0, 62, 100
3, 198078, Note_on_c, 0, 81, 0
3, 198360, Note_on_c, 0, 81, 92
3, 198438, Note_on_c, 0, 81, 0
3, 198480, Note_on_c, 0, 62, 0
3, 198480, Note_on_c, 0, 57, 0
3, 198480, Note_on_c, 0, 69, 0
3, 198480, Note_on_c, 0, 79, 105
3, 198480, Note_on_c, 0, 74, 105
3, 198480, Note_on_c, 0, 67, 105
3, 198480, Note_on_c, 0, 55, 105
3, 198480, Note_on_c, 0, 62, 105
3, 198558, Note_on_c, 0, 74, 0
3, 198558, Note_on_c, 0, 79, 0
3, 198960, Note_on_c, 0, 55, 0
3, 198960, Note_on_c, 0, 67, 0
3, 198960, Note_on_c, 0, 62, 0
3, 198960, Note_on_c, 0, 85, 107
3, 199038, Note_on_c, 0, 85, 0
3, 199080, Note_on_c, 0, 67, 97
3, 199080, Note_on_c, 0, 73, 97
3, 199080, Note_on_c, 0, 79, 97
3, 199080, Note_on_c, 0, 64, 97
3, 199080, Note_on_c, 0, 57, 97
3, 199158, Note_on_c, 0, 57, 0
3, 199158, Note_on_c, 0, 79, 0
3, 199158, Note_on_c, 0, 67, 0
3, 199158, Note_on_c, 0, 73, 0
3, 199158, Note_on_c, 0, 64, 0
3, 199200, Note_on_c, 0, 86, 102
3, 199278, Note_on_c, 0, 86, 0
3, 199320, Note_on_c, 0, 65, 93
3, 199320, Note_on_c, 0, 74, 93
3, 199320, Note_on_c, 0, 77, 93
3, 199320, Note_on_c, 0, 57, 93
3, 199320, Note_on_c, 0, 62, 93
3, 199398, Note_on_c, 0, 62, 0
3, 199398, Note_on_c, 0, 77, 0
3, 199398, Note_on_c, 0, 65, 0
3, 199398, Note_on_c, 0, 74, 0
3, 199398, Note_on_c, 0, 57, 0
3, 199440, Note_on_c, 0, 86, 100
3, 199518, Note_on_c, 0, 86, 0
3, 199560, Note_on_c, 0, 64, 90
3, 199560, Note_on_c, 0, 74, 90
3, 199560, Note_on_c, 0, 76, 90
3, 199560, Note_on_c, 0, 57, 90
3, 199560, Note_on_c, 0, 62, 90
3, 199638, Note_on_c, 0, 62, 0
3, 199638, Note_on_c, 0, 76, 0
3, 199638, Note_on_c, 0, 64, 0
3, 199638, Note_on_c, 0, 74, 0
3, 199638, Note_on_c, 0, 57, 0
3, 199680, Note_on_c, 0, 85, 96
3, 199758, Note_on_c, 0, 85, 0
3, 199800, Note_on_c, 0, 73, 86
3, 199800, Note_on_c, 0, 64, 86
3, 199800, Note_on_c, 0, 76, 86
3, 199800, Note_on_c, 0, 57, 86
3, 199800, Note_on_c, 0, 61, 86
3, 199878, Note_on_c, 0, 61, 0
3, 199878, Note_on_c, 0, 76, 0
3, 199878, Note_on_c, 0, 73, 0
3, 199878, Note_on_c, 0, 64, 0
3, 199878, Note_on_c, 0, 57, 0
3, 199920, Control_c, 0, 64, 0
3, 199920, Note_on_c, 0, 57, 82
3, 199920, Note_on_c, 0, 65, 82
3, 199920, Note_on_c, 0, 62, 82
3, 200400, Note_on_c, 0, 62, 0
3, 200400, Note_on_c, 0, 65, 0
3, 200400, Note_on_c, 0, 57, 0
3, 200400, Note_on_c, 0, 50, 72
3, 200400, Note_on_c, 0, 65, 72
3, 200400, Note_on_c, 0, 53, 72
3, 200478, Note_on_c, 0, 53, 0
3, 200478, Note_on_c, 0, 65, 0
3, 200478, Note_on_c, 0, 50, 0
3, 200520, Note_on_c, 0, 53, 73
3, 200520, Note_on_c, 0, 50, 73
3, 200520, Note_on_c, 0, 65, 73
3, 200520, Note_on_c, 0, 62, 73
3, 200598, Note_on_c, 0, 62, 0
3, 200598, Note_on_c, 0, 53, 0
3, 200598, Note_on_c, 0, 50, 0
3, 200598, Note_on_c, 0, 65, 0
3, 200640, Note_on_c, 0, 50, 76
3, 200640, Note_on_c, 0, 53, 76
3, 200640, Note_on_c, 0, 62, 76
3, 200640, Note_on_c, 0, 65, 76
3, 200718, Note_on_c, 0, 65, 0
3, 200718, Note_on_c, 0, 50, 0
3, 200718, Note_on_c, 0, 53, 0
3, 200718, Note_on_c, 0, 62, 0
3, 200760, Note_on_c, 0, 54, 78
3, 200760, Note_on_c, 0, 66, 78
3, 200760, Note_on_c, 0, 62, 78
3, 200760, Note_on_c, 0, 50, 78
3, 200838, Note_on_c, 0, 50, 0
3, 200838, Note_on_c, 0, 54, 0
3, 200838, Note_on_c, 0, 66, 0
3, 200838, Note_on_c, 0, 62, 0
3, 200880, Control_c, 0, 64, 0
3, 200880, Note_on_c, 0, 55, 85
3, 200880, Note_on_c, 0, 50, 85
3, 200880, Note_on_c, 0, 67, 85
3, 200880, Note_on_c, 0, 62, 85
3, 201360, Note_on_c, 0, 62, 0
3, 201360, Note_on_c, 0, 55, 0
3, 201360, Note_on_c, 0, 50, 0
3, 201360, Note_on_c, 0, 67, 0
3, 201360, Note_on_c, 0, 55, 78
3, 201360, Note_on_c, 0, 59, 78
3, 201360, Note_on_c, 0, 62, 78
3, 201360, Note_on_c, 0, 71, 78
3, 201438, Note_on_c, 0, 71, 0
3, 201438, Note_on_c, 0, 55, 0
3, 201438, Note_on_c, 0, 59, 0
3, 201438, Note_on_c, 0, 62, 0
3, 201480, Note_on_c, 0, 71, 79
3, 201480, Note_on_c, 0, 67, 79
3, 201480, Note_on_c, 0, 50, 79
3, 201558, Note_on_c, 0, 50, 0
3, 201558, Note_on_c, 0, 67, 0
3, 201558, Note_on_c, 0, 71, 0
3, 201600, Note_on_c, 0, 71, 82
3, 201600, Note_on_c, 0, 67, 82
3, 201600, Note_on_c, 0, 50, 82
3, 201678, Note_on_c, 0, 50, 0
3, 201678, Note_on_c, 0, 67, 0
3, 201678, Note_on_c, 0, 71, 0
3, 201720, Note_on_c, 0, 62, 84
3, 201720, Note_on_c, 0, 55, 84
3, 201720, Note_on_c, 0, 71, 84
3, 201720, Note_on_c, 0, 59, 84
3, 201798, Note_on_c, 0, 59, 0
3, 201798, Note_on_c, 0, 62, 0
3, 201798, Note_on_c, 0, 55, 0
3, 201798, Note_on_c, 0, 71, 0
3, 201840, Note_on_c, 0, 68, 92
3, 201840, Note_on_c, 0, 59, 92
3, 201840, Note_on_c, 0, 56, 92
3, 201840, Note_on_c, 0, 71, 92
3, 201840, Note_on_c, 0, 62, 92
3, 201840, Note_on_c, 0, 50, 92
3, 202320, Note_on_c, 0, 50, 0
3, 202320, Note_on_c, 0, 59, 0
3, 202320, Note_on_c, 0, 56, 0
3, 202320, Note_on_c, 0, 68, 0
3, 202320, Note_on_c, 0, 62, 0
3, 202320, Note_on_c, 0, 71, 0
3, 202320, Note_on_c, 0, 56, 85
3, 202320, Note_on_c, 0, 59, 85
3, 202320, Note_on_c, 0, 64, 85
3, 202320, Note_on_c, 0, 80, 85
3, 202398, Note_on_c, 0, 80, 0
3, 202398, Note_on_c, 0, 56, 0
3, 202398, Note_on_c, 0, 59, 0
3, 202398, Note_on_c, 0, 64, 0
3, 202440, Note_on_c, 0, 50, 85
3, 202440, Note_on_c, 0, 80, 85
3, 202518, Note_on_c, 0, 80, 0
3, 202518, Note_on_c, 0, 50, 0
3, 202560, Note_on_c, 0, 80, 86
3, 202560, Note_on_c, 0, 50, 86
3, 202638, Note_on_c, 0, 50, 0
3, 202638, Note_on_c, 0, 80, 0
3, 202680, Note_on_c, 0, 59, 87
3, 202680, Note_on_c, 0, 56, 87
3, 202680, Note_on_c, 0, 64, 87
3, 202680, Note_on_c, 0, 80, 87
3, 202758, Note_on_c, 0, 80, 0
3, 202758, Note_on_c, 0, 59, 0
3, 202758, Note_on_c, 0, 56, 0
3, 202758, Note_on_c, 0, 64, 0
3, 202800, Note_on_c, 0, 81, 96
3, 202878, Note_on_c, 0, 81, 0
3, 203040, Note_on_c, 0, 73, 90
3, 203118, Note_on_c, 0, 73, 0
3, 203280, Note_on_c, 0, 70, 84
3, 203280, Note_on_c, 0, 73, 84
3, 203358, Note_on_c, 0, 73, 0
3, 203358, Note_on_c, 0, 70, 0
3, 203760, Note_on_c, 0, 45, 74
3, 203760, Note_on_c, 0, 50, 74
3, 203760, Note_on_c, 0, 62, 74
3, 203760, Note_on_c, 0, 53, 74
3, 203760, Note_on_c, 0, 65, 74
3, 204240, Note_on_c, 0, 65, 0
3, 204240, Note_on_c, 0, 62, 0
3, 204240, Note_on_c, 0, 45, 0
3, 204240, Note_on_c, 0, 50, 0
3, 204240, Note_on_c, 0, 53, 0
3, 204240, Note_on_c, 0, 53, 66
3, 204240, Note_on_c, 0, 65, 66
3, 204318, Note_on_c, 0, 65, 0
3, 204318, Note_on_c, 0, 53, 0
3, 204360, Note_on_c, 0, 53, 69
3, 204360, Note_on_c, 0, 65, 69
3, 204438, Note_on_c, 0, 65, 0
3, 204438, Note_on_c, 0, 53, 0
3, 204480, Note_on_c, 0, 53, 71
3, 204480, Note_on_c, 0, 65, 71
3, 204558, Note_on_c, 0, 65, 0
3, 204558, Note_on_c, 0, 53, 0
3, 204600, Note_on_c, 0, 53, 74
3, 204600, Note_on_c, 0, 69, 74
3, 204600, Note_on_c, 0, 57, 74
3, 204678, Note_on_c, 0, 57, 0
3, 204678, Note_on_c, 0, 69, 0
3, 204678, Note_on_c, 0, 53, 0
3, 204720, Note_on_c, 0, 57, 82
3, 204720, Note_on_c, 0, 52, 82
3, 204720, Note_on_c, 0, 69, 82
3, 205200, Note_on_c, 0, 69, 0
3, 205200, Note_on_c, 0, 52, 0
3, 205200, Note_on_c, 0, 57, 0
3, 205200, Note_on_c, 0, 64, 76
3, 205200, Note_on_c, 0, 81, 76
3, 205278, Note_on_c, 0, 81, 0
3, 205278, Note_on_c, 0, 64, 0
3, 205320, Note_on_c, 0, 57, 76
3, 205398, Note_on_c, 0, 57, 0
3, 205440, Note_on_c, 0, 57, 79
3, 205518, Note_on_c, 0, 57, 0
3, 205560, Note_on_c, 0, 65, 81
3, 205638, Note_on_c, 0, 65, 0
3, 205680, Note_on_c, 0, 69, 89
3, 205680, Note_on_c, 0, 64, 89
3, 205680, Note_on_c, 0, 81, 89
3, 205680, Note_on_c, 0, 57, 89
3, 206160, Note_on_c, 0, 57, 0
3, 206160, Note_on_c, 0, 69, 0
3, 206160, Note_on_c, 0, 64, 0
3, 206160, Note_on_c, 0, 81, 0
3, 206160, Note_on_c, 0, 63, 84
3, 206160, Note_on_c, 0, 81, 84
3, 206238, Note_on_c, 0, 81, 0
3, 206238, Note_on_c, 0, 63, 0
3, 206280, Note_on_c, 0, 57, 86
3, 206358, Note_on_c, 0, 57, 0
3, 206400, Note_on_c, 0, 57, 89
3, 206478, Note_on_c, 0, 57, 0
3, 206520, Note_on_c, 0, 69, 92
3, 206598, Note_on_c, 0, 69, 0
3, 206640, Note_on_c, 0, 62, 100
3, 206640, Note_on_c, 0, 57, 100
3, 206640, Note_on_c, 0, 69, 100
3, 206640, Note_on_c, 0, 81, 100
3, 206718, Note_on_c, 0, 81, 0
3, 207000, Note_on_c, 0, 81, 92
3, 207078, Note_on_c, 0, 81, 0
3, 207120, Note_on_c, 0, 69, 0
3, 207120, Note_on_c, 0, 57, 0
3, 207120, Note_on_c, 0, 62, 0
3, 207120, Note_on_c, 0, 62, 105
3, 207120, Note_on_c, 0, 55, 105
3, 207120, Note_on_c, 0, 67, 105
3, 207120, Note_on_c, 0, 74, 105
3, 207120, Note_on_c, 0, 79, 105
3, 207198, Note_on_c, 0, 79, 0
3, 207198, Note_on_c, 0, 74, 0
3, 207600, Note_on_c, 0, 62, 0
3, 207600, Note_on_c, 0, 55, 0
3, 207600, Note_on_c, 0, 67, 0
3, 207600, Note_on_c, 0, 85, 107
3, 207678, Note_on_c, 0, 85, 0
3, 207720, Note_on_c, 0, 57, 97
3, 207720, Note_on_c, 0, 64, 97
3, 207720, Note_on_c, 0, 79, 97
3, 207720, Note_on_c, 0, 73, 97
3, 207720, Note_on_c, 0, 67, 97
3, 207798, Note_on_c, 0, 67, 0
3, 207798, Note_on_c, 0, 79, 0
3, 207798, Note_on_c, 0, 57, 0
3, 207798, Note_on_c, 0, 64, 0
3, 207798, Note_on_c, 0, 73, 0
3, 207840, Note_on_c, 0, 86, 102
3, 207918, Note_on_c, 0, 86, 0
3, 207960, Note_on_c, 0, 62, 93
3, 207960, Note_on_c, 0, 57, 93
3, 207960, Note_on_c, 0, 77, 93
3, 207960, Note_on_c, 0, 74, 93
3, 207960, Note_on_c, 0, 65, 93
3, 208038, Note_on_c, 0, 65, 0
3, 208038, Note_on_c, 0, 77, 0
3, 208038, Note_on_c, 0, 62, 0
3, 208038, Note_on_c, 0, 57, 0
3, 208038, Note_on_c, 0, 74, 0
3, 208080, Note_on_c, 0, 86, 100
3, 208158, Note_on_c, 0, 86, 0
3, 208200, Note_on_c, 0, 62, 90
3, 208200, Note_on_c, 0, 57, 90
3, 208200, Note_on_c, 0, 76, 90
3, 208200, Note_on_c, 0, 74, 90
3, 208200, Note_on_c, 0, 64, 90
3, 208278, Note_on_c, 0, 64, 0
3, 208278, Note_on_c, 0, 76, 0
3, 208278, Note_on_c, 0, 62, 0
3, 208278, Note_on_c, 0, 57, 0
3, 208278, Note_on_c, 0, 74, 0
3, 208320, Note_on_c, 0, 85, 96
3, 208398, Note_on_c, 0, 85, 0
3, 208440, Note_on_c, 0, 61, 86
3, 208440, Note_on_c, 0, 57, 86
3, 208440, Note_on_c, 0, 76, 86
3, 208440, Note_on_c, 0, 64, 86
3, 208440, Note_on_c, 0, 73, 86
3, 208518, Note_on_c, 0, 73, 0
3, 208518, Note_on_c, 0, 76, 0
3, 208518, Note_on_c, 0, 61, 0
3, 208518, Note_on_c, 0, 57, 0
3, 208518, Note_on_c, 0, 64, 0
3, 208560, Control_c, 0, 64, 0
3, 208560, Note_on_c, 0, 62, 64
3, 208560, Note_on_c, 0, 65, 64
3, 208560, Note_on_c, 0, 53, 64
3, 208560, Note_on_c, 0, 50, 64
3, 208560, Note_on_c, 0, 45, 64
3, 209040, Note_on_c, 0, 45, 0
3, 209040, Note_on_c, 0, 53, 0
3, 209040, Note_on_c, 0, 62, 0
3, 209040, Note_on_c, 0, 65, 0
3, 209040, Note_on_c, 0, 50, 0
3, 209040, Note_on_c, 0, 65, 59
3, 209040, Note_on_c, 0, 62, 59
3, 209040, Note_on_c, 0, 53, 59
3, 209118, Note_on_c, 0, 53, 0
3, 209118, Note_on_c, 0, 62, 0
3, 209118, Note_on_c, 0, 65, 0
3, 209160, Note_on_c, 0, 65, 60
3, 209160, Note_on_c, 0, 53, 60
3, 209238, Note_on_c, 0, 53, 0
3, 209238, Note_on_c, 0, 65, 0
3, 209280, Note_on_c, 0, 65, 63
3, 209280, Note_on_c, 0, 53, 63
3, 209358, Note_on_c, 0, 53, 0
3, 209358, Note_on_c, 0, 65, 0
3, 209400, Note_on_c, 0, 69, 65
3, 209400, Note_on_c, 0, 53, 65
3, 209400, Note_on_c, 0, 57, 65
3, 209478, Note_on_c, 0, 57, 0
3, 209478, Note_on_c, 0, 53, 0
3, 209478, Note_on_c, 0, 69, 0
3, 209520, Control_c, 0, 64, 0
3, 209520, Note_on_c, 0, 70, 72
3, 209520, Note_on_c, 0, 58, 72
3, 209520, Note_on_c, 0, 64, 72
3, 209520, Note_on_c, 0, 52, 72
3, 209520, Note_on_c, 0, 55, 72
3, 210000, Note_on_c, 0, 55, 0
3, 210000, Note_on_c, 0, 64, 0
3, 210000, Note_on_c, 0, 70, 0
3, 210000, Note_on_c, 0, 58, 0
3, 210000, Note_on_c, 0, 52, 0
3, 210000, Note_on_c, 0, 70, 68
3, 210000, Note_on_c, 0, 58, 68
3, 210000, Note_on_c, 0, 55, 68
3, 210078, Note_on_c, 0, 55, 0
3, 210078, Note_on_c, 0, 58, 0
3, 210078, Note_on_c, 0, 70, 0
3, 210120, Note_on_c, 0, 48, 69
3, 210198, Note_on_c, 0, 48, 0
3, 210240, Note_on_c, 0, 48, 72
3, 210318, Note_on_c, 0, 48, 0
3, 210360, Note_on_c, 0, 60, 74
3, 210438, Note_on_c, 0, 60, 0
3, 210480, Note_on_c, 0, 81, 82
3, 210480, Note_on_c, 0, 53, 82
3, 210480, Note_on_c, 0, 57, 82
3, 210480, Note_on_c, 0, 60, 82
3, 210960, Note_on_c, 0, 60, 0
3, 210960, Note_on_c, 0, 81, 0
3, 210960, Note_on_c, 0, 53, 0
3, 210960, Note_on_c, 0, 57, 0
3, 210960, Note_on_c, 0, 81, 77
3, 210960, Note_on_c, 0, 57, 77
3, 210960, Note_on_c, 0, 60, 77
3, 211038, Note_on_c, 0, 60, 0
3, 211038, Note_on_c, 0, 57, 0
3, 211038, Note_on_c, 0, 81, 0
3, 211080, Note_on_c, 0, 53, 78
3, 211158, Note_on_c, 0, 53, 0
3, 211200, Note_on_c, 0, 53, 81
3, 211278, Note_on_c, 0, 53, 0
3, 211320, Note_on_c, 0, 60, 83
3, 211398, Note_on_c, 0, 60, 0
3, 211440, Note_on_c, 0, 53, 91
3, 211440, Note_on_c, 0, 57, 91
3, 211440, Note_on_c, 0, 61, 91
3, 211440, Note_on_c, 0, 81, 91
3, 211920, Note_on_c, 0, 81, 0
3, 211920, Note_on_c, 0, 53, 0
3, 211920, Note_on_c, 0, 57, 0
3, 211920, Note_on_c, 0, 61, 0
3, 211920, Note_on_c, 0, 81, 86
3, 211920, Note_on_c, 0, 61, 86
3, 211998, Note_on_c, 0, 61, 0
3, 211998, Note_on_c, 0, 81, 0
3, 212040, Note_on_c, 0, 57, 89
3, 212118, Note_on_c, 0, 57, 0
3, 212160, Note_on_c, 0, 57, 92
3, 212238, Note_on_c, 0, 57, 0
3, 212280, Note_on_c, 0, 69, 94
3, 212358, Note_on_c, 0, 69, 0
3, 212400, Note_on_c, 0, 85, 102
3, 212400, Note_on_c, 0, 66, 102
3, 212400, Note_on_c, 0, 69, 102
3, 212400, Note_on_c, 0, 57, 102
3, 212400, Note_on_c, 0, 61, 102
3, 212478, Note_on_c, 0, 85, 0
3, 212880, Note_on_c, 0, 57, 0
3, 212880, Note_on_c, 0, 66, 0
3, 212880, Note_on_c, 0, 69, 0
3, 212880, Note_on_c, 0, 61, 0
3, 212880, Note_on_c, 0, 85, 108
3, 212880, Note_on_c, 0, 66, 108
3, 212880, Note_on_c, 0, 69, 108
3, 212880, Note_on_c, 0, 57, 108
3, 212880, Note_on_c, 0, 61, 108
3, 212958, Note_on_c, 0, 85, 0
3, 213360, Note_on_c, 0, 57, 0
3, 213360, Note_on_c, 0, 66, 0
3, 213360, Note_on_c, 0, 69, 0
3, 213360, Note_on_c, 0, 61, 0
3, 213360, Note_on_c, 0, 81, 112
3, 213360, Note_on_c, 0, 69, 112
3, 213360, Note_on_c, 0, 62, 112
3, 213360, Note_on_c, 0, 57, 112
3, 213360, Note_on_c, 0, 60, 112
3, 213438, Note_on_c, 0, 81, 0
3, 213840, Note_on_c, 0, 57, 0
3, 213840, Note_on_c, 0, 69, 0
3, 213840, Note_on_c, 0, 62, 0
3, 213840, Note_on_c, 0, 60, 0
3, 213840, Note_on_c, 0, 72, 116
3, 213840, Note_on_c, 0, 60, 116
3, 213840, Note_on_c, 0, 62, 116
3, 213918, Note_on_c, 0, 72, 0
3, 214320, Note_on_c, 0, 62, 0
3, 214320, Note_on_c, 0, 60, 0
3, 214320, Note_on_c, 0, 75, 121
3, 214320, Note_on_c, 0, 58, 121
3, 214320, Note_on_c, 0, 63, 121
3, 214398, Note_on_c, 0, 75, 0
3, 214800, Note_on_c, 0, 63, 0
3, 214800, Note_on_c, 0, 58, 0
3, 214800, Note_on_c, 0, 74, 126
3, 214800, Note_on_c, 0, 58, 126
3, 214800, Note_on_c, 0, 62, 126
3, 214878, Note_on_c, 0, 74, 0
3, 215280, Note_on_c, 0, 62, 0
3, 215280, Note_on_c, 0, 58, 0
3, 215280, Note_on_c, 0, 73, 127
3, 215280, Note_on_c, 0, 58, 127
3, 215280, Note_on_c, 0, 61, 127
3, 215358, Note_on_c, 0, 73, 0
3, 215760, Note_on_c, 0, 61, 0
3, 215760, Note_on_c, 0, 58, 0
3, 215760, Note_on_c, 0, 58, 123
3, 215838, Note_on_c, 0, 58, 0
3, 215880, Note_on_c, 0, 61, 125
3, 215958, Note_on_c, 0, 61, 0
3, 216000, Note_on_c, 0, 64, 126
3, 216078, Note_on_c, 0, 64, 0
3, 216120, Note_on_c, 0, 67, 127
3, 216198, Note_on_c, 0, 67, 0
3, 216200, Note_on_c, 0, 54, 127
3, 216220, Note_on_c, 0, 57, 127
3, 216230, Note_on_c, 0, 62, 127
3, 216240, Note_on_c, 0, 86, 127
3, 216240, Note_on_c, 0, 81, 127
3, 216240, Note_on_c, 0, 66, 127
3, 216955, Note_on_c, 0, 62, 0
3, 216960, Note_on_c, 0, 57, 0
3, 216960, Note_on_c, 0, 86, 0
3, 216960, Note_on_c, 0, 54, 0
3, 216960, Note_on_c, 0, 66, 0
3, 216960, Note_on_c, 0, 81, 0
3, 217160, Note_on_c, 0, 50, 94
3, 217200, Control_c, 0, 64, 0
3, 217200, Note_on_c, 0, 57, 94
3, 217210, Note_on_c, 0, 62, 94
3, 217220, Note_on_c, 0, 65, 94
3, 217220, Note_on_c, 0, 69, 94
3, 217220, Note_on_c, 0, 74, 94
3, 217680, Note_on_c, 0, 57, 0
3, 217683, Note_on_c, 0, 50, 0
3, 217690, Note_on_c, 0, 62, 0
3, 218160, Note_on_c, 0, 65, 0
3, 218160, Note_on_c, 0, 69, 0
3, 218160, Note_on_c, 0, 74, 0
3, 218160, Note_on_c, 0, 67, 86
3, 218160, Note_on_c, 0, 70, 86
3, 220080, Note_on_c, 0, 70, 0
3, 220080, Note_on_c, 0, 67, 0
3, 220080, Note_on_c, 0, 67, 67
3, 220320, Note_on_c, 0, 67, 0
3, 220320, Note_on_c, 0, 65, 71
3, 220560, Note_on_c, 0, 65, 0
3, 220560, Note_on_c, 0, 64, 75
3, 220720, Note_on_c, 0, 64, 0
3, 220720, Note_on_c, 0, 65, 77
3, 220880, Note_on_c, 0, 65, 0
3, 220880, Note_on_c, 0, 62, 80
3, 220995, Note_on_c, 0, 62, 0
3, 221000, Note_on_c, 0, 57, 87
3, 221020, Note_on_c, 0, 65, 87
3, 221040, Note_on_c, 0, 77, 87
3, 221040, Note_on_c, 0, 69, 87
3, 221480, Note_on_c, 0, 57, 0
3, 221500, Note_on_c, 0, 65, 0
3, 222000, Note_on_c, 0, 77, 0
3, 222000, Note_on_c, 0, 69, 0
3, 222000, Note_on_c, 0, 69, 80
3, 222920, Note_on_c, 0, 69, 0
3, 222920, Note_on_c, 0, 66, 77
3, 222940, Note_on_c, 0, 75, 77
3, 223900, Note_on_c, 0, 75, 0
3, 223905, Note_on_c, 0, 66, 0
3, 223920, Note_on_c, 0, 74, 83
3, 223920, Note_on_c, 0, 68, 83
3, 224160, Note_on_c, 0, 68, 0
3, 224160, Note_on_c, 0, 66, 85
3, 224400, Note_on_c, 0, 66, 0
3, 224400, Note_on_c, 0, 68, 86
3, 224640, Note_on_c, 0, 68, 0
3, 224640, Note_on_c, 0, 71, 88
3, 224880, Note_on_c, 0, 71, 0
3, 224880, Note_on_c, 0, 74, 0
3, 224880, Note_on_c, 0, 64, 90
3, 224880, Note_on_c, 0, 74, 90
3, 225120, Note_on_c, 0, 74, 0
3, 225120, Note_on_c, 0, 73, 86
3, 225360, Note_on_c, 0, 73, 0
3, 225360, Note_on_c, 0, 74, 83
3, 225520, Note_on_c, 0, 74, 0
3, 225520, Note_on_c, 0, 76, 82
3, 225680, Note_on_c, 0, 76, 0
3, 225680, Note_on_c, 0, 70, 80
3, 225840, Note_on_c, 0, 70, 0
3, 225840, Note_on_c, 0, 64, 0
3, 225840, Control_c, 0, 64, 0
3, 225860, Note_on_c, 0, 74, 94
3, 225860, Note_on_c, 0, 69, 94
3, 226800, Note_on_c, 0, 69, 0
3, 226800, Note_on_c, 0, 74, 0
3, 226800, Note_on_c, 0, 70, 86
3, 226800, Note_on_c, 0, 67, 86
3, 228720, Note_on_c, 0, 67, 0
3, 228720, Note_on_c, 0, 70, 0
3, 228720, Note_on_c, 0, 67, 67
3, 228960, Note_on_c, 0, 67, 0
3, 228960, Note_on_c, 0, 65, 71
3, 229200, Note_on_c, 0, 65, 0
3, 229200, Note_on_c, 0, 64, 75
3, 229360, Note_on_c, 0, 64, 0
3, 229360, Note_on_c, 0, 65, 77
3, 229520, Note_on_c, 0, 65, 0
3, 229520, Note_on_c, 0, 62, 80
3, 229635, Note_on_c, 0, 62, 0
3, 229640, Note_on_c, 0, 57, 87
3, 229660, Note_on_c, 0, 65, 87
3, 229680, Note_on_c, 0, 69, 87
3, 229680, Note_on_c, 0, 77, 87
3, 230120, Note_on_c, 0, 57, 0
3, 230140, Note_on_c, 0, 65, 0
3, 230640, Note_on_c, 0, 69, 0
3, 230640, Note_on_c, 0, 77, 0
3, 230640, Note_on_c, 0, 69, 80
3, 231560, Note_on_c, 0, 69, 0
3, 231560, Note_on_c, 0, 66, 77
3, 231580, Note_on_c, 0, 75, 77
3, 232540, Note_on_c, 0, 75, 0
3, 232545, Note_on_c, 0, 66, 0
3, 232560, Note_on_c, 0, 68, 83
3, 232560, Note_on_c, 0, 74, 83
3, 232800, Note_on_c, 0, 68, 0
3, 232800, Note_on_c, 0, 66, 85
3, 233040, Note_on_c, 0, 66, 0
3, 233040, Note_on_c, 0, 68, 86
3, 233280, Note_on_c, 0, 68, 0
3, 233280, Note_on_c, 0, 71, 88
3, 233520, Note_on_c, 0, 71, 0
3, 233520, Note_on_c, 0, 74, 0
3, 233520, Note_on_c, 0, 74, 90
3, 233520, Note_on_c, 0, 64, 90
3, 233760, Note_on_c, 0, 74, 0
3, 233760, Note_on_c, 0, 73, 86
3, 234000, Note_on_c, 0, 73, 0
3, 234000, Note_on_c, 0, 74, 83
3, 234160, Note_on_c, 0, 74, 0
3, 234160, Note_on_c, 0, 76, 82
3, 234320, Note_on_c, 0, 76, 0
3, 234320, Note_on_c, 0, 70, 80
3, 234480, Note_on_c, 0, 70, 0
3, 234480, Note_on_c, 0, 64, 0
3, 234480, Control_c, 0, 64, 0
3, 234480, Note_on_c, 0, 74, 84
3, 234480, Note_on_c, 0, 69, 84
3, 235440, Note_on_c, 0, 69, 0
3, 235440, Note_on_c, 0, 74, 0
3, 235440, Control_c, 0, 64, 0
3, 235440, Note_on_c, 0, 67, 89
3, 235440, Note_on_c, 0, 70, 89
3, 236400, Note_on_c, 0, 70, 0
3, 236400, Note_on_c, 0, 67, 0
3, 236400, Note_on_c, 0, 64, 95
3, 236400, Note_on_c, 0, 67, 95
3, 237120, Note_on_c, 0, 67, 0
3, 237120, Note_on_c, 0, 64, 0
3, 237120, Note_on_c, 0, 64, 87
3, 237360, Note_on_c, 0, 64, 0
3, 237360, Note_on_c, 0, 60, 86
3, 237600, Note_on_c, 0, 60, 0
3, 237600, Note_on_c, 0, 61, 89
3, 237840, Note_on_c, 0, 61, 0
3, 237840, Note_on_c, 0, 62, 92
3, 238080, Note_on_c, 0, 62, 0
3, 238080, Note_on_c, 0, 63, 95
3, 238320, Note_on_c, 0, 63, 0
3, 238320, Note_on_c, 0, 63, 100
3, 238340, Note_on_c, 0, 72, 100
3, 239280, Note_on_c, 0, 72, 0
3, 239280, Note_on_c, 0, 63, 0
3, 239280, Note_on_c, 0, 66, 90
3, 239280, Note_on_c, 0, 69, 90
3, 240240, Note_on_c, 0, 69, 0
3, 240240, Note_on_c, 0, 66, 0
3, 240240, Note_on_c, 0, 67, 83
3, 240240, Note_on_c, 0, 62, 83
3, 240480, Note_on_c, 0, 62, 0
3, 240480, Note_on_c, 0, 67, 0
3, 240480, Note_on_c, 0, 64, 87
3, 240480, Note_on_c, 0, 67, 87
3, 240960, Note_on_c, 0, 67, 0
3, 240960, Note_on_c, 0, 64, 0
3, 240960, Note_on_c, 0, 67, 80
3, 240960, Note_on_c, 0, 64, 80
3, 241200, Note_on_c, 0, 64, 0
3, 241200, Note_on_c, 0, 67, 0
3, 241200, Note_on_c, 0, 72, 82
3, 241200, Note_on_c, 0, 65, 82
3, 241440, Note_on_c, 0, 65, 0
3, 241440, Note_on_c, 0, 72, 0
3, 241440, Note_on_c, 0, 67, 86
3, 241440, Note_on_c, 0, 64, 86
3, 241920, Note_on_c, 0, 64, 0
3, 241920, Note_on_c, 0, 67, 0
3, 241920, Note_on_c, 0, 68, 72
3, 241920, Note_on_c, 0, 65, 72
3, 242160, Note_on_c, 0, 65, 0
3, 242160, Note_on_c, 0, 68, 0
3, 242160, Note_on_c, 0, 57, 69
3, 242160, Note_on_c, 0, 65, 69
3, 242160, Note_on_c, 0, 62, 69
3, 242640, Note_on_c, 0, 62, 0
3, 242640, Note_on_c, 0, 65, 0
3, 242640, Note_on_c, 0, 57, 0
3, 242640, Note_on_c, 0, 61, 63
3, 242640, Note_on_c, 0, 57, 63
3, 242880, Note_on_c, 0, 57, 0
3, 242880, Note_on_c, 0, 55, 59
3, 243120, Note_on_c, 0, 55, 0
3, 243120, Note_on_c, 0, 61, 0
3, 243120, Control_c, 0, 64, 0
3, 249600, Note_on_c, 0, 66, 50
3, 249610, Note_on_c, 0, 69, 50
3, 249680, Note_on_c, 0, 66, 0
3, 249680, Note_on_c, 0, 76, 50
3, 249690, Note_on_c, 0, 69, 0
3, 249760, Note_on_c, 0, 76, 0
3, 249760, Note_on_c, 0, 74, 51
3, 249840, Note_on_c, 0, 74, 0
3, 249840, Note_on_c, 0, 73, 51
3, 249920, Note_on_c, 0, 73, 0
3, 249920, Note_on_c, 0, 71, 52
3, 250000, Note_on_c, 0, 71, 0
3, 250000, Note_on_c, 0, 69, 52
3, 250080, Note_on_c, 0, 69, 0
3, 250080, Note_on_c, 0, 74, 53
3, 250160, Note_on_c, 0, 74, 0
3, 250160, Note_on_c, 0, 69, 53
3, 250240, Note_on_c, 0, 69, 0
3, 250240, Note_on_c, 0, 72, 54
3, 250320, Note_on_c, 0, 72, 0
3, 250320, Note_on_c, 0, 67, 54
3, 250330, Note_on_c, 0, 71, 54
3, 250400, Note_on_c, 0, 67, 0
3, 250400, Note_on_c, 0, 78, 55
3, 250410, Note_on_c, 0, 71, 0
3, 250480, Note_on_c, 0, 78, 0
3, 250480, Note_on_c, 0, 76, 55
3, 250560, Note_on_c, 0, 76, 0
3, 250560, Note_on_c, 0, 74, 56
3, 250640, Note_on_c, 0, 74, 0
3, 250640, Note_on_c, 0, 73, 56
3, 250720, Note_on_c, 0, 73, 0
3, 250720, Note_on_c, 0, 71, 57
3, 250800, Note_on_c, 0, 71, 0
3, 250800, Note_on_c, 0, 79, 57
3, 250880, Note_on_c, 0, 79, 0
3, 250880, Note_on_c, 0, 71, 58
3, 250960, Note_on_c, 0, 71, 0
3, 250960, Note_on_c, 0, 78, 58
3, 251040, Note_on_c, 0, 78, 0
3, 251040, Note_on_c, 0, 83, 61
3, 251040, Note_on_c, 0, 76, 61
3, 251050, Note_on_c, 0, 86, 62
3, 251120, Note_on_c, 0, 76, 0
3, 251120, Note_on_c, 0, 67, 61
3, 251200, Note_on_c, 0, 67, 0
3, 251200, Note_on_c, 0, 69, 60
3, 251280, Note_on_c, 0, 69, 0
3, 251280, Note_on_c, 0, 71, 60
3, 251360, Note_on_c, 0, 71, 0
3, 251360, Note_on_c, 0, 76, 59
3, 251440, Note_on_c, 0, 76, 0
3, 251440, Note_on_c, 0, 78, 59
3, 251512, Note_on_c, 0, 86, 0
3, 251520, Note_on_c, 0, 78, 0
3, 251520, Note_on_c, 0, 83, 0
3, 251520, Note_on_c, 0, 79, 59
3, 251600, Note_on_c, 0, 79, 0
3, 251600, Note_on_c, 0, 83, 58
3, 251680, Note_on_c, 0, 83, 0
3, 251680, Note_on_c, 0, 81, 58
3, 251760, Note_on_c, 0, 81, 0
3, 251760, Note_on_c, 0, 79, 57
3, 251840, Note_on_c, 0, 79, 0
3, 251840, Note_on_c, 0, 83, 57
3, 251920, Note_on_c, 0, 83, 0
3, 251920, Note_on_c, 0, 78, 56
3, 252000, Note_on_c, 0, 78, 0
3, 252000, Note_on_c, 0, 81, 56
3, 252080, Note_on_c, 0, 81, 0
3, 252080, Note_on_c, 0, 76, 55
3, 252160, Note_on_c, 0, 76, 0
3, 252160, Note_on_c, 0, 79, 55
3, 252240, Note_on_c, 0, 79, 0
3, 252240, Note_on_c, 0, 74, 54
3, 252320, Note_on_c, 0, 74, 0
3, 252320, Note_on_c, 0, 78, 54
3, 252400, Note_on_c, 0, 78, 0
3, 252400, Note_on_c, 0, 73, 53
3, 252480, Note_on_c, 0, 73, 0
3, 252480, Note_on_c, 0, 69, 53
3, 252560, Note_on_c, 0, 69, 0
3, 252560, Note_on_c, 0, 74, 52
3, 252640, Note_on_c, 0, 74, 0
3, 252640, Note_on_c, 0, 73, 52
3, 252720, Note_on_c, 0, 73, 0
3, 252720, Note_on_c, 0, 71, 51
3, 252800, Note_on_c, 0, 71, 0
3, 252800, Note_on_c, 0, 69, 51
3, 252880, Note_on_c, 0, 69, 0
3, 252880, Note_on_c, 0, 67, 51
3, 252960, Note_on_c, 0, 67, 0
3, 252960, Note_on_c, 0, 76, 50
3, 253040, Note_on_c, 0, 76, 0
3, 253040, Note_on_c, 0, 67, 51
3, 253120, Note_on_c, 0, 67, 0
3, 253120, Note_on_c, 0, 74, 52
3, 253200, Note_on_c, 0, 74, 0
3, 253200, Note_on_c, 0, 73, 54
3, 253280, Note_on_c, 0, 73, 0
3, 253280, Note_on_c, 0, 79, 55
3, 253360, Note_on_c, 0, 79, 0
3, 253360, Note_on_c, 0, 78, 56
3, 253440, Note_on_c, 0, 78, 0
3, 253440, Note_on_c, 0, 76, 57
3, 253520, Note_on_c, 0, 76, 0
3, 253520, Note_on_c, 0, 74, 58
3, 253600, Note_on_c, 0, 74, 0
3, 253600, Note_on_c, 0, 73, 59
3, 253680, Note_on_c, 0, 73, 0
3, 253680, Note_on_c, 0, 83, 60
3, 253760, Note_on_c, 0, 83, 0
3, 253760, Note_on_c, 0, 74, 61
3, 253840, Note_on_c, 0, 74, 0
3, 253840, Note_on_c, 0, 81, 62
3, 253920, Note_on_c, 0, 81, 0
3, 253920, Note_on_c, 0, 81, 65
3, 254000, Note_on_c, 0, 81, 0
3, 254000, Note_on_c, 0, 77, 65
3, 254080, Note_on_c, 0, 77, 0
3, 254080, Note_on_c, 0, 74, 64
3, 254160, Note_on_c, 0, 74, 0
3, 254160, Note_on_c, 0, 69, 63
3, 254240, Note_on_c, 0, 69, 0
3, 254240, Note_on_c, 0, 73, 63
3, 254320, Note_on_c, 0, 73, 0
3, 254320, Note_on_c, 0, 76, 62
3, 254400, Note_on_c, 0, 76, 0
3, 254400, Note_on_c, 0, 81, 62
3, 254480, Note_on_c, 0, 81, 0
3, 254480, Note_on_c, 0, 69, 61
3, 254560, Note_on_c, 0, 69, 0
3, 254560, Note_on_c, 0, 81, 61
3, 254640, Note_on_c, 0, 81, 0
3, 254640, Note_on_c, 0, 81, 60
3, 254720, Note_on_c, 0, 81, 0
3, 254720, Note_on_c, 0, 74, 59
3, 254800, Note_on_c, 0, 74, 0
3, 254800, Note_on_c, 0, 69, 59
3, 254880, Note_on_c, 0, 69, 0
3, 254960, Note_on_c, 0, 67, 58
3, 255040, Note_on_c, 0, 67, 0
3, 255040, Note_on_c, 0, 74, 57
3, 255120, Note_on_c, 0, 74, 0
3, 255120, Note_on_c, 0, 79, 57
3, 255200, Note_on_c, 0, 79, 0
3, 255200, Note_on_c, 0, 67, 56
3, 255280, Note_on_c, 0, 67, 0
3, 255280, Note_on_c, 0, 79, 55
3, 255360, Note_on_c, 0, 79, 0
3, 255360, Note_on_c, 0, 79, 55
3, 255440, Note_on_c, 0, 79, 0
3, 255440, Note_on_c, 0, 76, 54
3, 255520, Note_on_c, 0, 76, 0
3, 255520, Note_on_c, 0, 73, 54
3, 255600, Note_on_c, 0, 73, 0
3, 255600, Note_on_c, 0, 67, 53
3, 255680, Note_on_c, 0, 67, 0
3, 255680, Note_on_c, 0, 64, 53
3, 255760, Note_on_c, 0, 64, 0
3, 255760, Note_on_c, 0, 61, 52
3, 255840, Note_on_c, 0, 61, 0
3, 255840, Note_on_c, 0, 64, 51
3, 255920, Note_on_c, 0, 64, 0
3, 255920, Note_on_c, 0, 61, 51
3, 256000, Note_on_c, 0, 61, 0
3, 256000, Note_on_c, 0, 55, 50
3, 256080, Note_on_c, 0, 55, 0
3, 256080, Note_on_c, 0, 53, 50
3, 256080, Note_on_c, 0, 50, 50
3, 256320, Note_on_c, 0, 50, 0
3, 256320, Note_on_c, 0, 53, 0
3, 256320, Note_on_c, 0, 55, 51
3, 256320, Note_on_c, 0, 52, 51
3, 256560, Note_on_c, 0, 52, 0
3, 256560, Note_on_c, 0, 55, 0
3, 256560, Note_on_c, 0, 57, 51
3, 256560, Note_on_c, 0, 53, 51
3, 256800, Note_on_c, 0, 53, 0
3, 256800, Note_on_c, 0, 57, 0
3, 256920, Note_on_c, 0, 58, 53
3, 256920, Note_on_c, 0, 55, 53
3, 257040, Note_on_c, 0, 55, 0
3, 257040, Note_on_c, 0, 58, 0
3, 257040, Note_on_c, 0, 60, 53
3, 257040, Note_on_c, 0, 57, 53
3, 257160, Note_on_c, 0, 57, 0
3, 257160, Note_on_c, 0, 60, 0
3, 257160, Note_on_c, 0, 62, 54
3, 257160, Note_on_c, 0, 58, 54
3, 257280, Note_on_c, 0, 58, 0
3, 257280, Note_on_c, 0, 62, 0
3, 257280, Note_on_c, 0, 60, 54
3, 257280, Note_on_c, 0, 57, 54
3, 257400, Note_on_c, 0, 57, 0
3, 257400, Note_on_c, 0, 60, 0
3, 257400, Note_on_c, 0, 58, 55
3, 257400, Note_on_c, 0, 55, 55
3, 257520, Note_on_c, 0, 55, 0
3, 257520, Note_on_c, 0, 58, 0
3, 257520, Note_on_c, 0, 53, 55
3, 257520, Note_on_c, 0, 57, 55
3, 257760, Note_on_c, 0, 57, 0
3, 257760, Note_on_c, 0, 53, 0
3, 257760, Note_on_c, 0, 55, 56
3, 257760, Note_on_c, 0, 58, 56
3, 258000, Note_on_c, 0, 58, 0
3, 258000, Note_on_c, 0, 55, 0
3, 258000, Note_on_c, 0, 60, 57
3, 258000, Note_on_c, 0, 57, 57
3, 258240, Note_on_c, 0, 57, 0
3, 258240, Note_on_c, 0, 60, 0
3, 258240, Note_on_c, 0, 57, 58
3, 258360, Note_on_c, 0, 64, 59
3, 258480, Note_on_c, 0, 64, 0
3, 258480, Note_on_c, 0, 66, 59
3, 258600, Note_on_c, 0, 66, 0
3, 258600, Note_on_c, 0, 67, 59
3, 258720, Note_on_c, 0, 67, 0
3, 258720, Note_on_c, 0, 66, 60
3, 258840, Note_on_c, 0, 66, 0
3, 258840, Note_on_c, 0, 64, 60
3, 258960, Note_on_c, 0, 64, 0
3, 258960, Note_on_c, 0, 57, 0
3, 258960, Note_on_c, 0, 66, 61
3, 258960, Note_on_c, 0, 62, 61
3, 259190, Note_on_c, 0, 66, 0
3, 259195, Note_on_c, 0, 62, 0
3, 259200, Note_on_c, 0, 66, 62
3, 259200, Note_on_c, 0, 62, 62
3, 259320, Note_on_c, 0, 62, 0
3, 259320, Note_on_c, 0, 66, 0
3, 259320, Note_on_c, 0, 67, 62
3, 259320, Note_on_c, 0, 64, 62
3, 259440, Note_on_c, 0, 64, 0
3, 259440, Note_on_c, 0, 67, 0
3, 259440, Note_on_c, 0, 69, 63
3, 259440, Note_on_c, 0, 66, 63
3, 259800, Note_on_c, 0, 66, 0
3, 259800, Note_on_c, 0, 67, 64
3, 259800, Note_on_c, 0, 71, 64
3, 259805, Note_on_c, 0, 69, 0
3, 259920, Note_on_c, 0, 71, 0
3, 259920, Note_on_c, 0, 67, 0
3, 259920, Note_on_c, 0, 72, 65
3, 259920, Note_on_c, 0, 69, 65
3, 260270, Note_on_c, 0, 69, 0
3, 260275, Note_on_c, 0, 72, 0
3, 260280, Note_on_c, 0, 73, 66
3, 260280, Note_on_c, 0, 70, 66
3, 260400, Note_on_c, 0, 70, 0
3, 260400, Note_on_c, 0, 73, 0
3, 260400, Note_on_c, 0, 74, 67
3, 260400, Note_on_c, 0, 71, 67
3, 260755, Note_on_c, 0, 71, 0
3, 260760, Note_on_c, 0, 74, 0
3, 260760, Note_on_c, 0, 71, 68
3, 260880, Note_on_c, 0, 71, 0
3, 260880, Note_on_c, 0, 69, 68
3, 261000, Note_on_c, 0, 69, 0
3, 261000, Note_on_c, 0, 67, 69
3, 261120, Note_on_c, 0, 67, 0
3, 261120, Note_on_c, 0, 70, 69
3, 261240, Note_on_c, 0, 70, 0
3, 261240, Note_on_c, 0, 67, 67
3, 261360, Note_on_c, 0, 67, 0
3, 261360, Note_on_c, 0, 64, 66
3, 261480, Note_on_c, 0, 64, 0
3, 261480, Note_on_c, 0, 61, 64
3, 261600, Note_on_c, 0, 61, 0
3, 261600, Note_on_c, 0, 58, 63
3, 261720, Note_on_c, 0, 58, 0
3, 261720, Note_on_c, 0, 61, 61
3, 261840, Note_on_c, 0, 61, 0
3, 261840, Note_on_c, 0, 62, 60
3, 262315, Note_on_c, 0, 62, 0
3, 262560, Note_on_c, 0, 65, 54
3, 262570, Note_on_c, 0, 69, 54
3, 262640, Note_on_c, 0, 65, 0
3, 262640, Note_on_c, 0, 76, 54
3, 262650, Note_on_c, 0, 69, 0
3, 262720, Note_on_c, 0, 76, 0
3, 262720, Note_on_c, 0, 74, 54
3, 262800, Note_on_c, 0, 74, 0
3, 262800, Note_on_c, 0, 73, 54
3, 262880, Note_on_c, 0, 73, 0
3, 262880, Note_on_c, 0, 74, 55
3, 262960, Note_on_c, 0, 74, 0
3, 262960, Note_on_c, 0, 69, 55
3, 263040, Note_on_c, 0, 69, 0
3, 263040, Note_on_c, 0, 70, 55
3, 263040, Note_on_c, 0, 73, 55
3, 263120, Note_on_c, 0, 73, 0
3, 263120, Note_on_c, 0, 70, 0
3, 263120, Note_on_c, 0, 67, 55
3, 263200, Note_on_c, 0, 67, 0
3, 263200, Note_on_c, 0, 69, 56
3, 263200, Note_on_c, 0, 74, 56
3, 263280, Note_on_c, 0, 74, 0
3, 263280, Note_on_c, 0, 69, 0
3, 263280, Note_on_c, 0, 67, 59
3, 263290, Note_on_c, 0, 72, 59
3, 263360, Note_on_c, 0, 67, 0
3, 263360, Note_on_c, 0, 81, 56
3, 263370, Note_on_c, 0, 72, 0
3, 263440, Note_on_c, 0, 81, 0
3, 263440, Note_on_c, 0, 79, 56
3, 263520, Note_on_c, 0, 79, 0
3, 263520, Note_on_c, 0, 78, 57
3, 263600, Note_on_c, 0, 78, 0
3, 263600, Note_on_c, 0, 79, 57
3, 263680, Note_on_c, 0, 79, 0
3, 263680, Note_on_c, 0, 72, 57
3, 263760, Note_on_c, 0, 72, 0
3, 263760, Note_on_c, 0, 67, 57
3, 263840, Note_on_c, 0, 67, 0
3, 263840, Note_on_c, 0, 72, 58
3, 263920, Note_on_c, 0, 72, 0
3, 263920, Note_on_c, 0, 82, 58
3, 264000, Note_on_c, 0, 82, 0
3, 264000, Note_on_c, 0, 69, 58
3, 264010, Note_on_c, 0, 72, 58
3, 264080, Note_on_c, 0, 69, 0
3, 264080, Note_on_c, 0, 79, 59
3, 264090, Note_on_c, 0, 72, 0
3, 264160, Note_on_c, 0, 79, 0
3, 264160, Note_on_c, 0, 77, 59
3, 264240, Note_on_c, 0, 77, 0
3, 264240, Note_on_c, 0, 76, 59
3, 264320, Note_on_c, 0, 76, 0
3, 264320, Note_on_c, 0, 77, 59
3, 264400, Note_on_c, 0, 77, 0
3, 264400, Note_on_c, 0, 72, 60
3, 264480, Note_on_c, 0, 72, 0
3, 264480, Note_on_c, 0, 81, 60
3, 264560, Note_on_c, 0, 81, 0
3, 264560, Note_on_c, 0, 72, 60
3, 264640, Note_on_c, 0, 72, 0
3, 264640, Note_on_c, 0, 80, 60
3, 264640, Note_on_c, 0, 74, 60
3, 264720, Note_on_c, 0, 74, 0
3, 264720, Note_on_c, 0, 80, 0
3, 264720, Note_on_c, 0, 72, 61
3, 264800, Note_on_c, 0, 72, 0
3, 264800, Note_on_c, 0, 80, 61
3, 264880, Note_on_c, 0, 80, 0
3, 264880, Note_on_c, 0, 79, 61
3, 264960, Note_on_c, 0, 79, 0
3, 264960, Note_on_c, 0, 78, 61
3, 265040, Note_on_c, 0, 78, 0
3, 265040, Note_on_c, 0, 79, 62
3, 265120, Note_on_c, 0, 79, 0
3, 265120, Note_on_c, 0, 72, 62
3, 265200, Note_on_c, 0, 72, 0
3, 265200, Note_on_c, 0, 81, 62
3, 265280, Note_on_c, 0, 81, 0
3, 265280, Note_on_c, 0, 78, 62
3, 265360, Note_on_c, 0, 78, 0
3, 265360, Note_on_c, 0, 79, 63
3, 265440, Note_on_c, 0, 79, 0
3, 265440, Note_on_c, 0, 79, 63
3, 265440, Note_on_c, 0, 72, 63
3, 265520, Note_on_c, 0, 72, 0
3, 265520, Note_on_c, 0, 79, 0
3, 265520, Note_on_c, 0, 78, 63
3, 265600, Note_on_c, 0, 78, 0
3, 265600, Note_on_c, 0, 76, 64
3, 265680, Note_on_c, 0, 76, 0
3, 265680, Note_on_c, 0, 78, 64
3, 265760, Note_on_c, 0, 78, 0
3, 265760, Note_on_c, 0, 72, 64
3, 265840, Note_on_c, 0, 72, 0
3, 265920, Note_on_c, 0, 81, 65
3, 266000, Note_on_c, 0, 81, 0
3, 266000, Note_on_c, 0, 72, 65
3, 266080, Note_on_c, 0, 72, 0
3, 266080, Note_on_c, 0, 78, 65
3, 266160, Note_on_c, 0, 78, 0
3, 266160, Note_on_c, 0, 81, 65
3, 266160, Note_on_c, 0, 71, 65
3, 266240, Note_on_c, 0, 71, 0
3, 266240, Note_on_c, 0, 81, 0
3, 266240, Note_on_c, 0, 79, 66
3, 266320, Note_on_c, 0, 79, 0
3, 266320, Note_on_c, 0, 78, 66
3, 266400, Note_on_c, 0, 78, 0
3, 266400, Note_on_c, 0, 79, 66
3, 266480, Note_on_c, 0, 79, 0
3, 266480, Note_on_c, 0, 71, 66
3, 266560, Note_on_c, 0, 71, 0
3, 266560, Note_on_c, 0, 83, 67
3, 266640, Note_on_c, 0, 83, 0
3, 266640, Note_on_c, 0, 88, 67
3, 266720, Note_on_c, 0, 88, 0
3, 266720, Note_on_c, 0, 79, 67
3, 266800, Note_on_c, 0, 79, 0
3, 266800, Note_on_c, 0, 86, 67
3, 266880, Note_on_c, 0, 86, 0
3, 266880, Note_on_c, 0, 85, 68
3, 266960, Note_on_c, 0, 85, 0
3, 266960, Note_on_c, 0, 79, 68
3, 267040, Note_on_c, 0, 79, 0
3, 267040, Note_on_c, 0, 76, 68
3, 267120, Note_on_c, 0, 76, 0
3, 267120, Note_on_c, 0, 73, 68
3, 267200, Note_on_c, 0, 73, 0
3, 267200, Note_on_c, 0, 76, 69
3, 267280, Note_on_c, 0, 76, 0
3, 267280, Note_on_c, 0, 82, 69
3, 267440, Note_on_c, 0, 82, 0
3, 267440, Note_on_c, 0, 79, 70
3, 267520, Note_on_c, 0, 79, 0
3, 267520, Note_on_c, 0, 82, 70
3, 267600, Note_on_c, 0, 82, 0
3, 267600, Note_on_c, 0, 79, 71
3, 267600, Note_on_c, 0, 82, 71
3, 267680, Note_on_c, 0, 82, 0
3, 267680, Note_on_c, 0, 79, 0
3, 267680, Note_on_c, 0, 76, 70
3, 267760, Note_on_c, 0, 76, 0
3, 267760, Note_on_c, 0, 73, 69
3, 267840, Note_on_c, 0, 73, 0
3, 267840, Note_on_c, 0, 70, 68
3, 267920, Note_on_c, 0, 70, 0
3, 267920, Note_on_c, 0, 73, 67
3, 268000, Note_on_c, 0, 73, 0
3, 268000, Note_on_c, 0, 76, 66
3, 268155, Note_on_c, 0, 76, 0
3, 268160, Note_on_c, 0, 73, 64
3, 268240, Note_on_c, 0, 73, 0
3, 268240, Note_on_c, 0, 70, 63
3, 268320, Note_on_c, 0, 70, 0
3, 268320, Note_on_c, 0, 74, 62
3, 268320, Note_on_c, 0, 69, 62
3, 268435, Note_on_c, 0, 69, 0
3, 268435, Note_on_c, 0, 74, 0
3, 268440, Note_on_c, 0, 66, 60
3, 268560, Note_on_c, 0, 66, 0
3, 268560, Note_on_c, 0, 69, 60
3, 268760, Note_on_c, 0, 64, 56
3, 268800, Note_on_c, 0, 64, 0
3, 268920, Note_on_c, 0, 66, 54
3, 268925, Note_on_c, 0, 69, 0
3, 269040, Note_on_c, 0, 66, 0
3, 269040, Note_on_c, 0, 66, 52
3, 269520, Note_on_c, 0, 66, 0
3, 274880, Note_on_c, 0, 57, 54
3, 274960, Note_on_c, 0, 57, 0
3, 274960, Note_on_c, 0, 62, 54
3, 275040, Note_on_c, 0, 62, 0
3, 275120, Note_on_c, 0, 57, 53
3, 275200, Note_on_c, 0, 57, 0
3, 275200, Note_on_c, 0, 62, 53
3, 275280, Note_on_c, 0, 62, 0
3, 275360, Note_on_c, 0, 57, 52
3, 275440, Note_on_c, 0, 57, 0
3, 275440, Note_on_c, 0, 62, 52
3, 275520, Note_on_c, 0, 62, 0
3, 275600, Note_on_c, 0, 57, 52
3, 275680, Note_on_c, 0, 57, 0
3, 275680, Note_on_c, 0, 62, 52
3, 275760, Note_on_c, 0, 62, 0
3, 275840, Note_on_c, 0, 57, 53
3, 275920, Note_on_c, 0, 57, 0
3, 275920, Note_on_c, 0, 62, 53
3, 276000, Note_on_c, 0, 62, 0
3, 276000, Note_on_c, 0, 66, 53
3, 276240, Note_on_c, 0, 66, 0
3, 276240, Note_on_c, 0, 69, 54
3, 276720, Note_on_c, 0, 69, 0
3, 276720, Note_on_c, 0, 71, 55
3, 276960, Note_on_c, 0, 71, 0
3, 276960, Note_on_c, 0, 73, 56
3, 277440, Note_on_c, 0, 73, 0
3, 277440, Note_on_c, 0, 71, 57
3, 277680, Note_on_c, 0, 71, 0
3, 277680, Note_on_c, 0, 81, 58
3, 278160, Note_on_c, 0, 81, 0
3, 278160, Note_on_c, 0, 80, 59
3, 278400, Note_on_c, 0, 80, 0
3, 278400, Note_on_c, 0, 81, 60
3, 278880, Note_on_c, 0, 81, 0
3, 278880, Note_on_c, 0, 79, 62
3, 279120, Note_on_c, 0, 79, 0
3, 279120, Note_on_c, 0, 78, 62
3, 279360, Note_on_c, 0, 78, 0
3, 279360, Note_on_c, 0, 77, 63
3, 279600, Note_on_c, 0, 77, 0
3, 279600, Note_on_c, 0, 76, 64
3, 279840, Note_on_c, 0, 76, 0
3, 279840, Note_on_c, 0, 75, 64
3, 280320, Note_on_c, 0, 75, 0
3, 280320, Note_on_c, 0, 74, 66
3, 280560, Note_on_c, 0, 74, 0
3, 280560, Note_on_c, 0, 74, 64
3, 281040, Note_on_c, 0, 74, 0
3, 281040, Note_on_c, 0, 79, 60
3, 281280, Note_on_c, 0, 79, 0
3, 281280, Note_on_c, 0, 74, 60
3, 281760, Note_on_c, 0, 74, 0
3, 281760, Note_on_c, 0, 79, 55
3, 282000, Note_on_c, 0, 79, 0
3, 282000, Note_on_c, 0, 74, 53
3, 282420, Control_c, 0, 64, 0
3, 282480, Note_on_c, 0, 74, 0
3, 282480, Note_on_c, 0, 79, 50
3, 282720, Note_on_c, 0, 79, 0
3, 282720, Note_on_c, 0, 74, 55
3, 283200, Note_on_c, 0, 74, 0
3, 283200, Note_on_c, 0, 74, 51
3, 283680, Note_on_c, 0, 74, 0
3, 283680, Note_on_c, 0, 74, 47
3, 284160, Note_on_c, 0, 74, 0
3, 284160, Note_on_c, 0, 74, 42
3, 284640, Note_on_c, 0, 74, 0
3, 307200, Control_c, 0, 64, 0
3, 307200, End_track
4, 0, Start_track
4, 0, Title_t, "Unnamed Track"
4, 0, Control_c, 0, 0, 0
4, 0, Control_c, 0, 7, 115
4, 0, Control_c, 0, 10, 64
4, 0, Control_c, 0, 91, 100
4, 0, Control_c, 0, 93, 28
4, 0, Control_c, 0, 64, 0
4, 0, Control_c, 0, 64, 0
4, 0, Control_c, 0, 1, 0
4, 0, Pitch_bend_c, 0, 8192
4, 0, Control_c, 0, 64, 0
4, 0, Control_c, 0, 64, 0
4, 1, Control_c, 0, 32, 0
4, 1, Program_c, 0, 0
4, 240, Control_c, 0, 64, 0
4, 720, Control_c, 0, 64, 0
4, 7200, Control_c, 0, 64, 0
4, 13680, Control_c, 0, 64, 0
4, 20160, Control_c, 0, 64, 0
4, 20280, Note_on_c, 0, 45, 33
4, 20400, Note_on_c, 0, 45, 0
4, 20400, Note_on_c, 0, 38, 34
4, 20520, Note_on_c, 0, 38, 0
4, 20520, Note_on_c, 0, 45, 34
4, 20640, Note_on_c, 0, 45, 0
4, 21000, Note_on_c, 0, 47, 35
4, 21120, Note_on_c, 0, 47, 0
4, 21120, Note_on_c, 0, 43, 35
4, 21240, Note_on_c, 0, 43, 0
4, 21240, Note_on_c, 0, 50, 35
4, 21360, Note_on_c, 0, 50, 0
4, 21720, Note_on_c, 0, 47, 36
4, 21840, Note_on_c, 0, 47, 0
4, 21840, Note_on_c, 0, 40, 36
4, 21960, Note_on_c, 0, 40, 0
4, 21960, Note_on_c, 0, 50, 36
4, 22080, Note_on_c, 0, 50, 0
4, 22440, Note_on_c, 0, 50, 37
4, 22560, Note_on_c, 0, 50, 0
4, 22560, Note_on_c, 0, 40, 38
4, 22680, Note_on_c, 0, 40, 0
4, 22680, Note_on_c, 0, 55, 38
4, 22800, Note_on_c, 0, 55, 0
4, 23160, Note_on_c, 0, 69, 39
4, 23160, Note_on_c, 0, 52, 39
4, 23280, Note_on_c, 0, 52, 0
4, 23280, Note_on_c, 0, 69, 0
4, 23280, Note_on_c, 0, 81, 39
4, 23280, Note_on_c, 0, 45, 39
4, 23400, Note_on_c, 0, 45, 0
4, 23400, Note_on_c, 0, 81, 0
4, 23400, Note_on_c, 0, 76, 39
4, 23400, Note_on_c, 0, 57, 39
4, 23520, Note_on_c, 0, 57, 0
4, 23520, Note_on_c, 0, 76, 0
4, 23880, Note_on_c, 0, 69, 40
4, 23880, Note_on_c, 0, 54, 40
4, 24000, Note_on_c, 0, 54, 0
4, 24000, Note_on_c, 0, 69, 0
4, 24000, Note_on_c, 0, 81, 40
4, 24000, Note_on_c, 0, 45, 40
4, 24120, Note_on_c, 0, 45, 0
4, 24120, Note_on_c, 0, 81, 0
4, 24120, Note_on_c, 0, 74, 40
4, 24120, Note_on_c, 0, 57, 40
4, 24240, Note_on_c, 0, 57, 0
4, 24240, Note_on_c, 0, 74, 0
4, 24600, Note_on_c, 0, 69, 42
4, 24600, Note_on_c, 0, 52, 42
4, 24720, Note_on_c, 0, 52, 0
4, 24720, Note_on_c, 0, 69, 0
4, 24720, Note_on_c, 0, 81, 42
4, 24720, Note_on_c, 0, 45, 42
4, 24840, Note_on_c, 0, 45, 0
4, 24840, Note_on_c, 0, 81, 0
4, 24840, Note_on_c, 0, 76, 41
4, 24840, Note_on_c, 0, 57, 41
4, 24960, Note_on_c, 0, 57, 0
4, 24960, Note_on_c, 0, 76, 0
4, 25320, Note_on_c, 0, 69, 39
4, 25320, Note_on_c, 0, 47, 39
4, 25440, Note_on_c, 0, 47, 0
4, 25440, Note_on_c, 0, 69, 0
4, 25440, Note_on_c, 0, 78, 39
4, 25440, Note_on_c, 0, 35, 39
4, 25560, Note_on_c, 0, 35, 0
4, 25560, Note_on_c, 0, 78, 0
4, 25560, Note_on_c, 0, 69, 38
4, 25560, Note_on_c, 0, 47, 38
4, 25680, Note_on_c, 0, 47, 0
4, 25680, Note_on_c, 0, 69, 0
4, 25800, Note_on_c, 0, 40, 37
4, 25920, Note_on_c, 0, 40, 0
4, 26040, Note_on_c, 0, 52, 36
4, 26160, Note_on_c, 0, 52, 0
4, 26160, Note_on_c, 0, 45, 36
4, 26280, Note_on_c, 0, 45, 0
4, 26640, Control_c, 0, 64, 0
4, 26760, Note_on_c, 0, 45, 33
4, 26880, Note_on_c, 0, 45, 0
4, 26880, Note_on_c, 0, 38, 34
4, 27000, Note_on_c, 0, 38, 0
4, 27000, Note_on_c, 0, 45, 34
4, 27120, Note_on_c, 0, 45, 0
4, 27480, Note_on_c, 0, 47, 35
4, 27600, Note_on_c, 0, 47, 0
4, 27600, Note_on_c, 0, 43, 35
4, 27720, Note_on_c, 0, 43, 0
4, 27720, Note_on_c, 0, 50, 35
4, 27840, Note_on_c, 0, 50, 0
4, 28200, Note_on_c, 0, 47, 36
4, 28320, Note_on_c, 0, 47, 0
4, 28320, Note_on_c, 0, 40, 36
4, 28440, Note_on_c, 0, 40, 0
4, 28440, Note_on_c, 0, 50, 36
4, 28560, Note_on_c, 0, 50, 0
4, 28920, Note_on_c, 0, 50, 37
4, 29040, Note_on_c, 0, 50, 0
4, 29040, Note_on_c, 0, 40, 38
4, 29160, Note_on_c, 0, 40, 0
4, 29160, Note_on_c, 0, 55, 38
4, 29280, Note_on_c, 0, 55, 0
4, 29640, Note_on_c, 0, 52, 39
4, 29640, Note_on_c, 0, 69, 39
4, 29760, Note_on_c, 0, 69, 0
4, 29760, Note_on_c, 0, 52, 0
4, 29760, Note_on_c, 0, 45, 39
4, 29760, Note_on_c, 0, 81, 39
4, 29880, Note_on_c, 0, 81, 0
4, 29880, Note_on_c, 0, 45, 0
4, 29880, Note_on_c, 0, 57, 39
4, 29880, Note_on_c, 0, 76, 39
4, 30000, Note_on_c, 0, 76, 0
4, 30000, Note_on_c, 0, 57, 0
4, 30360, Note_on_c, 0, 54, 40
4, 30360, Note_on_c, 0, 69, 40
4, 30480, Note_on_c, 0, 69, 0
4, 30480, Note_on_c, 0, 54, 0
4, 30480, Note_on_c, 0, 45, 40
4, 30480, Note_on_c, 0, 81, 40
4, 30600, Note_on_c, 0, 81, 0
4, 30600, Note_on_c, 0, 45, 0
4, 30600, Note_on_c, 0, 57, 40
4, 30600, Note_on_c, 0, 74, 40
4, 30720, Note_on_c, 0, 74, 0
4, 30720, Note_on_c, 0, 57, 0
4, 31080, Note_on_c, 0, 52, 42
4, 31080, Note_on_c, 0, 69, 42
4, 31200, Note_on_c, 0, 69, 0
4, 31200, Note_on_c, 0, 52, 0
4, 31200, Note_on_c, 0, 45, 42
4, 31200, Note_on_c, 0, 81, 42
4, 31320, Note_on_c, 0, 81, 0
4, 31320, Note_on_c, 0, 45, 0
4, 31320, Note_on_c, 0, 57, 41
4, 31320, Note_on_c, 0, 76, 41
4, 31440, Note_on_c, 0, 76, 0
4, 31440, Note_on_c, 0, 57, 0
4, 31800, Note_on_c, 0, 47, 39
4, 31800, Note_on_c, 0, 69, 39
4, 31920, Note_on_c, 0, 69, 0
4, 31920, Note_on_c, 0, 47, 0
4, 31920, Note_on_c, 0, 35, 39
4, 31920, Note_on_c, 0, 78, 39
4, 32040, Note_on_c, 0, 78, 0
4, 32040, Note_on_c, 0, 35, 0
4, 32040, Note_on_c, 0, 47, 38
4, 32040, Note_on_c, 0, 69, 38
4, 32160, Note_on_c, 0, 69, 0
4, 32160, Note_on_c, 0, 47, 0
4, 32280, Note_on_c, 0, 40, 37
4, 32400, Note_on_c, 0, 40, 0
4, 32520, Note_on_c, 0, 52, 36
4, 32640, Note_on_c, 0, 52, 0
4, 32640, Note_on_c, 0, 45, 36
4, 32760, Note_on_c, 0, 45, 0
4, 32760, Note_on_c, 0, 52, 36
4, 32880, Note_on_c, 0, 52, 0
4, 33120, Control_c, 0, 64, 0
4, 33240, Note_on_c, 0, 45, 38
4, 33360, Note_on_c, 0, 45, 0
4, 33360, Note_on_c, 0, 38, 39
4, 33480, Note_on_c, 0, 38, 0
4, 33480, Note_on_c, 0, 45, 39
4, 33600, Note_on_c, 0, 45, 0
4, 33960, Note_on_c, 0, 48, 43
4, 34080, Note_on_c, 0, 48, 0
4, 34080, Note_on_c, 0, 40, 44
4, 34200, Note_on_c, 0, 40, 0
4, 34200, Note_on_c, 0, 48, 44
4, 34320, Note_on_c, 0, 48, 0
4, 34680, Note_on_c, 0, 48, 48
4, 34800, Note_on_c, 0, 48, 0
4, 34800, Note_on_c, 0, 41, 48
4, 34920, Note_on_c, 0, 41, 0
4, 34920, Note_on_c, 0, 48, 49
4, 35040, Note_on_c, 0, 48, 0
4, 35400, Note_on_c, 0, 45, 55
4, 35520, Note_on_c, 0, 45, 0
4, 35520, Note_on_c, 0, 40, 55
4, 35640, Note_on_c, 0, 40, 0
4, 35640, Note_on_c, 0, 45, 56
4, 35760, Note_on_c, 0, 45, 0
4, 36120, Note_on_c, 0, 50, 58
4, 36120, Note_on_c, 0, 69, 58
4, 36240, Note_on_c, 0, 69, 0
4, 36240, Note_on_c, 0, 50, 0
4, 36240, Note_on_c, 0, 38, 57
4, 36240, Note_on_c, 0, 81, 57
4, 36360, Note_on_c, 0, 81, 0
4, 36360, Note_on_c, 0, 38, 0
4, 36360, Note_on_c, 0, 50, 56
4, 36360, Note_on_c, 0, 74, 56
4, 36480, Note_on_c, 0, 74, 0
4, 36480, Note_on_c, 0, 50, 0
4, 36840, Note_on_c, 0, 50, 53
4, 36840, Note_on_c, 0, 67, 53
4, 36960, Note_on_c, 0, 67, 0
4, 36960, Note_on_c, 0, 50, 0
4, 36960, Note_on_c, 0, 38, 52
4, 36960, Note_on_c, 0, 79, 52
4, 37080, Note_on_c, 0, 79, 0
4, 37080, Note_on_c, 0, 38, 0
4, 37080, Note_on_c, 0, 50, 51
4, 37080, Note_on_c, 0, 74, 51
4, 37200, Note_on_c, 0, 74, 0
4, 37200, Note_on_c, 0, 50, 0
4, 37560, Note_on_c, 0, 50, 48
4, 37560, Note_on_c, 0, 67, 48
4, 37680, Note_on_c, 0, 67, 0
4, 37680, Note_on_c, 0, 50, 0
4, 37680, Note_on_c, 0, 38, 47
4, 37680, Note_on_c, 0, 76, 47
4, 37800, Note_on_c, 0, 76, 0
4, 37800, Note_on_c, 0, 38, 0
4, 37800, Note_on_c, 0, 50, 46
4, 37800, Note_on_c, 0, 70, 46
4, 37920, Note_on_c, 0, 70, 0
4, 37920, Note_on_c, 0, 50, 0
4, 38280, Note_on_c, 0, 50, 43
4, 38280, Note_on_c, 0, 65, 43
4, 38400, Note_on_c, 0, 65, 0
4, 38400, Note_on_c, 0, 50, 0
4, 38400, Note_on_c, 0, 38, 42
4, 38400, Note_on_c, 0, 74, 42
4, 38520, Note_on_c, 0, 74, 0
4, 38520, Note_on_c, 0, 50, 41
4, 38520, Note_on_c, 0, 65, 41
4, 38640, Note_on_c, 0, 65, 0
4, 38640, Note_on_c, 0, 50, 0
4, 38760, Note_on_c, 0, 50, 40
4, 38760, Note_on_c, 0, 64, 40
4, 38880, Note_on_c, 0, 64, 0
4, 38880, Note_on_c, 0, 50, 0
4, 38880, Note_on_c, 0, 38, 0
4, 38880, Note_on_c, 0, 73, 39
4, 39000, Note_on_c, 0, 73, 0
4, 39000, Note_on_c, 0, 50, 38
4, 39000, Note_on_c, 0, 64, 38
4, 39120, Note_on_c, 0, 64, 0
4, 39120, Note_on_c, 0, 50, 0
4, 39120, Note_on_c, 0, 54, 37
4, 39240, Note_on_c, 0, 54, 0
4, 39240, Note_on_c, 0, 50, 37
4, 39240, Note_on_c, 0, 62, 37
4, 39360, Note_on_c, 0, 62, 0
4, 39360, Note_on_c, 0, 50, 0
4, 39360, Note_on_c, 0, 74, 36
4, 39480, Note_on_c, 0, 74, 0
4, 39480, Note_on_c, 0, 50, 35
4, 39480, Note_on_c, 0, 62, 35
4, 39581, Note_on_c, 0, 62, 0
4, 39588, Note_on_c, 0, 50, 0
4, 39600, Control_c, 0, 64, 0
4, 39720, Note_on_c, 0, 57, 42
4, 39840, Note_on_c, 0, 57, 0
4, 39840, Note_on_c, 0, 50, 43
4, 39960, Note_on_c, 0, 50, 0
4, 39960, Note_on_c, 0, 57, 44
4, 40080, Note_on_c, 0, 57, 0
4, 40440, Note_on_c, 0, 54, 48
4, 40560, Note_on_c, 0, 54, 0
4, 40560, Note_on_c, 0, 47, 49
4, 40680, Note_on_c, 0, 47, 0
4, 40680, Note_on_c, 0, 54, 50
4, 40800, Note_on_c, 0, 54, 0
4, 41160, Note_on_c, 0, 52, 52
4, 41280, Note_on_c, 0, 52, 0
4, 41280, Note_on_c, 0, 43, 51
4, 41400, Note_on_c, 0, 43, 0
4, 41400, Note_on_c, 0, 47, 50
4, 41520, Note_on_c, 0, 47, 0
4, 41640, Note_on_c, 0, 40, 48
4, 41760, Note_on_c, 0, 40, 0
4, 41880, Note_on_c, 0, 52, 47
4, 42000, Note_on_c, 0, 52, 0
4, 42000, Note_on_c, 0, 45, 46
4, 42120, Note_on_c, 0, 45, 0
4, 42120, Note_on_c, 0, 52, 45
4, 42240, Note_on_c, 0, 52, 0
4, 42600, Note_on_c, 0, 62, 46
4, 42720, Note_on_c, 0, 62, 0
4, 42720, Note_on_c, 0, 54, 46
4, 42840, Note_on_c, 0, 54, 0
4, 42840, Note_on_c, 0, 57, 47
4, 42960, Note_on_c, 0, 57, 0
4, 43320, Note_on_c, 0, 57, 49
4, 43440, Note_on_c, 0, 57, 0
4, 43440, Note_on_c, 0, 49, 49
4, 43560, Note_on_c, 0, 49, 0
4, 43560, Note_on_c, 0, 52, 50
4, 43680, Note_on_c, 0, 52, 0
4, 44040, Note_on_c, 0, 54, 52
4, 44160, Note_on_c, 0, 54, 0
4, 44160, Note_on_c, 0, 47, 53
4, 44280, Note_on_c, 0, 47, 0
4, 44280, Note_on_c, 0, 51, 53
4, 44400, Note_on_c, 0, 51, 0
4, 44760, Note_on_c, 0, 52, 55
4, 44880, Note_on_c, 0, 52, 0
4, 44880, Note_on_c, 0, 44, 56
4, 45000, Note_on_c, 0, 44, 0
4, 45000, Note_on_c, 0, 47, 57
4, 45120, Note_on_c, 0, 47, 0
4, 45240, Note_on_c, 0, 40, 58
4, 45360, Note_on_c, 0, 40, 0
4, 45480, Note_on_c, 0, 52, 55
4, 45600, Note_on_c, 0, 52, 0
4, 45600, Note_on_c, 0, 45, 53
4, 45720, Note_on_c, 0, 45, 0
4, 45720, Note_on_c, 0, 52, 50
4, 45840, Note_on_c, 0, 52, 0
4, 45960, Note_on_c, 0, 45, 46
4, 46038, Note_on_c, 0, 45, 0
4, 46080, Control_c, 0, 64, 0
4, 46200, Note_on_c, 0, 57, 42
4, 46320, Note_on_c, 0, 57, 0
4, 46320, Note_on_c, 0, 50, 43
4, 46440, Note_on_c, 0, 50, 0
4, 46440, Note_on_c, 0, 57, 44
4, 46560, Note_on_c, 0, 57, 0
4, 46920, Note_on_c, 0, 54, 48
4, 47040, Note_on_c, 0, 54, 0
4, 47040, Note_on_c, 0, 47, 49
4, 47160, Note_on_c, 0, 47, 0
4, 47160, Note_on_c, 0, 54, 50
4, 47280, Note_on_c, 0, 54, 0
4, 47640, Note_on_c, 0, 52, 52
4, 47760, Note_on_c, 0, 52, 0
4, 47760, Note_on_c, 0, 43, 51
4, 47880, Note_on_c, 0, 43, 0
4, 47880, Note_on_c, 0, 47, 50
4, 48000, Note_on_c, 0, 47, 0
4, 48120, Note_on_c, 0, 40, 48
4, 48240, Note_on_c, 0, 40, 0
4, 48360, Note_on_c, 0, 52, 47
4, 48480, Note_on_c, 0, 52, 0
4, 48480, Note_on_c, 0, 45, 46
4, 48600, Note_on_c, 0, 45, 0
4, 48600, Note_on_c, 0, 52, 45
4, 48720, Note_on_c, 0, 52, 0
4, 49080, Note_on_c, 0, 62, 46
4, 49200, Note_on_c, 0, 62, 0
4, 49200, Note_on_c, 0, 54, 46
4, 49320, Note_on_c, 0, 54, 0
4, 49320, Note_on_c, 0, 57, 47
4, 49440, Note_on_c, 0, 57, 0
4, 49800, Note_on_c, 0, 57, 49
4, 49920, Note_on_c, 0, 57, 0
4, 49920, Note_on_c, 0, 49, 49
4, 50040, Note_on_c, 0, 49, 0
4, 50040, Note_on_c, 0, 52, 50
4, 50160, Note_on_c, 0, 52, 0
4, 50520, Note_on_c, 0, 54, 52
4, 50640, Note_on_c, 0, 54, 0
4, 50640, Note_on_c, 0, 47, 53
4, 50760, Note_on_c, 0, 47, 0
4, 50760, Note_on_c, 0, 51, 53
4, 50880, Note_on_c, 0, 51, 0
4, 51240, Note_on_c, 0, 52, 55
4, 51360, Note_on_c, 0, 52, 0
4, 51360, Note_on_c, 0, 44, 56
4, 51480, Note_on_c, 0, 44, 0
4, 51480, Note_on_c, 0, 47, 57
4, 51600, Note_on_c, 0, 47, 0
4, 51720, Note_on_c, 0, 40, 58
4, 51840, Note_on_c, 0, 40, 0
4, 51960, Note_on_c, 0, 52, 55
4, 52080, Note_on_c, 0, 52, 0
4, 52080, Note_on_c, 0, 45, 53
4, 52200, Note_on_c, 0, 45, 0
4, 52200, Note_on_c, 0, 52, 50
4, 52320, Note_on_c, 0, 52, 0
4, 52440, Note_on_c, 0, 45, 46
4, 52518, Note_on_c, 0, 45, 0
4, 52560, Control_c, 0, 64, 0
4, 52680, Note_on_c, 0, 61, 47
4, 52800, Note_on_c, 0, 61, 0
4, 52800, Note_on_c, 0, 62, 48
4, 52920, Note_on_c, 0, 62, 0
4, 52920, Note_on_c, 0, 50, 48
4, 53040, Note_on_c, 0, 50, 0
4, 53160, Note_on_c, 0, 60, 49
4, 53280, Note_on_c, 0, 60, 0
4, 53400, Note_on_c, 0, 57, 50
4, 53520, Note_on_c, 0, 57, 0
4, 53520, Note_on_c, 0, 58, 50
4, 53640, Note_on_c, 0, 58, 0
4, 53640, Note_on_c, 0, 46, 50
4, 53760, Note_on_c, 0, 46, 0
4, 53880, Note_on_c, 0, 57, 51
4, 54000, Note_on_c, 0, 57, 0
4, 54120, Note_on_c, 0, 54, 52
4, 54240, Note_on_c, 0, 54, 0
4, 54240, Note_on_c, 0, 55, 53
4, 54360, Note_on_c, 0, 55, 0
4, 54360, Note_on_c, 0, 43, 53
4, 54480, Note_on_c, 0, 43, 0
4, 54600, Note_on_c, 0, 56, 54
4, 54720, Note_on_c, 0, 56, 0
4, 54840, Note_on_c, 0, 56, 54
4, 54960, Note_on_c, 0, 56, 0
4, 54960, Note_on_c, 0, 57, 52
4, 55080, Note_on_c, 0, 57, 0
4, 55080, Note_on_c, 0, 44, 50
4, 55200, Note_on_c, 0, 44, 0
4, 55320, Note_on_c, 0, 57, 47
4, 55402, Note_on_c, 0, 57, 0
4, 55560, Note_on_c, 0, 61, 48
4, 55680, Note_on_c, 0, 61, 0
4, 55680, Note_on_c, 0, 62, 50
4, 55800, Note_on_c, 0, 62, 0
4, 55800, Note_on_c, 0, 49, 51
4, 55920, Note_on_c, 0, 49, 0
4, 56040, Note_on_c, 0, 62, 53
4, 56160, Note_on_c, 0, 62, 0
4, 56280, Note_on_c, 0, 54, 53
4, 56400, Note_on_c, 0, 54, 0
4, 56400, Note_on_c, 0, 55, 52
4, 56520, Note_on_c, 0, 55, 0
4, 56520, Note_on_c, 0, 42, 52
4, 56640, Note_on_c, 0, 42, 0
4, 56760, Note_on_c, 0, 55, 50
4, 56880, Note_on_c, 0, 55, 0
4, 57000, Note_on_c, 0, 55, 48
4, 57120, Note_on_c, 0, 55, 0
4, 57120, Note_on_c, 0, 56, 47
4, 57240, Note_on_c, 0, 56, 0
4, 57240, Note_on_c, 0, 43, 47
4, 57360, Note_on_c, 0, 43, 0
4, 57480, Note_on_c, 0, 56, 45
4, 57600, Note_on_c, 0, 56, 0
4, 57720, Note_on_c, 0, 56, 43
4, 57840, Note_on_c, 0, 56, 0
4, 57840, Note_on_c, 0, 57, 42
4, 57960, Note_on_c, 0, 57, 0
4, 57960, Note_on_c, 0, 44, 42
4, 58080, Note_on_c, 0, 44, 0
4, 58800, Control_c, 0, 64, 0
4, 59040, Control_c, 0, 64, 0
4, 65280, Control_c, 0, 64, 0
4, 65520, Control_c, 0, 64, 0
4, 71760, Control_c, 0, 64, 0
4, 78240, Control_c, 0, 64, 0
4, 78480, Control_c, 0, 64, 0
4, 84960, Control_c, 0, 64, 0
4, 91440, Control_c, 0, 64, 0
4, 98640, Control_c, 0, 64, 0
4, 100160, Note_on_c, 0, 55, 49
4, 100240, Note_on_c, 0, 55, 0
4, 100400, Note_on_c, 0, 55, 50
4, 100480, Note_on_c, 0, 55, 0
4, 100640, Note_on_c, 0, 55, 52
4, 100720, Note_on_c, 0, 55, 0
4, 100880, Note_on_c, 0, 55, 53
4, 100960, Note_on_c, 0, 55, 0
4, 101120, Note_on_c, 0, 55, 54
4, 101200, Note_on_c, 0, 55, 0
4, 101360, Note_on_c, 0, 55, 56
4, 101440, Note_on_c, 0, 55, 0
4, 101600, Note_on_c, 0, 57, 57
4, 101680, Note_on_c, 0, 57, 0
4, 101680, Note_on_c, 0, 64, 57
4, 101760, Note_on_c, 0, 64, 0
4, 101840, Note_on_c, 0, 57, 58
4, 101920, Note_on_c, 0, 57, 0
4, 102080, Note_on_c, 0, 57, 60
4, 102160, Note_on_c, 0, 57, 0
4, 102320, Note_on_c, 0, 55, 61
4, 102400, Note_on_c, 0, 55, 0
4, 102560, Note_on_c, 0, 55, 62
4, 102640, Note_on_c, 0, 55, 0
4, 102800, Note_on_c, 0, 55, 63
4, 102880, Note_on_c, 0, 55, 0
4, 103040, Note_on_c, 0, 54, 64
4, 103120, Note_on_c, 0, 54, 0
4, 103280, Note_on_c, 0, 54, 62
4, 103360, Note_on_c, 0, 54, 0
4, 103520, Note_on_c, 0, 50, 61
4, 103600, Note_on_c, 0, 50, 0
4, 103760, Note_on_c, 0, 52, 59
4, 103840, Note_on_c, 0, 52, 0
4, 104000, Note_on_c, 0, 52, 58
4, 104080, Note_on_c, 0, 52, 0
4, 104160, Note_on_c, 0, 52, 57
4, 104240, Note_on_c, 0, 52, 0
4, 104320, Note_on_c, 0, 52, 56
4, 104400, Note_on_c, 0, 52, 0
4, 104480, Note_on_c, 0, 45, 55
4, 104560, Note_on_c, 0, 45, 0
4, 104720, Note_on_c, 0, 45, 53
4, 104800, Note_on_c, 0, 45, 0
4, 104960, Note_on_c, 0, 57, 52
4, 105040, Note_on_c, 0, 57, 0
4, 105120, Control_c, 0, 64, 0
4, 105200, Note_on_c, 0, 57, 51
4, 105280, Note_on_c, 0, 57, 0
4, 105440, Note_on_c, 0, 57, 50
4, 105520, Note_on_c, 0, 62, 50
4, 105525, Note_on_c, 0, 57, 0
4, 105600, Note_on_c, 0, 62, 0
4, 105680, Note_on_c, 0, 50, 50
4, 105760, Note_on_c, 0, 50, 0
4, 105760, Note_on_c, 0, 61, 50
4, 105840, Note_on_c, 0, 61, 0
4, 105840, Note_on_c, 0, 59, 49
4, 105920, Note_on_c, 0, 50, 49
4, 105990, Note_on_c, 0, 59, 0
4, 106000, Note_on_c, 0, 50, 0
4, 106000, Note_on_c, 0, 57, 49
4, 106080, Note_on_c, 0, 57, 0
4, 106080, Note_on_c, 0, 55, 48
4, 106160, Note_on_c, 0, 50, 48
4, 106240, Note_on_c, 0, 55, 0
4, 106240, Note_on_c, 0, 54, 48
4, 106245, Note_on_c, 0, 50, 0
4, 106320, Note_on_c, 0, 52, 47
4, 106325, Note_on_c, 0, 54, 0
4, 106400, Note_on_c, 0, 50, 47
4, 106410, Note_on_c, 0, 52, 0
4, 106475, Note_on_c, 0, 50, 0
4, 106640, Note_on_c, 0, 55, 49
4, 106720, Note_on_c, 0, 55, 0
4, 106880, Note_on_c, 0, 55, 50
4, 106960, Note_on_c, 0, 55, 0
4, 107120, Note_on_c, 0, 55, 52
4, 107200, Note_on_c, 0, 55, 0
4, 107360, Note_on_c, 0, 55, 53
4, 107440, Note_on_c, 0, 55, 0
4, 107600, Note_on_c, 0, 55, 54
4, 107680, Note_on_c, 0, 55, 0
4, 107840, Note_on_c, 0, 55, 56
4, 107920, Note_on_c, 0, 55, 0
4, 108080, Note_on_c, 0, 57, 57
4, 108160, Note_on_c, 0, 57, 0
4, 108160, Note_on_c, 0, 64, 57
4, 108240, Note_on_c, 0, 64, 0
4, 108320, Note_on_c, 0, 57, 58
4, 108400, Note_on_c, 0, 57, 0
4, 108560, Note_on_c, 0, 57, 60
4, 108640, Note_on_c, 0, 57, 0
4, 108800, Note_on_c, 0, 55, 61
4, 108880, Note_on_c, 0, 55, 0
4, 109040, Note_on_c, 0, 55, 62
4, 109120, Note_on_c, 0, 55, 0
4, 109280, Note_on_c, 0, 55, 63
4, 109360, Note_on_c, 0, 55, 0
4, 109520, Note_on_c, 0, 54, 64
4, 109600, Note_on_c, 0, 54, 0
4, 109760, Note_on_c, 0, 54, 62
4, 109840, Note_on_c, 0, 54, 0
4, 110000, Note_on_c, 0, 50, 61
4, 110080, Note_on_c, 0, 50, 0
4, 110240, Note_on_c, 0, 52, 59
4, 110320, Note_on_c, 0, 52, 0
4, 110480, Note_on_c, 0, 52, 58
4, 110560, Note_on_c, 0, 52, 0
4, 110640, Note_on_c, 0, 52, 57
4, 110720, Note_on_c, 0, 52, 0
4, 110800, Note_on_c, 0, 52, 56
4, 110880, Note_on_c, 0, 52, 0
4, 110960, Note_on_c, 0, 45, 55
4, 111040, Note_on_c, 0, 45, 0
4, 111200, Note_on_c, 0, 45, 53
4, 111280, Note_on_c, 0, 45, 0
4, 111440, Note_on_c, 0, 57, 52
4, 111520, Note_on_c, 0, 57, 0
4, 111600, Control_c, 0, 64, 0
4, 111680, Note_on_c, 0, 57, 51
4, 111760, Note_on_c, 0, 57, 0
4, 111920, Note_on_c, 0, 57, 53
4, 112000, Note_on_c, 0, 57, 0
4, 112160, Note_on_c, 0, 50, 54
4, 112240, Note_on_c, 0, 50, 0
4, 112320, Control_c, 0, 64, 0
4, 112400, Note_on_c, 0, 55, 55
4, 112480, Note_on_c, 0, 55, 0
4, 112640, Note_on_c, 0, 55, 57
4, 112720, Note_on_c, 0, 55, 0
4, 112880, Note_on_c, 0, 55, 58
4, 112960, Note_on_c, 0, 55, 0
4, 113120, Note_on_c, 0, 48, 60
4, 113200, Note_on_c, 0, 48, 0
4, 113360, Note_on_c, 0, 48, 61
4, 113440, Note_on_c, 0, 48, 0
4, 113600, Note_on_c, 0, 48, 63
4, 113680, Note_on_c, 0, 48, 0
4, 113840, Note_on_c, 0, 48, 64
4, 113920, Note_on_c, 0, 48, 0
4, 114080, Note_on_c, 0, 48, 66
4, 114160, Note_on_c, 0, 48, 0
4, 114320, Note_on_c, 0, 49, 67
4, 114400, Note_on_c, 0, 49, 0
4, 114560, Note_on_c, 0, 49, 69
4, 114640, Note_on_c, 0, 49, 0
4, 114800, Note_on_c, 0, 49, 70
4, 114880, Note_on_c, 0, 49, 0
4, 115040, Note_on_c, 0, 48, 71
4, 115120, Note_on_c, 0, 48, 0
4, 115280, Note_on_c, 0, 47, 69
4, 115360, Note_on_c, 0, 47, 0
4, 115360, Note_on_c, 0, 55, 69
4, 115440, Note_on_c, 0, 55, 0
4, 115440, Note_on_c, 0, 62, 68
4, 115520, Note_on_c, 0, 43, 68
4, 115525, Note_on_c, 0, 62, 0
4, 115600, Note_on_c, 0, 43, 0
4, 115760, Note_on_c, 0, 43, 66
4, 115840, Note_on_c, 0, 43, 0
4, 116000, Note_on_c, 0, 45, 65
4, 116080, Note_on_c, 0, 45, 0
4, 116240, Note_on_c, 0, 45, 63
4, 116320, Note_on_c, 0, 45, 0
4, 116480, Note_on_c, 0, 45, 61
4, 116560, Note_on_c, 0, 45, 0
4, 116720, Note_on_c, 0, 57, 60
4, 116800, Note_on_c, 0, 57, 0
4, 116960, Note_on_c, 0, 57, 58
4, 117040, Note_on_c, 0, 57, 0
4, 117200, Note_on_c, 0, 57, 57
4, 117280, Note_on_c, 0, 57, 0
4, 117440, Note_on_c, 0, 57, 55
4, 117520, Note_on_c, 0, 57, 0
4, 117680, Note_on_c, 0, 57, 53
4, 117760, Note_on_c, 0, 57, 0
4, 118080, Control_c, 0, 64, 0
4, 118080, Control_c, 0, 64, 0
4, 118080, Note_on_c, 0, 66, 49
4, 118080, Note_on_c, 0, 62, 49
4, 118080, Note_on_c, 0, 69, 49
4, 118120, Control_c, 0, 64, 127
4, 118160, Note_on_c, 0, 69, 0
4, 118160, Note_on_c, 0, 62, 0
4, 118160, Note_on_c, 0, 66, 0
4, 118160, Note_on_c, 0, 57, 50
4, 118240, Note_on_c, 0, 57, 0
4, 118240, Note_on_c, 0, 69, 51
4, 118320, Note_on_c, 0, 69, 0
4, 118320, Control_c, 0, 64, 0
4, 118320, Note_on_c, 0, 62, 52
4, 118360, Control_c, 0, 64, 127
4, 118400, Note_on_c, 0, 62, 0
4, 118400, Note_on_c, 0, 74, 53
4, 118480, Note_on_c, 0, 74, 0
4, 118480, Note_on_c, 0, 62, 54
4, 118560, Note_on_c, 0, 62, 0
4, 118560, Control_c, 0, 64, 0
4, 118560, Note_on_c, 0, 66, 55
4, 118600, Control_c, 0, 64, 127
4, 118640, Note_on_c, 0, 66, 0
4, 118640, Note_on_c, 0, 78, 56
4, 118720, Note_on_c, 0, 78, 0
4, 118720, Note_on_c, 0, 66, 57
4, 118800, Note_on_c, 0, 66, 0
4, 118800, Control_c, 0, 64, 0
4, 118800, Note_on_c, 0, 67, 58
4, 118840, Control_c, 0, 64, 127
4, 118880, Note_on_c, 0, 67, 0
4, 118880, Note_on_c, 0, 79, 58
4, 118960, Note_on_c, 0, 79, 0
4, 118960, Note_on_c, 0, 67, 57
4, 119040, Note_on_c, 0, 67, 0
4, 119040, Control_c, 0, 64, 0
4, 119040, Note_on_c, 0, 66, 57
4, 119080, Control_c, 0, 64, 127
4, 119120, Note_on_c, 0, 66, 0
4, 119120, Note_on_c, 0, 78, 57
4, 119200, Note_on_c, 0, 78, 0
4, 119200, Note_on_c, 0, 66, 56
4, 119280, Note_on_c, 0, 66, 0
4, 119280, Control_c, 0, 64, 0
4, 119280, Note_on_c, 0, 64, 56
4, 119320, Control_c, 0, 64, 127
4, 119360, Note_on_c, 0, 64, 0
4, 119360, Note_on_c, 0, 76, 55
4, 119440, Note_on_c, 0, 76, 0
4, 119440, Note_on_c, 0, 64, 55
4, 119520, Note_on_c, 0, 64, 0
4, 119520, Control_c, 0, 64, 0
4, 119520, Note_on_c, 0, 62, 54
4, 119560, Control_c, 0, 64, 127
4, 119600, Note_on_c, 0, 62, 0
4, 119600, Note_on_c, 0, 74, 54
4, 119680, Note_on_c, 0, 74, 0
4, 119680, Note_on_c, 0, 62, 54
4, 119760, Note_on_c, 0, 62, 0
4, 119760, Control_c, 0, 64, 0
4, 119760, Note_on_c, 0, 61, 53
4, 119800, Control_c, 0, 64, 127
4, 119840, Note_on_c, 0, 61, 0
4, 119840, Note_on_c, 0, 73, 53
4, 119920, Note_on_c, 0, 73, 0
4, 119920, Note_on_c, 0, 61, 52
4, 120000, Note_on_c, 0, 61, 0
4, 120000, Control_c, 0, 64, 0
4, 120000, Note_on_c, 0, 59, 52
4, 120040, Control_c, 0, 64, 127
4, 120080, Note_on_c, 0, 59, 0
4, 120080, Note_on_c, 0, 71, 51
4, 120160, Note_on_c, 0, 71, 0
4, 120160, Note_on_c, 0, 59, 51
4, 120240, Note_on_c, 0, 59, 0
4, 120240, Control_c, 0, 64, 0
4, 120240, Note_on_c, 0, 57, 51
4, 120280, Control_c, 0, 64, 127
4, 120320, Note_on_c, 0, 57, 0
4, 120320, Note_on_c, 0, 69, 50
4, 120400, Note_on_c, 0, 69, 0
4, 120400, Note_on_c, 0, 57, 50
4, 120480, Note_on_c, 0, 57, 0
4, 120480, Control_c, 0, 64, 0
4, 120480, Note_on_c, 0, 55, 49
4, 120520, Control_c, 0, 64, 127
4, 120560, Note_on_c, 0, 55, 0
4, 120560, Note_on_c, 0, 67, 49
4, 120640, Note_on_c, 0, 67, 0
4, 120640, Note_on_c, 0, 55, 48
4, 120720, Note_on_c, 0, 55, 0
4, 120720, Control_c, 0, 64, 0
4, 120720, Note_on_c, 0, 52, 48
4, 120760, Control_c, 0, 64, 127
4, 120800, Note_on_c, 0, 52, 0
4, 120800, Note_on_c, 0, 64, 48
4, 120880, Note_on_c, 0, 64, 0
4, 120880, Note_on_c, 0, 52, 47
4, 120960, Note_on_c, 0, 52, 0
4, 120960, Control_c, 0, 64, 0
4, 120960, Control_c, 0, 64, 0
4, 120960, Note_on_c, 0, 57, 47
4, 121000, Control_c, 0, 64, 127
4, 121040, Note_on_c, 0, 57, 0
4, 121040, Note_on_c, 0, 69, 48
4, 121120, Note_on_c, 0, 69, 0
4, 121120, Note_on_c, 0, 57, 49
4, 121200, Note_on_c, 0, 57, 0
4, 121200, Control_c, 0, 64, 0
4, 121200, Note_on_c, 0, 62, 49
4, 121240, Control_c, 0, 64, 127
4, 121280, Note_on_c, 0, 62, 0
4, 121280, Note_on_c, 0, 74, 50
4, 121360, Note_on_c, 0, 74, 0
4, 121360, Note_on_c, 0, 62, 51
4, 121440, Note_on_c, 0, 62, 0
4, 121440, Control_c, 0, 64, 0
4, 121440, Note_on_c, 0, 66, 52
4, 121480, Control_c, 0, 64, 127
4, 121520, Note_on_c, 0, 66, 0
4, 121520, Note_on_c, 0, 78, 53
4, 121600, Note_on_c, 0, 78, 0
4, 121600, Note_on_c, 0, 66, 54
4, 121680, Note_on_c, 0, 66, 0
4, 121680, Control_c, 0, 64, 0
4, 121680, Control_c, 0, 64, 0
4, 121680, Note_on_c, 0, 69, 55
4, 121720, Control_c, 0, 64, 127
4, 121760, Note_on_c, 0, 69, 0
4, 121760, Note_on_c, 0, 81, 55
4, 121840, Note_on_c, 0, 81, 0
4, 121840, Note_on_c, 0, 69, 56
4, 121920, Note_on_c, 0, 69, 0
4, 121920, Control_c, 0, 64, 0
4, 121920, Note_on_c, 0, 73, 57
4, 121960, Control_c, 0, 64, 127
4, 122000, Note_on_c, 0, 73, 0
4, 122000, Note_on_c, 0, 85, 58
4, 122080, Note_on_c, 0, 85, 0
4, 122080, Note_on_c, 0, 73, 59
4, 122160, Note_on_c, 0, 73, 0
4, 122160, Control_c, 0, 64, 0
4, 122160, Note_on_c, 0, 76, 60
4, 122200, Control_c, 0, 64, 127
4, 122240, Note_on_c, 0, 76, 0
4, 122240, Note_on_c, 0, 88, 61
4, 122320, Note_on_c, 0, 88, 0
4, 122320, Note_on_c, 0, 76, 61
4, 122400, Note_on_c, 0, 76, 0
4, 122400, Control_c, 0, 64, 0
4, 122400, Note_on_c, 0, 81, 62
4, 122440, Control_c, 0, 64, 127
4, 122480, Note_on_c, 0, 81, 0
4, 122480, Note_on_c, 0, 93, 63
4, 122560, Note_on_c, 0, 93, 0
4, 122560, Note_on_c, 0, 81, 64
4, 122640, Note_on_c, 0, 81, 0
4, 122640, Control_c, 0, 64, 0
4, 122640, Note_on_c, 0, 80, 65
4, 122680, Control_c, 0, 64, 127
4, 122720, Note_on_c, 0, 80, 0
4, 122720, Note_on_c, 0, 92, 66
4, 122800, Note_on_c, 0, 92, 0
4, 122800, Note_on_c, 0, 80, 67
4, 122880, Note_on_c, 0, 80, 0
4, 122880, Control_c, 0, 64, 0
4, 122880, Note_on_c, 0, 78, 68
4, 122920, Control_c, 0, 64, 127
4, 122960, Note_on_c, 0, 78, 0
4, 122960, Note_on_c, 0, 90, 68
4, 123040, Note_on_c, 0, 90, 0
4, 123040, Note_on_c, 0, 78, 69
4, 123120, Note_on_c, 0, 78, 0
4, 123120, Control_c, 0, 64, 0
4, 123120, Note_on_c, 0, 76, 69
4, 123160, Control_c, 0, 64, 127
4, 123200, Note_on_c, 0, 76, 0
4, 123200, Note_on_c, 0, 88, 68
4, 123280, Note_on_c, 0, 88, 0
4, 123280, Note_on_c, 0, 76, 67
4, 123360, Note_on_c, 0, 76, 0
4, 123360, Control_c, 0, 64, 0
4, 123360, Note_on_c, 0, 74, 66
4, 123400, Control_c, 0, 64, 127
4, 123440, Note_on_c, 0, 74, 0
4, 123440, Note_on_c, 0, 86, 65
4, 123520, Note_on_c, 0, 86, 0
4, 123520, Note_on_c, 0, 74, 63
4, 123600, Note_on_c, 0, 74, 0
4, 123600, Control_c, 0, 64, 0
4, 123600, Note_on_c, 0, 71, 62
4, 123640, Control_c, 0, 64, 127
4, 123680, Note_on_c, 0, 71, 0
4, 123680, Note_on_c, 0, 83, 61
4, 123760, Note_on_c, 0, 83, 0
4, 123760, Note_on_c, 0, 71, 60
4, 123840, Note_on_c, 0, 71, 0
4, 123840, Control_c, 0, 64, 0
4, 123840, Note_on_c, 0, 69, 59
4, 123880, Control_c, 0, 64, 127
4, 123920, Note_on_c, 0, 69, 0
4, 123920, Note_on_c, 0, 81, 57
4, 124000, Note_on_c, 0, 81, 0
4, 124000, Note_on_c, 0, 69, 56
4, 124080, Note_on_c, 0, 69, 0
4, 124080, Control_c, 0, 64, 0
4, 124080, Note_on_c, 0, 67, 55
4, 124120, Control_c, 0, 64, 127
4, 124160, Note_on_c, 0, 67, 0
4, 124160, Note_on_c, 0, 81, 54
4, 124240, Note_on_c, 0, 81, 0
4, 124240, Note_on_c, 0, 67, 52
4, 124320, Note_on_c, 0, 67, 0
4, 124320, Control_c, 0, 64, 0
4, 124320, Note_on_c, 0, 64, 51
4, 124360, Control_c, 0, 64, 127
4, 124400, Note_on_c, 0, 64, 0
4, 124400, Note_on_c, 0, 81, 50
4, 124480, Note_on_c, 0, 81, 0
4, 124480, Note_on_c, 0, 64, 49
4, 124541, Note_on_c, 0, 64, 0
4, 124560, Control_c, 0, 64, 0
4, 124560, Control_c, 0, 64, 0
4, 124560, Note_on_c, 0, 57, 49
4, 124600, Control_c, 0, 64, 127
4, 124640, Note_on_c, 0, 57, 0
4, 124640, Note_on_c, 0, 69, 49
4, 124720, Note_on_c, 0, 69, 0
4, 124720, Note_on_c, 0, 57, 51
4, 124800, Note_on_c, 0, 57, 0
4, 124800, Control_c, 0, 64, 0
4, 124800, Note_on_c, 0, 62, 52
4, 124840, Control_c, 0, 64, 127
4, 124880, Note_on_c, 0, 62, 0
4, 124880, Note_on_c, 0, 74, 53
4, 124960, Note_on_c, 0, 74, 0
4, 124960, Note_on_c, 0, 62, 54
4, 125040, Note_on_c, 0, 62, 0
4, 125040, Control_c, 0, 64, 0
4, 125040, Note_on_c, 0, 66, 55
4, 125080, Control_c, 0, 64, 127
4, 125120, Note_on_c, 0, 66, 0
4, 125120, Note_on_c, 0, 78, 56
4, 125200, Note_on_c, 0, 78, 0
4, 125200, Note_on_c, 0, 66, 57
4, 125280, Note_on_c, 0, 66, 0
4, 125280, Control_c, 0, 64, 0
4, 125280, Note_on_c, 0, 67, 58
4, 125320, Control_c, 0, 64, 127
4, 125360, Note_on_c, 0, 67, 0
4, 125360, Note_on_c, 0, 79, 58
4, 125440, Note_on_c, 0, 79, 0
4, 125440, Note_on_c, 0, 67, 57
4, 125520, Note_on_c, 0, 67, 0
4, 125520, Control_c, 0, 64, 0
4, 125520, Note_on_c, 0, 66, 57
4, 125560, Control_c, 0, 64, 127
4, 125600, Note_on_c, 0, 66, 0
4, 125600, Note_on_c, 0, 78, 57
4, 125680, Note_on_c, 0, 78, 0
4, 125680, Note_on_c, 0, 66, 56
4, 125760, Note_on_c, 0, 66, 0
4, 125760, Control_c, 0, 64, 0
4, 125760, Note_on_c, 0, 64, 56
4, 125800, Control_c, 0, 64, 127
4, 125840, Note_on_c, 0, 64, 0
4, 125840, Note_on_c, 0, 76, 55
4, 125920, Note_on_c, 0, 76, 0
4, 125920, Note_on_c, 0, 64, 55
4, 126000, Note_on_c, 0, 64, 0
4, 126000, Control_c, 0, 64, 0
4, 126000, Note_on_c, 0, 62, 54
4, 126040, Control_c, 0, 64, 127
4, 126080, Note_on_c, 0, 62, 0
4, 126080, Note_on_c, 0, 74, 54
4, 126160, Note_on_c, 0, 74, 0
4, 126160, Note_on_c, 0, 62, 54
4, 126240, Note_on_c, 0, 62, 0
4, 126240, Control_c, 0, 64, 0
4, 126240, Note_on_c, 0, 61, 53
4, 126280, Control_c, 0, 64, 127
4, 126320, Note_on_c, 0, 61, 0
4, 126320, Note_on_c, 0, 73, 53
4, 126400, Note_on_c, 0, 73, 0
4, 126400, Note_on_c, 0, 61, 52
4, 126480, Note_on_c, 0, 61, 0
4, 126480, Control_c, 0, 64, 0
4, 126480, Note_on_c, 0, 59, 52
4, 126520, Control_c, 0, 64, 127
4, 126560, Note_on_c, 0, 59, 0
4, 126560, Note_on_c, 0, 71, 51
4, 126640, Note_on_c, 0, 71, 0
4, 126640, Note_on_c, 0, 59, 51
4, 126720, Note_on_c, 0, 59, 0
4, 126720, Control_c, 0, 64, 0
4, 126720, Note_on_c, 0, 57, 51
4, 126760, Control_c, 0, 64, 127
4, 126800, Note_on_c, 0, 57, 0
4, 126800, Note_on_c, 0, 69, 50
4, 126880, Note_on_c, 0, 69, 0
4, 126880, Note_on_c, 0, 57, 50
4, 126960, Note_on_c, 0, 57, 0
4, 126960, Control_c, 0, 64, 0
4, 126960, Note_on_c, 0, 55, 49
4, 127000, Control_c, 0, 64, 127
4, 127040, Note_on_c, 0, 55, 0
4, 127040, Note_on_c, 0, 67, 49
4, 127120, Note_on_c, 0, 67, 0
4, 127120, Note_on_c, 0, 55, 48
4, 127200, Note_on_c, 0, 55, 0
4, 127200, Control_c, 0, 64, 0
4, 127200, Note_on_c, 0, 52, 48
4, 127240, Control_c, 0, 64, 127
4, 127280, Note_on_c, 0, 52, 0
4, 127280, Note_on_c, 0, 64, 48
4, 127360, Note_on_c, 0, 64, 0
4, 127360, Note_on_c, 0, 52, 47
4, 127440, Note_on_c, 0, 52, 0
4, 127440, Control_c, 0, 64, 0
4, 127440, Control_c, 0, 64, 0
4, 127440, Note_on_c, 0, 57, 47
4, 127480, Control_c, 0, 64, 127
4, 127520, Note_on_c, 0, 57, 0
4, 127520, Note_on_c, 0, 69, 48
4, 127600, Note_on_c, 0, 69, 0
4, 127600, Note_on_c, 0, 57, 49
4, 127680, Note_on_c, 0, 57, 0
4, 127680, Control_c, 0, 64, 0
4, 127680, Note_on_c, 0, 62, 49
4, 127720, Control_c, 0, 64, 127
4, 127760, Note_on_c, 0, 62, 0
4, 127760, Note_on_c, 0, 74, 50
4, 127840, Note_on_c, 0, 74, 0
4, 127840, Note_on_c, 0, 62, 51
4, 127920, Note_on_c, 0, 62, 0
4, 127920, Control_c, 0, 64, 0
4, 127920, Note_on_c, 0, 66, 52
4, 127960, Control_c, 0, 64, 127
4, 128000, Note_on_c, 0, 66, 0
4, 128000, Note_on_c, 0, 78, 53
4, 128080, Note_on_c, 0, 78, 0
4, 128080, Note_on_c, 0, 66, 54
4, 128160, Note_on_c, 0, 66, 0
4, 128160, Control_c, 0, 64, 0
4, 128160, Control_c, 0, 64, 0
4, 128160, Note_on_c, 0, 69, 55
4, 128200, Control_c, 0, 64, 127
4, 128240, Note_on_c, 0, 69, 0
4, 128240, Note_on_c, 0, 81, 55
4, 128320, Note_on_c, 0, 81, 0
4, 128320, Note_on_c, 0, 69, 56
4, 128400, Note_on_c, 0, 69, 0
4, 128400, Control_c, 0, 64, 0
4, 128400, Note_on_c, 0, 73, 57
4, 128440, Control_c, 0, 64, 127
4, 128480, Note_on_c, 0, 73, 0
4, 128480, Note_on_c, 0, 85, 58
4, 128560, Note_on_c, 0, 85, 0
4, 128560, Note_on_c, 0, 73, 59
4, 128640, Note_on_c, 0, 73, 0
4, 128640, Control_c, 0, 64, 0
4, 128640, Note_on_c, 0, 76, 60
4, 128680, Control_c, 0, 64, 127
4, 128720, Note_on_c, 0, 76, 0
4, 128720, Note_on_c, 0, 88, 61
4, 128800, Note_on_c, 0, 88, 0
4, 128800, Note_on_c, 0, 76, 61
4, 128880, Note_on_c, 0, 76, 0
4, 128880, Control_c, 0, 64, 0
4, 128880, Note_on_c, 0, 81, 62
4, 128920, Control_c, 0, 64, 127
4, 128960, Note_on_c, 0, 81, 0
4, 128960, Note_on_c, 0, 93, 63
4, 129040, Note_on_c, 0, 93, 0
4, 129040, Note_on_c, 0, 81, 64
4, 129120, Note_on_c, 0, 81, 0
4, 129120, Control_c, 0, 64, 0
4, 129120, Note_on_c, 0, 80, 65
4, 129160, Control_c, 0, 64, 127
4, 129200, Note_on_c, 0, 80, 0
4, 129200, Note_on_c, 0, 92, 66
4, 129280, Note_on_c, 0, 92, 0
4, 129280, Note_on_c, 0, 80, 67
4, 129360, Note_on_c, 0, 80, 0
4, 129360, Control_c, 0, 64, 0
4, 129360, Note_on_c, 0, 78, 68
4, 129400, Control_c, 0, 64, 127
4, 129440, Note_on_c, 0, 78, 0
4, 129440, Note_on_c, 0, 90, 68
4, 129520, Note_on_c, 0, 90, 0
4, 129520, Note_on_c, 0, 78, 69
4, 129600, Note_on_c, 0, 78, 0
4, 129600, Control_c, 0, 64, 0
4, 129600, Note_on_c, 0, 76, 69
4, 129640, Control_c, 0, 64, 127
4, 129680, Note_on_c, 0, 76, 0
4, 129680, Note_on_c, 0, 88, 68
4, 129760, Note_on_c, 0, 88, 0
4, 129760, Note_on_c, 0, 76, 67
4, 129840, Note_on_c, 0, 76, 0
4, 129840, Control_c, 0, 64, 0
4, 129840, Note_on_c, 0, 74, 66
4, 129880, Control_c, 0, 64, 127
4, 129920, Note_on_c, 0, 74, 0
4, 129920, Note_on_c, 0, 86, 65
4, 130000, Note_on_c, 0, 86, 0
4, 130000, Note_on_c, 0, 74, 63
4, 130080, Note_on_c, 0, 74, 0
4, 130080, Control_c, 0, 64, 0
4, 130080, Note_on_c, 0, 71, 62
4, 130120, Control_c, 0, 64, 127
4, 130160, Note_on_c, 0, 71, 0
4, 130160, Note_on_c, 0, 83, 61
4, 130240, Note_on_c, 0, 83, 0
4, 130240, Note_on_c, 0, 71, 60
4, 130320, Note_on_c, 0, 71, 0
4, 130320, Control_c, 0, 64, 0
4, 130320, Note_on_c, 0, 69, 59
4, 130360, Control_c, 0, 64, 127
4, 130400, Note_on_c, 0, 69, 0
4, 130400, Note_on_c, 0, 81, 57
4, 130480, Note_on_c, 0, 81, 0
4, 130480, Note_on_c, 0, 69, 56
4, 130560, Note_on_c, 0, 69, 0
4, 130560, Control_c, 0, 64, 0
4, 130560, Note_on_c, 0, 67, 55
4, 130600, Control_c, 0, 64, 127
4, 130640, Note_on_c, 0, 67, 0
4, 130640, Note_on_c, 0, 81, 54
4, 130720, Note_on_c, 0, 81, 0
4, 130720, Note_on_c, 0, 67, 52
4, 130800, Note_on_c, 0, 67, 0
4, 130800, Control_c, 0, 64, 0
4, 130800, Note_on_c, 0, 64, 51
4, 130840, Control_c, 0, 64, 127
4, 130880, Note_on_c, 0, 64, 0
4, 130880, Note_on_c, 0, 81, 50
4, 130960, Note_on_c, 0, 81, 0
4, 130960, Note_on_c, 0, 64, 49
4, 131021, Note_on_c, 0, 64, 0
4, 131040, Control_c, 0, 64, 0
4, 131040, Note_on_c, 0, 57, 49
4, 131080, Control_c, 0, 64, 127
4, 131120, Note_on_c, 0, 57, 0
4, 131120, Note_on_c, 0, 69, 50
4, 131200, Note_on_c, 0, 69, 0
4, 131200, Note_on_c, 0, 57, 50
4, 131280, Note_on_c, 0, 57, 0
4, 131280, Control_c, 0, 64, 0
4, 131280, Note_on_c, 0, 62, 51
4, 131320, Control_c, 0, 64, 127
4, 131360, Note_on_c, 0, 62, 0
4, 131360, Note_on_c, 0, 74, 52
4, 131400, Note_on_c, 0, 57, 52
4, 131440, Note_on_c, 0, 74, 0
4, 131440, Note_on_c, 0, 62, 53
4, 131520, Note_on_c, 0, 62, 0
4, 131520, Note_on_c, 0, 57, 0
4, 131520, Control_c, 0, 64, 0
4, 131520, Note_on_c, 0, 65, 54
4, 131560, Control_c, 0, 64, 127
4, 131600, Note_on_c, 0, 65, 0
4, 131600, Note_on_c, 0, 77, 54
4, 131640, Note_on_c, 0, 57, 55
4, 131680, Note_on_c, 0, 77, 0
4, 131680, Note_on_c, 0, 65, 55
4, 131760, Note_on_c, 0, 65, 0
4, 131760, Note_on_c, 0, 57, 0
4, 131760, Control_c, 0, 64, 0
4, 131760, Note_on_c, 0, 70, 58
4, 131800, Control_c, 0, 64, 127
4, 131840, Note_on_c, 0, 70, 0
4, 131840, Note_on_c, 0, 82, 57
4, 131920, Note_on_c, 0, 82, 0
4, 131920, Note_on_c, 0, 70, 56
4, 132000, Note_on_c, 0, 70, 0
4, 132000, Control_c, 0, 64, 0
4, 132000, Note_on_c, 0, 69, 55
4, 132040, Control_c, 0, 64, 127
4, 132080, Note_on_c, 0, 69, 0
4, 132080, Note_on_c, 0, 81, 54
4, 132160, Note_on_c, 0, 81, 0
4, 132160, Note_on_c, 0, 69, 53
4, 132240, Note_on_c, 0, 69, 0
4, 132240, Control_c, 0, 64, 0
4, 132240, Note_on_c, 0, 68, 52
4, 132280, Control_c, 0, 64, 127
4, 132320, Note_on_c, 0, 68, 0
4, 132320, Note_on_c, 0, 80, 51
4, 132400, Note_on_c, 0, 80, 0
4, 132400, Note_on_c, 0, 68, 50
4, 132480, Note_on_c, 0, 68, 0
4, 132480, Control_c, 0, 64, 0
4, 132480, Note_on_c, 0, 69, 51
4, 132520, Control_c, 0, 64, 127
4, 132560, Note_on_c, 0, 69, 0
4, 132560, Note_on_c, 0, 81, 52
4, 132640, Note_on_c, 0, 81, 0
4, 132640, Note_on_c, 0, 69, 53
4, 132720, Note_on_c, 0, 69, 0
4, 132720, Control_c, 0, 64, 0
4, 132720, Note_on_c, 0, 72, 54
4, 132760, Control_c, 0, 64, 127
4, 132800, Note_on_c, 0, 72, 0
4, 132800, Note_on_c, 0, 84, 55
4, 132880, Note_on_c, 0, 84, 0
4, 132880, Note_on_c, 0, 72, 56
4, 132960, Note_on_c, 0, 72, 0
4, 132960, Control_c, 0, 64, 0
4, 132960, Note_on_c, 0, 77, 57
4, 133000, Control_c, 0, 64, 127
4, 133040, Note_on_c, 0, 77, 0
4, 133040, Note_on_c, 0, 89, 58
4, 133120, Note_on_c, 0, 89, 0
4, 133120, Note_on_c, 0, 77, 59
4, 133200, Note_on_c, 0, 77, 0
4, 133200, Control_c, 0, 64, 0
4, 133200, Note_on_c, 0, 82, 62
4, 133240, Control_c, 0, 64, 127
4, 133280, Note_on_c, 0, 82, 0
4, 133280, Note_on_c, 0, 94, 61
4, 133360, Note_on_c, 0, 94, 0
4, 133360, Note_on_c, 0, 82, 60
4, 133440, Note_on_c, 0, 82, 0
4, 133440, Control_c, 0, 64, 0
4, 133440, Note_on_c, 0, 81, 60
4, 133480, Control_c, 0, 64, 127
4, 133520, Note_on_c, 0, 81, 0
4, 133520, Note_on_c, 0, 93, 59
4, 133600, Note_on_c, 0, 93, 0
4, 133600, Note_on_c, 0, 81, 58
4, 133680, Note_on_c, 0, 81, 0
4, 133680, Control_c, 0, 64, 0
4, 133680, Note_on_c, 0, 80, 57
4, 133720, Control_c, 0, 64, 127
4, 133760, Note_on_c, 0, 80, 0
4, 133760, Note_on_c, 0, 92, 56
4, 133840, Note_on_c, 0, 92, 0
4, 133840, Note_on_c, 0, 80, 56
4, 133920, Note_on_c, 0, 80, 0
4, 133920, Control_c, 0, 64, 0
4, 133920, Note_on_c, 0, 81, 55
4, 133960, Control_c, 0, 64, 127
4, 134000, Note_on_c, 0, 81, 0
4, 134000, Note_on_c, 0, 93, 56
4, 134080, Note_on_c, 0, 93, 0
4, 134080, Note_on_c, 0, 81, 56
4, 134160, Note_on_c, 0, 81, 0
4, 134160, Control_c, 0, 64, 0
4, 134160, Note_on_c, 0, 81, 57
4, 134200, Control_c, 0, 64, 127
4, 134240, Note_on_c, 0, 81, 0
4, 134240, Note_on_c, 0, 93, 58
4, 134320, Note_on_c, 0, 93, 0
4, 134320, Note_on_c, 0, 81, 59
4, 134400, Note_on_c, 0, 81, 0
4, 134400, Control_c, 0, 64, 0
4, 134400, Note_on_c, 0, 82, 60
4, 134440, Control_c, 0, 64, 127
4, 134480, Note_on_c, 0, 82, 0
4, 134480, Note_on_c, 0, 94, 60
4, 134560, Note_on_c, 0, 94, 0
4, 134560, Note_on_c, 0, 82, 61
4, 134640, Note_on_c, 0, 82, 0
4, 134640, Control_c, 0, 64, 0
4, 134640, Note_on_c, 0, 83, 62
4, 134680, Control_c, 0, 64, 127
4, 134720, Note_on_c, 0, 83, 0
4, 134720, Note_on_c, 0, 95, 63
4, 134800, Note_on_c, 0, 95, 0
4, 134800, Note_on_c, 0, 83, 63
4, 134880, Note_on_c, 0, 83, 0
4, 134880, Control_c, 0, 64, 0
4, 134880, Note_on_c, 0, 83, 64
4, 134920, Control_c, 0, 64, 127
4, 134960, Note_on_c, 0, 83, 0
4, 134960, Note_on_c, 0, 95, 65
4, 135040, Note_on_c, 0, 95, 0
4, 135040, Note_on_c, 0, 83, 66
4, 135120, Note_on_c, 0, 83, 0
4, 135120, Control_c, 0, 64, 0
4, 135120, Note_on_c, 0, 84, 67
4, 135160, Control_c, 0, 64, 127
4, 135200, Note_on_c, 0, 84, 0
4, 135200, Note_on_c, 0, 96, 67
4, 135280, Note_on_c, 0, 96, 0
4, 135280, Note_on_c, 0, 84, 68
4, 135360, Note_on_c, 0, 84, 0
4, 135360, Control_c, 0, 64, 0
4, 135360, Note_on_c, 0, 85, 69
4, 135400, Control_c, 0, 64, 127
4, 135440, Note_on_c, 0, 85, 0
4, 135440, Note_on_c, 0, 97, 70
4, 135520, Note_on_c, 0, 97, 0
4, 135520, Note_on_c, 0, 85, 70
4, 135600, Note_on_c, 0, 85, 0
4, 135600, Control_c, 0, 64, 0
4, 135600, Note_on_c, 0, 83, 71
4, 135640, Control_c, 0, 64, 127
4, 135680, Note_on_c, 0, 83, 0
4, 135680, Note_on_c, 0, 95, 72
4, 135760, Note_on_c, 0, 95, 0
4, 135760, Note_on_c, 0, 83, 73
4, 135840, Note_on_c, 0, 83, 0
4, 135840, Control_c, 0, 64, 0
4, 135840, Note_on_c, 0, 81, 74
4, 135880, Control_c, 0, 64, 127
4, 135920, Note_on_c, 0, 81, 0
4, 135920, Note_on_c, 0, 93, 74
4, 136000, Note_on_c, 0, 93, 0
4, 136000, Note_on_c, 0, 81, 75
4, 136080, Note_on_c, 0, 81, 0
4, 136080, Control_c, 0, 64, 0
4, 136080, Note_on_c, 0, 86, 76
4, 136120, Control_c, 0, 64, 127
4, 136160, Note_on_c, 0, 86, 0
4, 136160, Note_on_c, 0, 98, 75
4, 136240, Note_on_c, 0, 98, 0
4, 136240, Note_on_c, 0, 86, 73
4, 136320, Note_on_c, 0, 86, 0
4, 136320, Control_c, 0, 64, 0
4, 136320, Note_on_c, 0, 81, 71
4, 136360, Control_c, 0, 64, 127
4, 136400, Note_on_c, 0, 81, 0
4, 136400, Note_on_c, 0, 93, 70
4, 136480, Note_on_c, 0, 93, 0
4, 136480, Note_on_c, 0, 81, 68
4, 136560, Note_on_c, 0, 81, 0
4, 136560, Control_c, 0, 64, 0
4, 136560, Note_on_c, 0, 74, 67
4, 136600, Control_c, 0, 64, 127
4, 136640, Note_on_c, 0, 74, 0
4, 136640, Note_on_c, 0, 86, 65
4, 136720, Note_on_c, 0, 86, 0
4, 136720, Note_on_c, 0, 74, 63
4, 136800, Note_on_c, 0, 74, 0
4, 136800, Control_c, 0, 64, 0
4, 136800, Note_on_c, 0, 69, 62
4, 136840, Control_c, 0, 64, 127
4, 136880, Note_on_c, 0, 69, 0
4, 136880, Note_on_c, 0, 81, 59
4, 136960, Note_on_c, 0, 81, 0
4, 136960, Note_on_c, 0, 69, 57
4, 137040, Note_on_c, 0, 69, 0
4, 137040, Control_c, 0, 64, 0
4, 137040, Note_on_c, 0, 62, 55
4, 137080, Control_c, 0, 64, 127
4, 137120, Note_on_c, 0, 62, 0
4, 137120, Note_on_c, 0, 74, 53
4, 137200, Note_on_c, 0, 74, 0
4, 137200, Note_on_c, 0, 62, 51
4, 137280, Note_on_c, 0, 62, 0
4, 137280, Control_c, 0, 64, 0
4, 137280, Note_on_c, 0, 57, 49
4, 137320, Control_c, 0, 64, 127
4, 137360, Note_on_c, 0, 57, 0
4, 137360, Note_on_c, 0, 69, 47
4, 137440, Note_on_c, 0, 69, 0
4, 137440, Note_on_c, 0, 57, 45
4, 137520, Note_on_c, 0, 57, 0
4, 137520, Control_c, 0, 64, 0
4, 137520, Control_c, 0, 64, 0
4, 137560, Control_c, 0, 64, 127
4, 137640, Control_c, 0, 64, 0
4, 138480, Control_c, 0, 64, 0
4, 138520, Control_c, 0, 64, 127
4, 139440, Control_c, 0, 64, 0
4, 139480, Control_c, 0, 64, 127
4, 139920, Control_c, 0, 64, 0
4, 139960, Control_c, 0, 64, 127
4, 140400, Control_c, 0, 64, 0
4, 140440, Control_c, 0, 64, 127
4, 140880, Control_c, 0, 64, 0
4, 140920, Control_c, 0, 64, 127
4, 141360, Control_c, 0, 64, 0
4, 141400, Control_c, 0, 64, 127
4, 141840, Control_c, 0, 64, 0
4, 141880, Control_c, 0, 64, 127
4, 142320, Control_c, 0, 64, 0
4, 142360, Control_c, 0, 64, 127
4, 142800, Control_c, 0, 64, 0
4, 142840, Control_c, 0, 64, 127
4, 143280, Control_c, 0, 64, 0
4, 143320, Control_c, 0, 64, 127
4, 144240, Control_c, 0, 64, 0
4, 144280, Control_c, 0, 64, 127
4, 145200, Control_c, 0, 64, 0
4, 145240, Control_c, 0, 64, 127
4, 146160, Control_c, 0, 64, 0
4, 146160, Control_c, 0, 64, 0
4, 146200, Control_c, 0, 64, 127
4, 146280, Control_c, 0, 64, 0
4, 147120, Control_c, 0, 64, 0
4, 147160, Control_c, 0, 64, 127
4, 148080, Control_c, 0, 64, 0
4, 148120, Control_c, 0, 64, 127
4, 148560, Control_c, 0, 64, 0
4, 148600, Control_c, 0, 64, 127
4, 149040, Control_c, 0, 64, 0
4, 149080, Control_c, 0, 64, 127
4, 149520, Control_c, 0, 64, 0
4, 149560, Control_c, 0, 64, 127
4, 150000, Control_c, 0, 64, 0
4, 150040, Control_c, 0, 64, 127
4, 150480, Control_c, 0, 64, 0
4, 150520, Control_c, 0, 64, 127
4, 150960, Control_c, 0, 64, 0
4, 151000, Control_c, 0, 64, 127
4, 151440, Control_c, 0, 64, 0
4, 151480, Control_c, 0, 64, 127
4, 151920, Control_c, 0, 64, 0
4, 151960, Control_c, 0, 64, 127
4, 152880, Control_c, 0, 64, 0
4, 152920, Control_c, 0, 64, 127
4, 153840, Control_c, 0, 64, 0
4, 153880, Control_c, 0, 64, 127
4, 154800, Control_c, 0, 64, 0
4, 154800, Control_c, 0, 64, 0
4, 154840, Control_c, 0, 64, 127
4, 155760, Control_c, 0, 64, 0
4, 155800, Control_c, 0, 64, 127
4, 156720, Control_c, 0, 64, 0
4, 156760, Control_c, 0, 64, 127
4, 157680, Control_c, 0, 64, 0
4, 157720, Control_c, 0, 64, 127
4, 158640, Control_c, 0, 64, 0
4, 158680, Control_c, 0, 64, 127
4, 159600, Control_c, 0, 64, 0
4, 159640, Control_c, 0, 64, 127
4, 160560, Control_c, 0, 64, 0
4, 160600, Control_c, 0, 64, 127
4, 161520, Control_c, 0, 64, 0
4, 161560, Control_c, 0, 64, 127
4, 162360, Control_c, 0, 64, 0
4, 162400, Control_c, 0, 64, 127
4, 162840, Control_c, 0, 64, 0
4, 162880, Control_c, 0, 64, 127
4, 164220, Control_c, 0, 64, 0
4, 164400, Control_c, 0, 64, 0
4, 164400, Control_c, 0, 64, 0
4, 173040, Control_c, 0, 64, 0
4, 173040, Control_c, 0, 64, 0
4, 181680, Control_c, 0, 64, 0
4, 191280, Control_c, 0, 64, 0
4, 191280, Control_c, 0, 64, 0
4, 191320, Control_c, 0, 64, 127
4, 192240, Control_c, 0, 64, 0
4, 192240, Control_c, 0, 64, 0
4, 192280, Control_c, 0, 64, 127
4, 193200, Control_c, 0, 64, 0
4, 193240, Control_c, 0, 64, 127
4, 194160, Control_c, 0, 64, 0
4, 194200, Control_c, 0, 64, 127
4, 195120, Control_c, 0, 64, 0
4, 195160, Control_c, 0, 64, 127
4, 196080, Control_c, 0, 64, 0
4, 196120, Control_c, 0, 64, 127
4, 197040, Control_c, 0, 64, 0
4, 197080, Control_c, 0, 64, 127
4, 198000, Control_c, 0, 64, 0
4, 198040, Control_c, 0, 64, 127
4, 198960, Control_c, 0, 64, 0
4, 199920, Control_c, 0, 64, 0
4, 199920, Control_c, 0, 64, 0
4, 199960, Control_c, 0, 64, 127
4, 200880, Control_c, 0, 64, 0
4, 200880, Control_c, 0, 64, 0
4, 200920, Control_c, 0, 64, 127
4, 201840, Control_c, 0, 64, 0
4, 201880, Control_c, 0, 64, 127
4, 202800, Control_c, 0, 64, 0
4, 202840, Control_c, 0, 64, 127
4, 203760, Control_c, 0, 64, 0
4, 203800, Control_c, 0, 64, 127
4, 204720, Control_c, 0, 64, 0
4, 204760, Control_c, 0, 64, 127
4, 205680, Control_c, 0, 64, 0
4, 205720, Control_c, 0, 64, 127
4, 206640, Control_c, 0, 64, 0
4, 206680, Control_c, 0, 64, 127
4, 207600, Control_c, 0, 64, 0
4, 208560, Control_c, 0, 64, 0
4, 208560, Control_c, 0, 64, 0
4, 208600, Control_c, 0, 64, 127
4, 209520, Control_c, 0, 64, 0
4, 209520, Control_c, 0, 64, 0
4, 209560, Control_c, 0, 64, 127
4, 210480, Control_c, 0, 64, 0
4, 210520, Control_c, 0, 64, 127
4, 211440, Control_c, 0, 64, 0
4, 211480, Control_c, 0, 64, 127
4, 212400, Control_c, 0, 64, 0
4, 212440, Control_c, 0, 64, 127
4, 213360, Control_c, 0, 64, 0
4, 213400, Control_c, 0, 64, 127
4, 214320, Control_c, 0, 64, 0
4, 214360, Control_c, 0, 64, 127
4, 215280, Control_c, 0, 64, 0
4, 215320, Control_c, 0, 64, 127
4, 216240, Control_c, 0, 64, 0
4, 216280, Control_c, 0, 64, 127
4, 217080, Control_c, 0, 64, 0
4, 217200, Control_c, 0, 64, 0
4, 225840, Control_c, 0, 64, 0
4, 234480, Control_c, 0, 64, 0
4, 235440, Control_c, 0, 64, 0
4, 243120, Control_c, 0, 64, 0
4, 243120, Note_on_c, 0, 38, 47
4, 243160, Note_on_c, 0, 38, 0
4, 243160, Note_on_c, 0, 40, 47
4, 243200, Note_on_c, 0, 40, 0
4, 243200, Note_on_c, 0, 38, 47
4, 243240, Note_on_c, 0, 38, 0
4, 243240, Note_on_c, 0, 40, 47
4, 243280, Note_on_c, 0, 40, 0
4, 243280, Note_on_c, 0, 38, 48
4, 243320, Note_on_c, 0, 38, 0
4, 243320, Note_on_c, 0, 40, 48
4, 243360, Note_on_c, 0, 40, 0
4, 243360, Note_on_c, 0, 38, 48
4, 243400, Note_on_c, 0, 38, 0
4, 243400, Note_on_c, 0, 40, 48
4, 243440, Note_on_c, 0, 40, 0
4, 243440, Note_on_c, 0, 38, 48
4, 243480, Note_on_c, 0, 38, 0
4, 243480, Note_on_c, 0, 40, 48
4, 243520, Note_on_c, 0, 40, 0
4, 243520, Note_on_c, 0, 38, 49
4, 243560, Note_on_c, 0, 38, 0
4, 243560, Note_on_c, 0, 40, 49
4, 243600, Note_on_c, 0, 40, 0
4, 243600, Note_on_c, 0, 38, 49
4, 243640, Note_on_c, 0, 38, 0
4, 243640, Note_on_c, 0, 40, 49
4, 243680, Note_on_c, 0, 40, 0
4, 243680, Note_on_c, 0, 38, 49
4, 243720, Note_on_c, 0, 38, 0
4, 243720, Note_on_c, 0, 40, 49
4, 243760, Note_on_c, 0, 40, 0
4, 243760, Note_on_c, 0, 38, 50
4, 243800, Note_on_c, 0, 38, 0
4, 243800, Note_on_c, 0, 40, 50
4, 243840, Note_on_c, 0, 40, 0
4, 243840, Note_on_c, 0, 38, 50
4, 243880, Note_on_c, 0, 38, 0
4, 243880, Note_on_c, 0, 40, 50
4, 243920, Note_on_c, 0, 40, 0
4, 243920, Note_on_c, 0, 38, 50
4, 243960, Note_on_c, 0, 38, 0
4, 243960, Note_on_c, 0, 40, 51
4, 244000, Note_on_c, 0, 40, 0
4, 244000, Note_on_c, 0, 38, 51
4, 244040, Note_on_c, 0, 38, 0
4, 244040, Note_on_c, 0, 40, 51
4, 244080, Note_on_c, 0, 40, 0
4, 244080, Note_on_c, 0, 38, 51
4, 244120, Note_on_c, 0, 38, 0
4, 244120, Note_on_c, 0, 40, 51
4, 244160, Note_on_c, 0, 40, 0
4, 244160, Note_on_c, 0, 38, 51
4, 244200, Note_on_c, 0, 38, 0
4, 244200, Note_on_c, 0, 40, 52
4, 244240, Note_on_c, 0, 40, 0
4, 244240, Note_on_c, 0, 38, 52
4, 244280, Note_on_c, 0, 38, 0
4, 244280, Note_on_c, 0, 40, 52
4, 244320, Note_on_c, 0, 40, 0
4, 244320, Note_on_c, 0, 38, 52
4, 244360, Note_on_c, 0, 38, 0
4, 244360, Note_on_c, 0, 40, 52
4, 244400, Note_on_c, 0, 40, 0
4, 244400, Note_on_c, 0, 38, 52
4, 244440, Note_on_c, 0, 38, 0
4, 244440, Note_on_c, 0, 40, 53
4, 244480, Note_on_c, 0, 40, 0
4, 244480, Note_on_c, 0, 38, 53
4, 244520, Note_on_c, 0, 38, 0
4, 244520, Note_on_c, 0, 40, 53
4, 244560, Note_on_c, 0, 40, 0
4, 244560, Note_on_c, 0, 38, 53
4, 244600, Note_on_c, 0, 38, 0
4, 244600, Note_on_c, 0, 40, 53
4, 244640, Note_on_c, 0, 40, 0
4, 244640, Note_on_c, 0, 38, 53
4, 244680, Note_on_c, 0, 38, 0
4, 244680, Note_on_c, 0, 40, 54
4, 244720, Note_on_c, 0, 40, 0
4, 244720, Note_on_c, 0, 38, 54
4, 244760, Note_on_c, 0, 38, 0
4, 244760, Note_on_c, 0, 40, 54
4, 244800, Note_on_c, 0, 40, 0
4, 244800, Note_on_c, 0, 38, 54
4, 244840, Note_on_c, 0, 38, 0
4, 244840, Note_on_c, 0, 40, 54
4, 244880, Note_on_c, 0, 40, 0
4, 244880, Note_on_c, 0, 38, 54
4, 244920, Note_on_c, 0, 38, 0
4, 244920, Note_on_c, 0, 40, 55
4, 244960, Note_on_c, 0, 40, 0
4, 244960, Note_on_c, 0, 38, 55
4, 245000, Note_on_c, 0, 38, 0
4, 245000, Note_on_c, 0, 40, 55
4, 245040, Note_on_c, 0, 40, 0
4, 245040, Note_on_c, 0, 38, 55
4, 245080, Note_on_c, 0, 38, 0
4, 245080, Note_on_c, 0, 40, 55
4, 245120, Note_on_c, 0, 40, 0
4, 245120, Note_on_c, 0, 38, 55
4, 245160, Note_on_c, 0, 38, 0
4, 245160, Note_on_c, 0, 40, 56
4, 245200, Note_on_c, 0, 40, 0
4, 245200, Note_on_c, 0, 38, 56
4, 245240, Note_on_c, 0, 38, 0
4, 245240, Note_on_c, 0, 40, 56
4, 245280, Note_on_c, 0, 40, 0
4, 245280, Note_on_c, 0, 38, 58
4, 245320, Note_on_c, 0, 38, 0
4, 245320, Note_on_c, 0, 40, 58
4, 245360, Note_on_c, 0, 40, 0
4, 245360, Note_on_c, 0, 38, 58
4, 245400, Note_on_c, 0, 38, 0
4, 245400, Note_on_c, 0, 40, 58
4, 245440, Note_on_c, 0, 40, 0
4, 245440, Note_on_c, 0, 38, 58
4, 245480, Note_on_c, 0, 38, 0
4, 245480, Note_on_c, 0, 40, 58
4, 245520, Note_on_c, 0, 40, 0
4, 245520, Note_on_c, 0, 38, 58
4, 245560, Note_on_c, 0, 38, 0
4, 245560, Note_on_c, 0, 40, 57
4, 245600, Note_on_c, 0, 40, 0
4, 245600, Note_on_c, 0, 38, 57
4, 245640, Note_on_c, 0, 38, 0
4, 245640, Note_on_c, 0, 40, 57
4, 245680, Note_on_c, 0, 40, 0
4, 245680, Note_on_c, 0, 38, 57
4, 245720, Note_on_c, 0, 38, 0
4, 245720, Note_on_c, 0, 40, 57
4, 245760, Note_on_c, 0, 40, 0
4, 245760, Note_on_c, 0, 38, 57
4, 245800, Note_on_c, 0, 38, 0
4, 245800, Note_on_c, 0, 40, 57
4, 245840, Note_on_c, 0, 40, 0
4, 245840, Note_on_c, 0, 38, 57
4, 245880, Note_on_c, 0, 38, 0
4, 245880, Note_on_c, 0, 40, 56
4, 245920, Note_on_c, 0, 40, 0
4, 245920, Note_on_c, 0, 38, 56
4, 245960, Note_on_c, 0, 38, 0
4, 245960, Note_on_c, 0, 40, 56
4, 246000, Note_on_c, 0, 40, 0
4, 246000, Note_on_c, 0, 38, 56
4, 246040, Note_on_c, 0, 38, 0
4, 246040, Note_on_c, 0, 40, 56
4, 246080, Note_on_c, 0, 40, 0
4, 246080, Note_on_c, 0, 38, 56
4, 246120, Note_on_c, 0, 38, 0
4, 246120, Note_on_c, 0, 40, 56
4, 246160, Note_on_c, 0, 40, 0
4, 246160, Note_on_c, 0, 38, 56
4, 246200, Note_on_c, 0, 38, 0
4, 246200, Note_on_c, 0, 40, 55
4, 246240, Note_on_c, 0, 40, 0
4, 246240, Note_on_c, 0, 38, 55
4, 246280, Note_on_c, 0, 38, 0
4, 246280, Note_on_c, 0, 40, 55
4, 246320, Note_on_c, 0, 40, 0
4, 246320, Note_on_c, 0, 38, 55
4, 246360, Note_on_c, 0, 38, 0
4, 246360, Note_on_c, 0, 40, 55
4, 246400, Note_on_c, 0, 40, 0
4, 246400, Note_on_c, 0, 38, 55
4, 246440, Note_on_c, 0, 38, 0
4, 246440, Note_on_c, 0, 40, 55
4, 246480, Note_on_c, 0, 40, 0
4, 246480, Note_on_c, 0, 38, 55
4, 246520, Note_on_c, 0, 38, 0
4, 246520, Note_on_c, 0, 40, 54
4, 246560, Note_on_c, 0, 40, 0
4, 246560, Note_on_c, 0, 38, 54
4, 246600, Note_on_c, 0, 38, 0
4, 246600, Note_on_c, 0, 40, 54
4, 246640, Note_on_c, 0, 40, 0
4, 246640, Note_on_c, 0, 38, 54
4, 246680, Note_on_c, 0, 38, 0
4, 246680, Note_on_c, 0, 40, 54
4, 246720, Note_on_c, 0, 40, 0
4, 246720, Note_on_c, 0, 38, 54
4, 246760, Note_on_c, 0, 38, 0
4, 246760, Note_on_c, 0, 40, 54
4, 246800, Note_on_c, 0, 40, 0
4, 246800, Note_on_c, 0, 38, 53
4, 246840, Note_on_c, 0, 38, 0
4, 246840, Note_on_c, 0, 40, 53
4, 246880, Note_on_c, 0, 40, 0
4, 246880, Note_on_c, 0, 38, 53
4, 246920, Note_on_c, 0, 38, 0
4, 246920, Note_on_c, 0, 40, 53
4, 246960, Note_on_c, 0, 40, 0
4, 246960, Note_on_c, 0, 38, 53
4, 247000, Note_on_c, 0, 38, 0
4, 247000, Note_on_c, 0, 40, 53
4, 247040, Note_on_c, 0, 40, 0
4, 247040, Note_on_c, 0, 38, 53
4, 247080, Note_on_c, 0, 38, 0
4, 247080, Note_on_c, 0, 40, 53
4, 247120, Note_on_c, 0, 40, 0
4, 247120, Note_on_c, 0, 38, 52
4, 247160, Note_on_c, 0, 38, 0
4, 247160, Note_on_c, 0, 40, 52
4, 247200, Note_on_c, 0, 40, 0
4, 247200, Note_on_c, 0, 38, 52
4, 247240, Note_on_c, 0, 38, 0
4, 247240, Note_on_c, 0, 40, 52
4, 247280, Note_on_c, 0, 40, 0
4, 247280, Note_on_c, 0, 38, 52
4, 247320, Note_on_c, 0, 38, 0
4, 247320, Note_on_c, 0, 40, 52
4, 247360, Note_on_c, 0, 40, 0
4, 247360, Note_on_c, 0, 38, 52
4, 247400, Note_on_c, 0, 38, 0
4, 247400, Note_on_c, 0, 40, 52
4, 247440, Note_on_c, 0, 40, 0
4, 247440, Note_on_c, 0, 38, 51
4, 247480, Note_on_c, 0, 38, 0
4, 247480, Note_on_c, 0, 40, 51
4, 247520, Note_on_c, 0, 40, 0
4, 247520, Note_on_c, 0, 38, 51
4, 247560, Note_on_c, 0, 38, 0
4, 247560, Note_on_c, 0, 40, 51
4, 247600, Note_on_c, 0, 40, 0
4, 247600, Note_on_c, 0, 38, 51
4, 247640, Note_on_c, 0, 38, 0
4, 247640, Note_on_c, 0, 40, 51
4, 247680, Note_on_c, 0, 40, 0
4, 247680, Note_on_c, 0, 37, 51
4, 247720, Note_on_c, 0, 37, 0
4, 247720, Note_on_c, 0, 38, 50
4, 247760, Note_on_c, 0, 38, 0
4, 247760, Note_on_c, 0, 37, 50
4, 247800, Note_on_c, 0, 37, 0
4, 247800, Note_on_c, 0, 38, 50
4, 247840, Note_on_c, 0, 38, 0
4, 247840, Note_on_c, 0, 37, 50
4, 247880, Note_on_c, 0, 37, 0
4, 247880, Note_on_c, 0, 38, 50
4, 247920, Note_on_c, 0, 38, 0
4, 247920, Note_on_c, 0, 36, 50
4, 247960, Note_on_c, 0, 36, 0
4, 247960, Note_on_c, 0, 38, 50
4, 248000, Note_on_c, 0, 38, 0
4, 248000, Note_on_c, 0, 36, 50
4, 248040, Note_on_c, 0, 36, 0
4, 248040, Note_on_c, 0, 38, 49
4, 248080, Note_on_c, 0, 38, 0
4, 248080, Note_on_c, 0, 36, 49
4, 248120, Note_on_c, 0, 36, 0
4, 248120, Note_on_c, 0, 38, 49
4, 248160, Note_on_c, 0, 38, 0
4, 248160, Note_on_c, 0, 35, 49
4, 248200, Note_on_c, 0, 35, 0
4, 248200, Note_on_c, 0, 36, 49
4, 248240, Note_on_c, 0, 36, 0
4, 248240, Note_on_c, 0, 35, 49
4, 248280, Note_on_c, 0, 35, 0
4, 248280, Note_on_c, 0, 36, 49
4, 248320, Note_on_c, 0, 36, 0
4, 248320, Note_on_c, 0, 35, 49
4, 248360, Note_on_c, 0, 35, 0
4, 248360, Note_on_c, 0, 36, 48
4, 248400, Note_on_c, 0, 36, 0
4, 248400, Note_on_c, 0, 34, 48
4, 248440, Note_on_c, 0, 34, 0
4, 248440, Note_on_c, 0, 36, 48
4, 248480, Note_on_c, 0, 36, 0
4, 248480, Note_on_c, 0, 34, 48
4, 248520, Note_on_c, 0, 34, 0
4, 248520, Note_on_c, 0, 36, 48
4, 248560, Note_on_c, 0, 36, 0
4, 248560, Note_on_c, 0, 34, 48
4, 248600, Note_on_c, 0, 34, 0
4, 248600, Note_on_c, 0, 36, 48
4, 248640, Note_on_c, 0, 36, 0
4, 248640, Note_on_c, 0, 34, 48
4, 248680, Note_on_c, 0, 34, 0
4, 248680, Note_on_c, 0, 36, 47
4, 248720, Note_on_c, 0, 36, 0
4, 248720, Note_on_c, 0, 34, 47
4, 248760, Note_on_c, 0, 34, 0
4, 248760, Note_on_c, 0, 36, 47
4, 248800, Note_on_c, 0, 36, 0
4, 248800, Note_on_c, 0, 34, 47
4, 248840, Note_on_c, 0, 34, 0
4, 248840, Note_on_c, 0, 36, 47
4, 248880, Note_on_c, 0, 36, 0
4, 248880, Note_on_c, 0, 33, 47
4, 248920, Note_on_c, 0, 33, 0
4, 248920, Note_on_c, 0, 34, 47
4, 248960, Note_on_c, 0, 34, 0
4, 248960, Note_on_c, 0, 33, 46
4, 249000, Note_on_c, 0, 33, 0
4, 249000, Note_on_c, 0, 34, 46
4, 249040, Note_on_c, 0, 34, 0
4, 249040, Note_on_c, 0, 33, 46
4, 249080, Note_on_c, 0, 33, 0
4, 249080, Note_on_c, 0, 34, 46
4, 249120, Note_on_c, 0, 34, 0
4, 249120, Note_on_c, 0, 45, 46
4, 249160, Note_on_c, 0, 45, 0
4, 249160, Note_on_c, 0, 47, 46
4, 249200, Note_on_c, 0, 47, 0
4, 249200, Note_on_c, 0, 45, 46
4, 249240, Note_on_c, 0, 45, 0
4, 249240, Note_on_c, 0, 47, 46
4, 249280, Note_on_c, 0, 47, 0
4, 249280, Note_on_c, 0, 45, 45
4, 249320, Note_on_c, 0, 45, 0
4, 249320, Note_on_c, 0, 47, 45
4, 249360, Note_on_c, 0, 47, 0
4, 249360, Note_on_c, 0, 57, 45
4, 249400, Note_on_c, 0, 57, 0
4, 249400, Note_on_c, 0, 59, 45
4, 249440, Note_on_c, 0, 59, 0
4, 249440, Note_on_c, 0, 57, 45
4, 249480, Note_on_c, 0, 57, 0
4, 249480, Note_on_c, 0, 56, 45
4, 249540, Note_on_c, 0, 57, 45
4, 249543, Note_on_c, 0, 56, 0
4, 249600, Note_on_c, 0, 62, 45
4, 249603, Note_on_c, 0, 57, 0
4, 249640, Note_on_c, 0, 62, 0
4, 249640, Note_on_c, 0, 64, 45
4, 249680, Note_on_c, 0, 64, 0
4, 249680, Note_on_c, 0, 62, 45
4, 249720, Note_on_c, 0, 62, 0
4, 249720, Note_on_c, 0, 64, 46
4, 249760, Note_on_c, 0, 64, 0
4, 249760, Note_on_c, 0, 62, 46
4, 249800, Note_on_c, 0, 62, 0
4, 249800, Note_on_c, 0, 64, 46
4, 249840, Note_on_c, 0, 64, 0
4, 249840, Note_on_c, 0, 62, 46
4, 249880, Note_on_c, 0, 62, 0
4, 249880, Note_on_c, 0, 64, 47
4, 249920, Note_on_c, 0, 64, 0
4, 249920, Note_on_c, 0, 62, 47
4, 249960, Note_on_c, 0, 62, 0
4, 249960, Note_on_c, 0, 64, 47
4, 250000, Note_on_c, 0, 64, 0
4, 250000, Note_on_c, 0, 62, 47
4, 250040, Note_on_c, 0, 62, 0
4, 250040, Note_on_c, 0, 64, 48
4, 250080, Note_on_c, 0, 64, 0
4, 250080, Note_on_c, 0, 62, 48
4, 250120, Note_on_c, 0, 62, 0
4, 250120, Note_on_c, 0, 64, 48
4, 250160, Note_on_c, 0, 64, 0
4, 250160, Note_on_c, 0, 62, 48
4, 250200, Note_on_c, 0, 62, 0
4, 250200, Note_on_c, 0, 64, 49
4, 250240, Note_on_c, 0, 64, 0
4, 250240, Note_on_c, 0, 62, 49
4, 250280, Note_on_c, 0, 62, 0
4, 250280, Note_on_c, 0, 64, 49
4, 250320, Note_on_c, 0, 64, 0
4, 250320, Note_on_c, 0, 62, 49
4, 250360, Note_on_c, 0, 62, 0
4, 250360, Note_on_c, 0, 64, 50
4, 250400, Note_on_c, 0, 64, 0
4, 250400, Note_on_c, 0, 62, 50
4, 250440, Note_on_c, 0, 62, 0
4, 250440, Note_on_c, 0, 64, 50
4, 250480, Note_on_c, 0, 64, 0
4, 250480, Note_on_c, 0, 62, 50
4, 250520, Note_on_c, 0, 62, 0
4, 250520, Note_on_c, 0, 64, 51
4, 250560, Note_on_c, 0, 64, 0
4, 250560, Note_on_c, 0, 62, 51
4, 250600, Note_on_c, 0, 62, 0
4, 250600, Note_on_c, 0, 64, 51
4, 250640, Note_on_c, 0, 64, 0
4, 250640, Note_on_c, 0, 62, 51
4, 250680, Note_on_c, 0, 62, 0
4, 250680, Note_on_c, 0, 64, 52
4, 250720, Note_on_c, 0, 64, 0
4, 250720, Note_on_c, 0, 62, 52
4, 250760, Note_on_c, 0, 62, 0
4, 250760, Note_on_c, 0, 64, 52
4, 250800, Note_on_c, 0, 64, 0
4, 250800, Note_on_c, 0, 62, 52
4, 250840, Note_on_c, 0, 62, 0
4, 250840, Note_on_c, 0, 64, 53
4, 250880, Note_on_c, 0, 64, 0
4, 250880, Note_on_c, 0, 62, 53
4, 250920, Note_on_c, 0, 62, 0
4, 250920, Note_on_c, 0, 64, 53
4, 250960, Note_on_c, 0, 64, 0
4, 250960, Note_on_c, 0, 62, 53
4, 251000, Note_on_c, 0, 62, 0
4, 251000, Note_on_c, 0, 64, 54
4, 251040, Note_on_c, 0, 64, 0
4, 251040, Note_on_c, 0, 62, 56
4, 251080, Note_on_c, 0, 62, 0
4, 251080, Note_on_c, 0, 64, 56
4, 251120, Note_on_c, 0, 64, 0
4, 251120, Note_on_c, 0, 62, 56
4, 251160, Note_on_c, 0, 62, 0
4, 251160, Note_on_c, 0, 64, 56
4, 251200, Note_on_c, 0, 64, 0
4, 251200, Note_on_c, 0, 62, 55
4, 251240, Note_on_c, 0, 62, 0
4, 251240, Note_on_c, 0, 64, 55
4, 251280, Note_on_c, 0, 64, 0
4, 251280, Note_on_c, 0, 62, 55
4, 251320, Note_on_c, 0, 62, 0
4, 251320, Note_on_c, 0, 64, 55
4, 251360, Note_on_c, 0, 64, 0
4, 251360, Note_on_c, 0, 62, 54
4, 251400, Note_on_c, 0, 62, 0
4, 251400, Note_on_c, 0, 64, 54
4, 251440, Note_on_c, 0, 64, 0
4, 251440, Note_on_c, 0, 62, 54
4, 251480, Note_on_c, 0, 62, 0
4, 251480, Note_on_c, 0, 64, 54
4, 251520, Note_on_c, 0, 64, 0
4, 251520, Note_on_c, 0, 62, 54
4, 251560, Note_on_c, 0, 62, 0
4, 251560, Note_on_c, 0, 64, 53
4, 251600, Note_on_c, 0, 64, 0
4, 251600, Note_on_c, 0, 62, 53
4, 251640, Note_on_c, 0, 62, 0
4, 251640, Note_on_c, 0, 64, 53
4, 251680, Note_on_c, 0, 64, 0
4, 251680, Note_on_c, 0, 62, 53
4, 251720, Note_on_c, 0, 62, 0
4, 251720, Note_on_c, 0, 64, 52
4, 251760, Note_on_c, 0, 64, 0
4, 251760, Note_on_c, 0, 62, 52
4, 251800, Note_on_c, 0, 62, 0
4, 251800, Note_on_c, 0, 64, 52
4, 251840, Note_on_c, 0, 64, 0
4, 251840, Note_on_c, 0, 62, 52
4, 251880, Note_on_c, 0, 62, 0
4, 251880, Note_on_c, 0, 64, 51
4, 251920, Note_on_c, 0, 64, 0
4, 251920, Note_on_c, 0, 62, 51
4, 251960, Note_on_c, 0, 62, 0
4, 251960, Note_on_c, 0, 64, 51
4, 252000, Note_on_c, 0, 64, 0
4, 252000, Note_on_c, 0, 62, 51
4, 252040, Note_on_c, 0, 62, 0
4, 252040, Note_on_c, 0, 64, 50
4, 252080, Note_on_c, 0, 64, 0
4, 252080, Note_on_c, 0, 62, 50
4, 252120, Note_on_c, 0, 62, 0
4, 252120, Note_on_c, 0, 64, 50
4, 252160, Note_on_c, 0, 64, 0
4, 252160, Note_on_c, 0, 62, 50
4, 252200, Note_on_c, 0, 62, 0
4, 252200, Note_on_c, 0, 64, 50
4, 252240, Note_on_c, 0, 64, 0
4, 252240, Note_on_c, 0, 62, 49
4, 252280, Note_on_c, 0, 62, 0
4, 252280, Note_on_c, 0, 64, 49
4, 252320, Note_on_c, 0, 64, 0
4, 252320, Note_on_c, 0, 62, 49
4, 252360, Note_on_c, 0, 62, 0
4, 252360, Note_on_c, 0, 64, 49
4, 252400, Note_on_c, 0, 64, 0
4, 252400, Note_on_c, 0, 62, 48
4, 252440, Note_on_c, 0, 62, 0
4, 252440, Note_on_c, 0, 64, 48
4, 252480, Note_on_c, 0, 64, 0
4, 252480, Note_on_c, 0, 62, 48
4, 252520, Note_on_c, 0, 62, 0
4, 252520, Note_on_c, 0, 64, 48
4, 252560, Note_on_c, 0, 64, 0
4, 252560, Note_on_c, 0, 62, 47
4, 252600, Note_on_c, 0, 62, 0
4, 252600, Note_on_c, 0, 64, 47
4, 252640, Note_on_c, 0, 64, 0
4, 252640, Note_on_c, 0, 62, 47
4, 252680, Note_on_c, 0, 62, 0
4, 252680, Note_on_c, 0, 64, 47
4, 252720, Note_on_c, 0, 64, 0
4, 252720, Note_on_c, 0, 62, 46
4, 252760, Note_on_c, 0, 62, 0
4, 252760, Note_on_c, 0, 64, 46
4, 252800, Note_on_c, 0, 64, 0
4, 252800, Note_on_c, 0, 62, 46
4, 252840, Note_on_c, 0, 62, 0
4, 252840, Note_on_c, 0, 64, 46
4, 252880, Note_on_c, 0, 64, 0
4, 252880, Note_on_c, 0, 62, 46
4, 252920, Note_on_c, 0, 62, 0
4, 252920, Note_on_c, 0, 64, 45
4, 252960, Note_on_c, 0, 64, 0
4, 252960, Note_on_c, 0, 62, 45
4, 253000, Note_on_c, 0, 62, 0
4, 253000, Note_on_c, 0, 64, 46
4, 253040, Note_on_c, 0, 64, 0
4, 253040, Note_on_c, 0, 62, 46
4, 253080, Note_on_c, 0, 62, 0
4, 253080, Note_on_c, 0, 64, 47
4, 253120, Note_on_c, 0, 64, 0
4, 253120, Note_on_c, 0, 62, 47
4, 253160, Note_on_c, 0, 62, 0
4, 253160, Note_on_c, 0, 64, 48
4, 253200, Note_on_c, 0, 64, 0
4, 253200, Note_on_c, 0, 62, 49
4, 253240, Note_on_c, 0, 62, 0
4, 253240, Note_on_c, 0, 64, 49
4, 253280, Note_on_c, 0, 64, 0
4, 253280, Note_on_c, 0, 62, 50
4, 253320, Note_on_c, 0, 62, 0
4, 253320, Note_on_c, 0, 64, 50
4, 253360, Note_on_c, 0, 64, 0
4, 253360, Note_on_c, 0, 62, 51
4, 253400, Note_on_c, 0, 62, 0
4, 253400, Note_on_c, 0, 64, 51
4, 253440, Note_on_c, 0, 64, 0
4, 253440, Note_on_c, 0, 62, 52
4, 253480, Note_on_c, 0, 62, 0
4, 253480, Note_on_c, 0, 64, 52
4, 253520, Note_on_c, 0, 64, 0
4, 253520, Note_on_c, 0, 62, 53
4, 253560, Note_on_c, 0, 62, 0
4, 253560, Note_on_c, 0, 64, 53
4, 253600, Note_on_c, 0, 64, 0
4, 253600, Note_on_c, 0, 62, 54
4, 253640, Note_on_c, 0, 62, 0
4, 253640, Note_on_c, 0, 64, 55
4, 253680, Note_on_c, 0, 64, 0
4, 253680, Note_on_c, 0, 62, 55
4, 253720, Note_on_c, 0, 62, 0
4, 253720, Note_on_c, 0, 64, 56
4, 253760, Note_on_c, 0, 64, 0
4, 253760, Note_on_c, 0, 62, 56
4, 253800, Note_on_c, 0, 62, 0
4, 253800, Note_on_c, 0, 64, 57
4, 253840, Note_on_c, 0, 64, 0
4, 253840, Note_on_c, 0, 62, 57
4, 253880, Note_on_c, 0, 62, 0
4, 253880, Note_on_c, 0, 64, 60
4, 253920, Note_on_c, 0, 64, 0
4, 253920, Note_on_c, 0, 62, 60
4, 253960, Note_on_c, 0, 62, 0
4, 253960, Note_on_c, 0, 64, 60
4, 254000, Note_on_c, 0, 64, 0
4, 254000, Note_on_c, 0, 62, 60
4, 254040, Note_on_c, 0, 62, 0
4, 254040, Note_on_c, 0, 64, 59
4, 254080, Note_on_c, 0, 64, 0
4, 254080, Note_on_c, 0, 62, 59
4, 254120, Note_on_c, 0, 62, 0
4, 254120, Note_on_c, 0, 64, 59
4, 254160, Note_on_c, 0, 64, 0
4, 254160, Note_on_c, 0, 61, 58
4, 254200, Note_on_c, 0, 61, 0
4, 254200, Note_on_c, 0, 62, 58
4, 254240, Note_on_c, 0, 62, 0
4, 254240, Note_on_c, 0, 61, 58
4, 254280, Note_on_c, 0, 61, 0
4, 254280, Note_on_c, 0, 62, 58
4, 254320, Note_on_c, 0, 62, 0
4, 254320, Note_on_c, 0, 61, 57
4, 254360, Note_on_c, 0, 61, 0
4, 254360, Note_on_c, 0, 62, 57
4, 254400, Note_on_c, 0, 62, 0
4, 254400, Note_on_c, 0, 60, 57
4, 254440, Note_on_c, 0, 60, 0
4, 254440, Note_on_c, 0, 62, 56
4, 254480, Note_on_c, 0, 62, 0
4, 254480, Note_on_c, 0, 60, 56
4, 254520, Note_on_c, 0, 60, 0
4, 254520, Note_on_c, 0, 62, 56
4, 254560, Note_on_c, 0, 62, 0
4, 254560, Note_on_c, 0, 60, 56
4, 254600, Note_on_c, 0, 60, 0
4, 254600, Note_on_c, 0, 62, 55
4, 254640, Note_on_c, 0, 62, 0
4, 254640, Note_on_c, 0, 59, 55
4, 254680, Note_on_c, 0, 59, 0
4, 254680, Note_on_c, 0, 61, 55
4, 254720, Note_on_c, 0, 61, 0
4, 254720, Note_on_c, 0, 59, 54
4, 254760, Note_on_c, 0, 59, 0
4, 254760, Note_on_c, 0, 61, 54
4, 254800, Note_on_c, 0, 61, 0
4, 254800, Note_on_c, 0, 59, 54
4, 254840, Note_on_c, 0, 59, 0
4, 254840, Note_on_c, 0, 61, 54
4, 254880, Note_on_c, 0, 61, 0
4, 254880, Note_on_c, 0, 58, 53
4, 254880, Note_on_c, 0, 62, 53
4, 254920, Note_on_c, 0, 58, 0
4, 254920, Note_on_c, 0, 61, 53
4, 254960, Note_on_c, 0, 61, 0
4, 254960, Note_on_c, 0, 62, 0
4, 254960, Note_on_c, 0, 58, 53
4, 255000, Note_on_c, 0, 58, 0
4, 255000, Note_on_c, 0, 61, 52
4, 255040, Note_on_c, 0, 61, 0
4, 255040, Note_on_c, 0, 58, 52
4, 255080, Note_on_c, 0, 58, 0
4, 255080, Note_on_c, 0, 61, 52
4, 255120, Note_on_c, 0, 61, 0
4, 255120, Note_on_c, 0, 58, 52
4, 255160, Note_on_c, 0, 58, 0
4, 255160, Note_on_c, 0, 61, 51
4, 255200, Note_on_c, 0, 61, 0
4, 255200, Note_on_c, 0, 58, 51
4, 255240, Note_on_c, 0, 58, 0
4, 255240, Note_on_c, 0, 61, 51
4, 255280, Note_on_c, 0, 61, 0
4, 255280, Note_on_c, 0, 58, 50
4, 255320, Note_on_c, 0, 58, 0
4, 255320, Note_on_c, 0, 61, 50
4, 255360, Note_on_c, 0, 61, 0
4, 255360, Note_on_c, 0, 57, 50
4, 255400, Note_on_c, 0, 57, 0
4, 255400, Note_on_c, 0, 58, 50
4, 255440, Note_on_c, 0, 58, 0
4, 255440, Note_on_c, 0, 57, 49
4, 255480, Note_on_c, 0, 57, 0
4, 255480, Note_on_c, 0, 58, 49
4, 255520, Note_on_c, 0, 58, 0
4, 255520, Note_on_c, 0, 57, 49
4, 255560, Note_on_c, 0, 57, 0
4, 255560, Note_on_c, 0, 58, 48
4, 255600, Note_on_c, 0, 58, 0
4, 255600, Note_on_c, 0, 57, 48
4, 255640, Note_on_c, 0, 57, 0
4, 255640, Note_on_c, 0, 58, 48
4, 255680, Note_on_c, 0, 58, 0
4, 255680, Note_on_c, 0, 57, 48
4, 255720, Note_on_c, 0, 57, 0
4, 255720, Note_on_c, 0, 58, 47
4, 255760, Note_on_c, 0, 58, 0
4, 255760, Note_on_c, 0, 57, 47
4, 255800, Note_on_c, 0, 57, 0
4, 255800, Note_on_c, 0, 58, 47
4, 255840, Note_on_c, 0, 58, 0
4, 255840, Note_on_c, 0, 45, 46
4, 255880, Note_on_c, 0, 45, 0
4, 255880, Note_on_c, 0, 46, 46
4, 255920, Note_on_c, 0, 46, 0
4, 255920, Note_on_c, 0, 45, 46
4, 255960, Note_on_c, 0, 45, 0
4, 255960, Note_on_c, 0, 46, 46
4, 256000, Note_on_c, 0, 46, 0
4, 256000, Note_on_c, 0, 45, 45
4, 256040, Note_on_c, 0, 45, 0
4, 256040, Note_on_c, 0, 46, 45
4, 256080, Note_on_c, 0, 46, 0
4, 256080, Note_on_c, 0, 38, 45
4, 256120, Note_on_c, 0, 38, 0
4, 256120, Note_on_c, 0, 40, 45
4, 256160, Note_on_c, 0, 40, 0
4, 256160, Note_on_c, 0, 38, 45
4, 256200, Note_on_c, 0, 38, 0
4, 256200, Note_on_c, 0, 40, 45
4, 256240, Note_on_c, 0, 40, 0
4, 256240, Note_on_c, 0, 38, 45
4, 256280, Note_on_c, 0, 38, 0
4, 256280, Note_on_c, 0, 40, 45
4, 256320, Note_on_c, 0, 40, 0
4, 256320, Note_on_c, 0, 38, 46
4, 256360, Note_on_c, 0, 38, 0
4, 256360, Note_on_c, 0, 40, 46
4, 256400, Note_on_c, 0, 40, 0
4, 256400, Note_on_c, 0, 38, 46
4, 256440, Note_on_c, 0, 38, 0
4, 256440, Note_on_c, 0, 40, 46
4, 256480, Note_on_c, 0, 40, 0
4, 256480, Note_on_c, 0, 38, 46
4, 256520, Note_on_c, 0, 38, 0
4, 256520, Note_on_c, 0, 40, 46
4, 256560, Note_on_c, 0, 40, 0
4, 256560, Note_on_c, 0, 38, 46
4, 256600, Note_on_c, 0, 38, 0
4, 256600, Note_on_c, 0, 40, 47
4, 256640, Note_on_c, 0, 40, 0
4, 256640, Note_on_c, 0, 38, 47
4, 256680, Note_on_c, 0, 38, 0
4, 256680, Note_on_c, 0, 40, 47
4, 256720, Note_on_c, 0, 40, 0
4, 256720, Note_on_c, 0, 38, 47
4, 256760, Note_on_c, 0, 38, 0
4, 256760, Note_on_c, 0, 40, 47
4, 256800, Note_on_c, 0, 40, 0
4, 256800, Note_on_c, 0, 36, 47
4, 256840, Note_on_c, 0, 36, 0
4, 256840, Note_on_c, 0, 38, 48
4, 256880, Note_on_c, 0, 38, 0
4, 256880, Note_on_c, 0, 36, 48
4, 256920, Note_on_c, 0, 36, 0
4, 256920, Note_on_c, 0, 38, 48
4, 256960, Note_on_c, 0, 38, 0
4, 256960, Note_on_c, 0, 36, 48
4, 257000, Note_on_c, 0, 36, 0
4, 257000, Note_on_c, 0, 38, 48
4, 257040, Note_on_c, 0, 38, 0
4, 257040, Note_on_c, 0, 36, 48
4, 257080, Note_on_c, 0, 36, 0
4, 257080, Note_on_c, 0, 38, 49
4, 257120, Note_on_c, 0, 38, 0
4, 257120, Note_on_c, 0, 36, 49
4, 257160, Note_on_c, 0, 36, 0
4, 257160, Note_on_c, 0, 38, 49
4, 257200, Note_on_c, 0, 38, 0
4, 257200, Note_on_c, 0, 36, 49
4, 257240, Note_on_c, 0, 36, 0
4, 257240, Note_on_c, 0, 38, 49
4, 257280, Note_on_c, 0, 38, 0
4, 257280, Note_on_c, 0, 36, 49
4, 257320, Note_on_c, 0, 36, 0
4, 257320, Note_on_c, 0, 38, 49
4, 257360, Note_on_c, 0, 38, 0
4, 257360, Note_on_c, 0, 36, 50
4, 257400, Note_on_c, 0, 36, 0
4, 257400, Note_on_c, 0, 38, 50
4, 257440, Note_on_c, 0, 38, 0
4, 257440, Note_on_c, 0, 36, 50
4, 257480, Note_on_c, 0, 36, 0
4, 257480, Note_on_c, 0, 38, 50
4, 257520, Note_on_c, 0, 38, 0
4, 257520, Note_on_c, 0, 36, 50
4, 257560, Note_on_c, 0, 36, 0
4, 257560, Note_on_c, 0, 38, 50
4, 257600, Note_on_c, 0, 38, 0
4, 257600, Note_on_c, 0, 36, 51
4, 257640, Note_on_c, 0, 36, 0
4, 257640, Note_on_c, 0, 38, 51
4, 257680, Note_on_c, 0, 38, 0
4, 257680, Note_on_c, 0, 36, 51
4, 257720, Note_on_c, 0, 36, 0
4, 257720, Note_on_c, 0, 38, 51
4, 257760, Note_on_c, 0, 38, 0
4, 257760, Note_on_c, 0, 36, 51
4, 257800, Note_on_c, 0, 36, 0
4, 257800, Note_on_c, 0, 38, 51
4, 257840, Note_on_c, 0, 38, 0
4, 257840, Note_on_c, 0, 36, 51
4, 257880, Note_on_c, 0, 36, 0
4, 257880, Note_on_c, 0, 38, 52
4, 257920, Note_on_c, 0, 38, 0
4, 257920, Note_on_c, 0, 36, 52
4, 257960, Note_on_c, 0, 36, 0
4, 257960, Note_on_c, 0, 38, 52
4, 258000, Note_on_c, 0, 38, 0
4, 258000, Note_on_c, 0, 36, 52
4, 258040, Note_on_c, 0, 36, 0
4, 258040, Note_on_c, 0, 38, 52
4, 258080, Note_on_c, 0, 38, 0
4, 258080, Note_on_c, 0, 36, 52
4, 258120, Note_on_c, 0, 36, 0
4, 258120, Note_on_c, 0, 38, 53
4, 258160, Note_on_c, 0, 38, 0
4, 258160, Note_on_c, 0, 36, 53
4, 258200, Note_on_c, 0, 36, 0
4, 258200, Note_on_c, 0, 38, 53
4, 258240, Note_on_c, 0, 38, 0
4, 258240, Note_on_c, 0, 37, 53
4, 258280, Note_on_c, 0, 37, 0
4, 258280, Note_on_c, 0, 38, 53
4, 258320, Note_on_c, 0, 38, 0
4, 258320, Note_on_c, 0, 37, 53
4, 258360, Note_on_c, 0, 37, 0
4, 258360, Note_on_c, 0, 38, 54
4, 258400, Note_on_c, 0, 38, 0
4, 258400, Note_on_c, 0, 37, 54
4, 258440, Note_on_c, 0, 37, 0
4, 258440, Note_on_c, 0, 38, 54
4, 258480, Note_on_c, 0, 38, 0
4, 258480, Note_on_c, 0, 37, 54
4, 258520, Note_on_c, 0, 37, 0
4, 258520, Note_on_c, 0, 38, 54
4, 258560, Note_on_c, 0, 38, 0
4, 258560, Note_on_c, 0, 37, 54
4, 258600, Note_on_c, 0, 37, 0
4, 258600, Note_on_c, 0, 38, 54
4, 258640, Note_on_c, 0, 38, 0
4, 258640, Note_on_c, 0, 37, 55
4, 258680, Note_on_c, 0, 37, 0
4, 258680, Note_on_c, 0, 38, 55
4, 258720, Note_on_c, 0, 38, 0
4, 258720, Note_on_c, 0, 37, 55
4, 258760, Note_on_c, 0, 37, 0
4, 258760, Note_on_c, 0, 38, 55
4, 258800, Note_on_c, 0, 38, 0
4, 258800, Note_on_c, 0, 37, 55
4, 258840, Note_on_c, 0, 37, 0
4, 258840, Note_on_c, 0, 38, 55
4, 258880, Note_on_c, 0, 38, 0
4, 258880, Note_on_c, 0, 37, 56
4, 258920, Note_on_c, 0, 37, 0
4, 258920, Note_on_c, 0, 38, 56
4, 258960, Note_on_c, 0, 38, 0
4, 258960, Note_on_c, 0, 38, 56
4, 259000, Note_on_c, 0, 38, 0
4, 259000, Note_on_c, 0, 40, 56
4, 259040, Note_on_c, 0, 40, 0
4, 259040, Note_on_c, 0, 38, 56
4, 259080, Note_on_c, 0, 38, 0
4, 259080, Note_on_c, 0, 40, 56
4, 259120, Note_on_c, 0, 40, 0
4, 259120, Note_on_c, 0, 38, 57
4, 259160, Note_on_c, 0, 38, 0
4, 259160, Note_on_c, 0, 40, 57
4, 259200, Note_on_c, 0, 40, 0
4, 259200, Note_on_c, 0, 38, 57
4, 259240, Note_on_c, 0, 38, 0
4, 259240, Note_on_c, 0, 40, 57
4, 259280, Note_on_c, 0, 40, 0
4, 259280, Note_on_c, 0, 38, 57
4, 259320, Note_on_c, 0, 38, 0
4, 259320, Note_on_c, 0, 40, 57
4, 259360, Note_on_c, 0, 40, 0
4, 259360, Note_on_c, 0, 38, 57
4, 259400, Note_on_c, 0, 38, 0
4, 259400, Note_on_c, 0, 40, 58
4, 259440, Note_on_c, 0, 40, 0
4, 259440, Note_on_c, 0, 38, 58
4, 259480, Note_on_c, 0, 38, 0
4, 259480, Note_on_c, 0, 40, 58
4, 259520, Note_on_c, 0, 40, 0
4, 259520, Note_on_c, 0, 38, 58
4, 259560, Note_on_c, 0, 38, 0
4, 259560, Note_on_c, 0, 40, 58
4, 259600, Note_on_c, 0, 40, 0
4, 259600, Note_on_c, 0, 38, 58
4, 259640, Note_on_c, 0, 38, 0
4, 259640, Note_on_c, 0, 40, 59
4, 259680, Note_on_c, 0, 40, 0
4, 259680, Note_on_c, 0, 38, 59
4, 259720, Note_on_c, 0, 38, 0
4, 259720, Note_on_c, 0, 40, 59
4, 259760, Note_on_c, 0, 40, 0
4, 259760, Note_on_c, 0, 38, 59
4, 259800, Note_on_c, 0, 38, 0
4, 259800, Note_on_c, 0, 40, 59
4, 259840, Note_on_c, 0, 40, 0
4, 259840, Note_on_c, 0, 38, 59
4, 259880, Note_on_c, 0, 38, 0
4, 259880, Note_on_c, 0, 40, 60
4, 259920, Note_on_c, 0, 40, 0
4, 259920, Note_on_c, 0, 38, 60
4, 259960, Note_on_c, 0, 38, 0
4, 259960, Note_on_c, 0, 40, 60
4, 260000, Note_on_c, 0, 40, 0
4, 260000, Note_on_c, 0, 38, 60
4, 260040, Note_on_c, 0, 38, 0
4, 260040, Note_on_c, 0, 40, 60
4, 260080, Note_on_c, 0, 40, 0
4, 260080, Note_on_c, 0, 38, 60
4, 260120, Note_on_c, 0, 38, 0
4, 260120, Note_on_c, 0, 40, 60
4, 260160, Note_on_c, 0, 40, 0
4, 260160, Note_on_c, 0, 38, 61
4, 260200, Note_on_c, 0, 38, 0
4, 260200, Note_on_c, 0, 40, 61
4, 260240, Note_on_c, 0, 40, 0
4, 260240, Note_on_c, 0, 38, 61
4, 260280, Note_on_c, 0, 38, 0
4, 260280, Note_on_c, 0, 40, 61
4, 260320, Note_on_c, 0, 40, 0
4, 260320, Note_on_c, 0, 38, 61
4, 260360, Note_on_c, 0, 38, 0
4, 260360, Note_on_c, 0, 40, 61
4, 260400, Note_on_c, 0, 40, 0
4, 260400, Note_on_c, 0, 38, 62
4, 260440, Note_on_c, 0, 38, 0
4, 260440, Note_on_c, 0, 40, 62
4, 260480, Note_on_c, 0, 40, 0
4, 260480, Note_on_c, 0, 38, 62
4, 260520, Note_on_c, 0, 38, 0
4, 260520, Note_on_c, 0, 40, 62
4, 260560, Note_on_c, 0, 40, 0
4, 260560, Note_on_c, 0, 38, 62
4, 260600, Note_on_c, 0, 38, 0
4, 260600, Note_on_c, 0, 40, 62
4, 260640, Note_on_c, 0, 40, 0
4, 260640, Note_on_c, 0, 38, 63
4, 260680, Note_on_c, 0, 38, 0
4, 260680, Note_on_c, 0, 40, 63
4, 260720, Note_on_c, 0, 40, 0
4, 260720, Note_on_c, 0, 38, 63
4, 260760, Note_on_c, 0, 38, 0
4, 260760, Note_on_c, 0, 40, 63
4, 260800, Note_on_c, 0, 40, 0
4, 260800, Note_on_c, 0, 38, 63
4, 260840, Note_on_c, 0, 38, 0
4, 260840, Note_on_c, 0, 40, 63
4, 260880, Note_on_c, 0, 40, 0
4, 260880, Note_on_c, 0, 38, 63
4, 260920, Note_on_c, 0, 38, 0
4, 260920, Note_on_c, 0, 40, 64
4, 260960, Note_on_c, 0, 40, 0
4, 260960, Note_on_c, 0, 38, 64
4, 261000, Note_on_c, 0, 38, 0
4, 261000, Note_on_c, 0, 40, 64
4, 261040, Note_on_c, 0, 40, 0
4, 261040, Note_on_c, 0, 38, 64
4, 261080, Note_on_c, 0, 38, 0
4, 261080, Note_on_c, 0, 40, 64
4, 261120, Note_on_c, 0, 40, 0
4, 261120, Note_on_c, 0, 38, 64
4, 261160, Note_on_c, 0, 38, 0
4, 261160, Note_on_c, 0, 40, 63
4, 261200, Note_on_c, 0, 40, 0
4, 261200, Note_on_c, 0, 38, 63
4, 261240, Note_on_c, 0, 38, 0
4, 261240, Note_on_c, 0, 40, 62
4, 261280, Note_on_c, 0, 40, 0
4, 261280, Note_on_c, 0, 38, 62
4, 261320, Note_on_c, 0, 38, 0
4, 261320, Note_on_c, 0, 40, 61
4, 261360, Note_on_c, 0, 40, 0
4, 261360, Note_on_c, 0, 38, 61
4, 261400, Note_on_c, 0, 38, 0
4, 261400, Note_on_c, 0, 40, 60
4, 261440, Note_on_c, 0, 40, 0
4, 261440, Note_on_c, 0, 38, 60
4, 261480, Note_on_c, 0, 38, 0
4, 261480, Note_on_c, 0, 40, 59
4, 261520, Note_on_c, 0, 40, 0
4, 261520, Note_on_c, 0, 38, 59
4, 261560, Note_on_c, 0, 38, 0
4, 261560, Note_on_c, 0, 40, 58
4, 261600, Note_on_c, 0, 40, 0
4, 261600, Note_on_c, 0, 38, 58
4, 261640, Note_on_c, 0, 38, 0
4, 261640, Note_on_c, 0, 40, 57
4, 261680, Note_on_c, 0, 40, 0
4, 261680, Note_on_c, 0, 38, 57
4, 261720, Note_on_c, 0, 38, 0
4, 261720, Note_on_c, 0, 40, 56
4, 261760, Note_on_c, 0, 40, 0
4, 261760, Note_on_c, 0, 38, 56
4, 261800, Note_on_c, 0, 38, 0
4, 261800, Note_on_c, 0, 40, 55
4, 261840, Note_on_c, 0, 40, 0
4, 261840, Note_on_c, 0, 38, 55
4, 261880, Note_on_c, 0, 38, 0
4, 261880, Note_on_c, 0, 40, 54
4, 261920, Note_on_c, 0, 40, 0
4, 261920, Note_on_c, 0, 38, 54
4, 261960, Note_on_c, 0, 38, 0
4, 261960, Note_on_c, 0, 40, 53
4, 262000, Note_on_c, 0, 40, 0
4, 262000, Note_on_c, 0, 38, 52
4, 262040, Note_on_c, 0, 38, 0
4, 262040, Note_on_c, 0, 40, 52
4, 262080, Note_on_c, 0, 40, 0
4, 262080, Note_on_c, 0, 50, 51
4, 262120, Note_on_c, 0, 50, 0
4, 262120, Note_on_c, 0, 52, 51
4, 262160, Note_on_c, 0, 52, 0
4, 262160, Note_on_c, 0, 50, 50
4, 262200, Note_on_c, 0, 50, 0
4, 262200, Note_on_c, 0, 52, 50
4, 262240, Note_on_c, 0, 52, 0
4, 262240, Note_on_c, 0, 50, 49
4, 262280, Note_on_c, 0, 50, 0
4, 262280, Note_on_c, 0, 52, 49
4, 262320, Note_on_c, 0, 52, 0
4, 262320, Note_on_c, 0, 62, 48
4, 262360, Note_on_c, 0, 62, 0
4, 262360, Note_on_c, 0, 64, 48
4, 262400, Note_on_c, 0, 64, 0
4, 262400, Note_on_c, 0, 62, 47
4, 262440, Note_on_c, 0, 62, 0
4, 262440, Note_on_c, 0, 64, 47
4, 262480, Note_on_c, 0, 64, 0
4, 262480, Note_on_c, 0, 62, 46
4, 262520, Note_on_c, 0, 62, 0
4, 262520, Note_on_c, 0, 64, 46
4, 262560, Note_on_c, 0, 64, 0
4, 262560, Note_on_c, 0, 62, 49
4, 262600, Note_on_c, 0, 62, 0
4, 262600, Note_on_c, 0, 64, 49
4, 262640, Note_on_c, 0, 64, 0
4, 262640, Note_on_c, 0, 62, 49
4, 262680, Note_on_c, 0, 62, 0
4, 262680, Note_on_c, 0, 64, 49
4, 262720, Note_on_c, 0, 64, 0
4, 262720, Note_on_c, 0, 62, 49
4, 262760, Note_on_c, 0, 62, 0
4, 262760, Note_on_c, 0, 64, 49
4, 262800, Note_on_c, 0, 64, 0
4, 262800, Note_on_c, 0, 62, 49
4, 262840, Note_on_c, 0, 62, 0
4, 262840, Note_on_c, 0, 64, 49
4, 262880, Note_on_c, 0, 64, 0
4, 262880, Note_on_c, 0, 62, 50
4, 262920, Note_on_c, 0, 62, 0
4, 262920, Note_on_c, 0, 64, 50
4, 262960, Note_on_c, 0, 64, 0
4, 262960, Note_on_c, 0, 62, 50
4, 263000, Note_on_c, 0, 62, 0
4, 263000, Note_on_c, 0, 64, 50
4, 263040, Note_on_c, 0, 64, 0
4, 263040, Note_on_c, 0, 62, 50
4, 263080, Note_on_c, 0, 62, 0
4, 263080, Note_on_c, 0, 64, 50
4, 263120, Note_on_c, 0, 64, 0
4, 263120, Note_on_c, 0, 62, 50
4, 263160, Note_on_c, 0, 62, 0
4, 263160, Note_on_c, 0, 64, 51
4, 263200, Note_on_c, 0, 64, 0
4, 263200, Note_on_c, 0, 62, 51
4, 263240, Note_on_c, 0, 62, 0
4, 263240, Note_on_c, 0, 64, 51
4, 263280, Note_on_c, 0, 64, 0
4, 263280, Note_on_c, 0, 64, 51
4, 263320, Note_on_c, 0, 64, 0
4, 263320, Note_on_c, 0, 65, 51
4, 263360, Note_on_c, 0, 65, 0
4, 263360, Note_on_c, 0, 64, 51
4, 263400, Note_on_c, 0, 64, 0
4, 263400, Note_on_c, 0, 65, 51
4, 263440, Note_on_c, 0, 65, 0
4, 263440, Note_on_c, 0, 64, 51
4, 263480, Note_on_c, 0, 64, 0
4, 263480, Note_on_c, 0, 65, 52
4, 263520, Note_on_c, 0, 65, 0
4, 263520, Note_on_c, 0, 64, 52
4, 263560, Note_on_c, 0, 64, 0
4, 263560, Note_on_c, 0, 65, 52
4, 263600, Note_on_c, 0, 65, 0
4, 263600, Note_on_c, 0, 64, 52
4, 263640, Note_on_c, 0, 64, 0
4, 263640, Note_on_c, 0, 65, 52
4, 263680, Note_on_c, 0, 65, 0
4, 263680, Note_on_c, 0, 64, 52
4, 263720, Note_on_c, 0, 64, 0
4, 263720, Note_on_c, 0, 65, 52
4, 263760, Note_on_c, 0, 65, 0
4, 263760, Note_on_c, 0, 64, 52
4, 263800, Note_on_c, 0, 64, 0
4, 263800, Note_on_c, 0, 65, 53
4, 263840, Note_on_c, 0, 65, 0
4, 263840, Note_on_c, 0, 64, 53
4, 263880, Note_on_c, 0, 64, 0
4, 263880, Note_on_c, 0, 65, 53
4, 263920, Note_on_c, 0, 65, 0
4, 263920, Note_on_c, 0, 64, 53
4, 263960, Note_on_c, 0, 64, 0
4, 263960, Note_on_c, 0, 65, 53
4, 264000, Note_on_c, 0, 65, 0
4, 264000, Note_on_c, 0, 65, 53
4, 264040, Note_on_c, 0, 65, 0
4, 264040, Note_on_c, 0, 67, 53
4, 264080, Note_on_c, 0, 67, 0
4, 264080, Note_on_c, 0, 65, 54
4, 264120, Note_on_c, 0, 65, 0
4, 264120, Note_on_c, 0, 67, 54
4, 264160, Note_on_c, 0, 67, 0
4, 264160, Note_on_c, 0, 65, 54
4, 264200, Note_on_c, 0, 65, 0
4, 264200, Note_on_c, 0, 67, 54
4, 264240, Note_on_c, 0, 67, 0
4, 264240, Note_on_c, 0, 65, 54
4, 264280, Note_on_c, 0, 65, 0
4, 264280, Note_on_c, 0, 67, 54
4, 264320, Note_on_c, 0, 67, 0
4, 264320, Note_on_c, 0, 65, 54
4, 264360, Note_on_c, 0, 65, 0
4, 264360, Note_on_c, 0, 67, 54
4, 264400, Note_on_c, 0, 67, 0
4, 264400, Note_on_c, 0, 65, 55
4, 264440, Note_on_c, 0, 65, 0
4, 264440, Note_on_c, 0, 67, 55
4, 264480, Note_on_c, 0, 67, 0
4, 264480, Note_on_c, 0, 65, 55
4, 264520, Note_on_c, 0, 65, 0
4, 264520, Note_on_c, 0, 67, 55
4, 264560, Note_on_c, 0, 67, 0
4, 264560, Note_on_c, 0, 65, 55
4, 264600, Note_on_c, 0, 65, 0
4, 264600, Note_on_c, 0, 67, 55
4, 264640, Note_on_c, 0, 67, 0
4, 264640, Note_on_c, 0, 65, 55
4, 264680, Note_on_c, 0, 65, 0
4, 264680, Note_on_c, 0, 67, 55
4, 264720, Note_on_c, 0, 67, 0
4, 264720, Note_on_c, 0, 64, 56
4, 264760, Note_on_c, 0, 64, 0
4, 264760, Note_on_c, 0, 65, 56
4, 264800, Note_on_c, 0, 65, 0
4, 264800, Note_on_c, 0, 64, 56
4, 264840, Note_on_c, 0, 64, 0
4, 264840, Note_on_c, 0, 65, 56
4, 264880, Note_on_c, 0, 65, 0
4, 264880, Note_on_c, 0, 64, 56
4, 264920, Note_on_c, 0, 64, 0
4, 264920, Note_on_c, 0, 65, 56
4, 264960, Note_on_c, 0, 65, 0
4, 264960, Note_on_c, 0, 64, 56
4, 265000, Note_on_c, 0, 64, 0
4, 265000, Note_on_c, 0, 65, 57
4, 265040, Note_on_c, 0, 65, 0
4, 265040, Note_on_c, 0, 64, 57
4, 265080, Note_on_c, 0, 64, 0
4, 265080, Note_on_c, 0, 65, 57
4, 265120, Note_on_c, 0, 65, 0
4, 265120, Note_on_c, 0, 64, 57
4, 265160, Note_on_c, 0, 64, 0
4, 265160, Note_on_c, 0, 65, 57
4, 265200, Note_on_c, 0, 65, 0
4, 265200, Note_on_c, 0, 63, 57
4, 265240, Note_on_c, 0, 63, 0
4, 265240, Note_on_c, 0, 65, 57
4, 265280, Note_on_c, 0, 65, 0
4, 265280, Note_on_c, 0, 63, 57
4, 265320, Note_on_c, 0, 63, 0
4, 265320, Note_on_c, 0, 65, 58
4, 265360, Note_on_c, 0, 65, 0
4, 265360, Note_on_c, 0, 63, 58
4, 265400, Note_on_c, 0, 63, 0
4, 265400, Note_on_c, 0, 65, 58
4, 265440, Note_on_c, 0, 65, 0
4, 265440, Note_on_c, 0, 62, 58
4, 265480, Note_on_c, 0, 62, 0
4, 265480, Note_on_c, 0, 64, 58
4, 265520, Note_on_c, 0, 64, 0
4, 265520, Note_on_c, 0, 62, 58
4, 265560, Note_on_c, 0, 62, 0
4, 265560, Note_on_c, 0, 64, 58
4, 265600, Note_on_c, 0, 64, 0
4, 265600, Note_on_c, 0, 62, 59
4, 265640, Note_on_c, 0, 62, 0
4, 265640, Note_on_c, 0, 64, 59
4, 265680, Note_on_c, 0, 64, 0
4, 265680, Note_on_c, 0, 62, 59
4, 265720, Note_on_c, 0, 62, 0
4, 265720, Note_on_c, 0, 64, 59
4, 265760, Note_on_c, 0, 64, 0
4, 265760, Note_on_c, 0, 62, 59
4, 265800, Note_on_c, 0, 62, 0
4, 265800, Note_on_c, 0, 64, 59
4, 265840, Note_on_c, 0, 64, 0
4, 265840, Note_on_c, 0, 62, 59
4, 265880, Note_on_c, 0, 62, 0
4, 265880, Note_on_c, 0, 64, 59
4, 265920, Note_on_c, 0, 64, 0
4, 265920, Note_on_c, 0, 62, 60
4, 265960, Note_on_c, 0, 62, 0
4, 265960, Note_on_c, 0, 64, 60
4, 266000, Note_on_c, 0, 64, 0
4, 266000, Note_on_c, 0, 62, 60
4, 266040, Note_on_c, 0, 62, 0
4, 266040, Note_on_c, 0, 64, 60
4, 266080, Note_on_c, 0, 64, 0
4, 266080, Note_on_c, 0, 62, 60
4, 266120, Note_on_c, 0, 62, 0
4, 266120, Note_on_c, 0, 64, 60
4, 266160, Note_on_c, 0, 64, 0
4, 266160, Note_on_c, 0, 62, 60
4, 266200, Note_on_c, 0, 62, 0
4, 266200, Note_on_c, 0, 64, 60
4, 266240, Note_on_c, 0, 64, 0
4, 266240, Note_on_c, 0, 62, 61
4, 266280, Note_on_c, 0, 62, 0
4, 266280, Note_on_c, 0, 64, 61
4, 266320, Note_on_c, 0, 64, 0
4, 266320, Note_on_c, 0, 62, 61
4, 266360, Note_on_c, 0, 62, 0
4, 266360, Note_on_c, 0, 64, 61
4, 266400, Note_on_c, 0, 64, 0
4, 266400, Note_on_c, 0, 62, 61
4, 266440, Note_on_c, 0, 62, 0
4, 266440, Note_on_c, 0, 64, 61
4, 266480, Note_on_c, 0, 64, 0
4, 266480, Note_on_c, 0, 62, 61
4, 266520, Note_on_c, 0, 62, 0
4, 266520, Note_on_c, 0, 64, 62
4, 266560, Note_on_c, 0, 64, 0
4, 266560, Note_on_c, 0, 62, 62
4, 266600, Note_on_c, 0, 62, 0
4, 266600, Note_on_c, 0, 64, 62
4, 266640, Note_on_c, 0, 64, 0
4, 266640, Note_on_c, 0, 62, 62
4, 266680, Note_on_c, 0, 62, 0
4, 266680, Note_on_c, 0, 64, 62
4, 266720, Note_on_c, 0, 64, 0
4, 266720, Note_on_c, 0, 62, 62
4, 266760, Note_on_c, 0, 62, 0
4, 266760, Note_on_c, 0, 64, 62
4, 266800, Note_on_c, 0, 64, 0
4, 266800, Note_on_c, 0, 62, 62
4, 266840, Note_on_c, 0, 62, 0
4, 266840, Note_on_c, 0, 64, 63
4, 266880, Note_on_c, 0, 64, 0
4, 266880, Note_on_c, 0, 62, 63
4, 266920, Note_on_c, 0, 62, 0
4, 266920, Note_on_c, 0, 64, 63
4, 266960, Note_on_c, 0, 64, 0
4, 266960, Note_on_c, 0, 62, 63
4, 267000, Note_on_c, 0, 62, 0
4, 267000, Note_on_c, 0, 64, 63
4, 267040, Note_on_c, 0, 64, 0
4, 267040, Note_on_c, 0, 62, 63
4, 267080, Note_on_c, 0, 62, 0
4, 267080, Note_on_c, 0, 64, 63
4, 267120, Note_on_c, 0, 64, 0
4, 267120, Note_on_c, 0, 62, 63
4, 267160, Note_on_c, 0, 62, 0
4, 267160, Note_on_c, 0, 64, 64
4, 267200, Note_on_c, 0, 64, 0
4, 267200, Note_on_c, 0, 62, 64
4, 267240, Note_on_c, 0, 62, 0
4, 267240, Note_on_c, 0, 64, 64
4, 267280, Note_on_c, 0, 64, 0
4, 267280, Note_on_c, 0, 62, 64
4, 267320, Note_on_c, 0, 62, 0
4, 267320, Note_on_c, 0, 64, 64
4, 267360, Note_on_c, 0, 64, 0
4, 267360, Note_on_c, 0, 62, 64
4, 267400, Note_on_c, 0, 62, 0
4, 267400, Note_on_c, 0, 64, 64
4, 267440, Note_on_c, 0, 64, 0
4, 267440, Note_on_c, 0, 62, 65
4, 267480, Note_on_c, 0, 62, 0
4, 267480, Note_on_c, 0, 64, 65
4, 267520, Note_on_c, 0, 64, 0
4, 267520, Note_on_c, 0, 62, 65
4, 267560, Note_on_c, 0, 62, 0
4, 267560, Note_on_c, 0, 64, 65
4, 267600, Note_on_c, 0, 64, 0
4, 267600, Note_on_c, 0, 62, 66
4, 267640, Note_on_c, 0, 62, 0
4, 267640, Note_on_c, 0, 64, 66
4, 267680, Note_on_c, 0, 64, 0
4, 267680, Note_on_c, 0, 62, 65
4, 267720, Note_on_c, 0, 62, 0
4, 267720, Note_on_c, 0, 64, 65
4, 267760, Note_on_c, 0, 64, 0
4, 267760, Note_on_c, 0, 62, 64
4, 267800, Note_on_c, 0, 62, 0
4, 267800, Note_on_c, 0, 64, 64
4, 267840, Note_on_c, 0, 64, 0
4, 267840, Note_on_c, 0, 62, 63
4, 267880, Note_on_c, 0, 62, 0
4, 267880, Note_on_c, 0, 64, 63
4, 267920, Note_on_c, 0, 64, 0
4, 267920, Note_on_c, 0, 62, 62
4, 267960, Note_on_c, 0, 62, 0
4, 267960, Note_on_c, 0, 64, 62
4, 268000, Note_on_c, 0, 64, 0
4, 268000, Note_on_c, 0, 62, 61
4, 268040, Note_on_c, 0, 62, 0
4, 268040, Note_on_c, 0, 64, 60
4, 268080, Note_on_c, 0, 64, 0
4, 268080, Note_on_c, 0, 62, 60
4, 268120, Note_on_c, 0, 62, 0
4, 268120, Note_on_c, 0, 64, 59
4, 268160, Note_on_c, 0, 64, 0
4, 268160, Note_on_c, 0, 62, 59
4, 268200, Note_on_c, 0, 62, 0
4, 268200, Note_on_c, 0, 64, 58
4, 268240, Note_on_c, 0, 64, 0
4, 268240, Note_on_c, 0, 62, 58
4, 268280, Note_on_c, 0, 62, 0
4, 268280, Note_on_c, 0, 64, 57
4, 268320, Note_on_c, 0, 64, 0
4, 268320, Note_on_c, 0, 62, 57
4, 268360, Note_on_c, 0, 62, 0
4, 268360, Note_on_c, 0, 64, 56
4, 268400, Note_on_c, 0, 64, 0
4, 268400, Note_on_c, 0, 62, 56
4, 268440, Note_on_c, 0, 62, 0
4, 268440, Note_on_c, 0, 64, 55
4, 268480, Note_on_c, 0, 64, 0
4, 268480, Note_on_c, 0, 62, 55
4, 268520, Note_on_c, 0, 62, 0
4, 268520, Note_on_c, 0, 64, 54
4, 268560, Note_on_c, 0, 64, 0
4, 268560, Note_on_c, 0, 62, 54
4, 268600, Note_on_c, 0, 62, 0
4, 268600, Note_on_c, 0, 64, 53
4, 268640, Note_on_c, 0, 64, 0
4, 268640, Note_on_c, 0, 62, 53
4, 268680, Note_on_c, 0, 62, 0
4, 268680, Note_on_c, 0, 64, 52
4, 268720, Note_on_c, 0, 64, 0
4, 268720, Note_on_c, 0, 62, 52
4, 268760, Note_on_c, 0, 62, 0
4, 268800, Note_on_c, 0, 50, 51
4, 268840, Note_on_c, 0, 50, 0
4, 268840, Note_on_c, 0, 52, 50
4, 268880, Note_on_c, 0, 52, 0
4, 268880, Note_on_c, 0, 50, 50
4, 268920, Note_on_c, 0, 50, 0
4, 268920, Note_on_c, 0, 52, 49
4, 268960, Note_on_c, 0, 52, 0
4, 268960, Note_on_c, 0, 50, 48
4, 269000, Note_on_c, 0, 50, 0
4, 269000, Note_on_c, 0, 49, 48
4, 269040, Note_on_c, 0, 49, 0
4, 269160, Note_on_c, 0, 45, 49
4, 269280, Note_on_c, 0, 45, 0
4, 269280, Note_on_c, 0, 38, 50
4, 269400, Note_on_c, 0, 38, 0
4, 269400, Note_on_c, 0, 45, 50
4, 269520, Note_on_c, 0, 45, 0
4, 269600, Note_on_c, 0, 57, 51
4, 269680, Note_on_c, 0, 57, 0
4, 269680, Note_on_c, 0, 62, 51
4, 269760, Note_on_c, 0, 62, 0
4, 269840, Note_on_c, 0, 59, 52
4, 269880, Note_on_c, 0, 47, 52
4, 269920, Note_on_c, 0, 59, 0
4, 269920, Note_on_c, 0, 62, 52
4, 270000, Note_on_c, 0, 62, 0
4, 270000, Note_on_c, 0, 47, 0
4, 270000, Note_on_c, 0, 38, 53
4, 270080, Note_on_c, 0, 59, 53
4, 270120, Note_on_c, 0, 38, 0
4, 270120, Note_on_c, 0, 47, 53
4, 270160, Note_on_c, 0, 59, 0
4, 270160, Note_on_c, 0, 62, 54
4, 270240, Note_on_c, 0, 62, 0
4, 270240, Note_on_c, 0, 47, 0
4, 270320, Note_on_c, 0, 59, 54
4, 270400, Note_on_c, 0, 59, 0
4, 270400, Note_on_c, 0, 62, 55
4, 270480, Note_on_c, 0, 62, 0
4, 270560, Note_on_c, 0, 62, 55
4, 270600, Note_on_c, 0, 47, 56
4, 270640, Note_on_c, 0, 62, 0
4, 270640, Note_on_c, 0, 67, 56
4, 270720, Note_on_c, 0, 67, 0
4, 270720, Note_on_c, 0, 47, 0
4, 270720, Note_on_c, 0, 38, 56
4, 270800, Note_on_c, 0, 62, 56
4, 270840, Note_on_c, 0, 38, 0
4, 270840, Note_on_c, 0, 47, 57
4, 270880, Note_on_c, 0, 62, 0
4, 270880, Note_on_c, 0, 67, 57
4, 270960, Note_on_c, 0, 67, 0
4, 270960, Note_on_c, 0, 47, 0
4, 271040, Note_on_c, 0, 62, 58
4, 271120, Note_on_c, 0, 62, 0
4, 271120, Note_on_c, 0, 67, 58
4, 271200, Note_on_c, 0, 67, 0
4, 271280, Note_on_c, 0, 67, 58
4, 271320, Note_on_c, 0, 50, 57
4, 271360, Note_on_c, 0, 67, 0
4, 271360, Note_on_c, 0, 74, 57
4, 271440, Note_on_c, 0, 74, 0
4, 271440, Note_on_c, 0, 50, 0
4, 271440, Note_on_c, 0, 38, 56
4, 271520, Note_on_c, 0, 67, 56
4, 271560, Note_on_c, 0, 38, 0
4, 271560, Note_on_c, 0, 50, 55
4, 271600, Note_on_c, 0, 67, 0
4, 271600, Note_on_c, 0, 74, 55
4, 271680, Note_on_c, 0, 74, 0
4, 271680, Note_on_c, 0, 50, 0
4, 271760, Note_on_c, 0, 67, 54
4, 271840, Note_on_c, 0, 67, 0
4, 271840, Note_on_c, 0, 74, 53
4, 271920, Note_on_c, 0, 74, 0
4, 272000, Note_on_c, 0, 67, 52
4, 272040, Note_on_c, 0, 50, 52
4, 272080, Note_on_c, 0, 67, 0
4, 272080, Note_on_c, 0, 74, 51
4, 272160, Note_on_c, 0, 74, 0
4, 272160, Note_on_c, 0, 50, 0
4, 272160, Note_on_c, 0, 38, 51
4, 272240, Note_on_c, 0, 67, 50
4, 272280, Note_on_c, 0, 38, 0
4, 272280, Note_on_c, 0, 50, 50
4, 272320, Note_on_c, 0, 67, 0
4, 272320, Note_on_c, 0, 71, 49
4, 272400, Note_on_c, 0, 71, 0
4, 272400, Note_on_c, 0, 50, 0
4, 272480, Note_on_c, 0, 64, 48
4, 272560, Note_on_c, 0, 64, 0
4, 272560, Note_on_c, 0, 67, 48
4, 272640, Note_on_c, 0, 67, 0
4, 272720, Note_on_c, 0, 64, 45
4, 272760, Note_on_c, 0, 50, 45
4, 272800, Note_on_c, 0, 64, 0
4, 272800, Note_on_c, 0, 67, 45
4, 272880, Note_on_c, 0, 67, 0
4, 272880, Note_on_c, 0, 50, 0
4, 272880, Note_on_c, 0, 38, 46
4, 272960, Note_on_c, 0, 64, 46
4, 273000, Note_on_c, 0, 38, 0
4, 273000, Note_on_c, 0, 50, 46
4, 273040, Note_on_c, 0, 64, 0
4, 273040, Note_on_c, 0, 67, 47
4, 273120, Note_on_c, 0, 67, 0
4, 273120, Note_on_c, 0, 50, 0
4, 273200, Note_on_c, 0, 67, 47
4, 273240, Note_on_c, 0, 50, 48
4, 273280, Note_on_c, 0, 67, 0
4, 273280, Note_on_c, 0, 73, 48
4, 273360, Note_on_c, 0, 73, 0
4, 273360, Note_on_c, 0, 50, 0
4, 273440, Note_on_c, 0, 65, 49
4, 273480, Note_on_c, 0, 50, 49
4, 273520, Note_on_c, 0, 65, 0
4, 273520, Note_on_c, 0, 71, 49
4, 273600, Note_on_c, 0, 71, 0
4, 273600, Note_on_c, 0, 50, 0
4, 273600, Note_on_c, 0, 38, 49
4, 273680, Note_on_c, 0, 65, 50
4, 273720, Note_on_c, 0, 38, 0
4, 273720, Note_on_c, 0, 50, 50
4, 273760, Note_on_c, 0, 65, 0
4, 273760, Note_on_c, 0, 71, 50
4, 273840, Note_on_c, 0, 71, 0
4, 273840, Note_on_c, 0, 50, 0
4, 273920, Note_on_c, 0, 65, 51
4, 273960, Note_on_c, 0, 50, 51
4, 274000, Note_on_c, 0, 65, 0
4, 274000, Note_on_c, 0, 71, 51
4, 274080, Note_on_c, 0, 71, 0
4, 274080, Note_on_c, 0, 50, 0
4, 274160, Note_on_c, 0, 64, 52
4, 274200, Note_on_c, 0, 50, 52
4, 274240, Note_on_c, 0, 64, 0
4, 274240, Note_on_c, 0, 70, 52
4, 274320, Note_on_c, 0, 70, 0
4, 274320, Note_on_c, 0, 50, 0
4, 274320, Note_on_c, 0, 38, 51
4, 274400, Note_on_c, 0, 64, 51
4, 274440, Note_on_c, 0, 38, 0
4, 274440, Note_on_c, 0, 50, 51
4, 274480, Note_on_c, 0, 64, 0
4, 274480, Note_on_c, 0, 70, 51
4, 274560, Note_on_c, 0, 70, 0
4, 274560, Note_on_c, 0, 50, 0
4, 274640, Note_on_c, 0, 64, 50
4, 274680, Note_on_c, 0, 50, 50
4, 274720, Note_on_c, 0, 64, 0
4, 274720, Note_on_c, 0, 70, 50
4, 274800, Note_on_c, 0, 70, 0
4, 274800, Note_on_c, 0, 50, 0
4, 274920, Note_on_c, 0, 50, 49
4, 275040, Note_on_c, 0, 50, 0
4, 275040, Note_on_c, 0, 38, 49
4, 275160, Note_on_c, 0, 38, 0
4, 275160, Note_on_c, 0, 45, 48
4, 275280, Note_on_c, 0, 45, 0
4, 275640, Note_on_c, 0, 45, 47
4, 275760, Note_on_c, 0, 45, 0
4, 275760, Note_on_c, 0, 38, 47
4, 275880, Note_on_c, 0, 38, 0
4, 275880, Note_on_c, 0, 45, 48
4, 276000, Note_on_c, 0, 45, 0
4, 276060, Note_on_c, 0, 45, 48
4, 276120, Note_on_c, 0, 45, 0
4, 276120, Note_on_c, 0, 38, 48
4, 276180, Note_on_c, 0, 38, 0
4, 276180, Note_on_c, 0, 49, 49
4, 276240, Note_on_c, 0, 49, 0
4, 276300, Note_on_c, 0, 47, 49
4, 276360, Note_on_c, 0, 47, 0
4, 276360, Note_on_c, 0, 43, 49
4, 276420, Note_on_c, 0, 43, 0
4, 276420, Note_on_c, 0, 49, 49
4, 276480, Note_on_c, 0, 49, 0
4, 276540, Note_on_c, 0, 47, 50
4, 276600, Note_on_c, 0, 47, 0
4, 276600, Note_on_c, 0, 43, 50
4, 276660, Note_on_c, 0, 43, 0
4, 276660, Note_on_c, 0, 49, 50
4, 276720, Note_on_c, 0, 49, 0
4, 276780, Note_on_c, 0, 47, 50
4, 276840, Note_on_c, 0, 47, 0
4, 276840, Note_on_c, 0, 43, 51
4, 276900, Note_on_c, 0, 43, 0
4, 276900, Note_on_c, 0, 54, 51
4, 276960, Note_on_c, 0, 54, 0
4, 277020, Note_on_c, 0, 47, 51
4, 277080, Note_on_c, 0, 47, 0
4, 277080, Note_on_c, 0, 40, 51
4, 277140, Note_on_c, 0, 40, 0
4, 277140, Note_on_c, 0, 54, 51
4, 277200, Note_on_c, 0, 54, 0
4, 277260, Note_on_c, 0, 47, 52
4, 277320, Note_on_c, 0, 47, 0
4, 277320, Note_on_c, 0, 40, 52
4, 277380, Note_on_c, 0, 40, 0
4, 277380, Note_on_c, 0, 54, 52
4, 277440, Note_on_c, 0, 54, 0
4, 277500, Note_on_c, 0, 47, 52
4, 277560, Note_on_c, 0, 47, 0
4, 277560, Note_on_c, 0, 40, 53
4, 277620, Note_on_c, 0, 40, 0
4, 277620, Note_on_c, 0, 58, 53
4, 277680, Note_on_c, 0, 58, 0
4, 277740, Note_on_c, 0, 50, 53
4, 277800, Note_on_c, 0, 50, 0
4, 277800, Note_on_c, 0, 40, 53
4, 277860, Note_on_c, 0, 40, 0
4, 277860, Note_on_c, 0, 58, 54
4, 277920, Note_on_c, 0, 58, 0
4, 277980, Note_on_c, 0, 50, 54
4, 278040, Note_on_c, 0, 50, 0
4, 278040, Note_on_c, 0, 40, 54
4, 278100, Note_on_c, 0, 40, 0
4, 278100, Note_on_c, 0, 58, 54
4, 278160, Note_on_c, 0, 58, 0
4, 278220, Note_on_c, 0, 50, 55
4, 278280, Note_on_c, 0, 50, 0
4, 278280, Note_on_c, 0, 41, 55
4, 278340, Note_on_c, 0, 41, 0
4, 278340, Note_on_c, 0, 59, 55
4, 278400, Note_on_c, 0, 59, 0
4, 278460, Note_on_c, 0, 50, 55
4, 278520, Note_on_c, 0, 50, 0
4, 278520, Note_on_c, 0, 42, 56
4, 278580, Note_on_c, 0, 42, 0
4, 278580, Note_on_c, 0, 59, 56
4, 278640, Note_on_c, 0, 59, 0
4, 278700, Note_on_c, 0, 50, 56
4, 278760, Note_on_c, 0, 50, 0
4, 278760, Note_on_c, 0, 42, 56
4, 278820, Note_on_c, 0, 42, 0
4, 278820, Note_on_c, 0, 59, 56
4, 278880, Note_on_c, 0, 59, 0
4, 278940, Note_on_c, 0, 50, 57
4, 279000, Note_on_c, 0, 50, 0
4, 279000, Note_on_c, 0, 43, 57
4, 279060, Note_on_c, 0, 43, 0
4, 279060, Note_on_c, 0, 59, 57
4, 279120, Note_on_c, 0, 59, 0
4, 279180, Note_on_c, 0, 50, 57
4, 279240, Note_on_c, 0, 50, 0
4, 279240, Note_on_c, 0, 45, 58
4, 279300, Note_on_c, 0, 45, 0
4, 279300, Note_on_c, 0, 61, 58
4, 279360, Note_on_c, 0, 61, 0
4, 279420, Note_on_c, 0, 55, 58
4, 279480, Note_on_c, 0, 55, 0
4, 279480, Note_on_c, 0, 47, 58
4, 279540, Note_on_c, 0, 47, 0
4, 279540, Note_on_c, 0, 63, 59
4, 279600, Note_on_c, 0, 63, 0
4, 279660, Note_on_c, 0, 55, 59
4, 279720, Note_on_c, 0, 55, 0
4, 279720, Note_on_c, 0, 48, 59
4, 279780, Note_on_c, 0, 48, 0
4, 279780, Note_on_c, 0, 66, 59
4, 279840, Note_on_c, 0, 66, 0
4, 279900, Note_on_c, 0, 55, 60
4, 279960, Note_on_c, 0, 55, 0
4, 279960, Note_on_c, 0, 48, 60
4, 280020, Note_on_c, 0, 48, 0
4, 280020, Note_on_c, 0, 68, 60
4, 280080, Note_on_c, 0, 68, 0
4, 280140, Note_on_c, 0, 54, 62
4, 280200, Note_on_c, 0, 54, 0
4, 280200, Note_on_c, 0, 48, 62
4, 280260, Note_on_c, 0, 48, 0
4, 280260, Note_on_c, 0, 68, 61
4, 280320, Note_on_c, 0, 68, 0
4, 280380, Note_on_c, 0, 54, 60
4, 280440, Note_on_c, 0, 54, 0
4, 280440, Note_on_c, 0, 48, 60
4, 280500, Note_on_c, 0, 48, 0
4, 280500, Note_on_c, 0, 66, 59
4, 280560, Note_on_c, 0, 66, 0
4, 280620, Note_on_c, 0, 55, 59
4, 280680, Note_on_c, 0, 55, 0
4, 280680, Note_on_c, 0, 47, 58
4, 280740, Note_on_c, 0, 47, 0
4, 280740, Note_on_c, 0, 61, 58
4, 280800, Note_on_c, 0, 61, 0
4, 280860, Note_on_c, 0, 50, 57
4, 280920, Note_on_c, 0, 50, 0
4, 280920, Note_on_c, 0, 43, 56
4, 280980, Note_on_c, 0, 43, 0
4, 280980, Note_on_c, 0, 58, 56
4, 281040, Note_on_c, 0, 58, 0
4, 281100, Note_on_c, 0, 50, 55
4, 281160, Note_on_c, 0, 50, 0
4, 281160, Note_on_c, 0, 43, 55
4, 281220, Note_on_c, 0, 43, 0
4, 281220, Note_on_c, 0, 59, 54
4, 281280, Note_on_c, 0, 59, 0
4, 281340, Note_on_c, 0, 50, 53
4, 281400, Note_on_c, 0, 50, 0
4, 281400, Note_on_c, 0, 43, 53
4, 281460, Note_on_c, 0, 43, 0
4, 281460, Note_on_c, 0, 56, 52
4, 281520, Note_on_c, 0, 56, 0
4, 281580, Note_on_c, 0, 50, 51
4, 281640, Note_on_c, 0, 50, 0
4, 281640, Note_on_c, 0, 43, 51
4, 281700, Note_on_c, 0, 43, 0
4, 281700, Note_on_c, 0, 58, 51
4, 281760, Note_on_c, 0, 58, 0
4, 281820, Note_on_c, 0, 50, 50
4, 281880, Note_on_c, 0, 50, 0
4, 281880, Note_on_c, 0, 43, 49
4, 281940, Note_on_c, 0, 43, 0
4, 281940, Note_on_c, 0, 59, 49
4, 282000, Note_on_c, 0, 59, 0
4, 282060, Note_on_c, 0, 50, 48
4, 282120, Note_on_c, 0, 50, 0
4, 282120, Note_on_c, 0, 43, 47
4, 282180, Note_on_c, 0, 43, 0
4, 282180, Note_on_c, 0, 56, 47
4, 282240, Note_on_c, 0, 56, 0
4, 282300, Note_on_c, 0, 50, 46
4, 282360, Note_on_c, 0, 50, 0
4, 282360, Note_on_c, 0, 43, 46
4, 282420, Note_on_c, 0, 43, 0
4, 282420, Note_on_c, 0, 58, 45
4, 282480, Note_on_c, 0, 58, 0
4, 282540, Note_on_c, 0, 50, 44
4, 282600, Note_on_c, 0, 50, 0
4, 282600, Note_on_c, 0, 43, 44
4, 282660, Note_on_c, 0, 43, 0
4, 282660, Note_on_c, 0, 59, 43
4, 282720, Note_on_c, 0, 59, 0
4, 282780, Note_on_c, 0, 50, 42
4, 282840, Note_on_c, 0, 50, 0
4, 282840, Note_on_c, 0, 43, 42
4, 282900, Note_on_c, 0, 43, 0
4, 282900, Note_on_c, 0, 50, 42
4, 282960, Note_on_c, 0, 50, 0
4, 283020, Note_on_c, 0, 50, 41
4, 283080, Note_on_c, 0, 50, 0
4, 283080, Note_on_c, 0, 43, 40
4, 283140, Note_on_c, 0, 43, 0
4, 283140, Note_on_c, 0, 50, 40
4, 283200, Note_on_c, 0, 50, 0
4, 283260, Note_on_c, 0, 50, 39
4, 283320, Note_on_c, 0, 50, 0
4, 283320, Note_on_c, 0, 43, 38
4, 283380, Note_on_c, 0, 43, 0
4, 283380, Note_on_c, 0, 50, 38
4, 283440, Note_on_c, 0, 50, 0
4, 283500, Note_on_c, 0, 50, 37
4, 283560, Note_on_c, 0, 50, 0
4, 283560, Note_on_c, 0, 43, 37
4, 283620, Note_on_c, 0, 43, 0
4, 283620, Note_on_c, 0, 50, 36
4, 283680, Note_on_c, 0, 50, 0
4, 283740, Note_on_c, 0, 50, 35
4, 283800, Note_on_c, 0, 50, 0
4, 283800, Note_on_c, 0, 45, 35
4, 283860, Note_on_c, 0, 45, 0
4, 283860, Note_on_c, 0, 50, 34
4, 283920, Note_on_c, 0, 50, 0
4, 283980, Note_on_c, 0, 50, 34
4, 284040, Note_on_c, 0, 50, 0
4, 284040, Note_on_c, 0, 45, 33
4, 284100, Note_on_c, 0, 45, 0
4, 284100, Note_on_c, 0, 50, 32
4, 284160, Note_on_c, 0, 50, 0
4, 284400, Note_on_c, 0, 64, 33
4, 284400, Note_on_c, 0, 62, 33
4, 284520, Note_on_c, 0, 62, 0
4, 284520, Note_on_c, 0, 64, 0
4, 284520, Note_on_c, 0, 62, 33
4, 284520, Note_on_c, 0, 64, 33
4, 284640, Note_on_c, 0, 64, 0
4, 284640, Note_on_c, 0, 62, 0
4, 284640, Note_on_c, 0, 62, 33
4, 284640, Note_on_c, 0, 64, 33
4, 284760, Note_on_c, 0, 64, 0
4, 284760, Note_on_c, 0, 62, 0
4, 284760, Note_on_c, 0, 62, 33
4, 284760, Note_on_c, 0, 64, 33
4, 284880, Note_on_c, 0, 64, 0
4, 284880, Note_on_c, 0, 62, 0
4, 284880, Note_on_c, 0, 62, 33
4, 284880, Note_on_c, 0, 64, 33
4, 285000, Note_on_c, 0, 64, 0
4, 285000, Note_on_c, 0, 62, 0
4, 285000, Note_on_c, 0, 62, 34
4, 285000, Note_on_c, 0, 64, 34
4, 285120, Note_on_c, 0, 64, 0
4, 285120, Note_on_c, 0, 62, 0
4, 285120, Note_on_c, 0, 64, 34
4, 285120, Note_on_c, 0, 62, 34
4, 285240, Note_on_c, 0, 62, 0
4, 285240, Note_on_c, 0, 64, 0
4, 285240, Note_on_c, 0, 62, 34
4, 285240, Note_on_c, 0, 64, 34
4, 285360, Note_on_c, 0, 64, 0
4, 285360, Note_on_c, 0, 62, 0
4, 285360, Note_on_c, 0, 62, 34
4, 285360, Note_on_c, 0, 64, 34
4, 285480, Note_on_c, 0, 64, 0
4, 285480, Note_on_c, 0, 62, 0
4, 285480, Note_on_c, 0, 62, 34
4, 285480, Note_on_c, 0, 64, 34
4, 285600, Note_on_c, 0, 64, 0
4, 285600, Note_on_c, 0, 62, 0
4, 285600, Note_on_c, 0, 62, 35
4, 285600, Note_on_c, 0, 64, 35
4, 285720, Note_on_c, 0, 64, 0
4, 285720, Note_on_c, 0, 62, 0
4, 285720, Note_on_c, 0, 62, 36
4, 285720, Note_on_c, 0, 64, 36
4, 285840, Note_on_c, 0, 64, 0
4, 285840, Note_on_c, 0, 62, 0
4, 285840, Note_on_c, 0, 64, 37
4, 285840, Note_on_c, 0, 62, 37
4, 285960, Note_on_c, 0, 62, 0
4, 285960, Note_on_c, 0, 64, 0
4, 285960, Note_on_c, 0, 62, 37
4, 285960, Note_on_c, 0, 64, 37
4, 286080, Note_on_c, 0, 64, 0
4, 286080, Note_on_c, 0, 62, 0
4, 286080, Note_on_c, 0, 64, 38
4, 286080, Note_on_c, 0, 62, 38
4, 286200, Note_on_c, 0, 62, 0
4, 286200, Note_on_c, 0, 64, 0
4, 286200, Note_on_c, 0, 62, 39
4, 286200, Note_on_c, 0, 64, 39
4, 286320, Note_on_c, 0, 64, 0
4, 286320, Note_on_c, 0, 62, 0
4, 286320, Note_on_c, 0, 62, 39
4, 286320, Note_on_c, 0, 64, 39
4, 286440, Note_on_c, 0, 64, 0
4, 286440, Note_on_c, 0, 62, 0
4, 286440, Note_on_c, 0, 62, 40
4, 286440, Note_on_c, 0, 64, 40
4, 286560, Note_on_c, 0, 64, 0
4, 286560, Note_on_c, 0, 62, 0
4, 286560, Note_on_c, 0, 64, 41
4, 286560, Note_on_c, 0, 62, 41
4, 286680, Note_on_c, 0, 62, 0
4, 286680, Note_on_c, 0, 64, 0
4, 286680, Note_on_c, 0, 64, 42
4, 286680, Note_on_c, 0, 62, 42
4, 286800, Note_on_c, 0, 62, 0
4, 286800, Note_on_c, 0, 64, 0
4, 286800, Note_on_c, 0, 62, 42
4, 286800, Note_on_c, 0, 64, 42
4, 286920, Note_on_c, 0, 64, 0
4, 286920, Note_on_c, 0, 62, 0
4, 286920, Note_on_c, 0, 64, 43
4, 286920, Note_on_c, 0, 62, 43
4, 287040, Note_on_c, 0, 62, 0
4, 287040, Note_on_c, 0, 64, 0
4, 287040, Note_on_c, 0, 57, 46
4, 287040, Note_on_c, 0, 61, 46
4, 287160, Note_on_c, 0, 61, 0
4, 287160, Note_on_c, 0, 57, 0
4, 287160, Note_on_c, 0, 57, 45
4, 287160, Note_on_c, 0, 61, 45
4, 287160, Note_on_c, 0, 64, 45
4, 287280, Note_on_c, 0, 64, 0
4, 287280, Note_on_c, 0, 61, 0
4, 287280, Note_on_c, 0, 57, 0
4, 287280, Note_on_c, 0, 57, 43
4, 287280, Note_on_c, 0, 61, 43
4, 287280, Note_on_c, 0, 64, 43
4, 287400, Note_on_c, 0, 64, 0
4, 287400, Note_on_c, 0, 61, 0
4, 287400, Note_on_c, 0, 57, 0
4, 287400, Note_on_c, 0, 57, 42
4, 287400, Note_on_c, 0, 61, 42
4, 287400, Note_on_c, 0, 64, 42
4, 287520, Note_on_c, 0, 64, 0
4, 287520, Note_on_c, 0, 61, 0
4, 287520, Note_on_c, 0, 57, 0
4, 287520, Note_on_c, 0, 57, 41
4, 287520, Note_on_c, 0, 64, 41
4, 287520, Note_on_c, 0, 61, 41
4, 287640, Note_on_c, 0, 61, 0
4, 287640, Note_on_c, 0, 64, 0
4, 287640, Note_on_c, 0, 57, 0
4, 287640, Note_on_c, 0, 61, 40
4, 287640, Note_on_c, 0, 57, 40
4, 287640, Note_on_c, 0, 64, 40
4, 287760, Note_on_c, 0, 64, 0
4, 287760, Note_on_c, 0, 57, 0
4, 287760, Note_on_c, 0, 61, 0
4, 287760, Note_on_c, 0, 57, 39
4, 287760, Note_on_c, 0, 61, 39
4, 287880, Note_on_c, 0, 61, 0
4, 287880, Note_on_c, 0, 57, 0
4, 287880, Note_on_c, 0, 61, 38
4, 287880, Note_on_c, 0, 57, 38
4, 287880, Note_on_c, 0, 54, 38
4, 288000, Note_on_c, 0, 54, 0
4, 288000, Note_on_c, 0, 57, 0
4, 288000, Note_on_c, 0, 61, 0
4, 288000, Note_on_c, 0, 54, 37
4, 288000, Note_on_c, 0, 62, 37
4, 288000, Note_on_c, 0, 57, 37
4, 288120, Note_on_c, 0, 57, 0
4, 288120, Note_on_c, 0, 62, 0
4, 288120, Note_on_c, 0, 54, 0
4, 288120, Note_on_c, 0, 57, 36
4, 288120, Note_on_c, 0, 62, 36
4, 288120, Note_on_c, 0, 54, 36
4, 288240, Note_on_c, 0, 54, 0
4, 288240, Note_on_c, 0, 62, 0
4, 288240, Note_on_c, 0, 57, 0
4, 288240, Note_on_c, 0, 72, 35
4, 288240, Note_on_c, 0, 74, 35
4, 288240, Note_on_c, 0, 54, 35
4, 288240, Note_on_c, 0, 58, 35
4, 288240, Note_on_c, 0, 62, 35
4, 288360, Note_on_c, 0, 62, 0
4, 288360, Note_on_c, 0, 54, 0
4, 288360, Note_on_c, 0, 72, 0
4, 288360, Note_on_c, 0, 74, 0
4, 288360, Note_on_c, 0, 58, 0
4, 288360, Note_on_c, 0, 74, 36
4, 288360, Note_on_c, 0, 72, 36
4, 288360, Note_on_c, 0, 54, 36
4, 288360, Note_on_c, 0, 58, 36
4, 288360, Note_on_c, 0, 62, 36
4, 288480, Note_on_c, 0, 62, 0
4, 288480, Note_on_c, 0, 54, 0
4, 288480, Note_on_c, 0, 74, 0
4, 288480, Note_on_c, 0, 72, 0
4, 288480, Note_on_c, 0, 58, 0
4, 288480, Note_on_c, 0, 71, 37
4, 288480, Note_on_c, 0, 74, 37
4, 288480, Note_on_c, 0, 59, 37
4, 288600, Note_on_c, 0, 59, 0
4, 288600, Note_on_c, 0, 74, 0
4, 288600, Note_on_c, 0, 71, 0
4, 288600, Note_on_c, 0, 71, 38
4, 288600, Note_on_c, 0, 74, 38
4, 288600, Note_on_c, 0, 62, 38
4, 288600, Note_on_c, 0, 59, 38
4, 288720, Note_on_c, 0, 59, 0
4, 288720, Note_on_c, 0, 71, 0
4, 288720, Note_on_c, 0, 74, 0
4, 288720, Note_on_c, 0, 62, 0
4, 288720, Note_on_c, 0, 78, 39
4, 288720, Note_on_c, 0, 63, 39
4, 288720, Note_on_c, 0, 71, 39
4, 288720, Note_on_c, 0, 59, 39
4, 288840, Note_on_c, 0, 59, 0
4, 288840, Note_on_c, 0, 78, 0
4, 288840, Note_on_c, 0, 63, 0
4, 288840, Note_on_c, 0, 71, 0
4, 288840, Note_on_c, 0, 78, 39
4, 288840, Note_on_c, 0, 63, 39
4, 288840, Note_on_c, 0, 71, 39
4, 288840, Note_on_c, 0, 59, 39
4, 288960, Note_on_c, 0, 59, 0
4, 288960, Note_on_c, 0, 78, 0
4, 288960, Note_on_c, 0, 63, 0
4, 288960, Note_on_c, 0, 71, 0
4, 288960, Note_on_c, 0, 59, 40
4, 288960, Note_on_c, 0, 64, 40
4, 288960, Note_on_c, 0, 71, 40
4, 288960, Note_on_c, 0, 76, 40
4, 289080, Note_on_c, 0, 76, 0
4, 289080, Note_on_c, 0, 59, 0
4, 289080, Note_on_c, 0, 64, 0
4, 289080, Note_on_c, 0, 71, 0
4, 289080, Note_on_c, 0, 76, 41
4, 289080, Note_on_c, 0, 59, 41
4, 289080, Note_on_c, 0, 64, 41
4, 289080, Note_on_c, 0, 71, 41
4, 289200, Note_on_c, 0, 71, 0
4, 289200, Note_on_c, 0, 76, 0
4, 289200, Note_on_c, 0, 59, 0
4, 289200, Note_on_c, 0, 64, 0
4, 289200, Note_on_c, 0, 62, 42
4, 289200, Note_on_c, 0, 74, 42
4, 289200, Note_on_c, 0, 69, 42
4, 289320, Note_on_c, 0, 69, 0
4, 289320, Note_on_c, 0, 74, 0
4, 289320, Note_on_c, 0, 62, 0
4, 289320, Note_on_c, 0, 74, 41
4, 289320, Note_on_c, 0, 66, 41
4, 289320, Note_on_c, 0, 69, 41
4, 289320, Note_on_c, 0, 62, 41
4, 289440, Note_on_c, 0, 62, 0
4, 289440, Note_on_c, 0, 74, 0
4, 289440, Note_on_c, 0, 66, 0
4, 289440, Note_on_c, 0, 69, 0
4, 289440, Note_on_c, 0, 74, 40
4, 289440, Note_on_c, 0, 69, 40
4, 289440, Note_on_c, 0, 62, 40
4, 289440, Note_on_c, 0, 64, 40
4, 289560, Note_on_c, 0, 64, 0
4, 289560, Note_on_c, 0, 74, 0
4, 289560, Note_on_c, 0, 69, 0
4, 289560, Note_on_c, 0, 62, 0
4, 289560, Note_on_c, 0, 74, 39
4, 289560, Note_on_c, 0, 69, 39
4, 289560, Note_on_c, 0, 64, 39
4, 289560, Note_on_c, 0, 62, 39
4, 289680, Note_on_c, 0, 62, 0
4, 289680, Note_on_c, 0, 74, 0
4, 289680, Note_on_c, 0, 69, 0
4, 289680, Note_on_c, 0, 64, 0
4, 289680, Note_on_c, 0, 67, 38
4, 289680, Note_on_c, 0, 69, 38
4, 289680, Note_on_c, 0, 64, 38
4, 289800, Note_on_c, 0, 64, 0
4, 289800, Note_on_c, 0, 69, 0
4, 289800, Note_on_c, 0, 67, 0
4, 289800, Note_on_c, 0, 57, 37
4, 289800, Note_on_c, 0, 67, 37
4, 289800, Note_on_c, 0, 64, 37
4, 289800, Note_on_c, 0, 69, 37
4, 289920, Note_on_c, 0, 69, 0
4, 289920, Note_on_c, 0, 57, 0
4, 289920, Note_on_c, 0, 67, 0
4, 289920, Note_on_c, 0, 64, 0
4, 289920, Note_on_c, 0, 68, 37
4, 289920, Note_on_c, 0, 64, 37
4, 289920, Note_on_c, 0, 62, 37
4, 290040, Note_on_c, 0, 62, 0
4, 290040, Note_on_c, 0, 64, 0
4, 290040, Note_on_c, 0, 68, 0
4, 290040, Note_on_c, 0, 68, 37
4, 290040, Note_on_c, 0, 64, 37
4, 290040, Note_on_c, 0, 62, 37
4, 290160, Note_on_c, 0, 62, 0
4, 290160, Note_on_c, 0, 64, 0
4, 290160, Note_on_c, 0, 68, 0
4, 290160, Note_on_c, 0, 62, 37
4, 290160, Note_on_c, 0, 68, 37
4, 290160, Note_on_c, 0, 64, 37
4, 290280, Note_on_c, 0, 64, 0
4, 290280, Note_on_c, 0, 68, 0
4, 290280, Note_on_c, 0, 62, 0
4, 290280, Note_on_c, 0, 68, 37
4, 290280, Note_on_c, 0, 62, 37
4, 290280, Note_on_c, 0, 64, 37
4, 290400, Note_on_c, 0, 64, 0
4, 290400, Note_on_c, 0, 62, 0
4, 290400, Note_on_c, 0, 68, 0
4, 290400, Note_on_c, 0, 64, 38
4, 290400, Note_on_c, 0, 68, 38
4, 290400, Note_on_c, 0, 62, 38
4, 290520, Note_on_c, 0, 62, 0
4, 290520, Note_on_c, 0, 68, 0
4, 290520, Note_on_c, 0, 64, 0
4, 290520, Note_on_c, 0, 68, 38
4, 290520, Note_on_c, 0, 64, 38
4, 290520, Note_on_c, 0, 62, 38
4, 290640, Note_on_c, 0, 62, 0
4, 290640, Note_on_c, 0, 64, 0
4, 290640, Note_on_c, 0, 68, 0
4, 290640, Note_on_c, 0, 68, 38
4, 290640, Note_on_c, 0, 64, 38
4, 290640, Note_on_c, 0, 62, 38
4, 290760, Note_on_c, 0, 62, 0
4, 290760, Note_on_c, 0, 64, 0
4, 290760, Note_on_c, 0, 68, 0
4, 290760, Note_on_c, 0, 68, 38
4, 290760, Note_on_c, 0, 62, 38
4, 290760, Note_on_c, 0, 64, 38
4, 290880, Note_on_c, 0, 64, 0
4, 290880, Note_on_c, 0, 62, 0
4, 290880, Note_on_c, 0, 68, 0
4, 290880, Note_on_c, 0, 68, 39
4, 290880, Note_on_c, 0, 64, 39
4, 290880, Note_on_c, 0, 62, 39
4, 291000, Note_on_c, 0, 62, 0
4, 291000, Note_on_c, 0, 64, 0
4, 291000, Note_on_c, 0, 68, 0
4, 291000, Note_on_c, 0, 68, 39
4, 291000, Note_on_c, 0, 64, 39
4, 291000, Note_on_c, 0, 62, 39
4, 291120, Note_on_c, 0, 62, 0
4, 291120, Note_on_c, 0, 64, 0
4, 291120, Note_on_c, 0, 68, 0
4, 291120, Note_on_c, 0, 64, 39
4, 291120, Note_on_c, 0, 68, 39
4, 291120, Note_on_c, 0, 62, 39
4, 291240, Note_on_c, 0, 62, 0
4, 291240, Note_on_c, 0, 68, 0
4, 291240, Note_on_c, 0, 64, 0
4, 291240, Note_on_c, 0, 68, 39
4, 291240, Note_on_c, 0, 64, 39
4, 291240, Note_on_c, 0, 62, 39
4, 291360, Note_on_c, 0, 62, 0
4, 291360, Note_on_c, 0, 64, 0
4, 291360, Note_on_c, 0, 68, 0
4, 291360, Note_on_c, 0, 68, 40
4, 291360, Note_on_c, 0, 64, 40
4, 291360, Note_on_c, 0, 62, 40
4, 291480, Note_on_c, 0, 62, 0
4, 291480, Note_on_c, 0, 64, 0
4, 291480, Note_on_c, 0, 68, 0
4, 291480, Note_on_c, 0, 69, 40
4, 291480, Note_on_c, 0, 62, 40
4, 291480, Note_on_c, 0, 64, 40
4, 291600, Note_on_c, 0, 64, 0
4, 291600, Note_on_c, 0, 62, 0
4, 291600, Note_on_c, 0, 69, 0
4, 291600, Note_on_c, 0, 69, 40
4, 291600, Note_on_c, 0, 62, 40
4, 291600, Note_on_c, 0, 64, 40
4, 291720, Note_on_c, 0, 64, 0
4, 291720, Note_on_c, 0, 62, 0
4, 291720, Note_on_c, 0, 69, 0
4, 291720, Note_on_c, 0, 69, 40
4, 291720, Note_on_c, 0, 64, 40
4, 291720, Note_on_c, 0, 62, 40
4, 291840, Note_on_c, 0, 62, 0
4, 291840, Note_on_c, 0, 64, 0
4, 291840, Note_on_c, 0, 69, 0
4, 291840, Note_on_c, 0, 69, 40
4, 291840, Note_on_c, 0, 62, 40
4, 291840, Note_on_c, 0, 64, 40
4, 291960, Note_on_c, 0, 64, 0
4, 291960, Note_on_c, 0, 62, 0
4, 291960, Note_on_c, 0, 69, 0
4, 291960, Note_on_c, 0, 62, 41
4, 291960, Note_on_c, 0, 69, 41
4, 291960, Note_on_c, 0, 64, 41
4, 292080, Note_on_c, 0, 64, 0
4, 292080, Note_on_c, 0, 69, 0
4, 292080, Note_on_c, 0, 62, 0
4, 292080, Note_on_c, 0, 64, 41
4, 292080, Note_on_c, 0, 69, 41
4, 292080, Note_on_c, 0, 62, 41
4, 292200, Note_on_c, 0, 62, 0
4, 292200, Note_on_c, 0, 69, 0
4, 292200, Note_on_c, 0, 64, 0
4, 292200, Note_on_c, 0, 64, 41
4, 292200, Note_on_c, 0, 71, 41
4, 292200, Note_on_c, 0, 62, 41
4, 292320, Note_on_c, 0, 62, 0
4, 292320, Note_on_c, 0, 71, 0
4, 292320, Note_on_c, 0, 64, 0
4, 292320, Note_on_c, 0, 64, 41
4, 292320, Note_on_c, 0, 71, 41
4, 292320, Note_on_c, 0, 62, 41
4, 292440, Note_on_c, 0, 62, 0
4, 292440, Note_on_c, 0, 71, 0
4, 292440, Note_on_c, 0, 64, 0
4, 292440, Note_on_c, 0, 64, 42
4, 292440, Note_on_c, 0, 71, 42
4, 292440, Note_on_c, 0, 62, 42
4, 292560, Note_on_c, 0, 62, 0
4, 292560, Note_on_c, 0, 71, 0
4, 292560, Note_on_c, 0, 64, 0
4, 292560, Note_on_c, 0, 64, 42
4, 292560, Note_on_c, 0, 71, 42
4, 292560, Note_on_c, 0, 62, 42
4, 292680, Note_on_c, 0, 62, 0
4, 292680, Note_on_c, 0, 71, 0
4, 292680, Note_on_c, 0, 64, 0
4, 292680, Note_on_c, 0, 64, 42
4, 292680, Note_on_c, 0, 62, 42
4, 292680, Note_on_c, 0, 71, 42
4, 292800, Note_on_c, 0, 71, 0
4, 292800, Note_on_c, 0, 62, 0
4, 292800, Note_on_c, 0, 64, 0
4, 292800, Note_on_c, 0, 61, 40
4, 292800, Note_on_c, 0, 69, 40
4, 292920, Note_on_c, 0, 69, 0
4, 292920, Note_on_c, 0, 61, 0
4, 292920, Note_on_c, 0, 61, 42
4, 292920, Note_on_c, 0, 69, 42
4, 293040, Note_on_c, 0, 69, 0
4, 293040, Note_on_c, 0, 61, 0
4, 293040, Note_on_c, 0, 73, 45
4, 293040, Note_on_c, 0, 69, 45
4, 293160, Note_on_c, 0, 69, 0
4, 293160, Note_on_c, 0, 73, 0
4, 293160, Note_on_c, 0, 73, 47
4, 293160, Note_on_c, 0, 69, 47
4, 293280, Note_on_c, 0, 69, 0
4, 293280, Note_on_c, 0, 73, 0
4, 293280, Note_on_c, 0, 73, 49
4, 293280, Note_on_c, 0, 69, 49
4, 293400, Note_on_c, 0, 69, 0
4, 293400, Note_on_c, 0, 73, 0
4, 293400, Note_on_c, 0, 73, 51
4, 293400, Note_on_c, 0, 69, 51
4, 293520, Note_on_c, 0, 69, 0
4, 293520, Note_on_c, 0, 73, 0
4, 293520, Note_on_c, 0, 73, 54
4, 293520, Note_on_c, 0, 69, 54
4, 293640, Note_on_c, 0, 69, 0
4, 293640, Note_on_c, 0, 73, 0
4, 293640, Note_on_c, 0, 73, 56
4, 293640, Note_on_c, 0, 69, 56
4, 293760, Note_on_c, 0, 69, 0
4, 293760, Note_on_c, 0, 73, 0
4, 293760, Note_on_c, 0, 69, 58
4, 293760, Note_on_c, 0, 74, 58
4, 293880, Note_on_c, 0, 74, 0
4, 293880, Note_on_c, 0, 69, 0
4, 293880, Note_on_c, 0, 69, 61
4, 293880, Note_on_c, 0, 74, 61
4, 294000, Note_on_c, 0, 74, 0
4, 294000, Note_on_c, 0, 69, 0
4, 294000, Note_on_c, 0, 70, 63
4, 294000, Note_on_c, 0, 74, 63
4, 294120, Note_on_c, 0, 74, 0
4, 294120, Note_on_c, 0, 70, 0
4, 294120, Note_on_c, 0, 70, 69
4, 294120, Note_on_c, 0, 74, 69
4, 294240, Note_on_c, 0, 74, 0
4, 294240, Note_on_c, 0, 70, 0
4, 294240, Note_on_c, 0, 74, 72
4, 294240, Note_on_c, 0, 71, 72
4, 294360, Note_on_c, 0, 71, 0
4, 294360, Note_on_c, 0, 74, 0
4, 294360, Note_on_c, 0, 78, 68
4, 294360, Note_on_c, 0, 71, 68
4, 294480, Note_on_c, 0, 71, 0
4, 294480, Note_on_c, 0, 78, 0
4, 294480, Note_on_c, 0, 78, 68
4, 294480, Note_on_c, 0, 71, 68
4, 294600, Note_on_c, 0, 71, 0
4, 294600, Note_on_c, 0, 78, 0
4, 294600, Note_on_c, 0, 76, 68
4, 294600, Note_on_c, 0, 71, 68
4, 294720, Note_on_c, 0, 71, 0
4, 294720, Note_on_c, 0, 76, 0
4, 294720, Note_on_c, 0, 76, 67
4, 294720, Note_on_c, 0, 71, 67
4, 294840, Note_on_c, 0, 71, 0
4, 294840, Note_on_c, 0, 76, 0
4, 294840, Note_on_c, 0, 74, 67
4, 294840, Note_on_c, 0, 71, 67
4, 294960, Note_on_c, 0, 71, 0
4, 294960, Note_on_c, 0, 74, 0
4, 294960, Note_on_c, 0, 74, 66
4, 294960, Note_on_c, 0, 69, 66
4, 295080, Note_on_c, 0, 69, 0
4, 295080, Note_on_c, 0, 74, 0
4, 295080, Note_on_c, 0, 69, 66
4, 295080, Note_on_c, 0, 74, 66
4, 295200, Note_on_c, 0, 74, 0
4, 295200, Note_on_c, 0, 69, 0
4, 295200, Note_on_c, 0, 71, 66
4, 295200, Note_on_c, 0, 74, 66
4, 295320, Note_on_c, 0, 74, 0
4, 295320, Note_on_c, 0, 71, 0
4, 295320, Note_on_c, 0, 71, 65
4, 295320, Note_on_c, 0, 74, 65
4, 295440, Note_on_c, 0, 74, 0
4, 295440, Note_on_c, 0, 71, 0
4, 295440, Note_on_c, 0, 71, 65
4, 295440, Note_on_c, 0, 74, 65
4, 295560, Note_on_c, 0, 74, 0
4, 295560, Note_on_c, 0, 71, 0
4, 295560, Note_on_c, 0, 71, 64
4, 295560, Note_on_c, 0, 74, 64
4, 295680, Note_on_c, 0, 74, 0
4, 295680, Note_on_c, 0, 71, 0
4, 295680, Note_on_c, 0, 73, 64
4, 295680, Note_on_c, 0, 69, 64
4, 295800, Note_on_c, 0, 69, 0
4, 295800, Note_on_c, 0, 73, 0
4, 295800, Note_on_c, 0, 73, 64
4, 295800, Note_on_c, 0, 69, 64
4, 295920, Note_on_c, 0, 69, 0
4, 295920, Note_on_c, 0, 73, 0
4, 295920, Note_on_c, 0, 73, 63
4, 295920, Note_on_c, 0, 69, 63
4, 296040, Note_on_c, 0, 69, 0
4, 296040, Note_on_c, 0, 73, 0
4, 296040, Note_on_c, 0, 73, 63
4, 296040, Note_on_c, 0, 69, 63
4, 296160, Note_on_c, 0, 69, 0
4, 296160, Note_on_c, 0, 73, 0
4, 296160, Note_on_c, 0, 71, 63
4, 296160, Note_on_c, 0, 67, 63
4, 296280, Note_on_c, 0, 67, 0
4, 296280, Note_on_c, 0, 71, 0
4, 296280, Note_on_c, 0, 71, 62
4, 296280, Note_on_c, 0, 67, 62
4, 296400, Note_on_c, 0, 67, 0
4, 296400, Note_on_c, 0, 71, 0
4, 296400, Note_on_c, 0, 67, 62
4, 296400, Note_on_c, 0, 71, 62
4, 296520, Note_on_c, 0, 71, 0
4, 296520, Note_on_c, 0, 67, 0
4, 296520, Note_on_c, 0, 67, 61
4, 296520, Note_on_c, 0, 71, 61
4, 296640, Note_on_c, 0, 71, 0
4, 296640, Note_on_c, 0, 67, 0
4, 296640, Note_on_c, 0, 66, 61
4, 296640, Note_on_c, 0, 69, 61
4, 296760, Note_on_c, 0, 69, 0
4, 296760, Note_on_c, 0, 66, 0
4, 296760, Note_on_c, 0, 66, 61
4, 296760, Note_on_c, 0, 69, 61
4, 296880, Note_on_c, 0, 69, 0
4, 296880, Note_on_c, 0, 66, 0
4, 296880, Note_on_c, 0, 66, 60
4, 296880, Note_on_c, 0, 69, 60
4, 297000, Note_on_c, 0, 69, 0
4, 297000, Note_on_c, 0, 66, 0
4, 297000, Note_on_c, 0, 66, 60
4, 297000, Note_on_c, 0, 69, 60
4, 297120, Note_on_c, 0, 69, 0
4, 297120, Note_on_c, 0, 66, 0
4, 297120, Note_on_c, 0, 64, 59
4, 297120, Note_on_c, 0, 67, 59
4, 297240, Note_on_c, 0, 67, 0
4, 297240, Note_on_c, 0, 64, 0
4, 297240, Note_on_c, 0, 64, 59
4, 297240, Note_on_c, 0, 67, 59
4, 297360, Note_on_c, 0, 67, 0
4, 297360, Note_on_c, 0, 64, 0
4, 297360, Note_on_c, 0, 67, 59
4, 297360, Note_on_c, 0, 64, 59
4, 297480, Note_on_c, 0, 64, 0
4, 297480, Note_on_c, 0, 67, 0
4, 297480, Note_on_c, 0, 64, 58
4, 297480, Note_on_c, 0, 67, 58
4, 297600, Note_on_c, 0, 67, 0
4, 297600, Note_on_c, 0, 64, 0
4, 297600, Note_on_c, 0, 74, 58
4, 297600, Note_on_c, 0, 67, 58
4, 297720, Note_on_c, 0, 67, 0
4, 297720, Note_on_c, 0, 74, 0
4, 297720, Note_on_c, 0, 67, 57
4, 297720, Note_on_c, 0, 74, 57
4, 297840, Note_on_c, 0, 74, 0
4, 297840, Note_on_c, 0, 67, 0
4, 297840, Note_on_c, 0, 74, 57
4, 297840, Note_on_c, 0, 67, 57
4, 297960, Note_on_c, 0, 67, 0
4, 297960, Note_on_c, 0, 74, 0
4, 297960, Note_on_c, 0, 67, 57
4, 297960, Note_on_c, 0, 74, 57
4, 298080, Note_on_c, 0, 74, 0
4, 298080, Note_on_c, 0, 67, 0
4, 298080, Note_on_c, 0, 73, 56
4, 298080, Note_on_c, 0, 67, 56
4, 298200, Note_on_c, 0, 67, 0
4, 298200, Note_on_c, 0, 73, 0
4, 298200, Note_on_c, 0, 67, 56
4, 298200, Note_on_c, 0, 71, 56
4, 298320, Note_on_c, 0, 71, 0
4, 298320, Note_on_c, 0, 67, 0
4, 298320, Note_on_c, 0, 73, 56
4, 298320, Note_on_c, 0, 67, 56
4, 298320, Note_on_c, 0, 69, 56
4, 298440, Note_on_c, 0, 69, 0
4, 298440, Note_on_c, 0, 67, 0
4, 298440, Note_on_c, 0, 73, 0
4, 298440, Note_on_c, 0, 73, 55
4, 298440, Note_on_c, 0, 67, 55
4, 298440, Note_on_c, 0, 69, 55
4, 298560, Note_on_c, 0, 69, 0
4, 298560, Note_on_c, 0, 67, 0
4, 298560, Note_on_c, 0, 73, 0
4, 298680, Note_on_c, 0, 45, 54
4, 298680, Note_on_c, 0, 62, 54
4, 298680, Note_on_c, 0, 66, 54
4, 298680, Note_on_c, 0, 69, 54
4, 298800, Note_on_c, 0, 45, 0
4, 298800, Note_on_c, 0, 38, 54
4, 298920, Note_on_c, 0, 38, 0
4, 298920, Note_on_c, 0, 69, 0
4, 298920, Note_on_c, 0, 66, 0
4, 298920, Note_on_c, 0, 62, 0
4, 298920, Note_on_c, 0, 45, 54
4, 298920, Note_on_c, 0, 69, 54
4, 298920, Note_on_c, 0, 66, 54
4, 298920, Note_on_c, 0, 62, 54
4, 299040, Note_on_c, 0, 45, 0
4, 299160, Note_on_c, 0, 69, 0
4, 299160, Note_on_c, 0, 66, 0
4, 299160, Note_on_c, 0, 62, 0
4, 299160, Note_on_c, 0, 66, 53
4, 299160, Note_on_c, 0, 62, 53
4, 299160, Note_on_c, 0, 69, 53
4, 299280, Note_on_c, 0, 69, 0
4, 299280, Note_on_c, 0, 62, 0
4, 299280, Note_on_c, 0, 66, 0
4, 299400, Note_on_c, 0, 45, 52
4, 299400, Note_on_c, 0, 66, 52
4, 299400, Note_on_c, 0, 69, 52
4, 299400, Note_on_c, 0, 62, 52
4, 299520, Note_on_c, 0, 45, 0
4, 299520, Note_on_c, 0, 38, 52
4, 299640, Note_on_c, 0, 38, 0
4, 299640, Note_on_c, 0, 62, 0
4, 299640, Note_on_c, 0, 69, 0
4, 299640, Note_on_c, 0, 66, 0
4, 299640, Note_on_c, 0, 45, 51
4, 299640, Note_on_c, 0, 62, 51
4, 299640, Note_on_c, 0, 69, 51
4, 299760, Note_on_c, 0, 45, 0
4, 299880, Note_on_c, 0, 69, 0
4, 299880, Note_on_c, 0, 62, 0
4, 299880, Note_on_c, 0, 62, 50
4, 299880, Note_on_c, 0, 69, 50
4, 300000, Note_on_c, 0, 69, 0
4, 300000, Note_on_c, 0, 62, 0
4, 300120, Note_on_c, 0, 43, 50
4, 300120, Note_on_c, 0, 62, 50
4, 300120, Note_on_c, 0, 69, 50
4, 300240, Note_on_c, 0, 43, 0
4, 300240, Note_on_c, 0, 38, 49
4, 300360, Note_on_c, 0, 38, 0
4, 300360, Note_on_c, 0, 69, 0
4, 300360, Note_on_c, 0, 62, 0
4, 300360, Note_on_c, 0, 43, 49
4, 300360, Note_on_c, 0, 62, 49
4, 300360, Note_on_c, 0, 67, 49
4, 300480, Note_on_c, 0, 43, 0
4, 300600, Note_on_c, 0, 67, 0
4, 300600, Note_on_c, 0, 62, 0
4, 300840, Note_on_c, 0, 46, 47
4, 300840, Note_on_c, 0, 62, 47
4, 300840, Note_on_c, 0, 67, 47
4, 300960, Note_on_c, 0, 46, 0
4, 300960, Note_on_c, 0, 38, 47
4, 301080, Note_on_c, 0, 38, 0
4, 301080, Note_on_c, 0, 67, 0
4, 301080, Note_on_c, 0, 62, 0
4, 301080, Note_on_c, 0, 43, 47
4, 301080, Note_on_c, 0, 67, 47
4, 301080, Note_on_c, 0, 62, 47
4, 301200, Note_on_c, 0, 43, 0
4, 301320, Note_on_c, 0, 62, 0
4, 301320, Note_on_c, 0, 67, 0
4, 301320, Note_on_c, 0, 67, 46
4, 301320, Note_on_c, 0, 62, 46
4, 301440, Note_on_c, 0, 62, 0
4, 301440, Note_on_c, 0, 67, 0
4, 301560, Note_on_c, 0, 45, 45
4, 301560, Note_on_c, 0, 62, 45
4, 301560, Note_on_c, 0, 74, 45
4, 301680, Note_on_c, 0, 45, 0
4, 301680, Note_on_c, 0, 38, 45
4, 301800, Note_on_c, 0, 38, 0
4, 301800, Note_on_c, 0, 74, 0
4, 301800, Note_on_c, 0, 62, 0
4, 301800, Note_on_c, 0, 45, 44
4, 301800, Note_on_c, 0, 62, 44
4, 301800, Note_on_c, 0, 74, 44
4, 301920, Note_on_c, 0, 45, 0
4, 302040, Note_on_c, 0, 74, 0
4, 302040, Note_on_c, 0, 62, 0
4, 302040, Note_on_c, 0, 62, 43
4, 302040, Note_on_c, 0, 74, 43
4, 302160, Note_on_c, 0, 74, 0
4, 302160, Note_on_c, 0, 62, 0
4, 302280, Note_on_c, 0, 45, 43
4, 302280, Note_on_c, 0, 62, 43
4, 302280, Note_on_c, 0, 74, 43
4, 302400, Note_on_c, 0, 45, 0
4, 302400, Note_on_c, 0, 38, 42
4, 302520, Note_on_c, 0, 38, 0
4, 302520, Note_on_c, 0, 74, 0
4, 302520, Note_on_c, 0, 62, 0
4, 302520, Note_on_c, 0, 42, 42
4, 302520, Note_on_c, 0, 62, 42
4, 302520, Note_on_c, 0, 74, 42
4, 302640, Note_on_c, 0, 42, 0
4, 302760, Note_on_c, 0, 74, 0
4, 302760, Note_on_c, 0, 62, 0
4, 302760, Note_on_c, 0, 62, 41
4, 302760, Note_on_c, 0, 74, 41
4, 302880, Note_on_c, 0, 74, 0
4, 302880, Note_on_c, 0, 62, 0
4, 303000, Note_on_c, 0, 43, 40
4, 303000, Note_on_c, 0, 62, 40
4, 303000, Note_on_c, 0, 74, 40
4, 303120, Note_on_c, 0, 43, 0
4, 303120, Note_on_c, 0, 38, 40
4, 303240, Note_on_c, 0, 38, 0
4, 303240, Note_on_c, 0, 74, 0
4, 303240, Note_on_c, 0, 62, 0
4, 303240, Note_on_c, 0, 43, 40
4, 303240, Note_on_c, 0, 62, 40
4, 303240, Note_on_c, 0, 74, 40
4, 303360, Note_on_c, 0, 43, 0
4, 303480, Note_on_c, 0, 74, 0
4, 303480, Note_on_c, 0, 62, 0
4, 303720, Note_on_c, 0, 46, 38
4, 303720, Note_on_c, 0, 74, 38
4, 303720, Note_on_c, 0, 62, 38
4, 303840, Note_on_c, 0, 46, 0
4, 303840, Note_on_c, 0, 38, 38
4, 303960, Note_on_c, 0, 38, 0
4, 303960, Note_on_c, 0, 62, 0
4, 303960, Note_on_c, 0, 74, 0
4, 303960, Note_on_c, 0, 43, 37
4, 303960, Note_on_c, 0, 74, 37
4, 303960, Note_on_c, 0, 62, 37
4, 304080, Note_on_c, 0, 43, 0
4, 304200, Note_on_c, 0, 62, 0
4, 304200, Note_on_c, 0, 74, 0
4, 304200, Note_on_c, 0, 62, 37
4, 304200, Note_on_c, 0, 74, 37
4, 304320, Note_on_c, 0, 74, 0
4, 304320, Note_on_c, 0, 62, 0
4, 304440, Note_on_c, 0, 43, 36
4, 304440, Note_on_c, 0, 62, 36
4, 304560, Note_on_c, 0, 43, 0
4, 304560, Note_on_c, 0, 38, 35
4, 304680, Note_on_c, 0, 38, 0
4, 304680, Note_on_c, 0, 62, 0
4, 304680, Note_on_c, 0, 43, 35
4, 304680, Note_on_c, 0, 62, 35
4, 304800, Note_on_c, 0, 43, 0
4, 304920, Note_on_c, 0, 62, 0
4, 304920, Note_on_c, 0, 62, 34
4, 305040, Note_on_c, 0, 62, 0
4, 305160, Note_on_c, 0, 45, 33
4, 305160, Note_on_c, 0, 62, 33
4, 305280, Note_on_c, 0, 45, 0
4, 305280, Note_on_c, 0, 38, 33
4, 305400, Note_on_c, 0, 38, 0
4, 305400, Note_on_c, 0, 62, 0
4, 305400, Note_on_c, 0, 45, 33
4, 305400, Note_on_c, 0, 62, 33
4, 305520, Note_on_c, 0, 45, 0
4, 305640, Note_on_c, 0, 62, 0
4, 305640, Note_on_c, 0, 62, 32
4, 305760, Note_on_c, 0, 62, 0
4, 305880, Note_on_c, 0, 45, 31
4, 305880, Note_on_c, 0, 62, 31
4, 306000, Note_on_c, 0, 45, 0
4, 306000, Note_on_c, 0, 38, 31
4, 306120, Note_on_c, 0, 38, 0
4, 306120, Note_on_c, 0, 62, 0
4, 306120, Note_on_c, 0, 45, 30
4, 306120, Note_on_c, 0, 62, 30
4, 306240, Note_on_c, 0, 45, 0
4, 306360, Note_on_c, 0, 62, 0
4, 306360, Control_c, 0, 64, 127
4, 306360, Note_on_c, 0, 45, 30
4, 306360, Note_on_c, 0, 62, 30
4, 306480, Note_on_c, 0, 62, 0
4, 306540, Note_on_c, 0, 62, 29
4, 306540, Note_on_c, 0, 26, 29
4, 306540, Note_on_c, 0, 38, 29
4, 306960, Note_on_c, 0, 45, 0
4, 307020, Note_on_c, 0, 62, 0
4, 307020, Note_on_c, 0, 26, 0
4, 307020, Note_on_c, 0, 38, 0
4, 307200, Control_c, 0, 64, 0
4, 307200, End_track
5, 0, Start_track
5, 0, Title_t, "Unnamed Track"
5, 0, Control_c, 0, 0, 0
5, 0, Control_c, 0, 7, 115
5, 0, Control_c, 0, 10, 48
5, 0, Control_c, 0, 91, 100
5, 0, Control_c, 0, 93, 28
5, 0, Control_c, 0, 64, 0
5, 0, Control_c, 0, 64, 0
5, 0, Control_c, 0, 64, 0
5, 0, Control_c, 0, 1, 0
5, 0, Pitch_bend_c, 0, 8192
5, 1, Control_c, 0, 32, 0
5, 1, Program_c, 0, 0
5, 240, Control_c, 0, 64, 0
5, 720, Control_c, 0, 64, 0
5, 3600, Note_on_c, 0, 45, 63
5, 4320, Note_on_c, 0, 45, 0
5, 4320, Note_on_c, 0, 45, 64
5, 4560, Note_on_c, 0, 57, 67
5, 5040, Note_on_c, 0, 57, 0
5, 5040, Note_on_c, 0, 45, 0
5, 5040, Note_on_c, 0, 57, 73
5, 5280, Note_on_c, 0, 57, 0
5, 5280, Note_on_c, 0, 57, 70
5, 5280, Note_on_c, 0, 52, 67
5, 5520, Note_on_c, 0, 52, 0
5, 5520, Note_on_c, 0, 57, 0
5, 5520, Note_on_c, 0, 57, 67
5, 5520, Note_on_c, 0, 52, 70
5, 5760, Note_on_c, 0, 52, 0
5, 5760, Note_on_c, 0, 57, 0
5, 5760, Note_on_c, 0, 56, 64
5, 5760, Note_on_c, 0, 52, 64
5, 6000, Note_on_c, 0, 52, 0
5, 6000, Note_on_c, 0, 56, 0
5, 6000, Note_on_c, 0, 57, 61
5, 6000, Note_on_c, 0, 52, 61
5, 6240, Note_on_c, 0, 52, 0
5, 6240, Note_on_c, 0, 57, 0
5, 6240, Note_on_c, 0, 52, 62
5, 6240, Note_on_c, 0, 56, 62
5, 6480, Note_on_c, 0, 56, 0
5, 6480, Note_on_c, 0, 52, 0
5, 7200, Control_c, 0, 64, 0
5, 10080, Note_on_c, 0, 45, 63
5, 10800, Note_on_c, 0, 45, 0
5, 10800, Note_on_c, 0, 45, 64
5, 11040, Note_on_c, 0, 57, 67
5, 11520, Note_on_c, 0, 57, 0
5, 11520, Note_on_c, 0, 45, 0
5, 11520, Note_on_c, 0, 57, 73
5, 11760, Note_on_c, 0, 57, 0
5, 11760, Note_on_c, 0, 52, 67
5, 11760, Note_on_c, 0, 57, 70
5, 12000, Note_on_c, 0, 57, 0
5, 12000, Note_on_c, 0, 52, 0
5, 12000, Note_on_c, 0, 52, 70
5, 12000, Note_on_c, 0, 57, 67
5, 12240, Note_on_c, 0, 57, 0
5, 12240, Note_on_c, 0, 52, 0
5, 12240, Note_on_c, 0, 52, 64
5, 12240, Note_on_c, 0, 56, 64
5, 12480, Note_on_c, 0, 56, 0
5, 12480, Note_on_c, 0, 52, 0
5, 12480, Note_on_c, 0, 52, 61
5, 12480, Note_on_c, 0, 57, 61
5, 12720, Note_on_c, 0, 57, 0
5, 12720, Note_on_c, 0, 52, 0
5, 12720, Note_on_c, 0, 56, 62
5, 12720, Note_on_c, 0, 52, 62
5, 12960, Note_on_c, 0, 52, 0
5, 12960, Note_on_c, 0, 56, 0
5, 13680, Control_c, 0, 64, 0
5, 13680, Note_on_c, 0, 45, 58
5, 13920, Note_on_c, 0, 45, 0
5, 13920, Note_on_c, 0, 45, 61
5, 14160, Note_on_c, 0, 45, 0
5, 14160, Note_on_c, 0, 45, 63
5, 14400, Note_on_c, 0, 45, 0
5, 14400, Note_on_c, 0, 46, 66
5, 14640, Note_on_c, 0, 46, 0
5, 14640, Note_on_c, 0, 48, 63
5, 14880, Note_on_c, 0, 48, 0
5, 14880, Note_on_c, 0, 48, 59
5, 15120, Note_on_c, 0, 48, 0
5, 15120, Note_on_c, 0, 48, 62
5, 15360, Note_on_c, 0, 48, 0
5, 15360, Note_on_c, 0, 48, 64
5, 15600, Note_on_c, 0, 48, 0
5, 15600, Note_on_c, 0, 48, 66
5, 15840, Note_on_c, 0, 48, 0
5, 19440, Note_on_c, 0, 45, 56
5, 19882, Note_on_c, 0, 45, 0
5, 20160, Control_c, 0, 64, 0
5, 26640, Control_c, 0, 64, 0
5, 33120, Control_c, 0, 64, 0
5, 39600, Control_c, 0, 64, 0
5, 46080, Control_c, 0, 64, 0
5, 52560, Control_c, 0, 64, 0
5, 58800, Control_c, 0, 64, 0
5, 59040, Control_c, 0, 64, 0
5, 59040, Note_on_c, 0, 45, 46
5, 59280, Note_on_c, 0, 45, 0
5, 59280, Note_on_c, 0, 50, 45
5, 59436, Note_on_c, 0, 50, 0
5, 59760, Note_on_c, 0, 57, 51
5, 60000, Note_on_c, 0, 57, 0
5, 60000, Note_on_c, 0, 62, 50
5, 60191, Note_on_c, 0, 62, 0
5, 60480, Note_on_c, 0, 43, 54
5, 60720, Note_on_c, 0, 43, 0
5, 60720, Note_on_c, 0, 50, 50
5, 60876, Note_on_c, 0, 50, 0
5, 61200, Note_on_c, 0, 57, 49
5, 61440, Note_on_c, 0, 57, 0
5, 61440, Note_on_c, 0, 61, 45
5, 61596, Note_on_c, 0, 61, 0
5, 61920, Note_on_c, 0, 45, 49
5, 62160, Note_on_c, 0, 45, 0
5, 62160, Note_on_c, 0, 46, 48
5, 62316, Note_on_c, 0, 46, 0
5, 62640, Note_on_c, 0, 57, 53
5, 62880, Note_on_c, 0, 57, 0
5, 62880, Note_on_c, 0, 58, 52
5, 63036, Note_on_c, 0, 58, 0
5, 63360, Note_on_c, 0, 46, 58
5, 63600, Note_on_c, 0, 46, 0
5, 63600, Note_on_c, 0, 47, 55
5, 63756, Note_on_c, 0, 47, 0
5, 64080, Note_on_c, 0, 59, 63
5, 64320, Note_on_c, 0, 59, 0
5, 64320, Note_on_c, 0, 57, 60
5, 64476, Note_on_c, 0, 57, 0
5, 65280, Control_c, 0, 64, 0
5, 65520, Control_c, 0, 64, 0
5, 65520, Note_on_c, 0, 45, 46
5, 65760, Note_on_c, 0, 45, 0
5, 65760, Note_on_c, 0, 50, 45
5, 65916, Note_on_c, 0, 50, 0
5, 66240, Note_on_c, 0, 57, 51
5, 66480, Note_on_c, 0, 57, 0
5, 66480, Note_on_c, 0, 62, 50
5, 66671, Note_on_c, 0, 62, 0
5, 66960, Note_on_c, 0, 43, 54
5, 67200, Note_on_c, 0, 43, 0
5, 67200, Note_on_c, 0, 50, 50
5, 67356, Note_on_c, 0, 50, 0
5, 67680, Note_on_c, 0, 57, 49
5, 67920, Note_on_c, 0, 57, 0
5, 67920, Note_on_c, 0, 61, 45
5, 68076, Note_on_c, 0, 61, 0
5, 68400, Note_on_c, 0, 45, 49
5, 68640, Note_on_c, 0, 45, 0
5, 68640, Note_on_c, 0, 46, 48
5, 68796, Note_on_c, 0, 46, 0
5, 69120, Note_on_c, 0, 57, 53
5, 69360, Note_on_c, 0, 57, 0
5, 69360, Note_on_c, 0, 58, 52
5, 69516, Note_on_c, 0, 58, 0
5, 69840, Note_on_c, 0, 46, 58
5, 70080, Note_on_c, 0, 46, 0
5, 70080, Note_on_c, 0, 47, 55
5, 70236, Note_on_c, 0, 47, 0
5, 70560, Note_on_c, 0, 59, 63
5, 70800, Note_on_c, 0, 59, 0
5, 70800, Note_on_c, 0, 57, 60
5, 70956, Note_on_c, 0, 57, 0
5, 71760, Control_c, 0, 64, 0
5, 72000, Note_on_c, 0, 45, 52
5, 72240, Note_on_c, 0, 45, 0
5, 72240, Note_on_c, 0, 46, 51
5, 72396, Note_on_c, 0, 46, 0
5, 72720, Note_on_c, 0, 57, 57
5, 72960, Note_on_c, 0, 57, 0
5, 72960, Note_on_c, 0, 58, 53
5, 73116, Note_on_c, 0, 58, 0
5, 73440, Note_on_c, 0, 46, 52
5, 74568, Note_on_c, 0, 46, 0
5, 74640, Note_on_c, 0, 45, 49
5, 74880, Note_on_c, 0, 45, 0
5, 74880, Note_on_c, 0, 50, 51
5, 75281, Note_on_c, 0, 50, 0
5, 75360, Note_on_c, 0, 63, 57
5, 75360, Note_on_c, 0, 57, 57
5, 75600, Note_on_c, 0, 63, 0
5, 75600, Note_on_c, 0, 62, 59
5, 76001, Note_on_c, 0, 62, 0
5, 76008, Note_on_c, 0, 57, 0
5, 76080, Note_on_c, 0, 42, 65
5, 76320, Note_on_c, 0, 42, 0
5, 76320, Note_on_c, 0, 43, 67
5, 76320, Note_on_c, 0, 50, 67
5, 76713, Note_on_c, 0, 50, 0
5, 76717, Note_on_c, 0, 43, 0
5, 76800, Note_on_c, 0, 62, 73
5, 76800, Note_on_c, 0, 55, 73
5, 77040, Note_on_c, 0, 55, 0
5, 77040, Note_on_c, 0, 62, 0
5, 77040, Note_on_c, 0, 61, 75
5, 77040, Note_on_c, 0, 57, 75
5, 77520, Note_on_c, 0, 57, 0
5, 77520, Note_on_c, 0, 61, 0
5, 77520, Note_on_c, 0, 57, 57
5, 77520, Note_on_c, 0, 64, 57
5, 77760, Note_on_c, 0, 64, 0
5, 77760, Note_on_c, 0, 57, 0
5, 77760, Note_on_c, 0, 57, 48
5, 77760, Note_on_c, 0, 62, 48
5, 78213, Note_on_c, 0, 62, 0
5, 78213, Note_on_c, 0, 57, 0
5, 78240, Control_c, 0, 64, 0
5, 78480, Control_c, 0, 64, 0
5, 84960, Control_c, 0, 64, 0
5, 91440, Control_c, 0, 64, 0
5, 98640, Control_c, 0, 64, 0
5, 105120, Control_c, 0, 64, 0
5, 111600, Control_c, 0, 64, 0
5, 112320, Control_c, 0, 64, 0
5, 118080, Control_c, 0, 64, 0
5, 118080, Control_c, 0, 64, 0
5, 118120, Control_c, 0, 64, 127
5, 118320, Control_c, 0, 64, 0
5, 118360, Control_c, 0, 64, 127
5, 118560, Control_c, 0, 64, 0
5, 118600, Control_c, 0, 64, 127
5, 118800, Control_c, 0, 64, 0
5, 118840, Control_c, 0, 64, 127
5, 119040, Control_c, 0, 64, 0
5, 119080, Control_c, 0, 64, 127
5, 119280, Control_c, 0, 64, 0
5, 119320, Control_c, 0, 64, 127
5, 119520, Control_c, 0, 64, 0
5, 119560, Control_c, 0, 64, 127
5, 119760, Control_c, 0, 64, 0
5, 119800, Control_c, 0, 64, 127
5, 120000, Control_c, 0, 64, 0
5, 120040, Control_c, 0, 64, 127
5, 120240, Control_c, 0, 64, 0
5, 120280, Control_c, 0, 64, 127
5, 120480, Control_c, 0, 64, 0
5, 120520, Control_c, 0, 64, 127
5, 120720, Control_c, 0, 64, 0
5, 120760, Control_c, 0, 64, 127
5, 120960, Control_c, 0, 64, 0
5, 120960, Control_c, 0, 64, 0
5, 121000, Control_c, 0, 64, 127
5, 121200, Control_c, 0, 64, 0
5, 121240, Control_c, 0, 64, 127
5, 121440, Control_c, 0, 64, 0
5, 121480, Control_c, 0, 64, 127
5, 121680, Control_c, 0, 64, 0
5, 121680, Control_c, 0, 64, 0
5, 121720, Control_c, 0, 64, 127
5, 121920, Control_c, 0, 64, 0
5, 121960, Control_c, 0, 64, 127
5, 122160, Control_c, 0, 64, 0
5, 122200, Control_c, 0, 64, 127
5, 122400, Control_c, 0, 64, 0
5, 122440, Control_c, 0, 64, 127
5, 122640, Control_c, 0, 64, 0
5, 122680, Control_c, 0, 64, 127
5, 122880, Control_c, 0, 64, 0
5, 122920, Control_c, 0, 64, 127
5, 123120, Control_c, 0, 64, 0
5, 123160, Control_c, 0, 64, 127
5, 123360, Control_c, 0, 64, 0
5, 123400, Control_c, 0, 64, 127
5, 123600, Control_c, 0, 64, 0
5, 123640, Control_c, 0, 64, 127
5, 123840, Control_c, 0, 64, 0
5, 123880, Control_c, 0, 64, 127
5, 124080, Control_c, 0, 64, 0
5, 124120, Control_c, 0, 64, 127
5, 124320, Control_c, 0, 64, 0
5, 124360, Control_c, 0, 64, 127
5, 124560, Control_c, 0, 64, 0
5, 124560, Control_c, 0, 64, 0
5, 124600, Control_c, 0, 64, 127
5, 124800, Control_c, 0, 64, 0
5, 124840, Control_c, 0, 64, 127
5, 125040, Control_c, 0, 64, 0
5, 125080, Control_c, 0, 64, 127
5, 125280, Control_c, 0, 64, 0
5, 125320, Control_c, 0, 64, 127
5, 125520, Control_c, 0, 64, 0
5, 125560, Control_c, 0, 64, 127
5, 125760, Control_c, 0, 64, 0
5, 125800, Control_c, 0, 64, 127
5, 126000, Control_c, 0, 64, 0
5, 126040, Control_c, 0, 64, 127
5, 126240, Control_c, 0, 64, 0
5, 126280, Control_c, 0, 64, 127
5, 126480, Control_c, 0, 64, 0
5, 126520, Control_c, 0, 64, 127
5, 126720, Control_c, 0, 64, 0
5, 126760, Control_c, 0, 64, 127
5, 126960, Control_c, 0, 64, 0
5, 127000, Control_c, 0, 64, 127
5, 127200, Control_c, 0, 64, 0
5, 127240, Control_c, 0, 64, 127
5, 127440, Control_c, 0, 64, 0
5, 127440, Control_c, 0, 64, 0
5, 127480, Control_c, 0, 64, 127
5, 127680, Control_c, 0, 64, 0
5, 127720, Control_c, 0, 64, 127
5, 127920, Control_c, 0, 64, 0
5, 127960, Control_c, 0, 64, 127
5, 128160, Control_c, 0, 64, 0
5, 128160, Control_c, 0, 64, 0
5, 128200, Control_c, 0, 64, 127
5, 128400, Control_c, 0, 64, 0
5, 128440, Control_c, 0, 64, 127
5, 128640, Control_c, 0, 64, 0
5, 128680, Control_c, 0, 64, 127
5, 128880, Control_c, 0, 64, 0
5, 128920, Control_c, 0, 64, 127
5, 129120, Control_c, 0, 64, 0
5, 129160, Control_c, 0, 64, 127
5, 129360, Control_c, 0, 64, 0
5, 129400, Control_c, 0, 64, 127
5, 129600, Control_c, 0, 64, 0
5, 129640, Control_c, 0, 64, 127
5, 129840, Control_c, 0, 64, 0
5, 129880, Control_c, 0, 64, 127
5, 130080, Control_c, 0, 64, 0
5, 130120, Control_c, 0, 64, 127
5, 130320, Control_c, 0, 64, 0
5, 130360, Control_c, 0, 64, 127
5, 130560, Control_c, 0, 64, 0
5, 130600, Control_c, 0, 64, 127
5, 130800, Control_c, 0, 64, 0
5, 130840, Control_c, 0, 64, 127
5, 131040, Control_c, 0, 64, 0
5, 131080, Control_c, 0, 64, 127
5, 131280, Control_c, 0, 64, 0
5, 131320, Control_c, 0, 64, 127
5, 131520, Control_c, 0, 64, 0
5, 131560, Control_c, 0, 64, 127
5, 131760, Control_c, 0, 64, 0
5, 131800, Control_c, 0, 64, 127
5, 132000, Control_c, 0, 64, 0
5, 132040, Control_c, 0, 64, 127
5, 132240, Control_c, 0, 64, 0
5, 132280, Control_c, 0, 64, 127
5, 132480, Control_c, 0, 64, 0
5, 132520, Control_c, 0, 64, 127
5, 132720, Control_c, 0, 64, 0
5, 132760, Control_c, 0, 64, 127
5, 132960, Control_c, 0, 64, 0
5, 133000, Control_c, 0, 64, 127
5, 133200, Control_c, 0, 64, 0
5, 133240, Control_c, 0, 64, 127
5, 133440, Control_c, 0, 64, 0
5, 133480, Control_c, 0, 64, 127
5, 133680, Control_c, 0, 64, 0
5, 133720, Control_c, 0, 64, 127
5, 133920, Control_c, 0, 64, 0
5, 133960, Control_c, 0, 64, 127
5, 134160, Control_c, 0, 64, 0
5, 134200, Control_c, 0, 64, 127
5, 134400, Control_c, 0, 64, 0
5, 134440, Control_c, 0, 64, 127
5, 134640, Control_c, 0, 64, 0
5, 134680, Control_c, 0, 64, 127
5, 134880, Control_c, 0, 64, 0
5, 134920, Control_c, 0, 64, 127
5, 135120, Control_c, 0, 64, 0
5, 135160, Control_c, 0, 64, 127
5, 135360, Control_c, 0, 64, 0
5, 135400, Control_c, 0, 64, 127
5, 135600, Control_c, 0, 64, 0
5, 135640, Control_c, 0, 64, 127
5, 135840, Control_c, 0, 64, 0
5, 135880, Control_c, 0, 64, 127
5, 136080, Control_c, 0, 64, 0
5, 136120, Control_c, 0, 64, 127
5, 136320, Control_c, 0, 64, 0
5, 136360, Control_c, 0, 64, 127
5, 136560, Control_c, 0, 64, 0
5, 136600, Control_c, 0, 64, 127
5, 136800, Control_c, 0, 64, 0
5, 136840, Control_c, 0, 64, 127
5, 137040, Control_c, 0, 64, 0
5, 137080, Control_c, 0, 64, 127
5, 137280, Control_c, 0, 64, 0
5, 137320, Control_c, 0, 64, 127
5, 137520, Control_c, 0, 64, 0
5, 137520, Control_c, 0, 64, 0
5, 137560, Control_c, 0, 64, 127
5, 137640, Control_c, 0, 64, 0
5, 138480, Control_c, 0, 64, 0
5, 138520, Control_c, 0, 64, 127
5, 139440, Control_c, 0, 64, 0
5, 139480, Control_c, 0, 64, 127
5, 139920, Control_c, 0, 64, 0
5, 139960, Control_c, 0, 64, 127
5, 140400, Control_c, 0, 64, 0
5, 140440, Control_c, 0, 64, 127
5, 140880, Control_c, 0, 64, 0
5, 140920, Control_c, 0, 64, 127
5, 141360, Control_c, 0, 64, 0
5, 141400, Control_c, 0, 64, 127
5, 141840, Control_c, 0, 64, 0
5, 141880, Control_c, 0, 64, 127
5, 142320, Control_c, 0, 64, 0
5, 142360, Control_c, 0, 64, 127
5, 142800, Control_c, 0, 64, 0
5, 142840, Control_c, 0, 64, 127
5, 143280, Control_c, 0, 64, 0
5, 143320, Control_c, 0, 64, 127
5, 144240, Control_c, 0, 64, 0
5, 144280, Control_c, 0, 64, 127
5, 145200, Control_c, 0, 64, 0
5, 145240, Control_c, 0, 64, 127
5, 146160, Control_c, 0, 64, 0
5, 146160, Control_c, 0, 64, 0
5, 146200, Control_c, 0, 64, 127
5, 146280, Control_c, 0, 64, 0
5, 147120, Control_c, 0, 64, 0
5, 147160, Control_c, 0, 64, 127
5, 148080, Control_c, 0, 64, 0
5, 148120, Control_c, 0, 64, 127
5, 148560, Control_c, 0, 64, 0
5, 148600, Control_c, 0, 64, 127
5, 149040, Control_c, 0, 64, 0
5, 149080, Control_c, 0, 64, 127
5, 149520, Control_c, 0, 64, 0
5, 149560, Control_c, 0, 64, 127
5, 150000, Control_c, 0, 64, 0
5, 150040, Control_c, 0, 64, 127
5, 150480, Control_c, 0, 64, 0
5, 150520, Control_c, 0, 64, 127
5, 150960, Control_c, 0, 64, 0
5, 151000, Control_c, 0, 64, 127
5, 151440, Control_c, 0, 64, 0
5, 151480, Control_c, 0, 64, 127
5, 151920, Control_c, 0, 64, 0
5, 151960, Control_c, 0, 64, 127
5, 152880, Control_c, 0, 64, 0
5, 152920, Control_c, 0, 64, 127
5, 153840, Control_c, 0, 64, 0
5, 153880, Control_c, 0, 64, 127
5, 154800, Control_c, 0, 64, 0
5, 154800, Control_c, 0, 64, 0
5, 154840, Control_c, 0, 64, 127
5, 155760, Control_c, 0, 64, 0
5, 155800, Control_c, 0, 64, 127
5, 156720, Control_c, 0, 64, 0
5, 156760, Control_c, 0, 64, 127
5, 157680, Control_c, 0, 64, 0
5, 157720, Control_c, 0, 64, 127
5, 158640, Control_c, 0, 64, 0
5, 158680, Control_c, 0, 64, 127
5, 159600, Control_c, 0, 64, 0
5, 159640, Control_c, 0, 64, 127
5, 160560, Control_c, 0, 64, 0
5, 160600, Control_c, 0, 64, 127
5, 161520, Control_c, 0, 64, 0
5, 161560, Control_c, 0, 64, 127
5, 162360, Control_c, 0, 64, 0
5, 162400, Control_c, 0, 64, 127
5, 162840, Control_c, 0, 64, 0
5, 162880, Control_c, 0, 64, 127
5, 164220, Control_c, 0, 64, 0
5, 164400, Control_c, 0, 64, 0
5, 164400, Control_c, 0, 64, 0
5, 173040, Control_c, 0, 64, 0
5, 173040, Control_c, 0, 64, 0
5, 181680, Control_c, 0, 64, 0
5, 191280, Control_c, 0, 64, 0
5, 192240, Control_c, 0, 64, 0
5, 199920, Control_c, 0, 64, 0
5, 200880, Control_c, 0, 64, 0
5, 208560, Control_c, 0, 64, 0
5, 209520, Control_c, 0, 64, 0
5, 217200, Control_c, 0, 64, 0
5, 217320, Note_on_c, 0, 37, 88
5, 217440, Note_on_c, 0, 37, 0
5, 217440, Note_on_c, 0, 38, 87
5, 217560, Note_on_c, 0, 38, 0
5, 217560, Note_on_c, 0, 40, 85
5, 217680, Note_on_c, 0, 40, 0
5, 217680, Note_on_c, 0, 38, 83
5, 217800, Note_on_c, 0, 38, 0
5, 217800, Note_on_c, 0, 49, 81
5, 217920, Note_on_c, 0, 49, 0
5, 217920, Note_on_c, 0, 50, 79
5, 218040, Note_on_c, 0, 50, 0
5, 218280, Note_on_c, 0, 37, 80
5, 218400, Note_on_c, 0, 37, 0
5, 218400, Note_on_c, 0, 38, 77
5, 218520, Note_on_c, 0, 38, 0
5, 218520, Note_on_c, 0, 40, 75
5, 218640, Note_on_c, 0, 40, 0
5, 218640, Note_on_c, 0, 38, 74
5, 218760, Note_on_c, 0, 38, 0
5, 218760, Note_on_c, 0, 49, 72
5, 218880, Note_on_c, 0, 49, 0
5, 218880, Note_on_c, 0, 50, 70
5, 219000, Note_on_c, 0, 50, 0
5, 219240, Note_on_c, 0, 49, 72
5, 219360, Note_on_c, 0, 49, 0
5, 219360, Note_on_c, 0, 50, 70
5, 219480, Note_on_c, 0, 50, 0
5, 219480, Note_on_c, 0, 52, 68
5, 219600, Note_on_c, 0, 52, 0
5, 219600, Note_on_c, 0, 50, 66
5, 219720, Note_on_c, 0, 50, 0
5, 219720, Note_on_c, 0, 61, 66
5, 219840, Note_on_c, 0, 61, 0
5, 219840, Note_on_c, 0, 62, 64
5, 219960, Note_on_c, 0, 62, 0
5, 220200, Note_on_c, 0, 37, 77
5, 220320, Note_on_c, 0, 37, 0
5, 220320, Note_on_c, 0, 38, 76
5, 220440, Note_on_c, 0, 38, 0
5, 220440, Note_on_c, 0, 40, 74
5, 220560, Note_on_c, 0, 40, 0
5, 220560, Note_on_c, 0, 38, 72
5, 220680, Note_on_c, 0, 38, 0
5, 220680, Note_on_c, 0, 49, 70
5, 220800, Note_on_c, 0, 49, 0
5, 220800, Note_on_c, 0, 50, 68
5, 220920, Note_on_c, 0, 50, 0
5, 221160, Note_on_c, 0, 49, 81
5, 221280, Note_on_c, 0, 49, 0
5, 221280, Note_on_c, 0, 50, 79
5, 221400, Note_on_c, 0, 50, 0
5, 221400, Note_on_c, 0, 52, 78
5, 221520, Note_on_c, 0, 52, 0
5, 221520, Note_on_c, 0, 50, 76
5, 221640, Note_on_c, 0, 50, 0
5, 221640, Note_on_c, 0, 61, 75
5, 221760, Note_on_c, 0, 61, 0
5, 221760, Note_on_c, 0, 62, 74
5, 221880, Note_on_c, 0, 62, 0
5, 222120, Note_on_c, 0, 47, 74
5, 222240, Note_on_c, 0, 47, 0
5, 222240, Note_on_c, 0, 48, 73
5, 222360, Note_on_c, 0, 48, 0
5, 222360, Note_on_c, 0, 50, 71
5, 222480, Note_on_c, 0, 50, 0
5, 222480, Note_on_c, 0, 48, 69
5, 222600, Note_on_c, 0, 48, 0
5, 222600, Note_on_c, 0, 59, 67
5, 222720, Note_on_c, 0, 59, 0
5, 222720, Note_on_c, 0, 60, 66
5, 222840, Note_on_c, 0, 60, 0
5, 223080, Note_on_c, 0, 46, 73
5, 223200, Note_on_c, 0, 46, 0
5, 223200, Note_on_c, 0, 47, 73
5, 223320, Note_on_c, 0, 47, 0
5, 223320, Note_on_c, 0, 48, 71
5, 223440, Note_on_c, 0, 48, 0
5, 223440, Note_on_c, 0, 47, 69
5, 223560, Note_on_c, 0, 47, 0
5, 223560, Note_on_c, 0, 59, 67
5, 223680, Note_on_c, 0, 59, 0
5, 223680, Note_on_c, 0, 54, 65
5, 223800, Note_on_c, 0, 54, 0
5, 224040, Note_on_c, 0, 39, 79
5, 224160, Note_on_c, 0, 39, 0
5, 224160, Note_on_c, 0, 40, 77
5, 224280, Note_on_c, 0, 40, 0
5, 224280, Note_on_c, 0, 41, 75
5, 224400, Note_on_c, 0, 41, 0
5, 224400, Note_on_c, 0, 40, 74
5, 224520, Note_on_c, 0, 40, 0
5, 224520, Note_on_c, 0, 51, 72
5, 224640, Note_on_c, 0, 51, 0
5, 224640, Note_on_c, 0, 52, 70
5, 224760, Note_on_c, 0, 52, 0
5, 225000, Note_on_c, 0, 44, 82
5, 225120, Note_on_c, 0, 44, 0
5, 225120, Note_on_c, 0, 45, 79
5, 225240, Note_on_c, 0, 45, 0
5, 225240, Note_on_c, 0, 46, 77
5, 225360, Note_on_c, 0, 46, 0
5, 225360, Note_on_c, 0, 45, 76
5, 225480, Note_on_c, 0, 45, 0
5, 225480, Note_on_c, 0, 56, 74
5, 225600, Note_on_c, 0, 56, 0
5, 225600, Note_on_c, 0, 57, 72
5, 225720, Note_on_c, 0, 57, 0
5, 225840, Control_c, 0, 64, 0
5, 225960, Note_on_c, 0, 37, 88
5, 226080, Note_on_c, 0, 37, 0
5, 226080, Note_on_c, 0, 38, 87
5, 226200, Note_on_c, 0, 38, 0
5, 226200, Note_on_c, 0, 40, 85
5, 226320, Note_on_c, 0, 40, 0
5, 226320, Note_on_c, 0, 38, 83
5, 226440, Note_on_c, 0, 38, 0
5, 226440, Note_on_c, 0, 49, 81
5, 226560, Note_on_c, 0, 49, 0
5, 226560, Note_on_c, 0, 50, 79
5, 226680, Note_on_c, 0, 50, 0
5, 226920, Note_on_c, 0, 37, 80
5, 227040, Note_on_c, 0, 37, 0
5, 227040, Note_on_c, 0, 38, 77
5, 227160, Note_on_c, 0, 38, 0
5, 227160, Note_on_c, 0, 40, 75
5, 227280, Note_on_c, 0, 40, 0
5, 227280, Note_on_c, 0, 38, 74
5, 227400, Note_on_c, 0, 38, 0
5, 227400, Note_on_c, 0, 49, 72
5, 227520, Note_on_c, 0, 49, 0
5, 227520, Note_on_c, 0, 50, 70
5, 227640, Note_on_c, 0, 50, 0
5, 227880, Note_on_c, 0, 49, 72
5, 228000, Note_on_c, 0, 49, 0
5, 228000, Note_on_c, 0, 50, 70
5, 228120, Note_on_c, 0, 50, 0
5, 228120, Note_on_c, 0, 52, 68
5, 228240, Note_on_c, 0, 52, 0
5, 228240, Note_on_c, 0, 50, 66
5, 228360, Note_on_c, 0, 50, 0
5, 228360, Note_on_c, 0, 61, 66
5, 228480, Note_on_c, 0, 61, 0
5, 228480, Note_on_c, 0, 62, 64
5, 228600, Note_on_c, 0, 62, 0
5, 228840, Note_on_c, 0, 37, 77
5, 228960, Note_on_c, 0, 37, 0
5, 228960, Note_on_c, 0, 38, 76
5, 229080, Note_on_c, 0, 38, 0
5, 229080, Note_on_c, 0, 40, 74
5, 229200, Note_on_c, 0, 40, 0
5, 229200, Note_on_c, 0, 38, 72
5, 229320, Note_on_c, 0, 38, 0
5, 229320, Note_on_c, 0, 49, 70
5, 229440, Note_on_c, 0, 49, 0
5, 229440, Note_on_c, 0, 50, 68
5, 229560, Note_on_c, 0, 50, 0
5, 229800, Note_on_c, 0, 49, 81
5, 229920, Note_on_c, 0, 49, 0
5, 229920, Note_on_c, 0, 50, 79
5, 230040, Note_on_c, 0, 50, 0
5, 230040, Note_on_c, 0, 52, 78
5, 230160, Note_on_c, 0, 52, 0
5, 230160, Note_on_c, 0, 50, 76
5, 230280, Note_on_c, 0, 50, 0
5, 230280, Note_on_c, 0, 61, 75
5, 230400, Note_on_c, 0, 61, 0
5, 230400, Note_on_c, 0, 62, 74
5, 230520, Note_on_c, 0, 62, 0
5, 230760, Note_on_c, 0, 47, 74
5, 230880, Note_on_c, 0, 47, 0
5, 230880, Note_on_c, 0, 48, 73
5, 231000, Note_on_c, 0, 48, 0
5, 231000, Note_on_c, 0, 50, 71
5, 231120, Note_on_c, 0, 50, 0
5, 231120, Note_on_c, 0, 48, 69
5, 231240, Note_on_c, 0, 48, 0
5, 231240, Note_on_c, 0, 59, 67
5, 231360, Note_on_c, 0, 59, 0
5, 231360, Note_on_c, 0, 60, 66
5, 231480, Note_on_c, 0, 60, 0
5, 231720, Note_on_c, 0, 46, 73
5, 231840, Note_on_c, 0, 46, 0
5, 231840, Note_on_c, 0, 47, 73
5, 231960, Note_on_c, 0, 47, 0
5, 231960, Note_on_c, 0, 48, 71
5, 232080, Note_on_c, 0, 48, 0
5, 232080, Note_on_c, 0, 47, 69
5, 232200, Note_on_c, 0, 47, 0
5, 232200, Note_on_c, 0, 59, 67
5, 232320, Note_on_c, 0, 59, 0
5, 232320, Note_on_c, 0, 54, 65
5, 232440, Note_on_c, 0, 54, 0
5, 232680, Note_on_c, 0, 39, 79
5, 232800, Note_on_c, 0, 39, 0
5, 232800, Note_on_c, 0, 40, 77
5, 232920, Note_on_c, 0, 40, 0
5, 232920, Note_on_c, 0, 41, 75
5, 233040, Note_on_c, 0, 41, 0
5, 233040, Note_on_c, 0, 40, 74
5, 233160, Note_on_c, 0, 40, 0
5, 233160, Note_on_c, 0, 51, 72
5, 233280, Note_on_c, 0, 51, 0
5, 233280, Note_on_c, 0, 52, 70
5, 233400, Note_on_c, 0, 52, 0
5, 233640, Note_on_c, 0, 44, 82
5, 233760, Note_on_c, 0, 44, 0
5, 233760, Note_on_c, 0, 45, 79
5, 233880, Note_on_c, 0, 45, 0
5, 233880, Note_on_c, 0, 46, 77
5, 234000, Note_on_c, 0, 46, 0
5, 234000, Note_on_c, 0, 45, 76
5, 234120, Note_on_c, 0, 45, 0
5, 234120, Note_on_c, 0, 56, 74
5, 234240, Note_on_c, 0, 56, 0
5, 234240, Note_on_c, 0, 57, 72
5, 234360, Note_on_c, 0, 57, 0
5, 234480, Control_c, 0, 64, 0
5, 234600, Note_on_c, 0, 37, 80
5, 234720, Note_on_c, 0, 37, 0
5, 234720, Note_on_c, 0, 38, 79
5, 234840, Note_on_c, 0, 38, 0
5, 234840, Note_on_c, 0, 40, 77
5, 234960, Note_on_c, 0, 40, 0
5, 234960, Note_on_c, 0, 38, 75
5, 235080, Note_on_c, 0, 38, 0
5, 235080, Note_on_c, 0, 49, 74
5, 235200, Note_on_c, 0, 49, 0
5, 235200, Note_on_c, 0, 50, 72
5, 235320, Note_on_c, 0, 50, 0
5, 235440, Control_c, 0, 64, 0
5, 235560, Note_on_c, 0, 35, 84
5, 235680, Note_on_c, 0, 35, 0
5, 235680, Note_on_c, 0, 36, 83
5, 235800, Note_on_c, 0, 36, 0
5, 235800, Note_on_c, 0, 38, 81
5, 235920, Note_on_c, 0, 38, 0
5, 235920, Note_on_c, 0, 36, 79
5, 236040, Note_on_c, 0, 36, 0
5, 236040, Note_on_c, 0, 47, 77
5, 236160, Note_on_c, 0, 47, 0
5, 236160, Note_on_c, 0, 48, 76
5, 236280, Note_on_c, 0, 48, 0
5, 236520, Note_on_c, 0, 47, 88
5, 236640, Note_on_c, 0, 47, 0
5, 236640, Note_on_c, 0, 48, 85
5, 236760, Note_on_c, 0, 48, 0
5, 236760, Note_on_c, 0, 50, 84
5, 236880, Note_on_c, 0, 50, 0
5, 236880, Note_on_c, 0, 48, 82
5, 237000, Note_on_c, 0, 48, 0
5, 237000, Note_on_c, 0, 60, 80
5, 237120, Note_on_c, 0, 60, 0
5, 237120, Note_on_c, 0, 55, 79
5, 237240, Note_on_c, 0, 55, 0
5, 237360, Note_on_c, 0, 40, 84
5, 237480, Note_on_c, 0, 40, 0
5, 237480, Note_on_c, 0, 41, 82
5, 237600, Note_on_c, 0, 41, 0
5, 237600, Note_on_c, 0, 43, 81
5, 237720, Note_on_c, 0, 43, 0
5, 237720, Note_on_c, 0, 41, 79
5, 237840, Note_on_c, 0, 41, 0
5, 237840, Note_on_c, 0, 52, 77
5, 237960, Note_on_c, 0, 52, 0
5, 237960, Note_on_c, 0, 53, 75
5, 238080, Note_on_c, 0, 53, 0
5, 238440, Note_on_c, 0, 41, 92
5, 238560, Note_on_c, 0, 41, 0
5, 238560, Note_on_c, 0, 42, 91
5, 238680, Note_on_c, 0, 42, 0
5, 238680, Note_on_c, 0, 43, 89
5, 238800, Note_on_c, 0, 43, 0
5, 238800, Note_on_c, 0, 42, 87
5, 238920, Note_on_c, 0, 42, 0
5, 238920, Note_on_c, 0, 53, 84
5, 239040, Note_on_c, 0, 53, 0
5, 239040, Note_on_c, 0, 54, 82
5, 239160, Note_on_c, 0, 54, 0
5, 239400, Note_on_c, 0, 47, 84
5, 239520, Note_on_c, 0, 47, 0
5, 239520, Note_on_c, 0, 48, 83
5, 239640, Note_on_c, 0, 48, 0
5, 239640, Note_on_c, 0, 50, 80
5, 239760, Note_on_c, 0, 50, 0
5, 239760, Note_on_c, 0, 48, 78
5, 239880, Note_on_c, 0, 48, 0
5, 239880, Note_on_c, 0, 59, 76
5, 240000, Note_on_c, 0, 59, 0
5, 240000, Note_on_c, 0, 60, 74
5, 240120, Note_on_c, 0, 60, 0
5, 240360, Note_on_c, 0, 45, 77
5, 240480, Note_on_c, 0, 45, 0
5, 240480, Note_on_c, 0, 46, 77
5, 240600, Note_on_c, 0, 46, 0
5, 240600, Note_on_c, 0, 48, 75
5, 240720, Note_on_c, 0, 48, 0
5, 240720, Note_on_c, 0, 46, 73
5, 240840, Note_on_c, 0, 46, 0
5, 240840, Note_on_c, 0, 57, 71
5, 240960, Note_on_c, 0, 57, 0
5, 240960, Note_on_c, 0, 58, 69
5, 241080, Note_on_c, 0, 58, 0
5, 241320, Note_on_c, 0, 45, 76
5, 241440, Note_on_c, 0, 45, 0
5, 241440, Note_on_c, 0, 46, 73
5, 241560, Note_on_c, 0, 46, 0
5, 241560, Note_on_c, 0, 48, 70
5, 241680, Note_on_c, 0, 48, 0
5, 241680, Note_on_c, 0, 46, 68
5, 241800, Note_on_c, 0, 46, 0
5, 241800, Note_on_c, 0, 57, 66
5, 241920, Note_on_c, 0, 57, 0
5, 241920, Note_on_c, 0, 58, 63
5, 242040, Note_on_c, 0, 58, 0
5, 242280, Note_on_c, 0, 32, 63
5, 242400, Note_on_c, 0, 32, 0
5, 242400, Note_on_c, 0, 33, 60
5, 242520, Note_on_c, 0, 33, 0
5, 242520, Note_on_c, 0, 34, 57
5, 242640, Note_on_c, 0, 34, 0
5, 242640, Note_on_c, 0, 33, 53
5, 242760, Note_on_c, 0, 33, 0
5, 242760, Note_on_c, 0, 44, 50
5, 242880, Note_on_c, 0, 44, 0
5, 242880, Note_on_c, 0, 45, 47
5, 243000, Note_on_c, 0, 45, 0
5, 243120, Control_c, 0, 64, 0
5, 284160, Note_on_c, 0, 47, 32
5, 284160, Note_on_c, 0, 50, 32
5, 284400, Note_on_c, 0, 50, 0
5, 284400, Note_on_c, 0, 47, 0
5, 284400, Note_on_c, 0, 56, 33
5, 284400, Note_on_c, 0, 50, 33
5, 284556, Note_on_c, 0, 50, 0
5, 284556, Note_on_c, 0, 56, 0
5, 285120, Note_on_c, 0, 56, 34
5, 285120, Note_on_c, 0, 50, 34
5, 285276, Note_on_c, 0, 50, 0
5, 285276, Note_on_c, 0, 56, 0
5, 285840, Note_on_c, 0, 57, 37
5, 285840, Note_on_c, 0, 50, 37
5, 285996, Note_on_c, 0, 50, 0
5, 285996, Note_on_c, 0, 57, 0
5, 286560, Note_on_c, 0, 59, 41
5, 286560, Note_on_c, 0, 50, 41
5, 286716, Note_on_c, 0, 50, 0
5, 286716, Note_on_c, 0, 59, 0
5, 287160, Note_on_c, 0, 55, 45
5, 287760, Note_on_c, 0, 55, 0
5, 288600, Note_on_c, 0, 55, 38
5, 289200, Note_on_c, 0, 55, 0
5, 289320, Note_on_c, 0, 57, 41
5, 289800, Note_on_c, 0, 57, 0
5, 289920, Note_on_c, 0, 50, 37
5, 289920, Note_on_c, 0, 52, 37
5, 289920, Note_on_c, 0, 56, 37
5, 290076, Note_on_c, 0, 56, 0
5, 290076, Note_on_c, 0, 52, 0
5, 290076, Note_on_c, 0, 50, 0
5, 306360, Control_c, 0, 64, 0
5, 307200, Control_c, 0, 64, 0
5, 307200, End_track
6, 0, Start_track
6, 0, Title_t, "Unnamed Track"
6, 0, Control_c, 0, 0, 0
6, 0, Control_c, 0, 7, 115
6, 0, Control_c, 0, 10, 32
6, 0, Control_c, 0, 91, 100
6, 0, Control_c, 0, 93, 28
6, 0, Control_c, 0, 64, 0
6, 0, Control_c, 0, 64, 0
6, 0, Control_c, 0, 1, 0
6, 0, Pitch_bend_c, 0, 8192
6, 1, Control_c, 0, 32, 0
6, 1, Program_c, 0, 0
6, 240, Control_c, 0, 64, 0
6, 480, Note_on_c, 0, 45, 61
6, 720, Note_on_c, 0, 45, 0
6, 720, Control_c, 0, 64, 0
6, 720, Note_on_c, 0, 38, 62
6, 720, Note_on_c, 0, 45, 62
6, 960, Note_on_c, 0, 45, 0
6, 960, Note_on_c, 0, 50, 62
6, 1200, Note_on_c, 0, 50, 0
6, 1200, Note_on_c, 0, 54, 63
6, 1416, Note_on_c, 0, 38, 0
6, 1420, Note_on_c, 0, 38, 64
6, 1440, Note_on_c, 0, 54, 0
6, 1440, Note_on_c, 0, 55, 64
6, 1680, Note_on_c, 0, 55, 0
6, 1680, Note_on_c, 0, 50, 65
6, 1680, Note_on_c, 0, 59, 65
6, 1920, Note_on_c, 0, 59, 0
6, 1920, Note_on_c, 0, 62, 66
6, 2160, Note_on_c, 0, 62, 0
6, 2160, Note_on_c, 0, 50, 0
6, 2160, Note_on_c, 0, 38, 0
6, 2160, Note_on_c, 0, 38, 66
6, 2160, Note_on_c, 0, 67, 66
6, 2400, Note_on_c, 0, 67, 0
6, 2400, Note_on_c, 0, 50, 66
6, 2400, Note_on_c, 0, 66, 66
6, 2640, Note_on_c, 0, 66, 0
6, 2640, Note_on_c, 0, 64, 67
6, 2880, Note_on_c, 0, 64, 0
6, 2880, Note_on_c, 0, 50, 0
6, 2880, Note_on_c, 0, 50, 69
6, 2880, Note_on_c, 0, 66, 69
6, 3120, Note_on_c, 0, 66, 0
6, 3120, Note_on_c, 0, 64, 66
6, 3360, Note_on_c, 0, 64, 0
6, 3360, Note_on_c, 0, 50, 0
6, 3360, Note_on_c, 0, 50, 61
6, 3360, Note_on_c, 0, 62, 61
6, 3562, Note_on_c, 0, 62, 0
6, 3566, Note_on_c, 0, 50, 0
6, 3570, Note_on_c, 0, 38, 0
6, 3600, Note_on_c, 0, 38, 62
6, 3600, Note_on_c, 0, 61, 62
6, 3840, Note_on_c, 0, 61, 0
6, 3840, Note_on_c, 0, 50, 64
6, 3840, Note_on_c, 0, 57, 64
6, 4080, Note_on_c, 0, 57, 0
6, 4080, Note_on_c, 0, 59, 66
6, 4320, Note_on_c, 0, 59, 0
6, 4320, Note_on_c, 0, 50, 0
6, 4320, Note_on_c, 0, 38, 0
6, 4320, Note_on_c, 0, 38, 64
6, 4320, Note_on_c, 0, 61, 64
6, 4560, Note_on_c, 0, 61, 0
6, 4560, Note_on_c, 0, 50, 67
6, 4560, Note_on_c, 0, 62, 67
6, 4800, Note_on_c, 0, 62, 0
6, 4800, Note_on_c, 0, 64, 70
6, 5013, Note_on_c, 0, 50, 0
6, 5020, Note_on_c, 0, 50, 73
6, 5040, Note_on_c, 0, 64, 0
6, 5040, Note_on_c, 0, 38, 0
6, 5040, Note_on_c, 0, 66, 73
6, 5260, Note_on_c, 0, 50, 0
6, 5260, Note_on_c, 0, 49, 70
6, 5280, Note_on_c, 0, 66, 0
6, 5280, Note_on_c, 0, 64, 70
6, 5500, Note_on_c, 0, 49, 0
6, 5500, Note_on_c, 0, 47, 67
6, 5520, Note_on_c, 0, 64, 0
6, 5520, Note_on_c, 0, 62, 67
6, 5740, Note_on_c, 0, 47, 0
6, 5760, Note_on_c, 0, 62, 0
6, 5760, Note_on_c, 0, 50, 64
6, 5760, Note_on_c, 0, 59, 64
6, 6000, Note_on_c, 0, 59, 0
6, 6000, Note_on_c, 0, 50, 0
6, 6000, Note_on_c, 0, 49, 61
6, 6000, Note_on_c, 0, 61, 61
6, 6220, Note_on_c, 0, 47, 62
6, 6240, Note_on_c, 0, 61, 0
6, 6240, Note_on_c, 0, 49, 0
6, 6240, Note_on_c, 0, 62, 62
6, 6460, Note_on_c, 0, 47, 0
6, 6480, Note_on_c, 0, 62, 0
6, 6480, Note_on_c, 0, 45, 70
6, 6480, Note_on_c, 0, 33, 70
6, 6720, Note_on_c, 0, 33, 0
6, 6720, Note_on_c, 0, 45, 0
6, 6720, Note_on_c, 0, 47, 64
6, 6720, Note_on_c, 0, 35, 64
6, 6960, Note_on_c, 0, 35, 0
6, 6960, Note_on_c, 0, 47, 0
6, 6960, Note_on_c, 0, 37, 58
6, 6960, Note_on_c, 0, 49, 58
6, 7158, Note_on_c, 0, 49, 0
6, 7158, Note_on_c, 0, 37, 0
6, 7200, Control_c, 0, 64, 0
6, 7200, Note_on_c, 0, 45, 62
6, 7200, Note_on_c, 0, 38, 62
6, 7440, Note_on_c, 0, 45, 0
6, 7440, Note_on_c, 0, 50, 62
6, 7680, Note_on_c, 0, 50, 0
6, 7680, Note_on_c, 0, 54, 63
6, 7896, Note_on_c, 0, 38, 0
6, 7900, Note_on_c, 0, 38, 64
6, 7920, Note_on_c, 0, 54, 0
6, 7920, Note_on_c, 0, 55, 64
6, 8160, Note_on_c, 0, 55, 0
6, 8160, Note_on_c, 0, 59, 65
6, 8160, Note_on_c, 0, 50, 65
6, 8400, Note_on_c, 0, 59, 0
6, 8400, Note_on_c, 0, 62, 66
6, 8640, Note_on_c, 0, 62, 0
6, 8640, Note_on_c, 0, 50, 0
6, 8640, Note_on_c, 0, 38, 0
6, 8640, Note_on_c, 0, 67, 66
6, 8640, Note_on_c, 0, 38, 66
6, 8880, Note_on_c, 0, 67, 0
6, 8880, Note_on_c, 0, 66, 66
6, 8880, Note_on_c, 0, 50, 66
6, 9120, Note_on_c, 0, 66, 0
6, 9120, Note_on_c, 0, 64, 67
6, 9360, Note_on_c, 0, 64, 0
6, 9360, Note_on_c, 0, 50, 0
6, 9360, Note_on_c, 0, 66, 69
6, 9360, Note_on_c, 0, 50, 69
6, 9600, Note_on_c, 0, 66, 0
6, 9600, Note_on_c, 0, 64, 66
6, 9840, Note_on_c, 0, 64, 0
6, 9840, Note_on_c, 0, 50, 0
6, 9840, Note_on_c, 0, 62, 61
6, 9840, Note_on_c, 0, 50, 61
6, 10042, Note_on_c, 0, 62, 0
6, 10046, Note_on_c, 0, 50, 0
6, 10050, Note_on_c, 0, 38, 0
6, 10080, Note_on_c, 0, 61, 62
6, 10080, Note_on_c, 0, 38, 62
6, 10320, Note_on_c, 0, 61, 0
6, 10320, Note_on_c, 0, 57, 64
6, 10320, Note_on_c, 0, 50, 64
6, 10560, Note_on_c, 0, 57, 0
6, 10560, Note_on_c, 0, 59, 66
6, 10800, Note_on_c, 0, 59, 0
6, 10800, Note_on_c, 0, 50, 0
6, 10800, Note_on_c, 0, 38, 0
6, 10800, Note_on_c, 0, 61, 64
6, 10800, Note_on_c, 0, 38, 64
6, 11040, Note_on_c, 0, 61, 0
6, 11040, Note_on_c, 0, 62, 67
6, 11040, Note_on_c, 0, 50, 67
6, 11280, Note_on_c, 0, 62, 0
6, 11280, Note_on_c, 0, 64, 70
6, 11493, Note_on_c, 0, 50, 0
6, 11500, Note_on_c, 0, 50, 73
6, 11520, Note_on_c, 0, 64, 0
6, 11520, Note_on_c, 0, 38, 0
6, 11520, Note_on_c, 0, 66, 73
6, 11740, Note_on_c, 0, 50, 0
6, 11740, Note_on_c, 0, 49, 70
6, 11760, Note_on_c, 0, 66, 0
6, 11760, Note_on_c, 0, 64, 70
6, 11980, Note_on_c, 0, 49, 0
6, 11980, Note_on_c, 0, 47, 67
6, 12000, Note_on_c, 0, 64, 0
6, 12000, Note_on_c, 0, 62, 67
6, 12220, Note_on_c, 0, 47, 0
6, 12240, Note_on_c, 0, 62, 0
6, 12240, Note_on_c, 0, 59, 64
6, 12240, Note_on_c, 0, 50, 64
6, 12480, Note_on_c, 0, 50, 0
6, 12480, Note_on_c, 0, 59, 0
6, 12480, Note_on_c, 0, 61, 61
6, 12480, Note_on_c, 0, 49, 61
6, 12700, Note_on_c, 0, 47, 62
6, 12720, Note_on_c, 0, 49, 0
6, 12720, Note_on_c, 0, 61, 0
6, 12720, Note_on_c, 0, 62, 62
6, 12940, Note_on_c, 0, 47, 0
6, 12960, Note_on_c, 0, 62, 0
6, 12960, Note_on_c, 0, 33, 70
6, 12960, Note_on_c, 0, 45, 70
6, 13200, Note_on_c, 0, 45, 0
6, 13200, Note_on_c, 0, 33, 0
6, 13200, Note_on_c, 0, 35, 64
6, 13200, Note_on_c, 0, 47, 64
6, 13440, Note_on_c, 0, 47, 0
6, 13440, Note_on_c, 0, 35, 0
6, 13440, Note_on_c, 0, 49, 58
6, 13440, Note_on_c, 0, 37, 58
6, 13638, Note_on_c, 0, 37, 0
6, 13638, Note_on_c, 0, 49, 0
6, 13680, Control_c, 0, 64, 0
6, 13680, Note_on_c, 0, 38, 58
6, 13680, Note_on_c, 0, 50, 58
6, 13920, Note_on_c, 0, 50, 0
6, 13920, Note_on_c, 0, 38, 0
6, 13920, Note_on_c, 0, 40, 61
6, 13920, Note_on_c, 0, 52, 61
6, 14160, Note_on_c, 0, 52, 0
6, 14160, Note_on_c, 0, 40, 0
6, 14160, Note_on_c, 0, 53, 63
6, 14160, Note_on_c, 0, 41, 63
6, 14400, Note_on_c, 0, 41, 0
6, 14400, Note_on_c, 0, 53, 0
6, 14400, Note_on_c, 0, 55, 66
6, 14400, Note_on_c, 0, 43, 66
6, 14640, Note_on_c, 0, 43, 0
6, 14640, Note_on_c, 0, 55, 0
6, 14640, Note_on_c, 0, 57, 63
6, 14640, Note_on_c, 0, 45, 63
6, 14880, Note_on_c, 0, 45, 0
6, 14880, Note_on_c, 0, 57, 0
6, 14880, Note_on_c, 0, 58, 59
6, 14880, Note_on_c, 0, 46, 59
6, 15120, Note_on_c, 0, 46, 0
6, 15120, Note_on_c, 0, 58, 0
6, 15120, Note_on_c, 0, 57, 62
6, 15120, Note_on_c, 0, 45, 62
6, 15360, Note_on_c, 0, 45, 0
6, 15360, Note_on_c, 0, 57, 0
6, 15360, Note_on_c, 0, 40, 64
6, 15360, Note_on_c, 0, 55, 64
6, 15600, Note_on_c, 0, 55, 0
6, 15600, Note_on_c, 0, 40, 0
6, 15600, Note_on_c, 0, 57, 66
6, 15600, Note_on_c, 0, 41, 66
6, 15840, Note_on_c, 0, 41, 0
6, 15840, Note_on_c, 0, 57, 0
6, 15840, Note_on_c, 0, 57, 70
6, 15840, Note_on_c, 0, 43, 70
6, 15840, Note_on_c, 0, 45, 70
6, 16080, Note_on_c, 0, 43, 0
6, 16080, Note_on_c, 0, 42, 66
6, 16320, Note_on_c, 0, 42, 0
6, 16320, Note_on_c, 0, 40, 68
6, 16560, Note_on_c, 0, 40, 0
6, 16560, Note_on_c, 0, 45, 0
6, 16560, Note_on_c, 0, 57, 0
6, 16560, Note_on_c, 0, 38, 72
6, 16560, Note_on_c, 0, 66, 72
6, 16560, Note_on_c, 0, 26, 72
6, 16800, Note_on_c, 0, 66, 0
6, 16800, Note_on_c, 0, 64, 67
6, 17040, Note_on_c, 0, 64, 0
6, 17040, Note_on_c, 0, 62, 70
6, 17250, Note_on_c, 0, 38, 0
6, 17260, Note_on_c, 0, 38, 73
6, 17280, Note_on_c, 0, 62, 0
6, 17280, Note_on_c, 0, 26, 0
6, 17280, Note_on_c, 0, 54, 73
6, 17520, Note_on_c, 0, 54, 0
6, 17520, Note_on_c, 0, 52, 76
6, 17760, Note_on_c, 0, 52, 0
6, 17760, Note_on_c, 0, 50, 79
6, 17980, Note_on_c, 0, 26, 81
6, 17990, Note_on_c, 0, 38, 0
6, 18000, Note_on_c, 0, 50, 0
6, 18000, Note_on_c, 0, 59, 81
6, 18000, Note_on_c, 0, 38, 81
6, 18240, Note_on_c, 0, 59, 0
6, 18240, Note_on_c, 0, 57, 77
6, 18240, Note_on_c, 0, 50, 77
6, 18480, Note_on_c, 0, 57, 0
6, 18480, Note_on_c, 0, 55, 73
6, 18717, Note_on_c, 0, 38, 0
6, 18720, Note_on_c, 0, 50, 0
6, 18720, Note_on_c, 0, 26, 0
6, 18720, Note_on_c, 0, 38, 69
6, 18840, Note_on_c, 0, 55, 0
6, 18840, Note_on_c, 0, 54, 67
6, 18960, Note_on_c, 0, 54, 0
6, 18960, Note_on_c, 0, 52, 65
6, 19200, Note_on_c, 0, 52, 0
6, 19200, Note_on_c, 0, 50, 61
6, 19440, Note_on_c, 0, 50, 0
6, 19440, Note_on_c, 0, 38, 0
6, 19440, Note_on_c, 0, 50, 56
6, 19440, Note_on_c, 0, 38, 56
6, 19878, Note_on_c, 0, 38, 0
6, 19882, Note_on_c, 0, 50, 0
6, 19920, Note_on_c, 0, 42, 33
6, 20040, Note_on_c, 0, 42, 0
6, 20040, Note_on_c, 0, 45, 33
6, 20160, Note_on_c, 0, 45, 0
6, 20160, Control_c, 0, 64, 0
6, 20160, Note_on_c, 0, 50, 33
6, 20640, Note_on_c, 0, 50, 0
6, 20640, Note_on_c, 0, 50, 34
6, 20760, Note_on_c, 0, 50, 0
6, 20760, Note_on_c, 0, 49, 34
6, 20880, Note_on_c, 0, 49, 0
6, 20880, Note_on_c, 0, 50, 34
6, 21360, Note_on_c, 0, 50, 0
6, 21360, Note_on_c, 0, 55, 35
6, 21480, Note_on_c, 0, 55, 0
6, 21480, Note_on_c, 0, 54, 36
6, 21600, Note_on_c, 0, 54, 0
6, 21600, Note_on_c, 0, 55, 36
6, 22080, Note_on_c, 0, 55, 0
6, 22080, Note_on_c, 0, 59, 37
6, 22200, Note_on_c, 0, 59, 0
6, 22200, Note_on_c, 0, 58, 37
6, 22320, Note_on_c, 0, 58, 0
6, 22320, Note_on_c, 0, 59, 37
6, 22800, Note_on_c, 0, 59, 0
6, 22800, Note_on_c, 0, 64, 38
6, 22920, Note_on_c, 0, 64, 0
6, 22920, Note_on_c, 0, 62, 38
6, 23040, Note_on_c, 0, 62, 0
6, 23040, Note_on_c, 0, 61, 38
6, 23520, Note_on_c, 0, 61, 0
6, 23520, Note_on_c, 0, 66, 39
6, 23640, Note_on_c, 0, 66, 0
6, 23640, Note_on_c, 0, 64, 40
6, 23760, Note_on_c, 0, 64, 0
6, 23760, Note_on_c, 0, 62, 40
6, 24240, Note_on_c, 0, 62, 0
6, 24240, Note_on_c, 0, 66, 41
6, 24360, Note_on_c, 0, 66, 0
6, 24360, Note_on_c, 0, 62, 41
6, 24480, Note_on_c, 0, 62, 0
6, 24480, Note_on_c, 0, 61, 42
6, 24960, Note_on_c, 0, 61, 0
6, 24960, Note_on_c, 0, 66, 41
6, 25080, Note_on_c, 0, 66, 0
6, 25080, Note_on_c, 0, 64, 40
6, 25200, Note_on_c, 0, 64, 0
6, 25200, Note_on_c, 0, 54, 40
6, 25680, Note_on_c, 0, 54, 0
6, 25680, Note_on_c, 0, 56, 38
6, 25920, Note_on_c, 0, 56, 0
6, 25920, Note_on_c, 0, 57, 37
6, 26280, Note_on_c, 0, 55, 36
6, 26400, Note_on_c, 0, 55, 0
6, 26400, Note_on_c, 0, 57, 0
6, 26400, Note_on_c, 0, 54, 35
6, 26520, Note_on_c, 0, 54, 0
6, 26520, Note_on_c, 0, 52, 35
6, 26640, Note_on_c, 0, 52, 0
6, 26640, Control_c, 0, 64, 0
6, 26640, Note_on_c, 0, 50, 33
6, 27120, Note_on_c, 0, 50, 0
6, 27120, Note_on_c, 0, 50, 34
6, 27240, Note_on_c, 0, 50, 0
6, 27240, Note_on_c, 0, 49, 34
6, 27360, Note_on_c, 0, 49, 0
6, 27360, Note_on_c, 0, 50, 34
6, 27840, Note_on_c, 0, 50, 0
6, 27840, Note_on_c, 0, 55, 35
6, 27960, Note_on_c, 0, 55, 0
6, 27960, Note_on_c, 0, 54, 36
6, 28080, Note_on_c, 0, 54, 0
6, 28080, Note_on_c, 0, 55, 36
6, 28560, Note_on_c, 0, 55, 0
6, 28560, Note_on_c, 0, 59, 37
6, 28680, Note_on_c, 0, 59, 0
6, 28680, Note_on_c, 0, 58, 37
6, 28800, Note_on_c, 0, 58, 0
6, 28800, Note_on_c, 0, 59, 37
6, 29280, Note_on_c, 0, 59, 0
6, 29280, Note_on_c, 0, 64, 38
6, 29400, Note_on_c, 0, 64, 0
6, 29400, Note_on_c, 0, 62, 38
6, 29520, Note_on_c, 0, 62, 0
6, 29520, Note_on_c, 0, 61, 38
6, 30000, Note_on_c, 0, 61, 0
6, 30000, Note_on_c, 0, 66, 39
6, 30120, Note_on_c, 0, 66, 0
6, 30120, Note_on_c, 0, 64, 40
6, 30240, Note_on_c, 0, 64, 0
6, 30240, Note_on_c, 0, 62, 40
6, 30720, Note_on_c, 0, 62, 0
6, 30720, Note_on_c, 0, 66, 41
6, 30840, Note_on_c, 0, 66, 0
6, 30840, Note_on_c, 0, 62, 41
6, 30960, Note_on_c, 0, 62, 0
6, 30960, Note_on_c, 0, 61, 42
6, 31440, Note_on_c, 0, 61, 0
6, 31440, Note_on_c, 0, 66, 41
6, 31560, Note_on_c, 0, 66, 0
6, 31560, Note_on_c, 0, 64, 40
6, 31680, Note_on_c, 0, 64, 0
6, 31680, Note_on_c, 0, 54, 40
6, 32160, Note_on_c, 0, 54, 0
6, 32160, Note_on_c, 0, 56, 38
6, 32400, Note_on_c, 0, 56, 0
6, 32400, Note_on_c, 0, 57, 37
6, 32880, Note_on_c, 0, 57, 0
6, 32880, Note_on_c, 0, 55, 35
6, 33000, Note_on_c, 0, 55, 0
6, 33000, Note_on_c, 0, 52, 35
6, 33120, Note_on_c, 0, 52, 0
6, 33120, Control_c, 0, 64, 0
6, 33120, Note_on_c, 0, 53, 37
6, 33600, Note_on_c, 0, 53, 0
6, 33600, Note_on_c, 0, 52, 40
6, 33720, Note_on_c, 0, 52, 0
6, 33720, Note_on_c, 0, 53, 41
6, 33840, Note_on_c, 0, 53, 0
6, 33840, Note_on_c, 0, 55, 42
6, 34320, Note_on_c, 0, 55, 0
6, 34320, Note_on_c, 0, 57, 45
6, 34440, Note_on_c, 0, 57, 0
6, 34440, Note_on_c, 0, 58, 46
6, 34560, Note_on_c, 0, 58, 0
6, 34560, Note_on_c, 0, 57, 47
6, 35040, Note_on_c, 0, 57, 0
6, 35040, Note_on_c, 0, 58, 49
6, 35160, Note_on_c, 0, 58, 0
6, 35160, Note_on_c, 0, 60, 52
6, 35280, Note_on_c, 0, 60, 0
6, 35280, Note_on_c, 0, 61, 55
6, 35760, Note_on_c, 0, 61, 0
6, 35760, Note_on_c, 0, 61, 57
6, 35880, Note_on_c, 0, 61, 0
6, 35880, Note_on_c, 0, 57, 57
6, 36000, Note_on_c, 0, 57, 0
6, 36000, Note_on_c, 0, 60, 58
6, 36480, Note_on_c, 0, 60, 0
6, 36480, Note_on_c, 0, 60, 55
6, 36600, Note_on_c, 0, 60, 0
6, 36600, Note_on_c, 0, 57, 54
6, 36720, Note_on_c, 0, 57, 0
6, 36720, Note_on_c, 0, 59, 54
6, 37200, Note_on_c, 0, 59, 0
6, 37200, Note_on_c, 0, 59, 50
6, 37320, Note_on_c, 0, 59, 0
6, 37320, Note_on_c, 0, 55, 49
6, 37440, Note_on_c, 0, 55, 0
6, 37440, Note_on_c, 0, 58, 49
6, 37920, Note_on_c, 0, 58, 0
6, 37920, Note_on_c, 0, 58, 45
6, 38040, Note_on_c, 0, 58, 0
6, 38040, Note_on_c, 0, 55, 45
6, 38160, Note_on_c, 0, 55, 0
6, 38160, Note_on_c, 0, 56, 44
6, 38640, Note_on_c, 0, 56, 0
6, 38640, Note_on_c, 0, 55, 41
6, 38880, Note_on_c, 0, 55, 0
6, 38880, Note_on_c, 0, 38, 39
6, 39360, Note_on_c, 0, 38, 0
6, 39360, Note_on_c, 0, 38, 36
6, 39581, Note_on_c, 0, 38, 0
6, 39600, Control_c, 0, 64, 0
6, 39600, Note_on_c, 0, 62, 41
6, 40080, Note_on_c, 0, 62, 0
6, 40080, Note_on_c, 0, 62, 46
6, 40200, Note_on_c, 0, 62, 0
6, 40200, Note_on_c, 0, 61, 47
6, 40320, Note_on_c, 0, 61, 0
6, 40320, Note_on_c, 0, 59, 48
6, 40800, Note_on_c, 0, 59, 0
6, 40800, Note_on_c, 0, 59, 51
6, 40920, Note_on_c, 0, 59, 0
6, 40920, Note_on_c, 0, 57, 51
6, 41040, Note_on_c, 0, 57, 0
6, 41040, Note_on_c, 0, 55, 52
6, 41520, Note_on_c, 0, 55, 0
6, 41520, Note_on_c, 0, 55, 49
6, 41760, Note_on_c, 0, 55, 0
6, 41760, Note_on_c, 0, 57, 48
6, 42240, Note_on_c, 0, 57, 0
6, 42240, Note_on_c, 0, 57, 44
6, 42360, Note_on_c, 0, 57, 0
6, 42360, Note_on_c, 0, 55, 45
6, 42442, Note_on_c, 0, 55, 0
6, 42480, Note_on_c, 0, 66, 45
6, 42960, Note_on_c, 0, 66, 0
6, 42960, Note_on_c, 0, 66, 47
6, 43080, Note_on_c, 0, 66, 0
6, 43080, Note_on_c, 0, 62, 48
6, 43200, Note_on_c, 0, 62, 0
6, 43200, Note_on_c, 0, 61, 48
6, 43680, Note_on_c, 0, 61, 0
6, 43680, Note_on_c, 0, 61, 51
6, 43800, Note_on_c, 0, 61, 0
6, 43800, Note_on_c, 0, 60, 51
6, 43920, Note_on_c, 0, 60, 0
6, 43920, Note_on_c, 0, 59, 52
6, 44400, Note_on_c, 0, 59, 0
6, 44400, Note_on_c, 0, 59, 54
6, 44520, Note_on_c, 0, 59, 0
6, 44520, Note_on_c, 0, 57, 54
6, 44640, Note_on_c, 0, 57, 0
6, 44640, Note_on_c, 0, 56, 55
6, 45120, Note_on_c, 0, 56, 0
6, 45120, Note_on_c, 0, 56, 57
6, 45360, Note_on_c, 0, 56, 0
6, 45360, Note_on_c, 0, 57, 58
6, 45840, Note_on_c, 0, 57, 0
6, 45840, Note_on_c, 0, 57, 48
6, 46080, Note_on_c, 0, 57, 0
6, 46080, Control_c, 0, 64, 0
6, 46080, Note_on_c, 0, 62, 41
6, 46560, Note_on_c, 0, 62, 0
6, 46560, Note_on_c, 0, 62, 46
6, 46680, Note_on_c, 0, 62, 0
6, 46680, Note_on_c, 0, 61, 47
6, 46800, Note_on_c, 0, 61, 0
6, 46800, Note_on_c, 0, 59, 48
6, 47280, Note_on_c, 0, 59, 0
6, 47280, Note_on_c, 0, 59, 51
6, 47400, Note_on_c, 0, 59, 0
6, 47400, Note_on_c, 0, 57, 51
6, 47520, Note_on_c, 0, 57, 0
6, 47520, Note_on_c, 0, 55, 52
6, 48000, Note_on_c, 0, 55, 0
6, 48000, Note_on_c, 0, 55, 49
6, 48240, Note_on_c, 0, 55, 0
6, 48240, Note_on_c, 0, 57, 48
6, 48720, Note_on_c, 0, 57, 0
6, 48720, Note_on_c, 0, 57, 44
6, 48840, Note_on_c, 0, 57, 0
6, 48840, Note_on_c, 0, 55, 45
6, 48922, Note_on_c, 0, 55, 0
6, 48960, Note_on_c, 0, 66, 45
6, 49440, Note_on_c, 0, 66, 0
6, 49440, Note_on_c, 0, 66, 47
6, 49560, Note_on_c, 0, 66, 0
6, 49560, Note_on_c, 0, 62, 48
6, 49680, Note_on_c, 0, 62, 0
6, 49680, Note_on_c, 0, 61, 48
6, 50160, Note_on_c, 0, 61, 0
6, 50160, Note_on_c, 0, 61, 51
6, 50280, Note_on_c, 0, 61, 0
6, 50280, Note_on_c, 0, 60, 51
6, 50400, Note_on_c, 0, 60, 0
6, 50400, Note_on_c, 0, 59, 52
6, 50880, Note_on_c, 0, 59, 0
6, 50880, Note_on_c, 0, 59, 54
6, 51000, Note_on_c, 0, 59, 0
6, 51000, Note_on_c, 0, 57, 54
6, 51120, Note_on_c, 0, 57, 0
6, 51120, Note_on_c, 0, 56, 55
6, 51600, Note_on_c, 0, 56, 0
6, 51600, Note_on_c, 0, 56, 57
6, 51840, Note_on_c, 0, 56, 0
6, 51840, Note_on_c, 0, 57, 58
6, 52320, Note_on_c, 0, 57, 0
6, 52320, Note_on_c, 0, 57, 48
6, 52560, Note_on_c, 0, 57, 0
6, 52560, Control_c, 0, 64, 0
6, 52560, Note_on_c, 0, 50, 47
6, 53040, Note_on_c, 0, 50, 0
6, 53040, Note_on_c, 0, 48, 48
6, 53280, Note_on_c, 0, 48, 0
6, 53280, Note_on_c, 0, 46, 49
6, 53760, Note_on_c, 0, 46, 0
6, 53760, Note_on_c, 0, 45, 51
6, 54000, Note_on_c, 0, 45, 0
6, 54000, Note_on_c, 0, 43, 52
6, 54480, Note_on_c, 0, 43, 0
6, 54480, Note_on_c, 0, 44, 53
6, 54720, Note_on_c, 0, 44, 0
6, 54720, Note_on_c, 0, 45, 56
6, 55200, Note_on_c, 0, 45, 0
6, 55200, Note_on_c, 0, 45, 48
6, 55402, Note_on_c, 0, 45, 0
6, 55440, Note_on_c, 0, 50, 47
6, 55920, Note_on_c, 0, 50, 0
6, 55920, Note_on_c, 0, 50, 52
6, 56160, Note_on_c, 0, 50, 0
6, 56160, Note_on_c, 0, 43, 54
6, 56640, Note_on_c, 0, 43, 0
6, 56640, Note_on_c, 0, 43, 51
6, 56880, Note_on_c, 0, 43, 0
6, 56880, Note_on_c, 0, 44, 49
6, 57360, Note_on_c, 0, 44, 0
6, 57360, Note_on_c, 0, 44, 46
6, 57600, Note_on_c, 0, 44, 0
6, 57600, Note_on_c, 0, 45, 44
6, 58080, Note_on_c, 0, 45, 0
6, 58080, Note_on_c, 0, 45, 41
6, 58200, Note_on_c, 0, 33, 44
6, 58320, Note_on_c, 0, 45, 0
6, 58440, Note_on_c, 0, 33, 0
6, 58440, Note_on_c, 0, 37, 37
6, 58560, Note_on_c, 0, 37, 0
6, 58560, Note_on_c, 0, 38, 32
6, 58762, Note_on_c, 0, 38, 0
6, 58800, Control_c, 0, 64, 0
6, 59040, Control_c, 0, 64, 0
6, 59040, Note_on_c, 0, 38, 46
6, 59441, Note_on_c, 0, 38, 0
6, 59760, Note_on_c, 0, 50, 51
6, 60202, Note_on_c, 0, 50, 0
6, 60480, Note_on_c, 0, 38, 54
6, 60888, Note_on_c, 0, 38, 0
6, 61200, Note_on_c, 0, 50, 49
6, 61601, Note_on_c, 0, 50, 0
6, 61920, Note_on_c, 0, 38, 49
6, 62317, Note_on_c, 0, 38, 0
6, 62640, Note_on_c, 0, 50, 53
6, 63037, Note_on_c, 0, 50, 0
6, 63360, Note_on_c, 0, 38, 58
6, 63757, Note_on_c, 0, 38, 0
6, 64080, Note_on_c, 0, 50, 63
6, 64485, Note_on_c, 0, 50, 0
6, 64800, Note_on_c, 0, 40, 53
6, 65040, Note_on_c, 0, 40, 0
6, 65040, Note_on_c, 0, 33, 50
6, 65196, Note_on_c, 0, 33, 0
6, 65280, Control_c, 0, 64, 0
6, 65520, Control_c, 0, 64, 0
6, 65520, Note_on_c, 0, 38, 46
6, 65921, Note_on_c, 0, 38, 0
6, 66240, Note_on_c, 0, 50, 51
6, 66682, Note_on_c, 0, 50, 0
6, 66960, Note_on_c, 0, 38, 54
6, 67368, Note_on_c, 0, 38, 0
6, 67680, Note_on_c, 0, 50, 49
6, 68081, Note_on_c, 0, 50, 0
6, 68400, Note_on_c, 0, 38, 49
6, 68797, Note_on_c, 0, 38, 0
6, 69120, Note_on_c, 0, 50, 53
6, 69517, Note_on_c, 0, 50, 0
6, 69840, Note_on_c, 0, 38, 58
6, 70237, Note_on_c, 0, 38, 0
6, 70560, Note_on_c, 0, 50, 63
6, 70965, Note_on_c, 0, 50, 0
6, 71280, Note_on_c, 0, 40, 53
6, 71520, Note_on_c, 0, 40, 0
6, 71520, Note_on_c, 0, 33, 50
6, 71676, Note_on_c, 0, 33, 0
6, 71760, Control_c, 0, 64, 0
6, 72000, Note_on_c, 0, 38, 52
6, 72397, Note_on_c, 0, 38, 0
6, 72720, Note_on_c, 0, 50, 57
6, 73117, Note_on_c, 0, 50, 0
6, 73440, Note_on_c, 0, 38, 52
6, 73680, Note_on_c, 0, 38, 0
6, 73680, Note_on_c, 0, 36, 49
6, 73836, Note_on_c, 0, 36, 0
6, 74160, Note_on_c, 0, 36, 48
6, 74400, Note_on_c, 0, 36, 0
6, 74400, Note_on_c, 0, 34, 45
6, 74565, Note_on_c, 0, 34, 0
6, 74640, Note_on_c, 0, 33, 49
6, 74880, Note_on_c, 0, 33, 0
6, 74880, Note_on_c, 0, 38, 51
6, 75273, Note_on_c, 0, 38, 0
6, 75360, Note_on_c, 0, 50, 57
6, 76001, Note_on_c, 0, 50, 0
6, 76080, Note_on_c, 0, 38, 65
6, 76713, Note_on_c, 0, 38, 0
6, 76800, Note_on_c, 0, 50, 73
6, 77040, Note_on_c, 0, 50, 0
6, 77040, Note_on_c, 0, 50, 75
6, 77760, Note_on_c, 0, 50, 0
6, 77760, Note_on_c, 0, 50, 48
6, 78217, Note_on_c, 0, 50, 0
6, 78240, Control_c, 0, 64, 0
6, 78480, Control_c, 0, 64, 0
6, 78480, Note_on_c, 0, 38, 53
6, 78480, Note_on_c, 0, 50, 53
6, 78600, Note_on_c, 0, 50, 0
6, 78600, Note_on_c, 0, 49, 55
6, 78672, Note_on_c, 0, 38, 0
6, 78696, Note_on_c, 0, 49, 0
6, 78720, Note_on_c, 0, 38, 56
6, 78720, Note_on_c, 0, 49, 56
6, 78840, Note_on_c, 0, 49, 0
6, 78840, Note_on_c, 0, 47, 57
6, 78912, Note_on_c, 0, 38, 0
6, 78936, Note_on_c, 0, 47, 0
6, 78960, Note_on_c, 0, 38, 58
6, 78960, Note_on_c, 0, 47, 58
6, 79080, Note_on_c, 0, 47, 0
6, 79080, Note_on_c, 0, 45, 59
6, 79152, Note_on_c, 0, 38, 0
6, 79176, Note_on_c, 0, 45, 0
6, 79200, Note_on_c, 0, 38, 60
6, 79200, Note_on_c, 0, 45, 60
6, 79320, Note_on_c, 0, 45, 0
6, 79320, Note_on_c, 0, 43, 56
6, 79392, Note_on_c, 0, 38, 0
6, 79416, Note_on_c, 0, 43, 0
6, 79440, Note_on_c, 0, 38, 56
6, 79440, Note_on_c, 0, 43, 56
6, 79560, Note_on_c, 0, 43, 0
6, 79560, Note_on_c, 0, 42, 55
6, 79632, Note_on_c, 0, 38, 0
6, 79656, Note_on_c, 0, 42, 0
6, 79680, Note_on_c, 0, 38, 54
6, 79680, Note_on_c, 0, 42, 54
6, 79800, Note_on_c, 0, 42, 0
6, 79800, Note_on_c, 0, 40, 54
6, 79872, Note_on_c, 0, 38, 0
6, 79896, Note_on_c, 0, 40, 0
6, 79920, Note_on_c, 0, 38, 53
6, 79920, Note_on_c, 0, 40, 53
6, 80040, Note_on_c, 0, 40, 0
6, 80040, Note_on_c, 0, 42, 53
6, 80112, Note_on_c, 0, 38, 0
6, 80136, Note_on_c, 0, 42, 0
6, 80160, Note_on_c, 0, 38, 52
6, 80160, Note_on_c, 0, 42, 52
6, 80280, Note_on_c, 0, 42, 0
6, 80280, Note_on_c, 0, 43, 52
6, 80352, Note_on_c, 0, 38, 0
6, 80376, Note_on_c, 0, 43, 0
6, 80400, Note_on_c, 0, 38, 51
6, 80400, Note_on_c, 0, 40, 51
6, 80520, Note_on_c, 0, 40, 0
6, 80520, Note_on_c, 0, 42, 50
6, 80592, Note_on_c, 0, 38, 0
6, 80616, Note_on_c, 0, 42, 0
6, 80640, Note_on_c, 0, 38, 50
6, 80640, Note_on_c, 0, 42, 50
6, 80760, Note_on_c, 0, 42, 0
6, 80760, Note_on_c, 0, 43, 52
6, 80832, Note_on_c, 0, 38, 0
6, 80856, Note_on_c, 0, 43, 0
6, 80880, Note_on_c, 0, 38, 55
6, 80880, Note_on_c, 0, 43, 55
6, 81000, Note_on_c, 0, 43, 0
6, 81000, Note_on_c, 0, 45, 54
6, 81072, Note_on_c, 0, 38, 0
6, 81096, Note_on_c, 0, 45, 0
6, 81120, Note_on_c, 0, 38, 52
6, 81120, Note_on_c, 0, 45, 52
6, 81240, Note_on_c, 0, 45, 0
6, 81240, Note_on_c, 0, 47, 50
6, 81312, Note_on_c, 0, 38, 0
6, 81336, Note_on_c, 0, 47, 0
6, 81360, Note_on_c, 0, 38, 51
6, 81360, Note_on_c, 0, 52, 51
6, 81480, Note_on_c, 0, 52, 0
6, 81480, Note_on_c, 0, 50, 52
6, 81552, Note_on_c, 0, 38, 0
6, 81576, Note_on_c, 0, 50, 0
6, 81600, Note_on_c, 0, 38, 53
6, 81600, Note_on_c, 0, 50, 53
6, 81720, Note_on_c, 0, 50, 0
6, 81720, Note_on_c, 0, 49, 54
6, 81792, Note_on_c, 0, 38, 0
6, 81816, Note_on_c, 0, 49, 0
6, 81840, Note_on_c, 0, 38, 55
6, 81840, Note_on_c, 0, 49, 55
6, 81960, Note_on_c, 0, 49, 0
6, 81960, Note_on_c, 0, 47, 56
6, 82032, Note_on_c, 0, 38, 0
6, 82056, Note_on_c, 0, 47, 0
6, 82080, Note_on_c, 0, 38, 58
6, 82080, Note_on_c, 0, 47, 58
6, 82200, Note_on_c, 0, 47, 0
6, 82200, Note_on_c, 0, 45, 56
6, 82272, Note_on_c, 0, 38, 0
6, 82296, Note_on_c, 0, 45, 0
6, 82320, Note_on_c, 0, 38, 55
6, 82320, Note_on_c, 0, 45, 55
6, 82440, Note_on_c, 0, 45, 0
6, 82440, Note_on_c, 0, 43, 54
6, 82512, Note_on_c, 0, 38, 0
6, 82536, Note_on_c, 0, 43, 0
6, 82560, Note_on_c, 0, 38, 52
6, 82560, Note_on_c, 0, 43, 52
6, 82680, Note_on_c, 0, 43, 0
6, 82680, Note_on_c, 0, 42, 51
6, 82752, Note_on_c, 0, 38, 0
6, 82776, Note_on_c, 0, 42, 0
6, 82800, Note_on_c, 0, 38, 49
6, 82800, Note_on_c, 0, 42, 49
6, 82920, Note_on_c, 0, 42, 0
6, 82920, Note_on_c, 0, 41, 49
6, 82992, Note_on_c, 0, 38, 0
6, 83016, Note_on_c, 0, 41, 0
6, 83040, Note_on_c, 0, 41, 50
6, 83040, Note_on_c, 0, 38, 50
6, 83160, Note_on_c, 0, 41, 0
6, 83160, Note_on_c, 0, 40, 52
6, 83246, Note_on_c, 0, 38, 0
6, 83256, Note_on_c, 0, 40, 0
6, 83280, Note_on_c, 0, 38, 53
6, 83280, Note_on_c, 0, 40, 53
6, 83400, Note_on_c, 0, 38, 0
6, 83400, Note_on_c, 0, 37, 54
6, 83472, Note_on_c, 0, 40, 0
6, 83496, Note_on_c, 0, 37, 0
6, 83520, Note_on_c, 0, 37, 55
6, 83520, Note_on_c, 0, 40, 55
6, 83640, Note_on_c, 0, 37, 0
6, 83640, Note_on_c, 0, 36, 56
6, 83712, Note_on_c, 0, 40, 0
6, 83736, Note_on_c, 0, 36, 0
6, 83760, Note_on_c, 0, 36, 57
6, 83760, Note_on_c, 0, 40, 57
6, 83880, Note_on_c, 0, 36, 0
6, 83880, Note_on_c, 0, 35, 58
6, 83952, Note_on_c, 0, 40, 0
6, 83976, Note_on_c, 0, 35, 0
6, 84000, Note_on_c, 0, 35, 60
6, 84000, Note_on_c, 0, 40, 60
6, 84120, Note_on_c, 0, 35, 0
6, 84120, Note_on_c, 0, 33, 61
6, 84192, Note_on_c, 0, 40, 0
6, 84216, Note_on_c, 0, 33, 0
6, 84240, Note_on_c, 0, 33, 64
6, 84240, Note_on_c, 0, 40, 64
6, 84360, Note_on_c, 0, 45, 62
6, 84367, Note_on_c, 0, 40, 0
6, 84432, Note_on_c, 0, 33, 0
6, 84456, Note_on_c, 0, 45, 0
6, 84480, Note_on_c, 0, 45, 60
6, 84480, Note_on_c, 0, 33, 60
6, 84600, Note_on_c, 0, 45, 0
6, 84600, Note_on_c, 0, 49, 59
6, 84672, Note_on_c, 0, 33, 0
6, 84696, Note_on_c, 0, 49, 0
6, 84720, Note_on_c, 0, 49, 57
6, 84720, Note_on_c, 0, 45, 57
6, 84840, Note_on_c, 0, 49, 0
6, 84840, Note_on_c, 0, 50, 55
6, 84912, Note_on_c, 0, 45, 0
6, 84936, Note_on_c, 0, 50, 0
6, 84960, Control_c, 0, 64, 0
6, 84960, Note_on_c, 0, 50, 53
6, 84960, Note_on_c, 0, 38, 53
6, 85080, Note_on_c, 0, 50, 0
6, 85080, Note_on_c, 0, 49, 55
6, 85152, Note_on_c, 0, 38, 0
6, 85176, Note_on_c, 0, 49, 0
6, 85200, Note_on_c, 0, 49, 56
6, 85200, Note_on_c, 0, 38, 56
6, 85320, Note_on_c, 0, 49, 0
6, 85320, Note_on_c, 0, 47, 57
6, 85392, Note_on_c, 0, 38, 0
6, 85416, Note_on_c, 0, 47, 0
6, 85440, Note_on_c, 0, 47, 58
6, 85440, Note_on_c, 0, 38, 58
6, 85560, Note_on_c, 0, 47, 0
6, 85560, Note_on_c, 0, 45, 59
6, 85632, Note_on_c, 0, 38, 0
6, 85656, Note_on_c, 0, 45, 0
6, 85680, Note_on_c, 0, 45, 60
6, 85680, Note_on_c, 0, 38, 60
6, 85800, Note_on_c, 0, 45, 0
6, 85800, Note_on_c, 0, 43, 56
6, 85872, Note_on_c, 0, 38, 0
6, 85896, Note_on_c, 0, 43, 0
6, 85920, Note_on_c, 0, 43, 56
6, 85920, Note_on_c, 0, 38, 56
6, 86040, Note_on_c, 0, 43, 0
6, 86040, Note_on_c, 0, 42, 55
6, 86112, Note_on_c, 0, 38, 0
6, 86136, Note_on_c, 0, 42, 0
6, 86160, Note_on_c, 0, 42, 54
6, 86160, Note_on_c, 0, 38, 54
6, 86280, Note_on_c, 0, 42, 0
6, 86280, Note_on_c, 0, 40, 54
6, 86352, Note_on_c, 0, 38, 0
6, 86376, Note_on_c, 0, 40, 0
6, 86400, Note_on_c, 0, 40, 53
6, 86400, Note_on_c, 0, 38, 53
6, 86520, Note_on_c, 0, 40, 0
6, 86520, Note_on_c, 0, 42, 53
6, 86592, Note_on_c, 0, 38, 0
6, 86616, Note_on_c, 0, 42, 0
6, 86640, Note_on_c, 0, 42, 52
6, 86640, Note_on_c, 0, 38, 52
6, 86760, Note_on_c, 0, 42, 0
6, 86760, Note_on_c, 0, 43, 52
6, 86832, Note_on_c, 0, 38, 0
6, 86856, Note_on_c, 0, 43, 0
6, 86880, Note_on_c, 0, 40, 51
6, 86880, Note_on_c, 0, 38, 51
6, 87000, Note_on_c, 0, 40, 0
6, 87000, Note_on_c, 0, 42, 50
6, 87072, Note_on_c, 0, 38, 0
6, 87096, Note_on_c, 0, 42, 0
6, 87120, Note_on_c, 0, 42, 50
6, 87120, Note_on_c, 0, 38, 50
6, 87240, Note_on_c, 0, 42, 0
6, 87240, Note_on_c, 0, 43, 52
6, 87312, Note_on_c, 0, 38, 0
6, 87336, Note_on_c, 0, 43, 0
6, 87360, Note_on_c, 0, 43, 55
6, 87360, Note_on_c, 0, 38, 55
6, 87480, Note_on_c, 0, 43, 0
6, 87480, Note_on_c, 0, 45, 54
6, 87552, Note_on_c, 0, 38, 0
6, 87576, Note_on_c, 0, 45, 0
6, 87600, Note_on_c, 0, 45, 52
6, 87600, Note_on_c, 0, 38, 52
6, 87720, Note_on_c, 0, 45, 0
6, 87720, Note_on_c, 0, 47, 50
6, 87792, Note_on_c, 0, 38, 0
6, 87816, Note_on_c, 0, 47, 0
6, 87840, Note_on_c, 0, 52, 51
6, 87840, Note_on_c, 0, 38, 51
6, 87960, Note_on_c, 0, 52, 0
6, 87960, Note_on_c, 0, 50, 52
6, 88032, Note_on_c, 0, 38, 0
6, 88056, Note_on_c, 0, 50, 0
6, 88080, Note_on_c, 0, 50, 53
6, 88080, Note_on_c, 0, 38, 53
6, 88200, Note_on_c, 0, 50, 0
6, 88200, Note_on_c, 0, 49, 54
6, 88272, Note_on_c, 0, 38, 0
6, 88296, Note_on_c, 0, 49, 0
6, 88320, Note_on_c, 0, 49, 55
6, 88320, Note_on_c, 0, 38, 55
6, 88440, Note_on_c, 0, 49, 0
6, 88440, Note_on_c, 0, 47, 56
6, 88512, Note_on_c, 0, 38, 0
6, 88536, Note_on_c, 0, 47, 0
6, 88560, Note_on_c, 0, 47, 58
6, 88560, Note_on_c, 0, 38, 58
6, 88680, Note_on_c, 0, 47, 0
6, 88680, Note_on_c, 0, 45, 56
6, 88752, Note_on_c, 0, 38, 0
6, 88776, Note_on_c, 0, 45, 0
6, 88800, Note_on_c, 0, 45, 55
6, 88800, Note_on_c, 0, 38, 55
6, 88920, Note_on_c, 0, 45, 0
6, 88920, Note_on_c, 0, 43, 54
6, 88992, Note_on_c, 0, 38, 0
6, 89016, Note_on_c, 0, 43, 0
6, 89040, Note_on_c, 0, 43, 52
6, 89040, Note_on_c, 0, 38, 52
6, 89160, Note_on_c, 0, 43, 0
6, 89160, Note_on_c, 0, 42, 51
6, 89232, Note_on_c, 0, 38, 0
6, 89256, Note_on_c, 0, 42, 0
6, 89280, Note_on_c, 0, 42, 49
6, 89280, Note_on_c, 0, 38, 49
6, 89400, Note_on_c, 0, 42, 0
6, 89400, Note_on_c, 0, 41, 49
6, 89472, Note_on_c, 0, 38, 0
6, 89496, Note_on_c, 0, 41, 0
6, 89520, Note_on_c, 0, 38, 50
6, 89520, Note_on_c, 0, 41, 50
6, 89640, Note_on_c, 0, 41, 0
6, 89640, Note_on_c, 0, 40, 52
6, 89726, Note_on_c, 0, 38, 0
6, 89736, Note_on_c, 0, 40, 0
6, 89760, Note_on_c, 0, 40, 53
6, 89760, Note_on_c, 0, 38, 53
6, 89880, Note_on_c, 0, 38, 0
6, 89880, Note_on_c, 0, 37, 54
6, 89952, Note_on_c, 0, 40, 0
6, 89976, Note_on_c, 0, 37, 0
6, 90000, Note_on_c, 0, 40, 55
6, 90000, Note_on_c, 0, 37, 55
6, 90120, Note_on_c, 0, 37, 0
6, 90120, Note_on_c, 0, 36, 56
6, 90192, Note_on_c, 0, 40, 0
6, 90216, Note_on_c, 0, 36, 0
6, 90240, Note_on_c, 0, 40, 57
6, 90240, Note_on_c, 0, 36, 57
6, 90360, Note_on_c, 0, 36, 0
6, 90360, Note_on_c, 0, 35, 58
6, 90432, Note_on_c, 0, 40, 0
6, 90456, Note_on_c, 0, 35, 0
6, 90480, Note_on_c, 0, 40, 60
6, 90480, Note_on_c, 0, 35, 60
6, 90600, Note_on_c, 0, 35, 0
6, 90600, Note_on_c, 0, 33, 61
6, 90672, Note_on_c, 0, 40, 0
6, 90696, Note_on_c, 0, 33, 0
6, 90720, Note_on_c, 0, 40, 64
6, 90720, Note_on_c, 0, 33, 64
6, 90840, Note_on_c, 0, 45, 62
6, 90847, Note_on_c, 0, 40, 0
6, 90912, Note_on_c, 0, 33, 0
6, 90936, Note_on_c, 0, 45, 0
6, 90960, Note_on_c, 0, 33, 60
6, 90960, Note_on_c, 0, 45, 60
6, 91080, Note_on_c, 0, 45, 0
6, 91080, Note_on_c, 0, 49, 59
6, 91152, Note_on_c, 0, 33, 0
6, 91176, Note_on_c, 0, 49, 0
6, 91200, Note_on_c, 0, 45, 57
6, 91200, Note_on_c, 0, 49, 57
6, 91320, Note_on_c, 0, 49, 0
6, 91320, Note_on_c, 0, 50, 55
6, 91392, Note_on_c, 0, 45, 0
6, 91416, Note_on_c, 0, 50, 0
6, 91440, Control_c, 0, 64, 0
6, 91440, Note_on_c, 0, 50, 58
6, 91440, Note_on_c, 0, 38, 58
6, 91560, Note_on_c, 0, 50, 0
6, 91560, Note_on_c, 0, 48, 57
6, 91632, Note_on_c, 0, 38, 0
6, 91656, Note_on_c, 0, 48, 0
6, 91680, Note_on_c, 0, 48, 56
6, 91680, Note_on_c, 0, 38, 56
6, 91800, Note_on_c, 0, 48, 0
6, 91800, Note_on_c, 0, 46, 56
6, 91872, Note_on_c, 0, 38, 0
6, 91896, Note_on_c, 0, 46, 0
6, 91920, Note_on_c, 0, 46, 55
6, 91920, Note_on_c, 0, 38, 55
6, 92040, Note_on_c, 0, 46, 0
6, 92040, Note_on_c, 0, 45, 54
6, 92112, Note_on_c, 0, 38, 0
6, 92136, Note_on_c, 0, 45, 0
6, 92160, Note_on_c, 0, 45, 53
6, 92160, Note_on_c, 0, 38, 53
6, 92280, Note_on_c, 0, 45, 0
6, 92280, Note_on_c, 0, 43, 53
6, 92352, Note_on_c, 0, 38, 0
6, 92376, Note_on_c, 0, 43, 0
6, 92400, Note_on_c, 0, 43, 52
6, 92400, Note_on_c, 0, 38, 52
6, 92520, Note_on_c, 0, 43, 0
6, 92520, Note_on_c, 0, 41, 51
6, 92592, Note_on_c, 0, 38, 0
6, 92616, Note_on_c, 0, 41, 0
6, 92640, Note_on_c, 0, 41, 50
6, 92640, Note_on_c, 0, 38, 50
6, 92760, Note_on_c, 0, 41, 0
6, 92760, Note_on_c, 0, 40, 50
6, 92832, Note_on_c, 0, 38, 0
6, 92856, Note_on_c, 0, 40, 0
6, 92880, Note_on_c, 0, 43, 49
6, 92880, Note_on_c, 0, 48, 49
6, 93000, Note_on_c, 0, 43, 0
6, 93000, Note_on_c, 0, 41, 50
6, 93072, Note_on_c, 0, 48, 0
6, 93096, Note_on_c, 0, 41, 0
6, 93120, Note_on_c, 0, 41, 51
6, 93120, Note_on_c, 0, 48, 51
6, 93240, Note_on_c, 0, 41, 0
6, 93240, Note_on_c, 0, 40, 52
6, 93312, Note_on_c, 0, 48, 0
6, 93336, Note_on_c, 0, 40, 0
6, 93360, Note_on_c, 0, 43, 54
6, 93360, Note_on_c, 0, 48, 54
6, 93480, Note_on_c, 0, 43, 0
6, 93480, Note_on_c, 0, 41, 55
6, 93552, Note_on_c, 0, 48, 0
6, 93576, Note_on_c, 0, 41, 0
6, 93600, Note_on_c, 0, 41, 58
6, 93600, Note_on_c, 0, 48, 58
6, 93720, Note_on_c, 0, 41, 0
6, 93720, Note_on_c, 0, 40, 57
6, 93792, Note_on_c, 0, 48, 0
6, 93816, Note_on_c, 0, 40, 0
6, 93840, Note_on_c, 0, 40, 56
6, 93840, Note_on_c, 0, 48, 56
6, 93960, Note_on_c, 0, 40, 0
6, 93960, Note_on_c, 0, 38, 55
6, 94032, Note_on_c, 0, 48, 0
6, 94056, Note_on_c, 0, 38, 0
6, 94080, Note_on_c, 0, 38, 54
6, 94080, Note_on_c, 0, 48, 54
6, 94200, Note_on_c, 0, 38, 0
6, 94200, Note_on_c, 0, 36, 53
6, 94272, Note_on_c, 0, 48, 0
6, 94296, Note_on_c, 0, 36, 0
6, 94320, Note_on_c, 0, 66, 56
6, 94320, Note_on_c, 0, 38, 56
6, 94320, Note_on_c, 0, 50, 56
6, 94440, Note_on_c, 0, 66, 0
6, 94440, Note_on_c, 0, 64, 57
6, 94512, Note_on_c, 0, 50, 0
6, 94512, Note_on_c, 0, 38, 0
6, 94536, Note_on_c, 0, 64, 0
6, 94560, Note_on_c, 0, 64, 59
6, 94560, Note_on_c, 0, 50, 59
6, 94680, Note_on_c, 0, 64, 0
6, 94680, Note_on_c, 0, 62, 61
6, 94752, Note_on_c, 0, 50, 0
6, 94776, Note_on_c, 0, 62, 0
6, 94800, Note_on_c, 0, 62, 63
6, 94800, Note_on_c, 0, 50, 63
6, 94920, Note_on_c, 0, 62, 0
6, 94920, Note_on_c, 0, 60, 64
6, 94992, Note_on_c, 0, 50, 0
6, 95016, Note_on_c, 0, 60, 0
6, 95040, Note_on_c, 0, 60, 68
6, 95040, Note_on_c, 0, 50, 68
6, 95160, Note_on_c, 0, 60, 0
6, 95160, Note_on_c, 0, 59, 67
6, 95232, Note_on_c, 0, 50, 0
6, 95256, Note_on_c, 0, 59, 0
6, 95280, Note_on_c, 0, 59, 65
6, 95280, Note_on_c, 0, 50, 65
6, 95400, Note_on_c, 0, 59, 0
6, 95400, Note_on_c, 0, 57, 64
6, 95472, Note_on_c, 0, 50, 0
6, 95496, Note_on_c, 0, 57, 0
6, 95520, Note_on_c, 0, 57, 63
6, 95520, Note_on_c, 0, 50, 63
6, 95640, Note_on_c, 0, 57, 0
6, 95640, Note_on_c, 0, 55, 62
6, 95712, Note_on_c, 0, 50, 0
6, 95720, Note_on_c, 0, 38, 59
6, 95736, Note_on_c, 0, 55, 0
6, 95760, Note_on_c, 0, 55, 59
6, 95880, Note_on_c, 0, 55, 0
6, 95880, Note_on_c, 0, 54, 60
6, 95965, Note_on_c, 0, 38, 0
6, 95976, Note_on_c, 0, 54, 0
6, 96000, Note_on_c, 0, 54, 61
6, 96000, Note_on_c, 0, 38, 61
6, 96120, Note_on_c, 0, 54, 0
6, 96120, Note_on_c, 0, 52, 62
6, 96192, Note_on_c, 0, 38, 0
6, 96216, Note_on_c, 0, 52, 0
6, 96240, Note_on_c, 0, 52, 62
6, 96240, Note_on_c, 0, 38, 62
6, 96360, Note_on_c, 0, 52, 0
6, 96360, Note_on_c, 0, 50, 63
6, 96432, Note_on_c, 0, 38, 0
6, 96480, Note_on_c, 0, 50, 0
6, 96480, Note_on_c, 0, 50, 64
6, 96480, Note_on_c, 0, 38, 64
6, 96600, Note_on_c, 0, 50, 0
6, 96600, Note_on_c, 0, 49, 65
6, 96672, Note_on_c, 0, 38, 0
6, 96696, Note_on_c, 0, 49, 0
6, 96720, Note_on_c, 0, 49, 66
6, 96720, Note_on_c, 0, 38, 66
6, 96840, Note_on_c, 0, 49, 0
6, 96840, Note_on_c, 0, 47, 67
6, 96912, Note_on_c, 0, 38, 0
6, 96936, Note_on_c, 0, 47, 0
6, 96960, Note_on_c, 0, 47, 68
6, 96960, Note_on_c, 0, 38, 68
6, 97080, Note_on_c, 0, 47, 0
6, 97080, Note_on_c, 0, 45, 69
6, 97152, Note_on_c, 0, 38, 0
6, 97176, Note_on_c, 0, 45, 0
6, 97200, Note_on_c, 0, 50, 70
6, 97200, Note_on_c, 0, 38, 70
6, 97320, Note_on_c, 0, 50, 0
6, 97320, Note_on_c, 0, 54, 67
6, 97392, Note_on_c, 0, 38, 0
6, 97440, Note_on_c, 0, 54, 0
6, 97440, Note_on_c, 0, 55, 65
6, 97440, Note_on_c, 0, 50, 65
6, 97560, Note_on_c, 0, 55, 0
6, 97560, Note_on_c, 0, 59, 62
6, 97680, Note_on_c, 0, 59, 0
6, 97680, Note_on_c, 0, 57, 59
6, 97680, Note_on_c, 0, 62, 59
6, 97905, Note_on_c, 0, 57, 0
6, 97908, Note_on_c, 0, 62, 0
6, 97908, Note_on_c, 0, 50, 0
6, 97920, Control_c, 0, 64, 0
6, 98640, Control_c, 0, 64, 0
6, 98640, Note_on_c, 0, 62, 52
6, 98880, Note_on_c, 0, 62, 0
6, 98880, Note_on_c, 0, 74, 51
6, 99120, Note_on_c, 0, 74, 0
6, 99120, Note_on_c, 0, 73, 50
6, 99360, Note_on_c, 0, 73, 0
6, 99360, Note_on_c, 0, 71, 49
6, 99600, Note_on_c, 0, 71, 0
6, 99600, Note_on_c, 0, 59, 48
6, 99840, Note_on_c, 0, 59, 0
6, 99840, Note_on_c, 0, 57, 47
6, 100000, Note_on_c, 0, 62, 47
6, 100080, Note_on_c, 0, 57, 0
6, 100240, Note_on_c, 0, 62, 0
6, 100240, Note_on_c, 0, 64, 50
6, 100320, Note_on_c, 0, 64, 0
6, 100320, Note_on_c, 0, 66, 50
6, 100480, Note_on_c, 0, 67, 51
6, 100485, Note_on_c, 0, 66, 0
6, 100720, Note_on_c, 0, 66, 52
6, 100725, Note_on_c, 0, 67, 0
6, 100800, Note_on_c, 0, 66, 0
6, 100800, Note_on_c, 0, 64, 53
6, 100960, Note_on_c, 0, 64, 0
6, 100960, Note_on_c, 0, 66, 53
6, 101040, Note_on_c, 0, 66, 0
6, 101040, Note_on_c, 0, 67, 54
6, 101200, Note_on_c, 0, 67, 0
6, 101200, Note_on_c, 0, 70, 55
6, 101440, Note_on_c, 0, 71, 56
6, 101445, Note_on_c, 0, 70, 0
6, 101520, Note_on_c, 0, 71, 0
6, 101520, Note_on_c, 0, 73, 56
6, 101760, Note_on_c, 0, 73, 0
6, 101760, Note_on_c, 0, 73, 58
6, 101880, Note_on_c, 0, 74, 58
6, 101890, Note_on_c, 0, 73, 0
6, 101920, Note_on_c, 0, 74, 0
6, 101920, Note_on_c, 0, 73, 59
6, 101960, Note_on_c, 0, 73, 0
6, 101960, Note_on_c, 0, 71, 59
6, 102000, Note_on_c, 0, 71, 0
6, 102000, Note_on_c, 0, 73, 59
6, 102160, Note_on_c, 0, 73, 0
6, 102160, Note_on_c, 0, 69, 60
6, 102240, Note_on_c, 0, 69, 0
6, 102240, Note_on_c, 0, 64, 60
6, 102395, Note_on_c, 0, 64, 0
6, 102400, Note_on_c, 0, 62, 61
6, 102480, Note_on_c, 0, 62, 0
6, 102480, Note_on_c, 0, 61, 62
6, 102635, Note_on_c, 0, 61, 0
6, 102640, Note_on_c, 0, 59, 63
6, 102720, Note_on_c, 0, 59, 0
6, 102720, Note_on_c, 0, 57, 63
6, 102875, Note_on_c, 0, 57, 0
6, 102880, Note_on_c, 0, 69, 64
6, 102960, Note_on_c, 0, 69, 0
6, 102960, Note_on_c, 0, 64, 64
6, 103115, Note_on_c, 0, 64, 0
6, 103120, Note_on_c, 0, 62, 63
6, 103200, Note_on_c, 0, 62, 0
6, 103200, Note_on_c, 0, 74, 63
6, 103360, Note_on_c, 0, 74, 0
6, 103360, Note_on_c, 0, 62, 62
6, 103440, Note_on_c, 0, 62, 0
6, 103440, Note_on_c, 0, 64, 61
6, 103600, Note_on_c, 0, 64, 0
6, 103600, Note_on_c, 0, 62, 60
6, 103840, Note_on_c, 0, 61, 59
6, 103845, Note_on_c, 0, 62, 0
6, 103920, Note_on_c, 0, 73, 58
6, 103925, Note_on_c, 0, 61, 0
6, 104080, Note_on_c, 0, 73, 0
6, 104080, Note_on_c, 0, 57, 57
6, 104240, Note_on_c, 0, 57, 0
6, 104240, Note_on_c, 0, 56, 56
6, 104400, Note_on_c, 0, 57, 55
6, 104405, Note_on_c, 0, 56, 0
6, 104560, Note_on_c, 0, 57, 0
6, 104560, Note_on_c, 0, 56, 54
6, 104640, Note_on_c, 0, 56, 0
6, 104640, Note_on_c, 0, 57, 54
6, 104795, Note_on_c, 0, 57, 0
6, 104800, Note_on_c, 0, 61, 53
6, 104880, Note_on_c, 0, 61, 0
6, 104880, Note_on_c, 0, 62, 52
6, 105040, Note_on_c, 0, 62, 0
6, 105040, Note_on_c, 0, 65, 51
6, 105120, Note_on_c, 0, 65, 0
6, 105120, Control_c, 0, 64, 0
6, 105120, Note_on_c, 0, 67, 51
6, 105240, Note_on_c, 0, 79, 51
6, 105275, Note_on_c, 0, 67, 0
6, 105280, Note_on_c, 0, 64, 52
6, 105360, Note_on_c, 0, 64, 0
6, 105360, Note_on_c, 0, 79, 0
6, 105360, Note_on_c, 0, 62, 52
6, 105600, Note_on_c, 0, 62, 0
6, 105600, Note_on_c, 0, 61, 54
6, 105840, Note_on_c, 0, 61, 0
6, 105840, Note_on_c, 0, 62, 49
6, 106000, Note_on_c, 0, 62, 0
6, 106000, Note_on_c, 0, 62, 48
6, 106235, Note_on_c, 0, 62, 0
6, 106240, Note_on_c, 0, 62, 48
6, 106480, Note_on_c, 0, 62, 0
6, 106480, Note_on_c, 0, 62, 47
6, 106720, Note_on_c, 0, 62, 0
6, 106720, Note_on_c, 0, 64, 50
6, 106800, Note_on_c, 0, 64, 0
6, 106800, Note_on_c, 0, 66, 50
6, 106960, Note_on_c, 0, 67, 51
6, 106965, Note_on_c, 0, 66, 0
6, 107200, Note_on_c, 0, 66, 52
6, 107205, Note_on_c, 0, 67, 0
6, 107280, Note_on_c, 0, 66, 0
6, 107280, Note_on_c, 0, 64, 53
6, 107440, Note_on_c, 0, 64, 0
6, 107440, Note_on_c, 0, 66, 53
6, 107520, Note_on_c, 0, 66, 0
6, 107520, Note_on_c, 0, 67, 54
6, 107680, Note_on_c, 0, 67, 0
6, 107680, Note_on_c, 0, 70, 55
6, 107920, Note_on_c, 0, 71, 56
6, 107925, Note_on_c, 0, 70, 0
6, 108000, Note_on_c, 0, 71, 0
6, 108000, Note_on_c, 0, 73, 56
6, 108240, Note_on_c, 0, 73, 0
6, 108240, Note_on_c, 0, 73, 58
6, 108360, Note_on_c, 0, 74, 58
6, 108370, Note_on_c, 0, 73, 0
6, 108400, Note_on_c, 0, 74, 0
6, 108400, Note_on_c, 0, 73, 59
6, 108440, Note_on_c, 0, 73, 0
6, 108440, Note_on_c, 0, 71, 59
6, 108480, Note_on_c, 0, 71, 0
6, 108480, Note_on_c, 0, 73, 59
6, 108640, Note_on_c, 0, 73, 0
6, 108640, Note_on_c, 0, 69, 60
6, 108720, Note_on_c, 0, 69, 0
6, 108720, Note_on_c, 0, 64, 60
6, 108875, Note_on_c, 0, 64, 0
6, 108880, Note_on_c, 0, 62, 61
6, 108960, Note_on_c, 0, 62, 0
6, 108960, Note_on_c, 0, 61, 62
6, 109115, Note_on_c, 0, 61, 0
6, 109120, Note_on_c, 0, 59, 63
6, 109200, Note_on_c, 0, 59, 0
6, 109200, Note_on_c, 0, 57, 63
6, 109355, Note_on_c, 0, 57, 0
6, 109360, Note_on_c, 0, 69, 64
6, 109440, Note_on_c, 0, 69, 0
6, 109440, Note_on_c, 0, 64, 64
6, 109595, Note_on_c, 0, 64, 0
6, 109600, Note_on_c, 0, 62, 63
6, 109680, Note_on_c, 0, 62, 0
6, 109680, Note_on_c, 0, 74, 63
6, 109840, Note_on_c, 0, 74, 0
6, 109840, Note_on_c, 0, 62, 62
6, 109920, Note_on_c, 0, 62, 0
6, 109920, Note_on_c, 0, 64, 61
6, 110080, Note_on_c, 0, 64, 0
6, 110080, Note_on_c, 0, 62, 60
6, 110320, Note_on_c, 0, 61, 59
6, 110325, Note_on_c, 0, 62, 0
6, 110400, Note_on_c, 0, 73, 58
6, 110405, Note_on_c, 0, 61, 0
6, 110560, Note_on_c, 0, 73, 0
6, 110560, Note_on_c, 0, 57, 57
6, 110720, Note_on_c, 0, 57, 0
6, 110720, Note_on_c, 0, 56, 56
6, 110880, Note_on_c, 0, 57, 55
6, 110885, Note_on_c, 0, 56, 0
6, 111040, Note_on_c, 0, 57, 0
6, 111040, Note_on_c, 0, 56, 54
6, 111120, Note_on_c, 0, 56, 0
6, 111120, Note_on_c, 0, 57, 54
6, 111275, Note_on_c, 0, 57, 0
6, 111280, Note_on_c, 0, 61, 53
6, 111360, Note_on_c, 0, 61, 0
6, 111360, Note_on_c, 0, 62, 52
6, 111520, Note_on_c, 0, 62, 0
6, 111520, Note_on_c, 0, 65, 51
6, 111600, Note_on_c, 0, 65, 0
6, 111600, Control_c, 0, 64, 0
6, 111600, Note_on_c, 0, 67, 51
6, 111755, Note_on_c, 0, 67, 0
6, 111760, Note_on_c, 0, 64, 52
6, 111840, Note_on_c, 0, 64, 0
6, 111840, Note_on_c, 0, 62, 52
6, 112000, Note_on_c, 0, 62, 0
6, 112000, Note_on_c, 0, 61, 53
6, 112080, Note_on_c, 0, 61, 0
6, 112080, Note_on_c, 0, 62, 54
6, 112235, Note_on_c, 0, 62, 0
6, 112240, Note_on_c, 0, 62, 54
6, 112320, Control_c, 0, 64, 0
6, 112480, Note_on_c, 0, 62, 0
6, 112480, Note_on_c, 0, 64, 56
6, 112560, Note_on_c, 0, 64, 0
6, 112560, Note_on_c, 0, 65, 56
6, 112720, Note_on_c, 0, 65, 0
6, 112720, Note_on_c, 0, 67, 57
6, 112800, Note_on_c, 0, 67, 0
6, 112800, Note_on_c, 0, 65, 58
6, 112960, Note_on_c, 0, 65, 0
6, 112960, Note_on_c, 0, 62, 59
6, 113040, Note_on_c, 0, 62, 0
6, 113040, Note_on_c, 0, 60, 59
6, 113200, Note_on_c, 0, 59, 60
6, 113205, Note_on_c, 0, 60, 0
6, 113280, Note_on_c, 0, 59, 0
6, 113280, Note_on_c, 0, 60, 61
6, 113440, Note_on_c, 0, 62, 62
6, 113445, Note_on_c, 0, 60, 0
6, 113520, Note_on_c, 0, 62, 0
6, 113520, Note_on_c, 0, 60, 62
6, 113680, Note_on_c, 0, 60, 0
6, 113680, Note_on_c, 0, 72, 63
6, 113760, Note_on_c, 0, 72, 0
6, 113760, Note_on_c, 0, 60, 64
6, 113920, Note_on_c, 0, 59, 65
6, 113930, Note_on_c, 0, 60, 0
6, 114000, Note_on_c, 0, 59, 0
6, 114000, Note_on_c, 0, 60, 65
6, 114160, Note_on_c, 0, 62, 66
6, 114170, Note_on_c, 0, 60, 0
6, 114240, Note_on_c, 0, 62, 0
6, 114240, Note_on_c, 0, 61, 67
6, 114400, Note_on_c, 0, 73, 68
6, 114410, Note_on_c, 0, 61, 0
6, 114480, Note_on_c, 0, 73, 0
6, 114480, Note_on_c, 0, 61, 69
6, 114640, Note_on_c, 0, 60, 70
6, 114650, Note_on_c, 0, 61, 0
6, 114720, Note_on_c, 0, 60, 0
6, 114720, Note_on_c, 0, 61, 70
6, 114800, Note_on_c, 0, 61, 0
6, 114880, Note_on_c, 0, 64, 71
6, 114960, Note_on_c, 0, 64, 0
6, 114960, Note_on_c, 0, 62, 71
6, 115120, Note_on_c, 0, 74, 72
6, 115125, Note_on_c, 0, 62, 0
6, 115200, Note_on_c, 0, 74, 0
6, 115200, Note_on_c, 0, 62, 72
6, 115595, Note_on_c, 0, 62, 0
6, 115600, Note_on_c, 0, 62, 67
6, 115680, Note_on_c, 0, 62, 0
6, 115680, Note_on_c, 0, 61, 67
6, 115840, Note_on_c, 0, 59, 66
6, 115845, Note_on_c, 0, 61, 0
6, 115920, Note_on_c, 0, 59, 0
6, 115920, Note_on_c, 0, 57, 65
6, 116080, Note_on_c, 0, 56, 64
6, 116090, Note_on_c, 0, 57, 0
6, 116160, Note_on_c, 0, 56, 0
6, 116160, Note_on_c, 0, 57, 64
6, 116320, Note_on_c, 0, 61, 62
6, 116330, Note_on_c, 0, 57, 0
6, 116400, Note_on_c, 0, 61, 0
6, 116400, Note_on_c, 0, 62, 62
6, 116560, Note_on_c, 0, 64, 61
6, 116565, Note_on_c, 0, 62, 0
6, 116640, Note_on_c, 0, 64, 0
6, 116640, Note_on_c, 0, 66, 60
6, 116800, Note_on_c, 0, 66, 0
6, 116800, Note_on_c, 0, 65, 59
6, 116880, Note_on_c, 0, 65, 0
6, 116880, Note_on_c, 0, 64, 59
6, 117040, Note_on_c, 0, 64, 0
6, 117040, Note_on_c, 0, 62, 58
6, 117120, Note_on_c, 0, 62, 0
6, 117120, Note_on_c, 0, 66, 57
6, 117280, Note_on_c, 0, 67, 56
6, 117290, Note_on_c, 0, 66, 0
6, 117360, Note_on_c, 0, 67, 0
6, 117360, Note_on_c, 0, 69, 55
6, 117445, Note_on_c, 0, 69, 0
6, 117520, Note_on_c, 0, 68, 54
6, 117600, Note_on_c, 0, 68, 0
6, 117600, Note_on_c, 0, 69, 54
6, 117680, Note_on_c, 0, 69, 0
6, 117760, Note_on_c, 0, 56, 53
6, 117840, Note_on_c, 0, 56, 0
6, 117840, Note_on_c, 0, 57, 52
6, 117920, Note_on_c, 0, 57, 0
6, 117920, Note_on_c, 0, 44, 52
6, 118000, Note_on_c, 0, 44, 0
6, 118000, Note_on_c, 0, 45, 51
6, 118080, Note_on_c, 0, 45, 0
6, 118080, Control_c, 0, 64, 0
6, 118080, Note_on_c, 0, 45, 49
6, 118080, Note_on_c, 0, 38, 49
6, 118200, Note_on_c, 0, 45, 0
6, 118200, Note_on_c, 0, 50, 51
6, 118320, Note_on_c, 0, 50, 0
6, 118320, Note_on_c, 0, 54, 52
6, 118440, Note_on_c, 0, 54, 0
6, 118440, Note_on_c, 0, 55, 54
6, 118560, Note_on_c, 0, 55, 0
6, 118560, Note_on_c, 0, 57, 55
6, 118680, Note_on_c, 0, 57, 0
6, 118680, Note_on_c, 0, 60, 57
6, 118800, Note_on_c, 0, 60, 0
6, 118800, Note_on_c, 0, 38, 0
6, 118800, Note_on_c, 0, 50, 58
6, 118800, Note_on_c, 0, 59, 58
6, 118920, Note_on_c, 0, 59, 0
6, 118920, Note_on_c, 0, 58, 58
6, 119040, Note_on_c, 0, 58, 0
6, 119040, Note_on_c, 0, 57, 57
6, 119160, Note_on_c, 0, 57, 0
6, 119160, Note_on_c, 0, 56, 56
6, 119280, Note_on_c, 0, 56, 0
6, 119280, Note_on_c, 0, 55, 56
6, 119400, Note_on_c, 0, 55, 0
6, 119400, Note_on_c, 0, 57, 55
6, 119520, Note_on_c, 0, 57, 0
6, 119520, Note_on_c, 0, 50, 0
6, 119520, Note_on_c, 0, 50, 54
6, 119520, Note_on_c, 0, 54, 54
6, 119640, Note_on_c, 0, 54, 0
6, 119640, Note_on_c, 0, 53, 54
6, 119760, Note_on_c, 0, 53, 0
6, 119760, Note_on_c, 0, 52, 53
6, 119880, Note_on_c, 0, 52, 0
6, 119880, Note_on_c, 0, 55, 52
6, 120000, Note_on_c, 0, 55, 0
6, 120000, Note_on_c, 0, 50, 0
6, 120000, Note_on_c, 0, 50, 52
6, 120120, Note_on_c, 0, 54, 51
6, 120240, Note_on_c, 0, 54, 0
6, 120240, Note_on_c, 0, 49, 51
6, 120240, Note_on_c, 0, 38, 51
6, 120245, Note_on_c, 0, 50, 0
6, 120360, Note_on_c, 0, 52, 50
6, 120475, Note_on_c, 0, 49, 0
6, 120480, Note_on_c, 0, 52, 0
6, 120480, Note_on_c, 0, 47, 49
6, 120600, Note_on_c, 0, 50, 49
6, 120720, Note_on_c, 0, 50, 0
6, 120720, Note_on_c, 0, 47, 0
6, 120720, Note_on_c, 0, 49, 48
6, 120840, Note_on_c, 0, 49, 0
6, 120840, Note_on_c, 0, 43, 47
6, 120950, Note_on_c, 0, 38, 0
6, 120960, Note_on_c, 0, 43, 0
6, 120960, Control_c, 0, 64, 0
6, 120960, Note_on_c, 0, 38, 47
6, 120960, Note_on_c, 0, 42, 47
6, 121080, Note_on_c, 0, 42, 0
6, 121080, Note_on_c, 0, 50, 48
6, 121200, Note_on_c, 0, 50, 0
6, 121200, Note_on_c, 0, 54, 49
6, 121320, Note_on_c, 0, 54, 0
6, 121320, Note_on_c, 0, 57, 51
6, 121440, Note_on_c, 0, 57, 0
6, 121440, Note_on_c, 0, 64, 52
6, 121560, Note_on_c, 0, 64, 0
6, 121560, Note_on_c, 0, 62, 53
6, 121680, Note_on_c, 0, 62, 0
6, 121680, Note_on_c, 0, 38, 0
6, 121680, Control_c, 0, 64, 0
6, 121680, Note_on_c, 0, 49, 55
6, 121680, Note_on_c, 0, 52, 55
6, 121800, Note_on_c, 0, 52, 0
6, 121800, Note_on_c, 0, 61, 56
6, 121920, Note_on_c, 0, 61, 0
6, 121920, Note_on_c, 0, 64, 57
6, 122040, Note_on_c, 0, 64, 0
6, 122040, Note_on_c, 0, 68, 58
6, 122160, Note_on_c, 0, 68, 0
6, 122160, Note_on_c, 0, 71, 60
6, 122280, Note_on_c, 0, 71, 0
6, 122280, Note_on_c, 0, 69, 61
6, 122400, Note_on_c, 0, 69, 0
6, 122400, Note_on_c, 0, 49, 0
6, 122400, Note_on_c, 0, 47, 62
6, 122400, Note_on_c, 0, 54, 62
6, 122520, Note_on_c, 0, 54, 0
6, 122520, Note_on_c, 0, 62, 64
6, 122640, Note_on_c, 0, 62, 0
6, 122640, Note_on_c, 0, 66, 65
6, 122760, Note_on_c, 0, 66, 0
6, 122760, Note_on_c, 0, 69, 66
6, 122880, Note_on_c, 0, 69, 0
6, 122880, Note_on_c, 0, 74, 68
6, 123000, Note_on_c, 0, 74, 0
6, 123000, Note_on_c, 0, 69, 69
6, 123080, Note_on_c, 0, 56, 69
6, 123085, Note_on_c, 0, 47, 0
6, 123120, Note_on_c, 0, 69, 0
6, 123120, Note_on_c, 0, 68, 69
6, 123240, Note_on_c, 0, 68, 0
6, 123240, Note_on_c, 0, 71, 68
6, 123360, Note_on_c, 0, 71, 0
6, 123360, Note_on_c, 0, 66, 66
6, 123480, Note_on_c, 0, 66, 0
6, 123480, Note_on_c, 0, 69, 64
6, 123600, Note_on_c, 0, 69, 0
6, 123600, Note_on_c, 0, 68, 62
6, 123720, Note_on_c, 0, 68, 0
6, 123720, Note_on_c, 0, 62, 60
6, 123800, Note_on_c, 0, 56, 0
6, 123800, Note_on_c, 0, 45, 59
6, 123840, Note_on_c, 0, 62, 0
6, 123840, Note_on_c, 0, 61, 59
6, 123960, Note_on_c, 0, 61, 0
6, 123960, Note_on_c, 0, 64, 57
6, 124080, Note_on_c, 0, 64, 0
6, 124080, Note_on_c, 0, 59, 55
6, 124200, Note_on_c, 0, 59, 0
6, 124200, Note_on_c, 0, 62, 53
6, 124320, Note_on_c, 0, 62, 0
6, 124320, Note_on_c, 0, 61, 51
6, 124440, Note_on_c, 0, 61, 0
6, 124440, Note_on_c, 0, 55, 49
6, 124541, Note_on_c, 0, 55, 0
6, 124541, Note_on_c, 0, 45, 0
6, 124560, Control_c, 0, 64, 0
6, 124560, Note_on_c, 0, 38, 49
6, 124560, Note_on_c, 0, 45, 49
6, 124680, Note_on_c, 0, 45, 0
6, 124680, Note_on_c, 0, 50, 51
6, 124800, Note_on_c, 0, 50, 0
6, 124800, Note_on_c, 0, 54, 52
6, 124920, Note_on_c, 0, 54, 0
6, 124920, Note_on_c, 0, 55, 54
6, 125040, Note_on_c, 0, 55, 0
6, 125040, Note_on_c, 0, 57, 55
6, 125160, Note_on_c, 0, 57, 0
6, 125160, Note_on_c, 0, 60, 57
6, 125280, Note_on_c, 0, 60, 0
6, 125280, Note_on_c, 0, 38, 0
6, 125280, Note_on_c, 0, 59, 58
6, 125280, Note_on_c, 0, 50, 58
6, 125400, Note_on_c, 0, 59, 0
6, 125400, Note_on_c, 0, 58, 58
6, 125520, Note_on_c, 0, 58, 0
6, 125520, Note_on_c, 0, 57, 57
6, 125640, Note_on_c, 0, 57, 0
6, 125640, Note_on_c, 0, 56, 56
6, 125760, Note_on_c, 0, 56, 0
6, 125760, Note_on_c, 0, 55, 56
6, 125880, Note_on_c, 0, 55, 0
6, 125880, Note_on_c, 0, 57, 55
6, 126000, Note_on_c, 0, 57, 0
6, 126000, Note_on_c, 0, 50, 0
6, 126000, Note_on_c, 0, 54, 54
6, 126000, Note_on_c, 0, 50, 54
6, 126120, Note_on_c, 0, 54, 0
6, 126120, Note_on_c, 0, 53, 54
6, 126240, Note_on_c, 0, 53, 0
6, 126240, Note_on_c, 0, 52, 53
6, 126360, Note_on_c, 0, 52, 0
6, 126360, Note_on_c, 0, 55, 52
6, 126480, Note_on_c, 0, 55, 0
6, 126480, Note_on_c, 0, 50, 0
6, 126480, Note_on_c, 0, 50, 52
6, 126600, Note_on_c, 0, 54, 51
6, 126720, Note_on_c, 0, 54, 0
6, 126720, Note_on_c, 0, 38, 51
6, 126720, Note_on_c, 0, 49, 51
6, 126725, Note_on_c, 0, 50, 0
6, 126840, Note_on_c, 0, 52, 50
6, 126955, Note_on_c, 0, 49, 0
6, 126960, Note_on_c, 0, 52, 0
6, 126960, Note_on_c, 0, 47, 49
6, 127080, Note_on_c, 0, 50, 49
6, 127200, Note_on_c, 0, 50, 0
6, 127200, Note_on_c, 0, 47, 0
6, 127200, Note_on_c, 0, 49, 48
6, 127320, Note_on_c, 0, 49, 0
6, 127320, Note_on_c, 0, 43, 47
6, 127430, Note_on_c, 0, 38, 0
6, 127440, Note_on_c, 0, 43, 0
6, 127440, Control_c, 0, 64, 0
6, 127440, Note_on_c, 0, 42, 47
6, 127440, Note_on_c, 0, 38, 47
6, 127560, Note_on_c, 0, 42, 0
6, 127560, Note_on_c, 0, 50, 48
6, 127680, Note_on_c, 0, 50, 0
6, 127680, Note_on_c, 0, 54, 49
6, 127800, Note_on_c, 0, 54, 0
6, 127800, Note_on_c, 0, 57, 51
6, 127920, Note_on_c, 0, 57, 0
6, 127920, Note_on_c, 0, 64, 52
6, 128040, Note_on_c, 0, 64, 0
6, 128040, Note_on_c, 0, 62, 53
6, 128160, Note_on_c, 0, 62, 0
6, 128160, Note_on_c, 0, 38, 0
6, 128160, Control_c, 0, 64, 0
6, 128160, Note_on_c, 0, 52, 55
6, 128160, Note_on_c, 0, 49, 55
6, 128280, Note_on_c, 0, 52, 0
6, 128280, Note_on_c, 0, 61, 56
6, 128400, Note_on_c, 0, 61, 0
6, 128400, Note_on_c, 0, 64, 57
6, 128520, Note_on_c, 0, 64, 0
6, 128520, Note_on_c, 0, 68, 58
6, 128640, Note_on_c, 0, 68, 0
6, 128640, Note_on_c, 0, 71, 60
6, 128760, Note_on_c, 0, 71, 0
6, 128760, Note_on_c, 0, 69, 61
6, 128880, Note_on_c, 0, 69, 0
6, 128880, Note_on_c, 0, 49, 0
6, 128880, Note_on_c, 0, 54, 62
6, 128880, Note_on_c, 0, 47, 62
6, 129000, Note_on_c, 0, 54, 0
6, 129000, Note_on_c, 0, 62, 64
6, 129120, Note_on_c, 0, 62, 0
6, 129120, Note_on_c, 0, 66, 65
6, 129240, Note_on_c, 0, 66, 0
6, 129240, Note_on_c, 0, 69, 66
6, 129360, Note_on_c, 0, 69, 0
6, 129360, Note_on_c, 0, 74, 68
6, 129480, Note_on_c, 0, 74, 0
6, 129480, Note_on_c, 0, 69, 69
6, 129560, Note_on_c, 0, 56, 69
6, 129565, Note_on_c, 0, 47, 0
6, 129600, Note_on_c, 0, 69, 0
6, 129600, Note_on_c, 0, 68, 69
6, 129720, Note_on_c, 0, 68, 0
6, 129720, Note_on_c, 0, 71, 68
6, 129840, Note_on_c, 0, 71, 0
6, 129840, Note_on_c, 0, 66, 66
6, 129960, Note_on_c, 0, 66, 0
6, 129960, Note_on_c, 0, 69, 64
6, 130080, Note_on_c, 0, 69, 0
6, 130080, Note_on_c, 0, 68, 62
6, 130200, Note_on_c, 0, 68, 0
6, 130200, Note_on_c, 0, 62, 60
6, 130280, Note_on_c, 0, 56, 0
6, 130280, Note_on_c, 0, 45, 59
6, 130320, Note_on_c, 0, 62, 0
6, 130320, Note_on_c, 0, 61, 59
6, 130440, Note_on_c, 0, 61, 0
6, 130440, Note_on_c, 0, 64, 57
6, 130560, Note_on_c, 0, 64, 0
6, 130560, Note_on_c, 0, 59, 55
6, 130680, Note_on_c, 0, 59, 0
6, 130680, Note_on_c, 0, 62, 53
6, 130800, Note_on_c, 0, 62, 0
6, 130800, Note_on_c, 0, 61, 51
6, 130920, Note_on_c, 0, 61, 0
6, 130920, Note_on_c, 0, 55, 49
6, 131021, Note_on_c, 0, 55, 0
6, 131021, Note_on_c, 0, 45, 0
6, 131040, Control_c, 0, 64, 0
6, 131040, Note_on_c, 0, 38, 49
6, 131040, Note_on_c, 0, 45, 49
6, 131160, Note_on_c, 0, 45, 0
6, 131160, Note_on_c, 0, 50, 50
6, 131280, Note_on_c, 0, 50, 0
6, 131280, Note_on_c, 0, 53, 51
6, 131400, Note_on_c, 0, 53, 0
6, 131400, Note_on_c, 0, 57, 52
6, 131520, Note_on_c, 0, 57, 0
6, 131520, Note_on_c, 0, 56, 54
6, 131640, Note_on_c, 0, 56, 0
6, 131640, Note_on_c, 0, 57, 55
6, 131760, Note_on_c, 0, 57, 0
6, 131760, Note_on_c, 0, 38, 0
6, 131760, Note_on_c, 0, 40, 58
6, 131760, Note_on_c, 0, 48, 58
6, 131880, Note_on_c, 0, 48, 0
6, 131880, Note_on_c, 0, 55, 57
6, 132000, Note_on_c, 0, 55, 0
6, 132000, Note_on_c, 0, 59, 55
6, 132120, Note_on_c, 0, 59, 0
6, 132120, Note_on_c, 0, 60, 54
6, 132240, Note_on_c, 0, 60, 0
6, 132240, Note_on_c, 0, 58, 52
6, 132360, Note_on_c, 0, 58, 0
6, 132360, Note_on_c, 0, 60, 51
6, 132480, Note_on_c, 0, 60, 0
6, 132480, Note_on_c, 0, 40, 0
6, 132480, Note_on_c, 0, 41, 51
6, 132480, Note_on_c, 0, 48, 51
6, 132600, Note_on_c, 0, 48, 0
6, 132600, Note_on_c, 0, 53, 53
6, 132720, Note_on_c, 0, 53, 0
6, 132720, Note_on_c, 0, 57, 54
6, 132840, Note_on_c, 0, 57, 0
6, 132840, Note_on_c, 0, 60, 56
6, 132960, Note_on_c, 0, 60, 0
6, 132960, Note_on_c, 0, 59, 57
6, 133080, Note_on_c, 0, 59, 0
6, 133080, Note_on_c, 0, 60, 59
6, 133200, Note_on_c, 0, 60, 0
6, 133200, Note_on_c, 0, 41, 0
6, 133200, Note_on_c, 0, 40, 62
6, 133200, Note_on_c, 0, 45, 62
6, 133320, Note_on_c, 0, 45, 0
6, 133320, Note_on_c, 0, 55, 61
6, 133440, Note_on_c, 0, 55, 0
6, 133440, Note_on_c, 0, 60, 60
6, 133560, Note_on_c, 0, 60, 0
6, 133560, Note_on_c, 0, 61, 58
6, 133680, Note_on_c, 0, 61, 0
6, 133680, Note_on_c, 0, 60, 57
6, 133800, Note_on_c, 0, 60, 0
6, 133800, Note_on_c, 0, 61, 56
6, 133920, Note_on_c, 0, 61, 0
6, 133920, Note_on_c, 0, 40, 0
6, 133920, Note_on_c, 0, 38, 55
6, 133920, Note_on_c, 0, 50, 55
6, 134040, Note_on_c, 0, 50, 0
6, 134040, Note_on_c, 0, 54, 56
6, 134040, Note_on_c, 0, 60, 56
6, 134160, Note_on_c, 0, 60, 0
6, 134160, Note_on_c, 0, 54, 0
6, 134160, Note_on_c, 0, 66, 57
6, 134280, Note_on_c, 0, 66, 0
6, 134280, Note_on_c, 0, 72, 58
6, 134400, Note_on_c, 0, 72, 0
6, 134400, Note_on_c, 0, 73, 60
6, 134520, Note_on_c, 0, 73, 0
6, 134520, Note_on_c, 0, 61, 61
6, 134640, Note_on_c, 0, 61, 0
6, 134640, Note_on_c, 0, 38, 0
6, 134640, Note_on_c, 0, 50, 62
6, 134640, Note_on_c, 0, 55, 62
6, 134760, Note_on_c, 0, 55, 0
6, 134760, Note_on_c, 0, 62, 63
6, 134880, Note_on_c, 0, 62, 0
6, 134880, Note_on_c, 0, 67, 64
6, 135000, Note_on_c, 0, 67, 0
6, 135000, Note_on_c, 0, 74, 65
6, 135120, Note_on_c, 0, 74, 0
6, 135120, Note_on_c, 0, 76, 67
6, 135240, Note_on_c, 0, 76, 0
6, 135240, Note_on_c, 0, 64, 68
6, 135360, Note_on_c, 0, 64, 0
6, 135360, Note_on_c, 0, 50, 0
6, 135360, Note_on_c, 0, 50, 69
6, 135360, Note_on_c, 0, 55, 69
6, 135480, Note_on_c, 0, 55, 0
6, 135480, Note_on_c, 0, 64, 70
6, 135600, Note_on_c, 0, 64, 0
6, 135600, Note_on_c, 0, 67, 71
6, 135720, Note_on_c, 0, 67, 0
6, 135720, Note_on_c, 0, 74, 72
6, 135840, Note_on_c, 0, 74, 0
6, 135840, Note_on_c, 0, 79, 74
6, 135960, Note_on_c, 0, 79, 0
6, 135960, Note_on_c, 0, 73, 75
6, 135960, Note_on_c, 0, 67, 75
6, 136080, Note_on_c, 0, 67, 0
6, 136080, Note_on_c, 0, 73, 0
6, 136080, Note_on_c, 0, 50, 0
6, 136080, Note_on_c, 0, 50, 76
6, 136080, Note_on_c, 0, 62, 76
6, 136200, Note_on_c, 0, 62, 0
6, 136200, Note_on_c, 0, 66, 74
6, 136320, Note_on_c, 0, 66, 0
6, 136320, Note_on_c, 0, 78, 71
6, 136440, Note_on_c, 0, 78, 0
6, 136440, Note_on_c, 0, 69, 69
6, 136560, Note_on_c, 0, 69, 0
6, 136560, Note_on_c, 0, 65, 67
6, 136680, Note_on_c, 0, 65, 0
6, 136680, Note_on_c, 0, 57, 64
6, 136800, Note_on_c, 0, 57, 0
6, 136800, Note_on_c, 0, 50, 0
6, 136800, Note_on_c, 0, 50, 62
6, 136920, Note_on_c, 0, 54, 58
6, 137040, Note_on_c, 0, 54, 0
6, 137040, Note_on_c, 0, 66, 55
6, 137160, Note_on_c, 0, 66, 0
6, 137160, Note_on_c, 0, 57, 52
6, 137280, Note_on_c, 0, 57, 0
6, 137280, Note_on_c, 0, 53, 49
6, 137400, Note_on_c, 0, 53, 0
6, 137400, Note_on_c, 0, 45, 46
6, 137520, Note_on_c, 0, 45, 0
6, 137520, Note_on_c, 0, 50, 0
6, 137520, Control_c, 0, 64, 0
6, 137520, Control_c, 0, 64, 0
6, 137560, Control_c, 0, 64, 127
6, 137640, Note_on_c, 0, 38, 43
6, 137760, Note_on_c, 0, 38, 0
6, 137760, Note_on_c, 0, 54, 43
6, 137880, Note_on_c, 0, 54, 0
6, 138120, Note_on_c, 0, 50, 44
6, 138240, Note_on_c, 0, 50, 0
6, 138240, Note_on_c, 0, 61, 44
6, 138360, Note_on_c, 0, 61, 0
6, 138480, Control_c, 0, 64, 0
6, 138520, Control_c, 0, 64, 127
6, 138600, Note_on_c, 0, 38, 46
6, 138720, Note_on_c, 0, 38, 0
6, 138720, Note_on_c, 0, 59, 46
6, 138840, Note_on_c, 0, 59, 0
6, 139080, Note_on_c, 0, 50, 48
6, 139200, Note_on_c, 0, 50, 0
6, 139200, Note_on_c, 0, 66, 48
6, 139320, Note_on_c, 0, 66, 0
6, 139440, Control_c, 0, 64, 0
6, 139480, Control_c, 0, 64, 127
6, 139560, Note_on_c, 0, 50, 51
6, 139680, Note_on_c, 0, 50, 0
6, 139680, Note_on_c, 0, 64, 51
6, 139800, Note_on_c, 0, 64, 0
6, 139920, Control_c, 0, 64, 0
6, 139960, Control_c, 0, 64, 127
6, 140040, Note_on_c, 0, 62, 53
6, 140160, Note_on_c, 0, 62, 0
6, 140160, Note_on_c, 0, 74, 53
6, 140280, Note_on_c, 0, 74, 0
6, 140400, Control_c, 0, 64, 0
6, 140440, Control_c, 0, 64, 127
6, 140520, Note_on_c, 0, 50, 55
6, 140640, Note_on_c, 0, 50, 0
6, 140640, Note_on_c, 0, 73, 55
6, 140760, Note_on_c, 0, 73, 0
6, 140880, Control_c, 0, 64, 0
6, 140920, Control_c, 0, 64, 127
6, 141000, Note_on_c, 0, 62, 55
6, 141120, Note_on_c, 0, 62, 0
6, 141120, Note_on_c, 0, 71, 53
6, 141240, Note_on_c, 0, 71, 0
6, 141360, Control_c, 0, 64, 0
6, 141400, Control_c, 0, 64, 127
6, 141480, Note_on_c, 0, 38, 51
6, 141600, Note_on_c, 0, 38, 0
6, 141600, Note_on_c, 0, 50, 52
6, 141720, Note_on_c, 0, 50, 0
6, 141840, Control_c, 0, 64, 0
6, 141880, Control_c, 0, 64, 127
6, 141960, Note_on_c, 0, 50, 53
6, 142080, Note_on_c, 0, 50, 0
6, 142080, Note_on_c, 0, 68, 54
6, 142200, Note_on_c, 0, 68, 0
6, 142320, Control_c, 0, 64, 0
6, 142360, Control_c, 0, 64, 127
6, 142440, Note_on_c, 0, 49, 55
6, 142560, Note_on_c, 0, 49, 0
6, 142560, Note_on_c, 0, 69, 56
6, 142680, Note_on_c, 0, 69, 0
6, 142800, Control_c, 0, 64, 0
6, 142840, Control_c, 0, 64, 127
6, 142920, Note_on_c, 0, 61, 57
6, 143040, Note_on_c, 0, 61, 0
6, 143040, Note_on_c, 0, 70, 58
6, 143160, Note_on_c, 0, 70, 0
6, 143280, Control_c, 0, 64, 0
6, 143320, Control_c, 0, 64, 127
6, 143400, Note_on_c, 0, 47, 59
6, 143520, Note_on_c, 0, 47, 0
6, 143520, Note_on_c, 0, 71, 60
6, 143640, Note_on_c, 0, 71, 0
6, 143880, Note_on_c, 0, 59, 61
6, 144000, Note_on_c, 0, 59, 0
6, 144000, Note_on_c, 0, 78, 61
6, 144120, Note_on_c, 0, 78, 0
6, 144240, Control_c, 0, 64, 0
6, 144280, Control_c, 0, 64, 127
6, 144360, Note_on_c, 0, 52, 63
6, 144480, Note_on_c, 0, 52, 0
6, 144480, Note_on_c, 0, 76, 63
6, 144600, Note_on_c, 0, 76, 0
6, 144840, Note_on_c, 0, 64, 65
6, 144960, Note_on_c, 0, 64, 0
6, 144960, Note_on_c, 0, 80, 65
6, 145080, Note_on_c, 0, 80, 0
6, 145200, Control_c, 0, 64, 0
6, 145240, Control_c, 0, 64, 127
6, 145320, Note_on_c, 0, 57, 66
6, 145440, Note_on_c, 0, 57, 0
6, 145440, Note_on_c, 0, 81, 64
6, 145560, Note_on_c, 0, 81, 0
6, 145800, Note_on_c, 0, 45, 58
6, 145920, Note_on_c, 0, 45, 0
6, 145920, Note_on_c, 0, 64, 56
6, 146040, Note_on_c, 0, 64, 0
6, 146160, Control_c, 0, 64, 0
6, 146160, Control_c, 0, 64, 0
6, 146200, Control_c, 0, 64, 127
6, 146280, Note_on_c, 0, 38, 43
6, 146400, Note_on_c, 0, 38, 0
6, 146400, Note_on_c, 0, 54, 43
6, 146520, Note_on_c, 0, 54, 0
6, 146760, Note_on_c, 0, 50, 44
6, 146880, Note_on_c, 0, 50, 0
6, 146880, Note_on_c, 0, 61, 44
6, 147000, Note_on_c, 0, 61, 0
6, 147120, Control_c, 0, 64, 0
6, 147160, Control_c, 0, 64, 127
6, 147240, Note_on_c, 0, 38, 46
6, 147360, Note_on_c, 0, 38, 0
6, 147360, Note_on_c, 0, 59, 46
6, 147480, Note_on_c, 0, 59, 0
6, 147720, Note_on_c, 0, 50, 48
6, 147840, Note_on_c, 0, 50, 0
6, 147840, Note_on_c, 0, 66, 48
6, 147960, Note_on_c, 0, 66, 0
6, 148080, Control_c, 0, 64, 0
6, 148120, Control_c, 0, 64, 127
6, 148200, Note_on_c, 0, 50, 51
6, 148320, Note_on_c, 0, 50, 0
6, 148320, Note_on_c, 0, 64, 51
6, 148440, Note_on_c, 0, 64, 0
6, 148560, Control_c, 0, 64, 0
6, 148600, Control_c, 0, 64, 127
6, 148680, Note_on_c, 0, 62, 53
6, 148800, Note_on_c, 0, 62, 0
6, 148800, Note_on_c, 0, 74, 53
6, 148920, Note_on_c, 0, 74, 0
6, 149040, Control_c, 0, 64, 0
6, 149080, Control_c, 0, 64, 127
6, 149160, Note_on_c, 0, 50, 55
6, 149280, Note_on_c, 0, 50, 0
6, 149280, Note_on_c, 0, 73, 55
6, 149400, Note_on_c, 0, 73, 0
6, 149520, Control_c, 0, 64, 0
6, 149560, Control_c, 0, 64, 127
6, 149640, Note_on_c, 0, 62, 55
6, 149760, Note_on_c, 0, 62, 0
6, 149760, Note_on_c, 0, 71, 53
6, 149880, Note_on_c, 0, 71, 0
6, 150000, Control_c, 0, 64, 0
6, 150040, Control_c, 0, 64, 127
6, 150120, Note_on_c, 0, 38, 51
6, 150240, Note_on_c, 0, 38, 0
6, 150240, Note_on_c, 0, 50, 52
6, 150360, Note_on_c, 0, 50, 0
6, 150480, Control_c, 0, 64, 0
6, 150520, Control_c, 0, 64, 127
6, 150600, Note_on_c, 0, 50, 53
6, 150720, Note_on_c, 0, 50, 0
6, 150720, Note_on_c, 0, 68, 54
6, 150840, Note_on_c, 0, 68, 0
6, 150960, Control_c, 0, 64, 0
6, 151000, Control_c, 0, 64, 127
6, 151080, Note_on_c, 0, 49, 55
6, 151200, Note_on_c, 0, 49, 0
6, 151200, Note_on_c, 0, 69, 56
6, 151320, Note_on_c, 0, 69, 0
6, 151440, Control_c, 0, 64, 0
6, 151480, Control_c, 0, 64, 127
6, 151560, Note_on_c, 0, 61, 57
6, 151680, Note_on_c, 0, 61, 0
6, 151680, Note_on_c, 0, 70, 58
6, 151800, Note_on_c, 0, 70, 0
6, 151920, Control_c, 0, 64, 0
6, 151960, Control_c, 0, 64, 127
6, 152040, Note_on_c, 0, 47, 59
6, 152160, Note_on_c, 0, 47, 0
6, 152160, Note_on_c, 0, 71, 60
6, 152280, Note_on_c, 0, 71, 0
6, 152520, Note_on_c, 0, 59, 61
6, 152640, Note_on_c, 0, 59, 0
6, 152640, Note_on_c, 0, 78, 61
6, 152760, Note_on_c, 0, 78, 0
6, 152880, Control_c, 0, 64, 0
6, 152920, Control_c, 0, 64, 127
6, 153000, Note_on_c, 0, 52, 63
6, 153120, Note_on_c, 0, 52, 0
6, 153120, Note_on_c, 0, 76, 63
6, 153240, Note_on_c, 0, 76, 0
6, 153480, Note_on_c, 0, 64, 65
6, 153600, Note_on_c, 0, 64, 0
6, 153600, Note_on_c, 0, 80, 65
6, 153720, Note_on_c, 0, 80, 0
6, 153840, Control_c, 0, 64, 0
6, 153880, Control_c, 0, 64, 127
6, 153960, Note_on_c, 0, 57, 66
6, 154080, Note_on_c, 0, 57, 0
6, 154080, Note_on_c, 0, 81, 64
6, 154200, Note_on_c, 0, 81, 0
6, 154440, Note_on_c, 0, 45, 58
6, 154560, Note_on_c, 0, 45, 0
6, 154560, Note_on_c, 0, 64, 56
6, 154680, Note_on_c, 0, 64, 0
6, 154800, Control_c, 0, 64, 0
6, 154800, Control_c, 0, 64, 0
6, 154840, Control_c, 0, 64, 127
6, 154920, Note_on_c, 0, 38, 52
6, 155040, Note_on_c, 0, 38, 0
6, 155040, Note_on_c, 0, 53, 53
6, 155160, Note_on_c, 0, 53, 0
6, 155400, Note_on_c, 0, 50, 55
6, 155520, Note_on_c, 0, 50, 0
6, 155520, Note_on_c, 0, 60, 56
6, 155640, Note_on_c, 0, 60, 0
6, 155760, Control_c, 0, 64, 0
6, 155800, Control_c, 0, 64, 127
6, 155880, Note_on_c, 0, 43, 60
6, 156000, Note_on_c, 0, 43, 0
6, 156000, Note_on_c, 0, 58, 59
6, 156120, Note_on_c, 0, 58, 0
6, 156360, Note_on_c, 0, 55, 58
6, 156480, Note_on_c, 0, 55, 0
6, 156480, Note_on_c, 0, 65, 58
6, 156600, Note_on_c, 0, 65, 0
6, 156720, Control_c, 0, 64, 0
6, 156760, Control_c, 0, 64, 127
6, 156840, Note_on_c, 0, 48, 57
6, 156960, Note_on_c, 0, 48, 0
6, 156960, Note_on_c, 0, 64, 58
6, 157080, Note_on_c, 0, 64, 0
6, 157320, Note_on_c, 0, 36, 61
6, 157440, Note_on_c, 0, 36, 0
6, 157440, Note_on_c, 0, 55, 63
6, 157560, Note_on_c, 0, 55, 0
6, 157680, Control_c, 0, 64, 0
6, 157720, Control_c, 0, 64, 127
6, 157800, Note_on_c, 0, 37, 61
6, 157920, Note_on_c, 0, 37, 0
6, 157920, Note_on_c, 0, 52, 60
6, 158040, Note_on_c, 0, 52, 0
6, 158280, Note_on_c, 0, 45, 57
6, 158400, Note_on_c, 0, 45, 0
6, 158400, Note_on_c, 0, 67, 55
6, 158520, Note_on_c, 0, 67, 0
6, 158640, Control_c, 0, 64, 0
6, 158680, Control_c, 0, 64, 127
6, 158760, Note_on_c, 0, 38, 54
6, 158880, Note_on_c, 0, 38, 0
6, 158880, Note_on_c, 0, 54, 55
6, 159000, Note_on_c, 0, 54, 0
6, 159240, Note_on_c, 0, 50, 58
6, 159360, Note_on_c, 0, 50, 0
6, 159360, Note_on_c, 0, 60, 60
6, 159480, Note_on_c, 0, 60, 0
6, 159600, Control_c, 0, 64, 0
6, 159640, Control_c, 0, 64, 127
6, 159720, Note_on_c, 0, 38, 65
6, 159840, Note_on_c, 0, 38, 0
6, 159840, Note_on_c, 0, 57, 64
6, 159960, Note_on_c, 0, 57, 0
6, 160200, Note_on_c, 0, 50, 61
6, 160320, Note_on_c, 0, 50, 0
6, 160320, Note_on_c, 0, 58, 61
6, 160440, Note_on_c, 0, 58, 0
6, 160560, Control_c, 0, 64, 0
6, 160600, Control_c, 0, 64, 127
6, 160680, Note_on_c, 0, 38, 62
6, 160800, Note_on_c, 0, 38, 0
6, 160800, Note_on_c, 0, 55, 63
6, 160920, Note_on_c, 0, 55, 0
6, 161160, Note_on_c, 0, 50, 67
6, 161280, Note_on_c, 0, 50, 0
6, 161280, Note_on_c, 0, 59, 68
6, 161400, Note_on_c, 0, 59, 0
6, 161520, Control_c, 0, 64, 0
6, 161560, Control_c, 0, 64, 127
6, 161640, Note_on_c, 0, 38, 67
6, 161760, Note_on_c, 0, 38, 0
6, 161760, Note_on_c, 0, 58, 65
6, 161880, Note_on_c, 0, 58, 0
6, 162120, Note_on_c, 0, 50, 62
6, 162240, Note_on_c, 0, 50, 0
6, 162240, Note_on_c, 0, 55, 61
6, 162360, Note_on_c, 0, 55, 0
6, 162360, Control_c, 0, 64, 0
6, 162400, Control_c, 0, 64, 127
6, 162600, Note_on_c, 0, 38, 57
6, 162720, Note_on_c, 0, 38, 0
6, 162720, Note_on_c, 0, 56, 56
6, 162840, Note_on_c, 0, 56, 0
6, 162840, Control_c, 0, 64, 0
6, 162880, Control_c, 0, 64, 127
6, 163080, Note_on_c, 0, 50, 49
6, 163200, Note_on_c, 0, 50, 0
6, 163200, Note_on_c, 0, 57, 46
6, 163320, Note_on_c, 0, 57, 0
6, 164220, Control_c, 0, 64, 0
6, 164400, Control_c, 0, 64, 0
6, 164400, Control_c, 0, 64, 0
6, 164520, Note_on_c, 0, 37, 73
6, 164520, Note_on_c, 0, 25, 73
6, 164598, Note_on_c, 0, 25, 0
6, 164598, Note_on_c, 0, 37, 0
6, 164640, Note_on_c, 0, 38, 74
6, 164640, Note_on_c, 0, 26, 74
6, 164718, Note_on_c, 0, 26, 0
6, 164718, Note_on_c, 0, 38, 0
6, 165000, Note_on_c, 0, 38, 76
6, 165000, Note_on_c, 0, 26, 76
6, 165078, Note_on_c, 0, 26, 0
6, 165078, Note_on_c, 0, 38, 0
6, 165120, Note_on_c, 0, 50, 77
6, 165120, Note_on_c, 0, 38, 77
6, 165198, Note_on_c, 0, 38, 0
6, 165198, Note_on_c, 0, 50, 0
6, 165480, Note_on_c, 0, 38, 79
6, 165480, Note_on_c, 0, 26, 79
6, 165558, Note_on_c, 0, 26, 0
6, 165558, Note_on_c, 0, 38, 0
6, 165600, Note_on_c, 0, 31, 80
6, 165600, Note_on_c, 0, 43, 80
6, 165678, Note_on_c, 0, 43, 0
6, 165678, Note_on_c, 0, 31, 0
6, 165960, Note_on_c, 0, 43, 83
6, 165960, Note_on_c, 0, 31, 83
6, 166038, Note_on_c, 0, 31, 0
6, 166038, Note_on_c, 0, 43, 0
6, 166080, Note_on_c, 0, 55, 83
6, 166080, Note_on_c, 0, 43, 83
6, 166158, Note_on_c, 0, 43, 0
6, 166158, Note_on_c, 0, 55, 0
6, 166440, Note_on_c, 0, 53, 86
6, 166440, Note_on_c, 0, 41, 86
6, 166518, Note_on_c, 0, 41, 0
6, 166518, Note_on_c, 0, 53, 0
6, 166560, Note_on_c, 0, 52, 87
6, 166560, Note_on_c, 0, 40, 87
6, 166638, Note_on_c, 0, 40, 0
6, 166638, Note_on_c, 0, 52, 0
6, 166920, Note_on_c, 0, 52, 89
6, 166920, Note_on_c, 0, 40, 89
6, 166998, Note_on_c, 0, 40, 0
6, 166998, Note_on_c, 0, 52, 0
6, 167040, Note_on_c, 0, 64, 90
6, 167040, Note_on_c, 0, 52, 90
6, 167118, Note_on_c, 0, 52, 0
6, 167118, Note_on_c, 0, 64, 0
6, 167400, Note_on_c, 0, 53, 92
6, 167400, Note_on_c, 0, 65, 92
6, 167478, Note_on_c, 0, 65, 0
6, 167478, Note_on_c, 0, 53, 0
6, 167520, Note_on_c, 0, 52, 93
6, 167520, Note_on_c, 0, 64, 93
6, 167598, Note_on_c, 0, 64, 0
6, 167598, Note_on_c, 0, 52, 0
6, 167880, Note_on_c, 0, 52, 95
6, 167880, Note_on_c, 0, 64, 95
6, 167958, Note_on_c, 0, 64, 0
6, 167958, Note_on_c, 0, 52, 0
6, 168000, Note_on_c, 0, 76, 96
6, 168000, Note_on_c, 0, 64, 96
6, 168078, Note_on_c, 0, 64, 0
6, 168078, Note_on_c, 0, 76, 0
6, 168360, Note_on_c, 0, 44, 99
6, 168360, Note_on_c, 0, 56, 99
6, 168438, Note_on_c, 0, 56, 0
6, 168438, Note_on_c, 0, 44, 0
6, 168480, Note_on_c, 0, 57, 99
6, 168480, Note_on_c, 0, 45, 99
6, 168558, Note_on_c, 0, 45, 0
6, 168558, Note_on_c, 0, 57, 0
6, 168840, Note_on_c, 0, 57, 102
6, 168840, Note_on_c, 0, 45, 102
6, 168918, Note_on_c, 0, 45, 0
6, 168918, Note_on_c, 0, 57, 0
6, 168960, Note_on_c, 0, 69, 103
6, 168960, Note_on_c, 0, 57, 103
6, 169038, Note_on_c, 0, 57, 0
6, 169038, Note_on_c, 0, 69, 0
6, 169320, Note_on_c, 0, 57, 105
6, 169320, Note_on_c, 0, 45, 105
6, 169398, Note_on_c, 0, 45, 0
6, 169398, Note_on_c, 0, 57, 0
6, 169440, Note_on_c, 0, 46, 106
6, 169440, Note_on_c, 0, 58, 106
6, 169518, Note_on_c, 0, 58, 0
6, 169518, Note_on_c, 0, 46, 0
6, 169800, Note_on_c, 0, 58, 108
6, 169800, Note_on_c, 0, 46, 108
6, 169878, Note_on_c, 0, 46, 0
6, 169878, Note_on_c, 0, 58, 0
6, 169920, Note_on_c, 0, 58, 109
6, 169920, Note_on_c, 0, 70, 109
6, 169998, Note_on_c, 0, 70, 0
6, 169998, Note_on_c, 0, 58, 0
6, 170280, Note_on_c, 0, 58, 110
6, 170280, Note_on_c, 0, 46, 110
6, 170358, Note_on_c, 0, 46, 0
6, 170358, Note_on_c, 0, 58, 0
6, 170400, Note_on_c, 0, 48, 109
6, 170400, Note_on_c, 0, 60, 109
6, 170478, Note_on_c, 0, 60, 0
6, 170478, Note_on_c, 0, 48, 0
6, 170760, Note_on_c, 0, 60, 107
6, 170760, Note_on_c, 0, 48, 107
6, 170838, Note_on_c, 0, 48, 0
6, 170838, Note_on_c, 0, 60, 0
6, 170880, Note_on_c, 0, 72, 107
6, 170880, Note_on_c, 0, 60, 107
6, 170958, Note_on_c, 0, 60, 0
6, 170958, Note_on_c, 0, 72, 0
6, 171240, Note_on_c, 0, 62, 105
6, 171240, Note_on_c, 0, 50, 105
6, 171318, Note_on_c, 0, 50, 0
6, 171318, Note_on_c, 0, 62, 0
6, 171360, Note_on_c, 0, 74, 104
6, 171360, Note_on_c, 0, 62, 104
6, 171438, Note_on_c, 0, 62, 0
6, 171438, Note_on_c, 0, 74, 0
6, 171720, Note_on_c, 0, 52, 103
6, 171720, Note_on_c, 0, 64, 103
6, 171798, Note_on_c, 0, 64, 0
6, 171798, Note_on_c, 0, 52, 0
6, 171840, Note_on_c, 0, 76, 102
6, 171840, Note_on_c, 0, 64, 102
6, 171918, Note_on_c, 0, 64, 0
6, 171918, Note_on_c, 0, 76, 0
6, 172200, Note_on_c, 0, 57, 98
6, 172278, Note_on_c, 0, 57, 0
6, 172320, Note_on_c, 0, 69, 94
6, 172398, Note_on_c, 0, 69, 0
6, 172680, Note_on_c, 0, 57, 85
6, 172758, Note_on_c, 0, 57, 0
6, 172800, Note_on_c, 0, 45, 82
6, 172878, Note_on_c, 0, 45, 0
6, 173040, Control_c, 0, 64, 0
6, 173040, Control_c, 0, 64, 0
6, 173160, Note_on_c, 0, 25, 73
6, 173160, Note_on_c, 0, 37, 73
6, 173238, Note_on_c, 0, 37, 0
6, 173238, Note_on_c, 0, 25, 0
6, 173280, Note_on_c, 0, 26, 74
6, 173280, Note_on_c, 0, 38, 74
6, 173358, Note_on_c, 0, 38, 0
6, 173358, Note_on_c, 0, 26, 0
6, 173640, Note_on_c, 0, 26, 76
6, 173640, Note_on_c, 0, 38, 76
6, 173718, Note_on_c, 0, 38, 0
6, 173718, Note_on_c, 0, 26, 0
6, 173760, Note_on_c, 0, 38, 77
6, 173760, Note_on_c, 0, 50, 77
6, 173838, Note_on_c, 0, 50, 0
6, 173838, Note_on_c, 0, 38, 0
6, 174120, Note_on_c, 0, 26, 79
6, 174120, Note_on_c, 0, 38, 79
6, 174198, Note_on_c, 0, 38, 0
6, 174198, Note_on_c, 0, 26, 0
6, 174240, Note_on_c, 0, 43, 80
6, 174240, Note_on_c, 0, 31, 80
6, 174318, Note_on_c, 0, 31, 0
6, 174318, Note_on_c, 0, 43, 0
6, 174600, Note_on_c, 0, 31, 83
6, 174600, Note_on_c, 0, 43, 83
6, 174678, Note_on_c, 0, 43, 0
6, 174678, Note_on_c, 0, 31, 0
6, 174720, Note_on_c, 0, 43, 83
6, 174720, Note_on_c, 0, 55, 83
6, 174798, Note_on_c, 0, 55, 0
6, 174798, Note_on_c, 0, 43, 0
6, 175080, Note_on_c, 0, 41, 86
6, 175080, Note_on_c, 0, 53, 86
6, 175158, Note_on_c, 0, 53, 0
6, 175158, Note_on_c, 0, 41, 0
6, 175200, Note_on_c, 0, 40, 87
6, 175200, Note_on_c, 0, 52, 87
6, 175278, Note_on_c, 0, 52, 0
6, 175278, Note_on_c, 0, 40, 0
6, 175560, Note_on_c, 0, 40, 89
6, 175560, Note_on_c, 0, 52, 89
6, 175638, Note_on_c, 0, 52, 0
6, 175638, Note_on_c, 0, 40, 0
6, 175680, Note_on_c, 0, 52, 90
6, 175680, Note_on_c, 0, 64, 90
6, 175758, Note_on_c, 0, 64, 0
6, 175758, Note_on_c, 0, 52, 0
6, 176040, Note_on_c, 0, 65, 92
6, 176040, Note_on_c, 0, 53, 92
6, 176118, Note_on_c, 0, 53, 0
6, 176118, Note_on_c, 0, 65, 0
6, 176160, Note_on_c, 0, 64, 93
6, 176160, Note_on_c, 0, 52, 93
6, 176238, Note_on_c, 0, 52, 0
6, 176238, Note_on_c, 0, 64, 0
6, 176520, Note_on_c, 0, 64, 95
6, 176520, Note_on_c, 0, 52, 95
6, 176598, Note_on_c, 0, 52, 0
6, 176598, Note_on_c, 0, 64, 0
6, 176640, Note_on_c, 0, 64, 96
6, 176640, Note_on_c, 0, 76, 96
6, 176718, Note_on_c, 0, 76, 0
6, 176718, Note_on_c, 0, 64, 0
6, 177000, Note_on_c, 0, 56, 99
6, 177000, Note_on_c, 0, 44, 99
6, 177078, Note_on_c, 0, 44, 0
6, 177078, Note_on_c, 0, 56, 0
6, 177120, Note_on_c, 0, 45, 99
6, 177120, Note_on_c, 0, 57, 99
6, 177198, Note_on_c, 0, 57, 0
6, 177198, Note_on_c, 0, 45, 0
6, 177480, Note_on_c, 0, 45, 102
6, 177480, Note_on_c, 0, 57, 102
6, 177558, Note_on_c, 0, 57, 0
6, 177558, Note_on_c, 0, 45, 0
6, 177600, Note_on_c, 0, 57, 103
6, 177600, Note_on_c, 0, 69, 103
6, 177678, Note_on_c, 0, 69, 0
6, 177678, Note_on_c, 0, 57, 0
6, 177960, Note_on_c, 0, 45, 105
6, 177960, Note_on_c, 0, 57, 105
6, 178038, Note_on_c, 0, 57, 0
6, 178038, Note_on_c, 0, 45, 0
6, 178080, Note_on_c, 0, 58, 106
6, 178080, Note_on_c, 0, 46, 106
6, 178158, Note_on_c, 0, 46, 0
6, 178158, Note_on_c, 0, 58, 0
6, 178440, Note_on_c, 0, 46, 108
6, 178440, Note_on_c, 0, 58, 108
6, 178518, Note_on_c, 0, 58, 0
6, 178518, Note_on_c, 0, 46, 0
6, 178560, Note_on_c, 0, 70, 109
6, 178560, Note_on_c, 0, 58, 109
6, 178638, Note_on_c, 0, 58, 0
6, 178638, Note_on_c, 0, 70, 0
6, 178920, Note_on_c, 0, 46, 110
6, 178920, Note_on_c, 0, 58, 110
6, 178998, Note_on_c, 0, 58, 0
6, 178998, Note_on_c, 0, 46, 0
6, 179040, Note_on_c, 0, 60, 109
6, 179040, Note_on_c, 0, 48, 109
6, 179118, Note_on_c, 0, 48, 0
6, 179118, Note_on_c, 0, 60, 0
6, 179400, Note_on_c, 0, 48, 107
6, 179400, Note_on_c, 0, 60, 107
6, 179478, Note_on_c, 0, 60, 0
6, 179478, Note_on_c, 0, 48, 0
6, 179520, Note_on_c, 0, 60, 107
6, 179520, Note_on_c, 0, 72, 107
6, 179598, Note_on_c, 0, 72, 0
6, 179598, Note_on_c, 0, 60, 0
6, 179880, Note_on_c, 0, 50, 105
6, 179880, Note_on_c, 0, 62, 105
6, 179958, Note_on_c, 0, 62, 0
6, 179958, Note_on_c, 0, 50, 0
6, 180000, Note_on_c, 0, 62, 104
6, 180000, Note_on_c, 0, 74, 104
6, 180078, Note_on_c, 0, 74, 0
6, 180078, Note_on_c, 0, 62, 0
6, 180360, Note_on_c, 0, 64, 103
6, 180360, Note_on_c, 0, 52, 103
6, 180438, Note_on_c, 0, 52, 0
6, 180438, Note_on_c, 0, 64, 0
6, 180480, Note_on_c, 0, 64, 102
6, 180480, Note_on_c, 0, 76, 102
6, 180558, Note_on_c, 0, 76, 0
6, 180558, Note_on_c, 0, 64, 0
6, 180840, Note_on_c, 0, 57, 98
6, 180918, Note_on_c, 0, 57, 0
6, 180960, Note_on_c, 0, 69, 94
6, 181038, Note_on_c, 0, 69, 0
6, 181320, Note_on_c, 0, 57, 85
6, 181398, Note_on_c, 0, 57, 0
6, 181440, Note_on_c, 0, 45, 82
6, 181518, Note_on_c, 0, 45, 0
6, 181680, Control_c, 0, 64, 0
6, 181800, Note_on_c, 0, 38, 79
6, 181878, Note_on_c, 0, 38, 0
6, 181920, Note_on_c, 0, 26, 80
6, 181998, Note_on_c, 0, 26, 0
6, 182280, Note_on_c, 0, 38, 82
6, 182280, Note_on_c, 0, 26, 82
6, 182358, Note_on_c, 0, 26, 0
6, 182358, Note_on_c, 0, 38, 0
6, 182400, Note_on_c, 0, 38, 83
6, 182478, Note_on_c, 0, 38, 0
6, 182760, Note_on_c, 0, 38, 85
6, 182760, Note_on_c, 0, 26, 85
6, 182838, Note_on_c, 0, 26, 0
6, 182838, Note_on_c, 0, 38, 0
6, 182880, Note_on_c, 0, 40, 85
6, 182880, Note_on_c, 0, 28, 85
6, 182958, Note_on_c, 0, 28, 0
6, 182958, Note_on_c, 0, 40, 0
6, 183240, Note_on_c, 0, 40, 87
6, 183240, Note_on_c, 0, 28, 87
6, 183318, Note_on_c, 0, 28, 0
6, 183318, Note_on_c, 0, 40, 0
6, 183360, Note_on_c, 0, 52, 88
6, 183360, Note_on_c, 0, 40, 88
6, 183438, Note_on_c, 0, 40, 0
6, 183438, Note_on_c, 0, 52, 0
6, 183720, Note_on_c, 0, 40, 90
6, 183720, Note_on_c, 0, 28, 90
6, 183798, Note_on_c, 0, 28, 0
6, 183798, Note_on_c, 0, 40, 0
6, 183840, Note_on_c, 0, 41, 91
6, 183840, Note_on_c, 0, 29, 91
6, 183918, Note_on_c, 0, 29, 0
6, 183918, Note_on_c, 0, 41, 0
6, 184200, Note_on_c, 0, 29, 93
6, 184200, Note_on_c, 0, 41, 93
6, 184278, Note_on_c, 0, 41, 0
6, 184278, Note_on_c, 0, 29, 0
6, 184320, Note_on_c, 0, 53, 93
6, 184320, Note_on_c, 0, 41, 93
6, 184398, Note_on_c, 0, 41, 0
6, 184398, Note_on_c, 0, 53, 0
6, 184680, Note_on_c, 0, 29, 95
6, 184680, Note_on_c, 0, 41, 95
6, 184758, Note_on_c, 0, 41, 0
6, 184758, Note_on_c, 0, 29, 0
6, 184800, Note_on_c, 0, 46, 96
6, 184800, Note_on_c, 0, 34, 96
6, 184878, Note_on_c, 0, 34, 0
6, 184878, Note_on_c, 0, 46, 0
6, 185160, Note_on_c, 0, 34, 98
6, 185160, Note_on_c, 0, 46, 98
6, 185238, Note_on_c, 0, 46, 0
6, 185238, Note_on_c, 0, 34, 0
6, 185280, Note_on_c, 0, 46, 99
6, 185280, Note_on_c, 0, 58, 99
6, 185358, Note_on_c, 0, 58, 0
6, 185358, Note_on_c, 0, 46, 0
6, 185640, Note_on_c, 0, 34, 101
6, 185640, Note_on_c, 0, 46, 101
6, 185718, Note_on_c, 0, 46, 0
6, 185718, Note_on_c, 0, 34, 0
6, 185760, Note_on_c, 0, 58, 101
6, 185838, Note_on_c, 0, 58, 0
6, 186120, Note_on_c, 0, 34, 103
6, 186120, Note_on_c, 0, 46, 103
6, 186198, Note_on_c, 0, 46, 0
6, 186198, Note_on_c, 0, 34, 0
6, 186240, Note_on_c, 0, 58, 104
6, 186318, Note_on_c, 0, 58, 0
6, 186600, Note_on_c, 0, 34, 106
6, 186600, Note_on_c, 0, 46, 106
6, 186678, Note_on_c, 0, 46, 0
6, 186678, Note_on_c, 0, 34, 0
6, 186720, Note_on_c, 0, 58, 107
6, 186798, Note_on_c, 0, 58, 0
6, 187080, Note_on_c, 0, 34, 109
6, 187080, Note_on_c, 0, 46, 109
6, 187158, Note_on_c, 0, 46, 0
6, 187158, Note_on_c, 0, 34, 0
6, 187200, Note_on_c, 0, 58, 109
6, 187278, Note_on_c, 0, 58, 0
6, 187560, Note_on_c, 0, 35, 111
6, 187560, Note_on_c, 0, 47, 111
6, 187638, Note_on_c, 0, 47, 0
6, 187638, Note_on_c, 0, 35, 0
6, 187680, Note_on_c, 0, 59, 112
6, 187758, Note_on_c, 0, 59, 0
6, 188040, Note_on_c, 0, 37, 114
6, 188040, Note_on_c, 0, 49, 114
6, 188118, Note_on_c, 0, 49, 0
6, 188118, Note_on_c, 0, 37, 0
6, 188160, Note_on_c, 0, 61, 115
6, 188238, Note_on_c, 0, 61, 0
6, 188520, Note_on_c, 0, 50, 118
6, 188520, Note_on_c, 0, 38, 118
6, 188598, Note_on_c, 0, 38, 0
6, 188598, Note_on_c, 0, 50, 0
6, 188640, Note_on_c, 0, 62, 117
6, 188718, Note_on_c, 0, 62, 0
6, 189000, Note_on_c, 0, 41, 114
6, 189000, Note_on_c, 0, 53, 114
6, 189078, Note_on_c, 0, 53, 0
6, 189078, Note_on_c, 0, 41, 0
6, 189120, Note_on_c, 0, 65, 113
6, 189198, Note_on_c, 0, 65, 0
6, 189480, Note_on_c, 0, 43, 111
6, 189480, Note_on_c, 0, 55, 111
6, 189558, Note_on_c, 0, 55, 0
6, 189558, Note_on_c, 0, 43, 0
6, 189600, Note_on_c, 0, 67, 110
6, 189678, Note_on_c, 0, 67, 0
6, 189960, Note_on_c, 0, 45, 107
6, 189960, Note_on_c, 0, 57, 107
6, 190038, Note_on_c, 0, 57, 0
6, 190038, Note_on_c, 0, 45, 0
6, 190080, Note_on_c, 0, 69, 106
6, 190158, Note_on_c, 0, 69, 0
6, 190440, Note_on_c, 0, 50, 104
6, 190440, Note_on_c, 0, 62, 104
6, 190518, Note_on_c, 0, 62, 0
6, 190518, Note_on_c, 0, 50, 0
6, 190560, Note_on_c, 0, 74, 103
6, 190638, Note_on_c, 0, 74, 0
6, 190920, Note_on_c, 0, 62, 100
6, 190998, Note_on_c, 0, 62, 0
6, 191040, Note_on_c, 0, 50, 100
6, 191118, Note_on_c, 0, 50, 0
6, 191280, Control_c, 0, 64, 0
6, 191280, Control_c, 0, 64, 0
6, 191280, Note_on_c, 0, 26, 73
6, 191320, Control_c, 0, 64, 127
6, 191340, Note_on_c, 0, 26, 0
6, 191340, Note_on_c, 0, 38, 75
6, 191400, Note_on_c, 0, 38, 0
6, 191400, Note_on_c, 0, 26, 77
6, 191460, Note_on_c, 0, 26, 0
6, 191460, Note_on_c, 0, 38, 83
6, 191520, Note_on_c, 0, 38, 0
6, 191520, Note_on_c, 0, 26, 73
6, 191580, Note_on_c, 0, 26, 0
6, 191580, Note_on_c, 0, 38, 75
6, 191640, Note_on_c, 0, 38, 0
6, 191640, Note_on_c, 0, 26, 77
6, 191700, Note_on_c, 0, 26, 0
6, 191700, Note_on_c, 0, 38, 83
6, 191760, Note_on_c, 0, 38, 0
6, 192240, Control_c, 0, 64, 0
6, 192240, Control_c, 0, 64, 0
6, 192280, Control_c, 0, 64, 127
6, 192480, Note_on_c, 0, 26, 79
6, 192540, Note_on_c, 0, 26, 0
6, 192540, Note_on_c, 0, 38, 82
6, 192600, Note_on_c, 0, 38, 0
6, 192600, Note_on_c, 0, 26, 84
6, 192660, Note_on_c, 0, 26, 0
6, 192660, Note_on_c, 0, 38, 90
6, 192720, Note_on_c, 0, 38, 0
6, 193200, Control_c, 0, 64, 0
6, 193240, Control_c, 0, 64, 127
6, 193440, Note_on_c, 0, 26, 79
6, 193500, Note_on_c, 0, 26, 0
6, 193500, Note_on_c, 0, 38, 82
6, 193560, Note_on_c, 0, 38, 0
6, 193560, Note_on_c, 0, 26, 84
6, 193620, Note_on_c, 0, 26, 0
6, 193620, Note_on_c, 0, 38, 90
6, 193680, Note_on_c, 0, 38, 0
6, 194160, Control_c, 0, 64, 0
6, 194200, Control_c, 0, 64, 127
6, 194400, Note_on_c, 0, 26, 84
6, 194460, Note_on_c, 0, 26, 0
6, 194460, Note_on_c, 0, 38, 81
6, 194520, Note_on_c, 0, 38, 0
6, 194520, Note_on_c, 0, 26, 79
6, 194580, Note_on_c, 0, 26, 0
6, 194580, Note_on_c, 0, 38, 77
6, 194640, Note_on_c, 0, 38, 0
6, 194640, Note_on_c, 0, 26, 74
6, 194700, Note_on_c, 0, 26, 0
6, 194700, Note_on_c, 0, 38, 72
6, 194760, Note_on_c, 0, 38, 0
6, 194760, Note_on_c, 0, 26, 70
6, 194820, Note_on_c, 0, 26, 0
6, 194820, Note_on_c, 0, 38, 67
6, 194880, Note_on_c, 0, 38, 0
6, 194880, Note_on_c, 0, 26, 65
6, 194940, Note_on_c, 0, 26, 0
6, 194940, Note_on_c, 0, 38, 63
6, 195000, Note_on_c, 0, 38, 0
6, 195000, Note_on_c, 0, 26, 61
6, 195060, Note_on_c, 0, 26, 0
6, 195060, Note_on_c, 0, 38, 58
6, 195120, Note_on_c, 0, 38, 0
6, 195120, Control_c, 0, 64, 0
6, 195160, Control_c, 0, 64, 127
6, 195360, Note_on_c, 0, 26, 59
6, 195420, Note_on_c, 0, 26, 0
6, 195420, Note_on_c, 0, 38, 60
6, 195480, Note_on_c, 0, 38, 0
6, 195480, Note_on_c, 0, 26, 61
6, 195540, Note_on_c, 0, 26, 0
6, 195540, Note_on_c, 0, 38, 67
6, 195600, Note_on_c, 0, 38, 0
6, 196080, Control_c, 0, 64, 0
6, 196120, Control_c, 0, 64, 127
6, 196320, Note_on_c, 0, 24, 66
6, 196380, Note_on_c, 0, 24, 0
6, 196380, Note_on_c, 0, 36, 68
6, 196440, Note_on_c, 0, 36, 0
6, 196440, Note_on_c, 0, 24, 70
6, 196500, Note_on_c, 0, 24, 0
6, 196500, Note_on_c, 0, 36, 76
6, 196560, Note_on_c, 0, 36, 0
6, 197040, Control_c, 0, 64, 0
6, 197080, Control_c, 0, 64, 127
6, 197280, Note_on_c, 0, 35, 75
6, 197340, Note_on_c, 0, 35, 0
6, 197340, Note_on_c, 0, 47, 77
6, 197400, Note_on_c, 0, 47, 0
6, 197400, Note_on_c, 0, 35, 79
6, 197460, Note_on_c, 0, 35, 0
6, 197460, Note_on_c, 0, 47, 86
6, 197520, Note_on_c, 0, 47, 0
6, 198000, Control_c, 0, 64, 0
6, 198040, Control_c, 0, 64, 127
6, 198240, Note_on_c, 0, 35, 83
6, 198300, Note_on_c, 0, 35, 0
6, 198300, Note_on_c, 0, 47, 86
6, 198360, Note_on_c, 0, 47, 0
6, 198360, Note_on_c, 0, 35, 89
6, 198420, Note_on_c, 0, 35, 0
6, 198420, Note_on_c, 0, 47, 93
6, 198480, Note_on_c, 0, 47, 0
6, 198480, Control_c, 0, 64, 0
6, 198520, Control_c, 0, 64, 127
6, 198720, Note_on_c, 0, 34, 89
6, 198780, Note_on_c, 0, 34, 0
6, 198780, Note_on_c, 0, 46, 91
6, 198840, Note_on_c, 0, 46, 0
6, 198840, Note_on_c, 0, 34, 93
6, 198900, Note_on_c, 0, 34, 0
6, 198900, Note_on_c, 0, 46, 96
6, 198960, Note_on_c, 0, 46, 0
6, 198960, Control_c, 0, 64, 0
6, 198960, Note_on_c, 0, 45, 98
6, 198960, Note_on_c, 0, 33, 98
6, 199038, Note_on_c, 0, 33, 0
6, 199038, Note_on_c, 0, 45, 0
6, 199200, Note_on_c, 0, 45, 93
6, 199200, Note_on_c, 0, 33, 93
6, 199278, Note_on_c, 0, 33, 0
6, 199278, Note_on_c, 0, 45, 0
6, 199440, Note_on_c, 0, 33, 88
6, 199440, Note_on_c, 0, 45, 88
6, 199518, Note_on_c, 0, 45, 0
6, 199518, Note_on_c, 0, 33, 0
6, 199680, Note_on_c, 0, 45, 83
6, 199680, Note_on_c, 0, 33, 83
6, 199758, Note_on_c, 0, 33, 0
6, 199758, Note_on_c, 0, 45, 0
6, 199920, Control_c, 0, 64, 0
6, 199920, Control_c, 0, 64, 0
6, 199920, Note_on_c, 0, 33, 83
6, 199920, Note_on_c, 0, 45, 83
6, 199960, Control_c, 0, 64, 127
6, 199998, Note_on_c, 0, 45, 0
6, 199998, Note_on_c, 0, 33, 0
6, 200160, Note_on_c, 0, 26, 73
6, 200220, Note_on_c, 0, 26, 0
6, 200220, Note_on_c, 0, 38, 75
6, 200280, Note_on_c, 0, 38, 0
6, 200280, Note_on_c, 0, 26, 77
6, 200340, Note_on_c, 0, 26, 0
6, 200340, Note_on_c, 0, 38, 83
6, 200400, Note_on_c, 0, 38, 0
6, 200880, Control_c, 0, 64, 0
6, 200880, Control_c, 0, 64, 0
6, 200920, Control_c, 0, 64, 127
6, 201120, Note_on_c, 0, 26, 73
6, 201180, Note_on_c, 0, 26, 0
6, 201180, Note_on_c, 0, 38, 75
6, 201240, Note_on_c, 0, 38, 0
6, 201240, Note_on_c, 0, 26, 77
6, 201300, Note_on_c, 0, 26, 0
6, 201300, Note_on_c, 0, 38, 83
6, 201360, Note_on_c, 0, 38, 0
6, 201840, Control_c, 0, 64, 0
6, 201880, Control_c, 0, 64, 127
6, 202080, Note_on_c, 0, 26, 79
6, 202140, Note_on_c, 0, 26, 0
6, 202140, Note_on_c, 0, 38, 82
6, 202200, Note_on_c, 0, 38, 0
6, 202200, Note_on_c, 0, 26, 84
6, 202260, Note_on_c, 0, 26, 0
6, 202260, Note_on_c, 0, 38, 90
6, 202320, Note_on_c, 0, 38, 0
6, 202800, Control_c, 0, 64, 0
6, 202840, Control_c, 0, 64, 127
6, 203040, Note_on_c, 0, 26, 84
6, 203100, Note_on_c, 0, 26, 0
6, 203100, Note_on_c, 0, 38, 81
6, 203160, Note_on_c, 0, 38, 0
6, 203160, Note_on_c, 0, 26, 79
6, 203220, Note_on_c, 0, 26, 0
6, 203220, Note_on_c, 0, 38, 77
6, 203280, Note_on_c, 0, 38, 0
6, 203280, Note_on_c, 0, 26, 74
6, 203340, Note_on_c, 0, 26, 0
6, 203340, Note_on_c, 0, 38, 72
6, 203400, Note_on_c, 0, 38, 0
6, 203400, Note_on_c, 0, 26, 70
6, 203460, Note_on_c, 0, 26, 0
6, 203460, Note_on_c, 0, 38, 67
6, 203520, Note_on_c, 0, 38, 0
6, 203520, Note_on_c, 0, 26, 65
6, 203580, Note_on_c, 0, 26, 0
6, 203580, Note_on_c, 0, 38, 63
6, 203640, Note_on_c, 0, 38, 0
6, 203640, Note_on_c, 0, 26, 61
6, 203700, Note_on_c, 0, 26, 0
6, 203700, Note_on_c, 0, 38, 58
6, 203760, Note_on_c, 0, 38, 0
6, 203760, Control_c, 0, 64, 0
6, 203800, Control_c, 0, 64, 127
6, 204000, Note_on_c, 0, 26, 59
6, 204060, Note_on_c, 0, 26, 0
6, 204060, Note_on_c, 0, 38, 60
6, 204120, Note_on_c, 0, 38, 0
6, 204120, Note_on_c, 0, 26, 61
6, 204180, Note_on_c, 0, 26, 0
6, 204180, Note_on_c, 0, 38, 67
6, 204240, Note_on_c, 0, 38, 0
6, 204720, Control_c, 0, 64, 0
6, 204760, Control_c, 0, 64, 127
6, 204960, Note_on_c, 0, 24, 66
6, 205020, Note_on_c, 0, 24, 0
6, 205020, Note_on_c, 0, 36, 68
6, 205080, Note_on_c, 0, 36, 0
6, 205080, Note_on_c, 0, 24, 70
6, 205140, Note_on_c, 0, 24, 0
6, 205140, Note_on_c, 0, 36, 76
6, 205200, Note_on_c, 0, 36, 0
6, 205680, Control_c, 0, 64, 0
6, 205720, Control_c, 0, 64, 127
6, 205920, Note_on_c, 0, 35, 75
6, 205980, Note_on_c, 0, 35, 0
6, 205980, Note_on_c, 0, 47, 77
6, 206040, Note_on_c, 0, 47, 0
6, 206040, Note_on_c, 0, 35, 79
6, 206100, Note_on_c, 0, 35, 0
6, 206100, Note_on_c, 0, 47, 86
6, 206160, Note_on_c, 0, 47, 0
6, 206640, Control_c, 0, 64, 0
6, 206680, Control_c, 0, 64, 127
6, 206880, Note_on_c, 0, 35, 83
6, 206940, Note_on_c, 0, 35, 0
6, 206940, Note_on_c, 0, 47, 86
6, 207000, Note_on_c, 0, 47, 0
6, 207000, Note_on_c, 0, 35, 89
6, 207060, Note_on_c, 0, 35, 0
6, 207060, Note_on_c, 0, 47, 93
6, 207120, Note_on_c, 0, 47, 0
6, 207120, Control_c, 0, 64, 0
6, 207160, Control_c, 0, 64, 127
6, 207360, Note_on_c, 0, 34, 89
6, 207420, Note_on_c, 0, 34, 0
6, 207420, Note_on_c, 0, 46, 91
6, 207480, Note_on_c, 0, 46, 0
6, 207480, Note_on_c, 0, 34, 93
6, 207540, Note_on_c, 0, 34, 0
6, 207540, Note_on_c, 0, 46, 96
6, 207600, Note_on_c, 0, 46, 0
6, 207600, Control_c, 0, 64, 0
6, 207600, Note_on_c, 0, 45, 98
6, 207600, Note_on_c, 0, 33, 98
6, 207678, Note_on_c, 0, 33, 0
6, 207678, Note_on_c, 0, 45, 0
6, 207840, Note_on_c, 0, 45, 93
6, 207840, Note_on_c, 0, 33, 93
6, 207918, Note_on_c, 0, 33, 0
6, 207918, Note_on_c, 0, 45, 0
6, 208080, Note_on_c, 0, 33, 88
6, 208080, Note_on_c, 0, 45, 88
6, 208158, Note_on_c, 0, 45, 0
6, 208158, Note_on_c, 0, 33, 0
6, 208320, Note_on_c, 0, 45, 83
6, 208320, Note_on_c, 0, 33, 83
6, 208398, Note_on_c, 0, 33, 0
6, 208398, Note_on_c, 0, 45, 0
6, 208560, Control_c, 0, 64, 0
6, 208560, Control_c, 0, 64, 0
6, 208600, Control_c, 0, 64, 127
6, 208800, Note_on_c, 0, 26, 52
6, 208860, Note_on_c, 0, 26, 0
6, 208860, Note_on_c, 0, 38, 54
6, 208920, Note_on_c, 0, 38, 0
6, 208920, Note_on_c, 0, 26, 57
6, 208921, Note_on_c, 0, 26, 0
6, 208980, Note_on_c, 0, 38, 61
6, 208981, Note_on_c, 0, 38, 0
6, 209520, Control_c, 0, 64, 0
6, 209520, Control_c, 0, 64, 0
6, 209560, Control_c, 0, 64, 127
6, 209760, Note_on_c, 0, 24, 61
6, 209820, Note_on_c, 0, 24, 0
6, 209820, Note_on_c, 0, 36, 64
6, 209880, Note_on_c, 0, 36, 0
6, 209880, Note_on_c, 0, 24, 66
6, 209881, Note_on_c, 0, 24, 0
6, 209940, Note_on_c, 0, 36, 68
6, 209941, Note_on_c, 0, 36, 0
6, 210480, Control_c, 0, 64, 0
6, 210520, Control_c, 0, 64, 127
6, 210720, Note_on_c, 0, 29, 69
6, 210780, Note_on_c, 0, 29, 0
6, 210780, Note_on_c, 0, 41, 72
6, 210840, Note_on_c, 0, 41, 0
6, 210840, Note_on_c, 0, 29, 74
6, 210900, Note_on_c, 0, 29, 0
6, 210900, Note_on_c, 0, 41, 76
6, 210960, Note_on_c, 0, 41, 0
6, 211440, Control_c, 0, 64, 0
6, 211480, Control_c, 0, 64, 127
6, 211680, Note_on_c, 0, 29, 80
6, 211740, Note_on_c, 0, 29, 0
6, 211740, Note_on_c, 0, 41, 82
6, 211800, Note_on_c, 0, 41, 0
6, 211800, Note_on_c, 0, 29, 84
6, 211860, Note_on_c, 0, 29, 0
6, 211860, Note_on_c, 0, 41, 86
6, 211920, Note_on_c, 0, 41, 0
6, 212400, Control_c, 0, 64, 0
6, 212440, Control_c, 0, 64, 127
6, 212640, Note_on_c, 0, 30, 87
6, 212700, Note_on_c, 0, 30, 0
6, 212700, Note_on_c, 0, 42, 89
6, 212760, Note_on_c, 0, 42, 0
6, 212760, Note_on_c, 0, 30, 91
6, 212820, Note_on_c, 0, 30, 0
6, 212820, Note_on_c, 0, 42, 93
6, 212880, Note_on_c, 0, 42, 0
6, 212880, Control_c, 0, 64, 0
6, 212920, Control_c, 0, 64, 127
6, 213120, Note_on_c, 0, 30, 93
6, 213180, Note_on_c, 0, 30, 0
6, 213180, Note_on_c, 0, 42, 95
6, 213240, Note_on_c, 0, 42, 0
6, 213240, Note_on_c, 0, 30, 97
6, 213300, Note_on_c, 0, 30, 0
6, 213300, Note_on_c, 0, 42, 99
6, 213360, Note_on_c, 0, 42, 0
6, 213360, Control_c, 0, 64, 0
6, 213400, Control_c, 0, 64, 127
6, 213600, Note_on_c, 0, 30, 95
6, 213660, Note_on_c, 0, 30, 0
6, 213660, Note_on_c, 0, 42, 98
6, 213720, Note_on_c, 0, 42, 0
6, 213720, Note_on_c, 0, 30, 101
6, 213780, Note_on_c, 0, 30, 0
6, 213780, Note_on_c, 0, 42, 103
6, 213840, Note_on_c, 0, 42, 0
6, 213840, Control_c, 0, 64, 0
6, 213880, Control_c, 0, 64, 127
6, 214080, Note_on_c, 0, 26, 100
6, 214140, Note_on_c, 0, 26, 0
6, 214140, Note_on_c, 0, 38, 102
6, 214200, Note_on_c, 0, 38, 0
6, 214200, Note_on_c, 0, 26, 105
6, 214260, Note_on_c, 0, 26, 0
6, 214260, Note_on_c, 0, 38, 107
6, 214320, Note_on_c, 0, 38, 0
6, 214320, Control_c, 0, 64, 0
6, 214360, Control_c, 0, 64, 127
6, 214560, Note_on_c, 0, 26, 106
6, 214620, Note_on_c, 0, 26, 0
6, 214620, Note_on_c, 0, 38, 109
6, 214680, Note_on_c, 0, 38, 0
6, 214680, Note_on_c, 0, 26, 112
6, 214740, Note_on_c, 0, 26, 0
6, 214740, Note_on_c, 0, 38, 115
6, 214800, Note_on_c, 0, 38, 0
6, 214800, Control_c, 0, 64, 0
6, 214840, Control_c, 0, 64, 127
6, 215040, Note_on_c, 0, 26, 111
6, 215100, Note_on_c, 0, 26, 0
6, 215100, Note_on_c, 0, 38, 113
6, 215160, Note_on_c, 0, 38, 0
6, 215160, Note_on_c, 0, 26, 116
6, 215220, Note_on_c, 0, 26, 0
6, 215220, Note_on_c, 0, 38, 119
6, 215280, Note_on_c, 0, 38, 0
6, 215280, Control_c, 0, 64, 0
6, 215320, Control_c, 0, 64, 127
6, 215520, Note_on_c, 0, 26, 117
6, 215580, Note_on_c, 0, 26, 0
6, 215580, Note_on_c, 0, 38, 119
6, 215640, Note_on_c, 0, 38, 0
6, 215640, Note_on_c, 0, 26, 121
6, 215700, Note_on_c, 0, 26, 0
6, 215700, Note_on_c, 0, 38, 123
6, 215760, Note_on_c, 0, 38, 0
6, 216240, Control_c, 0, 64, 0
6, 216280, Control_c, 0, 64, 127
6, 216480, Note_on_c, 0, 26, 122
6, 216540, Note_on_c, 0, 26, 0
6, 216540, Note_on_c, 0, 38, 121
6, 216600, Note_on_c, 0, 38, 0
6, 216600, Note_on_c, 0, 26, 120
6, 216660, Note_on_c, 0, 26, 0
6, 216660, Note_on_c, 0, 38, 120
6, 216720, Note_on_c, 0, 38, 0
6, 216720, Note_on_c, 0, 26, 119
6, 216780, Note_on_c, 0, 26, 0
6, 217080, Control_c, 0, 64, 0
6, 217200, Control_c, 0, 64, 0
6, 225840, Control_c, 0, 64, 0
6, 234480, Control_c, 0, 64, 0
6, 235440, Control_c, 0, 64, 0
6, 243120, Control_c, 0, 64, 0
6, 243120, Note_on_c, 0, 54, 47
6, 243312, Note_on_c, 0, 54, 0
6, 243360, Note_on_c, 0, 62, 48
6, 243600, Note_on_c, 0, 62, 0
6, 243600, Note_on_c, 0, 61, 49
6, 243840, Note_on_c, 0, 61, 0
6, 243840, Note_on_c, 0, 59, 50
6, 244032, Note_on_c, 0, 59, 0
6, 244080, Note_on_c, 0, 67, 51
6, 244320, Note_on_c, 0, 67, 0
6, 244320, Note_on_c, 0, 66, 52
6, 244560, Note_on_c, 0, 66, 0
6, 244560, Note_on_c, 0, 64, 53
6, 244752, Note_on_c, 0, 64, 0
6, 244800, Note_on_c, 0, 67, 54
6, 244800, Note_on_c, 0, 71, 54
6, 245040, Note_on_c, 0, 71, 0
6, 245040, Note_on_c, 0, 67, 0
6, 245040, Note_on_c, 0, 69, 55
6, 245040, Note_on_c, 0, 66, 55
6, 245280, Note_on_c, 0, 66, 0
6, 245280, Note_on_c, 0, 69, 0
6, 245280, Note_on_c, 0, 64, 58
6, 245280, Note_on_c, 0, 67, 58
6, 245520, Note_on_c, 0, 67, 0
6, 245520, Note_on_c, 0, 64, 0
6, 245520, Note_on_c, 0, 62, 58
6, 245760, Note_on_c, 0, 62, 0
6, 245760, Note_on_c, 0, 59, 57
6, 246000, Note_on_c, 0, 59, 0
6, 246000, Note_on_c, 0, 55, 56
6, 246000, Note_on_c, 0, 62, 56
6, 246192, Note_on_c, 0, 62, 0
6, 246192, Note_on_c, 0, 55, 0
6, 246240, Note_on_c, 0, 61, 55
6, 246240, Note_on_c, 0, 64, 55
6, 246480, Note_on_c, 0, 64, 0
6, 246480, Note_on_c, 0, 61, 0
6, 246480, Note_on_c, 0, 59, 55
6, 246480, Note_on_c, 0, 62, 55
6, 246720, Note_on_c, 0, 62, 0
6, 246720, Note_on_c, 0, 59, 0
6, 246720, Note_on_c, 0, 57, 54
6, 246720, Note_on_c, 0, 61, 54
6, 246912, Note_on_c, 0, 61, 0
6, 246912, Note_on_c, 0, 57, 0
6, 246960, Note_on_c, 0, 59, 53
6, 246960, Note_on_c, 0, 62, 53
6, 247200, Note_on_c, 0, 62, 0
6, 247200, Note_on_c, 0, 59, 0
6, 247200, Note_on_c, 0, 57, 52
6, 247200, Note_on_c, 0, 61, 52
6, 247440, Note_on_c, 0, 61, 0
6, 247440, Note_on_c, 0, 57, 0
6, 247440, Note_on_c, 0, 59, 51
6, 247440, Note_on_c, 0, 56, 51
6, 247632, Note_on_c, 0, 56, 0
6, 247632, Note_on_c, 0, 59, 0
6, 247680, Note_on_c, 0, 57, 51
6, 248160, Note_on_c, 0, 57, 0
6, 248160, Note_on_c, 0, 57, 49
6, 248400, Note_on_c, 0, 57, 0
6, 248400, Note_on_c, 0, 50, 48
6, 248640, Note_on_c, 0, 50, 0
6, 248640, Note_on_c, 0, 55, 48
6, 248880, Note_on_c, 0, 55, 0
6, 248880, Note_on_c, 0, 57, 47
6, 249120, Note_on_c, 0, 57, 0
6, 249120, Note_on_c, 0, 55, 46
6, 249360, Note_on_c, 0, 55, 0
6, 249360, Note_on_c, 0, 52, 45
6, 249560, Note_on_c, 0, 52, 0
6, 249580, Note_on_c, 0, 50, 45
6, 250085, Note_on_c, 0, 50, 0
6, 269040, Note_on_c, 0, 50, 47
6, 269520, Note_on_c, 0, 50, 0
6, 269520, Note_on_c, 0, 50, 51
6, 269640, Note_on_c, 0, 50, 0
6, 269640, Note_on_c, 0, 49, 51
6, 269760, Note_on_c, 0, 49, 0
6, 269760, Note_on_c, 0, 50, 52
6, 270240, Note_on_c, 0, 50, 0
6, 270240, Note_on_c, 0, 50, 54
6, 270360, Note_on_c, 0, 50, 0
6, 270360, Note_on_c, 0, 54, 54
6, 270480, Note_on_c, 0, 54, 0
6, 270480, Note_on_c, 0, 55, 55
6, 270960, Note_on_c, 0, 55, 0
6, 270960, Note_on_c, 0, 55, 57
6, 271080, Note_on_c, 0, 55, 0
6, 271080, Note_on_c, 0, 58, 58
6, 271200, Note_on_c, 0, 58, 0
6, 271200, Note_on_c, 0, 59, 58
6, 271680, Note_on_c, 0, 59, 0
6, 271680, Note_on_c, 0, 59, 54
6, 271800, Note_on_c, 0, 59, 0
6, 271800, Note_on_c, 0, 58, 53
6, 271920, Note_on_c, 0, 58, 0
6, 271920, Note_on_c, 0, 59, 53
6, 272400, Note_on_c, 0, 59, 0
6, 272400, Note_on_c, 0, 59, 49
6, 272520, Note_on_c, 0, 59, 0
6, 272520, Note_on_c, 0, 58, 48
6, 272640, Note_on_c, 0, 58, 0
6, 272640, Note_on_c, 0, 57, 45
6, 273120, Note_on_c, 0, 57, 0
6, 273120, Note_on_c, 0, 57, 47
6, 273360, Note_on_c, 0, 57, 0
6, 273360, Note_on_c, 0, 56, 48
6, 273840, Note_on_c, 0, 56, 0
6, 273840, Note_on_c, 0, 56, 50
6, 274080, Note_on_c, 0, 56, 0
6, 274080, Note_on_c, 0, 55, 52
6, 274560, Note_on_c, 0, 55, 0
6, 274560, Note_on_c, 0, 55, 51
6, 274800, Note_on_c, 0, 55, 0
6, 274800, Note_on_c, 0, 54, 50
6, 275280, Note_on_c, 0, 54, 0
6, 275280, Note_on_c, 0, 50, 48
6, 275400, Note_on_c, 0, 50, 0
6, 275400, Note_on_c, 0, 49, 47
6, 275520, Note_on_c, 0, 49, 0
6, 275520, Note_on_c, 0, 50, 47
6, 276000, Note_on_c, 0, 50, 0
6, 276000, Note_on_c, 0, 50, 48
6, 276180, Note_on_c, 0, 50, 0
6, 276240, Note_on_c, 0, 50, 49
6, 276420, Note_on_c, 0, 50, 0
6, 276480, Note_on_c, 0, 50, 49
6, 276660, Note_on_c, 0, 50, 0
6, 276720, Note_on_c, 0, 50, 50
6, 276900, Note_on_c, 0, 50, 0
6, 276960, Note_on_c, 0, 55, 51
6, 277140, Note_on_c, 0, 55, 0
6, 277200, Note_on_c, 0, 55, 52
6, 277380, Note_on_c, 0, 55, 0
6, 277440, Note_on_c, 0, 55, 52
6, 277620, Note_on_c, 0, 55, 0
6, 277680, Note_on_c, 0, 59, 53
6, 277860, Note_on_c, 0, 59, 0
6, 277920, Note_on_c, 0, 59, 54
6, 278100, Note_on_c, 0, 59, 0
6, 278160, Note_on_c, 0, 59, 54
6, 278340, Note_on_c, 0, 59, 0
6, 278400, Note_on_c, 0, 60, 55
6, 278580, Note_on_c, 0, 60, 0
6, 278640, Note_on_c, 0, 60, 56
6, 278820, Note_on_c, 0, 60, 0
6, 278880, Note_on_c, 0, 60, 57
6, 279060, Note_on_c, 0, 60, 0
6, 279120, Note_on_c, 0, 60, 57
6, 279300, Note_on_c, 0, 60, 0
6, 279360, Note_on_c, 0, 62, 58
6, 279540, Note_on_c, 0, 62, 0
6, 279600, Note_on_c, 0, 64, 59
6, 279780, Note_on_c, 0, 64, 0
6, 279840, Note_on_c, 0, 67, 59
6, 280020, Note_on_c, 0, 67, 0
6, 280080, Note_on_c, 0, 69, 60
6, 280260, Note_on_c, 0, 69, 0
6, 280320, Note_on_c, 0, 69, 61
6, 280500, Note_on_c, 0, 69, 0
6, 280560, Note_on_c, 0, 67, 59
6, 280740, Note_on_c, 0, 67, 0
6, 280800, Note_on_c, 0, 62, 57
6, 280980, Note_on_c, 0, 62, 0
6, 281040, Note_on_c, 0, 59, 55
6, 281220, Note_on_c, 0, 59, 0
6, 281280, Note_on_c, 0, 60, 55
6, 281460, Note_on_c, 0, 60, 0
6, 281520, Note_on_c, 0, 57, 52
6, 281700, Note_on_c, 0, 57, 0
6, 281760, Note_on_c, 0, 59, 50
6, 281940, Note_on_c, 0, 59, 0
6, 282000, Note_on_c, 0, 60, 48
6, 282180, Note_on_c, 0, 60, 0
6, 282240, Note_on_c, 0, 57, 47
6, 282420, Note_on_c, 0, 57, 0
6, 282480, Note_on_c, 0, 59, 45
6, 282660, Note_on_c, 0, 59, 0
6, 282720, Note_on_c, 0, 60, 50
6, 282960, Note_on_c, 0, 60, 0
6, 282960, Note_on_c, 0, 60, 48
6, 283200, Note_on_c, 0, 60, 0
6, 283200, Note_on_c, 0, 59, 39
6, 283440, Note_on_c, 0, 59, 0
6, 283440, Note_on_c, 0, 59, 38
6, 283680, Note_on_c, 0, 59, 0
6, 283680, Note_on_c, 0, 57, 36
6, 283920, Note_on_c, 0, 57, 0
6, 283920, Note_on_c, 0, 57, 34
6, 284160, Note_on_c, 0, 57, 0
6, 284160, Note_on_c, 0, 56, 32
6, 284400, Note_on_c, 0, 56, 0
6, 284400, Note_on_c, 0, 47, 33
6, 284556, Note_on_c, 0, 47, 0
6, 285120, Note_on_c, 0, 47, 34
6, 285276, Note_on_c, 0, 47, 0
6, 285840, Note_on_c, 0, 45, 37
6, 285996, Note_on_c, 0, 45, 0
6, 286560, Note_on_c, 0, 44, 41
6, 286716, Note_on_c, 0, 44, 0
6, 287040, Note_on_c, 0, 43, 46
6, 287760, Note_on_c, 0, 43, 0
6, 287760, Note_on_c, 0, 42, 39
6, 288480, Note_on_c, 0, 42, 0
6, 288480, Note_on_c, 0, 43, 37
6, 289200, Note_on_c, 0, 43, 0
6, 289200, Note_on_c, 0, 45, 42
6, 289920, Note_on_c, 0, 45, 0
6, 289920, Note_on_c, 0, 47, 37
6, 290076, Note_on_c, 0, 47, 0
6, 290160, Note_on_c, 0, 35, 37
6, 290160, Note_on_c, 0, 50, 37
6, 290400, Note_on_c, 0, 50, 0
6, 290400, Note_on_c, 0, 35, 0
6, 290400, Note_on_c, 0, 52, 38
6, 290556, Note_on_c, 0, 52, 0
6, 290880, Note_on_c, 0, 50, 39
6, 290880, Note_on_c, 0, 35, 39
6, 291120, Note_on_c, 0, 35, 0
6, 291120, Note_on_c, 0, 50, 0
6, 291120, Note_on_c, 0, 52, 39
6, 291276, Note_on_c, 0, 52, 0
6, 291580, Note_on_c, 0, 33, 40
6, 291600, Note_on_c, 0, 50, 40
6, 291840, Note_on_c, 0, 50, 0
6, 291840, Note_on_c, 0, 52, 40
6, 291843, Note_on_c, 0, 33, 0
6, 291996, Note_on_c, 0, 52, 0
6, 292300, Note_on_c, 0, 32, 41
6, 292320, Note_on_c, 0, 50, 41
6, 292560, Note_on_c, 0, 50, 0
6, 292560, Note_on_c, 0, 32, 0
6, 292560, Note_on_c, 0, 52, 42
6, 292716, Note_on_c, 0, 52, 0
6, 292800, Note_on_c, 0, 52, 40
6, 292800, Note_on_c, 0, 43, 40
6, 293040, Note_on_c, 0, 52, 0
6, 293040, Note_on_c, 0, 49, 45
6, 293280, Note_on_c, 0, 49, 0
6, 293280, Note_on_c, 0, 43, 0
6, 293280, Note_on_c, 0, 43, 49
6, 293280, Note_on_c, 0, 45, 49
6, 293520, Note_on_c, 0, 45, 0
6, 293520, Note_on_c, 0, 43, 0
6, 293520, Note_on_c, 0, 52, 54
6, 293520, Note_on_c, 0, 42, 54
6, 293760, Note_on_c, 0, 52, 0
6, 293760, Note_on_c, 0, 50, 58
6, 293955, Note_on_c, 0, 42, 0
6, 293980, Note_on_c, 0, 42, 63
6, 294000, Note_on_c, 0, 50, 0
6, 294000, Note_on_c, 0, 60, 63
6, 294000, Note_on_c, 0, 48, 63
6, 294220, Note_on_c, 0, 43, 68
6, 294221, Note_on_c, 0, 42, 0
6, 294240, Note_on_c, 0, 60, 0
6, 294240, Note_on_c, 0, 48, 0
6, 294240, Note_on_c, 0, 59, 68
6, 294240, Note_on_c, 0, 47, 68
6, 294480, Note_on_c, 0, 47, 0
6, 294480, Note_on_c, 0, 59, 0
6, 294480, Note_on_c, 0, 63, 68
6, 294480, Note_on_c, 0, 51, 68
6, 294720, Note_on_c, 0, 51, 0
6, 294720, Note_on_c, 0, 63, 0
6, 294720, Note_on_c, 0, 64, 67
6, 294720, Note_on_c, 0, 52, 67
6, 294920, Note_on_c, 0, 33, 66
6, 294940, Note_on_c, 0, 43, 0
6, 294940, Note_on_c, 0, 45, 66
6, 294960, Note_on_c, 0, 64, 0
6, 294960, Note_on_c, 0, 52, 0
6, 294960, Note_on_c, 0, 66, 66
6, 294960, Note_on_c, 0, 54, 66
6, 295440, Note_on_c, 0, 54, 0
6, 295440, Note_on_c, 0, 66, 0
6, 295440, Note_on_c, 0, 67, 65
6, 295440, Note_on_c, 0, 55, 65
6, 295676, Note_on_c, 0, 33, 0
6, 295676, Note_on_c, 0, 45, 0
6, 295680, Note_on_c, 0, 45, 64
6, 295920, Note_on_c, 0, 67, 0
6, 295920, Note_on_c, 0, 55, 0
6, 295920, Note_on_c, 0, 66, 63
6, 295920, Note_on_c, 0, 54, 63
6, 296360, Note_on_c, 0, 33, 62
6, 296377, Note_on_c, 0, 45, 0
6, 296380, Note_on_c, 0, 45, 62
6, 296400, Note_on_c, 0, 66, 0
6, 296400, Note_on_c, 0, 54, 0
6, 296400, Note_on_c, 0, 64, 62
6, 296400, Note_on_c, 0, 52, 62
6, 296880, Note_on_c, 0, 52, 0
6, 296880, Note_on_c, 0, 64, 0
6, 296880, Note_on_c, 0, 62, 60
6, 296880, Note_on_c, 0, 50, 60
6, 297112, Note_on_c, 0, 33, 0
6, 297112, Note_on_c, 0, 45, 0
6, 297120, Note_on_c, 0, 45, 59
6, 297120, Note_on_c, 0, 33, 59
6, 297360, Note_on_c, 0, 62, 0
6, 297360, Note_on_c, 0, 50, 0
6, 297360, Note_on_c, 0, 61, 59
6, 297360, Note_on_c, 0, 49, 59
6, 297600, Note_on_c, 0, 49, 0
6, 297600, Note_on_c, 0, 33, 0
6, 297600, Note_on_c, 0, 45, 0
6, 297600, Note_on_c, 0, 61, 0
6, 297600, Note_on_c, 0, 45, 58
6, 297600, Note_on_c, 0, 47, 58
6, 297600, Note_on_c, 0, 59, 58
6, 297840, Note_on_c, 0, 59, 0
6, 297840, Note_on_c, 0, 47, 0
6, 297840, Note_on_c, 0, 45, 0
6, 297840, Note_on_c, 0, 45, 57
6, 297840, Note_on_c, 0, 57, 57
6, 298320, Note_on_c, 0, 57, 0
6, 298320, Note_on_c, 0, 45, 0
6, 298320, Note_on_c, 0, 45, 56
6, 298320, Note_on_c, 0, 33, 56
6, 298560, Note_on_c, 0, 33, 0
6, 298560, Note_on_c, 0, 45, 0
6, 298560, Note_on_c, 0, 50, 55
6, 299040, Note_on_c, 0, 50, 0
6, 299040, Note_on_c, 0, 50, 53
6, 299160, Note_on_c, 0, 50, 0
6, 299160, Note_on_c, 0, 49, 53
6, 299280, Note_on_c, 0, 49, 0
6, 299280, Note_on_c, 0, 50, 52
6, 299760, Note_on_c, 0, 50, 0
6, 299760, Note_on_c, 0, 50, 51
6, 299880, Note_on_c, 0, 50, 0
6, 299880, Note_on_c, 0, 49, 50
6, 300000, Note_on_c, 0, 49, 0
6, 300000, Note_on_c, 0, 50, 50
6, 300480, Note_on_c, 0, 50, 0
6, 300480, Note_on_c, 0, 50, 49
6, 300600, Note_on_c, 0, 50, 0
6, 300600, Note_on_c, 0, 49, 48
6, 300720, Note_on_c, 0, 49, 0
6, 300720, Note_on_c, 0, 50, 48
6, 301200, Note_on_c, 0, 50, 0
6, 301200, Note_on_c, 0, 50, 46
6, 301320, Note_on_c, 0, 50, 0
6, 301320, Note_on_c, 0, 49, 46
6, 301440, Note_on_c, 0, 49, 0
6, 301440, Note_on_c, 0, 50, 45
6, 301920, Note_on_c, 0, 50, 0
6, 301920, Note_on_c, 0, 50, 44
6, 302040, Note_on_c, 0, 50, 0
6, 302040, Note_on_c, 0, 49, 43
6, 302160, Note_on_c, 0, 49, 0
6, 302160, Note_on_c, 0, 50, 43
6, 302640, Note_on_c, 0, 50, 0
6, 302640, Note_on_c, 0, 50, 42
6, 302760, Note_on_c, 0, 50, 0
6, 302760, Note_on_c, 0, 49, 41
6, 302880, Note_on_c, 0, 49, 0
6, 302880, Note_on_c, 0, 50, 41
6, 303360, Note_on_c, 0, 50, 0
6, 303360, Note_on_c, 0, 50, 39
6, 303480, Note_on_c, 0, 50, 0
6, 303480, Note_on_c, 0, 49, 39
6, 303600, Note_on_c, 0, 49, 0
6, 303600, Note_on_c, 0, 50, 38
6, 304080, Note_on_c, 0, 50, 0
6, 304080, Note_on_c, 0, 50, 37
6, 304200, Note_on_c, 0, 50, 0
6, 304200, Note_on_c, 0, 49, 37
6, 304320, Note_on_c, 0, 49, 0
6, 304320, Note_on_c, 0, 50, 36
6, 304800, Note_on_c, 0, 50, 0
6, 304800, Note_on_c, 0, 50, 35
6, 304920, Note_on_c, 0, 50, 0
6, 304920, Note_on_c, 0, 49, 34
6, 305040, Note_on_c, 0, 49, 0
6, 305040, Note_on_c, 0, 50, 34
6, 305520, Note_on_c, 0, 50, 0
6, 305520, Note_on_c, 0, 50, 32
6, 305640, Note_on_c, 0, 50, 0
6, 305640, Note_on_c, 0, 49, 32
6, 305760, Note_on_c, 0, 49, 0
6, 305760, Note_on_c, 0, 50, 31
6, 306240, Note_on_c, 0, 50, 0
6, 306240, Note_on_c, 0, 50, 30
6, 306360, Control_c, 0, 64, 127
6, 306963, Note_on_c, 0, 50, 0
6, 307200, Control_c, 0, 64, 0
6, 307200, End_track
0, 0, End_of_file
