0, 0, Header, 1, 6, 480
1, 0, Start_track
1, 0, Title_t, "Untitled"
1, 0, Copyright_t, "\012__________________________________________________________\012Kunst der Fuge comment: this is the Contributor's property.\012Can *not* be used for commercial purposes without authorization!\012Copyright by Contributor - Kunst der Fuge, © 2002-05\012http://www.kunstderfuge.com/thanks.htm -> Contributors' list\012http://www.kunstderfuge.com/notes.htm -> Terms & conditions"
1, 0, Time_signature, 7, 2, 24, 8
1, 0, Key_signature, 0, "major"
1, 0, Tempo, 240000
1, 0, Marker_t, "Brahms"
1, 3360, Tempo, 526316
1, 3360, Marker_t, "Variation     Op.21-2"
1, 4560, Tempo, 526316
1, 4800, Tempo, 526316
1, 6200, Tempo, 535714
1, 6240, Tempo, 571429
1, 6720, Tempo, 526316
1, 6720, Marker_t, "May   1999"
1, 7920, Tempo, 526316
1, 8160, Tempo, 526316
1, 9560, Tempo, 535714
1, 9600, Tempo, 588235
1, 10080, Tempo, 526316
1, 10080, Marker_t, "Bunji Hisamori"
1, 11280, Tempo, 526316
1, 11520, Tempo, 526316
1, 12920, Tempo, 535714
1, 12960, Tempo, 582524
1, 13440, Tempo, 535714
1, 13440, Marker_t, "Jyly 1999, Rev.1"
1, 14390, Tempo, 540541
1, 14880, Tempo, 560748
1, 15360, Tempo, 571429
1, 15600, Tempo, 659341
1, 15840, Tempo, 769231
1, 16320, Tempo, 2727273
1, 16800, Tempo, 517241
1, 16800, Marker_t, "1"
1, 18120, Tempo, 526316
1, 18240, Tempo, 517241
1, 19920, Tempo, 526316
1, 20160, Tempo, 517241
1, 21720, Tempo, 526316
1, 21840, Tempo, 517241
1, 23280, Tempo, 526316
1, 23520, Tempo, 517241
1, 24840, Tempo, 526316
1, 24960, Tempo, 517241
1, 26640, Tempo, 526316
1, 26880, Tempo, 517241
1, 28200, Tempo, 526316
1, 29160, Tempo, 535714
1, 29280, Tempo, 540541
1, 29700, Tempo, 550459
1, 29760, Tempo, 2400000
1, 30240, Tempo, 508475
1, 30240, Marker_t, "2"
1, 31560, Tempo, 517241
1, 31680, Tempo, 508475
1, 33360, Tempo, 517241
1, 33600, Tempo, 508475
1, 34920, Tempo, 517241
1, 35040, Tempo, 508475
1, 36720, Tempo, 517241
1, 36960, Tempo, 508475
1, 38280, Tempo, 517241
1, 38400, Tempo, 508475
1, 40080, Tempo, 517241
1, 40320, Tempo, 508475
1, 41640, Tempo, 517241
1, 42360, Tempo, 526316
1, 42600, Tempo, 535714
1, 42720, Tempo, 540541
1, 42960, Tempo, 652174
1, 43200, Tempo, 2500000
1, 43680, Tempo, 495868
1, 43680, Marker_t, "3"
1, 45000, Tempo, 508475
1, 45120, Tempo, 495868
1, 45960, Tempo, 508475
1, 46080, Tempo, 495868
1, 46920, Tempo, 526316
1, 47040, Tempo, 495868
1, 48360, Tempo, 508475
1, 48480, Tempo, 495868
1, 49320, Tempo, 508475
1, 49440, Tempo, 495868
1, 50280, Tempo, 535714
1, 50400, Tempo, 495868
1, 51720, Tempo, 508475
1, 51840, Tempo, 495868
1, 52680, Tempo, 508475
1, 52800, Tempo, 495868
1, 53640, Tempo, 526316
1, 53760, Tempo, 495868
1, 55080, Tempo, 508475
1, 55200, Tempo, 495868
1, 56040, Tempo, 508475
1, 56160, Tempo, 500000
1, 56400, Tempo, 508475
1, 56520, Tempo, 540541
1, 56640, Tempo, 2068966
1, 57120, Tempo, 480000
1, 57120, Marker_t, "4"
1, 58500, Tempo, 487805
1, 58560, Tempo, 480000
1, 60240, Tempo, 487805
1, 60480, Tempo, 480000
1, 61860, Tempo, 487805
1, 61920, Tempo, 480000
1, 63600, Tempo, 487805
1, 63840, Tempo, 480000
1, 65220, Tempo, 487805
1, 65280, Tempo, 480000
1, 66960, Tempo, 487805
1, 67200, Tempo, 480000
1, 68520, Tempo, 487805
1, 69015, Tempo, 495868
1, 69360, Tempo, 508475
1, 69600, Tempo, 517241
1, 69840, Tempo, 560748
1, 70080, Tempo, 2400000
1, 70560, Tempo, 625000
1, 70560, Marker_t, "5"
1, 70620, Tempo, 612245
1, 71880, Tempo, 625000
1, 72000, Tempo, 625000
1, 72060, Tempo, 612245
1, 72840, Tempo, 625000
1, 72960, Tempo, 625000
1, 73020, Tempo, 612245
1, 73680, Tempo, 625000
1, 73800, Tempo, 659341
1, 73920, Tempo, 625000
1, 73980, Tempo, 612245
1, 75240, Tempo, 625000
1, 75360, Tempo, 625000
1, 75420, Tempo, 612245
1, 76200, Tempo, 625000
1, 76320, Tempo, 625000
1, 76380, Tempo, 612245
1, 77040, Tempo, 625000
1, 77160, Tempo, 659341
1, 77280, Tempo, 625000
1, 77340, Tempo, 612245
1, 78600, Tempo, 625000
1, 78720, Tempo, 625000
1, 78780, Tempo, 612245
1, 79560, Tempo, 625000
1, 79680, Tempo, 612245
1, 80400, Tempo, 625000
1, 80520, Tempo, 659341
1, 80640, Tempo, 625000
1, 80700, Tempo, 612245
1, 81960, Tempo, 625000
1, 82080, Tempo, 638298
1, 82140, Tempo, 625000
1, 82920, Tempo, 638298
1, 83400, Tempo, 652174
1, 83520, Tempo, 659341
1, 83690, Tempo, 731707
1, 83840, Tempo, 2727273
1, 84000, Tempo, 652174
1, 84000, Marker_t, "6"
1, 84060, Tempo, 638298
1, 87120, Tempo, 652174
1, 87240, Tempo, 689655
1, 87360, Tempo, 652174
1, 87420, Tempo, 638298
1, 90480, Tempo, 652174
1, 90600, Tempo, 689655
1, 90720, Tempo, 652174
1, 90780, Tempo, 638298
1, 93840, Tempo, 652174
1, 93960, Tempo, 689655
1, 94080, Tempo, 652174
1, 94140, Tempo, 638298
1, 96420, Tempo, 652174
1, 96480, Tempo, 659341
1, 96640, Tempo, 674157
1, 96800, Tempo, 810811
1, 97440, Tempo, 368098
1, 100320, Tempo, 500000
1, 100800, Tempo, 845070
1, 100800, Marker_t, "7"
1, 102120, Tempo, 869565
1, 102240, Tempo, 845070
1, 103920, Tempo, 895522
1, 104160, Tempo, 845070
1, 105480, Tempo, 869565
1, 105600, Tempo, 845070
1, 107280, Tempo, 895522
1, 107520, Tempo, 845070
1, 108840, Tempo, 869565
1, 108960, Tempo, 845070
1, 110640, Tempo, 895522
1, 112200, Tempo, 869565
1, 112920, Tempo, 895522
1, 113280, Tempo, 923077
1, 113520, Tempo, 1176471
1, 113760, Tempo, 1132075
1, 114000, Marker_t, "8"
1, 114090, Tempo, 2727273
1, 114200, Tempo, 821918
1, 114240, Tempo, 810811
1, 115560, Tempo, 845070
1, 115680, Tempo, 810811
1, 117360, Tempo, 869565
1, 117480, Tempo, 845070
1, 117600, Tempo, 810811
1, 118920, Tempo, 845070
1, 119040, Tempo, 810811
1, 120720, Tempo, 869565
1, 120840, Tempo, 869565
1, 120960, Tempo, 810811
1, 122280, Tempo, 845070
1, 122400, Tempo, 810811
1, 124080, Tempo, 869565
1, 124200, Tempo, 869565
1, 124320, Tempo, 810811
1, 125640, Tempo, 845070
1, 125760, Tempo, 810811
1, 126360, Tempo, 821918
1, 126840, Tempo, 845070
1, 127080, Tempo, 869565
1, 127290, Tempo, 952381
1, 127440, Tempo, 2727273
1, 127680, Time_signature, 6, 3, 12, 8
1, 127680, Tempo, 769231
1, 127680, Marker_t, "9"
1, 129000, Tempo, 789474
1, 129120, Tempo, 769231
1, 130260, Tempo, 789474
1, 130320, Tempo, 810811
1, 130560, Tempo, 769231
1, 131880, Tempo, 789474
1, 132000, Tempo, 769231
1, 133140, Tempo, 789474
1, 133200, Tempo, 821918
1, 133440, Tempo, 769231
1, 134760, Tempo, 789474
1, 134880, Tempo, 769231
1, 136020, Tempo, 789474
1, 136080, Tempo, 810811
1, 136320, Tempo, 769231
1, 137640, Tempo, 789474
1, 137760, Tempo, 769231
1, 138600, Tempo, 789474
1, 138800, Tempo, 821918
1, 138960, Tempo, 2500000
1, 139200, Time_signature, 2, 2, 24, 8
1, 139200, Tempo, 750000
1, 139200, Marker_t, "10"
1, 140040, Tempo, 769231
1, 140160, Tempo, 750000
1, 141000, Tempo, 789474
1, 141120, Tempo, 750000
1, 141960, Tempo, 769231
1, 142080, Tempo, 750000
1, 142920, Tempo, 821918
1, 143040, Tempo, 750000
1, 143880, Tempo, 769231
1, 144000, Tempo, 750000
1, 144840, Tempo, 789474
1, 144960, Tempo, 750000
1, 145800, Tempo, 769231
1, 145920, Tempo, 750000
1, 146480, Tempo, 769231
1, 146640, Tempo, 810811
1, 146760, Tempo, 1071429
1, 146880, Tempo, 722892
1, 146880, Marker_t, "11"
1, 147720, Tempo, 750000
1, 147840, Tempo, 722892
1, 148680, Tempo, 769231
1, 148800, Tempo, 722892
1, 149640, Tempo, 750000
1, 149760, Tempo, 722892
1, 150600, Tempo, 810811
1, 150720, Tempo, 722892
1, 151560, Tempo, 750000
1, 151680, Tempo, 722892
1, 152520, Tempo, 769231
1, 152640, Tempo, 722892
1, 153480, Tempo, 750000
1, 153600, Tempo, 722892
1, 154260, Tempo, 731707
1, 154380, Tempo, 769231
1, 154440, Tempo, 1363636
1, 154560, Tempo, 705882
1, 154560, Marker_t, "12"
1, 155480, Tempo, 722892
1, 155520, Tempo, 705882
1, 156420, Tempo, 750000
1, 156480, Tempo, 705882
1, 156920, Tempo, 722892
1, 156960, Tempo, 705882
1, 157880, Tempo, 722892
1, 157920, Tempo, 705882
1, 158340, Tempo, 769231
1, 158400, Tempo, 705882
1, 159320, Tempo, 722892
1, 159360, Tempo, 705882
1, 160260, Tempo, 750000
1, 160320, Tempo, 705882
1, 161240, Tempo, 722892
1, 161280, Tempo, 705882
1, 161680, Tempo, 722892
1, 161840, Tempo, 731707
1, 162000, Tempo, 845070
1, 162135, Tempo, 1666667
1, 162240, Tempo, 674157
1, 162240, Marker_t, "13"
1, 163160, Tempo, 689655
1, 163200, Tempo, 674157
1, 164100, Tempo, 705882
1, 164160, Tempo, 674157
1, 165080, Tempo, 689655
1, 165120, Tempo, 674157
1, 166020, Tempo, 731707
1, 166080, Tempo, 674157
1, 167000, Tempo, 689655
1, 167040, Tempo, 674157
1, 167940, Tempo, 705882
1, 168000, Tempo, 674157
1, 168920, Tempo, 689655
1, 168960, Tempo, 674157
1, 169860, Tempo, 705882
1, 169920, Tempo, 674157
1, 170760, Tempo, 689655
1, 170840, Tempo, 722892
1, 170880, Tempo, 674157
1, 171840, Tempo, 705882
1, 172720, Tempo, 722892
1, 172740, Tempo, 722892
1, 172800, Tempo, 612245
1, 174660, Tempo, 625000
1, 174720, Tempo, 612245
1, 176580, Tempo, 638298
1, 176640, Tempo, 612245
1, 178500, Tempo, 625000
1, 178560, Tempo, 612245
1, 180360, Tempo, 625000
1, 180480, Tempo, 600000
1, 182280, Tempo, 612245
1, 182400, Tempo, 600000
1, 184200, Tempo, 625000
1, 184320, Tempo, 600000
1, 186120, Tempo, 612245
1, 186240, Tempo, 600000
1, 188040, Tempo, 625000
1, 188160, Tempo, 600000
1, 189960, Tempo, 612245
1, 190080, Tempo, 600000
1, 191880, Tempo, 625000
1, 192000, Tempo, 600000
1, 193800, Tempo, 612245
1, 193920, Tempo, 600000
1, 195720, Tempo, 612245
1, 195840, Tempo, 600000
1, 196680, Tempo, 612245
1, 196800, Tempo, 600000
1, 197640, Tempo, 612245
1, 197760, Tempo, 600000
1, 198660, Tempo, 600000
1, 198720, Tempo, 600000
1, 199560, Tempo, 612245
1, 199680, Tempo, 600000
1, 200520, Tempo, 612245
1, 200640, Tempo, 600000
1, 201480, Tempo, 612245
1, 201540, Tempo, 659341
1, 201600, Tempo, 588235
1, 201720, Tempo, 582524
1, 203400, Tempo, 588235
1, 203520, Tempo, 582524
1, 205320, Tempo, 600000
1, 205440, Tempo, 582524
1, 207240, Tempo, 588235
1, 207360, Tempo, 582524
1, 209160, Tempo, 600000
1, 209280, Tempo, 582524
1, 210600, Tempo, 588235
1, 211760, Tempo, 600000
1, 211840, Tempo, 612245
1, 212000, Tempo, 1111111
1, 212640, Tempo, 571429
1, 214920, Tempo, 582524
1, 215040, Tempo, 571429
1, 215880, Tempo, 582524
1, 216000, Tempo, 571429
1, 216840, Tempo, 582524
1, 216960, Tempo, 571429
1, 219720, Tempo, 582524
1, 219840, Tempo, 571429
1, 220680, Tempo, 582524
1, 220800, Tempo, 571429
1, 221640, Tempo, 582524
1, 221760, Tempo, 571429
1, 224520, Tempo, 582524
1, 224640, Tempo, 571429
1, 226440, Tempo, 582524
1, 226560, Tempo, 571429
1, 229320, Tempo, 582524
1, 229440, Tempo, 571429
1, 230280, Tempo, 582524
1, 230760, Tempo, 588235
1, 230880, Tempo, 600000
1, 231120, Tempo, 923077
1, 231360, Tempo, 560748
1, 232200, Tempo, 571429
1, 232320, Tempo, 560748
1, 233160, Tempo, 571429
1, 233280, Tempo, 560748
1, 234120, Tempo, 571429
1, 234240, Tempo, 560748
1, 235080, Tempo, 571429
1, 235200, Tempo, 560748
1, 236040, Tempo, 571429
1, 236160, Tempo, 560748
1, 237000, Tempo, 571429
1, 237120, Tempo, 560748
1, 237960, Tempo, 571429
1, 238080, Tempo, 560748
1, 238920, Tempo, 571429
1, 239040, Tempo, 560748
1, 239880, Tempo, 571429
1, 240000, Tempo, 560748
1, 240840, Tempo, 571429
1, 240960, Tempo, 560748
1, 241800, Tempo, 571429
1, 241920, Tempo, 582524
1, 242400, Tempo, 550459
1, 242880, Tempo, 550459
1, 245640, Tempo, 560748
1, 245760, Tempo, 550459
1, 246600, Tempo, 560748
1, 246720, Tempo, 550459
1, 247560, Tempo, 560748
1, 247680, Tempo, 550459
1, 250440, Tempo, 560748
1, 250560, Tempo, 550459
1, 251400, Tempo, 560748
1, 251520, Tempo, 550459
1, 252360, Tempo, 560748
1, 252480, Tempo, 550459
1, 254280, Tempo, 560748
1, 254400, Tempo, 550459
1, 256200, Tempo, 560748
1, 256320, Tempo, 550459
1, 258120, Tempo, 560748
1, 258240, Tempo, 550459
1, 260040, Tempo, 560748
1, 260160, Tempo, 550459
1, 261960, Tempo, 560748
1, 262080, Tempo, 550459
1, 268680, Tempo, 560748
1, 268800, Tempo, 550459
1, 269640, Tempo, 560748
1, 269700, Tempo, 652174
1, 269760, Tempo, 550459
1, 271560, Tempo, 560748
1, 271680, Tempo, 550459
1, 273480, Tempo, 560748
1, 273600, Tempo, 550459
1, 275400, Tempo, 560748
1, 275520, Tempo, 550459
1, 277320, Tempo, 560748
1, 277440, Tempo, 550459
1, 279240, Tempo, 560748
1, 279360, Tempo, 550459
1, 281160, Tempo, 560748
1, 281280, Tempo, 550459
1, 283080, Tempo, 560748
1, 283200, Tempo, 550459
1, 285000, Tempo, 560748
1, 285120, Tempo, 550459
1, 286920, Tempo, 560748
1, 288600, Tempo, 571429
1, 288720, Tempo, 588235
1, 288960, Time_signature, 7, 2, 24, 8
1, 288960, Tempo, 526316
1, 290160, Tempo, 535714
1, 290400, Tempo, 526316
1, 291360, Tempo, 535714
1, 291600, Tempo, 526316
1, 291975, Tempo, 571429
1, 292320, Tempo, 526316
1, 293520, Tempo, 535714
1, 293760, Tempo, 526316
1, 294600, Tempo, 535714
1, 295305, Tempo, 582524
1, 295680, Tempo, 526316
1, 296880, Tempo, 535714
1, 297120, Tempo, 526316
1, 298440, Tempo, 535714
1, 298800, Tempo, 550459
1, 299460, Tempo, 560748
1, 300000, Tempo, 571429
1, 300480, Tempo, 582524
1, 300960, Tempo, 600000
1, 301200, Tempo, 659341
1, 301440, Tempo, 845070
1, 301920, Tempo, 1276596
1, 302400, Tempo, 2400000
1, 302400, End_track
2, 0, Start_track
2, 0, Title_t, "Unnamed Track"
2, 0, Control_c, 0, 0, 0
2, 0, Control_c, 0, 7, 115
2, 0, Control_c, 0, 10, 95
2, 0, Control_c, 0, 91, 100
2, 0, Control_c, 0, 93, 30
2, 0, Control_c, 0, 64, 0
2, 0, Pitch_bend_c, 0, 8192
2, 0, Control_c, 0, 1, 0
2, 1, Control_c, 0, 32, 0
2, 1, Program_c, 0, 0
2, 3360, Note_on_c, 0, 74, 82
2, 3552, Note_on_c, 0, 74, 0
2, 3600, Note_on_c, 0, 78, 83
2, 3792, Note_on_c, 0, 78, 0
2, 3840, Note_on_c, 0, 81, 84
2, 4320, Note_on_c, 0, 81, 0
2, 4320, Note_on_c, 0, 81, 86
2, 4800, Note_on_c, 0, 81, 0
2, 4800, Note_on_c, 0, 71, 88
2, 4800, Note_on_c, 0, 83, 88
2, 5280, Note_on_c, 0, 83, 0
2, 5280, Note_on_c, 0, 71, 0
2, 5280, Note_on_c, 0, 71, 86
2, 5280, Note_on_c, 0, 83, 86
2, 5760, Note_on_c, 0, 83, 0
2, 5760, Note_on_c, 0, 71, 0
2, 5760, Note_on_c, 0, 71, 83
2, 5760, Note_on_c, 0, 83, 83
2, 6240, Note_on_c, 0, 83, 0
2, 6240, Note_on_c, 0, 71, 0
2, 6240, Note_on_c, 0, 81, 80
2, 6240, Note_on_c, 0, 69, 80
2, 6720, Note_on_c, 0, 69, 0
2, 6720, Note_on_c, 0, 81, 0
2, 6720, Note_on_c, 0, 76, 76
2, 6912, Note_on_c, 0, 76, 0
2, 6960, Note_on_c, 0, 78, 77
2, 7152, Note_on_c, 0, 78, 0
2, 7200, Note_on_c, 0, 79, 78
2, 7680, Note_on_c, 0, 79, 0
2, 7680, Note_on_c, 0, 80, 81
2, 8160, Note_on_c, 0, 80, 0
2, 8160, Note_on_c, 0, 69, 84
2, 8160, Note_on_c, 0, 81, 84
2, 8640, Note_on_c, 0, 81, 0
2, 8640, Note_on_c, 0, 69, 0
2, 8640, Note_on_c, 0, 69, 81
2, 8640, Note_on_c, 0, 81, 81
2, 9120, Note_on_c, 0, 81, 0
2, 9120, Note_on_c, 0, 69, 0
2, 9120, Note_on_c, 0, 67, 79
2, 9120, Note_on_c, 0, 79, 79
2, 9600, Note_on_c, 0, 79, 0
2, 9600, Note_on_c, 0, 67, 0
2, 9600, Note_on_c, 0, 66, 77
2, 9600, Note_on_c, 0, 78, 77
2, 10080, Note_on_c, 0, 78, 0
2, 10080, Note_on_c, 0, 66, 0
2, 10080, Note_on_c, 0, 81, 81
2, 10272, Note_on_c, 0, 81, 0
2, 10320, Note_on_c, 0, 81, 83
2, 10512, Note_on_c, 0, 81, 0
2, 10560, Note_on_c, 0, 74, 86
2, 11280, Note_on_c, 0, 74, 0
2, 11280, Note_on_c, 0, 69, 83
2, 11472, Note_on_c, 0, 69, 0
2, 11520, Note_on_c, 0, 62, 82
2, 11520, Note_on_c, 0, 74, 82
2, 12000, Note_on_c, 0, 74, 0
2, 12000, Note_on_c, 0, 62, 0
2, 12000, Note_on_c, 0, 64, 80
2, 12000, Note_on_c, 0, 76, 80
2, 12480, Note_on_c, 0, 76, 0
2, 12480, Note_on_c, 0, 64, 0
2, 12480, Note_on_c, 0, 78, 79
2, 12480, Note_on_c, 0, 66, 79
2, 12960, Note_on_c, 0, 66, 0
2, 12960, Note_on_c, 0, 78, 0
2, 12960, Note_on_c, 0, 67, 77
2, 12960, Note_on_c, 0, 79, 77
2, 13440, Note_on_c, 0, 79, 0
2, 13440, Note_on_c, 0, 67, 0
2, 13440, Note_on_c, 0, 81, 77
2, 13632, Note_on_c, 0, 81, 0
2, 13680, Note_on_c, 0, 81, 78
2, 13872, Note_on_c, 0, 81, 0
2, 13920, Note_on_c, 0, 74, 82
2, 14640, Note_on_c, 0, 74, 0
2, 14640, Note_on_c, 0, 69, 79
2, 14832, Note_on_c, 0, 69, 0
2, 14880, Note_on_c, 0, 78, 79
2, 15360, Note_on_c, 0, 78, 0
2, 15360, Note_on_c, 0, 76, 77
2, 15552, Note_on_c, 0, 76, 0
2, 15600, Note_on_c, 0, 78, 76
2, 15792, Note_on_c, 0, 78, 0
2, 15840, Note_on_c, 0, 76, 75
2, 16320, Note_on_c, 0, 76, 0
2, 16320, Note_on_c, 0, 74, 74
2, 16680, Note_on_c, 0, 74, 0
2, 16800, Note_on_c, 0, 81, 93
2, 16800, Note_on_c, 0, 69, 93
2, 17408, Note_on_c, 0, 69, 0
2, 17408, Note_on_c, 0, 81, 0
2, 17440, Note_on_c, 0, 79, 91
2, 17440, Note_on_c, 0, 70, 91
2, 17568, Note_on_c, 0, 70, 0
2, 17568, Note_on_c, 0, 79, 0
2, 17600, Note_on_c, 0, 77, 92
2, 17600, Note_on_c, 0, 69, 92
2, 17728, Note_on_c, 0, 69, 0
2, 17728, Note_on_c, 0, 77, 0
2, 17760, Note_on_c, 0, 76, 93
2, 17760, Note_on_c, 0, 67, 93
2, 17920, Note_on_c, 0, 67, 0
2, 17920, Note_on_c, 0, 76, 0
2, 17920, Note_on_c, 0, 79, 93
2, 17920, Note_on_c, 0, 70, 93
2, 18080, Note_on_c, 0, 70, 0
2, 18080, Note_on_c, 0, 79, 0
2, 18080, Note_on_c, 0, 77, 94
2, 18080, Note_on_c, 0, 69, 94
2, 18240, Note_on_c, 0, 69, 0
2, 18240, Note_on_c, 0, 77, 0
2, 18240, Note_on_c, 0, 76, 97
2, 18240, Note_on_c, 0, 67, 97
2, 18240, Note_on_c, 0, 73, 97
2, 18480, Note_on_c, 0, 73, 0
2, 18480, Note_on_c, 0, 67, 0
2, 18480, Note_on_c, 0, 76, 0
2, 18480, Note_on_c, 0, 74, 94
2, 18480, Note_on_c, 0, 65, 94
2, 19200, Note_on_c, 0, 65, 0
2, 19200, Note_on_c, 0, 74, 0
2, 19440, Note_on_c, 0, 67, 90
2, 19440, Note_on_c, 0, 76, 90
2, 19632, Note_on_c, 0, 76, 0
2, 19632, Note_on_c, 0, 67, 0
2, 19680, Note_on_c, 0, 65, 89
2, 19680, Note_on_c, 0, 77, 89
2, 19872, Note_on_c, 0, 77, 0
2, 19872, Note_on_c, 0, 65, 0
2, 19920, Note_on_c, 0, 69, 91
2, 19920, Note_on_c, 0, 81, 91
2, 20112, Note_on_c, 0, 81, 0
2, 20112, Note_on_c, 0, 69, 0
2, 20160, Note_on_c, 0, 72, 94
2, 20160, Note_on_c, 0, 84, 94
2, 20880, Note_on_c, 0, 84, 0
2, 20880, Note_on_c, 0, 72, 0
2, 20880, Note_on_c, 0, 67, 89
2, 20880, Note_on_c, 0, 79, 89
2, 21072, Note_on_c, 0, 79, 0
2, 21072, Note_on_c, 0, 67, 0
2, 21120, Note_on_c, 0, 65, 91
2, 21120, Note_on_c, 0, 77, 91
2, 21248, Note_on_c, 0, 77, 0
2, 21248, Note_on_c, 0, 65, 0
2, 21280, Note_on_c, 0, 67, 91
2, 21280, Note_on_c, 0, 79, 91
2, 21408, Note_on_c, 0, 79, 0
2, 21408, Note_on_c, 0, 67, 0
2, 21440, Note_on_c, 0, 65, 92
2, 21440, Note_on_c, 0, 77, 92
2, 21568, Note_on_c, 0, 77, 0
2, 21568, Note_on_c, 0, 65, 0
2, 21600, Note_on_c, 0, 65, 96
2, 21600, Note_on_c, 0, 77, 96
2, 21840, Note_on_c, 0, 77, 0
2, 21840, Note_on_c, 0, 65, 0
2, 21840, Note_on_c, 0, 64, 94
2, 21840, Note_on_c, 0, 76, 94
2, 22560, Note_on_c, 0, 76, 0
2, 22560, Note_on_c, 0, 64, 0
2, 23280, Note_on_c, 0, 74, 87
2, 23280, Note_on_c, 0, 62, 87
2, 23472, Note_on_c, 0, 62, 0
2, 23472, Note_on_c, 0, 74, 0
2, 23520, Note_on_c, 0, 73, 93
2, 23520, Note_on_c, 0, 85, 93
2, 24240, Note_on_c, 0, 85, 0
2, 24240, Note_on_c, 0, 73, 0
2, 24240, Note_on_c, 0, 74, 88
2, 24240, Note_on_c, 0, 86, 88
2, 24432, Note_on_c, 0, 86, 0
2, 24432, Note_on_c, 0, 74, 0
2, 24480, Note_on_c, 0, 69, 85
2, 24480, Note_on_c, 0, 81, 85
2, 24672, Note_on_c, 0, 81, 0
2, 24672, Note_on_c, 0, 69, 0
2, 24720, Note_on_c, 0, 62, 82
2, 24720, Note_on_c, 0, 74, 82
2, 24912, Note_on_c, 0, 74, 0
2, 24912, Note_on_c, 0, 62, 0
2, 24960, Note_on_c, 0, 82, 88
2, 24960, Note_on_c, 0, 70, 88
2, 25680, Note_on_c, 0, 70, 0
2, 25680, Note_on_c, 0, 82, 0
2, 25680, Note_on_c, 0, 82, 85
2, 25680, Note_on_c, 0, 70, 85
2, 25920, Note_on_c, 0, 70, 0
2, 25920, Note_on_c, 0, 82, 0
2, 25920, Note_on_c, 0, 70, 86
2, 25920, Note_on_c, 0, 82, 86
2, 26160, Note_on_c, 0, 82, 0
2, 26160, Note_on_c, 0, 70, 0
2, 26160, Note_on_c, 0, 81, 88
2, 26160, Note_on_c, 0, 69, 88
2, 26640, Note_on_c, 0, 69, 0
2, 26640, Note_on_c, 0, 81, 0
2, 26640, Note_on_c, 0, 79, 90
2, 26640, Note_on_c, 0, 67, 90
2, 26880, Note_on_c, 0, 67, 0
2, 26880, Note_on_c, 0, 79, 0
2, 26880, Note_on_c, 0, 76, 95
2, 26880, Note_on_c, 0, 88, 95
2, 27600, Note_on_c, 0, 88, 0
2, 27600, Note_on_c, 0, 76, 0
2, 27600, Note_on_c, 0, 77, 91
2, 27600, Note_on_c, 0, 89, 91
2, 27792, Note_on_c, 0, 89, 0
2, 27792, Note_on_c, 0, 77, 0
2, 27840, Note_on_c, 0, 74, 90
2, 27840, Note_on_c, 0, 86, 90
2, 28032, Note_on_c, 0, 86, 0
2, 28032, Note_on_c, 0, 74, 0
2, 28080, Note_on_c, 0, 57, 89
2, 28080, Note_on_c, 0, 69, 89
2, 28272, Note_on_c, 0, 69, 0
2, 28272, Note_on_c, 0, 57, 0
2, 28320, Note_on_c, 0, 69, 87
2, 28320, Note_on_c, 0, 81, 87
2, 29040, Note_on_c, 0, 81, 0
2, 29040, Note_on_c, 0, 69, 0
2, 29040, Note_on_c, 0, 62, 83
2, 29040, Note_on_c, 0, 74, 83
2, 29280, Note_on_c, 0, 74, 0
2, 29280, Note_on_c, 0, 62, 0
2, 29280, Note_on_c, 0, 61, 87
2, 29280, Note_on_c, 0, 73, 87
2, 29640, Note_on_c, 0, 73, 0
2, 29640, Note_on_c, 0, 61, 0
2, 29640, Note_on_c, 0, 74, 80
2, 29640, Note_on_c, 0, 62, 80
2, 29700, Note_on_c, 0, 62, 0
2, 29700, Note_on_c, 0, 74, 0
2, 29700, Note_on_c, 0, 76, 79
2, 29700, Note_on_c, 0, 64, 79
2, 29760, Note_on_c, 0, 64, 0
2, 29760, Note_on_c, 0, 76, 0
2, 29760, Note_on_c, 0, 62, 79
2, 29760, Note_on_c, 0, 74, 79
2, 30120, Note_on_c, 0, 74, 0
2, 30120, Note_on_c, 0, 62, 0
2, 30240, Note_on_c, 0, 62, 61
2, 30432, Note_on_c, 0, 62, 0
2, 30480, Note_on_c, 0, 64, 62
2, 30672, Note_on_c, 0, 64, 0
2, 30720, Note_on_c, 0, 65, 64
2, 31080, Note_on_c, 0, 65, 0
2, 31200, Note_on_c, 0, 65, 67
2, 31560, Note_on_c, 0, 65, 0
2, 31680, Note_on_c, 0, 65, 66
2, 32400, Note_on_c, 0, 65, 0
2, 32400, Note_on_c, 0, 65, 62
2, 32592, Note_on_c, 0, 65, 0
2, 32640, Note_on_c, 0, 67, 60
2, 33120, Note_on_c, 0, 67, 0
2, 33120, Note_on_c, 0, 69, 58
2, 33480, Note_on_c, 0, 69, 0
2, 33600, Note_on_c, 0, 65, 56
2, 33792, Note_on_c, 0, 65, 0
2, 33840, Note_on_c, 0, 67, 57
2, 34032, Note_on_c, 0, 67, 0
2, 34080, Note_on_c, 0, 69, 58
2, 34440, Note_on_c, 0, 69, 0
2, 34560, Note_on_c, 0, 70, 61
2, 34920, Note_on_c, 0, 70, 0
2, 35040, Note_on_c, 0, 72, 65
2, 35760, Note_on_c, 0, 72, 0
2, 35760, Note_on_c, 0, 70, 61
2, 35952, Note_on_c, 0, 70, 0
2, 36000, Note_on_c, 0, 70, 59
2, 36480, Note_on_c, 0, 70, 0
2, 36480, Note_on_c, 0, 69, 56
2, 36840, Note_on_c, 0, 69, 0
2, 36960, Note_on_c, 0, 69, 55
2, 37152, Note_on_c, 0, 69, 0
2, 37200, Note_on_c, 0, 69, 59
2, 37392, Note_on_c, 0, 69, 0
2, 37440, Note_on_c, 0, 62, 62
2, 38160, Note_on_c, 0, 62, 0
2, 38160, Note_on_c, 0, 64, 60
2, 38340, Note_on_c, 0, 65, 59
2, 38352, Note_on_c, 0, 64, 0
2, 38400, Note_on_c, 0, 65, 0
2, 38400, Note_on_c, 0, 69, 59
2, 39120, Note_on_c, 0, 69, 0
2, 39120, Note_on_c, 0, 67, 55
2, 39360, Note_on_c, 0, 67, 0
2, 39360, Note_on_c, 0, 65, 54
2, 39840, Note_on_c, 0, 65, 0
2, 39840, Note_on_c, 0, 64, 51
2, 40200, Note_on_c, 0, 64, 0
2, 40320, Note_on_c, 0, 72, 51
2, 40512, Note_on_c, 0, 72, 0
2, 40560, Note_on_c, 0, 72, 55
2, 40752, Note_on_c, 0, 72, 0
2, 40800, Note_on_c, 0, 65, 58
2, 41520, Note_on_c, 0, 65, 0
2, 41520, Note_on_c, 0, 67, 55
2, 41700, Note_on_c, 0, 69, 54
2, 41712, Note_on_c, 0, 67, 0
2, 41760, Note_on_c, 0, 69, 0
2, 41760, Note_on_c, 0, 72, 54
2, 42480, Note_on_c, 0, 72, 0
2, 42480, Note_on_c, 0, 73, 51
2, 42672, Note_on_c, 0, 73, 0
2, 42720, Note_on_c, 0, 73, 50
2, 43200, Note_on_c, 0, 73, 0
2, 43200, Note_on_c, 0, 74, 48
2, 43560, Note_on_c, 0, 74, 0
2, 43680, Note_on_c, 0, 79, 46
2, 43872, Note_on_c, 0, 79, 0
2, 43920, Note_on_c, 0, 77, 47
2, 44112, Note_on_c, 0, 77, 0
2, 44160, Note_on_c, 0, 77, 49
2, 44520, Note_on_c, 0, 77, 0
2, 44640, Note_on_c, 0, 76, 52
2, 45000, Note_on_c, 0, 76, 0
2, 45060, Note_on_c, 0, 76, 57
2, 45120, Note_on_c, 0, 76, 0
2, 45120, Note_on_c, 0, 74, 57
2, 45312, Note_on_c, 0, 74, 0
2, 45360, Note_on_c, 0, 72, 55
2, 45552, Note_on_c, 0, 72, 0
2, 45600, Note_on_c, 0, 70, 53
2, 45960, Note_on_c, 0, 70, 0
2, 46020, Note_on_c, 0, 70, 49
2, 46080, Note_on_c, 0, 70, 0
2, 46080, Note_on_c, 0, 69, 49
2, 46272, Note_on_c, 0, 69, 0
2, 46320, Note_on_c, 0, 67, 47
2, 46512, Note_on_c, 0, 67, 0
2, 46560, Note_on_c, 0, 65, 45
2, 46920, Note_on_c, 0, 65, 0
2, 47040, Note_on_c, 0, 79, 42
2, 47232, Note_on_c, 0, 79, 0
2, 47280, Note_on_c, 0, 77, 44
2, 47472, Note_on_c, 0, 77, 0
2, 47520, Note_on_c, 0, 76, 45
2, 47880, Note_on_c, 0, 76, 0
2, 48000, Note_on_c, 0, 74, 48
2, 48360, Note_on_c, 0, 74, 0
2, 48420, Note_on_c, 0, 74, 53
2, 48480, Note_on_c, 0, 74, 0
2, 48480, Note_on_c, 0, 72, 53
2, 48672, Note_on_c, 0, 72, 0
2, 48720, Note_on_c, 0, 70, 51
2, 48912, Note_on_c, 0, 70, 0
2, 48960, Note_on_c, 0, 69, 50
2, 49320, Note_on_c, 0, 69, 0
2, 49440, Note_on_c, 0, 70, 47
2, 49632, Note_on_c, 0, 70, 0
2, 49680, Note_on_c, 0, 69, 45
2, 49872, Note_on_c, 0, 69, 0
2, 49920, Note_on_c, 0, 67, 43
2, 50280, Note_on_c, 0, 67, 0
2, 50400, Note_on_c, 0, 64, 40
2, 50592, Note_on_c, 0, 64, 0
2, 50640, Note_on_c, 0, 65, 41
2, 50832, Note_on_c, 0, 65, 0
2, 50880, Note_on_c, 0, 67, 42
2, 51240, Note_on_c, 0, 67, 0
2, 51360, Note_on_c, 0, 68, 45
2, 51720, Note_on_c, 0, 68, 0
2, 51840, Note_on_c, 0, 69, 47
2, 52032, Note_on_c, 0, 69, 0
2, 52080, Note_on_c, 0, 70, 48
2, 52080, Note_on_c, 0, 69, 48
2, 52272, Note_on_c, 0, 69, 0
2, 52272, Note_on_c, 0, 70, 0
2, 52320, Note_on_c, 0, 73, 50
2, 52680, Note_on_c, 0, 73, 0
2, 52800, Note_on_c, 0, 74, 52
2, 52992, Note_on_c, 0, 74, 0
2, 53040, Note_on_c, 0, 76, 53
2, 53232, Note_on_c, 0, 76, 0
2, 53280, Note_on_c, 0, 77, 55
2, 53640, Note_on_c, 0, 77, 0
2, 53760, Note_on_c, 0, 65, 58
2, 53952, Note_on_c, 0, 65, 0
2, 54000, Note_on_c, 0, 67, 61
2, 54192, Note_on_c, 0, 67, 0
2, 54240, Note_on_c, 0, 68, 63
2, 54600, Note_on_c, 0, 68, 0
2, 54720, Note_on_c, 0, 74, 68
2, 55080, Note_on_c, 0, 74, 0
2, 55200, Note_on_c, 0, 75, 74
2, 55392, Note_on_c, 0, 75, 0
2, 55440, Note_on_c, 0, 77, 76
2, 55632, Note_on_c, 0, 77, 0
2, 55680, Note_on_c, 0, 79, 79
2, 56040, Note_on_c, 0, 79, 0
2, 56160, Note_on_c, 0, 81, 88
2, 56352, Note_on_c, 0, 81, 0
2, 56400, Note_on_c, 0, 85, 92
2, 56592, Note_on_c, 0, 85, 0
2, 56640, Note_on_c, 0, 86, 96
2, 57000, Note_on_c, 0, 86, 0
2, 57120, Note_on_c, 0, 62, 78
2, 57120, Note_on_c, 0, 74, 78
2, 57312, Note_on_c, 0, 74, 0
2, 57312, Note_on_c, 0, 62, 0
2, 57360, Note_on_c, 0, 65, 80
2, 57360, Note_on_c, 0, 77, 80
2, 57552, Note_on_c, 0, 77, 0
2, 57552, Note_on_c, 0, 65, 0
2, 57600, Note_on_c, 0, 69, 88
2, 57600, Note_on_c, 0, 81, 88
2, 57960, Note_on_c, 0, 81, 0
2, 57960, Note_on_c, 0, 69, 0
2, 58080, Note_on_c, 0, 77, 84
2, 58080, Note_on_c, 0, 65, 84
2, 58272, Note_on_c, 0, 65, 0
2, 58272, Note_on_c, 0, 77, 0
2, 58320, Note_on_c, 0, 81, 88
2, 58320, Note_on_c, 0, 69, 88
2, 58512, Note_on_c, 0, 69, 0
2, 58512, Note_on_c, 0, 81, 0
2, 58560, Note_on_c, 0, 74, 93
2, 58560, Note_on_c, 0, 86, 93
2, 58920, Note_on_c, 0, 86, 0
2, 58920, Note_on_c, 0, 74, 0
2, 59040, Note_on_c, 0, 74, 90
2, 59040, Note_on_c, 0, 86, 90
2, 59400, Note_on_c, 0, 86, 0
2, 59400, Note_on_c, 0, 74, 0
2, 59520, Note_on_c, 0, 72, 87
2, 59520, Note_on_c, 0, 84, 87
2, 59880, Note_on_c, 0, 84, 0
2, 59880, Note_on_c, 0, 72, 0
2, 60000, Note_on_c, 0, 65, 83
2, 60000, Note_on_c, 0, 77, 83
2, 60360, Note_on_c, 0, 77, 0
2, 60360, Note_on_c, 0, 65, 0
2, 60480, Note_on_c, 0, 76, 80
2, 60480, Note_on_c, 0, 64, 80
2, 60672, Note_on_c, 0, 64, 0
2, 60672, Note_on_c, 0, 76, 0
2, 60720, Note_on_c, 0, 77, 81
2, 60720, Note_on_c, 0, 65, 81
2, 60912, Note_on_c, 0, 65, 0
2, 60912, Note_on_c, 0, 77, 0
2, 60960, Note_on_c, 0, 67, 88
2, 60960, Note_on_c, 0, 79, 88
2, 61320, Note_on_c, 0, 79, 0
2, 61320, Note_on_c, 0, 67, 0
2, 61440, Note_on_c, 0, 67, 83
2, 61440, Note_on_c, 0, 79, 83
2, 61632, Note_on_c, 0, 79, 0
2, 61632, Note_on_c, 0, 67, 0
2, 61680, Note_on_c, 0, 68, 84
2, 61680, Note_on_c, 0, 80, 84
2, 61872, Note_on_c, 0, 80, 0
2, 61872, Note_on_c, 0, 68, 0
2, 61920, Note_on_c, 0, 69, 87
2, 61920, Note_on_c, 0, 81, 87
2, 62280, Note_on_c, 0, 81, 0
2, 62280, Note_on_c, 0, 69, 0
2, 62400, Note_on_c, 0, 69, 83
2, 62400, Note_on_c, 0, 81, 83
2, 62760, Note_on_c, 0, 81, 0
2, 62760, Note_on_c, 0, 69, 0
2, 62880, Note_on_c, 0, 67, 80
2, 62880, Note_on_c, 0, 79, 80
2, 63240, Note_on_c, 0, 79, 0
2, 63240, Note_on_c, 0, 67, 0
2, 63360, Note_on_c, 0, 65, 78
2, 63360, Note_on_c, 0, 77, 78
2, 63720, Note_on_c, 0, 77, 0
2, 63720, Note_on_c, 0, 65, 0
2, 63840, Note_on_c, 0, 69, 79
2, 63840, Note_on_c, 0, 81, 79
2, 64032, Note_on_c, 0, 81, 0
2, 64032, Note_on_c, 0, 69, 0
2, 64080, Note_on_c, 0, 69, 81
2, 64080, Note_on_c, 0, 81, 81
2, 64272, Note_on_c, 0, 81, 0
2, 64272, Note_on_c, 0, 69, 0
2, 64320, Note_on_c, 0, 74, 87
2, 64320, Note_on_c, 0, 62, 87
2, 65040, Note_on_c, 0, 62, 0
2, 65040, Note_on_c, 0, 74, 0
2, 65040, Note_on_c, 0, 53, 78
2, 65040, Note_on_c, 0, 65, 78
2, 65232, Note_on_c, 0, 65, 0
2, 65232, Note_on_c, 0, 53, 0
2, 65280, Note_on_c, 0, 62, 80
2, 65280, Note_on_c, 0, 74, 80
2, 65640, Note_on_c, 0, 74, 0
2, 65640, Note_on_c, 0, 62, 0
2, 65760, Note_on_c, 0, 64, 82
2, 65760, Note_on_c, 0, 76, 82
2, 66120, Note_on_c, 0, 76, 0
2, 66120, Note_on_c, 0, 64, 0
2, 66240, Note_on_c, 0, 65, 85
2, 66240, Note_on_c, 0, 77, 85
2, 66600, Note_on_c, 0, 77, 0
2, 66600, Note_on_c, 0, 65, 0
2, 66720, Note_on_c, 0, 81, 88
2, 66720, Note_on_c, 0, 69, 88
2, 67080, Note_on_c, 0, 69, 0
2, 67080, Note_on_c, 0, 81, 0
2, 67200, Note_on_c, 0, 84, 90
2, 67200, Note_on_c, 0, 72, 90
2, 67392, Note_on_c, 0, 72, 0
2, 67392, Note_on_c, 0, 84, 0
2, 67440, Note_on_c, 0, 72, 92
2, 67440, Note_on_c, 0, 84, 92
2, 67632, Note_on_c, 0, 84, 0
2, 67632, Note_on_c, 0, 72, 0
2, 67680, Note_on_c, 0, 77, 100
2, 67680, Note_on_c, 0, 65, 100
2, 68400, Note_on_c, 0, 65, 0
2, 68400, Note_on_c, 0, 77, 0
2, 68400, Note_on_c, 0, 53, 94
2, 68400, Note_on_c, 0, 65, 94
2, 68592, Note_on_c, 0, 65, 0
2, 68592, Note_on_c, 0, 53, 0
2, 68640, Note_on_c, 0, 81, 103
2, 68640, Note_on_c, 0, 69, 103
2, 69000, Note_on_c, 0, 69, 0
2, 69000, Note_on_c, 0, 81, 0
2, 69120, Note_on_c, 0, 64, 100
2, 69120, Note_on_c, 0, 76, 100
2, 69312, Note_on_c, 0, 76, 0
2, 69312, Note_on_c, 0, 64, 0
2, 69360, Note_on_c, 0, 65, 99
2, 69360, Note_on_c, 0, 77, 99
2, 69552, Note_on_c, 0, 77, 0
2, 69552, Note_on_c, 0, 65, 0
2, 69600, Note_on_c, 0, 64, 97
2, 69600, Note_on_c, 0, 76, 97
2, 69960, Note_on_c, 0, 76, 0
2, 69960, Note_on_c, 0, 64, 0
2, 70080, Note_on_c, 0, 62, 94
2, 70080, Note_on_c, 0, 74, 94
2, 70440, Note_on_c, 0, 74, 0
2, 70440, Note_on_c, 0, 62, 0
2, 71040, Note_on_c, 0, 62, 67
2, 71280, Note_on_c, 0, 62, 0
2, 71280, Note_on_c, 0, 65, 69
2, 71472, Note_on_c, 0, 65, 0
2, 71520, Note_on_c, 0, 69, 74
2, 72240, Note_on_c, 0, 69, 0
2, 72240, Note_on_c, 0, 70, 67
2, 72432, Note_on_c, 0, 70, 0
2, 72480, Note_on_c, 0, 70, 65
2, 72720, Note_on_c, 0, 70, 0
2, 72720, Note_on_c, 0, 69, 63
2, 72912, Note_on_c, 0, 69, 0
2, 72920, Note_on_c, 0, 69, 61
2, 72960, Note_on_c, 0, 69, 0
2, 72960, Note_on_c, 0, 67, 61
2, 73088, Note_on_c, 0, 67, 0
2, 73120, Note_on_c, 0, 66, 60
2, 73248, Note_on_c, 0, 66, 0
2, 73440, Note_on_c, 0, 67, 57
2, 73800, Note_on_c, 0, 67, 0
2, 74400, Note_on_c, 0, 64, 62
2, 74640, Note_on_c, 0, 64, 0
2, 74640, Note_on_c, 0, 70, 64
2, 74832, Note_on_c, 0, 70, 0
2, 74880, Note_on_c, 0, 74, 70
2, 75600, Note_on_c, 0, 74, 0
2, 75600, Note_on_c, 0, 73, 61
2, 75792, Note_on_c, 0, 73, 0
2, 75840, Note_on_c, 0, 74, 59
2, 76080, Note_on_c, 0, 74, 0
2, 76080, Note_on_c, 0, 76, 57
2, 76272, Note_on_c, 0, 76, 0
2, 76280, Note_on_c, 0, 70, 55
2, 76320, Note_on_c, 0, 70, 0
2, 76320, Note_on_c, 0, 69, 55
2, 76448, Note_on_c, 0, 69, 0
2, 76480, Note_on_c, 0, 68, 53
2, 76608, Note_on_c, 0, 68, 0
2, 76800, Note_on_c, 0, 69, 50
2, 77160, Note_on_c, 0, 69, 0
2, 77760, Note_on_c, 0, 69, 62
2, 78000, Note_on_c, 0, 69, 0
2, 78000, Note_on_c, 0, 62, 56
2, 78192, Note_on_c, 0, 62, 0
2, 78240, Note_on_c, 0, 62, 55
2, 78960, Note_on_c, 0, 62, 0
2, 78960, Note_on_c, 0, 63, 52
2, 79152, Note_on_c, 0, 63, 0
2, 79200, Note_on_c, 0, 62, 53
2, 79440, Note_on_c, 0, 62, 0
2, 79440, Note_on_c, 0, 60, 51
2, 79632, Note_on_c, 0, 60, 0
2, 79640, Note_on_c, 0, 60, 50
2, 79680, Note_on_c, 0, 60, 0
2, 79680, Note_on_c, 0, 58, 49
2, 79808, Note_on_c, 0, 58, 0
2, 79840, Note_on_c, 0, 57, 48
2, 79968, Note_on_c, 0, 57, 0
2, 80160, Note_on_c, 0, 58, 46
2, 80520, Note_on_c, 0, 58, 0
2, 81120, Note_on_c, 0, 74, 57
2, 81360, Note_on_c, 0, 74, 0
2, 81360, Note_on_c, 0, 64, 51
2, 81552, Note_on_c, 0, 64, 0
2, 81600, Note_on_c, 0, 64, 50
2, 82400, Note_on_c, 0, 65, 47
2, 82405, Note_on_c, 0, 64, 0
2, 82880, Note_on_c, 0, 65, 0
2, 82880, Note_on_c, 0, 61, 45
2, 83000, Note_on_c, 0, 64, 45
2, 83008, Note_on_c, 0, 61, 0
2, 83040, Note_on_c, 0, 64, 0
2, 83040, Note_on_c, 0, 62, 44
2, 83168, Note_on_c, 0, 62, 0
2, 83200, Note_on_c, 0, 61, 44
2, 83328, Note_on_c, 0, 61, 0
2, 83520, Note_on_c, 0, 62, 42
2, 83940, Note_on_c, 0, 62, 0
2, 100320, Control_c, 0, 64, 0
2, 100800, Note_on_c, 0, 81, 50
2, 101520, Note_on_c, 0, 81, 0
2, 101520, Note_on_c, 0, 78, 54
2, 101760, Note_on_c, 0, 78, 0
2, 101760, Note_on_c, 0, 76, 55
2, 102120, Note_on_c, 0, 76, 0
2, 102240, Note_on_c, 0, 62, 57
2, 102480, Note_on_c, 0, 71, 54
2, 102960, Note_on_c, 0, 62, 0
2, 102960, Note_on_c, 0, 59, 51
2, 103200, Note_on_c, 0, 59, 0
2, 103200, Note_on_c, 0, 71, 0
2, 103200, Note_on_c, 0, 64, 50
2, 103200, Note_on_c, 0, 54, 50
2, 103440, Note_on_c, 0, 54, 0
2, 103440, Note_on_c, 0, 56, 48
2, 103680, Note_on_c, 0, 56, 0
2, 103680, Note_on_c, 0, 57, 47
2, 104040, Note_on_c, 0, 57, 0
2, 104040, Note_on_c, 0, 64, 0
2, 104160, Note_on_c, 0, 83, 46
2, 104880, Note_on_c, 0, 83, 0
2, 104880, Note_on_c, 0, 79, 49
2, 105120, Note_on_c, 0, 79, 0
2, 105120, Note_on_c, 0, 76, 51
2, 105480, Note_on_c, 0, 76, 0
2, 105600, Note_on_c, 0, 67, 53
2, 105840, Note_on_c, 0, 76, 50
2, 106320, Note_on_c, 0, 67, 0
2, 106320, Note_on_c, 0, 64, 48
2, 106560, Note_on_c, 0, 64, 0
2, 106560, Note_on_c, 0, 76, 0
2, 106560, Note_on_c, 0, 69, 47
2, 106560, Note_on_c, 0, 61, 47
2, 107040, Note_on_c, 0, 61, 0
2, 107040, Note_on_c, 0, 62, 44
2, 107400, Note_on_c, 0, 62, 0
2, 107400, Note_on_c, 0, 69, 0
2, 107520, Note_on_c, 0, 59, 57
2, 107760, Note_on_c, 0, 71, 48
2, 108240, Note_on_c, 0, 59, 0
2, 108240, Note_on_c, 0, 63, 49
2, 108480, Note_on_c, 0, 63, 0
2, 108480, Note_on_c, 0, 71, 0
2, 108480, Note_on_c, 0, 71, 48
2, 108480, Note_on_c, 0, 66, 48
2, 108672, Note_on_c, 0, 71, 0
2, 108720, Note_on_c, 0, 71, 47
2, 108967, Note_on_c, 0, 66, 0
2, 109000, Note_on_c, 0, 84, 46
2, 109200, Note_on_c, 0, 83, 44
2, 109205, Note_on_c, 0, 84, 0
2, 109680, Note_on_c, 0, 83, 0
2, 109680, Note_on_c, 0, 81, 42
2, 110160, Note_on_c, 0, 81, 0
2, 110160, Note_on_c, 0, 79, 40
2, 110640, Note_on_c, 0, 79, 0
2, 110640, Note_on_c, 0, 78, 38
2, 110827, Note_on_c, 0, 71, 0
2, 110832, Note_on_c, 0, 78, 0
2, 110880, Note_on_c, 0, 61, 40
2, 110920, Note_on_c, 0, 76, 40
2, 111120, Note_on_c, 0, 61, 0
2, 111120, Note_on_c, 0, 64, 43
2, 111360, Note_on_c, 0, 64, 0
2, 111360, Note_on_c, 0, 76, 0
2, 111360, Note_on_c, 0, 67, 50
2, 111400, Note_on_c, 0, 74, 50
2, 111840, Note_on_c, 0, 67, 0
2, 111840, Note_on_c, 0, 66, 42
2, 112075, Note_on_c, 0, 74, 0
2, 112080, Note_on_c, 0, 74, 41
2, 112320, Note_on_c, 0, 74, 0
2, 112320, Note_on_c, 0, 66, 0
2, 112360, Note_on_c, 0, 85, 40
2, 112555, Note_on_c, 0, 85, 0
2, 112560, Note_on_c, 0, 83, 39
2, 113040, Note_on_c, 0, 83, 0
2, 113040, Note_on_c, 0, 81, 37
2, 113520, Note_on_c, 0, 81, 0
2, 113520, Note_on_c, 0, 79, 35
2, 113760, Note_on_c, 0, 79, 0
2, 113760, Note_on_c, 0, 78, 34
2, 114120, Note_on_c, 0, 78, 0
2, 128160, Note_on_c, 0, 78, 44
2, 128400, Note_on_c, 0, 78, 0
2, 128400, Note_on_c, 0, 81, 45
2, 129120, Note_on_c, 0, 81, 0
2, 129600, Note_on_c, 0, 79, 47
2, 129792, Note_on_c, 0, 79, 0
2, 130320, Note_on_c, 0, 78, 42
2, 130512, Note_on_c, 0, 78, 0
2, 131040, Note_on_c, 0, 76, 45
2, 131280, Note_on_c, 0, 76, 0
2, 131280, Note_on_c, 0, 77, 46
2, 132000, Note_on_c, 0, 77, 0
2, 132480, Note_on_c, 0, 73, 47
2, 132672, Note_on_c, 0, 73, 0
2, 133200, Note_on_c, 0, 74, 43
2, 133392, Note_on_c, 0, 74, 0
2, 133920, Note_on_c, 0, 81, 43
2, 134160, Note_on_c, 0, 81, 0
2, 134160, Note_on_c, 0, 74, 43
2, 134880, Note_on_c, 0, 74, 0
2, 135360, Note_on_c, 0, 73, 46
2, 135552, Note_on_c, 0, 73, 0
2, 136080, Note_on_c, 0, 79, 48
2, 136272, Note_on_c, 0, 79, 0
2, 136800, Note_on_c, 0, 81, 49
2, 137040, Note_on_c, 0, 81, 0
2, 137040, Note_on_c, 0, 72, 50
2, 137760, Note_on_c, 0, 72, 0
2, 138240, Note_on_c, 0, 71, 48
2, 138432, Note_on_c, 0, 71, 0
2, 138960, Note_on_c, 0, 73, 42
2, 139152, Note_on_c, 0, 73, 0
2, 154560, Control_c, 0, 64, 0
2, 154560, Note_on_c, 0, 93, 66
2, 154600, Control_c, 0, 64, 127
2, 154640, Note_on_c, 0, 93, 0
2, 154800, Control_c, 0, 64, 0
2, 154800, Note_on_c, 0, 90, 68
2, 154840, Control_c, 0, 64, 127
2, 154880, Note_on_c, 0, 90, 0
2, 155040, Control_c, 0, 64, 0
2, 155040, Note_on_c, 0, 86, 70
2, 155080, Control_c, 0, 64, 127
2, 155120, Note_on_c, 0, 86, 0
2, 155280, Control_c, 0, 64, 0
2, 155280, Note_on_c, 0, 85, 72
2, 155320, Control_c, 0, 64, 127
2, 155360, Note_on_c, 0, 85, 0
2, 155520, Control_c, 0, 64, 0
2, 155520, Note_on_c, 0, 83, 74
2, 155560, Control_c, 0, 64, 127
2, 155600, Note_on_c, 0, 83, 0
2, 155760, Control_c, 0, 64, 0
2, 155760, Note_on_c, 0, 83, 76
2, 155800, Control_c, 0, 64, 127
2, 155840, Note_on_c, 0, 83, 0
2, 156000, Control_c, 0, 64, 0
2, 156000, Note_on_c, 0, 83, 78
2, 156040, Control_c, 0, 64, 127
2, 156080, Note_on_c, 0, 83, 0
2, 156240, Control_c, 0, 64, 0
2, 156240, Note_on_c, 0, 81, 80
2, 156280, Control_c, 0, 64, 127
2, 156320, Note_on_c, 0, 81, 0
2, 156480, Control_c, 0, 64, 0
2, 156480, Note_on_c, 0, 91, 83
2, 156520, Control_c, 0, 64, 127
2, 156560, Note_on_c, 0, 91, 0
2, 156720, Control_c, 0, 64, 0
2, 156720, Note_on_c, 0, 90, 85
2, 156760, Control_c, 0, 64, 127
2, 156800, Note_on_c, 0, 90, 0
2, 156960, Control_c, 0, 64, 0
2, 156960, Note_on_c, 0, 88, 87
2, 157000, Control_c, 0, 64, 127
2, 157040, Note_on_c, 0, 88, 0
2, 157200, Control_c, 0, 64, 0
2, 157200, Note_on_c, 0, 86, 89
2, 157240, Control_c, 0, 64, 127
2, 157280, Note_on_c, 0, 86, 0
2, 157440, Control_c, 0, 64, 0
2, 157440, Note_on_c, 0, 85, 91
2, 157480, Control_c, 0, 64, 127
2, 157520, Note_on_c, 0, 85, 0
2, 157680, Control_c, 0, 64, 0
2, 157680, Note_on_c, 0, 88, 93
2, 157720, Control_c, 0, 64, 127
2, 157760, Note_on_c, 0, 88, 0
2, 157920, Control_c, 0, 64, 0
2, 157920, Note_on_c, 0, 93, 95
2, 157960, Control_c, 0, 64, 127
2, 158000, Note_on_c, 0, 93, 0
2, 158160, Control_c, 0, 64, 0
2, 158160, Note_on_c, 0, 91, 97
2, 158200, Control_c, 0, 64, 127
2, 158240, Note_on_c, 0, 91, 0
2, 158400, Control_c, 0, 64, 0
2, 158400, Note_on_c, 0, 90, 99
2, 158440, Control_c, 0, 64, 127
2, 158480, Note_on_c, 0, 90, 0
2, 158640, Control_c, 0, 64, 0
2, 158640, Note_on_c, 0, 93, 103
2, 158680, Control_c, 0, 64, 127
2, 158720, Note_on_c, 0, 93, 0
2, 158880, Control_c, 0, 64, 0
2, 158880, Note_on_c, 0, 86, 102
2, 158920, Control_c, 0, 64, 127
2, 158960, Note_on_c, 0, 86, 0
2, 159120, Control_c, 0, 64, 0
2, 159120, Note_on_c, 0, 81, 100
2, 159160, Control_c, 0, 64, 127
2, 159200, Note_on_c, 0, 81, 0
2, 159360, Control_c, 0, 64, 0
2, 159360, Note_on_c, 0, 74, 99
2, 159400, Control_c, 0, 64, 127
2, 159440, Note_on_c, 0, 74, 0
2, 159600, Control_c, 0, 64, 0
2, 159600, Note_on_c, 0, 76, 98
2, 159640, Control_c, 0, 64, 127
2, 159680, Note_on_c, 0, 76, 0
2, 159840, Control_c, 0, 64, 0
2, 159840, Note_on_c, 0, 77, 96
2, 159880, Control_c, 0, 64, 127
2, 159920, Note_on_c, 0, 77, 0
2, 160080, Control_c, 0, 64, 0
2, 160080, Note_on_c, 0, 79, 95
2, 160120, Control_c, 0, 64, 127
2, 160160, Note_on_c, 0, 79, 0
2, 160320, Control_c, 0, 64, 0
2, 160320, Note_on_c, 0, 81, 94
2, 160360, Control_c, 0, 64, 127
2, 160400, Note_on_c, 0, 81, 0
2, 160560, Control_c, 0, 64, 0
2, 160560, Note_on_c, 0, 93, 92
2, 160600, Control_c, 0, 64, 127
2, 160640, Note_on_c, 0, 93, 0
2, 160800, Control_c, 0, 64, 0
2, 160800, Note_on_c, 0, 86, 91
2, 160840, Control_c, 0, 64, 127
2, 160880, Note_on_c, 0, 86, 0
2, 161040, Control_c, 0, 64, 0
2, 161040, Note_on_c, 0, 81, 90
2, 161080, Control_c, 0, 64, 127
2, 161120, Note_on_c, 0, 81, 0
2, 161280, Control_c, 0, 64, 0
2, 161280, Note_on_c, 0, 78, 88
2, 161320, Control_c, 0, 64, 127
2, 161360, Note_on_c, 0, 78, 0
2, 161520, Control_c, 0, 64, 0
2, 161520, Note_on_c, 0, 76, 87
2, 161560, Control_c, 0, 64, 127
2, 161600, Note_on_c, 0, 76, 0
2, 161760, Control_c, 0, 64, 0
2, 161760, Note_on_c, 0, 76, 86
2, 161800, Control_c, 0, 64, 127
2, 162000, Control_c, 0, 64, 0
2, 162040, Control_c, 0, 64, 127
2, 162240, Note_on_c, 0, 76, 0
2, 162240, Control_c, 0, 64, 0
2, 162240, Control_c, 0, 64, 0
2, 162240, Control_c, 0, 64, 0
2, 162280, Control_c, 0, 64, 127
2, 162480, Control_c, 0, 64, 0
2, 162520, Control_c, 0, 64, 127
2, 162720, Control_c, 0, 64, 0
2, 162760, Control_c, 0, 64, 127
2, 162960, Control_c, 0, 64, 0
2, 163000, Control_c, 0, 64, 127
2, 163200, Control_c, 0, 64, 0
2, 163240, Control_c, 0, 64, 127
2, 163440, Control_c, 0, 64, 0
2, 163480, Control_c, 0, 64, 127
2, 163680, Control_c, 0, 64, 0
2, 163720, Control_c, 0, 64, 127
2, 163920, Control_c, 0, 64, 0
2, 163960, Control_c, 0, 64, 127
2, 164160, Control_c, 0, 64, 0
2, 164200, Control_c, 0, 64, 127
2, 164400, Control_c, 0, 64, 0
2, 164440, Control_c, 0, 64, 127
2, 164640, Control_c, 0, 64, 0
2, 164680, Control_c, 0, 64, 127
2, 164880, Control_c, 0, 64, 0
2, 164920, Control_c, 0, 64, 127
2, 165120, Control_c, 0, 64, 0
2, 165160, Control_c, 0, 64, 127
2, 165360, Control_c, 0, 64, 0
2, 165400, Control_c, 0, 64, 127
2, 165600, Control_c, 0, 64, 0
2, 165640, Control_c, 0, 64, 127
2, 165840, Control_c, 0, 64, 0
2, 165880, Control_c, 0, 64, 127
2, 166080, Control_c, 0, 64, 0
2, 166120, Control_c, 0, 64, 127
2, 166320, Control_c, 0, 64, 0
2, 166320, Note_on_c, 0, 81, 87
2, 166360, Control_c, 0, 64, 127
2, 166380, Note_on_c, 0, 81, 0
2, 166560, Control_c, 0, 64, 0
2, 166560, Note_on_c, 0, 74, 88
2, 166600, Control_c, 0, 64, 127
2, 166620, Note_on_c, 0, 74, 0
2, 166800, Control_c, 0, 64, 0
2, 166800, Note_on_c, 0, 69, 90
2, 166840, Control_c, 0, 64, 127
2, 166860, Note_on_c, 0, 69, 0
2, 167040, Control_c, 0, 64, 0
2, 167080, Control_c, 0, 64, 127
2, 167280, Control_c, 0, 64, 0
2, 167320, Control_c, 0, 64, 127
2, 167520, Control_c, 0, 64, 0
2, 167560, Control_c, 0, 64, 127
2, 167760, Control_c, 0, 64, 0
2, 167800, Control_c, 0, 64, 127
2, 168000, Control_c, 0, 64, 0
2, 168040, Control_c, 0, 64, 127
2, 168240, Control_c, 0, 64, 0
2, 168240, Note_on_c, 0, 81, 100
2, 168280, Control_c, 0, 64, 127
2, 168300, Note_on_c, 0, 81, 0
2, 168480, Control_c, 0, 64, 0
2, 168480, Note_on_c, 0, 86, 102
2, 168520, Control_c, 0, 64, 127
2, 168540, Note_on_c, 0, 86, 0
2, 168720, Control_c, 0, 64, 0
2, 168720, Note_on_c, 0, 69, 88
2, 168760, Control_c, 0, 64, 127
2, 168780, Note_on_c, 0, 69, 0
2, 168960, Control_c, 0, 64, 0
2, 168960, Note_on_c, 0, 74, 90
2, 169000, Control_c, 0, 64, 127
2, 169020, Note_on_c, 0, 74, 0
2, 169200, Control_c, 0, 64, 0
2, 169240, Control_c, 0, 64, 127
2, 169260, Note_on_c, 0, 61, 93
2, 169320, Note_on_c, 0, 61, 0
2, 169440, Control_c, 0, 64, 0
2, 169440, Note_on_c, 0, 69, 95
2, 169480, Control_c, 0, 64, 127
2, 169500, Note_on_c, 0, 69, 0
2, 169680, Control_c, 0, 64, 0
2, 169680, Note_on_c, 0, 62, 98
2, 169720, Control_c, 0, 64, 127
2, 169740, Note_on_c, 0, 62, 0
2, 169920, Control_c, 0, 64, 0
2, 169920, Control_c, 0, 64, 0
2, 169920, Note_on_c, 0, 74, 101
2, 169960, Control_c, 0, 64, 127
2, 169980, Note_on_c, 0, 74, 0
2, 170160, Control_c, 0, 64, 0
2, 170160, Note_on_c, 0, 71, 103
2, 170200, Control_c, 0, 64, 127
2, 170220, Note_on_c, 0, 71, 0
2, 170400, Control_c, 0, 64, 0
2, 170400, Note_on_c, 0, 83, 106
2, 170440, Control_c, 0, 64, 127
2, 170460, Note_on_c, 0, 83, 0
2, 170640, Control_c, 0, 64, 0
2, 170640, Note_on_c, 0, 76, 108
2, 170680, Control_c, 0, 64, 127
2, 170700, Note_on_c, 0, 76, 0
2, 170880, Control_c, 0, 64, 0
2, 170880, Note_on_c, 0, 88, 111
2, 171840, Note_on_c, 0, 88, 0
2, 172080, Note_on_c, 0, 45, 59
2, 172120, Note_on_c, 0, 45, 0
2, 172120, Note_on_c, 0, 47, 59
2, 172160, Note_on_c, 0, 47, 0
2, 172160, Note_on_c, 0, 49, 60
2, 172200, Note_on_c, 0, 49, 0
2, 172200, Note_on_c, 0, 50, 60
2, 172240, Note_on_c, 0, 50, 0
2, 172240, Note_on_c, 0, 52, 60
2, 172280, Note_on_c, 0, 52, 0
2, 172280, Note_on_c, 0, 54, 61
2, 172320, Note_on_c, 0, 54, 0
2, 172320, Note_on_c, 0, 55, 61
2, 172360, Note_on_c, 0, 55, 0
2, 172360, Note_on_c, 0, 57, 61
2, 172400, Note_on_c, 0, 57, 0
2, 172400, Note_on_c, 0, 59, 62
2, 172440, Note_on_c, 0, 59, 0
2, 172440, Note_on_c, 0, 61, 62
2, 172480, Note_on_c, 0, 61, 0
2, 172480, Note_on_c, 0, 62, 62
2, 172520, Note_on_c, 0, 62, 0
2, 172520, Note_on_c, 0, 64, 63
2, 172560, Note_on_c, 0, 64, 0
2, 172560, Note_on_c, 0, 66, 63
2, 172600, Note_on_c, 0, 66, 0
2, 172600, Note_on_c, 0, 67, 63
2, 172640, Note_on_c, 0, 67, 0
2, 172640, Note_on_c, 0, 69, 64
2, 172680, Note_on_c, 0, 69, 0
2, 172680, Note_on_c, 0, 71, 64
2, 172720, Note_on_c, 0, 71, 0
2, 172720, Note_on_c, 0, 73, 64
2, 172800, Note_on_c, 0, 73, 0
2, 172800, Note_on_c, 0, 74, 65
2, 172920, Note_on_c, 0, 74, 0
2, 172920, Note_on_c, 0, 73, 63
2, 173040, Note_on_c, 0, 73, 0
2, 173040, Note_on_c, 0, 74, 64
2, 173160, Note_on_c, 0, 74, 0
2, 173160, Note_on_c, 0, 76, 64
2, 173280, Note_on_c, 0, 76, 0
2, 173280, Note_on_c, 0, 78, 64
2, 173400, Note_on_c, 0, 78, 0
2, 173400, Note_on_c, 0, 76, 64
2, 173520, Note_on_c, 0, 76, 0
2, 173520, Note_on_c, 0, 78, 64
2, 173640, Note_on_c, 0, 78, 0
2, 173640, Note_on_c, 0, 79, 64
2, 173760, Note_on_c, 0, 79, 0
2, 173760, Note_on_c, 0, 81, 65
2, 173760, Note_on_c, 0, 69, 65
2, 173875, Note_on_c, 0, 81, 0
2, 173880, Note_on_c, 0, 78, 65
2, 173916, Note_on_c, 0, 69, 0
2, 174000, Note_on_c, 0, 78, 0
2, 174000, Note_on_c, 0, 83, 65
2, 174000, Note_on_c, 0, 71, 65
2, 174120, Note_on_c, 0, 83, 0
2, 174120, Note_on_c, 0, 79, 65
2, 174156, Note_on_c, 0, 71, 0
2, 174240, Note_on_c, 0, 79, 0
2, 174240, Note_on_c, 0, 69, 65
2, 174240, Note_on_c, 0, 81, 65
2, 174360, Note_on_c, 0, 81, 0
2, 174360, Note_on_c, 0, 78, 65
2, 174396, Note_on_c, 0, 69, 0
2, 174480, Note_on_c, 0, 78, 0
2, 174480, Note_on_c, 0, 76, 66
2, 174600, Note_on_c, 0, 76, 0
2, 174600, Note_on_c, 0, 74, 66
2, 174720, Note_on_c, 0, 74, 0
2, 174720, Note_on_c, 0, 76, 66
2, 174840, Note_on_c, 0, 76, 0
2, 174840, Note_on_c, 0, 75, 66
2, 174960, Note_on_c, 0, 75, 0
2, 174960, Note_on_c, 0, 76, 66
2, 175080, Note_on_c, 0, 76, 0
2, 175080, Note_on_c, 0, 78, 66
2, 175200, Note_on_c, 0, 78, 0
2, 175200, Note_on_c, 0, 79, 67
2, 175320, Note_on_c, 0, 79, 0
2, 175320, Note_on_c, 0, 78, 67
2, 175440, Note_on_c, 0, 78, 0
2, 175440, Note_on_c, 0, 79, 67
2, 175560, Note_on_c, 0, 79, 0
2, 175560, Note_on_c, 0, 80, 67
2, 175680, Note_on_c, 0, 80, 0
2, 175680, Note_on_c, 0, 81, 67
2, 175800, Note_on_c, 0, 81, 0
2, 175800, Note_on_c, 0, 76, 67
2, 175920, Note_on_c, 0, 76, 0
2, 175920, Note_on_c, 0, 81, 67
2, 176040, Note_on_c, 0, 81, 0
2, 176040, Note_on_c, 0, 79, 68
2, 176160, Note_on_c, 0, 79, 0
2, 176160, Note_on_c, 0, 78, 68
2, 176280, Note_on_c, 0, 78, 0
2, 176280, Note_on_c, 0, 74, 68
2, 176400, Note_on_c, 0, 74, 0
2, 176400, Note_on_c, 0, 69, 68
2, 176520, Note_on_c, 0, 69, 0
2, 176520, Note_on_c, 0, 66, 68
2, 176640, Note_on_c, 0, 66, 0
2, 176640, Note_on_c, 0, 81, 68
2, 176760, Note_on_c, 0, 81, 0
2, 176760, Note_on_c, 0, 76, 69
2, 176880, Note_on_c, 0, 76, 0
2, 176880, Note_on_c, 0, 81, 69
2, 177000, Note_on_c, 0, 81, 0
2, 177000, Note_on_c, 0, 76, 69
2, 177120, Note_on_c, 0, 76, 0
2, 177120, Note_on_c, 0, 74, 69
2, 177240, Note_on_c, 0, 74, 0
2, 177240, Note_on_c, 0, 78, 69
2, 177360, Note_on_c, 0, 78, 0
2, 177360, Note_on_c, 0, 74, 69
2, 177480, Note_on_c, 0, 74, 0
2, 177480, Note_on_c, 0, 78, 70
2, 177600, Note_on_c, 0, 78, 0
2, 177600, Note_on_c, 0, 76, 70
2, 177720, Note_on_c, 0, 76, 0
2, 177720, Note_on_c, 0, 71, 70
2, 177840, Note_on_c, 0, 71, 0
2, 177840, Note_on_c, 0, 69, 70
2, 177960, Note_on_c, 0, 69, 0
2, 177960, Note_on_c, 0, 73, 70
2, 178080, Note_on_c, 0, 73, 0
2, 178080, Note_on_c, 0, 74, 70
2, 178200, Note_on_c, 0, 74, 0
2, 178200, Note_on_c, 0, 76, 71
2, 178320, Note_on_c, 0, 76, 0
2, 178320, Note_on_c, 0, 78, 71
2, 178440, Note_on_c, 0, 78, 0
2, 178440, Note_on_c, 0, 79, 71
2, 178560, Note_on_c, 0, 79, 0
2, 178560, Note_on_c, 0, 81, 71
2, 178680, Note_on_c, 0, 81, 0
2, 178680, Note_on_c, 0, 76, 71
2, 178800, Note_on_c, 0, 76, 0
2, 178800, Note_on_c, 0, 81, 71
2, 178920, Note_on_c, 0, 81, 0
2, 178920, Note_on_c, 0, 76, 72
2, 179040, Note_on_c, 0, 76, 0
2, 179040, Note_on_c, 0, 74, 72
2, 179160, Note_on_c, 0, 74, 0
2, 179160, Note_on_c, 0, 78, 72
2, 179280, Note_on_c, 0, 78, 0
2, 179280, Note_on_c, 0, 74, 72
2, 179400, Note_on_c, 0, 74, 0
2, 179400, Note_on_c, 0, 78, 72
2, 179520, Note_on_c, 0, 78, 0
2, 179520, Note_on_c, 0, 71, 72
2, 179520, Note_on_c, 0, 76, 72
2, 179640, Note_on_c, 0, 76, 0
2, 179640, Note_on_c, 0, 78, 72
2, 179676, Note_on_c, 0, 71, 0
2, 179760, Note_on_c, 0, 78, 0
2, 179760, Note_on_c, 0, 79, 73
2, 179880, Note_on_c, 0, 79, 0
2, 179880, Note_on_c, 0, 81, 73
2, 180000, Note_on_c, 0, 81, 0
2, 180000, Note_on_c, 0, 79, 73
2, 180000, Note_on_c, 0, 76, 73
2, 180120, Note_on_c, 0, 79, 0
2, 180120, Note_on_c, 0, 81, 73
2, 180156, Note_on_c, 0, 76, 0
2, 180240, Note_on_c, 0, 81, 0
2, 180240, Note_on_c, 0, 83, 73
2, 180360, Note_on_c, 0, 83, 0
2, 180360, Note_on_c, 0, 85, 73
2, 180480, Note_on_c, 0, 85, 0
2, 180480, Note_on_c, 0, 74, 82
2, 180480, Note_on_c, 0, 86, 82
2, 180960, Note_on_c, 0, 86, 0
2, 180960, Note_on_c, 0, 74, 0
2, 180960, Note_on_c, 0, 62, 74
2, 181116, Note_on_c, 0, 62, 0
2, 181200, Note_on_c, 0, 64, 75
2, 181356, Note_on_c, 0, 64, 0
2, 181440, Note_on_c, 0, 65, 75
2, 181596, Note_on_c, 0, 65, 0
2, 181680, Note_on_c, 0, 69, 75
2, 181836, Note_on_c, 0, 69, 0
2, 181920, Note_on_c, 0, 74, 76
2, 182040, Note_on_c, 0, 74, 0
2, 182040, Note_on_c, 0, 76, 76
2, 182160, Note_on_c, 0, 76, 0
2, 182160, Note_on_c, 0, 74, 76
2, 182280, Note_on_c, 0, 74, 0
2, 182280, Note_on_c, 0, 76, 76
2, 182400, Note_on_c, 0, 76, 0
2, 182400, Note_on_c, 0, 77, 76
2, 182520, Note_on_c, 0, 81, 76
2, 182880, Note_on_c, 0, 81, 0
2, 182880, Note_on_c, 0, 77, 0
2, 182880, Note_on_c, 0, 79, 77
2, 183000, Note_on_c, 0, 82, 77
2, 183360, Note_on_c, 0, 82, 0
2, 183360, Note_on_c, 0, 79, 0
2, 183360, Note_on_c, 0, 79, 78
2, 183480, Note_on_c, 0, 85, 78
2, 183840, Note_on_c, 0, 85, 0
2, 183840, Note_on_c, 0, 79, 0
2, 183840, Note_on_c, 0, 86, 78
2, 183960, Note_on_c, 0, 86, 0
2, 183960, Note_on_c, 0, 81, 78
2, 184320, Note_on_c, 0, 81, 0
2, 184320, Note_on_c, 0, 88, 87
2, 184800, Note_on_c, 0, 88, 0
2, 184800, Note_on_c, 0, 64, 79
2, 184956, Note_on_c, 0, 64, 0
2, 185040, Note_on_c, 0, 65, 80
2, 185196, Note_on_c, 0, 65, 0
2, 185280, Note_on_c, 0, 67, 80
2, 185436, Note_on_c, 0, 67, 0
2, 185520, Note_on_c, 0, 70, 80
2, 185676, Note_on_c, 0, 70, 0
2, 185760, Note_on_c, 0, 76, 81
2, 185880, Note_on_c, 0, 76, 0
2, 185880, Note_on_c, 0, 77, 81
2, 186000, Note_on_c, 0, 77, 0
2, 186000, Note_on_c, 0, 76, 81
2, 186120, Note_on_c, 0, 76, 0
2, 186120, Note_on_c, 0, 77, 81
2, 186240, Note_on_c, 0, 77, 0
2, 186240, Note_on_c, 0, 79, 81
2, 186360, Note_on_c, 0, 79, 0
2, 186360, Note_on_c, 0, 80, 82
2, 186720, Note_on_c, 0, 80, 0
2, 186720, Note_on_c, 0, 81, 82
2, 186840, Note_on_c, 0, 81, 0
2, 186840, Note_on_c, 0, 83, 82
2, 187200, Note_on_c, 0, 83, 0
2, 187200, Note_on_c, 0, 84, 83
2, 187320, Note_on_c, 0, 84, 0
2, 187320, Note_on_c, 0, 87, 83
2, 187680, Note_on_c, 0, 87, 0
2, 187680, Note_on_c, 0, 88, 83
2, 187800, Note_on_c, 0, 88, 0
2, 187800, Note_on_c, 0, 83, 83
2, 188160, Note_on_c, 0, 83, 0
2, 188160, Note_on_c, 0, 93, 84
2, 188640, Note_on_c, 0, 93, 0
2, 192000, Note_on_c, 0, 93, 89
2, 192480, Note_on_c, 0, 93, 0
2, 192480, Note_on_c, 0, 81, 90
2, 192636, Note_on_c, 0, 81, 0
2, 192720, Note_on_c, 0, 81, 90
2, 192876, Note_on_c, 0, 81, 0
2, 192960, Note_on_c, 0, 74, 90
2, 193116, Note_on_c, 0, 74, 0
2, 193200, Note_on_c, 0, 76, 91
2, 193356, Note_on_c, 0, 76, 0
2, 193440, Note_on_c, 0, 77, 91
2, 193596, Note_on_c, 0, 77, 0
2, 193680, Note_on_c, 0, 81, 91
2, 193836, Note_on_c, 0, 81, 0
2, 193920, Note_on_c, 0, 82, 92
2, 194400, Note_on_c, 0, 82, 0
2, 194400, Note_on_c, 0, 86, 92
2, 194556, Note_on_c, 0, 86, 0
2, 194640, Note_on_c, 0, 86, 93
2, 194796, Note_on_c, 0, 86, 0
2, 194880, Note_on_c, 0, 79, 93
2, 195036, Note_on_c, 0, 79, 0
2, 195120, Note_on_c, 0, 81, 93
2, 195276, Note_on_c, 0, 81, 0
2, 195360, Note_on_c, 0, 82, 94
2, 195516, Note_on_c, 0, 82, 0
2, 195600, Note_on_c, 0, 86, 94
2, 195756, Note_on_c, 0, 86, 0
2, 195840, Note_on_c, 0, 88, 94
2, 196320, Note_on_c, 0, 88, 0
2, 196320, Note_on_c, 0, 93, 95
2, 196476, Note_on_c, 0, 93, 0
2, 196560, Note_on_c, 0, 93, 95
2, 196716, Note_on_c, 0, 93, 0
2, 196800, Note_on_c, 0, 81, 96
2, 196920, Note_on_c, 0, 81, 0
2, 196920, Note_on_c, 0, 69, 96
2, 197040, Note_on_c, 0, 69, 0
2, 197040, Note_on_c, 0, 71, 96
2, 197160, Note_on_c, 0, 71, 0
2, 197160, Note_on_c, 0, 73, 96
2, 197280, Note_on_c, 0, 73, 0
2, 197280, Note_on_c, 0, 74, 96
2, 197400, Note_on_c, 0, 74, 0
2, 197400, Note_on_c, 0, 76, 96
2, 197520, Note_on_c, 0, 76, 0
2, 197520, Note_on_c, 0, 78, 97
2, 197640, Note_on_c, 0, 78, 0
2, 197640, Note_on_c, 0, 80, 97
2, 197760, Note_on_c, 0, 80, 0
2, 197760, Note_on_c, 0, 81, 97
2, 197916, Note_on_c, 0, 81, 0
2, 198240, Note_on_c, 0, 69, 98
2, 198240, Note_on_c, 0, 81, 98
2, 198396, Note_on_c, 0, 81, 0
2, 198396, Note_on_c, 0, 69, 0
2, 198480, Note_on_c, 0, 69, 98
2, 198480, Note_on_c, 0, 81, 98
2, 198636, Note_on_c, 0, 81, 0
2, 198636, Note_on_c, 0, 69, 0
2, 198720, Note_on_c, 0, 57, 98
2, 198720, Note_on_c, 0, 69, 98
2, 198840, Note_on_c, 0, 57, 0
2, 198840, Note_on_c, 0, 57, 98
2, 198876, Note_on_c, 0, 69, 0
2, 198960, Note_on_c, 0, 57, 0
2, 198960, Note_on_c, 0, 59, 99
2, 199080, Note_on_c, 0, 59, 0
2, 199080, Note_on_c, 0, 61, 99
2, 199200, Note_on_c, 0, 61, 0
2, 199200, Note_on_c, 0, 62, 99
2, 199320, Note_on_c, 0, 62, 0
2, 199320, Note_on_c, 0, 64, 99
2, 199440, Note_on_c, 0, 64, 0
2, 199440, Note_on_c, 0, 66, 99
2, 199560, Note_on_c, 0, 66, 0
2, 199560, Note_on_c, 0, 68, 99
2, 199680, Note_on_c, 0, 68, 0
2, 199680, Note_on_c, 0, 69, 99
2, 199800, Note_on_c, 0, 69, 0
2, 199800, Note_on_c, 0, 69, 100
2, 199920, Note_on_c, 0, 69, 0
2, 199920, Note_on_c, 0, 71, 100
2, 200040, Note_on_c, 0, 71, 0
2, 200040, Note_on_c, 0, 73, 100
2, 200160, Note_on_c, 0, 73, 0
2, 200160, Note_on_c, 0, 74, 100
2, 200280, Note_on_c, 0, 74, 0
2, 200280, Note_on_c, 0, 76, 100
2, 200400, Note_on_c, 0, 76, 0
2, 200400, Note_on_c, 0, 78, 100
2, 200520, Note_on_c, 0, 78, 0
2, 200520, Note_on_c, 0, 80, 101
2, 200640, Note_on_c, 0, 80, 0
2, 200640, Note_on_c, 0, 81, 101
2, 200760, Note_on_c, 0, 69, 101
2, 200796, Note_on_c, 0, 81, 0
2, 200880, Note_on_c, 0, 69, 0
2, 200880, Note_on_c, 0, 71, 101
2, 201000, Note_on_c, 0, 71, 0
2, 201000, Note_on_c, 0, 73, 101
2, 201120, Note_on_c, 0, 73, 0
2, 201120, Note_on_c, 0, 74, 101
2, 201200, Note_on_c, 0, 74, 0
2, 201200, Note_on_c, 0, 76, 102
2, 201280, Note_on_c, 0, 76, 0
2, 201280, Note_on_c, 0, 78, 102
2, 201360, Note_on_c, 0, 78, 0
2, 201360, Note_on_c, 0, 79, 102
2, 201420, Note_on_c, 0, 79, 0
2, 201420, Note_on_c, 0, 81, 102
2, 201480, Note_on_c, 0, 81, 0
2, 201480, Note_on_c, 0, 83, 102
2, 201540, Note_on_c, 0, 83, 0
2, 201540, Note_on_c, 0, 85, 102
2, 201600, Note_on_c, 0, 85, 0
2, 201600, Note_on_c, 0, 74, 102
2, 201600, Note_on_c, 0, 86, 102
2, 201720, Note_on_c, 0, 74, 0
2, 201720, Note_on_c, 0, 73, 102
2, 201756, Note_on_c, 0, 86, 0
2, 201840, Note_on_c, 0, 73, 0
2, 201840, Note_on_c, 0, 74, 102
2, 201960, Note_on_c, 0, 74, 0
2, 201960, Note_on_c, 0, 76, 103
2, 202080, Note_on_c, 0, 76, 0
2, 202080, Note_on_c, 0, 78, 103
2, 202200, Note_on_c, 0, 78, 0
2, 202200, Note_on_c, 0, 76, 103
2, 202320, Note_on_c, 0, 76, 0
2, 202320, Note_on_c, 0, 78, 103
2, 202440, Note_on_c, 0, 78, 0
2, 202440, Note_on_c, 0, 79, 103
2, 202560, Note_on_c, 0, 79, 0
2, 202560, Note_on_c, 0, 69, 103
2, 202560, Note_on_c, 0, 81, 103
2, 202680, Note_on_c, 0, 81, 0
2, 202680, Note_on_c, 0, 78, 104
2, 202716, Note_on_c, 0, 69, 0
2, 202800, Note_on_c, 0, 78, 0
2, 202800, Note_on_c, 0, 71, 104
2, 202800, Note_on_c, 0, 83, 104
2, 202920, Note_on_c, 0, 83, 0
2, 202920, Note_on_c, 0, 79, 104
2, 202956, Note_on_c, 0, 71, 0
2, 203040, Note_on_c, 0, 79, 0
2, 203040, Note_on_c, 0, 69, 104
2, 203040, Note_on_c, 0, 81, 104
2, 203160, Note_on_c, 0, 81, 0
2, 203160, Note_on_c, 0, 78, 104
2, 203196, Note_on_c, 0, 69, 0
2, 203280, Note_on_c, 0, 78, 0
2, 203280, Note_on_c, 0, 76, 104
2, 203400, Note_on_c, 0, 76, 0
2, 203400, Note_on_c, 0, 74, 104
2, 203520, Note_on_c, 0, 74, 0
2, 203520, Note_on_c, 0, 76, 105
2, 203640, Note_on_c, 0, 76, 0
2, 203640, Note_on_c, 0, 75, 105
2, 203760, Note_on_c, 0, 75, 0
2, 203760, Note_on_c, 0, 76, 105
2, 203880, Note_on_c, 0, 76, 0
2, 203880, Note_on_c, 0, 78, 105
2, 204000, Note_on_c, 0, 78, 0
2, 204000, Note_on_c, 0, 79, 105
2, 204120, Note_on_c, 0, 79, 0
2, 204120, Note_on_c, 0, 78, 105
2, 204240, Note_on_c, 0, 78, 0
2, 204240, Note_on_c, 0, 79, 106
2, 204360, Note_on_c, 0, 79, 0
2, 204360, Note_on_c, 0, 80, 106
2, 204480, Note_on_c, 0, 80, 0
2, 204480, Note_on_c, 0, 81, 106
2, 204600, Note_on_c, 0, 81, 0
2, 204600, Note_on_c, 0, 76, 106
2, 204720, Note_on_c, 0, 76, 0
2, 204720, Note_on_c, 0, 81, 106
2, 204840, Note_on_c, 0, 81, 0
2, 204840, Note_on_c, 0, 79, 106
2, 204960, Note_on_c, 0, 79, 0
2, 204960, Note_on_c, 0, 78, 107
2, 205080, Note_on_c, 0, 78, 0
2, 205080, Note_on_c, 0, 74, 107
2, 205200, Note_on_c, 0, 74, 0
2, 205200, Note_on_c, 0, 69, 107
2, 205320, Note_on_c, 0, 69, 0
2, 205320, Note_on_c, 0, 66, 107
2, 205440, Note_on_c, 0, 66, 0
2, 205440, Note_on_c, 0, 81, 107
2, 205560, Note_on_c, 0, 81, 0
2, 205560, Note_on_c, 0, 76, 107
2, 205680, Note_on_c, 0, 76, 0
2, 205680, Note_on_c, 0, 81, 108
2, 205800, Note_on_c, 0, 81, 0
2, 205800, Note_on_c, 0, 76, 108
2, 205920, Note_on_c, 0, 76, 0
2, 205920, Note_on_c, 0, 74, 108
2, 206040, Note_on_c, 0, 74, 0
2, 206040, Note_on_c, 0, 78, 108
2, 206160, Note_on_c, 0, 78, 0
2, 206160, Note_on_c, 0, 74, 108
2, 206280, Note_on_c, 0, 74, 0
2, 206280, Note_on_c, 0, 78, 108
2, 206400, Note_on_c, 0, 78, 0
2, 206400, Note_on_c, 0, 76, 109
2, 206520, Note_on_c, 0, 76, 0
2, 206520, Note_on_c, 0, 71, 109
2, 206640, Note_on_c, 0, 71, 0
2, 206640, Note_on_c, 0, 69, 109
2, 206760, Note_on_c, 0, 69, 0
2, 206760, Note_on_c, 0, 73, 109
2, 206880, Note_on_c, 0, 73, 0
2, 206880, Note_on_c, 0, 74, 109
2, 207000, Note_on_c, 0, 74, 0
2, 207000, Note_on_c, 0, 76, 109
2, 207120, Note_on_c, 0, 76, 0
2, 207120, Note_on_c, 0, 78, 110
2, 207240, Note_on_c, 0, 78, 0
2, 207240, Note_on_c, 0, 79, 110
2, 207360, Note_on_c, 0, 79, 0
2, 207360, Note_on_c, 0, 81, 110
2, 207480, Note_on_c, 0, 81, 0
2, 207480, Note_on_c, 0, 76, 110
2, 207600, Note_on_c, 0, 76, 0
2, 207600, Note_on_c, 0, 81, 110
2, 207720, Note_on_c, 0, 81, 0
2, 207720, Note_on_c, 0, 76, 110
2, 207840, Note_on_c, 0, 76, 0
2, 207840, Note_on_c, 0, 74, 110
2, 207960, Note_on_c, 0, 74, 0
2, 207960, Note_on_c, 0, 78, 111
2, 208080, Note_on_c, 0, 78, 0
2, 208080, Note_on_c, 0, 74, 111
2, 208200, Note_on_c, 0, 74, 0
2, 208200, Note_on_c, 0, 78, 111
2, 208320, Note_on_c, 0, 78, 0
2, 208320, Note_on_c, 0, 76, 111
2, 208320, Note_on_c, 0, 71, 111
2, 208440, Note_on_c, 0, 76, 0
2, 208440, Note_on_c, 0, 78, 111
2, 208476, Note_on_c, 0, 71, 0
2, 208560, Note_on_c, 0, 78, 0
2, 208560, Note_on_c, 0, 79, 111
2, 208680, Note_on_c, 0, 79, 0
2, 208680, Note_on_c, 0, 81, 112
2, 208800, Note_on_c, 0, 81, 0
2, 208800, Note_on_c, 0, 76, 112
2, 208800, Note_on_c, 0, 79, 112
2, 208920, Note_on_c, 0, 79, 0
2, 208920, Note_on_c, 0, 81, 112
2, 208956, Note_on_c, 0, 76, 0
2, 209040, Note_on_c, 0, 81, 0
2, 209040, Note_on_c, 0, 83, 112
2, 209160, Note_on_c, 0, 83, 0
2, 209160, Note_on_c, 0, 85, 112
2, 209280, Note_on_c, 0, 85, 0
2, 209280, Control_c, 0, 64, 127
2, 209280, Note_on_c, 0, 74, 114
2, 209280, Note_on_c, 0, 86, 114
2, 209408, Note_on_c, 0, 86, 0
2, 209408, Note_on_c, 0, 74, 0
2, 209440, Note_on_c, 0, 74, 114
2, 209440, Note_on_c, 0, 86, 114
2, 209568, Note_on_c, 0, 86, 0
2, 209568, Note_on_c, 0, 74, 0
2, 209600, Note_on_c, 0, 74, 115
2, 209600, Note_on_c, 0, 86, 115
2, 209728, Note_on_c, 0, 86, 0
2, 209728, Note_on_c, 0, 74, 0
2, 209760, Note_on_c, 0, 74, 115
2, 209760, Note_on_c, 0, 86, 115
2, 209888, Note_on_c, 0, 86, 0
2, 209888, Note_on_c, 0, 74, 0
2, 209920, Note_on_c, 0, 74, 115
2, 209920, Note_on_c, 0, 86, 115
2, 210048, Note_on_c, 0, 86, 0
2, 210048, Note_on_c, 0, 74, 0
2, 210080, Note_on_c, 0, 74, 116
2, 210080, Note_on_c, 0, 86, 116
2, 210208, Note_on_c, 0, 86, 0
2, 210208, Note_on_c, 0, 74, 0
2, 210240, Note_on_c, 0, 74, 116
2, 210240, Note_on_c, 0, 86, 116
2, 210368, Note_on_c, 0, 86, 0
2, 210368, Note_on_c, 0, 74, 0
2, 210400, Note_on_c, 0, 74, 117
2, 210400, Note_on_c, 0, 86, 117
2, 210528, Note_on_c, 0, 86, 0
2, 210528, Note_on_c, 0, 74, 0
2, 210560, Note_on_c, 0, 74, 117
2, 210560, Note_on_c, 0, 86, 117
2, 212632, Note_on_c, 0, 74, 0
2, 212640, Note_on_c, 0, 86, 0
2, 212640, Control_c, 0, 64, 0
2, 212640, Note_on_c, 0, 74, 51
2, 212880, Note_on_c, 0, 74, 0
2, 212880, Note_on_c, 0, 77, 51
2, 213120, Note_on_c, 0, 77, 0
2, 213120, Note_on_c, 0, 81, 51
2, 213360, Note_on_c, 0, 81, 0
2, 213360, Note_on_c, 0, 77, 51
2, 213565, Note_on_c, 0, 77, 0
2, 213600, Note_on_c, 0, 74, 51
2, 213840, Note_on_c, 0, 74, 0
2, 213840, Note_on_c, 0, 77, 50
2, 214080, Note_on_c, 0, 77, 0
2, 214080, Note_on_c, 0, 81, 50
2, 214320, Note_on_c, 0, 81, 0
2, 214320, Note_on_c, 0, 77, 50
2, 214525, Note_on_c, 0, 77, 0
2, 214560, Note_on_c, 0, 74, 50
2, 214800, Note_on_c, 0, 74, 0
2, 214800, Note_on_c, 0, 77, 50
2, 215005, Note_on_c, 0, 77, 0
2, 215040, Note_on_c, 0, 82, 50
2, 215760, Note_on_c, 0, 82, 0
2, 215760, Note_on_c, 0, 81, 49
2, 215965, Note_on_c, 0, 81, 0
2, 216000, Note_on_c, 0, 82, 49
2, 216720, Note_on_c, 0, 82, 0
2, 216720, Note_on_c, 0, 81, 48
2, 216915, Note_on_c, 0, 81, 0
2, 216960, Note_on_c, 0, 79, 48
2, 217440, Note_on_c, 0, 79, 0
2, 217440, Note_on_c, 0, 75, 48
2, 217680, Note_on_c, 0, 75, 0
2, 217680, Note_on_c, 0, 77, 48
2, 217920, Note_on_c, 0, 77, 0
2, 217920, Note_on_c, 0, 79, 48
2, 218160, Note_on_c, 0, 79, 0
2, 218160, Note_on_c, 0, 77, 47
2, 218360, Note_on_c, 0, 77, 0
2, 218400, Note_on_c, 0, 75, 47
2, 218640, Note_on_c, 0, 75, 0
2, 218640, Note_on_c, 0, 77, 47
2, 218880, Note_on_c, 0, 77, 0
2, 218880, Note_on_c, 0, 79, 47
2, 219120, Note_on_c, 0, 79, 0
2, 219120, Note_on_c, 0, 77, 47
2, 219320, Note_on_c, 0, 77, 0
2, 219360, Note_on_c, 0, 75, 47
2, 219600, Note_on_c, 0, 75, 0
2, 219600, Note_on_c, 0, 77, 46
2, 219805, Note_on_c, 0, 77, 0
2, 219840, Note_on_c, 0, 79, 46
2, 220560, Note_on_c, 0, 79, 0
2, 220560, Note_on_c, 0, 77, 46
2, 220760, Note_on_c, 0, 77, 0
2, 220800, Note_on_c, 0, 79, 46
2, 221520, Note_on_c, 0, 79, 0
2, 221520, Note_on_c, 0, 77, 45
2, 221725, Note_on_c, 0, 77, 0
2, 221760, Note_on_c, 0, 77, 45
2, 221760, Note_on_c, 0, 80, 45
2, 223435, Note_on_c, 0, 80, 0
2, 223435, Note_on_c, 0, 77, 0
2, 223440, Note_on_c, 0, 77, 44
2, 223680, Note_on_c, 0, 77, 0
2, 223680, Note_on_c, 0, 74, 44
2, 223920, Note_on_c, 0, 74, 0
2, 223920, Note_on_c, 0, 77, 43
2, 224160, Note_on_c, 0, 77, 0
2, 224160, Note_on_c, 0, 80, 43
2, 224400, Note_on_c, 0, 80, 0
2, 224400, Note_on_c, 0, 77, 43
2, 224605, Note_on_c, 0, 77, 0
2, 224640, Note_on_c, 0, 74, 43
2, 225120, Note_on_c, 0, 74, 0
2, 225120, Note_on_c, 0, 75, 43
2, 225600, Note_on_c, 0, 75, 0
2, 225600, Note_on_c, 0, 77, 42
2, 226080, Note_on_c, 0, 77, 0
2, 226080, Note_on_c, 0, 79, 42
2, 226520, Note_on_c, 0, 79, 0
2, 226560, Note_on_c, 0, 80, 42
2, 227040, Note_on_c, 0, 80, 0
2, 227040, Note_on_c, 0, 80, 41
2, 228235, Note_on_c, 0, 80, 0
2, 228240, Note_on_c, 0, 77, 40
2, 228480, Note_on_c, 0, 77, 0
2, 228480, Note_on_c, 0, 74, 40
2, 228720, Note_on_c, 0, 74, 0
2, 228720, Note_on_c, 0, 77, 40
2, 228960, Note_on_c, 0, 77, 0
2, 228960, Note_on_c, 0, 80, 40
2, 229200, Note_on_c, 0, 80, 0
2, 229200, Note_on_c, 0, 77, 40
2, 229405, Note_on_c, 0, 77, 0
2, 229440, Note_on_c, 0, 77, 41
2, 229920, Note_on_c, 0, 77, 0
2, 229920, Note_on_c, 0, 75, 46
2, 230160, Note_on_c, 0, 75, 0
2, 230160, Note_on_c, 0, 77, 48
2, 230400, Note_on_c, 0, 77, 0
2, 230400, Note_on_c, 0, 75, 51
2, 230880, Note_on_c, 0, 75, 0
2, 230880, Note_on_c, 0, 74, 55
2, 231320, Note_on_c, 0, 74, 0
2, 231360, Note_on_c, 0, 70, 77
2, 231360, Note_on_c, 0, 73, 77
2, 231464, Note_on_c, 0, 73, 0
2, 231464, Note_on_c, 0, 70, 0
2, 231520, Note_on_c, 0, 70, 79
2, 231520, Note_on_c, 0, 73, 79
2, 231624, Note_on_c, 0, 73, 0
2, 231624, Note_on_c, 0, 70, 0
2, 231680, Note_on_c, 0, 77, 80
2, 231680, Note_on_c, 0, 70, 80
2, 231784, Note_on_c, 0, 70, 0
2, 231784, Note_on_c, 0, 77, 0
2, 231840, Note_on_c, 0, 69, 84
2, 231840, Note_on_c, 0, 81, 84
2, 232200, Note_on_c, 0, 81, 0
2, 232200, Note_on_c, 0, 69, 0
2, 232320, Note_on_c, 0, 70, 76
2, 232320, Note_on_c, 0, 82, 76
2, 232476, Note_on_c, 0, 82, 0
2, 232476, Note_on_c, 0, 70, 0
2, 232560, Note_on_c, 0, 70, 79
2, 232560, Note_on_c, 0, 82, 79
2, 232716, Note_on_c, 0, 82, 0
2, 232716, Note_on_c, 0, 70, 0
2, 232800, Note_on_c, 0, 69, 82
2, 232800, Note_on_c, 0, 81, 82
2, 233160, Note_on_c, 0, 81, 0
2, 233160, Note_on_c, 0, 69, 0
2, 233280, Note_on_c, 0, 63, 75
2, 233280, Note_on_c, 0, 75, 75
2, 233384, Note_on_c, 0, 75, 0
2, 233384, Note_on_c, 0, 63, 0
2, 233440, Note_on_c, 0, 65, 75
2, 233440, Note_on_c, 0, 77, 75
2, 233544, Note_on_c, 0, 77, 0
2, 233544, Note_on_c, 0, 65, 0
2, 233600, Note_on_c, 0, 66, 78
2, 233600, Note_on_c, 0, 78, 78
2, 233704, Note_on_c, 0, 78, 0
2, 233704, Note_on_c, 0, 66, 0
2, 233760, Note_on_c, 0, 68, 81
2, 233760, Note_on_c, 0, 80, 81
2, 234120, Note_on_c, 0, 80, 0
2, 234120, Note_on_c, 0, 68, 0
2, 234240, Note_on_c, 0, 66, 74
2, 234240, Note_on_c, 0, 78, 74
2, 234396, Note_on_c, 0, 78, 0
2, 234396, Note_on_c, 0, 66, 0
2, 234480, Note_on_c, 0, 66, 78
2, 234480, Note_on_c, 0, 78, 78
2, 234636, Note_on_c, 0, 78, 0
2, 234636, Note_on_c, 0, 66, 0
2, 234720, Note_on_c, 0, 65, 83
2, 234720, Note_on_c, 0, 77, 83
2, 235080, Note_on_c, 0, 77, 0
2, 235080, Note_on_c, 0, 65, 0
2, 235680, Note_on_c, 0, 82, 73
2, 235680, Note_on_c, 0, 70, 73
2, 235784, Note_on_c, 0, 70, 0
2, 235784, Note_on_c, 0, 82, 0
2, 235840, Note_on_c, 0, 70, 73
2, 235840, Note_on_c, 0, 82, 73
2, 235944, Note_on_c, 0, 82, 0
2, 235944, Note_on_c, 0, 70, 0
2, 236000, Note_on_c, 0, 70, 72
2, 236000, Note_on_c, 0, 82, 72
2, 236104, Note_on_c, 0, 82, 0
2, 236104, Note_on_c, 0, 70, 0
2, 236160, Note_on_c, 0, 58, 72
2, 236160, Note_on_c, 0, 70, 72
2, 236735, Note_on_c, 0, 58, 0
2, 236744, Note_on_c, 0, 70, 0
2, 236800, Note_on_c, 0, 59, 71
2, 236800, Note_on_c, 0, 71, 71
2, 236904, Note_on_c, 0, 71, 0
2, 236904, Note_on_c, 0, 59, 0
2, 236960, Note_on_c, 0, 61, 71
2, 236960, Note_on_c, 0, 73, 71
2, 237064, Note_on_c, 0, 73, 0
2, 237064, Note_on_c, 0, 61, 0
2, 237120, Note_on_c, 0, 75, 71
2, 237120, Note_on_c, 0, 63, 71
2, 237480, Note_on_c, 0, 63, 0
2, 237480, Note_on_c, 0, 75, 0
2, 237600, Note_on_c, 0, 61, 71
2, 237600, Note_on_c, 0, 73, 71
2, 237704, Note_on_c, 0, 73, 0
2, 237704, Note_on_c, 0, 61, 0
2, 237760, Note_on_c, 0, 63, 70
2, 237760, Note_on_c, 0, 75, 70
2, 237864, Note_on_c, 0, 75, 0
2, 237864, Note_on_c, 0, 63, 0
2, 237920, Note_on_c, 0, 65, 70
2, 237920, Note_on_c, 0, 77, 70
2, 238024, Note_on_c, 0, 77, 0
2, 238024, Note_on_c, 0, 65, 0
2, 238080, Note_on_c, 0, 66, 70
2, 238080, Note_on_c, 0, 78, 70
2, 238236, Note_on_c, 0, 78, 0
2, 238236, Note_on_c, 0, 66, 0
2, 238320, Note_on_c, 0, 65, 70
2, 238320, Note_on_c, 0, 77, 70
2, 238476, Note_on_c, 0, 77, 0
2, 238476, Note_on_c, 0, 65, 0
2, 238560, Note_on_c, 0, 75, 70
2, 238560, Note_on_c, 0, 87, 70
2, 238664, Note_on_c, 0, 87, 0
2, 238664, Note_on_c, 0, 75, 0
2, 238720, Note_on_c, 0, 75, 69
2, 238720, Note_on_c, 0, 87, 69
2, 238824, Note_on_c, 0, 87, 0
2, 238824, Note_on_c, 0, 75, 0
2, 238880, Note_on_c, 0, 75, 69
2, 238880, Note_on_c, 0, 87, 69
2, 238984, Note_on_c, 0, 87, 0
2, 238984, Note_on_c, 0, 75, 0
2, 239040, Note_on_c, 0, 63, 69
2, 239040, Note_on_c, 0, 75, 69
2, 239520, Note_on_c, 0, 75, 0
2, 239520, Note_on_c, 0, 63, 0
2, 239520, Note_on_c, 0, 63, 68
2, 239520, Note_on_c, 0, 75, 68
2, 239624, Note_on_c, 0, 75, 0
2, 239624, Note_on_c, 0, 63, 0
2, 239680, Note_on_c, 0, 65, 68
2, 239680, Note_on_c, 0, 77, 68
2, 239784, Note_on_c, 0, 77, 0
2, 239784, Note_on_c, 0, 65, 0
2, 239840, Note_on_c, 0, 78, 68
2, 239840, Note_on_c, 0, 66, 68
2, 239944, Note_on_c, 0, 66, 0
2, 239944, Note_on_c, 0, 78, 0
2, 240000, Note_on_c, 0, 68, 68
2, 240000, Note_on_c, 0, 80, 68
2, 240360, Note_on_c, 0, 80, 0
2, 240360, Note_on_c, 0, 68, 0
2, 240480, Note_on_c, 0, 66, 67
2, 240480, Note_on_c, 0, 78, 67
2, 240584, Note_on_c, 0, 78, 0
2, 240584, Note_on_c, 0, 66, 0
2, 240640, Note_on_c, 0, 80, 67
2, 240640, Note_on_c, 0, 68, 67
2, 240744, Note_on_c, 0, 68, 0
2, 240744, Note_on_c, 0, 80, 0
2, 240800, Note_on_c, 0, 70, 67
2, 240800, Note_on_c, 0, 82, 67
2, 240904, Note_on_c, 0, 82, 0
2, 240904, Note_on_c, 0, 70, 0
2, 240960, Note_on_c, 0, 71, 67
2, 240960, Note_on_c, 0, 83, 67
2, 241116, Note_on_c, 0, 83, 0
2, 241116, Note_on_c, 0, 71, 0
2, 241200, Note_on_c, 0, 70, 67
2, 241200, Note_on_c, 0, 82, 67
2, 241356, Note_on_c, 0, 82, 0
2, 241356, Note_on_c, 0, 70, 0
2, 241440, Note_on_c, 0, 69, 66
2, 241440, Note_on_c, 0, 81, 66
2, 241800, Note_on_c, 0, 81, 0
2, 241800, Note_on_c, 0, 69, 0
2, 241920, Note_on_c, 0, 70, 66
2, 241920, Note_on_c, 0, 82, 66
2, 242280, Note_on_c, 0, 82, 0
2, 242280, Note_on_c, 0, 70, 0
2, 242400, Note_on_c, 0, 58, 69
2, 242400, Note_on_c, 0, 70, 69
2, 243360, Note_on_c, 0, 70, 0
2, 243360, Note_on_c, 0, 58, 0
2, 243360, Note_on_c, 0, 74, 53
2, 243600, Note_on_c, 0, 74, 0
2, 243600, Note_on_c, 0, 77, 53
2, 243840, Note_on_c, 0, 77, 0
2, 243840, Note_on_c, 0, 81, 53
2, 244080, Note_on_c, 0, 81, 0
2, 244080, Note_on_c, 0, 77, 52
2, 244285, Note_on_c, 0, 77, 0
2, 244320, Note_on_c, 0, 74, 52
2, 244560, Note_on_c, 0, 74, 0
2, 244560, Note_on_c, 0, 77, 52
2, 244800, Note_on_c, 0, 77, 0
2, 244800, Note_on_c, 0, 81, 52
2, 245040, Note_on_c, 0, 81, 0
2, 245040, Note_on_c, 0, 77, 52
2, 245245, Note_on_c, 0, 77, 0
2, 245280, Note_on_c, 0, 74, 52
2, 245520, Note_on_c, 0, 74, 0
2, 245520, Note_on_c, 0, 77, 51
2, 245725, Note_on_c, 0, 77, 0
2, 245760, Note_on_c, 0, 82, 51
2, 246480, Note_on_c, 0, 82, 0
2, 246480, Note_on_c, 0, 81, 51
2, 246685, Note_on_c, 0, 81, 0
2, 246720, Note_on_c, 0, 82, 50
2, 247440, Note_on_c, 0, 82, 0
2, 247440, Note_on_c, 0, 81, 50
2, 247635, Note_on_c, 0, 81, 0
2, 247680, Note_on_c, 0, 79, 50
2, 248160, Note_on_c, 0, 79, 0
2, 248160, Note_on_c, 0, 75, 49
2, 248400, Note_on_c, 0, 75, 0
2, 248400, Note_on_c, 0, 77, 49
2, 248640, Note_on_c, 0, 77, 0
2, 248640, Note_on_c, 0, 79, 49
2, 248880, Note_on_c, 0, 79, 0
2, 248880, Note_on_c, 0, 77, 49
2, 249080, Note_on_c, 0, 77, 0
2, 249120, Note_on_c, 0, 75, 48
2, 249360, Note_on_c, 0, 75, 0
2, 249360, Note_on_c, 0, 77, 48
2, 249600, Note_on_c, 0, 77, 0
2, 249600, Note_on_c, 0, 79, 48
2, 249840, Note_on_c, 0, 79, 0
2, 249840, Note_on_c, 0, 77, 48
2, 250040, Note_on_c, 0, 77, 0
2, 250080, Note_on_c, 0, 75, 48
2, 250320, Note_on_c, 0, 75, 0
2, 250320, Note_on_c, 0, 77, 47
2, 250525, Note_on_c, 0, 77, 0
2, 250560, Note_on_c, 0, 79, 47
2, 251280, Note_on_c, 0, 79, 0
2, 251280, Note_on_c, 0, 77, 47
2, 251480, Note_on_c, 0, 77, 0
2, 251520, Note_on_c, 0, 79, 46
2, 252240, Note_on_c, 0, 79, 0
2, 252240, Note_on_c, 0, 77, 46
2, 252445, Note_on_c, 0, 77, 0
2, 252480, Note_on_c, 0, 80, 52
2, 253200, Note_on_c, 0, 80, 0
2, 253200, Note_on_c, 0, 77, 45
2, 253440, Note_on_c, 0, 77, 0
2, 253440, Note_on_c, 0, 74, 45
2, 253680, Note_on_c, 0, 74, 0
2, 253680, Note_on_c, 0, 77, 45
2, 253920, Note_on_c, 0, 77, 0
2, 253920, Note_on_c, 0, 80, 44
2, 254160, Note_on_c, 0, 80, 0
2, 254160, Note_on_c, 0, 77, 44
2, 254365, Note_on_c, 0, 77, 0
2, 254400, Note_on_c, 0, 74, 44
2, 254880, Note_on_c, 0, 74, 0
2, 254880, Note_on_c, 0, 75, 44
2, 255360, Note_on_c, 0, 75, 0
2, 255360, Note_on_c, 0, 77, 43
2, 255840, Note_on_c, 0, 77, 0
2, 255840, Note_on_c, 0, 80, 43
2, 256305, Note_on_c, 0, 80, 0
2, 256320, Note_on_c, 0, 81, 50
2, 257040, Note_on_c, 0, 81, 0
2, 257040, Note_on_c, 0, 77, 42
2, 257280, Note_on_c, 0, 77, 0
2, 257280, Note_on_c, 0, 74, 42
2, 257520, Note_on_c, 0, 74, 0
2, 257520, Note_on_c, 0, 77, 41
2, 257760, Note_on_c, 0, 77, 0
2, 257760, Note_on_c, 0, 81, 41
2, 258000, Note_on_c, 0, 81, 0
2, 258000, Note_on_c, 0, 77, 41
2, 258205, Note_on_c, 0, 77, 0
2, 258240, Note_on_c, 0, 74, 41
2, 258720, Note_on_c, 0, 74, 0
2, 258720, Note_on_c, 0, 76, 41
2, 259200, Note_on_c, 0, 76, 0
2, 259200, Note_on_c, 0, 77, 40
2, 259680, Note_on_c, 0, 77, 0
2, 259680, Note_on_c, 0, 81, 40
2, 260145, Note_on_c, 0, 81, 0
2, 260160, Note_on_c, 0, 86, 39
2, 262080, Note_on_c, 0, 86, 0
2, 262080, Note_on_c, 0, 85, 39
2, 262560, Note_on_c, 0, 85, 0
2, 262560, Note_on_c, 0, 57, 42
2, 262680, Note_on_c, 0, 57, 0
2, 262680, Note_on_c, 0, 56, 43
2, 262800, Note_on_c, 0, 56, 0
2, 262800, Note_on_c, 0, 57, 43
2, 262920, Note_on_c, 0, 57, 0
2, 262920, Note_on_c, 0, 59, 44
2, 263040, Note_on_c, 0, 59, 0
2, 263040, Note_on_c, 0, 61, 44
2, 263160, Note_on_c, 0, 61, 0
2, 263160, Note_on_c, 0, 59, 45
2, 263280, Note_on_c, 0, 59, 0
2, 263280, Note_on_c, 0, 61, 45
2, 263400, Note_on_c, 0, 61, 0
2, 263400, Note_on_c, 0, 64, 46
2, 263520, Note_on_c, 0, 64, 0
2, 263520, Note_on_c, 0, 59, 47
2, 263640, Note_on_c, 0, 59, 0
2, 263640, Note_on_c, 0, 58, 47
2, 263760, Note_on_c, 0, 58, 0
2, 263760, Note_on_c, 0, 59, 48
2, 263880, Note_on_c, 0, 59, 0
2, 263880, Note_on_c, 0, 61, 48
2, 264000, Note_on_c, 0, 61, 0
2, 264000, Note_on_c, 0, 62, 49
2, 264120, Note_on_c, 0, 62, 0
2, 264120, Note_on_c, 0, 61, 50
2, 264240, Note_on_c, 0, 61, 0
2, 264240, Note_on_c, 0, 62, 50
2, 264360, Note_on_c, 0, 62, 0
2, 264360, Note_on_c, 0, 65, 51
2, 264480, Note_on_c, 0, 65, 0
2, 264480, Note_on_c, 0, 60, 51
2, 264600, Note_on_c, 0, 60, 0
2, 264600, Note_on_c, 0, 59, 52
2, 264720, Note_on_c, 0, 59, 0
2, 264720, Note_on_c, 0, 60, 52
2, 264840, Note_on_c, 0, 60, 0
2, 264840, Note_on_c, 0, 62, 53
2, 264840, Note_on_c, 0, 55, 53
2, 264960, Note_on_c, 0, 55, 0
2, 264960, Note_on_c, 0, 62, 0
2, 264960, Note_on_c, 0, 64, 54
2, 265080, Note_on_c, 0, 64, 0
2, 265080, Note_on_c, 0, 62, 54
2, 265200, Note_on_c, 0, 62, 0
2, 265200, Note_on_c, 0, 64, 55
2, 265320, Note_on_c, 0, 64, 0
2, 265320, Note_on_c, 0, 67, 55
2, 265440, Note_on_c, 0, 67, 0
2, 265440, Note_on_c, 0, 67, 56
2, 265560, Note_on_c, 0, 67, 0
2, 265560, Note_on_c, 0, 66, 57
2, 265680, Note_on_c, 0, 66, 0
2, 265680, Note_on_c, 0, 67, 57
2, 265800, Note_on_c, 0, 67, 0
2, 265800, Note_on_c, 0, 73, 58
2, 265920, Note_on_c, 0, 73, 0
2, 265920, Note_on_c, 0, 67, 58
2, 265920, Note_on_c, 0, 73, 58
2, 266040, Note_on_c, 0, 73, 0
2, 266040, Note_on_c, 0, 71, 59
2, 266160, Note_on_c, 0, 71, 0
2, 266160, Note_on_c, 0, 73, 59
2, 266280, Note_on_c, 0, 73, 0
2, 266280, Note_on_c, 0, 76, 60
2, 266400, Note_on_c, 0, 76, 0
2, 266400, Note_on_c, 0, 67, 0
2, 266400, Note_on_c, 0, 67, 61
2, 266400, Note_on_c, 0, 76, 61
2, 266520, Note_on_c, 0, 76, 0
2, 266520, Note_on_c, 0, 74, 61
2, 266640, Note_on_c, 0, 74, 0
2, 266640, Note_on_c, 0, 76, 62
2, 266760, Note_on_c, 0, 76, 0
2, 266760, Note_on_c, 0, 79, 62
2, 266880, Note_on_c, 0, 79, 0
2, 266880, Note_on_c, 0, 67, 0
2, 266880, Note_on_c, 0, 76, 63
2, 266880, Note_on_c, 0, 79, 63
2, 267000, Note_on_c, 0, 79, 0
2, 267000, Note_on_c, 0, 78, 64
2, 267120, Note_on_c, 0, 78, 0
2, 267120, Note_on_c, 0, 79, 64
2, 267240, Note_on_c, 0, 79, 0
2, 267240, Note_on_c, 0, 85, 65
2, 267360, Note_on_c, 0, 85, 0
2, 267360, Note_on_c, 0, 76, 0
2, 267360, Note_on_c, 0, 76, 65
2, 267360, Note_on_c, 0, 79, 65
2, 267480, Note_on_c, 0, 79, 0
2, 267480, Note_on_c, 0, 78, 66
2, 267600, Note_on_c, 0, 78, 0
2, 267600, Note_on_c, 0, 79, 66
2, 267720, Note_on_c, 0, 79, 0
2, 267720, Note_on_c, 0, 85, 67
2, 267840, Note_on_c, 0, 85, 0
2, 267840, Note_on_c, 0, 76, 0
2, 267840, Note_on_c, 0, 76, 68
2, 267840, Note_on_c, 0, 85, 68
2, 267960, Note_on_c, 0, 85, 0
2, 267960, Note_on_c, 0, 83, 68
2, 268080, Note_on_c, 0, 83, 0
2, 268080, Note_on_c, 0, 85, 69
2, 268200, Note_on_c, 0, 85, 0
2, 268200, Note_on_c, 0, 88, 69
2, 268320, Note_on_c, 0, 88, 0
2, 268320, Note_on_c, 0, 76, 0
2, 268320, Note_on_c, 0, 81, 70
2, 268320, Note_on_c, 0, 88, 70
2, 268440, Note_on_c, 0, 88, 0
2, 268440, Note_on_c, 0, 86, 71
2, 268560, Note_on_c, 0, 86, 0
2, 268560, Note_on_c, 0, 88, 71
2, 268680, Note_on_c, 0, 88, 0
2, 268680, Note_on_c, 0, 92, 72
2, 268800, Note_on_c, 0, 92, 0
2, 268800, Note_on_c, 0, 81, 0
2, 268800, Note_on_c, 0, 45, 72
2, 268880, Note_on_c, 0, 45, 0
2, 268880, Note_on_c, 0, 47, 73
2, 268960, Note_on_c, 0, 47, 0
2, 268960, Note_on_c, 0, 49, 73
2, 269040, Note_on_c, 0, 49, 0
2, 269040, Note_on_c, 0, 50, 73
2, 269120, Note_on_c, 0, 50, 0
2, 269120, Note_on_c, 0, 52, 74
2, 269200, Note_on_c, 0, 52, 0
2, 269200, Note_on_c, 0, 54, 74
2, 269280, Note_on_c, 0, 54, 0
2, 269280, Note_on_c, 0, 55, 75
2, 269360, Note_on_c, 0, 55, 0
2, 269360, Note_on_c, 0, 57, 75
2, 269440, Note_on_c, 0, 57, 0
2, 269440, Note_on_c, 0, 59, 75
2, 269520, Note_on_c, 0, 59, 0
2, 269520, Note_on_c, 0, 61, 76
2, 269600, Note_on_c, 0, 61, 0
2, 269600, Note_on_c, 0, 62, 76
2, 269680, Note_on_c, 0, 62, 0
2, 269680, Note_on_c, 0, 64, 77
2, 269760, Note_on_c, 0, 64, 0
2, 269760, Note_on_c, 0, 66, 78
2, 269880, Note_on_c, 0, 66, 0
2, 269880, Note_on_c, 0, 64, 78
2, 270000, Note_on_c, 0, 64, 0
2, 270000, Note_on_c, 0, 66, 78
2, 270120, Note_on_c, 0, 66, 0
2, 270120, Note_on_c, 0, 69, 78
2, 270240, Note_on_c, 0, 69, 0
2, 270240, Note_on_c, 0, 74, 78
2, 270360, Note_on_c, 0, 74, 0
2, 270360, Note_on_c, 0, 73, 78
2, 270480, Note_on_c, 0, 73, 0
2, 270480, Note_on_c, 0, 74, 78
2, 270600, Note_on_c, 0, 74, 0
2, 270600, Note_on_c, 0, 78, 78
2, 270720, Note_on_c, 0, 78, 0
2, 270720, Note_on_c, 0, 69, 79
2, 270720, Note_on_c, 0, 81, 79
2, 270840, Note_on_c, 0, 81, 0
2, 270840, Note_on_c, 0, 69, 0
2, 270840, Note_on_c, 0, 78, 79
2, 270960, Note_on_c, 0, 78, 0
2, 270960, Note_on_c, 0, 71, 79
2, 270960, Note_on_c, 0, 83, 79
2, 271080, Note_on_c, 0, 83, 0
2, 271080, Note_on_c, 0, 71, 0
2, 271080, Note_on_c, 0, 79, 79
2, 271200, Note_on_c, 0, 79, 0
2, 271200, Note_on_c, 0, 81, 79
2, 271200, Note_on_c, 0, 69, 79
2, 271320, Note_on_c, 0, 69, 0
2, 271320, Note_on_c, 0, 81, 0
2, 271320, Note_on_c, 0, 78, 79
2, 271440, Note_on_c, 0, 78, 0
2, 271440, Note_on_c, 0, 76, 79
2, 271560, Note_on_c, 0, 76, 0
2, 271560, Note_on_c, 0, 74, 79
2, 271680, Note_on_c, 0, 74, 0
2, 271680, Note_on_c, 0, 71, 78
2, 271800, Note_on_c, 0, 71, 0
2, 271800, Note_on_c, 0, 70, 79
2, 271920, Note_on_c, 0, 70, 0
2, 271920, Note_on_c, 0, 71, 80
2, 272040, Note_on_c, 0, 71, 0
2, 272040, Note_on_c, 0, 76, 82
2, 272160, Note_on_c, 0, 76, 0
2, 272160, Note_on_c, 0, 79, 83
2, 272280, Note_on_c, 0, 79, 0
2, 272280, Note_on_c, 0, 78, 84
2, 272400, Note_on_c, 0, 78, 0
2, 272400, Note_on_c, 0, 79, 85
2, 272520, Note_on_c, 0, 79, 0
2, 272520, Note_on_c, 0, 80, 86
2, 272640, Note_on_c, 0, 80, 0
2, 272640, Note_on_c, 0, 81, 89
2, 272760, Note_on_c, 0, 81, 0
2, 272760, Note_on_c, 0, 76, 88
2, 272880, Note_on_c, 0, 76, 0
2, 272880, Note_on_c, 0, 81, 87
2, 273000, Note_on_c, 0, 81, 0
2, 273000, Note_on_c, 0, 79, 86
2, 273120, Note_on_c, 0, 79, 0
2, 273120, Note_on_c, 0, 78, 85
2, 273240, Note_on_c, 0, 78, 0
2, 273240, Note_on_c, 0, 74, 84
2, 273360, Note_on_c, 0, 74, 0
2, 273360, Note_on_c, 0, 69, 83
2, 273480, Note_on_c, 0, 69, 0
2, 273480, Note_on_c, 0, 66, 82
2, 273600, Note_on_c, 0, 66, 0
2, 273600, Note_on_c, 0, 81, 82
2, 273720, Note_on_c, 0, 81, 0
2, 273720, Note_on_c, 0, 76, 82
2, 273840, Note_on_c, 0, 76, 0
2, 273840, Note_on_c, 0, 81, 82
2, 273960, Note_on_c, 0, 81, 0
2, 273960, Note_on_c, 0, 76, 82
2, 274080, Note_on_c, 0, 76, 0
2, 274080, Note_on_c, 0, 74, 82
2, 274200, Note_on_c, 0, 74, 0
2, 274200, Note_on_c, 0, 77, 82
2, 274320, Note_on_c, 0, 77, 0
2, 274320, Note_on_c, 0, 74, 82
2, 274440, Note_on_c, 0, 74, 0
2, 274440, Note_on_c, 0, 77, 82
2, 274560, Note_on_c, 0, 77, 0
2, 274560, Note_on_c, 0, 76, 83
2, 274680, Note_on_c, 0, 76, 0
2, 274680, Note_on_c, 0, 71, 83
2, 274800, Note_on_c, 0, 71, 0
2, 274800, Note_on_c, 0, 76, 83
2, 274920, Note_on_c, 0, 76, 0
2, 274920, Note_on_c, 0, 71, 83
2, 275040, Note_on_c, 0, 71, 0
2, 275040, Note_on_c, 0, 69, 83
2, 275160, Note_on_c, 0, 69, 0
2, 275160, Note_on_c, 0, 73, 83
2, 275280, Note_on_c, 0, 73, 0
2, 275280, Note_on_c, 0, 69, 83
2, 275400, Note_on_c, 0, 69, 0
2, 275400, Note_on_c, 0, 73, 83
2, 275520, Note_on_c, 0, 73, 0
2, 275520, Note_on_c, 0, 74, 84
2, 275520, Note_on_c, 0, 65, 84
2, 275640, Note_on_c, 0, 65, 0
2, 275640, Note_on_c, 0, 74, 0
2, 275640, Note_on_c, 0, 69, 84
2, 275760, Note_on_c, 0, 69, 0
2, 275760, Note_on_c, 0, 76, 84
2, 275760, Note_on_c, 0, 67, 84
2, 275880, Note_on_c, 0, 67, 0
2, 275880, Note_on_c, 0, 76, 0
2, 275880, Note_on_c, 0, 72, 84
2, 276000, Note_on_c, 0, 72, 0
2, 276000, Note_on_c, 0, 69, 84
2, 276000, Note_on_c, 0, 77, 84
2, 276120, Note_on_c, 0, 77, 0
2, 276120, Note_on_c, 0, 69, 0
2, 276120, Note_on_c, 0, 72, 84
2, 276240, Note_on_c, 0, 72, 0
2, 276240, Note_on_c, 0, 72, 84
2, 276240, Note_on_c, 0, 79, 84
2, 276360, Note_on_c, 0, 79, 0
2, 276360, Note_on_c, 0, 72, 0
2, 276360, Note_on_c, 0, 76, 84
2, 276480, Note_on_c, 0, 76, 0
2, 276480, Note_on_c, 0, 72, 85
2, 276480, Note_on_c, 0, 81, 85
2, 276600, Note_on_c, 0, 81, 0
2, 276600, Note_on_c, 0, 72, 0
2, 276600, Note_on_c, 0, 77, 85
2, 276720, Note_on_c, 0, 77, 0
2, 276720, Note_on_c, 0, 70, 85
2, 276720, Note_on_c, 0, 79, 85
2, 276840, Note_on_c, 0, 79, 0
2, 276840, Note_on_c, 0, 70, 0
2, 276840, Note_on_c, 0, 76, 85
2, 276960, Note_on_c, 0, 76, 0
2, 276960, Note_on_c, 0, 71, 85
2, 276960, Note_on_c, 0, 77, 85
2, 277080, Note_on_c, 0, 77, 0
2, 277080, Note_on_c, 0, 71, 0
2, 277080, Note_on_c, 0, 74, 85
2, 277200, Note_on_c, 0, 74, 0
2, 277200, Note_on_c, 0, 69, 85
2, 277200, Note_on_c, 0, 76, 85
2, 277320, Note_on_c, 0, 76, 0
2, 277320, Note_on_c, 0, 69, 0
2, 277320, Note_on_c, 0, 73, 85
2, 277440, Note_on_c, 0, 73, 0
2, 277440, Note_on_c, 0, 81, 86
2, 277560, Note_on_c, 0, 81, 0
2, 277560, Note_on_c, 0, 76, 86
2, 277680, Note_on_c, 0, 76, 0
2, 277680, Note_on_c, 0, 81, 86
2, 277800, Note_on_c, 0, 81, 0
2, 277800, Note_on_c, 0, 76, 86
2, 277920, Note_on_c, 0, 76, 0
2, 277920, Note_on_c, 0, 74, 86
2, 278040, Note_on_c, 0, 74, 0
2, 278040, Note_on_c, 0, 78, 86
2, 278160, Note_on_c, 0, 78, 0
2, 278160, Note_on_c, 0, 74, 86
2, 278280, Note_on_c, 0, 74, 0
2, 278280, Note_on_c, 0, 78, 86
2, 278400, Note_on_c, 0, 78, 0
2, 278400, Note_on_c, 0, 76, 87
2, 278520, Note_on_c, 0, 76, 0
2, 278520, Note_on_c, 0, 71, 87
2, 278640, Note_on_c, 0, 71, 0
2, 278640, Note_on_c, 0, 76, 87
2, 278760, Note_on_c, 0, 76, 0
2, 278760, Note_on_c, 0, 71, 87
2, 278880, Note_on_c, 0, 71, 0
2, 278880, Note_on_c, 0, 69, 87
2, 279000, Note_on_c, 0, 69, 0
2, 279000, Note_on_c, 0, 73, 87
2, 279120, Note_on_c, 0, 73, 0
2, 279120, Note_on_c, 0, 69, 87
2, 279240, Note_on_c, 0, 69, 0
2, 279240, Note_on_c, 0, 73, 87
2, 279360, Note_on_c, 0, 73, 0
2, 279360, Note_on_c, 0, 74, 88
2, 279480, Note_on_c, 0, 74, 0
2, 279480, Note_on_c, 0, 69, 88
2, 279600, Note_on_c, 0, 69, 0
2, 279600, Note_on_c, 0, 74, 88
2, 279720, Note_on_c, 0, 74, 0
2, 279720, Note_on_c, 0, 69, 88
2, 279840, Note_on_c, 0, 69, 0
2, 279840, Note_on_c, 0, 67, 88
2, 279960, Note_on_c, 0, 67, 0
2, 279960, Note_on_c, 0, 71, 88
2, 280080, Note_on_c, 0, 71, 0
2, 280080, Note_on_c, 0, 67, 88
2, 280200, Note_on_c, 0, 67, 0
2, 280200, Note_on_c, 0, 71, 88
2, 280320, Note_on_c, 0, 71, 0
2, 280320, Note_on_c, 0, 69, 89
2, 280440, Note_on_c, 0, 69, 0
2, 280440, Note_on_c, 0, 64, 89
2, 280560, Note_on_c, 0, 64, 0
2, 280560, Note_on_c, 0, 69, 89
2, 280680, Note_on_c, 0, 69, 0
2, 280680, Note_on_c, 0, 64, 89
2, 280800, Note_on_c, 0, 64, 0
2, 280800, Note_on_c, 0, 62, 89
2, 280920, Note_on_c, 0, 62, 0
2, 280920, Note_on_c, 0, 66, 89
2, 281040, Note_on_c, 0, 66, 0
2, 281040, Note_on_c, 0, 62, 89
2, 281160, Note_on_c, 0, 62, 0
2, 281160, Note_on_c, 0, 66, 89
2, 281280, Note_on_c, 0, 66, 0
2, 281280, Note_on_c, 0, 64, 90
2, 281400, Note_on_c, 0, 64, 0
2, 281400, Note_on_c, 0, 66, 90
2, 281520, Note_on_c, 0, 66, 0
2, 281520, Note_on_c, 0, 64, 90
2, 281640, Note_on_c, 0, 64, 0
2, 281640, Note_on_c, 0, 66, 90
2, 281760, Note_on_c, 0, 66, 0
2, 281760, Note_on_c, 0, 67, 90
2, 281880, Note_on_c, 0, 67, 0
2, 281880, Note_on_c, 0, 71, 90
2, 282000, Note_on_c, 0, 71, 0
2, 282000, Note_on_c, 0, 67, 90
2, 282120, Note_on_c, 0, 67, 0
2, 282120, Note_on_c, 0, 71, 90
2, 282240, Note_on_c, 0, 71, 0
2, 282240, Note_on_c, 0, 76, 91
2, 282240, Note_on_c, 0, 67, 91
2, 282360, Note_on_c, 0, 67, 0
2, 282360, Note_on_c, 0, 76, 0
2, 282360, Note_on_c, 0, 71, 91
2, 282360, Note_on_c, 0, 78, 91
2, 282480, Note_on_c, 0, 78, 0
2, 282480, Note_on_c, 0, 71, 0
2, 282480, Note_on_c, 0, 67, 91
2, 282480, Note_on_c, 0, 76, 91
2, 282600, Note_on_c, 0, 76, 0
2, 282600, Note_on_c, 0, 67, 0
2, 282600, Note_on_c, 0, 71, 91
2, 282600, Note_on_c, 0, 78, 91
2, 282720, Note_on_c, 0, 78, 0
2, 282720, Note_on_c, 0, 71, 0
2, 282720, Note_on_c, 0, 79, 91
2, 282720, Note_on_c, 0, 76, 91
2, 282840, Note_on_c, 0, 76, 0
2, 282840, Note_on_c, 0, 79, 0
2, 282840, Note_on_c, 0, 83, 91
2, 282840, Note_on_c, 0, 78, 91
2, 282960, Note_on_c, 0, 78, 0
2, 282960, Note_on_c, 0, 83, 0
2, 282960, Note_on_c, 0, 79, 91
2, 282960, Note_on_c, 0, 76, 91
2, 283080, Note_on_c, 0, 76, 0
2, 283080, Note_on_c, 0, 79, 0
2, 283080, Note_on_c, 0, 83, 91
2, 283080, Note_on_c, 0, 78, 91
2, 283200, Note_on_c, 0, 78, 0
2, 283200, Note_on_c, 0, 83, 0
2, 283200, Note_on_c, 0, 52, 92
2, 283320, Note_on_c, 0, 52, 0
2, 283320, Note_on_c, 0, 54, 92
2, 283440, Note_on_c, 0, 54, 0
2, 283440, Note_on_c, 0, 52, 92
2, 283560, Note_on_c, 0, 52, 0
2, 283560, Note_on_c, 0, 54, 92
2, 283680, Note_on_c, 0, 54, 0
2, 283680, Note_on_c, 0, 55, 92
2, 283800, Note_on_c, 0, 55, 0
2, 283800, Note_on_c, 0, 59, 92
2, 283920, Note_on_c, 0, 59, 0
2, 283920, Note_on_c, 0, 55, 92
2, 284040, Note_on_c, 0, 55, 0
2, 284040, Note_on_c, 0, 59, 92
2, 284160, Note_on_c, 0, 59, 0
2, 284160, Note_on_c, 0, 64, 93
2, 284160, Note_on_c, 0, 55, 93
2, 284280, Note_on_c, 0, 55, 0
2, 284280, Note_on_c, 0, 64, 0
2, 284280, Note_on_c, 0, 59, 93
2, 284280, Note_on_c, 0, 66, 93
2, 284400, Note_on_c, 0, 66, 0
2, 284400, Note_on_c, 0, 59, 0
2, 284400, Note_on_c, 0, 64, 93
2, 284400, Note_on_c, 0, 55, 93
2, 284520, Note_on_c, 0, 55, 0
2, 284520, Note_on_c, 0, 64, 0
2, 284520, Note_on_c, 0, 59, 93
2, 284520, Note_on_c, 0, 66, 93
2, 284640, Note_on_c, 0, 66, 0
2, 284640, Note_on_c, 0, 59, 0
2, 284640, Note_on_c, 0, 67, 93
2, 284640, Note_on_c, 0, 64, 93
2, 284760, Note_on_c, 0, 64, 0
2, 284760, Note_on_c, 0, 67, 0
2, 284760, Note_on_c, 0, 71, 93
2, 284760, Note_on_c, 0, 66, 93
2, 284880, Note_on_c, 0, 66, 0
2, 284880, Note_on_c, 0, 71, 0
2, 284880, Note_on_c, 0, 67, 93
2, 284880, Note_on_c, 0, 64, 93
2, 285000, Note_on_c, 0, 64, 0
2, 285000, Note_on_c, 0, 67, 0
2, 285000, Note_on_c, 0, 71, 93
2, 285000, Note_on_c, 0, 66, 93
2, 285120, Note_on_c, 0, 66, 0
2, 285120, Note_on_c, 0, 71, 0
2, 285120, Note_on_c, 0, 64, 94
2, 285120, Note_on_c, 0, 72, 94
2, 285240, Note_on_c, 0, 72, 0
2, 285240, Note_on_c, 0, 64, 0
2, 285240, Note_on_c, 0, 67, 94
2, 285240, Note_on_c, 0, 74, 94
2, 285360, Note_on_c, 0, 74, 0
2, 285360, Note_on_c, 0, 67, 0
2, 285360, Note_on_c, 0, 72, 94
2, 285360, Note_on_c, 0, 64, 94
2, 285480, Note_on_c, 0, 64, 0
2, 285480, Note_on_c, 0, 72, 0
2, 285480, Note_on_c, 0, 67, 94
2, 285480, Note_on_c, 0, 74, 94
2, 285600, Note_on_c, 0, 74, 0
2, 285600, Note_on_c, 0, 67, 0
2, 285600, Note_on_c, 0, 76, 94
2, 285600, Note_on_c, 0, 72, 94
2, 285720, Note_on_c, 0, 72, 0
2, 285720, Note_on_c, 0, 76, 0
2, 285720, Note_on_c, 0, 74, 94
2, 285720, Note_on_c, 0, 77, 94
2, 285840, Note_on_c, 0, 77, 0
2, 285840, Note_on_c, 0, 74, 0
2, 285840, Note_on_c, 0, 72, 94
2, 285840, Note_on_c, 0, 76, 94
2, 285960, Note_on_c, 0, 76, 0
2, 285960, Note_on_c, 0, 72, 0
2, 285960, Note_on_c, 0, 77, 94
2, 285960, Note_on_c, 0, 74, 94
2, 286080, Note_on_c, 0, 74, 0
2, 286080, Note_on_c, 0, 77, 0
2, 286080, Note_on_c, 0, 76, 95
2, 286080, Note_on_c, 0, 79, 95
2, 286200, Note_on_c, 0, 79, 0
2, 286200, Note_on_c, 0, 76, 0
2, 286200, Note_on_c, 0, 85, 95
2, 286320, Note_on_c, 0, 85, 0
2, 286320, Note_on_c, 0, 76, 95
2, 286320, Note_on_c, 0, 79, 95
2, 286440, Note_on_c, 0, 79, 0
2, 286440, Note_on_c, 0, 76, 0
2, 286440, Note_on_c, 0, 85, 95
2, 286560, Note_on_c, 0, 85, 0
2, 286560, Note_on_c, 0, 81, 95
2, 286560, Note_on_c, 0, 76, 95
2, 286680, Note_on_c, 0, 76, 0
2, 286680, Note_on_c, 0, 81, 0
2, 286680, Note_on_c, 0, 85, 95
2, 286800, Note_on_c, 0, 85, 0
2, 286800, Note_on_c, 0, 81, 95
2, 286800, Note_on_c, 0, 76, 95
2, 286920, Note_on_c, 0, 76, 0
2, 286920, Note_on_c, 0, 81, 0
2, 286920, Note_on_c, 0, 85, 95
2, 287040, Note_on_c, 0, 85, 0
2, 287040, Note_on_c, 0, 86, 96
2, 287040, Note_on_c, 0, 74, 96
2, 287196, Note_on_c, 0, 74, 0
2, 287196, Note_on_c, 0, 86, 0
2, 287400, Note_on_c, 0, 83, 96
2, 287400, Note_on_c, 0, 71, 96
2, 287640, Note_on_c, 0, 71, 0
2, 287640, Note_on_c, 0, 83, 0
2, 287880, Note_on_c, 0, 81, 96
2, 287880, Note_on_c, 0, 69, 96
2, 288120, Note_on_c, 0, 69, 0
2, 288120, Note_on_c, 0, 81, 0
2, 288360, Note_on_c, 0, 64, 97
2, 288360, Note_on_c, 0, 73, 97
2, 288600, Note_on_c, 0, 73, 0
2, 288600, Note_on_c, 0, 64, 0
2, 288840, Note_on_c, 0, 62, 97
2, 288840, Note_on_c, 0, 74, 97
2, 289116, Note_on_c, 0, 74, 0
2, 289116, Note_on_c, 0, 62, 0
2, 289200, Note_on_c, 0, 66, 98
2, 289200, Note_on_c, 0, 78, 98
2, 289356, Note_on_c, 0, 78, 0
2, 289356, Note_on_c, 0, 66, 0
2, 289440, Note_on_c, 0, 69, 98
2, 289440, Note_on_c, 0, 81, 98
2, 289800, Note_on_c, 0, 81, 0
2, 289800, Note_on_c, 0, 69, 0
2, 289920, Note_on_c, 0, 69, 99
2, 289920, Note_on_c, 0, 81, 99
2, 290280, Note_on_c, 0, 81, 0
2, 290280, Note_on_c, 0, 69, 0
2, 290400, Note_on_c, 0, 71, 99
2, 290400, Note_on_c, 0, 83, 99
2, 290760, Note_on_c, 0, 83, 0
2, 290760, Note_on_c, 0, 71, 0
2, 290880, Note_on_c, 0, 71, 100
2, 290880, Note_on_c, 0, 83, 100
2, 291240, Note_on_c, 0, 83, 0
2, 291240, Note_on_c, 0, 71, 0
2, 291360, Note_on_c, 0, 71, 100
2, 291360, Note_on_c, 0, 83, 100
2, 291720, Note_on_c, 0, 83, 0
2, 291720, Note_on_c, 0, 71, 0
2, 291840, Note_on_c, 0, 69, 101
2, 291840, Note_on_c, 0, 81, 101
2, 292200, Note_on_c, 0, 81, 0
2, 292200, Note_on_c, 0, 69, 0
2, 292320, Note_on_c, 0, 76, 101
2, 292320, Note_on_c, 0, 64, 101
2, 292476, Note_on_c, 0, 64, 0
2, 292476, Note_on_c, 0, 76, 0
2, 292560, Note_on_c, 0, 66, 101
2, 292560, Note_on_c, 0, 78, 101
2, 292716, Note_on_c, 0, 78, 0
2, 292716, Note_on_c, 0, 66, 0
2, 292800, Note_on_c, 0, 67, 102
2, 292800, Note_on_c, 0, 79, 102
2, 293160, Note_on_c, 0, 79, 0
2, 293160, Note_on_c, 0, 67, 0
2, 293280, Note_on_c, 0, 68, 102
2, 293280, Note_on_c, 0, 80, 102
2, 293640, Note_on_c, 0, 80, 0
2, 293640, Note_on_c, 0, 68, 0
2, 293760, Note_on_c, 0, 81, 103
2, 293760, Note_on_c, 0, 69, 103
2, 294120, Note_on_c, 0, 69, 0
2, 294120, Note_on_c, 0, 81, 0
2, 294240, Note_on_c, 0, 81, 103
2, 294240, Note_on_c, 0, 69, 103
2, 294600, Note_on_c, 0, 69, 0
2, 294600, Note_on_c, 0, 81, 0
2, 294720, Note_on_c, 0, 67, 104
2, 294720, Note_on_c, 0, 79, 104
2, 295080, Note_on_c, 0, 79, 0
2, 295080, Note_on_c, 0, 67, 0
2, 295200, Note_on_c, 0, 66, 104
2, 295200, Note_on_c, 0, 78, 104
2, 295560, Note_on_c, 0, 78, 0
2, 295560, Note_on_c, 0, 66, 0
2, 295680, Note_on_c, 0, 69, 105
2, 295680, Note_on_c, 0, 81, 105
2, 295836, Note_on_c, 0, 81, 0
2, 295836, Note_on_c, 0, 69, 0
2, 295920, Note_on_c, 0, 69, 105
2, 295920, Note_on_c, 0, 81, 105
2, 296076, Note_on_c, 0, 81, 0
2, 296076, Note_on_c, 0, 69, 0
2, 296160, Note_on_c, 0, 62, 105
2, 296160, Note_on_c, 0, 74, 105
2, 296880, Note_on_c, 0, 74, 0
2, 296880, Note_on_c, 0, 62, 0
2, 296880, Note_on_c, 0, 69, 106
2, 296880, Note_on_c, 0, 57, 106
2, 297036, Note_on_c, 0, 57, 0
2, 297036, Note_on_c, 0, 69, 0
2, 297120, Note_on_c, 0, 62, 106
2, 297120, Note_on_c, 0, 74, 106
2, 297480, Note_on_c, 0, 74, 0
2, 297480, Note_on_c, 0, 62, 0
2, 297600, Note_on_c, 0, 64, 107
2, 297600, Note_on_c, 0, 76, 107
2, 297960, Note_on_c, 0, 76, 0
2, 297960, Note_on_c, 0, 64, 0
2, 298080, Note_on_c, 0, 66, 107
2, 298080, Note_on_c, 0, 78, 107
2, 298440, Note_on_c, 0, 78, 0
2, 298440, Note_on_c, 0, 66, 0
2, 298560, Note_on_c, 0, 67, 108
2, 298560, Note_on_c, 0, 79, 108
2, 298920, Note_on_c, 0, 79, 0
2, 298920, Note_on_c, 0, 67, 0
2, 299040, Note_on_c, 0, 69, 108
2, 299040, Note_on_c, 0, 81, 108
2, 299196, Note_on_c, 0, 81, 0
2, 299196, Note_on_c, 0, 69, 0
2, 299280, Note_on_c, 0, 69, 108
2, 299280, Note_on_c, 0, 81, 108
2, 299436, Note_on_c, 0, 81, 0
2, 299436, Note_on_c, 0, 69, 0
2, 299520, Note_on_c, 0, 74, 109
2, 299520, Note_on_c, 0, 62, 109
2, 300240, Note_on_c, 0, 62, 0
2, 300240, Note_on_c, 0, 74, 0
2, 300240, Note_on_c, 0, 69, 109
2, 300396, Note_on_c, 0, 69, 0
2, 300480, Note_on_c, 0, 66, 110
2, 300480, Note_on_c, 0, 78, 110
2, 300840, Note_on_c, 0, 78, 0
2, 300840, Note_on_c, 0, 66, 0
2, 300960, Note_on_c, 0, 76, 110
2, 300960, Note_on_c, 0, 64, 110
2, 301116, Note_on_c, 0, 64, 0
2, 301116, Note_on_c, 0, 76, 0
2, 301200, Note_on_c, 0, 66, 110
2, 301200, Note_on_c, 0, 78, 110
2, 301356, Note_on_c, 0, 78, 0
2, 301356, Note_on_c, 0, 66, 0
2, 301440, Note_on_c, 0, 76, 111
2, 301440, Note_on_c, 0, 64, 111
2, 301915, Note_on_c, 0, 64, 0
2, 301920, Note_on_c, 0, 64, 111
2, 302280, Note_on_c, 0, 64, 0
2, 302280, Note_on_c, 0, 76, 0
2, 302400, Note_on_c, 0, 62, 112
2, 302400, Note_on_c, 0, 74, 112
2, 304320, Note_on_c, 0, 74, 0
2, 304320, Note_on_c, 0, 62, 0
2, 304320, End_track
3, 0, Start_track
3, 0, Title_t, "Unnamed Track"
3, 0, Control_c, 0, 0, 0
3, 0, Control_c, 0, 7, 115
3, 0, Control_c, 0, 10, 79
3, 0, Control_c, 0, 91, 100
3, 0, Control_c, 0, 93, 30
3, 0, Control_c, 0, 64, 0
3, 0, Control_c, 0, 64, 0
3, 0, Control_c, 0, 1, 0
3, 0, Pitch_bend_c, 0, 8192
3, 1, Control_c, 0, 32, 0
3, 1, Program_c, 0, 0
3, 4320, Note_on_c, 0, 78, 86
3, 4320, Note_on_c, 0, 74, 86
3, 4800, Note_on_c, 0, 74, 0
3, 4800, Note_on_c, 0, 78, 0
3, 4800, Note_on_c, 0, 79, 88
3, 4800, Note_on_c, 0, 74, 88
3, 5280, Note_on_c, 0, 74, 0
3, 5280, Note_on_c, 0, 79, 0
3, 5280, Note_on_c, 0, 79, 86
3, 5280, Note_on_c, 0, 74, 86
3, 5760, Note_on_c, 0, 74, 0
3, 5760, Note_on_c, 0, 79, 0
3, 5760, Note_on_c, 0, 79, 83
3, 5760, Note_on_c, 0, 74, 83
3, 6240, Note_on_c, 0, 74, 0
3, 6240, Note_on_c, 0, 79, 0
3, 6240, Note_on_c, 0, 78, 80
3, 6240, Note_on_c, 0, 74, 80
3, 6720, Note_on_c, 0, 74, 0
3, 6720, Note_on_c, 0, 78, 0
3, 6720, Note_on_c, 0, 73, 76
3, 6720, Note_on_c, 0, 69, 76
3, 6912, Note_on_c, 0, 69, 0
3, 6912, Note_on_c, 0, 73, 0
3, 6960, Note_on_c, 0, 69, 77
3, 6960, Note_on_c, 0, 74, 77
3, 7152, Note_on_c, 0, 74, 0
3, 7152, Note_on_c, 0, 69, 0
3, 7200, Note_on_c, 0, 76, 78
3, 7200, Note_on_c, 0, 69, 78
3, 7680, Note_on_c, 0, 69, 0
3, 7680, Note_on_c, 0, 76, 0
3, 7680, Note_on_c, 0, 76, 81
3, 7680, Note_on_c, 0, 71, 81
3, 8160, Note_on_c, 0, 71, 0
3, 8160, Note_on_c, 0, 76, 0
3, 8160, Note_on_c, 0, 76, 84
3, 8640, Note_on_c, 0, 76, 0
3, 8640, Note_on_c, 0, 76, 81
3, 8640, Note_on_c, 0, 73, 81
3, 9120, Note_on_c, 0, 73, 0
3, 9120, Note_on_c, 0, 76, 0
3, 9120, Note_on_c, 0, 69, 79
3, 9120, Note_on_c, 0, 73, 79
3, 9120, Note_on_c, 0, 76, 79
3, 9600, Note_on_c, 0, 76, 0
3, 9600, Note_on_c, 0, 73, 0
3, 9600, Note_on_c, 0, 69, 0
3, 9600, Note_on_c, 0, 69, 77
3, 9600, Note_on_c, 0, 74, 77
3, 10080, Note_on_c, 0, 74, 0
3, 10080, Note_on_c, 0, 69, 0
3, 11520, Note_on_c, 0, 66, 82
3, 11520, Note_on_c, 0, 69, 82
3, 12000, Note_on_c, 0, 69, 0
3, 12000, Note_on_c, 0, 66, 0
3, 12000, Note_on_c, 0, 73, 80
3, 12000, Note_on_c, 0, 69, 80
3, 12480, Note_on_c, 0, 69, 0
3, 12480, Note_on_c, 0, 73, 0
3, 12480, Note_on_c, 0, 74, 79
3, 12960, Note_on_c, 0, 74, 0
3, 12960, Note_on_c, 0, 74, 77
3, 13440, Note_on_c, 0, 74, 0
3, 13440, Note_on_c, 0, 69, 77
3, 13440, Note_on_c, 0, 74, 77
3, 13632, Note_on_c, 0, 74, 0
3, 13632, Note_on_c, 0, 69, 0
3, 13680, Note_on_c, 0, 69, 78
3, 13680, Note_on_c, 0, 74, 78
3, 13872, Note_on_c, 0, 74, 0
3, 13872, Note_on_c, 0, 69, 0
3, 13920, Note_on_c, 0, 71, 82
3, 14640, Note_on_c, 0, 71, 0
3, 14880, Note_on_c, 0, 74, 79
3, 14880, Note_on_c, 0, 69, 79
3, 15360, Note_on_c, 0, 69, 0
3, 15360, Note_on_c, 0, 74, 0
3, 15360, Note_on_c, 0, 73, 77
3, 15360, Note_on_c, 0, 69, 77
3, 15552, Note_on_c, 0, 69, 0
3, 15552, Note_on_c, 0, 73, 0
3, 15600, Note_on_c, 0, 74, 76
3, 15600, Note_on_c, 0, 69, 76
3, 15792, Note_on_c, 0, 69, 0
3, 15792, Note_on_c, 0, 74, 0
3, 15840, Note_on_c, 0, 73, 75
3, 15840, Note_on_c, 0, 67, 75
3, 16320, Note_on_c, 0, 67, 0
3, 16320, Note_on_c, 0, 73, 0
3, 16320, Note_on_c, 0, 66, 74
3, 16680, Note_on_c, 0, 66, 0
3, 16800, Note_on_c, 0, 77, 93
3, 17408, Note_on_c, 0, 77, 0
3, 17760, Note_on_c, 0, 73, 93
3, 18240, Note_on_c, 0, 73, 0
3, 19440, Note_on_c, 0, 72, 90
3, 19632, Note_on_c, 0, 72, 0
3, 19680, Note_on_c, 0, 72, 89
3, 19872, Note_on_c, 0, 72, 0
3, 19920, Note_on_c, 0, 77, 91
3, 20112, Note_on_c, 0, 77, 0
3, 20160, Note_on_c, 0, 79, 94
3, 20880, Note_on_c, 0, 79, 0
3, 20880, Note_on_c, 0, 76, 89
3, 21072, Note_on_c, 0, 76, 0
3, 21120, Note_on_c, 0, 74, 91
3, 21248, Note_on_c, 0, 74, 0
3, 21280, Note_on_c, 0, 76, 91
3, 21408, Note_on_c, 0, 76, 0
3, 21440, Note_on_c, 0, 74, 92
3, 21568, Note_on_c, 0, 74, 0
3, 21600, Note_on_c, 0, 74, 96
3, 21840, Note_on_c, 0, 74, 0
3, 21840, Note_on_c, 0, 73, 94
3, 22560, Note_on_c, 0, 73, 0
3, 23280, Note_on_c, 0, 69, 87
3, 23472, Note_on_c, 0, 69, 0
3, 23520, Note_on_c, 0, 81, 93
3, 23520, Note_on_c, 0, 76, 93
3, 24240, Note_on_c, 0, 76, 0
3, 24240, Note_on_c, 0, 81, 0
3, 24480, Note_on_c, 0, 77, 85
3, 24672, Note_on_c, 0, 77, 0
3, 24960, Note_on_c, 0, 77, 88
3, 25440, Note_on_c, 0, 77, 0
3, 25440, Note_on_c, 0, 79, 84
3, 25920, Note_on_c, 0, 79, 0
3, 25920, Note_on_c, 0, 77, 86
3, 26640, Note_on_c, 0, 77, 0
3, 26640, Note_on_c, 0, 74, 90
3, 26640, Note_on_c, 0, 70, 90
3, 26880, Note_on_c, 0, 70, 0
3, 26880, Note_on_c, 0, 74, 0
3, 26880, Note_on_c, 0, 85, 95
3, 26880, Note_on_c, 0, 81, 95
3, 27600, Note_on_c, 0, 81, 0
3, 27600, Note_on_c, 0, 85, 0
3, 27840, Note_on_c, 0, 81, 90
3, 27840, Note_on_c, 0, 77, 90
3, 28032, Note_on_c, 0, 77, 0
3, 28032, Note_on_c, 0, 81, 0
3, 28320, Note_on_c, 0, 74, 87
3, 29040, Note_on_c, 0, 74, 0
3, 29040, Note_on_c, 0, 70, 83
3, 29280, Note_on_c, 0, 70, 0
3, 29280, Note_on_c, 0, 69, 87
3, 29640, Note_on_c, 0, 69, 0
3, 29760, Note_on_c, 0, 69, 79
3, 29760, Note_on_c, 0, 65, 79
3, 30120, Note_on_c, 0, 65, 0
3, 30120, Note_on_c, 0, 69, 0
3, 30240, Note_on_c, 0, 53, 61
3, 30432, Note_on_c, 0, 53, 0
3, 30480, Note_on_c, 0, 57, 62
3, 30672, Note_on_c, 0, 57, 0
3, 30720, Note_on_c, 0, 62, 64
3, 31080, Note_on_c, 0, 62, 0
3, 31200, Note_on_c, 0, 62, 67
3, 31560, Note_on_c, 0, 62, 0
3, 31680, Note_on_c, 0, 62, 66
3, 32400, Note_on_c, 0, 62, 0
3, 32400, Note_on_c, 0, 62, 62
3, 32592, Note_on_c, 0, 62, 0
3, 32640, Note_on_c, 0, 64, 60
3, 32640, Note_on_c, 0, 60, 60
3, 33120, Note_on_c, 0, 60, 0
3, 33120, Note_on_c, 0, 64, 0
3, 33120, Note_on_c, 0, 65, 58
3, 33120, Note_on_c, 0, 60, 58
3, 33480, Note_on_c, 0, 60, 0
3, 33480, Note_on_c, 0, 65, 0
3, 33600, Note_on_c, 0, 57, 56
3, 33792, Note_on_c, 0, 57, 0
3, 33840, Note_on_c, 0, 60, 57
3, 34032, Note_on_c, 0, 60, 0
3, 34080, Note_on_c, 0, 65, 58
3, 34440, Note_on_c, 0, 65, 0
3, 34560, Note_on_c, 0, 67, 61
3, 34920, Note_on_c, 0, 67, 0
3, 35040, Note_on_c, 0, 65, 65
3, 35040, Note_on_c, 0, 60, 65
3, 35760, Note_on_c, 0, 60, 0
3, 35760, Note_on_c, 0, 65, 0
3, 35760, Note_on_c, 0, 64, 61
3, 35760, Note_on_c, 0, 61, 61
3, 35952, Note_on_c, 0, 61, 0
3, 35952, Note_on_c, 0, 64, 0
3, 36000, Note_on_c, 0, 64, 59
3, 36000, Note_on_c, 0, 61, 59
3, 36480, Note_on_c, 0, 61, 0
3, 36480, Note_on_c, 0, 64, 0
3, 36480, Note_on_c, 0, 62, 56
3, 36840, Note_on_c, 0, 62, 0
3, 36960, Note_on_c, 0, 57, 55
3, 37152, Note_on_c, 0, 57, 0
3, 37200, Note_on_c, 0, 57, 59
3, 37392, Note_on_c, 0, 57, 0
3, 37440, Note_on_c, 0, 53, 62
3, 38160, Note_on_c, 0, 53, 0
3, 38160, Note_on_c, 0, 57, 60
3, 38340, Note_on_c, 0, 62, 59
3, 38352, Note_on_c, 0, 57, 0
3, 38400, Note_on_c, 0, 62, 0
3, 38400, Note_on_c, 0, 65, 59
3, 39120, Note_on_c, 0, 65, 0
3, 39120, Note_on_c, 0, 64, 55
3, 39360, Note_on_c, 0, 64, 0
3, 39360, Note_on_c, 0, 62, 54
3, 39840, Note_on_c, 0, 62, 0
3, 39840, Note_on_c, 0, 61, 51
3, 40200, Note_on_c, 0, 61, 0
3, 40320, Note_on_c, 0, 60, 51
3, 40512, Note_on_c, 0, 60, 0
3, 40560, Note_on_c, 0, 60, 55
3, 40752, Note_on_c, 0, 60, 0
3, 40800, Note_on_c, 0, 57, 58
3, 41520, Note_on_c, 0, 57, 0
3, 41520, Note_on_c, 0, 60, 55
3, 41700, Note_on_c, 0, 65, 54
3, 41712, Note_on_c, 0, 60, 0
3, 41760, Note_on_c, 0, 65, 0
3, 41760, Note_on_c, 0, 69, 54
3, 42480, Note_on_c, 0, 69, 0
3, 42480, Note_on_c, 0, 67, 51
3, 42480, Note_on_c, 0, 69, 51
3, 42672, Note_on_c, 0, 69, 0
3, 42672, Note_on_c, 0, 67, 0
3, 42720, Note_on_c, 0, 67, 50
3, 42720, Note_on_c, 0, 69, 50
3, 43200, Note_on_c, 0, 69, 0
3, 43200, Note_on_c, 0, 67, 0
3, 43200, Note_on_c, 0, 65, 48
3, 43200, Note_on_c, 0, 69, 48
3, 43560, Note_on_c, 0, 69, 0
3, 43560, Note_on_c, 0, 65, 0
3, 43680, Note_on_c, 0, 76, 46
3, 43872, Note_on_c, 0, 76, 0
3, 43920, Note_on_c, 0, 74, 47
3, 44112, Note_on_c, 0, 74, 0
3, 44160, Note_on_c, 0, 74, 49
3, 44520, Note_on_c, 0, 74, 0
3, 44640, Note_on_c, 0, 72, 52
3, 45000, Note_on_c, 0, 72, 0
3, 45120, Note_on_c, 0, 70, 57
3, 45120, Note_on_c, 0, 65, 57
3, 45312, Note_on_c, 0, 65, 0
3, 45312, Note_on_c, 0, 70, 0
3, 45360, Note_on_c, 0, 64, 55
3, 45552, Note_on_c, 0, 64, 0
3, 45600, Note_on_c, 0, 62, 53
3, 45960, Note_on_c, 0, 62, 0
3, 46080, Note_on_c, 0, 60, 49
3, 46272, Note_on_c, 0, 60, 0
3, 46320, Note_on_c, 0, 58, 47
3, 46512, Note_on_c, 0, 58, 0
3, 46560, Note_on_c, 0, 57, 45
3, 46920, Note_on_c, 0, 57, 0
3, 47040, Note_on_c, 0, 76, 42
3, 47232, Note_on_c, 0, 76, 0
3, 47280, Note_on_c, 0, 74, 44
3, 47472, Note_on_c, 0, 74, 0
3, 47520, Note_on_c, 0, 72, 45
3, 47880, Note_on_c, 0, 72, 0
3, 48000, Note_on_c, 0, 71, 48
3, 48000, Note_on_c, 0, 65, 48
3, 48360, Note_on_c, 0, 65, 0
3, 48360, Note_on_c, 0, 71, 0
3, 48480, Note_on_c, 0, 64, 53
3, 48480, Note_on_c, 0, 69, 53
3, 48672, Note_on_c, 0, 69, 0
3, 48672, Note_on_c, 0, 64, 0
3, 48720, Note_on_c, 0, 62, 51
3, 48912, Note_on_c, 0, 62, 0
3, 48960, Note_on_c, 0, 66, 50
3, 48960, Note_on_c, 0, 60, 50
3, 49320, Note_on_c, 0, 60, 0
3, 49320, Note_on_c, 0, 66, 0
3, 49440, Note_on_c, 0, 62, 47
3, 49632, Note_on_c, 0, 62, 0
3, 49680, Note_on_c, 0, 60, 45
3, 49872, Note_on_c, 0, 60, 0
3, 49920, Note_on_c, 0, 58, 43
3, 50280, Note_on_c, 0, 58, 0
3, 50400, Note_on_c, 0, 61, 40
3, 50592, Note_on_c, 0, 61, 0
3, 50640, Note_on_c, 0, 62, 41
3, 50832, Note_on_c, 0, 62, 0
3, 50880, Note_on_c, 0, 64, 42
3, 51240, Note_on_c, 0, 64, 0
3, 51360, Note_on_c, 0, 62, 45
3, 51360, Note_on_c, 0, 65, 45
3, 51720, Note_on_c, 0, 65, 0
3, 51720, Note_on_c, 0, 62, 0
3, 51840, Note_on_c, 0, 61, 47
3, 51840, Note_on_c, 0, 64, 47
3, 52032, Note_on_c, 0, 64, 0
3, 52032, Note_on_c, 0, 61, 0
3, 52080, Note_on_c, 0, 62, 48
3, 52272, Note_on_c, 0, 62, 0
3, 52320, Note_on_c, 0, 69, 50
3, 52320, Note_on_c, 0, 64, 50
3, 52680, Note_on_c, 0, 64, 0
3, 52680, Note_on_c, 0, 69, 0
3, 52800, Note_on_c, 0, 69, 52
3, 52800, Note_on_c, 0, 65, 52
3, 52992, Note_on_c, 0, 65, 0
3, 52992, Note_on_c, 0, 69, 0
3, 53040, Note_on_c, 0, 73, 53
3, 53040, Note_on_c, 0, 67, 53
3, 53232, Note_on_c, 0, 67, 0
3, 53232, Note_on_c, 0, 73, 0
3, 53280, Note_on_c, 0, 74, 55
3, 53280, Note_on_c, 0, 65, 55
3, 53640, Note_on_c, 0, 65, 0
3, 53640, Note_on_c, 0, 74, 0
3, 53760, Note_on_c, 0, 62, 58
3, 53952, Note_on_c, 0, 62, 0
3, 54000, Note_on_c, 0, 63, 61
3, 54192, Note_on_c, 0, 63, 0
3, 54240, Note_on_c, 0, 65, 63
3, 54600, Note_on_c, 0, 65, 0
3, 54720, Note_on_c, 0, 70, 68
3, 54720, Note_on_c, 0, 65, 68
3, 55080, Note_on_c, 0, 65, 0
3, 55080, Note_on_c, 0, 70, 0
3, 55200, Note_on_c, 0, 63, 74
3, 55200, Note_on_c, 0, 70, 74
3, 55392, Note_on_c, 0, 70, 0
3, 55392, Note_on_c, 0, 63, 0
3, 55440, Note_on_c, 0, 74, 76
3, 55440, Note_on_c, 0, 65, 76
3, 55440, Note_on_c, 0, 70, 76
3, 55440, Note_on_c, 0, 68, 76
3, 55632, Note_on_c, 0, 68, 0
3, 55632, Note_on_c, 0, 74, 0
3, 55632, Note_on_c, 0, 65, 0
3, 55632, Note_on_c, 0, 70, 0
3, 55680, Note_on_c, 0, 75, 79
3, 55680, Note_on_c, 0, 67, 79
3, 55680, Note_on_c, 0, 70, 79
3, 56040, Note_on_c, 0, 70, 0
3, 56040, Note_on_c, 0, 67, 0
3, 56040, Note_on_c, 0, 75, 0
3, 56160, Note_on_c, 0, 74, 88
3, 56160, Note_on_c, 0, 69, 88
3, 56352, Note_on_c, 0, 69, 0
3, 56352, Note_on_c, 0, 74, 0
3, 56400, Note_on_c, 0, 81, 92
3, 56400, Note_on_c, 0, 76, 92
3, 56400, Note_on_c, 0, 73, 92
3, 56592, Note_on_c, 0, 73, 0
3, 56592, Note_on_c, 0, 76, 0
3, 56592, Note_on_c, 0, 81, 0
3, 56640, Note_on_c, 0, 77, 96
3, 56640, Note_on_c, 0, 81, 96
3, 56640, Note_on_c, 0, 74, 96
3, 57000, Note_on_c, 0, 74, 0
3, 57000, Note_on_c, 0, 81, 0
3, 57000, Note_on_c, 0, 77, 0
3, 57120, Note_on_c, 0, 65, 78
3, 57120, Note_on_c, 0, 69, 78
3, 57312, Note_on_c, 0, 69, 0
3, 57312, Note_on_c, 0, 65, 0
3, 57600, Note_on_c, 0, 76, 88
3, 57600, Note_on_c, 0, 73, 88
3, 57960, Note_on_c, 0, 73, 0
3, 57960, Note_on_c, 0, 76, 0
3, 58080, Note_on_c, 0, 74, 84
3, 58272, Note_on_c, 0, 74, 0
3, 58560, Note_on_c, 0, 82, 93
3, 58560, Note_on_c, 0, 77, 93
3, 58920, Note_on_c, 0, 77, 0
3, 58920, Note_on_c, 0, 82, 0
3, 59040, Note_on_c, 0, 82, 90
3, 59040, Note_on_c, 0, 77, 90
3, 59400, Note_on_c, 0, 77, 0
3, 59400, Note_on_c, 0, 82, 0
3, 59520, Note_on_c, 0, 79, 87
3, 59520, Note_on_c, 0, 76, 87
3, 59880, Note_on_c, 0, 76, 0
3, 59880, Note_on_c, 0, 79, 0
3, 60000, Note_on_c, 0, 72, 83
3, 60360, Note_on_c, 0, 72, 0
3, 60960, Note_on_c, 0, 70, 88
3, 60960, Note_on_c, 0, 74, 88
3, 61320, Note_on_c, 0, 74, 0
3, 61320, Note_on_c, 0, 70, 0
3, 61680, Note_on_c, 0, 76, 84
3, 61680, Note_on_c, 0, 71, 84
3, 61872, Note_on_c, 0, 71, 0
3, 61872, Note_on_c, 0, 76, 0
3, 61920, Note_on_c, 0, 76, 87
3, 62280, Note_on_c, 0, 76, 0
3, 62400, Note_on_c, 0, 76, 83
3, 62400, Note_on_c, 0, 73, 83
3, 62760, Note_on_c, 0, 73, 0
3, 62760, Note_on_c, 0, 76, 0
3, 62880, Note_on_c, 0, 73, 80
3, 62880, Note_on_c, 0, 76, 80
3, 62880, Note_on_c, 0, 69, 80
3, 63240, Note_on_c, 0, 69, 0
3, 63240, Note_on_c, 0, 76, 0
3, 63240, Note_on_c, 0, 73, 0
3, 63360, Note_on_c, 0, 74, 78
3, 63360, Note_on_c, 0, 69, 78
3, 63720, Note_on_c, 0, 69, 0
3, 63720, Note_on_c, 0, 74, 0
3, 65280, Note_on_c, 0, 69, 80
3, 65280, Note_on_c, 0, 65, 80
3, 65640, Note_on_c, 0, 65, 0
3, 65640, Note_on_c, 0, 69, 0
3, 65760, Note_on_c, 0, 67, 82
3, 65760, Note_on_c, 0, 72, 82
3, 66120, Note_on_c, 0, 72, 0
3, 66120, Note_on_c, 0, 67, 0
3, 66240, Note_on_c, 0, 69, 85
3, 66240, Note_on_c, 0, 72, 85
3, 66600, Note_on_c, 0, 72, 0
3, 66600, Note_on_c, 0, 69, 0
3, 66720, Note_on_c, 0, 72, 88
3, 66720, Note_on_c, 0, 77, 88
3, 67080, Note_on_c, 0, 77, 0
3, 67080, Note_on_c, 0, 72, 0
3, 68640, Note_on_c, 0, 74, 103
3, 69000, Note_on_c, 0, 74, 0
3, 69120, Note_on_c, 0, 73, 100
3, 69120, Note_on_c, 0, 69, 100
3, 69312, Note_on_c, 0, 69, 0
3, 69312, Note_on_c, 0, 73, 0
3, 69600, Note_on_c, 0, 73, 97
3, 69600, Note_on_c, 0, 67, 97
3, 69960, Note_on_c, 0, 67, 0
3, 69960, Note_on_c, 0, 73, 0
3, 70080, Note_on_c, 0, 65, 94
3, 70080, Note_on_c, 0, 69, 94
3, 70440, Note_on_c, 0, 69, 0
3, 70440, Note_on_c, 0, 65, 0
3, 71040, Note_on_c, 0, 53, 67
3, 71280, Note_on_c, 0, 53, 0
3, 71280, Note_on_c, 0, 62, 69
3, 71472, Note_on_c, 0, 62, 0
3, 71520, Note_on_c, 0, 65, 74
3, 72240, Note_on_c, 0, 65, 0
3, 72240, Note_on_c, 0, 67, 67
3, 72432, Note_on_c, 0, 67, 0
3, 72480, Note_on_c, 0, 67, 65
3, 72720, Note_on_c, 0, 67, 0
3, 72720, Note_on_c, 0, 65, 63
3, 72912, Note_on_c, 0, 65, 0
3, 72920, Note_on_c, 0, 65, 61
3, 72960, Note_on_c, 0, 65, 0
3, 72960, Note_on_c, 0, 64, 61
3, 73088, Note_on_c, 0, 64, 0
3, 73120, Note_on_c, 0, 63, 60
3, 73248, Note_on_c, 0, 63, 0
3, 73440, Note_on_c, 0, 64, 57
3, 73800, Note_on_c, 0, 64, 0
3, 74400, Note_on_c, 0, 62, 62
3, 74640, Note_on_c, 0, 62, 0
3, 74880, Note_on_c, 0, 64, 70
3, 74880, Note_on_c, 0, 70, 70
3, 75600, Note_on_c, 0, 70, 0
3, 75600, Note_on_c, 0, 64, 0
3, 75600, Note_on_c, 0, 64, 61
3, 75600, Note_on_c, 0, 69, 61
3, 75792, Note_on_c, 0, 69, 0
3, 75792, Note_on_c, 0, 64, 0
3, 75840, Note_on_c, 0, 65, 59
3, 75840, Note_on_c, 0, 69, 59
3, 76080, Note_on_c, 0, 69, 0
3, 76080, Note_on_c, 0, 65, 0
3, 76080, Note_on_c, 0, 67, 57
3, 76272, Note_on_c, 0, 67, 0
3, 76280, Note_on_c, 0, 67, 55
3, 76320, Note_on_c, 0, 67, 0
3, 76320, Note_on_c, 0, 65, 55
3, 76448, Note_on_c, 0, 65, 0
3, 76480, Note_on_c, 0, 64, 53
3, 76608, Note_on_c, 0, 64, 0
3, 76800, Note_on_c, 0, 65, 50
3, 77160, Note_on_c, 0, 65, 0
3, 77760, Note_on_c, 0, 66, 62
3, 77760, Note_on_c, 0, 60, 62
3, 78000, Note_on_c, 0, 60, 0
3, 78000, Note_on_c, 0, 66, 0
3, 78000, Note_on_c, 0, 60, 56
3, 78192, Note_on_c, 0, 60, 0
3, 78240, Note_on_c, 0, 60, 55
3, 78720, Note_on_c, 0, 54, 53
3, 78960, Note_on_c, 0, 60, 0
3, 78960, Note_on_c, 0, 60, 52
3, 79152, Note_on_c, 0, 60, 0
3, 79200, Note_on_c, 0, 58, 53
3, 79440, Note_on_c, 0, 58, 0
3, 79440, Note_on_c, 0, 57, 51
3, 79632, Note_on_c, 0, 57, 0
3, 79640, Note_on_c, 0, 57, 50
3, 79665, Note_on_c, 0, 54, 0
3, 79680, Note_on_c, 0, 57, 0
3, 79680, Note_on_c, 0, 55, 49
3, 79808, Note_on_c, 0, 55, 0
3, 79840, Note_on_c, 0, 54, 48
3, 79968, Note_on_c, 0, 54, 0
3, 80160, Note_on_c, 0, 55, 46
3, 80520, Note_on_c, 0, 55, 0
3, 81120, Note_on_c, 0, 62, 57
3, 81120, Note_on_c, 0, 70, 57
3, 81360, Note_on_c, 0, 70, 0
3, 81360, Note_on_c, 0, 62, 0
3, 81360, Note_on_c, 0, 62, 51
3, 81552, Note_on_c, 0, 62, 0
3, 81600, Note_on_c, 0, 62, 50
3, 82400, Note_on_c, 0, 57, 47
3, 82795, Note_on_c, 0, 62, 0
3, 82870, Note_on_c, 0, 57, 0
3, 82880, Note_on_c, 0, 52, 45
3, 82880, Note_on_c, 0, 57, 45
3, 83008, Note_on_c, 0, 57, 0
3, 83008, Note_on_c, 0, 52, 0
3, 83040, Note_on_c, 0, 53, 44
3, 83168, Note_on_c, 0, 53, 0
3, 83200, Note_on_c, 0, 52, 44
3, 83328, Note_on_c, 0, 52, 0
3, 83520, Note_on_c, 0, 50, 42
3, 83520, Note_on_c, 0, 53, 42
3, 83520, Note_on_c, 0, 57, 42
3, 83940, Note_on_c, 0, 57, 0
3, 83940, Note_on_c, 0, 53, 0
3, 83940, Note_on_c, 0, 50, 0
3, 84000, Note_on_c, 0, 62, 40
3, 84160, Note_on_c, 0, 62, 0
3, 84160, Note_on_c, 0, 65, 41
3, 84264, Note_on_c, 0, 65, 0
3, 84320, Note_on_c, 0, 69, 43
3, 84424, Note_on_c, 0, 69, 0
3, 84480, Note_on_c, 0, 69, 44
3, 84584, Note_on_c, 0, 69, 0
3, 84640, Note_on_c, 0, 69, 46
3, 84744, Note_on_c, 0, 69, 0
3, 84800, Note_on_c, 0, 69, 47
3, 84904, Note_on_c, 0, 69, 0
3, 84960, Note_on_c, 0, 69, 49
3, 85064, Note_on_c, 0, 69, 0
3, 85120, Note_on_c, 0, 69, 49
3, 85224, Note_on_c, 0, 69, 0
3, 85280, Note_on_c, 0, 69, 48
3, 85384, Note_on_c, 0, 69, 0
3, 85440, Note_on_c, 0, 69, 48
3, 85544, Note_on_c, 0, 69, 0
3, 85600, Note_on_c, 0, 69, 47
3, 85704, Note_on_c, 0, 69, 0
3, 85760, Note_on_c, 0, 69, 47
3, 85864, Note_on_c, 0, 69, 0
3, 85920, Note_on_c, 0, 70, 46
3, 86024, Note_on_c, 0, 70, 0
3, 86080, Note_on_c, 0, 70, 46
3, 86184, Note_on_c, 0, 70, 0
3, 86240, Note_on_c, 0, 72, 45
3, 86344, Note_on_c, 0, 72, 0
3, 86400, Note_on_c, 0, 74, 45
3, 86504, Note_on_c, 0, 74, 0
3, 86560, Note_on_c, 0, 74, 44
3, 86664, Note_on_c, 0, 74, 0
3, 86720, Note_on_c, 0, 70, 44
3, 86824, Note_on_c, 0, 70, 0
3, 86880, Note_on_c, 0, 69, 43
3, 86984, Note_on_c, 0, 69, 0
3, 87040, Note_on_c, 0, 69, 43
3, 87144, Note_on_c, 0, 69, 0
3, 87200, Note_on_c, 0, 65, 42
3, 87304, Note_on_c, 0, 65, 0
3, 87360, Note_on_c, 0, 64, 43
3, 87520, Note_on_c, 0, 64, 0
3, 87520, Note_on_c, 0, 65, 44
3, 87624, Note_on_c, 0, 65, 0
3, 87680, Note_on_c, 0, 67, 46
3, 87784, Note_on_c, 0, 67, 0
3, 87840, Note_on_c, 0, 67, 48
3, 87944, Note_on_c, 0, 67, 0
3, 88000, Note_on_c, 0, 67, 49
3, 88104, Note_on_c, 0, 67, 0
3, 88160, Note_on_c, 0, 67, 51
3, 88264, Note_on_c, 0, 67, 0
3, 88320, Note_on_c, 0, 68, 53
3, 88424, Note_on_c, 0, 68, 0
3, 88480, Note_on_c, 0, 68, 54
3, 88584, Note_on_c, 0, 68, 0
3, 88640, Note_on_c, 0, 68, 56
3, 88744, Note_on_c, 0, 68, 0
3, 88800, Note_on_c, 0, 68, 58
3, 88904, Note_on_c, 0, 68, 0
3, 88960, Note_on_c, 0, 68, 59
3, 89064, Note_on_c, 0, 68, 0
3, 89120, Note_on_c, 0, 69, 61
3, 89224, Note_on_c, 0, 69, 0
3, 89280, Note_on_c, 0, 71, 62
3, 89384, Note_on_c, 0, 71, 0
3, 89440, Note_on_c, 0, 71, 64
3, 89544, Note_on_c, 0, 71, 0
3, 89600, Note_on_c, 0, 73, 66
3, 89704, Note_on_c, 0, 73, 0
3, 89760, Note_on_c, 0, 74, 67
3, 89864, Note_on_c, 0, 74, 0
3, 89920, Note_on_c, 0, 74, 69
3, 90024, Note_on_c, 0, 74, 0
3, 90080, Note_on_c, 0, 73, 71
3, 90184, Note_on_c, 0, 73, 0
3, 90240, Note_on_c, 0, 71, 72
3, 90344, Note_on_c, 0, 71, 0
3, 90400, Note_on_c, 0, 71, 74
3, 90504, Note_on_c, 0, 71, 0
3, 90560, Note_on_c, 0, 69, 75
3, 90664, Note_on_c, 0, 69, 0
3, 90720, Note_on_c, 0, 81, 76
3, 90880, Note_on_c, 0, 81, 0
3, 90880, Note_on_c, 0, 78, 77
3, 90984, Note_on_c, 0, 78, 0
3, 91040, Note_on_c, 0, 69, 78
3, 91144, Note_on_c, 0, 69, 0
3, 91200, Note_on_c, 0, 69, 79
3, 91304, Note_on_c, 0, 69, 0
3, 91360, Note_on_c, 0, 69, 80
3, 91464, Note_on_c, 0, 69, 0
3, 91520, Note_on_c, 0, 69, 81
3, 91624, Note_on_c, 0, 69, 0
3, 91680, Note_on_c, 0, 69, 80
3, 91784, Note_on_c, 0, 69, 0
3, 91840, Note_on_c, 0, 69, 80
3, 91944, Note_on_c, 0, 69, 0
3, 92000, Note_on_c, 0, 69, 81
3, 92104, Note_on_c, 0, 69, 0
3, 92160, Note_on_c, 0, 69, 82
3, 92264, Note_on_c, 0, 69, 0
3, 92320, Note_on_c, 0, 69, 82
3, 92424, Note_on_c, 0, 69, 0
3, 92480, Note_on_c, 0, 70, 83
3, 92584, Note_on_c, 0, 70, 0
3, 92640, Note_on_c, 0, 72, 84
3, 92744, Note_on_c, 0, 72, 0
3, 92800, Note_on_c, 0, 72, 85
3, 92904, Note_on_c, 0, 72, 0
3, 92960, Note_on_c, 0, 74, 85
3, 93064, Note_on_c, 0, 74, 0
3, 93120, Note_on_c, 0, 75, 86
3, 93224, Note_on_c, 0, 75, 0
3, 93280, Note_on_c, 0, 75, 87
3, 93384, Note_on_c, 0, 75, 0
3, 93440, Note_on_c, 0, 74, 87
3, 93544, Note_on_c, 0, 74, 0
3, 93600, Note_on_c, 0, 72, 88
3, 93704, Note_on_c, 0, 72, 0
3, 93760, Note_on_c, 0, 72, 89
3, 93864, Note_on_c, 0, 72, 0
3, 93920, Note_on_c, 0, 70, 89
3, 94024, Note_on_c, 0, 70, 0
3, 94080, Note_on_c, 0, 86, 90
3, 94240, Note_on_c, 0, 86, 0
3, 94240, Note_on_c, 0, 83, 91
3, 94344, Note_on_c, 0, 83, 0
3, 94400, Note_on_c, 0, 64, 91
3, 94504, Note_on_c, 0, 64, 0
3, 94560, Note_on_c, 0, 64, 92
3, 94664, Note_on_c, 0, 64, 0
3, 94720, Note_on_c, 0, 64, 93
3, 94824, Note_on_c, 0, 64, 0
3, 94880, Note_on_c, 0, 64, 93
3, 94984, Note_on_c, 0, 64, 0
3, 95040, Note_on_c, 0, 64, 94
3, 95144, Note_on_c, 0, 64, 0
3, 95200, Note_on_c, 0, 64, 95
3, 95304, Note_on_c, 0, 64, 0
3, 95360, Note_on_c, 0, 64, 96
3, 95464, Note_on_c, 0, 64, 0
3, 95520, Note_on_c, 0, 64, 96
3, 95624, Note_on_c, 0, 64, 0
3, 95680, Note_on_c, 0, 64, 97
3, 95784, Note_on_c, 0, 64, 0
3, 95840, Note_on_c, 0, 64, 98
3, 95944, Note_on_c, 0, 64, 0
3, 96000, Note_on_c, 0, 65, 98
3, 96104, Note_on_c, 0, 65, 0
3, 96160, Note_on_c, 0, 65, 99
3, 96264, Note_on_c, 0, 65, 0
3, 96320, Note_on_c, 0, 67, 100
3, 96424, Note_on_c, 0, 67, 0
3, 96480, Note_on_c, 0, 69, 101
3, 96584, Note_on_c, 0, 69, 0
3, 96640, Note_on_c, 0, 69, 103
3, 96744, Note_on_c, 0, 69, 0
3, 96800, Note_on_c, 0, 73, 105
3, 96904, Note_on_c, 0, 73, 0
3, 96960, Note_on_c, 0, 74, 106
3, 97440, Note_on_c, 0, 74, 0
3, 100320, Control_c, 0, 64, 0
3, 100800, Note_on_c, 0, 69, 50
3, 100800, Note_on_c, 0, 78, 50
3, 101520, Note_on_c, 0, 78, 0
3, 101520, Note_on_c, 0, 74, 54
3, 101760, Note_on_c, 0, 74, 0
3, 101760, Note_on_c, 0, 73, 55
3, 102120, Note_on_c, 0, 73, 0
3, 102240, Note_on_c, 0, 69, 0
3, 102480, Note_on_c, 0, 66, 54
3, 103200, Note_on_c, 0, 66, 0
3, 103200, Note_on_c, 0, 62, 50
3, 103680, Note_on_c, 0, 62, 0
3, 103680, Note_on_c, 0, 61, 47
3, 104040, Note_on_c, 0, 61, 0
3, 104160, Note_on_c, 0, 74, 46
3, 104160, Note_on_c, 0, 71, 46
3, 105120, Note_on_c, 0, 71, 0
3, 105120, Note_on_c, 0, 74, 0
3, 105120, Note_on_c, 0, 74, 51
3, 105120, Note_on_c, 0, 71, 51
3, 105480, Note_on_c, 0, 71, 0
3, 105480, Note_on_c, 0, 74, 0
3, 105840, Note_on_c, 0, 73, 50
3, 106560, Note_on_c, 0, 73, 0
3, 107760, Note_on_c, 0, 69, 48
3, 107760, Note_on_c, 0, 66, 48
3, 108480, Note_on_c, 0, 66, 0
3, 108480, Note_on_c, 0, 69, 0
3, 108960, Note_on_c, 0, 81, 46
3, 109200, Note_on_c, 0, 81, 0
3, 109200, Note_on_c, 0, 79, 44
3, 109680, Note_on_c, 0, 79, 0
3, 109680, Note_on_c, 0, 78, 42
3, 110160, Note_on_c, 0, 78, 0
3, 110160, Note_on_c, 0, 76, 40
3, 110640, Note_on_c, 0, 76, 0
3, 110640, Note_on_c, 0, 74, 38
3, 110832, Note_on_c, 0, 74, 0
3, 110880, Note_on_c, 0, 73, 40
3, 111340, Note_on_c, 0, 73, 0
3, 111340, Note_on_c, 0, 69, 50
3, 111360, Note_on_c, 0, 72, 50
3, 112055, Note_on_c, 0, 72, 0
3, 112060, Note_on_c, 0, 69, 0
3, 112300, Note_on_c, 0, 71, 40
3, 112320, Note_on_c, 0, 81, 40
3, 112540, Note_on_c, 0, 71, 0
3, 112540, Note_on_c, 0, 73, 39
3, 112540, Note_on_c, 0, 79, 39
3, 112545, Note_on_c, 0, 81, 0
3, 113020, Note_on_c, 0, 79, 0
3, 113020, Note_on_c, 0, 73, 0
3, 113020, Note_on_c, 0, 74, 37
3, 113500, Note_on_c, 0, 74, 0
3, 113500, Note_on_c, 0, 73, 35
3, 113740, Note_on_c, 0, 73, 0
3, 113740, Note_on_c, 0, 74, 34
3, 114100, Note_on_c, 0, 74, 0
3, 128160, Note_on_c, 0, 66, 44
3, 128160, Note_on_c, 0, 74, 44
3, 128400, Note_on_c, 0, 66, 0
3, 128400, Note_on_c, 0, 69, 45
3, 128400, Note_on_c, 0, 78, 45
3, 129120, Note_on_c, 0, 78, 0
3, 129120, Note_on_c, 0, 69, 0
3, 129120, Note_on_c, 0, 74, 0
3, 129600, Note_on_c, 0, 74, 47
3, 129600, Note_on_c, 0, 67, 47
3, 129792, Note_on_c, 0, 67, 0
3, 129792, Note_on_c, 0, 74, 0
3, 130320, Note_on_c, 0, 74, 42
3, 130320, Note_on_c, 0, 66, 42
3, 130512, Note_on_c, 0, 66, 0
3, 130512, Note_on_c, 0, 74, 0
3, 131040, Note_on_c, 0, 74, 45
3, 131040, Note_on_c, 0, 67, 45
3, 131280, Note_on_c, 0, 67, 0
3, 131280, Note_on_c, 0, 65, 46
3, 132000, Note_on_c, 0, 65, 0
3, 132000, Note_on_c, 0, 74, 0
3, 132480, Note_on_c, 0, 69, 47
3, 132480, Note_on_c, 0, 64, 47
3, 132672, Note_on_c, 0, 64, 0
3, 132672, Note_on_c, 0, 69, 0
3, 133200, Note_on_c, 0, 69, 43
3, 133200, Note_on_c, 0, 62, 43
3, 133392, Note_on_c, 0, 62, 0
3, 133392, Note_on_c, 0, 69, 0
3, 133920, Note_on_c, 0, 69, 43
3, 134160, Note_on_c, 0, 62, 43
3, 134880, Note_on_c, 0, 62, 0
3, 134880, Note_on_c, 0, 69, 0
3, 135360, Note_on_c, 0, 61, 46
3, 135360, Note_on_c, 0, 67, 46
3, 135552, Note_on_c, 0, 67, 0
3, 135552, Note_on_c, 0, 61, 0
3, 136080, Note_on_c, 0, 67, 48
3, 136080, Note_on_c, 0, 73, 48
3, 136272, Note_on_c, 0, 73, 0
3, 136272, Note_on_c, 0, 67, 0
3, 136800, Note_on_c, 0, 66, 49
3, 137760, Note_on_c, 0, 66, 0
3, 138240, Note_on_c, 0, 67, 48
3, 138432, Note_on_c, 0, 67, 0
3, 138960, Note_on_c, 0, 67, 42
3, 138960, Note_on_c, 0, 69, 42
3, 139152, Note_on_c, 0, 69, 0
3, 139152, Note_on_c, 0, 67, 0
3, 139200, Control_c, 0, 64, 0
3, 139200, Note_on_c, 0, 69, 49
3, 139360, Note_on_c, 0, 69, 0
3, 139360, Note_on_c, 0, 74, 49
3, 139520, Note_on_c, 0, 74, 0
3, 139520, Note_on_c, 0, 76, 49
3, 139680, Note_on_c, 0, 76, 0
3, 139680, Note_on_c, 0, 81, 48
3, 139840, Note_on_c, 0, 81, 0
3, 139840, Note_on_c, 0, 78, 48
3, 140000, Note_on_c, 0, 78, 0
3, 140000, Note_on_c, 0, 74, 48
3, 140160, Note_on_c, 0, 74, 0
3, 140160, Note_on_c, 0, 71, 47
3, 140320, Note_on_c, 0, 71, 0
3, 140320, Note_on_c, 0, 73, 47
3, 140480, Note_on_c, 0, 73, 0
3, 140480, Note_on_c, 0, 83, 47
3, 140640, Note_on_c, 0, 83, 0
3, 140640, Note_on_c, 0, 81, 46
3, 140800, Note_on_c, 0, 81, 0
3, 140800, Note_on_c, 0, 78, 46
3, 140960, Note_on_c, 0, 78, 0
3, 140960, Note_on_c, 0, 74, 46
3, 141120, Note_on_c, 0, 74, 0
3, 141120, Note_on_c, 0, 64, 45
3, 141280, Note_on_c, 0, 64, 0
3, 141280, Note_on_c, 0, 66, 45
3, 141440, Note_on_c, 0, 66, 0
3, 141440, Note_on_c, 0, 67, 45
3, 141600, Note_on_c, 0, 67, 0
3, 141600, Note_on_c, 0, 76, 44
3, 141760, Note_on_c, 0, 76, 0
3, 141760, Note_on_c, 0, 71, 44
3, 141920, Note_on_c, 0, 71, 0
3, 141920, Note_on_c, 0, 68, 44
3, 142080, Note_on_c, 0, 68, 0
3, 142080, Note_on_c, 0, 69, 43
3, 142240, Note_on_c, 0, 69, 0
3, 142240, Note_on_c, 0, 73, 43
3, 142400, Note_on_c, 0, 73, 0
3, 142400, Note_on_c, 0, 81, 43
3, 142560, Note_on_c, 0, 81, 0
3, 142560, Note_on_c, 0, 79, 42
3, 142720, Note_on_c, 0, 79, 0
3, 142720, Note_on_c, 0, 78, 42
3, 142880, Note_on_c, 0, 78, 0
3, 142880, Note_on_c, 0, 69, 42
3, 143040, Note_on_c, 0, 69, 0
3, 143040, Note_on_c, 0, 81, 42
3, 143200, Note_on_c, 0, 81, 0
3, 143200, Note_on_c, 0, 76, 43
3, 143360, Note_on_c, 0, 76, 0
3, 143360, Note_on_c, 0, 74, 44
3, 143520, Note_on_c, 0, 74, 0
3, 143520, Note_on_c, 0, 69, 45
3, 143680, Note_on_c, 0, 69, 0
3, 143680, Note_on_c, 0, 64, 46
3, 143840, Note_on_c, 0, 64, 0
3, 143840, Note_on_c, 0, 62, 48
3, 144000, Note_on_c, 0, 62, 0
3, 144000, Note_on_c, 0, 58, 50
3, 144160, Note_on_c, 0, 58, 0
3, 144160, Note_on_c, 0, 62, 48
3, 144320, Note_on_c, 0, 62, 0
3, 144320, Note_on_c, 0, 69, 46
3, 144480, Note_on_c, 0, 69, 0
3, 144480, Note_on_c, 0, 67, 45
3, 144640, Note_on_c, 0, 67, 0
3, 144640, Note_on_c, 0, 73, 44
3, 144800, Note_on_c, 0, 73, 0
3, 144800, Note_on_c, 0, 79, 43
3, 144960, Note_on_c, 0, 79, 0
3, 144960, Note_on_c, 0, 81, 42
3, 145120, Note_on_c, 0, 81, 0
3, 145120, Note_on_c, 0, 76, 43
3, 145280, Note_on_c, 0, 76, 0
3, 145280, Note_on_c, 0, 74, 44
3, 145440, Note_on_c, 0, 74, 0
3, 145440, Note_on_c, 0, 69, 45
3, 145600, Note_on_c, 0, 69, 0
3, 145600, Note_on_c, 0, 64, 45
3, 145760, Note_on_c, 0, 64, 0
3, 145760, Note_on_c, 0, 62, 46
3, 145920, Note_on_c, 0, 62, 0
3, 145920, Note_on_c, 0, 59, 49
3, 146080, Note_on_c, 0, 59, 0
3, 146080, Note_on_c, 0, 62, 47
3, 146240, Note_on_c, 0, 62, 0
3, 146240, Note_on_c, 0, 69, 46
3, 146400, Note_on_c, 0, 69, 0
3, 146400, Note_on_c, 0, 67, 44
3, 146560, Note_on_c, 0, 67, 0
3, 146560, Note_on_c, 0, 73, 43
3, 146720, Note_on_c, 0, 73, 0
3, 146720, Note_on_c, 0, 79, 41
3, 146880, Note_on_c, 0, 79, 0
3, 146880, Note_on_c, 0, 62, 40
3, 147000, Note_on_c, 0, 62, 0
3, 147000, Note_on_c, 0, 66, 43
3, 147120, Note_on_c, 0, 66, 0
3, 147120, Note_on_c, 0, 68, 42
3, 147240, Note_on_c, 0, 68, 0
3, 147240, Note_on_c, 0, 69, 42
3, 147360, Note_on_c, 0, 69, 0
3, 147360, Note_on_c, 0, 81, 42
3, 147480, Note_on_c, 0, 81, 0
3, 147480, Note_on_c, 0, 78, 42
3, 147600, Note_on_c, 0, 78, 0
3, 147600, Note_on_c, 0, 74, 42
3, 147720, Note_on_c, 0, 74, 0
3, 147720, Note_on_c, 0, 69, 42
3, 147840, Note_on_c, 0, 69, 0
3, 147840, Note_on_c, 0, 67, 42
3, 147960, Note_on_c, 0, 67, 0
3, 147960, Note_on_c, 0, 71, 42
3, 148080, Note_on_c, 0, 71, 0
3, 148080, Note_on_c, 0, 73, 42
3, 148200, Note_on_c, 0, 73, 0
3, 148200, Note_on_c, 0, 83, 42
3, 148320, Note_on_c, 0, 83, 0
3, 148320, Note_on_c, 0, 81, 42
3, 148440, Note_on_c, 0, 81, 0
3, 148440, Note_on_c, 0, 78, 42
3, 148560, Note_on_c, 0, 78, 0
3, 148560, Note_on_c, 0, 74, 42
3, 148680, Note_on_c, 0, 74, 0
3, 148680, Note_on_c, 0, 69, 41
3, 148800, Note_on_c, 0, 69, 0
3, 148800, Note_on_c, 0, 64, 41
3, 148920, Note_on_c, 0, 64, 0
3, 148920, Note_on_c, 0, 66, 41
3, 149040, Note_on_c, 0, 66, 0
3, 149040, Note_on_c, 0, 67, 41
3, 149160, Note_on_c, 0, 67, 0
3, 149160, Note_on_c, 0, 68, 41
3, 149280, Note_on_c, 0, 68, 0
3, 149280, Note_on_c, 0, 80, 41
3, 149400, Note_on_c, 0, 80, 0
3, 149400, Note_on_c, 0, 76, 41
3, 149520, Note_on_c, 0, 76, 0
3, 149520, Note_on_c, 0, 71, 41
3, 149640, Note_on_c, 0, 71, 0
3, 149640, Note_on_c, 0, 68, 41
3, 149760, Note_on_c, 0, 68, 0
3, 149760, Note_on_c, 0, 69, 41
3, 149880, Note_on_c, 0, 69, 0
3, 149880, Note_on_c, 0, 73, 41
3, 150000, Note_on_c, 0, 73, 0
3, 150000, Note_on_c, 0, 76, 41
3, 150120, Note_on_c, 0, 76, 0
3, 150120, Note_on_c, 0, 81, 41
3, 150240, Note_on_c, 0, 81, 0
3, 150240, Note_on_c, 0, 79, 40
3, 150360, Note_on_c, 0, 79, 0
3, 150360, Note_on_c, 0, 78, 40
3, 150480, Note_on_c, 0, 78, 0
3, 150480, Note_on_c, 0, 74, 40
3, 150600, Note_on_c, 0, 74, 0
3, 150600, Note_on_c, 0, 69, 40
3, 150720, Note_on_c, 0, 69, 0
3, 150720, Note_on_c, 0, 81, 40
3, 150840, Note_on_c, 0, 81, 0
3, 150840, Note_on_c, 0, 76, 40
3, 150960, Note_on_c, 0, 76, 0
3, 150960, Note_on_c, 0, 74, 40
3, 151080, Note_on_c, 0, 74, 0
3, 151080, Note_on_c, 0, 69, 40
3, 151200, Note_on_c, 0, 69, 0
3, 151200, Note_on_c, 0, 64, 40
3, 151320, Note_on_c, 0, 64, 0
3, 151320, Note_on_c, 0, 62, 40
3, 151440, Note_on_c, 0, 62, 0
3, 151440, Note_on_c, 0, 57, 40
3, 151560, Note_on_c, 0, 57, 0
3, 151560, Note_on_c, 0, 50, 40
3, 151680, Note_on_c, 0, 50, 0
3, 151680, Note_on_c, 0, 46, 40
3, 151800, Note_on_c, 0, 46, 0
3, 151800, Note_on_c, 0, 58, 42
3, 151920, Note_on_c, 0, 58, 0
3, 151920, Note_on_c, 0, 55, 43
3, 152040, Note_on_c, 0, 55, 0
3, 152040, Note_on_c, 0, 67, 44
3, 152160, Note_on_c, 0, 67, 0
3, 152160, Note_on_c, 0, 58, 45
3, 152280, Note_on_c, 0, 58, 0
3, 152280, Note_on_c, 0, 70, 46
3, 152400, Note_on_c, 0, 70, 0
3, 152400, Note_on_c, 0, 67, 47
3, 152520, Note_on_c, 0, 67, 0
3, 152520, Note_on_c, 0, 79, 48
3, 152600, Note_on_c, 0, 69, 49
3, 152640, Note_on_c, 0, 79, 0
3, 152640, Note_on_c, 0, 81, 50
3, 152760, Note_on_c, 0, 81, 0
3, 152760, Note_on_c, 0, 69, 0
3, 152760, Note_on_c, 0, 76, 51
3, 152880, Note_on_c, 0, 76, 0
3, 152880, Note_on_c, 0, 74, 52
3, 153000, Note_on_c, 0, 74, 0
3, 153000, Note_on_c, 0, 69, 53
3, 153120, Note_on_c, 0, 69, 0
3, 153120, Note_on_c, 0, 64, 54
3, 153240, Note_on_c, 0, 64, 0
3, 153240, Note_on_c, 0, 62, 55
3, 153360, Note_on_c, 0, 62, 0
3, 153360, Note_on_c, 0, 57, 56
3, 153480, Note_on_c, 0, 57, 0
3, 153480, Note_on_c, 0, 50, 57
3, 153600, Note_on_c, 0, 50, 0
3, 153600, Note_on_c, 0, 47, 58
3, 153720, Note_on_c, 0, 47, 0
3, 153720, Note_on_c, 0, 59, 59
3, 153840, Note_on_c, 0, 59, 0
3, 153840, Note_on_c, 0, 55, 60
3, 153960, Note_on_c, 0, 55, 0
3, 153960, Note_on_c, 0, 67, 61
3, 154080, Note_on_c, 0, 67, 0
3, 154080, Note_on_c, 0, 61, 62
3, 154200, Note_on_c, 0, 61, 0
3, 154200, Note_on_c, 0, 73, 63
3, 154320, Note_on_c, 0, 73, 0
3, 154320, Note_on_c, 0, 69, 64
3, 154440, Note_on_c, 0, 69, 0
3, 154440, Note_on_c, 0, 81, 65
3, 154560, Note_on_c, 0, 81, 0
3, 154560, Control_c, 0, 64, 0
3, 154600, Control_c, 0, 64, 127
3, 154800, Control_c, 0, 64, 0
3, 154840, Control_c, 0, 64, 127
3, 155040, Control_c, 0, 64, 0
3, 155080, Control_c, 0, 64, 127
3, 155280, Control_c, 0, 64, 0
3, 155320, Control_c, 0, 64, 127
3, 155520, Control_c, 0, 64, 0
3, 155560, Control_c, 0, 64, 127
3, 155760, Control_c, 0, 64, 0
3, 155800, Control_c, 0, 64, 127
3, 156000, Control_c, 0, 64, 0
3, 156040, Control_c, 0, 64, 127
3, 156240, Control_c, 0, 64, 0
3, 156280, Control_c, 0, 64, 127
3, 156480, Control_c, 0, 64, 0
3, 156520, Control_c, 0, 64, 127
3, 156720, Control_c, 0, 64, 0
3, 156760, Control_c, 0, 64, 127
3, 156960, Control_c, 0, 64, 0
3, 157000, Control_c, 0, 64, 127
3, 157200, Control_c, 0, 64, 0
3, 157240, Control_c, 0, 64, 127
3, 157440, Control_c, 0, 64, 0
3, 157480, Control_c, 0, 64, 127
3, 157680, Control_c, 0, 64, 0
3, 157720, Control_c, 0, 64, 127
3, 157920, Control_c, 0, 64, 0
3, 157960, Control_c, 0, 64, 127
3, 158160, Control_c, 0, 64, 0
3, 158200, Control_c, 0, 64, 127
3, 158400, Control_c, 0, 64, 0
3, 158440, Control_c, 0, 64, 127
3, 158640, Control_c, 0, 64, 0
3, 158680, Control_c, 0, 64, 127
3, 158880, Control_c, 0, 64, 0
3, 158920, Control_c, 0, 64, 127
3, 159120, Control_c, 0, 64, 0
3, 159160, Control_c, 0, 64, 127
3, 159360, Control_c, 0, 64, 0
3, 159400, Control_c, 0, 64, 127
3, 159600, Control_c, 0, 64, 0
3, 159640, Control_c, 0, 64, 127
3, 159840, Control_c, 0, 64, 0
3, 159880, Control_c, 0, 64, 127
3, 160080, Control_c, 0, 64, 0
3, 160120, Control_c, 0, 64, 127
3, 160320, Control_c, 0, 64, 0
3, 160360, Control_c, 0, 64, 127
3, 160560, Control_c, 0, 64, 0
3, 160600, Control_c, 0, 64, 127
3, 160800, Control_c, 0, 64, 0
3, 160840, Control_c, 0, 64, 127
3, 161040, Control_c, 0, 64, 0
3, 161080, Control_c, 0, 64, 127
3, 161280, Control_c, 0, 64, 0
3, 161320, Control_c, 0, 64, 127
3, 161520, Control_c, 0, 64, 0
3, 161560, Control_c, 0, 64, 127
3, 161760, Control_c, 0, 64, 0
3, 161800, Control_c, 0, 64, 127
3, 162000, Control_c, 0, 64, 0
3, 162040, Control_c, 0, 64, 127
3, 162240, Control_c, 0, 64, 0
3, 180960, Note_on_c, 0, 53, 74
3, 181116, Note_on_c, 0, 53, 0
3, 181200, Note_on_c, 0, 57, 75
3, 181356, Note_on_c, 0, 57, 0
3, 181440, Note_on_c, 0, 62, 75
3, 181596, Note_on_c, 0, 62, 0
3, 181680, Note_on_c, 0, 65, 75
3, 181836, Note_on_c, 0, 65, 0
3, 181920, Note_on_c, 0, 65, 76
3, 182040, Note_on_c, 0, 65, 0
3, 182040, Note_on_c, 0, 67, 76
3, 182160, Note_on_c, 0, 67, 0
3, 182160, Note_on_c, 0, 65, 76
3, 182280, Note_on_c, 0, 65, 0
3, 182280, Note_on_c, 0, 67, 76
3, 182400, Note_on_c, 0, 67, 0
3, 182400, Note_on_c, 0, 74, 76
3, 182520, Note_on_c, 0, 74, 0
3, 182880, Note_on_c, 0, 76, 77
3, 183000, Note_on_c, 0, 76, 0
3, 183360, Note_on_c, 0, 76, 78
3, 183480, Note_on_c, 0, 76, 0
3, 183840, Note_on_c, 0, 74, 78
3, 183960, Note_on_c, 0, 74, 0
3, 183960, Note_on_c, 0, 77, 78
3, 184320, Note_on_c, 0, 77, 0
3, 184320, Note_on_c, 0, 76, 87
3, 184800, Note_on_c, 0, 76, 0
3, 184800, Note_on_c, 0, 55, 79
3, 184956, Note_on_c, 0, 55, 0
3, 185040, Note_on_c, 0, 58, 80
3, 185196, Note_on_c, 0, 58, 0
3, 185280, Note_on_c, 0, 64, 80
3, 185436, Note_on_c, 0, 64, 0
3, 185520, Note_on_c, 0, 67, 80
3, 185676, Note_on_c, 0, 67, 0
3, 185760, Note_on_c, 0, 67, 81
3, 185880, Note_on_c, 0, 67, 0
3, 185880, Note_on_c, 0, 70, 81
3, 186000, Note_on_c, 0, 70, 0
3, 186000, Note_on_c, 0, 67, 81
3, 186120, Note_on_c, 0, 67, 0
3, 186120, Note_on_c, 0, 70, 81
3, 186240, Note_on_c, 0, 70, 0
3, 186240, Note_on_c, 0, 76, 81
3, 186240, Note_on_c, 0, 71, 81
3, 186720, Note_on_c, 0, 71, 0
3, 186720, Note_on_c, 0, 76, 0
3, 186720, Note_on_c, 0, 76, 82
3, 186720, Note_on_c, 0, 69, 82
3, 187200, Note_on_c, 0, 69, 0
3, 187200, Note_on_c, 0, 76, 0
3, 187200, Note_on_c, 0, 81, 83
3, 187200, Note_on_c, 0, 76, 83
3, 187680, Note_on_c, 0, 76, 0
3, 187680, Note_on_c, 0, 81, 0
3, 187680, Note_on_c, 0, 76, 83
3, 187800, Note_on_c, 0, 76, 0
3, 187800, Note_on_c, 0, 80, 83
3, 188160, Note_on_c, 0, 80, 0
3, 188240, Note_on_c, 0, 82, 84
3, 188320, Note_on_c, 0, 82, 0
3, 188320, Note_on_c, 0, 81, 84
3, 188400, Note_on_c, 0, 81, 0
3, 188400, Note_on_c, 0, 82, 84
3, 188480, Note_on_c, 0, 82, 0
3, 188480, Note_on_c, 0, 81, 84
3, 188560, Note_on_c, 0, 81, 0
3, 188560, Note_on_c, 0, 82, 85
3, 188640, Note_on_c, 0, 82, 0
3, 188640, Note_on_c, 0, 81, 85
3, 188720, Note_on_c, 0, 81, 0
3, 188720, Note_on_c, 0, 82, 85
3, 188800, Note_on_c, 0, 82, 0
3, 188800, Note_on_c, 0, 81, 85
3, 188880, Note_on_c, 0, 81, 0
3, 188880, Note_on_c, 0, 82, 85
3, 188960, Note_on_c, 0, 82, 0
3, 188960, Note_on_c, 0, 81, 85
3, 189040, Note_on_c, 0, 81, 0
3, 189040, Note_on_c, 0, 82, 85
3, 189120, Note_on_c, 0, 82, 0
3, 189120, Note_on_c, 0, 81, 85
3, 189200, Note_on_c, 0, 81, 0
3, 189200, Note_on_c, 0, 82, 85
3, 189280, Note_on_c, 0, 82, 0
3, 189280, Note_on_c, 0, 81, 85
3, 189360, Note_on_c, 0, 81, 0
3, 189360, Note_on_c, 0, 82, 86
3, 189440, Note_on_c, 0, 82, 0
3, 189440, Note_on_c, 0, 81, 86
3, 189520, Note_on_c, 0, 81, 0
3, 189520, Note_on_c, 0, 82, 86
3, 189600, Note_on_c, 0, 82, 0
3, 189600, Note_on_c, 0, 81, 86
3, 189680, Note_on_c, 0, 81, 0
3, 189680, Note_on_c, 0, 82, 86
3, 189760, Note_on_c, 0, 82, 0
3, 189760, Note_on_c, 0, 81, 86
3, 189840, Note_on_c, 0, 81, 0
3, 189840, Note_on_c, 0, 80, 86
3, 189960, Note_on_c, 0, 81, 86
3, 189975, Note_on_c, 0, 80, 0
3, 190080, Note_on_c, 0, 81, 0
3, 190080, Note_on_c, 0, 86, 87
3, 190160, Note_on_c, 0, 86, 0
3, 190160, Note_on_c, 0, 88, 87
3, 190240, Note_on_c, 0, 88, 0
3, 190240, Note_on_c, 0, 86, 87
3, 190320, Note_on_c, 0, 86, 0
3, 190320, Note_on_c, 0, 88, 87
3, 190400, Note_on_c, 0, 88, 0
3, 190400, Note_on_c, 0, 86, 87
3, 190480, Note_on_c, 0, 86, 0
3, 190480, Note_on_c, 0, 88, 87
3, 190560, Note_on_c, 0, 88, 0
3, 190560, Note_on_c, 0, 86, 87
3, 190640, Note_on_c, 0, 88, 87
3, 190655, Note_on_c, 0, 86, 0
3, 190720, Note_on_c, 0, 88, 0
3, 190720, Note_on_c, 0, 86, 87
3, 190800, Note_on_c, 0, 86, 0
3, 190800, Note_on_c, 0, 88, 88
3, 190880, Note_on_c, 0, 88, 0
3, 190880, Note_on_c, 0, 86, 88
3, 190960, Note_on_c, 0, 86, 0
3, 190960, Note_on_c, 0, 88, 88
3, 191040, Note_on_c, 0, 88, 0
3, 191040, Note_on_c, 0, 86, 88
3, 191120, Note_on_c, 0, 86, 0
3, 191120, Note_on_c, 0, 88, 88
3, 191200, Note_on_c, 0, 88, 0
3, 191200, Note_on_c, 0, 86, 88
3, 191280, Note_on_c, 0, 86, 0
3, 191280, Note_on_c, 0, 88, 88
3, 191360, Note_on_c, 0, 88, 0
3, 191360, Note_on_c, 0, 86, 88
3, 191440, Note_on_c, 0, 86, 0
3, 191440, Note_on_c, 0, 88, 88
3, 191520, Note_on_c, 0, 88, 0
3, 191520, Note_on_c, 0, 86, 88
3, 191600, Note_on_c, 0, 86, 0
3, 191600, Note_on_c, 0, 88, 89
3, 191680, Note_on_c, 0, 88, 0
3, 191680, Note_on_c, 0, 86, 89
3, 191760, Note_on_c, 0, 86, 0
3, 191760, Note_on_c, 0, 85, 89
3, 191880, Note_on_c, 0, 85, 0
3, 191880, Note_on_c, 0, 86, 89
3, 192000, Note_on_c, 0, 86, 0
3, 192000, Note_on_c, 0, 85, 89
3, 192000, Note_on_c, 0, 81, 89
3, 192480, Note_on_c, 0, 81, 0
3, 192480, Note_on_c, 0, 85, 0
3, 192480, Note_on_c, 0, 69, 90
3, 192636, Note_on_c, 0, 69, 0
3, 192720, Note_on_c, 0, 69, 90
3, 192876, Note_on_c, 0, 69, 0
3, 192960, Note_on_c, 0, 65, 90
3, 193116, Note_on_c, 0, 65, 0
3, 193200, Note_on_c, 0, 69, 91
3, 193356, Note_on_c, 0, 69, 0
3, 193440, Note_on_c, 0, 74, 91
3, 193596, Note_on_c, 0, 74, 0
3, 193680, Note_on_c, 0, 76, 91
3, 193836, Note_on_c, 0, 76, 0
3, 193920, Note_on_c, 0, 79, 92
3, 193920, Note_on_c, 0, 74, 92
3, 193920, Note_on_c, 0, 70, 92
3, 194400, Note_on_c, 0, 70, 0
3, 194400, Note_on_c, 0, 74, 0
3, 194400, Note_on_c, 0, 79, 0
3, 194400, Note_on_c, 0, 74, 92
3, 194556, Note_on_c, 0, 74, 0
3, 194640, Note_on_c, 0, 74, 93
3, 194796, Note_on_c, 0, 74, 0
3, 194880, Note_on_c, 0, 70, 93
3, 195036, Note_on_c, 0, 70, 0
3, 195120, Note_on_c, 0, 74, 93
3, 195276, Note_on_c, 0, 74, 0
3, 195360, Note_on_c, 0, 79, 94
3, 195516, Note_on_c, 0, 79, 0
3, 195600, Note_on_c, 0, 81, 94
3, 195600, Note_on_c, 0, 74, 94
3, 195756, Note_on_c, 0, 74, 0
3, 195756, Note_on_c, 0, 81, 0
3, 195840, Note_on_c, 0, 83, 94
3, 195840, Note_on_c, 0, 76, 94
3, 196320, Note_on_c, 0, 76, 0
3, 196320, Note_on_c, 0, 83, 0
3, 196320, Note_on_c, 0, 81, 95
3, 196320, Note_on_c, 0, 85, 95
3, 196476, Note_on_c, 0, 85, 0
3, 196476, Note_on_c, 0, 81, 0
3, 196560, Note_on_c, 0, 81, 95
3, 196560, Note_on_c, 0, 85, 95
3, 196716, Note_on_c, 0, 85, 0
3, 196716, Note_on_c, 0, 81, 0
3, 196800, Note_on_c, 0, 73, 96
3, 196800, Note_on_c, 0, 69, 96
3, 196920, Note_on_c, 0, 69, 0
3, 196920, Note_on_c, 0, 73, 0
3, 198240, Note_on_c, 0, 73, 98
3, 198396, Note_on_c, 0, 73, 0
3, 198480, Note_on_c, 0, 73, 98
3, 198636, Note_on_c, 0, 73, 0
3, 198720, Note_on_c, 0, 61, 98
3, 198840, Note_on_c, 0, 61, 0
3, 201600, Note_on_c, 0, 78, 102
3, 201720, Note_on_c, 0, 78, 0
3, 212640, Note_on_c, 0, 70, 51
3, 213120, Note_on_c, 0, 70, 0
3, 213120, Note_on_c, 0, 72, 51
3, 213565, Note_on_c, 0, 72, 0
3, 213600, Note_on_c, 0, 70, 51
3, 214080, Note_on_c, 0, 70, 0
3, 214080, Note_on_c, 0, 72, 50
3, 214525, Note_on_c, 0, 72, 0
3, 214560, Note_on_c, 0, 70, 50
3, 215000, Note_on_c, 0, 70, 0
3, 215040, Note_on_c, 0, 79, 50
3, 215040, Note_on_c, 0, 70, 50
3, 215520, Note_on_c, 0, 70, 0
3, 215760, Note_on_c, 0, 79, 0
3, 215760, Note_on_c, 0, 77, 49
3, 215965, Note_on_c, 0, 77, 0
3, 216000, Note_on_c, 0, 79, 49
3, 216000, Note_on_c, 0, 70, 49
3, 216720, Note_on_c, 0, 79, 0
3, 216720, Note_on_c, 0, 77, 48
3, 216920, Note_on_c, 0, 77, 0
3, 216925, Note_on_c, 0, 70, 0
3, 216960, Note_on_c, 0, 75, 48
3, 216960, Note_on_c, 0, 70, 48
3, 217440, Note_on_c, 0, 70, 0
3, 217440, Note_on_c, 0, 75, 0
3, 217440, Note_on_c, 0, 67, 48
3, 217680, Note_on_c, 0, 67, 0
3, 217680, Note_on_c, 0, 70, 48
3, 217920, Note_on_c, 0, 70, 0
3, 217920, Note_on_c, 0, 75, 48
3, 218160, Note_on_c, 0, 75, 0
3, 218160, Note_on_c, 0, 70, 47
3, 218355, Note_on_c, 0, 70, 0
3, 218400, Note_on_c, 0, 67, 47
3, 218640, Note_on_c, 0, 67, 0
3, 218640, Note_on_c, 0, 70, 47
3, 218880, Note_on_c, 0, 70, 0
3, 218880, Note_on_c, 0, 75, 47
3, 219120, Note_on_c, 0, 75, 0
3, 219120, Note_on_c, 0, 70, 47
3, 219320, Note_on_c, 0, 70, 0
3, 219360, Note_on_c, 0, 67, 47
3, 219600, Note_on_c, 0, 67, 0
3, 219600, Note_on_c, 0, 70, 46
3, 219805, Note_on_c, 0, 70, 0
3, 219840, Note_on_c, 0, 76, 46
3, 219840, Note_on_c, 0, 70, 46
3, 220560, Note_on_c, 0, 70, 0
3, 220560, Note_on_c, 0, 76, 0
3, 220560, Note_on_c, 0, 69, 46
3, 220760, Note_on_c, 0, 69, 0
3, 220800, Note_on_c, 0, 76, 46
3, 220800, Note_on_c, 0, 73, 46
3, 221520, Note_on_c, 0, 73, 0
3, 221520, Note_on_c, 0, 76, 0
3, 221520, Note_on_c, 0, 74, 45
3, 221725, Note_on_c, 0, 74, 0
3, 221760, Note_on_c, 0, 74, 45
3, 221760, Note_on_c, 0, 68, 45
3, 223435, Note_on_c, 0, 68, 0
3, 223435, Note_on_c, 0, 74, 0
3, 223440, Note_on_c, 0, 74, 44
3, 223680, Note_on_c, 0, 74, 0
3, 223680, Note_on_c, 0, 68, 44
3, 223920, Note_on_c, 0, 68, 0
3, 223920, Note_on_c, 0, 74, 43
3, 224160, Note_on_c, 0, 74, 0
3, 224160, Note_on_c, 0, 77, 43
3, 224400, Note_on_c, 0, 77, 0
3, 224400, Note_on_c, 0, 74, 43
3, 224600, Note_on_c, 0, 74, 0
3, 224640, Note_on_c, 0, 70, 43
3, 225120, Note_on_c, 0, 70, 0
3, 225120, Note_on_c, 0, 72, 43
3, 225600, Note_on_c, 0, 72, 0
3, 225600, Note_on_c, 0, 74, 42
3, 226080, Note_on_c, 0, 74, 0
3, 226080, Note_on_c, 0, 75, 42
3, 226520, Note_on_c, 0, 75, 0
3, 226560, Note_on_c, 0, 77, 42
3, 226560, Note_on_c, 0, 70, 42
3, 227030, Note_on_c, 0, 77, 0
3, 227035, Note_on_c, 0, 70, 0
3, 227040, Note_on_c, 0, 77, 41
3, 227040, Note_on_c, 0, 74, 41
3, 227040, Note_on_c, 0, 68, 41
3, 228235, Note_on_c, 0, 68, 0
3, 228235, Note_on_c, 0, 74, 0
3, 228235, Note_on_c, 0, 77, 0
3, 228240, Note_on_c, 0, 74, 40
3, 228480, Note_on_c, 0, 74, 0
3, 228480, Note_on_c, 0, 68, 40
3, 228720, Note_on_c, 0, 68, 0
3, 228720, Note_on_c, 0, 74, 40
3, 228960, Note_on_c, 0, 74, 0
3, 228960, Note_on_c, 0, 77, 40
3, 229200, Note_on_c, 0, 77, 0
3, 229200, Note_on_c, 0, 74, 40
3, 229400, Note_on_c, 0, 74, 0
3, 229440, Note_on_c, 0, 72, 41
3, 229680, Note_on_c, 0, 72, 0
3, 229680, Note_on_c, 0, 74, 43
3, 229920, Note_on_c, 0, 74, 0
3, 229920, Note_on_c, 0, 70, 46
3, 230400, Note_on_c, 0, 70, 0
3, 230400, Note_on_c, 0, 72, 51
3, 230400, Note_on_c, 0, 69, 51
3, 230880, Note_on_c, 0, 69, 0
3, 230880, Note_on_c, 0, 72, 0
3, 230880, Note_on_c, 0, 70, 55
3, 231320, Note_on_c, 0, 70, 0
3, 231840, Note_on_c, 0, 72, 84
3, 231840, Note_on_c, 0, 77, 84
3, 232200, Note_on_c, 0, 77, 0
3, 232200, Note_on_c, 0, 72, 0
3, 232320, Note_on_c, 0, 73, 76
3, 232320, Note_on_c, 0, 77, 76
3, 232476, Note_on_c, 0, 77, 0
3, 232476, Note_on_c, 0, 73, 0
3, 232560, Note_on_c, 0, 73, 79
3, 232560, Note_on_c, 0, 77, 79
3, 232716, Note_on_c, 0, 77, 0
3, 232716, Note_on_c, 0, 73, 0
3, 232800, Note_on_c, 0, 72, 82
3, 232800, Note_on_c, 0, 77, 82
3, 233160, Note_on_c, 0, 77, 0
3, 233160, Note_on_c, 0, 72, 0
3, 233280, Note_on_c, 0, 70, 75
3, 233384, Note_on_c, 0, 70, 0
3, 233760, Note_on_c, 0, 73, 81
3, 234120, Note_on_c, 0, 73, 0
3, 234240, Note_on_c, 0, 75, 74
3, 234240, Note_on_c, 0, 70, 74
3, 234396, Note_on_c, 0, 70, 0
3, 234396, Note_on_c, 0, 75, 0
3, 234480, Note_on_c, 0, 75, 78
3, 234480, Note_on_c, 0, 70, 78
3, 234636, Note_on_c, 0, 70, 0
3, 234636, Note_on_c, 0, 75, 0
3, 234720, Note_on_c, 0, 69, 83
3, 234720, Note_on_c, 0, 72, 83
3, 235080, Note_on_c, 0, 72, 0
3, 235080, Note_on_c, 0, 69, 0
3, 235680, Note_on_c, 0, 77, 73
3, 235784, Note_on_c, 0, 77, 0
3, 235840, Note_on_c, 0, 77, 73
3, 235944, Note_on_c, 0, 77, 0
3, 236000, Note_on_c, 0, 77, 72
3, 236104, Note_on_c, 0, 77, 0
3, 236160, Note_on_c, 0, 66, 72
3, 236160, Note_on_c, 0, 61, 72
3, 236744, Note_on_c, 0, 61, 0
3, 236744, Note_on_c, 0, 66, 0
3, 237120, Note_on_c, 0, 66, 71
3, 237120, Note_on_c, 0, 71, 71
3, 237480, Note_on_c, 0, 71, 0
3, 237480, Note_on_c, 0, 66, 0
3, 237600, Note_on_c, 0, 68, 71
3, 237600, Note_on_c, 0, 65, 71
3, 237704, Note_on_c, 0, 65, 0
3, 237704, Note_on_c, 0, 68, 0
3, 238080, Note_on_c, 0, 75, 70
3, 238080, Note_on_c, 0, 70, 70
3, 238236, Note_on_c, 0, 70, 0
3, 238236, Note_on_c, 0, 75, 0
3, 238320, Note_on_c, 0, 70, 70
3, 238476, Note_on_c, 0, 70, 0
3, 238560, Note_on_c, 0, 78, 70
3, 238664, Note_on_c, 0, 78, 0
3, 238720, Note_on_c, 0, 78, 69
3, 238824, Note_on_c, 0, 78, 0
3, 238880, Note_on_c, 0, 78, 69
3, 238984, Note_on_c, 0, 78, 0
3, 239040, Note_on_c, 0, 66, 69
3, 239520, Note_on_c, 0, 66, 0
3, 239520, Note_on_c, 0, 66, 68
3, 239624, Note_on_c, 0, 66, 0
3, 240000, Note_on_c, 0, 71, 68
3, 240000, Note_on_c, 0, 76, 68
3, 240360, Note_on_c, 0, 76, 0
3, 240360, Note_on_c, 0, 71, 0
3, 240480, Note_on_c, 0, 73, 67
3, 240480, Note_on_c, 0, 70, 67
3, 240584, Note_on_c, 0, 70, 0
3, 240584, Note_on_c, 0, 73, 0
3, 240960, Note_on_c, 0, 75, 67
3, 241116, Note_on_c, 0, 75, 0
3, 241200, Note_on_c, 0, 73, 67
3, 241356, Note_on_c, 0, 73, 0
3, 241440, Note_on_c, 0, 72, 66
3, 241800, Note_on_c, 0, 72, 0
3, 243360, Note_on_c, 0, 70, 53
3, 243840, Note_on_c, 0, 70, 0
3, 243840, Note_on_c, 0, 72, 53
3, 244285, Note_on_c, 0, 72, 0
3, 244320, Note_on_c, 0, 70, 52
3, 244800, Note_on_c, 0, 70, 0
3, 244800, Note_on_c, 0, 72, 52
3, 245245, Note_on_c, 0, 72, 0
3, 245280, Note_on_c, 0, 70, 52
3, 245720, Note_on_c, 0, 70, 0
3, 245760, Note_on_c, 0, 79, 51
3, 245760, Note_on_c, 0, 72, 51
3, 246480, Note_on_c, 0, 79, 0
3, 246480, Note_on_c, 0, 77, 51
3, 246685, Note_on_c, 0, 77, 0
3, 246720, Note_on_c, 0, 72, 0
3, 246720, Note_on_c, 0, 70, 50
3, 246720, Note_on_c, 0, 79, 50
3, 247440, Note_on_c, 0, 79, 0
3, 247440, Note_on_c, 0, 77, 50
3, 247640, Note_on_c, 0, 77, 0
3, 247645, Note_on_c, 0, 70, 0
3, 247680, Note_on_c, 0, 75, 50
3, 247680, Note_on_c, 0, 70, 50
3, 248160, Note_on_c, 0, 70, 0
3, 248160, Note_on_c, 0, 75, 0
3, 248160, Note_on_c, 0, 67, 49
3, 248400, Note_on_c, 0, 67, 0
3, 248400, Note_on_c, 0, 70, 49
3, 248640, Note_on_c, 0, 70, 0
3, 248640, Note_on_c, 0, 75, 49
3, 248880, Note_on_c, 0, 75, 0
3, 248880, Note_on_c, 0, 70, 49
3, 249075, Note_on_c, 0, 70, 0
3, 249120, Note_on_c, 0, 67, 48
3, 249360, Note_on_c, 0, 67, 0
3, 249360, Note_on_c, 0, 70, 48
3, 249600, Note_on_c, 0, 70, 0
3, 249600, Note_on_c, 0, 75, 48
3, 249840, Note_on_c, 0, 75, 0
3, 249840, Note_on_c, 0, 70, 48
3, 250040, Note_on_c, 0, 70, 0
3, 250080, Note_on_c, 0, 67, 48
3, 250320, Note_on_c, 0, 67, 0
3, 250320, Note_on_c, 0, 70, 47
3, 250525, Note_on_c, 0, 70, 0
3, 250560, Note_on_c, 0, 76, 47
3, 250560, Note_on_c, 0, 70, 47
3, 251280, Note_on_c, 0, 70, 0
3, 251280, Note_on_c, 0, 76, 0
3, 251280, Note_on_c, 0, 69, 47
3, 251480, Note_on_c, 0, 69, 0
3, 251520, Note_on_c, 0, 76, 46
3, 251520, Note_on_c, 0, 73, 46
3, 252240, Note_on_c, 0, 73, 0
3, 252240, Note_on_c, 0, 76, 0
3, 252240, Note_on_c, 0, 74, 46
3, 252445, Note_on_c, 0, 74, 0
3, 252480, Note_on_c, 0, 77, 52
3, 252480, Note_on_c, 0, 74, 52
3, 252480, Note_on_c, 0, 68, 52
3, 253200, Note_on_c, 0, 68, 0
3, 253200, Note_on_c, 0, 74, 0
3, 253200, Note_on_c, 0, 77, 0
3, 253200, Note_on_c, 0, 74, 45
3, 253440, Note_on_c, 0, 74, 0
3, 253440, Note_on_c, 0, 68, 45
3, 253680, Note_on_c, 0, 68, 0
3, 253680, Note_on_c, 0, 74, 45
3, 253920, Note_on_c, 0, 74, 0
3, 253920, Note_on_c, 0, 77, 44
3, 254160, Note_on_c, 0, 77, 0
3, 254160, Note_on_c, 0, 74, 44
3, 254360, Note_on_c, 0, 74, 0
3, 254400, Note_on_c, 0, 70, 44
3, 254880, Note_on_c, 0, 70, 0
3, 254880, Note_on_c, 0, 72, 44
3, 255360, Note_on_c, 0, 72, 0
3, 255360, Note_on_c, 0, 74, 43
3, 255840, Note_on_c, 0, 74, 0
3, 255840, Note_on_c, 0, 77, 43
3, 255840, Note_on_c, 0, 74, 43
3, 256300, Note_on_c, 0, 77, 0
3, 256305, Note_on_c, 0, 74, 0
3, 256320, Note_on_c, 0, 77, 50
3, 256320, Note_on_c, 0, 74, 50
3, 256320, Note_on_c, 0, 69, 50
3, 257040, Note_on_c, 0, 69, 0
3, 257040, Note_on_c, 0, 74, 0
3, 257040, Note_on_c, 0, 77, 0
3, 257040, Note_on_c, 0, 74, 42
3, 257280, Note_on_c, 0, 74, 0
3, 257280, Note_on_c, 0, 69, 42
3, 257520, Note_on_c, 0, 69, 0
3, 257520, Note_on_c, 0, 74, 41
3, 257760, Note_on_c, 0, 74, 0
3, 257760, Note_on_c, 0, 77, 41
3, 258000, Note_on_c, 0, 77, 0
3, 258000, Note_on_c, 0, 74, 41
3, 258200, Note_on_c, 0, 74, 0
3, 258240, Note_on_c, 0, 69, 41
3, 258720, Note_on_c, 0, 69, 0
3, 258720, Note_on_c, 0, 73, 41
3, 258720, Note_on_c, 0, 69, 41
3, 259200, Note_on_c, 0, 69, 0
3, 259200, Note_on_c, 0, 73, 0
3, 259200, Note_on_c, 0, 74, 40
3, 259200, Note_on_c, 0, 69, 40
3, 259680, Note_on_c, 0, 69, 0
3, 259680, Note_on_c, 0, 74, 0
3, 259680, Note_on_c, 0, 77, 40
3, 259680, Note_on_c, 0, 74, 40
3, 259680, Note_on_c, 0, 69, 40
3, 260140, Note_on_c, 0, 77, 0
3, 260145, Note_on_c, 0, 74, 0
3, 260160, Note_on_c, 0, 69, 0
3, 260160, Note_on_c, 0, 79, 39
3, 260160, Note_on_c, 0, 74, 39
3, 262080, Note_on_c, 0, 74, 0
3, 262080, Note_on_c, 0, 79, 0
3, 262080, Note_on_c, 0, 81, 39
3, 262080, Note_on_c, 0, 73, 39
3, 262560, Note_on_c, 0, 73, 0
3, 262565, Note_on_c, 0, 81, 0
3, 287040, Note_on_c, 0, 81, 96
3, 287196, Note_on_c, 0, 81, 0
3, 287400, Note_on_c, 0, 74, 96
3, 287400, Note_on_c, 0, 79, 96
3, 287640, Note_on_c, 0, 79, 0
3, 287640, Note_on_c, 0, 74, 0
3, 287880, Note_on_c, 0, 78, 96
3, 287880, Note_on_c, 0, 74, 96
3, 288120, Note_on_c, 0, 74, 0
3, 288120, Note_on_c, 0, 78, 0
3, 288360, Note_on_c, 0, 69, 97
3, 288360, Note_on_c, 0, 67, 97
3, 288600, Note_on_c, 0, 67, 0
3, 288600, Note_on_c, 0, 69, 0
3, 288840, Note_on_c, 0, 66, 97
3, 288840, Note_on_c, 0, 69, 97
3, 289040, Note_on_c, 0, 66, 0
3, 289045, Note_on_c, 0, 69, 0
3, 289920, Note_on_c, 0, 76, 99
3, 289920, Note_on_c, 0, 73, 99
3, 290280, Note_on_c, 0, 73, 0
3, 290280, Note_on_c, 0, 76, 0
3, 290400, Note_on_c, 0, 74, 99
3, 290400, Note_on_c, 0, 79, 99
3, 290760, Note_on_c, 0, 79, 0
3, 290760, Note_on_c, 0, 74, 0
3, 290880, Note_on_c, 0, 74, 100
3, 290880, Note_on_c, 0, 79, 100
3, 291240, Note_on_c, 0, 79, 0
3, 291240, Note_on_c, 0, 74, 0
3, 291360, Note_on_c, 0, 74, 100
3, 291360, Note_on_c, 0, 79, 100
3, 291720, Note_on_c, 0, 79, 0
3, 291720, Note_on_c, 0, 74, 0
3, 291840, Note_on_c, 0, 78, 101
3, 291840, Note_on_c, 0, 74, 101
3, 292200, Note_on_c, 0, 74, 0
3, 292200, Note_on_c, 0, 78, 0
3, 292320, Note_on_c, 0, 74, 101
3, 292320, Note_on_c, 0, 71, 101
3, 292476, Note_on_c, 0, 71, 0
3, 292476, Note_on_c, 0, 74, 0
3, 292560, Note_on_c, 0, 71, 101
3, 292560, Note_on_c, 0, 74, 101
3, 292716, Note_on_c, 0, 74, 0
3, 292716, Note_on_c, 0, 71, 0
3, 292800, Note_on_c, 0, 74, 102
3, 292800, Note_on_c, 0, 71, 102
3, 293160, Note_on_c, 0, 71, 0
3, 293160, Note_on_c, 0, 74, 0
3, 293280, Note_on_c, 0, 71, 102
3, 293280, Note_on_c, 0, 76, 102
3, 293640, Note_on_c, 0, 76, 0
3, 293640, Note_on_c, 0, 71, 0
3, 293760, Note_on_c, 0, 73, 103
3, 293760, Note_on_c, 0, 76, 103
3, 294120, Note_on_c, 0, 76, 0
3, 294120, Note_on_c, 0, 73, 0
3, 294240, Note_on_c, 0, 73, 103
3, 294240, Note_on_c, 0, 76, 103
3, 294600, Note_on_c, 0, 76, 0
3, 294600, Note_on_c, 0, 73, 0
3, 294720, Note_on_c, 0, 69, 104
3, 294720, Note_on_c, 0, 73, 104
3, 294720, Note_on_c, 0, 76, 104
3, 295080, Note_on_c, 0, 76, 0
3, 295080, Note_on_c, 0, 73, 0
3, 295080, Note_on_c, 0, 69, 0
3, 295200, Note_on_c, 0, 74, 104
3, 295200, Note_on_c, 0, 69, 104
3, 295560, Note_on_c, 0, 69, 0
3, 295560, Note_on_c, 0, 74, 0
3, 297120, Note_on_c, 0, 69, 106
3, 297120, Note_on_c, 0, 66, 106
3, 297480, Note_on_c, 0, 66, 0
3, 297480, Note_on_c, 0, 69, 0
3, 297600, Note_on_c, 0, 73, 107
3, 297600, Note_on_c, 0, 69, 107
3, 297960, Note_on_c, 0, 69, 0
3, 297960, Note_on_c, 0, 73, 0
3, 298080, Note_on_c, 0, 74, 107
3, 298080, Note_on_c, 0, 69, 107
3, 298440, Note_on_c, 0, 69, 0
3, 298440, Note_on_c, 0, 74, 0
3, 298560, Note_on_c, 0, 74, 108
3, 298920, Note_on_c, 0, 74, 0
3, 299040, Note_on_c, 0, 74, 108
3, 299196, Note_on_c, 0, 74, 0
3, 299280, Note_on_c, 0, 74, 108
3, 299436, Note_on_c, 0, 74, 0
3, 299520, Note_on_c, 0, 66, 109
3, 299520, Note_on_c, 0, 71, 109
3, 300240, Note_on_c, 0, 71, 0
3, 300240, Note_on_c, 0, 66, 0
3, 300480, Note_on_c, 0, 69, 110
3, 300480, Note_on_c, 0, 74, 110
3, 300840, Note_on_c, 0, 74, 0
3, 300840, Note_on_c, 0, 69, 0
3, 300960, Note_on_c, 0, 74, 110
3, 300960, Note_on_c, 0, 71, 110
3, 301116, Note_on_c, 0, 71, 0
3, 301116, Note_on_c, 0, 74, 0
3, 301200, Note_on_c, 0, 74, 110
3, 301200, Note_on_c, 0, 71, 110
3, 301356, Note_on_c, 0, 71, 0
3, 301356, Note_on_c, 0, 74, 0
3, 301440, Note_on_c, 0, 69, 111
3, 301440, Note_on_c, 0, 74, 111
3, 301800, Note_on_c, 0, 74, 0
3, 301800, Note_on_c, 0, 69, 0
3, 301920, Note_on_c, 0, 73, 111
3, 301920, Note_on_c, 0, 67, 111
3, 302280, Note_on_c, 0, 67, 0
3, 302280, Note_on_c, 0, 73, 0
3, 302400, Note_on_c, 0, 69, 112
3, 302400, Note_on_c, 0, 66, 112
3, 304320, Note_on_c, 0, 66, 0
3, 304320, Note_on_c, 0, 69, 0
3, 304320, End_track
4, 0, Start_track
4, 0, Title_t, "Unnamed Track"
4, 0, Control_c, 0, 0, 0
4, 0, Control_c, 0, 7, 115
4, 0, Control_c, 0, 10, 64
4, 0, Control_c, 0, 91, 100
4, 0, Control_c, 0, 93, 30
4, 0, Control_c, 0, 64, 0
4, 0, Control_c, 0, 64, 0
4, 0, Control_c, 0, 1, 0
4, 0, Pitch_bend_c, 0, 8192
4, 1, Control_c, 0, 32, 0
4, 1, Program_c, 0, 0
4, 84000, Note_on_c, 0, 53, 40
4, 84160, Note_on_c, 0, 53, 0
4, 84320, Note_on_c, 0, 65, 43
4, 84424, Note_on_c, 0, 65, 0
4, 84480, Note_on_c, 0, 65, 44
4, 84584, Note_on_c, 0, 65, 0
4, 84640, Note_on_c, 0, 65, 46
4, 84744, Note_on_c, 0, 65, 0
4, 84800, Note_on_c, 0, 65, 47
4, 84904, Note_on_c, 0, 65, 0
4, 84960, Note_on_c, 0, 65, 49
4, 85064, Note_on_c, 0, 65, 0
4, 85120, Note_on_c, 0, 65, 49
4, 85224, Note_on_c, 0, 65, 0
4, 85280, Note_on_c, 0, 65, 48
4, 85384, Note_on_c, 0, 65, 0
4, 85440, Note_on_c, 0, 65, 48
4, 85544, Note_on_c, 0, 65, 0
4, 85600, Note_on_c, 0, 65, 47
4, 85704, Note_on_c, 0, 65, 0
4, 85760, Note_on_c, 0, 65, 47
4, 85864, Note_on_c, 0, 65, 0
4, 85920, Note_on_c, 0, 67, 46
4, 86024, Note_on_c, 0, 67, 0
4, 86080, Note_on_c, 0, 67, 46
4, 86184, Note_on_c, 0, 67, 0
4, 86240, Note_on_c, 0, 69, 45
4, 86344, Note_on_c, 0, 69, 0
4, 86400, Note_on_c, 0, 70, 45
4, 86504, Note_on_c, 0, 70, 0
4, 86560, Note_on_c, 0, 70, 44
4, 86664, Note_on_c, 0, 70, 0
4, 86720, Note_on_c, 0, 67, 44
4, 86824, Note_on_c, 0, 67, 0
4, 86880, Note_on_c, 0, 65, 43
4, 86984, Note_on_c, 0, 65, 0
4, 87040, Note_on_c, 0, 65, 43
4, 87144, Note_on_c, 0, 65, 0
4, 87200, Note_on_c, 0, 62, 42
4, 87304, Note_on_c, 0, 62, 0
4, 87360, Note_on_c, 0, 55, 43
4, 87520, Note_on_c, 0, 55, 0
4, 87520, Note_on_c, 0, 57, 44
4, 87624, Note_on_c, 0, 57, 0
4, 87680, Note_on_c, 0, 58, 46
4, 87784, Note_on_c, 0, 58, 0
4, 87840, Note_on_c, 0, 58, 48
4, 87944, Note_on_c, 0, 58, 0
4, 88000, Note_on_c, 0, 58, 49
4, 88104, Note_on_c, 0, 58, 0
4, 88160, Note_on_c, 0, 58, 51
4, 88264, Note_on_c, 0, 58, 0
4, 88320, Note_on_c, 0, 59, 53
4, 88424, Note_on_c, 0, 59, 0
4, 88480, Note_on_c, 0, 59, 54
4, 88584, Note_on_c, 0, 59, 0
4, 88640, Note_on_c, 0, 59, 56
4, 88744, Note_on_c, 0, 59, 0
4, 88800, Note_on_c, 0, 59, 58
4, 88904, Note_on_c, 0, 59, 0
4, 88960, Note_on_c, 0, 59, 59
4, 89064, Note_on_c, 0, 59, 0
4, 89120, Note_on_c, 0, 64, 61
4, 89224, Note_on_c, 0, 64, 0
4, 89280, Note_on_c, 0, 64, 62
4, 89280, Note_on_c, 0, 68, 62
4, 89384, Note_on_c, 0, 68, 0
4, 89384, Note_on_c, 0, 64, 0
4, 89440, Note_on_c, 0, 64, 64
4, 89440, Note_on_c, 0, 68, 64
4, 89544, Note_on_c, 0, 68, 0
4, 89544, Note_on_c, 0, 64, 0
4, 89600, Note_on_c, 0, 64, 66
4, 89600, Note_on_c, 0, 69, 66
4, 89704, Note_on_c, 0, 69, 0
4, 89704, Note_on_c, 0, 64, 0
4, 89760, Note_on_c, 0, 64, 67
4, 89760, Note_on_c, 0, 71, 67
4, 89864, Note_on_c, 0, 71, 0
4, 89864, Note_on_c, 0, 64, 0
4, 89920, Note_on_c, 0, 64, 69
4, 89920, Note_on_c, 0, 71, 69
4, 90024, Note_on_c, 0, 71, 0
4, 90024, Note_on_c, 0, 64, 0
4, 90080, Note_on_c, 0, 64, 71
4, 90080, Note_on_c, 0, 69, 71
4, 90184, Note_on_c, 0, 69, 0
4, 90184, Note_on_c, 0, 64, 0
4, 90240, Note_on_c, 0, 64, 72
4, 90240, Note_on_c, 0, 68, 72
4, 90344, Note_on_c, 0, 68, 0
4, 90344, Note_on_c, 0, 64, 0
4, 90400, Note_on_c, 0, 64, 74
4, 90400, Note_on_c, 0, 68, 74
4, 90504, Note_on_c, 0, 68, 0
4, 90504, Note_on_c, 0, 64, 0
4, 90560, Note_on_c, 0, 64, 75
4, 90664, Note_on_c, 0, 64, 0
4, 90720, Note_on_c, 0, 69, 76
4, 90880, Note_on_c, 0, 69, 0
4, 90880, Note_on_c, 0, 74, 77
4, 90984, Note_on_c, 0, 74, 0
4, 91040, Note_on_c, 0, 66, 78
4, 91144, Note_on_c, 0, 66, 0
4, 91200, Note_on_c, 0, 66, 79
4, 91304, Note_on_c, 0, 66, 0
4, 91360, Note_on_c, 0, 66, 80
4, 91464, Note_on_c, 0, 66, 0
4, 91520, Note_on_c, 0, 66, 81
4, 91624, Note_on_c, 0, 66, 0
4, 91680, Note_on_c, 0, 66, 80
4, 91784, Note_on_c, 0, 66, 0
4, 91840, Note_on_c, 0, 66, 80
4, 91944, Note_on_c, 0, 66, 0
4, 92000, Note_on_c, 0, 66, 81
4, 92104, Note_on_c, 0, 66, 0
4, 92160, Note_on_c, 0, 62, 82
4, 92160, Note_on_c, 0, 66, 82
4, 92264, Note_on_c, 0, 66, 0
4, 92264, Note_on_c, 0, 62, 0
4, 92320, Note_on_c, 0, 62, 82
4, 92320, Note_on_c, 0, 66, 82
4, 92424, Note_on_c, 0, 66, 0
4, 92424, Note_on_c, 0, 62, 0
4, 92480, Note_on_c, 0, 67, 83
4, 92480, Note_on_c, 0, 62, 83
4, 92584, Note_on_c, 0, 62, 0
4, 92584, Note_on_c, 0, 67, 0
4, 92640, Note_on_c, 0, 62, 84
4, 92640, Note_on_c, 0, 69, 84
4, 92744, Note_on_c, 0, 69, 0
4, 92744, Note_on_c, 0, 62, 0
4, 92800, Note_on_c, 0, 62, 85
4, 92800, Note_on_c, 0, 69, 85
4, 92904, Note_on_c, 0, 69, 0
4, 92904, Note_on_c, 0, 62, 0
4, 92960, Note_on_c, 0, 62, 85
4, 92960, Note_on_c, 0, 70, 85
4, 93064, Note_on_c, 0, 70, 0
4, 93064, Note_on_c, 0, 62, 0
4, 93120, Note_on_c, 0, 62, 86
4, 93120, Note_on_c, 0, 72, 86
4, 93224, Note_on_c, 0, 72, 0
4, 93224, Note_on_c, 0, 62, 0
4, 93280, Note_on_c, 0, 62, 87
4, 93280, Note_on_c, 0, 72, 87
4, 93384, Note_on_c, 0, 72, 0
4, 93384, Note_on_c, 0, 62, 0
4, 93440, Note_on_c, 0, 62, 87
4, 93440, Note_on_c, 0, 70, 87
4, 93544, Note_on_c, 0, 70, 0
4, 93544, Note_on_c, 0, 62, 0
4, 93600, Note_on_c, 0, 62, 88
4, 93600, Note_on_c, 0, 69, 88
4, 93704, Note_on_c, 0, 69, 0
4, 93704, Note_on_c, 0, 62, 0
4, 93760, Note_on_c, 0, 62, 89
4, 93760, Note_on_c, 0, 69, 89
4, 93864, Note_on_c, 0, 69, 0
4, 93864, Note_on_c, 0, 62, 0
4, 93920, Note_on_c, 0, 62, 89
4, 93920, Note_on_c, 0, 67, 89
4, 94024, Note_on_c, 0, 67, 0
4, 94024, Note_on_c, 0, 62, 0
4, 94080, Note_on_c, 0, 74, 90
4, 94240, Note_on_c, 0, 74, 0
4, 94240, Note_on_c, 0, 80, 91
4, 94344, Note_on_c, 0, 80, 0
4, 94400, Note_on_c, 0, 59, 91
4, 94400, Note_on_c, 0, 62, 91
4, 94504, Note_on_c, 0, 62, 0
4, 94504, Note_on_c, 0, 59, 0
4, 94560, Note_on_c, 0, 62, 92
4, 94560, Note_on_c, 0, 59, 92
4, 94664, Note_on_c, 0, 59, 0
4, 94664, Note_on_c, 0, 62, 0
4, 94720, Note_on_c, 0, 62, 93
4, 94720, Note_on_c, 0, 59, 93
4, 94824, Note_on_c, 0, 59, 0
4, 94824, Note_on_c, 0, 62, 0
4, 94880, Note_on_c, 0, 62, 93
4, 94880, Note_on_c, 0, 59, 93
4, 94984, Note_on_c, 0, 59, 0
4, 94984, Note_on_c, 0, 62, 0
4, 95040, Note_on_c, 0, 62, 94
4, 95040, Note_on_c, 0, 59, 94
4, 95144, Note_on_c, 0, 59, 0
4, 95144, Note_on_c, 0, 62, 0
4, 95200, Note_on_c, 0, 62, 95
4, 95200, Note_on_c, 0, 59, 95
4, 95304, Note_on_c, 0, 59, 0
4, 95304, Note_on_c, 0, 62, 0
4, 95360, Note_on_c, 0, 62, 96
4, 95360, Note_on_c, 0, 59, 96
4, 95464, Note_on_c, 0, 59, 0
4, 95464, Note_on_c, 0, 62, 0
4, 95520, Note_on_c, 0, 61, 96
4, 95520, Note_on_c, 0, 57, 96
4, 95624, Note_on_c, 0, 57, 0
4, 95624, Note_on_c, 0, 61, 0
4, 95680, Note_on_c, 0, 61, 97
4, 95680, Note_on_c, 0, 57, 97
4, 95784, Note_on_c, 0, 57, 0
4, 95784, Note_on_c, 0, 61, 0
4, 95840, Note_on_c, 0, 57, 98
4, 95840, Note_on_c, 0, 61, 98
4, 95944, Note_on_c, 0, 61, 0
4, 95944, Note_on_c, 0, 57, 0
4, 96000, Note_on_c, 0, 57, 98
4, 96000, Note_on_c, 0, 62, 98
4, 96104, Note_on_c, 0, 62, 0
4, 96104, Note_on_c, 0, 57, 0
4, 96160, Note_on_c, 0, 57, 99
4, 96160, Note_on_c, 0, 62, 99
4, 96264, Note_on_c, 0, 62, 0
4, 96264, Note_on_c, 0, 57, 0
4, 96320, Note_on_c, 0, 57, 100
4, 96320, Note_on_c, 0, 64, 100
4, 96424, Note_on_c, 0, 64, 0
4, 96424, Note_on_c, 0, 57, 0
4, 96480, Note_on_c, 0, 57, 101
4, 96480, Note_on_c, 0, 65, 101
4, 96584, Note_on_c, 0, 65, 0
4, 96584, Note_on_c, 0, 57, 0
4, 96640, Note_on_c, 0, 57, 103
4, 96640, Note_on_c, 0, 65, 103
4, 96744, Note_on_c, 0, 65, 0
4, 96744, Note_on_c, 0, 57, 0
4, 96800, Note_on_c, 0, 64, 105
4, 96800, Note_on_c, 0, 69, 105
4, 96904, Note_on_c, 0, 69, 0
4, 96904, Note_on_c, 0, 64, 0
4, 96960, Control_c, 0, 64, 127
4, 96960, Note_on_c, 0, 62, 106
4, 96960, Note_on_c, 0, 69, 106
4, 97440, Note_on_c, 0, 69, 0
4, 97440, Note_on_c, 0, 62, 0
4, 100320, Control_c, 0, 64, 0
4, 114480, Note_on_c, 0, 74, 41
4, 114480, Note_on_c, 0, 66, 41
4, 114480, Note_on_c, 0, 62, 41
4, 114636, Note_on_c, 0, 62, 0
4, 114636, Note_on_c, 0, 66, 0
4, 114636, Note_on_c, 0, 74, 0
4, 114960, Note_on_c, 0, 78, 44
4, 114960, Note_on_c, 0, 66, 44
4, 114960, Note_on_c, 0, 74, 44
4, 115116, Note_on_c, 0, 74, 0
4, 115116, Note_on_c, 0, 66, 0
4, 115116, Note_on_c, 0, 78, 0
4, 115440, Note_on_c, 0, 73, 46
4, 115440, Note_on_c, 0, 81, 46
4, 115440, Note_on_c, 0, 69, 46
4, 115596, Note_on_c, 0, 69, 0
4, 115596, Note_on_c, 0, 81, 0
4, 115596, Note_on_c, 0, 73, 0
4, 115920, Note_on_c, 0, 83, 46
4, 115920, Note_on_c, 0, 78, 46
4, 115920, Note_on_c, 0, 74, 46
4, 115920, Note_on_c, 0, 71, 46
4, 116076, Note_on_c, 0, 71, 0
4, 116076, Note_on_c, 0, 83, 0
4, 116076, Note_on_c, 0, 78, 0
4, 116076, Note_on_c, 0, 74, 0
4, 116400, Note_on_c, 0, 83, 44
4, 116400, Note_on_c, 0, 78, 44
4, 116400, Note_on_c, 0, 74, 44
4, 116400, Note_on_c, 0, 71, 44
4, 116556, Note_on_c, 0, 71, 0
4, 116556, Note_on_c, 0, 83, 0
4, 116556, Note_on_c, 0, 78, 0
4, 116556, Note_on_c, 0, 74, 0
4, 116880, Note_on_c, 0, 81, 41
4, 116880, Note_on_c, 0, 69, 41
4, 116880, Note_on_c, 0, 74, 41
4, 116880, Note_on_c, 0, 78, 41
4, 117036, Note_on_c, 0, 78, 0
4, 117036, Note_on_c, 0, 81, 0
4, 117036, Note_on_c, 0, 69, 0
4, 117036, Note_on_c, 0, 74, 0
4, 117360, Note_on_c, 0, 79, 39
4, 117360, Note_on_c, 0, 74, 39
4, 117360, Note_on_c, 0, 67, 39
4, 117516, Note_on_c, 0, 67, 0
4, 117516, Note_on_c, 0, 74, 0
4, 117516, Note_on_c, 0, 79, 0
4, 117840, Note_on_c, 0, 64, 40
4, 117840, Note_on_c, 0, 74, 40
4, 117840, Note_on_c, 0, 76, 40
4, 117996, Note_on_c, 0, 76, 0
4, 117996, Note_on_c, 0, 74, 0
4, 117996, Note_on_c, 0, 64, 0
4, 118080, Note_on_c, 0, 78, 42
4, 118080, Note_on_c, 0, 66, 42
4, 118080, Note_on_c, 0, 74, 42
4, 118236, Note_on_c, 0, 74, 0
4, 118236, Note_on_c, 0, 66, 0
4, 118236, Note_on_c, 0, 78, 0
4, 118320, Note_on_c, 0, 79, 43
4, 118320, Note_on_c, 0, 74, 43
4, 118476, Note_on_c, 0, 74, 0
4, 118476, Note_on_c, 0, 79, 0
4, 118800, Note_on_c, 0, 80, 43
4, 118800, Note_on_c, 0, 74, 43
4, 118800, Note_on_c, 0, 68, 43
4, 118956, Note_on_c, 0, 68, 0
4, 118956, Note_on_c, 0, 74, 0
4, 118956, Note_on_c, 0, 80, 0
4, 119280, Note_on_c, 0, 81, 41
4, 119280, Note_on_c, 0, 73, 41
4, 119280, Note_on_c, 0, 69, 41
4, 119436, Note_on_c, 0, 69, 0
4, 119436, Note_on_c, 0, 73, 0
4, 119436, Note_on_c, 0, 81, 0
4, 119760, Note_on_c, 0, 81, 39
4, 119760, Note_on_c, 0, 74, 39
4, 119760, Note_on_c, 0, 69, 39
4, 119916, Note_on_c, 0, 69, 0
4, 119916, Note_on_c, 0, 74, 0
4, 119916, Note_on_c, 0, 81, 0
4, 120240, Note_on_c, 0, 81, 37
4, 120240, Note_on_c, 0, 69, 37
4, 120240, Note_on_c, 0, 76, 37
4, 120396, Note_on_c, 0, 76, 0
4, 120396, Note_on_c, 0, 69, 0
4, 120396, Note_on_c, 0, 81, 0
4, 120720, Note_on_c, 0, 81, 35
4, 120720, Note_on_c, 0, 74, 35
4, 120720, Note_on_c, 0, 69, 35
4, 120876, Note_on_c, 0, 69, 0
4, 120876, Note_on_c, 0, 74, 0
4, 120876, Note_on_c, 0, 81, 0
4, 120960, Note_on_c, 0, 75, 38
4, 120960, Note_on_c, 0, 81, 38
4, 120960, Note_on_c, 0, 69, 38
4, 121116, Note_on_c, 0, 69, 0
4, 121116, Note_on_c, 0, 81, 0
4, 121116, Note_on_c, 0, 75, 0
4, 121200, Note_on_c, 0, 81, 40
4, 121200, Note_on_c, 0, 75, 40
4, 121200, Note_on_c, 0, 69, 40
4, 121356, Note_on_c, 0, 69, 0
4, 121356, Note_on_c, 0, 75, 0
4, 121356, Note_on_c, 0, 81, 0
4, 121440, Note_on_c, 0, 75, 46
4, 121440, Note_on_c, 0, 63, 46
4, 122160, Note_on_c, 0, 63, 0
4, 122160, Note_on_c, 0, 75, 0
4, 122160, Note_on_c, 0, 75, 40
4, 122160, Note_on_c, 0, 71, 40
4, 122160, Note_on_c, 0, 63, 40
4, 122316, Note_on_c, 0, 63, 0
4, 122316, Note_on_c, 0, 71, 0
4, 122316, Note_on_c, 0, 75, 0
4, 122640, Note_on_c, 0, 75, 38
4, 122640, Note_on_c, 0, 63, 38
4, 122640, Note_on_c, 0, 71, 38
4, 122796, Note_on_c, 0, 71, 0
4, 122796, Note_on_c, 0, 63, 0
4, 122796, Note_on_c, 0, 75, 0
4, 123120, Note_on_c, 0, 71, 36
4, 123120, Note_on_c, 0, 76, 36
4, 123120, Note_on_c, 0, 64, 36
4, 123276, Note_on_c, 0, 64, 0
4, 123276, Note_on_c, 0, 76, 0
4, 123276, Note_on_c, 0, 71, 0
4, 123600, Note_on_c, 0, 78, 34
4, 123600, Note_on_c, 0, 66, 34
4, 123600, Note_on_c, 0, 75, 34
4, 123756, Note_on_c, 0, 75, 0
4, 123756, Note_on_c, 0, 66, 0
4, 123756, Note_on_c, 0, 78, 0
4, 124080, Note_on_c, 0, 79, 32
4, 124080, Note_on_c, 0, 74, 32
4, 124080, Note_on_c, 0, 67, 32
4, 124236, Note_on_c, 0, 67, 0
4, 124236, Note_on_c, 0, 74, 0
4, 124236, Note_on_c, 0, 79, 0
4, 124320, Note_on_c, 0, 73, 33
4, 124320, Note_on_c, 0, 81, 33
4, 124320, Note_on_c, 0, 67, 33
4, 124476, Note_on_c, 0, 67, 0
4, 124476, Note_on_c, 0, 81, 0
4, 124476, Note_on_c, 0, 73, 0
4, 124560, Note_on_c, 0, 81, 36
4, 124560, Note_on_c, 0, 73, 36
4, 124560, Note_on_c, 0, 67, 36
4, 124716, Note_on_c, 0, 67, 0
4, 124716, Note_on_c, 0, 73, 0
4, 124716, Note_on_c, 0, 81, 0
4, 124800, Note_on_c, 0, 66, 43
4, 124800, Note_on_c, 0, 74, 43
4, 124800, Note_on_c, 0, 72, 43
4, 124800, Note_on_c, 0, 69, 43
4, 125520, Note_on_c, 0, 69, 0
4, 125520, Note_on_c, 0, 66, 0
4, 125520, Note_on_c, 0, 74, 0
4, 125520, Note_on_c, 0, 72, 0
4, 125520, Note_on_c, 0, 74, 37
4, 125520, Note_on_c, 0, 66, 37
4, 125520, Note_on_c, 0, 69, 37
4, 125520, Note_on_c, 0, 72, 37
4, 125676, Note_on_c, 0, 72, 0
4, 125676, Note_on_c, 0, 74, 0
4, 125676, Note_on_c, 0, 66, 0
4, 125676, Note_on_c, 0, 69, 0
4, 126000, Note_on_c, 0, 83, 35
4, 126000, Note_on_c, 0, 71, 35
4, 126000, Note_on_c, 0, 74, 35
4, 126156, Note_on_c, 0, 74, 0
4, 126156, Note_on_c, 0, 71, 0
4, 126156, Note_on_c, 0, 83, 0
4, 126480, Note_on_c, 0, 81, 33
4, 126480, Note_on_c, 0, 74, 33
4, 126480, Note_on_c, 0, 69, 33
4, 126636, Note_on_c, 0, 69, 0
4, 126636, Note_on_c, 0, 74, 0
4, 126636, Note_on_c, 0, 81, 0
4, 126960, Note_on_c, 0, 79, 32
4, 126960, Note_on_c, 0, 73, 32
4, 126960, Note_on_c, 0, 67, 32
4, 127116, Note_on_c, 0, 67, 0
4, 127116, Note_on_c, 0, 73, 0
4, 127116, Note_on_c, 0, 79, 0
4, 127440, Note_on_c, 0, 78, 30
4, 127440, Note_on_c, 0, 66, 30
4, 127440, Note_on_c, 0, 74, 30
4, 127596, Note_on_c, 0, 74, 0
4, 127596, Note_on_c, 0, 66, 0
4, 127596, Note_on_c, 0, 78, 0
4, 127680, Note_on_c, 0, 50, 42
4, 127920, Note_on_c, 0, 50, 0
4, 127920, Note_on_c, 0, 52, 43
4, 128160, Note_on_c, 0, 52, 0
4, 128160, Note_on_c, 0, 50, 44
4, 128400, Note_on_c, 0, 50, 0
4, 128400, Note_on_c, 0, 52, 45
4, 128640, Note_on_c, 0, 52, 0
4, 128640, Note_on_c, 0, 50, 47
4, 128880, Note_on_c, 0, 50, 0
4, 128880, Note_on_c, 0, 52, 48
4, 129120, Note_on_c, 0, 52, 0
4, 129120, Note_on_c, 0, 50, 51
4, 129360, Note_on_c, 0, 50, 0
4, 129360, Note_on_c, 0, 52, 48
4, 129600, Note_on_c, 0, 52, 0
4, 129600, Note_on_c, 0, 50, 47
4, 129840, Note_on_c, 0, 50, 0
4, 129840, Note_on_c, 0, 52, 45
4, 130080, Note_on_c, 0, 52, 0
4, 130080, Note_on_c, 0, 50, 44
4, 130320, Note_on_c, 0, 50, 0
4, 130320, Note_on_c, 0, 52, 42
4, 130530, Note_on_c, 0, 52, 0
4, 130560, Note_on_c, 0, 50, 42
4, 130800, Note_on_c, 0, 50, 0
4, 130800, Note_on_c, 0, 52, 43
4, 131040, Note_on_c, 0, 52, 0
4, 131040, Note_on_c, 0, 50, 45
4, 131280, Note_on_c, 0, 50, 0
4, 131280, Note_on_c, 0, 52, 46
4, 131520, Note_on_c, 0, 52, 0
4, 131520, Note_on_c, 0, 50, 47
4, 131760, Note_on_c, 0, 50, 0
4, 131760, Note_on_c, 0, 52, 48
4, 132000, Note_on_c, 0, 52, 0
4, 132000, Note_on_c, 0, 50, 50
4, 132240, Note_on_c, 0, 50, 0
4, 132240, Note_on_c, 0, 52, 48
4, 132480, Note_on_c, 0, 52, 0
4, 132480, Note_on_c, 0, 50, 47
4, 132720, Note_on_c, 0, 50, 0
4, 132720, Note_on_c, 0, 52, 46
4, 132960, Note_on_c, 0, 52, 0
4, 132960, Note_on_c, 0, 50, 45
4, 133200, Note_on_c, 0, 50, 0
4, 133200, Note_on_c, 0, 52, 43
4, 133402, Note_on_c, 0, 52, 0
4, 133440, Note_on_c, 0, 50, 42
4, 133680, Note_on_c, 0, 50, 0
4, 133680, Note_on_c, 0, 52, 42
4, 133920, Note_on_c, 0, 52, 0
4, 133920, Note_on_c, 0, 50, 43
4, 134160, Note_on_c, 0, 50, 0
4, 134160, Note_on_c, 0, 52, 43
4, 134400, Note_on_c, 0, 52, 0
4, 134400, Note_on_c, 0, 50, 44
4, 134640, Note_on_c, 0, 50, 0
4, 134640, Note_on_c, 0, 52, 44
4, 134880, Note_on_c, 0, 52, 0
4, 134880, Note_on_c, 0, 50, 45
4, 135120, Note_on_c, 0, 50, 0
4, 135120, Note_on_c, 0, 52, 46
4, 135360, Note_on_c, 0, 52, 0
4, 135360, Note_on_c, 0, 50, 46
4, 135600, Note_on_c, 0, 50, 0
4, 135600, Note_on_c, 0, 51, 47
4, 135840, Note_on_c, 0, 51, 0
4, 135840, Note_on_c, 0, 50, 47
4, 136080, Note_on_c, 0, 50, 0
4, 136080, Note_on_c, 0, 51, 48
4, 136282, Note_on_c, 0, 51, 0
4, 136320, Note_on_c, 0, 38, 48
4, 136560, Note_on_c, 0, 38, 0
4, 136560, Note_on_c, 0, 40, 49
4, 136800, Note_on_c, 0, 40, 0
4, 136800, Note_on_c, 0, 38, 49
4, 137040, Note_on_c, 0, 38, 0
4, 137040, Note_on_c, 0, 40, 50
4, 137280, Note_on_c, 0, 40, 0
4, 137280, Note_on_c, 0, 38, 50
4, 137520, Note_on_c, 0, 38, 0
4, 137520, Note_on_c, 0, 40, 51
4, 137760, Note_on_c, 0, 40, 0
4, 137760, Note_on_c, 0, 38, 52
4, 138000, Note_on_c, 0, 38, 0
4, 138000, Note_on_c, 0, 40, 50
4, 138240, Note_on_c, 0, 40, 0
4, 138240, Note_on_c, 0, 38, 48
4, 138480, Note_on_c, 0, 38, 0
4, 138480, Note_on_c, 0, 40, 46
4, 138720, Note_on_c, 0, 40, 0
4, 138720, Note_on_c, 0, 38, 44
4, 138960, Note_on_c, 0, 38, 0
4, 138960, Note_on_c, 0, 40, 42
4, 139185, Note_on_c, 0, 40, 0
4, 154560, Control_c, 0, 64, 0
4, 154600, Control_c, 0, 64, 127
4, 154640, Note_on_c, 0, 81, 67
4, 154720, Note_on_c, 0, 81, 0
4, 154720, Note_on_c, 0, 86, 67
4, 154800, Note_on_c, 0, 86, 0
4, 154800, Control_c, 0, 64, 0
4, 154840, Control_c, 0, 64, 127
4, 154880, Note_on_c, 0, 78, 69
4, 154960, Note_on_c, 0, 78, 0
4, 154960, Note_on_c, 0, 81, 69
4, 155040, Note_on_c, 0, 81, 0
4, 155040, Control_c, 0, 64, 0
4, 155080, Control_c, 0, 64, 127
4, 155120, Note_on_c, 0, 74, 71
4, 155200, Note_on_c, 0, 74, 0
4, 155200, Note_on_c, 0, 78, 72
4, 155280, Note_on_c, 0, 78, 0
4, 155280, Control_c, 0, 64, 0
4, 155320, Control_c, 0, 64, 127
4, 155360, Note_on_c, 0, 73, 73
4, 155440, Note_on_c, 0, 73, 0
4, 155440, Note_on_c, 0, 78, 74
4, 155520, Note_on_c, 0, 78, 0
4, 155520, Control_c, 0, 64, 0
4, 155560, Control_c, 0, 64, 127
4, 155600, Note_on_c, 0, 71, 75
4, 155680, Note_on_c, 0, 71, 0
4, 155680, Note_on_c, 0, 74, 76
4, 155760, Note_on_c, 0, 74, 0
4, 155760, Control_c, 0, 64, 0
4, 155800, Control_c, 0, 64, 127
4, 155840, Note_on_c, 0, 71, 77
4, 155920, Note_on_c, 0, 71, 0
4, 155920, Note_on_c, 0, 74, 78
4, 156000, Note_on_c, 0, 74, 0
4, 156000, Control_c, 0, 64, 0
4, 156040, Control_c, 0, 64, 127
4, 156080, Note_on_c, 0, 71, 79
4, 156160, Note_on_c, 0, 71, 0
4, 156160, Note_on_c, 0, 79, 80
4, 156240, Note_on_c, 0, 79, 0
4, 156240, Control_c, 0, 64, 0
4, 156280, Control_c, 0, 64, 127
4, 156320, Note_on_c, 0, 69, 81
4, 156400, Note_on_c, 0, 69, 0
4, 156400, Note_on_c, 0, 78, 82
4, 156480, Note_on_c, 0, 78, 0
4, 156480, Control_c, 0, 64, 0
4, 156520, Control_c, 0, 64, 127
4, 156560, Note_on_c, 0, 79, 83
4, 156640, Note_on_c, 0, 79, 0
4, 156640, Note_on_c, 0, 83, 84
4, 156720, Note_on_c, 0, 83, 0
4, 156720, Control_c, 0, 64, 0
4, 156760, Control_c, 0, 64, 127
4, 156800, Note_on_c, 0, 78, 85
4, 156880, Note_on_c, 0, 78, 0
4, 156880, Note_on_c, 0, 83, 86
4, 156960, Note_on_c, 0, 83, 0
4, 156960, Control_c, 0, 64, 0
4, 157000, Control_c, 0, 64, 127
4, 157040, Note_on_c, 0, 76, 87
4, 157120, Note_on_c, 0, 76, 0
4, 157120, Note_on_c, 0, 83, 88
4, 157200, Note_on_c, 0, 83, 0
4, 157200, Control_c, 0, 64, 0
4, 157240, Control_c, 0, 64, 127
4, 157280, Note_on_c, 0, 74, 89
4, 157360, Note_on_c, 0, 74, 0
4, 157360, Note_on_c, 0, 83, 90
4, 157440, Note_on_c, 0, 83, 0
4, 157440, Control_c, 0, 64, 0
4, 157480, Control_c, 0, 64, 127
4, 157520, Note_on_c, 0, 73, 92
4, 157600, Note_on_c, 0, 73, 0
4, 157600, Note_on_c, 0, 81, 92
4, 157680, Note_on_c, 0, 81, 0
4, 157680, Control_c, 0, 64, 0
4, 157720, Control_c, 0, 64, 127
4, 157760, Note_on_c, 0, 76, 94
4, 157840, Note_on_c, 0, 76, 0
4, 157840, Note_on_c, 0, 85, 94
4, 157920, Note_on_c, 0, 85, 0
4, 157920, Control_c, 0, 64, 0
4, 157960, Control_c, 0, 64, 127
4, 158000, Note_on_c, 0, 81, 96
4, 158080, Note_on_c, 0, 81, 0
4, 158080, Note_on_c, 0, 86, 96
4, 158160, Note_on_c, 0, 86, 0
4, 158160, Control_c, 0, 64, 0
4, 158200, Control_c, 0, 64, 127
4, 158240, Note_on_c, 0, 79, 98
4, 158320, Note_on_c, 0, 79, 0
4, 158320, Note_on_c, 0, 85, 98
4, 158400, Note_on_c, 0, 85, 0
4, 158400, Control_c, 0, 64, 0
4, 158440, Control_c, 0, 64, 127
4, 158480, Note_on_c, 0, 78, 100
4, 158560, Note_on_c, 0, 78, 0
4, 158560, Note_on_c, 0, 86, 100
4, 158640, Note_on_c, 0, 86, 0
4, 158640, Control_c, 0, 64, 0
4, 158680, Control_c, 0, 64, 127
4, 158720, Note_on_c, 0, 81, 103
4, 158800, Note_on_c, 0, 81, 0
4, 158800, Note_on_c, 0, 85, 102
4, 158880, Note_on_c, 0, 85, 0
4, 158880, Control_c, 0, 64, 0
4, 158920, Control_c, 0, 64, 127
4, 158960, Note_on_c, 0, 74, 101
4, 159040, Note_on_c, 0, 74, 0
4, 159040, Note_on_c, 0, 77, 101
4, 159120, Note_on_c, 0, 77, 0
4, 159120, Control_c, 0, 64, 0
4, 159160, Control_c, 0, 64, 127
4, 159200, Note_on_c, 0, 69, 100
4, 159280, Note_on_c, 0, 69, 0
4, 159280, Note_on_c, 0, 73, 100
4, 159360, Note_on_c, 0, 73, 0
4, 159360, Control_c, 0, 64, 0
4, 159400, Control_c, 0, 64, 127
4, 159440, Note_on_c, 0, 62, 99
4, 159520, Note_on_c, 0, 62, 0
4, 159520, Note_on_c, 0, 65, 98
4, 159600, Note_on_c, 0, 65, 0
4, 159600, Control_c, 0, 64, 0
4, 159640, Control_c, 0, 64, 127
4, 159680, Note_on_c, 0, 64, 97
4, 159760, Note_on_c, 0, 64, 0
4, 159760, Note_on_c, 0, 67, 97
4, 159840, Note_on_c, 0, 67, 0
4, 159840, Control_c, 0, 64, 0
4, 159880, Control_c, 0, 64, 127
4, 159920, Note_on_c, 0, 65, 96
4, 160000, Note_on_c, 0, 65, 0
4, 160000, Note_on_c, 0, 69, 96
4, 160080, Note_on_c, 0, 69, 0
4, 160080, Control_c, 0, 64, 0
4, 160120, Control_c, 0, 64, 127
4, 160160, Note_on_c, 0, 67, 95
4, 160240, Note_on_c, 0, 67, 0
4, 160240, Note_on_c, 0, 76, 94
4, 160320, Note_on_c, 0, 76, 0
4, 160320, Control_c, 0, 64, 0
4, 160360, Control_c, 0, 64, 127
4, 160400, Note_on_c, 0, 69, 93
4, 160480, Note_on_c, 0, 69, 0
4, 160480, Note_on_c, 0, 73, 93
4, 160560, Note_on_c, 0, 73, 0
4, 160560, Control_c, 0, 64, 0
4, 160600, Control_c, 0, 64, 127
4, 160640, Note_on_c, 0, 81, 92
4, 160720, Note_on_c, 0, 81, 0
4, 160720, Note_on_c, 0, 81, 92
4, 160800, Note_on_c, 0, 81, 0
4, 160800, Control_c, 0, 64, 0
4, 160840, Control_c, 0, 64, 127
4, 160880, Note_on_c, 0, 74, 91
4, 160960, Note_on_c, 0, 74, 0
4, 160960, Note_on_c, 0, 74, 90
4, 161040, Note_on_c, 0, 74, 0
4, 161040, Control_c, 0, 64, 0
4, 161080, Control_c, 0, 64, 127
4, 161120, Note_on_c, 0, 69, 89
4, 161200, Note_on_c, 0, 69, 0
4, 161200, Note_on_c, 0, 69, 89
4, 161280, Note_on_c, 0, 69, 0
4, 161280, Control_c, 0, 64, 0
4, 161320, Control_c, 0, 64, 127
4, 161360, Note_on_c, 0, 66, 88
4, 161440, Note_on_c, 0, 66, 0
4, 161440, Note_on_c, 0, 74, 87
4, 161520, Note_on_c, 0, 74, 0
4, 161520, Control_c, 0, 64, 0
4, 161560, Control_c, 0, 64, 127
4, 161600, Note_on_c, 0, 67, 87
4, 161680, Note_on_c, 0, 67, 0
4, 161680, Note_on_c, 0, 78, 86
4, 161680, Note_on_c, 0, 71, 86
4, 161760, Note_on_c, 0, 71, 0
4, 161760, Note_on_c, 0, 78, 0
4, 161760, Control_c, 0, 64, 0
4, 161800, Control_c, 0, 64, 127
4, 161840, Note_on_c, 0, 67, 85
4, 161920, Note_on_c, 0, 67, 0
4, 161920, Note_on_c, 0, 74, 85
4, 161920, Note_on_c, 0, 69, 85
4, 162000, Control_c, 0, 64, 0
4, 162040, Control_c, 0, 64, 127
4, 162120, Note_on_c, 0, 69, 0
4, 162120, Note_on_c, 0, 74, 0
4, 162120, Note_on_c, 0, 73, 84
4, 162120, Note_on_c, 0, 67, 84
4, 162240, Note_on_c, 0, 67, 0
4, 162240, Note_on_c, 0, 73, 0
4, 162240, Control_c, 0, 64, 0
4, 162300, Note_on_c, 0, 57, 58
4, 162360, Note_on_c, 0, 57, 0
4, 162360, Note_on_c, 0, 65, 59
4, 162420, Note_on_c, 0, 65, 0
4, 162420, Note_on_c, 0, 66, 59
4, 162480, Note_on_c, 0, 66, 0
4, 162540, Note_on_c, 0, 62, 60
4, 162600, Note_on_c, 0, 62, 0
4, 162600, Note_on_c, 0, 68, 60
4, 162660, Note_on_c, 0, 68, 0
4, 162660, Note_on_c, 0, 69, 61
4, 162720, Note_on_c, 0, 69, 0
4, 162780, Note_on_c, 0, 66, 62
4, 162840, Note_on_c, 0, 66, 0
4, 162840, Note_on_c, 0, 73, 62
4, 162900, Note_on_c, 0, 73, 0
4, 162900, Note_on_c, 0, 74, 63
4, 162960, Note_on_c, 0, 74, 0
4, 163020, Note_on_c, 0, 64, 63
4, 163080, Note_on_c, 0, 64, 0
4, 163080, Note_on_c, 0, 72, 64
4, 163140, Note_on_c, 0, 72, 0
4, 163140, Note_on_c, 0, 73, 64
4, 163200, Note_on_c, 0, 73, 0
4, 163260, Note_on_c, 0, 62, 65
4, 163320, Note_on_c, 0, 62, 0
4, 163320, Note_on_c, 0, 70, 66
4, 163380, Note_on_c, 0, 70, 0
4, 163380, Note_on_c, 0, 71, 66
4, 163440, Note_on_c, 0, 71, 0
4, 163500, Note_on_c, 0, 67, 67
4, 163560, Note_on_c, 0, 67, 0
4, 163560, Note_on_c, 0, 73, 67
4, 163620, Note_on_c, 0, 73, 0
4, 163620, Note_on_c, 0, 74, 68
4, 163680, Note_on_c, 0, 74, 0
4, 163740, Note_on_c, 0, 71, 68
4, 163800, Note_on_c, 0, 71, 0
4, 163800, Note_on_c, 0, 78, 69
4, 163860, Note_on_c, 0, 78, 0
4, 163860, Note_on_c, 0, 79, 69
4, 163920, Note_on_c, 0, 79, 0
4, 163980, Note_on_c, 0, 69, 70
4, 164040, Note_on_c, 0, 69, 0
4, 164040, Note_on_c, 0, 77, 71
4, 164100, Note_on_c, 0, 77, 0
4, 164100, Note_on_c, 0, 78, 71
4, 164160, Note_on_c, 0, 78, 0
4, 164220, Note_on_c, 0, 83, 72
4, 164280, Note_on_c, 0, 83, 0
4, 164280, Note_on_c, 0, 90, 72
4, 164340, Note_on_c, 0, 90, 0
4, 164340, Note_on_c, 0, 91, 73
4, 164400, Note_on_c, 0, 91, 0
4, 164460, Note_on_c, 0, 81, 74
4, 164520, Note_on_c, 0, 81, 0
4, 164520, Note_on_c, 0, 89, 74
4, 164580, Note_on_c, 0, 89, 0
4, 164580, Note_on_c, 0, 90, 74
4, 164640, Note_on_c, 0, 90, 0
4, 164700, Note_on_c, 0, 79, 75
4, 164760, Note_on_c, 0, 79, 0
4, 164760, Note_on_c, 0, 87, 76
4, 164820, Note_on_c, 0, 87, 0
4, 164820, Note_on_c, 0, 88, 76
4, 164880, Note_on_c, 0, 88, 0
4, 164940, Note_on_c, 0, 78, 77
4, 165000, Note_on_c, 0, 78, 0
4, 165000, Note_on_c, 0, 85, 77
4, 165060, Note_on_c, 0, 85, 0
4, 165060, Note_on_c, 0, 86, 78
4, 165120, Note_on_c, 0, 86, 0
4, 165180, Note_on_c, 0, 76, 79
4, 165240, Note_on_c, 0, 76, 0
4, 165240, Note_on_c, 0, 84, 79
4, 165300, Note_on_c, 0, 84, 0
4, 165300, Note_on_c, 0, 85, 79
4, 165360, Note_on_c, 0, 85, 0
4, 165360, Note_on_c, 0, 76, 80
4, 165420, Note_on_c, 0, 76, 0
4, 165420, Note_on_c, 0, 81, 80
4, 165480, Note_on_c, 0, 81, 0
4, 165480, Note_on_c, 0, 87, 81
4, 165540, Note_on_c, 0, 87, 0
4, 165540, Note_on_c, 0, 88, 81
4, 165600, Note_on_c, 0, 88, 0
4, 165600, Note_on_c, 0, 81, 82
4, 165660, Note_on_c, 0, 81, 0
4, 165660, Note_on_c, 0, 86, 82
4, 165720, Note_on_c, 0, 86, 0
4, 165720, Note_on_c, 0, 92, 82
4, 165780, Note_on_c, 0, 92, 0
4, 165780, Note_on_c, 0, 93, 83
4, 165840, Note_on_c, 0, 93, 0
4, 165840, Note_on_c, 0, 79, 83
4, 165900, Note_on_c, 0, 79, 0
4, 165900, Note_on_c, 0, 85, 84
4, 165960, Note_on_c, 0, 85, 0
4, 165960, Note_on_c, 0, 90, 84
4, 166020, Note_on_c, 0, 90, 0
4, 166020, Note_on_c, 0, 91, 85
4, 166080, Note_on_c, 0, 91, 0
4, 166080, Note_on_c, 0, 78, 85
4, 166140, Note_on_c, 0, 78, 0
4, 166140, Note_on_c, 0, 86, 85
4, 166200, Note_on_c, 0, 86, 0
4, 166200, Note_on_c, 0, 89, 86
4, 166260, Note_on_c, 0, 89, 0
4, 166260, Note_on_c, 0, 90, 86
4, 166320, Note_on_c, 0, 90, 0
4, 166380, Note_on_c, 0, 86, 87
4, 166440, Note_on_c, 0, 86, 0
4, 166440, Note_on_c, 0, 92, 88
4, 166500, Note_on_c, 0, 92, 0
4, 166500, Note_on_c, 0, 93, 88
4, 166560, Note_on_c, 0, 93, 0
4, 166620, Note_on_c, 0, 81, 89
4, 166680, Note_on_c, 0, 81, 0
4, 166680, Note_on_c, 0, 85, 89
4, 166740, Note_on_c, 0, 85, 0
4, 166740, Note_on_c, 0, 86, 90
4, 166800, Note_on_c, 0, 86, 0
4, 166860, Note_on_c, 0, 74, 90
4, 166920, Note_on_c, 0, 74, 0
4, 166920, Note_on_c, 0, 80, 91
4, 166980, Note_on_c, 0, 80, 0
4, 166980, Note_on_c, 0, 81, 91
4, 167040, Note_on_c, 0, 81, 0
4, 167040, Note_on_c, 0, 62, 92
4, 167100, Note_on_c, 0, 62, 0
4, 167100, Note_on_c, 0, 65, 92
4, 167160, Note_on_c, 0, 65, 0
4, 167160, Note_on_c, 0, 73, 93
4, 167220, Note_on_c, 0, 73, 0
4, 167220, Note_on_c, 0, 74, 93
4, 167280, Note_on_c, 0, 74, 0
4, 167280, Note_on_c, 0, 64, 93
4, 167340, Note_on_c, 0, 64, 0
4, 167340, Note_on_c, 0, 69, 94
4, 167400, Note_on_c, 0, 69, 0
4, 167400, Note_on_c, 0, 75, 94
4, 167460, Note_on_c, 0, 75, 0
4, 167460, Note_on_c, 0, 76, 95
4, 167520, Note_on_c, 0, 76, 0
4, 167520, Note_on_c, 0, 66, 95
4, 167580, Note_on_c, 0, 66, 0
4, 167580, Note_on_c, 0, 69, 96
4, 167640, Note_on_c, 0, 69, 0
4, 167640, Note_on_c, 0, 76, 96
4, 167700, Note_on_c, 0, 76, 0
4, 167700, Note_on_c, 0, 77, 96
4, 167760, Note_on_c, 0, 77, 0
4, 167760, Note_on_c, 0, 67, 97
4, 167820, Note_on_c, 0, 67, 0
4, 167820, Note_on_c, 0, 76, 97
4, 167880, Note_on_c, 0, 76, 0
4, 167880, Note_on_c, 0, 78, 98
4, 167940, Note_on_c, 0, 78, 0
4, 167940, Note_on_c, 0, 79, 98
4, 168000, Note_on_c, 0, 79, 0
4, 168000, Note_on_c, 0, 69, 99
4, 168060, Note_on_c, 0, 69, 0
4, 168060, Note_on_c, 0, 73, 99
4, 168120, Note_on_c, 0, 73, 0
4, 168120, Note_on_c, 0, 80, 99
4, 168180, Note_on_c, 0, 80, 0
4, 168180, Note_on_c, 0, 81, 100
4, 168240, Note_on_c, 0, 81, 0
4, 168300, Note_on_c, 0, 86, 101
4, 168360, Note_on_c, 0, 86, 0
4, 168360, Note_on_c, 0, 92, 101
4, 168420, Note_on_c, 0, 92, 0
4, 168420, Note_on_c, 0, 93, 101
4, 168480, Note_on_c, 0, 93, 0
4, 168540, Note_on_c, 0, 93, 102
4, 168600, Note_on_c, 0, 93, 0
4, 168600, Note_on_c, 0, 97, 103
4, 168660, Note_on_c, 0, 97, 0
4, 168660, Note_on_c, 0, 98, 103
4, 168720, Note_on_c, 0, 98, 0
4, 168780, Note_on_c, 0, 74, 88
4, 168840, Note_on_c, 0, 74, 0
4, 168840, Note_on_c, 0, 80, 89
4, 168900, Note_on_c, 0, 80, 0
4, 168900, Note_on_c, 0, 81, 90
4, 168960, Note_on_c, 0, 81, 0
4, 169020, Note_on_c, 0, 81, 91
4, 169080, Note_on_c, 0, 81, 0
4, 169080, Note_on_c, 0, 85, 92
4, 169140, Note_on_c, 0, 85, 0
4, 169140, Note_on_c, 0, 86, 92
4, 169200, Note_on_c, 0, 86, 0
4, 169200, Note_on_c, 0, 57, 93
4, 169260, Note_on_c, 0, 57, 0
4, 169320, Note_on_c, 0, 68, 94
4, 169380, Note_on_c, 0, 68, 0
4, 169380, Note_on_c, 0, 69, 95
4, 169440, Note_on_c, 0, 69, 0
4, 169500, Note_on_c, 0, 74, 96
4, 169560, Note_on_c, 0, 74, 0
4, 169560, Note_on_c, 0, 80, 97
4, 169620, Note_on_c, 0, 80, 0
4, 169620, Note_on_c, 0, 81, 97
4, 169680, Note_on_c, 0, 81, 0
4, 169740, Note_on_c, 0, 69, 99
4, 169800, Note_on_c, 0, 69, 0
4, 169800, Note_on_c, 0, 73, 99
4, 169860, Note_on_c, 0, 73, 0
4, 169860, Note_on_c, 0, 74, 100
4, 169920, Note_on_c, 0, 74, 0
4, 169980, Note_on_c, 0, 80, 101
4, 170040, Note_on_c, 0, 80, 0
4, 170040, Note_on_c, 0, 85, 102
4, 170100, Note_on_c, 0, 85, 0
4, 170100, Note_on_c, 0, 86, 102
4, 170160, Note_on_c, 0, 86, 0
4, 170220, Note_on_c, 0, 78, 104
4, 170280, Note_on_c, 0, 78, 0
4, 170280, Note_on_c, 0, 81, 104
4, 170340, Note_on_c, 0, 81, 0
4, 170340, Note_on_c, 0, 83, 105
4, 170400, Note_on_c, 0, 83, 0
4, 170460, Note_on_c, 0, 88, 106
4, 170520, Note_on_c, 0, 88, 0
4, 170520, Note_on_c, 0, 92, 107
4, 170580, Note_on_c, 0, 92, 0
4, 170580, Note_on_c, 0, 93, 108
4, 170640, Note_on_c, 0, 93, 0
4, 170700, Note_on_c, 0, 79, 109
4, 170760, Note_on_c, 0, 79, 0
4, 170760, Note_on_c, 0, 81, 110
4, 170820, Note_on_c, 0, 81, 0
4, 170820, Note_on_c, 0, 88, 110
4, 170880, Note_on_c, 0, 88, 0
4, 170880, Note_on_c, 0, 100, 111
4, 170880, Note_on_c, 0, 91, 111
4, 171840, Note_on_c, 0, 91, 0
4, 171840, Note_on_c, 0, 100, 0
4, 171840, End_track
5, 0, Start_track
5, 0, Title_t, "Unnamed Track"
5, 0, Control_c, 0, 0, 0
5, 0, Control_c, 0, 7, 115
5, 0, Control_c, 0, 10, 47
5, 0, Control_c, 0, 91, 100
5, 0, Control_c, 0, 93, 30
5, 0, Control_c, 0, 64, 0
5, 0, Control_c, 0, 64, 0
5, 0, Control_c, 0, 1, 0
5, 0, Pitch_bend_c, 0, 8192
5, 1, Control_c, 0, 32, 0
5, 1, Program_c, 0, 0
5, 58800, Note_on_c, 0, 58, 92
5, 58992, Note_on_c, 0, 58, 0
5, 59280, Note_on_c, 0, 58, 88
5, 59472, Note_on_c, 0, 58, 0
5, 59760, Note_on_c, 0, 58, 85
5, 59952, Note_on_c, 0, 58, 0
5, 60240, Note_on_c, 0, 57, 82
5, 60432, Note_on_c, 0, 57, 0
5, 62160, Note_on_c, 0, 61, 84
5, 62352, Note_on_c, 0, 61, 0
5, 62640, Note_on_c, 0, 57, 82
5, 62832, Note_on_c, 0, 57, 0
5, 63120, Note_on_c, 0, 62, 79
5, 63312, Note_on_c, 0, 62, 0
5, 63600, Note_on_c, 0, 50, 76
5, 63792, Note_on_c, 0, 50, 0
5, 65520, Note_on_c, 0, 58, 81
5, 65712, Note_on_c, 0, 58, 0
5, 66000, Note_on_c, 0, 58, 84
5, 66192, Note_on_c, 0, 58, 0
5, 66480, Note_on_c, 0, 57, 86
5, 66672, Note_on_c, 0, 57, 0
5, 66960, Note_on_c, 0, 53, 89
5, 67152, Note_on_c, 0, 53, 0
5, 68880, Note_on_c, 0, 53, 102
5, 69072, Note_on_c, 0, 53, 0
5, 69360, Note_on_c, 0, 57, 99
5, 69552, Note_on_c, 0, 57, 0
5, 69840, Note_on_c, 0, 62, 96
5, 70032, Note_on_c, 0, 62, 0
5, 70720, Note_on_c, 0, 41, 64
5, 70880, Note_on_c, 0, 41, 0
5, 70880, Note_on_c, 0, 45, 65
5, 70984, Note_on_c, 0, 45, 0
5, 71040, Note_on_c, 0, 45, 67
5, 71144, Note_on_c, 0, 45, 0
5, 71200, Note_on_c, 0, 45, 68
5, 71304, Note_on_c, 0, 45, 0
5, 71360, Note_on_c, 0, 45, 69
5, 71464, Note_on_c, 0, 45, 0
5, 71520, Note_on_c, 0, 45, 72
5, 71624, Note_on_c, 0, 45, 0
5, 71680, Note_on_c, 0, 45, 71
5, 71784, Note_on_c, 0, 45, 0
5, 71840, Note_on_c, 0, 45, 70
5, 71944, Note_on_c, 0, 45, 0
5, 72160, Note_on_c, 0, 40, 68
5, 72320, Note_on_c, 0, 40, 0
5, 72320, Note_on_c, 0, 45, 67
5, 72424, Note_on_c, 0, 45, 0
5, 72480, Note_on_c, 0, 45, 65
5, 72584, Note_on_c, 0, 45, 0
5, 72640, Note_on_c, 0, 45, 64
5, 72744, Note_on_c, 0, 45, 0
5, 72800, Note_on_c, 0, 45, 62
5, 72904, Note_on_c, 0, 45, 0
5, 73120, Note_on_c, 0, 40, 60
5, 73280, Note_on_c, 0, 40, 0
5, 73280, Note_on_c, 0, 45, 58
5, 73384, Note_on_c, 0, 45, 0
5, 73440, Note_on_c, 0, 45, 57
5, 73544, Note_on_c, 0, 45, 0
5, 73600, Note_on_c, 0, 45, 55
5, 73704, Note_on_c, 0, 45, 0
5, 73760, Note_on_c, 0, 45, 54
5, 73864, Note_on_c, 0, 45, 0
5, 74080, Note_on_c, 0, 41, 59
5, 74240, Note_on_c, 0, 41, 0
5, 74240, Note_on_c, 0, 43, 60
5, 74344, Note_on_c, 0, 43, 0
5, 74400, Note_on_c, 0, 43, 62
5, 74504, Note_on_c, 0, 43, 0
5, 74560, Note_on_c, 0, 43, 64
5, 74664, Note_on_c, 0, 43, 0
5, 74720, Note_on_c, 0, 43, 65
5, 74824, Note_on_c, 0, 43, 0
5, 74880, Note_on_c, 0, 43, 67
5, 74984, Note_on_c, 0, 43, 0
5, 75040, Note_on_c, 0, 43, 65
5, 75144, Note_on_c, 0, 43, 0
5, 75200, Note_on_c, 0, 43, 64
5, 75304, Note_on_c, 0, 43, 0
5, 75520, Note_on_c, 0, 40, 62
5, 75680, Note_on_c, 0, 40, 0
5, 75680, Note_on_c, 0, 45, 60
5, 75784, Note_on_c, 0, 45, 0
5, 75840, Note_on_c, 0, 45, 59
5, 75944, Note_on_c, 0, 45, 0
5, 76000, Note_on_c, 0, 45, 58
5, 76104, Note_on_c, 0, 45, 0
5, 76160, Note_on_c, 0, 45, 56
5, 76264, Note_on_c, 0, 45, 0
5, 76480, Note_on_c, 0, 41, 53
5, 76640, Note_on_c, 0, 41, 0
5, 76640, Note_on_c, 0, 45, 52
5, 76744, Note_on_c, 0, 45, 0
5, 76800, Note_on_c, 0, 45, 51
5, 76904, Note_on_c, 0, 45, 0
5, 76960, Note_on_c, 0, 45, 49
5, 77064, Note_on_c, 0, 45, 0
5, 77120, Note_on_c, 0, 45, 48
5, 77224, Note_on_c, 0, 45, 0
5, 77440, Note_on_c, 0, 42, 58
5, 77600, Note_on_c, 0, 42, 0
5, 77600, Note_on_c, 0, 38, 58
5, 77704, Note_on_c, 0, 38, 0
5, 77760, Note_on_c, 0, 38, 57
5, 77864, Note_on_c, 0, 38, 0
5, 77920, Note_on_c, 0, 38, 56
5, 78024, Note_on_c, 0, 38, 0
5, 78080, Note_on_c, 0, 38, 56
5, 78184, Note_on_c, 0, 38, 0
5, 78240, Note_on_c, 0, 38, 55
5, 78344, Note_on_c, 0, 38, 0
5, 78400, Note_on_c, 0, 38, 55
5, 78504, Note_on_c, 0, 38, 0
5, 78560, Note_on_c, 0, 38, 54
5, 78664, Note_on_c, 0, 38, 0
5, 78880, Note_on_c, 0, 45, 53
5, 79040, Note_on_c, 0, 45, 0
5, 79040, Note_on_c, 0, 38, 52
5, 79144, Note_on_c, 0, 38, 0
5, 79200, Note_on_c, 0, 38, 53
5, 79304, Note_on_c, 0, 38, 0
5, 79360, Note_on_c, 0, 38, 52
5, 79464, Note_on_c, 0, 38, 0
5, 79520, Note_on_c, 0, 38, 50
5, 79624, Note_on_c, 0, 38, 0
5, 79680, Note_on_c, 0, 38, 49
5, 79784, Note_on_c, 0, 38, 0
5, 79840, Note_on_c, 0, 38, 48
5, 79944, Note_on_c, 0, 38, 0
5, 80000, Note_on_c, 0, 38, 47
5, 80104, Note_on_c, 0, 38, 0
5, 80160, Note_on_c, 0, 38, 46
5, 80264, Note_on_c, 0, 38, 0
5, 80320, Note_on_c, 0, 38, 45
5, 80424, Note_on_c, 0, 38, 0
5, 80480, Note_on_c, 0, 38, 44
5, 80584, Note_on_c, 0, 38, 0
5, 80800, Note_on_c, 0, 34, 53
5, 80960, Note_on_c, 0, 34, 0
5, 80960, Note_on_c, 0, 31, 52
5, 81064, Note_on_c, 0, 31, 0
5, 81120, Note_on_c, 0, 31, 52
5, 81224, Note_on_c, 0, 31, 0
5, 81280, Note_on_c, 0, 31, 51
5, 81384, Note_on_c, 0, 31, 0
5, 81440, Note_on_c, 0, 31, 51
5, 81544, Note_on_c, 0, 31, 0
5, 81600, Note_on_c, 0, 32, 50
5, 81704, Note_on_c, 0, 32, 0
5, 81760, Note_on_c, 0, 32, 49
5, 81864, Note_on_c, 0, 32, 0
5, 81920, Note_on_c, 0, 32, 49
5, 82024, Note_on_c, 0, 32, 0
5, 82240, Note_on_c, 0, 38, 48
5, 82400, Note_on_c, 0, 38, 0
5, 82400, Note_on_c, 0, 33, 47
5, 82504, Note_on_c, 0, 33, 0
5, 82560, Note_on_c, 0, 33, 47
5, 82664, Note_on_c, 0, 33, 0
5, 82720, Note_on_c, 0, 33, 46
5, 82824, Note_on_c, 0, 33, 0
5, 82880, Note_on_c, 0, 33, 45
5, 82984, Note_on_c, 0, 33, 0
5, 83040, Note_on_c, 0, 38, 44
5, 83144, Note_on_c, 0, 38, 0
5, 83200, Note_on_c, 0, 38, 44
5, 83304, Note_on_c, 0, 38, 0
5, 83360, Note_on_c, 0, 38, 43
5, 83464, Note_on_c, 0, 38, 0
5, 83520, Note_on_c, 0, 38, 42
5, 83624, Note_on_c, 0, 38, 0
5, 83680, Note_on_c, 0, 38, 41
5, 83784, Note_on_c, 0, 38, 0
5, 83840, Note_on_c, 0, 38, 40
5, 83944, Note_on_c, 0, 38, 0
5, 88200, Note_on_c, 0, 52, 51
5, 88278, Note_on_c, 0, 52, 0
5, 88320, Note_on_c, 0, 52, 60
5, 88940, Note_on_c, 0, 52, 0
5, 89040, Note_on_c, 0, 52, 60
5, 89196, Note_on_c, 0, 52, 0
5, 89280, Note_on_c, 0, 52, 62
5, 89436, Note_on_c, 0, 52, 0
5, 89520, Note_on_c, 0, 52, 65
5, 89676, Note_on_c, 0, 52, 0
5, 89760, Note_on_c, 0, 52, 67
5, 89916, Note_on_c, 0, 52, 0
5, 90000, Note_on_c, 0, 52, 70
5, 90156, Note_on_c, 0, 52, 0
5, 90240, Note_on_c, 0, 52, 72
5, 90396, Note_on_c, 0, 52, 0
5, 90480, Note_on_c, 0, 52, 75
5, 90636, Note_on_c, 0, 52, 0
5, 91200, Note_on_c, 0, 62, 79
5, 91434, Note_on_c, 0, 62, 0
5, 91560, Note_on_c, 0, 50, 81
5, 91638, Note_on_c, 0, 50, 0
5, 91680, Note_on_c, 0, 50, 88
5, 92310, Note_on_c, 0, 50, 0
5, 92400, Note_on_c, 0, 50, 83
5, 92556, Note_on_c, 0, 50, 0
5, 92640, Note_on_c, 0, 50, 84
5, 92796, Note_on_c, 0, 50, 0
5, 92880, Note_on_c, 0, 50, 85
5, 93036, Note_on_c, 0, 50, 0
5, 93120, Note_on_c, 0, 50, 86
5, 93276, Note_on_c, 0, 50, 0
5, 93360, Note_on_c, 0, 50, 87
5, 93516, Note_on_c, 0, 50, 0
5, 93600, Note_on_c, 0, 50, 88
5, 93756, Note_on_c, 0, 50, 0
5, 93840, Note_on_c, 0, 50, 89
5, 93996, Note_on_c, 0, 50, 0
5, 100320, Control_c, 0, 64, 0
5, 114480, Note_on_c, 0, 38, 41
5, 114636, Note_on_c, 0, 38, 0
5, 114960, Note_on_c, 0, 38, 44
5, 115116, Note_on_c, 0, 38, 0
5, 115440, Note_on_c, 0, 38, 46
5, 115596, Note_on_c, 0, 38, 0
5, 115920, Note_on_c, 0, 38, 46
5, 116076, Note_on_c, 0, 38, 0
5, 116400, Note_on_c, 0, 38, 44
5, 116556, Note_on_c, 0, 38, 0
5, 116880, Note_on_c, 0, 38, 41
5, 117036, Note_on_c, 0, 38, 0
5, 117360, Note_on_c, 0, 38, 39
5, 117516, Note_on_c, 0, 38, 0
5, 117840, Note_on_c, 0, 38, 40
5, 117996, Note_on_c, 0, 38, 0
5, 118800, Note_on_c, 0, 38, 43
5, 118956, Note_on_c, 0, 38, 0
5, 119280, Note_on_c, 0, 38, 41
5, 119436, Note_on_c, 0, 38, 0
5, 119760, Note_on_c, 0, 38, 39
5, 119916, Note_on_c, 0, 38, 0
5, 120240, Note_on_c, 0, 38, 37
5, 120396, Note_on_c, 0, 38, 0
5, 120720, Note_on_c, 0, 36, 35
5, 120876, Note_on_c, 0, 36, 0
5, 120920, Note_on_c, 0, 35, 44
5, 120940, Note_on_c, 0, 47, 45
5, 121675, Note_on_c, 0, 47, 0
5, 121675, Note_on_c, 0, 35, 0
5, 122640, Note_on_c, 0, 47, 38
5, 122796, Note_on_c, 0, 47, 0
5, 123120, Note_on_c, 0, 47, 36
5, 123276, Note_on_c, 0, 47, 0
5, 123600, Note_on_c, 0, 47, 34
5, 123756, Note_on_c, 0, 47, 0
5, 124080, Note_on_c, 0, 46, 36
5, 124236, Note_on_c, 0, 46, 0
5, 124280, Note_on_c, 0, 45, 41
5, 124800, Note_on_c, 0, 38, 38
5, 124956, Note_on_c, 0, 38, 0
5, 125040, Note_on_c, 0, 45, 0
5, 126000, Note_on_c, 0, 38, 35
5, 126156, Note_on_c, 0, 38, 0
5, 126480, Note_on_c, 0, 38, 33
5, 126636, Note_on_c, 0, 38, 0
5, 126960, Note_on_c, 0, 38, 32
5, 127116, Note_on_c, 0, 38, 0
5, 154560, Control_c, 0, 64, 0
5, 154600, Control_c, 0, 64, 127
5, 154680, Note_on_c, 0, 50, 67
5, 154800, Note_on_c, 0, 50, 0
5, 154800, Control_c, 0, 64, 0
5, 154840, Control_c, 0, 64, 127
5, 154920, Note_on_c, 0, 54, 69
5, 155040, Note_on_c, 0, 54, 0
5, 155040, Control_c, 0, 64, 0
5, 155080, Control_c, 0, 64, 127
5, 155160, Note_on_c, 0, 57, 71
5, 155280, Note_on_c, 0, 57, 0
5, 155280, Control_c, 0, 64, 0
5, 155320, Control_c, 0, 64, 127
5, 155400, Note_on_c, 0, 57, 73
5, 155520, Note_on_c, 0, 57, 0
5, 155520, Control_c, 0, 64, 0
5, 155560, Control_c, 0, 64, 127
5, 155640, Note_on_c, 0, 55, 75
5, 155760, Note_on_c, 0, 55, 0
5, 155760, Control_c, 0, 64, 0
5, 155800, Control_c, 0, 64, 127
5, 155880, Note_on_c, 0, 59, 77
5, 156000, Note_on_c, 0, 59, 0
5, 156000, Control_c, 0, 64, 0
5, 156040, Control_c, 0, 64, 127
5, 156120, Note_on_c, 0, 62, 79
5, 156240, Note_on_c, 0, 62, 0
5, 156240, Control_c, 0, 64, 0
5, 156280, Control_c, 0, 64, 127
5, 156360, Note_on_c, 0, 50, 82
5, 156480, Note_on_c, 0, 50, 0
5, 156480, Control_c, 0, 64, 0
5, 156520, Control_c, 0, 64, 127
5, 156600, Note_on_c, 0, 52, 84
5, 156720, Note_on_c, 0, 52, 0
5, 156720, Control_c, 0, 64, 0
5, 156760, Control_c, 0, 64, 127
5, 156840, Note_on_c, 0, 54, 86
5, 156960, Note_on_c, 0, 54, 0
5, 156960, Control_c, 0, 64, 0
5, 157000, Control_c, 0, 64, 127
5, 157080, Note_on_c, 0, 55, 88
5, 157200, Note_on_c, 0, 55, 0
5, 157200, Control_c, 0, 64, 0
5, 157240, Control_c, 0, 64, 127
5, 157320, Note_on_c, 0, 56, 90
5, 157440, Note_on_c, 0, 56, 0
5, 157440, Control_c, 0, 64, 0
5, 157480, Control_c, 0, 64, 127
5, 157560, Note_on_c, 0, 57, 92
5, 157680, Note_on_c, 0, 57, 0
5, 157680, Control_c, 0, 64, 0
5, 157720, Control_c, 0, 64, 127
5, 157800, Note_on_c, 0, 55, 94
5, 157920, Note_on_c, 0, 55, 0
5, 157920, Control_c, 0, 64, 0
5, 157960, Control_c, 0, 64, 127
5, 158040, Note_on_c, 0, 54, 96
5, 158160, Note_on_c, 0, 54, 0
5, 158160, Control_c, 0, 64, 0
5, 158200, Control_c, 0, 64, 127
5, 158280, Note_on_c, 0, 52, 98
5, 158400, Note_on_c, 0, 52, 0
5, 158400, Control_c, 0, 64, 0
5, 158440, Control_c, 0, 64, 127
5, 158520, Note_on_c, 0, 50, 100
5, 158640, Note_on_c, 0, 50, 0
5, 158640, Control_c, 0, 64, 0
5, 158680, Control_c, 0, 64, 127
5, 158760, Note_on_c, 0, 69, 102
5, 158880, Note_on_c, 0, 69, 0
5, 158880, Control_c, 0, 64, 0
5, 158920, Control_c, 0, 64, 127
5, 159000, Note_on_c, 0, 62, 101
5, 159120, Note_on_c, 0, 62, 0
5, 159120, Control_c, 0, 64, 0
5, 159160, Control_c, 0, 64, 127
5, 159240, Note_on_c, 0, 57, 100
5, 159360, Note_on_c, 0, 57, 0
5, 159360, Control_c, 0, 64, 0
5, 159400, Control_c, 0, 64, 127
5, 159480, Note_on_c, 0, 57, 98
5, 159600, Note_on_c, 0, 57, 0
5, 159600, Control_c, 0, 64, 0
5, 159640, Control_c, 0, 64, 127
5, 159720, Note_on_c, 0, 60, 97
5, 159840, Note_on_c, 0, 60, 0
5, 159840, Control_c, 0, 64, 0
5, 159880, Control_c, 0, 64, 127
5, 159960, Note_on_c, 0, 53, 96
5, 160080, Note_on_c, 0, 53, 0
5, 160080, Control_c, 0, 64, 0
5, 160120, Control_c, 0, 64, 127
5, 160200, Note_on_c, 0, 48, 94
5, 160320, Note_on_c, 0, 48, 0
5, 160320, Control_c, 0, 64, 0
5, 160360, Control_c, 0, 64, 127
5, 160440, Note_on_c, 0, 45, 93
5, 160560, Note_on_c, 0, 45, 0
5, 160560, Control_c, 0, 64, 0
5, 160600, Control_c, 0, 64, 127
5, 160680, Note_on_c, 0, 69, 92
5, 160800, Note_on_c, 0, 69, 0
5, 160800, Control_c, 0, 64, 0
5, 160840, Control_c, 0, 64, 127
5, 160920, Note_on_c, 0, 62, 90
5, 161040, Note_on_c, 0, 62, 0
5, 161040, Control_c, 0, 64, 0
5, 161080, Control_c, 0, 64, 127
5, 161160, Note_on_c, 0, 57, 89
5, 161280, Note_on_c, 0, 57, 0
5, 161280, Control_c, 0, 64, 0
5, 161320, Control_c, 0, 64, 127
5, 161400, Note_on_c, 0, 54, 88
5, 161520, Note_on_c, 0, 54, 0
5, 161520, Control_c, 0, 64, 0
5, 161560, Control_c, 0, 64, 127
5, 161640, Note_on_c, 0, 55, 86
5, 161760, Note_on_c, 0, 55, 0
5, 161760, Control_c, 0, 64, 0
5, 161800, Control_c, 0, 64, 127
5, 161880, Note_on_c, 0, 57, 85
5, 162000, Note_on_c, 0, 57, 0
5, 162000, Control_c, 0, 64, 0
5, 162040, Control_c, 0, 64, 127
5, 162120, Note_on_c, 0, 45, 84
5, 162240, Note_on_c, 0, 45, 0
5, 162240, Control_c, 0, 64, 0
5, 162320, Note_on_c, 0, 45, 58
5, 162400, Note_on_c, 0, 45, 0
5, 162400, Note_on_c, 0, 50, 59
5, 162480, Note_on_c, 0, 50, 0
5, 162560, Note_on_c, 0, 50, 60
5, 162640, Note_on_c, 0, 50, 0
5, 162640, Note_on_c, 0, 54, 61
5, 162720, Note_on_c, 0, 54, 0
5, 162800, Note_on_c, 0, 47, 62
5, 162880, Note_on_c, 0, 47, 0
5, 162880, Note_on_c, 0, 56, 62
5, 162960, Note_on_c, 0, 56, 0
5, 163040, Note_on_c, 0, 49, 64
5, 163120, Note_on_c, 0, 49, 0
5, 163120, Note_on_c, 0, 57, 64
5, 163200, Note_on_c, 0, 57, 0
5, 163280, Note_on_c, 0, 50, 65
5, 163360, Note_on_c, 0, 50, 0
5, 163360, Note_on_c, 0, 55, 66
5, 163440, Note_on_c, 0, 55, 0
5, 163520, Note_on_c, 0, 50, 67
5, 163600, Note_on_c, 0, 50, 0
5, 163600, Note_on_c, 0, 59, 68
5, 163680, Note_on_c, 0, 59, 0
5, 163760, Note_on_c, 0, 52, 69
5, 163840, Note_on_c, 0, 52, 0
5, 163840, Note_on_c, 0, 61, 69
5, 163920, Note_on_c, 0, 61, 0
5, 164000, Note_on_c, 0, 54, 70
5, 164080, Note_on_c, 0, 54, 0
5, 164080, Note_on_c, 0, 62, 71
5, 164160, Note_on_c, 0, 62, 0
5, 164240, Note_on_c, 0, 47, 72
5, 164320, Note_on_c, 0, 47, 0
5, 164320, Note_on_c, 0, 52, 73
5, 164400, Note_on_c, 0, 52, 0
5, 164480, Note_on_c, 0, 47, 74
5, 164560, Note_on_c, 0, 47, 0
5, 164560, Note_on_c, 0, 54, 74
5, 164640, Note_on_c, 0, 54, 0
5, 164720, Note_on_c, 0, 47, 75
5, 164800, Note_on_c, 0, 47, 0
5, 164800, Note_on_c, 0, 55, 76
5, 164880, Note_on_c, 0, 55, 0
5, 164960, Note_on_c, 0, 47, 77
5, 165040, Note_on_c, 0, 47, 0
5, 165040, Note_on_c, 0, 56, 78
5, 165120, Note_on_c, 0, 56, 0
5, 165200, Note_on_c, 0, 49, 79
5, 165280, Note_on_c, 0, 49, 0
5, 165280, Note_on_c, 0, 57, 79
5, 165360, Note_on_c, 0, 57, 0
5, 165440, Note_on_c, 0, 45, 80
5, 165520, Note_on_c, 0, 45, 0
5, 165520, Note_on_c, 0, 55, 81
5, 165600, Note_on_c, 0, 55, 0
5, 165680, Note_on_c, 0, 45, 82
5, 165760, Note_on_c, 0, 45, 0
5, 165760, Note_on_c, 0, 54, 83
5, 165840, Note_on_c, 0, 54, 0
5, 165920, Note_on_c, 0, 45, 84
5, 166000, Note_on_c, 0, 45, 0
5, 166000, Note_on_c, 0, 52, 84
5, 166080, Note_on_c, 0, 52, 0
5, 166160, Note_on_c, 0, 45, 86
5, 166240, Note_on_c, 0, 45, 0
5, 166240, Note_on_c, 0, 50, 86
5, 166320, Note_on_c, 0, 50, 0
5, 166320, Note_on_c, 0, 50, 87
5, 166440, Note_on_c, 0, 50, 0
5, 166440, Note_on_c, 0, 60, 88
5, 166560, Note_on_c, 0, 60, 0
5, 166560, Note_on_c, 0, 50, 88
5, 166680, Note_on_c, 0, 50, 0
5, 166680, Note_on_c, 0, 59, 89
5, 166800, Note_on_c, 0, 59, 0
5, 166800, Note_on_c, 0, 50, 90
5, 166920, Note_on_c, 0, 50, 0
5, 166920, Note_on_c, 0, 58, 91
5, 167040, Note_on_c, 0, 58, 0
5, 167040, Note_on_c, 0, 50, 92
5, 167160, Note_on_c, 0, 50, 0
5, 167160, Note_on_c, 0, 57, 93
5, 167280, Note_on_c, 0, 57, 0
5, 167280, Note_on_c, 0, 45, 93
5, 167400, Note_on_c, 0, 45, 0
5, 167400, Note_on_c, 0, 55, 94
5, 167520, Note_on_c, 0, 55, 0
5, 167520, Note_on_c, 0, 45, 95
5, 167640, Note_on_c, 0, 45, 0
5, 167640, Note_on_c, 0, 53, 96
5, 167760, Note_on_c, 0, 53, 0
5, 167880, Note_on_c, 0, 48, 98
5, 168000, Note_on_c, 0, 48, 0
5, 168120, Note_on_c, 0, 45, 99
5, 168240, Note_on_c, 0, 45, 0
5, 168320, Note_on_c, 0, 50, 101
5, 168400, Note_on_c, 0, 50, 0
5, 168400, Note_on_c, 0, 60, 101
5, 168480, Note_on_c, 0, 60, 0
5, 168560, Note_on_c, 0, 50, 102
5, 168640, Note_on_c, 0, 50, 0
5, 168640, Note_on_c, 0, 59, 103
5, 168720, Note_on_c, 0, 59, 0
5, 168800, Note_on_c, 0, 50, 89
5, 168880, Note_on_c, 0, 50, 0
5, 168880, Note_on_c, 0, 58, 89
5, 168960, Note_on_c, 0, 58, 0
5, 169040, Note_on_c, 0, 50, 91
5, 169120, Note_on_c, 0, 50, 0
5, 169120, Note_on_c, 0, 57, 92
5, 169200, Note_on_c, 0, 57, 0
5, 169280, Note_on_c, 0, 45, 94
5, 169360, Note_on_c, 0, 45, 0
5, 169360, Note_on_c, 0, 55, 95
5, 169440, Note_on_c, 0, 55, 0
5, 169520, Note_on_c, 0, 45, 96
5, 169600, Note_on_c, 0, 45, 0
5, 169600, Note_on_c, 0, 54, 97
5, 169680, Note_on_c, 0, 54, 0
5, 169760, Note_on_c, 0, 47, 99
5, 169840, Note_on_c, 0, 47, 0
5, 169840, Note_on_c, 0, 53, 100
5, 169920, Note_on_c, 0, 53, 0
5, 170000, Note_on_c, 0, 47, 101
5, 170080, Note_on_c, 0, 47, 0
5, 170080, Note_on_c, 0, 52, 102
5, 170160, Note_on_c, 0, 52, 0
5, 170240, Note_on_c, 0, 45, 104
5, 170320, Note_on_c, 0, 45, 0
5, 170320, Note_on_c, 0, 51, 105
5, 170400, Note_on_c, 0, 51, 0
5, 170480, Note_on_c, 0, 44, 107
5, 170560, Note_on_c, 0, 44, 0
5, 170560, Note_on_c, 0, 50, 107
5, 170640, Note_on_c, 0, 50, 0
5, 170720, Note_on_c, 0, 45, 109
5, 170800, Note_on_c, 0, 45, 0
5, 170800, Note_on_c, 0, 49, 110
5, 170840, Note_on_c, 0, 64, 111
5, 170860, Note_on_c, 0, 67, 111
5, 170880, Note_on_c, 0, 49, 0
5, 170880, Note_on_c, 0, 69, 111
5, 170880, Note_on_c, 0, 76, 111
5, 171820, Note_on_c, 0, 67, 0
5, 171830, Note_on_c, 0, 64, 0
5, 171840, Note_on_c, 0, 69, 0
5, 171840, Note_on_c, 0, 76, 0
5, 172440, Note_on_c, 0, 57, 62
5, 172680, Note_on_c, 0, 57, 0
5, 172800, Note_on_c, 0, 66, 65
5, 172956, Note_on_c, 0, 66, 0
5, 173040, Note_on_c, 0, 66, 64
5, 173196, Note_on_c, 0, 66, 0
5, 173280, Note_on_c, 0, 62, 64
5, 173436, Note_on_c, 0, 62, 0
5, 173520, Note_on_c, 0, 62, 64
5, 173676, Note_on_c, 0, 62, 0
5, 173760, Note_on_c, 0, 50, 65
5, 173916, Note_on_c, 0, 50, 0
5, 174240, Note_on_c, 0, 62, 65
5, 174396, Note_on_c, 0, 62, 0
5, 174720, Note_on_c, 0, 67, 66
5, 174876, Note_on_c, 0, 67, 0
5, 174960, Note_on_c, 0, 67, 66
5, 175116, Note_on_c, 0, 67, 0
5, 175200, Note_on_c, 0, 64, 67
5, 175356, Note_on_c, 0, 64, 0
5, 175440, Note_on_c, 0, 64, 67
5, 175596, Note_on_c, 0, 64, 0
5, 175680, Note_on_c, 0, 61, 67
5, 175836, Note_on_c, 0, 61, 0
5, 175920, Note_on_c, 0, 57, 67
5, 176076, Note_on_c, 0, 57, 0
5, 176160, Note_on_c, 0, 62, 68
5, 176316, Note_on_c, 0, 62, 0
5, 177600, Note_on_c, 0, 64, 70
5, 177756, Note_on_c, 0, 64, 0
5, 177840, Note_on_c, 0, 57, 70
5, 177996, Note_on_c, 0, 57, 0
5, 178080, Note_on_c, 0, 54, 70
5, 178236, Note_on_c, 0, 54, 0
5, 178320, Note_on_c, 0, 50, 71
5, 178476, Note_on_c, 0, 50, 0
5, 179520, Note_on_c, 0, 55, 72
5, 179676, Note_on_c, 0, 55, 0
5, 179760, Note_on_c, 0, 52, 73
5, 179916, Note_on_c, 0, 52, 0
5, 180000, Note_on_c, 0, 57, 73
5, 180156, Note_on_c, 0, 57, 0
5, 180240, Note_on_c, 0, 45, 73
5, 180396, Note_on_c, 0, 45, 0
5, 180480, Note_on_c, 0, 50, 82
5, 180640, Note_on_c, 0, 50, 0
5, 180640, Note_on_c, 0, 50, 74
5, 180800, Note_on_c, 0, 50, 0
5, 180800, Note_on_c, 0, 50, 74
5, 181116, Note_on_c, 0, 50, 0
5, 181200, Note_on_c, 0, 45, 75
5, 181356, Note_on_c, 0, 45, 0
5, 181440, Note_on_c, 0, 41, 75
5, 181596, Note_on_c, 0, 41, 0
5, 181680, Note_on_c, 0, 38, 75
5, 181836, Note_on_c, 0, 38, 0
5, 182640, Note_on_c, 0, 50, 77
5, 182796, Note_on_c, 0, 50, 0
5, 182880, Note_on_c, 0, 50, 77
5, 183036, Note_on_c, 0, 50, 0
5, 183120, Note_on_c, 0, 50, 77
5, 183276, Note_on_c, 0, 50, 0
5, 183360, Note_on_c, 0, 50, 78
5, 183516, Note_on_c, 0, 50, 0
5, 183600, Note_on_c, 0, 50, 78
5, 183756, Note_on_c, 0, 50, 0
5, 183840, Note_on_c, 0, 50, 78
5, 183996, Note_on_c, 0, 50, 0
5, 184080, Note_on_c, 0, 50, 78
5, 184236, Note_on_c, 0, 50, 0
5, 184320, Note_on_c, 0, 52, 87
5, 184480, Note_on_c, 0, 52, 0
5, 184480, Note_on_c, 0, 52, 79
5, 184640, Note_on_c, 0, 52, 0
5, 184640, Note_on_c, 0, 52, 79
5, 184956, Note_on_c, 0, 52, 0
5, 185040, Note_on_c, 0, 46, 80
5, 185196, Note_on_c, 0, 46, 0
5, 185280, Note_on_c, 0, 43, 80
5, 185436, Note_on_c, 0, 43, 0
5, 185520, Note_on_c, 0, 40, 80
5, 185676, Note_on_c, 0, 40, 0
5, 186480, Note_on_c, 0, 52, 82
5, 186636, Note_on_c, 0, 52, 0
5, 186720, Note_on_c, 0, 52, 82
5, 186876, Note_on_c, 0, 52, 0
5, 186960, Note_on_c, 0, 52, 82
5, 187116, Note_on_c, 0, 52, 0
5, 187200, Note_on_c, 0, 52, 83
5, 187356, Note_on_c, 0, 52, 0
5, 187440, Note_on_c, 0, 52, 83
5, 187596, Note_on_c, 0, 52, 0
5, 187680, Note_on_c, 0, 52, 83
5, 187836, Note_on_c, 0, 52, 0
5, 187920, Note_on_c, 0, 52, 84
5, 188076, Note_on_c, 0, 52, 0
5, 193080, Note_on_c, 0, 50, 91
5, 193200, Note_on_c, 0, 50, 0
5, 193320, Note_on_c, 0, 50, 91
5, 193440, Note_on_c, 0, 50, 0
5, 193560, Note_on_c, 0, 50, 91
5, 193680, Note_on_c, 0, 50, 0
5, 193800, Note_on_c, 0, 48, 92
5, 193920, Note_on_c, 0, 48, 0
5, 194040, Note_on_c, 0, 46, 92
5, 194160, Note_on_c, 0, 46, 0
5, 194280, Note_on_c, 0, 46, 92
5, 194400, Note_on_c, 0, 46, 0
5, 194520, Note_on_c, 0, 46, 93
5, 194640, Note_on_c, 0, 46, 0
5, 194760, Note_on_c, 0, 45, 93
5, 194880, Note_on_c, 0, 45, 0
5, 195000, Note_on_c, 0, 43, 93
5, 195120, Note_on_c, 0, 43, 0
5, 195240, Note_on_c, 0, 43, 94
5, 195360, Note_on_c, 0, 43, 0
5, 195480, Note_on_c, 0, 43, 94
5, 195600, Note_on_c, 0, 43, 0
5, 195720, Note_on_c, 0, 41, 94
5, 195840, Note_on_c, 0, 41, 0
5, 195840, Note_on_c, 0, 40, 94
5, 195960, Note_on_c, 0, 40, 0
5, 201840, Note_on_c, 0, 66, 102
5, 201996, Note_on_c, 0, 66, 0
5, 202080, Note_on_c, 0, 62, 103
5, 202236, Note_on_c, 0, 62, 0
5, 202320, Note_on_c, 0, 62, 103
5, 202476, Note_on_c, 0, 62, 0
5, 202560, Note_on_c, 0, 50, 103
5, 202716, Note_on_c, 0, 50, 0
5, 203040, Note_on_c, 0, 62, 104
5, 203196, Note_on_c, 0, 62, 0
5, 203520, Note_on_c, 0, 67, 105
5, 203676, Note_on_c, 0, 67, 0
5, 203760, Note_on_c, 0, 67, 105
5, 203916, Note_on_c, 0, 67, 0
5, 204000, Note_on_c, 0, 64, 105
5, 204156, Note_on_c, 0, 64, 0
5, 204240, Note_on_c, 0, 64, 106
5, 204396, Note_on_c, 0, 64, 0
5, 204480, Note_on_c, 0, 61, 106
5, 204636, Note_on_c, 0, 61, 0
5, 204720, Note_on_c, 0, 57, 106
5, 204876, Note_on_c, 0, 57, 0
5, 204960, Note_on_c, 0, 62, 107
5, 205116, Note_on_c, 0, 62, 0
5, 206400, Note_on_c, 0, 64, 109
5, 206556, Note_on_c, 0, 64, 0
5, 206640, Note_on_c, 0, 57, 109
5, 206796, Note_on_c, 0, 57, 0
5, 206880, Note_on_c, 0, 54, 109
5, 207036, Note_on_c, 0, 54, 0
5, 207120, Note_on_c, 0, 50, 110
5, 207276, Note_on_c, 0, 50, 0
5, 208320, Note_on_c, 0, 55, 111
5, 208476, Note_on_c, 0, 55, 0
5, 208560, Note_on_c, 0, 52, 111
5, 208716, Note_on_c, 0, 52, 0
5, 208800, Note_on_c, 0, 57, 112
5, 208956, Note_on_c, 0, 57, 0
5, 209040, Note_on_c, 0, 45, 112
5, 209196, Note_on_c, 0, 45, 0
5, 209280, Note_on_c, 0, 50, 114
5, 209408, Note_on_c, 0, 50, 0
5, 269760, Note_on_c, 0, 62, 78
5, 269916, Note_on_c, 0, 62, 0
5, 270240, Note_on_c, 0, 50, 78
5, 270396, Note_on_c, 0, 50, 0
5, 270720, Note_on_c, 0, 38, 79
5, 270876, Note_on_c, 0, 38, 0
5, 271200, Note_on_c, 0, 50, 79
5, 271356, Note_on_c, 0, 50, 0
5, 271440, Note_on_c, 0, 62, 79
5, 271596, Note_on_c, 0, 62, 0
5, 271680, Note_on_c, 0, 67, 78
5, 271836, Note_on_c, 0, 67, 0
5, 271920, Note_on_c, 0, 64, 80
5, 272076, Note_on_c, 0, 64, 0
5, 272160, Note_on_c, 0, 59, 83
5, 272316, Note_on_c, 0, 59, 0
5, 272400, Note_on_c, 0, 52, 85
5, 272556, Note_on_c, 0, 52, 0
5, 272640, Note_on_c, 0, 49, 89
5, 272796, Note_on_c, 0, 49, 0
5, 272880, Note_on_c, 0, 45, 87
5, 273036, Note_on_c, 0, 45, 0
5, 273120, Note_on_c, 0, 50, 85
5, 273276, Note_on_c, 0, 50, 0
5, 273360, Note_on_c, 0, 62, 83
5, 273516, Note_on_c, 0, 62, 0
5, 275520, Note_on_c, 0, 62, 84
5, 275676, Note_on_c, 0, 62, 0
5, 275760, Note_on_c, 0, 60, 84
5, 275916, Note_on_c, 0, 60, 0
5, 276000, Note_on_c, 0, 53, 84
5, 276156, Note_on_c, 0, 53, 0
5, 276240, Note_on_c, 0, 48, 84
5, 276396, Note_on_c, 0, 48, 0
5, 276480, Note_on_c, 0, 41, 85
5, 276636, Note_on_c, 0, 41, 0
5, 276720, Note_on_c, 0, 43, 85
5, 276876, Note_on_c, 0, 43, 0
5, 276960, Note_on_c, 0, 44, 85
5, 277116, Note_on_c, 0, 44, 0
5, 277200, Note_on_c, 0, 45, 85
5, 277356, Note_on_c, 0, 45, 0
5, 285120, Note_on_c, 0, 55, 94
5, 285276, Note_on_c, 0, 55, 0
5, 285360, Note_on_c, 0, 55, 94
5, 285516, Note_on_c, 0, 55, 0
5, 285600, Note_on_c, 0, 55, 94
5, 285756, Note_on_c, 0, 55, 0
5, 285840, Note_on_c, 0, 55, 94
5, 285996, Note_on_c, 0, 55, 0
5, 286080, Note_on_c, 0, 57, 95
5, 286080, Note_on_c, 0, 52, 95
5, 286236, Note_on_c, 0, 52, 0
5, 286236, Note_on_c, 0, 57, 0
5, 286320, Note_on_c, 0, 52, 95
5, 286320, Note_on_c, 0, 57, 95
5, 286476, Note_on_c, 0, 57, 0
5, 286476, Note_on_c, 0, 52, 0
5, 286560, Note_on_c, 0, 52, 95
5, 286560, Note_on_c, 0, 57, 95
5, 286716, Note_on_c, 0, 57, 0
5, 286716, Note_on_c, 0, 52, 0
5, 286800, Note_on_c, 0, 52, 95
5, 286800, Note_on_c, 0, 57, 95
5, 286956, Note_on_c, 0, 57, 0
5, 286956, Note_on_c, 0, 52, 0
5, 287040, Note_on_c, 0, 50, 96
5, 287040, Note_on_c, 0, 57, 96
5, 287196, Note_on_c, 0, 57, 0
5, 287196, Note_on_c, 0, 50, 0
5, 287520, Note_on_c, 0, 50, 96
5, 287520, Note_on_c, 0, 55, 96
5, 287676, Note_on_c, 0, 55, 0
5, 287676, Note_on_c, 0, 50, 0
5, 288000, Note_on_c, 0, 50, 97
5, 288000, Note_on_c, 0, 57, 97
5, 288000, Note_on_c, 0, 54, 97
5, 288156, Note_on_c, 0, 54, 0
5, 288156, Note_on_c, 0, 57, 0
5, 288156, Note_on_c, 0, 50, 0
5, 288480, Note_on_c, 0, 40, 97
5, 288636, Note_on_c, 0, 40, 0
5, 293280, Note_on_c, 0, 47, 102
5, 293640, Note_on_c, 0, 47, 0
5, 293760, Note_on_c, 0, 45, 103
5, 294120, Note_on_c, 0, 45, 0
5, 298560, Note_on_c, 0, 50, 108
5, 298920, Note_on_c, 0, 50, 0
5, 299040, Note_on_c, 0, 50, 108
5, 299300, Note_on_c, 0, 50, 0
5, 299360, Note_on_c, 0, 50, 108
5, 299464, Note_on_c, 0, 50, 0
5, 299520, Note_on_c, 0, 54, 109
5, 300240, Note_on_c, 0, 54, 0
5, 302400, Note_on_c, 0, 33, 112
5, 304320, Note_on_c, 0, 33, 0
5, 304320, End_track
6, 0, Start_track
6, 0, Title_t, "Unnamed Track"
6, 0, Control_c, 0, 0, 0
6, 0, Control_c, 0, 7, 115
6, 0, Control_c, 0, 10, 32
6, 0, Control_c, 0, 91, 100
6, 0, Control_c, 0, 93, 30
6, 0, Control_c, 0, 64, 0
6, 0, Control_c, 0, 64, 0
6, 0, Control_c, 0, 64, 0
6, 0, Control_c, 0, 1, 0
6, 0, Pitch_bend_c, 0, 8192
6, 1, Control_c, 0, 32, 0
6, 1, Program_c, 0, 0
6, 3360, Note_on_c, 0, 62, 82
6, 3552, Note_on_c, 0, 62, 0
6, 3600, Note_on_c, 0, 66, 83
6, 3792, Note_on_c, 0, 66, 0
6, 3840, Note_on_c, 0, 69, 84
6, 4320, Note_on_c, 0, 69, 0
6, 4320, Note_on_c, 0, 69, 86
6, 4320, Note_on_c, 0, 62, 86
6, 4800, Note_on_c, 0, 62, 0
6, 4800, Note_on_c, 0, 69, 0
6, 4800, Note_on_c, 0, 43, 88
6, 4800, Note_on_c, 0, 55, 88
6, 5280, Note_on_c, 0, 55, 0
6, 5280, Note_on_c, 0, 43, 0
6, 5280, Note_on_c, 0, 47, 86
6, 5280, Note_on_c, 0, 59, 86
6, 5760, Note_on_c, 0, 59, 0
6, 5760, Note_on_c, 0, 47, 0
6, 5760, Note_on_c, 0, 50, 83
6, 5760, Note_on_c, 0, 62, 83
6, 6240, Note_on_c, 0, 62, 0
6, 6240, Note_on_c, 0, 50, 0
6, 6240, Note_on_c, 0, 38, 80
6, 6240, Note_on_c, 0, 50, 80
6, 6720, Note_on_c, 0, 50, 0
6, 6720, Note_on_c, 0, 38, 0
6, 6720, Note_on_c, 0, 64, 76
6, 6720, Note_on_c, 0, 57, 76
6, 6912, Note_on_c, 0, 57, 0
6, 6912, Note_on_c, 0, 64, 0
6, 6960, Note_on_c, 0, 66, 77
6, 6960, Note_on_c, 0, 62, 77
6, 7152, Note_on_c, 0, 62, 0
6, 7152, Note_on_c, 0, 66, 0
6, 7200, Note_on_c, 0, 64, 78
6, 7200, Note_on_c, 0, 61, 78
6, 7680, Note_on_c, 0, 61, 0
6, 7680, Note_on_c, 0, 64, 0
6, 7680, Note_on_c, 0, 64, 81
6, 7680, Note_on_c, 0, 62, 81
6, 7680, Note_on_c, 0, 59, 81
6, 8160, Note_on_c, 0, 59, 0
6, 8160, Note_on_c, 0, 62, 0
6, 8160, Note_on_c, 0, 64, 0
6, 8160, Note_on_c, 0, 49, 83
6, 8160, Note_on_c, 0, 61, 83
6, 8640, Note_on_c, 0, 61, 0
6, 8640, Note_on_c, 0, 49, 0
6, 8640, Note_on_c, 0, 45, 81
6, 8640, Note_on_c, 0, 57, 81
6, 9120, Note_on_c, 0, 57, 0
6, 9120, Note_on_c, 0, 45, 0
6, 9120, Note_on_c, 0, 50, 79
6, 9120, Note_on_c, 0, 62, 79
6, 9600, Note_on_c, 0, 62, 0
6, 9600, Note_on_c, 0, 50, 0
6, 9600, Note_on_c, 0, 38, 77
6, 9600, Note_on_c, 0, 50, 77
6, 10080, Note_on_c, 0, 50, 0
6, 10080, Note_on_c, 0, 38, 0
6, 10080, Note_on_c, 0, 69, 81
6, 10272, Note_on_c, 0, 69, 0
6, 10320, Note_on_c, 0, 69, 83
6, 10512, Note_on_c, 0, 69, 0
6, 10560, Note_on_c, 0, 62, 86
6, 11280, Note_on_c, 0, 62, 0
6, 11280, Note_on_c, 0, 57, 83
6, 11472, Note_on_c, 0, 57, 0
6, 11520, Note_on_c, 0, 38, 82
6, 11520, Note_on_c, 0, 50, 82
6, 12000, Note_on_c, 0, 50, 0
6, 12000, Note_on_c, 0, 38, 0
6, 12000, Note_on_c, 0, 57, 80
6, 12000, Note_on_c, 0, 45, 80
6, 12480, Note_on_c, 0, 45, 0
6, 12480, Note_on_c, 0, 57, 0
6, 12480, Note_on_c, 0, 50, 79
6, 12480, Note_on_c, 0, 62, 79
6, 12960, Note_on_c, 0, 62, 0
6, 12960, Note_on_c, 0, 50, 0
6, 12960, Note_on_c, 0, 52, 77
6, 12960, Note_on_c, 0, 62, 77
6, 13440, Note_on_c, 0, 62, 0
6, 13440, Note_on_c, 0, 52, 0
6, 13440, Note_on_c, 0, 54, 77
6, 13440, Note_on_c, 0, 62, 77
6, 13632, Note_on_c, 0, 62, 0
6, 13632, Note_on_c, 0, 54, 0
6, 13680, Note_on_c, 0, 54, 78
6, 13680, Note_on_c, 0, 62, 78
6, 13872, Note_on_c, 0, 62, 0
6, 13872, Note_on_c, 0, 54, 0
6, 13920, Note_on_c, 0, 66, 82
6, 13920, Note_on_c, 0, 59, 82
6, 14640, Note_on_c, 0, 59, 0
6, 14640, Note_on_c, 0, 66, 0
6, 14640, Note_on_c, 0, 57, 79
6, 14832, Note_on_c, 0, 57, 0
6, 14880, Note_on_c, 0, 42, 79
6, 14880, Note_on_c, 0, 54, 79
6, 15360, Note_on_c, 0, 54, 0
6, 15360, Note_on_c, 0, 42, 0
6, 15360, Note_on_c, 0, 57, 77
6, 15360, Note_on_c, 0, 45, 77
6, 15840, Note_on_c, 0, 45, 0
6, 15840, Note_on_c, 0, 57, 0
6, 15840, Note_on_c, 0, 33, 75
6, 15840, Note_on_c, 0, 45, 75
6, 16320, Note_on_c, 0, 45, 0
6, 16320, Note_on_c, 0, 33, 0
6, 16320, Note_on_c, 0, 38, 74
6, 16320, Note_on_c, 0, 50, 74
6, 16680, Note_on_c, 0, 50, 0
6, 16680, Note_on_c, 0, 38, 0
6, 16800, Note_on_c, 0, 38, 88
6, 16800, Note_on_c, 0, 26, 88
6, 16992, Note_on_c, 0, 26, 0
6, 16992, Note_on_c, 0, 38, 0
6, 17040, Note_on_c, 0, 29, 89
6, 17040, Note_on_c, 0, 41, 89
6, 17232, Note_on_c, 0, 41, 0
6, 17232, Note_on_c, 0, 29, 0
6, 17280, Note_on_c, 0, 33, 90
6, 17280, Note_on_c, 0, 45, 90
6, 17760, Note_on_c, 0, 45, 0
6, 17760, Note_on_c, 0, 33, 0
6, 17760, Note_on_c, 0, 33, 93
6, 17760, Note_on_c, 0, 45, 93
6, 18240, Note_on_c, 0, 45, 0
6, 18240, Note_on_c, 0, 33, 0
6, 18240, Note_on_c, 0, 34, 96
6, 18240, Note_on_c, 0, 46, 96
6, 18720, Note_on_c, 0, 46, 0
6, 18720, Note_on_c, 0, 34, 0
6, 18720, Note_on_c, 0, 46, 92
6, 18720, Note_on_c, 0, 34, 92
6, 19200, Note_on_c, 0, 34, 0
6, 19200, Note_on_c, 0, 46, 0
6, 19200, Note_on_c, 0, 34, 90
6, 19200, Note_on_c, 0, 46, 90
6, 19680, Note_on_c, 0, 46, 0
6, 19680, Note_on_c, 0, 34, 0
6, 19680, Note_on_c, 0, 33, 89
6, 19680, Note_on_c, 0, 45, 89
6, 20160, Note_on_c, 0, 45, 0
6, 20160, Note_on_c, 0, 33, 0
6, 20160, Note_on_c, 0, 40, 86
6, 20160, Note_on_c, 0, 28, 86
6, 20352, Note_on_c, 0, 28, 0
6, 20352, Note_on_c, 0, 40, 0
6, 20400, Note_on_c, 0, 29, 87
6, 20400, Note_on_c, 0, 41, 87
6, 20592, Note_on_c, 0, 41, 0
6, 20592, Note_on_c, 0, 29, 0
6, 20640, Note_on_c, 0, 43, 88
6, 20640, Note_on_c, 0, 31, 88
6, 21120, Note_on_c, 0, 31, 0
6, 21120, Note_on_c, 0, 43, 0
6, 21120, Note_on_c, 0, 44, 91
6, 21120, Note_on_c, 0, 32, 91
6, 21600, Note_on_c, 0, 32, 0
6, 21600, Note_on_c, 0, 44, 0
6, 21600, Note_on_c, 0, 33, 94
6, 21600, Note_on_c, 0, 45, 94
6, 22080, Note_on_c, 0, 45, 0
6, 22080, Note_on_c, 0, 33, 0
6, 22080, Note_on_c, 0, 45, 90
6, 22080, Note_on_c, 0, 33, 90
6, 22560, Note_on_c, 0, 33, 0
6, 22560, Note_on_c, 0, 45, 0
6, 22560, Note_on_c, 0, 31, 88
6, 22560, Note_on_c, 0, 43, 88
6, 23040, Note_on_c, 0, 43, 0
6, 23040, Note_on_c, 0, 31, 0
6, 23040, Note_on_c, 0, 41, 86
6, 23040, Note_on_c, 0, 29, 86
6, 23520, Note_on_c, 0, 29, 0
6, 23520, Note_on_c, 0, 41, 0
6, 23520, Note_on_c, 0, 33, 88
6, 23520, Note_on_c, 0, 45, 88
6, 23712, Note_on_c, 0, 45, 0
6, 23712, Note_on_c, 0, 33, 0
6, 23760, Note_on_c, 0, 45, 89
6, 23760, Note_on_c, 0, 33, 89
6, 23952, Note_on_c, 0, 33, 0
6, 23952, Note_on_c, 0, 45, 0
6, 24000, Note_on_c, 0, 38, 94
6, 24000, Note_on_c, 0, 26, 94
6, 24960, Note_on_c, 0, 26, 0
6, 24960, Note_on_c, 0, 38, 0
6, 24960, Note_on_c, 0, 38, 82
6, 24960, Note_on_c, 0, 26, 82
6, 25440, Note_on_c, 0, 26, 0
6, 25440, Note_on_c, 0, 38, 0
6, 25440, Note_on_c, 0, 40, 84
6, 25440, Note_on_c, 0, 28, 84
6, 25920, Note_on_c, 0, 28, 0
6, 25920, Note_on_c, 0, 40, 0
6, 25920, Note_on_c, 0, 41, 86
6, 25920, Note_on_c, 0, 29, 86
6, 26400, Note_on_c, 0, 29, 0
6, 26400, Note_on_c, 0, 41, 0
6, 26400, Note_on_c, 0, 31, 89
6, 26400, Note_on_c, 0, 43, 89
6, 26880, Note_on_c, 0, 43, 0
6, 26880, Note_on_c, 0, 31, 0
6, 26880, Note_on_c, 0, 33, 91
6, 26880, Note_on_c, 0, 45, 91
6, 27072, Note_on_c, 0, 45, 0
6, 27072, Note_on_c, 0, 33, 0
6, 27120, Note_on_c, 0, 45, 92
6, 27120, Note_on_c, 0, 33, 92
6, 27312, Note_on_c, 0, 33, 0
6, 27312, Note_on_c, 0, 45, 0
6, 27360, Note_on_c, 0, 26, 94
6, 27360, Note_on_c, 0, 38, 94
6, 28320, Note_on_c, 0, 38, 0
6, 28320, Note_on_c, 0, 26, 0
6, 28320, Note_on_c, 0, 41, 87
6, 28320, Note_on_c, 0, 29, 87
6, 28800, Note_on_c, 0, 29, 0
6, 28800, Note_on_c, 0, 41, 0
6, 28800, Note_on_c, 0, 40, 84
6, 28800, Note_on_c, 0, 28, 84
6, 28928, Note_on_c, 0, 28, 0
6, 28928, Note_on_c, 0, 40, 0
6, 28960, Note_on_c, 0, 29, 84
6, 28960, Note_on_c, 0, 41, 84
6, 29088, Note_on_c, 0, 41, 0
6, 29088, Note_on_c, 0, 29, 0
6, 29120, Note_on_c, 0, 31, 83
6, 29120, Note_on_c, 0, 43, 83
6, 29248, Note_on_c, 0, 43, 0
6, 29248, Note_on_c, 0, 31, 0
6, 29280, Note_on_c, 0, 29, 86
6, 29280, Note_on_c, 0, 41, 86
6, 29760, Note_on_c, 0, 41, 0
6, 29760, Note_on_c, 0, 29, 0
6, 29760, Note_on_c, 0, 26, 79
6, 29760, Note_on_c, 0, 38, 79
6, 30120, Note_on_c, 0, 38, 0
6, 30120, Note_on_c, 0, 26, 0
6, 31680, Note_on_c, 0, 34, 66
6, 31872, Note_on_c, 0, 34, 0
6, 31920, Note_on_c, 0, 46, 65
6, 32112, Note_on_c, 0, 46, 0
6, 32160, Note_on_c, 0, 34, 63
6, 32352, Note_on_c, 0, 34, 0
6, 32400, Note_on_c, 0, 46, 62
6, 32592, Note_on_c, 0, 46, 0
6, 32640, Note_on_c, 0, 34, 60
6, 32832, Note_on_c, 0, 34, 0
6, 32880, Note_on_c, 0, 46, 59
6, 33072, Note_on_c, 0, 46, 0
6, 33120, Note_on_c, 0, 33, 58
6, 33312, Note_on_c, 0, 33, 0
6, 33360, Note_on_c, 0, 45, 56
6, 33552, Note_on_c, 0, 45, 0
6, 35040, Note_on_c, 0, 33, 65
6, 35232, Note_on_c, 0, 33, 0
6, 35280, Note_on_c, 0, 45, 64
6, 35472, Note_on_c, 0, 45, 0
6, 35520, Note_on_c, 0, 33, 62
6, 35712, Note_on_c, 0, 33, 0
6, 35760, Note_on_c, 0, 45, 61
6, 35952, Note_on_c, 0, 45, 0
6, 36000, Note_on_c, 0, 31, 59
6, 36192, Note_on_c, 0, 31, 0
6, 36240, Note_on_c, 0, 43, 57
6, 36432, Note_on_c, 0, 43, 0
6, 36480, Note_on_c, 0, 29, 56
6, 36672, Note_on_c, 0, 29, 0
6, 36720, Note_on_c, 0, 41, 54
6, 36912, Note_on_c, 0, 41, 0
6, 38400, Note_on_c, 0, 26, 59
6, 38592, Note_on_c, 0, 26, 0
6, 38640, Note_on_c, 0, 38, 57
6, 38832, Note_on_c, 0, 38, 0
6, 38880, Note_on_c, 0, 28, 56
6, 39072, Note_on_c, 0, 28, 0
6, 39120, Note_on_c, 0, 40, 55
6, 39312, Note_on_c, 0, 40, 0
6, 39360, Note_on_c, 0, 29, 54
6, 39360, Note_on_c, 0, 41, 54
6, 39552, Note_on_c, 0, 41, 0
6, 39552, Note_on_c, 0, 29, 0
6, 39600, Note_on_c, 0, 43, 53
6, 39600, Note_on_c, 0, 31, 53
6, 39792, Note_on_c, 0, 31, 0
6, 39792, Note_on_c, 0, 43, 0
6, 39840, Note_on_c, 0, 33, 51
6, 40032, Note_on_c, 0, 33, 0
6, 40080, Note_on_c, 0, 45, 50
6, 40272, Note_on_c, 0, 45, 0
6, 41760, Note_on_c, 0, 29, 54
6, 41952, Note_on_c, 0, 29, 0
6, 42000, Note_on_c, 0, 41, 53
6, 42192, Note_on_c, 0, 41, 0
6, 42240, Note_on_c, 0, 40, 52
6, 42432, Note_on_c, 0, 40, 0
6, 42480, Note_on_c, 0, 29, 51
6, 42480, Note_on_c, 0, 41, 51
6, 42672, Note_on_c, 0, 41, 0
6, 42672, Note_on_c, 0, 29, 0
6, 42720, Note_on_c, 0, 28, 50
6, 42912, Note_on_c, 0, 28, 0
6, 42960, Note_on_c, 0, 40, 49
6, 43152, Note_on_c, 0, 40, 0
6, 43200, Note_on_c, 0, 26, 48
6, 43200, Note_on_c, 0, 38, 48
6, 43560, Note_on_c, 0, 38, 0
6, 43560, Note_on_c, 0, 26, 0
6, 43680, Note_on_c, 0, 38, 46
6, 43758, Note_on_c, 0, 38, 0
6, 43800, Note_on_c, 0, 40, 47
6, 43878, Note_on_c, 0, 40, 0
6, 43920, Note_on_c, 0, 41, 47
6, 43998, Note_on_c, 0, 41, 0
6, 44040, Note_on_c, 0, 43, 48
6, 44118, Note_on_c, 0, 43, 0
6, 44160, Note_on_c, 0, 45, 49
6, 44280, Note_on_c, 0, 45, 0
6, 44280, Note_on_c, 0, 57, 50
6, 44358, Note_on_c, 0, 57, 0
6, 44400, Note_on_c, 0, 57, 51
6, 44478, Note_on_c, 0, 57, 0
6, 44520, Note_on_c, 0, 57, 51
6, 44598, Note_on_c, 0, 57, 0
6, 44640, Note_on_c, 0, 45, 52
6, 44760, Note_on_c, 0, 45, 0
6, 44760, Note_on_c, 0, 57, 53
6, 44838, Note_on_c, 0, 57, 0
6, 44880, Note_on_c, 0, 57, 54
6, 44958, Note_on_c, 0, 57, 0
6, 45000, Note_on_c, 0, 57, 55
6, 45078, Note_on_c, 0, 57, 0
6, 45120, Note_on_c, 0, 46, 57
6, 45240, Note_on_c, 0, 46, 0
6, 45240, Note_on_c, 0, 58, 56
6, 45318, Note_on_c, 0, 58, 0
6, 45360, Note_on_c, 0, 58, 55
6, 45438, Note_on_c, 0, 58, 0
6, 45480, Note_on_c, 0, 58, 54
6, 45558, Note_on_c, 0, 58, 0
6, 45600, Note_on_c, 0, 46, 53
6, 45720, Note_on_c, 0, 46, 0
6, 45720, Note_on_c, 0, 58, 52
6, 45798, Note_on_c, 0, 58, 0
6, 45840, Note_on_c, 0, 58, 51
6, 45918, Note_on_c, 0, 58, 0
6, 45960, Note_on_c, 0, 58, 50
6, 46038, Note_on_c, 0, 58, 0
6, 46080, Note_on_c, 0, 41, 49
6, 46200, Note_on_c, 0, 41, 0
6, 46200, Note_on_c, 0, 53, 48
6, 46278, Note_on_c, 0, 53, 0
6, 46320, Note_on_c, 0, 53, 47
6, 46398, Note_on_c, 0, 53, 0
6, 46440, Note_on_c, 0, 53, 46
6, 46518, Note_on_c, 0, 53, 0
6, 46560, Note_on_c, 0, 41, 45
6, 46680, Note_on_c, 0, 41, 0
6, 46680, Note_on_c, 0, 53, 44
6, 46758, Note_on_c, 0, 53, 0
6, 46800, Note_on_c, 0, 53, 43
6, 46878, Note_on_c, 0, 53, 0
6, 46920, Note_on_c, 0, 53, 42
6, 46998, Note_on_c, 0, 53, 0
6, 47040, Note_on_c, 0, 36, 42
6, 47118, Note_on_c, 0, 36, 0
6, 47160, Note_on_c, 0, 38, 43
6, 47238, Note_on_c, 0, 38, 0
6, 47280, Note_on_c, 0, 40, 44
6, 47358, Note_on_c, 0, 40, 0
6, 47400, Note_on_c, 0, 41, 45
6, 47478, Note_on_c, 0, 41, 0
6, 47520, Note_on_c, 0, 43, 45
6, 47640, Note_on_c, 0, 43, 0
6, 47640, Note_on_c, 0, 55, 46
6, 47718, Note_on_c, 0, 55, 0
6, 47760, Note_on_c, 0, 55, 47
6, 47838, Note_on_c, 0, 55, 0
6, 47880, Note_on_c, 0, 55, 48
6, 47958, Note_on_c, 0, 55, 0
6, 48000, Note_on_c, 0, 44, 48
6, 48120, Note_on_c, 0, 44, 0
6, 48120, Note_on_c, 0, 56, 49
6, 48198, Note_on_c, 0, 56, 0
6, 48240, Note_on_c, 0, 56, 50
6, 48318, Note_on_c, 0, 56, 0
6, 48360, Note_on_c, 0, 56, 50
6, 48438, Note_on_c, 0, 56, 0
6, 48480, Note_on_c, 0, 45, 53
6, 48600, Note_on_c, 0, 45, 0
6, 48600, Note_on_c, 0, 57, 52
6, 48678, Note_on_c, 0, 57, 0
6, 48720, Note_on_c, 0, 57, 51
6, 48798, Note_on_c, 0, 57, 0
6, 48840, Note_on_c, 0, 57, 51
6, 48918, Note_on_c, 0, 57, 0
6, 48960, Note_on_c, 0, 50, 50
6, 49080, Note_on_c, 0, 50, 0
6, 49080, Note_on_c, 0, 62, 49
6, 49158, Note_on_c, 0, 62, 0
6, 49200, Note_on_c, 0, 62, 48
6, 49278, Note_on_c, 0, 62, 0
6, 49320, Note_on_c, 0, 62, 47
6, 49398, Note_on_c, 0, 62, 0
6, 49440, Note_on_c, 0, 43, 47
6, 49560, Note_on_c, 0, 43, 0
6, 49560, Note_on_c, 0, 55, 46
6, 49638, Note_on_c, 0, 55, 0
6, 49680, Note_on_c, 0, 55, 45
6, 49758, Note_on_c, 0, 55, 0
6, 49800, Note_on_c, 0, 55, 44
6, 49878, Note_on_c, 0, 55, 0
6, 49920, Note_on_c, 0, 43, 43
6, 50040, Note_on_c, 0, 43, 0
6, 50040, Note_on_c, 0, 55, 42
6, 50118, Note_on_c, 0, 55, 0
6, 50160, Note_on_c, 0, 55, 42
6, 50238, Note_on_c, 0, 55, 0
6, 50280, Note_on_c, 0, 55, 41
6, 50358, Note_on_c, 0, 55, 0
6, 50400, Note_on_c, 0, 55, 40
6, 50478, Note_on_c, 0, 55, 0
6, 50520, Note_on_c, 0, 53, 40
6, 50598, Note_on_c, 0, 53, 0
6, 50640, Note_on_c, 0, 52, 41
6, 50718, Note_on_c, 0, 52, 0
6, 50760, Note_on_c, 0, 50, 42
6, 50838, Note_on_c, 0, 50, 0
6, 50880, Note_on_c, 0, 49, 42
6, 51000, Note_on_c, 0, 49, 0
6, 51000, Note_on_c, 0, 37, 43
6, 51078, Note_on_c, 0, 37, 0
6, 51120, Note_on_c, 0, 37, 43
6, 51198, Note_on_c, 0, 37, 0
6, 51240, Note_on_c, 0, 37, 44
6, 51318, Note_on_c, 0, 37, 0
6, 51360, Note_on_c, 0, 47, 45
6, 51480, Note_on_c, 0, 47, 0
6, 51480, Note_on_c, 0, 35, 45
6, 51558, Note_on_c, 0, 35, 0
6, 51600, Note_on_c, 0, 35, 46
6, 51678, Note_on_c, 0, 35, 0
6, 51720, Note_on_c, 0, 35, 47
6, 51798, Note_on_c, 0, 35, 0
6, 51840, Note_on_c, 0, 45, 47
6, 51918, Note_on_c, 0, 45, 0
6, 51960, Note_on_c, 0, 33, 48
6, 52038, Note_on_c, 0, 33, 0
6, 52080, Note_on_c, 0, 44, 48
6, 52158, Note_on_c, 0, 44, 0
6, 52200, Note_on_c, 0, 32, 49
6, 52278, Note_on_c, 0, 32, 0
6, 52320, Note_on_c, 0, 43, 50
6, 52398, Note_on_c, 0, 43, 0
6, 52440, Note_on_c, 0, 31, 50
6, 52518, Note_on_c, 0, 31, 0
6, 52560, Note_on_c, 0, 31, 51
6, 52638, Note_on_c, 0, 31, 0
6, 52680, Note_on_c, 0, 31, 52
6, 52758, Note_on_c, 0, 31, 0
6, 52800, Note_on_c, 0, 41, 52
6, 52878, Note_on_c, 0, 41, 0
6, 52920, Note_on_c, 0, 29, 53
6, 52998, Note_on_c, 0, 29, 0
6, 53040, Note_on_c, 0, 40, 53
6, 53118, Note_on_c, 0, 40, 0
6, 53160, Note_on_c, 0, 28, 54
6, 53238, Note_on_c, 0, 28, 0
6, 53280, Note_on_c, 0, 38, 55
6, 53400, Note_on_c, 0, 38, 0
6, 53400, Note_on_c, 0, 26, 55
6, 53478, Note_on_c, 0, 26, 0
6, 53520, Note_on_c, 0, 26, 56
6, 53598, Note_on_c, 0, 26, 0
6, 53640, Note_on_c, 0, 26, 57
6, 53718, Note_on_c, 0, 26, 0
6, 53760, Note_on_c, 0, 56, 58
6, 53838, Note_on_c, 0, 56, 0
6, 53880, Note_on_c, 0, 55, 59
6, 53958, Note_on_c, 0, 55, 0
6, 54000, Note_on_c, 0, 53, 61
6, 54078, Note_on_c, 0, 53, 0
6, 54120, Note_on_c, 0, 51, 62
6, 54198, Note_on_c, 0, 51, 0
6, 54240, Note_on_c, 0, 50, 63
6, 54360, Note_on_c, 0, 50, 0
6, 54360, Note_on_c, 0, 46, 65
6, 54438, Note_on_c, 0, 46, 0
6, 54480, Note_on_c, 0, 46, 66
6, 54558, Note_on_c, 0, 46, 0
6, 54600, Note_on_c, 0, 46, 67
6, 54678, Note_on_c, 0, 46, 0
6, 54720, Note_on_c, 0, 46, 68
6, 54840, Note_on_c, 0, 46, 0
6, 54840, Note_on_c, 0, 44, 70
6, 54918, Note_on_c, 0, 44, 0
6, 54960, Note_on_c, 0, 44, 71
6, 55038, Note_on_c, 0, 44, 0
6, 55080, Note_on_c, 0, 44, 72
6, 55158, Note_on_c, 0, 44, 0
6, 55200, Note_on_c, 0, 43, 74
6, 55278, Note_on_c, 0, 43, 0
6, 55320, Note_on_c, 0, 31, 75
6, 55398, Note_on_c, 0, 31, 0
6, 55440, Note_on_c, 0, 43, 76
6, 55518, Note_on_c, 0, 43, 0
6, 55560, Note_on_c, 0, 31, 77
6, 55638, Note_on_c, 0, 31, 0
6, 55680, Note_on_c, 0, 43, 79
6, 55800, Note_on_c, 0, 43, 0
6, 55800, Note_on_c, 0, 31, 81
6, 55878, Note_on_c, 0, 31, 0
6, 55920, Note_on_c, 0, 31, 83
6, 55998, Note_on_c, 0, 31, 0
6, 56040, Note_on_c, 0, 31, 85
6, 56118, Note_on_c, 0, 31, 0
6, 56160, Note_on_c, 0, 41, 88
6, 56238, Note_on_c, 0, 41, 0
6, 56280, Note_on_c, 0, 29, 90
6, 56358, Note_on_c, 0, 29, 0
6, 56400, Note_on_c, 0, 40, 92
6, 56478, Note_on_c, 0, 40, 0
6, 56520, Note_on_c, 0, 28, 94
6, 56598, Note_on_c, 0, 28, 0
6, 56640, Note_on_c, 0, 38, 96
6, 56640, Note_on_c, 0, 26, 96
6, 57000, Note_on_c, 0, 26, 0
6, 57000, Note_on_c, 0, 38, 0
6, 57600, Note_on_c, 0, 33, 81
6, 57600, Note_on_c, 0, 45, 81
6, 57792, Note_on_c, 0, 45, 0
6, 57792, Note_on_c, 0, 33, 0
6, 57840, Note_on_c, 0, 37, 82
6, 57840, Note_on_c, 0, 49, 82
6, 58032, Note_on_c, 0, 49, 0
6, 58032, Note_on_c, 0, 37, 0
6, 58080, Note_on_c, 0, 38, 90
6, 58080, Note_on_c, 0, 50, 90
6, 58440, Note_on_c, 0, 50, 0
6, 58440, Note_on_c, 0, 38, 0
6, 58560, Note_on_c, 0, 34, 93
6, 58560, Note_on_c, 0, 46, 93
6, 58752, Note_on_c, 0, 46, 0
6, 58752, Note_on_c, 0, 34, 0
6, 59040, Note_on_c, 0, 34, 90
6, 59040, Note_on_c, 0, 46, 90
6, 59232, Note_on_c, 0, 46, 0
6, 59232, Note_on_c, 0, 34, 0
6, 59520, Note_on_c, 0, 34, 87
6, 59520, Note_on_c, 0, 46, 87
6, 59712, Note_on_c, 0, 46, 0
6, 59712, Note_on_c, 0, 34, 0
6, 60000, Note_on_c, 0, 33, 83
6, 60000, Note_on_c, 0, 45, 83
6, 60192, Note_on_c, 0, 45, 0
6, 60192, Note_on_c, 0, 33, 0
6, 60960, Note_on_c, 0, 43, 82
6, 60960, Note_on_c, 0, 55, 82
6, 61152, Note_on_c, 0, 55, 0
6, 61152, Note_on_c, 0, 43, 0
6, 61200, Note_on_c, 0, 41, 83
6, 61200, Note_on_c, 0, 53, 83
6, 61392, Note_on_c, 0, 53, 0
6, 61392, Note_on_c, 0, 41, 0
6, 61440, Note_on_c, 0, 40, 86
6, 61440, Note_on_c, 0, 52, 86
6, 61800, Note_on_c, 0, 52, 0
6, 61800, Note_on_c, 0, 40, 0
6, 61920, Note_on_c, 0, 37, 87
6, 61920, Note_on_c, 0, 49, 87
6, 62112, Note_on_c, 0, 49, 0
6, 62112, Note_on_c, 0, 37, 0
6, 62400, Note_on_c, 0, 33, 83
6, 62400, Note_on_c, 0, 45, 83
6, 62592, Note_on_c, 0, 45, 0
6, 62592, Note_on_c, 0, 33, 0
6, 62880, Note_on_c, 0, 50, 80
6, 62880, Note_on_c, 0, 38, 80
6, 63072, Note_on_c, 0, 38, 0
6, 63072, Note_on_c, 0, 50, 0
6, 63360, Note_on_c, 0, 38, 78
6, 63360, Note_on_c, 0, 26, 78
6, 63552, Note_on_c, 0, 26, 0
6, 63552, Note_on_c, 0, 38, 0
6, 64320, Note_on_c, 0, 65, 82
6, 64320, Note_on_c, 0, 53, 82
6, 64512, Note_on_c, 0, 53, 0
6, 64512, Note_on_c, 0, 65, 0
6, 64560, Note_on_c, 0, 65, 80
6, 64560, Note_on_c, 0, 53, 80
6, 64752, Note_on_c, 0, 53, 0
6, 64752, Note_on_c, 0, 65, 0
6, 64800, Note_on_c, 0, 46, 86
6, 64800, Note_on_c, 0, 58, 86
6, 65160, Note_on_c, 0, 58, 0
6, 65160, Note_on_c, 0, 46, 0
6, 65280, Note_on_c, 0, 34, 80
6, 65280, Note_on_c, 0, 46, 80
6, 65472, Note_on_c, 0, 46, 0
6, 65472, Note_on_c, 0, 34, 0
6, 65760, Note_on_c, 0, 34, 82
6, 65760, Note_on_c, 0, 46, 82
6, 65952, Note_on_c, 0, 46, 0
6, 65952, Note_on_c, 0, 34, 0
6, 66240, Note_on_c, 0, 33, 85
6, 66240, Note_on_c, 0, 45, 85
6, 66432, Note_on_c, 0, 45, 0
6, 66432, Note_on_c, 0, 33, 0
6, 66720, Note_on_c, 0, 29, 88
6, 66720, Note_on_c, 0, 41, 88
6, 66912, Note_on_c, 0, 41, 0
6, 66912, Note_on_c, 0, 29, 0
6, 67680, Note_on_c, 0, 69, 95
6, 67680, Note_on_c, 0, 57, 95
6, 67872, Note_on_c, 0, 57, 0
6, 67872, Note_on_c, 0, 69, 0
6, 67920, Note_on_c, 0, 69, 93
6, 67920, Note_on_c, 0, 57, 93
6, 68112, Note_on_c, 0, 57, 0
6, 68112, Note_on_c, 0, 69, 0
6, 68160, Note_on_c, 0, 45, 100
6, 68160, Note_on_c, 0, 57, 100
6, 68520, Note_on_c, 0, 57, 0
6, 68520, Note_on_c, 0, 45, 0
6, 68640, Note_on_c, 0, 29, 103
6, 68640, Note_on_c, 0, 41, 103
6, 68832, Note_on_c, 0, 41, 0
6, 68832, Note_on_c, 0, 29, 0
6, 69120, Note_on_c, 0, 33, 100
6, 69120, Note_on_c, 0, 45, 100
6, 69312, Note_on_c, 0, 45, 0
6, 69312, Note_on_c, 0, 33, 0
6, 69600, Note_on_c, 0, 50, 97
6, 69600, Note_on_c, 0, 38, 97
6, 69792, Note_on_c, 0, 38, 0
6, 69792, Note_on_c, 0, 50, 0
6, 70080, Note_on_c, 0, 38, 94
6, 70080, Note_on_c, 0, 26, 94
6, 70440, Note_on_c, 0, 26, 0
6, 70440, Note_on_c, 0, 38, 0
6, 70560, Note_on_c, 0, 38, 62
6, 70800, Note_on_c, 0, 38, 0
6, 72000, Note_on_c, 0, 37, 69
6, 72240, Note_on_c, 0, 37, 0
6, 72960, Note_on_c, 0, 33, 61
6, 73200, Note_on_c, 0, 33, 0
6, 73920, Note_on_c, 0, 40, 57
6, 74160, Note_on_c, 0, 40, 0
6, 75360, Note_on_c, 0, 33, 63
6, 75600, Note_on_c, 0, 33, 0
6, 76320, Note_on_c, 0, 38, 55
6, 76560, Note_on_c, 0, 38, 0
6, 77280, Note_on_c, 0, 45, 63
6, 77520, Note_on_c, 0, 45, 0
6, 78720, Note_on_c, 0, 50, 53
6, 78960, Note_on_c, 0, 50, 0
6, 80640, Note_on_c, 0, 38, 58
6, 80880, Note_on_c, 0, 38, 0
6, 82080, Note_on_c, 0, 45, 48
6, 82320, Note_on_c, 0, 45, 0
6, 84480, Note_on_c, 0, 50, 44
6, 84714, Note_on_c, 0, 50, 0
6, 84840, Note_on_c, 0, 62, 48
6, 84918, Note_on_c, 0, 62, 0
6, 84960, Note_on_c, 0, 62, 54
6, 85596, Note_on_c, 0, 62, 0
6, 85680, Note_on_c, 0, 62, 50
6, 85836, Note_on_c, 0, 62, 0
6, 85920, Note_on_c, 0, 58, 48
6, 86076, Note_on_c, 0, 58, 0
6, 86160, Note_on_c, 0, 57, 47
6, 86316, Note_on_c, 0, 57, 0
6, 86400, Note_on_c, 0, 55, 46
6, 86556, Note_on_c, 0, 55, 0
6, 86640, Note_on_c, 0, 58, 45
6, 86796, Note_on_c, 0, 58, 0
6, 86880, Note_on_c, 0, 62, 44
6, 87036, Note_on_c, 0, 62, 0
6, 87120, Note_on_c, 0, 50, 43
6, 87276, Note_on_c, 0, 50, 0
6, 87840, Note_on_c, 0, 40, 48
6, 88074, Note_on_c, 0, 40, 0
6, 88200, Note_on_c, 0, 50, 51
6, 88278, Note_on_c, 0, 50, 0
6, 88320, Note_on_c, 0, 50, 60
6, 88945, Note_on_c, 0, 50, 0
6, 89040, Note_on_c, 0, 49, 60
6, 89196, Note_on_c, 0, 49, 0
6, 89280, Note_on_c, 0, 47, 62
6, 89436, Note_on_c, 0, 47, 0
6, 89520, Note_on_c, 0, 45, 65
6, 89676, Note_on_c, 0, 45, 0
6, 89760, Note_on_c, 0, 44, 67
6, 89916, Note_on_c, 0, 44, 0
6, 90000, Note_on_c, 0, 45, 70
6, 90156, Note_on_c, 0, 45, 0
6, 90240, Note_on_c, 0, 47, 72
6, 90396, Note_on_c, 0, 47, 0
6, 90480, Note_on_c, 0, 49, 75
6, 90636, Note_on_c, 0, 49, 0
6, 90720, Note_on_c, 0, 38, 76
6, 90954, Note_on_c, 0, 38, 0
6, 91200, Note_on_c, 0, 60, 79
6, 91434, Note_on_c, 0, 60, 0
6, 91560, Note_on_c, 0, 48, 81
6, 91638, Note_on_c, 0, 48, 0
6, 91680, Note_on_c, 0, 48, 88
6, 92310, Note_on_c, 0, 48, 0
6, 92400, Note_on_c, 0, 46, 83
6, 92556, Note_on_c, 0, 46, 0
6, 92640, Note_on_c, 0, 45, 84
6, 92796, Note_on_c, 0, 45, 0
6, 92880, Note_on_c, 0, 43, 85
6, 93036, Note_on_c, 0, 43, 0
6, 93120, Note_on_c, 0, 42, 86
6, 93276, Note_on_c, 0, 42, 0
6, 93360, Note_on_c, 0, 43, 87
6, 93516, Note_on_c, 0, 43, 0
6, 93600, Note_on_c, 0, 45, 88
6, 93756, Note_on_c, 0, 45, 0
6, 93840, Note_on_c, 0, 46, 89
6, 93996, Note_on_c, 0, 46, 0
6, 94080, Note_on_c, 0, 40, 90
6, 94236, Note_on_c, 0, 40, 0
6, 94560, Note_on_c, 0, 44, 92
6, 94560, Note_on_c, 0, 56, 92
6, 94794, Note_on_c, 0, 56, 0
6, 94794, Note_on_c, 0, 44, 0
6, 94920, Note_on_c, 0, 32, 94
6, 94920, Note_on_c, 0, 44, 94
6, 94998, Note_on_c, 0, 44, 0
6, 94998, Note_on_c, 0, 32, 0
6, 95040, Note_on_c, 0, 32, 102
6, 95040, Note_on_c, 0, 44, 102
6, 95676, Note_on_c, 0, 44, 0
6, 95676, Note_on_c, 0, 32, 0
6, 95760, Note_on_c, 0, 33, 97
6, 95760, Note_on_c, 0, 45, 97
6, 95916, Note_on_c, 0, 45, 0
6, 95916, Note_on_c, 0, 33, 0
6, 96000, Note_on_c, 0, 41, 98
6, 96000, Note_on_c, 0, 29, 98
6, 96156, Note_on_c, 0, 29, 0
6, 96156, Note_on_c, 0, 41, 0
6, 96240, Note_on_c, 0, 40, 99
6, 96240, Note_on_c, 0, 28, 99
6, 96396, Note_on_c, 0, 28, 0
6, 96396, Note_on_c, 0, 40, 0
6, 96480, Note_on_c, 0, 38, 101
6, 96480, Note_on_c, 0, 26, 101
6, 96960, Control_c, 0, 64, 127
6, 97440, Note_on_c, 0, 26, 0
6, 97440, Note_on_c, 0, 38, 0
6, 100320, Control_c, 0, 64, 0
6, 100800, Note_on_c, 0, 38, 50
6, 100992, Note_on_c, 0, 38, 0
6, 101040, Note_on_c, 0, 42, 51
6, 101232, Note_on_c, 0, 42, 0
6, 101280, Note_on_c, 0, 45, 56
6, 101568, Note_on_c, 0, 45, 0
6, 101760, Note_on_c, 0, 45, 55
6, 102048, Note_on_c, 0, 45, 0
6, 102240, Note_on_c, 0, 47, 57
6, 102528, Note_on_c, 0, 47, 0
6, 102720, Note_on_c, 0, 47, 53
6, 103008, Note_on_c, 0, 47, 0
6, 103200, Note_on_c, 0, 47, 50
6, 103488, Note_on_c, 0, 47, 0
6, 103680, Note_on_c, 0, 45, 47
6, 103968, Note_on_c, 0, 45, 0
6, 104160, Note_on_c, 0, 40, 46
6, 104352, Note_on_c, 0, 40, 0
6, 104400, Note_on_c, 0, 42, 47
6, 104592, Note_on_c, 0, 42, 0
6, 104640, Note_on_c, 0, 43, 52
6, 104928, Note_on_c, 0, 43, 0
6, 105120, Note_on_c, 0, 44, 51
6, 105408, Note_on_c, 0, 44, 0
6, 105600, Note_on_c, 0, 45, 53
6, 105888, Note_on_c, 0, 45, 0
6, 106080, Note_on_c, 0, 45, 49
6, 106368, Note_on_c, 0, 45, 0
6, 106560, Note_on_c, 0, 43, 47
6, 106848, Note_on_c, 0, 43, 0
6, 107040, Note_on_c, 0, 42, 44
6, 107328, Note_on_c, 0, 42, 0
6, 107520, Note_on_c, 0, 45, 45
6, 107712, Note_on_c, 0, 45, 0
6, 107760, Note_on_c, 0, 45, 48
6, 107952, Note_on_c, 0, 45, 0
6, 108000, Note_on_c, 0, 39, 56
6, 108288, Note_on_c, 0, 39, 0
6, 108960, Note_on_c, 0, 40, 46
6, 109248, Note_on_c, 0, 40, 0
6, 109440, Note_on_c, 0, 42, 43
6, 109728, Note_on_c, 0, 42, 0
6, 109920, Note_on_c, 0, 43, 41
6, 110208, Note_on_c, 0, 43, 0
6, 110400, Note_on_c, 0, 44, 39
6, 110688, Note_on_c, 0, 44, 0
6, 110880, Note_on_c, 0, 45, 40
6, 111072, Note_on_c, 0, 45, 0
6, 111120, Note_on_c, 0, 45, 43
6, 111312, Note_on_c, 0, 45, 0
6, 111360, Note_on_c, 0, 38, 51
6, 111648, Note_on_c, 0, 38, 0
6, 112320, Note_on_c, 0, 43, 40
6, 112608, Note_on_c, 0, 43, 0
6, 112800, Note_on_c, 0, 42, 38
6, 113088, Note_on_c, 0, 42, 0
6, 113280, Note_on_c, 0, 40, 36
6, 113568, Note_on_c, 0, 40, 0
6, 113760, Note_on_c, 0, 38, 34
6, 114048, Note_on_c, 0, 38, 0
6, 114080, Note_on_c, 0, 57, 30
6, 114200, Note_on_c, 0, 57, 0
6, 114200, Note_on_c, 0, 57, 40
6, 114240, Note_on_c, 0, 69, 40
6, 114396, Note_on_c, 0, 69, 0
6, 114400, Note_on_c, 0, 57, 0
6, 114680, Note_on_c, 0, 54, 42
6, 114720, Note_on_c, 0, 66, 42
6, 114875, Note_on_c, 0, 54, 0
6, 114876, Note_on_c, 0, 66, 0
6, 115160, Note_on_c, 0, 52, 45
6, 115200, Note_on_c, 0, 64, 45
6, 115356, Note_on_c, 0, 64, 0
6, 115360, Note_on_c, 0, 52, 0
6, 115640, Note_on_c, 0, 50, 47
6, 115680, Note_on_c, 0, 62, 47
6, 115836, Note_on_c, 0, 62, 0
6, 115840, Note_on_c, 0, 50, 0
6, 116120, Note_on_c, 0, 50, 45
6, 116160, Note_on_c, 0, 62, 45
6, 116316, Note_on_c, 0, 62, 0
6, 116320, Note_on_c, 0, 50, 0
6, 116600, Note_on_c, 0, 49, 43
6, 116640, Note_on_c, 0, 61, 42
6, 116796, Note_on_c, 0, 61, 0
6, 116800, Note_on_c, 0, 49, 0
6, 117080, Note_on_c, 0, 47, 40
6, 117120, Note_on_c, 0, 59, 40
6, 117276, Note_on_c, 0, 59, 0
6, 117280, Note_on_c, 0, 47, 0
6, 117560, Note_on_c, 0, 59, 38
6, 117600, Note_on_c, 0, 71, 38
6, 117756, Note_on_c, 0, 71, 0
6, 117760, Note_on_c, 0, 59, 0
6, 118280, Note_on_c, 0, 55, 43
6, 118320, Note_on_c, 0, 67, 43
6, 118475, Note_on_c, 0, 55, 0
6, 118476, Note_on_c, 0, 67, 0
6, 118520, Note_on_c, 0, 54, 45
6, 118560, Note_on_c, 0, 66, 45
6, 118716, Note_on_c, 0, 66, 0
6, 118720, Note_on_c, 0, 54, 0
6, 119000, Note_on_c, 0, 52, 42
6, 119040, Note_on_c, 0, 64, 42
6, 119196, Note_on_c, 0, 64, 0
6, 119200, Note_on_c, 0, 52, 0
6, 119480, Note_on_c, 0, 54, 40
6, 119520, Note_on_c, 0, 66, 40
6, 119676, Note_on_c, 0, 66, 0
6, 119680, Note_on_c, 0, 54, 0
6, 119960, Note_on_c, 0, 55, 38
6, 120000, Note_on_c, 0, 67, 38
6, 120155, Note_on_c, 0, 55, 0
6, 120156, Note_on_c, 0, 67, 0
6, 120440, Note_on_c, 0, 54, 36
6, 120480, Note_on_c, 0, 66, 36
6, 120636, Note_on_c, 0, 66, 0
6, 120645, Note_on_c, 0, 54, 0
6, 120960, Note_on_c, 0, 59, 51
6, 120960, Note_on_c, 0, 71, 51
6, 121638, Note_on_c, 0, 59, 0
6, 121640, Note_on_c, 0, 54, 43
6, 121646, Note_on_c, 0, 71, 0
6, 121680, Note_on_c, 0, 66, 43
6, 121836, Note_on_c, 0, 66, 0
6, 121837, Note_on_c, 0, 54, 0
6, 121880, Note_on_c, 0, 55, 41
6, 121920, Note_on_c, 0, 67, 41
6, 122076, Note_on_c, 0, 67, 0
6, 122081, Note_on_c, 0, 55, 0
6, 122120, Note_on_c, 0, 57, 40
6, 122160, Note_on_c, 0, 69, 40
6, 122313, Note_on_c, 0, 57, 0
6, 122316, Note_on_c, 0, 69, 0
6, 122360, Note_on_c, 0, 57, 40
6, 122400, Note_on_c, 0, 69, 39
6, 122556, Note_on_c, 0, 69, 0
6, 122560, Note_on_c, 0, 57, 0
6, 122840, Note_on_c, 0, 55, 37
6, 122880, Note_on_c, 0, 67, 37
6, 123036, Note_on_c, 0, 67, 0
6, 123040, Note_on_c, 0, 55, 0
6, 123320, Note_on_c, 0, 54, 35
6, 123360, Note_on_c, 0, 66, 35
6, 123516, Note_on_c, 0, 66, 0
6, 123520, Note_on_c, 0, 54, 0
6, 123800, Note_on_c, 0, 52, 33
6, 123840, Note_on_c, 0, 64, 33
6, 123996, Note_on_c, 0, 64, 0
6, 124000, Note_on_c, 0, 52, 0
6, 124320, Note_on_c, 0, 69, 47
6, 124320, Note_on_c, 0, 57, 47
6, 124998, Note_on_c, 0, 57, 0
6, 125000, Note_on_c, 0, 50, 39
6, 125006, Note_on_c, 0, 69, 0
6, 125040, Note_on_c, 0, 62, 39
6, 125196, Note_on_c, 0, 62, 0
6, 125201, Note_on_c, 0, 50, 0
6, 125240, Note_on_c, 0, 52, 38
6, 125280, Note_on_c, 0, 64, 38
6, 125436, Note_on_c, 0, 64, 0
6, 125441, Note_on_c, 0, 52, 0
6, 125480, Note_on_c, 0, 50, 37
6, 125520, Note_on_c, 0, 62, 37
6, 125676, Note_on_c, 0, 62, 0
6, 125677, Note_on_c, 0, 50, 0
6, 125720, Note_on_c, 0, 55, 36
6, 125760, Note_on_c, 0, 67, 36
6, 125916, Note_on_c, 0, 67, 0
6, 125920, Note_on_c, 0, 55, 0
6, 126200, Note_on_c, 0, 54, 34
6, 126240, Note_on_c, 0, 66, 34
6, 126396, Note_on_c, 0, 66, 0
6, 126400, Note_on_c, 0, 54, 0
6, 126680, Note_on_c, 0, 52, 33
6, 126720, Note_on_c, 0, 64, 32
6, 126876, Note_on_c, 0, 64, 0
6, 126880, Note_on_c, 0, 52, 0
6, 127160, Note_on_c, 0, 50, 31
6, 127200, Note_on_c, 0, 62, 31
6, 127560, Note_on_c, 0, 62, 0
6, 127585, Note_on_c, 0, 50, 0
6, 127680, Note_on_c, 0, 48, 42
6, 129120, Note_on_c, 0, 48, 0
6, 129120, Note_on_c, 0, 47, 51
6, 129840, Note_on_c, 0, 47, 0
6, 129840, Note_on_c, 0, 45, 45
6, 130515, Note_on_c, 0, 45, 0
6, 130560, Note_on_c, 0, 44, 42
6, 132000, Note_on_c, 0, 44, 0
6, 132000, Note_on_c, 0, 43, 50
6, 132720, Note_on_c, 0, 43, 0
6, 132720, Note_on_c, 0, 42, 46
6, 133417, Note_on_c, 0, 42, 0
6, 133440, Note_on_c, 0, 41, 42
6, 134880, Note_on_c, 0, 41, 0
6, 134880, Note_on_c, 0, 40, 45
6, 135600, Note_on_c, 0, 40, 0
6, 135600, Note_on_c, 0, 39, 47
6, 136275, Note_on_c, 0, 39, 0
6, 136320, Note_on_c, 0, 50, 48
6, 139177, Note_on_c, 0, 50, 0
6, 139200, Note_on_c, 0, 38, 49
6, 139440, Note_on_c, 0, 54, 49
6, 139680, Note_on_c, 0, 66, 48
6, 140160, Note_on_c, 0, 54, 0
6, 140160, Note_on_c, 0, 38, 0
6, 140160, Note_on_c, 0, 38, 47
6, 140167, Note_on_c, 0, 66, 0
6, 140400, Note_on_c, 0, 67, 47
6, 140400, Note_on_c, 0, 55, 47
6, 140640, Note_on_c, 0, 55, 0
6, 140640, Note_on_c, 0, 67, 0
6, 140640, Note_on_c, 0, 66, 46
6, 140640, Note_on_c, 0, 54, 46
6, 141120, Note_on_c, 0, 54, 0
6, 141120, Note_on_c, 0, 38, 0
6, 141120, Note_on_c, 0, 38, 45
6, 141127, Note_on_c, 0, 66, 0
6, 141360, Note_on_c, 0, 50, 45
6, 141600, Note_on_c, 0, 64, 44
6, 141600, Note_on_c, 0, 52, 44
6, 142072, Note_on_c, 0, 52, 0
6, 142072, Note_on_c, 0, 50, 0
6, 142080, Note_on_c, 0, 64, 0
6, 142080, Note_on_c, 0, 38, 0
6, 142080, Note_on_c, 0, 38, 43
6, 142320, Note_on_c, 0, 61, 43
6, 142320, Note_on_c, 0, 50, 43
6, 142560, Note_on_c, 0, 61, 0
6, 142560, Note_on_c, 0, 62, 42
6, 143032, Note_on_c, 0, 62, 0
6, 143040, Note_on_c, 0, 50, 0
6, 143040, Note_on_c, 0, 38, 0
6, 143040, Note_on_c, 0, 38, 42
6, 143280, Note_on_c, 0, 45, 43
6, 143520, Note_on_c, 0, 53, 45
6, 144480, Note_on_c, 0, 53, 0
6, 144480, Note_on_c, 0, 52, 45
6, 144960, Note_on_c, 0, 52, 0
6, 144960, Note_on_c, 0, 45, 0
6, 144960, Note_on_c, 0, 38, 0
6, 144960, Note_on_c, 0, 38, 42
6, 145200, Note_on_c, 0, 45, 43
6, 145440, Note_on_c, 0, 54, 45
6, 146400, Note_on_c, 0, 54, 0
6, 146400, Note_on_c, 0, 52, 44
6, 146872, Note_on_c, 0, 45, 0
6, 146880, Note_on_c, 0, 52, 0
6, 146880, Note_on_c, 0, 38, 0
6, 146880, Note_on_c, 0, 38, 40
6, 147120, Note_on_c, 0, 54, 42
6, 147360, Note_on_c, 0, 66, 42
6, 147825, Note_on_c, 0, 66, 0
6, 147825, Note_on_c, 0, 54, 0
6, 147840, Note_on_c, 0, 38, 0
6, 147840, Note_on_c, 0, 38, 42
6, 148080, Note_on_c, 0, 67, 42
6, 148080, Note_on_c, 0, 55, 42
6, 148320, Note_on_c, 0, 55, 0
6, 148320, Note_on_c, 0, 67, 0
6, 148320, Note_on_c, 0, 66, 42
6, 148320, Note_on_c, 0, 54, 42
6, 148792, Note_on_c, 0, 66, 0
6, 148800, Note_on_c, 0, 54, 0
6, 148800, Note_on_c, 0, 38, 0
6, 148800, Note_on_c, 0, 38, 41
6, 149040, Note_on_c, 0, 50, 41
6, 149280, Note_on_c, 0, 64, 41
6, 149280, Note_on_c, 0, 52, 41
6, 149752, Note_on_c, 0, 52, 0
6, 149752, Note_on_c, 0, 64, 0
6, 149752, Note_on_c, 0, 50, 0
6, 149760, Note_on_c, 0, 38, 0
6, 149760, Note_on_c, 0, 38, 41
6, 150000, Note_on_c, 0, 61, 41
6, 150000, Note_on_c, 0, 50, 41
6, 150240, Note_on_c, 0, 50, 0
6, 150240, Note_on_c, 0, 61, 0
6, 150240, Note_on_c, 0, 62, 40
6, 150240, Note_on_c, 0, 50, 40
6, 150705, Note_on_c, 0, 50, 0
6, 150712, Note_on_c, 0, 62, 0
6, 150720, Note_on_c, 0, 38, 0
6, 150720, Note_on_c, 0, 38, 40
6, 150960, Note_on_c, 0, 41, 40
6, 151200, Note_on_c, 0, 53, 40
6, 152145, Note_on_c, 0, 41, 0
6, 152160, Note_on_c, 0, 53, 0
6, 152160, Note_on_c, 0, 40, 45
6, 152160, Note_on_c, 0, 52, 45
6, 152640, Note_on_c, 0, 52, 0
6, 152640, Note_on_c, 0, 40, 0
6, 152640, Note_on_c, 0, 38, 0
6, 152640, Note_on_c, 0, 38, 50
6, 152880, Note_on_c, 0, 42, 52
6, 153120, Note_on_c, 0, 54, 54
6, 154050, Note_on_c, 0, 42, 0
6, 154080, Note_on_c, 0, 54, 0
6, 154080, Note_on_c, 0, 40, 62
6, 154080, Note_on_c, 0, 52, 62
6, 154560, Note_on_c, 0, 52, 0
6, 154560, Note_on_c, 0, 40, 0
6, 154560, Note_on_c, 0, 38, 0
6, 154560, Control_c, 0, 64, 0
6, 154560, Note_on_c, 0, 38, 66
6, 154600, Control_c, 0, 64, 127
6, 154680, Note_on_c, 0, 38, 0
6, 154800, Control_c, 0, 64, 0
6, 154800, Note_on_c, 0, 42, 68
6, 154840, Control_c, 0, 64, 127
6, 154920, Note_on_c, 0, 42, 0
6, 155040, Control_c, 0, 64, 0
6, 155040, Note_on_c, 0, 45, 70
6, 155080, Control_c, 0, 64, 127
6, 155160, Note_on_c, 0, 45, 0
6, 155280, Control_c, 0, 64, 0
6, 155280, Note_on_c, 0, 45, 72
6, 155320, Control_c, 0, 64, 127
6, 155400, Note_on_c, 0, 45, 0
6, 155520, Control_c, 0, 64, 0
6, 155520, Note_on_c, 0, 43, 74
6, 155560, Control_c, 0, 64, 127
6, 155640, Note_on_c, 0, 43, 0
6, 155760, Control_c, 0, 64, 0
6, 155760, Note_on_c, 0, 47, 76
6, 155800, Control_c, 0, 64, 127
6, 155880, Note_on_c, 0, 47, 0
6, 156000, Control_c, 0, 64, 0
6, 156000, Note_on_c, 0, 50, 78
6, 156040, Control_c, 0, 64, 127
6, 156120, Note_on_c, 0, 50, 0
6, 156240, Control_c, 0, 64, 0
6, 156240, Note_on_c, 0, 38, 80
6, 156280, Control_c, 0, 64, 127
6, 156360, Note_on_c, 0, 38, 0
6, 156480, Control_c, 0, 64, 0
6, 156480, Note_on_c, 0, 40, 83
6, 156520, Control_c, 0, 64, 127
6, 156600, Note_on_c, 0, 40, 0
6, 156720, Control_c, 0, 64, 0
6, 156720, Note_on_c, 0, 42, 85
6, 156760, Control_c, 0, 64, 127
6, 156840, Note_on_c, 0, 42, 0
6, 156960, Control_c, 0, 64, 0
6, 156960, Note_on_c, 0, 43, 87
6, 157000, Control_c, 0, 64, 127
6, 157080, Note_on_c, 0, 43, 0
6, 157200, Control_c, 0, 64, 0
6, 157200, Note_on_c, 0, 44, 89
6, 157240, Control_c, 0, 64, 127
6, 157320, Note_on_c, 0, 44, 0
6, 157440, Control_c, 0, 64, 0
6, 157440, Note_on_c, 0, 45, 91
6, 157480, Control_c, 0, 64, 127
6, 157560, Note_on_c, 0, 45, 0
6, 157680, Control_c, 0, 64, 0
6, 157680, Note_on_c, 0, 43, 93
6, 157720, Control_c, 0, 64, 127
6, 157800, Note_on_c, 0, 43, 0
6, 157920, Control_c, 0, 64, 0
6, 157920, Note_on_c, 0, 42, 95
6, 157960, Control_c, 0, 64, 127
6, 158040, Note_on_c, 0, 42, 0
6, 158160, Control_c, 0, 64, 0
6, 158160, Note_on_c, 0, 40, 97
6, 158200, Control_c, 0, 64, 127
6, 158280, Note_on_c, 0, 40, 0
6, 158400, Control_c, 0, 64, 0
6, 158400, Note_on_c, 0, 38, 99
6, 158440, Control_c, 0, 64, 127
6, 158520, Note_on_c, 0, 38, 0
6, 158640, Control_c, 0, 64, 0
6, 158640, Note_on_c, 0, 57, 103
6, 158680, Control_c, 0, 64, 127
6, 158760, Note_on_c, 0, 57, 0
6, 158880, Control_c, 0, 64, 0
6, 158880, Note_on_c, 0, 50, 102
6, 158920, Control_c, 0, 64, 127
6, 159000, Note_on_c, 0, 50, 0
6, 159120, Control_c, 0, 64, 0
6, 159120, Note_on_c, 0, 45, 100
6, 159160, Control_c, 0, 64, 127
6, 159240, Note_on_c, 0, 45, 0
6, 159360, Control_c, 0, 64, 0
6, 159360, Note_on_c, 0, 50, 99
6, 159400, Control_c, 0, 64, 127
6, 159480, Note_on_c, 0, 50, 0
6, 159600, Control_c, 0, 64, 0
6, 159600, Note_on_c, 0, 48, 98
6, 159640, Control_c, 0, 64, 127
6, 159720, Note_on_c, 0, 48, 0
6, 159840, Control_c, 0, 64, 0
6, 159840, Note_on_c, 0, 41, 96
6, 159880, Control_c, 0, 64, 127
6, 159960, Note_on_c, 0, 41, 0
6, 160080, Control_c, 0, 64, 0
6, 160080, Note_on_c, 0, 36, 95
6, 160120, Control_c, 0, 64, 127
6, 160200, Note_on_c, 0, 36, 0
6, 160320, Control_c, 0, 64, 0
6, 160320, Note_on_c, 0, 33, 94
6, 160360, Control_c, 0, 64, 127
6, 160440, Note_on_c, 0, 33, 0
6, 160560, Control_c, 0, 64, 0
6, 160560, Note_on_c, 0, 57, 92
6, 160600, Control_c, 0, 64, 127
6, 160680, Note_on_c, 0, 57, 0
6, 160800, Control_c, 0, 64, 0
6, 160800, Note_on_c, 0, 50, 91
6, 160840, Control_c, 0, 64, 127
6, 160920, Note_on_c, 0, 50, 0
6, 161040, Control_c, 0, 64, 0
6, 161040, Note_on_c, 0, 45, 90
6, 161080, Control_c, 0, 64, 127
6, 161160, Note_on_c, 0, 45, 0
6, 161280, Control_c, 0, 64, 0
6, 161280, Note_on_c, 0, 42, 88
6, 161320, Control_c, 0, 64, 127
6, 161400, Note_on_c, 0, 42, 0
6, 161520, Control_c, 0, 64, 0
6, 161520, Note_on_c, 0, 43, 87
6, 161560, Control_c, 0, 64, 127
6, 161640, Note_on_c, 0, 43, 0
6, 161760, Control_c, 0, 64, 0
6, 161760, Note_on_c, 0, 45, 86
6, 161800, Control_c, 0, 64, 127
6, 161880, Note_on_c, 0, 45, 0
6, 162000, Control_c, 0, 64, 0
6, 162000, Note_on_c, 0, 33, 84
6, 162040, Control_c, 0, 64, 127
6, 162120, Note_on_c, 0, 33, 0
6, 162240, Control_c, 0, 64, 0
6, 162240, Control_c, 0, 64, 0
6, 162240, Note_on_c, 0, 38, 58
6, 162280, Control_c, 0, 64, 127
6, 162320, Note_on_c, 0, 38, 0
6, 162480, Control_c, 0, 64, 0
6, 162480, Note_on_c, 0, 42, 60
6, 162520, Control_c, 0, 64, 127
6, 162560, Note_on_c, 0, 42, 0
6, 162720, Control_c, 0, 64, 0
6, 162720, Note_on_c, 0, 44, 61
6, 162760, Control_c, 0, 64, 127
6, 162800, Note_on_c, 0, 44, 0
6, 162960, Control_c, 0, 64, 0
6, 162960, Note_on_c, 0, 45, 63
6, 163000, Control_c, 0, 64, 127
6, 163040, Note_on_c, 0, 45, 0
6, 163200, Control_c, 0, 64, 0
6, 163200, Note_on_c, 0, 43, 65
6, 163240, Control_c, 0, 64, 127
6, 163280, Note_on_c, 0, 43, 0
6, 163440, Control_c, 0, 64, 0
6, 163440, Note_on_c, 0, 47, 66
6, 163480, Control_c, 0, 64, 127
6, 163520, Note_on_c, 0, 47, 0
6, 163680, Control_c, 0, 64, 0
6, 163680, Note_on_c, 0, 49, 68
6, 163720, Control_c, 0, 64, 127
6, 163760, Note_on_c, 0, 49, 0
6, 163920, Control_c, 0, 64, 0
6, 163920, Note_on_c, 0, 50, 70
6, 163960, Control_c, 0, 64, 127
6, 164000, Note_on_c, 0, 50, 0
6, 164160, Control_c, 0, 64, 0
6, 164160, Note_on_c, 0, 40, 71
6, 164200, Control_c, 0, 64, 127
6, 164240, Note_on_c, 0, 40, 0
6, 164400, Control_c, 0, 64, 0
6, 164400, Note_on_c, 0, 42, 73
6, 164440, Control_c, 0, 64, 127
6, 164480, Note_on_c, 0, 42, 0
6, 164640, Control_c, 0, 64, 0
6, 164640, Note_on_c, 0, 43, 75
6, 164680, Control_c, 0, 64, 127
6, 164720, Note_on_c, 0, 43, 0
6, 164880, Control_c, 0, 64, 0
6, 164880, Note_on_c, 0, 44, 77
6, 164920, Control_c, 0, 64, 127
6, 164960, Note_on_c, 0, 44, 0
6, 165120, Control_c, 0, 64, 0
6, 165120, Note_on_c, 0, 45, 78
6, 165160, Control_c, 0, 64, 127
6, 165200, Note_on_c, 0, 45, 0
6, 165360, Control_c, 0, 64, 0
6, 165360, Note_on_c, 0, 43, 80
6, 165400, Control_c, 0, 64, 127
6, 165440, Note_on_c, 0, 43, 0
6, 165600, Control_c, 0, 64, 0
6, 165600, Note_on_c, 0, 42, 82
6, 165640, Control_c, 0, 64, 127
6, 165680, Note_on_c, 0, 42, 0
6, 165840, Control_c, 0, 64, 0
6, 165840, Note_on_c, 0, 40, 83
6, 165880, Control_c, 0, 64, 127
6, 165920, Note_on_c, 0, 40, 0
6, 166080, Control_c, 0, 64, 0
6, 166080, Note_on_c, 0, 38, 85
6, 166120, Control_c, 0, 64, 127
6, 166160, Note_on_c, 0, 38, 0
6, 166320, Control_c, 0, 64, 0
6, 166320, Note_on_c, 0, 48, 87
6, 166360, Control_c, 0, 64, 127
6, 166440, Note_on_c, 0, 48, 0
6, 166560, Control_c, 0, 64, 0
6, 166560, Note_on_c, 0, 47, 88
6, 166600, Control_c, 0, 64, 127
6, 166680, Note_on_c, 0, 47, 0
6, 166800, Control_c, 0, 64, 0
6, 166800, Note_on_c, 0, 46, 90
6, 166840, Control_c, 0, 64, 127
6, 166920, Note_on_c, 0, 46, 0
6, 167040, Control_c, 0, 64, 0
6, 167040, Note_on_c, 0, 45, 92
6, 167080, Control_c, 0, 64, 127
6, 167160, Note_on_c, 0, 45, 0
6, 167280, Control_c, 0, 64, 0
6, 167280, Note_on_c, 0, 43, 93
6, 167320, Control_c, 0, 64, 127
6, 167400, Note_on_c, 0, 43, 0
6, 167520, Control_c, 0, 64, 0
6, 167520, Note_on_c, 0, 41, 95
6, 167560, Control_c, 0, 64, 127
6, 167640, Note_on_c, 0, 41, 0
6, 167760, Control_c, 0, 64, 0
6, 167760, Note_on_c, 0, 36, 97
6, 167800, Control_c, 0, 64, 127
6, 167880, Note_on_c, 0, 36, 0
6, 168000, Control_c, 0, 64, 0
6, 168000, Note_on_c, 0, 33, 99
6, 168040, Control_c, 0, 64, 127
6, 168120, Note_on_c, 0, 33, 0
6, 168240, Control_c, 0, 64, 0
6, 168240, Note_on_c, 0, 48, 100
6, 168280, Control_c, 0, 64, 127
6, 168320, Note_on_c, 0, 48, 0
6, 168480, Control_c, 0, 64, 0
6, 168480, Note_on_c, 0, 47, 102
6, 168520, Control_c, 0, 64, 127
6, 168560, Note_on_c, 0, 47, 0
6, 168720, Control_c, 0, 64, 0
6, 168720, Note_on_c, 0, 46, 88
6, 168760, Control_c, 0, 64, 127
6, 168800, Note_on_c, 0, 46, 0
6, 168960, Control_c, 0, 64, 0
6, 168960, Note_on_c, 0, 45, 90
6, 169000, Control_c, 0, 64, 127
6, 169040, Note_on_c, 0, 45, 0
6, 169200, Control_c, 0, 64, 0
6, 169200, Note_on_c, 0, 43, 93
6, 169240, Control_c, 0, 64, 127
6, 169280, Note_on_c, 0, 43, 0
6, 169440, Control_c, 0, 64, 0
6, 169440, Note_on_c, 0, 42, 95
6, 169480, Control_c, 0, 64, 127
6, 169520, Note_on_c, 0, 42, 0
6, 169680, Control_c, 0, 64, 0
6, 169680, Note_on_c, 0, 41, 98
6, 169720, Control_c, 0, 64, 127
6, 169760, Note_on_c, 0, 41, 0
6, 169920, Control_c, 0, 64, 0
6, 169920, Control_c, 0, 64, 0
6, 169920, Note_on_c, 0, 40, 101
6, 169960, Control_c, 0, 64, 127
6, 170000, Note_on_c, 0, 40, 0
6, 170160, Control_c, 0, 64, 0
6, 170160, Note_on_c, 0, 39, 103
6, 170200, Control_c, 0, 64, 127
6, 170240, Note_on_c, 0, 39, 0
6, 170400, Control_c, 0, 64, 0
6, 170400, Note_on_c, 0, 38, 106
6, 170440, Control_c, 0, 64, 127
6, 170480, Note_on_c, 0, 38, 0
6, 170640, Control_c, 0, 64, 0
6, 170640, Note_on_c, 0, 37, 108
6, 170680, Control_c, 0, 64, 127
6, 170720, Note_on_c, 0, 37, 0
6, 170820, Note_on_c, 0, 61, 111
6, 170880, Control_c, 0, 64, 0
6, 171835, Note_on_c, 0, 61, 0
6, 172440, Note_on_c, 0, 45, 62
6, 172680, Note_on_c, 0, 45, 0
6, 172800, Note_on_c, 0, 54, 65
6, 172956, Note_on_c, 0, 54, 0
6, 173040, Note_on_c, 0, 54, 64
6, 173196, Note_on_c, 0, 54, 0
6, 173280, Note_on_c, 0, 50, 64
6, 173436, Note_on_c, 0, 50, 0
6, 173520, Note_on_c, 0, 50, 64
6, 173676, Note_on_c, 0, 50, 0
6, 173760, Note_on_c, 0, 38, 65
6, 173916, Note_on_c, 0, 38, 0
6, 174000, Note_on_c, 0, 55, 65
6, 174156, Note_on_c, 0, 55, 0
6, 174240, Note_on_c, 0, 50, 65
6, 174396, Note_on_c, 0, 50, 0
6, 174480, Note_on_c, 0, 62, 66
6, 174636, Note_on_c, 0, 62, 0
6, 174720, Note_on_c, 0, 55, 66
6, 174876, Note_on_c, 0, 55, 0
6, 174960, Note_on_c, 0, 55, 66
6, 175116, Note_on_c, 0, 55, 0
6, 175200, Note_on_c, 0, 52, 67
6, 175356, Note_on_c, 0, 52, 0
6, 175440, Note_on_c, 0, 52, 67
6, 175596, Note_on_c, 0, 52, 0
6, 175680, Note_on_c, 0, 49, 67
6, 175836, Note_on_c, 0, 49, 0
6, 175920, Note_on_c, 0, 45, 67
6, 176076, Note_on_c, 0, 45, 0
6, 176160, Note_on_c, 0, 50, 68
6, 176316, Note_on_c, 0, 50, 0
6, 176400, Note_on_c, 0, 38, 68
6, 176556, Note_on_c, 0, 38, 0
6, 176640, Note_on_c, 0, 69, 68
6, 176796, Note_on_c, 0, 69, 0
6, 176880, Note_on_c, 0, 57, 69
6, 177036, Note_on_c, 0, 57, 0
6, 177120, Note_on_c, 0, 62, 69
6, 177276, Note_on_c, 0, 62, 0
6, 177360, Note_on_c, 0, 50, 69
6, 177516, Note_on_c, 0, 50, 0
6, 177600, Note_on_c, 0, 52, 70
6, 177756, Note_on_c, 0, 52, 0
6, 177840, Note_on_c, 0, 45, 70
6, 177996, Note_on_c, 0, 45, 0
6, 178080, Note_on_c, 0, 42, 70
6, 178236, Note_on_c, 0, 42, 0
6, 178320, Note_on_c, 0, 38, 71
6, 178476, Note_on_c, 0, 38, 0
6, 178560, Note_on_c, 0, 33, 71
6, 178716, Note_on_c, 0, 33, 0
6, 178800, Note_on_c, 0, 45, 71
6, 178956, Note_on_c, 0, 45, 0
6, 179040, Note_on_c, 0, 38, 72
6, 179196, Note_on_c, 0, 38, 0
6, 179280, Note_on_c, 0, 50, 72
6, 179436, Note_on_c, 0, 50, 0
6, 179520, Note_on_c, 0, 43, 72
6, 179676, Note_on_c, 0, 43, 0
6, 179760, Note_on_c, 0, 40, 73
6, 179916, Note_on_c, 0, 40, 0
6, 180000, Note_on_c, 0, 45, 73
6, 180156, Note_on_c, 0, 45, 0
6, 180240, Note_on_c, 0, 33, 73
6, 180396, Note_on_c, 0, 33, 0
6, 180480, Note_on_c, 0, 38, 82
6, 180640, Note_on_c, 0, 38, 0
6, 180640, Note_on_c, 0, 38, 74
6, 180800, Note_on_c, 0, 38, 0
6, 180800, Note_on_c, 0, 38, 74
6, 181116, Note_on_c, 0, 38, 0
6, 181200, Note_on_c, 0, 33, 75
6, 181356, Note_on_c, 0, 33, 0
6, 181440, Note_on_c, 0, 29, 75
6, 181596, Note_on_c, 0, 29, 0
6, 181680, Note_on_c, 0, 26, 75
6, 181836, Note_on_c, 0, 26, 0
6, 182400, Note_on_c, 0, 50, 76
6, 182556, Note_on_c, 0, 50, 0
6, 182640, Note_on_c, 0, 48, 77
6, 182796, Note_on_c, 0, 48, 0
6, 182880, Note_on_c, 0, 46, 77
6, 183036, Note_on_c, 0, 46, 0
6, 183120, Note_on_c, 0, 45, 77
6, 183276, Note_on_c, 0, 45, 0
6, 183360, Note_on_c, 0, 43, 78
6, 183516, Note_on_c, 0, 43, 0
6, 183600, Note_on_c, 0, 40, 78
6, 183756, Note_on_c, 0, 40, 0
6, 183840, Note_on_c, 0, 38, 78
6, 183996, Note_on_c, 0, 38, 0
6, 184320, Note_on_c, 0, 40, 87
6, 184480, Note_on_c, 0, 40, 0
6, 184480, Note_on_c, 0, 40, 79
6, 184640, Note_on_c, 0, 40, 0
6, 184640, Note_on_c, 0, 40, 79
6, 184956, Note_on_c, 0, 40, 0
6, 185040, Note_on_c, 0, 34, 80
6, 185196, Note_on_c, 0, 34, 0
6, 185280, Note_on_c, 0, 31, 80
6, 185436, Note_on_c, 0, 31, 0
6, 185520, Note_on_c, 0, 28, 80
6, 185676, Note_on_c, 0, 28, 0
6, 186240, Note_on_c, 0, 52, 81
6, 186396, Note_on_c, 0, 52, 0
6, 186480, Note_on_c, 0, 50, 82
6, 186636, Note_on_c, 0, 50, 0
6, 186720, Note_on_c, 0, 48, 82
6, 186876, Note_on_c, 0, 48, 0
6, 186960, Note_on_c, 0, 47, 82
6, 187116, Note_on_c, 0, 47, 0
6, 187200, Note_on_c, 0, 45, 83
6, 187356, Note_on_c, 0, 45, 0
6, 187440, Note_on_c, 0, 44, 83
6, 187596, Note_on_c, 0, 44, 0
6, 187680, Note_on_c, 0, 40, 83
6, 187836, Note_on_c, 0, 40, 0
6, 188160, Note_on_c, 0, 57, 84
6, 188160, Note_on_c, 0, 45, 84
6, 188640, Note_on_c, 0, 45, 0
6, 188640, Note_on_c, 0, 57, 0
6, 188640, Note_on_c, 0, 69, 85
6, 188640, Note_on_c, 0, 57, 85
6, 188796, Note_on_c, 0, 57, 0
6, 188796, Note_on_c, 0, 69, 0
6, 188880, Note_on_c, 0, 69, 85
6, 188880, Note_on_c, 0, 57, 85
6, 189036, Note_on_c, 0, 57, 0
6, 189036, Note_on_c, 0, 69, 0
6, 189120, Note_on_c, 0, 62, 85
6, 189120, Note_on_c, 0, 53, 85
6, 189276, Note_on_c, 0, 53, 0
6, 189276, Note_on_c, 0, 62, 0
6, 189360, Note_on_c, 0, 64, 86
6, 189360, Note_on_c, 0, 55, 86
6, 189516, Note_on_c, 0, 55, 0
6, 189516, Note_on_c, 0, 64, 0
6, 189600, Note_on_c, 0, 65, 86
6, 189600, Note_on_c, 0, 62, 86
6, 189756, Note_on_c, 0, 62, 0
6, 189756, Note_on_c, 0, 65, 0
6, 189840, Note_on_c, 0, 65, 86
6, 189840, Note_on_c, 0, 69, 86
6, 189996, Note_on_c, 0, 69, 0
6, 189996, Note_on_c, 0, 65, 0
6, 190080, Note_on_c, 0, 70, 87
6, 190080, Note_on_c, 0, 55, 87
6, 190080, Note_on_c, 0, 58, 87
6, 190080, Note_on_c, 0, 62, 87
6, 190560, Note_on_c, 0, 62, 0
6, 190560, Note_on_c, 0, 70, 0
6, 190560, Note_on_c, 0, 55, 0
6, 190560, Note_on_c, 0, 58, 0
6, 190560, Note_on_c, 0, 62, 87
6, 190716, Note_on_c, 0, 62, 0
6, 190800, Note_on_c, 0, 62, 88
6, 190956, Note_on_c, 0, 62, 0
6, 191040, Note_on_c, 0, 58, 88
6, 191040, Note_on_c, 0, 67, 88
6, 191196, Note_on_c, 0, 67, 0
6, 191196, Note_on_c, 0, 58, 0
6, 191280, Note_on_c, 0, 62, 88
6, 191280, Note_on_c, 0, 69, 88
6, 191436, Note_on_c, 0, 69, 0
6, 191436, Note_on_c, 0, 62, 0
6, 191520, Note_on_c, 0, 70, 88
6, 191520, Note_on_c, 0, 67, 88
6, 191676, Note_on_c, 0, 67, 0
6, 191676, Note_on_c, 0, 70, 0
6, 191760, Note_on_c, 0, 74, 89
6, 191760, Note_on_c, 0, 70, 89
6, 191916, Note_on_c, 0, 70, 0
6, 191916, Note_on_c, 0, 74, 0
6, 192000, Note_on_c, 0, 73, 89
6, 192000, Note_on_c, 0, 57, 89
6, 192000, Note_on_c, 0, 64, 89
6, 192480, Note_on_c, 0, 64, 0
6, 192480, Note_on_c, 0, 57, 0
6, 192480, Note_on_c, 0, 73, 0
6, 192480, Note_on_c, 0, 45, 90
6, 192600, Note_on_c, 0, 45, 0
6, 192600, Note_on_c, 0, 43, 90
6, 192720, Note_on_c, 0, 43, 0
6, 192720, Note_on_c, 0, 41, 90
6, 192840, Note_on_c, 0, 41, 0
6, 192840, Note_on_c, 0, 40, 90
6, 192960, Note_on_c, 0, 40, 0
6, 192960, Note_on_c, 0, 38, 90
6, 193080, Note_on_c, 0, 38, 0
6, 193200, Note_on_c, 0, 38, 91
6, 193320, Note_on_c, 0, 38, 0
6, 193440, Note_on_c, 0, 38, 91
6, 193560, Note_on_c, 0, 38, 0
6, 193680, Note_on_c, 0, 36, 91
6, 193800, Note_on_c, 0, 36, 0
6, 193920, Note_on_c, 0, 34, 92
6, 194040, Note_on_c, 0, 34, 0
6, 194160, Note_on_c, 0, 34, 92
6, 194280, Note_on_c, 0, 34, 0
6, 194400, Note_on_c, 0, 34, 92
6, 194520, Note_on_c, 0, 34, 0
6, 194640, Note_on_c, 0, 33, 93
6, 194760, Note_on_c, 0, 33, 0
6, 194880, Note_on_c, 0, 31, 93
6, 195000, Note_on_c, 0, 31, 0
6, 195120, Note_on_c, 0, 31, 93
6, 195240, Note_on_c, 0, 31, 0
6, 195360, Note_on_c, 0, 31, 94
6, 195480, Note_on_c, 0, 31, 0
6, 195600, Note_on_c, 0, 29, 94
6, 195720, Note_on_c, 0, 29, 0
6, 195840, Note_on_c, 0, 28, 94
6, 195960, Note_on_c, 0, 40, 94
6, 196080, Note_on_c, 0, 40, 0
6, 196080, Note_on_c, 0, 28, 0
6, 196080, Note_on_c, 0, 42, 95
6, 196200, Note_on_c, 0, 42, 0
6, 196200, Note_on_c, 0, 44, 95
6, 196320, Note_on_c, 0, 44, 0
6, 196320, Note_on_c, 0, 33, 95
6, 196320, Note_on_c, 0, 45, 95
6, 196440, Note_on_c, 0, 45, 0
6, 196440, Note_on_c, 0, 47, 95
6, 196560, Note_on_c, 0, 47, 0
6, 196560, Note_on_c, 0, 33, 0
6, 196560, Note_on_c, 0, 49, 95
6, 196680, Note_on_c, 0, 49, 0
6, 196680, Note_on_c, 0, 52, 95
6, 196800, Note_on_c, 0, 52, 0
6, 196800, Note_on_c, 0, 57, 96
6, 196800, Note_on_c, 0, 45, 96
6, 196956, Note_on_c, 0, 45, 0
6, 196956, Note_on_c, 0, 57, 0
6, 197280, Note_on_c, 0, 69, 96
6, 197280, Note_on_c, 0, 57, 96
6, 197436, Note_on_c, 0, 57, 0
6, 197436, Note_on_c, 0, 69, 0
6, 197520, Note_on_c, 0, 69, 97
6, 197520, Note_on_c, 0, 57, 97
6, 197676, Note_on_c, 0, 57, 0
6, 197676, Note_on_c, 0, 69, 0
6, 197760, Note_on_c, 0, 45, 97
6, 197760, Note_on_c, 0, 57, 97
6, 197880, Note_on_c, 0, 33, 97
6, 197916, Note_on_c, 0, 57, 0
6, 197916, Note_on_c, 0, 45, 0
6, 198000, Note_on_c, 0, 33, 0
6, 198000, Note_on_c, 0, 35, 97
6, 198120, Note_on_c, 0, 35, 0
6, 198120, Note_on_c, 0, 37, 97
6, 198240, Note_on_c, 0, 37, 0
6, 198240, Note_on_c, 0, 38, 98
6, 198360, Note_on_c, 0, 38, 0
6, 198360, Note_on_c, 0, 40, 98
6, 198480, Note_on_c, 0, 40, 0
6, 198480, Note_on_c, 0, 42, 98
6, 198600, Note_on_c, 0, 42, 0
6, 198600, Note_on_c, 0, 44, 98
6, 198720, Note_on_c, 0, 44, 0
6, 198720, Note_on_c, 0, 45, 98
6, 198876, Note_on_c, 0, 45, 0
6, 199200, Note_on_c, 0, 57, 99
6, 199200, Note_on_c, 0, 45, 99
6, 199356, Note_on_c, 0, 45, 0
6, 199356, Note_on_c, 0, 57, 0
6, 199440, Note_on_c, 0, 57, 99
6, 199440, Note_on_c, 0, 45, 99
6, 199596, Note_on_c, 0, 45, 0
6, 199596, Note_on_c, 0, 57, 0
6, 199680, Note_on_c, 0, 33, 99
6, 199680, Note_on_c, 0, 45, 99
6, 199836, Note_on_c, 0, 45, 0
6, 199836, Note_on_c, 0, 33, 0
6, 200160, Note_on_c, 0, 69, 100
6, 200160, Note_on_c, 0, 57, 100
6, 200316, Note_on_c, 0, 57, 0
6, 200316, Note_on_c, 0, 69, 0
6, 200400, Note_on_c, 0, 69, 100
6, 200400, Note_on_c, 0, 57, 100
6, 200556, Note_on_c, 0, 57, 0
6, 200556, Note_on_c, 0, 69, 0
6, 200640, Note_on_c, 0, 57, 101
6, 200640, Note_on_c, 0, 45, 101
6, 200796, Note_on_c, 0, 45, 0
6, 200796, Note_on_c, 0, 57, 0
6, 201120, Note_on_c, 0, 38, 101
6, 201120, Note_on_c, 0, 50, 101
6, 201276, Note_on_c, 0, 50, 0
6, 201276, Note_on_c, 0, 38, 0
6, 201360, Note_on_c, 0, 38, 102
6, 201360, Note_on_c, 0, 50, 102
6, 201516, Note_on_c, 0, 50, 0
6, 201516, Note_on_c, 0, 38, 0
6, 201600, Note_on_c, 0, 38, 102
6, 201600, Note_on_c, 0, 26, 102
6, 201756, Note_on_c, 0, 26, 0
6, 201756, Note_on_c, 0, 38, 0
6, 201840, Note_on_c, 0, 54, 102
6, 201996, Note_on_c, 0, 54, 0
6, 202080, Note_on_c, 0, 50, 103
6, 202236, Note_on_c, 0, 50, 0
6, 202320, Note_on_c, 0, 50, 103
6, 202476, Note_on_c, 0, 50, 0
6, 202560, Note_on_c, 0, 38, 103
6, 202716, Note_on_c, 0, 38, 0
6, 202800, Note_on_c, 0, 55, 104
6, 202956, Note_on_c, 0, 55, 0
6, 203040, Note_on_c, 0, 50, 104
6, 203196, Note_on_c, 0, 50, 0
6, 203280, Note_on_c, 0, 62, 104
6, 203436, Note_on_c, 0, 62, 0
6, 203520, Note_on_c, 0, 55, 105
6, 203676, Note_on_c, 0, 55, 0
6, 203760, Note_on_c, 0, 55, 105
6, 203916, Note_on_c, 0, 55, 0
6, 204000, Note_on_c, 0, 52, 105
6, 204156, Note_on_c, 0, 52, 0
6, 204240, Note_on_c, 0, 52, 106
6, 204396, Note_on_c, 0, 52, 0
6, 204480, Note_on_c, 0, 49, 106
6, 204636, Note_on_c, 0, 49, 0
6, 204720, Note_on_c, 0, 45, 106
6, 204876, Note_on_c, 0, 45, 0
6, 204960, Note_on_c, 0, 50, 107
6, 205116, Note_on_c, 0, 50, 0
6, 205200, Note_on_c, 0, 38, 107
6, 205356, Note_on_c, 0, 38, 0
6, 205440, Note_on_c, 0, 69, 107
6, 205596, Note_on_c, 0, 69, 0
6, 205680, Note_on_c, 0, 57, 108
6, 205836, Note_on_c, 0, 57, 0
6, 205920, Note_on_c, 0, 62, 108
6, 206076, Note_on_c, 0, 62, 0
6, 206160, Note_on_c, 0, 50, 108
6, 206316, Note_on_c, 0, 50, 0
6, 206400, Note_on_c, 0, 52, 109
6, 206556, Note_on_c, 0, 52, 0
6, 206640, Note_on_c, 0, 45, 109
6, 206796, Note_on_c, 0, 45, 0
6, 206880, Note_on_c, 0, 42, 109
6, 207036, Note_on_c, 0, 42, 0
6, 207120, Note_on_c, 0, 38, 110
6, 207276, Note_on_c, 0, 38, 0
6, 207360, Note_on_c, 0, 33, 110
6, 207516, Note_on_c, 0, 33, 0
6, 207600, Note_on_c, 0, 45, 110
6, 207756, Note_on_c, 0, 45, 0
6, 207840, Note_on_c, 0, 38, 110
6, 207996, Note_on_c, 0, 38, 0
6, 208080, Note_on_c, 0, 50, 111
6, 208236, Note_on_c, 0, 50, 0
6, 208320, Note_on_c, 0, 43, 111
6, 208476, Note_on_c, 0, 43, 0
6, 208560, Note_on_c, 0, 40, 111
6, 208716, Note_on_c, 0, 40, 0
6, 208800, Note_on_c, 0, 45, 112
6, 208956, Note_on_c, 0, 45, 0
6, 209040, Note_on_c, 0, 33, 112
6, 209196, Note_on_c, 0, 33, 0
6, 209280, Control_c, 0, 64, 127
6, 209280, Note_on_c, 0, 50, 114
6, 209280, Note_on_c, 0, 38, 114
6, 209400, Note_on_c, 0, 50, 0
6, 209408, Note_on_c, 0, 38, 0
6, 209440, Note_on_c, 0, 62, 114
6, 209568, Note_on_c, 0, 62, 0
6, 209600, Note_on_c, 0, 62, 115
6, 209728, Note_on_c, 0, 62, 0
6, 209760, Note_on_c, 0, 62, 115
6, 209888, Note_on_c, 0, 62, 0
6, 209920, Note_on_c, 0, 62, 115
6, 210048, Note_on_c, 0, 62, 0
6, 210080, Note_on_c, 0, 62, 116
6, 210208, Note_on_c, 0, 62, 0
6, 210240, Note_on_c, 0, 62, 116
6, 210368, Note_on_c, 0, 62, 0
6, 210400, Note_on_c, 0, 62, 117
6, 210528, Note_on_c, 0, 62, 0
6, 210560, Note_on_c, 0, 62, 117
6, 210720, Note_on_c, 0, 34, 119
6, 210720, Note_on_c, 0, 46, 119
6, 210848, Note_on_c, 0, 46, 0
6, 210848, Note_on_c, 0, 34, 0
6, 210880, Note_on_c, 0, 34, 114
6, 210880, Note_on_c, 0, 46, 114
6, 211008, Note_on_c, 0, 46, 0
6, 211008, Note_on_c, 0, 34, 0
6, 211040, Note_on_c, 0, 34, 107
6, 211040, Note_on_c, 0, 46, 107
6, 211168, Note_on_c, 0, 46, 0
6, 211168, Note_on_c, 0, 34, 0
6, 211200, Note_on_c, 0, 46, 100
6, 211200, Note_on_c, 0, 34, 100
6, 211328, Note_on_c, 0, 34, 0
6, 211328, Note_on_c, 0, 46, 0
6, 211360, Note_on_c, 0, 34, 93
6, 211360, Note_on_c, 0, 46, 93
6, 211488, Note_on_c, 0, 46, 0
6, 211488, Note_on_c, 0, 34, 0
6, 211520, Note_on_c, 0, 34, 86
6, 211520, Note_on_c, 0, 46, 86
6, 211648, Note_on_c, 0, 46, 0
6, 211648, Note_on_c, 0, 34, 0
6, 211680, Note_on_c, 0, 34, 79
6, 211680, Note_on_c, 0, 46, 79
6, 211808, Note_on_c, 0, 46, 0
6, 211808, Note_on_c, 0, 34, 0
6, 211840, Note_on_c, 0, 34, 72
6, 211840, Note_on_c, 0, 46, 72
6, 211968, Note_on_c, 0, 46, 0
6, 211968, Note_on_c, 0, 34, 0
6, 212000, Note_on_c, 0, 46, 65
6, 212000, Note_on_c, 0, 34, 65
6, 212640, Note_on_c, 0, 46, 0
6, 212640, Note_on_c, 0, 62, 0
6, 212880, Note_on_c, 0, 34, 0
6, 212880, Note_on_c, 0, 38, 51
6, 213120, Note_on_c, 0, 38, 0
6, 213120, Note_on_c, 0, 41, 51
6, 213360, Note_on_c, 0, 41, 0
6, 213360, Note_on_c, 0, 45, 51
6, 213564, Note_on_c, 0, 45, 0
6, 213600, Note_on_c, 0, 46, 51
6, 213840, Note_on_c, 0, 46, 0
6, 213840, Note_on_c, 0, 50, 50
6, 214080, Note_on_c, 0, 50, 0
6, 214080, Note_on_c, 0, 53, 50
6, 214320, Note_on_c, 0, 53, 0
6, 214320, Note_on_c, 0, 57, 50
6, 214525, Note_on_c, 0, 57, 0
6, 214560, Note_on_c, 0, 58, 50
6, 214800, Note_on_c, 0, 58, 0
6, 214800, Note_on_c, 0, 62, 50
6, 215005, Note_on_c, 0, 62, 0
6, 215040, Control_c, 0, 64, 0
6, 215040, Note_on_c, 0, 63, 50
6, 215280, Note_on_c, 0, 63, 0
6, 215280, Note_on_c, 0, 67, 49
6, 215520, Note_on_c, 0, 67, 0
6, 215520, Note_on_c, 0, 70, 49
6, 215760, Note_on_c, 0, 70, 0
6, 215760, Note_on_c, 0, 58, 49
6, 215960, Note_on_c, 0, 58, 0
6, 216000, Note_on_c, 0, 55, 49
6, 216240, Note_on_c, 0, 55, 0
6, 216240, Note_on_c, 0, 58, 49
6, 216480, Note_on_c, 0, 58, 0
6, 216480, Note_on_c, 0, 62, 49
6, 216720, Note_on_c, 0, 62, 0
6, 216720, Note_on_c, 0, 50, 48
6, 216925, Note_on_c, 0, 50, 0
6, 216960, Control_c, 0, 64, 127
6, 216960, Note_on_c, 0, 51, 72
6, 217088, Note_on_c, 0, 51, 0
6, 217120, Note_on_c, 0, 51, 67
6, 217248, Note_on_c, 0, 51, 0
6, 217280, Note_on_c, 0, 51, 72
6, 217440, Note_on_c, 0, 39, 48
6, 217680, Note_on_c, 0, 39, 0
6, 217680, Note_on_c, 0, 43, 48
6, 217920, Note_on_c, 0, 43, 0
6, 217920, Note_on_c, 0, 46, 48
6, 218160, Note_on_c, 0, 46, 0
6, 218160, Note_on_c, 0, 51, 0
6, 218160, Note_on_c, 0, 50, 47
6, 218400, Note_on_c, 0, 50, 0
6, 218400, Note_on_c, 0, 51, 47
6, 218640, Note_on_c, 0, 51, 0
6, 218640, Note_on_c, 0, 55, 47
6, 218880, Note_on_c, 0, 55, 0
6, 218880, Control_c, 0, 64, 0
6, 218880, Note_on_c, 0, 58, 47
6, 219120, Note_on_c, 0, 58, 0
6, 219120, Note_on_c, 0, 62, 47
6, 219360, Note_on_c, 0, 62, 0
6, 219360, Note_on_c, 0, 63, 47
6, 219600, Note_on_c, 0, 63, 0
6, 219600, Note_on_c, 0, 62, 46
6, 219805, Note_on_c, 0, 62, 0
6, 219840, Note_on_c, 0, 60, 46
6, 220080, Note_on_c, 0, 60, 0
6, 220080, Note_on_c, 0, 64, 46
6, 220320, Note_on_c, 0, 64, 0
6, 220320, Note_on_c, 0, 65, 46
6, 220560, Note_on_c, 0, 65, 0
6, 220560, Note_on_c, 0, 53, 46
6, 220765, Note_on_c, 0, 53, 0
6, 220800, Note_on_c, 0, 57, 46
6, 221040, Note_on_c, 0, 57, 0
6, 221040, Note_on_c, 0, 61, 45
6, 221280, Note_on_c, 0, 61, 0
6, 221280, Note_on_c, 0, 62, 45
6, 221520, Note_on_c, 0, 62, 0
6, 221520, Note_on_c, 0, 50, 45
6, 221720, Note_on_c, 0, 50, 0
6, 221760, Control_c, 0, 64, 127
6, 221760, Note_on_c, 0, 46, 70
6, 221888, Note_on_c, 0, 46, 0
6, 221920, Note_on_c, 0, 46, 65
6, 222048, Note_on_c, 0, 46, 0
6, 222080, Note_on_c, 0, 46, 70
6, 222240, Note_on_c, 0, 34, 45
6, 222480, Note_on_c, 0, 34, 0
6, 222480, Note_on_c, 0, 38, 44
6, 222720, Note_on_c, 0, 38, 0
6, 222720, Note_on_c, 0, 41, 44
6, 222725, Note_on_c, 0, 46, 0
6, 222960, Note_on_c, 0, 41, 0
6, 222960, Note_on_c, 0, 45, 44
6, 223200, Note_on_c, 0, 45, 0
6, 223200, Note_on_c, 0, 46, 44
6, 223440, Note_on_c, 0, 46, 0
6, 223440, Note_on_c, 0, 50, 44
6, 223680, Note_on_c, 0, 50, 0
6, 223680, Note_on_c, 0, 53, 44
6, 223920, Note_on_c, 0, 53, 0
6, 223920, Note_on_c, 0, 58, 43
6, 224160, Note_on_c, 0, 58, 0
6, 224160, Note_on_c, 0, 62, 43
6, 224400, Note_on_c, 0, 62, 0
6, 224400, Note_on_c, 0, 65, 43
6, 224605, Note_on_c, 0, 65, 0
6, 224640, Control_c, 0, 64, 0
6, 224640, Note_on_c, 0, 68, 43
6, 224880, Note_on_c, 0, 58, 43
6, 225115, Note_on_c, 0, 68, 0
6, 225120, Note_on_c, 0, 58, 0
6, 225120, Note_on_c, 0, 67, 43
6, 225360, Note_on_c, 0, 58, 42
6, 225595, Note_on_c, 0, 67, 0
6, 225600, Note_on_c, 0, 58, 0
6, 225600, Note_on_c, 0, 65, 42
6, 225840, Note_on_c, 0, 58, 42
6, 226075, Note_on_c, 0, 65, 0
6, 226080, Note_on_c, 0, 58, 0
6, 226080, Note_on_c, 0, 63, 42
6, 226320, Note_on_c, 0, 58, 42
6, 226515, Note_on_c, 0, 58, 0
6, 226520, Note_on_c, 0, 63, 0
6, 226560, Control_c, 0, 64, 127
6, 226560, Note_on_c, 0, 62, 42
6, 226560, Note_on_c, 0, 58, 67
6, 226688, Note_on_c, 0, 58, 0
6, 226720, Note_on_c, 0, 58, 62
6, 226848, Note_on_c, 0, 58, 0
6, 226880, Note_on_c, 0, 58, 67
6, 227040, Note_on_c, 0, 62, 0
6, 227040, Note_on_c, 0, 34, 41
6, 227280, Note_on_c, 0, 34, 0
6, 227280, Note_on_c, 0, 38, 41
6, 227520, Note_on_c, 0, 38, 0
6, 227520, Note_on_c, 0, 41, 41
6, 227760, Note_on_c, 0, 41, 0
6, 227760, Note_on_c, 0, 45, 41
6, 228000, Note_on_c, 0, 45, 0
6, 228000, Note_on_c, 0, 46, 41
6, 228235, Note_on_c, 0, 58, 0
6, 228240, Note_on_c, 0, 46, 0
6, 228240, Note_on_c, 0, 50, 40
6, 228480, Note_on_c, 0, 50, 0
6, 228480, Note_on_c, 0, 53, 40
6, 228720, Note_on_c, 0, 53, 0
6, 228720, Note_on_c, 0, 58, 40
6, 228960, Note_on_c, 0, 58, 0
6, 228960, Note_on_c, 0, 62, 40
6, 229200, Note_on_c, 0, 62, 0
6, 229200, Note_on_c, 0, 65, 40
6, 229405, Note_on_c, 0, 65, 0
6, 229440, Control_c, 0, 64, 0
6, 229440, Note_on_c, 0, 68, 41
6, 229680, Note_on_c, 0, 58, 43
6, 229920, Note_on_c, 0, 58, 0
6, 229920, Note_on_c, 0, 68, 0
6, 229920, Note_on_c, 0, 67, 46
6, 230160, Note_on_c, 0, 58, 48
6, 230400, Note_on_c, 0, 58, 0
6, 230400, Note_on_c, 0, 67, 0
6, 230400, Note_on_c, 0, 66, 51
6, 230640, Note_on_c, 0, 58, 53
6, 230880, Note_on_c, 0, 58, 0
6, 230880, Note_on_c, 0, 66, 0
6, 230880, Note_on_c, 0, 65, 55
6, 231120, Note_on_c, 0, 58, 58
6, 231310, Note_on_c, 0, 65, 0
6, 231315, Note_on_c, 0, 58, 0
6, 231360, Note_on_c, 0, 65, 76
6, 231360, Note_on_c, 0, 58, 76
6, 231464, Note_on_c, 0, 58, 0
6, 231464, Note_on_c, 0, 65, 0
6, 231520, Note_on_c, 0, 65, 78
6, 231520, Note_on_c, 0, 58, 78
6, 231624, Note_on_c, 0, 58, 0
6, 231624, Note_on_c, 0, 65, 0
6, 231680, Note_on_c, 0, 58, 80
6, 231680, Note_on_c, 0, 61, 80
6, 231784, Note_on_c, 0, 61, 0
6, 231784, Note_on_c, 0, 58, 0
6, 231840, Note_on_c, 0, 53, 82
6, 231840, Note_on_c, 0, 60, 82
6, 232200, Note_on_c, 0, 60, 0
6, 232200, Note_on_c, 0, 53, 0
6, 232320, Note_on_c, 0, 46, 76
6, 232320, Note_on_c, 0, 34, 76
6, 232424, Note_on_c, 0, 34, 0
6, 232424, Note_on_c, 0, 46, 0
6, 232480, Note_on_c, 0, 34, 77
6, 232480, Note_on_c, 0, 46, 77
6, 232584, Note_on_c, 0, 46, 0
6, 232584, Note_on_c, 0, 34, 0
6, 232640, Note_on_c, 0, 49, 78
6, 232640, Note_on_c, 0, 37, 78
6, 232744, Note_on_c, 0, 37, 0
6, 232744, Note_on_c, 0, 49, 0
6, 232800, Note_on_c, 0, 41, 82
6, 232800, Note_on_c, 0, 53, 82
6, 233160, Note_on_c, 0, 53, 0
6, 233160, Note_on_c, 0, 41, 0
6, 233280, Note_on_c, 0, 42, 75
6, 233280, Note_on_c, 0, 54, 75
6, 233436, Note_on_c, 0, 54, 0
6, 233436, Note_on_c, 0, 42, 0
6, 233520, Note_on_c, 0, 42, 77
6, 233520, Note_on_c, 0, 54, 77
6, 233676, Note_on_c, 0, 54, 0
6, 233676, Note_on_c, 0, 42, 0
6, 233760, Note_on_c, 0, 41, 80
6, 233760, Note_on_c, 0, 53, 80
6, 234120, Note_on_c, 0, 53, 0
6, 234120, Note_on_c, 0, 41, 0
6, 234240, Note_on_c, 0, 48, 74
6, 234240, Note_on_c, 0, 36, 74
6, 234344, Note_on_c, 0, 36, 0
6, 234344, Note_on_c, 0, 48, 0
6, 234400, Note_on_c, 0, 49, 75
6, 234400, Note_on_c, 0, 37, 75
6, 234504, Note_on_c, 0, 37, 0
6, 234504, Note_on_c, 0, 49, 0
6, 234560, Note_on_c, 0, 39, 78
6, 234560, Note_on_c, 0, 51, 78
6, 234664, Note_on_c, 0, 51, 0
6, 234664, Note_on_c, 0, 39, 0
6, 234720, Note_on_c, 0, 41, 80
6, 234720, Note_on_c, 0, 53, 80
6, 235080, Note_on_c, 0, 53, 0
6, 235080, Note_on_c, 0, 41, 0
6, 235200, Note_on_c, 0, 39, 73
6, 235200, Note_on_c, 0, 51, 73
6, 235356, Note_on_c, 0, 51, 0
6, 235356, Note_on_c, 0, 39, 0
6, 235440, Note_on_c, 0, 39, 73
6, 235440, Note_on_c, 0, 51, 73
6, 235596, Note_on_c, 0, 51, 0
6, 235596, Note_on_c, 0, 39, 0
6, 235680, Note_on_c, 0, 37, 73
6, 235680, Note_on_c, 0, 49, 73
6, 236040, Note_on_c, 0, 49, 0
6, 236040, Note_on_c, 0, 37, 0
6, 236160, Note_on_c, 0, 42, 72
6, 236160, Note_on_c, 0, 54, 72
6, 236264, Note_on_c, 0, 54, 0
6, 236264, Note_on_c, 0, 42, 0
6, 236320, Note_on_c, 0, 54, 72
6, 236320, Note_on_c, 0, 42, 72
6, 236424, Note_on_c, 0, 42, 0
6, 236424, Note_on_c, 0, 54, 0
6, 236480, Note_on_c, 0, 42, 72
6, 236480, Note_on_c, 0, 54, 72
6, 236584, Note_on_c, 0, 54, 0
6, 236584, Note_on_c, 0, 42, 0
6, 236640, Note_on_c, 0, 30, 72
6, 236640, Note_on_c, 0, 42, 72
6, 237224, Note_on_c, 0, 42, 0
6, 237224, Note_on_c, 0, 30, 0
6, 237280, Note_on_c, 0, 44, 71
6, 237280, Note_on_c, 0, 32, 71
6, 237384, Note_on_c, 0, 32, 0
6, 237384, Note_on_c, 0, 44, 0
6, 237440, Note_on_c, 0, 34, 71
6, 237440, Note_on_c, 0, 46, 71
6, 237544, Note_on_c, 0, 46, 0
6, 237544, Note_on_c, 0, 34, 0
6, 237600, Note_on_c, 0, 35, 71
6, 237600, Note_on_c, 0, 47, 71
6, 237960, Note_on_c, 0, 47, 0
6, 237960, Note_on_c, 0, 35, 0
6, 238080, Note_on_c, 0, 34, 70
6, 238080, Note_on_c, 0, 46, 70
6, 238184, Note_on_c, 0, 46, 0
6, 238184, Note_on_c, 0, 34, 0
6, 238240, Note_on_c, 0, 36, 70
6, 238240, Note_on_c, 0, 48, 70
6, 238344, Note_on_c, 0, 48, 0
6, 238344, Note_on_c, 0, 36, 0
6, 238400, Note_on_c, 0, 38, 70
6, 238400, Note_on_c, 0, 50, 70
6, 238504, Note_on_c, 0, 50, 0
6, 238504, Note_on_c, 0, 38, 0
6, 238560, Note_on_c, 0, 39, 70
6, 238560, Note_on_c, 0, 51, 70
6, 238716, Note_on_c, 0, 51, 0
6, 238716, Note_on_c, 0, 39, 0
6, 238800, Note_on_c, 0, 37, 69
6, 238800, Note_on_c, 0, 49, 69
6, 238956, Note_on_c, 0, 49, 0
6, 238956, Note_on_c, 0, 37, 0
6, 239040, Note_on_c, 0, 47, 69
6, 239040, Note_on_c, 0, 59, 69
6, 239200, Note_on_c, 0, 59, 0
6, 239200, Note_on_c, 0, 47, 0
6, 239200, Note_on_c, 0, 47, 69
6, 239200, Note_on_c, 0, 59, 69
6, 239360, Note_on_c, 0, 59, 0
6, 239360, Note_on_c, 0, 47, 0
6, 239360, Note_on_c, 0, 47, 69
6, 239360, Note_on_c, 0, 59, 69
6, 239464, Note_on_c, 0, 59, 0
6, 239464, Note_on_c, 0, 47, 0
6, 239520, Note_on_c, 0, 35, 68
6, 239520, Note_on_c, 0, 47, 68
6, 240104, Note_on_c, 0, 47, 0
6, 240104, Note_on_c, 0, 35, 0
6, 240160, Note_on_c, 0, 37, 68
6, 240160, Note_on_c, 0, 49, 68
6, 240264, Note_on_c, 0, 49, 0
6, 240264, Note_on_c, 0, 37, 0
6, 240320, Note_on_c, 0, 39, 68
6, 240320, Note_on_c, 0, 51, 68
6, 240424, Note_on_c, 0, 51, 0
6, 240424, Note_on_c, 0, 39, 0
6, 240480, Note_on_c, 0, 40, 67
6, 240480, Note_on_c, 0, 52, 67
6, 240840, Note_on_c, 0, 52, 0
6, 240840, Note_on_c, 0, 40, 0
6, 240960, Note_on_c, 0, 39, 67
6, 240960, Note_on_c, 0, 51, 67
6, 241116, Note_on_c, 0, 51, 0
6, 241116, Note_on_c, 0, 39, 0
6, 241200, Note_on_c, 0, 40, 67
6, 241200, Note_on_c, 0, 52, 67
6, 241356, Note_on_c, 0, 52, 0
6, 241356, Note_on_c, 0, 40, 0
6, 241440, Note_on_c, 0, 41, 66
6, 241440, Note_on_c, 0, 53, 66
6, 241800, Note_on_c, 0, 53, 0
6, 241800, Note_on_c, 0, 41, 0
6, 241920, Note_on_c, 0, 46, 66
6, 241920, Note_on_c, 0, 58, 66
6, 242280, Note_on_c, 0, 58, 0
6, 242280, Note_on_c, 0, 46, 0
6, 242400, Note_on_c, 0, 46, 69
6, 242400, Note_on_c, 0, 34, 69
6, 242520, Note_on_c, 0, 34, 0
6, 242520, Note_on_c, 0, 33, 66
6, 242640, Note_on_c, 0, 33, 0
6, 242640, Note_on_c, 0, 34, 64
6, 242760, Note_on_c, 0, 34, 0
6, 242760, Note_on_c, 0, 33, 62
6, 242880, Note_on_c, 0, 33, 0
6, 242880, Note_on_c, 0, 34, 60
6, 243000, Note_on_c, 0, 34, 0
6, 243000, Note_on_c, 0, 33, 58
6, 243120, Note_on_c, 0, 33, 0
6, 243120, Note_on_c, 0, 34, 56
6, 243240, Note_on_c, 0, 34, 0
6, 243240, Note_on_c, 0, 33, 53
6, 243360, Note_on_c, 0, 33, 0
6, 243360, Note_on_c, 0, 46, 0
6, 243360, Note_on_c, 0, 34, 53
6, 243480, Note_on_c, 0, 34, 0
6, 243480, Note_on_c, 0, 33, 53
6, 243600, Note_on_c, 0, 33, 0
6, 243600, Note_on_c, 0, 34, 53
6, 243720, Note_on_c, 0, 34, 0
6, 243720, Note_on_c, 0, 38, 53
6, 243840, Note_on_c, 0, 38, 0
6, 243840, Note_on_c, 0, 41, 53
6, 243960, Note_on_c, 0, 41, 0
6, 243960, Note_on_c, 0, 40, 53
6, 244080, Note_on_c, 0, 40, 0
6, 244080, Note_on_c, 0, 41, 52
6, 244200, Note_on_c, 0, 41, 0
6, 244200, Note_on_c, 0, 45, 52
6, 244320, Note_on_c, 0, 45, 0
6, 244320, Note_on_c, 0, 46, 52
6, 244440, Note_on_c, 0, 46, 0
6, 244440, Note_on_c, 0, 45, 52
6, 244560, Note_on_c, 0, 45, 0
6, 244560, Note_on_c, 0, 46, 52
6, 244680, Note_on_c, 0, 46, 0
6, 244680, Note_on_c, 0, 50, 52
6, 244800, Note_on_c, 0, 50, 0
6, 244800, Note_on_c, 0, 53, 52
6, 244920, Note_on_c, 0, 53, 0
6, 244920, Note_on_c, 0, 52, 52
6, 245040, Note_on_c, 0, 52, 0
6, 245040, Note_on_c, 0, 53, 52
6, 245160, Note_on_c, 0, 53, 0
6, 245160, Note_on_c, 0, 57, 52
6, 245280, Note_on_c, 0, 57, 0
6, 245280, Note_on_c, 0, 58, 52
6, 245400, Note_on_c, 0, 58, 0
6, 245400, Note_on_c, 0, 57, 51
6, 245520, Note_on_c, 0, 57, 0
6, 245520, Note_on_c, 0, 58, 51
6, 245640, Note_on_c, 0, 58, 0
6, 245640, Note_on_c, 0, 62, 51
6, 245760, Note_on_c, 0, 62, 0
6, 245760, Note_on_c, 0, 63, 51
6, 245880, Note_on_c, 0, 63, 0
6, 245880, Note_on_c, 0, 62, 51
6, 246000, Note_on_c, 0, 62, 0
6, 246000, Note_on_c, 0, 63, 51
6, 246120, Note_on_c, 0, 63, 0
6, 246120, Note_on_c, 0, 67, 51
6, 246240, Note_on_c, 0, 67, 0
6, 246240, Note_on_c, 0, 70, 51
6, 246360, Note_on_c, 0, 70, 0
6, 246360, Note_on_c, 0, 58, 51
6, 246480, Note_on_c, 0, 58, 0
6, 246480, Note_on_c, 0, 70, 51
6, 246600, Note_on_c, 0, 70, 0
6, 246600, Note_on_c, 0, 58, 50
6, 246720, Note_on_c, 0, 58, 0
6, 246720, Note_on_c, 0, 55, 50
6, 246840, Note_on_c, 0, 55, 0
6, 246840, Note_on_c, 0, 54, 50
6, 246960, Note_on_c, 0, 54, 0
6, 246960, Note_on_c, 0, 55, 50
6, 247080, Note_on_c, 0, 55, 0
6, 247080, Note_on_c, 0, 58, 50
6, 247200, Note_on_c, 0, 58, 0
6, 247200, Note_on_c, 0, 62, 50
6, 247320, Note_on_c, 0, 62, 0
6, 247320, Note_on_c, 0, 50, 50
6, 247440, Note_on_c, 0, 50, 0
6, 247440, Note_on_c, 0, 62, 50
6, 247560, Note_on_c, 0, 62, 0
6, 247560, Note_on_c, 0, 50, 50
6, 247680, Note_on_c, 0, 50, 0
6, 247680, Note_on_c, 0, 51, 53
6, 247808, Note_on_c, 0, 51, 0
6, 247840, Note_on_c, 0, 51, 53
6, 247968, Note_on_c, 0, 51, 0
6, 248000, Note_on_c, 0, 51, 62
6, 248160, Note_on_c, 0, 39, 49
6, 248280, Note_on_c, 0, 39, 0
6, 248280, Note_on_c, 0, 38, 49
6, 248400, Note_on_c, 0, 38, 0
6, 248400, Note_on_c, 0, 39, 49
6, 248520, Note_on_c, 0, 39, 0
6, 248520, Note_on_c, 0, 43, 49
6, 248640, Note_on_c, 0, 43, 0
6, 248640, Note_on_c, 0, 46, 49
6, 248760, Note_on_c, 0, 46, 0
6, 248760, Note_on_c, 0, 45, 49
6, 248880, Note_on_c, 0, 45, 0
6, 248880, Note_on_c, 0, 46, 49
6, 249000, Note_on_c, 0, 46, 0
6, 249000, Note_on_c, 0, 50, 48
6, 249010, Note_on_c, 0, 51, 0
6, 249120, Note_on_c, 0, 50, 0
6, 249120, Note_on_c, 0, 51, 48
6, 249240, Note_on_c, 0, 51, 0
6, 249240, Note_on_c, 0, 50, 48
6, 249360, Note_on_c, 0, 50, 0
6, 249360, Note_on_c, 0, 51, 48
6, 249480, Note_on_c, 0, 51, 0
6, 249480, Note_on_c, 0, 55, 48
6, 249600, Note_on_c, 0, 55, 0
6, 249600, Note_on_c, 0, 58, 48
6, 249720, Note_on_c, 0, 58, 0
6, 249720, Note_on_c, 0, 57, 48
6, 249840, Note_on_c, 0, 57, 0
6, 249840, Note_on_c, 0, 58, 48
6, 249960, Note_on_c, 0, 58, 0
6, 249960, Note_on_c, 0, 62, 48
6, 250080, Note_on_c, 0, 62, 0
6, 250080, Note_on_c, 0, 63, 48
6, 250200, Note_on_c, 0, 63, 0
6, 250200, Note_on_c, 0, 65, 47
6, 250320, Note_on_c, 0, 65, 0
6, 250320, Note_on_c, 0, 63, 47
6, 250440, Note_on_c, 0, 63, 0
6, 250440, Note_on_c, 0, 62, 47
6, 250560, Note_on_c, 0, 62, 0
6, 250560, Note_on_c, 0, 60, 47
6, 250680, Note_on_c, 0, 60, 0
6, 250680, Note_on_c, 0, 59, 47
6, 250800, Note_on_c, 0, 59, 0
6, 250800, Note_on_c, 0, 60, 47
6, 250920, Note_on_c, 0, 60, 0
6, 250920, Note_on_c, 0, 64, 47
6, 251040, Note_on_c, 0, 64, 0
6, 251040, Note_on_c, 0, 65, 47
6, 251160, Note_on_c, 0, 65, 0
6, 251160, Note_on_c, 0, 53, 47
6, 251280, Note_on_c, 0, 53, 0
6, 251280, Note_on_c, 0, 65, 47
6, 251400, Note_on_c, 0, 65, 0
6, 251400, Note_on_c, 0, 53, 47
6, 251520, Note_on_c, 0, 53, 0
6, 251520, Note_on_c, 0, 57, 46
6, 251640, Note_on_c, 0, 57, 0
6, 251640, Note_on_c, 0, 56, 46
6, 251760, Note_on_c, 0, 56, 0
6, 251760, Note_on_c, 0, 57, 46
6, 251880, Note_on_c, 0, 57, 0
6, 251880, Note_on_c, 0, 61, 46
6, 252000, Note_on_c, 0, 61, 0
6, 252000, Note_on_c, 0, 62, 46
6, 252120, Note_on_c, 0, 62, 0
6, 252120, Note_on_c, 0, 50, 46
6, 252240, Note_on_c, 0, 50, 0
6, 252240, Note_on_c, 0, 62, 46
6, 252360, Note_on_c, 0, 62, 0
6, 252360, Note_on_c, 0, 50, 46
6, 252480, Note_on_c, 0, 50, 0
6, 252480, Note_on_c, 0, 46, 51
6, 252608, Note_on_c, 0, 46, 0
6, 252640, Note_on_c, 0, 46, 51
6, 252768, Note_on_c, 0, 46, 0
6, 252800, Note_on_c, 0, 46, 58
6, 252960, Note_on_c, 0, 34, 45
6, 253080, Note_on_c, 0, 34, 0
6, 253080, Note_on_c, 0, 33, 45
6, 253200, Note_on_c, 0, 33, 0
6, 253200, Note_on_c, 0, 34, 45
6, 253320, Note_on_c, 0, 34, 0
6, 253320, Note_on_c, 0, 38, 45
6, 253440, Note_on_c, 0, 38, 0
6, 253440, Note_on_c, 0, 41, 45
6, 253560, Note_on_c, 0, 41, 0
6, 253560, Note_on_c, 0, 40, 45
6, 253680, Note_on_c, 0, 40, 0
6, 253680, Note_on_c, 0, 41, 45
6, 253785, Note_on_c, 0, 46, 0
6, 253800, Note_on_c, 0, 41, 0
6, 253800, Note_on_c, 0, 46, 45
6, 253920, Note_on_c, 0, 46, 0
6, 253920, Note_on_c, 0, 50, 44
6, 254040, Note_on_c, 0, 50, 0
6, 254040, Note_on_c, 0, 49, 44
6, 254160, Note_on_c, 0, 49, 0
6, 254160, Note_on_c, 0, 50, 44
6, 254280, Note_on_c, 0, 50, 0
6, 254280, Note_on_c, 0, 53, 44
6, 254400, Note_on_c, 0, 53, 0
6, 254400, Note_on_c, 0, 58, 44
6, 254520, Note_on_c, 0, 58, 0
6, 254520, Note_on_c, 0, 57, 44
6, 254640, Note_on_c, 0, 57, 0
6, 254640, Note_on_c, 0, 58, 44
6, 254760, Note_on_c, 0, 58, 0
6, 254760, Note_on_c, 0, 68, 44
6, 254880, Note_on_c, 0, 68, 0
6, 254880, Note_on_c, 0, 58, 44
6, 255000, Note_on_c, 0, 58, 0
6, 255000, Note_on_c, 0, 57, 44
6, 255120, Note_on_c, 0, 57, 0
6, 255120, Note_on_c, 0, 58, 43
6, 255240, Note_on_c, 0, 58, 0
6, 255240, Note_on_c, 0, 67, 43
6, 255360, Note_on_c, 0, 67, 0
6, 255360, Note_on_c, 0, 58, 43
6, 255480, Note_on_c, 0, 58, 0
6, 255480, Note_on_c, 0, 57, 43
6, 255600, Note_on_c, 0, 57, 0
6, 255600, Note_on_c, 0, 58, 43
6, 255720, Note_on_c, 0, 58, 0
6, 255720, Note_on_c, 0, 65, 43
6, 255840, Note_on_c, 0, 65, 0
6, 255840, Note_on_c, 0, 58, 43
6, 255960, Note_on_c, 0, 58, 0
6, 255960, Note_on_c, 0, 57, 43
6, 256080, Note_on_c, 0, 57, 0
6, 256080, Note_on_c, 0, 58, 43
6, 256200, Note_on_c, 0, 58, 0
6, 256200, Note_on_c, 0, 62, 43
6, 256320, Note_on_c, 0, 62, 0
6, 256320, Note_on_c, 0, 45, 49
6, 256320, Note_on_c, 0, 57, 49
6, 256448, Note_on_c, 0, 57, 0
6, 256448, Note_on_c, 0, 45, 0
6, 256480, Note_on_c, 0, 45, 48
6, 256480, Note_on_c, 0, 57, 48
6, 256608, Note_on_c, 0, 57, 0
6, 256608, Note_on_c, 0, 45, 0
6, 256640, Note_on_c, 0, 57, 55
6, 256640, Note_on_c, 0, 45, 55
6, 256800, Note_on_c, 0, 33, 47
6, 256920, Note_on_c, 0, 33, 0
6, 256920, Note_on_c, 0, 32, 42
6, 257035, Note_on_c, 0, 45, 0
6, 257040, Note_on_c, 0, 32, 0
6, 257040, Note_on_c, 0, 33, 42
6, 257050, Note_on_c, 0, 57, 0
6, 257160, Note_on_c, 0, 33, 0
6, 257160, Note_on_c, 0, 38, 42
6, 257280, Note_on_c, 0, 38, 0
6, 257280, Note_on_c, 0, 41, 42
6, 257400, Note_on_c, 0, 41, 0
6, 257400, Note_on_c, 0, 40, 42
6, 257520, Note_on_c, 0, 40, 0
6, 257520, Note_on_c, 0, 41, 41
6, 257640, Note_on_c, 0, 41, 0
6, 257640, Note_on_c, 0, 45, 41
6, 257760, Note_on_c, 0, 45, 0
6, 257760, Note_on_c, 0, 50, 41
6, 257880, Note_on_c, 0, 50, 0
6, 257880, Note_on_c, 0, 49, 41
6, 258000, Note_on_c, 0, 49, 0
6, 258000, Note_on_c, 0, 50, 41
6, 258120, Note_on_c, 0, 50, 0
6, 258120, Note_on_c, 0, 53, 41
6, 258240, Note_on_c, 0, 53, 0
6, 258240, Note_on_c, 0, 57, 41
6, 258360, Note_on_c, 0, 57, 0
6, 258360, Note_on_c, 0, 58, 41
6, 258480, Note_on_c, 0, 58, 0
6, 258480, Note_on_c, 0, 57, 41
6, 258600, Note_on_c, 0, 57, 0
6, 258600, Note_on_c, 0, 65, 41
6, 258720, Note_on_c, 0, 65, 0
6, 258720, Note_on_c, 0, 57, 41
6, 258840, Note_on_c, 0, 57, 0
6, 258840, Note_on_c, 0, 58, 40
6, 258960, Note_on_c, 0, 58, 0
6, 258960, Note_on_c, 0, 57, 40
6, 259080, Note_on_c, 0, 57, 0
6, 259080, Note_on_c, 0, 64, 40
6, 259200, Note_on_c, 0, 64, 0
6, 259200, Note_on_c, 0, 57, 40
6, 259320, Note_on_c, 0, 57, 0
6, 259320, Note_on_c, 0, 58, 40
6, 259440, Note_on_c, 0, 58, 0
6, 259440, Note_on_c, 0, 57, 40
6, 259560, Note_on_c, 0, 57, 0
6, 259560, Note_on_c, 0, 62, 40
6, 259680, Note_on_c, 0, 62, 0
6, 259680, Note_on_c, 0, 57, 40
6, 259800, Note_on_c, 0, 57, 0
6, 259800, Note_on_c, 0, 58, 40
6, 259920, Note_on_c, 0, 58, 0
6, 259920, Note_on_c, 0, 57, 40
6, 260040, Note_on_c, 0, 57, 0
6, 260040, Note_on_c, 0, 60, 39
6, 260160, Note_on_c, 0, 60, 0
6, 260160, Note_on_c, 0, 58, 39
6, 260280, Note_on_c, 0, 58, 0
6, 260280, Note_on_c, 0, 60, 39
6, 260400, Note_on_c, 0, 60, 0
6, 260400, Note_on_c, 0, 58, 39
6, 260520, Note_on_c, 0, 58, 0
6, 260520, Note_on_c, 0, 57, 39
6, 260640, Note_on_c, 0, 57, 0
6, 260640, Note_on_c, 0, 58, 39
6, 260760, Note_on_c, 0, 58, 0
6, 260760, Note_on_c, 0, 60, 39
6, 260880, Note_on_c, 0, 60, 0
6, 260880, Note_on_c, 0, 58, 39
6, 261000, Note_on_c, 0, 58, 0
6, 261000, Note_on_c, 0, 57, 39
6, 261120, Note_on_c, 0, 57, 0
6, 261120, Note_on_c, 0, 58, 39
6, 261240, Note_on_c, 0, 58, 0
6, 261240, Note_on_c, 0, 60, 38
6, 261360, Note_on_c, 0, 60, 0
6, 261360, Note_on_c, 0, 58, 38
6, 261480, Note_on_c, 0, 58, 0
6, 261480, Note_on_c, 0, 57, 38
6, 261600, Note_on_c, 0, 57, 0
6, 261600, Note_on_c, 0, 58, 38
6, 261720, Note_on_c, 0, 58, 0
6, 261720, Note_on_c, 0, 55, 38
6, 261840, Note_on_c, 0, 55, 0
6, 261840, Note_on_c, 0, 50, 38
6, 261960, Note_on_c, 0, 50, 0
6, 261960, Note_on_c, 0, 46, 38
6, 262080, Note_on_c, 0, 46, 0
6, 262080, Note_on_c, 0, 45, 40
6, 262200, Note_on_c, 0, 45, 0
6, 262200, Note_on_c, 0, 44, 40
6, 262320, Note_on_c, 0, 44, 0
6, 262320, Note_on_c, 0, 45, 41
6, 262440, Note_on_c, 0, 45, 0
6, 262440, Note_on_c, 0, 47, 41
6, 262560, Note_on_c, 0, 47, 0
6, 262560, Note_on_c, 0, 49, 42
6, 262680, Note_on_c, 0, 49, 0
6, 262680, Note_on_c, 0, 47, 43
6, 262800, Note_on_c, 0, 47, 0
6, 262800, Note_on_c, 0, 49, 43
6, 262920, Note_on_c, 0, 49, 0
6, 262920, Note_on_c, 0, 52, 44
6, 263040, Note_on_c, 0, 52, 0
6, 263040, Note_on_c, 0, 45, 44
6, 263160, Note_on_c, 0, 45, 0
6, 263160, Note_on_c, 0, 44, 45
6, 263280, Note_on_c, 0, 44, 0
6, 263280, Note_on_c, 0, 45, 45
6, 263400, Note_on_c, 0, 45, 0
6, 263400, Note_on_c, 0, 49, 46
6, 263520, Note_on_c, 0, 49, 0
6, 263520, Note_on_c, 0, 50, 47
6, 263640, Note_on_c, 0, 50, 0
6, 263640, Note_on_c, 0, 49, 47
6, 263760, Note_on_c, 0, 49, 0
6, 263760, Note_on_c, 0, 50, 48
6, 263880, Note_on_c, 0, 50, 0
6, 263880, Note_on_c, 0, 53, 48
6, 264000, Note_on_c, 0, 53, 0
6, 264000, Note_on_c, 0, 47, 49
6, 264120, Note_on_c, 0, 47, 0
6, 264120, Note_on_c, 0, 45, 50
6, 264240, Note_on_c, 0, 45, 0
6, 264240, Note_on_c, 0, 47, 50
6, 264360, Note_on_c, 0, 47, 0
6, 264360, Note_on_c, 0, 50, 51
6, 264480, Note_on_c, 0, 50, 0
6, 264480, Note_on_c, 0, 52, 51
6, 264600, Note_on_c, 0, 52, 0
6, 264600, Note_on_c, 0, 50, 52
6, 264720, Note_on_c, 0, 50, 0
6, 264720, Note_on_c, 0, 52, 52
6, 264840, Note_on_c, 0, 52, 0
6, 264960, Note_on_c, 0, 49, 54
6, 264960, Note_on_c, 0, 45, 54
6, 265080, Note_on_c, 0, 49, 0
6, 265080, Note_on_c, 0, 47, 54
6, 265200, Note_on_c, 0, 47, 0
6, 265200, Note_on_c, 0, 49, 55
6, 265320, Note_on_c, 0, 49, 0
6, 265320, Note_on_c, 0, 52, 55
6, 265440, Note_on_c, 0, 52, 0
6, 265440, Note_on_c, 0, 45, 0
6, 265440, Note_on_c, 0, 52, 56
6, 265440, Note_on_c, 0, 45, 56
6, 265560, Note_on_c, 0, 52, 0
6, 265560, Note_on_c, 0, 50, 57
6, 265680, Note_on_c, 0, 50, 0
6, 265680, Note_on_c, 0, 52, 57
6, 265800, Note_on_c, 0, 52, 0
6, 265800, Note_on_c, 0, 57, 58
6, 265920, Note_on_c, 0, 57, 0
6, 265920, Note_on_c, 0, 45, 0
6, 265920, Note_on_c, 0, 57, 58
6, 265920, Note_on_c, 0, 45, 58
6, 266040, Note_on_c, 0, 57, 0
6, 266040, Note_on_c, 0, 56, 59
6, 266160, Note_on_c, 0, 56, 0
6, 266160, Note_on_c, 0, 57, 59
6, 266280, Note_on_c, 0, 57, 0
6, 266280, Note_on_c, 0, 61, 60
6, 266400, Note_on_c, 0, 61, 0
6, 266400, Note_on_c, 0, 45, 0
6, 266400, Note_on_c, 0, 61, 61
6, 266400, Note_on_c, 0, 57, 61
6, 266520, Note_on_c, 0, 61, 0
6, 266520, Note_on_c, 0, 59, 61
6, 266640, Note_on_c, 0, 59, 0
6, 266640, Note_on_c, 0, 61, 62
6, 266760, Note_on_c, 0, 61, 0
6, 266760, Note_on_c, 0, 64, 62
6, 266880, Note_on_c, 0, 64, 0
6, 266880, Note_on_c, 0, 57, 0
6, 266880, Note_on_c, 0, 64, 63
6, 266880, Note_on_c, 0, 57, 63
6, 267000, Note_on_c, 0, 64, 0
6, 267000, Note_on_c, 0, 62, 64
6, 267120, Note_on_c, 0, 62, 0
6, 267120, Note_on_c, 0, 64, 64
6, 267240, Note_on_c, 0, 64, 0
6, 267240, Note_on_c, 0, 69, 65
6, 267360, Note_on_c, 0, 69, 0
6, 267360, Note_on_c, 0, 57, 0
6, 267360, Note_on_c, 0, 64, 65
6, 267360, Note_on_c, 0, 57, 65
6, 267480, Note_on_c, 0, 64, 0
6, 267480, Note_on_c, 0, 62, 66
6, 267600, Note_on_c, 0, 62, 0
6, 267600, Note_on_c, 0, 64, 66
6, 267720, Note_on_c, 0, 64, 0
6, 267720, Note_on_c, 0, 69, 67
6, 267840, Note_on_c, 0, 69, 0
6, 267840, Note_on_c, 0, 57, 0
6, 267840, Note_on_c, 0, 55, 68
6, 267840, Note_on_c, 0, 67, 68
6, 267996, Note_on_c, 0, 67, 0
6, 267996, Note_on_c, 0, 55, 0
6, 268080, Note_on_c, 0, 52, 69
6, 268080, Note_on_c, 0, 64, 69
6, 268236, Note_on_c, 0, 64, 0
6, 268236, Note_on_c, 0, 52, 0
6, 268320, Note_on_c, 0, 61, 70
6, 268320, Note_on_c, 0, 49, 70
6, 268476, Note_on_c, 0, 49, 0
6, 268476, Note_on_c, 0, 61, 0
6, 268560, Note_on_c, 0, 57, 71
6, 268560, Note_on_c, 0, 45, 71
6, 268716, Note_on_c, 0, 45, 0
6, 268716, Note_on_c, 0, 57, 0
6, 268800, Note_on_c, 0, 43, 72
6, 268956, Note_on_c, 0, 43, 0
6, 269040, Note_on_c, 0, 40, 73
6, 269196, Note_on_c, 0, 40, 0
6, 269280, Note_on_c, 0, 37, 75
6, 269436, Note_on_c, 0, 37, 0
6, 269520, Note_on_c, 0, 33, 76
6, 269676, Note_on_c, 0, 33, 0
6, 269760, Note_on_c, 0, 50, 78
6, 269916, Note_on_c, 0, 50, 0
6, 270000, Note_on_c, 0, 57, 78
6, 270156, Note_on_c, 0, 57, 0
6, 270240, Note_on_c, 0, 38, 78
6, 270396, Note_on_c, 0, 38, 0
6, 270480, Note_on_c, 0, 45, 78
6, 270636, Note_on_c, 0, 45, 0
6, 270720, Note_on_c, 0, 26, 79
6, 270876, Note_on_c, 0, 26, 0
6, 270960, Note_on_c, 0, 43, 79
6, 271116, Note_on_c, 0, 43, 0
6, 271200, Note_on_c, 0, 38, 79
6, 271356, Note_on_c, 0, 38, 0
6, 271440, Note_on_c, 0, 50, 79
6, 271596, Note_on_c, 0, 50, 0
6, 271680, Note_on_c, 0, 55, 78
6, 271836, Note_on_c, 0, 55, 0
6, 271920, Note_on_c, 0, 52, 80
6, 272076, Note_on_c, 0, 52, 0
6, 272160, Note_on_c, 0, 47, 83
6, 272316, Note_on_c, 0, 47, 0
6, 272400, Note_on_c, 0, 40, 85
6, 272556, Note_on_c, 0, 40, 0
6, 272640, Note_on_c, 0, 37, 89
6, 272796, Note_on_c, 0, 37, 0
6, 272880, Note_on_c, 0, 33, 87
6, 273036, Note_on_c, 0, 33, 0
6, 273120, Note_on_c, 0, 38, 85
6, 273276, Note_on_c, 0, 38, 0
6, 273360, Note_on_c, 0, 50, 83
6, 273516, Note_on_c, 0, 50, 0
6, 273600, Note_on_c, 0, 69, 82
6, 273756, Note_on_c, 0, 69, 0
6, 273840, Note_on_c, 0, 57, 82
6, 273996, Note_on_c, 0, 57, 0
6, 274080, Note_on_c, 0, 62, 82
6, 274236, Note_on_c, 0, 62, 0
6, 274320, Note_on_c, 0, 50, 82
6, 274476, Note_on_c, 0, 50, 0
6, 274560, Note_on_c, 0, 64, 83
6, 274716, Note_on_c, 0, 64, 0
6, 274800, Note_on_c, 0, 52, 83
6, 274956, Note_on_c, 0, 52, 0
6, 275040, Note_on_c, 0, 57, 83
6, 275196, Note_on_c, 0, 57, 0
6, 275280, Note_on_c, 0, 45, 83
6, 275436, Note_on_c, 0, 45, 0
6, 275520, Note_on_c, 0, 50, 84
6, 275676, Note_on_c, 0, 50, 0
6, 275760, Note_on_c, 0, 48, 84
6, 275916, Note_on_c, 0, 48, 0
6, 276000, Note_on_c, 0, 41, 84
6, 276156, Note_on_c, 0, 41, 0
6, 276240, Note_on_c, 0, 36, 84
6, 276396, Note_on_c, 0, 36, 0
6, 276480, Note_on_c, 0, 29, 85
6, 276636, Note_on_c, 0, 29, 0
6, 276720, Note_on_c, 0, 31, 85
6, 276876, Note_on_c, 0, 31, 0
6, 276960, Note_on_c, 0, 32, 85
6, 277116, Note_on_c, 0, 32, 0
6, 277200, Note_on_c, 0, 33, 85
6, 277356, Note_on_c, 0, 33, 0
6, 277440, Note_on_c, 0, 69, 86
6, 277596, Note_on_c, 0, 69, 0
6, 277680, Note_on_c, 0, 57, 86
6, 277836, Note_on_c, 0, 57, 0
6, 277920, Note_on_c, 0, 62, 86
6, 278076, Note_on_c, 0, 62, 0
6, 278160, Note_on_c, 0, 50, 86
6, 278316, Note_on_c, 0, 50, 0
6, 278400, Note_on_c, 0, 64, 87
6, 278556, Note_on_c, 0, 64, 0
6, 278640, Note_on_c, 0, 52, 87
6, 278796, Note_on_c, 0, 52, 0
6, 278880, Note_on_c, 0, 57, 87
6, 279036, Note_on_c, 0, 57, 0
6, 279120, Note_on_c, 0, 45, 87
6, 279276, Note_on_c, 0, 45, 0
6, 279360, Note_on_c, 0, 62, 88
6, 279516, Note_on_c, 0, 62, 0
6, 279600, Note_on_c, 0, 50, 88
6, 279756, Note_on_c, 0, 50, 0
6, 279840, Note_on_c, 0, 55, 88
6, 279996, Note_on_c, 0, 55, 0
6, 280080, Note_on_c, 0, 43, 88
6, 280236, Note_on_c, 0, 43, 0
6, 280320, Note_on_c, 0, 57, 89
6, 280476, Note_on_c, 0, 57, 0
6, 280560, Note_on_c, 0, 45, 89
6, 280716, Note_on_c, 0, 45, 0
6, 280800, Note_on_c, 0, 50, 89
6, 280956, Note_on_c, 0, 50, 0
6, 281040, Note_on_c, 0, 38, 89
6, 281196, Note_on_c, 0, 38, 0
6, 281240, Note_on_c, 0, 40, 90
6, 281280, Note_on_c, 0, 55, 90
6, 281280, Note_on_c, 0, 47, 90
6, 281435, Note_on_c, 0, 40, 0
6, 281436, Note_on_c, 0, 47, 0
6, 281436, Note_on_c, 0, 55, 0
6, 281760, Note_on_c, 0, 52, 90
6, 281880, Note_on_c, 0, 52, 0
6, 281880, Note_on_c, 0, 54, 90
6, 282000, Note_on_c, 0, 54, 0
6, 282000, Note_on_c, 0, 52, 90
6, 282120, Note_on_c, 0, 52, 0
6, 282120, Note_on_c, 0, 54, 90
6, 282240, Note_on_c, 0, 54, 0
6, 282240, Note_on_c, 0, 55, 91
6, 282360, Note_on_c, 0, 55, 0
6, 282360, Note_on_c, 0, 59, 91
6, 282480, Note_on_c, 0, 59, 0
6, 282480, Note_on_c, 0, 55, 91
6, 282600, Note_on_c, 0, 55, 0
6, 282600, Note_on_c, 0, 59, 91
6, 282720, Note_on_c, 0, 59, 0
6, 282720, Note_on_c, 0, 64, 91
6, 282840, Note_on_c, 0, 64, 0
6, 282840, Note_on_c, 0, 66, 91
6, 282960, Note_on_c, 0, 66, 0
6, 282960, Note_on_c, 0, 64, 91
6, 283080, Note_on_c, 0, 64, 0
6, 283080, Note_on_c, 0, 66, 91
6, 283200, Note_on_c, 0, 66, 0
6, 283200, Note_on_c, 0, 67, 92
6, 283356, Note_on_c, 0, 67, 0
6, 283680, Note_on_c, 0, 40, 92
6, 283800, Note_on_c, 0, 40, 0
6, 283800, Note_on_c, 0, 42, 92
6, 283920, Note_on_c, 0, 42, 0
6, 283920, Note_on_c, 0, 40, 92
6, 284040, Note_on_c, 0, 40, 0
6, 284040, Note_on_c, 0, 42, 92
6, 284160, Note_on_c, 0, 42, 0
6, 284160, Note_on_c, 0, 43, 93
6, 284280, Note_on_c, 0, 43, 0
6, 284280, Note_on_c, 0, 47, 93
6, 284400, Note_on_c, 0, 47, 0
6, 284400, Note_on_c, 0, 43, 93
6, 284520, Note_on_c, 0, 43, 0
6, 284520, Note_on_c, 0, 47, 93
6, 284640, Note_on_c, 0, 47, 0
6, 284640, Note_on_c, 0, 52, 93
6, 284760, Note_on_c, 0, 52, 0
6, 284760, Note_on_c, 0, 54, 93
6, 284880, Note_on_c, 0, 54, 0
6, 284880, Note_on_c, 0, 52, 93
6, 285000, Note_on_c, 0, 52, 0
6, 285000, Note_on_c, 0, 54, 93
6, 285120, Note_on_c, 0, 54, 0
6, 285120, Note_on_c, 0, 48, 94
6, 285276, Note_on_c, 0, 48, 0
6, 285360, Note_on_c, 0, 48, 94
6, 285516, Note_on_c, 0, 48, 0
6, 285600, Note_on_c, 0, 46, 94
6, 285756, Note_on_c, 0, 46, 0
6, 285840, Note_on_c, 0, 46, 94
6, 285996, Note_on_c, 0, 46, 0
6, 286080, Note_on_c, 0, 45, 95
6, 286236, Note_on_c, 0, 45, 0
6, 286320, Note_on_c, 0, 45, 95
6, 286476, Note_on_c, 0, 45, 0
6, 286560, Note_on_c, 0, 43, 95
6, 286716, Note_on_c, 0, 43, 0
6, 286800, Note_on_c, 0, 43, 95
6, 286956, Note_on_c, 0, 43, 0
6, 287000, Note_on_c, 0, 42, 96
6, 287180, Note_on_c, 0, 42, 0
6, 287520, Note_on_c, 0, 43, 96
6, 287676, Note_on_c, 0, 43, 0
6, 288000, Note_on_c, 0, 45, 97
6, 288156, Note_on_c, 0, 45, 0
6, 288480, Note_on_c, 0, 45, 97
6, 288480, Note_on_c, 0, 33, 97
6, 288636, Note_on_c, 0, 33, 0
6, 288636, Note_on_c, 0, 45, 0
6, 288960, Note_on_c, 0, 38, 98
6, 288960, Note_on_c, 0, 50, 98
6, 289116, Note_on_c, 0, 50, 0
6, 289116, Note_on_c, 0, 38, 0
6, 289200, Note_on_c, 0, 42, 98
6, 289200, Note_on_c, 0, 54, 98
6, 289356, Note_on_c, 0, 54, 0
6, 289356, Note_on_c, 0, 42, 0
6, 289440, Note_on_c, 0, 45, 98
6, 289440, Note_on_c, 0, 57, 98
6, 289800, Note_on_c, 0, 57, 0
6, 289800, Note_on_c, 0, 45, 0
6, 289920, Note_on_c, 0, 33, 99
6, 289920, Note_on_c, 0, 45, 99
6, 290280, Note_on_c, 0, 45, 0
6, 290280, Note_on_c, 0, 33, 0
6, 290400, Note_on_c, 0, 31, 99
6, 290400, Note_on_c, 0, 43, 99
6, 290760, Note_on_c, 0, 43, 0
6, 290760, Note_on_c, 0, 31, 0
6, 290880, Note_on_c, 0, 35, 100
6, 290880, Note_on_c, 0, 47, 100
6, 291240, Note_on_c, 0, 47, 0
6, 291240, Note_on_c, 0, 35, 0
6, 291360, Note_on_c, 0, 38, 100
6, 291360, Note_on_c, 0, 50, 100
6, 291720, Note_on_c, 0, 50, 0
6, 291720, Note_on_c, 0, 38, 0
6, 291840, Note_on_c, 0, 38, 101
6, 291840, Note_on_c, 0, 26, 101
6, 292200, Note_on_c, 0, 26, 0
6, 292200, Note_on_c, 0, 38, 0
6, 292320, Note_on_c, 0, 43, 101
6, 292320, Note_on_c, 0, 55, 101
6, 292476, Note_on_c, 0, 55, 0
6, 292476, Note_on_c, 0, 43, 0
6, 292560, Note_on_c, 0, 42, 101
6, 292560, Note_on_c, 0, 54, 101
6, 292716, Note_on_c, 0, 54, 0
6, 292716, Note_on_c, 0, 42, 0
6, 292800, Note_on_c, 0, 40, 102
6, 292800, Note_on_c, 0, 52, 102
6, 293160, Note_on_c, 0, 52, 0
6, 293160, Note_on_c, 0, 40, 0
6, 293280, Note_on_c, 0, 38, 102
6, 293280, Note_on_c, 0, 52, 102
6, 293640, Note_on_c, 0, 52, 0
6, 293640, Note_on_c, 0, 38, 0
6, 293760, Note_on_c, 0, 37, 103
6, 293760, Note_on_c, 0, 52, 103
6, 294120, Note_on_c, 0, 52, 0
6, 294120, Note_on_c, 0, 37, 0
6, 294240, Note_on_c, 0, 33, 103
6, 294240, Note_on_c, 0, 45, 103
6, 294344, Note_on_c, 0, 45, 0
6, 294344, Note_on_c, 0, 33, 0
6, 294400, Note_on_c, 0, 35, 103
6, 294400, Note_on_c, 0, 47, 103
6, 294504, Note_on_c, 0, 47, 0
6, 294504, Note_on_c, 0, 35, 0
6, 294560, Note_on_c, 0, 37, 103
6, 294560, Note_on_c, 0, 49, 103
6, 294664, Note_on_c, 0, 49, 0
6, 294664, Note_on_c, 0, 37, 0
6, 294720, Note_on_c, 0, 50, 104
6, 294720, Note_on_c, 0, 38, 104
6, 295080, Note_on_c, 0, 38, 0
6, 295080, Note_on_c, 0, 50, 0
6, 295200, Note_on_c, 0, 38, 104
6, 295200, Note_on_c, 0, 26, 104
6, 295560, Note_on_c, 0, 26, 0
6, 295560, Note_on_c, 0, 38, 0
6, 295680, Note_on_c, 0, 45, 105
6, 295680, Note_on_c, 0, 57, 105
6, 295836, Note_on_c, 0, 57, 0
6, 295836, Note_on_c, 0, 45, 0
6, 295920, Note_on_c, 0, 57, 105
6, 295920, Note_on_c, 0, 45, 105
6, 296076, Note_on_c, 0, 45, 0
6, 296076, Note_on_c, 0, 57, 0
6, 296160, Note_on_c, 0, 38, 105
6, 296160, Note_on_c, 0, 50, 105
6, 296880, Note_on_c, 0, 50, 0
6, 296880, Note_on_c, 0, 38, 0
6, 296880, Note_on_c, 0, 33, 106
6, 296880, Note_on_c, 0, 45, 106
6, 297036, Note_on_c, 0, 45, 0
6, 297036, Note_on_c, 0, 33, 0
6, 297120, Note_on_c, 0, 30, 106
6, 297120, Note_on_c, 0, 42, 106
6, 297480, Note_on_c, 0, 42, 0
6, 297480, Note_on_c, 0, 30, 0
6, 297600, Note_on_c, 0, 33, 107
6, 297600, Note_on_c, 0, 45, 107
6, 297960, Note_on_c, 0, 45, 0
6, 297960, Note_on_c, 0, 33, 0
6, 298080, Note_on_c, 0, 38, 107
6, 298080, Note_on_c, 0, 50, 107
6, 298440, Note_on_c, 0, 50, 0
6, 298440, Note_on_c, 0, 38, 0
6, 298560, Note_on_c, 0, 40, 108
6, 298560, Note_on_c, 0, 52, 108
6, 298920, Note_on_c, 0, 52, 0
6, 298920, Note_on_c, 0, 40, 0
6, 299040, Note_on_c, 0, 42, 108
6, 299040, Note_on_c, 0, 54, 108
6, 299144, Note_on_c, 0, 54, 0
6, 299144, Note_on_c, 0, 42, 0
6, 299200, Note_on_c, 0, 40, 108
6, 299200, Note_on_c, 0, 52, 108
6, 299304, Note_on_c, 0, 52, 0
6, 299304, Note_on_c, 0, 40, 0
6, 299360, Note_on_c, 0, 42, 108
6, 299360, Note_on_c, 0, 54, 108
6, 299464, Note_on_c, 0, 54, 0
6, 299464, Note_on_c, 0, 42, 0
6, 299520, Note_on_c, 0, 47, 109
6, 299520, Note_on_c, 0, 59, 109
6, 300240, Note_on_c, 0, 59, 0
6, 300240, Note_on_c, 0, 47, 0
6, 300240, Note_on_c, 0, 45, 109
6, 300240, Note_on_c, 0, 57, 109
6, 300396, Note_on_c, 0, 57, 0
6, 300396, Note_on_c, 0, 45, 0
6, 300480, Note_on_c, 0, 42, 110
6, 300480, Note_on_c, 0, 54, 110
6, 300840, Note_on_c, 0, 54, 0
6, 300840, Note_on_c, 0, 42, 0
6, 300960, Note_on_c, 0, 55, 110
6, 300960, Note_on_c, 0, 43, 110
6, 301320, Note_on_c, 0, 43, 0
6, 301320, Note_on_c, 0, 55, 0
6, 301440, Note_on_c, 0, 45, 111
6, 301440, Note_on_c, 0, 57, 111
6, 301800, Note_on_c, 0, 57, 0
6, 301800, Note_on_c, 0, 45, 0
6, 301920, Note_on_c, 0, 33, 111
6, 301920, Note_on_c, 0, 45, 111
6, 302280, Note_on_c, 0, 45, 0
6, 302280, Note_on_c, 0, 33, 0
6, 302400, Note_on_c, 0, 38, 112
6, 302400, Note_on_c, 0, 26, 112
6, 304320, Note_on_c, 0, 26, 0
6, 304320, Note_on_c, 0, 38, 0
6, 304320, End_track
0, 0, End_of_file
