0, 0, Header, 1, 3, 240
1, 0, Start_track
1, 0, Title_t, "untitled"
1, 0, Time_signature, 3, 2, 24, 8
1, 0, Key_signature, 0, "major"
1, 0, Tempo, 370370
1, 0, End_track
2, 0, Start_track
2, 0, Title_t, "Brahms"
2, 0, Control_c, 0, 7, 115
2, 0, Control_c, 0, 10, 79
2, 360, Note_on_c, 0, 78, 86
2, 360, Note_on_c, 0, 66, 86
2, 456, Note_on_c, 0, 66, 0
2, 456, Note_on_c, 0, 78, 0
2, 480, Note_on_c, 0, 83, 86
2, 480, Note_on_c, 0, 71, 86
2, 576, Note_on_c, 0, 71, 0
2, 576, Note_on_c, 0, 83, 0
2, 600, Note_on_c, 0, 73, 86
2, 600, Note_on_c, 0, 85, 86
2, 696, Note_on_c, 0, 85, 0
2, 696, Note_on_c, 0, 73, 0
2, 720, Note_on_c, 0, 87, 86
2, 720, Note_on_c, 0, 75, 86
2, 912, Note_on_c, 0, 75, 0
2, 912, Note_on_c, 0, 87, 0
2, 960, Note_on_c, 0, 78, 86
2, 960, Note_on_c, 0, 66, 86
2, 1152, Note_on_c, 0, 66, 0
2, 1152, Note_on_c, 0, 78, 0
2, 1200, Note_on_c, 0, 75, 86
2, 1200, Note_on_c, 0, 87, 86
2, 1392, Note_on_c, 0, 87, 0
2, 1392, Note_on_c, 0, 75, 0
2, 1440, Note_on_c, 0, 85, 86
2, 1440, Note_on_c, 0, 80, 86
2, 1440, Note_on_c, 0, 76, 86
2, 1440, Note_on_c, 0, 73, 86
2, 1632, Note_on_c, 0, 73, 0
2, 1632, Note_on_c, 0, 85, 0
2, 1632, Note_on_c, 0, 80, 0
2, 1632, Note_on_c, 0, 76, 0
2, 1680, Note_on_c, 0, 80, 86
2, 1680, Note_on_c, 0, 68, 86
2, 1872, Note_on_c, 0, 68, 0
2, 1872, Note_on_c, 0, 80, 0
2, 1920, Note_on_c, 0, 73, 86
2, 1920, Note_on_c, 0, 85, 86
2, 2112, Note_on_c, 0, 85, 0
2, 2112, Note_on_c, 0, 73, 0
2, 2160, Note_on_c, 0, 83, 86
2, 2160, Note_on_c, 0, 78, 86
2, 2160, Note_on_c, 0, 71, 86
2, 2256, Note_on_c, 0, 71, 0
2, 2256, Note_on_c, 0, 78, 0
2, 2256, Note_on_c, 0, 83, 0
2, 2280, Note_on_c, 0, 82, 86
2, 2280, Note_on_c, 0, 70, 86
2, 2376, Note_on_c, 0, 70, 0
2, 2376, Note_on_c, 0, 82, 0
2, 2400, Note_on_c, 0, 80, 86
2, 2400, Note_on_c, 0, 68, 86
2, 2496, Note_on_c, 0, 68, 0
2, 2496, Note_on_c, 0, 80, 0
2, 2520, Note_on_c, 0, 78, 86
2, 2520, Note_on_c, 0, 66, 86
2, 2616, Note_on_c, 0, 66, 0
2, 2616, Note_on_c, 0, 78, 0
2, 2640, Note_on_c, 0, 80, 86
2, 2640, Note_on_c, 0, 68, 86
2, 2736, Note_on_c, 0, 68, 0
2, 2736, Note_on_c, 0, 80, 0
2, 2760, Note_on_c, 0, 70, 86
2, 2760, Note_on_c, 0, 82, 86
2, 2856, Note_on_c, 0, 82, 0
2, 2856, Note_on_c, 0, 70, 0
2, 2880, Note_on_c, 0, 85, 86
2, 2880, Note_on_c, 0, 73, 86
2, 3072, Note_on_c, 0, 73, 0
2, 3072, Note_on_c, 0, 85, 0
2, 3120, Note_on_c, 0, 83, 86
2, 3120, Note_on_c, 0, 71, 86
2, 3312, Note_on_c, 0, 71, 0
2, 3312, Note_on_c, 0, 83, 0
2, 3360, Note_on_c, 0, 69, 86
2, 3360, Note_on_c, 0, 75, 86
2, 3360, Note_on_c, 0, 78, 86
2, 3360, Note_on_c, 0, 81, 86
2, 3552, Note_on_c, 0, 81, 0
2, 3552, Note_on_c, 0, 69, 0
2, 3552, Note_on_c, 0, 75, 0
2, 3552, Note_on_c, 0, 78, 0
2, 3600, Note_on_c, 0, 80, 86
2, 3600, Note_on_c, 0, 68, 86
2, 3792, Note_on_c, 0, 68, 0
2, 3792, Note_on_c, 0, 80, 0
2, 3840, Note_on_c, 0, 75, 86
2, 3840, Note_on_c, 0, 71, 86
2, 4032, Note_on_c, 0, 71, 0
2, 4032, Note_on_c, 0, 75, 0
2, 4080, Note_on_c, 0, 68, 86
2, 4080, Note_on_c, 0, 80, 86
2, 4272, Note_on_c, 0, 80, 0
2, 4272, Note_on_c, 0, 68, 0
2, 4320, Note_on_c, 0, 78, 86
2, 4320, Note_on_c, 0, 75, 86
2, 4320, Note_on_c, 0, 66, 86
2, 4512, Note_on_c, 0, 66, 0
2, 4512, Note_on_c, 0, 75, 0
2, 4512, Note_on_c, 0, 78, 0
2, 4560, Note_on_c, 0, 70, 86
2, 4752, Note_on_c, 0, 70, 0
2, 4800, Note_on_c, 0, 66, 86
2, 4800, Note_on_c, 0, 78, 86
2, 4992, Note_on_c, 0, 78, 0
2, 4992, Note_on_c, 0, 66, 0
2, 5040, Note_on_c, 0, 77, 86
2, 5040, Note_on_c, 0, 65, 86
2, 5136, Note_on_c, 0, 65, 0
2, 5136, Note_on_c, 0, 77, 0
2, 5160, Note_on_c, 0, 75, 86
2, 5160, Note_on_c, 0, 63, 86
2, 5256, Note_on_c, 0, 63, 0
2, 5256, Note_on_c, 0, 75, 0
2, 5280, Note_on_c, 0, 74, 86
2, 5280, Note_on_c, 0, 62, 86
2, 5376, Note_on_c, 0, 62, 0
2, 5376, Note_on_c, 0, 74, 0
2, 5400, Note_on_c, 0, 75, 86
2, 5400, Note_on_c, 0, 63, 86
2, 5496, Note_on_c, 0, 63, 0
2, 5496, Note_on_c, 0, 75, 0
2, 5520, Note_on_c, 0, 77, 86
2, 5520, Note_on_c, 0, 65, 86
2, 5616, Note_on_c, 0, 65, 0
2, 5616, Note_on_c, 0, 77, 0
2, 5640, Note_on_c, 0, 66, 86
2, 5640, Note_on_c, 0, 78, 86
2, 5736, Note_on_c, 0, 78, 0
2, 5736, Note_on_c, 0, 66, 0
2, 5760, Note_on_c, 0, 77, 86
2, 5760, Note_on_c, 0, 65, 86
2, 5856, Note_on_c, 0, 65, 0
2, 5856, Note_on_c, 0, 77, 0
2, 5880, Note_on_c, 0, 75, 86
2, 5880, Note_on_c, 0, 63, 86
2, 5976, Note_on_c, 0, 63, 0
2, 5976, Note_on_c, 0, 75, 0
2, 6000, Note_on_c, 0, 74, 86
2, 6000, Note_on_c, 0, 62, 86
2, 6096, Note_on_c, 0, 62, 0
2, 6096, Note_on_c, 0, 74, 0
2, 6120, Note_on_c, 0, 75, 86
2, 6120, Note_on_c, 0, 63, 86
2, 6216, Note_on_c, 0, 63, 0
2, 6216, Note_on_c, 0, 75, 0
2, 6240, Note_on_c, 0, 77, 86
2, 6240, Note_on_c, 0, 65, 86
2, 6336, Note_on_c, 0, 65, 0
2, 6336, Note_on_c, 0, 77, 0
2, 6360, Note_on_c, 0, 66, 86
2, 6360, Note_on_c, 0, 78, 86
2, 6456, Note_on_c, 0, 78, 0
2, 6456, Note_on_c, 0, 66, 0
2, 6480, Note_on_c, 0, 87, 86
2, 6480, Note_on_c, 0, 75, 86
2, 6672, Note_on_c, 0, 75, 0
2, 6672, Note_on_c, 0, 87, 0
2, 6720, Note_on_c, 0, 78, 86
2, 6720, Note_on_c, 0, 66, 86
2, 6912, Note_on_c, 0, 66, 0
2, 6912, Note_on_c, 0, 78, 0
2, 6960, Note_on_c, 0, 75, 86
2, 6960, Note_on_c, 0, 87, 86
2, 7152, Note_on_c, 0, 87, 0
2, 7152, Note_on_c, 0, 75, 0
2, 7200, Note_on_c, 0, 85, 86
2, 7200, Note_on_c, 0, 80, 86
2, 7200, Note_on_c, 0, 76, 86
2, 7200, Note_on_c, 0, 73, 86
2, 7392, Note_on_c, 0, 73, 0
2, 7392, Note_on_c, 0, 85, 0
2, 7392, Note_on_c, 0, 80, 0
2, 7392, Note_on_c, 0, 76, 0
2, 7440, Note_on_c, 0, 80, 86
2, 7440, Note_on_c, 0, 68, 86
2, 7632, Note_on_c, 0, 68, 0
2, 7632, Note_on_c, 0, 80, 0
2, 7680, Note_on_c, 0, 73, 86
2, 7680, Note_on_c, 0, 85, 86
2, 7872, Note_on_c, 0, 85, 0
2, 7872, Note_on_c, 0, 73, 0
2, 7920, Note_on_c, 0, 83, 86
2, 7920, Note_on_c, 0, 78, 86
2, 7920, Note_on_c, 0, 71, 86
2, 8016, Note_on_c, 0, 71, 0
2, 8016, Note_on_c, 0, 78, 0
2, 8016, Note_on_c, 0, 83, 0
2, 8040, Note_on_c, 0, 82, 86
2, 8040, Note_on_c, 0, 70, 86
2, 8136, Note_on_c, 0, 70, 0
2, 8136, Note_on_c, 0, 82, 0
2, 8160, Note_on_c, 0, 80, 86
2, 8160, Note_on_c, 0, 68, 86
2, 8256, Note_on_c, 0, 68, 0
2, 8256, Note_on_c, 0, 80, 0
2, 8280, Note_on_c, 0, 78, 86
2, 8280, Note_on_c, 0, 66, 86
2, 8376, Note_on_c, 0, 66, 0
2, 8376, Note_on_c, 0, 78, 0
2, 8400, Note_on_c, 0, 80, 86
2, 8400, Note_on_c, 0, 68, 86
2, 8496, Note_on_c, 0, 68, 0
2, 8496, Note_on_c, 0, 80, 0
2, 8520, Note_on_c, 0, 70, 86
2, 8520, Note_on_c, 0, 82, 86
2, 8616, Note_on_c, 0, 82, 0
2, 8616, Note_on_c, 0, 70, 0
2, 8640, Note_on_c, 0, 85, 86
2, 8640, Note_on_c, 0, 73, 86
2, 8832, Note_on_c, 0, 73, 0
2, 8832, Note_on_c, 0, 85, 0
2, 8880, Note_on_c, 0, 83, 86
2, 8880, Note_on_c, 0, 71, 86
2, 9072, Note_on_c, 0, 71, 0
2, 9072, Note_on_c, 0, 83, 0
2, 9120, Note_on_c, 0, 70, 86
2, 9120, Note_on_c, 0, 75, 86
2, 9120, Note_on_c, 0, 78, 86
2, 9120, Note_on_c, 0, 82, 86
2, 9312, Note_on_c, 0, 82, 0
2, 9312, Note_on_c, 0, 70, 0
2, 9312, Note_on_c, 0, 75, 0
2, 9312, Note_on_c, 0, 78, 0
2, 9360, Note_on_c, 0, 80, 86
2, 9360, Note_on_c, 0, 68, 86
2, 9552, Note_on_c, 0, 68, 0
2, 9552, Note_on_c, 0, 80, 0
2, 9600, Note_on_c, 0, 75, 86
2, 9600, Note_on_c, 0, 71, 86
2, 9792, Note_on_c, 0, 71, 0
2, 9792, Note_on_c, 0, 75, 0
2, 9840, Note_on_c, 0, 68, 86
2, 9840, Note_on_c, 0, 80, 86
2, 10032, Note_on_c, 0, 80, 0
2, 10032, Note_on_c, 0, 68, 0
2, 10080, Note_on_c, 0, 78, 86
2, 10080, Note_on_c, 0, 75, 86
2, 10080, Note_on_c, 0, 66, 86
2, 10272, Note_on_c, 0, 66, 0
2, 10272, Note_on_c, 0, 75, 0
2, 10272, Note_on_c, 0, 78, 0
2, 10320, Note_on_c, 0, 70, 86
2, 10512, Note_on_c, 0, 70, 0
2, 10560, Note_on_c, 0, 66, 86
2, 10560, Note_on_c, 0, 78, 86
2, 10752, Note_on_c, 0, 78, 0
2, 10752, Note_on_c, 0, 66, 0
2, 10800, Note_on_c, 0, 77, 86
2, 10800, Note_on_c, 0, 65, 86
2, 10896, Note_on_c, 0, 65, 0
2, 10896, Note_on_c, 0, 77, 0
2, 10920, Note_on_c, 0, 75, 86
2, 10920, Note_on_c, 0, 63, 86
2, 11016, Note_on_c, 0, 63, 0
2, 11016, Note_on_c, 0, 75, 0
2, 11040, Note_on_c, 0, 74, 86
2, 11040, Note_on_c, 0, 62, 86
2, 11136, Note_on_c, 0, 62, 0
2, 11136, Note_on_c, 0, 74, 0
2, 11160, Note_on_c, 0, 75, 86
2, 11160, Note_on_c, 0, 63, 86
2, 11256, Note_on_c, 0, 63, 0
2, 11256, Note_on_c, 0, 75, 0
2, 11280, Note_on_c, 0, 77, 86
2, 11280, Note_on_c, 0, 65, 86
2, 11376, Note_on_c, 0, 65, 0
2, 11376, Note_on_c, 0, 77, 0
2, 11400, Note_on_c, 0, 66, 86
2, 11400, Note_on_c, 0, 78, 86
2, 11496, Note_on_c, 0, 78, 0
2, 11496, Note_on_c, 0, 66, 0
2, 11520, Note_on_c, 0, 77, 86
2, 11520, Note_on_c, 0, 65, 86
2, 11616, Note_on_c, 0, 65, 0
2, 11616, Note_on_c, 0, 77, 0
2, 11640, Note_on_c, 0, 75, 86
2, 11640, Note_on_c, 0, 63, 86
2, 11736, Note_on_c, 0, 63, 0
2, 11736, Note_on_c, 0, 75, 0
2, 11760, Note_on_c, 0, 74, 86
2, 11760, Note_on_c, 0, 62, 86
2, 11856, Note_on_c, 0, 62, 0
2, 11856, Note_on_c, 0, 74, 0
2, 11880, Note_on_c, 0, 75, 86
2, 11880, Note_on_c, 0, 63, 86
2, 11976, Note_on_c, 0, 63, 0
2, 11976, Note_on_c, 0, 75, 0
2, 12000, Note_on_c, 0, 77, 86
2, 12000, Note_on_c, 0, 65, 86
2, 12096, Note_on_c, 0, 65, 0
2, 12096, Note_on_c, 0, 77, 0
2, 12120, Note_on_c, 0, 66, 86
2, 12120, Note_on_c, 0, 78, 86
2, 12216, Note_on_c, 0, 78, 0
2, 12216, Note_on_c, 0, 66, 0
2, 12240, Note_on_c, 0, 66, 86
2, 12240, Note_on_c, 0, 76, 86
2, 12360, Note_on_c, 0, 76, 0
2, 12360, Note_on_c, 0, 75, 86
2, 12480, Note_on_c, 0, 75, 0
2, 12480, Note_on_c, 0, 73, 86
2, 12600, Note_on_c, 0, 73, 0
2, 12600, Note_on_c, 0, 75, 86
2, 12720, Note_on_c, 0, 75, 0
2, 12720, Note_on_c, 0, 76, 86
2, 12840, Note_on_c, 0, 76, 0
2, 12840, Note_on_c, 0, 78, 86
2, 12960, Note_on_c, 0, 78, 0
2, 12960, Note_on_c, 0, 66, 0
2, 12960, Note_on_c, 0, 66, 86
2, 12960, Note_on_c, 0, 76, 86
2, 13080, Note_on_c, 0, 76, 0
2, 13080, Note_on_c, 0, 75, 86
2, 13200, Note_on_c, 0, 75, 0
2, 13200, Note_on_c, 0, 73, 86
2, 13320, Note_on_c, 0, 73, 0
2, 13320, Note_on_c, 0, 75, 86
2, 13440, Note_on_c, 0, 75, 0
2, 13440, Note_on_c, 0, 76, 86
2, 13560, Note_on_c, 0, 76, 0
2, 13560, Note_on_c, 0, 78, 86
2, 13680, Note_on_c, 0, 78, 0
2, 13680, Note_on_c, 0, 76, 86
2, 13800, Note_on_c, 0, 76, 0
2, 13800, Note_on_c, 0, 75, 86
2, 13920, Note_on_c, 0, 75, 0
2, 13920, Note_on_c, 0, 73, 86
2, 14040, Note_on_c, 0, 73, 0
2, 14040, Note_on_c, 0, 75, 86
2, 14160, Note_on_c, 0, 75, 0
2, 14160, Note_on_c, 0, 66, 0
2, 14160, Note_on_c, 0, 76, 86
2, 14280, Note_on_c, 0, 76, 0
2, 14280, Note_on_c, 0, 80, 86
2, 14340, Note_on_c, 0, 80, 0
2, 14370, Note_on_c, 0, 80, 86
2, 14400, Note_on_c, 0, 80, 0
2, 14400, Note_on_c, 0, 73, 86
2, 14400, Note_on_c, 0, 85, 86
2, 14880, Note_on_c, 0, 85, 0
2, 14880, Note_on_c, 0, 78, 86
2, 15120, Note_on_c, 0, 78, 0
2, 15120, Note_on_c, 0, 73, 0
2, 15120, Note_on_c, 0, 71, 86
2, 15120, Note_on_c, 0, 81, 86
2, 15240, Note_on_c, 0, 81, 0
2, 15240, Note_on_c, 0, 80, 86
2, 15360, Note_on_c, 0, 80, 0
2, 15360, Note_on_c, 0, 78, 86
2, 15480, Note_on_c, 0, 78, 0
2, 15480, Note_on_c, 0, 80, 86
2, 15600, Note_on_c, 0, 80, 0
2, 15600, Note_on_c, 0, 81, 86
2, 15720, Note_on_c, 0, 81, 0
2, 15720, Note_on_c, 0, 83, 86
2, 15840, Note_on_c, 0, 83, 0
2, 15840, Note_on_c, 0, 71, 0
2, 15840, Note_on_c, 0, 71, 86
2, 15840, Note_on_c, 0, 81, 86
2, 15960, Note_on_c, 0, 81, 0
2, 15960, Note_on_c, 0, 80, 86
2, 16080, Note_on_c, 0, 80, 0
2, 16080, Note_on_c, 0, 78, 86
2, 16200, Note_on_c, 0, 78, 0
2, 16200, Note_on_c, 0, 80, 86
2, 16320, Note_on_c, 0, 80, 0
2, 16320, Note_on_c, 0, 81, 86
2, 16440, Note_on_c, 0, 81, 0
2, 16440, Note_on_c, 0, 83, 86
2, 16560, Note_on_c, 0, 83, 0
2, 16560, Note_on_c, 0, 81, 86
2, 16680, Note_on_c, 0, 81, 0
2, 16680, Note_on_c, 0, 80, 86
2, 16800, Note_on_c, 0, 80, 0
2, 16800, Note_on_c, 0, 78, 86
2, 16920, Note_on_c, 0, 78, 0
2, 16920, Note_on_c, 0, 80, 86
2, 17040, Note_on_c, 0, 80, 0
2, 17040, Note_on_c, 0, 71, 0
2, 17040, Note_on_c, 0, 81, 86
2, 17160, Note_on_c, 0, 81, 0
2, 17160, Note_on_c, 0, 85, 86
2, 17220, Note_on_c, 0, 85, 0
2, 17250, Note_on_c, 0, 85, 86
2, 17280, Note_on_c, 0, 85, 0
2, 17280, Note_on_c, 0, 78, 86
2, 17280, Note_on_c, 0, 90, 86
2, 17760, Note_on_c, 0, 90, 0
2, 17760, Note_on_c, 0, 78, 0
2, 17760, Note_on_c, 0, 71, 86
2, 17760, Note_on_c, 0, 81, 86
2, 17760, Note_on_c, 0, 83, 86
2, 18000, Note_on_c, 0, 83, 0
2, 18000, Note_on_c, 0, 81, 0
2, 18000, Note_on_c, 0, 71, 0
2, 18000, Note_on_c, 0, 92, 86
2, 18000, Note_on_c, 0, 83, 86
2, 18000, Note_on_c, 0, 80, 86
2, 18192, Note_on_c, 0, 80, 0
2, 18192, Note_on_c, 0, 83, 0
2, 18192, Note_on_c, 0, 92, 0
2, 18240, Note_on_c, 0, 83, 86
2, 18240, Note_on_c, 0, 71, 86
2, 18432, Note_on_c, 0, 71, 0
2, 18432, Note_on_c, 0, 83, 0
2, 18480, Note_on_c, 0, 80, 86
2, 18480, Note_on_c, 0, 92, 86
2, 18672, Note_on_c, 0, 92, 0
2, 18672, Note_on_c, 0, 80, 0
2, 18720, Note_on_c, 0, 90, 86
2, 18720, Note_on_c, 0, 85, 86
2, 18720, Note_on_c, 0, 78, 86
2, 18912, Note_on_c, 0, 78, 0
2, 18912, Note_on_c, 0, 85, 0
2, 18912, Note_on_c, 0, 90, 0
2, 18960, Note_on_c, 0, 85, 86
2, 18960, Note_on_c, 0, 73, 86
2, 19152, Note_on_c, 0, 73, 0
2, 19152, Note_on_c, 0, 85, 0
2, 19200, Note_on_c, 0, 78, 86
2, 19200, Note_on_c, 0, 90, 86
2, 19392, Note_on_c, 0, 90, 0
2, 19392, Note_on_c, 0, 78, 0
2, 19440, Note_on_c, 0, 88, 86
2, 19440, Note_on_c, 0, 81, 86
2, 19440, Note_on_c, 0, 76, 86
2, 19536, Note_on_c, 0, 76, 0
2, 19536, Note_on_c, 0, 81, 0
2, 19536, Note_on_c, 0, 88, 0
2, 19560, Note_on_c, 0, 87, 86
2, 19560, Note_on_c, 0, 75, 86
2, 19656, Note_on_c, 0, 75, 0
2, 19656, Note_on_c, 0, 87, 0
2, 19680, Note_on_c, 0, 85, 86
2, 19680, Note_on_c, 0, 73, 86
2, 19776, Note_on_c, 0, 73, 0
2, 19776, Note_on_c, 0, 85, 0
2, 19800, Note_on_c, 0, 83, 86
2, 19800, Note_on_c, 0, 71, 86
2, 19896, Note_on_c, 0, 71, 0
2, 19896, Note_on_c, 0, 83, 0
2, 19920, Note_on_c, 0, 85, 86
2, 19920, Note_on_c, 0, 73, 86
2, 20016, Note_on_c, 0, 73, 0
2, 20016, Note_on_c, 0, 85, 0
2, 20040, Note_on_c, 0, 75, 86
2, 20040, Note_on_c, 0, 87, 86
2, 20136, Note_on_c, 0, 87, 0
2, 20136, Note_on_c, 0, 75, 0
2, 20160, Note_on_c, 0, 90, 86
2, 20160, Note_on_c, 0, 78, 86
2, 20352, Note_on_c, 0, 78, 0
2, 20352, Note_on_c, 0, 90, 0
2, 20400, Note_on_c, 0, 88, 86
2, 20400, Note_on_c, 0, 80, 86
2, 20400, Note_on_c, 0, 76, 86
2, 20592, Note_on_c, 0, 76, 0
2, 20592, Note_on_c, 0, 80, 0
2, 20592, Note_on_c, 0, 88, 0
2, 20640, Note_on_c, 0, 75, 86
2, 20640, Note_on_c, 0, 80, 86
2, 20640, Note_on_c, 0, 84, 86
2, 20640, Note_on_c, 0, 87, 86
2, 20832, Note_on_c, 0, 87, 0
2, 20832, Note_on_c, 0, 75, 0
2, 20832, Note_on_c, 0, 80, 0
2, 20832, Note_on_c, 0, 84, 0
2, 20880, Note_on_c, 0, 85, 86
2, 20880, Note_on_c, 0, 73, 86
2, 21072, Note_on_c, 0, 73, 0
2, 21072, Note_on_c, 0, 85, 0
2, 21120, Note_on_c, 0, 80, 86
2, 21120, Note_on_c, 0, 76, 86
2, 21312, Note_on_c, 0, 76, 0
2, 21312, Note_on_c, 0, 80, 0
2, 21360, Note_on_c, 0, 73, 86
2, 21360, Note_on_c, 0, 85, 86
2, 21552, Note_on_c, 0, 85, 0
2, 21552, Note_on_c, 0, 73, 0
2, 21600, Note_on_c, 0, 83, 86
2, 21600, Note_on_c, 0, 71, 86
2, 21792, Note_on_c, 0, 71, 0
2, 21792, Note_on_c, 0, 83, 0
2, 21840, Note_on_c, 0, 78, 86
2, 21840, Note_on_c, 0, 75, 86
2, 22032, Note_on_c, 0, 75, 0
2, 22032, Note_on_c, 0, 78, 0
2, 22080, Note_on_c, 0, 71, 86
2, 22080, Note_on_c, 0, 83, 86
2, 22272, Note_on_c, 0, 83, 0
2, 22272, Note_on_c, 0, 71, 0
2, 22320, Note_on_c, 0, 70, 86
2, 22320, Note_on_c, 0, 82, 86
2, 22440, Note_on_c, 0, 82, 0
2, 22440, Note_on_c, 0, 70, 0
2, 22440, Note_on_c, 0, 68, 86
2, 22440, Note_on_c, 0, 80, 86
2, 22560, Note_on_c, 0, 80, 0
2, 22560, Note_on_c, 0, 68, 0
2, 22560, Note_on_c, 0, 68, 86
2, 22560, Note_on_c, 0, 80, 86
2, 22680, Note_on_c, 0, 80, 0
2, 22680, Note_on_c, 0, 68, 0
2, 22680, Note_on_c, 0, 66, 86
2, 22680, Note_on_c, 0, 78, 86
2, 22800, Note_on_c, 0, 78, 0
2, 22800, Note_on_c, 0, 66, 0
2, 22800, Note_on_c, 0, 64, 86
2, 22800, Note_on_c, 0, 76, 86
2, 22920, Note_on_c, 0, 76, 0
2, 22920, Note_on_c, 0, 64, 0
2, 22920, Note_on_c, 0, 61, 86
2, 22920, Note_on_c, 0, 73, 86
2, 23040, Note_on_c, 0, 73, 0
2, 23040, Note_on_c, 0, 61, 0
2, 23040, Note_on_c, 0, 59, 86
2, 23040, Note_on_c, 0, 63, 86
2, 23040, Note_on_c, 0, 66, 86
2, 23040, Note_on_c, 0, 71, 86
2, 23520, Note_on_c, 0, 71, 0
2, 23520, Note_on_c, 0, 59, 0
2, 23520, Note_on_c, 0, 63, 0
2, 23520, Note_on_c, 0, 66, 0
2, 23520, Note_on_c, 0, 66, 86
2, 23520, Note_on_c, 0, 78, 86
2, 23760, Note_on_c, 0, 78, 0
2, 23760, Note_on_c, 0, 66, 0
2, 23760, Note_on_c, 0, 66, 86
2, 23760, Note_on_c, 0, 76, 86
2, 23880, Note_on_c, 0, 76, 0
2, 23880, Note_on_c, 0, 75, 86
2, 24000, Note_on_c, 0, 75, 0
2, 24000, Note_on_c, 0, 73, 86
2, 24120, Note_on_c, 0, 73, 0
2, 24120, Note_on_c, 0, 75, 86
2, 24240, Note_on_c, 0, 75, 0
2, 24240, Note_on_c, 0, 76, 86
2, 24360, Note_on_c, 0, 76, 0
2, 24360, Note_on_c, 0, 78, 86
2, 24480, Note_on_c, 0, 78, 0
2, 24480, Note_on_c, 0, 66, 0
2, 24480, Note_on_c, 0, 66, 86
2, 24480, Note_on_c, 0, 76, 86
2, 24600, Note_on_c, 0, 76, 0
2, 24600, Note_on_c, 0, 75, 86
2, 24720, Note_on_c, 0, 75, 0
2, 24720, Note_on_c, 0, 73, 86
2, 24840, Note_on_c, 0, 73, 0
2, 24840, Note_on_c, 0, 75, 86
2, 24960, Note_on_c, 0, 75, 0
2, 24960, Note_on_c, 0, 76, 86
2, 25080, Note_on_c, 0, 76, 0
2, 25080, Note_on_c, 0, 78, 86
2, 25200, Note_on_c, 0, 78, 0
2, 25200, Note_on_c, 0, 76, 86
2, 25320, Note_on_c, 0, 76, 0
2, 25320, Note_on_c, 0, 75, 86
2, 25440, Note_on_c, 0, 75, 0
2, 25440, Note_on_c, 0, 73, 86
2, 25560, Note_on_c, 0, 73, 0
2, 25560, Note_on_c, 0, 75, 86
2, 25680, Note_on_c, 0, 75, 0
2, 25680, Note_on_c, 0, 66, 0
2, 25680, Note_on_c, 0, 76, 86
2, 25800, Note_on_c, 0, 76, 0
2, 25800, Note_on_c, 0, 80, 86
2, 25860, Note_on_c, 0, 80, 0
2, 25890, Note_on_c, 0, 80, 86
2, 25920, Note_on_c, 0, 80, 0
2, 25920, Note_on_c, 0, 73, 86
2, 25920, Note_on_c, 0, 85, 86
2, 26400, Note_on_c, 0, 85, 0
2, 26400, Note_on_c, 0, 78, 86
2, 26640, Note_on_c, 0, 78, 0
2, 26640, Note_on_c, 0, 73, 0
2, 26640, Note_on_c, 0, 71, 86
2, 26640, Note_on_c, 0, 81, 86
2, 26760, Note_on_c, 0, 81, 0
2, 26760, Note_on_c, 0, 80, 86
2, 26880, Note_on_c, 0, 80, 0
2, 26880, Note_on_c, 0, 78, 86
2, 27000, Note_on_c, 0, 78, 0
2, 27000, Note_on_c, 0, 80, 86
2, 27120, Note_on_c, 0, 80, 0
2, 27120, Note_on_c, 0, 81, 86
2, 27240, Note_on_c, 0, 81, 0
2, 27240, Note_on_c, 0, 83, 86
2, 27360, Note_on_c, 0, 83, 0
2, 27360, Note_on_c, 0, 71, 0
2, 27360, Note_on_c, 0, 71, 86
2, 27360, Note_on_c, 0, 81, 86
2, 27480, Note_on_c, 0, 81, 0
2, 27480, Note_on_c, 0, 80, 86
2, 27600, Note_on_c, 0, 80, 0
2, 27600, Note_on_c, 0, 78, 86
2, 27720, Note_on_c, 0, 78, 0
2, 27720, Note_on_c, 0, 80, 86
2, 27840, Note_on_c, 0, 80, 0
2, 27840, Note_on_c, 0, 81, 86
2, 27960, Note_on_c, 0, 81, 0
2, 27960, Note_on_c, 0, 83, 86
2, 28080, Note_on_c, 0, 83, 0
2, 28080, Note_on_c, 0, 81, 86
2, 28200, Note_on_c, 0, 81, 0
2, 28200, Note_on_c, 0, 80, 86
2, 28320, Note_on_c, 0, 80, 0
2, 28320, Note_on_c, 0, 78, 86
2, 28440, Note_on_c, 0, 78, 0
2, 28440, Note_on_c, 0, 80, 86
2, 28560, Note_on_c, 0, 80, 0
2, 28560, Note_on_c, 0, 71, 0
2, 28560, Note_on_c, 0, 81, 86
2, 28680, Note_on_c, 0, 81, 0
2, 28680, Note_on_c, 0, 85, 86
2, 28740, Note_on_c, 0, 85, 0
2, 28770, Note_on_c, 0, 85, 86
2, 28800, Note_on_c, 0, 85, 0
2, 28800, Note_on_c, 0, 78, 86
2, 28800, Note_on_c, 0, 90, 86
2, 29280, Note_on_c, 0, 90, 0
2, 29280, Note_on_c, 0, 78, 0
2, 29280, Note_on_c, 0, 71, 86
2, 29280, Note_on_c, 0, 81, 86
2, 29280, Note_on_c, 0, 83, 86
2, 29520, Note_on_c, 0, 83, 0
2, 29520, Note_on_c, 0, 81, 0
2, 29520, Note_on_c, 0, 71, 0
2, 29520, Note_on_c, 0, 92, 86
2, 29520, Note_on_c, 0, 83, 86
2, 29520, Note_on_c, 0, 80, 86
2, 29712, Note_on_c, 0, 80, 0
2, 29712, Note_on_c, 0, 83, 0
2, 29712, Note_on_c, 0, 92, 0
2, 29760, Note_on_c, 0, 83, 86
2, 29760, Note_on_c, 0, 71, 86
2, 29952, Note_on_c, 0, 71, 0
2, 29952, Note_on_c, 0, 83, 0
2, 30000, Note_on_c, 0, 80, 86
2, 30000, Note_on_c, 0, 92, 86
2, 30192, Note_on_c, 0, 92, 0
2, 30192, Note_on_c, 0, 80, 0
2, 30240, Note_on_c, 0, 90, 86
2, 30240, Note_on_c, 0, 85, 86
2, 30240, Note_on_c, 0, 78, 86
2, 30432, Note_on_c, 0, 78, 0
2, 30432, Note_on_c, 0, 85, 0
2, 30432, Note_on_c, 0, 90, 0
2, 30480, Note_on_c, 0, 85, 86
2, 30480, Note_on_c, 0, 73, 86
2, 30672, Note_on_c, 0, 73, 0
2, 30672, Note_on_c, 0, 85, 0
2, 30720, Note_on_c, 0, 78, 86
2, 30720, Note_on_c, 0, 90, 86
2, 30912, Note_on_c, 0, 90, 0
2, 30912, Note_on_c, 0, 78, 0
2, 30960, Note_on_c, 0, 88, 86
2, 30960, Note_on_c, 0, 81, 86
2, 30960, Note_on_c, 0, 76, 86
2, 31056, Note_on_c, 0, 76, 0
2, 31056, Note_on_c, 0, 81, 0
2, 31056, Note_on_c, 0, 88, 0
2, 31080, Note_on_c, 0, 87, 86
2, 31080, Note_on_c, 0, 75, 86
2, 31176, Note_on_c, 0, 75, 0
2, 31176, Note_on_c, 0, 87, 0
2, 31200, Note_on_c, 0, 85, 86
2, 31200, Note_on_c, 0, 73, 86
2, 31296, Note_on_c, 0, 73, 0
2, 31296, Note_on_c, 0, 85, 0
2, 31320, Note_on_c, 0, 83, 86
2, 31320, Note_on_c, 0, 71, 86
2, 31416, Note_on_c, 0, 71, 0
2, 31416, Note_on_c, 0, 83, 0
2, 31440, Note_on_c, 0, 85, 86
2, 31440, Note_on_c, 0, 73, 86
2, 31536, Note_on_c, 0, 73, 0
2, 31536, Note_on_c, 0, 85, 0
2, 31560, Note_on_c, 0, 75, 86
2, 31560, Note_on_c, 0, 87, 86
2, 31656, Note_on_c, 0, 87, 0
2, 31656, Note_on_c, 0, 75, 0
2, 31680, Note_on_c, 0, 90, 86
2, 31680, Note_on_c, 0, 78, 86
2, 31872, Note_on_c, 0, 78, 0
2, 31872, Note_on_c, 0, 90, 0
2, 31920, Note_on_c, 0, 88, 86
2, 31920, Note_on_c, 0, 80, 86
2, 31920, Note_on_c, 0, 76, 86
2, 32112, Note_on_c, 0, 76, 0
2, 32112, Note_on_c, 0, 80, 0
2, 32112, Note_on_c, 0, 88, 0
2, 32160, Note_on_c, 0, 75, 86
2, 32160, Note_on_c, 0, 80, 86
2, 32160, Note_on_c, 0, 84, 86
2, 32160, Note_on_c, 0, 87, 86
2, 32352, Note_on_c, 0, 87, 0
2, 32352, Note_on_c, 0, 75, 0
2, 32352, Note_on_c, 0, 80, 0
2, 32352, Note_on_c, 0, 84, 0
2, 32400, Note_on_c, 0, 85, 86
2, 32400, Note_on_c, 0, 73, 86
2, 32592, Note_on_c, 0, 73, 0
2, 32592, Note_on_c, 0, 85, 0
2, 32640, Note_on_c, 0, 80, 86
2, 32640, Note_on_c, 0, 76, 86
2, 32832, Note_on_c, 0, 76, 0
2, 32832, Note_on_c, 0, 80, 0
2, 32880, Note_on_c, 0, 73, 86
2, 32880, Note_on_c, 0, 85, 86
2, 33072, Note_on_c, 0, 85, 0
2, 33072, Note_on_c, 0, 73, 0
2, 33120, Note_on_c, 0, 83, 86
2, 33120, Note_on_c, 0, 71, 86
2, 33312, Note_on_c, 0, 71, 0
2, 33312, Note_on_c, 0, 83, 0
2, 33360, Note_on_c, 0, 78, 86
2, 33360, Note_on_c, 0, 75, 86
2, 33552, Note_on_c, 0, 75, 0
2, 33552, Note_on_c, 0, 78, 0
2, 33600, Note_on_c, 0, 71, 86
2, 33600, Note_on_c, 0, 83, 86
2, 33792, Note_on_c, 0, 83, 0
2, 33792, Note_on_c, 0, 71, 0
2, 33840, Note_on_c, 0, 70, 86
2, 33840, Note_on_c, 0, 82, 86
2, 33960, Note_on_c, 0, 82, 0
2, 33960, Note_on_c, 0, 70, 0
2, 33960, Note_on_c, 0, 68, 86
2, 33960, Note_on_c, 0, 80, 86
2, 34080, Note_on_c, 0, 80, 0
2, 34080, Note_on_c, 0, 68, 0
2, 34080, Note_on_c, 0, 68, 86
2, 34080, Note_on_c, 0, 80, 86
2, 34200, Note_on_c, 0, 80, 0
2, 34200, Note_on_c, 0, 68, 0
2, 34200, Note_on_c, 0, 66, 86
2, 34200, Note_on_c, 0, 78, 86
2, 34320, Note_on_c, 0, 78, 0
2, 34320, Note_on_c, 0, 66, 0
2, 34320, Note_on_c, 0, 64, 86
2, 34320, Note_on_c, 0, 76, 86
2, 34440, Note_on_c, 0, 76, 0
2, 34440, Note_on_c, 0, 64, 0
2, 34440, Note_on_c, 0, 61, 86
2, 34440, Note_on_c, 0, 73, 86
2, 34560, Note_on_c, 0, 73, 0
2, 34560, Note_on_c, 0, 61, 0
2, 34560, Note_on_c, 0, 59, 86
2, 34560, Note_on_c, 0, 63, 86
2, 34560, Note_on_c, 0, 66, 86
2, 34560, Note_on_c, 0, 71, 86
2, 35040, Note_on_c, 0, 71, 0
2, 35040, Note_on_c, 0, 59, 0
2, 35040, Note_on_c, 0, 63, 0
2, 35040, Note_on_c, 0, 66, 0
2, 35040, End_track
3, 0, Start_track
3, 0, Title_t, "Waltz No-01"
3, 0, Program_c, 0, 0
3, 0, Control_c, 0, 7, 115
3, 0, Control_c, 0, 10, 48
3, 720, Note_on_c, 0, 35, 86
3, 720, Note_on_c, 0, 23, 86
3, 725, Control_c, 0, 64, 127
3, 912, Note_on_c, 0, 23, 0
3, 912, Note_on_c, 0, 35, 0
3, 937, Control_c, 0, 64, 0
3, 960, Note_on_c, 0, 63, 86
3, 960, Note_on_c, 0, 59, 86
3, 960, Note_on_c, 0, 54, 86
3, 1152, Note_on_c, 0, 54, 0
3, 1152, Note_on_c, 0, 59, 0
3, 1152, Note_on_c, 0, 63, 0
3, 1200, Note_on_c, 0, 35, 86
3, 1200, Note_on_c, 0, 47, 86
3, 1392, Note_on_c, 0, 47, 0
3, 1392, Note_on_c, 0, 35, 0
3, 1440, Note_on_c, 0, 47, 86
3, 1440, Note_on_c, 0, 35, 86
3, 1445, Control_c, 0, 64, 127
3, 1632, Note_on_c, 0, 35, 0
3, 1632, Note_on_c, 0, 47, 0
3, 1657, Control_c, 0, 64, 0
3, 1680, Note_on_c, 0, 64, 86
3, 1680, Note_on_c, 0, 61, 86
3, 1680, Note_on_c, 0, 56, 86
3, 1680, Note_on_c, 0, 52, 86
3, 1872, Note_on_c, 0, 52, 0
3, 1872, Note_on_c, 0, 64, 0
3, 1872, Note_on_c, 0, 61, 0
3, 1872, Note_on_c, 0, 56, 0
3, 1920, Note_on_c, 0, 35, 86
3, 1920, Note_on_c, 0, 47, 86
3, 2112, Note_on_c, 0, 47, 0
3, 2112, Note_on_c, 0, 35, 0
3, 2160, Note_on_c, 0, 47, 86
3, 2160, Note_on_c, 0, 35, 86
3, 2165, Control_c, 0, 64, 127
3, 2352, Note_on_c, 0, 35, 0
3, 2352, Note_on_c, 0, 47, 0
3, 2400, Note_on_c, 0, 64, 86
3, 2400, Note_on_c, 0, 61, 86
3, 2400, Note_on_c, 0, 54, 86
3, 2592, Note_on_c, 0, 54, 0
3, 2592, Note_on_c, 0, 61, 0
3, 2592, Note_on_c, 0, 64, 0
3, 2640, Note_on_c, 0, 35, 86
3, 2640, Note_on_c, 0, 47, 86
3, 2640, Control_c, 0, 64, 0
3, 2832, Note_on_c, 0, 47, 0
3, 2832, Note_on_c, 0, 35, 0
3, 2880, Note_on_c, 0, 59, 86
3, 2880, Note_on_c, 0, 47, 86
3, 3072, Note_on_c, 0, 47, 0
3, 3072, Note_on_c, 0, 59, 0
3, 3120, Note_on_c, 0, 63, 86
3, 3120, Note_on_c, 0, 59, 86
3, 3120, Note_on_c, 0, 54, 86
3, 3312, Note_on_c, 0, 54, 0
3, 3312, Note_on_c, 0, 59, 0
3, 3312, Note_on_c, 0, 63, 0
3, 3360, Note_on_c, 0, 39, 86
3, 3360, Note_on_c, 0, 51, 86
3, 3552, Note_on_c, 0, 51, 0
3, 3552, Note_on_c, 0, 39, 0
3, 3600, Note_on_c, 0, 44, 86
3, 3600, Note_on_c, 0, 32, 86
3, 3626, Control_c, 0, 64, 127
3, 3792, Note_on_c, 0, 32, 0
3, 3792, Note_on_c, 0, 44, 0
3, 3817, Control_c, 0, 64, 0
3, 3840, Note_on_c, 0, 59, 86
3, 3840, Note_on_c, 0, 56, 86
3, 3840, Note_on_c, 0, 51, 86
3, 4032, Note_on_c, 0, 51, 0
3, 4032, Note_on_c, 0, 56, 0
3, 4032, Note_on_c, 0, 59, 0
3, 4080, Note_on_c, 0, 32, 86
3, 4080, Note_on_c, 0, 44, 86
3, 4272, Note_on_c, 0, 44, 0
3, 4272, Note_on_c, 0, 32, 0
3, 4320, Note_on_c, 0, 46, 86
3, 4320, Note_on_c, 0, 34, 86
3, 4325, Control_c, 0, 64, 127
3, 4512, Note_on_c, 0, 34, 0
3, 4512, Note_on_c, 0, 46, 0
3, 4537, Control_c, 0, 64, 0
3, 4560, Note_on_c, 0, 58, 86
3, 4560, Note_on_c, 0, 54, 86
3, 4560, Note_on_c, 0, 51, 86
3, 4752, Note_on_c, 0, 51, 0
3, 4752, Note_on_c, 0, 54, 0
3, 4752, Note_on_c, 0, 58, 0
3, 4800, Note_on_c, 0, 34, 86
3, 4800, Note_on_c, 0, 46, 86
3, 4992, Note_on_c, 0, 46, 0
3, 4992, Note_on_c, 0, 34, 0
3, 5040, Note_on_c, 0, 44, 86
3, 5040, Note_on_c, 0, 32, 86
3, 5045, Control_c, 0, 64, 127
3, 5232, Note_on_c, 0, 32, 0
3, 5232, Note_on_c, 0, 44, 0
3, 5257, Control_c, 0, 64, 0
3, 5280, Note_on_c, 0, 58, 86
3, 5280, Note_on_c, 0, 53, 86
3, 5280, Note_on_c, 0, 50, 86
3, 5472, Note_on_c, 0, 50, 0
3, 5472, Note_on_c, 0, 53, 0
3, 5472, Note_on_c, 0, 58, 0
3, 5520, Note_on_c, 0, 32, 86
3, 5520, Note_on_c, 0, 44, 86
3, 5712, Note_on_c, 0, 44, 0
3, 5712, Note_on_c, 0, 32, 0
3, 5760, Note_on_c, 0, 42, 86
3, 5760, Note_on_c, 0, 30, 86
3, 5766, Control_c, 0, 64, 127
3, 5952, Note_on_c, 0, 30, 0
3, 5952, Note_on_c, 0, 42, 0
3, 5977, Control_c, 0, 64, 0
3, 6000, Note_on_c, 0, 58, 86
3, 6000, Note_on_c, 0, 54, 86
3, 6000, Note_on_c, 0, 51, 86
3, 6192, Note_on_c, 0, 51, 0
3, 6192, Note_on_c, 0, 54, 0
3, 6192, Note_on_c, 0, 58, 0
3, 6240, Note_on_c, 0, 27, 86
3, 6240, Note_on_c, 0, 39, 86
3, 6432, Note_on_c, 0, 39, 0
3, 6432, Note_on_c, 0, 27, 0
3, 6480, Note_on_c, 0, 35, 86
3, 6480, Note_on_c, 0, 23, 86
3, 6486, Control_c, 0, 64, 127
3, 6672, Note_on_c, 0, 23, 0
3, 6672, Note_on_c, 0, 35, 0
3, 6718, Control_c, 0, 64, 0
3, 6720, Note_on_c, 0, 63, 86
3, 6720, Note_on_c, 0, 59, 86
3, 6720, Note_on_c, 0, 54, 86
3, 6912, Note_on_c, 0, 54, 0
3, 6912, Note_on_c, 0, 59, 0
3, 6912, Note_on_c, 0, 63, 0
3, 6960, Note_on_c, 0, 35, 86
3, 6960, Note_on_c, 0, 47, 86
3, 7152, Note_on_c, 0, 47, 0
3, 7152, Note_on_c, 0, 35, 0
3, 7200, Note_on_c, 0, 47, 86
3, 7200, Note_on_c, 0, 35, 86
3, 7205, Control_c, 0, 64, 127
3, 7392, Note_on_c, 0, 35, 0
3, 7392, Note_on_c, 0, 47, 0
3, 7418, Control_c, 0, 64, 0
3, 7440, Note_on_c, 0, 64, 86
3, 7440, Note_on_c, 0, 61, 86
3, 7440, Note_on_c, 0, 56, 86
3, 7440, Note_on_c, 0, 52, 86
3, 7632, Note_on_c, 0, 52, 0
3, 7632, Note_on_c, 0, 64, 0
3, 7632, Note_on_c, 0, 61, 0
3, 7632, Note_on_c, 0, 56, 0
3, 7680, Note_on_c, 0, 35, 86
3, 7680, Note_on_c, 0, 47, 86
3, 7872, Note_on_c, 0, 47, 0
3, 7872, Note_on_c, 0, 35, 0
3, 7920, Note_on_c, 0, 47, 86
3, 7920, Note_on_c, 0, 35, 86
3, 7920, Control_c, 0, 64, 64
3, 8112, Note_on_c, 0, 35, 0
3, 8112, Note_on_c, 0, 47, 0
3, 8160, Note_on_c, 0, 64, 86
3, 8160, Note_on_c, 0, 61, 86
3, 8160, Note_on_c, 0, 54, 86
3, 8352, Note_on_c, 0, 54, 0
3, 8352, Note_on_c, 0, 61, 0
3, 8352, Note_on_c, 0, 64, 0
3, 8370, Control_c, 0, 64, 0
3, 8400, Note_on_c, 0, 35, 86
3, 8400, Note_on_c, 0, 47, 86
3, 8592, Note_on_c, 0, 47, 0
3, 8592, Note_on_c, 0, 35, 0
3, 8640, Note_on_c, 0, 59, 86
3, 8640, Note_on_c, 0, 47, 86
3, 8832, Note_on_c, 0, 47, 0
3, 8832, Note_on_c, 0, 59, 0
3, 8880, Note_on_c, 0, 63, 86
3, 8880, Note_on_c, 0, 59, 86
3, 8880, Note_on_c, 0, 54, 86
3, 9072, Note_on_c, 0, 54, 0
3, 9072, Note_on_c, 0, 59, 0
3, 9072, Note_on_c, 0, 63, 0
3, 9120, Note_on_c, 0, 39, 86
3, 9120, Note_on_c, 0, 51, 86
3, 9312, Note_on_c, 0, 51, 0
3, 9312, Note_on_c, 0, 39, 0
3, 9360, Note_on_c, 0, 44, 86
3, 9360, Note_on_c, 0, 32, 86
3, 9366, Control_c, 0, 64, 127
3, 9552, Note_on_c, 0, 32, 0
3, 9552, Note_on_c, 0, 44, 0
3, 9598, Control_c, 0, 64, 0
3, 9600, Note_on_c, 0, 59, 86
3, 9600, Note_on_c, 0, 56, 86
3, 9600, Note_on_c, 0, 51, 86
3, 9792, Note_on_c, 0, 51, 0
3, 9792, Note_on_c, 0, 56, 0
3, 9792, Note_on_c, 0, 59, 0
3, 9840, Note_on_c, 0, 32, 86
3, 9840, Note_on_c, 0, 44, 86
3, 10032, Note_on_c, 0, 44, 0
3, 10032, Note_on_c, 0, 32, 0
3, 10080, Note_on_c, 0, 46, 86
3, 10080, Note_on_c, 0, 34, 86
3, 10086, Control_c, 0, 64, 127
3, 10272, Note_on_c, 0, 34, 0
3, 10272, Note_on_c, 0, 46, 0
3, 10297, Control_c, 0, 64, 0
3, 10320, Note_on_c, 0, 58, 86
3, 10320, Note_on_c, 0, 54, 86
3, 10320, Note_on_c, 0, 51, 86
3, 10512, Note_on_c, 0, 51, 0
3, 10512, Note_on_c, 0, 54, 0
3, 10512, Note_on_c, 0, 58, 0
3, 10560, Note_on_c, 0, 34, 86
3, 10560, Note_on_c, 0, 46, 86
3, 10752, Note_on_c, 0, 46, 0
3, 10752, Note_on_c, 0, 34, 0
3, 10800, Note_on_c, 0, 44, 86
3, 10800, Note_on_c, 0, 32, 86
3, 10806, Control_c, 0, 64, 127
3, 10992, Note_on_c, 0, 32, 0
3, 10992, Note_on_c, 0, 44, 0
3, 11018, Control_c, 0, 64, 0
3, 11040, Note_on_c, 0, 58, 86
3, 11040, Note_on_c, 0, 53, 86
3, 11040, Note_on_c, 0, 50, 86
3, 11232, Note_on_c, 0, 50, 0
3, 11232, Note_on_c, 0, 53, 0
3, 11232, Note_on_c, 0, 58, 0
3, 11280, Note_on_c, 0, 32, 86
3, 11280, Note_on_c, 0, 44, 86
3, 11472, Note_on_c, 0, 44, 0
3, 11472, Note_on_c, 0, 32, 0
3, 11520, Note_on_c, 0, 42, 86
3, 11520, Note_on_c, 0, 30, 86
3, 11547, Control_c, 0, 64, 127
3, 11712, Note_on_c, 0, 30, 0
3, 11712, Note_on_c, 0, 42, 0
3, 11759, Control_c, 0, 64, 0
3, 11760, Note_on_c, 0, 58, 86
3, 11760, Note_on_c, 0, 54, 86
3, 11760, Note_on_c, 0, 51, 86
3, 11952, Note_on_c, 0, 51, 0
3, 11952, Note_on_c, 0, 54, 0
3, 11952, Note_on_c, 0, 58, 0
3, 12000, Note_on_c, 0, 27, 86
3, 12000, Note_on_c, 0, 39, 86
3, 12192, Note_on_c, 0, 39, 0
3, 12192, Note_on_c, 0, 27, 0
3, 12240, Note_on_c, 0, 42, 86
3, 12268, Control_c, 0, 64, 127
3, 12432, Note_on_c, 0, 42, 0
3, 12458, Control_c, 0, 64, 0
3, 12480, Note_on_c, 0, 58, 86
3, 12480, Note_on_c, 0, 54, 86
3, 12672, Note_on_c, 0, 54, 0
3, 12672, Note_on_c, 0, 58, 0
3, 12720, Note_on_c, 0, 44, 86
3, 12912, Note_on_c, 0, 44, 0
3, 12960, Note_on_c, 0, 59, 86
3, 12960, Note_on_c, 0, 54, 86
3, 12966, Control_c, 0, 64, 127
3, 13152, Note_on_c, 0, 54, 0
3, 13152, Note_on_c, 0, 59, 0
3, 13177, Control_c, 0, 64, 0
3, 13200, Note_on_c, 0, 46, 86
3, 13392, Note_on_c, 0, 46, 0
3, 13440, Note_on_c, 0, 54, 86
3, 13440, Note_on_c, 0, 61, 86
3, 13632, Note_on_c, 0, 61, 0
3, 13632, Note_on_c, 0, 54, 0
3, 13680, Note_on_c, 0, 47, 86
3, 13872, Note_on_c, 0, 47, 0
3, 13920, Note_on_c, 0, 64, 86
3, 13920, Note_on_c, 0, 56, 86
3, 13940, Control_c, 0, 64, 127
3, 14112, Note_on_c, 0, 56, 0
3, 14112, Note_on_c, 0, 64, 0
3, 14160, Note_on_c, 0, 46, 86
3, 14352, Note_on_c, 0, 46, 0
3, 14400, Note_on_c, 0, 64, 86
3, 14400, Note_on_c, 0, 54, 86
3, 14592, Note_on_c, 0, 54, 0
3, 14592, Note_on_c, 0, 64, 0
3, 14640, Note_on_c, 0, 42, 86
3, 14832, Note_on_c, 0, 42, 0
3, 14851, Control_c, 0, 64, 0
3, 14880, Note_on_c, 0, 54, 86
3, 14880, Note_on_c, 0, 58, 86
3, 14880, Note_on_c, 0, 61, 86
3, 15072, Note_on_c, 0, 61, 0
3, 15072, Note_on_c, 0, 58, 0
3, 15072, Note_on_c, 0, 54, 0
3, 15120, Note_on_c, 0, 47, 86
3, 15147, Control_c, 0, 64, 127
3, 15312, Note_on_c, 0, 47, 0
3, 15359, Control_c, 0, 64, 0
3, 15360, Note_on_c, 0, 63, 86
3, 15360, Note_on_c, 0, 59, 86
3, 15552, Note_on_c, 0, 59, 0
3, 15552, Note_on_c, 0, 63, 0
3, 15600, Note_on_c, 0, 49, 86
3, 15792, Note_on_c, 0, 49, 0
3, 15840, Note_on_c, 0, 64, 86
3, 15840, Note_on_c, 0, 59, 86
3, 15846, Control_c, 0, 64, 127
3, 16032, Note_on_c, 0, 59, 0
3, 16032, Note_on_c, 0, 64, 0
3, 16058, Control_c, 0, 64, 0
3, 16080, Note_on_c, 0, 51, 86
3, 16272, Note_on_c, 0, 51, 0
3, 16320, Note_on_c, 0, 59, 86
3, 16320, Note_on_c, 0, 66, 86
3, 16512, Note_on_c, 0, 66, 0
3, 16512, Note_on_c, 0, 59, 0
3, 16560, Note_on_c, 0, 52, 86
3, 16752, Note_on_c, 0, 52, 0
3, 16800, Note_on_c, 0, 69, 86
3, 16800, Note_on_c, 0, 61, 86
3, 16821, Control_c, 0, 64, 127
3, 16992, Note_on_c, 0, 61, 0
3, 16992, Note_on_c, 0, 69, 0
3, 17040, Note_on_c, 0, 51, 86
3, 17232, Note_on_c, 0, 51, 0
3, 17280, Note_on_c, 0, 69, 86
3, 17280, Note_on_c, 0, 66, 86
3, 17280, Note_on_c, 0, 59, 86
3, 17472, Note_on_c, 0, 59, 0
3, 17472, Note_on_c, 0, 66, 0
3, 17472, Note_on_c, 0, 69, 0
3, 17520, Note_on_c, 0, 47, 86
3, 17712, Note_on_c, 0, 47, 0
3, 17732, Control_c, 0, 64, 0
3, 17760, Note_on_c, 0, 59, 86
3, 17760, Note_on_c, 0, 63, 86
3, 17760, Note_on_c, 0, 66, 86
3, 17952, Note_on_c, 0, 66, 0
3, 17952, Note_on_c, 0, 63, 0
3, 17952, Note_on_c, 0, 59, 0
3, 18000, Note_on_c, 0, 52, 86
3, 18000, Note_on_c, 0, 40, 86
3, 18027, Control_c, 0, 64, 127
3, 18192, Note_on_c, 0, 40, 0
3, 18192, Note_on_c, 0, 52, 0
3, 18240, Note_on_c, 0, 64, 86
3, 18240, Note_on_c, 0, 59, 86
3, 18240, Note_on_c, 0, 56, 86
3, 18430, Control_c, 0, 64, 0
3, 18432, Note_on_c, 0, 56, 0
3, 18432, Note_on_c, 0, 59, 0
3, 18432, Note_on_c, 0, 64, 0
3, 18480, Note_on_c, 0, 40, 86
3, 18480, Note_on_c, 0, 52, 86
3, 18672, Note_on_c, 0, 52, 0
3, 18672, Note_on_c, 0, 40, 0
3, 18720, Note_on_c, 0, 57, 86
3, 18720, Note_on_c, 0, 45, 86
3, 18726, Control_c, 0, 64, 127
3, 18912, Note_on_c, 0, 45, 0
3, 18912, Note_on_c, 0, 57, 0
3, 18960, Note_on_c, 0, 66, 86
3, 18960, Note_on_c, 0, 61, 86
3, 18960, Note_on_c, 0, 57, 86
3, 19152, Note_on_c, 0, 57, 0
3, 19152, Note_on_c, 0, 61, 0
3, 19152, Note_on_c, 0, 66, 0
3, 19171, Control_c, 0, 64, 0
3, 19200, Note_on_c, 0, 45, 86
3, 19200, Note_on_c, 0, 57, 86
3, 19392, Note_on_c, 0, 57, 0
3, 19392, Note_on_c, 0, 45, 0
3, 19440, Note_on_c, 0, 59, 86
3, 19440, Note_on_c, 0, 47, 86
3, 19446, Control_c, 0, 64, 127
3, 19632, Note_on_c, 0, 47, 0
3, 19632, Note_on_c, 0, 59, 0
3, 19680, Note_on_c, 0, 66, 86
3, 19680, Note_on_c, 0, 63, 86
3, 19680, Note_on_c, 0, 57, 86
3, 19872, Note_on_c, 0, 57, 0
3, 19872, Note_on_c, 0, 63, 0
3, 19872, Note_on_c, 0, 66, 0
3, 19912, Control_c, 0, 64, 0
3, 19920, Note_on_c, 0, 47, 86
3, 19920, Note_on_c, 0, 59, 86
3, 20112, Note_on_c, 0, 59, 0
3, 20112, Note_on_c, 0, 47, 0
3, 20160, Note_on_c, 0, 52, 86
3, 20160, Note_on_c, 0, 40, 86
3, 20352, Note_on_c, 0, 40, 0
3, 20352, Note_on_c, 0, 52, 0
3, 20400, Note_on_c, 0, 64, 86
3, 20400, Note_on_c, 0, 59, 86
3, 20400, Note_on_c, 0, 56, 86
3, 20592, Note_on_c, 0, 56, 0
3, 20592, Note_on_c, 0, 59, 0
3, 20592, Note_on_c, 0, 64, 0
3, 20640, Note_on_c, 0, 44, 86
3, 20640, Note_on_c, 0, 56, 86
3, 20832, Note_on_c, 0, 56, 0
3, 20832, Note_on_c, 0, 44, 0
3, 20880, Note_on_c, 0, 49, 86
3, 20880, Note_on_c, 0, 37, 86
3, 20908, Control_c, 0, 64, 127
3, 21072, Note_on_c, 0, 37, 0
3, 21072, Note_on_c, 0, 49, 0
3, 21119, Control_c, 0, 64, 0
3, 21120, Note_on_c, 0, 61, 86
3, 21120, Note_on_c, 0, 56, 86
3, 21120, Note_on_c, 0, 52, 86
3, 21312, Note_on_c, 0, 52, 0
3, 21312, Note_on_c, 0, 56, 0
3, 21312, Note_on_c, 0, 61, 0
3, 21360, Note_on_c, 0, 37, 86
3, 21360, Note_on_c, 0, 49, 86
3, 21552, Note_on_c, 0, 49, 0
3, 21552, Note_on_c, 0, 37, 0
3, 21600, Note_on_c, 0, 51, 86
3, 21600, Note_on_c, 0, 39, 86
3, 21607, Control_c, 0, 64, 127
3, 21792, Note_on_c, 0, 39, 0
3, 21792, Note_on_c, 0, 51, 0
3, 21818, Control_c, 0, 64, 0
3, 21840, Note_on_c, 0, 59, 86
3, 21840, Note_on_c, 0, 54, 86
3, 21840, Note_on_c, 0, 51, 86
3, 22032, Note_on_c, 0, 51, 0
3, 22032, Note_on_c, 0, 54, 0
3, 22032, Note_on_c, 0, 59, 0
3, 22080, Note_on_c, 0, 39, 86
3, 22080, Note_on_c, 0, 51, 86
3, 22272, Note_on_c, 0, 51, 0
3, 22272, Note_on_c, 0, 39, 0
3, 22320, Note_on_c, 0, 54, 86
3, 22320, Note_on_c, 0, 42, 86
3, 22512, Note_on_c, 0, 42, 0
3, 22512, Note_on_c, 0, 54, 0
3, 22559, Control_c, 0, 64, 127
3, 22560, Note_on_c, 0, 64, 86
3, 22560, Note_on_c, 0, 61, 86
3, 22560, Note_on_c, 0, 58, 86
3, 22560, Note_on_c, 0, 54, 86
3, 22752, Note_on_c, 0, 54, 0
3, 22752, Note_on_c, 0, 64, 0
3, 22752, Note_on_c, 0, 61, 0
3, 22752, Note_on_c, 0, 58, 0
3, 22800, Note_on_c, 0, 42, 86
3, 22800, Note_on_c, 0, 54, 86
3, 22992, Note_on_c, 0, 54, 0
3, 22992, Note_on_c, 0, 42, 0
3, 23004, Control_c, 0, 64, 0
3, 23040, Note_on_c, 0, 47, 86
3, 23040, Note_on_c, 0, 35, 86
3, 23152, Control_c, 0, 64, 127
3, 23232, Note_on_c, 0, 35, 0
3, 23232, Note_on_c, 0, 47, 0
3, 23280, Note_on_c, 0, 54, 86
3, 23280, Note_on_c, 0, 51, 86
3, 23472, Note_on_c, 0, 51, 0
3, 23472, Note_on_c, 0, 54, 0
3, 23508, Control_c, 0, 64, 0
3, 23760, Note_on_c, 0, 42, 86
3, 23810, Control_c, 0, 64, 127
3, 23952, Note_on_c, 0, 42, 0
3, 24000, Note_on_c, 0, 58, 86
3, 24000, Note_on_c, 0, 54, 86
3, 24000, Control_c, 0, 64, 0
3, 24192, Note_on_c, 0, 54, 0
3, 24192, Note_on_c, 0, 58, 0
3, 24240, Note_on_c, 0, 44, 86
3, 24432, Note_on_c, 0, 44, 0
3, 24466, Control_c, 0, 64, 127
3, 24480, Note_on_c, 0, 59, 86
3, 24480, Note_on_c, 0, 54, 86
3, 24672, Note_on_c, 0, 54, 0
3, 24672, Note_on_c, 0, 59, 0
3, 24720, Note_on_c, 0, 46, 86
3, 24720, Control_c, 0, 64, 0
3, 24912, Note_on_c, 0, 46, 0
3, 24960, Note_on_c, 0, 54, 86
3, 24960, Note_on_c, 0, 61, 86
3, 25152, Note_on_c, 0, 61, 0
3, 25152, Note_on_c, 0, 54, 0
3, 25200, Note_on_c, 0, 47, 86
3, 25392, Note_on_c, 0, 47, 0
3, 25440, Note_on_c, 0, 64, 86
3, 25440, Note_on_c, 0, 56, 86
3, 25461, Control_c, 0, 64, 127
3, 25632, Note_on_c, 0, 56, 0
3, 25632, Note_on_c, 0, 64, 0
3, 25680, Note_on_c, 0, 46, 86
3, 25872, Note_on_c, 0, 46, 0
3, 25920, Note_on_c, 0, 64, 86
3, 25920, Note_on_c, 0, 54, 86
3, 26112, Note_on_c, 0, 54, 0
3, 26112, Note_on_c, 0, 64, 0
3, 26160, Note_on_c, 0, 42, 86
3, 26352, Note_on_c, 0, 42, 0
3, 26372, Control_c, 0, 64, 0
3, 26400, Note_on_c, 0, 54, 86
3, 26400, Note_on_c, 0, 58, 86
3, 26400, Note_on_c, 0, 61, 86
3, 26592, Note_on_c, 0, 61, 0
3, 26592, Note_on_c, 0, 58, 0
3, 26592, Note_on_c, 0, 54, 0
3, 26640, Note_on_c, 0, 47, 86
3, 26668, Control_c, 0, 64, 127
3, 26832, Note_on_c, 0, 47, 0
3, 26880, Note_on_c, 0, 63, 86
3, 26880, Note_on_c, 0, 59, 86
3, 26880, Control_c, 0, 64, 0
3, 27072, Note_on_c, 0, 59, 0
3, 27072, Note_on_c, 0, 63, 0
3, 27120, Note_on_c, 0, 49, 86
3, 27312, Note_on_c, 0, 49, 0
3, 27360, Note_on_c, 0, 64, 86
3, 27360, Note_on_c, 0, 59, 86
3, 27368, Control_c, 0, 64, 127
3, 27552, Note_on_c, 0, 59, 0
3, 27552, Note_on_c, 0, 64, 0
3, 27600, Note_on_c, 0, 51, 86
3, 27600, Control_c, 0, 64, 0
3, 27792, Note_on_c, 0, 51, 0
3, 27840, Note_on_c, 0, 59, 86
3, 27840, Note_on_c, 0, 66, 86
3, 28032, Note_on_c, 0, 66, 0
3, 28032, Note_on_c, 0, 59, 0
3, 28080, Note_on_c, 0, 52, 86
3, 28272, Note_on_c, 0, 52, 0
3, 28320, Note_on_c, 0, 69, 86
3, 28320, Note_on_c, 0, 61, 86
3, 28342, Control_c, 0, 64, 127
3, 28512, Note_on_c, 0, 61, 0
3, 28512, Note_on_c, 0, 69, 0
3, 28560, Note_on_c, 0, 51, 86
3, 28752, Note_on_c, 0, 51, 0
3, 28800, Note_on_c, 0, 69, 86
3, 28800, Note_on_c, 0, 66, 86
3, 28800, Note_on_c, 0, 59, 86
3, 28992, Note_on_c, 0, 59, 0
3, 28992, Note_on_c, 0, 66, 0
3, 28992, Note_on_c, 0, 69, 0
3, 29040, Note_on_c, 0, 47, 86
3, 29232, Note_on_c, 0, 47, 0
3, 29274, Control_c, 0, 64, 0
3, 29280, Note_on_c, 0, 59, 86
3, 29280, Note_on_c, 0, 63, 86
3, 29280, Note_on_c, 0, 66, 86
3, 29472, Note_on_c, 0, 66, 0
3, 29472, Note_on_c, 0, 63, 0
3, 29472, Note_on_c, 0, 59, 0
3, 29520, Note_on_c, 0, 52, 86
3, 29520, Note_on_c, 0, 40, 86
3, 29548, Control_c, 0, 64, 127
3, 29712, Note_on_c, 0, 40, 0
3, 29712, Note_on_c, 0, 52, 0
3, 29760, Note_on_c, 0, 64, 86
3, 29760, Note_on_c, 0, 59, 86
3, 29760, Note_on_c, 0, 56, 86
3, 29952, Note_on_c, 0, 56, 0
3, 29952, Note_on_c, 0, 59, 0
3, 29952, Note_on_c, 0, 64, 0
3, 29994, Control_c, 0, 64, 0
3, 30000, Note_on_c, 0, 40, 86
3, 30000, Note_on_c, 0, 52, 86
3, 30192, Note_on_c, 0, 52, 0
3, 30192, Note_on_c, 0, 40, 0
3, 30240, Note_on_c, 0, 57, 86
3, 30240, Note_on_c, 0, 45, 86
3, 30247, Control_c, 0, 64, 127
3, 30432, Note_on_c, 0, 45, 0
3, 30432, Note_on_c, 0, 57, 0
3, 30480, Note_on_c, 0, 66, 86
3, 30480, Note_on_c, 0, 61, 86
3, 30480, Note_on_c, 0, 57, 86
3, 30672, Note_on_c, 0, 57, 0
3, 30672, Note_on_c, 0, 61, 0
3, 30672, Note_on_c, 0, 66, 0
3, 30713, Control_c, 0, 64, 0
3, 30720, Note_on_c, 0, 45, 86
3, 30720, Note_on_c, 0, 57, 86
3, 30912, Note_on_c, 0, 57, 0
3, 30912, Note_on_c, 0, 45, 0
3, 30960, Note_on_c, 0, 59, 86
3, 30960, Note_on_c, 0, 47, 86
3, 30967, Control_c, 0, 64, 127
3, 31152, Note_on_c, 0, 47, 0
3, 31152, Note_on_c, 0, 59, 0
3, 31200, Note_on_c, 0, 66, 86
3, 31200, Note_on_c, 0, 63, 86
3, 31200, Note_on_c, 0, 57, 86
3, 31392, Note_on_c, 0, 57, 0
3, 31392, Note_on_c, 0, 63, 0
3, 31392, Note_on_c, 0, 66, 0
3, 31433, Control_c, 0, 64, 0
3, 31440, Note_on_c, 0, 47, 86
3, 31440, Note_on_c, 0, 59, 86
3, 31632, Note_on_c, 0, 59, 0
3, 31632, Note_on_c, 0, 47, 0
3, 31680, Note_on_c, 0, 52, 86
3, 31680, Note_on_c, 0, 40, 86
3, 31872, Note_on_c, 0, 40, 0
3, 31872, Note_on_c, 0, 52, 0
3, 31920, Note_on_c, 0, 64, 86
3, 31920, Note_on_c, 0, 59, 86
3, 31920, Note_on_c, 0, 56, 86
3, 32112, Note_on_c, 0, 56, 0
3, 32112, Note_on_c, 0, 59, 0
3, 32112, Note_on_c, 0, 64, 0
3, 32160, Note_on_c, 0, 44, 86
3, 32160, Note_on_c, 0, 56, 86
3, 32352, Note_on_c, 0, 56, 0
3, 32352, Note_on_c, 0, 44, 0
3, 32400, Note_on_c, 0, 49, 86
3, 32400, Note_on_c, 0, 37, 86
3, 32429, Control_c, 0, 64, 127
3, 32592, Note_on_c, 0, 37, 0
3, 32592, Note_on_c, 0, 49, 0
3, 32640, Note_on_c, 0, 61, 86
3, 32640, Note_on_c, 0, 56, 86
3, 32640, Note_on_c, 0, 52, 86
3, 32640, Control_c, 0, 64, 0
3, 32832, Note_on_c, 0, 52, 0
3, 32832, Note_on_c, 0, 56, 0
3, 32832, Note_on_c, 0, 61, 0
3, 32880, Note_on_c, 0, 37, 86
3, 32880, Note_on_c, 0, 49, 86
3, 33072, Note_on_c, 0, 49, 0
3, 33072, Note_on_c, 0, 37, 0
3, 33120, Note_on_c, 0, 51, 86
3, 33120, Note_on_c, 0, 39, 86
3, 33149, Control_c, 0, 64, 127
3, 33312, Note_on_c, 0, 39, 0
3, 33312, Note_on_c, 0, 51, 0
3, 33360, Note_on_c, 0, 59, 86
3, 33360, Note_on_c, 0, 54, 86
3, 33360, Note_on_c, 0, 51, 86
3, 33360, Control_c, 0, 64, 0
3, 33552, Note_on_c, 0, 51, 0
3, 33552, Note_on_c, 0, 54, 0
3, 33552, Note_on_c, 0, 59, 0
3, 33600, Note_on_c, 0, 39, 86
3, 33600, Note_on_c, 0, 51, 86
3, 33792, Note_on_c, 0, 51, 0
3, 33792, Note_on_c, 0, 39, 0
3, 33840, Note_on_c, 0, 54, 86
3, 33840, Note_on_c, 0, 42, 86
3, 34032, Note_on_c, 0, 42, 0
3, 34032, Note_on_c, 0, 54, 0
3, 34080, Note_on_c, 0, 64, 86
3, 34080, Note_on_c, 0, 61, 86
3, 34080, Note_on_c, 0, 58, 86
3, 34080, Note_on_c, 0, 54, 86
3, 34101, Control_c, 0, 64, 127
3, 34272, Note_on_c, 0, 54, 0
3, 34272, Note_on_c, 0, 64, 0
3, 34272, Note_on_c, 0, 61, 0
3, 34272, Note_on_c, 0, 58, 0
3, 34320, Note_on_c, 0, 42, 86
3, 34320, Note_on_c, 0, 54, 86
3, 34512, Note_on_c, 0, 54, 0
3, 34512, Note_on_c, 0, 42, 0
3, 34547, Control_c, 0, 64, 0
3, 34560, Note_on_c, 0, 47, 86
3, 34560, Note_on_c, 0, 35, 86
3, 34652, Control_c, 0, 64, 127
3, 34752, Note_on_c, 0, 35, 0
3, 34752, Note_on_c, 0, 47, 0
3, 34800, Note_on_c, 0, 54, 86
3, 34800, Note_on_c, 0, 51, 86
3, 34992, Note_on_c, 0, 51, 0
3, 34992, Note_on_c, 0, 54, 0
3, 35267, Control_c, 0, 64, 0
3, 35267, End_track
0, 0, End_of_file
