0, 0, Header, 1, 3, 240
1, 0, Start_track
1, 0, Title_t, "untitled"
1, 0, Time_signature, 3, 2, 24, 8
1, 0, Key_signature, 0, "major"
1, 0, Tempo, 560748
1, 0, End_track
2, 0, Start_track
2, 0, Title_t, "Brahms"
2, 0, Program_c, 0, 0
2, 0, Control_c, 0, 7, 110
2, 0, Control_c, 0, 10, 79
2, 480, Note_on_c, 0, 71, 86
2, 600, Note_on_c, 0, 71, 0
2, 600, Note_on_c, 0, 72, 86
2, 639, Note_on_c, 0, 72, 0
2, 639, Note_on_c, 0, 71, 86
2, 679, Note_on_c, 0, 71, 0
2, 679, Note_on_c, 0, 70, 86
2, 719, Note_on_c, 0, 70, 0
2, 720, Note_on_c, 0, 67, 86
2, 720, Note_on_c, 0, 71, 86
2, 840, Note_on_c, 0, 71, 0
2, 840, Note_on_c, 0, 67, 0
2, 840, Note_on_c, 0, 71, 86
2, 840, Note_on_c, 0, 79, 86
2, 960, Note_on_c, 0, 79, 0
2, 960, Note_on_c, 0, 71, 0
2, 1080, Note_on_c, 0, 71, 86
2, 1080, Note_on_c, 0, 79, 86
2, 1200, Note_on_c, 0, 79, 0
2, 1200, Note_on_c, 0, 71, 0
2, 1200, Note_on_c, 0, 69, 86
2, 1200, Note_on_c, 0, 78, 86
2, 1320, Note_on_c, 0, 78, 0
2, 1320, Note_on_c, 0, 69, 0
2, 1320, Note_on_c, 0, 71, 86
2, 1320, Note_on_c, 0, 79, 86
2, 1440, Note_on_c, 0, 79, 0
2, 1440, Note_on_c, 0, 71, 0
2, 1440, Note_on_c, 0, 69, 86
2, 1440, Note_on_c, 0, 78, 86
2, 1680, Note_on_c, 0, 78, 0
2, 1680, Note_on_c, 0, 69, 0
2, 1680, Note_on_c, 0, 67, 86
2, 1680, Note_on_c, 0, 76, 86
2, 1920, Note_on_c, 0, 76, 0
2, 1920, Note_on_c, 0, 67, 0
2, 2040, Note_on_c, 0, 67, 86
2, 2100, Note_on_c, 0, 67, 0
2, 2100, Note_on_c, 0, 69, 86
2, 2119, Note_on_c, 0, 69, 0
2, 2119, Note_on_c, 0, 67, 86
2, 2139, Note_on_c, 0, 67, 0
2, 2139, Note_on_c, 0, 66, 86
2, 2159, Note_on_c, 0, 66, 0
2, 2160, Note_on_c, 0, 64, 86
2, 2160, Note_on_c, 0, 67, 86
2, 2280, Note_on_c, 0, 67, 0
2, 2280, Note_on_c, 0, 64, 0
2, 2280, Note_on_c, 0, 67, 86
2, 2280, Note_on_c, 0, 76, 86
2, 2400, Note_on_c, 0, 76, 0
2, 2400, Note_on_c, 0, 67, 0
2, 2520, Note_on_c, 0, 67, 86
2, 2520, Note_on_c, 0, 76, 86
2, 2640, Note_on_c, 0, 76, 0
2, 2640, Note_on_c, 0, 67, 0
2, 2640, Note_on_c, 0, 65, 86
2, 2640, Note_on_c, 0, 74, 86
2, 2760, Note_on_c, 0, 74, 0
2, 2760, Note_on_c, 0, 65, 0
2, 2760, Note_on_c, 0, 67, 86
2, 2760, Note_on_c, 0, 76, 86
2, 2880, Note_on_c, 0, 76, 0
2, 2880, Note_on_c, 0, 67, 0
2, 2880, Note_on_c, 0, 65, 86
2, 2880, Note_on_c, 0, 74, 86
2, 3120, Note_on_c, 0, 74, 0
2, 3120, Note_on_c, 0, 65, 0
2, 3120, Note_on_c, 0, 64, 86
2, 3120, Note_on_c, 0, 72, 86
2, 3360, Note_on_c, 0, 72, 0
2, 3360, Note_on_c, 0, 64, 0
2, 3480, Note_on_c, 0, 64, 86
2, 3540, Note_on_c, 0, 64, 0
2, 3540, Note_on_c, 0, 66, 86
2, 3559, Note_on_c, 0, 66, 0
2, 3559, Note_on_c, 0, 64, 86
2, 3579, Note_on_c, 0, 64, 0
2, 3579, Note_on_c, 0, 63, 86
2, 3599, Note_on_c, 0, 63, 0
2, 3600, Note_on_c, 0, 61, 86
2, 3600, Note_on_c, 0, 64, 86
2, 3720, Note_on_c, 0, 64, 0
2, 3720, Note_on_c, 0, 61, 0
2, 3720, Note_on_c, 0, 64, 86
2, 3720, Note_on_c, 0, 73, 86
2, 3840, Note_on_c, 0, 73, 0
2, 3840, Note_on_c, 0, 64, 0
2, 3960, Note_on_c, 0, 66, 86
2, 4080, Note_on_c, 0, 66, 0
2, 4080, Note_on_c, 0, 62, 86
2, 4080, Note_on_c, 0, 67, 86
2, 4200, Note_on_c, 0, 67, 0
2, 4200, Note_on_c, 0, 62, 0
2, 4200, Note_on_c, 0, 71, 86
2, 4320, Note_on_c, 0, 71, 0
2, 4320, Note_on_c, 0, 64, 86
2, 4320, Note_on_c, 0, 70, 86
2, 4440, Note_on_c, 0, 70, 0
2, 4440, Note_on_c, 0, 64, 0
2, 4440, Note_on_c, 0, 79, 86
2, 4560, Note_on_c, 0, 79, 0
2, 4680, Note_on_c, 0, 70, 86
2, 4800, Note_on_c, 0, 70, 0
2, 4800, Note_on_c, 0, 66, 86
2, 4800, Note_on_c, 0, 71, 86
2, 4920, Note_on_c, 0, 71, 0
2, 4920, Note_on_c, 0, 66, 0
2, 4920, Note_on_c, 0, 74, 86
2, 5040, Note_on_c, 0, 74, 0
2, 5040, Note_on_c, 0, 67, 86
2, 5040, Note_on_c, 0, 73, 86
2, 5160, Note_on_c, 0, 73, 0
2, 5160, Note_on_c, 0, 67, 0
2, 5160, Note_on_c, 0, 83, 86
2, 5280, Note_on_c, 0, 83, 0
2, 5400, Note_on_c, 0, 83, 86
2, 5520, Note_on_c, 0, 83, 0
2, 5520, Note_on_c, 0, 73, 86
2, 5520, Note_on_c, 0, 82, 86
2, 5640, Note_on_c, 0, 82, 0
2, 5640, Note_on_c, 0, 83, 86
2, 5760, Note_on_c, 0, 83, 0
2, 5760, Note_on_c, 0, 73, 0
2, 5760, Note_on_c, 0, 66, 86
2, 5760, Note_on_c, 0, 78, 86
2, 6120, Note_on_c, 0, 78, 0
2, 6120, Note_on_c, 0, 70, 86
2, 6240, Note_on_c, 0, 70, 0
2, 6240, Note_on_c, 0, 66, 0
2, 6240, Note_on_c, 0, 63, 86
2, 6240, Note_on_c, 0, 71, 86
2, 6360, Note_on_c, 0, 71, 0
2, 6360, Note_on_c, 0, 72, 86
2, 6399, Note_on_c, 0, 72, 0
2, 6399, Note_on_c, 0, 71, 86
2, 6439, Note_on_c, 0, 71, 0
2, 6439, Note_on_c, 0, 70, 86
2, 6479, Note_on_c, 0, 70, 0
2, 6480, Note_on_c, 0, 63, 0
2, 6480, Note_on_c, 0, 67, 86
2, 6480, Note_on_c, 0, 71, 86
2, 6600, Note_on_c, 0, 71, 0
2, 6600, Note_on_c, 0, 67, 0
2, 6600, Note_on_c, 0, 71, 86
2, 6600, Note_on_c, 0, 79, 86
2, 6720, Note_on_c, 0, 79, 0
2, 6720, Note_on_c, 0, 71, 0
2, 6840, Note_on_c, 0, 71, 86
2, 6840, Note_on_c, 0, 79, 86
2, 6960, Note_on_c, 0, 79, 0
2, 6960, Note_on_c, 0, 71, 0
2, 6960, Note_on_c, 0, 69, 86
2, 6960, Note_on_c, 0, 78, 86
2, 7080, Note_on_c, 0, 78, 0
2, 7080, Note_on_c, 0, 69, 0
2, 7080, Note_on_c, 0, 71, 86
2, 7080, Note_on_c, 0, 79, 86
2, 7200, Note_on_c, 0, 79, 0
2, 7200, Note_on_c, 0, 71, 0
2, 7200, Note_on_c, 0, 69, 86
2, 7200, Note_on_c, 0, 78, 86
2, 7440, Note_on_c, 0, 78, 0
2, 7440, Note_on_c, 0, 69, 0
2, 7440, Note_on_c, 0, 67, 86
2, 7440, Note_on_c, 0, 76, 86
2, 7680, Note_on_c, 0, 76, 0
2, 7680, Note_on_c, 0, 67, 0
2, 7800, Note_on_c, 0, 67, 86
2, 7860, Note_on_c, 0, 67, 0
2, 7860, Note_on_c, 0, 69, 86
2, 7879, Note_on_c, 0, 69, 0
2, 7879, Note_on_c, 0, 67, 86
2, 7899, Note_on_c, 0, 67, 0
2, 7899, Note_on_c, 0, 66, 86
2, 7919, Note_on_c, 0, 66, 0
2, 7920, Note_on_c, 0, 64, 86
2, 7920, Note_on_c, 0, 67, 86
2, 8040, Note_on_c, 0, 67, 0
2, 8040, Note_on_c, 0, 64, 0
2, 8040, Note_on_c, 0, 67, 86
2, 8040, Note_on_c, 0, 76, 86
2, 8160, Note_on_c, 0, 76, 0
2, 8160, Note_on_c, 0, 67, 0
2, 8280, Note_on_c, 0, 67, 86
2, 8280, Note_on_c, 0, 76, 86
2, 8400, Note_on_c, 0, 76, 0
2, 8400, Note_on_c, 0, 67, 0
2, 8400, Note_on_c, 0, 65, 86
2, 8400, Note_on_c, 0, 74, 86
2, 8520, Note_on_c, 0, 74, 0
2, 8520, Note_on_c, 0, 65, 0
2, 8520, Note_on_c, 0, 67, 86
2, 8520, Note_on_c, 0, 76, 86
2, 8640, Note_on_c, 0, 76, 0
2, 8640, Note_on_c, 0, 67, 0
2, 8640, Note_on_c, 0, 65, 86
2, 8640, Note_on_c, 0, 74, 86
2, 8880, Note_on_c, 0, 74, 0
2, 8880, Note_on_c, 0, 65, 0
2, 8880, Note_on_c, 0, 64, 86
2, 8880, Note_on_c, 0, 72, 86
2, 9120, Note_on_c, 0, 72, 0
2, 9120, Note_on_c, 0, 64, 0
2, 9240, Note_on_c, 0, 64, 86
2, 9300, Note_on_c, 0, 64, 0
2, 9300, Note_on_c, 0, 66, 86
2, 9319, Note_on_c, 0, 66, 0
2, 9319, Note_on_c, 0, 64, 86
2, 9339, Note_on_c, 0, 64, 0
2, 9339, Note_on_c, 0, 63, 86
2, 9359, Note_on_c, 0, 63, 0
2, 9360, Note_on_c, 0, 61, 86
2, 9360, Note_on_c, 0, 64, 86
2, 9480, Note_on_c, 0, 64, 0
2, 9480, Note_on_c, 0, 61, 0
2, 9480, Note_on_c, 0, 64, 86
2, 9480, Note_on_c, 0, 73, 86
2, 9600, Note_on_c, 0, 73, 0
2, 9600, Note_on_c, 0, 64, 0
2, 9720, Note_on_c, 0, 66, 86
2, 9840, Note_on_c, 0, 66, 0
2, 9840, Note_on_c, 0, 62, 86
2, 9840, Note_on_c, 0, 67, 86
2, 9960, Note_on_c, 0, 67, 0
2, 9960, Note_on_c, 0, 62, 0
2, 9960, Note_on_c, 0, 71, 86
2, 10080, Note_on_c, 0, 71, 0
2, 10080, Note_on_c, 0, 64, 86
2, 10080, Note_on_c, 0, 70, 86
2, 10200, Note_on_c, 0, 70, 0
2, 10200, Note_on_c, 0, 64, 0
2, 10200, Note_on_c, 0, 79, 86
2, 10320, Note_on_c, 0, 79, 0
2, 10440, Note_on_c, 0, 70, 86
2, 10560, Note_on_c, 0, 70, 0
2, 10560, Note_on_c, 0, 66, 86
2, 10560, Note_on_c, 0, 71, 86
2, 10680, Note_on_c, 0, 71, 0
2, 10680, Note_on_c, 0, 66, 0
2, 10680, Note_on_c, 0, 74, 86
2, 10800, Note_on_c, 0, 74, 0
2, 10800, Note_on_c, 0, 67, 86
2, 10800, Note_on_c, 0, 73, 86
2, 10920, Note_on_c, 0, 73, 0
2, 10920, Note_on_c, 0, 67, 0
2, 10920, Note_on_c, 0, 83, 86
2, 11040, Note_on_c, 0, 83, 0
2, 11160, Note_on_c, 0, 83, 86
2, 11280, Note_on_c, 0, 83, 0
2, 11280, Note_on_c, 0, 73, 86
2, 11280, Note_on_c, 0, 82, 86
2, 11400, Note_on_c, 0, 82, 0
2, 11400, Note_on_c, 0, 83, 86
2, 11520, Note_on_c, 0, 83, 0
2, 11520, Note_on_c, 0, 73, 0
2, 11520, Note_on_c, 0, 66, 86
2, 11520, Note_on_c, 0, 78, 86
2, 11880, Note_on_c, 0, 78, 0
2, 11880, Note_on_c, 0, 70, 86
2, 12000, Note_on_c, 0, 70, 0
2, 12000, Note_on_c, 0, 66, 0
2, 12000, Note_on_c, 0, 63, 86
2, 12000, Note_on_c, 0, 71, 86
2, 12120, Note_on_c, 0, 71, 0
2, 12120, Note_on_c, 0, 72, 86
2, 12159, Note_on_c, 0, 72, 0
2, 12159, Note_on_c, 0, 71, 86
2, 12199, Note_on_c, 0, 71, 0
2, 12199, Note_on_c, 0, 70, 86
2, 12239, Note_on_c, 0, 70, 0
2, 12240, Note_on_c, 0, 63, 0
2, 12240, Note_on_c, 0, 71, 86
2, 12360, Note_on_c, 0, 71, 0
2, 12360, Note_on_c, 0, 59, 86
2, 12480, Note_on_c, 0, 59, 0
2, 12600, Note_on_c, 0, 71, 86
2, 12720, Note_on_c, 0, 71, 0
2, 12720, Note_on_c, 0, 57, 86
2, 12840, Note_on_c, 0, 57, 0
2, 12840, Note_on_c, 0, 69, 86
2, 12960, Note_on_c, 0, 69, 0
2, 12960, Note_on_c, 0, 67, 86
2, 13080, Note_on_c, 0, 67, 0
2, 13080, Note_on_c, 0, 55, 86
2, 13200, Note_on_c, 0, 55, 0
2, 13320, Note_on_c, 0, 67, 86
2, 13320, Note_on_c, 0, 71, 86
2, 13440, Note_on_c, 0, 71, 0
2, 13440, Note_on_c, 0, 67, 0
2, 13440, Note_on_c, 0, 62, 86
2, 13560, Note_on_c, 0, 62, 0
2, 13560, Note_on_c, 0, 67, 86
2, 13560, Note_on_c, 0, 71, 86
2, 13680, Note_on_c, 0, 71, 0
2, 13680, Note_on_c, 0, 67, 0
2, 13680, Note_on_c, 0, 72, 86
2, 13680, Note_on_c, 0, 76, 86
2, 13800, Note_on_c, 0, 76, 0
2, 13800, Note_on_c, 0, 72, 0
2, 13800, Note_on_c, 0, 64, 86
2, 13920, Note_on_c, 0, 64, 0
2, 14040, Note_on_c, 0, 72, 86
2, 14040, Note_on_c, 0, 76, 86
2, 14160, Note_on_c, 0, 76, 0
2, 14160, Note_on_c, 0, 72, 0
2, 14160, Note_on_c, 0, 62, 86
2, 14280, Note_on_c, 0, 62, 0
2, 14280, Note_on_c, 0, 74, 86
2, 14400, Note_on_c, 0, 74, 0
2, 14400, Note_on_c, 0, 72, 86
2, 14520, Note_on_c, 0, 72, 0
2, 14520, Note_on_c, 0, 60, 86
2, 14640, Note_on_c, 0, 60, 0
2, 14760, Note_on_c, 0, 76, 86
2, 14880, Note_on_c, 0, 76, 0
2, 14880, Note_on_c, 0, 64, 86
2, 15000, Note_on_c, 0, 64, 0
2, 15000, Note_on_c, 0, 76, 86
2, 15120, Note_on_c, 0, 76, 0
2, 15120, Note_on_c, 0, 77, 86
2, 15240, Note_on_c, 0, 65, 86
2, 15360, Note_on_c, 0, 65, 0
2, 15360, Note_on_c, 0, 77, 0
2, 15360, Note_on_c, 0, 62, 86
2, 15480, Note_on_c, 0, 65, 86
2, 15600, Note_on_c, 0, 65, 0
2, 15600, Note_on_c, 0, 62, 0
2, 15600, Note_on_c, 0, 59, 86
2, 15720, Note_on_c, 0, 65, 86
2, 15840, Note_on_c, 0, 65, 0
2, 15840, Note_on_c, 0, 59, 0
2, 15840, Note_on_c, 0, 77, 86
2, 15960, Note_on_c, 0, 65, 86
2, 16080, Note_on_c, 0, 65, 0
2, 16080, Note_on_c, 0, 77, 0
2, 16080, Note_on_c, 0, 62, 86
2, 16200, Note_on_c, 0, 65, 86
2, 16320, Note_on_c, 0, 65, 0
2, 16320, Note_on_c, 0, 62, 0
2, 16320, Note_on_c, 0, 59, 86
2, 16440, Note_on_c, 0, 65, 86
2, 16560, Note_on_c, 0, 65, 0
2, 16560, Note_on_c, 0, 59, 0
2, 16560, Note_on_c, 0, 78, 86
2, 16680, Note_on_c, 0, 66, 86
2, 16800, Note_on_c, 0, 66, 0
2, 16800, Note_on_c, 0, 78, 0
2, 16800, Note_on_c, 0, 62, 86
2, 16920, Note_on_c, 0, 66, 86
2, 17040, Note_on_c, 0, 66, 0
2, 17040, Note_on_c, 0, 62, 0
2, 17040, Note_on_c, 0, 60, 86
2, 17160, Note_on_c, 0, 66, 86
2, 17280, Note_on_c, 0, 66, 0
2, 17280, Note_on_c, 0, 60, 0
2, 17280, Note_on_c, 0, 78, 86
2, 17400, Note_on_c, 0, 66, 86
2, 17520, Note_on_c, 0, 66, 0
2, 17520, Note_on_c, 0, 78, 0
2, 17520, Note_on_c, 0, 63, 86
2, 17640, Note_on_c, 0, 66, 86
2, 17760, Note_on_c, 0, 66, 0
2, 17760, Note_on_c, 0, 63, 0
2, 17760, Note_on_c, 0, 59, 86
2, 17880, Note_on_c, 0, 66, 86
2, 18000, Note_on_c, 0, 66, 0
2, 18000, Note_on_c, 0, 59, 0
2, 18000, Note_on_c, 0, 59, 86
2, 18000, Note_on_c, 0, 64, 86
2, 18000, Note_on_c, 0, 71, 86
2, 18120, Note_on_c, 0, 71, 0
2, 18120, Note_on_c, 0, 64, 0
2, 18120, Note_on_c, 0, 59, 0
2, 18120, Note_on_c, 0, 71, 86
2, 18120, Note_on_c, 0, 79, 86
2, 18240, Note_on_c, 0, 79, 0
2, 18240, Note_on_c, 0, 71, 0
2, 18360, Note_on_c, 0, 71, 86
2, 18360, Note_on_c, 0, 79, 86
2, 18480, Note_on_c, 0, 79, 0
2, 18480, Note_on_c, 0, 71, 0
2, 18480, Note_on_c, 0, 69, 86
2, 18480, Note_on_c, 0, 78, 86
2, 18600, Note_on_c, 0, 78, 0
2, 18600, Note_on_c, 0, 69, 0
2, 18600, Note_on_c, 0, 71, 86
2, 18600, Note_on_c, 0, 79, 86
2, 18720, Note_on_c, 0, 79, 0
2, 18720, Note_on_c, 0, 71, 0
2, 18720, Note_on_c, 0, 69, 86
2, 18720, Note_on_c, 0, 78, 86
2, 18960, Note_on_c, 0, 78, 0
2, 18960, Note_on_c, 0, 69, 0
2, 18960, Note_on_c, 0, 67, 86
2, 18960, Note_on_c, 0, 76, 86
2, 19200, Note_on_c, 0, 76, 0
2, 19200, Note_on_c, 0, 67, 0
2, 19200, Note_on_c, 0, 69, 86
2, 19320, Note_on_c, 0, 74, 86
2, 19350, Note_on_c, 0, 74, 0
2, 19350, Note_on_c, 0, 76, 86
2, 19380, Note_on_c, 0, 76, 0
2, 19380, Note_on_c, 0, 74, 86
2, 19410, Note_on_c, 0, 74, 0
2, 19410, Note_on_c, 0, 73, 86
2, 19440, Note_on_c, 0, 73, 0
2, 19440, Note_on_c, 0, 69, 0
2, 19440, Note_on_c, 0, 71, 86
2, 19440, Note_on_c, 0, 74, 86
2, 19560, Note_on_c, 0, 74, 0
2, 19560, Note_on_c, 0, 71, 0
2, 19560, Note_on_c, 0, 74, 86
2, 19560, Note_on_c, 0, 83, 86
2, 19680, Note_on_c, 0, 83, 0
2, 19680, Note_on_c, 0, 74, 0
2, 19800, Note_on_c, 0, 74, 86
2, 19800, Note_on_c, 0, 83, 86
2, 19920, Note_on_c, 0, 83, 0
2, 19920, Note_on_c, 0, 74, 0
2, 19920, Note_on_c, 0, 72, 86
2, 19920, Note_on_c, 0, 81, 86
2, 20040, Note_on_c, 0, 81, 0
2, 20040, Note_on_c, 0, 72, 0
2, 20040, Note_on_c, 0, 74, 86
2, 20040, Note_on_c, 0, 83, 86
2, 20160, Note_on_c, 0, 83, 0
2, 20160, Note_on_c, 0, 74, 0
2, 20160, Note_on_c, 0, 72, 86
2, 20160, Note_on_c, 0, 81, 86
2, 20400, Note_on_c, 0, 81, 0
2, 20400, Note_on_c, 0, 72, 0
2, 20400, Note_on_c, 0, 71, 86
2, 20400, Note_on_c, 0, 79, 86
2, 20640, Note_on_c, 0, 79, 0
2, 20640, Note_on_c, 0, 71, 0
2, 20640, Note_on_c, 0, 73, 86
2, 20760, Note_on_c, 0, 76, 86
2, 20799, Note_on_c, 0, 76, 0
2, 20799, Note_on_c, 0, 78, 86
2, 20839, Note_on_c, 0, 78, 0
2, 20839, Note_on_c, 0, 79, 86
2, 20879, Note_on_c, 0, 79, 0
2, 20880, Note_on_c, 0, 73, 0
2, 20880, Note_on_c, 0, 71, 86
2, 20880, Note_on_c, 0, 75, 86
2, 21000, Note_on_c, 0, 75, 0
2, 21000, Note_on_c, 0, 71, 0
2, 21000, Note_on_c, 0, 78, 86
2, 21000, Note_on_c, 0, 87, 86
2, 21120, Note_on_c, 0, 87, 0
2, 21120, Note_on_c, 0, 78, 0
2, 21240, Note_on_c, 0, 78, 86
2, 21240, Note_on_c, 0, 87, 86
2, 21360, Note_on_c, 0, 87, 0
2, 21360, Note_on_c, 0, 78, 0
2, 21360, Note_on_c, 0, 76, 86
2, 21360, Note_on_c, 0, 88, 86
2, 21480, Note_on_c, 0, 88, 0
2, 21480, Note_on_c, 0, 76, 0
2, 21480, Note_on_c, 0, 79, 86
2, 21600, Note_on_c, 0, 79, 0
2, 21600, Note_on_c, 0, 75, 86
2, 21600, Note_on_c, 0, 78, 86
2, 21720, Note_on_c, 0, 78, 0
2, 21720, Note_on_c, 0, 75, 0
2, 21720, Note_on_c, 0, 78, 86
2, 21720, Note_on_c, 0, 87, 86
2, 21840, Note_on_c, 0, 87, 0
2, 21840, Note_on_c, 0, 78, 0
2, 21960, Note_on_c, 0, 78, 86
2, 21960, Note_on_c, 0, 87, 86
2, 22080, Note_on_c, 0, 87, 0
2, 22080, Note_on_c, 0, 78, 0
2, 22080, Note_on_c, 0, 76, 86
2, 22080, Note_on_c, 0, 88, 86
2, 22200, Note_on_c, 0, 88, 0
2, 22200, Note_on_c, 0, 76, 0
2, 22200, Note_on_c, 0, 79, 86
2, 22320, Note_on_c, 0, 79, 0
2, 22320, Note_on_c, 0, 78, 86
2, 22320, Note_on_c, 0, 75, 86
2, 22440, Note_on_c, 0, 78, 0
2, 22440, Note_on_c, 0, 87, 86
2, 22560, Note_on_c, 0, 87, 0
2, 22560, Note_on_c, 0, 75, 0
2, 22560, Note_on_c, 0, 86, 86
2, 22560, Note_on_c, 0, 74, 86
2, 22680, Note_on_c, 0, 86, 0
2, 22680, Note_on_c, 0, 77, 86
2, 22800, Note_on_c, 0, 77, 0
2, 22800, Note_on_c, 0, 74, 0
2, 22800, Note_on_c, 0, 72, 86
2, 22800, Note_on_c, 0, 76, 86
2, 22920, Note_on_c, 0, 76, 0
2, 22920, Note_on_c, 0, 84, 86
2, 23040, Note_on_c, 0, 84, 0
2, 23040, Note_on_c, 0, 72, 0
2, 23040, Note_on_c, 0, 75, 86
2, 23040, Note_on_c, 0, 72, 86
2, 23160, Note_on_c, 0, 75, 0
2, 23160, Note_on_c, 0, 84, 86
2, 23280, Note_on_c, 0, 84, 0
2, 23280, Note_on_c, 0, 72, 0
2, 23280, Note_on_c, 0, 83, 86
2, 23280, Note_on_c, 0, 71, 86
2, 23400, Note_on_c, 0, 83, 0
2, 23400, Note_on_c, 0, 74, 86
2, 23520, Note_on_c, 0, 74, 0
2, 23520, Note_on_c, 0, 71, 0
2, 23520, Note_on_c, 0, 69, 86
2, 23520, Note_on_c, 0, 72, 86
2, 23640, Note_on_c, 0, 72, 0
2, 23640, Note_on_c, 0, 81, 86
2, 23760, Note_on_c, 0, 81, 0
2, 23760, Note_on_c, 0, 69, 0
2, 23760, Note_on_c, 0, 71, 86
2, 23856, Note_on_c, 0, 71, 0
2, 23880, Note_on_c, 0, 79, 86
2, 23976, Note_on_c, 0, 79, 0
2, 24000, Note_on_c, 0, 72, 86
2, 24000, Note_on_c, 0, 69, 86
2, 24096, Note_on_c, 0, 69, 0
2, 24096, Note_on_c, 0, 72, 0
2, 24120, Note_on_c, 0, 78, 86
2, 24216, Note_on_c, 0, 78, 0
2, 24240, Note_on_c, 0, 71, 86
2, 24240, Note_on_c, 0, 69, 86
2, 24336, Note_on_c, 0, 69, 0
2, 24336, Note_on_c, 0, 71, 0
2, 24360, Note_on_c, 0, 75, 86
2, 24456, Note_on_c, 0, 75, 0
2, 24480, Note_on_c, 0, 67, 86
2, 24480, Note_on_c, 0, 71, 86
2, 24480, Note_on_c, 0, 76, 86
2, 24960, Note_on_c, 0, 76, 0
2, 24960, Note_on_c, 0, 71, 0
2, 24960, Note_on_c, 0, 67, 0
2, 24960, Note_on_c, 0, 71, 86
2, 25080, Note_on_c, 0, 71, 0
2, 25080, Note_on_c, 0, 72, 86
2, 25119, Note_on_c, 0, 72, 0
2, 25119, Note_on_c, 0, 71, 86
2, 25159, Note_on_c, 0, 71, 0
2, 25159, Note_on_c, 0, 70, 86
2, 25199, Note_on_c, 0, 70, 0
2, 25200, Note_on_c, 0, 71, 86
2, 25320, Note_on_c, 0, 71, 0
2, 25320, Note_on_c, 0, 59, 86
2, 25440, Note_on_c, 0, 59, 0
2, 25560, Note_on_c, 0, 71, 86
2, 25680, Note_on_c, 0, 71, 0
2, 25680, Note_on_c, 0, 57, 86
2, 25800, Note_on_c, 0, 57, 0
2, 25800, Note_on_c, 0, 69, 86
2, 25920, Note_on_c, 0, 69, 0
2, 25920, Note_on_c, 0, 67, 86
2, 26040, Note_on_c, 0, 67, 0
2, 26040, Note_on_c, 0, 55, 86
2, 26160, Note_on_c, 0, 55, 0
2, 26280, Note_on_c, 0, 67, 86
2, 26280, Note_on_c, 0, 71, 86
2, 26400, Note_on_c, 0, 71, 0
2, 26400, Note_on_c, 0, 67, 0
2, 26400, Note_on_c, 0, 62, 86
2, 26520, Note_on_c, 0, 62, 0
2, 26520, Note_on_c, 0, 67, 86
2, 26520, Note_on_c, 0, 71, 86
2, 26640, Note_on_c, 0, 71, 0
2, 26640, Note_on_c, 0, 67, 0
2, 26640, Note_on_c, 0, 72, 86
2, 26640, Note_on_c, 0, 76, 86
2, 26760, Note_on_c, 0, 76, 0
2, 26760, Note_on_c, 0, 72, 0
2, 26760, Note_on_c, 0, 64, 86
2, 26880, Note_on_c, 0, 64, 0
2, 27000, Note_on_c, 0, 72, 86
2, 27000, Note_on_c, 0, 76, 86
2, 27120, Note_on_c, 0, 76, 0
2, 27120, Note_on_c, 0, 72, 0
2, 27120, Note_on_c, 0, 62, 86
2, 27240, Note_on_c, 0, 62, 0
2, 27240, Note_on_c, 0, 74, 86
2, 27360, Note_on_c, 0, 74, 0
2, 27360, Note_on_c, 0, 72, 86
2, 27480, Note_on_c, 0, 72, 0
2, 27480, Note_on_c, 0, 60, 86
2, 27600, Note_on_c, 0, 60, 0
2, 27720, Note_on_c, 0, 76, 86
2, 27840, Note_on_c, 0, 76, 0
2, 27840, Note_on_c, 0, 64, 86
2, 27960, Note_on_c, 0, 64, 0
2, 27960, Note_on_c, 0, 76, 86
2, 28080, Note_on_c, 0, 76, 0
2, 28080, Note_on_c, 0, 77, 86
2, 28200, Note_on_c, 0, 65, 86
2, 28320, Note_on_c, 0, 65, 0
2, 28320, Note_on_c, 0, 77, 0
2, 28320, Note_on_c, 0, 62, 86
2, 28440, Note_on_c, 0, 65, 86
2, 28560, Note_on_c, 0, 65, 0
2, 28560, Note_on_c, 0, 62, 0
2, 28560, Note_on_c, 0, 59, 86
2, 28680, Note_on_c, 0, 65, 86
2, 28800, Note_on_c, 0, 65, 0
2, 28800, Note_on_c, 0, 59, 0
2, 28800, Note_on_c, 0, 77, 86
2, 28920, Note_on_c, 0, 65, 86
2, 29040, Note_on_c, 0, 65, 0
2, 29040, Note_on_c, 0, 77, 0
2, 29040, Note_on_c, 0, 62, 86
2, 29160, Note_on_c, 0, 65, 86
2, 29280, Note_on_c, 0, 65, 0
2, 29280, Note_on_c, 0, 62, 0
2, 29280, Note_on_c, 0, 59, 86
2, 29400, Note_on_c, 0, 65, 86
2, 29520, Note_on_c, 0, 65, 0
2, 29520, Note_on_c, 0, 59, 0
2, 29520, Note_on_c, 0, 78, 86
2, 29640, Note_on_c, 0, 66, 86
2, 29760, Note_on_c, 0, 66, 0
2, 29760, Note_on_c, 0, 78, 0
2, 29760, Note_on_c, 0, 62, 86
2, 29880, Note_on_c, 0, 66, 86
2, 30000, Note_on_c, 0, 66, 0
2, 30000, Note_on_c, 0, 62, 0
2, 30000, Note_on_c, 0, 60, 86
2, 30120, Note_on_c, 0, 66, 86
2, 30240, Note_on_c, 0, 66, 0
2, 30240, Note_on_c, 0, 60, 0
2, 30240, Note_on_c, 0, 78, 86
2, 30360, Note_on_c, 0, 66, 86
2, 30480, Note_on_c, 0, 66, 0
2, 30480, Note_on_c, 0, 78, 0
2, 30480, Note_on_c, 0, 63, 86
2, 30600, Note_on_c, 0, 66, 86
2, 30720, Note_on_c, 0, 66, 0
2, 30720, Note_on_c, 0, 63, 0
2, 30720, Note_on_c, 0, 59, 86
2, 30840, Note_on_c, 0, 66, 86
2, 30960, Note_on_c, 0, 66, 0
2, 30960, Note_on_c, 0, 59, 0
2, 30960, Note_on_c, 0, 59, 86
2, 30960, Note_on_c, 0, 64, 86
2, 30960, Note_on_c, 0, 71, 86
2, 31080, Note_on_c, 0, 71, 0
2, 31080, Note_on_c, 0, 64, 0
2, 31080, Note_on_c, 0, 59, 0
2, 31080, Note_on_c, 0, 71, 86
2, 31080, Note_on_c, 0, 79, 86
2, 31200, Note_on_c, 0, 79, 0
2, 31200, Note_on_c, 0, 71, 0
2, 31320, Note_on_c, 0, 71, 86
2, 31320, Note_on_c, 0, 79, 86
2, 31440, Note_on_c, 0, 79, 0
2, 31440, Note_on_c, 0, 71, 0
2, 31440, Note_on_c, 0, 69, 86
2, 31440, Note_on_c, 0, 78, 86
2, 31560, Note_on_c, 0, 78, 0
2, 31560, Note_on_c, 0, 69, 0
2, 31560, Note_on_c, 0, 71, 86
2, 31560, Note_on_c, 0, 79, 86
2, 31680, Note_on_c, 0, 79, 0
2, 31680, Note_on_c, 0, 71, 0
2, 31680, Note_on_c, 0, 69, 86
2, 31680, Note_on_c, 0, 78, 86
2, 31920, Note_on_c, 0, 78, 0
2, 31920, Note_on_c, 0, 69, 0
2, 31920, Note_on_c, 0, 67, 86
2, 31920, Note_on_c, 0, 76, 86
2, 32160, Note_on_c, 0, 76, 0
2, 32160, Note_on_c, 0, 67, 0
2, 32160, Note_on_c, 0, 69, 86
2, 32280, Note_on_c, 0, 74, 86
2, 32310, Note_on_c, 0, 74, 0
2, 32310, Note_on_c, 0, 76, 86
2, 32340, Note_on_c, 0, 76, 0
2, 32340, Note_on_c, 0, 74, 86
2, 32370, Note_on_c, 0, 74, 0
2, 32370, Note_on_c, 0, 73, 86
2, 32400, Note_on_c, 0, 73, 0
2, 32400, Note_on_c, 0, 69, 0
2, 32400, Note_on_c, 0, 71, 86
2, 32400, Note_on_c, 0, 74, 86
2, 32520, Note_on_c, 0, 74, 0
2, 32520, Note_on_c, 0, 71, 0
2, 32520, Note_on_c, 0, 74, 86
2, 32520, Note_on_c, 0, 83, 86
2, 32640, Note_on_c, 0, 83, 0
2, 32640, Note_on_c, 0, 74, 0
2, 32760, Note_on_c, 0, 74, 86
2, 32760, Note_on_c, 0, 83, 86
2, 32880, Note_on_c, 0, 83, 0
2, 32880, Note_on_c, 0, 74, 0
2, 32880, Note_on_c, 0, 72, 86
2, 32880, Note_on_c, 0, 81, 86
2, 33000, Note_on_c, 0, 81, 0
2, 33000, Note_on_c, 0, 72, 0
2, 33000, Note_on_c, 0, 74, 86
2, 33000, Note_on_c, 0, 83, 86
2, 33120, Note_on_c, 0, 83, 0
2, 33120, Note_on_c, 0, 74, 0
2, 33120, Note_on_c, 0, 72, 86
2, 33120, Note_on_c, 0, 81, 86
2, 33360, Note_on_c, 0, 81, 0
2, 33360, Note_on_c, 0, 72, 0
2, 33360, Note_on_c, 0, 71, 86
2, 33360, Note_on_c, 0, 79, 86
2, 33600, Note_on_c, 0, 79, 0
2, 33600, Note_on_c, 0, 71, 0
2, 33600, Note_on_c, 0, 73, 86
2, 33720, Note_on_c, 0, 76, 86
2, 33759, Note_on_c, 0, 76, 0
2, 33759, Note_on_c, 0, 78, 86
2, 33799, Note_on_c, 0, 78, 0
2, 33799, Note_on_c, 0, 79, 86
2, 33839, Note_on_c, 0, 79, 0
2, 33840, Note_on_c, 0, 73, 0
2, 33840, Note_on_c, 0, 71, 86
2, 33840, Note_on_c, 0, 75, 86
2, 33960, Note_on_c, 0, 75, 0
2, 33960, Note_on_c, 0, 71, 0
2, 33960, Note_on_c, 0, 78, 86
2, 33960, Note_on_c, 0, 87, 86
2, 34080, Note_on_c, 0, 87, 0
2, 34080, Note_on_c, 0, 78, 0
2, 34200, Note_on_c, 0, 78, 86
2, 34200, Note_on_c, 0, 87, 86
2, 34320, Note_on_c, 0, 87, 0
2, 34320, Note_on_c, 0, 78, 0
2, 34320, Note_on_c, 0, 76, 86
2, 34320, Note_on_c, 0, 88, 86
2, 34440, Note_on_c, 0, 88, 0
2, 34440, Note_on_c, 0, 76, 0
2, 34440, Note_on_c, 0, 79, 86
2, 34560, Note_on_c, 0, 79, 0
2, 34560, Note_on_c, 0, 75, 86
2, 34560, Note_on_c, 0, 78, 86
2, 34680, Note_on_c, 0, 78, 0
2, 34680, Note_on_c, 0, 75, 0
2, 34680, Note_on_c, 0, 78, 86
2, 34680, Note_on_c, 0, 87, 86
2, 34800, Note_on_c, 0, 87, 0
2, 34800, Note_on_c, 0, 78, 0
2, 34920, Note_on_c, 0, 78, 86
2, 34920, Note_on_c, 0, 87, 86
2, 35040, Note_on_c, 0, 87, 0
2, 35040, Note_on_c, 0, 78, 0
2, 35040, Note_on_c, 0, 76, 86
2, 35040, Note_on_c, 0, 88, 86
2, 35160, Note_on_c, 0, 88, 0
2, 35160, Note_on_c, 0, 76, 0
2, 35160, Note_on_c, 0, 79, 86
2, 35280, Note_on_c, 0, 79, 0
2, 35280, Note_on_c, 0, 78, 86
2, 35280, Note_on_c, 0, 75, 86
2, 35400, Note_on_c, 0, 78, 0
2, 35400, Note_on_c, 0, 87, 86
2, 35520, Note_on_c, 0, 87, 0
2, 35520, Note_on_c, 0, 75, 0
2, 35520, Note_on_c, 0, 86, 86
2, 35520, Note_on_c, 0, 74, 86
2, 35640, Note_on_c, 0, 86, 0
2, 35640, Note_on_c, 0, 77, 86
2, 35760, Note_on_c, 0, 77, 0
2, 35760, Note_on_c, 0, 74, 0
2, 35760, Note_on_c, 0, 72, 86
2, 35760, Note_on_c, 0, 76, 86
2, 35880, Note_on_c, 0, 76, 0
2, 35880, Note_on_c, 0, 84, 86
2, 36000, Note_on_c, 0, 84, 0
2, 36000, Note_on_c, 0, 72, 0
2, 36000, Note_on_c, 0, 75, 86
2, 36000, Note_on_c, 0, 72, 86
2, 36120, Note_on_c, 0, 75, 0
2, 36120, Note_on_c, 0, 84, 86
2, 36240, Note_on_c, 0, 84, 0
2, 36240, Note_on_c, 0, 72, 0
2, 36240, Note_on_c, 0, 83, 86
2, 36240, Note_on_c, 0, 71, 86
2, 36360, Note_on_c, 0, 83, 0
2, 36360, Note_on_c, 0, 74, 86
2, 36480, Note_on_c, 0, 74, 0
2, 36480, Note_on_c, 0, 71, 0
2, 36480, Note_on_c, 0, 69, 86
2, 36480, Note_on_c, 0, 72, 86
2, 36600, Note_on_c, 0, 72, 0
2, 36600, Note_on_c, 0, 81, 86
2, 36720, Note_on_c, 0, 81, 0
2, 36720, Note_on_c, 0, 69, 0
2, 36720, Note_on_c, 0, 71, 86
2, 36816, Note_on_c, 0, 71, 0
2, 36840, Note_on_c, 0, 79, 86
2, 36936, Note_on_c, 0, 79, 0
2, 36960, Note_on_c, 0, 72, 86
2, 36960, Note_on_c, 0, 69, 86
2, 37056, Note_on_c, 0, 69, 0
2, 37056, Note_on_c, 0, 72, 0
2, 37080, Note_on_c, 0, 78, 86
2, 37176, Note_on_c, 0, 78, 0
2, 37200, Note_on_c, 0, 71, 86
2, 37200, Note_on_c, 0, 69, 86
2, 37296, Note_on_c, 0, 69, 0
2, 37296, Note_on_c, 0, 71, 0
2, 37320, Note_on_c, 0, 75, 86
2, 37416, Note_on_c, 0, 75, 0
2, 37440, Note_on_c, 0, 67, 86
2, 37440, Note_on_c, 0, 71, 86
2, 37440, Note_on_c, 0, 76, 86
2, 37920, Note_on_c, 0, 76, 0
2, 37920, Note_on_c, 0, 71, 0
2, 37920, Note_on_c, 0, 67, 0
2, 37920, End_track
3, 0, Start_track
3, 0, Title_t, "Waltz No-04"
3, 0, Program_c, 0, 0
3, 0, Control_c, 0, 7, 110
3, 0, Control_c, 0, 10, 48
3, 720, Note_on_c, 0, 40, 86
3, 796, Control_c, 0, 64, 127
3, 960, Note_on_c, 0, 40, 0
3, 960, Note_on_c, 0, 52, 86
3, 960, Note_on_c, 0, 59, 86
3, 960, Note_on_c, 0, 64, 86
3, 1192, Control_c, 0, 64, 0
3, 1200, Note_on_c, 0, 64, 0
3, 1200, Note_on_c, 0, 59, 0
3, 1200, Note_on_c, 0, 52, 0
3, 1200, Note_on_c, 0, 52, 86
3, 1200, Note_on_c, 0, 59, 86
3, 1200, Note_on_c, 0, 63, 86
3, 1440, Note_on_c, 0, 63, 0
3, 1440, Note_on_c, 0, 59, 0
3, 1440, Note_on_c, 0, 52, 0
3, 1440, Note_on_c, 0, 40, 86
3, 1445, Control_c, 0, 64, 127
3, 1680, Note_on_c, 0, 40, 0
3, 1680, Note_on_c, 0, 52, 86
3, 1680, Note_on_c, 0, 59, 86
3, 1680, Note_on_c, 0, 64, 86
3, 1911, Control_c, 0, 64, 0
3, 1920, Note_on_c, 0, 64, 0
3, 1920, Note_on_c, 0, 59, 0
3, 1920, Note_on_c, 0, 52, 0
3, 1920, Note_on_c, 0, 38, 86
3, 2160, Note_on_c, 0, 38, 0
3, 2160, Note_on_c, 0, 36, 86
3, 2221, Control_c, 0, 64, 127
3, 2400, Note_on_c, 0, 36, 0
3, 2400, Note_on_c, 0, 48, 86
3, 2400, Note_on_c, 0, 55, 86
3, 2400, Note_on_c, 0, 60, 86
3, 2630, Control_c, 0, 64, 0
3, 2640, Note_on_c, 0, 60, 0
3, 2640, Note_on_c, 0, 55, 0
3, 2640, Note_on_c, 0, 48, 0
3, 2640, Note_on_c, 0, 48, 86
3, 2640, Note_on_c, 0, 55, 86
3, 2640, Note_on_c, 0, 59, 86
3, 2880, Note_on_c, 0, 59, 0
3, 2880, Note_on_c, 0, 55, 0
3, 2880, Note_on_c, 0, 48, 0
3, 2880, Note_on_c, 0, 36, 86
3, 2885, Control_c, 0, 64, 127
3, 3120, Note_on_c, 0, 36, 0
3, 3120, Note_on_c, 0, 48, 86
3, 3120, Note_on_c, 0, 55, 86
3, 3120, Note_on_c, 0, 60, 86
3, 3350, Control_c, 0, 64, 0
3, 3360, Note_on_c, 0, 60, 0
3, 3360, Note_on_c, 0, 55, 0
3, 3360, Note_on_c, 0, 48, 0
3, 3360, Note_on_c, 0, 35, 86
3, 3600, Note_on_c, 0, 35, 0
3, 3600, Note_on_c, 0, 34, 86
3, 3661, Control_c, 0, 64, 127
3, 3830, Control_c, 0, 64, 0
3, 3840, Note_on_c, 0, 34, 0
3, 3840, Note_on_c, 0, 52, 86
3, 3840, Note_on_c, 0, 54, 86
3, 3840, Note_on_c, 0, 61, 86
3, 4080, Note_on_c, 0, 61, 0
3, 4080, Note_on_c, 0, 54, 0
3, 4080, Note_on_c, 0, 52, 0
3, 4080, Note_on_c, 0, 35, 86
3, 4080, Note_on_c, 0, 50, 86
3, 4084, Control_c, 0, 64, 127
3, 4225, Control_c, 0, 64, 0
3, 4320, Note_on_c, 0, 50, 0
3, 4320, Note_on_c, 0, 35, 0
3, 4320, Note_on_c, 0, 37, 86
3, 4320, Note_on_c, 0, 49, 86
3, 4394, Control_c, 0, 64, 127
3, 4560, Note_on_c, 0, 49, 0
3, 4560, Note_on_c, 0, 37, 0
3, 4560, Note_on_c, 0, 54, 86
3, 4560, Note_on_c, 0, 58, 86
3, 4560, Note_on_c, 0, 64, 86
3, 4592, Control_c, 0, 64, 0
3, 4800, Note_on_c, 0, 64, 0
3, 4800, Note_on_c, 0, 58, 0
3, 4800, Note_on_c, 0, 54, 0
3, 4800, Note_on_c, 0, 38, 86
3, 4800, Note_on_c, 0, 54, 86
3, 4812, Control_c, 0, 64, 127
3, 4945, Control_c, 0, 64, 0
3, 5040, Note_on_c, 0, 54, 0
3, 5040, Note_on_c, 0, 38, 0
3, 5040, Note_on_c, 0, 40, 86
3, 5040, Note_on_c, 0, 52, 86
3, 5115, Control_c, 0, 64, 127
3, 5255, Control_c, 0, 64, 0
3, 5280, Note_on_c, 0, 52, 0
3, 5280, Note_on_c, 0, 40, 0
3, 5280, Note_on_c, 0, 59, 86
3, 5280, Note_on_c, 0, 61, 86
3, 5280, Note_on_c, 0, 67, 86
3, 5520, Note_on_c, 0, 67, 0
3, 5520, Note_on_c, 0, 61, 0
3, 5520, Note_on_c, 0, 59, 0
3, 5520, Note_on_c, 0, 41, 86
3, 5520, Note_on_c, 0, 53, 86
3, 5760, Note_on_c, 0, 53, 0
3, 5760, Note_on_c, 0, 41, 0
3, 5760, Note_on_c, 0, 42, 86
3, 5760, Note_on_c, 0, 54, 86
3, 5784, Control_c, 0, 64, 127
3, 6000, Note_on_c, 0, 54, 0
3, 6000, Note_on_c, 0, 42, 0
3, 6000, Note_on_c, 0, 54, 86
3, 6000, Note_on_c, 0, 61, 86
3, 6000, Note_on_c, 0, 64, 86
3, 6204, Control_c, 0, 64, 0
3, 6240, Note_on_c, 0, 64, 0
3, 6240, Note_on_c, 0, 61, 0
3, 6240, Note_on_c, 0, 54, 0
3, 6240, Note_on_c, 0, 47, 86
3, 6240, Note_on_c, 0, 54, 86
3, 6240, Note_on_c, 0, 59, 86
3, 6480, Note_on_c, 0, 59, 0
3, 6480, Note_on_c, 0, 54, 0
3, 6480, Note_on_c, 0, 47, 0
3, 6480, Note_on_c, 0, 40, 86
3, 6497, Control_c, 0, 64, 127
3, 6720, Note_on_c, 0, 40, 0
3, 6720, Note_on_c, 0, 52, 86
3, 6720, Note_on_c, 0, 59, 86
3, 6720, Note_on_c, 0, 64, 86
3, 6936, Control_c, 0, 64, 0
3, 6960, Note_on_c, 0, 64, 0
3, 6960, Note_on_c, 0, 59, 0
3, 6960, Note_on_c, 0, 52, 0
3, 6960, Note_on_c, 0, 52, 86
3, 6960, Note_on_c, 0, 59, 86
3, 6960, Note_on_c, 0, 63, 86
3, 7200, Note_on_c, 0, 63, 0
3, 7200, Note_on_c, 0, 59, 0
3, 7200, Note_on_c, 0, 52, 0
3, 7200, Note_on_c, 0, 40, 86
3, 7212, Control_c, 0, 64, 127
3, 7440, Note_on_c, 0, 40, 0
3, 7440, Note_on_c, 0, 52, 86
3, 7440, Note_on_c, 0, 59, 86
3, 7440, Note_on_c, 0, 64, 86
3, 7654, Control_c, 0, 64, 0
3, 7680, Note_on_c, 0, 64, 0
3, 7680, Note_on_c, 0, 59, 0
3, 7680, Note_on_c, 0, 52, 0
3, 7680, Note_on_c, 0, 38, 86
3, 7920, Note_on_c, 0, 38, 0
3, 7920, Note_on_c, 0, 36, 86
3, 7993, Control_c, 0, 64, 127
3, 8160, Note_on_c, 0, 36, 0
3, 8160, Note_on_c, 0, 48, 86
3, 8160, Note_on_c, 0, 55, 86
3, 8160, Note_on_c, 0, 60, 86
3, 8400, Note_on_c, 0, 60, 0
3, 8400, Note_on_c, 0, 55, 0
3, 8400, Note_on_c, 0, 48, 0
3, 8400, Note_on_c, 0, 48, 86
3, 8400, Note_on_c, 0, 55, 86
3, 8400, Note_on_c, 0, 59, 86
3, 8445, Control_c, 0, 64, 0
3, 8640, Note_on_c, 0, 59, 0
3, 8640, Note_on_c, 0, 55, 0
3, 8640, Note_on_c, 0, 48, 0
3, 8640, Note_on_c, 0, 36, 86
3, 8657, Control_c, 0, 64, 127
3, 8880, Note_on_c, 0, 36, 0
3, 8880, Note_on_c, 0, 48, 86
3, 8880, Note_on_c, 0, 55, 86
3, 8880, Note_on_c, 0, 60, 86
3, 9095, Control_c, 0, 64, 0
3, 9120, Note_on_c, 0, 60, 0
3, 9120, Note_on_c, 0, 55, 0
3, 9120, Note_on_c, 0, 48, 0
3, 9120, Note_on_c, 0, 35, 86
3, 9360, Note_on_c, 0, 35, 0
3, 9360, Note_on_c, 0, 34, 86
3, 9433, Control_c, 0, 64, 127
3, 9600, Note_on_c, 0, 34, 0
3, 9600, Note_on_c, 0, 52, 86
3, 9600, Note_on_c, 0, 54, 86
3, 9600, Note_on_c, 0, 61, 86
3, 9617, Control_c, 0, 64, 0
3, 9840, Note_on_c, 0, 61, 0
3, 9840, Note_on_c, 0, 54, 0
3, 9840, Note_on_c, 0, 52, 0
3, 9840, Note_on_c, 0, 35, 86
3, 9840, Note_on_c, 0, 50, 86
3, 9842, Control_c, 0, 64, 127
3, 9913, Control_c, 0, 64, 0
3, 10080, Note_on_c, 0, 50, 0
3, 10080, Note_on_c, 0, 35, 0
3, 10080, Note_on_c, 0, 37, 86
3, 10080, Note_on_c, 0, 49, 86
3, 10154, Control_c, 0, 64, 127
3, 10320, Note_on_c, 0, 49, 0
3, 10320, Note_on_c, 0, 37, 0
3, 10320, Note_on_c, 0, 54, 86
3, 10320, Note_on_c, 0, 58, 86
3, 10320, Note_on_c, 0, 64, 86
3, 10322, Control_c, 0, 64, 0
3, 10560, Note_on_c, 0, 64, 0
3, 10560, Note_on_c, 0, 58, 0
3, 10560, Note_on_c, 0, 54, 0
3, 10560, Note_on_c, 0, 38, 86
3, 10560, Note_on_c, 0, 54, 86
3, 10563, Control_c, 0, 64, 127
3, 10675, Control_c, 0, 64, 0
3, 10800, Note_on_c, 0, 54, 0
3, 10800, Note_on_c, 0, 38, 0
3, 10800, Note_on_c, 0, 40, 86
3, 10800, Note_on_c, 0, 52, 86
3, 10887, Control_c, 0, 64, 127
3, 11040, Note_on_c, 0, 52, 0
3, 11040, Note_on_c, 0, 40, 0
3, 11040, Note_on_c, 0, 59, 86
3, 11040, Note_on_c, 0, 61, 86
3, 11040, Note_on_c, 0, 67, 86
3, 11056, Control_c, 0, 64, 0
3, 11280, Note_on_c, 0, 67, 0
3, 11280, Note_on_c, 0, 61, 0
3, 11280, Note_on_c, 0, 59, 0
3, 11280, Note_on_c, 0, 41, 86
3, 11280, Note_on_c, 0, 53, 86
3, 11520, Note_on_c, 0, 53, 0
3, 11520, Note_on_c, 0, 41, 0
3, 11520, Note_on_c, 0, 42, 86
3, 11520, Note_on_c, 0, 54, 86
3, 11532, Control_c, 0, 64, 127
3, 11760, Note_on_c, 0, 54, 0
3, 11760, Note_on_c, 0, 42, 0
3, 11760, Note_on_c, 0, 54, 86
3, 11760, Note_on_c, 0, 61, 86
3, 11760, Note_on_c, 0, 64, 86
3, 11974, Control_c, 0, 64, 0
3, 12000, Note_on_c, 0, 64, 0
3, 12000, Note_on_c, 0, 61, 0
3, 12000, Note_on_c, 0, 54, 0
3, 12000, Note_on_c, 0, 47, 86
3, 12000, Note_on_c, 0, 54, 86
3, 12000, Note_on_c, 0, 59, 86
3, 12240, Note_on_c, 0, 59, 0
3, 12240, Note_on_c, 0, 54, 0
3, 12240, Note_on_c, 0, 47, 0
3, 12240, Note_on_c, 0, 35, 86
3, 12326, Control_c, 0, 64, 127
3, 12480, Note_on_c, 0, 47, 86
3, 12707, Control_c, 0, 64, 0
3, 12720, Note_on_c, 0, 47, 0
3, 12720, Note_on_c, 0, 35, 0
3, 12720, Note_on_c, 0, 33, 86
3, 12720, Note_on_c, 0, 45, 86
3, 12960, Note_on_c, 0, 45, 0
3, 12960, Note_on_c, 0, 33, 0
3, 12960, Note_on_c, 0, 31, 86
3, 12996, Control_c, 0, 64, 127
3, 13200, Note_on_c, 0, 31, 0
3, 13200, Note_on_c, 0, 43, 86
3, 13380, Control_c, 0, 64, 0
3, 13413, Control_c, 0, 64, 0
3, 13440, Note_on_c, 0, 43, 0
3, 13440, Note_on_c, 0, 43, 86
3, 13440, Note_on_c, 0, 31, 86
3, 13680, Note_on_c, 0, 31, 0
3, 13680, Note_on_c, 0, 43, 0
3, 13680, Note_on_c, 0, 36, 86
3, 13704, Control_c, 0, 64, 127
3, 13920, Note_on_c, 0, 48, 86
3, 14100, Control_c, 0, 64, 0
3, 14133, Control_c, 0, 64, 0
3, 14160, Note_on_c, 0, 48, 0
3, 14160, Note_on_c, 0, 36, 0
3, 14160, Note_on_c, 0, 35, 86
3, 14160, Note_on_c, 0, 47, 86
3, 14400, Note_on_c, 0, 47, 0
3, 14400, Note_on_c, 0, 35, 0
3, 14400, Control_c, 0, 64, 127
3, 14400, Note_on_c, 0, 33, 86
3, 14640, Note_on_c, 0, 45, 86
3, 14808, Control_c, 0, 64, 0
3, 14824, Control_c, 0, 64, 0
3, 14880, Note_on_c, 0, 45, 0
3, 14880, Note_on_c, 0, 33, 0
3, 14880, Note_on_c, 0, 36, 86
3, 14880, Note_on_c, 0, 48, 86
3, 15120, Note_on_c, 0, 48, 0
3, 15120, Note_on_c, 0, 36, 0
3, 15120, Note_on_c, 0, 38, 86
3, 15120, Note_on_c, 0, 50, 86
3, 15121, Control_c, 0, 64, 127
3, 15360, Note_on_c, 0, 50, 0
3, 15360, Note_on_c, 0, 38, 0
3, 15360, Note_on_c, 0, 35, 86
3, 15360, Note_on_c, 0, 47, 86
3, 15600, Note_on_c, 0, 47, 0
3, 15600, Note_on_c, 0, 35, 0
3, 15600, Note_on_c, 0, 32, 86
3, 15600, Note_on_c, 0, 44, 86
3, 15600, Control_c, 0, 64, 0
3, 15840, Note_on_c, 0, 44, 0
3, 15840, Note_on_c, 0, 32, 0
3, 15840, Note_on_c, 0, 38, 86
3, 15840, Note_on_c, 0, 50, 86
3, 15855, Control_c, 0, 64, 127
3, 16080, Note_on_c, 0, 50, 0
3, 16080, Note_on_c, 0, 38, 0
3, 16080, Note_on_c, 0, 35, 86
3, 16080, Note_on_c, 0, 47, 86
3, 16292, Control_c, 0, 64, 0
3, 16320, Note_on_c, 0, 47, 0
3, 16320, Note_on_c, 0, 35, 0
3, 16320, Note_on_c, 0, 32, 86
3, 16320, Note_on_c, 0, 44, 86
3, 16560, Note_on_c, 0, 44, 0
3, 16560, Note_on_c, 0, 32, 0
3, 16560, Control_c, 0, 64, 127
3, 16560, Note_on_c, 0, 38, 86
3, 16560, Note_on_c, 0, 50, 86
3, 16800, Note_on_c, 0, 50, 0
3, 16800, Note_on_c, 0, 38, 0
3, 16800, Note_on_c, 0, 36, 86
3, 16800, Note_on_c, 0, 48, 86
3, 17040, Note_on_c, 0, 48, 0
3, 17040, Note_on_c, 0, 36, 0
3, 17040, Note_on_c, 0, 33, 86
3, 17040, Note_on_c, 0, 45, 86
3, 17040, Control_c, 0, 64, 0
3, 17280, Note_on_c, 0, 45, 0
3, 17280, Note_on_c, 0, 33, 0
3, 17280, Note_on_c, 0, 36, 86
3, 17280, Note_on_c, 0, 48, 86
3, 17294, Control_c, 0, 64, 127
3, 17520, Note_on_c, 0, 48, 0
3, 17520, Note_on_c, 0, 36, 0
3, 17520, Note_on_c, 0, 35, 86
3, 17520, Note_on_c, 0, 47, 86
3, 17736, Control_c, 0, 64, 0
3, 17760, Note_on_c, 0, 47, 0
3, 17760, Note_on_c, 0, 35, 0
3, 17760, Note_on_c, 0, 33, 86
3, 17760, Note_on_c, 0, 45, 86
3, 17774, Control_c, 0, 64, 0
3, 18000, Note_on_c, 0, 45, 0
3, 18000, Note_on_c, 0, 33, 0
3, 18000, Note_on_c, 0, 31, 86
3, 18000, Note_on_c, 0, 43, 86
3, 18014, Control_c, 0, 64, 127
3, 18240, Note_on_c, 0, 43, 0
3, 18240, Note_on_c, 0, 31, 0
3, 18240, Note_on_c, 0, 52, 86
3, 18240, Note_on_c, 0, 59, 86
3, 18240, Note_on_c, 0, 64, 86
3, 18432, Control_c, 0, 64, 0
3, 18465, Control_c, 0, 64, 0
3, 18480, Note_on_c, 0, 64, 0
3, 18480, Note_on_c, 0, 59, 0
3, 18480, Note_on_c, 0, 52, 0
3, 18480, Note_on_c, 0, 35, 86
3, 18480, Note_on_c, 0, 47, 86
3, 18720, Note_on_c, 0, 47, 0
3, 18720, Note_on_c, 0, 35, 0
3, 18720, Note_on_c, 0, 40, 86
3, 18776, Control_c, 0, 64, 127
3, 18960, Note_on_c, 0, 40, 0
3, 18960, Note_on_c, 0, 55, 86
3, 18960, Note_on_c, 0, 59, 86
3, 18960, Note_on_c, 0, 64, 86
3, 19128, Control_c, 0, 64, 0
3, 19171, Control_c, 0, 64, 0
3, 19200, Note_on_c, 0, 64, 0
3, 19200, Note_on_c, 0, 59, 0
3, 19200, Note_on_c, 0, 55, 0
3, 19200, Note_on_c, 0, 42, 86
3, 19440, Note_on_c, 0, 42, 0
3, 19440, Note_on_c, 0, 43, 86
3, 19538, Control_c, 0, 64, 127
3, 19680, Note_on_c, 0, 43, 0
3, 19680, Note_on_c, 0, 55, 86
3, 19680, Note_on_c, 0, 59, 86
3, 19680, Note_on_c, 0, 62, 86
3, 19680, Note_on_c, 0, 67, 86
3, 19905, Control_c, 0, 64, 0
3, 19920, Note_on_c, 0, 67, 0
3, 19920, Note_on_c, 0, 55, 0
3, 19920, Note_on_c, 0, 59, 0
3, 19920, Note_on_c, 0, 62, 0
3, 19920, Note_on_c, 0, 55, 86
3, 19920, Note_on_c, 0, 60, 86
3, 19920, Note_on_c, 0, 63, 86
3, 19920, Note_on_c, 0, 66, 86
3, 20160, Note_on_c, 0, 66, 0
3, 20160, Note_on_c, 0, 55, 0
3, 20160, Note_on_c, 0, 60, 0
3, 20160, Note_on_c, 0, 63, 0
3, 20160, Note_on_c, 0, 43, 86
3, 20244, Control_c, 0, 64, 127
3, 20400, Note_on_c, 0, 43, 0
3, 20400, Note_on_c, 0, 55, 86
3, 20400, Note_on_c, 0, 59, 86
3, 20400, Note_on_c, 0, 62, 86
3, 20400, Note_on_c, 0, 67, 86
3, 20610, Control_c, 0, 64, 0
3, 20640, Note_on_c, 0, 67, 0
3, 20640, Note_on_c, 0, 55, 0
3, 20640, Note_on_c, 0, 59, 0
3, 20640, Note_on_c, 0, 62, 0
3, 20640, Note_on_c, 0, 45, 86
3, 20880, Note_on_c, 0, 45, 0
3, 20880, Note_on_c, 0, 47, 86
3, 21120, Note_on_c, 0, 47, 0
3, 21120, Note_on_c, 0, 59, 86
3, 21120, Note_on_c, 0, 63, 86
3, 21120, Note_on_c, 0, 66, 86
3, 21120, Note_on_c, 0, 71, 86
3, 21360, Note_on_c, 0, 71, 0
3, 21360, Note_on_c, 0, 59, 0
3, 21360, Note_on_c, 0, 63, 0
3, 21360, Note_on_c, 0, 66, 0
3, 21360, Note_on_c, 0, 58, 86
3, 21360, Note_on_c, 0, 64, 86
3, 21360, Note_on_c, 0, 67, 86
3, 21360, Note_on_c, 0, 73, 86
3, 21372, Control_c, 0, 64, 127
3, 21598, Control_c, 0, 64, 0
3, 21600, Note_on_c, 0, 73, 0
3, 21600, Note_on_c, 0, 58, 0
3, 21600, Note_on_c, 0, 64, 0
3, 21600, Note_on_c, 0, 67, 0
3, 21600, Note_on_c, 0, 47, 86
3, 21840, Note_on_c, 0, 47, 0
3, 21840, Note_on_c, 0, 59, 86
3, 21840, Note_on_c, 0, 63, 86
3, 21840, Note_on_c, 0, 66, 86
3, 21840, Note_on_c, 0, 71, 86
3, 22080, Note_on_c, 0, 71, 0
3, 22080, Note_on_c, 0, 59, 0
3, 22080, Note_on_c, 0, 63, 0
3, 22080, Note_on_c, 0, 66, 0
3, 22080, Note_on_c, 0, 58, 86
3, 22080, Note_on_c, 0, 64, 86
3, 22080, Note_on_c, 0, 67, 86
3, 22080, Note_on_c, 0, 73, 86
3, 22092, Control_c, 0, 64, 127
3, 22318, Control_c, 0, 64, 0
3, 22320, Note_on_c, 0, 73, 0
3, 22320, Note_on_c, 0, 58, 0
3, 22320, Note_on_c, 0, 64, 0
3, 22320, Note_on_c, 0, 67, 0
3, 22320, Note_on_c, 0, 59, 86
3, 22320, Note_on_c, 0, 63, 86
3, 22320, Note_on_c, 0, 66, 86
3, 22320, Note_on_c, 0, 71, 86
3, 22560, Note_on_c, 0, 71, 0
3, 22560, Note_on_c, 0, 59, 0
3, 22560, Note_on_c, 0, 63, 0
3, 22560, Note_on_c, 0, 66, 0
3, 22560, Note_on_c, 0, 56, 86
3, 22560, Note_on_c, 0, 62, 86
3, 22560, Note_on_c, 0, 65, 86
3, 22560, Note_on_c, 0, 71, 86
3, 22572, Control_c, 0, 64, 127
3, 22800, Note_on_c, 0, 71, 0
3, 22800, Note_on_c, 0, 56, 0
3, 22800, Note_on_c, 0, 62, 0
3, 22800, Note_on_c, 0, 65, 0
3, 22800, Note_on_c, 0, 57, 86
3, 22800, Note_on_c, 0, 60, 86
3, 22800, Note_on_c, 0, 64, 86
3, 22800, Note_on_c, 0, 69, 86
3, 23040, Note_on_c, 0, 69, 0
3, 23040, Note_on_c, 0, 57, 0
3, 23040, Note_on_c, 0, 60, 0
3, 23040, Note_on_c, 0, 64, 0
3, 23040, Note_on_c, 0, 54, 86
3, 23040, Note_on_c, 0, 60, 86
3, 23040, Note_on_c, 0, 63, 86
3, 23040, Note_on_c, 0, 69, 86
3, 23051, Control_c, 0, 64, 0
3, 23280, Note_on_c, 0, 69, 0
3, 23280, Note_on_c, 0, 54, 0
3, 23280, Note_on_c, 0, 60, 0
3, 23280, Note_on_c, 0, 63, 0
3, 23280, Note_on_c, 0, 55, 86
3, 23280, Note_on_c, 0, 59, 86
3, 23280, Note_on_c, 0, 62, 86
3, 23280, Note_on_c, 0, 67, 86
3, 23304, Control_c, 0, 64, 127
3, 23520, Note_on_c, 0, 67, 0
3, 23520, Note_on_c, 0, 55, 0
3, 23520, Note_on_c, 0, 59, 0
3, 23520, Note_on_c, 0, 62, 0
3, 23520, Note_on_c, 0, 51, 86
3, 23520, Note_on_c, 0, 57, 86
3, 23520, Note_on_c, 0, 60, 86
3, 23520, Note_on_c, 0, 66, 86
3, 23758, Control_c, 0, 64, 0
3, 23760, Note_on_c, 0, 66, 0
3, 23760, Note_on_c, 0, 51, 0
3, 23760, Note_on_c, 0, 57, 0
3, 23760, Note_on_c, 0, 60, 0
3, 23760, Note_on_c, 0, 64, 86
3, 23760, Note_on_c, 0, 59, 86
3, 23760, Note_on_c, 0, 55, 86
3, 23760, Note_on_c, 0, 52, 86
3, 23952, Note_on_c, 0, 52, 0
3, 23952, Note_on_c, 0, 64, 0
3, 23952, Note_on_c, 0, 59, 0
3, 23952, Note_on_c, 0, 55, 0
3, 24000, Note_on_c, 0, 60, 86
3, 24000, Note_on_c, 0, 54, 86
3, 24000, Note_on_c, 0, 48, 86
3, 24000, Note_on_c, 0, 45, 86
3, 24192, Note_on_c, 0, 45, 0
3, 24192, Note_on_c, 0, 60, 0
3, 24192, Note_on_c, 0, 54, 0
3, 24192, Note_on_c, 0, 48, 0
3, 24240, Note_on_c, 0, 47, 86
3, 24240, Note_on_c, 0, 54, 86
3, 24240, Note_on_c, 0, 59, 86
3, 24432, Note_on_c, 0, 59, 0
3, 24432, Note_on_c, 0, 54, 0
3, 24432, Note_on_c, 0, 47, 0
3, 24480, Note_on_c, 0, 40, 86
3, 24562, Control_c, 0, 64, 127
3, 24672, Note_on_c, 0, 40, 0
3, 24720, Note_on_c, 0, 64, 86
3, 24720, Note_on_c, 0, 59, 86
3, 24720, Note_on_c, 0, 55, 86
3, 24912, Note_on_c, 0, 55, 0
3, 24912, Note_on_c, 0, 59, 0
3, 24912, Note_on_c, 0, 64, 0
3, 24957, Control_c, 0, 64, 0
3, 24960, Note_on_c, 0, 47, 86
3, 25152, Note_on_c, 0, 47, 0
3, 25200, Note_on_c, 0, 35, 86
3, 25267, Control_c, 0, 64, 127
3, 25440, Note_on_c, 0, 47, 86
3, 25662, Control_c, 0, 64, 0
3, 25680, Note_on_c, 0, 47, 0
3, 25680, Note_on_c, 0, 35, 0
3, 25680, Note_on_c, 0, 33, 86
3, 25680, Note_on_c, 0, 45, 86
3, 25920, Note_on_c, 0, 45, 0
3, 25920, Note_on_c, 0, 33, 0
3, 25920, Note_on_c, 0, 31, 86
3, 25945, Control_c, 0, 64, 127
3, 26160, Note_on_c, 0, 31, 0
3, 26160, Note_on_c, 0, 43, 86
3, 26397, Control_c, 0, 64, 0
3, 26400, Note_on_c, 0, 43, 0
3, 26400, Note_on_c, 0, 43, 86
3, 26400, Note_on_c, 0, 31, 86
3, 26640, Note_on_c, 0, 31, 0
3, 26640, Note_on_c, 0, 43, 0
3, 26640, Note_on_c, 0, 36, 86
3, 26664, Control_c, 0, 64, 127
3, 26880, Note_on_c, 0, 48, 86
3, 27072, Control_c, 0, 64, 0
3, 27116, Control_c, 0, 64, 0
3, 27120, Note_on_c, 0, 48, 0
3, 27120, Note_on_c, 0, 36, 0
3, 27120, Note_on_c, 0, 35, 86
3, 27120, Note_on_c, 0, 47, 86
3, 27360, Note_on_c, 0, 47, 0
3, 27360, Note_on_c, 0, 35, 0
3, 27360, Note_on_c, 0, 33, 86
3, 27384, Control_c, 0, 64, 127
3, 27600, Note_on_c, 0, 45, 86
3, 27816, Control_c, 0, 64, 0
3, 27840, Note_on_c, 0, 45, 0
3, 27840, Note_on_c, 0, 33, 0
3, 27840, Note_on_c, 0, 36, 86
3, 27840, Note_on_c, 0, 48, 86
3, 27849, Control_c, 0, 64, 0
3, 28080, Note_on_c, 0, 48, 0
3, 28080, Note_on_c, 0, 36, 0
3, 28080, Note_on_c, 0, 38, 86
3, 28080, Note_on_c, 0, 50, 86
3, 28092, Control_c, 0, 64, 127
3, 28320, Note_on_c, 0, 50, 0
3, 28320, Note_on_c, 0, 38, 0
3, 28320, Note_on_c, 0, 35, 86
3, 28320, Note_on_c, 0, 47, 86
3, 28536, Control_c, 0, 64, 0
3, 28560, Note_on_c, 0, 47, 0
3, 28560, Note_on_c, 0, 35, 0
3, 28560, Note_on_c, 0, 32, 86
3, 28560, Note_on_c, 0, 44, 86
3, 28570, Control_c, 0, 64, 0
3, 28800, Note_on_c, 0, 44, 0
3, 28800, Note_on_c, 0, 32, 0
3, 28800, Note_on_c, 0, 38, 86
3, 28800, Note_on_c, 0, 50, 86
3, 28824, Control_c, 0, 64, 127
3, 29040, Note_on_c, 0, 50, 0
3, 29040, Note_on_c, 0, 38, 0
3, 29040, Note_on_c, 0, 35, 86
3, 29040, Note_on_c, 0, 47, 86
3, 29275, Control_c, 0, 64, 0
3, 29280, Note_on_c, 0, 47, 0
3, 29280, Note_on_c, 0, 35, 0
3, 29280, Note_on_c, 0, 32, 86
3, 29280, Note_on_c, 0, 44, 86
3, 29520, Note_on_c, 0, 44, 0
3, 29520, Note_on_c, 0, 32, 0
3, 29520, Note_on_c, 0, 38, 86
3, 29520, Note_on_c, 0, 50, 86
3, 29544, Control_c, 0, 64, 127
3, 29760, Note_on_c, 0, 50, 0
3, 29760, Note_on_c, 0, 38, 0
3, 29760, Note_on_c, 0, 36, 86
3, 29760, Note_on_c, 0, 48, 86
3, 29981, Control_c, 0, 64, 0
3, 30000, Note_on_c, 0, 48, 0
3, 30000, Note_on_c, 0, 36, 0
3, 30000, Note_on_c, 0, 33, 86
3, 30000, Note_on_c, 0, 45, 86
3, 30240, Note_on_c, 0, 45, 0
3, 30240, Note_on_c, 0, 33, 0
3, 30240, Note_on_c, 0, 36, 86
3, 30240, Note_on_c, 0, 48, 86
3, 30264, Control_c, 0, 64, 127
3, 30480, Note_on_c, 0, 48, 0
3, 30480, Note_on_c, 0, 36, 0
3, 30480, Note_on_c, 0, 35, 86
3, 30480, Note_on_c, 0, 47, 86
3, 30701, Control_c, 0, 64, 0
3, 30720, Note_on_c, 0, 47, 0
3, 30720, Note_on_c, 0, 35, 0
3, 30720, Note_on_c, 0, 33, 86
3, 30720, Note_on_c, 0, 45, 86
3, 30960, Note_on_c, 0, 45, 0
3, 30960, Note_on_c, 0, 33, 0
3, 30960, Note_on_c, 0, 31, 86
3, 30960, Note_on_c, 0, 43, 86
3, 30984, Control_c, 0, 64, 127
3, 31200, Note_on_c, 0, 43, 0
3, 31200, Note_on_c, 0, 31, 0
3, 31200, Note_on_c, 0, 52, 86
3, 31200, Note_on_c, 0, 59, 86
3, 31200, Note_on_c, 0, 64, 86
3, 31434, Control_c, 0, 64, 0
3, 31440, Note_on_c, 0, 64, 0
3, 31440, Note_on_c, 0, 59, 0
3, 31440, Note_on_c, 0, 52, 0
3, 31440, Note_on_c, 0, 35, 86
3, 31440, Note_on_c, 0, 47, 86
3, 31680, Note_on_c, 0, 47, 0
3, 31680, Note_on_c, 0, 35, 0
3, 31680, Note_on_c, 0, 40, 86
3, 31744, Control_c, 0, 64, 127
3, 31920, Note_on_c, 0, 40, 0
3, 31920, Note_on_c, 0, 55, 86
3, 31920, Note_on_c, 0, 59, 86
3, 31920, Note_on_c, 0, 64, 86
3, 32140, Control_c, 0, 64, 0
3, 32160, Note_on_c, 0, 64, 0
3, 32160, Note_on_c, 0, 59, 0
3, 32160, Note_on_c, 0, 55, 0
3, 32160, Note_on_c, 0, 42, 86
3, 32400, Note_on_c, 0, 42, 0
3, 32400, Note_on_c, 0, 43, 86
3, 32465, Control_c, 0, 64, 127
3, 32640, Note_on_c, 0, 43, 0
3, 32640, Note_on_c, 0, 55, 86
3, 32640, Note_on_c, 0, 59, 86
3, 32640, Note_on_c, 0, 62, 86
3, 32640, Note_on_c, 0, 67, 86
3, 32873, Control_c, 0, 64, 0
3, 32880, Note_on_c, 0, 67, 0
3, 32880, Note_on_c, 0, 55, 0
3, 32880, Note_on_c, 0, 59, 0
3, 32880, Note_on_c, 0, 62, 0
3, 32880, Note_on_c, 0, 55, 86
3, 32880, Note_on_c, 0, 60, 86
3, 32880, Note_on_c, 0, 63, 86
3, 32880, Note_on_c, 0, 66, 86
3, 33120, Note_on_c, 0, 66, 0
3, 33120, Note_on_c, 0, 55, 0
3, 33120, Note_on_c, 0, 60, 0
3, 33120, Note_on_c, 0, 63, 0
3, 33120, Note_on_c, 0, 43, 86
3, 33198, Control_c, 0, 64, 127
3, 33360, Note_on_c, 0, 43, 0
3, 33360, Note_on_c, 0, 55, 86
3, 33360, Note_on_c, 0, 59, 86
3, 33360, Note_on_c, 0, 62, 86
3, 33360, Note_on_c, 0, 67, 86
3, 33600, Note_on_c, 0, 67, 0
3, 33600, Note_on_c, 0, 55, 0
3, 33600, Note_on_c, 0, 59, 0
3, 33600, Note_on_c, 0, 62, 0
3, 33600, Note_on_c, 0, 45, 86
3, 33608, Control_c, 0, 64, 0
3, 33840, Note_on_c, 0, 45, 0
3, 33840, Note_on_c, 0, 47, 86
3, 34080, Note_on_c, 0, 47, 0
3, 34080, Note_on_c, 0, 59, 86
3, 34080, Note_on_c, 0, 63, 86
3, 34080, Note_on_c, 0, 66, 86
3, 34080, Note_on_c, 0, 71, 86
3, 34320, Note_on_c, 0, 71, 0
3, 34320, Note_on_c, 0, 59, 0
3, 34320, Note_on_c, 0, 63, 0
3, 34320, Note_on_c, 0, 66, 0
3, 34320, Note_on_c, 0, 58, 86
3, 34320, Note_on_c, 0, 64, 86
3, 34320, Note_on_c, 0, 67, 86
3, 34320, Note_on_c, 0, 73, 86
3, 34332, Control_c, 0, 64, 127
3, 34548, Control_c, 0, 64, 0
3, 34560, Note_on_c, 0, 73, 0
3, 34560, Note_on_c, 0, 58, 0
3, 34560, Note_on_c, 0, 64, 0
3, 34560, Note_on_c, 0, 67, 0
3, 34560, Note_on_c, 0, 47, 86
3, 34567, Control_c, 0, 64, 0
3, 34800, Note_on_c, 0, 47, 0
3, 34800, Note_on_c, 0, 59, 86
3, 34800, Note_on_c, 0, 63, 86
3, 34800, Note_on_c, 0, 66, 86
3, 34800, Note_on_c, 0, 71, 86
3, 35040, Note_on_c, 0, 71, 0
3, 35040, Note_on_c, 0, 59, 0
3, 35040, Note_on_c, 0, 63, 0
3, 35040, Note_on_c, 0, 66, 0
3, 35040, Note_on_c, 0, 58, 86
3, 35040, Note_on_c, 0, 64, 86
3, 35040, Note_on_c, 0, 67, 86
3, 35040, Note_on_c, 0, 73, 86
3, 35052, Control_c, 0, 64, 127
3, 35256, Control_c, 0, 64, 0
3, 35280, Note_on_c, 0, 73, 0
3, 35280, Note_on_c, 0, 58, 0
3, 35280, Note_on_c, 0, 64, 0
3, 35280, Note_on_c, 0, 67, 0
3, 35280, Note_on_c, 0, 59, 86
3, 35280, Note_on_c, 0, 63, 86
3, 35280, Note_on_c, 0, 66, 86
3, 35280, Note_on_c, 0, 71, 86
3, 35287, Control_c, 0, 64, 0
3, 35520, Note_on_c, 0, 71, 0
3, 35520, Note_on_c, 0, 59, 0
3, 35520, Note_on_c, 0, 63, 0
3, 35520, Note_on_c, 0, 66, 0
3, 35520, Note_on_c, 0, 56, 86
3, 35520, Note_on_c, 0, 62, 86
3, 35520, Note_on_c, 0, 65, 86
3, 35520, Note_on_c, 0, 71, 86
3, 35532, Control_c, 0, 64, 127
3, 35760, Note_on_c, 0, 71, 0
3, 35760, Note_on_c, 0, 56, 0
3, 35760, Note_on_c, 0, 62, 0
3, 35760, Note_on_c, 0, 65, 0
3, 35760, Note_on_c, 0, 57, 86
3, 35760, Note_on_c, 0, 60, 86
3, 35760, Note_on_c, 0, 64, 86
3, 35760, Note_on_c, 0, 69, 86
3, 35979, Control_c, 0, 64, 0
3, 36000, Note_on_c, 0, 69, 0
3, 36000, Note_on_c, 0, 57, 0
3, 36000, Note_on_c, 0, 60, 0
3, 36000, Note_on_c, 0, 64, 0
3, 36000, Note_on_c, 0, 54, 86
3, 36000, Note_on_c, 0, 60, 86
3, 36000, Note_on_c, 0, 63, 86
3, 36000, Note_on_c, 0, 69, 86
3, 36240, Note_on_c, 0, 69, 0
3, 36240, Note_on_c, 0, 54, 0
3, 36240, Note_on_c, 0, 60, 0
3, 36240, Note_on_c, 0, 63, 0
3, 36240, Note_on_c, 0, 55, 86
3, 36240, Note_on_c, 0, 59, 86
3, 36240, Note_on_c, 0, 62, 86
3, 36240, Note_on_c, 0, 67, 86
3, 36264, Control_c, 0, 64, 127
3, 36480, Note_on_c, 0, 67, 0
3, 36480, Note_on_c, 0, 55, 0
3, 36480, Note_on_c, 0, 59, 0
3, 36480, Note_on_c, 0, 62, 0
3, 36480, Note_on_c, 0, 51, 86
3, 36480, Note_on_c, 0, 57, 86
3, 36480, Note_on_c, 0, 60, 86
3, 36480, Note_on_c, 0, 66, 86
3, 36696, Control_c, 0, 64, 0
3, 36712, Control_c, 0, 64, 0
3, 36720, Note_on_c, 0, 66, 0
3, 36720, Note_on_c, 0, 51, 0
3, 36720, Note_on_c, 0, 57, 0
3, 36720, Note_on_c, 0, 60, 0
3, 36720, Note_on_c, 0, 64, 86
3, 36720, Note_on_c, 0, 59, 86
3, 36720, Note_on_c, 0, 55, 86
3, 36720, Note_on_c, 0, 52, 86
3, 36912, Note_on_c, 0, 52, 0
3, 36912, Note_on_c, 0, 64, 0
3, 36912, Note_on_c, 0, 59, 0
3, 36912, Note_on_c, 0, 55, 0
3, 36960, Note_on_c, 0, 60, 86
3, 36960, Note_on_c, 0, 54, 86
3, 36960, Note_on_c, 0, 48, 86
3, 36960, Note_on_c, 0, 45, 86
3, 37152, Note_on_c, 0, 45, 0
3, 37152, Note_on_c, 0, 60, 0
3, 37152, Note_on_c, 0, 54, 0
3, 37152, Note_on_c, 0, 48, 0
3, 37200, Note_on_c, 0, 47, 86
3, 37200, Note_on_c, 0, 54, 86
3, 37200, Note_on_c, 0, 59, 86
3, 37392, Note_on_c, 0, 59, 0
3, 37392, Note_on_c, 0, 54, 0
3, 37392, Note_on_c, 0, 47, 0
3, 37440, Note_on_c, 0, 40, 86
3, 37517, Control_c, 0, 64, 127
3, 37680, Note_on_c, 0, 40, 0
3, 37680, Note_on_c, 0, 55, 86
3, 37680, Note_on_c, 0, 59, 86
3, 37680, Note_on_c, 0, 64, 86
3, 37920, Note_on_c, 0, 64, 0
3, 37920, Note_on_c, 0, 59, 0
3, 37920, Note_on_c, 0, 55, 0
3, 38166, Control_c, 0, 64, 0
3, 38166, End_track
0, 0, End_of_file
