0, 0, Header, 1, 3, 240
1, 0, Start_track
1, 0, Title_t, "untitled"
1, 0, Time_signature, 3, 2, 24, 8
1, 0, Key_signature, 0, "major"
1, 0, Tempo, 419580
1, 0, End_track
2, 0, Start_track
2, 0, Title_t, "Brahms"
2, 0, Program_c, 0, 0
2, 0, Control_c, 0, 7, 110
2, 0, Control_c, 0, 10, 79
2, 0, Note_on_c, 0, 73, 79
2, 0, Note_on_c, 0, 76, 79
2, 30, Note_on_c, 0, 76, 0
2, 30, Note_on_c, 0, 73, 0
2, 30, Note_on_c, 0, 71, 79
2, 30, Note_on_c, 0, 74, 79
2, 156, Note_on_c, 0, 74, 0
2, 160, Note_on_c, 0, 71, 0
2, 240, Note_on_c, 0, 71, 79
2, 240, Note_on_c, 0, 74, 79
2, 360, Note_on_c, 0, 74, 0
2, 360, Note_on_c, 0, 71, 0
2, 360, Note_on_c, 0, 73, 79
2, 360, Note_on_c, 0, 76, 79
2, 480, Note_on_c, 0, 76, 0
2, 480, Note_on_c, 0, 73, 0
2, 480, Note_on_c, 0, 71, 79
2, 480, Note_on_c, 0, 74, 79
2, 720, Note_on_c, 0, 74, 0
2, 720, Note_on_c, 0, 71, 0
2, 720, Note_on_c, 0, 70, 79
2, 720, Note_on_c, 0, 73, 79
2, 960, Note_on_c, 0, 73, 0
2, 960, Note_on_c, 0, 70, 0
2, 960, Note_on_c, 0, 71, 79
2, 960, Note_on_c, 0, 74, 79
2, 1200, Note_on_c, 0, 74, 0
2, 1200, Note_on_c, 0, 71, 0
2, 1200, Note_on_c, 0, 73, 79
2, 1200, Note_on_c, 0, 76, 79
2, 1440, Note_on_c, 0, 76, 0
2, 1440, Note_on_c, 0, 73, 0
2, 1440, Note_on_c, 0, 76, 79
2, 1440, Note_on_c, 0, 79, 79
2, 1470, Note_on_c, 0, 79, 0
2, 1470, Note_on_c, 0, 76, 0
2, 1470, Note_on_c, 0, 78, 79
2, 1470, Note_on_c, 0, 74, 79
2, 1596, Note_on_c, 0, 74, 0
2, 1596, Note_on_c, 0, 78, 0
2, 1680, Note_on_c, 0, 74, 79
2, 1680, Note_on_c, 0, 78, 79
2, 1800, Note_on_c, 0, 78, 0
2, 1800, Note_on_c, 0, 74, 0
2, 1800, Note_on_c, 0, 76, 79
2, 1800, Note_on_c, 0, 79, 79
2, 1920, Note_on_c, 0, 79, 0
2, 1920, Note_on_c, 0, 76, 0
2, 1920, Note_on_c, 0, 78, 79
2, 1920, Note_on_c, 0, 74, 79
2, 2160, Note_on_c, 0, 74, 0
2, 2160, Note_on_c, 0, 73, 79
2, 2880, Note_on_c, 0, 73, 0
2, 2880, Note_on_c, 0, 78, 0
2, 2880, Note_on_c, 0, 73, 79
2, 2880, Note_on_c, 0, 80, 79
2, 2910, Note_on_c, 0, 80, 0
2, 2910, Note_on_c, 0, 78, 79
2, 3024, Note_on_c, 0, 73, 0
2, 3036, Note_on_c, 0, 78, 0
2, 3120, Note_on_c, 0, 73, 79
2, 3120, Note_on_c, 0, 78, 79
2, 3240, Note_on_c, 0, 78, 0
2, 3240, Note_on_c, 0, 80, 79
2, 3360, Note_on_c, 0, 80, 0
2, 3360, Note_on_c, 0, 78, 79
2, 3600, Note_on_c, 0, 78, 0
2, 3600, Note_on_c, 0, 73, 0
2, 3600, Note_on_c, 0, 77, 79
2, 3600, Note_on_c, 0, 80, 79
2, 3840, Note_on_c, 0, 80, 0
2, 3840, Note_on_c, 0, 77, 0
2, 3840, Note_on_c, 0, 78, 79
2, 3840, Note_on_c, 0, 81, 79
2, 4080, Note_on_c, 0, 81, 0
2, 4080, Note_on_c, 0, 78, 0
2, 4080, Note_on_c, 0, 80, 79
2, 4080, Note_on_c, 0, 83, 79
2, 4320, Note_on_c, 0, 83, 0
2, 4320, Note_on_c, 0, 80, 0
2, 4320, Note_on_c, 0, 83, 79
2, 4320, Note_on_c, 0, 86, 79
2, 4350, Note_on_c, 0, 86, 0
2, 4350, Note_on_c, 0, 83, 0
2, 4350, Note_on_c, 0, 85, 79
2, 4350, Note_on_c, 0, 81, 79
2, 4476, Note_on_c, 0, 81, 0
2, 4476, Note_on_c, 0, 85, 0
2, 4560, Note_on_c, 0, 81, 79
2, 4560, Note_on_c, 0, 85, 79
2, 4680, Note_on_c, 0, 85, 0
2, 4680, Note_on_c, 0, 81, 0
2, 4680, Note_on_c, 0, 83, 79
2, 4680, Note_on_c, 0, 86, 79
2, 4800, Note_on_c, 0, 86, 0
2, 4800, Note_on_c, 0, 83, 0
2, 4800, Note_on_c, 0, 85, 79
2, 4800, Note_on_c, 0, 81, 79
2, 5040, Note_on_c, 0, 81, 0
2, 5040, Note_on_c, 0, 80, 79
2, 5760, Note_on_c, 0, 80, 0
2, 5760, Note_on_c, 0, 85, 0
2, 5760, Note_on_c, 0, 79, 79
2, 5760, Note_on_c, 0, 86, 79
2, 5790, Note_on_c, 0, 86, 0
2, 5790, Note_on_c, 0, 85, 79
2, 5916, Note_on_c, 0, 85, 0
2, 6000, Note_on_c, 0, 79, 0
2, 6000, Note_on_c, 0, 85, 79
2, 6000, Note_on_c, 0, 79, 79
2, 6072, Note_on_c, 0, 85, 0
2, 6120, Note_on_c, 0, 86, 79
2, 6240, Note_on_c, 0, 86, 0
2, 6240, Note_on_c, 0, 85, 79
2, 6288, Note_on_c, 0, 79, 0
2, 6480, Note_on_c, 0, 78, 79
2, 6960, Note_on_c, 0, 85, 0
2, 6960, Note_on_c, 0, 83, 79
2, 7200, Note_on_c, 0, 83, 0
2, 7200, Note_on_c, 0, 78, 0
2, 7200, Note_on_c, 0, 76, 79
2, 7200, Note_on_c, 0, 85, 79
2, 7230, Note_on_c, 0, 85, 0
2, 7230, Note_on_c, 0, 83, 79
2, 7356, Note_on_c, 0, 83, 0
2, 7440, Note_on_c, 0, 83, 79
2, 7519, Note_on_c, 0, 83, 0
2, 7519, Note_on_c, 0, 85, 79
2, 7599, Note_on_c, 0, 85, 0
2, 7599, Note_on_c, 0, 83, 79
2, 7632, Note_on_c, 0, 76, 0
2, 7679, Note_on_c, 0, 83, 0
2, 7680, Note_on_c, 0, 81, 79
2, 7920, Note_on_c, 0, 74, 79
2, 8400, Note_on_c, 0, 81, 0
2, 8400, Note_on_c, 0, 79, 79
2, 8640, Note_on_c, 0, 79, 0
2, 8640, Note_on_c, 0, 74, 0
2, 8640, Note_on_c, 0, 73, 79
2, 8640, Note_on_c, 0, 81, 79
2, 8670, Note_on_c, 0, 81, 0
2, 8670, Note_on_c, 0, 79, 79
2, 8796, Note_on_c, 0, 79, 0
2, 8880, Note_on_c, 0, 79, 79
2, 8959, Note_on_c, 0, 79, 0
2, 8959, Note_on_c, 0, 81, 79
2, 9039, Note_on_c, 0, 81, 0
2, 9039, Note_on_c, 0, 79, 79
2, 9119, Note_on_c, 0, 79, 0
2, 9120, Note_on_c, 0, 78, 79
2, 9360, Note_on_c, 0, 78, 0
2, 9360, Note_on_c, 0, 73, 0
2, 9360, Note_on_c, 0, 71, 79
2, 9360, Note_on_c, 0, 81, 79
2, 9840, Note_on_c, 0, 81, 0
2, 9840, Note_on_c, 0, 71, 0
2, 9840, Note_on_c, 0, 77, 79
2, 10080, Note_on_c, 0, 77, 0
2, 10080, Note_on_c, 0, 69, 79
2, 10080, Note_on_c, 0, 73, 79
2, 10080, Note_on_c, 0, 80, 79
2, 10200, Note_on_c, 0, 80, 0
2, 10200, Note_on_c, 0, 78, 79
2, 10320, Note_on_c, 0, 78, 0
2, 10320, Note_on_c, 0, 73, 0
2, 10320, Note_on_c, 0, 69, 0
2, 10440, Note_on_c, 0, 77, 79
2, 10560, Note_on_c, 0, 77, 0
2, 10560, Note_on_c, 0, 69, 79
2, 10560, Note_on_c, 0, 73, 79
2, 10560, Note_on_c, 0, 80, 79
2, 10590, Note_on_c, 0, 80, 0
2, 10590, Note_on_c, 0, 78, 79
2, 10680, Note_on_c, 0, 78, 0
2, 10740, Note_on_c, 0, 77, 79
2, 10800, Note_on_c, 0, 77, 0
2, 10800, Note_on_c, 0, 73, 0
2, 10800, Note_on_c, 0, 69, 0
2, 10800, Note_on_c, 0, 69, 79
2, 10800, Note_on_c, 0, 73, 79
2, 10800, Note_on_c, 0, 78, 79
2, 11280, Note_on_c, 0, 78, 0
2, 11280, Note_on_c, 0, 73, 0
2, 11280, Note_on_c, 0, 69, 0
2, 11520, Note_on_c, 0, 73, 79
2, 11520, Note_on_c, 0, 76, 79
2, 11550, Note_on_c, 0, 76, 0
2, 11550, Note_on_c, 0, 73, 0
2, 11550, Note_on_c, 0, 71, 79
2, 11550, Note_on_c, 0, 74, 79
2, 11676, Note_on_c, 0, 74, 0
2, 11680, Note_on_c, 0, 71, 0
2, 11760, Note_on_c, 0, 71, 79
2, 11760, Note_on_c, 0, 74, 79
2, 11880, Note_on_c, 0, 74, 0
2, 11880, Note_on_c, 0, 71, 0
2, 11880, Note_on_c, 0, 73, 79
2, 11880, Note_on_c, 0, 76, 79
2, 12000, Note_on_c, 0, 76, 0
2, 12000, Note_on_c, 0, 73, 0
2, 12000, Note_on_c, 0, 71, 79
2, 12000, Note_on_c, 0, 74, 79
2, 12240, Note_on_c, 0, 74, 0
2, 12240, Note_on_c, 0, 71, 0
2, 12240, Note_on_c, 0, 70, 79
2, 12240, Note_on_c, 0, 73, 79
2, 12480, Note_on_c, 0, 73, 0
2, 12480, Note_on_c, 0, 70, 0
2, 12480, Note_on_c, 0, 71, 79
2, 12480, Note_on_c, 0, 74, 79
2, 12720, Note_on_c, 0, 74, 0
2, 12720, Note_on_c, 0, 71, 0
2, 12720, Note_on_c, 0, 73, 79
2, 12720, Note_on_c, 0, 76, 79
2, 12960, Note_on_c, 0, 76, 0
2, 12960, Note_on_c, 0, 73, 0
2, 12960, Note_on_c, 0, 76, 79
2, 12960, Note_on_c, 0, 79, 79
2, 12990, Note_on_c, 0, 79, 0
2, 12990, Note_on_c, 0, 76, 0
2, 12990, Note_on_c, 0, 78, 79
2, 12990, Note_on_c, 0, 74, 79
2, 13116, Note_on_c, 0, 74, 0
2, 13116, Note_on_c, 0, 78, 0
2, 13200, Note_on_c, 0, 74, 79
2, 13200, Note_on_c, 0, 78, 79
2, 13320, Note_on_c, 0, 78, 0
2, 13320, Note_on_c, 0, 74, 0
2, 13320, Note_on_c, 0, 76, 79
2, 13320, Note_on_c, 0, 79, 79
2, 13440, Note_on_c, 0, 79, 0
2, 13440, Note_on_c, 0, 76, 0
2, 13440, Note_on_c, 0, 78, 79
2, 13440, Note_on_c, 0, 74, 79
2, 13680, Note_on_c, 0, 74, 0
2, 13680, Note_on_c, 0, 73, 79
2, 14400, Note_on_c, 0, 73, 0
2, 14400, Note_on_c, 0, 78, 0
2, 14400, Note_on_c, 0, 73, 79
2, 14400, Note_on_c, 0, 80, 79
2, 14430, Note_on_c, 0, 80, 0
2, 14430, Note_on_c, 0, 78, 79
2, 14544, Note_on_c, 0, 73, 0
2, 14556, Note_on_c, 0, 78, 0
2, 14640, Note_on_c, 0, 73, 79
2, 14640, Note_on_c, 0, 78, 79
2, 14760, Note_on_c, 0, 78, 0
2, 14760, Note_on_c, 0, 80, 79
2, 14880, Note_on_c, 0, 80, 0
2, 14880, Note_on_c, 0, 78, 79
2, 15120, Note_on_c, 0, 78, 0
2, 15120, Note_on_c, 0, 73, 0
2, 15120, Note_on_c, 0, 77, 79
2, 15120, Note_on_c, 0, 80, 79
2, 15360, Note_on_c, 0, 80, 0
2, 15360, Note_on_c, 0, 77, 0
2, 15360, Note_on_c, 0, 78, 79
2, 15360, Note_on_c, 0, 81, 79
2, 15600, Note_on_c, 0, 81, 0
2, 15600, Note_on_c, 0, 78, 0
2, 15600, Note_on_c, 0, 80, 79
2, 15600, Note_on_c, 0, 83, 79
2, 15840, Note_on_c, 0, 83, 0
2, 15840, Note_on_c, 0, 80, 0
2, 15840, Note_on_c, 0, 83, 79
2, 15840, Note_on_c, 0, 86, 79
2, 15870, Note_on_c, 0, 86, 0
2, 15870, Note_on_c, 0, 83, 0
2, 15870, Note_on_c, 0, 85, 79
2, 15870, Note_on_c, 0, 81, 79
2, 15996, Note_on_c, 0, 81, 0
2, 15996, Note_on_c, 0, 85, 0
2, 16080, Note_on_c, 0, 81, 79
2, 16080, Note_on_c, 0, 85, 79
2, 16200, Note_on_c, 0, 85, 0
2, 16200, Note_on_c, 0, 81, 0
2, 16200, Note_on_c, 0, 83, 79
2, 16200, Note_on_c, 0, 86, 79
2, 16320, Note_on_c, 0, 86, 0
2, 16320, Note_on_c, 0, 83, 0
2, 16320, Note_on_c, 0, 85, 79
2, 16320, Note_on_c, 0, 81, 79
2, 16560, Note_on_c, 0, 81, 0
2, 16560, Note_on_c, 0, 80, 79
2, 17280, Note_on_c, 0, 80, 0
2, 17280, Note_on_c, 0, 85, 0
2, 17280, Note_on_c, 0, 79, 79
2, 17280, Note_on_c, 0, 86, 79
2, 17310, Note_on_c, 0, 86, 0
2, 17310, Note_on_c, 0, 85, 79
2, 17436, Note_on_c, 0, 85, 0
2, 17520, Note_on_c, 0, 79, 0
2, 17520, Note_on_c, 0, 85, 79
2, 17520, Note_on_c, 0, 79, 79
2, 17592, Note_on_c, 0, 85, 0
2, 17640, Note_on_c, 0, 86, 79
2, 17760, Note_on_c, 0, 86, 0
2, 17760, Note_on_c, 0, 85, 79
2, 17808, Note_on_c, 0, 79, 0
2, 18000, Note_on_c, 0, 78, 79
2, 18480, Note_on_c, 0, 85, 0
2, 18480, Note_on_c, 0, 83, 79
2, 18720, Note_on_c, 0, 83, 0
2, 18720, Note_on_c, 0, 78, 0
2, 18720, Note_on_c, 0, 76, 79
2, 18720, Note_on_c, 0, 85, 79
2, 18750, Note_on_c, 0, 85, 0
2, 18750, Note_on_c, 0, 83, 79
2, 18876, Note_on_c, 0, 83, 0
2, 18960, Note_on_c, 0, 83, 79
2, 19039, Note_on_c, 0, 83, 0
2, 19039, Note_on_c, 0, 85, 79
2, 19119, Note_on_c, 0, 85, 0
2, 19119, Note_on_c, 0, 83, 79
2, 19152, Note_on_c, 0, 76, 0
2, 19199, Note_on_c, 0, 83, 0
2, 19200, Note_on_c, 0, 81, 79
2, 19440, Note_on_c, 0, 74, 79
2, 19920, Note_on_c, 0, 81, 0
2, 19920, Note_on_c, 0, 79, 79
2, 20160, Note_on_c, 0, 79, 0
2, 20160, Note_on_c, 0, 74, 0
2, 20160, Note_on_c, 0, 73, 79
2, 20160, Note_on_c, 0, 81, 79
2, 20190, Note_on_c, 0, 81, 0
2, 20190, Note_on_c, 0, 79, 79
2, 20316, Note_on_c, 0, 79, 0
2, 20400, Note_on_c, 0, 79, 79
2, 20479, Note_on_c, 0, 79, 0
2, 20479, Note_on_c, 0, 81, 79
2, 20559, Note_on_c, 0, 81, 0
2, 20559, Note_on_c, 0, 79, 79
2, 20639, Note_on_c, 0, 79, 0
2, 20640, Note_on_c, 0, 78, 79
2, 20880, Note_on_c, 0, 78, 0
2, 20880, Note_on_c, 0, 73, 0
2, 20880, Note_on_c, 0, 71, 79
2, 20880, Note_on_c, 0, 81, 79
2, 21360, Note_on_c, 0, 81, 0
2, 21360, Note_on_c, 0, 71, 0
2, 21360, Note_on_c, 0, 77, 79
2, 21600, Note_on_c, 0, 77, 0
2, 21600, Note_on_c, 0, 69, 79
2, 21600, Note_on_c, 0, 73, 79
2, 21600, Note_on_c, 0, 80, 79
2, 21720, Note_on_c, 0, 80, 0
2, 21720, Note_on_c, 0, 78, 79
2, 21840, Note_on_c, 0, 78, 0
2, 21840, Note_on_c, 0, 73, 0
2, 21840, Note_on_c, 0, 69, 0
2, 21960, Note_on_c, 0, 77, 79
2, 22080, Note_on_c, 0, 77, 0
2, 22080, Note_on_c, 0, 69, 79
2, 22080, Note_on_c, 0, 73, 79
2, 22080, Note_on_c, 0, 80, 79
2, 22110, Note_on_c, 0, 80, 0
2, 22110, Note_on_c, 0, 78, 79
2, 22200, Note_on_c, 0, 78, 0
2, 22260, Note_on_c, 0, 77, 79
2, 22320, Note_on_c, 0, 77, 0
2, 22320, Note_on_c, 0, 73, 0
2, 22320, Note_on_c, 0, 69, 0
2, 22320, Note_on_c, 0, 69, 79
2, 22320, Note_on_c, 0, 73, 79
2, 22320, Note_on_c, 0, 78, 79
2, 22800, Note_on_c, 0, 78, 0
2, 22800, Note_on_c, 0, 73, 0
2, 22800, Note_on_c, 0, 69, 0
2, 23040, Note_on_c, 0, 71, 79
2, 23040, Note_on_c, 0, 74, 79
2, 23070, Note_on_c, 0, 74, 0
2, 23070, Note_on_c, 0, 71, 0
2, 23070, Note_on_c, 0, 73, 79
2, 23070, Note_on_c, 0, 69, 79
2, 23196, Note_on_c, 0, 69, 0
2, 23196, Note_on_c, 0, 73, 0
2, 23280, Note_on_c, 0, 73, 79
2, 23280, Note_on_c, 0, 69, 79
2, 23352, Note_on_c, 0, 69, 0
2, 23352, Note_on_c, 0, 73, 0
2, 23400, Note_on_c, 0, 71, 79
2, 23400, Note_on_c, 0, 74, 79
2, 23520, Note_on_c, 0, 74, 0
2, 23520, Note_on_c, 0, 71, 0
2, 23520, Note_on_c, 0, 69, 79
2, 23520, Note_on_c, 0, 73, 79
2, 23760, Note_on_c, 0, 73, 0
2, 23760, Note_on_c, 0, 69, 0
2, 23760, Note_on_c, 0, 68, 79
2, 23760, Note_on_c, 0, 71, 79
2, 24000, Note_on_c, 0, 71, 0
2, 24000, Note_on_c, 0, 68, 0
2, 24000, Note_on_c, 0, 69, 79
2, 24000, Note_on_c, 0, 73, 79
2, 24240, Note_on_c, 0, 73, 0
2, 24240, Note_on_c, 0, 69, 0
2, 24240, Note_on_c, 0, 71, 79
2, 24240, Note_on_c, 0, 74, 79
2, 24480, Note_on_c, 0, 74, 0
2, 24480, Note_on_c, 0, 71, 0
2, 24480, Note_on_c, 0, 71, 79
2, 24480, Note_on_c, 0, 74, 79
2, 24510, Note_on_c, 0, 74, 0
2, 24510, Note_on_c, 0, 71, 0
2, 24510, Note_on_c, 0, 73, 79
2, 24510, Note_on_c, 0, 70, 79
2, 24636, Note_on_c, 0, 70, 0
2, 24636, Note_on_c, 0, 73, 0
2, 24720, Note_on_c, 0, 70, 79
2, 24720, Note_on_c, 0, 73, 79
2, 24840, Note_on_c, 0, 73, 0
2, 24840, Note_on_c, 0, 70, 0
2, 24840, Note_on_c, 0, 71, 79
2, 24840, Note_on_c, 0, 75, 79
2, 24960, Note_on_c, 0, 75, 0
2, 24960, Note_on_c, 0, 71, 0
2, 24960, Note_on_c, 0, 70, 79
2, 24960, Note_on_c, 0, 73, 79
2, 25200, Note_on_c, 0, 73, 0
2, 25200, Note_on_c, 0, 70, 0
2, 25200, Note_on_c, 0, 68, 79
2, 25200, Note_on_c, 0, 71, 79
2, 25440, Note_on_c, 0, 71, 0
2, 25440, Note_on_c, 0, 68, 0
2, 25440, Note_on_c, 0, 73, 79
2, 25440, Note_on_c, 0, 77, 79
2, 25680, Note_on_c, 0, 77, 0
2, 25680, Note_on_c, 0, 73, 0
2, 25680, Note_on_c, 0, 71, 79
2, 25680, Note_on_c, 0, 75, 79
2, 25920, Note_on_c, 0, 75, 0
2, 25920, Note_on_c, 0, 71, 0
2, 25920, Note_on_c, 0, 70, 79
2, 25920, Note_on_c, 0, 73, 79
2, 26160, Note_on_c, 0, 73, 0
2, 26160, Note_on_c, 0, 78, 79
2, 26400, Note_on_c, 0, 78, 0
2, 26400, Note_on_c, 0, 70, 0
2, 26400, Note_on_c, 0, 69, 79
2, 26400, Note_on_c, 0, 72, 79
2, 26640, Note_on_c, 0, 72, 0
2, 26640, Note_on_c, 0, 69, 0
2, 26640, Note_on_c, 0, 68, 79
2, 26640, Note_on_c, 0, 71, 79
2, 26880, Note_on_c, 0, 71, 0
2, 26880, Note_on_c, 0, 78, 79
2, 27120, Note_on_c, 0, 78, 0
2, 27120, Note_on_c, 0, 68, 0
2, 27120, Note_on_c, 0, 66, 79
2, 27120, Note_on_c, 0, 70, 79
2, 27360, Note_on_c, 0, 70, 0
2, 27360, Note_on_c, 0, 66, 0
2, 27360, Note_on_c, 0, 68, 79
2, 27600, Note_on_c, 0, 78, 79
2, 27840, Note_on_c, 0, 78, 0
2, 27840, Note_on_c, 0, 68, 0
2, 27840, Note_on_c, 0, 67, 79
2, 28080, Note_on_c, 0, 67, 0
2, 28080, Note_on_c, 0, 66, 79
2, 28320, Note_on_c, 0, 78, 79
2, 28560, Note_on_c, 0, 78, 0
2, 28560, Note_on_c, 0, 66, 0
2, 28560, Note_on_c, 0, 64, 79
2, 28704, Note_on_c, 0, 64, 0
2, 28800, Note_on_c, 0, 63, 79
2, 28830, Note_on_c, 0, 63, 0
2, 28830, Note_on_c, 0, 71, 79
2, 28860, Note_on_c, 0, 71, 0
2, 28860, Note_on_c, 0, 76, 79
2, 28890, Note_on_c, 0, 76, 0
2, 28890, Note_on_c, 0, 75, 79
2, 29040, Note_on_c, 0, 75, 0
2, 29040, Note_on_c, 0, 71, 79
2, 29040, Note_on_c, 0, 75, 79
2, 29160, Note_on_c, 0, 75, 0
2, 29160, Note_on_c, 0, 71, 0
2, 29160, Note_on_c, 0, 73, 79
2, 29160, Note_on_c, 0, 76, 79
2, 29280, Note_on_c, 0, 76, 0
2, 29280, Note_on_c, 0, 73, 0
2, 29280, Note_on_c, 0, 71, 79
2, 29280, Note_on_c, 0, 75, 79
2, 29520, Note_on_c, 0, 75, 0
2, 29520, Note_on_c, 0, 71, 0
2, 29520, Note_on_c, 0, 70, 79
2, 29520, Note_on_c, 0, 73, 79
2, 29760, Note_on_c, 0, 73, 0
2, 29760, Note_on_c, 0, 70, 0
2, 29760, Note_on_c, 0, 71, 79
2, 29760, Note_on_c, 0, 75, 79
2, 30000, Note_on_c, 0, 75, 0
2, 30000, Note_on_c, 0, 71, 0
2, 30000, Note_on_c, 0, 73, 79
2, 30000, Note_on_c, 0, 76, 79
2, 30240, Note_on_c, 0, 76, 0
2, 30240, Note_on_c, 0, 73, 0
2, 30240, Note_on_c, 0, 76, 79
2, 30240, Note_on_c, 0, 80, 79
2, 30270, Note_on_c, 0, 80, 0
2, 30270, Note_on_c, 0, 76, 0
2, 30270, Note_on_c, 0, 78, 79
2, 30270, Note_on_c, 0, 75, 79
2, 30396, Note_on_c, 0, 75, 0
2, 30396, Note_on_c, 0, 78, 0
2, 30480, Note_on_c, 0, 78, 79
2, 30480, Note_on_c, 0, 75, 79
2, 30552, Note_on_c, 0, 75, 0
2, 30552, Note_on_c, 0, 78, 0
2, 30600, Note_on_c, 0, 76, 79
2, 30600, Note_on_c, 0, 80, 79
2, 30720, Note_on_c, 0, 80, 0
2, 30720, Note_on_c, 0, 76, 0
2, 30720, Note_on_c, 0, 78, 79
2, 30720, Note_on_c, 0, 75, 79
2, 30960, Note_on_c, 0, 75, 0
2, 30960, Note_on_c, 0, 73, 79
2, 31680, Note_on_c, 0, 73, 0
2, 31680, Note_on_c, 0, 78, 0
2, 31680, Note_on_c, 0, 72, 79
2, 31680, Note_on_c, 0, 80, 79
2, 31710, Note_on_c, 0, 80, 0
2, 31710, Note_on_c, 0, 78, 79
2, 31836, Note_on_c, 0, 78, 0
2, 31840, Note_on_c, 0, 72, 0
2, 31920, Note_on_c, 0, 72, 79
2, 31920, Note_on_c, 0, 78, 79
2, 32040, Note_on_c, 0, 78, 0
2, 32040, Note_on_c, 0, 80, 79
2, 32160, Note_on_c, 0, 80, 0
2, 32160, Note_on_c, 0, 78, 79
2, 32400, Note_on_c, 0, 78, 0
2, 32400, Note_on_c, 0, 72, 0
2, 32400, Note_on_c, 0, 72, 79
2, 32400, Note_on_c, 0, 75, 79
2, 32640, Note_on_c, 0, 75, 0
2, 32640, Note_on_c, 0, 72, 0
2, 32640, Note_on_c, 0, 73, 79
2, 32640, Note_on_c, 0, 76, 79
2, 32880, Note_on_c, 0, 76, 0
2, 32880, Note_on_c, 0, 73, 0
2, 32880, Note_on_c, 0, 75, 79
2, 32880, Note_on_c, 0, 78, 79
2, 33120, Note_on_c, 0, 78, 0
2, 33120, Note_on_c, 0, 75, 0
2, 33120, Note_on_c, 0, 78, 79
2, 33120, Note_on_c, 0, 81, 79
2, 33150, Note_on_c, 0, 81, 0
2, 33150, Note_on_c, 0, 78, 0
2, 33150, Note_on_c, 0, 80, 79
2, 33150, Note_on_c, 0, 76, 79
2, 33276, Note_on_c, 0, 76, 0
2, 33276, Note_on_c, 0, 80, 0
2, 33360, Note_on_c, 0, 76, 79
2, 33360, Note_on_c, 0, 80, 79
2, 33480, Note_on_c, 0, 80, 0
2, 33480, Note_on_c, 0, 76, 0
2, 33480, Note_on_c, 0, 78, 79
2, 33480, Note_on_c, 0, 81, 79
2, 33600, Note_on_c, 0, 81, 0
2, 33600, Note_on_c, 0, 78, 0
2, 33600, Note_on_c, 0, 80, 79
2, 33600, Note_on_c, 0, 76, 79
2, 33840, Note_on_c, 0, 76, 0
2, 33840, Note_on_c, 0, 75, 79
2, 34560, Note_on_c, 0, 75, 0
2, 34560, Note_on_c, 0, 80, 0
2, 34560, Note_on_c, 0, 74, 79
2, 34560, Note_on_c, 0, 82, 79
2, 34590, Note_on_c, 0, 82, 0
2, 34590, Note_on_c, 0, 80, 79
2, 34716, Note_on_c, 0, 80, 0
2, 34800, Note_on_c, 0, 80, 79
2, 34920, Note_on_c, 0, 80, 0
2, 34920, Note_on_c, 0, 82, 79
2, 35040, Note_on_c, 0, 82, 0
2, 35040, Note_on_c, 0, 80, 79
2, 35280, Note_on_c, 0, 74, 0
2, 35280, Note_on_c, 0, 75, 79
2, 35520, Note_on_c, 0, 80, 0
2, 35520, Note_on_c, 0, 78, 79
2, 35640, Note_on_c, 0, 78, 0
2, 35640, Note_on_c, 0, 80, 79
2, 35760, Note_on_c, 0, 80, 0
2, 35760, Note_on_c, 0, 78, 79
2, 36000, Note_on_c, 0, 75, 0
2, 36000, Note_on_c, 0, 70, 79
2, 36240, Note_on_c, 0, 78, 0
2, 36240, Note_on_c, 0, 76, 79
2, 36360, Note_on_c, 0, 76, 0
2, 36360, Note_on_c, 0, 78, 79
2, 36480, Note_on_c, 0, 78, 0
2, 36480, Note_on_c, 0, 76, 79
2, 36720, Note_on_c, 0, 70, 0
2, 36720, Note_on_c, 0, 69, 79
2, 36960, Note_on_c, 0, 76, 0
2, 36960, Note_on_c, 0, 75, 79
2, 37080, Note_on_c, 0, 75, 0
2, 37080, Note_on_c, 0, 76, 79
2, 37200, Note_on_c, 0, 76, 0
2, 37200, Note_on_c, 0, 75, 79
2, 37440, Note_on_c, 0, 69, 0
2, 37440, Note_on_c, 0, 68, 79
2, 37680, Note_on_c, 0, 75, 0
2, 37680, Note_on_c, 0, 73, 79
2, 37800, Note_on_c, 0, 73, 0
2, 37800, Note_on_c, 0, 75, 79
2, 37920, Note_on_c, 0, 75, 0
2, 37920, Note_on_c, 0, 73, 79
2, 38160, Note_on_c, 0, 68, 0
2, 38160, Note_on_c, 0, 61, 79
2, 38400, Note_on_c, 0, 73, 0
2, 38400, Note_on_c, 0, 68, 79
2, 38640, Note_on_c, 0, 68, 0
2, 38640, Note_on_c, 0, 71, 79
2, 38880, Note_on_c, 0, 71, 0
2, 38880, Note_on_c, 0, 61, 0
2, 38880, Note_on_c, 0, 63, 79
2, 38880, Note_on_c, 0, 71, 79
2, 39360, Note_on_c, 0, 71, 0
2, 39360, Note_on_c, 0, 63, 0
2, 39360, Note_on_c, 0, 64, 79
2, 39360, Note_on_c, 0, 70, 79
2, 39600, Note_on_c, 0, 70, 0
2, 39600, Note_on_c, 0, 64, 0
2, 39600, Note_on_c, 0, 63, 79
2, 39600, Note_on_c, 0, 71, 79
2, 40080, Note_on_c, 0, 71, 0
2, 40080, Note_on_c, 0, 63, 0
2, 40320, Note_on_c, 0, 71, 79
2, 40320, Note_on_c, 0, 74, 79
2, 40350, Note_on_c, 0, 74, 0
2, 40350, Note_on_c, 0, 71, 0
2, 40350, Note_on_c, 0, 73, 79
2, 40350, Note_on_c, 0, 69, 79
2, 40476, Note_on_c, 0, 69, 0
2, 40476, Note_on_c, 0, 73, 0
2, 40560, Note_on_c, 0, 73, 79
2, 40560, Note_on_c, 0, 69, 79
2, 40632, Note_on_c, 0, 69, 0
2, 40632, Note_on_c, 0, 73, 0
2, 40680, Note_on_c, 0, 71, 79
2, 40680, Note_on_c, 0, 74, 79
2, 40800, Note_on_c, 0, 74, 0
2, 40800, Note_on_c, 0, 71, 0
2, 40800, Note_on_c, 0, 69, 79
2, 40800, Note_on_c, 0, 73, 79
2, 41040, Note_on_c, 0, 73, 0
2, 41040, Note_on_c, 0, 69, 0
2, 41040, Note_on_c, 0, 68, 79
2, 41040, Note_on_c, 0, 71, 79
2, 41280, Note_on_c, 0, 71, 0
2, 41280, Note_on_c, 0, 68, 0
2, 41280, Note_on_c, 0, 69, 79
2, 41280, Note_on_c, 0, 73, 79
2, 41520, Note_on_c, 0, 73, 0
2, 41520, Note_on_c, 0, 69, 0
2, 41520, Note_on_c, 0, 71, 79
2, 41520, Note_on_c, 0, 74, 79
2, 41760, Note_on_c, 0, 74, 0
2, 41760, Note_on_c, 0, 71, 0
2, 41760, Note_on_c, 0, 71, 79
2, 41760, Note_on_c, 0, 74, 79
2, 41790, Note_on_c, 0, 74, 0
2, 41790, Note_on_c, 0, 71, 0
2, 41790, Note_on_c, 0, 73, 79
2, 41790, Note_on_c, 0, 70, 79
2, 41916, Note_on_c, 0, 70, 0
2, 41916, Note_on_c, 0, 73, 0
2, 42000, Note_on_c, 0, 70, 79
2, 42000, Note_on_c, 0, 73, 79
2, 42120, Note_on_c, 0, 73, 0
2, 42120, Note_on_c, 0, 70, 0
2, 42120, Note_on_c, 0, 71, 79
2, 42120, Note_on_c, 0, 75, 79
2, 42240, Note_on_c, 0, 75, 0
2, 42240, Note_on_c, 0, 71, 0
2, 42240, Note_on_c, 0, 70, 79
2, 42240, Note_on_c, 0, 73, 79
2, 42480, Note_on_c, 0, 73, 0
2, 42480, Note_on_c, 0, 70, 0
2, 42480, Note_on_c, 0, 68, 79
2, 42480, Note_on_c, 0, 71, 79
2, 42720, Note_on_c, 0, 71, 0
2, 42720, Note_on_c, 0, 68, 0
2, 42720, Note_on_c, 0, 73, 79
2, 42720, Note_on_c, 0, 77, 79
2, 42960, Note_on_c, 0, 77, 0
2, 42960, Note_on_c, 0, 73, 0
2, 42960, Note_on_c, 0, 71, 79
2, 42960, Note_on_c, 0, 75, 79
2, 43200, Note_on_c, 0, 75, 0
2, 43200, Note_on_c, 0, 71, 0
2, 43200, Note_on_c, 0, 70, 79
2, 43200, Note_on_c, 0, 73, 79
2, 43440, Note_on_c, 0, 73, 0
2, 43440, Note_on_c, 0, 78, 79
2, 43680, Note_on_c, 0, 78, 0
2, 43680, Note_on_c, 0, 70, 0
2, 43680, Note_on_c, 0, 69, 79
2, 43680, Note_on_c, 0, 72, 79
2, 43920, Note_on_c, 0, 72, 0
2, 43920, Note_on_c, 0, 69, 0
2, 43920, Note_on_c, 0, 68, 79
2, 43920, Note_on_c, 0, 71, 79
2, 44160, Note_on_c, 0, 71, 0
2, 44160, Note_on_c, 0, 78, 79
2, 44400, Note_on_c, 0, 78, 0
2, 44400, Note_on_c, 0, 68, 0
2, 44400, Note_on_c, 0, 66, 79
2, 44400, Note_on_c, 0, 70, 79
2, 44640, Note_on_c, 0, 70, 0
2, 44640, Note_on_c, 0, 66, 0
2, 44640, Note_on_c, 0, 68, 79
2, 44880, Note_on_c, 0, 78, 79
2, 45120, Note_on_c, 0, 78, 0
2, 45120, Note_on_c, 0, 68, 0
2, 45120, Note_on_c, 0, 67, 79
2, 45360, Note_on_c, 0, 67, 0
2, 45360, Note_on_c, 0, 66, 79
2, 45600, Note_on_c, 0, 78, 79
2, 45840, Note_on_c, 0, 78, 0
2, 45840, Note_on_c, 0, 66, 0
2, 45840, Note_on_c, 0, 64, 79
2, 45984, Note_on_c, 0, 64, 0
2, 46080, Note_on_c, 0, 63, 79
2, 46110, Note_on_c, 0, 63, 0
2, 46110, Note_on_c, 0, 71, 79
2, 46140, Note_on_c, 0, 71, 0
2, 46140, Note_on_c, 0, 76, 79
2, 46170, Note_on_c, 0, 76, 0
2, 46170, Note_on_c, 0, 75, 79
2, 46320, Note_on_c, 0, 75, 0
2, 46320, Note_on_c, 0, 71, 79
2, 46320, Note_on_c, 0, 75, 79
2, 46440, Note_on_c, 0, 75, 0
2, 46440, Note_on_c, 0, 71, 0
2, 46440, Note_on_c, 0, 73, 79
2, 46440, Note_on_c, 0, 76, 79
2, 46560, Note_on_c, 0, 76, 0
2, 46560, Note_on_c, 0, 73, 0
2, 46560, Note_on_c, 0, 71, 79
2, 46560, Note_on_c, 0, 75, 79
2, 46800, Note_on_c, 0, 75, 0
2, 46800, Note_on_c, 0, 71, 0
2, 46800, Note_on_c, 0, 70, 79
2, 46800, Note_on_c, 0, 73, 79
2, 47040, Note_on_c, 0, 73, 0
2, 47040, Note_on_c, 0, 70, 0
2, 47040, Note_on_c, 0, 71, 79
2, 47040, Note_on_c, 0, 75, 79
2, 47280, Note_on_c, 0, 75, 0
2, 47280, Note_on_c, 0, 71, 0
2, 47280, Note_on_c, 0, 73, 79
2, 47280, Note_on_c, 0, 76, 79
2, 47520, Note_on_c, 0, 76, 0
2, 47520, Note_on_c, 0, 73, 0
2, 47520, Note_on_c, 0, 76, 79
2, 47520, Note_on_c, 0, 80, 79
2, 47550, Note_on_c, 0, 80, 0
2, 47550, Note_on_c, 0, 76, 0
2, 47550, Note_on_c, 0, 78, 79
2, 47550, Note_on_c, 0, 75, 79
2, 47676, Note_on_c, 0, 75, 0
2, 47676, Note_on_c, 0, 78, 0
2, 47760, Note_on_c, 0, 78, 79
2, 47760, Note_on_c, 0, 75, 79
2, 47832, Note_on_c, 0, 75, 0
2, 47832, Note_on_c, 0, 78, 0
2, 47880, Note_on_c, 0, 76, 79
2, 47880, Note_on_c, 0, 80, 79
2, 48000, Note_on_c, 0, 80, 0
2, 48000, Note_on_c, 0, 76, 0
2, 48000, Note_on_c, 0, 78, 79
2, 48000, Note_on_c, 0, 75, 79
2, 48240, Note_on_c, 0, 75, 0
2, 48240, Note_on_c, 0, 73, 79
2, 48960, Note_on_c, 0, 73, 0
2, 48960, Note_on_c, 0, 78, 0
2, 48960, Note_on_c, 0, 72, 79
2, 48960, Note_on_c, 0, 80, 79
2, 48990, Note_on_c, 0, 80, 0
2, 48990, Note_on_c, 0, 78, 79
2, 49116, Note_on_c, 0, 78, 0
2, 49120, Note_on_c, 0, 72, 0
2, 49200, Note_on_c, 0, 72, 79
2, 49200, Note_on_c, 0, 78, 79
2, 49320, Note_on_c, 0, 78, 0
2, 49320, Note_on_c, 0, 80, 79
2, 49440, Note_on_c, 0, 80, 0
2, 49440, Note_on_c, 0, 78, 79
2, 49680, Note_on_c, 0, 78, 0
2, 49680, Note_on_c, 0, 72, 0
2, 49680, Note_on_c, 0, 72, 79
2, 49680, Note_on_c, 0, 75, 79
2, 49920, Note_on_c, 0, 75, 0
2, 49920, Note_on_c, 0, 72, 0
2, 49920, Note_on_c, 0, 73, 79
2, 49920, Note_on_c, 0, 76, 79
2, 50160, Note_on_c, 0, 76, 0
2, 50160, Note_on_c, 0, 73, 0
2, 50160, Note_on_c, 0, 75, 79
2, 50160, Note_on_c, 0, 78, 79
2, 50400, Note_on_c, 0, 78, 0
2, 50400, Note_on_c, 0, 75, 0
2, 50400, Note_on_c, 0, 78, 79
2, 50400, Note_on_c, 0, 81, 79
2, 50430, Note_on_c, 0, 81, 0
2, 50430, Note_on_c, 0, 78, 0
2, 50430, Note_on_c, 0, 80, 79
2, 50430, Note_on_c, 0, 76, 79
2, 50556, Note_on_c, 0, 76, 0
2, 50556, Note_on_c, 0, 80, 0
2, 50640, Note_on_c, 0, 76, 79
2, 50640, Note_on_c, 0, 80, 79
2, 50760, Note_on_c, 0, 80, 0
2, 50760, Note_on_c, 0, 76, 0
2, 50760, Note_on_c, 0, 78, 79
2, 50760, Note_on_c, 0, 81, 79
2, 50880, Note_on_c, 0, 81, 0
2, 50880, Note_on_c, 0, 78, 0
2, 50880, Note_on_c, 0, 80, 79
2, 50880, Note_on_c, 0, 76, 79
2, 51120, Note_on_c, 0, 76, 0
2, 51120, Note_on_c, 0, 75, 79
2, 51840, Note_on_c, 0, 75, 0
2, 51840, Note_on_c, 0, 80, 0
2, 51840, Note_on_c, 0, 74, 79
2, 51840, Note_on_c, 0, 82, 79
2, 51870, Note_on_c, 0, 82, 0
2, 51870, Note_on_c, 0, 80, 79
2, 51996, Note_on_c, 0, 80, 0
2, 52080, Note_on_c, 0, 80, 79
2, 52200, Note_on_c, 0, 80, 0
2, 52200, Note_on_c, 0, 82, 79
2, 52320, Note_on_c, 0, 82, 0
2, 52320, Note_on_c, 0, 80, 79
2, 52560, Note_on_c, 0, 74, 0
2, 52560, Note_on_c, 0, 75, 79
2, 52800, Note_on_c, 0, 80, 0
2, 52800, Note_on_c, 0, 78, 79
2, 52920, Note_on_c, 0, 78, 0
2, 52920, Note_on_c, 0, 80, 79
2, 53040, Note_on_c, 0, 80, 0
2, 53040, Note_on_c, 0, 78, 79
2, 53280, Note_on_c, 0, 75, 0
2, 53280, Note_on_c, 0, 70, 79
2, 53520, Note_on_c, 0, 78, 0
2, 53520, Note_on_c, 0, 76, 79
2, 53640, Note_on_c, 0, 76, 0
2, 53640, Note_on_c, 0, 78, 79
2, 53760, Note_on_c, 0, 78, 0
2, 53760, Note_on_c, 0, 76, 79
2, 54000, Note_on_c, 0, 70, 0
2, 54000, Note_on_c, 0, 69, 79
2, 54240, Note_on_c, 0, 76, 0
2, 54240, Note_on_c, 0, 75, 79
2, 54360, Note_on_c, 0, 75, 0
2, 54360, Note_on_c, 0, 76, 79
2, 54480, Note_on_c, 0, 76, 0
2, 54480, Note_on_c, 0, 75, 79
2, 54720, Note_on_c, 0, 69, 0
2, 54720, Note_on_c, 0, 68, 79
2, 54960, Note_on_c, 0, 75, 0
2, 54960, Note_on_c, 0, 73, 79
2, 55080, Note_on_c, 0, 73, 0
2, 55080, Note_on_c, 0, 75, 79
2, 55200, Note_on_c, 0, 75, 0
2, 55200, Note_on_c, 0, 73, 79
2, 55440, Note_on_c, 0, 68, 0
2, 55440, Note_on_c, 0, 61, 79
2, 55680, Note_on_c, 0, 73, 0
2, 55680, Note_on_c, 0, 68, 79
2, 55920, Note_on_c, 0, 68, 0
2, 55920, Note_on_c, 0, 71, 79
2, 56160, Note_on_c, 0, 71, 0
2, 56160, Note_on_c, 0, 61, 0
2, 56160, Note_on_c, 0, 63, 79
2, 56160, Note_on_c, 0, 71, 79
2, 56640, Note_on_c, 0, 71, 0
2, 56640, Note_on_c, 0, 63, 0
2, 56640, Note_on_c, 0, 64, 79
2, 56640, Note_on_c, 0, 70, 79
2, 56880, Note_on_c, 0, 70, 0
2, 56880, Note_on_c, 0, 64, 0
2, 56880, Note_on_c, 0, 63, 79
2, 56880, Note_on_c, 0, 71, 79
2, 57360, Note_on_c, 0, 71, 0
2, 57360, Note_on_c, 0, 63, 0
2, 57360, End_track
3, 0, Start_track
3, 0, Title_t, "Waltz No-11"
3, 0, Program_c, 0, 0
3, 0, Control_c, 0, 7, 110
3, 0, Control_c, 0, 10, 47
3, 0, Note_on_c, 0, 47, 74
3, 73, Control_c, 0, 64, 127
3, 240, Note_on_c, 0, 47, 0
3, 240, Note_on_c, 0, 54, 74
3, 240, Note_on_c, 0, 59, 74
3, 240, Note_on_c, 0, 62, 74
3, 480, Note_on_c, 0, 62, 0
3, 480, Note_on_c, 0, 59, 0
3, 480, Note_on_c, 0, 54, 0
3, 480, Note_on_c, 0, 54, 74
3, 480, Note_on_c, 0, 59, 74
3, 480, Note_on_c, 0, 62, 74
3, 720, Note_on_c, 0, 62, 0
3, 720, Note_on_c, 0, 59, 0
3, 720, Note_on_c, 0, 54, 0
3, 720, Note_on_c, 0, 47, 74
3, 960, Note_on_c, 0, 47, 0
3, 960, Note_on_c, 0, 54, 74
3, 960, Note_on_c, 0, 59, 74
3, 960, Note_on_c, 0, 66, 74
3, 1200, Note_on_c, 0, 66, 0
3, 1200, Note_on_c, 0, 59, 0
3, 1200, Note_on_c, 0, 54, 0
3, 1200, Note_on_c, 0, 54, 74
3, 1200, Note_on_c, 0, 59, 74
3, 1200, Note_on_c, 0, 64, 74
3, 1336, Control_c, 0, 64, 0
3, 1345, Control_c, 0, 64, 0
3, 1440, Note_on_c, 0, 64, 0
3, 1440, Note_on_c, 0, 59, 0
3, 1440, Note_on_c, 0, 54, 0
3, 1440, Note_on_c, 0, 47, 74
3, 1444, Control_c, 0, 64, 0
3, 1452, Control_c, 0, 64, 127
3, 1680, Note_on_c, 0, 47, 0
3, 1680, Note_on_c, 0, 54, 74
3, 1680, Note_on_c, 0, 59, 74
3, 1680, Note_on_c, 0, 62, 74
3, 1920, Note_on_c, 0, 62, 0
3, 1920, Note_on_c, 0, 59, 0
3, 1920, Note_on_c, 0, 54, 0
3, 1920, Note_on_c, 0, 54, 74
3, 1920, Note_on_c, 0, 59, 74
3, 1920, Note_on_c, 0, 62, 74
3, 1922, Control_c, 0, 64, 0
3, 2160, Note_on_c, 0, 62, 0
3, 2160, Note_on_c, 0, 59, 0
3, 2160, Note_on_c, 0, 54, 0
3, 2160, Note_on_c, 0, 45, 74
3, 2269, Control_c, 0, 64, 0
3, 2277, Control_c, 0, 64, 127
3, 2400, Note_on_c, 0, 45, 0
3, 2400, Note_on_c, 0, 54, 74
3, 2400, Note_on_c, 0, 61, 74
3, 2624, Control_c, 0, 64, 0
3, 2632, Control_c, 0, 64, 0
3, 2640, Note_on_c, 0, 61, 0
3, 2640, Note_on_c, 0, 54, 0
3, 2640, Note_on_c, 0, 54, 74
3, 2640, Note_on_c, 0, 61, 74
3, 2880, Note_on_c, 0, 61, 0
3, 2880, Note_on_c, 0, 54, 0
3, 2880, Note_on_c, 0, 45, 74
3, 2892, Control_c, 0, 64, 127
3, 3120, Note_on_c, 0, 45, 0
3, 3120, Note_on_c, 0, 54, 74
3, 3120, Note_on_c, 0, 57, 74
3, 3120, Note_on_c, 0, 62, 74
3, 3360, Note_on_c, 0, 62, 0
3, 3360, Note_on_c, 0, 57, 0
3, 3360, Note_on_c, 0, 54, 0
3, 3360, Note_on_c, 0, 54, 74
3, 3360, Note_on_c, 0, 57, 74
3, 3360, Note_on_c, 0, 62, 74
3, 3600, Note_on_c, 0, 62, 0
3, 3600, Note_on_c, 0, 57, 0
3, 3600, Note_on_c, 0, 54, 0
3, 3600, Note_on_c, 0, 44, 74
3, 3623, Control_c, 0, 64, 0
3, 3689, Control_c, 0, 64, 0
3, 3697, Control_c, 0, 64, 127
3, 3840, Note_on_c, 0, 44, 0
3, 3840, Note_on_c, 0, 56, 74
3, 3840, Note_on_c, 0, 59, 74
3, 3840, Note_on_c, 0, 65, 74
3, 3846, Pitch_bend_c, 0, 8030
3, 3848, Pitch_bend_c, 0, 8111
3, 4080, Note_on_c, 0, 65, 0
3, 4080, Note_on_c, 0, 59, 0
3, 4080, Note_on_c, 0, 56, 0
3, 4080, Note_on_c, 0, 56, 74
3, 4080, Note_on_c, 0, 59, 74
3, 4080, Note_on_c, 0, 65, 74
3, 4316, Control_c, 0, 64, 0
3, 4320, Note_on_c, 0, 65, 0
3, 4320, Note_on_c, 0, 59, 0
3, 4320, Note_on_c, 0, 56, 0
3, 4320, Note_on_c, 0, 42, 74
3, 4324, Control_c, 0, 64, 0
3, 4390, Control_c, 0, 64, 127
3, 4560, Note_on_c, 0, 42, 0
3, 4560, Note_on_c, 0, 57, 74
3, 4560, Note_on_c, 0, 61, 74
3, 4560, Note_on_c, 0, 66, 74
3, 4800, Note_on_c, 0, 66, 0
3, 4800, Note_on_c, 0, 61, 0
3, 4800, Note_on_c, 0, 57, 0
3, 4800, Note_on_c, 0, 57, 74
3, 4800, Note_on_c, 0, 61, 74
3, 4800, Note_on_c, 0, 66, 74
3, 5009, Control_c, 0, 64, 0
3, 5018, Control_c, 0, 64, 0
3, 5040, Note_on_c, 0, 66, 0
3, 5040, Note_on_c, 0, 61, 0
3, 5040, Note_on_c, 0, 57, 0
3, 5040, Note_on_c, 0, 40, 74
3, 5084, Control_c, 0, 64, 0
3, 5092, Control_c, 0, 64, 127
3, 5280, Note_on_c, 0, 40, 0
3, 5280, Note_on_c, 0, 56, 74
3, 5280, Note_on_c, 0, 61, 74
3, 5520, Note_on_c, 0, 61, 0
3, 5520, Note_on_c, 0, 56, 0
3, 5520, Note_on_c, 0, 56, 74
3, 5520, Note_on_c, 0, 61, 74
3, 5744, Control_c, 0, 64, 0
3, 5760, Note_on_c, 0, 61, 0
3, 5760, Note_on_c, 0, 56, 0
3, 5760, Note_on_c, 0, 40, 74
3, 6000, Note_on_c, 0, 40, 0
3, 6000, Note_on_c, 0, 55, 74
3, 6000, Note_on_c, 0, 61, 74
3, 6016, Control_c, 0, 64, 127
3, 6240, Note_on_c, 0, 61, 0
3, 6240, Note_on_c, 0, 55, 0
3, 6240, Note_on_c, 0, 55, 74
3, 6240, Note_on_c, 0, 61, 74
3, 6470, Control_c, 0, 64, 0
3, 6480, Note_on_c, 0, 61, 0
3, 6480, Note_on_c, 0, 55, 0
3, 6480, Note_on_c, 0, 38, 74
3, 6553, Control_c, 0, 64, 127
3, 6720, Note_on_c, 0, 38, 0
3, 6720, Note_on_c, 0, 54, 74
3, 6720, Note_on_c, 0, 61, 74
3, 6960, Note_on_c, 0, 61, 0
3, 6960, Note_on_c, 0, 54, 0
3, 6960, Note_on_c, 0, 54, 74
3, 6960, Note_on_c, 0, 59, 74
3, 6966, Control_c, 0, 64, 0
3, 7200, Note_on_c, 0, 59, 0
3, 7200, Note_on_c, 0, 54, 0
3, 7200, Note_on_c, 0, 37, 74
3, 7288, Control_c, 0, 64, 127
3, 7440, Note_on_c, 0, 37, 0
3, 7440, Note_on_c, 0, 52, 74
3, 7440, Note_on_c, 0, 59, 74
3, 7680, Note_on_c, 0, 59, 0
3, 7680, Note_on_c, 0, 52, 0
3, 7680, Note_on_c, 0, 52, 74
3, 7680, Note_on_c, 0, 57, 74
3, 7692, Control_c, 0, 64, 0
3, 7920, Note_on_c, 0, 57, 0
3, 7920, Note_on_c, 0, 52, 0
3, 7920, Note_on_c, 0, 35, 74
3, 7944, Control_c, 0, 64, 127
3, 8160, Note_on_c, 0, 35, 0
3, 8160, Note_on_c, 0, 50, 74
3, 8160, Note_on_c, 0, 57, 74
3, 8400, Note_on_c, 0, 57, 0
3, 8400, Note_on_c, 0, 50, 0
3, 8400, Note_on_c, 0, 50, 74
3, 8400, Note_on_c, 0, 55, 74
3, 8402, Control_c, 0, 64, 0
3, 8640, Note_on_c, 0, 55, 0
3, 8640, Note_on_c, 0, 50, 0
3, 8640, Note_on_c, 0, 33, 74
3, 8699, Control_c, 0, 64, 127
3, 8880, Note_on_c, 0, 33, 0
3, 8880, Note_on_c, 0, 49, 74
3, 8880, Note_on_c, 0, 55, 74
3, 9120, Note_on_c, 0, 55, 0
3, 9120, Note_on_c, 0, 49, 0
3, 9120, Note_on_c, 0, 49, 74
3, 9120, Note_on_c, 0, 54, 74
3, 9128, Control_c, 0, 64, 0
3, 9136, Control_c, 0, 64, 0
3, 9360, Note_on_c, 0, 54, 0
3, 9360, Note_on_c, 0, 49, 0
3, 9360, Note_on_c, 0, 37, 74
3, 9384, Control_c, 0, 64, 127
3, 9600, Note_on_c, 0, 37, 0
3, 9600, Note_on_c, 0, 49, 74
3, 9600, Note_on_c, 0, 53, 74
3, 9838, Control_c, 0, 64, 0
3, 9840, Note_on_c, 0, 53, 0
3, 9840, Note_on_c, 0, 49, 0
3, 9840, Note_on_c, 0, 49, 74
3, 9840, Note_on_c, 0, 61, 74
3, 9846, Control_c, 0, 64, 0
3, 10080, Note_on_c, 0, 61, 0
3, 10080, Note_on_c, 0, 49, 0
3, 10080, Note_on_c, 0, 42, 74
3, 10109, Pitch_bend_c, 0, 8030
3, 10111, Pitch_bend_c, 0, 8111
3, 10320, Note_on_c, 0, 42, 0
3, 10320, Note_on_c, 0, 54, 74
3, 10320, Note_on_c, 0, 57, 74
3, 10320, Note_on_c, 0, 61, 74
3, 10560, Note_on_c, 0, 61, 0
3, 10560, Note_on_c, 0, 57, 0
3, 10560, Note_on_c, 0, 54, 0
3, 10560, Note_on_c, 0, 54, 74
3, 10560, Note_on_c, 0, 57, 74
3, 10560, Note_on_c, 0, 61, 74
3, 10800, Note_on_c, 0, 61, 0
3, 10800, Note_on_c, 0, 57, 0
3, 10800, Note_on_c, 0, 54, 0
3, 10800, Note_on_c, 0, 42, 74
3, 10862, Control_c, 0, 64, 127
3, 11040, Note_on_c, 0, 42, 0
3, 11040, Note_on_c, 0, 54, 74
3, 11040, Note_on_c, 0, 57, 74
3, 11040, Note_on_c, 0, 61, 74
3, 11280, Note_on_c, 0, 61, 0
3, 11280, Note_on_c, 0, 57, 0
3, 11280, Note_on_c, 0, 54, 0
3, 11280, Note_on_c, 0, 54, 74
3, 11280, Note_on_c, 0, 66, 74
3, 11283, Control_c, 0, 64, 0
3, 11291, Control_c, 0, 64, 0
3, 11520, Note_on_c, 0, 66, 0
3, 11520, Note_on_c, 0, 54, 0
3, 11520, Note_on_c, 0, 47, 74
3, 11593, Control_c, 0, 64, 127
3, 11760, Note_on_c, 0, 47, 0
3, 11760, Note_on_c, 0, 54, 74
3, 11760, Note_on_c, 0, 59, 74
3, 11760, Note_on_c, 0, 62, 74
3, 12000, Note_on_c, 0, 62, 0
3, 12000, Note_on_c, 0, 59, 0
3, 12000, Note_on_c, 0, 54, 0
3, 12000, Note_on_c, 0, 54, 74
3, 12000, Note_on_c, 0, 59, 74
3, 12000, Note_on_c, 0, 62, 74
3, 12240, Note_on_c, 0, 62, 0
3, 12240, Note_on_c, 0, 59, 0
3, 12240, Note_on_c, 0, 54, 0
3, 12240, Note_on_c, 0, 47, 74
3, 12480, Note_on_c, 0, 47, 0
3, 12480, Note_on_c, 0, 54, 74
3, 12480, Note_on_c, 0, 59, 74
3, 12480, Note_on_c, 0, 66, 74
3, 12720, Note_on_c, 0, 66, 0
3, 12720, Note_on_c, 0, 59, 0
3, 12720, Note_on_c, 0, 54, 0
3, 12720, Note_on_c, 0, 54, 74
3, 12720, Note_on_c, 0, 59, 74
3, 12720, Note_on_c, 0, 64, 74
3, 12856, Control_c, 0, 64, 0
3, 12865, Control_c, 0, 64, 0
3, 12960, Note_on_c, 0, 64, 0
3, 12960, Note_on_c, 0, 59, 0
3, 12960, Note_on_c, 0, 54, 0
3, 12960, Note_on_c, 0, 47, 74
3, 12964, Control_c, 0, 64, 0
3, 12972, Control_c, 0, 64, 127
3, 13200, Note_on_c, 0, 47, 0
3, 13200, Note_on_c, 0, 54, 74
3, 13200, Note_on_c, 0, 59, 74
3, 13200, Note_on_c, 0, 62, 74
3, 13440, Note_on_c, 0, 62, 0
3, 13440, Note_on_c, 0, 59, 0
3, 13440, Note_on_c, 0, 54, 0
3, 13440, Note_on_c, 0, 54, 74
3, 13440, Note_on_c, 0, 59, 74
3, 13440, Note_on_c, 0, 62, 74
3, 13442, Control_c, 0, 64, 0
3, 13680, Note_on_c, 0, 62, 0
3, 13680, Note_on_c, 0, 59, 0
3, 13680, Note_on_c, 0, 54, 0
3, 13680, Note_on_c, 0, 45, 74
3, 13789, Control_c, 0, 64, 0
3, 13797, Control_c, 0, 64, 127
3, 13920, Note_on_c, 0, 45, 0
3, 13920, Note_on_c, 0, 54, 74
3, 13920, Note_on_c, 0, 61, 74
3, 14144, Control_c, 0, 64, 0
3, 14152, Control_c, 0, 64, 0
3, 14160, Note_on_c, 0, 61, 0
3, 14160, Note_on_c, 0, 54, 0
3, 14160, Note_on_c, 0, 54, 74
3, 14160, Note_on_c, 0, 61, 74
3, 14400, Note_on_c, 0, 61, 0
3, 14400, Note_on_c, 0, 54, 0
3, 14400, Note_on_c, 0, 45, 74
3, 14412, Control_c, 0, 64, 127
3, 14640, Note_on_c, 0, 45, 0
3, 14640, Note_on_c, 0, 54, 74
3, 14640, Note_on_c, 0, 57, 74
3, 14640, Note_on_c, 0, 62, 74
3, 14880, Note_on_c, 0, 62, 0
3, 14880, Note_on_c, 0, 57, 0
3, 14880, Note_on_c, 0, 54, 0
3, 14880, Note_on_c, 0, 54, 74
3, 14880, Note_on_c, 0, 57, 74
3, 14880, Note_on_c, 0, 62, 74
3, 15120, Note_on_c, 0, 62, 0
3, 15120, Note_on_c, 0, 57, 0
3, 15120, Note_on_c, 0, 54, 0
3, 15120, Note_on_c, 0, 44, 74
3, 15143, Control_c, 0, 64, 0
3, 15209, Control_c, 0, 64, 0
3, 15217, Control_c, 0, 64, 127
3, 15360, Note_on_c, 0, 44, 0
3, 15360, Note_on_c, 0, 56, 74
3, 15360, Note_on_c, 0, 59, 74
3, 15360, Note_on_c, 0, 65, 74
3, 15366, Pitch_bend_c, 0, 8030
3, 15368, Pitch_bend_c, 0, 8111
3, 15600, Note_on_c, 0, 65, 0
3, 15600, Note_on_c, 0, 59, 0
3, 15600, Note_on_c, 0, 56, 0
3, 15600, Note_on_c, 0, 56, 74
3, 15600, Note_on_c, 0, 59, 74
3, 15600, Note_on_c, 0, 65, 74
3, 15836, Control_c, 0, 64, 0
3, 15840, Note_on_c, 0, 65, 0
3, 15840, Note_on_c, 0, 59, 0
3, 15840, Note_on_c, 0, 56, 0
3, 15840, Note_on_c, 0, 42, 74
3, 15844, Control_c, 0, 64, 0
3, 15910, Control_c, 0, 64, 127
3, 16080, Note_on_c, 0, 42, 0
3, 16080, Note_on_c, 0, 57, 74
3, 16080, Note_on_c, 0, 61, 74
3, 16080, Note_on_c, 0, 66, 74
3, 16320, Note_on_c, 0, 66, 0
3, 16320, Note_on_c, 0, 61, 0
3, 16320, Note_on_c, 0, 57, 0
3, 16320, Note_on_c, 0, 57, 74
3, 16320, Note_on_c, 0, 61, 74
3, 16320, Note_on_c, 0, 66, 74
3, 16529, Control_c, 0, 64, 0
3, 16538, Control_c, 0, 64, 0
3, 16560, Note_on_c, 0, 66, 0
3, 16560, Note_on_c, 0, 61, 0
3, 16560, Note_on_c, 0, 57, 0
3, 16560, Note_on_c, 0, 40, 74
3, 16604, Control_c, 0, 64, 0
3, 16612, Control_c, 0, 64, 127
3, 16800, Note_on_c, 0, 40, 0
3, 16800, Note_on_c, 0, 56, 74
3, 16800, Note_on_c, 0, 61, 74
3, 17040, Note_on_c, 0, 61, 0
3, 17040, Note_on_c, 0, 56, 0
3, 17040, Note_on_c, 0, 56, 74
3, 17040, Note_on_c, 0, 61, 74
3, 17264, Control_c, 0, 64, 0
3, 17280, Note_on_c, 0, 61, 0
3, 17280, Note_on_c, 0, 56, 0
3, 17280, Note_on_c, 0, 40, 74
3, 17520, Note_on_c, 0, 40, 0
3, 17520, Note_on_c, 0, 55, 74
3, 17520, Note_on_c, 0, 61, 74
3, 17536, Control_c, 0, 64, 127
3, 17760, Note_on_c, 0, 61, 0
3, 17760, Note_on_c, 0, 55, 0
3, 17760, Note_on_c, 0, 55, 74
3, 17760, Note_on_c, 0, 61, 74
3, 17990, Control_c, 0, 64, 0
3, 18000, Note_on_c, 0, 61, 0
3, 18000, Note_on_c, 0, 55, 0
3, 18000, Note_on_c, 0, 38, 74
3, 18073, Control_c, 0, 64, 127
3, 18240, Note_on_c, 0, 38, 0
3, 18240, Note_on_c, 0, 54, 74
3, 18240, Note_on_c, 0, 61, 74
3, 18480, Note_on_c, 0, 61, 0
3, 18480, Note_on_c, 0, 54, 0
3, 18480, Note_on_c, 0, 54, 74
3, 18480, Note_on_c, 0, 59, 74
3, 18486, Control_c, 0, 64, 0
3, 18720, Note_on_c, 0, 59, 0
3, 18720, Note_on_c, 0, 54, 0
3, 18720, Note_on_c, 0, 37, 74
3, 18808, Control_c, 0, 64, 127
3, 18960, Note_on_c, 0, 37, 0
3, 18960, Note_on_c, 0, 52, 74
3, 18960, Note_on_c, 0, 59, 74
3, 19200, Note_on_c, 0, 59, 0
3, 19200, Note_on_c, 0, 52, 0
3, 19200, Note_on_c, 0, 52, 74
3, 19200, Note_on_c, 0, 57, 74
3, 19212, Control_c, 0, 64, 0
3, 19440, Note_on_c, 0, 57, 0
3, 19440, Note_on_c, 0, 52, 0
3, 19440, Note_on_c, 0, 35, 74
3, 19464, Control_c, 0, 64, 127
3, 19680, Note_on_c, 0, 35, 0
3, 19680, Note_on_c, 0, 50, 74
3, 19680, Note_on_c, 0, 57, 74
3, 19920, Note_on_c, 0, 57, 0
3, 19920, Note_on_c, 0, 50, 0
3, 19920, Note_on_c, 0, 50, 74
3, 19920, Note_on_c, 0, 55, 74
3, 19922, Control_c, 0, 64, 0
3, 20160, Note_on_c, 0, 55, 0
3, 20160, Note_on_c, 0, 50, 0
3, 20160, Note_on_c, 0, 33, 74
3, 20219, Control_c, 0, 64, 127
3, 20400, Note_on_c, 0, 33, 0
3, 20400, Note_on_c, 0, 49, 74
3, 20400, Note_on_c, 0, 55, 74
3, 20640, Note_on_c, 0, 55, 0
3, 20640, Note_on_c, 0, 49, 0
3, 20640, Note_on_c, 0, 49, 74
3, 20640, Note_on_c, 0, 54, 74
3, 20648, Control_c, 0, 64, 0
3, 20656, Control_c, 0, 64, 0
3, 20880, Note_on_c, 0, 54, 0
3, 20880, Note_on_c, 0, 49, 0
3, 20880, Note_on_c, 0, 37, 74
3, 20904, Control_c, 0, 64, 127
3, 21120, Note_on_c, 0, 37, 0
3, 21120, Note_on_c, 0, 49, 74
3, 21120, Note_on_c, 0, 53, 74
3, 21358, Control_c, 0, 64, 0
3, 21360, Note_on_c, 0, 53, 0
3, 21360, Note_on_c, 0, 49, 0
3, 21360, Note_on_c, 0, 49, 74
3, 21360, Note_on_c, 0, 61, 74
3, 21366, Control_c, 0, 64, 0
3, 21600, Note_on_c, 0, 61, 0
3, 21600, Note_on_c, 0, 49, 0
3, 21600, Note_on_c, 0, 42, 74
3, 21629, Pitch_bend_c, 0, 8030
3, 21631, Pitch_bend_c, 0, 8111
3, 21840, Note_on_c, 0, 42, 0
3, 21840, Note_on_c, 0, 54, 74
3, 21840, Note_on_c, 0, 57, 74
3, 21840, Note_on_c, 0, 61, 74
3, 22080, Note_on_c, 0, 61, 0
3, 22080, Note_on_c, 0, 57, 0
3, 22080, Note_on_c, 0, 54, 0
3, 22080, Note_on_c, 0, 54, 74
3, 22080, Note_on_c, 0, 57, 74
3, 22080, Note_on_c, 0, 61, 74
3, 22320, Note_on_c, 0, 61, 0
3, 22320, Note_on_c, 0, 57, 0
3, 22320, Note_on_c, 0, 54, 0
3, 22320, Note_on_c, 0, 42, 74
3, 22382, Control_c, 0, 64, 127
3, 22560, Note_on_c, 0, 42, 0
3, 22560, Note_on_c, 0, 54, 74
3, 22560, Note_on_c, 0, 57, 74
3, 22560, Note_on_c, 0, 61, 74
3, 22800, Note_on_c, 0, 61, 0
3, 22800, Note_on_c, 0, 57, 0
3, 22800, Note_on_c, 0, 54, 0
3, 22800, Note_on_c, 0, 54, 74
3, 22800, Note_on_c, 0, 66, 74
3, 22803, Control_c, 0, 64, 0
3, 22811, Control_c, 0, 64, 0
3, 23040, Note_on_c, 0, 66, 0
3, 23040, Note_on_c, 0, 54, 0
3, 23040, Note_on_c, 0, 42, 74
3, 23052, Control_c, 0, 64, 127
3, 23280, Note_on_c, 0, 42, 0
3, 23280, Note_on_c, 0, 54, 74
3, 23280, Note_on_c, 0, 66, 74
3, 23520, Note_on_c, 0, 66, 0
3, 23520, Note_on_c, 0, 54, 0
3, 23520, Note_on_c, 0, 54, 74
3, 23520, Note_on_c, 0, 66, 74
3, 23760, Note_on_c, 0, 66, 0
3, 23760, Note_on_c, 0, 54, 0
3, 23760, Note_on_c, 0, 42, 74
3, 24000, Note_on_c, 0, 42, 0
3, 24000, Note_on_c, 0, 54, 74
3, 24000, Note_on_c, 0, 66, 74
3, 24240, Note_on_c, 0, 66, 0
3, 24240, Note_on_c, 0, 54, 0
3, 24240, Note_on_c, 0, 54, 74
3, 24240, Note_on_c, 0, 65, 74
3, 24415, Control_c, 0, 64, 0
3, 24480, Note_on_c, 0, 65, 0
3, 24480, Note_on_c, 0, 54, 0
3, 24480, Note_on_c, 0, 42, 74
3, 24489, Control_c, 0, 64, 127
3, 24720, Note_on_c, 0, 42, 0
3, 24720, Note_on_c, 0, 54, 74
3, 24720, Note_on_c, 0, 66, 74
3, 24960, Note_on_c, 0, 66, 0
3, 24960, Note_on_c, 0, 54, 0
3, 24960, Note_on_c, 0, 54, 74
3, 24960, Note_on_c, 0, 66, 74
3, 25200, Note_on_c, 0, 66, 0
3, 25200, Note_on_c, 0, 54, 0
3, 25200, Note_on_c, 0, 42, 74
3, 25405, Control_c, 0, 64, 0
3, 25438, Control_c, 0, 64, 0
3, 25440, Note_on_c, 0, 42, 0
3, 25440, Note_on_c, 0, 54, 74
3, 25440, Note_on_c, 0, 66, 74
3, 25447, Control_c, 0, 64, 127
3, 25680, Note_on_c, 0, 66, 0
3, 25680, Note_on_c, 0, 54, 0
3, 25680, Note_on_c, 0, 54, 74
3, 25680, Note_on_c, 0, 65, 74
3, 25892, Control_c, 0, 64, 0
3, 25901, Control_c, 0, 64, 0
3, 25920, Note_on_c, 0, 65, 0
3, 25920, Note_on_c, 0, 54, 0
3, 25920, Note_on_c, 0, 42, 74
3, 25950, Control_c, 0, 64, 127
3, 26160, Note_on_c, 0, 42, 0
3, 26160, Note_on_c, 0, 54, 74
3, 26160, Note_on_c, 0, 64, 74
3, 26400, Note_on_c, 0, 64, 0
3, 26400, Note_on_c, 0, 54, 0
3, 26400, Note_on_c, 0, 54, 74
3, 26400, Note_on_c, 0, 63, 74
3, 26412, Control_c, 0, 64, 0
3, 26421, Control_c, 0, 64, 0
3, 26640, Note_on_c, 0, 63, 0
3, 26640, Note_on_c, 0, 54, 0
3, 26640, Note_on_c, 0, 42, 74
3, 26718, Control_c, 0, 64, 127
3, 26880, Note_on_c, 0, 42, 0
3, 26880, Note_on_c, 0, 54, 74
3, 26880, Note_on_c, 0, 62, 74
3, 27120, Note_on_c, 0, 62, 0
3, 27120, Note_on_c, 0, 54, 0
3, 27120, Note_on_c, 0, 54, 74
3, 27120, Note_on_c, 0, 61, 74
3, 27139, Control_c, 0, 64, 0
3, 27360, Note_on_c, 0, 61, 0
3, 27360, Note_on_c, 0, 54, 0
3, 27360, Note_on_c, 0, 42, 74
3, 27370, Control_c, 0, 64, 127
3, 27600, Note_on_c, 0, 42, 0
3, 27600, Note_on_c, 0, 54, 74
3, 27600, Note_on_c, 0, 60, 74
3, 27840, Note_on_c, 0, 60, 0
3, 27840, Note_on_c, 0, 54, 0
3, 27840, Note_on_c, 0, 54, 74
3, 27840, Note_on_c, 0, 59, 74
3, 27964, Control_c, 0, 64, 0
3, 28080, Note_on_c, 0, 59, 0
3, 28080, Note_on_c, 0, 54, 0
3, 28080, Note_on_c, 0, 42, 74
3, 28096, Control_c, 0, 64, 0
3, 28113, Control_c, 0, 64, 0
3, 28179, Control_c, 0, 64, 127
3, 28320, Note_on_c, 0, 42, 0
3, 28320, Note_on_c, 0, 54, 74
3, 28320, Note_on_c, 0, 58, 74
3, 28560, Note_on_c, 0, 58, 0
3, 28560, Note_on_c, 0, 54, 0
3, 28560, Note_on_c, 0, 54, 74
3, 28560, Note_on_c, 0, 56, 74
3, 28575, Control_c, 0, 64, 0
3, 28583, Control_c, 0, 64, 0
3, 28704, Note_on_c, 0, 56, 0
3, 28704, Note_on_c, 0, 54, 0
3, 28800, Note_on_c, 0, 35, 74
3, 28810, Note_on_c, 0, 42, 74
3, 28820, Note_on_c, 0, 47, 74
3, 28830, Note_on_c, 0, 54, 74
3, 28856, Control_c, 0, 64, 0
3, 28864, Control_c, 0, 64, 127
3, 29040, Note_on_c, 0, 54, 0
3, 29040, Note_on_c, 0, 35, 0
3, 29040, Note_on_c, 0, 42, 0
3, 29040, Note_on_c, 0, 47, 0
3, 29040, Note_on_c, 0, 54, 74
3, 29040, Note_on_c, 0, 59, 74
3, 29040, Note_on_c, 0, 66, 74
3, 29280, Note_on_c, 0, 66, 0
3, 29280, Note_on_c, 0, 59, 0
3, 29280, Note_on_c, 0, 54, 0
3, 29280, Note_on_c, 0, 54, 74
3, 29280, Note_on_c, 0, 59, 74
3, 29280, Note_on_c, 0, 66, 74
3, 29520, Note_on_c, 0, 66, 0
3, 29520, Note_on_c, 0, 59, 0
3, 29520, Note_on_c, 0, 54, 0
3, 29520, Note_on_c, 0, 47, 74
3, 29760, Note_on_c, 0, 47, 0
3, 29760, Note_on_c, 0, 54, 74
3, 29760, Note_on_c, 0, 59, 74
3, 29760, Note_on_c, 0, 66, 74
3, 30000, Note_on_c, 0, 66, 0
3, 30000, Note_on_c, 0, 59, 0
3, 30000, Note_on_c, 0, 54, 0
3, 30000, Note_on_c, 0, 54, 74
3, 30000, Note_on_c, 0, 59, 74
3, 30000, Note_on_c, 0, 64, 74
3, 30240, Note_on_c, 0, 64, 0
3, 30240, Note_on_c, 0, 59, 0
3, 30240, Note_on_c, 0, 54, 0
3, 30240, Note_on_c, 0, 47, 74
3, 30259, Control_c, 0, 64, 0
3, 30267, Control_c, 0, 64, 0
3, 30333, Control_c, 0, 64, 127
3, 30480, Note_on_c, 0, 47, 0
3, 30480, Note_on_c, 0, 54, 74
3, 30480, Note_on_c, 0, 59, 74
3, 30480, Note_on_c, 0, 63, 74
3, 30720, Note_on_c, 0, 63, 0
3, 30720, Note_on_c, 0, 59, 0
3, 30720, Note_on_c, 0, 54, 0
3, 30720, Note_on_c, 0, 54, 74
3, 30720, Note_on_c, 0, 59, 74
3, 30720, Note_on_c, 0, 63, 74
3, 30721, Control_c, 0, 64, 0
3, 30960, Note_on_c, 0, 63, 0
3, 30960, Note_on_c, 0, 59, 0
3, 30960, Note_on_c, 0, 54, 0
3, 30960, Note_on_c, 0, 46, 74
3, 31018, Control_c, 0, 64, 127
3, 31200, Note_on_c, 0, 46, 0
3, 31200, Note_on_c, 0, 54, 74
3, 31200, Note_on_c, 0, 61, 74
3, 31431, Control_c, 0, 64, 0
3, 31439, Control_c, 0, 64, 0
3, 31440, Note_on_c, 0, 61, 0
3, 31440, Note_on_c, 0, 54, 0
3, 31440, Note_on_c, 0, 54, 74
3, 31440, Note_on_c, 0, 61, 74
3, 31680, Note_on_c, 0, 61, 0
3, 31680, Note_on_c, 0, 54, 0
3, 31680, Note_on_c, 0, 44, 74
3, 31761, Control_c, 0, 64, 127
3, 31920, Note_on_c, 0, 44, 0
3, 31920, Note_on_c, 0, 56, 74
3, 31920, Note_on_c, 0, 60, 74
3, 31920, Note_on_c, 0, 66, 74
3, 32160, Note_on_c, 0, 66, 0
3, 32160, Note_on_c, 0, 60, 0
3, 32160, Note_on_c, 0, 56, 0
3, 32160, Note_on_c, 0, 56, 74
3, 32160, Note_on_c, 0, 60, 74
3, 32160, Note_on_c, 0, 66, 74
3, 32400, Note_on_c, 0, 66, 0
3, 32400, Note_on_c, 0, 60, 0
3, 32400, Note_on_c, 0, 56, 0
3, 32400, Note_on_c, 0, 44, 74
3, 32640, Note_on_c, 0, 44, 0
3, 32640, Note_on_c, 0, 56, 74
3, 32640, Note_on_c, 0, 60, 74
3, 32640, Note_on_c, 0, 66, 74
3, 32880, Note_on_c, 0, 66, 0
3, 32880, Note_on_c, 0, 60, 0
3, 32880, Note_on_c, 0, 56, 0
3, 32880, Note_on_c, 0, 56, 74
3, 32880, Note_on_c, 0, 60, 74
3, 32880, Note_on_c, 0, 66, 74
3, 33120, Note_on_c, 0, 66, 0
3, 33120, Note_on_c, 0, 60, 0
3, 33120, Note_on_c, 0, 56, 0
3, 33120, Note_on_c, 0, 37, 74
3, 33120, Note_on_c, 0, 49, 74
3, 33123, Control_c, 0, 64, 0
3, 33189, Control_c, 0, 64, 0
3, 33197, Control_c, 0, 64, 127
3, 33360, Note_on_c, 0, 49, 0
3, 33360, Note_on_c, 0, 37, 0
3, 33360, Note_on_c, 0, 56, 74
3, 33360, Note_on_c, 0, 61, 74
3, 33360, Note_on_c, 0, 64, 74
3, 33600, Note_on_c, 0, 64, 0
3, 33600, Note_on_c, 0, 61, 0
3, 33600, Note_on_c, 0, 56, 0
3, 33600, Note_on_c, 0, 56, 74
3, 33600, Note_on_c, 0, 61, 74
3, 33600, Note_on_c, 0, 64, 74
3, 33825, Control_c, 0, 64, 0
3, 33840, Note_on_c, 0, 64, 0
3, 33840, Note_on_c, 0, 61, 0
3, 33840, Note_on_c, 0, 56, 0
3, 33840, Note_on_c, 0, 35, 74
3, 33840, Note_on_c, 0, 47, 74
3, 34080, Note_on_c, 0, 47, 0
3, 34080, Note_on_c, 0, 35, 0
3, 34080, Note_on_c, 0, 56, 74
3, 34080, Note_on_c, 0, 63, 74
3, 34320, Note_on_c, 0, 63, 0
3, 34320, Note_on_c, 0, 56, 0
3, 34320, Note_on_c, 0, 56, 74
3, 34320, Note_on_c, 0, 63, 74
3, 34560, Note_on_c, 0, 63, 0
3, 34560, Note_on_c, 0, 56, 0
3, 34560, Note_on_c, 0, 34, 74
3, 34617, Control_c, 0, 64, 127
3, 34800, Note_on_c, 0, 34, 0
3, 34800, Note_on_c, 0, 58, 74
3, 34800, Note_on_c, 0, 65, 74
3, 34800, Note_on_c, 0, 70, 74
3, 34815, Control_c, 0, 64, 0
3, 34823, Control_c, 0, 64, 0
3, 35040, Note_on_c, 0, 70, 0
3, 35040, Note_on_c, 0, 65, 0
3, 35040, Note_on_c, 0, 58, 0
3, 35040, Note_on_c, 0, 58, 74
3, 35040, Note_on_c, 0, 65, 74
3, 35040, Note_on_c, 0, 70, 74
3, 35280, Note_on_c, 0, 70, 0
3, 35280, Note_on_c, 0, 65, 0
3, 35280, Note_on_c, 0, 58, 0
3, 35280, Note_on_c, 0, 39, 74
3, 35335, Control_c, 0, 64, 0
3, 35343, Control_c, 0, 64, 127
3, 35520, Note_on_c, 0, 39, 0
3, 35520, Note_on_c, 0, 58, 74
3, 35520, Note_on_c, 0, 63, 74
3, 35520, Note_on_c, 0, 66, 74
3, 35533, Control_c, 0, 64, 0
3, 35760, Note_on_c, 0, 66, 0
3, 35760, Note_on_c, 0, 63, 0
3, 35760, Note_on_c, 0, 58, 0
3, 35760, Note_on_c, 0, 58, 74
3, 35760, Note_on_c, 0, 63, 74
3, 35760, Note_on_c, 0, 66, 74
3, 36000, Note_on_c, 0, 66, 0
3, 36000, Note_on_c, 0, 63, 0
3, 36000, Note_on_c, 0, 58, 0
3, 36000, Note_on_c, 0, 42, 74
3, 36040, Pitch_bend_c, 0, 8030
3, 36042, Pitch_bend_c, 0, 8111
3, 36070, Control_c, 0, 64, 127
3, 36240, Note_on_c, 0, 42, 0
3, 36240, Note_on_c, 0, 54, 74
3, 36240, Note_on_c, 0, 61, 74
3, 36240, Note_on_c, 0, 66, 74
3, 36251, Control_c, 0, 64, 0
3, 36480, Note_on_c, 0, 66, 0
3, 36480, Note_on_c, 0, 61, 0
3, 36480, Note_on_c, 0, 54, 0
3, 36480, Note_on_c, 0, 54, 74
3, 36480, Note_on_c, 0, 61, 74
3, 36480, Note_on_c, 0, 66, 74
3, 36645, Pitch_bend_c, 0, 8030
3, 36646, Pitch_bend_c, 0, 8111
3, 36720, Note_on_c, 0, 66, 0
3, 36720, Note_on_c, 0, 61, 0
3, 36720, Note_on_c, 0, 54, 0
3, 36720, Note_on_c, 0, 47, 74
3, 36788, Control_c, 0, 64, 0
3, 36796, Control_c, 0, 64, 127
3, 36960, Note_on_c, 0, 47, 0
3, 36960, Note_on_c, 0, 54, 74
3, 36960, Note_on_c, 0, 59, 74
3, 36986, Control_c, 0, 64, 0
3, 36994, Control_c, 0, 64, 0
3, 37200, Note_on_c, 0, 59, 0
3, 37200, Note_on_c, 0, 54, 0
3, 37200, Note_on_c, 0, 54, 74
3, 37200, Note_on_c, 0, 59, 74
3, 37440, Note_on_c, 0, 59, 0
3, 37440, Note_on_c, 0, 54, 0
3, 37440, Note_on_c, 0, 40, 74
3, 37448, Control_c, 0, 64, 0
3, 37456, Control_c, 0, 64, 127
3, 37679, Control_c, 0, 64, 0
3, 37680, Note_on_c, 0, 40, 0
3, 37680, Note_on_c, 0, 52, 74
3, 37680, Note_on_c, 0, 59, 74
3, 37920, Note_on_c, 0, 59, 0
3, 37920, Note_on_c, 0, 52, 0
3, 37920, Note_on_c, 0, 52, 74
3, 37920, Note_on_c, 0, 59, 74
3, 38158, Control_c, 0, 64, 0
3, 38160, Note_on_c, 0, 59, 0
3, 38160, Note_on_c, 0, 52, 0
3, 38160, Note_on_c, 0, 41, 74
3, 38184, Control_c, 0, 64, 127
3, 38400, Note_on_c, 0, 41, 0
3, 38400, Note_on_c, 0, 53, 74
3, 38400, Note_on_c, 0, 59, 74
3, 38406, Control_c, 0, 64, 0
3, 38640, Note_on_c, 0, 59, 0
3, 38640, Note_on_c, 0, 53, 0
3, 38640, Note_on_c, 0, 53, 74
3, 38640, Note_on_c, 0, 56, 74
3, 38880, Note_on_c, 0, 56, 0
3, 38880, Note_on_c, 0, 53, 0
3, 38880, Note_on_c, 0, 42, 74
3, 38904, Control_c, 0, 64, 127
3, 39120, Note_on_c, 0, 42, 0
3, 39120, Note_on_c, 0, 54, 74
3, 39120, Note_on_c, 0, 59, 74
3, 39338, Control_c, 0, 64, 0
3, 39360, Note_on_c, 0, 59, 0
3, 39360, Note_on_c, 0, 54, 0
3, 39360, Note_on_c, 0, 54, 74
3, 39360, Note_on_c, 0, 61, 74
3, 39600, Note_on_c, 0, 61, 0
3, 39600, Note_on_c, 0, 54, 0
3, 39600, Note_on_c, 0, 35, 74
3, 39660, Control_c, 0, 64, 0
3, 39669, Control_c, 0, 64, 127
3, 39840, Note_on_c, 0, 35, 0
3, 39840, Note_on_c, 0, 54, 74
3, 39840, Note_on_c, 0, 59, 74
3, 40080, Note_on_c, 0, 59, 0
3, 40080, Note_on_c, 0, 54, 0
3, 40080, Note_on_c, 0, 54, 74
3, 40080, Note_on_c, 0, 59, 74
3, 40081, Control_c, 0, 64, 0
3, 40098, Pitch_bend_c, 0, 8030
3, 40100, Pitch_bend_c, 0, 8111
3, 40320, Note_on_c, 0, 59, 0
3, 40320, Note_on_c, 0, 54, 0
3, 40320, Note_on_c, 0, 42, 74
3, 40332, Control_c, 0, 64, 127
3, 40560, Note_on_c, 0, 42, 0
3, 40560, Note_on_c, 0, 54, 74
3, 40560, Note_on_c, 0, 66, 74
3, 40800, Note_on_c, 0, 66, 0
3, 40800, Note_on_c, 0, 54, 0
3, 40800, Note_on_c, 0, 54, 74
3, 40800, Note_on_c, 0, 66, 74
3, 41040, Note_on_c, 0, 66, 0
3, 41040, Note_on_c, 0, 54, 0
3, 41040, Note_on_c, 0, 42, 74
3, 41280, Note_on_c, 0, 42, 0
3, 41280, Note_on_c, 0, 54, 74
3, 41280, Note_on_c, 0, 66, 74
3, 41520, Note_on_c, 0, 66, 0
3, 41520, Note_on_c, 0, 54, 0
3, 41520, Note_on_c, 0, 54, 74
3, 41520, Note_on_c, 0, 65, 74
3, 41695, Control_c, 0, 64, 0
3, 41760, Note_on_c, 0, 65, 0
3, 41760, Note_on_c, 0, 54, 0
3, 41760, Note_on_c, 0, 42, 74
3, 41769, Control_c, 0, 64, 127
3, 42000, Note_on_c, 0, 42, 0
3, 42000, Note_on_c, 0, 54, 74
3, 42000, Note_on_c, 0, 66, 74
3, 42240, Note_on_c, 0, 66, 0
3, 42240, Note_on_c, 0, 54, 0
3, 42240, Note_on_c, 0, 54, 74
3, 42240, Note_on_c, 0, 66, 74
3, 42480, Note_on_c, 0, 66, 0
3, 42480, Note_on_c, 0, 54, 0
3, 42480, Note_on_c, 0, 42, 74
3, 42685, Control_c, 0, 64, 0
3, 42718, Control_c, 0, 64, 0
3, 42720, Note_on_c, 0, 42, 0
3, 42720, Note_on_c, 0, 54, 74
3, 42720, Note_on_c, 0, 66, 74
3, 42727, Control_c, 0, 64, 127
3, 42960, Note_on_c, 0, 66, 0
3, 42960, Note_on_c, 0, 54, 0
3, 42960, Note_on_c, 0, 54, 74
3, 42960, Note_on_c, 0, 65, 74
3, 43172, Control_c, 0, 64, 0
3, 43181, Control_c, 0, 64, 0
3, 43200, Note_on_c, 0, 65, 0
3, 43200, Note_on_c, 0, 54, 0
3, 43200, Note_on_c, 0, 42, 74
3, 43230, Control_c, 0, 64, 127
3, 43440, Note_on_c, 0, 42, 0
3, 43440, Note_on_c, 0, 54, 74
3, 43440, Note_on_c, 0, 64, 74
3, 43680, Note_on_c, 0, 64, 0
3, 43680, Note_on_c, 0, 54, 0
3, 43680, Note_on_c, 0, 54, 74
3, 43680, Note_on_c, 0, 63, 74
3, 43692, Control_c, 0, 64, 0
3, 43701, Control_c, 0, 64, 0
3, 43920, Note_on_c, 0, 63, 0
3, 43920, Note_on_c, 0, 54, 0
3, 43920, Note_on_c, 0, 42, 74
3, 43998, Control_c, 0, 64, 127
3, 44160, Note_on_c, 0, 42, 0
3, 44160, Note_on_c, 0, 54, 74
3, 44160, Note_on_c, 0, 62, 74
3, 44400, Note_on_c, 0, 62, 0
3, 44400, Note_on_c, 0, 54, 0
3, 44400, Note_on_c, 0, 54, 74
3, 44400, Note_on_c, 0, 61, 74
3, 44419, Control_c, 0, 64, 0
3, 44640, Note_on_c, 0, 61, 0
3, 44640, Note_on_c, 0, 54, 0
3, 44640, Note_on_c, 0, 42, 74
3, 44650, Control_c, 0, 64, 127
3, 44880, Note_on_c, 0, 42, 0
3, 44880, Note_on_c, 0, 54, 74
3, 44880, Note_on_c, 0, 60, 74
3, 45120, Note_on_c, 0, 60, 0
3, 45120, Note_on_c, 0, 54, 0
3, 45120, Note_on_c, 0, 54, 74
3, 45120, Note_on_c, 0, 59, 74
3, 45244, Control_c, 0, 64, 0
3, 45360, Note_on_c, 0, 59, 0
3, 45360, Note_on_c, 0, 54, 0
3, 45360, Note_on_c, 0, 42, 74
3, 45376, Control_c, 0, 64, 0
3, 45393, Control_c, 0, 64, 0
3, 45459, Control_c, 0, 64, 127
3, 45600, Note_on_c, 0, 42, 0
3, 45600, Note_on_c, 0, 54, 74
3, 45600, Note_on_c, 0, 58, 74
3, 45840, Note_on_c, 0, 58, 0
3, 45840, Note_on_c, 0, 54, 0
3, 45840, Note_on_c, 0, 54, 74
3, 45840, Note_on_c, 0, 56, 74
3, 45855, Control_c, 0, 64, 0
3, 45863, Control_c, 0, 64, 0
3, 45984, Note_on_c, 0, 56, 0
3, 45984, Note_on_c, 0, 54, 0
3, 46080, Note_on_c, 0, 35, 74
3, 46090, Note_on_c, 0, 42, 74
3, 46100, Note_on_c, 0, 47, 74
3, 46110, Note_on_c, 0, 54, 74
3, 46136, Control_c, 0, 64, 0
3, 46144, Control_c, 0, 64, 127
3, 46320, Note_on_c, 0, 54, 0
3, 46320, Note_on_c, 0, 35, 0
3, 46320, Note_on_c, 0, 42, 0
3, 46320, Note_on_c, 0, 47, 0
3, 46320, Note_on_c, 0, 54, 74
3, 46320, Note_on_c, 0, 59, 74
3, 46320, Note_on_c, 0, 66, 74
3, 46560, Note_on_c, 0, 66, 0
3, 46560, Note_on_c, 0, 59, 0
3, 46560, Note_on_c, 0, 54, 0
3, 46560, Note_on_c, 0, 54, 74
3, 46560, Note_on_c, 0, 59, 74
3, 46560, Note_on_c, 0, 66, 74
3, 46800, Note_on_c, 0, 66, 0
3, 46800, Note_on_c, 0, 59, 0
3, 46800, Note_on_c, 0, 54, 0
3, 46800, Note_on_c, 0, 47, 74
3, 47040, Note_on_c, 0, 47, 0
3, 47040, Note_on_c, 0, 54, 74
3, 47040, Note_on_c, 0, 59, 74
3, 47040, Note_on_c, 0, 66, 74
3, 47280, Note_on_c, 0, 66, 0
3, 47280, Note_on_c, 0, 59, 0
3, 47280, Note_on_c, 0, 54, 0
3, 47280, Note_on_c, 0, 54, 74
3, 47280, Note_on_c, 0, 59, 74
3, 47280, Note_on_c, 0, 64, 74
3, 47520, Note_on_c, 0, 64, 0
3, 47520, Note_on_c, 0, 59, 0
3, 47520, Note_on_c, 0, 54, 0
3, 47520, Note_on_c, 0, 47, 74
3, 47539, Control_c, 0, 64, 0
3, 47547, Control_c, 0, 64, 0
3, 47613, Control_c, 0, 64, 127
3, 47760, Note_on_c, 0, 47, 0
3, 47760, Note_on_c, 0, 54, 74
3, 47760, Note_on_c, 0, 59, 74
3, 47760, Note_on_c, 0, 63, 74
3, 48000, Note_on_c, 0, 63, 0
3, 48000, Note_on_c, 0, 59, 0
3, 48000, Note_on_c, 0, 54, 0
3, 48000, Note_on_c, 0, 54, 74
3, 48000, Note_on_c, 0, 59, 74
3, 48000, Note_on_c, 0, 63, 74
3, 48001, Control_c, 0, 64, 0
3, 48240, Note_on_c, 0, 63, 0
3, 48240, Note_on_c, 0, 59, 0
3, 48240, Note_on_c, 0, 54, 0
3, 48240, Note_on_c, 0, 46, 74
3, 48298, Control_c, 0, 64, 127
3, 48480, Note_on_c, 0, 46, 0
3, 48480, Note_on_c, 0, 54, 74
3, 48480, Note_on_c, 0, 61, 74
3, 48711, Control_c, 0, 64, 0
3, 48719, Control_c, 0, 64, 0
3, 48720, Note_on_c, 0, 61, 0
3, 48720, Note_on_c, 0, 54, 0
3, 48720, Note_on_c, 0, 54, 74
3, 48720, Note_on_c, 0, 61, 74
3, 48960, Note_on_c, 0, 61, 0
3, 48960, Note_on_c, 0, 54, 0
3, 48960, Note_on_c, 0, 44, 74
3, 49041, Control_c, 0, 64, 127
3, 49200, Note_on_c, 0, 44, 0
3, 49200, Note_on_c, 0, 56, 74
3, 49200, Note_on_c, 0, 60, 74
3, 49200, Note_on_c, 0, 66, 74
3, 49440, Note_on_c, 0, 66, 0
3, 49440, Note_on_c, 0, 60, 0
3, 49440, Note_on_c, 0, 56, 0
3, 49440, Note_on_c, 0, 56, 74
3, 49440, Note_on_c, 0, 60, 74
3, 49440, Note_on_c, 0, 66, 74
3, 49680, Note_on_c, 0, 66, 0
3, 49680, Note_on_c, 0, 60, 0
3, 49680, Note_on_c, 0, 56, 0
3, 49680, Note_on_c, 0, 44, 74
3, 49920, Note_on_c, 0, 44, 0
3, 49920, Note_on_c, 0, 56, 74
3, 49920, Note_on_c, 0, 60, 74
3, 49920, Note_on_c, 0, 66, 74
3, 50160, Note_on_c, 0, 66, 0
3, 50160, Note_on_c, 0, 60, 0
3, 50160, Note_on_c, 0, 56, 0
3, 50160, Note_on_c, 0, 56, 74
3, 50160, Note_on_c, 0, 60, 74
3, 50160, Note_on_c, 0, 66, 74
3, 50400, Note_on_c, 0, 66, 0
3, 50400, Note_on_c, 0, 60, 0
3, 50400, Note_on_c, 0, 56, 0
3, 50400, Note_on_c, 0, 37, 74
3, 50400, Note_on_c, 0, 49, 74
3, 50403, Control_c, 0, 64, 0
3, 50469, Control_c, 0, 64, 0
3, 50477, Control_c, 0, 64, 127
3, 50640, Note_on_c, 0, 49, 0
3, 50640, Note_on_c, 0, 37, 0
3, 50640, Note_on_c, 0, 56, 74
3, 50640, Note_on_c, 0, 61, 74
3, 50640, Note_on_c, 0, 64, 74
3, 50880, Note_on_c, 0, 64, 0
3, 50880, Note_on_c, 0, 61, 0
3, 50880, Note_on_c, 0, 56, 0
3, 50880, Note_on_c, 0, 56, 74
3, 50880, Note_on_c, 0, 61, 74
3, 50880, Note_on_c, 0, 64, 74
3, 51105, Control_c, 0, 64, 0
3, 51120, Note_on_c, 0, 64, 0
3, 51120, Note_on_c, 0, 61, 0
3, 51120, Note_on_c, 0, 56, 0
3, 51120, Note_on_c, 0, 35, 74
3, 51120, Note_on_c, 0, 47, 74
3, 51360, Note_on_c, 0, 47, 0
3, 51360, Note_on_c, 0, 35, 0
3, 51360, Note_on_c, 0, 56, 74
3, 51360, Note_on_c, 0, 63, 74
3, 51600, Note_on_c, 0, 63, 0
3, 51600, Note_on_c, 0, 56, 0
3, 51600, Note_on_c, 0, 56, 74
3, 51600, Note_on_c, 0, 63, 74
3, 51840, Note_on_c, 0, 63, 0
3, 51840, Note_on_c, 0, 56, 0
3, 51840, Note_on_c, 0, 34, 74
3, 51897, Control_c, 0, 64, 127
3, 52080, Note_on_c, 0, 34, 0
3, 52080, Note_on_c, 0, 58, 74
3, 52080, Note_on_c, 0, 65, 74
3, 52080, Note_on_c, 0, 70, 74
3, 52095, Control_c, 0, 64, 0
3, 52103, Control_c, 0, 64, 0
3, 52320, Note_on_c, 0, 70, 0
3, 52320, Note_on_c, 0, 65, 0
3, 52320, Note_on_c, 0, 58, 0
3, 52320, Note_on_c, 0, 58, 74
3, 52320, Note_on_c, 0, 65, 74
3, 52320, Note_on_c, 0, 70, 74
3, 52560, Note_on_c, 0, 70, 0
3, 52560, Note_on_c, 0, 65, 0
3, 52560, Note_on_c, 0, 58, 0
3, 52560, Note_on_c, 0, 39, 74
3, 52615, Control_c, 0, 64, 0
3, 52623, Control_c, 0, 64, 127
3, 52800, Note_on_c, 0, 39, 0
3, 52800, Note_on_c, 0, 58, 74
3, 52800, Note_on_c, 0, 63, 74
3, 52800, Note_on_c, 0, 66, 74
3, 52813, Control_c, 0, 64, 0
3, 53040, Note_on_c, 0, 66, 0
3, 53040, Note_on_c, 0, 63, 0
3, 53040, Note_on_c, 0, 58, 0
3, 53040, Note_on_c, 0, 58, 74
3, 53040, Note_on_c, 0, 63, 74
3, 53040, Note_on_c, 0, 66, 74
3, 53280, Note_on_c, 0, 66, 0
3, 53280, Note_on_c, 0, 63, 0
3, 53280, Note_on_c, 0, 58, 0
3, 53280, Note_on_c, 0, 42, 74
3, 53320, Pitch_bend_c, 0, 8030
3, 53322, Pitch_bend_c, 0, 8111
3, 53350, Control_c, 0, 64, 127
3, 53520, Note_on_c, 0, 42, 0
3, 53520, Note_on_c, 0, 54, 74
3, 53520, Note_on_c, 0, 61, 74
3, 53520, Note_on_c, 0, 66, 74
3, 53531, Control_c, 0, 64, 0
3, 53760, Note_on_c, 0, 66, 0
3, 53760, Note_on_c, 0, 61, 0
3, 53760, Note_on_c, 0, 54, 0
3, 53760, Note_on_c, 0, 54, 74
3, 53760, Note_on_c, 0, 61, 74
3, 53760, Note_on_c, 0, 66, 74
3, 53925, Pitch_bend_c, 0, 8030
3, 53926, Pitch_bend_c, 0, 8111
3, 54000, Note_on_c, 0, 66, 0
3, 54000, Note_on_c, 0, 61, 0
3, 54000, Note_on_c, 0, 54, 0
3, 54000, Note_on_c, 0, 47, 74
3, 54068, Control_c, 0, 64, 0
3, 54076, Control_c, 0, 64, 127
3, 54240, Note_on_c, 0, 47, 0
3, 54240, Note_on_c, 0, 54, 74
3, 54240, Note_on_c, 0, 59, 74
3, 54266, Control_c, 0, 64, 0
3, 54274, Control_c, 0, 64, 0
3, 54480, Note_on_c, 0, 59, 0
3, 54480, Note_on_c, 0, 54, 0
3, 54480, Note_on_c, 0, 54, 74
3, 54480, Note_on_c, 0, 59, 74
3, 54720, Note_on_c, 0, 59, 0
3, 54720, Note_on_c, 0, 54, 0
3, 54720, Note_on_c, 0, 40, 74
3, 54728, Control_c, 0, 64, 0
3, 54736, Control_c, 0, 64, 127
3, 54959, Control_c, 0, 64, 0
3, 54960, Note_on_c, 0, 40, 0
3, 54960, Note_on_c, 0, 52, 74
3, 54960, Note_on_c, 0, 59, 74
3, 55200, Note_on_c, 0, 59, 0
3, 55200, Note_on_c, 0, 52, 0
3, 55200, Note_on_c, 0, 52, 74
3, 55200, Note_on_c, 0, 59, 74
3, 55438, Control_c, 0, 64, 0
3, 55440, Note_on_c, 0, 59, 0
3, 55440, Note_on_c, 0, 52, 0
3, 55440, Note_on_c, 0, 41, 74
3, 55464, Control_c, 0, 64, 127
3, 55680, Note_on_c, 0, 41, 0
3, 55680, Note_on_c, 0, 53, 74
3, 55680, Note_on_c, 0, 59, 74
3, 55686, Control_c, 0, 64, 0
3, 55920, Note_on_c, 0, 59, 0
3, 55920, Note_on_c, 0, 53, 0
3, 55920, Note_on_c, 0, 53, 74
3, 55920, Note_on_c, 0, 56, 74
3, 56160, Note_on_c, 0, 56, 0
3, 56160, Note_on_c, 0, 53, 0
3, 56160, Note_on_c, 0, 42, 74
3, 56184, Control_c, 0, 64, 127
3, 56400, Note_on_c, 0, 42, 0
3, 56400, Note_on_c, 0, 54, 74
3, 56400, Note_on_c, 0, 59, 74
3, 56618, Control_c, 0, 64, 0
3, 56640, Note_on_c, 0, 59, 0
3, 56640, Note_on_c, 0, 54, 0
3, 56640, Note_on_c, 0, 54, 74
3, 56640, Note_on_c, 0, 61, 74
3, 56880, Note_on_c, 0, 61, 0
3, 56880, Note_on_c, 0, 54, 0
3, 56880, Note_on_c, 0, 35, 74
3, 56944, Control_c, 0, 64, 127
3, 57120, Note_on_c, 0, 35, 0
3, 57120, Note_on_c, 0, 54, 74
3, 57120, Note_on_c, 0, 59, 74
3, 57360, Note_on_c, 0, 59, 0
3, 57360, Note_on_c, 0, 54, 0
3, 57382, Control_c, 0, 64, 0
3, 57390, Control_c, 0, 64, 0
3, 57390, End_track
0, 0, End_of_file
