0, 0, Header, 1, 3, 240
1, 0, Start_track
1, 0, Title_t, "untitled"
1, 0, Time_signature, 3, 2, 24, 8
1, 0, Key_signature, 0, "major"
1, 0, Tempo, 400000
1, 0, End_track
2, 0, Start_track
2, 0, Title_t, "Brahms"
2, 0, Program_c, 0, 0
2, 0, Control_c, 0, 7, 110
2, 0, Control_c, 0, 10, 79
2, 480, Note_on_c, 0, 64, 65
2, 480, Note_on_c, 0, 59, 65
2, 480, Note_on_c, 0, 68, 65
2, 708, Note_on_c, 0, 68, 0
2, 708, Note_on_c, 0, 59, 0
2, 720, Note_on_c, 0, 66, 65
2, 720, Note_on_c, 0, 57, 65
2, 936, Note_on_c, 0, 64, 0
2, 948, Note_on_c, 0, 57, 0
2, 948, Note_on_c, 0, 66, 0
2, 1200, Note_on_c, 0, 64, 65
2, 1200, Note_on_c, 0, 61, 65
2, 1200, Note_on_c, 0, 69, 65
2, 1428, Note_on_c, 0, 69, 0
2, 1428, Note_on_c, 0, 61, 0
2, 1440, Note_on_c, 0, 68, 65
2, 1440, Note_on_c, 0, 59, 65
2, 1884, Note_on_c, 0, 64, 0
2, 1896, Note_on_c, 0, 59, 0
2, 1896, Note_on_c, 0, 68, 0
2, 1920, Note_on_c, 0, 64, 65
2, 1920, Note_on_c, 0, 63, 65
2, 1920, Note_on_c, 0, 71, 65
2, 2148, Note_on_c, 0, 71, 0
2, 2148, Note_on_c, 0, 63, 0
2, 2160, Note_on_c, 0, 69, 65
2, 2160, Note_on_c, 0, 61, 65
2, 2274, Note_on_c, 0, 61, 0
2, 2274, Note_on_c, 0, 69, 0
2, 2280, Note_on_c, 0, 68, 65
2, 2280, Note_on_c, 0, 59, 65
2, 2394, Note_on_c, 0, 59, 0
2, 2394, Note_on_c, 0, 68, 0
2, 2400, Note_on_c, 0, 66, 65
2, 2400, Note_on_c, 0, 57, 65
2, 2604, Note_on_c, 0, 64, 0
2, 2628, Note_on_c, 0, 57, 0
2, 2628, Note_on_c, 0, 66, 0
2, 2640, Note_on_c, 0, 59, 65
2, 2640, Note_on_c, 0, 64, 65
2, 2640, Note_on_c, 0, 68, 65
2, 2868, Note_on_c, 0, 68, 0
2, 2868, Note_on_c, 0, 64, 0
2, 2868, Note_on_c, 0, 59, 0
2, 2880, Note_on_c, 0, 59, 65
2, 2880, Note_on_c, 0, 56, 65
2, 3336, Note_on_c, 0, 56, 0
2, 3336, Note_on_c, 0, 59, 0
2, 3360, Note_on_c, 0, 68, 65
2, 3360, Note_on_c, 0, 59, 65
2, 3588, Note_on_c, 0, 59, 0
2, 3600, Note_on_c, 0, 71, 65
2, 3600, Note_on_c, 0, 59, 65
2, 3816, Note_on_c, 0, 68, 0
2, 3840, Note_on_c, 0, 66, 65
2, 4056, Note_on_c, 0, 59, 0
2, 4056, Note_on_c, 0, 71, 0
2, 4068, Note_on_c, 0, 66, 0
2, 4080, Note_on_c, 0, 69, 65
2, 4080, Note_on_c, 0, 63, 65
2, 4080, Note_on_c, 0, 71, 65
2, 4308, Note_on_c, 0, 71, 0
2, 4308, Note_on_c, 0, 63, 0
2, 4320, Note_on_c, 0, 76, 65
2, 4320, Note_on_c, 0, 64, 65
2, 4536, Note_on_c, 0, 69, 0
2, 4560, Note_on_c, 0, 68, 65
2, 4776, Note_on_c, 0, 64, 0
2, 4776, Note_on_c, 0, 76, 0
2, 4788, Note_on_c, 0, 68, 0
2, 4800, Note_on_c, 0, 76, 65
2, 4800, Note_on_c, 0, 71, 65
2, 5040, Note_on_c, 0, 78, 65
2, 5142, Note_on_c, 0, 71, 0
2, 5160, Note_on_c, 0, 70, 65
2, 5274, Note_on_c, 0, 70, 0
2, 5280, Note_on_c, 0, 68, 65
2, 5394, Note_on_c, 0, 68, 0
2, 5400, Note_on_c, 0, 70, 65
2, 5484, Note_on_c, 0, 76, 0
2, 5496, Note_on_c, 0, 78, 0
2, 5514, Note_on_c, 0, 70, 0
2, 5520, Note_on_c, 0, 66, 65
2, 5520, Note_on_c, 0, 76, 65
2, 5520, Note_on_c, 0, 73, 65
2, 5862, Note_on_c, 0, 73, 0
2, 5862, Note_on_c, 0, 76, 0
2, 5880, Note_on_c, 0, 75, 65
2, 5880, Note_on_c, 0, 71, 65
2, 5994, Note_on_c, 0, 71, 0
2, 5994, Note_on_c, 0, 75, 0
2, 6000, Note_on_c, 0, 73, 65
2, 6000, Note_on_c, 0, 70, 65
2, 6114, Note_on_c, 0, 70, 0
2, 6114, Note_on_c, 0, 73, 0
2, 6120, Note_on_c, 0, 75, 65
2, 6120, Note_on_c, 0, 71, 65
2, 6204, Note_on_c, 0, 66, 0
2, 6234, Note_on_c, 0, 71, 0
2, 6234, Note_on_c, 0, 75, 0
2, 6240, Note_on_c, 0, 78, 65
2, 6240, Note_on_c, 0, 71, 65
2, 6480, Note_on_c, 0, 80, 65
2, 6582, Note_on_c, 0, 78, 0
2, 6600, Note_on_c, 0, 76, 65
2, 6714, Note_on_c, 0, 76, 0
2, 6720, Note_on_c, 0, 75, 65
2, 6834, Note_on_c, 0, 75, 0
2, 6840, Note_on_c, 0, 76, 65
2, 6924, Note_on_c, 0, 71, 0
2, 6936, Note_on_c, 0, 80, 0
2, 6954, Note_on_c, 0, 76, 0
2, 6960, Note_on_c, 0, 83, 65
2, 6960, Note_on_c, 0, 76, 65
2, 6960, Note_on_c, 0, 71, 65
2, 7188, Note_on_c, 0, 71, 0
2, 7200, Note_on_c, 0, 73, 65
2, 7302, Note_on_c, 0, 83, 0
2, 7320, Note_on_c, 0, 82, 65
2, 7434, Note_on_c, 0, 82, 0
2, 7440, Note_on_c, 0, 80, 65
2, 7554, Note_on_c, 0, 80, 0
2, 7560, Note_on_c, 0, 82, 65
2, 7644, Note_on_c, 0, 76, 0
2, 7656, Note_on_c, 0, 73, 0
2, 7674, Note_on_c, 0, 82, 0
2, 7680, Note_on_c, 0, 88, 65
2, 7680, Note_on_c, 0, 82, 65
2, 7680, Note_on_c, 0, 78, 65
2, 8022, Note_on_c, 0, 88, 0
2, 8040, Note_on_c, 0, 87, 65
2, 8040, Note_on_c, 0, 83, 65
2, 8136, Note_on_c, 0, 78, 0
2, 8136, Note_on_c, 0, 82, 0
2, 8154, Note_on_c, 0, 87, 0
2, 8154, Note_on_c, 0, 83, 0
2, 8160, Note_on_c, 0, 85, 65
2, 8160, Note_on_c, 0, 82, 65
2, 8160, Note_on_c, 0, 76, 65
2, 8274, Note_on_c, 0, 76, 0
2, 8274, Note_on_c, 0, 82, 0
2, 8274, Note_on_c, 0, 85, 0
2, 8280, Note_on_c, 0, 87, 65
2, 8280, Note_on_c, 0, 83, 65
2, 8280, Note_on_c, 0, 78, 65
2, 8394, Note_on_c, 0, 78, 0
2, 8394, Note_on_c, 0, 83, 0
2, 8394, Note_on_c, 0, 87, 0
2, 8400, Note_on_c, 0, 75, 65
2, 8400, Note_on_c, 0, 83, 65
2, 8628, Note_on_c, 0, 83, 0
2, 8628, Note_on_c, 0, 75, 0
2, 9120, Note_on_c, 0, 64, 65
2, 9120, Note_on_c, 0, 59, 65
2, 9120, Note_on_c, 0, 68, 65
2, 9348, Note_on_c, 0, 68, 0
2, 9348, Note_on_c, 0, 59, 0
2, 9360, Note_on_c, 0, 66, 65
2, 9360, Note_on_c, 0, 57, 65
2, 9576, Note_on_c, 0, 64, 0
2, 9588, Note_on_c, 0, 57, 0
2, 9588, Note_on_c, 0, 66, 0
2, 9840, Note_on_c, 0, 64, 65
2, 9840, Note_on_c, 0, 61, 65
2, 9840, Note_on_c, 0, 69, 65
2, 10068, Note_on_c, 0, 69, 0
2, 10068, Note_on_c, 0, 61, 0
2, 10080, Note_on_c, 0, 68, 65
2, 10080, Note_on_c, 0, 59, 65
2, 10524, Note_on_c, 0, 64, 0
2, 10536, Note_on_c, 0, 59, 0
2, 10536, Note_on_c, 0, 68, 0
2, 10560, Note_on_c, 0, 64, 65
2, 10560, Note_on_c, 0, 63, 65
2, 10560, Note_on_c, 0, 71, 65
2, 10788, Note_on_c, 0, 71, 0
2, 10788, Note_on_c, 0, 63, 0
2, 10800, Note_on_c, 0, 69, 65
2, 10800, Note_on_c, 0, 61, 65
2, 10914, Note_on_c, 0, 61, 0
2, 10914, Note_on_c, 0, 69, 0
2, 10920, Note_on_c, 0, 68, 65
2, 10920, Note_on_c, 0, 59, 65
2, 11034, Note_on_c, 0, 59, 0
2, 11034, Note_on_c, 0, 68, 0
2, 11040, Note_on_c, 0, 66, 65
2, 11040, Note_on_c, 0, 57, 65
2, 11244, Note_on_c, 0, 64, 0
2, 11268, Note_on_c, 0, 57, 0
2, 11268, Note_on_c, 0, 66, 0
2, 11280, Note_on_c, 0, 59, 65
2, 11280, Note_on_c, 0, 64, 65
2, 11280, Note_on_c, 0, 68, 65
2, 11508, Note_on_c, 0, 68, 0
2, 11508, Note_on_c, 0, 64, 0
2, 11508, Note_on_c, 0, 59, 0
2, 11520, Note_on_c, 0, 59, 65
2, 11520, Note_on_c, 0, 56, 65
2, 11976, Note_on_c, 0, 56, 0
2, 11976, Note_on_c, 0, 59, 0
2, 12000, Note_on_c, 0, 68, 65
2, 12000, Note_on_c, 0, 59, 65
2, 12228, Note_on_c, 0, 59, 0
2, 12240, Note_on_c, 0, 71, 65
2, 12240, Note_on_c, 0, 59, 65
2, 12456, Note_on_c, 0, 68, 0
2, 12480, Note_on_c, 0, 66, 65
2, 12696, Note_on_c, 0, 59, 0
2, 12696, Note_on_c, 0, 71, 0
2, 12708, Note_on_c, 0, 66, 0
2, 12720, Note_on_c, 0, 69, 65
2, 12720, Note_on_c, 0, 63, 65
2, 12720, Note_on_c, 0, 71, 65
2, 12948, Note_on_c, 0, 71, 0
2, 12948, Note_on_c, 0, 63, 0
2, 12960, Note_on_c, 0, 76, 65
2, 12960, Note_on_c, 0, 64, 65
2, 13176, Note_on_c, 0, 69, 0
2, 13200, Note_on_c, 0, 68, 65
2, 13416, Note_on_c, 0, 64, 0
2, 13416, Note_on_c, 0, 76, 0
2, 13428, Note_on_c, 0, 68, 0
2, 13440, Note_on_c, 0, 76, 65
2, 13440, Note_on_c, 0, 71, 65
2, 13680, Note_on_c, 0, 78, 65
2, 13782, Note_on_c, 0, 71, 0
2, 13800, Note_on_c, 0, 70, 65
2, 13914, Note_on_c, 0, 70, 0
2, 13920, Note_on_c, 0, 68, 65
2, 14034, Note_on_c, 0, 68, 0
2, 14040, Note_on_c, 0, 70, 65
2, 14124, Note_on_c, 0, 76, 0
2, 14136, Note_on_c, 0, 78, 0
2, 14154, Note_on_c, 0, 70, 0
2, 14160, Note_on_c, 0, 66, 65
2, 14160, Note_on_c, 0, 76, 65
2, 14160, Note_on_c, 0, 73, 65
2, 14502, Note_on_c, 0, 73, 0
2, 14502, Note_on_c, 0, 76, 0
2, 14520, Note_on_c, 0, 75, 65
2, 14520, Note_on_c, 0, 71, 65
2, 14634, Note_on_c, 0, 71, 0
2, 14634, Note_on_c, 0, 75, 0
2, 14640, Note_on_c, 0, 73, 65
2, 14640, Note_on_c, 0, 70, 65
2, 14754, Note_on_c, 0, 70, 0
2, 14754, Note_on_c, 0, 73, 0
2, 14760, Note_on_c, 0, 75, 65
2, 14760, Note_on_c, 0, 71, 65
2, 14844, Note_on_c, 0, 66, 0
2, 14874, Note_on_c, 0, 71, 0
2, 14874, Note_on_c, 0, 75, 0
2, 14880, Note_on_c, 0, 78, 65
2, 14880, Note_on_c, 0, 71, 65
2, 15120, Note_on_c, 0, 80, 65
2, 15222, Note_on_c, 0, 78, 0
2, 15240, Note_on_c, 0, 76, 65
2, 15354, Note_on_c, 0, 76, 0
2, 15360, Note_on_c, 0, 75, 65
2, 15474, Note_on_c, 0, 75, 0
2, 15480, Note_on_c, 0, 76, 65
2, 15564, Note_on_c, 0, 71, 0
2, 15576, Note_on_c, 0, 80, 0
2, 15594, Note_on_c, 0, 76, 0
2, 15600, Note_on_c, 0, 83, 65
2, 15600, Note_on_c, 0, 76, 65
2, 15600, Note_on_c, 0, 71, 65
2, 15828, Note_on_c, 0, 71, 0
2, 15840, Note_on_c, 0, 73, 65
2, 15942, Note_on_c, 0, 83, 0
2, 15960, Note_on_c, 0, 82, 65
2, 16074, Note_on_c, 0, 82, 0
2, 16080, Note_on_c, 0, 80, 65
2, 16194, Note_on_c, 0, 80, 0
2, 16200, Note_on_c, 0, 82, 65
2, 16284, Note_on_c, 0, 76, 0
2, 16296, Note_on_c, 0, 73, 0
2, 16314, Note_on_c, 0, 82, 0
2, 16320, Note_on_c, 0, 88, 65
2, 16320, Note_on_c, 0, 82, 65
2, 16320, Note_on_c, 0, 78, 65
2, 16662, Note_on_c, 0, 88, 0
2, 16680, Note_on_c, 0, 87, 65
2, 16680, Note_on_c, 0, 83, 65
2, 16776, Note_on_c, 0, 78, 0
2, 16776, Note_on_c, 0, 82, 0
2, 16794, Note_on_c, 0, 87, 0
2, 16794, Note_on_c, 0, 83, 0
2, 16800, Note_on_c, 0, 85, 65
2, 16800, Note_on_c, 0, 82, 65
2, 16800, Note_on_c, 0, 76, 65
2, 16914, Note_on_c, 0, 76, 0
2, 16914, Note_on_c, 0, 82, 0
2, 16914, Note_on_c, 0, 85, 0
2, 16920, Note_on_c, 0, 87, 65
2, 16920, Note_on_c, 0, 83, 65
2, 16920, Note_on_c, 0, 78, 65
2, 17034, Note_on_c, 0, 78, 0
2, 17034, Note_on_c, 0, 83, 0
2, 17034, Note_on_c, 0, 87, 0
2, 17040, Note_on_c, 0, 75, 65
2, 17040, Note_on_c, 0, 83, 65
2, 17268, Note_on_c, 0, 83, 0
2, 17268, Note_on_c, 0, 75, 0
2, 17760, Note_on_c, 0, 64, 65
2, 17760, Note_on_c, 0, 59, 65
2, 17760, Note_on_c, 0, 67, 65
2, 17988, Note_on_c, 0, 67, 0
2, 17988, Note_on_c, 0, 59, 0
2, 18000, Note_on_c, 0, 66, 65
2, 18000, Note_on_c, 0, 57, 65
2, 18216, Note_on_c, 0, 64, 0
2, 18228, Note_on_c, 0, 57, 0
2, 18228, Note_on_c, 0, 66, 0
2, 18480, Note_on_c, 0, 64, 65
2, 18480, Note_on_c, 0, 60, 65
2, 18480, Note_on_c, 0, 69, 65
2, 18708, Note_on_c, 0, 69, 0
2, 18708, Note_on_c, 0, 60, 0
2, 18720, Note_on_c, 0, 67, 65
2, 18720, Note_on_c, 0, 59, 65
2, 18936, Note_on_c, 0, 64, 0
2, 18948, Note_on_c, 0, 59, 0
2, 18948, Note_on_c, 0, 67, 0
2, 19200, Note_on_c, 0, 64, 65
2, 19200, Note_on_c, 0, 59, 65
2, 19200, Note_on_c, 0, 67, 65
2, 19428, Note_on_c, 0, 67, 0
2, 19428, Note_on_c, 0, 59, 0
2, 19440, Note_on_c, 0, 66, 65
2, 19440, Note_on_c, 0, 57, 65
2, 19656, Note_on_c, 0, 64, 0
2, 19668, Note_on_c, 0, 57, 0
2, 19668, Note_on_c, 0, 66, 0
2, 19920, Note_on_c, 0, 64, 65
2, 19920, Note_on_c, 0, 60, 65
2, 19920, Note_on_c, 0, 69, 65
2, 20148, Note_on_c, 0, 69, 0
2, 20160, Note_on_c, 0, 67, 65
2, 20376, Note_on_c, 0, 60, 0
2, 20376, Note_on_c, 0, 64, 0
2, 20388, Note_on_c, 0, 67, 0
2, 20640, Note_on_c, 0, 67, 80
2, 20640, Note_on_c, 0, 64, 65
2, 20640, Note_on_c, 0, 58, 65
2, 20868, Note_on_c, 0, 58, 0
2, 20880, Note_on_c, 0, 57, 65
2, 21096, Note_on_c, 0, 64, 0
2, 21096, Note_on_c, 0, 67, 0
2, 21108, Note_on_c, 0, 57, 0
2, 21360, Note_on_c, 0, 65, 80
2, 21360, Note_on_c, 0, 60, 65
2, 21360, Note_on_c, 0, 57, 65
2, 21588, Note_on_c, 0, 57, 0
2, 21600, Note_on_c, 0, 55, 65
2, 21816, Note_on_c, 0, 60, 0
2, 21816, Note_on_c, 0, 65, 0
2, 21828, Note_on_c, 0, 55, 0
2, 22080, Note_on_c, 0, 60, 80
2, 22080, Note_on_c, 0, 53, 65
2, 22080, Note_on_c, 0, 57, 65
2, 22308, Note_on_c, 0, 57, 0
2, 22308, Note_on_c, 0, 53, 0
2, 22320, Note_on_c, 0, 52, 65
2, 22320, Note_on_c, 0, 55, 65
2, 22764, Note_on_c, 0, 60, 0
2, 22800, Note_on_c, 0, 58, 65
2, 23004, Note_on_c, 0, 55, 0
2, 23004, Note_on_c, 0, 52, 0
2, 23028, Note_on_c, 0, 58, 0
2, 23040, Note_on_c, 0, 57, 65
2, 23040, Note_on_c, 0, 53, 65
2, 23268, Note_on_c, 0, 53, 0
2, 23268, Note_on_c, 0, 57, 0
2, 23520, Note_on_c, 0, 57, 65
2, 23520, Note_on_c, 0, 53, 65
2, 23748, Note_on_c, 0, 53, 0
2, 23760, Note_on_c, 0, 54, 65
2, 23976, Note_on_c, 0, 57, 0
2, 23988, Note_on_c, 0, 54, 0
2, 24240, Note_on_c, 0, 57, 65
2, 24240, Note_on_c, 0, 54, 65
2, 24240, Note_on_c, 0, 64, 65
2, 24468, Note_on_c, 0, 64, 0
2, 24480, Note_on_c, 0, 63, 65
2, 24696, Note_on_c, 0, 54, 0
2, 24696, Note_on_c, 0, 57, 0
2, 24708, Note_on_c, 0, 63, 0
2, 24960, Note_on_c, 0, 59, 65
2, 24960, Note_on_c, 0, 68, 65
2, 25188, Note_on_c, 0, 68, 0
2, 25188, Note_on_c, 0, 59, 0
2, 25200, Note_on_c, 0, 66, 65
2, 25200, Note_on_c, 0, 57, 65
2, 25314, Note_on_c, 0, 57, 0
2, 25314, Note_on_c, 0, 66, 0
2, 25320, Note_on_c, 0, 64, 65
2, 25320, Note_on_c, 0, 56, 65
2, 25434, Note_on_c, 0, 56, 0
2, 25434, Note_on_c, 0, 64, 0
2, 25440, Note_on_c, 0, 63, 65
2, 25440, Note_on_c, 0, 54, 65
2, 25668, Note_on_c, 0, 54, 0
2, 25668, Note_on_c, 0, 63, 0
2, 25680, Note_on_c, 0, 56, 65
2, 25680, Note_on_c, 0, 64, 65
2, 25908, Note_on_c, 0, 64, 0
2, 25908, Note_on_c, 0, 56, 0
2, 25920, Note_on_c, 0, 59, 65
2, 25920, Note_on_c, 0, 54, 65
2, 25920, Note_on_c, 0, 51, 65
2, 26376, Note_on_c, 0, 51, 0
2, 26376, Note_on_c, 0, 54, 0
2, 26376, Note_on_c, 0, 59, 0
2, 26400, Note_on_c, 0, 61, 65
2, 26400, Note_on_c, 0, 52, 65
2, 26640, Note_on_c, 0, 62, 65
2, 26856, Note_on_c, 0, 61, 0
2, 26880, Note_on_c, 0, 59, 65
2, 27084, Note_on_c, 0, 52, 0
2, 27096, Note_on_c, 0, 62, 0
2, 27108, Note_on_c, 0, 59, 0
2, 27120, Note_on_c, 0, 64, 65
2, 27120, Note_on_c, 0, 62, 65
2, 27120, Note_on_c, 0, 56, 65
2, 27348, Note_on_c, 0, 56, 0
2, 27360, Note_on_c, 0, 69, 65
2, 27360, Note_on_c, 0, 57, 65
2, 27576, Note_on_c, 0, 62, 0
2, 27600, Note_on_c, 0, 61, 65
2, 27804, Note_on_c, 0, 64, 0
2, 27816, Note_on_c, 0, 57, 0
2, 27816, Note_on_c, 0, 69, 0
2, 27828, Note_on_c, 0, 61, 0
2, 27840, Note_on_c, 0, 69, 65
2, 27840, Note_on_c, 0, 64, 65
2, 28080, Note_on_c, 0, 74, 65
2, 28182, Note_on_c, 0, 69, 0
2, 28200, Note_on_c, 0, 68, 65
2, 28314, Note_on_c, 0, 68, 0
2, 28320, Note_on_c, 0, 66, 65
2, 28434, Note_on_c, 0, 66, 0
2, 28440, Note_on_c, 0, 68, 65
2, 28524, Note_on_c, 0, 64, 0
2, 28536, Note_on_c, 0, 74, 0
2, 28560, Note_on_c, 0, 74, 65
2, 28560, Note_on_c, 0, 64, 65
2, 28782, Note_on_c, 0, 68, 0
2, 28800, Note_on_c, 0, 69, 65
2, 28902, Note_on_c, 0, 74, 0
2, 28920, Note_on_c, 0, 73, 65
2, 29034, Note_on_c, 0, 73, 0
2, 29040, Note_on_c, 0, 71, 65
2, 29154, Note_on_c, 0, 71, 0
2, 29160, Note_on_c, 0, 73, 65
2, 29244, Note_on_c, 0, 64, 0
2, 29256, Note_on_c, 0, 69, 0
2, 29274, Note_on_c, 0, 73, 0
2, 29280, Note_on_c, 0, 81, 65
2, 29280, Note_on_c, 0, 76, 65
2, 29280, Note_on_c, 0, 69, 65
2, 29508, Note_on_c, 0, 69, 0
2, 29520, Note_on_c, 0, 71, 65
2, 29622, Note_on_c, 0, 81, 0
2, 29640, Note_on_c, 0, 80, 65
2, 29754, Note_on_c, 0, 80, 0
2, 29760, Note_on_c, 0, 78, 65
2, 29874, Note_on_c, 0, 78, 0
2, 29880, Note_on_c, 0, 80, 65
2, 29964, Note_on_c, 0, 76, 0
2, 29976, Note_on_c, 0, 71, 0
2, 29994, Note_on_c, 0, 80, 0
2, 30000, Note_on_c, 0, 83, 65
2, 30000, Note_on_c, 0, 76, 65
2, 30240, Note_on_c, 0, 85, 65
2, 30342, Note_on_c, 0, 83, 0
2, 30360, Note_on_c, 0, 81, 65
2, 30474, Note_on_c, 0, 81, 0
2, 30480, Note_on_c, 0, 80, 65
2, 30594, Note_on_c, 0, 80, 0
2, 30600, Note_on_c, 0, 81, 65
2, 30684, Note_on_c, 0, 76, 0
2, 30696, Note_on_c, 0, 85, 0
2, 30714, Note_on_c, 0, 81, 0
2, 30720, Note_on_c, 0, 88, 65
2, 30720, Note_on_c, 0, 81, 65
2, 30720, Note_on_c, 0, 80, 65
2, 31176, Note_on_c, 0, 80, 0
2, 31176, Note_on_c, 0, 81, 0
2, 31176, Note_on_c, 0, 88, 0
2, 31200, Note_on_c, 0, 87, 65
2, 31200, Note_on_c, 0, 81, 65
2, 31200, Note_on_c, 0, 78, 65
2, 31314, Note_on_c, 0, 78, 0
2, 31314, Note_on_c, 0, 81, 0
2, 31314, Note_on_c, 0, 87, 0
2, 31320, Note_on_c, 0, 85, 65
2, 31320, Note_on_c, 0, 80, 65
2, 31320, Note_on_c, 0, 76, 65
2, 31434, Note_on_c, 0, 76, 0
2, 31434, Note_on_c, 0, 80, 0
2, 31434, Note_on_c, 0, 85, 0
2, 31440, Note_on_c, 0, 78, 65
2, 31440, Note_on_c, 0, 81, 65
2, 31440, Note_on_c, 0, 87, 65
2, 31668, Note_on_c, 0, 87, 0
2, 31668, Note_on_c, 0, 81, 0
2, 31668, Note_on_c, 0, 78, 0
2, 31680, Note_on_c, 0, 88, 65
2, 31680, Note_on_c, 0, 80, 65
2, 31680, Note_on_c, 0, 76, 65
2, 32136, Note_on_c, 0, 76, 0
2, 32136, Note_on_c, 0, 80, 0
2, 32136, Note_on_c, 0, 88, 0
2, 32160, Note_on_c, 0, 64, 65
2, 32160, Note_on_c, 0, 59, 65
2, 32160, Note_on_c, 0, 67, 65
2, 32388, Note_on_c, 0, 67, 0
2, 32388, Note_on_c, 0, 59, 0
2, 32400, Note_on_c, 0, 64, 65
2, 32400, Note_on_c, 0, 66, 65
2, 32400, Note_on_c, 0, 57, 65
2, 32616, Note_on_c, 0, 64, 0
2, 32628, Note_on_c, 0, 57, 0
2, 32628, Note_on_c, 0, 66, 0
2, 32880, Note_on_c, 0, 64, 65
2, 32880, Note_on_c, 0, 60, 65
2, 32880, Note_on_c, 0, 69, 65
2, 33108, Note_on_c, 0, 69, 0
2, 33108, Note_on_c, 0, 60, 0
2, 33120, Note_on_c, 0, 67, 65
2, 33120, Note_on_c, 0, 59, 65
2, 33336, Note_on_c, 0, 64, 0
2, 33348, Note_on_c, 0, 59, 0
2, 33348, Note_on_c, 0, 67, 0
2, 33600, Note_on_c, 0, 64, 65
2, 33600, Note_on_c, 0, 59, 65
2, 33600, Note_on_c, 0, 67, 65
2, 33828, Note_on_c, 0, 67, 0
2, 33828, Note_on_c, 0, 59, 0
2, 33840, Note_on_c, 0, 66, 65
2, 33840, Note_on_c, 0, 57, 65
2, 34056, Note_on_c, 0, 64, 0
2, 34068, Note_on_c, 0, 57, 0
2, 34068, Note_on_c, 0, 66, 0
2, 34320, Note_on_c, 0, 64, 65
2, 34320, Note_on_c, 0, 60, 65
2, 34320, Note_on_c, 0, 69, 65
2, 34548, Note_on_c, 0, 69, 0
2, 34560, Note_on_c, 0, 67, 65
2, 34776, Note_on_c, 0, 60, 0
2, 34776, Note_on_c, 0, 64, 0
2, 34788, Note_on_c, 0, 67, 0
2, 35040, Note_on_c, 0, 64, 65
2, 35040, Note_on_c, 0, 67, 80
2, 35040, Note_on_c, 0, 58, 65
2, 35268, Note_on_c, 0, 58, 0
2, 35280, Note_on_c, 0, 57, 65
2, 35496, Note_on_c, 0, 67, 0
2, 35496, Note_on_c, 0, 64, 0
2, 35508, Note_on_c, 0, 57, 0
2, 35760, Note_on_c, 0, 65, 80
2, 35760, Note_on_c, 0, 60, 65
2, 35760, Note_on_c, 0, 57, 65
2, 35988, Note_on_c, 0, 57, 0
2, 36000, Note_on_c, 0, 55, 65
2, 36216, Note_on_c, 0, 60, 0
2, 36216, Note_on_c, 0, 65, 0
2, 36228, Note_on_c, 0, 55, 0
2, 36480, Note_on_c, 0, 60, 80
2, 36480, Note_on_c, 0, 53, 65
2, 36480, Note_on_c, 0, 57, 65
2, 36708, Note_on_c, 0, 57, 0
2, 36708, Note_on_c, 0, 53, 0
2, 36720, Note_on_c, 0, 52, 65
2, 36720, Note_on_c, 0, 55, 65
2, 37164, Note_on_c, 0, 60, 0
2, 37200, Note_on_c, 0, 58, 65
2, 37404, Note_on_c, 0, 55, 0
2, 37404, Note_on_c, 0, 52, 0
2, 37428, Note_on_c, 0, 58, 0
2, 37440, Note_on_c, 0, 57, 65
2, 37440, Note_on_c, 0, 53, 65
2, 37668, Note_on_c, 0, 53, 0
2, 37668, Note_on_c, 0, 57, 0
2, 37920, Note_on_c, 0, 57, 65
2, 37920, Note_on_c, 0, 53, 65
2, 38148, Note_on_c, 0, 53, 0
2, 38160, Note_on_c, 0, 54, 65
2, 38376, Note_on_c, 0, 57, 0
2, 38388, Note_on_c, 0, 54, 0
2, 38640, Note_on_c, 0, 57, 65
2, 38640, Note_on_c, 0, 54, 65
2, 38640, Note_on_c, 0, 64, 65
2, 38868, Note_on_c, 0, 64, 0
2, 38880, Note_on_c, 0, 63, 65
2, 39096, Note_on_c, 0, 57, 0
2, 39096, Note_on_c, 0, 54, 0
2, 39108, Note_on_c, 0, 63, 0
2, 39360, Note_on_c, 0, 59, 65
2, 39360, Note_on_c, 0, 68, 65
2, 39588, Note_on_c, 0, 68, 0
2, 39588, Note_on_c, 0, 59, 0
2, 39600, Note_on_c, 0, 66, 65
2, 39600, Note_on_c, 0, 57, 65
2, 39714, Note_on_c, 0, 57, 0
2, 39714, Note_on_c, 0, 66, 0
2, 39720, Note_on_c, 0, 64, 65
2, 39720, Note_on_c, 0, 56, 65
2, 39834, Note_on_c, 0, 56, 0
2, 39834, Note_on_c, 0, 64, 0
2, 39840, Note_on_c, 0, 63, 65
2, 39840, Note_on_c, 0, 54, 65
2, 40068, Note_on_c, 0, 54, 0
2, 40068, Note_on_c, 0, 63, 0
2, 40080, Note_on_c, 0, 56, 65
2, 40080, Note_on_c, 0, 64, 65
2, 40308, Note_on_c, 0, 56, 0
2, 40308, Note_on_c, 0, 64, 0
2, 40320, Note_on_c, 0, 59, 65
2, 40320, Note_on_c, 0, 54, 65
2, 40320, Note_on_c, 0, 51, 65
2, 40776, Note_on_c, 0, 51, 0
2, 40776, Note_on_c, 0, 54, 0
2, 40776, Note_on_c, 0, 59, 0
2, 40800, Note_on_c, 0, 61, 65
2, 40800, Note_on_c, 0, 52, 65
2, 41040, Note_on_c, 0, 62, 65
2, 41256, Note_on_c, 0, 61, 0
2, 41280, Note_on_c, 0, 59, 65
2, 41484, Note_on_c, 0, 52, 0
2, 41496, Note_on_c, 0, 62, 0
2, 41508, Note_on_c, 0, 59, 0
2, 41520, Note_on_c, 0, 62, 65
2, 41520, Note_on_c, 0, 56, 65
2, 41748, Note_on_c, 0, 56, 0
2, 41760, Note_on_c, 0, 69, 65
2, 41760, Note_on_c, 0, 57, 65
2, 41976, Note_on_c, 0, 62, 0
2, 42000, Note_on_c, 0, 61, 65
2, 42204, Note_on_c, 0, 64, 0
2, 42216, Note_on_c, 0, 57, 0
2, 42216, Note_on_c, 0, 69, 0
2, 42228, Note_on_c, 0, 61, 0
2, 42240, Note_on_c, 0, 69, 65
2, 42240, Note_on_c, 0, 64, 65
2, 42480, Note_on_c, 0, 74, 65
2, 42582, Note_on_c, 0, 69, 0
2, 42600, Note_on_c, 0, 68, 65
2, 42714, Note_on_c, 0, 68, 0
2, 42720, Note_on_c, 0, 66, 65
2, 42834, Note_on_c, 0, 66, 0
2, 42840, Note_on_c, 0, 68, 65
2, 42924, Note_on_c, 0, 64, 0
2, 42936, Note_on_c, 0, 74, 0
2, 42960, Note_on_c, 0, 74, 65
2, 42960, Note_on_c, 0, 64, 65
2, 43182, Note_on_c, 0, 68, 0
2, 43200, Note_on_c, 0, 69, 65
2, 43302, Note_on_c, 0, 74, 0
2, 43320, Note_on_c, 0, 73, 65
2, 43434, Note_on_c, 0, 73, 0
2, 43440, Note_on_c, 0, 71, 65
2, 43554, Note_on_c, 0, 71, 0
2, 43560, Note_on_c, 0, 73, 65
2, 43644, Note_on_c, 0, 64, 0
2, 43656, Note_on_c, 0, 69, 0
2, 43674, Note_on_c, 0, 73, 0
2, 43680, Note_on_c, 0, 81, 65
2, 43680, Note_on_c, 0, 76, 65
2, 43680, Note_on_c, 0, 69, 65
2, 43908, Note_on_c, 0, 69, 0
2, 43920, Note_on_c, 0, 71, 65
2, 44022, Note_on_c, 0, 81, 0
2, 44040, Note_on_c, 0, 80, 65
2, 44154, Note_on_c, 0, 80, 0
2, 44160, Note_on_c, 0, 78, 65
2, 44274, Note_on_c, 0, 78, 0
2, 44280, Note_on_c, 0, 80, 65
2, 44364, Note_on_c, 0, 76, 0
2, 44376, Note_on_c, 0, 71, 0
2, 44394, Note_on_c, 0, 80, 0
2, 44400, Note_on_c, 0, 83, 65
2, 44400, Note_on_c, 0, 76, 65
2, 44640, Note_on_c, 0, 85, 65
2, 44742, Note_on_c, 0, 83, 0
2, 44760, Note_on_c, 0, 81, 65
2, 44874, Note_on_c, 0, 81, 0
2, 44880, Note_on_c, 0, 80, 65
2, 44994, Note_on_c, 0, 80, 0
2, 45000, Note_on_c, 0, 81, 65
2, 45084, Note_on_c, 0, 76, 0
2, 45096, Note_on_c, 0, 85, 0
2, 45114, Note_on_c, 0, 81, 0
2, 45120, Note_on_c, 0, 88, 65
2, 45120, Note_on_c, 0, 81, 65
2, 45120, Note_on_c, 0, 80, 65
2, 45576, Note_on_c, 0, 80, 0
2, 45576, Note_on_c, 0, 81, 0
2, 45576, Note_on_c, 0, 88, 0
2, 45600, Note_on_c, 0, 87, 65
2, 45600, Note_on_c, 0, 81, 65
2, 45600, Note_on_c, 0, 78, 65
2, 45714, Note_on_c, 0, 78, 0
2, 45714, Note_on_c, 0, 81, 0
2, 45714, Note_on_c, 0, 87, 0
2, 45720, Note_on_c, 0, 85, 65
2, 45720, Note_on_c, 0, 80, 65
2, 45720, Note_on_c, 0, 76, 65
2, 45834, Note_on_c, 0, 76, 0
2, 45834, Note_on_c, 0, 80, 0
2, 45834, Note_on_c, 0, 85, 0
2, 45840, Note_on_c, 0, 78, 65
2, 45840, Note_on_c, 0, 81, 65
2, 45840, Note_on_c, 0, 87, 65
2, 46068, Note_on_c, 0, 87, 0
2, 46068, Note_on_c, 0, 81, 0
2, 46068, Note_on_c, 0, 78, 0
2, 46080, Note_on_c, 0, 76, 65
2, 46080, Note_on_c, 0, 80, 65
2, 46080, Note_on_c, 0, 88, 65
2, 46764, Note_on_c, 0, 88, 0
2, 46764, Note_on_c, 0, 80, 0
2, 46764, Note_on_c, 0, 76, 0
2, 46764, End_track
3, 0, Start_track
3, 0, Title_t, "Waltz No-12"
3, 0, Program_c, 0, 0
3, 0, Control_c, 0, 7, 110
3, 0, Control_c, 0, 10, 47
3, 720, Note_on_c, 0, 28, 65
3, 821, Control_c, 0, 64, 127
3, 960, Note_on_c, 0, 28, 0
3, 960, Note_on_c, 0, 40, 65
3, 985, Control_c, 0, 64, 0
3, 1200, Note_on_c, 0, 40, 0
3, 1200, Note_on_c, 0, 52, 65
3, 1440, Note_on_c, 0, 52, 0
3, 1440, Note_on_c, 0, 28, 65
3, 1513, Control_c, 0, 64, 0
3, 1522, Control_c, 0, 64, 127
3, 1680, Note_on_c, 0, 28, 0
3, 1680, Note_on_c, 0, 40, 65
3, 1695, Control_c, 0, 64, 0
3, 1920, Note_on_c, 0, 40, 0
3, 1920, Note_on_c, 0, 52, 65
3, 2160, Note_on_c, 0, 52, 0
3, 2160, Note_on_c, 0, 28, 65
3, 2249, Control_c, 0, 64, 127
3, 2400, Note_on_c, 0, 28, 0
3, 2400, Note_on_c, 0, 40, 65
3, 2439, Control_c, 0, 64, 0
3, 2640, Note_on_c, 0, 40, 0
3, 2640, Note_on_c, 0, 52, 65
3, 2880, Note_on_c, 0, 52, 0
3, 2880, Note_on_c, 0, 28, 65
3, 2976, Control_c, 0, 64, 0
3, 2984, Control_c, 0, 64, 127
3, 3120, Note_on_c, 0, 28, 0
3, 3120, Note_on_c, 0, 40, 65
3, 3166, Control_c, 0, 64, 0
3, 3360, Note_on_c, 0, 40, 0
3, 3360, Note_on_c, 0, 40, 65
3, 3360, Note_on_c, 0, 52, 65
3, 3600, Note_on_c, 0, 52, 0
3, 3600, Note_on_c, 0, 40, 0
3, 3600, Note_on_c, 0, 39, 65
3, 3600, Note_on_c, 0, 51, 65
3, 3683, Pitch_bend_c, 0, 8030
3, 3684, Pitch_bend_c, 0, 8111
3, 3712, Control_c, 0, 64, 127
3, 3885, Control_c, 0, 64, 0
3, 3893, Control_c, 0, 64, 0
3, 4080, Note_on_c, 0, 51, 0
3, 4080, Note_on_c, 0, 39, 0
3, 4080, Note_on_c, 0, 42, 65
3, 4080, Note_on_c, 0, 54, 65
3, 4320, Note_on_c, 0, 54, 0
3, 4320, Note_on_c, 0, 42, 0
3, 4320, Note_on_c, 0, 40, 65
3, 4320, Note_on_c, 0, 52, 65
3, 4430, Control_c, 0, 64, 127
3, 4594, Control_c, 0, 64, 0
3, 4603, Control_c, 0, 64, 0
3, 4800, Note_on_c, 0, 52, 0
3, 4800, Note_on_c, 0, 40, 0
3, 4800, Note_on_c, 0, 44, 65
3, 4800, Note_on_c, 0, 56, 65
3, 5040, Note_on_c, 0, 56, 0
3, 5040, Note_on_c, 0, 44, 0
3, 5040, Note_on_c, 0, 42, 65
3, 5040, Note_on_c, 0, 54, 65
3, 5140, Control_c, 0, 64, 127
3, 5313, Control_c, 0, 64, 0
3, 5321, Control_c, 0, 64, 0
3, 5520, Note_on_c, 0, 54, 0
3, 5520, Note_on_c, 0, 42, 0
3, 5520, Note_on_c, 0, 46, 65
3, 5520, Note_on_c, 0, 58, 65
3, 5760, Note_on_c, 0, 58, 0
3, 5760, Note_on_c, 0, 46, 0
3, 5760, Note_on_c, 0, 47, 65
3, 5760, Note_on_c, 0, 59, 65
3, 5815, Control_c, 0, 64, 0
3, 5823, Control_c, 0, 64, 127
3, 6109, Control_c, 0, 64, 0
3, 6118, Control_c, 0, 64, 0
3, 6240, Note_on_c, 0, 59, 0
3, 6240, Note_on_c, 0, 47, 0
3, 6240, Note_on_c, 0, 51, 65
3, 6240, Note_on_c, 0, 63, 65
3, 6480, Note_on_c, 0, 63, 0
3, 6480, Note_on_c, 0, 51, 0
3, 6480, Note_on_c, 0, 52, 65
3, 6480, Note_on_c, 0, 64, 65
3, 6542, Control_c, 0, 64, 127
3, 6845, Control_c, 0, 64, 0
3, 6960, Note_on_c, 0, 64, 0
3, 6960, Note_on_c, 0, 52, 0
3, 6960, Note_on_c, 0, 56, 65
3, 6960, Note_on_c, 0, 68, 65
3, 7200, Note_on_c, 0, 68, 0
3, 7200, Note_on_c, 0, 56, 0
3, 7200, Note_on_c, 0, 54, 65
3, 7200, Note_on_c, 0, 66, 65
3, 7269, Control_c, 0, 64, 127
3, 7680, Note_on_c, 0, 66, 0
3, 7680, Note_on_c, 0, 54, 0
3, 7680, Note_on_c, 0, 66, 65
3, 7680, Note_on_c, 0, 73, 65
3, 7744, Pitch_bend_c, 0, 8030
3, 7746, Pitch_bend_c, 0, 8111
3, 7918, Control_c, 0, 64, 0
3, 7920, Note_on_c, 0, 73, 0
3, 7920, Note_on_c, 0, 66, 0
3, 7920, Note_on_c, 0, 59, 65
3, 7920, Note_on_c, 0, 71, 65
3, 7996, Control_c, 0, 64, 127
3, 8400, Note_on_c, 0, 71, 0
3, 8400, Note_on_c, 0, 69, 65
3, 8520, Note_on_c, 0, 69, 0
3, 8520, Note_on_c, 0, 68, 65
3, 8640, Note_on_c, 0, 68, 0
3, 8640, Note_on_c, 0, 59, 0
3, 8640, Note_on_c, 0, 59, 65
3, 8640, Note_on_c, 0, 66, 65
3, 8760, Note_on_c, 0, 66, 0
3, 8760, Note_on_c, 0, 69, 65
3, 8880, Note_on_c, 0, 69, 0
3, 8880, Note_on_c, 0, 59, 0
3, 8880, Note_on_c, 0, 68, 65
3, 8940, Pitch_bend_c, 0, 8030
3, 8942, Pitch_bend_c, 0, 8111
3, 9000, Note_on_c, 0, 68, 0
3, 9000, Note_on_c, 0, 66, 65
3, 9120, Note_on_c, 0, 66, 0
3, 9121, Control_c, 0, 64, 0
3, 9360, Note_on_c, 0, 28, 65
3, 9433, Control_c, 0, 64, 0
3, 9441, Control_c, 0, 64, 127
3, 9600, Note_on_c, 0, 28, 0
3, 9600, Note_on_c, 0, 40, 65
3, 9615, Control_c, 0, 64, 0
3, 9840, Note_on_c, 0, 40, 0
3, 9840, Note_on_c, 0, 52, 65
3, 10080, Note_on_c, 0, 52, 0
3, 10080, Note_on_c, 0, 28, 65
3, 10134, Control_c, 0, 64, 127
3, 10320, Note_on_c, 0, 28, 0
3, 10320, Note_on_c, 0, 40, 65
3, 10324, Control_c, 0, 64, 0
3, 10333, Control_c, 0, 64, 0
3, 10560, Note_on_c, 0, 40, 0
3, 10560, Note_on_c, 0, 52, 65
3, 10800, Note_on_c, 0, 52, 0
3, 10800, Note_on_c, 0, 28, 65
3, 10887, Control_c, 0, 64, 127
3, 11040, Note_on_c, 0, 28, 0
3, 11040, Note_on_c, 0, 40, 65
3, 11077, Control_c, 0, 64, 0
3, 11280, Note_on_c, 0, 40, 0
3, 11280, Note_on_c, 0, 52, 65
3, 11520, Note_on_c, 0, 52, 0
3, 11520, Note_on_c, 0, 28, 65
3, 11588, Control_c, 0, 64, 127
3, 11760, Note_on_c, 0, 28, 0
3, 11760, Note_on_c, 0, 40, 65
3, 11796, Control_c, 0, 64, 0
3, 12000, Note_on_c, 0, 40, 0
3, 12000, Note_on_c, 0, 40, 65
3, 12000, Note_on_c, 0, 52, 65
3, 12240, Note_on_c, 0, 52, 0
3, 12240, Note_on_c, 0, 40, 0
3, 12240, Note_on_c, 0, 39, 65
3, 12240, Note_on_c, 0, 51, 65
3, 12341, Control_c, 0, 64, 0
3, 12350, Control_c, 0, 64, 127
3, 12514, Control_c, 0, 64, 0
3, 12523, Control_c, 0, 64, 0
3, 12720, Note_on_c, 0, 51, 0
3, 12720, Note_on_c, 0, 39, 0
3, 12720, Note_on_c, 0, 42, 65
3, 12720, Note_on_c, 0, 54, 65
3, 12960, Note_on_c, 0, 54, 0
3, 12960, Note_on_c, 0, 42, 0
3, 12960, Note_on_c, 0, 40, 65
3, 12960, Note_on_c, 0, 52, 65
3, 13068, Control_c, 0, 64, 127
3, 13258, Control_c, 0, 64, 0
3, 13440, Note_on_c, 0, 52, 0
3, 13440, Note_on_c, 0, 40, 0
3, 13440, Note_on_c, 0, 44, 65
3, 13440, Note_on_c, 0, 56, 65
3, 13680, Note_on_c, 0, 56, 0
3, 13680, Note_on_c, 0, 44, 0
3, 13680, Note_on_c, 0, 42, 65
3, 13680, Note_on_c, 0, 54, 65
3, 13684, Pitch_bend_c, 0, 8030
3, 13685, Pitch_bend_c, 0, 8111
3, 13786, Control_c, 0, 64, 127
3, 13960, Control_c, 0, 64, 0
3, 13968, Control_c, 0, 64, 0
3, 14160, Note_on_c, 0, 54, 0
3, 14160, Note_on_c, 0, 42, 0
3, 14160, Note_on_c, 0, 46, 65
3, 14160, Note_on_c, 0, 58, 65
3, 14400, Note_on_c, 0, 58, 0
3, 14400, Note_on_c, 0, 46, 0
3, 14400, Note_on_c, 0, 47, 65
3, 14400, Note_on_c, 0, 59, 65
3, 14479, Control_c, 0, 64, 127
3, 14756, Control_c, 0, 64, 0
3, 14764, Control_c, 0, 64, 0
3, 14805, Pitch_bend_c, 0, 8030
3, 14807, Pitch_bend_c, 0, 8111
3, 14880, Note_on_c, 0, 59, 0
3, 14880, Note_on_c, 0, 47, 0
3, 14880, Note_on_c, 0, 51, 65
3, 14880, Note_on_c, 0, 63, 65
3, 15120, Note_on_c, 0, 63, 0
3, 15120, Note_on_c, 0, 51, 0
3, 15120, Note_on_c, 0, 52, 65
3, 15120, Note_on_c, 0, 64, 65
3, 15189, Control_c, 0, 64, 127
3, 15535, Control_c, 0, 64, 0
3, 15600, Note_on_c, 0, 64, 0
3, 15600, Note_on_c, 0, 52, 0
3, 15600, Note_on_c, 0, 56, 65
3, 15600, Note_on_c, 0, 68, 65
3, 15823, Pitch_bend_c, 0, 8030
3, 15824, Pitch_bend_c, 0, 8111
3, 15840, Note_on_c, 0, 68, 0
3, 15840, Note_on_c, 0, 56, 0
3, 15840, Note_on_c, 0, 54, 65
3, 15840, Note_on_c, 0, 66, 65
3, 15876, Control_c, 0, 64, 0
3, 15942, Control_c, 0, 64, 0
3, 15950, Control_c, 0, 64, 127
3, 16320, Note_on_c, 0, 66, 0
3, 16320, Note_on_c, 0, 54, 0
3, 16320, Note_on_c, 0, 66, 65
3, 16320, Note_on_c, 0, 73, 65
3, 16560, Note_on_c, 0, 73, 0
3, 16560, Note_on_c, 0, 66, 0
3, 16560, Note_on_c, 0, 59, 65
3, 16573, Control_c, 0, 64, 0
3, 16582, Control_c, 0, 64, 0
3, 16596, Control_c, 0, 64, 0
3, 16651, Control_c, 0, 64, 127
3, 17040, Note_on_c, 0, 59, 0
3, 17040, Note_on_c, 0, 69, 65
3, 17160, Note_on_c, 0, 69, 0
3, 17160, Note_on_c, 0, 68, 65
3, 17280, Note_on_c, 0, 68, 0
3, 17280, Note_on_c, 0, 59, 65
3, 17280, Note_on_c, 0, 66, 65
3, 17400, Note_on_c, 0, 66, 0
3, 17400, Note_on_c, 0, 69, 65
3, 17520, Note_on_c, 0, 69, 0
3, 17520, Note_on_c, 0, 59, 0
3, 17520, Note_on_c, 0, 67, 65
3, 17640, Note_on_c, 0, 67, 0
3, 17640, Note_on_c, 0, 66, 65
3, 17760, Note_on_c, 0, 66, 0
3, 17768, Control_c, 0, 64, 0
3, 18000, Note_on_c, 0, 28, 65
3, 18024, Control_c, 0, 64, 127
3, 18227, Control_c, 0, 64, 0
3, 18235, Control_c, 0, 64, 0
3, 18240, Note_on_c, 0, 28, 0
3, 18240, Note_on_c, 0, 40, 65
3, 18480, Note_on_c, 0, 40, 0
3, 18480, Note_on_c, 0, 52, 65
3, 18720, Note_on_c, 0, 52, 0
3, 18720, Note_on_c, 0, 28, 65
3, 18798, Control_c, 0, 64, 127
3, 18960, Note_on_c, 0, 28, 0
3, 18960, Note_on_c, 0, 40, 65
3, 18971, Control_c, 0, 64, 0
3, 18980, Control_c, 0, 64, 0
3, 19200, Note_on_c, 0, 40, 0
3, 19200, Note_on_c, 0, 52, 65
3, 19440, Note_on_c, 0, 52, 0
3, 19440, Note_on_c, 0, 28, 65
3, 19542, Control_c, 0, 64, 0
3, 19551, Control_c, 0, 64, 127
3, 19680, Note_on_c, 0, 28, 0
3, 19680, Note_on_c, 0, 40, 65
3, 19724, Control_c, 0, 64, 0
3, 19733, Control_c, 0, 64, 0
3, 19827, Pitch_bend_c, 0, 8030
3, 19828, Pitch_bend_c, 0, 8111
3, 19920, Note_on_c, 0, 40, 0
3, 19920, Note_on_c, 0, 52, 65
3, 20160, Note_on_c, 0, 52, 0
3, 20160, Note_on_c, 0, 28, 65
3, 20261, Control_c, 0, 64, 127
3, 20400, Note_on_c, 0, 28, 0
3, 20400, Note_on_c, 0, 36, 65
3, 20434, Control_c, 0, 64, 0
3, 20442, Control_c, 0, 64, 0
3, 20640, Note_on_c, 0, 36, 0
3, 20640, Note_on_c, 0, 48, 65
3, 20880, Note_on_c, 0, 48, 0
3, 20880, Note_on_c, 0, 24, 65
3, 20970, Control_c, 0, 64, 127
3, 21120, Note_on_c, 0, 24, 0
3, 21120, Note_on_c, 0, 36, 65
3, 21152, Control_c, 0, 64, 0
3, 21161, Control_c, 0, 64, 0
3, 21360, Note_on_c, 0, 36, 0
3, 21360, Note_on_c, 0, 48, 65
3, 21600, Note_on_c, 0, 48, 0
3, 21600, Note_on_c, 0, 24, 65
3, 21680, Control_c, 0, 64, 0
3, 21689, Control_c, 0, 64, 127
3, 21840, Note_on_c, 0, 24, 0
3, 21840, Note_on_c, 0, 36, 65
3, 21888, Control_c, 0, 64, 0
3, 21964, Pitch_bend_c, 0, 8030
3, 21966, Pitch_bend_c, 0, 8111
3, 22080, Note_on_c, 0, 36, 0
3, 22080, Note_on_c, 0, 48, 65
3, 22320, Note_on_c, 0, 48, 0
3, 22320, Note_on_c, 0, 24, 65
3, 22399, Control_c, 0, 64, 0
3, 22407, Control_c, 0, 64, 127
3, 22560, Note_on_c, 0, 24, 0
3, 22560, Note_on_c, 0, 36, 65
3, 22800, Note_on_c, 0, 36, 0
3, 22800, Note_on_c, 0, 48, 65
3, 22958, Pitch_bend_c, 0, 8030
3, 22960, Pitch_bend_c, 0, 8111
3, 23040, Note_on_c, 0, 48, 0
3, 23040, Note_on_c, 0, 24, 65
3, 23056, Control_c, 0, 64, 0
3, 23280, Note_on_c, 0, 24, 0
3, 23280, Note_on_c, 0, 36, 65
3, 23520, Note_on_c, 0, 36, 0
3, 23520, Note_on_c, 0, 48, 65
3, 23760, Note_on_c, 0, 48, 0
3, 23760, Note_on_c, 0, 23, 65
3, 23870, Control_c, 0, 64, 127
3, 24000, Note_on_c, 0, 23, 0
3, 24000, Note_on_c, 0, 35, 65
3, 24026, Control_c, 0, 64, 0
3, 24034, Control_c, 0, 64, 0
3, 24240, Note_on_c, 0, 35, 0
3, 24240, Note_on_c, 0, 47, 65
3, 24480, Note_on_c, 0, 47, 0
3, 24480, Note_on_c, 0, 23, 65
3, 24571, Control_c, 0, 64, 127
3, 24720, Note_on_c, 0, 23, 0
3, 24720, Note_on_c, 0, 35, 65
3, 24753, Control_c, 0, 64, 0
3, 24762, Control_c, 0, 64, 0
3, 24960, Note_on_c, 0, 35, 0
3, 24960, Note_on_c, 0, 47, 65
3, 25200, Note_on_c, 0, 47, 0
3, 25200, Note_on_c, 0, 23, 65
3, 25298, Control_c, 0, 64, 127
3, 25440, Note_on_c, 0, 23, 0
3, 25440, Note_on_c, 0, 35, 65
3, 25480, Control_c, 0, 64, 0
3, 25489, Control_c, 0, 64, 0
3, 25680, Note_on_c, 0, 35, 0
3, 25680, Note_on_c, 0, 47, 65
3, 25920, Note_on_c, 0, 47, 0
3, 25920, Note_on_c, 0, 23, 65
3, 26017, Control_c, 0, 64, 127
3, 26160, Note_on_c, 0, 23, 0
3, 26160, Note_on_c, 0, 35, 65
3, 26181, Control_c, 0, 64, 0
3, 26190, Control_c, 0, 64, 0
3, 26400, Note_on_c, 0, 35, 0
3, 26400, Note_on_c, 0, 33, 65
3, 26400, Note_on_c, 0, 45, 65
3, 26640, Note_on_c, 0, 45, 0
3, 26640, Note_on_c, 0, 33, 0
3, 26640, Note_on_c, 0, 32, 65
3, 26640, Note_on_c, 0, 44, 65
3, 26761, Control_c, 0, 64, 127
3, 26925, Control_c, 0, 64, 0
3, 26934, Control_c, 0, 64, 0
3, 27120, Note_on_c, 0, 44, 0
3, 27120, Note_on_c, 0, 32, 0
3, 27120, Note_on_c, 0, 35, 65
3, 27120, Note_on_c, 0, 47, 65
3, 27360, Note_on_c, 0, 47, 0
3, 27360, Note_on_c, 0, 35, 0
3, 27360, Note_on_c, 0, 33, 65
3, 27360, Note_on_c, 0, 45, 65
3, 27497, Control_c, 0, 64, 127
3, 27652, Control_c, 0, 64, 0
3, 27661, Control_c, 0, 64, 0
3, 27840, Note_on_c, 0, 45, 0
3, 27840, Note_on_c, 0, 33, 0
3, 27840, Note_on_c, 0, 37, 65
3, 27840, Note_on_c, 0, 49, 65
3, 28080, Note_on_c, 0, 49, 0
3, 28080, Note_on_c, 0, 37, 0
3, 28080, Note_on_c, 0, 35, 65
3, 28080, Note_on_c, 0, 47, 65
3, 28198, Control_c, 0, 64, 127
3, 28501, Control_c, 0, 64, 0
3, 28509, Control_c, 0, 64, 0
3, 28560, Note_on_c, 0, 47, 0
3, 28560, Note_on_c, 0, 35, 0
3, 28560, Note_on_c, 0, 40, 65
3, 28560, Note_on_c, 0, 52, 65
3, 28800, Note_on_c, 0, 52, 0
3, 28800, Note_on_c, 0, 40, 0
3, 28800, Note_on_c, 0, 45, 65
3, 28800, Note_on_c, 0, 57, 65
3, 28933, Control_c, 0, 64, 127
3, 29193, Control_c, 0, 64, 0
3, 29202, Control_c, 0, 64, 0
3, 29280, Note_on_c, 0, 57, 0
3, 29280, Note_on_c, 0, 45, 0
3, 29280, Note_on_c, 0, 49, 65
3, 29280, Note_on_c, 0, 61, 65
3, 29520, Note_on_c, 0, 61, 0
3, 29520, Note_on_c, 0, 49, 0
3, 29520, Note_on_c, 0, 52, 65
3, 29520, Note_on_c, 0, 64, 65
3, 29609, Control_c, 0, 64, 127
3, 29989, Control_c, 0, 64, 0
3, 29998, Control_c, 0, 64, 0
3, 30000, Note_on_c, 0, 64, 0
3, 30000, Note_on_c, 0, 52, 0
3, 30000, Note_on_c, 0, 56, 65
3, 30000, Note_on_c, 0, 68, 65
3, 30240, Note_on_c, 0, 68, 0
3, 30240, Note_on_c, 0, 56, 0
3, 30240, Note_on_c, 0, 57, 65
3, 30240, Note_on_c, 0, 69, 65
3, 30344, Control_c, 0, 64, 0
3, 30353, Control_c, 0, 64, 127
3, 30720, Note_on_c, 0, 69, 0
3, 30720, Note_on_c, 0, 57, 0
3, 30720, Note_on_c, 0, 61, 65
3, 30720, Note_on_c, 0, 69, 65
3, 30720, Note_on_c, 0, 73, 65
3, 30734, Control_c, 0, 64, 0
3, 30742, Control_c, 0, 64, 0
3, 30960, Note_on_c, 0, 73, 0
3, 30960, Note_on_c, 0, 69, 0
3, 30960, Note_on_c, 0, 61, 0
3, 30960, Note_on_c, 0, 59, 65
3, 30960, Note_on_c, 0, 69, 65
3, 30960, Note_on_c, 0, 71, 65
3, 31054, Control_c, 0, 64, 127
3, 31440, Note_on_c, 0, 71, 0
3, 31440, Note_on_c, 0, 69, 0
3, 31440, Note_on_c, 0, 59, 0
3, 31440, Note_on_c, 0, 47, 65
3, 31440, Note_on_c, 0, 59, 65
3, 31680, Note_on_c, 0, 59, 0
3, 31680, Note_on_c, 0, 40, 65
3, 31680, Note_on_c, 0, 52, 65
3, 31712, Control_c, 0, 64, 0
3, 31720, Control_c, 0, 64, 0
3, 31781, Control_c, 0, 64, 0
3, 31790, Control_c, 0, 64, 127
3, 32075, Control_c, 0, 64, 0
3, 32084, Control_c, 0, 64, 0
3, 32160, Note_on_c, 0, 52, 0
3, 32160, Note_on_c, 0, 40, 0
3, 32160, Note_on_c, 0, 47, 0
3, 32400, Note_on_c, 0, 28, 65
3, 32424, Control_c, 0, 64, 127
3, 32627, Control_c, 0, 64, 0
3, 32635, Control_c, 0, 64, 0
3, 32640, Note_on_c, 0, 28, 0
3, 32640, Note_on_c, 0, 40, 65
3, 32880, Note_on_c, 0, 40, 0
3, 32880, Note_on_c, 0, 52, 65
3, 33120, Note_on_c, 0, 52, 0
3, 33120, Note_on_c, 0, 28, 65
3, 33198, Control_c, 0, 64, 127
3, 33360, Note_on_c, 0, 28, 0
3, 33360, Note_on_c, 0, 40, 65
3, 33371, Control_c, 0, 64, 0
3, 33380, Control_c, 0, 64, 0
3, 33600, Note_on_c, 0, 40, 0
3, 33600, Note_on_c, 0, 52, 65
3, 33840, Note_on_c, 0, 52, 0
3, 33840, Note_on_c, 0, 28, 65
3, 33942, Control_c, 0, 64, 0
3, 33951, Control_c, 0, 64, 127
3, 34080, Note_on_c, 0, 28, 0
3, 34080, Note_on_c, 0, 40, 65
3, 34124, Control_c, 0, 64, 0
3, 34133, Control_c, 0, 64, 0
3, 34227, Pitch_bend_c, 0, 8030
3, 34228, Pitch_bend_c, 0, 8111
3, 34320, Note_on_c, 0, 40, 0
3, 34320, Note_on_c, 0, 52, 65
3, 34560, Note_on_c, 0, 52, 0
3, 34560, Note_on_c, 0, 28, 65
3, 34661, Control_c, 0, 64, 127
3, 34800, Note_on_c, 0, 28, 0
3, 34800, Note_on_c, 0, 36, 65
3, 34834, Control_c, 0, 64, 0
3, 34842, Control_c, 0, 64, 0
3, 35040, Note_on_c, 0, 36, 0
3, 35040, Note_on_c, 0, 48, 65
3, 35280, Note_on_c, 0, 48, 0
3, 35280, Note_on_c, 0, 24, 65
3, 35370, Control_c, 0, 64, 127
3, 35520, Note_on_c, 0, 24, 0
3, 35520, Note_on_c, 0, 36, 65
3, 35552, Control_c, 0, 64, 0
3, 35561, Control_c, 0, 64, 0
3, 35760, Note_on_c, 0, 36, 0
3, 35760, Note_on_c, 0, 48, 65
3, 36000, Note_on_c, 0, 48, 0
3, 36000, Note_on_c, 0, 24, 65
3, 36080, Control_c, 0, 64, 0
3, 36089, Control_c, 0, 64, 127
3, 36240, Note_on_c, 0, 24, 0
3, 36240, Note_on_c, 0, 36, 65
3, 36288, Control_c, 0, 64, 0
3, 36364, Pitch_bend_c, 0, 8030
3, 36366, Pitch_bend_c, 0, 8111
3, 36480, Note_on_c, 0, 36, 0
3, 36480, Note_on_c, 0, 48, 65
3, 36720, Note_on_c, 0, 48, 0
3, 36720, Note_on_c, 0, 24, 65
3, 36799, Control_c, 0, 64, 0
3, 36807, Control_c, 0, 64, 127
3, 36960, Note_on_c, 0, 24, 0
3, 36960, Note_on_c, 0, 36, 65
3, 37200, Note_on_c, 0, 36, 0
3, 37200, Note_on_c, 0, 48, 65
3, 37358, Pitch_bend_c, 0, 8030
3, 37360, Pitch_bend_c, 0, 8111
3, 37440, Note_on_c, 0, 48, 0
3, 37440, Note_on_c, 0, 24, 65
3, 37456, Control_c, 0, 64, 0
3, 37680, Note_on_c, 0, 24, 0
3, 37680, Note_on_c, 0, 36, 65
3, 37920, Note_on_c, 0, 36, 0
3, 37920, Note_on_c, 0, 48, 65
3, 38160, Note_on_c, 0, 48, 0
3, 38160, Note_on_c, 0, 23, 65
3, 38270, Control_c, 0, 64, 127
3, 38400, Note_on_c, 0, 23, 0
3, 38400, Note_on_c, 0, 35, 65
3, 38426, Control_c, 0, 64, 0
3, 38434, Control_c, 0, 64, 0
3, 38640, Note_on_c, 0, 35, 0
3, 38640, Note_on_c, 0, 47, 65
3, 38880, Note_on_c, 0, 47, 0
3, 38880, Note_on_c, 0, 23, 65
3, 38971, Control_c, 0, 64, 127
3, 39120, Note_on_c, 0, 23, 0
3, 39120, Note_on_c, 0, 35, 65
3, 39153, Control_c, 0, 64, 0
3, 39162, Control_c, 0, 64, 0
3, 39360, Note_on_c, 0, 35, 0
3, 39360, Note_on_c, 0, 47, 65
3, 39600, Note_on_c, 0, 47, 0
3, 39600, Note_on_c, 0, 23, 65
3, 39698, Control_c, 0, 64, 127
3, 39840, Note_on_c, 0, 23, 0
3, 39840, Note_on_c, 0, 35, 65
3, 39880, Control_c, 0, 64, 0
3, 39889, Control_c, 0, 64, 0
3, 40080, Note_on_c, 0, 35, 0
3, 40080, Note_on_c, 0, 47, 65
3, 40320, Note_on_c, 0, 47, 0
3, 40320, Note_on_c, 0, 23, 65
3, 40417, Control_c, 0, 64, 127
3, 40560, Note_on_c, 0, 23, 0
3, 40560, Note_on_c, 0, 35, 65
3, 40581, Control_c, 0, 64, 0
3, 40590, Control_c, 0, 64, 0
3, 40800, Note_on_c, 0, 35, 0
3, 40800, Note_on_c, 0, 33, 65
3, 40800, Note_on_c, 0, 45, 65
3, 41040, Note_on_c, 0, 45, 0
3, 41040, Note_on_c, 0, 33, 0
3, 41040, Note_on_c, 0, 32, 65
3, 41040, Note_on_c, 0, 44, 65
3, 41161, Control_c, 0, 64, 127
3, 41325, Control_c, 0, 64, 0
3, 41334, Control_c, 0, 64, 0
3, 41520, Note_on_c, 0, 44, 0
3, 41520, Note_on_c, 0, 32, 0
3, 41520, Note_on_c, 0, 35, 65
3, 41520, Note_on_c, 0, 47, 65
3, 41760, Note_on_c, 0, 47, 0
3, 41760, Note_on_c, 0, 35, 0
3, 41760, Note_on_c, 0, 33, 65
3, 41760, Note_on_c, 0, 45, 65
3, 41897, Control_c, 0, 64, 127
3, 42052, Control_c, 0, 64, 0
3, 42061, Control_c, 0, 64, 0
3, 42240, Note_on_c, 0, 45, 0
3, 42240, Note_on_c, 0, 33, 0
3, 42240, Note_on_c, 0, 37, 65
3, 42240, Note_on_c, 0, 49, 65
3, 42480, Note_on_c, 0, 49, 0
3, 42480, Note_on_c, 0, 37, 0
3, 42480, Note_on_c, 0, 35, 65
3, 42480, Note_on_c, 0, 47, 65
3, 42598, Control_c, 0, 64, 127
3, 42901, Control_c, 0, 64, 0
3, 42909, Control_c, 0, 64, 0
3, 42960, Note_on_c, 0, 47, 0
3, 42960, Note_on_c, 0, 35, 0
3, 42960, Note_on_c, 0, 40, 65
3, 42960, Note_on_c, 0, 52, 65
3, 43200, Note_on_c, 0, 52, 0
3, 43200, Note_on_c, 0, 40, 0
3, 43200, Note_on_c, 0, 45, 65
3, 43200, Note_on_c, 0, 57, 65
3, 43333, Control_c, 0, 64, 127
3, 43593, Control_c, 0, 64, 0
3, 43602, Control_c, 0, 64, 0
3, 43680, Note_on_c, 0, 57, 0
3, 43680, Note_on_c, 0, 45, 0
3, 43680, Note_on_c, 0, 49, 65
3, 43680, Note_on_c, 0, 61, 65
3, 43920, Note_on_c, 0, 61, 0
3, 43920, Note_on_c, 0, 49, 0
3, 43920, Note_on_c, 0, 52, 65
3, 43920, Note_on_c, 0, 64, 65
3, 44009, Control_c, 0, 64, 127
3, 44389, Control_c, 0, 64, 0
3, 44398, Control_c, 0, 64, 0
3, 44400, Note_on_c, 0, 64, 0
3, 44400, Note_on_c, 0, 52, 0
3, 44400, Note_on_c, 0, 56, 65
3, 44400, Note_on_c, 0, 68, 65
3, 44640, Note_on_c, 0, 68, 0
3, 44640, Note_on_c, 0, 56, 0
3, 44640, Note_on_c, 0, 57, 65
3, 44640, Note_on_c, 0, 69, 65
3, 44744, Control_c, 0, 64, 0
3, 44753, Control_c, 0, 64, 127
3, 45120, Note_on_c, 0, 69, 0
3, 45120, Note_on_c, 0, 57, 0
3, 45120, Note_on_c, 0, 61, 65
3, 45120, Note_on_c, 0, 69, 65
3, 45120, Note_on_c, 0, 73, 65
3, 45134, Control_c, 0, 64, 0
3, 45142, Control_c, 0, 64, 0
3, 45360, Note_on_c, 0, 73, 0
3, 45360, Note_on_c, 0, 69, 0
3, 45360, Note_on_c, 0, 61, 0
3, 45360, Note_on_c, 0, 59, 65
3, 45360, Note_on_c, 0, 69, 65
3, 45360, Note_on_c, 0, 71, 65
3, 45454, Control_c, 0, 64, 127
3, 45840, Note_on_c, 0, 71, 0
3, 45840, Note_on_c, 0, 69, 0
3, 45840, Note_on_c, 0, 59, 0
3, 45840, Note_on_c, 0, 47, 65
3, 45840, Note_on_c, 0, 59, 65
3, 46080, Note_on_c, 0, 59, 0
3, 46080, Note_on_c, 0, 47, 0
3, 46080, Note_on_c, 0, 40, 65
3, 46080, Note_on_c, 0, 52, 65
3, 46097, Control_c, 0, 64, 0
3, 46106, Control_c, 0, 64, 0
3, 46175, Control_c, 0, 64, 0
3, 46184, Control_c, 0, 64, 127
3, 46573, Control_c, 0, 64, 0
3, 46582, Control_c, 0, 64, 0
3, 46601, Pitch_bend_c, 0, 8030
3, 46603, Pitch_bend_c, 0, 8111
3, 46800, Note_on_c, 0, 52, 0
3, 46800, Note_on_c, 0, 40, 0
3, 46800, End_track
0, 0, End_of_file
