0, 0, Header, 0, 1, 480
1, 0, Start_track
1, 0, Title_t, "16 Waltzes Op.39"
1, 0, Copyright_t, "                  "
1, 0, Tempo, 512820
1, 0, Time_signature, 4, 2, 24, 8
1, 1655, Control_c, 0, 67, 9
1, 1690, Control_c, 0, 67, 17
1, 1709, Control_c, 0, 67, 23
1, 1727, Control_c, 0, 67, 29
1, 1747, Control_c, 0, 67, 37
1, 1764, Control_c, 0, 67, 44
1, 1783, Control_c, 0, 67, 49
1, 1801, Control_c, 0, 67, 54
1, 1820, Control_c, 0, 67, 61
1, 1839, Control_c, 0, 67, 68
1, 1856, Control_c, 0, 67, 73
1, 1877, Control_c, 0, 67, 77
1, 1912, Control_c, 0, 67, 85
1, 1930, Control_c, 0, 67, 91
1, 1949, Control_c, 0, 67, 96
1, 1985, Control_c, 0, 67, 102
1, 2022, Control_c, 0, 67, 106
1, 2150, Control_c, 0, 64, 21
1, 2170, Control_c, 0, 64, 31
1, 2188, Control_c, 0, 64, 38
1, 2207, Control_c, 0, 64, 42
1, 2223, Control_c, 0, 64, 45
1, 2243, Control_c, 0, 64, 48
1, 2261, Control_c, 0, 64, 50
1, 2280, Control_c, 0, 64, 52
1, 2313, Control_c, 0, 64, 55
1, 2332, Control_c, 0, 64, 58
1, 2352, Control_c, 0, 64, 60
1, 2369, Control_c, 0, 64, 63
1, 2387, Control_c, 0, 64, 66
1, 2389, Control_c, 0, 67, 102
1, 2405, Control_c, 0, 64, 68
1, 2424, Control_c, 0, 64, 71
1, 2442, Control_c, 0, 64, 74
1, 2443, Control_c, 0, 67, 95
1, 2460, Control_c, 0, 64, 78
1, 2461, Control_c, 0, 67, 91
1, 2478, Control_c, 0, 64, 81
1, 2497, Control_c, 0, 64, 85
1, 2515, Control_c, 0, 64, 88
1, 2516, Control_c, 0, 67, 86
1, 2535, Control_c, 0, 67, 81
1, 2553, Control_c, 0, 67, 74
1, 2572, Control_c, 0, 64, 93
1, 2574, Control_c, 0, 67, 67
1, 2591, Control_c, 0, 67, 61
1, 2607, Control_c, 0, 64, 98
1, 2608, Control_c, 0, 67, 54
1, 2625, Control_c, 0, 67, 46
1, 2645, Control_c, 0, 64, 104
1, 2646, Control_c, 0, 67, 36
1, 2663, Control_c, 0, 67, 26
1, 2682, Control_c, 0, 64, 108
1, 2682, Control_c, 0, 67, 18
1, 2700, Control_c, 0, 67, 13
1, 2756, Control_c, 0, 64, 113
1, 2775, Control_c, 0, 67, 9
1, 2812, Control_c, 0, 64, 118
1, 2847, Control_c, 0, 64, 122
1, 2884, Control_c, 0, 64, 126
1, 3032, Control_c, 0, 67, 0
1, 3155, Note_on_c, 0, 37, 40
1, 3160, Note_on_c, 0, 80, 60
1, 3172, Note_on_c, 0, 76, 46
1, 3178, Control_c, 0, 64, 120
1, 3187, Note_on_c, 0, 68, 35
1, 3198, Control_c, 0, 64, 111
1, 3216, Control_c, 0, 64, 103
1, 3322, Control_c, 0, 64, 108
1, 3340, Control_c, 0, 64, 112
1, 3360, Control_c, 0, 64, 118
1, 3377, Control_c, 0, 64, 123
1, 3380, Note_off_c, 0, 37, 42
1, 3395, Control_c, 0, 64, 127
1, 3464, Note_off_c, 0, 76, 62
1, 3512, Note_off_c, 0, 68, 39
1, 3783, Control_c, 0, 67, 8
1, 3823, Note_on_c, 0, 66, 48
1, 3828, Note_on_c, 0, 57, 41
1, 3837, Note_on_c, 0, 61, 34
1, 3855, Control_c, 0, 64, 115
1, 3874, Control_c, 0, 64, 108
1, 3933, Note_off_c, 0, 80, 51
1, 3978, Note_off_c, 0, 66, 64
1, 3980, Note_off_c, 0, 57, 56
1, 3995, Note_on_c, 0, 81, 75
1, 4018, Note_on_c, 0, 69, 49
1, 4020, Note_on_c, 0, 78, 51
1, 4022, Control_c, 0, 67, 12
1, 4040, Control_c, 0, 67, 16
1, 4049, Note_off_c, 0, 69, 60
1, 4059, Control_c, 0, 67, 21
1, 4079, Control_c, 0, 67, 27
1, 4113, Control_c, 0, 67, 31
1, 4125, Note_off_c, 0, 78, 59
1, 4145, Note_off_c, 0, 81, 59
1, 4185, Control_c, 0, 64, 103
1, 4186, Control_c, 0, 67, 39
1, 4203, Control_c, 0, 64, 90
1, 4204, Control_c, 0, 67, 43
1, 4221, Control_c, 0, 64, 75
1, 4229, Note_on_c, 0, 76, 63
1, 4231, Note_on_c, 0, 80, 70
1, 4240, Control_c, 0, 64, 68
1, 4240, Control_c, 0, 67, 47
1, 4240, Note_on_c, 0, 64, 40
1, 4243, Note_on_c, 0, 56, 46
1, 4244, Note_on_c, 0, 68, 54
1, 4259, Control_c, 0, 64, 72
1, 4277, Control_c, 0, 64, 78
1, 4278, Note_off_c, 0, 64, 58
1, 4295, Note_off_c, 0, 61, 54
1, 4295, Control_c, 0, 64, 88
1, 4298, Control_c, 0, 67, 54
1, 4312, Note_off_c, 0, 56, 63
1, 4313, Control_c, 0, 64, 99
1, 4314, Control_c, 0, 67, 58
1, 4331, Control_c, 0, 64, 108
1, 4350, Control_c, 0, 64, 113
1, 4351, Control_c, 0, 67, 63
1, 4355, Note_off_c, 0, 80, 62
1, 4357, Note_off_c, 0, 76, 63
1, 4416, Note_off_c, 0, 68, 60
1, 4424, Control_c, 0, 67, 68
1, 4571, Control_c, 0, 64, 106
1, 4576, Note_on_c, 0, 37, 42
1, 4589, Control_c, 0, 64, 97
1, 4608, Control_c, 0, 64, 78
1, 4626, Control_c, 0, 64, 50
1, 4645, Control_c, 0, 64, 0
1, 4646, Control_c, 0, 67, 72
1, 4652, Note_on_c, 0, 76, 72
1, 4665, Note_on_c, 0, 64, 55
1, 4682, Control_c, 0, 64, 30
1, 4701, Control_c, 0, 64, 56
1, 4718, Control_c, 0, 64, 71
1, 4720, Note_off_c, 0, 64, 58
1, 4737, Control_c, 0, 64, 83
1, 4744, Note_off_c, 0, 37, 55
1, 4756, Control_c, 0, 64, 96
1, 4773, Control_c, 0, 64, 103
1, 4854, Note_on_c, 0, 78, 74
1, 4868, Note_off_c, 0, 76, 65
1, 4874, Note_on_c, 0, 66, 46
1, 4910, Note_off_c, 0, 66, 56
1, 5038, Note_off_c, 0, 78, 59
1, 5049, Control_c, 0, 64, 98
1, 5067, Control_c, 0, 64, 90
1, 5074, Note_on_c, 0, 80, 66
1, 5078, Note_on_c, 0, 66, 22
1, 5086, Control_c, 0, 64, 73
1, 5105, Note_on_c, 0, 56, 27
1, 5114, Note_on_c, 0, 75, 48
1, 5117, Note_on_c, 0, 68, 39
1, 5118, Control_c, 0, 64, 42
1, 5138, Control_c, 0, 64, 0
1, 5146, Note_on_c, 0, 60, 30
1, 5211, Control_c, 0, 64, 35
1, 5231, Control_c, 0, 64, 51
1, 5249, Note_off_c, 0, 60, 52
1, 5249, Control_c, 0, 64, 59
1, 5266, Control_c, 0, 64, 65
1, 5284, Control_c, 0, 64, 72
1, 5293, Note_off_c, 0, 66, 51
1, 5304, Control_c, 0, 64, 80
1, 5322, Control_c, 0, 64, 88
1, 5330, Note_off_c, 0, 75, 57
1, 5340, Control_c, 0, 64, 93
1, 5342, Control_c, 0, 67, 68
1, 5397, Control_c, 0, 64, 99
1, 5524, Control_c, 0, 64, 93
1, 5542, Control_c, 0, 64, 79
1, 5561, Note_on_c, 0, 76, 47
1, 5561, Control_c, 0, 64, 60
1, 5579, Note_on_c, 0, 64, 35
1, 5580, Control_c, 0, 64, 30
1, 5581, Note_on_c, 0, 61, 31
1, 5599, Control_c, 0, 64, 21
1, 5617, Control_c, 0, 64, 32
1, 5636, Control_c, 0, 64, 48
1, 5654, Control_c, 0, 64, 59
1, 5672, Control_c, 0, 64, 66
1, 5690, Control_c, 0, 64, 74
1, 5711, Control_c, 0, 64, 86
1, 5714, Note_off_c, 0, 64, 57
1, 5722, Note_off_c, 0, 61, 52
1, 5728, Control_c, 0, 64, 99
1, 5741, Note_off_c, 0, 76, 65
1, 5743, Control_c, 0, 64, 109
1, 5744, Control_c, 0, 67, 60
1, 5755, Note_off_c, 0, 56, 50
1, 5761, Control_c, 0, 67, 51
1, 5780, Note_off_c, 0, 80, 61
1, 5781, Control_c, 0, 67, 35
1, 5801, Control_c, 0, 67, 20
1, 5811, Note_off_c, 0, 68, 41
1, 5819, Control_c, 0, 67, 12
1, 5995, Note_on_c, 0, 37, 38
1, 6054, Control_c, 0, 64, 97
1, 6068, Note_on_c, 0, 80, 72
1, 6073, Control_c, 0, 64, 74
1, 6074, Note_on_c, 0, 76, 58
1, 6090, Note_on_c, 0, 68, 41
1, 6091, Control_c, 0, 64, 33
1, 6111, Control_c, 0, 64, 0
1, 6147, Control_c, 0, 64, 21
1, 6165, Control_c, 0, 64, 48
1, 6176, Note_off_c, 0, 37, 56
1, 6185, Control_c, 0, 64, 62
1, 6200, Control_c, 0, 64, 72
1, 6219, Control_c, 0, 64, 83
1, 6238, Control_c, 0, 64, 94
1, 6257, Control_c, 0, 64, 103
1, 6260, Note_off_c, 0, 76, 62
1, 6342, Note_off_c, 0, 68, 39
1, 6516, Note_on_c, 0, 66, 54
1, 6525, Note_on_c, 0, 61, 52
1, 6559, Note_on_c, 0, 57, 38
1, 6617, Note_off_c, 0, 80, 60
1, 6623, Note_off_c, 0, 57, 49
1, 6652, Note_off_c, 0, 66, 63
1, 6683, Note_on_c, 0, 81, 79
1, 6698, Note_on_c, 0, 78, 59
1, 6703, Note_on_c, 0, 69, 60
1, 6745, Note_off_c, 0, 69, 64
1, 6804, Note_off_c, 0, 78, 60
1, 6815, Note_off_c, 0, 81, 63
1, 6846, Control_c, 0, 64, 95
1, 6864, Control_c, 0, 64, 86
1, 6883, Control_c, 0, 64, 81
1, 6886, Note_on_c, 0, 64, 53
1, 6886, Note_on_c, 0, 80, 82
1, 6892, Note_on_c, 0, 76, 70
1, 6895, Note_on_c, 0, 56, 59
1, 6901, Control_c, 0, 64, 83
1, 6902, Note_on_c, 0, 68, 69
1, 6902, Control_c, 0, 67, 8
1, 6916, Note_off_c, 0, 64, 59
1, 6920, Control_c, 0, 64, 87
1, 6930, Note_off_c, 0, 61, 56
1, 6938, Control_c, 0, 64, 92
1, 6941, Note_off_c, 0, 56, 67
1, 6958, Control_c, 0, 64, 96
1, 7063, Note_off_c, 0, 68, 54
1, 7081, Note_off_c, 0, 76, 53
1, 7099, Note_off_c, 0, 80, 56
1, 7231, Control_c, 0, 64, 85
1, 7252, Control_c, 0, 64, 67
1, 7260, Note_on_c, 0, 35, 48
1, 7269, Control_c, 0, 64, 37
1, 7271, Note_on_c, 0, 47, 51
1, 7286, Control_c, 0, 64, 12
1, 7296, Note_on_c, 0, 81, 85
1, 7303, Control_c, 0, 64, 26
1, 7305, Note_on_c, 0, 69, 70
1, 7317, Note_off_c, 0, 35, 62
1, 7322, Control_c, 0, 64, 50
1, 7342, Control_c, 0, 64, 68
1, 7359, Control_c, 0, 64, 83
1, 7367, Note_off_c, 0, 69, 63
1, 7369, Note_off_c, 0, 47, 62
1, 7375, Control_c, 0, 64, 102
1, 7396, Control_c, 0, 64, 116
1, 7496, Note_on_c, 0, 82, 86
1, 7504, Note_off_c, 0, 81, 62
1, 7508, Note_on_c, 0, 70, 73
1, 7574, Note_off_c, 0, 70, 49
1, 7642, Note_off_c, 0, 82, 61
1, 7676, Note_on_c, 0, 59, 41
1, 7710, Note_on_c, 0, 83, 77
1, 7712, Note_on_c, 0, 57, 45
1, 7719, Note_on_c, 0, 66, 50
1, 7724, Note_on_c, 0, 78, 62
1, 7727, Control_c, 0, 64, 107
1, 7734, Note_on_c, 0, 71, 50
1, 7747, Control_c, 0, 64, 95
1, 7764, Control_c, 0, 64, 74
1, 7782, Control_c, 0, 64, 41
1, 7802, Control_c, 0, 64, 0
1, 7874, Control_c, 0, 64, 32
1, 7892, Control_c, 0, 64, 55
1, 7926, Control_c, 0, 64, 66
1, 7944, Control_c, 0, 64, 74
1, 7955, Note_off_c, 0, 78, 60
1, 7962, Note_off_c, 0, 66, 64
1, 7963, Control_c, 0, 64, 82
1, 7983, Control_c, 0, 64, 88
1, 7990, Note_off_c, 0, 57, 42
1, 7999, Control_c, 0, 64, 93
1, 8037, Control_c, 0, 64, 99
1, 8073, Control_c, 0, 64, 104
1, 8110, Control_c, 0, 64, 109
1, 8185, Control_c, 0, 64, 94
1, 8203, Control_c, 0, 64, 74
1, 8211, Note_on_c, 0, 76, 59
1, 8220, Control_c, 0, 64, 51
1, 8222, Note_on_c, 0, 64, 47
1, 8227, Note_on_c, 0, 56, 39
1, 8240, Control_c, 0, 64, 41
1, 8260, Control_c, 0, 64, 48
1, 8277, Control_c, 0, 64, 59
1, 8297, Control_c, 0, 64, 68
1, 8314, Control_c, 0, 64, 76
1, 8316, Control_c, 0, 67, 0
1, 8324, Note_off_c, 0, 64, 60
1, 8333, Control_c, 0, 64, 88
1, 8334, Note_off_c, 0, 59, 52
1, 8350, Control_c, 0, 64, 102
1, 8364, Note_off_c, 0, 56, 64
1, 8370, Control_c, 0, 64, 111
1, 8376, Note_off_c, 0, 71, 50
1, 8376, Note_off_c, 0, 83, 57
1, 8399, Note_off_c, 0, 76, 65
1, 8609, Control_c, 0, 64, 94
1, 8627, Control_c, 0, 64, 73
1, 8646, Control_c, 0, 64, 51
1, 8656, Note_on_c, 0, 47, 53
1, 8658, Note_on_c, 0, 35, 55
1, 8665, Control_c, 0, 64, 47
1, 8679, Note_on_c, 0, 83, 82
1, 8682, Control_c, 0, 64, 55
1, 8695, Note_on_c, 0, 71, 72
1, 8698, Note_off_c, 0, 35, 60
1, 8698, Note_on_c, 0, 80, 68
1, 8699, Control_c, 0, 64, 67
1, 8720, Control_c, 0, 64, 80
1, 8738, Control_c, 0, 64, 99
1, 8746, Note_off_c, 0, 71, 54
1, 8749, Note_off_c, 0, 47, 63
1, 8755, Control_c, 0, 64, 117
1, 8773, Control_c, 0, 64, 127
1, 8786, Note_off_c, 0, 83, 64
1, 8804, Note_off_c, 0, 80, 62
1, 8914, Note_on_c, 0, 81, 80
1, 8919, Note_on_c, 0, 85, 87
1, 8922, Note_on_c, 0, 73, 81
1, 8998, Note_off_c, 0, 81, 63
1, 9006, Note_off_c, 0, 73, 61
1, 9009, Note_on_c, 0, 59, 46
1, 9015, Note_on_c, 0, 57, 59
1, 9037, Note_off_c, 0, 85, 65
1, 9101, Note_on_c, 0, 66, 65
1, 9126, Note_on_c, 0, 86, 85
1, 9132, Note_on_c, 0, 74, 79
1, 9139, Control_c, 0, 64, 120
1, 9141, Note_on_c, 0, 83, 70
1, 9160, Control_c, 0, 64, 88
1, 9176, Control_c, 0, 64, 50
1, 9195, Control_c, 0, 64, 0
1, 9233, Control_c, 0, 64, 15
1, 9249, Control_c, 0, 64, 51
1, 9268, Control_c, 0, 64, 69
1, 9286, Control_c, 0, 64, 84
1, 9305, Control_c, 0, 64, 104
1, 9315, Note_off_c, 0, 57, 58
1, 9319, Note_off_c, 0, 66, 63
1, 9321, Control_c, 0, 64, 121
1, 9341, Control_c, 0, 64, 127
1, 9398, Note_off_c, 0, 86, 64
1, 9420, Note_off_c, 0, 74, 57
1, 9447, Note_off_c, 0, 83, 60
1, 9496, Note_on_c, 0, 65, 67
1, 9500, Note_on_c, 0, 56, 68
1, 9535, Note_off_c, 0, 65, 66
1, 9565, Note_off_c, 0, 59, 53
1, 9576, Note_off_c, 0, 56, 65
1, 9660, Note_on_c, 0, 85, 88
1, 9663, Note_on_c, 0, 80, 77
1, 9668, Note_on_c, 0, 73, 78
1, 9768, Note_off_c, 0, 80, 59
1, 9775, Note_off_c, 0, 73, 52
1, 9811, Note_off_c, 0, 85, 64
1, 9872, Note_on_c, 0, 33, 55
1, 9888, Note_on_c, 0, 45, 63
1, 9900, Note_on_c, 0, 78, 84
1, 9902, Note_on_c, 0, 85, 88
1, 9908, Note_on_c, 0, 73, 83
1, 9909, Control_c, 0, 64, 90
1, 9929, Control_c, 0, 64, 0
1, 9955, Note_off_c, 0, 33, 62
1, 9983, Control_c, 0, 64, 30
1, 10001, Control_c, 0, 64, 76
1, 10011, Note_off_c, 0, 45, 63
1, 10019, Control_c, 0, 64, 118
1, 10038, Control_c, 0, 64, 127
1, 10120, Note_off_c, 0, 73, 58
1, 10166, Note_off_c, 0, 85, 57
1, 10180, Note_off_c, 0, 78, 56
1, 10323, Note_on_c, 0, 68, 75
1, 10325, Note_on_c, 0, 61, 62
1, 10329, Note_on_c, 0, 57, 54
1, 10489, Note_on_c, 0, 86, 89
1, 10493, Note_on_c, 0, 83, 80
1, 10494, Note_on_c, 0, 74, 82
1, 10576, Note_off_c, 0, 83, 54
1, 10578, Note_off_c, 0, 74, 57
1, 10581, Note_off_c, 0, 68, 61
1, 10640, Note_off_c, 0, 86, 65
1, 10733, Control_c, 0, 64, 115
1, 10747, Note_on_c, 0, 66, 73
1, 10752, Control_c, 0, 64, 84
1, 10753, Note_on_c, 0, 85, 90
1, 10756, Note_on_c, 0, 81, 80
1, 10762, Note_on_c, 0, 73, 80
1, 10771, Control_c, 0, 64, 67
1, 10790, Control_c, 0, 64, 73
1, 10808, Control_c, 0, 64, 95
1, 10824, Control_c, 0, 64, 127
1, 10867, Note_off_c, 0, 66, 64
1, 10900, Note_off_c, 0, 61, 62
1, 10917, Note_off_c, 0, 57, 64
1, 10954, Note_off_c, 0, 73, 61
1, 10974, Note_off_c, 0, 85, 62
1, 10993, Note_off_c, 0, 81, 61
1, 11187, Note_on_c, 0, 30, 54
1, 11202, Note_on_c, 0, 42, 59
1, 11211, Control_c, 0, 64, 113
1, 11231, Control_c, 0, 64, 76
1, 11235, Note_on_c, 0, 85, 89
1, 11237, Note_on_c, 0, 73, 85
1, 11242, Note_on_c, 0, 81, 78
1, 11250, Control_c, 0, 64, 43
1, 11286, Control_c, 0, 64, 59
1, 11294, Note_off_c, 0, 30, 62
1, 11304, Control_c, 0, 64, 79
1, 11323, Control_c, 0, 64, 118
1, 11338, Note_off_c, 0, 42, 63
1, 11340, Control_c, 0, 64, 127
1, 11371, Note_off_c, 0, 73, 62
1, 11478, Note_off_c, 0, 81, 0
1, 11490, Note_on_c, 0, 81, 56
1, 11503, Note_on_c, 0, 87, 95
1, 11506, Note_on_c, 0, 75, 88
1, 11551, Note_off_c, 0, 85, 63
1, 11596, Note_on_c, 0, 57, 55
1, 11647, Note_off_c, 0, 75, 64
1, 11682, Note_off_c, 0, 87, 64
1, 11686, Note_off_c, 0, 81, 50
1, 11694, Note_on_c, 0, 61, 61
1, 11760, Note_on_c, 0, 68, 63
1, 11783, Note_on_c, 0, 88, 82
1, 11789, Note_on_c, 0, 85, 70
1, 11790, Note_on_c, 0, 76, 73
1, 11838, Note_on_c, 0, 81, 38
1, 11871, Control_c, 0, 64, 111
1, 11889, Control_c, 0, 64, 85
1, 11908, Control_c, 0, 64, 53
1, 11917, Note_off_c, 0, 81, 39
1, 11927, Control_c, 0, 64, 0
1, 12000, Control_c, 0, 64, 21
1, 12019, Control_c, 0, 64, 47
1, 12036, Control_c, 0, 64, 62
1, 12055, Control_c, 0, 64, 70
1, 12072, Control_c, 0, 64, 78
1, 12092, Control_c, 0, 64, 90
1, 12110, Control_c, 0, 64, 104
1, 12119, Note_off_c, 0, 68, 60
1, 12126, Control_c, 0, 64, 117
1, 12146, Control_c, 0, 64, 123
1, 12220, Control_c, 0, 64, 127
1, 12294, Note_off_c, 0, 76, 62
1, 12322, Note_off_c, 0, 88, 62
1, 12357, Note_on_c, 0, 66, 57
1, 12471, Note_off_c, 0, 66, 64
1, 12483, Note_off_c, 0, 57, 55
1, 12506, Note_off_c, 0, 61, 61
1, 12637, Note_on_c, 0, 87, 77
1, 12648, Note_on_c, 0, 75, 63
1, 12768, Control_c, 0, 67, 8
1, 12786, Note_off_c, 0, 75, 56
1, 12791, Note_off_c, 0, 87, 63
1, 12861, Note_off_c, 0, 85, 63
1, 12863, Note_on_c, 0, 32, 45
1, 12894, Note_on_c, 0, 44, 40
1, 12915, Control_c, 0, 64, 115
1, 12915, Control_c, 0, 67, 13
1, 12934, Control_c, 0, 64, 89
1, 12939, Note_on_c, 0, 87, 73
1, 12940, Note_on_c, 0, 75, 63
1, 12950, Note_on_c, 0, 81, 59
1, 12953, Control_c, 0, 64, 54
1, 12971, Control_c, 0, 64, 0
1, 12972, Control_c, 0, 67, 19
1, 13007, Control_c, 0, 64, 14
1, 13008, Control_c, 0, 67, 26
1, 13027, Control_c, 0, 64, 46
1, 13029, Control_c, 0, 67, 30
1, 13039, Note_off_c, 0, 32, 56
1, 13044, Control_c, 0, 64, 64
1, 13045, Control_c, 0, 67, 34
1, 13061, Control_c, 0, 64, 77
1, 13081, Control_c, 0, 64, 97
1, 13083, Control_c, 0, 67, 41
1, 13091, Note_off_c, 0, 44, 56
1, 13099, Control_c, 0, 64, 119
1, 13117, Control_c, 0, 64, 127
1, 13136, Control_c, 0, 67, 46
1, 13141, Note_off_c, 0, 87, 63
1, 13144, Note_off_c, 0, 81, 63
1, 13195, Note_off_c, 0, 75, 66
1, 13433, Control_c, 0, 67, 51
1, 13450, Note_on_c, 0, 60, 38
1, 13457, Note_on_c, 0, 56, 39
1, 13464, Note_on_c, 0, 68, 41
1, 13466, Note_on_c, 0, 84, 69
1, 13467, Control_c, 0, 64, 112
1, 13485, Note_on_c, 0, 80, 51
1, 13488, Control_c, 0, 64, 90
1, 13488, Note_on_c, 0, 72, 51
1, 13488, Control_c, 0, 67, 57
1, 13504, Control_c, 0, 64, 67
1, 13537, Control_c, 0, 64, 51
1, 13556, Control_c, 0, 64, 53
1, 13557, Control_c, 0, 67, 61
1, 13573, Control_c, 0, 64, 60
1, 13593, Control_c, 0, 64, 68
1, 13612, Control_c, 0, 64, 77
1, 13613, Control_c, 0, 67, 67
1, 13629, Control_c, 0, 64, 87
1, 13649, Control_c, 0, 64, 97
1, 13657, Note_off_c, 0, 84, 61
1, 13668, Control_c, 0, 64, 104
1, 13670, Control_c, 0, 67, 72
1, 13687, Control_c, 0, 64, 109
1, 13696, Note_off_c, 0, 80, 63
1, 13702, Note_off_c, 0, 68, 54
1, 13732, Note_off_c, 0, 72, 59
1, 13740, Control_c, 0, 64, 113
1, 14053, Control_c, 0, 64, 108
1, 14070, Control_c, 0, 64, 104
1, 14071, Control_c, 0, 67, 77
1, 14075, Note_on_c, 0, 81, 57
1, 14078, Note_on_c, 0, 66, 36
1, 14088, Control_c, 0, 64, 95
1, 14091, Note_on_c, 0, 69, 48
1, 14097, Note_on_c, 0, 78, 47
1, 14109, Control_c, 0, 64, 82
1, 14128, Control_c, 0, 64, 66
1, 14130, Control_c, 0, 67, 81
1, 14146, Control_c, 0, 64, 48
1, 14163, Control_c, 0, 64, 43
1, 14181, Control_c, 0, 67, 86
1, 14199, Control_c, 0, 64, 52
1, 14219, Control_c, 0, 64, 61
1, 14236, Control_c, 0, 64, 69
1, 14237, Control_c, 0, 67, 91
1, 14254, Control_c, 0, 64, 77
1, 14273, Control_c, 0, 64, 87
1, 14293, Control_c, 0, 64, 97
1, 14293, Control_c, 0, 67, 95
1, 14298, Note_off_c, 0, 66, 62
1, 14310, Control_c, 0, 64, 105
1, 14329, Note_off_c, 0, 60, 42
1, 14350, Control_c, 0, 64, 109
1, 14351, Control_c, 0, 67, 100
1, 14403, Control_c, 0, 64, 115
1, 14405, Note_off_c, 0, 56, 40
1, 14543, Note_off_c, 0, 69, 57
1, 14623, Note_off_c, 0, 78, 60
1, 14872, Note_on_c, 0, 37, 35
1, 14908, Note_off_c, 0, 81, 60
1, 14914, Note_on_c, 0, 80, 56
1, 14924, Note_on_c, 0, 76, 47
1, 14929, Note_on_c, 0, 68, 33
1, 14931, Control_c, 0, 64, 109
1, 14953, Control_c, 0, 64, 94
1, 14971, Control_c, 0, 64, 70
1, 14989, Control_c, 0, 64, 18
1, 15007, Control_c, 0, 64, 0
1, 15081, Control_c, 0, 64, 37
1, 15098, Control_c, 0, 64, 57
1, 15117, Control_c, 0, 64, 67
1, 15118, Control_c, 0, 67, 96
1, 15135, Control_c, 0, 64, 75
1, 15150, Note_off_c, 0, 37, 56
1, 15154, Control_c, 0, 64, 82
1, 15172, Control_c, 0, 64, 89
1, 15189, Control_c, 0, 64, 95
1, 15208, Control_c, 0, 64, 102
1, 15226, Control_c, 0, 64, 108
1, 15246, Control_c, 0, 64, 115
1, 15251, Note_off_c, 0, 76, 63
1, 15264, Control_c, 0, 64, 122
1, 15283, Control_c, 0, 64, 127
1, 15482, Note_off_c, 0, 68, 35
1, 15626, Note_on_c, 0, 66, 38
1, 15639, Note_on_c, 0, 57, 35
1, 15640, Note_on_c, 0, 61, 30
1, 15683, Control_c, 0, 67, 92
1, 15752, Note_off_c, 0, 80, 46
1, 15757, Control_c, 0, 67, 87
1, 15793, Note_off_c, 0, 66, 62
1, 15799, Note_off_c, 0, 57, 49
1, 15829, Note_on_c, 0, 81, 68
1, 15830, Control_c, 0, 67, 83
1, 15840, Note_on_c, 0, 78, 54
1, 15846, Note_on_c, 0, 69, 48
1, 15921, Note_off_c, 0, 69, 56
1, 15923, Control_c, 0, 67, 79
1, 15965, Note_off_c, 0, 78, 60
1, 16015, Control_c, 0, 64, 120
1, 16017, Note_off_c, 0, 81, 57
1, 16032, Control_c, 0, 64, 97
1, 16050, Control_c, 0, 64, 75
1, 16058, Note_on_c, 0, 64, 45
1, 16061, Note_on_c, 0, 80, 73
1, 16062, Note_on_c, 0, 76, 63
1, 16069, Control_c, 0, 64, 67
1, 16084, Note_on_c, 0, 68, 50
1, 16087, Control_c, 0, 64, 71
1, 16087, Note_on_c, 0, 56, 34
1, 16106, Control_c, 0, 64, 78
1, 16115, Note_off_c, 0, 64, 61
1, 16124, Control_c, 0, 64, 89
1, 16127, Control_c, 0, 67, 75
1, 16144, Control_c, 0, 64, 102
1, 16158, Note_off_c, 0, 61, 47
1, 16160, Control_c, 0, 64, 115
1, 16179, Note_off_c, 0, 56, 64
1, 16179, Control_c, 0, 64, 125
1, 16199, Note_off_c, 0, 80, 64
1, 16203, Note_off_c, 0, 76, 65
1, 16254, Note_off_c, 0, 68, 62
1, 16450, Note_on_c, 0, 37, 31
1, 16452, Control_c, 0, 64, 121
1, 16471, Control_c, 0, 64, 107
1, 16491, Control_c, 0, 64, 87
1, 16509, Control_c, 0, 64, 70
1, 16510, Note_on_c, 0, 76, 70
1, 16522, Note_on_c, 0, 64, 54
1, 16525, Control_c, 0, 64, 65
1, 16544, Control_c, 0, 64, 70
1, 16564, Control_c, 0, 64, 80
1, 16580, Control_c, 0, 64, 94
1, 16583, Note_off_c, 0, 64, 62
1, 16599, Control_c, 0, 64, 108
1, 16605, Note_off_c, 0, 37, 51
1, 16619, Control_c, 0, 64, 116
1, 16719, Note_on_c, 0, 78, 74
1, 16729, Note_off_c, 0, 76, 64
1, 16746, Note_on_c, 0, 66, 39
1, 16783, Note_off_c, 0, 66, 57
1, 16876, Control_c, 0, 64, 110
1, 16912, Control_c, 0, 64, 105
1, 16927, Note_on_c, 0, 66, 32
1, 16939, Note_off_c, 0, 78, 57
1, 16950, Control_c, 0, 64, 96
1, 16955, Note_on_c, 0, 80, 61
1, 16963, Note_on_c, 0, 60, 36
1, 16968, Control_c, 0, 64, 87
1, 16983, Note_on_c, 0, 75, 44
1, 16983, Note_on_c, 0, 56, 27
1, 16985, Note_on_c, 0, 68, 32
1, 16986, Control_c, 0, 64, 75
1, 17005, Control_c, 0, 64, 60
1, 17023, Control_c, 0, 64, 36
1, 17040, Control_c, 0, 64, 0
1, 17097, Control_c, 0, 64, 11
1, 17115, Control_c, 0, 64, 33
1, 17135, Control_c, 0, 64, 53
1, 17153, Control_c, 0, 64, 66
1, 17168, Note_off_c, 0, 66, 57
1, 17171, Control_c, 0, 64, 73
1, 17185, Note_off_c, 0, 60, 56
1, 17189, Control_c, 0, 64, 81
1, 17207, Control_c, 0, 64, 88
1, 17226, Control_c, 0, 64, 96
1, 17234, Note_off_c, 0, 75, 58
1, 17245, Control_c, 0, 64, 104
1, 17263, Control_c, 0, 64, 109
1, 17461, Control_c, 0, 64, 102
1, 17480, Control_c, 0, 64, 84
1, 17483, Note_on_c, 0, 76, 50
1, 17499, Control_c, 0, 64, 60
1, 17506, Note_on_c, 0, 64, 31
1, 17509, Note_on_c, 0, 61, 26
1, 17516, Control_c, 0, 64, 23
1, 17534, Control_c, 0, 64, 15
1, 17553, Control_c, 0, 64, 29
1, 17572, Control_c, 0, 64, 45
1, 17590, Control_c, 0, 64, 60
1, 17610, Control_c, 0, 64, 70
1, 17627, Control_c, 0, 64, 80
1, 17647, Control_c, 0, 64, 90
1, 17648, Note_off_c, 0, 64, 49
1, 17666, Control_c, 0, 64, 99
1, 17678, Poly_aftertouch_c, 0, 56, 24
1, 17679, Note_off_c, 0, 61, 50
1, 17681, Control_c, 0, 64, 104
1, 17686, Note_off_c, 0, 76, 64
1, 17717, Note_off_c, 0, 56, 40
1, 17739, Note_off_c, 0, 68, 42
1, 17739, Control_c, 0, 64, 109
1, 17744, Note_off_c, 0, 80, 55
1, 17792, Control_c, 0, 67, 71
1, 17829, Control_c, 0, 67, 66
1, 17929, Note_on_c, 0, 37, 34
1, 17958, Control_c, 0, 64, 98
1, 17977, Control_c, 0, 64, 76
1, 17985, Note_on_c, 0, 80, 73
1, 17989, Note_on_c, 0, 76, 60
1, 17996, Control_c, 0, 64, 45
1, 18004, Note_on_c, 0, 68, 47
1, 18031, Control_c, 0, 64, 20
1, 18050, Control_c, 0, 64, 44
1, 18069, Control_c, 0, 64, 63
1, 18072, Control_c, 0, 67, 62
1, 18088, Control_c, 0, 64, 76
1, 18095, Note_off_c, 0, 37, 55
1, 18106, Control_c, 0, 64, 91
1, 18125, Control_c, 0, 64, 106
1, 18141, Control_c, 0, 64, 118
1, 18161, Control_c, 0, 64, 122
1, 18198, Control_c, 0, 67, 57
1, 18230, Control_c, 0, 67, 53
1, 18249, Control_c, 0, 64, 126
1, 18250, Note_off_c, 0, 76, 65
1, 18268, Control_c, 0, 67, 47
1, 18304, Control_c, 0, 67, 41
1, 18332, Note_off_c, 0, 68, 36
1, 18341, Control_c, 0, 67, 36
1, 18397, Control_c, 0, 67, 32
1, 18443, Note_on_c, 0, 66, 56
1, 18448, Note_on_c, 0, 61, 46
1, 18467, Note_on_c, 0, 57, 56
1, 18487, Control_c, 0, 67, 28
1, 18552, Note_off_c, 0, 80, 37
1, 18562, Control_c, 0, 67, 23
1, 18594, Note_off_c, 0, 57, 61
1, 18599, Note_off_c, 0, 66, 65
1, 18600, Control_c, 0, 67, 18
1, 18616, Note_on_c, 0, 81, 80
1, 18627, Note_on_c, 0, 78, 65
1, 18627, Note_on_c, 0, 69, 67
1, 18634, Control_c, 0, 67, 10
1, 18673, Control_c, 0, 67, 0
1, 18697, Note_off_c, 0, 69, 58
1, 18732, Note_off_c, 0, 81, 63
1, 18745, Note_off_c, 0, 78, 61
1, 18746, Control_c, 0, 64, 121
1, 18764, Control_c, 0, 64, 116
1, 18782, Control_c, 0, 64, 109
1, 18821, Note_on_c, 0, 64, 49
1, 18829, Note_on_c, 0, 56, 59
1, 18829, Note_on_c, 0, 80, 82
1, 18836, Note_on_c, 0, 76, 70
1, 18844, Note_on_c, 0, 68, 67
1, 18851, Note_off_c, 0, 64, 59
1, 18864, Note_off_c, 0, 61, 61
1, 18880, Note_off_c, 0, 56, 65
1, 18991, Note_off_c, 0, 68, 51
1, 18992, Note_off_c, 0, 76, 59
1, 19008, Note_off_c, 0, 80, 54
1, 19042, Control_c, 0, 64, 113
1, 19134, Control_c, 0, 64, 106
1, 19167, Control_c, 0, 64, 86
1, 19184, Control_c, 0, 64, 58
1, 19186, Note_on_c, 0, 35, 48
1, 19197, Note_on_c, 0, 47, 52
1, 19202, Control_c, 0, 64, 20
1, 19239, Note_on_c, 0, 81, 80
1, 19241, Control_c, 0, 64, 41
1, 19245, Note_on_c, 0, 69, 66
1, 19258, Note_off_c, 0, 35, 62
1, 19259, Control_c, 0, 64, 61
1, 19278, Control_c, 0, 64, 76
1, 19299, Control_c, 0, 64, 96
1, 19310, Note_off_c, 0, 69, 63
1, 19314, Note_off_c, 0, 47, 63
1, 19314, Control_c, 0, 64, 120
1, 19333, Control_c, 0, 64, 127
1, 19408, Note_off_c, 0, 81, 63
1, 19437, Note_on_c, 0, 82, 86
1, 19459, Note_on_c, 0, 70, 67
1, 19544, Note_off_c, 0, 70, 55
1, 19580, Note_off_c, 0, 82, 62
1, 19614, Note_on_c, 0, 59, 40
1, 19634, Note_on_c, 0, 66, 57
1, 19643, Note_on_c, 0, 57, 49
1, 19667, Note_on_c, 0, 83, 83
1, 19680, Note_on_c, 0, 78, 68
1, 19683, Control_c, 0, 64, 113
1, 19684, Note_on_c, 0, 71, 62
1, 19701, Control_c, 0, 64, 82
1, 19719, Control_c, 0, 64, 44
1, 19738, Control_c, 0, 64, 0
1, 19792, Control_c, 0, 64, 34
1, 19812, Control_c, 0, 64, 57
1, 19830, Control_c, 0, 64, 68
1, 19847, Control_c, 0, 64, 75
1, 19865, Control_c, 0, 64, 84
1, 19884, Control_c, 0, 64, 95
1, 19887, Note_off_c, 0, 66, 64
1, 19898, Note_off_c, 0, 57, 57
1, 19902, Control_c, 0, 64, 107
1, 19918, Note_off_c, 0, 78, 58
1, 19921, Control_c, 0, 64, 120
1, 19940, Control_c, 0, 64, 127
1, 20139, Control_c, 0, 64, 114
1, 20156, Control_c, 0, 64, 87
1, 20159, Note_on_c, 0, 56, 45
1, 20166, Note_on_c, 0, 64, 49
1, 20167, Note_on_c, 0, 76, 60
1, 20175, Control_c, 0, 64, 63
1, 20195, Control_c, 0, 64, 50
1, 20213, Control_c, 0, 64, 56
1, 20232, Control_c, 0, 64, 65
1, 20249, Control_c, 0, 64, 78
1, 20268, Control_c, 0, 64, 96
1, 20286, Control_c, 0, 64, 119
1, 20303, Note_off_c, 0, 64, 62
1, 20304, Control_c, 0, 64, 127
1, 20338, Note_off_c, 0, 59, 50
1, 20375, Note_off_c, 0, 56, 57
1, 20385, Note_off_c, 0, 71, 49
1, 20422, Note_off_c, 0, 76, 64
1, 20430, Note_off_c, 0, 83, 58
1, 20746, Note_on_c, 0, 35, 60
1, 20749, Note_on_c, 0, 47, 64
1, 20766, Control_c, 0, 64, 95
1, 20773, Note_on_c, 0, 83, 88
1, 20784, Control_c, 0, 64, 26
1, 20786, Note_on_c, 0, 80, 75
1, 20787, Note_on_c, 0, 71, 78
1, 20802, Control_c, 0, 64, 0
1, 20821, Control_c, 0, 64, 14
1, 20830, Note_off_c, 0, 35, 61
1, 20840, Control_c, 0, 64, 70
1, 20858, Control_c, 0, 64, 94
1, 20877, Control_c, 0, 64, 127
1, 20885, Note_off_c, 0, 47, 63
1, 20887, Note_off_c, 0, 71, 58
1, 20914, Note_off_c, 0, 83, 64
1, 20940, Note_off_c, 0, 80, 61
1, 21040, Note_on_c, 0, 81, 71
1, 21040, Note_on_c, 0, 85, 85
1, 21043, Note_on_c, 0, 73, 84
1, 21138, Note_off_c, 0, 81, 62
1, 21139, Note_on_c, 0, 59, 39
1, 21146, Note_off_c, 0, 73, 60
1, 21149, Note_on_c, 0, 57, 54
1, 21169, Note_off_c, 0, 85, 64
1, 21178, Poly_aftertouch_c, 0, 82, 0
1, 21240, Note_on_c, 0, 66, 75
1, 21262, Note_on_c, 0, 74, 88
1, 21263, Note_on_c, 0, 86, 87
1, 21269, Note_on_c, 0, 83, 77
1, 21319, Control_c, 0, 64, 90
1, 21336, Control_c, 0, 64, 47
1, 21357, Control_c, 0, 64, 0
1, 21374, Control_c, 0, 64, 13
1, 21394, Control_c, 0, 64, 53
1, 21412, Control_c, 0, 64, 75
1, 21429, Control_c, 0, 64, 104
1, 21437, Note_off_c, 0, 57, 63
1, 21447, Control_c, 0, 64, 127
1, 21492, Note_off_c, 0, 66, 62
1, 21523, Note_off_c, 0, 86, 65
1, 21557, Note_off_c, 0, 74, 59
1, 21568, Note_off_c, 0, 83, 63
1, 21645, Note_on_c, 0, 65, 76
1, 21654, Note_on_c, 0, 56, 70
1, 21706, Note_off_c, 0, 65, 64
1, 21722, Note_off_c, 0, 59, 53
1, 21738, Note_off_c, 0, 56, 64
1, 21819, Note_on_c, 0, 85, 92
1, 21827, Note_on_c, 0, 73, 85
1, 21827, Note_on_c, 0, 80, 80
1, 21931, Note_off_c, 0, 73, 57
1, 21936, Note_off_c, 0, 80, 62
1, 21950, Note_off_c, 0, 85, 62
1, 22051, Note_on_c, 0, 45, 69
1, 22054, Note_on_c, 0, 33, 63
1, 22067, Note_on_c, 0, 85, 89
1, 22068, Note_on_c, 0, 73, 84
1, 22070, Note_on_c, 0, 78, 80
1, 22088, Control_c, 0, 64, 115
1, 22108, Control_c, 0, 64, 62
1, 22125, Control_c, 0, 64, 0
1, 22126, Note_off_c, 0, 33, 62
1, 22181, Control_c, 0, 64, 66
1, 22185, Note_off_c, 0, 45, 63
1, 22199, Control_c, 0, 64, 102
1, 22215, Control_c, 0, 64, 127
1, 22317, Note_off_c, 0, 73, 57
1, 22334, Note_off_c, 0, 85, 55
1, 22496, Note_on_c, 0, 68, 73
1, 22505, Note_on_c, 0, 61, 63
1, 22521, Note_on_c, 0, 57, 58
1, 22534, Note_off_c, 0, 78, 50
1, 22705, Note_on_c, 0, 86, 90
1, 22711, Note_on_c, 0, 83, 81
1, 22712, Note_on_c, 0, 74, 84
1, 22784, Note_off_c, 0, 68, 63
1, 22799, Note_off_c, 0, 83, 59
1, 22812, Note_off_c, 0, 74, 62
1, 22868, Note_off_c, 0, 86, 62
1, 23002, Note_on_c, 0, 85, 89
1, 23005, Note_on_c, 0, 81, 80
1, 23008, Note_on_c, 0, 66, 72
1, 23011, Note_on_c, 0, 73, 81
1, 23024, Control_c, 0, 64, 122
1, 23042, Control_c, 0, 64, 91
1, 23060, Control_c, 0, 64, 64
1, 23077, Control_c, 0, 64, 53
1, 23096, Control_c, 0, 64, 62
1, 23115, Control_c, 0, 64, 77
1, 23134, Control_c, 0, 64, 107
1, 23151, Control_c, 0, 64, 127
1, 23170, Note_off_c, 0, 66, 65
1, 23212, Note_off_c, 0, 61, 62
1, 23230, Note_off_c, 0, 57, 64
1, 23280, Note_off_c, 0, 73, 61
1, 23305, Note_off_c, 0, 85, 59
1, 23312, Note_off_c, 0, 81, 60
1, 23548, Note_on_c, 0, 30, 47
1, 23548, Note_on_c, 0, 42, 62
1, 23590, Note_on_c, 0, 85, 91
1, 23591, Note_on_c, 0, 73, 88
1, 23595, Note_on_c, 0, 81, 80
1, 23630, Control_c, 0, 64, 106
1, 23648, Control_c, 0, 64, 66
1, 23667, Control_c, 0, 64, 0
1, 23705, Control_c, 0, 64, 30
1, 23723, Control_c, 0, 64, 60
1, 23742, Control_c, 0, 64, 79
1, 23744, Note_off_c, 0, 30, 57
1, 23758, Control_c, 0, 64, 106
1, 23777, Control_c, 0, 64, 127
1, 23783, Note_off_c, 0, 42, 63
1, 23853, Note_off_c, 0, 73, 57
1, 23990, Note_on_c, 0, 75, 88
1, 23990, Note_on_c, 0, 87, 93
1, 24039, Note_off_c, 0, 85, 60
1, 24100, Note_on_c, 0, 57, 47
1, 24156, Note_off_c, 0, 75, 64
1, 24164, Note_off_c, 0, 81, 54
1, 24174, Note_off_c, 0, 87, 63
1, 24178, Note_on_c, 0, 61, 57
1, 24246, Note_on_c, 0, 68, 57
1, 24297, Note_on_c, 0, 85, 70
1, 24302, Note_on_c, 0, 76, 69
1, 24302, Note_on_c, 0, 88, 77
1, 24363, Control_c, 0, 64, 119
1, 24381, Control_c, 0, 64, 112
1, 24400, Control_c, 0, 64, 105
1, 24419, Control_c, 0, 64, 99
1, 24437, Control_c, 0, 64, 94
1, 24455, Control_c, 0, 64, 88
1, 24473, Control_c, 0, 64, 82
1, 24491, Control_c, 0, 64, 74
1, 24510, Control_c, 0, 64, 63
1, 24530, Control_c, 0, 64, 48
1, 24545, Control_c, 0, 64, 28
1, 24564, Control_c, 0, 64, 0
1, 24639, Control_c, 0, 64, 28
1, 24658, Control_c, 0, 64, 45
1, 24676, Control_c, 0, 64, 58
1, 24695, Control_c, 0, 64, 66
1, 24712, Control_c, 0, 64, 73
1, 24731, Control_c, 0, 64, 82
1, 24749, Control_c, 0, 64, 93
1, 24781, Control_c, 0, 64, 104
1, 24783, Control_c, 0, 67, 8
1, 24785, Note_off_c, 0, 68, 58
1, 24800, Control_c, 0, 64, 115
1, 24818, Control_c, 0, 64, 122
1, 24819, Control_c, 0, 67, 12
1, 24854, Control_c, 0, 64, 127
1, 24855, Control_c, 0, 67, 19
1, 24890, Control_c, 0, 67, 23
1, 24929, Control_c, 0, 67, 28
1, 24948, Control_c, 0, 67, 33
1, 24965, Control_c, 0, 67, 39
1, 24969, Note_off_c, 0, 88, 60
1, 24983, Control_c, 0, 67, 44
1, 25013, Note_off_c, 0, 76, 56
1, 25020, Control_c, 0, 67, 49
1, 25026, Poly_aftertouch_c, 0, 81, 127
1, 25093, Note_on_c, 0, 66, 38
1, 25093, Control_c, 0, 67, 53
1, 25135, Poly_aftertouch_c, 0, 81, 0
1, 25183, Note_off_c, 0, 57, 59
1, 25205, Control_c, 0, 67, 58
1, 25226, Note_off_c, 0, 66, 59
1, 25241, Control_c, 0, 67, 64
1, 25278, Control_c, 0, 67, 69
1, 25284, Note_off_c, 0, 61, 50
1, 25315, Control_c, 0, 67, 74
1, 25455, Note_on_c, 0, 75, 56
1, 25456, Note_on_c, 0, 87, 63
1, 25498, Control_c, 0, 67, 78
1, 25555, Control_c, 0, 67, 84
1, 25593, Control_c, 0, 67, 90
1, 25629, Control_c, 0, 67, 96
1, 25650, Note_off_c, 0, 87, 54
1, 25653, Note_off_c, 0, 75, 57
1, 25665, Control_c, 0, 67, 103
1, 25735, Control_c, 0, 67, 107
1, 25773, Note_on_c, 0, 35, 42
1, 25790, Note_on_c, 0, 47, 32
1, 25810, Control_c, 0, 67, 113
1, 25832, Note_on_c, 0, 87, 55
1, 25841, Note_off_c, 0, 85, 61
1, 25850, Note_on_c, 0, 81, 51
1, 25851, Control_c, 0, 64, 114
1, 25852, Control_c, 0, 67, 118
1, 25855, Note_on_c, 0, 75, 37
1, 25868, Control_c, 0, 64, 94
1, 25886, Control_c, 0, 64, 68
1, 25905, Control_c, 0, 64, 16
1, 25906, Control_c, 0, 67, 124
1, 25925, Control_c, 0, 64, 0
1, 25958, Control_c, 0, 64, 17
1, 25979, Control_c, 0, 64, 48
1, 25981, Note_off_c, 0, 35, 53
1, 25997, Control_c, 0, 64, 65
1, 26014, Control_c, 0, 64, 77
1, 26032, Control_c, 0, 64, 92
1, 26050, Control_c, 0, 64, 107
1, 26064, Note_off_c, 0, 47, 50
1, 26068, Control_c, 0, 64, 116
1, 26140, Note_off_c, 0, 87, 58
1, 26180, Control_c, 0, 64, 120
1, 26236, Note_off_c, 0, 75, 61
1, 26456, Control_c, 0, 64, 114
1, 26463, Note_on_c, 0, 85, 56
1, 26474, Note_on_c, 0, 66, 43
1, 26475, Control_c, 0, 64, 106
1, 26479, Note_on_c, 0, 73, 44
1, 26489, Note_on_c, 0, 59, 29
1, 26493, Control_c, 0, 64, 97
1, 26509, Note_on_c, 0, 57, 20
1, 26512, Control_c, 0, 64, 92
1, 26547, Control_c, 0, 64, 96
1, 26555, Note_off_c, 0, 81, 55
1, 26585, Control_c, 0, 64, 102
1, 26654, Note_off_c, 0, 85, 61
1, 26720, Note_off_c, 0, 73, 63
1, 27114, Control_c, 0, 64, 98
1, 27217, Note_on_c, 0, 63, 35
1, 27222, Note_on_c, 0, 83, 43
1, 27230, Note_on_c, 0, 78, 41
1, 27241, Note_on_c, 0, 71, 35
1, 27261, Control_c, 0, 64, 93
1, 27281, Control_c, 0, 64, 89
1, 27299, Control_c, 0, 64, 80
1, 27318, Control_c, 0, 64, 65
1, 27335, Control_c, 0, 64, 44
1, 27354, Control_c, 0, 64, 32
1, 27391, Control_c, 0, 64, 38
1, 27409, Control_c, 0, 64, 46
1, 27429, Control_c, 0, 64, 57
1, 27448, Control_c, 0, 64, 65
1, 27466, Control_c, 0, 64, 70
1, 27483, Control_c, 0, 64, 76
1, 27489, Note_off_c, 0, 66, 50
1, 27501, Control_c, 0, 64, 83
1, 27521, Control_c, 0, 64, 89
1, 27538, Control_c, 0, 64, 95
1, 27572, Control_c, 0, 64, 100
1, 27576, Poly_aftertouch_c, 0, 59, 24
1, 27590, Control_c, 0, 64, 107
1, 27608, Control_c, 0, 64, 114
1, 27623, Note_off_c, 0, 63, 54
1, 27626, Control_c, 0, 64, 121
1, 27638, Note_off_c, 0, 59, 36
1, 27644, Control_c, 0, 64, 125
1, 27711, Note_off_c, 0, 57, 38
1, 27830, Note_off_c, 0, 71, 36
1, 27863, Note_off_c, 0, 83, 30
1, 27991, Note_off_c, 0, 78, 41
1, 28473, Control_c, 0, 64, 121
1, 28524, Control_c, 0, 64, 114
1, 28541, Control_c, 0, 64, 110
1, 28544, Note_on_c, 0, 83, 47
1, 28557, Note_on_c, 0, 40, 29
1, 28560, Note_on_c, 0, 28, 25
1, 28560, Control_c, 0, 64, 105
1, 28566, Note_on_c, 0, 71, 33
1, 28570, Note_on_c, 0, 80, 42
1, 28578, Control_c, 0, 64, 94
1, 28600, Control_c, 0, 64, 76
1, 28618, Control_c, 0, 64, 50
1, 28636, Control_c, 0, 64, 0
1, 28672, Control_c, 0, 64, 9
1, 28691, Control_c, 0, 64, 32
1, 28709, Control_c, 0, 64, 51
1, 28722, Note_off_c, 0, 28, 36
1, 28727, Control_c, 0, 64, 64
1, 28745, Control_c, 0, 64, 73
1, 28764, Control_c, 0, 64, 83
1, 28782, Control_c, 0, 64, 94
1, 28800, Control_c, 0, 64, 101
1, 28823, Note_off_c, 0, 40, 38
1, 28836, Control_c, 0, 64, 106
1, 28874, Control_c, 0, 64, 116
1, 28893, Control_c, 0, 64, 122
1, 28954, Note_off_c, 0, 71, 41
1, 29033, Note_off_c, 0, 83, 61
1, 29130, Note_off_c, 0, 80, 41
1, 29287, Note_on_c, 0, 61, 38
1, 29290, Note_on_c, 0, 69, 38
1, 29341, Note_off_c, 0, 61, 52
1, 29363, Note_off_c, 0, 69, 57
1, 29365, Poly_aftertouch_c, 0, 64, 127
1, 29417, Poly_aftertouch_c, 0, 64, 0
1, 29499, Note_on_c, 0, 85, 53
1, 29507, Note_on_c, 0, 81, 40
1, 29529, Note_on_c, 0, 73, 31
1, 29570, Note_off_c, 0, 73, 54
1, 29582, Note_off_c, 0, 85, 62
1, 29595, Note_off_c, 0, 81, 55
1, 29693, Note_on_c, 0, 63, 44
1, 29704, Note_on_c, 0, 59, 48
1, 29719, Note_on_c, 0, 83, 62
1, 29727, Note_on_c, 0, 68, 35
1, 29737, Note_on_c, 0, 71, 49
1, 29746, Note_off_c, 0, 63, 62
1, 29759, Note_on_c, 0, 80, 30
1, 29768, Note_off_c, 0, 68, 47
1, 29768, Note_off_c, 0, 59, 64
1, 29799, Note_off_c, 0, 83, 61
1, 29804, Note_off_c, 0, 80, 52
1, 29834, Note_off_c, 0, 71, 50
1, 30013, Control_c, 0, 64, 117
1, 30031, Control_c, 0, 64, 113
1, 30050, Control_c, 0, 64, 101
1, 30068, Control_c, 0, 64, 80
1, 30087, Control_c, 0, 64, 53
1, 30104, Note_on_c, 0, 40, 39
1, 30106, Control_c, 0, 64, 15
1, 30111, Note_on_c, 0, 81, 57
1, 30125, Note_on_c, 0, 69, 43
1, 30130, Note_on_c, 0, 78, 44
1, 30142, Control_c, 0, 64, 35
1, 30160, Control_c, 0, 64, 54
1, 30170, Note_off_c, 0, 40, 61
1, 30178, Control_c, 0, 64, 66
1, 30184, Note_off_c, 0, 69, 64
1, 30198, Control_c, 0, 64, 73
1, 30215, Control_c, 0, 64, 82
1, 30228, Note_off_c, 0, 81, 59
1, 30233, Control_c, 0, 64, 90
1, 30252, Control_c, 0, 64, 96
1, 30293, Note_off_c, 0, 78, 38
1, 30297, Note_on_c, 0, 80, 64
1, 30301, Note_on_c, 0, 76, 57
1, 30314, Note_on_c, 0, 68, 51
1, 30360, Note_off_c, 0, 68, 48
1, 30380, Note_off_c, 0, 76, 51
1, 30478, Note_off_c, 0, 80, 36
1, 30524, Control_c, 0, 64, 84
1, 30535, Note_on_c, 0, 81, 54
1, 30535, Note_on_c, 0, 57, 30
1, 30539, Note_on_c, 0, 61, 27
1, 30543, Control_c, 0, 64, 70
1, 30547, Note_on_c, 0, 69, 39
1, 30549, Note_on_c, 0, 66, 14
1, 30552, Note_on_c, 0, 78, 36
1, 30562, Control_c, 0, 64, 54
1, 30581, Control_c, 0, 64, 40
1, 30636, Control_c, 0, 64, 45
1, 30655, Control_c, 0, 64, 52
1, 30672, Control_c, 0, 64, 60
1, 30675, Note_off_c, 0, 57, 49
1, 30690, Control_c, 0, 64, 67
1, 30705, Note_off_c, 0, 61, 40
1, 30709, Control_c, 0, 64, 72
1, 30721, Note_off_c, 0, 66, 46
1, 30726, Control_c, 0, 64, 77
1, 30746, Control_c, 0, 64, 83
1, 30764, Control_c, 0, 64, 89
1, 30771, Note_off_c, 0, 69, 45
1, 30783, Control_c, 0, 64, 96
1, 30792, Note_off_c, 0, 81, 62
1, 30801, Control_c, 0, 64, 100
1, 30849, Note_off_c, 0, 78, 49
1, 30856, Control_c, 0, 64, 105
1, 30893, Control_c, 0, 64, 109
1, 30974, Note_on_c, 0, 56, 44
1, 30977, Note_on_c, 0, 64, 41
1, 30985, Note_on_c, 0, 59, 30
1, 31030, Note_off_c, 0, 64, 61
1, 31045, Note_off_c, 0, 56, 59
1, 31051, Note_off_c, 0, 59, 57
1, 31139, Note_on_c, 0, 80, 57
1, 31142, Note_on_c, 0, 76, 50
1, 31148, Note_on_c, 0, 68, 43
1, 31203, Note_off_c, 0, 76, 63
1, 31222, Note_off_c, 0, 68, 44
1, 31230, Note_off_c, 0, 80, 59
1, 31334, Control_c, 0, 64, 101
1, 31351, Control_c, 0, 64, 86
1, 31372, Control_c, 0, 64, 67
1, 31378, Note_on_c, 0, 66, 55
1, 31384, Note_on_c, 0, 40, 39
1, 31384, Note_on_c, 0, 78, 55
1, 31390, Control_c, 0, 64, 53
1, 31397, Note_on_c, 0, 75, 43
1, 31403, Control_c, 0, 64, 55
1, 31417, Note_off_c, 0, 66, 50
1, 31424, Control_c, 0, 64, 63
1, 31442, Control_c, 0, 64, 71
1, 31449, Note_off_c, 0, 40, 61
1, 31462, Control_c, 0, 64, 82
1, 31481, Control_c, 0, 64, 94
1, 31499, Control_c, 0, 64, 104
1, 31508, Note_off_c, 0, 78, 57
1, 31516, Control_c, 0, 64, 110
1, 31519, Note_off_c, 0, 75, 56
1, 31563, Note_on_c, 0, 80, 72
1, 31576, Note_on_c, 0, 76, 54
1, 31600, Note_on_c, 0, 68, 35
1, 31635, Note_off_c, 0, 68, 54
1, 31660, Note_off_c, 0, 80, 56
1, 31667, Note_off_c, 0, 76, 62
1, 31737, Control_c, 0, 64, 105
1, 31755, Note_on_c, 0, 57, 40
1, 31756, Control_c, 0, 64, 100
1, 31776, Control_c, 0, 64, 89
1, 31781, Note_on_c, 0, 78, 57
1, 31788, Note_on_c, 0, 54, 43
1, 31790, Note_on_c, 0, 75, 54
1, 31793, Control_c, 0, 64, 70
1, 31795, Note_on_c, 0, 63, 38
1, 31804, Note_on_c, 0, 66, 36
1, 31811, Control_c, 0, 64, 44
1, 31830, Control_c, 0, 64, 0
1, 31885, Control_c, 0, 64, 25
1, 31903, Control_c, 0, 64, 46
1, 31922, Control_c, 0, 64, 60
1, 31925, Note_off_c, 0, 63, 60
1, 31941, Control_c, 0, 64, 68
1, 31959, Control_c, 0, 64, 73
1, 31969, Note_off_c, 0, 75, 64
1, 31972, Note_off_c, 0, 54, 44
1, 31977, Control_c, 0, 64, 78
1, 31997, Control_c, 0, 64, 83
1, 32001, Note_off_c, 0, 78, 61
1, 32005, Note_off_c, 0, 57, 54
1, 32012, Control_c, 0, 64, 89
1, 32032, Control_c, 0, 64, 97
1, 32051, Control_c, 0, 64, 104
1, 32069, Control_c, 0, 64, 108
1, 32078, Note_off_c, 0, 66, 52
1, 32143, Control_c, 0, 64, 112
1, 32221, Note_on_c, 0, 56, 43
1, 32237, Note_on_c, 0, 61, 45
1, 32240, Note_on_c, 0, 52, 42
1, 32308, Note_off_c, 0, 61, 59
1, 32315, Note_off_c, 0, 56, 56
1, 32354, Note_off_c, 0, 52, 60
1, 32416, Note_on_c, 0, 76, 63
1, 32423, Note_on_c, 0, 64, 51
1, 32437, Note_on_c, 0, 73, 50
1, 32475, Note_off_c, 0, 64, 59
1, 32548, Note_off_c, 0, 76, 61
1, 32580, Note_off_c, 0, 73, 62
1, 32598, Control_c, 0, 64, 103
1, 32617, Control_c, 0, 64, 86
1, 32637, Control_c, 0, 64, 64
1, 32650, Note_on_c, 0, 40, 43
1, 32653, Control_c, 0, 64, 44
1, 32665, Note_on_c, 0, 75, 65
1, 32674, Note_on_c, 0, 63, 51
1, 32682, Note_on_c, 0, 71, 55
1, 32691, Control_c, 0, 64, 49
1, 32711, Control_c, 0, 64, 59
1, 32727, Control_c, 0, 64, 67
1, 32743, Note_off_c, 0, 40, 60
1, 32744, Control_c, 0, 64, 76
1, 32764, Control_c, 0, 64, 86
1, 32781, Note_off_c, 0, 63, 59
1, 32783, Control_c, 0, 64, 97
1, 32801, Control_c, 0, 64, 104
1, 32815, Note_off_c, 0, 75, 58
1, 32838, Control_c, 0, 64, 108
1, 32841, Note_off_c, 0, 71, 37
1, 32868, Note_on_c, 0, 76, 72
1, 32876, Note_on_c, 0, 73, 63
1, 32876, Note_on_c, 0, 64, 62
1, 32918, Note_off_c, 0, 64, 65
1, 32947, Note_off_c, 0, 76, 62
1, 32966, Note_off_c, 0, 73, 50
1, 33078, Control_c, 0, 64, 104
1, 33080, Note_on_c, 0, 54, 37
1, 33089, Note_on_c, 0, 49, 39
1, 33096, Control_c, 0, 64, 100
1, 33097, Note_on_c, 0, 58, 30
1, 33115, Control_c, 0, 64, 87
1, 33129, Note_on_c, 0, 73, 60
1, 33133, Control_c, 0, 64, 66
1, 33149, Note_on_c, 0, 70, 55
1, 33153, Control_c, 0, 64, 33
1, 33156, Note_on_c, 0, 61, 39
1, 33170, Control_c, 0, 64, 0
1, 33221, Control_c, 0, 64, 18
1, 33240, Note_off_c, 0, 58, 59
1, 33240, Control_c, 0, 64, 40
1, 33258, Control_c, 0, 64, 58
1, 33275, Control_c, 0, 64, 69
1, 33294, Control_c, 0, 64, 78
1, 33295, Note_off_c, 0, 54, 56
1, 33313, Control_c, 0, 64, 86
1, 33331, Control_c, 0, 64, 93
1, 33350, Control_c, 0, 64, 98
1, 33357, Note_off_c, 0, 61, 36
1, 33369, Control_c, 0, 64, 102
1, 33388, Control_c, 0, 64, 106
1, 33401, Note_off_c, 0, 49, 40
1, 33406, Control_c, 0, 64, 111
1, 33424, Control_c, 0, 64, 117
1, 33442, Control_c, 0, 64, 123
1, 33479, Control_c, 0, 64, 127
1, 33484, Note_off_c, 0, 70, 50
1, 33503, Note_off_c, 0, 73, 49
1, 33706, Note_on_c, 0, 40, 36
1, 33911, Note_on_c, 0, 78, 70
1, 33932, Note_on_c, 0, 66, 52
1, 34038, Note_off_c, 0, 78, 59
1, 34043, Note_off_c, 0, 66, 61
1, 34137, Control_c, 0, 64, 118
1, 34156, Control_c, 0, 64, 92
1, 34175, Control_c, 0, 64, 63
1, 34177, Note_on_c, 0, 28, 46
1, 34193, Control_c, 0, 64, 42
1, 34197, Note_on_c, 0, 75, 70
1, 34201, Note_on_c, 0, 71, 57
1, 34212, Control_c, 0, 64, 44
1, 34221, Note_on_c, 0, 63, 51
1, 34231, Control_c, 0, 64, 53
1, 34249, Control_c, 0, 64, 64
1, 34263, Note_off_c, 0, 28, 62
1, 34267, Control_c, 0, 64, 73
1, 34287, Control_c, 0, 64, 83
1, 34306, Control_c, 0, 64, 96
1, 34324, Control_c, 0, 64, 110
1, 34337, Note_off_c, 0, 63, 61
1, 34337, Note_off_c, 0, 40, 49
1, 34341, Control_c, 0, 64, 122
1, 34359, Control_c, 0, 64, 127
1, 34361, Note_off_c, 0, 71, 56
1, 34361, Note_off_c, 0, 75, 62
1, 34422, Note_on_c, 0, 76, 76
1, 34435, Note_on_c, 0, 73, 58
1, 34436, Note_on_c, 0, 64, 59
1, 34491, Note_off_c, 0, 64, 61
1, 34505, Note_off_c, 0, 76, 63
1, 34540, Note_off_c, 0, 73, 50
1, 34618, Control_c, 0, 64, 123
1, 34635, Control_c, 0, 64, 105
1, 34636, Note_on_c, 0, 58, 48
1, 34644, Note_on_c, 0, 54, 50
1, 34655, Control_c, 0, 64, 81
1, 34663, Note_on_c, 0, 73, 76
1, 34667, Note_on_c, 0, 49, 50
1, 34669, Note_on_c, 0, 70, 61
1, 34673, Control_c, 0, 64, 64
1, 34676, Note_on_c, 0, 61, 59
1, 34691, Control_c, 0, 64, 62
1, 34709, Control_c, 0, 64, 68
1, 34715, Note_off_c, 0, 58, 63
1, 34730, Control_c, 0, 64, 78
1, 34732, Note_off_c, 0, 54, 63
1, 34747, Control_c, 0, 64, 91
1, 34765, Control_c, 0, 64, 105
1, 34768, Note_off_c, 0, 49, 62
1, 34769, Note_off_c, 0, 61, 45
1, 34784, Control_c, 0, 64, 114
1, 34786, Control_c, 0, 67, 115
1, 34803, Control_c, 0, 67, 98
1, 34820, Control_c, 0, 67, 76
1, 34839, Control_c, 0, 64, 118
1, 34840, Control_c, 0, 67, 54
1, 34858, Control_c, 0, 67, 36
1, 34873, Note_off_c, 0, 70, 57
1, 34875, Control_c, 0, 67, 21
1, 34895, Control_c, 0, 67, 9
1, 34910, Note_off_c, 0, 73, 62
1, 34985, Control_c, 0, 64, 113
1, 35005, Control_c, 0, 64, 100
1, 35025, Control_c, 0, 64, 88
1, 35042, Control_c, 0, 64, 84
1, 35044, Note_on_c, 0, 40, 62
1, 35045, Note_on_c, 0, 28, 54
1, 35074, Control_c, 0, 64, 88
1, 35093, Control_c, 0, 64, 94
1, 35111, Control_c, 0, 64, 102
1, 35131, Control_c, 0, 64, 108
1, 35166, Control_c, 0, 64, 112
1, 35174, Note_off_c, 0, 40, 61
1, 35240, Control_c, 0, 64, 117
1, 35247, Note_on_c, 0, 78, 78
1, 35251, Note_on_c, 0, 66, 72
1, 35296, Control_c, 0, 64, 121
1, 35314, Note_off_c, 0, 66, 48
1, 35314, Control_c, 0, 64, 126
1, 35354, Note_off_c, 0, 78, 59
1, 35387, Note_on_c, 0, 27, 56
1, 35423, Control_c, 0, 64, 120
1, 35432, Note_off_c, 0, 28, 33
1, 35441, Control_c, 0, 64, 97
1, 35448, Note_on_c, 0, 39, 61
1, 35462, Control_c, 0, 64, 71
1, 35475, Note_on_c, 0, 78, 76
1, 35479, Control_c, 0, 64, 53
1, 35484, Note_on_c, 0, 71, 61
1, 35493, Note_on_c, 0, 66, 56
1, 35497, Control_c, 0, 64, 56
1, 35518, Control_c, 0, 64, 66
1, 35530, Note_off_c, 0, 27, 61
1, 35532, Control_c, 0, 64, 81
1, 35553, Control_c, 0, 64, 105
1, 35558, Note_off_c, 0, 66, 57
1, 35571, Control_c, 0, 64, 127
1, 35575, Note_off_c, 0, 39, 60
1, 35586, Note_off_c, 0, 78, 61
1, 35624, Note_off_c, 0, 71, 61
1, 35666, Note_on_c, 0, 75, 80
1, 35692, Note_on_c, 0, 63, 69
1, 35742, Note_off_c, 0, 63, 54
1, 35742, Note_off_c, 0, 75, 61
1, 35896, Note_on_c, 0, 54, 56
1, 35900, Note_on_c, 0, 51, 66
1, 35920, Control_c, 0, 64, 118
1, 35921, Note_on_c, 0, 71, 78
1, 35931, Note_on_c, 0, 66, 71
1, 35936, Note_on_c, 0, 59, 70
1, 35939, Control_c, 0, 64, 103
1, 35943, Note_off_c, 0, 54, 65
1, 35971, Note_off_c, 0, 51, 61
1, 36008, Control_c, 0, 64, 113
1, 36028, Control_c, 0, 64, 123
1, 36047, Control_c, 0, 64, 127
1, 36177, Note_off_c, 0, 59, 45
1, 36260, Note_off_c, 0, 66, 48
1, 36285, Control_c, 0, 64, 121
1, 36305, Control_c, 0, 64, 106
1, 36321, Control_c, 0, 64, 84
1, 36337, Note_off_c, 0, 71, 60
1, 36339, Control_c, 0, 64, 62
1, 36357, Control_c, 0, 64, 52
1, 36359, Note_on_c, 0, 38, 64
1, 36363, Note_on_c, 0, 26, 57
1, 36377, Control_c, 0, 64, 62
1, 36396, Control_c, 0, 64, 80
1, 36415, Control_c, 0, 64, 114
1, 36432, Control_c, 0, 64, 127
1, 36536, Note_off_c, 0, 38, 60
1, 36613, Note_on_c, 0, 83, 86
1, 36619, Note_on_c, 0, 78, 72
1, 36626, Note_on_c, 0, 71, 64
1, 36741, Note_off_c, 0, 26, 40
1, 36753, Note_off_c, 0, 71, 39
1, 36831, Note_off_c, 0, 83, 60
1, 36844, Note_on_c, 0, 25, 59
1, 36857, Note_on_c, 0, 37, 60
1, 36875, Control_c, 0, 64, 100
1, 36894, Control_c, 0, 64, 52
1, 36901, Note_off_c, 0, 78, 59
1, 36912, Control_c, 0, 64, 0
1, 36962, Control_c, 0, 64, 29
1, 36962, Note_on_c, 0, 83, 81
1, 36970, Note_on_c, 0, 71, 73
1, 36975, Note_on_c, 0, 80, 64
1, 36979, Note_off_c, 0, 25, 61
1, 36980, Control_c, 0, 64, 67
1, 37001, Control_c, 0, 64, 102
1, 37017, Control_c, 0, 64, 127
1, 37027, Note_off_c, 0, 37, 62
1, 37039, Note_off_c, 0, 71, 57
1, 37070, Note_off_c, 0, 83, 63
1, 37097, Note_off_c, 0, 80, 59
1, 37212, Note_on_c, 0, 85, 80
1, 37225, Note_on_c, 0, 81, 56
1, 37228, Note_on_c, 0, 73, 65
1, 37304, Note_off_c, 0, 73, 62
1, 37318, Note_off_c, 0, 85, 64
1, 37329, Note_off_c, 0, 81, 59
1, 37410, Note_on_c, 0, 68, 46
1, 37413, Note_on_c, 0, 62, 45
1, 37425, Note_on_c, 0, 59, 46
1, 37459, Note_on_c, 0, 80, 62
1, 37461, Note_on_c, 0, 83, 72
1, 37469, Note_on_c, 0, 71, 61
1, 37497, Control_c, 0, 64, 94
1, 37515, Control_c, 0, 64, 55
1, 37535, Control_c, 0, 64, 0
1, 37570, Control_c, 0, 64, 21
1, 37581, Note_off_c, 0, 68, 60
1, 37587, Control_c, 0, 64, 55
1, 37609, Control_c, 0, 64, 72
1, 37627, Control_c, 0, 64, 91
1, 37644, Control_c, 0, 64, 117
1, 37663, Control_c, 0, 64, 127
1, 37666, Note_off_c, 0, 59, 57
1, 37685, Note_off_c, 0, 83, 59
1, 37724, Note_off_c, 0, 80, 57
1, 37734, Note_off_c, 0, 71, 62
1, 37746, Note_off_c, 0, 62, 43
1, 37838, Note_on_c, 0, 66, 56
1, 37841, Note_on_c, 0, 61, 56
1, 37849, Note_on_c, 0, 57, 52
1, 37893, Note_off_c, 0, 66, 66
1, 37913, Note_off_c, 0, 61, 61
1, 37934, Note_off_c, 0, 57, 63
1, 38023, Note_on_c, 0, 81, 78
1, 38035, Note_on_c, 0, 69, 66
1, 38037, Note_on_c, 0, 78, 65
1, 38074, Note_off_c, 0, 69, 63
1, 38123, Note_off_c, 0, 81, 62
1, 38157, Note_off_c, 0, 78, 61
1, 38192, Control_c, 0, 64, 89
1, 38211, Control_c, 0, 64, 57
1, 38214, Note_on_c, 0, 37, 58
1, 38226, Note_on_c, 0, 80, 79
1, 38229, Control_c, 0, 64, 50
1, 38234, Note_on_c, 0, 77, 68
1, 38246, Note_on_c, 0, 68, 62
1, 38248, Control_c, 0, 64, 64
1, 38268, Control_c, 0, 64, 87
1, 38276, Note_off_c, 0, 37, 62
1, 38287, Control_c, 0, 64, 127
1, 38316, Note_off_c, 0, 68, 60
1, 38322, Note_off_c, 0, 77, 63
1, 38337, Note_off_c, 0, 80, 63
1, 38420, Note_on_c, 0, 75, 70
1, 38421, Note_on_c, 0, 78, 76
1, 38430, Note_on_c, 0, 66, 60
1, 38457, Note_off_c, 0, 66, 64
1, 38496, Note_off_c, 0, 75, 53
1, 38539, Note_off_c, 0, 78, 59
1, 38636, Control_c, 0, 64, 100
1, 38636, Note_on_c, 0, 59, 47
1, 38636, Note_on_c, 0, 65, 46
1, 38639, Note_on_c, 0, 80, 69
1, 38642, Note_on_c, 0, 77, 58
1, 38643, Note_on_c, 0, 56, 49
1, 38655, Control_c, 0, 64, 60
1, 38660, Note_on_c, 0, 68, 50
1, 38674, Control_c, 0, 64, 0
1, 38704, Note_off_c, 0, 65, 59
1, 38710, Control_c, 0, 64, 23
1, 38722, Note_off_c, 0, 59, 59
1, 38728, Control_c, 0, 64, 58
1, 38747, Control_c, 0, 64, 75
1, 38767, Control_c, 0, 64, 97
1, 38769, Note_off_c, 0, 56, 63
1, 38785, Control_c, 0, 64, 122
1, 38818, Control_c, 0, 64, 127
1, 38852, Note_off_c, 0, 77, 63
1, 38870, Note_off_c, 0, 80, 63
1, 38936, Note_off_c, 0, 68, 55
1, 39052, Note_on_c, 0, 62, 48
1, 39062, Note_on_c, 0, 57, 45
1, 39069, Note_on_c, 0, 54, 48
1, 39111, Note_off_c, 0, 62, 64
1, 39120, Note_off_c, 0, 57, 60
1, 39140, Note_off_c, 0, 54, 61
1, 39223, Note_on_c, 0, 78, 73
1, 39231, Note_on_c, 0, 74, 65
1, 39239, Note_on_c, 0, 66, 55
1, 39325, Note_off_c, 0, 66, 56
1, 39361, Note_off_c, 0, 78, 62
1, 39389, Control_c, 0, 64, 101
1, 39406, Control_c, 0, 64, 72
1, 39422, Note_off_c, 0, 74, 46
1, 39425, Control_c, 0, 64, 57
1, 39428, Note_on_c, 0, 37, 52
1, 39438, Note_on_c, 0, 77, 75
1, 39443, Control_c, 0, 64, 60
1, 39451, Note_on_c, 0, 65, 65
1, 39461, Note_on_c, 0, 73, 65
1, 39462, Control_c, 0, 64, 67
1, 39481, Control_c, 0, 64, 81
1, 39488, Note_off_c, 0, 37, 61
1, 39500, Control_c, 0, 64, 103
1, 39508, Note_off_c, 0, 65, 58
1, 39516, Control_c, 0, 64, 127
1, 39529, Note_off_c, 0, 77, 62
1, 39614, Note_off_c, 0, 73, 53
1, 39633, Note_on_c, 0, 74, 62
1, 39635, Note_on_c, 0, 78, 78
1, 39667, Note_on_c, 0, 66, 54
1, 39728, Note_off_c, 0, 66, 46
1, 39733, Note_off_c, 0, 78, 58
1, 39808, Note_off_c, 0, 74, 59
1, 39858, Note_on_c, 0, 56, 38
1, 39863, Control_c, 0, 64, 113
1, 39868, Note_on_c, 0, 53, 43
1, 39881, Control_c, 0, 64, 80
1, 39881, Note_on_c, 0, 61, 32
1, 39886, Note_on_c, 0, 73, 56
1, 39887, Note_on_c, 0, 77, 60
1, 39900, Control_c, 0, 64, 35
1, 39906, Note_on_c, 0, 65, 43
1, 39918, Control_c, 0, 64, 0
1, 39975, Note_off_c, 0, 73, 0
1, 39976, Note_on_c, 0, 73, 27
1, 39991, Control_c, 0, 64, 17
1, 40011, Control_c, 0, 64, 52
1, 40028, Control_c, 0, 64, 68
1, 40039, Note_off_c, 0, 61, 58
1, 40046, Control_c, 0, 64, 79
1, 40056, Note_off_c, 0, 53, 54
1, 40064, Control_c, 0, 64, 92
1, 40083, Control_c, 0, 64, 106
1, 40102, Control_c, 0, 64, 117
1, 40120, Control_c, 0, 64, 121
1, 40124, Note_off_c, 0, 77, 64
1, 40138, Note_off_c, 0, 73, 62
1, 40154, Note_off_c, 0, 56, 37
1, 40158, Control_c, 0, 64, 127
1, 40176, Note_off_c, 0, 65, 52
1, 40318, Note_on_c, 0, 59, 45
1, 40318, Note_on_c, 0, 54, 45
1, 40340, Note_on_c, 0, 50, 43
1, 40371, Note_off_c, 0, 59, 60
1, 40396, Note_off_c, 0, 54, 61
1, 40427, Note_off_c, 0, 50, 64
1, 40527, Note_on_c, 0, 74, 70
1, 40539, Note_on_c, 0, 71, 60
1, 40542, Note_on_c, 0, 62, 52
1, 40615, Control_c, 0, 67, 13
1, 40620, Note_off_c, 0, 62, 63
1, 40653, Control_c, 0, 67, 22
1, 40687, Control_c, 0, 67, 29
1, 40705, Control_c, 0, 67, 36
1, 40715, Note_off_c, 0, 71, 59
1, 40724, Control_c, 0, 67, 41
1, 40749, Note_off_c, 0, 74, 52
1, 40778, Control_c, 0, 67, 45
1, 40796, Note_on_c, 0, 69, 22
1, 40817, Control_c, 0, 64, 108
1, 40818, Control_c, 0, 67, 53
1, 40819, Note_on_c, 0, 37, 53
1, 40834, Control_c, 0, 64, 72
1, 40835, Control_c, 0, 67, 59
1, 40838, Note_on_c, 0, 61, 59
1, 40842, Note_on_c, 0, 73, 61
1, 40850, Control_c, 0, 64, 16
1, 40852, Control_c, 0, 67, 64
1, 40870, Control_c, 0, 64, 0
1, 40890, Control_c, 0, 64, 26
1, 40890, Control_c, 0, 67, 69
1, 40907, Control_c, 0, 64, 58
1, 40921, Note_off_c, 0, 37, 59
1, 40925, Control_c, 0, 64, 78
1, 40946, Control_c, 0, 64, 104
1, 40963, Control_c, 0, 64, 127
1, 40976, Note_off_c, 0, 61, 61
1, 41014, Note_off_c, 0, 73, 59
1, 41082, Note_on_c, 0, 74, 71
1, 41110, Note_on_c, 0, 71, 37
1, 41110, Note_on_c, 0, 62, 45
1, 41159, Note_off_c, 0, 69, 28
1, 41175, Note_off_c, 0, 71, 47
1, 41176, Note_off_c, 0, 74, 59
1, 41178, Note_off_c, 0, 62, 55
1, 41329, Note_on_c, 0, 53, 40
1, 41345, Note_on_c, 0, 47, 28
1, 41365, Note_on_c, 0, 56, 23
1, 41376, Note_on_c, 0, 71, 61
1, 41386, Control_c, 0, 64, 116
1, 41393, Note_on_c, 0, 59, 41
1, 41394, Note_on_c, 0, 68, 43
1, 41405, Control_c, 0, 64, 95
1, 41424, Control_c, 0, 64, 69
1, 41443, Control_c, 0, 64, 0
1, 41594, Note_off_c, 0, 56, 54
1, 41621, Control_c, 0, 67, 65
1, 41640, Control_c, 0, 64, 12
1, 41651, Note_off_c, 0, 53, 43
1, 41658, Control_c, 0, 64, 33
1, 41678, Control_c, 0, 64, 53
1, 41696, Control_c, 0, 64, 67
1, 41713, Control_c, 0, 64, 77
1, 41718, Note_off_c, 0, 47, 55
1, 41732, Control_c, 0, 64, 90
1, 41752, Control_c, 0, 64, 104
1, 41769, Control_c, 0, 64, 112
1, 41787, Control_c, 0, 64, 116
1, 41789, Control_c, 0, 67, 61
1, 41842, Control_c, 0, 64, 122
1, 41862, Control_c, 0, 64, 126
1, 41907, Note_off_c, 0, 59, 40
1, 41941, Note_off_c, 0, 71, 59
1, 42004, Note_off_c, 0, 68, 58
1, 42077, Note_on_c, 0, 37, 38
1, 42323, Note_on_c, 0, 69, 51
1, 42328, Note_on_c, 0, 73, 56
1, 42341, Note_on_c, 0, 61, 39
1, 42364, Note_off_c, 0, 37, 39
1, 42420, Note_off_c, 0, 73, 64
1, 42426, Note_off_c, 0, 61, 50
1, 42464, Note_off_c, 0, 69, 51
1, 42524, Control_c, 0, 64, 119
1, 42557, Control_c, 0, 64, 90
1, 42561, Note_on_c, 0, 26, 49
1, 42574, Control_c, 0, 64, 58
1, 42585, Note_on_c, 0, 38, 38
1, 42593, Control_c, 0, 64, 32
1, 42607, Note_on_c, 0, 71, 69
1, 42612, Control_c, 0, 64, 40
1, 42624, Note_on_c, 0, 68, 50
1, 42627, Note_on_c, 0, 59, 50
1, 42630, Note_off_c, 0, 26, 60
1, 42630, Control_c, 0, 64, 56
1, 42649, Control_c, 0, 64, 72
1, 42667, Control_c, 0, 64, 92
1, 42686, Control_c, 0, 64, 118
1, 42689, Note_off_c, 0, 59, 57
1, 42692, Note_off_c, 0, 38, 57
1, 42704, Control_c, 0, 64, 127
1, 42716, Note_off_c, 0, 71, 58
1, 42777, Control_c, 0, 67, 57
1, 42815, Note_on_c, 0, 69, 62
1, 42821, Note_off_c, 0, 68, 32
1, 42830, Note_on_c, 0, 73, 67
1, 42861, Note_on_c, 0, 61, 43
1, 42904, Note_off_c, 0, 61, 48
1, 42933, Note_off_c, 0, 73, 63
1, 42938, Note_off_c, 0, 69, 58
1, 43055, Control_c, 0, 64, 118
1, 43069, Note_on_c, 0, 45, 41
1, 43075, Control_c, 0, 64, 85
1, 43081, Note_on_c, 0, 54, 46
1, 43085, Note_on_c, 0, 69, 67
1, 43095, Note_on_c, 0, 57, 49
1, 43095, Control_c, 0, 64, 35
1, 43098, Note_on_c, 0, 66, 48
1, 43105, Control_c, 0, 64, 0
1, 43142, Control_c, 0, 67, 53
1, 43157, Note_off_c, 0, 54, 62
1, 43161, Control_c, 0, 64, 41
1, 43179, Control_c, 0, 64, 56
1, 43180, Control_c, 0, 67, 49
1, 43199, Control_c, 0, 64, 66
1, 43208, Note_off_c, 0, 45, 61
1, 43216, Control_c, 0, 64, 76
1, 43217, Control_c, 0, 67, 44
1, 43236, Control_c, 0, 64, 88
1, 43253, Control_c, 0, 64, 102
1, 43255, Control_c, 0, 67, 39
1, 43271, Control_c, 0, 64, 112
1, 43290, Control_c, 0, 64, 117
1, 43291, Control_c, 0, 67, 34
1, 43335, Note_off_c, 0, 57, 34
1, 43343, Control_c, 0, 64, 122
1, 43344, Control_c, 0, 67, 29
1, 43354, Note_off_c, 0, 69, 57
1, 43362, Control_c, 0, 64, 126
1, 43492, Note_on_c, 0, 38, 53
1, 43628, Note_off_c, 0, 66, 38
1, 43671, Control_c, 0, 67, 25
1, 43688, Note_on_c, 0, 71, 71
1, 43692, Note_on_c, 0, 68, 59
1, 43697, Note_on_c, 0, 59, 54
1, 43700, Note_off_c, 0, 38, 52
1, 43760, Note_off_c, 0, 59, 57
1, 43774, Note_off_c, 0, 71, 59
1, 43778, Note_on_c, 0, 28, 39
1, 43815, Note_off_c, 0, 68, 54
1, 43838, Control_c, 0, 64, 119
1, 43856, Control_c, 0, 64, 100
1, 43874, Control_c, 0, 64, 70
1, 43893, Control_c, 0, 64, 18
1, 43910, Control_c, 0, 64, 0
1, 43911, Note_on_c, 0, 40, 43
1, 43923, Note_on_c, 0, 69, 63
1, 43929, Control_c, 0, 64, 24
1, 43929, Note_on_c, 0, 66, 54
1, 43930, Note_on_c, 0, 57, 55
1, 43948, Control_c, 0, 64, 54
1, 43949, Note_off_c, 0, 28, 53
1, 43967, Control_c, 0, 64, 73
1, 43986, Control_c, 0, 64, 92
1, 43990, Note_off_c, 0, 57, 58
1, 44004, Control_c, 0, 64, 112
1, 44010, Note_off_c, 0, 40, 60
1, 44019, Note_off_c, 0, 69, 62
1, 44024, Control_c, 0, 64, 123
1, 44101, Note_off_c, 0, 66, 0
1, 44133, Note_on_c, 0, 71, 69
1, 44150, Note_on_c, 0, 59, 54
1, 44171, Note_on_c, 0, 68, 40
1, 44184, Note_off_c, 0, 59, 64
1, 44207, Poly_aftertouch_c, 0, 66, 0
1, 44213, Note_off_c, 0, 71, 61
1, 44252, Note_off_c, 0, 68, 52
1, 44261, Control_c, 0, 67, 29
1, 44349, Note_on_c, 0, 52, 47
1, 44352, Control_c, 0, 64, 117
1, 44370, Control_c, 0, 64, 105
1, 44384, Note_on_c, 0, 44, 38
1, 44388, Note_on_c, 0, 68, 57
1, 44389, Control_c, 0, 64, 83
1, 44396, Note_on_c, 0, 64, 49
1, 44408, Control_c, 0, 64, 58
1, 44424, Note_on_c, 0, 56, 38
1, 44442, Control_c, 0, 64, 18
1, 44460, Control_c, 0, 64, 8
1, 44480, Control_c, 0, 64, 18
1, 44497, Control_c, 0, 64, 33
1, 44504, Note_off_c, 0, 52, 55
1, 44515, Control_c, 0, 64, 46
1, 44516, Control_c, 0, 67, 34
1, 44534, Control_c, 0, 64, 56
1, 44553, Control_c, 0, 64, 61
1, 44554, Control_c, 0, 67, 39
1, 44571, Control_c, 0, 64, 65
1, 44587, Control_c, 0, 64, 67
1, 44600, Note_off_c, 0, 44, 56
1, 44605, Control_c, 0, 64, 69
1, 44625, Control_c, 0, 64, 71
1, 44643, Control_c, 0, 64, 73
1, 44663, Control_c, 0, 64, 76
1, 44681, Control_c, 0, 64, 80
1, 44700, Control_c, 0, 64, 83
1, 44718, Control_c, 0, 64, 86
1, 44736, Control_c, 0, 67, 43
1, 44773, Control_c, 0, 64, 90
1, 44774, Control_c, 0, 67, 48
1, 44810, Control_c, 0, 67, 54
1, 44883, Control_c, 0, 67, 58
1, 44939, Control_c, 0, 67, 63
1, 44993, Control_c, 0, 67, 68
1, 45031, Control_c, 0, 67, 75
1, 45067, Control_c, 0, 64, 87
1, 45068, Control_c, 0, 67, 83
1, 45085, Control_c, 0, 64, 78
1, 45087, Control_c, 0, 67, 88
1, 45105, Control_c, 0, 64, 65
1, 45107, Control_c, 0, 67, 93
1, 45113, Note_on_c, 0, 40, 33
1, 45124, Control_c, 0, 64, 45
1, 45125, Control_c, 0, 67, 98
1, 45141, Control_c, 0, 64, 40
1, 45161, Control_c, 0, 64, 48
1, 45164, Note_off_c, 0, 56, 46
1, 45164, Control_c, 0, 67, 102
1, 45177, Note_off_c, 0, 64, 58
1, 45178, Control_c, 0, 64, 62
1, 45196, Control_c, 0, 64, 72
1, 45213, Control_c, 0, 64, 85
1, 45233, Control_c, 0, 64, 100
1, 45251, Control_c, 0, 64, 112
1, 45269, Control_c, 0, 64, 117
1, 45377, Control_c, 0, 64, 123
1, 45395, Control_c, 0, 64, 127
1, 45462, Note_on_c, 0, 66, 50
1, 45471, Note_on_c, 0, 62, 41
1, 45522, Note_off_c, 0, 68, 54
1, 45558, Note_off_c, 0, 62, 53
1, 45598, Note_off_c, 0, 66, 63
1, 45799, Control_c, 0, 67, 98
1, 45841, Note_on_c, 0, 33, 36
1, 45893, Control_c, 0, 67, 93
1, 45909, Control_c, 0, 67, 89
1, 45911, Note_off_c, 0, 40, 39
1, 45929, Control_c, 0, 67, 83
1, 45947, Control_c, 0, 64, 117
1, 45948, Control_c, 0, 67, 77
1, 45964, Control_c, 0, 64, 98
1, 45967, Control_c, 0, 67, 71
1, 45968, Note_on_c, 0, 76, 69
1, 45984, Control_c, 0, 64, 76
1, 45986, Control_c, 0, 67, 63
1, 45991, Note_on_c, 0, 73, 41
1, 45993, Note_on_c, 0, 69, 27
1, 46002, Control_c, 0, 64, 52
1, 46002, Control_c, 0, 67, 51
1, 46020, Control_c, 0, 64, 35
1, 46023, Control_c, 0, 67, 39
1, 46038, Control_c, 0, 67, 28
1, 46058, Control_c, 0, 64, 45
1, 46059, Control_c, 0, 67, 19
1, 46076, Control_c, 0, 64, 57
1, 46078, Control_c, 0, 67, 9
1, 46084, Note_off_c, 0, 33, 53
1, 46094, Control_c, 0, 64, 66
1, 46095, Control_c, 0, 67, 0
1, 46113, Control_c, 0, 64, 74
1, 46130, Control_c, 0, 64, 88
1, 46148, Control_c, 0, 64, 106
1, 46167, Control_c, 0, 64, 123
1, 46187, Control_c, 0, 64, 127
1, 46450, Note_off_c, 0, 73, 54
1, 46616, Note_on_c, 0, 62, 33
1, 46627, Note_on_c, 0, 66, 40
1, 46655, Note_on_c, 0, 57, 31
1, 46717, Note_off_c, 0, 76, 55
1, 46832, Note_on_c, 0, 78, 73
1, 46850, Note_off_c, 0, 66, 63
1, 46863, Note_on_c, 0, 74, 40
1, 46898, Note_off_c, 0, 74, 57
1, 46985, Note_off_c, 0, 62, 44
1, 47031, Control_c, 0, 64, 122
1, 47040, Note_off_c, 0, 78, 53
1, 47050, Control_c, 0, 64, 97
1, 47055, Note_on_c, 0, 76, 78
1, 47060, Note_on_c, 0, 61, 44
1, 47067, Control_c, 0, 64, 76
1, 47081, Note_on_c, 0, 73, 56
1, 47081, Note_on_c, 0, 64, 42
1, 47105, Control_c, 0, 64, 97
1, 47123, Control_c, 0, 64, 127
1, 47141, Note_off_c, 0, 64, 60
1, 47153, Note_off_c, 0, 61, 60
1, 47177, Note_off_c, 0, 57, 51
1, 47432, Control_c, 0, 64, 118
1, 47445, Note_on_c, 0, 45, 52
1, 47450, Control_c, 0, 64, 95
1, 47469, Control_c, 0, 64, 69
1, 47488, Control_c, 0, 64, 41
1, 47507, Control_c, 0, 64, 36
1, 47524, Control_c, 0, 64, 49
1, 47542, Control_c, 0, 64, 66
1, 47549, Note_off_c, 0, 45, 62
1, 47560, Control_c, 0, 64, 84
1, 47580, Control_c, 0, 64, 108
1, 47599, Control_c, 0, 64, 127
1, 47648, Note_on_c, 0, 78, 76
1, 47726, Note_off_c, 0, 73, 60
1, 47729, Note_off_c, 0, 69, 42
1, 47781, Note_off_c, 0, 76, 48
1, 47799, Note_off_c, 0, 78, 59
1, 47888, Note_on_c, 0, 67, 42
1, 47891, Control_c, 0, 67, 8
1, 47899, Note_on_c, 0, 61, 30
1, 47904, Note_on_c, 0, 79, 70
1, 47910, Control_c, 0, 64, 123
1, 47912, Note_on_c, 0, 57, 38
1, 47928, Control_c, 0, 64, 113
1, 47934, Note_on_c, 0, 69, 38
1, 47942, Note_on_c, 0, 73, 27
1, 47947, Control_c, 0, 64, 99
1, 47967, Control_c, 0, 64, 81
1, 47969, Control_c, 0, 67, 12
1, 47987, Control_c, 0, 64, 58
1, 48002, Control_c, 0, 64, 0
1, 48004, Control_c, 0, 67, 18
1, 48020, Control_c, 0, 67, 26
1, 48041, Control_c, 0, 67, 36
1, 48058, Control_c, 0, 67, 46
1, 48077, Control_c, 0, 67, 52
1, 48239, Control_c, 0, 64, 16
1, 48255, Control_c, 0, 64, 48
1, 48274, Control_c, 0, 64, 64
1, 48293, Control_c, 0, 64, 68
1, 48328, Control_c, 0, 64, 73
1, 48330, Control_c, 0, 67, 48
1, 48347, Control_c, 0, 64, 83
1, 48367, Control_c, 0, 64, 96
1, 48371, Control_c, 0, 67, 44
1, 48386, Control_c, 0, 64, 105
1, 48403, Control_c, 0, 67, 37
1, 48424, Control_c, 0, 64, 110
1, 48441, Control_c, 0, 64, 118
1, 48442, Control_c, 0, 67, 31
1, 48459, Control_c, 0, 64, 127
1, 48461, Note_off_c, 0, 69, 42
1, 48464, Note_on_c, 0, 64, 41
1, 48478, Control_c, 0, 67, 26
1, 48496, Note_off_c, 0, 73, 55
1, 48506, Note_off_c, 0, 67, 60
1, 48513, Control_c, 0, 67, 18
1, 48532, Control_c, 0, 67, 11
1, 48542, Note_off_c, 0, 64, 61
1, 48553, Note_off_c, 0, 79, 56
1, 48565, Note_off_c, 0, 61, 53
1, 48567, Control_c, 0, 67, 0
1, 48580, Poly_aftertouch_c, 0, 57, 24
1, 48612, Note_off_c, 0, 57, 41
1, 48817, Note_on_c, 0, 44, 45
1, 48863, Control_c, 0, 64, 108
1, 48883, Control_c, 0, 64, 82
1, 48900, Control_c, 0, 64, 52
1, 48907, Note_on_c, 0, 80, 72
1, 48908, Note_on_c, 0, 77, 59
1, 48919, Control_c, 0, 64, 0
1, 48922, Note_on_c, 0, 73, 52
1, 48956, Control_c, 0, 64, 36
1, 48975, Control_c, 0, 64, 58
1, 48993, Control_c, 0, 64, 69
1, 49003, Note_off_c, 0, 44, 63
1, 49010, Control_c, 0, 64, 80
1, 49029, Control_c, 0, 64, 92
1, 49047, Control_c, 0, 64, 104
1, 49065, Control_c, 0, 64, 111
1, 49117, Control_c, 0, 64, 115
1, 49225, Note_off_c, 0, 77, 57
1, 49343, Note_off_c, 0, 80, 35
1, 49347, Note_on_c, 0, 66, 62
1, 49354, Note_on_c, 0, 61, 46
1, 49366, Note_on_c, 0, 58, 45
1, 49449, Control_c, 0, 64, 119
1, 49469, Note_off_c, 0, 58, 56
1, 49508, Note_on_c, 0, 82, 80
1, 49513, Note_on_c, 0, 78, 68
1, 49519, Note_off_c, 0, 66, 63
1, 49622, Note_off_c, 0, 78, 60
1, 49651, Note_off_c, 0, 82, 64
1, 49718, Note_on_c, 0, 65, 63
1, 49723, Note_on_c, 0, 80, 82
1, 49723, Note_on_c, 0, 56, 70
1, 49731, Note_on_c, 0, 77, 70
1, 49752, Note_off_c, 0, 65, 65
1, 49768, Note_off_c, 0, 61, 62
1, 49792, Note_off_c, 0, 56, 64
1, 49964, Note_off_c, 0, 77, 61
1, 49983, Control_c, 0, 64, 114
1, 50003, Control_c, 0, 64, 99
1, 50021, Control_c, 0, 64, 69
1, 50054, Control_c, 0, 64, 0
1, 50071, Note_on_c, 0, 37, 68
1, 50085, Note_on_c, 0, 49, 71
1, 50111, Control_c, 0, 64, 53
1, 50116, Note_off_c, 0, 37, 63
1, 50127, Control_c, 0, 64, 77
1, 50146, Control_c, 0, 64, 105
1, 50160, Note_off_c, 0, 49, 62
1, 50165, Control_c, 0, 64, 127
1, 50211, Note_off_c, 0, 80, 61
1, 50263, Note_on_c, 0, 82, 83
1, 50272, Note_on_c, 0, 78, 73
1, 50336, Note_on_c, 0, 56, 47
1, 50357, Note_off_c, 0, 73, 43
1, 50360, Note_off_c, 0, 78, 61
1, 50362, Note_on_c, 0, 59, 56
1, 50389, Note_off_c, 0, 82, 63
1, 50446, Note_on_c, 0, 66, 67
1, 50477, Control_c, 0, 64, 121
1, 50483, Note_on_c, 0, 83, 82
1, 50489, Note_on_c, 0, 73, 72
1, 50494, Control_c, 0, 64, 89
1, 50495, Note_on_c, 0, 80, 71
1, 50517, Control_c, 0, 64, 52
1, 50534, Control_c, 0, 64, 0
1, 50571, Control_c, 0, 64, 30
1, 50587, Control_c, 0, 64, 58
1, 50607, Control_c, 0, 64, 73
1, 50625, Control_c, 0, 64, 89
1, 50632, Note_off_c, 0, 66, 63
1, 50641, Note_off_c, 0, 73, 59
1, 50642, Control_c, 0, 64, 107
1, 50645, Note_off_c, 0, 83, 62
1, 50661, Control_c, 0, 64, 121
1, 50711, Note_off_c, 0, 80, 61
1, 50736, Control_c, 0, 64, 126
1, 50820, Note_off_c, 0, 56, 0
1, 50848, Note_on_c, 0, 65, 79
1, 50885, Note_off_c, 0, 65, 67
1, 50896, Note_off_c, 0, 59, 60
1, 50921, Poly_aftertouch_c, 0, 56, 0
1, 51027, Note_on_c, 0, 85, 88
1, 51033, Note_on_c, 0, 73, 83
1, 51039, Note_on_c, 0, 82, 74
1, 51088, Note_off_c, 0, 73, 54
1, 51110, Note_off_c, 0, 82, 53
1, 51115, Note_off_c, 0, 85, 61
1, 51181, Note_on_c, 0, 37, 64
1, 51221, Poly_aftertouch_c, 0, 82, 0
1, 51229, Control_c, 0, 64, 113
1, 51248, Control_c, 0, 64, 76
1, 51265, Control_c, 0, 64, 31
1, 51267, Note_on_c, 0, 87, 88
1, 51271, Note_on_c, 0, 83, 78
1, 51272, Note_on_c, 0, 75, 82
1, 51285, Control_c, 0, 64, 20
1, 51301, Control_c, 0, 64, 46
1, 51303, Note_off_c, 0, 37, 62
1, 51320, Control_c, 0, 64, 70
1, 51340, Control_c, 0, 64, 100
1, 51357, Control_c, 0, 64, 127
1, 51458, Note_off_c, 0, 83, 61
1, 51503, Note_off_c, 0, 75, 59
1, 51506, Note_off_c, 0, 87, 65
1, 51571, Note_on_c, 0, 59, 54
1, 51603, Note_on_c, 0, 65, 70
1, 51707, Note_on_c, 0, 70, 74
1, 51797, Note_off_c, 0, 65, 61
1, 51862, Note_on_c, 0, 89, 88
1, 51866, Note_on_c, 0, 77, 81
1, 51866, Note_on_c, 0, 85, 81
1, 51922, Note_off_c, 0, 77, 57
1, 51972, Note_off_c, 0, 89, 63
1, 51997, Note_off_c, 0, 85, 63
1, 52099, Note_off_c, 0, 70, 65
1, 52099, Note_on_c, 0, 90, 89
1, 52103, Note_on_c, 0, 66, 69
1, 52107, Note_on_c, 0, 78, 84
1, 52108, Note_on_c, 0, 87, 78
1, 52133, Note_off_c, 0, 66, 70
1, 52163, Note_off_c, 0, 78, 59
1, 52169, Note_off_c, 0, 59, 64
1, 52191, Note_off_c, 0, 90, 66
1, 52193, Note_off_c, 0, 87, 63
1, 52213, Poly_aftertouch_c, 0, 77, 0
1, 52266, Note_on_c, 0, 92, 89
1, 52269, Note_on_c, 0, 80, 88
1, 52273, Note_on_c, 0, 89, 80
1, 52328, Note_off_c, 0, 80, 61
1, 52364, Note_off_c, 0, 92, 67
1, 52373, Note_off_c, 0, 89, 62
1, 52463, Note_on_c, 0, 30, 68
1, 52464, Note_on_c, 0, 90, 88
1, 52466, Note_on_c, 0, 42, 74
1, 52467, Note_on_c, 0, 94, 87
1, 52468, Note_on_c, 0, 82, 83
1, 52470, Note_on_c, 0, 85, 82
1, 52495, Control_c, 0, 64, 83
1, 52513, Control_c, 0, 64, 13
1, 52530, Control_c, 0, 64, 0
1, 52550, Note_off_c, 0, 30, 63
1, 52568, Control_c, 0, 64, 57
1, 52585, Note_off_c, 0, 42, 65
1, 52585, Control_c, 0, 64, 81
1, 52605, Control_c, 0, 64, 118
1, 52624, Control_c, 0, 64, 127
1, 52716, Note_off_c, 0, 94, 54
1, 52730, Note_off_c, 0, 82, 55
1, 52815, Note_off_c, 0, 85, 54
1, 52921, Note_on_c, 0, 73, 78
1, 52927, Note_on_c, 0, 66, 73
1, 52945, Note_on_c, 0, 61, 71
1, 52968, Note_off_c, 0, 73, 61
1, 52999, Note_off_c, 0, 66, 64
1, 53020, Note_off_c, 0, 61, 62
1, 53093, Note_off_c, 0, 90, 19
1, 53323, Note_on_c, 0, 31, 75
1, 53327, Note_on_c, 0, 43, 75
1, 53340, Note_on_c, 0, 85, 90
1, 53340, Note_on_c, 0, 81, 92
1, 53340, Note_on_c, 0, 88, 90
1, 53341, Note_on_c, 0, 93, 95
1, 53358, Control_c, 0, 64, 98
1, 53373, Control_c, 0, 64, 32
1, 53392, Control_c, 0, 64, 0
1, 53404, Note_off_c, 0, 31, 62
1, 53431, Control_c, 0, 64, 41
1, 53448, Control_c, 0, 64, 89
1, 53451, Note_off_c, 0, 43, 64
1, 53465, Control_c, 0, 64, 127
1, 53619, Note_off_c, 0, 93, 56
1, 53649, Note_off_c, 0, 81, 56
1, 53771, Note_off_c, 0, 85, 57
1, 53806, Note_off_c, 0, 88, 47
1, 53813, Note_on_c, 0, 73, 81
1, 53818, Note_on_c, 0, 64, 69
1, 53841, Note_on_c, 0, 61, 73
1, 53888, Note_off_c, 0, 73, 65
1, 53936, Note_off_c, 0, 64, 62
1, 53951, Note_off_c, 0, 61, 60
1, 54329, Note_on_c, 0, 32, 70
1, 54338, Note_on_c, 0, 44, 65
1, 54369, Note_on_c, 0, 84, 77
1, 54371, Note_on_c, 0, 92, 89
1, 54373, Note_on_c, 0, 80, 84
1, 54376, Note_on_c, 0, 90, 79
1, 54377, Note_on_c, 0, 87, 80
1, 54437, Control_c, 0, 64, 116
1, 54457, Control_c, 0, 64, 71
1, 54474, Control_c, 0, 64, 0
1, 54566, Control_c, 0, 64, 66
1, 54586, Control_c, 0, 64, 95
1, 54604, Control_c, 0, 64, 127
1, 54616, Note_off_c, 0, 32, 62
1, 54674, Note_off_c, 0, 44, 63
1, 55123, Note_on_c, 0, 60, 37
1, 55162, Note_on_c, 0, 63, 47
1, 55224, Note_on_c, 0, 66, 49
1, 55245, Note_on_c, 0, 68, 57
1, 55340, Note_on_c, 0, 72, 54
1, 55364, Note_off_c, 0, 60, 42
1, 55451, Note_off_c, 0, 72, 62
1, 55458, Note_off_c, 0, 68, 58
1, 55493, Note_off_c, 0, 66, 45
1, 55500, Note_off_c, 0, 63, 41
1, 55683, Control_c, 0, 67, 8
1, 55720, Control_c, 0, 67, 14
1, 55757, Control_c, 0, 67, 19
1, 55847, Control_c, 0, 67, 24
1, 55932, Note_on_c, 0, 32, 17
1, 55939, Control_c, 0, 67, 28
1, 55959, Control_c, 0, 64, 120
1, 55970, Note_on_c, 0, 44, 42
1, 55976, Control_c, 0, 64, 112
1, 55977, Control_c, 0, 67, 32
1, 55995, Control_c, 0, 64, 103
1, 56014, Control_c, 0, 64, 96
1, 56017, Control_c, 0, 67, 39
1, 56032, Control_c, 0, 64, 90
1, 56049, Control_c, 0, 64, 81
1, 56050, Control_c, 0, 67, 43
1, 56067, Control_c, 0, 64, 68
1, 56087, Control_c, 0, 64, 48
1, 56106, Control_c, 0, 64, 0
1, 56108, Control_c, 0, 67, 47
1, 56197, Control_c, 0, 67, 54
1, 56215, Control_c, 0, 67, 58
1, 56253, Control_c, 0, 67, 63
1, 56307, Control_c, 0, 67, 67
1, 56381, Control_c, 0, 67, 72
1, 56417, Control_c, 0, 67, 76
1, 56473, Control_c, 0, 67, 80
1, 56599, Control_c, 0, 64, 12
1, 56618, Control_c, 0, 64, 37
1, 56636, Control_c, 0, 64, 53
1, 56655, Control_c, 0, 64, 59
1, 56709, Control_c, 0, 64, 60
1, 56729, Control_c, 0, 64, 62
1, 56742, Note_off_c, 0, 32, 36
1, 56747, Control_c, 0, 64, 66
1, 56764, Control_c, 0, 64, 72
1, 56782, Control_c, 0, 64, 78
1, 56801, Control_c, 0, 64, 86
1, 56820, Control_c, 0, 64, 94
1, 56839, Control_c, 0, 64, 102
1, 56856, Control_c, 0, 64, 108
1, 56870, Note_off_c, 0, 44, 43
1, 56875, Control_c, 0, 64, 112
1, 56912, Control_c, 0, 64, 116
1, 56949, Control_c, 0, 64, 124
1, 57278, Note_off_c, 0, 90, 31
1, 57285, Note_off_c, 0, 92, 60
1, 57474, Note_off_c, 0, 80, 50
1, 57705, Note_on_c, 0, 90, 55
1, 57715, Note_on_c, 0, 78, 51
1, 57840, Note_off_c, 0, 87, 57
1, 57847, Note_off_c, 0, 90, 63
1, 57850, Note_off_c, 0, 84, 58
1, 57875, Note_off_c, 0, 78, 59
1, 57999, Note_on_c, 0, 63, 41
1, 58005, Note_on_c, 0, 66, 35
1, 58008, Note_on_c, 0, 56, 37
1, 58014, Note_on_c, 0, 87, 65
1, 58034, Note_on_c, 0, 75, 52
1, 58051, Note_off_c, 0, 66, 55
1, 58093, Note_off_c, 0, 75, 56
1, 58097, Note_off_c, 0, 63, 59
1, 58122, Note_off_c, 0, 87, 63
1, 58141, Note_off_c, 0, 56, 60
1, 58223, Note_on_c, 0, 84, 73
1, 58240, Note_on_c, 0, 72, 52
1, 58284, Note_off_c, 0, 72, 50
1, 58308, Note_off_c, 0, 84, 60
1, 58445, Note_on_c, 0, 37, 42
1, 58496, Note_on_c, 0, 49, 20
1, 58506, Control_c, 0, 64, 116
1, 58524, Control_c, 0, 64, 111
1, 58544, Control_c, 0, 64, 103
1, 58555, Note_on_c, 0, 80, 73
1, 58563, Control_c, 0, 64, 89
1, 58566, Note_on_c, 0, 85, 56
1, 58574, Note_on_c, 0, 73, 49
1, 58580, Control_c, 0, 64, 67
1, 58599, Control_c, 0, 64, 19
1, 58618, Control_c, 0, 64, 0
1, 58667, Note_off_c, 0, 73, 0
1, 58668, Note_on_c, 0, 73, 18
1, 58691, Control_c, 0, 64, 11
1, 58708, Control_c, 0, 64, 40
1, 58711, Note_off_c, 0, 37, 54
1, 58726, Control_c, 0, 64, 57
1, 58745, Control_c, 0, 64, 68
1, 58764, Control_c, 0, 64, 77
1, 58772, Note_off_c, 0, 49, 55
1, 58784, Control_c, 0, 64, 86
1, 58801, Control_c, 0, 64, 93
1, 58819, Control_c, 0, 64, 98
1, 58857, Control_c, 0, 64, 102
1, 58990, Note_off_c, 0, 80, 59
1, 59167, Note_on_c, 0, 58, 35
1, 59167, Note_on_c, 0, 61, 39
1, 59191, Note_on_c, 0, 66, 35
1, 59264, Note_off_c, 0, 58, 35
1, 59355, Note_off_c, 0, 66, 38
1, 59384, Note_on_c, 0, 82, 78
1, 59423, Note_off_c, 0, 85, 59
1, 59618, Note_on_c, 0, 56, 47
1, 59627, Note_on_c, 0, 65, 20
1, 59628, Note_on_c, 0, 80, 81
1, 59639, Note_off_c, 0, 82, 63
1, 59664, Note_off_c, 0, 61, 52
1, 59675, Note_off_c, 0, 56, 66
1, 59677, Note_off_c, 0, 65, 41
1, 59955, Note_on_c, 0, 37, 46
1, 59957, Control_c, 0, 64, 88
1, 59978, Control_c, 0, 64, 68
1, 59995, Control_c, 0, 64, 30
1, 60003, Note_on_c, 0, 49, 41
1, 60014, Control_c, 0, 64, 0
1, 60028, Note_on_c, 0, 77, 80
1, 60052, Control_c, 0, 64, 30
1, 60057, Note_off_c, 0, 80, 60
1, 60062, Note_off_c, 0, 37, 59
1, 60070, Control_c, 0, 64, 50
1, 60087, Control_c, 0, 64, 64
1, 60105, Control_c, 0, 64, 74
1, 60110, Note_off_c, 0, 49, 61
1, 60123, Control_c, 0, 64, 86
1, 60143, Control_c, 0, 64, 98
1, 60160, Control_c, 0, 64, 107
1, 60161, Control_c, 0, 67, 74
1, 60198, Control_c, 0, 64, 111
1, 60199, Control_c, 0, 67, 66
1, 60217, Control_c, 0, 67, 58
1, 60238, Note_on_c, 0, 78, 79
1, 60324, Note_off_c, 0, 77, 62
1, 60401, Note_off_c, 0, 73, 53
1, 60452, Control_c, 0, 64, 106
1, 60453, Control_c, 0, 67, 54
1, 60458, Note_on_c, 0, 60, 40
1, 60475, Note_off_c, 0, 78, 62
1, 60485, Note_on_c, 0, 80, 68
1, 60489, Control_c, 0, 64, 101
1, 60490, Control_c, 0, 67, 49
1, 60491, Note_on_c, 0, 56, 33
1, 60496, Note_on_c, 0, 66, 30
1, 60500, Note_on_c, 0, 72, 52
1, 60507, Control_c, 0, 64, 93
1, 60508, Control_c, 0, 67, 42
1, 60525, Control_c, 0, 64, 80
1, 60526, Control_c, 0, 67, 32
1, 60544, Control_c, 0, 64, 60
1, 60546, Control_c, 0, 67, 23
1, 60563, Control_c, 0, 64, 21
1, 60564, Control_c, 0, 67, 17
1, 60582, Control_c, 0, 64, 0
1, 60637, Control_c, 0, 67, 13
1, 60666, Note_off_c, 0, 56, 0
1, 60675, Note_off_c, 0, 66, 29
1, 60678, Note_off_c, 0, 60, 51
1, 60692, Control_c, 0, 64, 24
1, 60711, Control_c, 0, 64, 43
1, 60727, Control_c, 0, 64, 53
1, 60746, Control_c, 0, 64, 59
1, 60747, Control_c, 0, 67, 9
1, 60765, Control_c, 0, 64, 63
1, 60784, Control_c, 0, 64, 66
1, 60803, Control_c, 0, 64, 69
1, 60818, Control_c, 0, 64, 74
1, 60838, Control_c, 0, 64, 81
1, 60856, Control_c, 0, 64, 91
1, 60876, Control_c, 0, 64, 99
1, 60893, Control_c, 0, 64, 104
1, 60950, Control_c, 0, 67, 0
1, 60970, Note_on_c, 0, 61, 32
1, 60975, Note_on_c, 0, 65, 38
1, 60988, Control_c, 0, 64, 108
1, 61026, Note_off_c, 0, 65, 61
1, 61063, Note_off_c, 0, 61, 56
1, 61072, Poly_aftertouch_c, 0, 56, 24
1, 61111, Poly_aftertouch_c, 0, 56, 0
1, 61172, Note_off_c, 0, 80, 56
1, 61174, Note_on_c, 0, 73, 63
1, 61207, Note_off_c, 0, 72, 62
1, 61317, Note_off_c, 0, 73, 60
1, 61430, Note_on_c, 0, 37, 44
1, 61465, Note_on_c, 0, 68, 70
1, 61479, Note_on_c, 0, 73, 55
1, 61479, Control_c, 0, 64, 102
1, 61499, Control_c, 0, 64, 92
1, 61517, Control_c, 0, 64, 71
1, 61534, Control_c, 0, 64, 21
1, 61554, Control_c, 0, 64, 0
1, 61629, Control_c, 0, 64, 29
1, 61636, Note_off_c, 0, 37, 61
1, 61647, Control_c, 0, 64, 52
1, 61666, Control_c, 0, 64, 66
1, 61682, Control_c, 0, 64, 76
1, 61702, Control_c, 0, 64, 85
1, 61720, Control_c, 0, 64, 93
1, 61739, Control_c, 0, 64, 97
1, 61830, Control_c, 0, 64, 101
1, 61997, Note_on_c, 0, 58, 40
1, 62001, Note_on_c, 0, 66, 44
1, 62018, Note_on_c, 0, 61, 24
1, 62083, Note_off_c, 0, 58, 58
1, 62146, Note_off_c, 0, 66, 53
1, 62175, Note_on_c, 0, 70, 73
1, 62226, Note_off_c, 0, 68, 54
1, 62402, Note_on_c, 0, 65, 39
1, 62414, Note_on_c, 0, 56, 46
1, 62429, Note_on_c, 0, 68, 78
1, 62441, Note_off_c, 0, 65, 52
1, 62470, Note_off_c, 0, 61, 53
1, 62475, Note_off_c, 0, 70, 60
1, 62479, Note_off_c, 0, 56, 63
1, 62768, Note_on_c, 0, 37, 35
1, 62784, Control_c, 0, 64, 91
1, 62802, Control_c, 0, 64, 74
1, 62818, Note_on_c, 0, 49, 29
1, 62821, Control_c, 0, 64, 45
1, 62831, Note_on_c, 0, 65, 74
1, 62835, Note_off_c, 0, 68, 53
1, 62837, Control_c, 0, 64, 0
1, 62875, Control_c, 0, 64, 33
1, 62894, Control_c, 0, 64, 57
1, 62901, Note_off_c, 0, 37, 57
1, 62911, Control_c, 0, 64, 72
1, 62930, Control_c, 0, 64, 86
1, 62949, Control_c, 0, 64, 102
1, 62957, Note_off_c, 0, 49, 52
1, 62967, Control_c, 0, 64, 115
1, 63001, Note_off_c, 0, 73, 50
1, 63037, Note_on_c, 0, 66, 78
1, 63047, Note_off_c, 0, 65, 62
1, 63077, Control_c, 0, 64, 119
1, 63099, Note_off_c, 0, 66, 64
1, 63255, Note_on_c, 0, 60, 36
1, 63289, Note_on_c, 0, 56, 37
1, 63293, Note_on_c, 0, 80, 68
1, 63300, Note_on_c, 0, 66, 32
1, 63302, Note_on_c, 0, 68, 63
1, 63313, Control_c, 0, 64, 113
1, 63333, Control_c, 0, 64, 107
1, 63350, Control_c, 0, 64, 90
1, 63370, Control_c, 0, 64, 63
1, 63386, Control_c, 0, 64, 0
1, 63479, Control_c, 0, 64, 31
1, 63498, Control_c, 0, 64, 49
1, 63517, Control_c, 0, 64, 61
1, 63525, Note_off_c, 0, 56, 52
1, 63528, Note_off_c, 0, 60, 42
1, 63536, Control_c, 0, 64, 69
1, 63539, Note_off_c, 0, 66, 39
1, 63552, Control_c, 0, 64, 76
1, 63571, Control_c, 0, 64, 82
1, 63590, Control_c, 0, 64, 88
1, 63608, Control_c, 0, 64, 94
1, 63625, Control_c, 0, 64, 98
1, 63699, Control_c, 0, 64, 93
1, 63719, Control_c, 0, 64, 78
1, 63738, Control_c, 0, 64, 59
1, 63751, Note_on_c, 0, 65, 44
1, 63753, Note_on_c, 0, 61, 39
1, 63756, Control_c, 0, 64, 44
1, 63772, Control_c, 0, 64, 50
1, 63776, Note_on_c, 0, 56, 27
1, 63792, Control_c, 0, 64, 60
1, 63810, Control_c, 0, 64, 70
1, 63817, Note_off_c, 0, 65, 63
1, 63829, Control_c, 0, 64, 78
1, 63846, Control_c, 0, 64, 88
1, 63855, Note_off_c, 0, 61, 61
1, 63864, Control_c, 0, 64, 100
1, 63867, Note_off_c, 0, 80, 62
1, 63872, Note_off_c, 0, 56, 63
1, 63883, Control_c, 0, 64, 111
1, 63903, Control_c, 0, 64, 116
1, 63946, Note_off_c, 0, 68, 62
1, 64137, Control_c, 0, 64, 108
1, 64152, Note_on_c, 0, 37, 47
1, 64155, Control_c, 0, 64, 93
1, 64175, Control_c, 0, 64, 74
1, 64194, Control_c, 0, 64, 57
1, 64219, Note_on_c, 0, 65, 70
1, 64225, Control_c, 0, 64, 66
1, 64238, Note_on_c, 0, 49, 28
1, 64241, Control_c, 0, 64, 76
1, 64259, Note_off_c, 0, 37, 61
1, 64260, Control_c, 0, 64, 89
1, 64279, Control_c, 0, 64, 101
1, 64292, Note_off_c, 0, 49, 60
1, 64297, Control_c, 0, 64, 108
1, 64400, Note_on_c, 0, 66, 79
1, 64416, Note_off_c, 0, 65, 62
1, 64480, Note_off_c, 0, 66, 65
1, 64614, Note_on_c, 0, 60, 36
1, 64628, Note_on_c, 0, 56, 32
1, 64636, Note_on_c, 0, 80, 70
1, 64643, Note_on_c, 0, 68, 57
1, 64646, Note_on_c, 0, 54, 31
1, 64647, Control_c, 0, 64, 103
1, 64685, Control_c, 0, 64, 91
1, 64702, Control_c, 0, 64, 74
1, 64721, Control_c, 0, 64, 43
1, 64739, Control_c, 0, 64, 0
1, 64849, Control_c, 0, 64, 28
1, 64868, Control_c, 0, 64, 48
1, 64877, Note_off_c, 0, 60, 59
1, 64887, Control_c, 0, 64, 61
1, 64892, Note_off_c, 0, 54, 51
1, 64906, Control_c, 0, 64, 69
1, 64925, Control_c, 0, 64, 78
1, 64941, Control_c, 0, 64, 87
1, 64944, Note_off_c, 0, 56, 36
1, 64960, Control_c, 0, 64, 96
1, 64979, Control_c, 0, 64, 103
1, 65030, Control_c, 0, 64, 107
1, 65191, Note_on_c, 0, 56, 19
1, 65197, Control_c, 0, 64, 89
1, 65211, Note_on_c, 0, 61, 40
1, 65213, Note_on_c, 0, 53, 29
1, 65215, Control_c, 0, 64, 65
1, 65235, Control_c, 0, 64, 9
1, 65252, Control_c, 0, 64, 0
1, 65289, Control_c, 0, 64, 23
1, 65307, Control_c, 0, 64, 50
1, 65327, Control_c, 0, 64, 64
1, 65346, Control_c, 0, 64, 73
1, 65364, Control_c, 0, 64, 85
1, 65383, Control_c, 0, 64, 98
1, 65396, Note_off_c, 0, 61, 55
1, 65401, Control_c, 0, 64, 110
1, 65414, Note_off_c, 0, 80, 58
1, 65418, Note_off_c, 0, 53, 45
1, 65418, Control_c, 0, 64, 115
1, 65424, Note_off_c, 0, 56, 48
1, 65509, Control_c, 0, 64, 121
1, 65559, Note_off_c, 0, 68, 60
1, 65852, Note_on_c, 0, 37, 40
1, 65884, Note_on_c, 0, 65, 65
1, 66014, Note_off_c, 0, 37, 53
1, 66145, Note_on_c, 0, 66, 76
1, 66150, Note_off_c, 0, 65, 63
1, 66208, Note_off_c, 0, 66, 62
1, 66239, Control_c, 0, 64, 126
1, 66482, Note_on_c, 0, 44, 49
1, 66505, Note_on_c, 0, 54, 33
1, 66525, Note_on_c, 0, 80, 64
1, 66530, Note_on_c, 0, 68, 57
1, 66589, Control_c, 0, 64, 117
1, 66607, Control_c, 0, 64, 96
1, 66628, Control_c, 0, 64, 68
1, 66644, Control_c, 0, 64, 17
1, 66661, Control_c, 0, 64, 0
1, 66717, Control_c, 0, 64, 26
1, 66736, Control_c, 0, 64, 49
1, 66755, Control_c, 0, 64, 61
1, 66774, Control_c, 0, 64, 67
1, 66792, Control_c, 0, 64, 72
1, 66809, Control_c, 0, 64, 79
1, 66825, Note_off_c, 0, 54, 55
1, 66828, Control_c, 0, 64, 87
1, 66847, Control_c, 0, 64, 93
1, 66898, Control_c, 0, 64, 98
1, 66915, Control_c, 0, 67, 9
1, 66952, Control_c, 0, 67, 15
1, 66972, Control_c, 0, 64, 102
1, 66974, Control_c, 0, 67, 19
1, 66990, Control_c, 0, 67, 23
1, 67009, Control_c, 0, 67, 29
1, 67028, Control_c, 0, 67, 34
1, 67044, Control_c, 0, 67, 39
1, 67064, Control_c, 0, 67, 43
1, 67081, Control_c, 0, 67, 48
1, 67101, Control_c, 0, 67, 53
1, 67119, Control_c, 0, 67, 57
1, 67155, Control_c, 0, 67, 64
1, 67192, Control_c, 0, 67, 68
1, 67212, Control_c, 0, 64, 96
1, 67228, Note_on_c, 0, 53, 40
1, 67228, Control_c, 0, 64, 90
1, 67229, Control_c, 0, 67, 73
1, 67240, Note_on_c, 0, 49, 34
1, 67247, Control_c, 0, 64, 75
1, 67268, Control_c, 0, 64, 45
1, 67269, Control_c, 0, 67, 78
1, 67284, Control_c, 0, 64, 0
1, 67323, Control_c, 0, 67, 82
1, 67375, Control_c, 0, 64, 18
1, 67394, Control_c, 0, 64, 40
1, 67413, Control_c, 0, 64, 53
1, 67432, Control_c, 0, 64, 59
1, 67450, Control_c, 0, 64, 62
1, 67452, Control_c, 0, 67, 86
1, 67469, Control_c, 0, 64, 66
1, 67488, Control_c, 0, 64, 70
1, 67505, Control_c, 0, 64, 77
1, 67523, Control_c, 0, 64, 85
1, 67542, Control_c, 0, 64, 93
1, 67560, Control_c, 0, 64, 97
1, 67595, Control_c, 0, 64, 104
1, 67615, Control_c, 0, 64, 108
1, 67622, Note_off_c, 0, 53, 41
1, 67634, Control_c, 0, 64, 113
1, 67652, Control_c, 0, 64, 117
1, 67689, Control_c, 0, 64, 123
1, 67695, Note_on_c, 0, 73, 44
1, 67704, Note_off_c, 0, 49, 41
1, 67742, Poly_aftertouch_c, 0, 44, 24
1, 67780, Note_off_c, 0, 44, 42
1, 67800, Control_c, 0, 64, 127
1, 67807, Note_off_c, 0, 68, 51
1, 67811, Note_off_c, 0, 80, 36
1, 67861, Note_off_c, 0, 73, 61
1, 68017, Control_c, 0, 67, 91
1, 68053, Control_c, 0, 67, 97
1, 68065, Control_c, 0, 67, 101
1, 68083, Control_c, 0, 67, 106
1, 68102, Control_c, 0, 67, 110
1, 68120, Control_c, 0, 67, 115
1, 68140, Control_c, 0, 67, 120
1, 68158, Control_c, 0, 67, 125
1, 68543, Control_c, 0, 64, 122
1, 68561, Note_on_c, 0, 40, 33
1, 68561, Control_c, 0, 64, 114
1, 68573, Note_on_c, 0, 83, 29
1, 68574, Note_on_c, 0, 28, 33
1, 68574, Note_on_c, 0, 80, 37
1, 68574, Note_on_c, 0, 71, 36
1, 68580, Control_c, 0, 64, 98
1, 68601, Control_c, 0, 64, 72
1, 68619, Control_c, 0, 64, 0
1, 68796, Note_off_c, 0, 28, 50
1, 68798, Control_c, 0, 64, 29
1, 68816, Control_c, 0, 64, 52
1, 68835, Control_c, 0, 64, 65
1, 68854, Control_c, 0, 64, 74
1, 68873, Control_c, 0, 64, 83
1, 68892, Control_c, 0, 64, 87
1, 68907, Note_off_c, 0, 40, 40
1, 68963, Control_c, 0, 64, 98
1, 68984, Control_c, 0, 64, 109
1, 68999, Control_c, 0, 64, 118
1, 69019, Control_c, 0, 64, 122
1, 69094, Control_c, 0, 64, 127
1, 69163, Note_off_c, 0, 71, 39
1, 69200, Note_off_c, 0, 83, 55
1, 69256, Note_off_c, 0, 80, 50
1, 69373, Note_on_c, 0, 69, 39
1, 69387, Note_on_c, 0, 64, 31
1, 69400, Note_on_c, 0, 61, 21
1, 69437, Note_off_c, 0, 69, 59
1, 69449, Note_off_c, 0, 64, 51
1, 69459, Note_off_c, 0, 61, 46
1, 69547, Note_on_c, 0, 85, 56
1, 69563, Note_on_c, 0, 73, 30
1, 69570, Note_on_c, 0, 81, 36
1, 69616, Note_off_c, 0, 73, 47
1, 69634, Note_off_c, 0, 85, 60
1, 69638, Note_off_c, 0, 81, 44
1, 69783, Note_on_c, 0, 63, 48
1, 69796, Note_on_c, 0, 59, 45
1, 69804, Note_on_c, 0, 83, 57
1, 69805, Note_on_c, 0, 68, 35
1, 69818, Note_on_c, 0, 71, 48
1, 69824, Note_on_c, 0, 80, 39
1, 69826, Note_off_c, 0, 63, 62
1, 69846, Note_off_c, 0, 68, 50
1, 69850, Note_off_c, 0, 59, 63
1, 69859, Note_off_c, 0, 80, 54
1, 69876, Note_off_c, 0, 83, 62
1, 69921, Note_off_c, 0, 71, 48
1, 70121, Control_c, 0, 64, 123
1, 70138, Control_c, 0, 64, 104
1, 70156, Control_c, 0, 64, 77
1, 70167, Note_on_c, 0, 40, 42
1, 70172, Control_c, 0, 64, 44
1, 70191, Note_on_c, 0, 81, 54
1, 70191, Control_c, 0, 64, 0
1, 70205, Note_on_c, 0, 78, 48
1, 70207, Note_on_c, 0, 69, 38
1, 70209, Control_c, 0, 64, 18
1, 70230, Control_c, 0, 64, 45
1, 70247, Note_off_c, 0, 40, 61
1, 70248, Control_c, 0, 64, 66
1, 70254, Note_off_c, 0, 69, 57
1, 70268, Control_c, 0, 64, 81
1, 70287, Control_c, 0, 64, 99
1, 70305, Control_c, 0, 64, 112
1, 70315, Note_off_c, 0, 81, 57
1, 70382, Note_on_c, 0, 76, 59
1, 70396, Note_off_c, 0, 78, 50
1, 70396, Note_on_c, 0, 80, 56
1, 70401, Note_on_c, 0, 68, 42
1, 70445, Note_off_c, 0, 76, 52
1, 70461, Note_off_c, 0, 68, 43
1, 70529, Note_off_c, 0, 80, 51
1, 70582, Control_c, 0, 64, 105
1, 70598, Note_on_c, 0, 61, 39
1, 70600, Control_c, 0, 64, 93
1, 70601, Note_on_c, 0, 66, 40
1, 70602, Note_on_c, 0, 57, 47
1, 70605, Note_on_c, 0, 81, 59
1, 70632, Control_c, 0, 64, 73
1, 70643, Note_on_c, 0, 78, 28
1, 70651, Control_c, 0, 64, 40
1, 70657, Note_on_c, 0, 69, 36
1, 70670, Control_c, 0, 64, 0
1, 70763, Control_c, 0, 64, 29
1, 70775, Note_off_c, 0, 66, 60
1, 70779, Note_off_c, 0, 57, 61
1, 70780, Control_c, 0, 64, 51
1, 70798, Control_c, 0, 64, 62
1, 70811, Note_off_c, 0, 61, 39
1, 70818, Control_c, 0, 64, 69
1, 70835, Control_c, 0, 64, 74
1, 70855, Control_c, 0, 64, 80
1, 70861, Note_off_c, 0, 69, 54
1, 70873, Control_c, 0, 64, 85
1, 70892, Note_off_c, 0, 81, 59
1, 70892, Control_c, 0, 64, 91
1, 70911, Control_c, 0, 64, 97
1, 70929, Control_c, 0, 64, 102
1, 70943, Note_off_c, 0, 78, 42
1, 70946, Control_c, 0, 64, 106
1, 71002, Control_c, 0, 64, 110
1, 71044, Note_on_c, 0, 56, 43
1, 71047, Note_on_c, 0, 64, 47
1, 71055, Note_on_c, 0, 59, 40
1, 71057, Control_c, 0, 64, 114
1, 71092, Note_off_c, 0, 64, 63
1, 71098, Note_off_c, 0, 56, 60
1, 71107, Note_off_c, 0, 59, 64
1, 71224, Note_on_c, 0, 80, 63
1, 71229, Note_on_c, 0, 76, 55
1, 71236, Note_on_c, 0, 68, 51
1, 71280, Note_off_c, 0, 76, 65
1, 71284, Note_off_c, 0, 68, 60
1, 71314, Note_off_c, 0, 80, 59
1, 71372, Control_c, 0, 64, 105
1, 71391, Control_c, 0, 64, 86
1, 71410, Control_c, 0, 64, 66
1, 71430, Control_c, 0, 64, 57
1, 71434, Note_on_c, 0, 40, 41
1, 71435, Note_on_c, 0, 78, 60
1, 71448, Note_on_c, 0, 66, 42
1, 71448, Control_c, 0, 64, 61
1, 71449, Note_on_c, 0, 75, 53
1, 71465, Control_c, 0, 64, 67
1, 71483, Note_off_c, 0, 66, 55
1, 71483, Control_c, 0, 64, 75
1, 71497, Note_off_c, 0, 40, 61
1, 71500, Control_c, 0, 64, 85
1, 71520, Control_c, 0, 64, 94
1, 71540, Control_c, 0, 64, 101
1, 71553, Note_off_c, 0, 75, 60
1, 71570, Note_off_c, 0, 78, 57
1, 71590, Control_c, 0, 64, 105
1, 71636, Note_on_c, 0, 80, 64
1, 71664, Note_on_c, 0, 76, 43
1, 71687, Note_on_c, 0, 68, 11
1, 71716, Note_off_c, 0, 76, 61
1, 71726, Note_off_c, 0, 80, 56
1, 71755, Note_off_c, 0, 68, 50
1, 71811, Control_c, 0, 64, 99
1, 71829, Control_c, 0, 64, 90
1, 71847, Note_on_c, 0, 57, 39
1, 71848, Control_c, 0, 64, 73
1, 71855, Note_on_c, 0, 75, 49
1, 71860, Note_on_c, 0, 78, 44
1, 71866, Note_on_c, 0, 63, 32
1, 71866, Control_c, 0, 64, 46
1, 71870, Note_on_c, 0, 54, 25
1, 71885, Control_c, 0, 64, 0
1, 71892, Note_on_c, 0, 66, 31
1, 71960, Control_c, 0, 64, 25
1, 71977, Control_c, 0, 64, 50
1, 71997, Control_c, 0, 64, 63
1, 72000, Note_off_c, 0, 63, 58
1, 72016, Control_c, 0, 64, 71
1, 72031, Note_off_c, 0, 75, 63
1, 72032, Control_c, 0, 64, 81
1, 72051, Control_c, 0, 64, 91
1, 72065, Note_off_c, 0, 78, 60
1, 72066, Note_off_c, 0, 54, 42
1, 72068, Control_c, 0, 64, 101
1, 72088, Control_c, 0, 64, 108
1, 72124, Control_c, 0, 64, 112
1, 72143, Note_off_c, 0, 57, 38
1, 72146, Note_off_c, 0, 66, 40
1, 72180, Control_c, 0, 64, 119
1, 72217, Control_c, 0, 64, 123
1, 72311, Note_on_c, 0, 56, 38
1, 72311, Note_on_c, 0, 61, 34
1, 72317, Note_on_c, 0, 52, 37
1, 72368, Note_off_c, 0, 61, 53
1, 72393, Note_off_c, 0, 56, 55
1, 72431, Note_off_c, 0, 52, 57
1, 72487, Note_on_c, 0, 76, 57
1, 72507, Note_on_c, 0, 64, 52
1, 72521, Note_on_c, 0, 73, 54
1, 72552, Note_off_c, 0, 64, 62
1, 72563, Control_c, 0, 64, 127
1, 72608, Note_off_c, 0, 76, 60
1, 72638, Note_off_c, 0, 73, 62
1, 72746, Control_c, 0, 64, 112
1, 72762, Note_on_c, 0, 75, 59
1, 72765, Control_c, 0, 64, 87
1, 72765, Note_on_c, 0, 40, 43
1, 72769, Note_on_c, 0, 63, 46
1, 72783, Control_c, 0, 64, 63
1, 72786, Note_on_c, 0, 71, 31
1, 72803, Control_c, 0, 64, 56
1, 72820, Control_c, 0, 64, 62
1, 72838, Control_c, 0, 64, 72
1, 72857, Control_c, 0, 64, 87
1, 72870, Note_off_c, 0, 40, 55
1, 72871, Note_off_c, 0, 71, 38
1, 72875, Control_c, 0, 64, 106
1, 72880, Note_off_c, 0, 63, 30
1, 72895, Note_off_c, 0, 75, 61
1, 72895, Control_c, 0, 64, 121
1, 72913, Control_c, 0, 64, 127
1, 72977, Note_on_c, 0, 76, 65
1, 73001, Note_on_c, 0, 64, 46
1, 73003, Note_on_c, 0, 73, 45
1, 73036, Note_off_c, 0, 76, 59
1, 73040, Note_off_c, 0, 64, 63
1, 73060, Note_off_c, 0, 73, 58
1, 73245, Note_on_c, 0, 58, 38
1, 73246, Control_c, 0, 64, 111
1, 73252, Note_on_c, 0, 54, 35
1, 73262, Note_on_c, 0, 49, 41
1, 73263, Control_c, 0, 64, 85
1, 73280, Control_c, 0, 64, 53
1, 73286, Note_on_c, 0, 61, 40
1, 73286, Note_on_c, 0, 73, 55
1, 73293, Note_on_c, 0, 70, 50
1, 73298, Control_c, 0, 64, 0
1, 73310, Note_off_c, 0, 58, 57
1, 73337, Control_c, 0, 64, 28
1, 73356, Control_c, 0, 64, 53
1, 73367, Note_off_c, 0, 54, 60
1, 73374, Control_c, 0, 64, 67
1, 73394, Control_c, 0, 64, 79
1, 73412, Control_c, 0, 64, 94
1, 73444, Control_c, 0, 64, 111
1, 73449, Note_off_c, 0, 49, 50
1, 73457, Note_off_c, 0, 61, 56
1, 73463, Control_c, 0, 64, 125
1, 73561, Note_off_c, 0, 70, 57
1, 73596, Note_off_c, 0, 73, 60
1, 73876, Note_on_c, 0, 40, 56
1, 74014, Control_c, 0, 67, 119
1, 74052, Control_c, 0, 67, 114
1, 74087, Note_on_c, 0, 78, 75
1, 74100, Note_on_c, 0, 66, 65
1, 74126, Control_c, 0, 67, 109
1, 74162, Control_c, 0, 67, 103
1, 74199, Control_c, 0, 67, 97
1, 74218, Note_off_c, 0, 66, 60
1, 74227, Note_off_c, 0, 78, 54
1, 74379, Control_c, 0, 64, 118
1, 74379, Note_on_c, 0, 28, 58
1, 74398, Control_c, 0, 64, 87
1, 74412, Note_on_c, 0, 71, 59
1, 74416, Note_on_c, 0, 75, 69
1, 74417, Control_c, 0, 64, 52
1, 74432, Note_on_c, 0, 63, 59
1, 74436, Control_c, 0, 64, 0
1, 74473, Control_c, 0, 64, 41
1, 74490, Control_c, 0, 64, 64
1, 74500, Note_off_c, 0, 28, 62
1, 74510, Control_c, 0, 64, 78
1, 74512, Control_c, 0, 67, 90
1, 74529, Control_c, 0, 64, 97
1, 74531, Control_c, 0, 67, 84
1, 74547, Control_c, 0, 64, 115
1, 74548, Control_c, 0, 67, 76
1, 74555, Note_off_c, 0, 40, 58
1, 74564, Control_c, 0, 64, 125
1, 74565, Control_c, 0, 67, 66
1, 74574, Note_off_c, 0, 63, 60
1, 74581, Control_c, 0, 67, 58
1, 74584, Note_off_c, 0, 71, 54
1, 74593, Note_off_c, 0, 75, 64
1, 74600, Control_c, 0, 67, 51
1, 74619, Control_c, 0, 67, 44
1, 74637, Control_c, 0, 67, 39
1, 74659, Note_on_c, 0, 76, 79
1, 74669, Note_on_c, 0, 64, 63
1, 74671, Note_on_c, 0, 73, 53
1, 74716, Note_off_c, 0, 64, 64
1, 74720, Note_off_c, 0, 73, 59
1, 74740, Note_off_c, 0, 76, 64
1, 74868, Note_on_c, 0, 58, 57
1, 74876, Control_c, 0, 64, 119
1, 74880, Note_on_c, 0, 54, 59
1, 74882, Note_on_c, 0, 73, 78
1, 74892, Note_on_c, 0, 70, 69
1, 74895, Control_c, 0, 64, 91
1, 74897, Note_on_c, 0, 61, 63
1, 74903, Note_on_c, 0, 49, 60
1, 74914, Control_c, 0, 64, 67
1, 74927, Note_off_c, 0, 58, 62
1, 74930, Control_c, 0, 64, 58
1, 74949, Control_c, 0, 64, 65
1, 74956, Note_off_c, 0, 54, 60
1, 74968, Control_c, 0, 64, 77
1, 74987, Control_c, 0, 64, 95
1, 74990, Note_off_c, 0, 49, 61
1, 75005, Control_c, 0, 64, 119
1, 75013, Note_off_c, 0, 61, 59
1, 75024, Control_c, 0, 64, 127
1, 75096, Control_c, 0, 67, 35
1, 75126, Note_off_c, 0, 70, 59
1, 75148, Note_off_c, 0, 73, 59
1, 75207, Control_c, 0, 67, 40
1, 75226, Control_c, 0, 64, 120
1, 75245, Control_c, 0, 64, 108
1, 75265, Control_c, 0, 64, 97
1, 75266, Control_c, 0, 67, 45
1, 75281, Control_c, 0, 64, 91
1, 75282, Control_c, 0, 67, 49
1, 75286, Note_on_c, 0, 40, 63
1, 75292, Note_on_c, 0, 28, 64
1, 75300, Control_c, 0, 67, 58
1, 75335, Control_c, 0, 64, 97
1, 75336, Control_c, 0, 67, 69
1, 75352, Control_c, 0, 64, 106
1, 75353, Control_c, 0, 67, 75
1, 75369, Control_c, 0, 64, 116
1, 75389, Control_c, 0, 64, 123
1, 75432, Note_off_c, 0, 40, 60
1, 75517, Note_on_c, 0, 78, 83
1, 75517, Control_c, 0, 64, 127
1, 75524, Note_on_c, 0, 66, 72
1, 75595, Note_off_c, 0, 66, 50
1, 75610, Note_on_c, 0, 27, 65
1, 75626, Note_off_c, 0, 78, 58
1, 75651, Note_off_c, 0, 28, 57
1, 75701, Control_c, 0, 64, 97
1, 75719, Control_c, 0, 64, 64
1, 75727, Note_on_c, 0, 39, 65
1, 75738, Control_c, 0, 64, 20
1, 75745, Note_on_c, 0, 78, 80
1, 75757, Note_on_c, 0, 71, 70
1, 75757, Note_on_c, 0, 66, 65
1, 75773, Control_c, 0, 64, 42
1, 75789, Note_off_c, 0, 27, 65
1, 75789, Control_c, 0, 64, 62
1, 75809, Control_c, 0, 64, 75
1, 75820, Note_off_c, 0, 66, 59
1, 75826, Control_c, 0, 64, 93
1, 75833, Note_off_c, 0, 39, 62
1, 75846, Control_c, 0, 64, 115
1, 75854, Note_off_c, 0, 78, 61
1, 75861, Control_c, 0, 64, 127
1, 75937, Control_c, 0, 67, 71
1, 75951, Note_on_c, 0, 75, 84
1, 75965, Note_on_c, 0, 63, 70
1, 75988, Note_off_c, 0, 71, 53
1, 75995, Note_on_c, 0, 71, 6
1, 75995, Note_off_c, 0, 71, 127
1, 76023, Note_off_c, 0, 63, 49
1, 76030, Note_off_c, 0, 75, 65
1, 76179, Note_on_c, 0, 51, 58
1, 76182, Note_on_c, 0, 54, 60
1, 76196, Control_c, 0, 64, 118
1, 76200, Note_on_c, 0, 71, 83
1, 76210, Note_on_c, 0, 59, 71
1, 76214, Note_on_c, 0, 66, 65
1, 76214, Control_c, 0, 64, 88
1, 76233, Control_c, 0, 64, 56
1, 76264, Control_c, 0, 64, 28
1, 76284, Control_c, 0, 64, 38
1, 76294, Note_off_c, 0, 54, 63
1, 76301, Control_c, 0, 64, 60
1, 76309, Note_off_c, 0, 51, 63
1, 76320, Control_c, 0, 64, 78
1, 76338, Control_c, 0, 64, 102
1, 76356, Control_c, 0, 64, 127
1, 76361, Note_off_c, 0, 59, 61
1, 76431, Control_c, 0, 67, 65
1, 76443, Note_off_c, 0, 66, 60
1, 76448, Control_c, 0, 67, 61
1, 76457, Note_off_c, 0, 71, 60
1, 76485, Control_c, 0, 67, 56
1, 76541, Control_c, 0, 67, 50
1, 76577, Control_c, 0, 67, 46
1, 76686, Note_on_c, 0, 38, 66
1, 76687, Note_on_c, 0, 26, 60
1, 76859, Note_off_c, 0, 38, 60
1, 76961, Note_on_c, 0, 83, 87
1, 76977, Note_on_c, 0, 78, 65
1, 76985, Note_on_c, 0, 71, 56
1, 77150, Note_on_c, 0, 25, 58
1, 77198, Note_off_c, 0, 26, 40
1, 77208, Note_off_c, 0, 71, 35
1, 77231, Note_off_c, 0, 83, 63
1, 77319, Note_on_c, 0, 37, 57
1, 77326, Control_c, 0, 64, 103
1, 77343, Note_on_c, 0, 83, 87
1, 77346, Control_c, 0, 64, 65
1, 77353, Note_on_c, 0, 80, 68
1, 77354, Note_on_c, 0, 71, 64
1, 77366, Control_c, 0, 64, 0
1, 77389, Note_off_c, 0, 78, 61
1, 77420, Control_c, 0, 64, 45
1, 77425, Note_off_c, 0, 25, 57
1, 77439, Control_c, 0, 64, 66
1, 77454, Note_off_c, 0, 71, 58
1, 77457, Control_c, 0, 64, 85
1, 77475, Note_off_c, 0, 37, 61
1, 77475, Control_c, 0, 64, 112
1, 77493, Control_c, 0, 64, 127
1, 77499, Note_off_c, 0, 80, 64
1, 77519, Note_off_c, 0, 83, 65
1, 77665, Note_on_c, 0, 81, 65
1, 77665, Note_on_c, 0, 85, 81
1, 77665, Note_on_c, 0, 73, 61
1, 77748, Note_off_c, 0, 73, 61
1, 77770, Note_off_c, 0, 85, 64
1, 77784, Note_off_c, 0, 81, 53
1, 77851, Note_on_c, 0, 59, 48
1, 77865, Note_on_c, 0, 62, 39
1, 77884, Note_on_c, 0, 68, 40
1, 77917, Note_on_c, 0, 83, 66
1, 77921, Note_on_c, 0, 80, 56
1, 77927, Note_on_c, 0, 71, 55
1, 77948, Control_c, 0, 64, 122
1, 77968, Control_c, 0, 64, 97
1, 77986, Control_c, 0, 64, 67
1, 78004, Control_c, 0, 64, 0
1, 78079, Control_c, 0, 64, 11
1, 78111, Control_c, 0, 64, 45
1, 78120, Note_off_c, 0, 68, 59
1, 78130, Control_c, 0, 64, 61
1, 78149, Control_c, 0, 64, 70
1, 78167, Control_c, 0, 64, 78
1, 78171, Note_off_c, 0, 59, 57
1, 78184, Control_c, 0, 64, 86
1, 78203, Control_c, 0, 64, 96
1, 78222, Control_c, 0, 64, 106
1, 78240, Control_c, 0, 64, 115
1, 78251, Note_off_c, 0, 80, 61
1, 78258, Control_c, 0, 64, 120
1, 78262, Note_off_c, 0, 83, 62
1, 78284, Note_off_c, 0, 62, 39
1, 78296, Control_c, 0, 64, 126
1, 78311, Note_off_c, 0, 71, 55
1, 78395, Note_on_c, 0, 66, 44
1, 78401, Note_on_c, 0, 57, 46
1, 78402, Note_on_c, 0, 61, 45
1, 78488, Note_off_c, 0, 66, 63
1, 78509, Note_off_c, 0, 61, 61
1, 78532, Note_off_c, 0, 57, 61
1, 78588, Note_on_c, 0, 81, 81
1, 78602, Note_on_c, 0, 69, 64
1, 78606, Note_on_c, 0, 78, 67
1, 78636, Note_off_c, 0, 69, 64
1, 78720, Note_off_c, 0, 81, 63
1, 78749, Note_off_c, 0, 78, 61
1, 78803, Note_on_c, 0, 37, 53
1, 78809, Control_c, 0, 64, 108
1, 78821, Note_on_c, 0, 80, 81
1, 78829, Control_c, 0, 64, 82
1, 78829, Note_on_c, 0, 77, 75
1, 78844, Note_on_c, 0, 68, 58
1, 78848, Control_c, 0, 64, 65
1, 78867, Control_c, 0, 64, 62
1, 78881, Note_off_c, 0, 37, 61
1, 78883, Control_c, 0, 64, 68
1, 78896, Note_off_c, 0, 68, 60
1, 78901, Control_c, 0, 64, 78
1, 78911, Note_off_c, 0, 77, 63
1, 78920, Control_c, 0, 64, 95
1, 78939, Note_off_c, 0, 80, 63
1, 78939, Control_c, 0, 64, 115
1, 78958, Control_c, 0, 64, 127
1, 78996, Control_c, 0, 67, 50
1, 79017, Note_on_c, 0, 78, 82
1, 79035, Note_on_c, 0, 75, 71
1, 79042, Note_on_c, 0, 66, 61
1, 79069, Note_off_c, 0, 66, 63
1, 79106, Note_off_c, 0, 75, 60
1, 79152, Note_off_c, 0, 78, 59
1, 79194, Control_c, 0, 67, 54
1, 79213, Control_c, 0, 64, 118
1, 79232, Control_c, 0, 64, 92
1, 79242, Note_on_c, 0, 80, 72
1, 79247, Note_on_c, 0, 77, 61
1, 79249, Note_on_c, 0, 65, 39
1, 79251, Control_c, 0, 64, 60
1, 79254, Note_on_c, 0, 59, 43
1, 79260, Note_on_c, 0, 68, 53
1, 79261, Note_on_c, 0, 56, 38
1, 79270, Control_c, 0, 64, 0
1, 79302, Note_off_c, 0, 65, 49
1, 79305, Control_c, 0, 64, 36
1, 79321, Note_off_c, 0, 59, 64
1, 79324, Control_c, 0, 64, 64
1, 79344, Control_c, 0, 64, 80
1, 79359, Note_off_c, 0, 56, 63
1, 79359, Control_c, 0, 64, 102
1, 79378, Control_c, 0, 64, 122
1, 79397, Control_c, 0, 64, 127
1, 79441, Note_off_c, 0, 77, 63
1, 79450, Note_off_c, 0, 80, 62
1, 79503, Note_off_c, 0, 68, 57
1, 79627, Note_on_c, 0, 57, 45
1, 79630, Note_on_c, 0, 62, 47
1, 79636, Note_on_c, 0, 54, 54
1, 79674, Note_off_c, 0, 62, 64
1, 79677, Note_off_c, 0, 57, 63
1, 79702, Note_off_c, 0, 54, 59
1, 79711, Control_c, 0, 67, 60
1, 79785, Control_c, 0, 67, 65
1, 79810, Note_on_c, 0, 78, 70
1, 79818, Note_on_c, 0, 74, 61
1, 79834, Note_on_c, 0, 66, 50
1, 79857, Control_c, 0, 67, 69
1, 79895, Note_off_c, 0, 66, 59
1, 79936, Note_off_c, 0, 78, 62
1, 79977, Note_off_c, 0, 74, 54
1, 80001, Control_c, 0, 64, 106
1, 80021, Control_c, 0, 64, 77
1, 80033, Note_on_c, 0, 37, 49
1, 80038, Control_c, 0, 64, 55
1, 80046, Note_on_c, 0, 77, 70
1, 80055, Control_c, 0, 64, 48
1, 80056, Control_c, 0, 67, 73
1, 80057, Note_on_c, 0, 73, 65
1, 80058, Note_on_c, 0, 65, 58
1, 80075, Control_c, 0, 64, 52
1, 80093, Control_c, 0, 64, 61
1, 80099, Note_off_c, 0, 37, 61
1, 80111, Note_off_c, 0, 65, 60
1, 80111, Control_c, 0, 64, 71
1, 80126, Note_off_c, 0, 77, 63
1, 80131, Control_c, 0, 64, 85
1, 80149, Control_c, 0, 64, 102
1, 80168, Control_c, 0, 64, 122
1, 80186, Control_c, 0, 64, 127
1, 80197, Note_off_c, 0, 73, 61
1, 80236, Note_on_c, 0, 78, 74
1, 80242, Note_on_c, 0, 74, 66
1, 80264, Note_on_c, 0, 66, 57
1, 80326, Note_off_c, 0, 66, 48
1, 80332, Note_off_c, 0, 78, 55
1, 80387, Note_off_c, 0, 74, 62
1, 80426, Control_c, 0, 64, 116
1, 80443, Control_c, 0, 64, 85
1, 80461, Control_c, 0, 64, 49
1, 80463, Note_on_c, 0, 61, 36
1, 80466, Note_on_c, 0, 56, 37
1, 80469, Note_on_c, 0, 77, 67
1, 80482, Note_on_c, 0, 73, 53
1, 80482, Control_c, 0, 64, 0
1, 80484, Note_on_c, 0, 53, 38
1, 80494, Note_on_c, 0, 65, 36
1, 80515, Control_c, 0, 64, 34
1, 80534, Control_c, 0, 64, 57
1, 80544, Note_off_c, 0, 61, 60
1, 80552, Control_c, 0, 64, 70
1, 80571, Control_c, 0, 64, 82
1, 80591, Control_c, 0, 64, 97
1, 80609, Control_c, 0, 64, 114
1, 80628, Control_c, 0, 64, 127
1, 80638, Note_off_c, 0, 77, 64
1, 80666, Note_off_c, 0, 53, 33
1, 80680, Note_off_c, 0, 73, 62
1, 80695, Note_off_c, 0, 56, 42
1, 80713, Note_off_c, 0, 65, 55
1, 80869, Note_on_c, 0, 59, 39
1, 80870, Note_on_c, 0, 54, 42
1, 80885, Note_on_c, 0, 50, 42
1, 80930, Note_off_c, 0, 59, 54
1, 80960, Note_off_c, 0, 54, 61
1, 80971, Note_off_c, 0, 50, 62
1, 80973, Control_c, 0, 67, 77
1, 81028, Control_c, 0, 67, 81
1, 81065, Control_c, 0, 67, 89
1, 81082, Note_on_c, 0, 74, 66
1, 81099, Note_on_c, 0, 62, 51
1, 81102, Control_c, 0, 67, 95
1, 81103, Note_on_c, 0, 71, 59
1, 81151, Note_off_c, 0, 62, 56
1, 81176, Control_c, 0, 67, 99
1, 81213, Control_c, 0, 67, 104
1, 81216, Note_off_c, 0, 74, 60
1, 81220, Note_off_c, 0, 71, 60
1, 81249, Control_c, 0, 67, 109
1, 81267, Control_c, 0, 64, 120
1, 81286, Control_c, 0, 64, 92
1, 81287, Control_c, 0, 67, 114
1, 81306, Control_c, 0, 64, 64
1, 81308, Control_c, 0, 67, 119
1, 81324, Control_c, 0, 64, 49
1, 81324, Control_c, 0, 67, 123
1, 81329, Note_on_c, 0, 37, 47
1, 81336, Note_on_c, 0, 73, 62
1, 81339, Note_on_c, 0, 61, 59
1, 81341, Control_c, 0, 64, 56
1, 81342, Note_on_c, 0, 69, 48
1, 81361, Control_c, 0, 64, 68
1, 81362, Control_c, 0, 67, 127
1, 81378, Control_c, 0, 64, 84
1, 81381, Note_off_c, 0, 37, 60
1, 81397, Control_c, 0, 64, 109
1, 81414, Control_c, 0, 64, 127
1, 81429, Note_off_c, 0, 61, 55
1, 81459, Note_off_c, 0, 73, 61
1, 81514, Note_off_c, 0, 69, 33
1, 81537, Note_on_c, 0, 74, 69
1, 81556, Note_on_c, 0, 71, 52
1, 81559, Note_on_c, 0, 62, 53
1, 81627, Note_off_c, 0, 71, 47
1, 81630, Note_off_c, 0, 62, 57
1, 81632, Note_off_c, 0, 74, 60
1, 81799, Note_on_c, 0, 53, 37
1, 81823, Note_on_c, 0, 47, 35
1, 81843, Note_on_c, 0, 56, 35
1, 81847, Note_on_c, 0, 71, 50
1, 81851, Control_c, 0, 64, 118
1, 81857, Note_on_c, 0, 59, 45
1, 81865, Note_on_c, 0, 68, 40
1, 81871, Control_c, 0, 64, 98
1, 81890, Control_c, 0, 64, 72
1, 81909, Control_c, 0, 64, 23
1, 81925, Control_c, 0, 64, 0
1, 82000, Control_c, 0, 64, 36
1, 82019, Control_c, 0, 64, 58
1, 82038, Control_c, 0, 64, 69
1, 82051, Note_off_c, 0, 56, 59
1, 82055, Control_c, 0, 64, 77
1, 82075, Control_c, 0, 64, 84
1, 82076, Note_off_c, 0, 53, 50
1, 82092, Control_c, 0, 64, 89
1, 82111, Control_c, 0, 64, 93
1, 82129, Control_c, 0, 64, 97
1, 82148, Control_c, 0, 64, 102
1, 82165, Control_c, 0, 64, 107
1, 82168, Note_off_c, 0, 47, 39
1, 82184, Control_c, 0, 64, 112
1, 82202, Control_c, 0, 64, 116
1, 82240, Control_c, 0, 64, 121
1, 82296, Control_c, 0, 64, 125
1, 82555, Note_on_c, 0, 37, 38
1, 82609, Note_off_c, 0, 71, 57
1, 82624, Note_off_c, 0, 59, 36
1, 82693, Note_off_c, 0, 68, 50
1, 82875, Note_on_c, 0, 73, 54
1, 82876, Note_on_c, 0, 69, 41
1, 82894, Note_off_c, 0, 37, 40
1, 82912, Note_on_c, 0, 61, 23
1, 82976, Note_off_c, 0, 61, 44
1, 82981, Note_off_c, 0, 73, 59
1, 83037, Note_off_c, 0, 69, 58
1, 83076, Note_on_c, 0, 26, 39
1, 83084, Control_c, 0, 64, 120
1, 83099, Control_c, 0, 64, 105
1, 83108, Note_on_c, 0, 38, 33
1, 83117, Control_c, 0, 64, 78
1, 83137, Control_c, 0, 64, 44
1, 83156, Control_c, 0, 64, 12
1, 83173, Control_c, 0, 64, 26
1, 83180, Note_on_c, 0, 71, 60
1, 83187, Note_on_c, 0, 68, 43
1, 83188, Note_on_c, 0, 59, 48
1, 83192, Control_c, 0, 64, 52
1, 83207, Note_off_c, 0, 26, 57
1, 83210, Control_c, 0, 64, 69
1, 83231, Control_c, 0, 64, 82
1, 83242, Note_off_c, 0, 59, 62
1, 83246, Control_c, 0, 64, 99
1, 83266, Control_c, 0, 64, 113
1, 83268, Note_off_c, 0, 71, 61
1, 83284, Control_c, 0, 64, 119
1, 83306, Note_off_c, 0, 38, 40
1, 83325, Note_off_c, 0, 68, 57
1, 83407, Note_on_c, 0, 73, 57
1, 83409, Note_on_c, 0, 69, 46
1, 83424, Note_on_c, 0, 61, 45
1, 83431, Control_c, 0, 64, 123
1, 83491, Note_off_c, 0, 73, 60
1, 83495, Note_off_c, 0, 61, 49
1, 83513, Note_off_c, 0, 69, 61
1, 83615, Control_c, 0, 64, 113
1, 83634, Control_c, 0, 64, 92
1, 83655, Control_c, 0, 64, 64
1, 83656, Note_on_c, 0, 54, 38
1, 83664, Note_on_c, 0, 69, 53
1, 83664, Note_on_c, 0, 57, 45
1, 83669, Note_on_c, 0, 66, 44
1, 83672, Note_on_c, 0, 45, 27
1, 83675, Control_c, 0, 64, 0
1, 83722, Control_c, 0, 64, 30
1, 83742, Control_c, 0, 64, 56
1, 83748, Note_off_c, 0, 54, 61
1, 83759, Control_c, 0, 64, 68
1, 83779, Control_c, 0, 64, 76
1, 83796, Control_c, 0, 64, 82
1, 83803, Note_off_c, 0, 45, 56
1, 83814, Control_c, 0, 64, 86
1, 83833, Control_c, 0, 64, 91
1, 83852, Control_c, 0, 64, 95
1, 83870, Control_c, 0, 64, 100
1, 83908, Control_c, 0, 64, 105
1, 83951, Note_off_c, 0, 57, 33
1, 83961, Control_c, 0, 64, 111
1, 83988, Note_off_c, 0, 69, 61
1, 84080, Note_on_c, 0, 38, 47
1, 84233, Note_off_c, 0, 66, 41
1, 84293, Note_on_c, 0, 71, 57
1, 84298, Note_on_c, 0, 59, 50
1, 84310, Note_off_c, 0, 38, 38
1, 84318, Note_on_c, 0, 68, 41
1, 84341, Note_off_c, 0, 59, 58
1, 84364, Note_off_c, 0, 71, 48
1, 84404, Note_off_c, 0, 68, 50
1, 84430, Note_on_c, 0, 28, 42
1, 84479, Control_c, 0, 64, 95
1, 84494, Control_c, 0, 64, 74
1, 84513, Control_c, 0, 64, 48
1, 84532, Control_c, 0, 64, 36
1, 84536, Note_on_c, 0, 69, 57
1, 84545, Note_on_c, 0, 57, 43
1, 84549, Note_on_c, 0, 40, 32
1, 84551, Control_c, 0, 64, 44
1, 84554, Note_on_c, 0, 66, 43
1, 84570, Control_c, 0, 64, 59
1, 84587, Control_c, 0, 64, 72
1, 84596, Note_off_c, 0, 28, 52
1, 84607, Control_c, 0, 64, 87
1, 84615, Note_off_c, 0, 57, 58
1, 84626, Control_c, 0, 64, 102
1, 84636, Note_off_c, 0, 69, 59
1, 84657, Control_c, 0, 64, 113
1, 84687, Note_off_c, 0, 40, 52
1, 84761, Note_on_c, 0, 71, 70
1, 84776, Note_on_c, 0, 59, 54
1, 84821, Note_off_c, 0, 59, 64
1, 84858, Note_off_c, 0, 66, 43
1, 84869, Note_off_c, 0, 71, 59
1, 85020, Note_on_c, 0, 44, 40
1, 85021, Note_on_c, 0, 52, 40
1, 85039, Note_on_c, 0, 68, 59
1, 85045, Control_c, 0, 64, 108
1, 85053, Note_on_c, 0, 64, 42
1, 85064, Control_c, 0, 64, 102
1, 85069, Note_on_c, 0, 56, 37
1, 85082, Control_c, 0, 64, 95
1, 85100, Control_c, 0, 64, 87
1, 85117, Control_c, 0, 64, 74
1, 85136, Control_c, 0, 64, 53
1, 85154, Control_c, 0, 64, 0
1, 85246, Control_c, 0, 67, 123
1, 85247, Note_off_c, 0, 52, 54
1, 85265, Control_c, 0, 64, 29
1, 85284, Control_c, 0, 64, 52
1, 85304, Control_c, 0, 64, 63
1, 85305, Control_c, 0, 67, 118
1, 85321, Control_c, 0, 64, 69
1, 85341, Control_c, 0, 64, 73
1, 85342, Control_c, 0, 67, 113
1, 85357, Control_c, 0, 64, 78
1, 85358, Control_c, 0, 67, 109
1, 85359, Note_off_c, 0, 44, 54
1, 85375, Control_c, 0, 64, 83
1, 85376, Control_c, 0, 67, 104
1, 85395, Control_c, 0, 64, 88
1, 85396, Control_c, 0, 67, 97
1, 85412, Control_c, 0, 64, 94
1, 85413, Control_c, 0, 67, 89
1, 85430, Control_c, 0, 64, 101
1, 85431, Control_c, 0, 67, 80
1, 85448, Control_c, 0, 64, 107
1, 85449, Control_c, 0, 67, 70
1, 85467, Control_c, 0, 64, 113
1, 85470, Note_off_c, 0, 56, 41
1, 85470, Control_c, 0, 67, 61
1, 85485, Control_c, 0, 67, 54
1, 85505, Control_c, 0, 64, 118
1, 85522, Control_c, 0, 67, 49
1, 85531, Note_off_c, 0, 64, 53
1, 85560, Control_c, 0, 64, 122
1, 85648, Control_c, 0, 67, 45
1, 85683, Control_c, 0, 64, 127
1, 85691, Note_on_c, 0, 40, 37
1, 85986, Note_on_c, 0, 66, 55
1, 85999, Note_on_c, 0, 62, 44
1, 86036, Note_off_c, 0, 68, 60
1, 86083, Note_off_c, 0, 62, 54
1, 86104, Note_off_c, 0, 66, 62
1, 86531, Note_on_c, 0, 33, 36
1, 86645, Note_on_c, 0, 76, 69
1, 86676, Note_on_c, 0, 69, 42
1, 86676, Note_on_c, 0, 73, 50
1, 86678, Note_off_c, 0, 40, 38
1, 86748, Control_c, 0, 64, 104
1, 86766, Control_c, 0, 64, 74
1, 86785, Control_c, 0, 64, 28
1, 86803, Control_c, 0, 64, 0
1, 86858, Control_c, 0, 64, 36
1, 86877, Control_c, 0, 64, 55
1, 86896, Control_c, 0, 64, 65
1, 86913, Control_c, 0, 64, 72
1, 86928, Note_off_c, 0, 33, 53
1, 86931, Control_c, 0, 64, 80
1, 86951, Control_c, 0, 64, 88
1, 86970, Control_c, 0, 64, 98
1, 86986, Control_c, 0, 64, 107
1, 87006, Control_c, 0, 64, 112
1, 87043, Control_c, 0, 64, 118
1, 87079, Control_c, 0, 64, 122
1, 87116, Control_c, 0, 64, 126
1, 87123, Note_off_c, 0, 73, 61
1, 87428, Note_on_c, 0, 62, 39
1, 87461, Note_on_c, 0, 66, 43
1, 87469, Note_on_c, 0, 57, 31
1, 87537, Control_c, 0, 67, 41
1, 87576, Note_off_c, 0, 76, 56
1, 87638, Note_off_c, 0, 66, 60
1, 87643, Note_on_c, 0, 78, 63
1, 87662, Note_on_c, 0, 74, 53
1, 87694, Note_off_c, 0, 74, 64
1, 87793, Note_off_c, 0, 62, 43
1, 87839, Note_off_c, 0, 78, 56
1, 87846, Control_c, 0, 64, 120
1, 87866, Control_c, 0, 64, 97
1, 87876, Note_on_c, 0, 76, 76
1, 87885, Control_c, 0, 64, 74
1, 87890, Note_on_c, 0, 64, 48
1, 87890, Note_on_c, 0, 61, 43
1, 87899, Note_on_c, 0, 73, 52
1, 87903, Control_c, 0, 64, 67
1, 87921, Control_c, 0, 64, 72
1, 87940, Control_c, 0, 64, 84
1, 87960, Control_c, 0, 64, 102
1, 87975, Note_off_c, 0, 64, 55
1, 87977, Note_off_c, 0, 61, 60
1, 87978, Control_c, 0, 64, 121
1, 87996, Control_c, 0, 64, 127
1, 88007, Note_off_c, 0, 57, 52
1, 88124, Control_c, 0, 67, 37
1, 88253, Control_c, 0, 64, 113
1, 88268, Note_on_c, 0, 45, 57
1, 88271, Control_c, 0, 64, 85
1, 88291, Control_c, 0, 64, 62
1, 88293, Control_c, 0, 67, 33
1, 88306, Control_c, 0, 64, 55
1, 88327, Control_c, 0, 64, 60
1, 88344, Control_c, 0, 64, 70
1, 88363, Control_c, 0, 64, 83
1, 88381, Control_c, 0, 64, 101
1, 88398, Control_c, 0, 67, 27
1, 88412, Note_off_c, 0, 45, 62
1, 88417, Control_c, 0, 64, 121
1, 88418, Control_c, 0, 67, 17
1, 88434, Control_c, 0, 64, 127
1, 88452, Control_c, 0, 67, 0
1, 88473, Note_on_c, 0, 78, 76
1, 88552, Note_off_c, 0, 73, 62
1, 88586, Note_off_c, 0, 69, 38
1, 88603, Note_off_c, 0, 76, 55
1, 88633, Note_off_c, 0, 78, 58
1, 88704, Note_on_c, 0, 61, 43
1, 88712, Note_on_c, 0, 67, 36
1, 88728, Note_on_c, 0, 57, 37
1, 88735, Note_on_c, 0, 79, 70
1, 88738, Note_on_c, 0, 73, 57
1, 88753, Note_on_c, 0, 69, 46
1, 88767, Control_c, 0, 64, 115
1, 88785, Control_c, 0, 64, 99
1, 88802, Control_c, 0, 64, 78
1, 88821, Control_c, 0, 64, 53
1, 88840, Control_c, 0, 64, 0
1, 88914, Control_c, 0, 64, 34
1, 88933, Control_c, 0, 64, 57
1, 88950, Control_c, 0, 64, 69
1, 88968, Control_c, 0, 64, 81
1, 88970, Note_off_c, 0, 69, 54
1, 88987, Control_c, 0, 64, 93
1, 89006, Control_c, 0, 64, 105
1, 89025, Control_c, 0, 64, 114
1, 89062, Control_c, 0, 64, 118
1, 89065, Note_off_c, 0, 73, 54
1, 89080, Note_off_c, 0, 79, 58
1, 89116, Control_c, 0, 64, 126
1, 89195, Note_on_c, 0, 64, 53
1, 89259, Note_off_c, 0, 67, 53
1, 89280, Poly_aftertouch_c, 0, 61, 24
1, 89285, Note_off_c, 0, 64, 62
1, 89292, Note_off_c, 0, 61, 59
1, 89352, Note_off_c, 0, 57, 52
1, 89579, Note_on_c, 0, 44, 53
1, 89648, Note_on_c, 0, 80, 80
1, 89648, Control_c, 0, 64, 106
1, 89660, Note_on_c, 0, 77, 59
1, 89667, Control_c, 0, 64, 60
1, 89677, Note_on_c, 0, 73, 46
1, 89685, Control_c, 0, 64, 0
1, 89740, Control_c, 0, 64, 9
1, 89758, Control_c, 0, 64, 55
1, 89768, Note_off_c, 0, 44, 64
1, 89776, Control_c, 0, 64, 75
1, 89797, Control_c, 0, 64, 93
1, 89814, Control_c, 0, 64, 113
1, 89832, Control_c, 0, 64, 127
1, 89974, Note_off_c, 0, 77, 52
1, 90090, Note_off_c, 0, 80, 33
1, 90101, Note_on_c, 0, 66, 70
1, 90110, Note_on_c, 0, 61, 51
1, 90128, Note_on_c, 0, 58, 57
1, 90223, Note_off_c, 0, 58, 60
1, 90273, Note_on_c, 0, 82, 82
1, 90278, Note_on_c, 0, 78, 70
1, 90294, Note_off_c, 0, 66, 63
1, 90396, Note_off_c, 0, 78, 59
1, 90418, Note_off_c, 0, 82, 62
1, 90481, Note_on_c, 0, 65, 60
1, 90487, Note_on_c, 0, 56, 76
1, 90491, Note_on_c, 0, 80, 84
1, 90496, Note_on_c, 0, 77, 70
1, 90508, Note_off_c, 0, 65, 64
1, 90523, Note_off_c, 0, 61, 62
1, 90549, Note_off_c, 0, 56, 64
1, 90714, Note_off_c, 0, 77, 60
1, 90786, Control_c, 0, 64, 114
1, 90805, Control_c, 0, 64, 77
1, 90821, Control_c, 0, 64, 0
1, 90825, Note_on_c, 0, 37, 66
1, 90837, Note_on_c, 0, 49, 68
1, 90875, Note_off_c, 0, 37, 64
1, 90876, Control_c, 0, 64, 47
1, 90896, Control_c, 0, 64, 69
1, 90916, Control_c, 0, 64, 89
1, 90925, Note_off_c, 0, 49, 61
1, 90933, Control_c, 0, 64, 116
1, 90952, Control_c, 0, 64, 127
1, 90976, Note_off_c, 0, 80, 59
1, 91032, Note_on_c, 0, 82, 83
1, 91036, Note_on_c, 0, 78, 75
1, 91104, Note_off_c, 0, 78, 61
1, 91113, Note_on_c, 0, 56, 48
1, 91117, Note_off_c, 0, 73, 43
1, 91125, Note_on_c, 0, 59, 57
1, 91152, Note_off_c, 0, 82, 63
1, 91247, Note_on_c, 0, 66, 65
1, 91276, Note_on_c, 0, 83, 84
1, 91284, Note_on_c, 0, 73, 72
1, 91290, Note_on_c, 0, 80, 71
1, 91298, Control_c, 0, 64, 97
1, 91316, Control_c, 0, 64, 64
1, 91335, Control_c, 0, 64, 0
1, 91388, Control_c, 0, 64, 47
1, 91408, Control_c, 0, 64, 67
1, 91426, Control_c, 0, 64, 82
1, 91444, Note_off_c, 0, 83, 64
1, 91445, Control_c, 0, 64, 102
1, 91446, Note_off_c, 0, 66, 61
1, 91449, Note_off_c, 0, 73, 58
1, 91464, Control_c, 0, 64, 118
1, 91482, Control_c, 0, 64, 124
1, 91516, Note_off_c, 0, 80, 62
1, 91665, Note_on_c, 0, 65, 76
1, 91699, Note_off_c, 0, 65, 68
1, 91714, Note_off_c, 0, 59, 63
1, 91733, Note_off_c, 0, 56, 62
1, 91821, Note_on_c, 0, 85, 89
1, 91828, Note_on_c, 0, 73, 83
1, 91830, Note_on_c, 0, 82, 78
1, 91888, Note_off_c, 0, 73, 60
1, 91916, Note_off_c, 0, 82, 61
1, 91925, Note_off_c, 0, 85, 62
1, 92015, Note_on_c, 0, 37, 73
1, 92053, Control_c, 0, 64, 104
1, 92069, Note_on_c, 0, 87, 87
1, 92070, Note_on_c, 0, 83, 77
1, 92071, Control_c, 0, 64, 69
1, 92073, Note_on_c, 0, 75, 82
1, 92088, Control_c, 0, 64, 32
1, 92108, Control_c, 0, 64, 39
1, 92116, Note_off_c, 0, 37, 62
1, 92124, Control_c, 0, 64, 62
1, 92160, Control_c, 0, 64, 87
1, 92178, Control_c, 0, 64, 127
1, 92306, Note_off_c, 0, 75, 60
1, 92330, Note_off_c, 0, 83, 59
1, 92385, Note_off_c, 0, 87, 60
1, 92422, Note_on_c, 0, 59, 62
1, 92470, Note_on_c, 0, 65, 70
1, 92569, Note_on_c, 0, 70, 86
1, 92760, Note_off_c, 0, 65, 61
1, 92805, Note_on_c, 0, 89, 92
1, 92810, Note_on_c, 0, 77, 85
1, 92814, Note_on_c, 0, 85, 82
1, 92925, Note_off_c, 0, 77, 61
1, 92946, Note_off_c, 0, 89, 63
1, 92989, Note_off_c, 0, 85, 62
1, 93088, Note_on_c, 0, 90, 92
1, 93090, Note_on_c, 0, 66, 75
1, 93092, Note_on_c, 0, 87, 83
1, 93095, Note_off_c, 0, 70, 66
1, 93095, Note_on_c, 0, 78, 87
1, 93131, Note_off_c, 0, 66, 66
1, 93163, Note_off_c, 0, 59, 63
1, 93171, Note_off_c, 0, 78, 60
1, 93189, Note_off_c, 0, 87, 61
1, 93189, Note_off_c, 0, 90, 64
1, 93270, Note_on_c, 0, 89, 87
1, 93273, Note_on_c, 0, 92, 90
1, 93274, Note_on_c, 0, 80, 83
1, 93351, Note_off_c, 0, 80, 60
1, 93364, Note_off_c, 0, 89, 64
1, 93368, Note_off_c, 0, 92, 66
1, 93458, Note_on_c, 0, 90, 88
1, 93463, Note_on_c, 0, 94, 86
1, 93463, Note_on_c, 0, 82, 82
1, 93468, Note_on_c, 0, 85, 81
1, 93474, Note_on_c, 0, 42, 75
1, 93476, Note_on_c, 0, 30, 73
1, 93512, Note_on_c, 0, 92, 35
1, 93517, Control_c, 0, 64, 80
1, 93536, Control_c, 0, 64, 0
1, 93556, Note_off_c, 0, 92, 57
1, 93568, Note_off_c, 0, 30, 62
1, 93594, Control_c, 0, 64, 75
1, 93603, Note_off_c, 0, 42, 65
1, 93610, Control_c, 0, 64, 127
1, 93755, Note_off_c, 0, 82, 57
1, 93790, Note_off_c, 0, 94, 52
1, 93850, Note_off_c, 0, 85, 58
1, 93921, Note_on_c, 0, 73, 82
1, 93927, Note_on_c, 0, 66, 73
1, 93946, Note_on_c, 0, 61, 73
1, 93976, Note_off_c, 0, 73, 64
1, 93996, Note_off_c, 0, 66, 65
1, 94030, Note_off_c, 0, 61, 64
1, 94113, Note_off_c, 0, 90, 29
1, 94357, Note_on_c, 0, 43, 86
1, 94358, Note_on_c, 0, 31, 83
1, 94374, Note_on_c, 0, 93, 97
1, 94374, Note_on_c, 0, 85, 90
1, 94376, Note_on_c, 0, 88, 89
1, 94377, Note_on_c, 0, 81, 95
1, 94399, Control_c, 0, 64, 95
1, 94416, Control_c, 0, 64, 29
1, 94435, Control_c, 0, 64, 0
1, 94468, Note_off_c, 0, 31, 62
1, 94472, Control_c, 0, 64, 64
1, 94490, Control_c, 0, 64, 127
1, 94523, Note_off_c, 0, 43, 64
1, 94673, Note_off_c, 0, 93, 58
1, 94698, Note_off_c, 0, 81, 55
1, 94779, Note_off_c, 0, 88, 56
1, 94783, Note_off_c, 0, 85, 55
1, 94861, Note_on_c, 0, 73, 89
1, 94867, Note_on_c, 0, 64, 70
1, 94883, Note_on_c, 0, 61, 69
1, 94964, Note_off_c, 0, 73, 66
1, 95001, Note_off_c, 0, 64, 63
1, 95013, Note_off_c, 0, 61, 63
1, 95518, Note_on_c, 0, 44, 84
1, 95519, Note_on_c, 0, 84, 82
1, 95519, Note_on_c, 0, 92, 90
1, 95522, Note_on_c, 0, 32, 79
1, 95522, Note_on_c, 0, 80, 87
1, 95523, Note_on_c, 0, 87, 83
1, 95523, Note_on_c, 0, 90, 82
1, 95590, Control_c, 0, 64, 111
1, 95610, Control_c, 0, 64, 79
1, 95646, Control_c, 0, 64, 0
1, 95775, Control_c, 0, 64, 64
1, 95794, Control_c, 0, 64, 76
1, 95811, Control_c, 0, 64, 79
1, 95830, Control_c, 0, 64, 82
1, 95846, Note_off_c, 0, 32, 62
1, 95847, Control_c, 0, 64, 90
1, 95867, Control_c, 0, 64, 101
1, 95901, Control_c, 0, 64, 111
1, 95934, Note_off_c, 0, 44, 64
1, 95937, Control_c, 0, 64, 115
1, 95973, Control_c, 0, 64, 122
1, 95993, Control_c, 0, 64, 127
1, 96391, Note_on_c, 0, 60, 53
1, 96445, Note_on_c, 0, 63, 54
1, 96498, Note_on_c, 0, 66, 56
1, 96505, Note_on_c, 0, 68, 59
1, 96592, Note_on_c, 0, 72, 60
1, 96715, Note_off_c, 0, 60, 42
1, 96753, Note_off_c, 0, 72, 63
1, 96792, Note_off_c, 0, 66, 60
1, 96794, Note_off_c, 0, 68, 62
1, 96804, Note_off_c, 0, 63, 57
1, 97095, Control_c, 0, 67, 9
1, 97133, Control_c, 0, 67, 16
1, 97150, Control_c, 0, 67, 20
1, 97169, Control_c, 0, 67, 25
1, 97188, Control_c, 0, 67, 30
1, 97206, Control_c, 0, 67, 36
1, 97224, Control_c, 0, 67, 42
1, 97241, Control_c, 0, 67, 47
1, 97261, Control_c, 0, 67, 51
1, 97279, Control_c, 0, 67, 56
1, 97298, Control_c, 0, 67, 61
1, 97316, Control_c, 0, 64, 119
1, 97317, Control_c, 0, 67, 66
1, 97354, Control_c, 0, 64, 115
1, 97355, Control_c, 0, 67, 73
1, 97381, Note_on_c, 0, 32, 36
1, 97382, Note_on_c, 0, 44, 39
1, 97391, Control_c, 0, 67, 79
1, 97411, Control_c, 0, 64, 110
1, 97429, Control_c, 0, 64, 105
1, 97430, Control_c, 0, 67, 87
1, 97445, Control_c, 0, 67, 91
1, 97485, Control_c, 0, 64, 100
1, 97485, Control_c, 0, 67, 97
1, 97519, Control_c, 0, 64, 89
1, 97520, Control_c, 0, 67, 102
1, 97540, Control_c, 0, 64, 78
1, 97558, Control_c, 0, 64, 67
1, 97559, Control_c, 0, 67, 108
1, 97576, Control_c, 0, 64, 60
1, 97595, Control_c, 0, 67, 113
1, 97631, Control_c, 0, 64, 55
1, 97649, Control_c, 0, 64, 51
1, 97649, Control_c, 0, 67, 119
1, 97668, Control_c, 0, 64, 47
1, 97669, Control_c, 0, 67, 123
1, 97685, Control_c, 0, 64, 44
1, 97703, Control_c, 0, 64, 41
1, 97722, Control_c, 0, 64, 36
1, 97724, Control_c, 0, 67, 127
1, 97741, Control_c, 0, 64, 30
1, 97774, Control_c, 0, 64, 21
1, 97793, Control_c, 0, 64, 9
1, 97811, Control_c, 0, 64, 0
1, 98250, Control_c, 0, 64, 14
1, 98270, Control_c, 0, 64, 22
1, 98289, Control_c, 0, 64, 32
1, 98307, Control_c, 0, 64, 46
1, 98326, Control_c, 0, 64, 60
1, 98345, Control_c, 0, 64, 69
1, 98363, Control_c, 0, 64, 75
1, 98380, Control_c, 0, 64, 80
1, 98399, Control_c, 0, 64, 83
1, 98418, Control_c, 0, 64, 87
1, 98436, Control_c, 0, 64, 91
1, 98455, Control_c, 0, 64, 96
1, 98473, Control_c, 0, 64, 102
1, 98475, Note_off_c, 0, 32, 32
1, 98493, Control_c, 0, 64, 108
1, 98511, Control_c, 0, 64, 113
1, 98530, Control_c, 0, 64, 120
1, 98546, Control_c, 0, 64, 125
1, 98618, Note_off_c, 0, 44, 41
1, 98838, Note_off_c, 0, 90, 35
1, 98873, Control_c, 0, 67, 123
1, 98887, Note_off_c, 0, 92, 51
1, 99012, Note_off_c, 0, 80, 33
1, 99595, Note_on_c, 0, 90, 57
1, 99609, Note_on_c, 0, 78, 40
1, 99712, Note_off_c, 0, 87, 59
1, 99749, Note_off_c, 0, 84, 43
1, 99753, Note_off_c, 0, 90, 66
1, 99799, Note_off_c, 0, 78, 54
1, 99956, Note_on_c, 0, 87, 63
1, 99970, Note_on_c, 0, 56, 36
1, 99971, Note_on_c, 0, 63, 33
1, 99971, Note_on_c, 0, 66, 31
1, 99980, Note_on_c, 0, 75, 52
1, 100050, Note_off_c, 0, 75, 44
1, 100050, Note_off_c, 0, 66, 61
1, 100065, Note_off_c, 0, 87, 61
1, 100100, Note_off_c, 0, 63, 56
1, 100151, Note_off_c, 0, 56, 54
1, 100220, Note_on_c, 0, 84, 63
1, 100236, Note_on_c, 0, 72, 43
1, 100303, Note_off_c, 0, 72, 39
1, 100342, Note_off_c, 0, 84, 63
1, 100512, Control_c, 0, 67, 117
1, 100515, Note_on_c, 0, 37, 29
1, 100549, Control_c, 0, 67, 111
1, 100587, Note_on_c, 0, 49, 30
1, 100602, Control_c, 0, 67, 105
1, 100620, Control_c, 0, 64, 119
1, 100621, Control_c, 0, 67, 101
1, 100639, Control_c, 0, 64, 114
1, 100651, Note_on_c, 0, 80, 69
1, 100659, Note_on_c, 0, 85, 57
1, 100659, Control_c, 0, 64, 110
1, 100660, Control_c, 0, 67, 96
1, 100676, Control_c, 0, 64, 103
1, 100689, Note_on_c, 0, 73, 28
1, 100694, Control_c, 0, 64, 87
1, 100695, Control_c, 0, 67, 91
1, 100714, Control_c, 0, 64, 63
1, 100732, Control_c, 0, 64, 11
1, 100734, Control_c, 0, 67, 86
1, 100748, Control_c, 0, 64, 0
1, 100824, Control_c, 0, 64, 36
1, 100845, Control_c, 0, 64, 52
1, 100846, Control_c, 0, 67, 82
1, 100862, Control_c, 0, 64, 61
1, 100870, Note_off_c, 0, 37, 54
1, 100880, Control_c, 0, 64, 68
1, 100896, Control_c, 0, 64, 74
1, 100916, Control_c, 0, 64, 81
1, 100934, Control_c, 0, 64, 88
1, 100936, Control_c, 0, 67, 78
1, 100952, Note_off_c, 0, 49, 48
1, 100952, Control_c, 0, 64, 93
1, 100970, Control_c, 0, 64, 99
1, 100988, Control_c, 0, 64, 104
1, 101008, Control_c, 0, 64, 110
1, 101025, Control_c, 0, 64, 114
1, 101063, Control_c, 0, 64, 119
1, 101100, Control_c, 0, 64, 123
1, 101155, Control_c, 0, 64, 127
1, 101288, Note_off_c, 0, 80, 51
1, 101433, Note_on_c, 0, 66, 37
1, 101444, Note_on_c, 0, 61, 27
1, 101487, Poly_aftertouch_c, 0, 58, 127
1, 101634, Poly_aftertouch_c, 0, 58, 0
1, 101679, Note_on_c, 0, 82, 73
1, 101723, Note_off_c, 0, 66, 37
1, 101726, Note_off_c, 0, 85, 60
1, 101909, Note_on_c, 0, 65, 33
1, 101928, Note_on_c, 0, 80, 77
1, 101929, Note_on_c, 0, 56, 38
1, 101945, Note_off_c, 0, 82, 61
1, 101950, Note_off_c, 0, 65, 52
1, 101980, Control_c, 0, 67, 74
1, 102002, Note_off_c, 0, 61, 52
1, 102006, Note_off_c, 0, 56, 64
1, 102108, Control_c, 0, 67, 69
1, 102127, Control_c, 0, 67, 58
1, 102144, Control_c, 0, 67, 46
1, 102163, Control_c, 0, 67, 37
1, 102200, Control_c, 0, 64, 119
1, 102217, Control_c, 0, 64, 114
1, 102254, Control_c, 0, 64, 109
1, 102281, Note_on_c, 0, 37, 36
1, 102292, Control_c, 0, 64, 97
1, 102311, Control_c, 0, 64, 77
1, 102330, Control_c, 0, 64, 45
1, 102331, Note_on_c, 0, 49, 27
1, 102348, Control_c, 0, 64, 0
1, 102357, Note_on_c, 0, 77, 73
1, 102364, Note_off_c, 0, 80, 58
1, 102365, Control_c, 0, 64, 8
1, 102383, Control_c, 0, 64, 41
1, 102389, Note_off_c, 0, 37, 59
1, 102402, Control_c, 0, 64, 59
1, 102422, Control_c, 0, 64, 70
1, 102453, Control_c, 0, 64, 80
1, 102457, Note_off_c, 0, 49, 59
1, 102472, Control_c, 0, 64, 92
1, 102489, Control_c, 0, 64, 101
1, 102509, Control_c, 0, 64, 106
1, 102586, Note_on_c, 0, 78, 72
1, 102633, Note_off_c, 0, 77, 62
1, 102686, Note_off_c, 0, 73, 38
1, 102732, Control_c, 0, 64, 101
1, 102754, Note_on_c, 0, 60, 36
1, 102760, Note_off_c, 0, 78, 55
1, 102766, Control_c, 0, 64, 95
1, 102806, Control_c, 0, 64, 90
1, 102824, Control_c, 0, 64, 88
1, 102825, Note_on_c, 0, 66, 32
1, 102827, Note_on_c, 0, 56, 30
1, 102838, Control_c, 0, 64, 85
1, 102840, Note_on_c, 0, 72, 50
1, 102842, Note_on_c, 0, 80, 52
1, 102858, Control_c, 0, 64, 80
1, 102877, Control_c, 0, 64, 72
1, 102896, Control_c, 0, 64, 64
1, 102914, Control_c, 0, 64, 54
1, 102933, Control_c, 0, 64, 43
1, 102952, Control_c, 0, 64, 29
1, 102970, Control_c, 0, 64, 0
1, 102987, Note_off_c, 0, 56, 0
1, 103054, Note_off_c, 0, 60, 42
1, 103067, Note_off_c, 0, 66, 44
1, 103080, Control_c, 0, 64, 13
1, 103100, Control_c, 0, 64, 38
1, 103117, Control_c, 0, 64, 55
1, 103137, Control_c, 0, 64, 63
1, 103154, Control_c, 0, 64, 66
1, 103173, Control_c, 0, 64, 68
1, 103191, Control_c, 0, 64, 71
1, 103209, Control_c, 0, 64, 76
1, 103230, Control_c, 0, 64, 84
1, 103247, Control_c, 0, 64, 92
1, 103266, Control_c, 0, 64, 99
1, 103302, Control_c, 0, 64, 105
1, 103337, Note_on_c, 0, 65, 35
1, 103349, Note_on_c, 0, 61, 31
1, 103357, Control_c, 0, 64, 110
1, 103452, Note_off_c, 0, 65, 59
1, 103476, Note_off_c, 0, 61, 55
1, 103478, Poly_aftertouch_c, 0, 56, 24
1, 103514, Poly_aftertouch_c, 0, 56, 0
1, 103542, Note_off_c, 0, 80, 57
1, 103544, Note_on_c, 0, 73, 67
1, 103574, Note_off_c, 0, 72, 62
1, 103641, Note_off_c, 0, 73, 64
1, 103740, Note_on_c, 0, 37, 48
1, 103775, Control_c, 0, 64, 100
1, 103776, Note_on_c, 0, 68, 68
1, 103788, Note_on_c, 0, 73, 59
1, 103793, Control_c, 0, 64, 81
1, 103815, Control_c, 0, 64, 53
1, 103832, Control_c, 0, 64, 0
1, 103889, Control_c, 0, 64, 21
1, 103907, Control_c, 0, 64, 43
1, 103908, Note_off_c, 0, 37, 61
1, 103925, Control_c, 0, 64, 55
1, 103943, Control_c, 0, 64, 62
1, 103961, Control_c, 0, 64, 66
1, 103980, Control_c, 0, 64, 71
1, 103998, Control_c, 0, 64, 76
1, 104016, Control_c, 0, 64, 82
1, 104034, Control_c, 0, 64, 87
1, 104282, Note_on_c, 0, 66, 58
1, 104306, Note_on_c, 0, 61, 37
1, 104342, Note_on_c, 0, 58, 36
1, 104361, Control_c, 0, 64, 91
1, 104386, Note_off_c, 0, 68, 40
1, 104472, Note_off_c, 0, 58, 39
1, 104476, Note_on_c, 0, 70, 74
1, 104480, Note_off_c, 0, 66, 51
1, 104657, Control_c, 0, 64, 87
1, 104676, Control_c, 0, 64, 80
1, 104695, Control_c, 0, 64, 69
1, 104703, Note_on_c, 0, 68, 78
1, 104706, Note_on_c, 0, 65, 50
1, 104711, Control_c, 0, 64, 59
1, 104714, Note_on_c, 0, 56, 48
1, 104730, Control_c, 0, 64, 57
1, 104738, Note_off_c, 0, 65, 59
1, 104745, Note_off_c, 0, 70, 61
1, 104747, Control_c, 0, 64, 60
1, 104749, Control_c, 0, 67, 32
1, 104768, Control_c, 0, 64, 65
1, 104776, Note_off_c, 0, 61, 59
1, 104786, Control_c, 0, 64, 70
1, 104796, Note_off_c, 0, 56, 65
1, 104801, Control_c, 0, 64, 77
1, 104823, Control_c, 0, 64, 85
1, 104841, Control_c, 0, 64, 92
1, 104878, Control_c, 0, 64, 96
1, 104953, Poly_aftertouch_c, 0, 73, 24
1, 104977, Note_off_c, 0, 68, 51
1, 104987, Control_c, 0, 64, 100
1, 104998, Note_off_c, 0, 73, 40
1, 105042, Control_c, 0, 64, 95
1, 105060, Control_c, 0, 64, 84
1, 105063, Note_on_c, 0, 37, 50
1, 105080, Control_c, 0, 64, 66
1, 105098, Control_c, 0, 64, 44
1, 105109, Note_on_c, 0, 65, 71
1, 105117, Control_c, 0, 64, 40
1, 105134, Control_c, 0, 64, 48
1, 105154, Control_c, 0, 64, 60
1, 105172, Note_off_c, 0, 37, 61
1, 105172, Control_c, 0, 64, 69
1, 105190, Control_c, 0, 64, 78
1, 105208, Control_c, 0, 64, 87
1, 105226, Control_c, 0, 64, 93
1, 105309, Note_on_c, 0, 66, 80
1, 105322, Note_off_c, 0, 65, 63
1, 105370, Control_c, 0, 64, 97
1, 105386, Note_off_c, 0, 66, 64
1, 105516, Control_c, 0, 64, 93
1, 105525, Note_on_c, 0, 60, 40
1, 105535, Control_c, 0, 64, 89
1, 105547, Note_on_c, 0, 80, 64
1, 105550, Note_on_c, 0, 56, 35
1, 105552, Note_on_c, 0, 68, 60
1, 105554, Control_c, 0, 64, 79
1, 105556, Note_on_c, 0, 66, 34
1, 105573, Control_c, 0, 64, 66
1, 105591, Control_c, 0, 64, 45
1, 105611, Control_c, 0, 64, 0
1, 105756, Control_c, 0, 64, 12
1, 105770, Note_off_c, 0, 56, 55
1, 105774, Control_c, 0, 64, 36
1, 105793, Control_c, 0, 64, 52
1, 105799, Note_off_c, 0, 60, 37
1, 105813, Control_c, 0, 64, 61
1, 105821, Note_off_c, 0, 66, 44
1, 105831, Control_c, 0, 64, 67
1, 105850, Control_c, 0, 64, 73
1, 105868, Control_c, 0, 64, 81
1, 105885, Control_c, 0, 64, 90
1, 105904, Control_c, 0, 64, 97
1, 105996, Control_c, 0, 64, 83
1, 106015, Control_c, 0, 64, 62
1, 106025, Note_on_c, 0, 65, 40
1, 106033, Control_c, 0, 64, 28
1, 106039, Note_on_c, 0, 61, 31
1, 106052, Control_c, 0, 64, 9
1, 106056, Note_on_c, 0, 56, 20
1, 106070, Control_c, 0, 64, 28
1, 106089, Control_c, 0, 64, 49
1, 106109, Control_c, 0, 64, 62
1, 106112, Note_off_c, 0, 65, 62
1, 106125, Control_c, 0, 64, 69
1, 106143, Note_off_c, 0, 61, 56
1, 106143, Control_c, 0, 64, 77
1, 106152, Note_off_c, 0, 80, 60
1, 106162, Control_c, 0, 64, 88
1, 106168, Note_off_c, 0, 56, 61
1, 106181, Control_c, 0, 64, 98
1, 106214, Control_c, 0, 64, 103
1, 106263, Note_off_c, 0, 68, 61
1, 106416, Control_c, 0, 64, 96
1, 106433, Control_c, 0, 64, 80
1, 106451, Control_c, 0, 64, 60
1, 106462, Note_on_c, 0, 37, 44
1, 106469, Control_c, 0, 64, 42
1, 106488, Note_on_c, 0, 65, 63
1, 106508, Control_c, 0, 64, 53
1, 106526, Control_c, 0, 64, 65
1, 106534, Note_off_c, 0, 37, 62
1, 106546, Control_c, 0, 64, 73
1, 106564, Control_c, 0, 64, 81
1, 106584, Control_c, 0, 64, 89
1, 106599, Control_c, 0, 64, 94
1, 106645, Note_off_c, 0, 65, 58
1, 106684, Note_on_c, 0, 66, 69
1, 106690, Control_c, 0, 64, 98
1, 106736, Note_off_c, 0, 66, 64
1, 106918, Note_on_c, 0, 60, 45
1, 106934, Note_on_c, 0, 54, 36
1, 106960, Note_on_c, 0, 56, 22
1, 106965, Note_on_c, 0, 80, 72
1, 106967, Note_on_c, 0, 68, 66
1, 106968, Control_c, 0, 64, 93
1, 106987, Control_c, 0, 64, 87
1, 107006, Control_c, 0, 64, 76
1, 107024, Control_c, 0, 64, 59
1, 107043, Control_c, 0, 64, 0
1, 107184, Control_c, 0, 64, 30
1, 107205, Control_c, 0, 64, 55
1, 107222, Control_c, 0, 64, 67
1, 107240, Control_c, 0, 64, 76
1, 107260, Control_c, 0, 64, 86
1, 107267, Note_off_c, 0, 60, 63
1, 107278, Control_c, 0, 64, 96
1, 107296, Control_c, 0, 64, 102
1, 107334, Note_off_c, 0, 54, 40
1, 107351, Note_off_c, 0, 56, 35
1, 107369, Control_c, 0, 64, 106
1, 107553, Control_c, 0, 64, 102
1, 107573, Control_c, 0, 64, 97
1, 107591, Control_c, 0, 64, 84
1, 107594, Note_on_c, 0, 56, 29
1, 107606, Note_on_c, 0, 61, 37
1, 107607, Control_c, 0, 64, 60
1, 107614, Note_on_c, 0, 53, 31
1, 107626, Control_c, 0, 64, 0
1, 107720, Control_c, 0, 64, 24
1, 107738, Control_c, 0, 64, 42
1, 107754, Control_c, 0, 64, 53
1, 107775, Control_c, 0, 64, 59
1, 107792, Control_c, 0, 64, 61
1, 107811, Control_c, 0, 64, 64
1, 107827, Control_c, 0, 64, 68
1, 107847, Control_c, 0, 64, 75
1, 107865, Control_c, 0, 64, 87
1, 107885, Control_c, 0, 64, 101
1, 107893, Note_off_c, 0, 61, 52
1, 107901, Control_c, 0, 64, 111
1, 107918, Note_off_c, 0, 53, 44
1, 107935, Note_off_c, 0, 56, 52
1, 107966, Note_off_c, 0, 80, 56
1, 107978, Control_c, 0, 64, 115
1, 108050, Control_c, 0, 64, 119
1, 108196, Note_off_c, 0, 68, 52
1, 108614, Note_on_c, 0, 37, 39
1, 108674, Note_on_c, 0, 65, 70
1, 108727, Control_c, 0, 64, 112
1, 108747, Control_c, 0, 64, 98
1, 108762, Control_c, 0, 64, 79
1, 108782, Control_c, 0, 64, 60
1, 108800, Control_c, 0, 64, 48
1, 108819, Control_c, 0, 64, 51
1, 108837, Control_c, 0, 64, 57
1, 108856, Control_c, 0, 64, 66
1, 108875, Control_c, 0, 64, 74
1, 108893, Control_c, 0, 64, 83
1, 108913, Control_c, 0, 64, 93
1, 108929, Control_c, 0, 64, 100
1, 108966, Note_off_c, 0, 37, 41
1, 108966, Control_c, 0, 64, 105
1, 109036, Control_c, 0, 64, 110
1, 109073, Control_c, 0, 64, 116
1, 109092, Control_c, 0, 64, 120
1, 109109, Note_on_c, 0, 66, 83
1, 109109, Control_c, 0, 64, 124
1, 109155, Note_off_c, 0, 65, 62
1, 109355, Note_off_c, 0, 66, 60
1, 109361, Note_on_c, 0, 44, 41
1, 109408, Note_on_c, 0, 54, 24
1, 109456, Note_on_c, 0, 68, 70
1, 109457, Note_on_c, 0, 60, 49
1, 109461, Control_c, 0, 64, 120
1, 109478, Note_on_c, 0, 56, 49
1, 109497, Control_c, 0, 64, 114
1, 109516, Control_c, 0, 64, 108
1, 109535, Control_c, 0, 64, 101
1, 109553, Control_c, 0, 64, 92
1, 109573, Control_c, 0, 64, 82
1, 109591, Control_c, 0, 64, 73
1, 109594, Control_c, 0, 67, 37
1, 109609, Control_c, 0, 64, 62
1, 109628, Control_c, 0, 64, 46
1, 109630, Control_c, 0, 67, 41
1, 109645, Control_c, 0, 64, 0
1, 109646, Control_c, 0, 67, 46
1, 109664, Control_c, 0, 67, 53
1, 109682, Control_c, 0, 67, 61
1, 109699, Control_c, 0, 67, 67
1, 109718, Control_c, 0, 67, 71
1, 109755, Control_c, 0, 67, 78
1, 109793, Control_c, 0, 67, 84
1, 109850, Control_c, 0, 64, 20
1, 109852, Control_c, 0, 67, 88
1, 109866, Control_c, 0, 64, 40
1, 109885, Control_c, 0, 64, 52
1, 109887, Control_c, 0, 67, 93
1, 109902, Control_c, 0, 64, 59
1, 109922, Control_c, 0, 64, 62
1, 109923, Control_c, 0, 67, 98
1, 109955, Control_c, 0, 64, 63
1, 109973, Control_c, 0, 64, 65
1, 109974, Control_c, 0, 67, 103
1, 109991, Control_c, 0, 64, 70
1, 110011, Control_c, 0, 64, 77
1, 110013, Control_c, 0, 67, 109
1, 110029, Control_c, 0, 64, 86
1, 110048, Control_c, 0, 64, 95
1, 110048, Control_c, 0, 67, 116
1, 110065, Note_off_c, 0, 54, 40
1, 110065, Control_c, 0, 64, 101
1, 110101, Control_c, 0, 67, 121
1, 110158, Control_c, 0, 64, 105
1, 110160, Control_c, 0, 67, 126
1, 110211, Control_c, 0, 64, 110
1, 110379, Control_c, 0, 64, 105
1, 110413, Control_c, 0, 64, 99
1, 110430, Note_on_c, 0, 49, 38
1, 110431, Control_c, 0, 64, 85
1, 110435, Note_on_c, 0, 53, 39
1, 110452, Control_c, 0, 64, 65
1, 110470, Control_c, 0, 64, 29
1, 110488, Control_c, 0, 64, 0
1, 110527, Control_c, 0, 64, 33
1, 110545, Control_c, 0, 64, 55
1, 110560, Control_c, 0, 64, 67
1, 110581, Control_c, 0, 64, 76
1, 110599, Control_c, 0, 64, 87
1, 110614, Note_off_c, 0, 53, 54
1, 110618, Control_c, 0, 64, 98
1, 110634, Control_c, 0, 64, 107
1, 110652, Control_c, 0, 64, 112
1, 110690, Control_c, 0, 64, 118
1, 110697, Note_off_c, 0, 49, 40
1, 110704, Note_off_c, 0, 44, 38
1, 110726, Note_on_c, 0, 61, 70
1, 110726, Control_c, 0, 64, 123
1, 110727, Note_off_c, 0, 60, 46
1, 110744, Note_off_c, 0, 68, 34
1, 110746, Control_c, 0, 64, 127
1, 110808, Note_off_c, 0, 56, 63
1, 110838, Note_off_c, 0, 61, 60
1, 111082, Note_on_c, 0, 25, 31
1, 111094, Note_on_c, 0, 37, 36
1, 111109, Control_c, 0, 64, 121
1, 111111, Note_on_c, 0, 53, 54
1, 111112, Note_on_c, 0, 61, 64
1, 111126, Control_c, 0, 64, 113
1, 111131, Note_on_c, 0, 49, 45
1, 111147, Control_c, 0, 64, 104
1, 111165, Control_c, 0, 64, 96
1, 111184, Control_c, 0, 64, 88
1, 111204, Control_c, 0, 64, 80
1, 111221, Control_c, 0, 64, 73
1, 111240, Control_c, 0, 64, 67
1, 111259, Control_c, 0, 64, 61
1, 111276, Control_c, 0, 64, 58
1, 111349, Control_c, 0, 64, 55
1, 111367, Control_c, 0, 64, 51
1, 111386, Control_c, 0, 64, 47
1, 111404, Control_c, 0, 64, 44
1, 111423, Control_c, 0, 64, 41
1, 111442, Control_c, 0, 64, 36
1, 111461, Control_c, 0, 64, 22
1, 111480, Control_c, 0, 64, 0
1, 111552, Control_c, 0, 67, 122
1, 111626, Control_c, 0, 67, 117
1, 111662, Control_c, 0, 67, 110
1, 111682, Control_c, 0, 67, 105
1, 111700, Control_c, 0, 67, 101
1, 111718, Control_c, 0, 67, 96
1, 111737, Control_c, 0, 67, 89
1, 111754, Control_c, 0, 67, 80
1, 111773, Control_c, 0, 67, 69
1, 111791, Control_c, 0, 67, 58
1, 111824, Control_c, 0, 67, 49
1, 111842, Control_c, 0, 67, 42
1, 111861, Control_c, 0, 67, 37
1, 111898, Control_c, 0, 67, 32
1, 111991, Control_c, 0, 67, 28
1, 112008, Control_c, 0, 64, 18
1, 112028, Control_c, 0, 64, 30
1, 112029, Control_c, 0, 67, 23
1, 112046, Control_c, 0, 64, 41
1, 112063, Control_c, 0, 64, 49
1, 112065, Control_c, 0, 67, 15
1, 112081, Control_c, 0, 64, 54
1, 112082, Control_c, 0, 67, 11
1, 112100, Control_c, 0, 64, 58
1, 112120, Control_c, 0, 64, 60
1, 112138, Control_c, 0, 64, 62
1, 112156, Control_c, 0, 64, 65
1, 112174, Control_c, 0, 64, 68
1, 112194, Control_c, 0, 64, 73
1, 112210, Control_c, 0, 64, 78
1, 112229, Control_c, 0, 64, 84
1, 112248, Control_c, 0, 64, 90
1, 112249, Control_c, 0, 67, 0
1, 112266, Control_c, 0, 64, 96
1, 112284, Control_c, 0, 64, 101
1, 112302, Control_c, 0, 64, 106
1, 112321, Control_c, 0, 64, 110
1, 112340, Control_c, 0, 64, 115
1, 112358, Control_c, 0, 64, 120
1, 112378, Control_c, 0, 64, 125
1, 112550, Note_off_c, 0, 25, 38
1, 112605, Note_off_c, 0, 53, 36
1, 112641, Note_off_c, 0, 37, 33
1, 112655, Note_off_c, 0, 49, 37
1, 112689, Note_off_c, 0, 61, 31
1, 113459, Note_on_c, 0, 61, 41
1, 113469, Note_on_c, 0, 53, 38
1, 113472, Note_on_c, 0, 25, 31
1, 113482, Note_on_c, 0, 49, 25
1, 113488, Note_on_c, 0, 37, 29
1, 113551, Control_c, 0, 64, 115
1, 113569, Control_c, 0, 64, 109
1, 113588, Control_c, 0, 64, 100
1, 113605, Control_c, 0, 64, 88
1, 113624, Control_c, 0, 64, 74
1, 113643, Control_c, 0, 64, 60
1, 113661, Control_c, 0, 64, 49
1, 113750, Control_c, 0, 64, 52
1, 113767, Control_c, 0, 64, 55
1, 113787, Control_c, 0, 64, 59
1, 113805, Control_c, 0, 64, 64
1, 113824, Control_c, 0, 64, 68
1, 113842, Control_c, 0, 64, 72
1, 113860, Control_c, 0, 64, 78
1, 113878, Control_c, 0, 64, 85
1, 113897, Control_c, 0, 64, 91
1, 113916, Control_c, 0, 64, 95
1, 113951, Control_c, 0, 64, 100
1, 114008, Control_c, 0, 64, 106
1, 114064, Control_c, 0, 64, 111
1, 114065, Control_c, 0, 67, 8
1, 114129, Note_off_c, 0, 61, 33
1, 114138, Poly_aftertouch_c, 0, 37, 22
1, 114138, Control_c, 0, 67, 14
1, 114143, Note_off_c, 0, 53, 33
1, 114162, Note_off_c, 0, 37, 30
1, 114172, Control_c, 0, 67, 21
1, 114175, Note_off_c, 0, 49, 38
1, 114176, Poly_aftertouch_c, 0, 25, 24
1, 114190, Control_c, 0, 67, 26
1, 114210, Control_c, 0, 67, 31
1, 114229, Control_c, 0, 67, 35
1, 114246, Control_c, 0, 67, 39
1, 114256, Note_off_c, 0, 25, 32
1, 114265, Control_c, 0, 67, 43
1, 114284, Control_c, 0, 67, 49
1, 114303, Control_c, 0, 67, 55
1, 114319, Control_c, 0, 67, 61
1, 114338, Control_c, 0, 67, 65
1, 114376, Control_c, 0, 67, 72
1, 114393, Control_c, 0, 67, 76
1, 114411, Control_c, 0, 67, 80
1, 114431, Control_c, 0, 67, 85
1, 114449, Control_c, 0, 67, 89
1, 114468, Control_c, 0, 64, 106
1, 114486, Control_c, 0, 67, 96
1, 114505, Control_c, 0, 64, 102
1, 114523, Control_c, 0, 67, 102
1, 114559, Control_c, 0, 67, 107
1, 114596, Control_c, 0, 64, 97
1, 114627, Control_c, 0, 67, 111
1, 114741, Control_c, 0, 64, 93
1, 114759, Control_c, 0, 67, 115
1, 114795, Control_c, 0, 64, 87
1, 114813, Control_c, 0, 64, 85
1, 114869, Control_c, 0, 67, 119
1, 114886, Control_c, 0, 64, 83
1, 114905, Control_c, 0, 64, 81
1, 114940, Control_c, 0, 67, 123
1, 114959, Control_c, 0, 64, 79
1, 114978, Control_c, 0, 64, 77
1, 114996, Control_c, 0, 64, 72
1, 114997, Control_c, 0, 67, 127
1, 115015, Control_c, 0, 64, 68
1, 115035, Control_c, 0, 64, 65
1, 115107, Control_c, 0, 64, 64
1, 115181, Control_c, 0, 64, 62
1, 115218, Control_c, 0, 64, 60
1, 115293, Control_c, 0, 64, 57
1, 115312, Control_c, 0, 64, 55
1, 115384, Control_c, 0, 64, 53
1, 115401, Control_c, 0, 64, 50
1, 115475, Control_c, 0, 64, 46
1, 115494, Control_c, 0, 64, 43
1, 115531, Control_c, 0, 64, 41
1, 115581, Control_c, 0, 64, 36
1, 115601, Control_c, 0, 64, 31
1, 115657, Control_c, 0, 64, 26
1, 115694, Control_c, 0, 64, 20
1, 115748, Control_c, 0, 64, 15
1, 115785, Control_c, 0, 64, 9
1, 115839, Control_c, 0, 64, 0
1, 117120, End_track
0, 0, End_of_file
