0, 0, Header, 1, 5, 480
1, 0, Start_track
1, 0, Title_t, "brahms waltzes op39 no6 4hands"
1, 0, Copyright_t, "Segundo G. Yogore, 2004, dody@info.com.ph \012__________________________________________________________\012Kunst der Fuge comment: this is the Contributor's property.\012Can *not* be used for commercial purposes without authorization!\012Copyright by Contributor - Kunst der Fuge, © 2002-05\012http://www.kunstderfuge.com/thanks.htm -> Contributors' list\012http://www.kunstderfuge.com/notes.htm -> Terms & conditions"
1, 0, Text_t, "sequenced by Segundo G. Yogore, 2004\012"
1, 0, Time_signature, 3, 2, 24, 8
1, 0, Key_signature, 7, "major"
1, 0, Tempo, 300000
1, 11520, Tempo, 300000
1, 40320, Tempo, 300000
1, 77760, Tempo, 300000
1, 96480, Time_signature, 6, 2, 24, 8
1, 96480, End_track
2, 0, Start_track
2, 0, Title_t, "Grand Piano"
2, 0, Program_c, 0, 0
2, 0, Control_c, 0, 7, 115
2, 0, Control_c, 0, 10, 95
2, 0, Note_on_c, 0, 92, 62
2, 0, Note_on_c, 0, 104, 62
2, 23, Note_on_c, 0, 104, 0
2, 23, Note_on_c, 0, 92, 0
2, 720, Note_on_c, 0, 89, 62
2, 720, Note_on_c, 0, 101, 62
2, 743, Note_on_c, 0, 101, 0
2, 743, Note_on_c, 0, 89, 0
2, 960, Note_on_c, 0, 85, 62
2, 960, Note_on_c, 0, 97, 62
2, 983, Note_on_c, 0, 97, 0
2, 983, Note_on_c, 0, 85, 0
2, 1680, Note_on_c, 0, 80, 62
2, 1680, Note_on_c, 0, 92, 62
2, 1703, Note_on_c, 0, 92, 0
2, 1703, Note_on_c, 0, 80, 0
2, 1920, Note_on_c, 0, 82, 62
2, 1920, Note_on_c, 0, 94, 62
2, 1943, Note_on_c, 0, 94, 0
2, 1943, Note_on_c, 0, 82, 0
2, 2640, Note_on_c, 0, 78, 62
2, 2640, Note_on_c, 0, 90, 62
2, 2663, Note_on_c, 0, 90, 0
2, 2663, Note_on_c, 0, 78, 0
2, 2880, Note_on_c, 0, 75, 62
2, 2880, Note_on_c, 0, 87, 62
2, 2927, Note_on_c, 0, 87, 0
2, 2927, Note_on_c, 0, 75, 0
2, 3360, Note_on_c, 0, 80, 62
2, 3360, Note_on_c, 0, 92, 62
2, 3407, Note_on_c, 0, 92, 0
2, 3407, Note_on_c, 0, 80, 0
2, 3840, Note_on_c, 0, 78, 62
2, 3840, Note_on_c, 0, 90, 62
2, 3887, Note_on_c, 0, 90, 0
2, 3887, Note_on_c, 0, 78, 0
2, 4320, Note_on_c, 0, 77, 62
2, 4320, Note_on_c, 0, 89, 62
2, 4367, Note_on_c, 0, 89, 0
2, 4367, Note_on_c, 0, 77, 0
2, 4800, Note_on_c, 0, 83, 62
2, 4800, Note_on_c, 0, 95, 62
2, 4847, Note_on_c, 0, 95, 0
2, 4847, Note_on_c, 0, 83, 0
2, 5280, Note_on_c, 0, 82, 62
2, 5280, Note_on_c, 0, 94, 62
2, 5327, Note_on_c, 0, 94, 0
2, 5327, Note_on_c, 0, 82, 0
2, 5760, Note_on_c, 0, 92, 62
2, 5760, Note_on_c, 0, 104, 62
2, 5783, Note_on_c, 0, 104, 0
2, 5783, Note_on_c, 0, 92, 0
2, 6480, Note_on_c, 0, 89, 62
2, 6480, Note_on_c, 0, 101, 62
2, 6503, Note_on_c, 0, 101, 0
2, 6503, Note_on_c, 0, 89, 0
2, 6720, Note_on_c, 0, 85, 62
2, 6720, Note_on_c, 0, 97, 62
2, 6743, Note_on_c, 0, 97, 0
2, 6743, Note_on_c, 0, 85, 0
2, 7440, Note_on_c, 0, 80, 62
2, 7440, Note_on_c, 0, 92, 62
2, 7463, Note_on_c, 0, 92, 0
2, 7463, Note_on_c, 0, 80, 0
2, 7680, Note_on_c, 0, 82, 62
2, 7680, Note_on_c, 0, 94, 62
2, 7703, Note_on_c, 0, 94, 0
2, 7703, Note_on_c, 0, 82, 0
2, 8400, Note_on_c, 0, 77, 62
2, 8400, Note_on_c, 0, 89, 62
2, 8423, Note_on_c, 0, 89, 0
2, 8423, Note_on_c, 0, 77, 0
2, 8640, Note_on_c, 0, 78, 62
2, 8640, Note_on_c, 0, 90, 62
2, 8687, Note_on_c, 0, 90, 0
2, 8687, Note_on_c, 0, 78, 0
2, 9120, Note_on_c, 0, 87, 62
2, 9120, Note_on_c, 0, 99, 62
2, 9167, Note_on_c, 0, 99, 0
2, 9167, Note_on_c, 0, 87, 0
2, 9600, Note_on_c, 0, 84, 62
2, 9600, Note_on_c, 0, 96, 62
2, 9647, Note_on_c, 0, 96, 0
2, 9647, Note_on_c, 0, 84, 0
2, 10080, Note_on_c, 0, 94, 62
2, 10103, Note_on_c, 0, 94, 0
2, 10320, Note_on_c, 0, 85, 62
2, 10343, Note_on_c, 0, 85, 0
2, 11520, Note_on_c, 0, 92, 62
2, 11520, Note_on_c, 0, 104, 62
2, 11543, Note_on_c, 0, 104, 0
2, 11543, Note_on_c, 0, 92, 0
2, 12240, Note_on_c, 0, 89, 62
2, 12240, Note_on_c, 0, 101, 62
2, 12263, Note_on_c, 0, 101, 0
2, 12263, Note_on_c, 0, 89, 0
2, 12480, Note_on_c, 0, 85, 62
2, 12480, Note_on_c, 0, 97, 62
2, 12503, Note_on_c, 0, 97, 0
2, 12503, Note_on_c, 0, 85, 0
2, 13200, Note_on_c, 0, 80, 62
2, 13200, Note_on_c, 0, 92, 62
2, 13223, Note_on_c, 0, 92, 0
2, 13223, Note_on_c, 0, 80, 0
2, 13440, Note_on_c, 0, 82, 62
2, 13440, Note_on_c, 0, 94, 62
2, 13463, Note_on_c, 0, 94, 0
2, 13463, Note_on_c, 0, 82, 0
2, 14160, Note_on_c, 0, 78, 62
2, 14160, Note_on_c, 0, 90, 62
2, 14183, Note_on_c, 0, 90, 0
2, 14183, Note_on_c, 0, 78, 0
2, 14400, Note_on_c, 0, 75, 62
2, 14400, Note_on_c, 0, 87, 62
2, 14447, Note_on_c, 0, 87, 0
2, 14447, Note_on_c, 0, 75, 0
2, 14880, Note_on_c, 0, 80, 62
2, 14880, Note_on_c, 0, 92, 62
2, 14927, Note_on_c, 0, 92, 0
2, 14927, Note_on_c, 0, 80, 0
2, 15360, Note_on_c, 0, 78, 62
2, 15360, Note_on_c, 0, 90, 62
2, 15407, Note_on_c, 0, 90, 0
2, 15407, Note_on_c, 0, 78, 0
2, 15840, Note_on_c, 0, 77, 62
2, 15840, Note_on_c, 0, 89, 62
2, 15887, Note_on_c, 0, 89, 0
2, 15887, Note_on_c, 0, 77, 0
2, 16320, Note_on_c, 0, 83, 62
2, 16320, Note_on_c, 0, 95, 62
2, 16367, Note_on_c, 0, 95, 0
2, 16367, Note_on_c, 0, 83, 0
2, 16800, Note_on_c, 0, 82, 62
2, 16800, Note_on_c, 0, 94, 62
2, 16847, Note_on_c, 0, 94, 0
2, 16847, Note_on_c, 0, 82, 0
2, 17280, Note_on_c, 0, 92, 62
2, 17280, Note_on_c, 0, 104, 62
2, 17303, Note_on_c, 0, 104, 0
2, 17303, Note_on_c, 0, 92, 0
2, 18000, Note_on_c, 0, 89, 62
2, 18000, Note_on_c, 0, 101, 62
2, 18023, Note_on_c, 0, 101, 0
2, 18023, Note_on_c, 0, 89, 0
2, 18240, Note_on_c, 0, 85, 62
2, 18240, Note_on_c, 0, 97, 62
2, 18263, Note_on_c, 0, 97, 0
2, 18263, Note_on_c, 0, 85, 0
2, 18960, Note_on_c, 0, 80, 62
2, 18960, Note_on_c, 0, 92, 62
2, 18983, Note_on_c, 0, 92, 0
2, 18983, Note_on_c, 0, 80, 0
2, 19200, Note_on_c, 0, 82, 62
2, 19200, Note_on_c, 0, 94, 62
2, 19223, Note_on_c, 0, 94, 0
2, 19223, Note_on_c, 0, 82, 0
2, 19920, Note_on_c, 0, 77, 62
2, 19920, Note_on_c, 0, 89, 62
2, 19943, Note_on_c, 0, 89, 0
2, 19943, Note_on_c, 0, 77, 0
2, 20160, Note_on_c, 0, 78, 62
2, 20160, Note_on_c, 0, 90, 62
2, 20207, Note_on_c, 0, 90, 0
2, 20207, Note_on_c, 0, 78, 0
2, 20640, Note_on_c, 0, 87, 62
2, 20640, Note_on_c, 0, 99, 62
2, 20687, Note_on_c, 0, 99, 0
2, 20687, Note_on_c, 0, 87, 0
2, 21120, Note_on_c, 0, 84, 62
2, 21120, Note_on_c, 0, 96, 62
2, 21167, Note_on_c, 0, 96, 0
2, 21167, Note_on_c, 0, 84, 0
2, 21600, Note_on_c, 0, 94, 62
2, 21623, Note_on_c, 0, 94, 0
2, 21840, Note_on_c, 0, 85, 62
2, 21863, Note_on_c, 0, 85, 0
2, 23520, Note_on_c, 0, 70, 62
2, 23520, Note_on_c, 0, 82, 62
2, 23567, Note_on_c, 0, 82, 0
2, 23567, Note_on_c, 0, 70, 0
2, 24960, Note_on_c, 0, 70, 62
2, 24960, Note_on_c, 0, 82, 62
2, 25007, Note_on_c, 0, 82, 0
2, 25007, Note_on_c, 0, 70, 0
2, 26400, Note_on_c, 0, 70, 62
2, 26400, Note_on_c, 0, 82, 62
2, 26447, Note_on_c, 0, 82, 0
2, 26447, Note_on_c, 0, 70, 0
2, 27840, Note_on_c, 0, 71, 62
2, 27840, Note_on_c, 0, 83, 62
2, 27887, Note_on_c, 0, 83, 0
2, 27887, Note_on_c, 0, 71, 0
2, 29280, Note_on_c, 0, 71, 62
2, 29280, Note_on_c, 0, 83, 62
2, 29327, Note_on_c, 0, 83, 0
2, 29327, Note_on_c, 0, 71, 0
2, 30720, Note_on_c, 0, 71, 62
2, 30720, Note_on_c, 0, 83, 62
2, 30767, Note_on_c, 0, 83, 0
2, 30767, Note_on_c, 0, 71, 0
2, 32160, Note_on_c, 0, 71, 62
2, 32160, Note_on_c, 0, 83, 62
2, 32207, Note_on_c, 0, 83, 0
2, 32207, Note_on_c, 0, 71, 0
2, 33600, Note_on_c, 0, 71, 62
2, 33600, Note_on_c, 0, 83, 62
2, 33647, Note_on_c, 0, 83, 0
2, 33647, Note_on_c, 0, 71, 0
2, 34560, Note_on_c, 0, 73, 62
2, 34800, Note_on_c, 0, 73, 0
2, 34800, Note_on_c, 0, 69, 62
2, 35040, Note_on_c, 0, 69, 0
2, 35520, Note_on_c, 0, 69, 62
2, 35760, Note_on_c, 0, 69, 0
2, 35760, Note_on_c, 0, 66, 62
2, 36000, Note_on_c, 0, 66, 0
2, 36000, Note_on_c, 0, 69, 62
2, 36240, Note_on_c, 0, 69, 0
2, 36240, Note_on_c, 0, 66, 62
2, 36480, Note_on_c, 0, 66, 0
2, 36960, Note_on_c, 0, 71, 62
2, 37200, Note_on_c, 0, 71, 0
2, 37200, Note_on_c, 0, 76, 62
2, 37440, Note_on_c, 0, 76, 0
2, 37440, Note_on_c, 0, 80, 62
2, 37680, Note_on_c, 0, 80, 0
2, 37680, Note_on_c, 0, 83, 62
2, 37920, Note_on_c, 0, 83, 0
2, 38400, Note_on_c, 0, 100, 75
2, 38640, Note_on_c, 0, 100, 0
2, 38640, Note_on_c, 0, 92, 75
2, 38640, Note_on_c, 0, 104, 75
2, 38880, Note_on_c, 0, 104, 0
2, 38880, Note_on_c, 0, 92, 0
2, 39360, Note_on_c, 0, 100, 88
2, 39600, Note_on_c, 0, 100, 0
2, 39600, Note_on_c, 0, 92, 88
2, 39600, Note_on_c, 0, 104, 88
2, 39840, Note_on_c, 0, 104, 0
2, 39840, Note_on_c, 0, 92, 0
2, 40320, Note_on_c, 0, 92, 88
2, 40320, Note_on_c, 0, 104, 88
2, 40343, Note_on_c, 0, 104, 0
2, 40343, Note_on_c, 0, 92, 0
2, 41040, Note_on_c, 0, 89, 62
2, 41040, Note_on_c, 0, 101, 62
2, 41063, Note_on_c, 0, 101, 0
2, 41063, Note_on_c, 0, 89, 0
2, 41280, Note_on_c, 0, 85, 62
2, 41280, Note_on_c, 0, 97, 62
2, 41303, Note_on_c, 0, 97, 0
2, 41303, Note_on_c, 0, 85, 0
2, 42000, Note_on_c, 0, 80, 62
2, 42000, Note_on_c, 0, 92, 62
2, 42023, Note_on_c, 0, 92, 0
2, 42023, Note_on_c, 0, 80, 0
2, 42240, Note_on_c, 0, 82, 62
2, 42240, Note_on_c, 0, 94, 62
2, 42263, Note_on_c, 0, 94, 0
2, 42263, Note_on_c, 0, 82, 0
2, 42960, Note_on_c, 0, 78, 62
2, 42960, Note_on_c, 0, 90, 62
2, 42983, Note_on_c, 0, 90, 0
2, 42983, Note_on_c, 0, 78, 0
2, 43200, Note_on_c, 0, 75, 62
2, 43200, Note_on_c, 0, 87, 62
2, 43247, Note_on_c, 0, 87, 0
2, 43247, Note_on_c, 0, 75, 0
2, 43680, Note_on_c, 0, 80, 62
2, 43680, Note_on_c, 0, 92, 62
2, 43727, Note_on_c, 0, 92, 0
2, 43727, Note_on_c, 0, 80, 0
2, 44160, Note_on_c, 0, 78, 62
2, 44160, Note_on_c, 0, 90, 62
2, 44207, Note_on_c, 0, 90, 0
2, 44207, Note_on_c, 0, 78, 0
2, 44640, Note_on_c, 0, 77, 62
2, 44640, Note_on_c, 0, 89, 62
2, 44687, Note_on_c, 0, 89, 0
2, 44687, Note_on_c, 0, 77, 0
2, 45120, Note_on_c, 0, 83, 62
2, 45120, Note_on_c, 0, 95, 62
2, 45167, Note_on_c, 0, 95, 0
2, 45167, Note_on_c, 0, 83, 0
2, 45600, Note_on_c, 0, 82, 62
2, 45600, Note_on_c, 0, 94, 62
2, 45647, Note_on_c, 0, 94, 0
2, 45647, Note_on_c, 0, 82, 0
2, 46080, Note_on_c, 0, 92, 62
2, 46080, Note_on_c, 0, 104, 62
2, 46103, Note_on_c, 0, 104, 0
2, 46103, Note_on_c, 0, 92, 0
2, 46800, Note_on_c, 0, 89, 62
2, 46800, Note_on_c, 0, 101, 62
2, 46823, Note_on_c, 0, 101, 0
2, 46823, Note_on_c, 0, 89, 0
2, 47040, Note_on_c, 0, 88, 62
2, 47040, Note_on_c, 0, 100, 62
2, 47063, Note_on_c, 0, 100, 0
2, 47063, Note_on_c, 0, 88, 0
2, 47760, Note_on_c, 0, 85, 62
2, 47760, Note_on_c, 0, 97, 62
2, 47783, Note_on_c, 0, 97, 0
2, 47783, Note_on_c, 0, 85, 0
2, 48000, Note_on_c, 0, 81, 62
2, 48000, Note_on_c, 0, 93, 62
2, 48023, Note_on_c, 0, 93, 0
2, 48023, Note_on_c, 0, 81, 0
2, 48720, Note_on_c, 0, 78, 62
2, 48720, Note_on_c, 0, 90, 62
2, 48743, Note_on_c, 0, 90, 0
2, 48743, Note_on_c, 0, 78, 0
2, 48960, Note_on_c, 0, 75, 62
2, 48960, Note_on_c, 0, 87, 62
2, 49007, Note_on_c, 0, 87, 0
2, 49007, Note_on_c, 0, 75, 0
2, 49440, Note_on_c, 0, 81, 62
2, 49440, Note_on_c, 0, 93, 62
2, 49487, Note_on_c, 0, 93, 0
2, 49487, Note_on_c, 0, 81, 0
2, 49920, Note_on_c, 0, 80, 62
2, 49920, Note_on_c, 0, 92, 62
2, 49967, Note_on_c, 0, 92, 0
2, 49967, Note_on_c, 0, 80, 0
2, 50400, Note_on_c, 0, 84, 62
2, 50447, Note_on_c, 0, 84, 0
2, 50880, Note_on_c, 0, 78, 62
2, 50880, Note_on_c, 0, 90, 62
2, 50927, Note_on_c, 0, 90, 0
2, 50927, Note_on_c, 0, 78, 0
2, 51360, Note_on_c, 0, 77, 62
2, 51360, Note_on_c, 0, 89, 62
2, 51407, Note_on_c, 0, 89, 0
2, 51407, Note_on_c, 0, 77, 0
2, 51840, Note_on_c, 0, 82, 62
2, 51887, Note_on_c, 0, 82, 0
2, 52320, Note_on_c, 0, 75, 62
2, 52320, Note_on_c, 0, 87, 62
2, 52367, Note_on_c, 0, 87, 0
2, 52367, Note_on_c, 0, 75, 0
2, 52800, Note_on_c, 0, 72, 62
2, 52800, Note_on_c, 0, 84, 62
2, 52847, Note_on_c, 0, 84, 0
2, 52847, Note_on_c, 0, 72, 0
2, 53520, Control_c, 0, 64, 127
2, 53520, Note_on_c, 0, 73, 62
2, 53760, Note_on_c, 0, 73, 0
2, 53760, Note_on_c, 0, 77, 62
2, 54000, Note_on_c, 0, 77, 0
2, 54000, Note_on_c, 0, 85, 62
2, 54240, Note_on_c, 0, 85, 0
2, 54240, Note_on_c, 0, 78, 62
2, 54240, Note_on_c, 0, 82, 62
2, 54480, Note_on_c, 0, 82, 0
2, 54480, Note_on_c, 0, 78, 0
2, 54480, Control_c, 0, 64, 0
2, 54480, Note_on_c, 0, 73, 62
2, 54720, Note_on_c, 0, 73, 0
2, 54960, Control_c, 0, 64, 127
2, 54960, Note_on_c, 0, 73, 62
2, 55200, Note_on_c, 0, 73, 0
2, 55200, Note_on_c, 0, 77, 62
2, 55440, Note_on_c, 0, 77, 0
2, 55440, Note_on_c, 0, 85, 62
2, 55680, Note_on_c, 0, 85, 0
2, 55680, Note_on_c, 0, 78, 62
2, 55680, Note_on_c, 0, 82, 62
2, 55920, Note_on_c, 0, 82, 0
2, 55920, Note_on_c, 0, 78, 0
2, 55920, Control_c, 0, 64, 0
2, 55920, Note_on_c, 0, 73, 62
2, 56160, Note_on_c, 0, 73, 0
2, 56400, Control_c, 0, 64, 127
2, 56400, Note_on_c, 0, 73, 75
2, 56640, Note_on_c, 0, 73, 0
2, 56640, Note_on_c, 0, 77, 75
2, 56880, Note_on_c, 0, 77, 0
2, 56880, Note_on_c, 0, 85, 75
2, 57120, Note_on_c, 0, 85, 0
2, 57120, Note_on_c, 0, 78, 75
2, 57120, Note_on_c, 0, 82, 75
2, 57360, Note_on_c, 0, 82, 0
2, 57360, Note_on_c, 0, 78, 0
2, 57360, Control_c, 0, 64, 0
2, 57360, Note_on_c, 0, 73, 75
2, 57600, Note_on_c, 0, 73, 0
2, 57840, Note_on_c, 0, 85, 88
2, 57863, Note_on_c, 0, 85, 0
2, 58080, Note_on_c, 0, 77, 62
2, 58080, Note_on_c, 0, 89, 62
2, 58103, Note_on_c, 0, 89, 0
2, 58103, Note_on_c, 0, 77, 0
2, 58320, Note_on_c, 0, 85, 62
2, 58343, Note_on_c, 0, 85, 0
2, 59040, Note_on_c, 0, 77, 88
2, 59040, Note_on_c, 0, 89, 88
2, 59063, Note_on_c, 0, 89, 0
2, 59063, Note_on_c, 0, 77, 0
2, 59280, Note_on_c, 0, 85, 62
2, 59303, Note_on_c, 0, 85, 0
2, 60960, Note_on_c, 0, 70, 62
2, 60960, Note_on_c, 0, 82, 62
2, 61007, Note_on_c, 0, 82, 0
2, 61007, Note_on_c, 0, 70, 0
2, 62400, Note_on_c, 0, 70, 62
2, 62400, Note_on_c, 0, 82, 62
2, 62447, Note_on_c, 0, 82, 0
2, 62447, Note_on_c, 0, 70, 0
2, 63840, Note_on_c, 0, 70, 62
2, 63840, Note_on_c, 0, 82, 62
2, 63887, Note_on_c, 0, 82, 0
2, 63887, Note_on_c, 0, 70, 0
2, 65280, Note_on_c, 0, 71, 62
2, 65280, Note_on_c, 0, 83, 62
2, 65327, Note_on_c, 0, 83, 0
2, 65327, Note_on_c, 0, 71, 0
2, 66720, Note_on_c, 0, 71, 62
2, 66720, Note_on_c, 0, 83, 62
2, 66767, Note_on_c, 0, 83, 0
2, 66767, Note_on_c, 0, 71, 0
2, 68160, Note_on_c, 0, 71, 62
2, 68160, Note_on_c, 0, 83, 62
2, 68207, Note_on_c, 0, 83, 0
2, 68207, Note_on_c, 0, 71, 0
2, 69600, Note_on_c, 0, 71, 62
2, 69600, Note_on_c, 0, 83, 62
2, 69647, Note_on_c, 0, 83, 0
2, 69647, Note_on_c, 0, 71, 0
2, 71040, Note_on_c, 0, 71, 62
2, 71040, Note_on_c, 0, 83, 62
2, 71087, Note_on_c, 0, 83, 0
2, 71087, Note_on_c, 0, 71, 0
2, 72000, Note_on_c, 0, 73, 62
2, 72240, Note_on_c, 0, 73, 0
2, 72240, Note_on_c, 0, 69, 62
2, 72480, Note_on_c, 0, 69, 0
2, 72960, Note_on_c, 0, 69, 62
2, 73200, Note_on_c, 0, 69, 0
2, 73200, Note_on_c, 0, 66, 62
2, 73440, Note_on_c, 0, 66, 0
2, 73440, Note_on_c, 0, 69, 62
2, 73680, Note_on_c, 0, 69, 0
2, 73680, Note_on_c, 0, 66, 62
2, 73920, Note_on_c, 0, 66, 0
2, 74400, Note_on_c, 0, 71, 62
2, 74640, Note_on_c, 0, 71, 0
2, 74640, Note_on_c, 0, 76, 62
2, 74880, Note_on_c, 0, 76, 0
2, 74880, Note_on_c, 0, 80, 62
2, 75120, Note_on_c, 0, 80, 0
2, 75120, Note_on_c, 0, 83, 62
2, 75360, Note_on_c, 0, 83, 0
2, 75840, Note_on_c, 0, 100, 75
2, 76080, Note_on_c, 0, 100, 0
2, 76080, Note_on_c, 0, 92, 75
2, 76080, Note_on_c, 0, 104, 75
2, 76320, Note_on_c, 0, 104, 0
2, 76320, Note_on_c, 0, 92, 0
2, 76800, Note_on_c, 0, 100, 88
2, 77040, Note_on_c, 0, 100, 0
2, 77040, Note_on_c, 0, 92, 88
2, 77040, Note_on_c, 0, 104, 88
2, 77280, Note_on_c, 0, 104, 0
2, 77280, Note_on_c, 0, 92, 0
2, 77760, Note_on_c, 0, 92, 88
2, 77760, Note_on_c, 0, 104, 88
2, 77783, Note_on_c, 0, 104, 0
2, 77783, Note_on_c, 0, 92, 0
2, 78480, Note_on_c, 0, 89, 62
2, 78480, Note_on_c, 0, 101, 62
2, 78503, Note_on_c, 0, 101, 0
2, 78503, Note_on_c, 0, 89, 0
2, 78720, Note_on_c, 0, 85, 62
2, 78720, Note_on_c, 0, 97, 62
2, 78743, Note_on_c, 0, 97, 0
2, 78743, Note_on_c, 0, 85, 0
2, 79440, Note_on_c, 0, 80, 62
2, 79440, Note_on_c, 0, 92, 62
2, 79463, Note_on_c, 0, 92, 0
2, 79463, Note_on_c, 0, 80, 0
2, 79680, Note_on_c, 0, 82, 62
2, 79680, Note_on_c, 0, 94, 62
2, 79703, Note_on_c, 0, 94, 0
2, 79703, Note_on_c, 0, 82, 0
2, 80400, Note_on_c, 0, 78, 62
2, 80400, Note_on_c, 0, 90, 62
2, 80423, Note_on_c, 0, 90, 0
2, 80423, Note_on_c, 0, 78, 0
2, 80640, Note_on_c, 0, 75, 62
2, 80640, Note_on_c, 0, 87, 62
2, 80687, Note_on_c, 0, 87, 0
2, 80687, Note_on_c, 0, 75, 0
2, 81120, Note_on_c, 0, 80, 62
2, 81120, Note_on_c, 0, 92, 62
2, 81167, Note_on_c, 0, 92, 0
2, 81167, Note_on_c, 0, 80, 0
2, 81600, Note_on_c, 0, 78, 62
2, 81600, Note_on_c, 0, 90, 62
2, 81647, Note_on_c, 0, 90, 0
2, 81647, Note_on_c, 0, 78, 0
2, 82080, Note_on_c, 0, 77, 62
2, 82080, Note_on_c, 0, 89, 62
2, 82127, Note_on_c, 0, 89, 0
2, 82127, Note_on_c, 0, 77, 0
2, 82560, Note_on_c, 0, 83, 62
2, 82560, Note_on_c, 0, 95, 62
2, 82607, Note_on_c, 0, 95, 0
2, 82607, Note_on_c, 0, 83, 0
2, 83040, Note_on_c, 0, 82, 62
2, 83040, Note_on_c, 0, 94, 62
2, 83087, Note_on_c, 0, 94, 0
2, 83087, Note_on_c, 0, 82, 0
2, 83520, Note_on_c, 0, 92, 62
2, 83520, Note_on_c, 0, 104, 62
2, 83543, Note_on_c, 0, 104, 0
2, 83543, Note_on_c, 0, 92, 0
2, 84240, Note_on_c, 0, 89, 62
2, 84240, Note_on_c, 0, 101, 62
2, 84263, Note_on_c, 0, 101, 0
2, 84263, Note_on_c, 0, 89, 0
2, 84480, Note_on_c, 0, 88, 62
2, 84480, Note_on_c, 0, 100, 62
2, 84503, Note_on_c, 0, 100, 0
2, 84503, Note_on_c, 0, 88, 0
2, 85200, Note_on_c, 0, 85, 62
2, 85200, Note_on_c, 0, 97, 62
2, 85223, Note_on_c, 0, 97, 0
2, 85223, Note_on_c, 0, 85, 0
2, 85440, Note_on_c, 0, 81, 62
2, 85440, Note_on_c, 0, 93, 62
2, 85463, Note_on_c, 0, 93, 0
2, 85463, Note_on_c, 0, 81, 0
2, 86160, Note_on_c, 0, 78, 62
2, 86160, Note_on_c, 0, 90, 62
2, 86183, Note_on_c, 0, 90, 0
2, 86183, Note_on_c, 0, 78, 0
2, 86400, Note_on_c, 0, 75, 62
2, 86400, Note_on_c, 0, 87, 62
2, 86447, Note_on_c, 0, 87, 0
2, 86447, Note_on_c, 0, 75, 0
2, 86880, Note_on_c, 0, 81, 62
2, 86880, Note_on_c, 0, 93, 62
2, 86927, Note_on_c, 0, 93, 0
2, 86927, Note_on_c, 0, 81, 0
2, 87360, Note_on_c, 0, 80, 62
2, 87360, Note_on_c, 0, 92, 62
2, 87407, Note_on_c, 0, 92, 0
2, 87407, Note_on_c, 0, 80, 0
2, 87840, Note_on_c, 0, 84, 62
2, 87887, Note_on_c, 0, 84, 0
2, 88320, Note_on_c, 0, 78, 62
2, 88320, Note_on_c, 0, 90, 62
2, 88367, Note_on_c, 0, 90, 0
2, 88367, Note_on_c, 0, 78, 0
2, 88800, Note_on_c, 0, 77, 62
2, 88800, Note_on_c, 0, 89, 62
2, 88847, Note_on_c, 0, 89, 0
2, 88847, Note_on_c, 0, 77, 0
2, 89280, Note_on_c, 0, 82, 62
2, 89327, Note_on_c, 0, 82, 0
2, 89760, Note_on_c, 0, 75, 62
2, 89760, Note_on_c, 0, 87, 62
2, 89807, Note_on_c, 0, 87, 0
2, 89807, Note_on_c, 0, 75, 0
2, 90240, Note_on_c, 0, 72, 62
2, 90240, Note_on_c, 0, 84, 62
2, 90287, Note_on_c, 0, 84, 0
2, 90287, Note_on_c, 0, 72, 0
2, 90960, Control_c, 0, 64, 127
2, 90960, Note_on_c, 0, 73, 62
2, 91200, Note_on_c, 0, 73, 0
2, 91200, Note_on_c, 0, 77, 62
2, 91440, Note_on_c, 0, 77, 0
2, 91440, Note_on_c, 0, 85, 62
2, 91680, Note_on_c, 0, 85, 0
2, 91680, Note_on_c, 0, 78, 62
2, 91680, Note_on_c, 0, 82, 62
2, 91920, Note_on_c, 0, 82, 0
2, 91920, Note_on_c, 0, 78, 0
2, 91920, Control_c, 0, 64, 0
2, 91920, Note_on_c, 0, 73, 62
2, 92160, Note_on_c, 0, 73, 0
2, 92400, Control_c, 0, 64, 127
2, 92400, Note_on_c, 0, 73, 62
2, 92640, Note_on_c, 0, 73, 0
2, 92640, Note_on_c, 0, 77, 62
2, 92880, Note_on_c, 0, 77, 0
2, 92880, Note_on_c, 0, 85, 62
2, 93120, Note_on_c, 0, 85, 0
2, 93120, Note_on_c, 0, 78, 62
2, 93120, Note_on_c, 0, 82, 62
2, 93360, Note_on_c, 0, 82, 0
2, 93360, Note_on_c, 0, 78, 0
2, 93360, Control_c, 0, 64, 0
2, 93360, Note_on_c, 0, 73, 62
2, 93600, Note_on_c, 0, 73, 0
2, 93840, Control_c, 0, 64, 127
2, 93840, Note_on_c, 0, 73, 75
2, 94080, Note_on_c, 0, 73, 0
2, 94080, Note_on_c, 0, 77, 75
2, 94320, Note_on_c, 0, 77, 0
2, 94320, Note_on_c, 0, 85, 75
2, 94560, Note_on_c, 0, 85, 0
2, 94560, Note_on_c, 0, 78, 75
2, 94560, Note_on_c, 0, 82, 75
2, 94800, Note_on_c, 0, 82, 0
2, 94800, Note_on_c, 0, 78, 0
2, 94800, Control_c, 0, 64, 0
2, 94800, Note_on_c, 0, 73, 75
2, 95040, Note_on_c, 0, 73, 0
2, 95280, Note_on_c, 0, 85, 88
2, 95303, Note_on_c, 0, 85, 0
2, 95520, Note_on_c, 0, 77, 88
2, 95520, Note_on_c, 0, 89, 88
2, 95543, Note_on_c, 0, 89, 0
2, 95543, Note_on_c, 0, 77, 0
2, 95760, Note_on_c, 0, 85, 88
2, 95783, Note_on_c, 0, 85, 0
2, 96480, Control_c, 0, 64, 127
2, 98880, Control_c, 0, 64, 0
2, 98880, End_track
3, 0, Start_track
3, 0, Title_t, "Instrument17"
3, 0, Program_c, 0, 0
3, 0, Control_c, 0, 7, 115
3, 0, Control_c, 0, 10, 80
3, 240, Note_on_c, 0, 77, 62
3, 263, Note_on_c, 0, 77, 0
3, 480, Note_on_c, 0, 80, 62
3, 503, Note_on_c, 0, 80, 0
3, 1200, Note_on_c, 0, 68, 62
3, 1223, Note_on_c, 0, 68, 0
3, 1440, Note_on_c, 0, 73, 62
3, 1463, Note_on_c, 0, 73, 0
3, 2160, Note_on_c, 0, 66, 62
3, 2183, Note_on_c, 0, 66, 0
3, 2400, Note_on_c, 0, 70, 62
3, 2423, Note_on_c, 0, 70, 0
3, 3120, Note_on_c, 0, 72, 62
3, 3143, Note_on_c, 0, 72, 0
3, 3360, Note_on_c, 0, 68, 62
3, 3383, Note_on_c, 0, 68, 0
3, 3600, Note_on_c, 0, 70, 62
3, 3623, Note_on_c, 0, 70, 0
3, 3840, Note_on_c, 0, 72, 62
3, 3863, Note_on_c, 0, 72, 0
3, 4080, Note_on_c, 0, 75, 62
3, 4103, Note_on_c, 0, 75, 0
3, 4320, Note_on_c, 0, 73, 62
3, 4343, Note_on_c, 0, 73, 0
3, 4560, Note_on_c, 0, 75, 62
3, 4583, Note_on_c, 0, 75, 0
3, 4800, Note_on_c, 0, 77, 62
3, 4823, Note_on_c, 0, 77, 0
3, 5040, Note_on_c, 0, 80, 62
3, 5063, Note_on_c, 0, 80, 0
3, 5280, Note_on_c, 0, 78, 62
3, 5303, Note_on_c, 0, 78, 0
3, 5520, Note_on_c, 0, 73, 62
3, 5543, Note_on_c, 0, 73, 0
3, 6000, Note_on_c, 0, 77, 62
3, 6023, Note_on_c, 0, 77, 0
3, 6240, Note_on_c, 0, 80, 62
3, 6263, Note_on_c, 0, 80, 0
3, 6960, Note_on_c, 0, 68, 62
3, 6983, Note_on_c, 0, 68, 0
3, 7200, Note_on_c, 0, 73, 62
3, 7223, Note_on_c, 0, 73, 0
3, 7920, Note_on_c, 0, 65, 62
3, 7943, Note_on_c, 0, 65, 0
3, 8160, Note_on_c, 0, 68, 62
3, 8183, Note_on_c, 0, 68, 0
3, 8880, Note_on_c, 0, 70, 62
3, 8903, Note_on_c, 0, 70, 0
3, 9120, Note_on_c, 0, 75, 62
3, 9143, Note_on_c, 0, 75, 0
3, 9360, Note_on_c, 0, 77, 62
3, 9383, Note_on_c, 0, 77, 0
3, 9600, Note_on_c, 0, 78, 62
3, 9623, Note_on_c, 0, 78, 0
3, 9840, Note_on_c, 0, 75, 62
3, 9863, Note_on_c, 0, 75, 0
3, 10080, Note_on_c, 0, 73, 62
3, 10103, Note_on_c, 0, 73, 0
3, 10560, Note_on_c, 0, 82, 62
3, 10583, Note_on_c, 0, 82, 0
3, 10800, Note_on_c, 0, 73, 62
3, 10823, Note_on_c, 0, 73, 0
3, 11040, Note_on_c, 0, 70, 62
3, 11063, Note_on_c, 0, 70, 0
3, 11760, Note_on_c, 0, 77, 62
3, 11783, Note_on_c, 0, 77, 0
3, 12000, Note_on_c, 0, 80, 62
3, 12023, Note_on_c, 0, 80, 0
3, 12720, Note_on_c, 0, 68, 62
3, 12743, Note_on_c, 0, 68, 0
3, 12960, Note_on_c, 0, 73, 62
3, 12983, Note_on_c, 0, 73, 0
3, 13680, Note_on_c, 0, 66, 62
3, 13703, Note_on_c, 0, 66, 0
3, 13920, Note_on_c, 0, 70, 62
3, 13943, Note_on_c, 0, 70, 0
3, 14640, Note_on_c, 0, 72, 62
3, 14663, Note_on_c, 0, 72, 0
3, 14880, Note_on_c, 0, 68, 62
3, 14903, Note_on_c, 0, 68, 0
3, 15120, Note_on_c, 0, 70, 62
3, 15143, Note_on_c, 0, 70, 0
3, 15360, Note_on_c, 0, 72, 62
3, 15383, Note_on_c, 0, 72, 0
3, 15600, Note_on_c, 0, 75, 62
3, 15623, Note_on_c, 0, 75, 0
3, 15840, Note_on_c, 0, 73, 62
3, 15863, Note_on_c, 0, 73, 0
3, 16080, Note_on_c, 0, 75, 62
3, 16103, Note_on_c, 0, 75, 0
3, 16320, Note_on_c, 0, 77, 62
3, 16343, Note_on_c, 0, 77, 0
3, 16560, Note_on_c, 0, 80, 62
3, 16583, Note_on_c, 0, 80, 0
3, 16800, Note_on_c, 0, 78, 62
3, 16823, Note_on_c, 0, 78, 0
3, 17040, Note_on_c, 0, 73, 62
3, 17063, Note_on_c, 0, 73, 0
3, 17520, Note_on_c, 0, 77, 62
3, 17543, Note_on_c, 0, 77, 0
3, 17760, Note_on_c, 0, 80, 62
3, 17783, Note_on_c, 0, 80, 0
3, 18480, Note_on_c, 0, 68, 62
3, 18503, Note_on_c, 0, 68, 0
3, 18720, Note_on_c, 0, 73, 62
3, 18743, Note_on_c, 0, 73, 0
3, 19440, Note_on_c, 0, 65, 62
3, 19463, Note_on_c, 0, 65, 0
3, 19680, Note_on_c, 0, 68, 62
3, 19703, Note_on_c, 0, 68, 0
3, 20400, Note_on_c, 0, 70, 62
3, 20423, Note_on_c, 0, 70, 0
3, 20640, Note_on_c, 0, 75, 62
3, 20663, Note_on_c, 0, 75, 0
3, 20880, Note_on_c, 0, 77, 62
3, 20903, Note_on_c, 0, 77, 0
3, 21120, Note_on_c, 0, 78, 62
3, 21143, Note_on_c, 0, 78, 0
3, 21360, Note_on_c, 0, 75, 62
3, 21383, Note_on_c, 0, 75, 0
3, 21600, Note_on_c, 0, 73, 62
3, 21623, Note_on_c, 0, 73, 0
3, 22080, Note_on_c, 0, 82, 62
3, 22103, Note_on_c, 0, 82, 0
3, 22320, Note_on_c, 0, 73, 62
3, 22343, Note_on_c, 0, 73, 0
3, 22560, Note_on_c, 0, 70, 62
3, 22583, Note_on_c, 0, 70, 0
3, 24000, Note_on_c, 0, 62, 62
3, 24000, Note_on_c, 0, 65, 62
3, 24047, Note_on_c, 0, 65, 0
3, 24047, Note_on_c, 0, 62, 0
3, 25440, Note_on_c, 0, 63, 62
3, 25440, Note_on_c, 0, 66, 62
3, 25487, Note_on_c, 0, 66, 0
3, 25487, Note_on_c, 0, 63, 0
3, 26880, Note_on_c, 0, 64, 62
3, 26880, Note_on_c, 0, 66, 62
3, 26927, Note_on_c, 0, 66, 0
3, 26927, Note_on_c, 0, 64, 0
3, 28320, Note_on_c, 0, 63, 62
3, 28320, Note_on_c, 0, 66, 62
3, 28367, Note_on_c, 0, 66, 0
3, 28367, Note_on_c, 0, 63, 0
3, 29760, Note_on_c, 0, 63, 62
3, 29760, Note_on_c, 0, 66, 62
3, 29807, Note_on_c, 0, 66, 0
3, 29807, Note_on_c, 0, 63, 0
3, 31200, Note_on_c, 0, 64, 62
3, 31200, Note_on_c, 0, 68, 62
3, 31247, Note_on_c, 0, 68, 0
3, 31247, Note_on_c, 0, 64, 0
3, 32640, Note_on_c, 0, 63, 62
3, 32640, Note_on_c, 0, 66, 62
3, 32687, Note_on_c, 0, 66, 0
3, 32687, Note_on_c, 0, 63, 0
3, 34080, Note_on_c, 0, 64, 62
3, 34320, Note_on_c, 0, 64, 0
3, 34320, Note_on_c, 0, 68, 62
3, 34560, Note_on_c, 0, 68, 0
3, 35040, Note_on_c, 0, 68, 62
3, 35280, Note_on_c, 0, 68, 0
3, 35280, Note_on_c, 0, 71, 62
3, 35520, Note_on_c, 0, 71, 0
3, 36480, Note_on_c, 0, 64, 62
3, 36720, Note_on_c, 0, 64, 0
3, 36720, Note_on_c, 0, 68, 62
3, 36960, Note_on_c, 0, 68, 0
3, 37920, Note_on_c, 0, 88, 62
3, 38160, Note_on_c, 0, 88, 0
3, 38160, Note_on_c, 0, 92, 62
3, 38400, Note_on_c, 0, 92, 0
3, 38880, Note_on_c, 0, 88, 75
3, 39120, Note_on_c, 0, 88, 0
3, 39120, Note_on_c, 0, 92, 75
3, 39360, Note_on_c, 0, 92, 0
3, 39840, Note_on_c, 0, 88, 88
3, 40080, Note_on_c, 0, 88, 0
3, 40080, Note_on_c, 0, 92, 88
3, 40320, Note_on_c, 0, 92, 0
3, 40560, Note_on_c, 0, 77, 62
3, 40583, Note_on_c, 0, 77, 0
3, 40800, Note_on_c, 0, 80, 62
3, 40823, Note_on_c, 0, 80, 0
3, 41520, Note_on_c, 0, 68, 62
3, 41543, Note_on_c, 0, 68, 0
3, 41760, Note_on_c, 0, 73, 62
3, 41783, Note_on_c, 0, 73, 0
3, 42480, Note_on_c, 0, 66, 62
3, 42503, Note_on_c, 0, 66, 0
3, 42720, Note_on_c, 0, 70, 62
3, 42743, Note_on_c, 0, 70, 0
3, 43440, Note_on_c, 0, 72, 62
3, 43463, Note_on_c, 0, 72, 0
3, 43680, Note_on_c, 0, 68, 62
3, 43703, Note_on_c, 0, 68, 0
3, 43920, Note_on_c, 0, 70, 62
3, 43943, Note_on_c, 0, 70, 0
3, 44160, Note_on_c, 0, 72, 62
3, 44183, Note_on_c, 0, 72, 0
3, 44400, Note_on_c, 0, 75, 62
3, 44423, Note_on_c, 0, 75, 0
3, 44640, Note_on_c, 0, 73, 62
3, 44663, Note_on_c, 0, 73, 0
3, 44880, Note_on_c, 0, 75, 62
3, 44903, Note_on_c, 0, 75, 0
3, 45120, Note_on_c, 0, 77, 62
3, 45143, Note_on_c, 0, 77, 0
3, 45360, Note_on_c, 0, 80, 62
3, 45383, Note_on_c, 0, 80, 0
3, 45600, Note_on_c, 0, 78, 62
3, 45623, Note_on_c, 0, 78, 0
3, 45840, Note_on_c, 0, 73, 62
3, 45863, Note_on_c, 0, 73, 0
3, 46320, Note_on_c, 0, 77, 62
3, 46343, Note_on_c, 0, 77, 0
3, 46560, Note_on_c, 0, 80, 62
3, 46583, Note_on_c, 0, 80, 0
3, 47280, Note_on_c, 0, 73, 62
3, 47303, Note_on_c, 0, 73, 0
3, 47520, Note_on_c, 0, 76, 62
3, 47543, Note_on_c, 0, 76, 0
3, 48240, Note_on_c, 0, 69, 62
3, 48263, Note_on_c, 0, 69, 0
3, 48480, Note_on_c, 0, 73, 62
3, 48503, Note_on_c, 0, 73, 0
3, 49200, Note_on_c, 0, 73, 62
3, 49440, Note_on_c, 0, 73, 0
3, 49440, Note_on_c, 0, 71, 62
3, 49680, Note_on_c, 0, 71, 0
3, 49680, Note_on_c, 0, 75, 62
3, 49920, Note_on_c, 0, 75, 0
3, 49920, Note_on_c, 0, 76, 62
3, 50160, Note_on_c, 0, 76, 0
3, 50160, Note_on_c, 0, 71, 62
3, 50400, Note_on_c, 0, 71, 0
3, 50400, Note_on_c, 0, 72, 62
3, 50640, Note_on_c, 0, 72, 0
3, 50640, Note_on_c, 0, 70, 62
3, 50880, Note_on_c, 0, 70, 0
3, 50880, Note_on_c, 0, 68, 62
3, 51120, Note_on_c, 0, 68, 0
3, 51120, Note_on_c, 0, 72, 62
3, 51360, Note_on_c, 0, 72, 0
3, 51360, Note_on_c, 0, 73, 62
3, 51600, Note_on_c, 0, 73, 0
3, 51600, Note_on_c, 0, 68, 62
3, 51840, Note_on_c, 0, 68, 0
3, 51840, Note_on_c, 0, 70, 62
3, 52080, Note_on_c, 0, 70, 0
3, 52080, Note_on_c, 0, 68, 62
3, 52320, Note_on_c, 0, 68, 0
3, 52320, Note_on_c, 0, 66, 62
3, 52560, Note_on_c, 0, 66, 0
3, 52560, Note_on_c, 0, 70, 62
3, 52800, Note_on_c, 0, 70, 0
3, 52800, Note_on_c, 0, 68, 62
3, 53040, Note_on_c, 0, 68, 0
3, 53040, Note_on_c, 0, 66, 62
3, 53200, Note_on_c, 0, 65, 62
3, 53232, Note_on_c, 0, 65, 0
3, 53240, Note_on_c, 0, 68, 62
3, 53268, Note_on_c, 0, 68, 0
3, 53280, Note_on_c, 0, 66, 0
3, 53280, Note_on_c, 0, 73, 62
3, 53303, Note_on_c, 0, 73, 0
3, 54160, Note_on_c, 0, 66, 62
3, 54192, Note_on_c, 0, 66, 0
3, 54200, Note_on_c, 0, 70, 62
3, 54228, Note_on_c, 0, 70, 0
3, 54240, Note_on_c, 0, 73, 62
3, 54263, Note_on_c, 0, 73, 0
3, 54640, Note_on_c, 0, 65, 62
3, 54672, Note_on_c, 0, 65, 0
3, 54680, Note_on_c, 0, 68, 62
3, 54708, Note_on_c, 0, 68, 0
3, 54720, Note_on_c, 0, 73, 62
3, 54743, Note_on_c, 0, 73, 0
3, 55600, Note_on_c, 0, 66, 62
3, 55632, Note_on_c, 0, 66, 0
3, 55640, Note_on_c, 0, 70, 62
3, 55668, Note_on_c, 0, 70, 0
3, 55680, Note_on_c, 0, 73, 62
3, 55703, Note_on_c, 0, 73, 0
3, 56080, Note_on_c, 0, 65, 62
3, 56112, Note_on_c, 0, 65, 0
3, 56120, Note_on_c, 0, 68, 62
3, 56148, Note_on_c, 0, 68, 0
3, 56160, Note_on_c, 0, 73, 75
3, 56183, Note_on_c, 0, 73, 0
3, 57040, Note_on_c, 0, 66, 75
3, 57072, Note_on_c, 0, 66, 0
3, 57080, Note_on_c, 0, 70, 75
3, 57108, Note_on_c, 0, 70, 0
3, 57120, Note_on_c, 0, 73, 75
3, 57143, Note_on_c, 0, 73, 0
3, 57520, Note_on_c, 0, 65, 75
3, 57552, Note_on_c, 0, 65, 0
3, 57560, Note_on_c, 0, 68, 75
3, 57588, Note_on_c, 0, 68, 0
3, 57600, Note_on_c, 0, 73, 88
3, 57623, Note_on_c, 0, 73, 0
3, 58560, Note_on_c, 0, 65, 62
3, 58583, Note_on_c, 0, 65, 0
3, 58800, Note_on_c, 0, 61, 62
3, 58823, Note_on_c, 0, 61, 0
3, 59520, Note_on_c, 0, 65, 62
3, 59543, Note_on_c, 0, 65, 0
3, 59760, Note_on_c, 0, 61, 62
3, 59783, Note_on_c, 0, 61, 0
3, 61440, Note_on_c, 0, 62, 62
3, 61440, Note_on_c, 0, 65, 62
3, 61487, Note_on_c, 0, 65, 0
3, 61487, Note_on_c, 0, 62, 0
3, 62880, Note_on_c, 0, 63, 62
3, 62880, Note_on_c, 0, 66, 62
3, 62927, Note_on_c, 0, 66, 0
3, 62927, Note_on_c, 0, 63, 0
3, 64320, Note_on_c, 0, 64, 62
3, 64320, Note_on_c, 0, 66, 62
3, 64367, Note_on_c, 0, 66, 0
3, 64367, Note_on_c, 0, 64, 0
3, 65760, Note_on_c, 0, 63, 62
3, 65760, Note_on_c, 0, 66, 62
3, 65807, Note_on_c, 0, 66, 0
3, 65807, Note_on_c, 0, 63, 0
3, 67200, Note_on_c, 0, 63, 62
3, 67200, Note_on_c, 0, 66, 62
3, 67247, Note_on_c, 0, 66, 0
3, 67247, Note_on_c, 0, 63, 0
3, 68640, Note_on_c, 0, 64, 62
3, 68640, Note_on_c, 0, 68, 62
3, 68687, Note_on_c, 0, 68, 0
3, 68687, Note_on_c, 0, 64, 0
3, 70080, Note_on_c, 0, 63, 62
3, 70080, Note_on_c, 0, 66, 62
3, 70127, Note_on_c, 0, 66, 0
3, 70127, Note_on_c, 0, 63, 0
3, 71520, Note_on_c, 0, 64, 62
3, 71760, Note_on_c, 0, 64, 0
3, 71760, Note_on_c, 0, 68, 62
3, 72000, Note_on_c, 0, 68, 0
3, 72480, Note_on_c, 0, 68, 62
3, 72720, Note_on_c, 0, 68, 0
3, 72720, Note_on_c, 0, 71, 62
3, 72960, Note_on_c, 0, 71, 0
3, 73920, Note_on_c, 0, 64, 62
3, 74160, Note_on_c, 0, 64, 0
3, 74160, Note_on_c, 0, 68, 62
3, 74400, Note_on_c, 0, 68, 0
3, 75360, Note_on_c, 0, 88, 62
3, 75600, Note_on_c, 0, 88, 0
3, 75600, Note_on_c, 0, 92, 62
3, 75840, Note_on_c, 0, 92, 0
3, 76320, Note_on_c, 0, 88, 75
3, 76560, Note_on_c, 0, 88, 0
3, 76560, Note_on_c, 0, 92, 75
3, 76800, Note_on_c, 0, 92, 0
3, 77280, Note_on_c, 0, 88, 88
3, 77520, Note_on_c, 0, 88, 0
3, 77520, Note_on_c, 0, 92, 88
3, 77760, Note_on_c, 0, 92, 0
3, 78000, Note_on_c, 0, 77, 62
3, 78023, Note_on_c, 0, 77, 0
3, 78240, Note_on_c, 0, 80, 62
3, 78263, Note_on_c, 0, 80, 0
3, 78960, Note_on_c, 0, 68, 62
3, 78983, Note_on_c, 0, 68, 0
3, 79200, Note_on_c, 0, 73, 62
3, 79223, Note_on_c, 0, 73, 0
3, 79920, Note_on_c, 0, 66, 62
3, 79943, Note_on_c, 0, 66, 0
3, 80160, Note_on_c, 0, 70, 62
3, 80183, Note_on_c, 0, 70, 0
3, 80880, Note_on_c, 0, 72, 62
3, 80903, Note_on_c, 0, 72, 0
3, 81120, Note_on_c, 0, 68, 62
3, 81143, Note_on_c, 0, 68, 0
3, 81360, Note_on_c, 0, 70, 62
3, 81383, Note_on_c, 0, 70, 0
3, 81600, Note_on_c, 0, 72, 62
3, 81623, Note_on_c, 0, 72, 0
3, 81840, Note_on_c, 0, 75, 62
3, 81863, Note_on_c, 0, 75, 0
3, 82080, Note_on_c, 0, 73, 62
3, 82103, Note_on_c, 0, 73, 0
3, 82320, Note_on_c, 0, 75, 62
3, 82343, Note_on_c, 0, 75, 0
3, 82560, Note_on_c, 0, 77, 62
3, 82583, Note_on_c, 0, 77, 0
3, 82800, Note_on_c, 0, 80, 62
3, 82823, Note_on_c, 0, 80, 0
3, 83040, Note_on_c, 0, 78, 62
3, 83063, Note_on_c, 0, 78, 0
3, 83280, Note_on_c, 0, 73, 62
3, 83303, Note_on_c, 0, 73, 0
3, 83760, Note_on_c, 0, 77, 62
3, 83783, Note_on_c, 0, 77, 0
3, 84000, Note_on_c, 0, 80, 62
3, 84023, Note_on_c, 0, 80, 0
3, 84720, Note_on_c, 0, 73, 62
3, 84743, Note_on_c, 0, 73, 0
3, 84960, Note_on_c, 0, 76, 62
3, 84983, Note_on_c, 0, 76, 0
3, 85680, Note_on_c, 0, 69, 62
3, 85703, Note_on_c, 0, 69, 0
3, 85920, Note_on_c, 0, 73, 62
3, 85943, Note_on_c, 0, 73, 0
3, 86640, Note_on_c, 0, 73, 62
3, 86880, Note_on_c, 0, 73, 0
3, 86880, Note_on_c, 0, 71, 62
3, 87120, Note_on_c, 0, 71, 0
3, 87120, Note_on_c, 0, 75, 62
3, 87360, Note_on_c, 0, 75, 0
3, 87360, Note_on_c, 0, 76, 62
3, 87600, Note_on_c, 0, 76, 0
3, 87600, Note_on_c, 0, 71, 62
3, 87840, Note_on_c, 0, 71, 0
3, 87840, Note_on_c, 0, 72, 62
3, 88080, Note_on_c, 0, 72, 0
3, 88080, Note_on_c, 0, 70, 62
3, 88320, Note_on_c, 0, 70, 0
3, 88320, Note_on_c, 0, 68, 62
3, 88560, Note_on_c, 0, 68, 0
3, 88560, Note_on_c, 0, 72, 62
3, 88800, Note_on_c, 0, 72, 0
3, 88800, Note_on_c, 0, 73, 62
3, 89040, Note_on_c, 0, 73, 0
3, 89040, Note_on_c, 0, 68, 62
3, 89280, Note_on_c, 0, 68, 0
3, 89280, Note_on_c, 0, 70, 62
3, 89520, Note_on_c, 0, 70, 0
3, 89520, Note_on_c, 0, 68, 62
3, 89760, Note_on_c, 0, 68, 0
3, 89760, Note_on_c, 0, 66, 62
3, 90000, Note_on_c, 0, 66, 0
3, 90000, Note_on_c, 0, 70, 62
3, 90240, Note_on_c, 0, 70, 0
3, 90240, Note_on_c, 0, 68, 62
3, 90480, Note_on_c, 0, 68, 0
3, 90480, Note_on_c, 0, 66, 62
3, 90640, Note_on_c, 0, 65, 62
3, 90672, Note_on_c, 0, 65, 0
3, 90680, Note_on_c, 0, 68, 62
3, 90708, Note_on_c, 0, 68, 0
3, 90720, Note_on_c, 0, 66, 0
3, 90720, Note_on_c, 0, 73, 62
3, 90743, Note_on_c, 0, 73, 0
3, 91600, Note_on_c, 0, 66, 62
3, 91632, Note_on_c, 0, 66, 0
3, 91640, Note_on_c, 0, 70, 62
3, 91668, Note_on_c, 0, 70, 0
3, 91680, Note_on_c, 0, 73, 62
3, 91703, Note_on_c, 0, 73, 0
3, 92080, Note_on_c, 0, 65, 62
3, 92112, Note_on_c, 0, 65, 0
3, 92120, Note_on_c, 0, 68, 62
3, 92148, Note_on_c, 0, 68, 0
3, 92160, Note_on_c, 0, 73, 62
3, 92183, Note_on_c, 0, 73, 0
3, 93040, Note_on_c, 0, 66, 62
3, 93072, Note_on_c, 0, 66, 0
3, 93080, Note_on_c, 0, 70, 62
3, 93108, Note_on_c, 0, 70, 0
3, 93120, Note_on_c, 0, 73, 62
3, 93143, Note_on_c, 0, 73, 0
3, 93520, Note_on_c, 0, 65, 62
3, 93552, Note_on_c, 0, 65, 0
3, 93560, Note_on_c, 0, 68, 62
3, 93588, Note_on_c, 0, 68, 0
3, 93600, Note_on_c, 0, 73, 75
3, 93623, Note_on_c, 0, 73, 0
3, 94480, Note_on_c, 0, 66, 75
3, 94512, Note_on_c, 0, 66, 0
3, 94520, Note_on_c, 0, 70, 75
3, 94548, Note_on_c, 0, 70, 0
3, 94560, Note_on_c, 0, 73, 75
3, 94583, Note_on_c, 0, 73, 0
3, 94960, Note_on_c, 0, 65, 75
3, 94992, Note_on_c, 0, 65, 0
3, 95000, Note_on_c, 0, 68, 75
3, 95028, Note_on_c, 0, 68, 0
3, 95040, Note_on_c, 0, 73, 88
3, 95063, Note_on_c, 0, 73, 0
3, 96000, Note_on_c, 0, 65, 88
3, 96023, Note_on_c, 0, 65, 0
3, 96240, Note_on_c, 0, 61, 88
3, 96263, Note_on_c, 0, 61, 0
3, 96263, End_track
4, 0, Start_track
4, 0, Title_t, "Instrument18"
4, 0, Program_c, 0, 0
4, 0, Control_c, 0, 7, 115
4, 0, Control_c, 0, 10, 47
4, 480, Note_on_c, 0, 56, 49
4, 480, Note_on_c, 0, 61, 49
4, 480, Note_on_c, 0, 65, 49
4, 480, Note_on_c, 0, 68, 49
4, 527, Note_on_c, 0, 68, 0
4, 527, Note_on_c, 0, 56, 0
4, 527, Note_on_c, 0, 61, 0
4, 527, Note_on_c, 0, 65, 0
4, 1440, Note_on_c, 0, 56, 49
4, 1440, Note_on_c, 0, 61, 49
4, 1440, Note_on_c, 0, 65, 49
4, 1487, Note_on_c, 0, 65, 0
4, 1487, Note_on_c, 0, 61, 0
4, 1487, Note_on_c, 0, 56, 0
4, 2400, Note_on_c, 0, 54, 49
4, 2400, Note_on_c, 0, 58, 49
4, 2400, Note_on_c, 0, 63, 49
4, 2447, Note_on_c, 0, 63, 0
4, 2447, Note_on_c, 0, 58, 0
4, 2447, Note_on_c, 0, 54, 0
4, 3360, Note_on_c, 0, 56, 49
4, 3360, Note_on_c, 0, 63, 49
4, 3360, Note_on_c, 0, 66, 49
4, 3407, Note_on_c, 0, 66, 0
4, 3407, Note_on_c, 0, 63, 0
4, 3407, Note_on_c, 0, 56, 0
4, 3840, Note_on_c, 0, 60, 49
4, 3840, Note_on_c, 0, 63, 49
4, 3887, Note_on_c, 0, 63, 0
4, 3887, Note_on_c, 0, 60, 0
4, 4800, Note_on_c, 0, 56, 49
4, 4800, Note_on_c, 0, 61, 49
4, 4800, Note_on_c, 0, 65, 49
4, 4847, Note_on_c, 0, 65, 0
4, 4847, Note_on_c, 0, 61, 0
4, 4847, Note_on_c, 0, 56, 0
4, 5280, Note_on_c, 0, 58, 49
4, 5280, Note_on_c, 0, 61, 49
4, 5280, Note_on_c, 0, 66, 49
4, 5327, Note_on_c, 0, 66, 0
4, 5327, Note_on_c, 0, 61, 0
4, 5327, Note_on_c, 0, 58, 0
4, 6240, Note_on_c, 0, 56, 49
4, 6240, Note_on_c, 0, 61, 49
4, 6240, Note_on_c, 0, 65, 49
4, 6240, Note_on_c, 0, 68, 49
4, 6287, Note_on_c, 0, 68, 0
4, 6287, Note_on_c, 0, 56, 0
4, 6287, Note_on_c, 0, 61, 0
4, 6287, Note_on_c, 0, 65, 0
4, 7200, Note_on_c, 0, 56, 49
4, 7200, Note_on_c, 0, 61, 49
4, 7200, Note_on_c, 0, 65, 49
4, 7247, Note_on_c, 0, 65, 0
4, 7247, Note_on_c, 0, 61, 0
4, 7247, Note_on_c, 0, 56, 0
4, 8160, Note_on_c, 0, 53, 49
4, 8160, Note_on_c, 0, 58, 49
4, 8160, Note_on_c, 0, 62, 49
4, 8207, Note_on_c, 0, 62, 0
4, 8207, Note_on_c, 0, 58, 0
4, 8207, Note_on_c, 0, 53, 0
4, 9120, Note_on_c, 0, 58, 49
4, 9120, Note_on_c, 0, 66, 49
4, 9167, Note_on_c, 0, 66, 0
4, 9167, Note_on_c, 0, 58, 0
4, 9600, Note_on_c, 0, 57, 49
4, 9600, Note_on_c, 0, 63, 49
4, 9647, Note_on_c, 0, 63, 0
4, 9647, Note_on_c, 0, 57, 0
4, 10080, Note_on_c, 0, 58, 49
4, 10080, Note_on_c, 0, 61, 49
4, 10127, Note_on_c, 0, 61, 0
4, 10127, Note_on_c, 0, 58, 0
4, 10800, Note_on_c, 0, 61, 49
4, 10823, Note_on_c, 0, 61, 0
4, 11040, Note_on_c, 0, 58, 49
4, 11063, Note_on_c, 0, 58, 0
4, 11280, Note_on_c, 0, 49, 49
4, 11303, Note_on_c, 0, 49, 0
4, 12000, Note_on_c, 0, 56, 49
4, 12000, Note_on_c, 0, 61, 49
4, 12000, Note_on_c, 0, 65, 49
4, 12000, Note_on_c, 0, 68, 49
4, 12047, Note_on_c, 0, 68, 0
4, 12047, Note_on_c, 0, 56, 0
4, 12047, Note_on_c, 0, 61, 0
4, 12047, Note_on_c, 0, 65, 0
4, 12960, Note_on_c, 0, 56, 49
4, 12960, Note_on_c, 0, 61, 49
4, 12960, Note_on_c, 0, 65, 49
4, 13007, Note_on_c, 0, 65, 0
4, 13007, Note_on_c, 0, 61, 0
4, 13007, Note_on_c, 0, 56, 0
4, 13920, Note_on_c, 0, 54, 49
4, 13920, Note_on_c, 0, 58, 49
4, 13920, Note_on_c, 0, 63, 49
4, 13967, Note_on_c, 0, 63, 0
4, 13967, Note_on_c, 0, 58, 0
4, 13967, Note_on_c, 0, 54, 0
4, 14880, Note_on_c, 0, 56, 49
4, 14880, Note_on_c, 0, 63, 49
4, 14880, Note_on_c, 0, 66, 49
4, 14927, Note_on_c, 0, 66, 0
4, 14927, Note_on_c, 0, 63, 0
4, 14927, Note_on_c, 0, 56, 0
4, 15360, Note_on_c, 0, 60, 49
4, 15360, Note_on_c, 0, 63, 49
4, 15407, Note_on_c, 0, 63, 0
4, 15407, Note_on_c, 0, 60, 0
4, 16320, Note_on_c, 0, 56, 49
4, 16320, Note_on_c, 0, 61, 49
4, 16320, Note_on_c, 0, 65, 49
4, 16367, Note_on_c, 0, 65, 0
4, 16367, Note_on_c, 0, 61, 0
4, 16367, Note_on_c, 0, 56, 0
4, 16800, Note_on_c, 0, 58, 49
4, 16800, Note_on_c, 0, 61, 49
4, 16800, Note_on_c, 0, 66, 49
4, 16847, Note_on_c, 0, 66, 0
4, 16847, Note_on_c, 0, 61, 0
4, 16847, Note_on_c, 0, 58, 0
4, 17760, Note_on_c, 0, 56, 49
4, 17760, Note_on_c, 0, 61, 49
4, 17760, Note_on_c, 0, 65, 49
4, 17760, Note_on_c, 0, 68, 49
4, 17807, Note_on_c, 0, 68, 0
4, 17807, Note_on_c, 0, 56, 0
4, 17807, Note_on_c, 0, 61, 0
4, 17807, Note_on_c, 0, 65, 0
4, 18720, Note_on_c, 0, 56, 49
4, 18720, Note_on_c, 0, 61, 49
4, 18720, Note_on_c, 0, 65, 49
4, 18767, Note_on_c, 0, 65, 0
4, 18767, Note_on_c, 0, 61, 0
4, 18767, Note_on_c, 0, 56, 0
4, 19680, Note_on_c, 0, 53, 49
4, 19680, Note_on_c, 0, 58, 49
4, 19680, Note_on_c, 0, 62, 49
4, 19727, Note_on_c, 0, 62, 0
4, 19727, Note_on_c, 0, 58, 0
4, 19727, Note_on_c, 0, 53, 0
4, 20640, Note_on_c, 0, 58, 49
4, 20640, Note_on_c, 0, 66, 49
4, 20687, Note_on_c, 0, 66, 0
4, 20687, Note_on_c, 0, 58, 0
4, 21120, Note_on_c, 0, 57, 49
4, 21120, Note_on_c, 0, 63, 49
4, 21167, Note_on_c, 0, 63, 0
4, 21167, Note_on_c, 0, 57, 0
4, 21600, Note_on_c, 0, 58, 49
4, 21600, Note_on_c, 0, 61, 49
4, 21647, Note_on_c, 0, 61, 0
4, 21647, Note_on_c, 0, 58, 0
4, 22320, Note_on_c, 0, 61, 49
4, 22343, Note_on_c, 0, 61, 0
4, 22560, Note_on_c, 0, 58, 49
4, 22583, Note_on_c, 0, 58, 0
4, 22800, Note_on_c, 0, 49, 49
4, 22823, Note_on_c, 0, 49, 0
4, 23040, Note_on_c, 0, 53, 75
4, 23280, Note_on_c, 0, 53, 0
4, 23280, Note_on_c, 0, 50, 49
4, 23520, Note_on_c, 0, 50, 0
4, 23520, Note_on_c, 0, 50, 75
4, 23760, Note_on_c, 0, 50, 0
4, 23760, Note_on_c, 0, 53, 49
4, 24000, Note_on_c, 0, 53, 0
4, 24000, Note_on_c, 0, 53, 75
4, 24240, Note_on_c, 0, 53, 0
4, 24240, Note_on_c, 0, 50, 49
4, 24480, Note_on_c, 0, 50, 0
4, 24480, Note_on_c, 0, 54, 75
4, 24720, Note_on_c, 0, 54, 0
4, 24720, Note_on_c, 0, 51, 49
4, 24960, Note_on_c, 0, 51, 0
4, 24960, Note_on_c, 0, 51, 75
4, 25200, Note_on_c, 0, 51, 0
4, 25200, Note_on_c, 0, 54, 49
4, 25440, Note_on_c, 0, 54, 0
4, 25440, Note_on_c, 0, 54, 75
4, 25680, Note_on_c, 0, 54, 0
4, 25680, Note_on_c, 0, 51, 49
4, 25920, Note_on_c, 0, 51, 0
4, 25920, Note_on_c, 0, 54, 75
4, 26160, Note_on_c, 0, 54, 0
4, 26160, Note_on_c, 0, 52, 49
4, 26400, Note_on_c, 0, 52, 0
4, 26400, Note_on_c, 0, 52, 75
4, 26640, Note_on_c, 0, 52, 0
4, 26640, Note_on_c, 0, 54, 49
4, 26880, Note_on_c, 0, 54, 0
4, 26880, Note_on_c, 0, 54, 75
4, 27120, Note_on_c, 0, 54, 0
4, 27120, Note_on_c, 0, 52, 49
4, 27360, Note_on_c, 0, 52, 0
4, 27360, Note_on_c, 0, 54, 75
4, 27600, Note_on_c, 0, 54, 0
4, 27600, Note_on_c, 0, 51, 49
4, 27840, Note_on_c, 0, 51, 0
4, 27840, Note_on_c, 0, 51, 75
4, 28080, Note_on_c, 0, 51, 0
4, 28080, Note_on_c, 0, 54, 49
4, 28320, Note_on_c, 0, 54, 0
4, 28320, Note_on_c, 0, 54, 75
4, 28560, Note_on_c, 0, 54, 0
4, 28560, Note_on_c, 0, 51, 49
4, 28800, Note_on_c, 0, 51, 0
4, 28800, Note_on_c, 0, 61, 75
4, 29040, Note_on_c, 0, 61, 0
4, 29040, Note_on_c, 0, 57, 49
4, 29280, Note_on_c, 0, 57, 0
4, 29280, Note_on_c, 0, 56, 75
4, 29520, Note_on_c, 0, 56, 0
4, 29520, Note_on_c, 0, 59, 49
4, 29760, Note_on_c, 0, 59, 0
4, 29760, Note_on_c, 0, 57, 75
4, 30000, Note_on_c, 0, 57, 0
4, 30000, Note_on_c, 0, 54, 49
4, 30240, Note_on_c, 0, 54, 0
4, 30240, Note_on_c, 0, 57, 75
4, 30480, Note_on_c, 0, 57, 0
4, 30480, Note_on_c, 0, 54, 49
4, 30720, Note_on_c, 0, 54, 0
4, 30720, Note_on_c, 0, 52, 75
4, 30960, Note_on_c, 0, 52, 0
4, 30960, Note_on_c, 0, 56, 49
4, 31200, Note_on_c, 0, 56, 0
4, 31200, Note_on_c, 0, 56, 75
4, 31440, Note_on_c, 0, 56, 0
4, 31440, Note_on_c, 0, 52, 49
4, 31680, Note_on_c, 0, 52, 0
4, 31680, Note_on_c, 0, 61, 75
4, 31920, Note_on_c, 0, 61, 0
4, 31920, Note_on_c, 0, 57, 49
4, 32160, Note_on_c, 0, 57, 0
4, 32160, Note_on_c, 0, 56, 75
4, 32400, Note_on_c, 0, 56, 0
4, 32400, Note_on_c, 0, 59, 49
4, 32640, Note_on_c, 0, 59, 0
4, 32640, Note_on_c, 0, 57, 75
4, 32880, Note_on_c, 0, 57, 0
4, 32880, Note_on_c, 0, 54, 49
4, 33120, Note_on_c, 0, 54, 0
4, 33120, Note_on_c, 0, 57, 75
4, 33360, Note_on_c, 0, 57, 0
4, 33360, Note_on_c, 0, 54, 49
4, 33600, Note_on_c, 0, 54, 0
4, 33600, Note_on_c, 0, 52, 75
4, 33840, Note_on_c, 0, 52, 0
4, 33840, Note_on_c, 0, 56, 49
4, 34080, Note_on_c, 0, 56, 0
4, 35040, Note_on_c, 0, 51, 49
4, 35040, Note_on_c, 0, 59, 49
4, 35087, Note_on_c, 0, 59, 0
4, 35087, Note_on_c, 0, 51, 0
4, 36480, Note_on_c, 0, 59, 49
4, 36527, Note_on_c, 0, 59, 0
4, 36960, Note_on_c, 0, 52, 49
4, 37007, Note_on_c, 0, 52, 0
4, 40800, Note_on_c, 0, 56, 49
4, 40800, Note_on_c, 0, 61, 49
4, 40800, Note_on_c, 0, 65, 49
4, 40800, Note_on_c, 0, 68, 49
4, 40847, Note_on_c, 0, 68, 0
4, 40847, Note_on_c, 0, 56, 0
4, 40847, Note_on_c, 0, 61, 0
4, 40847, Note_on_c, 0, 65, 0
4, 41760, Note_on_c, 0, 56, 49
4, 41760, Note_on_c, 0, 61, 49
4, 41760, Note_on_c, 0, 65, 49
4, 41807, Note_on_c, 0, 65, 0
4, 41807, Note_on_c, 0, 61, 0
4, 41807, Note_on_c, 0, 56, 0
4, 42720, Note_on_c, 0, 54, 49
4, 42720, Note_on_c, 0, 58, 49
4, 42720, Note_on_c, 0, 63, 49
4, 42767, Note_on_c, 0, 63, 0
4, 42767, Note_on_c, 0, 58, 0
4, 42767, Note_on_c, 0, 54, 0
4, 43680, Note_on_c, 0, 56, 49
4, 43680, Note_on_c, 0, 63, 49
4, 43680, Note_on_c, 0, 66, 49
4, 43727, Note_on_c, 0, 66, 0
4, 43727, Note_on_c, 0, 63, 0
4, 43727, Note_on_c, 0, 56, 0
4, 44160, Note_on_c, 0, 60, 49
4, 44160, Note_on_c, 0, 63, 49
4, 44207, Note_on_c, 0, 63, 0
4, 44207, Note_on_c, 0, 60, 0
4, 45120, Note_on_c, 0, 56, 49
4, 45120, Note_on_c, 0, 61, 49
4, 45120, Note_on_c, 0, 65, 49
4, 45167, Note_on_c, 0, 65, 0
4, 45167, Note_on_c, 0, 61, 0
4, 45167, Note_on_c, 0, 56, 0
4, 45600, Note_on_c, 0, 54, 49
4, 45600, Note_on_c, 0, 58, 49
4, 45600, Note_on_c, 0, 61, 49
4, 45647, Note_on_c, 0, 61, 0
4, 45647, Note_on_c, 0, 58, 0
4, 45647, Note_on_c, 0, 54, 0
4, 46560, Note_on_c, 0, 56, 49
4, 46560, Note_on_c, 0, 61, 49
4, 46560, Note_on_c, 0, 68, 49
4, 46607, Note_on_c, 0, 68, 0
4, 46607, Note_on_c, 0, 61, 0
4, 46607, Note_on_c, 0, 56, 0
4, 47040, Note_on_c, 0, 54, 49
4, 47040, Note_on_c, 0, 58, 49
4, 47040, Note_on_c, 0, 61, 49
4, 47087, Note_on_c, 0, 61, 0
4, 47087, Note_on_c, 0, 58, 0
4, 47087, Note_on_c, 0, 54, 0
4, 47520, Note_on_c, 0, 56, 49
4, 47520, Note_on_c, 0, 61, 49
4, 47520, Note_on_c, 0, 64, 49
4, 47567, Note_on_c, 0, 64, 0
4, 47567, Note_on_c, 0, 61, 0
4, 47567, Note_on_c, 0, 56, 0
4, 48480, Note_on_c, 0, 54, 49
4, 48480, Note_on_c, 0, 57, 49
4, 48480, Note_on_c, 0, 61, 49
4, 48527, Note_on_c, 0, 61, 0
4, 48527, Note_on_c, 0, 57, 0
4, 48527, Note_on_c, 0, 54, 0
4, 49440, Note_on_c, 0, 54, 49
4, 49440, Note_on_c, 0, 59, 49
4, 49440, Note_on_c, 0, 63, 49
4, 49487, Note_on_c, 0, 63, 0
4, 49487, Note_on_c, 0, 59, 0
4, 49487, Note_on_c, 0, 54, 0
4, 49920, Note_on_c, 0, 56, 49
4, 49920, Note_on_c, 0, 59, 49
4, 49920, Note_on_c, 0, 64, 49
4, 49967, Note_on_c, 0, 64, 0
4, 49967, Note_on_c, 0, 59, 0
4, 49967, Note_on_c, 0, 56, 0
4, 50880, Note_on_c, 0, 56, 49
4, 50880, Note_on_c, 0, 60, 49
4, 50880, Note_on_c, 0, 63, 49
4, 50927, Note_on_c, 0, 63, 0
4, 50927, Note_on_c, 0, 60, 0
4, 50927, Note_on_c, 0, 56, 0
4, 51360, Note_on_c, 0, 56, 49
4, 51360, Note_on_c, 0, 61, 49
4, 51360, Note_on_c, 0, 65, 49
4, 51407, Note_on_c, 0, 65, 0
4, 51407, Note_on_c, 0, 61, 0
4, 51407, Note_on_c, 0, 56, 0
4, 52320, Note_on_c, 0, 54, 49
4, 52320, Note_on_c, 0, 58, 49
4, 52320, Note_on_c, 0, 63, 49
4, 52367, Note_on_c, 0, 63, 0
4, 52367, Note_on_c, 0, 58, 0
4, 52367, Note_on_c, 0, 54, 0
4, 52800, Note_on_c, 0, 56, 49
4, 52800, Note_on_c, 0, 63, 49
4, 52847, Note_on_c, 0, 63, 0
4, 52847, Note_on_c, 0, 56, 0
4, 53760, Note_on_c, 0, 53, 49
4, 53760, Note_on_c, 0, 56, 49
4, 53760, Note_on_c, 0, 61, 49
4, 53807, Note_on_c, 0, 61, 0
4, 53807, Note_on_c, 0, 56, 0
4, 53807, Note_on_c, 0, 53, 0
4, 54240, Note_on_c, 0, 54, 49
4, 54240, Note_on_c, 0, 58, 49
4, 54240, Note_on_c, 0, 61, 49
4, 54287, Note_on_c, 0, 61, 0
4, 54287, Note_on_c, 0, 58, 0
4, 54287, Note_on_c, 0, 54, 0
4, 55200, Note_on_c, 0, 53, 62
4, 55200, Note_on_c, 0, 56, 62
4, 55200, Note_on_c, 0, 61, 62
4, 55247, Note_on_c, 0, 61, 0
4, 55247, Note_on_c, 0, 56, 0
4, 55247, Note_on_c, 0, 53, 0
4, 55680, Note_on_c, 0, 54, 62
4, 55680, Note_on_c, 0, 58, 62
4, 55680, Note_on_c, 0, 61, 62
4, 55727, Note_on_c, 0, 61, 0
4, 55727, Note_on_c, 0, 58, 0
4, 55727, Note_on_c, 0, 54, 0
4, 56640, Note_on_c, 0, 53, 75
4, 56640, Note_on_c, 0, 56, 75
4, 56640, Note_on_c, 0, 61, 75
4, 56687, Note_on_c, 0, 61, 0
4, 56687, Note_on_c, 0, 56, 0
4, 56687, Note_on_c, 0, 53, 0
4, 57120, Note_on_c, 0, 54, 75
4, 57120, Note_on_c, 0, 58, 75
4, 57120, Note_on_c, 0, 61, 75
4, 57167, Note_on_c, 0, 61, 0
4, 57167, Note_on_c, 0, 58, 0
4, 57167, Note_on_c, 0, 54, 0
4, 58080, Note_on_c, 0, 53, 49
4, 58080, Note_on_c, 0, 56, 49
4, 58080, Note_on_c, 0, 61, 49
4, 58127, Note_on_c, 0, 61, 0
4, 58127, Note_on_c, 0, 56, 0
4, 58127, Note_on_c, 0, 53, 0
4, 60000, Note_on_c, 0, 53, 49
4, 60023, Note_on_c, 0, 53, 0
4, 60240, Note_on_c, 0, 49, 49
4, 60263, Note_on_c, 0, 49, 0
4, 60480, Note_on_c, 0, 53, 75
4, 60720, Note_on_c, 0, 53, 0
4, 60720, Note_on_c, 0, 50, 49
4, 60960, Note_on_c, 0, 50, 0
4, 60960, Note_on_c, 0, 50, 75
4, 61200, Note_on_c, 0, 50, 0
4, 61200, Note_on_c, 0, 53, 49
4, 61440, Note_on_c, 0, 53, 0
4, 61440, Note_on_c, 0, 53, 75
4, 61680, Note_on_c, 0, 53, 0
4, 61680, Note_on_c, 0, 50, 49
4, 61920, Note_on_c, 0, 50, 0
4, 61920, Note_on_c, 0, 54, 75
4, 62160, Note_on_c, 0, 54, 0
4, 62160, Note_on_c, 0, 51, 49
4, 62400, Note_on_c, 0, 51, 0
4, 62400, Note_on_c, 0, 51, 75
4, 62640, Note_on_c, 0, 51, 0
4, 62640, Note_on_c, 0, 54, 49
4, 62880, Note_on_c, 0, 54, 0
4, 62880, Note_on_c, 0, 54, 75
4, 63120, Note_on_c, 0, 54, 0
4, 63120, Note_on_c, 0, 51, 49
4, 63360, Note_on_c, 0, 51, 0
4, 63360, Note_on_c, 0, 54, 75
4, 63600, Note_on_c, 0, 54, 0
4, 63600, Note_on_c, 0, 52, 49
4, 63840, Note_on_c, 0, 52, 0
4, 63840, Note_on_c, 0, 52, 75
4, 64080, Note_on_c, 0, 52, 0
4, 64080, Note_on_c, 0, 54, 49
4, 64320, Note_on_c, 0, 54, 0
4, 64320, Note_on_c, 0, 54, 75
4, 64560, Note_on_c, 0, 54, 0
4, 64560, Note_on_c, 0, 52, 49
4, 64800, Note_on_c, 0, 52, 0
4, 64800, Note_on_c, 0, 54, 75
4, 65040, Note_on_c, 0, 54, 0
4, 65040, Note_on_c, 0, 51, 49
4, 65280, Note_on_c, 0, 51, 0
4, 65280, Note_on_c, 0, 51, 75
4, 65520, Note_on_c, 0, 51, 0
4, 65520, Note_on_c, 0, 54, 49
4, 65760, Note_on_c, 0, 54, 0
4, 65760, Note_on_c, 0, 54, 75
4, 66000, Note_on_c, 0, 54, 0
4, 66000, Note_on_c, 0, 51, 49
4, 66240, Note_on_c, 0, 51, 0
4, 66240, Note_on_c, 0, 61, 75
4, 66480, Note_on_c, 0, 61, 0
4, 66480, Note_on_c, 0, 57, 49
4, 66720, Note_on_c, 0, 57, 0
4, 66720, Note_on_c, 0, 56, 75
4, 66960, Note_on_c, 0, 56, 0
4, 66960, Note_on_c, 0, 59, 49
4, 67200, Note_on_c, 0, 59, 0
4, 67200, Note_on_c, 0, 57, 75
4, 67440, Note_on_c, 0, 57, 0
4, 67440, Note_on_c, 0, 54, 49
4, 67680, Note_on_c, 0, 54, 0
4, 67680, Note_on_c, 0, 57, 75
4, 67920, Note_on_c, 0, 57, 0
4, 67920, Note_on_c, 0, 54, 49
4, 68160, Note_on_c, 0, 54, 0
4, 68160, Note_on_c, 0, 52, 75
4, 68400, Note_on_c, 0, 52, 0
4, 68400, Note_on_c, 0, 56, 49
4, 68640, Note_on_c, 0, 56, 0
4, 68640, Note_on_c, 0, 56, 75
4, 68880, Note_on_c, 0, 56, 0
4, 68880, Note_on_c, 0, 52, 49
4, 69120, Note_on_c, 0, 52, 0
4, 69120, Note_on_c, 0, 61, 75
4, 69360, Note_on_c, 0, 61, 0
4, 69360, Note_on_c, 0, 57, 49
4, 69600, Note_on_c, 0, 57, 0
4, 69600, Note_on_c, 0, 56, 75
4, 69840, Note_on_c, 0, 56, 0
4, 69840, Note_on_c, 0, 59, 49
4, 70080, Note_on_c, 0, 59, 0
4, 70080, Note_on_c, 0, 57, 75
4, 70320, Note_on_c, 0, 57, 0
4, 70320, Note_on_c, 0, 54, 49
4, 70560, Note_on_c, 0, 54, 0
4, 70560, Note_on_c, 0, 57, 75
4, 70800, Note_on_c, 0, 57, 0
4, 70800, Note_on_c, 0, 54, 49
4, 71040, Note_on_c, 0, 54, 0
4, 71040, Note_on_c, 0, 52, 75
4, 71280, Note_on_c, 0, 52, 0
4, 71280, Note_on_c, 0, 56, 49
4, 71520, Note_on_c, 0, 56, 0
4, 72480, Note_on_c, 0, 51, 49
4, 72480, Note_on_c, 0, 59, 49
4, 72527, Note_on_c, 0, 59, 0
4, 72527, Note_on_c, 0, 51, 0
4, 73920, Note_on_c, 0, 59, 49
4, 73967, Note_on_c, 0, 59, 0
4, 74400, Note_on_c, 0, 52, 49
4, 74447, Note_on_c, 0, 52, 0
4, 78240, Note_on_c, 0, 56, 49
4, 78240, Note_on_c, 0, 61, 49
4, 78240, Note_on_c, 0, 65, 49
4, 78240, Note_on_c, 0, 68, 49
4, 78287, Note_on_c, 0, 68, 0
4, 78287, Note_on_c, 0, 56, 0
4, 78287, Note_on_c, 0, 61, 0
4, 78287, Note_on_c, 0, 65, 0
4, 79200, Note_on_c, 0, 56, 49
4, 79200, Note_on_c, 0, 61, 49
4, 79200, Note_on_c, 0, 65, 49
4, 79247, Note_on_c, 0, 65, 0
4, 79247, Note_on_c, 0, 61, 0
4, 79247, Note_on_c, 0, 56, 0
4, 80160, Note_on_c, 0, 54, 49
4, 80160, Note_on_c, 0, 58, 49
4, 80160, Note_on_c, 0, 63, 49
4, 80207, Note_on_c, 0, 63, 0
4, 80207, Note_on_c, 0, 58, 0
4, 80207, Note_on_c, 0, 54, 0
4, 81120, Note_on_c, 0, 56, 49
4, 81120, Note_on_c, 0, 63, 49
4, 81120, Note_on_c, 0, 66, 49
4, 81167, Note_on_c, 0, 66, 0
4, 81167, Note_on_c, 0, 63, 0
4, 81167, Note_on_c, 0, 56, 0
4, 81600, Note_on_c, 0, 60, 49
4, 81600, Note_on_c, 0, 63, 49
4, 81647, Note_on_c, 0, 63, 0
4, 81647, Note_on_c, 0, 60, 0
4, 82560, Note_on_c, 0, 56, 49
4, 82560, Note_on_c, 0, 61, 49
4, 82560, Note_on_c, 0, 65, 49
4, 82607, Note_on_c, 0, 65, 0
4, 82607, Note_on_c, 0, 61, 0
4, 82607, Note_on_c, 0, 56, 0
4, 83040, Note_on_c, 0, 54, 49
4, 83040, Note_on_c, 0, 58, 49
4, 83040, Note_on_c, 0, 61, 49
4, 83087, Note_on_c, 0, 61, 0
4, 83087, Note_on_c, 0, 58, 0
4, 83087, Note_on_c, 0, 54, 0
4, 84000, Note_on_c, 0, 56, 49
4, 84000, Note_on_c, 0, 61, 49
4, 84000, Note_on_c, 0, 68, 49
4, 84047, Note_on_c, 0, 68, 0
4, 84047, Note_on_c, 0, 61, 0
4, 84047, Note_on_c, 0, 56, 0
4, 84480, Note_on_c, 0, 54, 49
4, 84480, Note_on_c, 0, 58, 49
4, 84480, Note_on_c, 0, 61, 49
4, 84527, Note_on_c, 0, 61, 0
4, 84527, Note_on_c, 0, 58, 0
4, 84527, Note_on_c, 0, 54, 0
4, 84960, Note_on_c, 0, 56, 49
4, 84960, Note_on_c, 0, 61, 49
4, 84960, Note_on_c, 0, 64, 49
4, 85007, Note_on_c, 0, 64, 0
4, 85007, Note_on_c, 0, 61, 0
4, 85007, Note_on_c, 0, 56, 0
4, 85920, Note_on_c, 0, 54, 49
4, 85920, Note_on_c, 0, 57, 49
4, 85920, Note_on_c, 0, 61, 49
4, 85967, Note_on_c, 0, 61, 0
4, 85967, Note_on_c, 0, 57, 0
4, 85967, Note_on_c, 0, 54, 0
4, 86880, Note_on_c, 0, 54, 49
4, 86880, Note_on_c, 0, 59, 49
4, 86880, Note_on_c, 0, 63, 49
4, 86927, Note_on_c, 0, 63, 0
4, 86927, Note_on_c, 0, 59, 0
4, 86927, Note_on_c, 0, 54, 0
4, 87360, Note_on_c, 0, 56, 49
4, 87360, Note_on_c, 0, 59, 49
4, 87360, Note_on_c, 0, 64, 49
4, 87407, Note_on_c, 0, 64, 0
4, 87407, Note_on_c, 0, 59, 0
4, 87407, Note_on_c, 0, 56, 0
4, 88320, Note_on_c, 0, 56, 49
4, 88320, Note_on_c, 0, 60, 49
4, 88320, Note_on_c, 0, 63, 49
4, 88367, Note_on_c, 0, 63, 0
4, 88367, Note_on_c, 0, 60, 0
4, 88367, Note_on_c, 0, 56, 0
4, 88800, Note_on_c, 0, 56, 49
4, 88800, Note_on_c, 0, 61, 49
4, 88800, Note_on_c, 0, 65, 49
4, 88847, Note_on_c, 0, 65, 0
4, 88847, Note_on_c, 0, 61, 0
4, 88847, Note_on_c, 0, 56, 0
4, 89760, Note_on_c, 0, 54, 49
4, 89760, Note_on_c, 0, 58, 49
4, 89760, Note_on_c, 0, 63, 49
4, 89807, Note_on_c, 0, 63, 0
4, 89807, Note_on_c, 0, 58, 0
4, 89807, Note_on_c, 0, 54, 0
4, 90240, Note_on_c, 0, 56, 49
4, 90240, Note_on_c, 0, 63, 49
4, 90287, Note_on_c, 0, 63, 0
4, 90287, Note_on_c, 0, 56, 0
4, 91200, Note_on_c, 0, 53, 49
4, 91200, Note_on_c, 0, 56, 49
4, 91200, Note_on_c, 0, 61, 49
4, 91247, Note_on_c, 0, 61, 0
4, 91247, Note_on_c, 0, 56, 0
4, 91247, Note_on_c, 0, 53, 0
4, 91680, Note_on_c, 0, 54, 49
4, 91680, Note_on_c, 0, 58, 49
4, 91680, Note_on_c, 0, 61, 49
4, 91727, Note_on_c, 0, 61, 0
4, 91727, Note_on_c, 0, 58, 0
4, 91727, Note_on_c, 0, 54, 0
4, 92640, Note_on_c, 0, 53, 62
4, 92640, Note_on_c, 0, 56, 62
4, 92640, Note_on_c, 0, 61, 62
4, 92687, Note_on_c, 0, 61, 0
4, 92687, Note_on_c, 0, 56, 0
4, 92687, Note_on_c, 0, 53, 0
4, 93120, Note_on_c, 0, 54, 62
4, 93120, Note_on_c, 0, 58, 62
4, 93120, Note_on_c, 0, 61, 62
4, 93167, Note_on_c, 0, 61, 0
4, 93167, Note_on_c, 0, 58, 0
4, 93167, Note_on_c, 0, 54, 0
4, 94080, Note_on_c, 0, 53, 75
4, 94080, Note_on_c, 0, 56, 75
4, 94080, Note_on_c, 0, 61, 75
4, 94127, Note_on_c, 0, 61, 0
4, 94127, Note_on_c, 0, 56, 0
4, 94127, Note_on_c, 0, 53, 0
4, 94560, Note_on_c, 0, 54, 75
4, 94560, Note_on_c, 0, 58, 75
4, 94560, Note_on_c, 0, 61, 75
4, 94607, Note_on_c, 0, 61, 0
4, 94607, Note_on_c, 0, 58, 0
4, 94607, Note_on_c, 0, 54, 0
4, 95520, Note_on_c, 0, 53, 88
4, 95520, Note_on_c, 0, 56, 88
4, 95520, Note_on_c, 0, 61, 88
4, 95567, Note_on_c, 0, 61, 0
4, 95567, Note_on_c, 0, 56, 0
4, 95567, Note_on_c, 0, 53, 0
4, 96000, Note_on_c, 0, 53, 88
4, 96023, Note_on_c, 0, 53, 0
4, 96240, Note_on_c, 0, 49, 88
4, 96263, Note_on_c, 0, 49, 0
4, 96263, End_track
5, 0, Start_track
5, 0, Title_t, "Instrument19"
5, 0, Program_c, 0, 0
5, 0, Control_c, 0, 7, 115
5, 0, Control_c, 0, 10, 32
5, 0, Note_on_c, 0, 37, 49
5, 47, Note_on_c, 0, 37, 0
5, 960, Note_on_c, 0, 41, 49
5, 1007, Note_on_c, 0, 41, 0
5, 1920, Note_on_c, 0, 42, 49
5, 1967, Note_on_c, 0, 42, 0
5, 2880, Note_on_c, 0, 44, 49
5, 2927, Note_on_c, 0, 44, 0
5, 3840, Note_on_c, 0, 56, 49
5, 3887, Note_on_c, 0, 56, 0
5, 4320, Note_on_c, 0, 49, 49
5, 4367, Note_on_c, 0, 49, 0
5, 5280, Note_on_c, 0, 42, 49
5, 5327, Note_on_c, 0, 42, 0
5, 5760, Note_on_c, 0, 37, 49
5, 5807, Note_on_c, 0, 37, 0
5, 6720, Note_on_c, 0, 41, 49
5, 6767, Note_on_c, 0, 41, 0
5, 7680, Note_on_c, 0, 46, 49
5, 7727, Note_on_c, 0, 46, 0
5, 8640, Note_on_c, 0, 39, 49
5, 8687, Note_on_c, 0, 39, 0
5, 9600, Note_on_c, 0, 41, 49
5, 9647, Note_on_c, 0, 41, 0
5, 10080, Note_on_c, 0, 46, 49
5, 10127, Note_on_c, 0, 46, 0
5, 11520, Note_on_c, 0, 37, 49
5, 11567, Note_on_c, 0, 37, 0
5, 12480, Note_on_c, 0, 41, 49
5, 12527, Note_on_c, 0, 41, 0
5, 13440, Note_on_c, 0, 42, 49
5, 13487, Note_on_c, 0, 42, 0
5, 14400, Note_on_c, 0, 44, 49
5, 14447, Note_on_c, 0, 44, 0
5, 15360, Note_on_c, 0, 56, 49
5, 15407, Note_on_c, 0, 56, 0
5, 15840, Note_on_c, 0, 49, 49
5, 15887, Note_on_c, 0, 49, 0
5, 16800, Note_on_c, 0, 42, 49
5, 16847, Note_on_c, 0, 42, 0
5, 17280, Note_on_c, 0, 37, 49
5, 17327, Note_on_c, 0, 37, 0
5, 18240, Note_on_c, 0, 41, 49
5, 18287, Note_on_c, 0, 41, 0
5, 19200, Note_on_c, 0, 46, 49
5, 19247, Note_on_c, 0, 46, 0
5, 20160, Note_on_c, 0, 39, 49
5, 20207, Note_on_c, 0, 39, 0
5, 21120, Note_on_c, 0, 41, 49
5, 21167, Note_on_c, 0, 41, 0
5, 21600, Note_on_c, 0, 46, 49
5, 21647, Note_on_c, 0, 46, 0
5, 23040, Note_on_c, 0, 34, 62
5, 23087, Note_on_c, 0, 34, 0
5, 24000, Note_on_c, 0, 34, 62
5, 24047, Note_on_c, 0, 34, 0
5, 24480, Note_on_c, 0, 39, 62
5, 24527, Note_on_c, 0, 39, 0
5, 25440, Note_on_c, 0, 39, 62
5, 25487, Note_on_c, 0, 39, 0
5, 25920, Note_on_c, 0, 37, 62
5, 25967, Note_on_c, 0, 37, 0
5, 26880, Note_on_c, 0, 37, 62
5, 26927, Note_on_c, 0, 37, 0
5, 27360, Note_on_c, 0, 35, 62
5, 27407, Note_on_c, 0, 35, 0
5, 28320, Note_on_c, 0, 35, 62
5, 28367, Note_on_c, 0, 35, 0
5, 28800, Note_on_c, 0, 35, 62
5, 28847, Note_on_c, 0, 35, 0
5, 29760, Note_on_c, 0, 35, 62
5, 29807, Note_on_c, 0, 35, 0
5, 30240, Note_on_c, 0, 40, 62
5, 30287, Note_on_c, 0, 40, 0
5, 31200, Note_on_c, 0, 40, 62
5, 31247, Note_on_c, 0, 40, 0
5, 31680, Note_on_c, 0, 35, 62
5, 31727, Note_on_c, 0, 35, 0
5, 32640, Note_on_c, 0, 35, 62
5, 32687, Note_on_c, 0, 35, 0
5, 33120, Note_on_c, 0, 40, 62
5, 33167, Note_on_c, 0, 40, 0
5, 34080, Note_on_c, 0, 40, 62
5, 34127, Note_on_c, 0, 40, 0
5, 34560, Note_on_c, 0, 35, 62
5, 34607, Note_on_c, 0, 35, 0
5, 35520, Note_on_c, 0, 35, 62
5, 35567, Note_on_c, 0, 35, 0
5, 36000, Note_on_c, 0, 40, 62
5, 36047, Note_on_c, 0, 40, 0
5, 37440, Note_on_c, 0, 47, 62
5, 37487, Note_on_c, 0, 47, 0
5, 37920, Note_on_c, 0, 40, 62
5, 37967, Note_on_c, 0, 40, 0
5, 40320, Note_on_c, 0, 37, 49
5, 40367, Note_on_c, 0, 37, 0
5, 41280, Note_on_c, 0, 41, 49
5, 41327, Note_on_c, 0, 41, 0
5, 42240, Note_on_c, 0, 42, 49
5, 42287, Note_on_c, 0, 42, 0
5, 43200, Note_on_c, 0, 44, 49
5, 43247, Note_on_c, 0, 44, 0
5, 44160, Note_on_c, 0, 56, 49
5, 44207, Note_on_c, 0, 56, 0
5, 44640, Note_on_c, 0, 49, 49
5, 44687, Note_on_c, 0, 49, 0
5, 45600, Note_on_c, 0, 42, 49
5, 45647, Note_on_c, 0, 42, 0
5, 46080, Note_on_c, 0, 49, 49
5, 46127, Note_on_c, 0, 49, 0
5, 47040, Note_on_c, 0, 42, 49
5, 47087, Note_on_c, 0, 42, 0
5, 48000, Note_on_c, 0, 42, 49
5, 48047, Note_on_c, 0, 42, 0
5, 48960, Note_on_c, 0, 47, 49
5, 49007, Note_on_c, 0, 47, 0
5, 49920, Note_on_c, 0, 40, 49
5, 49967, Note_on_c, 0, 40, 0
5, 50400, Note_on_c, 0, 44, 49
5, 50447, Note_on_c, 0, 44, 0
5, 51360, Note_on_c, 0, 37, 49
5, 51407, Note_on_c, 0, 37, 0
5, 51840, Note_on_c, 0, 42, 49
5, 51887, Note_on_c, 0, 42, 0
5, 52800, Note_on_c, 0, 44, 49
5, 52847, Note_on_c, 0, 44, 0
5, 53280, Note_on_c, 0, 37, 49
5, 53327, Note_on_c, 0, 37, 0
5, 54240, Note_on_c, 0, 49, 49
5, 54287, Note_on_c, 0, 49, 0
5, 54720, Note_on_c, 0, 37, 62
5, 54767, Note_on_c, 0, 37, 0
5, 55680, Note_on_c, 0, 49, 62
5, 55727, Note_on_c, 0, 49, 0
5, 56160, Note_on_c, 0, 37, 75
5, 56207, Note_on_c, 0, 37, 0
5, 57120, Note_on_c, 0, 49, 75
5, 57167, Note_on_c, 0, 49, 0
5, 57600, Note_on_c, 0, 37, 88
5, 57647, Note_on_c, 0, 37, 0
5, 60480, Note_on_c, 0, 34, 62
5, 60527, Note_on_c, 0, 34, 0
5, 61440, Note_on_c, 0, 34, 62
5, 61487, Note_on_c, 0, 34, 0
5, 61920, Note_on_c, 0, 39, 62
5, 61967, Note_on_c, 0, 39, 0
5, 62880, Note_on_c, 0, 39, 62
5, 62927, Note_on_c, 0, 39, 0
5, 63360, Note_on_c, 0, 37, 62
5, 63407, Note_on_c, 0, 37, 0
5, 64320, Note_on_c, 0, 37, 62
5, 64367, Note_on_c, 0, 37, 0
5, 64800, Note_on_c, 0, 35, 62
5, 64847, Note_on_c, 0, 35, 0
5, 65760, Note_on_c, 0, 35, 62
5, 65807, Note_on_c, 0, 35, 0
5, 66240, Note_on_c, 0, 35, 62
5, 66287, Note_on_c, 0, 35, 0
5, 67200, Note_on_c, 0, 35, 62
5, 67247, Note_on_c, 0, 35, 0
5, 67680, Note_on_c, 0, 40, 62
5, 67727, Note_on_c, 0, 40, 0
5, 68640, Note_on_c, 0, 40, 62
5, 68687, Note_on_c, 0, 40, 0
5, 69120, Note_on_c, 0, 35, 62
5, 69167, Note_on_c, 0, 35, 0
5, 70080, Note_on_c, 0, 35, 62
5, 70127, Note_on_c, 0, 35, 0
5, 70560, Note_on_c, 0, 40, 62
5, 70607, Note_on_c, 0, 40, 0
5, 71520, Note_on_c, 0, 40, 62
5, 71567, Note_on_c, 0, 40, 0
5, 72000, Note_on_c, 0, 35, 62
5, 72047, Note_on_c, 0, 35, 0
5, 72960, Note_on_c, 0, 35, 62
5, 73007, Note_on_c, 0, 35, 0
5, 73440, Note_on_c, 0, 40, 62
5, 73487, Note_on_c, 0, 40, 0
5, 74880, Note_on_c, 0, 47, 62
5, 74927, Note_on_c, 0, 47, 0
5, 75360, Note_on_c, 0, 40, 62
5, 75407, Note_on_c, 0, 40, 0
5, 77760, Note_on_c, 0, 37, 49
5, 77807, Note_on_c, 0, 37, 0
5, 78720, Note_on_c, 0, 41, 49
5, 78767, Note_on_c, 0, 41, 0
5, 79680, Note_on_c, 0, 42, 49
5, 79727, Note_on_c, 0, 42, 0
5, 80640, Note_on_c, 0, 44, 49
5, 80687, Note_on_c, 0, 44, 0
5, 81600, Note_on_c, 0, 56, 49
5, 81647, Note_on_c, 0, 56, 0
5, 82080, Note_on_c, 0, 49, 49
5, 82127, Note_on_c, 0, 49, 0
5, 83040, Note_on_c, 0, 42, 49
5, 83087, Note_on_c, 0, 42, 0
5, 83520, Note_on_c, 0, 49, 49
5, 83567, Note_on_c, 0, 49, 0
5, 84480, Note_on_c, 0, 42, 49
5, 84527, Note_on_c, 0, 42, 0
5, 85440, Note_on_c, 0, 42, 49
5, 85487, Note_on_c, 0, 42, 0
5, 86400, Note_on_c, 0, 47, 49
5, 86447, Note_on_c, 0, 47, 0
5, 87360, Note_on_c, 0, 40, 49
5, 87407, Note_on_c, 0, 40, 0
5, 87840, Note_on_c, 0, 44, 49
5, 87887, Note_on_c, 0, 44, 0
5, 88800, Note_on_c, 0, 37, 49
5, 88847, Note_on_c, 0, 37, 0
5, 89280, Note_on_c, 0, 42, 49
5, 89327, Note_on_c, 0, 42, 0
5, 90240, Note_on_c, 0, 44, 49
5, 90287, Note_on_c, 0, 44, 0
5, 90720, Note_on_c, 0, 37, 49
5, 90767, Note_on_c, 0, 37, 0
5, 91680, Note_on_c, 0, 49, 49
5, 91727, Note_on_c, 0, 49, 0
5, 92160, Note_on_c, 0, 37, 62
5, 92207, Note_on_c, 0, 37, 0
5, 93120, Note_on_c, 0, 49, 62
5, 93167, Note_on_c, 0, 49, 0
5, 93600, Note_on_c, 0, 37, 75
5, 93647, Note_on_c, 0, 37, 0
5, 94560, Note_on_c, 0, 49, 75
5, 94607, Note_on_c, 0, 49, 0
5, 95040, Note_on_c, 0, 37, 88
5, 95087, Note_on_c, 0, 37, 0
5, 96480, Note_on_c, 0, 25, 88
5, 96480, Note_on_c, 0, 37, 88
5, 96960, Note_on_c, 0, 37, 0
5, 96960, Note_on_c, 0, 25, 0
5, 96960, End_track
0, 0, End_of_file
