0, 0, Header, 1, 5, 480
1, 0, Start_track
1, 0, Title_t, "brahms waltzes op39 no7 4hands"
1, 0, Copyright_t, "Segundo G. Yogore, 2004, dody@info.com.ph \012__________________________________________________________\012Kunst der Fuge comment: this is the Contributor's property.\012Can *not* be used for commercial purposes without authorization!\012Copyright by Contributor - Kunst der Fuge, © 2002-05\012http://www.kunstderfuge.com/thanks.htm -> Contributors' list\012http://www.kunstderfuge.com/notes.htm -> Terms & conditions"
1, 0, Text_t, "sequenced by Segundo G. Yogore, 2004\012"
1, 0, Time_signature, 3, 2, 24, 8
1, 0, Key_signature, 4, "major"
1, 0, Tempo, 545455
1, 8880, Tempo, 560748
1, 9120, Tempo, 576923
1, 9360, Tempo, 594059
1, 9600, Tempo, 618557
1, 9840, Tempo, 638298
1, 10080, Tempo, 659341
1, 10320, Tempo, 681818
1, 10560, Tempo, 714286
1, 11520, Tempo, 545455
1, 20400, Tempo, 560748
1, 20640, Tempo, 576923
1, 20880, Tempo, 594059
1, 21120, Tempo, 618557
1, 21360, Tempo, 638298
1, 21600, Tempo, 659341
1, 21840, Tempo, 681818
1, 22080, Tempo, 714286
1, 23040, Tempo, 545455
1, 29040, Tempo, 560748
1, 29280, Tempo, 576923
1, 29520, Tempo, 594059
1, 29760, Tempo, 618557
1, 30000, Tempo, 638298
1, 30240, Tempo, 659341
1, 30480, Tempo, 681818
1, 30720, Tempo, 714286
1, 31680, Tempo, 545455
1, 37680, Tempo, 560748
1, 37920, Tempo, 576923
1, 38160, Tempo, 594059
1, 38400, Tempo, 618557
1, 38640, Tempo, 638298
1, 38880, Tempo, 659341
1, 39120, Tempo, 681818
1, 39360, Tempo, 714286
1, 40320, Tempo, 545455
1, 49200, Tempo, 560748
1, 49440, Tempo, 576923
1, 49680, Tempo, 594059
1, 49920, Tempo, 618557
1, 50160, Tempo, 638298
1, 50400, Tempo, 659341
1, 50640, Tempo, 681818
1, 50880, Tempo, 714286
1, 51840, Tempo, 545455
1, 57840, Tempo, 560748
1, 58080, Tempo, 576923
1, 58320, Tempo, 594059
1, 58560, Tempo, 618557
1, 58800, Tempo, 638298
1, 59040, Tempo, 659341
1, 59280, Tempo, 681818
1, 59520, Tempo, 714286
1, 60480, Tempo, 545455
1, 66480, Tempo, 560748
1, 66720, Tempo, 576923
1, 66960, Tempo, 594059
1, 67200, Tempo, 618557
1, 67440, Tempo, 638298
1, 67680, Tempo, 659341
1, 67920, Tempo, 681818
1, 68160, Tempo, 714286
1, 69120, Tempo, 545455
1, 75120, Tempo, 560748
1, 75360, Tempo, 576923
1, 75600, Tempo, 594059
1, 75840, Tempo, 618557
1, 76080, Tempo, 638298
1, 76320, Tempo, 659341
1, 76560, Tempo, 681818
1, 76800, Tempo, 714286
1, 77760, Tempo, 545455
1, 86640, Tempo, 560748
1, 86880, Tempo, 576923
1, 87120, Tempo, 594059
1, 87360, Tempo, 618557
1, 87600, Tempo, 638298
1, 87840, Tempo, 659341
1, 88080, Tempo, 681818
1, 88320, Tempo, 714286
1, 89280, Tempo, 545455
1, 95280, Tempo, 560748
1, 95520, Tempo, 576923
1, 95760, Tempo, 594059
1, 96000, Tempo, 618557
1, 96240, Tempo, 638298
1, 96480, Tempo, 659341
1, 96720, Tempo, 681818
1, 96960, Tempo, 714286
1, 99360, Time_signature, 6, 2, 24, 8
1, 99360, End_track
2, 0, Start_track
2, 0, Title_t, "Grand Piano"
2, 0, Program_c, 0, 0
2, 0, Control_c, 0, 7, 115
2, 0, Control_c, 0, 10, 95
2, 0, Control_c, 0, 64, 127
2, 0, Note_on_c, 0, 80, 62
2, 720, Note_on_c, 0, 80, 0
2, 720, Note_on_c, 0, 81, 62
2, 960, Note_on_c, 0, 81, 0
2, 960, Control_c, 0, 64, 0
2, 960, Note_on_c, 0, 80, 62
2, 1440, Note_on_c, 0, 80, 0
2, 1440, Control_c, 0, 64, 127
2, 1440, Note_on_c, 0, 76, 62
2, 1680, Note_on_c, 0, 76, 0
2, 1680, Note_on_c, 0, 78, 62
2, 1920, Note_on_c, 0, 78, 0
2, 1920, Control_c, 0, 64, 0
2, 1920, Note_on_c, 0, 80, 62
2, 2880, Note_on_c, 0, 80, 0
2, 2880, Control_c, 0, 64, 127
2, 2880, Note_on_c, 0, 80, 62
2, 3600, Note_on_c, 0, 80, 0
2, 3600, Note_on_c, 0, 81, 62
2, 3840, Note_on_c, 0, 81, 0
2, 3840, Control_c, 0, 64, 0
2, 3840, Note_on_c, 0, 80, 62
2, 4320, Note_on_c, 0, 80, 0
2, 4320, Control_c, 0, 64, 127
2, 4320, Note_on_c, 0, 81, 62
2, 4560, Note_on_c, 0, 81, 0
2, 4560, Note_on_c, 0, 82, 62
2, 4800, Note_on_c, 0, 82, 0
2, 4800, Control_c, 0, 64, 0
2, 4800, Note_on_c, 0, 83, 62
2, 5760, Note_on_c, 0, 83, 0
2, 5760, Note_on_c, 0, 83, 62
2, 6000, Note_on_c, 0, 83, 0
2, 6000, Note_on_c, 0, 85, 62
2, 6240, Note_on_c, 0, 85, 0
2, 6240, Note_on_c, 0, 86, 62
2, 6960, Note_on_c, 0, 86, 0
2, 6960, Note_on_c, 0, 85, 62
2, 7200, Note_on_c, 0, 85, 0
2, 7200, Control_c, 0, 64, 127
2, 7200, Note_on_c, 0, 85, 62
2, 7920, Note_on_c, 0, 85, 0
2, 7920, Note_on_c, 0, 86, 75
2, 8160, Note_on_c, 0, 86, 0
2, 8160, Control_c, 0, 64, 0
2, 8160, Note_on_c, 0, 85, 75
2, 8640, Note_on_c, 0, 85, 0
2, 8640, Note_on_c, 0, 85, 75
2, 8880, Note_on_c, 0, 85, 0
2, 8880, Note_on_c, 0, 87, 75
2, 9120, Note_on_c, 0, 87, 0
2, 9120, Note_on_c, 0, 88, 88
2, 9840, Note_on_c, 0, 88, 0
2, 9840, Note_on_c, 0, 87, 88
2, 10080, Note_on_c, 0, 87, 0
2, 10080, Control_c, 0, 64, 127
2, 10080, Note_on_c, 0, 87, 88
2, 10560, Note_on_c, 0, 87, 0
2, 10560, Note_on_c, 0, 84, 75
2, 11040, Note_on_c, 0, 84, 0
2, 11040, Control_c, 0, 64, 0
2, 11040, Note_on_c, 0, 81, 62
2, 11520, Note_on_c, 0, 81, 0
2, 11520, Control_c, 0, 64, 127
2, 11520, Note_on_c, 0, 80, 62
2, 12240, Note_on_c, 0, 80, 0
2, 12240, Note_on_c, 0, 81, 62
2, 12480, Note_on_c, 0, 81, 0
2, 12480, Control_c, 0, 64, 0
2, 12480, Note_on_c, 0, 80, 62
2, 12960, Note_on_c, 0, 80, 0
2, 12960, Control_c, 0, 64, 127
2, 12960, Note_on_c, 0, 76, 62
2, 13200, Note_on_c, 0, 76, 0
2, 13200, Note_on_c, 0, 78, 62
2, 13440, Note_on_c, 0, 78, 0
2, 13440, Control_c, 0, 64, 0
2, 13440, Note_on_c, 0, 80, 62
2, 14400, Note_on_c, 0, 80, 0
2, 14400, Control_c, 0, 64, 127
2, 14400, Note_on_c, 0, 80, 62
2, 15120, Note_on_c, 0, 80, 0
2, 15120, Note_on_c, 0, 81, 62
2, 15360, Note_on_c, 0, 81, 0
2, 15360, Control_c, 0, 64, 0
2, 15360, Note_on_c, 0, 80, 62
2, 15840, Note_on_c, 0, 80, 0
2, 15840, Control_c, 0, 64, 127
2, 15840, Note_on_c, 0, 81, 62
2, 16080, Note_on_c, 0, 81, 0
2, 16080, Note_on_c, 0, 82, 62
2, 16320, Note_on_c, 0, 82, 0
2, 16320, Control_c, 0, 64, 0
2, 16320, Note_on_c, 0, 83, 62
2, 17280, Note_on_c, 0, 83, 0
2, 17280, Note_on_c, 0, 83, 62
2, 17520, Note_on_c, 0, 83, 0
2, 17520, Note_on_c, 0, 85, 62
2, 17760, Note_on_c, 0, 85, 0
2, 17760, Note_on_c, 0, 86, 62
2, 18480, Note_on_c, 0, 86, 0
2, 18480, Note_on_c, 0, 85, 62
2, 18720, Note_on_c, 0, 85, 0
2, 18720, Control_c, 0, 64, 127
2, 18720, Note_on_c, 0, 85, 62
2, 19440, Note_on_c, 0, 85, 0
2, 19440, Note_on_c, 0, 86, 75
2, 19680, Note_on_c, 0, 86, 0
2, 19680, Control_c, 0, 64, 0
2, 19680, Note_on_c, 0, 85, 75
2, 20160, Note_on_c, 0, 85, 0
2, 20160, Note_on_c, 0, 85, 75
2, 20400, Note_on_c, 0, 85, 0
2, 20400, Note_on_c, 0, 87, 75
2, 20640, Note_on_c, 0, 87, 0
2, 20640, Note_on_c, 0, 88, 88
2, 21360, Note_on_c, 0, 88, 0
2, 21360, Note_on_c, 0, 87, 88
2, 21600, Note_on_c, 0, 87, 0
2, 21600, Control_c, 0, 64, 127
2, 21600, Note_on_c, 0, 87, 88
2, 22080, Note_on_c, 0, 87, 0
2, 22080, Note_on_c, 0, 85, 75
2, 22560, Note_on_c, 0, 85, 0
2, 22560, Control_c, 0, 64, 0
2, 22560, Note_on_c, 0, 83, 62
2, 23040, Note_on_c, 0, 83, 0
2, 23040, Control_c, 0, 64, 127
2, 23040, Note_on_c, 0, 80, 49
2, 23040, Note_on_c, 0, 83, 49
2, 23760, Note_on_c, 0, 83, 0
2, 23760, Note_on_c, 0, 80, 0
2, 23760, Note_on_c, 0, 81, 49
2, 23760, Note_on_c, 0, 85, 49
2, 24000, Note_on_c, 0, 85, 0
2, 24000, Note_on_c, 0, 81, 0
2, 24000, Note_on_c, 0, 80, 49
2, 24000, Note_on_c, 0, 83, 49
2, 24480, Note_on_c, 0, 83, 0
2, 24480, Note_on_c, 0, 80, 0
2, 24480, Note_on_c, 0, 78, 49
2, 24480, Note_on_c, 0, 81, 49
2, 24720, Note_on_c, 0, 81, 0
2, 24720, Note_on_c, 0, 78, 0
2, 24720, Note_on_c, 0, 76, 49
2, 24720, Note_on_c, 0, 80, 49
2, 24960, Note_on_c, 0, 80, 0
2, 24960, Note_on_c, 0, 76, 0
2, 24960, Note_on_c, 0, 78, 49
2, 24960, Note_on_c, 0, 81, 49
2, 25680, Note_on_c, 0, 81, 0
2, 25680, Note_on_c, 0, 78, 0
2, 25680, Note_on_c, 0, 76, 49
2, 25680, Note_on_c, 0, 80, 49
2, 25920, Note_on_c, 0, 80, 0
2, 25920, Note_on_c, 0, 76, 0
2, 25920, Note_on_c, 0, 75, 49
2, 25920, Note_on_c, 0, 78, 49
2, 26160, Note_on_c, 0, 78, 0
2, 26160, Note_on_c, 0, 75, 0
2, 26160, Note_on_c, 0, 76, 49
2, 26160, Note_on_c, 0, 80, 49
2, 26400, Note_on_c, 0, 80, 0
2, 26400, Note_on_c, 0, 76, 0
2, 26400, Note_on_c, 0, 75, 49
2, 26400, Note_on_c, 0, 78, 49
2, 27120, Note_on_c, 0, 78, 0
2, 27120, Note_on_c, 0, 75, 0
2, 27120, Control_c, 0, 64, 0
2, 27120, Note_on_c, 0, 73, 49
2, 27120, Note_on_c, 0, 76, 49
2, 27360, Note_on_c, 0, 76, 0
2, 27360, Note_on_c, 0, 73, 0
2, 27360, Control_c, 0, 64, 127
2, 27360, Note_on_c, 0, 71, 49
2, 27360, Note_on_c, 0, 75, 49
2, 27600, Note_on_c, 0, 75, 0
2, 27600, Note_on_c, 0, 71, 0
2, 27600, Note_on_c, 0, 73, 49
2, 27600, Note_on_c, 0, 76, 49
2, 27840, Note_on_c, 0, 76, 0
2, 27840, Note_on_c, 0, 73, 0
2, 27840, Note_on_c, 0, 70, 49
2, 27840, Note_on_c, 0, 73, 49
2, 28560, Note_on_c, 0, 73, 0
2, 28560, Note_on_c, 0, 70, 0
2, 28560, Control_c, 0, 64, 0
2, 28560, Note_on_c, 0, 75, 49
2, 28560, Note_on_c, 0, 78, 49
2, 28800, Note_on_c, 0, 78, 0
2, 28800, Note_on_c, 0, 75, 0
2, 28800, Control_c, 0, 64, 127
2, 28800, Note_on_c, 0, 71, 49
2, 28800, Note_on_c, 0, 75, 49
2, 29040, Note_on_c, 0, 75, 0
2, 29040, Note_on_c, 0, 71, 0
2, 29040, Note_on_c, 0, 73, 49
2, 29040, Note_on_c, 0, 76, 49
2, 29280, Note_on_c, 0, 76, 0
2, 29280, Note_on_c, 0, 73, 0
2, 29280, Note_on_c, 0, 70, 49
2, 29280, Note_on_c, 0, 73, 49
2, 30000, Note_on_c, 0, 73, 0
2, 30000, Note_on_c, 0, 70, 0
2, 30000, Control_c, 0, 64, 0
2, 30000, Note_on_c, 0, 78, 49
2, 30240, Note_on_c, 0, 78, 0
2, 30240, Control_c, 0, 64, 127
2, 30240, Note_on_c, 0, 78, 49
2, 30480, Note_on_c, 0, 78, 0
2, 30480, Note_on_c, 0, 75, 49
2, 30720, Note_on_c, 0, 75, 0
2, 30720, Note_on_c, 0, 71, 62
2, 31440, Note_on_c, 0, 71, 0
2, 31440, Control_c, 0, 64, 0
2, 31440, Note_on_c, 0, 83, 62
2, 31680, Note_on_c, 0, 83, 0
2, 31680, Control_c, 0, 64, 127
2, 31680, Note_on_c, 0, 80, 62
2, 31680, Note_on_c, 0, 83, 62
2, 31920, Note_on_c, 0, 83, 0
2, 31920, Note_on_c, 0, 80, 0
2, 31920, Note_on_c, 0, 81, 62
2, 31920, Note_on_c, 0, 85, 62
2, 32160, Note_on_c, 0, 85, 0
2, 32160, Note_on_c, 0, 81, 0
2, 32160, Note_on_c, 0, 80, 62
2, 32160, Note_on_c, 0, 83, 62
2, 32880, Note_on_c, 0, 83, 0
2, 32880, Note_on_c, 0, 80, 0
2, 32880, Note_on_c, 0, 78, 62
2, 32880, Note_on_c, 0, 81, 62
2, 33120, Note_on_c, 0, 81, 0
2, 33120, Note_on_c, 0, 78, 0
2, 33120, Note_on_c, 0, 77, 62
2, 33120, Note_on_c, 0, 80, 62
2, 33360, Note_on_c, 0, 80, 0
2, 33360, Note_on_c, 0, 77, 0
2, 33360, Note_on_c, 0, 75, 62
2, 33360, Note_on_c, 0, 78, 62
2, 33600, Note_on_c, 0, 78, 0
2, 33600, Note_on_c, 0, 75, 0
2, 33600, Note_on_c, 0, 77, 62
2, 33600, Note_on_c, 0, 80, 62
2, 34320, Note_on_c, 0, 80, 0
2, 34320, Note_on_c, 0, 77, 0
2, 34320, Note_on_c, 0, 74, 62
2, 34320, Note_on_c, 0, 78, 62
2, 34560, Note_on_c, 0, 78, 0
2, 34560, Note_on_c, 0, 74, 0
2, 34560, Note_on_c, 0, 73, 62
2, 34560, Note_on_c, 0, 77, 62
2, 34800, Note_on_c, 0, 77, 0
2, 34800, Note_on_c, 0, 73, 0
2, 34800, Note_on_c, 0, 74, 62
2, 34800, Note_on_c, 0, 78, 62
2, 35040, Note_on_c, 0, 78, 0
2, 35040, Note_on_c, 0, 74, 0
2, 35040, Note_on_c, 0, 73, 62
2, 35040, Note_on_c, 0, 77, 62
2, 35760, Note_on_c, 0, 77, 0
2, 35760, Note_on_c, 0, 73, 0
2, 35760, Control_c, 0, 64, 0
2, 35760, Note_on_c, 0, 71, 62
2, 35760, Note_on_c, 0, 74, 62
2, 36000, Note_on_c, 0, 74, 0
2, 36000, Note_on_c, 0, 71, 0
2, 36000, Control_c, 0, 64, 127
2, 36000, Note_on_c, 0, 69, 62
2, 36000, Note_on_c, 0, 73, 62
2, 36240, Note_on_c, 0, 73, 0
2, 36240, Note_on_c, 0, 69, 0
2, 36240, Note_on_c, 0, 71, 62
2, 36240, Note_on_c, 0, 74, 62
2, 36480, Note_on_c, 0, 74, 0
2, 36480, Note_on_c, 0, 71, 0
2, 36480, Note_on_c, 0, 68, 62
2, 36480, Note_on_c, 0, 71, 62
2, 37200, Note_on_c, 0, 71, 0
2, 37200, Note_on_c, 0, 68, 0
2, 37200, Control_c, 0, 64, 0
2, 37200, Note_on_c, 0, 69, 62
2, 37200, Note_on_c, 0, 73, 62
2, 37440, Note_on_c, 0, 73, 0
2, 37440, Note_on_c, 0, 69, 0
2, 37440, Control_c, 0, 64, 127
2, 37440, Note_on_c, 0, 68, 62
2, 37440, Note_on_c, 0, 71, 62
2, 37680, Note_on_c, 0, 71, 0
2, 37680, Note_on_c, 0, 68, 0
2, 37680, Note_on_c, 0, 69, 62
2, 37680, Note_on_c, 0, 73, 62
2, 37920, Note_on_c, 0, 73, 0
2, 37920, Note_on_c, 0, 69, 0
2, 37920, Note_on_c, 0, 66, 62
2, 37920, Note_on_c, 0, 69, 62
2, 38640, Note_on_c, 0, 69, 0
2, 38640, Note_on_c, 0, 66, 0
2, 38640, Control_c, 0, 64, 0
2, 38640, Note_on_c, 0, 68, 62
2, 38640, Note_on_c, 0, 71, 62
2, 38880, Note_on_c, 0, 71, 0
2, 38880, Note_on_c, 0, 68, 0
2, 38880, Control_c, 0, 64, 127
2, 38880, Note_on_c, 0, 66, 62
2, 38880, Note_on_c, 0, 69, 62
2, 39120, Note_on_c, 0, 69, 0
2, 39120, Note_on_c, 0, 66, 0
2, 39120, Note_on_c, 0, 68, 62
2, 39120, Note_on_c, 0, 71, 62
2, 39360, Note_on_c, 0, 71, 0
2, 39360, Note_on_c, 0, 68, 0
2, 39360, Note_on_c, 0, 64, 62
2, 39360, Note_on_c, 0, 68, 62
2, 40080, Note_on_c, 0, 68, 0
2, 40080, Note_on_c, 0, 64, 0
2, 40080, Control_c, 0, 64, 0
2, 40080, Note_on_c, 0, 62, 62
2, 40080, Note_on_c, 0, 66, 62
2, 40320, Note_on_c, 0, 66, 0
2, 40320, Note_on_c, 0, 62, 0
2, 40320, Note_on_c, 0, 73, 62
2, 40320, Note_on_c, 0, 76, 62
2, 41040, Note_on_c, 0, 76, 0
2, 41040, Note_on_c, 0, 73, 0
2, 41040, Note_on_c, 0, 74, 62
2, 41040, Note_on_c, 0, 78, 62
2, 41280, Note_on_c, 0, 78, 0
2, 41280, Note_on_c, 0, 74, 0
2, 41280, Control_c, 0, 64, 127
2, 41280, Note_on_c, 0, 73, 62
2, 41280, Note_on_c, 0, 76, 62
2, 42000, Note_on_c, 0, 76, 0
2, 42000, Note_on_c, 0, 73, 0
2, 42000, Note_on_c, 0, 78, 75
2, 42240, Note_on_c, 0, 78, 0
2, 42240, Control_c, 0, 64, 0
2, 42240, Note_on_c, 0, 79, 75
2, 43200, Note_on_c, 0, 79, 0
2, 43200, Control_c, 0, 64, 127
2, 43200, Note_on_c, 0, 77, 75
2, 43200, Note_on_c, 0, 80, 75
2, 43920, Note_on_c, 0, 80, 0
2, 43920, Note_on_c, 0, 77, 0
2, 43920, Note_on_c, 0, 78, 75
2, 43920, Note_on_c, 0, 82, 75
2, 44160, Note_on_c, 0, 82, 0
2, 44160, Note_on_c, 0, 78, 0
2, 44160, Note_on_c, 0, 77, 75
2, 44160, Note_on_c, 0, 80, 75
2, 44880, Note_on_c, 0, 80, 0
2, 44880, Note_on_c, 0, 77, 0
2, 44880, Note_on_c, 0, 78, 88
2, 44880, Note_on_c, 0, 82, 88
2, 45120, Note_on_c, 0, 82, 0
2, 45120, Note_on_c, 0, 78, 0
2, 45120, Note_on_c, 0, 80, 88
2, 45120, Note_on_c, 0, 83, 88
2, 45840, Note_on_c, 0, 83, 0
2, 45840, Note_on_c, 0, 80, 0
2, 45840, Control_c, 0, 64, 0
2, 45840, Note_on_c, 0, 82, 88
2, 45840, Note_on_c, 0, 85, 88
2, 46080, Note_on_c, 0, 85, 0
2, 46080, Note_on_c, 0, 82, 0
2, 46080, Note_on_c, 0, 83, 88
2, 46080, Note_on_c, 0, 87, 88
2, 46800, Note_on_c, 0, 87, 0
2, 46800, Note_on_c, 0, 83, 0
2, 46800, Control_c, 0, 64, 127
2, 46800, Note_on_c, 0, 85, 88
2, 46800, Note_on_c, 0, 89, 88
2, 47040, Note_on_c, 0, 89, 0
2, 47040, Note_on_c, 0, 85, 0
2, 47040, Note_on_c, 0, 87, 88
2, 47040, Note_on_c, 0, 90, 88
2, 47280, Note_on_c, 0, 90, 0
2, 47280, Note_on_c, 0, 87, 0
2, 47280, Control_c, 0, 64, 0
2, 47280, Note_on_c, 0, 89, 88
2, 47280, Note_on_c, 0, 92, 88
2, 47520, Note_on_c, 0, 92, 0
2, 47520, Note_on_c, 0, 89, 0
2, 47520, Note_on_c, 0, 85, 88
2, 47520, Note_on_c, 0, 90, 88
2, 47520, Note_on_c, 0, 94, 88
2, 48480, Note_on_c, 0, 94, 0
2, 48480, Note_on_c, 0, 90, 0
2, 48480, Note_on_c, 0, 85, 0
2, 48480, Note_on_c, 0, 85, 101
2, 48480, Note_on_c, 0, 88, 101
2, 48480, Note_on_c, 0, 93, 101
2, 49440, Note_on_c, 0, 93, 0
2, 49440, Note_on_c, 0, 88, 0
2, 49440, Note_on_c, 0, 85, 0
2, 49440, Control_c, 0, 64, 127
2, 49440, Note_on_c, 0, 84, 101
2, 49440, Note_on_c, 0, 87, 101
2, 49440, Note_on_c, 0, 92, 101
2, 51120, Note_on_c, 0, 92, 0
2, 51120, Note_on_c, 0, 87, 0
2, 51120, Note_on_c, 0, 84, 0
2, 51120, Note_on_c, 0, 90, 88
2, 51360, Note_on_c, 0, 90, 0
2, 51360, Note_on_c, 0, 87, 75
2, 51600, Note_on_c, 0, 87, 0
2, 51600, Control_c, 0, 64, 0
2, 51600, Note_on_c, 0, 84, 62
2, 51840, Note_on_c, 0, 84, 0
2, 51840, Control_c, 0, 64, 127
2, 51840, Note_on_c, 0, 80, 62
2, 51840, Note_on_c, 0, 85, 62
2, 52560, Note_on_c, 0, 85, 0
2, 52560, Note_on_c, 0, 80, 0
2, 52560, Note_on_c, 0, 82, 62
2, 52800, Note_on_c, 0, 82, 0
2, 52800, Control_c, 0, 64, 0
2, 52800, Note_on_c, 0, 80, 62
2, 53280, Note_on_c, 0, 80, 0
2, 53280, Note_on_c, 0, 77, 62
2, 53520, Note_on_c, 0, 77, 0
2, 53520, Note_on_c, 0, 78, 62
2, 53760, Note_on_c, 0, 78, 0
2, 53760, Note_on_c, 0, 80, 62
2, 54480, Note_on_c, 0, 80, 0
2, 54480, Note_on_c, 0, 73, 62
2, 54720, Note_on_c, 0, 73, 0
2, 54720, Note_on_c, 0, 73, 62
2, 56160, Note_on_c, 0, 73, 0
2, 56640, Note_on_c, 0, 80, 62
2, 56640, Note_on_c, 0, 92, 62
2, 57600, Note_on_c, 0, 92, 0
2, 57600, Note_on_c, 0, 80, 0
2, 58080, Note_on_c, 0, 80, 62
2, 58080, Note_on_c, 0, 92, 62
2, 59040, Note_on_c, 0, 92, 0
2, 59040, Note_on_c, 0, 80, 0
2, 59520, Note_on_c, 0, 80, 88
2, 60240, Note_on_c, 0, 80, 0
2, 60240, Note_on_c, 0, 73, 62
2, 60480, Note_on_c, 0, 73, 0
2, 60480, Control_c, 0, 64, 127
2, 60480, Note_on_c, 0, 80, 49
2, 60480, Note_on_c, 0, 83, 49
2, 61200, Note_on_c, 0, 83, 0
2, 61200, Note_on_c, 0, 80, 0
2, 61200, Note_on_c, 0, 81, 49
2, 61200, Note_on_c, 0, 85, 49
2, 61440, Note_on_c, 0, 85, 0
2, 61440, Note_on_c, 0, 81, 0
2, 61440, Note_on_c, 0, 80, 49
2, 61440, Note_on_c, 0, 83, 49
2, 61920, Note_on_c, 0, 83, 0
2, 61920, Note_on_c, 0, 80, 0
2, 61920, Note_on_c, 0, 78, 49
2, 61920, Note_on_c, 0, 81, 49
2, 62160, Note_on_c, 0, 81, 0
2, 62160, Note_on_c, 0, 78, 0
2, 62160, Note_on_c, 0, 76, 49
2, 62160, Note_on_c, 0, 80, 49
2, 62400, Note_on_c, 0, 80, 0
2, 62400, Note_on_c, 0, 76, 0
2, 62400, Note_on_c, 0, 78, 49
2, 62400, Note_on_c, 0, 81, 49
2, 63120, Note_on_c, 0, 81, 0
2, 63120, Note_on_c, 0, 78, 0
2, 63120, Note_on_c, 0, 76, 49
2, 63120, Note_on_c, 0, 80, 49
2, 63360, Note_on_c, 0, 80, 0
2, 63360, Note_on_c, 0, 76, 0
2, 63360, Note_on_c, 0, 75, 49
2, 63360, Note_on_c, 0, 78, 49
2, 63600, Note_on_c, 0, 78, 0
2, 63600, Note_on_c, 0, 75, 0
2, 63600, Note_on_c, 0, 76, 49
2, 63600, Note_on_c, 0, 80, 49
2, 63840, Note_on_c, 0, 80, 0
2, 63840, Note_on_c, 0, 76, 0
2, 63840, Note_on_c, 0, 75, 49
2, 63840, Note_on_c, 0, 78, 49
2, 64560, Note_on_c, 0, 78, 0
2, 64560, Note_on_c, 0, 75, 0
2, 64560, Control_c, 0, 64, 0
2, 64560, Note_on_c, 0, 73, 49
2, 64560, Note_on_c, 0, 76, 49
2, 64800, Note_on_c, 0, 76, 0
2, 64800, Note_on_c, 0, 73, 0
2, 64800, Control_c, 0, 64, 127
2, 64800, Note_on_c, 0, 71, 49
2, 64800, Note_on_c, 0, 75, 49
2, 65040, Note_on_c, 0, 75, 0
2, 65040, Note_on_c, 0, 71, 0
2, 65040, Note_on_c, 0, 73, 49
2, 65040, Note_on_c, 0, 76, 49
2, 65280, Note_on_c, 0, 76, 0
2, 65280, Note_on_c, 0, 73, 0
2, 65280, Note_on_c, 0, 70, 49
2, 65280, Note_on_c, 0, 73, 49
2, 66000, Note_on_c, 0, 73, 0
2, 66000, Note_on_c, 0, 70, 0
2, 66000, Control_c, 0, 64, 0
2, 66000, Note_on_c, 0, 75, 49
2, 66000, Note_on_c, 0, 78, 49
2, 66240, Note_on_c, 0, 78, 0
2, 66240, Note_on_c, 0, 75, 0
2, 66240, Control_c, 0, 64, 127
2, 66240, Note_on_c, 0, 71, 49
2, 66240, Note_on_c, 0, 75, 49
2, 66480, Note_on_c, 0, 75, 0
2, 66480, Note_on_c, 0, 71, 0
2, 66480, Note_on_c, 0, 73, 49
2, 66480, Note_on_c, 0, 76, 49
2, 66720, Note_on_c, 0, 76, 0
2, 66720, Note_on_c, 0, 73, 0
2, 66720, Note_on_c, 0, 70, 49
2, 66720, Note_on_c, 0, 73, 49
2, 67440, Note_on_c, 0, 73, 0
2, 67440, Note_on_c, 0, 70, 0
2, 67440, Control_c, 0, 64, 0
2, 67440, Note_on_c, 0, 78, 49
2, 67680, Note_on_c, 0, 78, 0
2, 67680, Control_c, 0, 64, 127
2, 67680, Note_on_c, 0, 78, 49
2, 67920, Note_on_c, 0, 78, 0
2, 67920, Note_on_c, 0, 75, 49
2, 68160, Note_on_c, 0, 75, 0
2, 68160, Note_on_c, 0, 71, 62
2, 68880, Note_on_c, 0, 71, 0
2, 68880, Control_c, 0, 64, 0
2, 68880, Note_on_c, 0, 83, 62
2, 69120, Note_on_c, 0, 83, 0
2, 69120, Control_c, 0, 64, 127
2, 69120, Note_on_c, 0, 80, 62
2, 69120, Note_on_c, 0, 83, 62
2, 69360, Note_on_c, 0, 83, 0
2, 69360, Note_on_c, 0, 80, 0
2, 69360, Note_on_c, 0, 81, 62
2, 69360, Note_on_c, 0, 85, 62
2, 69600, Note_on_c, 0, 85, 0
2, 69600, Note_on_c, 0, 81, 0
2, 69600, Note_on_c, 0, 80, 62
2, 69600, Note_on_c, 0, 83, 62
2, 70320, Note_on_c, 0, 83, 0
2, 70320, Note_on_c, 0, 80, 0
2, 70320, Note_on_c, 0, 78, 62
2, 70320, Note_on_c, 0, 81, 62
2, 70560, Note_on_c, 0, 81, 0
2, 70560, Note_on_c, 0, 78, 0
2, 70560, Note_on_c, 0, 77, 62
2, 70560, Note_on_c, 0, 80, 62
2, 70800, Note_on_c, 0, 80, 0
2, 70800, Note_on_c, 0, 77, 0
2, 70800, Note_on_c, 0, 75, 62
2, 70800, Note_on_c, 0, 78, 62
2, 71040, Note_on_c, 0, 78, 0
2, 71040, Note_on_c, 0, 75, 0
2, 71040, Note_on_c, 0, 77, 62
2, 71040, Note_on_c, 0, 80, 62
2, 71760, Note_on_c, 0, 80, 0
2, 71760, Note_on_c, 0, 77, 0
2, 71760, Note_on_c, 0, 74, 62
2, 71760, Note_on_c, 0, 78, 62
2, 72000, Note_on_c, 0, 78, 0
2, 72000, Note_on_c, 0, 74, 0
2, 72000, Note_on_c, 0, 73, 62
2, 72000, Note_on_c, 0, 77, 62
2, 72240, Note_on_c, 0, 77, 0
2, 72240, Note_on_c, 0, 73, 0
2, 72240, Note_on_c, 0, 74, 62
2, 72240, Note_on_c, 0, 78, 62
2, 72480, Note_on_c, 0, 78, 0
2, 72480, Note_on_c, 0, 74, 0
2, 72480, Note_on_c, 0, 73, 62
2, 72480, Note_on_c, 0, 77, 62
2, 73200, Note_on_c, 0, 77, 0
2, 73200, Note_on_c, 0, 73, 0
2, 73200, Control_c, 0, 64, 0
2, 73200, Note_on_c, 0, 71, 62
2, 73200, Note_on_c, 0, 74, 62
2, 73440, Note_on_c, 0, 74, 0
2, 73440, Note_on_c, 0, 71, 0
2, 73440, Control_c, 0, 64, 127
2, 73440, Note_on_c, 0, 69, 62
2, 73440, Note_on_c, 0, 73, 62
2, 73680, Note_on_c, 0, 73, 0
2, 73680, Note_on_c, 0, 69, 0
2, 73680, Note_on_c, 0, 71, 62
2, 73680, Note_on_c, 0, 74, 62
2, 73920, Note_on_c, 0, 74, 0
2, 73920, Note_on_c, 0, 71, 0
2, 73920, Note_on_c, 0, 68, 62
2, 73920, Note_on_c, 0, 71, 62
2, 74640, Note_on_c, 0, 71, 0
2, 74640, Note_on_c, 0, 68, 0
2, 74640, Control_c, 0, 64, 0
2, 74640, Note_on_c, 0, 69, 62
2, 74640, Note_on_c, 0, 73, 62
2, 74880, Note_on_c, 0, 73, 0
2, 74880, Note_on_c, 0, 69, 0
2, 74880, Control_c, 0, 64, 127
2, 74880, Note_on_c, 0, 68, 62
2, 74880, Note_on_c, 0, 71, 62
2, 75120, Note_on_c, 0, 71, 0
2, 75120, Note_on_c, 0, 68, 0
2, 75120, Note_on_c, 0, 69, 62
2, 75120, Note_on_c, 0, 73, 62
2, 75360, Note_on_c, 0, 73, 0
2, 75360, Note_on_c, 0, 69, 0
2, 75360, Note_on_c, 0, 66, 62
2, 75360, Note_on_c, 0, 69, 62
2, 76080, Note_on_c, 0, 69, 0
2, 76080, Note_on_c, 0, 66, 0
2, 76080, Control_c, 0, 64, 0
2, 76080, Note_on_c, 0, 68, 62
2, 76080, Note_on_c, 0, 71, 62
2, 76320, Note_on_c, 0, 71, 0
2, 76320, Note_on_c, 0, 68, 0
2, 76320, Control_c, 0, 64, 127
2, 76320, Note_on_c, 0, 66, 62
2, 76320, Note_on_c, 0, 69, 62
2, 76560, Note_on_c, 0, 69, 0
2, 76560, Note_on_c, 0, 66, 0
2, 76560, Note_on_c, 0, 68, 62
2, 76560, Note_on_c, 0, 71, 62
2, 76800, Note_on_c, 0, 71, 0
2, 76800, Note_on_c, 0, 68, 0
2, 76800, Note_on_c, 0, 64, 62
2, 76800, Note_on_c, 0, 68, 62
2, 77520, Note_on_c, 0, 68, 0
2, 77520, Note_on_c, 0, 64, 0
2, 77520, Control_c, 0, 64, 0
2, 77520, Note_on_c, 0, 62, 62
2, 77520, Note_on_c, 0, 66, 62
2, 77760, Note_on_c, 0, 66, 0
2, 77760, Note_on_c, 0, 62, 0
2, 77760, Note_on_c, 0, 73, 62
2, 77760, Note_on_c, 0, 76, 62
2, 78480, Note_on_c, 0, 76, 0
2, 78480, Note_on_c, 0, 73, 0
2, 78480, Note_on_c, 0, 74, 62
2, 78480, Note_on_c, 0, 78, 62
2, 78720, Note_on_c, 0, 78, 0
2, 78720, Note_on_c, 0, 74, 0
2, 78720, Control_c, 0, 64, 127
2, 78720, Note_on_c, 0, 73, 62
2, 78720, Note_on_c, 0, 76, 62
2, 79440, Note_on_c, 0, 76, 0
2, 79440, Note_on_c, 0, 73, 0
2, 79440, Note_on_c, 0, 78, 75
2, 79680, Note_on_c, 0, 78, 0
2, 79680, Control_c, 0, 64, 0
2, 79680, Note_on_c, 0, 79, 75
2, 80640, Note_on_c, 0, 79, 0
2, 80640, Control_c, 0, 64, 127
2, 80640, Note_on_c, 0, 77, 75
2, 80640, Note_on_c, 0, 80, 75
2, 81360, Note_on_c, 0, 80, 0
2, 81360, Note_on_c, 0, 77, 0
2, 81360, Note_on_c, 0, 78, 75
2, 81360, Note_on_c, 0, 82, 75
2, 81600, Note_on_c, 0, 82, 0
2, 81600, Note_on_c, 0, 78, 0
2, 81600, Note_on_c, 0, 77, 75
2, 81600, Note_on_c, 0, 80, 75
2, 82320, Note_on_c, 0, 80, 0
2, 82320, Note_on_c, 0, 77, 0
2, 82320, Note_on_c, 0, 78, 88
2, 82320, Note_on_c, 0, 82, 88
2, 82560, Note_on_c, 0, 82, 0
2, 82560, Note_on_c, 0, 78, 0
2, 82560, Note_on_c, 0, 80, 88
2, 82560, Note_on_c, 0, 83, 88
2, 83280, Note_on_c, 0, 83, 0
2, 83280, Note_on_c, 0, 80, 0
2, 83280, Control_c, 0, 64, 0
2, 83280, Note_on_c, 0, 82, 88
2, 83280, Note_on_c, 0, 85, 88
2, 83520, Note_on_c, 0, 85, 0
2, 83520, Note_on_c, 0, 82, 0
2, 83520, Note_on_c, 0, 83, 88
2, 83520, Note_on_c, 0, 87, 88
2, 84240, Note_on_c, 0, 87, 0
2, 84240, Note_on_c, 0, 83, 0
2, 84240, Control_c, 0, 64, 127
2, 84240, Note_on_c, 0, 85, 88
2, 84240, Note_on_c, 0, 89, 88
2, 84480, Note_on_c, 0, 89, 0
2, 84480, Note_on_c, 0, 85, 0
2, 84480, Note_on_c, 0, 87, 88
2, 84480, Note_on_c, 0, 90, 88
2, 84720, Note_on_c, 0, 90, 0
2, 84720, Note_on_c, 0, 87, 0
2, 84720, Control_c, 0, 64, 0
2, 84720, Note_on_c, 0, 89, 88
2, 84720, Note_on_c, 0, 92, 88
2, 84960, Note_on_c, 0, 92, 0
2, 84960, Note_on_c, 0, 89, 0
2, 84960, Note_on_c, 0, 85, 88
2, 84960, Note_on_c, 0, 90, 88
2, 84960, Note_on_c, 0, 94, 88
2, 85920, Note_on_c, 0, 94, 0
2, 85920, Note_on_c, 0, 90, 0
2, 85920, Note_on_c, 0, 85, 0
2, 85920, Note_on_c, 0, 85, 101
2, 85920, Note_on_c, 0, 88, 101
2, 85920, Note_on_c, 0, 93, 101
2, 86880, Note_on_c, 0, 93, 0
2, 86880, Note_on_c, 0, 88, 0
2, 86880, Note_on_c, 0, 85, 0
2, 86880, Control_c, 0, 64, 127
2, 86880, Note_on_c, 0, 84, 101
2, 86880, Note_on_c, 0, 87, 101
2, 86880, Note_on_c, 0, 92, 101
2, 88560, Note_on_c, 0, 92, 0
2, 88560, Note_on_c, 0, 87, 0
2, 88560, Note_on_c, 0, 84, 0
2, 88560, Note_on_c, 0, 90, 88
2, 88800, Note_on_c, 0, 90, 0
2, 88800, Note_on_c, 0, 87, 75
2, 89040, Note_on_c, 0, 87, 0
2, 89040, Control_c, 0, 64, 0
2, 89040, Note_on_c, 0, 84, 62
2, 89280, Note_on_c, 0, 84, 0
2, 89280, Control_c, 0, 64, 127
2, 89280, Note_on_c, 0, 80, 62
2, 89280, Note_on_c, 0, 85, 62
2, 90000, Note_on_c, 0, 85, 0
2, 90000, Note_on_c, 0, 80, 0
2, 90000, Note_on_c, 0, 82, 62
2, 90240, Note_on_c, 0, 82, 0
2, 90240, Control_c, 0, 64, 0
2, 90240, Note_on_c, 0, 80, 62
2, 90720, Note_on_c, 0, 80, 0
2, 90720, Note_on_c, 0, 77, 62
2, 90960, Note_on_c, 0, 77, 0
2, 90960, Note_on_c, 0, 78, 62
2, 91200, Note_on_c, 0, 78, 0
2, 91200, Note_on_c, 0, 80, 62
2, 91920, Note_on_c, 0, 80, 0
2, 91920, Note_on_c, 0, 73, 62
2, 92160, Note_on_c, 0, 73, 0
2, 92160, Note_on_c, 0, 73, 62
2, 93600, Note_on_c, 0, 73, 0
2, 94080, Note_on_c, 0, 80, 62
2, 94080, Note_on_c, 0, 92, 62
2, 95040, Note_on_c, 0, 92, 0
2, 95040, Note_on_c, 0, 80, 0
2, 95520, Note_on_c, 0, 80, 62
2, 95520, Note_on_c, 0, 92, 62
2, 96480, Note_on_c, 0, 92, 0
2, 96480, Note_on_c, 0, 80, 0
2, 96960, Note_on_c, 0, 80, 88
2, 97680, Note_on_c, 0, 80, 0
2, 97680, Note_on_c, 0, 73, 62
2, 97920, Note_on_c, 0, 73, 0
2, 97920, Note_on_c, 0, 68, 62
2, 97920, Note_on_c, 0, 73, 62
2, 99360, Note_on_c, 0, 73, 0
2, 99360, Note_on_c, 0, 68, 0
2, 99360, Note_on_c, 0, 68, 62
2, 99360, Note_on_c, 0, 73, 62
2, 99840, Note_on_c, 0, 73, 0
2, 99840, Note_on_c, 0, 68, 0
2, 99840, Control_c, 0, 64, 127
2, 101760, Control_c, 0, 64, 0
2, 101760, End_track
3, 0, Start_track
3, 0, Title_t, "Instrument17"
3, 0, Program_c, 0, 0
3, 0, Control_c, 0, 7, 115
3, 0, Control_c, 0, 10, 79
3, 0, Control_c, 0, 64, 127
3, 0, Note_on_c, 0, 68, 62
3, 720, Note_on_c, 0, 68, 0
3, 720, Note_on_c, 0, 69, 62
3, 960, Note_on_c, 0, 69, 0
3, 960, Control_c, 0, 64, 0
3, 960, Note_on_c, 0, 68, 62
3, 1440, Note_on_c, 0, 68, 0
3, 1440, Control_c, 0, 64, 127
3, 1920, Control_c, 0, 64, 0
3, 1920, Note_on_c, 0, 68, 62
3, 2880, Note_on_c, 0, 68, 0
3, 2880, Control_c, 0, 64, 127
3, 2880, Note_on_c, 0, 68, 62
3, 3600, Note_on_c, 0, 68, 0
3, 3600, Note_on_c, 0, 69, 62
3, 3840, Note_on_c, 0, 69, 0
3, 3840, Control_c, 0, 64, 0
3, 3840, Note_on_c, 0, 68, 62
3, 4320, Note_on_c, 0, 68, 0
3, 4320, Control_c, 0, 64, 127
3, 4320, Note_on_c, 0, 69, 62
3, 4560, Note_on_c, 0, 69, 0
3, 4560, Note_on_c, 0, 70, 62
3, 4800, Note_on_c, 0, 70, 0
3, 4800, Control_c, 0, 64, 0
3, 4800, Note_on_c, 0, 71, 62
3, 5760, Note_on_c, 0, 71, 0
3, 5760, Note_on_c, 0, 71, 62
3, 6000, Note_on_c, 0, 71, 0
3, 6000, Note_on_c, 0, 73, 62
3, 6240, Note_on_c, 0, 73, 0
3, 6240, Note_on_c, 0, 74, 62
3, 6960, Note_on_c, 0, 74, 0
3, 6960, Note_on_c, 0, 73, 62
3, 7200, Note_on_c, 0, 73, 0
3, 7200, Control_c, 0, 64, 127
3, 7200, Note_on_c, 0, 73, 62
3, 7920, Note_on_c, 0, 73, 0
3, 7920, Note_on_c, 0, 74, 75
3, 8160, Note_on_c, 0, 74, 0
3, 8160, Control_c, 0, 64, 0
3, 8160, Note_on_c, 0, 73, 75
3, 8640, Note_on_c, 0, 73, 0
3, 8640, Note_on_c, 0, 73, 75
3, 8880, Note_on_c, 0, 73, 0
3, 8880, Note_on_c, 0, 75, 75
3, 9120, Note_on_c, 0, 75, 0
3, 9120, Note_on_c, 0, 76, 88
3, 9840, Note_on_c, 0, 76, 0
3, 9840, Note_on_c, 0, 75, 88
3, 10080, Note_on_c, 0, 75, 0
3, 10080, Control_c, 0, 64, 127
3, 10080, Note_on_c, 0, 75, 88
3, 10560, Note_on_c, 0, 75, 0
3, 10560, Note_on_c, 0, 72, 75
3, 11040, Note_on_c, 0, 72, 0
3, 11040, Control_c, 0, 64, 0
3, 11040, Note_on_c, 0, 69, 62
3, 11520, Note_on_c, 0, 69, 0
3, 11520, Control_c, 0, 64, 127
3, 11520, Note_on_c, 0, 68, 62
3, 12240, Note_on_c, 0, 68, 0
3, 12240, Note_on_c, 0, 69, 62
3, 12480, Note_on_c, 0, 69, 0
3, 12480, Control_c, 0, 64, 0
3, 12480, Note_on_c, 0, 68, 62
3, 12960, Note_on_c, 0, 68, 0
3, 12960, Control_c, 0, 64, 127
3, 13440, Control_c, 0, 64, 0
3, 13440, Note_on_c, 0, 68, 62
3, 14400, Note_on_c, 0, 68, 0
3, 14400, Control_c, 0, 64, 127
3, 14400, Note_on_c, 0, 68, 62
3, 15120, Note_on_c, 0, 68, 0
3, 15120, Note_on_c, 0, 69, 62
3, 15360, Note_on_c, 0, 69, 0
3, 15360, Control_c, 0, 64, 0
3, 15360, Note_on_c, 0, 68, 62
3, 15840, Note_on_c, 0, 68, 0
3, 15840, Control_c, 0, 64, 127
3, 15840, Note_on_c, 0, 69, 62
3, 16080, Note_on_c, 0, 69, 0
3, 16080, Note_on_c, 0, 70, 62
3, 16320, Note_on_c, 0, 70, 0
3, 16320, Control_c, 0, 64, 0
3, 16320, Note_on_c, 0, 71, 62
3, 17280, Note_on_c, 0, 71, 0
3, 17280, Note_on_c, 0, 71, 62
3, 17520, Note_on_c, 0, 71, 0
3, 17520, Note_on_c, 0, 73, 62
3, 17760, Note_on_c, 0, 73, 0
3, 17760, Note_on_c, 0, 74, 62
3, 18480, Note_on_c, 0, 74, 0
3, 18480, Note_on_c, 0, 73, 62
3, 18720, Note_on_c, 0, 73, 0
3, 18720, Control_c, 0, 64, 127
3, 18720, Note_on_c, 0, 73, 62
3, 19440, Note_on_c, 0, 73, 0
3, 19440, Note_on_c, 0, 74, 75
3, 19680, Note_on_c, 0, 74, 0
3, 19680, Control_c, 0, 64, 0
3, 19680, Note_on_c, 0, 73, 75
3, 20160, Note_on_c, 0, 73, 0
3, 20160, Note_on_c, 0, 73, 75
3, 20400, Note_on_c, 0, 73, 0
3, 20400, Note_on_c, 0, 75, 75
3, 20640, Note_on_c, 0, 75, 0
3, 20640, Note_on_c, 0, 76, 88
3, 21360, Note_on_c, 0, 76, 0
3, 21360, Note_on_c, 0, 75, 88
3, 21600, Note_on_c, 0, 75, 0
3, 21600, Control_c, 0, 64, 127
3, 21600, Note_on_c, 0, 75, 88
3, 22080, Note_on_c, 0, 75, 0
3, 22080, Note_on_c, 0, 73, 75
3, 22560, Note_on_c, 0, 73, 0
3, 22560, Control_c, 0, 64, 0
3, 22560, Note_on_c, 0, 71, 62
3, 23040, Note_on_c, 0, 71, 0
3, 23040, Control_c, 0, 64, 127
3, 23040, Note_on_c, 0, 71, 49
3, 23760, Note_on_c, 0, 71, 0
3, 23760, Note_on_c, 0, 73, 49
3, 24000, Note_on_c, 0, 73, 0
3, 24000, Note_on_c, 0, 71, 49
3, 24480, Note_on_c, 0, 71, 0
3, 24480, Note_on_c, 0, 69, 49
3, 24720, Note_on_c, 0, 69, 0
3, 24720, Note_on_c, 0, 68, 49
3, 24960, Note_on_c, 0, 68, 0
3, 24960, Note_on_c, 0, 69, 49
3, 25680, Note_on_c, 0, 69, 0
3, 25680, Note_on_c, 0, 68, 49
3, 25920, Note_on_c, 0, 68, 0
3, 25920, Note_on_c, 0, 66, 49
3, 26160, Note_on_c, 0, 66, 0
3, 26160, Note_on_c, 0, 68, 49
3, 26400, Note_on_c, 0, 68, 0
3, 26400, Note_on_c, 0, 66, 49
3, 27120, Note_on_c, 0, 66, 0
3, 27120, Control_c, 0, 64, 0
3, 27120, Note_on_c, 0, 64, 49
3, 27360, Note_on_c, 0, 64, 0
3, 27360, Control_c, 0, 64, 127
3, 27360, Note_on_c, 0, 63, 49
3, 27600, Note_on_c, 0, 63, 0
3, 27600, Note_on_c, 0, 64, 49
3, 27840, Note_on_c, 0, 64, 0
3, 27840, Note_on_c, 0, 61, 49
3, 28560, Note_on_c, 0, 61, 0
3, 28560, Control_c, 0, 64, 0
3, 28560, Note_on_c, 0, 66, 49
3, 28800, Note_on_c, 0, 66, 0
3, 28800, Control_c, 0, 64, 127
3, 28800, Note_on_c, 0, 63, 49
3, 29040, Note_on_c, 0, 63, 0
3, 29040, Note_on_c, 0, 64, 49
3, 29280, Note_on_c, 0, 64, 0
3, 29280, Note_on_c, 0, 61, 49
3, 30000, Note_on_c, 0, 61, 0
3, 30000, Control_c, 0, 64, 0
3, 30000, Note_on_c, 0, 66, 49
3, 30240, Note_on_c, 0, 66, 0
3, 30240, Control_c, 0, 64, 127
3, 30240, Note_on_c, 0, 66, 49
3, 30480, Note_on_c, 0, 66, 0
3, 30480, Note_on_c, 0, 63, 49
3, 30720, Note_on_c, 0, 63, 0
3, 30720, Note_on_c, 0, 59, 62
3, 31440, Note_on_c, 0, 59, 0
3, 31440, Control_c, 0, 64, 0
3, 31440, Note_on_c, 0, 71, 62
3, 31680, Note_on_c, 0, 71, 0
3, 31680, Control_c, 0, 64, 127
3, 31680, Note_on_c, 0, 71, 62
3, 31920, Note_on_c, 0, 71, 0
3, 31920, Note_on_c, 0, 73, 62
3, 32160, Note_on_c, 0, 73, 0
3, 32160, Note_on_c, 0, 71, 62
3, 32880, Note_on_c, 0, 71, 0
3, 32880, Note_on_c, 0, 69, 62
3, 33120, Note_on_c, 0, 69, 0
3, 33120, Note_on_c, 0, 68, 62
3, 33360, Note_on_c, 0, 68, 0
3, 33360, Note_on_c, 0, 66, 62
3, 33600, Note_on_c, 0, 66, 0
3, 33600, Note_on_c, 0, 68, 62
3, 34320, Note_on_c, 0, 68, 0
3, 34320, Note_on_c, 0, 66, 62
3, 34560, Note_on_c, 0, 66, 0
3, 34560, Note_on_c, 0, 65, 62
3, 34800, Note_on_c, 0, 65, 0
3, 34800, Note_on_c, 0, 66, 62
3, 35040, Note_on_c, 0, 66, 0
3, 35040, Note_on_c, 0, 65, 62
3, 35760, Note_on_c, 0, 65, 0
3, 35760, Control_c, 0, 64, 0
3, 35760, Note_on_c, 0, 62, 62
3, 36000, Note_on_c, 0, 62, 0
3, 36000, Control_c, 0, 64, 127
3, 36000, Note_on_c, 0, 61, 62
3, 36240, Note_on_c, 0, 61, 0
3, 36240, Note_on_c, 0, 62, 62
3, 36480, Note_on_c, 0, 62, 0
3, 36480, Note_on_c, 0, 59, 62
3, 37200, Note_on_c, 0, 59, 0
3, 37200, Control_c, 0, 64, 0
3, 37200, Note_on_c, 0, 61, 62
3, 37440, Note_on_c, 0, 61, 0
3, 37440, Control_c, 0, 64, 127
3, 37440, Note_on_c, 0, 59, 62
3, 37680, Note_on_c, 0, 59, 0
3, 37680, Note_on_c, 0, 61, 62
3, 37920, Note_on_c, 0, 61, 0
3, 37920, Note_on_c, 0, 57, 62
3, 38640, Note_on_c, 0, 57, 0
3, 38640, Control_c, 0, 64, 0
3, 38640, Note_on_c, 0, 59, 62
3, 38880, Note_on_c, 0, 59, 0
3, 38880, Control_c, 0, 64, 127
3, 38880, Note_on_c, 0, 57, 62
3, 39120, Note_on_c, 0, 57, 0
3, 39120, Note_on_c, 0, 59, 62
3, 39360, Note_on_c, 0, 59, 0
3, 39360, Control_c, 0, 64, 0
3, 39360, Note_on_c, 0, 56, 62
3, 40320, Note_on_c, 0, 56, 0
3, 40320, Note_on_c, 0, 69, 62
3, 41760, Note_on_c, 0, 69, 0
3, 41760, Note_on_c, 0, 69, 62
3, 42240, Note_on_c, 0, 69, 0
3, 42240, Note_on_c, 0, 73, 62
3, 43200, Note_on_c, 0, 73, 0
3, 43200, Note_on_c, 0, 73, 62
3, 44640, Note_on_c, 0, 73, 0
3, 44640, Note_on_c, 0, 73, 62
3, 46080, Note_on_c, 0, 73, 0
3, 46080, Note_on_c, 0, 71, 88
3, 46080, Note_on_c, 0, 75, 88
3, 46800, Note_on_c, 0, 75, 0
3, 46800, Note_on_c, 0, 71, 0
3, 46800, Control_c, 0, 64, 127
3, 46800, Note_on_c, 0, 73, 88
3, 46800, Note_on_c, 0, 77, 88
3, 47040, Note_on_c, 0, 77, 0
3, 47040, Note_on_c, 0, 73, 0
3, 47040, Note_on_c, 0, 75, 88
3, 47040, Note_on_c, 0, 78, 88
3, 47280, Note_on_c, 0, 78, 0
3, 47280, Note_on_c, 0, 75, 0
3, 47280, Control_c, 0, 64, 0
3, 47280, Note_on_c, 0, 77, 88
3, 47280, Note_on_c, 0, 80, 88
3, 47520, Note_on_c, 0, 80, 0
3, 47520, Note_on_c, 0, 77, 0
3, 47520, Note_on_c, 0, 73, 88
3, 47520, Note_on_c, 0, 78, 88
3, 47520, Note_on_c, 0, 82, 88
3, 48480, Note_on_c, 0, 82, 0
3, 48480, Note_on_c, 0, 78, 0
3, 48480, Note_on_c, 0, 73, 0
3, 48480, Note_on_c, 0, 73, 101
3, 48480, Note_on_c, 0, 76, 101
3, 48480, Note_on_c, 0, 81, 101
3, 49440, Note_on_c, 0, 81, 0
3, 49440, Note_on_c, 0, 76, 0
3, 49440, Note_on_c, 0, 73, 0
3, 49440, Control_c, 0, 64, 127
3, 49440, Note_on_c, 0, 72, 101
3, 49440, Note_on_c, 0, 75, 101
3, 49440, Note_on_c, 0, 78, 101
3, 49440, Note_on_c, 0, 80, 101
3, 51120, Note_on_c, 0, 80, 0
3, 51120, Note_on_c, 0, 72, 0
3, 51120, Note_on_c, 0, 75, 0
3, 51120, Note_on_c, 0, 78, 0
3, 51120, Note_on_c, 0, 78, 88
3, 51360, Note_on_c, 0, 78, 0
3, 51360, Note_on_c, 0, 75, 75
3, 51600, Note_on_c, 0, 75, 0
3, 51600, Control_c, 0, 64, 0
3, 51600, Note_on_c, 0, 72, 62
3, 51840, Note_on_c, 0, 72, 0
3, 51840, Note_on_c, 0, 73, 49
3, 53280, Note_on_c, 0, 73, 0
3, 53760, Note_on_c, 0, 72, 49
3, 54480, Note_on_c, 0, 72, 0
3, 54480, Note_on_c, 0, 73, 49
3, 54720, Note_on_c, 0, 73, 0
3, 54720, Control_c, 0, 64, 127
3, 54720, Note_on_c, 0, 68, 62
3, 55440, Note_on_c, 0, 68, 0
3, 55440, Note_on_c, 0, 70, 62
3, 55680, Note_on_c, 0, 70, 0
3, 55680, Control_c, 0, 64, 0
3, 55680, Note_on_c, 0, 68, 62
3, 56160, Note_on_c, 0, 68, 0
3, 56160, Control_c, 0, 64, 127
3, 56160, Note_on_c, 0, 65, 62
3, 56400, Note_on_c, 0, 65, 0
3, 56400, Note_on_c, 0, 66, 62
3, 56640, Note_on_c, 0, 66, 0
3, 56640, Control_c, 0, 64, 0
3, 56640, Note_on_c, 0, 68, 62
3, 57600, Note_on_c, 0, 68, 0
3, 57600, Control_c, 0, 64, 127
3, 57600, Note_on_c, 0, 65, 62
3, 57840, Note_on_c, 0, 65, 0
3, 57840, Note_on_c, 0, 66, 62
3, 58080, Note_on_c, 0, 66, 0
3, 58080, Control_c, 0, 64, 0
3, 58080, Note_on_c, 0, 68, 62
3, 59040, Note_on_c, 0, 68, 0
3, 59040, Control_c, 0, 64, 127
3, 59040, Note_on_c, 0, 65, 62
3, 59280, Note_on_c, 0, 65, 0
3, 59280, Note_on_c, 0, 66, 62
3, 59520, Note_on_c, 0, 66, 0
3, 59520, Note_on_c, 0, 60, 88
3, 59520, Note_on_c, 0, 68, 88
3, 60240, Note_on_c, 0, 68, 0
3, 60240, Note_on_c, 0, 60, 0
3, 60240, Control_c, 0, 64, 0
3, 60240, Note_on_c, 0, 61, 62
3, 60480, Note_on_c, 0, 61, 0
3, 60480, Control_c, 0, 64, 127
3, 60480, Note_on_c, 0, 71, 49
3, 61200, Note_on_c, 0, 71, 0
3, 61200, Note_on_c, 0, 73, 49
3, 61440, Note_on_c, 0, 73, 0
3, 61440, Note_on_c, 0, 71, 49
3, 61920, Note_on_c, 0, 71, 0
3, 61920, Note_on_c, 0, 69, 49
3, 62160, Note_on_c, 0, 69, 0
3, 62160, Note_on_c, 0, 68, 49
3, 62400, Note_on_c, 0, 68, 0
3, 62400, Note_on_c, 0, 69, 49
3, 63120, Note_on_c, 0, 69, 0
3, 63120, Note_on_c, 0, 68, 49
3, 63360, Note_on_c, 0, 68, 0
3, 63360, Note_on_c, 0, 66, 49
3, 63600, Note_on_c, 0, 66, 0
3, 63600, Note_on_c, 0, 68, 49
3, 63840, Note_on_c, 0, 68, 0
3, 63840, Note_on_c, 0, 66, 49
3, 64560, Note_on_c, 0, 66, 0
3, 64560, Control_c, 0, 64, 0
3, 64560, Note_on_c, 0, 64, 49
3, 64800, Note_on_c, 0, 64, 0
3, 64800, Control_c, 0, 64, 127
3, 64800, Note_on_c, 0, 63, 49
3, 65040, Note_on_c, 0, 63, 0
3, 65040, Note_on_c, 0, 64, 49
3, 65280, Note_on_c, 0, 64, 0
3, 65280, Note_on_c, 0, 61, 49
3, 66000, Note_on_c, 0, 61, 0
3, 66000, Control_c, 0, 64, 0
3, 66000, Note_on_c, 0, 66, 49
3, 66240, Note_on_c, 0, 66, 0
3, 66240, Control_c, 0, 64, 127
3, 66240, Note_on_c, 0, 63, 49
3, 66480, Note_on_c, 0, 63, 0
3, 66480, Note_on_c, 0, 64, 49
3, 66720, Note_on_c, 0, 64, 0
3, 66720, Note_on_c, 0, 61, 49
3, 67440, Note_on_c, 0, 61, 0
3, 67440, Control_c, 0, 64, 0
3, 67440, Note_on_c, 0, 66, 49
3, 67680, Note_on_c, 0, 66, 0
3, 67680, Control_c, 0, 64, 127
3, 67680, Note_on_c, 0, 66, 49
3, 67920, Note_on_c, 0, 66, 0
3, 67920, Note_on_c, 0, 63, 49
3, 68160, Note_on_c, 0, 63, 0
3, 68160, Note_on_c, 0, 59, 62
3, 68880, Note_on_c, 0, 59, 0
3, 68880, Control_c, 0, 64, 0
3, 68880, Note_on_c, 0, 71, 62
3, 69120, Note_on_c, 0, 71, 0
3, 69120, Control_c, 0, 64, 127
3, 69120, Note_on_c, 0, 71, 62
3, 69360, Note_on_c, 0, 71, 0
3, 69360, Note_on_c, 0, 73, 62
3, 69600, Note_on_c, 0, 73, 0
3, 69600, Note_on_c, 0, 71, 62
3, 70320, Note_on_c, 0, 71, 0
3, 70320, Note_on_c, 0, 69, 62
3, 70560, Note_on_c, 0, 69, 0
3, 70560, Note_on_c, 0, 68, 62
3, 70800, Note_on_c, 0, 68, 0
3, 70800, Note_on_c, 0, 66, 62
3, 71040, Note_on_c, 0, 66, 0
3, 71040, Note_on_c, 0, 68, 62
3, 71760, Note_on_c, 0, 68, 0
3, 71760, Note_on_c, 0, 66, 62
3, 72000, Note_on_c, 0, 66, 0
3, 72000, Note_on_c, 0, 65, 62
3, 72240, Note_on_c, 0, 65, 0
3, 72240, Note_on_c, 0, 66, 62
3, 72480, Note_on_c, 0, 66, 0
3, 72480, Note_on_c, 0, 65, 62
3, 73200, Note_on_c, 0, 65, 0
3, 73200, Control_c, 0, 64, 0
3, 73200, Note_on_c, 0, 62, 62
3, 73440, Note_on_c, 0, 62, 0
3, 73440, Control_c, 0, 64, 127
3, 73440, Note_on_c, 0, 61, 62
3, 73680, Note_on_c, 0, 61, 0
3, 73680, Note_on_c, 0, 62, 62
3, 73920, Note_on_c, 0, 62, 0
3, 73920, Note_on_c, 0, 59, 62
3, 74640, Note_on_c, 0, 59, 0
3, 74640, Control_c, 0, 64, 0
3, 74640, Note_on_c, 0, 61, 62
3, 74880, Note_on_c, 0, 61, 0
3, 74880, Control_c, 0, 64, 127
3, 74880, Note_on_c, 0, 59, 62
3, 75120, Note_on_c, 0, 59, 0
3, 75120, Note_on_c, 0, 61, 62
3, 75360, Note_on_c, 0, 61, 0
3, 75360, Note_on_c, 0, 57, 62
3, 76080, Note_on_c, 0, 57, 0
3, 76080, Control_c, 0, 64, 0
3, 76080, Note_on_c, 0, 59, 62
3, 76320, Note_on_c, 0, 59, 0
3, 76320, Control_c, 0, 64, 127
3, 76320, Note_on_c, 0, 57, 62
3, 76560, Note_on_c, 0, 57, 0
3, 76560, Note_on_c, 0, 59, 62
3, 76800, Note_on_c, 0, 59, 0
3, 76800, Control_c, 0, 64, 0
3, 76800, Note_on_c, 0, 56, 62
3, 77760, Note_on_c, 0, 56, 0
3, 77760, Note_on_c, 0, 69, 62
3, 79200, Note_on_c, 0, 69, 0
3, 79200, Note_on_c, 0, 69, 62
3, 79680, Note_on_c, 0, 69, 0
3, 79680, Note_on_c, 0, 73, 62
3, 80640, Note_on_c, 0, 73, 0
3, 80640, Note_on_c, 0, 73, 62
3, 82080, Note_on_c, 0, 73, 0
3, 82080, Note_on_c, 0, 73, 62
3, 83520, Note_on_c, 0, 73, 0
3, 83520, Note_on_c, 0, 71, 88
3, 83520, Note_on_c, 0, 75, 88
3, 84240, Note_on_c, 0, 75, 0
3, 84240, Note_on_c, 0, 71, 0
3, 84240, Control_c, 0, 64, 127
3, 84240, Note_on_c, 0, 73, 88
3, 84240, Note_on_c, 0, 77, 88
3, 84480, Note_on_c, 0, 77, 0
3, 84480, Note_on_c, 0, 73, 0
3, 84480, Note_on_c, 0, 75, 88
3, 84480, Note_on_c, 0, 78, 88
3, 84720, Note_on_c, 0, 78, 0
3, 84720, Note_on_c, 0, 75, 0
3, 84720, Control_c, 0, 64, 0
3, 84720, Note_on_c, 0, 77, 88
3, 84720, Note_on_c, 0, 80, 88
3, 84960, Note_on_c, 0, 80, 0
3, 84960, Note_on_c, 0, 77, 0
3, 84960, Note_on_c, 0, 73, 88
3, 84960, Note_on_c, 0, 78, 88
3, 84960, Note_on_c, 0, 82, 88
3, 85920, Note_on_c, 0, 82, 0
3, 85920, Note_on_c, 0, 78, 0
3, 85920, Note_on_c, 0, 73, 0
3, 85920, Note_on_c, 0, 73, 101
3, 85920, Note_on_c, 0, 76, 101
3, 85920, Note_on_c, 0, 81, 101
3, 86880, Note_on_c, 0, 81, 0
3, 86880, Note_on_c, 0, 76, 0
3, 86880, Note_on_c, 0, 73, 0
3, 86880, Control_c, 0, 64, 127
3, 86880, Note_on_c, 0, 72, 101
3, 86880, Note_on_c, 0, 75, 101
3, 86880, Note_on_c, 0, 78, 101
3, 86880, Note_on_c, 0, 80, 101
3, 88560, Note_on_c, 0, 80, 0
3, 88560, Note_on_c, 0, 72, 0
3, 88560, Note_on_c, 0, 75, 0
3, 88560, Note_on_c, 0, 78, 0
3, 88560, Note_on_c, 0, 78, 88
3, 88800, Note_on_c, 0, 78, 0
3, 88800, Note_on_c, 0, 75, 75
3, 89040, Note_on_c, 0, 75, 0
3, 89040, Control_c, 0, 64, 0
3, 89040, Note_on_c, 0, 72, 62
3, 89280, Note_on_c, 0, 72, 0
3, 89280, Note_on_c, 0, 73, 49
3, 90720, Note_on_c, 0, 73, 0
3, 91200, Note_on_c, 0, 72, 49
3, 91920, Note_on_c, 0, 72, 0
3, 91920, Note_on_c, 0, 73, 49
3, 92160, Note_on_c, 0, 73, 0
3, 92160, Control_c, 0, 64, 127
3, 92160, Note_on_c, 0, 68, 62
3, 92880, Note_on_c, 0, 68, 0
3, 92880, Note_on_c, 0, 70, 62
3, 93120, Note_on_c, 0, 70, 0
3, 93120, Control_c, 0, 64, 0
3, 93120, Note_on_c, 0, 68, 62
3, 93600, Note_on_c, 0, 68, 0
3, 93600, Control_c, 0, 64, 127
3, 93600, Note_on_c, 0, 65, 62
3, 93840, Note_on_c, 0, 65, 0
3, 93840, Note_on_c, 0, 66, 62
3, 94080, Note_on_c, 0, 66, 0
3, 94080, Control_c, 0, 64, 0
3, 94080, Note_on_c, 0, 68, 62
3, 95040, Note_on_c, 0, 68, 0
3, 95040, Control_c, 0, 64, 127
3, 95040, Note_on_c, 0, 65, 62
3, 95280, Note_on_c, 0, 65, 0
3, 95280, Note_on_c, 0, 66, 62
3, 95520, Note_on_c, 0, 66, 0
3, 95520, Control_c, 0, 64, 0
3, 95520, Note_on_c, 0, 68, 62
3, 96480, Note_on_c, 0, 68, 0
3, 96480, Control_c, 0, 64, 127
3, 96480, Note_on_c, 0, 65, 62
3, 96720, Note_on_c, 0, 65, 0
3, 96720, Note_on_c, 0, 66, 62
3, 96960, Note_on_c, 0, 66, 0
3, 96960, Note_on_c, 0, 60, 88
3, 96960, Note_on_c, 0, 68, 88
3, 97680, Note_on_c, 0, 68, 0
3, 97680, Note_on_c, 0, 60, 0
3, 97680, Control_c, 0, 64, 0
3, 97680, Note_on_c, 0, 61, 62
3, 97920, Note_on_c, 0, 61, 0
3, 97920, Note_on_c, 0, 56, 62
3, 97920, Note_on_c, 0, 61, 62
3, 97920, Note_on_c, 0, 65, 62
3, 99360, Note_on_c, 0, 65, 0
3, 99360, Note_on_c, 0, 61, 0
3, 99360, Note_on_c, 0, 56, 0
3, 99360, Note_on_c, 0, 56, 62
3, 99360, Note_on_c, 0, 61, 62
3, 99360, Note_on_c, 0, 65, 62
3, 99840, Note_on_c, 0, 65, 0
3, 99840, Note_on_c, 0, 61, 0
3, 99840, Note_on_c, 0, 56, 0
3, 99840, End_track
4, 0, Start_track
4, 0, Title_t, "Instrument18"
4, 0, Program_c, 0, 0
4, 0, Control_c, 0, 7, 115
4, 0, Control_c, 0, 10, 48
4, 480, Note_on_c, 0, 57, 49
4, 480, Note_on_c, 0, 61, 49
4, 480, Note_on_c, 0, 66, 49
4, 960, Note_on_c, 0, 66, 0
4, 960, Note_on_c, 0, 57, 0
4, 960, Note_on_c, 0, 56, 49
4, 960, Note_on_c, 0, 64, 49
4, 1440, Note_on_c, 0, 64, 0
4, 1440, Note_on_c, 0, 56, 0
4, 1440, Note_on_c, 0, 61, 0
4, 1920, Note_on_c, 0, 56, 49
4, 1920, Note_on_c, 0, 60, 49
4, 1920, Note_on_c, 0, 66, 49
4, 2400, Note_on_c, 0, 66, 0
4, 2400, Note_on_c, 0, 60, 0
4, 2400, Note_on_c, 0, 61, 49
4, 2400, Note_on_c, 0, 64, 49
4, 2880, Note_on_c, 0, 64, 0
4, 2880, Note_on_c, 0, 61, 0
4, 2880, Note_on_c, 0, 56, 0
4, 3360, Note_on_c, 0, 57, 49
4, 3360, Note_on_c, 0, 61, 49
4, 3360, Note_on_c, 0, 66, 49
4, 3840, Note_on_c, 0, 66, 0
4, 3840, Note_on_c, 0, 57, 0
4, 3840, Note_on_c, 0, 56, 49
4, 3840, Note_on_c, 0, 64, 49
4, 4320, Note_on_c, 0, 64, 0
4, 4320, Note_on_c, 0, 56, 0
4, 4320, Note_on_c, 0, 61, 0
4, 4800, Note_on_c, 0, 57, 49
4, 4800, Note_on_c, 0, 59, 49
4, 4800, Note_on_c, 0, 66, 49
4, 5280, Note_on_c, 0, 66, 0
4, 5280, Note_on_c, 0, 57, 0
4, 5280, Note_on_c, 0, 56, 49
4, 5280, Note_on_c, 0, 64, 49
4, 5760, Note_on_c, 0, 64, 0
4, 5760, Note_on_c, 0, 56, 0
4, 5760, Note_on_c, 0, 59, 0
4, 6240, Note_on_c, 0, 57, 49
4, 6240, Note_on_c, 0, 59, 49
4, 6240, Note_on_c, 0, 66, 49
4, 6720, Note_on_c, 0, 66, 0
4, 6720, Note_on_c, 0, 57, 0
4, 6720, Note_on_c, 0, 56, 49
4, 6720, Note_on_c, 0, 65, 49
4, 7200, Note_on_c, 0, 65, 0
4, 7200, Note_on_c, 0, 56, 0
4, 7200, Note_on_c, 0, 59, 0
4, 7680, Note_on_c, 0, 57, 62
4, 7680, Note_on_c, 0, 61, 62
4, 7680, Note_on_c, 0, 68, 62
4, 8160, Note_on_c, 0, 68, 0
4, 8160, Note_on_c, 0, 61, 0
4, 8160, Note_on_c, 0, 57, 0
4, 8160, Note_on_c, 0, 66, 62
4, 8640, Note_on_c, 0, 66, 0
4, 9120, Note_on_c, 0, 57, 75
4, 9120, Note_on_c, 0, 61, 75
4, 9120, Note_on_c, 0, 68, 75
4, 9600, Note_on_c, 0, 68, 0
4, 9600, Note_on_c, 0, 61, 0
4, 9600, Note_on_c, 0, 57, 0
4, 9600, Note_on_c, 0, 66, 75
4, 10080, Note_on_c, 0, 66, 0
4, 10560, Note_on_c, 0, 56, 62
4, 10560, Note_on_c, 0, 60, 62
4, 10560, Note_on_c, 0, 68, 62
4, 11040, Note_on_c, 0, 68, 0
4, 11040, Note_on_c, 0, 60, 0
4, 11040, Note_on_c, 0, 56, 0
4, 11040, Note_on_c, 0, 66, 62
4, 11520, Note_on_c, 0, 66, 0
4, 12000, Note_on_c, 0, 57, 49
4, 12000, Note_on_c, 0, 61, 49
4, 12000, Note_on_c, 0, 66, 49
4, 12480, Note_on_c, 0, 66, 0
4, 12480, Note_on_c, 0, 57, 0
4, 12480, Note_on_c, 0, 56, 49
4, 12480, Note_on_c, 0, 64, 49
4, 12960, Note_on_c, 0, 64, 0
4, 12960, Note_on_c, 0, 56, 0
4, 12960, Note_on_c, 0, 61, 0
4, 13440, Note_on_c, 0, 56, 49
4, 13440, Note_on_c, 0, 60, 49
4, 13440, Note_on_c, 0, 66, 49
4, 13920, Note_on_c, 0, 66, 0
4, 13920, Note_on_c, 0, 60, 0
4, 13920, Note_on_c, 0, 61, 49
4, 13920, Note_on_c, 0, 64, 49
4, 14400, Note_on_c, 0, 64, 0
4, 14400, Note_on_c, 0, 61, 0
4, 14400, Note_on_c, 0, 56, 0
4, 14880, Note_on_c, 0, 57, 49
4, 14880, Note_on_c, 0, 61, 49
4, 14880, Note_on_c, 0, 66, 49
4, 15360, Note_on_c, 0, 66, 0
4, 15360, Note_on_c, 0, 57, 0
4, 15360, Note_on_c, 0, 56, 49
4, 15360, Note_on_c, 0, 64, 49
4, 15840, Note_on_c, 0, 64, 0
4, 15840, Note_on_c, 0, 56, 0
4, 15840, Note_on_c, 0, 61, 0
4, 16320, Note_on_c, 0, 57, 49
4, 16320, Note_on_c, 0, 59, 49
4, 16320, Note_on_c, 0, 66, 49
4, 16800, Note_on_c, 0, 66, 0
4, 16800, Note_on_c, 0, 57, 0
4, 16800, Note_on_c, 0, 56, 49
4, 16800, Note_on_c, 0, 64, 49
4, 17280, Note_on_c, 0, 64, 0
4, 17280, Note_on_c, 0, 56, 0
4, 17280, Note_on_c, 0, 59, 0
4, 17760, Note_on_c, 0, 57, 49
4, 17760, Note_on_c, 0, 59, 49
4, 17760, Note_on_c, 0, 66, 49
4, 18240, Note_on_c, 0, 66, 0
4, 18240, Note_on_c, 0, 57, 0
4, 18240, Note_on_c, 0, 56, 49
4, 18240, Note_on_c, 0, 65, 49
4, 18720, Note_on_c, 0, 65, 0
4, 18720, Note_on_c, 0, 56, 0
4, 18720, Note_on_c, 0, 59, 0
4, 19200, Note_on_c, 0, 57, 62
4, 19200, Note_on_c, 0, 61, 62
4, 19200, Note_on_c, 0, 68, 62
4, 19680, Note_on_c, 0, 68, 0
4, 19680, Note_on_c, 0, 61, 0
4, 19680, Note_on_c, 0, 57, 0
4, 19680, Note_on_c, 0, 66, 62
4, 20160, Note_on_c, 0, 66, 0
4, 20640, Note_on_c, 0, 57, 75
4, 20640, Note_on_c, 0, 61, 75
4, 20640, Note_on_c, 0, 68, 75
4, 21120, Note_on_c, 0, 68, 0
4, 21120, Note_on_c, 0, 61, 0
4, 21120, Note_on_c, 0, 57, 0
4, 21120, Note_on_c, 0, 66, 75
4, 21600, Note_on_c, 0, 66, 0
4, 22080, Note_on_c, 0, 57, 62
4, 22080, Note_on_c, 0, 59, 62
4, 22080, Note_on_c, 0, 66, 62
4, 22560, Note_on_c, 0, 66, 0
4, 22560, Note_on_c, 0, 59, 0
4, 22560, Note_on_c, 0, 57, 0
4, 22560, Note_on_c, 0, 63, 49
4, 23040, Note_on_c, 0, 63, 0
4, 23520, Note_on_c, 0, 61, 49
4, 23520, Note_on_c, 0, 64, 49
4, 23520, Note_on_c, 0, 69, 49
4, 24000, Note_on_c, 0, 69, 0
4, 24000, Note_on_c, 0, 64, 0
4, 24000, Note_on_c, 0, 61, 0
4, 24000, Note_on_c, 0, 59, 49
4, 24000, Note_on_c, 0, 63, 49
4, 24000, Note_on_c, 0, 68, 49
4, 24480, Note_on_c, 0, 68, 0
4, 24480, Note_on_c, 0, 63, 0
4, 24480, Note_on_c, 0, 59, 0
4, 24960, Note_on_c, 0, 57, 49
4, 24960, Note_on_c, 0, 61, 49
4, 24960, Note_on_c, 0, 66, 49
4, 25440, Note_on_c, 0, 66, 0
4, 25440, Note_on_c, 0, 61, 0
4, 25440, Note_on_c, 0, 57, 0
4, 25440, Note_on_c, 0, 56, 49
4, 25440, Note_on_c, 0, 59, 49
4, 25440, Note_on_c, 0, 64, 49
4, 25920, Note_on_c, 0, 64, 0
4, 25920, Note_on_c, 0, 59, 0
4, 25920, Note_on_c, 0, 56, 0
4, 26400, Note_on_c, 0, 54, 49
4, 26400, Note_on_c, 0, 57, 49
4, 26400, Note_on_c, 0, 63, 49
4, 26880, Note_on_c, 0, 63, 0
4, 26880, Note_on_c, 0, 57, 0
4, 26880, Note_on_c, 0, 54, 0
4, 26880, Note_on_c, 0, 52, 49
4, 26880, Note_on_c, 0, 56, 49
4, 26880, Note_on_c, 0, 61, 49
4, 27360, Note_on_c, 0, 61, 0
4, 27360, Note_on_c, 0, 56, 0
4, 27360, Note_on_c, 0, 52, 0
4, 27360, Note_on_c, 0, 51, 49
4, 27360, Note_on_c, 0, 54, 49
4, 27360, Note_on_c, 0, 59, 49
4, 27840, Note_on_c, 0, 59, 0
4, 27840, Note_on_c, 0, 54, 0
4, 27840, Note_on_c, 0, 51, 0
4, 27840, Note_on_c, 0, 49, 49
4, 27840, Note_on_c, 0, 54, 49
4, 27840, Note_on_c, 0, 58, 49
4, 28800, Note_on_c, 0, 58, 0
4, 28800, Note_on_c, 0, 54, 0
4, 28800, Note_on_c, 0, 49, 0
4, 28800, Note_on_c, 0, 51, 49
4, 28800, Note_on_c, 0, 54, 49
4, 28800, Note_on_c, 0, 59, 49
4, 29280, Note_on_c, 0, 59, 0
4, 29280, Note_on_c, 0, 54, 0
4, 29280, Note_on_c, 0, 51, 0
4, 29280, Note_on_c, 0, 49, 49
4, 29280, Note_on_c, 0, 54, 49
4, 29280, Note_on_c, 0, 58, 49
4, 30240, Note_on_c, 0, 58, 0
4, 30240, Note_on_c, 0, 54, 0
4, 30240, Note_on_c, 0, 49, 0
4, 30240, Note_on_c, 0, 54, 49
4, 30240, Note_on_c, 0, 59, 49
4, 30720, Note_on_c, 0, 59, 0
4, 30720, Note_on_c, 0, 54, 0
4, 30720, Note_on_c, 0, 47, 49
4, 30720, Note_on_c, 0, 54, 49
4, 31680, Note_on_c, 0, 54, 0
4, 31680, Note_on_c, 0, 47, 0
4, 32160, Note_on_c, 0, 59, 49
4, 32160, Note_on_c, 0, 62, 49
4, 32160, Note_on_c, 0, 68, 49
4, 32640, Note_on_c, 0, 68, 0
4, 32640, Note_on_c, 0, 62, 0
4, 32640, Note_on_c, 0, 59, 0
4, 32640, Note_on_c, 0, 57, 49
4, 32640, Note_on_c, 0, 61, 49
4, 32640, Note_on_c, 0, 66, 49
4, 33120, Note_on_c, 0, 66, 0
4, 33120, Note_on_c, 0, 61, 0
4, 33120, Note_on_c, 0, 57, 0
4, 33600, Note_on_c, 0, 56, 49
4, 33600, Note_on_c, 0, 59, 49
4, 33600, Note_on_c, 0, 65, 49
4, 34080, Note_on_c, 0, 65, 0
4, 34080, Note_on_c, 0, 59, 0
4, 34080, Note_on_c, 0, 56, 0
4, 34080, Note_on_c, 0, 54, 49
4, 34080, Note_on_c, 0, 57, 49
4, 34080, Note_on_c, 0, 62, 49
4, 34560, Note_on_c, 0, 62, 0
4, 34560, Note_on_c, 0, 57, 0
4, 34560, Note_on_c, 0, 54, 0
4, 35040, Note_on_c, 0, 53, 49
4, 35040, Note_on_c, 0, 56, 49
4, 35040, Note_on_c, 0, 61, 49
4, 35520, Note_on_c, 0, 61, 0
4, 35520, Note_on_c, 0, 56, 0
4, 35520, Note_on_c, 0, 53, 0
4, 35520, Note_on_c, 0, 50, 49
4, 35520, Note_on_c, 0, 54, 49
4, 35520, Note_on_c, 0, 59, 49
4, 36000, Note_on_c, 0, 59, 0
4, 36000, Note_on_c, 0, 54, 0
4, 36000, Note_on_c, 0, 50, 0
4, 36000, Note_on_c, 0, 49, 49
4, 36000, Note_on_c, 0, 54, 49
4, 36000, Note_on_c, 0, 57, 49
4, 36480, Note_on_c, 0, 57, 0
4, 36480, Note_on_c, 0, 54, 0
4, 36480, Note_on_c, 0, 49, 0
4, 36480, Note_on_c, 0, 47, 49
4, 36480, Note_on_c, 0, 53, 49
4, 36480, Note_on_c, 0, 56, 49
4, 37440, Note_on_c, 0, 56, 0
4, 37440, Note_on_c, 0, 53, 0
4, 37440, Note_on_c, 0, 47, 0
4, 37920, Note_on_c, 0, 45, 49
4, 37920, Note_on_c, 0, 54, 49
4, 38880, Note_on_c, 0, 54, 0
4, 38880, Note_on_c, 0, 45, 0
4, 39360, Note_on_c, 0, 44, 49
4, 39360, Note_on_c, 0, 52, 49
4, 40320, Note_on_c, 0, 52, 0
4, 40320, Note_on_c, 0, 44, 0
4, 40800, Note_on_c, 0, 57, 49
4, 40800, Note_on_c, 0, 62, 49
4, 40800, Note_on_c, 0, 66, 49
4, 41280, Note_on_c, 0, 66, 0
4, 41280, Note_on_c, 0, 62, 0
4, 41280, Note_on_c, 0, 57, 0
4, 41280, Note_on_c, 0, 61, 49
4, 41280, Note_on_c, 0, 64, 49
4, 41760, Note_on_c, 0, 64, 0
4, 41760, Note_on_c, 0, 61, 0
4, 42240, Note_on_c, 0, 57, 62
4, 42240, Note_on_c, 0, 61, 62
4, 42240, Note_on_c, 0, 66, 62
4, 42720, Note_on_c, 0, 66, 0
4, 42720, Note_on_c, 0, 61, 0
4, 42720, Note_on_c, 0, 57, 0
4, 42720, Note_on_c, 0, 64, 62
4, 43200, Note_on_c, 0, 64, 0
4, 43680, Note_on_c, 0, 58, 62
4, 43680, Note_on_c, 0, 61, 62
4, 43680, Note_on_c, 0, 66, 62
4, 44160, Note_on_c, 0, 66, 0
4, 44160, Note_on_c, 0, 61, 0
4, 44160, Note_on_c, 0, 58, 0
4, 44160, Note_on_c, 0, 56, 62
4, 44160, Note_on_c, 0, 61, 62
4, 44160, Note_on_c, 0, 65, 62
4, 44640, Note_on_c, 0, 65, 0
4, 44640, Note_on_c, 0, 61, 0
4, 44640, Note_on_c, 0, 56, 0
4, 45120, Note_on_c, 0, 56, 75
4, 45120, Note_on_c, 0, 59, 75
4, 45120, Note_on_c, 0, 66, 75
4, 45600, Note_on_c, 0, 66, 0
4, 45600, Note_on_c, 0, 59, 0
4, 45600, Note_on_c, 0, 56, 0
4, 45600, Note_on_c, 0, 65, 75
4, 46080, Note_on_c, 0, 65, 0
4, 46560, Note_on_c, 0, 59, 75
4, 46560, Note_on_c, 0, 65, 75
4, 46560, Note_on_c, 0, 70, 75
4, 47040, Note_on_c, 0, 70, 0
4, 47040, Note_on_c, 0, 65, 0
4, 47040, Note_on_c, 0, 59, 0
4, 47040, Note_on_c, 0, 68, 75
4, 47520, Note_on_c, 0, 68, 0
4, 48000, Note_on_c, 0, 49, 75
4, 48000, Note_on_c, 0, 61, 75
4, 48480, Note_on_c, 0, 61, 0
4, 48480, Note_on_c, 0, 49, 0
4, 48960, Note_on_c, 0, 61, 75
4, 48960, Note_on_c, 0, 64, 75
4, 49440, Note_on_c, 0, 64, 0
4, 49440, Note_on_c, 0, 61, 0
4, 49920, Note_on_c, 0, 56, 75
4, 49920, Note_on_c, 0, 60, 75
4, 49920, Note_on_c, 0, 63, 75
4, 49920, Note_on_c, 0, 66, 75
4, 49920, Note_on_c, 0, 68, 75
4, 51360, Note_on_c, 0, 68, 0
4, 51360, Note_on_c, 0, 63, 0
4, 51360, Note_on_c, 0, 56, 0
4, 51360, Note_on_c, 0, 60, 0
4, 51360, Note_on_c, 0, 66, 0
4, 51360, Note_on_c, 0, 56, 62
4, 51360, Note_on_c, 0, 63, 62
4, 51360, Note_on_c, 0, 66, 62
4, 51840, Note_on_c, 0, 66, 0
4, 51840, Note_on_c, 0, 63, 0
4, 51840, Note_on_c, 0, 56, 0
4, 52320, Note_on_c, 0, 58, 75
4, 52320, Note_on_c, 0, 61, 75
4, 52320, Note_on_c, 0, 66, 75
4, 52800, Note_on_c, 0, 66, 0
4, 52800, Note_on_c, 0, 61, 0
4, 52800, Note_on_c, 0, 58, 0
4, 52800, Note_on_c, 0, 56, 49
4, 52800, Note_on_c, 0, 61, 49
4, 52800, Note_on_c, 0, 65, 49
4, 53280, Note_on_c, 0, 65, 0
4, 53280, Note_on_c, 0, 61, 0
4, 53280, Note_on_c, 0, 56, 0
4, 53760, Note_on_c, 0, 56, 75
4, 53760, Note_on_c, 0, 63, 75
4, 53760, Note_on_c, 0, 66, 75
4, 54240, Note_on_c, 0, 66, 0
4, 54240, Note_on_c, 0, 63, 0
4, 54240, Note_on_c, 0, 56, 0
4, 54240, Note_on_c, 0, 61, 49
4, 54240, Note_on_c, 0, 65, 49
4, 54720, Note_on_c, 0, 65, 0
4, 54720, Note_on_c, 0, 61, 0
4, 55200, Note_on_c, 0, 54, 75
4, 55200, Note_on_c, 0, 58, 75
4, 55200, Note_on_c, 0, 61, 75
4, 55680, Note_on_c, 0, 58, 0
4, 55680, Note_on_c, 0, 54, 0
4, 55680, Note_on_c, 0, 53, 49
4, 55680, Note_on_c, 0, 56, 49
4, 56160, Note_on_c, 0, 56, 0
4, 56160, Note_on_c, 0, 53, 0
4, 56160, Note_on_c, 0, 61, 0
4, 56640, Note_on_c, 0, 54, 49
4, 56640, Note_on_c, 0, 56, 49
4, 56640, Note_on_c, 0, 60, 49
4, 57120, Note_on_c, 0, 60, 0
4, 57120, Note_on_c, 0, 56, 0
4, 57120, Note_on_c, 0, 54, 0
4, 57120, Note_on_c, 0, 53, 49
4, 57120, Note_on_c, 0, 61, 49
4, 57600, Note_on_c, 0, 61, 0
4, 57600, Note_on_c, 0, 53, 0
4, 58080, Note_on_c, 0, 54, 49
4, 58080, Note_on_c, 0, 56, 49
4, 58080, Note_on_c, 0, 60, 49
4, 58560, Note_on_c, 0, 60, 0
4, 58560, Note_on_c, 0, 56, 0
4, 58560, Note_on_c, 0, 54, 0
4, 58560, Note_on_c, 0, 53, 49
4, 58560, Note_on_c, 0, 61, 49
4, 59040, Note_on_c, 0, 61, 0
4, 59040, Note_on_c, 0, 53, 0
4, 59520, Note_on_c, 0, 44, 49
4, 59520, Note_on_c, 0, 54, 49
4, 60000, Note_on_c, 0, 54, 0
4, 60000, Note_on_c, 0, 44, 0
4, 60000, Note_on_c, 0, 49, 49
4, 60000, Note_on_c, 0, 53, 49
4, 60480, Note_on_c, 0, 53, 0
4, 60480, Note_on_c, 0, 49, 0
4, 60960, Note_on_c, 0, 61, 49
4, 60960, Note_on_c, 0, 64, 49
4, 60960, Note_on_c, 0, 69, 49
4, 61440, Note_on_c, 0, 69, 0
4, 61440, Note_on_c, 0, 64, 0
4, 61440, Note_on_c, 0, 61, 0
4, 61440, Note_on_c, 0, 59, 49
4, 61440, Note_on_c, 0, 63, 49
4, 61440, Note_on_c, 0, 68, 49
4, 61920, Note_on_c, 0, 68, 0
4, 61920, Note_on_c, 0, 63, 0
4, 61920, Note_on_c, 0, 59, 0
4, 62400, Note_on_c, 0, 57, 49
4, 62400, Note_on_c, 0, 61, 49
4, 62400, Note_on_c, 0, 66, 49
4, 62880, Note_on_c, 0, 66, 0
4, 62880, Note_on_c, 0, 61, 0
4, 62880, Note_on_c, 0, 57, 0
4, 62880, Note_on_c, 0, 56, 49
4, 62880, Note_on_c, 0, 59, 49
4, 62880, Note_on_c, 0, 64, 49
4, 63360, Note_on_c, 0, 64, 0
4, 63360, Note_on_c, 0, 59, 0
4, 63360, Note_on_c, 0, 56, 0
4, 63840, Note_on_c, 0, 54, 49
4, 63840, Note_on_c, 0, 57, 49
4, 63840, Note_on_c, 0, 63, 49
4, 64320, Note_on_c, 0, 63, 0
4, 64320, Note_on_c, 0, 57, 0
4, 64320, Note_on_c, 0, 54, 0
4, 64320, Note_on_c, 0, 52, 49
4, 64320, Note_on_c, 0, 56, 49
4, 64320, Note_on_c, 0, 61, 49
4, 64800, Note_on_c, 0, 61, 0
4, 64800, Note_on_c, 0, 56, 0
4, 64800, Note_on_c, 0, 52, 0
4, 64800, Note_on_c, 0, 51, 49
4, 64800, Note_on_c, 0, 54, 49
4, 64800, Note_on_c, 0, 59, 49
4, 65280, Note_on_c, 0, 59, 0
4, 65280, Note_on_c, 0, 54, 0
4, 65280, Note_on_c, 0, 51, 0
4, 65280, Note_on_c, 0, 49, 49
4, 65280, Note_on_c, 0, 54, 49
4, 65280, Note_on_c, 0, 58, 49
4, 66240, Note_on_c, 0, 58, 0
4, 66240, Note_on_c, 0, 54, 0
4, 66240, Note_on_c, 0, 49, 0
4, 66240, Note_on_c, 0, 51, 49
4, 66240, Note_on_c, 0, 54, 49
4, 66240, Note_on_c, 0, 59, 49
4, 66720, Note_on_c, 0, 59, 0
4, 66720, Note_on_c, 0, 54, 0
4, 66720, Note_on_c, 0, 51, 0
4, 66720, Note_on_c, 0, 49, 49
4, 66720, Note_on_c, 0, 54, 49
4, 66720, Note_on_c, 0, 58, 49
4, 67680, Note_on_c, 0, 58, 0
4, 67680, Note_on_c, 0, 54, 0
4, 67680, Note_on_c, 0, 49, 0
4, 67680, Note_on_c, 0, 54, 49
4, 67680, Note_on_c, 0, 59, 49
4, 68160, Note_on_c, 0, 59, 0
4, 68160, Note_on_c, 0, 54, 0
4, 68160, Note_on_c, 0, 47, 49
4, 68160, Note_on_c, 0, 54, 49
4, 69120, Note_on_c, 0, 54, 0
4, 69120, Note_on_c, 0, 47, 0
4, 69600, Note_on_c, 0, 59, 49
4, 69600, Note_on_c, 0, 62, 49
4, 69600, Note_on_c, 0, 68, 49
4, 70080, Note_on_c, 0, 68, 0
4, 70080, Note_on_c, 0, 62, 0
4, 70080, Note_on_c, 0, 59, 0
4, 70080, Note_on_c, 0, 57, 49
4, 70080, Note_on_c, 0, 61, 49
4, 70080, Note_on_c, 0, 66, 49
4, 70560, Note_on_c, 0, 66, 0
4, 70560, Note_on_c, 0, 61, 0
4, 70560, Note_on_c, 0, 57, 0
4, 71040, Note_on_c, 0, 56, 49
4, 71040, Note_on_c, 0, 59, 49
4, 71040, Note_on_c, 0, 65, 49
4, 71520, Note_on_c, 0, 65, 0
4, 71520, Note_on_c, 0, 59, 0
4, 71520, Note_on_c, 0, 56, 0
4, 71520, Note_on_c, 0, 54, 49
4, 71520, Note_on_c, 0, 57, 49
4, 71520, Note_on_c, 0, 62, 49
4, 72000, Note_on_c, 0, 62, 0
4, 72000, Note_on_c, 0, 57, 0
4, 72000, Note_on_c, 0, 54, 0
4, 72480, Note_on_c, 0, 53, 49
4, 72480, Note_on_c, 0, 56, 49
4, 72480, Note_on_c, 0, 61, 49
4, 72960, Note_on_c, 0, 61, 0
4, 72960, Note_on_c, 0, 56, 0
4, 72960, Note_on_c, 0, 53, 0
4, 72960, Note_on_c, 0, 50, 49
4, 72960, Note_on_c, 0, 54, 49
4, 72960, Note_on_c, 0, 59, 49
4, 73440, Note_on_c, 0, 59, 0
4, 73440, Note_on_c, 0, 54, 0
4, 73440, Note_on_c, 0, 50, 0
4, 73440, Note_on_c, 0, 49, 49
4, 73440, Note_on_c, 0, 54, 49
4, 73440, Note_on_c, 0, 57, 49
4, 73920, Note_on_c, 0, 57, 0
4, 73920, Note_on_c, 0, 54, 0
4, 73920, Note_on_c, 0, 49, 0
4, 73920, Note_on_c, 0, 47, 49
4, 73920, Note_on_c, 0, 53, 49
4, 73920, Note_on_c, 0, 56, 49
4, 74880, Note_on_c, 0, 56, 0
4, 74880, Note_on_c, 0, 53, 0
4, 74880, Note_on_c, 0, 47, 0
4, 75360, Note_on_c, 0, 45, 49
4, 75360, Note_on_c, 0, 54, 49
4, 76320, Note_on_c, 0, 54, 0
4, 76320, Note_on_c, 0, 45, 0
4, 76800, Note_on_c, 0, 44, 49
4, 76800, Note_on_c, 0, 52, 49
4, 77760, Note_on_c, 0, 52, 0
4, 77760, Note_on_c, 0, 44, 0
4, 78240, Note_on_c, 0, 57, 49
4, 78240, Note_on_c, 0, 62, 49
4, 78240, Note_on_c, 0, 66, 49
4, 78720, Note_on_c, 0, 66, 0
4, 78720, Note_on_c, 0, 62, 0
4, 78720, Note_on_c, 0, 57, 0
4, 78720, Note_on_c, 0, 61, 49
4, 78720, Note_on_c, 0, 64, 49
4, 79200, Note_on_c, 0, 64, 0
4, 79200, Note_on_c, 0, 61, 0
4, 79680, Note_on_c, 0, 57, 62
4, 79680, Note_on_c, 0, 61, 62
4, 79680, Note_on_c, 0, 66, 62
4, 80160, Note_on_c, 0, 66, 0
4, 80160, Note_on_c, 0, 61, 0
4, 80160, Note_on_c, 0, 57, 0
4, 80160, Note_on_c, 0, 64, 62
4, 80640, Note_on_c, 0, 64, 0
4, 81120, Note_on_c, 0, 58, 62
4, 81120, Note_on_c, 0, 61, 62
4, 81120, Note_on_c, 0, 66, 62
4, 81600, Note_on_c, 0, 66, 0
4, 81600, Note_on_c, 0, 61, 0
4, 81600, Note_on_c, 0, 58, 0
4, 81600, Note_on_c, 0, 56, 62
4, 81600, Note_on_c, 0, 61, 62
4, 81600, Note_on_c, 0, 65, 62
4, 82080, Note_on_c, 0, 65, 0
4, 82080, Note_on_c, 0, 61, 0
4, 82080, Note_on_c, 0, 56, 0
4, 82560, Note_on_c, 0, 56, 75
4, 82560, Note_on_c, 0, 59, 75
4, 82560, Note_on_c, 0, 66, 75
4, 83040, Note_on_c, 0, 66, 0
4, 83040, Note_on_c, 0, 59, 0
4, 83040, Note_on_c, 0, 56, 0
4, 83040, Note_on_c, 0, 65, 75
4, 83520, Note_on_c, 0, 65, 0
4, 84000, Note_on_c, 0, 59, 75
4, 84000, Note_on_c, 0, 65, 75
4, 84000, Note_on_c, 0, 70, 75
4, 84480, Note_on_c, 0, 70, 0
4, 84480, Note_on_c, 0, 65, 0
4, 84480, Note_on_c, 0, 59, 0
4, 84480, Note_on_c, 0, 68, 75
4, 84960, Note_on_c, 0, 68, 0
4, 85440, Note_on_c, 0, 49, 75
4, 85440, Note_on_c, 0, 61, 75
4, 85920, Note_on_c, 0, 61, 0
4, 85920, Note_on_c, 0, 49, 0
4, 86400, Note_on_c, 0, 61, 75
4, 86400, Note_on_c, 0, 64, 75
4, 86880, Note_on_c, 0, 64, 0
4, 86880, Note_on_c, 0, 61, 0
4, 87360, Note_on_c, 0, 56, 75
4, 87360, Note_on_c, 0, 60, 75
4, 87360, Note_on_c, 0, 63, 75
4, 87360, Note_on_c, 0, 66, 75
4, 87360, Note_on_c, 0, 68, 75
4, 88800, Note_on_c, 0, 68, 0
4, 88800, Note_on_c, 0, 63, 0
4, 88800, Note_on_c, 0, 56, 0
4, 88800, Note_on_c, 0, 60, 0
4, 88800, Note_on_c, 0, 66, 0
4, 88800, Note_on_c, 0, 56, 62
4, 88800, Note_on_c, 0, 63, 62
4, 88800, Note_on_c, 0, 66, 62
4, 89280, Note_on_c, 0, 66, 0
4, 89280, Note_on_c, 0, 63, 0
4, 89280, Note_on_c, 0, 56, 0
4, 89760, Note_on_c, 0, 58, 75
4, 89760, Note_on_c, 0, 61, 75
4, 89760, Note_on_c, 0, 66, 75
4, 90240, Note_on_c, 0, 66, 0
4, 90240, Note_on_c, 0, 61, 0
4, 90240, Note_on_c, 0, 58, 0
4, 90240, Note_on_c, 0, 56, 49
4, 90240, Note_on_c, 0, 61, 49
4, 90240, Note_on_c, 0, 65, 49
4, 90720, Note_on_c, 0, 65, 0
4, 90720, Note_on_c, 0, 61, 0
4, 90720, Note_on_c, 0, 56, 0
4, 91200, Note_on_c, 0, 56, 75
4, 91200, Note_on_c, 0, 63, 75
4, 91200, Note_on_c, 0, 66, 75
4, 91680, Note_on_c, 0, 66, 0
4, 91680, Note_on_c, 0, 63, 0
4, 91680, Note_on_c, 0, 56, 0
4, 91680, Note_on_c, 0, 61, 49
4, 91680, Note_on_c, 0, 65, 49
4, 92160, Note_on_c, 0, 65, 0
4, 92160, Note_on_c, 0, 61, 0
4, 92640, Note_on_c, 0, 54, 75
4, 92640, Note_on_c, 0, 58, 75
4, 92640, Note_on_c, 0, 61, 75
4, 93120, Note_on_c, 0, 58, 0
4, 93120, Note_on_c, 0, 54, 0
4, 93120, Note_on_c, 0, 53, 49
4, 93120, Note_on_c, 0, 56, 49
4, 93600, Note_on_c, 0, 56, 0
4, 93600, Note_on_c, 0, 53, 0
4, 93600, Note_on_c, 0, 61, 0
4, 94080, Note_on_c, 0, 54, 49
4, 94080, Note_on_c, 0, 56, 49
4, 94080, Note_on_c, 0, 60, 49
4, 94560, Note_on_c, 0, 60, 0
4, 94560, Note_on_c, 0, 56, 0
4, 94560, Note_on_c, 0, 54, 0
4, 94560, Note_on_c, 0, 53, 49
4, 94560, Note_on_c, 0, 61, 49
4, 95040, Note_on_c, 0, 61, 0
4, 95040, Note_on_c, 0, 53, 0
4, 95520, Note_on_c, 0, 54, 49
4, 95520, Note_on_c, 0, 56, 49
4, 95520, Note_on_c, 0, 60, 49
4, 96000, Note_on_c, 0, 60, 0
4, 96000, Note_on_c, 0, 56, 0
4, 96000, Note_on_c, 0, 54, 0
4, 96000, Note_on_c, 0, 53, 49
4, 96000, Note_on_c, 0, 61, 49
4, 96480, Note_on_c, 0, 61, 0
4, 96480, Note_on_c, 0, 53, 0
4, 96960, Note_on_c, 0, 44, 49
4, 96960, Note_on_c, 0, 54, 49
4, 97440, Note_on_c, 0, 54, 0
4, 97440, Note_on_c, 0, 44, 0
4, 97440, Note_on_c, 0, 49, 49
4, 97440, Note_on_c, 0, 53, 49
4, 97920, Note_on_c, 0, 53, 0
4, 97920, Note_on_c, 0, 49, 0
4, 97920, Note_on_c, 0, 44, 49
4, 97920, Note_on_c, 0, 53, 49
4, 99360, Note_on_c, 0, 53, 0
4, 99360, Note_on_c, 0, 44, 0
4, 99360, Note_on_c, 0, 44, 49
4, 99360, Note_on_c, 0, 53, 49
4, 99840, Note_on_c, 0, 53, 0
4, 99840, Note_on_c, 0, 44, 0
4, 99840, End_track
5, 0, Start_track
5, 0, Title_t, "Instrument19"
5, 0, Program_c, 0, 0
5, 0, Control_c, 0, 7, 115
5, 0, Control_c, 0, 10, 32
5, 0, Note_on_c, 0, 37, 62
5, 960, Note_on_c, 0, 37, 0
5, 960, Note_on_c, 0, 49, 62
5, 1440, Note_on_c, 0, 49, 0
5, 1440, Note_on_c, 0, 37, 62
5, 2400, Note_on_c, 0, 37, 0
5, 2400, Note_on_c, 0, 49, 62
5, 2880, Note_on_c, 0, 49, 0
5, 2880, Note_on_c, 0, 37, 62
5, 3840, Note_on_c, 0, 37, 0
5, 3840, Note_on_c, 0, 49, 62
5, 4320, Note_on_c, 0, 49, 0
5, 4320, Note_on_c, 0, 35, 62
5, 5280, Note_on_c, 0, 35, 0
5, 5280, Note_on_c, 0, 47, 62
5, 5760, Note_on_c, 0, 47, 0
5, 5760, Note_on_c, 0, 35, 62
5, 6720, Note_on_c, 0, 35, 0
5, 6720, Note_on_c, 0, 47, 62
5, 7200, Note_on_c, 0, 47, 0
5, 7200, Note_on_c, 0, 33, 62
5, 8160, Note_on_c, 0, 33, 0
5, 8160, Note_on_c, 0, 45, 62
5, 8640, Note_on_c, 0, 45, 0
5, 8640, Note_on_c, 0, 30, 62
5, 9600, Note_on_c, 0, 30, 0
5, 9600, Note_on_c, 0, 42, 75
5, 10080, Note_on_c, 0, 42, 0
5, 10080, Note_on_c, 0, 32, 75
5, 11040, Note_on_c, 0, 32, 0
5, 11040, Note_on_c, 0, 44, 62
5, 11520, Note_on_c, 0, 44, 0
5, 11520, Note_on_c, 0, 37, 62
5, 12480, Note_on_c, 0, 37, 0
5, 12480, Note_on_c, 0, 49, 62
5, 12960, Note_on_c, 0, 49, 0
5, 12960, Note_on_c, 0, 37, 62
5, 13920, Note_on_c, 0, 37, 0
5, 13920, Note_on_c, 0, 49, 62
5, 14400, Note_on_c, 0, 49, 0
5, 14400, Note_on_c, 0, 37, 62
5, 15360, Note_on_c, 0, 37, 0
5, 15360, Note_on_c, 0, 49, 62
5, 15840, Note_on_c, 0, 49, 0
5, 15840, Note_on_c, 0, 35, 62
5, 16800, Note_on_c, 0, 35, 0
5, 16800, Note_on_c, 0, 47, 62
5, 17280, Note_on_c, 0, 47, 0
5, 17280, Note_on_c, 0, 35, 62
5, 18240, Note_on_c, 0, 35, 0
5, 18240, Note_on_c, 0, 47, 62
5, 18720, Note_on_c, 0, 47, 0
5, 18720, Note_on_c, 0, 33, 62
5, 19680, Note_on_c, 0, 33, 0
5, 19680, Note_on_c, 0, 45, 62
5, 20160, Note_on_c, 0, 45, 0
5, 20160, Note_on_c, 0, 30, 62
5, 21120, Note_on_c, 0, 30, 0
5, 21120, Note_on_c, 0, 42, 75
5, 21600, Note_on_c, 0, 42, 0
5, 21600, Note_on_c, 0, 35, 75
5, 22560, Note_on_c, 0, 35, 0
5, 22560, Note_on_c, 0, 47, 62
5, 23040, Note_on_c, 0, 47, 0
5, 23040, Note_on_c, 0, 28, 62
5, 24000, Note_on_c, 0, 28, 0
5, 24000, Note_on_c, 0, 40, 62
5, 24480, Note_on_c, 0, 40, 0
5, 24480, Note_on_c, 0, 28, 62
5, 25440, Note_on_c, 0, 28, 0
5, 25440, Note_on_c, 0, 40, 62
5, 25920, Note_on_c, 0, 40, 0
5, 25920, Note_on_c, 0, 28, 62
5, 26880, Note_on_c, 0, 28, 0
5, 26880, Note_on_c, 0, 40, 62
5, 27360, Note_on_c, 0, 40, 0
5, 27360, Note_on_c, 0, 28, 62
5, 28320, Note_on_c, 0, 28, 0
5, 28320, Note_on_c, 0, 40, 62
5, 28800, Note_on_c, 0, 40, 0
5, 28800, Note_on_c, 0, 28, 62
5, 29760, Note_on_c, 0, 28, 0
5, 29760, Note_on_c, 0, 40, 62
5, 30240, Note_on_c, 0, 40, 0
5, 30240, Note_on_c, 0, 27, 62
5, 30240, Note_on_c, 0, 39, 62
5, 31200, Note_on_c, 0, 39, 0
5, 31200, Note_on_c, 0, 27, 0
5, 31200, Note_on_c, 0, 26, 62
5, 31200, Note_on_c, 0, 38, 62
5, 31680, Note_on_c, 0, 38, 0
5, 31680, Note_on_c, 0, 26, 0
5, 31680, Note_on_c, 0, 25, 62
5, 31680, Note_on_c, 0, 37, 62
5, 32640, Note_on_c, 0, 37, 0
5, 32640, Note_on_c, 0, 25, 0
5, 32640, Note_on_c, 0, 49, 62
5, 33120, Note_on_c, 0, 49, 0
5, 33120, Note_on_c, 0, 37, 62
5, 34080, Note_on_c, 0, 37, 0
5, 34080, Note_on_c, 0, 49, 62
5, 34560, Note_on_c, 0, 49, 0
5, 34560, Note_on_c, 0, 37, 62
5, 35520, Note_on_c, 0, 37, 0
5, 35520, Note_on_c, 0, 49, 62
5, 36000, Note_on_c, 0, 49, 0
5, 36000, Note_on_c, 0, 37, 62
5, 36960, Note_on_c, 0, 37, 0
5, 36960, Note_on_c, 0, 25, 62
5, 36960, Note_on_c, 0, 37, 62
5, 37440, Note_on_c, 0, 37, 0
5, 37440, Note_on_c, 0, 25, 0
5, 37440, Note_on_c, 0, 26, 62
5, 37440, Note_on_c, 0, 38, 62
5, 38400, Note_on_c, 0, 38, 0
5, 38400, Note_on_c, 0, 26, 0
5, 38400, Note_on_c, 0, 26, 62
5, 38400, Note_on_c, 0, 38, 62
5, 38880, Note_on_c, 0, 38, 0
5, 38880, Note_on_c, 0, 26, 0
5, 38880, Note_on_c, 0, 28, 62
5, 38880, Note_on_c, 0, 40, 62
5, 39840, Note_on_c, 0, 40, 0
5, 39840, Note_on_c, 0, 28, 0
5, 39840, Note_on_c, 0, 28, 62
5, 39840, Note_on_c, 0, 40, 62
5, 40320, Note_on_c, 0, 40, 0
5, 40320, Note_on_c, 0, 28, 0
5, 40320, Note_on_c, 0, 33, 62
5, 41280, Note_on_c, 0, 33, 0
5, 41280, Note_on_c, 0, 45, 62
5, 41760, Note_on_c, 0, 45, 0
5, 41760, Note_on_c, 0, 33, 62
5, 42720, Note_on_c, 0, 33, 0
5, 42720, Note_on_c, 0, 45, 62
5, 43200, Note_on_c, 0, 45, 0
5, 43200, Note_on_c, 0, 32, 62
5, 44160, Note_on_c, 0, 32, 0
5, 44160, Note_on_c, 0, 44, 62
5, 44640, Note_on_c, 0, 44, 0
5, 44640, Note_on_c, 0, 25, 62
5, 44640, Note_on_c, 0, 37, 62
5, 45600, Note_on_c, 0, 37, 0
5, 45600, Note_on_c, 0, 25, 0
5, 45600, Note_on_c, 0, 37, 75
5, 46080, Note_on_c, 0, 37, 0
5, 46080, Note_on_c, 0, 37, 75
5, 47040, Note_on_c, 0, 37, 0
5, 47040, Note_on_c, 0, 49, 75
5, 47520, Note_on_c, 0, 49, 0
5, 47520, Note_on_c, 0, 30, 75
5, 47520, Note_on_c, 0, 42, 75
5, 48480, Note_on_c, 0, 42, 0
5, 48480, Note_on_c, 0, 30, 0
5, 48480, Note_on_c, 0, 31, 75
5, 48480, Note_on_c, 0, 43, 75
5, 49440, Note_on_c, 0, 43, 0
5, 49440, Note_on_c, 0, 31, 0
5, 49440, Note_on_c, 0, 32, 75
5, 49440, Note_on_c, 0, 44, 75
5, 50400, Note_on_c, 0, 44, 0
5, 50400, Note_on_c, 0, 32, 0
5, 50400, Note_on_c, 0, 32, 75
5, 51360, Note_on_c, 0, 32, 0
5, 51360, Note_on_c, 0, 44, 62
5, 51840, Note_on_c, 0, 44, 0
5, 51840, Control_c, 0, 64, 127
5, 51840, Note_on_c, 0, 37, 62
5, 52800, Note_on_c, 0, 37, 0
5, 52800, Note_on_c, 0, 49, 62
5, 53280, Note_on_c, 0, 49, 0
5, 53280, Note_on_c, 0, 37, 62
5, 54240, Note_on_c, 0, 37, 0
5, 54240, Control_c, 0, 64, 0
5, 54240, Note_on_c, 0, 49, 62
5, 54720, Note_on_c, 0, 49, 0
5, 54720, Control_c, 0, 64, 127
5, 54720, Note_on_c, 0, 37, 62
5, 55680, Note_on_c, 0, 37, 0
5, 55680, Note_on_c, 0, 49, 62
5, 56160, Note_on_c, 0, 49, 0
5, 56160, Note_on_c, 0, 37, 62
5, 57120, Note_on_c, 0, 37, 0
5, 57120, Control_c, 0, 64, 0
5, 57120, Note_on_c, 0, 49, 62
5, 57600, Note_on_c, 0, 49, 0
5, 57600, Control_c, 0, 64, 127
5, 57600, Note_on_c, 0, 37, 62
5, 58560, Note_on_c, 0, 37, 0
5, 58560, Note_on_c, 0, 25, 62
5, 59040, Note_on_c, 0, 25, 0
5, 59040, Note_on_c, 0, 37, 62
5, 60000, Note_on_c, 0, 37, 0
5, 60000, Control_c, 0, 64, 0
5, 60000, Note_on_c, 0, 25, 62
5, 60480, Note_on_c, 0, 25, 0
5, 60480, Note_on_c, 0, 28, 62
5, 61440, Note_on_c, 0, 28, 0
5, 61440, Note_on_c, 0, 40, 62
5, 61920, Note_on_c, 0, 40, 0
5, 61920, Note_on_c, 0, 28, 62
5, 62880, Note_on_c, 0, 28, 0
5, 62880, Note_on_c, 0, 40, 62
5, 63360, Note_on_c, 0, 40, 0
5, 63360, Note_on_c, 0, 28, 62
5, 64320, Note_on_c, 0, 28, 0
5, 64320, Note_on_c, 0, 40, 62
5, 64800, Note_on_c, 0, 40, 0
5, 64800, Note_on_c, 0, 28, 62
5, 65760, Note_on_c, 0, 28, 0
5, 65760, Note_on_c, 0, 40, 62
5, 66240, Note_on_c, 0, 40, 0
5, 66240, Note_on_c, 0, 28, 62
5, 67200, Note_on_c, 0, 28, 0
5, 67200, Note_on_c, 0, 40, 62
5, 67680, Note_on_c, 0, 40, 0
5, 67680, Note_on_c, 0, 27, 62
5, 67680, Note_on_c, 0, 39, 62
5, 68640, Note_on_c, 0, 39, 0
5, 68640, Note_on_c, 0, 27, 0
5, 68640, Note_on_c, 0, 26, 62
5, 68640, Note_on_c, 0, 38, 62
5, 69120, Note_on_c, 0, 38, 0
5, 69120, Note_on_c, 0, 26, 0
5, 69120, Note_on_c, 0, 25, 62
5, 69120, Note_on_c, 0, 37, 62
5, 70080, Note_on_c, 0, 37, 0
5, 70080, Note_on_c, 0, 25, 0
5, 70080, Note_on_c, 0, 49, 62
5, 70560, Note_on_c, 0, 49, 0
5, 70560, Note_on_c, 0, 37, 62
5, 71520, Note_on_c, 0, 37, 0
5, 71520, Note_on_c, 0, 49, 62
5, 72000, Note_on_c, 0, 49, 0
5, 72000, Note_on_c, 0, 37, 62
5, 72960, Note_on_c, 0, 37, 0
5, 72960, Note_on_c, 0, 49, 62
5, 73440, Note_on_c, 0, 49, 0
5, 73440, Note_on_c, 0, 37, 62
5, 74400, Note_on_c, 0, 37, 0
5, 74400, Note_on_c, 0, 25, 62
5, 74400, Note_on_c, 0, 37, 62
5, 74880, Note_on_c, 0, 37, 0
5, 74880, Note_on_c, 0, 25, 0
5, 74880, Note_on_c, 0, 26, 62
5, 74880, Note_on_c, 0, 38, 62
5, 75840, Note_on_c, 0, 38, 0
5, 75840, Note_on_c, 0, 26, 0
5, 75840, Note_on_c, 0, 26, 62
5, 75840, Note_on_c, 0, 38, 62
5, 76320, Note_on_c, 0, 38, 0
5, 76320, Note_on_c, 0, 26, 0
5, 76320, Note_on_c, 0, 28, 62
5, 76320, Note_on_c, 0, 40, 62
5, 77280, Note_on_c, 0, 40, 0
5, 77280, Note_on_c, 0, 28, 0
5, 77280, Note_on_c, 0, 28, 62
5, 77280, Note_on_c, 0, 40, 62
5, 77760, Note_on_c, 0, 40, 0
5, 77760, Note_on_c, 0, 28, 0
5, 77760, Note_on_c, 0, 33, 62
5, 78720, Note_on_c, 0, 33, 0
5, 78720, Note_on_c, 0, 45, 62
5, 79200, Note_on_c, 0, 45, 0
5, 79200, Note_on_c, 0, 33, 62
5, 80160, Note_on_c, 0, 33, 0
5, 80160, Note_on_c, 0, 45, 62
5, 80640, Note_on_c, 0, 45, 0
5, 80640, Note_on_c, 0, 32, 62
5, 81600, Note_on_c, 0, 32, 0
5, 81600, Note_on_c, 0, 44, 62
5, 82080, Note_on_c, 0, 44, 0
5, 82080, Note_on_c, 0, 25, 62
5, 82080, Note_on_c, 0, 37, 62
5, 83040, Note_on_c, 0, 37, 0
5, 83040, Note_on_c, 0, 25, 0
5, 83040, Note_on_c, 0, 37, 75
5, 83520, Note_on_c, 0, 37, 0
5, 83520, Note_on_c, 0, 37, 75
5, 84480, Note_on_c, 0, 37, 0
5, 84480, Note_on_c, 0, 49, 75
5, 84960, Note_on_c, 0, 49, 0
5, 84960, Note_on_c, 0, 30, 75
5, 84960, Note_on_c, 0, 42, 75
5, 85920, Note_on_c, 0, 42, 0
5, 85920, Note_on_c, 0, 30, 0
5, 85920, Note_on_c, 0, 31, 75
5, 85920, Note_on_c, 0, 43, 75
5, 86880, Note_on_c, 0, 43, 0
5, 86880, Note_on_c, 0, 31, 0
5, 86880, Note_on_c, 0, 32, 75
5, 86880, Note_on_c, 0, 44, 75
5, 87840, Note_on_c, 0, 44, 0
5, 87840, Note_on_c, 0, 32, 0
5, 87840, Note_on_c, 0, 32, 75
5, 88800, Note_on_c, 0, 32, 0
5, 88800, Note_on_c, 0, 44, 62
5, 89280, Note_on_c, 0, 44, 0
5, 89280, Control_c, 0, 64, 127
5, 89280, Note_on_c, 0, 37, 62
5, 90240, Note_on_c, 0, 37, 0
5, 90240, Note_on_c, 0, 49, 62
5, 90720, Note_on_c, 0, 49, 0
5, 90720, Note_on_c, 0, 37, 62
5, 91680, Note_on_c, 0, 37, 0
5, 91680, Control_c, 0, 64, 0
5, 91680, Note_on_c, 0, 49, 62
5, 92160, Note_on_c, 0, 49, 0
5, 92160, Control_c, 0, 64, 127
5, 92160, Note_on_c, 0, 37, 62
5, 93120, Note_on_c, 0, 37, 0
5, 93120, Note_on_c, 0, 49, 62
5, 93600, Note_on_c, 0, 49, 0
5, 93600, Note_on_c, 0, 37, 62
5, 94560, Note_on_c, 0, 37, 0
5, 94560, Control_c, 0, 64, 0
5, 94560, Note_on_c, 0, 49, 62
5, 95040, Note_on_c, 0, 49, 0
5, 95040, Control_c, 0, 64, 127
5, 95040, Note_on_c, 0, 37, 62
5, 96000, Note_on_c, 0, 37, 0
5, 96000, Note_on_c, 0, 25, 62
5, 96480, Note_on_c, 0, 25, 0
5, 96480, Note_on_c, 0, 37, 62
5, 97440, Note_on_c, 0, 37, 0
5, 97440, Control_c, 0, 64, 0
5, 97440, Note_on_c, 0, 25, 62
5, 97920, Note_on_c, 0, 25, 0
5, 97920, Note_on_c, 0, 25, 62
5, 97920, Note_on_c, 0, 37, 62
5, 99360, Note_on_c, 0, 37, 0
5, 99360, Note_on_c, 0, 25, 0
5, 99360, Note_on_c, 0, 25, 62
5, 99360, Note_on_c, 0, 37, 62
5, 99840, Note_on_c, 0, 37, 0
5, 99840, Note_on_c, 0, 25, 0
5, 99840, End_track
0, 0, End_of_file
