0, 0, Header, 1, 5, 480
1, 0, Start_track
1, 0, Title_t, "brahms waltzes oop39 no12 4hands"
1, 0, Copyright_t, "Segundo G. Yogore,  2004,  dody@info.com.ph \012__________________________________________________________\012Kunst der Fuge comment: this is the Contributor's property.\012Can *not* be used for commercial purposes without authorization!\012Copyright by Contributor - Kunst der Fuge, © 2002-05\012http://www.kunstderfuge.com/thanks.htm -> Contributors' list\012http://www.kunstderfuge.com/notes.htm -> Terms & conditions"
1, 0, Text_t, "sequenced by Segundo G. Yogore,  2004\012"
1, 0, Time_signature, 1, 2, 24, 8
1, 0, Key_signature, 4, "major"
1, 0, Tempo, 315789
1, 480, Time_signature, 3, 2, 24, 8
1, 16320, Time_signature, 2, 2, 24, 8
1, 17280, Time_signature, 1, 2, 24, 8
1, 17280, Tempo, 315789
1, 17760, Time_signature, 3, 2, 24, 8
1, 33600, Time_signature, 2, 2, 24, 8
1, 34560, Time_signature, 1, 2, 24, 8
1, 34560, Tempo, 315789
1, 35040, Time_signature, 3, 2, 24, 8
1, 59760, Tempo, 320856
1, 60000, Tempo, 326087
1, 60240, Tempo, 331492
1, 60480, Tempo, 338983
1, 60720, Tempo, 344828
1, 60960, Tempo, 350877
1, 61200, Tempo, 357143
1, 61440, Tempo, 365854
1, 62400, Time_signature, 2, 2, 24, 8
1, 63360, Time_signature, 1, 2, 24, 8
1, 63360, Tempo, 315789
1, 63840, Time_signature, 3, 2, 24, 8
1, 88560, Tempo, 320856
1, 88800, Tempo, 326087
1, 89040, Tempo, 331492
1, 89280, Tempo, 338983
1, 89520, Tempo, 344828
1, 89760, Tempo, 350877
1, 90000, Tempo, 357143
1, 90240, Tempo, 365854
1, 91200, Time_signature, 2, 2, 24, 8
1, 92160, Time_signature, 3, 2, 24, 8
1, 92160, End_track
2, 0, Start_track
2, 0, Title_t, "Grand Piano"
2, 0, Program_c, 0, 0
2, 0, Control_c, 0, 7, 115
2, 0, Control_c, 0, 10, 95
2, 0, Note_on_c, 0, 68, 62
2, 480, Note_on_c, 0, 68, 0
2, 480, Note_on_c, 0, 66, 62
2, 960, Note_on_c, 0, 66, 0
2, 1440, Note_on_c, 0, 69, 62
2, 1920, Note_on_c, 0, 69, 0
2, 1920, Note_on_c, 0, 68, 62
2, 2400, Note_on_c, 0, 68, 0
2, 2880, Control_c, 0, 64, 127
2, 2880, Note_on_c, 0, 71, 62
2, 3360, Note_on_c, 0, 71, 0
2, 3360, Note_on_c, 0, 69, 62
2, 3600, Note_on_c, 0, 69, 0
2, 3600, Note_on_c, 0, 68, 62
2, 3840, Note_on_c, 0, 68, 0
2, 3840, Note_on_c, 0, 66, 62
2, 4320, Note_on_c, 0, 66, 0
2, 4320, Control_c, 0, 64, 0
2, 4320, Note_on_c, 0, 68, 62
2, 4800, Note_on_c, 0, 68, 0
2, 4800, Note_on_c, 0, 59, 62
2, 5760, Note_on_c, 0, 59, 0
2, 5760, Note_on_c, 0, 68, 62
2, 6240, Note_on_c, 0, 68, 0
2, 6240, Note_on_c, 0, 71, 62
2, 7200, Note_on_c, 0, 71, 0
2, 7200, Note_on_c, 0, 71, 62
2, 7680, Note_on_c, 0, 76, 75
2, 8640, Note_on_c, 0, 76, 0
2, 8640, Note_on_c, 0, 71, 0
2, 8640, Note_on_c, 0, 76, 75
2, 9120, Note_on_c, 0, 78, 75
2, 10080, Note_on_c, 0, 78, 0
2, 10080, Note_on_c, 0, 76, 0
2, 10080, Control_c, 0, 64, 127
2, 10080, Note_on_c, 0, 73, 75
2, 10080, Note_on_c, 0, 76, 75
2, 10800, Note_on_c, 0, 76, 0
2, 10800, Note_on_c, 0, 73, 0
2, 10800, Note_on_c, 0, 71, 75
2, 10800, Note_on_c, 0, 75, 75
2, 11040, Note_on_c, 0, 75, 0
2, 11040, Note_on_c, 0, 71, 0
2, 11040, Note_on_c, 0, 70, 75
2, 11040, Note_on_c, 0, 73, 75
2, 11280, Note_on_c, 0, 73, 0
2, 11280, Note_on_c, 0, 70, 0
2, 11280, Control_c, 0, 64, 0
2, 11280, Note_on_c, 0, 71, 75
2, 11280, Note_on_c, 0, 75, 75
2, 11520, Note_on_c, 0, 75, 0
2, 11520, Note_on_c, 0, 71, 0
2, 11520, Note_on_c, 0, 78, 75
2, 12000, Control_c, 0, 64, 127
2, 12000, Note_on_c, 0, 80, 75
2, 12240, Note_on_c, 0, 80, 0
2, 12240, Note_on_c, 0, 78, 0
2, 12240, Note_on_c, 0, 76, 75
2, 12480, Note_on_c, 0, 76, 0
2, 12480, Note_on_c, 0, 75, 75
2, 12720, Note_on_c, 0, 75, 0
2, 12720, Control_c, 0, 64, 0
2, 12720, Note_on_c, 0, 76, 75
2, 12960, Note_on_c, 0, 76, 0
2, 12960, Control_c, 0, 64, 127
2, 12960, Note_on_c, 0, 76, 75
2, 12960, Note_on_c, 0, 83, 75
2, 13680, Note_on_c, 0, 83, 0
2, 13680, Note_on_c, 0, 76, 0
2, 13680, Note_on_c, 0, 82, 75
2, 13920, Note_on_c, 0, 82, 0
2, 13920, Note_on_c, 0, 80, 75
2, 14160, Note_on_c, 0, 80, 0
2, 14160, Control_c, 0, 64, 0
2, 14160, Note_on_c, 0, 82, 75
2, 14400, Note_on_c, 0, 82, 0
2, 14400, Control_c, 0, 64, 127
2, 14400, Note_on_c, 0, 82, 88
2, 14400, Note_on_c, 0, 88, 88
2, 14880, Note_on_c, 0, 82, 0
2, 14880, Note_on_c, 0, 81, 88
2, 15120, Note_on_c, 0, 81, 0
2, 15120, Note_on_c, 0, 88, 0
2, 15120, Note_on_c, 0, 83, 88
2, 15120, Note_on_c, 0, 87, 88
2, 15360, Note_on_c, 0, 87, 0
2, 15360, Note_on_c, 0, 83, 0
2, 15360, Note_on_c, 0, 82, 75
2, 15360, Note_on_c, 0, 85, 75
2, 15600, Note_on_c, 0, 85, 0
2, 15600, Note_on_c, 0, 82, 0
2, 15600, Control_c, 0, 64, 0
2, 15600, Note_on_c, 0, 83, 75
2, 15600, Note_on_c, 0, 87, 75
2, 15840, Note_on_c, 0, 87, 0
2, 15840, Note_on_c, 0, 83, 0
2, 15840, Note_on_c, 0, 83, 75
2, 16320, Note_on_c, 0, 83, 0
2, 17280, Note_on_c, 0, 68, 62
2, 17760, Note_on_c, 0, 68, 0
2, 17760, Note_on_c, 0, 66, 62
2, 18240, Note_on_c, 0, 66, 0
2, 18720, Note_on_c, 0, 69, 62
2, 19200, Note_on_c, 0, 69, 0
2, 19200, Note_on_c, 0, 68, 62
2, 19680, Note_on_c, 0, 68, 0
2, 20160, Control_c, 0, 64, 127
2, 20160, Note_on_c, 0, 71, 62
2, 20640, Note_on_c, 0, 71, 0
2, 20640, Note_on_c, 0, 69, 62
2, 20880, Note_on_c, 0, 69, 0
2, 20880, Note_on_c, 0, 68, 62
2, 21120, Note_on_c, 0, 68, 0
2, 21120, Note_on_c, 0, 66, 62
2, 21600, Note_on_c, 0, 66, 0
2, 21600, Control_c, 0, 64, 0
2, 21600, Note_on_c, 0, 68, 62
2, 22080, Note_on_c, 0, 68, 0
2, 22080, Note_on_c, 0, 59, 62
2, 23040, Note_on_c, 0, 59, 0
2, 23040, Note_on_c, 0, 68, 62
2, 23520, Note_on_c, 0, 68, 0
2, 23520, Note_on_c, 0, 71, 62
2, 24480, Note_on_c, 0, 71, 0
2, 24480, Note_on_c, 0, 71, 62
2, 24960, Note_on_c, 0, 76, 75
2, 25920, Note_on_c, 0, 76, 0
2, 25920, Note_on_c, 0, 71, 0
2, 25920, Note_on_c, 0, 76, 75
2, 26400, Note_on_c, 0, 78, 75
2, 27360, Note_on_c, 0, 78, 0
2, 27360, Note_on_c, 0, 76, 0
2, 27360, Control_c, 0, 64, 127
2, 27360, Note_on_c, 0, 73, 75
2, 27360, Note_on_c, 0, 76, 75
2, 28080, Note_on_c, 0, 76, 0
2, 28080, Note_on_c, 0, 73, 0
2, 28080, Note_on_c, 0, 71, 75
2, 28080, Note_on_c, 0, 75, 75
2, 28320, Note_on_c, 0, 75, 0
2, 28320, Note_on_c, 0, 71, 0
2, 28320, Note_on_c, 0, 70, 75
2, 28320, Note_on_c, 0, 73, 75
2, 28560, Note_on_c, 0, 73, 0
2, 28560, Note_on_c, 0, 70, 0
2, 28560, Control_c, 0, 64, 0
2, 28560, Note_on_c, 0, 71, 75
2, 28560, Note_on_c, 0, 75, 75
2, 28800, Note_on_c, 0, 75, 0
2, 28800, Note_on_c, 0, 71, 0
2, 28800, Note_on_c, 0, 78, 75
2, 29280, Control_c, 0, 64, 127
2, 29280, Note_on_c, 0, 80, 75
2, 29520, Note_on_c, 0, 80, 0
2, 29520, Note_on_c, 0, 78, 0
2, 29520, Note_on_c, 0, 76, 75
2, 29760, Note_on_c, 0, 76, 0
2, 29760, Note_on_c, 0, 75, 75
2, 30000, Note_on_c, 0, 75, 0
2, 30000, Control_c, 0, 64, 0
2, 30000, Note_on_c, 0, 76, 75
2, 30240, Note_on_c, 0, 76, 0
2, 30240, Control_c, 0, 64, 127
2, 30240, Note_on_c, 0, 76, 75
2, 30240, Note_on_c, 0, 83, 75
2, 30960, Note_on_c, 0, 83, 0
2, 30960, Note_on_c, 0, 76, 0
2, 30960, Note_on_c, 0, 82, 75
2, 31200, Note_on_c, 0, 82, 0
2, 31200, Note_on_c, 0, 80, 75
2, 31440, Note_on_c, 0, 80, 0
2, 31440, Control_c, 0, 64, 0
2, 31440, Note_on_c, 0, 82, 75
2, 31680, Note_on_c, 0, 82, 0
2, 31680, Control_c, 0, 64, 127
2, 31680, Note_on_c, 0, 82, 88
2, 31680, Note_on_c, 0, 88, 88
2, 32160, Note_on_c, 0, 82, 0
2, 32160, Note_on_c, 0, 81, 88
2, 32400, Note_on_c, 0, 81, 0
2, 32400, Note_on_c, 0, 88, 0
2, 32400, Note_on_c, 0, 83, 88
2, 32400, Note_on_c, 0, 87, 88
2, 32640, Note_on_c, 0, 87, 0
2, 32640, Note_on_c, 0, 83, 0
2, 32640, Note_on_c, 0, 82, 75
2, 32640, Note_on_c, 0, 85, 75
2, 32880, Note_on_c, 0, 85, 0
2, 32880, Note_on_c, 0, 82, 0
2, 32880, Control_c, 0, 64, 0
2, 32880, Note_on_c, 0, 83, 75
2, 32880, Note_on_c, 0, 87, 75
2, 33120, Note_on_c, 0, 87, 0
2, 33120, Note_on_c, 0, 83, 0
2, 33120, Note_on_c, 0, 83, 75
2, 33600, Note_on_c, 0, 83, 0
2, 34560, Note_on_c, 0, 67, 62
2, 35040, Note_on_c, 0, 67, 0
2, 35040, Note_on_c, 0, 66, 62
2, 35520, Note_on_c, 0, 66, 0
2, 36000, Note_on_c, 0, 69, 62
2, 36480, Note_on_c, 0, 69, 0
2, 36480, Note_on_c, 0, 67, 62
2, 36960, Note_on_c, 0, 67, 0
2, 37440, Note_on_c, 0, 67, 62
2, 37920, Note_on_c, 0, 67, 0
2, 37920, Note_on_c, 0, 66, 62
2, 38400, Note_on_c, 0, 66, 0
2, 38880, Note_on_c, 0, 69, 62
2, 39360, Note_on_c, 0, 69, 0
2, 39360, Note_on_c, 0, 67, 62
2, 39840, Note_on_c, 0, 67, 0
2, 40320, Note_on_c, 0, 67, 62
2, 41280, Note_on_c, 0, 67, 0
2, 41760, Note_on_c, 0, 65, 62
2, 42720, Note_on_c, 0, 65, 0
2, 43200, Note_on_c, 0, 60, 62
2, 44640, Note_on_c, 0, 60, 0
2, 44640, Note_on_c, 0, 58, 62
2, 45120, Note_on_c, 0, 58, 0
2, 45120, Note_on_c, 0, 57, 62
2, 45600, Note_on_c, 0, 57, 0
2, 46080, Note_on_c, 0, 57, 62
2, 47040, Note_on_c, 0, 57, 0
2, 47520, Note_on_c, 0, 64, 75
2, 48000, Note_on_c, 0, 64, 0
2, 48000, Note_on_c, 0, 63, 75
2, 48480, Note_on_c, 0, 63, 0
2, 48960, Control_c, 0, 64, 127
2, 48960, Note_on_c, 0, 68, 101
2, 49440, Note_on_c, 0, 68, 0
2, 49440, Note_on_c, 0, 66, 75
2, 49680, Note_on_c, 0, 66, 0
2, 49680, Note_on_c, 0, 64, 75
2, 49920, Note_on_c, 0, 64, 0
2, 49920, Note_on_c, 0, 63, 75
2, 50400, Note_on_c, 0, 63, 0
2, 50400, Control_c, 0, 64, 0
2, 50400, Note_on_c, 0, 64, 75
2, 50880, Note_on_c, 0, 64, 0
2, 50880, Note_on_c, 0, 59, 75
2, 51840, Note_on_c, 0, 59, 0
2, 51840, Note_on_c, 0, 61, 75
2, 52320, Note_on_c, 0, 61, 0
2, 52320, Note_on_c, 0, 62, 75
2, 53280, Note_on_c, 0, 62, 0
2, 53280, Note_on_c, 0, 64, 75
2, 53760, Note_on_c, 0, 69, 75
2, 54720, Note_on_c, 0, 69, 0
2, 54720, Note_on_c, 0, 64, 0
2, 54720, Note_on_c, 0, 69, 75
2, 55200, Note_on_c, 0, 69, 0
2, 55200, Note_on_c, 0, 74, 75
2, 56160, Note_on_c, 0, 74, 0
2, 56160, Note_on_c, 0, 74, 75
2, 56880, Note_on_c, 0, 74, 0
2, 56880, Note_on_c, 0, 73, 75
2, 57120, Note_on_c, 0, 73, 0
2, 57120, Note_on_c, 0, 71, 75
2, 57360, Note_on_c, 0, 71, 0
2, 57360, Note_on_c, 0, 73, 75
2, 57600, Note_on_c, 0, 73, 0
2, 57600, Note_on_c, 0, 76, 75
2, 57600, Note_on_c, 0, 81, 75
2, 58320, Note_on_c, 0, 81, 0
2, 58320, Note_on_c, 0, 76, 0
2, 58320, Note_on_c, 0, 80, 75
2, 58560, Note_on_c, 0, 80, 0
2, 58560, Note_on_c, 0, 78, 75
2, 58800, Note_on_c, 0, 78, 0
2, 58800, Note_on_c, 0, 80, 75
2, 59040, Note_on_c, 0, 80, 0
2, 59040, Note_on_c, 0, 83, 88
2, 59520, Note_on_c, 0, 85, 88
2, 59760, Note_on_c, 0, 85, 0
2, 59760, Note_on_c, 0, 83, 0
2, 59760, Note_on_c, 0, 81, 88
2, 60000, Note_on_c, 0, 81, 0
2, 60000, Note_on_c, 0, 80, 88
2, 60240, Note_on_c, 0, 80, 0
2, 60240, Note_on_c, 0, 81, 88
2, 60480, Note_on_c, 0, 81, 0
2, 60480, Note_on_c, 0, 81, 88
2, 60480, Note_on_c, 0, 88, 88
2, 61440, Note_on_c, 0, 88, 0
2, 61440, Note_on_c, 0, 81, 0
2, 61440, Note_on_c, 0, 81, 88
2, 61440, Note_on_c, 0, 87, 88
2, 61680, Note_on_c, 0, 87, 0
2, 61680, Note_on_c, 0, 81, 0
2, 61680, Note_on_c, 0, 80, 88
2, 61680, Note_on_c, 0, 85, 88
2, 61920, Note_on_c, 0, 85, 0
2, 61920, Note_on_c, 0, 80, 0
2, 61920, Note_on_c, 0, 81, 88
2, 61920, Note_on_c, 0, 87, 88
2, 62400, Note_on_c, 0, 87, 0
2, 62400, Note_on_c, 0, 81, 0
2, 62400, Note_on_c, 0, 80, 88
2, 62400, Note_on_c, 0, 88, 88
2, 63360, Note_on_c, 0, 88, 0
2, 63360, Note_on_c, 0, 80, 0
2, 63360, Note_on_c, 0, 67, 62
2, 63840, Note_on_c, 0, 67, 0
2, 63840, Note_on_c, 0, 66, 62
2, 64320, Note_on_c, 0, 66, 0
2, 64800, Note_on_c, 0, 69, 62
2, 65280, Note_on_c, 0, 69, 0
2, 65280, Note_on_c, 0, 67, 62
2, 65760, Note_on_c, 0, 67, 0
2, 66240, Note_on_c, 0, 67, 62
2, 66720, Note_on_c, 0, 67, 0
2, 66720, Note_on_c, 0, 66, 62
2, 67200, Note_on_c, 0, 66, 0
2, 67680, Note_on_c, 0, 69, 62
2, 68160, Note_on_c, 0, 69, 0
2, 68160, Note_on_c, 0, 67, 62
2, 68640, Note_on_c, 0, 67, 0
2, 69120, Note_on_c, 0, 67, 62
2, 70080, Note_on_c, 0, 67, 0
2, 70560, Note_on_c, 0, 65, 62
2, 71520, Note_on_c, 0, 65, 0
2, 72000, Note_on_c, 0, 60, 62
2, 73440, Note_on_c, 0, 60, 0
2, 73440, Note_on_c, 0, 58, 62
2, 73920, Note_on_c, 0, 58, 0
2, 73920, Note_on_c, 0, 57, 62
2, 74400, Note_on_c, 0, 57, 0
2, 74880, Note_on_c, 0, 57, 62
2, 75840, Note_on_c, 0, 57, 0
2, 76320, Note_on_c, 0, 64, 75
2, 76800, Note_on_c, 0, 64, 0
2, 76800, Note_on_c, 0, 63, 75
2, 77280, Note_on_c, 0, 63, 0
2, 77760, Control_c, 0, 64, 127
2, 77760, Note_on_c, 0, 68, 101
2, 78240, Note_on_c, 0, 68, 0
2, 78240, Note_on_c, 0, 66, 75
2, 78480, Note_on_c, 0, 66, 0
2, 78480, Note_on_c, 0, 64, 75
2, 78720, Note_on_c, 0, 64, 0
2, 78720, Note_on_c, 0, 63, 75
2, 79200, Note_on_c, 0, 63, 0
2, 79200, Control_c, 0, 64, 0
2, 79200, Note_on_c, 0, 64, 75
2, 79680, Note_on_c, 0, 64, 0
2, 79680, Note_on_c, 0, 59, 75
2, 80640, Note_on_c, 0, 59, 0
2, 80640, Note_on_c, 0, 61, 75
2, 81120, Note_on_c, 0, 61, 0
2, 81120, Note_on_c, 0, 62, 75
2, 82080, Note_on_c, 0, 62, 0
2, 82080, Note_on_c, 0, 64, 75
2, 82560, Note_on_c, 0, 69, 75
2, 83520, Note_on_c, 0, 69, 0
2, 83520, Note_on_c, 0, 64, 0
2, 83520, Note_on_c, 0, 69, 75
2, 84000, Note_on_c, 0, 69, 0
2, 84000, Note_on_c, 0, 74, 75
2, 84960, Note_on_c, 0, 74, 0
2, 84960, Note_on_c, 0, 74, 75
2, 85680, Note_on_c, 0, 74, 0
2, 85680, Note_on_c, 0, 73, 75
2, 85920, Note_on_c, 0, 73, 0
2, 85920, Note_on_c, 0, 71, 75
2, 86160, Note_on_c, 0, 71, 0
2, 86160, Note_on_c, 0, 73, 75
2, 86400, Note_on_c, 0, 73, 0
2, 86400, Note_on_c, 0, 76, 75
2, 86400, Note_on_c, 0, 81, 75
2, 87120, Note_on_c, 0, 81, 0
2, 87120, Note_on_c, 0, 76, 0
2, 87120, Note_on_c, 0, 80, 75
2, 87360, Note_on_c, 0, 80, 0
2, 87360, Note_on_c, 0, 78, 75
2, 87600, Note_on_c, 0, 78, 0
2, 87600, Note_on_c, 0, 80, 75
2, 87840, Note_on_c, 0, 80, 0
2, 87840, Note_on_c, 0, 83, 88
2, 88320, Note_on_c, 0, 85, 88
2, 88560, Note_on_c, 0, 85, 0
2, 88560, Note_on_c, 0, 83, 0
2, 88560, Note_on_c, 0, 81, 88
2, 88800, Note_on_c, 0, 81, 0
2, 88800, Note_on_c, 0, 80, 88
2, 89040, Note_on_c, 0, 80, 0
2, 89040, Note_on_c, 0, 81, 88
2, 89280, Note_on_c, 0, 81, 0
2, 89280, Note_on_c, 0, 81, 88
2, 89280, Note_on_c, 0, 88, 88
2, 90240, Note_on_c, 0, 88, 0
2, 90240, Note_on_c, 0, 81, 0
2, 90240, Note_on_c, 0, 81, 88
2, 90240, Note_on_c, 0, 87, 88
2, 90480, Note_on_c, 0, 87, 0
2, 90480, Note_on_c, 0, 81, 0
2, 90480, Note_on_c, 0, 80, 88
2, 90480, Note_on_c, 0, 85, 88
2, 90720, Note_on_c, 0, 85, 0
2, 90720, Note_on_c, 0, 80, 0
2, 90720, Note_on_c, 0, 81, 88
2, 90720, Note_on_c, 0, 87, 88
2, 91200, Note_on_c, 0, 87, 0
2, 91200, Note_on_c, 0, 81, 0
2, 91200, Note_on_c, 0, 80, 88
2, 91200, Note_on_c, 0, 88, 88
2, 92160, Note_on_c, 0, 88, 0
2, 92160, Note_on_c, 0, 80, 0
2, 92160, Control_c, 0, 64, 127
2, 93120, Control_c, 0, 64, 0
2, 93120, End_track
3, 0, Start_track
3, 0, Title_t, "Instrument17"
3, 0, Program_c, 0, 0
3, 0, Control_c, 0, 7, 115
3, 0, Control_c, 0, 10, 80
3, 0, Note_on_c, 0, 59, 49
3, 0, Note_on_c, 0, 64, 49
3, 480, Note_on_c, 0, 59, 0
3, 480, Note_on_c, 0, 57, 49
3, 960, Note_on_c, 0, 57, 0
3, 960, Note_on_c, 0, 64, 0
3, 1440, Note_on_c, 0, 61, 49
3, 1440, Note_on_c, 0, 64, 49
3, 1920, Note_on_c, 0, 61, 0
3, 1920, Note_on_c, 0, 59, 49
3, 2400, Note_on_c, 0, 59, 0
3, 2400, Note_on_c, 0, 64, 0
3, 2880, Control_c, 0, 64, 127
3, 2880, Note_on_c, 0, 63, 49
3, 2880, Note_on_c, 0, 64, 49
3, 3360, Note_on_c, 0, 63, 0
3, 3360, Note_on_c, 0, 61, 49
3, 3600, Note_on_c, 0, 61, 0
3, 3600, Note_on_c, 0, 64, 0
3, 3600, Note_on_c, 0, 59, 49
3, 3840, Note_on_c, 0, 59, 0
3, 3840, Note_on_c, 0, 57, 49
3, 4320, Note_on_c, 0, 57, 0
3, 4320, Control_c, 0, 64, 0
3, 4320, Note_on_c, 0, 59, 49
3, 4320, Note_on_c, 0, 64, 49
3, 4800, Note_on_c, 0, 64, 0
3, 4800, Note_on_c, 0, 59, 0
3, 4800, Note_on_c, 0, 56, 49
3, 5760, Note_on_c, 0, 56, 0
3, 5760, Control_c, 0, 64, 127
3, 5760, Note_on_c, 0, 59, 49
3, 5760, Note_on_c, 0, 68, 49
3, 6720, Note_on_c, 0, 68, 0
3, 6720, Note_on_c, 0, 59, 0
3, 6720, Control_c, 0, 64, 0
3, 6720, Note_on_c, 0, 66, 49
3, 7200, Note_on_c, 0, 66, 0
3, 7200, Control_c, 0, 64, 127
3, 7200, Note_on_c, 0, 63, 49
3, 7200, Note_on_c, 0, 69, 49
3, 7680, Note_on_c, 0, 63, 0
3, 7680, Note_on_c, 0, 64, 62
3, 8160, Note_on_c, 0, 64, 0
3, 8160, Note_on_c, 0, 69, 0
3, 8160, Control_c, 0, 64, 0
3, 8160, Note_on_c, 0, 68, 62
3, 8640, Note_on_c, 0, 68, 0
3, 8640, Control_c, 0, 64, 127
3, 8640, Note_on_c, 0, 71, 62
3, 9360, Note_on_c, 0, 71, 0
3, 9360, Note_on_c, 0, 70, 62
3, 9600, Note_on_c, 0, 70, 0
3, 9600, Note_on_c, 0, 68, 62
3, 9840, Note_on_c, 0, 68, 0
3, 9840, Control_c, 0, 64, 0
3, 9840, Note_on_c, 0, 70, 62
3, 10080, Note_on_c, 0, 70, 0
3, 10080, Note_on_c, 0, 66, 62
3, 11520, Note_on_c, 0, 66, 0
3, 11520, Note_on_c, 0, 71, 62
3, 12960, Note_on_c, 0, 71, 0
3, 12960, Note_on_c, 0, 71, 62
3, 13440, Note_on_c, 0, 71, 0
3, 13440, Note_on_c, 0, 73, 62
3, 14400, Note_on_c, 0, 73, 0
3, 14400, Control_c, 0, 64, 127
3, 14400, Note_on_c, 0, 78, 75
3, 15360, Note_on_c, 0, 78, 0
3, 15360, Note_on_c, 0, 76, 62
3, 15600, Note_on_c, 0, 76, 0
3, 15600, Control_c, 0, 64, 0
3, 15600, Note_on_c, 0, 78, 62
3, 15840, Note_on_c, 0, 78, 0
3, 15840, Note_on_c, 0, 75, 62
3, 16320, Note_on_c, 0, 75, 0
3, 16560, Control_c, 0, 64, 127
3, 16560, Note_on_c, 0, 69, 62
3, 16800, Note_on_c, 0, 69, 0
3, 16800, Note_on_c, 0, 68, 62
3, 17040, Note_on_c, 0, 68, 0
3, 17040, Control_c, 0, 64, 0
3, 17040, Note_on_c, 0, 66, 62
3, 17280, Note_on_c, 0, 66, 0
3, 17280, Note_on_c, 0, 59, 49
3, 17280, Note_on_c, 0, 64, 49
3, 17760, Note_on_c, 0, 59, 0
3, 17760, Note_on_c, 0, 57, 49
3, 18240, Note_on_c, 0, 57, 0
3, 18240, Note_on_c, 0, 64, 0
3, 18720, Note_on_c, 0, 61, 49
3, 18720, Note_on_c, 0, 64, 49
3, 19200, Note_on_c, 0, 61, 0
3, 19200, Note_on_c, 0, 59, 49
3, 19680, Note_on_c, 0, 59, 0
3, 19680, Note_on_c, 0, 64, 0
3, 20160, Control_c, 0, 64, 127
3, 20160, Note_on_c, 0, 63, 49
3, 20160, Note_on_c, 0, 64, 49
3, 20640, Note_on_c, 0, 63, 0
3, 20640, Note_on_c, 0, 61, 49
3, 20880, Note_on_c, 0, 61, 0
3, 20880, Note_on_c, 0, 64, 0
3, 20880, Note_on_c, 0, 59, 49
3, 21120, Note_on_c, 0, 59, 0
3, 21120, Note_on_c, 0, 57, 49
3, 21600, Note_on_c, 0, 57, 0
3, 21600, Control_c, 0, 64, 0
3, 21600, Note_on_c, 0, 59, 49
3, 21600, Note_on_c, 0, 64, 49
3, 22080, Note_on_c, 0, 64, 0
3, 22080, Note_on_c, 0, 59, 0
3, 22080, Note_on_c, 0, 56, 49
3, 23040, Note_on_c, 0, 56, 0
3, 23040, Control_c, 0, 64, 127
3, 23040, Note_on_c, 0, 59, 49
3, 23040, Note_on_c, 0, 68, 49
3, 24000, Note_on_c, 0, 68, 0
3, 24000, Note_on_c, 0, 59, 0
3, 24000, Control_c, 0, 64, 0
3, 24000, Note_on_c, 0, 66, 49
3, 24480, Note_on_c, 0, 66, 0
3, 24480, Control_c, 0, 64, 127
3, 24480, Note_on_c, 0, 63, 49
3, 24480, Note_on_c, 0, 69, 49
3, 24960, Note_on_c, 0, 63, 0
3, 24960, Note_on_c, 0, 64, 62
3, 25440, Note_on_c, 0, 64, 0
3, 25440, Note_on_c, 0, 69, 0
3, 25440, Control_c, 0, 64, 0
3, 25440, Note_on_c, 0, 68, 62
3, 25920, Note_on_c, 0, 68, 0
3, 25920, Control_c, 0, 64, 127
3, 25920, Note_on_c, 0, 71, 62
3, 26640, Note_on_c, 0, 71, 0
3, 26640, Note_on_c, 0, 70, 62
3, 26880, Note_on_c, 0, 70, 0
3, 26880, Note_on_c, 0, 68, 62
3, 27120, Note_on_c, 0, 68, 0
3, 27120, Control_c, 0, 64, 0
3, 27120, Note_on_c, 0, 70, 62
3, 27360, Note_on_c, 0, 70, 0
3, 27360, Note_on_c, 0, 66, 62
3, 28800, Note_on_c, 0, 66, 0
3, 28800, Note_on_c, 0, 71, 62
3, 30240, Note_on_c, 0, 71, 0
3, 30240, Note_on_c, 0, 71, 62
3, 30720, Note_on_c, 0, 71, 0
3, 30720, Note_on_c, 0, 73, 62
3, 31680, Note_on_c, 0, 73, 0
3, 31680, Control_c, 0, 64, 127
3, 31680, Note_on_c, 0, 78, 75
3, 32640, Note_on_c, 0, 78, 0
3, 32640, Note_on_c, 0, 76, 62
3, 32880, Note_on_c, 0, 76, 0
3, 32880, Control_c, 0, 64, 0
3, 32880, Note_on_c, 0, 78, 62
3, 33120, Note_on_c, 0, 78, 0
3, 33120, Note_on_c, 0, 75, 62
3, 33600, Note_on_c, 0, 75, 0
3, 33840, Control_c, 0, 64, 127
3, 33840, Note_on_c, 0, 69, 62
3, 34080, Note_on_c, 0, 69, 0
3, 34080, Note_on_c, 0, 67, 62
3, 34320, Note_on_c, 0, 67, 0
3, 34320, Control_c, 0, 64, 0
3, 34320, Note_on_c, 0, 66, 62
3, 34560, Note_on_c, 0, 66, 0
3, 34560, Note_on_c, 0, 59, 49
3, 34560, Note_on_c, 0, 64, 49
3, 35040, Note_on_c, 0, 59, 0
3, 35040, Note_on_c, 0, 57, 49
3, 35520, Note_on_c, 0, 57, 0
3, 35520, Note_on_c, 0, 64, 0
3, 36000, Note_on_c, 0, 60, 49
3, 36000, Note_on_c, 0, 64, 49
3, 36480, Note_on_c, 0, 60, 0
3, 36480, Note_on_c, 0, 59, 49
3, 36960, Note_on_c, 0, 59, 0
3, 36960, Note_on_c, 0, 64, 0
3, 37440, Note_on_c, 0, 59, 49
3, 37440, Note_on_c, 0, 64, 49
3, 37920, Note_on_c, 0, 59, 0
3, 37920, Note_on_c, 0, 57, 49
3, 38400, Note_on_c, 0, 57, 0
3, 38400, Note_on_c, 0, 64, 0
3, 38880, Note_on_c, 0, 60, 49
3, 38880, Note_on_c, 0, 64, 49
3, 39840, Note_on_c, 0, 64, 0
3, 39840, Note_on_c, 0, 60, 0
3, 40320, Note_on_c, 0, 58, 49
3, 40320, Note_on_c, 0, 64, 49
3, 40800, Note_on_c, 0, 58, 0
3, 40800, Note_on_c, 0, 57, 49
3, 41280, Note_on_c, 0, 57, 0
3, 41280, Note_on_c, 0, 64, 0
3, 41760, Note_on_c, 0, 57, 49
3, 41760, Note_on_c, 0, 60, 49
3, 42240, Note_on_c, 0, 57, 0
3, 42240, Note_on_c, 0, 55, 49
3, 42720, Note_on_c, 0, 55, 0
3, 42720, Note_on_c, 0, 60, 0
3, 43200, Note_on_c, 0, 53, 49
3, 43200, Note_on_c, 0, 57, 49
3, 43680, Note_on_c, 0, 57, 0
3, 43680, Note_on_c, 0, 53, 0
3, 43680, Note_on_c, 0, 52, 49
3, 43680, Note_on_c, 0, 55, 49
3, 45120, Note_on_c, 0, 55, 0
3, 45120, Note_on_c, 0, 52, 0
3, 45120, Note_on_c, 0, 53, 49
3, 45600, Note_on_c, 0, 53, 0
3, 46080, Note_on_c, 0, 53, 49
3, 46560, Note_on_c, 0, 53, 0
3, 46560, Note_on_c, 0, 54, 49
3, 47040, Note_on_c, 0, 54, 0
3, 47520, Note_on_c, 0, 54, 62
3, 47520, Note_on_c, 0, 57, 62
3, 48480, Note_on_c, 0, 57, 0
3, 48480, Note_on_c, 0, 54, 0
3, 48960, Control_c, 0, 64, 127
3, 48960, Note_on_c, 0, 59, 88
3, 49440, Note_on_c, 0, 59, 0
3, 49440, Note_on_c, 0, 57, 62
3, 49680, Note_on_c, 0, 57, 0
3, 49680, Note_on_c, 0, 56, 62
3, 49920, Note_on_c, 0, 56, 0
3, 49920, Note_on_c, 0, 54, 62
3, 50400, Note_on_c, 0, 54, 0
3, 50400, Control_c, 0, 64, 0
3, 50400, Note_on_c, 0, 56, 62
3, 50880, Note_on_c, 0, 56, 0
3, 50880, Note_on_c, 0, 51, 62
3, 50880, Note_on_c, 0, 54, 62
3, 51840, Note_on_c, 0, 54, 0
3, 51840, Note_on_c, 0, 51, 0
3, 51840, Note_on_c, 0, 52, 62
3, 51840, Note_on_c, 0, 61, 62
3, 52800, Note_on_c, 0, 61, 0
3, 52800, Note_on_c, 0, 52, 0
3, 52800, Note_on_c, 0, 59, 62
3, 53280, Note_on_c, 0, 59, 0
3, 53280, Note_on_c, 0, 56, 62
3, 53280, Note_on_c, 0, 62, 62
3, 53760, Note_on_c, 0, 56, 0
3, 53760, Note_on_c, 0, 57, 62
3, 54240, Note_on_c, 0, 57, 0
3, 54240, Note_on_c, 0, 62, 0
3, 54240, Note_on_c, 0, 61, 62
3, 54720, Note_on_c, 0, 61, 0
3, 54720, Note_on_c, 0, 64, 62
3, 54720, Note_on_c, 0, 69, 62
3, 55440, Note_on_c, 0, 69, 0
3, 55440, Note_on_c, 0, 64, 0
3, 55440, Note_on_c, 0, 68, 62
3, 55680, Note_on_c, 0, 68, 0
3, 55680, Note_on_c, 0, 66, 62
3, 55920, Note_on_c, 0, 66, 0
3, 55920, Note_on_c, 0, 68, 62
3, 56160, Note_on_c, 0, 64, 62
3, 56640, Note_on_c, 0, 68, 0
3, 56640, Note_on_c, 0, 69, 62
3, 57600, Note_on_c, 0, 69, 0
3, 57600, Note_on_c, 0, 64, 0
3, 57600, Note_on_c, 0, 69, 62
3, 58080, Note_on_c, 0, 69, 0
3, 58080, Note_on_c, 0, 71, 62
3, 59040, Note_on_c, 0, 71, 0
3, 59040, Note_on_c, 0, 76, 75
3, 60480, Note_on_c, 0, 76, 0
3, 60480, Note_on_c, 0, 80, 75
3, 61440, Note_on_c, 0, 80, 0
3, 61440, Note_on_c, 0, 78, 75
3, 61680, Note_on_c, 0, 78, 0
3, 61680, Note_on_c, 0, 76, 75
3, 61920, Note_on_c, 0, 76, 0
3, 61920, Note_on_c, 0, 78, 75
3, 62400, Note_on_c, 0, 78, 0
3, 62400, Note_on_c, 0, 76, 75
3, 63360, Note_on_c, 0, 76, 0
3, 63360, Note_on_c, 0, 59, 49
3, 63360, Note_on_c, 0, 64, 49
3, 63840, Note_on_c, 0, 59, 0
3, 63840, Note_on_c, 0, 57, 49
3, 64320, Note_on_c, 0, 57, 0
3, 64320, Note_on_c, 0, 64, 0
3, 64800, Note_on_c, 0, 60, 49
3, 64800, Note_on_c, 0, 64, 49
3, 65280, Note_on_c, 0, 60, 0
3, 65280, Note_on_c, 0, 59, 49
3, 65760, Note_on_c, 0, 59, 0
3, 65760, Note_on_c, 0, 64, 0
3, 66240, Note_on_c, 0, 59, 49
3, 66240, Note_on_c, 0, 64, 49
3, 66720, Note_on_c, 0, 59, 0
3, 66720, Note_on_c, 0, 57, 49
3, 67200, Note_on_c, 0, 57, 0
3, 67200, Note_on_c, 0, 64, 0
3, 67680, Note_on_c, 0, 60, 49
3, 67680, Note_on_c, 0, 64, 49
3, 68640, Note_on_c, 0, 64, 0
3, 68640, Note_on_c, 0, 60, 0
3, 69120, Note_on_c, 0, 58, 49
3, 69120, Note_on_c, 0, 64, 49
3, 69600, Note_on_c, 0, 58, 0
3, 69600, Note_on_c, 0, 57, 49
3, 70080, Note_on_c, 0, 57, 0
3, 70080, Note_on_c, 0, 64, 0
3, 70560, Note_on_c, 0, 57, 49
3, 70560, Note_on_c, 0, 60, 49
3, 71040, Note_on_c, 0, 57, 0
3, 71040, Note_on_c, 0, 55, 49
3, 71520, Note_on_c, 0, 55, 0
3, 71520, Note_on_c, 0, 60, 0
3, 72000, Note_on_c, 0, 53, 49
3, 72000, Note_on_c, 0, 57, 49
3, 72480, Note_on_c, 0, 57, 0
3, 72480, Note_on_c, 0, 53, 0
3, 72480, Note_on_c, 0, 52, 49
3, 72480, Note_on_c, 0, 55, 49
3, 73920, Note_on_c, 0, 55, 0
3, 73920, Note_on_c, 0, 52, 0
3, 73920, Note_on_c, 0, 53, 49
3, 74400, Note_on_c, 0, 53, 0
3, 74880, Note_on_c, 0, 53, 49
3, 75360, Note_on_c, 0, 53, 0
3, 75360, Note_on_c, 0, 54, 49
3, 75840, Note_on_c, 0, 54, 0
3, 76320, Note_on_c, 0, 54, 62
3, 76320, Note_on_c, 0, 57, 62
3, 77280, Note_on_c, 0, 57, 0
3, 77280, Note_on_c, 0, 54, 0
3, 77760, Control_c, 0, 64, 127
3, 77760, Note_on_c, 0, 59, 88
3, 78240, Note_on_c, 0, 59, 0
3, 78240, Note_on_c, 0, 57, 62
3, 78480, Note_on_c, 0, 57, 0
3, 78480, Note_on_c, 0, 56, 62
3, 78720, Note_on_c, 0, 56, 0
3, 78720, Note_on_c, 0, 54, 62
3, 79200, Note_on_c, 0, 54, 0
3, 79200, Control_c, 0, 64, 0
3, 79200, Note_on_c, 0, 56, 62
3, 79680, Note_on_c, 0, 56, 0
3, 79680, Note_on_c, 0, 51, 62
3, 79680, Note_on_c, 0, 54, 62
3, 80640, Note_on_c, 0, 54, 0
3, 80640, Note_on_c, 0, 51, 0
3, 80640, Note_on_c, 0, 52, 62
3, 80640, Note_on_c, 0, 61, 62
3, 81600, Note_on_c, 0, 61, 0
3, 81600, Note_on_c, 0, 52, 0
3, 81600, Note_on_c, 0, 59, 62
3, 82080, Note_on_c, 0, 59, 0
3, 82080, Note_on_c, 0, 56, 62
3, 82080, Note_on_c, 0, 62, 62
3, 82560, Note_on_c, 0, 56, 0
3, 82560, Note_on_c, 0, 57, 62
3, 83040, Note_on_c, 0, 57, 0
3, 83040, Note_on_c, 0, 62, 0
3, 83040, Note_on_c, 0, 61, 62
3, 83520, Note_on_c, 0, 61, 0
3, 83520, Note_on_c, 0, 64, 62
3, 83520, Note_on_c, 0, 69, 62
3, 84240, Note_on_c, 0, 69, 0
3, 84240, Note_on_c, 0, 64, 0
3, 84240, Note_on_c, 0, 68, 62
3, 84480, Note_on_c, 0, 68, 0
3, 84480, Note_on_c, 0, 66, 62
3, 84720, Note_on_c, 0, 66, 0
3, 84720, Note_on_c, 0, 68, 62
3, 84960, Note_on_c, 0, 64, 62
3, 85440, Note_on_c, 0, 68, 0
3, 85440, Note_on_c, 0, 69, 62
3, 86400, Note_on_c, 0, 69, 0
3, 86400, Note_on_c, 0, 64, 0
3, 86400, Note_on_c, 0, 69, 62
3, 86880, Note_on_c, 0, 69, 0
3, 86880, Note_on_c, 0, 71, 62
3, 87840, Note_on_c, 0, 71, 0
3, 87840, Note_on_c, 0, 76, 75
3, 89280, Note_on_c, 0, 76, 0
3, 89280, Note_on_c, 0, 80, 75
3, 90240, Note_on_c, 0, 80, 0
3, 90240, Note_on_c, 0, 78, 75
3, 90480, Note_on_c, 0, 78, 0
3, 90480, Note_on_c, 0, 76, 75
3, 90720, Note_on_c, 0, 76, 0
3, 90720, Note_on_c, 0, 78, 75
3, 91200, Note_on_c, 0, 78, 0
3, 91200, Note_on_c, 0, 76, 75
3, 92160, Note_on_c, 0, 76, 0
3, 92160, End_track
4, 0, Start_track
4, 0, Title_t, "Instrument18"
4, 0, Program_c, 0, 0
4, 0, Control_c, 0, 7, 115
4, 0, Control_c, 0, 10, 48
4, 1440, Note_on_c, 0, 52, 62
4, 1487, Note_on_c, 0, 52, 0
4, 2880, Note_on_c, 0, 52, 62
4, 2927, Note_on_c, 0, 52, 0
4, 4320, Note_on_c, 0, 52, 62
4, 4800, Note_on_c, 0, 52, 0
4, 5760, Note_on_c, 0, 52, 62
4, 6240, Note_on_c, 0, 52, 0
4, 6240, Note_on_c, 0, 51, 62
4, 7200, Note_on_c, 0, 51, 0
4, 7200, Note_on_c, 0, 54, 62
4, 7680, Note_on_c, 0, 54, 0
4, 7680, Note_on_c, 0, 52, 62
4, 8640, Note_on_c, 0, 52, 0
4, 8640, Note_on_c, 0, 56, 62
4, 9120, Note_on_c, 0, 56, 0
4, 9120, Note_on_c, 0, 54, 62
4, 10080, Note_on_c, 0, 54, 0
4, 10080, Note_on_c, 0, 58, 62
4, 10560, Note_on_c, 0, 58, 0
4, 10560, Note_on_c, 0, 59, 62
4, 11520, Note_on_c, 0, 59, 0
4, 11520, Note_on_c, 0, 63, 62
4, 12000, Note_on_c, 0, 63, 0
4, 12000, Note_on_c, 0, 64, 75
4, 12960, Note_on_c, 0, 64, 0
4, 12960, Note_on_c, 0, 68, 75
4, 13440, Note_on_c, 0, 68, 0
4, 13440, Note_on_c, 0, 66, 75
4, 14400, Note_on_c, 0, 66, 0
4, 14400, Note_on_c, 0, 66, 88
4, 14400, Note_on_c, 0, 73, 88
4, 14880, Note_on_c, 0, 73, 0
4, 14880, Note_on_c, 0, 66, 0
4, 14880, Note_on_c, 0, 59, 88
4, 14880, Note_on_c, 0, 71, 88
4, 15840, Note_on_c, 0, 71, 0
4, 15840, Note_on_c, 0, 59, 0
4, 15840, Note_on_c, 0, 69, 75
4, 16080, Note_on_c, 0, 69, 0
4, 16080, Note_on_c, 0, 68, 75
4, 16320, Note_on_c, 0, 68, 0
4, 16320, Note_on_c, 0, 66, 62
4, 16800, Note_on_c, 0, 66, 0
4, 18720, Note_on_c, 0, 52, 62
4, 18767, Note_on_c, 0, 52, 0
4, 20160, Note_on_c, 0, 52, 62
4, 20207, Note_on_c, 0, 52, 0
4, 21600, Note_on_c, 0, 52, 62
4, 22080, Note_on_c, 0, 52, 0
4, 23040, Note_on_c, 0, 52, 62
4, 23520, Note_on_c, 0, 52, 0
4, 23520, Note_on_c, 0, 51, 62
4, 24480, Note_on_c, 0, 51, 0
4, 24480, Note_on_c, 0, 54, 62
4, 24960, Note_on_c, 0, 54, 0
4, 24960, Note_on_c, 0, 52, 62
4, 25920, Note_on_c, 0, 52, 0
4, 25920, Note_on_c, 0, 56, 62
4, 26400, Note_on_c, 0, 56, 0
4, 26400, Note_on_c, 0, 54, 62
4, 27360, Note_on_c, 0, 54, 0
4, 27360, Note_on_c, 0, 58, 62
4, 27840, Note_on_c, 0, 58, 0
4, 27840, Note_on_c, 0, 59, 62
4, 28800, Note_on_c, 0, 59, 0
4, 28800, Note_on_c, 0, 63, 62
4, 29280, Note_on_c, 0, 63, 0
4, 29280, Note_on_c, 0, 64, 75
4, 30240, Note_on_c, 0, 64, 0
4, 30240, Note_on_c, 0, 68, 75
4, 30720, Note_on_c, 0, 68, 0
4, 30720, Note_on_c, 0, 66, 75
4, 31680, Note_on_c, 0, 66, 0
4, 31680, Note_on_c, 0, 66, 88
4, 31680, Note_on_c, 0, 73, 88
4, 32160, Note_on_c, 0, 73, 0
4, 32160, Note_on_c, 0, 66, 0
4, 32160, Note_on_c, 0, 59, 88
4, 32160, Note_on_c, 0, 71, 88
4, 33120, Note_on_c, 0, 71, 0
4, 33120, Note_on_c, 0, 59, 0
4, 33120, Note_on_c, 0, 69, 75
4, 33360, Note_on_c, 0, 69, 0
4, 33360, Note_on_c, 0, 68, 75
4, 33600, Note_on_c, 0, 68, 0
4, 33600, Note_on_c, 0, 66, 62
4, 34080, Note_on_c, 0, 66, 0
4, 36000, Note_on_c, 0, 52, 62
4, 36047, Note_on_c, 0, 52, 0
4, 37440, Note_on_c, 0, 52, 62
4, 37487, Note_on_c, 0, 52, 0
4, 38880, Note_on_c, 0, 52, 62
4, 38927, Note_on_c, 0, 52, 0
4, 40320, Note_on_c, 0, 48, 62
4, 40367, Note_on_c, 0, 48, 0
4, 41760, Note_on_c, 0, 48, 62
4, 41807, Note_on_c, 0, 48, 0
4, 43200, Note_on_c, 0, 48, 62
4, 43247, Note_on_c, 0, 48, 0
4, 44640, Note_on_c, 0, 48, 62
4, 44687, Note_on_c, 0, 48, 0
4, 46080, Note_on_c, 0, 48, 62
4, 46127, Note_on_c, 0, 48, 0
4, 47520, Note_on_c, 0, 47, 62
4, 47567, Note_on_c, 0, 47, 0
4, 48960, Note_on_c, 0, 47, 62
4, 49007, Note_on_c, 0, 47, 0
4, 50400, Note_on_c, 0, 47, 62
4, 50880, Note_on_c, 0, 47, 0
4, 51840, Note_on_c, 0, 45, 62
4, 52320, Note_on_c, 0, 45, 0
4, 52320, Note_on_c, 0, 44, 62
4, 53280, Note_on_c, 0, 44, 0
4, 53280, Note_on_c, 0, 47, 62
4, 53760, Note_on_c, 0, 47, 0
4, 53760, Note_on_c, 0, 45, 62
4, 54720, Note_on_c, 0, 45, 0
4, 54720, Note_on_c, 0, 49, 62
4, 55200, Note_on_c, 0, 49, 0
4, 55200, Note_on_c, 0, 47, 62
4, 56160, Note_on_c, 0, 47, 0
4, 56160, Note_on_c, 0, 52, 62
4, 56640, Note_on_c, 0, 52, 0
4, 56640, Note_on_c, 0, 57, 62
4, 57600, Note_on_c, 0, 57, 0
4, 57600, Note_on_c, 0, 61, 62
4, 58080, Note_on_c, 0, 61, 0
4, 58080, Note_on_c, 0, 64, 62
4, 59040, Note_on_c, 0, 64, 0
4, 59040, Note_on_c, 0, 68, 62
4, 59520, Note_on_c, 0, 68, 0
4, 59520, Note_on_c, 0, 69, 62
4, 60480, Note_on_c, 0, 69, 0
4, 60480, Note_on_c, 0, 69, 75
4, 60480, Note_on_c, 0, 73, 75
4, 60960, Note_on_c, 0, 73, 0
4, 60960, Note_on_c, 0, 69, 0
4, 60960, Note_on_c, 0, 69, 75
4, 60960, Note_on_c, 0, 71, 75
4, 61920, Note_on_c, 0, 71, 0
4, 61920, Note_on_c, 0, 69, 0
4, 61920, Note_on_c, 0, 59, 75
4, 61920, Note_on_c, 0, 69, 75
4, 62400, Note_on_c, 0, 69, 0
4, 62400, Note_on_c, 0, 59, 0
4, 62400, Note_on_c, 0, 59, 75
4, 62400, Note_on_c, 0, 68, 75
4, 63360, Note_on_c, 0, 68, 0
4, 63360, Note_on_c, 0, 59, 0
4, 64800, Note_on_c, 0, 52, 62
4, 64847, Note_on_c, 0, 52, 0
4, 66240, Note_on_c, 0, 52, 62
4, 66287, Note_on_c, 0, 52, 0
4, 67680, Note_on_c, 0, 52, 62
4, 67727, Note_on_c, 0, 52, 0
4, 69120, Note_on_c, 0, 48, 62
4, 69167, Note_on_c, 0, 48, 0
4, 70560, Note_on_c, 0, 48, 62
4, 70607, Note_on_c, 0, 48, 0
4, 72000, Note_on_c, 0, 48, 62
4, 72047, Note_on_c, 0, 48, 0
4, 73440, Note_on_c, 0, 48, 62
4, 73487, Note_on_c, 0, 48, 0
4, 74880, Note_on_c, 0, 48, 62
4, 74927, Note_on_c, 0, 48, 0
4, 76320, Note_on_c, 0, 47, 62
4, 76367, Note_on_c, 0, 47, 0
4, 77760, Note_on_c, 0, 47, 62
4, 77807, Note_on_c, 0, 47, 0
4, 79200, Note_on_c, 0, 47, 62
4, 79680, Note_on_c, 0, 47, 0
4, 80640, Note_on_c, 0, 45, 62
4, 81120, Note_on_c, 0, 45, 0
4, 81120, Note_on_c, 0, 44, 62
4, 82080, Note_on_c, 0, 44, 0
4, 82080, Note_on_c, 0, 47, 62
4, 82560, Note_on_c, 0, 47, 0
4, 82560, Note_on_c, 0, 45, 62
4, 83520, Note_on_c, 0, 45, 0
4, 83520, Note_on_c, 0, 49, 62
4, 84000, Note_on_c, 0, 49, 0
4, 84000, Note_on_c, 0, 47, 62
4, 84960, Note_on_c, 0, 47, 0
4, 84960, Note_on_c, 0, 52, 62
4, 85440, Note_on_c, 0, 52, 0
4, 85440, Note_on_c, 0, 57, 62
4, 86400, Note_on_c, 0, 57, 0
4, 86400, Note_on_c, 0, 61, 62
4, 86880, Note_on_c, 0, 61, 0
4, 86880, Note_on_c, 0, 64, 62
4, 87840, Note_on_c, 0, 64, 0
4, 87840, Note_on_c, 0, 68, 62
4, 88320, Note_on_c, 0, 68, 0
4, 88320, Note_on_c, 0, 69, 62
4, 89280, Note_on_c, 0, 69, 0
4, 89280, Note_on_c, 0, 69, 75
4, 89280, Note_on_c, 0, 73, 75
4, 89760, Note_on_c, 0, 73, 0
4, 89760, Note_on_c, 0, 69, 0
4, 89760, Note_on_c, 0, 69, 75
4, 89760, Note_on_c, 0, 71, 75
4, 90720, Note_on_c, 0, 71, 0
4, 90720, Note_on_c, 0, 69, 0
4, 90720, Note_on_c, 0, 59, 75
4, 90720, Note_on_c, 0, 69, 75
4, 91200, Note_on_c, 0, 69, 0
4, 91200, Note_on_c, 0, 59, 0
4, 91200, Note_on_c, 0, 59, 75
4, 91200, Note_on_c, 0, 68, 75
4, 92160, Note_on_c, 0, 68, 0
4, 92160, Note_on_c, 0, 59, 0
4, 92160, End_track
5, 0, Start_track
5, 0, Title_t, "Instrument19"
5, 0, Program_c, 0, 0
5, 0, Control_c, 0, 7, 115
5, 0, Control_c, 0, 10, 32
5, 480, Note_on_c, 0, 28, 62
5, 960, Note_on_c, 0, 28, 0
5, 960, Note_on_c, 0, 40, 62
5, 1440, Note_on_c, 0, 40, 0
5, 1920, Note_on_c, 0, 28, 62
5, 2400, Note_on_c, 0, 28, 0
5, 2400, Note_on_c, 0, 40, 62
5, 2880, Note_on_c, 0, 40, 0
5, 3360, Note_on_c, 0, 28, 62
5, 3840, Note_on_c, 0, 28, 0
5, 3840, Note_on_c, 0, 40, 62
5, 4320, Note_on_c, 0, 40, 0
5, 4800, Note_on_c, 0, 28, 62
5, 5280, Note_on_c, 0, 28, 0
5, 5280, Note_on_c, 0, 40, 62
5, 5760, Note_on_c, 0, 40, 0
5, 5760, Note_on_c, 0, 40, 62
5, 6240, Note_on_c, 0, 40, 0
5, 6240, Note_on_c, 0, 39, 62
5, 7200, Note_on_c, 0, 39, 0
5, 7200, Note_on_c, 0, 42, 62
5, 7680, Note_on_c, 0, 42, 0
5, 7680, Note_on_c, 0, 40, 62
5, 8640, Note_on_c, 0, 40, 0
5, 8640, Note_on_c, 0, 44, 62
5, 9120, Note_on_c, 0, 44, 0
5, 9120, Note_on_c, 0, 42, 62
5, 10080, Note_on_c, 0, 42, 0
5, 10080, Note_on_c, 0, 46, 62
5, 10560, Note_on_c, 0, 46, 0
5, 10560, Note_on_c, 0, 47, 62
5, 11520, Note_on_c, 0, 47, 0
5, 11520, Note_on_c, 0, 51, 62
5, 12000, Note_on_c, 0, 51, 0
5, 12000, Note_on_c, 0, 52, 75
5, 12960, Note_on_c, 0, 52, 0
5, 12960, Note_on_c, 0, 56, 75
5, 13440, Note_on_c, 0, 56, 0
5, 13440, Note_on_c, 0, 54, 75
5, 14400, Note_on_c, 0, 54, 0
5, 17760, Note_on_c, 0, 28, 62
5, 18240, Note_on_c, 0, 28, 0
5, 18240, Note_on_c, 0, 40, 62
5, 18720, Note_on_c, 0, 40, 0
5, 19200, Note_on_c, 0, 28, 62
5, 19680, Note_on_c, 0, 28, 0
5, 19680, Note_on_c, 0, 40, 62
5, 20160, Note_on_c, 0, 40, 0
5, 20640, Note_on_c, 0, 28, 62
5, 21120, Note_on_c, 0, 28, 0
5, 21120, Note_on_c, 0, 40, 62
5, 21600, Note_on_c, 0, 40, 0
5, 22080, Note_on_c, 0, 28, 62
5, 22560, Note_on_c, 0, 28, 0
5, 22560, Note_on_c, 0, 40, 62
5, 23040, Note_on_c, 0, 40, 0
5, 23040, Note_on_c, 0, 40, 62
5, 23520, Note_on_c, 0, 40, 0
5, 23520, Note_on_c, 0, 39, 62
5, 24480, Note_on_c, 0, 39, 0
5, 24480, Note_on_c, 0, 42, 62
5, 24960, Note_on_c, 0, 42, 0
5, 24960, Note_on_c, 0, 40, 62
5, 25920, Note_on_c, 0, 40, 0
5, 25920, Note_on_c, 0, 44, 62
5, 26400, Note_on_c, 0, 44, 0
5, 26400, Note_on_c, 0, 42, 62
5, 27360, Note_on_c, 0, 42, 0
5, 27360, Note_on_c, 0, 46, 62
5, 27840, Note_on_c, 0, 46, 0
5, 27840, Note_on_c, 0, 47, 62
5, 28800, Note_on_c, 0, 47, 0
5, 28800, Note_on_c, 0, 51, 62
5, 29280, Note_on_c, 0, 51, 0
5, 29280, Note_on_c, 0, 52, 75
5, 30240, Note_on_c, 0, 52, 0
5, 30240, Note_on_c, 0, 56, 75
5, 30720, Note_on_c, 0, 56, 0
5, 30720, Note_on_c, 0, 54, 75
5, 31680, Note_on_c, 0, 54, 0
5, 35040, Note_on_c, 0, 28, 62
5, 35520, Note_on_c, 0, 28, 0
5, 35520, Note_on_c, 0, 40, 62
5, 36000, Note_on_c, 0, 40, 0
5, 36480, Note_on_c, 0, 28, 62
5, 36960, Note_on_c, 0, 28, 0
5, 36960, Note_on_c, 0, 40, 62
5, 37440, Note_on_c, 0, 40, 0
5, 37920, Note_on_c, 0, 28, 62
5, 38400, Note_on_c, 0, 28, 0
5, 38400, Note_on_c, 0, 40, 62
5, 38880, Note_on_c, 0, 40, 0
5, 39360, Note_on_c, 0, 28, 62
5, 39840, Note_on_c, 0, 28, 0
5, 39840, Note_on_c, 0, 36, 62
5, 40320, Note_on_c, 0, 36, 0
5, 40800, Note_on_c, 0, 24, 62
5, 41280, Note_on_c, 0, 24, 0
5, 41280, Note_on_c, 0, 36, 62
5, 41760, Note_on_c, 0, 36, 0
5, 42240, Note_on_c, 0, 24, 62
5, 42720, Note_on_c, 0, 24, 0
5, 42720, Note_on_c, 0, 36, 62
5, 43200, Note_on_c, 0, 36, 0
5, 43680, Note_on_c, 0, 24, 62
5, 44160, Note_on_c, 0, 24, 0
5, 44160, Note_on_c, 0, 36, 62
5, 44640, Note_on_c, 0, 36, 0
5, 45120, Note_on_c, 0, 24, 62
5, 45600, Note_on_c, 0, 24, 0
5, 45600, Note_on_c, 0, 36, 62
5, 46080, Note_on_c, 0, 36, 0
5, 46560, Note_on_c, 0, 23, 62
5, 47040, Note_on_c, 0, 23, 0
5, 47040, Note_on_c, 0, 35, 62
5, 47520, Note_on_c, 0, 35, 0
5, 48000, Note_on_c, 0, 23, 62
5, 48480, Note_on_c, 0, 23, 0
5, 48480, Note_on_c, 0, 35, 62
5, 48960, Note_on_c, 0, 35, 0
5, 49440, Note_on_c, 0, 23, 62
5, 49920, Note_on_c, 0, 23, 0
5, 49920, Note_on_c, 0, 35, 62
5, 50400, Note_on_c, 0, 35, 0
5, 50880, Note_on_c, 0, 23, 62
5, 51360, Note_on_c, 0, 23, 0
5, 51360, Note_on_c, 0, 35, 62
5, 51840, Note_on_c, 0, 35, 0
5, 51840, Note_on_c, 0, 33, 62
5, 52320, Note_on_c, 0, 33, 0
5, 52320, Note_on_c, 0, 32, 62
5, 53280, Note_on_c, 0, 32, 0
5, 53280, Note_on_c, 0, 35, 62
5, 53760, Note_on_c, 0, 35, 0
5, 53760, Note_on_c, 0, 33, 62
5, 54720, Note_on_c, 0, 33, 0
5, 54720, Note_on_c, 0, 37, 62
5, 55200, Note_on_c, 0, 37, 0
5, 55200, Note_on_c, 0, 35, 62
5, 56160, Note_on_c, 0, 35, 0
5, 56160, Note_on_c, 0, 40, 62
5, 56640, Note_on_c, 0, 40, 0
5, 56640, Note_on_c, 0, 45, 62
5, 57600, Note_on_c, 0, 45, 0
5, 57600, Note_on_c, 0, 49, 62
5, 58080, Note_on_c, 0, 49, 0
5, 58080, Note_on_c, 0, 52, 62
5, 59040, Note_on_c, 0, 52, 0
5, 59040, Note_on_c, 0, 56, 62
5, 59520, Note_on_c, 0, 56, 0
5, 59520, Note_on_c, 0, 57, 62
5, 60480, Note_on_c, 0, 57, 0
5, 60480, Note_on_c, 0, 61, 75
5, 60960, Note_on_c, 0, 61, 0
5, 60960, Note_on_c, 0, 59, 75
5, 61440, Note_on_c, 0, 59, 0
5, 61440, Note_on_c, 0, 47, 75
5, 62400, Note_on_c, 0, 47, 0
5, 62400, Note_on_c, 0, 40, 75
5, 62400, Note_on_c, 0, 52, 75
5, 63360, Note_on_c, 0, 52, 0
5, 63360, Note_on_c, 0, 40, 0
5, 63840, Note_on_c, 0, 28, 62
5, 64320, Note_on_c, 0, 28, 0
5, 64320, Note_on_c, 0, 40, 62
5, 64800, Note_on_c, 0, 40, 0
5, 65280, Note_on_c, 0, 28, 62
5, 65760, Note_on_c, 0, 28, 0
5, 65760, Note_on_c, 0, 40, 62
5, 66240, Note_on_c, 0, 40, 0
5, 66720, Note_on_c, 0, 28, 62
5, 67200, Note_on_c, 0, 28, 0
5, 67200, Note_on_c, 0, 40, 62
5, 67680, Note_on_c, 0, 40, 0
5, 68160, Note_on_c, 0, 28, 62
5, 68640, Note_on_c, 0, 28, 0
5, 68640, Note_on_c, 0, 36, 62
5, 69120, Note_on_c, 0, 36, 0
5, 69600, Note_on_c, 0, 24, 62
5, 70080, Note_on_c, 0, 24, 0
5, 70080, Note_on_c, 0, 36, 62
5, 70560, Note_on_c, 0, 36, 0
5, 71040, Note_on_c, 0, 24, 62
5, 71520, Note_on_c, 0, 24, 0
5, 71520, Note_on_c, 0, 36, 62
5, 72000, Note_on_c, 0, 36, 0
5, 72480, Note_on_c, 0, 24, 62
5, 72960, Note_on_c, 0, 24, 0
5, 72960, Note_on_c, 0, 36, 62
5, 73440, Note_on_c, 0, 36, 0
5, 73920, Note_on_c, 0, 24, 62
5, 74400, Note_on_c, 0, 24, 0
5, 74400, Note_on_c, 0, 36, 62
5, 74880, Note_on_c, 0, 36, 0
5, 75360, Note_on_c, 0, 23, 62
5, 75840, Note_on_c, 0, 23, 0
5, 75840, Note_on_c, 0, 35, 62
5, 76320, Note_on_c, 0, 35, 0
5, 76800, Note_on_c, 0, 23, 62
5, 77280, Note_on_c, 0, 23, 0
5, 77280, Note_on_c, 0, 35, 62
5, 77760, Note_on_c, 0, 35, 0
5, 78240, Note_on_c, 0, 23, 62
5, 78720, Note_on_c, 0, 23, 0
5, 78720, Note_on_c, 0, 35, 62
5, 79200, Note_on_c, 0, 35, 0
5, 79680, Note_on_c, 0, 23, 62
5, 80160, Note_on_c, 0, 23, 0
5, 80160, Note_on_c, 0, 35, 62
5, 80640, Note_on_c, 0, 35, 0
5, 80640, Note_on_c, 0, 33, 62
5, 81120, Note_on_c, 0, 33, 0
5, 81120, Note_on_c, 0, 32, 62
5, 82080, Note_on_c, 0, 32, 0
5, 82080, Note_on_c, 0, 35, 62
5, 82560, Note_on_c, 0, 35, 0
5, 82560, Note_on_c, 0, 33, 62
5, 83520, Note_on_c, 0, 33, 0
5, 83520, Note_on_c, 0, 37, 62
5, 84000, Note_on_c, 0, 37, 0
5, 84000, Note_on_c, 0, 35, 62
5, 84960, Note_on_c, 0, 35, 0
5, 84960, Note_on_c, 0, 40, 62
5, 85440, Note_on_c, 0, 40, 0
5, 85440, Note_on_c, 0, 45, 62
5, 86400, Note_on_c, 0, 45, 0
5, 86400, Note_on_c, 0, 49, 62
5, 86880, Note_on_c, 0, 49, 0
5, 86880, Note_on_c, 0, 52, 62
5, 87840, Note_on_c, 0, 52, 0
5, 87840, Note_on_c, 0, 56, 62
5, 88320, Note_on_c, 0, 56, 0
5, 88320, Note_on_c, 0, 57, 62
5, 89280, Note_on_c, 0, 57, 0
5, 89280, Note_on_c, 0, 61, 75
5, 89760, Note_on_c, 0, 61, 0
5, 89760, Note_on_c, 0, 59, 75
5, 90240, Note_on_c, 0, 59, 0
5, 90240, Note_on_c, 0, 47, 75
5, 91200, Note_on_c, 0, 47, 0
5, 91200, Note_on_c, 0, 40, 75
5, 91200, Note_on_c, 0, 52, 75
5, 92160, Note_on_c, 0, 52, 0
5, 92160, Note_on_c, 0, 40, 0
5, 92160, End_track
0, 0, End_of_file
