0, 0, Header, 1, 5, 480
1, 0, Start_track
1, 0, Title_t, "brahms waltzes op39 no14 4hands"
1, 0, Copyright_t, "Segundo G. Yogore,  2004,  dody@info.com.ph \012__________________________________________________________\012Kunst der Fuge comment: this is the Contributor's property.\012Can *not* be used for commercial purposes without authorization!\012Copyright by Contributor - Kunst der Fuge, © 2002-05\012http://www.kunstderfuge.com/thanks.htm -> Contributors' list\012http://www.kunstderfuge.com/notes.htm -> Terms & conditions"
1, 0, Text_t, "sequenced by Segundo G. Yogore,  2004\012"
1, 0, Time_signature, 3, 2, 24, 8
1, 0, Key_signature, 0, "major"
1, 0, Tempo, 300000
1, 14640, Tempo, 309278
1, 14880, Tempo, 319149
1, 15120, Tempo, 329670
1, 15360, Tempo, 344828
1, 15600, Tempo, 357143
1, 15840, Time_signature, 4, 2, 24, 8
1, 15840, Tempo, 370370
1, 16080, Tempo, 384615
1, 16320, Tempo, 405405
1, 17760, Time_signature, 3, 2, 24, 8
1, 17760, Tempo, 300000
1, 32400, Tempo, 309278
1, 32640, Tempo, 319149
1, 32880, Tempo, 329670
1, 33120, Tempo, 344828
1, 33360, Tempo, 357143
1, 33600, Time_signature, 4, 2, 24, 8
1, 33600, Tempo, 370370
1, 33840, Tempo, 384615
1, 34080, Tempo, 405405
1, 35520, Time_signature, 3, 2, 24, 8
1, 35520, Tempo, 300000
1, 52800, Tempo, 300000
1, 67440, Tempo, 309278
1, 67680, Tempo, 319149
1, 67920, Tempo, 329670
1, 68160, Tempo, 344828
1, 68400, Tempo, 357143
1, 68640, Tempo, 370370
1, 68880, Tempo, 384615
1, 69120, Tempo, 405405
1, 70080, Tempo, 300000
1, 87360, Tempo, 300000
1, 102000, Tempo, 309278
1, 102240, Tempo, 319149
1, 102480, Tempo, 329670
1, 102720, Tempo, 344828
1, 102960, Tempo, 357143
1, 103200, Tempo, 370370
1, 103440, Tempo, 384615
1, 103680, Tempo, 405405
1, 104640, Time_signature, 4, 2, 24, 8
1, 104640, End_track
2, 0, Start_track
2, 0, Title_t, "Grand Piano"
2, 0, Program_c, 0, 0
2, 0, Control_c, 0, 7, 115
2, 0, Control_c, 0, 10, 95
2, 0, Note_on_c, 0, 74, 88
2, 60, Note_on_c, 0, 74, 0
2, 60, Note_on_c, 0, 72, 88
2, 77, Note_on_c, 0, 72, 0
2, 240, Note_on_c, 0, 71, 88
2, 263, Note_on_c, 0, 71, 0
2, 480, Note_on_c, 0, 72, 88
2, 900, Note_on_c, 0, 74, 88
2, 960, Note_on_c, 0, 74, 0
2, 960, Note_on_c, 0, 72, 0
2, 960, Note_on_c, 0, 72, 88
2, 983, Note_on_c, 0, 72, 0
2, 1200, Note_on_c, 0, 71, 88
2, 1223, Note_on_c, 0, 71, 0
2, 1440, Note_on_c, 0, 72, 88
2, 1463, Note_on_c, 0, 72, 0
2, 1680, Note_on_c, 0, 74, 88
2, 1703, Note_on_c, 0, 74, 0
2, 1920, Note_on_c, 0, 76, 114
2, 2640, Note_on_c, 0, 76, 0
2, 2640, Note_on_c, 0, 71, 88
2, 2820, Note_on_c, 0, 74, 88
2, 2880, Note_on_c, 0, 74, 0
2, 2880, Note_on_c, 0, 71, 0
2, 2880, Note_on_c, 0, 72, 88
2, 2903, Note_on_c, 0, 72, 0
2, 3120, Note_on_c, 0, 71, 88
2, 3143, Note_on_c, 0, 71, 0
2, 3360, Note_on_c, 0, 72, 88
2, 3407, Note_on_c, 0, 72, 0
2, 3780, Note_on_c, 0, 74, 88
2, 3840, Note_on_c, 0, 74, 0
2, 3840, Note_on_c, 0, 72, 88
2, 3863, Note_on_c, 0, 72, 0
2, 4080, Note_on_c, 0, 71, 88
2, 4103, Note_on_c, 0, 71, 0
2, 4320, Note_on_c, 0, 72, 88
2, 4343, Note_on_c, 0, 72, 0
2, 4560, Note_on_c, 0, 74, 88
2, 4583, Note_on_c, 0, 74, 0
2, 4800, Note_on_c, 0, 76, 88
2, 4823, Note_on_c, 0, 76, 0
2, 5040, Note_on_c, 0, 78, 88
2, 5063, Note_on_c, 0, 78, 0
2, 5280, Note_on_c, 0, 79, 88
2, 5700, Note_on_c, 0, 81, 88
2, 5760, Note_on_c, 0, 81, 0
2, 5760, Note_on_c, 0, 79, 0
2, 5760, Note_on_c, 0, 74, 88
2, 5760, Note_on_c, 0, 79, 88
2, 5783, Note_on_c, 0, 79, 0
2, 5783, Note_on_c, 0, 74, 0
2, 6000, Note_on_c, 0, 74, 88
2, 6000, Note_on_c, 0, 78, 88
2, 6023, Note_on_c, 0, 78, 0
2, 6023, Note_on_c, 0, 74, 0
2, 6240, Note_on_c, 0, 74, 88
2, 6240, Note_on_c, 0, 79, 88
2, 6660, Note_on_c, 0, 81, 88
2, 6720, Note_on_c, 0, 81, 0
2, 6720, Note_on_c, 0, 79, 0
2, 6720, Note_on_c, 0, 74, 0
2, 6720, Note_on_c, 0, 74, 88
2, 6720, Note_on_c, 0, 79, 88
2, 6743, Note_on_c, 0, 79, 0
2, 6743, Note_on_c, 0, 74, 0
2, 6960, Note_on_c, 0, 74, 88
2, 6960, Note_on_c, 0, 78, 88
2, 6983, Note_on_c, 0, 78, 0
2, 6983, Note_on_c, 0, 74, 0
2, 7200, Note_on_c, 0, 74, 88
2, 7200, Note_on_c, 0, 79, 88
2, 7223, Note_on_c, 0, 79, 0
2, 7223, Note_on_c, 0, 74, 0
2, 7440, Note_on_c, 0, 74, 88
2, 7440, Note_on_c, 0, 81, 88
2, 7463, Note_on_c, 0, 81, 0
2, 7463, Note_on_c, 0, 74, 0
2, 7680, Note_on_c, 0, 74, 114
2, 7680, Note_on_c, 0, 82, 114
2, 8400, Note_on_c, 0, 82, 0
2, 8400, Note_on_c, 0, 74, 0
2, 8400, Note_on_c, 0, 74, 88
2, 8400, Note_on_c, 0, 76, 88
2, 8580, Note_on_c, 0, 81, 88
2, 8640, Note_on_c, 0, 81, 0
2, 8640, Note_on_c, 0, 76, 0
2, 8640, Note_on_c, 0, 74, 0
2, 8640, Note_on_c, 0, 74, 88
2, 8640, Note_on_c, 0, 79, 88
2, 8663, Note_on_c, 0, 79, 0
2, 8663, Note_on_c, 0, 74, 0
2, 8880, Note_on_c, 0, 74, 88
2, 8880, Note_on_c, 0, 78, 88
2, 8903, Note_on_c, 0, 78, 0
2, 8903, Note_on_c, 0, 74, 0
2, 9120, Note_on_c, 0, 74, 88
2, 9120, Note_on_c, 0, 79, 88
2, 9600, Note_on_c, 0, 79, 0
2, 9600, Note_on_c, 0, 74, 0
2, 9600, Note_on_c, 0, 75, 88
2, 9600, Note_on_c, 0, 79, 88
2, 9623, Note_on_c, 0, 79, 0
2, 9623, Note_on_c, 0, 75, 0
2, 9840, Note_on_c, 0, 75, 88
2, 9840, Note_on_c, 0, 79, 88
2, 9863, Note_on_c, 0, 79, 0
2, 9863, Note_on_c, 0, 75, 0
2, 10080, Note_on_c, 0, 75, 88
2, 10080, Note_on_c, 0, 80, 88
2, 10103, Note_on_c, 0, 80, 0
2, 10103, Note_on_c, 0, 75, 0
2, 10320, Note_on_c, 0, 75, 88
2, 10320, Note_on_c, 0, 82, 88
2, 10343, Note_on_c, 0, 82, 0
2, 10343, Note_on_c, 0, 75, 0
2, 10560, Note_on_c, 0, 75, 114
2, 10560, Note_on_c, 0, 84, 114
2, 11280, Note_on_c, 0, 84, 0
2, 11280, Note_on_c, 0, 75, 0
2, 11280, Note_on_c, 0, 75, 88
2, 11280, Note_on_c, 0, 79, 88
2, 11520, Note_on_c, 0, 79, 0
2, 11520, Note_on_c, 0, 75, 0
2, 11520, Note_on_c, 0, 75, 88
2, 11520, Note_on_c, 0, 80, 88
2, 12000, Note_on_c, 0, 80, 0
2, 12000, Note_on_c, 0, 75, 0
2, 12240, Note_on_c, 0, 75, 75
2, 12240, Note_on_c, 0, 80, 75
2, 12480, Note_on_c, 0, 80, 0
2, 12480, Note_on_c, 0, 75, 0
2, 12480, Note_on_c, 0, 73, 75
2, 12480, Note_on_c, 0, 79, 75
2, 12960, Note_on_c, 0, 79, 0
2, 12960, Note_on_c, 0, 73, 0
2, 12960, Note_on_c, 0, 76, 62
2, 13440, Note_on_c, 0, 76, 0
2, 13680, Note_on_c, 0, 76, 62
2, 13920, Note_on_c, 0, 76, 0
2, 13920, Note_on_c, 0, 72, 62
2, 14400, Note_on_c, 0, 72, 0
2, 14400, Note_on_c, 0, 77, 62
2, 14400, Note_on_c, 0, 81, 62
2, 14880, Note_on_c, 0, 81, 0
2, 14880, Note_on_c, 0, 77, 0
2, 15120, Note_on_c, 0, 77, 62
2, 15120, Note_on_c, 0, 81, 62
2, 15360, Note_on_c, 0, 81, 0
2, 15360, Note_on_c, 0, 77, 0
2, 15360, Note_on_c, 0, 74, 62
2, 15360, Note_on_c, 0, 79, 62
2, 15840, Note_on_c, 0, 79, 0
2, 15840, Note_on_c, 0, 74, 0
2, 15840, Note_on_c, 0, 76, 62
2, 16320, Note_on_c, 0, 76, 0
2, 16560, Note_on_c, 0, 76, 62
2, 16800, Note_on_c, 0, 76, 0
2, 16800, Note_on_c, 0, 72, 62
2, 17280, Note_on_c, 0, 72, 0
2, 17700, Note_on_c, 0, 86, 62
2, 17760, Note_on_c, 0, 86, 0
2, 17760, Note_on_c, 0, 81, 88
2, 17760, Note_on_c, 0, 84, 88
2, 17783, Note_on_c, 0, 84, 0
2, 17783, Note_on_c, 0, 81, 0
2, 18000, Note_on_c, 0, 80, 88
2, 18000, Note_on_c, 0, 83, 88
2, 18023, Note_on_c, 0, 83, 0
2, 18023, Note_on_c, 0, 80, 0
2, 18240, Note_on_c, 0, 81, 88
2, 18240, Note_on_c, 0, 84, 88
2, 18660, Note_on_c, 0, 86, 88
2, 18720, Note_on_c, 0, 86, 0
2, 18720, Note_on_c, 0, 84, 0
2, 18720, Note_on_c, 0, 81, 0
2, 18720, Note_on_c, 0, 81, 88
2, 18720, Note_on_c, 0, 84, 88
2, 18743, Note_on_c, 0, 84, 0
2, 18743, Note_on_c, 0, 81, 0
2, 18960, Note_on_c, 0, 80, 88
2, 18960, Note_on_c, 0, 83, 88
2, 18983, Note_on_c, 0, 83, 0
2, 18983, Note_on_c, 0, 80, 0
2, 19200, Note_on_c, 0, 81, 88
2, 19200, Note_on_c, 0, 84, 88
2, 19223, Note_on_c, 0, 84, 0
2, 19223, Note_on_c, 0, 81, 0
2, 19440, Note_on_c, 0, 83, 88
2, 19440, Note_on_c, 0, 86, 88
2, 19463, Note_on_c, 0, 86, 0
2, 19463, Note_on_c, 0, 83, 0
2, 19680, Note_on_c, 0, 84, 88
2, 19680, Note_on_c, 0, 88, 88
2, 20400, Note_on_c, 0, 88, 0
2, 20400, Note_on_c, 0, 84, 0
2, 20400, Note_on_c, 0, 80, 88
2, 20400, Note_on_c, 0, 83, 88
2, 20580, Note_on_c, 0, 86, 88
2, 20640, Note_on_c, 0, 86, 0
2, 20640, Note_on_c, 0, 83, 0
2, 20640, Note_on_c, 0, 80, 0
2, 20640, Note_on_c, 0, 81, 88
2, 20640, Note_on_c, 0, 84, 88
2, 20663, Note_on_c, 0, 84, 0
2, 20663, Note_on_c, 0, 81, 0
2, 20880, Note_on_c, 0, 80, 88
2, 20880, Note_on_c, 0, 83, 88
2, 20903, Note_on_c, 0, 83, 0
2, 20903, Note_on_c, 0, 80, 0
2, 21120, Note_on_c, 0, 81, 88
2, 21120, Note_on_c, 0, 84, 88
2, 21540, Note_on_c, 0, 86, 88
2, 21600, Note_on_c, 0, 86, 0
2, 21600, Note_on_c, 0, 84, 0
2, 21600, Note_on_c, 0, 81, 0
2, 21600, Note_on_c, 0, 81, 88
2, 21600, Note_on_c, 0, 84, 88
2, 21623, Note_on_c, 0, 84, 0
2, 21623, Note_on_c, 0, 81, 0
2, 21840, Note_on_c, 0, 80, 88
2, 21840, Note_on_c, 0, 83, 88
2, 21863, Note_on_c, 0, 83, 0
2, 21863, Note_on_c, 0, 80, 0
2, 22080, Note_on_c, 0, 81, 88
2, 22080, Note_on_c, 0, 84, 88
2, 22103, Note_on_c, 0, 84, 0
2, 22103, Note_on_c, 0, 81, 0
2, 22320, Note_on_c, 0, 83, 88
2, 22320, Note_on_c, 0, 86, 88
2, 22343, Note_on_c, 0, 86, 0
2, 22343, Note_on_c, 0, 83, 0
2, 22560, Note_on_c, 0, 84, 88
2, 22560, Note_on_c, 0, 88, 88
2, 22583, Note_on_c, 0, 88, 0
2, 22583, Note_on_c, 0, 84, 0
2, 22800, Note_on_c, 0, 81, 88
2, 22800, Note_on_c, 0, 90, 88
2, 22823, Note_on_c, 0, 90, 0
2, 22823, Note_on_c, 0, 81, 0
2, 23040, Note_on_c, 0, 83, 88
2, 23040, Note_on_c, 0, 91, 88
2, 23460, Note_on_c, 0, 93, 88
2, 23520, Note_on_c, 0, 93, 0
2, 23520, Note_on_c, 0, 91, 0
2, 23520, Note_on_c, 0, 83, 0
2, 23520, Note_on_c, 0, 79, 88
2, 23520, Note_on_c, 0, 91, 88
2, 23543, Note_on_c, 0, 91, 0
2, 23543, Note_on_c, 0, 79, 0
2, 23760, Note_on_c, 0, 78, 88
2, 23760, Note_on_c, 0, 90, 88
2, 23783, Note_on_c, 0, 90, 0
2, 23783, Note_on_c, 0, 78, 0
2, 24000, Note_on_c, 0, 79, 88
2, 24000, Note_on_c, 0, 91, 88
2, 24420, Note_on_c, 0, 93, 88
2, 24480, Note_on_c, 0, 93, 0
2, 24480, Note_on_c, 0, 91, 0
2, 24480, Note_on_c, 0, 79, 0
2, 24480, Note_on_c, 0, 79, 88
2, 24480, Note_on_c, 0, 91, 88
2, 24503, Note_on_c, 0, 91, 0
2, 24503, Note_on_c, 0, 79, 0
2, 24720, Note_on_c, 0, 78, 88
2, 24720, Note_on_c, 0, 90, 88
2, 24743, Note_on_c, 0, 90, 0
2, 24743, Note_on_c, 0, 78, 0
2, 24960, Note_on_c, 0, 79, 88
2, 24960, Note_on_c, 0, 91, 88
2, 24983, Note_on_c, 0, 91, 0
2, 24983, Note_on_c, 0, 79, 0
2, 25200, Note_on_c, 0, 81, 88
2, 25200, Note_on_c, 0, 93, 88
2, 25223, Note_on_c, 0, 93, 0
2, 25223, Note_on_c, 0, 81, 0
2, 25440, Note_on_c, 0, 82, 88
2, 25440, Note_on_c, 0, 94, 88
2, 26160, Note_on_c, 0, 94, 0
2, 26160, Note_on_c, 0, 82, 0
2, 26160, Note_on_c, 0, 78, 88
2, 26160, Note_on_c, 0, 90, 88
2, 26340, Note_on_c, 0, 93, 88
2, 26400, Note_on_c, 0, 93, 0
2, 26400, Note_on_c, 0, 90, 0
2, 26400, Note_on_c, 0, 78, 0
2, 26400, Note_on_c, 0, 79, 88
2, 26400, Note_on_c, 0, 91, 88
2, 26423, Note_on_c, 0, 91, 0
2, 26423, Note_on_c, 0, 79, 0
2, 26640, Note_on_c, 0, 78, 88
2, 26640, Note_on_c, 0, 90, 88
2, 26663, Note_on_c, 0, 90, 0
2, 26663, Note_on_c, 0, 78, 0
2, 26880, Note_on_c, 0, 79, 88
2, 26880, Note_on_c, 0, 91, 88
2, 27360, Note_on_c, 0, 91, 0
2, 27360, Note_on_c, 0, 79, 0
2, 27360, Note_on_c, 0, 79, 88
2, 27360, Note_on_c, 0, 91, 88
2, 27383, Note_on_c, 0, 91, 0
2, 27383, Note_on_c, 0, 79, 0
2, 27600, Note_on_c, 0, 79, 88
2, 27600, Note_on_c, 0, 91, 88
2, 27623, Note_on_c, 0, 91, 0
2, 27623, Note_on_c, 0, 79, 0
2, 27840, Note_on_c, 0, 80, 88
2, 27840, Note_on_c, 0, 92, 88
2, 27863, Note_on_c, 0, 92, 0
2, 27863, Note_on_c, 0, 80, 0
2, 28080, Note_on_c, 0, 82, 88
2, 28080, Note_on_c, 0, 94, 88
2, 28103, Note_on_c, 0, 94, 0
2, 28103, Note_on_c, 0, 82, 0
2, 28320, Note_on_c, 0, 84, 114
2, 28320, Note_on_c, 0, 96, 114
2, 29040, Note_on_c, 0, 96, 0
2, 29040, Note_on_c, 0, 84, 0
2, 29040, Note_on_c, 0, 82, 88
2, 29040, Note_on_c, 0, 91, 88
2, 29280, Note_on_c, 0, 91, 0
2, 29280, Note_on_c, 0, 82, 0
2, 29280, Note_on_c, 0, 87, 88
2, 29280, Note_on_c, 0, 92, 88
2, 29760, Note_on_c, 0, 92, 0
2, 29760, Note_on_c, 0, 87, 0
2, 30000, Note_on_c, 0, 87, 75
2, 30000, Note_on_c, 0, 92, 75
2, 30240, Note_on_c, 0, 92, 0
2, 30240, Note_on_c, 0, 87, 0
2, 30240, Note_on_c, 0, 85, 75
2, 30240, Note_on_c, 0, 91, 75
2, 30720, Note_on_c, 0, 91, 0
2, 30720, Note_on_c, 0, 85, 0
2, 30720, Note_on_c, 0, 82, 75
2, 30720, Note_on_c, 0, 88, 75
2, 31200, Note_on_c, 0, 88, 0
2, 31200, Note_on_c, 0, 82, 0
2, 31440, Note_on_c, 0, 82, 62
2, 31440, Note_on_c, 0, 88, 62
2, 31680, Note_on_c, 0, 88, 0
2, 31680, Note_on_c, 0, 82, 0
2, 31680, Note_on_c, 0, 79, 62
2, 31680, Note_on_c, 0, 84, 62
2, 32160, Note_on_c, 0, 84, 0
2, 32160, Note_on_c, 0, 79, 0
2, 32160, Note_on_c, 0, 84, 62
2, 32160, Note_on_c, 0, 93, 62
2, 32640, Note_on_c, 0, 93, 0
2, 32640, Note_on_c, 0, 84, 0
2, 32880, Note_on_c, 0, 84, 62
2, 32880, Note_on_c, 0, 93, 62
2, 33120, Note_on_c, 0, 93, 0
2, 33120, Note_on_c, 0, 84, 0
2, 33120, Note_on_c, 0, 86, 62
2, 33120, Note_on_c, 0, 91, 62
2, 33600, Note_on_c, 0, 91, 0
2, 33600, Note_on_c, 0, 86, 0
2, 33600, Note_on_c, 0, 82, 62
2, 33600, Note_on_c, 0, 88, 62
2, 34080, Note_on_c, 0, 88, 0
2, 34080, Note_on_c, 0, 82, 0
2, 34320, Note_on_c, 0, 82, 62
2, 34320, Note_on_c, 0, 88, 62
2, 34560, Note_on_c, 0, 88, 0
2, 34560, Note_on_c, 0, 82, 0
2, 34560, Note_on_c, 0, 81, 62
2, 34560, Note_on_c, 0, 84, 62
2, 35040, Note_on_c, 0, 84, 0
2, 35040, Note_on_c, 0, 81, 0
2, 35460, Note_on_c, 0, 74, 62
2, 35520, Note_on_c, 0, 74, 0
2, 35520, Note_on_c, 0, 72, 62
2, 35543, Note_on_c, 0, 72, 0
2, 35760, Note_on_c, 0, 71, 62
2, 35783, Note_on_c, 0, 71, 0
2, 36000, Note_on_c, 0, 72, 62
2, 36720, Note_on_c, 0, 72, 0
2, 36720, Note_on_c, 0, 69, 62
2, 36900, Note_on_c, 0, 79, 62
2, 36960, Note_on_c, 0, 79, 0
2, 36960, Note_on_c, 0, 69, 0
2, 36960, Note_on_c, 0, 77, 62
2, 36983, Note_on_c, 0, 77, 0
2, 37200, Note_on_c, 0, 76, 62
2, 37223, Note_on_c, 0, 76, 0
2, 37440, Note_on_c, 0, 77, 62
2, 38160, Note_on_c, 0, 77, 0
2, 38160, Note_on_c, 0, 72, 62
2, 38340, Note_on_c, 0, 75, 62
2, 38400, Note_on_c, 0, 75, 0
2, 38400, Note_on_c, 0, 72, 0
2, 38400, Note_on_c, 0, 73, 62
2, 38423, Note_on_c, 0, 73, 0
2, 38640, Note_on_c, 0, 72, 62
2, 38663, Note_on_c, 0, 72, 0
2, 38880, Note_on_c, 0, 73, 62
2, 39600, Note_on_c, 0, 73, 0
2, 39600, Note_on_c, 0, 68, 62
2, 39780, Note_on_c, 0, 82, 62
2, 39840, Note_on_c, 0, 82, 0
2, 39840, Note_on_c, 0, 68, 0
2, 39840, Note_on_c, 0, 80, 62
2, 39863, Note_on_c, 0, 80, 0
2, 40080, Note_on_c, 0, 79, 62
2, 40103, Note_on_c, 0, 79, 0
2, 40320, Note_on_c, 0, 80, 88
2, 41040, Note_on_c, 0, 80, 0
2, 41040, Note_on_c, 0, 77, 62
2, 41280, Note_on_c, 0, 77, 0
2, 41280, Note_on_c, 0, 78, 62
2, 41760, Note_on_c, 0, 78, 0
2, 42000, Note_on_c, 0, 82, 88
2, 42240, Note_on_c, 0, 82, 0
2, 42240, Note_on_c, 0, 77, 62
2, 42480, Note_on_c, 0, 77, 0
2, 42480, Note_on_c, 0, 80, 88
2, 42720, Note_on_c, 0, 80, 0
2, 42720, Note_on_c, 0, 75, 62
2, 43200, Note_on_c, 0, 75, 0
2, 43440, Note_on_c, 0, 78, 88
2, 43680, Note_on_c, 0, 78, 0
2, 43680, Note_on_c, 0, 74, 62
2, 43920, Note_on_c, 0, 74, 0
2, 43920, Note_on_c, 0, 77, 88
2, 44160, Note_on_c, 0, 77, 0
2, 44160, Note_on_c, 0, 78, 62
2, 44640, Note_on_c, 0, 78, 0
2, 44880, Note_on_c, 0, 82, 88
2, 45120, Note_on_c, 0, 82, 0
2, 45120, Note_on_c, 0, 77, 62
2, 45360, Note_on_c, 0, 77, 0
2, 45360, Note_on_c, 0, 80, 88
2, 45600, Note_on_c, 0, 80, 0
2, 45600, Note_on_c, 0, 75, 62
2, 46080, Note_on_c, 0, 75, 0
2, 46320, Note_on_c, 0, 78, 88
2, 46560, Note_on_c, 0, 78, 0
2, 46560, Note_on_c, 0, 74, 62
2, 46800, Note_on_c, 0, 74, 0
2, 46800, Note_on_c, 0, 77, 88
2, 47040, Note_on_c, 0, 77, 0
2, 47040, Note_on_c, 0, 76, 62
2, 47520, Note_on_c, 0, 76, 0
2, 47760, Note_on_c, 0, 77, 101
2, 48000, Note_on_c, 0, 77, 0
2, 48000, Note_on_c, 0, 76, 75
2, 48480, Note_on_c, 0, 76, 0
2, 48720, Note_on_c, 0, 81, 101
2, 48720, Note_on_c, 0, 84, 101
2, 48960, Note_on_c, 0, 84, 0
2, 48960, Note_on_c, 0, 81, 0
2, 48960, Note_on_c, 0, 80, 75
2, 48960, Note_on_c, 0, 83, 75
2, 49440, Note_on_c, 0, 83, 0
2, 49440, Note_on_c, 0, 80, 0
2, 49680, Note_on_c, 0, 89, 101
2, 49680, Note_on_c, 0, 93, 101
2, 49920, Note_on_c, 0, 93, 0
2, 49920, Note_on_c, 0, 89, 0
2, 49920, Note_on_c, 0, 88, 88
2, 49920, Note_on_c, 0, 92, 88
2, 50559, Note_on_c, 0, 92, 0
2, 50559, Note_on_c, 0, 88, 0
2, 50559, Control_c, 0, 64, 127
2, 50559, Note_on_c, 0, 91, 88
2, 50720, Note_on_c, 0, 91, 0
2, 50720, Note_on_c, 0, 89, 88
2, 50880, Note_on_c, 0, 89, 0
2, 50880, Note_on_c, 0, 88, 88
2, 51039, Note_on_c, 0, 88, 0
2, 51039, Note_on_c, 0, 86, 88
2, 51200, Note_on_c, 0, 86, 0
2, 51200, Note_on_c, 0, 84, 88
2, 51360, Note_on_c, 0, 84, 0
2, 51360, Note_on_c, 0, 83, 88
2, 51519, Note_on_c, 0, 83, 0
2, 51519, Note_on_c, 0, 81, 88
2, 51680, Note_on_c, 0, 81, 0
2, 51680, Note_on_c, 0, 79, 88
2, 51840, Note_on_c, 0, 79, 0
2, 51840, Note_on_c, 0, 77, 88
2, 51999, Note_on_c, 0, 77, 0
2, 51999, Note_on_c, 0, 76, 88
2, 52160, Note_on_c, 0, 76, 0
2, 52160, Note_on_c, 0, 78, 88
2, 52320, Note_on_c, 0, 78, 0
2, 52320, Note_on_c, 0, 80, 88
2, 52479, Note_on_c, 0, 80, 0
2, 52479, Note_on_c, 0, 81, 88
2, 52640, Note_on_c, 0, 81, 0
2, 52640, Control_c, 0, 64, 0
2, 52640, Note_on_c, 0, 83, 88
2, 52740, Note_on_c, 0, 86, 88
2, 52800, Note_on_c, 0, 86, 0
2, 52800, Note_on_c, 0, 83, 0
2, 52800, Note_on_c, 0, 81, 88
2, 52800, Note_on_c, 0, 84, 88
2, 52823, Note_on_c, 0, 84, 0
2, 52823, Note_on_c, 0, 81, 0
2, 53040, Note_on_c, 0, 80, 88
2, 53040, Note_on_c, 0, 83, 88
2, 53063, Note_on_c, 0, 83, 0
2, 53063, Note_on_c, 0, 80, 0
2, 53280, Note_on_c, 0, 81, 88
2, 53280, Note_on_c, 0, 84, 88
2, 53700, Note_on_c, 0, 86, 88
2, 53760, Note_on_c, 0, 86, 0
2, 53760, Note_on_c, 0, 84, 0
2, 53760, Note_on_c, 0, 81, 0
2, 53760, Note_on_c, 0, 81, 88
2, 53760, Note_on_c, 0, 84, 88
2, 53783, Note_on_c, 0, 84, 0
2, 53783, Note_on_c, 0, 81, 0
2, 54000, Note_on_c, 0, 80, 88
2, 54000, Note_on_c, 0, 83, 88
2, 54023, Note_on_c, 0, 83, 0
2, 54023, Note_on_c, 0, 80, 0
2, 54240, Note_on_c, 0, 81, 88
2, 54240, Note_on_c, 0, 84, 88
2, 54263, Note_on_c, 0, 84, 0
2, 54263, Note_on_c, 0, 81, 0
2, 54480, Note_on_c, 0, 83, 88
2, 54480, Note_on_c, 0, 86, 88
2, 54503, Note_on_c, 0, 86, 0
2, 54503, Note_on_c, 0, 83, 0
2, 54720, Note_on_c, 0, 84, 88
2, 54720, Note_on_c, 0, 88, 88
2, 55440, Note_on_c, 0, 88, 0
2, 55440, Note_on_c, 0, 84, 0
2, 55440, Note_on_c, 0, 80, 88
2, 55440, Note_on_c, 0, 83, 88
2, 55620, Note_on_c, 0, 86, 88
2, 55680, Note_on_c, 0, 86, 0
2, 55680, Note_on_c, 0, 83, 0
2, 55680, Note_on_c, 0, 80, 0
2, 55680, Note_on_c, 0, 81, 88
2, 55680, Note_on_c, 0, 84, 88
2, 55703, Note_on_c, 0, 84, 0
2, 55703, Note_on_c, 0, 81, 0
2, 55920, Note_on_c, 0, 80, 88
2, 55920, Note_on_c, 0, 83, 88
2, 55943, Note_on_c, 0, 83, 0
2, 55943, Note_on_c, 0, 80, 0
2, 56160, Note_on_c, 0, 81, 88
2, 56160, Note_on_c, 0, 84, 88
2, 56580, Note_on_c, 0, 86, 88
2, 56640, Note_on_c, 0, 86, 0
2, 56640, Note_on_c, 0, 84, 0
2, 56640, Note_on_c, 0, 81, 0
2, 56640, Note_on_c, 0, 81, 88
2, 56640, Note_on_c, 0, 84, 88
2, 56663, Note_on_c, 0, 84, 0
2, 56663, Note_on_c, 0, 81, 0
2, 56880, Note_on_c, 0, 80, 88
2, 56880, Note_on_c, 0, 83, 88
2, 56903, Note_on_c, 0, 83, 0
2, 56903, Note_on_c, 0, 80, 0
2, 57120, Note_on_c, 0, 81, 88
2, 57120, Note_on_c, 0, 84, 88
2, 57143, Note_on_c, 0, 84, 0
2, 57143, Note_on_c, 0, 81, 0
2, 57360, Note_on_c, 0, 83, 88
2, 57360, Note_on_c, 0, 86, 88
2, 57383, Note_on_c, 0, 86, 0
2, 57383, Note_on_c, 0, 83, 0
2, 57600, Note_on_c, 0, 84, 88
2, 57600, Note_on_c, 0, 88, 88
2, 57623, Note_on_c, 0, 88, 0
2, 57623, Note_on_c, 0, 84, 0
2, 57840, Note_on_c, 0, 81, 88
2, 57840, Note_on_c, 0, 90, 88
2, 57863, Note_on_c, 0, 90, 0
2, 57863, Note_on_c, 0, 81, 0
2, 58080, Note_on_c, 0, 83, 88
2, 58080, Note_on_c, 0, 91, 88
2, 58500, Note_on_c, 0, 93, 88
2, 58560, Note_on_c, 0, 93, 0
2, 58560, Note_on_c, 0, 91, 0
2, 58560, Note_on_c, 0, 83, 0
2, 58560, Note_on_c, 0, 79, 88
2, 58560, Note_on_c, 0, 91, 88
2, 58583, Note_on_c, 0, 91, 0
2, 58583, Note_on_c, 0, 79, 0
2, 58800, Note_on_c, 0, 78, 88
2, 58800, Note_on_c, 0, 90, 88
2, 58823, Note_on_c, 0, 90, 0
2, 58823, Note_on_c, 0, 78, 0
2, 59040, Note_on_c, 0, 79, 88
2, 59040, Note_on_c, 0, 91, 88
2, 59460, Note_on_c, 0, 93, 88
2, 59520, Note_on_c, 0, 93, 0
2, 59520, Note_on_c, 0, 91, 0
2, 59520, Note_on_c, 0, 79, 0
2, 59520, Note_on_c, 0, 79, 88
2, 59520, Note_on_c, 0, 91, 88
2, 59543, Note_on_c, 0, 91, 0
2, 59543, Note_on_c, 0, 79, 0
2, 59760, Note_on_c, 0, 78, 88
2, 59760, Note_on_c, 0, 90, 88
2, 59783, Note_on_c, 0, 90, 0
2, 59783, Note_on_c, 0, 78, 0
2, 60000, Note_on_c, 0, 79, 88
2, 60000, Note_on_c, 0, 91, 88
2, 60023, Note_on_c, 0, 91, 0
2, 60023, Note_on_c, 0, 79, 0
2, 60240, Note_on_c, 0, 81, 88
2, 60240, Note_on_c, 0, 93, 88
2, 60263, Note_on_c, 0, 93, 0
2, 60263, Note_on_c, 0, 81, 0
2, 60480, Note_on_c, 0, 82, 88
2, 60480, Note_on_c, 0, 94, 88
2, 61200, Note_on_c, 0, 94, 0
2, 61200, Note_on_c, 0, 82, 0
2, 61200, Note_on_c, 0, 78, 88
2, 61200, Note_on_c, 0, 90, 88
2, 61380, Note_on_c, 0, 93, 88
2, 61440, Note_on_c, 0, 93, 0
2, 61440, Note_on_c, 0, 90, 0
2, 61440, Note_on_c, 0, 78, 0
2, 61440, Note_on_c, 0, 79, 88
2, 61440, Note_on_c, 0, 91, 88
2, 61463, Note_on_c, 0, 91, 0
2, 61463, Note_on_c, 0, 79, 0
2, 61680, Note_on_c, 0, 78, 88
2, 61680, Note_on_c, 0, 90, 88
2, 61703, Note_on_c, 0, 90, 0
2, 61703, Note_on_c, 0, 78, 0
2, 61920, Note_on_c, 0, 79, 88
2, 61920, Note_on_c, 0, 91, 88
2, 62400, Note_on_c, 0, 91, 0
2, 62400, Note_on_c, 0, 79, 0
2, 62400, Note_on_c, 0, 80, 88
2, 62400, Note_on_c, 0, 92, 88
2, 62423, Note_on_c, 0, 92, 0
2, 62423, Note_on_c, 0, 80, 0
2, 62640, Note_on_c, 0, 80, 88
2, 62640, Note_on_c, 0, 92, 88
2, 62663, Note_on_c, 0, 92, 0
2, 62663, Note_on_c, 0, 80, 0
2, 62880, Note_on_c, 0, 81, 88
2, 62880, Note_on_c, 0, 93, 88
2, 62903, Note_on_c, 0, 93, 0
2, 62903, Note_on_c, 0, 81, 0
2, 63120, Note_on_c, 0, 83, 88
2, 63120, Note_on_c, 0, 95, 88
2, 63143, Note_on_c, 0, 95, 0
2, 63143, Note_on_c, 0, 83, 0
2, 63360, Note_on_c, 0, 84, 88
2, 63360, Note_on_c, 0, 96, 88
2, 64080, Note_on_c, 0, 96, 0
2, 64080, Note_on_c, 0, 84, 0
2, 64080, Note_on_c, 0, 83, 88
2, 64080, Note_on_c, 0, 92, 88
2, 64320, Note_on_c, 0, 92, 0
2, 64320, Note_on_c, 0, 83, 0
2, 64320, Note_on_c, 0, 84, 88
2, 64320, Note_on_c, 0, 88, 88
2, 64320, Note_on_c, 0, 96, 88
2, 65040, Note_on_c, 0, 96, 0
2, 65040, Note_on_c, 0, 88, 0
2, 65040, Note_on_c, 0, 84, 0
2, 65040, Note_on_c, 0, 84, 88
2, 65040, Note_on_c, 0, 88, 88
2, 65040, Note_on_c, 0, 96, 88
2, 65280, Note_on_c, 0, 96, 0
2, 65280, Note_on_c, 0, 88, 0
2, 65280, Note_on_c, 0, 84, 0
2, 65280, Note_on_c, 0, 83, 88
2, 65280, Note_on_c, 0, 88, 88
2, 65280, Note_on_c, 0, 91, 88
2, 65280, Note_on_c, 0, 95, 88
2, 65760, Note_on_c, 0, 95, 0
2, 65760, Note_on_c, 0, 83, 0
2, 65760, Note_on_c, 0, 88, 0
2, 65760, Note_on_c, 0, 91, 0
2, 65760, Note_on_c, 0, 81, 88
2, 65760, Note_on_c, 0, 84, 88
2, 65760, Note_on_c, 0, 89, 88
2, 65760, Note_on_c, 0, 93, 88
2, 66480, Note_on_c, 0, 93, 0
2, 66480, Note_on_c, 0, 81, 0
2, 66480, Note_on_c, 0, 84, 0
2, 66480, Note_on_c, 0, 89, 0
2, 66480, Note_on_c, 0, 81, 88
2, 66480, Note_on_c, 0, 84, 88
2, 66480, Note_on_c, 0, 89, 88
2, 66480, Note_on_c, 0, 93, 88
2, 66720, Note_on_c, 0, 93, 0
2, 66720, Note_on_c, 0, 81, 0
2, 66720, Note_on_c, 0, 84, 0
2, 66720, Note_on_c, 0, 89, 0
2, 66720, Note_on_c, 0, 79, 88
2, 66720, Note_on_c, 0, 83, 88
2, 66720, Note_on_c, 0, 86, 88
2, 66720, Note_on_c, 0, 91, 88
2, 67200, Note_on_c, 0, 91, 0
2, 67200, Note_on_c, 0, 79, 0
2, 67200, Note_on_c, 0, 83, 0
2, 67200, Note_on_c, 0, 86, 0
2, 67200, Note_on_c, 0, 76, 88
2, 67200, Note_on_c, 0, 81, 88
2, 67200, Note_on_c, 0, 84, 88
2, 67200, Note_on_c, 0, 88, 88
2, 67920, Note_on_c, 0, 88, 0
2, 67920, Note_on_c, 0, 76, 0
2, 67920, Note_on_c, 0, 81, 0
2, 67920, Note_on_c, 0, 84, 0
2, 67920, Note_on_c, 0, 77, 88
2, 67920, Note_on_c, 0, 86, 88
2, 68160, Note_on_c, 0, 86, 0
2, 68160, Note_on_c, 0, 77, 0
2, 68160, Note_on_c, 0, 76, 88
2, 68160, Note_on_c, 0, 84, 88
2, 68400, Note_on_c, 0, 84, 0
2, 68400, Note_on_c, 0, 76, 0
2, 68400, Note_on_c, 0, 74, 88
2, 68400, Note_on_c, 0, 83, 88
2, 68640, Note_on_c, 0, 83, 0
2, 68640, Note_on_c, 0, 74, 0
2, 68640, Note_on_c, 0, 74, 88
2, 68640, Note_on_c, 0, 83, 88
2, 69360, Note_on_c, 0, 83, 0
2, 69360, Note_on_c, 0, 74, 0
2, 69360, Note_on_c, 0, 72, 88
2, 69360, Note_on_c, 0, 81, 88
2, 69600, Note_on_c, 0, 81, 0
2, 69600, Note_on_c, 0, 72, 0
2, 69600, Note_on_c, 0, 72, 88
2, 69600, Note_on_c, 0, 81, 88
2, 70020, Note_on_c, 0, 74, 88
2, 70080, Note_on_c, 0, 74, 0
2, 70080, Note_on_c, 0, 81, 0
2, 70080, Note_on_c, 0, 72, 0
2, 70080, Note_on_c, 0, 72, 62
2, 70103, Note_on_c, 0, 72, 0
2, 70320, Note_on_c, 0, 71, 62
2, 70343, Note_on_c, 0, 71, 0
2, 70560, Note_on_c, 0, 72, 62
2, 71280, Note_on_c, 0, 72, 0
2, 71280, Note_on_c, 0, 69, 62
2, 71460, Note_on_c, 0, 79, 62
2, 71520, Note_on_c, 0, 79, 0
2, 71520, Note_on_c, 0, 69, 0
2, 71520, Note_on_c, 0, 77, 62
2, 71543, Note_on_c, 0, 77, 0
2, 71760, Note_on_c, 0, 76, 62
2, 71783, Note_on_c, 0, 76, 0
2, 72000, Note_on_c, 0, 77, 62
2, 72720, Note_on_c, 0, 77, 0
2, 72720, Note_on_c, 0, 72, 62
2, 72900, Note_on_c, 0, 75, 62
2, 72960, Note_on_c, 0, 75, 0
2, 72960, Note_on_c, 0, 72, 0
2, 72960, Note_on_c, 0, 73, 62
2, 72983, Note_on_c, 0, 73, 0
2, 73200, Note_on_c, 0, 72, 62
2, 73223, Note_on_c, 0, 72, 0
2, 73440, Note_on_c, 0, 73, 62
2, 74160, Note_on_c, 0, 73, 0
2, 74160, Note_on_c, 0, 68, 62
2, 74340, Note_on_c, 0, 82, 62
2, 74400, Note_on_c, 0, 82, 0
2, 74400, Note_on_c, 0, 68, 0
2, 74400, Note_on_c, 0, 80, 62
2, 74423, Note_on_c, 0, 80, 0
2, 74640, Note_on_c, 0, 79, 62
2, 74663, Note_on_c, 0, 79, 0
2, 74880, Note_on_c, 0, 80, 88
2, 75600, Note_on_c, 0, 80, 0
2, 75600, Note_on_c, 0, 77, 62
2, 75840, Note_on_c, 0, 77, 0
2, 75840, Note_on_c, 0, 78, 62
2, 76320, Note_on_c, 0, 78, 0
2, 76560, Note_on_c, 0, 82, 88
2, 76800, Note_on_c, 0, 82, 0
2, 76800, Note_on_c, 0, 77, 62
2, 77040, Note_on_c, 0, 77, 0
2, 77040, Note_on_c, 0, 80, 88
2, 77280, Note_on_c, 0, 80, 0
2, 77280, Note_on_c, 0, 75, 62
2, 77760, Note_on_c, 0, 75, 0
2, 78000, Note_on_c, 0, 78, 88
2, 78240, Note_on_c, 0, 78, 0
2, 78240, Note_on_c, 0, 74, 62
2, 78480, Note_on_c, 0, 74, 0
2, 78480, Note_on_c, 0, 77, 88
2, 78720, Note_on_c, 0, 77, 0
2, 78720, Note_on_c, 0, 78, 62
2, 79200, Note_on_c, 0, 78, 0
2, 79440, Note_on_c, 0, 82, 88
2, 79680, Note_on_c, 0, 82, 0
2, 79680, Note_on_c, 0, 77, 62
2, 79920, Note_on_c, 0, 77, 0
2, 79920, Note_on_c, 0, 80, 88
2, 80160, Note_on_c, 0, 80, 0
2, 80160, Note_on_c, 0, 75, 62
2, 80640, Note_on_c, 0, 75, 0
2, 80880, Note_on_c, 0, 78, 88
2, 81120, Note_on_c, 0, 78, 0
2, 81120, Note_on_c, 0, 74, 62
2, 81360, Note_on_c, 0, 74, 0
2, 81360, Note_on_c, 0, 77, 88
2, 81600, Note_on_c, 0, 77, 0
2, 81600, Note_on_c, 0, 76, 62
2, 82080, Note_on_c, 0, 76, 0
2, 82320, Note_on_c, 0, 77, 101
2, 82560, Note_on_c, 0, 77, 0
2, 82560, Note_on_c, 0, 76, 75
2, 83040, Note_on_c, 0, 76, 0
2, 83280, Note_on_c, 0, 81, 101
2, 83280, Note_on_c, 0, 84, 101
2, 83520, Note_on_c, 0, 84, 0
2, 83520, Note_on_c, 0, 81, 0
2, 83520, Note_on_c, 0, 80, 75
2, 83520, Note_on_c, 0, 83, 75
2, 84000, Note_on_c, 0, 83, 0
2, 84000, Note_on_c, 0, 80, 0
2, 84240, Note_on_c, 0, 89, 101
2, 84240, Note_on_c, 0, 93, 101
2, 84480, Note_on_c, 0, 93, 0
2, 84480, Note_on_c, 0, 89, 0
2, 84480, Note_on_c, 0, 88, 88
2, 84480, Note_on_c, 0, 92, 88
2, 85119, Note_on_c, 0, 92, 0
2, 85119, Note_on_c, 0, 88, 0
2, 85119, Control_c, 0, 64, 127
2, 85119, Note_on_c, 0, 91, 88
2, 85280, Note_on_c, 0, 91, 0
2, 85280, Note_on_c, 0, 89, 88
2, 85440, Note_on_c, 0, 89, 0
2, 85440, Note_on_c, 0, 88, 88
2, 85599, Note_on_c, 0, 88, 0
2, 85599, Note_on_c, 0, 86, 88
2, 85760, Note_on_c, 0, 86, 0
2, 85760, Note_on_c, 0, 84, 88
2, 85920, Note_on_c, 0, 84, 0
2, 85920, Note_on_c, 0, 83, 88
2, 86079, Note_on_c, 0, 83, 0
2, 86079, Note_on_c, 0, 81, 88
2, 86240, Note_on_c, 0, 81, 0
2, 86240, Note_on_c, 0, 79, 88
2, 86400, Note_on_c, 0, 79, 0
2, 86400, Note_on_c, 0, 77, 88
2, 86559, Note_on_c, 0, 77, 0
2, 86559, Note_on_c, 0, 76, 88
2, 86720, Note_on_c, 0, 76, 0
2, 86720, Note_on_c, 0, 78, 88
2, 86880, Note_on_c, 0, 78, 0
2, 86880, Note_on_c, 0, 80, 88
2, 87039, Note_on_c, 0, 80, 0
2, 87039, Note_on_c, 0, 81, 88
2, 87200, Note_on_c, 0, 81, 0
2, 87200, Control_c, 0, 64, 0
2, 87200, Note_on_c, 0, 83, 88
2, 87300, Note_on_c, 0, 86, 88
2, 87360, Note_on_c, 0, 86, 0
2, 87360, Note_on_c, 0, 83, 0
2, 87360, Note_on_c, 0, 81, 88
2, 87360, Note_on_c, 0, 84, 88
2, 87383, Note_on_c, 0, 84, 0
2, 87383, Note_on_c, 0, 81, 0
2, 87600, Note_on_c, 0, 80, 88
2, 87600, Note_on_c, 0, 83, 88
2, 87623, Note_on_c, 0, 83, 0
2, 87623, Note_on_c, 0, 80, 0
2, 87840, Note_on_c, 0, 81, 88
2, 87840, Note_on_c, 0, 84, 88
2, 88260, Note_on_c, 0, 86, 88
2, 88320, Note_on_c, 0, 86, 0
2, 88320, Note_on_c, 0, 84, 0
2, 88320, Note_on_c, 0, 81, 0
2, 88320, Note_on_c, 0, 81, 88
2, 88320, Note_on_c, 0, 84, 88
2, 88343, Note_on_c, 0, 84, 0
2, 88343, Note_on_c, 0, 81, 0
2, 88560, Note_on_c, 0, 80, 88
2, 88560, Note_on_c, 0, 83, 88
2, 88583, Note_on_c, 0, 83, 0
2, 88583, Note_on_c, 0, 80, 0
2, 88800, Note_on_c, 0, 81, 88
2, 88800, Note_on_c, 0, 84, 88
2, 88823, Note_on_c, 0, 84, 0
2, 88823, Note_on_c, 0, 81, 0
2, 89040, Note_on_c, 0, 83, 88
2, 89040, Note_on_c, 0, 86, 88
2, 89063, Note_on_c, 0, 86, 0
2, 89063, Note_on_c, 0, 83, 0
2, 89280, Note_on_c, 0, 84, 88
2, 89280, Note_on_c, 0, 88, 88
2, 90000, Note_on_c, 0, 88, 0
2, 90000, Note_on_c, 0, 84, 0
2, 90000, Note_on_c, 0, 80, 88
2, 90000, Note_on_c, 0, 83, 88
2, 90180, Note_on_c, 0, 86, 88
2, 90240, Note_on_c, 0, 86, 0
2, 90240, Note_on_c, 0, 83, 0
2, 90240, Note_on_c, 0, 80, 0
2, 90240, Note_on_c, 0, 81, 88
2, 90240, Note_on_c, 0, 84, 88
2, 90263, Note_on_c, 0, 84, 0
2, 90263, Note_on_c, 0, 81, 0
2, 90480, Note_on_c, 0, 80, 88
2, 90480, Note_on_c, 0, 83, 88
2, 90503, Note_on_c, 0, 83, 0
2, 90503, Note_on_c, 0, 80, 0
2, 90720, Note_on_c, 0, 81, 88
2, 90720, Note_on_c, 0, 84, 88
2, 91140, Note_on_c, 0, 86, 88
2, 91200, Note_on_c, 0, 86, 0
2, 91200, Note_on_c, 0, 84, 0
2, 91200, Note_on_c, 0, 81, 0
2, 91200, Note_on_c, 0, 81, 88
2, 91200, Note_on_c, 0, 84, 88
2, 91223, Note_on_c, 0, 84, 0
2, 91223, Note_on_c, 0, 81, 0
2, 91440, Note_on_c, 0, 80, 88
2, 91440, Note_on_c, 0, 83, 88
2, 91463, Note_on_c, 0, 83, 0
2, 91463, Note_on_c, 0, 80, 0
2, 91680, Note_on_c, 0, 81, 88
2, 91680, Note_on_c, 0, 84, 88
2, 91703, Note_on_c, 0, 84, 0
2, 91703, Note_on_c, 0, 81, 0
2, 91920, Note_on_c, 0, 83, 88
2, 91920, Note_on_c, 0, 86, 88
2, 91943, Note_on_c, 0, 86, 0
2, 91943, Note_on_c, 0, 83, 0
2, 92160, Note_on_c, 0, 84, 88
2, 92160, Note_on_c, 0, 88, 88
2, 92183, Note_on_c, 0, 88, 0
2, 92183, Note_on_c, 0, 84, 0
2, 92400, Note_on_c, 0, 81, 88
2, 92400, Note_on_c, 0, 90, 88
2, 92423, Note_on_c, 0, 90, 0
2, 92423, Note_on_c, 0, 81, 0
2, 92640, Note_on_c, 0, 83, 88
2, 92640, Note_on_c, 0, 91, 88
2, 93060, Note_on_c, 0, 93, 88
2, 93120, Note_on_c, 0, 93, 0
2, 93120, Note_on_c, 0, 91, 0
2, 93120, Note_on_c, 0, 83, 0
2, 93120, Note_on_c, 0, 79, 88
2, 93120, Note_on_c, 0, 91, 88
2, 93143, Note_on_c, 0, 91, 0
2, 93143, Note_on_c, 0, 79, 0
2, 93360, Note_on_c, 0, 78, 88
2, 93360, Note_on_c, 0, 90, 88
2, 93383, Note_on_c, 0, 90, 0
2, 93383, Note_on_c, 0, 78, 0
2, 93600, Note_on_c, 0, 79, 88
2, 93600, Note_on_c, 0, 91, 88
2, 94020, Note_on_c, 0, 93, 88
2, 94080, Note_on_c, 0, 93, 0
2, 94080, Note_on_c, 0, 91, 0
2, 94080, Note_on_c, 0, 79, 0
2, 94080, Note_on_c, 0, 79, 88
2, 94080, Note_on_c, 0, 91, 88
2, 94103, Note_on_c, 0, 91, 0
2, 94103, Note_on_c, 0, 79, 0
2, 94320, Note_on_c, 0, 78, 88
2, 94320, Note_on_c, 0, 90, 88
2, 94343, Note_on_c, 0, 90, 0
2, 94343, Note_on_c, 0, 78, 0
2, 94560, Note_on_c, 0, 79, 88
2, 94560, Note_on_c, 0, 91, 88
2, 94583, Note_on_c, 0, 91, 0
2, 94583, Note_on_c, 0, 79, 0
2, 94800, Note_on_c, 0, 81, 88
2, 94800, Note_on_c, 0, 93, 88
2, 94823, Note_on_c, 0, 93, 0
2, 94823, Note_on_c, 0, 81, 0
2, 95040, Note_on_c, 0, 82, 88
2, 95040, Note_on_c, 0, 94, 88
2, 95760, Note_on_c, 0, 94, 0
2, 95760, Note_on_c, 0, 82, 0
2, 95760, Note_on_c, 0, 78, 88
2, 95760, Note_on_c, 0, 90, 88
2, 95940, Note_on_c, 0, 93, 88
2, 96000, Note_on_c, 0, 93, 0
2, 96000, Note_on_c, 0, 90, 0
2, 96000, Note_on_c, 0, 78, 0
2, 96000, Note_on_c, 0, 79, 88
2, 96000, Note_on_c, 0, 91, 88
2, 96023, Note_on_c, 0, 91, 0
2, 96023, Note_on_c, 0, 79, 0
2, 96240, Note_on_c, 0, 78, 88
2, 96240, Note_on_c, 0, 90, 88
2, 96263, Note_on_c, 0, 90, 0
2, 96263, Note_on_c, 0, 78, 0
2, 96480, Note_on_c, 0, 79, 88
2, 96480, Note_on_c, 0, 91, 88
2, 96960, Note_on_c, 0, 91, 0
2, 96960, Note_on_c, 0, 79, 0
2, 96960, Note_on_c, 0, 80, 88
2, 96960, Note_on_c, 0, 92, 88
2, 96983, Note_on_c, 0, 92, 0
2, 96983, Note_on_c, 0, 80, 0
2, 97200, Note_on_c, 0, 80, 88
2, 97200, Note_on_c, 0, 92, 88
2, 97223, Note_on_c, 0, 92, 0
2, 97223, Note_on_c, 0, 80, 0
2, 97440, Note_on_c, 0, 81, 88
2, 97440, Note_on_c, 0, 93, 88
2, 97463, Note_on_c, 0, 93, 0
2, 97463, Note_on_c, 0, 81, 0
2, 97680, Note_on_c, 0, 83, 88
2, 97680, Note_on_c, 0, 95, 88
2, 97703, Note_on_c, 0, 95, 0
2, 97703, Note_on_c, 0, 83, 0
2, 97920, Note_on_c, 0, 84, 88
2, 97920, Note_on_c, 0, 96, 88
2, 98640, Note_on_c, 0, 96, 0
2, 98640, Note_on_c, 0, 84, 0
2, 98640, Note_on_c, 0, 83, 88
2, 98640, Note_on_c, 0, 92, 88
2, 98880, Note_on_c, 0, 92, 0
2, 98880, Note_on_c, 0, 83, 0
2, 98880, Note_on_c, 0, 84, 88
2, 98880, Note_on_c, 0, 88, 88
2, 98880, Note_on_c, 0, 96, 88
2, 99600, Note_on_c, 0, 96, 0
2, 99600, Note_on_c, 0, 88, 0
2, 99600, Note_on_c, 0, 84, 0
2, 99600, Note_on_c, 0, 84, 88
2, 99600, Note_on_c, 0, 88, 88
2, 99600, Note_on_c, 0, 96, 88
2, 99840, Note_on_c, 0, 96, 0
2, 99840, Note_on_c, 0, 88, 0
2, 99840, Note_on_c, 0, 84, 0
2, 99840, Note_on_c, 0, 83, 88
2, 99840, Note_on_c, 0, 88, 88
2, 99840, Note_on_c, 0, 91, 88
2, 99840, Note_on_c, 0, 95, 88
2, 100320, Note_on_c, 0, 95, 0
2, 100320, Note_on_c, 0, 83, 0
2, 100320, Note_on_c, 0, 88, 0
2, 100320, Note_on_c, 0, 91, 0
2, 100320, Note_on_c, 0, 81, 88
2, 100320, Note_on_c, 0, 84, 88
2, 100320, Note_on_c, 0, 89, 88
2, 100320, Note_on_c, 0, 93, 88
2, 101040, Note_on_c, 0, 93, 0
2, 101040, Note_on_c, 0, 81, 0
2, 101040, Note_on_c, 0, 84, 0
2, 101040, Note_on_c, 0, 89, 0
2, 101040, Note_on_c, 0, 81, 88
2, 101040, Note_on_c, 0, 84, 88
2, 101040, Note_on_c, 0, 89, 88
2, 101040, Note_on_c, 0, 93, 88
2, 101280, Note_on_c, 0, 93, 0
2, 101280, Note_on_c, 0, 81, 0
2, 101280, Note_on_c, 0, 84, 0
2, 101280, Note_on_c, 0, 89, 0
2, 101280, Note_on_c, 0, 79, 88
2, 101280, Note_on_c, 0, 83, 88
2, 101280, Note_on_c, 0, 86, 88
2, 101280, Note_on_c, 0, 91, 88
2, 101760, Note_on_c, 0, 91, 0
2, 101760, Note_on_c, 0, 79, 0
2, 101760, Note_on_c, 0, 83, 0
2, 101760, Note_on_c, 0, 86, 0
2, 101760, Note_on_c, 0, 76, 88
2, 101760, Note_on_c, 0, 81, 88
2, 101760, Note_on_c, 0, 84, 88
2, 101760, Note_on_c, 0, 88, 88
2, 102480, Note_on_c, 0, 88, 0
2, 102480, Note_on_c, 0, 76, 0
2, 102480, Note_on_c, 0, 81, 0
2, 102480, Note_on_c, 0, 84, 0
2, 102480, Note_on_c, 0, 77, 88
2, 102480, Note_on_c, 0, 86, 88
2, 102720, Note_on_c, 0, 86, 0
2, 102720, Note_on_c, 0, 77, 0
2, 102720, Note_on_c, 0, 76, 88
2, 102720, Note_on_c, 0, 84, 88
2, 102960, Note_on_c, 0, 84, 0
2, 102960, Note_on_c, 0, 76, 0
2, 102960, Note_on_c, 0, 74, 88
2, 102960, Note_on_c, 0, 83, 88
2, 103200, Note_on_c, 0, 83, 0
2, 103200, Note_on_c, 0, 74, 0
2, 103200, Note_on_c, 0, 74, 88
2, 103200, Note_on_c, 0, 83, 88
2, 103920, Note_on_c, 0, 83, 0
2, 103920, Note_on_c, 0, 74, 0
2, 103920, Note_on_c, 0, 72, 88
2, 103920, Note_on_c, 0, 81, 88
2, 104160, Note_on_c, 0, 81, 0
2, 104160, Note_on_c, 0, 72, 0
2, 104160, Note_on_c, 0, 72, 88
2, 104160, Note_on_c, 0, 81, 88
2, 104640, Note_on_c, 0, 81, 0
2, 104640, Note_on_c, 0, 72, 0
2, 104640, Control_c, 0, 64, 127
2, 106080, Control_c, 0, 64, 0
2, 106080, End_track
3, 0, Start_track
3, 0, Title_t, "Instrument17"
3, 0, Program_c, 0, 0
3, 0, Control_c, 0, 7, 115
3, 0, Control_c, 0, 10, 79
3, 0, Note_on_c, 0, 71, 75
3, 60, Note_on_c, 0, 71, 0
3, 60, Note_on_c, 0, 69, 75
3, 77, Note_on_c, 0, 69, 0
3, 240, Note_on_c, 0, 68, 75
3, 263, Note_on_c, 0, 68, 0
3, 480, Note_on_c, 0, 69, 75
3, 900, Note_on_c, 0, 71, 75
3, 960, Note_on_c, 0, 71, 0
3, 960, Note_on_c, 0, 69, 0
3, 960, Note_on_c, 0, 69, 75
3, 983, Note_on_c, 0, 69, 0
3, 1200, Note_on_c, 0, 68, 75
3, 1223, Note_on_c, 0, 68, 0
3, 1440, Note_on_c, 0, 69, 75
3, 1463, Note_on_c, 0, 69, 0
3, 1680, Note_on_c, 0, 71, 75
3, 1703, Note_on_c, 0, 71, 0
3, 1920, Note_on_c, 0, 72, 101
3, 2640, Note_on_c, 0, 72, 0
3, 2640, Note_on_c, 0, 68, 75
3, 2820, Note_on_c, 0, 71, 75
3, 2880, Note_on_c, 0, 71, 0
3, 2880, Note_on_c, 0, 68, 0
3, 2880, Note_on_c, 0, 69, 75
3, 2903, Note_on_c, 0, 69, 0
3, 3120, Note_on_c, 0, 68, 75
3, 3143, Note_on_c, 0, 68, 0
3, 3360, Note_on_c, 0, 69, 75
3, 3407, Note_on_c, 0, 69, 0
3, 3780, Note_on_c, 0, 71, 75
3, 3840, Note_on_c, 0, 71, 0
3, 3840, Note_on_c, 0, 69, 75
3, 3863, Note_on_c, 0, 69, 0
3, 4080, Note_on_c, 0, 68, 75
3, 4103, Note_on_c, 0, 68, 0
3, 4320, Note_on_c, 0, 69, 75
3, 4343, Note_on_c, 0, 69, 0
3, 4560, Note_on_c, 0, 71, 75
3, 4583, Note_on_c, 0, 71, 0
3, 4800, Note_on_c, 0, 72, 75
3, 4823, Note_on_c, 0, 72, 0
3, 5040, Note_on_c, 0, 69, 75
3, 5063, Note_on_c, 0, 69, 0
3, 5280, Note_on_c, 0, 71, 75
3, 5700, Note_on_c, 0, 72, 75
3, 5760, Note_on_c, 0, 72, 0
3, 5760, Note_on_c, 0, 71, 0
3, 5760, Note_on_c, 0, 70, 75
3, 5783, Note_on_c, 0, 70, 0
3, 6000, Note_on_c, 0, 69, 75
3, 6023, Note_on_c, 0, 69, 0
3, 6240, Note_on_c, 0, 70, 75
3, 6660, Note_on_c, 0, 72, 75
3, 6720, Note_on_c, 0, 72, 0
3, 6720, Note_on_c, 0, 70, 0
3, 6720, Note_on_c, 0, 70, 75
3, 6743, Note_on_c, 0, 70, 0
3, 6960, Note_on_c, 0, 69, 75
3, 6983, Note_on_c, 0, 69, 0
3, 7200, Note_on_c, 0, 70, 75
3, 7223, Note_on_c, 0, 70, 0
3, 7440, Note_on_c, 0, 72, 75
3, 7463, Note_on_c, 0, 72, 0
3, 7680, Note_on_c, 0, 74, 101
3, 8400, Note_on_c, 0, 74, 0
3, 8400, Note_on_c, 0, 69, 75
3, 8580, Note_on_c, 0, 72, 75
3, 8640, Note_on_c, 0, 72, 0
3, 8640, Note_on_c, 0, 69, 0
3, 8640, Note_on_c, 0, 70, 75
3, 8663, Note_on_c, 0, 70, 0
3, 8880, Note_on_c, 0, 69, 75
3, 8903, Note_on_c, 0, 69, 0
3, 9120, Note_on_c, 0, 70, 75
3, 9600, Note_on_c, 0, 70, 0
3, 9600, Note_on_c, 0, 70, 75
3, 9623, Note_on_c, 0, 70, 0
3, 9840, Note_on_c, 0, 70, 75
3, 9863, Note_on_c, 0, 70, 0
3, 10080, Note_on_c, 0, 72, 75
3, 10103, Note_on_c, 0, 72, 0
3, 10320, Note_on_c, 0, 73, 75
3, 10343, Note_on_c, 0, 73, 0
3, 10560, Note_on_c, 0, 75, 101
3, 11280, Note_on_c, 0, 75, 0
3, 11280, Note_on_c, 0, 71, 75
3, 11520, Note_on_c, 0, 71, 0
3, 11520, Note_on_c, 0, 72, 75
3, 12000, Note_on_c, 0, 72, 0
3, 12240, Note_on_c, 0, 72, 62
3, 12480, Note_on_c, 0, 72, 0
3, 12480, Note_on_c, 0, 70, 62
3, 12960, Note_on_c, 0, 70, 0
3, 12960, Note_on_c, 0, 67, 49
3, 12960, Note_on_c, 0, 70, 49
3, 13440, Note_on_c, 0, 70, 0
3, 13440, Note_on_c, 0, 67, 0
3, 13680, Note_on_c, 0, 70, 49
3, 13920, Note_on_c, 0, 70, 0
3, 13920, Note_on_c, 0, 67, 49
3, 14400, Note_on_c, 0, 67, 0
3, 14400, Note_on_c, 0, 69, 49
3, 14400, Note_on_c, 0, 72, 49
3, 14880, Note_on_c, 0, 72, 0
3, 14880, Note_on_c, 0, 69, 0
3, 15120, Note_on_c, 0, 69, 49
3, 15120, Note_on_c, 0, 72, 49
3, 15360, Note_on_c, 0, 72, 0
3, 15360, Note_on_c, 0, 69, 0
3, 15360, Note_on_c, 0, 70, 49
3, 15840, Note_on_c, 0, 70, 0
3, 15840, Note_on_c, 0, 67, 49
3, 15840, Note_on_c, 0, 70, 49
3, 16320, Note_on_c, 0, 70, 0
3, 16320, Note_on_c, 0, 67, 0
3, 16560, Note_on_c, 0, 67, 49
3, 16560, Note_on_c, 0, 70, 49
3, 16800, Note_on_c, 0, 70, 0
3, 16800, Note_on_c, 0, 67, 0
3, 16800, Note_on_c, 0, 69, 49
3, 17280, Note_on_c, 0, 69, 0
3, 17700, Note_on_c, 0, 74, 49
3, 17760, Note_on_c, 0, 74, 0
3, 17760, Note_on_c, 0, 69, 75
3, 17760, Note_on_c, 0, 72, 75
3, 17783, Note_on_c, 0, 72, 0
3, 17783, Note_on_c, 0, 69, 0
3, 18000, Note_on_c, 0, 68, 75
3, 18000, Note_on_c, 0, 71, 75
3, 18023, Note_on_c, 0, 71, 0
3, 18023, Note_on_c, 0, 68, 0
3, 18240, Note_on_c, 0, 69, 75
3, 18240, Note_on_c, 0, 72, 75
3, 18660, Note_on_c, 0, 74, 75
3, 18720, Note_on_c, 0, 74, 0
3, 18720, Note_on_c, 0, 72, 0
3, 18720, Note_on_c, 0, 69, 0
3, 18720, Note_on_c, 0, 69, 75
3, 18720, Note_on_c, 0, 72, 75
3, 18743, Note_on_c, 0, 72, 0
3, 18743, Note_on_c, 0, 69, 0
3, 18960, Note_on_c, 0, 68, 75
3, 18960, Note_on_c, 0, 71, 75
3, 18983, Note_on_c, 0, 71, 0
3, 18983, Note_on_c, 0, 68, 0
3, 19200, Note_on_c, 0, 69, 75
3, 19200, Note_on_c, 0, 72, 75
3, 19223, Note_on_c, 0, 72, 0
3, 19223, Note_on_c, 0, 69, 0
3, 19440, Note_on_c, 0, 71, 75
3, 19440, Note_on_c, 0, 74, 75
3, 19463, Note_on_c, 0, 74, 0
3, 19463, Note_on_c, 0, 71, 0
3, 19680, Note_on_c, 0, 72, 75
3, 19680, Note_on_c, 0, 76, 75
3, 20400, Note_on_c, 0, 76, 0
3, 20400, Note_on_c, 0, 72, 0
3, 20400, Note_on_c, 0, 68, 75
3, 20400, Note_on_c, 0, 71, 75
3, 20580, Note_on_c, 0, 74, 75
3, 20640, Note_on_c, 0, 74, 0
3, 20640, Note_on_c, 0, 71, 0
3, 20640, Note_on_c, 0, 68, 0
3, 20640, Note_on_c, 0, 69, 75
3, 20640, Note_on_c, 0, 72, 75
3, 20663, Note_on_c, 0, 72, 0
3, 20663, Note_on_c, 0, 69, 0
3, 20880, Note_on_c, 0, 68, 75
3, 20880, Note_on_c, 0, 71, 75
3, 20903, Note_on_c, 0, 71, 0
3, 20903, Note_on_c, 0, 68, 0
3, 21120, Note_on_c, 0, 69, 75
3, 21120, Note_on_c, 0, 72, 75
3, 21540, Note_on_c, 0, 74, 75
3, 21600, Note_on_c, 0, 74, 0
3, 21600, Note_on_c, 0, 72, 0
3, 21600, Note_on_c, 0, 69, 0
3, 21600, Note_on_c, 0, 69, 75
3, 21600, Note_on_c, 0, 72, 75
3, 21623, Note_on_c, 0, 72, 0
3, 21623, Note_on_c, 0, 69, 0
3, 21840, Note_on_c, 0, 68, 75
3, 21840, Note_on_c, 0, 71, 75
3, 21863, Note_on_c, 0, 71, 0
3, 21863, Note_on_c, 0, 68, 0
3, 22080, Note_on_c, 0, 69, 75
3, 22080, Note_on_c, 0, 72, 75
3, 22103, Note_on_c, 0, 72, 0
3, 22103, Note_on_c, 0, 69, 0
3, 22320, Note_on_c, 0, 71, 75
3, 22320, Note_on_c, 0, 74, 75
3, 22343, Note_on_c, 0, 74, 0
3, 22343, Note_on_c, 0, 71, 0
3, 22560, Note_on_c, 0, 72, 75
3, 22560, Note_on_c, 0, 76, 75
3, 22583, Note_on_c, 0, 76, 0
3, 22583, Note_on_c, 0, 72, 0
3, 22800, Note_on_c, 0, 69, 75
3, 22800, Note_on_c, 0, 78, 75
3, 22823, Note_on_c, 0, 78, 0
3, 22823, Note_on_c, 0, 69, 0
3, 23040, Note_on_c, 0, 71, 75
3, 23040, Note_on_c, 0, 79, 75
3, 23520, Note_on_c, 0, 79, 0
3, 23520, Note_on_c, 0, 71, 0
3, 23520, Note_on_c, 0, 70, 75
3, 23520, Note_on_c, 0, 74, 75
3, 23543, Note_on_c, 0, 74, 0
3, 23543, Note_on_c, 0, 70, 0
3, 23760, Note_on_c, 0, 69, 75
3, 23760, Note_on_c, 0, 74, 75
3, 23783, Note_on_c, 0, 74, 0
3, 23783, Note_on_c, 0, 69, 0
3, 24000, Note_on_c, 0, 70, 75
3, 24000, Note_on_c, 0, 74, 75
3, 24480, Note_on_c, 0, 74, 0
3, 24480, Note_on_c, 0, 70, 0
3, 24480, Note_on_c, 0, 70, 75
3, 24480, Note_on_c, 0, 74, 75
3, 24503, Note_on_c, 0, 74, 0
3, 24503, Note_on_c, 0, 70, 0
3, 24720, Note_on_c, 0, 69, 75
3, 24720, Note_on_c, 0, 74, 75
3, 24743, Note_on_c, 0, 74, 0
3, 24743, Note_on_c, 0, 69, 0
3, 24960, Note_on_c, 0, 70, 75
3, 24960, Note_on_c, 0, 74, 75
3, 24983, Note_on_c, 0, 74, 0
3, 24983, Note_on_c, 0, 70, 0
3, 25200, Note_on_c, 0, 72, 75
3, 25200, Note_on_c, 0, 74, 75
3, 25223, Note_on_c, 0, 74, 0
3, 25223, Note_on_c, 0, 72, 0
3, 25440, Note_on_c, 0, 74, 75
3, 26160, Note_on_c, 0, 74, 0
3, 26160, Note_on_c, 0, 69, 75
3, 26160, Note_on_c, 0, 74, 75
3, 26400, Note_on_c, 0, 74, 0
3, 26400, Note_on_c, 0, 69, 0
3, 26400, Note_on_c, 0, 70, 75
3, 26400, Note_on_c, 0, 74, 75
3, 26423, Note_on_c, 0, 74, 0
3, 26423, Note_on_c, 0, 70, 0
3, 26640, Note_on_c, 0, 69, 75
3, 26640, Note_on_c, 0, 74, 75
3, 26663, Note_on_c, 0, 74, 0
3, 26663, Note_on_c, 0, 69, 0
3, 26880, Note_on_c, 0, 70, 75
3, 26880, Note_on_c, 0, 74, 75
3, 27360, Note_on_c, 0, 74, 0
3, 27360, Note_on_c, 0, 70, 0
3, 27360, Note_on_c, 0, 70, 75
3, 27360, Note_on_c, 0, 75, 75
3, 27383, Note_on_c, 0, 75, 0
3, 27383, Note_on_c, 0, 70, 0
3, 27600, Note_on_c, 0, 70, 75
3, 27600, Note_on_c, 0, 75, 75
3, 27623, Note_on_c, 0, 75, 0
3, 27623, Note_on_c, 0, 70, 0
3, 27840, Note_on_c, 0, 72, 75
3, 27840, Note_on_c, 0, 75, 75
3, 27863, Note_on_c, 0, 75, 0
3, 27863, Note_on_c, 0, 72, 0
3, 28080, Note_on_c, 0, 73, 75
3, 28080, Note_on_c, 0, 75, 75
3, 28103, Note_on_c, 0, 75, 0
3, 28103, Note_on_c, 0, 73, 0
3, 28320, Note_on_c, 0, 75, 101
3, 29040, Note_on_c, 0, 75, 0
3, 29040, Note_on_c, 0, 70, 75
3, 29040, Note_on_c, 0, 79, 75
3, 29280, Note_on_c, 0, 79, 0
3, 29280, Note_on_c, 0, 70, 0
3, 29280, Note_on_c, 0, 75, 75
3, 29280, Note_on_c, 0, 80, 75
3, 29760, Note_on_c, 0, 80, 0
3, 29760, Note_on_c, 0, 75, 0
3, 30000, Note_on_c, 0, 75, 62
3, 30000, Note_on_c, 0, 80, 62
3, 30240, Note_on_c, 0, 80, 0
3, 30240, Note_on_c, 0, 75, 0
3, 30240, Note_on_c, 0, 73, 62
3, 30240, Note_on_c, 0, 79, 62
3, 30720, Note_on_c, 0, 79, 0
3, 30720, Note_on_c, 0, 73, 0
3, 30720, Note_on_c, 0, 70, 62
3, 30720, Note_on_c, 0, 76, 62
3, 31200, Note_on_c, 0, 76, 0
3, 31200, Note_on_c, 0, 70, 0
3, 31440, Note_on_c, 0, 70, 49
3, 31440, Note_on_c, 0, 76, 49
3, 31680, Note_on_c, 0, 76, 0
3, 31680, Note_on_c, 0, 70, 0
3, 31680, Note_on_c, 0, 67, 49
3, 31680, Note_on_c, 0, 72, 49
3, 32160, Note_on_c, 0, 72, 0
3, 32160, Note_on_c, 0, 67, 0
3, 32160, Note_on_c, 0, 72, 49
3, 32160, Note_on_c, 0, 81, 49
3, 32640, Note_on_c, 0, 81, 0
3, 32640, Note_on_c, 0, 72, 0
3, 32880, Note_on_c, 0, 72, 49
3, 32880, Note_on_c, 0, 81, 49
3, 33120, Note_on_c, 0, 81, 0
3, 33120, Note_on_c, 0, 72, 0
3, 33120, Note_on_c, 0, 74, 49
3, 33120, Note_on_c, 0, 79, 49
3, 33600, Note_on_c, 0, 79, 0
3, 33600, Note_on_c, 0, 74, 0
3, 33600, Note_on_c, 0, 70, 49
3, 33600, Note_on_c, 0, 76, 49
3, 34080, Note_on_c, 0, 76, 0
3, 34080, Note_on_c, 0, 70, 0
3, 34320, Note_on_c, 0, 70, 49
3, 34320, Note_on_c, 0, 76, 49
3, 34560, Note_on_c, 0, 76, 0
3, 34560, Note_on_c, 0, 70, 0
3, 34560, Note_on_c, 0, 69, 49
3, 34560, Note_on_c, 0, 72, 49
3, 35040, Note_on_c, 0, 72, 0
3, 35040, Note_on_c, 0, 69, 0
3, 35520, Note_on_c, 0, 69, 49
3, 35543, Note_on_c, 0, 69, 0
3, 35760, Note_on_c, 0, 68, 49
3, 35783, Note_on_c, 0, 68, 0
3, 36000, Note_on_c, 0, 69, 49
3, 36480, Note_on_c, 0, 69, 0
3, 36960, Note_on_c, 0, 69, 49
3, 36983, Note_on_c, 0, 69, 0
3, 37200, Note_on_c, 0, 68, 49
3, 37223, Note_on_c, 0, 68, 0
3, 37440, Note_on_c, 0, 69, 49
3, 38400, Note_on_c, 0, 69, 0
3, 38400, Note_on_c, 0, 68, 49
3, 38423, Note_on_c, 0, 68, 0
3, 38640, Note_on_c, 0, 68, 49
3, 38663, Note_on_c, 0, 68, 0
3, 38880, Note_on_c, 0, 68, 49
3, 39360, Note_on_c, 0, 68, 0
3, 39840, Note_on_c, 0, 68, 49
3, 39840, Note_on_c, 0, 77, 49
3, 39863, Note_on_c, 0, 77, 0
3, 39863, Note_on_c, 0, 68, 0
3, 40080, Note_on_c, 0, 76, 49
3, 40103, Note_on_c, 0, 76, 0
3, 40320, Note_on_c, 0, 77, 75
3, 41040, Note_on_c, 0, 77, 0
3, 41040, Note_on_c, 0, 73, 49
3, 41280, Note_on_c, 0, 73, 0
3, 41280, Note_on_c, 0, 75, 49
3, 41760, Note_on_c, 0, 75, 0
3, 42000, Note_on_c, 0, 72, 75
3, 42240, Note_on_c, 0, 72, 0
3, 42240, Note_on_c, 0, 73, 49
3, 42480, Note_on_c, 0, 73, 0
3, 42480, Note_on_c, 0, 70, 75
3, 42720, Note_on_c, 0, 70, 0
3, 42720, Note_on_c, 0, 72, 49
3, 43200, Note_on_c, 0, 72, 0
3, 43440, Note_on_c, 0, 68, 75
3, 43680, Note_on_c, 0, 68, 0
3, 43680, Note_on_c, 0, 71, 49
3, 43920, Note_on_c, 0, 71, 0
3, 43920, Note_on_c, 0, 68, 75
3, 44160, Note_on_c, 0, 68, 0
3, 44160, Note_on_c, 0, 75, 49
3, 44640, Note_on_c, 0, 75, 0
3, 44880, Note_on_c, 0, 72, 75
3, 45120, Note_on_c, 0, 72, 0
3, 45120, Note_on_c, 0, 73, 49
3, 45360, Note_on_c, 0, 73, 0
3, 45360, Note_on_c, 0, 70, 75
3, 45600, Note_on_c, 0, 70, 0
3, 45600, Note_on_c, 0, 72, 49
3, 46080, Note_on_c, 0, 72, 0
3, 46320, Note_on_c, 0, 68, 75
3, 46560, Note_on_c, 0, 68, 0
3, 46560, Note_on_c, 0, 71, 49
3, 46800, Note_on_c, 0, 71, 0
3, 46800, Note_on_c, 0, 68, 75
3, 47040, Note_on_c, 0, 68, 0
3, 47040, Note_on_c, 0, 71, 49
3, 47520, Note_on_c, 0, 71, 0
3, 47760, Note_on_c, 0, 71, 88
3, 48000, Note_on_c, 0, 71, 0
3, 48000, Note_on_c, 0, 71, 62
3, 48480, Note_on_c, 0, 71, 0
3, 48720, Note_on_c, 0, 69, 88
3, 48720, Note_on_c, 0, 72, 88
3, 48960, Note_on_c, 0, 72, 0
3, 48960, Note_on_c, 0, 69, 0
3, 48960, Note_on_c, 0, 68, 62
3, 48960, Note_on_c, 0, 71, 62
3, 49440, Note_on_c, 0, 71, 0
3, 49440, Note_on_c, 0, 68, 0
3, 49680, Note_on_c, 0, 77, 88
3, 49680, Note_on_c, 0, 81, 88
3, 49920, Note_on_c, 0, 81, 0
3, 49920, Note_on_c, 0, 77, 0
3, 49920, Note_on_c, 0, 76, 88
3, 49920, Note_on_c, 0, 80, 88
3, 50559, Note_on_c, 0, 80, 0
3, 50559, Note_on_c, 0, 76, 0
3, 50559, Control_c, 0, 64, 127
3, 50559, Note_on_c, 0, 79, 88
3, 50720, Note_on_c, 0, 79, 0
3, 50720, Note_on_c, 0, 77, 88
3, 50880, Note_on_c, 0, 77, 0
3, 50880, Note_on_c, 0, 76, 88
3, 51039, Note_on_c, 0, 76, 0
3, 51039, Note_on_c, 0, 74, 88
3, 51200, Note_on_c, 0, 74, 0
3, 51200, Note_on_c, 0, 72, 88
3, 51360, Note_on_c, 0, 72, 0
3, 51360, Note_on_c, 0, 71, 88
3, 51519, Note_on_c, 0, 71, 0
3, 51519, Note_on_c, 0, 69, 88
3, 51680, Note_on_c, 0, 69, 0
3, 51680, Note_on_c, 0, 67, 88
3, 51840, Note_on_c, 0, 67, 0
3, 51840, Note_on_c, 0, 65, 88
3, 51999, Note_on_c, 0, 65, 0
3, 51999, Note_on_c, 0, 64, 88
3, 52160, Note_on_c, 0, 64, 0
3, 52160, Note_on_c, 0, 66, 88
3, 52320, Note_on_c, 0, 66, 0
3, 52320, Note_on_c, 0, 68, 88
3, 52479, Note_on_c, 0, 68, 0
3, 52479, Note_on_c, 0, 69, 88
3, 52640, Note_on_c, 0, 69, 0
3, 52640, Control_c, 0, 64, 0
3, 52640, Note_on_c, 0, 71, 88
3, 52740, Note_on_c, 0, 74, 88
3, 52800, Note_on_c, 0, 74, 0
3, 52800, Note_on_c, 0, 71, 0
3, 52800, Note_on_c, 0, 69, 75
3, 52800, Note_on_c, 0, 72, 75
3, 52823, Note_on_c, 0, 72, 0
3, 52823, Note_on_c, 0, 69, 0
3, 53040, Note_on_c, 0, 68, 75
3, 53040, Note_on_c, 0, 71, 75
3, 53063, Note_on_c, 0, 71, 0
3, 53063, Note_on_c, 0, 68, 0
3, 53280, Note_on_c, 0, 69, 75
3, 53280, Note_on_c, 0, 72, 75
3, 53700, Note_on_c, 0, 74, 75
3, 53760, Note_on_c, 0, 74, 0
3, 53760, Note_on_c, 0, 72, 0
3, 53760, Note_on_c, 0, 69, 0
3, 53760, Note_on_c, 0, 69, 75
3, 53760, Note_on_c, 0, 72, 75
3, 53783, Note_on_c, 0, 72, 0
3, 53783, Note_on_c, 0, 69, 0
3, 54000, Note_on_c, 0, 68, 75
3, 54000, Note_on_c, 0, 71, 75
3, 54023, Note_on_c, 0, 71, 0
3, 54023, Note_on_c, 0, 68, 0
3, 54240, Note_on_c, 0, 69, 75
3, 54240, Note_on_c, 0, 72, 75
3, 54263, Note_on_c, 0, 72, 0
3, 54263, Note_on_c, 0, 69, 0
3, 54480, Note_on_c, 0, 71, 75
3, 54480, Note_on_c, 0, 74, 75
3, 54503, Note_on_c, 0, 74, 0
3, 54503, Note_on_c, 0, 71, 0
3, 54720, Note_on_c, 0, 72, 75
3, 54720, Note_on_c, 0, 76, 75
3, 55440, Note_on_c, 0, 76, 0
3, 55440, Note_on_c, 0, 72, 0
3, 55440, Note_on_c, 0, 68, 75
3, 55440, Note_on_c, 0, 71, 75
3, 55620, Note_on_c, 0, 74, 75
3, 55680, Note_on_c, 0, 74, 0
3, 55680, Note_on_c, 0, 71, 0
3, 55680, Note_on_c, 0, 68, 0
3, 55680, Note_on_c, 0, 69, 75
3, 55680, Note_on_c, 0, 72, 75
3, 55703, Note_on_c, 0, 72, 0
3, 55703, Note_on_c, 0, 69, 0
3, 55920, Note_on_c, 0, 68, 75
3, 55920, Note_on_c, 0, 71, 75
3, 55943, Note_on_c, 0, 71, 0
3, 55943, Note_on_c, 0, 68, 0
3, 56160, Note_on_c, 0, 69, 75
3, 56160, Note_on_c, 0, 72, 75
3, 56580, Note_on_c, 0, 74, 75
3, 56640, Note_on_c, 0, 74, 0
3, 56640, Note_on_c, 0, 72, 0
3, 56640, Note_on_c, 0, 69, 0
3, 56640, Note_on_c, 0, 69, 75
3, 56640, Note_on_c, 0, 72, 75
3, 56663, Note_on_c, 0, 72, 0
3, 56663, Note_on_c, 0, 69, 0
3, 56880, Note_on_c, 0, 68, 75
3, 56880, Note_on_c, 0, 71, 75
3, 56903, Note_on_c, 0, 71, 0
3, 56903, Note_on_c, 0, 68, 0
3, 57120, Note_on_c, 0, 69, 75
3, 57120, Note_on_c, 0, 72, 75
3, 57143, Note_on_c, 0, 72, 0
3, 57143, Note_on_c, 0, 69, 0
3, 57360, Note_on_c, 0, 71, 75
3, 57360, Note_on_c, 0, 74, 75
3, 57383, Note_on_c, 0, 74, 0
3, 57383, Note_on_c, 0, 71, 0
3, 57600, Note_on_c, 0, 72, 75
3, 57600, Note_on_c, 0, 76, 75
3, 57623, Note_on_c, 0, 76, 0
3, 57623, Note_on_c, 0, 72, 0
3, 57840, Note_on_c, 0, 69, 75
3, 57840, Note_on_c, 0, 78, 75
3, 57863, Note_on_c, 0, 78, 0
3, 57863, Note_on_c, 0, 69, 0
3, 58080, Note_on_c, 0, 71, 75
3, 58080, Note_on_c, 0, 79, 75
3, 58560, Note_on_c, 0, 79, 0
3, 58560, Note_on_c, 0, 71, 0
3, 58560, Note_on_c, 0, 70, 75
3, 58560, Note_on_c, 0, 74, 75
3, 58583, Note_on_c, 0, 74, 0
3, 58583, Note_on_c, 0, 70, 0
3, 58800, Note_on_c, 0, 69, 75
3, 58800, Note_on_c, 0, 74, 75
3, 58823, Note_on_c, 0, 74, 0
3, 58823, Note_on_c, 0, 69, 0
3, 59040, Note_on_c, 0, 70, 75
3, 59040, Note_on_c, 0, 74, 75
3, 59520, Note_on_c, 0, 74, 0
3, 59520, Note_on_c, 0, 70, 0
3, 59520, Note_on_c, 0, 70, 75
3, 59520, Note_on_c, 0, 74, 75
3, 59543, Note_on_c, 0, 74, 0
3, 59543, Note_on_c, 0, 70, 0
3, 59760, Note_on_c, 0, 69, 75
3, 59760, Note_on_c, 0, 74, 75
3, 59783, Note_on_c, 0, 74, 0
3, 59783, Note_on_c, 0, 69, 0
3, 60000, Note_on_c, 0, 70, 75
3, 60000, Note_on_c, 0, 74, 75
3, 60023, Note_on_c, 0, 74, 0
3, 60023, Note_on_c, 0, 70, 0
3, 60240, Note_on_c, 0, 72, 75
3, 60240, Note_on_c, 0, 74, 75
3, 60263, Note_on_c, 0, 74, 0
3, 60263, Note_on_c, 0, 72, 0
3, 60480, Note_on_c, 0, 74, 75
3, 61200, Note_on_c, 0, 74, 0
3, 61200, Note_on_c, 0, 69, 75
3, 61200, Note_on_c, 0, 74, 75
3, 61440, Note_on_c, 0, 74, 0
3, 61440, Note_on_c, 0, 69, 0
3, 61440, Note_on_c, 0, 70, 75
3, 61440, Note_on_c, 0, 74, 75
3, 61463, Note_on_c, 0, 74, 0
3, 61463, Note_on_c, 0, 70, 0
3, 61680, Note_on_c, 0, 69, 75
3, 61680, Note_on_c, 0, 74, 75
3, 61703, Note_on_c, 0, 74, 0
3, 61703, Note_on_c, 0, 69, 0
3, 61920, Note_on_c, 0, 70, 75
3, 61920, Note_on_c, 0, 74, 75
3, 62400, Note_on_c, 0, 74, 0
3, 62400, Note_on_c, 0, 70, 0
3, 62400, Note_on_c, 0, 71, 75
3, 62400, Note_on_c, 0, 76, 75
3, 62423, Note_on_c, 0, 76, 0
3, 62423, Note_on_c, 0, 71, 0
3, 62640, Note_on_c, 0, 71, 75
3, 62640, Note_on_c, 0, 76, 75
3, 62663, Note_on_c, 0, 76, 0
3, 62663, Note_on_c, 0, 71, 0
3, 62880, Note_on_c, 0, 72, 75
3, 62880, Note_on_c, 0, 76, 75
3, 62903, Note_on_c, 0, 76, 0
3, 62903, Note_on_c, 0, 72, 0
3, 63120, Note_on_c, 0, 74, 75
3, 63120, Note_on_c, 0, 76, 75
3, 63143, Note_on_c, 0, 76, 0
3, 63143, Note_on_c, 0, 74, 0
3, 63360, Note_on_c, 0, 76, 75
3, 64080, Note_on_c, 0, 76, 0
3, 64080, Note_on_c, 0, 71, 75
3, 64080, Note_on_c, 0, 80, 75
3, 64320, Note_on_c, 0, 80, 0
3, 64320, Note_on_c, 0, 71, 0
3, 64320, Note_on_c, 0, 72, 75
3, 64320, Note_on_c, 0, 76, 75
3, 64320, Note_on_c, 0, 81, 75
3, 65040, Note_on_c, 0, 81, 0
3, 65040, Note_on_c, 0, 76, 0
3, 65040, Note_on_c, 0, 72, 0
3, 65040, Note_on_c, 0, 72, 75
3, 65040, Note_on_c, 0, 76, 75
3, 65040, Note_on_c, 0, 81, 75
3, 65280, Note_on_c, 0, 81, 0
3, 65280, Note_on_c, 0, 76, 0
3, 65280, Note_on_c, 0, 72, 0
3, 65280, Note_on_c, 0, 71, 75
3, 65280, Note_on_c, 0, 76, 75
3, 65280, Note_on_c, 0, 79, 75
3, 65760, Note_on_c, 0, 79, 0
3, 65760, Note_on_c, 0, 76, 0
3, 65760, Note_on_c, 0, 71, 0
3, 65760, Note_on_c, 0, 69, 75
3, 65760, Note_on_c, 0, 72, 75
3, 65760, Note_on_c, 0, 77, 75
3, 66480, Note_on_c, 0, 77, 0
3, 66480, Note_on_c, 0, 72, 0
3, 66480, Note_on_c, 0, 69, 0
3, 66480, Note_on_c, 0, 69, 75
3, 66480, Note_on_c, 0, 72, 75
3, 66480, Note_on_c, 0, 77, 75
3, 66720, Note_on_c, 0, 77, 0
3, 66720, Note_on_c, 0, 72, 0
3, 66720, Note_on_c, 0, 69, 0
3, 66720, Note_on_c, 0, 67, 75
3, 66720, Note_on_c, 0, 71, 75
3, 66720, Note_on_c, 0, 74, 75
3, 67200, Note_on_c, 0, 74, 0
3, 67200, Note_on_c, 0, 71, 0
3, 67200, Note_on_c, 0, 67, 0
3, 67200, Note_on_c, 0, 64, 88
3, 67200, Note_on_c, 0, 69, 88
3, 67200, Note_on_c, 0, 72, 88
3, 67920, Note_on_c, 0, 72, 0
3, 67920, Note_on_c, 0, 69, 0
3, 67920, Note_on_c, 0, 64, 0
3, 67920, Note_on_c, 0, 65, 88
3, 67920, Note_on_c, 0, 74, 88
3, 68160, Note_on_c, 0, 74, 0
3, 68160, Note_on_c, 0, 65, 0
3, 68160, Note_on_c, 0, 64, 88
3, 68160, Note_on_c, 0, 72, 88
3, 68400, Note_on_c, 0, 72, 0
3, 68400, Note_on_c, 0, 64, 0
3, 68400, Note_on_c, 0, 62, 88
3, 68400, Note_on_c, 0, 71, 88
3, 68640, Note_on_c, 0, 71, 0
3, 68640, Note_on_c, 0, 62, 0
3, 68640, Note_on_c, 0, 62, 88
3, 68640, Note_on_c, 0, 71, 88
3, 69360, Note_on_c, 0, 71, 0
3, 69360, Note_on_c, 0, 62, 0
3, 69360, Note_on_c, 0, 60, 88
3, 69360, Note_on_c, 0, 69, 88
3, 69600, Note_on_c, 0, 69, 0
3, 69600, Note_on_c, 0, 60, 0
3, 69600, Note_on_c, 0, 60, 88
3, 69600, Note_on_c, 0, 69, 88
3, 70080, Note_on_c, 0, 69, 0
3, 70080, Note_on_c, 0, 60, 0
3, 70080, Note_on_c, 0, 69, 49
3, 70103, Note_on_c, 0, 69, 0
3, 70320, Note_on_c, 0, 68, 49
3, 70343, Note_on_c, 0, 68, 0
3, 70560, Note_on_c, 0, 69, 49
3, 71040, Note_on_c, 0, 69, 0
3, 71520, Note_on_c, 0, 69, 49
3, 71543, Note_on_c, 0, 69, 0
3, 71760, Note_on_c, 0, 68, 49
3, 71783, Note_on_c, 0, 68, 0
3, 72000, Note_on_c, 0, 69, 49
3, 72960, Note_on_c, 0, 69, 0
3, 72960, Note_on_c, 0, 68, 49
3, 72983, Note_on_c, 0, 68, 0
3, 73200, Note_on_c, 0, 68, 49
3, 73223, Note_on_c, 0, 68, 0
3, 73440, Note_on_c, 0, 68, 49
3, 73920, Note_on_c, 0, 68, 0
3, 74400, Note_on_c, 0, 68, 49
3, 74400, Note_on_c, 0, 77, 49
3, 74423, Note_on_c, 0, 77, 0
3, 74423, Note_on_c, 0, 68, 0
3, 74640, Note_on_c, 0, 76, 49
3, 74663, Note_on_c, 0, 76, 0
3, 74880, Note_on_c, 0, 77, 75
3, 75600, Note_on_c, 0, 77, 0
3, 75600, Note_on_c, 0, 73, 49
3, 75840, Note_on_c, 0, 73, 0
3, 75840, Note_on_c, 0, 75, 49
3, 76320, Note_on_c, 0, 75, 0
3, 76560, Note_on_c, 0, 72, 75
3, 76800, Note_on_c, 0, 72, 0
3, 76800, Note_on_c, 0, 73, 49
3, 77040, Note_on_c, 0, 73, 0
3, 77040, Note_on_c, 0, 70, 75
3, 77280, Note_on_c, 0, 70, 0
3, 77280, Note_on_c, 0, 72, 49
3, 77760, Note_on_c, 0, 72, 0
3, 78000, Note_on_c, 0, 68, 75
3, 78240, Note_on_c, 0, 68, 0
3, 78240, Note_on_c, 0, 71, 49
3, 78480, Note_on_c, 0, 71, 0
3, 78480, Note_on_c, 0, 68, 75
3, 78720, Note_on_c, 0, 68, 0
3, 78720, Note_on_c, 0, 75, 49
3, 79200, Note_on_c, 0, 75, 0
3, 79440, Note_on_c, 0, 72, 75
3, 79680, Note_on_c, 0, 72, 0
3, 79680, Note_on_c, 0, 73, 49
3, 79920, Note_on_c, 0, 73, 0
3, 79920, Note_on_c, 0, 70, 75
3, 80160, Note_on_c, 0, 70, 0
3, 80160, Note_on_c, 0, 72, 49
3, 80640, Note_on_c, 0, 72, 0
3, 80880, Note_on_c, 0, 68, 75
3, 81120, Note_on_c, 0, 68, 0
3, 81120, Note_on_c, 0, 71, 49
3, 81360, Note_on_c, 0, 71, 0
3, 81360, Note_on_c, 0, 68, 75
3, 81600, Note_on_c, 0, 68, 0
3, 81600, Note_on_c, 0, 71, 49
3, 82080, Note_on_c, 0, 71, 0
3, 82320, Note_on_c, 0, 71, 88
3, 82560, Note_on_c, 0, 71, 0
3, 82560, Note_on_c, 0, 71, 62
3, 83040, Note_on_c, 0, 71, 0
3, 83280, Note_on_c, 0, 69, 88
3, 83280, Note_on_c, 0, 72, 88
3, 83520, Note_on_c, 0, 72, 0
3, 83520, Note_on_c, 0, 69, 0
3, 83520, Note_on_c, 0, 68, 62
3, 83520, Note_on_c, 0, 71, 62
3, 84000, Note_on_c, 0, 71, 0
3, 84000, Note_on_c, 0, 68, 0
3, 84240, Note_on_c, 0, 77, 88
3, 84240, Note_on_c, 0, 81, 88
3, 84480, Note_on_c, 0, 81, 0
3, 84480, Note_on_c, 0, 77, 0
3, 84480, Note_on_c, 0, 76, 88
3, 84480, Note_on_c, 0, 80, 88
3, 85119, Note_on_c, 0, 80, 0
3, 85119, Note_on_c, 0, 76, 0
3, 85119, Control_c, 0, 64, 127
3, 85119, Note_on_c, 0, 79, 88
3, 85280, Note_on_c, 0, 79, 0
3, 85280, Note_on_c, 0, 77, 88
3, 85440, Note_on_c, 0, 77, 0
3, 85440, Note_on_c, 0, 76, 88
3, 85599, Note_on_c, 0, 76, 0
3, 85599, Note_on_c, 0, 74, 88
3, 85760, Note_on_c, 0, 74, 0
3, 85760, Note_on_c, 0, 72, 88
3, 85920, Note_on_c, 0, 72, 0
3, 85920, Note_on_c, 0, 71, 88
3, 86079, Note_on_c, 0, 71, 0
3, 86079, Note_on_c, 0, 69, 88
3, 86240, Note_on_c, 0, 69, 0
3, 86240, Note_on_c, 0, 67, 88
3, 86400, Note_on_c, 0, 67, 0
3, 86400, Note_on_c, 0, 65, 88
3, 86559, Note_on_c, 0, 65, 0
3, 86559, Note_on_c, 0, 64, 88
3, 86720, Note_on_c, 0, 64, 0
3, 86720, Note_on_c, 0, 66, 88
3, 86880, Note_on_c, 0, 66, 0
3, 86880, Note_on_c, 0, 68, 88
3, 87039, Note_on_c, 0, 68, 0
3, 87039, Note_on_c, 0, 69, 88
3, 87200, Note_on_c, 0, 69, 0
3, 87200, Control_c, 0, 64, 0
3, 87200, Note_on_c, 0, 71, 88
3, 87300, Note_on_c, 0, 74, 88
3, 87360, Note_on_c, 0, 74, 0
3, 87360, Note_on_c, 0, 71, 0
3, 87360, Note_on_c, 0, 69, 75
3, 87360, Note_on_c, 0, 72, 75
3, 87383, Note_on_c, 0, 72, 0
3, 87383, Note_on_c, 0, 69, 0
3, 87600, Note_on_c, 0, 68, 75
3, 87600, Note_on_c, 0, 71, 75
3, 87623, Note_on_c, 0, 71, 0
3, 87623, Note_on_c, 0, 68, 0
3, 87840, Note_on_c, 0, 69, 75
3, 87840, Note_on_c, 0, 72, 75
3, 88260, Note_on_c, 0, 74, 75
3, 88320, Note_on_c, 0, 74, 0
3, 88320, Note_on_c, 0, 72, 0
3, 88320, Note_on_c, 0, 69, 0
3, 88320, Note_on_c, 0, 69, 75
3, 88320, Note_on_c, 0, 72, 75
3, 88343, Note_on_c, 0, 72, 0
3, 88343, Note_on_c, 0, 69, 0
3, 88560, Note_on_c, 0, 68, 75
3, 88560, Note_on_c, 0, 71, 75
3, 88583, Note_on_c, 0, 71, 0
3, 88583, Note_on_c, 0, 68, 0
3, 88800, Note_on_c, 0, 69, 75
3, 88800, Note_on_c, 0, 72, 75
3, 88823, Note_on_c, 0, 72, 0
3, 88823, Note_on_c, 0, 69, 0
3, 89040, Note_on_c, 0, 71, 75
3, 89040, Note_on_c, 0, 74, 75
3, 89063, Note_on_c, 0, 74, 0
3, 89063, Note_on_c, 0, 71, 0
3, 89280, Note_on_c, 0, 72, 75
3, 89280, Note_on_c, 0, 76, 75
3, 90000, Note_on_c, 0, 76, 0
3, 90000, Note_on_c, 0, 72, 0
3, 90000, Note_on_c, 0, 68, 75
3, 90000, Note_on_c, 0, 71, 75
3, 90180, Note_on_c, 0, 74, 75
3, 90240, Note_on_c, 0, 74, 0
3, 90240, Note_on_c, 0, 71, 0
3, 90240, Note_on_c, 0, 68, 0
3, 90240, Note_on_c, 0, 69, 75
3, 90240, Note_on_c, 0, 72, 75
3, 90263, Note_on_c, 0, 72, 0
3, 90263, Note_on_c, 0, 69, 0
3, 90480, Note_on_c, 0, 68, 75
3, 90480, Note_on_c, 0, 71, 75
3, 90503, Note_on_c, 0, 71, 0
3, 90503, Note_on_c, 0, 68, 0
3, 90720, Note_on_c, 0, 69, 75
3, 90720, Note_on_c, 0, 72, 75
3, 91140, Note_on_c, 0, 74, 75
3, 91200, Note_on_c, 0, 74, 0
3, 91200, Note_on_c, 0, 72, 0
3, 91200, Note_on_c, 0, 69, 0
3, 91200, Note_on_c, 0, 69, 75
3, 91200, Note_on_c, 0, 72, 75
3, 91223, Note_on_c, 0, 72, 0
3, 91223, Note_on_c, 0, 69, 0
3, 91440, Note_on_c, 0, 68, 75
3, 91440, Note_on_c, 0, 71, 75
3, 91463, Note_on_c, 0, 71, 0
3, 91463, Note_on_c, 0, 68, 0
3, 91680, Note_on_c, 0, 69, 75
3, 91680, Note_on_c, 0, 72, 75
3, 91703, Note_on_c, 0, 72, 0
3, 91703, Note_on_c, 0, 69, 0
3, 91920, Note_on_c, 0, 71, 75
3, 91920, Note_on_c, 0, 74, 75
3, 91943, Note_on_c, 0, 74, 0
3, 91943, Note_on_c, 0, 71, 0
3, 92160, Note_on_c, 0, 72, 75
3, 92160, Note_on_c, 0, 76, 75
3, 92183, Note_on_c, 0, 76, 0
3, 92183, Note_on_c, 0, 72, 0
3, 92400, Note_on_c, 0, 69, 75
3, 92400, Note_on_c, 0, 78, 75
3, 92423, Note_on_c, 0, 78, 0
3, 92423, Note_on_c, 0, 69, 0
3, 92640, Note_on_c, 0, 71, 75
3, 92640, Note_on_c, 0, 79, 75
3, 93120, Note_on_c, 0, 79, 0
3, 93120, Note_on_c, 0, 71, 0
3, 93120, Note_on_c, 0, 70, 75
3, 93120, Note_on_c, 0, 74, 75
3, 93143, Note_on_c, 0, 74, 0
3, 93143, Note_on_c, 0, 70, 0
3, 93360, Note_on_c, 0, 69, 75
3, 93360, Note_on_c, 0, 74, 75
3, 93383, Note_on_c, 0, 74, 0
3, 93383, Note_on_c, 0, 69, 0
3, 93600, Note_on_c, 0, 70, 75
3, 93600, Note_on_c, 0, 74, 75
3, 94080, Note_on_c, 0, 74, 0
3, 94080, Note_on_c, 0, 70, 0
3, 94080, Note_on_c, 0, 70, 75
3, 94080, Note_on_c, 0, 74, 75
3, 94103, Note_on_c, 0, 74, 0
3, 94103, Note_on_c, 0, 70, 0
3, 94320, Note_on_c, 0, 69, 75
3, 94320, Note_on_c, 0, 74, 75
3, 94343, Note_on_c, 0, 74, 0
3, 94343, Note_on_c, 0, 69, 0
3, 94560, Note_on_c, 0, 70, 75
3, 94560, Note_on_c, 0, 74, 75
3, 94583, Note_on_c, 0, 74, 0
3, 94583, Note_on_c, 0, 70, 0
3, 94800, Note_on_c, 0, 72, 75
3, 94800, Note_on_c, 0, 74, 75
3, 94823, Note_on_c, 0, 74, 0
3, 94823, Note_on_c, 0, 72, 0
3, 95040, Note_on_c, 0, 74, 75
3, 95760, Note_on_c, 0, 74, 0
3, 95760, Note_on_c, 0, 69, 75
3, 95760, Note_on_c, 0, 74, 75
3, 96000, Note_on_c, 0, 74, 0
3, 96000, Note_on_c, 0, 69, 0
3, 96000, Note_on_c, 0, 70, 75
3, 96000, Note_on_c, 0, 74, 75
3, 96023, Note_on_c, 0, 74, 0
3, 96023, Note_on_c, 0, 70, 0
3, 96240, Note_on_c, 0, 69, 75
3, 96240, Note_on_c, 0, 74, 75
3, 96263, Note_on_c, 0, 74, 0
3, 96263, Note_on_c, 0, 69, 0
3, 96480, Note_on_c, 0, 70, 75
3, 96480, Note_on_c, 0, 74, 75
3, 96960, Note_on_c, 0, 74, 0
3, 96960, Note_on_c, 0, 70, 0
3, 96960, Note_on_c, 0, 71, 75
3, 96960, Note_on_c, 0, 76, 75
3, 96983, Note_on_c, 0, 76, 0
3, 96983, Note_on_c, 0, 71, 0
3, 97200, Note_on_c, 0, 71, 75
3, 97200, Note_on_c, 0, 76, 75
3, 97223, Note_on_c, 0, 76, 0
3, 97223, Note_on_c, 0, 71, 0
3, 97440, Note_on_c, 0, 72, 75
3, 97440, Note_on_c, 0, 76, 75
3, 97463, Note_on_c, 0, 76, 0
3, 97463, Note_on_c, 0, 72, 0
3, 97680, Note_on_c, 0, 74, 75
3, 97680, Note_on_c, 0, 76, 75
3, 97703, Note_on_c, 0, 76, 0
3, 97703, Note_on_c, 0, 74, 0
3, 97920, Note_on_c, 0, 76, 75
3, 98640, Note_on_c, 0, 76, 0
3, 98640, Note_on_c, 0, 71, 75
3, 98640, Note_on_c, 0, 80, 75
3, 98880, Note_on_c, 0, 80, 0
3, 98880, Note_on_c, 0, 71, 0
3, 98880, Note_on_c, 0, 72, 75
3, 98880, Note_on_c, 0, 76, 75
3, 98880, Note_on_c, 0, 81, 75
3, 99600, Note_on_c, 0, 81, 0
3, 99600, Note_on_c, 0, 76, 0
3, 99600, Note_on_c, 0, 72, 0
3, 99600, Note_on_c, 0, 72, 75
3, 99600, Note_on_c, 0, 76, 75
3, 99600, Note_on_c, 0, 81, 75
3, 99840, Note_on_c, 0, 81, 0
3, 99840, Note_on_c, 0, 76, 0
3, 99840, Note_on_c, 0, 72, 0
3, 99840, Note_on_c, 0, 71, 75
3, 99840, Note_on_c, 0, 76, 75
3, 99840, Note_on_c, 0, 79, 75
3, 100320, Note_on_c, 0, 79, 0
3, 100320, Note_on_c, 0, 76, 0
3, 100320, Note_on_c, 0, 71, 0
3, 100320, Note_on_c, 0, 69, 75
3, 100320, Note_on_c, 0, 72, 75
3, 100320, Note_on_c, 0, 77, 75
3, 101040, Note_on_c, 0, 77, 0
3, 101040, Note_on_c, 0, 72, 0
3, 101040, Note_on_c, 0, 69, 0
3, 101040, Note_on_c, 0, 69, 75
3, 101040, Note_on_c, 0, 72, 75
3, 101040, Note_on_c, 0, 77, 75
3, 101280, Note_on_c, 0, 77, 0
3, 101280, Note_on_c, 0, 72, 0
3, 101280, Note_on_c, 0, 69, 0
3, 101280, Note_on_c, 0, 67, 75
3, 101280, Note_on_c, 0, 71, 75
3, 101280, Note_on_c, 0, 74, 75
3, 101760, Note_on_c, 0, 74, 0
3, 101760, Note_on_c, 0, 71, 0
3, 101760, Note_on_c, 0, 67, 0
3, 101760, Note_on_c, 0, 64, 88
3, 101760, Note_on_c, 0, 69, 88
3, 101760, Note_on_c, 0, 72, 88
3, 102480, Note_on_c, 0, 72, 0
3, 102480, Note_on_c, 0, 69, 0
3, 102480, Note_on_c, 0, 64, 0
3, 102480, Note_on_c, 0, 65, 88
3, 102480, Note_on_c, 0, 74, 88
3, 102720, Note_on_c, 0, 74, 0
3, 102720, Note_on_c, 0, 65, 0
3, 102720, Note_on_c, 0, 64, 88
3, 102720, Note_on_c, 0, 72, 88
3, 102960, Note_on_c, 0, 72, 0
3, 102960, Note_on_c, 0, 64, 0
3, 102960, Note_on_c, 0, 62, 88
3, 102960, Note_on_c, 0, 71, 88
3, 103200, Note_on_c, 0, 71, 0
3, 103200, Note_on_c, 0, 62, 0
3, 103200, Note_on_c, 0, 62, 88
3, 103200, Note_on_c, 0, 71, 88
3, 103920, Note_on_c, 0, 71, 0
3, 103920, Note_on_c, 0, 62, 0
3, 103920, Note_on_c, 0, 60, 88
3, 103920, Note_on_c, 0, 69, 88
3, 104160, Note_on_c, 0, 69, 0
3, 104160, Note_on_c, 0, 60, 0
3, 104160, Note_on_c, 0, 60, 88
3, 104160, Note_on_c, 0, 69, 88
3, 104640, Note_on_c, 0, 69, 0
3, 104640, Note_on_c, 0, 60, 0
3, 104640, End_track
4, 0, Start_track
4, 0, Title_t, "Instrument18"
4, 0, Program_c, 0, 0
4, 0, Control_c, 0, 7, 115
4, 0, Control_c, 0, 10, 47
4, 240, Note_on_c, 0, 52, 75
4, 240, Note_on_c, 0, 64, 75
4, 263, Note_on_c, 0, 64, 0
4, 263, Note_on_c, 0, 52, 0
4, 720, Note_on_c, 0, 52, 75
4, 720, Note_on_c, 0, 64, 75
4, 743, Note_on_c, 0, 64, 0
4, 743, Note_on_c, 0, 52, 0
4, 1200, Note_on_c, 0, 52, 75
4, 1200, Note_on_c, 0, 64, 75
4, 1223, Note_on_c, 0, 64, 0
4, 1223, Note_on_c, 0, 52, 0
4, 1680, Note_on_c, 0, 52, 75
4, 1680, Note_on_c, 0, 64, 75
4, 1703, Note_on_c, 0, 64, 0
4, 1703, Note_on_c, 0, 52, 0
4, 2160, Note_on_c, 0, 52, 75
4, 2160, Note_on_c, 0, 64, 75
4, 2183, Note_on_c, 0, 64, 0
4, 2183, Note_on_c, 0, 52, 0
4, 2640, Note_on_c, 0, 52, 75
4, 2640, Note_on_c, 0, 64, 75
4, 2663, Note_on_c, 0, 64, 0
4, 2663, Note_on_c, 0, 52, 0
4, 3120, Note_on_c, 0, 52, 75
4, 3120, Note_on_c, 0, 64, 75
4, 3143, Note_on_c, 0, 64, 0
4, 3143, Note_on_c, 0, 52, 0
4, 3600, Note_on_c, 0, 52, 75
4, 3600, Note_on_c, 0, 64, 75
4, 3623, Note_on_c, 0, 64, 0
4, 3623, Note_on_c, 0, 52, 0
4, 4080, Note_on_c, 0, 52, 75
4, 4080, Note_on_c, 0, 64, 75
4, 4103, Note_on_c, 0, 64, 0
4, 4103, Note_on_c, 0, 52, 0
4, 4560, Note_on_c, 0, 50, 75
4, 4560, Note_on_c, 0, 62, 75
4, 4583, Note_on_c, 0, 62, 0
4, 4583, Note_on_c, 0, 50, 0
4, 5040, Note_on_c, 0, 50, 75
4, 5040, Note_on_c, 0, 62, 75
4, 5063, Note_on_c, 0, 62, 0
4, 5063, Note_on_c, 0, 50, 0
4, 5520, Note_on_c, 0, 50, 75
4, 5520, Note_on_c, 0, 62, 75
4, 5543, Note_on_c, 0, 62, 0
4, 5543, Note_on_c, 0, 50, 0
4, 6000, Note_on_c, 0, 50, 75
4, 6000, Note_on_c, 0, 62, 75
4, 6023, Note_on_c, 0, 62, 0
4, 6023, Note_on_c, 0, 50, 0
4, 6480, Note_on_c, 0, 50, 75
4, 6480, Note_on_c, 0, 62, 75
4, 6503, Note_on_c, 0, 62, 0
4, 6503, Note_on_c, 0, 50, 0
4, 6960, Note_on_c, 0, 50, 75
4, 6960, Note_on_c, 0, 62, 75
4, 6983, Note_on_c, 0, 62, 0
4, 6983, Note_on_c, 0, 50, 0
4, 7440, Note_on_c, 0, 50, 75
4, 7440, Note_on_c, 0, 62, 75
4, 7463, Note_on_c, 0, 62, 0
4, 7463, Note_on_c, 0, 50, 0
4, 7920, Note_on_c, 0, 50, 75
4, 7920, Note_on_c, 0, 62, 75
4, 7943, Note_on_c, 0, 62, 0
4, 7943, Note_on_c, 0, 50, 0
4, 8400, Note_on_c, 0, 50, 75
4, 8400, Note_on_c, 0, 62, 75
4, 8423, Note_on_c, 0, 62, 0
4, 8423, Note_on_c, 0, 50, 0
4, 8880, Note_on_c, 0, 50, 75
4, 8880, Note_on_c, 0, 62, 75
4, 8903, Note_on_c, 0, 62, 0
4, 8903, Note_on_c, 0, 50, 0
4, 9360, Note_on_c, 0, 50, 75
4, 9360, Note_on_c, 0, 62, 75
4, 9383, Note_on_c, 0, 62, 0
4, 9383, Note_on_c, 0, 50, 0
4, 9840, Note_on_c, 0, 51, 75
4, 9840, Note_on_c, 0, 63, 75
4, 9863, Note_on_c, 0, 63, 0
4, 9863, Note_on_c, 0, 51, 0
4, 10320, Note_on_c, 0, 51, 75
4, 10320, Note_on_c, 0, 63, 75
4, 10343, Note_on_c, 0, 63, 0
4, 10343, Note_on_c, 0, 51, 0
4, 10800, Note_on_c, 0, 51, 75
4, 10800, Note_on_c, 0, 63, 75
4, 10823, Note_on_c, 0, 63, 0
4, 10823, Note_on_c, 0, 51, 0
4, 11280, Note_on_c, 0, 51, 75
4, 11280, Note_on_c, 0, 63, 75
4, 11303, Note_on_c, 0, 63, 0
4, 11303, Note_on_c, 0, 51, 0
4, 11760, Note_on_c, 0, 51, 75
4, 11760, Note_on_c, 0, 63, 75
4, 12000, Note_on_c, 0, 63, 0
4, 12000, Note_on_c, 0, 51, 0
4, 12240, Note_on_c, 0, 51, 75
4, 12240, Note_on_c, 0, 63, 75
4, 12480, Note_on_c, 0, 63, 0
4, 12480, Note_on_c, 0, 51, 0
4, 12720, Note_on_c, 0, 49, 75
4, 12720, Note_on_c, 0, 61, 75
4, 12960, Note_on_c, 0, 61, 0
4, 12960, Note_on_c, 0, 49, 0
4, 13200, Note_on_c, 0, 48, 62
4, 13200, Note_on_c, 0, 60, 62
4, 13440, Note_on_c, 0, 60, 0
4, 13440, Note_on_c, 0, 48, 0
4, 13680, Note_on_c, 0, 48, 62
4, 13680, Note_on_c, 0, 60, 62
4, 13920, Note_on_c, 0, 60, 0
4, 13920, Note_on_c, 0, 48, 0
4, 14160, Note_on_c, 0, 48, 62
4, 14160, Note_on_c, 0, 60, 62
4, 14400, Note_on_c, 0, 60, 0
4, 14400, Note_on_c, 0, 48, 0
4, 14640, Note_on_c, 0, 48, 62
4, 14640, Note_on_c, 0, 60, 62
4, 14880, Note_on_c, 0, 60, 0
4, 14880, Note_on_c, 0, 48, 0
4, 15120, Note_on_c, 0, 48, 62
4, 15120, Note_on_c, 0, 60, 62
4, 15360, Note_on_c, 0, 60, 0
4, 15360, Note_on_c, 0, 48, 0
4, 15600, Note_on_c, 0, 55, 62
4, 15600, Note_on_c, 0, 58, 62
4, 15840, Note_on_c, 0, 58, 0
4, 15840, Note_on_c, 0, 55, 0
4, 16080, Note_on_c, 0, 55, 49
4, 16080, Note_on_c, 0, 60, 49
4, 16320, Note_on_c, 0, 60, 0
4, 16320, Note_on_c, 0, 55, 0
4, 16560, Note_on_c, 0, 55, 49
4, 16560, Note_on_c, 0, 60, 49
4, 16800, Note_on_c, 0, 60, 0
4, 16800, Note_on_c, 0, 55, 0
4, 17040, Note_on_c, 0, 57, 49
4, 17040, Note_on_c, 0, 60, 49
4, 17280, Note_on_c, 0, 60, 0
4, 17280, Note_on_c, 0, 57, 0
4, 18000, Note_on_c, 0, 52, 75
4, 18000, Note_on_c, 0, 64, 75
4, 18023, Note_on_c, 0, 64, 0
4, 18023, Note_on_c, 0, 52, 0
4, 18480, Note_on_c, 0, 52, 75
4, 18480, Note_on_c, 0, 64, 75
4, 18503, Note_on_c, 0, 64, 0
4, 18503, Note_on_c, 0, 52, 0
4, 18960, Note_on_c, 0, 52, 75
4, 18960, Note_on_c, 0, 64, 75
4, 18983, Note_on_c, 0, 64, 0
4, 18983, Note_on_c, 0, 52, 0
4, 19440, Note_on_c, 0, 52, 75
4, 19440, Note_on_c, 0, 64, 75
4, 19463, Note_on_c, 0, 64, 0
4, 19463, Note_on_c, 0, 52, 0
4, 19920, Note_on_c, 0, 52, 75
4, 19920, Note_on_c, 0, 64, 75
4, 19943, Note_on_c, 0, 64, 0
4, 19943, Note_on_c, 0, 52, 0
4, 20400, Note_on_c, 0, 52, 75
4, 20400, Note_on_c, 0, 64, 75
4, 20423, Note_on_c, 0, 64, 0
4, 20423, Note_on_c, 0, 52, 0
4, 20880, Note_on_c, 0, 52, 75
4, 20880, Note_on_c, 0, 64, 75
4, 20903, Note_on_c, 0, 64, 0
4, 20903, Note_on_c, 0, 52, 0
4, 21360, Note_on_c, 0, 52, 75
4, 21360, Note_on_c, 0, 64, 75
4, 21383, Note_on_c, 0, 64, 0
4, 21383, Note_on_c, 0, 52, 0
4, 21840, Note_on_c, 0, 52, 75
4, 21840, Note_on_c, 0, 64, 75
4, 21863, Note_on_c, 0, 64, 0
4, 21863, Note_on_c, 0, 52, 0
4, 22320, Note_on_c, 0, 50, 75
4, 22320, Note_on_c, 0, 62, 75
4, 22343, Note_on_c, 0, 62, 0
4, 22343, Note_on_c, 0, 50, 0
4, 22800, Note_on_c, 0, 50, 75
4, 22800, Note_on_c, 0, 62, 75
4, 22823, Note_on_c, 0, 62, 0
4, 22823, Note_on_c, 0, 50, 0
4, 23280, Note_on_c, 0, 50, 75
4, 23280, Note_on_c, 0, 62, 75
4, 23303, Note_on_c, 0, 62, 0
4, 23303, Note_on_c, 0, 50, 0
4, 23760, Note_on_c, 0, 50, 75
4, 23760, Note_on_c, 0, 62, 75
4, 23783, Note_on_c, 0, 62, 0
4, 23783, Note_on_c, 0, 50, 0
4, 24240, Note_on_c, 0, 50, 75
4, 24240, Note_on_c, 0, 62, 75
4, 24263, Note_on_c, 0, 62, 0
4, 24263, Note_on_c, 0, 50, 0
4, 24720, Note_on_c, 0, 50, 75
4, 24720, Note_on_c, 0, 62, 75
4, 24743, Note_on_c, 0, 62, 0
4, 24743, Note_on_c, 0, 50, 0
4, 25200, Note_on_c, 0, 50, 75
4, 25200, Note_on_c, 0, 62, 75
4, 25223, Note_on_c, 0, 62, 0
4, 25223, Note_on_c, 0, 50, 0
4, 25680, Note_on_c, 0, 50, 75
4, 25680, Note_on_c, 0, 62, 75
4, 25703, Note_on_c, 0, 62, 0
4, 25703, Note_on_c, 0, 50, 0
4, 26160, Note_on_c, 0, 50, 75
4, 26160, Note_on_c, 0, 62, 75
4, 26183, Note_on_c, 0, 62, 0
4, 26183, Note_on_c, 0, 50, 0
4, 26640, Note_on_c, 0, 50, 75
4, 26640, Note_on_c, 0, 62, 75
4, 26663, Note_on_c, 0, 62, 0
4, 26663, Note_on_c, 0, 50, 0
4, 27120, Note_on_c, 0, 50, 75
4, 27120, Note_on_c, 0, 62, 75
4, 27143, Note_on_c, 0, 62, 0
4, 27143, Note_on_c, 0, 50, 0
4, 27600, Note_on_c, 0, 51, 75
4, 27600, Note_on_c, 0, 63, 75
4, 27623, Note_on_c, 0, 63, 0
4, 27623, Note_on_c, 0, 51, 0
4, 28080, Note_on_c, 0, 51, 75
4, 28080, Note_on_c, 0, 63, 75
4, 28103, Note_on_c, 0, 63, 0
4, 28103, Note_on_c, 0, 51, 0
4, 28560, Note_on_c, 0, 51, 75
4, 28560, Note_on_c, 0, 63, 75
4, 28583, Note_on_c, 0, 63, 0
4, 28583, Note_on_c, 0, 51, 0
4, 29040, Note_on_c, 0, 51, 75
4, 29040, Note_on_c, 0, 63, 75
4, 29063, Note_on_c, 0, 63, 0
4, 29063, Note_on_c, 0, 51, 0
4, 29520, Note_on_c, 0, 51, 75
4, 29520, Note_on_c, 0, 63, 75
4, 29760, Note_on_c, 0, 63, 0
4, 29760, Note_on_c, 0, 51, 0
4, 30000, Note_on_c, 0, 51, 75
4, 30000, Note_on_c, 0, 63, 75
4, 30240, Note_on_c, 0, 63, 0
4, 30240, Note_on_c, 0, 51, 0
4, 30480, Note_on_c, 0, 49, 75
4, 30480, Note_on_c, 0, 61, 75
4, 30720, Note_on_c, 0, 61, 0
4, 30720, Note_on_c, 0, 49, 0
4, 30960, Note_on_c, 0, 48, 62
4, 30960, Note_on_c, 0, 60, 62
4, 31200, Note_on_c, 0, 60, 0
4, 31200, Note_on_c, 0, 48, 0
4, 31440, Note_on_c, 0, 48, 62
4, 31440, Note_on_c, 0, 60, 62
4, 31680, Note_on_c, 0, 60, 0
4, 31680, Note_on_c, 0, 48, 0
4, 31920, Note_on_c, 0, 48, 62
4, 31920, Note_on_c, 0, 60, 62
4, 32160, Note_on_c, 0, 60, 0
4, 32160, Note_on_c, 0, 48, 0
4, 32400, Note_on_c, 0, 48, 62
4, 32400, Note_on_c, 0, 60, 62
4, 32640, Note_on_c, 0, 60, 0
4, 32640, Note_on_c, 0, 48, 0
4, 32880, Note_on_c, 0, 48, 62
4, 32880, Note_on_c, 0, 60, 62
4, 33120, Note_on_c, 0, 60, 0
4, 33120, Note_on_c, 0, 48, 0
4, 33360, Note_on_c, 0, 55, 62
4, 33360, Note_on_c, 0, 58, 62
4, 33600, Note_on_c, 0, 58, 0
4, 33600, Note_on_c, 0, 55, 0
4, 33840, Note_on_c, 0, 55, 49
4, 33840, Note_on_c, 0, 60, 49
4, 34080, Note_on_c, 0, 60, 0
4, 34080, Note_on_c, 0, 55, 0
4, 34320, Note_on_c, 0, 55, 49
4, 34320, Note_on_c, 0, 60, 49
4, 34560, Note_on_c, 0, 60, 0
4, 34560, Note_on_c, 0, 55, 0
4, 34800, Note_on_c, 0, 57, 49
4, 34800, Note_on_c, 0, 60, 49
4, 35040, Note_on_c, 0, 60, 0
4, 35040, Note_on_c, 0, 57, 0
4, 35760, Note_on_c, 0, 53, 62
4, 35760, Note_on_c, 0, 65, 62
4, 35783, Note_on_c, 0, 65, 0
4, 35783, Note_on_c, 0, 53, 0
4, 36240, Note_on_c, 0, 53, 62
4, 36240, Note_on_c, 0, 65, 62
4, 36263, Note_on_c, 0, 65, 0
4, 36263, Note_on_c, 0, 53, 0
4, 36720, Note_on_c, 0, 53, 62
4, 36720, Note_on_c, 0, 65, 62
4, 36743, Note_on_c, 0, 65, 0
4, 36743, Note_on_c, 0, 53, 0
4, 37200, Note_on_c, 0, 53, 62
4, 37200, Note_on_c, 0, 65, 62
4, 37223, Note_on_c, 0, 65, 0
4, 37223, Note_on_c, 0, 53, 0
4, 37680, Note_on_c, 0, 53, 62
4, 37680, Note_on_c, 0, 65, 62
4, 37703, Note_on_c, 0, 65, 0
4, 37703, Note_on_c, 0, 53, 0
4, 38160, Note_on_c, 0, 53, 62
4, 38160, Note_on_c, 0, 65, 62
4, 38183, Note_on_c, 0, 65, 0
4, 38183, Note_on_c, 0, 53, 0
4, 38640, Note_on_c, 0, 53, 62
4, 38640, Note_on_c, 0, 65, 62
4, 38880, Note_on_c, 0, 65, 0
4, 38880, Note_on_c, 0, 53, 0
4, 39120, Note_on_c, 0, 53, 62
4, 39120, Note_on_c, 0, 65, 62
4, 39360, Note_on_c, 0, 65, 0
4, 39360, Note_on_c, 0, 53, 0
4, 39600, Note_on_c, 0, 53, 62
4, 39600, Note_on_c, 0, 65, 62
4, 39840, Note_on_c, 0, 65, 0
4, 39840, Note_on_c, 0, 53, 0
4, 40080, Note_on_c, 0, 53, 62
4, 40080, Note_on_c, 0, 65, 62
4, 40320, Note_on_c, 0, 65, 0
4, 40320, Note_on_c, 0, 53, 0
4, 40560, Note_on_c, 0, 53, 62
4, 40560, Note_on_c, 0, 65, 62
4, 40800, Note_on_c, 0, 65, 0
4, 40800, Note_on_c, 0, 53, 0
4, 41040, Note_on_c, 0, 53, 62
4, 41040, Note_on_c, 0, 65, 62
4, 41280, Note_on_c, 0, 65, 0
4, 41280, Note_on_c, 0, 53, 0
4, 41520, Note_on_c, 0, 56, 62
4, 41520, Note_on_c, 0, 66, 62
4, 41760, Note_on_c, 0, 66, 0
4, 41760, Note_on_c, 0, 56, 0
4, 42000, Note_on_c, 0, 56, 62
4, 42000, Note_on_c, 0, 63, 62
4, 42240, Note_on_c, 0, 63, 0
4, 42240, Note_on_c, 0, 56, 0
4, 42480, Note_on_c, 0, 56, 62
4, 42480, Note_on_c, 0, 61, 62
4, 42480, Note_on_c, 0, 65, 62
4, 42720, Note_on_c, 0, 65, 0
4, 42720, Note_on_c, 0, 61, 0
4, 42720, Note_on_c, 0, 56, 0
4, 42960, Note_on_c, 0, 56, 62
4, 42960, Note_on_c, 0, 63, 62
4, 43200, Note_on_c, 0, 63, 0
4, 43200, Note_on_c, 0, 56, 0
4, 43440, Note_on_c, 0, 56, 62
4, 43440, Note_on_c, 0, 60, 62
4, 43680, Note_on_c, 0, 60, 0
4, 43680, Note_on_c, 0, 56, 0
4, 43920, Note_on_c, 0, 57, 62
4, 43920, Note_on_c, 0, 59, 62
4, 43920, Note_on_c, 0, 62, 62
4, 44160, Note_on_c, 0, 62, 0
4, 44160, Note_on_c, 0, 59, 0
4, 44160, Note_on_c, 0, 57, 0
4, 44400, Note_on_c, 0, 56, 62
4, 44400, Note_on_c, 0, 66, 62
4, 44640, Note_on_c, 0, 66, 0
4, 44640, Note_on_c, 0, 56, 0
4, 44880, Note_on_c, 0, 56, 62
4, 44880, Note_on_c, 0, 63, 62
4, 45120, Note_on_c, 0, 63, 0
4, 45120, Note_on_c, 0, 56, 0
4, 45360, Note_on_c, 0, 56, 62
4, 45360, Note_on_c, 0, 61, 62
4, 45360, Note_on_c, 0, 65, 62
4, 45600, Note_on_c, 0, 65, 0
4, 45600, Note_on_c, 0, 61, 0
4, 45600, Note_on_c, 0, 56, 0
4, 45840, Note_on_c, 0, 56, 62
4, 45840, Note_on_c, 0, 63, 62
4, 46080, Note_on_c, 0, 63, 0
4, 46080, Note_on_c, 0, 56, 0
4, 46320, Note_on_c, 0, 56, 62
4, 46320, Note_on_c, 0, 60, 62
4, 46560, Note_on_c, 0, 60, 0
4, 46560, Note_on_c, 0, 56, 0
4, 46800, Note_on_c, 0, 57, 62
4, 46800, Note_on_c, 0, 59, 62
4, 46800, Note_on_c, 0, 62, 62
4, 47040, Note_on_c, 0, 62, 0
4, 47040, Note_on_c, 0, 59, 0
4, 47040, Note_on_c, 0, 57, 0
4, 47280, Note_on_c, 0, 59, 75
4, 47280, Note_on_c, 0, 62, 75
4, 47520, Note_on_c, 0, 62, 0
4, 47520, Note_on_c, 0, 59, 0
4, 47760, Note_on_c, 0, 59, 75
4, 47760, Note_on_c, 0, 62, 75
4, 48000, Note_on_c, 0, 62, 0
4, 48000, Note_on_c, 0, 59, 0
4, 48240, Note_on_c, 0, 59, 75
4, 48240, Note_on_c, 0, 62, 75
4, 48480, Note_on_c, 0, 62, 0
4, 48480, Note_on_c, 0, 59, 0
4, 48720, Note_on_c, 0, 62, 75
4, 48960, Note_on_c, 0, 62, 0
4, 49200, Note_on_c, 0, 64, 75
4, 49440, Note_on_c, 0, 64, 0
4, 49680, Note_on_c, 0, 50, 75
4, 49920, Note_on_c, 0, 50, 0
4, 49920, Note_on_c, 0, 52, 88
4, 49967, Note_on_c, 0, 52, 0
4, 50400, Note_on_c, 0, 56, 88
4, 50400, Note_on_c, 0, 59, 88
4, 50400, Note_on_c, 0, 64, 88
4, 50447, Note_on_c, 0, 64, 0
4, 50447, Note_on_c, 0, 59, 0
4, 50447, Note_on_c, 0, 56, 0
4, 51360, Note_on_c, 0, 52, 88
4, 51407, Note_on_c, 0, 52, 0
4, 51840, Note_on_c, 0, 56, 88
4, 51840, Note_on_c, 0, 59, 88
4, 51840, Note_on_c, 0, 64, 88
4, 51887, Note_on_c, 0, 64, 0
4, 51887, Note_on_c, 0, 59, 0
4, 51887, Note_on_c, 0, 56, 0
4, 53040, Note_on_c, 0, 52, 75
4, 53040, Note_on_c, 0, 64, 75
4, 53063, Note_on_c, 0, 64, 0
4, 53063, Note_on_c, 0, 52, 0
4, 53520, Note_on_c, 0, 52, 75
4, 53520, Note_on_c, 0, 64, 75
4, 53543, Note_on_c, 0, 64, 0
4, 53543, Note_on_c, 0, 52, 0
4, 54000, Note_on_c, 0, 52, 75
4, 54000, Note_on_c, 0, 64, 75
4, 54023, Note_on_c, 0, 64, 0
4, 54023, Note_on_c, 0, 52, 0
4, 54480, Note_on_c, 0, 52, 75
4, 54480, Note_on_c, 0, 64, 75
4, 54503, Note_on_c, 0, 64, 0
4, 54503, Note_on_c, 0, 52, 0
4, 54960, Note_on_c, 0, 52, 75
4, 54960, Note_on_c, 0, 64, 75
4, 54983, Note_on_c, 0, 64, 0
4, 54983, Note_on_c, 0, 52, 0
4, 55440, Note_on_c, 0, 52, 75
4, 55440, Note_on_c, 0, 64, 75
4, 55463, Note_on_c, 0, 64, 0
4, 55463, Note_on_c, 0, 52, 0
4, 55920, Note_on_c, 0, 52, 75
4, 55920, Note_on_c, 0, 64, 75
4, 55943, Note_on_c, 0, 64, 0
4, 55943, Note_on_c, 0, 52, 0
4, 56400, Note_on_c, 0, 52, 75
4, 56400, Note_on_c, 0, 64, 75
4, 56423, Note_on_c, 0, 64, 0
4, 56423, Note_on_c, 0, 52, 0
4, 56880, Note_on_c, 0, 52, 75
4, 56880, Note_on_c, 0, 64, 75
4, 56903, Note_on_c, 0, 64, 0
4, 56903, Note_on_c, 0, 52, 0
4, 57360, Note_on_c, 0, 50, 75
4, 57360, Note_on_c, 0, 62, 75
4, 57383, Note_on_c, 0, 62, 0
4, 57383, Note_on_c, 0, 50, 0
4, 57840, Note_on_c, 0, 50, 75
4, 57840, Note_on_c, 0, 62, 75
4, 57863, Note_on_c, 0, 62, 0
4, 57863, Note_on_c, 0, 50, 0
4, 58320, Note_on_c, 0, 50, 75
4, 58320, Note_on_c, 0, 62, 75
4, 58343, Note_on_c, 0, 62, 0
4, 58343, Note_on_c, 0, 50, 0
4, 58800, Note_on_c, 0, 50, 75
4, 58800, Note_on_c, 0, 62, 75
4, 58823, Note_on_c, 0, 62, 0
4, 58823, Note_on_c, 0, 50, 0
4, 59280, Note_on_c, 0, 50, 75
4, 59280, Note_on_c, 0, 62, 75
4, 59303, Note_on_c, 0, 62, 0
4, 59303, Note_on_c, 0, 50, 0
4, 59760, Note_on_c, 0, 50, 75
4, 59760, Note_on_c, 0, 62, 75
4, 59783, Note_on_c, 0, 62, 0
4, 59783, Note_on_c, 0, 50, 0
4, 60240, Note_on_c, 0, 50, 75
4, 60240, Note_on_c, 0, 62, 75
4, 60263, Note_on_c, 0, 62, 0
4, 60263, Note_on_c, 0, 50, 0
4, 60720, Note_on_c, 0, 50, 75
4, 60720, Note_on_c, 0, 62, 75
4, 60743, Note_on_c, 0, 62, 0
4, 60743, Note_on_c, 0, 50, 0
4, 61200, Note_on_c, 0, 50, 75
4, 61200, Note_on_c, 0, 62, 75
4, 61223, Note_on_c, 0, 62, 0
4, 61223, Note_on_c, 0, 50, 0
4, 61680, Note_on_c, 0, 50, 75
4, 61680, Note_on_c, 0, 62, 75
4, 61920, Note_on_c, 0, 62, 0
4, 61920, Note_on_c, 0, 50, 0
4, 62160, Note_on_c, 0, 50, 75
4, 62160, Note_on_c, 0, 62, 75
4, 62400, Note_on_c, 0, 62, 0
4, 62400, Note_on_c, 0, 50, 0
4, 62640, Note_on_c, 0, 52, 75
4, 62640, Note_on_c, 0, 64, 75
4, 62880, Note_on_c, 0, 64, 0
4, 62880, Note_on_c, 0, 52, 0
4, 63120, Note_on_c, 0, 52, 75
4, 63120, Note_on_c, 0, 64, 75
4, 63360, Note_on_c, 0, 64, 0
4, 63360, Note_on_c, 0, 52, 0
4, 63600, Note_on_c, 0, 52, 75
4, 63600, Note_on_c, 0, 64, 75
4, 63840, Note_on_c, 0, 64, 0
4, 63840, Note_on_c, 0, 52, 0
4, 64080, Note_on_c, 0, 52, 75
4, 64080, Note_on_c, 0, 64, 75
4, 64320, Note_on_c, 0, 64, 0
4, 64320, Note_on_c, 0, 52, 0
4, 64560, Note_on_c, 0, 52, 75
4, 64560, Note_on_c, 0, 64, 75
4, 64800, Note_on_c, 0, 64, 0
4, 64800, Note_on_c, 0, 52, 0
4, 65040, Note_on_c, 0, 52, 75
4, 65040, Note_on_c, 0, 64, 75
4, 65280, Note_on_c, 0, 64, 0
4, 65280, Note_on_c, 0, 52, 0
4, 65520, Note_on_c, 0, 52, 75
4, 65520, Note_on_c, 0, 64, 75
4, 65760, Note_on_c, 0, 64, 0
4, 65760, Note_on_c, 0, 52, 0
4, 66000, Note_on_c, 0, 53, 75
4, 66000, Note_on_c, 0, 65, 75
4, 66240, Note_on_c, 0, 65, 0
4, 66240, Note_on_c, 0, 53, 0
4, 66480, Note_on_c, 0, 53, 75
4, 66480, Note_on_c, 0, 65, 75
4, 66720, Note_on_c, 0, 65, 0
4, 66720, Note_on_c, 0, 53, 0
4, 66960, Note_on_c, 0, 50, 75
4, 66960, Note_on_c, 0, 62, 75
4, 67200, Note_on_c, 0, 62, 0
4, 67200, Note_on_c, 0, 50, 0
4, 67440, Note_on_c, 0, 52, 75
4, 67440, Note_on_c, 0, 60, 75
4, 67680, Note_on_c, 0, 60, 0
4, 67680, Note_on_c, 0, 52, 0
4, 67920, Note_on_c, 0, 52, 75
4, 67920, Note_on_c, 0, 57, 75
4, 68160, Note_on_c, 0, 57, 0
4, 68160, Note_on_c, 0, 52, 0
4, 68400, Note_on_c, 0, 52, 75
4, 68400, Note_on_c, 0, 56, 75
4, 68640, Note_on_c, 0, 56, 0
4, 68640, Note_on_c, 0, 52, 0
4, 68880, Note_on_c, 0, 52, 75
4, 68880, Note_on_c, 0, 56, 75
4, 69120, Note_on_c, 0, 56, 0
4, 69120, Note_on_c, 0, 52, 0
4, 69360, Note_on_c, 0, 52, 75
4, 69360, Note_on_c, 0, 57, 75
4, 69600, Note_on_c, 0, 57, 0
4, 69600, Note_on_c, 0, 52, 0
4, 70320, Note_on_c, 0, 53, 62
4, 70320, Note_on_c, 0, 65, 62
4, 70343, Note_on_c, 0, 65, 0
4, 70343, Note_on_c, 0, 53, 0
4, 70800, Note_on_c, 0, 53, 62
4, 70800, Note_on_c, 0, 65, 62
4, 70823, Note_on_c, 0, 65, 0
4, 70823, Note_on_c, 0, 53, 0
4, 71280, Note_on_c, 0, 53, 62
4, 71280, Note_on_c, 0, 65, 62
4, 71303, Note_on_c, 0, 65, 0
4, 71303, Note_on_c, 0, 53, 0
4, 71760, Note_on_c, 0, 53, 62
4, 71760, Note_on_c, 0, 65, 62
4, 71783, Note_on_c, 0, 65, 0
4, 71783, Note_on_c, 0, 53, 0
4, 72240, Note_on_c, 0, 53, 62
4, 72240, Note_on_c, 0, 65, 62
4, 72263, Note_on_c, 0, 65, 0
4, 72263, Note_on_c, 0, 53, 0
4, 72720, Note_on_c, 0, 53, 62
4, 72720, Note_on_c, 0, 65, 62
4, 72743, Note_on_c, 0, 65, 0
4, 72743, Note_on_c, 0, 53, 0
4, 73200, Note_on_c, 0, 53, 62
4, 73200, Note_on_c, 0, 65, 62
4, 73440, Note_on_c, 0, 65, 0
4, 73440, Note_on_c, 0, 53, 0
4, 73680, Note_on_c, 0, 53, 62
4, 73680, Note_on_c, 0, 65, 62
4, 73920, Note_on_c, 0, 65, 0
4, 73920, Note_on_c, 0, 53, 0
4, 74160, Note_on_c, 0, 53, 62
4, 74160, Note_on_c, 0, 65, 62
4, 74400, Note_on_c, 0, 65, 0
4, 74400, Note_on_c, 0, 53, 0
4, 74640, Note_on_c, 0, 53, 62
4, 74640, Note_on_c, 0, 65, 62
4, 74880, Note_on_c, 0, 65, 0
4, 74880, Note_on_c, 0, 53, 0
4, 75120, Note_on_c, 0, 53, 62
4, 75120, Note_on_c, 0, 65, 62
4, 75360, Note_on_c, 0, 65, 0
4, 75360, Note_on_c, 0, 53, 0
4, 75600, Note_on_c, 0, 53, 62
4, 75600, Note_on_c, 0, 65, 62
4, 75840, Note_on_c, 0, 65, 0
4, 75840, Note_on_c, 0, 53, 0
4, 76080, Note_on_c, 0, 56, 62
4, 76080, Note_on_c, 0, 66, 62
4, 76320, Note_on_c, 0, 66, 0
4, 76320, Note_on_c, 0, 56, 0
4, 76560, Note_on_c, 0, 56, 62
4, 76560, Note_on_c, 0, 63, 62
4, 76800, Note_on_c, 0, 63, 0
4, 76800, Note_on_c, 0, 56, 0
4, 77040, Note_on_c, 0, 56, 62
4, 77040, Note_on_c, 0, 61, 62
4, 77040, Note_on_c, 0, 65, 62
4, 77280, Note_on_c, 0, 65, 0
4, 77280, Note_on_c, 0, 61, 0
4, 77280, Note_on_c, 0, 56, 0
4, 77520, Note_on_c, 0, 56, 62
4, 77520, Note_on_c, 0, 63, 62
4, 77760, Note_on_c, 0, 63, 0
4, 77760, Note_on_c, 0, 56, 0
4, 78000, Note_on_c, 0, 56, 62
4, 78000, Note_on_c, 0, 60, 62
4, 78240, Note_on_c, 0, 60, 0
4, 78240, Note_on_c, 0, 56, 0
4, 78480, Note_on_c, 0, 57, 62
4, 78480, Note_on_c, 0, 59, 62
4, 78480, Note_on_c, 0, 62, 62
4, 78720, Note_on_c, 0, 62, 0
4, 78720, Note_on_c, 0, 59, 0
4, 78720, Note_on_c, 0, 57, 0
4, 78960, Note_on_c, 0, 56, 62
4, 78960, Note_on_c, 0, 66, 62
4, 79200, Note_on_c, 0, 66, 0
4, 79200, Note_on_c, 0, 56, 0
4, 79440, Note_on_c, 0, 56, 62
4, 79440, Note_on_c, 0, 63, 62
4, 79680, Note_on_c, 0, 63, 0
4, 79680, Note_on_c, 0, 56, 0
4, 79920, Note_on_c, 0, 56, 62
4, 79920, Note_on_c, 0, 61, 62
4, 79920, Note_on_c, 0, 65, 62
4, 80160, Note_on_c, 0, 65, 0
4, 80160, Note_on_c, 0, 61, 0
4, 80160, Note_on_c, 0, 56, 0
4, 80400, Note_on_c, 0, 56, 62
4, 80400, Note_on_c, 0, 63, 62
4, 80640, Note_on_c, 0, 63, 0
4, 80640, Note_on_c, 0, 56, 0
4, 80880, Note_on_c, 0, 56, 62
4, 80880, Note_on_c, 0, 60, 62
4, 81120, Note_on_c, 0, 60, 0
4, 81120, Note_on_c, 0, 56, 0
4, 81360, Note_on_c, 0, 57, 62
4, 81360, Note_on_c, 0, 59, 62
4, 81360, Note_on_c, 0, 62, 62
4, 81600, Note_on_c, 0, 62, 0
4, 81600, Note_on_c, 0, 59, 0
4, 81600, Note_on_c, 0, 57, 0
4, 81840, Note_on_c, 0, 59, 75
4, 81840, Note_on_c, 0, 62, 75
4, 82080, Note_on_c, 0, 62, 0
4, 82080, Note_on_c, 0, 59, 0
4, 82320, Note_on_c, 0, 59, 75
4, 82320, Note_on_c, 0, 62, 75
4, 82560, Note_on_c, 0, 62, 0
4, 82560, Note_on_c, 0, 59, 0
4, 82800, Note_on_c, 0, 59, 75
4, 82800, Note_on_c, 0, 62, 75
4, 83040, Note_on_c, 0, 62, 0
4, 83040, Note_on_c, 0, 59, 0
4, 83280, Note_on_c, 0, 62, 75
4, 83520, Note_on_c, 0, 62, 0
4, 83760, Note_on_c, 0, 64, 75
4, 84000, Note_on_c, 0, 64, 0
4, 84240, Note_on_c, 0, 50, 75
4, 84480, Note_on_c, 0, 50, 0
4, 84480, Note_on_c, 0, 52, 88
4, 84527, Note_on_c, 0, 52, 0
4, 84960, Note_on_c, 0, 56, 88
4, 84960, Note_on_c, 0, 59, 88
4, 84960, Note_on_c, 0, 64, 88
4, 85007, Note_on_c, 0, 64, 0
4, 85007, Note_on_c, 0, 59, 0
4, 85007, Note_on_c, 0, 56, 0
4, 85920, Note_on_c, 0, 52, 88
4, 85967, Note_on_c, 0, 52, 0
4, 86400, Note_on_c, 0, 56, 88
4, 86400, Note_on_c, 0, 59, 88
4, 86400, Note_on_c, 0, 64, 88
4, 86447, Note_on_c, 0, 64, 0
4, 86447, Note_on_c, 0, 59, 0
4, 86447, Note_on_c, 0, 56, 0
4, 87600, Note_on_c, 0, 52, 75
4, 87600, Note_on_c, 0, 64, 75
4, 87623, Note_on_c, 0, 64, 0
4, 87623, Note_on_c, 0, 52, 0
4, 88080, Note_on_c, 0, 52, 75
4, 88080, Note_on_c, 0, 64, 75
4, 88103, Note_on_c, 0, 64, 0
4, 88103, Note_on_c, 0, 52, 0
4, 88560, Note_on_c, 0, 52, 75
4, 88560, Note_on_c, 0, 64, 75
4, 88583, Note_on_c, 0, 64, 0
4, 88583, Note_on_c, 0, 52, 0
4, 89040, Note_on_c, 0, 52, 75
4, 89040, Note_on_c, 0, 64, 75
4, 89063, Note_on_c, 0, 64, 0
4, 89063, Note_on_c, 0, 52, 0
4, 89520, Note_on_c, 0, 52, 75
4, 89520, Note_on_c, 0, 64, 75
4, 89543, Note_on_c, 0, 64, 0
4, 89543, Note_on_c, 0, 52, 0
4, 90000, Note_on_c, 0, 52, 75
4, 90000, Note_on_c, 0, 64, 75
4, 90023, Note_on_c, 0, 64, 0
4, 90023, Note_on_c, 0, 52, 0
4, 90480, Note_on_c, 0, 52, 75
4, 90480, Note_on_c, 0, 64, 75
4, 90503, Note_on_c, 0, 64, 0
4, 90503, Note_on_c, 0, 52, 0
4, 90960, Note_on_c, 0, 52, 75
4, 90960, Note_on_c, 0, 64, 75
4, 90983, Note_on_c, 0, 64, 0
4, 90983, Note_on_c, 0, 52, 0
4, 91440, Note_on_c, 0, 52, 75
4, 91440, Note_on_c, 0, 64, 75
4, 91463, Note_on_c, 0, 64, 0
4, 91463, Note_on_c, 0, 52, 0
4, 91920, Note_on_c, 0, 50, 75
4, 91920, Note_on_c, 0, 62, 75
4, 91943, Note_on_c, 0, 62, 0
4, 91943, Note_on_c, 0, 50, 0
4, 92400, Note_on_c, 0, 50, 75
4, 92400, Note_on_c, 0, 62, 75
4, 92423, Note_on_c, 0, 62, 0
4, 92423, Note_on_c, 0, 50, 0
4, 92880, Note_on_c, 0, 50, 75
4, 92880, Note_on_c, 0, 62, 75
4, 92903, Note_on_c, 0, 62, 0
4, 92903, Note_on_c, 0, 50, 0
4, 93360, Note_on_c, 0, 50, 75
4, 93360, Note_on_c, 0, 62, 75
4, 93383, Note_on_c, 0, 62, 0
4, 93383, Note_on_c, 0, 50, 0
4, 93840, Note_on_c, 0, 50, 75
4, 93840, Note_on_c, 0, 62, 75
4, 93863, Note_on_c, 0, 62, 0
4, 93863, Note_on_c, 0, 50, 0
4, 94320, Note_on_c, 0, 50, 75
4, 94320, Note_on_c, 0, 62, 75
4, 94343, Note_on_c, 0, 62, 0
4, 94343, Note_on_c, 0, 50, 0
4, 94800, Note_on_c, 0, 50, 75
4, 94800, Note_on_c, 0, 62, 75
4, 94823, Note_on_c, 0, 62, 0
4, 94823, Note_on_c, 0, 50, 0
4, 95280, Note_on_c, 0, 50, 75
4, 95280, Note_on_c, 0, 62, 75
4, 95303, Note_on_c, 0, 62, 0
4, 95303, Note_on_c, 0, 50, 0
4, 95760, Note_on_c, 0, 50, 75
4, 95760, Note_on_c, 0, 62, 75
4, 95783, Note_on_c, 0, 62, 0
4, 95783, Note_on_c, 0, 50, 0
4, 96240, Note_on_c, 0, 50, 75
4, 96240, Note_on_c, 0, 62, 75
4, 96480, Note_on_c, 0, 62, 0
4, 96480, Note_on_c, 0, 50, 0
4, 96720, Note_on_c, 0, 50, 75
4, 96720, Note_on_c, 0, 62, 75
4, 96960, Note_on_c, 0, 62, 0
4, 96960, Note_on_c, 0, 50, 0
4, 97200, Note_on_c, 0, 52, 75
4, 97200, Note_on_c, 0, 64, 75
4, 97440, Note_on_c, 0, 64, 0
4, 97440, Note_on_c, 0, 52, 0
4, 97680, Note_on_c, 0, 52, 75
4, 97680, Note_on_c, 0, 64, 75
4, 97920, Note_on_c, 0, 64, 0
4, 97920, Note_on_c, 0, 52, 0
4, 98160, Note_on_c, 0, 52, 75
4, 98160, Note_on_c, 0, 64, 75
4, 98400, Note_on_c, 0, 64, 0
4, 98400, Note_on_c, 0, 52, 0
4, 98640, Note_on_c, 0, 52, 75
4, 98640, Note_on_c, 0, 64, 75
4, 98880, Note_on_c, 0, 64, 0
4, 98880, Note_on_c, 0, 52, 0
4, 99120, Note_on_c, 0, 52, 75
4, 99120, Note_on_c, 0, 64, 75
4, 99360, Note_on_c, 0, 64, 0
4, 99360, Note_on_c, 0, 52, 0
4, 99600, Note_on_c, 0, 52, 75
4, 99600, Note_on_c, 0, 64, 75
4, 99840, Note_on_c, 0, 64, 0
4, 99840, Note_on_c, 0, 52, 0
4, 100080, Note_on_c, 0, 52, 75
4, 100080, Note_on_c, 0, 64, 75
4, 100320, Note_on_c, 0, 64, 0
4, 100320, Note_on_c, 0, 52, 0
4, 100560, Note_on_c, 0, 53, 75
4, 100560, Note_on_c, 0, 65, 75
4, 100800, Note_on_c, 0, 65, 0
4, 100800, Note_on_c, 0, 53, 0
4, 101040, Note_on_c, 0, 53, 75
4, 101040, Note_on_c, 0, 65, 75
4, 101280, Note_on_c, 0, 65, 0
4, 101280, Note_on_c, 0, 53, 0
4, 101520, Note_on_c, 0, 50, 75
4, 101520, Note_on_c, 0, 62, 75
4, 101760, Note_on_c, 0, 62, 0
4, 101760, Note_on_c, 0, 50, 0
4, 102000, Note_on_c, 0, 52, 75
4, 102000, Note_on_c, 0, 60, 75
4, 102240, Note_on_c, 0, 60, 0
4, 102240, Note_on_c, 0, 52, 0
4, 102480, Note_on_c, 0, 52, 75
4, 102480, Note_on_c, 0, 57, 75
4, 102720, Note_on_c, 0, 57, 0
4, 102720, Note_on_c, 0, 52, 0
4, 102960, Note_on_c, 0, 52, 75
4, 102960, Note_on_c, 0, 56, 75
4, 103200, Note_on_c, 0, 56, 0
4, 103200, Note_on_c, 0, 52, 0
4, 103440, Note_on_c, 0, 52, 75
4, 103440, Note_on_c, 0, 56, 75
4, 103680, Note_on_c, 0, 56, 0
4, 103680, Note_on_c, 0, 52, 0
4, 103920, Note_on_c, 0, 52, 75
4, 103920, Note_on_c, 0, 57, 75
4, 104160, Note_on_c, 0, 57, 0
4, 104160, Note_on_c, 0, 52, 0
4, 104160, End_track
5, 0, Start_track
5, 0, Title_t, "Instrument19"
5, 0, Program_c, 0, 0
5, 0, Control_c, 0, 7, 115
5, 0, Control_c, 0, 10, 32
5, 0, Note_on_c, 0, 33, 88
5, 0, Note_on_c, 0, 45, 88
5, 47, Note_on_c, 0, 45, 0
5, 47, Note_on_c, 0, 33, 0
5, 480, Note_on_c, 0, 52, 88
5, 527, Note_on_c, 0, 52, 0
5, 960, Note_on_c, 0, 45, 88
5, 1007, Note_on_c, 0, 45, 0
5, 1440, Note_on_c, 0, 33, 88
5, 1440, Note_on_c, 0, 45, 88
5, 1487, Note_on_c, 0, 45, 0
5, 1487, Note_on_c, 0, 33, 0
5, 1920, Note_on_c, 0, 52, 88
5, 1967, Note_on_c, 0, 52, 0
5, 2400, Note_on_c, 0, 28, 88
5, 2400, Note_on_c, 0, 40, 88
5, 2447, Note_on_c, 0, 40, 0
5, 2447, Note_on_c, 0, 28, 0
5, 2880, Note_on_c, 0, 33, 88
5, 2880, Note_on_c, 0, 45, 88
5, 2927, Note_on_c, 0, 45, 0
5, 2927, Note_on_c, 0, 33, 0
5, 3360, Note_on_c, 0, 52, 88
5, 3407, Note_on_c, 0, 52, 0
5, 3840, Note_on_c, 0, 45, 88
5, 3887, Note_on_c, 0, 45, 0
5, 4320, Note_on_c, 0, 26, 88
5, 4320, Note_on_c, 0, 38, 88
5, 4367, Note_on_c, 0, 38, 0
5, 4367, Note_on_c, 0, 26, 0
5, 4800, Note_on_c, 0, 50, 88
5, 4847, Note_on_c, 0, 50, 0
5, 5280, Note_on_c, 0, 43, 88
5, 5327, Note_on_c, 0, 43, 0
5, 5760, Note_on_c, 0, 31, 88
5, 5760, Note_on_c, 0, 43, 88
5, 5807, Note_on_c, 0, 43, 0
5, 5807, Note_on_c, 0, 31, 0
5, 6240, Note_on_c, 0, 50, 88
5, 6287, Note_on_c, 0, 50, 0
5, 6720, Note_on_c, 0, 43, 88
5, 6767, Note_on_c, 0, 43, 0
5, 7200, Note_on_c, 0, 31, 88
5, 7200, Note_on_c, 0, 43, 88
5, 7247, Note_on_c, 0, 43, 0
5, 7247, Note_on_c, 0, 31, 0
5, 7680, Note_on_c, 0, 50, 88
5, 7727, Note_on_c, 0, 50, 0
5, 8160, Note_on_c, 0, 26, 88
5, 8160, Note_on_c, 0, 38, 88
5, 8207, Note_on_c, 0, 38, 0
5, 8207, Note_on_c, 0, 26, 0
5, 8640, Note_on_c, 0, 31, 88
5, 8640, Note_on_c, 0, 43, 88
5, 8687, Note_on_c, 0, 43, 0
5, 8687, Note_on_c, 0, 31, 0
5, 9120, Note_on_c, 0, 50, 88
5, 9167, Note_on_c, 0, 50, 0
5, 9600, Note_on_c, 0, 27, 88
5, 9600, Note_on_c, 0, 39, 88
5, 9647, Note_on_c, 0, 39, 0
5, 9647, Note_on_c, 0, 27, 0
5, 10080, Note_on_c, 0, 32, 88
5, 10080, Note_on_c, 0, 44, 88
5, 10560, Note_on_c, 0, 44, 0
5, 10560, Note_on_c, 0, 32, 0
5, 10560, Note_on_c, 0, 51, 88
5, 11040, Note_on_c, 0, 51, 0
5, 11040, Note_on_c, 0, 27, 88
5, 11040, Note_on_c, 0, 39, 88
5, 11520, Note_on_c, 0, 39, 0
5, 11520, Note_on_c, 0, 27, 0
5, 11520, Note_on_c, 0, 32, 88
5, 11520, Note_on_c, 0, 44, 88
5, 12000, Note_on_c, 0, 44, 0
5, 12000, Note_on_c, 0, 32, 0
5, 12000, Note_on_c, 0, 51, 88
5, 12480, Note_on_c, 0, 51, 0
5, 12480, Note_on_c, 0, 34, 88
5, 12960, Note_on_c, 0, 34, 0
5, 12960, Note_on_c, 0, 36, 75
5, 13440, Note_on_c, 0, 36, 0
5, 13440, Note_on_c, 0, 48, 75
5, 13920, Note_on_c, 0, 48, 0
5, 13920, Note_on_c, 0, 40, 75
5, 14400, Note_on_c, 0, 40, 0
5, 14400, Note_on_c, 0, 29, 75
5, 14400, Note_on_c, 0, 41, 75
5, 14880, Note_on_c, 0, 41, 0
5, 14880, Note_on_c, 0, 29, 0
5, 14880, Note_on_c, 0, 48, 75
5, 15360, Note_on_c, 0, 48, 0
5, 15360, Note_on_c, 0, 34, 75
5, 15840, Note_on_c, 0, 34, 0
5, 15840, Note_on_c, 0, 36, 49
5, 16320, Note_on_c, 0, 36, 0
5, 16320, Note_on_c, 0, 48, 49
5, 16800, Note_on_c, 0, 48, 0
5, 16800, Note_on_c, 0, 41, 49
5, 17280, Note_on_c, 0, 41, 0
5, 17760, Note_on_c, 0, 33, 88
5, 17760, Note_on_c, 0, 45, 88
5, 17807, Note_on_c, 0, 45, 0
5, 17807, Note_on_c, 0, 33, 0
5, 18240, Note_on_c, 0, 52, 88
5, 18287, Note_on_c, 0, 52, 0
5, 18720, Note_on_c, 0, 45, 88
5, 18767, Note_on_c, 0, 45, 0
5, 19200, Note_on_c, 0, 33, 88
5, 19200, Note_on_c, 0, 45, 88
5, 19247, Note_on_c, 0, 45, 0
5, 19247, Note_on_c, 0, 33, 0
5, 19680, Note_on_c, 0, 52, 88
5, 19727, Note_on_c, 0, 52, 0
5, 20160, Note_on_c, 0, 28, 88
5, 20160, Note_on_c, 0, 40, 88
5, 20207, Note_on_c, 0, 40, 0
5, 20207, Note_on_c, 0, 28, 0
5, 20640, Note_on_c, 0, 33, 88
5, 20640, Note_on_c, 0, 45, 88
5, 20687, Note_on_c, 0, 45, 0
5, 20687, Note_on_c, 0, 33, 0
5, 21120, Note_on_c, 0, 52, 88
5, 21167, Note_on_c, 0, 52, 0
5, 21600, Note_on_c, 0, 45, 88
5, 21647, Note_on_c, 0, 45, 0
5, 22080, Note_on_c, 0, 26, 88
5, 22080, Note_on_c, 0, 38, 88
5, 22127, Note_on_c, 0, 38, 0
5, 22127, Note_on_c, 0, 26, 0
5, 22560, Note_on_c, 0, 50, 88
5, 22607, Note_on_c, 0, 50, 0
5, 23040, Note_on_c, 0, 43, 88
5, 23087, Note_on_c, 0, 43, 0
5, 23520, Note_on_c, 0, 31, 88
5, 23520, Note_on_c, 0, 43, 88
5, 23567, Note_on_c, 0, 43, 0
5, 23567, Note_on_c, 0, 31, 0
5, 24000, Note_on_c, 0, 50, 88
5, 24047, Note_on_c, 0, 50, 0
5, 24480, Note_on_c, 0, 43, 88
5, 24527, Note_on_c, 0, 43, 0
5, 24960, Note_on_c, 0, 31, 88
5, 24960, Note_on_c, 0, 43, 88
5, 25007, Note_on_c, 0, 43, 0
5, 25007, Note_on_c, 0, 31, 0
5, 25440, Note_on_c, 0, 50, 88
5, 25487, Note_on_c, 0, 50, 0
5, 25920, Note_on_c, 0, 26, 88
5, 25920, Note_on_c, 0, 38, 88
5, 25967, Note_on_c, 0, 38, 0
5, 25967, Note_on_c, 0, 26, 0
5, 26400, Note_on_c, 0, 31, 88
5, 26400, Note_on_c, 0, 43, 88
5, 26447, Note_on_c, 0, 43, 0
5, 26447, Note_on_c, 0, 31, 0
5, 26880, Note_on_c, 0, 50, 88
5, 26927, Note_on_c, 0, 50, 0
5, 27360, Note_on_c, 0, 27, 88
5, 27360, Note_on_c, 0, 39, 88
5, 27407, Note_on_c, 0, 39, 0
5, 27407, Note_on_c, 0, 27, 0
5, 27840, Note_on_c, 0, 32, 88
5, 27840, Note_on_c, 0, 44, 88
5, 28320, Note_on_c, 0, 44, 0
5, 28320, Note_on_c, 0, 32, 0
5, 28320, Note_on_c, 0, 51, 88
5, 28800, Note_on_c, 0, 51, 0
5, 28800, Note_on_c, 0, 27, 88
5, 28800, Note_on_c, 0, 39, 88
5, 29280, Note_on_c, 0, 39, 0
5, 29280, Note_on_c, 0, 27, 0
5, 29280, Note_on_c, 0, 32, 88
5, 29280, Note_on_c, 0, 44, 88
5, 29760, Note_on_c, 0, 44, 0
5, 29760, Note_on_c, 0, 32, 0
5, 29760, Note_on_c, 0, 51, 88
5, 30240, Note_on_c, 0, 51, 0
5, 30240, Note_on_c, 0, 34, 88
5, 30720, Note_on_c, 0, 34, 0
5, 30720, Note_on_c, 0, 36, 75
5, 31200, Note_on_c, 0, 36, 0
5, 31200, Note_on_c, 0, 48, 75
5, 31680, Note_on_c, 0, 48, 0
5, 31680, Note_on_c, 0, 40, 75
5, 32160, Note_on_c, 0, 40, 0
5, 32160, Note_on_c, 0, 29, 75
5, 32160, Note_on_c, 0, 41, 75
5, 32640, Note_on_c, 0, 41, 0
5, 32640, Note_on_c, 0, 29, 0
5, 32640, Note_on_c, 0, 48, 75
5, 33120, Note_on_c, 0, 48, 0
5, 33120, Note_on_c, 0, 34, 75
5, 33600, Note_on_c, 0, 34, 0
5, 33600, Note_on_c, 0, 36, 49
5, 34080, Note_on_c, 0, 36, 0
5, 34080, Note_on_c, 0, 48, 49
5, 34560, Note_on_c, 0, 48, 0
5, 34560, Note_on_c, 0, 41, 49
5, 35040, Note_on_c, 0, 41, 0
5, 35520, Note_on_c, 0, 29, 62
5, 35520, Note_on_c, 0, 41, 62
5, 35567, Note_on_c, 0, 41, 0
5, 35567, Note_on_c, 0, 29, 0
5, 36000, Note_on_c, 0, 53, 62
5, 36047, Note_on_c, 0, 53, 0
5, 36480, Note_on_c, 0, 41, 62
5, 36527, Note_on_c, 0, 41, 0
5, 36960, Note_on_c, 0, 29, 62
5, 36960, Note_on_c, 0, 41, 62
5, 37007, Note_on_c, 0, 41, 0
5, 37007, Note_on_c, 0, 29, 0
5, 37440, Note_on_c, 0, 53, 62
5, 37487, Note_on_c, 0, 53, 0
5, 37920, Note_on_c, 0, 41, 62
5, 37967, Note_on_c, 0, 41, 0
5, 38400, Note_on_c, 0, 25, 62
5, 38400, Note_on_c, 0, 37, 62
5, 38447, Note_on_c, 0, 37, 0
5, 38447, Note_on_c, 0, 25, 0
5, 38880, Note_on_c, 0, 53, 62
5, 38927, Note_on_c, 0, 53, 0
5, 39360, Note_on_c, 0, 37, 62
5, 39360, Note_on_c, 0, 49, 62
5, 39407, Note_on_c, 0, 49, 0
5, 39407, Note_on_c, 0, 37, 0
5, 39840, Note_on_c, 0, 25, 62
5, 39840, Note_on_c, 0, 37, 62
5, 39887, Note_on_c, 0, 37, 0
5, 39887, Note_on_c, 0, 25, 0
5, 40320, Note_on_c, 0, 53, 62
5, 40367, Note_on_c, 0, 53, 0
5, 40800, Note_on_c, 0, 37, 62
5, 40800, Note_on_c, 0, 49, 62
5, 40847, Note_on_c, 0, 49, 0
5, 40847, Note_on_c, 0, 37, 0
5, 41280, Note_on_c, 0, 32, 88
5, 41760, Note_on_c, 0, 32, 0
5, 41760, Note_on_c, 0, 56, 88
5, 41807, Note_on_c, 0, 56, 0
5, 42240, Note_on_c, 0, 44, 88
5, 42720, Note_on_c, 0, 44, 0
5, 42720, Note_on_c, 0, 32, 88
5, 43200, Note_on_c, 0, 32, 0
5, 43200, Note_on_c, 0, 56, 62
5, 43247, Note_on_c, 0, 56, 0
5, 43680, Note_on_c, 0, 44, 62
5, 44160, Note_on_c, 0, 44, 0
5, 44160, Note_on_c, 0, 32, 88
5, 44640, Note_on_c, 0, 32, 0
5, 44640, Note_on_c, 0, 56, 62
5, 44687, Note_on_c, 0, 56, 0
5, 45120, Note_on_c, 0, 44, 62
5, 45600, Note_on_c, 0, 44, 0
5, 45600, Note_on_c, 0, 32, 62
5, 45647, Note_on_c, 0, 32, 0
5, 46080, Note_on_c, 0, 56, 62
5, 46127, Note_on_c, 0, 56, 0
5, 46560, Note_on_c, 0, 44, 62
5, 46607, Note_on_c, 0, 44, 0
5, 47040, Note_on_c, 0, 32, 75
5, 47040, Note_on_c, 0, 44, 75
5, 47520, Note_on_c, 0, 44, 0
5, 47520, Note_on_c, 0, 32, 0
5, 47520, Note_on_c, 0, 55, 101
5, 48000, Note_on_c, 0, 55, 0
5, 48000, Note_on_c, 0, 56, 101
5, 48480, Note_on_c, 0, 56, 0
5, 48480, Note_on_c, 0, 38, 101
5, 48480, Note_on_c, 0, 50, 101
5, 48960, Note_on_c, 0, 50, 0
5, 48960, Note_on_c, 0, 38, 0
5, 48960, Note_on_c, 0, 40, 101
5, 48960, Note_on_c, 0, 52, 101
5, 49440, Note_on_c, 0, 52, 0
5, 49440, Note_on_c, 0, 40, 0
5, 49440, Note_on_c, 0, 26, 101
5, 49440, Note_on_c, 0, 38, 101
5, 49920, Note_on_c, 0, 38, 0
5, 49920, Note_on_c, 0, 26, 0
5, 49920, Note_on_c, 0, 28, 88
5, 49920, Note_on_c, 0, 40, 88
5, 49967, Note_on_c, 0, 40, 0
5, 49967, Note_on_c, 0, 28, 0
5, 50400, Note_on_c, 0, 52, 88
5, 50447, Note_on_c, 0, 52, 0
5, 51360, Note_on_c, 0, 28, 88
5, 51360, Note_on_c, 0, 40, 88
5, 51407, Note_on_c, 0, 40, 0
5, 51407, Note_on_c, 0, 28, 0
5, 51840, Note_on_c, 0, 52, 88
5, 51887, Note_on_c, 0, 52, 0
5, 52800, Note_on_c, 0, 33, 88
5, 52800, Note_on_c, 0, 45, 88
5, 52847, Note_on_c, 0, 45, 0
5, 52847, Note_on_c, 0, 33, 0
5, 53280, Note_on_c, 0, 52, 88
5, 53327, Note_on_c, 0, 52, 0
5, 53760, Note_on_c, 0, 45, 88
5, 53807, Note_on_c, 0, 45, 0
5, 54240, Note_on_c, 0, 33, 88
5, 54240, Note_on_c, 0, 45, 88
5, 54287, Note_on_c, 0, 45, 0
5, 54287, Note_on_c, 0, 33, 0
5, 54720, Note_on_c, 0, 52, 88
5, 54767, Note_on_c, 0, 52, 0
5, 55200, Note_on_c, 0, 28, 88
5, 55200, Note_on_c, 0, 40, 88
5, 55247, Note_on_c, 0, 40, 0
5, 55247, Note_on_c, 0, 28, 0
5, 55680, Note_on_c, 0, 33, 88
5, 55680, Note_on_c, 0, 45, 88
5, 55727, Note_on_c, 0, 45, 0
5, 55727, Note_on_c, 0, 33, 0
5, 56160, Note_on_c, 0, 52, 88
5, 56207, Note_on_c, 0, 52, 0
5, 56640, Note_on_c, 0, 45, 88
5, 56687, Note_on_c, 0, 45, 0
5, 57120, Note_on_c, 0, 26, 88
5, 57120, Note_on_c, 0, 38, 88
5, 57167, Note_on_c, 0, 38, 0
5, 57167, Note_on_c, 0, 26, 0
5, 57600, Note_on_c, 0, 50, 88
5, 57647, Note_on_c, 0, 50, 0
5, 58080, Note_on_c, 0, 43, 88
5, 58127, Note_on_c, 0, 43, 0
5, 58560, Note_on_c, 0, 31, 88
5, 58560, Note_on_c, 0, 43, 88
5, 58607, Note_on_c, 0, 43, 0
5, 58607, Note_on_c, 0, 31, 0
5, 59040, Note_on_c, 0, 50, 88
5, 59087, Note_on_c, 0, 50, 0
5, 59520, Note_on_c, 0, 43, 88
5, 59567, Note_on_c, 0, 43, 0
5, 60000, Note_on_c, 0, 31, 88
5, 60000, Note_on_c, 0, 43, 88
5, 60047, Note_on_c, 0, 43, 0
5, 60047, Note_on_c, 0, 31, 0
5, 60480, Note_on_c, 0, 50, 88
5, 60527, Note_on_c, 0, 50, 0
5, 60960, Note_on_c, 0, 26, 88
5, 60960, Note_on_c, 0, 38, 88
5, 61007, Note_on_c, 0, 38, 0
5, 61007, Note_on_c, 0, 26, 0
5, 61440, Note_on_c, 0, 31, 88
5, 61440, Note_on_c, 0, 43, 88
5, 61920, Note_on_c, 0, 43, 0
5, 61920, Note_on_c, 0, 31, 0
5, 61920, Note_on_c, 0, 50, 88
5, 62400, Note_on_c, 0, 50, 0
5, 62400, Note_on_c, 0, 28, 88
5, 62400, Note_on_c, 0, 40, 88
5, 62880, Note_on_c, 0, 40, 0
5, 62880, Note_on_c, 0, 28, 0
5, 62880, Note_on_c, 0, 33, 88
5, 62880, Note_on_c, 0, 45, 88
5, 63360, Note_on_c, 0, 45, 0
5, 63360, Note_on_c, 0, 33, 0
5, 63360, Note_on_c, 0, 52, 88
5, 63840, Note_on_c, 0, 52, 0
5, 63840, Note_on_c, 0, 40, 88
5, 64320, Note_on_c, 0, 40, 0
5, 64320, Note_on_c, 0, 33, 75
5, 64320, Note_on_c, 0, 45, 75
5, 64800, Note_on_c, 0, 45, 0
5, 64800, Note_on_c, 0, 33, 0
5, 64800, Note_on_c, 0, 52, 75
5, 65280, Note_on_c, 0, 52, 0
5, 65280, Note_on_c, 0, 35, 75
5, 65280, Note_on_c, 0, 47, 75
5, 65760, Note_on_c, 0, 47, 0
5, 65760, Note_on_c, 0, 35, 0
5, 65760, Note_on_c, 0, 36, 75
5, 65760, Note_on_c, 0, 48, 75
5, 66240, Note_on_c, 0, 48, 0
5, 66240, Note_on_c, 0, 36, 0
5, 66240, Note_on_c, 0, 53, 75
5, 66720, Note_on_c, 0, 53, 0
5, 66720, Note_on_c, 0, 38, 75
5, 66720, Note_on_c, 0, 50, 75
5, 67200, Note_on_c, 0, 50, 0
5, 67200, Note_on_c, 0, 38, 0
5, 67200, Note_on_c, 0, 40, 75
5, 67200, Note_on_c, 0, 52, 75
5, 67680, Note_on_c, 0, 52, 0
5, 67680, Note_on_c, 0, 40, 0
5, 67680, Note_on_c, 0, 52, 75
5, 68160, Note_on_c, 0, 52, 0
5, 68160, Note_on_c, 0, 28, 75
5, 68160, Note_on_c, 0, 40, 75
5, 68640, Note_on_c, 0, 40, 0
5, 68640, Note_on_c, 0, 28, 0
5, 68640, Note_on_c, 0, 33, 75
5, 68640, Note_on_c, 0, 45, 75
5, 69120, Note_on_c, 0, 45, 0
5, 69120, Note_on_c, 0, 33, 0
5, 69120, Note_on_c, 0, 52, 75
5, 69600, Note_on_c, 0, 52, 0
5, 69600, Note_on_c, 0, 45, 75
5, 70080, Note_on_c, 0, 45, 0
5, 70080, Note_on_c, 0, 29, 62
5, 70080, Note_on_c, 0, 41, 62
5, 70127, Note_on_c, 0, 41, 0
5, 70127, Note_on_c, 0, 29, 0
5, 70560, Note_on_c, 0, 53, 62
5, 70607, Note_on_c, 0, 53, 0
5, 71040, Note_on_c, 0, 41, 62
5, 71087, Note_on_c, 0, 41, 0
5, 71520, Note_on_c, 0, 29, 62
5, 71520, Note_on_c, 0, 41, 62
5, 71567, Note_on_c, 0, 41, 0
5, 71567, Note_on_c, 0, 29, 0
5, 72000, Note_on_c, 0, 53, 62
5, 72047, Note_on_c, 0, 53, 0
5, 72480, Note_on_c, 0, 41, 62
5, 72527, Note_on_c, 0, 41, 0
5, 72960, Note_on_c, 0, 25, 62
5, 72960, Note_on_c, 0, 37, 62
5, 73007, Note_on_c, 0, 37, 0
5, 73007, Note_on_c, 0, 25, 0
5, 73440, Note_on_c, 0, 53, 62
5, 73487, Note_on_c, 0, 53, 0
5, 73920, Note_on_c, 0, 37, 62
5, 73920, Note_on_c, 0, 49, 62
5, 73967, Note_on_c, 0, 49, 0
5, 73967, Note_on_c, 0, 37, 0
5, 74400, Note_on_c, 0, 25, 62
5, 74400, Note_on_c, 0, 37, 62
5, 74447, Note_on_c, 0, 37, 0
5, 74447, Note_on_c, 0, 25, 0
5, 74880, Note_on_c, 0, 53, 62
5, 74927, Note_on_c, 0, 53, 0
5, 75360, Note_on_c, 0, 37, 62
5, 75360, Note_on_c, 0, 49, 62
5, 75407, Note_on_c, 0, 49, 0
5, 75407, Note_on_c, 0, 37, 0
5, 75840, Note_on_c, 0, 32, 88
5, 76320, Note_on_c, 0, 32, 0
5, 76320, Note_on_c, 0, 56, 88
5, 76367, Note_on_c, 0, 56, 0
5, 76800, Note_on_c, 0, 44, 88
5, 77280, Note_on_c, 0, 44, 0
5, 77280, Note_on_c, 0, 32, 88
5, 77760, Note_on_c, 0, 32, 0
5, 77760, Note_on_c, 0, 56, 62
5, 77807, Note_on_c, 0, 56, 0
5, 78240, Note_on_c, 0, 44, 62
5, 78720, Note_on_c, 0, 44, 0
5, 78720, Note_on_c, 0, 32, 88
5, 79200, Note_on_c, 0, 32, 0
5, 79200, Note_on_c, 0, 56, 62
5, 79247, Note_on_c, 0, 56, 0
5, 79680, Note_on_c, 0, 44, 62
5, 80160, Note_on_c, 0, 44, 0
5, 80160, Note_on_c, 0, 32, 62
5, 80207, Note_on_c, 0, 32, 0
5, 80640, Note_on_c, 0, 56, 62
5, 80687, Note_on_c, 0, 56, 0
5, 81120, Note_on_c, 0, 44, 62
5, 81167, Note_on_c, 0, 44, 0
5, 81600, Note_on_c, 0, 32, 75
5, 81600, Note_on_c, 0, 44, 75
5, 82080, Note_on_c, 0, 44, 0
5, 82080, Note_on_c, 0, 32, 0
5, 82080, Note_on_c, 0, 55, 101
5, 82560, Note_on_c, 0, 55, 0
5, 82560, Note_on_c, 0, 56, 101
5, 83040, Note_on_c, 0, 56, 0
5, 83040, Note_on_c, 0, 38, 101
5, 83040, Note_on_c, 0, 50, 101
5, 83520, Note_on_c, 0, 50, 0
5, 83520, Note_on_c, 0, 38, 0
5, 83520, Note_on_c, 0, 40, 101
5, 83520, Note_on_c, 0, 52, 101
5, 84000, Note_on_c, 0, 52, 0
5, 84000, Note_on_c, 0, 40, 0
5, 84000, Note_on_c, 0, 26, 101
5, 84000, Note_on_c, 0, 38, 101
5, 84480, Note_on_c, 0, 38, 0
5, 84480, Note_on_c, 0, 26, 0
5, 84480, Note_on_c, 0, 28, 88
5, 84480, Note_on_c, 0, 40, 88
5, 84527, Note_on_c, 0, 40, 0
5, 84527, Note_on_c, 0, 28, 0
5, 84960, Note_on_c, 0, 52, 88
5, 85007, Note_on_c, 0, 52, 0
5, 85920, Note_on_c, 0, 28, 88
5, 85920, Note_on_c, 0, 40, 88
5, 85967, Note_on_c, 0, 40, 0
5, 85967, Note_on_c, 0, 28, 0
5, 86400, Note_on_c, 0, 52, 88
5, 86447, Note_on_c, 0, 52, 0
5, 87360, Note_on_c, 0, 33, 88
5, 87360, Note_on_c, 0, 45, 88
5, 87407, Note_on_c, 0, 45, 0
5, 87407, Note_on_c, 0, 33, 0
5, 87840, Note_on_c, 0, 52, 88
5, 87887, Note_on_c, 0, 52, 0
5, 88320, Note_on_c, 0, 45, 88
5, 88367, Note_on_c, 0, 45, 0
5, 88800, Note_on_c, 0, 33, 88
5, 88800, Note_on_c, 0, 45, 88
5, 88847, Note_on_c, 0, 45, 0
5, 88847, Note_on_c, 0, 33, 0
5, 89280, Note_on_c, 0, 52, 88
5, 89327, Note_on_c, 0, 52, 0
5, 89760, Note_on_c, 0, 28, 88
5, 89760, Note_on_c, 0, 40, 88
5, 89807, Note_on_c, 0, 40, 0
5, 89807, Note_on_c, 0, 28, 0
5, 90240, Note_on_c, 0, 33, 88
5, 90240, Note_on_c, 0, 45, 88
5, 90287, Note_on_c, 0, 45, 0
5, 90287, Note_on_c, 0, 33, 0
5, 90720, Note_on_c, 0, 52, 88
5, 90767, Note_on_c, 0, 52, 0
5, 91200, Note_on_c, 0, 45, 88
5, 91247, Note_on_c, 0, 45, 0
5, 91680, Note_on_c, 0, 26, 88
5, 91680, Note_on_c, 0, 38, 88
5, 91727, Note_on_c, 0, 38, 0
5, 91727, Note_on_c, 0, 26, 0
5, 92160, Note_on_c, 0, 50, 88
5, 92207, Note_on_c, 0, 50, 0
5, 92640, Note_on_c, 0, 43, 88
5, 92687, Note_on_c, 0, 43, 0
5, 93120, Note_on_c, 0, 31, 88
5, 93120, Note_on_c, 0, 43, 88
5, 93167, Note_on_c, 0, 43, 0
5, 93167, Note_on_c, 0, 31, 0
5, 93600, Note_on_c, 0, 50, 88
5, 93647, Note_on_c, 0, 50, 0
5, 94080, Note_on_c, 0, 43, 88
5, 94127, Note_on_c, 0, 43, 0
5, 94560, Note_on_c, 0, 31, 88
5, 94560, Note_on_c, 0, 43, 88
5, 94607, Note_on_c, 0, 43, 0
5, 94607, Note_on_c, 0, 31, 0
5, 95040, Note_on_c, 0, 50, 88
5, 95087, Note_on_c, 0, 50, 0
5, 95520, Note_on_c, 0, 26, 88
5, 95520, Note_on_c, 0, 38, 88
5, 95567, Note_on_c, 0, 38, 0
5, 95567, Note_on_c, 0, 26, 0
5, 96000, Note_on_c, 0, 31, 88
5, 96000, Note_on_c, 0, 43, 88
5, 96480, Note_on_c, 0, 43, 0
5, 96480, Note_on_c, 0, 31, 0
5, 96480, Note_on_c, 0, 50, 88
5, 96960, Note_on_c, 0, 50, 0
5, 96960, Note_on_c, 0, 28, 88
5, 96960, Note_on_c, 0, 40, 88
5, 97440, Note_on_c, 0, 40, 0
5, 97440, Note_on_c, 0, 28, 0
5, 97440, Note_on_c, 0, 33, 88
5, 97440, Note_on_c, 0, 45, 88
5, 97920, Note_on_c, 0, 45, 0
5, 97920, Note_on_c, 0, 33, 0
5, 97920, Note_on_c, 0, 52, 88
5, 98400, Note_on_c, 0, 52, 0
5, 98400, Note_on_c, 0, 40, 88
5, 98880, Note_on_c, 0, 40, 0
5, 98880, Note_on_c, 0, 33, 75
5, 98880, Note_on_c, 0, 45, 75
5, 99360, Note_on_c, 0, 45, 0
5, 99360, Note_on_c, 0, 33, 0
5, 99360, Note_on_c, 0, 52, 75
5, 99840, Note_on_c, 0, 52, 0
5, 99840, Note_on_c, 0, 35, 75
5, 99840, Note_on_c, 0, 47, 75
5, 100320, Note_on_c, 0, 47, 0
5, 100320, Note_on_c, 0, 35, 0
5, 100320, Note_on_c, 0, 36, 75
5, 100320, Note_on_c, 0, 48, 75
5, 100800, Note_on_c, 0, 48, 0
5, 100800, Note_on_c, 0, 36, 0
5, 100800, Note_on_c, 0, 53, 75
5, 101280, Note_on_c, 0, 53, 0
5, 101280, Note_on_c, 0, 38, 75
5, 101280, Note_on_c, 0, 50, 75
5, 101760, Note_on_c, 0, 50, 0
5, 101760, Note_on_c, 0, 38, 0
5, 101760, Note_on_c, 0, 40, 75
5, 101760, Note_on_c, 0, 52, 75
5, 102240, Note_on_c, 0, 52, 0
5, 102240, Note_on_c, 0, 40, 0
5, 102240, Note_on_c, 0, 52, 75
5, 102720, Note_on_c, 0, 52, 0
5, 102720, Note_on_c, 0, 28, 75
5, 102720, Note_on_c, 0, 40, 75
5, 103200, Note_on_c, 0, 40, 0
5, 103200, Note_on_c, 0, 28, 0
5, 103200, Note_on_c, 0, 33, 75
5, 103200, Note_on_c, 0, 45, 75
5, 103680, Note_on_c, 0, 45, 0
5, 103680, Note_on_c, 0, 33, 0
5, 103680, Note_on_c, 0, 52, 75
5, 104160, Note_on_c, 0, 52, 0
5, 104160, Note_on_c, 0, 45, 75
5, 104640, Note_on_c, 0, 45, 0
5, 104640, End_track
0, 0, End_of_file
