0, 0, Header, 0, 1, 480
1, 0, Start_track
1, 0, Title_t, "Petite Suite"
1, 0, Title_t, "2. Intermezzo"
1, 0, Copyright_t, "Copyright © 2000 by Bernd Krueger"
1, 0, Text_t, "Alexander Borodin"
1, 0, Text_t, "Fertiggestellt am 24.6.2000\012"
1, 0, Text_t, "Update am 21.8.2000\012"
1, 0, Text_t, "Normierung: 23.12.2002\012"
1, 0, Text_t, "Dauer: 2:45 Minuten\012"
1, 0, SMPTE_offset, 96, 0, 3, 0, 0
1, 0, Time_signature, 3, 2, 24, 8
1, 0, Key_signature, -1, "major"
1, 0, Tempo, 479118
1, 0, Marker_t, "Tempo di Minuetto"
1, 0, Program_c, 0, 0
1, 0, Control_c, 0, 7, 100
1, 0, Note_on_c, 0, 57, 48
1, 0, Note_on_c, 0, 64, 55
1, 0, Text_t, "bdca426d104a26ac9dcb070447587523"
1, 0, Control_c, 0, 91, 127
1, 0, Program_c, 0, 0
1, 0, Control_c, 0, 7, 100
1, 0, Control_c, 0, 64, 127
1, 0, Note_on_c, 0, 48, 48
1, 0, Note_on_c, 0, 41, 44
1, 360, Tempo, 492490
1, 360, Note_on_c, 0, 64, 0
1, 360, Note_on_c, 0, 65, 51
1, 480, Tempo, 446894
1, 480, Note_on_c, 0, 65, 0
1, 480, Note_on_c, 0, 69, 55
1, 640, Note_on_c, 0, 69, 0
1, 640, Note_on_c, 0, 67, 51
1, 720, Tempo, 452728
1, 762, Control_c, 0, 64, 0
1, 800, Note_on_c, 0, 67, 0
1, 800, Note_on_c, 0, 65, 51
1, 960, Tempo, 460405
1, 960, Note_on_c, 0, 65, 0
1, 960, Note_on_c, 0, 48, 0
1, 960, Note_on_c, 0, 64, 53
1, 960, Note_on_c, 0, 49, 45
1, 1038, Control_c, 0, 64, 127
1, 1200, Tempo, 466999
1, 1200, Note_on_c, 0, 64, 0
1, 1200, Note_on_c, 0, 65, 52
1, 1348, Control_c, 0, 64, 0
1, 1440, Tempo, 473896
1, 1440, Note_on_c, 0, 65, 0
1, 1440, Note_on_c, 0, 49, 0
1, 1440, Note_on_c, 0, 57, 0
1, 1440, Note_on_c, 0, 41, 0
1, 1440, Note_on_c, 0, 62, 52
1, 1440, Note_on_c, 0, 57, 48
1, 1440, Note_on_c, 0, 50, 48
1, 1440, Note_on_c, 0, 41, 44
1, 1531, Control_c, 0, 64, 127
1, 1800, Note_on_c, 0, 62, 0
1, 1920, Tempo, 450789
1, 1920, Note_on_c, 0, 69, 58
1, 2400, Tempo, 465008
1, 2400, Note_on_c, 0, 50, 0
1, 2400, Note_on_c, 0, 49, 39
1, 2491, Control_c, 0, 64, 0
1, 2880, Tempo, 470035
1, 2880, Note_on_c, 0, 49, 0
1, 2880, Note_on_c, 0, 69, 0
1, 2880, Note_on_c, 0, 57, 0
1, 2880, Note_on_c, 0, 41, 0
1, 2880, Note_on_c, 0, 55, 48
1, 2880, Note_on_c, 0, 62, 55
1, 2880, Note_on_c, 0, 50, 48
1, 2880, Note_on_c, 0, 46, 44
1, 2922, Control_c, 0, 64, 127
1, 3240, Tempo, 484770
1, 3240, Note_on_c, 0, 62, 0
1, 3240, Note_on_c, 0, 64, 50
1, 3360, Tempo, 448833
1, 3360, Note_on_c, 0, 64, 0
1, 3360, Note_on_c, 0, 50, 0
1, 3360, Note_on_c, 0, 67, 55
1, 3360, Note_on_c, 0, 52, 48
1, 3520, Note_on_c, 0, 67, 0
1, 3520, Note_on_c, 0, 65, 51
1, 3600, Tempo, 452728
1, 3680, Note_on_c, 0, 65, 0
1, 3680, Note_on_c, 0, 64, 51
1, 3776, Control_c, 0, 64, 0
1, 3840, Tempo, 469263
1, 3840, Note_on_c, 0, 64, 0
1, 3840, Note_on_c, 0, 62, 55
1, 3847, Control_c, 0, 64, 127
1, 4080, Tempo, 480885
1, 4080, Note_on_c, 0, 62, 0
1, 4080, Note_on_c, 0, 64, 52
1, 4214, Control_c, 0, 64, 0
1, 4320, Tempo, 466999
1, 4320, Note_on_c, 0, 64, 0
1, 4320, Note_on_c, 0, 46, 0
1, 4320, Note_on_c, 0, 55, 0
1, 4320, Note_on_c, 0, 62, 51
1, 4320, Note_on_c, 0, 64, 55
1, 4320, Note_on_c, 0, 45, 44
1, 4343, Control_c, 0, 64, 127
1, 4560, Note_on_c, 0, 62, 0
1, 4560, Note_on_c, 0, 61, 44
1, 4800, Tempo, 458786
1, 4800, Note_on_c, 0, 61, 0
1, 4800, Note_on_c, 0, 52, 0
1, 4800, Note_on_c, 0, 59, 47
1, 4800, Note_on_c, 0, 55, 45
1, 5040, Tempo, 465008
1, 5040, Note_on_c, 0, 59, 0
1, 5040, Note_on_c, 0, 61, 42
1, 5280, Tempo, 467108
1, 5280, Note_on_c, 0, 61, 0
1, 5280, Note_on_c, 0, 55, 0
1, 5280, Note_on_c, 0, 45, 0
1, 5280, Note_on_c, 0, 59, 47
1, 5280, Note_on_c, 0, 45, 45
1, 5451, Control_c, 0, 64, 0
1, 5520, Tempo, 482393
1, 5520, Note_on_c, 0, 59, 0
1, 5520, Note_on_c, 0, 57, 42
1, 5760, Tempo, 471809
1, 5760, Note_on_c, 0, 57, 0
1, 5760, Note_on_c, 0, 45, 0
1, 5760, Note_on_c, 0, 64, 0
1, 5760, Note_on_c, 0, 57, 48
1, 5760, Note_on_c, 0, 64, 55
1, 5760, Control_c, 0, 64, 127
1, 5760, Note_on_c, 0, 48, 48
1, 5760, Note_on_c, 0, 41, 44
1, 6120, Tempo, 492490
1, 6120, Note_on_c, 0, 64, 0
1, 6120, Note_on_c, 0, 65, 51
1, 6240, Tempo, 446894
1, 6240, Note_on_c, 0, 65, 0
1, 6240, Note_on_c, 0, 69, 55
1, 6400, Note_on_c, 0, 69, 0
1, 6400, Note_on_c, 0, 67, 51
1, 6480, Tempo, 452728
1, 6522, Control_c, 0, 64, 0
1, 6560, Note_on_c, 0, 67, 0
1, 6560, Note_on_c, 0, 65, 51
1, 6720, Tempo, 460405
1, 6720, Note_on_c, 0, 65, 0
1, 6720, Note_on_c, 0, 48, 0
1, 6720, Note_on_c, 0, 64, 53
1, 6720, Note_on_c, 0, 49, 45
1, 6798, Control_c, 0, 64, 127
1, 6960, Tempo, 466999
1, 6960, Note_on_c, 0, 64, 0
1, 6960, Note_on_c, 0, 65, 52
1, 7108, Control_c, 0, 64, 0
1, 7200, Tempo, 470035
1, 7200, Note_on_c, 0, 65, 0
1, 7200, Note_on_c, 0, 49, 0
1, 7200, Note_on_c, 0, 57, 0
1, 7200, Note_on_c, 0, 41, 0
1, 7200, Note_on_c, 0, 57, 48
1, 7200, Note_on_c, 0, 62, 52
1, 7200, Note_on_c, 0, 50, 48
1, 7200, Note_on_c, 0, 41, 44
1, 7291, Control_c, 0, 64, 127
1, 7560, Note_on_c, 0, 62, 0
1, 7680, Tempo, 446894
1, 7680, Note_on_c, 0, 69, 57
1, 8160, Tempo, 465008
1, 8160, Note_on_c, 0, 50, 0
1, 8160, Note_on_c, 0, 52, 39
1, 8251, Control_c, 0, 64, 0
1, 8640, Tempo, 471809
1, 8640, Note_on_c, 0, 52, 0
1, 8640, Note_on_c, 0, 69, 0
1, 8640, Note_on_c, 0, 57, 0
1, 8640, Note_on_c, 0, 41, 0
1, 8640, Note_on_c, 0, 69, 57
1, 8640, Note_on_c, 0, 62, 50
1, 8640, Note_on_c, 0, 53, 47
1, 8682, Control_c, 0, 64, 127
1, 9000, Tempo, 486697
1, 9000, Note_on_c, 0, 69, 0
1, 9000, Note_on_c, 0, 71, 52
1, 9120, Tempo, 456066
1, 9120, Note_on_c, 0, 71, 0
1, 9120, Note_on_c, 0, 53, 0
1, 9120, Note_on_c, 0, 74, 57
1, 9120, Note_on_c, 0, 55, 53
1, 9280, Note_on_c, 0, 74, 0
1, 9280, Note_on_c, 0, 72, 53
1, 9440, Note_on_c, 0, 72, 0
1, 9440, Note_on_c, 0, 71, 53
1, 9536, Control_c, 0, 64, 0
1, 9600, Tempo, 462927
1, 9600, Note_on_c, 0, 71, 0
1, 9600, Note_on_c, 0, 55, 0
1, 9600, Note_on_c, 0, 69, 57
1, 9600, Note_on_c, 0, 53, 50
1, 9607, Control_c, 0, 64, 127
1, 9840, Tempo, 469190
1, 9840, Note_on_c, 0, 69, 0
1, 9840, Note_on_c, 0, 71, 55
1, 9974, Control_c, 0, 64, 0
1, 10080, Tempo, 454752
1, 10080, Note_on_c, 0, 71, 0
1, 10080, Note_on_c, 0, 53, 0
1, 10080, Note_on_c, 0, 67, 57
1, 10080, Note_on_c, 0, 52, 44
1, 10103, Control_c, 0, 64, 127
1, 10320, Tempo, 465008
1, 10320, Note_on_c, 0, 67, 0
1, 10320, Note_on_c, 0, 69, 51
1, 10500, Control_c, 0, 64, 0
1, 10560, Tempo, 456760
1, 10560, Note_on_c, 0, 69, 0
1, 10560, Note_on_c, 0, 52, 0
1, 10560, Note_on_c, 0, 62, 0
1, 10560, Note_on_c, 0, 60, 47
1, 10560, Note_on_c, 0, 67, 59
1, 10560, Note_on_c, 0, 57, 51
1, 10583, Control_c, 0, 64, 127
1, 10800, Tempo, 469190
1, 10800, Note_on_c, 0, 67, 0
1, 10800, Note_on_c, 0, 69, 53
1, 11040, Tempo, 467108
1, 11040, Note_on_c, 0, 69, 0
1, 11040, Note_on_c, 0, 57, 0
1, 11040, Note_on_c, 0, 71, 59
1, 11040, Note_on_c, 0, 55, 47
1, 11280, Tempo, 486894
1, 11280, Note_on_c, 0, 71, 0
1, 11280, Note_on_c, 0, 72, 55
1, 11394, Control_c, 0, 64, 0
1, 11520, Tempo, 462927
1, 11520, Note_on_c, 0, 72, 0
1, 11520, Note_on_c, 0, 55, 0
1, 11520, Note_on_c, 0, 60, 0
1, 11520, Note_on_c, 0, 65, 57
1, 11520, Note_on_c, 0, 59, 50
1, 11520, Note_on_c, 0, 50, 47
1, 11562, Control_c, 0, 64, 127
1, 11880, Tempo, 470035
1, 11880, Note_on_c, 0, 65, 0
1, 11880, Note_on_c, 0, 67, 52
1, 12000, Tempo, 456066
1, 12000, Note_on_c, 0, 67, 0
1, 12000, Note_on_c, 0, 50, 0
1, 12000, Note_on_c, 0, 71, 57
1, 12000, Note_on_c, 0, 55, 53
1, 12160, Note_on_c, 0, 71, 0
1, 12160, Note_on_c, 0, 69, 53
1, 12240, Tempo, 462927
1, 12320, Note_on_c, 0, 69, 0
1, 12320, Note_on_c, 0, 67, 53
1, 12416, Control_c, 0, 64, 0
1, 12480, Tempo, 469263
1, 12480, Note_on_c, 0, 67, 0
1, 12480, Note_on_c, 0, 55, 0
1, 12480, Note_on_c, 0, 59, 0
1, 12480, Note_on_c, 0, 65, 57
1, 12480, Note_on_c, 0, 59, 48
1, 12480, Note_on_c, 0, 50, 47
1, 12487, Control_c, 0, 64, 127
1, 12520, Tempo, 482393
1, 12720, Tempo, 491562
1, 12720, Note_on_c, 0, 65, 0
1, 12720, Note_on_c, 0, 67, 55
1, 12854, Control_c, 0, 64, 0
1, 12960, Tempo, 480154
1, 12960, Note_on_c, 0, 67, 0
1, 12960, Note_on_c, 0, 59, 0
1, 12960, Note_on_c, 0, 59, 50
1, 12960, Note_on_c, 0, 64, 57
1, 12960, Note_on_c, 0, 56, 50
1, 13253, Control_c, 0, 64, 127
1, 13440, Tempo, 489237
1, 13440, Note_on_c, 0, 50, 0
1, 13440, Note_on_c, 0, 50, 47
1, 13707, Control_c, 0, 64, 0
1, 13920, Note_on_c, 0, 50, 0
1, 13920, Note_on_c, 0, 56, 0
1, 13920, Note_on_c, 0, 59, 0
1, 13920, Note_on_c, 0, 48, 38
1, 13920, Note_on_c, 0, 57, 45
1, 14053, Control_c, 0, 64, 127
1, 14187, Control_c, 0, 64, 0
1, 14400, Tempo, 468238
1, 14400, Note_on_c, 0, 57, 0
1, 14400, Note_on_c, 0, 48, 0
1, 14400, Note_on_c, 0, 64, 0
1, 14400, Note_on_c, 0, 53, 45
1, 14400, Note_on_c, 0, 57, 57
1, 14429, Control_c, 0, 64, 127
1, 14760, Tempo, 484770
1, 14760, Note_on_c, 0, 57, 0
1, 14760, Note_on_c, 0, 59, 53
1, 14869, Control_c, 0, 64, 0
1, 14880, Tempo, 452830
1, 14880, Note_on_c, 0, 59, 0
1, 14880, Note_on_c, 0, 69, 47
1, 14880, Note_on_c, 0, 74, 62
1, 14880, Note_on_c, 0, 62, 56
1, 14909, Control_c, 0, 64, 127
1, 15040, Note_on_c, 0, 62, 0
1, 15040, Note_on_c, 0, 60, 55
1, 15120, Tempo, 458015
1, 15200, Note_on_c, 0, 60, 0
1, 15200, Note_on_c, 0, 59, 55
1, 15360, Tempo, 469263
1, 15360, Note_on_c, 0, 59, 0
1, 15360, Note_on_c, 0, 74, 0
1, 15360, Note_on_c, 0, 81, 66
1, 15360, Note_on_c, 0, 57, 57
1, 15600, Tempo, 480885
1, 15600, Note_on_c, 0, 57, 0
1, 15600, Note_on_c, 0, 59, 56
1, 15743, Control_c, 0, 64, 0
1, 15840, Tempo, 454752
1, 15840, Note_on_c, 0, 59, 0
1, 15840, Note_on_c, 0, 53, 0
1, 15840, Note_on_c, 0, 52, 41
1, 15840, Note_on_c, 0, 55, 55
1, 15909, Control_c, 0, 64, 127
1, 16080, Tempo, 456760
1, 16080, Note_on_c, 0, 55, 0
1, 16080, Note_on_c, 0, 57, 52
1, 16320, Tempo, 447761
1, 16320, Note_on_c, 0, 57, 0
1, 16320, Note_on_c, 0, 81, 0
1, 16320, Note_on_c, 0, 72, 60
1, 16320, Note_on_c, 0, 55, 59
1, 16560, Tempo, 454545
1, 16560, Note_on_c, 0, 55, 0
1, 16560, Note_on_c, 0, 57, 55
1, 16720, Control_c, 0, 64, 0
1, 16800, Tempo, 467108
1, 16800, Note_on_c, 0, 57, 0
1, 16800, Note_on_c, 0, 72, 0
1, 16800, Note_on_c, 0, 69, 0
1, 16800, Note_on_c, 0, 67, 47
1, 16800, Note_on_c, 0, 79, 62
1, 16800, Note_on_c, 0, 59, 59
1, 16823, Control_c, 0, 64, 127
1, 17040, Tempo, 486894
1, 17040, Note_on_c, 0, 59, 0
1, 17040, Note_on_c, 0, 60, 51
1, 17189, Control_c, 0, 64, 0
1, 17280, Tempo, 464720
1, 17280, Note_on_c, 0, 60, 0
1, 17280, Note_on_c, 0, 79, 0
1, 17280, Note_on_c, 0, 67, 0
1, 17280, Note_on_c, 0, 52, 0
1, 17280, Note_on_c, 0, 50, 45
1, 17280, Note_on_c, 0, 53, 57
1, 17315, Control_c, 0, 64, 127
1, 17640, Note_on_c, 0, 53, 0
1, 17640, Note_on_c, 0, 55, 53
1, 17732, Control_c, 0, 64, 0
1, 17760, Tempo, 444444
1, 17760, Note_on_c, 0, 55, 0
1, 17760, Note_on_c, 0, 77, 62
1, 17760, Note_on_c, 0, 71, 48
1, 17760, Note_on_c, 0, 59, 59
1, 17771, Control_c, 0, 64, 127
1, 17920, Note_on_c, 0, 59, 0
1, 17920, Note_on_c, 0, 57, 57
1, 18000, Tempo, 452728
1, 18080, Note_on_c, 0, 57, 0
1, 18080, Note_on_c, 0, 55, 57
1, 18240, Tempo, 471365
1, 18240, Note_on_c, 0, 55, 0
1, 18240, Note_on_c, 0, 50, 0
1, 18240, Note_on_c, 0, 77, 0
1, 18240, Note_on_c, 0, 71, 0
1, 18240, Note_on_c, 0, 67, 46
1, 18240, Note_on_c, 0, 79, 60
1, 18240, Note_on_c, 0, 43, 42
1, 18240, Note_on_c, 0, 53, 59
1, 18265, Control_c, 0, 64, 0
1, 18289, Control_c, 0, 64, 127
1, 18480, Tempo, 484653
1, 18480, Note_on_c, 0, 53, 0
1, 18480, Note_on_c, 0, 55, 58
1, 18642, Control_c, 0, 64, 0
1, 18700, Note_on_c, 0, 67, 0
1, 18700, Note_on_c, 0, 79, 0
1, 18720, Tempo, 450789
1, 18720, Note_on_c, 0, 43, 0
1, 18720, Note_on_c, 0, 55, 0
1, 18720, Note_on_c, 0, 67, 48
1, 18720, Note_on_c, 0, 79, 62
1, 18720, Note_on_c, 0, 48, 45
1, 18720, Note_on_c, 0, 53, 53
1, 18805, Control_c, 0, 64, 127
1, 18960, Tempo, 460829
1, 18960, Note_on_c, 0, 53, 0
1, 18960, Note_on_c, 0, 52, 51
1, 19200, Tempo, 467108
1, 19200, Note_on_c, 0, 52, 0
1, 19200, Note_on_c, 0, 79, 0
1, 19200, Note_on_c, 0, 67, 0
1, 19200, Note_on_c, 0, 72, 57
1, 19200, Note_on_c, 0, 50, 55
1, 19440, Tempo, 480154
1, 19440, Note_on_c, 0, 50, 0
1, 19440, Note_on_c, 0, 52, 51
1, 19680, Tempo, 473522
1, 19680, Note_on_c, 0, 52, 0
1, 19680, Note_on_c, 0, 72, 0
1, 19680, Note_on_c, 0, 48, 0
1, 19680, Note_on_c, 0, 50, 47
1, 19694, Control_c, 0, 64, 0
1, 19807, Control_c, 0, 64, 127
1, 19920, Note_on_c, 0, 50, 0
1, 19920, Note_on_c, 0, 48, 41
1, 20005, Control_c, 0, 64, 0
1, 20160, Key_signature, -4, "major"
1, 20160, Tempo, 458786
1, 20160, Note_on_c, 0, 48, 0
1, 20160, Note_on_c, 0, 53, 69
1, 20160, Note_on_c, 0, 41, 57
1, 20400, Tempo, 443033
1, 20520, Note_on_c, 0, 41, 0
1, 20520, Note_on_c, 0, 53, 0
1, 20520, Note_on_c, 0, 55, 63
1, 20520, Note_on_c, 0, 43, 53
1, 20640, Tempo, 435572
1, 20640, Note_on_c, 0, 58, 69
1, 20640, Note_on_c, 0, 46, 56
1, 20650, Note_on_c, 0, 43, 0
1, 20650, Note_on_c, 0, 55, 0
1, 20800, Note_on_c, 0, 56, 64
1, 20800, Note_on_c, 0, 44, 55
1, 20810, Note_on_c, 0, 58, 0
1, 20810, Note_on_c, 0, 46, 0
1, 20880, Tempo, 456760
1, 20960, Note_on_c, 0, 55, 64
1, 20960, Note_on_c, 0, 43, 55
1, 20970, Note_on_c, 0, 56, 0
1, 20970, Note_on_c, 0, 44, 0
1, 21120, Tempo, 465008
1, 21120, Note_on_c, 0, 53, 69
1, 21120, Note_on_c, 0, 41, 57
1, 21130, Note_on_c, 0, 55, 0
1, 21130, Note_on_c, 0, 43, 0
1, 21360, Tempo, 477897
1, 21360, Note_on_c, 0, 55, 66
1, 21360, Note_on_c, 0, 43, 56
1, 21370, Note_on_c, 0, 53, 0
1, 21370, Note_on_c, 0, 41, 0
1, 21600, Tempo, 462927
1, 21600, Note_on_c, 0, 55, 0
1, 21600, Note_on_c, 0, 43, 0
1, 21600, Note_on_c, 0, 75, 72
1, 21600, Note_on_c, 0, 68, 59
1, 21600, Note_on_c, 0, 39, 55
1, 21600, Note_on_c, 0, 51, 59
1, 21692, Control_c, 0, 64, 127
1, 21840, Tempo, 448833
1, 21960, Note_on_c, 0, 75, 0
1, 21960, Note_on_c, 0, 77, 66
1, 22080, Tempo, 441144
1, 22080, Note_on_c, 0, 77, 0
1, 22080, Note_on_c, 0, 51, 0
1, 22080, Note_on_c, 0, 39, 0
1, 22080, Note_on_c, 0, 80, 71
1, 22080, Control_c, 0, 64, 0
1, 22080, Note_on_c, 0, 48, 55
1, 22080, Note_on_c, 0, 60, 59
1, 22151, Control_c, 0, 64, 127
1, 22240, Note_on_c, 0, 80, 0
1, 22240, Note_on_c, 0, 79, 69
1, 22320, Tempo, 454752
1, 22400, Note_on_c, 0, 79, 0
1, 22400, Note_on_c, 0, 77, 69
1, 22560, Tempo, 465008
1, 22560, Note_on_c, 0, 77, 0
1, 22560, Note_on_c, 0, 75, 71
1, 22800, Tempo, 475700
1, 22800, Note_on_c, 0, 75, 0
1, 22800, Note_on_c, 0, 77, 70
1, 22984, Control_c, 0, 64, 0
1, 23040, Tempo, 458786
1, 23040, Note_on_c, 0, 77, 0
1, 23040, Note_on_c, 0, 68, 0
1, 23040, Note_on_c, 0, 48, 0
1, 23040, Note_on_c, 0, 60, 0
1, 23040, Note_on_c, 0, 67, 55
1, 23040, Note_on_c, 0, 73, 71
1, 23040, Note_on_c, 0, 46, 55
1, 23040, Note_on_c, 0, 58, 59
1, 23047, Control_c, 0, 64, 127
1, 23280, Tempo, 446894
1, 23400, Note_on_c, 0, 73, 0
1, 23400, Note_on_c, 0, 75, 66
1, 23520, Tempo, 439271
1, 23520, Note_on_c, 0, 75, 0
1, 23520, Note_on_c, 0, 58, 0
1, 23520, Note_on_c, 0, 46, 0
1, 23520, Note_on_c, 0, 79, 71
1, 23520, Control_c, 0, 64, 0
1, 23520, Note_on_c, 0, 39, 55
1, 23520, Note_on_c, 0, 51, 59
1, 23562, Control_c, 0, 64, 127
1, 23680, Note_on_c, 0, 79, 0
1, 23680, Note_on_c, 0, 77, 69
1, 23760, Tempo, 446894
1, 23840, Note_on_c, 0, 77, 0
1, 23840, Note_on_c, 0, 75, 69
1, 24000, Tempo, 471365
1, 24000, Note_on_c, 0, 75, 0
1, 24000, Note_on_c, 0, 73, 71
1, 24240, Tempo, 484653
1, 24240, Note_on_c, 0, 73, 0
1, 24240, Note_on_c, 0, 75, 70
1, 24360, Control_c, 0, 64, 0
1, 24480, Tempo, 465008
1, 24480, Note_on_c, 0, 75, 0
1, 24480, Note_on_c, 0, 67, 0
1, 24480, Note_on_c, 0, 39, 0
1, 24480, Note_on_c, 0, 51, 0
1, 24480, Note_on_c, 0, 63, 55
1, 24480, Note_on_c, 0, 60, 55
1, 24480, Note_on_c, 0, 72, 61
1, 24480, Note_on_c, 0, 44, 52
1, 24480, Note_on_c, 0, 51, 59
1, 24522, Control_c, 0, 64, 127
1, 24720, Tempo, 480154
1, 24720, Note_on_c, 0, 51, 0
1, 24720, Note_on_c, 0, 53, 55
1, 24960, Tempo, 467108
1, 24960, Note_on_c, 0, 53, 0
1, 24960, Note_on_c, 0, 51, 56
1, 25200, Tempo, 480154
1, 25200, Note_on_c, 0, 51, 0
1, 25200, Note_on_c, 0, 53, 58
1, 25440, Tempo, 467108
1, 25440, Note_on_c, 0, 53, 0
1, 25440, Note_on_c, 0, 55, 61
1, 25680, Note_on_c, 0, 55, 0
1, 25680, Note_on_c, 0, 56, 63
1, 25694, Control_c, 0, 64, 0
1, 25860, Note_on_c, 0, 56, 0
1, 25860, Note_on_c, 0, 43, 64
1, 25871, Control_c, 0, 64, 127
1, 25920, Tempo, 458786
1, 25920, Note_on_c, 0, 44, 0
1, 25920, Note_on_c, 0, 72, 0
1, 25920, Note_on_c, 0, 63, 0
1, 25920, Note_on_c, 0, 60, 0
1, 25920, Note_on_c, 0, 60, 55
1, 25920, Note_on_c, 0, 64, 55
1, 25920, Note_on_c, 0, 72, 61
1, 25920, Note_on_c, 0, 58, 63
1, 26160, Tempo, 444939
1, 26280, Note_on_c, 0, 43, 0
1, 26280, Note_on_c, 0, 44, 61
1, 26329, Control_c, 0, 64, 0
1, 26400, Tempo, 439271
1, 26400, Note_on_c, 0, 44, 0
1, 26400, Note_on_c, 0, 58, 0
1, 26400, Note_on_c, 0, 48, 64
1, 26560, Note_on_c, 0, 46, 62
1, 26570, Note_on_c, 0, 48, 0
1, 26640, Tempo, 456760
1, 26720, Note_on_c, 0, 44, 62
1, 26730, Note_on_c, 0, 46, 0
1, 26880, Tempo, 465008
1, 26880, Note_on_c, 0, 43, 64
1, 26890, Note_on_c, 0, 44, 0
1, 27120, Tempo, 484653
1, 27120, Note_on_c, 0, 44, 63
1, 27130, Note_on_c, 0, 43, 0
1, 27360, Tempo, 462927
1, 27360, Note_on_c, 0, 60, 0
1, 27360, Note_on_c, 0, 72, 0
1, 27360, Note_on_c, 0, 64, 0
1, 27360, Note_on_c, 0, 44, 0
1, 27360, Note_on_c, 0, 68, 66
1, 27360, Note_on_c, 0, 65, 51
1, 27360, Note_on_c, 0, 60, 51
1, 27360, Note_on_c, 0, 41, 59
1, 27360, Note_on_c, 0, 53, 66
1, 27374, Control_c, 0, 64, 127
1, 27600, Tempo, 473522
1, 27600, Note_on_c, 0, 68, 0
1, 27600, Note_on_c, 0, 70, 61
1, 27840, Tempo, 462927
1, 27840, Note_on_c, 0, 70, 0
1, 27840, Note_on_c, 0, 68, 66
1, 28080, Tempo, 473522
1, 28080, Note_on_c, 0, 68, 0
1, 28080, Note_on_c, 0, 70, 62
1, 28221, Control_c, 0, 64, 0
1, 28320, Tempo, 462927
1, 28320, Note_on_c, 0, 70, 0
1, 28320, Note_on_c, 0, 53, 0
1, 28320, Note_on_c, 0, 41, 0
1, 28320, Note_on_c, 0, 72, 66
1, 28320, Note_on_c, 0, 39, 51
1, 28320, Note_on_c, 0, 51, 57
1, 28362, Control_c, 0, 64, 127
1, 28560, Tempo, 473522
1, 28560, Note_on_c, 0, 72, 0
1, 28560, Note_on_c, 0, 73, 62
1, 28673, Control_c, 0, 64, 0
1, 28800, Tempo, 462927
1, 28800, Note_on_c, 0, 73, 0
1, 28800, Note_on_c, 0, 51, 0
1, 28800, Note_on_c, 0, 65, 0
1, 28800, Note_on_c, 0, 60, 0
1, 28800, Note_on_c, 0, 39, 0
1, 28800, Note_on_c, 0, 70, 72
1, 28800, Note_on_c, 0, 65, 51
1, 28800, Note_on_c, 0, 37, 53
1, 28800, Note_on_c, 0, 49, 60
1, 28856, Control_c, 0, 64, 127
1, 29040, Tempo, 471365
1, 29040, Note_on_c, 0, 70, 0
1, 29040, Note_on_c, 0, 72, 63
1, 29280, Tempo, 462927
1, 29280, Note_on_c, 0, 72, 0
1, 29280, Note_on_c, 0, 49, 0
1, 29280, Note_on_c, 0, 37, 0
1, 29280, Note_on_c, 0, 70, 70
1, 29280, Note_on_c, 0, 43, 57
1, 29280, Note_on_c, 0, 55, 63
1, 29520, Tempo, 471365
1, 29520, Note_on_c, 0, 70, 0
1, 29520, Note_on_c, 0, 72, 66
1, 29696, Control_c, 0, 64, 0
1, 29760, Tempo, 454752
1, 29760, Note_on_c, 0, 72, 0
1, 29760, Note_on_c, 0, 55, 0
1, 29760, Note_on_c, 0, 43, 0
1, 29760, Note_on_c, 0, 73, 64
1, 29760, Note_on_c, 0, 37, 51
1, 29760, Note_on_c, 0, 49, 58
1, 29800, Tempo, 456760
1, 29809, Control_c, 0, 64, 127
1, 29840, Tempo, 460829
1, 29880, Tempo, 462927
1, 29920, Tempo, 467108
1, 29920, Note_on_c, 0, 73, 0
1, 29920, Note_on_c, 0, 75, 70
1, 29960, Tempo, 469190
1, 30000, Tempo, 473522
1, 30040, Tempo, 475700
1, 30080, Tempo, 480154
1, 30080, Note_on_c, 0, 75, 0
1, 30080, Note_on_c, 0, 77, 73
1, 30120, Tempo, 482393
1, 30155, Control_c, 0, 64, 0
1, 30160, Tempo, 486894
1, 30200, Tempo, 489237
1, 30240, Tempo, 493908
1, 30240, Note_on_c, 0, 77, 0
1, 30240, Note_on_c, 0, 65, 0
1, 30240, Note_on_c, 0, 37, 0
1, 30240, Note_on_c, 0, 49, 0
1, 30240, Note_on_c, 0, 79, 78
1, 30240, Note_on_c, 0, 65, 59
1, 30240, Note_on_c, 0, 70, 58
1, 30240, Control_c, 0, 64, 127
1, 30240, Note_on_c, 0, 36, 50
1, 30240, Note_on_c, 0, 48, 57
1, 30667, Control_c, 0, 64, 0
1, 30720, Note_on_c, 0, 65, 0
1, 30720, Note_on_c, 0, 64, 59
1, 30827, Control_c, 0, 64, 127
1, 31200, Note_on_c, 0, 36, 0
1, 31200, Note_on_c, 0, 48, 0
1, 31200, Note_on_c, 0, 60, 57
1, 31387, Control_c, 0, 64, 0
1, 31680, Key_signature, -1, "major"
1, 31680, Tempo, 470035
1, 31680, Note_on_c, 0, 60, 0
1, 31680, Note_on_c, 0, 64, 0
1, 31680, Note_on_c, 0, 70, 0
1, 31680, Note_on_c, 0, 79, 0
1, 31680, Note_on_c, 0, 69, 68
1, 31680, Note_on_c, 0, 76, 83
1, 31680, Note_on_c, 0, 29, 60
1, 31680, Control_c, 0, 64, 127
1, 31680, Note_on_c, 0, 41, 68
1, 32040, Note_on_c, 0, 76, 0
1, 32040, Note_on_c, 0, 77, 77
1, 32160, Tempo, 446894
1, 32160, Note_on_c, 0, 77, 0
1, 32160, Note_on_c, 0, 81, 73
1, 32160, Note_on_c, 0, 60, 66
1, 32160, Note_on_c, 0, 48, 59
1, 32320, Note_on_c, 0, 81, 0
1, 32320, Note_on_c, 0, 79, 74
1, 32400, Tempo, 452728
1, 32442, Control_c, 0, 64, 0
1, 32480, Note_on_c, 0, 79, 0
1, 32480, Note_on_c, 0, 77, 73
1, 32640, Tempo, 460405
1, 32640, Note_on_c, 0, 77, 0
1, 32640, Note_on_c, 0, 60, 0
1, 32640, Note_on_c, 0, 48, 0
1, 32640, Note_on_c, 0, 76, 77
1, 32640, Note_on_c, 0, 61, 63
1, 32640, Note_on_c, 0, 49, 56
1, 32718, Control_c, 0, 64, 127
1, 32880, Tempo, 466999
1, 32880, Note_on_c, 0, 76, 0
1, 32880, Note_on_c, 0, 77, 75
1, 33028, Control_c, 0, 64, 0
1, 33120, Tempo, 473896
1, 33120, Note_on_c, 0, 77, 0
1, 33120, Note_on_c, 0, 49, 0
1, 33120, Note_on_c, 0, 61, 0
1, 33120, Note_on_c, 0, 74, 78
1, 33120, Note_on_c, 0, 62, 68
1, 33120, Note_on_c, 0, 50, 68
1, 33211, Control_c, 0, 64, 127
1, 33580, Note_on_c, 0, 74, 0
1, 33580, Note_on_c, 0, 69, 0
1, 33600, Tempo, 450789
1, 33600, Note_on_c, 0, 41, 0
1, 33600, Note_on_c, 0, 29, 0
1, 33600, Note_on_c, 0, 69, 63
1, 33600, Note_on_c, 0, 81, 84
1, 34080, Tempo, 465008
1, 34080, Note_on_c, 0, 29, 53
1, 34080, Note_on_c, 0, 41, 60
1, 34171, Control_c, 0, 64, 0
1, 34560, Tempo, 470035
1, 34560, Note_on_c, 0, 41, 0
1, 34560, Note_on_c, 0, 50, 0
1, 34560, Note_on_c, 0, 69, 0
1, 34560, Note_on_c, 0, 62, 0
1, 34560, Note_on_c, 0, 29, 0
1, 34560, Note_on_c, 0, 81, 0
1, 34560, Note_on_c, 0, 74, 84
1, 34560, Note_on_c, 0, 67, 68
1, 34560, Note_on_c, 0, 34, 68
1, 34560, Note_on_c, 0, 46, 68
1, 34602, Control_c, 0, 64, 127
1, 34920, Note_on_c, 0, 74, 0
1, 34920, Note_on_c, 0, 76, 73
1, 35040, Tempo, 448833
1, 35040, Note_on_c, 0, 76, 0
1, 35040, Note_on_c, 0, 79, 73
1, 35040, Note_on_c, 0, 64, 68
1, 35040, Note_on_c, 0, 52, 61
1, 35200, Note_on_c, 0, 79, 0
1, 35200, Note_on_c, 0, 77, 73
1, 35280, Tempo, 452728
1, 35360, Note_on_c, 0, 77, 0
1, 35360, Note_on_c, 0, 76, 72
1, 35456, Control_c, 0, 64, 0
1, 35520, Tempo, 469263
1, 35520, Note_on_c, 0, 76, 0
1, 35520, Note_on_c, 0, 46, 0
1, 35520, Note_on_c, 0, 67, 0
1, 35520, Note_on_c, 0, 34, 0
1, 35520, Note_on_c, 0, 67, 62
1, 35520, Note_on_c, 0, 74, 78
1, 35520, Note_on_c, 0, 34, 53
1, 35520, Note_on_c, 0, 46, 60
1, 35527, Control_c, 0, 64, 127
1, 35760, Tempo, 480885
1, 35760, Note_on_c, 0, 74, 0
1, 35760, Note_on_c, 0, 76, 74
1, 35894, Control_c, 0, 64, 0
1, 36000, Tempo, 466999
1, 36000, Note_on_c, 0, 76, 0
1, 36000, Note_on_c, 0, 46, 0
1, 36000, Note_on_c, 0, 67, 0
1, 36000, Note_on_c, 0, 64, 0
1, 36000, Note_on_c, 0, 52, 0
1, 36000, Note_on_c, 0, 34, 0
1, 36000, Note_on_c, 0, 74, 77
1, 36000, Note_on_c, 0, 67, 68
1, 36000, Note_on_c, 0, 76, 71
1, 36000, Note_on_c, 0, 33, 55
1, 36000, Note_on_c, 0, 45, 62
1, 36023, Control_c, 0, 64, 127
1, 36240, Note_on_c, 0, 74, 0
1, 36240, Note_on_c, 0, 73, 64
1, 36480, Tempo, 458786
1, 36480, Note_on_c, 0, 73, 0
1, 36480, Note_on_c, 0, 71, 69
1, 36480, Note_on_c, 0, 57, 67
1, 36720, Tempo, 465008
1, 36720, Note_on_c, 0, 71, 0
1, 36720, Note_on_c, 0, 73, 62
1, 36960, Tempo, 467108
1, 36960, Note_on_c, 0, 73, 0
1, 36960, Note_on_c, 0, 76, 0
1, 36960, Note_on_c, 0, 33, 0
1, 36960, Note_on_c, 0, 67, 0
1, 36960, Note_on_c, 0, 45, 0
1, 36960, Note_on_c, 0, 71, 69
1, 36960, Note_on_c, 0, 33, 56
1, 36960, Note_on_c, 0, 45, 63
1, 37131, Control_c, 0, 64, 0
1, 37200, Tempo, 482393
1, 37200, Note_on_c, 0, 71, 0
1, 37200, Note_on_c, 0, 69, 62
1, 37440, Tempo, 471809
1, 37440, Note_on_c, 0, 69, 0
1, 37440, Note_on_c, 0, 45, 0
1, 37440, Note_on_c, 0, 33, 0
1, 37440, Note_on_c, 0, 57, 0
1, 37440, Note_on_c, 0, 76, 84
1, 37440, Note_on_c, 0, 69, 68
1, 37440, Note_on_c, 0, 29, 60
1, 37440, Control_c, 0, 64, 127
1, 37440, Note_on_c, 0, 41, 68
1, 37800, Note_on_c, 0, 76, 0
1, 37800, Note_on_c, 0, 77, 77
1, 37920, Tempo, 446894
1, 37920, Note_on_c, 0, 77, 0
1, 37920, Note_on_c, 0, 81, 75
1, 37920, Note_on_c, 0, 48, 59
1, 37920, Note_on_c, 0, 60, 66
1, 38080, Note_on_c, 0, 81, 0
1, 38080, Note_on_c, 0, 79, 73
1, 38160, Tempo, 452728
1, 38202, Control_c, 0, 64, 0
1, 38240, Note_on_c, 0, 79, 0
1, 38240, Note_on_c, 0, 77, 72
1, 38400, Tempo, 460405
1, 38400, Note_on_c, 0, 77, 0
1, 38400, Note_on_c, 0, 48, 0
1, 38400, Note_on_c, 0, 60, 0
1, 38400, Note_on_c, 0, 76, 75
1, 38400, Note_on_c, 0, 61, 63
1, 38400, Note_on_c, 0, 49, 56
1, 38478, Control_c, 0, 64, 127
1, 38640, Tempo, 466999
1, 38640, Note_on_c, 0, 76, 0
1, 38640, Note_on_c, 0, 77, 74
1, 38788, Control_c, 0, 64, 0
1, 38880, Tempo, 462927
1, 38880, Note_on_c, 0, 77, 0
1, 38880, Note_on_c, 0, 49, 0
1, 38880, Note_on_c, 0, 61, 0
1, 38880, Note_on_c, 0, 74, 78
1, 38880, Note_on_c, 0, 62, 68
1, 38880, Note_on_c, 0, 50, 62
1, 38971, Control_c, 0, 64, 127
1, 39330, Note_on_c, 0, 74, 0
1, 39360, Tempo, 446894
1, 39360, Note_on_c, 0, 69, 0
1, 39360, Note_on_c, 0, 69, 73
1, 39360, Note_on_c, 0, 81, 80
1, 39840, Tempo, 465008
1, 39840, Note_on_c, 0, 62, 0
1, 39840, Note_on_c, 0, 50, 0
1, 39840, Note_on_c, 0, 65, 63
1, 39840, Note_on_c, 0, 53, 55
1, 39931, Control_c, 0, 64, 0
1, 40320, Tempo, 471809
1, 40320, Note_on_c, 0, 53, 0
1, 40320, Note_on_c, 0, 81, 0
1, 40320, Note_on_c, 0, 69, 0
1, 40320, Note_on_c, 0, 41, 0
1, 40320, Note_on_c, 0, 65, 0
1, 40320, Note_on_c, 0, 29, 0
1, 40320, Note_on_c, 0, 65, 57
1, 40320, Note_on_c, 0, 74, 71
1, 40320, Note_on_c, 0, 67, 57
1, 40320, Note_on_c, 0, 46, 53
1, 40362, Control_c, 0, 64, 127
1, 40680, Note_on_c, 0, 74, 0
1, 40680, Note_on_c, 0, 76, 62
1, 40800, Tempo, 456066
1, 40800, Note_on_c, 0, 76, 0
1, 40800, Note_on_c, 0, 46, 0
1, 40800, Note_on_c, 0, 79, 67
1, 40800, Note_on_c, 0, 58, 60
1, 40960, Note_on_c, 0, 79, 0
1, 40960, Note_on_c, 0, 77, 62
1, 41120, Note_on_c, 0, 77, 0
1, 41120, Note_on_c, 0, 76, 60
1, 41216, Control_c, 0, 64, 0
1, 41280, Tempo, 462927
1, 41280, Note_on_c, 0, 76, 0
1, 41280, Note_on_c, 0, 74, 62
1, 41287, Control_c, 0, 64, 127
1, 41520, Tempo, 469190
1, 41520, Note_on_c, 0, 74, 0
1, 41520, Note_on_c, 0, 76, 58
1, 41654, Control_c, 0, 64, 0
1, 41760, Tempo, 454752
1, 41760, Note_on_c, 0, 76, 0
1, 41760, Note_on_c, 0, 65, 0
1, 41760, Note_on_c, 0, 67, 0
1, 41760, Note_on_c, 0, 58, 0
1, 41760, Note_on_c, 0, 72, 57
1, 41760, Note_on_c, 0, 69, 47
1, 41760, Note_on_c, 0, 65, 47
1, 41760, Note_on_c, 0, 60, 44
1, 41783, Control_c, 0, 64, 127
1, 42000, Tempo, 465008
1, 42000, Note_on_c, 0, 72, 0
1, 42000, Note_on_c, 0, 74, 51
1, 42180, Control_c, 0, 64, 0
1, 42240, Tempo, 456760
1, 42240, Note_on_c, 0, 74, 0
1, 42240, Note_on_c, 0, 60, 0
1, 42240, Note_on_c, 0, 72, 59
1, 42240, Note_on_c, 0, 48, 51
1, 42263, Control_c, 0, 64, 127
1, 42480, Tempo, 469190
1, 42480, Note_on_c, 0, 72, 0
1, 42480, Note_on_c, 0, 74, 53
1, 42720, Tempo, 467108
1, 42720, Note_on_c, 0, 74, 0
1, 42720, Note_on_c, 0, 76, 59
1, 42960, Tempo, 486894
1, 42960, Note_on_c, 0, 76, 0
1, 42960, Note_on_c, 0, 77, 55
1, 43074, Control_c, 0, 64, 0
1, 43200, Tempo, 462927
1, 43200, Note_on_c, 0, 77, 0
1, 43200, Note_on_c, 0, 48, 0
1, 43200, Note_on_c, 0, 65, 0
1, 43200, Note_on_c, 0, 69, 0
1, 43200, Note_on_c, 0, 64, 50
1, 43200, Note_on_c, 0, 70, 57
1, 43200, Note_on_c, 0, 55, 47
1, 43242, Control_c, 0, 64, 127
1, 43560, Note_on_c, 0, 70, 0
1, 43560, Note_on_c, 0, 72, 52
1, 43680, Tempo, 456066
1, 43680, Note_on_c, 0, 72, 0
1, 43680, Note_on_c, 0, 55, 0
1, 43680, Note_on_c, 0, 76, 57
1, 43680, Note_on_c, 0, 48, 53
1, 43840, Note_on_c, 0, 76, 0
1, 43840, Note_on_c, 0, 74, 53
1, 43920, Tempo, 462927
1, 44000, Note_on_c, 0, 74, 0
1, 44000, Note_on_c, 0, 72, 53
1, 44096, Control_c, 0, 64, 0
1, 44160, Tempo, 469263
1, 44160, Note_on_c, 0, 72, 0
1, 44160, Note_on_c, 0, 70, 57
1, 44167, Control_c, 0, 64, 127
1, 44200, Tempo, 482393
1, 44400, Tempo, 491562
1, 44400, Note_on_c, 0, 70, 0
1, 44400, Note_on_c, 0, 72, 55
1, 44534, Control_c, 0, 64, 0
1, 44640, Tempo, 480154
1, 44640, Note_on_c, 0, 72, 0
1, 44640, Note_on_c, 0, 48, 0
1, 44640, Note_on_c, 0, 64, 0
1, 44640, Note_on_c, 0, 63, 42
1, 44640, Note_on_c, 0, 69, 48
1, 44640, Note_on_c, 0, 54, 42
1, 44933, Control_c, 0, 64, 127
1, 45120, Tempo, 489237
1, 45120, Note_on_c, 0, 54, 0
1, 45120, Note_on_c, 0, 48, 39
1, 45387, Control_c, 0, 64, 0
1, 45733, Control_c, 0, 64, 127
1, 45867, Control_c, 0, 64, 0
1, 46080, Tempo, 479118
1, 46080, Note_on_c, 0, 48, 0
1, 46080, Note_on_c, 0, 69, 0
1, 46080, Note_on_c, 0, 63, 0
1, 46080, Note_on_c, 0, 62, 55
1, 46080, Note_on_c, 0, 69, 52
1, 46080, Note_on_c, 0, 46, 53
1, 46122, Control_c, 0, 64, 127
1, 46440, Note_on_c, 0, 62, 0
1, 46440, Note_on_c, 0, 64, 53
1, 46560, Tempo, 464720
1, 46560, Note_on_c, 0, 64, 0
1, 46560, Note_on_c, 0, 46, 0
1, 46560, Note_on_c, 0, 69, 0
1, 46560, Note_on_c, 0, 67, 57
1, 46560, Note_on_c, 0, 58, 60
1, 46720, Note_on_c, 0, 65, 53
1, 46880, Note_on_c, 0, 65, 0
1, 46880, Note_on_c, 0, 64, 50
1, 46976, Control_c, 0, 64, 0
1, 47040, Tempo, 468238
1, 47040, Note_on_c, 0, 64, 0
1, 47040, Note_on_c, 0, 67, 0
1, 47040, Note_on_c, 0, 74, 60
1, 47040, Note_on_c, 0, 62, 53
1, 47047, Control_c, 0, 64, 127
1, 47280, Tempo, 469190
1, 47280, Note_on_c, 0, 62, 0
1, 47280, Note_on_c, 0, 64, 50
1, 47414, Control_c, 0, 64, 0
1, 47520, Tempo, 459524
1, 47520, Note_on_c, 0, 64, 0
1, 47520, Note_on_c, 0, 58, 0
1, 47520, Note_on_c, 0, 57, 47
1, 47520, Note_on_c, 0, 65, 47
1, 47520, Note_on_c, 0, 60, 53
1, 47520, Note_on_c, 0, 57, 44
1, 47543, Control_c, 0, 64, 127
1, 47760, Tempo, 465008
1, 47760, Note_on_c, 0, 60, 0
1, 47760, Note_on_c, 0, 62, 48
1, 47940, Control_c, 0, 64, 0
1, 48000, Tempo, 459524
1, 48000, Note_on_c, 0, 62, 0
1, 48000, Note_on_c, 0, 74, 0
1, 48000, Note_on_c, 0, 65, 60
1, 48000, Note_on_c, 0, 60, 56
1, 48023, Control_c, 0, 64, 127
1, 48240, Tempo, 469190
1, 48240, Note_on_c, 0, 60, 0
1, 48240, Note_on_c, 0, 62, 50
1, 48480, Tempo, 467108
1, 48480, Note_on_c, 0, 62, 0
1, 48480, Note_on_c, 0, 65, 0
1, 48480, Note_on_c, 0, 72, 60
1, 48480, Note_on_c, 0, 64, 56
1, 48720, Tempo, 486894
1, 48720, Note_on_c, 0, 64, 0
1, 48720, Note_on_c, 0, 65, 51
1, 48834, Control_c, 0, 64, 0
1, 48960, Tempo, 466490
1, 48960, Note_on_c, 0, 65, 0
1, 48960, Note_on_c, 0, 57, 0
1, 48960, Note_on_c, 0, 57, 0
1, 48960, Note_on_c, 0, 65, 0
1, 48960, Note_on_c, 0, 58, 53
1, 48960, Note_on_c, 0, 55, 47
1, 49002, Control_c, 0, 64, 127
1, 49320, Note_on_c, 0, 58, 0
1, 49320, Note_on_c, 0, 60, 49
1, 49440, Tempo, 459524
1, 49440, Note_on_c, 0, 60, 0
1, 49440, Note_on_c, 0, 72, 0
1, 49440, Note_on_c, 0, 70, 60
1, 49440, Note_on_c, 0, 64, 53
1, 49600, Note_on_c, 0, 64, 0
1, 49600, Note_on_c, 0, 62, 50
1, 49680, Tempo, 468238
1, 49760, Note_on_c, 0, 62, 0
1, 49760, Note_on_c, 0, 60, 50
1, 49856, Control_c, 0, 64, 0
1, 49920, Tempo, 469263
1, 49920, Note_on_c, 0, 60, 0
1, 49920, Note_on_c, 0, 70, 0
1, 49920, Note_on_c, 0, 55, 0
1, 49920, Note_on_c, 0, 64, 60
1, 49920, Note_on_c, 0, 72, 60
1, 49920, Note_on_c, 0, 58, 49
1, 49920, Note_on_c, 0, 48, 47
1, 49927, Control_c, 0, 64, 127
1, 49960, Tempo, 482393
1, 50160, Tempo, 491562
1, 50160, Note_on_c, 0, 58, 0
1, 50160, Note_on_c, 0, 60, 47
1, 50294, Control_c, 0, 64, 0
1, 50400, Tempo, 470035
1, 50400, Note_on_c, 0, 60, 0
1, 50400, Note_on_c, 0, 48, 0
1, 50400, Note_on_c, 0, 72, 0
1, 50400, Note_on_c, 0, 64, 0
1, 50400, Note_on_c, 0, 72, 48
1, 50400, Note_on_c, 0, 65, 42
1, 50400, Note_on_c, 0, 58, 46
1, 50400, Note_on_c, 0, 53, 46
1, 50640, Tempo, 479118
1, 50640, Note_on_c, 0, 58, 0
1, 50640, Note_on_c, 0, 57, 41
1, 50693, Control_c, 0, 64, 127
1, 50880, Tempo, 489237
1, 50880, Note_on_c, 0, 57, 0
1, 50880, Note_on_c, 0, 55, 45
1, 51120, Note_on_c, 0, 55, 0
1, 51120, Note_on_c, 0, 57, 40
1, 51261, Control_c, 0, 64, 0
1, 51360, Note_on_c, 0, 57, 0
1, 51360, Note_on_c, 0, 53, 0
1, 51360, Control_c, 0, 64, 127
1, 51360, Note_on_c, 0, 55, 40
1, 51600, Note_on_c, 0, 55, 0
1, 51600, Note_on_c, 0, 53, 40
1, 51627, Control_c, 0, 64, 0
1, 51840, Tempo, 471809
1, 51840, Note_on_c, 0, 53, 0
1, 51840, Note_on_c, 0, 65, 0
1, 51840, Note_on_c, 0, 72, 0
1, 51840, Note_on_c, 0, 79, 57
1, 51840, Note_on_c, 0, 75, 47
1, 51882, Control_c, 0, 64, 127
1, 52200, Note_on_c, 0, 79, 0
1, 52200, Note_on_c, 0, 81, 52
1, 52320, Tempo, 456066
1, 52320, Note_on_c, 0, 81, 0
1, 52320, Note_on_c, 0, 84, 57
1, 52320, Note_on_c, 0, 65, 42
1, 52480, Note_on_c, 0, 84, 0
1, 52480, Note_on_c, 0, 82, 53
1, 52640, Note_on_c, 0, 82, 0
1, 52640, Note_on_c, 0, 81, 53
1, 52736, Control_c, 0, 64, 0
1, 52800, Tempo, 462927
1, 52800, Note_on_c, 0, 81, 0
1, 52800, Note_on_c, 0, 79, 57
1, 52807, Control_c, 0, 64, 127
1, 53040, Tempo, 469190
1, 53040, Note_on_c, 0, 79, 0
1, 53040, Note_on_c, 0, 81, 55
1, 53174, Control_c, 0, 64, 0
1, 53280, Tempo, 454752
1, 53280, Note_on_c, 0, 81, 0
1, 53280, Note_on_c, 0, 75, 0
1, 53280, Note_on_c, 0, 77, 57
1, 53280, Note_on_c, 0, 75, 44
1, 53303, Control_c, 0, 64, 127
1, 53520, Tempo, 465008
1, 53520, Note_on_c, 0, 77, 0
1, 53520, Note_on_c, 0, 79, 51
1, 53700, Control_c, 0, 64, 0
1, 53760, Tempo, 456760
1, 53760, Note_on_c, 0, 79, 0
1, 53760, Note_on_c, 0, 75, 0
1, 53760, Note_on_c, 0, 77, 59
1, 53760, Note_on_c, 0, 74, 51
1, 53783, Control_c, 0, 64, 127
1, 54000, Tempo, 469190
1, 54000, Note_on_c, 0, 77, 0
1, 54000, Note_on_c, 0, 79, 53
1, 54240, Tempo, 467108
1, 54240, Note_on_c, 0, 79, 0
1, 54240, Note_on_c, 0, 65, 0
1, 54240, Note_on_c, 0, 81, 59
1, 54240, Note_on_c, 0, 65, 42
1, 54480, Tempo, 486894
1, 54480, Note_on_c, 0, 81, 0
1, 54480, Note_on_c, 0, 82, 55
1, 54594, Control_c, 0, 64, 0
1, 54720, Tempo, 466490
1, 54720, Note_on_c, 0, 82, 0
1, 54720, Note_on_c, 0, 74, 0
1, 54720, Note_on_c, 0, 74, 57
1, 54720, Note_on_c, 0, 70, 47
1, 54762, Control_c, 0, 64, 127
1, 55080, Note_on_c, 0, 74, 0
1, 55080, Note_on_c, 0, 76, 52
1, 55200, Tempo, 459524
1, 55200, Note_on_c, 0, 76, 0
1, 55200, Note_on_c, 0, 65, 0
1, 55200, Note_on_c, 0, 79, 57
1, 55200, Note_on_c, 0, 65, 42
1, 55360, Note_on_c, 0, 79, 0
1, 55360, Note_on_c, 0, 77, 53
1, 55440, Tempo, 466490
1, 55520, Note_on_c, 0, 77, 0
1, 55520, Note_on_c, 0, 76, 53
1, 55616, Control_c, 0, 64, 0
1, 55680, Tempo, 469263
1, 55680, Note_on_c, 0, 76, 0
1, 55680, Note_on_c, 0, 74, 57
1, 55687, Control_c, 0, 64, 127
1, 55720, Tempo, 482393
1, 55920, Tempo, 491562
1, 55920, Note_on_c, 0, 74, 0
1, 55920, Note_on_c, 0, 76, 55
1, 56054, Control_c, 0, 64, 0
1, 56160, Tempo, 464720
1, 56160, Note_on_c, 0, 76, 0
1, 56160, Note_on_c, 0, 70, 0
1, 56160, Note_on_c, 0, 77, 57
1, 56160, Note_on_c, 0, 72, 57
1, 56160, Note_on_c, 0, 70, 48
1, 56400, Tempo, 471809
1, 56400, Note_on_c, 0, 70, 0
1, 56400, Note_on_c, 0, 69, 42
1, 56453, Control_c, 0, 64, 127
1, 56640, Tempo, 466490
1, 56640, Note_on_c, 0, 69, 0
1, 56640, Note_on_c, 0, 67, 46
1, 56880, Tempo, 479118
1, 56880, Note_on_c, 0, 67, 0
1, 56880, Note_on_c, 0, 69, 41
1, 57120, Tempo, 471809
1, 57120, Note_on_c, 0, 69, 0
1, 57120, Note_on_c, 0, 65, 0
1, 57120, Control_c, 0, 64, 0
1, 57120, Note_on_c, 0, 67, 41
1, 57253, Control_c, 0, 64, 127
1, 57360, Note_on_c, 0, 67, 0
1, 57360, Note_on_c, 0, 65, 38
1, 57387, Control_c, 0, 64, 0
1, 57600, Tempo, 462999
1, 57600, Note_on_c, 0, 65, 0
1, 57600, Note_on_c, 0, 72, 0
1, 57600, Note_on_c, 0, 77, 0
1, 57600, Note_on_c, 0, 70, 50
1, 57600, Note_on_c, 0, 65, 50
1, 57600, Note_on_c, 0, 77, 57
1, 57600, Note_on_c, 0, 63, 44
1, 57720, Control_c, 0, 64, 127
1, 57840, Tempo, 473634
1, 57840, Note_on_c, 0, 63, 0
1, 57840, Note_on_c, 0, 62, 39
1, 58080, Tempo, 464720
1, 58080, Note_on_c, 0, 62, 0
1, 58080, Note_on_c, 0, 60, 42
1, 58320, Tempo, 479118
1, 58320, Note_on_c, 0, 60, 0
1, 58320, Note_on_c, 0, 62, 38
1, 58560, Tempo, 471809
1, 58560, Note_on_c, 0, 62, 0
1, 58560, Control_c, 0, 64, 0
1, 58560, Note_on_c, 0, 60, 38
1, 58693, Control_c, 0, 64, 127
1, 58800, Note_on_c, 0, 60, 0
1, 58800, Note_on_c, 0, 58, 35
1, 58827, Control_c, 0, 64, 0
1, 59040, Tempo, 462999
1, 59040, Note_on_c, 0, 58, 0
1, 59040, Note_on_c, 0, 77, 0
1, 59040, Note_on_c, 0, 65, 0
1, 59040, Note_on_c, 0, 70, 0
1, 59040, Note_on_c, 0, 84, 57
1, 59040, Note_on_c, 0, 72, 50
1, 59040, Note_on_c, 0, 77, 50
1, 59040, Note_on_c, 0, 58, 44
1, 59100, Control_c, 0, 64, 127
1, 59280, Tempo, 471809
1, 59280, Note_on_c, 0, 58, 0
1, 59280, Note_on_c, 0, 57, 39
1, 59520, Tempo, 464720
1, 59520, Note_on_c, 0, 57, 0
1, 59520, Note_on_c, 0, 55, 41
1, 59760, Tempo, 473634
1, 59760, Note_on_c, 0, 55, 0
1, 59760, Note_on_c, 0, 57, 37
1, 60000, Tempo, 471809
1, 60000, Note_on_c, 0, 57, 0
1, 60000, Control_c, 0, 64, 0
1, 60000, Note_on_c, 0, 55, 37
1, 60133, Control_c, 0, 64, 127
1, 60240, Note_on_c, 0, 55, 0
1, 60240, Note_on_c, 0, 53, 34
1, 60267, Control_c, 0, 64, 0
1, 60480, Tempo, 464720
1, 60480, Note_on_c, 0, 53, 0
1, 60480, Note_on_c, 0, 77, 0
1, 60480, Note_on_c, 0, 72, 0
1, 60480, Note_on_c, 0, 84, 0
1, 60480, Note_on_c, 0, 77, 49
1, 60480, Note_on_c, 0, 89, 56
1, 60480, Note_on_c, 0, 82, 49
1, 60480, Note_on_c, 0, 51, 41
1, 60540, Control_c, 0, 64, 127
1, 60720, Tempo, 471809
1, 60720, Note_on_c, 0, 51, 0
1, 60720, Note_on_c, 0, 50, 37
1, 60960, Tempo, 471809
1, 60960, Note_on_c, 0, 50, 0
1, 60960, Note_on_c, 0, 48, 40
1, 61000, Tempo, 466490
1, 61200, Tempo, 479118
1, 61200, Note_on_c, 0, 48, 0
1, 61200, Note_on_c, 0, 50, 36
1, 61440, Tempo, 470035
1, 61440, Note_on_c, 0, 50, 0
1, 61440, Control_c, 0, 64, 0
1, 61440, Note_on_c, 0, 48, 36
1, 61573, Control_c, 0, 64, 127
1, 61680, Note_on_c, 0, 48, 0
1, 61680, Note_on_c, 0, 46, 33
1, 61707, Control_c, 0, 64, 0
1, 61920, Tempo, 464720
1, 61920, Note_on_c, 0, 46, 0
1, 61920, Note_on_c, 0, 82, 0
1, 61920, Note_on_c, 0, 89, 0
1, 61920, Note_on_c, 0, 77, 0
1, 61920, Note_on_c, 0, 96, 55
1, 61920, Note_on_c, 0, 89, 49
1, 61920, Note_on_c, 0, 84, 49
1, 61920, Note_on_c, 0, 46, 40
1, 62160, Tempo, 473634
1, 62160, Note_on_c, 0, 46, 0
1, 62160, Note_on_c, 0, 45, 36
1, 62213, Control_c, 0, 64, 127
1, 62400, Tempo, 466490
1, 62400, Note_on_c, 0, 45, 0
1, 62400, Note_on_c, 0, 43, 39
1, 62640, Tempo, 479118
1, 62640, Note_on_c, 0, 43, 0
1, 62640, Note_on_c, 0, 45, 35
1, 62880, Note_on_c, 0, 45, 0
1, 62880, Control_c, 0, 64, 0
1, 62880, Note_on_c, 0, 43, 35
1, 63013, Control_c, 0, 64, 127
1, 63120, Note_on_c, 0, 43, 0
1, 63120, Note_on_c, 0, 41, 31
1, 63147, Control_c, 0, 64, 0
1, 63360, Tempo, 494478
1, 63360, Note_on_c, 0, 41, 0
1, 63360, Control_c, 0, 64, 127
1, 63360, Note_on_c, 0, 41, 34
1, 63840, Note_on_c, 0, 41, 0
1, 63840, Note_on_c, 0, 96, 0
1, 63840, Note_on_c, 0, 89, 0
1, 63840, Note_on_c, 0, 84, 0
1, 63840, Note_on_c, 0, 29, 20
1, 64080, Note_on_c, 0, 29, 0
1, 64320, Tempo, 500459
1, 64320, Note_on_c, 0, 29, 19
1, 64560, Note_on_c, 0, 29, 0
1, 64800, Note_on_c, 0, 29, 19
1, 65040, Note_on_c, 0, 29, 0
1, 65153, Control_c, 0, 64, 0
1, 65155, Tempo, 485830
1, 66240, Tempo, 488242
1, 66240, Marker_t, "un poco meno mosso"
1, 66240, Note_on_c, 0, 37, 38
1, 66720, Tempo, 479118
1, 66720, Note_on_c, 0, 58, 45
1, 66720, Note_on_c, 0, 63, 50
1, 66720, Control_c, 0, 64, 127
1, 66720, Note_on_c, 0, 42, 40
1, 67200, Tempo, 473784
1, 67200, Note_on_c, 0, 42, 0
1, 67200, Note_on_c, 0, 63, 0
1, 67200, Note_on_c, 0, 58, 0
1, 67200, Note_on_c, 0, 60, 48
1, 67200, Note_on_c, 0, 65, 53
1, 67200, Note_on_c, 0, 44, 44
1, 67429, Control_c, 0, 64, 0
1, 67680, Note_on_c, 0, 44, 0
1, 67680, Note_on_c, 0, 65, 0
1, 67680, Note_on_c, 0, 60, 0
1, 67680, Note_on_c, 0, 61, 50
1, 67680, Note_on_c, 0, 65, 57
1, 67680, Control_c, 0, 64, 127
1, 67680, Note_on_c, 0, 46, 46
1, 68160, Tempo, 482742
1, 68160, Note_on_c, 0, 46, 0
1, 68160, Note_on_c, 0, 65, 0
1, 68160, Note_on_c, 0, 61, 0
1, 68160, Note_on_c, 0, 58, 44
1, 68160, Note_on_c, 0, 68, 49
1, 68160, Note_on_c, 0, 53, 42
1, 68640, Note_on_c, 0, 53, 0
1, 68640, Note_on_c, 0, 68, 0
1, 68640, Note_on_c, 0, 58, 0
1, 68640, Note_on_c, 0, 61, 42
1, 68640, Note_on_c, 0, 65, 48
1, 68640, Control_c, 0, 64, 0
1, 68640, Note_on_c, 0, 46, 38
1, 69120, Tempo, 488242
1, 69120, Note_on_c, 0, 46, 0
1, 69120, Note_on_c, 0, 37, 0
1, 69120, Note_on_c, 0, 61, 0
1, 69120, Note_on_c, 0, 65, 0
1, 69120, Note_on_c, 0, 37, 38
1, 69600, Tempo, 479118
1, 69600, Note_on_c, 0, 58, 45
1, 69600, Note_on_c, 0, 63, 50
1, 69600, Control_c, 0, 64, 127
1, 69600, Note_on_c, 0, 42, 40
1, 70080, Tempo, 473784
1, 70080, Note_on_c, 0, 42, 0
1, 70080, Note_on_c, 0, 63, 0
1, 70080, Note_on_c, 0, 58, 0
1, 70080, Note_on_c, 0, 60, 48
1, 70080, Note_on_c, 0, 65, 53
1, 70080, Note_on_c, 0, 44, 44
1, 70309, Control_c, 0, 64, 0
1, 70560, Note_on_c, 0, 44, 0
1, 70560, Note_on_c, 0, 65, 0
1, 70560, Note_on_c, 0, 60, 0
1, 70560, Note_on_c, 0, 61, 50
1, 70560, Note_on_c, 0, 65, 57
1, 70560, Control_c, 0, 64, 127
1, 70560, Note_on_c, 0, 46, 46
1, 71040, Tempo, 482742
1, 71040, Note_on_c, 0, 46, 0
1, 71040, Note_on_c, 0, 65, 0
1, 71040, Note_on_c, 0, 61, 0
1, 71040, Note_on_c, 0, 58, 44
1, 71040, Note_on_c, 0, 68, 49
1, 71040, Note_on_c, 0, 53, 42
1, 71520, Note_on_c, 0, 53, 0
1, 71520, Note_on_c, 0, 68, 0
1, 71520, Note_on_c, 0, 58, 0
1, 71520, Note_on_c, 0, 65, 42
1, 71520, Note_on_c, 0, 70, 48
1, 71520, Control_c, 0, 64, 0
1, 71520, Note_on_c, 0, 49, 38
1, 72000, Tempo, 480577
1, 72000, Note_on_c, 0, 49, 0
1, 72000, Note_on_c, 0, 37, 0
1, 72000, Note_on_c, 0, 65, 0
1, 72000, Note_on_c, 0, 70, 0
1, 72000, Note_on_c, 0, 37, 41
1, 72480, Tempo, 471550
1, 72480, Note_on_c, 0, 63, 49
1, 72480, Note_on_c, 0, 68, 55
1, 72480, Control_c, 0, 64, 127
1, 72480, Note_on_c, 0, 47, 44
1, 72960, Tempo, 466309
1, 72960, Note_on_c, 0, 47, 0
1, 72960, Note_on_c, 0, 68, 0
1, 72960, Note_on_c, 0, 63, 0
1, 72960, Note_on_c, 0, 65, 52
1, 72960, Note_on_c, 0, 70, 58
1, 72960, Note_on_c, 0, 49, 48
1, 73189, Control_c, 0, 64, 0
1, 73440, Note_on_c, 0, 49, 0
1, 73440, Note_on_c, 0, 70, 0
1, 73440, Note_on_c, 0, 65, 0
1, 73440, Note_on_c, 0, 66, 55
1, 73440, Note_on_c, 0, 70, 62
1, 73440, Control_c, 0, 64, 127
1, 73440, Note_on_c, 0, 51, 50
1, 73920, Tempo, 475135
1, 73920, Note_on_c, 0, 51, 0
1, 73920, Note_on_c, 0, 70, 0
1, 73920, Note_on_c, 0, 66, 0
1, 73920, Note_on_c, 0, 63, 48
1, 73920, Note_on_c, 0, 73, 53
1, 73920, Note_on_c, 0, 58, 46
1, 74400, Tempo, 469814
1, 74400, Note_on_c, 0, 58, 0
1, 74400, Note_on_c, 0, 73, 0
1, 74400, Note_on_c, 0, 63, 0
1, 74400, Note_on_c, 0, 66, 46
1, 74400, Note_on_c, 0, 70, 52
1, 74400, Control_c, 0, 64, 0
1, 74400, Note_on_c, 0, 51, 41
1, 74880, Tempo, 466309
1, 74880, Note_on_c, 0, 51, 0
1, 74880, Note_on_c, 0, 37, 0
1, 74880, Note_on_c, 0, 66, 0
1, 74880, Note_on_c, 0, 70, 0
1, 74880, Note_on_c, 0, 63, 49
1, 74880, Note_on_c, 0, 68, 55
1, 74880, Note_on_c, 0, 37, 44
1, 74880, Note_on_c, 0, 48, 44
1, 74971, Control_c, 0, 64, 127
1, 75360, Tempo, 473335
1, 75360, Note_on_c, 0, 48, 0
1, 75360, Note_on_c, 0, 63, 0
1, 75360, Note_on_c, 0, 68, 0
1, 75360, Note_on_c, 0, 58, 42
1, 75360, Note_on_c, 0, 65, 48
1, 75360, Note_on_c, 0, 49, 38
1, 75840, Tempo, 464612
1, 75840, Note_on_c, 0, 49, 0
1, 75840, Note_on_c, 0, 37, 0
1, 75840, Note_on_c, 0, 58, 0
1, 75840, Note_on_c, 0, 65, 0
1, 75840, Note_on_c, 0, 63, 48
1, 75840, Note_on_c, 0, 68, 55
1, 75840, Note_on_c, 0, 37, 42
1, 75840, Note_on_c, 0, 48, 42
1, 75954, Control_c, 0, 64, 0
1, 76091, Control_c, 0, 64, 127
1, 76320, Tempo, 471550
1, 76320, Note_on_c, 0, 48, 0
1, 76320, Note_on_c, 0, 63, 0
1, 76320, Note_on_c, 0, 68, 0
1, 76320, Note_on_c, 0, 61, 44
1, 76320, Note_on_c, 0, 65, 49
1, 76320, Note_on_c, 0, 46, 37
1, 76480, Control_c, 0, 64, 0
1, 76800, Tempo, 466309
1, 76800, Note_on_c, 0, 46, 0
1, 76800, Note_on_c, 0, 37, 0
1, 76800, Note_on_c, 0, 61, 0
1, 76800, Note_on_c, 0, 65, 0
1, 76800, Note_on_c, 0, 58, 47
1, 76800, Note_on_c, 0, 66, 52
1, 76800, Note_on_c, 0, 37, 41
1, 76800, Note_on_c, 0, 51, 41
1, 76869, Control_c, 0, 64, 127
1, 77280, Tempo, 471550
1, 77280, Note_on_c, 0, 51, 0
1, 77280, Note_on_c, 0, 58, 0
1, 77280, Note_on_c, 0, 66, 0
1, 77280, Note_on_c, 0, 60, 42
1, 77280, Note_on_c, 0, 63, 48
1, 77280, Note_on_c, 0, 44, 41
1, 77394, Control_c, 0, 64, 0
1, 77760, Tempo, 466309
1, 77760, Note_on_c, 0, 44, 0
1, 77760, Note_on_c, 0, 37, 0
1, 77760, Note_on_c, 0, 60, 0
1, 77760, Note_on_c, 0, 63, 0
1, 77760, Note_on_c, 0, 37, 38
1, 78240, Tempo, 446495
1, 78240, Note_on_c, 0, 58, 50
1, 78240, Control_c, 0, 64, 127
1, 78240, Note_on_c, 0, 42, 40
1, 78480, Tempo, 456170
1, 78480, Note_on_c, 0, 63, 39
1, 78720, Tempo, 441794
1, 78720, Note_on_c, 0, 63, 0
1, 78720, Note_on_c, 0, 42, 0
1, 78720, Note_on_c, 0, 58, 0
1, 78720, Note_on_c, 0, 60, 53
1, 78720, Note_on_c, 0, 44, 44
1, 78960, Tempo, 451297
1, 78960, Note_on_c, 0, 65, 41
1, 79143, Control_c, 0, 64, 0
1, 79200, Tempo, 444906
1, 79200, Note_on_c, 0, 65, 0
1, 79200, Note_on_c, 0, 44, 0
1, 79200, Note_on_c, 0, 60, 0
1, 79200, Note_on_c, 0, 61, 55
1, 79200, Control_c, 0, 64, 127
1, 79200, Note_on_c, 0, 46, 46
1, 79440, Tempo, 459524
1, 79440, Note_on_c, 0, 65, 42
1, 79680, Tempo, 451297
1, 79680, Note_on_c, 0, 65, 0
1, 79680, Note_on_c, 0, 46, 0
1, 79680, Note_on_c, 0, 58, 49
1, 79680, Note_on_c, 0, 53, 42
1, 79920, Tempo, 462892
1, 79920, Note_on_c, 0, 58, 0
1, 79920, Note_on_c, 0, 68, 37
1, 80160, Tempo, 452899
1, 80160, Note_on_c, 0, 68, 0
1, 80160, Note_on_c, 0, 53, 0
1, 80160, Note_on_c, 0, 61, 0
1, 80160, Note_on_c, 0, 61, 47
1, 80160, Note_on_c, 0, 46, 38
1, 80400, Tempo, 462892
1, 80400, Note_on_c, 0, 65, 35
1, 80491, Control_c, 0, 64, 0
1, 80640, Tempo, 466309
1, 80640, Note_on_c, 0, 65, 0
1, 80640, Note_on_c, 0, 37, 0
1, 80640, Note_on_c, 0, 61, 0
1, 80640, Note_on_c, 0, 46, 0
1, 80640, Note_on_c, 0, 37, 34
1, 81120, Tempo, 448062
1, 81120, Note_on_c, 0, 58, 45
1, 81120, Control_c, 0, 64, 127
1, 81120, Note_on_c, 0, 42, 36
1, 81360, Tempo, 456170
1, 81360, Note_on_c, 0, 63, 35
1, 81600, Tempo, 444906
1, 81600, Note_on_c, 0, 63, 0
1, 81600, Note_on_c, 0, 42, 0
1, 81600, Note_on_c, 0, 58, 0
1, 81600, Note_on_c, 0, 60, 48
1, 81600, Note_on_c, 0, 44, 39
1, 81840, Tempo, 451297
1, 81840, Note_on_c, 0, 65, 37
1, 82023, Control_c, 0, 64, 0
1, 82080, Tempo, 441794
1, 82080, Note_on_c, 0, 65, 0
1, 82080, Note_on_c, 0, 44, 0
1, 82080, Note_on_c, 0, 60, 0
1, 82080, Note_on_c, 0, 61, 49
1, 82080, Control_c, 0, 64, 127
1, 82080, Note_on_c, 0, 46, 40
1, 82320, Tempo, 457841
1, 82320, Note_on_c, 0, 65, 38
1, 82560, Tempo, 449674
1, 82560, Note_on_c, 0, 65, 0
1, 82560, Note_on_c, 0, 46, 0
1, 82560, Note_on_c, 0, 58, 44
1, 82560, Note_on_c, 0, 53, 38
1, 82800, Tempo, 457841
1, 82800, Note_on_c, 0, 58, 0
1, 82800, Note_on_c, 0, 68, 33
1, 83040, Tempo, 449674
1, 83040, Note_on_c, 0, 68, 0
1, 83040, Note_on_c, 0, 53, 0
1, 83040, Note_on_c, 0, 61, 0
1, 83040, Note_on_c, 0, 65, 41
1, 83040, Note_on_c, 0, 49, 34
1, 83280, Tempo, 462892
1, 83280, Note_on_c, 0, 70, 30
1, 83371, Control_c, 0, 64, 0
1, 83520, Tempo, 466309
1, 83520, Note_on_c, 0, 70, 0
1, 83520, Note_on_c, 0, 37, 0
1, 83520, Note_on_c, 0, 65, 0
1, 83520, Note_on_c, 0, 49, 0
1, 83520, Note_on_c, 0, 36, 41
1, 84000, Tempo, 456170
1, 84000, Note_on_c, 0, 62, 49
1, 84000, Note_on_c, 0, 67, 55
1, 84000, Control_c, 0, 64, 127
1, 84000, Note_on_c, 0, 58, 50
1, 84480, Tempo, 448062
1, 84480, Note_on_c, 0, 58, 0
1, 84480, Note_on_c, 0, 67, 0
1, 84480, Note_on_c, 0, 62, 0
1, 84480, Note_on_c, 0, 64, 52
1, 84480, Note_on_c, 0, 69, 58
1, 84480, Note_on_c, 0, 60, 55
1, 84709, Control_c, 0, 64, 0
1, 84960, Tempo, 443328
1, 84960, Note_on_c, 0, 60, 0
1, 84960, Note_on_c, 0, 69, 0
1, 84960, Note_on_c, 0, 64, 0
1, 84960, Note_on_c, 0, 65, 55
1, 84960, Note_on_c, 0, 69, 62
1, 84960, Control_c, 0, 64, 127
1, 84960, Note_on_c, 0, 62, 57
1, 85440, Tempo, 451773
1, 85440, Note_on_c, 0, 69, 0
1, 85440, Note_on_c, 0, 65, 0
1, 85440, Note_on_c, 0, 65, 48
1, 85440, Note_on_c, 0, 72, 53
1, 85440, Note_on_c, 0, 57, 46
1, 85920, Note_on_c, 0, 57, 0
1, 85920, Note_on_c, 0, 65, 0
1, 85920, Note_on_c, 0, 72, 0
1, 85920, Note_on_c, 0, 62, 0
1, 85920, Note_on_c, 0, 65, 46
1, 85920, Note_on_c, 0, 69, 52
1, 85920, Control_c, 0, 64, 0
1, 85920, Note_on_c, 0, 60, 41
1, 86400, Tempo, 457841
1, 86400, Note_on_c, 0, 60, 0
1, 86400, Note_on_c, 0, 36, 0
1, 86400, Note_on_c, 0, 65, 0
1, 86400, Note_on_c, 0, 69, 0
1, 86400, Note_on_c, 0, 36, 41
1, 86880, Tempo, 435667
1, 86880, Note_on_c, 0, 62, 55
1, 86880, Control_c, 0, 64, 127
1, 86880, Note_on_c, 0, 58, 50
1, 87120, Tempo, 443328
1, 87120, Note_on_c, 0, 67, 44
1, 87360, Tempo, 431189
1, 87360, Note_on_c, 0, 67, 0
1, 87360, Note_on_c, 0, 58, 0
1, 87360, Note_on_c, 0, 62, 0
1, 87360, Note_on_c, 0, 64, 57
1, 87360, Note_on_c, 0, 60, 55
1, 87589, Control_c, 0, 64, 0
1, 87600, Tempo, 440238
1, 87600, Note_on_c, 0, 69, 45
1, 87840, Tempo, 431189
1, 87840, Note_on_c, 0, 69, 0
1, 87840, Note_on_c, 0, 60, 0
1, 87840, Note_on_c, 0, 64, 0
1, 87840, Note_on_c, 0, 65, 60
1, 87840, Control_c, 0, 64, 127
1, 87840, Note_on_c, 0, 62, 55
1, 88080, Tempo, 441794
1, 88080, Note_on_c, 0, 69, 47
1, 88320, Tempo, 434153
1, 88320, Note_on_c, 0, 69, 0
1, 88320, Note_on_c, 0, 65, 0
1, 88320, Note_on_c, 0, 65, 57
1, 88320, Note_on_c, 0, 57, 46
1, 88560, Tempo, 443328
1, 88560, Note_on_c, 0, 72, 45
1, 88800, Tempo, 438693
1, 88800, Note_on_c, 0, 72, 0
1, 88800, Note_on_c, 0, 65, 0
1, 88800, Note_on_c, 0, 57, 0
1, 88800, Note_on_c, 0, 62, 0
1, 88800, Note_on_c, 0, 69, 53
1, 88800, Note_on_c, 0, 60, 41
1, 89026, Control_c, 0, 64, 0
1, 89040, Tempo, 451773
1, 89040, Note_on_c, 0, 74, 42
1, 89280, Tempo, 452728
1, 89280, Note_on_c, 0, 74, 0
1, 89280, Note_on_c, 0, 36, 0
1, 89280, Note_on_c, 0, 69, 0
1, 89280, Note_on_c, 0, 60, 0
1, 89280, Note_on_c, 0, 36, 38
1, 89760, Tempo, 442706
1, 89760, Note_on_c, 0, 84, 51
1, 89760, Note_on_c, 0, 79, 45
1, 89760, Note_on_c, 0, 64, 41
1, 89920, Control_c, 0, 64, 127
1, 90240, Tempo, 449337
1, 90240, Note_on_c, 0, 64, 0
1, 90240, Note_on_c, 0, 79, 0
1, 90240, Note_on_c, 0, 84, 0
1, 90240, Note_on_c, 0, 74, 39
1, 90240, Note_on_c, 0, 81, 44
1, 90240, Note_on_c, 0, 65, 36
1, 90720, Tempo, 442706
1, 90720, Note_on_c, 0, 65, 0
1, 90720, Note_on_c, 0, 81, 0
1, 90720, Note_on_c, 0, 74, 0
1, 90720, Note_on_c, 0, 84, 51
1, 90720, Note_on_c, 0, 79, 45
1, 90720, Control_c, 0, 64, 0
1, 90720, Note_on_c, 0, 64, 41
1, 90880, Control_c, 0, 64, 127
1, 91200, Tempo, 449337
1, 91200, Note_on_c, 0, 64, 0
1, 91200, Note_on_c, 0, 79, 0
1, 91200, Note_on_c, 0, 84, 0
1, 91200, Note_on_c, 0, 77, 39
1, 91200, Note_on_c, 0, 81, 44
1, 91200, Note_on_c, 0, 62, 34
1, 91627, Control_c, 0, 64, 0
1, 91680, Tempo, 444379
1, 91680, Note_on_c, 0, 62, 0
1, 91680, Note_on_c, 0, 81, 0
1, 91680, Note_on_c, 0, 77, 0
1, 91680, Note_on_c, 0, 74, 45
1, 91680, Note_on_c, 0, 82, 51
1, 91680, Note_on_c, 0, 67, 41
1, 91787, Control_c, 0, 64, 127
1, 92160, Tempo, 451060
1, 92160, Note_on_c, 0, 67, 0
1, 92160, Note_on_c, 0, 82, 0
1, 92160, Note_on_c, 0, 74, 0
1, 92160, Note_on_c, 0, 76, 37
1, 92160, Note_on_c, 0, 79, 41
1, 92160, Note_on_c, 0, 60, 36
1, 92480, Control_c, 0, 64, 0
1, 92640, Tempo, 442706
1, 92640, Note_on_c, 0, 60, 0
1, 92640, Note_on_c, 0, 36, 0
1, 92640, Note_on_c, 0, 76, 0
1, 92640, Note_on_c, 0, 79, 0
1, 92640, Note_on_c, 0, 72, 51
1, 92640, Note_on_c, 0, 67, 45
1, 92640, Note_on_c, 0, 52, 41
1, 92800, Control_c, 0, 64, 127
1, 93120, Tempo, 449337
1, 93120, Note_on_c, 0, 52, 0
1, 93120, Note_on_c, 0, 67, 0
1, 93120, Note_on_c, 0, 72, 0
1, 93120, Note_on_c, 0, 62, 39
1, 93120, Note_on_c, 0, 69, 44
1, 93120, Note_on_c, 0, 53, 36
1, 93600, Tempo, 442706
1, 93600, Note_on_c, 0, 53, 0
1, 93600, Note_on_c, 0, 69, 0
1, 93600, Note_on_c, 0, 62, 0
1, 93600, Note_on_c, 0, 72, 51
1, 93600, Note_on_c, 0, 67, 45
1, 93600, Control_c, 0, 64, 0
1, 93600, Note_on_c, 0, 52, 41
1, 93760, Control_c, 0, 64, 127
1, 94080, Tempo, 449337
1, 94080, Note_on_c, 0, 52, 0
1, 94080, Note_on_c, 0, 67, 0
1, 94080, Note_on_c, 0, 72, 0
1, 94080, Note_on_c, 0, 65, 39
1, 94080, Note_on_c, 0, 69, 44
1, 94080, Note_on_c, 0, 50, 34
1, 94507, Control_c, 0, 64, 0
1, 94560, Tempo, 444379
1, 94560, Note_on_c, 0, 50, 0
1, 94560, Note_on_c, 0, 69, 0
1, 94560, Note_on_c, 0, 65, 0
1, 94560, Note_on_c, 0, 62, 45
1, 94560, Note_on_c, 0, 70, 51
1, 94560, Note_on_c, 0, 55, 41
1, 94667, Control_c, 0, 64, 127
1, 95040, Tempo, 451060
1, 95040, Note_on_c, 0, 55, 0
1, 95040, Note_on_c, 0, 70, 0
1, 95040, Note_on_c, 0, 62, 0
1, 95040, Note_on_c, 0, 64, 37
1, 95040, Note_on_c, 0, 67, 41
1, 95040, Note_on_c, 0, 48, 36
1, 95360, Control_c, 0, 64, 0
1, 95520, Note_on_c, 0, 48, 0
1, 95520, Note_on_c, 0, 67, 0
1, 95520, Note_on_c, 0, 64, 0
1, 95520, Note_on_c, 0, 60, 48
1, 95520, Note_on_c, 0, 69, 51
1, 95520, Note_on_c, 0, 45, 41
1, 95680, Control_c, 0, 64, 127
1, 96480, Tempo, 481850
1, 96480, Note_on_c, 0, 45, 0
1, 96480, Note_on_c, 0, 69, 0
1, 96480, Note_on_c, 0, 60, 0
1, 96480, Note_on_c, 0, 62, 40
1, 96480, Note_on_c, 0, 65, 44
1, 96480, Note_on_c, 0, 46, 36
1, 96640, Control_c, 0, 64, 0
1, 96960, Tempo, 462892
1, 96960, Note_on_c, 0, 46, 0
1, 96960, Note_on_c, 0, 65, 0
1, 96960, Note_on_c, 0, 62, 0
1, 96960, Note_on_c, 0, 58, 48
1, 96960, Note_on_c, 0, 67, 51
1, 96960, Note_on_c, 0, 43, 41
1, 97040, Control_c, 0, 64, 127
1, 97653, Control_c, 0, 64, 0
1, 97920, Tempo, 518135
1, 97920, Note_on_c, 0, 43, 0
1, 97920, Note_on_c, 0, 67, 0
1, 97920, Note_on_c, 0, 58, 0
1, 97920, Note_on_c, 0, 58, 40
1, 97920, Note_on_c, 0, 67, 44
1, 97920, Note_on_c, 0, 48, 36
1, 98400, Tempo, 489916
1, 98400, Note_on_c, 0, 62, 42
1, 98880, Tempo, 503651
1, 98880, Note_on_c, 0, 64, 42
1, 98900, Note_on_c, 0, 62, 0
1, 99360, Tempo, 513919
1, 99360, Note_on_c, 0, 67, 0
1, 99360, Note_on_c, 0, 58, 0
1, 99360, Note_on_c, 0, 65, 45
1, 99380, Note_on_c, 0, 64, 0
1, 99840, Tempo, 617220
1, 99840, Note_on_c, 0, 64, 39
1, 99860, Note_on_c, 0, 65, 0
1, 100080, Tempo, 662691
1, 100080, Note_on_c, 0, 62, 30
1, 100100, Note_on_c, 0, 64, 0
1, 100320, Tempo, 1076233
1, 100320, Note_on_c, 0, 48, 0
1, 100320, Note_on_c, 0, 64, 33
1, 100340, Note_on_c, 0, 62, 0
1, 100800, Tempo, 502723
1, 100800, Marker_t, "Tempo I"
1, 100800, Note_on_c, 0, 64, 0
1, 100800, Note_on_c, 0, 57, 48
1, 100800, Note_on_c, 0, 64, 55
1, 100800, Control_c, 0, 64, 127
1, 100800, Note_on_c, 0, 48, 48
1, 100800, Note_on_c, 0, 41, 44
1, 100801, Tempo, 479118
1, 101160, Tempo, 492490
1, 101160, Note_on_c, 0, 64, 0
1, 101160, Note_on_c, 0, 65, 51
1, 101280, Tempo, 446894
1, 101280, Note_on_c, 0, 65, 0
1, 101280, Note_on_c, 0, 69, 55
1, 101440, Note_on_c, 0, 69, 0
1, 101440, Note_on_c, 0, 67, 51
1, 101520, Tempo, 452728
1, 101562, Control_c, 0, 64, 0
1, 101600, Note_on_c, 0, 67, 0
1, 101600, Note_on_c, 0, 65, 51
1, 101760, Tempo, 460405
1, 101760, Note_on_c, 0, 65, 0
1, 101760, Note_on_c, 0, 48, 0
1, 101760, Note_on_c, 0, 64, 53
1, 101760, Note_on_c, 0, 49, 45
1, 101838, Control_c, 0, 64, 127
1, 102000, Tempo, 466999
1, 102000, Note_on_c, 0, 64, 0
1, 102000, Note_on_c, 0, 65, 52
1, 102148, Control_c, 0, 64, 0
1, 102240, Tempo, 473896
1, 102240, Note_on_c, 0, 65, 0
1, 102240, Note_on_c, 0, 49, 0
1, 102240, Note_on_c, 0, 57, 0
1, 102240, Note_on_c, 0, 41, 0
1, 102240, Note_on_c, 0, 57, 48
1, 102240, Note_on_c, 0, 62, 52
1, 102240, Note_on_c, 0, 50, 48
1, 102240, Note_on_c, 0, 41, 44
1, 102331, Control_c, 0, 64, 127
1, 102600, Note_on_c, 0, 62, 0
1, 102720, Tempo, 450789
1, 102720, Note_on_c, 0, 69, 58
1, 103200, Tempo, 465008
1, 103200, Note_on_c, 0, 50, 0
1, 103200, Note_on_c, 0, 49, 39
1, 103291, Control_c, 0, 64, 0
1, 103680, Tempo, 470035
1, 103680, Note_on_c, 0, 49, 0
1, 103680, Note_on_c, 0, 69, 0
1, 103680, Note_on_c, 0, 57, 0
1, 103680, Note_on_c, 0, 41, 0
1, 103680, Note_on_c, 0, 55, 48
1, 103680, Note_on_c, 0, 62, 55
1, 103680, Note_on_c, 0, 50, 48
1, 103680, Note_on_c, 0, 46, 44
1, 103722, Control_c, 0, 64, 127
1, 104040, Tempo, 484770
1, 104040, Note_on_c, 0, 62, 0
1, 104040, Note_on_c, 0, 64, 50
1, 104160, Tempo, 448833
1, 104160, Note_on_c, 0, 64, 0
1, 104160, Note_on_c, 0, 50, 0
1, 104160, Note_on_c, 0, 67, 55
1, 104160, Note_on_c, 0, 52, 48
1, 104320, Note_on_c, 0, 67, 0
1, 104320, Note_on_c, 0, 65, 51
1, 104400, Tempo, 452728
1, 104480, Note_on_c, 0, 65, 0
1, 104480, Note_on_c, 0, 64, 51
1, 104576, Control_c, 0, 64, 0
1, 104640, Tempo, 469263
1, 104640, Note_on_c, 0, 64, 0
1, 104640, Note_on_c, 0, 62, 55
1, 104647, Control_c, 0, 64, 127
1, 104880, Tempo, 480885
1, 104880, Note_on_c, 0, 62, 0
1, 104880, Note_on_c, 0, 64, 52
1, 105014, Control_c, 0, 64, 0
1, 105120, Tempo, 466999
1, 105120, Note_on_c, 0, 64, 0
1, 105120, Note_on_c, 0, 46, 0
1, 105120, Note_on_c, 0, 55, 0
1, 105120, Note_on_c, 0, 62, 51
1, 105120, Note_on_c, 0, 64, 55
1, 105120, Note_on_c, 0, 45, 44
1, 105143, Control_c, 0, 64, 127
1, 105360, Note_on_c, 0, 62, 0
1, 105360, Note_on_c, 0, 61, 44
1, 105600, Tempo, 458786
1, 105600, Note_on_c, 0, 61, 0
1, 105600, Note_on_c, 0, 52, 0
1, 105600, Note_on_c, 0, 59, 47
1, 105600, Note_on_c, 0, 55, 45
1, 105840, Tempo, 465008
1, 105840, Note_on_c, 0, 59, 0
1, 105840, Note_on_c, 0, 61, 42
1, 106080, Tempo, 467108
1, 106080, Note_on_c, 0, 61, 0
1, 106080, Note_on_c, 0, 55, 0
1, 106080, Note_on_c, 0, 45, 0
1, 106080, Note_on_c, 0, 59, 47
1, 106080, Note_on_c, 0, 45, 45
1, 106251, Control_c, 0, 64, 0
1, 106320, Tempo, 482393
1, 106320, Note_on_c, 0, 59, 0
1, 106320, Note_on_c, 0, 57, 42
1, 106560, Tempo, 471809
1, 106560, Note_on_c, 0, 57, 0
1, 106560, Note_on_c, 0, 45, 0
1, 106560, Note_on_c, 0, 64, 0
1, 106560, Note_on_c, 0, 57, 48
1, 106560, Note_on_c, 0, 64, 55
1, 106560, Control_c, 0, 64, 127
1, 106560, Note_on_c, 0, 48, 48
1, 106560, Note_on_c, 0, 41, 44
1, 106920, Tempo, 492490
1, 106920, Note_on_c, 0, 64, 0
1, 106920, Note_on_c, 0, 65, 51
1, 107040, Tempo, 446894
1, 107040, Note_on_c, 0, 65, 0
1, 107040, Note_on_c, 0, 69, 55
1, 107200, Note_on_c, 0, 69, 0
1, 107200, Note_on_c, 0, 67, 51
1, 107280, Tempo, 452728
1, 107322, Control_c, 0, 64, 0
1, 107360, Note_on_c, 0, 67, 0
1, 107360, Note_on_c, 0, 65, 51
1, 107520, Tempo, 460405
1, 107520, Note_on_c, 0, 65, 0
1, 107520, Note_on_c, 0, 48, 0
1, 107520, Note_on_c, 0, 64, 53
1, 107520, Note_on_c, 0, 49, 45
1, 107598, Control_c, 0, 64, 127
1, 107760, Tempo, 466999
1, 107760, Note_on_c, 0, 64, 0
1, 107760, Note_on_c, 0, 65, 52
1, 107908, Control_c, 0, 64, 0
1, 108000, Tempo, 470035
1, 108000, Note_on_c, 0, 65, 0
1, 108000, Note_on_c, 0, 49, 0
1, 108000, Note_on_c, 0, 57, 0
1, 108000, Note_on_c, 0, 41, 0
1, 108000, Note_on_c, 0, 57, 48
1, 108000, Note_on_c, 0, 62, 52
1, 108000, Note_on_c, 0, 50, 48
1, 108000, Note_on_c, 0, 41, 44
1, 108091, Control_c, 0, 64, 127
1, 108360, Note_on_c, 0, 62, 0
1, 108480, Tempo, 446894
1, 108480, Note_on_c, 0, 69, 57
1, 108960, Tempo, 465008
1, 108960, Note_on_c, 0, 50, 0
1, 108960, Note_on_c, 0, 52, 39
1, 109051, Control_c, 0, 64, 0
1, 109440, Tempo, 471809
1, 109440, Note_on_c, 0, 52, 0
1, 109440, Note_on_c, 0, 69, 0
1, 109440, Note_on_c, 0, 57, 0
1, 109440, Note_on_c, 0, 41, 0
1, 109440, Note_on_c, 0, 62, 50
1, 109440, Note_on_c, 0, 69, 57
1, 109440, Note_on_c, 0, 53, 47
1, 109482, Control_c, 0, 64, 127
1, 109800, Tempo, 486697
1, 109800, Note_on_c, 0, 69, 0
1, 109800, Note_on_c, 0, 71, 52
1, 109920, Tempo, 456066
1, 109920, Note_on_c, 0, 71, 0
1, 109920, Note_on_c, 0, 53, 0
1, 109920, Note_on_c, 0, 74, 57
1, 109920, Note_on_c, 0, 55, 53
1, 110080, Note_on_c, 0, 74, 0
1, 110080, Note_on_c, 0, 72, 53
1, 110240, Note_on_c, 0, 72, 0
1, 110240, Note_on_c, 0, 71, 53
1, 110336, Control_c, 0, 64, 0
1, 110400, Tempo, 462927
1, 110400, Note_on_c, 0, 71, 0
1, 110400, Note_on_c, 0, 55, 0
1, 110400, Note_on_c, 0, 69, 57
1, 110400, Note_on_c, 0, 53, 50
1, 110407, Control_c, 0, 64, 127
1, 110640, Tempo, 469190
1, 110640, Note_on_c, 0, 69, 0
1, 110640, Note_on_c, 0, 71, 55
1, 110774, Control_c, 0, 64, 0
1, 110880, Tempo, 454752
1, 110880, Note_on_c, 0, 71, 0
1, 110880, Note_on_c, 0, 53, 0
1, 110880, Note_on_c, 0, 67, 57
1, 110880, Note_on_c, 0, 52, 44
1, 110903, Control_c, 0, 64, 127
1, 111120, Tempo, 465008
1, 111120, Note_on_c, 0, 67, 0
1, 111120, Note_on_c, 0, 69, 51
1, 111300, Control_c, 0, 64, 0
1, 111360, Tempo, 456760
1, 111360, Note_on_c, 0, 69, 0
1, 111360, Note_on_c, 0, 52, 0
1, 111360, Note_on_c, 0, 62, 0
1, 111360, Note_on_c, 0, 60, 47
1, 111360, Note_on_c, 0, 67, 59
1, 111360, Note_on_c, 0, 57, 51
1, 111383, Control_c, 0, 64, 127
1, 111600, Tempo, 469190
1, 111600, Note_on_c, 0, 67, 0
1, 111600, Note_on_c, 0, 69, 53
1, 111840, Tempo, 467108
1, 111840, Note_on_c, 0, 69, 0
1, 111840, Note_on_c, 0, 57, 0
1, 111840, Note_on_c, 0, 71, 59
1, 111840, Note_on_c, 0, 55, 47
1, 112080, Tempo, 486894
1, 112080, Note_on_c, 0, 71, 0
1, 112080, Note_on_c, 0, 72, 55
1, 112194, Control_c, 0, 64, 0
1, 112320, Tempo, 462927
1, 112320, Note_on_c, 0, 72, 0
1, 112320, Note_on_c, 0, 55, 0
1, 112320, Note_on_c, 0, 60, 0
1, 112320, Note_on_c, 0, 59, 50
1, 112320, Note_on_c, 0, 65, 57
1, 112320, Note_on_c, 0, 50, 47
1, 112362, Control_c, 0, 64, 127
1, 112680, Tempo, 470035
1, 112680, Note_on_c, 0, 65, 0
1, 112680, Note_on_c, 0, 67, 52
1, 112800, Tempo, 456066
1, 112800, Note_on_c, 0, 67, 0
1, 112800, Note_on_c, 0, 50, 0
1, 112800, Note_on_c, 0, 71, 57
1, 112800, Note_on_c, 0, 55, 53
1, 112960, Note_on_c, 0, 71, 0
1, 112960, Note_on_c, 0, 69, 53
1, 113040, Tempo, 462927
1, 113120, Note_on_c, 0, 69, 0
1, 113120, Note_on_c, 0, 67, 53
1, 113216, Control_c, 0, 64, 0
1, 113280, Tempo, 469263
1, 113280, Note_on_c, 0, 67, 0
1, 113280, Note_on_c, 0, 55, 0
1, 113280, Note_on_c, 0, 59, 0
1, 113280, Note_on_c, 0, 59, 48
1, 113280, Note_on_c, 0, 65, 57
1, 113280, Note_on_c, 0, 50, 47
1, 113287, Control_c, 0, 64, 127
1, 113320, Tempo, 482393
1, 113520, Tempo, 491562
1, 113520, Note_on_c, 0, 65, 0
1, 113520, Note_on_c, 0, 67, 55
1, 113654, Control_c, 0, 64, 0
1, 113760, Tempo, 480154
1, 113760, Note_on_c, 0, 67, 0
1, 113760, Note_on_c, 0, 59, 0
1, 113760, Note_on_c, 0, 59, 50
1, 113760, Note_on_c, 0, 64, 57
1, 113760, Note_on_c, 0, 56, 50
1, 114053, Control_c, 0, 64, 127
1, 114240, Tempo, 489237
1, 114240, Note_on_c, 0, 50, 0
1, 114240, Note_on_c, 0, 50, 47
1, 114507, Control_c, 0, 64, 0
1, 114720, Note_on_c, 0, 50, 0
1, 114720, Note_on_c, 0, 56, 0
1, 114720, Note_on_c, 0, 59, 0
1, 114720, Note_on_c, 0, 48, 38
1, 114720, Note_on_c, 0, 57, 45
1, 114853, Control_c, 0, 64, 127
1, 114987, Control_c, 0, 64, 0
1, 115200, Tempo, 468238
1, 115200, Note_on_c, 0, 57, 0
1, 115200, Note_on_c, 0, 48, 0
1, 115200, Note_on_c, 0, 64, 0
1, 115200, Note_on_c, 0, 53, 45
1, 115200, Note_on_c, 0, 57, 57
1, 115229, Control_c, 0, 64, 127
1, 115560, Tempo, 484770
1, 115560, Note_on_c, 0, 57, 0
1, 115560, Note_on_c, 0, 59, 53
1, 115669, Control_c, 0, 64, 0
1, 115680, Tempo, 452830
1, 115680, Note_on_c, 0, 59, 0
1, 115680, Note_on_c, 0, 69, 47
1, 115680, Note_on_c, 0, 74, 62
1, 115680, Note_on_c, 0, 62, 56
1, 115709, Control_c, 0, 64, 127
1, 115840, Note_on_c, 0, 62, 0
1, 115840, Note_on_c, 0, 60, 55
1, 115920, Tempo, 458015
1, 116000, Note_on_c, 0, 60, 0
1, 116000, Note_on_c, 0, 59, 55
1, 116160, Tempo, 469263
1, 116160, Note_on_c, 0, 59, 0
1, 116160, Note_on_c, 0, 74, 0
1, 116160, Note_on_c, 0, 81, 67
1, 116160, Note_on_c, 0, 57, 57
1, 116400, Tempo, 480885
1, 116400, Note_on_c, 0, 57, 0
1, 116400, Note_on_c, 0, 59, 56
1, 116543, Control_c, 0, 64, 0
1, 116640, Tempo, 454752
1, 116640, Note_on_c, 0, 59, 0
1, 116640, Note_on_c, 0, 53, 0
1, 116640, Note_on_c, 0, 52, 41
1, 116640, Note_on_c, 0, 55, 55
1, 116709, Control_c, 0, 64, 127
1, 116880, Tempo, 456760
1, 116880, Note_on_c, 0, 55, 0
1, 116880, Note_on_c, 0, 57, 52
1, 117120, Tempo, 447761
1, 117120, Note_on_c, 0, 57, 0
1, 117120, Note_on_c, 0, 81, 0
1, 117120, Note_on_c, 0, 72, 60
1, 117120, Note_on_c, 0, 55, 59
1, 117360, Tempo, 454545
1, 117360, Note_on_c, 0, 55, 0
1, 117360, Note_on_c, 0, 57, 55
1, 117520, Control_c, 0, 64, 0
1, 117600, Tempo, 467108
1, 117600, Note_on_c, 0, 57, 0
1, 117600, Note_on_c, 0, 72, 0
1, 117600, Note_on_c, 0, 69, 0
1, 117600, Note_on_c, 0, 67, 47
1, 117600, Note_on_c, 0, 79, 62
1, 117600, Note_on_c, 0, 59, 59
1, 117623, Control_c, 0, 64, 127
1, 117840, Tempo, 486894
1, 117840, Note_on_c, 0, 59, 0
1, 117840, Note_on_c, 0, 60, 51
1, 117989, Control_c, 0, 64, 0
1, 118080, Tempo, 464720
1, 118080, Note_on_c, 0, 60, 0
1, 118080, Note_on_c, 0, 79, 0
1, 118080, Note_on_c, 0, 67, 0
1, 118080, Note_on_c, 0, 52, 0
1, 118080, Note_on_c, 0, 50, 45
1, 118080, Note_on_c, 0, 53, 57
1, 118115, Control_c, 0, 64, 127
1, 118440, Note_on_c, 0, 53, 0
1, 118440, Note_on_c, 0, 55, 53
1, 118532, Control_c, 0, 64, 0
1, 118560, Tempo, 444444
1, 118560, Note_on_c, 0, 55, 0
1, 118560, Note_on_c, 0, 71, 48
1, 118560, Note_on_c, 0, 77, 62
1, 118560, Note_on_c, 0, 59, 59
1, 118571, Control_c, 0, 64, 127
1, 118720, Note_on_c, 0, 59, 0
1, 118720, Note_on_c, 0, 57, 57
1, 118800, Tempo, 452728
1, 118880, Note_on_c, 0, 57, 0
1, 118880, Note_on_c, 0, 55, 57
1, 119040, Tempo, 471365
1, 119040, Note_on_c, 0, 55, 0
1, 119040, Note_on_c, 0, 50, 0
1, 119040, Note_on_c, 0, 71, 0
1, 119040, Note_on_c, 0, 77, 0
1, 119040, Note_on_c, 0, 67, 46
1, 119040, Note_on_c, 0, 79, 60
1, 119040, Note_on_c, 0, 43, 42
1, 119040, Note_on_c, 0, 53, 59
1, 119065, Control_c, 0, 64, 0
1, 119089, Control_c, 0, 64, 127
1, 119280, Tempo, 484653
1, 119280, Note_on_c, 0, 53, 0
1, 119280, Note_on_c, 0, 55, 58
1, 119442, Control_c, 0, 64, 0
1, 119500, Note_on_c, 0, 67, 0
1, 119500, Note_on_c, 0, 79, 0
1, 119520, Tempo, 450789
1, 119520, Note_on_c, 0, 43, 0
1, 119520, Note_on_c, 0, 55, 0
1, 119520, Note_on_c, 0, 67, 48
1, 119520, Note_on_c, 0, 79, 62
1, 119520, Note_on_c, 0, 48, 45
1, 119520, Note_on_c, 0, 53, 53
1, 119605, Control_c, 0, 64, 127
1, 119760, Tempo, 460829
1, 119760, Note_on_c, 0, 53, 0
1, 119760, Note_on_c, 0, 52, 51
1, 120000, Tempo, 467108
1, 120000, Note_on_c, 0, 52, 0
1, 120000, Note_on_c, 0, 79, 0
1, 120000, Note_on_c, 0, 67, 0
1, 120000, Note_on_c, 0, 72, 57
1, 120000, Note_on_c, 0, 50, 55
1, 120240, Tempo, 480154
1, 120240, Note_on_c, 0, 50, 0
1, 120240, Note_on_c, 0, 52, 51
1, 120480, Tempo, 473522
1, 120480, Note_on_c, 0, 52, 0
1, 120480, Note_on_c, 0, 72, 0
1, 120480, Note_on_c, 0, 48, 0
1, 120480, Note_on_c, 0, 50, 47
1, 120494, Control_c, 0, 64, 0
1, 120607, Control_c, 0, 64, 127
1, 120720, Note_on_c, 0, 50, 0
1, 120720, Note_on_c, 0, 48, 41
1, 120805, Control_c, 0, 64, 0
1, 120960, Key_signature, -4, "major"
1, 120960, Tempo, 458786
1, 120960, Note_on_c, 0, 48, 0
1, 120960, Note_on_c, 0, 53, 69
1, 120960, Note_on_c, 0, 41, 57
1, 121200, Tempo, 443033
1, 121320, Note_on_c, 0, 41, 0
1, 121320, Note_on_c, 0, 53, 0
1, 121320, Note_on_c, 0, 55, 63
1, 121320, Note_on_c, 0, 43, 53
1, 121440, Tempo, 435572
1, 121440, Note_on_c, 0, 58, 69
1, 121440, Note_on_c, 0, 46, 56
1, 121450, Note_on_c, 0, 43, 0
1, 121450, Note_on_c, 0, 55, 0
1, 121600, Note_on_c, 0, 56, 64
1, 121600, Note_on_c, 0, 44, 55
1, 121610, Note_on_c, 0, 58, 0
1, 121610, Note_on_c, 0, 46, 0
1, 121680, Tempo, 456760
1, 121760, Note_on_c, 0, 55, 64
1, 121760, Note_on_c, 0, 43, 55
1, 121770, Note_on_c, 0, 56, 0
1, 121770, Note_on_c, 0, 44, 0
1, 121920, Tempo, 465008
1, 121920, Note_on_c, 0, 53, 69
1, 121920, Note_on_c, 0, 41, 57
1, 121930, Note_on_c, 0, 55, 0
1, 121930, Note_on_c, 0, 43, 0
1, 122160, Tempo, 477897
1, 122160, Note_on_c, 0, 55, 66
1, 122160, Note_on_c, 0, 43, 56
1, 122170, Note_on_c, 0, 53, 0
1, 122170, Note_on_c, 0, 41, 0
1, 122400, Tempo, 462927
1, 122400, Note_on_c, 0, 55, 0
1, 122400, Note_on_c, 0, 43, 0
1, 122400, Note_on_c, 0, 68, 59
1, 122400, Note_on_c, 0, 75, 72
1, 122400, Note_on_c, 0, 39, 55
1, 122400, Note_on_c, 0, 51, 59
1, 122492, Control_c, 0, 64, 127
1, 122640, Tempo, 448833
1, 122760, Note_on_c, 0, 75, 0
1, 122760, Note_on_c, 0, 77, 66
1, 122880, Tempo, 441144
1, 122880, Note_on_c, 0, 77, 0
1, 122880, Note_on_c, 0, 51, 0
1, 122880, Note_on_c, 0, 39, 0
1, 122880, Note_on_c, 0, 80, 71
1, 122880, Control_c, 0, 64, 0
1, 122880, Note_on_c, 0, 48, 55
1, 122880, Note_on_c, 0, 60, 59
1, 122951, Control_c, 0, 64, 127
1, 123040, Note_on_c, 0, 80, 0
1, 123040, Note_on_c, 0, 79, 69
1, 123120, Tempo, 454752
1, 123200, Note_on_c, 0, 79, 0
1, 123200, Note_on_c, 0, 77, 69
1, 123360, Tempo, 465008
1, 123360, Note_on_c, 0, 77, 0
1, 123360, Note_on_c, 0, 75, 71
1, 123600, Tempo, 475700
1, 123600, Note_on_c, 0, 75, 0
1, 123600, Note_on_c, 0, 77, 70
1, 123784, Control_c, 0, 64, 0
1, 123840, Tempo, 458786
1, 123840, Note_on_c, 0, 77, 0
1, 123840, Note_on_c, 0, 68, 0
1, 123840, Note_on_c, 0, 48, 0
1, 123840, Note_on_c, 0, 60, 0
1, 123840, Note_on_c, 0, 67, 55
1, 123840, Note_on_c, 0, 73, 71
1, 123840, Note_on_c, 0, 46, 55
1, 123840, Note_on_c, 0, 58, 59
1, 123847, Control_c, 0, 64, 127
1, 124080, Tempo, 446894
1, 124200, Note_on_c, 0, 73, 0
1, 124200, Note_on_c, 0, 75, 66
1, 124320, Tempo, 439271
1, 124320, Note_on_c, 0, 75, 0
1, 124320, Note_on_c, 0, 58, 0
1, 124320, Note_on_c, 0, 46, 0
1, 124320, Note_on_c, 0, 79, 71
1, 124320, Control_c, 0, 64, 0
1, 124320, Note_on_c, 0, 39, 55
1, 124320, Note_on_c, 0, 51, 59
1, 124362, Control_c, 0, 64, 127
1, 124480, Note_on_c, 0, 79, 0
1, 124480, Note_on_c, 0, 77, 69
1, 124560, Tempo, 446894
1, 124640, Note_on_c, 0, 77, 0
1, 124640, Note_on_c, 0, 75, 69
1, 124800, Tempo, 471365
1, 124800, Note_on_c, 0, 75, 0
1, 124800, Note_on_c, 0, 73, 71
1, 125040, Tempo, 484653
1, 125040, Note_on_c, 0, 73, 0
1, 125040, Note_on_c, 0, 75, 70
1, 125160, Control_c, 0, 64, 0
1, 125280, Tempo, 465008
1, 125280, Note_on_c, 0, 75, 0
1, 125280, Note_on_c, 0, 67, 0
1, 125280, Note_on_c, 0, 39, 0
1, 125280, Note_on_c, 0, 51, 0
1, 125280, Note_on_c, 0, 60, 55
1, 125280, Note_on_c, 0, 63, 55
1, 125280, Note_on_c, 0, 72, 61
1, 125280, Note_on_c, 0, 44, 52
1, 125280, Note_on_c, 0, 51, 59
1, 125322, Control_c, 0, 64, 127
1, 125520, Tempo, 480154
1, 125520, Note_on_c, 0, 51, 0
1, 125520, Note_on_c, 0, 53, 55
1, 125760, Tempo, 467108
1, 125760, Note_on_c, 0, 53, 0
1, 125760, Note_on_c, 0, 51, 56
1, 126000, Tempo, 480154
1, 126000, Note_on_c, 0, 51, 0
1, 126000, Note_on_c, 0, 53, 58
1, 126240, Tempo, 467108
1, 126240, Note_on_c, 0, 53, 0
1, 126240, Note_on_c, 0, 55, 61
1, 126480, Note_on_c, 0, 55, 0
1, 126480, Note_on_c, 0, 56, 63
1, 126494, Control_c, 0, 64, 0
1, 126660, Note_on_c, 0, 56, 0
1, 126660, Note_on_c, 0, 43, 64
1, 126671, Control_c, 0, 64, 127
1, 126720, Tempo, 458786
1, 126720, Note_on_c, 0, 44, 0
1, 126720, Note_on_c, 0, 72, 0
1, 126720, Note_on_c, 0, 60, 0
1, 126720, Note_on_c, 0, 63, 0
1, 126720, Note_on_c, 0, 60, 55
1, 126720, Note_on_c, 0, 64, 55
1, 126720, Note_on_c, 0, 72, 61
1, 126720, Note_on_c, 0, 58, 63
1, 126960, Tempo, 444939
1, 127080, Note_on_c, 0, 43, 0
1, 127080, Note_on_c, 0, 44, 61
1, 127129, Control_c, 0, 64, 0
1, 127200, Tempo, 439271
1, 127200, Note_on_c, 0, 44, 0
1, 127200, Note_on_c, 0, 58, 0
1, 127200, Note_on_c, 0, 48, 64
1, 127360, Note_on_c, 0, 46, 62
1, 127370, Note_on_c, 0, 48, 0
1, 127440, Tempo, 456760
1, 127520, Note_on_c, 0, 44, 62
1, 127530, Note_on_c, 0, 46, 0
1, 127680, Tempo, 465008
1, 127680, Note_on_c, 0, 43, 64
1, 127690, Note_on_c, 0, 44, 0
1, 127920, Tempo, 484653
1, 127920, Note_on_c, 0, 44, 63
1, 127930, Note_on_c, 0, 43, 0
1, 128160, Tempo, 462927
1, 128160, Note_on_c, 0, 60, 0
1, 128160, Note_on_c, 0, 72, 0
1, 128160, Note_on_c, 0, 64, 0
1, 128160, Note_on_c, 0, 44, 0
1, 128160, Note_on_c, 0, 60, 51
1, 128160, Note_on_c, 0, 65, 51
1, 128160, Note_on_c, 0, 68, 66
1, 128160, Note_on_c, 0, 41, 59
1, 128160, Note_on_c, 0, 53, 66
1, 128174, Control_c, 0, 64, 127
1, 128400, Tempo, 473522
1, 128400, Note_on_c, 0, 68, 0
1, 128400, Note_on_c, 0, 70, 61
1, 128640, Tempo, 462927
1, 128640, Note_on_c, 0, 70, 0
1, 128640, Note_on_c, 0, 68, 66
1, 128880, Tempo, 473522
1, 128880, Note_on_c, 0, 68, 0
1, 128880, Note_on_c, 0, 70, 62
1, 129021, Control_c, 0, 64, 0
1, 129120, Tempo, 462927
1, 129120, Note_on_c, 0, 70, 0
1, 129120, Note_on_c, 0, 53, 0
1, 129120, Note_on_c, 0, 41, 0
1, 129120, Note_on_c, 0, 72, 66
1, 129120, Note_on_c, 0, 39, 51
1, 129120, Note_on_c, 0, 51, 57
1, 129162, Control_c, 0, 64, 127
1, 129360, Tempo, 473522
1, 129360, Note_on_c, 0, 72, 0
1, 129360, Note_on_c, 0, 73, 62
1, 129473, Control_c, 0, 64, 0
1, 129600, Tempo, 462927
1, 129600, Note_on_c, 0, 73, 0
1, 129600, Note_on_c, 0, 51, 0
1, 129600, Note_on_c, 0, 60, 0
1, 129600, Note_on_c, 0, 65, 0
1, 129600, Note_on_c, 0, 39, 0
1, 129600, Note_on_c, 0, 65, 51
1, 129600, Note_on_c, 0, 70, 72
1, 129600, Note_on_c, 0, 37, 53
1, 129600, Note_on_c, 0, 49, 60
1, 129656, Control_c, 0, 64, 127
1, 129840, Tempo, 471365
1, 129840, Note_on_c, 0, 70, 0
1, 129840, Note_on_c, 0, 72, 63
1, 130080, Tempo, 462927
1, 130080, Note_on_c, 0, 72, 0
1, 130080, Note_on_c, 0, 49, 0
1, 130080, Note_on_c, 0, 37, 0
1, 130080, Note_on_c, 0, 70, 70
1, 130080, Note_on_c, 0, 43, 57
1, 130080, Note_on_c, 0, 55, 63
1, 130320, Tempo, 471365
1, 130320, Note_on_c, 0, 70, 0
1, 130320, Note_on_c, 0, 72, 66
1, 130496, Control_c, 0, 64, 0
1, 130560, Tempo, 454752
1, 130560, Note_on_c, 0, 72, 0
1, 130560, Note_on_c, 0, 55, 0
1, 130560, Note_on_c, 0, 43, 0
1, 130560, Note_on_c, 0, 73, 64
1, 130560, Note_on_c, 0, 37, 51
1, 130560, Note_on_c, 0, 49, 58
1, 130600, Tempo, 456760
1, 130609, Control_c, 0, 64, 127
1, 130640, Tempo, 460829
1, 130680, Tempo, 462927
1, 130720, Tempo, 467108
1, 130720, Note_on_c, 0, 73, 0
1, 130720, Note_on_c, 0, 75, 70
1, 130760, Tempo, 469190
1, 130800, Tempo, 473522
1, 130840, Tempo, 475700
1, 130880, Tempo, 480154
1, 130880, Note_on_c, 0, 75, 0
1, 130880, Note_on_c, 0, 77, 73
1, 130920, Tempo, 482393
1, 130955, Control_c, 0, 64, 0
1, 130960, Tempo, 486894
1, 131000, Tempo, 489237
1, 131040, Tempo, 493908
1, 131040, Note_on_c, 0, 77, 0
1, 131040, Note_on_c, 0, 65, 0
1, 131040, Note_on_c, 0, 37, 0
1, 131040, Note_on_c, 0, 49, 0
1, 131040, Note_on_c, 0, 65, 59
1, 131040, Note_on_c, 0, 70, 58
1, 131040, Note_on_c, 0, 79, 78
1, 131040, Control_c, 0, 64, 127
1, 131040, Note_on_c, 0, 36, 50
1, 131040, Note_on_c, 0, 48, 57
1, 131467, Control_c, 0, 64, 0
1, 131520, Note_on_c, 0, 65, 0
1, 131520, Note_on_c, 0, 64, 59
1, 131627, Control_c, 0, 64, 127
1, 132000, Note_on_c, 0, 36, 0
1, 132000, Note_on_c, 0, 48, 0
1, 132000, Note_on_c, 0, 60, 57
1, 132187, Control_c, 0, 64, 0
1, 132480, Key_signature, -1, "major"
1, 132480, Tempo, 470035
1, 132480, Note_on_c, 0, 60, 0
1, 132480, Note_on_c, 0, 64, 0
1, 132480, Note_on_c, 0, 79, 0
1, 132480, Note_on_c, 0, 70, 0
1, 132480, Note_on_c, 0, 69, 68
1, 132480, Note_on_c, 0, 76, 83
1, 132480, Note_on_c, 0, 29, 60
1, 132480, Control_c, 0, 64, 127
1, 132480, Note_on_c, 0, 41, 68
1, 132840, Note_on_c, 0, 76, 0
1, 132840, Note_on_c, 0, 77, 77
1, 132960, Tempo, 446894
1, 132960, Note_on_c, 0, 77, 0
1, 132960, Note_on_c, 0, 81, 73
1, 132960, Note_on_c, 0, 60, 68
1, 132960, Note_on_c, 0, 48, 61
1, 133120, Note_on_c, 0, 81, 0
1, 133120, Note_on_c, 0, 79, 74
1, 133200, Tempo, 452728
1, 133242, Control_c, 0, 64, 0
1, 133280, Note_on_c, 0, 79, 0
1, 133280, Note_on_c, 0, 77, 73
1, 133440, Tempo, 460405
1, 133440, Note_on_c, 0, 77, 0
1, 133440, Note_on_c, 0, 60, 0
1, 133440, Note_on_c, 0, 48, 0
1, 133440, Note_on_c, 0, 76, 77
1, 133440, Note_on_c, 0, 61, 63
1, 133440, Note_on_c, 0, 49, 56
1, 133518, Control_c, 0, 64, 127
1, 133680, Tempo, 466999
1, 133680, Note_on_c, 0, 76, 0
1, 133680, Note_on_c, 0, 77, 75
1, 133828, Control_c, 0, 64, 0
1, 133920, Tempo, 473896
1, 133920, Note_on_c, 0, 77, 0
1, 133920, Note_on_c, 0, 49, 0
1, 133920, Note_on_c, 0, 61, 0
1, 133920, Note_on_c, 0, 74, 78
1, 133920, Note_on_c, 0, 62, 68
1, 133920, Note_on_c, 0, 50, 68
1, 134011, Control_c, 0, 64, 127
1, 134380, Note_on_c, 0, 74, 0
1, 134380, Note_on_c, 0, 69, 0
1, 134400, Tempo, 450789
1, 134400, Note_on_c, 0, 41, 0
1, 134400, Note_on_c, 0, 29, 0
1, 134400, Note_on_c, 0, 69, 63
1, 134400, Note_on_c, 0, 81, 84
1, 134880, Tempo, 465008
1, 134880, Note_on_c, 0, 29, 53
1, 134880, Note_on_c, 0, 41, 60
1, 134971, Control_c, 0, 64, 0
1, 135360, Tempo, 470035
1, 135360, Note_on_c, 0, 41, 0
1, 135360, Note_on_c, 0, 50, 0
1, 135360, Note_on_c, 0, 69, 0
1, 135360, Note_on_c, 0, 62, 0
1, 135360, Note_on_c, 0, 29, 0
1, 135360, Note_on_c, 0, 81, 0
1, 135360, Note_on_c, 0, 67, 68
1, 135360, Note_on_c, 0, 74, 84
1, 135360, Note_on_c, 0, 34, 68
1, 135360, Note_on_c, 0, 46, 68
1, 135402, Control_c, 0, 64, 127
1, 135720, Note_on_c, 0, 74, 0
1, 135720, Note_on_c, 0, 76, 73
1, 135840, Tempo, 448833
1, 135840, Note_on_c, 0, 76, 0
1, 135840, Note_on_c, 0, 79, 73
1, 135840, Note_on_c, 0, 64, 68
1, 135840, Note_on_c, 0, 52, 61
1, 136000, Note_on_c, 0, 79, 0
1, 136000, Note_on_c, 0, 77, 73
1, 136080, Tempo, 452728
1, 136160, Note_on_c, 0, 77, 0
1, 136160, Note_on_c, 0, 76, 72
1, 136256, Control_c, 0, 64, 0
1, 136320, Tempo, 469263
1, 136320, Note_on_c, 0, 76, 0
1, 136320, Note_on_c, 0, 46, 0
1, 136320, Note_on_c, 0, 67, 0
1, 136320, Note_on_c, 0, 34, 0
1, 136320, Note_on_c, 0, 67, 62
1, 136320, Note_on_c, 0, 74, 78
1, 136320, Note_on_c, 0, 34, 53
1, 136320, Note_on_c, 0, 46, 60
1, 136327, Control_c, 0, 64, 127
1, 136560, Tempo, 480885
1, 136560, Note_on_c, 0, 74, 0
1, 136560, Note_on_c, 0, 76, 74
1, 136694, Control_c, 0, 64, 0
1, 136800, Tempo, 466999
1, 136800, Note_on_c, 0, 76, 0
1, 136800, Note_on_c, 0, 46, 0
1, 136800, Note_on_c, 0, 67, 0
1, 136800, Note_on_c, 0, 64, 0
1, 136800, Note_on_c, 0, 52, 0
1, 136800, Note_on_c, 0, 34, 0
1, 136800, Note_on_c, 0, 67, 68
1, 136800, Note_on_c, 0, 74, 77
1, 136800, Note_on_c, 0, 76, 71
1, 136800, Note_on_c, 0, 33, 55
1, 136800, Note_on_c, 0, 45, 62
1, 136823, Control_c, 0, 64, 127
1, 137040, Note_on_c, 0, 74, 0
1, 137040, Note_on_c, 0, 73, 64
1, 137280, Tempo, 458786
1, 137280, Note_on_c, 0, 73, 0
1, 137280, Note_on_c, 0, 71, 69
1, 137280, Note_on_c, 0, 57, 67
1, 137520, Tempo, 465008
1, 137520, Note_on_c, 0, 71, 0
1, 137520, Note_on_c, 0, 73, 62
1, 137760, Tempo, 467108
1, 137760, Note_on_c, 0, 73, 0
1, 137760, Note_on_c, 0, 76, 0
1, 137760, Note_on_c, 0, 33, 0
1, 137760, Note_on_c, 0, 67, 0
1, 137760, Note_on_c, 0, 45, 0
1, 137760, Note_on_c, 0, 71, 69
1, 137760, Note_on_c, 0, 33, 56
1, 137760, Note_on_c, 0, 45, 63
1, 137931, Control_c, 0, 64, 0
1, 138000, Tempo, 482393
1, 138000, Note_on_c, 0, 71, 0
1, 138000, Note_on_c, 0, 69, 62
1, 138240, Tempo, 471809
1, 138240, Note_on_c, 0, 69, 0
1, 138240, Note_on_c, 0, 45, 0
1, 138240, Note_on_c, 0, 33, 0
1, 138240, Note_on_c, 0, 57, 0
1, 138240, Note_on_c, 0, 69, 68
1, 138240, Note_on_c, 0, 76, 84
1, 138240, Note_on_c, 0, 29, 60
1, 138240, Control_c, 0, 64, 127
1, 138240, Note_on_c, 0, 41, 68
1, 138600, Note_on_c, 0, 76, 0
1, 138600, Note_on_c, 0, 77, 77
1, 138720, Tempo, 446894
1, 138720, Note_on_c, 0, 77, 0
1, 138720, Note_on_c, 0, 81, 75
1, 138720, Note_on_c, 0, 48, 61
1, 138720, Note_on_c, 0, 60, 68
1, 138880, Note_on_c, 0, 81, 0
1, 138880, Note_on_c, 0, 79, 73
1, 138960, Tempo, 452728
1, 139002, Control_c, 0, 64, 0
1, 139040, Note_on_c, 0, 79, 0
1, 139040, Note_on_c, 0, 77, 72
1, 139200, Tempo, 460405
1, 139200, Note_on_c, 0, 77, 0
1, 139200, Note_on_c, 0, 48, 0
1, 139200, Note_on_c, 0, 60, 0
1, 139200, Note_on_c, 0, 76, 75
1, 139200, Note_on_c, 0, 61, 63
1, 139200, Note_on_c, 0, 49, 56
1, 139278, Control_c, 0, 64, 127
1, 139440, Tempo, 466999
1, 139440, Note_on_c, 0, 76, 0
1, 139440, Note_on_c, 0, 77, 74
1, 139588, Control_c, 0, 64, 0
1, 139680, Tempo, 462927
1, 139680, Note_on_c, 0, 77, 0
1, 139680, Note_on_c, 0, 49, 0
1, 139680, Note_on_c, 0, 61, 0
1, 139680, Note_on_c, 0, 74, 78
1, 139680, Note_on_c, 0, 62, 68
1, 139680, Note_on_c, 0, 50, 62
1, 139771, Control_c, 0, 64, 127
1, 140130, Note_on_c, 0, 74, 0
1, 140160, Tempo, 446894
1, 140160, Note_on_c, 0, 69, 0
1, 140160, Note_on_c, 0, 69, 73
1, 140160, Note_on_c, 0, 81, 80
1, 140640, Tempo, 465008
1, 140640, Note_on_c, 0, 62, 0
1, 140640, Note_on_c, 0, 50, 0
1, 140640, Note_on_c, 0, 65, 63
1, 140640, Note_on_c, 0, 53, 55
1, 140731, Control_c, 0, 64, 0
1, 141120, Tempo, 471809
1, 141120, Note_on_c, 0, 53, 0
1, 141120, Note_on_c, 0, 81, 0
1, 141120, Note_on_c, 0, 69, 0
1, 141120, Note_on_c, 0, 41, 0
1, 141120, Note_on_c, 0, 65, 0
1, 141120, Note_on_c, 0, 29, 0
1, 141120, Note_on_c, 0, 65, 57
1, 141120, Note_on_c, 0, 67, 57
1, 141120, Note_on_c, 0, 74, 71
1, 141120, Note_on_c, 0, 46, 53
1, 141162, Control_c, 0, 64, 127
1, 141480, Note_on_c, 0, 74, 0
1, 141480, Note_on_c, 0, 76, 62
1, 141600, Tempo, 456066
1, 141600, Note_on_c, 0, 76, 0
1, 141600, Note_on_c, 0, 46, 0
1, 141600, Note_on_c, 0, 79, 67
1, 141600, Note_on_c, 0, 58, 60
1, 141760, Note_on_c, 0, 79, 0
1, 141760, Note_on_c, 0, 77, 62
1, 141920, Note_on_c, 0, 77, 0
1, 141920, Note_on_c, 0, 76, 60
1, 142016, Control_c, 0, 64, 0
1, 142080, Tempo, 462927
1, 142080, Note_on_c, 0, 76, 0
1, 142080, Note_on_c, 0, 74, 62
1, 142087, Control_c, 0, 64, 127
1, 142320, Tempo, 469190
1, 142320, Note_on_c, 0, 74, 0
1, 142320, Note_on_c, 0, 76, 58
1, 142454, Control_c, 0, 64, 0
1, 142560, Tempo, 454752
1, 142560, Note_on_c, 0, 76, 0
1, 142560, Note_on_c, 0, 65, 0
1, 142560, Note_on_c, 0, 67, 0
1, 142560, Note_on_c, 0, 58, 0
1, 142560, Note_on_c, 0, 69, 47
1, 142560, Note_on_c, 0, 65, 47
1, 142560, Note_on_c, 0, 72, 57
1, 142560, Note_on_c, 0, 60, 44
1, 142583, Control_c, 0, 64, 127
1, 142800, Tempo, 465008
1, 142800, Note_on_c, 0, 72, 0
1, 142800, Note_on_c, 0, 74, 51
1, 142980, Control_c, 0, 64, 0
1, 143040, Tempo, 456760
1, 143040, Note_on_c, 0, 74, 0
1, 143040, Note_on_c, 0, 60, 0
1, 143040, Note_on_c, 0, 72, 59
1, 143040, Note_on_c, 0, 48, 51
1, 143063, Control_c, 0, 64, 127
1, 143280, Tempo, 469190
1, 143280, Note_on_c, 0, 72, 0
1, 143280, Note_on_c, 0, 74, 53
1, 143520, Tempo, 467108
1, 143520, Note_on_c, 0, 74, 0
1, 143520, Note_on_c, 0, 76, 59
1, 143760, Tempo, 486894
1, 143760, Note_on_c, 0, 76, 0
1, 143760, Note_on_c, 0, 77, 55
1, 143874, Control_c, 0, 64, 0
1, 144000, Tempo, 462927
1, 144000, Note_on_c, 0, 77, 0
1, 144000, Note_on_c, 0, 48, 0
1, 144000, Note_on_c, 0, 65, 0
1, 144000, Note_on_c, 0, 69, 0
1, 144000, Note_on_c, 0, 64, 50
1, 144000, Note_on_c, 0, 70, 57
1, 144000, Note_on_c, 0, 55, 47
1, 144042, Control_c, 0, 64, 127
1, 144360, Note_on_c, 0, 70, 0
1, 144360, Note_on_c, 0, 72, 52
1, 144480, Tempo, 456066
1, 144480, Note_on_c, 0, 72, 0
1, 144480, Note_on_c, 0, 55, 0
1, 144480, Note_on_c, 0, 76, 57
1, 144480, Note_on_c, 0, 48, 53
1, 144640, Note_on_c, 0, 76, 0
1, 144640, Note_on_c, 0, 74, 53
1, 144720, Tempo, 462927
1, 144800, Note_on_c, 0, 74, 0
1, 144800, Note_on_c, 0, 72, 53
1, 144896, Control_c, 0, 64, 0
1, 144960, Tempo, 469263
1, 144960, Note_on_c, 0, 72, 0
1, 144960, Note_on_c, 0, 70, 57
1, 144967, Control_c, 0, 64, 127
1, 145000, Tempo, 482393
1, 145200, Tempo, 491562
1, 145200, Note_on_c, 0, 70, 0
1, 145200, Note_on_c, 0, 72, 55
1, 145334, Control_c, 0, 64, 0
1, 145440, Tempo, 480154
1, 145440, Note_on_c, 0, 72, 0
1, 145440, Note_on_c, 0, 48, 0
1, 145440, Note_on_c, 0, 64, 0
1, 145440, Note_on_c, 0, 63, 42
1, 145440, Note_on_c, 0, 69, 48
1, 145440, Note_on_c, 0, 54, 42
1, 145733, Control_c, 0, 64, 127
1, 145920, Tempo, 489237
1, 145920, Note_on_c, 0, 54, 0
1, 145920, Note_on_c, 0, 48, 39
1, 146187, Control_c, 0, 64, 0
1, 146533, Control_c, 0, 64, 127
1, 146667, Control_c, 0, 64, 0
1, 146880, Tempo, 479118
1, 146880, Note_on_c, 0, 48, 0
1, 146880, Note_on_c, 0, 69, 0
1, 146880, Note_on_c, 0, 63, 0
1, 146880, Note_on_c, 0, 69, 52
1, 146880, Note_on_c, 0, 62, 55
1, 146880, Note_on_c, 0, 46, 53
1, 146922, Control_c, 0, 64, 127
1, 147240, Note_on_c, 0, 62, 0
1, 147240, Note_on_c, 0, 64, 53
1, 147360, Tempo, 464720
1, 147360, Note_on_c, 0, 64, 0
1, 147360, Note_on_c, 0, 46, 0
1, 147360, Note_on_c, 0, 69, 0
1, 147360, Note_on_c, 0, 67, 57
1, 147360, Note_on_c, 0, 58, 60
1, 147520, Note_on_c, 0, 65, 53
1, 147680, Note_on_c, 0, 65, 0
1, 147680, Note_on_c, 0, 64, 50
1, 147776, Control_c, 0, 64, 0
1, 147840, Tempo, 468238
1, 147840, Note_on_c, 0, 64, 0
1, 147840, Note_on_c, 0, 67, 0
1, 147840, Note_on_c, 0, 74, 60
1, 147840, Note_on_c, 0, 62, 53
1, 147847, Control_c, 0, 64, 127
1, 148080, Tempo, 469190
1, 148080, Note_on_c, 0, 62, 0
1, 148080, Note_on_c, 0, 64, 50
1, 148214, Control_c, 0, 64, 0
1, 148320, Tempo, 459524
1, 148320, Note_on_c, 0, 64, 0
1, 148320, Note_on_c, 0, 58, 0
1, 148320, Note_on_c, 0, 57, 47
1, 148320, Note_on_c, 0, 65, 47
1, 148320, Note_on_c, 0, 60, 53
1, 148320, Note_on_c, 0, 57, 44
1, 148343, Control_c, 0, 64, 127
1, 148560, Tempo, 465008
1, 148560, Note_on_c, 0, 60, 0
1, 148560, Note_on_c, 0, 62, 48
1, 148740, Control_c, 0, 64, 0
1, 148800, Tempo, 459524
1, 148800, Note_on_c, 0, 62, 0
1, 148800, Note_on_c, 0, 74, 0
1, 148800, Note_on_c, 0, 65, 60
1, 148800, Note_on_c, 0, 60, 56
1, 148823, Control_c, 0, 64, 127
1, 149040, Tempo, 469190
1, 149040, Note_on_c, 0, 60, 0
1, 149040, Note_on_c, 0, 62, 50
1, 149280, Tempo, 467108
1, 149280, Note_on_c, 0, 62, 0
1, 149280, Note_on_c, 0, 65, 0
1, 149280, Note_on_c, 0, 72, 60
1, 149280, Note_on_c, 0, 64, 56
1, 149520, Tempo, 486894
1, 149520, Note_on_c, 0, 64, 0
1, 149520, Note_on_c, 0, 65, 51
1, 149634, Control_c, 0, 64, 0
1, 149760, Tempo, 466490
1, 149760, Note_on_c, 0, 65, 0
1, 149760, Note_on_c, 0, 57, 0
1, 149760, Note_on_c, 0, 57, 0
1, 149760, Note_on_c, 0, 65, 0
1, 149760, Note_on_c, 0, 58, 53
1, 149760, Note_on_c, 0, 55, 47
1, 149802, Control_c, 0, 64, 127
1, 150120, Note_on_c, 0, 58, 0
1, 150120, Note_on_c, 0, 60, 49
1, 150240, Tempo, 459524
1, 150240, Note_on_c, 0, 60, 0
1, 150240, Note_on_c, 0, 72, 0
1, 150240, Note_on_c, 0, 70, 60
1, 150240, Note_on_c, 0, 64, 53
1, 150400, Note_on_c, 0, 64, 0
1, 150400, Note_on_c, 0, 62, 50
1, 150480, Tempo, 468238
1, 150560, Note_on_c, 0, 62, 0
1, 150560, Note_on_c, 0, 60, 50
1, 150656, Control_c, 0, 64, 0
1, 150720, Tempo, 469263
1, 150720, Note_on_c, 0, 60, 0
1, 150720, Note_on_c, 0, 70, 0
1, 150720, Note_on_c, 0, 55, 0
1, 150720, Note_on_c, 0, 64, 60
1, 150720, Note_on_c, 0, 72, 60
1, 150720, Note_on_c, 0, 58, 49
1, 150720, Note_on_c, 0, 48, 47
1, 150727, Control_c, 0, 64, 127
1, 150760, Tempo, 482393
1, 150960, Tempo, 491562
1, 150960, Note_on_c, 0, 58, 0
1, 150960, Note_on_c, 0, 60, 47
1, 151094, Control_c, 0, 64, 0
1, 151200, Tempo, 470035
1, 151200, Note_on_c, 0, 60, 0
1, 151200, Note_on_c, 0, 48, 0
1, 151200, Note_on_c, 0, 72, 0
1, 151200, Note_on_c, 0, 64, 0
1, 151200, Note_on_c, 0, 65, 42
1, 151200, Note_on_c, 0, 72, 48
1, 151200, Note_on_c, 0, 58, 46
1, 151200, Note_on_c, 0, 53, 46
1, 151440, Tempo, 479118
1, 151440, Note_on_c, 0, 58, 0
1, 151440, Note_on_c, 0, 57, 41
1, 151493, Control_c, 0, 64, 127
1, 151680, Tempo, 489237
1, 151680, Note_on_c, 0, 57, 0
1, 151680, Note_on_c, 0, 55, 45
1, 151920, Note_on_c, 0, 55, 0
1, 151920, Note_on_c, 0, 57, 40
1, 152061, Control_c, 0, 64, 0
1, 152160, Note_on_c, 0, 57, 0
1, 152160, Note_on_c, 0, 53, 0
1, 152160, Control_c, 0, 64, 127
1, 152160, Note_on_c, 0, 55, 40
1, 152400, Note_on_c, 0, 55, 0
1, 152400, Note_on_c, 0, 53, 40
1, 152427, Control_c, 0, 64, 0
1, 152640, Tempo, 471809
1, 152640, Note_on_c, 0, 53, 0
1, 152640, Note_on_c, 0, 72, 0
1, 152640, Note_on_c, 0, 65, 0
1, 152640, Note_on_c, 0, 79, 57
1, 152640, Note_on_c, 0, 75, 47
1, 152682, Control_c, 0, 64, 127
1, 153000, Note_on_c, 0, 79, 0
1, 153000, Note_on_c, 0, 81, 52
1, 153120, Tempo, 456066
1, 153120, Note_on_c, 0, 81, 0
1, 153120, Note_on_c, 0, 84, 57
1, 153120, Note_on_c, 0, 65, 42
1, 153280, Note_on_c, 0, 84, 0
1, 153280, Note_on_c, 0, 82, 53
1, 153440, Note_on_c, 0, 82, 0
1, 153440, Note_on_c, 0, 81, 53
1, 153536, Control_c, 0, 64, 0
1, 153600, Tempo, 462927
1, 153600, Note_on_c, 0, 81, 0
1, 153600, Note_on_c, 0, 79, 57
1, 153607, Control_c, 0, 64, 127
1, 153840, Tempo, 469190
1, 153840, Note_on_c, 0, 79, 0
1, 153840, Note_on_c, 0, 81, 55
1, 153974, Control_c, 0, 64, 0
1, 154080, Tempo, 454752
1, 154080, Note_on_c, 0, 81, 0
1, 154080, Note_on_c, 0, 75, 0
1, 154080, Note_on_c, 0, 77, 57
1, 154080, Note_on_c, 0, 75, 44
1, 154103, Control_c, 0, 64, 127
1, 154320, Tempo, 465008
1, 154320, Note_on_c, 0, 77, 0
1, 154320, Note_on_c, 0, 79, 51
1, 154500, Control_c, 0, 64, 0
1, 154560, Tempo, 456760
1, 154560, Note_on_c, 0, 79, 0
1, 154560, Note_on_c, 0, 75, 0
1, 154560, Note_on_c, 0, 77, 59
1, 154560, Note_on_c, 0, 74, 51
1, 154583, Control_c, 0, 64, 127
1, 154800, Tempo, 469190
1, 154800, Note_on_c, 0, 77, 0
1, 154800, Note_on_c, 0, 79, 53
1, 155040, Tempo, 467108
1, 155040, Note_on_c, 0, 79, 0
1, 155040, Note_on_c, 0, 65, 0
1, 155040, Note_on_c, 0, 81, 59
1, 155040, Note_on_c, 0, 65, 42
1, 155280, Tempo, 486894
1, 155280, Note_on_c, 0, 81, 0
1, 155280, Note_on_c, 0, 82, 55
1, 155394, Control_c, 0, 64, 0
1, 155520, Tempo, 466490
1, 155520, Note_on_c, 0, 82, 0
1, 155520, Note_on_c, 0, 74, 0
1, 155520, Note_on_c, 0, 74, 57
1, 155520, Note_on_c, 0, 70, 47
1, 155562, Control_c, 0, 64, 127
1, 155880, Note_on_c, 0, 74, 0
1, 155880, Note_on_c, 0, 76, 52
1, 156000, Tempo, 459524
1, 156000, Note_on_c, 0, 76, 0
1, 156000, Note_on_c, 0, 65, 0
1, 156000, Note_on_c, 0, 79, 57
1, 156000, Note_on_c, 0, 65, 42
1, 156160, Note_on_c, 0, 79, 0
1, 156160, Note_on_c, 0, 77, 53
1, 156240, Tempo, 466490
1, 156320, Note_on_c, 0, 77, 0
1, 156320, Note_on_c, 0, 76, 53
1, 156416, Control_c, 0, 64, 0
1, 156480, Tempo, 469263
1, 156480, Note_on_c, 0, 76, 0
1, 156480, Note_on_c, 0, 74, 57
1, 156487, Control_c, 0, 64, 127
1, 156520, Tempo, 482393
1, 156720, Tempo, 491562
1, 156720, Note_on_c, 0, 74, 0
1, 156720, Note_on_c, 0, 76, 55
1, 156854, Control_c, 0, 64, 0
1, 156960, Tempo, 464720
1, 156960, Note_on_c, 0, 76, 0
1, 156960, Note_on_c, 0, 70, 0
1, 156960, Note_on_c, 0, 72, 57
1, 156960, Note_on_c, 0, 77, 57
1, 156960, Note_on_c, 0, 70, 48
1, 157200, Tempo, 471809
1, 157200, Note_on_c, 0, 70, 0
1, 157200, Note_on_c, 0, 69, 42
1, 157253, Control_c, 0, 64, 127
1, 157440, Tempo, 466490
1, 157440, Note_on_c, 0, 69, 0
1, 157440, Note_on_c, 0, 67, 46
1, 157680, Tempo, 479118
1, 157680, Note_on_c, 0, 67, 0
1, 157680, Note_on_c, 0, 69, 41
1, 157920, Tempo, 471809
1, 157920, Note_on_c, 0, 69, 0
1, 157920, Note_on_c, 0, 65, 0
1, 157920, Control_c, 0, 64, 0
1, 157920, Note_on_c, 0, 67, 41
1, 158053, Control_c, 0, 64, 127
1, 158160, Note_on_c, 0, 67, 0
1, 158160, Note_on_c, 0, 65, 38
1, 158187, Control_c, 0, 64, 0
1, 158400, Tempo, 462999
1, 158400, Note_on_c, 0, 65, 0
1, 158400, Note_on_c, 0, 77, 0
1, 158400, Note_on_c, 0, 72, 0
1, 158400, Note_on_c, 0, 65, 50
1, 158400, Note_on_c, 0, 70, 50
1, 158400, Note_on_c, 0, 77, 57
1, 158400, Note_on_c, 0, 63, 44
1, 158520, Control_c, 0, 64, 127
1, 158640, Tempo, 473634
1, 158640, Note_on_c, 0, 63, 0
1, 158640, Note_on_c, 0, 62, 39
1, 158880, Tempo, 464720
1, 158880, Note_on_c, 0, 62, 0
1, 158880, Note_on_c, 0, 60, 42
1, 159120, Tempo, 479118
1, 159120, Note_on_c, 0, 60, 0
1, 159120, Note_on_c, 0, 62, 38
1, 159360, Tempo, 471809
1, 159360, Note_on_c, 0, 62, 0
1, 159360, Control_c, 0, 64, 0
1, 159360, Note_on_c, 0, 60, 38
1, 159493, Control_c, 0, 64, 127
1, 159600, Note_on_c, 0, 60, 0
1, 159600, Note_on_c, 0, 58, 35
1, 159627, Control_c, 0, 64, 0
1, 159840, Tempo, 462999
1, 159840, Note_on_c, 0, 58, 0
1, 159840, Note_on_c, 0, 77, 0
1, 159840, Note_on_c, 0, 70, 0
1, 159840, Note_on_c, 0, 65, 0
1, 159840, Note_on_c, 0, 84, 57
1, 159840, Note_on_c, 0, 72, 50
1, 159840, Note_on_c, 0, 77, 50
1, 159840, Note_on_c, 0, 58, 44
1, 159900, Control_c, 0, 64, 127
1, 160080, Tempo, 471809
1, 160080, Note_on_c, 0, 58, 0
1, 160080, Note_on_c, 0, 57, 39
1, 160320, Tempo, 464720
1, 160320, Note_on_c, 0, 57, 0
1, 160320, Note_on_c, 0, 55, 41
1, 160560, Tempo, 473634
1, 160560, Note_on_c, 0, 55, 0
1, 160560, Note_on_c, 0, 57, 37
1, 160800, Tempo, 471809
1, 160800, Note_on_c, 0, 57, 0
1, 160800, Control_c, 0, 64, 0
1, 160800, Note_on_c, 0, 55, 37
1, 160933, Control_c, 0, 64, 127
1, 161040, Note_on_c, 0, 55, 0
1, 161040, Note_on_c, 0, 53, 34
1, 161067, Control_c, 0, 64, 0
1, 161280, Tempo, 464720
1, 161280, Note_on_c, 0, 53, 0
1, 161280, Note_on_c, 0, 77, 0
1, 161280, Note_on_c, 0, 72, 0
1, 161280, Note_on_c, 0, 84, 0
1, 161280, Note_on_c, 0, 89, 56
1, 161280, Note_on_c, 0, 82, 49
1, 161280, Note_on_c, 0, 77, 49
1, 161280, Note_on_c, 0, 51, 41
1, 161340, Control_c, 0, 64, 127
1, 161520, Tempo, 471809
1, 161520, Note_on_c, 0, 51, 0
1, 161520, Note_on_c, 0, 50, 37
1, 161760, Tempo, 471809
1, 161760, Note_on_c, 0, 50, 0
1, 161760, Note_on_c, 0, 48, 40
1, 161800, Tempo, 466490
1, 162000, Tempo, 479118
1, 162000, Note_on_c, 0, 48, 0
1, 162000, Note_on_c, 0, 50, 36
1, 162240, Tempo, 470035
1, 162240, Note_on_c, 0, 50, 0
1, 162240, Control_c, 0, 64, 0
1, 162240, Note_on_c, 0, 48, 36
1, 162373, Control_c, 0, 64, 127
1, 162480, Note_on_c, 0, 48, 0
1, 162480, Note_on_c, 0, 46, 33
1, 162507, Control_c, 0, 64, 0
1, 162720, Tempo, 464720
1, 162720, Note_on_c, 0, 46, 0
1, 162720, Note_on_c, 0, 77, 0
1, 162720, Note_on_c, 0, 82, 0
1, 162720, Note_on_c, 0, 89, 0
1, 162720, Note_on_c, 0, 96, 55
1, 162720, Note_on_c, 0, 89, 49
1, 162720, Note_on_c, 0, 84, 49
1, 162720, Note_on_c, 0, 46, 40
1, 162960, Tempo, 473634
1, 162960, Note_on_c, 0, 46, 0
1, 162960, Note_on_c, 0, 45, 36
1, 163013, Control_c, 0, 64, 127
1, 163200, Tempo, 466490
1, 163200, Note_on_c, 0, 45, 0
1, 163200, Note_on_c, 0, 43, 39
1, 163440, Tempo, 479118
1, 163440, Note_on_c, 0, 43, 0
1, 163440, Note_on_c, 0, 45, 35
1, 163680, Note_on_c, 0, 45, 0
1, 163680, Control_c, 0, 64, 0
1, 163680, Note_on_c, 0, 43, 35
1, 163813, Control_c, 0, 64, 127
1, 163920, Note_on_c, 0, 43, 0
1, 163920, Note_on_c, 0, 41, 31
1, 163947, Control_c, 0, 64, 0
1, 164160, Tempo, 533333
1, 164160, Note_on_c, 0, 41, 0
1, 164160, Control_c, 0, 64, 127
1, 164160, Note_on_c, 0, 41, 34
1, 164640, Note_on_c, 0, 41, 0
1, 164640, Note_on_c, 0, 96, 0
1, 164640, Note_on_c, 0, 89, 0
1, 164640, Note_on_c, 0, 84, 0
1, 164640, Note_on_c, 0, 29, 20
1, 164880, Note_on_c, 0, 29, 0
1, 165120, Tempo, 533333
1, 165120, Note_on_c, 0, 29, 19
1, 165360, Note_on_c, 0, 29, 0
1, 165600, Note_on_c, 0, 29, 19
1, 165840, Note_on_c, 0, 29, 0
1, 165953, Marker_t, "Fine"
1, 165953, Control_c, 0, 64, 0
1, 168480, Tempo, 600000
1, 168480, End_track
0, 0, End_of_file
