0, 0, Header, 1, 5, 480
1, 0, Start_track
1, 0, Title_t, "tchaikovsky nutcracker act1 1 scene"
1, 0, Copyright_t, "Adaptation for Disklavier pianos, by: Robert C. Kuhmann (c) 2012."
1, 0, Text_t, "Seq. (c) by: Segundo G. Yogore,  2007\012"
1, 0, Time_signature, 4, 2, 24, 8
1, 0, Key_signature, 2, "major"
1, 0, Tempo, 476190
1, 75840, Tempo, 526316
1, 122880, Tempo, 476190
1, 137280, Tempo, 571429
1, 157440, Time_signature, 6, 3, 12, 8
1, 157440, Key_signature, 3, "major"
1, 157440, Tempo, 333333
1, 206400, Tempo, 400000
1, 230880, Time_signature, 8, 2, 24, 8
1, 230880, End_track
2, 0, Start_track
2, 0, Title_t, "Grand Piano"
2, 0, Program_c, 0, 0
2, 0, Control_c, 0, 7, 115
2, 0, Control_c, 0, 10, 86
2, 3840, Note_on_c, 0, 81, 72
2, 4560, Note_on_c, 0, 81, 0
2, 4560, Note_on_c, 0, 78, 72
2, 4680, Note_on_c, 0, 78, 0
2, 4680, Note_on_c, 0, 74, 72
2, 4800, Note_on_c, 0, 74, 0
2, 4800, Note_on_c, 0, 81, 72
2, 5520, Note_on_c, 0, 81, 0
2, 5520, Note_on_c, 0, 78, 72
2, 5640, Note_on_c, 0, 78, 0
2, 5640, Note_on_c, 0, 75, 72
2, 5760, Note_on_c, 0, 75, 0
2, 5760, Note_on_c, 0, 81, 72
2, 6480, Note_on_c, 0, 81, 0
2, 6480, Note_on_c, 0, 79, 72
2, 6600, Note_on_c, 0, 79, 0
2, 6600, Note_on_c, 0, 76, 72
2, 6720, Note_on_c, 0, 76, 0
2, 6720, Note_on_c, 0, 81, 72
2, 7440, Note_on_c, 0, 81, 0
2, 7440, Note_on_c, 0, 78, 72
2, 7560, Note_on_c, 0, 78, 0
2, 7560, Note_on_c, 0, 76, 72
2, 7680, Note_on_c, 0, 76, 0
2, 7680, Note_on_c, 0, 74, 72
2, 8400, Note_on_c, 0, 74, 0
2, 8400, Note_on_c, 0, 76, 72
2, 8520, Note_on_c, 0, 76, 0
2, 8520, Note_on_c, 0, 78, 72
2, 8640, Note_on_c, 0, 78, 0
2, 8640, Note_on_c, 0, 71, 72
2, 9360, Note_on_c, 0, 71, 0
2, 9360, Note_on_c, 0, 74, 72
2, 9480, Note_on_c, 0, 74, 0
2, 9480, Note_on_c, 0, 78, 72
2, 9600, Note_on_c, 0, 78, 0
2, 9600, Note_on_c, 0, 70, 72
2, 10320, Note_on_c, 0, 70, 0
2, 10320, Note_on_c, 0, 74, 72
2, 10440, Note_on_c, 0, 74, 0
2, 10440, Note_on_c, 0, 78, 72
2, 10560, Note_on_c, 0, 78, 0
2, 10560, Control_c, 0, 64, 127
2, 10560, Note_on_c, 0, 76, 72
2, 10680, Note_on_c, 0, 76, 0
2, 10680, Note_on_c, 0, 78, 72
2, 10800, Note_on_c, 0, 78, 0
2, 10800, Note_on_c, 0, 76, 72
2, 10920, Note_on_c, 0, 76, 0
2, 10920, Note_on_c, 0, 74, 72
2, 11040, Note_on_c, 0, 74, 0
2, 11040, Note_on_c, 0, 71, 72
2, 11160, Note_on_c, 0, 71, 0
2, 11160, Note_on_c, 0, 73, 72
2, 11280, Note_on_c, 0, 73, 0
2, 11280, Note_on_c, 0, 71, 72
2, 11400, Note_on_c, 0, 71, 0
2, 11400, Control_c, 0, 64, 0
2, 11400, Note_on_c, 0, 69, 72
2, 11520, Note_on_c, 0, 69, 0
2, 11520, Note_on_c, 0, 81, 72
2, 12240, Note_on_c, 0, 81, 0
2, 12240, Note_on_c, 0, 78, 72
2, 12360, Note_on_c, 0, 78, 0
2, 12360, Note_on_c, 0, 74, 72
2, 12480, Note_on_c, 0, 74, 0
2, 12480, Note_on_c, 0, 81, 72
2, 13200, Note_on_c, 0, 81, 0
2, 13200, Note_on_c, 0, 78, 72
2, 13320, Note_on_c, 0, 78, 0
2, 13320, Note_on_c, 0, 75, 72
2, 13440, Note_on_c, 0, 75, 0
2, 13440, Note_on_c, 0, 81, 72
2, 14160, Note_on_c, 0, 81, 0
2, 14160, Note_on_c, 0, 79, 72
2, 14280, Note_on_c, 0, 79, 0
2, 14280, Note_on_c, 0, 76, 72
2, 14400, Note_on_c, 0, 76, 0
2, 14400, Note_on_c, 0, 81, 72
2, 15120, Note_on_c, 0, 81, 0
2, 15120, Note_on_c, 0, 78, 72
2, 15240, Note_on_c, 0, 78, 0
2, 15240, Note_on_c, 0, 76, 72
2, 15360, Note_on_c, 0, 76, 0
2, 15360, Note_on_c, 0, 74, 72
2, 16080, Note_on_c, 0, 74, 0
2, 16080, Note_on_c, 0, 76, 72
2, 16200, Note_on_c, 0, 76, 0
2, 16200, Note_on_c, 0, 78, 72
2, 16320, Note_on_c, 0, 78, 0
2, 16320, Note_on_c, 0, 68, 72
2, 17040, Note_on_c, 0, 68, 0
2, 17040, Note_on_c, 0, 74, 72
2, 17160, Note_on_c, 0, 74, 0
2, 17160, Note_on_c, 0, 78, 72
2, 17280, Note_on_c, 0, 78, 0
2, 17280, Note_on_c, 0, 69, 72
2, 18000, Note_on_c, 0, 69, 0
2, 18000, Note_on_c, 0, 74, 72
2, 18120, Note_on_c, 0, 74, 0
2, 18120, Note_on_c, 0, 78, 72
2, 18240, Note_on_c, 0, 78, 0
2, 18240, Note_on_c, 0, 71, 72
2, 18360, Note_on_c, 0, 71, 0
2, 18360, Note_on_c, 0, 74, 72
2, 18480, Note_on_c, 0, 74, 0
2, 18480, Note_on_c, 0, 78, 72
2, 18600, Note_on_c, 0, 78, 0
2, 18600, Note_on_c, 0, 76, 72
2, 18720, Note_on_c, 0, 76, 0
2, 18720, Note_on_c, 0, 78, 72
2, 18840, Note_on_c, 0, 78, 0
2, 18840, Note_on_c, 0, 76, 72
2, 18960, Note_on_c, 0, 76, 0
2, 18960, Note_on_c, 0, 73, 72
2, 19080, Note_on_c, 0, 73, 0
2, 19080, Note_on_c, 0, 69, 72
2, 19200, Note_on_c, 0, 69, 0
2, 19200, Note_on_c, 0, 81, 72
2, 19920, Note_on_c, 0, 81, 0
2, 19920, Note_on_c, 0, 78, 72
2, 20040, Note_on_c, 0, 78, 0
2, 20040, Note_on_c, 0, 74, 72
2, 20160, Note_on_c, 0, 74, 0
2, 20160, Note_on_c, 0, 81, 72
2, 20880, Note_on_c, 0, 81, 0
2, 20880, Note_on_c, 0, 78, 72
2, 21000, Note_on_c, 0, 78, 0
2, 21000, Note_on_c, 0, 75, 72
2, 21120, Note_on_c, 0, 75, 0
2, 21120, Note_on_c, 0, 81, 72
2, 21840, Note_on_c, 0, 81, 0
2, 21840, Note_on_c, 0, 79, 72
2, 21960, Note_on_c, 0, 79, 0
2, 21960, Note_on_c, 0, 76, 72
2, 22080, Note_on_c, 0, 76, 0
2, 22080, Note_on_c, 0, 81, 72
2, 22800, Note_on_c, 0, 81, 0
2, 22800, Note_on_c, 0, 78, 72
2, 22920, Note_on_c, 0, 78, 0
2, 22920, Note_on_c, 0, 76, 72
2, 23040, Note_on_c, 0, 76, 0
2, 23040, Note_on_c, 0, 74, 72
2, 23760, Note_on_c, 0, 74, 0
2, 23760, Note_on_c, 0, 76, 72
2, 23880, Note_on_c, 0, 76, 0
2, 23880, Note_on_c, 0, 78, 72
2, 24000, Note_on_c, 0, 78, 0
2, 24000, Note_on_c, 0, 71, 72
2, 24720, Note_on_c, 0, 71, 0
2, 24720, Note_on_c, 0, 74, 72
2, 24840, Note_on_c, 0, 74, 0
2, 24840, Note_on_c, 0, 78, 72
2, 24960, Note_on_c, 0, 78, 0
2, 24960, Note_on_c, 0, 70, 72
2, 25680, Note_on_c, 0, 70, 0
2, 25680, Note_on_c, 0, 74, 72
2, 25800, Note_on_c, 0, 74, 0
2, 25800, Note_on_c, 0, 78, 72
2, 25920, Note_on_c, 0, 78, 0
2, 25920, Control_c, 0, 64, 127
2, 25920, Note_on_c, 0, 76, 72
2, 26040, Note_on_c, 0, 76, 0
2, 26040, Note_on_c, 0, 78, 72
2, 26160, Note_on_c, 0, 78, 0
2, 26160, Note_on_c, 0, 76, 72
2, 26280, Note_on_c, 0, 76, 0
2, 26280, Note_on_c, 0, 74, 72
2, 26400, Note_on_c, 0, 74, 0
2, 26400, Note_on_c, 0, 71, 72
2, 26520, Note_on_c, 0, 71, 0
2, 26520, Note_on_c, 0, 73, 72
2, 26640, Note_on_c, 0, 73, 0
2, 26640, Note_on_c, 0, 71, 72
2, 26760, Note_on_c, 0, 71, 0
2, 26760, Control_c, 0, 64, 0
2, 26760, Note_on_c, 0, 69, 72
2, 26880, Note_on_c, 0, 69, 0
2, 26880, Note_on_c, 0, 81, 72
2, 27600, Note_on_c, 0, 81, 0
2, 27600, Note_on_c, 0, 78, 72
2, 27720, Note_on_c, 0, 78, 0
2, 27720, Note_on_c, 0, 74, 72
2, 27840, Note_on_c, 0, 74, 0
2, 27840, Note_on_c, 0, 81, 72
2, 28560, Note_on_c, 0, 81, 0
2, 28560, Note_on_c, 0, 78, 72
2, 28680, Note_on_c, 0, 78, 0
2, 28680, Note_on_c, 0, 75, 72
2, 28800, Note_on_c, 0, 75, 0
2, 28800, Note_on_c, 0, 81, 72
2, 29520, Note_on_c, 0, 81, 0
2, 29520, Note_on_c, 0, 79, 72
2, 29640, Note_on_c, 0, 79, 0
2, 29640, Note_on_c, 0, 76, 72
2, 29760, Note_on_c, 0, 76, 0
2, 29760, Note_on_c, 0, 81, 72
2, 30480, Note_on_c, 0, 81, 0
2, 30480, Note_on_c, 0, 78, 72
2, 30600, Note_on_c, 0, 78, 0
2, 30600, Note_on_c, 0, 76, 72
2, 30720, Note_on_c, 0, 76, 0
2, 30720, Note_on_c, 0, 74, 72
2, 31440, Note_on_c, 0, 74, 0
2, 31440, Note_on_c, 0, 76, 72
2, 31560, Note_on_c, 0, 76, 0
2, 31560, Note_on_c, 0, 78, 72
2, 31680, Note_on_c, 0, 78, 0
2, 31680, Note_on_c, 0, 71, 72
2, 32400, Note_on_c, 0, 71, 0
2, 32400, Note_on_c, 0, 74, 72
2, 32520, Note_on_c, 0, 74, 0
2, 32520, Note_on_c, 0, 78, 72
2, 32640, Note_on_c, 0, 78, 0
2, 32640, Control_c, 0, 64, 127
2, 32640, Note_on_c, 0, 70, 72
2, 33240, Note_on_c, 0, 70, 0
2, 33240, Note_on_c, 0, 74, 72
2, 33360, Note_on_c, 0, 74, 0
2, 33360, Note_on_c, 0, 78, 72
2, 33480, Note_on_c, 0, 78, 0
2, 33480, Note_on_c, 0, 76, 72
2, 33600, Note_on_c, 0, 76, 0
2, 33600, Control_c, 0, 64, 0
2, 33600, Note_on_c, 0, 74, 72
2, 33840, Note_on_c, 0, 74, 0
2, 34080, Control_c, 0, 64, 127
2, 34080, Note_on_c, 0, 61, 72
2, 34200, Note_on_c, 0, 61, 0
2, 34200, Note_on_c, 0, 62, 72
2, 34320, Note_on_c, 0, 62, 0
2, 34320, Note_on_c, 0, 64, 72
2, 34440, Note_on_c, 0, 64, 0
2, 34440, Control_c, 0, 64, 0
2, 34440, Note_on_c, 0, 66, 72
2, 34560, Note_on_c, 0, 66, 0
2, 34560, Note_on_c, 0, 67, 59
2, 34560, Note_on_c, 0, 70, 59
2, 35280, Note_on_c, 0, 70, 0
2, 35280, Note_on_c, 0, 67, 0
2, 35280, Note_on_c, 0, 69, 59
2, 35400, Note_on_c, 0, 69, 0
2, 35400, Note_on_c, 0, 67, 59
2, 35520, Note_on_c, 0, 67, 0
2, 35520, Note_on_c, 0, 67, 72
2, 35520, Note_on_c, 0, 70, 72
2, 36240, Note_on_c, 0, 70, 0
2, 36240, Note_on_c, 0, 67, 0
2, 36240, Note_on_c, 0, 69, 72
2, 36360, Note_on_c, 0, 69, 0
2, 36360, Note_on_c, 0, 67, 72
2, 36480, Note_on_c, 0, 67, 0
2, 36480, Note_on_c, 0, 67, 85
2, 36480, Note_on_c, 0, 70, 85
2, 37200, Note_on_c, 0, 70, 0
2, 37200, Note_on_c, 0, 67, 0
2, 37200, Note_on_c, 0, 69, 85
2, 37320, Note_on_c, 0, 69, 0
2, 37320, Note_on_c, 0, 67, 85
2, 37440, Note_on_c, 0, 67, 0
2, 37440, Control_c, 0, 64, 127
2, 37440, Note_on_c, 0, 67, 98
2, 37440, Note_on_c, 0, 71, 98
2, 37560, Note_on_c, 0, 71, 0
2, 37560, Note_on_c, 0, 67, 0
2, 37560, Note_on_c, 0, 69, 98
2, 37680, Note_on_c, 0, 69, 0
2, 37680, Note_on_c, 0, 67, 98
2, 37800, Note_on_c, 0, 67, 0
2, 37800, Note_on_c, 0, 66, 98
2, 37920, Note_on_c, 0, 66, 0
2, 37920, Note_on_c, 0, 64, 85
2, 38040, Note_on_c, 0, 64, 0
2, 38040, Note_on_c, 0, 66, 85
2, 38160, Note_on_c, 0, 66, 0
2, 38160, Note_on_c, 0, 67, 85
2, 38280, Note_on_c, 0, 67, 0
2, 38280, Control_c, 0, 64, 0
2, 38280, Note_on_c, 0, 69, 85
2, 38400, Note_on_c, 0, 69, 0
2, 38400, Note_on_c, 0, 67, 59
2, 38400, Note_on_c, 0, 70, 59
2, 39120, Note_on_c, 0, 70, 0
2, 39120, Note_on_c, 0, 67, 0
2, 39120, Note_on_c, 0, 69, 59
2, 39240, Note_on_c, 0, 69, 0
2, 39240, Note_on_c, 0, 67, 59
2, 39360, Note_on_c, 0, 67, 0
2, 39360, Note_on_c, 0, 67, 72
2, 39360, Note_on_c, 0, 70, 72
2, 40080, Note_on_c, 0, 70, 0
2, 40080, Note_on_c, 0, 67, 0
2, 40080, Note_on_c, 0, 69, 72
2, 40200, Note_on_c, 0, 69, 0
2, 40200, Note_on_c, 0, 67, 72
2, 40320, Note_on_c, 0, 67, 0
2, 40320, Note_on_c, 0, 67, 85
2, 40320, Note_on_c, 0, 70, 85
2, 41040, Note_on_c, 0, 70, 0
2, 41040, Note_on_c, 0, 67, 0
2, 41040, Note_on_c, 0, 69, 85
2, 41160, Note_on_c, 0, 69, 0
2, 41160, Note_on_c, 0, 67, 85
2, 41280, Note_on_c, 0, 67, 0
2, 41280, Control_c, 0, 64, 127
2, 41280, Note_on_c, 0, 67, 98
2, 41280, Note_on_c, 0, 71, 98
2, 41400, Note_on_c, 0, 71, 0
2, 41400, Note_on_c, 0, 67, 0
2, 41400, Note_on_c, 0, 69, 98
2, 41520, Note_on_c, 0, 69, 0
2, 41520, Note_on_c, 0, 67, 98
2, 41640, Note_on_c, 0, 67, 0
2, 41640, Note_on_c, 0, 66, 98
2, 41760, Note_on_c, 0, 66, 0
2, 41760, Note_on_c, 0, 64, 85
2, 41880, Note_on_c, 0, 64, 0
2, 41880, Note_on_c, 0, 66, 85
2, 42000, Note_on_c, 0, 66, 0
2, 42000, Note_on_c, 0, 67, 85
2, 42120, Note_on_c, 0, 67, 0
2, 42120, Control_c, 0, 64, 0
2, 42120, Note_on_c, 0, 71, 85
2, 42240, Note_on_c, 0, 71, 0
2, 42240, Note_on_c, 0, 69, 59
2, 42240, Note_on_c, 0, 72, 59
2, 42960, Note_on_c, 0, 72, 0
2, 42960, Note_on_c, 0, 69, 0
2, 42960, Note_on_c, 0, 71, 59
2, 43080, Note_on_c, 0, 71, 0
2, 43080, Note_on_c, 0, 69, 59
2, 43200, Note_on_c, 0, 69, 0
2, 43200, Note_on_c, 0, 69, 72
2, 43200, Note_on_c, 0, 72, 72
2, 43920, Note_on_c, 0, 72, 0
2, 43920, Note_on_c, 0, 69, 0
2, 43920, Note_on_c, 0, 71, 72
2, 44040, Note_on_c, 0, 71, 0
2, 44040, Note_on_c, 0, 69, 72
2, 44160, Note_on_c, 0, 69, 0
2, 44160, Note_on_c, 0, 69, 85
2, 44160, Note_on_c, 0, 72, 85
2, 44880, Note_on_c, 0, 72, 0
2, 44880, Note_on_c, 0, 69, 0
2, 44880, Note_on_c, 0, 71, 85
2, 45000, Note_on_c, 0, 71, 0
2, 45000, Note_on_c, 0, 69, 85
2, 45120, Note_on_c, 0, 69, 0
2, 45120, Note_on_c, 0, 69, 98
2, 45120, Note_on_c, 0, 73, 98
2, 45240, Note_on_c, 0, 73, 0
2, 45240, Note_on_c, 0, 69, 0
2, 45240, Control_c, 0, 64, 127
2, 45240, Note_on_c, 0, 71, 98
2, 45360, Note_on_c, 0, 71, 0
2, 45360, Note_on_c, 0, 69, 98
2, 45480, Note_on_c, 0, 69, 0
2, 45480, Note_on_c, 0, 68, 98
2, 45600, Note_on_c, 0, 68, 0
2, 45600, Note_on_c, 0, 66, 85
2, 45720, Note_on_c, 0, 66, 0
2, 45720, Note_on_c, 0, 68, 85
2, 45840, Note_on_c, 0, 68, 0
2, 45840, Note_on_c, 0, 69, 85
2, 45960, Note_on_c, 0, 69, 0
2, 45960, Control_c, 0, 64, 0
2, 45960, Note_on_c, 0, 71, 85
2, 46080, Note_on_c, 0, 71, 0
2, 46080, Note_on_c, 0, 69, 59
2, 46080, Note_on_c, 0, 72, 59
2, 46800, Note_on_c, 0, 72, 0
2, 46800, Note_on_c, 0, 69, 0
2, 46800, Note_on_c, 0, 71, 59
2, 46920, Note_on_c, 0, 71, 0
2, 46920, Note_on_c, 0, 69, 59
2, 47040, Note_on_c, 0, 69, 0
2, 47040, Note_on_c, 0, 69, 72
2, 47040, Note_on_c, 0, 72, 72
2, 47760, Note_on_c, 0, 72, 0
2, 47760, Note_on_c, 0, 69, 0
2, 47760, Note_on_c, 0, 71, 72
2, 47880, Note_on_c, 0, 71, 0
2, 47880, Note_on_c, 0, 69, 72
2, 48000, Note_on_c, 0, 69, 0
2, 48000, Note_on_c, 0, 69, 85
2, 48000, Note_on_c, 0, 72, 85
2, 48720, Note_on_c, 0, 72, 0
2, 48720, Note_on_c, 0, 69, 0
2, 48720, Note_on_c, 0, 71, 85
2, 48840, Note_on_c, 0, 71, 0
2, 48840, Note_on_c, 0, 69, 85
2, 48960, Note_on_c, 0, 69, 0
2, 48960, Note_on_c, 0, 69, 98
2, 48960, Note_on_c, 0, 73, 98
2, 49080, Note_on_c, 0, 73, 0
2, 49080, Note_on_c, 0, 69, 0
2, 49080, Control_c, 0, 64, 127
2, 49080, Note_on_c, 0, 71, 98
2, 49200, Note_on_c, 0, 71, 0
2, 49200, Note_on_c, 0, 69, 98
2, 49320, Note_on_c, 0, 69, 0
2, 49320, Note_on_c, 0, 68, 98
2, 49440, Note_on_c, 0, 68, 0
2, 49440, Note_on_c, 0, 66, 98
2, 49560, Note_on_c, 0, 66, 0
2, 49560, Note_on_c, 0, 68, 98
2, 49680, Note_on_c, 0, 68, 0
2, 49680, Note_on_c, 0, 69, 98
2, 49800, Note_on_c, 0, 69, 0
2, 49800, Control_c, 0, 64, 0
2, 49800, Note_on_c, 0, 73, 98
2, 49920, Note_on_c, 0, 73, 0
2, 49920, Control_c, 0, 64, 127
2, 49920, Note_on_c, 0, 74, 98
2, 50040, Note_on_c, 0, 74, 0
2, 50040, Note_on_c, 0, 73, 98
2, 50160, Note_on_c, 0, 73, 0
2, 50160, Note_on_c, 0, 71, 98
2, 50280, Note_on_c, 0, 71, 0
2, 50280, Control_c, 0, 64, 0
2, 50280, Note_on_c, 0, 69, 98
2, 50400, Note_on_c, 0, 69, 0
2, 50400, Control_c, 0, 64, 127
2, 50400, Note_on_c, 0, 68, 98
2, 50520, Note_on_c, 0, 68, 0
2, 50520, Note_on_c, 0, 69, 98
2, 50640, Note_on_c, 0, 69, 0
2, 50640, Note_on_c, 0, 71, 98
2, 50760, Note_on_c, 0, 71, 0
2, 50760, Control_c, 0, 64, 0
2, 50760, Note_on_c, 0, 74, 98
2, 50880, Note_on_c, 0, 74, 0
2, 50880, Control_c, 0, 64, 127
2, 50880, Note_on_c, 0, 76, 98
2, 51000, Note_on_c, 0, 76, 0
2, 51000, Note_on_c, 0, 74, 98
2, 51120, Note_on_c, 0, 74, 0
2, 51120, Note_on_c, 0, 73, 98
2, 51240, Note_on_c, 0, 73, 0
2, 51240, Control_c, 0, 64, 0
2, 51240, Note_on_c, 0, 71, 98
2, 51360, Note_on_c, 0, 71, 0
2, 51360, Control_c, 0, 64, 127
2, 51360, Note_on_c, 0, 69, 98
2, 51480, Note_on_c, 0, 69, 0
2, 51480, Note_on_c, 0, 71, 98
2, 51600, Note_on_c, 0, 71, 0
2, 51600, Note_on_c, 0, 73, 98
2, 51720, Note_on_c, 0, 73, 0
2, 51720, Control_c, 0, 64, 0
2, 51720, Note_on_c, 0, 76, 98
2, 51840, Note_on_c, 0, 76, 0
2, 51840, Control_c, 0, 64, 127
2, 51840, Note_on_c, 0, 78, 98
2, 51960, Note_on_c, 0, 78, 0
2, 51960, Note_on_c, 0, 76, 98
2, 52080, Note_on_c, 0, 76, 0
2, 52080, Note_on_c, 0, 75, 98
2, 52200, Note_on_c, 0, 75, 0
2, 52200, Control_c, 0, 64, 0
2, 52200, Note_on_c, 0, 73, 98
2, 52320, Note_on_c, 0, 73, 0
2, 52320, Control_c, 0, 64, 127
2, 52320, Note_on_c, 0, 72, 98
2, 52440, Note_on_c, 0, 72, 0
2, 52440, Note_on_c, 0, 73, 98
2, 52560, Note_on_c, 0, 73, 0
2, 52560, Note_on_c, 0, 75, 98
2, 52680, Note_on_c, 0, 75, 0
2, 52680, Control_c, 0, 64, 0
2, 52680, Note_on_c, 0, 78, 98
2, 52800, Note_on_c, 0, 78, 0
2, 52800, Control_c, 0, 64, 127
2, 52800, Note_on_c, 0, 79, 98
2, 52920, Note_on_c, 0, 79, 0
2, 52920, Note_on_c, 0, 78, 98
2, 53040, Note_on_c, 0, 78, 0
2, 53040, Note_on_c, 0, 76, 98
2, 53160, Note_on_c, 0, 76, 0
2, 53160, Control_c, 0, 64, 0
2, 53160, Note_on_c, 0, 74, 98
2, 53280, Note_on_c, 0, 74, 0
2, 53280, Control_c, 0, 64, 127
2, 53280, Note_on_c, 0, 72, 98
2, 53400, Note_on_c, 0, 72, 0
2, 53400, Note_on_c, 0, 74, 98
2, 53520, Note_on_c, 0, 74, 0
2, 53520, Note_on_c, 0, 76, 98
2, 53640, Note_on_c, 0, 76, 0
2, 53640, Control_c, 0, 64, 0
2, 53640, Note_on_c, 0, 79, 98
2, 53760, Note_on_c, 0, 79, 0
2, 53760, Control_c, 0, 64, 127
2, 53760, Note_on_c, 0, 81, 111
2, 53880, Note_on_c, 0, 81, 0
2, 53880, Note_on_c, 0, 78, 111
2, 54000, Note_on_c, 0, 78, 0
2, 54000, Note_on_c, 0, 76, 111
2, 54120, Note_on_c, 0, 76, 0
2, 54120, Control_c, 0, 64, 0
2, 54120, Note_on_c, 0, 74, 111
2, 54240, Note_on_c, 0, 74, 0
2, 54240, Control_c, 0, 64, 127
2, 54240, Note_on_c, 0, 73, 111
2, 54360, Note_on_c, 0, 73, 0
2, 54360, Note_on_c, 0, 74, 111
2, 54480, Note_on_c, 0, 74, 0
2, 54480, Note_on_c, 0, 76, 111
2, 54600, Note_on_c, 0, 76, 0
2, 54600, Control_c, 0, 64, 0
2, 54600, Note_on_c, 0, 79, 111
2, 54720, Note_on_c, 0, 79, 0
2, 54720, Control_c, 0, 64, 127
2, 54720, Note_on_c, 0, 81, 111
2, 54840, Note_on_c, 0, 81, 0
2, 54840, Note_on_c, 0, 78, 111
2, 54960, Note_on_c, 0, 78, 0
2, 54960, Note_on_c, 0, 76, 111
2, 55080, Note_on_c, 0, 76, 0
2, 55080, Control_c, 0, 64, 0
2, 55080, Note_on_c, 0, 74, 111
2, 55200, Note_on_c, 0, 74, 0
2, 55200, Control_c, 0, 64, 127
2, 55200, Note_on_c, 0, 73, 111
2, 55320, Note_on_c, 0, 73, 0
2, 55320, Note_on_c, 0, 74, 111
2, 55440, Note_on_c, 0, 74, 0
2, 55440, Note_on_c, 0, 76, 111
2, 55560, Note_on_c, 0, 76, 0
2, 55560, Control_c, 0, 64, 0
2, 55560, Note_on_c, 0, 79, 111
2, 55680, Note_on_c, 0, 79, 0
2, 55680, Control_c, 0, 64, 127
2, 55680, Note_on_c, 0, 81, 111
2, 55800, Note_on_c, 0, 81, 0
2, 55800, Note_on_c, 0, 79, 111
2, 55920, Note_on_c, 0, 79, 0
2, 55920, Note_on_c, 0, 78, 111
2, 56040, Note_on_c, 0, 78, 0
2, 56040, Control_c, 0, 64, 0
2, 56040, Note_on_c, 0, 76, 111
2, 56160, Note_on_c, 0, 76, 0
2, 56160, Control_c, 0, 64, 127
2, 56160, Note_on_c, 0, 75, 111
2, 56280, Note_on_c, 0, 75, 0
2, 56280, Note_on_c, 0, 76, 111
2, 56400, Note_on_c, 0, 76, 0
2, 56400, Note_on_c, 0, 78, 111
2, 56520, Note_on_c, 0, 78, 0
2, 56520, Control_c, 0, 64, 0
2, 56520, Note_on_c, 0, 79, 111
2, 56640, Note_on_c, 0, 79, 0
2, 56640, Control_c, 0, 64, 127
2, 56640, Note_on_c, 0, 81, 111
2, 56760, Note_on_c, 0, 81, 0
2, 56760, Note_on_c, 0, 79, 111
2, 56880, Note_on_c, 0, 79, 0
2, 56880, Note_on_c, 0, 78, 111
2, 57000, Note_on_c, 0, 78, 0
2, 57000, Control_c, 0, 64, 0
2, 57000, Note_on_c, 0, 76, 111
2, 57120, Note_on_c, 0, 76, 0
2, 57120, Control_c, 0, 64, 127
2, 57120, Note_on_c, 0, 75, 111
2, 57240, Note_on_c, 0, 75, 0
2, 57240, Note_on_c, 0, 76, 111
2, 57360, Note_on_c, 0, 76, 0
2, 57360, Note_on_c, 0, 78, 111
2, 57480, Note_on_c, 0, 78, 0
2, 57480, Control_c, 0, 64, 0
2, 57480, Note_on_c, 0, 79, 111
2, 57600, Note_on_c, 0, 79, 0
2, 57600, Control_c, 0, 64, 127
2, 57600, Note_on_c, 0, 81, 111
2, 57720, Note_on_c, 0, 81, 0
2, 57720, Note_on_c, 0, 79, 111
2, 57840, Note_on_c, 0, 79, 0
2, 57840, Note_on_c, 0, 78, 111
2, 57960, Note_on_c, 0, 78, 0
2, 57960, Control_c, 0, 64, 0
2, 57960, Note_on_c, 0, 76, 111
2, 58080, Note_on_c, 0, 76, 0
2, 58080, Control_c, 0, 64, 127
2, 58080, Note_on_c, 0, 81, 111
2, 58200, Note_on_c, 0, 81, 0
2, 58200, Note_on_c, 0, 79, 111
2, 58320, Note_on_c, 0, 79, 0
2, 58320, Note_on_c, 0, 78, 111
2, 58440, Note_on_c, 0, 78, 0
2, 58440, Control_c, 0, 64, 0
2, 58440, Note_on_c, 0, 76, 111
2, 58560, Note_on_c, 0, 76, 0
2, 58560, Control_c, 0, 64, 127
2, 58560, Note_on_c, 0, 81, 111
2, 58680, Note_on_c, 0, 81, 0
2, 58680, Note_on_c, 0, 79, 111
2, 58800, Note_on_c, 0, 79, 0
2, 58800, Note_on_c, 0, 78, 111
2, 58920, Note_on_c, 0, 78, 0
2, 58920, Control_c, 0, 64, 0
2, 58920, Note_on_c, 0, 76, 111
2, 59040, Note_on_c, 0, 76, 0
2, 59040, Control_c, 0, 64, 127
2, 59040, Note_on_c, 0, 81, 111
2, 59160, Note_on_c, 0, 81, 0
2, 59160, Note_on_c, 0, 79, 111
2, 59280, Note_on_c, 0, 79, 0
2, 59280, Note_on_c, 0, 78, 111
2, 59400, Note_on_c, 0, 78, 0
2, 59400, Control_c, 0, 64, 0
2, 59400, Note_on_c, 0, 76, 111
2, 59520, Note_on_c, 0, 76, 0
2, 59520, Control_c, 0, 64, 127
2, 59520, Note_on_c, 0, 81, 111
2, 59640, Note_on_c, 0, 81, 0
2, 59640, Note_on_c, 0, 79, 111
2, 59760, Note_on_c, 0, 79, 0
2, 59760, Note_on_c, 0, 78, 111
2, 59880, Note_on_c, 0, 78, 0
2, 59880, Control_c, 0, 64, 0
2, 59880, Note_on_c, 0, 76, 111
2, 60000, Note_on_c, 0, 76, 0
2, 60000, Control_c, 0, 64, 127
2, 60000, Note_on_c, 0, 81, 111
2, 60120, Note_on_c, 0, 81, 0
2, 60120, Note_on_c, 0, 79, 111
2, 60240, Note_on_c, 0, 79, 0
2, 60240, Note_on_c, 0, 78, 111
2, 60360, Note_on_c, 0, 78, 0
2, 60360, Control_c, 0, 64, 0
2, 60360, Note_on_c, 0, 76, 111
2, 60480, Note_on_c, 0, 76, 0
2, 60480, Control_c, 0, 64, 127
2, 60480, Note_on_c, 0, 81, 111
2, 60600, Note_on_c, 0, 81, 0
2, 60600, Note_on_c, 0, 79, 111
2, 60720, Note_on_c, 0, 79, 0
2, 60720, Note_on_c, 0, 78, 111
2, 60840, Note_on_c, 0, 78, 0
2, 60840, Control_c, 0, 64, 0
2, 60840, Note_on_c, 0, 76, 111
2, 60960, Note_on_c, 0, 76, 0
2, 61080, Note_on_c, 0, 88, 111
2, 61200, Note_on_c, 0, 88, 0
2, 61200, Note_on_c, 0, 90, 111
2, 61320, Note_on_c, 0, 90, 0
2, 61320, Note_on_c, 0, 91, 111
2, 61440, Note_on_c, 0, 91, 0
2, 61440, Note_on_c, 0, 81, 98
2, 61440, Note_on_c, 0, 93, 98
2, 62160, Note_on_c, 0, 93, 0
2, 62160, Note_on_c, 0, 81, 0
2, 62160, Note_on_c, 0, 90, 98
2, 62280, Note_on_c, 0, 90, 0
2, 62280, Note_on_c, 0, 86, 98
2, 62400, Note_on_c, 0, 86, 0
2, 62400, Note_on_c, 0, 81, 98
2, 62400, Note_on_c, 0, 93, 98
2, 63120, Note_on_c, 0, 93, 0
2, 63120, Note_on_c, 0, 81, 0
2, 63120, Note_on_c, 0, 90, 98
2, 63240, Note_on_c, 0, 90, 0
2, 63240, Note_on_c, 0, 87, 98
2, 63360, Note_on_c, 0, 87, 0
2, 63360, Note_on_c, 0, 81, 98
2, 63360, Note_on_c, 0, 93, 98
2, 64080, Note_on_c, 0, 93, 0
2, 64080, Note_on_c, 0, 81, 0
2, 64080, Note_on_c, 0, 91, 98
2, 64200, Note_on_c, 0, 91, 0
2, 64200, Note_on_c, 0, 88, 98
2, 64320, Note_on_c, 0, 88, 0
2, 64320, Note_on_c, 0, 81, 98
2, 64320, Note_on_c, 0, 93, 98
2, 65040, Note_on_c, 0, 93, 0
2, 65040, Note_on_c, 0, 81, 0
2, 65040, Note_on_c, 0, 90, 98
2, 65160, Note_on_c, 0, 90, 0
2, 65160, Note_on_c, 0, 88, 98
2, 65280, Note_on_c, 0, 88, 0
2, 65280, Note_on_c, 0, 86, 98
2, 66000, Note_on_c, 0, 86, 0
2, 66000, Note_on_c, 0, 88, 98
2, 66120, Note_on_c, 0, 88, 0
2, 66120, Note_on_c, 0, 90, 98
2, 66240, Note_on_c, 0, 90, 0
2, 66240, Note_on_c, 0, 83, 98
2, 66960, Note_on_c, 0, 83, 0
2, 66960, Note_on_c, 0, 86, 98
2, 67080, Note_on_c, 0, 86, 0
2, 67080, Note_on_c, 0, 90, 98
2, 67200, Note_on_c, 0, 90, 0
2, 67200, Note_on_c, 0, 82, 98
2, 67920, Note_on_c, 0, 82, 0
2, 67920, Note_on_c, 0, 86, 98
2, 68040, Note_on_c, 0, 86, 0
2, 68040, Note_on_c, 0, 90, 98
2, 68160, Note_on_c, 0, 90, 0
2, 68160, Control_c, 0, 64, 127
2, 68160, Note_on_c, 0, 88, 98
2, 68280, Note_on_c, 0, 88, 0
2, 68280, Note_on_c, 0, 90, 98
2, 68400, Note_on_c, 0, 90, 0
2, 68400, Note_on_c, 0, 88, 98
2, 68520, Note_on_c, 0, 88, 0
2, 68520, Note_on_c, 0, 86, 98
2, 68640, Note_on_c, 0, 86, 0
2, 68640, Note_on_c, 0, 83, 98
2, 68760, Note_on_c, 0, 83, 0
2, 68760, Note_on_c, 0, 85, 98
2, 68880, Note_on_c, 0, 85, 0
2, 68880, Note_on_c, 0, 83, 98
2, 69000, Note_on_c, 0, 83, 0
2, 69000, Control_c, 0, 64, 0
2, 69000, Note_on_c, 0, 81, 98
2, 69120, Note_on_c, 0, 81, 0
2, 69120, Note_on_c, 0, 81, 98
2, 69120, Note_on_c, 0, 93, 98
2, 69840, Note_on_c, 0, 93, 0
2, 69840, Note_on_c, 0, 81, 0
2, 69840, Note_on_c, 0, 90, 98
2, 69960, Note_on_c, 0, 90, 0
2, 69960, Note_on_c, 0, 86, 98
2, 70080, Note_on_c, 0, 86, 0
2, 70080, Note_on_c, 0, 81, 98
2, 70080, Note_on_c, 0, 93, 98
2, 70800, Note_on_c, 0, 93, 0
2, 70800, Note_on_c, 0, 81, 0
2, 70800, Note_on_c, 0, 90, 98
2, 70920, Note_on_c, 0, 90, 0
2, 70920, Note_on_c, 0, 87, 98
2, 71040, Note_on_c, 0, 87, 0
2, 71040, Note_on_c, 0, 81, 98
2, 71040, Note_on_c, 0, 93, 98
2, 71760, Note_on_c, 0, 93, 0
2, 71760, Note_on_c, 0, 81, 0
2, 71760, Note_on_c, 0, 91, 98
2, 71880, Note_on_c, 0, 91, 0
2, 71880, Note_on_c, 0, 88, 98
2, 72000, Note_on_c, 0, 88, 0
2, 72000, Note_on_c, 0, 81, 98
2, 72000, Note_on_c, 0, 93, 98
2, 72720, Note_on_c, 0, 93, 0
2, 72720, Note_on_c, 0, 81, 0
2, 72720, Note_on_c, 0, 90, 98
2, 72840, Note_on_c, 0, 90, 0
2, 72840, Note_on_c, 0, 88, 98
2, 72960, Note_on_c, 0, 88, 0
2, 72960, Note_on_c, 0, 86, 98
2, 73680, Note_on_c, 0, 86, 0
2, 73680, Note_on_c, 0, 88, 98
2, 73800, Note_on_c, 0, 88, 0
2, 73800, Note_on_c, 0, 90, 98
2, 73920, Note_on_c, 0, 90, 0
2, 73920, Note_on_c, 0, 83, 98
2, 74640, Note_on_c, 0, 83, 0
2, 74640, Note_on_c, 0, 86, 98
2, 74760, Note_on_c, 0, 86, 0
2, 74760, Note_on_c, 0, 90, 98
2, 74880, Note_on_c, 0, 90, 0
2, 74880, Note_on_c, 0, 82, 98
2, 75480, Note_on_c, 0, 82, 0
2, 75480, Note_on_c, 0, 86, 98
2, 75600, Note_on_c, 0, 86, 0
2, 75600, Note_on_c, 0, 90, 98
2, 75720, Note_on_c, 0, 90, 0
2, 75720, Note_on_c, 0, 88, 98
2, 75840, Note_on_c, 0, 88, 0
2, 75840, Note_on_c, 0, 86, 98
2, 76080, Note_on_c, 0, 86, 0
2, 76080, Note_on_c, 0, 74, 72
2, 76200, Note_on_c, 0, 74, 0
2, 76200, Note_on_c, 0, 76, 72
2, 76320, Note_on_c, 0, 76, 0
2, 76320, Note_on_c, 0, 78, 72
2, 76560, Note_on_c, 0, 78, 0
2, 76560, Note_on_c, 0, 74, 72
2, 76607, Note_on_c, 0, 74, 0
2, 76800, Control_c, 0, 64, 127
2, 76800, Note_on_c, 0, 73, 72
2, 76860, Note_on_c, 0, 73, 0
2, 76860, Note_on_c, 0, 74, 72
2, 76920, Note_on_c, 0, 74, 0
2, 76920, Note_on_c, 0, 73, 72
2, 76980, Note_on_c, 0, 73, 0
2, 76980, Note_on_c, 0, 74, 72
2, 77040, Note_on_c, 0, 74, 0
2, 77040, Note_on_c, 0, 73, 72
2, 77120, Note_on_c, 0, 73, 0
2, 77120, Note_on_c, 0, 74, 72
2, 77199, Note_on_c, 0, 74, 0
2, 77199, Note_on_c, 0, 73, 72
2, 77280, Note_on_c, 0, 73, 0
2, 77280, Control_c, 0, 64, 0
2, 77280, Note_on_c, 0, 71, 72
2, 77520, Note_on_c, 0, 71, 0
2, 78000, Note_on_c, 0, 71, 72
2, 78120, Note_on_c, 0, 71, 0
2, 78120, Note_on_c, 0, 73, 72
2, 78240, Note_on_c, 0, 73, 0
2, 78240, Note_on_c, 0, 74, 72
2, 78480, Note_on_c, 0, 74, 0
2, 78480, Note_on_c, 0, 71, 72
2, 78527, Note_on_c, 0, 71, 0
2, 78720, Control_c, 0, 64, 127
2, 78720, Note_on_c, 0, 69, 72
2, 78780, Note_on_c, 0, 69, 0
2, 78780, Note_on_c, 0, 71, 72
2, 78840, Note_on_c, 0, 71, 0
2, 78840, Note_on_c, 0, 69, 72
2, 78900, Note_on_c, 0, 69, 0
2, 78900, Note_on_c, 0, 71, 72
2, 78960, Note_on_c, 0, 71, 0
2, 78960, Note_on_c, 0, 69, 72
2, 79040, Note_on_c, 0, 69, 0
2, 79040, Note_on_c, 0, 71, 72
2, 79119, Note_on_c, 0, 71, 0
2, 79119, Note_on_c, 0, 69, 72
2, 79200, Note_on_c, 0, 69, 0
2, 79200, Control_c, 0, 64, 0
2, 79200, Note_on_c, 0, 67, 72
2, 79440, Note_on_c, 0, 67, 0
2, 79920, Note_on_c, 0, 67, 72
2, 80040, Note_on_c, 0, 67, 0
2, 80040, Note_on_c, 0, 69, 72
2, 80160, Note_on_c, 0, 69, 0
2, 80160, Note_on_c, 0, 71, 72
2, 80400, Note_on_c, 0, 71, 0
2, 80400, Note_on_c, 0, 67, 72
2, 80447, Note_on_c, 0, 67, 0
2, 80640, Note_on_c, 0, 66, 59
2, 80720, Note_on_c, 0, 66, 0
2, 80720, Note_on_c, 0, 67, 59
2, 80799, Note_on_c, 0, 67, 0
2, 80799, Note_on_c, 0, 66, 59
2, 80880, Note_on_c, 0, 66, 0
2, 80880, Note_on_c, 0, 64, 59
2, 80927, Note_on_c, 0, 64, 0
2, 81120, Note_on_c, 0, 67, 72
2, 81200, Note_on_c, 0, 67, 0
2, 81200, Note_on_c, 0, 69, 72
2, 81279, Note_on_c, 0, 69, 0
2, 81279, Note_on_c, 0, 67, 72
2, 81360, Note_on_c, 0, 67, 0
2, 81360, Note_on_c, 0, 66, 72
2, 81407, Note_on_c, 0, 66, 0
2, 81600, Note_on_c, 0, 69, 72
2, 81680, Note_on_c, 0, 69, 0
2, 81680, Note_on_c, 0, 71, 72
2, 81759, Note_on_c, 0, 71, 0
2, 81759, Note_on_c, 0, 69, 72
2, 81840, Note_on_c, 0, 69, 0
2, 81840, Note_on_c, 0, 67, 72
2, 81887, Note_on_c, 0, 67, 0
2, 82080, Note_on_c, 0, 71, 85
2, 82160, Note_on_c, 0, 71, 0
2, 82160, Note_on_c, 0, 73, 85
2, 82239, Note_on_c, 0, 73, 0
2, 82239, Note_on_c, 0, 71, 85
2, 82320, Note_on_c, 0, 71, 0
2, 82320, Note_on_c, 0, 69, 85
2, 82367, Note_on_c, 0, 69, 0
2, 82560, Control_c, 0, 64, 127
2, 82560, Note_on_c, 0, 73, 85
2, 82656, Note_on_c, 0, 73, 0
2, 82656, Note_on_c, 0, 74, 85
2, 82752, Note_on_c, 0, 74, 0
2, 82752, Note_on_c, 0, 73, 85
2, 82847, Note_on_c, 0, 73, 0
2, 82847, Note_on_c, 0, 71, 85
2, 82943, Note_on_c, 0, 71, 0
2, 82943, Control_c, 0, 64, 0
2, 82943, Note_on_c, 0, 73, 85
2, 83040, Note_on_c, 0, 73, 0
2, 83040, Control_c, 0, 64, 127
2, 83040, Note_on_c, 0, 76, 85
2, 83160, Note_on_c, 0, 76, 0
2, 83160, Note_on_c, 0, 74, 85
2, 83280, Note_on_c, 0, 74, 0
2, 83280, Note_on_c, 0, 73, 72
2, 83400, Note_on_c, 0, 73, 0
2, 83400, Control_c, 0, 64, 0
2, 83400, Note_on_c, 0, 71, 72
2, 83520, Note_on_c, 0, 71, 0
2, 83520, Note_on_c, 0, 73, 72
2, 83543, Note_on_c, 0, 73, 0
2, 83640, Note_on_c, 0, 73, 72
2, 83760, Note_on_c, 0, 73, 0
2, 83760, Note_on_c, 0, 74, 72
2, 83880, Note_on_c, 0, 74, 0
2, 83880, Note_on_c, 0, 76, 72
2, 84000, Note_on_c, 0, 76, 0
2, 84000, Note_on_c, 0, 78, 72
2, 84240, Note_on_c, 0, 78, 0
2, 84240, Note_on_c, 0, 74, 72
2, 84287, Note_on_c, 0, 74, 0
2, 84480, Control_c, 0, 64, 127
2, 84480, Note_on_c, 0, 73, 72
2, 84540, Note_on_c, 0, 73, 0
2, 84540, Note_on_c, 0, 74, 72
2, 84600, Note_on_c, 0, 74, 0
2, 84600, Note_on_c, 0, 73, 72
2, 84660, Note_on_c, 0, 73, 0
2, 84660, Note_on_c, 0, 74, 72
2, 84720, Note_on_c, 0, 74, 0
2, 84720, Note_on_c, 0, 73, 72
2, 84800, Note_on_c, 0, 73, 0
2, 84800, Note_on_c, 0, 74, 72
2, 84879, Note_on_c, 0, 74, 0
2, 84879, Note_on_c, 0, 73, 72
2, 84960, Note_on_c, 0, 73, 0
2, 84960, Control_c, 0, 64, 0
2, 84960, Note_on_c, 0, 71, 72
2, 85200, Note_on_c, 0, 71, 0
2, 85560, Note_on_c, 0, 70, 72
2, 85680, Note_on_c, 0, 70, 0
2, 85680, Note_on_c, 0, 71, 72
2, 85800, Note_on_c, 0, 71, 0
2, 85800, Note_on_c, 0, 73, 72
2, 85920, Note_on_c, 0, 73, 0
2, 85920, Note_on_c, 0, 74, 72
2, 85967, Note_on_c, 0, 74, 0
2, 86160, Note_on_c, 0, 71, 72
2, 86207, Note_on_c, 0, 71, 0
2, 86400, Control_c, 0, 64, 127
2, 86400, Note_on_c, 0, 69, 72
2, 86460, Note_on_c, 0, 69, 0
2, 86460, Note_on_c, 0, 71, 72
2, 86520, Note_on_c, 0, 71, 0
2, 86520, Note_on_c, 0, 69, 72
2, 86580, Note_on_c, 0, 69, 0
2, 86580, Note_on_c, 0, 71, 72
2, 86640, Note_on_c, 0, 71, 0
2, 86640, Note_on_c, 0, 69, 72
2, 86720, Note_on_c, 0, 69, 0
2, 86720, Note_on_c, 0, 71, 72
2, 86799, Note_on_c, 0, 71, 0
2, 86799, Note_on_c, 0, 69, 72
2, 86880, Note_on_c, 0, 69, 0
2, 86880, Control_c, 0, 64, 0
2, 86880, Note_on_c, 0, 67, 72
2, 87120, Note_on_c, 0, 67, 0
2, 87480, Note_on_c, 0, 66, 72
2, 87600, Note_on_c, 0, 66, 0
2, 87600, Note_on_c, 0, 67, 72
2, 87720, Note_on_c, 0, 67, 0
2, 87720, Note_on_c, 0, 69, 72
2, 87840, Note_on_c, 0, 69, 0
2, 87840, Note_on_c, 0, 71, 72
2, 87887, Note_on_c, 0, 71, 0
2, 88080, Note_on_c, 0, 67, 72
2, 88127, Note_on_c, 0, 67, 0
2, 88320, Note_on_c, 0, 66, 59
2, 88400, Note_on_c, 0, 66, 0
2, 88400, Note_on_c, 0, 67, 59
2, 88479, Note_on_c, 0, 67, 0
2, 88479, Note_on_c, 0, 66, 59
2, 88560, Note_on_c, 0, 66, 0
2, 88560, Note_on_c, 0, 64, 59
2, 88607, Note_on_c, 0, 64, 0
2, 88800, Note_on_c, 0, 67, 72
2, 88880, Note_on_c, 0, 67, 0
2, 88880, Note_on_c, 0, 69, 72
2, 88959, Note_on_c, 0, 69, 0
2, 88959, Note_on_c, 0, 67, 72
2, 89040, Note_on_c, 0, 67, 0
2, 89040, Note_on_c, 0, 66, 72
2, 89087, Note_on_c, 0, 66, 0
2, 89280, Note_on_c, 0, 69, 72
2, 89360, Note_on_c, 0, 69, 0
2, 89360, Note_on_c, 0, 71, 72
2, 89439, Note_on_c, 0, 71, 0
2, 89439, Note_on_c, 0, 69, 72
2, 89520, Note_on_c, 0, 69, 0
2, 89520, Note_on_c, 0, 67, 72
2, 89567, Note_on_c, 0, 67, 0
2, 89760, Note_on_c, 0, 71, 85
2, 89840, Note_on_c, 0, 71, 0
2, 89840, Note_on_c, 0, 73, 85
2, 89919, Note_on_c, 0, 73, 0
2, 89919, Note_on_c, 0, 71, 85
2, 90000, Note_on_c, 0, 71, 0
2, 90000, Note_on_c, 0, 69, 85
2, 90047, Note_on_c, 0, 69, 0
2, 90240, Control_c, 0, 64, 127
2, 90240, Note_on_c, 0, 73, 85
2, 90336, Note_on_c, 0, 73, 0
2, 90336, Note_on_c, 0, 74, 85
2, 90432, Note_on_c, 0, 74, 0
2, 90432, Note_on_c, 0, 73, 85
2, 90527, Note_on_c, 0, 73, 0
2, 90527, Note_on_c, 0, 71, 85
2, 90623, Note_on_c, 0, 71, 0
2, 90623, Control_c, 0, 64, 0
2, 90623, Note_on_c, 0, 73, 85
2, 90720, Note_on_c, 0, 73, 0
2, 90720, Control_c, 0, 64, 127
2, 90720, Note_on_c, 0, 76, 85
2, 90840, Note_on_c, 0, 76, 0
2, 90840, Note_on_c, 0, 74, 85
2, 90960, Note_on_c, 0, 74, 0
2, 90960, Note_on_c, 0, 73, 85
2, 91080, Note_on_c, 0, 73, 0
2, 91080, Control_c, 0, 64, 0
2, 91080, Note_on_c, 0, 71, 85
2, 91200, Note_on_c, 0, 71, 0
2, 91200, Note_on_c, 0, 69, 85
2, 91320, Note_on_c, 0, 69, 0
2, 91320, Note_on_c, 0, 81, 85
2, 91440, Note_on_c, 0, 81, 0
2, 91440, Note_on_c, 0, 80, 85
2, 91560, Note_on_c, 0, 80, 0
2, 91560, Note_on_c, 0, 81, 85
2, 91680, Note_on_c, 0, 81, 0
2, 91680, Note_on_c, 0, 85, 85
2, 91727, Note_on_c, 0, 85, 0
2, 91920, Note_on_c, 0, 83, 85
2, 91967, Note_on_c, 0, 83, 0
2, 92160, Note_on_c, 0, 81, 85
2, 93120, Note_on_c, 0, 81, 0
2, 93120, Note_on_c, 0, 78, 111
2, 93120, Note_on_c, 0, 81, 111
2, 93600, Note_on_c, 0, 81, 0
2, 93600, Note_on_c, 0, 78, 0
2, 93600, Note_on_c, 0, 76, 85
2, 93600, Note_on_c, 0, 79, 85
2, 94080, Note_on_c, 0, 79, 0
2, 94080, Note_on_c, 0, 76, 0
2, 94080, Note_on_c, 0, 79, 111
2, 94560, Note_on_c, 0, 79, 0
2, 94560, Note_on_c, 0, 78, 85
2, 95040, Note_on_c, 0, 78, 0
2, 95040, Note_on_c, 0, 79, 85
2, 95063, Note_on_c, 0, 79, 0
2, 95160, Note_on_c, 0, 79, 85
2, 95280, Note_on_c, 0, 79, 0
2, 95280, Note_on_c, 0, 78, 85
2, 95400, Note_on_c, 0, 78, 0
2, 95400, Note_on_c, 0, 79, 85
2, 95520, Note_on_c, 0, 79, 0
2, 95520, Note_on_c, 0, 83, 85
2, 95567, Note_on_c, 0, 83, 0
2, 95760, Note_on_c, 0, 81, 85
2, 95807, Note_on_c, 0, 81, 0
2, 96000, Note_on_c, 0, 79, 85
2, 96960, Note_on_c, 0, 79, 0
2, 96960, Note_on_c, 0, 76, 111
2, 96960, Note_on_c, 0, 79, 111
2, 97440, Note_on_c, 0, 79, 0
2, 97440, Note_on_c, 0, 76, 0
2, 97440, Note_on_c, 0, 74, 85
2, 97440, Note_on_c, 0, 78, 85
2, 97920, Note_on_c, 0, 78, 0
2, 97920, Note_on_c, 0, 74, 0
2, 97920, Note_on_c, 0, 78, 111
2, 98400, Note_on_c, 0, 78, 0
2, 98400, Note_on_c, 0, 76, 85
2, 98880, Note_on_c, 0, 76, 0
2, 98880, Note_on_c, 0, 78, 85
2, 98903, Note_on_c, 0, 78, 0
2, 99000, Note_on_c, 0, 78, 85
2, 99120, Note_on_c, 0, 78, 0
2, 99120, Note_on_c, 0, 76, 85
2, 99240, Note_on_c, 0, 76, 0
2, 99240, Note_on_c, 0, 78, 85
2, 99360, Note_on_c, 0, 78, 0
2, 99360, Note_on_c, 0, 81, 85
2, 99600, Note_on_c, 0, 81, 0
2, 99600, Note_on_c, 0, 79, 85
2, 99647, Note_on_c, 0, 79, 0
2, 99840, Note_on_c, 0, 74, 85
2, 99840, Note_on_c, 0, 78, 85
2, 100800, Note_on_c, 0, 78, 0
2, 100800, Note_on_c, 0, 74, 0
2, 100800, Note_on_c, 0, 76, 85
2, 100920, Note_on_c, 0, 76, 0
2, 100920, Note_on_c, 0, 76, 85
2, 101040, Note_on_c, 0, 76, 0
2, 101040, Note_on_c, 0, 75, 85
2, 101160, Note_on_c, 0, 75, 0
2, 101160, Note_on_c, 0, 76, 85
2, 101280, Note_on_c, 0, 76, 0
2, 101280, Note_on_c, 0, 79, 85
2, 101520, Note_on_c, 0, 79, 0
2, 101520, Note_on_c, 0, 78, 85
2, 101567, Note_on_c, 0, 78, 0
2, 101760, Note_on_c, 0, 73, 85
2, 101760, Note_on_c, 0, 76, 85
2, 102720, Note_on_c, 0, 76, 0
2, 102720, Note_on_c, 0, 73, 0
2, 102720, Note_on_c, 0, 74, 85
2, 102840, Note_on_c, 0, 74, 0
2, 102840, Note_on_c, 0, 74, 85
2, 102960, Note_on_c, 0, 74, 0
2, 102960, Note_on_c, 0, 73, 85
2, 103080, Note_on_c, 0, 73, 0
2, 103080, Note_on_c, 0, 74, 85
2, 103200, Note_on_c, 0, 74, 0
2, 103200, Note_on_c, 0, 78, 85
2, 103247, Note_on_c, 0, 78, 0
2, 103440, Note_on_c, 0, 76, 85
2, 103487, Note_on_c, 0, 76, 0
2, 103680, Note_on_c, 0, 74, 98
2, 104640, Note_on_c, 0, 74, 0
2, 104640, Note_on_c, 0, 73, 98
2, 104760, Note_on_c, 0, 73, 0
2, 104760, Note_on_c, 0, 73, 98
2, 104880, Note_on_c, 0, 73, 0
2, 104880, Note_on_c, 0, 72, 98
2, 105000, Note_on_c, 0, 72, 0
2, 105000, Note_on_c, 0, 73, 98
2, 105120, Note_on_c, 0, 73, 0
2, 105120, Note_on_c, 0, 67, 98
2, 105120, Note_on_c, 0, 73, 98
2, 105120, Note_on_c, 0, 76, 98
2, 105360, Note_on_c, 0, 76, 0
2, 105360, Note_on_c, 0, 73, 0
2, 105360, Note_on_c, 0, 67, 0
2, 105360, Note_on_c, 0, 66, 98
2, 105360, Note_on_c, 0, 72, 98
2, 105360, Note_on_c, 0, 74, 98
2, 105600, Note_on_c, 0, 74, 0
2, 105600, Note_on_c, 0, 72, 0
2, 105600, Note_on_c, 0, 66, 0
2, 105600, Note_on_c, 0, 64, 98
2, 105600, Note_on_c, 0, 70, 98
2, 105600, Note_on_c, 0, 73, 98
2, 105840, Note_on_c, 0, 73, 0
2, 105840, Note_on_c, 0, 70, 0
2, 105840, Note_on_c, 0, 64, 0
2, 105840, Note_on_c, 0, 62, 98
2, 105840, Note_on_c, 0, 66, 98
2, 105840, Note_on_c, 0, 71, 98
2, 106080, Note_on_c, 0, 71, 0
2, 106080, Note_on_c, 0, 66, 0
2, 106080, Note_on_c, 0, 62, 0
2, 106080, Note_on_c, 0, 60, 98
2, 106080, Note_on_c, 0, 66, 98
2, 106080, Note_on_c, 0, 69, 98
2, 106320, Note_on_c, 0, 69, 0
2, 106320, Note_on_c, 0, 66, 0
2, 106320, Note_on_c, 0, 60, 0
2, 106320, Note_on_c, 0, 59, 98
2, 106320, Note_on_c, 0, 64, 98
2, 106320, Note_on_c, 0, 67, 98
2, 106560, Note_on_c, 0, 67, 0
2, 106560, Note_on_c, 0, 64, 0
2, 106560, Note_on_c, 0, 59, 0
2, 106560, Note_on_c, 0, 58, 98
2, 106560, Note_on_c, 0, 61, 98
2, 106560, Note_on_c, 0, 66, 98
2, 106680, Note_on_c, 0, 66, 0
2, 106680, Note_on_c, 0, 61, 0
2, 106680, Note_on_c, 0, 58, 0
2, 106680, Note_on_c, 0, 73, 72
2, 106800, Note_on_c, 0, 73, 0
2, 106800, Note_on_c, 0, 74, 72
2, 106920, Note_on_c, 0, 74, 0
2, 106920, Note_on_c, 0, 76, 72
2, 107040, Note_on_c, 0, 76, 0
2, 107040, Note_on_c, 0, 78, 72
2, 107087, Note_on_c, 0, 78, 0
2, 107280, Note_on_c, 0, 74, 72
2, 107327, Note_on_c, 0, 74, 0
2, 107520, Control_c, 0, 64, 127
2, 107520, Note_on_c, 0, 73, 72
2, 107580, Note_on_c, 0, 73, 0
2, 107580, Note_on_c, 0, 74, 72
2, 107640, Note_on_c, 0, 74, 0
2, 107640, Note_on_c, 0, 73, 72
2, 107700, Note_on_c, 0, 73, 0
2, 107700, Note_on_c, 0, 74, 72
2, 107760, Note_on_c, 0, 74, 0
2, 107760, Note_on_c, 0, 73, 72
2, 107840, Note_on_c, 0, 73, 0
2, 107840, Note_on_c, 0, 74, 72
2, 107919, Note_on_c, 0, 74, 0
2, 107919, Note_on_c, 0, 73, 72
2, 108000, Note_on_c, 0, 73, 0
2, 108000, Control_c, 0, 64, 0
2, 108000, Note_on_c, 0, 71, 72
2, 108240, Note_on_c, 0, 71, 0
2, 108600, Note_on_c, 0, 70, 72
2, 108720, Note_on_c, 0, 70, 0
2, 108720, Note_on_c, 0, 71, 72
2, 108840, Note_on_c, 0, 71, 0
2, 108840, Note_on_c, 0, 73, 72
2, 108960, Note_on_c, 0, 73, 0
2, 108960, Note_on_c, 0, 74, 72
2, 109007, Note_on_c, 0, 74, 0
2, 109200, Note_on_c, 0, 71, 72
2, 109247, Note_on_c, 0, 71, 0
2, 109440, Control_c, 0, 64, 127
2, 109440, Note_on_c, 0, 69, 72
2, 109500, Note_on_c, 0, 69, 0
2, 109500, Note_on_c, 0, 71, 72
2, 109560, Note_on_c, 0, 71, 0
2, 109560, Note_on_c, 0, 69, 72
2, 109620, Note_on_c, 0, 69, 0
2, 109620, Note_on_c, 0, 71, 72
2, 109680, Note_on_c, 0, 71, 0
2, 109680, Note_on_c, 0, 69, 72
2, 109760, Note_on_c, 0, 69, 0
2, 109760, Note_on_c, 0, 71, 72
2, 109839, Note_on_c, 0, 71, 0
2, 109839, Note_on_c, 0, 69, 72
2, 109920, Note_on_c, 0, 69, 0
2, 109920, Control_c, 0, 64, 0
2, 109920, Note_on_c, 0, 67, 72
2, 110160, Note_on_c, 0, 67, 0
2, 110520, Note_on_c, 0, 66, 72
2, 110640, Note_on_c, 0, 66, 0
2, 110640, Note_on_c, 0, 67, 72
2, 110760, Note_on_c, 0, 67, 0
2, 110760, Note_on_c, 0, 69, 72
2, 110880, Note_on_c, 0, 69, 0
2, 110880, Note_on_c, 0, 71, 72
2, 110927, Note_on_c, 0, 71, 0
2, 111120, Note_on_c, 0, 67, 72
2, 111167, Note_on_c, 0, 67, 0
2, 111360, Note_on_c, 0, 66, 59
2, 111440, Note_on_c, 0, 66, 0
2, 111440, Note_on_c, 0, 67, 59
2, 111519, Note_on_c, 0, 67, 0
2, 111519, Note_on_c, 0, 66, 59
2, 111600, Note_on_c, 0, 66, 0
2, 111600, Note_on_c, 0, 64, 59
2, 111647, Note_on_c, 0, 64, 0
2, 111840, Note_on_c, 0, 67, 72
2, 111920, Note_on_c, 0, 67, 0
2, 111920, Note_on_c, 0, 69, 72
2, 111999, Note_on_c, 0, 69, 0
2, 111999, Note_on_c, 0, 67, 72
2, 112080, Note_on_c, 0, 67, 0
2, 112080, Note_on_c, 0, 66, 72
2, 112127, Note_on_c, 0, 66, 0
2, 112320, Note_on_c, 0, 69, 72
2, 112400, Note_on_c, 0, 69, 0
2, 112400, Note_on_c, 0, 71, 72
2, 112479, Note_on_c, 0, 71, 0
2, 112479, Note_on_c, 0, 69, 72
2, 112560, Note_on_c, 0, 69, 0
2, 112560, Note_on_c, 0, 67, 72
2, 112607, Note_on_c, 0, 67, 0
2, 112800, Note_on_c, 0, 71, 85
2, 112880, Note_on_c, 0, 71, 0
2, 112880, Note_on_c, 0, 73, 85
2, 112959, Note_on_c, 0, 73, 0
2, 112959, Note_on_c, 0, 71, 85
2, 113040, Note_on_c, 0, 71, 0
2, 113040, Note_on_c, 0, 69, 85
2, 113087, Note_on_c, 0, 69, 0
2, 113280, Control_c, 0, 64, 127
2, 113280, Note_on_c, 0, 73, 85
2, 113376, Note_on_c, 0, 73, 0
2, 113376, Note_on_c, 0, 74, 85
2, 113472, Note_on_c, 0, 74, 0
2, 113472, Note_on_c, 0, 73, 85
2, 113567, Note_on_c, 0, 73, 0
2, 113567, Note_on_c, 0, 71, 85
2, 113663, Note_on_c, 0, 71, 0
2, 113663, Control_c, 0, 64, 0
2, 113663, Note_on_c, 0, 73, 85
2, 113760, Note_on_c, 0, 73, 0
2, 113760, Control_c, 0, 64, 127
2, 113760, Note_on_c, 0, 76, 85
2, 113880, Note_on_c, 0, 76, 0
2, 113880, Note_on_c, 0, 74, 85
2, 114000, Note_on_c, 0, 74, 0
2, 114000, Note_on_c, 0, 73, 72
2, 114120, Note_on_c, 0, 73, 0
2, 114120, Control_c, 0, 64, 0
2, 114120, Note_on_c, 0, 71, 72
2, 114240, Note_on_c, 0, 71, 0
2, 114240, Note_on_c, 0, 73, 72
2, 114263, Note_on_c, 0, 73, 0
2, 114360, Note_on_c, 0, 73, 72
2, 114480, Note_on_c, 0, 73, 0
2, 114480, Note_on_c, 0, 74, 72
2, 114600, Note_on_c, 0, 74, 0
2, 114600, Note_on_c, 0, 76, 72
2, 114720, Note_on_c, 0, 76, 0
2, 114720, Note_on_c, 0, 78, 72
2, 114960, Note_on_c, 0, 78, 0
2, 114960, Note_on_c, 0, 74, 72
2, 115007, Note_on_c, 0, 74, 0
2, 115200, Control_c, 0, 64, 127
2, 115200, Note_on_c, 0, 73, 72
2, 115260, Note_on_c, 0, 73, 0
2, 115260, Note_on_c, 0, 74, 72
2, 115320, Note_on_c, 0, 74, 0
2, 115320, Note_on_c, 0, 73, 72
2, 115380, Note_on_c, 0, 73, 0
2, 115380, Note_on_c, 0, 74, 72
2, 115440, Note_on_c, 0, 74, 0
2, 115440, Note_on_c, 0, 73, 72
2, 115520, Note_on_c, 0, 73, 0
2, 115520, Note_on_c, 0, 74, 72
2, 115599, Note_on_c, 0, 74, 0
2, 115599, Note_on_c, 0, 73, 72
2, 115680, Note_on_c, 0, 73, 0
2, 115680, Control_c, 0, 64, 0
2, 115680, Note_on_c, 0, 71, 72
2, 115920, Note_on_c, 0, 71, 0
2, 116280, Note_on_c, 0, 70, 72
2, 116400, Note_on_c, 0, 70, 0
2, 116400, Note_on_c, 0, 71, 72
2, 116520, Note_on_c, 0, 71, 0
2, 116520, Note_on_c, 0, 73, 72
2, 116640, Note_on_c, 0, 73, 0
2, 116640, Note_on_c, 0, 74, 72
2, 116687, Note_on_c, 0, 74, 0
2, 116880, Note_on_c, 0, 71, 72
2, 116927, Note_on_c, 0, 71, 0
2, 117120, Control_c, 0, 64, 127
2, 117120, Note_on_c, 0, 69, 72
2, 117180, Note_on_c, 0, 69, 0
2, 117180, Note_on_c, 0, 71, 72
2, 117240, Note_on_c, 0, 71, 0
2, 117240, Note_on_c, 0, 69, 72
2, 117300, Note_on_c, 0, 69, 0
2, 117300, Note_on_c, 0, 71, 72
2, 117360, Note_on_c, 0, 71, 0
2, 117360, Note_on_c, 0, 69, 72
2, 117440, Note_on_c, 0, 69, 0
2, 117440, Note_on_c, 0, 71, 72
2, 117519, Note_on_c, 0, 71, 0
2, 117519, Note_on_c, 0, 69, 72
2, 117600, Note_on_c, 0, 69, 0
2, 117600, Control_c, 0, 64, 0
2, 117600, Note_on_c, 0, 67, 72
2, 117840, Note_on_c, 0, 67, 0
2, 118200, Note_on_c, 0, 66, 72
2, 118320, Note_on_c, 0, 66, 0
2, 118320, Note_on_c, 0, 67, 72
2, 118440, Note_on_c, 0, 67, 0
2, 118440, Note_on_c, 0, 69, 72
2, 118560, Note_on_c, 0, 69, 0
2, 118560, Note_on_c, 0, 71, 72
2, 118607, Note_on_c, 0, 71, 0
2, 118800, Note_on_c, 0, 67, 72
2, 118847, Note_on_c, 0, 67, 0
2, 119040, Note_on_c, 0, 66, 59
2, 119120, Note_on_c, 0, 66, 0
2, 119120, Note_on_c, 0, 67, 59
2, 119199, Note_on_c, 0, 67, 0
2, 119199, Note_on_c, 0, 66, 59
2, 119280, Note_on_c, 0, 66, 0
2, 119280, Note_on_c, 0, 64, 59
2, 119327, Note_on_c, 0, 64, 0
2, 119520, Note_on_c, 0, 67, 72
2, 119600, Note_on_c, 0, 67, 0
2, 119600, Note_on_c, 0, 69, 72
2, 119679, Note_on_c, 0, 69, 0
2, 119679, Note_on_c, 0, 67, 72
2, 119760, Note_on_c, 0, 67, 0
2, 119760, Note_on_c, 0, 66, 72
2, 119807, Note_on_c, 0, 66, 0
2, 120000, Note_on_c, 0, 69, 72
2, 120080, Note_on_c, 0, 69, 0
2, 120080, Note_on_c, 0, 71, 72
2, 120159, Note_on_c, 0, 71, 0
2, 120159, Note_on_c, 0, 69, 72
2, 120240, Note_on_c, 0, 69, 0
2, 120240, Note_on_c, 0, 67, 72
2, 120287, Note_on_c, 0, 67, 0
2, 120480, Note_on_c, 0, 71, 85
2, 120560, Note_on_c, 0, 71, 0
2, 120560, Note_on_c, 0, 73, 85
2, 120639, Note_on_c, 0, 73, 0
2, 120639, Note_on_c, 0, 71, 85
2, 120720, Note_on_c, 0, 71, 0
2, 120720, Note_on_c, 0, 69, 85
2, 120767, Note_on_c, 0, 69, 0
2, 120960, Control_c, 0, 64, 127
2, 120960, Note_on_c, 0, 73, 85
2, 121056, Note_on_c, 0, 73, 0
2, 121056, Note_on_c, 0, 74, 85
2, 121152, Note_on_c, 0, 74, 0
2, 121152, Note_on_c, 0, 73, 85
2, 121247, Note_on_c, 0, 73, 0
2, 121247, Note_on_c, 0, 71, 85
2, 121343, Note_on_c, 0, 71, 0
2, 121343, Control_c, 0, 64, 0
2, 121343, Note_on_c, 0, 73, 85
2, 121440, Note_on_c, 0, 73, 0
2, 121440, Control_c, 0, 64, 127
2, 121440, Note_on_c, 0, 76, 85
2, 121560, Note_on_c, 0, 76, 0
2, 121560, Note_on_c, 0, 74, 85
2, 121680, Note_on_c, 0, 74, 0
2, 121680, Note_on_c, 0, 73, 85
2, 121800, Note_on_c, 0, 73, 0
2, 121800, Control_c, 0, 64, 0
2, 121800, Note_on_c, 0, 71, 85
2, 121920, Note_on_c, 0, 71, 0
2, 121920, Note_on_c, 0, 69, 85
2, 122040, Note_on_c, 0, 69, 0
2, 122040, Note_on_c, 0, 81, 85
2, 122063, Note_on_c, 0, 81, 0
2, 122160, Note_on_c, 0, 83, 85
2, 122183, Note_on_c, 0, 83, 0
2, 122280, Note_on_c, 0, 85, 85
2, 122303, Note_on_c, 0, 85, 0
2, 122400, Note_on_c, 0, 86, 85
2, 122423, Note_on_c, 0, 86, 0
2, 122520, Note_on_c, 0, 88, 85
2, 122543, Note_on_c, 0, 88, 0
2, 122640, Note_on_c, 0, 90, 85
2, 122663, Note_on_c, 0, 90, 0
2, 122760, Note_on_c, 0, 91, 85
2, 122783, Note_on_c, 0, 91, 0
2, 122880, Note_on_c, 0, 81, 98
2, 122880, Note_on_c, 0, 93, 98
2, 123600, Note_on_c, 0, 93, 0
2, 123600, Note_on_c, 0, 81, 0
2, 123600, Note_on_c, 0, 90, 98
2, 123720, Note_on_c, 0, 90, 0
2, 123720, Note_on_c, 0, 86, 98
2, 123840, Note_on_c, 0, 86, 0
2, 123840, Note_on_c, 0, 81, 98
2, 123840, Note_on_c, 0, 93, 98
2, 124560, Note_on_c, 0, 93, 0
2, 124560, Note_on_c, 0, 81, 0
2, 124560, Note_on_c, 0, 90, 98
2, 124680, Note_on_c, 0, 90, 0
2, 124680, Note_on_c, 0, 87, 98
2, 124800, Note_on_c, 0, 87, 0
2, 124800, Note_on_c, 0, 81, 98
2, 124800, Note_on_c, 0, 93, 98
2, 125520, Note_on_c, 0, 93, 0
2, 125520, Note_on_c, 0, 81, 0
2, 125520, Note_on_c, 0, 91, 98
2, 125640, Note_on_c, 0, 91, 0
2, 125640, Note_on_c, 0, 88, 98
2, 125760, Note_on_c, 0, 88, 0
2, 125760, Note_on_c, 0, 81, 98
2, 125760, Note_on_c, 0, 93, 98
2, 126480, Note_on_c, 0, 93, 0
2, 126480, Note_on_c, 0, 81, 0
2, 126480, Note_on_c, 0, 90, 98
2, 126600, Note_on_c, 0, 90, 0
2, 126600, Note_on_c, 0, 88, 98
2, 126720, Note_on_c, 0, 88, 0
2, 126720, Note_on_c, 0, 86, 98
2, 127440, Note_on_c, 0, 86, 0
2, 127440, Note_on_c, 0, 88, 98
2, 127560, Note_on_c, 0, 88, 0
2, 127560, Note_on_c, 0, 90, 98
2, 127680, Note_on_c, 0, 90, 0
2, 127680, Note_on_c, 0, 83, 98
2, 128400, Note_on_c, 0, 83, 0
2, 128400, Note_on_c, 0, 86, 98
2, 128520, Note_on_c, 0, 86, 0
2, 128520, Note_on_c, 0, 90, 98
2, 128640, Note_on_c, 0, 90, 0
2, 128640, Note_on_c, 0, 82, 98
2, 129360, Note_on_c, 0, 82, 0
2, 129360, Note_on_c, 0, 86, 98
2, 129480, Note_on_c, 0, 86, 0
2, 129480, Note_on_c, 0, 90, 98
2, 129600, Note_on_c, 0, 90, 0
2, 129600, Control_c, 0, 64, 127
2, 129600, Note_on_c, 0, 88, 98
2, 129720, Note_on_c, 0, 88, 0
2, 129720, Note_on_c, 0, 90, 98
2, 129840, Note_on_c, 0, 90, 0
2, 129840, Note_on_c, 0, 88, 98
2, 129960, Note_on_c, 0, 88, 0
2, 129960, Note_on_c, 0, 86, 98
2, 130080, Note_on_c, 0, 86, 0
2, 130080, Note_on_c, 0, 83, 98
2, 130200, Note_on_c, 0, 83, 0
2, 130200, Note_on_c, 0, 85, 98
2, 130320, Note_on_c, 0, 85, 0
2, 130320, Note_on_c, 0, 83, 98
2, 130440, Note_on_c, 0, 83, 0
2, 130440, Control_c, 0, 64, 0
2, 130440, Note_on_c, 0, 81, 98
2, 130560, Note_on_c, 0, 81, 0
2, 130560, Note_on_c, 0, 81, 98
2, 130560, Note_on_c, 0, 93, 98
2, 131280, Note_on_c, 0, 93, 0
2, 131280, Note_on_c, 0, 81, 0
2, 131280, Note_on_c, 0, 90, 98
2, 131400, Note_on_c, 0, 90, 0
2, 131400, Note_on_c, 0, 86, 98
2, 131520, Note_on_c, 0, 86, 0
2, 131520, Note_on_c, 0, 81, 98
2, 131520, Note_on_c, 0, 93, 98
2, 132240, Note_on_c, 0, 93, 0
2, 132240, Note_on_c, 0, 81, 0
2, 132240, Note_on_c, 0, 90, 98
2, 132360, Note_on_c, 0, 90, 0
2, 132360, Note_on_c, 0, 87, 98
2, 132480, Note_on_c, 0, 87, 0
2, 132480, Note_on_c, 0, 81, 98
2, 132480, Note_on_c, 0, 93, 98
2, 133200, Note_on_c, 0, 93, 0
2, 133200, Note_on_c, 0, 81, 0
2, 133200, Note_on_c, 0, 91, 98
2, 133320, Note_on_c, 0, 91, 0
2, 133320, Note_on_c, 0, 88, 98
2, 133440, Note_on_c, 0, 88, 0
2, 133440, Note_on_c, 0, 81, 98
2, 133440, Note_on_c, 0, 93, 98
2, 134160, Note_on_c, 0, 93, 0
2, 134160, Note_on_c, 0, 81, 0
2, 134160, Note_on_c, 0, 90, 98
2, 134280, Note_on_c, 0, 90, 0
2, 134280, Note_on_c, 0, 88, 98
2, 134400, Note_on_c, 0, 88, 0
2, 134400, Note_on_c, 0, 86, 98
2, 135120, Note_on_c, 0, 86, 0
2, 135120, Note_on_c, 0, 88, 98
2, 135240, Note_on_c, 0, 88, 0
2, 135240, Note_on_c, 0, 90, 98
2, 135360, Note_on_c, 0, 90, 0
2, 135360, Note_on_c, 0, 83, 98
2, 136080, Note_on_c, 0, 83, 0
2, 136080, Note_on_c, 0, 86, 98
2, 136200, Note_on_c, 0, 86, 0
2, 136200, Note_on_c, 0, 90, 98
2, 136320, Note_on_c, 0, 90, 0
2, 136320, Note_on_c, 0, 82, 98
2, 136920, Note_on_c, 0, 82, 0
2, 136920, Note_on_c, 0, 86, 98
2, 137040, Note_on_c, 0, 86, 0
2, 137040, Note_on_c, 0, 90, 98
2, 137160, Note_on_c, 0, 90, 0
2, 137160, Note_on_c, 0, 88, 98
2, 137280, Note_on_c, 0, 88, 0
2, 137280, Note_on_c, 0, 86, 98
2, 137520, Note_on_c, 0, 86, 0
2, 138720, Control_c, 0, 64, 127
2, 138720, Note_on_c, 0, 66, 59
2, 138720, Note_on_c, 0, 68, 59
2, 138800, Note_on_c, 0, 68, 0
2, 138800, Note_on_c, 0, 66, 0
2, 138800, Note_on_c, 0, 69, 59
2, 138879, Note_on_c, 0, 69, 0
2, 138879, Note_on_c, 0, 66, 59
2, 138879, Note_on_c, 0, 68, 59
2, 138960, Note_on_c, 0, 68, 0
2, 138960, Note_on_c, 0, 66, 0
2, 138960, Note_on_c, 0, 69, 59
2, 139040, Note_on_c, 0, 69, 0
2, 139040, Note_on_c, 0, 66, 59
2, 139040, Note_on_c, 0, 68, 59
2, 139119, Control_c, 0, 64, 0
2, 139200, Note_on_c, 0, 68, 0
2, 139200, Note_on_c, 0, 66, 0
2, 139680, Control_c, 0, 64, 127
2, 139680, Note_on_c, 0, 57, 59
2, 139680, Note_on_c, 0, 60, 59
2, 139760, Note_on_c, 0, 60, 0
2, 139760, Note_on_c, 0, 57, 0
2, 139760, Note_on_c, 0, 62, 59
2, 139839, Note_on_c, 0, 62, 0
2, 139839, Note_on_c, 0, 57, 59
2, 139839, Note_on_c, 0, 60, 59
2, 139920, Note_on_c, 0, 60, 0
2, 139920, Note_on_c, 0, 57, 0
2, 139920, Note_on_c, 0, 62, 59
2, 140000, Note_on_c, 0, 62, 0
2, 140000, Note_on_c, 0, 57, 59
2, 140000, Note_on_c, 0, 60, 59
2, 140079, Control_c, 0, 64, 0
2, 140160, Note_on_c, 0, 60, 0
2, 140160, Note_on_c, 0, 57, 0
2, 140640, Control_c, 0, 64, 127
2, 140640, Note_on_c, 0, 48, 72
2, 140640, Note_on_c, 0, 57, 72
2, 140720, Note_on_c, 0, 57, 0
2, 140720, Note_on_c, 0, 48, 0
2, 140720, Note_on_c, 0, 59, 72
2, 140799, Note_on_c, 0, 59, 0
2, 140799, Note_on_c, 0, 48, 72
2, 140799, Note_on_c, 0, 57, 72
2, 140880, Note_on_c, 0, 57, 0
2, 140880, Note_on_c, 0, 48, 0
2, 140880, Note_on_c, 0, 59, 72
2, 140960, Note_on_c, 0, 59, 0
2, 140960, Note_on_c, 0, 48, 72
2, 140960, Note_on_c, 0, 57, 72
2, 141039, Control_c, 0, 64, 0
2, 141120, Note_on_c, 0, 57, 0
2, 141120, Note_on_c, 0, 48, 0
2, 141120, Control_c, 0, 64, 127
2, 141120, Note_on_c, 0, 60, 85
2, 141120, Note_on_c, 0, 69, 85
2, 141200, Note_on_c, 0, 69, 0
2, 141200, Note_on_c, 0, 60, 0
2, 141200, Note_on_c, 0, 71, 85
2, 141279, Note_on_c, 0, 71, 0
2, 141279, Note_on_c, 0, 60, 85
2, 141279, Note_on_c, 0, 69, 85
2, 141360, Note_on_c, 0, 69, 0
2, 141360, Note_on_c, 0, 60, 0
2, 141360, Note_on_c, 0, 71, 85
2, 141440, Note_on_c, 0, 71, 0
2, 141440, Note_on_c, 0, 60, 85
2, 141440, Note_on_c, 0, 69, 85
2, 141519, Control_c, 0, 64, 0
2, 141600, Note_on_c, 0, 69, 0
2, 141600, Note_on_c, 0, 60, 0
2, 141600, Control_c, 0, 64, 127
2, 141600, Note_on_c, 0, 72, 98
2, 141600, Note_on_c, 0, 81, 98
2, 141680, Note_on_c, 0, 81, 0
2, 141680, Note_on_c, 0, 72, 0
2, 141680, Note_on_c, 0, 83, 98
2, 141759, Note_on_c, 0, 83, 0
2, 141759, Note_on_c, 0, 72, 98
2, 141759, Note_on_c, 0, 81, 98
2, 141840, Note_on_c, 0, 81, 0
2, 141840, Note_on_c, 0, 72, 0
2, 141840, Note_on_c, 0, 83, 98
2, 141920, Note_on_c, 0, 83, 0
2, 141920, Note_on_c, 0, 72, 98
2, 141920, Note_on_c, 0, 81, 98
2, 141999, Control_c, 0, 64, 0
2, 142080, Note_on_c, 0, 81, 0
2, 142080, Note_on_c, 0, 72, 0
2, 142560, Control_c, 0, 64, 127
2, 142560, Note_on_c, 0, 69, 59
2, 142560, Note_on_c, 0, 71, 59
2, 142640, Note_on_c, 0, 71, 0
2, 142640, Note_on_c, 0, 69, 0
2, 142640, Note_on_c, 0, 72, 59
2, 142719, Note_on_c, 0, 72, 0
2, 142719, Note_on_c, 0, 69, 59
2, 142719, Note_on_c, 0, 71, 59
2, 142800, Note_on_c, 0, 71, 0
2, 142800, Note_on_c, 0, 69, 0
2, 142800, Note_on_c, 0, 72, 59
2, 142880, Note_on_c, 0, 72, 0
2, 142880, Note_on_c, 0, 69, 59
2, 142880, Note_on_c, 0, 71, 59
2, 142959, Control_c, 0, 64, 0
2, 143040, Note_on_c, 0, 71, 0
2, 143040, Note_on_c, 0, 69, 0
2, 143520, Control_c, 0, 64, 127
2, 143520, Note_on_c, 0, 60, 59
2, 143520, Note_on_c, 0, 63, 59
2, 143600, Note_on_c, 0, 63, 0
2, 143600, Note_on_c, 0, 60, 0
2, 143600, Note_on_c, 0, 65, 59
2, 143679, Note_on_c, 0, 65, 0
2, 143679, Note_on_c, 0, 60, 59
2, 143679, Note_on_c, 0, 63, 59
2, 143760, Note_on_c, 0, 63, 0
2, 143760, Note_on_c, 0, 60, 0
2, 143760, Note_on_c, 0, 65, 59
2, 143840, Note_on_c, 0, 65, 0
2, 143840, Note_on_c, 0, 60, 59
2, 143840, Note_on_c, 0, 63, 59
2, 143919, Control_c, 0, 64, 0
2, 144000, Note_on_c, 0, 63, 0
2, 144000, Note_on_c, 0, 60, 0
2, 144480, Control_c, 0, 64, 127
2, 144480, Note_on_c, 0, 51, 72
2, 144480, Note_on_c, 0, 60, 72
2, 144560, Note_on_c, 0, 60, 0
2, 144560, Note_on_c, 0, 51, 0
2, 144560, Note_on_c, 0, 62, 72
2, 144639, Note_on_c, 0, 62, 0
2, 144639, Note_on_c, 0, 51, 72
2, 144639, Note_on_c, 0, 60, 72
2, 144720, Note_on_c, 0, 60, 0
2, 144720, Note_on_c, 0, 51, 0
2, 144720, Note_on_c, 0, 62, 72
2, 144800, Note_on_c, 0, 62, 0
2, 144800, Note_on_c, 0, 51, 72
2, 144800, Note_on_c, 0, 60, 72
2, 144879, Control_c, 0, 64, 0
2, 144960, Note_on_c, 0, 60, 0
2, 144960, Note_on_c, 0, 51, 0
2, 144960, Control_c, 0, 64, 127
2, 144960, Note_on_c, 0, 63, 85
2, 144960, Note_on_c, 0, 72, 85
2, 145040, Note_on_c, 0, 72, 0
2, 145040, Note_on_c, 0, 63, 0
2, 145040, Note_on_c, 0, 74, 85
2, 145119, Note_on_c, 0, 74, 0
2, 145119, Note_on_c, 0, 63, 85
2, 145119, Note_on_c, 0, 72, 85
2, 145200, Note_on_c, 0, 72, 0
2, 145200, Note_on_c, 0, 63, 0
2, 145200, Note_on_c, 0, 74, 85
2, 145280, Note_on_c, 0, 74, 0
2, 145280, Note_on_c, 0, 63, 85
2, 145280, Note_on_c, 0, 72, 85
2, 145359, Control_c, 0, 64, 0
2, 145440, Note_on_c, 0, 72, 0
2, 145440, Note_on_c, 0, 63, 0
2, 145440, Control_c, 0, 64, 127
2, 145440, Note_on_c, 0, 75, 98
2, 145440, Note_on_c, 0, 84, 98
2, 145520, Note_on_c, 0, 84, 0
2, 145520, Note_on_c, 0, 75, 0
2, 145520, Note_on_c, 0, 86, 98
2, 145599, Note_on_c, 0, 86, 0
2, 145599, Note_on_c, 0, 75, 98
2, 145599, Note_on_c, 0, 84, 98
2, 145680, Note_on_c, 0, 84, 0
2, 145680, Note_on_c, 0, 75, 0
2, 145680, Note_on_c, 0, 86, 98
2, 145760, Note_on_c, 0, 86, 0
2, 145760, Note_on_c, 0, 75, 98
2, 145760, Note_on_c, 0, 84, 98
2, 145839, Control_c, 0, 64, 0
2, 145920, Note_on_c, 0, 84, 0
2, 145920, Note_on_c, 0, 75, 0
2, 146400, Control_c, 0, 64, 127
2, 146400, Note_on_c, 0, 54, 72
2, 146400, Note_on_c, 0, 63, 72
2, 146480, Note_on_c, 0, 63, 0
2, 146480, Note_on_c, 0, 54, 0
2, 146480, Note_on_c, 0, 65, 72
2, 146559, Note_on_c, 0, 65, 0
2, 146559, Note_on_c, 0, 54, 72
2, 146559, Note_on_c, 0, 63, 72
2, 146640, Note_on_c, 0, 63, 0
2, 146640, Note_on_c, 0, 54, 0
2, 146640, Note_on_c, 0, 65, 72
2, 146720, Note_on_c, 0, 65, 0
2, 146720, Note_on_c, 0, 54, 72
2, 146720, Note_on_c, 0, 63, 72
2, 146799, Control_c, 0, 64, 0
2, 146880, Note_on_c, 0, 63, 0
2, 146880, Note_on_c, 0, 54, 0
2, 146880, Control_c, 0, 64, 127
2, 146880, Note_on_c, 0, 66, 72
2, 146880, Note_on_c, 0, 75, 72
2, 146960, Note_on_c, 0, 75, 0
2, 146960, Note_on_c, 0, 66, 0
2, 146960, Note_on_c, 0, 77, 72
2, 147039, Note_on_c, 0, 77, 0
2, 147039, Note_on_c, 0, 66, 72
2, 147039, Note_on_c, 0, 75, 72
2, 147120, Note_on_c, 0, 75, 0
2, 147120, Note_on_c, 0, 66, 0
2, 147120, Note_on_c, 0, 77, 72
2, 147200, Note_on_c, 0, 77, 0
2, 147200, Note_on_c, 0, 66, 72
2, 147200, Note_on_c, 0, 75, 72
2, 147279, Control_c, 0, 64, 0
2, 147360, Note_on_c, 0, 75, 0
2, 147360, Note_on_c, 0, 66, 0
2, 147360, Control_c, 0, 64, 127
2, 147360, Note_on_c, 0, 78, 72
2, 147360, Note_on_c, 0, 87, 72
2, 147440, Note_on_c, 0, 87, 0
2, 147440, Note_on_c, 0, 78, 0
2, 147440, Note_on_c, 0, 89, 72
2, 147519, Note_on_c, 0, 89, 0
2, 147519, Note_on_c, 0, 78, 72
2, 147519, Note_on_c, 0, 87, 72
2, 147600, Note_on_c, 0, 87, 0
2, 147600, Note_on_c, 0, 78, 0
2, 147600, Note_on_c, 0, 89, 72
2, 147680, Note_on_c, 0, 89, 0
2, 147680, Note_on_c, 0, 78, 72
2, 147680, Note_on_c, 0, 87, 72
2, 147759, Control_c, 0, 64, 0
2, 147840, Note_on_c, 0, 87, 0
2, 147840, Note_on_c, 0, 78, 0
2, 147840, Note_on_c, 0, 81, 72
2, 147840, Note_on_c, 0, 90, 72
2, 148080, Note_on_c, 0, 90, 0
2, 148080, Note_on_c, 0, 81, 0
2, 148320, Control_c, 0, 64, 127
2, 148320, Note_on_c, 0, 57, 72
2, 148320, Note_on_c, 0, 66, 72
2, 148400, Note_on_c, 0, 66, 0
2, 148400, Note_on_c, 0, 57, 0
2, 148400, Note_on_c, 0, 68, 72
2, 148479, Note_on_c, 0, 68, 0
2, 148479, Note_on_c, 0, 57, 72
2, 148479, Note_on_c, 0, 66, 72
2, 148560, Note_on_c, 0, 66, 0
2, 148560, Note_on_c, 0, 57, 0
2, 148560, Note_on_c, 0, 68, 72
2, 148640, Note_on_c, 0, 68, 0
2, 148640, Note_on_c, 0, 57, 72
2, 148640, Note_on_c, 0, 66, 72
2, 148719, Control_c, 0, 64, 0
2, 148800, Note_on_c, 0, 66, 0
2, 148800, Note_on_c, 0, 57, 0
2, 148800, Control_c, 0, 64, 127
2, 148800, Note_on_c, 0, 69, 72
2, 148800, Note_on_c, 0, 78, 72
2, 148880, Note_on_c, 0, 78, 0
2, 148880, Note_on_c, 0, 69, 0
2, 148880, Note_on_c, 0, 80, 72
2, 148959, Note_on_c, 0, 80, 0
2, 148959, Note_on_c, 0, 69, 72
2, 148959, Note_on_c, 0, 78, 72
2, 149040, Note_on_c, 0, 78, 0
2, 149040, Note_on_c, 0, 69, 0
2, 149040, Note_on_c, 0, 80, 72
2, 149120, Note_on_c, 0, 80, 0
2, 149120, Note_on_c, 0, 69, 72
2, 149120, Note_on_c, 0, 78, 72
2, 149199, Control_c, 0, 64, 0
2, 149280, Note_on_c, 0, 78, 0
2, 149280, Note_on_c, 0, 69, 0
2, 149280, Control_c, 0, 64, 127
2, 149280, Note_on_c, 0, 81, 72
2, 149280, Note_on_c, 0, 90, 72
2, 149360, Note_on_c, 0, 90, 0
2, 149360, Note_on_c, 0, 81, 0
2, 149360, Note_on_c, 0, 92, 72
2, 149439, Note_on_c, 0, 92, 0
2, 149439, Note_on_c, 0, 81, 72
2, 149439, Note_on_c, 0, 90, 72
2, 149520, Note_on_c, 0, 90, 0
2, 149520, Note_on_c, 0, 81, 0
2, 149520, Note_on_c, 0, 92, 72
2, 149600, Note_on_c, 0, 92, 0
2, 149600, Note_on_c, 0, 81, 72
2, 149600, Note_on_c, 0, 90, 72
2, 149679, Control_c, 0, 64, 0
2, 149760, Note_on_c, 0, 90, 0
2, 149760, Note_on_c, 0, 81, 0
2, 149760, Note_on_c, 0, 93, 85
2, 149760, Note_on_c, 0, 96, 85
2, 150000, Note_on_c, 0, 96, 0
2, 150000, Note_on_c, 0, 93, 0
2, 150240, Control_c, 0, 64, 127
2, 150240, Note_on_c, 0, 93, 85
2, 150320, Note_on_c, 0, 93, 0
2, 150320, Note_on_c, 0, 95, 85
2, 150399, Note_on_c, 0, 95, 0
2, 150399, Note_on_c, 0, 96, 85
2, 150480, Note_on_c, 0, 96, 0
2, 150480, Note_on_c, 0, 98, 85
2, 150560, Note_on_c, 0, 98, 0
2, 150560, Note_on_c, 0, 99, 85
2, 150639, Note_on_c, 0, 99, 0
2, 150639, Note_on_c, 0, 98, 85
2, 150720, Note_on_c, 0, 98, 0
2, 150720, Note_on_c, 0, 96, 85
2, 150800, Note_on_c, 0, 96, 0
2, 150800, Note_on_c, 0, 95, 85
2, 150879, Note_on_c, 0, 95, 0
2, 150879, Note_on_c, 0, 93, 85
2, 150960, Note_on_c, 0, 93, 0
2, 150960, Note_on_c, 0, 92, 85
2, 151040, Note_on_c, 0, 92, 0
2, 151040, Note_on_c, 0, 93, 85
2, 151119, Note_on_c, 0, 93, 0
2, 151119, Control_c, 0, 64, 0
2, 151119, Note_on_c, 0, 92, 85
2, 151200, Note_on_c, 0, 92, 0
2, 151200, Control_c, 0, 64, 127
2, 151200, Note_on_c, 0, 93, 85
2, 151280, Note_on_c, 0, 93, 0
2, 151280, Note_on_c, 0, 95, 85
2, 151359, Note_on_c, 0, 95, 0
2, 151359, Note_on_c, 0, 96, 85
2, 151440, Note_on_c, 0, 96, 0
2, 151440, Note_on_c, 0, 98, 85
2, 151520, Note_on_c, 0, 98, 0
2, 151520, Note_on_c, 0, 99, 85
2, 151599, Note_on_c, 0, 99, 0
2, 151599, Control_c, 0, 64, 0
2, 151599, Note_on_c, 0, 98, 85
2, 151680, Note_on_c, 0, 98, 0
2, 151680, Control_c, 0, 64, 127
2, 151680, Note_on_c, 0, 96, 85
2, 151760, Note_on_c, 0, 96, 0
2, 151760, Note_on_c, 0, 95, 85
2, 151839, Note_on_c, 0, 95, 0
2, 151839, Note_on_c, 0, 93, 85
2, 151920, Note_on_c, 0, 93, 0
2, 151920, Note_on_c, 0, 92, 85
2, 152000, Note_on_c, 0, 92, 0
2, 152000, Note_on_c, 0, 93, 85
2, 152079, Note_on_c, 0, 93, 0
2, 152079, Control_c, 0, 64, 0
2, 152079, Note_on_c, 0, 95, 85
2, 152160, Note_on_c, 0, 95, 0
2, 152160, Control_c, 0, 64, 127
2, 152160, Note_on_c, 0, 96, 85
2, 152240, Note_on_c, 0, 96, 0
2, 152240, Note_on_c, 0, 95, 85
2, 152319, Note_on_c, 0, 95, 0
2, 152319, Note_on_c, 0, 93, 85
2, 152400, Note_on_c, 0, 93, 0
2, 152400, Note_on_c, 0, 92, 85
2, 152480, Note_on_c, 0, 92, 0
2, 152480, Note_on_c, 0, 93, 85
2, 152559, Note_on_c, 0, 93, 0
2, 152559, Control_c, 0, 64, 0
2, 152559, Note_on_c, 0, 95, 85
2, 152640, Note_on_c, 0, 95, 0
2, 152640, Control_c, 0, 64, 127
2, 152640, Note_on_c, 0, 96, 85
2, 152720, Note_on_c, 0, 96, 0
2, 152720, Note_on_c, 0, 95, 85
2, 152799, Note_on_c, 0, 95, 0
2, 152799, Note_on_c, 0, 93, 85
2, 152880, Note_on_c, 0, 93, 0
2, 152880, Note_on_c, 0, 92, 85
2, 152960, Note_on_c, 0, 92, 0
2, 152960, Note_on_c, 0, 93, 85
2, 153039, Note_on_c, 0, 93, 0
2, 153039, Control_c, 0, 64, 0
2, 153039, Note_on_c, 0, 95, 85
2, 153120, Note_on_c, 0, 95, 0
2, 153120, Control_c, 0, 64, 127
2, 153120, Note_on_c, 0, 96, 85
2, 153200, Note_on_c, 0, 96, 0
2, 153200, Note_on_c, 0, 95, 85
2, 153279, Note_on_c, 0, 95, 0
2, 153279, Note_on_c, 0, 93, 85
2, 153360, Note_on_c, 0, 93, 0
2, 153360, Note_on_c, 0, 92, 85
2, 153440, Note_on_c, 0, 92, 0
2, 153440, Note_on_c, 0, 93, 85
2, 153519, Note_on_c, 0, 93, 0
2, 153519, Control_c, 0, 64, 0
2, 153519, Note_on_c, 0, 95, 85
2, 153600, Note_on_c, 0, 95, 0
2, 153600, Control_c, 0, 64, 127
2, 153600, Note_on_c, 0, 96, 85
2, 153680, Note_on_c, 0, 96, 0
2, 153680, Note_on_c, 0, 95, 85
2, 153759, Note_on_c, 0, 95, 0
2, 153759, Note_on_c, 0, 93, 85
2, 153840, Note_on_c, 0, 93, 0
2, 153840, Note_on_c, 0, 95, 85
2, 153920, Note_on_c, 0, 95, 0
2, 153920, Note_on_c, 0, 96, 85
2, 153999, Note_on_c, 0, 96, 0
2, 153999, Control_c, 0, 64, 0
2, 153999, Note_on_c, 0, 95, 85
2, 154080, Note_on_c, 0, 95, 0
2, 154080, Control_c, 0, 64, 127
2, 154080, Note_on_c, 0, 93, 85
2, 154160, Note_on_c, 0, 93, 0
2, 154160, Note_on_c, 0, 95, 85
2, 154239, Note_on_c, 0, 95, 0
2, 154239, Note_on_c, 0, 96, 85
2, 154320, Note_on_c, 0, 96, 0
2, 154320, Note_on_c, 0, 95, 85
2, 154400, Note_on_c, 0, 95, 0
2, 154400, Note_on_c, 0, 93, 85
2, 154479, Note_on_c, 0, 93, 0
2, 154479, Control_c, 0, 64, 0
2, 154479, Note_on_c, 0, 95, 85
2, 154560, Note_on_c, 0, 95, 0
2, 154560, Control_c, 0, 64, 127
2, 154560, Note_on_c, 0, 96, 98
2, 154640, Note_on_c, 0, 96, 0
2, 154640, Note_on_c, 0, 95, 98
2, 154719, Note_on_c, 0, 95, 0
2, 154719, Note_on_c, 0, 93, 98
2, 154800, Note_on_c, 0, 93, 0
2, 154800, Note_on_c, 0, 95, 98
2, 154880, Note_on_c, 0, 95, 0
2, 154880, Note_on_c, 0, 96, 98
2, 154959, Note_on_c, 0, 96, 0
2, 154959, Control_c, 0, 64, 0
2, 154959, Note_on_c, 0, 95, 98
2, 155040, Note_on_c, 0, 95, 0
2, 155040, Control_c, 0, 64, 127
2, 155040, Note_on_c, 0, 93, 98
2, 155120, Note_on_c, 0, 93, 0
2, 155120, Note_on_c, 0, 95, 98
2, 155199, Note_on_c, 0, 95, 0
2, 155199, Note_on_c, 0, 96, 98
2, 155280, Note_on_c, 0, 96, 0
2, 155280, Note_on_c, 0, 95, 98
2, 155360, Note_on_c, 0, 95, 0
2, 155360, Note_on_c, 0, 96, 98
2, 155439, Note_on_c, 0, 96, 0
2, 155439, Control_c, 0, 64, 0
2, 155439, Note_on_c, 0, 98, 98
2, 155520, Note_on_c, 0, 98, 0
2, 155520, Note_on_c, 0, 100, 111
2, 155679, Note_on_c, 0, 100, 0
2, 155679, Note_on_c, 0, 69, 111
2, 155679, Note_on_c, 0, 81, 111
2, 155840, Note_on_c, 0, 81, 0
2, 155840, Note_on_c, 0, 69, 0
2, 155840, Note_on_c, 0, 71, 111
2, 155840, Note_on_c, 0, 83, 111
2, 156000, Note_on_c, 0, 83, 0
2, 156000, Note_on_c, 0, 71, 0
2, 156000, Note_on_c, 0, 72, 111
2, 156000, Note_on_c, 0, 84, 111
2, 156159, Note_on_c, 0, 84, 0
2, 156159, Note_on_c, 0, 72, 0
2, 156159, Note_on_c, 0, 74, 111
2, 156159, Note_on_c, 0, 86, 111
2, 156320, Note_on_c, 0, 86, 0
2, 156320, Note_on_c, 0, 74, 0
2, 156320, Note_on_c, 0, 76, 111
2, 156320, Note_on_c, 0, 88, 111
2, 156480, Note_on_c, 0, 88, 0
2, 156480, Note_on_c, 0, 76, 0
2, 156480, Note_on_c, 0, 77, 111
2, 156480, Note_on_c, 0, 89, 111
2, 156720, Note_on_c, 0, 89, 0
2, 156720, Note_on_c, 0, 77, 0
2, 156960, Note_on_c, 0, 76, 111
2, 156960, Note_on_c, 0, 88, 111
2, 157200, Note_on_c, 0, 88, 0
2, 157200, Note_on_c, 0, 76, 0
2, 159840, Note_on_c, 0, 58, 59
2, 159840, Note_on_c, 0, 61, 59
2, 159887, Note_on_c, 0, 61, 0
2, 159887, Note_on_c, 0, 58, 0
2, 160080, Note_on_c, 0, 61, 59
2, 160080, Note_on_c, 0, 64, 59
2, 160127, Note_on_c, 0, 64, 0
2, 160127, Note_on_c, 0, 61, 0
2, 160320, Note_on_c, 0, 59, 59
2, 160320, Note_on_c, 0, 62, 59
2, 160367, Note_on_c, 0, 62, 0
2, 160367, Note_on_c, 0, 59, 0
2, 160560, Note_on_c, 0, 62, 59
2, 160560, Note_on_c, 0, 66, 59
2, 160607, Note_on_c, 0, 66, 0
2, 160607, Note_on_c, 0, 62, 0
2, 160800, Note_on_c, 0, 59, 59
2, 160800, Note_on_c, 0, 62, 59
2, 160847, Note_on_c, 0, 62, 0
2, 160847, Note_on_c, 0, 59, 0
2, 161040, Note_on_c, 0, 56, 59
2, 161040, Note_on_c, 0, 59, 59
2, 161087, Note_on_c, 0, 59, 0
2, 161087, Note_on_c, 0, 56, 0
2, 161280, Note_on_c, 0, 59, 59
2, 161280, Note_on_c, 0, 62, 59
2, 161327, Note_on_c, 0, 62, 0
2, 161327, Note_on_c, 0, 59, 0
2, 161520, Note_on_c, 0, 56, 59
2, 161520, Note_on_c, 0, 59, 59
2, 161567, Note_on_c, 0, 59, 0
2, 161567, Note_on_c, 0, 56, 0
2, 161760, Note_on_c, 0, 58, 59
2, 161760, Note_on_c, 0, 61, 59
2, 161807, Note_on_c, 0, 61, 0
2, 161807, Note_on_c, 0, 58, 0
2, 162000, Note_on_c, 0, 61, 59
2, 162000, Note_on_c, 0, 64, 59
2, 162047, Note_on_c, 0, 64, 0
2, 162047, Note_on_c, 0, 61, 0
2, 162240, Note_on_c, 0, 58, 59
2, 162240, Note_on_c, 0, 61, 59
2, 162287, Note_on_c, 0, 61, 0
2, 162287, Note_on_c, 0, 58, 0
2, 162480, Note_on_c, 0, 59, 59
2, 162480, Note_on_c, 0, 62, 59
2, 162527, Note_on_c, 0, 62, 0
2, 162527, Note_on_c, 0, 59, 0
2, 162720, Note_on_c, 0, 62, 59
2, 162720, Note_on_c, 0, 66, 59
2, 162767, Note_on_c, 0, 66, 0
2, 162767, Note_on_c, 0, 62, 0
2, 162960, Note_on_c, 0, 59, 59
2, 162960, Note_on_c, 0, 62, 59
2, 163007, Note_on_c, 0, 62, 0
2, 163007, Note_on_c, 0, 59, 0
2, 163200, Note_on_c, 0, 64, 72
2, 163200, Note_on_c, 0, 68, 72
2, 163247, Note_on_c, 0, 68, 0
2, 163247, Note_on_c, 0, 64, 0
2, 163440, Note_on_c, 0, 61, 72
2, 163440, Note_on_c, 0, 64, 72
2, 163487, Note_on_c, 0, 64, 0
2, 163487, Note_on_c, 0, 61, 0
2, 163680, Note_on_c, 0, 57, 72
2, 163680, Note_on_c, 0, 61, 72
2, 163727, Note_on_c, 0, 61, 0
2, 163727, Note_on_c, 0, 57, 0
2, 163920, Note_on_c, 0, 54, 72
2, 163920, Note_on_c, 0, 57, 72
2, 163967, Note_on_c, 0, 57, 0
2, 163967, Note_on_c, 0, 54, 0
2, 164160, Note_on_c, 0, 64, 72
2, 164160, Note_on_c, 0, 68, 72
2, 164207, Note_on_c, 0, 68, 0
2, 164207, Note_on_c, 0, 64, 0
2, 164400, Note_on_c, 0, 61, 72
2, 164400, Note_on_c, 0, 64, 72
2, 164447, Note_on_c, 0, 64, 0
2, 164447, Note_on_c, 0, 61, 0
2, 164640, Note_on_c, 0, 66, 72
2, 164640, Note_on_c, 0, 69, 72
2, 164687, Note_on_c, 0, 69, 0
2, 164687, Note_on_c, 0, 66, 0
2, 164880, Note_on_c, 0, 62, 72
2, 164880, Note_on_c, 0, 66, 72
2, 164927, Note_on_c, 0, 66, 0
2, 164927, Note_on_c, 0, 62, 0
2, 165120, Note_on_c, 0, 59, 72
2, 165120, Note_on_c, 0, 62, 72
2, 165167, Note_on_c, 0, 62, 0
2, 165167, Note_on_c, 0, 59, 0
2, 165360, Note_on_c, 0, 56, 72
2, 165360, Note_on_c, 0, 59, 72
2, 165407, Note_on_c, 0, 59, 0
2, 165407, Note_on_c, 0, 56, 0
2, 165600, Note_on_c, 0, 66, 72
2, 165600, Note_on_c, 0, 69, 72
2, 165647, Note_on_c, 0, 69, 0
2, 165647, Note_on_c, 0, 66, 0
2, 165840, Note_on_c, 0, 62, 72
2, 165840, Note_on_c, 0, 66, 72
2, 165887, Note_on_c, 0, 66, 0
2, 165887, Note_on_c, 0, 62, 0
2, 166080, Note_on_c, 0, 68, 72
2, 166080, Note_on_c, 0, 71, 72
2, 166127, Note_on_c, 0, 71, 0
2, 166127, Note_on_c, 0, 68, 0
2, 166320, Note_on_c, 0, 61, 72
2, 166320, Note_on_c, 0, 64, 72
2, 166367, Note_on_c, 0, 64, 0
2, 166367, Note_on_c, 0, 61, 0
2, 166560, Note_on_c, 0, 66, 72
2, 166560, Note_on_c, 0, 69, 72
2, 166607, Note_on_c, 0, 69, 0
2, 166607, Note_on_c, 0, 66, 0
2, 166800, Note_on_c, 0, 59, 72
2, 166800, Note_on_c, 0, 62, 72
2, 166847, Note_on_c, 0, 62, 0
2, 166847, Note_on_c, 0, 59, 0
2, 167040, Note_on_c, 0, 64, 72
2, 167040, Note_on_c, 0, 68, 72
2, 167087, Note_on_c, 0, 68, 0
2, 167087, Note_on_c, 0, 64, 0
2, 167280, Note_on_c, 0, 57, 72
2, 167280, Note_on_c, 0, 61, 72
2, 167327, Note_on_c, 0, 61, 0
2, 167327, Note_on_c, 0, 57, 0
2, 167520, Note_on_c, 0, 62, 72
2, 167520, Note_on_c, 0, 66, 72
2, 167567, Note_on_c, 0, 66, 0
2, 167567, Note_on_c, 0, 62, 0
2, 167760, Note_on_c, 0, 56, 72
2, 167760, Note_on_c, 0, 59, 72
2, 167807, Note_on_c, 0, 59, 0
2, 167807, Note_on_c, 0, 56, 0
2, 168000, Note_on_c, 0, 61, 72
2, 168000, Note_on_c, 0, 64, 72
2, 168047, Note_on_c, 0, 64, 0
2, 168047, Note_on_c, 0, 61, 0
2, 168240, Note_on_c, 0, 54, 72
2, 168240, Note_on_c, 0, 57, 72
2, 168287, Note_on_c, 0, 57, 0
2, 168287, Note_on_c, 0, 54, 0
2, 168480, Note_on_c, 0, 64, 72
2, 168480, Note_on_c, 0, 68, 72
2, 168527, Note_on_c, 0, 68, 0
2, 168527, Note_on_c, 0, 64, 0
2, 168720, Note_on_c, 0, 61, 72
2, 168720, Note_on_c, 0, 64, 72
2, 168767, Note_on_c, 0, 64, 0
2, 168767, Note_on_c, 0, 61, 0
2, 168960, Note_on_c, 0, 66, 72
2, 168960, Note_on_c, 0, 69, 72
2, 169007, Note_on_c, 0, 69, 0
2, 169007, Note_on_c, 0, 66, 0
2, 169200, Note_on_c, 0, 59, 72
2, 169200, Note_on_c, 0, 62, 72
2, 169247, Note_on_c, 0, 62, 0
2, 169247, Note_on_c, 0, 59, 0
2, 169440, Note_on_c, 0, 64, 72
2, 169440, Note_on_c, 0, 68, 72
2, 169487, Note_on_c, 0, 68, 0
2, 169487, Note_on_c, 0, 64, 0
2, 169680, Note_on_c, 0, 57, 72
2, 169680, Note_on_c, 0, 61, 72
2, 169727, Note_on_c, 0, 61, 0
2, 169727, Note_on_c, 0, 57, 0
2, 169920, Note_on_c, 0, 62, 72
2, 169920, Note_on_c, 0, 66, 72
2, 169967, Note_on_c, 0, 66, 0
2, 169967, Note_on_c, 0, 62, 0
2, 170160, Note_on_c, 0, 56, 72
2, 170160, Note_on_c, 0, 59, 72
2, 170207, Note_on_c, 0, 59, 0
2, 170207, Note_on_c, 0, 56, 0
2, 170400, Note_on_c, 0, 61, 72
2, 170400, Note_on_c, 0, 64, 72
2, 170447, Note_on_c, 0, 64, 0
2, 170447, Note_on_c, 0, 61, 0
2, 170640, Note_on_c, 0, 54, 72
2, 170640, Note_on_c, 0, 57, 72
2, 170687, Note_on_c, 0, 57, 0
2, 170687, Note_on_c, 0, 54, 0
2, 170880, Note_on_c, 0, 59, 72
2, 170880, Note_on_c, 0, 62, 72
2, 170927, Note_on_c, 0, 62, 0
2, 170927, Note_on_c, 0, 59, 0
2, 171120, Note_on_c, 0, 56, 85
2, 171167, Note_on_c, 0, 56, 0
2, 171360, Note_on_c, 0, 70, 85
2, 171360, Note_on_c, 0, 73, 85
2, 171407, Note_on_c, 0, 73, 0
2, 171407, Note_on_c, 0, 70, 0
2, 171600, Note_on_c, 0, 73, 85
2, 171600, Note_on_c, 0, 76, 85
2, 171647, Note_on_c, 0, 76, 0
2, 171647, Note_on_c, 0, 73, 0
2, 171840, Note_on_c, 0, 71, 85
2, 171840, Note_on_c, 0, 74, 85
2, 171887, Note_on_c, 0, 74, 0
2, 171887, Note_on_c, 0, 71, 0
2, 172080, Note_on_c, 0, 74, 85
2, 172080, Note_on_c, 0, 78, 85
2, 172127, Note_on_c, 0, 78, 0
2, 172127, Note_on_c, 0, 74, 0
2, 172320, Note_on_c, 0, 71, 85
2, 172320, Note_on_c, 0, 74, 85
2, 172367, Note_on_c, 0, 74, 0
2, 172367, Note_on_c, 0, 71, 0
2, 172560, Note_on_c, 0, 68, 85
2, 172560, Note_on_c, 0, 71, 85
2, 172607, Note_on_c, 0, 71, 0
2, 172607, Note_on_c, 0, 68, 0
2, 172800, Note_on_c, 0, 71, 85
2, 172800, Note_on_c, 0, 74, 85
2, 172847, Note_on_c, 0, 74, 0
2, 172847, Note_on_c, 0, 71, 0
2, 173040, Note_on_c, 0, 68, 85
2, 173040, Note_on_c, 0, 71, 85
2, 173087, Note_on_c, 0, 71, 0
2, 173087, Note_on_c, 0, 68, 0
2, 173280, Note_on_c, 0, 70, 85
2, 173280, Note_on_c, 0, 73, 85
2, 173327, Note_on_c, 0, 73, 0
2, 173327, Note_on_c, 0, 70, 0
2, 173520, Note_on_c, 0, 73, 85
2, 173520, Note_on_c, 0, 76, 85
2, 173567, Note_on_c, 0, 76, 0
2, 173567, Note_on_c, 0, 73, 0
2, 173760, Note_on_c, 0, 70, 85
2, 173760, Note_on_c, 0, 73, 85
2, 173807, Note_on_c, 0, 73, 0
2, 173807, Note_on_c, 0, 70, 0
2, 174000, Note_on_c, 0, 71, 85
2, 174000, Note_on_c, 0, 74, 85
2, 174047, Note_on_c, 0, 74, 0
2, 174047, Note_on_c, 0, 71, 0
2, 174240, Note_on_c, 0, 74, 85
2, 174240, Note_on_c, 0, 78, 85
2, 174287, Note_on_c, 0, 78, 0
2, 174287, Note_on_c, 0, 74, 0
2, 174480, Note_on_c, 0, 71, 85
2, 174480, Note_on_c, 0, 74, 85
2, 174527, Note_on_c, 0, 74, 0
2, 174527, Note_on_c, 0, 71, 0
2, 174720, Note_on_c, 0, 76, 85
2, 174720, Note_on_c, 0, 80, 85
2, 174767, Note_on_c, 0, 80, 0
2, 174767, Note_on_c, 0, 76, 0
2, 174960, Note_on_c, 0, 73, 85
2, 174960, Note_on_c, 0, 76, 85
2, 175007, Note_on_c, 0, 76, 0
2, 175007, Note_on_c, 0, 73, 0
2, 175200, Note_on_c, 0, 69, 85
2, 175200, Note_on_c, 0, 73, 85
2, 175247, Note_on_c, 0, 73, 0
2, 175247, Note_on_c, 0, 69, 0
2, 175440, Note_on_c, 0, 66, 85
2, 175440, Note_on_c, 0, 69, 85
2, 175487, Note_on_c, 0, 69, 0
2, 175487, Note_on_c, 0, 66, 0
2, 175680, Note_on_c, 0, 76, 85
2, 175680, Note_on_c, 0, 80, 85
2, 175727, Note_on_c, 0, 80, 0
2, 175727, Note_on_c, 0, 76, 0
2, 175920, Note_on_c, 0, 73, 85
2, 175920, Note_on_c, 0, 76, 85
2, 175967, Note_on_c, 0, 76, 0
2, 175967, Note_on_c, 0, 73, 0
2, 176160, Note_on_c, 0, 78, 85
2, 176160, Note_on_c, 0, 81, 85
2, 176207, Note_on_c, 0, 81, 0
2, 176207, Note_on_c, 0, 78, 0
2, 176400, Note_on_c, 0, 74, 85
2, 176400, Note_on_c, 0, 78, 85
2, 176447, Note_on_c, 0, 78, 0
2, 176447, Note_on_c, 0, 74, 0
2, 176640, Note_on_c, 0, 71, 85
2, 176640, Note_on_c, 0, 74, 85
2, 176687, Note_on_c, 0, 74, 0
2, 176687, Note_on_c, 0, 71, 0
2, 176880, Note_on_c, 0, 68, 85
2, 176880, Note_on_c, 0, 71, 85
2, 176927, Note_on_c, 0, 71, 0
2, 176927, Note_on_c, 0, 68, 0
2, 177120, Note_on_c, 0, 78, 85
2, 177120, Note_on_c, 0, 81, 85
2, 177167, Note_on_c, 0, 81, 0
2, 177167, Note_on_c, 0, 78, 0
2, 177360, Note_on_c, 0, 74, 85
2, 177360, Note_on_c, 0, 78, 85
2, 177407, Note_on_c, 0, 78, 0
2, 177407, Note_on_c, 0, 74, 0
2, 177600, Note_on_c, 0, 80, 98
2, 177600, Note_on_c, 0, 83, 98
2, 177647, Note_on_c, 0, 83, 0
2, 177647, Note_on_c, 0, 80, 0
2, 177840, Note_on_c, 0, 73, 98
2, 177840, Note_on_c, 0, 76, 98
2, 177887, Note_on_c, 0, 76, 0
2, 177887, Note_on_c, 0, 73, 0
2, 178080, Note_on_c, 0, 78, 98
2, 178080, Note_on_c, 0, 81, 98
2, 178127, Note_on_c, 0, 81, 0
2, 178127, Note_on_c, 0, 78, 0
2, 178320, Note_on_c, 0, 71, 98
2, 178320, Note_on_c, 0, 74, 98
2, 178367, Note_on_c, 0, 74, 0
2, 178367, Note_on_c, 0, 71, 0
2, 178560, Note_on_c, 0, 76, 98
2, 178560, Note_on_c, 0, 80, 98
2, 178607, Note_on_c, 0, 80, 0
2, 178607, Note_on_c, 0, 76, 0
2, 178800, Note_on_c, 0, 69, 98
2, 178800, Note_on_c, 0, 73, 98
2, 178847, Note_on_c, 0, 73, 0
2, 178847, Note_on_c, 0, 69, 0
2, 179040, Note_on_c, 0, 74, 98
2, 179040, Note_on_c, 0, 78, 98
2, 179087, Note_on_c, 0, 78, 0
2, 179087, Note_on_c, 0, 74, 0
2, 179280, Note_on_c, 0, 68, 98
2, 179280, Note_on_c, 0, 71, 98
2, 179327, Note_on_c, 0, 71, 0
2, 179327, Note_on_c, 0, 68, 0
2, 179520, Note_on_c, 0, 73, 98
2, 179520, Note_on_c, 0, 76, 98
2, 179567, Note_on_c, 0, 76, 0
2, 179567, Note_on_c, 0, 73, 0
2, 179760, Note_on_c, 0, 66, 98
2, 179760, Note_on_c, 0, 69, 98
2, 179807, Note_on_c, 0, 69, 0
2, 179807, Note_on_c, 0, 66, 0
2, 180000, Note_on_c, 0, 76, 98
2, 180000, Note_on_c, 0, 80, 98
2, 180047, Note_on_c, 0, 80, 0
2, 180047, Note_on_c, 0, 76, 0
2, 180240, Note_on_c, 0, 73, 98
2, 180240, Note_on_c, 0, 76, 98
2, 180287, Note_on_c, 0, 76, 0
2, 180287, Note_on_c, 0, 73, 0
2, 180480, Note_on_c, 0, 78, 98
2, 180480, Note_on_c, 0, 81, 98
2, 180527, Note_on_c, 0, 81, 0
2, 180527, Note_on_c, 0, 78, 0
2, 180720, Note_on_c, 0, 71, 98
2, 180720, Note_on_c, 0, 74, 98
2, 180767, Note_on_c, 0, 74, 0
2, 180767, Note_on_c, 0, 71, 0
2, 180960, Note_on_c, 0, 76, 98
2, 180960, Note_on_c, 0, 80, 98
2, 181007, Note_on_c, 0, 80, 0
2, 181007, Note_on_c, 0, 76, 0
2, 181200, Note_on_c, 0, 69, 98
2, 181200, Note_on_c, 0, 73, 98
2, 181247, Note_on_c, 0, 73, 0
2, 181247, Note_on_c, 0, 69, 0
2, 181440, Note_on_c, 0, 74, 98
2, 181440, Note_on_c, 0, 78, 98
2, 181487, Note_on_c, 0, 78, 0
2, 181487, Note_on_c, 0, 74, 0
2, 181680, Note_on_c, 0, 68, 98
2, 181680, Note_on_c, 0, 71, 98
2, 181727, Note_on_c, 0, 71, 0
2, 181727, Note_on_c, 0, 68, 0
2, 181920, Note_on_c, 0, 73, 98
2, 181920, Note_on_c, 0, 76, 98
2, 181967, Note_on_c, 0, 76, 0
2, 181967, Note_on_c, 0, 73, 0
2, 182160, Note_on_c, 0, 66, 98
2, 182160, Note_on_c, 0, 69, 98
2, 182207, Note_on_c, 0, 69, 0
2, 182207, Note_on_c, 0, 66, 0
2, 182400, Note_on_c, 0, 71, 98
2, 182400, Note_on_c, 0, 74, 98
2, 182447, Note_on_c, 0, 74, 0
2, 182447, Note_on_c, 0, 71, 0
2, 182640, Note_on_c, 0, 64, 98
2, 182640, Note_on_c, 0, 68, 98
2, 182687, Note_on_c, 0, 68, 0
2, 182687, Note_on_c, 0, 64, 0
2, 182880, Note_on_c, 0, 74, 98
2, 182880, Note_on_c, 0, 78, 98
2, 182927, Note_on_c, 0, 78, 0
2, 182927, Note_on_c, 0, 74, 0
2, 183120, Note_on_c, 0, 71, 98
2, 183120, Note_on_c, 0, 74, 98
2, 183167, Note_on_c, 0, 74, 0
2, 183167, Note_on_c, 0, 71, 0
2, 183360, Note_on_c, 0, 76, 85
2, 183360, Note_on_c, 0, 80, 85
2, 183407, Note_on_c, 0, 80, 0
2, 183407, Note_on_c, 0, 76, 0
2, 183600, Note_on_c, 0, 73, 85
2, 183600, Note_on_c, 0, 76, 85
2, 183647, Note_on_c, 0, 76, 0
2, 183647, Note_on_c, 0, 73, 0
2, 183840, Note_on_c, 0, 69, 85
2, 183840, Note_on_c, 0, 73, 85
2, 183887, Note_on_c, 0, 73, 0
2, 183887, Note_on_c, 0, 69, 0
2, 184080, Note_on_c, 0, 74, 85
2, 184080, Note_on_c, 0, 78, 85
2, 184127, Note_on_c, 0, 78, 0
2, 184127, Note_on_c, 0, 74, 0
2, 184320, Note_on_c, 0, 71, 85
2, 184320, Note_on_c, 0, 74, 85
2, 184367, Note_on_c, 0, 74, 0
2, 184367, Note_on_c, 0, 71, 0
2, 184560, Note_on_c, 0, 68, 85
2, 184560, Note_on_c, 0, 71, 85
2, 184607, Note_on_c, 0, 71, 0
2, 184607, Note_on_c, 0, 68, 0
2, 184800, Note_on_c, 0, 73, 85
2, 184800, Note_on_c, 0, 76, 85
2, 184847, Note_on_c, 0, 76, 0
2, 184847, Note_on_c, 0, 73, 0
2, 185040, Note_on_c, 0, 69, 85
2, 185040, Note_on_c, 0, 73, 85
2, 185087, Note_on_c, 0, 73, 0
2, 185087, Note_on_c, 0, 69, 0
2, 185280, Note_on_c, 0, 66, 85
2, 185280, Note_on_c, 0, 69, 85
2, 185327, Note_on_c, 0, 69, 0
2, 185327, Note_on_c, 0, 66, 0
2, 185520, Note_on_c, 0, 71, 85
2, 185520, Note_on_c, 0, 74, 85
2, 185567, Note_on_c, 0, 74, 0
2, 185567, Note_on_c, 0, 71, 0
2, 185760, Note_on_c, 0, 68, 85
2, 185760, Note_on_c, 0, 71, 85
2, 185807, Note_on_c, 0, 71, 0
2, 185807, Note_on_c, 0, 68, 0
2, 186000, Note_on_c, 0, 64, 85
2, 186000, Note_on_c, 0, 68, 85
2, 186047, Note_on_c, 0, 68, 0
2, 186047, Note_on_c, 0, 64, 0
2, 186240, Note_on_c, 0, 69, 85
2, 186240, Note_on_c, 0, 73, 85
2, 186287, Note_on_c, 0, 73, 0
2, 186287, Note_on_c, 0, 69, 0
2, 186480, Note_on_c, 0, 66, 85
2, 186480, Note_on_c, 0, 69, 85
2, 186527, Note_on_c, 0, 69, 0
2, 186527, Note_on_c, 0, 66, 0
2, 186720, Note_on_c, 0, 62, 85
2, 186720, Note_on_c, 0, 66, 85
2, 186767, Note_on_c, 0, 66, 0
2, 186767, Note_on_c, 0, 62, 0
2, 186960, Note_on_c, 0, 68, 72
2, 186960, Note_on_c, 0, 71, 72
2, 187007, Note_on_c, 0, 71, 0
2, 187007, Note_on_c, 0, 68, 0
2, 187200, Note_on_c, 0, 64, 72
2, 187200, Note_on_c, 0, 68, 72
2, 187247, Note_on_c, 0, 68, 0
2, 187247, Note_on_c, 0, 64, 0
2, 187440, Note_on_c, 0, 61, 72
2, 187440, Note_on_c, 0, 64, 72
2, 187487, Note_on_c, 0, 64, 0
2, 187487, Note_on_c, 0, 61, 0
2, 187680, Note_on_c, 0, 66, 72
2, 187680, Note_on_c, 0, 69, 72
2, 187727, Note_on_c, 0, 69, 0
2, 187727, Note_on_c, 0, 66, 0
2, 187920, Note_on_c, 0, 62, 72
2, 187920, Note_on_c, 0, 66, 72
2, 187967, Note_on_c, 0, 66, 0
2, 187967, Note_on_c, 0, 62, 0
2, 188160, Note_on_c, 0, 59, 72
2, 188160, Note_on_c, 0, 62, 72
2, 188207, Note_on_c, 0, 62, 0
2, 188207, Note_on_c, 0, 59, 0
2, 188400, Note_on_c, 0, 64, 72
2, 188400, Note_on_c, 0, 68, 72
2, 188447, Note_on_c, 0, 68, 0
2, 188447, Note_on_c, 0, 64, 0
2, 188640, Note_on_c, 0, 70, 72
2, 188640, Note_on_c, 0, 73, 72
2, 188687, Note_on_c, 0, 73, 0
2, 188687, Note_on_c, 0, 70, 0
2, 188880, Note_on_c, 0, 73, 72
2, 188880, Note_on_c, 0, 76, 72
2, 188927, Note_on_c, 0, 76, 0
2, 188927, Note_on_c, 0, 73, 0
2, 189120, Note_on_c, 0, 71, 72
2, 189120, Note_on_c, 0, 74, 72
2, 189167, Note_on_c, 0, 74, 0
2, 189167, Note_on_c, 0, 71, 0
2, 189360, Note_on_c, 0, 74, 72
2, 189360, Note_on_c, 0, 78, 72
2, 189407, Note_on_c, 0, 78, 0
2, 189407, Note_on_c, 0, 74, 0
2, 189600, Note_on_c, 0, 71, 72
2, 189600, Note_on_c, 0, 74, 72
2, 189647, Note_on_c, 0, 74, 0
2, 189647, Note_on_c, 0, 71, 0
2, 189840, Note_on_c, 0, 68, 72
2, 189840, Note_on_c, 0, 71, 72
2, 189887, Note_on_c, 0, 71, 0
2, 189887, Note_on_c, 0, 68, 0
2, 190080, Note_on_c, 0, 71, 72
2, 190080, Note_on_c, 0, 74, 72
2, 190127, Note_on_c, 0, 74, 0
2, 190127, Note_on_c, 0, 71, 0
2, 190320, Note_on_c, 0, 68, 72
2, 190320, Note_on_c, 0, 71, 72
2, 190367, Note_on_c, 0, 71, 0
2, 190367, Note_on_c, 0, 68, 0
2, 190560, Note_on_c, 0, 70, 72
2, 190560, Note_on_c, 0, 73, 72
2, 190607, Note_on_c, 0, 73, 0
2, 190607, Note_on_c, 0, 70, 0
2, 190800, Note_on_c, 0, 73, 72
2, 190800, Note_on_c, 0, 76, 72
2, 190847, Note_on_c, 0, 76, 0
2, 190847, Note_on_c, 0, 73, 0
2, 191040, Note_on_c, 0, 70, 72
2, 191040, Note_on_c, 0, 73, 72
2, 191087, Note_on_c, 0, 73, 0
2, 191087, Note_on_c, 0, 70, 0
2, 191280, Note_on_c, 0, 71, 72
2, 191280, Note_on_c, 0, 74, 72
2, 191327, Note_on_c, 0, 74, 0
2, 191327, Note_on_c, 0, 71, 0
2, 191520, Note_on_c, 0, 71, 72
2, 191520, Note_on_c, 0, 74, 72
2, 191567, Note_on_c, 0, 74, 0
2, 191567, Note_on_c, 0, 71, 0
2, 191760, Note_on_c, 0, 74, 72
2, 191760, Note_on_c, 0, 78, 72
2, 191807, Note_on_c, 0, 78, 0
2, 191807, Note_on_c, 0, 74, 0
2, 192000, Note_on_c, 0, 73, 72
2, 192000, Note_on_c, 0, 76, 72
2, 192047, Note_on_c, 0, 76, 0
2, 192047, Note_on_c, 0, 73, 0
2, 192240, Note_on_c, 0, 76, 72
2, 192240, Note_on_c, 0, 80, 72
2, 192287, Note_on_c, 0, 80, 0
2, 192287, Note_on_c, 0, 76, 0
2, 192480, Note_on_c, 0, 73, 72
2, 192480, Note_on_c, 0, 76, 72
2, 192527, Note_on_c, 0, 76, 0
2, 192527, Note_on_c, 0, 73, 0
2, 192720, Note_on_c, 0, 69, 85
2, 192720, Note_on_c, 0, 73, 85
2, 192767, Note_on_c, 0, 73, 0
2, 192767, Note_on_c, 0, 69, 0
2, 192960, Note_on_c, 0, 73, 85
2, 192960, Note_on_c, 0, 76, 85
2, 193007, Note_on_c, 0, 76, 0
2, 193007, Note_on_c, 0, 73, 0
2, 193200, Note_on_c, 0, 69, 85
2, 193200, Note_on_c, 0, 73, 85
2, 193247, Note_on_c, 0, 73, 0
2, 193247, Note_on_c, 0, 69, 0
2, 193440, Note_on_c, 0, 71, 85
2, 193440, Note_on_c, 0, 74, 85
2, 193487, Note_on_c, 0, 74, 0
2, 193487, Note_on_c, 0, 71, 0
2, 193680, Note_on_c, 0, 74, 85
2, 193680, Note_on_c, 0, 78, 85
2, 193727, Note_on_c, 0, 78, 0
2, 193727, Note_on_c, 0, 74, 0
2, 193920, Note_on_c, 0, 71, 85
2, 193920, Note_on_c, 0, 74, 85
2, 193967, Note_on_c, 0, 74, 0
2, 193967, Note_on_c, 0, 71, 0
2, 194160, Note_on_c, 0, 73, 85
2, 194160, Note_on_c, 0, 76, 85
2, 194207, Note_on_c, 0, 76, 0
2, 194207, Note_on_c, 0, 73, 0
2, 194400, Note_on_c, 0, 73, 85
2, 194400, Note_on_c, 0, 76, 85
2, 194447, Note_on_c, 0, 76, 0
2, 194447, Note_on_c, 0, 73, 0
2, 194640, Note_on_c, 0, 76, 85
2, 194640, Note_on_c, 0, 80, 85
2, 194687, Note_on_c, 0, 80, 0
2, 194687, Note_on_c, 0, 76, 0
2, 194880, Note_on_c, 0, 74, 85
2, 194880, Note_on_c, 0, 78, 85
2, 194927, Note_on_c, 0, 78, 0
2, 194927, Note_on_c, 0, 74, 0
2, 195120, Note_on_c, 0, 78, 85
2, 195120, Note_on_c, 0, 81, 85
2, 195167, Note_on_c, 0, 81, 0
2, 195167, Note_on_c, 0, 78, 0
2, 195360, Note_on_c, 0, 74, 85
2, 195360, Note_on_c, 0, 78, 85
2, 195407, Note_on_c, 0, 78, 0
2, 195407, Note_on_c, 0, 74, 0
2, 195600, Note_on_c, 0, 71, 85
2, 195600, Note_on_c, 0, 74, 85
2, 195647, Note_on_c, 0, 74, 0
2, 195647, Note_on_c, 0, 71, 0
2, 195840, Note_on_c, 0, 74, 85
2, 195840, Note_on_c, 0, 78, 85
2, 195887, Note_on_c, 0, 78, 0
2, 195887, Note_on_c, 0, 74, 0
2, 196080, Note_on_c, 0, 78, 85
2, 196080, Note_on_c, 0, 81, 85
2, 196127, Note_on_c, 0, 81, 0
2, 196127, Note_on_c, 0, 78, 0
2, 196320, Note_on_c, 0, 76, 98
2, 196320, Note_on_c, 0, 80, 98
2, 196367, Note_on_c, 0, 80, 0
2, 196367, Note_on_c, 0, 76, 0
2, 196560, Note_on_c, 0, 80, 98
2, 196560, Note_on_c, 0, 83, 98
2, 196607, Note_on_c, 0, 83, 0
2, 196607, Note_on_c, 0, 80, 0
2, 196800, Note_on_c, 0, 76, 98
2, 196800, Note_on_c, 0, 80, 98
2, 196847, Note_on_c, 0, 80, 0
2, 196847, Note_on_c, 0, 76, 0
2, 197040, Note_on_c, 0, 73, 98
2, 197040, Note_on_c, 0, 76, 98
2, 197087, Note_on_c, 0, 76, 0
2, 197087, Note_on_c, 0, 73, 0
2, 197280, Note_on_c, 0, 76, 98
2, 197280, Note_on_c, 0, 80, 98
2, 197327, Note_on_c, 0, 80, 0
2, 197327, Note_on_c, 0, 76, 0
2, 197520, Note_on_c, 0, 80, 98
2, 197520, Note_on_c, 0, 83, 98
2, 197567, Note_on_c, 0, 83, 0
2, 197567, Note_on_c, 0, 80, 0
2, 197760, Note_on_c, 0, 78, 98
2, 197760, Note_on_c, 0, 81, 98
2, 197807, Note_on_c, 0, 81, 0
2, 197807, Note_on_c, 0, 78, 0
2, 198000, Note_on_c, 0, 81, 98
2, 198000, Note_on_c, 0, 85, 98
2, 198047, Note_on_c, 0, 85, 0
2, 198047, Note_on_c, 0, 81, 0
2, 198240, Note_on_c, 0, 78, 98
2, 198240, Note_on_c, 0, 81, 98
2, 198287, Note_on_c, 0, 81, 0
2, 198287, Note_on_c, 0, 78, 0
2, 198480, Note_on_c, 0, 74, 98
2, 198480, Note_on_c, 0, 78, 98
2, 198527, Note_on_c, 0, 78, 0
2, 198527, Note_on_c, 0, 74, 0
2, 198720, Note_on_c, 0, 78, 98
2, 198720, Note_on_c, 0, 81, 98
2, 198767, Note_on_c, 0, 81, 0
2, 198767, Note_on_c, 0, 78, 0
2, 198960, Note_on_c, 0, 81, 98
2, 198960, Note_on_c, 0, 85, 98
2, 199007, Note_on_c, 0, 85, 0
2, 199007, Note_on_c, 0, 81, 0
2, 199200, Note_on_c, 0, 80, 98
2, 199200, Note_on_c, 0, 83, 98
2, 199440, Note_on_c, 0, 83, 0
2, 199440, Note_on_c, 0, 80, 0
2, 199440, Note_on_c, 0, 83, 98
2, 199440, Note_on_c, 0, 86, 98
2, 199680, Note_on_c, 0, 86, 0
2, 199680, Note_on_c, 0, 83, 0
2, 199680, Note_on_c, 0, 80, 98
2, 199680, Note_on_c, 0, 83, 98
2, 199920, Note_on_c, 0, 83, 0
2, 199920, Note_on_c, 0, 80, 0
2, 199920, Note_on_c, 0, 76, 98
2, 199920, Note_on_c, 0, 80, 98
2, 200160, Note_on_c, 0, 80, 0
2, 200160, Note_on_c, 0, 76, 0
2, 200160, Note_on_c, 0, 80, 98
2, 200160, Note_on_c, 0, 83, 98
2, 200400, Note_on_c, 0, 83, 0
2, 200400, Note_on_c, 0, 80, 0
2, 200400, Note_on_c, 0, 83, 98
2, 200400, Note_on_c, 0, 86, 98
2, 200640, Note_on_c, 0, 86, 0
2, 200640, Note_on_c, 0, 83, 0
2, 200640, Note_on_c, 0, 85, 111
2, 200880, Note_on_c, 0, 85, 0
2, 200880, Note_on_c, 0, 88, 111
2, 201120, Note_on_c, 0, 88, 0
2, 201120, Note_on_c, 0, 76, 111
2, 201167, Note_on_c, 0, 76, 0
2, 201360, Note_on_c, 0, 85, 111
2, 201600, Note_on_c, 0, 85, 0
2, 201600, Note_on_c, 0, 88, 111
2, 201840, Note_on_c, 0, 88, 0
2, 201840, Note_on_c, 0, 76, 111
2, 201887, Note_on_c, 0, 76, 0
2, 202080, Note_on_c, 0, 85, 111
2, 202320, Note_on_c, 0, 85, 0
2, 202320, Note_on_c, 0, 88, 111
2, 202560, Note_on_c, 0, 88, 0
2, 202560, Note_on_c, 0, 76, 111
2, 202607, Note_on_c, 0, 76, 0
2, 202800, Note_on_c, 0, 85, 111
2, 203040, Note_on_c, 0, 85, 0
2, 203040, Note_on_c, 0, 88, 111
2, 203280, Note_on_c, 0, 88, 0
2, 203280, Note_on_c, 0, 76, 111
2, 203327, Note_on_c, 0, 76, 0
2, 203520, Note_on_c, 0, 86, 111
2, 203760, Note_on_c, 0, 86, 0
2, 203760, Note_on_c, 0, 88, 111
2, 204000, Note_on_c, 0, 88, 0
2, 204000, Note_on_c, 0, 76, 111
2, 204047, Note_on_c, 0, 76, 0
2, 204240, Note_on_c, 0, 86, 111
2, 204480, Note_on_c, 0, 86, 0
2, 204480, Note_on_c, 0, 88, 111
2, 204720, Note_on_c, 0, 88, 0
2, 204720, Note_on_c, 0, 76, 111
2, 204767, Note_on_c, 0, 76, 0
2, 204960, Note_on_c, 0, 86, 111
2, 205200, Note_on_c, 0, 86, 0
2, 205200, Note_on_c, 0, 88, 111
2, 205440, Note_on_c, 0, 88, 0
2, 205440, Note_on_c, 0, 76, 111
2, 205487, Note_on_c, 0, 76, 0
2, 205680, Note_on_c, 0, 86, 111
2, 205920, Note_on_c, 0, 86, 0
2, 205920, Note_on_c, 0, 88, 111
2, 206160, Note_on_c, 0, 88, 0
2, 206160, Note_on_c, 0, 76, 111
2, 206207, Note_on_c, 0, 76, 0
2, 206400, Note_on_c, 0, 77, 111
2, 206400, Note_on_c, 0, 81, 111
2, 206400, Note_on_c, 0, 84, 111
2, 206400, Note_on_c, 0, 89, 111
2, 206640, Note_on_c, 0, 89, 0
2, 206640, Note_on_c, 0, 77, 0
2, 206640, Note_on_c, 0, 81, 0
2, 206640, Note_on_c, 0, 84, 0
2, 207120, Control_c, 0, 64, 127
2, 207120, Note_on_c, 0, 65, 85
2, 207120, Note_on_c, 0, 69, 85
2, 207240, Note_on_c, 0, 69, 0
2, 207240, Note_on_c, 0, 65, 0
2, 207240, Note_on_c, 0, 60, 59
2, 207360, Note_on_c, 0, 60, 0
2, 207360, Note_on_c, 0, 65, 59
2, 207360, Note_on_c, 0, 69, 59
2, 207480, Note_on_c, 0, 69, 0
2, 207480, Note_on_c, 0, 65, 0
2, 207480, Note_on_c, 0, 60, 59
2, 207600, Note_on_c, 0, 60, 0
2, 207600, Note_on_c, 0, 65, 59
2, 207600, Note_on_c, 0, 69, 59
2, 207720, Note_on_c, 0, 69, 0
2, 207720, Note_on_c, 0, 65, 0
2, 207720, Control_c, 0, 64, 0
2, 207720, Note_on_c, 0, 60, 59
2, 207840, Note_on_c, 0, 60, 0
2, 207840, Control_c, 0, 64, 127
2, 207840, Note_on_c, 0, 65, 59
2, 207840, Note_on_c, 0, 69, 59
2, 207960, Note_on_c, 0, 69, 0
2, 207960, Note_on_c, 0, 65, 0
2, 207960, Note_on_c, 0, 60, 59
2, 208080, Note_on_c, 0, 60, 0
2, 208080, Note_on_c, 0, 65, 59
2, 208080, Note_on_c, 0, 69, 59
2, 208200, Note_on_c, 0, 69, 0
2, 208200, Note_on_c, 0, 65, 0
2, 208200, Note_on_c, 0, 60, 59
2, 208320, Note_on_c, 0, 60, 0
2, 208320, Note_on_c, 0, 65, 59
2, 208320, Note_on_c, 0, 69, 59
2, 208440, Note_on_c, 0, 69, 0
2, 208440, Note_on_c, 0, 65, 0
2, 208440, Note_on_c, 0, 60, 59
2, 208560, Note_on_c, 0, 60, 0
2, 208560, Note_on_c, 0, 65, 59
2, 208560, Note_on_c, 0, 69, 59
2, 208680, Note_on_c, 0, 69, 0
2, 208680, Note_on_c, 0, 65, 0
2, 208680, Note_on_c, 0, 60, 59
2, 208800, Note_on_c, 0, 60, 0
2, 208800, Note_on_c, 0, 65, 59
2, 208800, Note_on_c, 0, 69, 59
2, 208920, Note_on_c, 0, 69, 0
2, 208920, Note_on_c, 0, 65, 0
2, 208920, Note_on_c, 0, 60, 59
2, 209040, Note_on_c, 0, 60, 0
2, 209040, Note_on_c, 0, 65, 59
2, 209040, Note_on_c, 0, 69, 59
2, 209160, Note_on_c, 0, 69, 0
2, 209160, Note_on_c, 0, 65, 0
2, 209160, Control_c, 0, 64, 0
2, 209160, Note_on_c, 0, 60, 59
2, 209280, Note_on_c, 0, 60, 0
2, 209280, Control_c, 0, 64, 127
2, 209280, Note_on_c, 0, 66, 59
2, 209280, Note_on_c, 0, 69, 59
2, 209400, Note_on_c, 0, 69, 0
2, 209400, Note_on_c, 0, 66, 0
2, 209400, Note_on_c, 0, 60, 59
2, 209520, Note_on_c, 0, 60, 0
2, 209520, Note_on_c, 0, 66, 59
2, 209520, Note_on_c, 0, 69, 59
2, 209640, Note_on_c, 0, 69, 0
2, 209640, Note_on_c, 0, 66, 0
2, 209640, Note_on_c, 0, 60, 59
2, 209760, Note_on_c, 0, 60, 0
2, 209760, Note_on_c, 0, 66, 59
2, 209760, Note_on_c, 0, 69, 59
2, 209880, Note_on_c, 0, 69, 0
2, 209880, Note_on_c, 0, 66, 0
2, 209880, Control_c, 0, 64, 0
2, 209880, Note_on_c, 0, 60, 59
2, 210000, Note_on_c, 0, 60, 0
2, 210000, Control_c, 0, 64, 127
2, 210000, Note_on_c, 0, 65, 59
2, 210000, Note_on_c, 0, 69, 59
2, 210120, Note_on_c, 0, 69, 0
2, 210120, Note_on_c, 0, 65, 0
2, 210120, Note_on_c, 0, 60, 59
2, 210240, Note_on_c, 0, 60, 0
2, 210240, Note_on_c, 0, 65, 59
2, 210240, Note_on_c, 0, 69, 59
2, 210360, Note_on_c, 0, 69, 0
2, 210360, Note_on_c, 0, 65, 0
2, 210360, Note_on_c, 0, 60, 59
2, 210480, Note_on_c, 0, 60, 0
2, 210480, Note_on_c, 0, 65, 59
2, 210480, Note_on_c, 0, 69, 59
2, 210600, Note_on_c, 0, 69, 0
2, 210600, Note_on_c, 0, 65, 0
2, 210600, Control_c, 0, 64, 0
2, 210600, Note_on_c, 0, 60, 59
2, 210720, Note_on_c, 0, 60, 0
2, 210720, Control_c, 0, 64, 127
2, 210720, Note_on_c, 0, 66, 59
2, 210720, Note_on_c, 0, 69, 59
2, 210840, Note_on_c, 0, 69, 0
2, 210840, Note_on_c, 0, 66, 0
2, 210840, Note_on_c, 0, 60, 59
2, 210960, Note_on_c, 0, 60, 0
2, 210960, Note_on_c, 0, 66, 59
2, 210960, Note_on_c, 0, 69, 59
2, 211080, Note_on_c, 0, 69, 0
2, 211080, Note_on_c, 0, 66, 0
2, 211080, Note_on_c, 0, 60, 59
2, 211200, Note_on_c, 0, 60, 0
2, 211200, Note_on_c, 0, 66, 59
2, 211200, Note_on_c, 0, 69, 59
2, 211320, Note_on_c, 0, 69, 0
2, 211320, Note_on_c, 0, 66, 0
2, 211320, Control_c, 0, 64, 0
2, 211320, Note_on_c, 0, 60, 59
2, 211440, Note_on_c, 0, 60, 0
2, 211440, Control_c, 0, 64, 127
2, 211440, Note_on_c, 0, 65, 59
2, 211440, Note_on_c, 0, 69, 59
2, 211560, Note_on_c, 0, 69, 0
2, 211560, Note_on_c, 0, 65, 0
2, 211560, Note_on_c, 0, 60, 59
2, 211680, Note_on_c, 0, 60, 0
2, 211680, Note_on_c, 0, 65, 59
2, 211680, Note_on_c, 0, 69, 59
2, 211800, Note_on_c, 0, 69, 0
2, 211800, Note_on_c, 0, 65, 0
2, 211800, Note_on_c, 0, 60, 59
2, 211920, Note_on_c, 0, 60, 0
2, 211920, Note_on_c, 0, 65, 59
2, 211920, Note_on_c, 0, 69, 59
2, 212040, Note_on_c, 0, 69, 0
2, 212040, Note_on_c, 0, 65, 0
2, 212040, Control_c, 0, 64, 0
2, 212040, Note_on_c, 0, 60, 59
2, 212160, Note_on_c, 0, 60, 0
2, 212160, Control_c, 0, 64, 127
2, 212160, Note_on_c, 0, 66, 72
2, 212160, Note_on_c, 0, 69, 72
2, 212280, Note_on_c, 0, 69, 0
2, 212280, Note_on_c, 0, 66, 0
2, 212280, Note_on_c, 0, 60, 72
2, 212400, Note_on_c, 0, 60, 0
2, 212400, Note_on_c, 0, 66, 72
2, 212400, Note_on_c, 0, 69, 72
2, 212520, Note_on_c, 0, 69, 0
2, 212520, Note_on_c, 0, 66, 0
2, 212520, Note_on_c, 0, 60, 72
2, 212640, Note_on_c, 0, 60, 0
2, 212640, Note_on_c, 0, 66, 72
2, 212640, Note_on_c, 0, 69, 72
2, 212760, Note_on_c, 0, 69, 0
2, 212760, Note_on_c, 0, 66, 0
2, 212760, Note_on_c, 0, 60, 72
2, 212880, Note_on_c, 0, 60, 0
2, 212880, Note_on_c, 0, 66, 72
2, 212880, Note_on_c, 0, 69, 72
2, 213000, Note_on_c, 0, 69, 0
2, 213000, Note_on_c, 0, 66, 0
2, 213000, Note_on_c, 0, 60, 72
2, 213120, Note_on_c, 0, 60, 0
2, 213120, Note_on_c, 0, 66, 72
2, 213120, Note_on_c, 0, 69, 72
2, 213240, Note_on_c, 0, 69, 0
2, 213240, Note_on_c, 0, 66, 0
2, 213240, Note_on_c, 0, 60, 72
2, 213360, Note_on_c, 0, 60, 0
2, 213360, Note_on_c, 0, 66, 72
2, 213360, Note_on_c, 0, 69, 72
2, 213480, Note_on_c, 0, 69, 0
2, 213480, Note_on_c, 0, 66, 0
2, 213480, Control_c, 0, 64, 0
2, 213480, Note_on_c, 0, 60, 72
2, 213600, Note_on_c, 0, 60, 0
2, 213600, Control_c, 0, 64, 127
2, 213600, Note_on_c, 0, 66, 72
2, 213600, Note_on_c, 0, 69, 72
2, 213720, Note_on_c, 0, 69, 0
2, 213720, Note_on_c, 0, 66, 0
2, 213720, Note_on_c, 0, 60, 72
2, 213840, Note_on_c, 0, 60, 0
2, 213840, Note_on_c, 0, 66, 72
2, 213840, Note_on_c, 0, 69, 72
2, 213960, Note_on_c, 0, 69, 0
2, 213960, Note_on_c, 0, 66, 0
2, 213960, Note_on_c, 0, 60, 72
2, 214080, Note_on_c, 0, 60, 0
2, 214080, Note_on_c, 0, 66, 72
2, 214080, Note_on_c, 0, 69, 72
2, 214200, Note_on_c, 0, 69, 0
2, 214200, Note_on_c, 0, 66, 0
2, 214200, Control_c, 0, 64, 0
2, 214200, Note_on_c, 0, 60, 72
2, 214320, Note_on_c, 0, 60, 0
2, 214320, Note_on_c, 0, 69, 85
2, 214680, Note_on_c, 0, 69, 0
2, 214680, Note_on_c, 0, 71, 85
2, 214800, Note_on_c, 0, 71, 0
2, 214800, Note_on_c, 0, 69, 85
2, 215040, Note_on_c, 0, 69, 0
2, 215040, Control_c, 0, 64, 127
2, 215040, Note_on_c, 0, 63, 72
2, 215040, Note_on_c, 0, 67, 72
2, 215040, Note_on_c, 0, 70, 72
2, 215160, Note_on_c, 0, 70, 0
2, 215160, Note_on_c, 0, 67, 0
2, 215160, Note_on_c, 0, 63, 0
2, 215160, Note_on_c, 0, 58, 72
2, 215280, Note_on_c, 0, 58, 0
2, 215280, Note_on_c, 0, 63, 72
2, 215280, Note_on_c, 0, 67, 72
2, 215280, Note_on_c, 0, 70, 72
2, 215400, Note_on_c, 0, 70, 0
2, 215400, Note_on_c, 0, 67, 0
2, 215400, Note_on_c, 0, 63, 0
2, 215400, Note_on_c, 0, 58, 72
2, 215520, Note_on_c, 0, 58, 0
2, 215520, Note_on_c, 0, 63, 72
2, 215520, Note_on_c, 0, 67, 72
2, 215520, Note_on_c, 0, 70, 72
2, 215640, Note_on_c, 0, 70, 0
2, 215640, Note_on_c, 0, 67, 0
2, 215640, Note_on_c, 0, 63, 0
2, 215640, Note_on_c, 0, 58, 72
2, 215760, Note_on_c, 0, 58, 0
2, 215760, Note_on_c, 0, 64, 85
2, 215760, Note_on_c, 0, 67, 85
2, 215760, Note_on_c, 0, 70, 85
2, 215880, Note_on_c, 0, 70, 0
2, 215880, Note_on_c, 0, 67, 0
2, 215880, Note_on_c, 0, 64, 0
2, 215880, Note_on_c, 0, 58, 85
2, 216000, Note_on_c, 0, 58, 0
2, 216000, Note_on_c, 0, 64, 85
2, 216000, Note_on_c, 0, 67, 85
2, 216000, Note_on_c, 0, 70, 85
2, 216120, Note_on_c, 0, 70, 0
2, 216120, Note_on_c, 0, 67, 0
2, 216120, Note_on_c, 0, 64, 0
2, 216120, Note_on_c, 0, 58, 85
2, 216240, Note_on_c, 0, 58, 0
2, 216240, Note_on_c, 0, 64, 85
2, 216240, Note_on_c, 0, 67, 85
2, 216240, Note_on_c, 0, 70, 85
2, 216360, Note_on_c, 0, 70, 0
2, 216360, Note_on_c, 0, 67, 0
2, 216360, Note_on_c, 0, 64, 0
2, 216360, Control_c, 0, 64, 0
2, 216360, Note_on_c, 0, 58, 85
2, 216480, Note_on_c, 0, 58, 0
2, 216480, Control_c, 0, 64, 127
2, 216480, Note_on_c, 0, 63, 72
2, 216480, Note_on_c, 0, 67, 72
2, 216480, Note_on_c, 0, 70, 72
2, 216600, Note_on_c, 0, 70, 0
2, 216600, Note_on_c, 0, 67, 0
2, 216600, Note_on_c, 0, 63, 0
2, 216600, Note_on_c, 0, 58, 72
2, 216720, Note_on_c, 0, 58, 0
2, 216720, Note_on_c, 0, 63, 72
2, 216720, Note_on_c, 0, 67, 72
2, 216720, Note_on_c, 0, 70, 72
2, 216840, Note_on_c, 0, 70, 0
2, 216840, Note_on_c, 0, 67, 0
2, 216840, Note_on_c, 0, 63, 0
2, 216840, Note_on_c, 0, 58, 72
2, 216960, Note_on_c, 0, 58, 0
2, 216960, Note_on_c, 0, 63, 72
2, 216960, Note_on_c, 0, 67, 72
2, 216960, Note_on_c, 0, 70, 72
2, 217080, Note_on_c, 0, 70, 0
2, 217080, Note_on_c, 0, 67, 0
2, 217080, Note_on_c, 0, 63, 0
2, 217080, Note_on_c, 0, 58, 72
2, 217200, Note_on_c, 0, 58, 0
2, 217200, Note_on_c, 0, 64, 85
2, 217200, Note_on_c, 0, 67, 85
2, 217200, Note_on_c, 0, 70, 85
2, 217320, Note_on_c, 0, 70, 0
2, 217320, Note_on_c, 0, 67, 0
2, 217320, Note_on_c, 0, 64, 0
2, 217320, Note_on_c, 0, 58, 85
2, 217440, Note_on_c, 0, 58, 0
2, 217440, Note_on_c, 0, 64, 85
2, 217440, Note_on_c, 0, 67, 85
2, 217440, Note_on_c, 0, 70, 85
2, 217560, Note_on_c, 0, 70, 0
2, 217560, Note_on_c, 0, 67, 0
2, 217560, Note_on_c, 0, 64, 0
2, 217560, Note_on_c, 0, 58, 85
2, 217680, Note_on_c, 0, 58, 0
2, 217680, Note_on_c, 0, 64, 85
2, 217680, Note_on_c, 0, 67, 85
2, 217680, Note_on_c, 0, 70, 85
2, 217800, Note_on_c, 0, 70, 0
2, 217800, Note_on_c, 0, 67, 0
2, 217800, Note_on_c, 0, 64, 0
2, 217800, Control_c, 0, 64, 0
2, 217800, Note_on_c, 0, 58, 85
2, 217920, Note_on_c, 0, 58, 0
2, 217920, Control_c, 0, 64, 127
2, 217920, Note_on_c, 0, 63, 72
2, 217920, Note_on_c, 0, 67, 72
2, 217920, Note_on_c, 0, 70, 72
2, 218040, Note_on_c, 0, 70, 0
2, 218040, Note_on_c, 0, 67, 0
2, 218040, Note_on_c, 0, 63, 0
2, 218040, Note_on_c, 0, 58, 72
2, 218160, Note_on_c, 0, 58, 0
2, 218160, Note_on_c, 0, 63, 72
2, 218160, Note_on_c, 0, 67, 72
2, 218160, Note_on_c, 0, 70, 72
2, 218280, Note_on_c, 0, 70, 0
2, 218280, Note_on_c, 0, 67, 0
2, 218280, Note_on_c, 0, 63, 0
2, 218280, Note_on_c, 0, 58, 72
2, 218400, Note_on_c, 0, 58, 0
2, 218400, Note_on_c, 0, 63, 72
2, 218400, Note_on_c, 0, 67, 72
2, 218400, Note_on_c, 0, 70, 72
2, 218520, Note_on_c, 0, 70, 0
2, 218520, Note_on_c, 0, 67, 0
2, 218520, Note_on_c, 0, 63, 0
2, 218520, Note_on_c, 0, 58, 72
2, 218640, Note_on_c, 0, 58, 0
2, 218640, Note_on_c, 0, 63, 72
2, 218640, Note_on_c, 0, 67, 72
2, 218640, Note_on_c, 0, 70, 72
2, 218760, Note_on_c, 0, 70, 0
2, 218760, Note_on_c, 0, 67, 0
2, 218760, Note_on_c, 0, 63, 0
2, 218760, Note_on_c, 0, 58, 72
2, 218880, Note_on_c, 0, 58, 0
2, 218880, Note_on_c, 0, 63, 72
2, 218880, Note_on_c, 0, 67, 72
2, 218880, Note_on_c, 0, 70, 72
2, 219000, Note_on_c, 0, 70, 0
2, 219000, Note_on_c, 0, 67, 0
2, 219000, Note_on_c, 0, 63, 0
2, 219000, Note_on_c, 0, 58, 72
2, 219120, Note_on_c, 0, 58, 0
2, 219120, Note_on_c, 0, 63, 72
2, 219120, Note_on_c, 0, 67, 72
2, 219120, Note_on_c, 0, 70, 72
2, 219240, Note_on_c, 0, 70, 0
2, 219240, Note_on_c, 0, 67, 0
2, 219240, Note_on_c, 0, 63, 0
2, 219240, Control_c, 0, 64, 0
2, 219240, Note_on_c, 0, 58, 72
2, 219360, Note_on_c, 0, 58, 0
2, 219360, Control_c, 0, 64, 127
2, 219360, Note_on_c, 0, 63, 72
2, 219360, Note_on_c, 0, 67, 72
2, 219360, Note_on_c, 0, 70, 72
2, 219480, Note_on_c, 0, 70, 0
2, 219480, Note_on_c, 0, 67, 0
2, 219480, Note_on_c, 0, 63, 0
2, 219480, Note_on_c, 0, 58, 72
2, 219600, Note_on_c, 0, 58, 0
2, 219600, Note_on_c, 0, 63, 72
2, 219600, Note_on_c, 0, 67, 72
2, 219600, Note_on_c, 0, 70, 72
2, 219720, Note_on_c, 0, 70, 0
2, 219720, Note_on_c, 0, 67, 0
2, 219720, Note_on_c, 0, 63, 0
2, 219720, Note_on_c, 0, 58, 72
2, 219840, Note_on_c, 0, 58, 0
2, 219840, Note_on_c, 0, 63, 72
2, 219840, Note_on_c, 0, 67, 72
2, 219840, Note_on_c, 0, 70, 72
2, 219960, Note_on_c, 0, 70, 0
2, 219960, Note_on_c, 0, 67, 0
2, 219960, Note_on_c, 0, 63, 0
2, 219960, Control_c, 0, 64, 0
2, 219960, Note_on_c, 0, 58, 72
2, 220080, Note_on_c, 0, 58, 0
2, 220080, Note_on_c, 0, 70, 85
2, 220440, Note_on_c, 0, 70, 0
2, 220440, Note_on_c, 0, 72, 85
2, 220560, Note_on_c, 0, 72, 0
2, 220560, Note_on_c, 0, 70, 85
2, 220800, Note_on_c, 0, 70, 0
2, 220800, Control_c, 0, 64, 127
2, 220800, Note_on_c, 0, 67, 59
2, 220800, Note_on_c, 0, 70, 59
2, 220800, Note_on_c, 0, 75, 59
2, 220920, Note_on_c, 0, 75, 0
2, 220920, Note_on_c, 0, 70, 0
2, 220920, Note_on_c, 0, 67, 0
2, 220920, Note_on_c, 0, 63, 59
2, 221040, Note_on_c, 0, 63, 0
2, 221040, Note_on_c, 0, 67, 59
2, 221040, Note_on_c, 0, 70, 59
2, 221040, Note_on_c, 0, 75, 59
2, 221160, Note_on_c, 0, 75, 0
2, 221160, Note_on_c, 0, 70, 0
2, 221160, Note_on_c, 0, 67, 0
2, 221160, Note_on_c, 0, 63, 59
2, 221280, Note_on_c, 0, 63, 0
2, 221280, Note_on_c, 0, 67, 59
2, 221280, Note_on_c, 0, 70, 59
2, 221280, Note_on_c, 0, 75, 59
2, 221400, Note_on_c, 0, 75, 0
2, 221400, Note_on_c, 0, 70, 0
2, 221400, Note_on_c, 0, 67, 0
2, 221400, Note_on_c, 0, 63, 59
2, 221520, Note_on_c, 0, 63, 0
2, 221520, Note_on_c, 0, 67, 59
2, 221520, Note_on_c, 0, 70, 59
2, 221520, Note_on_c, 0, 75, 59
2, 221640, Note_on_c, 0, 75, 0
2, 221640, Note_on_c, 0, 70, 0
2, 221640, Note_on_c, 0, 67, 0
2, 221640, Note_on_c, 0, 63, 59
2, 221760, Note_on_c, 0, 63, 0
2, 221760, Note_on_c, 0, 67, 59
2, 221760, Note_on_c, 0, 70, 59
2, 221760, Note_on_c, 0, 75, 59
2, 221880, Note_on_c, 0, 75, 0
2, 221880, Note_on_c, 0, 70, 0
2, 221880, Note_on_c, 0, 67, 0
2, 221880, Note_on_c, 0, 63, 59
2, 222000, Note_on_c, 0, 63, 0
2, 222000, Note_on_c, 0, 67, 59
2, 222000, Note_on_c, 0, 70, 59
2, 222000, Note_on_c, 0, 75, 59
2, 222120, Note_on_c, 0, 75, 0
2, 222120, Note_on_c, 0, 70, 0
2, 222120, Note_on_c, 0, 67, 0
2, 222120, Note_on_c, 0, 63, 59
2, 222240, Note_on_c, 0, 63, 0
2, 222240, Note_on_c, 0, 67, 59
2, 222240, Note_on_c, 0, 70, 59
2, 222240, Note_on_c, 0, 75, 59
2, 222360, Note_on_c, 0, 75, 0
2, 222360, Note_on_c, 0, 70, 0
2, 222360, Note_on_c, 0, 67, 0
2, 222360, Note_on_c, 0, 63, 59
2, 222480, Note_on_c, 0, 63, 0
2, 222480, Note_on_c, 0, 67, 59
2, 222480, Note_on_c, 0, 70, 59
2, 222480, Note_on_c, 0, 75, 59
2, 222600, Note_on_c, 0, 75, 0
2, 222600, Note_on_c, 0, 70, 0
2, 222600, Note_on_c, 0, 67, 0
2, 222600, Note_on_c, 0, 63, 59
2, 222720, Note_on_c, 0, 63, 0
2, 222720, Note_on_c, 0, 67, 59
2, 222720, Note_on_c, 0, 70, 59
2, 222720, Note_on_c, 0, 75, 59
2, 222840, Note_on_c, 0, 75, 0
2, 222840, Note_on_c, 0, 70, 0
2, 222840, Note_on_c, 0, 67, 0
2, 222840, Note_on_c, 0, 63, 59
2, 222960, Note_on_c, 0, 63, 0
2, 222960, Note_on_c, 0, 67, 59
2, 222960, Note_on_c, 0, 70, 59
2, 222960, Note_on_c, 0, 75, 59
2, 223080, Note_on_c, 0, 75, 0
2, 223080, Note_on_c, 0, 70, 0
2, 223080, Note_on_c, 0, 67, 0
2, 223080, Note_on_c, 0, 63, 59
2, 223200, Note_on_c, 0, 63, 0
2, 223200, Note_on_c, 0, 67, 59
2, 223200, Note_on_c, 0, 70, 59
2, 223200, Note_on_c, 0, 75, 59
2, 223320, Note_on_c, 0, 75, 0
2, 223320, Note_on_c, 0, 70, 0
2, 223320, Note_on_c, 0, 67, 0
2, 223320, Note_on_c, 0, 63, 59
2, 223440, Note_on_c, 0, 63, 0
2, 223440, Note_on_c, 0, 67, 59
2, 223440, Note_on_c, 0, 70, 59
2, 223440, Note_on_c, 0, 75, 59
2, 223560, Note_on_c, 0, 75, 0
2, 223560, Note_on_c, 0, 70, 0
2, 223560, Note_on_c, 0, 67, 0
2, 223560, Control_c, 0, 64, 0
2, 223560, Note_on_c, 0, 63, 59
2, 223680, Note_on_c, 0, 63, 0
2, 223680, Control_c, 0, 64, 127
2, 223680, Note_on_c, 0, 67, 72
2, 223680, Note_on_c, 0, 70, 72
2, 223680, Note_on_c, 0, 75, 72
2, 223800, Note_on_c, 0, 75, 0
2, 223800, Note_on_c, 0, 70, 0
2, 223800, Note_on_c, 0, 67, 0
2, 223800, Note_on_c, 0, 63, 72
2, 223920, Note_on_c, 0, 63, 0
2, 223920, Note_on_c, 0, 67, 72
2, 223920, Note_on_c, 0, 70, 72
2, 223920, Note_on_c, 0, 75, 72
2, 224040, Note_on_c, 0, 75, 0
2, 224040, Note_on_c, 0, 70, 0
2, 224040, Note_on_c, 0, 67, 0
2, 224040, Note_on_c, 0, 63, 72
2, 224160, Note_on_c, 0, 63, 0
2, 224160, Note_on_c, 0, 67, 72
2, 224160, Note_on_c, 0, 70, 72
2, 224160, Note_on_c, 0, 75, 72
2, 224280, Note_on_c, 0, 75, 0
2, 224280, Note_on_c, 0, 70, 0
2, 224280, Note_on_c, 0, 67, 0
2, 224280, Note_on_c, 0, 63, 72
2, 224400, Note_on_c, 0, 63, 0
2, 224400, Note_on_c, 0, 67, 72
2, 224400, Note_on_c, 0, 70, 72
2, 224400, Note_on_c, 0, 75, 72
2, 224520, Note_on_c, 0, 75, 0
2, 224520, Note_on_c, 0, 70, 0
2, 224520, Note_on_c, 0, 67, 0
2, 224520, Note_on_c, 0, 63, 72
2, 224640, Note_on_c, 0, 63, 0
2, 224640, Note_on_c, 0, 67, 72
2, 224640, Note_on_c, 0, 70, 72
2, 224640, Note_on_c, 0, 75, 72
2, 224760, Note_on_c, 0, 75, 0
2, 224760, Note_on_c, 0, 70, 0
2, 224760, Note_on_c, 0, 67, 0
2, 224760, Note_on_c, 0, 63, 72
2, 224880, Note_on_c, 0, 63, 0
2, 224880, Note_on_c, 0, 67, 72
2, 224880, Note_on_c, 0, 70, 72
2, 224880, Note_on_c, 0, 75, 72
2, 225000, Note_on_c, 0, 75, 0
2, 225000, Note_on_c, 0, 70, 0
2, 225000, Note_on_c, 0, 67, 0
2, 225000, Note_on_c, 0, 63, 72
2, 225120, Note_on_c, 0, 63, 0
2, 225120, Note_on_c, 0, 67, 72
2, 225120, Note_on_c, 0, 70, 72
2, 225120, Note_on_c, 0, 75, 72
2, 225240, Note_on_c, 0, 75, 0
2, 225240, Note_on_c, 0, 70, 0
2, 225240, Note_on_c, 0, 67, 0
2, 225240, Note_on_c, 0, 63, 72
2, 225360, Note_on_c, 0, 63, 0
2, 225360, Note_on_c, 0, 67, 72
2, 225360, Note_on_c, 0, 70, 72
2, 225360, Note_on_c, 0, 75, 72
2, 225480, Note_on_c, 0, 75, 0
2, 225480, Note_on_c, 0, 70, 0
2, 225480, Note_on_c, 0, 67, 0
2, 225480, Note_on_c, 0, 63, 72
2, 225600, Note_on_c, 0, 63, 0
2, 225600, Note_on_c, 0, 67, 72
2, 225600, Note_on_c, 0, 70, 72
2, 225600, Note_on_c, 0, 75, 72
2, 225720, Note_on_c, 0, 75, 0
2, 225720, Note_on_c, 0, 70, 0
2, 225720, Note_on_c, 0, 67, 0
2, 225720, Note_on_c, 0, 63, 72
2, 225840, Note_on_c, 0, 63, 0
2, 225840, Note_on_c, 0, 67, 72
2, 225840, Note_on_c, 0, 70, 72
2, 225840, Note_on_c, 0, 75, 72
2, 225960, Note_on_c, 0, 75, 0
2, 225960, Note_on_c, 0, 70, 0
2, 225960, Note_on_c, 0, 67, 0
2, 225960, Note_on_c, 0, 63, 72
2, 226080, Note_on_c, 0, 63, 0
2, 226080, Note_on_c, 0, 67, 72
2, 226080, Note_on_c, 0, 70, 72
2, 226080, Note_on_c, 0, 75, 72
2, 226200, Note_on_c, 0, 75, 0
2, 226200, Note_on_c, 0, 70, 0
2, 226200, Note_on_c, 0, 67, 0
2, 226200, Note_on_c, 0, 63, 72
2, 226320, Note_on_c, 0, 63, 0
2, 226320, Note_on_c, 0, 67, 72
2, 226320, Note_on_c, 0, 70, 72
2, 226320, Note_on_c, 0, 75, 72
2, 226440, Note_on_c, 0, 75, 0
2, 226440, Note_on_c, 0, 70, 0
2, 226440, Note_on_c, 0, 67, 0
2, 226440, Control_c, 0, 64, 0
2, 226440, Note_on_c, 0, 63, 72
2, 226560, Note_on_c, 0, 63, 0
2, 226560, Control_c, 0, 64, 127
2, 226560, Note_on_c, 0, 67, 85
2, 226560, Note_on_c, 0, 70, 85
2, 226560, Note_on_c, 0, 75, 85
2, 226680, Note_on_c, 0, 75, 0
2, 226680, Note_on_c, 0, 70, 0
2, 226680, Note_on_c, 0, 67, 0
2, 226680, Note_on_c, 0, 63, 85
2, 226800, Note_on_c, 0, 63, 0
2, 226800, Note_on_c, 0, 67, 85
2, 226800, Note_on_c, 0, 70, 85
2, 226800, Note_on_c, 0, 75, 85
2, 226920, Note_on_c, 0, 75, 0
2, 226920, Note_on_c, 0, 70, 0
2, 226920, Note_on_c, 0, 67, 0
2, 226920, Note_on_c, 0, 63, 85
2, 227040, Note_on_c, 0, 63, 0
2, 227040, Note_on_c, 0, 67, 85
2, 227040, Note_on_c, 0, 70, 85
2, 227040, Note_on_c, 0, 75, 85
2, 227160, Note_on_c, 0, 75, 0
2, 227160, Note_on_c, 0, 70, 0
2, 227160, Note_on_c, 0, 67, 0
2, 227160, Note_on_c, 0, 63, 85
2, 227280, Note_on_c, 0, 63, 0
2, 227280, Note_on_c, 0, 67, 85
2, 227280, Note_on_c, 0, 70, 85
2, 227280, Note_on_c, 0, 75, 85
2, 227400, Note_on_c, 0, 75, 0
2, 227400, Note_on_c, 0, 70, 0
2, 227400, Note_on_c, 0, 67, 0
2, 227400, Note_on_c, 0, 63, 85
2, 227520, Note_on_c, 0, 63, 0
2, 227520, Note_on_c, 0, 67, 85
2, 227520, Note_on_c, 0, 70, 85
2, 227520, Note_on_c, 0, 75, 85
2, 227640, Note_on_c, 0, 75, 0
2, 227640, Note_on_c, 0, 70, 0
2, 227640, Note_on_c, 0, 67, 0
2, 227640, Note_on_c, 0, 63, 85
2, 227760, Note_on_c, 0, 63, 0
2, 227760, Note_on_c, 0, 67, 85
2, 227760, Note_on_c, 0, 70, 85
2, 227760, Note_on_c, 0, 75, 85
2, 227880, Note_on_c, 0, 75, 0
2, 227880, Note_on_c, 0, 70, 0
2, 227880, Note_on_c, 0, 67, 0
2, 227880, Note_on_c, 0, 63, 85
2, 228000, Note_on_c, 0, 63, 0
2, 228000, Note_on_c, 0, 67, 85
2, 228000, Note_on_c, 0, 70, 85
2, 228000, Note_on_c, 0, 75, 85
2, 228120, Note_on_c, 0, 75, 0
2, 228120, Note_on_c, 0, 70, 0
2, 228120, Note_on_c, 0, 67, 0
2, 228120, Note_on_c, 0, 63, 85
2, 228240, Note_on_c, 0, 63, 0
2, 228240, Note_on_c, 0, 67, 85
2, 228240, Note_on_c, 0, 70, 85
2, 228240, Note_on_c, 0, 75, 85
2, 228360, Note_on_c, 0, 75, 0
2, 228360, Note_on_c, 0, 70, 0
2, 228360, Note_on_c, 0, 67, 0
2, 228360, Note_on_c, 0, 63, 85
2, 228480, Note_on_c, 0, 63, 0
2, 228480, Note_on_c, 0, 67, 85
2, 228480, Note_on_c, 0, 70, 85
2, 228480, Note_on_c, 0, 75, 85
2, 228600, Note_on_c, 0, 75, 0
2, 228600, Note_on_c, 0, 70, 0
2, 228600, Note_on_c, 0, 67, 0
2, 228600, Note_on_c, 0, 63, 85
2, 228720, Note_on_c, 0, 63, 0
2, 228720, Note_on_c, 0, 67, 85
2, 228720, Note_on_c, 0, 70, 85
2, 228720, Note_on_c, 0, 75, 85
2, 228840, Note_on_c, 0, 75, 0
2, 228840, Note_on_c, 0, 70, 0
2, 228840, Note_on_c, 0, 67, 0
2, 228840, Note_on_c, 0, 63, 85
2, 228960, Note_on_c, 0, 63, 0
2, 228960, Note_on_c, 0, 67, 85
2, 228960, Note_on_c, 0, 70, 85
2, 228960, Note_on_c, 0, 75, 85
2, 229080, Note_on_c, 0, 75, 0
2, 229080, Note_on_c, 0, 70, 0
2, 229080, Note_on_c, 0, 67, 0
2, 229080, Note_on_c, 0, 63, 85
2, 229200, Note_on_c, 0, 63, 0
2, 229200, Note_on_c, 0, 67, 85
2, 229200, Note_on_c, 0, 70, 85
2, 229200, Note_on_c, 0, 75, 85
2, 229320, Note_on_c, 0, 75, 0
2, 229320, Note_on_c, 0, 70, 0
2, 229320, Note_on_c, 0, 67, 0
2, 229320, Control_c, 0, 64, 0
2, 229320, Note_on_c, 0, 63, 85
2, 229440, Note_on_c, 0, 63, 0
2, 229440, Note_on_c, 0, 67, 111
2, 229440, Note_on_c, 0, 70, 111
2, 229440, Note_on_c, 0, 75, 111
2, 229680, Note_on_c, 0, 75, 0
2, 229680, Note_on_c, 0, 70, 0
2, 229680, Note_on_c, 0, 67, 0
2, 230160, Note_on_c, 0, 58, 98
2, 230160, Note_on_c, 0, 63, 98
2, 230160, Note_on_c, 0, 67, 98
2, 230160, Note_on_c, 0, 70, 98
2, 230400, Note_on_c, 0, 70, 0
2, 230400, Note_on_c, 0, 58, 0
2, 230400, Note_on_c, 0, 63, 0
2, 230400, Note_on_c, 0, 67, 0
2, 230880, Note_on_c, 0, 57, 98
2, 230880, Note_on_c, 0, 64, 98
2, 230880, Note_on_c, 0, 67, 98
2, 230880, Note_on_c, 0, 69, 98
2, 231120, Note_on_c, 0, 69, 0
2, 231120, Note_on_c, 0, 57, 0
2, 231120, Note_on_c, 0, 64, 0
2, 231120, Note_on_c, 0, 67, 0
2, 231600, Note_on_c, 0, 62, 124
2, 231600, Note_on_c, 0, 66, 124
2, 231600, Note_on_c, 0, 69, 124
2, 231600, Note_on_c, 0, 74, 124
2, 231840, Note_on_c, 0, 74, 0
2, 231840, Note_on_c, 0, 62, 0
2, 231840, Note_on_c, 0, 66, 0
2, 231840, Note_on_c, 0, 69, 0
2, 231840, Control_c, 0, 64, 127
2, 234240, Control_c, 0, 64, 0
2, 234240, End_track
3, 0, Start_track
3, 0, Title_t, "Grand Piano"
3, 0, Program_c, 0, 0
3, 0, Control_c, 0, 7, 115
3, 0, Control_c, 0, 10, 80
3, 92280, Note_on_c, 0, 78, 67
3, 92400, Note_on_c, 0, 78, 0
3, 92400, Note_on_c, 0, 77, 67
3, 92520, Note_on_c, 0, 77, 0
3, 92520, Note_on_c, 0, 78, 67
3, 92640, Note_on_c, 0, 78, 0
3, 92640, Note_on_c, 0, 81, 67
3, 92687, Note_on_c, 0, 81, 0
3, 92880, Note_on_c, 0, 79, 67
3, 92927, Note_on_c, 0, 79, 0
3, 93120, Note_on_c, 0, 71, 67
3, 94080, Note_on_c, 0, 71, 0
3, 94080, Note_on_c, 0, 71, 67
3, 94080, Note_on_c, 0, 75, 67
3, 95040, Note_on_c, 0, 75, 0
3, 95040, Note_on_c, 0, 71, 0
3, 95040, Note_on_c, 0, 71, 67
3, 95040, Note_on_c, 0, 76, 67
3, 95280, Note_on_c, 0, 76, 0
3, 95280, Note_on_c, 0, 71, 0
3, 96120, Note_on_c, 0, 76, 67
3, 96240, Note_on_c, 0, 76, 0
3, 96240, Note_on_c, 0, 75, 67
3, 96360, Note_on_c, 0, 75, 0
3, 96360, Note_on_c, 0, 76, 67
3, 96480, Note_on_c, 0, 76, 0
3, 96480, Note_on_c, 0, 79, 67
3, 96720, Note_on_c, 0, 79, 0
3, 96720, Note_on_c, 0, 78, 67
3, 96767, Note_on_c, 0, 78, 0
3, 96960, Note_on_c, 0, 69, 67
3, 97920, Note_on_c, 0, 69, 0
3, 97920, Note_on_c, 0, 69, 67
3, 97920, Note_on_c, 0, 73, 67
3, 98880, Note_on_c, 0, 73, 0
3, 98880, Note_on_c, 0, 69, 0
3, 98880, Note_on_c, 0, 69, 67
3, 98880, Note_on_c, 0, 74, 67
3, 99120, Note_on_c, 0, 74, 0
3, 99120, Note_on_c, 0, 69, 0
3, 100320, Note_on_c, 0, 71, 67
3, 100800, Note_on_c, 0, 71, 0
3, 100800, Note_on_c, 0, 73, 67
3, 101040, Note_on_c, 0, 73, 0
3, 102240, Note_on_c, 0, 69, 67
3, 102720, Note_on_c, 0, 69, 0
3, 102720, Note_on_c, 0, 71, 67
3, 102960, Note_on_c, 0, 71, 0
3, 104160, Note_on_c, 0, 68, 80
3, 104640, Note_on_c, 0, 68, 0
3, 104640, Note_on_c, 0, 69, 80
3, 104880, Note_on_c, 0, 69, 0
3, 200640, Note_on_c, 0, 82, 93
3, 201360, Note_on_c, 0, 82, 0
3, 201360, Note_on_c, 0, 82, 93
3, 202080, Note_on_c, 0, 82, 0
3, 202080, Note_on_c, 0, 82, 93
3, 202800, Note_on_c, 0, 82, 0
3, 202800, Note_on_c, 0, 82, 93
3, 203520, Note_on_c, 0, 82, 0
3, 203520, Note_on_c, 0, 83, 93
3, 204240, Note_on_c, 0, 83, 0
3, 204240, Note_on_c, 0, 83, 93
3, 204960, Note_on_c, 0, 83, 0
3, 204960, Note_on_c, 0, 83, 93
3, 205680, Note_on_c, 0, 83, 0
3, 205680, Note_on_c, 0, 83, 93
3, 206400, Note_on_c, 0, 83, 0
3, 214320, Note_on_c, 0, 60, 67
3, 214320, Note_on_c, 0, 66, 67
3, 215040, Note_on_c, 0, 66, 0
3, 215040, Note_on_c, 0, 60, 0
3, 220080, Note_on_c, 0, 63, 80
3, 220080, Note_on_c, 0, 67, 80
3, 220800, Note_on_c, 0, 67, 0
3, 220800, Note_on_c, 0, 63, 0
3, 220800, End_track
4, 0, Start_track
4, 0, Title_t, "Grand Piano"
4, 0, Program_c, 0, 0
4, 0, Control_c, 0, 7, 115
4, 0, Control_c, 0, 10, 41
4, 0, Note_on_c, 0, 38, 59
4, 0, Note_on_c, 0, 45, 59
4, 47, Note_on_c, 0, 45, 0
4, 47, Note_on_c, 0, 38, 0
4, 240, Note_on_c, 0, 38, 59
4, 240, Note_on_c, 0, 45, 59
4, 287, Note_on_c, 0, 45, 0
4, 287, Note_on_c, 0, 38, 0
4, 480, Note_on_c, 0, 47, 59
4, 527, Note_on_c, 0, 47, 0
4, 720, Note_on_c, 0, 47, 59
4, 767, Note_on_c, 0, 47, 0
4, 960, Note_on_c, 0, 38, 59
4, 960, Note_on_c, 0, 45, 59
4, 1007, Note_on_c, 0, 45, 0
4, 1007, Note_on_c, 0, 38, 0
4, 1200, Note_on_c, 0, 38, 59
4, 1200, Note_on_c, 0, 45, 59
4, 1247, Note_on_c, 0, 45, 0
4, 1247, Note_on_c, 0, 38, 0
4, 1440, Note_on_c, 0, 47, 59
4, 1487, Note_on_c, 0, 47, 0
4, 1680, Note_on_c, 0, 47, 59
4, 1727, Note_on_c, 0, 47, 0
4, 1920, Note_on_c, 0, 38, 59
4, 1920, Note_on_c, 0, 45, 59
4, 1967, Note_on_c, 0, 45, 0
4, 1967, Note_on_c, 0, 38, 0
4, 2160, Note_on_c, 0, 38, 59
4, 2160, Note_on_c, 0, 45, 59
4, 2207, Note_on_c, 0, 45, 0
4, 2207, Note_on_c, 0, 38, 0
4, 2400, Note_on_c, 0, 47, 59
4, 2447, Note_on_c, 0, 47, 0
4, 2640, Note_on_c, 0, 47, 59
4, 2687, Note_on_c, 0, 47, 0
4, 2880, Note_on_c, 0, 38, 59
4, 2880, Note_on_c, 0, 45, 59
4, 2927, Note_on_c, 0, 45, 0
4, 2927, Note_on_c, 0, 38, 0
4, 3120, Note_on_c, 0, 38, 59
4, 3120, Note_on_c, 0, 45, 59
4, 3167, Note_on_c, 0, 45, 0
4, 3167, Note_on_c, 0, 38, 0
4, 3360, Note_on_c, 0, 47, 59
4, 3407, Note_on_c, 0, 47, 0
4, 3600, Note_on_c, 0, 47, 59
4, 3647, Note_on_c, 0, 47, 0
4, 3840, Note_on_c, 0, 38, 59
4, 3840, Note_on_c, 0, 45, 59
4, 3887, Note_on_c, 0, 45, 0
4, 3887, Note_on_c, 0, 38, 0
4, 4080, Note_on_c, 0, 38, 59
4, 4080, Note_on_c, 0, 45, 59
4, 4127, Note_on_c, 0, 45, 0
4, 4127, Note_on_c, 0, 38, 0
4, 4320, Note_on_c, 0, 47, 59
4, 4367, Note_on_c, 0, 47, 0
4, 4560, Note_on_c, 0, 47, 59
4, 4607, Note_on_c, 0, 47, 0
4, 4800, Note_on_c, 0, 38, 59
4, 4800, Note_on_c, 0, 45, 59
4, 4847, Note_on_c, 0, 45, 0
4, 4847, Note_on_c, 0, 38, 0
4, 5040, Note_on_c, 0, 38, 59
4, 5040, Note_on_c, 0, 45, 59
4, 5087, Note_on_c, 0, 45, 0
4, 5087, Note_on_c, 0, 38, 0
4, 5280, Note_on_c, 0, 48, 59
4, 5327, Note_on_c, 0, 48, 0
4, 5520, Note_on_c, 0, 48, 59
4, 5567, Note_on_c, 0, 48, 0
4, 5760, Note_on_c, 0, 38, 59
4, 5760, Note_on_c, 0, 45, 59
4, 5807, Note_on_c, 0, 45, 0
4, 5807, Note_on_c, 0, 38, 0
4, 6000, Note_on_c, 0, 38, 59
4, 6000, Note_on_c, 0, 45, 59
4, 6047, Note_on_c, 0, 45, 0
4, 6047, Note_on_c, 0, 38, 0
4, 6240, Note_on_c, 0, 49, 59
4, 6287, Note_on_c, 0, 49, 0
4, 6480, Note_on_c, 0, 49, 59
4, 6527, Note_on_c, 0, 49, 0
4, 6720, Note_on_c, 0, 38, 59
4, 6720, Note_on_c, 0, 45, 59
4, 6767, Note_on_c, 0, 45, 0
4, 6767, Note_on_c, 0, 38, 0
4, 6960, Note_on_c, 0, 38, 59
4, 6960, Note_on_c, 0, 45, 59
4, 7007, Note_on_c, 0, 45, 0
4, 7007, Note_on_c, 0, 38, 0
4, 7200, Note_on_c, 0, 50, 59
4, 7247, Note_on_c, 0, 50, 0
4, 7440, Note_on_c, 0, 50, 59
4, 7487, Note_on_c, 0, 50, 0
4, 7680, Note_on_c, 0, 38, 59
4, 7680, Note_on_c, 0, 45, 59
4, 7727, Note_on_c, 0, 45, 0
4, 7727, Note_on_c, 0, 38, 0
4, 7920, Note_on_c, 0, 38, 59
4, 7920, Note_on_c, 0, 45, 59
4, 7967, Note_on_c, 0, 45, 0
4, 7967, Note_on_c, 0, 38, 0
4, 8160, Note_on_c, 0, 54, 59
4, 8207, Note_on_c, 0, 54, 0
4, 8400, Note_on_c, 0, 54, 59
4, 8447, Note_on_c, 0, 54, 0
4, 8640, Note_on_c, 0, 50, 59
4, 8687, Note_on_c, 0, 50, 0
4, 8880, Note_on_c, 0, 50, 59
4, 8927, Note_on_c, 0, 50, 0
4, 9120, Note_on_c, 0, 55, 59
4, 9167, Note_on_c, 0, 55, 0
4, 9360, Note_on_c, 0, 55, 59
4, 9407, Note_on_c, 0, 55, 0
4, 9600, Note_on_c, 0, 50, 59
4, 9647, Note_on_c, 0, 50, 0
4, 9840, Note_on_c, 0, 50, 59
4, 9887, Note_on_c, 0, 50, 0
4, 10080, Note_on_c, 0, 56, 59
4, 10127, Note_on_c, 0, 56, 0
4, 10320, Note_on_c, 0, 56, 59
4, 10367, Note_on_c, 0, 56, 0
4, 10560, Note_on_c, 0, 47, 59
4, 10607, Note_on_c, 0, 47, 0
4, 10800, Note_on_c, 0, 47, 59
4, 10847, Note_on_c, 0, 47, 0
4, 11040, Note_on_c, 0, 57, 59
4, 11087, Note_on_c, 0, 57, 0
4, 11280, Note_on_c, 0, 57, 59
4, 11327, Note_on_c, 0, 57, 0
4, 11520, Note_on_c, 0, 38, 59
4, 11520, Note_on_c, 0, 45, 59
4, 11567, Note_on_c, 0, 45, 0
4, 11567, Note_on_c, 0, 38, 0
4, 11760, Note_on_c, 0, 38, 59
4, 11760, Note_on_c, 0, 45, 59
4, 11807, Note_on_c, 0, 45, 0
4, 11807, Note_on_c, 0, 38, 0
4, 12000, Note_on_c, 0, 47, 59
4, 12047, Note_on_c, 0, 47, 0
4, 12240, Note_on_c, 0, 47, 59
4, 12287, Note_on_c, 0, 47, 0
4, 12480, Note_on_c, 0, 38, 59
4, 12480, Note_on_c, 0, 45, 59
4, 12527, Note_on_c, 0, 45, 0
4, 12527, Note_on_c, 0, 38, 0
4, 12720, Note_on_c, 0, 38, 59
4, 12720, Note_on_c, 0, 45, 59
4, 12767, Note_on_c, 0, 45, 0
4, 12767, Note_on_c, 0, 38, 0
4, 12960, Note_on_c, 0, 48, 59
4, 13007, Note_on_c, 0, 48, 0
4, 13200, Note_on_c, 0, 48, 59
4, 13247, Note_on_c, 0, 48, 0
4, 13440, Note_on_c, 0, 38, 59
4, 13440, Note_on_c, 0, 45, 59
4, 13487, Note_on_c, 0, 45, 0
4, 13487, Note_on_c, 0, 38, 0
4, 13680, Note_on_c, 0, 38, 59
4, 13680, Note_on_c, 0, 45, 59
4, 13727, Note_on_c, 0, 45, 0
4, 13727, Note_on_c, 0, 38, 0
4, 13920, Note_on_c, 0, 49, 59
4, 13967, Note_on_c, 0, 49, 0
4, 14160, Note_on_c, 0, 49, 59
4, 14207, Note_on_c, 0, 49, 0
4, 14400, Note_on_c, 0, 38, 59
4, 14400, Note_on_c, 0, 45, 59
4, 14447, Note_on_c, 0, 45, 0
4, 14447, Note_on_c, 0, 38, 0
4, 14640, Note_on_c, 0, 38, 59
4, 14640, Note_on_c, 0, 45, 59
4, 14687, Note_on_c, 0, 45, 0
4, 14687, Note_on_c, 0, 38, 0
4, 14880, Note_on_c, 0, 50, 59
4, 14927, Note_on_c, 0, 50, 0
4, 15120, Note_on_c, 0, 50, 59
4, 15167, Note_on_c, 0, 50, 0
4, 15360, Note_on_c, 0, 38, 59
4, 15360, Note_on_c, 0, 45, 59
4, 15407, Note_on_c, 0, 45, 0
4, 15407, Note_on_c, 0, 38, 0
4, 15600, Note_on_c, 0, 38, 59
4, 15600, Note_on_c, 0, 45, 59
4, 15647, Note_on_c, 0, 45, 0
4, 15647, Note_on_c, 0, 38, 0
4, 15840, Note_on_c, 0, 54, 59
4, 15887, Note_on_c, 0, 54, 0
4, 16080, Note_on_c, 0, 54, 59
4, 16127, Note_on_c, 0, 54, 0
4, 16320, Note_on_c, 0, 47, 59
4, 16367, Note_on_c, 0, 47, 0
4, 16560, Note_on_c, 0, 47, 59
4, 16607, Note_on_c, 0, 47, 0
4, 16800, Note_on_c, 0, 52, 59
4, 16847, Note_on_c, 0, 52, 0
4, 17040, Note_on_c, 0, 52, 59
4, 17087, Note_on_c, 0, 52, 0
4, 17280, Note_on_c, 0, 45, 59
4, 17327, Note_on_c, 0, 45, 0
4, 17520, Note_on_c, 0, 45, 59
4, 17567, Note_on_c, 0, 45, 0
4, 17760, Note_on_c, 0, 50, 59
4, 17807, Note_on_c, 0, 50, 0
4, 18000, Note_on_c, 0, 50, 59
4, 18720, Note_on_c, 0, 50, 0
4, 18720, Note_on_c, 0, 49, 59
4, 18767, Note_on_c, 0, 49, 0
4, 19200, Note_on_c, 0, 38, 59
4, 19200, Note_on_c, 0, 45, 59
4, 19247, Note_on_c, 0, 45, 0
4, 19247, Note_on_c, 0, 38, 0
4, 19440, Note_on_c, 0, 38, 59
4, 19440, Note_on_c, 0, 45, 59
4, 19487, Note_on_c, 0, 45, 0
4, 19487, Note_on_c, 0, 38, 0
4, 19680, Note_on_c, 0, 47, 59
4, 19727, Note_on_c, 0, 47, 0
4, 19920, Note_on_c, 0, 47, 59
4, 19967, Note_on_c, 0, 47, 0
4, 20160, Note_on_c, 0, 38, 59
4, 20160, Note_on_c, 0, 45, 59
4, 20207, Note_on_c, 0, 45, 0
4, 20207, Note_on_c, 0, 38, 0
4, 20400, Note_on_c, 0, 38, 59
4, 20400, Note_on_c, 0, 45, 59
4, 20447, Note_on_c, 0, 45, 0
4, 20447, Note_on_c, 0, 38, 0
4, 20640, Note_on_c, 0, 48, 59
4, 20687, Note_on_c, 0, 48, 0
4, 20880, Note_on_c, 0, 48, 59
4, 20927, Note_on_c, 0, 48, 0
4, 21120, Note_on_c, 0, 38, 59
4, 21120, Note_on_c, 0, 45, 59
4, 21167, Note_on_c, 0, 45, 0
4, 21167, Note_on_c, 0, 38, 0
4, 21360, Note_on_c, 0, 38, 59
4, 21360, Note_on_c, 0, 45, 59
4, 21407, Note_on_c, 0, 45, 0
4, 21407, Note_on_c, 0, 38, 0
4, 21600, Note_on_c, 0, 49, 59
4, 21647, Note_on_c, 0, 49, 0
4, 21840, Note_on_c, 0, 49, 59
4, 21887, Note_on_c, 0, 49, 0
4, 22080, Note_on_c, 0, 38, 59
4, 22080, Note_on_c, 0, 45, 59
4, 22127, Note_on_c, 0, 45, 0
4, 22127, Note_on_c, 0, 38, 0
4, 22320, Note_on_c, 0, 38, 59
4, 22320, Note_on_c, 0, 45, 59
4, 22367, Note_on_c, 0, 45, 0
4, 22367, Note_on_c, 0, 38, 0
4, 22560, Note_on_c, 0, 50, 59
4, 22607, Note_on_c, 0, 50, 0
4, 22800, Note_on_c, 0, 50, 59
4, 22847, Note_on_c, 0, 50, 0
4, 23040, Note_on_c, 0, 38, 59
4, 23040, Note_on_c, 0, 45, 59
4, 23087, Note_on_c, 0, 45, 0
4, 23087, Note_on_c, 0, 38, 0
4, 23280, Note_on_c, 0, 38, 59
4, 23280, Note_on_c, 0, 45, 59
4, 23327, Note_on_c, 0, 45, 0
4, 23327, Note_on_c, 0, 38, 0
4, 23520, Note_on_c, 0, 54, 59
4, 23567, Note_on_c, 0, 54, 0
4, 23760, Note_on_c, 0, 54, 59
4, 23807, Note_on_c, 0, 54, 0
4, 24000, Note_on_c, 0, 50, 59
4, 24047, Note_on_c, 0, 50, 0
4, 24240, Note_on_c, 0, 50, 59
4, 24287, Note_on_c, 0, 50, 0
4, 24480, Note_on_c, 0, 55, 59
4, 24527, Note_on_c, 0, 55, 0
4, 24720, Note_on_c, 0, 55, 59
4, 24767, Note_on_c, 0, 55, 0
4, 24960, Note_on_c, 0, 50, 59
4, 25007, Note_on_c, 0, 50, 0
4, 25200, Note_on_c, 0, 50, 59
4, 25247, Note_on_c, 0, 50, 0
4, 25440, Note_on_c, 0, 56, 59
4, 25487, Note_on_c, 0, 56, 0
4, 25680, Note_on_c, 0, 56, 59
4, 25727, Note_on_c, 0, 56, 0
4, 25920, Note_on_c, 0, 47, 59
4, 25967, Note_on_c, 0, 47, 0
4, 26160, Note_on_c, 0, 47, 59
4, 26207, Note_on_c, 0, 47, 0
4, 26400, Note_on_c, 0, 57, 59
4, 26447, Note_on_c, 0, 57, 0
4, 26640, Note_on_c, 0, 57, 59
4, 26687, Note_on_c, 0, 57, 0
4, 26880, Note_on_c, 0, 38, 59
4, 26880, Note_on_c, 0, 45, 59
4, 26927, Note_on_c, 0, 45, 0
4, 26927, Note_on_c, 0, 38, 0
4, 27120, Note_on_c, 0, 38, 59
4, 27120, Note_on_c, 0, 45, 59
4, 27167, Note_on_c, 0, 45, 0
4, 27167, Note_on_c, 0, 38, 0
4, 27360, Note_on_c, 0, 47, 59
4, 27407, Note_on_c, 0, 47, 0
4, 27600, Note_on_c, 0, 47, 59
4, 27647, Note_on_c, 0, 47, 0
4, 27840, Note_on_c, 0, 38, 59
4, 27840, Note_on_c, 0, 45, 59
4, 27887, Note_on_c, 0, 45, 0
4, 27887, Note_on_c, 0, 38, 0
4, 28080, Note_on_c, 0, 38, 59
4, 28080, Note_on_c, 0, 45, 59
4, 28127, Note_on_c, 0, 45, 0
4, 28127, Note_on_c, 0, 38, 0
4, 28320, Note_on_c, 0, 48, 59
4, 28367, Note_on_c, 0, 48, 0
4, 28560, Note_on_c, 0, 48, 59
4, 28607, Note_on_c, 0, 48, 0
4, 28800, Note_on_c, 0, 38, 59
4, 28800, Note_on_c, 0, 45, 59
4, 28847, Note_on_c, 0, 45, 0
4, 28847, Note_on_c, 0, 38, 0
4, 29040, Note_on_c, 0, 38, 59
4, 29040, Note_on_c, 0, 45, 59
4, 29087, Note_on_c, 0, 45, 0
4, 29087, Note_on_c, 0, 38, 0
4, 29280, Note_on_c, 0, 49, 59
4, 29327, Note_on_c, 0, 49, 0
4, 29520, Note_on_c, 0, 49, 59
4, 29567, Note_on_c, 0, 49, 0
4, 29760, Note_on_c, 0, 38, 59
4, 29760, Note_on_c, 0, 45, 59
4, 29807, Note_on_c, 0, 45, 0
4, 29807, Note_on_c, 0, 38, 0
4, 30000, Note_on_c, 0, 38, 59
4, 30000, Note_on_c, 0, 45, 59
4, 30047, Note_on_c, 0, 45, 0
4, 30047, Note_on_c, 0, 38, 0
4, 30240, Note_on_c, 0, 50, 59
4, 30287, Note_on_c, 0, 50, 0
4, 30480, Note_on_c, 0, 50, 59
4, 30527, Note_on_c, 0, 50, 0
4, 30720, Note_on_c, 0, 38, 59
4, 30720, Note_on_c, 0, 45, 59
4, 30767, Note_on_c, 0, 45, 0
4, 30767, Note_on_c, 0, 38, 0
4, 30960, Note_on_c, 0, 38, 59
4, 30960, Note_on_c, 0, 45, 59
4, 31007, Note_on_c, 0, 45, 0
4, 31007, Note_on_c, 0, 38, 0
4, 31200, Note_on_c, 0, 57, 59
4, 31247, Note_on_c, 0, 57, 0
4, 31440, Note_on_c, 0, 57, 59
4, 31487, Note_on_c, 0, 57, 0
4, 31680, Note_on_c, 0, 50, 59
4, 31727, Note_on_c, 0, 50, 0
4, 31920, Note_on_c, 0, 50, 59
4, 31967, Note_on_c, 0, 50, 0
4, 32160, Note_on_c, 0, 56, 59
4, 32207, Note_on_c, 0, 56, 0
4, 32400, Note_on_c, 0, 56, 59
4, 32447, Note_on_c, 0, 56, 0
4, 32640, Note_on_c, 0, 50, 59
4, 32687, Note_on_c, 0, 50, 0
4, 32880, Note_on_c, 0, 50, 59
4, 32927, Note_on_c, 0, 50, 0
4, 33120, Note_on_c, 0, 55, 59
4, 33167, Note_on_c, 0, 55, 0
4, 33360, Note_on_c, 0, 55, 59
4, 33407, Note_on_c, 0, 55, 0
4, 33600, Control_c, 0, 64, 127
4, 33600, Note_on_c, 0, 50, 59
4, 33600, Note_on_c, 0, 54, 59
4, 33720, Note_on_c, 0, 54, 0
4, 33720, Note_on_c, 0, 50, 0
4, 33720, Note_on_c, 0, 55, 59
4, 33840, Note_on_c, 0, 55, 0
4, 33840, Note_on_c, 0, 57, 59
4, 33960, Note_on_c, 0, 57, 0
4, 33960, Control_c, 0, 64, 0
4, 33960, Note_on_c, 0, 59, 59
4, 34080, Note_on_c, 0, 59, 0
4, 34560, Note_on_c, 0, 63, 59
4, 34607, Note_on_c, 0, 63, 0
4, 34800, Note_on_c, 0, 63, 59
4, 34847, Note_on_c, 0, 63, 0
4, 35040, Note_on_c, 0, 63, 59
4, 35087, Note_on_c, 0, 63, 0
4, 35280, Note_on_c, 0, 63, 59
4, 35327, Note_on_c, 0, 63, 0
4, 35520, Note_on_c, 0, 60, 59
4, 35520, Note_on_c, 0, 64, 59
4, 35567, Note_on_c, 0, 64, 0
4, 35567, Note_on_c, 0, 60, 0
4, 35760, Note_on_c, 0, 60, 59
4, 35760, Note_on_c, 0, 64, 59
4, 35807, Note_on_c, 0, 64, 0
4, 35807, Note_on_c, 0, 60, 0
4, 36000, Note_on_c, 0, 60, 59
4, 36000, Note_on_c, 0, 64, 59
4, 36047, Note_on_c, 0, 64, 0
4, 36047, Note_on_c, 0, 60, 0
4, 36240, Note_on_c, 0, 60, 59
4, 36240, Note_on_c, 0, 64, 59
4, 36287, Note_on_c, 0, 64, 0
4, 36287, Note_on_c, 0, 60, 0
4, 36480, Note_on_c, 0, 55, 59
4, 36480, Note_on_c, 0, 61, 59
4, 36480, Note_on_c, 0, 63, 59
4, 36527, Note_on_c, 0, 63, 0
4, 36527, Note_on_c, 0, 61, 0
4, 36527, Note_on_c, 0, 55, 0
4, 36720, Note_on_c, 0, 55, 59
4, 36720, Note_on_c, 0, 61, 59
4, 36720, Note_on_c, 0, 63, 59
4, 36767, Note_on_c, 0, 63, 0
4, 36767, Note_on_c, 0, 61, 0
4, 36767, Note_on_c, 0, 55, 0
4, 36960, Note_on_c, 0, 55, 59
4, 36960, Note_on_c, 0, 61, 59
4, 36960, Note_on_c, 0, 63, 59
4, 37007, Note_on_c, 0, 63, 0
4, 37007, Note_on_c, 0, 61, 0
4, 37007, Note_on_c, 0, 55, 0
4, 37200, Note_on_c, 0, 55, 59
4, 37200, Note_on_c, 0, 61, 59
4, 37200, Note_on_c, 0, 63, 59
4, 37247, Note_on_c, 0, 63, 0
4, 37247, Note_on_c, 0, 61, 0
4, 37247, Note_on_c, 0, 55, 0
4, 37440, Note_on_c, 0, 52, 85
4, 37440, Note_on_c, 0, 59, 85
4, 37440, Note_on_c, 0, 64, 85
4, 37487, Note_on_c, 0, 64, 0
4, 37487, Note_on_c, 0, 59, 0
4, 37487, Note_on_c, 0, 52, 0
4, 38400, Note_on_c, 0, 63, 59
4, 38447, Note_on_c, 0, 63, 0
4, 38640, Note_on_c, 0, 63, 59
4, 38687, Note_on_c, 0, 63, 0
4, 38880, Note_on_c, 0, 63, 59
4, 38927, Note_on_c, 0, 63, 0
4, 39120, Note_on_c, 0, 63, 59
4, 39167, Note_on_c, 0, 63, 0
4, 39360, Note_on_c, 0, 60, 59
4, 39360, Note_on_c, 0, 64, 59
4, 39407, Note_on_c, 0, 64, 0
4, 39407, Note_on_c, 0, 60, 0
4, 39600, Note_on_c, 0, 60, 59
4, 39600, Note_on_c, 0, 64, 59
4, 39647, Note_on_c, 0, 64, 0
4, 39647, Note_on_c, 0, 60, 0
4, 39840, Note_on_c, 0, 60, 59
4, 39840, Note_on_c, 0, 64, 59
4, 39887, Note_on_c, 0, 64, 0
4, 39887, Note_on_c, 0, 60, 0
4, 40080, Note_on_c, 0, 60, 59
4, 40080, Note_on_c, 0, 64, 59
4, 40127, Note_on_c, 0, 64, 0
4, 40127, Note_on_c, 0, 60, 0
4, 40320, Note_on_c, 0, 55, 59
4, 40320, Note_on_c, 0, 61, 59
4, 40320, Note_on_c, 0, 63, 59
4, 40367, Note_on_c, 0, 63, 0
4, 40367, Note_on_c, 0, 61, 0
4, 40367, Note_on_c, 0, 55, 0
4, 40560, Note_on_c, 0, 55, 59
4, 40560, Note_on_c, 0, 61, 59
4, 40560, Note_on_c, 0, 63, 59
4, 40607, Note_on_c, 0, 63, 0
4, 40607, Note_on_c, 0, 61, 0
4, 40607, Note_on_c, 0, 55, 0
4, 40800, Note_on_c, 0, 55, 59
4, 40800, Note_on_c, 0, 61, 59
4, 40800, Note_on_c, 0, 63, 59
4, 40847, Note_on_c, 0, 63, 0
4, 40847, Note_on_c, 0, 61, 0
4, 40847, Note_on_c, 0, 55, 0
4, 41040, Note_on_c, 0, 55, 59
4, 41040, Note_on_c, 0, 61, 59
4, 41040, Note_on_c, 0, 63, 59
4, 41087, Note_on_c, 0, 63, 0
4, 41087, Note_on_c, 0, 61, 0
4, 41087, Note_on_c, 0, 55, 0
4, 41280, Note_on_c, 0, 52, 85
4, 41280, Note_on_c, 0, 59, 85
4, 41280, Note_on_c, 0, 64, 85
4, 41327, Note_on_c, 0, 64, 0
4, 41327, Note_on_c, 0, 59, 0
4, 41327, Note_on_c, 0, 52, 0
4, 42240, Note_on_c, 0, 51, 59
4, 42240, Note_on_c, 0, 54, 59
4, 42287, Note_on_c, 0, 54, 0
4, 42287, Note_on_c, 0, 51, 0
4, 42480, Note_on_c, 0, 51, 59
4, 42480, Note_on_c, 0, 54, 59
4, 42527, Note_on_c, 0, 54, 0
4, 42527, Note_on_c, 0, 51, 0
4, 42720, Note_on_c, 0, 51, 59
4, 42720, Note_on_c, 0, 54, 59
4, 42767, Note_on_c, 0, 54, 0
4, 42767, Note_on_c, 0, 51, 0
4, 42960, Note_on_c, 0, 51, 59
4, 42960, Note_on_c, 0, 54, 59
4, 43007, Note_on_c, 0, 54, 0
4, 43007, Note_on_c, 0, 51, 0
4, 43200, Note_on_c, 0, 48, 59
4, 43200, Note_on_c, 0, 52, 59
4, 43247, Note_on_c, 0, 52, 0
4, 43247, Note_on_c, 0, 48, 0
4, 43440, Note_on_c, 0, 48, 59
4, 43440, Note_on_c, 0, 52, 59
4, 43487, Note_on_c, 0, 52, 0
4, 43487, Note_on_c, 0, 48, 0
4, 43680, Note_on_c, 0, 48, 59
4, 43680, Note_on_c, 0, 52, 59
4, 43727, Note_on_c, 0, 52, 0
4, 43727, Note_on_c, 0, 48, 0
4, 43920, Note_on_c, 0, 48, 59
4, 43920, Note_on_c, 0, 52, 59
4, 43967, Note_on_c, 0, 52, 0
4, 43967, Note_on_c, 0, 48, 0
4, 44160, Note_on_c, 0, 45, 59
4, 44160, Note_on_c, 0, 51, 59
4, 44160, Note_on_c, 0, 53, 59
4, 44207, Note_on_c, 0, 53, 0
4, 44207, Note_on_c, 0, 51, 0
4, 44207, Note_on_c, 0, 45, 0
4, 44400, Note_on_c, 0, 45, 59
4, 44400, Note_on_c, 0, 51, 59
4, 44400, Note_on_c, 0, 53, 59
4, 44447, Note_on_c, 0, 53, 0
4, 44447, Note_on_c, 0, 51, 0
4, 44447, Note_on_c, 0, 45, 0
4, 44640, Note_on_c, 0, 45, 59
4, 44640, Note_on_c, 0, 51, 59
4, 44640, Note_on_c, 0, 53, 59
4, 44687, Note_on_c, 0, 53, 0
4, 44687, Note_on_c, 0, 51, 0
4, 44687, Note_on_c, 0, 45, 0
4, 44880, Note_on_c, 0, 45, 59
4, 44880, Note_on_c, 0, 51, 59
4, 44880, Note_on_c, 0, 53, 59
4, 44927, Note_on_c, 0, 53, 0
4, 44927, Note_on_c, 0, 51, 0
4, 44927, Note_on_c, 0, 45, 0
4, 45120, Note_on_c, 0, 42, 85
4, 45120, Note_on_c, 0, 49, 85
4, 45120, Note_on_c, 0, 54, 85
4, 45167, Note_on_c, 0, 54, 0
4, 45167, Note_on_c, 0, 49, 0
4, 45167, Note_on_c, 0, 42, 0
4, 46080, Note_on_c, 0, 51, 59
4, 46080, Note_on_c, 0, 54, 59
4, 46127, Note_on_c, 0, 54, 0
4, 46127, Note_on_c, 0, 51, 0
4, 46320, Note_on_c, 0, 51, 59
4, 46320, Note_on_c, 0, 54, 59
4, 46367, Note_on_c, 0, 54, 0
4, 46367, Note_on_c, 0, 51, 0
4, 46560, Note_on_c, 0, 51, 59
4, 46560, Note_on_c, 0, 54, 59
4, 46607, Note_on_c, 0, 54, 0
4, 46607, Note_on_c, 0, 51, 0
4, 46800, Note_on_c, 0, 51, 59
4, 46800, Note_on_c, 0, 54, 59
4, 46847, Note_on_c, 0, 54, 0
4, 46847, Note_on_c, 0, 51, 0
4, 47040, Note_on_c, 0, 48, 59
4, 47040, Note_on_c, 0, 52, 59
4, 47087, Note_on_c, 0, 52, 0
4, 47087, Note_on_c, 0, 48, 0
4, 47280, Note_on_c, 0, 48, 59
4, 47280, Note_on_c, 0, 52, 59
4, 47327, Note_on_c, 0, 52, 0
4, 47327, Note_on_c, 0, 48, 0
4, 47520, Note_on_c, 0, 48, 59
4, 47520, Note_on_c, 0, 52, 59
4, 47567, Note_on_c, 0, 52, 0
4, 47567, Note_on_c, 0, 48, 0
4, 47760, Note_on_c, 0, 48, 59
4, 47760, Note_on_c, 0, 52, 59
4, 47807, Note_on_c, 0, 52, 0
4, 47807, Note_on_c, 0, 48, 0
4, 48000, Note_on_c, 0, 45, 59
4, 48000, Note_on_c, 0, 51, 59
4, 48000, Note_on_c, 0, 53, 59
4, 48047, Note_on_c, 0, 53, 0
4, 48047, Note_on_c, 0, 51, 0
4, 48047, Note_on_c, 0, 45, 0
4, 48240, Note_on_c, 0, 45, 59
4, 48240, Note_on_c, 0, 51, 59
4, 48240, Note_on_c, 0, 53, 59
4, 48287, Note_on_c, 0, 53, 0
4, 48287, Note_on_c, 0, 51, 0
4, 48287, Note_on_c, 0, 45, 0
4, 48480, Note_on_c, 0, 45, 59
4, 48480, Note_on_c, 0, 51, 59
4, 48480, Note_on_c, 0, 53, 59
4, 48527, Note_on_c, 0, 53, 0
4, 48527, Note_on_c, 0, 51, 0
4, 48527, Note_on_c, 0, 45, 0
4, 48720, Note_on_c, 0, 45, 59
4, 48720, Note_on_c, 0, 51, 59
4, 48720, Note_on_c, 0, 53, 59
4, 48767, Note_on_c, 0, 53, 0
4, 48767, Note_on_c, 0, 51, 0
4, 48767, Note_on_c, 0, 45, 0
4, 48960, Note_on_c, 0, 42, 85
4, 48960, Note_on_c, 0, 49, 85
4, 48960, Note_on_c, 0, 54, 85
4, 49007, Note_on_c, 0, 54, 0
4, 49007, Note_on_c, 0, 49, 0
4, 49007, Note_on_c, 0, 42, 0
4, 49920, Note_on_c, 0, 62, 85
4, 49920, Note_on_c, 0, 66, 85
4, 50880, Note_on_c, 0, 66, 0
4, 50880, Note_on_c, 0, 62, 0
4, 50880, Note_on_c, 0, 61, 85
4, 50880, Note_on_c, 0, 64, 85
4, 50880, Note_on_c, 0, 67, 85
4, 51840, Note_on_c, 0, 67, 0
4, 51840, Note_on_c, 0, 64, 0
4, 51840, Note_on_c, 0, 61, 0
4, 51840, Note_on_c, 0, 51, 85
4, 51840, Note_on_c, 0, 54, 85
4, 51840, Note_on_c, 0, 57, 85
4, 51840, Note_on_c, 0, 60, 85
4, 52800, Note_on_c, 0, 60, 0
4, 52800, Note_on_c, 0, 51, 0
4, 52800, Note_on_c, 0, 54, 0
4, 52800, Note_on_c, 0, 57, 0
4, 52800, Note_on_c, 0, 48, 85
4, 52800, Note_on_c, 0, 52, 85
4, 52800, Note_on_c, 0, 55, 85
4, 52800, Note_on_c, 0, 60, 85
4, 53760, Note_on_c, 0, 60, 0
4, 53760, Note_on_c, 0, 48, 0
4, 53760, Note_on_c, 0, 52, 0
4, 53760, Note_on_c, 0, 55, 0
4, 53760, Note_on_c, 0, 45, 98
4, 53760, Note_on_c, 0, 49, 98
4, 53760, Note_on_c, 0, 52, 98
4, 54720, Note_on_c, 0, 52, 0
4, 54720, Note_on_c, 0, 49, 0
4, 54720, Note_on_c, 0, 45, 0
4, 54720, Note_on_c, 0, 40, 98
4, 54720, Note_on_c, 0, 45, 98
4, 54720, Note_on_c, 0, 49, 98
4, 55680, Note_on_c, 0, 49, 0
4, 55680, Note_on_c, 0, 45, 0
4, 55680, Note_on_c, 0, 40, 0
4, 55680, Note_on_c, 0, 37, 98
4, 55680, Note_on_c, 0, 40, 98
4, 55680, Note_on_c, 0, 45, 98
4, 56640, Note_on_c, 0, 45, 0
4, 56640, Note_on_c, 0, 40, 0
4, 56640, Note_on_c, 0, 37, 0
4, 56640, Note_on_c, 0, 33, 98
4, 56640, Note_on_c, 0, 37, 98
4, 56640, Note_on_c, 0, 40, 98
4, 57600, Note_on_c, 0, 40, 0
4, 57600, Note_on_c, 0, 37, 0
4, 57600, Note_on_c, 0, 33, 0
4, 57600, Note_on_c, 0, 45, 111
4, 57840, Note_on_c, 0, 45, 0
4, 57840, Note_on_c, 0, 49, 111
4, 58080, Note_on_c, 0, 49, 0
4, 58080, Note_on_c, 0, 49, 111
4, 58320, Note_on_c, 0, 49, 0
4, 58320, Note_on_c, 0, 52, 111
4, 58560, Note_on_c, 0, 52, 0
4, 58560, Note_on_c, 0, 52, 111
4, 58800, Note_on_c, 0, 52, 0
4, 58800, Note_on_c, 0, 55, 111
4, 59040, Note_on_c, 0, 55, 0
4, 59040, Note_on_c, 0, 55, 111
4, 59280, Note_on_c, 0, 55, 0
4, 59280, Note_on_c, 0, 61, 111
4, 59520, Note_on_c, 0, 61, 0
4, 59520, Note_on_c, 0, 61, 111
4, 59760, Note_on_c, 0, 61, 0
4, 59760, Note_on_c, 0, 64, 111
4, 60000, Note_on_c, 0, 64, 0
4, 60000, Note_on_c, 0, 64, 111
4, 60240, Note_on_c, 0, 64, 0
4, 60240, Note_on_c, 0, 67, 111
4, 60480, Note_on_c, 0, 67, 0
4, 60480, Note_on_c, 0, 67, 111
4, 60720, Note_on_c, 0, 67, 0
4, 60720, Note_on_c, 0, 73, 111
4, 60960, Note_on_c, 0, 73, 0
4, 60960, Note_on_c, 0, 73, 111
4, 61200, Note_on_c, 0, 73, 0
4, 61440, Note_on_c, 0, 38, 85
4, 61440, Note_on_c, 0, 45, 85
4, 61487, Note_on_c, 0, 45, 0
4, 61487, Note_on_c, 0, 38, 0
4, 61680, Note_on_c, 0, 38, 85
4, 61680, Note_on_c, 0, 45, 85
4, 61727, Note_on_c, 0, 45, 0
4, 61727, Note_on_c, 0, 38, 0
4, 61920, Note_on_c, 0, 47, 85
4, 61967, Note_on_c, 0, 47, 0
4, 62160, Note_on_c, 0, 47, 85
4, 62207, Note_on_c, 0, 47, 0
4, 62400, Note_on_c, 0, 38, 85
4, 62400, Note_on_c, 0, 45, 85
4, 62447, Note_on_c, 0, 45, 0
4, 62447, Note_on_c, 0, 38, 0
4, 62640, Note_on_c, 0, 38, 85
4, 62640, Note_on_c, 0, 45, 85
4, 62687, Note_on_c, 0, 45, 0
4, 62687, Note_on_c, 0, 38, 0
4, 62880, Note_on_c, 0, 48, 85
4, 62927, Note_on_c, 0, 48, 0
4, 63120, Note_on_c, 0, 48, 85
4, 63167, Note_on_c, 0, 48, 0
4, 63360, Note_on_c, 0, 38, 85
4, 63360, Note_on_c, 0, 45, 85
4, 63407, Note_on_c, 0, 45, 0
4, 63407, Note_on_c, 0, 38, 0
4, 63600, Note_on_c, 0, 38, 85
4, 63600, Note_on_c, 0, 45, 85
4, 63647, Note_on_c, 0, 45, 0
4, 63647, Note_on_c, 0, 38, 0
4, 63840, Note_on_c, 0, 49, 85
4, 63887, Note_on_c, 0, 49, 0
4, 64080, Note_on_c, 0, 49, 85
4, 64127, Note_on_c, 0, 49, 0
4, 64320, Note_on_c, 0, 38, 85
4, 64320, Note_on_c, 0, 45, 85
4, 64367, Note_on_c, 0, 45, 0
4, 64367, Note_on_c, 0, 38, 0
4, 64560, Note_on_c, 0, 38, 85
4, 64560, Note_on_c, 0, 45, 85
4, 64607, Note_on_c, 0, 45, 0
4, 64607, Note_on_c, 0, 38, 0
4, 64800, Note_on_c, 0, 50, 85
4, 64847, Note_on_c, 0, 50, 0
4, 65040, Note_on_c, 0, 50, 85
4, 65087, Note_on_c, 0, 50, 0
4, 65280, Note_on_c, 0, 38, 85
4, 65280, Note_on_c, 0, 45, 85
4, 65327, Note_on_c, 0, 45, 0
4, 65327, Note_on_c, 0, 38, 0
4, 65520, Note_on_c, 0, 38, 85
4, 65520, Note_on_c, 0, 45, 85
4, 65567, Note_on_c, 0, 45, 0
4, 65567, Note_on_c, 0, 38, 0
4, 65760, Note_on_c, 0, 54, 85
4, 65807, Note_on_c, 0, 54, 0
4, 66000, Note_on_c, 0, 54, 85
4, 66047, Note_on_c, 0, 54, 0
4, 66240, Note_on_c, 0, 50, 85
4, 66287, Note_on_c, 0, 50, 0
4, 66480, Note_on_c, 0, 50, 85
4, 66527, Note_on_c, 0, 50, 0
4, 66720, Note_on_c, 0, 55, 85
4, 66767, Note_on_c, 0, 55, 0
4, 66960, Note_on_c, 0, 55, 85
4, 67007, Note_on_c, 0, 55, 0
4, 67200, Note_on_c, 0, 50, 85
4, 67247, Note_on_c, 0, 50, 0
4, 67440, Note_on_c, 0, 50, 85
4, 67487, Note_on_c, 0, 50, 0
4, 67680, Note_on_c, 0, 56, 85
4, 67727, Note_on_c, 0, 56, 0
4, 67920, Note_on_c, 0, 56, 85
4, 67967, Note_on_c, 0, 56, 0
4, 68160, Note_on_c, 0, 50, 85
4, 68207, Note_on_c, 0, 50, 0
4, 68400, Note_on_c, 0, 50, 85
4, 68447, Note_on_c, 0, 50, 0
4, 68640, Note_on_c, 0, 57, 85
4, 68687, Note_on_c, 0, 57, 0
4, 68880, Note_on_c, 0, 57, 85
4, 68927, Note_on_c, 0, 57, 0
4, 69120, Note_on_c, 0, 38, 85
4, 69120, Note_on_c, 0, 45, 85
4, 69167, Note_on_c, 0, 45, 0
4, 69167, Note_on_c, 0, 38, 0
4, 69360, Note_on_c, 0, 38, 85
4, 69360, Note_on_c, 0, 45, 85
4, 69407, Note_on_c, 0, 45, 0
4, 69407, Note_on_c, 0, 38, 0
4, 69600, Note_on_c, 0, 47, 85
4, 69647, Note_on_c, 0, 47, 0
4, 69840, Note_on_c, 0, 47, 85
4, 69887, Note_on_c, 0, 47, 0
4, 70080, Note_on_c, 0, 38, 85
4, 70080, Note_on_c, 0, 45, 85
4, 70127, Note_on_c, 0, 45, 0
4, 70127, Note_on_c, 0, 38, 0
4, 70320, Note_on_c, 0, 38, 85
4, 70320, Note_on_c, 0, 45, 85
4, 70367, Note_on_c, 0, 45, 0
4, 70367, Note_on_c, 0, 38, 0
4, 70560, Note_on_c, 0, 48, 85
4, 70607, Note_on_c, 0, 48, 0
4, 70800, Note_on_c, 0, 48, 85
4, 70847, Note_on_c, 0, 48, 0
4, 71040, Note_on_c, 0, 38, 85
4, 71040, Note_on_c, 0, 45, 85
4, 71087, Note_on_c, 0, 45, 0
4, 71087, Note_on_c, 0, 38, 0
4, 71280, Note_on_c, 0, 38, 85
4, 71280, Note_on_c, 0, 45, 85
4, 71327, Note_on_c, 0, 45, 0
4, 71327, Note_on_c, 0, 38, 0
4, 71520, Note_on_c, 0, 49, 85
4, 71567, Note_on_c, 0, 49, 0
4, 71760, Note_on_c, 0, 49, 85
4, 71807, Note_on_c, 0, 49, 0
4, 72000, Note_on_c, 0, 38, 85
4, 72000, Note_on_c, 0, 45, 85
4, 72047, Note_on_c, 0, 45, 0
4, 72047, Note_on_c, 0, 38, 0
4, 72240, Note_on_c, 0, 38, 85
4, 72240, Note_on_c, 0, 45, 85
4, 72287, Note_on_c, 0, 45, 0
4, 72287, Note_on_c, 0, 38, 0
4, 72480, Note_on_c, 0, 50, 85
4, 72527, Note_on_c, 0, 50, 0
4, 72720, Note_on_c, 0, 50, 85
4, 72767, Note_on_c, 0, 50, 0
4, 72960, Note_on_c, 0, 38, 85
4, 72960, Note_on_c, 0, 45, 85
4, 73007, Note_on_c, 0, 45, 0
4, 73007, Note_on_c, 0, 38, 0
4, 73200, Note_on_c, 0, 38, 85
4, 73200, Note_on_c, 0, 45, 85
4, 73247, Note_on_c, 0, 45, 0
4, 73247, Note_on_c, 0, 38, 0
4, 73440, Note_on_c, 0, 57, 85
4, 73487, Note_on_c, 0, 57, 0
4, 73680, Note_on_c, 0, 57, 85
4, 73727, Note_on_c, 0, 57, 0
4, 73920, Note_on_c, 0, 50, 85
4, 73967, Note_on_c, 0, 50, 0
4, 74160, Note_on_c, 0, 50, 85
4, 74207, Note_on_c, 0, 50, 0
4, 74400, Note_on_c, 0, 56, 85
4, 74447, Note_on_c, 0, 56, 0
4, 74640, Note_on_c, 0, 56, 85
4, 74687, Note_on_c, 0, 56, 0
4, 74880, Note_on_c, 0, 50, 85
4, 74927, Note_on_c, 0, 50, 0
4, 75120, Note_on_c, 0, 50, 85
4, 75167, Note_on_c, 0, 50, 0
4, 75360, Note_on_c, 0, 55, 85
4, 75407, Note_on_c, 0, 55, 0
4, 75600, Note_on_c, 0, 55, 85
4, 75647, Note_on_c, 0, 55, 0
4, 75840, Note_on_c, 0, 50, 85
4, 75840, Note_on_c, 0, 54, 85
4, 75887, Note_on_c, 0, 54, 0
4, 75887, Note_on_c, 0, 50, 0
4, 76800, Note_on_c, 0, 35, 59
4, 76800, Note_on_c, 0, 47, 59
4, 77040, Note_on_c, 0, 47, 0
4, 77040, Note_on_c, 0, 35, 0
4, 77040, Note_on_c, 0, 54, 59
4, 77040, Note_on_c, 0, 59, 59
4, 77280, Note_on_c, 0, 59, 0
4, 77280, Note_on_c, 0, 54, 0
4, 77280, Note_on_c, 0, 59, 59
4, 77280, Note_on_c, 0, 62, 59
4, 77520, Note_on_c, 0, 62, 0
4, 77520, Note_on_c, 0, 59, 0
4, 77520, Note_on_c, 0, 54, 59
4, 77520, Note_on_c, 0, 59, 59
4, 77760, Note_on_c, 0, 59, 0
4, 77760, Note_on_c, 0, 54, 0
4, 77760, Note_on_c, 0, 59, 59
4, 77760, Note_on_c, 0, 62, 59
4, 78000, Note_on_c, 0, 62, 0
4, 78000, Note_on_c, 0, 59, 0
4, 78720, Note_on_c, 0, 40, 59
4, 78720, Note_on_c, 0, 52, 59
4, 78960, Note_on_c, 0, 52, 0
4, 78960, Note_on_c, 0, 40, 0
4, 78960, Note_on_c, 0, 52, 59
4, 78960, Note_on_c, 0, 59, 59
4, 79200, Note_on_c, 0, 59, 0
4, 79200, Note_on_c, 0, 52, 0
4, 79200, Note_on_c, 0, 59, 59
4, 79200, Note_on_c, 0, 64, 59
4, 79440, Note_on_c, 0, 64, 0
4, 79440, Note_on_c, 0, 59, 0
4, 79440, Note_on_c, 0, 52, 59
4, 79440, Note_on_c, 0, 59, 59
4, 79680, Note_on_c, 0, 59, 0
4, 79680, Note_on_c, 0, 52, 0
4, 79680, Note_on_c, 0, 59, 59
4, 79680, Note_on_c, 0, 64, 59
4, 79920, Note_on_c, 0, 64, 0
4, 79920, Note_on_c, 0, 59, 0
4, 80640, Note_on_c, 0, 45, 59
4, 80640, Note_on_c, 0, 49, 59
4, 81120, Note_on_c, 0, 49, 0
4, 81120, Note_on_c, 0, 45, 0
4, 81120, Note_on_c, 0, 47, 59
4, 81120, Note_on_c, 0, 50, 59
4, 81600, Note_on_c, 0, 50, 0
4, 81600, Note_on_c, 0, 47, 0
4, 81600, Note_on_c, 0, 48, 72
4, 81600, Note_on_c, 0, 51, 72
4, 82080, Note_on_c, 0, 51, 0
4, 82080, Note_on_c, 0, 48, 0
4, 82080, Note_on_c, 0, 49, 72
4, 82080, Note_on_c, 0, 52, 72
4, 82560, Note_on_c, 0, 52, 0
4, 82560, Note_on_c, 0, 49, 0
4, 82560, Note_on_c, 0, 50, 72
4, 82560, Note_on_c, 0, 54, 72
4, 83040, Note_on_c, 0, 54, 0
4, 83040, Note_on_c, 0, 50, 0
4, 83040, Note_on_c, 0, 47, 72
4, 83040, Note_on_c, 0, 50, 72
4, 83087, Note_on_c, 0, 50, 0
4, 83087, Note_on_c, 0, 47, 0
4, 83280, Note_on_c, 0, 50, 59
4, 83280, Note_on_c, 0, 54, 59
4, 83327, Note_on_c, 0, 54, 0
4, 83327, Note_on_c, 0, 50, 0
4, 83520, Note_on_c, 0, 54, 59
4, 83520, Note_on_c, 0, 58, 59
4, 83567, Note_on_c, 0, 58, 0
4, 83567, Note_on_c, 0, 54, 0
4, 84480, Note_on_c, 0, 35, 59
4, 84480, Note_on_c, 0, 47, 59
4, 84720, Note_on_c, 0, 47, 0
4, 84720, Note_on_c, 0, 35, 0
4, 84720, Note_on_c, 0, 54, 59
4, 84720, Note_on_c, 0, 59, 59
4, 84960, Note_on_c, 0, 59, 0
4, 84960, Note_on_c, 0, 54, 0
4, 84960, Note_on_c, 0, 59, 59
4, 84960, Note_on_c, 0, 62, 59
4, 85200, Note_on_c, 0, 62, 0
4, 85200, Note_on_c, 0, 59, 0
4, 85200, Note_on_c, 0, 54, 59
4, 85200, Note_on_c, 0, 59, 59
4, 85440, Note_on_c, 0, 59, 0
4, 85440, Note_on_c, 0, 54, 0
4, 85440, Note_on_c, 0, 59, 59
4, 85440, Note_on_c, 0, 62, 59
4, 85680, Note_on_c, 0, 62, 0
4, 85680, Note_on_c, 0, 59, 0
4, 86400, Note_on_c, 0, 40, 59
4, 86400, Note_on_c, 0, 52, 59
4, 86640, Note_on_c, 0, 52, 0
4, 86640, Note_on_c, 0, 40, 0
4, 86640, Note_on_c, 0, 52, 59
4, 86640, Note_on_c, 0, 59, 59
4, 86880, Note_on_c, 0, 59, 0
4, 86880, Note_on_c, 0, 52, 0
4, 86880, Note_on_c, 0, 59, 59
4, 86880, Note_on_c, 0, 64, 59
4, 87120, Note_on_c, 0, 64, 0
4, 87120, Note_on_c, 0, 59, 0
4, 87120, Note_on_c, 0, 52, 59
4, 87120, Note_on_c, 0, 59, 59
4, 87360, Note_on_c, 0, 59, 0
4, 87360, Note_on_c, 0, 52, 0
4, 87360, Note_on_c, 0, 59, 59
4, 87360, Note_on_c, 0, 64, 59
4, 87600, Note_on_c, 0, 64, 0
4, 87600, Note_on_c, 0, 59, 0
4, 88320, Note_on_c, 0, 45, 59
4, 88320, Note_on_c, 0, 49, 59
4, 88800, Note_on_c, 0, 49, 0
4, 88800, Note_on_c, 0, 45, 0
4, 88800, Note_on_c, 0, 47, 59
4, 88800, Note_on_c, 0, 50, 59
4, 89280, Note_on_c, 0, 50, 0
4, 89280, Note_on_c, 0, 47, 0
4, 89280, Note_on_c, 0, 48, 72
4, 89280, Note_on_c, 0, 51, 72
4, 89760, Note_on_c, 0, 51, 0
4, 89760, Note_on_c, 0, 48, 0
4, 89760, Note_on_c, 0, 49, 72
4, 89760, Note_on_c, 0, 52, 72
4, 90240, Note_on_c, 0, 52, 0
4, 90240, Note_on_c, 0, 49, 0
4, 90240, Note_on_c, 0, 50, 72
4, 90240, Note_on_c, 0, 54, 72
4, 90720, Note_on_c, 0, 54, 0
4, 90720, Note_on_c, 0, 50, 0
4, 90720, Note_on_c, 0, 52, 72
4, 90720, Note_on_c, 0, 56, 72
4, 91200, Note_on_c, 0, 56, 0
4, 91200, Note_on_c, 0, 52, 0
4, 91200, Note_on_c, 0, 57, 72
4, 91440, Note_on_c, 0, 57, 0
4, 92160, Note_on_c, 0, 51, 72
4, 93120, Note_on_c, 0, 51, 0
4, 93120, Note_on_c, 0, 52, 72
4, 94080, Note_on_c, 0, 52, 0
4, 94080, Note_on_c, 0, 57, 72
4, 95040, Note_on_c, 0, 57, 0
4, 95040, Note_on_c, 0, 55, 72
4, 95280, Note_on_c, 0, 55, 0
4, 96000, Note_on_c, 0, 49, 72
4, 96960, Note_on_c, 0, 49, 0
4, 96960, Note_on_c, 0, 50, 72
4, 97920, Note_on_c, 0, 50, 0
4, 97920, Note_on_c, 0, 55, 72
4, 98880, Note_on_c, 0, 55, 0
4, 98880, Note_on_c, 0, 54, 72
4, 99120, Note_on_c, 0, 54, 0
4, 100320, Note_on_c, 0, 56, 72
4, 100800, Note_on_c, 0, 56, 0
4, 100800, Note_on_c, 0, 57, 72
4, 101040, Note_on_c, 0, 57, 0
4, 102240, Note_on_c, 0, 54, 72
4, 102720, Note_on_c, 0, 54, 0
4, 102720, Note_on_c, 0, 55, 72
4, 102960, Note_on_c, 0, 55, 0
4, 104160, Note_on_c, 0, 52, 85
4, 104880, Note_on_c, 0, 52, 0
4, 105120, Note_on_c, 0, 34, 85
4, 105120, Note_on_c, 0, 46, 85
4, 105167, Note_on_c, 0, 46, 0
4, 105167, Note_on_c, 0, 34, 0
4, 105360, Note_on_c, 0, 35, 85
4, 105360, Note_on_c, 0, 47, 85
4, 105407, Note_on_c, 0, 47, 0
4, 105407, Note_on_c, 0, 35, 0
4, 105600, Note_on_c, 0, 37, 85
4, 105600, Note_on_c, 0, 49, 85
4, 105647, Note_on_c, 0, 49, 0
4, 105647, Note_on_c, 0, 37, 0
4, 105840, Note_on_c, 0, 38, 85
4, 105840, Note_on_c, 0, 50, 85
4, 105887, Note_on_c, 0, 50, 0
4, 105887, Note_on_c, 0, 38, 0
4, 106080, Note_on_c, 0, 39, 85
4, 106080, Note_on_c, 0, 51, 85
4, 106127, Note_on_c, 0, 51, 0
4, 106127, Note_on_c, 0, 39, 0
4, 106320, Note_on_c, 0, 40, 85
4, 106320, Note_on_c, 0, 52, 85
4, 106367, Note_on_c, 0, 52, 0
4, 106367, Note_on_c, 0, 40, 0
4, 106560, Note_on_c, 0, 42, 85
4, 106560, Note_on_c, 0, 54, 85
4, 106607, Note_on_c, 0, 54, 0
4, 106607, Note_on_c, 0, 42, 0
4, 107520, Note_on_c, 0, 35, 59
4, 107520, Note_on_c, 0, 47, 59
4, 107760, Note_on_c, 0, 47, 0
4, 107760, Note_on_c, 0, 35, 0
4, 107760, Note_on_c, 0, 54, 59
4, 107760, Note_on_c, 0, 59, 59
4, 108000, Note_on_c, 0, 59, 0
4, 108000, Note_on_c, 0, 54, 0
4, 108000, Note_on_c, 0, 59, 59
4, 108000, Note_on_c, 0, 62, 59
4, 108240, Note_on_c, 0, 62, 0
4, 108240, Note_on_c, 0, 59, 0
4, 108240, Note_on_c, 0, 54, 59
4, 108240, Note_on_c, 0, 59, 59
4, 108480, Note_on_c, 0, 59, 0
4, 108480, Note_on_c, 0, 54, 0
4, 108480, Note_on_c, 0, 59, 59
4, 108480, Note_on_c, 0, 62, 59
4, 108720, Note_on_c, 0, 62, 0
4, 108720, Note_on_c, 0, 59, 0
4, 109440, Note_on_c, 0, 40, 59
4, 109440, Note_on_c, 0, 52, 59
4, 109680, Note_on_c, 0, 52, 0
4, 109680, Note_on_c, 0, 40, 0
4, 109680, Note_on_c, 0, 52, 59
4, 109680, Note_on_c, 0, 59, 59
4, 109920, Note_on_c, 0, 59, 0
4, 109920, Note_on_c, 0, 52, 0
4, 109920, Note_on_c, 0, 59, 59
4, 109920, Note_on_c, 0, 64, 59
4, 110160, Note_on_c, 0, 64, 0
4, 110160, Note_on_c, 0, 59, 0
4, 110160, Note_on_c, 0, 52, 59
4, 110160, Note_on_c, 0, 59, 59
4, 110400, Note_on_c, 0, 59, 0
4, 110400, Note_on_c, 0, 52, 0
4, 110400, Note_on_c, 0, 59, 59
4, 110400, Note_on_c, 0, 64, 59
4, 110640, Note_on_c, 0, 64, 0
4, 110640, Note_on_c, 0, 59, 0
4, 111360, Note_on_c, 0, 45, 59
4, 111360, Note_on_c, 0, 49, 59
4, 111840, Note_on_c, 0, 49, 0
4, 111840, Note_on_c, 0, 45, 0
4, 111840, Note_on_c, 0, 47, 59
4, 111840, Note_on_c, 0, 50, 59
4, 112320, Note_on_c, 0, 50, 0
4, 112320, Note_on_c, 0, 47, 0
4, 112320, Note_on_c, 0, 48, 72
4, 112320, Note_on_c, 0, 51, 72
4, 112800, Note_on_c, 0, 51, 0
4, 112800, Note_on_c, 0, 48, 0
4, 112800, Note_on_c, 0, 49, 72
4, 112800, Note_on_c, 0, 52, 72
4, 113280, Note_on_c, 0, 52, 0
4, 113280, Note_on_c, 0, 49, 0
4, 113280, Note_on_c, 0, 50, 72
4, 113280, Note_on_c, 0, 54, 72
4, 113760, Note_on_c, 0, 54, 0
4, 113760, Note_on_c, 0, 50, 0
4, 113760, Note_on_c, 0, 47, 72
4, 113760, Note_on_c, 0, 50, 72
4, 113807, Note_on_c, 0, 50, 0
4, 113807, Note_on_c, 0, 47, 0
4, 114000, Note_on_c, 0, 50, 59
4, 114000, Note_on_c, 0, 54, 59
4, 114047, Note_on_c, 0, 54, 0
4, 114047, Note_on_c, 0, 50, 0
4, 114240, Note_on_c, 0, 54, 59
4, 114240, Note_on_c, 0, 58, 59
4, 114287, Note_on_c, 0, 58, 0
4, 114287, Note_on_c, 0, 54, 0
4, 115200, Note_on_c, 0, 35, 59
4, 115200, Note_on_c, 0, 47, 59
4, 115440, Note_on_c, 0, 47, 0
4, 115440, Note_on_c, 0, 35, 0
4, 115440, Note_on_c, 0, 54, 59
4, 115440, Note_on_c, 0, 59, 59
4, 115680, Note_on_c, 0, 59, 0
4, 115680, Note_on_c, 0, 54, 0
4, 115680, Note_on_c, 0, 59, 59
4, 115680, Note_on_c, 0, 62, 59
4, 115920, Note_on_c, 0, 62, 0
4, 115920, Note_on_c, 0, 59, 0
4, 115920, Note_on_c, 0, 54, 59
4, 115920, Note_on_c, 0, 59, 59
4, 116160, Note_on_c, 0, 59, 0
4, 116160, Note_on_c, 0, 54, 0
4, 116160, Note_on_c, 0, 59, 59
4, 116160, Note_on_c, 0, 62, 59
4, 116400, Note_on_c, 0, 62, 0
4, 116400, Note_on_c, 0, 59, 0
4, 117120, Note_on_c, 0, 40, 59
4, 117120, Note_on_c, 0, 52, 59
4, 117360, Note_on_c, 0, 52, 0
4, 117360, Note_on_c, 0, 40, 0
4, 117360, Note_on_c, 0, 52, 59
4, 117360, Note_on_c, 0, 59, 59
4, 117600, Note_on_c, 0, 59, 0
4, 117600, Note_on_c, 0, 52, 0
4, 117600, Note_on_c, 0, 59, 59
4, 117600, Note_on_c, 0, 64, 59
4, 117840, Note_on_c, 0, 64, 0
4, 117840, Note_on_c, 0, 59, 0
4, 117840, Note_on_c, 0, 52, 59
4, 117840, Note_on_c, 0, 59, 59
4, 118080, Note_on_c, 0, 59, 0
4, 118080, Note_on_c, 0, 52, 0
4, 118080, Note_on_c, 0, 59, 59
4, 118080, Note_on_c, 0, 64, 59
4, 118320, Note_on_c, 0, 64, 0
4, 118320, Note_on_c, 0, 59, 0
4, 119040, Note_on_c, 0, 45, 59
4, 119040, Note_on_c, 0, 49, 59
4, 119520, Note_on_c, 0, 49, 0
4, 119520, Note_on_c, 0, 45, 0
4, 119520, Note_on_c, 0, 47, 59
4, 119520, Note_on_c, 0, 50, 59
4, 120000, Note_on_c, 0, 50, 0
4, 120000, Note_on_c, 0, 47, 0
4, 120000, Note_on_c, 0, 48, 72
4, 120000, Note_on_c, 0, 51, 72
4, 120480, Note_on_c, 0, 51, 0
4, 120480, Note_on_c, 0, 48, 0
4, 120480, Note_on_c, 0, 49, 72
4, 120480, Note_on_c, 0, 52, 72
4, 120960, Note_on_c, 0, 52, 0
4, 120960, Note_on_c, 0, 49, 0
4, 120960, Note_on_c, 0, 50, 72
4, 120960, Note_on_c, 0, 54, 72
4, 121440, Note_on_c, 0, 54, 0
4, 121440, Note_on_c, 0, 50, 0
4, 121440, Note_on_c, 0, 52, 72
4, 121440, Note_on_c, 0, 56, 72
4, 121920, Note_on_c, 0, 56, 0
4, 121920, Note_on_c, 0, 52, 0
4, 121920, Note_on_c, 0, 45, 72
4, 121920, Note_on_c, 0, 57, 72
4, 122160, Note_on_c, 0, 57, 0
4, 122160, Note_on_c, 0, 45, 0
4, 122880, Note_on_c, 0, 38, 85
4, 122880, Note_on_c, 0, 45, 85
4, 122927, Note_on_c, 0, 45, 0
4, 122927, Note_on_c, 0, 38, 0
4, 123120, Note_on_c, 0, 38, 85
4, 123120, Note_on_c, 0, 45, 85
4, 123167, Note_on_c, 0, 45, 0
4, 123167, Note_on_c, 0, 38, 0
4, 123360, Note_on_c, 0, 47, 85
4, 123407, Note_on_c, 0, 47, 0
4, 123600, Note_on_c, 0, 47, 85
4, 123647, Note_on_c, 0, 47, 0
4, 123840, Note_on_c, 0, 38, 85
4, 123840, Note_on_c, 0, 45, 85
4, 123887, Note_on_c, 0, 45, 0
4, 123887, Note_on_c, 0, 38, 0
4, 124080, Note_on_c, 0, 38, 85
4, 124080, Note_on_c, 0, 45, 85
4, 124127, Note_on_c, 0, 45, 0
4, 124127, Note_on_c, 0, 38, 0
4, 124320, Note_on_c, 0, 48, 85
4, 124367, Note_on_c, 0, 48, 0
4, 124560, Note_on_c, 0, 48, 85
4, 124607, Note_on_c, 0, 48, 0
4, 124800, Note_on_c, 0, 38, 85
4, 124800, Note_on_c, 0, 45, 85
4, 124847, Note_on_c, 0, 45, 0
4, 124847, Note_on_c, 0, 38, 0
4, 125040, Note_on_c, 0, 38, 85
4, 125040, Note_on_c, 0, 45, 85
4, 125087, Note_on_c, 0, 45, 0
4, 125087, Note_on_c, 0, 38, 0
4, 125280, Note_on_c, 0, 49, 85
4, 125327, Note_on_c, 0, 49, 0
4, 125520, Note_on_c, 0, 49, 85
4, 125567, Note_on_c, 0, 49, 0
4, 125760, Note_on_c, 0, 38, 85
4, 125760, Note_on_c, 0, 45, 85
4, 125807, Note_on_c, 0, 45, 0
4, 125807, Note_on_c, 0, 38, 0
4, 126000, Note_on_c, 0, 38, 85
4, 126000, Note_on_c, 0, 45, 85
4, 126047, Note_on_c, 0, 45, 0
4, 126047, Note_on_c, 0, 38, 0
4, 126240, Note_on_c, 0, 50, 85
4, 126287, Note_on_c, 0, 50, 0
4, 126480, Note_on_c, 0, 50, 85
4, 126527, Note_on_c, 0, 50, 0
4, 126720, Note_on_c, 0, 38, 85
4, 126720, Note_on_c, 0, 45, 85
4, 126767, Note_on_c, 0, 45, 0
4, 126767, Note_on_c, 0, 38, 0
4, 126960, Note_on_c, 0, 38, 85
4, 126960, Note_on_c, 0, 45, 85
4, 127007, Note_on_c, 0, 45, 0
4, 127007, Note_on_c, 0, 38, 0
4, 127200, Note_on_c, 0, 54, 85
4, 127247, Note_on_c, 0, 54, 0
4, 127440, Note_on_c, 0, 54, 85
4, 127487, Note_on_c, 0, 54, 0
4, 127680, Note_on_c, 0, 50, 85
4, 127727, Note_on_c, 0, 50, 0
4, 127920, Note_on_c, 0, 50, 85
4, 127967, Note_on_c, 0, 50, 0
4, 128160, Note_on_c, 0, 55, 85
4, 128207, Note_on_c, 0, 55, 0
4, 128400, Note_on_c, 0, 55, 85
4, 128447, Note_on_c, 0, 55, 0
4, 128640, Note_on_c, 0, 50, 85
4, 128687, Note_on_c, 0, 50, 0
4, 128880, Note_on_c, 0, 50, 85
4, 128927, Note_on_c, 0, 50, 0
4, 129120, Note_on_c, 0, 56, 85
4, 129167, Note_on_c, 0, 56, 0
4, 129360, Note_on_c, 0, 56, 85
4, 129407, Note_on_c, 0, 56, 0
4, 129600, Note_on_c, 0, 50, 85
4, 129647, Note_on_c, 0, 50, 0
4, 129840, Note_on_c, 0, 50, 85
4, 129887, Note_on_c, 0, 50, 0
4, 130080, Note_on_c, 0, 57, 85
4, 130127, Note_on_c, 0, 57, 0
4, 130320, Note_on_c, 0, 57, 85
4, 130367, Note_on_c, 0, 57, 0
4, 130560, Note_on_c, 0, 38, 85
4, 130560, Note_on_c, 0, 45, 85
4, 130607, Note_on_c, 0, 45, 0
4, 130607, Note_on_c, 0, 38, 0
4, 130800, Note_on_c, 0, 38, 85
4, 130800, Note_on_c, 0, 45, 85
4, 130847, Note_on_c, 0, 45, 0
4, 130847, Note_on_c, 0, 38, 0
4, 131040, Note_on_c, 0, 47, 85
4, 131087, Note_on_c, 0, 47, 0
4, 131280, Note_on_c, 0, 47, 85
4, 131327, Note_on_c, 0, 47, 0
4, 131520, Note_on_c, 0, 38, 85
4, 131520, Note_on_c, 0, 45, 85
4, 131567, Note_on_c, 0, 45, 0
4, 131567, Note_on_c, 0, 38, 0
4, 131760, Note_on_c, 0, 38, 85
4, 131760, Note_on_c, 0, 45, 85
4, 131807, Note_on_c, 0, 45, 0
4, 131807, Note_on_c, 0, 38, 0
4, 132000, Note_on_c, 0, 48, 85
4, 132047, Note_on_c, 0, 48, 0
4, 132240, Note_on_c, 0, 48, 85
4, 132287, Note_on_c, 0, 48, 0
4, 132480, Note_on_c, 0, 38, 85
4, 132480, Note_on_c, 0, 45, 85
4, 132527, Note_on_c, 0, 45, 0
4, 132527, Note_on_c, 0, 38, 0
4, 132720, Note_on_c, 0, 38, 85
4, 132720, Note_on_c, 0, 45, 85
4, 132767, Note_on_c, 0, 45, 0
4, 132767, Note_on_c, 0, 38, 0
4, 132960, Note_on_c, 0, 49, 85
4, 133007, Note_on_c, 0, 49, 0
4, 133200, Note_on_c, 0, 49, 85
4, 133247, Note_on_c, 0, 49, 0
4, 133440, Note_on_c, 0, 38, 85
4, 133440, Note_on_c, 0, 45, 85
4, 133487, Note_on_c, 0, 45, 0
4, 133487, Note_on_c, 0, 38, 0
4, 133680, Note_on_c, 0, 38, 85
4, 133680, Note_on_c, 0, 45, 85
4, 133727, Note_on_c, 0, 45, 0
4, 133727, Note_on_c, 0, 38, 0
4, 133920, Note_on_c, 0, 50, 85
4, 133967, Note_on_c, 0, 50, 0
4, 134160, Note_on_c, 0, 50, 85
4, 134207, Note_on_c, 0, 50, 0
4, 134400, Note_on_c, 0, 38, 85
4, 134400, Note_on_c, 0, 45, 85
4, 134447, Note_on_c, 0, 45, 0
4, 134447, Note_on_c, 0, 38, 0
4, 134640, Note_on_c, 0, 38, 85
4, 134640, Note_on_c, 0, 45, 85
4, 134687, Note_on_c, 0, 45, 0
4, 134687, Note_on_c, 0, 38, 0
4, 134880, Note_on_c, 0, 57, 85
4, 134927, Note_on_c, 0, 57, 0
4, 135120, Note_on_c, 0, 57, 85
4, 135167, Note_on_c, 0, 57, 0
4, 135360, Note_on_c, 0, 50, 85
4, 135407, Note_on_c, 0, 50, 0
4, 135600, Note_on_c, 0, 50, 85
4, 135647, Note_on_c, 0, 50, 0
4, 135840, Note_on_c, 0, 56, 85
4, 135887, Note_on_c, 0, 56, 0
4, 136080, Note_on_c, 0, 56, 85
4, 136127, Note_on_c, 0, 56, 0
4, 136320, Note_on_c, 0, 50, 85
4, 136367, Note_on_c, 0, 50, 0
4, 136560, Note_on_c, 0, 50, 85
4, 136607, Note_on_c, 0, 50, 0
4, 136800, Note_on_c, 0, 55, 85
4, 136847, Note_on_c, 0, 55, 0
4, 137040, Note_on_c, 0, 55, 85
4, 137087, Note_on_c, 0, 55, 0
4, 137280, Note_on_c, 0, 50, 85
4, 137280, Note_on_c, 0, 54, 85
4, 137439, Note_on_c, 0, 54, 0
4, 137439, Note_on_c, 0, 50, 0
4, 137600, Note_on_c, 0, 26, 59
4, 137600, Note_on_c, 0, 38, 59
4, 137760, Note_on_c, 0, 38, 0
4, 137760, Note_on_c, 0, 26, 0
4, 137760, Note_on_c, 0, 26, 59
4, 137760, Note_on_c, 0, 38, 59
4, 137919, Note_on_c, 0, 38, 0
4, 137919, Note_on_c, 0, 26, 0
4, 137919, Note_on_c, 0, 26, 59
4, 137919, Note_on_c, 0, 38, 59
4, 138080, Note_on_c, 0, 38, 0
4, 138080, Note_on_c, 0, 26, 0
4, 138080, Note_on_c, 0, 26, 59
4, 138080, Note_on_c, 0, 38, 59
4, 138240, Note_on_c, 0, 38, 0
4, 138240, Note_on_c, 0, 26, 0
4, 138240, Note_on_c, 0, 26, 59
4, 138240, Note_on_c, 0, 38, 59
4, 138399, Note_on_c, 0, 38, 0
4, 138399, Note_on_c, 0, 26, 0
4, 138399, Note_on_c, 0, 26, 59
4, 138399, Note_on_c, 0, 38, 59
4, 138560, Note_on_c, 0, 38, 0
4, 138560, Note_on_c, 0, 26, 0
4, 138560, Note_on_c, 0, 26, 59
4, 138560, Note_on_c, 0, 38, 59
4, 138720, Note_on_c, 0, 38, 0
4, 138720, Note_on_c, 0, 26, 0
4, 138720, Note_on_c, 0, 26, 59
4, 138720, Note_on_c, 0, 38, 59
4, 138879, Note_on_c, 0, 38, 0
4, 138879, Note_on_c, 0, 26, 0
4, 138879, Note_on_c, 0, 26, 59
4, 138879, Note_on_c, 0, 38, 59
4, 139040, Note_on_c, 0, 38, 0
4, 139040, Note_on_c, 0, 26, 0
4, 139040, Note_on_c, 0, 26, 59
4, 139040, Note_on_c, 0, 38, 59
4, 139200, Note_on_c, 0, 38, 0
4, 139200, Note_on_c, 0, 26, 0
4, 139200, Note_on_c, 0, 27, 59
4, 139200, Note_on_c, 0, 39, 59
4, 139359, Note_on_c, 0, 39, 0
4, 139359, Note_on_c, 0, 27, 0
4, 139359, Note_on_c, 0, 27, 59
4, 139359, Note_on_c, 0, 39, 59
4, 139520, Note_on_c, 0, 39, 0
4, 139520, Note_on_c, 0, 27, 0
4, 139520, Note_on_c, 0, 27, 59
4, 139520, Note_on_c, 0, 39, 59
4, 139680, Note_on_c, 0, 39, 0
4, 139680, Note_on_c, 0, 27, 0
4, 139680, Note_on_c, 0, 27, 59
4, 139680, Note_on_c, 0, 39, 59
4, 139839, Note_on_c, 0, 39, 0
4, 139839, Note_on_c, 0, 27, 0
4, 139839, Note_on_c, 0, 27, 59
4, 139839, Note_on_c, 0, 39, 59
4, 140000, Note_on_c, 0, 39, 0
4, 140000, Note_on_c, 0, 27, 0
4, 140000, Note_on_c, 0, 27, 59
4, 140000, Note_on_c, 0, 39, 59
4, 140160, Note_on_c, 0, 39, 0
4, 140160, Note_on_c, 0, 27, 0
4, 140160, Note_on_c, 0, 28, 59
4, 140160, Note_on_c, 0, 40, 59
4, 140319, Note_on_c, 0, 40, 0
4, 140319, Note_on_c, 0, 28, 0
4, 140319, Note_on_c, 0, 28, 59
4, 140319, Note_on_c, 0, 40, 59
4, 140480, Note_on_c, 0, 40, 0
4, 140480, Note_on_c, 0, 28, 0
4, 140480, Note_on_c, 0, 28, 59
4, 140480, Note_on_c, 0, 40, 59
4, 140640, Note_on_c, 0, 40, 0
4, 140640, Note_on_c, 0, 28, 0
4, 140640, Note_on_c, 0, 28, 72
4, 140640, Note_on_c, 0, 40, 72
4, 140799, Note_on_c, 0, 40, 0
4, 140799, Note_on_c, 0, 28, 0
4, 140799, Note_on_c, 0, 28, 72
4, 140799, Note_on_c, 0, 40, 72
4, 140960, Note_on_c, 0, 40, 0
4, 140960, Note_on_c, 0, 28, 0
4, 140960, Note_on_c, 0, 28, 72
4, 140960, Note_on_c, 0, 40, 72
4, 141120, Note_on_c, 0, 40, 0
4, 141120, Note_on_c, 0, 28, 0
4, 141120, Note_on_c, 0, 29, 85
4, 141120, Note_on_c, 0, 41, 85
4, 141279, Note_on_c, 0, 41, 0
4, 141279, Note_on_c, 0, 29, 0
4, 141279, Note_on_c, 0, 29, 85
4, 141279, Note_on_c, 0, 41, 85
4, 141440, Note_on_c, 0, 41, 0
4, 141440, Note_on_c, 0, 29, 0
4, 141440, Note_on_c, 0, 29, 85
4, 141440, Note_on_c, 0, 41, 85
4, 141600, Note_on_c, 0, 41, 0
4, 141600, Note_on_c, 0, 29, 0
4, 141600, Note_on_c, 0, 29, 98
4, 141600, Note_on_c, 0, 41, 98
4, 141759, Note_on_c, 0, 41, 0
4, 141759, Note_on_c, 0, 29, 0
4, 141759, Note_on_c, 0, 29, 98
4, 141759, Note_on_c, 0, 41, 98
4, 141920, Note_on_c, 0, 41, 0
4, 141920, Note_on_c, 0, 29, 0
4, 141920, Note_on_c, 0, 29, 98
4, 141920, Note_on_c, 0, 41, 98
4, 142080, Note_on_c, 0, 41, 0
4, 142080, Note_on_c, 0, 29, 0
4, 142080, Note_on_c, 0, 29, 59
4, 142080, Note_on_c, 0, 41, 59
4, 142239, Note_on_c, 0, 41, 0
4, 142239, Note_on_c, 0, 29, 0
4, 142239, Note_on_c, 0, 29, 59
4, 142239, Note_on_c, 0, 41, 59
4, 142400, Note_on_c, 0, 41, 0
4, 142400, Note_on_c, 0, 29, 0
4, 142400, Note_on_c, 0, 29, 59
4, 142400, Note_on_c, 0, 41, 59
4, 142560, Note_on_c, 0, 41, 0
4, 142560, Note_on_c, 0, 29, 0
4, 142560, Note_on_c, 0, 29, 59
4, 142560, Note_on_c, 0, 41, 59
4, 142719, Note_on_c, 0, 41, 0
4, 142719, Note_on_c, 0, 29, 0
4, 142719, Note_on_c, 0, 29, 59
4, 142719, Note_on_c, 0, 41, 59
4, 142880, Note_on_c, 0, 41, 0
4, 142880, Note_on_c, 0, 29, 0
4, 142880, Note_on_c, 0, 29, 59
4, 142880, Note_on_c, 0, 41, 59
4, 143040, Note_on_c, 0, 41, 0
4, 143040, Note_on_c, 0, 29, 0
4, 143040, Note_on_c, 0, 30, 59
4, 143040, Note_on_c, 0, 42, 59
4, 143199, Note_on_c, 0, 42, 0
4, 143199, Note_on_c, 0, 30, 0
4, 143199, Note_on_c, 0, 30, 59
4, 143199, Note_on_c, 0, 42, 59
4, 143360, Note_on_c, 0, 42, 0
4, 143360, Note_on_c, 0, 30, 0
4, 143360, Note_on_c, 0, 30, 59
4, 143360, Note_on_c, 0, 42, 59
4, 143520, Note_on_c, 0, 42, 0
4, 143520, Note_on_c, 0, 30, 0
4, 143520, Note_on_c, 0, 30, 59
4, 143520, Note_on_c, 0, 42, 59
4, 143679, Note_on_c, 0, 42, 0
4, 143679, Note_on_c, 0, 30, 0
4, 143679, Note_on_c, 0, 30, 59
4, 143679, Note_on_c, 0, 42, 59
4, 143840, Note_on_c, 0, 42, 0
4, 143840, Note_on_c, 0, 30, 0
4, 143840, Note_on_c, 0, 30, 59
4, 143840, Note_on_c, 0, 42, 59
4, 144000, Note_on_c, 0, 42, 0
4, 144000, Note_on_c, 0, 30, 0
4, 144000, Note_on_c, 0, 31, 72
4, 144000, Note_on_c, 0, 43, 72
4, 144159, Note_on_c, 0, 43, 0
4, 144159, Note_on_c, 0, 31, 0
4, 144159, Note_on_c, 0, 31, 72
4, 144159, Note_on_c, 0, 43, 72
4, 144320, Note_on_c, 0, 43, 0
4, 144320, Note_on_c, 0, 31, 0
4, 144320, Note_on_c, 0, 31, 72
4, 144320, Note_on_c, 0, 43, 72
4, 144480, Note_on_c, 0, 43, 0
4, 144480, Note_on_c, 0, 31, 0
4, 144480, Note_on_c, 0, 31, 72
4, 144480, Note_on_c, 0, 43, 72
4, 144639, Note_on_c, 0, 43, 0
4, 144639, Note_on_c, 0, 31, 0
4, 144639, Note_on_c, 0, 31, 72
4, 144639, Note_on_c, 0, 43, 72
4, 144800, Note_on_c, 0, 43, 0
4, 144800, Note_on_c, 0, 31, 0
4, 144800, Note_on_c, 0, 31, 72
4, 144800, Note_on_c, 0, 43, 72
4, 144960, Note_on_c, 0, 43, 0
4, 144960, Note_on_c, 0, 31, 0
4, 144960, Note_on_c, 0, 32, 85
4, 144960, Note_on_c, 0, 44, 85
4, 145119, Note_on_c, 0, 44, 0
4, 145119, Note_on_c, 0, 32, 0
4, 145119, Note_on_c, 0, 32, 85
4, 145119, Note_on_c, 0, 44, 85
4, 145280, Note_on_c, 0, 44, 0
4, 145280, Note_on_c, 0, 32, 0
4, 145280, Note_on_c, 0, 32, 85
4, 145280, Note_on_c, 0, 44, 85
4, 145440, Note_on_c, 0, 44, 0
4, 145440, Note_on_c, 0, 32, 0
4, 145440, Note_on_c, 0, 32, 98
4, 145440, Note_on_c, 0, 44, 98
4, 145599, Note_on_c, 0, 44, 0
4, 145599, Note_on_c, 0, 32, 0
4, 145599, Note_on_c, 0, 32, 98
4, 145599, Note_on_c, 0, 44, 98
4, 145760, Note_on_c, 0, 44, 0
4, 145760, Note_on_c, 0, 32, 0
4, 145760, Note_on_c, 0, 32, 98
4, 145760, Note_on_c, 0, 44, 98
4, 145920, Note_on_c, 0, 44, 0
4, 145920, Note_on_c, 0, 32, 0
4, 145920, Note_on_c, 0, 33, 72
4, 145920, Note_on_c, 0, 45, 72
4, 146079, Note_on_c, 0, 45, 0
4, 146079, Note_on_c, 0, 33, 0
4, 146079, Note_on_c, 0, 33, 72
4, 146079, Note_on_c, 0, 45, 72
4, 146240, Note_on_c, 0, 45, 0
4, 146240, Note_on_c, 0, 33, 0
4, 146240, Note_on_c, 0, 33, 72
4, 146240, Note_on_c, 0, 45, 72
4, 146400, Note_on_c, 0, 45, 0
4, 146400, Note_on_c, 0, 33, 0
4, 146400, Note_on_c, 0, 34, 72
4, 146400, Note_on_c, 0, 46, 72
4, 146559, Note_on_c, 0, 46, 0
4, 146559, Note_on_c, 0, 34, 0
4, 146559, Note_on_c, 0, 34, 72
4, 146559, Note_on_c, 0, 46, 72
4, 146720, Note_on_c, 0, 46, 0
4, 146720, Note_on_c, 0, 34, 0
4, 146720, Note_on_c, 0, 34, 72
4, 146720, Note_on_c, 0, 46, 72
4, 146880, Note_on_c, 0, 46, 0
4, 146880, Note_on_c, 0, 34, 0
4, 146880, Note_on_c, 0, 35, 72
4, 146880, Note_on_c, 0, 47, 72
4, 147039, Note_on_c, 0, 47, 0
4, 147039, Note_on_c, 0, 35, 0
4, 147039, Note_on_c, 0, 35, 72
4, 147039, Note_on_c, 0, 47, 72
4, 147200, Note_on_c, 0, 47, 0
4, 147200, Note_on_c, 0, 35, 0
4, 147200, Note_on_c, 0, 35, 72
4, 147200, Note_on_c, 0, 47, 72
4, 147360, Note_on_c, 0, 47, 0
4, 147360, Note_on_c, 0, 35, 0
4, 147360, Note_on_c, 0, 36, 72
4, 147360, Note_on_c, 0, 48, 72
4, 147519, Note_on_c, 0, 48, 0
4, 147519, Note_on_c, 0, 36, 0
4, 147519, Note_on_c, 0, 36, 72
4, 147519, Note_on_c, 0, 48, 72
4, 147680, Note_on_c, 0, 48, 0
4, 147680, Note_on_c, 0, 36, 0
4, 147680, Note_on_c, 0, 36, 72
4, 147680, Note_on_c, 0, 48, 72
4, 147840, Note_on_c, 0, 48, 0
4, 147840, Note_on_c, 0, 36, 0
4, 147840, Note_on_c, 0, 37, 72
4, 147840, Note_on_c, 0, 49, 72
4, 147999, Note_on_c, 0, 49, 0
4, 147999, Note_on_c, 0, 37, 0
4, 147999, Note_on_c, 0, 37, 72
4, 147999, Note_on_c, 0, 49, 72
4, 148160, Note_on_c, 0, 49, 0
4, 148160, Note_on_c, 0, 37, 0
4, 148160, Note_on_c, 0, 37, 72
4, 148160, Note_on_c, 0, 49, 72
4, 148320, Note_on_c, 0, 49, 0
4, 148320, Note_on_c, 0, 37, 0
4, 148320, Note_on_c, 0, 38, 72
4, 148320, Note_on_c, 0, 50, 72
4, 148479, Note_on_c, 0, 50, 0
4, 148479, Note_on_c, 0, 38, 0
4, 148479, Note_on_c, 0, 38, 72
4, 148479, Note_on_c, 0, 50, 72
4, 148640, Note_on_c, 0, 50, 0
4, 148640, Note_on_c, 0, 38, 0
4, 148640, Note_on_c, 0, 38, 72
4, 148640, Note_on_c, 0, 50, 72
4, 148800, Note_on_c, 0, 50, 0
4, 148800, Note_on_c, 0, 38, 0
4, 148800, Note_on_c, 0, 39, 72
4, 148800, Note_on_c, 0, 51, 72
4, 148959, Note_on_c, 0, 51, 0
4, 148959, Note_on_c, 0, 39, 0
4, 148959, Note_on_c, 0, 39, 72
4, 148959, Note_on_c, 0, 51, 72
4, 149120, Note_on_c, 0, 51, 0
4, 149120, Note_on_c, 0, 39, 0
4, 149120, Note_on_c, 0, 39, 72
4, 149120, Note_on_c, 0, 51, 72
4, 149280, Note_on_c, 0, 51, 0
4, 149280, Note_on_c, 0, 39, 0
4, 149280, Note_on_c, 0, 40, 72
4, 149280, Note_on_c, 0, 52, 72
4, 149439, Note_on_c, 0, 52, 0
4, 149439, Note_on_c, 0, 40, 0
4, 149439, Note_on_c, 0, 40, 72
4, 149439, Note_on_c, 0, 52, 72
4, 149600, Note_on_c, 0, 52, 0
4, 149600, Note_on_c, 0, 40, 0
4, 149600, Note_on_c, 0, 40, 72
4, 149600, Note_on_c, 0, 52, 72
4, 149760, Note_on_c, 0, 52, 0
4, 149760, Note_on_c, 0, 40, 0
4, 149760, Note_on_c, 0, 41, 85
4, 149760, Note_on_c, 0, 53, 85
4, 149919, Note_on_c, 0, 53, 0
4, 149919, Note_on_c, 0, 41, 0
4, 149919, Note_on_c, 0, 41, 85
4, 149919, Note_on_c, 0, 53, 85
4, 150080, Note_on_c, 0, 53, 0
4, 150080, Note_on_c, 0, 41, 0
4, 150080, Note_on_c, 0, 41, 85
4, 150080, Note_on_c, 0, 53, 85
4, 150240, Note_on_c, 0, 53, 0
4, 150240, Note_on_c, 0, 41, 0
4, 150240, Note_on_c, 0, 42, 85
4, 150240, Note_on_c, 0, 45, 85
4, 150240, Note_on_c, 0, 48, 85
4, 150240, Note_on_c, 0, 54, 85
4, 150720, Note_on_c, 0, 54, 0
4, 150720, Note_on_c, 0, 42, 0
4, 150720, Note_on_c, 0, 41, 85
4, 150720, Note_on_c, 0, 53, 85
4, 150960, Note_on_c, 0, 53, 0
4, 150960, Note_on_c, 0, 45, 0
4, 150960, Note_on_c, 0, 48, 0
4, 150960, Note_on_c, 0, 41, 0
4, 151200, Note_on_c, 0, 42, 85
4, 151200, Note_on_c, 0, 45, 85
4, 151200, Note_on_c, 0, 48, 85
4, 151200, Note_on_c, 0, 54, 85
4, 151680, Note_on_c, 0, 54, 0
4, 151680, Note_on_c, 0, 42, 0
4, 151680, Note_on_c, 0, 41, 85
4, 151680, Note_on_c, 0, 53, 85
4, 152000, Note_on_c, 0, 53, 0
4, 152000, Note_on_c, 0, 45, 0
4, 152000, Note_on_c, 0, 48, 0
4, 152000, Note_on_c, 0, 41, 0
4, 152000, Note_on_c, 0, 42, 85
4, 152000, Note_on_c, 0, 54, 85
4, 152160, Note_on_c, 0, 54, 0
4, 152160, Note_on_c, 0, 42, 0
4, 152160, Note_on_c, 0, 41, 85
4, 152160, Note_on_c, 0, 45, 85
4, 152160, Note_on_c, 0, 48, 85
4, 152160, Note_on_c, 0, 53, 85
4, 152480, Note_on_c, 0, 53, 0
4, 152480, Note_on_c, 0, 41, 0
4, 152480, Note_on_c, 0, 45, 0
4, 152480, Note_on_c, 0, 48, 0
4, 152480, Note_on_c, 0, 42, 85
4, 152480, Note_on_c, 0, 54, 85
4, 152640, Note_on_c, 0, 54, 0
4, 152640, Note_on_c, 0, 42, 0
4, 152640, Note_on_c, 0, 41, 85
4, 152640, Note_on_c, 0, 45, 85
4, 152640, Note_on_c, 0, 48, 85
4, 152640, Note_on_c, 0, 53, 85
4, 152960, Note_on_c, 0, 53, 0
4, 152960, Note_on_c, 0, 41, 0
4, 152960, Note_on_c, 0, 45, 0
4, 152960, Note_on_c, 0, 48, 0
4, 152960, Note_on_c, 0, 42, 85
4, 152960, Note_on_c, 0, 54, 85
4, 153120, Note_on_c, 0, 54, 0
4, 153120, Note_on_c, 0, 42, 0
4, 153120, Note_on_c, 0, 41, 85
4, 153120, Note_on_c, 0, 45, 85
4, 153120, Note_on_c, 0, 48, 85
4, 153120, Note_on_c, 0, 53, 85
4, 153440, Note_on_c, 0, 53, 0
4, 153440, Note_on_c, 0, 41, 0
4, 153440, Note_on_c, 0, 45, 0
4, 153440, Note_on_c, 0, 48, 0
4, 153440, Note_on_c, 0, 42, 85
4, 153440, Note_on_c, 0, 54, 85
4, 153600, Note_on_c, 0, 54, 0
4, 153600, Note_on_c, 0, 42, 0
4, 153600, Note_on_c, 0, 41, 85
4, 153600, Note_on_c, 0, 45, 85
4, 153600, Note_on_c, 0, 48, 85
4, 153600, Note_on_c, 0, 53, 85
4, 153840, Note_on_c, 0, 53, 0
4, 153840, Note_on_c, 0, 41, 0
4, 153840, Note_on_c, 0, 45, 0
4, 153840, Note_on_c, 0, 48, 0
4, 154080, Note_on_c, 0, 53, 111
4, 154080, Note_on_c, 0, 57, 111
4, 154080, Note_on_c, 0, 60, 111
4, 154080, Note_on_c, 0, 63, 111
4, 155040, Note_on_c, 0, 63, 0
4, 155040, Note_on_c, 0, 53, 0
4, 155040, Note_on_c, 0, 57, 0
4, 155040, Note_on_c, 0, 60, 0
4, 155040, Note_on_c, 0, 53, 111
4, 155040, Note_on_c, 0, 57, 111
4, 155040, Note_on_c, 0, 60, 111
4, 155040, Note_on_c, 0, 63, 111
4, 155520, Note_on_c, 0, 63, 0
4, 155520, Note_on_c, 0, 53, 0
4, 155520, Note_on_c, 0, 57, 0
4, 155520, Note_on_c, 0, 60, 0
4, 155520, Note_on_c, 0, 52, 98
4, 155520, Note_on_c, 0, 57, 98
4, 155520, Note_on_c, 0, 60, 98
4, 155520, Note_on_c, 0, 64, 98
4, 155679, Note_on_c, 0, 64, 0
4, 155679, Note_on_c, 0, 52, 0
4, 155679, Note_on_c, 0, 57, 0
4, 155679, Note_on_c, 0, 60, 0
4, 155679, Note_on_c, 0, 52, 98
4, 155679, Note_on_c, 0, 57, 98
4, 155679, Note_on_c, 0, 60, 98
4, 155840, Note_on_c, 0, 60, 0
4, 155840, Note_on_c, 0, 57, 0
4, 155840, Note_on_c, 0, 52, 0
4, 155840, Note_on_c, 0, 52, 98
4, 155840, Note_on_c, 0, 57, 98
4, 155840, Note_on_c, 0, 60, 98
4, 156000, Note_on_c, 0, 60, 0
4, 156000, Note_on_c, 0, 57, 0
4, 156000, Note_on_c, 0, 52, 0
4, 156000, Note_on_c, 0, 52, 98
4, 156000, Note_on_c, 0, 57, 98
4, 156000, Note_on_c, 0, 60, 98
4, 156159, Note_on_c, 0, 60, 0
4, 156159, Note_on_c, 0, 57, 0
4, 156159, Note_on_c, 0, 52, 0
4, 156159, Note_on_c, 0, 52, 98
4, 156159, Note_on_c, 0, 57, 98
4, 156159, Note_on_c, 0, 60, 98
4, 156320, Note_on_c, 0, 60, 0
4, 156320, Note_on_c, 0, 57, 0
4, 156320, Note_on_c, 0, 52, 0
4, 156320, Note_on_c, 0, 52, 98
4, 156320, Note_on_c, 0, 57, 98
4, 156320, Note_on_c, 0, 60, 98
4, 156480, Note_on_c, 0, 60, 0
4, 156480, Note_on_c, 0, 57, 0
4, 156480, Note_on_c, 0, 52, 0
4, 156480, Note_on_c, 0, 50, 98
4, 156480, Note_on_c, 0, 57, 98
4, 156480, Note_on_c, 0, 59, 98
4, 156720, Note_on_c, 0, 59, 0
4, 156720, Note_on_c, 0, 57, 0
4, 156720, Note_on_c, 0, 50, 0
4, 156960, Note_on_c, 0, 52, 98
4, 156960, Note_on_c, 0, 56, 98
4, 156960, Note_on_c, 0, 59, 98
4, 157119, Note_on_c, 0, 59, 0
4, 157119, Note_on_c, 0, 56, 0
4, 157119, Note_on_c, 0, 52, 0
4, 157119, Note_on_c, 0, 40, 98
4, 157200, Note_on_c, 0, 40, 0
4, 157200, Note_on_c, 0, 52, 98
4, 157280, Note_on_c, 0, 52, 0
4, 157280, Note_on_c, 0, 40, 98
4, 157359, Note_on_c, 0, 40, 0
4, 157359, Note_on_c, 0, 52, 98
4, 157440, Note_on_c, 0, 52, 0
4, 157440, Note_on_c, 0, 40, 98
4, 157560, Note_on_c, 0, 40, 0
4, 157560, Note_on_c, 0, 52, 98
4, 157680, Note_on_c, 0, 52, 0
4, 157680, Note_on_c, 0, 40, 98
4, 157800, Note_on_c, 0, 40, 0
4, 157800, Note_on_c, 0, 52, 98
4, 157920, Note_on_c, 0, 52, 0
4, 157920, Note_on_c, 0, 40, 85
4, 158040, Note_on_c, 0, 40, 0
4, 158040, Note_on_c, 0, 52, 85
4, 158160, Note_on_c, 0, 52, 0
4, 158160, Note_on_c, 0, 40, 85
4, 158280, Note_on_c, 0, 40, 0
4, 158280, Note_on_c, 0, 52, 85
4, 158400, Note_on_c, 0, 52, 0
4, 158400, Note_on_c, 0, 40, 72
4, 158520, Note_on_c, 0, 40, 0
4, 158520, Note_on_c, 0, 52, 72
4, 158640, Note_on_c, 0, 52, 0
4, 158640, Note_on_c, 0, 40, 72
4, 158760, Note_on_c, 0, 40, 0
4, 158760, Note_on_c, 0, 52, 72
4, 158880, Note_on_c, 0, 52, 0
4, 158880, Note_on_c, 0, 40, 59
4, 159000, Note_on_c, 0, 40, 0
4, 159000, Note_on_c, 0, 52, 59
4, 159120, Note_on_c, 0, 52, 0
4, 159120, Note_on_c, 0, 40, 59
4, 159240, Note_on_c, 0, 40, 0
4, 159240, Note_on_c, 0, 52, 59
4, 159360, Note_on_c, 0, 52, 0
4, 159360, Note_on_c, 0, 40, 59
4, 159480, Note_on_c, 0, 40, 0
4, 159480, Note_on_c, 0, 52, 59
4, 159600, Note_on_c, 0, 52, 0
4, 159600, Note_on_c, 0, 40, 59
4, 159720, Note_on_c, 0, 40, 0
4, 159720, Note_on_c, 0, 52, 59
4, 159840, Note_on_c, 0, 52, 0
4, 159840, Note_on_c, 0, 40, 59
4, 160080, Note_on_c, 0, 40, 0
4, 160080, Note_on_c, 0, 52, 59
4, 160320, Note_on_c, 0, 52, 0
4, 160320, Note_on_c, 0, 40, 59
4, 160560, Note_on_c, 0, 40, 0
4, 160560, Note_on_c, 0, 52, 59
4, 160800, Note_on_c, 0, 52, 0
4, 160800, Note_on_c, 0, 40, 59
4, 161040, Note_on_c, 0, 40, 0
4, 161040, Note_on_c, 0, 52, 59
4, 161280, Note_on_c, 0, 52, 0
4, 161280, Note_on_c, 0, 40, 59
4, 161520, Note_on_c, 0, 40, 0
4, 161520, Note_on_c, 0, 52, 59
4, 161760, Note_on_c, 0, 52, 0
4, 161760, Note_on_c, 0, 40, 59
4, 162000, Note_on_c, 0, 40, 0
4, 162000, Note_on_c, 0, 52, 59
4, 162240, Note_on_c, 0, 52, 0
4, 162240, Note_on_c, 0, 40, 59
4, 162480, Note_on_c, 0, 40, 0
4, 162480, Note_on_c, 0, 52, 59
4, 162720, Note_on_c, 0, 52, 0
4, 162720, Note_on_c, 0, 40, 59
4, 162960, Note_on_c, 0, 40, 0
4, 162960, Note_on_c, 0, 52, 59
4, 163200, Note_on_c, 0, 52, 0
4, 163200, Note_on_c, 0, 40, 59
4, 163440, Note_on_c, 0, 40, 0
4, 163440, Note_on_c, 0, 52, 59
4, 163680, Note_on_c, 0, 52, 0
4, 163680, Note_on_c, 0, 40, 59
4, 163920, Note_on_c, 0, 40, 0
4, 163920, Note_on_c, 0, 52, 59
4, 164160, Note_on_c, 0, 52, 0
4, 164160, Note_on_c, 0, 40, 59
4, 164400, Note_on_c, 0, 40, 0
4, 164400, Note_on_c, 0, 52, 59
4, 164640, Note_on_c, 0, 52, 0
4, 164640, Note_on_c, 0, 40, 59
4, 164880, Note_on_c, 0, 40, 0
4, 164880, Note_on_c, 0, 52, 59
4, 165120, Note_on_c, 0, 52, 0
4, 165120, Note_on_c, 0, 40, 59
4, 165360, Note_on_c, 0, 40, 0
4, 165360, Note_on_c, 0, 52, 59
4, 165600, Note_on_c, 0, 52, 0
4, 165600, Note_on_c, 0, 40, 59
4, 165840, Note_on_c, 0, 40, 0
4, 165840, Note_on_c, 0, 52, 59
4, 166080, Note_on_c, 0, 52, 0
4, 166080, Note_on_c, 0, 40, 59
4, 166320, Note_on_c, 0, 40, 0
4, 166320, Note_on_c, 0, 52, 59
4, 166560, Note_on_c, 0, 52, 0
4, 166560, Note_on_c, 0, 40, 59
4, 166800, Note_on_c, 0, 40, 0
4, 166800, Note_on_c, 0, 52, 59
4, 167040, Note_on_c, 0, 52, 0
4, 167040, Note_on_c, 0, 40, 59
4, 167280, Note_on_c, 0, 40, 0
4, 167280, Note_on_c, 0, 52, 59
4, 167520, Note_on_c, 0, 52, 0
4, 167520, Note_on_c, 0, 40, 59
4, 167760, Note_on_c, 0, 40, 0
4, 167760, Note_on_c, 0, 52, 59
4, 168000, Note_on_c, 0, 52, 0
4, 168000, Note_on_c, 0, 40, 59
4, 168240, Note_on_c, 0, 40, 0
4, 168240, Note_on_c, 0, 52, 59
4, 168480, Note_on_c, 0, 52, 0
4, 168480, Note_on_c, 0, 40, 59
4, 168720, Note_on_c, 0, 40, 0
4, 168720, Note_on_c, 0, 52, 59
4, 168960, Note_on_c, 0, 52, 0
4, 168960, Note_on_c, 0, 40, 59
4, 169200, Note_on_c, 0, 40, 0
4, 169200, Note_on_c, 0, 52, 59
4, 169440, Note_on_c, 0, 52, 0
4, 169440, Note_on_c, 0, 40, 59
4, 169680, Note_on_c, 0, 40, 0
4, 169680, Note_on_c, 0, 52, 59
4, 169920, Note_on_c, 0, 52, 0
4, 169920, Note_on_c, 0, 40, 59
4, 170160, Note_on_c, 0, 40, 0
4, 170160, Note_on_c, 0, 52, 59
4, 170400, Note_on_c, 0, 52, 0
4, 170400, Note_on_c, 0, 40, 59
4, 170640, Note_on_c, 0, 40, 0
4, 170640, Note_on_c, 0, 52, 59
4, 170880, Note_on_c, 0, 52, 0
4, 170880, Note_on_c, 0, 40, 59
4, 171120, Note_on_c, 0, 40, 0
4, 171120, Note_on_c, 0, 52, 72
4, 171360, Note_on_c, 0, 52, 0
4, 171360, Note_on_c, 0, 40, 72
4, 171600, Note_on_c, 0, 40, 0
4, 171600, Note_on_c, 0, 52, 72
4, 171840, Note_on_c, 0, 52, 0
4, 171840, Note_on_c, 0, 40, 72
4, 172080, Note_on_c, 0, 40, 0
4, 172080, Note_on_c, 0, 52, 72
4, 172320, Note_on_c, 0, 52, 0
4, 172320, Note_on_c, 0, 40, 72
4, 172560, Note_on_c, 0, 40, 0
4, 172560, Note_on_c, 0, 52, 72
4, 172800, Note_on_c, 0, 52, 0
4, 172800, Note_on_c, 0, 40, 72
4, 173040, Note_on_c, 0, 40, 0
4, 173040, Note_on_c, 0, 52, 72
4, 173280, Note_on_c, 0, 52, 0
4, 173280, Note_on_c, 0, 40, 72
4, 173520, Note_on_c, 0, 40, 0
4, 173520, Note_on_c, 0, 52, 72
4, 173760, Note_on_c, 0, 52, 0
4, 173760, Note_on_c, 0, 40, 72
4, 174000, Note_on_c, 0, 40, 0
4, 174000, Note_on_c, 0, 52, 72
4, 174240, Note_on_c, 0, 52, 0
4, 174240, Note_on_c, 0, 40, 72
4, 174480, Note_on_c, 0, 40, 0
4, 174480, Note_on_c, 0, 52, 72
4, 174720, Note_on_c, 0, 52, 0
4, 174720, Note_on_c, 0, 40, 72
4, 174960, Note_on_c, 0, 40, 0
4, 174960, Note_on_c, 0, 52, 72
4, 175200, Note_on_c, 0, 52, 0
4, 175200, Note_on_c, 0, 40, 72
4, 175440, Note_on_c, 0, 40, 0
4, 175440, Note_on_c, 0, 52, 72
4, 175680, Note_on_c, 0, 52, 0
4, 175680, Note_on_c, 0, 40, 72
4, 175920, Note_on_c, 0, 40, 0
4, 175920, Note_on_c, 0, 52, 72
4, 176160, Note_on_c, 0, 52, 0
4, 176160, Note_on_c, 0, 40, 72
4, 176400, Note_on_c, 0, 40, 0
4, 176400, Note_on_c, 0, 52, 72
4, 176640, Note_on_c, 0, 52, 0
4, 176640, Note_on_c, 0, 40, 72
4, 176880, Note_on_c, 0, 40, 0
4, 176880, Note_on_c, 0, 52, 72
4, 177120, Note_on_c, 0, 52, 0
4, 177120, Note_on_c, 0, 40, 72
4, 177360, Note_on_c, 0, 40, 0
4, 177360, Note_on_c, 0, 52, 72
4, 177600, Note_on_c, 0, 52, 0
4, 177600, Note_on_c, 0, 40, 85
4, 177840, Note_on_c, 0, 40, 0
4, 177840, Note_on_c, 0, 52, 85
4, 178080, Note_on_c, 0, 52, 0
4, 178080, Note_on_c, 0, 40, 85
4, 178320, Note_on_c, 0, 40, 0
4, 178320, Note_on_c, 0, 52, 85
4, 178560, Note_on_c, 0, 52, 0
4, 178560, Note_on_c, 0, 40, 85
4, 178800, Note_on_c, 0, 40, 0
4, 178800, Note_on_c, 0, 52, 85
4, 179040, Note_on_c, 0, 52, 0
4, 179040, Note_on_c, 0, 40, 85
4, 179280, Note_on_c, 0, 40, 0
4, 179280, Note_on_c, 0, 52, 85
4, 179520, Note_on_c, 0, 52, 0
4, 179520, Note_on_c, 0, 40, 85
4, 179760, Note_on_c, 0, 40, 0
4, 179760, Note_on_c, 0, 52, 85
4, 180000, Note_on_c, 0, 52, 0
4, 180000, Note_on_c, 0, 40, 85
4, 180240, Note_on_c, 0, 40, 0
4, 180240, Note_on_c, 0, 52, 85
4, 180480, Note_on_c, 0, 52, 0
4, 180480, Note_on_c, 0, 40, 85
4, 180720, Note_on_c, 0, 40, 0
4, 180720, Note_on_c, 0, 52, 85
4, 180960, Note_on_c, 0, 52, 0
4, 180960, Note_on_c, 0, 40, 85
4, 181200, Note_on_c, 0, 40, 0
4, 181200, Note_on_c, 0, 52, 85
4, 181440, Note_on_c, 0, 52, 0
4, 181440, Note_on_c, 0, 40, 85
4, 181680, Note_on_c, 0, 40, 0
4, 181680, Note_on_c, 0, 52, 85
4, 181920, Note_on_c, 0, 52, 0
4, 181920, Note_on_c, 0, 40, 85
4, 182160, Note_on_c, 0, 40, 0
4, 182160, Note_on_c, 0, 52, 85
4, 182400, Note_on_c, 0, 52, 0
4, 182400, Note_on_c, 0, 40, 85
4, 182640, Note_on_c, 0, 40, 0
4, 182640, Note_on_c, 0, 52, 85
4, 182880, Note_on_c, 0, 52, 0
4, 182880, Note_on_c, 0, 40, 85
4, 183120, Note_on_c, 0, 40, 0
4, 183120, Note_on_c, 0, 52, 85
4, 183360, Note_on_c, 0, 52, 0
4, 183360, Note_on_c, 0, 40, 72
4, 183600, Note_on_c, 0, 40, 0
4, 183600, Note_on_c, 0, 52, 72
4, 183840, Note_on_c, 0, 52, 0
4, 183840, Note_on_c, 0, 40, 72
4, 184080, Note_on_c, 0, 40, 0
4, 184080, Note_on_c, 0, 52, 72
4, 184320, Note_on_c, 0, 52, 0
4, 184320, Note_on_c, 0, 40, 72
4, 184560, Note_on_c, 0, 40, 0
4, 184560, Note_on_c, 0, 52, 72
4, 184800, Note_on_c, 0, 52, 0
4, 184800, Note_on_c, 0, 40, 72
4, 185040, Note_on_c, 0, 40, 0
4, 185040, Note_on_c, 0, 52, 72
4, 185280, Note_on_c, 0, 52, 0
4, 185280, Note_on_c, 0, 40, 72
4, 185520, Note_on_c, 0, 40, 0
4, 185520, Note_on_c, 0, 52, 72
4, 185760, Note_on_c, 0, 52, 0
4, 185760, Note_on_c, 0, 40, 72
4, 186000, Note_on_c, 0, 40, 0
4, 186000, Note_on_c, 0, 52, 72
4, 186240, Note_on_c, 0, 52, 0
4, 186240, Note_on_c, 0, 40, 72
4, 186480, Note_on_c, 0, 40, 0
4, 186480, Note_on_c, 0, 52, 72
4, 186720, Note_on_c, 0, 52, 0
4, 186720, Note_on_c, 0, 40, 59
4, 186960, Note_on_c, 0, 40, 0
4, 186960, Note_on_c, 0, 52, 59
4, 187200, Note_on_c, 0, 52, 0
4, 187200, Note_on_c, 0, 40, 59
4, 187440, Note_on_c, 0, 40, 0
4, 187440, Note_on_c, 0, 52, 59
4, 187680, Note_on_c, 0, 52, 0
4, 187680, Note_on_c, 0, 40, 59
4, 187920, Note_on_c, 0, 40, 0
4, 187920, Note_on_c, 0, 52, 59
4, 188160, Note_on_c, 0, 52, 0
4, 188160, Note_on_c, 0, 40, 59
4, 188400, Note_on_c, 0, 40, 0
4, 188400, Note_on_c, 0, 52, 59
4, 188640, Note_on_c, 0, 52, 0
4, 188640, Note_on_c, 0, 43, 59
4, 188640, Note_on_c, 0, 46, 59
4, 188880, Note_on_c, 0, 46, 0
4, 188880, Note_on_c, 0, 43, 0
4, 188880, Note_on_c, 0, 43, 59
4, 188880, Note_on_c, 0, 46, 59
4, 189120, Note_on_c, 0, 46, 0
4, 189120, Note_on_c, 0, 43, 0
4, 189120, Note_on_c, 0, 44, 59
4, 189120, Note_on_c, 0, 47, 59
4, 190560, Note_on_c, 0, 47, 0
4, 190560, Note_on_c, 0, 44, 0
4, 190560, Note_on_c, 0, 46, 59
4, 190560, Note_on_c, 0, 49, 59
4, 191280, Note_on_c, 0, 49, 0
4, 191280, Note_on_c, 0, 46, 0
4, 191280, Note_on_c, 0, 47, 59
4, 191280, Note_on_c, 0, 50, 59
4, 192000, Note_on_c, 0, 50, 0
4, 192000, Note_on_c, 0, 47, 0
4, 192000, Note_on_c, 0, 49, 59
4, 192000, Note_on_c, 0, 52, 59
4, 193440, Note_on_c, 0, 52, 0
4, 193440, Note_on_c, 0, 49, 0
4, 193440, Note_on_c, 0, 47, 72
4, 193440, Note_on_c, 0, 50, 72
4, 194160, Note_on_c, 0, 50, 0
4, 194160, Note_on_c, 0, 47, 0
4, 194160, Note_on_c, 0, 49, 72
4, 194160, Note_on_c, 0, 52, 72
4, 194880, Note_on_c, 0, 52, 0
4, 194880, Note_on_c, 0, 49, 0
4, 194880, Note_on_c, 0, 50, 72
4, 194880, Note_on_c, 0, 54, 72
4, 195840, Note_on_c, 0, 54, 0
4, 195840, Note_on_c, 0, 50, 0
4, 195840, Note_on_c, 0, 50, 72
4, 195840, Note_on_c, 0, 54, 72
4, 196080, Note_on_c, 0, 54, 0
4, 196080, Note_on_c, 0, 50, 0
4, 196080, Note_on_c, 0, 50, 72
4, 196080, Note_on_c, 0, 54, 72
4, 196320, Note_on_c, 0, 54, 0
4, 196320, Note_on_c, 0, 50, 0
4, 196320, Note_on_c, 0, 52, 85
4, 196320, Note_on_c, 0, 56, 85
4, 197280, Note_on_c, 0, 56, 0
4, 197280, Note_on_c, 0, 52, 0
4, 197280, Note_on_c, 0, 52, 85
4, 197280, Note_on_c, 0, 56, 85
4, 197520, Note_on_c, 0, 56, 0
4, 197520, Note_on_c, 0, 52, 0
4, 197520, Note_on_c, 0, 52, 85
4, 197520, Note_on_c, 0, 56, 85
4, 197760, Note_on_c, 0, 56, 0
4, 197760, Note_on_c, 0, 52, 0
4, 197760, Note_on_c, 0, 54, 85
4, 197760, Note_on_c, 0, 57, 85
4, 198720, Note_on_c, 0, 57, 0
4, 198720, Note_on_c, 0, 54, 0
4, 198720, Note_on_c, 0, 54, 85
4, 198720, Note_on_c, 0, 57, 85
4, 198960, Note_on_c, 0, 57, 0
4, 198960, Note_on_c, 0, 54, 0
4, 198960, Note_on_c, 0, 54, 85
4, 198960, Note_on_c, 0, 57, 85
4, 199200, Note_on_c, 0, 57, 0
4, 199200, Note_on_c, 0, 54, 0
4, 199200, Note_on_c, 0, 56, 85
4, 199200, Note_on_c, 0, 59, 85
4, 200160, Note_on_c, 0, 59, 0
4, 200160, Note_on_c, 0, 56, 0
4, 200160, Note_on_c, 0, 56, 85
4, 200160, Note_on_c, 0, 59, 85
4, 200400, Note_on_c, 0, 59, 0
4, 200400, Note_on_c, 0, 56, 0
4, 200400, Note_on_c, 0, 56, 85
4, 200400, Note_on_c, 0, 59, 85
4, 200640, Note_on_c, 0, 59, 0
4, 200640, Note_on_c, 0, 56, 0
4, 200640, Note_on_c, 0, 52, 98
4, 200640, Note_on_c, 0, 55, 98
4, 200640, Note_on_c, 0, 58, 98
4, 201120, Note_on_c, 0, 58, 0
4, 201120, Note_on_c, 0, 55, 0
4, 201120, Note_on_c, 0, 52, 0
4, 201120, Note_on_c, 0, 52, 98
4, 201120, Note_on_c, 0, 55, 98
4, 201120, Note_on_c, 0, 58, 98
4, 201360, Note_on_c, 0, 58, 0
4, 201360, Note_on_c, 0, 55, 0
4, 201360, Note_on_c, 0, 52, 0
4, 201360, Note_on_c, 0, 52, 98
4, 201360, Note_on_c, 0, 55, 98
4, 201360, Note_on_c, 0, 58, 98
4, 201840, Note_on_c, 0, 58, 0
4, 201840, Note_on_c, 0, 55, 0
4, 201840, Note_on_c, 0, 52, 0
4, 201840, Note_on_c, 0, 52, 98
4, 201840, Note_on_c, 0, 55, 98
4, 201840, Note_on_c, 0, 58, 98
4, 202080, Note_on_c, 0, 58, 0
4, 202080, Note_on_c, 0, 55, 0
4, 202080, Note_on_c, 0, 52, 0
4, 202080, Note_on_c, 0, 52, 98
4, 202080, Note_on_c, 0, 55, 98
4, 202080, Note_on_c, 0, 58, 98
4, 202560, Note_on_c, 0, 58, 0
4, 202560, Note_on_c, 0, 55, 0
4, 202560, Note_on_c, 0, 52, 0
4, 202560, Note_on_c, 0, 52, 98
4, 202560, Note_on_c, 0, 55, 98
4, 202560, Note_on_c, 0, 58, 98
4, 202800, Note_on_c, 0, 58, 0
4, 202800, Note_on_c, 0, 55, 0
4, 202800, Note_on_c, 0, 52, 0
4, 202800, Note_on_c, 0, 52, 98
4, 202800, Note_on_c, 0, 55, 98
4, 202800, Note_on_c, 0, 58, 98
4, 203280, Note_on_c, 0, 58, 0
4, 203280, Note_on_c, 0, 55, 0
4, 203280, Note_on_c, 0, 52, 0
4, 203280, Note_on_c, 0, 52, 98
4, 203280, Note_on_c, 0, 55, 98
4, 203280, Note_on_c, 0, 58, 98
4, 203520, Note_on_c, 0, 58, 0
4, 203520, Note_on_c, 0, 55, 0
4, 203520, Note_on_c, 0, 52, 0
4, 203520, Note_on_c, 0, 52, 98
4, 203520, Note_on_c, 0, 56, 98
4, 203520, Note_on_c, 0, 59, 98
4, 204000, Note_on_c, 0, 59, 0
4, 204000, Note_on_c, 0, 56, 0
4, 204000, Note_on_c, 0, 52, 0
4, 204000, Note_on_c, 0, 52, 98
4, 204000, Note_on_c, 0, 56, 98
4, 204000, Note_on_c, 0, 59, 98
4, 204240, Note_on_c, 0, 59, 0
4, 204240, Note_on_c, 0, 56, 0
4, 204240, Note_on_c, 0, 52, 0
4, 204240, Note_on_c, 0, 52, 98
4, 204240, Note_on_c, 0, 56, 98
4, 204240, Note_on_c, 0, 59, 98
4, 204720, Note_on_c, 0, 59, 0
4, 204720, Note_on_c, 0, 56, 0
4, 204720, Note_on_c, 0, 52, 0
4, 204720, Note_on_c, 0, 52, 98
4, 204720, Note_on_c, 0, 56, 98
4, 204720, Note_on_c, 0, 59, 98
4, 204960, Note_on_c, 0, 59, 0
4, 204960, Note_on_c, 0, 56, 0
4, 204960, Note_on_c, 0, 52, 0
4, 204960, Note_on_c, 0, 52, 98
4, 204960, Note_on_c, 0, 56, 98
4, 204960, Note_on_c, 0, 59, 98
4, 205440, Note_on_c, 0, 59, 0
4, 205440, Note_on_c, 0, 56, 0
4, 205440, Note_on_c, 0, 52, 0
4, 205440, Note_on_c, 0, 52, 98
4, 205440, Note_on_c, 0, 56, 98
4, 205440, Note_on_c, 0, 59, 98
4, 205680, Note_on_c, 0, 59, 0
4, 205680, Note_on_c, 0, 56, 0
4, 205680, Note_on_c, 0, 52, 0
4, 205680, Note_on_c, 0, 52, 98
4, 205680, Note_on_c, 0, 56, 98
4, 205680, Note_on_c, 0, 59, 98
4, 206160, Note_on_c, 0, 59, 0
4, 206160, Note_on_c, 0, 56, 0
4, 206160, Note_on_c, 0, 52, 0
4, 206160, Note_on_c, 0, 52, 98
4, 206160, Note_on_c, 0, 56, 98
4, 206160, Note_on_c, 0, 59, 98
4, 206400, Note_on_c, 0, 59, 0
4, 206400, Note_on_c, 0, 56, 0
4, 206400, Note_on_c, 0, 52, 0
4, 206400, Note_on_c, 0, 51, 98
4, 206400, Note_on_c, 0, 57, 98
4, 206400, Note_on_c, 0, 60, 98
4, 206640, Note_on_c, 0, 60, 0
4, 206640, Note_on_c, 0, 57, 0
4, 206640, Note_on_c, 0, 51, 0
4, 207120, Control_c, 0, 64, 127
4, 207120, Note_on_c, 0, 51, 85
4, 207120, Note_on_c, 0, 53, 85
4, 207240, Note_on_c, 0, 53, 0
4, 207240, Note_on_c, 0, 51, 0
4, 207240, Note_on_c, 0, 57, 59
4, 207360, Note_on_c, 0, 57, 0
4, 207360, Note_on_c, 0, 51, 59
4, 207360, Note_on_c, 0, 53, 59
4, 207480, Note_on_c, 0, 53, 0
4, 207480, Note_on_c, 0, 51, 0
4, 207480, Note_on_c, 0, 57, 59
4, 207600, Note_on_c, 0, 57, 0
4, 207600, Note_on_c, 0, 51, 59
4, 207600, Note_on_c, 0, 53, 59
4, 207720, Note_on_c, 0, 53, 0
4, 207720, Note_on_c, 0, 51, 0
4, 207720, Control_c, 0, 64, 0
4, 207720, Note_on_c, 0, 57, 59
4, 207840, Note_on_c, 0, 57, 0
4, 207840, Note_on_c, 0, 51, 59
4, 207840, Note_on_c, 0, 53, 59
4, 207960, Note_on_c, 0, 53, 0
4, 207960, Note_on_c, 0, 51, 0
4, 207960, Note_on_c, 0, 57, 59
4, 208080, Note_on_c, 0, 57, 0
4, 208080, Note_on_c, 0, 51, 59
4, 208080, Note_on_c, 0, 53, 59
4, 208200, Note_on_c, 0, 53, 0
4, 208200, Note_on_c, 0, 51, 0
4, 208200, Note_on_c, 0, 57, 59
4, 208320, Note_on_c, 0, 57, 0
4, 208320, Note_on_c, 0, 51, 59
4, 208320, Note_on_c, 0, 53, 59
4, 208440, Note_on_c, 0, 53, 0
4, 208440, Note_on_c, 0, 51, 0
4, 208440, Note_on_c, 0, 57, 59
4, 208560, Note_on_c, 0, 57, 0
4, 208560, Note_on_c, 0, 51, 59
4, 208560, Note_on_c, 0, 53, 59
4, 208680, Note_on_c, 0, 53, 0
4, 208680, Note_on_c, 0, 51, 0
4, 208680, Note_on_c, 0, 57, 59
4, 208800, Note_on_c, 0, 57, 0
4, 208800, Note_on_c, 0, 51, 59
4, 208800, Note_on_c, 0, 53, 59
4, 208920, Note_on_c, 0, 53, 0
4, 208920, Note_on_c, 0, 51, 0
4, 208920, Note_on_c, 0, 57, 59
4, 209040, Note_on_c, 0, 57, 0
4, 209040, Note_on_c, 0, 51, 59
4, 209040, Note_on_c, 0, 53, 59
4, 209160, Note_on_c, 0, 53, 0
4, 209160, Note_on_c, 0, 51, 0
4, 209160, Note_on_c, 0, 57, 59
4, 209280, Note_on_c, 0, 57, 0
4, 209280, Control_c, 0, 64, 127
4, 209280, Note_on_c, 0, 50, 59
4, 209280, Note_on_c, 0, 54, 59
4, 209400, Note_on_c, 0, 54, 0
4, 209400, Note_on_c, 0, 50, 0
4, 209400, Note_on_c, 0, 57, 59
4, 209520, Note_on_c, 0, 57, 0
4, 209520, Note_on_c, 0, 50, 59
4, 209520, Note_on_c, 0, 54, 59
4, 209640, Note_on_c, 0, 54, 0
4, 209640, Note_on_c, 0, 50, 0
4, 209640, Note_on_c, 0, 57, 59
4, 209760, Note_on_c, 0, 57, 0
4, 209760, Note_on_c, 0, 50, 59
4, 209760, Note_on_c, 0, 54, 59
4, 209880, Note_on_c, 0, 54, 0
4, 209880, Note_on_c, 0, 50, 0
4, 209880, Note_on_c, 0, 57, 59
4, 210000, Note_on_c, 0, 57, 0
4, 210000, Note_on_c, 0, 51, 59
4, 210000, Note_on_c, 0, 53, 59
4, 210120, Note_on_c, 0, 53, 0
4, 210120, Note_on_c, 0, 51, 0
4, 210120, Note_on_c, 0, 57, 59
4, 210240, Note_on_c, 0, 57, 0
4, 210240, Note_on_c, 0, 51, 59
4, 210240, Note_on_c, 0, 53, 59
4, 210360, Note_on_c, 0, 53, 0
4, 210360, Note_on_c, 0, 51, 0
4, 210360, Note_on_c, 0, 57, 59
4, 210480, Note_on_c, 0, 57, 0
4, 210480, Note_on_c, 0, 51, 59
4, 210480, Note_on_c, 0, 53, 59
4, 210600, Note_on_c, 0, 53, 0
4, 210600, Note_on_c, 0, 51, 0
4, 210600, Control_c, 0, 64, 0
4, 210600, Note_on_c, 0, 57, 59
4, 210720, Note_on_c, 0, 57, 0
4, 210720, Control_c, 0, 64, 127
4, 210720, Note_on_c, 0, 50, 59
4, 210720, Note_on_c, 0, 54, 59
4, 210840, Note_on_c, 0, 54, 0
4, 210840, Note_on_c, 0, 50, 0
4, 210840, Note_on_c, 0, 57, 59
4, 210960, Note_on_c, 0, 57, 0
4, 210960, Note_on_c, 0, 50, 59
4, 210960, Note_on_c, 0, 54, 59
4, 211080, Note_on_c, 0, 54, 0
4, 211080, Note_on_c, 0, 50, 0
4, 211080, Note_on_c, 0, 57, 59
4, 211200, Note_on_c, 0, 57, 0
4, 211200, Note_on_c, 0, 50, 59
4, 211200, Note_on_c, 0, 54, 59
4, 211320, Note_on_c, 0, 54, 0
4, 211320, Note_on_c, 0, 50, 0
4, 211320, Note_on_c, 0, 57, 59
4, 211440, Note_on_c, 0, 57, 0
4, 211440, Note_on_c, 0, 51, 59
4, 211440, Note_on_c, 0, 53, 59
4, 211560, Note_on_c, 0, 53, 0
4, 211560, Note_on_c, 0, 51, 0
4, 211560, Note_on_c, 0, 57, 59
4, 211680, Note_on_c, 0, 57, 0
4, 211680, Note_on_c, 0, 51, 59
4, 211680, Note_on_c, 0, 53, 59
4, 211800, Note_on_c, 0, 53, 0
4, 211800, Note_on_c, 0, 51, 0
4, 211800, Note_on_c, 0, 57, 59
4, 211920, Note_on_c, 0, 57, 0
4, 211920, Note_on_c, 0, 51, 59
4, 211920, Note_on_c, 0, 53, 59
4, 212040, Note_on_c, 0, 53, 0
4, 212040, Note_on_c, 0, 51, 0
4, 212040, Control_c, 0, 64, 0
4, 212040, Note_on_c, 0, 57, 59
4, 212160, Note_on_c, 0, 57, 0
4, 212160, Control_c, 0, 64, 127
4, 212160, Note_on_c, 0, 50, 59
4, 212160, Note_on_c, 0, 54, 59
4, 212280, Note_on_c, 0, 54, 0
4, 212280, Note_on_c, 0, 50, 0
4, 212280, Note_on_c, 0, 57, 59
4, 212400, Note_on_c, 0, 57, 0
4, 212400, Note_on_c, 0, 50, 59
4, 212400, Note_on_c, 0, 54, 59
4, 212520, Note_on_c, 0, 54, 0
4, 212520, Note_on_c, 0, 50, 0
4, 212520, Note_on_c, 0, 57, 59
4, 212640, Note_on_c, 0, 57, 0
4, 212640, Note_on_c, 0, 50, 59
4, 212640, Note_on_c, 0, 54, 59
4, 212760, Note_on_c, 0, 54, 0
4, 212760, Note_on_c, 0, 50, 0
4, 212760, Note_on_c, 0, 57, 59
4, 212880, Note_on_c, 0, 57, 0
4, 212880, Note_on_c, 0, 50, 59
4, 212880, Note_on_c, 0, 54, 59
4, 213000, Note_on_c, 0, 54, 0
4, 213000, Note_on_c, 0, 50, 0
4, 213000, Note_on_c, 0, 57, 59
4, 213120, Note_on_c, 0, 57, 0
4, 213120, Note_on_c, 0, 50, 59
4, 213120, Note_on_c, 0, 54, 59
4, 213240, Note_on_c, 0, 54, 0
4, 213240, Note_on_c, 0, 50, 0
4, 213240, Note_on_c, 0, 57, 59
4, 213360, Note_on_c, 0, 57, 0
4, 213360, Note_on_c, 0, 50, 59
4, 213360, Note_on_c, 0, 54, 59
4, 213480, Note_on_c, 0, 54, 0
4, 213480, Note_on_c, 0, 50, 0
4, 213480, Control_c, 0, 64, 0
4, 213480, Note_on_c, 0, 57, 59
4, 213600, Note_on_c, 0, 57, 0
4, 213600, Control_c, 0, 64, 127
4, 213600, Note_on_c, 0, 50, 59
4, 213600, Note_on_c, 0, 54, 59
4, 213720, Note_on_c, 0, 54, 0
4, 213720, Note_on_c, 0, 50, 0
4, 213720, Note_on_c, 0, 57, 59
4, 213840, Note_on_c, 0, 57, 0
4, 213840, Note_on_c, 0, 50, 59
4, 213840, Note_on_c, 0, 54, 59
4, 213960, Note_on_c, 0, 54, 0
4, 213960, Note_on_c, 0, 50, 0
4, 213960, Note_on_c, 0, 57, 59
4, 214080, Note_on_c, 0, 57, 0
4, 214080, Note_on_c, 0, 50, 59
4, 214080, Note_on_c, 0, 54, 59
4, 214200, Note_on_c, 0, 54, 0
4, 214200, Note_on_c, 0, 50, 0
4, 214200, Note_on_c, 0, 57, 59
4, 214320, Note_on_c, 0, 57, 0
4, 214320, Note_on_c, 0, 50, 59
4, 214320, Note_on_c, 0, 54, 59
4, 214440, Note_on_c, 0, 54, 0
4, 214440, Note_on_c, 0, 50, 0
4, 214440, Note_on_c, 0, 57, 59
4, 214560, Note_on_c, 0, 57, 0
4, 214560, Note_on_c, 0, 50, 59
4, 214560, Note_on_c, 0, 54, 59
4, 214680, Note_on_c, 0, 54, 0
4, 214680, Note_on_c, 0, 50, 0
4, 214680, Note_on_c, 0, 57, 59
4, 214800, Note_on_c, 0, 57, 0
4, 214800, Note_on_c, 0, 50, 59
4, 214800, Note_on_c, 0, 54, 59
4, 214920, Note_on_c, 0, 54, 0
4, 214920, Note_on_c, 0, 50, 0
4, 214920, Control_c, 0, 64, 0
4, 214920, Note_on_c, 0, 57, 59
4, 215040, Note_on_c, 0, 57, 0
4, 215040, Control_c, 0, 64, 127
4, 215040, Note_on_c, 0, 49, 59
4, 215040, Note_on_c, 0, 51, 59
4, 215160, Note_on_c, 0, 51, 0
4, 215160, Note_on_c, 0, 49, 0
4, 215160, Note_on_c, 0, 55, 59
4, 215280, Note_on_c, 0, 55, 0
4, 215280, Note_on_c, 0, 49, 59
4, 215280, Note_on_c, 0, 51, 59
4, 215400, Note_on_c, 0, 51, 0
4, 215400, Note_on_c, 0, 49, 0
4, 215400, Note_on_c, 0, 55, 59
4, 215520, Note_on_c, 0, 55, 0
4, 215520, Note_on_c, 0, 49, 59
4, 215520, Note_on_c, 0, 51, 59
4, 215640, Note_on_c, 0, 51, 0
4, 215640, Note_on_c, 0, 49, 0
4, 215640, Note_on_c, 0, 55, 59
4, 215760, Note_on_c, 0, 55, 0
4, 215760, Note_on_c, 0, 48, 59
4, 215760, Note_on_c, 0, 52, 59
4, 215880, Note_on_c, 0, 52, 0
4, 215880, Note_on_c, 0, 48, 0
4, 215880, Note_on_c, 0, 55, 59
4, 216000, Note_on_c, 0, 55, 0
4, 216000, Note_on_c, 0, 48, 59
4, 216000, Note_on_c, 0, 52, 59
4, 216120, Note_on_c, 0, 52, 0
4, 216120, Note_on_c, 0, 48, 0
4, 216120, Note_on_c, 0, 55, 59
4, 216240, Note_on_c, 0, 55, 0
4, 216240, Note_on_c, 0, 48, 59
4, 216240, Note_on_c, 0, 52, 59
4, 216360, Note_on_c, 0, 52, 0
4, 216360, Note_on_c, 0, 48, 0
4, 216360, Control_c, 0, 64, 0
4, 216360, Note_on_c, 0, 55, 59
4, 216480, Note_on_c, 0, 55, 0
4, 216480, Control_c, 0, 64, 127
4, 216480, Note_on_c, 0, 49, 59
4, 216480, Note_on_c, 0, 51, 59
4, 216600, Note_on_c, 0, 51, 0
4, 216600, Note_on_c, 0, 49, 0
4, 216600, Note_on_c, 0, 55, 59
4, 216720, Note_on_c, 0, 55, 0
4, 216720, Note_on_c, 0, 49, 59
4, 216720, Note_on_c, 0, 51, 59
4, 216840, Note_on_c, 0, 51, 0
4, 216840, Note_on_c, 0, 49, 0
4, 216840, Note_on_c, 0, 55, 59
4, 216960, Note_on_c, 0, 55, 0
4, 216960, Note_on_c, 0, 49, 59
4, 216960, Note_on_c, 0, 51, 59
4, 217080, Note_on_c, 0, 51, 0
4, 217080, Note_on_c, 0, 49, 0
4, 217080, Note_on_c, 0, 55, 59
4, 217200, Note_on_c, 0, 55, 0
4, 217200, Note_on_c, 0, 48, 59
4, 217200, Note_on_c, 0, 52, 59
4, 217320, Note_on_c, 0, 52, 0
4, 217320, Note_on_c, 0, 48, 0
4, 217320, Note_on_c, 0, 55, 59
4, 217440, Note_on_c, 0, 55, 0
4, 217440, Note_on_c, 0, 48, 59
4, 217440, Note_on_c, 0, 52, 59
4, 217560, Note_on_c, 0, 52, 0
4, 217560, Note_on_c, 0, 48, 0
4, 217560, Note_on_c, 0, 55, 59
4, 217680, Note_on_c, 0, 55, 0
4, 217680, Note_on_c, 0, 48, 59
4, 217680, Note_on_c, 0, 52, 59
4, 217800, Note_on_c, 0, 52, 0
4, 217800, Note_on_c, 0, 48, 0
4, 217800, Control_c, 0, 64, 0
4, 217800, Note_on_c, 0, 55, 59
4, 217920, Note_on_c, 0, 55, 0
4, 217920, Control_c, 0, 64, 127
4, 217920, Note_on_c, 0, 49, 59
4, 217920, Note_on_c, 0, 51, 59
4, 218040, Note_on_c, 0, 51, 0
4, 218040, Note_on_c, 0, 49, 0
4, 218040, Note_on_c, 0, 55, 59
4, 218160, Note_on_c, 0, 55, 0
4, 218160, Note_on_c, 0, 49, 59
4, 218160, Note_on_c, 0, 51, 59
4, 218280, Note_on_c, 0, 51, 0
4, 218280, Note_on_c, 0, 49, 0
4, 218280, Note_on_c, 0, 55, 59
4, 218400, Note_on_c, 0, 55, 0
4, 218400, Note_on_c, 0, 49, 59
4, 218400, Note_on_c, 0, 51, 59
4, 218520, Note_on_c, 0, 51, 0
4, 218520, Note_on_c, 0, 49, 0
4, 218520, Note_on_c, 0, 55, 59
4, 218640, Note_on_c, 0, 55, 0
4, 218640, Note_on_c, 0, 49, 59
4, 218640, Note_on_c, 0, 51, 59
4, 218760, Note_on_c, 0, 51, 0
4, 218760, Note_on_c, 0, 49, 0
4, 218760, Note_on_c, 0, 55, 59
4, 218880, Note_on_c, 0, 55, 0
4, 218880, Note_on_c, 0, 49, 59
4, 218880, Note_on_c, 0, 51, 59
4, 219000, Note_on_c, 0, 51, 0
4, 219000, Note_on_c, 0, 49, 0
4, 219000, Note_on_c, 0, 55, 59
4, 219120, Note_on_c, 0, 55, 0
4, 219120, Note_on_c, 0, 49, 59
4, 219120, Note_on_c, 0, 51, 59
4, 219240, Note_on_c, 0, 51, 0
4, 219240, Note_on_c, 0, 49, 0
4, 219240, Control_c, 0, 64, 0
4, 219240, Note_on_c, 0, 55, 59
4, 219360, Note_on_c, 0, 55, 0
4, 219360, Control_c, 0, 64, 127
4, 219360, Note_on_c, 0, 49, 59
4, 219360, Note_on_c, 0, 51, 59
4, 219480, Note_on_c, 0, 51, 0
4, 219480, Note_on_c, 0, 49, 0
4, 219480, Note_on_c, 0, 55, 59
4, 219600, Note_on_c, 0, 55, 0
4, 219600, Note_on_c, 0, 49, 59
4, 219600, Note_on_c, 0, 51, 59
4, 219720, Note_on_c, 0, 51, 0
4, 219720, Note_on_c, 0, 49, 0
4, 219720, Note_on_c, 0, 55, 59
4, 219840, Note_on_c, 0, 55, 0
4, 219840, Note_on_c, 0, 49, 59
4, 219840, Note_on_c, 0, 51, 59
4, 219960, Note_on_c, 0, 51, 0
4, 219960, Note_on_c, 0, 49, 0
4, 219960, Note_on_c, 0, 55, 59
4, 220080, Note_on_c, 0, 55, 0
4, 220080, Note_on_c, 0, 49, 59
4, 220080, Note_on_c, 0, 51, 59
4, 220200, Note_on_c, 0, 51, 0
4, 220200, Note_on_c, 0, 49, 0
4, 220200, Note_on_c, 0, 55, 59
4, 220320, Note_on_c, 0, 55, 0
4, 220320, Note_on_c, 0, 49, 59
4, 220320, Note_on_c, 0, 51, 59
4, 220440, Note_on_c, 0, 51, 0
4, 220440, Note_on_c, 0, 49, 0
4, 220440, Note_on_c, 0, 55, 59
4, 220560, Note_on_c, 0, 55, 0
4, 220560, Note_on_c, 0, 49, 59
4, 220560, Note_on_c, 0, 51, 59
4, 220680, Note_on_c, 0, 51, 0
4, 220680, Note_on_c, 0, 49, 0
4, 220680, Control_c, 0, 64, 0
4, 220680, Note_on_c, 0, 55, 59
4, 220800, Note_on_c, 0, 55, 0
4, 220800, Control_c, 0, 64, 127
4, 220800, Note_on_c, 0, 48, 59
4, 220800, Note_on_c, 0, 51, 59
4, 220920, Note_on_c, 0, 51, 0
4, 220920, Note_on_c, 0, 48, 0
4, 220920, Note_on_c, 0, 55, 59
4, 221040, Note_on_c, 0, 55, 0
4, 221040, Note_on_c, 0, 48, 59
4, 221040, Note_on_c, 0, 51, 59
4, 221160, Note_on_c, 0, 51, 0
4, 221160, Note_on_c, 0, 48, 0
4, 221160, Note_on_c, 0, 55, 59
4, 221280, Note_on_c, 0, 55, 0
4, 221280, Note_on_c, 0, 48, 59
4, 221280, Note_on_c, 0, 51, 59
4, 221400, Note_on_c, 0, 51, 0
4, 221400, Note_on_c, 0, 48, 0
4, 221400, Note_on_c, 0, 55, 59
4, 221520, Note_on_c, 0, 55, 0
4, 221520, Note_on_c, 0, 48, 59
4, 221520, Note_on_c, 0, 51, 59
4, 221640, Note_on_c, 0, 51, 0
4, 221640, Note_on_c, 0, 48, 0
4, 221640, Note_on_c, 0, 55, 59
4, 221760, Note_on_c, 0, 55, 0
4, 221760, Note_on_c, 0, 48, 59
4, 221760, Note_on_c, 0, 51, 59
4, 221880, Note_on_c, 0, 51, 0
4, 221880, Note_on_c, 0, 48, 0
4, 221880, Note_on_c, 0, 55, 59
4, 222000, Note_on_c, 0, 55, 0
4, 222000, Note_on_c, 0, 48, 59
4, 222000, Note_on_c, 0, 51, 59
4, 222120, Note_on_c, 0, 51, 0
4, 222120, Note_on_c, 0, 48, 0
4, 222120, Note_on_c, 0, 55, 59
4, 222240, Note_on_c, 0, 55, 0
4, 222240, Note_on_c, 0, 48, 59
4, 222240, Note_on_c, 0, 51, 59
4, 222360, Note_on_c, 0, 51, 0
4, 222360, Note_on_c, 0, 48, 0
4, 222360, Note_on_c, 0, 55, 59
4, 222480, Note_on_c, 0, 55, 0
4, 222480, Note_on_c, 0, 48, 59
4, 222480, Note_on_c, 0, 51, 59
4, 222600, Note_on_c, 0, 51, 0
4, 222600, Note_on_c, 0, 48, 0
4, 222600, Note_on_c, 0, 55, 59
4, 222720, Note_on_c, 0, 55, 0
4, 222720, Note_on_c, 0, 48, 59
4, 222720, Note_on_c, 0, 51, 59
4, 222840, Note_on_c, 0, 51, 0
4, 222840, Note_on_c, 0, 48, 0
4, 222840, Note_on_c, 0, 55, 59
4, 222960, Note_on_c, 0, 55, 0
4, 222960, Note_on_c, 0, 48, 59
4, 222960, Note_on_c, 0, 51, 59
4, 223080, Note_on_c, 0, 51, 0
4, 223080, Note_on_c, 0, 48, 0
4, 223080, Note_on_c, 0, 55, 59
4, 223200, Note_on_c, 0, 55, 0
4, 223200, Note_on_c, 0, 48, 59
4, 223200, Note_on_c, 0, 51, 59
4, 223320, Note_on_c, 0, 51, 0
4, 223320, Note_on_c, 0, 48, 0
4, 223320, Note_on_c, 0, 55, 59
4, 223440, Note_on_c, 0, 55, 0
4, 223440, Note_on_c, 0, 48, 59
4, 223440, Note_on_c, 0, 51, 59
4, 223560, Note_on_c, 0, 51, 0
4, 223560, Note_on_c, 0, 48, 0
4, 223560, Control_c, 0, 64, 0
4, 223560, Note_on_c, 0, 55, 59
4, 223680, Note_on_c, 0, 55, 0
4, 223680, Control_c, 0, 64, 127
4, 223680, Note_on_c, 0, 48, 59
4, 223680, Note_on_c, 0, 51, 59
4, 223800, Note_on_c, 0, 51, 0
4, 223800, Note_on_c, 0, 48, 0
4, 223800, Note_on_c, 0, 55, 59
4, 223920, Note_on_c, 0, 55, 0
4, 223920, Note_on_c, 0, 48, 59
4, 223920, Note_on_c, 0, 51, 59
4, 224040, Note_on_c, 0, 51, 0
4, 224040, Note_on_c, 0, 48, 0
4, 224040, Note_on_c, 0, 55, 59
4, 224160, Note_on_c, 0, 55, 0
4, 224160, Note_on_c, 0, 48, 59
4, 224160, Note_on_c, 0, 51, 59
4, 224280, Note_on_c, 0, 51, 0
4, 224280, Note_on_c, 0, 48, 0
4, 224280, Note_on_c, 0, 55, 59
4, 224400, Note_on_c, 0, 55, 0
4, 224400, Note_on_c, 0, 48, 59
4, 224400, Note_on_c, 0, 51, 59
4, 224520, Note_on_c, 0, 51, 0
4, 224520, Note_on_c, 0, 48, 0
4, 224520, Note_on_c, 0, 55, 59
4, 224640, Note_on_c, 0, 55, 0
4, 224640, Note_on_c, 0, 48, 59
4, 224640, Note_on_c, 0, 51, 59
4, 224760, Note_on_c, 0, 51, 0
4, 224760, Note_on_c, 0, 48, 0
4, 224760, Note_on_c, 0, 55, 59
4, 224880, Note_on_c, 0, 55, 0
4, 224880, Note_on_c, 0, 48, 59
4, 224880, Note_on_c, 0, 51, 59
4, 225000, Note_on_c, 0, 51, 0
4, 225000, Note_on_c, 0, 48, 0
4, 225000, Note_on_c, 0, 55, 59
4, 225120, Note_on_c, 0, 55, 0
4, 225120, Note_on_c, 0, 48, 72
4, 225120, Note_on_c, 0, 51, 72
4, 225240, Note_on_c, 0, 51, 0
4, 225240, Note_on_c, 0, 48, 0
4, 225240, Note_on_c, 0, 55, 72
4, 225360, Note_on_c, 0, 55, 0
4, 225360, Note_on_c, 0, 48, 72
4, 225360, Note_on_c, 0, 51, 72
4, 225480, Note_on_c, 0, 51, 0
4, 225480, Note_on_c, 0, 48, 0
4, 225480, Note_on_c, 0, 55, 72
4, 225600, Note_on_c, 0, 55, 0
4, 225600, Note_on_c, 0, 48, 72
4, 225600, Note_on_c, 0, 51, 72
4, 225720, Note_on_c, 0, 51, 0
4, 225720, Note_on_c, 0, 48, 0
4, 225720, Note_on_c, 0, 55, 72
4, 225840, Note_on_c, 0, 55, 0
4, 225840, Note_on_c, 0, 48, 72
4, 225840, Note_on_c, 0, 51, 72
4, 225960, Note_on_c, 0, 51, 0
4, 225960, Note_on_c, 0, 48, 0
4, 225960, Note_on_c, 0, 55, 72
4, 226080, Note_on_c, 0, 55, 0
4, 226080, Note_on_c, 0, 48, 72
4, 226080, Note_on_c, 0, 51, 72
4, 226200, Note_on_c, 0, 51, 0
4, 226200, Note_on_c, 0, 48, 0
4, 226200, Note_on_c, 0, 55, 72
4, 226320, Note_on_c, 0, 55, 0
4, 226320, Note_on_c, 0, 48, 72
4, 226320, Note_on_c, 0, 51, 72
4, 226440, Note_on_c, 0, 51, 0
4, 226440, Note_on_c, 0, 48, 0
4, 226440, Control_c, 0, 64, 0
4, 226440, Note_on_c, 0, 55, 72
4, 226560, Note_on_c, 0, 55, 0
4, 226560, Control_c, 0, 64, 127
4, 226560, Note_on_c, 0, 48, 72
4, 226560, Note_on_c, 0, 51, 72
4, 226680, Note_on_c, 0, 51, 0
4, 226680, Note_on_c, 0, 48, 0
4, 226680, Note_on_c, 0, 55, 72
4, 226800, Note_on_c, 0, 55, 0
4, 226800, Note_on_c, 0, 48, 72
4, 226800, Note_on_c, 0, 51, 72
4, 226920, Note_on_c, 0, 51, 0
4, 226920, Note_on_c, 0, 48, 0
4, 226920, Note_on_c, 0, 55, 72
4, 227040, Note_on_c, 0, 55, 0
4, 227040, Note_on_c, 0, 48, 72
4, 227040, Note_on_c, 0, 51, 72
4, 227160, Note_on_c, 0, 51, 0
4, 227160, Note_on_c, 0, 48, 0
4, 227160, Note_on_c, 0, 55, 72
4, 227280, Note_on_c, 0, 55, 0
4, 227280, Note_on_c, 0, 48, 72
4, 227280, Note_on_c, 0, 51, 72
4, 227400, Note_on_c, 0, 51, 0
4, 227400, Note_on_c, 0, 48, 0
4, 227400, Note_on_c, 0, 55, 72
4, 227520, Note_on_c, 0, 55, 0
4, 227520, Note_on_c, 0, 48, 72
4, 227520, Note_on_c, 0, 51, 72
4, 227640, Note_on_c, 0, 51, 0
4, 227640, Note_on_c, 0, 48, 0
4, 227640, Note_on_c, 0, 55, 72
4, 227760, Note_on_c, 0, 55, 0
4, 227760, Note_on_c, 0, 48, 72
4, 227760, Note_on_c, 0, 51, 72
4, 227880, Note_on_c, 0, 51, 0
4, 227880, Note_on_c, 0, 48, 0
4, 227880, Note_on_c, 0, 55, 72
4, 228000, Note_on_c, 0, 55, 0
4, 228000, Note_on_c, 0, 48, 72
4, 228000, Note_on_c, 0, 51, 72
4, 228120, Note_on_c, 0, 51, 0
4, 228120, Note_on_c, 0, 48, 0
4, 228120, Note_on_c, 0, 55, 72
4, 228240, Note_on_c, 0, 55, 0
4, 228240, Note_on_c, 0, 48, 72
4, 228240, Note_on_c, 0, 51, 72
4, 228360, Note_on_c, 0, 51, 0
4, 228360, Note_on_c, 0, 48, 0
4, 228360, Note_on_c, 0, 55, 72
4, 228480, Note_on_c, 0, 55, 0
4, 228480, Note_on_c, 0, 48, 72
4, 228480, Note_on_c, 0, 51, 72
4, 228600, Note_on_c, 0, 51, 0
4, 228600, Note_on_c, 0, 48, 0
4, 228600, Note_on_c, 0, 55, 72
4, 228720, Note_on_c, 0, 55, 0
4, 228720, Note_on_c, 0, 48, 72
4, 228720, Note_on_c, 0, 51, 72
4, 228840, Note_on_c, 0, 51, 0
4, 228840, Note_on_c, 0, 48, 0
4, 228840, Note_on_c, 0, 55, 72
4, 228960, Note_on_c, 0, 55, 0
4, 228960, Note_on_c, 0, 48, 72
4, 228960, Note_on_c, 0, 51, 72
4, 229080, Note_on_c, 0, 51, 0
4, 229080, Note_on_c, 0, 48, 0
4, 229080, Note_on_c, 0, 55, 72
4, 229200, Note_on_c, 0, 55, 0
4, 229200, Note_on_c, 0, 48, 72
4, 229200, Note_on_c, 0, 51, 72
4, 229320, Note_on_c, 0, 51, 0
4, 229320, Note_on_c, 0, 48, 0
4, 229320, Control_c, 0, 64, 0
4, 229320, Note_on_c, 0, 55, 72
4, 229440, Note_on_c, 0, 55, 0
4, 229440, Note_on_c, 0, 48, 98
4, 229440, Note_on_c, 0, 51, 98
4, 229680, Note_on_c, 0, 51, 0
4, 229680, Note_on_c, 0, 48, 0
4, 230160, Note_on_c, 0, 36, 85
4, 230160, Note_on_c, 0, 48, 85
4, 230400, Note_on_c, 0, 48, 0
4, 230400, Note_on_c, 0, 36, 0
4, 230880, Note_on_c, 0, 37, 85
4, 230880, Note_on_c, 0, 49, 85
4, 231120, Note_on_c, 0, 49, 0
4, 231120, Note_on_c, 0, 37, 0
4, 231600, Note_on_c, 0, 38, 111
4, 231600, Note_on_c, 0, 50, 111
4, 231840, Note_on_c, 0, 50, 0
4, 231840, Note_on_c, 0, 38, 0
4, 231840, End_track
5, 0, Start_track
5, 0, Title_t, "Grand Piano"
5, 0, Program_c, 0, 0
5, 0, Control_c, 0, 7, 115
5, 0, Control_c, 0, 10, 47
5, 18240, Note_on_c, 0, 44, 54
5, 18287, Note_on_c, 0, 44, 0
5, 18480, Note_on_c, 0, 44, 54
5, 18527, Note_on_c, 0, 44, 0
5, 18720, Note_on_c, 0, 45, 54
5, 18767, Note_on_c, 0, 45, 0
5, 91200, Note_on_c, 0, 45, 67
5, 91440, Note_on_c, 0, 45, 0
5, 91440, Note_on_c, 0, 45, 67
5, 91680, Note_on_c, 0, 45, 0
5, 91680, Note_on_c, 0, 45, 67
5, 91920, Note_on_c, 0, 45, 0
5, 91920, Note_on_c, 0, 45, 67
5, 92160, Note_on_c, 0, 45, 0
5, 92160, Note_on_c, 0, 45, 67
5, 92400, Note_on_c, 0, 45, 0
5, 92400, Note_on_c, 0, 45, 67
5, 92640, Note_on_c, 0, 45, 0
5, 92640, Note_on_c, 0, 45, 67
5, 92880, Note_on_c, 0, 45, 0
5, 92880, Note_on_c, 0, 45, 67
5, 93120, Note_on_c, 0, 45, 0
5, 93120, Note_on_c, 0, 45, 67
5, 93360, Note_on_c, 0, 45, 0
5, 93360, Note_on_c, 0, 45, 67
5, 93600, Note_on_c, 0, 45, 0
5, 93600, Note_on_c, 0, 45, 67
5, 93840, Note_on_c, 0, 45, 0
5, 93840, Note_on_c, 0, 45, 67
5, 94080, Note_on_c, 0, 45, 0
5, 94080, Note_on_c, 0, 45, 67
5, 94320, Note_on_c, 0, 45, 0
5, 94320, Note_on_c, 0, 45, 67
5, 94560, Note_on_c, 0, 45, 0
5, 94560, Note_on_c, 0, 45, 67
5, 94800, Note_on_c, 0, 45, 0
5, 94800, Note_on_c, 0, 45, 67
5, 95040, Note_on_c, 0, 45, 0
5, 95040, Note_on_c, 0, 45, 67
5, 95280, Note_on_c, 0, 45, 0
5, 95280, Note_on_c, 0, 45, 67
5, 95520, Note_on_c, 0, 45, 0
5, 95520, Note_on_c, 0, 45, 67
5, 95760, Note_on_c, 0, 45, 0
5, 95760, Note_on_c, 0, 45, 67
5, 96000, Note_on_c, 0, 45, 0
5, 96000, Note_on_c, 0, 45, 67
5, 96240, Note_on_c, 0, 45, 0
5, 96240, Note_on_c, 0, 45, 67
5, 96480, Note_on_c, 0, 45, 0
5, 96480, Note_on_c, 0, 45, 67
5, 96720, Note_on_c, 0, 45, 0
5, 96720, Note_on_c, 0, 45, 67
5, 96960, Note_on_c, 0, 45, 0
5, 96960, Note_on_c, 0, 45, 67
5, 97200, Note_on_c, 0, 45, 0
5, 97200, Note_on_c, 0, 45, 67
5, 97440, Note_on_c, 0, 45, 0
5, 97440, Note_on_c, 0, 45, 67
5, 97680, Note_on_c, 0, 45, 0
5, 97680, Note_on_c, 0, 45, 67
5, 97920, Note_on_c, 0, 45, 0
5, 97920, Note_on_c, 0, 45, 67
5, 98160, Note_on_c, 0, 45, 0
5, 98160, Note_on_c, 0, 45, 67
5, 98400, Note_on_c, 0, 45, 0
5, 98400, Note_on_c, 0, 45, 67
5, 98640, Note_on_c, 0, 45, 0
5, 98640, Note_on_c, 0, 45, 67
5, 98880, Note_on_c, 0, 45, 0
5, 98880, Note_on_c, 0, 45, 67
5, 99120, Note_on_c, 0, 45, 0
5, 99120, Note_on_c, 0, 45, 67
5, 99360, Note_on_c, 0, 45, 0
5, 99360, Note_on_c, 0, 45, 67
5, 99600, Note_on_c, 0, 45, 0
5, 99600, Note_on_c, 0, 45, 67
5, 99840, Note_on_c, 0, 45, 0
5, 99840, Note_on_c, 0, 45, 67
5, 100080, Note_on_c, 0, 45, 0
5, 100080, Note_on_c, 0, 45, 67
5, 100320, Note_on_c, 0, 45, 0
5, 100320, Note_on_c, 0, 45, 67
5, 100560, Note_on_c, 0, 45, 0
5, 100560, Note_on_c, 0, 45, 67
5, 100800, Note_on_c, 0, 45, 0
5, 100800, Note_on_c, 0, 45, 67
5, 101040, Note_on_c, 0, 45, 0
5, 101040, Note_on_c, 0, 45, 67
5, 101280, Note_on_c, 0, 45, 0
5, 101280, Note_on_c, 0, 45, 67
5, 101520, Note_on_c, 0, 45, 0
5, 101520, Note_on_c, 0, 45, 67
5, 101760, Note_on_c, 0, 45, 0
5, 101760, Note_on_c, 0, 45, 67
5, 102000, Note_on_c, 0, 45, 0
5, 102000, Note_on_c, 0, 45, 67
5, 102240, Note_on_c, 0, 45, 0
5, 102240, Note_on_c, 0, 45, 67
5, 102480, Note_on_c, 0, 45, 0
5, 102480, Note_on_c, 0, 45, 67
5, 102720, Note_on_c, 0, 45, 0
5, 102720, Note_on_c, 0, 45, 67
5, 102960, Note_on_c, 0, 45, 0
5, 102960, Note_on_c, 0, 45, 67
5, 103200, Note_on_c, 0, 45, 0
5, 103200, Note_on_c, 0, 45, 67
5, 103440, Note_on_c, 0, 45, 0
5, 103440, Note_on_c, 0, 45, 67
5, 103680, Note_on_c, 0, 45, 0
5, 103680, Note_on_c, 0, 45, 67
5, 103920, Note_on_c, 0, 45, 0
5, 103920, Note_on_c, 0, 45, 67
5, 104160, Note_on_c, 0, 45, 0
5, 104160, Note_on_c, 0, 45, 67
5, 104400, Note_on_c, 0, 45, 0
5, 104400, Note_on_c, 0, 45, 67
5, 104640, Note_on_c, 0, 45, 0
5, 104640, Note_on_c, 0, 45, 67
5, 104880, Note_on_c, 0, 45, 0
5, 189360, Note_on_c, 0, 40, 54
5, 189600, Note_on_c, 0, 40, 0
5, 189600, Note_on_c, 0, 40, 54
5, 189840, Note_on_c, 0, 40, 0
5, 189840, Note_on_c, 0, 40, 54
5, 190080, Note_on_c, 0, 40, 0
5, 190080, Note_on_c, 0, 40, 54
5, 190320, Note_on_c, 0, 40, 0
5, 190320, Note_on_c, 0, 40, 54
5, 190560, Note_on_c, 0, 40, 0
5, 190800, Note_on_c, 0, 40, 54
5, 191040, Note_on_c, 0, 40, 0
5, 191040, Note_on_c, 0, 40, 54
5, 191280, Note_on_c, 0, 40, 0
5, 191520, Note_on_c, 0, 40, 54
5, 191760, Note_on_c, 0, 40, 0
5, 191760, Note_on_c, 0, 40, 54
5, 192000, Note_on_c, 0, 40, 0
5, 192240, Note_on_c, 0, 40, 54
5, 192480, Note_on_c, 0, 40, 0
5, 192480, Note_on_c, 0, 40, 54
5, 192720, Note_on_c, 0, 40, 0
5, 192720, Note_on_c, 0, 40, 54
5, 192960, Note_on_c, 0, 40, 0
5, 192960, Note_on_c, 0, 40, 54
5, 193200, Note_on_c, 0, 40, 0
5, 193200, Note_on_c, 0, 40, 54
5, 193440, Note_on_c, 0, 40, 0
5, 193680, Note_on_c, 0, 40, 67
5, 193920, Note_on_c, 0, 40, 0
5, 193920, Note_on_c, 0, 40, 67
5, 194160, Note_on_c, 0, 40, 0
5, 194400, Note_on_c, 0, 40, 67
5, 194640, Note_on_c, 0, 40, 0
5, 194640, Note_on_c, 0, 40, 67
5, 194880, Note_on_c, 0, 40, 0
5, 195120, Note_on_c, 0, 40, 67
5, 195360, Note_on_c, 0, 40, 0
5, 195360, Note_on_c, 0, 40, 67
5, 195600, Note_on_c, 0, 40, 0
5, 195600, Note_on_c, 0, 40, 67
5, 195840, Note_on_c, 0, 40, 0
5, 196560, Note_on_c, 0, 40, 80
5, 196800, Note_on_c, 0, 40, 0
5, 196800, Note_on_c, 0, 40, 80
5, 197040, Note_on_c, 0, 40, 0
5, 197040, Note_on_c, 0, 40, 80
5, 197280, Note_on_c, 0, 40, 0
5, 198000, Note_on_c, 0, 52, 80
5, 198240, Note_on_c, 0, 52, 0
5, 198240, Note_on_c, 0, 52, 80
5, 198480, Note_on_c, 0, 52, 0
5, 198480, Note_on_c, 0, 52, 80
5, 198720, Note_on_c, 0, 52, 0
5, 199440, Note_on_c, 0, 52, 80
5, 199680, Note_on_c, 0, 52, 0
5, 199680, Note_on_c, 0, 52, 80
5, 199920, Note_on_c, 0, 52, 0
5, 199920, Note_on_c, 0, 52, 80
5, 200160, Note_on_c, 0, 52, 0
5, 200160, End_track
0, 0, End_of_file
