0, 0, Header, 1, 5, 480
1, 0, Start_track
1, 0, Title_t, "tchaikovsky nutcracker act1 2 marche"
1, 0, Copyright_t, "Adaptation for Disklavier pianos, by: Robert C. Kuhmann (c) 2012."
1, 0, Text_t, "Seq. (c) by: Segundo G. Yogore,  2007\012"
1, 0, Time_signature, 4, 2, 24, 8
1, 0, Key_signature, 1, "major"
1, 0, Tempo, 416667
1, 46080, Tempo, 416667
1, 151680, Time_signature, 8, 2, 24, 8
1, 151680, End_track
2, 0, Start_track
2, 0, Title_t, "Grand Piano"
2, 0, Program_c, 0, 0
2, 0, Control_c, 0, 7, 115
2, 0, Control_c, 0, 10, 86
2, 0, Note_on_c, 0, 71, 67
2, 0, Note_on_c, 0, 74, 67
2, 47, Note_on_c, 0, 74, 0
2, 47, Note_on_c, 0, 71, 0
2, 480, Note_on_c, 0, 71, 67
2, 480, Note_on_c, 0, 74, 67
2, 511, Note_on_c, 0, 74, 0
2, 511, Note_on_c, 0, 71, 0
2, 639, Note_on_c, 0, 71, 67
2, 639, Note_on_c, 0, 74, 67
2, 671, Note_on_c, 0, 74, 0
2, 671, Note_on_c, 0, 71, 0
2, 800, Note_on_c, 0, 71, 67
2, 800, Note_on_c, 0, 74, 67
2, 832, Note_on_c, 0, 74, 0
2, 832, Note_on_c, 0, 71, 0
2, 960, Note_on_c, 0, 71, 67
2, 960, Note_on_c, 0, 76, 67
2, 1007, Note_on_c, 0, 76, 0
2, 1007, Note_on_c, 0, 71, 0
2, 1440, Note_on_c, 0, 71, 67
2, 1440, Note_on_c, 0, 76, 67
2, 1487, Note_on_c, 0, 76, 0
2, 1487, Note_on_c, 0, 71, 0
2, 1920, Note_on_c, 0, 71, 67
2, 1920, Note_on_c, 0, 78, 67
2, 1967, Note_on_c, 0, 78, 0
2, 1967, Note_on_c, 0, 71, 0
2, 2400, Note_on_c, 0, 71, 67
2, 2400, Note_on_c, 0, 74, 67
2, 2447, Note_on_c, 0, 74, 0
2, 2447, Note_on_c, 0, 71, 0
2, 2880, Note_on_c, 0, 71, 93
2, 2880, Note_on_c, 0, 76, 93
2, 3840, Note_on_c, 0, 76, 0
2, 3840, Note_on_c, 0, 71, 0
2, 3840, Note_on_c, 0, 71, 67
2, 3840, Note_on_c, 0, 74, 67
2, 3887, Note_on_c, 0, 74, 0
2, 3887, Note_on_c, 0, 71, 0
2, 4320, Note_on_c, 0, 71, 67
2, 4320, Note_on_c, 0, 74, 67
2, 4351, Note_on_c, 0, 74, 0
2, 4351, Note_on_c, 0, 71, 0
2, 4479, Note_on_c, 0, 71, 67
2, 4479, Note_on_c, 0, 74, 67
2, 4511, Note_on_c, 0, 74, 0
2, 4511, Note_on_c, 0, 71, 0
2, 4640, Note_on_c, 0, 71, 67
2, 4640, Note_on_c, 0, 74, 67
2, 4672, Note_on_c, 0, 74, 0
2, 4672, Note_on_c, 0, 71, 0
2, 4800, Note_on_c, 0, 71, 67
2, 4800, Note_on_c, 0, 76, 67
2, 4847, Note_on_c, 0, 76, 0
2, 4847, Note_on_c, 0, 71, 0
2, 5280, Note_on_c, 0, 71, 67
2, 5280, Note_on_c, 0, 76, 67
2, 5327, Note_on_c, 0, 76, 0
2, 5327, Note_on_c, 0, 71, 0
2, 5760, Note_on_c, 0, 71, 67
2, 5760, Note_on_c, 0, 78, 67
2, 5807, Note_on_c, 0, 78, 0
2, 5807, Note_on_c, 0, 71, 0
2, 6240, Note_on_c, 0, 71, 67
2, 6240, Note_on_c, 0, 74, 67
2, 6287, Note_on_c, 0, 74, 0
2, 6287, Note_on_c, 0, 71, 0
2, 6720, Note_on_c, 0, 71, 93
2, 6720, Note_on_c, 0, 76, 93
2, 7680, Note_on_c, 0, 76, 0
2, 7680, Note_on_c, 0, 71, 0
2, 7680, Note_on_c, 0, 72, 67
2, 7920, Note_on_c, 0, 72, 0
2, 8040, Note_on_c, 0, 74, 67
2, 8160, Note_on_c, 0, 74, 0
2, 8160, Note_on_c, 0, 72, 67
2, 8400, Note_on_c, 0, 72, 0
2, 8520, Note_on_c, 0, 71, 67
2, 8640, Note_on_c, 0, 71, 0
2, 8640, Note_on_c, 0, 69, 67
2, 8880, Note_on_c, 0, 69, 0
2, 9000, Note_on_c, 0, 67, 67
2, 9120, Note_on_c, 0, 67, 0
2, 9120, Note_on_c, 0, 66, 67
2, 9360, Note_on_c, 0, 66, 0
2, 9480, Note_on_c, 0, 62, 67
2, 9600, Note_on_c, 0, 62, 0
2, 9600, Note_on_c, 0, 71, 67
2, 9840, Note_on_c, 0, 71, 0
2, 9960, Note_on_c, 0, 72, 67
2, 10080, Note_on_c, 0, 72, 0
2, 10080, Note_on_c, 0, 71, 67
2, 10320, Note_on_c, 0, 71, 0
2, 10440, Note_on_c, 0, 69, 67
2, 10560, Note_on_c, 0, 69, 0
2, 10560, Note_on_c, 0, 67, 67
2, 10800, Note_on_c, 0, 67, 0
2, 10920, Note_on_c, 0, 66, 67
2, 11040, Note_on_c, 0, 66, 0
2, 11040, Note_on_c, 0, 64, 67
2, 11280, Note_on_c, 0, 64, 0
2, 11400, Note_on_c, 0, 67, 67
2, 11520, Note_on_c, 0, 67, 0
2, 11520, Note_on_c, 0, 66, 67
2, 11760, Note_on_c, 0, 66, 0
2, 11880, Note_on_c, 0, 64, 67
2, 12000, Note_on_c, 0, 64, 0
2, 12000, Note_on_c, 0, 63, 67
2, 12240, Note_on_c, 0, 63, 0
2, 12360, Note_on_c, 0, 69, 67
2, 12480, Note_on_c, 0, 69, 0
2, 12480, Note_on_c, 0, 67, 80
2, 12720, Note_on_c, 0, 67, 0
2, 12840, Note_on_c, 0, 66, 80
2, 12960, Note_on_c, 0, 66, 0
2, 12960, Note_on_c, 0, 64, 80
2, 13200, Note_on_c, 0, 64, 0
2, 13320, Note_on_c, 0, 71, 80
2, 13440, Note_on_c, 0, 71, 0
2, 13440, Note_on_c, 0, 72, 80
2, 13680, Note_on_c, 0, 72, 0
2, 13800, Note_on_c, 0, 71, 80
2, 13920, Note_on_c, 0, 71, 0
2, 13920, Note_on_c, 0, 69, 80
2, 14160, Note_on_c, 0, 69, 0
2, 14280, Note_on_c, 0, 67, 80
2, 14400, Note_on_c, 0, 67, 0
2, 14400, Note_on_c, 0, 74, 80
2, 14640, Note_on_c, 0, 74, 0
2, 14640, Note_on_c, 0, 81, 80
2, 14700, Note_on_c, 0, 81, 0
2, 14700, Note_on_c, 0, 83, 80
2, 14760, Note_on_c, 0, 83, 0
2, 14760, Note_on_c, 0, 84, 80
2, 14820, Note_on_c, 0, 84, 0
2, 14820, Note_on_c, 0, 85, 80
2, 14880, Note_on_c, 0, 85, 0
2, 14880, Note_on_c, 0, 86, 106
2, 15120, Note_on_c, 0, 86, 0
2, 15360, Note_on_c, 0, 71, 67
2, 15360, Note_on_c, 0, 74, 67
2, 15407, Note_on_c, 0, 74, 0
2, 15407, Note_on_c, 0, 71, 0
2, 15840, Note_on_c, 0, 71, 67
2, 15840, Note_on_c, 0, 74, 67
2, 15871, Note_on_c, 0, 74, 0
2, 15871, Note_on_c, 0, 71, 0
2, 15999, Note_on_c, 0, 71, 67
2, 15999, Note_on_c, 0, 74, 67
2, 16031, Note_on_c, 0, 74, 0
2, 16031, Note_on_c, 0, 71, 0
2, 16160, Note_on_c, 0, 71, 67
2, 16160, Note_on_c, 0, 74, 67
2, 16192, Note_on_c, 0, 74, 0
2, 16192, Note_on_c, 0, 71, 0
2, 16320, Note_on_c, 0, 71, 67
2, 16320, Note_on_c, 0, 76, 67
2, 16367, Note_on_c, 0, 76, 0
2, 16367, Note_on_c, 0, 71, 0
2, 16800, Note_on_c, 0, 71, 67
2, 16800, Note_on_c, 0, 76, 67
2, 16847, Note_on_c, 0, 76, 0
2, 16847, Note_on_c, 0, 71, 0
2, 17280, Note_on_c, 0, 71, 67
2, 17280, Note_on_c, 0, 78, 67
2, 17327, Note_on_c, 0, 78, 0
2, 17327, Note_on_c, 0, 71, 0
2, 17760, Note_on_c, 0, 71, 67
2, 17760, Note_on_c, 0, 74, 67
2, 17807, Note_on_c, 0, 74, 0
2, 17807, Note_on_c, 0, 71, 0
2, 18240, Note_on_c, 0, 71, 93
2, 18240, Note_on_c, 0, 76, 93
2, 19200, Note_on_c, 0, 76, 0
2, 19200, Note_on_c, 0, 71, 0
2, 19200, Note_on_c, 0, 71, 67
2, 19200, Note_on_c, 0, 74, 67
2, 19247, Note_on_c, 0, 74, 0
2, 19247, Note_on_c, 0, 71, 0
2, 19680, Note_on_c, 0, 71, 67
2, 19680, Note_on_c, 0, 74, 67
2, 19711, Note_on_c, 0, 74, 0
2, 19711, Note_on_c, 0, 71, 0
2, 19839, Note_on_c, 0, 71, 67
2, 19839, Note_on_c, 0, 74, 67
2, 19871, Note_on_c, 0, 74, 0
2, 19871, Note_on_c, 0, 71, 0
2, 20000, Note_on_c, 0, 71, 67
2, 20000, Note_on_c, 0, 74, 67
2, 20032, Note_on_c, 0, 74, 0
2, 20032, Note_on_c, 0, 71, 0
2, 20160, Note_on_c, 0, 71, 67
2, 20160, Note_on_c, 0, 76, 67
2, 20207, Note_on_c, 0, 76, 0
2, 20207, Note_on_c, 0, 71, 0
2, 20640, Note_on_c, 0, 71, 67
2, 20640, Note_on_c, 0, 76, 67
2, 20687, Note_on_c, 0, 76, 0
2, 20687, Note_on_c, 0, 71, 0
2, 21120, Note_on_c, 0, 71, 67
2, 21120, Note_on_c, 0, 78, 67
2, 21167, Note_on_c, 0, 78, 0
2, 21167, Note_on_c, 0, 71, 0
2, 21600, Note_on_c, 0, 71, 67
2, 21600, Note_on_c, 0, 74, 67
2, 21647, Note_on_c, 0, 74, 0
2, 21647, Note_on_c, 0, 71, 0
2, 22080, Note_on_c, 0, 71, 93
2, 22080, Note_on_c, 0, 76, 93
2, 23040, Note_on_c, 0, 76, 0
2, 23040, Note_on_c, 0, 71, 0
2, 23040, Note_on_c, 0, 72, 67
2, 23280, Note_on_c, 0, 72, 0
2, 23400, Note_on_c, 0, 74, 67
2, 23520, Note_on_c, 0, 74, 0
2, 23520, Note_on_c, 0, 72, 67
2, 23760, Note_on_c, 0, 72, 0
2, 23880, Note_on_c, 0, 71, 67
2, 24000, Note_on_c, 0, 71, 0
2, 24000, Note_on_c, 0, 69, 67
2, 24240, Note_on_c, 0, 69, 0
2, 24360, Note_on_c, 0, 67, 67
2, 24480, Note_on_c, 0, 67, 0
2, 24480, Note_on_c, 0, 66, 67
2, 24720, Note_on_c, 0, 66, 0
2, 24840, Note_on_c, 0, 69, 67
2, 24960, Note_on_c, 0, 69, 0
2, 24960, Note_on_c, 0, 74, 80
2, 25200, Note_on_c, 0, 74, 0
2, 25320, Note_on_c, 0, 76, 80
2, 25440, Note_on_c, 0, 76, 0
2, 25440, Note_on_c, 0, 74, 80
2, 25680, Note_on_c, 0, 74, 0
2, 25800, Note_on_c, 0, 72, 80
2, 25920, Note_on_c, 0, 72, 0
2, 25920, Note_on_c, 0, 71, 80
2, 26160, Note_on_c, 0, 71, 0
2, 26280, Note_on_c, 0, 69, 80
2, 26400, Note_on_c, 0, 69, 0
2, 26400, Note_on_c, 0, 67, 80
2, 26640, Note_on_c, 0, 67, 0
2, 26760, Note_on_c, 0, 71, 80
2, 26880, Note_on_c, 0, 71, 0
2, 26880, Note_on_c, 0, 76, 80
2, 27120, Note_on_c, 0, 76, 0
2, 27240, Note_on_c, 0, 74, 80
2, 27360, Note_on_c, 0, 74, 0
2, 27360, Note_on_c, 0, 72, 80
2, 27600, Note_on_c, 0, 72, 0
2, 27720, Note_on_c, 0, 76, 80
2, 27840, Note_on_c, 0, 76, 0
2, 27840, Note_on_c, 0, 78, 80
2, 28080, Note_on_c, 0, 78, 0
2, 28200, Note_on_c, 0, 76, 80
2, 28320, Note_on_c, 0, 76, 0
2, 28320, Note_on_c, 0, 74, 80
2, 28560, Note_on_c, 0, 74, 0
2, 28680, Note_on_c, 0, 78, 80
2, 28800, Note_on_c, 0, 78, 0
2, 28800, Note_on_c, 0, 79, 93
2, 29040, Note_on_c, 0, 79, 0
2, 29160, Note_on_c, 0, 78, 93
2, 29280, Note_on_c, 0, 78, 0
2, 29280, Note_on_c, 0, 76, 93
2, 29520, Note_on_c, 0, 76, 0
2, 29640, Note_on_c, 0, 78, 93
2, 29760, Note_on_c, 0, 78, 0
2, 29760, Note_on_c, 0, 75, 93
2, 30000, Note_on_c, 0, 75, 0
2, 30000, Note_on_c, 0, 78, 93
2, 30060, Note_on_c, 0, 78, 0
2, 30060, Note_on_c, 0, 79, 93
2, 30120, Note_on_c, 0, 79, 0
2, 30120, Note_on_c, 0, 81, 93
2, 30180, Note_on_c, 0, 81, 0
2, 30180, Note_on_c, 0, 82, 93
2, 30240, Note_on_c, 0, 82, 0
2, 30240, Note_on_c, 0, 83, 119
2, 30480, Note_on_c, 0, 83, 0
2, 34020, Note_on_c, 0, 81, 93
2, 34080, Note_on_c, 0, 81, 0
2, 34080, Note_on_c, 0, 76, 80
2, 34080, Note_on_c, 0, 83, 80
2, 34127, Note_on_c, 0, 83, 0
2, 34127, Note_on_c, 0, 76, 0
2, 34500, Note_on_c, 0, 78, 80
2, 34560, Note_on_c, 0, 78, 0
2, 34560, Note_on_c, 0, 71, 80
2, 34560, Note_on_c, 0, 79, 80
2, 34607, Note_on_c, 0, 79, 0
2, 34607, Note_on_c, 0, 71, 0
2, 34980, Note_on_c, 0, 75, 80
2, 35040, Note_on_c, 0, 75, 0
2, 35040, Note_on_c, 0, 71, 80
2, 35040, Note_on_c, 0, 76, 80
2, 35087, Note_on_c, 0, 76, 0
2, 35087, Note_on_c, 0, 71, 0
2, 35460, Note_on_c, 0, 71, 80
2, 35520, Note_on_c, 0, 71, 0
2, 35520, Note_on_c, 0, 72, 80
2, 35567, Note_on_c, 0, 72, 0
2, 35940, Note_on_c, 0, 68, 80
2, 36000, Note_on_c, 0, 68, 0
2, 36000, Note_on_c, 0, 69, 80
2, 36047, Note_on_c, 0, 69, 0
2, 36420, Note_on_c, 0, 71, 80
2, 36480, Note_on_c, 0, 71, 0
2, 36480, Note_on_c, 0, 72, 80
2, 36527, Note_on_c, 0, 72, 0
2, 36900, Note_on_c, 0, 75, 80
2, 36960, Note_on_c, 0, 75, 0
2, 36960, Note_on_c, 0, 72, 93
2, 36960, Note_on_c, 0, 76, 93
2, 37007, Note_on_c, 0, 76, 0
2, 37007, Note_on_c, 0, 72, 0
2, 37380, Note_on_c, 0, 77, 93
2, 37440, Note_on_c, 0, 77, 0
2, 37440, Note_on_c, 0, 71, 93
2, 37440, Note_on_c, 0, 78, 93
2, 37487, Note_on_c, 0, 78, 0
2, 37487, Note_on_c, 0, 71, 0
2, 37860, Note_on_c, 0, 82, 93
2, 37920, Note_on_c, 0, 82, 0
2, 37920, Note_on_c, 0, 75, 119
2, 37920, Note_on_c, 0, 78, 119
2, 37920, Note_on_c, 0, 83, 119
2, 37967, Note_on_c, 0, 83, 0
2, 37967, Note_on_c, 0, 78, 0
2, 37967, Note_on_c, 0, 75, 0
2, 41520, Note_on_c, 0, 83, 80
2, 41567, Note_on_c, 0, 83, 0
2, 41760, Note_on_c, 0, 82, 80
2, 41807, Note_on_c, 0, 82, 0
2, 42000, Note_on_c, 0, 81, 80
2, 42047, Note_on_c, 0, 81, 0
2, 42240, Note_on_c, 0, 79, 80
2, 42287, Note_on_c, 0, 79, 0
2, 42480, Note_on_c, 0, 78, 80
2, 42527, Note_on_c, 0, 78, 0
2, 42720, Note_on_c, 0, 76, 80
2, 42767, Note_on_c, 0, 76, 0
2, 42960, Note_on_c, 0, 74, 80
2, 43007, Note_on_c, 0, 74, 0
2, 43200, Note_on_c, 0, 72, 80
2, 43247, Note_on_c, 0, 72, 0
2, 43440, Note_on_c, 0, 71, 80
2, 43487, Note_on_c, 0, 71, 0
2, 43620, Note_on_c, 0, 68, 80
2, 43680, Note_on_c, 0, 68, 0
2, 43680, Note_on_c, 0, 69, 80
2, 43920, Note_on_c, 0, 69, 0
2, 44100, Note_on_c, 0, 73, 80
2, 44160, Note_on_c, 0, 73, 0
2, 44160, Note_on_c, 0, 69, 80
2, 44160, Note_on_c, 0, 74, 80
2, 44207, Note_on_c, 0, 74, 0
2, 44207, Note_on_c, 0, 69, 0
2, 44580, Note_on_c, 0, 77, 93
2, 44640, Note_on_c, 0, 77, 0
2, 44640, Note_on_c, 0, 69, 93
2, 44640, Note_on_c, 0, 78, 93
2, 44687, Note_on_c, 0, 78, 0
2, 44687, Note_on_c, 0, 69, 0
2, 45060, Note_on_c, 0, 85, 93
2, 45120, Note_on_c, 0, 85, 0
2, 45120, Note_on_c, 0, 78, 119
2, 45120, Note_on_c, 0, 86, 119
2, 45167, Note_on_c, 0, 86, 0
2, 45167, Note_on_c, 0, 78, 0
2, 46080, Note_on_c, 0, 67, 93
2, 46080, Note_on_c, 0, 71, 93
2, 46080, Note_on_c, 0, 74, 93
2, 46127, Note_on_c, 0, 74, 0
2, 46127, Note_on_c, 0, 71, 0
2, 46127, Note_on_c, 0, 67, 0
2, 46560, Note_on_c, 0, 71, 67
2, 46560, Note_on_c, 0, 74, 67
2, 46591, Note_on_c, 0, 74, 0
2, 46591, Note_on_c, 0, 71, 0
2, 46719, Note_on_c, 0, 71, 67
2, 46719, Note_on_c, 0, 74, 67
2, 46751, Note_on_c, 0, 74, 0
2, 46751, Note_on_c, 0, 71, 0
2, 46880, Note_on_c, 0, 71, 67
2, 46880, Note_on_c, 0, 74, 67
2, 46912, Note_on_c, 0, 74, 0
2, 46912, Note_on_c, 0, 71, 0
2, 47040, Note_on_c, 0, 71, 67
2, 47040, Note_on_c, 0, 76, 67
2, 47087, Note_on_c, 0, 76, 0
2, 47087, Note_on_c, 0, 71, 0
2, 47520, Note_on_c, 0, 71, 67
2, 47520, Note_on_c, 0, 76, 67
2, 47567, Note_on_c, 0, 76, 0
2, 47567, Note_on_c, 0, 71, 0
2, 48000, Note_on_c, 0, 71, 67
2, 48000, Note_on_c, 0, 78, 67
2, 48047, Note_on_c, 0, 78, 0
2, 48047, Note_on_c, 0, 71, 0
2, 48480, Note_on_c, 0, 71, 67
2, 48480, Note_on_c, 0, 74, 67
2, 48527, Note_on_c, 0, 74, 0
2, 48527, Note_on_c, 0, 71, 0
2, 48960, Note_on_c, 0, 71, 93
2, 48960, Note_on_c, 0, 76, 93
2, 49920, Note_on_c, 0, 76, 0
2, 49920, Note_on_c, 0, 71, 0
2, 49920, Note_on_c, 0, 71, 67
2, 49920, Note_on_c, 0, 74, 67
2, 49967, Note_on_c, 0, 74, 0
2, 49967, Note_on_c, 0, 71, 0
2, 50400, Note_on_c, 0, 71, 67
2, 50400, Note_on_c, 0, 74, 67
2, 50431, Note_on_c, 0, 74, 0
2, 50431, Note_on_c, 0, 71, 0
2, 50559, Note_on_c, 0, 71, 67
2, 50559, Note_on_c, 0, 74, 67
2, 50591, Note_on_c, 0, 74, 0
2, 50591, Note_on_c, 0, 71, 0
2, 50720, Note_on_c, 0, 71, 67
2, 50720, Note_on_c, 0, 74, 67
2, 50752, Note_on_c, 0, 74, 0
2, 50752, Note_on_c, 0, 71, 0
2, 50880, Note_on_c, 0, 71, 67
2, 50880, Note_on_c, 0, 76, 67
2, 50927, Note_on_c, 0, 76, 0
2, 50927, Note_on_c, 0, 71, 0
2, 51360, Note_on_c, 0, 71, 67
2, 51360, Note_on_c, 0, 76, 67
2, 51407, Note_on_c, 0, 76, 0
2, 51407, Note_on_c, 0, 71, 0
2, 51840, Note_on_c, 0, 71, 67
2, 51840, Note_on_c, 0, 78, 67
2, 51887, Note_on_c, 0, 78, 0
2, 51887, Note_on_c, 0, 71, 0
2, 52320, Note_on_c, 0, 71, 67
2, 52320, Note_on_c, 0, 74, 67
2, 52367, Note_on_c, 0, 74, 0
2, 52367, Note_on_c, 0, 71, 0
2, 52800, Note_on_c, 0, 71, 93
2, 52800, Note_on_c, 0, 76, 93
2, 53760, Note_on_c, 0, 76, 0
2, 53760, Note_on_c, 0, 71, 0
2, 53760, Note_on_c, 0, 72, 67
2, 54000, Note_on_c, 0, 72, 0
2, 54120, Note_on_c, 0, 74, 67
2, 54240, Note_on_c, 0, 74, 0
2, 54240, Note_on_c, 0, 72, 67
2, 54480, Note_on_c, 0, 72, 0
2, 54600, Note_on_c, 0, 71, 67
2, 54720, Note_on_c, 0, 71, 0
2, 54720, Note_on_c, 0, 69, 67
2, 54960, Note_on_c, 0, 69, 0
2, 55080, Note_on_c, 0, 67, 67
2, 55200, Note_on_c, 0, 67, 0
2, 55200, Note_on_c, 0, 66, 67
2, 55440, Note_on_c, 0, 66, 0
2, 55560, Note_on_c, 0, 62, 67
2, 55680, Note_on_c, 0, 62, 0
2, 55680, Note_on_c, 0, 71, 67
2, 55920, Note_on_c, 0, 71, 0
2, 56040, Note_on_c, 0, 72, 67
2, 56160, Note_on_c, 0, 72, 0
2, 56160, Note_on_c, 0, 71, 67
2, 56400, Note_on_c, 0, 71, 0
2, 56520, Note_on_c, 0, 69, 67
2, 56640, Note_on_c, 0, 69, 0
2, 56640, Note_on_c, 0, 67, 67
2, 56880, Note_on_c, 0, 67, 0
2, 57000, Note_on_c, 0, 66, 67
2, 57120, Note_on_c, 0, 66, 0
2, 57120, Note_on_c, 0, 64, 67
2, 57360, Note_on_c, 0, 64, 0
2, 57480, Note_on_c, 0, 67, 67
2, 57600, Note_on_c, 0, 67, 0
2, 57600, Note_on_c, 0, 66, 67
2, 57840, Note_on_c, 0, 66, 0
2, 57960, Note_on_c, 0, 64, 67
2, 58080, Note_on_c, 0, 64, 0
2, 58080, Note_on_c, 0, 63, 67
2, 58320, Note_on_c, 0, 63, 0
2, 58440, Note_on_c, 0, 69, 67
2, 58560, Note_on_c, 0, 69, 0
2, 58560, Note_on_c, 0, 67, 80
2, 58800, Note_on_c, 0, 67, 0
2, 58920, Note_on_c, 0, 66, 80
2, 59040, Note_on_c, 0, 66, 0
2, 59040, Note_on_c, 0, 64, 80
2, 59280, Note_on_c, 0, 64, 0
2, 59400, Note_on_c, 0, 71, 80
2, 59520, Note_on_c, 0, 71, 0
2, 59520, Note_on_c, 0, 72, 80
2, 59760, Note_on_c, 0, 72, 0
2, 59880, Note_on_c, 0, 71, 80
2, 60000, Note_on_c, 0, 71, 0
2, 60000, Note_on_c, 0, 69, 80
2, 60240, Note_on_c, 0, 69, 0
2, 60360, Note_on_c, 0, 67, 80
2, 60480, Note_on_c, 0, 67, 0
2, 60480, Note_on_c, 0, 74, 80
2, 60720, Note_on_c, 0, 74, 0
2, 60720, Note_on_c, 0, 81, 80
2, 60780, Note_on_c, 0, 81, 0
2, 60780, Note_on_c, 0, 83, 80
2, 60840, Note_on_c, 0, 83, 0
2, 60840, Note_on_c, 0, 84, 80
2, 60900, Note_on_c, 0, 84, 0
2, 60900, Note_on_c, 0, 85, 80
2, 60960, Note_on_c, 0, 85, 0
2, 60960, Note_on_c, 0, 86, 106
2, 61200, Note_on_c, 0, 86, 0
2, 61440, Note_on_c, 0, 71, 67
2, 61440, Note_on_c, 0, 74, 67
2, 61487, Note_on_c, 0, 74, 0
2, 61487, Note_on_c, 0, 71, 0
2, 61920, Note_on_c, 0, 71, 67
2, 61920, Note_on_c, 0, 74, 67
2, 61951, Note_on_c, 0, 74, 0
2, 61951, Note_on_c, 0, 71, 0
2, 62079, Note_on_c, 0, 71, 67
2, 62079, Note_on_c, 0, 74, 67
2, 62111, Note_on_c, 0, 74, 0
2, 62111, Note_on_c, 0, 71, 0
2, 62240, Note_on_c, 0, 71, 67
2, 62240, Note_on_c, 0, 74, 67
2, 62272, Note_on_c, 0, 74, 0
2, 62272, Note_on_c, 0, 71, 0
2, 62400, Note_on_c, 0, 71, 67
2, 62400, Note_on_c, 0, 76, 67
2, 62447, Note_on_c, 0, 76, 0
2, 62447, Note_on_c, 0, 71, 0
2, 62880, Note_on_c, 0, 71, 67
2, 62880, Note_on_c, 0, 76, 67
2, 62927, Note_on_c, 0, 76, 0
2, 62927, Note_on_c, 0, 71, 0
2, 63360, Note_on_c, 0, 71, 67
2, 63360, Note_on_c, 0, 78, 67
2, 63407, Note_on_c, 0, 78, 0
2, 63407, Note_on_c, 0, 71, 0
2, 63840, Note_on_c, 0, 71, 67
2, 63840, Note_on_c, 0, 74, 67
2, 63887, Note_on_c, 0, 74, 0
2, 63887, Note_on_c, 0, 71, 0
2, 64320, Note_on_c, 0, 71, 93
2, 64320, Note_on_c, 0, 76, 93
2, 65280, Note_on_c, 0, 76, 0
2, 65280, Note_on_c, 0, 71, 0
2, 65280, Note_on_c, 0, 71, 67
2, 65280, Note_on_c, 0, 74, 67
2, 65327, Note_on_c, 0, 74, 0
2, 65327, Note_on_c, 0, 71, 0
2, 65760, Note_on_c, 0, 71, 67
2, 65760, Note_on_c, 0, 74, 67
2, 65791, Note_on_c, 0, 74, 0
2, 65791, Note_on_c, 0, 71, 0
2, 65919, Note_on_c, 0, 71, 67
2, 65919, Note_on_c, 0, 74, 67
2, 65951, Note_on_c, 0, 74, 0
2, 65951, Note_on_c, 0, 71, 0
2, 66080, Note_on_c, 0, 71, 67
2, 66080, Note_on_c, 0, 74, 67
2, 66112, Note_on_c, 0, 74, 0
2, 66112, Note_on_c, 0, 71, 0
2, 66240, Note_on_c, 0, 71, 67
2, 66240, Note_on_c, 0, 76, 67
2, 66287, Note_on_c, 0, 76, 0
2, 66287, Note_on_c, 0, 71, 0
2, 66720, Note_on_c, 0, 71, 67
2, 66720, Note_on_c, 0, 76, 67
2, 66767, Note_on_c, 0, 76, 0
2, 66767, Note_on_c, 0, 71, 0
2, 67200, Note_on_c, 0, 71, 67
2, 67200, Note_on_c, 0, 78, 67
2, 67247, Note_on_c, 0, 78, 0
2, 67247, Note_on_c, 0, 71, 0
2, 67680, Note_on_c, 0, 71, 67
2, 67680, Note_on_c, 0, 74, 67
2, 67727, Note_on_c, 0, 74, 0
2, 67727, Note_on_c, 0, 71, 0
2, 68160, Note_on_c, 0, 71, 93
2, 68160, Note_on_c, 0, 76, 93
2, 69120, Note_on_c, 0, 76, 0
2, 69120, Note_on_c, 0, 71, 0
2, 69120, Note_on_c, 0, 72, 67
2, 69360, Note_on_c, 0, 72, 0
2, 69480, Note_on_c, 0, 74, 67
2, 69600, Note_on_c, 0, 74, 0
2, 69600, Note_on_c, 0, 72, 67
2, 69840, Note_on_c, 0, 72, 0
2, 69960, Note_on_c, 0, 71, 67
2, 70080, Note_on_c, 0, 71, 0
2, 70080, Note_on_c, 0, 69, 67
2, 70320, Note_on_c, 0, 69, 0
2, 70440, Note_on_c, 0, 67, 67
2, 70560, Note_on_c, 0, 67, 0
2, 70560, Note_on_c, 0, 66, 67
2, 70800, Note_on_c, 0, 66, 0
2, 70920, Note_on_c, 0, 69, 67
2, 71040, Note_on_c, 0, 69, 0
2, 71040, Note_on_c, 0, 74, 80
2, 71280, Note_on_c, 0, 74, 0
2, 71400, Note_on_c, 0, 76, 80
2, 71520, Note_on_c, 0, 76, 0
2, 71520, Note_on_c, 0, 74, 80
2, 71760, Note_on_c, 0, 74, 0
2, 71880, Note_on_c, 0, 72, 80
2, 72000, Note_on_c, 0, 72, 0
2, 72000, Note_on_c, 0, 71, 80
2, 72240, Note_on_c, 0, 71, 0
2, 72360, Note_on_c, 0, 69, 80
2, 72480, Note_on_c, 0, 69, 0
2, 72480, Note_on_c, 0, 67, 80
2, 72720, Note_on_c, 0, 67, 0
2, 72840, Note_on_c, 0, 71, 80
2, 72960, Note_on_c, 0, 71, 0
2, 72960, Note_on_c, 0, 76, 80
2, 73200, Note_on_c, 0, 76, 0
2, 73320, Note_on_c, 0, 74, 80
2, 73440, Note_on_c, 0, 74, 0
2, 73440, Note_on_c, 0, 72, 80
2, 73680, Note_on_c, 0, 72, 0
2, 73800, Note_on_c, 0, 76, 80
2, 73920, Note_on_c, 0, 76, 0
2, 73920, Note_on_c, 0, 78, 80
2, 74160, Note_on_c, 0, 78, 0
2, 74280, Note_on_c, 0, 76, 80
2, 74400, Note_on_c, 0, 76, 0
2, 74400, Note_on_c, 0, 74, 80
2, 74640, Note_on_c, 0, 74, 0
2, 74760, Note_on_c, 0, 78, 80
2, 74880, Note_on_c, 0, 78, 0
2, 74880, Note_on_c, 0, 79, 93
2, 75120, Note_on_c, 0, 79, 0
2, 75240, Note_on_c, 0, 78, 93
2, 75360, Note_on_c, 0, 78, 0
2, 75360, Note_on_c, 0, 76, 93
2, 75600, Note_on_c, 0, 76, 0
2, 75720, Note_on_c, 0, 78, 93
2, 75840, Note_on_c, 0, 78, 0
2, 75840, Note_on_c, 0, 79, 93
2, 76080, Note_on_c, 0, 79, 0
2, 76080, Note_on_c, 0, 86, 93
2, 76160, Note_on_c, 0, 86, 0
2, 76160, Note_on_c, 0, 88, 93
2, 76239, Note_on_c, 0, 88, 0
2, 76239, Note_on_c, 0, 90, 93
2, 76320, Note_on_c, 0, 90, 0
2, 76320, Note_on_c, 0, 91, 119
2, 76367, Note_on_c, 0, 91, 0
2, 76800, Note_on_c, 0, 91, 80
2, 76823, Note_on_c, 0, 91, 0
2, 76920, Note_on_c, 0, 91, 80
2, 76943, Note_on_c, 0, 91, 0
2, 77040, Note_on_c, 0, 91, 80
2, 77063, Note_on_c, 0, 91, 0
2, 77160, Note_on_c, 0, 91, 80
2, 77183, Note_on_c, 0, 91, 0
2, 77280, Note_on_c, 0, 90, 80
2, 77303, Note_on_c, 0, 90, 0
2, 77400, Note_on_c, 0, 88, 80
2, 77423, Note_on_c, 0, 88, 0
2, 77520, Note_on_c, 0, 86, 80
2, 77543, Note_on_c, 0, 86, 0
2, 77640, Note_on_c, 0, 84, 80
2, 77663, Note_on_c, 0, 84, 0
2, 77760, Note_on_c, 0, 83, 80
2, 77783, Note_on_c, 0, 83, 0
2, 77880, Note_on_c, 0, 83, 80
2, 77903, Note_on_c, 0, 83, 0
2, 78000, Note_on_c, 0, 83, 80
2, 78023, Note_on_c, 0, 83, 0
2, 78120, Note_on_c, 0, 83, 80
2, 78143, Note_on_c, 0, 83, 0
2, 78240, Note_on_c, 0, 83, 80
2, 78263, Note_on_c, 0, 83, 0
2, 78360, Note_on_c, 0, 84, 80
2, 78383, Note_on_c, 0, 84, 0
2, 78480, Note_on_c, 0, 83, 80
2, 78503, Note_on_c, 0, 83, 0
2, 78600, Note_on_c, 0, 84, 80
2, 78623, Note_on_c, 0, 84, 0
2, 78720, Note_on_c, 0, 81, 80
2, 78743, Note_on_c, 0, 81, 0
2, 78840, Note_on_c, 0, 81, 80
2, 78863, Note_on_c, 0, 81, 0
2, 78960, Note_on_c, 0, 81, 80
2, 78983, Note_on_c, 0, 81, 0
2, 79080, Note_on_c, 0, 81, 80
2, 79103, Note_on_c, 0, 81, 0
2, 79200, Note_on_c, 0, 81, 80
2, 79223, Note_on_c, 0, 81, 0
2, 79320, Note_on_c, 0, 83, 80
2, 79343, Note_on_c, 0, 83, 0
2, 79440, Note_on_c, 0, 81, 80
2, 79463, Note_on_c, 0, 81, 0
2, 79560, Note_on_c, 0, 83, 80
2, 79583, Note_on_c, 0, 83, 0
2, 79680, Note_on_c, 0, 79, 80
2, 79703, Note_on_c, 0, 79, 0
2, 79800, Note_on_c, 0, 81, 80
2, 79823, Note_on_c, 0, 81, 0
2, 79920, Note_on_c, 0, 78, 80
2, 79943, Note_on_c, 0, 78, 0
2, 80040, Note_on_c, 0, 79, 80
2, 80063, Note_on_c, 0, 79, 0
2, 80160, Note_on_c, 0, 76, 80
2, 80183, Note_on_c, 0, 76, 0
2, 80280, Note_on_c, 0, 78, 80
2, 80303, Note_on_c, 0, 78, 0
2, 80400, Note_on_c, 0, 75, 80
2, 80423, Note_on_c, 0, 75, 0
2, 80520, Note_on_c, 0, 78, 80
2, 80543, Note_on_c, 0, 78, 0
2, 80640, Note_on_c, 0, 76, 106
2, 82080, Note_on_c, 0, 74, 80
2, 82560, Note_on_c, 0, 74, 0
2, 82560, Note_on_c, 0, 76, 0
2, 82560, Note_on_c, 0, 64, 80
2, 82560, Note_on_c, 0, 76, 80
2, 84000, Note_on_c, 0, 76, 0
2, 84000, Note_on_c, 0, 64, 0
2, 84000, Note_on_c, 0, 76, 93
2, 84023, Note_on_c, 0, 76, 0
2, 84120, Note_on_c, 0, 79, 93
2, 84143, Note_on_c, 0, 79, 0
2, 84240, Note_on_c, 0, 83, 93
2, 84263, Note_on_c, 0, 83, 0
2, 84360, Note_on_c, 0, 88, 93
2, 84383, Note_on_c, 0, 88, 0
2, 84480, Note_on_c, 0, 91, 80
2, 84503, Note_on_c, 0, 91, 0
2, 84600, Note_on_c, 0, 91, 80
2, 84623, Note_on_c, 0, 91, 0
2, 84720, Note_on_c, 0, 91, 80
2, 84743, Note_on_c, 0, 91, 0
2, 84840, Note_on_c, 0, 91, 80
2, 84863, Note_on_c, 0, 91, 0
2, 84960, Note_on_c, 0, 90, 80
2, 84983, Note_on_c, 0, 90, 0
2, 85080, Note_on_c, 0, 88, 80
2, 85103, Note_on_c, 0, 88, 0
2, 85200, Note_on_c, 0, 86, 80
2, 85223, Note_on_c, 0, 86, 0
2, 85320, Note_on_c, 0, 84, 80
2, 85343, Note_on_c, 0, 84, 0
2, 85440, Note_on_c, 0, 83, 80
2, 85463, Note_on_c, 0, 83, 0
2, 85560, Note_on_c, 0, 83, 80
2, 85583, Note_on_c, 0, 83, 0
2, 85680, Note_on_c, 0, 83, 80
2, 85703, Note_on_c, 0, 83, 0
2, 85800, Note_on_c, 0, 83, 80
2, 85823, Note_on_c, 0, 83, 0
2, 85920, Note_on_c, 0, 83, 80
2, 85943, Note_on_c, 0, 83, 0
2, 86040, Note_on_c, 0, 84, 80
2, 86063, Note_on_c, 0, 84, 0
2, 86160, Note_on_c, 0, 83, 80
2, 86183, Note_on_c, 0, 83, 0
2, 86280, Note_on_c, 0, 84, 80
2, 86303, Note_on_c, 0, 84, 0
2, 86400, Note_on_c, 0, 81, 80
2, 86423, Note_on_c, 0, 81, 0
2, 86520, Note_on_c, 0, 81, 80
2, 86543, Note_on_c, 0, 81, 0
2, 86640, Note_on_c, 0, 81, 80
2, 86663, Note_on_c, 0, 81, 0
2, 86760, Note_on_c, 0, 81, 80
2, 86783, Note_on_c, 0, 81, 0
2, 86880, Note_on_c, 0, 81, 80
2, 86903, Note_on_c, 0, 81, 0
2, 87000, Note_on_c, 0, 83, 80
2, 87023, Note_on_c, 0, 83, 0
2, 87120, Note_on_c, 0, 81, 80
2, 87143, Note_on_c, 0, 81, 0
2, 87240, Note_on_c, 0, 83, 80
2, 87263, Note_on_c, 0, 83, 0
2, 87360, Note_on_c, 0, 79, 80
2, 87383, Note_on_c, 0, 79, 0
2, 87480, Note_on_c, 0, 81, 80
2, 87503, Note_on_c, 0, 81, 0
2, 87600, Note_on_c, 0, 78, 80
2, 87623, Note_on_c, 0, 78, 0
2, 87720, Note_on_c, 0, 79, 80
2, 87743, Note_on_c, 0, 79, 0
2, 87840, Note_on_c, 0, 76, 80
2, 87863, Note_on_c, 0, 76, 0
2, 87960, Note_on_c, 0, 78, 80
2, 87983, Note_on_c, 0, 78, 0
2, 88080, Note_on_c, 0, 75, 80
2, 88103, Note_on_c, 0, 75, 0
2, 88200, Note_on_c, 0, 78, 80
2, 88223, Note_on_c, 0, 78, 0
2, 88320, Note_on_c, 0, 76, 106
2, 89760, Note_on_c, 0, 74, 80
2, 90240, Note_on_c, 0, 74, 0
2, 90240, Note_on_c, 0, 76, 0
2, 90240, Note_on_c, 0, 64, 80
2, 90240, Note_on_c, 0, 76, 80
2, 91680, Note_on_c, 0, 76, 0
2, 91680, Note_on_c, 0, 64, 0
2, 92160, Note_on_c, 0, 67, 93
2, 92160, Note_on_c, 0, 71, 93
2, 92160, Note_on_c, 0, 74, 93
2, 92207, Note_on_c, 0, 74, 0
2, 92207, Note_on_c, 0, 71, 0
2, 92207, Note_on_c, 0, 67, 0
2, 92640, Note_on_c, 0, 67, 93
2, 92640, Note_on_c, 0, 71, 93
2, 92640, Note_on_c, 0, 74, 93
2, 92799, Note_on_c, 0, 74, 0
2, 92799, Note_on_c, 0, 71, 0
2, 92799, Note_on_c, 0, 67, 0
2, 92799, Note_on_c, 0, 67, 93
2, 92799, Note_on_c, 0, 71, 93
2, 92799, Note_on_c, 0, 74, 93
2, 92960, Note_on_c, 0, 74, 0
2, 92960, Note_on_c, 0, 71, 0
2, 92960, Note_on_c, 0, 67, 0
2, 92960, Note_on_c, 0, 67, 93
2, 92960, Note_on_c, 0, 71, 93
2, 92960, Note_on_c, 0, 74, 93
2, 93120, Note_on_c, 0, 74, 0
2, 93120, Note_on_c, 0, 71, 0
2, 93120, Note_on_c, 0, 67, 0
2, 93120, Note_on_c, 0, 67, 93
2, 93120, Note_on_c, 0, 71, 93
2, 93120, Note_on_c, 0, 76, 93
2, 93167, Note_on_c, 0, 76, 0
2, 93167, Note_on_c, 0, 71, 0
2, 93167, Note_on_c, 0, 67, 0
2, 93600, Control_c, 0, 64, 127
2, 93600, Note_on_c, 0, 71, 119
2, 93600, Note_on_c, 0, 76, 119
2, 93720, Note_on_c, 0, 76, 0
2, 93720, Note_on_c, 0, 71, 0
2, 93720, Note_on_c, 0, 73, 93
2, 93840, Note_on_c, 0, 73, 0
2, 93840, Note_on_c, 0, 74, 93
2, 93960, Note_on_c, 0, 74, 0
2, 93960, Note_on_c, 0, 76, 93
2, 94080, Note_on_c, 0, 76, 0
2, 94080, Control_c, 0, 64, 0
2, 94080, Note_on_c, 0, 78, 93
2, 94127, Note_on_c, 0, 78, 0
2, 94560, Control_c, 0, 64, 127
2, 94560, Note_on_c, 0, 88, 93
2, 94680, Note_on_c, 0, 88, 0
2, 94680, Note_on_c, 0, 90, 93
2, 94800, Note_on_c, 0, 90, 0
2, 94800, Note_on_c, 0, 91, 93
2, 94920, Note_on_c, 0, 91, 0
2, 94920, Control_c, 0, 64, 0
2, 94920, Note_on_c, 0, 93, 93
2, 95040, Note_on_c, 0, 93, 0
2, 95040, Control_c, 0, 64, 127
2, 95040, Note_on_c, 0, 95, 106
2, 95160, Note_on_c, 0, 95, 0
2, 95160, Note_on_c, 0, 91, 106
2, 95280, Note_on_c, 0, 91, 0
2, 95280, Note_on_c, 0, 88, 106
2, 95400, Note_on_c, 0, 88, 0
2, 95400, Control_c, 0, 64, 0
2, 95400, Note_on_c, 0, 83, 106
2, 95520, Note_on_c, 0, 83, 0
2, 96000, Note_on_c, 0, 67, 93
2, 96000, Note_on_c, 0, 71, 93
2, 96000, Note_on_c, 0, 74, 93
2, 96047, Note_on_c, 0, 74, 0
2, 96047, Note_on_c, 0, 71, 0
2, 96047, Note_on_c, 0, 67, 0
2, 96480, Note_on_c, 0, 67, 93
2, 96480, Note_on_c, 0, 71, 93
2, 96480, Note_on_c, 0, 74, 93
2, 96639, Note_on_c, 0, 74, 0
2, 96639, Note_on_c, 0, 71, 0
2, 96639, Note_on_c, 0, 67, 0
2, 96639, Note_on_c, 0, 67, 93
2, 96639, Note_on_c, 0, 71, 93
2, 96639, Note_on_c, 0, 74, 93
2, 96800, Note_on_c, 0, 74, 0
2, 96800, Note_on_c, 0, 71, 0
2, 96800, Note_on_c, 0, 67, 0
2, 96800, Note_on_c, 0, 67, 93
2, 96800, Note_on_c, 0, 71, 93
2, 96800, Note_on_c, 0, 74, 93
2, 96960, Note_on_c, 0, 74, 0
2, 96960, Note_on_c, 0, 71, 0
2, 96960, Note_on_c, 0, 67, 0
2, 96960, Note_on_c, 0, 67, 93
2, 96960, Note_on_c, 0, 71, 93
2, 96960, Note_on_c, 0, 76, 93
2, 97007, Note_on_c, 0, 76, 0
2, 97007, Note_on_c, 0, 71, 0
2, 97007, Note_on_c, 0, 67, 0
2, 97440, Control_c, 0, 64, 127
2, 97440, Note_on_c, 0, 71, 119
2, 97440, Note_on_c, 0, 76, 119
2, 97560, Note_on_c, 0, 76, 0
2, 97560, Note_on_c, 0, 71, 0
2, 97560, Note_on_c, 0, 73, 93
2, 97680, Note_on_c, 0, 73, 0
2, 97680, Note_on_c, 0, 74, 93
2, 97800, Note_on_c, 0, 74, 0
2, 97800, Note_on_c, 0, 76, 93
2, 97920, Note_on_c, 0, 76, 0
2, 97920, Control_c, 0, 64, 0
2, 97920, Note_on_c, 0, 78, 93
2, 97967, Note_on_c, 0, 78, 0
2, 98400, Control_c, 0, 64, 127
2, 98400, Note_on_c, 0, 88, 93
2, 98520, Note_on_c, 0, 88, 0
2, 98520, Note_on_c, 0, 90, 93
2, 98640, Note_on_c, 0, 90, 0
2, 98640, Note_on_c, 0, 91, 93
2, 98760, Note_on_c, 0, 91, 0
2, 98760, Control_c, 0, 64, 0
2, 98760, Note_on_c, 0, 93, 93
2, 98880, Note_on_c, 0, 93, 0
2, 98880, Control_c, 0, 64, 127
2, 98880, Note_on_c, 0, 95, 106
2, 99000, Note_on_c, 0, 95, 0
2, 99000, Note_on_c, 0, 91, 106
2, 99120, Note_on_c, 0, 91, 0
2, 99120, Note_on_c, 0, 88, 106
2, 99240, Note_on_c, 0, 88, 0
2, 99240, Control_c, 0, 64, 0
2, 99240, Note_on_c, 0, 83, 106
2, 99360, Note_on_c, 0, 83, 0
2, 99720, Note_on_c, 0, 76, 106
2, 99840, Note_on_c, 0, 76, 0
2, 99840, Note_on_c, 0, 72, 80
2, 99840, Note_on_c, 0, 84, 80
2, 100080, Note_on_c, 0, 84, 0
2, 100080, Note_on_c, 0, 72, 0
2, 100200, Note_on_c, 0, 74, 80
2, 100200, Note_on_c, 0, 86, 80
2, 100320, Note_on_c, 0, 86, 0
2, 100320, Note_on_c, 0, 74, 0
2, 100320, Note_on_c, 0, 72, 80
2, 100320, Note_on_c, 0, 84, 80
2, 100560, Note_on_c, 0, 84, 0
2, 100560, Note_on_c, 0, 72, 0
2, 100680, Note_on_c, 0, 71, 80
2, 100680, Note_on_c, 0, 83, 80
2, 100800, Note_on_c, 0, 83, 0
2, 100800, Note_on_c, 0, 71, 0
2, 100800, Note_on_c, 0, 69, 80
2, 100800, Note_on_c, 0, 81, 80
2, 101040, Note_on_c, 0, 81, 0
2, 101040, Note_on_c, 0, 69, 0
2, 101160, Note_on_c, 0, 67, 80
2, 101160, Note_on_c, 0, 79, 80
2, 101280, Note_on_c, 0, 79, 0
2, 101280, Note_on_c, 0, 67, 0
2, 101280, Note_on_c, 0, 66, 80
2, 101280, Note_on_c, 0, 78, 80
2, 101520, Note_on_c, 0, 78, 0
2, 101520, Note_on_c, 0, 66, 0
2, 101640, Note_on_c, 0, 62, 80
2, 101640, Note_on_c, 0, 74, 80
2, 101760, Note_on_c, 0, 74, 0
2, 101760, Note_on_c, 0, 62, 0
2, 101760, Note_on_c, 0, 71, 80
2, 101760, Note_on_c, 0, 83, 80
2, 102000, Note_on_c, 0, 83, 0
2, 102000, Note_on_c, 0, 71, 0
2, 102120, Note_on_c, 0, 72, 80
2, 102120, Note_on_c, 0, 84, 80
2, 102240, Note_on_c, 0, 84, 0
2, 102240, Note_on_c, 0, 72, 0
2, 102240, Note_on_c, 0, 71, 80
2, 102240, Note_on_c, 0, 83, 80
2, 102480, Note_on_c, 0, 83, 0
2, 102480, Note_on_c, 0, 71, 0
2, 102600, Note_on_c, 0, 69, 80
2, 102600, Note_on_c, 0, 81, 80
2, 102720, Note_on_c, 0, 81, 0
2, 102720, Note_on_c, 0, 69, 0
2, 102720, Note_on_c, 0, 67, 80
2, 102720, Note_on_c, 0, 79, 80
2, 102960, Note_on_c, 0, 79, 0
2, 102960, Note_on_c, 0, 67, 0
2, 103080, Note_on_c, 0, 66, 80
2, 103080, Note_on_c, 0, 78, 80
2, 103200, Note_on_c, 0, 78, 0
2, 103200, Note_on_c, 0, 66, 0
2, 103200, Note_on_c, 0, 64, 80
2, 103200, Note_on_c, 0, 76, 80
2, 103440, Note_on_c, 0, 76, 0
2, 103440, Note_on_c, 0, 64, 0
2, 103560, Note_on_c, 0, 67, 80
2, 103560, Note_on_c, 0, 79, 80
2, 103680, Note_on_c, 0, 79, 0
2, 103680, Note_on_c, 0, 67, 0
2, 103680, Note_on_c, 0, 60, 80
2, 103680, Note_on_c, 0, 66, 80
2, 103680, Note_on_c, 0, 72, 80
2, 103680, Note_on_c, 0, 78, 80
2, 103920, Note_on_c, 0, 78, 0
2, 103920, Note_on_c, 0, 60, 0
2, 103920, Note_on_c, 0, 66, 0
2, 103920, Note_on_c, 0, 72, 0
2, 104040, Note_on_c, 0, 64, 93
2, 104040, Note_on_c, 0, 76, 93
2, 104160, Note_on_c, 0, 76, 0
2, 104160, Note_on_c, 0, 64, 0
2, 104160, Note_on_c, 0, 54, 93
2, 104160, Note_on_c, 0, 63, 93
2, 104160, Note_on_c, 0, 66, 93
2, 104160, Note_on_c, 0, 75, 93
2, 104400, Note_on_c, 0, 75, 0
2, 104400, Note_on_c, 0, 54, 0
2, 104400, Note_on_c, 0, 63, 0
2, 104400, Note_on_c, 0, 66, 0
2, 104520, Note_on_c, 0, 69, 93
2, 104520, Note_on_c, 0, 81, 93
2, 104640, Note_on_c, 0, 81, 0
2, 104640, Note_on_c, 0, 69, 0
2, 104640, Note_on_c, 0, 59, 93
2, 104640, Note_on_c, 0, 67, 93
2, 104640, Note_on_c, 0, 71, 93
2, 104640, Note_on_c, 0, 79, 93
2, 104880, Note_on_c, 0, 79, 0
2, 104880, Note_on_c, 0, 59, 0
2, 104880, Note_on_c, 0, 67, 0
2, 104880, Note_on_c, 0, 71, 0
2, 105000, Note_on_c, 0, 66, 93
2, 105000, Note_on_c, 0, 78, 93
2, 105120, Note_on_c, 0, 78, 0
2, 105120, Note_on_c, 0, 66, 0
2, 105120, Note_on_c, 0, 64, 93
2, 105120, Note_on_c, 0, 76, 93
2, 105360, Note_on_c, 0, 76, 0
2, 105360, Note_on_c, 0, 64, 0
2, 105480, Note_on_c, 0, 71, 93
2, 105480, Note_on_c, 0, 83, 93
2, 105600, Note_on_c, 0, 83, 0
2, 105600, Note_on_c, 0, 71, 0
2, 105600, Note_on_c, 0, 72, 93
2, 105600, Note_on_c, 0, 84, 93
2, 105840, Note_on_c, 0, 84, 0
2, 105840, Note_on_c, 0, 72, 0
2, 105960, Note_on_c, 0, 71, 93
2, 105960, Note_on_c, 0, 83, 93
2, 106080, Note_on_c, 0, 83, 0
2, 106080, Note_on_c, 0, 71, 0
2, 106080, Note_on_c, 0, 69, 93
2, 106080, Note_on_c, 0, 81, 93
2, 106320, Note_on_c, 0, 81, 0
2, 106320, Note_on_c, 0, 69, 0
2, 106440, Note_on_c, 0, 67, 93
2, 106440, Note_on_c, 0, 79, 93
2, 106560, Note_on_c, 0, 79, 0
2, 106560, Note_on_c, 0, 67, 0
2, 106560, Note_on_c, 0, 66, 93
2, 106560, Note_on_c, 0, 74, 93
2, 106560, Note_on_c, 0, 78, 93
2, 106560, Note_on_c, 0, 86, 93
2, 106800, Note_on_c, 0, 86, 0
2, 106800, Note_on_c, 0, 66, 0
2, 106800, Note_on_c, 0, 74, 0
2, 106800, Note_on_c, 0, 78, 0
2, 106800, Note_on_c, 0, 93, 93
2, 106860, Note_on_c, 0, 93, 0
2, 106860, Note_on_c, 0, 95, 93
2, 106920, Note_on_c, 0, 95, 0
2, 106920, Note_on_c, 0, 96, 93
2, 106980, Note_on_c, 0, 96, 0
2, 106980, Note_on_c, 0, 97, 93
2, 107040, Note_on_c, 0, 97, 0
2, 107040, Note_on_c, 0, 98, 119
2, 107280, Note_on_c, 0, 98, 0
2, 107520, Note_on_c, 0, 67, 93
2, 107520, Note_on_c, 0, 71, 93
2, 107520, Note_on_c, 0, 74, 93
2, 107567, Note_on_c, 0, 74, 0
2, 107567, Note_on_c, 0, 71, 0
2, 107567, Note_on_c, 0, 67, 0
2, 108000, Note_on_c, 0, 67, 93
2, 108000, Note_on_c, 0, 71, 93
2, 108000, Note_on_c, 0, 74, 93
2, 108159, Note_on_c, 0, 74, 0
2, 108159, Note_on_c, 0, 71, 0
2, 108159, Note_on_c, 0, 67, 0
2, 108159, Note_on_c, 0, 67, 93
2, 108159, Note_on_c, 0, 71, 93
2, 108159, Note_on_c, 0, 74, 93
2, 108320, Note_on_c, 0, 74, 0
2, 108320, Note_on_c, 0, 71, 0
2, 108320, Note_on_c, 0, 67, 0
2, 108320, Note_on_c, 0, 67, 93
2, 108320, Note_on_c, 0, 71, 93
2, 108320, Note_on_c, 0, 74, 93
2, 108480, Note_on_c, 0, 74, 0
2, 108480, Note_on_c, 0, 71, 0
2, 108480, Note_on_c, 0, 67, 0
2, 108480, Note_on_c, 0, 67, 93
2, 108480, Note_on_c, 0, 71, 93
2, 108480, Note_on_c, 0, 76, 93
2, 108527, Note_on_c, 0, 76, 0
2, 108527, Note_on_c, 0, 71, 0
2, 108527, Note_on_c, 0, 67, 0
2, 108960, Control_c, 0, 64, 127
2, 108960, Note_on_c, 0, 71, 119
2, 108960, Note_on_c, 0, 76, 119
2, 109080, Note_on_c, 0, 76, 0
2, 109080, Note_on_c, 0, 71, 0
2, 109080, Note_on_c, 0, 73, 93
2, 109200, Note_on_c, 0, 73, 0
2, 109200, Note_on_c, 0, 74, 93
2, 109320, Note_on_c, 0, 74, 0
2, 109320, Note_on_c, 0, 76, 93
2, 109440, Note_on_c, 0, 76, 0
2, 109440, Control_c, 0, 64, 0
2, 109440, Note_on_c, 0, 78, 93
2, 109487, Note_on_c, 0, 78, 0
2, 109920, Control_c, 0, 64, 127
2, 109920, Note_on_c, 0, 88, 93
2, 110040, Note_on_c, 0, 88, 0
2, 110040, Note_on_c, 0, 90, 93
2, 110160, Note_on_c, 0, 90, 0
2, 110160, Note_on_c, 0, 91, 93
2, 110280, Note_on_c, 0, 91, 0
2, 110280, Control_c, 0, 64, 0
2, 110280, Note_on_c, 0, 93, 93
2, 110400, Note_on_c, 0, 93, 0
2, 110400, Control_c, 0, 64, 127
2, 110400, Note_on_c, 0, 95, 106
2, 110520, Note_on_c, 0, 95, 0
2, 110520, Note_on_c, 0, 91, 106
2, 110640, Note_on_c, 0, 91, 0
2, 110640, Note_on_c, 0, 88, 106
2, 110760, Note_on_c, 0, 88, 0
2, 110760, Control_c, 0, 64, 0
2, 110760, Note_on_c, 0, 83, 106
2, 110880, Note_on_c, 0, 83, 0
2, 111360, Note_on_c, 0, 67, 93
2, 111360, Note_on_c, 0, 71, 93
2, 111360, Note_on_c, 0, 74, 93
2, 111407, Note_on_c, 0, 74, 0
2, 111407, Note_on_c, 0, 71, 0
2, 111407, Note_on_c, 0, 67, 0
2, 111840, Note_on_c, 0, 67, 93
2, 111840, Note_on_c, 0, 71, 93
2, 111840, Note_on_c, 0, 74, 93
2, 111999, Note_on_c, 0, 74, 0
2, 111999, Note_on_c, 0, 71, 0
2, 111999, Note_on_c, 0, 67, 0
2, 111999, Note_on_c, 0, 67, 93
2, 111999, Note_on_c, 0, 71, 93
2, 111999, Note_on_c, 0, 74, 93
2, 112160, Note_on_c, 0, 74, 0
2, 112160, Note_on_c, 0, 71, 0
2, 112160, Note_on_c, 0, 67, 0
2, 112160, Note_on_c, 0, 67, 93
2, 112160, Note_on_c, 0, 71, 93
2, 112160, Note_on_c, 0, 74, 93
2, 112320, Note_on_c, 0, 74, 0
2, 112320, Note_on_c, 0, 71, 0
2, 112320, Note_on_c, 0, 67, 0
2, 112320, Note_on_c, 0, 67, 93
2, 112320, Note_on_c, 0, 71, 93
2, 112320, Note_on_c, 0, 76, 93
2, 112367, Note_on_c, 0, 76, 0
2, 112367, Note_on_c, 0, 71, 0
2, 112367, Note_on_c, 0, 67, 0
2, 112800, Control_c, 0, 64, 127
2, 112800, Note_on_c, 0, 71, 119
2, 112800, Note_on_c, 0, 76, 119
2, 112920, Note_on_c, 0, 76, 0
2, 112920, Note_on_c, 0, 71, 0
2, 112920, Note_on_c, 0, 73, 93
2, 113040, Note_on_c, 0, 73, 0
2, 113040, Note_on_c, 0, 74, 93
2, 113160, Note_on_c, 0, 74, 0
2, 113160, Note_on_c, 0, 76, 93
2, 113280, Note_on_c, 0, 76, 0
2, 113280, Control_c, 0, 64, 0
2, 113280, Note_on_c, 0, 78, 93
2, 113327, Note_on_c, 0, 78, 0
2, 113760, Control_c, 0, 64, 127
2, 113760, Note_on_c, 0, 88, 93
2, 113880, Note_on_c, 0, 88, 0
2, 113880, Note_on_c, 0, 90, 93
2, 114000, Note_on_c, 0, 90, 0
2, 114000, Note_on_c, 0, 91, 93
2, 114120, Note_on_c, 0, 91, 0
2, 114120, Control_c, 0, 64, 0
2, 114120, Note_on_c, 0, 93, 93
2, 114240, Note_on_c, 0, 93, 0
2, 114240, Control_c, 0, 64, 127
2, 114240, Note_on_c, 0, 95, 106
2, 114360, Note_on_c, 0, 95, 0
2, 114360, Note_on_c, 0, 91, 106
2, 114480, Note_on_c, 0, 91, 0
2, 114480, Note_on_c, 0, 88, 106
2, 114600, Note_on_c, 0, 88, 0
2, 114600, Control_c, 0, 64, 0
2, 114600, Note_on_c, 0, 83, 106
2, 114720, Note_on_c, 0, 83, 0
2, 115080, Note_on_c, 0, 76, 106
2, 115200, Note_on_c, 0, 76, 0
2, 115200, Note_on_c, 0, 72, 80
2, 115200, Note_on_c, 0, 84, 80
2, 115440, Note_on_c, 0, 84, 0
2, 115440, Note_on_c, 0, 72, 0
2, 115560, Note_on_c, 0, 74, 80
2, 115560, Note_on_c, 0, 86, 80
2, 115680, Note_on_c, 0, 86, 0
2, 115680, Note_on_c, 0, 74, 0
2, 115680, Note_on_c, 0, 72, 80
2, 115680, Note_on_c, 0, 84, 80
2, 115920, Note_on_c, 0, 84, 0
2, 115920, Note_on_c, 0, 72, 0
2, 116040, Note_on_c, 0, 71, 80
2, 116040, Note_on_c, 0, 83, 80
2, 116160, Note_on_c, 0, 83, 0
2, 116160, Note_on_c, 0, 71, 0
2, 116160, Note_on_c, 0, 69, 80
2, 116160, Note_on_c, 0, 81, 80
2, 116400, Note_on_c, 0, 81, 0
2, 116400, Note_on_c, 0, 69, 0
2, 116520, Note_on_c, 0, 67, 80
2, 116520, Note_on_c, 0, 79, 80
2, 116640, Note_on_c, 0, 79, 0
2, 116640, Note_on_c, 0, 67, 0
2, 116640, Note_on_c, 0, 66, 80
2, 116640, Note_on_c, 0, 78, 80
2, 116880, Note_on_c, 0, 78, 0
2, 116880, Note_on_c, 0, 66, 0
2, 117000, Note_on_c, 0, 69, 80
2, 117000, Note_on_c, 0, 81, 80
2, 117120, Note_on_c, 0, 81, 0
2, 117120, Note_on_c, 0, 69, 0
2, 117120, Note_on_c, 0, 74, 80
2, 117120, Note_on_c, 0, 86, 80
2, 117360, Note_on_c, 0, 86, 0
2, 117360, Note_on_c, 0, 74, 0
2, 117480, Note_on_c, 0, 76, 80
2, 117480, Note_on_c, 0, 88, 80
2, 117600, Note_on_c, 0, 88, 0
2, 117600, Note_on_c, 0, 76, 0
2, 117600, Note_on_c, 0, 74, 80
2, 117600, Note_on_c, 0, 86, 80
2, 117840, Note_on_c, 0, 86, 0
2, 117840, Note_on_c, 0, 74, 0
2, 117960, Note_on_c, 0, 72, 80
2, 117960, Note_on_c, 0, 84, 80
2, 118080, Note_on_c, 0, 84, 0
2, 118080, Note_on_c, 0, 72, 0
2, 118080, Note_on_c, 0, 71, 80
2, 118080, Note_on_c, 0, 83, 80
2, 118320, Note_on_c, 0, 83, 0
2, 118320, Note_on_c, 0, 71, 0
2, 118440, Note_on_c, 0, 69, 80
2, 118440, Note_on_c, 0, 81, 80
2, 118560, Note_on_c, 0, 81, 0
2, 118560, Note_on_c, 0, 69, 0
2, 118560, Note_on_c, 0, 67, 80
2, 118560, Note_on_c, 0, 79, 80
2, 118800, Note_on_c, 0, 79, 0
2, 118800, Note_on_c, 0, 67, 0
2, 118920, Note_on_c, 0, 71, 80
2, 118920, Note_on_c, 0, 83, 80
2, 119040, Note_on_c, 0, 83, 0
2, 119040, Note_on_c, 0, 71, 0
2, 119040, Note_on_c, 0, 76, 80
2, 119040, Note_on_c, 0, 88, 80
2, 119280, Note_on_c, 0, 88, 0
2, 119280, Note_on_c, 0, 76, 0
2, 119400, Note_on_c, 0, 74, 80
2, 119400, Note_on_c, 0, 86, 80
2, 119520, Note_on_c, 0, 86, 0
2, 119520, Note_on_c, 0, 74, 0
2, 119520, Note_on_c, 0, 72, 93
2, 119520, Note_on_c, 0, 84, 93
2, 119760, Note_on_c, 0, 84, 0
2, 119760, Note_on_c, 0, 72, 0
2, 119880, Note_on_c, 0, 76, 93
2, 119880, Note_on_c, 0, 88, 93
2, 120000, Note_on_c, 0, 88, 0
2, 120000, Note_on_c, 0, 76, 0
2, 120000, Note_on_c, 0, 78, 93
2, 120000, Note_on_c, 0, 90, 93
2, 120240, Note_on_c, 0, 90, 0
2, 120240, Note_on_c, 0, 78, 0
2, 120360, Note_on_c, 0, 76, 93
2, 120360, Note_on_c, 0, 88, 93
2, 120480, Note_on_c, 0, 88, 0
2, 120480, Note_on_c, 0, 76, 0
2, 120480, Note_on_c, 0, 74, 93
2, 120480, Note_on_c, 0, 86, 93
2, 120720, Note_on_c, 0, 86, 0
2, 120720, Note_on_c, 0, 74, 0
2, 120840, Note_on_c, 0, 78, 93
2, 120840, Note_on_c, 0, 90, 93
2, 120960, Note_on_c, 0, 90, 0
2, 120960, Note_on_c, 0, 78, 0
2, 120960, Note_on_c, 0, 79, 93
2, 120960, Note_on_c, 0, 91, 93
2, 121200, Note_on_c, 0, 91, 0
2, 121200, Note_on_c, 0, 79, 0
2, 121320, Note_on_c, 0, 78, 93
2, 121320, Note_on_c, 0, 90, 93
2, 121440, Note_on_c, 0, 90, 0
2, 121440, Note_on_c, 0, 78, 0
2, 121440, Note_on_c, 0, 76, 93
2, 121440, Note_on_c, 0, 88, 93
2, 121680, Note_on_c, 0, 88, 0
2, 121680, Note_on_c, 0, 76, 0
2, 121800, Note_on_c, 0, 78, 93
2, 121800, Note_on_c, 0, 90, 93
2, 121920, Note_on_c, 0, 90, 0
2, 121920, Note_on_c, 0, 78, 0
2, 121920, Note_on_c, 0, 78, 93
2, 121920, Note_on_c, 0, 87, 93
2, 122160, Note_on_c, 0, 87, 0
2, 122160, Note_on_c, 0, 78, 0
2, 122160, Note_on_c, 0, 90, 93
2, 122220, Note_on_c, 0, 90, 0
2, 122220, Note_on_c, 0, 91, 93
2, 122280, Note_on_c, 0, 91, 0
2, 122280, Note_on_c, 0, 93, 93
2, 122340, Note_on_c, 0, 93, 0
2, 122340, Note_on_c, 0, 94, 93
2, 122400, Note_on_c, 0, 94, 0
2, 122400, Note_on_c, 0, 95, 106
2, 122447, Note_on_c, 0, 95, 0
2, 126180, Note_on_c, 0, 81, 106
2, 126240, Note_on_c, 0, 81, 0
2, 126240, Note_on_c, 0, 76, 80
2, 126240, Note_on_c, 0, 83, 80
2, 126287, Note_on_c, 0, 83, 0
2, 126287, Note_on_c, 0, 76, 0
2, 126660, Note_on_c, 0, 78, 80
2, 126720, Note_on_c, 0, 78, 0
2, 126720, Note_on_c, 0, 71, 80
2, 126720, Note_on_c, 0, 79, 80
2, 126767, Note_on_c, 0, 79, 0
2, 126767, Note_on_c, 0, 71, 0
2, 127140, Note_on_c, 0, 75, 80
2, 127200, Note_on_c, 0, 75, 0
2, 127200, Note_on_c, 0, 71, 80
2, 127200, Note_on_c, 0, 76, 80
2, 127247, Note_on_c, 0, 76, 0
2, 127247, Note_on_c, 0, 71, 0
2, 127620, Note_on_c, 0, 71, 80
2, 127680, Note_on_c, 0, 71, 0
2, 127680, Note_on_c, 0, 72, 80
2, 127727, Note_on_c, 0, 72, 0
2, 128100, Note_on_c, 0, 68, 80
2, 128160, Note_on_c, 0, 68, 0
2, 128160, Note_on_c, 0, 69, 80
2, 128207, Note_on_c, 0, 69, 0
2, 128580, Note_on_c, 0, 71, 80
2, 128640, Note_on_c, 0, 71, 0
2, 128640, Note_on_c, 0, 72, 80
2, 128687, Note_on_c, 0, 72, 0
2, 129060, Note_on_c, 0, 75, 80
2, 129120, Note_on_c, 0, 75, 0
2, 129120, Note_on_c, 0, 72, 93
2, 129120, Note_on_c, 0, 76, 93
2, 129167, Note_on_c, 0, 76, 0
2, 129167, Note_on_c, 0, 72, 0
2, 129540, Note_on_c, 0, 77, 93
2, 129600, Note_on_c, 0, 77, 0
2, 129600, Note_on_c, 0, 71, 93
2, 129600, Note_on_c, 0, 78, 93
2, 129647, Note_on_c, 0, 78, 0
2, 129647, Note_on_c, 0, 71, 0
2, 130020, Note_on_c, 0, 82, 93
2, 130080, Note_on_c, 0, 82, 0
2, 130080, Note_on_c, 0, 75, 119
2, 130080, Note_on_c, 0, 78, 119
2, 130080, Note_on_c, 0, 83, 119
2, 130127, Note_on_c, 0, 83, 0
2, 130127, Note_on_c, 0, 78, 0
2, 130127, Note_on_c, 0, 75, 0
2, 133680, Note_on_c, 0, 83, 80
2, 133727, Note_on_c, 0, 83, 0
2, 133920, Note_on_c, 0, 82, 80
2, 133967, Note_on_c, 0, 82, 0
2, 134160, Note_on_c, 0, 81, 80
2, 134207, Note_on_c, 0, 81, 0
2, 134400, Note_on_c, 0, 79, 80
2, 134447, Note_on_c, 0, 79, 0
2, 134640, Note_on_c, 0, 78, 80
2, 134687, Note_on_c, 0, 78, 0
2, 134880, Note_on_c, 0, 76, 80
2, 134927, Note_on_c, 0, 76, 0
2, 135120, Note_on_c, 0, 74, 80
2, 135167, Note_on_c, 0, 74, 0
2, 135360, Note_on_c, 0, 72, 80
2, 135407, Note_on_c, 0, 72, 0
2, 135600, Note_on_c, 0, 71, 80
2, 135647, Note_on_c, 0, 71, 0
2, 135780, Note_on_c, 0, 68, 80
2, 135840, Note_on_c, 0, 68, 0
2, 135840, Note_on_c, 0, 69, 80
2, 136080, Note_on_c, 0, 69, 0
2, 136260, Note_on_c, 0, 73, 80
2, 136320, Note_on_c, 0, 73, 0
2, 136320, Note_on_c, 0, 69, 80
2, 136320, Note_on_c, 0, 74, 80
2, 136367, Note_on_c, 0, 74, 0
2, 136367, Note_on_c, 0, 69, 0
2, 136740, Note_on_c, 0, 77, 93
2, 136800, Note_on_c, 0, 77, 0
2, 136800, Note_on_c, 0, 69, 93
2, 136800, Note_on_c, 0, 78, 93
2, 136847, Note_on_c, 0, 78, 0
2, 136847, Note_on_c, 0, 69, 0
2, 137220, Note_on_c, 0, 85, 93
2, 137280, Note_on_c, 0, 85, 0
2, 137280, Note_on_c, 0, 78, 119
2, 137280, Note_on_c, 0, 86, 119
2, 137327, Note_on_c, 0, 86, 0
2, 137327, Note_on_c, 0, 78, 0
2, 138240, Note_on_c, 0, 67, 93
2, 138240, Note_on_c, 0, 71, 93
2, 138240, Note_on_c, 0, 74, 93
2, 138287, Note_on_c, 0, 74, 0
2, 138287, Note_on_c, 0, 71, 0
2, 138287, Note_on_c, 0, 67, 0
2, 138720, Note_on_c, 0, 67, 93
2, 138720, Note_on_c, 0, 71, 93
2, 138720, Note_on_c, 0, 74, 93
2, 138879, Note_on_c, 0, 74, 0
2, 138879, Note_on_c, 0, 71, 0
2, 138879, Note_on_c, 0, 67, 0
2, 138879, Note_on_c, 0, 67, 93
2, 138879, Note_on_c, 0, 71, 93
2, 138879, Note_on_c, 0, 74, 93
2, 139040, Note_on_c, 0, 74, 0
2, 139040, Note_on_c, 0, 71, 0
2, 139040, Note_on_c, 0, 67, 0
2, 139040, Note_on_c, 0, 67, 93
2, 139040, Note_on_c, 0, 71, 93
2, 139040, Note_on_c, 0, 74, 93
2, 139200, Note_on_c, 0, 74, 0
2, 139200, Note_on_c, 0, 71, 0
2, 139200, Note_on_c, 0, 67, 0
2, 139200, Note_on_c, 0, 67, 93
2, 139200, Note_on_c, 0, 71, 93
2, 139200, Note_on_c, 0, 76, 93
2, 139247, Note_on_c, 0, 76, 0
2, 139247, Note_on_c, 0, 71, 0
2, 139247, Note_on_c, 0, 67, 0
2, 139680, Control_c, 0, 64, 127
2, 139680, Note_on_c, 0, 71, 119
2, 139680, Note_on_c, 0, 76, 119
2, 139800, Note_on_c, 0, 76, 0
2, 139800, Note_on_c, 0, 71, 0
2, 139800, Note_on_c, 0, 73, 93
2, 139920, Note_on_c, 0, 73, 0
2, 139920, Note_on_c, 0, 74, 93
2, 140040, Note_on_c, 0, 74, 0
2, 140040, Note_on_c, 0, 76, 93
2, 140160, Note_on_c, 0, 76, 0
2, 140160, Control_c, 0, 64, 0
2, 140160, Note_on_c, 0, 78, 93
2, 140207, Note_on_c, 0, 78, 0
2, 140640, Control_c, 0, 64, 127
2, 140640, Note_on_c, 0, 88, 93
2, 140760, Note_on_c, 0, 88, 0
2, 140760, Note_on_c, 0, 90, 93
2, 140880, Note_on_c, 0, 90, 0
2, 140880, Note_on_c, 0, 91, 93
2, 141000, Note_on_c, 0, 91, 0
2, 141000, Control_c, 0, 64, 0
2, 141000, Note_on_c, 0, 93, 93
2, 141120, Note_on_c, 0, 93, 0
2, 141120, Control_c, 0, 64, 127
2, 141120, Note_on_c, 0, 95, 106
2, 141240, Note_on_c, 0, 95, 0
2, 141240, Note_on_c, 0, 91, 106
2, 141360, Note_on_c, 0, 91, 0
2, 141360, Note_on_c, 0, 88, 106
2, 141480, Note_on_c, 0, 88, 0
2, 141480, Control_c, 0, 64, 0
2, 141480, Note_on_c, 0, 83, 106
2, 141600, Note_on_c, 0, 83, 0
2, 142080, Note_on_c, 0, 67, 93
2, 142080, Note_on_c, 0, 71, 93
2, 142080, Note_on_c, 0, 74, 93
2, 142127, Note_on_c, 0, 74, 0
2, 142127, Note_on_c, 0, 71, 0
2, 142127, Note_on_c, 0, 67, 0
2, 142560, Note_on_c, 0, 67, 93
2, 142560, Note_on_c, 0, 71, 93
2, 142560, Note_on_c, 0, 74, 93
2, 142719, Note_on_c, 0, 74, 0
2, 142719, Note_on_c, 0, 71, 0
2, 142719, Note_on_c, 0, 67, 0
2, 142719, Note_on_c, 0, 67, 93
2, 142719, Note_on_c, 0, 71, 93
2, 142719, Note_on_c, 0, 74, 93
2, 142880, Note_on_c, 0, 74, 0
2, 142880, Note_on_c, 0, 71, 0
2, 142880, Note_on_c, 0, 67, 0
2, 142880, Note_on_c, 0, 67, 93
2, 142880, Note_on_c, 0, 71, 93
2, 142880, Note_on_c, 0, 74, 93
2, 143040, Note_on_c, 0, 74, 0
2, 143040, Note_on_c, 0, 71, 0
2, 143040, Note_on_c, 0, 67, 0
2, 143040, Note_on_c, 0, 67, 93
2, 143040, Note_on_c, 0, 71, 93
2, 143040, Note_on_c, 0, 76, 93
2, 143087, Note_on_c, 0, 76, 0
2, 143087, Note_on_c, 0, 71, 0
2, 143087, Note_on_c, 0, 67, 0
2, 143520, Control_c, 0, 64, 127
2, 143520, Note_on_c, 0, 71, 119
2, 143520, Note_on_c, 0, 76, 119
2, 143640, Note_on_c, 0, 76, 0
2, 143640, Note_on_c, 0, 71, 0
2, 143640, Note_on_c, 0, 73, 93
2, 143760, Note_on_c, 0, 73, 0
2, 143760, Note_on_c, 0, 74, 93
2, 143880, Note_on_c, 0, 74, 0
2, 143880, Note_on_c, 0, 76, 93
2, 144000, Note_on_c, 0, 76, 0
2, 144000, Control_c, 0, 64, 0
2, 144000, Note_on_c, 0, 78, 93
2, 144047, Note_on_c, 0, 78, 0
2, 144480, Control_c, 0, 64, 127
2, 144480, Note_on_c, 0, 88, 93
2, 144600, Note_on_c, 0, 88, 0
2, 144600, Note_on_c, 0, 90, 93
2, 144720, Note_on_c, 0, 90, 0
2, 144720, Note_on_c, 0, 91, 93
2, 144840, Note_on_c, 0, 91, 0
2, 144840, Control_c, 0, 64, 0
2, 144840, Note_on_c, 0, 93, 93
2, 144960, Note_on_c, 0, 93, 0
2, 144960, Control_c, 0, 64, 127
2, 144960, Note_on_c, 0, 95, 106
2, 145080, Note_on_c, 0, 95, 0
2, 145080, Note_on_c, 0, 91, 106
2, 145200, Note_on_c, 0, 91, 0
2, 145200, Note_on_c, 0, 88, 106
2, 145320, Note_on_c, 0, 88, 0
2, 145320, Control_c, 0, 64, 0
2, 145320, Note_on_c, 0, 83, 106
2, 145440, Note_on_c, 0, 83, 0
2, 145800, Note_on_c, 0, 76, 106
2, 145920, Note_on_c, 0, 76, 0
2, 145920, Note_on_c, 0, 72, 80
2, 145920, Note_on_c, 0, 84, 80
2, 146160, Note_on_c, 0, 84, 0
2, 146160, Note_on_c, 0, 72, 0
2, 146280, Note_on_c, 0, 74, 80
2, 146280, Note_on_c, 0, 86, 80
2, 146400, Note_on_c, 0, 86, 0
2, 146400, Note_on_c, 0, 74, 0
2, 146400, Note_on_c, 0, 72, 80
2, 146400, Note_on_c, 0, 84, 80
2, 146640, Note_on_c, 0, 84, 0
2, 146640, Note_on_c, 0, 72, 0
2, 146760, Note_on_c, 0, 71, 80
2, 146760, Note_on_c, 0, 83, 80
2, 146880, Note_on_c, 0, 83, 0
2, 146880, Note_on_c, 0, 71, 0
2, 146880, Note_on_c, 0, 69, 80
2, 146880, Note_on_c, 0, 81, 80
2, 147120, Note_on_c, 0, 81, 0
2, 147120, Note_on_c, 0, 69, 0
2, 147240, Note_on_c, 0, 67, 80
2, 147240, Note_on_c, 0, 79, 80
2, 147360, Note_on_c, 0, 79, 0
2, 147360, Note_on_c, 0, 67, 0
2, 147360, Note_on_c, 0, 66, 80
2, 147360, Note_on_c, 0, 78, 80
2, 147600, Note_on_c, 0, 78, 0
2, 147600, Note_on_c, 0, 66, 0
2, 147720, Note_on_c, 0, 69, 80
2, 147720, Note_on_c, 0, 81, 80
2, 147840, Note_on_c, 0, 81, 0
2, 147840, Note_on_c, 0, 69, 0
2, 147840, Note_on_c, 0, 74, 80
2, 147840, Note_on_c, 0, 86, 80
2, 148080, Note_on_c, 0, 86, 0
2, 148080, Note_on_c, 0, 74, 0
2, 148200, Note_on_c, 0, 76, 80
2, 148200, Note_on_c, 0, 88, 80
2, 148320, Note_on_c, 0, 88, 0
2, 148320, Note_on_c, 0, 76, 0
2, 148320, Note_on_c, 0, 74, 80
2, 148320, Note_on_c, 0, 86, 80
2, 148560, Note_on_c, 0, 86, 0
2, 148560, Note_on_c, 0, 74, 0
2, 148680, Note_on_c, 0, 72, 80
2, 148680, Note_on_c, 0, 84, 80
2, 148800, Note_on_c, 0, 84, 0
2, 148800, Note_on_c, 0, 72, 0
2, 148800, Note_on_c, 0, 71, 80
2, 148800, Note_on_c, 0, 83, 80
2, 149040, Note_on_c, 0, 83, 0
2, 149040, Note_on_c, 0, 71, 0
2, 149160, Note_on_c, 0, 69, 80
2, 149160, Note_on_c, 0, 81, 80
2, 149280, Note_on_c, 0, 81, 0
2, 149280, Note_on_c, 0, 69, 0
2, 149280, Note_on_c, 0, 67, 80
2, 149280, Note_on_c, 0, 79, 80
2, 149520, Note_on_c, 0, 79, 0
2, 149520, Note_on_c, 0, 67, 0
2, 149640, Note_on_c, 0, 71, 80
2, 149640, Note_on_c, 0, 83, 80
2, 149760, Note_on_c, 0, 83, 0
2, 149760, Note_on_c, 0, 71, 0
2, 149760, Note_on_c, 0, 76, 80
2, 149760, Note_on_c, 0, 88, 80
2, 150000, Note_on_c, 0, 88, 0
2, 150000, Note_on_c, 0, 76, 0
2, 150120, Note_on_c, 0, 74, 80
2, 150120, Note_on_c, 0, 86, 80
2, 150240, Note_on_c, 0, 86, 0
2, 150240, Note_on_c, 0, 74, 0
2, 150240, Note_on_c, 0, 72, 93
2, 150240, Note_on_c, 0, 84, 93
2, 150480, Note_on_c, 0, 84, 0
2, 150480, Note_on_c, 0, 72, 0
2, 150600, Note_on_c, 0, 76, 93
2, 150600, Note_on_c, 0, 88, 93
2, 150720, Note_on_c, 0, 88, 0
2, 150720, Note_on_c, 0, 76, 0
2, 150720, Note_on_c, 0, 78, 93
2, 150720, Note_on_c, 0, 90, 93
2, 150960, Note_on_c, 0, 90, 0
2, 150960, Note_on_c, 0, 78, 0
2, 151080, Note_on_c, 0, 76, 93
2, 151080, Note_on_c, 0, 88, 93
2, 151200, Note_on_c, 0, 88, 0
2, 151200, Note_on_c, 0, 76, 0
2, 151200, Note_on_c, 0, 74, 93
2, 151200, Note_on_c, 0, 86, 93
2, 151440, Note_on_c, 0, 86, 0
2, 151440, Note_on_c, 0, 74, 0
2, 151560, Note_on_c, 0, 78, 93
2, 151560, Note_on_c, 0, 90, 93
2, 151680, Note_on_c, 0, 90, 0
2, 151680, Note_on_c, 0, 78, 0
2, 151680, Note_on_c, 0, 79, 93
2, 151680, Note_on_c, 0, 91, 93
2, 151920, Note_on_c, 0, 91, 0
2, 151920, Note_on_c, 0, 79, 0
2, 152040, Note_on_c, 0, 78, 93
2, 152040, Note_on_c, 0, 90, 93
2, 152160, Note_on_c, 0, 90, 0
2, 152160, Note_on_c, 0, 78, 0
2, 152160, Note_on_c, 0, 76, 93
2, 152160, Note_on_c, 0, 88, 93
2, 152400, Note_on_c, 0, 88, 0
2, 152400, Note_on_c, 0, 76, 0
2, 152520, Note_on_c, 0, 78, 93
2, 152520, Note_on_c, 0, 90, 93
2, 152640, Note_on_c, 0, 90, 0
2, 152640, Note_on_c, 0, 78, 0
2, 152640, Note_on_c, 0, 83, 93
2, 152640, Note_on_c, 0, 91, 93
2, 152880, Note_on_c, 0, 91, 0
2, 152880, Note_on_c, 0, 83, 0
2, 152880, Control_c, 0, 64, 127
2, 155040, Control_c, 0, 64, 0
2, 155040, End_track
3, 0, Start_track
3, 0, Title_t, "Grand Piano"
3, 0, Program_c, 0, 0
3, 0, Control_c, 0, 7, 115
3, 0, Control_c, 0, 10, 79
3, 0, Note_on_c, 0, 67, 54
3, 47, Note_on_c, 0, 67, 0
3, 480, Note_on_c, 0, 67, 54
3, 511, Note_on_c, 0, 67, 0
3, 639, Note_on_c, 0, 67, 54
3, 671, Note_on_c, 0, 67, 0
3, 800, Note_on_c, 0, 67, 54
3, 832, Note_on_c, 0, 67, 0
3, 960, Note_on_c, 0, 67, 54
3, 1007, Note_on_c, 0, 67, 0
3, 1440, Note_on_c, 0, 67, 54
3, 1487, Note_on_c, 0, 67, 0
3, 1920, Note_on_c, 0, 66, 54
3, 1967, Note_on_c, 0, 66, 0
3, 2400, Note_on_c, 0, 67, 54
3, 2447, Note_on_c, 0, 67, 0
3, 2880, Note_on_c, 0, 67, 80
3, 3840, Note_on_c, 0, 67, 0
3, 3840, Note_on_c, 0, 67, 54
3, 3887, Note_on_c, 0, 67, 0
3, 4320, Note_on_c, 0, 67, 54
3, 4351, Note_on_c, 0, 67, 0
3, 4479, Note_on_c, 0, 67, 54
3, 4511, Note_on_c, 0, 67, 0
3, 4640, Note_on_c, 0, 67, 54
3, 4672, Note_on_c, 0, 67, 0
3, 4800, Note_on_c, 0, 67, 54
3, 4847, Note_on_c, 0, 67, 0
3, 5280, Note_on_c, 0, 67, 54
3, 5327, Note_on_c, 0, 67, 0
3, 5760, Note_on_c, 0, 66, 54
3, 5807, Note_on_c, 0, 66, 0
3, 6240, Note_on_c, 0, 67, 54
3, 6287, Note_on_c, 0, 67, 0
3, 6720, Note_on_c, 0, 67, 80
3, 7560, Note_on_c, 0, 67, 0
3, 7560, Note_on_c, 0, 64, 67
3, 7680, Note_on_c, 0, 64, 0
3, 7680, Note_on_c, 0, 64, 93
3, 9120, Note_on_c, 0, 64, 0
3, 9120, Note_on_c, 0, 57, 67
3, 9360, Note_on_c, 0, 57, 0
3, 9600, Note_on_c, 0, 62, 93
3, 11040, Note_on_c, 0, 62, 0
3, 11040, Note_on_c, 0, 55, 67
3, 11280, Note_on_c, 0, 55, 0
3, 11520, Note_on_c, 0, 60, 67
3, 12000, Note_on_c, 0, 60, 0
3, 12000, Note_on_c, 0, 54, 67
3, 12240, Note_on_c, 0, 54, 0
3, 12480, Note_on_c, 0, 57, 67
3, 12480, Note_on_c, 0, 59, 67
3, 12960, Note_on_c, 0, 57, 0
3, 12960, Note_on_c, 0, 55, 67
3, 13200, Note_on_c, 0, 55, 0
3, 13200, Note_on_c, 0, 59, 0
3, 13440, Note_on_c, 0, 64, 67
3, 14400, Note_on_c, 0, 64, 0
3, 14400, Note_on_c, 0, 66, 67
3, 14640, Note_on_c, 0, 66, 0
3, 14880, Note_on_c, 0, 74, 80
3, 14880, Note_on_c, 0, 78, 80
3, 14880, Note_on_c, 0, 81, 80
3, 14927, Note_on_c, 0, 81, 0
3, 14927, Note_on_c, 0, 78, 0
3, 14927, Note_on_c, 0, 74, 0
3, 15360, Note_on_c, 0, 67, 54
3, 15407, Note_on_c, 0, 67, 0
3, 15840, Note_on_c, 0, 67, 54
3, 15871, Note_on_c, 0, 67, 0
3, 15999, Note_on_c, 0, 67, 54
3, 16031, Note_on_c, 0, 67, 0
3, 16160, Note_on_c, 0, 67, 54
3, 16192, Note_on_c, 0, 67, 0
3, 16320, Note_on_c, 0, 67, 54
3, 16367, Note_on_c, 0, 67, 0
3, 16800, Note_on_c, 0, 67, 54
3, 16847, Note_on_c, 0, 67, 0
3, 17280, Note_on_c, 0, 66, 54
3, 17327, Note_on_c, 0, 66, 0
3, 17760, Note_on_c, 0, 67, 54
3, 17807, Note_on_c, 0, 67, 0
3, 18240, Note_on_c, 0, 67, 80
3, 19200, Note_on_c, 0, 67, 0
3, 19200, Note_on_c, 0, 67, 54
3, 19247, Note_on_c, 0, 67, 0
3, 19680, Note_on_c, 0, 67, 54
3, 19711, Note_on_c, 0, 67, 0
3, 19839, Note_on_c, 0, 67, 54
3, 19871, Note_on_c, 0, 67, 0
3, 20000, Note_on_c, 0, 67, 54
3, 20032, Note_on_c, 0, 67, 0
3, 20160, Note_on_c, 0, 67, 54
3, 20207, Note_on_c, 0, 67, 0
3, 20640, Note_on_c, 0, 67, 54
3, 20687, Note_on_c, 0, 67, 0
3, 21120, Note_on_c, 0, 66, 54
3, 21167, Note_on_c, 0, 66, 0
3, 21600, Note_on_c, 0, 67, 54
3, 21647, Note_on_c, 0, 67, 0
3, 22080, Note_on_c, 0, 67, 80
3, 22920, Note_on_c, 0, 67, 0
3, 22920, Note_on_c, 0, 64, 67
3, 23040, Note_on_c, 0, 64, 0
3, 23040, Note_on_c, 0, 64, 80
3, 24480, Note_on_c, 0, 64, 0
3, 24480, Note_on_c, 0, 57, 54
3, 24527, Note_on_c, 0, 57, 0
3, 24960, Note_on_c, 0, 66, 93
3, 26400, Note_on_c, 0, 66, 0
3, 26400, Note_on_c, 0, 59, 67
3, 26447, Note_on_c, 0, 59, 0
3, 26880, Note_on_c, 0, 67, 67
3, 27360, Note_on_c, 0, 67, 0
3, 27360, Note_on_c, 0, 69, 93
3, 28320, Note_on_c, 0, 69, 0
3, 28320, Note_on_c, 0, 71, 93
3, 29280, Note_on_c, 0, 71, 0
3, 29280, Note_on_c, 0, 72, 80
3, 29760, Note_on_c, 0, 72, 0
3, 29760, Note_on_c, 0, 66, 80
3, 29807, Note_on_c, 0, 66, 0
3, 30240, Note_on_c, 0, 71, 80
3, 30240, Note_on_c, 0, 75, 80
3, 30240, Note_on_c, 0, 78, 80
3, 30287, Note_on_c, 0, 78, 0
3, 30287, Note_on_c, 0, 75, 0
3, 30287, Note_on_c, 0, 71, 0
3, 30720, Note_on_c, 0, 63, 93
3, 30720, Note_on_c, 0, 71, 93
3, 30767, Note_on_c, 0, 71, 0
3, 30767, Note_on_c, 0, 63, 0
3, 31200, Note_on_c, 0, 63, 93
3, 31200, Note_on_c, 0, 71, 93
3, 31231, Note_on_c, 0, 71, 0
3, 31231, Note_on_c, 0, 63, 0
3, 31359, Note_on_c, 0, 63, 93
3, 31359, Note_on_c, 0, 71, 93
3, 31391, Note_on_c, 0, 71, 0
3, 31391, Note_on_c, 0, 63, 0
3, 31520, Note_on_c, 0, 63, 93
3, 31520, Note_on_c, 0, 71, 93
3, 31552, Note_on_c, 0, 71, 0
3, 31552, Note_on_c, 0, 63, 0
3, 31680, Note_on_c, 0, 64, 93
3, 31680, Note_on_c, 0, 67, 93
3, 31727, Note_on_c, 0, 67, 0
3, 31727, Note_on_c, 0, 64, 0
3, 32160, Note_on_c, 0, 64, 93
3, 32207, Note_on_c, 0, 64, 0
3, 34020, Note_on_c, 0, 69, 93
3, 34080, Note_on_c, 0, 69, 0
3, 34080, Note_on_c, 0, 64, 80
3, 34080, Note_on_c, 0, 71, 80
3, 34127, Note_on_c, 0, 71, 0
3, 34127, Note_on_c, 0, 64, 0
3, 34500, Note_on_c, 0, 66, 80
3, 34560, Note_on_c, 0, 66, 0
3, 34560, Note_on_c, 0, 67, 80
3, 34607, Note_on_c, 0, 67, 0
3, 34980, Note_on_c, 0, 63, 80
3, 35040, Note_on_c, 0, 63, 0
3, 35040, Note_on_c, 0, 64, 80
3, 35087, Note_on_c, 0, 64, 0
3, 35520, Note_on_c, 0, 64, 80
3, 35567, Note_on_c, 0, 64, 0
3, 36000, Note_on_c, 0, 64, 80
3, 36047, Note_on_c, 0, 64, 0
3, 36480, Note_on_c, 0, 66, 80
3, 36527, Note_on_c, 0, 66, 0
3, 36900, Note_on_c, 0, 63, 80
3, 36960, Note_on_c, 0, 63, 0
3, 36960, Note_on_c, 0, 64, 93
3, 37007, Note_on_c, 0, 64, 0
3, 37380, Note_on_c, 0, 65, 93
3, 37440, Note_on_c, 0, 65, 0
3, 37440, Note_on_c, 0, 66, 93
3, 37487, Note_on_c, 0, 66, 0
3, 37860, Note_on_c, 0, 70, 93
3, 37920, Note_on_c, 0, 70, 0
3, 37920, Note_on_c, 0, 63, 93
3, 37920, Note_on_c, 0, 66, 93
3, 37920, Note_on_c, 0, 71, 93
3, 37967, Note_on_c, 0, 71, 0
3, 37967, Note_on_c, 0, 66, 0
3, 37967, Note_on_c, 0, 63, 0
3, 38400, Note_on_c, 0, 63, 93
3, 38400, Note_on_c, 0, 71, 93
3, 38447, Note_on_c, 0, 71, 0
3, 38447, Note_on_c, 0, 63, 0
3, 38880, Note_on_c, 0, 63, 93
3, 38880, Note_on_c, 0, 71, 93
3, 38911, Note_on_c, 0, 71, 0
3, 38911, Note_on_c, 0, 63, 0
3, 39039, Note_on_c, 0, 63, 93
3, 39039, Note_on_c, 0, 71, 93
3, 39071, Note_on_c, 0, 71, 0
3, 39071, Note_on_c, 0, 63, 0
3, 39200, Note_on_c, 0, 63, 93
3, 39200, Note_on_c, 0, 71, 93
3, 39232, Note_on_c, 0, 71, 0
3, 39232, Note_on_c, 0, 63, 0
3, 39360, Note_on_c, 0, 64, 93
3, 39360, Note_on_c, 0, 67, 93
3, 39407, Note_on_c, 0, 67, 0
3, 39407, Note_on_c, 0, 64, 0
3, 39840, Note_on_c, 0, 64, 93
3, 39887, Note_on_c, 0, 64, 0
3, 41520, Note_on_c, 0, 71, 80
3, 41567, Note_on_c, 0, 71, 0
3, 41760, Note_on_c, 0, 70, 80
3, 41807, Note_on_c, 0, 70, 0
3, 42000, Note_on_c, 0, 69, 80
3, 42047, Note_on_c, 0, 69, 0
3, 42240, Note_on_c, 0, 67, 80
3, 42287, Note_on_c, 0, 67, 0
3, 42480, Note_on_c, 0, 66, 80
3, 42527, Note_on_c, 0, 66, 0
3, 42720, Note_on_c, 0, 64, 80
3, 42767, Note_on_c, 0, 64, 0
3, 42960, Note_on_c, 0, 62, 80
3, 43007, Note_on_c, 0, 62, 0
3, 43140, Note_on_c, 0, 63, 80
3, 43200, Note_on_c, 0, 63, 0
3, 43200, Note_on_c, 0, 64, 80
3, 43440, Note_on_c, 0, 64, 0
3, 43680, Note_on_c, 0, 64, 80
3, 43727, Note_on_c, 0, 64, 0
3, 43920, Note_on_c, 0, 67, 80
3, 43967, Note_on_c, 0, 67, 0
3, 44160, Note_on_c, 0, 62, 80
3, 44160, Note_on_c, 0, 66, 80
3, 44207, Note_on_c, 0, 66, 0
3, 44207, Note_on_c, 0, 62, 0
3, 44400, Note_on_c, 0, 64, 80
3, 44447, Note_on_c, 0, 64, 0
3, 44640, Note_on_c, 0, 62, 93
3, 44687, Note_on_c, 0, 62, 0
3, 44880, Note_on_c, 0, 60, 93
3, 44927, Note_on_c, 0, 60, 0
3, 45120, Note_on_c, 0, 62, 93
3, 45120, Note_on_c, 0, 66, 93
3, 45120, Note_on_c, 0, 74, 93
3, 45360, Note_on_c, 0, 74, 0
3, 45360, Note_on_c, 0, 66, 0
3, 45360, Note_on_c, 0, 62, 0
3, 45600, Note_on_c, 0, 57, 80
3, 45600, Note_on_c, 0, 60, 80
3, 45600, Note_on_c, 0, 62, 80
3, 45631, Note_on_c, 0, 62, 0
3, 45631, Note_on_c, 0, 60, 0
3, 45631, Note_on_c, 0, 57, 0
3, 45759, Note_on_c, 0, 57, 80
3, 45759, Note_on_c, 0, 60, 80
3, 45759, Note_on_c, 0, 62, 80
3, 45791, Note_on_c, 0, 62, 0
3, 45791, Note_on_c, 0, 60, 0
3, 45791, Note_on_c, 0, 57, 0
3, 45920, Note_on_c, 0, 57, 80
3, 45920, Note_on_c, 0, 60, 80
3, 45920, Note_on_c, 0, 62, 80
3, 45952, Note_on_c, 0, 62, 0
3, 45952, Note_on_c, 0, 60, 0
3, 45952, Note_on_c, 0, 57, 0
3, 46080, Note_on_c, 0, 59, 80
3, 46080, Note_on_c, 0, 62, 80
3, 46127, Note_on_c, 0, 62, 0
3, 46127, Note_on_c, 0, 59, 0
3, 46560, Note_on_c, 0, 67, 54
3, 46591, Note_on_c, 0, 67, 0
3, 46719, Note_on_c, 0, 67, 54
3, 46751, Note_on_c, 0, 67, 0
3, 46880, Note_on_c, 0, 67, 54
3, 46912, Note_on_c, 0, 67, 0
3, 47040, Note_on_c, 0, 67, 54
3, 47087, Note_on_c, 0, 67, 0
3, 47520, Note_on_c, 0, 67, 54
3, 47567, Note_on_c, 0, 67, 0
3, 48000, Note_on_c, 0, 66, 54
3, 48047, Note_on_c, 0, 66, 0
3, 48480, Note_on_c, 0, 67, 54
3, 48527, Note_on_c, 0, 67, 0
3, 48960, Note_on_c, 0, 67, 80
3, 49920, Note_on_c, 0, 67, 0
3, 49920, Note_on_c, 0, 67, 54
3, 49967, Note_on_c, 0, 67, 0
3, 50400, Note_on_c, 0, 67, 54
3, 50431, Note_on_c, 0, 67, 0
3, 50559, Note_on_c, 0, 67, 54
3, 50591, Note_on_c, 0, 67, 0
3, 50720, Note_on_c, 0, 67, 54
3, 50752, Note_on_c, 0, 67, 0
3, 50880, Note_on_c, 0, 67, 54
3, 50927, Note_on_c, 0, 67, 0
3, 51360, Note_on_c, 0, 67, 54
3, 51407, Note_on_c, 0, 67, 0
3, 51840, Note_on_c, 0, 66, 54
3, 51887, Note_on_c, 0, 66, 0
3, 52320, Note_on_c, 0, 67, 54
3, 52367, Note_on_c, 0, 67, 0
3, 52800, Note_on_c, 0, 67, 80
3, 53640, Note_on_c, 0, 67, 0
3, 53640, Note_on_c, 0, 64, 67
3, 53760, Note_on_c, 0, 64, 0
3, 53760, Note_on_c, 0, 64, 93
3, 55200, Note_on_c, 0, 64, 0
3, 55200, Note_on_c, 0, 57, 67
3, 55440, Note_on_c, 0, 57, 0
3, 55680, Note_on_c, 0, 62, 93
3, 57120, Note_on_c, 0, 62, 0
3, 57120, Note_on_c, 0, 55, 67
3, 57360, Note_on_c, 0, 55, 0
3, 57600, Note_on_c, 0, 60, 67
3, 58080, Note_on_c, 0, 60, 0
3, 58080, Note_on_c, 0, 54, 67
3, 58320, Note_on_c, 0, 54, 0
3, 58560, Note_on_c, 0, 57, 67
3, 58560, Note_on_c, 0, 59, 67
3, 59040, Note_on_c, 0, 57, 0
3, 59040, Note_on_c, 0, 55, 67
3, 59280, Note_on_c, 0, 55, 0
3, 59280, Note_on_c, 0, 59, 0
3, 59520, Note_on_c, 0, 64, 67
3, 60480, Note_on_c, 0, 64, 0
3, 60480, Note_on_c, 0, 66, 67
3, 60720, Note_on_c, 0, 66, 0
3, 60960, Note_on_c, 0, 74, 80
3, 60960, Note_on_c, 0, 78, 80
3, 60960, Note_on_c, 0, 81, 80
3, 61007, Note_on_c, 0, 81, 0
3, 61007, Note_on_c, 0, 78, 0
3, 61007, Note_on_c, 0, 74, 0
3, 61440, Note_on_c, 0, 67, 54
3, 61487, Note_on_c, 0, 67, 0
3, 61920, Note_on_c, 0, 67, 54
3, 61951, Note_on_c, 0, 67, 0
3, 62079, Note_on_c, 0, 67, 54
3, 62111, Note_on_c, 0, 67, 0
3, 62240, Note_on_c, 0, 67, 54
3, 62272, Note_on_c, 0, 67, 0
3, 62400, Note_on_c, 0, 67, 54
3, 62447, Note_on_c, 0, 67, 0
3, 62880, Note_on_c, 0, 67, 54
3, 62927, Note_on_c, 0, 67, 0
3, 63360, Note_on_c, 0, 66, 54
3, 63407, Note_on_c, 0, 66, 0
3, 63840, Note_on_c, 0, 67, 54
3, 63887, Note_on_c, 0, 67, 0
3, 64320, Note_on_c, 0, 67, 80
3, 65280, Note_on_c, 0, 67, 0
3, 65280, Note_on_c, 0, 67, 54
3, 65327, Note_on_c, 0, 67, 0
3, 65760, Note_on_c, 0, 67, 54
3, 65791, Note_on_c, 0, 67, 0
3, 65919, Note_on_c, 0, 67, 54
3, 65951, Note_on_c, 0, 67, 0
3, 66080, Note_on_c, 0, 67, 54
3, 66112, Note_on_c, 0, 67, 0
3, 66240, Note_on_c, 0, 67, 54
3, 66287, Note_on_c, 0, 67, 0
3, 66720, Note_on_c, 0, 67, 54
3, 66767, Note_on_c, 0, 67, 0
3, 67200, Note_on_c, 0, 66, 54
3, 67247, Note_on_c, 0, 66, 0
3, 67680, Note_on_c, 0, 67, 54
3, 67727, Note_on_c, 0, 67, 0
3, 68160, Note_on_c, 0, 67, 80
3, 69000, Note_on_c, 0, 67, 0
3, 69000, Note_on_c, 0, 64, 67
3, 69120, Note_on_c, 0, 64, 0
3, 69120, Note_on_c, 0, 64, 80
3, 70560, Note_on_c, 0, 64, 0
3, 70560, Note_on_c, 0, 57, 54
3, 70607, Note_on_c, 0, 57, 0
3, 71040, Note_on_c, 0, 66, 93
3, 72480, Note_on_c, 0, 66, 0
3, 72480, Note_on_c, 0, 59, 67
3, 72527, Note_on_c, 0, 59, 0
3, 72960, Note_on_c, 0, 67, 67
3, 73440, Note_on_c, 0, 67, 0
3, 73440, Note_on_c, 0, 69, 93
3, 74880, Note_on_c, 0, 69, 0
3, 74880, Note_on_c, 0, 67, 67
3, 74880, Note_on_c, 0, 74, 67
3, 75360, Note_on_c, 0, 74, 0
3, 75360, Note_on_c, 0, 67, 0
3, 75360, Note_on_c, 0, 69, 80
3, 75360, Note_on_c, 0, 72, 80
3, 75840, Note_on_c, 0, 72, 0
3, 75840, Note_on_c, 0, 69, 0
3, 75840, Note_on_c, 0, 67, 80
3, 75840, Note_on_c, 0, 71, 80
3, 76080, Note_on_c, 0, 71, 0
3, 76080, Note_on_c, 0, 67, 0
3, 76320, Note_on_c, 0, 71, 106
3, 76320, Note_on_c, 0, 74, 106
3, 76320, Note_on_c, 0, 79, 106
3, 76320, Note_on_c, 0, 83, 106
3, 76367, Note_on_c, 0, 83, 0
3, 76367, Note_on_c, 0, 71, 0
3, 76367, Note_on_c, 0, 74, 0
3, 76367, Note_on_c, 0, 79, 0
3, 76800, Note_on_c, 0, 79, 80
3, 76823, Note_on_c, 0, 79, 0
3, 76920, Note_on_c, 0, 79, 80
3, 76943, Note_on_c, 0, 79, 0
3, 77040, Note_on_c, 0, 79, 80
3, 77063, Note_on_c, 0, 79, 0
3, 77160, Note_on_c, 0, 79, 80
3, 77183, Note_on_c, 0, 79, 0
3, 77280, Note_on_c, 0, 78, 80
3, 77303, Note_on_c, 0, 78, 0
3, 77400, Note_on_c, 0, 76, 80
3, 77423, Note_on_c, 0, 76, 0
3, 77520, Note_on_c, 0, 74, 80
3, 77543, Note_on_c, 0, 74, 0
3, 77640, Note_on_c, 0, 72, 80
3, 77663, Note_on_c, 0, 72, 0
3, 77760, Note_on_c, 0, 71, 80
3, 77783, Note_on_c, 0, 71, 0
3, 77880, Note_on_c, 0, 71, 80
3, 77903, Note_on_c, 0, 71, 0
3, 78000, Note_on_c, 0, 71, 80
3, 78023, Note_on_c, 0, 71, 0
3, 78120, Note_on_c, 0, 71, 80
3, 78143, Note_on_c, 0, 71, 0
3, 78240, Note_on_c, 0, 71, 80
3, 78263, Note_on_c, 0, 71, 0
3, 78360, Note_on_c, 0, 72, 80
3, 78383, Note_on_c, 0, 72, 0
3, 78480, Note_on_c, 0, 71, 80
3, 78503, Note_on_c, 0, 71, 0
3, 78600, Note_on_c, 0, 72, 80
3, 78623, Note_on_c, 0, 72, 0
3, 78720, Note_on_c, 0, 69, 80
3, 78743, Note_on_c, 0, 69, 0
3, 78840, Note_on_c, 0, 69, 80
3, 78863, Note_on_c, 0, 69, 0
3, 78960, Note_on_c, 0, 69, 80
3, 78983, Note_on_c, 0, 69, 0
3, 79080, Note_on_c, 0, 69, 80
3, 79103, Note_on_c, 0, 69, 0
3, 79200, Note_on_c, 0, 69, 80
3, 79223, Note_on_c, 0, 69, 0
3, 79320, Note_on_c, 0, 71, 80
3, 79343, Note_on_c, 0, 71, 0
3, 79440, Note_on_c, 0, 69, 80
3, 79463, Note_on_c, 0, 69, 0
3, 79560, Note_on_c, 0, 71, 80
3, 79583, Note_on_c, 0, 71, 0
3, 79680, Note_on_c, 0, 67, 80
3, 79703, Note_on_c, 0, 67, 0
3, 79800, Note_on_c, 0, 69, 80
3, 79823, Note_on_c, 0, 69, 0
3, 79920, Note_on_c, 0, 66, 80
3, 79943, Note_on_c, 0, 66, 0
3, 80040, Note_on_c, 0, 67, 80
3, 80063, Note_on_c, 0, 67, 0
3, 80160, Note_on_c, 0, 64, 80
3, 80183, Note_on_c, 0, 64, 0
3, 80280, Note_on_c, 0, 66, 80
3, 80303, Note_on_c, 0, 66, 0
3, 80400, Note_on_c, 0, 63, 80
3, 80423, Note_on_c, 0, 63, 0
3, 80520, Note_on_c, 0, 66, 80
3, 80543, Note_on_c, 0, 66, 0
3, 80640, Note_on_c, 0, 67, 80
3, 80663, Note_on_c, 0, 67, 0
3, 80760, Note_on_c, 0, 67, 80
3, 80783, Note_on_c, 0, 67, 0
3, 80880, Note_on_c, 0, 67, 80
3, 80903, Note_on_c, 0, 67, 0
3, 81000, Note_on_c, 0, 67, 80
3, 81023, Note_on_c, 0, 67, 0
3, 81120, Note_on_c, 0, 66, 80
3, 81143, Note_on_c, 0, 66, 0
3, 81240, Note_on_c, 0, 64, 80
3, 81263, Note_on_c, 0, 64, 0
3, 81360, Note_on_c, 0, 62, 80
3, 81383, Note_on_c, 0, 62, 0
3, 81480, Note_on_c, 0, 60, 80
3, 81503, Note_on_c, 0, 60, 0
3, 81600, Note_on_c, 0, 59, 80
3, 81623, Note_on_c, 0, 59, 0
3, 81720, Note_on_c, 0, 59, 80
3, 81743, Note_on_c, 0, 59, 0
3, 81840, Note_on_c, 0, 59, 80
3, 81863, Note_on_c, 0, 59, 0
3, 81960, Note_on_c, 0, 59, 80
3, 81983, Note_on_c, 0, 59, 0
3, 82080, Note_on_c, 0, 59, 80
3, 82103, Note_on_c, 0, 59, 0
3, 82200, Note_on_c, 0, 60, 80
3, 82223, Note_on_c, 0, 60, 0
3, 82320, Note_on_c, 0, 59, 80
3, 82343, Note_on_c, 0, 59, 0
3, 82440, Note_on_c, 0, 60, 80
3, 82463, Note_on_c, 0, 60, 0
3, 82560, Note_on_c, 0, 61, 67
3, 82560, Note_on_c, 0, 73, 67
3, 83040, Note_on_c, 0, 73, 0
3, 83040, Note_on_c, 0, 61, 0
3, 83040, Note_on_c, 0, 60, 67
3, 83040, Note_on_c, 0, 72, 67
3, 83520, Note_on_c, 0, 72, 0
3, 83520, Note_on_c, 0, 60, 0
3, 83520, Note_on_c, 0, 59, 67
3, 83520, Note_on_c, 0, 71, 67
3, 84000, Note_on_c, 0, 71, 0
3, 84000, Note_on_c, 0, 59, 0
3, 84000, Note_on_c, 0, 64, 93
3, 84023, Note_on_c, 0, 64, 0
3, 84120, Note_on_c, 0, 67, 93
3, 84143, Note_on_c, 0, 67, 0
3, 84240, Note_on_c, 0, 71, 93
3, 84263, Note_on_c, 0, 71, 0
3, 84360, Note_on_c, 0, 76, 93
3, 84383, Note_on_c, 0, 76, 0
3, 84480, Note_on_c, 0, 79, 80
3, 84503, Note_on_c, 0, 79, 0
3, 84600, Note_on_c, 0, 79, 80
3, 84623, Note_on_c, 0, 79, 0
3, 84720, Note_on_c, 0, 79, 80
3, 84743, Note_on_c, 0, 79, 0
3, 84840, Note_on_c, 0, 79, 80
3, 84863, Note_on_c, 0, 79, 0
3, 84960, Note_on_c, 0, 78, 80
3, 84983, Note_on_c, 0, 78, 0
3, 85080, Note_on_c, 0, 76, 80
3, 85103, Note_on_c, 0, 76, 0
3, 85200, Note_on_c, 0, 74, 80
3, 85223, Note_on_c, 0, 74, 0
3, 85320, Note_on_c, 0, 72, 80
3, 85343, Note_on_c, 0, 72, 0
3, 85440, Note_on_c, 0, 71, 80
3, 85463, Note_on_c, 0, 71, 0
3, 85560, Note_on_c, 0, 71, 80
3, 85583, Note_on_c, 0, 71, 0
3, 85680, Note_on_c, 0, 71, 80
3, 85703, Note_on_c, 0, 71, 0
3, 85800, Note_on_c, 0, 71, 80
3, 85823, Note_on_c, 0, 71, 0
3, 85920, Note_on_c, 0, 71, 80
3, 85943, Note_on_c, 0, 71, 0
3, 86040, Note_on_c, 0, 72, 80
3, 86063, Note_on_c, 0, 72, 0
3, 86160, Note_on_c, 0, 71, 80
3, 86183, Note_on_c, 0, 71, 0
3, 86280, Note_on_c, 0, 72, 80
3, 86303, Note_on_c, 0, 72, 0
3, 86400, Note_on_c, 0, 69, 80
3, 86423, Note_on_c, 0, 69, 0
3, 86520, Note_on_c, 0, 69, 80
3, 86543, Note_on_c, 0, 69, 0
3, 86640, Note_on_c, 0, 69, 80
3, 86663, Note_on_c, 0, 69, 0
3, 86760, Note_on_c, 0, 69, 80
3, 86783, Note_on_c, 0, 69, 0
3, 86880, Note_on_c, 0, 69, 80
3, 86903, Note_on_c, 0, 69, 0
3, 87000, Note_on_c, 0, 71, 80
3, 87023, Note_on_c, 0, 71, 0
3, 87120, Note_on_c, 0, 69, 80
3, 87143, Note_on_c, 0, 69, 0
3, 87240, Note_on_c, 0, 71, 80
3, 87263, Note_on_c, 0, 71, 0
3, 87360, Note_on_c, 0, 67, 80
3, 87383, Note_on_c, 0, 67, 0
3, 87480, Note_on_c, 0, 69, 80
3, 87503, Note_on_c, 0, 69, 0
3, 87600, Note_on_c, 0, 66, 80
3, 87623, Note_on_c, 0, 66, 0
3, 87720, Note_on_c, 0, 67, 80
3, 87743, Note_on_c, 0, 67, 0
3, 87840, Note_on_c, 0, 64, 80
3, 87863, Note_on_c, 0, 64, 0
3, 87960, Note_on_c, 0, 66, 80
3, 87983, Note_on_c, 0, 66, 0
3, 88080, Note_on_c, 0, 63, 80
3, 88103, Note_on_c, 0, 63, 0
3, 88200, Note_on_c, 0, 66, 80
3, 88223, Note_on_c, 0, 66, 0
3, 88320, Note_on_c, 0, 67, 80
3, 88343, Note_on_c, 0, 67, 0
3, 88440, Note_on_c, 0, 67, 80
3, 88463, Note_on_c, 0, 67, 0
3, 88560, Note_on_c, 0, 67, 80
3, 88583, Note_on_c, 0, 67, 0
3, 88680, Note_on_c, 0, 67, 80
3, 88703, Note_on_c, 0, 67, 0
3, 88800, Note_on_c, 0, 66, 80
3, 88823, Note_on_c, 0, 66, 0
3, 88920, Note_on_c, 0, 64, 80
3, 88943, Note_on_c, 0, 64, 0
3, 89040, Note_on_c, 0, 62, 80
3, 89063, Note_on_c, 0, 62, 0
3, 89160, Note_on_c, 0, 60, 80
3, 89183, Note_on_c, 0, 60, 0
3, 89280, Note_on_c, 0, 59, 80
3, 89303, Note_on_c, 0, 59, 0
3, 89400, Note_on_c, 0, 59, 80
3, 89423, Note_on_c, 0, 59, 0
3, 89520, Note_on_c, 0, 59, 80
3, 89543, Note_on_c, 0, 59, 0
3, 89640, Note_on_c, 0, 59, 80
3, 89663, Note_on_c, 0, 59, 0
3, 89760, Note_on_c, 0, 59, 80
3, 89783, Note_on_c, 0, 59, 0
3, 89880, Note_on_c, 0, 60, 80
3, 89903, Note_on_c, 0, 60, 0
3, 90000, Note_on_c, 0, 59, 80
3, 90023, Note_on_c, 0, 59, 0
3, 90120, Note_on_c, 0, 60, 80
3, 90143, Note_on_c, 0, 60, 0
3, 90240, Note_on_c, 0, 61, 67
3, 90240, Note_on_c, 0, 73, 67
3, 90720, Note_on_c, 0, 73, 0
3, 90720, Note_on_c, 0, 61, 0
3, 90720, Note_on_c, 0, 60, 67
3, 90720, Note_on_c, 0, 72, 67
3, 91200, Note_on_c, 0, 72, 0
3, 91200, Note_on_c, 0, 60, 0
3, 91200, Note_on_c, 0, 59, 67
3, 91200, Note_on_c, 0, 71, 67
3, 91680, Note_on_c, 0, 71, 0
3, 91680, Note_on_c, 0, 59, 0
3, 93120, Control_c, 0, 64, 127
3, 93120, Note_on_c, 0, 61, 119
3, 93240, Note_on_c, 0, 61, 0
3, 93240, Note_on_c, 0, 62, 93
3, 93360, Note_on_c, 0, 62, 0
3, 93360, Note_on_c, 0, 64, 93
3, 93480, Note_on_c, 0, 64, 0
3, 93480, Note_on_c, 0, 66, 93
3, 93600, Note_on_c, 0, 66, 0
3, 93600, Control_c, 0, 64, 0
3, 93600, Note_on_c, 0, 67, 93
3, 93647, Note_on_c, 0, 67, 0
3, 94080, Control_c, 0, 64, 127
3, 94080, Note_on_c, 0, 80, 93
3, 94200, Note_on_c, 0, 80, 0
3, 94200, Note_on_c, 0, 82, 93
3, 94320, Note_on_c, 0, 82, 0
3, 94320, Note_on_c, 0, 83, 93
3, 94440, Note_on_c, 0, 83, 0
3, 94440, Note_on_c, 0, 85, 93
3, 94560, Note_on_c, 0, 85, 0
3, 94560, Control_c, 0, 64, 0
3, 94560, Note_on_c, 0, 86, 119
3, 94607, Note_on_c, 0, 86, 0
3, 95520, Control_c, 0, 64, 127
3, 95520, Note_on_c, 0, 79, 106
3, 95640, Note_on_c, 0, 79, 0
3, 95640, Note_on_c, 0, 76, 106
3, 95760, Note_on_c, 0, 76, 0
3, 95760, Note_on_c, 0, 71, 106
3, 95880, Note_on_c, 0, 71, 0
3, 95880, Control_c, 0, 64, 0
3, 95880, Note_on_c, 0, 67, 106
3, 96000, Note_on_c, 0, 67, 0
3, 96960, Control_c, 0, 64, 127
3, 96960, Note_on_c, 0, 61, 119
3, 97080, Note_on_c, 0, 61, 0
3, 97080, Note_on_c, 0, 62, 93
3, 97200, Note_on_c, 0, 62, 0
3, 97200, Note_on_c, 0, 64, 93
3, 97320, Note_on_c, 0, 64, 0
3, 97320, Note_on_c, 0, 66, 93
3, 97440, Note_on_c, 0, 66, 0
3, 97440, Control_c, 0, 64, 0
3, 97440, Note_on_c, 0, 67, 93
3, 97487, Note_on_c, 0, 67, 0
3, 97920, Control_c, 0, 64, 127
3, 97920, Note_on_c, 0, 80, 93
3, 98040, Note_on_c, 0, 80, 0
3, 98040, Note_on_c, 0, 82, 93
3, 98160, Note_on_c, 0, 82, 0
3, 98160, Note_on_c, 0, 83, 93
3, 98280, Note_on_c, 0, 83, 0
3, 98280, Note_on_c, 0, 85, 93
3, 98400, Note_on_c, 0, 85, 0
3, 98400, Control_c, 0, 64, 0
3, 98400, Note_on_c, 0, 86, 119
3, 98447, Note_on_c, 0, 86, 0
3, 99360, Control_c, 0, 64, 127
3, 99360, Note_on_c, 0, 79, 106
3, 99480, Note_on_c, 0, 79, 0
3, 99480, Note_on_c, 0, 76, 106
3, 99600, Note_on_c, 0, 76, 0
3, 99600, Note_on_c, 0, 71, 106
3, 99720, Note_on_c, 0, 71, 0
3, 99720, Control_c, 0, 64, 0
3, 99720, Note_on_c, 0, 67, 106
3, 99840, Note_on_c, 0, 67, 0
3, 99840, Note_on_c, 0, 64, 67
3, 99840, Note_on_c, 0, 76, 67
3, 101280, Note_on_c, 0, 76, 0
3, 101280, Note_on_c, 0, 64, 0
3, 101280, Note_on_c, 0, 57, 67
3, 101280, Note_on_c, 0, 69, 67
3, 101520, Note_on_c, 0, 69, 0
3, 101520, Note_on_c, 0, 57, 0
3, 101760, Note_on_c, 0, 62, 67
3, 101760, Note_on_c, 0, 74, 67
3, 103200, Note_on_c, 0, 74, 0
3, 103200, Note_on_c, 0, 62, 0
3, 103200, Note_on_c, 0, 55, 67
3, 103200, Note_on_c, 0, 67, 67
3, 103440, Note_on_c, 0, 67, 0
3, 103440, Note_on_c, 0, 55, 0
3, 105600, Note_on_c, 0, 64, 80
3, 105600, Note_on_c, 0, 76, 80
3, 106560, Note_on_c, 0, 76, 0
3, 106560, Note_on_c, 0, 64, 0
3, 107040, Note_on_c, 0, 74, 93
3, 107040, Note_on_c, 0, 78, 93
3, 107040, Note_on_c, 0, 81, 93
3, 107040, Note_on_c, 0, 86, 93
3, 107087, Note_on_c, 0, 86, 0
3, 107087, Note_on_c, 0, 74, 0
3, 107087, Note_on_c, 0, 78, 0
3, 107087, Note_on_c, 0, 81, 0
3, 108480, Control_c, 0, 64, 127
3, 108480, Note_on_c, 0, 61, 119
3, 108600, Note_on_c, 0, 61, 0
3, 108600, Note_on_c, 0, 62, 93
3, 108720, Note_on_c, 0, 62, 0
3, 108720, Note_on_c, 0, 64, 93
3, 108840, Note_on_c, 0, 64, 0
3, 108840, Note_on_c, 0, 66, 93
3, 108960, Note_on_c, 0, 66, 0
3, 108960, Control_c, 0, 64, 0
3, 108960, Note_on_c, 0, 67, 93
3, 109007, Note_on_c, 0, 67, 0
3, 109440, Control_c, 0, 64, 127
3, 109440, Note_on_c, 0, 80, 93
3, 109560, Note_on_c, 0, 80, 0
3, 109560, Note_on_c, 0, 82, 93
3, 109680, Note_on_c, 0, 82, 0
3, 109680, Note_on_c, 0, 83, 93
3, 109800, Note_on_c, 0, 83, 0
3, 109800, Note_on_c, 0, 85, 93
3, 109920, Note_on_c, 0, 85, 0
3, 109920, Control_c, 0, 64, 0
3, 109920, Note_on_c, 0, 86, 119
3, 109967, Note_on_c, 0, 86, 0
3, 110880, Control_c, 0, 64, 127
3, 110880, Note_on_c, 0, 79, 106
3, 111000, Note_on_c, 0, 79, 0
3, 111000, Note_on_c, 0, 76, 106
3, 111120, Note_on_c, 0, 76, 0
3, 111120, Note_on_c, 0, 71, 106
3, 111240, Note_on_c, 0, 71, 0
3, 111240, Control_c, 0, 64, 0
3, 111240, Note_on_c, 0, 67, 106
3, 111360, Note_on_c, 0, 67, 0
3, 112320, Control_c, 0, 64, 127
3, 112320, Note_on_c, 0, 61, 119
3, 112440, Note_on_c, 0, 61, 0
3, 112440, Note_on_c, 0, 62, 93
3, 112560, Note_on_c, 0, 62, 0
3, 112560, Note_on_c, 0, 64, 93
3, 112680, Note_on_c, 0, 64, 0
3, 112680, Note_on_c, 0, 66, 93
3, 112800, Note_on_c, 0, 66, 0
3, 112800, Control_c, 0, 64, 0
3, 112800, Note_on_c, 0, 67, 93
3, 112847, Note_on_c, 0, 67, 0
3, 113280, Control_c, 0, 64, 127
3, 113280, Note_on_c, 0, 80, 93
3, 113400, Note_on_c, 0, 80, 0
3, 113400, Note_on_c, 0, 82, 93
3, 113520, Note_on_c, 0, 82, 0
3, 113520, Note_on_c, 0, 83, 93
3, 113640, Note_on_c, 0, 83, 0
3, 113640, Note_on_c, 0, 85, 93
3, 113760, Note_on_c, 0, 85, 0
3, 113760, Control_c, 0, 64, 0
3, 113760, Note_on_c, 0, 86, 119
3, 113807, Note_on_c, 0, 86, 0
3, 114720, Control_c, 0, 64, 127
3, 114720, Note_on_c, 0, 79, 106
3, 114840, Note_on_c, 0, 79, 0
3, 114840, Note_on_c, 0, 76, 106
3, 114960, Note_on_c, 0, 76, 0
3, 114960, Note_on_c, 0, 71, 106
3, 115080, Note_on_c, 0, 71, 0
3, 115080, Control_c, 0, 64, 0
3, 115080, Note_on_c, 0, 67, 106
3, 115200, Note_on_c, 0, 67, 0
3, 115200, Note_on_c, 0, 64, 67
3, 115200, Note_on_c, 0, 76, 67
3, 116640, Note_on_c, 0, 76, 0
3, 116640, Note_on_c, 0, 64, 0
3, 116640, Note_on_c, 0, 57, 67
3, 116640, Note_on_c, 0, 69, 67
3, 116880, Note_on_c, 0, 69, 0
3, 116880, Note_on_c, 0, 57, 0
3, 117120, Note_on_c, 0, 66, 67
3, 117120, Note_on_c, 0, 78, 67
3, 118560, Note_on_c, 0, 78, 0
3, 118560, Note_on_c, 0, 66, 0
3, 118560, Note_on_c, 0, 59, 67
3, 118560, Note_on_c, 0, 71, 67
3, 118800, Note_on_c, 0, 71, 0
3, 118800, Note_on_c, 0, 59, 0
3, 119040, Note_on_c, 0, 67, 67
3, 119040, Note_on_c, 0, 79, 67
3, 119520, Note_on_c, 0, 79, 0
3, 119520, Note_on_c, 0, 67, 0
3, 119520, Note_on_c, 0, 69, 80
3, 119520, Note_on_c, 0, 81, 80
3, 120480, Note_on_c, 0, 81, 0
3, 120480, Note_on_c, 0, 69, 0
3, 120480, Note_on_c, 0, 71, 80
3, 120480, Note_on_c, 0, 83, 80
3, 121440, Note_on_c, 0, 83, 0
3, 121440, Note_on_c, 0, 71, 0
3, 121440, Note_on_c, 0, 72, 80
3, 121440, Note_on_c, 0, 84, 80
3, 121920, Note_on_c, 0, 84, 0
3, 121920, Note_on_c, 0, 72, 0
3, 121920, Note_on_c, 0, 66, 80
3, 121920, Note_on_c, 0, 75, 80
3, 122160, Note_on_c, 0, 75, 0
3, 122160, Note_on_c, 0, 66, 0
3, 122400, Note_on_c, 0, 71, 93
3, 122400, Note_on_c, 0, 75, 93
3, 122400, Note_on_c, 0, 78, 93
3, 122400, Note_on_c, 0, 83, 93
3, 122447, Note_on_c, 0, 83, 0
3, 122447, Note_on_c, 0, 71, 0
3, 122447, Note_on_c, 0, 75, 0
3, 122447, Note_on_c, 0, 78, 0
3, 122880, Note_on_c, 0, 63, 93
3, 122880, Note_on_c, 0, 71, 93
3, 122927, Note_on_c, 0, 71, 0
3, 122927, Note_on_c, 0, 63, 0
3, 123360, Note_on_c, 0, 63, 93
3, 123360, Note_on_c, 0, 71, 93
3, 123391, Note_on_c, 0, 71, 0
3, 123391, Note_on_c, 0, 63, 0
3, 123519, Note_on_c, 0, 63, 93
3, 123519, Note_on_c, 0, 71, 93
3, 123551, Note_on_c, 0, 71, 0
3, 123551, Note_on_c, 0, 63, 0
3, 123680, Note_on_c, 0, 63, 93
3, 123680, Note_on_c, 0, 71, 93
3, 123712, Note_on_c, 0, 71, 0
3, 123712, Note_on_c, 0, 63, 0
3, 123840, Note_on_c, 0, 64, 93
3, 123840, Note_on_c, 0, 67, 93
3, 123887, Note_on_c, 0, 67, 0
3, 123887, Note_on_c, 0, 64, 0
3, 124320, Note_on_c, 0, 64, 93
3, 124367, Note_on_c, 0, 64, 0
3, 126180, Note_on_c, 0, 69, 93
3, 126240, Note_on_c, 0, 69, 0
3, 126240, Note_on_c, 0, 64, 80
3, 126240, Note_on_c, 0, 71, 80
3, 126287, Note_on_c, 0, 71, 0
3, 126287, Note_on_c, 0, 64, 0
3, 126660, Note_on_c, 0, 66, 80
3, 126720, Note_on_c, 0, 66, 0
3, 126720, Note_on_c, 0, 67, 80
3, 126767, Note_on_c, 0, 67, 0
3, 127140, Note_on_c, 0, 63, 80
3, 127200, Note_on_c, 0, 63, 0
3, 127200, Note_on_c, 0, 64, 80
3, 127247, Note_on_c, 0, 64, 0
3, 127680, Note_on_c, 0, 64, 80
3, 127727, Note_on_c, 0, 64, 0
3, 128160, Note_on_c, 0, 64, 80
3, 128207, Note_on_c, 0, 64, 0
3, 128640, Note_on_c, 0, 66, 80
3, 128687, Note_on_c, 0, 66, 0
3, 129060, Note_on_c, 0, 63, 80
3, 129120, Note_on_c, 0, 63, 0
3, 129120, Note_on_c, 0, 64, 93
3, 129167, Note_on_c, 0, 64, 0
3, 129540, Note_on_c, 0, 65, 93
3, 129600, Note_on_c, 0, 65, 0
3, 129600, Note_on_c, 0, 66, 93
3, 129647, Note_on_c, 0, 66, 0
3, 130020, Note_on_c, 0, 70, 93
3, 130080, Note_on_c, 0, 70, 0
3, 130080, Note_on_c, 0, 63, 93
3, 130080, Note_on_c, 0, 66, 93
3, 130080, Note_on_c, 0, 71, 93
3, 130127, Note_on_c, 0, 71, 0
3, 130127, Note_on_c, 0, 66, 0
3, 130127, Note_on_c, 0, 63, 0
3, 130560, Note_on_c, 0, 63, 93
3, 130560, Note_on_c, 0, 71, 93
3, 130607, Note_on_c, 0, 71, 0
3, 130607, Note_on_c, 0, 63, 0
3, 131040, Note_on_c, 0, 63, 93
3, 131040, Note_on_c, 0, 71, 93
3, 131071, Note_on_c, 0, 71, 0
3, 131071, Note_on_c, 0, 63, 0
3, 131199, Note_on_c, 0, 63, 93
3, 131199, Note_on_c, 0, 71, 93
3, 131231, Note_on_c, 0, 71, 0
3, 131231, Note_on_c, 0, 63, 0
3, 131360, Note_on_c, 0, 63, 93
3, 131360, Note_on_c, 0, 71, 93
3, 131392, Note_on_c, 0, 71, 0
3, 131392, Note_on_c, 0, 63, 0
3, 131520, Note_on_c, 0, 64, 93
3, 131520, Note_on_c, 0, 67, 93
3, 131567, Note_on_c, 0, 67, 0
3, 131567, Note_on_c, 0, 64, 0
3, 132000, Note_on_c, 0, 64, 93
3, 132047, Note_on_c, 0, 64, 0
3, 133680, Note_on_c, 0, 71, 80
3, 133727, Note_on_c, 0, 71, 0
3, 133920, Note_on_c, 0, 70, 80
3, 133967, Note_on_c, 0, 70, 0
3, 134160, Note_on_c, 0, 69, 80
3, 134207, Note_on_c, 0, 69, 0
3, 134400, Note_on_c, 0, 67, 80
3, 134447, Note_on_c, 0, 67, 0
3, 134640, Note_on_c, 0, 66, 80
3, 134687, Note_on_c, 0, 66, 0
3, 134880, Note_on_c, 0, 64, 80
3, 134927, Note_on_c, 0, 64, 0
3, 135120, Note_on_c, 0, 62, 80
3, 135167, Note_on_c, 0, 62, 0
3, 135300, Note_on_c, 0, 63, 80
3, 135360, Note_on_c, 0, 63, 0
3, 135360, Note_on_c, 0, 64, 80
3, 135600, Note_on_c, 0, 64, 0
3, 135840, Note_on_c, 0, 64, 80
3, 135887, Note_on_c, 0, 64, 0
3, 136080, Note_on_c, 0, 67, 80
3, 136127, Note_on_c, 0, 67, 0
3, 136320, Note_on_c, 0, 62, 80
3, 136320, Note_on_c, 0, 66, 80
3, 136367, Note_on_c, 0, 66, 0
3, 136367, Note_on_c, 0, 62, 0
3, 136560, Note_on_c, 0, 64, 80
3, 136607, Note_on_c, 0, 64, 0
3, 136800, Note_on_c, 0, 62, 93
3, 136847, Note_on_c, 0, 62, 0
3, 137040, Note_on_c, 0, 60, 93
3, 137087, Note_on_c, 0, 60, 0
3, 137280, Note_on_c, 0, 62, 93
3, 137280, Note_on_c, 0, 66, 93
3, 137280, Note_on_c, 0, 74, 93
3, 137520, Note_on_c, 0, 74, 0
3, 137520, Note_on_c, 0, 66, 0
3, 137520, Note_on_c, 0, 62, 0
3, 137760, Note_on_c, 0, 57, 80
3, 137760, Note_on_c, 0, 60, 80
3, 137760, Note_on_c, 0, 62, 80
3, 137791, Note_on_c, 0, 62, 0
3, 137791, Note_on_c, 0, 60, 0
3, 137791, Note_on_c, 0, 57, 0
3, 137919, Note_on_c, 0, 57, 80
3, 137919, Note_on_c, 0, 60, 80
3, 137919, Note_on_c, 0, 62, 80
3, 137951, Note_on_c, 0, 62, 0
3, 137951, Note_on_c, 0, 60, 0
3, 137951, Note_on_c, 0, 57, 0
3, 138080, Note_on_c, 0, 57, 80
3, 138080, Note_on_c, 0, 60, 80
3, 138080, Note_on_c, 0, 62, 80
3, 138112, Note_on_c, 0, 62, 0
3, 138112, Note_on_c, 0, 60, 0
3, 138112, Note_on_c, 0, 57, 0
3, 138240, Note_on_c, 0, 59, 80
3, 138240, Note_on_c, 0, 62, 80
3, 138240, Note_on_c, 0, 66, 80
3, 138480, Note_on_c, 0, 66, 0
3, 138480, Note_on_c, 0, 62, 0
3, 138480, Note_on_c, 0, 59, 0
3, 139200, Control_c, 0, 64, 127
3, 139200, Note_on_c, 0, 61, 119
3, 139320, Note_on_c, 0, 61, 0
3, 139320, Note_on_c, 0, 62, 93
3, 139440, Note_on_c, 0, 62, 0
3, 139440, Note_on_c, 0, 64, 93
3, 139560, Note_on_c, 0, 64, 0
3, 139560, Note_on_c, 0, 66, 93
3, 139680, Note_on_c, 0, 66, 0
3, 139680, Control_c, 0, 64, 0
3, 139680, Note_on_c, 0, 67, 93
3, 139727, Note_on_c, 0, 67, 0
3, 140160, Control_c, 0, 64, 127
3, 140160, Note_on_c, 0, 80, 93
3, 140280, Note_on_c, 0, 80, 0
3, 140280, Note_on_c, 0, 82, 93
3, 140400, Note_on_c, 0, 82, 0
3, 140400, Note_on_c, 0, 83, 93
3, 140520, Note_on_c, 0, 83, 0
3, 140520, Note_on_c, 0, 85, 93
3, 140640, Note_on_c, 0, 85, 0
3, 140640, Control_c, 0, 64, 0
3, 140640, Note_on_c, 0, 86, 119
3, 140687, Note_on_c, 0, 86, 0
3, 141600, Control_c, 0, 64, 127
3, 141600, Note_on_c, 0, 79, 106
3, 141720, Note_on_c, 0, 79, 0
3, 141720, Note_on_c, 0, 76, 106
3, 141840, Note_on_c, 0, 76, 0
3, 141840, Note_on_c, 0, 71, 106
3, 141960, Note_on_c, 0, 71, 0
3, 141960, Control_c, 0, 64, 0
3, 141960, Note_on_c, 0, 67, 106
3, 142080, Note_on_c, 0, 67, 0
3, 143040, Control_c, 0, 64, 127
3, 143040, Note_on_c, 0, 61, 119
3, 143160, Note_on_c, 0, 61, 0
3, 143160, Note_on_c, 0, 62, 93
3, 143280, Note_on_c, 0, 62, 0
3, 143280, Note_on_c, 0, 64, 93
3, 143400, Note_on_c, 0, 64, 0
3, 143400, Note_on_c, 0, 66, 93
3, 143520, Note_on_c, 0, 66, 0
3, 143520, Control_c, 0, 64, 0
3, 143520, Note_on_c, 0, 67, 93
3, 143567, Note_on_c, 0, 67, 0
3, 144000, Control_c, 0, 64, 127
3, 144000, Note_on_c, 0, 80, 93
3, 144120, Note_on_c, 0, 80, 0
3, 144120, Note_on_c, 0, 82, 93
3, 144240, Note_on_c, 0, 82, 0
3, 144240, Note_on_c, 0, 83, 93
3, 144360, Note_on_c, 0, 83, 0
3, 144360, Note_on_c, 0, 85, 93
3, 144480, Note_on_c, 0, 85, 0
3, 144480, Control_c, 0, 64, 0
3, 144480, Note_on_c, 0, 86, 119
3, 144527, Note_on_c, 0, 86, 0
3, 145440, Control_c, 0, 64, 127
3, 145440, Note_on_c, 0, 79, 106
3, 145560, Note_on_c, 0, 79, 0
3, 145560, Note_on_c, 0, 76, 106
3, 145680, Note_on_c, 0, 76, 0
3, 145680, Note_on_c, 0, 71, 106
3, 145800, Note_on_c, 0, 71, 0
3, 145800, Control_c, 0, 64, 0
3, 145800, Note_on_c, 0, 67, 106
3, 145920, Note_on_c, 0, 67, 0
3, 145920, Note_on_c, 0, 64, 67
3, 145920, Note_on_c, 0, 76, 67
3, 147360, Note_on_c, 0, 76, 0
3, 147360, Note_on_c, 0, 64, 0
3, 147360, Note_on_c, 0, 57, 67
3, 147360, Note_on_c, 0, 69, 67
3, 147600, Note_on_c, 0, 69, 0
3, 147600, Note_on_c, 0, 57, 0
3, 147840, Note_on_c, 0, 66, 67
3, 147840, Note_on_c, 0, 78, 67
3, 149280, Note_on_c, 0, 78, 0
3, 149280, Note_on_c, 0, 66, 0
3, 149280, Note_on_c, 0, 59, 67
3, 149280, Note_on_c, 0, 71, 67
3, 149520, Note_on_c, 0, 71, 0
3, 149520, Note_on_c, 0, 59, 0
3, 149760, Note_on_c, 0, 67, 67
3, 149760, Note_on_c, 0, 79, 67
3, 150240, Note_on_c, 0, 79, 0
3, 150240, Note_on_c, 0, 67, 0
3, 150240, Note_on_c, 0, 69, 80
3, 150240, Note_on_c, 0, 81, 80
3, 151680, Note_on_c, 0, 81, 0
3, 151680, Note_on_c, 0, 69, 0
3, 151680, Note_on_c, 0, 74, 80
3, 151680, Note_on_c, 0, 86, 80
3, 152160, Note_on_c, 0, 86, 0
3, 152160, Note_on_c, 0, 74, 0
3, 152160, Note_on_c, 0, 72, 80
3, 152160, Note_on_c, 0, 84, 80
3, 152640, Note_on_c, 0, 84, 0
3, 152640, Note_on_c, 0, 72, 0
3, 152640, Note_on_c, 0, 71, 80
3, 152640, Note_on_c, 0, 79, 80
3, 152880, Note_on_c, 0, 79, 0
3, 152880, Note_on_c, 0, 71, 0
3, 153120, Note_on_c, 0, 62, 127
3, 153120, Note_on_c, 0, 67, 127
3, 153216, Note_on_c, 0, 67, 0
3, 153216, Note_on_c, 0, 62, 0
3, 153216, End_track
4, 0, Start_track
4, 0, Title_t, "Grand Piano"
4, 0, Program_c, 0, 0
4, 0, Control_c, 0, 7, 115
4, 0, Control_c, 0, 10, 41
4, 960, Note_on_c, 0, 64, 54
4, 1007, Note_on_c, 0, 64, 0
4, 1440, Note_on_c, 0, 64, 54
4, 1487, Note_on_c, 0, 64, 0
4, 1920, Note_on_c, 0, 59, 54
4, 1920, Note_on_c, 0, 62, 54
4, 1967, Note_on_c, 0, 62, 0
4, 1967, Note_on_c, 0, 59, 0
4, 2880, Note_on_c, 0, 64, 80
4, 3840, Note_on_c, 0, 64, 0
4, 4800, Note_on_c, 0, 64, 54
4, 4847, Note_on_c, 0, 64, 0
4, 5280, Note_on_c, 0, 64, 54
4, 5327, Note_on_c, 0, 64, 0
4, 5760, Note_on_c, 0, 59, 54
4, 5760, Note_on_c, 0, 62, 54
4, 5807, Note_on_c, 0, 62, 0
4, 5807, Note_on_c, 0, 59, 0
4, 6720, Note_on_c, 0, 64, 80
4, 7680, Note_on_c, 0, 64, 0
4, 7680, Note_on_c, 0, 45, 54
4, 7727, Note_on_c, 0, 45, 0
4, 7920, Note_on_c, 0, 44, 54
4, 7967, Note_on_c, 0, 44, 0
4, 8160, Note_on_c, 0, 45, 54
4, 8207, Note_on_c, 0, 45, 0
4, 8400, Note_on_c, 0, 47, 54
4, 8447, Note_on_c, 0, 47, 0
4, 8640, Note_on_c, 0, 48, 54
4, 8687, Note_on_c, 0, 48, 0
4, 8880, Note_on_c, 0, 49, 54
4, 8927, Note_on_c, 0, 49, 0
4, 9120, Note_on_c, 0, 50, 54
4, 9167, Note_on_c, 0, 50, 0
4, 9360, Note_on_c, 0, 42, 54
4, 9407, Note_on_c, 0, 42, 0
4, 9600, Note_on_c, 0, 43, 54
4, 9647, Note_on_c, 0, 43, 0
4, 9840, Note_on_c, 0, 42, 54
4, 9887, Note_on_c, 0, 42, 0
4, 10080, Note_on_c, 0, 43, 54
4, 10127, Note_on_c, 0, 43, 0
4, 10320, Note_on_c, 0, 45, 54
4, 10367, Note_on_c, 0, 45, 0
4, 10560, Note_on_c, 0, 46, 54
4, 10607, Note_on_c, 0, 46, 0
4, 10800, Note_on_c, 0, 47, 54
4, 10847, Note_on_c, 0, 47, 0
4, 11040, Note_on_c, 0, 48, 54
4, 11087, Note_on_c, 0, 48, 0
4, 11280, Note_on_c, 0, 40, 54
4, 11327, Note_on_c, 0, 40, 0
4, 11520, Note_on_c, 0, 45, 54
4, 11567, Note_on_c, 0, 45, 0
4, 11760, Note_on_c, 0, 46, 54
4, 11807, Note_on_c, 0, 46, 0
4, 12000, Note_on_c, 0, 47, 54
4, 12047, Note_on_c, 0, 47, 0
4, 12240, Note_on_c, 0, 48, 54
4, 12287, Note_on_c, 0, 48, 0
4, 12480, Note_on_c, 0, 49, 67
4, 12527, Note_on_c, 0, 49, 0
4, 12720, Note_on_c, 0, 51, 67
4, 12767, Note_on_c, 0, 51, 0
4, 12960, Note_on_c, 0, 52, 67
4, 13007, Note_on_c, 0, 52, 0
4, 13200, Note_on_c, 0, 55, 67
4, 13247, Note_on_c, 0, 55, 0
4, 13440, Note_on_c, 0, 57, 80
4, 13487, Note_on_c, 0, 57, 0
4, 13680, Note_on_c, 0, 59, 80
4, 13727, Note_on_c, 0, 59, 0
4, 13920, Note_on_c, 0, 60, 80
4, 13967, Note_on_c, 0, 60, 0
4, 14160, Note_on_c, 0, 61, 80
4, 14207, Note_on_c, 0, 61, 0
4, 14400, Note_on_c, 0, 62, 80
4, 14447, Note_on_c, 0, 62, 0
4, 14880, Note_on_c, 0, 57, 93
4, 14880, Note_on_c, 0, 62, 93
4, 14880, Note_on_c, 0, 66, 93
4, 14880, Note_on_c, 0, 69, 93
4, 14927, Note_on_c, 0, 69, 0
4, 14927, Note_on_c, 0, 57, 0
4, 14927, Note_on_c, 0, 62, 0
4, 14927, Note_on_c, 0, 66, 0
4, 16320, Note_on_c, 0, 64, 54
4, 16367, Note_on_c, 0, 64, 0
4, 16800, Note_on_c, 0, 64, 54
4, 16847, Note_on_c, 0, 64, 0
4, 17280, Note_on_c, 0, 59, 54
4, 17280, Note_on_c, 0, 62, 54
4, 17327, Note_on_c, 0, 62, 0
4, 17327, Note_on_c, 0, 59, 0
4, 18240, Note_on_c, 0, 64, 80
4, 19200, Note_on_c, 0, 64, 0
4, 20160, Note_on_c, 0, 64, 54
4, 20207, Note_on_c, 0, 64, 0
4, 20640, Note_on_c, 0, 64, 54
4, 20687, Note_on_c, 0, 64, 0
4, 21120, Note_on_c, 0, 59, 54
4, 21120, Note_on_c, 0, 62, 54
4, 21167, Note_on_c, 0, 62, 0
4, 21167, Note_on_c, 0, 59, 0
4, 22080, Note_on_c, 0, 64, 80
4, 23040, Note_on_c, 0, 64, 0
4, 23040, Note_on_c, 0, 45, 54
4, 23087, Note_on_c, 0, 45, 0
4, 23280, Note_on_c, 0, 44, 54
4, 23327, Note_on_c, 0, 44, 0
4, 23520, Note_on_c, 0, 45, 54
4, 23567, Note_on_c, 0, 45, 0
4, 23760, Note_on_c, 0, 47, 54
4, 23807, Note_on_c, 0, 47, 0
4, 24000, Note_on_c, 0, 48, 54
4, 24047, Note_on_c, 0, 48, 0
4, 24240, Note_on_c, 0, 49, 54
4, 24287, Note_on_c, 0, 49, 0
4, 24480, Note_on_c, 0, 50, 54
4, 24527, Note_on_c, 0, 50, 0
4, 24720, Note_on_c, 0, 48, 54
4, 24767, Note_on_c, 0, 48, 0
4, 24960, Note_on_c, 0, 47, 67
4, 25007, Note_on_c, 0, 47, 0
4, 25200, Note_on_c, 0, 46, 67
4, 25247, Note_on_c, 0, 46, 0
4, 25440, Note_on_c, 0, 47, 67
4, 25487, Note_on_c, 0, 47, 0
4, 25680, Note_on_c, 0, 48, 67
4, 25727, Note_on_c, 0, 48, 0
4, 25920, Note_on_c, 0, 50, 67
4, 25967, Note_on_c, 0, 50, 0
4, 26160, Note_on_c, 0, 51, 67
4, 26207, Note_on_c, 0, 51, 0
4, 26400, Note_on_c, 0, 52, 67
4, 26447, Note_on_c, 0, 52, 0
4, 26640, Note_on_c, 0, 50, 67
4, 26687, Note_on_c, 0, 50, 0
4, 26880, Note_on_c, 0, 48, 67
4, 26927, Note_on_c, 0, 48, 0
4, 27120, Note_on_c, 0, 47, 67
4, 27167, Note_on_c, 0, 47, 0
4, 27360, Note_on_c, 0, 45, 67
4, 27407, Note_on_c, 0, 45, 0
4, 27600, Note_on_c, 0, 48, 67
4, 27647, Note_on_c, 0, 48, 0
4, 27840, Note_on_c, 0, 50, 80
4, 27887, Note_on_c, 0, 50, 0
4, 28080, Note_on_c, 0, 48, 80
4, 28127, Note_on_c, 0, 48, 0
4, 28320, Note_on_c, 0, 47, 80
4, 28367, Note_on_c, 0, 47, 0
4, 28560, Note_on_c, 0, 50, 80
4, 28607, Note_on_c, 0, 50, 0
4, 28800, Note_on_c, 0, 52, 93
4, 28847, Note_on_c, 0, 52, 0
4, 29040, Note_on_c, 0, 55, 93
4, 29087, Note_on_c, 0, 55, 0
4, 29280, Note_on_c, 0, 57, 93
4, 29327, Note_on_c, 0, 57, 0
4, 29520, Note_on_c, 0, 58, 93
4, 29567, Note_on_c, 0, 58, 0
4, 29760, Note_on_c, 0, 59, 93
4, 29807, Note_on_c, 0, 59, 0
4, 30240, Note_on_c, 0, 54, 93
4, 30240, Note_on_c, 0, 59, 93
4, 30240, Note_on_c, 0, 63, 93
4, 30240, Note_on_c, 0, 66, 93
4, 30287, Note_on_c, 0, 66, 0
4, 30287, Note_on_c, 0, 54, 0
4, 30287, Note_on_c, 0, 59, 0
4, 30287, Note_on_c, 0, 63, 0
4, 30720, Note_on_c, 0, 54, 93
4, 30720, Note_on_c, 0, 59, 93
4, 30767, Note_on_c, 0, 59, 0
4, 30767, Note_on_c, 0, 54, 0
4, 31200, Note_on_c, 0, 54, 93
4, 31200, Note_on_c, 0, 59, 93
4, 31231, Note_on_c, 0, 59, 0
4, 31231, Note_on_c, 0, 54, 0
4, 31359, Note_on_c, 0, 54, 93
4, 31359, Note_on_c, 0, 59, 93
4, 31391, Note_on_c, 0, 59, 0
4, 31391, Note_on_c, 0, 54, 0
4, 31520, Note_on_c, 0, 54, 93
4, 31520, Note_on_c, 0, 59, 93
4, 31552, Note_on_c, 0, 59, 0
4, 31552, Note_on_c, 0, 54, 0
4, 31680, Note_on_c, 0, 52, 93
4, 31680, Note_on_c, 0, 59, 93
4, 31727, Note_on_c, 0, 59, 0
4, 31727, Note_on_c, 0, 52, 0
4, 32160, Note_on_c, 0, 55, 93
4, 32160, Note_on_c, 0, 57, 93
4, 32207, Note_on_c, 0, 57, 0
4, 32207, Note_on_c, 0, 55, 0
4, 32640, Note_on_c, 0, 52, 93
4, 32640, Note_on_c, 0, 55, 93
4, 32640, Note_on_c, 0, 60, 93
4, 32687, Note_on_c, 0, 60, 0
4, 32687, Note_on_c, 0, 55, 0
4, 32687, Note_on_c, 0, 52, 0
4, 33120, Note_on_c, 0, 52, 93
4, 33120, Note_on_c, 0, 57, 93
4, 33167, Note_on_c, 0, 57, 0
4, 33167, Note_on_c, 0, 52, 0
4, 33600, Note_on_c, 0, 47, 80
4, 33647, Note_on_c, 0, 47, 0
4, 33840, Note_on_c, 0, 47, 80
4, 33840, Note_on_c, 0, 59, 80
4, 33887, Note_on_c, 0, 59, 0
4, 33887, Note_on_c, 0, 47, 0
4, 34080, Note_on_c, 0, 49, 80
4, 34080, Note_on_c, 0, 61, 80
4, 34127, Note_on_c, 0, 61, 0
4, 34127, Note_on_c, 0, 49, 0
4, 34320, Note_on_c, 0, 51, 80
4, 34320, Note_on_c, 0, 63, 80
4, 34367, Note_on_c, 0, 63, 0
4, 34367, Note_on_c, 0, 51, 0
4, 34560, Note_on_c, 0, 52, 80
4, 34560, Note_on_c, 0, 64, 80
4, 34607, Note_on_c, 0, 64, 0
4, 34607, Note_on_c, 0, 52, 0
4, 34800, Note_on_c, 0, 54, 80
4, 34847, Note_on_c, 0, 54, 0
4, 35040, Note_on_c, 0, 55, 80
4, 35087, Note_on_c, 0, 55, 0
4, 35280, Note_on_c, 0, 56, 80
4, 35327, Note_on_c, 0, 56, 0
4, 35520, Note_on_c, 0, 57, 80
4, 35567, Note_on_c, 0, 57, 0
4, 35760, Note_on_c, 0, 59, 80
4, 35807, Note_on_c, 0, 59, 0
4, 36000, Note_on_c, 0, 60, 80
4, 36047, Note_on_c, 0, 60, 0
4, 36240, Note_on_c, 0, 59, 80
4, 36287, Note_on_c, 0, 59, 0
4, 36480, Note_on_c, 0, 57, 80
4, 36527, Note_on_c, 0, 57, 0
4, 36720, Note_on_c, 0, 55, 80
4, 36767, Note_on_c, 0, 55, 0
4, 36960, Note_on_c, 0, 54, 93
4, 37007, Note_on_c, 0, 54, 0
4, 37200, Note_on_c, 0, 52, 93
4, 37247, Note_on_c, 0, 52, 0
4, 37440, Note_on_c, 0, 51, 93
4, 37487, Note_on_c, 0, 51, 0
4, 37680, Note_on_c, 0, 49, 93
4, 37727, Note_on_c, 0, 49, 0
4, 37920, Note_on_c, 0, 47, 93
4, 37967, Note_on_c, 0, 47, 0
4, 38400, Note_on_c, 0, 54, 93
4, 38400, Note_on_c, 0, 59, 93
4, 38447, Note_on_c, 0, 59, 0
4, 38447, Note_on_c, 0, 54, 0
4, 38880, Note_on_c, 0, 54, 93
4, 38880, Note_on_c, 0, 59, 93
4, 38911, Note_on_c, 0, 59, 0
4, 38911, Note_on_c, 0, 54, 0
4, 39039, Note_on_c, 0, 54, 93
4, 39039, Note_on_c, 0, 59, 93
4, 39071, Note_on_c, 0, 59, 0
4, 39071, Note_on_c, 0, 54, 0
4, 39200, Note_on_c, 0, 54, 93
4, 39200, Note_on_c, 0, 59, 93
4, 39232, Note_on_c, 0, 59, 0
4, 39232, Note_on_c, 0, 54, 0
4, 39360, Note_on_c, 0, 52, 93
4, 39360, Note_on_c, 0, 59, 93
4, 39407, Note_on_c, 0, 59, 0
4, 39407, Note_on_c, 0, 52, 0
4, 39840, Note_on_c, 0, 55, 93
4, 39840, Note_on_c, 0, 57, 93
4, 39887, Note_on_c, 0, 57, 0
4, 39887, Note_on_c, 0, 55, 0
4, 40320, Note_on_c, 0, 52, 93
4, 40320, Note_on_c, 0, 55, 93
4, 40320, Note_on_c, 0, 60, 93
4, 40367, Note_on_c, 0, 60, 0
4, 40367, Note_on_c, 0, 55, 0
4, 40367, Note_on_c, 0, 52, 0
4, 40800, Note_on_c, 0, 52, 93
4, 40800, Note_on_c, 0, 57, 93
4, 40847, Note_on_c, 0, 57, 0
4, 40847, Note_on_c, 0, 52, 0
4, 41280, Note_on_c, 0, 54, 119
4, 41700, Note_on_c, 0, 49, 80
4, 41760, Note_on_c, 0, 49, 0
4, 41760, Note_on_c, 0, 54, 0
4, 41760, Note_on_c, 0, 51, 80
4, 41807, Note_on_c, 0, 51, 0
4, 42180, Note_on_c, 0, 51, 80
4, 42240, Note_on_c, 0, 51, 0
4, 42240, Note_on_c, 0, 52, 80
4, 42287, Note_on_c, 0, 52, 0
4, 42660, Note_on_c, 0, 58, 80
4, 42720, Note_on_c, 0, 58, 0
4, 42720, Note_on_c, 0, 52, 80
4, 42720, Note_on_c, 0, 59, 80
4, 42767, Note_on_c, 0, 59, 0
4, 42767, Note_on_c, 0, 52, 0
4, 43200, Note_on_c, 0, 54, 80
4, 43200, Note_on_c, 0, 57, 80
4, 43200, Note_on_c, 0, 60, 80
4, 43247, Note_on_c, 0, 60, 0
4, 43247, Note_on_c, 0, 57, 0
4, 43247, Note_on_c, 0, 54, 0
4, 43440, Note_on_c, 0, 59, 80
4, 43487, Note_on_c, 0, 59, 0
4, 43680, Note_on_c, 0, 57, 80
4, 43727, Note_on_c, 0, 57, 0
4, 43920, Note_on_c, 0, 55, 80
4, 43967, Note_on_c, 0, 55, 0
4, 44160, Note_on_c, 0, 54, 80
4, 44160, Note_on_c, 0, 57, 80
4, 44207, Note_on_c, 0, 57, 0
4, 44207, Note_on_c, 0, 54, 0
4, 44400, Note_on_c, 0, 52, 80
4, 44447, Note_on_c, 0, 52, 0
4, 44640, Note_on_c, 0, 50, 80
4, 44640, Note_on_c, 0, 54, 80
4, 44687, Note_on_c, 0, 54, 0
4, 44687, Note_on_c, 0, 50, 0
4, 44880, Note_on_c, 0, 48, 80
4, 44927, Note_on_c, 0, 48, 0
4, 45120, Note_on_c, 0, 59, 93
4, 45167, Note_on_c, 0, 59, 0
4, 45360, Note_on_c, 0, 57, 93
4, 45407, Note_on_c, 0, 57, 0
4, 45600, Note_on_c, 0, 55, 93
4, 45647, Note_on_c, 0, 55, 0
4, 45840, Note_on_c, 0, 54, 93
4, 45887, Note_on_c, 0, 54, 0
4, 46080, Note_on_c, 0, 55, 93
4, 46127, Note_on_c, 0, 55, 0
4, 47040, Note_on_c, 0, 64, 54
4, 47087, Note_on_c, 0, 64, 0
4, 47520, Note_on_c, 0, 64, 54
4, 47567, Note_on_c, 0, 64, 0
4, 48000, Note_on_c, 0, 59, 54
4, 48000, Note_on_c, 0, 62, 54
4, 48047, Note_on_c, 0, 62, 0
4, 48047, Note_on_c, 0, 59, 0
4, 48960, Note_on_c, 0, 64, 80
4, 49920, Note_on_c, 0, 64, 0
4, 50880, Note_on_c, 0, 64, 54
4, 50927, Note_on_c, 0, 64, 0
4, 51360, Note_on_c, 0, 64, 54
4, 51407, Note_on_c, 0, 64, 0
4, 51840, Note_on_c, 0, 59, 54
4, 51840, Note_on_c, 0, 62, 54
4, 51887, Note_on_c, 0, 62, 0
4, 51887, Note_on_c, 0, 59, 0
4, 52800, Note_on_c, 0, 64, 80
4, 53760, Note_on_c, 0, 64, 0
4, 53760, Note_on_c, 0, 45, 54
4, 53807, Note_on_c, 0, 45, 0
4, 54000, Note_on_c, 0, 44, 54
4, 54047, Note_on_c, 0, 44, 0
4, 54240, Note_on_c, 0, 45, 54
4, 54287, Note_on_c, 0, 45, 0
4, 54480, Note_on_c, 0, 47, 54
4, 54527, Note_on_c, 0, 47, 0
4, 54720, Note_on_c, 0, 48, 54
4, 54767, Note_on_c, 0, 48, 0
4, 54960, Note_on_c, 0, 49, 54
4, 55007, Note_on_c, 0, 49, 0
4, 55200, Note_on_c, 0, 50, 54
4, 55247, Note_on_c, 0, 50, 0
4, 55440, Note_on_c, 0, 42, 54
4, 55487, Note_on_c, 0, 42, 0
4, 55680, Note_on_c, 0, 43, 54
4, 55727, Note_on_c, 0, 43, 0
4, 55920, Note_on_c, 0, 42, 54
4, 55967, Note_on_c, 0, 42, 0
4, 56160, Note_on_c, 0, 43, 54
4, 56207, Note_on_c, 0, 43, 0
4, 56400, Note_on_c, 0, 45, 54
4, 56447, Note_on_c, 0, 45, 0
4, 56640, Note_on_c, 0, 46, 54
4, 56687, Note_on_c, 0, 46, 0
4, 56880, Note_on_c, 0, 47, 54
4, 56927, Note_on_c, 0, 47, 0
4, 57120, Note_on_c, 0, 48, 54
4, 57167, Note_on_c, 0, 48, 0
4, 57360, Note_on_c, 0, 40, 54
4, 57407, Note_on_c, 0, 40, 0
4, 57600, Note_on_c, 0, 45, 54
4, 57647, Note_on_c, 0, 45, 0
4, 57840, Note_on_c, 0, 46, 54
4, 57887, Note_on_c, 0, 46, 0
4, 58080, Note_on_c, 0, 47, 54
4, 58127, Note_on_c, 0, 47, 0
4, 58320, Note_on_c, 0, 48, 54
4, 58367, Note_on_c, 0, 48, 0
4, 58560, Note_on_c, 0, 49, 67
4, 58607, Note_on_c, 0, 49, 0
4, 58800, Note_on_c, 0, 51, 67
4, 58847, Note_on_c, 0, 51, 0
4, 59040, Note_on_c, 0, 52, 67
4, 59087, Note_on_c, 0, 52, 0
4, 59280, Note_on_c, 0, 55, 67
4, 59327, Note_on_c, 0, 55, 0
4, 59520, Note_on_c, 0, 57, 80
4, 59567, Note_on_c, 0, 57, 0
4, 59760, Note_on_c, 0, 59, 80
4, 59807, Note_on_c, 0, 59, 0
4, 60000, Note_on_c, 0, 60, 80
4, 60047, Note_on_c, 0, 60, 0
4, 60240, Note_on_c, 0, 61, 80
4, 60287, Note_on_c, 0, 61, 0
4, 60480, Note_on_c, 0, 62, 80
4, 60527, Note_on_c, 0, 62, 0
4, 60960, Note_on_c, 0, 57, 93
4, 60960, Note_on_c, 0, 62, 93
4, 60960, Note_on_c, 0, 66, 93
4, 60960, Note_on_c, 0, 69, 93
4, 61007, Note_on_c, 0, 69, 0
4, 61007, Note_on_c, 0, 57, 0
4, 61007, Note_on_c, 0, 62, 0
4, 61007, Note_on_c, 0, 66, 0
4, 62400, Note_on_c, 0, 64, 54
4, 62447, Note_on_c, 0, 64, 0
4, 62880, Note_on_c, 0, 64, 54
4, 62927, Note_on_c, 0, 64, 0
4, 63360, Note_on_c, 0, 59, 54
4, 63360, Note_on_c, 0, 62, 54
4, 63407, Note_on_c, 0, 62, 0
4, 63407, Note_on_c, 0, 59, 0
4, 64320, Note_on_c, 0, 64, 80
4, 65280, Note_on_c, 0, 64, 0
4, 66240, Note_on_c, 0, 64, 54
4, 66287, Note_on_c, 0, 64, 0
4, 66720, Note_on_c, 0, 64, 54
4, 66767, Note_on_c, 0, 64, 0
4, 67200, Note_on_c, 0, 59, 54
4, 67200, Note_on_c, 0, 62, 54
4, 67247, Note_on_c, 0, 62, 0
4, 67247, Note_on_c, 0, 59, 0
4, 68160, Note_on_c, 0, 64, 80
4, 69120, Note_on_c, 0, 64, 0
4, 69120, Note_on_c, 0, 45, 54
4, 69167, Note_on_c, 0, 45, 0
4, 69360, Note_on_c, 0, 44, 54
4, 69407, Note_on_c, 0, 44, 0
4, 69600, Note_on_c, 0, 45, 54
4, 69647, Note_on_c, 0, 45, 0
4, 69840, Note_on_c, 0, 47, 54
4, 69887, Note_on_c, 0, 47, 0
4, 70080, Note_on_c, 0, 48, 54
4, 70127, Note_on_c, 0, 48, 0
4, 70320, Note_on_c, 0, 49, 54
4, 70367, Note_on_c, 0, 49, 0
4, 70560, Note_on_c, 0, 50, 54
4, 70607, Note_on_c, 0, 50, 0
4, 70800, Note_on_c, 0, 48, 54
4, 70847, Note_on_c, 0, 48, 0
4, 71040, Note_on_c, 0, 47, 67
4, 71087, Note_on_c, 0, 47, 0
4, 71280, Note_on_c, 0, 46, 67
4, 71327, Note_on_c, 0, 46, 0
4, 71520, Note_on_c, 0, 47, 67
4, 71567, Note_on_c, 0, 47, 0
4, 71760, Note_on_c, 0, 48, 67
4, 71807, Note_on_c, 0, 48, 0
4, 72000, Note_on_c, 0, 50, 67
4, 72047, Note_on_c, 0, 50, 0
4, 72240, Note_on_c, 0, 51, 67
4, 72287, Note_on_c, 0, 51, 0
4, 72480, Note_on_c, 0, 52, 67
4, 72527, Note_on_c, 0, 52, 0
4, 72720, Note_on_c, 0, 50, 67
4, 72767, Note_on_c, 0, 50, 0
4, 72960, Note_on_c, 0, 48, 67
4, 73007, Note_on_c, 0, 48, 0
4, 73200, Note_on_c, 0, 47, 67
4, 73247, Note_on_c, 0, 47, 0
4, 73440, Note_on_c, 0, 45, 67
4, 73487, Note_on_c, 0, 45, 0
4, 73680, Note_on_c, 0, 48, 67
4, 73727, Note_on_c, 0, 48, 0
4, 73920, Note_on_c, 0, 50, 80
4, 73967, Note_on_c, 0, 50, 0
4, 74160, Note_on_c, 0, 52, 80
4, 74207, Note_on_c, 0, 52, 0
4, 74400, Note_on_c, 0, 54, 80
4, 74447, Note_on_c, 0, 54, 0
4, 74640, Note_on_c, 0, 50, 80
4, 74687, Note_on_c, 0, 50, 0
4, 74880, Note_on_c, 0, 47, 93
4, 74927, Note_on_c, 0, 47, 0
4, 75120, Note_on_c, 0, 59, 93
4, 75167, Note_on_c, 0, 59, 0
4, 75360, Note_on_c, 0, 57, 93
4, 75407, Note_on_c, 0, 57, 0
4, 75600, Note_on_c, 0, 50, 93
4, 75647, Note_on_c, 0, 50, 0
4, 75840, Note_on_c, 0, 55, 93
4, 75887, Note_on_c, 0, 55, 0
4, 76320, Note_on_c, 0, 55, 106
4, 76320, Note_on_c, 0, 59, 106
4, 76320, Note_on_c, 0, 62, 106
4, 76320, Note_on_c, 0, 67, 106
4, 76367, Note_on_c, 0, 67, 0
4, 76367, Note_on_c, 0, 55, 0
4, 76367, Note_on_c, 0, 59, 0
4, 76367, Note_on_c, 0, 62, 0
4, 76800, Note_on_c, 0, 64, 80
4, 78240, Note_on_c, 0, 64, 0
4, 78240, Note_on_c, 0, 62, 80
4, 78720, Note_on_c, 0, 62, 0
4, 78720, Note_on_c, 0, 61, 80
4, 79200, Note_on_c, 0, 61, 0
4, 79200, Note_on_c, 0, 60, 80
4, 79680, Note_on_c, 0, 60, 0
4, 79680, Note_on_c, 0, 59, 80
4, 80160, Note_on_c, 0, 57, 80
4, 80640, Note_on_c, 0, 57, 0
4, 80640, Note_on_c, 0, 59, 0
4, 80640, Note_on_c, 0, 47, 80
4, 80640, Note_on_c, 0, 55, 80
4, 80640, Note_on_c, 0, 59, 80
4, 81600, Note_on_c, 0, 59, 0
4, 81600, Note_on_c, 0, 55, 0
4, 81600, Note_on_c, 0, 47, 0
4, 81600, Note_on_c, 0, 55, 80
4, 82080, Note_on_c, 0, 55, 0
4, 82080, Note_on_c, 0, 56, 80
4, 82560, Note_on_c, 0, 56, 0
4, 82560, Note_on_c, 0, 57, 80
4, 82583, Note_on_c, 0, 57, 0
4, 82680, Note_on_c, 0, 57, 80
4, 82703, Note_on_c, 0, 57, 0
4, 82800, Note_on_c, 0, 57, 80
4, 82823, Note_on_c, 0, 57, 0
4, 82920, Note_on_c, 0, 57, 80
4, 82943, Note_on_c, 0, 57, 0
4, 83040, Note_on_c, 0, 54, 80
4, 83040, Note_on_c, 0, 57, 80
4, 83063, Note_on_c, 0, 57, 0
4, 83063, Note_on_c, 0, 54, 0
4, 83160, Note_on_c, 0, 59, 80
4, 83183, Note_on_c, 0, 59, 0
4, 83280, Note_on_c, 0, 57, 80
4, 83303, Note_on_c, 0, 57, 0
4, 83400, Note_on_c, 0, 59, 80
4, 83423, Note_on_c, 0, 59, 0
4, 83520, Note_on_c, 0, 55, 93
4, 83543, Note_on_c, 0, 55, 0
4, 83640, Note_on_c, 0, 57, 93
4, 83663, Note_on_c, 0, 57, 0
4, 83760, Note_on_c, 0, 54, 93
4, 83783, Note_on_c, 0, 54, 0
4, 83880, Note_on_c, 0, 55, 93
4, 83903, Note_on_c, 0, 55, 0
4, 84000, Note_on_c, 0, 52, 93
4, 84047, Note_on_c, 0, 52, 0
4, 84480, Note_on_c, 0, 64, 80
4, 85920, Note_on_c, 0, 64, 0
4, 85920, Note_on_c, 0, 62, 80
4, 86400, Note_on_c, 0, 62, 0
4, 86400, Note_on_c, 0, 61, 80
4, 86880, Note_on_c, 0, 61, 0
4, 86880, Note_on_c, 0, 60, 80
4, 87360, Note_on_c, 0, 60, 0
4, 87360, Note_on_c, 0, 59, 80
4, 87840, Note_on_c, 0, 57, 80
4, 88320, Note_on_c, 0, 57, 0
4, 88320, Note_on_c, 0, 59, 0
4, 88320, Note_on_c, 0, 47, 80
4, 88320, Note_on_c, 0, 55, 80
4, 88320, Note_on_c, 0, 59, 80
4, 89280, Note_on_c, 0, 59, 0
4, 89280, Note_on_c, 0, 55, 0
4, 89280, Note_on_c, 0, 47, 0
4, 89280, Note_on_c, 0, 55, 80
4, 89760, Note_on_c, 0, 55, 0
4, 89760, Note_on_c, 0, 56, 80
4, 90240, Note_on_c, 0, 56, 0
4, 90240, Note_on_c, 0, 57, 80
4, 90263, Note_on_c, 0, 57, 0
4, 90360, Note_on_c, 0, 57, 80
4, 90383, Note_on_c, 0, 57, 0
4, 90480, Note_on_c, 0, 57, 80
4, 90503, Note_on_c, 0, 57, 0
4, 90600, Note_on_c, 0, 57, 80
4, 90623, Note_on_c, 0, 57, 0
4, 90720, Note_on_c, 0, 54, 80
4, 90720, Note_on_c, 0, 57, 80
4, 90743, Note_on_c, 0, 57, 0
4, 90743, Note_on_c, 0, 54, 0
4, 90840, Note_on_c, 0, 59, 80
4, 90863, Note_on_c, 0, 59, 0
4, 90960, Note_on_c, 0, 57, 80
4, 90983, Note_on_c, 0, 57, 0
4, 91080, Note_on_c, 0, 59, 80
4, 91103, Note_on_c, 0, 59, 0
4, 91200, Note_on_c, 0, 55, 93
4, 91223, Note_on_c, 0, 55, 0
4, 91320, Note_on_c, 0, 57, 93
4, 91343, Note_on_c, 0, 57, 0
4, 91440, Note_on_c, 0, 54, 93
4, 91463, Note_on_c, 0, 54, 0
4, 91560, Note_on_c, 0, 55, 93
4, 91583, Note_on_c, 0, 55, 0
4, 91680, Note_on_c, 0, 52, 93
4, 91703, Note_on_c, 0, 52, 0
4, 91800, Note_on_c, 0, 54, 93
4, 91823, Note_on_c, 0, 54, 0
4, 91920, Note_on_c, 0, 55, 93
4, 91943, Note_on_c, 0, 55, 0
4, 92040, Note_on_c, 0, 59, 93
4, 92063, Note_on_c, 0, 59, 0
4, 92160, Note_on_c, 0, 55, 93
4, 92160, Note_on_c, 0, 59, 93
4, 92160, Note_on_c, 0, 62, 93
4, 92207, Note_on_c, 0, 62, 0
4, 92207, Note_on_c, 0, 59, 0
4, 92207, Note_on_c, 0, 55, 0
4, 92640, Control_c, 0, 64, 127
4, 92640, Note_on_c, 0, 52, 119
4, 92760, Note_on_c, 0, 52, 0
4, 92760, Note_on_c, 0, 54, 93
4, 92880, Note_on_c, 0, 54, 0
4, 92880, Note_on_c, 0, 55, 93
4, 93000, Note_on_c, 0, 55, 0
4, 93000, Note_on_c, 0, 57, 93
4, 93120, Note_on_c, 0, 57, 0
4, 93120, Control_c, 0, 64, 0
4, 93120, Note_on_c, 0, 59, 93
4, 93360, Note_on_c, 0, 59, 0
4, 93600, Note_on_c, 0, 59, 93
4, 93600, Note_on_c, 0, 64, 93
4, 93647, Note_on_c, 0, 64, 0
4, 93647, Note_on_c, 0, 59, 0
4, 94080, Note_on_c, 0, 62, 93
4, 94080, Note_on_c, 0, 66, 93
4, 94080, Note_on_c, 0, 71, 93
4, 94127, Note_on_c, 0, 71, 0
4, 94127, Note_on_c, 0, 66, 0
4, 94127, Note_on_c, 0, 62, 0
4, 94560, Note_on_c, 0, 62, 93
4, 94560, Note_on_c, 0, 67, 93
4, 94560, Note_on_c, 0, 71, 93
4, 94560, Note_on_c, 0, 74, 93
4, 94607, Note_on_c, 0, 74, 0
4, 94607, Note_on_c, 0, 62, 0
4, 94607, Note_on_c, 0, 67, 0
4, 94607, Note_on_c, 0, 71, 0
4, 95040, Note_on_c, 0, 64, 119
4, 95040, Note_on_c, 0, 67, 119
4, 95040, Note_on_c, 0, 71, 119
4, 95040, Note_on_c, 0, 76, 119
4, 95520, Note_on_c, 0, 76, 0
4, 95520, Note_on_c, 0, 64, 0
4, 95520, Note_on_c, 0, 67, 0
4, 95520, Note_on_c, 0, 71, 0
4, 96480, Control_c, 0, 64, 127
4, 96480, Note_on_c, 0, 52, 119
4, 96600, Note_on_c, 0, 52, 0
4, 96600, Note_on_c, 0, 54, 93
4, 96720, Note_on_c, 0, 54, 0
4, 96720, Note_on_c, 0, 55, 93
4, 96840, Note_on_c, 0, 55, 0
4, 96840, Note_on_c, 0, 57, 93
4, 96960, Note_on_c, 0, 57, 0
4, 96960, Control_c, 0, 64, 0
4, 96960, Note_on_c, 0, 59, 93
4, 97200, Note_on_c, 0, 59, 0
4, 97440, Note_on_c, 0, 59, 93
4, 97440, Note_on_c, 0, 64, 93
4, 97487, Note_on_c, 0, 64, 0
4, 97487, Note_on_c, 0, 59, 0
4, 97920, Note_on_c, 0, 62, 93
4, 97920, Note_on_c, 0, 66, 93
4, 97920, Note_on_c, 0, 71, 93
4, 97967, Note_on_c, 0, 71, 0
4, 97967, Note_on_c, 0, 66, 0
4, 97967, Note_on_c, 0, 62, 0
4, 98400, Note_on_c, 0, 62, 93
4, 98400, Note_on_c, 0, 67, 93
4, 98400, Note_on_c, 0, 71, 93
4, 98400, Note_on_c, 0, 74, 93
4, 98447, Note_on_c, 0, 74, 0
4, 98447, Note_on_c, 0, 62, 0
4, 98447, Note_on_c, 0, 67, 0
4, 98447, Note_on_c, 0, 71, 0
4, 98880, Note_on_c, 0, 64, 119
4, 98880, Note_on_c, 0, 67, 119
4, 98880, Note_on_c, 0, 71, 119
4, 98880, Note_on_c, 0, 76, 119
4, 99360, Note_on_c, 0, 76, 0
4, 99360, Note_on_c, 0, 64, 0
4, 99360, Note_on_c, 0, 67, 0
4, 99360, Note_on_c, 0, 71, 0
4, 99840, Note_on_c, 0, 45, 80
4, 99863, Note_on_c, 0, 45, 0
4, 99960, Note_on_c, 0, 45, 80
4, 99983, Note_on_c, 0, 45, 0
4, 100080, Note_on_c, 0, 44, 80
4, 100127, Note_on_c, 0, 44, 0
4, 100320, Note_on_c, 0, 45, 80
4, 100343, Note_on_c, 0, 45, 0
4, 100440, Note_on_c, 0, 45, 80
4, 100463, Note_on_c, 0, 45, 0
4, 100560, Note_on_c, 0, 47, 80
4, 100607, Note_on_c, 0, 47, 0
4, 100800, Note_on_c, 0, 48, 80
4, 100823, Note_on_c, 0, 48, 0
4, 100920, Note_on_c, 0, 48, 80
4, 100943, Note_on_c, 0, 48, 0
4, 101040, Note_on_c, 0, 49, 80
4, 101087, Note_on_c, 0, 49, 0
4, 101280, Note_on_c, 0, 50, 80
4, 101303, Note_on_c, 0, 50, 0
4, 101400, Note_on_c, 0, 50, 80
4, 101423, Note_on_c, 0, 50, 0
4, 101520, Note_on_c, 0, 42, 80
4, 101567, Note_on_c, 0, 42, 0
4, 101760, Note_on_c, 0, 43, 80
4, 101783, Note_on_c, 0, 43, 0
4, 101880, Note_on_c, 0, 43, 80
4, 101903, Note_on_c, 0, 43, 0
4, 102000, Note_on_c, 0, 42, 80
4, 102047, Note_on_c, 0, 42, 0
4, 102240, Note_on_c, 0, 43, 80
4, 102263, Note_on_c, 0, 43, 0
4, 102360, Note_on_c, 0, 43, 80
4, 102383, Note_on_c, 0, 43, 0
4, 102480, Note_on_c, 0, 45, 80
4, 102527, Note_on_c, 0, 45, 0
4, 102720, Note_on_c, 0, 46, 80
4, 102743, Note_on_c, 0, 46, 0
4, 102840, Note_on_c, 0, 46, 80
4, 102863, Note_on_c, 0, 46, 0
4, 102960, Note_on_c, 0, 47, 80
4, 103007, Note_on_c, 0, 47, 0
4, 103200, Note_on_c, 0, 48, 80
4, 103223, Note_on_c, 0, 48, 0
4, 103320, Note_on_c, 0, 48, 80
4, 103343, Note_on_c, 0, 48, 0
4, 103440, Note_on_c, 0, 40, 80
4, 103487, Note_on_c, 0, 40, 0
4, 103680, Note_on_c, 0, 45, 80
4, 103703, Note_on_c, 0, 45, 0
4, 103800, Note_on_c, 0, 45, 80
4, 103823, Note_on_c, 0, 45, 0
4, 103920, Note_on_c, 0, 46, 80
4, 103967, Note_on_c, 0, 46, 0
4, 104160, Note_on_c, 0, 47, 80
4, 104183, Note_on_c, 0, 47, 0
4, 104280, Note_on_c, 0, 47, 80
4, 104303, Note_on_c, 0, 47, 0
4, 104400, Note_on_c, 0, 48, 80
4, 104447, Note_on_c, 0, 48, 0
4, 104640, Note_on_c, 0, 49, 80
4, 104663, Note_on_c, 0, 49, 0
4, 104760, Note_on_c, 0, 49, 80
4, 104783, Note_on_c, 0, 49, 0
4, 104880, Note_on_c, 0, 51, 80
4, 104927, Note_on_c, 0, 51, 0
4, 105120, Note_on_c, 0, 52, 80
4, 105143, Note_on_c, 0, 52, 0
4, 105240, Note_on_c, 0, 52, 80
4, 105263, Note_on_c, 0, 52, 0
4, 105360, Note_on_c, 0, 55, 80
4, 105407, Note_on_c, 0, 55, 0
4, 105600, Note_on_c, 0, 57, 80
4, 105623, Note_on_c, 0, 57, 0
4, 105720, Note_on_c, 0, 57, 80
4, 105743, Note_on_c, 0, 57, 0
4, 105840, Note_on_c, 0, 59, 80
4, 105887, Note_on_c, 0, 59, 0
4, 106080, Note_on_c, 0, 60, 93
4, 106103, Note_on_c, 0, 60, 0
4, 106200, Note_on_c, 0, 60, 93
4, 106223, Note_on_c, 0, 60, 0
4, 106320, Note_on_c, 0, 61, 93
4, 106367, Note_on_c, 0, 61, 0
4, 106560, Note_on_c, 0, 62, 93
4, 106607, Note_on_c, 0, 62, 0
4, 107040, Note_on_c, 0, 57, 106
4, 107040, Note_on_c, 0, 62, 106
4, 107040, Note_on_c, 0, 66, 106
4, 107087, Note_on_c, 0, 66, 0
4, 107087, Note_on_c, 0, 62, 0
4, 107087, Note_on_c, 0, 57, 0
4, 107520, Note_on_c, 0, 55, 93
4, 107520, Note_on_c, 0, 59, 93
4, 107520, Note_on_c, 0, 62, 93
4, 107567, Note_on_c, 0, 62, 0
4, 107567, Note_on_c, 0, 59, 0
4, 107567, Note_on_c, 0, 55, 0
4, 108000, Control_c, 0, 64, 127
4, 108000, Note_on_c, 0, 52, 119
4, 108120, Note_on_c, 0, 52, 0
4, 108120, Note_on_c, 0, 54, 93
4, 108240, Note_on_c, 0, 54, 0
4, 108240, Note_on_c, 0, 55, 93
4, 108360, Note_on_c, 0, 55, 0
4, 108360, Note_on_c, 0, 57, 93
4, 108480, Note_on_c, 0, 57, 0
4, 108480, Control_c, 0, 64, 0
4, 108480, Note_on_c, 0, 59, 93
4, 108720, Note_on_c, 0, 59, 0
4, 108960, Note_on_c, 0, 59, 93
4, 108960, Note_on_c, 0, 64, 93
4, 109007, Note_on_c, 0, 64, 0
4, 109007, Note_on_c, 0, 59, 0
4, 109440, Note_on_c, 0, 62, 93
4, 109440, Note_on_c, 0, 66, 93
4, 109440, Note_on_c, 0, 71, 93
4, 109487, Note_on_c, 0, 71, 0
4, 109487, Note_on_c, 0, 66, 0
4, 109487, Note_on_c, 0, 62, 0
4, 109920, Note_on_c, 0, 62, 93
4, 109920, Note_on_c, 0, 67, 93
4, 109920, Note_on_c, 0, 71, 93
4, 109920, Note_on_c, 0, 74, 93
4, 109967, Note_on_c, 0, 74, 0
4, 109967, Note_on_c, 0, 62, 0
4, 109967, Note_on_c, 0, 67, 0
4, 109967, Note_on_c, 0, 71, 0
4, 110400, Note_on_c, 0, 64, 119
4, 110400, Note_on_c, 0, 67, 119
4, 110400, Note_on_c, 0, 71, 119
4, 110400, Note_on_c, 0, 76, 119
4, 110880, Note_on_c, 0, 76, 0
4, 110880, Note_on_c, 0, 64, 0
4, 110880, Note_on_c, 0, 67, 0
4, 110880, Note_on_c, 0, 71, 0
4, 111840, Control_c, 0, 64, 127
4, 111840, Note_on_c, 0, 52, 119
4, 111960, Note_on_c, 0, 52, 0
4, 111960, Note_on_c, 0, 54, 93
4, 112080, Note_on_c, 0, 54, 0
4, 112080, Note_on_c, 0, 55, 93
4, 112200, Note_on_c, 0, 55, 0
4, 112200, Note_on_c, 0, 57, 93
4, 112320, Note_on_c, 0, 57, 0
4, 112320, Control_c, 0, 64, 0
4, 112320, Note_on_c, 0, 59, 93
4, 112560, Note_on_c, 0, 59, 0
4, 112800, Note_on_c, 0, 59, 93
4, 112800, Note_on_c, 0, 64, 93
4, 112847, Note_on_c, 0, 64, 0
4, 112847, Note_on_c, 0, 59, 0
4, 113280, Note_on_c, 0, 62, 93
4, 113280, Note_on_c, 0, 66, 93
4, 113280, Note_on_c, 0, 71, 93
4, 113327, Note_on_c, 0, 71, 0
4, 113327, Note_on_c, 0, 66, 0
4, 113327, Note_on_c, 0, 62, 0
4, 113760, Note_on_c, 0, 62, 93
4, 113760, Note_on_c, 0, 67, 93
4, 113760, Note_on_c, 0, 71, 93
4, 113760, Note_on_c, 0, 74, 93
4, 113807, Note_on_c, 0, 74, 0
4, 113807, Note_on_c, 0, 62, 0
4, 113807, Note_on_c, 0, 67, 0
4, 113807, Note_on_c, 0, 71, 0
4, 114240, Note_on_c, 0, 64, 119
4, 114240, Note_on_c, 0, 67, 119
4, 114240, Note_on_c, 0, 71, 119
4, 114240, Note_on_c, 0, 76, 119
4, 114720, Note_on_c, 0, 76, 0
4, 114720, Note_on_c, 0, 64, 0
4, 114720, Note_on_c, 0, 67, 0
4, 114720, Note_on_c, 0, 71, 0
4, 115200, Note_on_c, 0, 45, 80
4, 115223, Note_on_c, 0, 45, 0
4, 115320, Note_on_c, 0, 45, 80
4, 115343, Note_on_c, 0, 45, 0
4, 115440, Note_on_c, 0, 44, 80
4, 115487, Note_on_c, 0, 44, 0
4, 115680, Note_on_c, 0, 45, 80
4, 115703, Note_on_c, 0, 45, 0
4, 115800, Note_on_c, 0, 45, 80
4, 115823, Note_on_c, 0, 45, 0
4, 115920, Note_on_c, 0, 47, 80
4, 115967, Note_on_c, 0, 47, 0
4, 116160, Note_on_c, 0, 48, 80
4, 116183, Note_on_c, 0, 48, 0
4, 116280, Note_on_c, 0, 48, 80
4, 116303, Note_on_c, 0, 48, 0
4, 116400, Note_on_c, 0, 49, 80
4, 116447, Note_on_c, 0, 49, 0
4, 116640, Note_on_c, 0, 50, 80
4, 116663, Note_on_c, 0, 50, 0
4, 116760, Note_on_c, 0, 50, 80
4, 116783, Note_on_c, 0, 50, 0
4, 116880, Note_on_c, 0, 48, 80
4, 116927, Note_on_c, 0, 48, 0
4, 117120, Note_on_c, 0, 47, 80
4, 117143, Note_on_c, 0, 47, 0
4, 117240, Note_on_c, 0, 47, 80
4, 117263, Note_on_c, 0, 47, 0
4, 117360, Note_on_c, 0, 46, 80
4, 117407, Note_on_c, 0, 46, 0
4, 117600, Note_on_c, 0, 47, 80
4, 117623, Note_on_c, 0, 47, 0
4, 117720, Note_on_c, 0, 47, 80
4, 117743, Note_on_c, 0, 47, 0
4, 117840, Note_on_c, 0, 48, 80
4, 117887, Note_on_c, 0, 48, 0
4, 118080, Note_on_c, 0, 50, 80
4, 118103, Note_on_c, 0, 50, 0
4, 118200, Note_on_c, 0, 50, 80
4, 118223, Note_on_c, 0, 50, 0
4, 118320, Note_on_c, 0, 51, 80
4, 118367, Note_on_c, 0, 51, 0
4, 118560, Note_on_c, 0, 52, 80
4, 118583, Note_on_c, 0, 52, 0
4, 118680, Note_on_c, 0, 52, 80
4, 118703, Note_on_c, 0, 52, 0
4, 118800, Note_on_c, 0, 50, 80
4, 118847, Note_on_c, 0, 50, 0
4, 119040, Note_on_c, 0, 48, 80
4, 119063, Note_on_c, 0, 48, 0
4, 119160, Note_on_c, 0, 48, 80
4, 119183, Note_on_c, 0, 48, 0
4, 119280, Note_on_c, 0, 47, 80
4, 119327, Note_on_c, 0, 47, 0
4, 119520, Note_on_c, 0, 45, 80
4, 119543, Note_on_c, 0, 45, 0
4, 119640, Note_on_c, 0, 45, 80
4, 119663, Note_on_c, 0, 45, 0
4, 119760, Note_on_c, 0, 48, 80
4, 119807, Note_on_c, 0, 48, 0
4, 120000, Note_on_c, 0, 50, 80
4, 120023, Note_on_c, 0, 50, 0
4, 120120, Note_on_c, 0, 50, 80
4, 120143, Note_on_c, 0, 50, 0
4, 120240, Note_on_c, 0, 48, 80
4, 120287, Note_on_c, 0, 48, 0
4, 120480, Note_on_c, 0, 47, 93
4, 120503, Note_on_c, 0, 47, 0
4, 120600, Note_on_c, 0, 47, 93
4, 120623, Note_on_c, 0, 47, 0
4, 120720, Note_on_c, 0, 50, 93
4, 120767, Note_on_c, 0, 50, 0
4, 120960, Note_on_c, 0, 52, 93
4, 120983, Note_on_c, 0, 52, 0
4, 121080, Note_on_c, 0, 52, 93
4, 121103, Note_on_c, 0, 52, 0
4, 121200, Note_on_c, 0, 55, 93
4, 121247, Note_on_c, 0, 55, 0
4, 121440, Note_on_c, 0, 57, 106
4, 121463, Note_on_c, 0, 57, 0
4, 121560, Note_on_c, 0, 57, 106
4, 121583, Note_on_c, 0, 57, 0
4, 121680, Note_on_c, 0, 58, 106
4, 121727, Note_on_c, 0, 58, 0
4, 121920, Note_on_c, 0, 59, 106
4, 121967, Note_on_c, 0, 59, 0
4, 122400, Note_on_c, 0, 54, 106
4, 122400, Note_on_c, 0, 59, 106
4, 122400, Note_on_c, 0, 63, 106
4, 122400, Note_on_c, 0, 66, 106
4, 122447, Note_on_c, 0, 66, 0
4, 122447, Note_on_c, 0, 54, 0
4, 122447, Note_on_c, 0, 59, 0
4, 122447, Note_on_c, 0, 63, 0
4, 122880, Note_on_c, 0, 54, 93
4, 122880, Note_on_c, 0, 59, 93
4, 122927, Note_on_c, 0, 59, 0
4, 122927, Note_on_c, 0, 54, 0
4, 123360, Note_on_c, 0, 54, 93
4, 123360, Note_on_c, 0, 59, 93
4, 123391, Note_on_c, 0, 59, 0
4, 123391, Note_on_c, 0, 54, 0
4, 123519, Note_on_c, 0, 54, 93
4, 123519, Note_on_c, 0, 59, 93
4, 123551, Note_on_c, 0, 59, 0
4, 123551, Note_on_c, 0, 54, 0
4, 123680, Note_on_c, 0, 54, 93
4, 123680, Note_on_c, 0, 59, 93
4, 123712, Note_on_c, 0, 59, 0
4, 123712, Note_on_c, 0, 54, 0
4, 123840, Note_on_c, 0, 52, 93
4, 123840, Note_on_c, 0, 59, 93
4, 123887, Note_on_c, 0, 59, 0
4, 123887, Note_on_c, 0, 52, 0
4, 124320, Note_on_c, 0, 55, 93
4, 124320, Note_on_c, 0, 57, 93
4, 124367, Note_on_c, 0, 57, 0
4, 124367, Note_on_c, 0, 55, 0
4, 124800, Note_on_c, 0, 52, 93
4, 124800, Note_on_c, 0, 55, 93
4, 124800, Note_on_c, 0, 60, 93
4, 124847, Note_on_c, 0, 60, 0
4, 124847, Note_on_c, 0, 55, 0
4, 124847, Note_on_c, 0, 52, 0
4, 125280, Note_on_c, 0, 52, 93
4, 125280, Note_on_c, 0, 57, 93
4, 125327, Note_on_c, 0, 57, 0
4, 125327, Note_on_c, 0, 52, 0
4, 125760, Note_on_c, 0, 47, 80
4, 125807, Note_on_c, 0, 47, 0
4, 126000, Note_on_c, 0, 47, 80
4, 126000, Note_on_c, 0, 59, 80
4, 126047, Note_on_c, 0, 59, 0
4, 126047, Note_on_c, 0, 47, 0
4, 126240, Note_on_c, 0, 49, 80
4, 126240, Note_on_c, 0, 61, 80
4, 126287, Note_on_c, 0, 61, 0
4, 126287, Note_on_c, 0, 49, 0
4, 126480, Note_on_c, 0, 51, 80
4, 126480, Note_on_c, 0, 63, 80
4, 126527, Note_on_c, 0, 63, 0
4, 126527, Note_on_c, 0, 51, 0
4, 126720, Note_on_c, 0, 52, 80
4, 126720, Note_on_c, 0, 64, 80
4, 126767, Note_on_c, 0, 64, 0
4, 126767, Note_on_c, 0, 52, 0
4, 126960, Note_on_c, 0, 54, 80
4, 127007, Note_on_c, 0, 54, 0
4, 127200, Note_on_c, 0, 55, 80
4, 127247, Note_on_c, 0, 55, 0
4, 127440, Note_on_c, 0, 56, 80
4, 127487, Note_on_c, 0, 56, 0
4, 127680, Note_on_c, 0, 57, 80
4, 127727, Note_on_c, 0, 57, 0
4, 127920, Note_on_c, 0, 59, 80
4, 127967, Note_on_c, 0, 59, 0
4, 128160, Note_on_c, 0, 60, 80
4, 128207, Note_on_c, 0, 60, 0
4, 128400, Note_on_c, 0, 59, 80
4, 128447, Note_on_c, 0, 59, 0
4, 128640, Note_on_c, 0, 57, 80
4, 128687, Note_on_c, 0, 57, 0
4, 128880, Note_on_c, 0, 55, 80
4, 128927, Note_on_c, 0, 55, 0
4, 129120, Note_on_c, 0, 54, 93
4, 129167, Note_on_c, 0, 54, 0
4, 129360, Note_on_c, 0, 52, 93
4, 129407, Note_on_c, 0, 52, 0
4, 129600, Note_on_c, 0, 51, 93
4, 129647, Note_on_c, 0, 51, 0
4, 129840, Note_on_c, 0, 49, 93
4, 129887, Note_on_c, 0, 49, 0
4, 130080, Note_on_c, 0, 47, 93
4, 130127, Note_on_c, 0, 47, 0
4, 130560, Note_on_c, 0, 54, 93
4, 130560, Note_on_c, 0, 59, 93
4, 130607, Note_on_c, 0, 59, 0
4, 130607, Note_on_c, 0, 54, 0
4, 131040, Note_on_c, 0, 54, 93
4, 131040, Note_on_c, 0, 59, 93
4, 131071, Note_on_c, 0, 59, 0
4, 131071, Note_on_c, 0, 54, 0
4, 131199, Note_on_c, 0, 54, 93
4, 131199, Note_on_c, 0, 59, 93
4, 131231, Note_on_c, 0, 59, 0
4, 131231, Note_on_c, 0, 54, 0
4, 131360, Note_on_c, 0, 54, 93
4, 131360, Note_on_c, 0, 59, 93
4, 131392, Note_on_c, 0, 59, 0
4, 131392, Note_on_c, 0, 54, 0
4, 131520, Note_on_c, 0, 52, 93
4, 131520, Note_on_c, 0, 59, 93
4, 131567, Note_on_c, 0, 59, 0
4, 131567, Note_on_c, 0, 52, 0
4, 132000, Note_on_c, 0, 55, 93
4, 132000, Note_on_c, 0, 57, 93
4, 132047, Note_on_c, 0, 57, 0
4, 132047, Note_on_c, 0, 55, 0
4, 132480, Note_on_c, 0, 52, 93
4, 132480, Note_on_c, 0, 55, 93
4, 132480, Note_on_c, 0, 60, 93
4, 132527, Note_on_c, 0, 60, 0
4, 132527, Note_on_c, 0, 55, 0
4, 132527, Note_on_c, 0, 52, 0
4, 132960, Note_on_c, 0, 52, 93
4, 132960, Note_on_c, 0, 57, 93
4, 133007, Note_on_c, 0, 57, 0
4, 133007, Note_on_c, 0, 52, 0
4, 133440, Note_on_c, 0, 54, 119
4, 133860, Note_on_c, 0, 49, 80
4, 133920, Note_on_c, 0, 49, 0
4, 133920, Note_on_c, 0, 54, 0
4, 133920, Note_on_c, 0, 51, 80
4, 133967, Note_on_c, 0, 51, 0
4, 134340, Note_on_c, 0, 51, 80
4, 134400, Note_on_c, 0, 51, 0
4, 134400, Note_on_c, 0, 52, 80
4, 134447, Note_on_c, 0, 52, 0
4, 134820, Note_on_c, 0, 58, 80
4, 134880, Note_on_c, 0, 58, 0
4, 134880, Note_on_c, 0, 52, 80
4, 134880, Note_on_c, 0, 59, 80
4, 134927, Note_on_c, 0, 59, 0
4, 134927, Note_on_c, 0, 52, 0
4, 135360, Note_on_c, 0, 52, 80
4, 135360, Note_on_c, 0, 57, 80
4, 135360, Note_on_c, 0, 60, 80
4, 135407, Note_on_c, 0, 60, 0
4, 135407, Note_on_c, 0, 57, 0
4, 135407, Note_on_c, 0, 52, 0
4, 135600, Note_on_c, 0, 59, 80
4, 135647, Note_on_c, 0, 59, 0
4, 135840, Note_on_c, 0, 57, 80
4, 135887, Note_on_c, 0, 57, 0
4, 136080, Note_on_c, 0, 55, 80
4, 136127, Note_on_c, 0, 55, 0
4, 136320, Note_on_c, 0, 54, 80
4, 136320, Note_on_c, 0, 57, 80
4, 136367, Note_on_c, 0, 57, 0
4, 136367, Note_on_c, 0, 54, 0
4, 136560, Note_on_c, 0, 52, 80
4, 136607, Note_on_c, 0, 52, 0
4, 136800, Note_on_c, 0, 50, 80
4, 136800, Note_on_c, 0, 54, 80
4, 136847, Note_on_c, 0, 54, 0
4, 136847, Note_on_c, 0, 50, 0
4, 137040, Note_on_c, 0, 48, 80
4, 137087, Note_on_c, 0, 48, 0
4, 137280, Note_on_c, 0, 59, 93
4, 137327, Note_on_c, 0, 59, 0
4, 137520, Note_on_c, 0, 57, 93
4, 137567, Note_on_c, 0, 57, 0
4, 137760, Note_on_c, 0, 55, 93
4, 137807, Note_on_c, 0, 55, 0
4, 138000, Note_on_c, 0, 54, 93
4, 138047, Note_on_c, 0, 54, 0
4, 138720, Control_c, 0, 64, 127
4, 138720, Note_on_c, 0, 52, 119
4, 138840, Note_on_c, 0, 52, 0
4, 138840, Note_on_c, 0, 54, 93
4, 138960, Note_on_c, 0, 54, 0
4, 138960, Note_on_c, 0, 55, 93
4, 139080, Note_on_c, 0, 55, 0
4, 139080, Note_on_c, 0, 57, 93
4, 139200, Note_on_c, 0, 57, 0
4, 139200, Control_c, 0, 64, 0
4, 139200, Note_on_c, 0, 59, 93
4, 139440, Note_on_c, 0, 59, 0
4, 139680, Note_on_c, 0, 59, 93
4, 139680, Note_on_c, 0, 64, 93
4, 139727, Note_on_c, 0, 64, 0
4, 139727, Note_on_c, 0, 59, 0
4, 140160, Note_on_c, 0, 62, 93
4, 140160, Note_on_c, 0, 66, 93
4, 140160, Note_on_c, 0, 71, 93
4, 140207, Note_on_c, 0, 71, 0
4, 140207, Note_on_c, 0, 66, 0
4, 140207, Note_on_c, 0, 62, 0
4, 140640, Note_on_c, 0, 62, 93
4, 140640, Note_on_c, 0, 67, 93
4, 140640, Note_on_c, 0, 71, 93
4, 140640, Note_on_c, 0, 74, 93
4, 140687, Note_on_c, 0, 74, 0
4, 140687, Note_on_c, 0, 62, 0
4, 140687, Note_on_c, 0, 67, 0
4, 140687, Note_on_c, 0, 71, 0
4, 141120, Note_on_c, 0, 64, 119
4, 141120, Note_on_c, 0, 67, 119
4, 141120, Note_on_c, 0, 71, 119
4, 141120, Note_on_c, 0, 76, 119
4, 141600, Note_on_c, 0, 76, 0
4, 141600, Note_on_c, 0, 64, 0
4, 141600, Note_on_c, 0, 67, 0
4, 141600, Note_on_c, 0, 71, 0
4, 142560, Control_c, 0, 64, 127
4, 142560, Note_on_c, 0, 52, 119
4, 142680, Note_on_c, 0, 52, 0
4, 142680, Note_on_c, 0, 54, 93
4, 142800, Note_on_c, 0, 54, 0
4, 142800, Note_on_c, 0, 55, 93
4, 142920, Note_on_c, 0, 55, 0
4, 142920, Note_on_c, 0, 57, 93
4, 143040, Note_on_c, 0, 57, 0
4, 143040, Control_c, 0, 64, 0
4, 143040, Note_on_c, 0, 59, 93
4, 143280, Note_on_c, 0, 59, 0
4, 143520, Note_on_c, 0, 59, 93
4, 143520, Note_on_c, 0, 64, 93
4, 143567, Note_on_c, 0, 64, 0
4, 143567, Note_on_c, 0, 59, 0
4, 144000, Note_on_c, 0, 62, 93
4, 144000, Note_on_c, 0, 66, 93
4, 144000, Note_on_c, 0, 71, 93
4, 144047, Note_on_c, 0, 71, 0
4, 144047, Note_on_c, 0, 66, 0
4, 144047, Note_on_c, 0, 62, 0
4, 144480, Note_on_c, 0, 62, 93
4, 144480, Note_on_c, 0, 67, 93
4, 144480, Note_on_c, 0, 71, 93
4, 144480, Note_on_c, 0, 74, 93
4, 144527, Note_on_c, 0, 74, 0
4, 144527, Note_on_c, 0, 62, 0
4, 144527, Note_on_c, 0, 67, 0
4, 144527, Note_on_c, 0, 71, 0
4, 144960, Note_on_c, 0, 64, 119
4, 144960, Note_on_c, 0, 67, 119
4, 144960, Note_on_c, 0, 71, 119
4, 144960, Note_on_c, 0, 76, 119
4, 145440, Note_on_c, 0, 76, 0
4, 145440, Note_on_c, 0, 64, 0
4, 145440, Note_on_c, 0, 67, 0
4, 145440, Note_on_c, 0, 71, 0
4, 145920, Note_on_c, 0, 45, 80
4, 145943, Note_on_c, 0, 45, 0
4, 146040, Note_on_c, 0, 45, 80
4, 146063, Note_on_c, 0, 45, 0
4, 146160, Note_on_c, 0, 44, 80
4, 146207, Note_on_c, 0, 44, 0
4, 146400, Note_on_c, 0, 45, 80
4, 146423, Note_on_c, 0, 45, 0
4, 146520, Note_on_c, 0, 45, 80
4, 146543, Note_on_c, 0, 45, 0
4, 146640, Note_on_c, 0, 47, 80
4, 146687, Note_on_c, 0, 47, 0
4, 146880, Note_on_c, 0, 48, 80
4, 146903, Note_on_c, 0, 48, 0
4, 147000, Note_on_c, 0, 48, 80
4, 147023, Note_on_c, 0, 48, 0
4, 147120, Note_on_c, 0, 49, 80
4, 147167, Note_on_c, 0, 49, 0
4, 147360, Note_on_c, 0, 50, 80
4, 147383, Note_on_c, 0, 50, 0
4, 147480, Note_on_c, 0, 50, 80
4, 147503, Note_on_c, 0, 50, 0
4, 147600, Note_on_c, 0, 48, 80
4, 147647, Note_on_c, 0, 48, 0
4, 147840, Note_on_c, 0, 47, 80
4, 147863, Note_on_c, 0, 47, 0
4, 147960, Note_on_c, 0, 47, 80
4, 147983, Note_on_c, 0, 47, 0
4, 148080, Note_on_c, 0, 46, 80
4, 148127, Note_on_c, 0, 46, 0
4, 148320, Note_on_c, 0, 47, 80
4, 148343, Note_on_c, 0, 47, 0
4, 148440, Note_on_c, 0, 47, 80
4, 148463, Note_on_c, 0, 47, 0
4, 148560, Note_on_c, 0, 48, 80
4, 148607, Note_on_c, 0, 48, 0
4, 148800, Note_on_c, 0, 50, 80
4, 148823, Note_on_c, 0, 50, 0
4, 148920, Note_on_c, 0, 50, 80
4, 148943, Note_on_c, 0, 50, 0
4, 149040, Note_on_c, 0, 51, 80
4, 149087, Note_on_c, 0, 51, 0
4, 149280, Note_on_c, 0, 52, 80
4, 149303, Note_on_c, 0, 52, 0
4, 149400, Note_on_c, 0, 52, 80
4, 149423, Note_on_c, 0, 52, 0
4, 149520, Note_on_c, 0, 50, 80
4, 149567, Note_on_c, 0, 50, 0
4, 149760, Note_on_c, 0, 48, 80
4, 149783, Note_on_c, 0, 48, 0
4, 149880, Note_on_c, 0, 48, 80
4, 149903, Note_on_c, 0, 48, 0
4, 150000, Note_on_c, 0, 47, 80
4, 150047, Note_on_c, 0, 47, 0
4, 150240, Note_on_c, 0, 45, 80
4, 150263, Note_on_c, 0, 45, 0
4, 150360, Note_on_c, 0, 45, 80
4, 150383, Note_on_c, 0, 45, 0
4, 150480, Note_on_c, 0, 48, 80
4, 150527, Note_on_c, 0, 48, 0
4, 150720, Note_on_c, 0, 50, 80
4, 150743, Note_on_c, 0, 50, 0
4, 150840, Note_on_c, 0, 50, 80
4, 150863, Note_on_c, 0, 50, 0
4, 150960, Note_on_c, 0, 52, 80
4, 151007, Note_on_c, 0, 52, 0
4, 151200, Note_on_c, 0, 54, 93
4, 151223, Note_on_c, 0, 54, 0
4, 151320, Note_on_c, 0, 54, 93
4, 151343, Note_on_c, 0, 54, 0
4, 151440, Note_on_c, 0, 50, 93
4, 151487, Note_on_c, 0, 50, 0
4, 151680, Note_on_c, 0, 47, 93
4, 151703, Note_on_c, 0, 47, 0
4, 151800, Note_on_c, 0, 47, 93
4, 151823, Note_on_c, 0, 47, 0
4, 151920, Note_on_c, 0, 59, 93
4, 151967, Note_on_c, 0, 59, 0
4, 152160, Note_on_c, 0, 57, 106
4, 152183, Note_on_c, 0, 57, 0
4, 152280, Note_on_c, 0, 57, 106
4, 152303, Note_on_c, 0, 57, 0
4, 152400, Note_on_c, 0, 50, 106
4, 152447, Note_on_c, 0, 50, 0
4, 152640, Note_on_c, 0, 50, 106
4, 152640, Note_on_c, 0, 55, 106
4, 152640, Note_on_c, 0, 59, 106
4, 152687, Note_on_c, 0, 59, 0
4, 152687, Note_on_c, 0, 55, 0
4, 152687, Note_on_c, 0, 50, 0
4, 153120, Note_on_c, 0, 50, 127
4, 153120, Note_on_c, 0, 55, 127
4, 153120, Note_on_c, 0, 59, 127
4, 153167, Note_on_c, 0, 59, 0
4, 153167, Note_on_c, 0, 55, 0
4, 153167, Note_on_c, 0, 50, 0
4, 153167, End_track
5, 0, Start_track
5, 0, Title_t, "Grand Piano"
5, 0, Program_c, 0, 0
5, 0, Control_c, 0, 7, 115
5, 0, Control_c, 0, 10, 47
5, 7680, Note_on_c, 0, 33, 54
5, 7727, Note_on_c, 0, 33, 0
5, 7920, Note_on_c, 0, 32, 54
5, 7967, Note_on_c, 0, 32, 0
5, 8160, Note_on_c, 0, 33, 54
5, 8207, Note_on_c, 0, 33, 0
5, 8400, Note_on_c, 0, 35, 54
5, 8447, Note_on_c, 0, 35, 0
5, 8640, Note_on_c, 0, 36, 54
5, 8687, Note_on_c, 0, 36, 0
5, 8880, Note_on_c, 0, 37, 54
5, 8927, Note_on_c, 0, 37, 0
5, 9120, Note_on_c, 0, 38, 54
5, 9167, Note_on_c, 0, 38, 0
5, 9360, Note_on_c, 0, 30, 54
5, 9407, Note_on_c, 0, 30, 0
5, 9600, Note_on_c, 0, 31, 54
5, 9647, Note_on_c, 0, 31, 0
5, 9840, Note_on_c, 0, 30, 54
5, 9887, Note_on_c, 0, 30, 0
5, 10080, Note_on_c, 0, 31, 54
5, 10127, Note_on_c, 0, 31, 0
5, 10320, Note_on_c, 0, 33, 54
5, 10367, Note_on_c, 0, 33, 0
5, 10560, Note_on_c, 0, 34, 54
5, 10607, Note_on_c, 0, 34, 0
5, 10800, Note_on_c, 0, 35, 54
5, 10847, Note_on_c, 0, 35, 0
5, 11040, Note_on_c, 0, 36, 54
5, 11087, Note_on_c, 0, 36, 0
5, 11280, Note_on_c, 0, 28, 54
5, 11327, Note_on_c, 0, 28, 0
5, 11520, Note_on_c, 0, 33, 54
5, 11567, Note_on_c, 0, 33, 0
5, 11760, Note_on_c, 0, 34, 54
5, 11807, Note_on_c, 0, 34, 0
5, 12000, Note_on_c, 0, 35, 54
5, 12047, Note_on_c, 0, 35, 0
5, 12240, Note_on_c, 0, 36, 54
5, 12287, Note_on_c, 0, 36, 0
5, 12480, Note_on_c, 0, 37, 67
5, 12527, Note_on_c, 0, 37, 0
5, 12720, Note_on_c, 0, 39, 67
5, 12767, Note_on_c, 0, 39, 0
5, 12960, Note_on_c, 0, 40, 67
5, 13007, Note_on_c, 0, 40, 0
5, 13200, Note_on_c, 0, 43, 67
5, 13247, Note_on_c, 0, 43, 0
5, 13440, Note_on_c, 0, 45, 80
5, 13487, Note_on_c, 0, 45, 0
5, 13680, Note_on_c, 0, 47, 80
5, 13727, Note_on_c, 0, 47, 0
5, 13920, Note_on_c, 0, 48, 80
5, 13967, Note_on_c, 0, 48, 0
5, 14160, Note_on_c, 0, 49, 80
5, 14207, Note_on_c, 0, 49, 0
5, 14400, Note_on_c, 0, 50, 80
5, 14447, Note_on_c, 0, 50, 0
5, 14880, Note_on_c, 0, 38, 93
5, 14880, Note_on_c, 0, 50, 93
5, 14927, Note_on_c, 0, 50, 0
5, 14927, Note_on_c, 0, 38, 0
5, 23040, Note_on_c, 0, 33, 54
5, 23087, Note_on_c, 0, 33, 0
5, 23280, Note_on_c, 0, 32, 54
5, 23327, Note_on_c, 0, 32, 0
5, 23520, Note_on_c, 0, 33, 54
5, 23567, Note_on_c, 0, 33, 0
5, 23760, Note_on_c, 0, 35, 54
5, 23807, Note_on_c, 0, 35, 0
5, 24000, Note_on_c, 0, 36, 54
5, 24047, Note_on_c, 0, 36, 0
5, 24240, Note_on_c, 0, 37, 54
5, 24287, Note_on_c, 0, 37, 0
5, 24480, Note_on_c, 0, 38, 54
5, 24527, Note_on_c, 0, 38, 0
5, 24720, Note_on_c, 0, 36, 54
5, 24767, Note_on_c, 0, 36, 0
5, 24960, Note_on_c, 0, 35, 67
5, 25007, Note_on_c, 0, 35, 0
5, 25200, Note_on_c, 0, 34, 67
5, 25247, Note_on_c, 0, 34, 0
5, 25440, Note_on_c, 0, 35, 67
5, 25487, Note_on_c, 0, 35, 0
5, 25680, Note_on_c, 0, 36, 67
5, 25727, Note_on_c, 0, 36, 0
5, 25920, Note_on_c, 0, 38, 67
5, 25967, Note_on_c, 0, 38, 0
5, 26160, Note_on_c, 0, 39, 67
5, 26207, Note_on_c, 0, 39, 0
5, 26400, Note_on_c, 0, 40, 67
5, 26447, Note_on_c, 0, 40, 0
5, 26640, Note_on_c, 0, 38, 67
5, 26687, Note_on_c, 0, 38, 0
5, 26880, Note_on_c, 0, 36, 67
5, 26927, Note_on_c, 0, 36, 0
5, 27120, Note_on_c, 0, 35, 67
5, 27167, Note_on_c, 0, 35, 0
5, 27360, Note_on_c, 0, 33, 67
5, 27407, Note_on_c, 0, 33, 0
5, 27600, Note_on_c, 0, 36, 67
5, 27647, Note_on_c, 0, 36, 0
5, 27840, Note_on_c, 0, 38, 80
5, 27887, Note_on_c, 0, 38, 0
5, 28080, Note_on_c, 0, 36, 80
5, 28127, Note_on_c, 0, 36, 0
5, 28320, Note_on_c, 0, 35, 80
5, 28367, Note_on_c, 0, 35, 0
5, 28560, Note_on_c, 0, 38, 80
5, 28607, Note_on_c, 0, 38, 0
5, 28800, Note_on_c, 0, 40, 93
5, 28847, Note_on_c, 0, 40, 0
5, 29040, Note_on_c, 0, 43, 93
5, 29087, Note_on_c, 0, 43, 0
5, 29280, Note_on_c, 0, 45, 93
5, 29327, Note_on_c, 0, 45, 0
5, 29520, Note_on_c, 0, 46, 93
5, 29567, Note_on_c, 0, 46, 0
5, 29760, Note_on_c, 0, 47, 93
5, 29807, Note_on_c, 0, 47, 0
5, 30240, Note_on_c, 0, 35, 93
5, 30240, Note_on_c, 0, 47, 93
5, 30287, Note_on_c, 0, 47, 0
5, 30287, Note_on_c, 0, 35, 0
5, 32160, Note_on_c, 0, 48, 80
5, 32207, Note_on_c, 0, 48, 0
5, 32640, Note_on_c, 0, 45, 93
5, 32880, Note_on_c, 0, 45, 0
5, 33120, Note_on_c, 0, 42, 93
5, 33120, Note_on_c, 0, 48, 93
5, 33360, Note_on_c, 0, 48, 0
5, 33360, Note_on_c, 0, 42, 0
5, 33600, Note_on_c, 0, 39, 106
5, 33600, Note_on_c, 0, 54, 106
5, 34320, Note_on_c, 0, 54, 0
5, 34320, Note_on_c, 0, 39, 0
5, 39840, Note_on_c, 0, 48, 80
5, 39887, Note_on_c, 0, 48, 0
5, 40320, Note_on_c, 0, 45, 93
5, 40367, Note_on_c, 0, 45, 0
5, 40800, Note_on_c, 0, 42, 93
5, 40800, Note_on_c, 0, 48, 93
5, 40847, Note_on_c, 0, 48, 0
5, 40847, Note_on_c, 0, 42, 0
5, 41280, Note_on_c, 0, 39, 119
5, 41280, Note_on_c, 0, 47, 119
5, 41760, Note_on_c, 0, 47, 0
5, 41760, Note_on_c, 0, 39, 0
5, 41760, Note_on_c, 0, 35, 80
5, 41760, Note_on_c, 0, 47, 80
5, 41807, Note_on_c, 0, 47, 0
5, 41807, Note_on_c, 0, 35, 0
5, 42240, Note_on_c, 0, 40, 80
5, 42287, Note_on_c, 0, 40, 0
5, 42720, Note_on_c, 0, 43, 80
5, 42767, Note_on_c, 0, 43, 0
5, 43200, Note_on_c, 0, 45, 80
5, 43247, Note_on_c, 0, 45, 0
5, 43680, Note_on_c, 0, 48, 80
5, 43727, Note_on_c, 0, 48, 0
5, 44160, Note_on_c, 0, 50, 80
5, 44207, Note_on_c, 0, 50, 0
5, 44640, Note_on_c, 0, 38, 80
5, 44687, Note_on_c, 0, 38, 0
5, 45120, Note_on_c, 0, 47, 93
5, 45167, Note_on_c, 0, 47, 0
5, 45360, Note_on_c, 0, 45, 93
5, 45407, Note_on_c, 0, 45, 0
5, 45600, Note_on_c, 0, 43, 93
5, 45647, Note_on_c, 0, 43, 0
5, 45840, Note_on_c, 0, 42, 93
5, 45887, Note_on_c, 0, 42, 0
5, 46080, Note_on_c, 0, 43, 93
5, 46127, Note_on_c, 0, 43, 0
5, 53760, Note_on_c, 0, 33, 54
5, 53807, Note_on_c, 0, 33, 0
5, 54000, Note_on_c, 0, 32, 54
5, 54047, Note_on_c, 0, 32, 0
5, 54240, Note_on_c, 0, 33, 54
5, 54287, Note_on_c, 0, 33, 0
5, 54480, Note_on_c, 0, 35, 54
5, 54527, Note_on_c, 0, 35, 0
5, 54720, Note_on_c, 0, 36, 54
5, 54767, Note_on_c, 0, 36, 0
5, 54960, Note_on_c, 0, 37, 54
5, 55007, Note_on_c, 0, 37, 0
5, 55200, Note_on_c, 0, 38, 54
5, 55247, Note_on_c, 0, 38, 0
5, 55440, Note_on_c, 0, 30, 54
5, 55487, Note_on_c, 0, 30, 0
5, 55680, Note_on_c, 0, 31, 54
5, 55727, Note_on_c, 0, 31, 0
5, 55920, Note_on_c, 0, 30, 54
5, 55967, Note_on_c, 0, 30, 0
5, 56160, Note_on_c, 0, 31, 54
5, 56207, Note_on_c, 0, 31, 0
5, 56400, Note_on_c, 0, 33, 54
5, 56447, Note_on_c, 0, 33, 0
5, 56640, Note_on_c, 0, 34, 54
5, 56687, Note_on_c, 0, 34, 0
5, 56880, Note_on_c, 0, 35, 54
5, 56927, Note_on_c, 0, 35, 0
5, 57120, Note_on_c, 0, 36, 54
5, 57167, Note_on_c, 0, 36, 0
5, 57360, Note_on_c, 0, 28, 54
5, 57407, Note_on_c, 0, 28, 0
5, 57600, Note_on_c, 0, 33, 54
5, 57647, Note_on_c, 0, 33, 0
5, 57840, Note_on_c, 0, 34, 54
5, 57887, Note_on_c, 0, 34, 0
5, 58080, Note_on_c, 0, 35, 54
5, 58127, Note_on_c, 0, 35, 0
5, 58320, Note_on_c, 0, 36, 54
5, 58367, Note_on_c, 0, 36, 0
5, 58560, Note_on_c, 0, 37, 67
5, 58607, Note_on_c, 0, 37, 0
5, 58800, Note_on_c, 0, 39, 67
5, 58847, Note_on_c, 0, 39, 0
5, 59040, Note_on_c, 0, 40, 67
5, 59087, Note_on_c, 0, 40, 0
5, 59280, Note_on_c, 0, 43, 67
5, 59327, Note_on_c, 0, 43, 0
5, 59520, Note_on_c, 0, 45, 80
5, 59567, Note_on_c, 0, 45, 0
5, 59760, Note_on_c, 0, 47, 80
5, 59807, Note_on_c, 0, 47, 0
5, 60000, Note_on_c, 0, 48, 80
5, 60047, Note_on_c, 0, 48, 0
5, 60240, Note_on_c, 0, 49, 80
5, 60287, Note_on_c, 0, 49, 0
5, 60480, Note_on_c, 0, 50, 80
5, 60527, Note_on_c, 0, 50, 0
5, 60960, Note_on_c, 0, 38, 93
5, 60960, Note_on_c, 0, 50, 93
5, 61007, Note_on_c, 0, 50, 0
5, 61007, Note_on_c, 0, 38, 0
5, 69120, Note_on_c, 0, 33, 54
5, 69167, Note_on_c, 0, 33, 0
5, 69360, Note_on_c, 0, 32, 54
5, 69407, Note_on_c, 0, 32, 0
5, 69600, Note_on_c, 0, 33, 54
5, 69647, Note_on_c, 0, 33, 0
5, 69840, Note_on_c, 0, 35, 54
5, 69887, Note_on_c, 0, 35, 0
5, 70080, Note_on_c, 0, 36, 54
5, 70127, Note_on_c, 0, 36, 0
5, 70320, Note_on_c, 0, 37, 54
5, 70367, Note_on_c, 0, 37, 0
5, 70560, Note_on_c, 0, 38, 54
5, 70607, Note_on_c, 0, 38, 0
5, 70800, Note_on_c, 0, 36, 54
5, 70847, Note_on_c, 0, 36, 0
5, 71040, Note_on_c, 0, 35, 67
5, 71087, Note_on_c, 0, 35, 0
5, 71280, Note_on_c, 0, 34, 67
5, 71327, Note_on_c, 0, 34, 0
5, 71520, Note_on_c, 0, 35, 67
5, 71567, Note_on_c, 0, 35, 0
5, 71760, Note_on_c, 0, 36, 67
5, 71807, Note_on_c, 0, 36, 0
5, 72000, Note_on_c, 0, 38, 67
5, 72047, Note_on_c, 0, 38, 0
5, 72240, Note_on_c, 0, 39, 67
5, 72287, Note_on_c, 0, 39, 0
5, 72480, Note_on_c, 0, 40, 67
5, 72527, Note_on_c, 0, 40, 0
5, 72720, Note_on_c, 0, 38, 67
5, 72767, Note_on_c, 0, 38, 0
5, 72960, Note_on_c, 0, 36, 67
5, 73007, Note_on_c, 0, 36, 0
5, 73200, Note_on_c, 0, 35, 67
5, 73247, Note_on_c, 0, 35, 0
5, 73440, Note_on_c, 0, 33, 67
5, 73487, Note_on_c, 0, 33, 0
5, 73680, Note_on_c, 0, 36, 67
5, 73727, Note_on_c, 0, 36, 0
5, 73920, Note_on_c, 0, 38, 80
5, 73967, Note_on_c, 0, 38, 0
5, 74160, Note_on_c, 0, 40, 80
5, 74207, Note_on_c, 0, 40, 0
5, 74400, Note_on_c, 0, 42, 80
5, 74447, Note_on_c, 0, 42, 0
5, 74640, Note_on_c, 0, 38, 80
5, 74687, Note_on_c, 0, 38, 0
5, 74880, Note_on_c, 0, 35, 93
5, 74927, Note_on_c, 0, 35, 0
5, 75120, Note_on_c, 0, 47, 93
5, 75167, Note_on_c, 0, 47, 0
5, 75360, Note_on_c, 0, 45, 93
5, 75407, Note_on_c, 0, 45, 0
5, 75600, Note_on_c, 0, 38, 93
5, 75647, Note_on_c, 0, 38, 0
5, 75840, Note_on_c, 0, 43, 93
5, 76080, Note_on_c, 0, 43, 0
5, 76800, Note_on_c, 0, 52, 67
5, 76800, Note_on_c, 0, 55, 67
5, 76800, Note_on_c, 0, 59, 67
5, 77040, Note_on_c, 0, 59, 0
5, 77040, Note_on_c, 0, 55, 0
5, 77040, Note_on_c, 0, 52, 0
5, 77040, Note_on_c, 0, 52, 67
5, 77040, Note_on_c, 0, 55, 67
5, 77040, Note_on_c, 0, 59, 67
5, 77280, Note_on_c, 0, 59, 0
5, 77280, Note_on_c, 0, 55, 0
5, 77280, Note_on_c, 0, 52, 0
5, 77280, Note_on_c, 0, 52, 67
5, 77280, Note_on_c, 0, 55, 67
5, 77280, Note_on_c, 0, 59, 67
5, 77520, Note_on_c, 0, 59, 0
5, 77520, Note_on_c, 0, 55, 0
5, 77520, Note_on_c, 0, 52, 0
5, 77520, Note_on_c, 0, 52, 67
5, 77520, Note_on_c, 0, 55, 67
5, 77520, Note_on_c, 0, 59, 67
5, 77760, Note_on_c, 0, 59, 0
5, 77760, Note_on_c, 0, 55, 0
5, 77760, Note_on_c, 0, 52, 0
5, 77760, Note_on_c, 0, 52, 67
5, 77760, Note_on_c, 0, 55, 67
5, 77760, Note_on_c, 0, 59, 67
5, 78000, Note_on_c, 0, 59, 0
5, 78000, Note_on_c, 0, 55, 0
5, 78000, Note_on_c, 0, 52, 0
5, 78000, Note_on_c, 0, 52, 67
5, 78000, Note_on_c, 0, 55, 67
5, 78000, Note_on_c, 0, 59, 67
5, 78240, Note_on_c, 0, 59, 0
5, 78240, Note_on_c, 0, 55, 0
5, 78240, Note_on_c, 0, 52, 0
5, 78240, Note_on_c, 0, 52, 67
5, 78240, Note_on_c, 0, 56, 67
5, 78240, Note_on_c, 0, 59, 67
5, 78480, Note_on_c, 0, 59, 0
5, 78480, Note_on_c, 0, 56, 0
5, 78480, Note_on_c, 0, 52, 0
5, 78480, Note_on_c, 0, 52, 67
5, 78480, Note_on_c, 0, 56, 67
5, 78480, Note_on_c, 0, 59, 67
5, 78720, Note_on_c, 0, 59, 0
5, 78720, Note_on_c, 0, 56, 0
5, 78720, Note_on_c, 0, 52, 0
5, 78720, Note_on_c, 0, 52, 67
5, 78720, Note_on_c, 0, 57, 67
5, 78960, Note_on_c, 0, 57, 0
5, 78960, Note_on_c, 0, 52, 0
5, 78960, Note_on_c, 0, 52, 67
5, 78960, Note_on_c, 0, 57, 67
5, 79200, Note_on_c, 0, 57, 0
5, 79200, Note_on_c, 0, 52, 0
5, 79200, Note_on_c, 0, 52, 67
5, 79200, Note_on_c, 0, 54, 67
5, 79200, Note_on_c, 0, 57, 67
5, 79440, Note_on_c, 0, 57, 0
5, 79440, Note_on_c, 0, 54, 0
5, 79440, Note_on_c, 0, 52, 0
5, 79440, Note_on_c, 0, 52, 67
5, 79440, Note_on_c, 0, 54, 67
5, 79440, Note_on_c, 0, 57, 67
5, 79680, Note_on_c, 0, 57, 0
5, 79680, Note_on_c, 0, 54, 0
5, 79680, Note_on_c, 0, 52, 0
5, 79680, Note_on_c, 0, 52, 67
5, 79680, Note_on_c, 0, 55, 67
5, 79920, Note_on_c, 0, 55, 0
5, 79920, Note_on_c, 0, 52, 0
5, 79920, Note_on_c, 0, 52, 67
5, 79920, Note_on_c, 0, 55, 67
5, 80160, Note_on_c, 0, 55, 0
5, 80160, Note_on_c, 0, 52, 0
5, 80160, Note_on_c, 0, 52, 67
5, 80160, Note_on_c, 0, 54, 67
5, 80400, Note_on_c, 0, 54, 0
5, 80400, Note_on_c, 0, 52, 0
5, 80400, Note_on_c, 0, 52, 67
5, 80400, Note_on_c, 0, 54, 67
5, 80640, Note_on_c, 0, 54, 0
5, 80640, Note_on_c, 0, 52, 0
5, 80640, Note_on_c, 0, 40, 67
5, 80640, Note_on_c, 0, 52, 67
5, 80880, Note_on_c, 0, 52, 0
5, 80880, Note_on_c, 0, 40, 0
5, 80880, Note_on_c, 0, 40, 67
5, 80880, Note_on_c, 0, 52, 67
5, 81120, Note_on_c, 0, 52, 0
5, 81120, Note_on_c, 0, 40, 0
5, 81120, Note_on_c, 0, 40, 67
5, 81120, Note_on_c, 0, 52, 67
5, 81360, Note_on_c, 0, 52, 0
5, 81360, Note_on_c, 0, 40, 0
5, 81360, Note_on_c, 0, 40, 67
5, 81360, Note_on_c, 0, 52, 67
5, 81600, Note_on_c, 0, 52, 0
5, 81600, Note_on_c, 0, 40, 0
5, 81600, Note_on_c, 0, 40, 67
5, 81600, Note_on_c, 0, 52, 67
5, 81840, Note_on_c, 0, 52, 0
5, 81840, Note_on_c, 0, 40, 0
5, 81840, Note_on_c, 0, 40, 67
5, 81840, Note_on_c, 0, 52, 67
5, 82080, Note_on_c, 0, 52, 0
5, 82080, Note_on_c, 0, 40, 0
5, 82080, Note_on_c, 0, 40, 67
5, 82080, Note_on_c, 0, 52, 67
5, 82320, Note_on_c, 0, 52, 0
5, 82320, Note_on_c, 0, 40, 0
5, 82320, Note_on_c, 0, 40, 67
5, 82320, Note_on_c, 0, 52, 67
5, 82560, Note_on_c, 0, 52, 0
5, 82560, Note_on_c, 0, 40, 0
5, 82560, Note_on_c, 0, 40, 67
5, 82560, Note_on_c, 0, 52, 67
5, 82800, Note_on_c, 0, 52, 0
5, 82800, Note_on_c, 0, 40, 0
5, 82800, Note_on_c, 0, 40, 67
5, 82800, Note_on_c, 0, 52, 67
5, 83040, Note_on_c, 0, 52, 0
5, 83040, Note_on_c, 0, 40, 0
5, 83040, Note_on_c, 0, 40, 67
5, 83040, Note_on_c, 0, 52, 67
5, 83280, Note_on_c, 0, 52, 0
5, 83280, Note_on_c, 0, 40, 0
5, 83280, Note_on_c, 0, 40, 67
5, 83280, Note_on_c, 0, 52, 67
5, 83520, Note_on_c, 0, 52, 0
5, 83520, Note_on_c, 0, 40, 0
5, 83520, Note_on_c, 0, 40, 67
5, 83760, Note_on_c, 0, 40, 0
5, 83760, Note_on_c, 0, 40, 67
5, 84000, Note_on_c, 0, 40, 0
5, 84000, Note_on_c, 0, 40, 67
5, 84240, Note_on_c, 0, 40, 0
5, 84480, Note_on_c, 0, 52, 67
5, 84480, Note_on_c, 0, 55, 67
5, 84480, Note_on_c, 0, 59, 67
5, 84720, Note_on_c, 0, 59, 0
5, 84720, Note_on_c, 0, 55, 0
5, 84720, Note_on_c, 0, 52, 0
5, 84720, Note_on_c, 0, 52, 67
5, 84720, Note_on_c, 0, 55, 67
5, 84720, Note_on_c, 0, 59, 67
5, 84960, Note_on_c, 0, 59, 0
5, 84960, Note_on_c, 0, 55, 0
5, 84960, Note_on_c, 0, 52, 0
5, 84960, Note_on_c, 0, 52, 67
5, 84960, Note_on_c, 0, 55, 67
5, 84960, Note_on_c, 0, 59, 67
5, 85200, Note_on_c, 0, 59, 0
5, 85200, Note_on_c, 0, 55, 0
5, 85200, Note_on_c, 0, 52, 0
5, 85200, Note_on_c, 0, 52, 67
5, 85200, Note_on_c, 0, 55, 67
5, 85200, Note_on_c, 0, 59, 67
5, 85440, Note_on_c, 0, 59, 0
5, 85440, Note_on_c, 0, 55, 0
5, 85440, Note_on_c, 0, 52, 0
5, 85440, Note_on_c, 0, 52, 67
5, 85440, Note_on_c, 0, 55, 67
5, 85440, Note_on_c, 0, 59, 67
5, 85680, Note_on_c, 0, 59, 0
5, 85680, Note_on_c, 0, 55, 0
5, 85680, Note_on_c, 0, 52, 0
5, 85680, Note_on_c, 0, 52, 67
5, 85680, Note_on_c, 0, 55, 67
5, 85680, Note_on_c, 0, 59, 67
5, 85920, Note_on_c, 0, 59, 0
5, 85920, Note_on_c, 0, 55, 0
5, 85920, Note_on_c, 0, 52, 0
5, 85920, Note_on_c, 0, 52, 67
5, 85920, Note_on_c, 0, 56, 67
5, 85920, Note_on_c, 0, 59, 67
5, 86160, Note_on_c, 0, 59, 0
5, 86160, Note_on_c, 0, 56, 0
5, 86160, Note_on_c, 0, 52, 0
5, 86160, Note_on_c, 0, 52, 67
5, 86160, Note_on_c, 0, 56, 67
5, 86160, Note_on_c, 0, 59, 67
5, 86400, Note_on_c, 0, 59, 0
5, 86400, Note_on_c, 0, 56, 0
5, 86400, Note_on_c, 0, 52, 0
5, 86400, Note_on_c, 0, 52, 67
5, 86400, Note_on_c, 0, 57, 67
5, 86640, Note_on_c, 0, 57, 0
5, 86640, Note_on_c, 0, 52, 0
5, 86640, Note_on_c, 0, 52, 67
5, 86640, Note_on_c, 0, 57, 67
5, 86880, Note_on_c, 0, 57, 0
5, 86880, Note_on_c, 0, 52, 0
5, 86880, Note_on_c, 0, 52, 67
5, 86880, Note_on_c, 0, 54, 67
5, 86880, Note_on_c, 0, 57, 67
5, 87120, Note_on_c, 0, 57, 0
5, 87120, Note_on_c, 0, 54, 0
5, 87120, Note_on_c, 0, 52, 0
5, 87120, Note_on_c, 0, 52, 67
5, 87120, Note_on_c, 0, 54, 67
5, 87120, Note_on_c, 0, 57, 67
5, 87360, Note_on_c, 0, 57, 0
5, 87360, Note_on_c, 0, 54, 0
5, 87360, Note_on_c, 0, 52, 0
5, 87360, Note_on_c, 0, 52, 67
5, 87360, Note_on_c, 0, 55, 67
5, 87600, Note_on_c, 0, 55, 0
5, 87600, Note_on_c, 0, 52, 0
5, 87600, Note_on_c, 0, 52, 67
5, 87600, Note_on_c, 0, 55, 67
5, 87840, Note_on_c, 0, 55, 0
5, 87840, Note_on_c, 0, 52, 0
5, 87840, Note_on_c, 0, 52, 67
5, 87840, Note_on_c, 0, 54, 67
5, 88080, Note_on_c, 0, 54, 0
5, 88080, Note_on_c, 0, 52, 0
5, 88080, Note_on_c, 0, 52, 67
5, 88080, Note_on_c, 0, 54, 67
5, 88320, Note_on_c, 0, 54, 0
5, 88320, Note_on_c, 0, 52, 0
5, 88320, Note_on_c, 0, 40, 67
5, 88320, Note_on_c, 0, 52, 67
5, 88560, Note_on_c, 0, 52, 0
5, 88560, Note_on_c, 0, 40, 0
5, 88560, Note_on_c, 0, 40, 67
5, 88560, Note_on_c, 0, 52, 67
5, 88800, Note_on_c, 0, 52, 0
5, 88800, Note_on_c, 0, 40, 0
5, 88800, Note_on_c, 0, 40, 67
5, 88800, Note_on_c, 0, 52, 67
5, 89040, Note_on_c, 0, 52, 0
5, 89040, Note_on_c, 0, 40, 0
5, 89040, Note_on_c, 0, 40, 67
5, 89040, Note_on_c, 0, 52, 67
5, 89280, Note_on_c, 0, 52, 0
5, 89280, Note_on_c, 0, 40, 0
5, 89280, Note_on_c, 0, 40, 67
5, 89280, Note_on_c, 0, 52, 67
5, 89520, Note_on_c, 0, 52, 0
5, 89520, Note_on_c, 0, 40, 0
5, 89520, Note_on_c, 0, 40, 67
5, 89520, Note_on_c, 0, 52, 67
5, 89760, Note_on_c, 0, 52, 0
5, 89760, Note_on_c, 0, 40, 0
5, 89760, Note_on_c, 0, 40, 67
5, 89760, Note_on_c, 0, 52, 67
5, 90000, Note_on_c, 0, 52, 0
5, 90000, Note_on_c, 0, 40, 0
5, 90000, Note_on_c, 0, 40, 67
5, 90000, Note_on_c, 0, 52, 67
5, 90240, Note_on_c, 0, 52, 0
5, 90240, Note_on_c, 0, 40, 0
5, 90240, Note_on_c, 0, 40, 67
5, 90240, Note_on_c, 0, 52, 67
5, 90480, Note_on_c, 0, 52, 0
5, 90480, Note_on_c, 0, 40, 0
5, 90480, Note_on_c, 0, 40, 67
5, 90480, Note_on_c, 0, 52, 67
5, 90720, Note_on_c, 0, 52, 0
5, 90720, Note_on_c, 0, 40, 0
5, 90720, Note_on_c, 0, 40, 67
5, 90720, Note_on_c, 0, 52, 67
5, 90960, Note_on_c, 0, 52, 0
5, 90960, Note_on_c, 0, 40, 0
5, 90960, Note_on_c, 0, 40, 67
5, 90960, Note_on_c, 0, 52, 67
5, 91200, Note_on_c, 0, 52, 0
5, 91200, Note_on_c, 0, 40, 0
5, 91200, Note_on_c, 0, 40, 67
5, 91440, Note_on_c, 0, 40, 0
5, 91440, Note_on_c, 0, 40, 67
5, 91680, Note_on_c, 0, 40, 0
5, 91680, Note_on_c, 0, 40, 67
5, 91920, Note_on_c, 0, 40, 0
5, 92160, Control_c, 0, 64, 127
5, 92160, Note_on_c, 0, 43, 93
5, 92280, Note_on_c, 0, 43, 0
5, 92280, Note_on_c, 0, 45, 93
5, 92400, Note_on_c, 0, 45, 0
5, 92400, Note_on_c, 0, 47, 93
5, 92520, Note_on_c, 0, 47, 0
5, 92520, Note_on_c, 0, 48, 93
5, 92640, Note_on_c, 0, 48, 0
5, 92640, Control_c, 0, 64, 0
5, 92640, Note_on_c, 0, 50, 93
5, 92880, Note_on_c, 0, 50, 0
5, 93120, Note_on_c, 0, 52, 93
5, 93120, Note_on_c, 0, 55, 93
5, 93360, Note_on_c, 0, 55, 0
5, 93360, Note_on_c, 0, 52, 0
5, 93600, Note_on_c, 0, 52, 93
5, 93600, Note_on_c, 0, 55, 93
5, 93647, Note_on_c, 0, 55, 0
5, 93647, Note_on_c, 0, 52, 0
5, 94080, Note_on_c, 0, 47, 93
5, 94080, Note_on_c, 0, 59, 93
5, 94127, Note_on_c, 0, 59, 0
5, 94127, Note_on_c, 0, 47, 0
5, 94560, Note_on_c, 0, 55, 93
5, 94607, Note_on_c, 0, 55, 0
5, 95040, Note_on_c, 0, 52, 119
5, 95040, Note_on_c, 0, 59, 119
5, 96000, Note_on_c, 0, 59, 0
5, 96000, Note_on_c, 0, 52, 0
5, 96000, Control_c, 0, 64, 127
5, 96000, Note_on_c, 0, 43, 119
5, 96120, Note_on_c, 0, 43, 0
5, 96120, Note_on_c, 0, 45, 93
5, 96240, Note_on_c, 0, 45, 0
5, 96240, Note_on_c, 0, 47, 93
5, 96360, Note_on_c, 0, 47, 0
5, 96360, Note_on_c, 0, 48, 93
5, 96480, Note_on_c, 0, 48, 0
5, 96480, Control_c, 0, 64, 0
5, 96480, Note_on_c, 0, 50, 93
5, 96720, Note_on_c, 0, 50, 0
5, 96960, Note_on_c, 0, 52, 93
5, 96960, Note_on_c, 0, 55, 93
5, 97007, Note_on_c, 0, 55, 0
5, 97007, Note_on_c, 0, 52, 0
5, 97440, Note_on_c, 0, 52, 93
5, 97440, Note_on_c, 0, 55, 93
5, 97487, Note_on_c, 0, 55, 0
5, 97487, Note_on_c, 0, 52, 0
5, 97920, Note_on_c, 0, 47, 93
5, 97920, Note_on_c, 0, 59, 93
5, 97967, Note_on_c, 0, 59, 0
5, 97967, Note_on_c, 0, 47, 0
5, 98400, Note_on_c, 0, 55, 93
5, 98447, Note_on_c, 0, 55, 0
5, 98880, Note_on_c, 0, 52, 119
5, 98880, Note_on_c, 0, 59, 119
5, 99840, Note_on_c, 0, 59, 0
5, 99840, Note_on_c, 0, 52, 0
5, 99840, Note_on_c, 0, 33, 80
5, 100080, Note_on_c, 0, 33, 0
5, 100080, Note_on_c, 0, 32, 80
5, 100103, Note_on_c, 0, 32, 0
5, 100200, Note_on_c, 0, 32, 80
5, 100223, Note_on_c, 0, 32, 0
5, 100320, Note_on_c, 0, 33, 80
5, 100367, Note_on_c, 0, 33, 0
5, 100560, Note_on_c, 0, 35, 80
5, 100583, Note_on_c, 0, 35, 0
5, 100680, Note_on_c, 0, 35, 80
5, 100703, Note_on_c, 0, 35, 0
5, 100800, Note_on_c, 0, 36, 80
5, 100847, Note_on_c, 0, 36, 0
5, 101040, Note_on_c, 0, 37, 80
5, 101063, Note_on_c, 0, 37, 0
5, 101160, Note_on_c, 0, 37, 80
5, 101183, Note_on_c, 0, 37, 0
5, 101280, Note_on_c, 0, 38, 80
5, 101327, Note_on_c, 0, 38, 0
5, 101520, Note_on_c, 0, 30, 80
5, 101543, Note_on_c, 0, 30, 0
5, 101640, Note_on_c, 0, 30, 80
5, 101663, Note_on_c, 0, 30, 0
5, 101760, Note_on_c, 0, 31, 80
5, 101807, Note_on_c, 0, 31, 0
5, 102000, Note_on_c, 0, 30, 80
5, 102023, Note_on_c, 0, 30, 0
5, 102120, Note_on_c, 0, 30, 80
5, 102143, Note_on_c, 0, 30, 0
5, 102240, Note_on_c, 0, 31, 80
5, 102287, Note_on_c, 0, 31, 0
5, 102480, Note_on_c, 0, 33, 80
5, 102503, Note_on_c, 0, 33, 0
5, 102600, Note_on_c, 0, 33, 80
5, 102623, Note_on_c, 0, 33, 0
5, 102720, Note_on_c, 0, 33, 80
5, 102767, Note_on_c, 0, 33, 0
5, 102960, Note_on_c, 0, 35, 80
5, 102983, Note_on_c, 0, 35, 0
5, 103080, Note_on_c, 0, 35, 80
5, 103103, Note_on_c, 0, 35, 0
5, 103200, Note_on_c, 0, 36, 80
5, 103247, Note_on_c, 0, 36, 0
5, 103440, Note_on_c, 0, 28, 80
5, 103463, Note_on_c, 0, 28, 0
5, 103560, Note_on_c, 0, 28, 80
5, 103583, Note_on_c, 0, 28, 0
5, 103680, Note_on_c, 0, 33, 80
5, 103727, Note_on_c, 0, 33, 0
5, 103920, Note_on_c, 0, 34, 80
5, 103943, Note_on_c, 0, 34, 0
5, 104040, Note_on_c, 0, 34, 80
5, 104063, Note_on_c, 0, 34, 0
5, 104160, Note_on_c, 0, 35, 80
5, 104207, Note_on_c, 0, 35, 0
5, 104400, Note_on_c, 0, 36, 80
5, 104423, Note_on_c, 0, 36, 0
5, 104520, Note_on_c, 0, 36, 80
5, 104543, Note_on_c, 0, 36, 0
5, 104640, Note_on_c, 0, 37, 80
5, 104687, Note_on_c, 0, 37, 0
5, 104880, Note_on_c, 0, 39, 80
5, 104903, Note_on_c, 0, 39, 0
5, 105000, Note_on_c, 0, 39, 80
5, 105023, Note_on_c, 0, 39, 0
5, 105120, Note_on_c, 0, 40, 80
5, 105167, Note_on_c, 0, 40, 0
5, 105360, Note_on_c, 0, 43, 80
5, 105383, Note_on_c, 0, 43, 0
5, 105480, Note_on_c, 0, 43, 80
5, 105503, Note_on_c, 0, 43, 0
5, 105600, Note_on_c, 0, 45, 80
5, 105647, Note_on_c, 0, 45, 0
5, 105840, Note_on_c, 0, 47, 80
5, 105863, Note_on_c, 0, 47, 0
5, 105960, Note_on_c, 0, 47, 80
5, 105983, Note_on_c, 0, 47, 0
5, 106080, Note_on_c, 0, 48, 93
5, 106127, Note_on_c, 0, 48, 0
5, 106320, Note_on_c, 0, 49, 93
5, 106343, Note_on_c, 0, 49, 0
5, 106440, Note_on_c, 0, 49, 93
5, 106463, Note_on_c, 0, 49, 0
5, 106560, Note_on_c, 0, 50, 93
5, 106607, Note_on_c, 0, 50, 0
5, 107040, Note_on_c, 0, 38, 106
5, 107040, Note_on_c, 0, 50, 106
5, 107087, Note_on_c, 0, 50, 0
5, 107087, Note_on_c, 0, 38, 0
5, 107520, Control_c, 0, 64, 127
5, 107520, Note_on_c, 0, 43, 119
5, 107640, Note_on_c, 0, 43, 0
5, 107640, Note_on_c, 0, 45, 93
5, 107760, Note_on_c, 0, 45, 0
5, 107760, Note_on_c, 0, 47, 93
5, 107880, Note_on_c, 0, 47, 0
5, 107880, Note_on_c, 0, 48, 93
5, 108000, Note_on_c, 0, 48, 0
5, 108000, Control_c, 0, 64, 0
5, 108000, Note_on_c, 0, 50, 93
5, 108240, Note_on_c, 0, 50, 0
5, 108480, Note_on_c, 0, 52, 93
5, 108480, Note_on_c, 0, 55, 93
5, 108527, Note_on_c, 0, 55, 0
5, 108527, Note_on_c, 0, 52, 0
5, 108960, Note_on_c, 0, 52, 93
5, 108960, Note_on_c, 0, 55, 93
5, 109007, Note_on_c, 0, 55, 0
5, 109007, Note_on_c, 0, 52, 0
5, 109440, Note_on_c, 0, 47, 93
5, 109440, Note_on_c, 0, 59, 93
5, 109487, Note_on_c, 0, 59, 0
5, 109487, Note_on_c, 0, 47, 0
5, 109920, Note_on_c, 0, 55, 93
5, 109967, Note_on_c, 0, 55, 0
5, 110400, Note_on_c, 0, 52, 119
5, 110400, Note_on_c, 0, 59, 119
5, 111360, Note_on_c, 0, 59, 0
5, 111360, Note_on_c, 0, 52, 0
5, 111360, Control_c, 0, 64, 127
5, 111360, Note_on_c, 0, 43, 119
5, 111480, Note_on_c, 0, 43, 0
5, 111480, Note_on_c, 0, 45, 93
5, 111600, Note_on_c, 0, 45, 0
5, 111600, Note_on_c, 0, 47, 93
5, 111720, Note_on_c, 0, 47, 0
5, 111720, Note_on_c, 0, 48, 93
5, 111840, Note_on_c, 0, 48, 0
5, 111840, Control_c, 0, 64, 0
5, 111840, Note_on_c, 0, 50, 93
5, 112080, Note_on_c, 0, 50, 0
5, 112320, Note_on_c, 0, 52, 93
5, 112320, Note_on_c, 0, 55, 93
5, 112367, Note_on_c, 0, 55, 0
5, 112367, Note_on_c, 0, 52, 0
5, 112800, Note_on_c, 0, 52, 93
5, 112800, Note_on_c, 0, 55, 93
5, 112847, Note_on_c, 0, 55, 0
5, 112847, Note_on_c, 0, 52, 0
5, 113280, Note_on_c, 0, 47, 93
5, 113280, Note_on_c, 0, 59, 93
5, 113327, Note_on_c, 0, 59, 0
5, 113327, Note_on_c, 0, 47, 0
5, 113760, Note_on_c, 0, 55, 93
5, 113807, Note_on_c, 0, 55, 0
5, 114240, Note_on_c, 0, 52, 119
5, 114240, Note_on_c, 0, 59, 119
5, 115200, Note_on_c, 0, 59, 0
5, 115200, Note_on_c, 0, 52, 0
5, 115200, Note_on_c, 0, 33, 80
5, 115440, Note_on_c, 0, 33, 0
5, 115440, Note_on_c, 0, 32, 80
5, 115463, Note_on_c, 0, 32, 0
5, 115560, Note_on_c, 0, 32, 80
5, 115583, Note_on_c, 0, 32, 0
5, 115680, Note_on_c, 0, 33, 80
5, 115727, Note_on_c, 0, 33, 0
5, 115920, Note_on_c, 0, 35, 80
5, 115943, Note_on_c, 0, 35, 0
5, 116040, Note_on_c, 0, 35, 80
5, 116063, Note_on_c, 0, 35, 0
5, 116160, Note_on_c, 0, 36, 80
5, 116207, Note_on_c, 0, 36, 0
5, 116400, Note_on_c, 0, 37, 80
5, 116423, Note_on_c, 0, 37, 0
5, 116520, Note_on_c, 0, 37, 80
5, 116543, Note_on_c, 0, 37, 0
5, 116640, Note_on_c, 0, 38, 80
5, 116687, Note_on_c, 0, 38, 0
5, 116880, Note_on_c, 0, 36, 80
5, 116903, Note_on_c, 0, 36, 0
5, 117000, Note_on_c, 0, 36, 80
5, 117023, Note_on_c, 0, 36, 0
5, 117120, Note_on_c, 0, 35, 80
5, 117167, Note_on_c, 0, 35, 0
5, 117360, Note_on_c, 0, 34, 80
5, 117383, Note_on_c, 0, 34, 0
5, 117480, Note_on_c, 0, 34, 80
5, 117503, Note_on_c, 0, 34, 0
5, 117600, Note_on_c, 0, 35, 80
5, 117647, Note_on_c, 0, 35, 0
5, 117840, Note_on_c, 0, 36, 80
5, 117863, Note_on_c, 0, 36, 0
5, 117960, Note_on_c, 0, 36, 80
5, 117983, Note_on_c, 0, 36, 0
5, 118080, Note_on_c, 0, 38, 80
5, 118127, Note_on_c, 0, 38, 0
5, 118320, Note_on_c, 0, 39, 80
5, 118343, Note_on_c, 0, 39, 0
5, 118440, Note_on_c, 0, 39, 80
5, 118463, Note_on_c, 0, 39, 0
5, 118560, Note_on_c, 0, 40, 80
5, 118607, Note_on_c, 0, 40, 0
5, 118800, Note_on_c, 0, 38, 80
5, 118823, Note_on_c, 0, 38, 0
5, 118920, Note_on_c, 0, 38, 80
5, 118943, Note_on_c, 0, 38, 0
5, 119040, Note_on_c, 0, 36, 80
5, 119087, Note_on_c, 0, 36, 0
5, 119280, Note_on_c, 0, 35, 80
5, 119303, Note_on_c, 0, 35, 0
5, 119400, Note_on_c, 0, 35, 80
5, 119423, Note_on_c, 0, 35, 0
5, 119520, Note_on_c, 0, 33, 80
5, 119567, Note_on_c, 0, 33, 0
5, 119760, Note_on_c, 0, 36, 80
5, 119783, Note_on_c, 0, 36, 0
5, 119880, Note_on_c, 0, 36, 80
5, 119903, Note_on_c, 0, 36, 0
5, 120000, Note_on_c, 0, 38, 80
5, 120047, Note_on_c, 0, 38, 0
5, 120240, Note_on_c, 0, 36, 80
5, 120263, Note_on_c, 0, 36, 0
5, 120360, Note_on_c, 0, 36, 80
5, 120383, Note_on_c, 0, 36, 0
5, 120480, Note_on_c, 0, 35, 93
5, 120527, Note_on_c, 0, 35, 0
5, 120720, Note_on_c, 0, 38, 93
5, 120743, Note_on_c, 0, 38, 0
5, 120840, Note_on_c, 0, 38, 93
5, 120863, Note_on_c, 0, 38, 0
5, 120960, Note_on_c, 0, 40, 93
5, 121007, Note_on_c, 0, 40, 0
5, 121200, Note_on_c, 0, 43, 93
5, 121223, Note_on_c, 0, 43, 0
5, 121320, Note_on_c, 0, 43, 93
5, 121343, Note_on_c, 0, 43, 0
5, 121440, Note_on_c, 0, 45, 93
5, 121487, Note_on_c, 0, 45, 0
5, 121680, Note_on_c, 0, 46, 93
5, 121703, Note_on_c, 0, 46, 0
5, 121800, Note_on_c, 0, 46, 93
5, 121823, Note_on_c, 0, 46, 0
5, 121920, Note_on_c, 0, 47, 93
5, 121967, Note_on_c, 0, 47, 0
5, 122400, Note_on_c, 0, 35, 106
5, 122400, Note_on_c, 0, 47, 106
5, 122447, Note_on_c, 0, 47, 0
5, 122447, Note_on_c, 0, 35, 0
5, 124320, Note_on_c, 0, 48, 80
5, 124367, Note_on_c, 0, 48, 0
5, 124800, Note_on_c, 0, 45, 93
5, 125040, Note_on_c, 0, 45, 0
5, 125280, Note_on_c, 0, 42, 93
5, 125280, Note_on_c, 0, 48, 93
5, 125520, Note_on_c, 0, 48, 0
5, 125520, Note_on_c, 0, 42, 0
5, 125760, Note_on_c, 0, 39, 106
5, 125760, Note_on_c, 0, 54, 106
5, 126480, Note_on_c, 0, 54, 0
5, 126480, Note_on_c, 0, 39, 0
5, 132000, Note_on_c, 0, 48, 80
5, 132047, Note_on_c, 0, 48, 0
5, 132480, Note_on_c, 0, 45, 93
5, 132527, Note_on_c, 0, 45, 0
5, 132960, Note_on_c, 0, 42, 93
5, 132960, Note_on_c, 0, 48, 93
5, 133007, Note_on_c, 0, 48, 0
5, 133007, Note_on_c, 0, 42, 0
5, 133440, Note_on_c, 0, 39, 119
5, 133440, Note_on_c, 0, 47, 119
5, 133920, Note_on_c, 0, 47, 0
5, 133920, Note_on_c, 0, 39, 0
5, 133920, Note_on_c, 0, 35, 80
5, 133920, Note_on_c, 0, 47, 80
5, 133967, Note_on_c, 0, 47, 0
5, 133967, Note_on_c, 0, 35, 0
5, 134400, Note_on_c, 0, 40, 80
5, 134447, Note_on_c, 0, 40, 0
5, 134880, Note_on_c, 0, 43, 80
5, 134927, Note_on_c, 0, 43, 0
5, 135360, Note_on_c, 0, 45, 80
5, 135407, Note_on_c, 0, 45, 0
5, 135840, Note_on_c, 0, 48, 80
5, 135887, Note_on_c, 0, 48, 0
5, 136320, Note_on_c, 0, 50, 80
5, 136367, Note_on_c, 0, 50, 0
5, 136800, Note_on_c, 0, 38, 80
5, 136847, Note_on_c, 0, 38, 0
5, 137280, Note_on_c, 0, 47, 93
5, 137327, Note_on_c, 0, 47, 0
5, 137520, Note_on_c, 0, 45, 93
5, 137567, Note_on_c, 0, 45, 0
5, 137760, Note_on_c, 0, 43, 93
5, 137807, Note_on_c, 0, 43, 0
5, 138000, Note_on_c, 0, 42, 93
5, 138047, Note_on_c, 0, 42, 0
5, 138240, Control_c, 0, 64, 127
5, 138240, Note_on_c, 0, 43, 119
5, 138360, Note_on_c, 0, 43, 0
5, 138360, Note_on_c, 0, 45, 93
5, 138480, Note_on_c, 0, 45, 0
5, 138480, Note_on_c, 0, 47, 93
5, 138600, Note_on_c, 0, 47, 0
5, 138600, Note_on_c, 0, 48, 93
5, 138720, Note_on_c, 0, 48, 0
5, 138720, Control_c, 0, 64, 0
5, 138720, Note_on_c, 0, 50, 93
5, 138960, Note_on_c, 0, 50, 0
5, 139200, Note_on_c, 0, 52, 93
5, 139200, Note_on_c, 0, 55, 93
5, 139247, Note_on_c, 0, 55, 0
5, 139247, Note_on_c, 0, 52, 0
5, 139680, Note_on_c, 0, 52, 93
5, 139680, Note_on_c, 0, 55, 93
5, 139727, Note_on_c, 0, 55, 0
5, 139727, Note_on_c, 0, 52, 0
5, 140160, Note_on_c, 0, 47, 93
5, 140160, Note_on_c, 0, 59, 93
5, 140207, Note_on_c, 0, 59, 0
5, 140207, Note_on_c, 0, 47, 0
5, 140640, Note_on_c, 0, 55, 93
5, 140687, Note_on_c, 0, 55, 0
5, 141120, Note_on_c, 0, 52, 119
5, 141120, Note_on_c, 0, 59, 119
5, 142080, Note_on_c, 0, 59, 0
5, 142080, Note_on_c, 0, 52, 0
5, 142080, Control_c, 0, 64, 127
5, 142080, Note_on_c, 0, 43, 119
5, 142200, Note_on_c, 0, 43, 0
5, 142200, Note_on_c, 0, 45, 93
5, 142320, Note_on_c, 0, 45, 0
5, 142320, Note_on_c, 0, 47, 93
5, 142440, Note_on_c, 0, 47, 0
5, 142440, Note_on_c, 0, 48, 93
5, 142560, Note_on_c, 0, 48, 0
5, 142560, Control_c, 0, 64, 0
5, 142560, Note_on_c, 0, 50, 93
5, 142800, Note_on_c, 0, 50, 0
5, 143040, Note_on_c, 0, 52, 93
5, 143040, Note_on_c, 0, 55, 93
5, 143087, Note_on_c, 0, 55, 0
5, 143087, Note_on_c, 0, 52, 0
5, 143520, Note_on_c, 0, 52, 93
5, 143520, Note_on_c, 0, 55, 93
5, 143567, Note_on_c, 0, 55, 0
5, 143567, Note_on_c, 0, 52, 0
5, 144000, Note_on_c, 0, 47, 93
5, 144000, Note_on_c, 0, 59, 93
5, 144047, Note_on_c, 0, 59, 0
5, 144047, Note_on_c, 0, 47, 0
5, 144480, Note_on_c, 0, 55, 93
5, 144527, Note_on_c, 0, 55, 0
5, 144960, Note_on_c, 0, 52, 119
5, 144960, Note_on_c, 0, 59, 119
5, 145920, Note_on_c, 0, 59, 0
5, 145920, Note_on_c, 0, 52, 0
5, 145920, Note_on_c, 0, 33, 80
5, 146160, Note_on_c, 0, 33, 0
5, 146160, Note_on_c, 0, 32, 80
5, 146183, Note_on_c, 0, 32, 0
5, 146280, Note_on_c, 0, 32, 80
5, 146303, Note_on_c, 0, 32, 0
5, 146400, Note_on_c, 0, 33, 80
5, 146447, Note_on_c, 0, 33, 0
5, 146640, Note_on_c, 0, 35, 80
5, 146663, Note_on_c, 0, 35, 0
5, 146760, Note_on_c, 0, 35, 80
5, 146783, Note_on_c, 0, 35, 0
5, 146880, Note_on_c, 0, 36, 80
5, 146927, Note_on_c, 0, 36, 0
5, 147120, Note_on_c, 0, 37, 80
5, 147143, Note_on_c, 0, 37, 0
5, 147240, Note_on_c, 0, 37, 80
5, 147263, Note_on_c, 0, 37, 0
5, 147360, Note_on_c, 0, 38, 80
5, 147407, Note_on_c, 0, 38, 0
5, 147600, Note_on_c, 0, 36, 80
5, 147623, Note_on_c, 0, 36, 0
5, 147720, Note_on_c, 0, 36, 80
5, 147743, Note_on_c, 0, 36, 0
5, 147840, Note_on_c, 0, 35, 80
5, 147887, Note_on_c, 0, 35, 0
5, 148080, Note_on_c, 0, 34, 80
5, 148103, Note_on_c, 0, 34, 0
5, 148200, Note_on_c, 0, 34, 80
5, 148223, Note_on_c, 0, 34, 0
5, 148320, Note_on_c, 0, 35, 80
5, 148367, Note_on_c, 0, 35, 0
5, 148560, Note_on_c, 0, 36, 80
5, 148583, Note_on_c, 0, 36, 0
5, 148680, Note_on_c, 0, 36, 80
5, 148703, Note_on_c, 0, 36, 0
5, 148800, Note_on_c, 0, 38, 80
5, 148847, Note_on_c, 0, 38, 0
5, 149040, Note_on_c, 0, 39, 80
5, 149063, Note_on_c, 0, 39, 0
5, 149160, Note_on_c, 0, 39, 80
5, 149183, Note_on_c, 0, 39, 0
5, 149280, Note_on_c, 0, 40, 80
5, 149327, Note_on_c, 0, 40, 0
5, 149520, Note_on_c, 0, 38, 80
5, 149543, Note_on_c, 0, 38, 0
5, 149640, Note_on_c, 0, 38, 80
5, 149663, Note_on_c, 0, 38, 0
5, 149760, Note_on_c, 0, 36, 80
5, 149807, Note_on_c, 0, 36, 0
5, 150000, Note_on_c, 0, 35, 80
5, 150023, Note_on_c, 0, 35, 0
5, 150120, Note_on_c, 0, 35, 80
5, 150143, Note_on_c, 0, 35, 0
5, 150240, Note_on_c, 0, 33, 80
5, 150287, Note_on_c, 0, 33, 0
5, 150480, Note_on_c, 0, 36, 80
5, 150503, Note_on_c, 0, 36, 0
5, 150600, Note_on_c, 0, 36, 80
5, 150623, Note_on_c, 0, 36, 0
5, 150720, Note_on_c, 0, 38, 80
5, 150767, Note_on_c, 0, 38, 0
5, 150960, Note_on_c, 0, 40, 80
5, 150983, Note_on_c, 0, 40, 0
5, 151080, Note_on_c, 0, 40, 80
5, 151103, Note_on_c, 0, 40, 0
5, 151200, Note_on_c, 0, 42, 93
5, 151247, Note_on_c, 0, 42, 0
5, 151440, Note_on_c, 0, 38, 93
5, 151463, Note_on_c, 0, 38, 0
5, 151560, Note_on_c, 0, 38, 93
5, 151583, Note_on_c, 0, 38, 0
5, 151680, Note_on_c, 0, 35, 93
5, 151727, Note_on_c, 0, 35, 0
5, 151920, Note_on_c, 0, 47, 93
5, 151943, Note_on_c, 0, 47, 0
5, 152040, Note_on_c, 0, 47, 93
5, 152063, Note_on_c, 0, 47, 0
5, 152160, Note_on_c, 0, 45, 93
5, 152207, Note_on_c, 0, 45, 0
5, 152400, Note_on_c, 0, 38, 93
5, 152423, Note_on_c, 0, 38, 0
5, 152520, Note_on_c, 0, 38, 93
5, 152543, Note_on_c, 0, 38, 0
5, 152640, Note_on_c, 0, 43, 93
5, 152687, Note_on_c, 0, 43, 0
5, 153120, Note_on_c, 0, 31, 93
5, 153120, Note_on_c, 0, 43, 93
5, 153167, Note_on_c, 0, 43, 0
5, 153167, Note_on_c, 0, 31, 0
5, 153167, End_track
0, 0, End_of_file
