0, 0, Header, 1, 5, 480
1, 0, Start_track
1, 0, Title_t, "tchaikovsky nutcracker act1 3 petit galop"
1, 0, Copyright_t, "Adaptation for Disklavier pianos, by: Robert C. Kuhmann (c) 2012."
1, 0, Time_signature, 2, 2, 24, 8
1, 0, Key_signature, 1, "major"
1, 0, Tempo, 363636
1, 42240, Time_signature, 3, 2, 24, 8
1, 42240, Key_signature, 0, "major"
1, 42240, Tempo, 731707
1, 63840, Time_signature, 5, 2, 24, 8
1, 66240, Time_signature, 6, 3, 12, 8
1, 66240, Key_signature, -1, "major"
1, 66240, Tempo, 333333
1, 148320, Time_signature, 8, 2, 24, 8
1, 148320, End_track
2, 0, Start_track
2, 0, Title_t, "Grand Piano"
2, 0, Program_c, 0, 0
2, 0, Control_c, 0, 7, 115
2, 0, Control_c, 0, 10, 86
2, 3600, Note_on_c, 0, 74, 62
2, 3720, Note_on_c, 0, 74, 0
2, 3720, Note_on_c, 0, 73, 62
2, 3840, Note_on_c, 0, 73, 0
2, 3840, Note_on_c, 0, 74, 62
2, 3887, Note_on_c, 0, 74, 0
2, 4080, Note_on_c, 0, 67, 62
2, 4200, Note_on_c, 0, 67, 0
2, 4200, Note_on_c, 0, 66, 62
2, 4320, Note_on_c, 0, 66, 0
2, 4320, Note_on_c, 0, 67, 62
2, 4367, Note_on_c, 0, 67, 0
2, 4560, Note_on_c, 0, 69, 62
2, 4680, Note_on_c, 0, 69, 0
2, 4680, Note_on_c, 0, 68, 62
2, 4800, Note_on_c, 0, 68, 0
2, 4800, Note_on_c, 0, 69, 62
2, 4847, Note_on_c, 0, 69, 0
2, 5040, Note_on_c, 0, 76, 62
2, 5087, Note_on_c, 0, 76, 0
2, 5280, Note_on_c, 0, 74, 62
2, 5327, Note_on_c, 0, 74, 0
2, 5520, Note_on_c, 0, 74, 62
2, 5640, Note_on_c, 0, 74, 0
2, 5640, Note_on_c, 0, 73, 62
2, 5760, Note_on_c, 0, 73, 0
2, 5760, Note_on_c, 0, 74, 62
2, 5807, Note_on_c, 0, 74, 0
2, 6000, Note_on_c, 0, 67, 62
2, 6120, Note_on_c, 0, 67, 0
2, 6120, Note_on_c, 0, 66, 62
2, 6240, Note_on_c, 0, 66, 0
2, 6240, Note_on_c, 0, 67, 62
2, 6287, Note_on_c, 0, 67, 0
2, 6480, Note_on_c, 0, 69, 62
2, 6600, Note_on_c, 0, 69, 0
2, 6600, Note_on_c, 0, 68, 62
2, 6720, Note_on_c, 0, 68, 0
2, 6720, Note_on_c, 0, 69, 62
2, 6767, Note_on_c, 0, 69, 0
2, 6960, Note_on_c, 0, 76, 62
2, 7007, Note_on_c, 0, 76, 0
2, 7200, Note_on_c, 0, 74, 62
2, 7560, Note_on_c, 0, 74, 0
2, 7560, Note_on_c, 0, 74, 62
2, 7680, Note_on_c, 0, 74, 0
2, 7680, Control_c, 0, 64, 127
2, 7680, Note_on_c, 0, 79, 62
2, 7800, Note_on_c, 0, 79, 0
2, 7800, Note_on_c, 0, 78, 62
2, 7920, Note_on_c, 0, 78, 0
2, 7920, Note_on_c, 0, 79, 62
2, 8040, Note_on_c, 0, 79, 0
2, 8040, Control_c, 0, 64, 0
2, 8040, Note_on_c, 0, 74, 62
2, 8160, Note_on_c, 0, 74, 0
2, 8160, Control_c, 0, 64, 127
2, 8160, Note_on_c, 0, 79, 62
2, 8280, Note_on_c, 0, 79, 0
2, 8280, Note_on_c, 0, 78, 62
2, 8400, Note_on_c, 0, 78, 0
2, 8400, Note_on_c, 0, 79, 62
2, 8520, Note_on_c, 0, 79, 0
2, 8520, Control_c, 0, 64, 0
2, 8520, Note_on_c, 0, 74, 62
2, 8640, Note_on_c, 0, 74, 0
2, 8640, Control_c, 0, 64, 127
2, 8640, Note_on_c, 0, 79, 75
2, 8760, Note_on_c, 0, 79, 0
2, 8760, Note_on_c, 0, 78, 75
2, 8880, Note_on_c, 0, 78, 0
2, 8880, Note_on_c, 0, 79, 75
2, 9000, Note_on_c, 0, 79, 0
2, 9000, Control_c, 0, 64, 0
2, 9000, Note_on_c, 0, 74, 75
2, 9120, Note_on_c, 0, 74, 0
2, 9120, Control_c, 0, 64, 127
2, 9120, Note_on_c, 0, 79, 75
2, 9240, Note_on_c, 0, 79, 0
2, 9240, Note_on_c, 0, 78, 75
2, 9360, Note_on_c, 0, 78, 0
2, 9360, Note_on_c, 0, 79, 75
2, 9480, Note_on_c, 0, 79, 0
2, 9480, Control_c, 0, 64, 0
2, 9480, Note_on_c, 0, 74, 75
2, 9600, Note_on_c, 0, 74, 0
2, 9600, Control_c, 0, 64, 127
2, 9600, Note_on_c, 0, 79, 75
2, 9720, Note_on_c, 0, 79, 0
2, 9720, Note_on_c, 0, 78, 75
2, 9840, Note_on_c, 0, 78, 0
2, 9840, Note_on_c, 0, 79, 75
2, 9960, Note_on_c, 0, 79, 0
2, 9960, Control_c, 0, 64, 0
2, 9960, Note_on_c, 0, 74, 75
2, 10080, Note_on_c, 0, 74, 0
2, 10080, Control_c, 0, 64, 127
2, 10080, Note_on_c, 0, 76, 75
2, 10200, Note_on_c, 0, 76, 0
2, 10200, Note_on_c, 0, 74, 75
2, 10320, Note_on_c, 0, 74, 0
2, 10320, Note_on_c, 0, 72, 75
2, 10440, Note_on_c, 0, 72, 0
2, 10440, Control_c, 0, 64, 0
2, 10440, Note_on_c, 0, 71, 75
2, 10560, Note_on_c, 0, 71, 0
2, 10560, Control_c, 0, 64, 127
2, 10560, Note_on_c, 0, 74, 88
2, 10680, Note_on_c, 0, 74, 0
2, 10680, Note_on_c, 0, 72, 88
2, 10800, Note_on_c, 0, 72, 0
2, 10800, Note_on_c, 0, 69, 88
2, 10920, Note_on_c, 0, 69, 0
2, 10920, Note_on_c, 0, 66, 88
2, 11040, Note_on_c, 0, 66, 0
2, 11040, Control_c, 0, 64, 0
2, 11040, Note_on_c, 0, 62, 88
2, 11280, Note_on_c, 0, 62, 0
2, 11280, Note_on_c, 0, 74, 62
2, 11400, Note_on_c, 0, 74, 0
2, 11400, Note_on_c, 0, 73, 62
2, 11520, Note_on_c, 0, 73, 0
2, 11520, Note_on_c, 0, 74, 62
2, 11567, Note_on_c, 0, 74, 0
2, 11760, Note_on_c, 0, 67, 62
2, 11880, Note_on_c, 0, 67, 0
2, 11880, Note_on_c, 0, 66, 62
2, 12000, Note_on_c, 0, 66, 0
2, 12000, Note_on_c, 0, 67, 62
2, 12047, Note_on_c, 0, 67, 0
2, 12240, Note_on_c, 0, 69, 62
2, 12360, Note_on_c, 0, 69, 0
2, 12360, Note_on_c, 0, 68, 62
2, 12480, Note_on_c, 0, 68, 0
2, 12480, Note_on_c, 0, 69, 62
2, 12527, Note_on_c, 0, 69, 0
2, 12720, Note_on_c, 0, 76, 62
2, 12767, Note_on_c, 0, 76, 0
2, 12960, Note_on_c, 0, 74, 62
2, 13007, Note_on_c, 0, 74, 0
2, 13200, Note_on_c, 0, 74, 62
2, 13320, Note_on_c, 0, 74, 0
2, 13320, Note_on_c, 0, 73, 62
2, 13440, Note_on_c, 0, 73, 0
2, 13440, Note_on_c, 0, 74, 62
2, 13487, Note_on_c, 0, 74, 0
2, 13680, Note_on_c, 0, 67, 62
2, 13800, Note_on_c, 0, 67, 0
2, 13800, Note_on_c, 0, 66, 62
2, 13920, Note_on_c, 0, 66, 0
2, 13920, Note_on_c, 0, 67, 62
2, 13967, Note_on_c, 0, 67, 0
2, 14160, Note_on_c, 0, 69, 62
2, 14280, Note_on_c, 0, 69, 0
2, 14280, Note_on_c, 0, 68, 62
2, 14400, Note_on_c, 0, 68, 0
2, 14400, Note_on_c, 0, 69, 62
2, 14447, Note_on_c, 0, 69, 0
2, 14640, Note_on_c, 0, 76, 62
2, 14687, Note_on_c, 0, 76, 0
2, 14880, Note_on_c, 0, 74, 62
2, 15240, Note_on_c, 0, 74, 0
2, 15240, Note_on_c, 0, 74, 62
2, 15360, Note_on_c, 0, 74, 0
2, 15360, Control_c, 0, 64, 127
2, 15360, Note_on_c, 0, 79, 62
2, 15480, Note_on_c, 0, 79, 0
2, 15480, Note_on_c, 0, 78, 62
2, 15600, Note_on_c, 0, 78, 0
2, 15600, Note_on_c, 0, 79, 62
2, 15720, Note_on_c, 0, 79, 0
2, 15720, Control_c, 0, 64, 0
2, 15720, Note_on_c, 0, 74, 62
2, 15840, Note_on_c, 0, 74, 0
2, 15840, Control_c, 0, 64, 127
2, 15840, Note_on_c, 0, 79, 62
2, 15960, Note_on_c, 0, 79, 0
2, 15960, Note_on_c, 0, 78, 62
2, 16080, Note_on_c, 0, 78, 0
2, 16080, Note_on_c, 0, 79, 62
2, 16200, Note_on_c, 0, 79, 0
2, 16200, Control_c, 0, 64, 0
2, 16200, Note_on_c, 0, 74, 62
2, 16320, Note_on_c, 0, 74, 0
2, 16320, Control_c, 0, 64, 127
2, 16320, Note_on_c, 0, 79, 75
2, 16440, Note_on_c, 0, 79, 0
2, 16440, Note_on_c, 0, 78, 75
2, 16560, Note_on_c, 0, 78, 0
2, 16560, Note_on_c, 0, 79, 75
2, 16680, Note_on_c, 0, 79, 0
2, 16680, Control_c, 0, 64, 0
2, 16680, Note_on_c, 0, 74, 75
2, 16800, Note_on_c, 0, 74, 0
2, 16800, Control_c, 0, 64, 127
2, 16800, Note_on_c, 0, 79, 75
2, 16920, Note_on_c, 0, 79, 0
2, 16920, Note_on_c, 0, 78, 75
2, 17040, Note_on_c, 0, 78, 0
2, 17040, Note_on_c, 0, 79, 75
2, 17160, Note_on_c, 0, 79, 0
2, 17160, Control_c, 0, 64, 0
2, 17160, Note_on_c, 0, 74, 75
2, 17280, Note_on_c, 0, 74, 0
2, 17280, Control_c, 0, 64, 127
2, 17280, Note_on_c, 0, 79, 75
2, 17400, Note_on_c, 0, 79, 0
2, 17400, Note_on_c, 0, 78, 75
2, 17520, Note_on_c, 0, 78, 0
2, 17520, Note_on_c, 0, 79, 75
2, 17640, Note_on_c, 0, 79, 0
2, 17640, Control_c, 0, 64, 0
2, 17640, Note_on_c, 0, 74, 75
2, 17760, Note_on_c, 0, 74, 0
2, 17760, Control_c, 0, 64, 127
2, 17760, Note_on_c, 0, 79, 75
2, 17880, Note_on_c, 0, 79, 0
2, 17880, Note_on_c, 0, 78, 75
2, 18000, Note_on_c, 0, 78, 0
2, 18000, Note_on_c, 0, 79, 75
2, 18120, Note_on_c, 0, 79, 0
2, 18120, Control_c, 0, 64, 0
2, 18120, Note_on_c, 0, 74, 75
2, 18240, Note_on_c, 0, 74, 0
2, 18240, Control_c, 0, 64, 127
2, 18240, Note_on_c, 0, 78, 88
2, 18360, Note_on_c, 0, 78, 0
2, 18360, Note_on_c, 0, 76, 88
2, 18480, Note_on_c, 0, 76, 0
2, 18480, Note_on_c, 0, 74, 88
2, 18600, Note_on_c, 0, 74, 0
2, 18600, Note_on_c, 0, 73, 88
2, 18720, Note_on_c, 0, 73, 0
2, 18720, Control_c, 0, 64, 0
2, 18720, Note_on_c, 0, 74, 88
2, 18960, Note_on_c, 0, 74, 0
2, 18960, Note_on_c, 0, 76, 62
2, 19080, Note_on_c, 0, 76, 0
2, 19080, Note_on_c, 0, 75, 62
2, 19200, Note_on_c, 0, 75, 0
2, 19200, Note_on_c, 0, 76, 62
2, 19247, Note_on_c, 0, 76, 0
2, 19440, Note_on_c, 0, 69, 62
2, 19560, Note_on_c, 0, 69, 0
2, 19560, Note_on_c, 0, 68, 62
2, 19680, Note_on_c, 0, 68, 0
2, 19680, Note_on_c, 0, 69, 62
2, 19727, Note_on_c, 0, 69, 0
2, 19920, Note_on_c, 0, 71, 62
2, 20040, Note_on_c, 0, 71, 0
2, 20040, Note_on_c, 0, 70, 62
2, 20160, Note_on_c, 0, 70, 0
2, 20160, Note_on_c, 0, 71, 62
2, 20207, Note_on_c, 0, 71, 0
2, 20400, Note_on_c, 0, 74, 62
2, 20447, Note_on_c, 0, 74, 0
2, 20640, Note_on_c, 0, 72, 62
2, 20687, Note_on_c, 0, 72, 0
2, 20880, Note_on_c, 0, 74, 62
2, 21000, Note_on_c, 0, 74, 0
2, 21000, Note_on_c, 0, 73, 62
2, 21120, Note_on_c, 0, 73, 0
2, 21120, Note_on_c, 0, 74, 62
2, 21167, Note_on_c, 0, 74, 0
2, 21360, Note_on_c, 0, 67, 62
2, 21480, Note_on_c, 0, 67, 0
2, 21480, Note_on_c, 0, 66, 62
2, 21600, Note_on_c, 0, 66, 0
2, 21600, Note_on_c, 0, 67, 62
2, 21647, Note_on_c, 0, 67, 0
2, 21840, Note_on_c, 0, 79, 62
2, 21960, Note_on_c, 0, 79, 0
2, 21960, Note_on_c, 0, 78, 62
2, 22080, Note_on_c, 0, 78, 0
2, 22080, Note_on_c, 0, 79, 62
2, 22127, Note_on_c, 0, 79, 0
2, 22320, Note_on_c, 0, 76, 62
2, 22367, Note_on_c, 0, 76, 0
2, 22560, Note_on_c, 0, 78, 62
2, 22607, Note_on_c, 0, 78, 0
2, 22800, Note_on_c, 0, 76, 62
2, 22920, Note_on_c, 0, 76, 0
2, 22920, Note_on_c, 0, 75, 62
2, 23040, Note_on_c, 0, 75, 0
2, 23040, Note_on_c, 0, 76, 62
2, 23087, Note_on_c, 0, 76, 0
2, 23280, Note_on_c, 0, 69, 75
2, 23400, Note_on_c, 0, 69, 0
2, 23400, Note_on_c, 0, 68, 75
2, 23520, Note_on_c, 0, 68, 0
2, 23520, Note_on_c, 0, 69, 75
2, 23567, Note_on_c, 0, 69, 0
2, 23760, Note_on_c, 0, 71, 75
2, 23880, Note_on_c, 0, 71, 0
2, 23880, Note_on_c, 0, 70, 75
2, 24000, Note_on_c, 0, 70, 0
2, 24000, Note_on_c, 0, 71, 75
2, 24047, Note_on_c, 0, 71, 0
2, 24240, Note_on_c, 0, 74, 75
2, 24287, Note_on_c, 0, 74, 0
2, 24480, Note_on_c, 0, 72, 75
2, 24527, Note_on_c, 0, 72, 0
2, 24720, Note_on_c, 0, 74, 75
2, 24840, Note_on_c, 0, 74, 0
2, 24840, Note_on_c, 0, 73, 75
2, 24960, Note_on_c, 0, 73, 0
2, 24960, Note_on_c, 0, 74, 75
2, 25007, Note_on_c, 0, 74, 0
2, 25200, Note_on_c, 0, 67, 75
2, 25320, Note_on_c, 0, 67, 0
2, 25320, Note_on_c, 0, 66, 75
2, 25440, Note_on_c, 0, 66, 0
2, 25440, Note_on_c, 0, 67, 75
2, 25463, Note_on_c, 0, 67, 0
2, 25560, Note_on_c, 0, 71, 75
2, 25583, Note_on_c, 0, 71, 0
2, 25680, Note_on_c, 0, 74, 75
2, 25703, Note_on_c, 0, 74, 0
2, 25800, Note_on_c, 0, 79, 75
2, 25823, Note_on_c, 0, 79, 0
2, 25920, Control_c, 0, 64, 127
2, 25920, Note_on_c, 0, 83, 88
2, 26040, Note_on_c, 0, 83, 0
2, 26040, Note_on_c, 0, 81, 88
2, 26160, Note_on_c, 0, 81, 0
2, 26160, Note_on_c, 0, 79, 88
2, 26280, Note_on_c, 0, 79, 0
2, 26280, Note_on_c, 0, 76, 88
2, 26400, Note_on_c, 0, 76, 0
2, 26400, Control_c, 0, 64, 0
2, 26400, Note_on_c, 0, 74, 88
2, 26640, Note_on_c, 0, 74, 0
2, 26640, Note_on_c, 0, 86, 75
2, 26760, Note_on_c, 0, 86, 0
2, 26760, Note_on_c, 0, 85, 75
2, 26880, Note_on_c, 0, 85, 0
2, 26880, Note_on_c, 0, 86, 75
2, 26927, Note_on_c, 0, 86, 0
2, 27120, Note_on_c, 0, 79, 75
2, 27240, Note_on_c, 0, 79, 0
2, 27240, Note_on_c, 0, 78, 75
2, 27360, Note_on_c, 0, 78, 0
2, 27360, Note_on_c, 0, 79, 75
2, 27407, Note_on_c, 0, 79, 0
2, 27600, Note_on_c, 0, 81, 75
2, 27720, Note_on_c, 0, 81, 0
2, 27720, Note_on_c, 0, 80, 75
2, 27840, Note_on_c, 0, 80, 0
2, 27840, Note_on_c, 0, 81, 75
2, 27887, Note_on_c, 0, 81, 0
2, 28080, Note_on_c, 0, 88, 75
2, 28127, Note_on_c, 0, 88, 0
2, 28320, Note_on_c, 0, 86, 75
2, 28367, Note_on_c, 0, 86, 0
2, 28560, Note_on_c, 0, 86, 75
2, 28680, Note_on_c, 0, 86, 0
2, 28680, Note_on_c, 0, 85, 75
2, 28800, Note_on_c, 0, 85, 0
2, 28800, Note_on_c, 0, 86, 75
2, 28847, Note_on_c, 0, 86, 0
2, 29040, Note_on_c, 0, 79, 75
2, 29160, Note_on_c, 0, 79, 0
2, 29160, Note_on_c, 0, 78, 75
2, 29280, Note_on_c, 0, 78, 0
2, 29280, Note_on_c, 0, 79, 75
2, 29327, Note_on_c, 0, 79, 0
2, 29520, Note_on_c, 0, 81, 75
2, 29640, Note_on_c, 0, 81, 0
2, 29640, Note_on_c, 0, 80, 75
2, 29760, Note_on_c, 0, 80, 0
2, 29760, Note_on_c, 0, 81, 75
2, 29807, Note_on_c, 0, 81, 0
2, 30000, Note_on_c, 0, 88, 75
2, 30047, Note_on_c, 0, 88, 0
2, 30240, Note_on_c, 0, 86, 75
2, 30600, Note_on_c, 0, 86, 0
2, 30600, Note_on_c, 0, 86, 62
2, 30720, Note_on_c, 0, 86, 0
2, 30720, Control_c, 0, 64, 127
2, 30720, Note_on_c, 0, 91, 62
2, 30840, Note_on_c, 0, 91, 0
2, 30840, Note_on_c, 0, 90, 62
2, 30960, Note_on_c, 0, 90, 0
2, 30960, Note_on_c, 0, 91, 62
2, 31080, Note_on_c, 0, 91, 0
2, 31080, Control_c, 0, 64, 0
2, 31080, Note_on_c, 0, 86, 62
2, 31200, Note_on_c, 0, 86, 0
2, 31200, Control_c, 0, 64, 127
2, 31200, Note_on_c, 0, 91, 62
2, 31320, Note_on_c, 0, 91, 0
2, 31320, Note_on_c, 0, 90, 62
2, 31440, Note_on_c, 0, 90, 0
2, 31440, Note_on_c, 0, 91, 62
2, 31560, Note_on_c, 0, 91, 0
2, 31560, Control_c, 0, 64, 0
2, 31560, Note_on_c, 0, 86, 62
2, 31680, Note_on_c, 0, 86, 0
2, 31680, Control_c, 0, 64, 127
2, 31680, Note_on_c, 0, 91, 75
2, 31800, Note_on_c, 0, 91, 0
2, 31800, Note_on_c, 0, 90, 75
2, 31920, Note_on_c, 0, 90, 0
2, 31920, Note_on_c, 0, 91, 75
2, 32040, Note_on_c, 0, 91, 0
2, 32040, Control_c, 0, 64, 0
2, 32040, Note_on_c, 0, 86, 75
2, 32160, Note_on_c, 0, 86, 0
2, 32160, Control_c, 0, 64, 127
2, 32160, Note_on_c, 0, 91, 75
2, 32280, Note_on_c, 0, 91, 0
2, 32280, Note_on_c, 0, 90, 75
2, 32400, Note_on_c, 0, 90, 0
2, 32400, Note_on_c, 0, 91, 75
2, 32520, Note_on_c, 0, 91, 0
2, 32520, Control_c, 0, 64, 0
2, 32520, Note_on_c, 0, 86, 75
2, 32640, Note_on_c, 0, 86, 0
2, 32640, Control_c, 0, 64, 127
2, 32640, Note_on_c, 0, 91, 75
2, 32760, Note_on_c, 0, 91, 0
2, 32760, Note_on_c, 0, 90, 75
2, 32880, Note_on_c, 0, 90, 0
2, 32880, Note_on_c, 0, 91, 75
2, 33000, Note_on_c, 0, 91, 0
2, 33000, Control_c, 0, 64, 0
2, 33000, Note_on_c, 0, 86, 75
2, 33120, Note_on_c, 0, 86, 0
2, 33120, Control_c, 0, 64, 127
2, 33120, Note_on_c, 0, 88, 75
2, 33240, Note_on_c, 0, 88, 0
2, 33240, Note_on_c, 0, 86, 75
2, 33360, Note_on_c, 0, 86, 0
2, 33360, Note_on_c, 0, 84, 75
2, 33480, Note_on_c, 0, 84, 0
2, 33480, Control_c, 0, 64, 0
2, 33480, Note_on_c, 0, 83, 75
2, 33600, Note_on_c, 0, 83, 0
2, 33600, Control_c, 0, 64, 127
2, 33600, Note_on_c, 0, 86, 88
2, 33720, Note_on_c, 0, 86, 0
2, 33720, Note_on_c, 0, 84, 88
2, 33840, Note_on_c, 0, 84, 0
2, 33840, Note_on_c, 0, 81, 88
2, 33960, Note_on_c, 0, 81, 0
2, 33960, Note_on_c, 0, 78, 88
2, 34080, Note_on_c, 0, 78, 0
2, 34080, Control_c, 0, 64, 0
2, 34080, Note_on_c, 0, 74, 88
2, 34320, Note_on_c, 0, 74, 0
2, 34320, Note_on_c, 0, 86, 75
2, 34440, Note_on_c, 0, 86, 0
2, 34440, Note_on_c, 0, 85, 75
2, 34560, Note_on_c, 0, 85, 0
2, 34560, Note_on_c, 0, 86, 75
2, 34607, Note_on_c, 0, 86, 0
2, 34800, Note_on_c, 0, 79, 75
2, 34920, Note_on_c, 0, 79, 0
2, 34920, Note_on_c, 0, 78, 75
2, 35040, Note_on_c, 0, 78, 0
2, 35040, Note_on_c, 0, 79, 75
2, 35087, Note_on_c, 0, 79, 0
2, 35280, Note_on_c, 0, 81, 75
2, 35400, Note_on_c, 0, 81, 0
2, 35400, Note_on_c, 0, 80, 75
2, 35520, Note_on_c, 0, 80, 0
2, 35520, Note_on_c, 0, 81, 75
2, 35567, Note_on_c, 0, 81, 0
2, 35760, Note_on_c, 0, 88, 75
2, 35807, Note_on_c, 0, 88, 0
2, 36000, Note_on_c, 0, 86, 75
2, 36047, Note_on_c, 0, 86, 0
2, 36240, Note_on_c, 0, 86, 75
2, 36360, Note_on_c, 0, 86, 0
2, 36360, Note_on_c, 0, 85, 75
2, 36480, Note_on_c, 0, 85, 0
2, 36480, Note_on_c, 0, 86, 75
2, 36527, Note_on_c, 0, 86, 0
2, 36720, Note_on_c, 0, 79, 75
2, 36840, Note_on_c, 0, 79, 0
2, 36840, Note_on_c, 0, 78, 75
2, 36960, Note_on_c, 0, 78, 0
2, 36960, Note_on_c, 0, 79, 75
2, 37007, Note_on_c, 0, 79, 0
2, 37200, Note_on_c, 0, 81, 75
2, 37320, Note_on_c, 0, 81, 0
2, 37320, Note_on_c, 0, 80, 75
2, 37440, Note_on_c, 0, 80, 0
2, 37440, Note_on_c, 0, 81, 75
2, 37487, Note_on_c, 0, 81, 0
2, 37680, Note_on_c, 0, 88, 75
2, 37727, Note_on_c, 0, 88, 0
2, 37920, Note_on_c, 0, 86, 75
2, 38280, Note_on_c, 0, 86, 0
2, 38280, Note_on_c, 0, 86, 62
2, 38400, Note_on_c, 0, 86, 0
2, 38400, Control_c, 0, 64, 127
2, 38400, Note_on_c, 0, 91, 62
2, 38520, Note_on_c, 0, 91, 0
2, 38520, Note_on_c, 0, 90, 62
2, 38640, Note_on_c, 0, 90, 0
2, 38640, Note_on_c, 0, 91, 62
2, 38760, Note_on_c, 0, 91, 0
2, 38760, Control_c, 0, 64, 0
2, 38760, Note_on_c, 0, 86, 62
2, 38880, Note_on_c, 0, 86, 0
2, 38880, Control_c, 0, 64, 127
2, 38880, Note_on_c, 0, 91, 62
2, 39000, Note_on_c, 0, 91, 0
2, 39000, Note_on_c, 0, 90, 62
2, 39120, Note_on_c, 0, 90, 0
2, 39120, Note_on_c, 0, 91, 62
2, 39240, Note_on_c, 0, 91, 0
2, 39240, Control_c, 0, 64, 0
2, 39240, Note_on_c, 0, 86, 62
2, 39360, Note_on_c, 0, 86, 0
2, 39360, Control_c, 0, 64, 127
2, 39360, Note_on_c, 0, 91, 75
2, 39480, Note_on_c, 0, 91, 0
2, 39480, Note_on_c, 0, 90, 75
2, 39600, Note_on_c, 0, 90, 0
2, 39600, Note_on_c, 0, 91, 75
2, 39720, Note_on_c, 0, 91, 0
2, 39720, Control_c, 0, 64, 0
2, 39720, Note_on_c, 0, 86, 75
2, 39840, Note_on_c, 0, 86, 0
2, 39840, Control_c, 0, 64, 127
2, 39840, Note_on_c, 0, 91, 75
2, 39960, Note_on_c, 0, 91, 0
2, 39960, Note_on_c, 0, 90, 75
2, 40080, Note_on_c, 0, 90, 0
2, 40080, Note_on_c, 0, 91, 75
2, 40200, Note_on_c, 0, 91, 0
2, 40200, Control_c, 0, 64, 0
2, 40200, Note_on_c, 0, 86, 75
2, 40320, Note_on_c, 0, 86, 0
2, 40320, Control_c, 0, 64, 127
2, 40320, Note_on_c, 0, 91, 75
2, 40440, Note_on_c, 0, 91, 0
2, 40440, Note_on_c, 0, 90, 75
2, 40560, Note_on_c, 0, 90, 0
2, 40560, Note_on_c, 0, 91, 75
2, 40680, Note_on_c, 0, 91, 0
2, 40680, Control_c, 0, 64, 0
2, 40680, Note_on_c, 0, 86, 75
2, 40800, Note_on_c, 0, 86, 0
2, 40800, Control_c, 0, 64, 127
2, 40800, Note_on_c, 0, 91, 88
2, 40920, Note_on_c, 0, 91, 0
2, 40920, Note_on_c, 0, 90, 88
2, 41040, Note_on_c, 0, 90, 0
2, 41040, Note_on_c, 0, 91, 88
2, 41160, Note_on_c, 0, 91, 0
2, 41160, Control_c, 0, 64, 0
2, 41160, Note_on_c, 0, 86, 88
2, 41280, Note_on_c, 0, 86, 0
2, 41280, Control_c, 0, 64, 127
2, 41280, Note_on_c, 0, 91, 88
2, 41400, Note_on_c, 0, 91, 0
2, 41400, Note_on_c, 0, 90, 88
2, 41520, Note_on_c, 0, 90, 0
2, 41520, Note_on_c, 0, 91, 88
2, 41640, Note_on_c, 0, 91, 0
2, 41640, Control_c, 0, 64, 0
2, 41640, Note_on_c, 0, 86, 88
2, 41760, Note_on_c, 0, 86, 0
2, 41760, Control_c, 0, 64, 127
2, 41760, Note_on_c, 0, 91, 101
2, 41880, Note_on_c, 0, 91, 0
2, 41880, Note_on_c, 0, 90, 101
2, 42000, Note_on_c, 0, 90, 0
2, 42000, Note_on_c, 0, 91, 101
2, 42120, Note_on_c, 0, 91, 0
2, 42120, Control_c, 0, 64, 0
2, 42120, Note_on_c, 0, 86, 101
2, 42240, Note_on_c, 0, 86, 0
2, 42240, Control_c, 0, 64, 127
2, 42240, Note_on_c, 0, 91, 75
2, 42300, Note_on_c, 0, 91, 0
2, 42300, Note_on_c, 0, 90, 75
2, 42360, Note_on_c, 0, 90, 0
2, 42360, Note_on_c, 0, 91, 75
2, 42420, Note_on_c, 0, 91, 0
2, 42420, Note_on_c, 0, 84, 75
2, 42480, Note_on_c, 0, 84, 0
2, 42480, Note_on_c, 0, 91, 75
2, 42540, Note_on_c, 0, 91, 0
2, 42540, Note_on_c, 0, 90, 75
2, 42600, Note_on_c, 0, 90, 0
2, 42600, Note_on_c, 0, 91, 75
2, 42660, Note_on_c, 0, 91, 0
2, 42660, Control_c, 0, 64, 0
2, 42660, Note_on_c, 0, 84, 75
2, 42720, Note_on_c, 0, 84, 0
2, 42720, Control_c, 0, 64, 127
2, 42720, Note_on_c, 0, 91, 75
2, 42780, Note_on_c, 0, 91, 0
2, 42780, Note_on_c, 0, 90, 75
2, 42840, Note_on_c, 0, 90, 0
2, 42840, Note_on_c, 0, 91, 75
2, 42900, Note_on_c, 0, 91, 0
2, 42900, Note_on_c, 0, 84, 75
2, 42960, Note_on_c, 0, 84, 0
2, 42960, Note_on_c, 0, 91, 75
2, 43020, Note_on_c, 0, 91, 0
2, 43020, Note_on_c, 0, 90, 75
2, 43080, Note_on_c, 0, 90, 0
2, 43080, Note_on_c, 0, 91, 75
2, 43140, Note_on_c, 0, 91, 0
2, 43140, Control_c, 0, 64, 0
2, 43140, Note_on_c, 0, 84, 75
2, 43200, Note_on_c, 0, 84, 0
2, 43200, Control_c, 0, 64, 127
2, 43200, Note_on_c, 0, 91, 75
2, 43260, Note_on_c, 0, 91, 0
2, 43260, Note_on_c, 0, 90, 75
2, 43320, Note_on_c, 0, 90, 0
2, 43320, Note_on_c, 0, 91, 75
2, 43380, Note_on_c, 0, 91, 0
2, 43380, Note_on_c, 0, 83, 75
2, 43440, Note_on_c, 0, 83, 0
2, 43440, Note_on_c, 0, 91, 75
2, 43500, Note_on_c, 0, 91, 0
2, 43500, Note_on_c, 0, 90, 75
2, 43560, Note_on_c, 0, 90, 0
2, 43560, Note_on_c, 0, 91, 75
2, 43620, Note_on_c, 0, 91, 0
2, 43620, Control_c, 0, 64, 0
2, 43620, Note_on_c, 0, 83, 75
2, 43680, Note_on_c, 0, 83, 0
2, 43680, Control_c, 0, 64, 127
2, 43680, Note_on_c, 0, 91, 75
2, 43740, Note_on_c, 0, 91, 0
2, 43740, Note_on_c, 0, 90, 75
2, 43800, Note_on_c, 0, 90, 0
2, 43800, Note_on_c, 0, 91, 75
2, 43860, Note_on_c, 0, 91, 0
2, 43860, Note_on_c, 0, 84, 75
2, 43920, Note_on_c, 0, 84, 0
2, 43920, Note_on_c, 0, 91, 75
2, 43980, Note_on_c, 0, 91, 0
2, 43980, Note_on_c, 0, 90, 75
2, 44040, Note_on_c, 0, 90, 0
2, 44040, Note_on_c, 0, 91, 75
2, 44100, Note_on_c, 0, 91, 0
2, 44100, Control_c, 0, 64, 0
2, 44100, Note_on_c, 0, 84, 75
2, 44160, Note_on_c, 0, 84, 0
2, 44160, Control_c, 0, 64, 127
2, 44160, Note_on_c, 0, 91, 75
2, 44220, Note_on_c, 0, 91, 0
2, 44220, Note_on_c, 0, 90, 75
2, 44280, Note_on_c, 0, 90, 0
2, 44280, Note_on_c, 0, 91, 75
2, 44340, Note_on_c, 0, 91, 0
2, 44340, Note_on_c, 0, 84, 75
2, 44400, Note_on_c, 0, 84, 0
2, 44400, Note_on_c, 0, 91, 75
2, 44460, Note_on_c, 0, 91, 0
2, 44460, Note_on_c, 0, 90, 75
2, 44520, Note_on_c, 0, 90, 0
2, 44520, Note_on_c, 0, 91, 75
2, 44580, Note_on_c, 0, 91, 0
2, 44580, Control_c, 0, 64, 0
2, 44580, Note_on_c, 0, 84, 75
2, 44640, Note_on_c, 0, 84, 0
2, 44640, Control_c, 0, 64, 127
2, 44640, Note_on_c, 0, 91, 75
2, 44700, Note_on_c, 0, 91, 0
2, 44700, Note_on_c, 0, 90, 75
2, 44760, Note_on_c, 0, 90, 0
2, 44760, Note_on_c, 0, 91, 75
2, 44820, Note_on_c, 0, 91, 0
2, 44820, Note_on_c, 0, 83, 75
2, 44880, Note_on_c, 0, 83, 0
2, 44880, Note_on_c, 0, 91, 75
2, 44940, Note_on_c, 0, 91, 0
2, 44940, Note_on_c, 0, 90, 75
2, 45000, Note_on_c, 0, 90, 0
2, 45000, Note_on_c, 0, 91, 75
2, 45060, Note_on_c, 0, 91, 0
2, 45060, Control_c, 0, 64, 0
2, 45060, Note_on_c, 0, 84, 75
2, 45120, Note_on_c, 0, 84, 0
2, 45120, Control_c, 0, 64, 127
2, 45120, Note_on_c, 0, 91, 75
2, 45180, Note_on_c, 0, 91, 0
2, 45180, Note_on_c, 0, 90, 75
2, 45240, Note_on_c, 0, 90, 0
2, 45240, Note_on_c, 0, 91, 75
2, 45300, Note_on_c, 0, 91, 0
2, 45300, Note_on_c, 0, 86, 75
2, 45360, Note_on_c, 0, 86, 0
2, 45360, Note_on_c, 0, 91, 75
2, 45420, Note_on_c, 0, 91, 0
2, 45420, Note_on_c, 0, 90, 75
2, 45480, Note_on_c, 0, 90, 0
2, 45480, Note_on_c, 0, 91, 75
2, 45540, Note_on_c, 0, 91, 0
2, 45540, Control_c, 0, 64, 0
2, 45540, Note_on_c, 0, 84, 75
2, 45600, Note_on_c, 0, 84, 0
2, 45600, Control_c, 0, 64, 127
2, 45600, Note_on_c, 0, 91, 75
2, 45660, Note_on_c, 0, 91, 0
2, 45660, Note_on_c, 0, 90, 75
2, 45720, Note_on_c, 0, 90, 0
2, 45720, Note_on_c, 0, 91, 75
2, 45780, Note_on_c, 0, 91, 0
2, 45780, Note_on_c, 0, 83, 75
2, 45840, Note_on_c, 0, 83, 0
2, 45840, Note_on_c, 0, 91, 75
2, 45900, Note_on_c, 0, 91, 0
2, 45900, Note_on_c, 0, 90, 75
2, 45960, Note_on_c, 0, 90, 0
2, 45960, Note_on_c, 0, 91, 75
2, 46020, Note_on_c, 0, 91, 0
2, 46020, Control_c, 0, 64, 0
2, 46020, Note_on_c, 0, 84, 75
2, 46080, Note_on_c, 0, 84, 0
2, 46080, Control_c, 0, 64, 127
2, 46080, Note_on_c, 0, 91, 75
2, 46140, Note_on_c, 0, 91, 0
2, 46140, Note_on_c, 0, 90, 75
2, 46200, Note_on_c, 0, 90, 0
2, 46200, Note_on_c, 0, 91, 75
2, 46260, Note_on_c, 0, 91, 0
2, 46260, Note_on_c, 0, 86, 75
2, 46320, Note_on_c, 0, 86, 0
2, 46320, Note_on_c, 0, 91, 75
2, 46380, Note_on_c, 0, 91, 0
2, 46380, Note_on_c, 0, 90, 75
2, 46440, Note_on_c, 0, 90, 0
2, 46440, Note_on_c, 0, 91, 75
2, 46500, Note_on_c, 0, 91, 0
2, 46500, Control_c, 0, 64, 0
2, 46500, Note_on_c, 0, 84, 75
2, 46560, Note_on_c, 0, 84, 0
2, 46560, Control_c, 0, 64, 127
2, 46560, Note_on_c, 0, 91, 75
2, 46620, Note_on_c, 0, 91, 0
2, 46620, Note_on_c, 0, 90, 75
2, 46680, Note_on_c, 0, 90, 0
2, 46680, Note_on_c, 0, 91, 75
2, 46740, Note_on_c, 0, 91, 0
2, 46740, Note_on_c, 0, 84, 75
2, 46800, Note_on_c, 0, 84, 0
2, 46800, Note_on_c, 0, 91, 75
2, 46860, Note_on_c, 0, 91, 0
2, 46860, Note_on_c, 0, 90, 75
2, 46920, Note_on_c, 0, 90, 0
2, 46920, Note_on_c, 0, 91, 75
2, 46980, Note_on_c, 0, 91, 0
2, 46980, Control_c, 0, 64, 0
2, 46980, Note_on_c, 0, 84, 75
2, 47040, Note_on_c, 0, 84, 0
2, 47040, Control_c, 0, 64, 127
2, 47040, Note_on_c, 0, 91, 75
2, 47100, Note_on_c, 0, 91, 0
2, 47100, Note_on_c, 0, 90, 75
2, 47160, Note_on_c, 0, 90, 0
2, 47160, Note_on_c, 0, 91, 75
2, 47220, Note_on_c, 0, 91, 0
2, 47220, Control_c, 0, 64, 0
2, 47220, Note_on_c, 0, 86, 75
2, 47280, Note_on_c, 0, 86, 0
2, 47280, Control_c, 0, 64, 127
2, 47280, Note_on_c, 0, 91, 75
2, 47340, Note_on_c, 0, 91, 0
2, 47340, Note_on_c, 0, 90, 75
2, 47400, Note_on_c, 0, 90, 0
2, 47400, Note_on_c, 0, 89, 75
2, 47460, Note_on_c, 0, 89, 0
2, 47460, Control_c, 0, 64, 0
2, 47460, Note_on_c, 0, 88, 75
2, 47520, Note_on_c, 0, 88, 0
2, 47520, Control_c, 0, 64, 127
2, 47520, Note_on_c, 0, 86, 75
2, 47580, Note_on_c, 0, 86, 0
2, 47580, Note_on_c, 0, 84, 75
2, 47640, Note_on_c, 0, 84, 0
2, 47640, Note_on_c, 0, 83, 75
2, 47700, Note_on_c, 0, 83, 0
2, 47700, Note_on_c, 0, 81, 75
2, 47760, Note_on_c, 0, 81, 0
2, 47760, Note_on_c, 0, 80, 75
2, 47820, Note_on_c, 0, 80, 0
2, 47820, Note_on_c, 0, 79, 75
2, 47880, Note_on_c, 0, 79, 0
2, 47880, Note_on_c, 0, 78, 75
2, 47940, Note_on_c, 0, 78, 0
2, 47940, Control_c, 0, 64, 0
2, 47940, Note_on_c, 0, 77, 75
2, 48000, Note_on_c, 0, 77, 0
2, 48000, Note_on_c, 0, 72, 114
2, 48000, Note_on_c, 0, 76, 114
2, 48480, Note_on_c, 0, 76, 0
2, 48480, Note_on_c, 0, 72, 0
2, 48480, Note_on_c, 0, 67, 88
2, 48480, Note_on_c, 0, 72, 88
2, 48840, Note_on_c, 0, 72, 0
2, 48840, Note_on_c, 0, 67, 0
2, 48840, Note_on_c, 0, 72, 88
2, 48840, Note_on_c, 0, 76, 88
2, 48960, Note_on_c, 0, 76, 0
2, 48960, Note_on_c, 0, 72, 0
2, 48960, Note_on_c, 0, 67, 88
2, 48960, Note_on_c, 0, 74, 88
2, 48960, Note_on_c, 0, 77, 88
2, 49140, Note_on_c, 0, 77, 0
2, 49140, Note_on_c, 0, 74, 0
2, 49140, Note_on_c, 0, 67, 0
2, 49140, Note_on_c, 0, 72, 88
2, 49140, Note_on_c, 0, 76, 88
2, 49200, Note_on_c, 0, 76, 0
2, 49200, Note_on_c, 0, 72, 0
2, 49200, Note_on_c, 0, 71, 88
2, 49200, Note_on_c, 0, 74, 88
2, 49380, Note_on_c, 0, 74, 0
2, 49380, Note_on_c, 0, 71, 0
2, 49380, Note_on_c, 0, 74, 88
2, 49380, Note_on_c, 0, 77, 88
2, 49440, Note_on_c, 0, 77, 0
2, 49440, Note_on_c, 0, 74, 0
2, 49440, Note_on_c, 0, 72, 88
2, 49440, Note_on_c, 0, 76, 88
2, 49680, Note_on_c, 0, 76, 0
2, 49680, Note_on_c, 0, 72, 0
2, 49680, Note_on_c, 0, 72, 101
2, 49680, Note_on_c, 0, 78, 101
2, 49920, Note_on_c, 0, 78, 0
2, 49920, Note_on_c, 0, 72, 0
2, 49920, Note_on_c, 0, 74, 101
2, 49920, Note_on_c, 0, 79, 101
2, 50160, Note_on_c, 0, 79, 0
2, 50160, Note_on_c, 0, 74, 0
2, 50160, Note_on_c, 0, 74, 101
2, 50160, Note_on_c, 0, 81, 101
2, 50400, Note_on_c, 0, 81, 0
2, 50400, Note_on_c, 0, 74, 0
2, 50400, Note_on_c, 0, 74, 101
2, 50400, Note_on_c, 0, 79, 101
2, 50400, Note_on_c, 0, 83, 101
2, 50640, Note_on_c, 0, 83, 0
2, 50640, Note_on_c, 0, 79, 0
2, 50640, Note_on_c, 0, 74, 0
2, 50640, Note_on_c, 0, 72, 101
2, 50640, Note_on_c, 0, 79, 101
2, 50640, Note_on_c, 0, 84, 101
2, 50880, Note_on_c, 0, 84, 0
2, 50880, Note_on_c, 0, 79, 0
2, 50880, Note_on_c, 0, 72, 0
2, 50880, Note_on_c, 0, 74, 101
2, 50880, Note_on_c, 0, 79, 101
2, 50880, Note_on_c, 0, 83, 101
2, 51360, Note_on_c, 0, 83, 0
2, 51360, Note_on_c, 0, 79, 0
2, 51360, Note_on_c, 0, 74, 0
2, 51360, Note_on_c, 0, 71, 101
2, 51360, Note_on_c, 0, 79, 101
2, 51720, Note_on_c, 0, 79, 0
2, 51720, Note_on_c, 0, 71, 0
2, 51720, Note_on_c, 0, 74, 101
2, 51720, Note_on_c, 0, 79, 101
2, 51720, Note_on_c, 0, 83, 101
2, 51840, Note_on_c, 0, 83, 0
2, 51840, Note_on_c, 0, 79, 0
2, 51840, Note_on_c, 0, 74, 0
2, 51840, Note_on_c, 0, 83, 101
2, 52020, Note_on_c, 0, 83, 0
2, 52020, Note_on_c, 0, 81, 101
2, 52080, Note_on_c, 0, 81, 0
2, 52080, Note_on_c, 0, 79, 101
2, 52260, Note_on_c, 0, 79, 0
2, 52260, Note_on_c, 0, 78, 101
2, 52320, Note_on_c, 0, 78, 0
2, 52320, Note_on_c, 0, 72, 127
2, 52320, Note_on_c, 0, 74, 127
2, 52320, Note_on_c, 0, 81, 127
2, 52800, Note_on_c, 0, 81, 0
2, 52800, Note_on_c, 0, 74, 0
2, 52800, Note_on_c, 0, 72, 0
2, 52800, Note_on_c, 0, 71, 101
2, 52800, Note_on_c, 0, 74, 101
2, 52800, Note_on_c, 0, 79, 101
2, 53040, Note_on_c, 0, 79, 0
2, 53040, Note_on_c, 0, 74, 0
2, 53040, Note_on_c, 0, 71, 0
2, 53760, Note_on_c, 0, 67, 101
2, 53760, Note_on_c, 0, 72, 101
2, 53760, Note_on_c, 0, 76, 101
2, 54240, Note_on_c, 0, 76, 0
2, 54240, Note_on_c, 0, 72, 0
2, 54240, Note_on_c, 0, 67, 0
2, 54240, Note_on_c, 0, 67, 101
2, 54240, Note_on_c, 0, 72, 101
2, 54600, Note_on_c, 0, 72, 0
2, 54600, Note_on_c, 0, 67, 0
2, 54600, Note_on_c, 0, 67, 101
2, 54600, Note_on_c, 0, 72, 101
2, 54600, Note_on_c, 0, 76, 101
2, 54720, Note_on_c, 0, 76, 0
2, 54720, Note_on_c, 0, 72, 0
2, 54720, Note_on_c, 0, 67, 0
2, 54720, Note_on_c, 0, 67, 101
2, 54720, Note_on_c, 0, 74, 101
2, 54720, Note_on_c, 0, 77, 101
2, 54900, Note_on_c, 0, 77, 0
2, 54900, Note_on_c, 0, 74, 0
2, 54900, Note_on_c, 0, 67, 0
2, 54900, Note_on_c, 0, 72, 101
2, 54900, Note_on_c, 0, 76, 101
2, 54960, Note_on_c, 0, 76, 0
2, 54960, Note_on_c, 0, 72, 0
2, 54960, Note_on_c, 0, 67, 101
2, 54960, Note_on_c, 0, 71, 101
2, 54960, Note_on_c, 0, 74, 101
2, 55140, Note_on_c, 0, 74, 0
2, 55140, Note_on_c, 0, 71, 0
2, 55140, Note_on_c, 0, 67, 0
2, 55140, Note_on_c, 0, 74, 101
2, 55140, Note_on_c, 0, 77, 101
2, 55200, Note_on_c, 0, 77, 0
2, 55200, Note_on_c, 0, 74, 0
2, 55200, Note_on_c, 0, 67, 101
2, 55200, Note_on_c, 0, 72, 101
2, 55200, Note_on_c, 0, 76, 101
2, 55440, Note_on_c, 0, 76, 0
2, 55440, Note_on_c, 0, 72, 0
2, 55440, Note_on_c, 0, 67, 0
2, 55440, Note_on_c, 0, 71, 101
2, 55440, Note_on_c, 0, 72, 101
2, 55440, Note_on_c, 0, 79, 101
2, 55680, Note_on_c, 0, 79, 0
2, 55680, Note_on_c, 0, 72, 0
2, 55680, Note_on_c, 0, 71, 0
2, 55680, Note_on_c, 0, 69, 101
2, 55680, Note_on_c, 0, 72, 101
2, 55680, Note_on_c, 0, 77, 101
2, 55920, Note_on_c, 0, 77, 0
2, 55920, Note_on_c, 0, 72, 0
2, 55920, Note_on_c, 0, 69, 0
2, 55920, Note_on_c, 0, 67, 101
2, 55920, Note_on_c, 0, 72, 101
2, 55920, Note_on_c, 0, 76, 101
2, 56160, Note_on_c, 0, 76, 0
2, 56160, Note_on_c, 0, 72, 0
2, 56160, Note_on_c, 0, 67, 0
2, 56160, Note_on_c, 0, 65, 101
2, 56160, Note_on_c, 0, 67, 101
2, 56160, Note_on_c, 0, 74, 101
2, 56400, Note_on_c, 0, 74, 0
2, 56400, Note_on_c, 0, 67, 0
2, 56400, Note_on_c, 0, 65, 0
2, 56400, Note_on_c, 0, 64, 101
2, 56400, Note_on_c, 0, 67, 101
2, 56400, Note_on_c, 0, 72, 101
2, 56640, Note_on_c, 0, 72, 0
2, 56640, Note_on_c, 0, 67, 0
2, 56640, Note_on_c, 0, 64, 0
2, 56640, Note_on_c, 0, 62, 101
2, 56640, Note_on_c, 0, 67, 101
2, 56640, Note_on_c, 0, 71, 101
2, 56880, Note_on_c, 0, 71, 0
2, 56880, Note_on_c, 0, 67, 0
2, 56880, Note_on_c, 0, 62, 0
2, 56880, Note_on_c, 0, 60, 101
2, 56880, Note_on_c, 0, 67, 101
2, 56880, Note_on_c, 0, 72, 101
2, 57120, Note_on_c, 0, 72, 0
2, 57120, Note_on_c, 0, 67, 0
2, 57120, Note_on_c, 0, 60, 0
2, 57120, Note_on_c, 0, 71, 101
2, 57120, Note_on_c, 0, 74, 101
2, 57360, Note_on_c, 0, 74, 0
2, 57360, Note_on_c, 0, 71, 0
2, 57360, Note_on_c, 0, 72, 101
2, 57600, Note_on_c, 0, 72, 0
2, 57600, Note_on_c, 0, 65, 101
2, 57600, Note_on_c, 0, 72, 101
2, 57600, Note_on_c, 0, 77, 101
2, 57840, Note_on_c, 0, 77, 0
2, 57840, Note_on_c, 0, 72, 0
2, 57840, Note_on_c, 0, 65, 0
2, 57840, Note_on_c, 0, 66, 101
2, 57840, Note_on_c, 0, 72, 101
2, 57840, Note_on_c, 0, 76, 101
2, 58080, Note_on_c, 0, 76, 0
2, 58080, Note_on_c, 0, 72, 0
2, 58080, Note_on_c, 0, 66, 0
2, 58080, Note_on_c, 0, 67, 127
2, 58080, Note_on_c, 0, 72, 127
2, 58080, Note_on_c, 0, 76, 127
2, 58560, Note_on_c, 0, 76, 0
2, 58560, Note_on_c, 0, 72, 0
2, 58560, Note_on_c, 0, 67, 0
2, 58560, Note_on_c, 0, 67, 101
2, 58560, Note_on_c, 0, 71, 101
2, 58560, Note_on_c, 0, 74, 101
2, 58800, Note_on_c, 0, 74, 0
2, 58800, Note_on_c, 0, 71, 0
2, 58800, Note_on_c, 0, 67, 0
2, 59160, Note_on_c, 0, 71, 101
2, 59280, Note_on_c, 0, 71, 0
2, 59280, Note_on_c, 0, 69, 101
2, 59280, Note_on_c, 0, 72, 101
2, 59400, Note_on_c, 0, 72, 0
2, 59400, Note_on_c, 0, 69, 0
2, 59400, Note_on_c, 0, 71, 101
2, 59400, Note_on_c, 0, 74, 101
2, 59520, Note_on_c, 0, 74, 0
2, 59520, Note_on_c, 0, 71, 0
2, 59520, Note_on_c, 0, 67, 101
2, 59520, Note_on_c, 0, 72, 101
2, 59520, Note_on_c, 0, 76, 101
2, 60000, Note_on_c, 0, 76, 0
2, 60000, Note_on_c, 0, 72, 0
2, 60000, Note_on_c, 0, 67, 0
2, 60000, Note_on_c, 0, 67, 101
2, 60000, Note_on_c, 0, 72, 101
2, 60360, Note_on_c, 0, 72, 0
2, 60360, Note_on_c, 0, 67, 0
2, 60360, Note_on_c, 0, 67, 101
2, 60360, Note_on_c, 0, 72, 101
2, 60360, Note_on_c, 0, 76, 101
2, 60480, Note_on_c, 0, 76, 0
2, 60480, Note_on_c, 0, 72, 0
2, 60480, Note_on_c, 0, 67, 0
2, 60480, Note_on_c, 0, 67, 101
2, 60480, Note_on_c, 0, 74, 101
2, 60480, Note_on_c, 0, 77, 101
2, 60660, Note_on_c, 0, 77, 0
2, 60660, Note_on_c, 0, 74, 0
2, 60660, Note_on_c, 0, 67, 0
2, 60660, Note_on_c, 0, 72, 101
2, 60660, Note_on_c, 0, 76, 101
2, 60720, Note_on_c, 0, 76, 0
2, 60720, Note_on_c, 0, 72, 0
2, 60720, Note_on_c, 0, 67, 101
2, 60720, Note_on_c, 0, 71, 101
2, 60720, Note_on_c, 0, 74, 101
2, 60900, Note_on_c, 0, 74, 0
2, 60900, Note_on_c, 0, 71, 0
2, 60900, Note_on_c, 0, 67, 0
2, 60900, Note_on_c, 0, 74, 101
2, 60900, Note_on_c, 0, 77, 101
2, 60960, Note_on_c, 0, 77, 0
2, 60960, Note_on_c, 0, 74, 0
2, 60960, Note_on_c, 0, 72, 101
2, 60960, Note_on_c, 0, 76, 101
2, 61200, Note_on_c, 0, 76, 0
2, 61200, Note_on_c, 0, 72, 0
2, 61200, Note_on_c, 0, 72, 101
2, 61200, Note_on_c, 0, 79, 101
2, 61200, Note_on_c, 0, 84, 101
2, 61440, Note_on_c, 0, 84, 0
2, 61440, Note_on_c, 0, 79, 0
2, 61440, Note_on_c, 0, 72, 0
2, 61440, Note_on_c, 0, 72, 101
2, 61440, Note_on_c, 0, 77, 101
2, 61440, Note_on_c, 0, 81, 101
2, 61680, Note_on_c, 0, 81, 0
2, 61680, Note_on_c, 0, 77, 0
2, 61680, Note_on_c, 0, 72, 0
2, 61680, Note_on_c, 0, 71, 101
2, 61680, Note_on_c, 0, 76, 101
2, 61680, Note_on_c, 0, 79, 101
2, 61920, Note_on_c, 0, 79, 0
2, 61920, Note_on_c, 0, 76, 0
2, 61920, Note_on_c, 0, 71, 0
2, 61920, Note_on_c, 0, 71, 101
2, 61920, Note_on_c, 0, 74, 101
2, 61920, Note_on_c, 0, 77, 101
2, 62160, Note_on_c, 0, 77, 0
2, 62160, Note_on_c, 0, 74, 0
2, 62160, Note_on_c, 0, 71, 0
2, 62160, Note_on_c, 0, 72, 101
2, 62160, Note_on_c, 0, 76, 101
2, 62400, Note_on_c, 0, 76, 0
2, 62400, Note_on_c, 0, 72, 0
2, 62400, Note_on_c, 0, 65, 101
2, 62400, Note_on_c, 0, 67, 101
2, 62400, Note_on_c, 0, 74, 101
2, 62640, Note_on_c, 0, 74, 0
2, 62640, Note_on_c, 0, 67, 0
2, 62640, Note_on_c, 0, 65, 0
2, 62640, Note_on_c, 0, 64, 101
2, 62640, Note_on_c, 0, 67, 101
2, 62640, Note_on_c, 0, 72, 101
2, 62880, Note_on_c, 0, 72, 0
2, 62880, Note_on_c, 0, 67, 0
2, 62880, Note_on_c, 0, 64, 0
2, 62880, Note_on_c, 0, 62, 101
2, 62880, Note_on_c, 0, 67, 101
2, 62880, Note_on_c, 0, 71, 101
2, 63120, Note_on_c, 0, 71, 0
2, 63120, Note_on_c, 0, 67, 0
2, 63120, Note_on_c, 0, 62, 0
2, 63120, Note_on_c, 0, 60, 101
2, 63120, Note_on_c, 0, 67, 101
2, 63120, Note_on_c, 0, 72, 101
2, 63360, Note_on_c, 0, 72, 0
2, 63360, Note_on_c, 0, 67, 0
2, 63360, Note_on_c, 0, 60, 0
2, 63360, Note_on_c, 0, 74, 101
2, 63540, Note_on_c, 0, 74, 0
2, 63540, Note_on_c, 0, 76, 101
2, 63600, Note_on_c, 0, 76, 0
2, 63600, Note_on_c, 0, 77, 101
2, 63780, Note_on_c, 0, 77, 0
2, 63780, Note_on_c, 0, 76, 101
2, 63840, Note_on_c, 0, 76, 0
2, 63840, Note_on_c, 0, 74, 101
2, 64800, Note_on_c, 0, 74, 0
2, 64800, Note_on_c, 0, 64, 101
2, 64800, Note_on_c, 0, 67, 101
2, 64800, Note_on_c, 0, 72, 101
2, 64920, Note_on_c, 0, 72, 0
2, 64920, Note_on_c, 0, 67, 0
2, 64920, Note_on_c, 0, 64, 0
2, 65040, Note_on_c, 0, 76, 101
2, 65040, Note_on_c, 0, 79, 101
2, 65040, Note_on_c, 0, 84, 101
2, 65160, Note_on_c, 0, 84, 0
2, 65160, Note_on_c, 0, 79, 0
2, 65160, Note_on_c, 0, 76, 0
2, 68160, Note_on_c, 0, 72, 88
2, 68240, Note_on_c, 0, 72, 0
2, 68240, Note_on_c, 0, 74, 88
2, 68319, Note_on_c, 0, 74, 0
2, 68319, Note_on_c, 0, 76, 88
2, 68400, Note_on_c, 0, 76, 0
2, 68400, Note_on_c, 0, 77, 88
2, 68880, Note_on_c, 0, 77, 0
2, 68880, Note_on_c, 0, 72, 88
2, 68927, Note_on_c, 0, 72, 0
2, 69120, Note_on_c, 0, 69, 88
2, 69600, Note_on_c, 0, 69, 0
2, 69600, Note_on_c, 0, 65, 88
2, 69840, Note_on_c, 0, 65, 0
2, 69840, Note_on_c, 0, 72, 88
2, 70080, Note_on_c, 0, 72, 0
2, 70080, Note_on_c, 0, 74, 88
2, 70320, Note_on_c, 0, 74, 0
2, 70320, Note_on_c, 0, 76, 88
2, 70367, Note_on_c, 0, 76, 0
2, 70560, Note_on_c, 0, 77, 88
2, 71280, Note_on_c, 0, 77, 0
2, 71280, Note_on_c, 0, 77, 88
2, 71520, Note_on_c, 0, 77, 0
2, 71520, Note_on_c, 0, 76, 88
2, 71760, Note_on_c, 0, 76, 0
2, 71760, Note_on_c, 0, 74, 88
2, 71807, Note_on_c, 0, 74, 0
2, 72000, Note_on_c, 0, 72, 88
2, 72240, Note_on_c, 0, 72, 0
2, 72240, Note_on_c, 0, 70, 88
2, 72480, Note_on_c, 0, 70, 0
2, 72480, Note_on_c, 0, 69, 88
2, 72527, Note_on_c, 0, 69, 0
2, 72720, Note_on_c, 0, 67, 88
2, 72960, Note_on_c, 0, 67, 0
2, 72960, Note_on_c, 0, 72, 88
2, 73200, Note_on_c, 0, 72, 0
2, 73200, Note_on_c, 0, 70, 88
2, 73247, Note_on_c, 0, 70, 0
2, 73440, Note_on_c, 0, 69, 88
2, 73920, Note_on_c, 0, 69, 0
2, 73920, Note_on_c, 0, 65, 88
2, 74040, Note_on_c, 0, 65, 0
2, 74040, Note_on_c, 0, 72, 88
2, 74079, Note_on_c, 0, 72, 0
2, 74079, Note_on_c, 0, 74, 88
2, 74120, Note_on_c, 0, 74, 0
2, 74120, Note_on_c, 0, 76, 88
2, 74160, Note_on_c, 0, 76, 0
2, 74160, Note_on_c, 0, 77, 88
2, 74640, Note_on_c, 0, 77, 0
2, 74640, Note_on_c, 0, 72, 88
2, 74687, Note_on_c, 0, 72, 0
2, 74880, Note_on_c, 0, 69, 88
2, 75360, Note_on_c, 0, 69, 0
2, 75360, Note_on_c, 0, 65, 88
2, 75600, Note_on_c, 0, 65, 0
2, 75600, Note_on_c, 0, 72, 88
2, 75840, Note_on_c, 0, 72, 0
2, 75840, Note_on_c, 0, 74, 88
2, 76080, Note_on_c, 0, 74, 0
2, 76080, Note_on_c, 0, 76, 88
2, 76127, Note_on_c, 0, 76, 0
2, 76320, Note_on_c, 0, 77, 88
2, 77040, Note_on_c, 0, 77, 0
2, 77040, Note_on_c, 0, 77, 88
2, 77280, Note_on_c, 0, 77, 0
2, 77280, Note_on_c, 0, 76, 88
2, 77520, Note_on_c, 0, 76, 0
2, 77520, Note_on_c, 0, 74, 88
2, 77567, Note_on_c, 0, 74, 0
2, 77760, Note_on_c, 0, 72, 88
2, 78000, Note_on_c, 0, 72, 0
2, 78000, Note_on_c, 0, 70, 88
2, 78240, Note_on_c, 0, 70, 0
2, 78240, Note_on_c, 0, 69, 88
2, 78287, Note_on_c, 0, 69, 0
2, 78480, Note_on_c, 0, 67, 88
2, 78527, Note_on_c, 0, 67, 0
2, 78720, Note_on_c, 0, 65, 88
2, 78767, Note_on_c, 0, 65, 0
2, 78960, Note_on_c, 0, 64, 88
2, 79007, Note_on_c, 0, 64, 0
2, 79200, Note_on_c, 0, 65, 88
2, 79247, Note_on_c, 0, 65, 0
2, 79440, Note_on_c, 0, 59, 62
2, 79560, Note_on_c, 0, 59, 0
2, 79560, Note_on_c, 0, 60, 62
2, 79680, Note_on_c, 0, 60, 0
2, 79680, Note_on_c, 0, 62, 62
2, 79800, Note_on_c, 0, 62, 0
2, 79800, Note_on_c, 0, 64, 62
2, 79920, Note_on_c, 0, 64, 0
2, 79920, Note_on_c, 0, 65, 62
2, 79967, Note_on_c, 0, 65, 0
2, 80160, Note_on_c, 0, 69, 62
2, 80207, Note_on_c, 0, 69, 0
2, 80400, Note_on_c, 0, 72, 62
2, 80447, Note_on_c, 0, 72, 0
2, 80580, Note_on_c, 0, 74, 62
2, 80640, Note_on_c, 0, 74, 0
2, 80640, Note_on_c, 0, 72, 62
2, 80687, Note_on_c, 0, 72, 0
2, 80880, Note_on_c, 0, 71, 62
2, 80927, Note_on_c, 0, 71, 0
2, 81120, Note_on_c, 0, 72, 62
2, 81167, Note_on_c, 0, 72, 0
2, 81300, Note_on_c, 0, 74, 62
2, 81360, Note_on_c, 0, 74, 0
2, 81360, Note_on_c, 0, 72, 62
2, 81407, Note_on_c, 0, 72, 0
2, 81600, Note_on_c, 0, 71, 62
2, 81647, Note_on_c, 0, 71, 0
2, 81840, Note_on_c, 0, 72, 62
2, 81887, Note_on_c, 0, 72, 0
2, 82080, Note_on_c, 0, 69, 62
2, 82560, Note_on_c, 0, 69, 0
2, 82560, Note_on_c, 0, 65, 62
2, 82800, Note_on_c, 0, 65, 0
2, 82800, Note_on_c, 0, 65, 62
2, 82847, Note_on_c, 0, 65, 0
2, 83040, Note_on_c, 0, 70, 62
2, 83087, Note_on_c, 0, 70, 0
2, 83280, Note_on_c, 0, 74, 62
2, 83327, Note_on_c, 0, 74, 0
2, 83460, Note_on_c, 0, 76, 62
2, 83520, Note_on_c, 0, 76, 0
2, 83520, Note_on_c, 0, 74, 62
2, 83567, Note_on_c, 0, 74, 0
2, 83760, Note_on_c, 0, 73, 62
2, 83807, Note_on_c, 0, 73, 0
2, 84000, Note_on_c, 0, 74, 62
2, 84047, Note_on_c, 0, 74, 0
2, 84240, Note_on_c, 0, 77, 62
2, 84480, Note_on_c, 0, 77, 0
2, 84480, Note_on_c, 0, 76, 62
2, 84720, Note_on_c, 0, 76, 0
2, 84720, Note_on_c, 0, 74, 62
2, 84767, Note_on_c, 0, 74, 0
2, 84960, Note_on_c, 0, 72, 62
2, 85680, Note_on_c, 0, 72, 0
2, 85680, Note_on_c, 0, 65, 62
2, 85727, Note_on_c, 0, 65, 0
2, 85920, Note_on_c, 0, 69, 62
2, 85967, Note_on_c, 0, 69, 0
2, 86160, Note_on_c, 0, 72, 62
2, 86207, Note_on_c, 0, 72, 0
2, 86340, Note_on_c, 0, 74, 62
2, 86400, Note_on_c, 0, 74, 0
2, 86400, Note_on_c, 0, 72, 62
2, 86447, Note_on_c, 0, 72, 0
2, 86640, Note_on_c, 0, 71, 62
2, 86687, Note_on_c, 0, 71, 0
2, 86880, Note_on_c, 0, 72, 75
2, 86927, Note_on_c, 0, 72, 0
2, 87060, Note_on_c, 0, 74, 75
2, 87120, Note_on_c, 0, 74, 0
2, 87120, Note_on_c, 0, 72, 75
2, 87167, Note_on_c, 0, 72, 0
2, 87360, Note_on_c, 0, 71, 75
2, 87407, Note_on_c, 0, 71, 0
2, 87600, Note_on_c, 0, 72, 75
2, 87647, Note_on_c, 0, 72, 0
2, 87840, Note_on_c, 0, 69, 75
2, 88320, Note_on_c, 0, 69, 0
2, 88320, Note_on_c, 0, 65, 75
2, 88560, Note_on_c, 0, 65, 0
2, 88560, Note_on_c, 0, 77, 75
2, 88800, Note_on_c, 0, 77, 0
2, 88800, Note_on_c, 0, 76, 75
2, 89040, Note_on_c, 0, 76, 0
2, 89040, Note_on_c, 0, 74, 75
2, 89087, Note_on_c, 0, 74, 0
2, 89280, Note_on_c, 0, 77, 75
2, 89520, Note_on_c, 0, 77, 0
2, 89520, Note_on_c, 0, 76, 75
2, 89760, Note_on_c, 0, 76, 0
2, 89760, Note_on_c, 0, 74, 75
2, 89807, Note_on_c, 0, 74, 0
2, 90000, Note_on_c, 0, 74, 75
2, 90240, Note_on_c, 0, 74, 0
2, 90240, Note_on_c, 0, 72, 75
2, 90480, Note_on_c, 0, 72, 0
2, 90480, Note_on_c, 0, 71, 75
2, 90527, Note_on_c, 0, 71, 0
2, 90720, Note_on_c, 0, 72, 75
2, 90960, Note_on_c, 0, 72, 0
2, 90960, Control_c, 0, 64, 127
2, 90960, Note_on_c, 0, 83, 88
2, 91080, Note_on_c, 0, 83, 0
2, 91080, Note_on_c, 0, 84, 88
2, 91200, Note_on_c, 0, 84, 0
2, 91200, Note_on_c, 0, 86, 88
2, 91320, Note_on_c, 0, 86, 0
2, 91320, Note_on_c, 0, 88, 88
2, 91440, Note_on_c, 0, 88, 0
2, 91440, Control_c, 0, 64, 0
2, 91440, Note_on_c, 0, 89, 88
2, 91920, Note_on_c, 0, 89, 0
2, 91920, Note_on_c, 0, 84, 88
2, 92160, Note_on_c, 0, 84, 0
2, 92160, Note_on_c, 0, 81, 88
2, 92640, Note_on_c, 0, 81, 0
2, 92640, Note_on_c, 0, 77, 88
2, 92880, Note_on_c, 0, 77, 0
2, 92880, Note_on_c, 0, 84, 88
2, 93120, Note_on_c, 0, 84, 0
2, 93120, Note_on_c, 0, 86, 88
2, 93360, Note_on_c, 0, 86, 0
2, 93360, Note_on_c, 0, 88, 88
2, 93407, Note_on_c, 0, 88, 0
2, 93600, Note_on_c, 0, 89, 88
2, 94320, Note_on_c, 0, 89, 0
2, 94320, Note_on_c, 0, 89, 88
2, 94560, Note_on_c, 0, 89, 0
2, 94560, Note_on_c, 0, 88, 88
2, 94800, Note_on_c, 0, 88, 0
2, 94800, Note_on_c, 0, 86, 88
2, 94847, Note_on_c, 0, 86, 0
2, 95040, Note_on_c, 0, 84, 88
2, 95280, Note_on_c, 0, 84, 0
2, 95280, Note_on_c, 0, 82, 88
2, 95520, Note_on_c, 0, 82, 0
2, 95520, Note_on_c, 0, 81, 88
2, 95567, Note_on_c, 0, 81, 0
2, 95760, Note_on_c, 0, 79, 88
2, 96000, Note_on_c, 0, 79, 0
2, 96000, Note_on_c, 0, 84, 88
2, 96240, Note_on_c, 0, 84, 0
2, 96240, Note_on_c, 0, 82, 88
2, 96287, Note_on_c, 0, 82, 0
2, 96480, Note_on_c, 0, 81, 88
2, 96960, Note_on_c, 0, 81, 0
2, 96960, Note_on_c, 0, 77, 88
2, 97200, Note_on_c, 0, 77, 0
2, 97200, Note_on_c, 0, 89, 88
2, 97680, Note_on_c, 0, 89, 0
2, 97680, Note_on_c, 0, 84, 88
2, 97920, Note_on_c, 0, 84, 0
2, 97920, Note_on_c, 0, 81, 88
2, 98400, Note_on_c, 0, 81, 0
2, 98400, Note_on_c, 0, 77, 88
2, 98640, Note_on_c, 0, 77, 0
2, 98640, Note_on_c, 0, 84, 88
2, 98880, Note_on_c, 0, 84, 0
2, 98880, Note_on_c, 0, 86, 88
2, 99120, Note_on_c, 0, 86, 0
2, 99120, Note_on_c, 0, 88, 88
2, 99167, Note_on_c, 0, 88, 0
2, 99360, Note_on_c, 0, 89, 88
2, 100080, Note_on_c, 0, 89, 0
2, 100080, Note_on_c, 0, 89, 88
2, 100320, Note_on_c, 0, 89, 0
2, 100320, Note_on_c, 0, 88, 88
2, 100560, Note_on_c, 0, 88, 0
2, 100560, Note_on_c, 0, 86, 88
2, 100607, Note_on_c, 0, 86, 0
2, 100800, Note_on_c, 0, 84, 88
2, 101040, Note_on_c, 0, 84, 0
2, 101040, Note_on_c, 0, 82, 88
2, 101280, Note_on_c, 0, 82, 0
2, 101280, Note_on_c, 0, 81, 88
2, 101327, Note_on_c, 0, 81, 0
2, 101520, Note_on_c, 0, 79, 88
2, 101760, Note_on_c, 0, 79, 0
2, 101760, Note_on_c, 0, 77, 88
2, 102000, Note_on_c, 0, 77, 0
2, 102000, Note_on_c, 0, 76, 88
2, 102047, Note_on_c, 0, 76, 0
2, 102240, Note_on_c, 0, 69, 75
2, 102240, Note_on_c, 0, 72, 75
2, 102240, Note_on_c, 0, 77, 75
2, 102480, Note_on_c, 0, 77, 0
2, 102480, Note_on_c, 0, 72, 0
2, 102480, Note_on_c, 0, 69, 0
2, 102960, Note_on_c, 0, 77, 62
2, 103200, Note_on_c, 0, 77, 0
2, 103200, Note_on_c, 0, 81, 62
2, 103440, Note_on_c, 0, 81, 0
2, 103440, Note_on_c, 0, 84, 62
2, 103620, Note_on_c, 0, 86, 62
2, 103680, Note_on_c, 0, 86, 0
2, 103680, Note_on_c, 0, 84, 0
2, 103680, Note_on_c, 0, 84, 62
2, 103727, Note_on_c, 0, 84, 0
2, 103920, Note_on_c, 0, 83, 62
2, 103967, Note_on_c, 0, 83, 0
2, 104160, Note_on_c, 0, 84, 62
2, 104207, Note_on_c, 0, 84, 0
2, 104340, Note_on_c, 0, 86, 62
2, 104400, Note_on_c, 0, 86, 0
2, 104400, Note_on_c, 0, 84, 62
2, 104447, Note_on_c, 0, 84, 0
2, 104640, Note_on_c, 0, 83, 62
2, 104687, Note_on_c, 0, 83, 0
2, 104880, Note_on_c, 0, 84, 62
2, 104927, Note_on_c, 0, 84, 0
2, 105120, Note_on_c, 0, 81, 88
2, 105600, Note_on_c, 0, 81, 0
2, 105600, Note_on_c, 0, 77, 62
2, 105840, Note_on_c, 0, 77, 0
2, 105840, Note_on_c, 0, 77, 62
2, 105887, Note_on_c, 0, 77, 0
2, 106080, Note_on_c, 0, 82, 62
2, 106127, Note_on_c, 0, 82, 0
2, 106320, Note_on_c, 0, 86, 62
2, 106367, Note_on_c, 0, 86, 0
2, 106500, Note_on_c, 0, 88, 62
2, 106560, Note_on_c, 0, 88, 0
2, 106560, Note_on_c, 0, 86, 62
2, 106607, Note_on_c, 0, 86, 0
2, 106800, Note_on_c, 0, 85, 62
2, 106847, Note_on_c, 0, 85, 0
2, 107040, Note_on_c, 0, 86, 62
2, 107087, Note_on_c, 0, 86, 0
2, 107280, Note_on_c, 0, 89, 62
2, 107520, Note_on_c, 0, 89, 0
2, 107520, Note_on_c, 0, 88, 62
2, 107760, Note_on_c, 0, 88, 0
2, 107760, Note_on_c, 0, 86, 62
2, 107807, Note_on_c, 0, 86, 0
2, 108000, Note_on_c, 0, 84, 88
2, 108720, Note_on_c, 0, 84, 0
2, 108720, Note_on_c, 0, 77, 62
2, 108767, Note_on_c, 0, 77, 0
2, 108960, Note_on_c, 0, 81, 62
2, 109007, Note_on_c, 0, 81, 0
2, 109200, Note_on_c, 0, 84, 62
2, 109247, Note_on_c, 0, 84, 0
2, 109380, Note_on_c, 0, 86, 62
2, 109440, Note_on_c, 0, 86, 0
2, 109440, Note_on_c, 0, 84, 62
2, 109487, Note_on_c, 0, 84, 0
2, 109680, Note_on_c, 0, 83, 62
2, 109727, Note_on_c, 0, 83, 0
2, 109920, Note_on_c, 0, 84, 62
2, 109967, Note_on_c, 0, 84, 0
2, 110100, Note_on_c, 0, 86, 62
2, 110160, Note_on_c, 0, 86, 0
2, 110160, Note_on_c, 0, 84, 62
2, 110207, Note_on_c, 0, 84, 0
2, 110400, Note_on_c, 0, 83, 62
2, 110447, Note_on_c, 0, 83, 0
2, 110640, Note_on_c, 0, 84, 62
2, 110687, Note_on_c, 0, 84, 0
2, 110880, Note_on_c, 0, 81, 88
2, 111360, Note_on_c, 0, 81, 0
2, 111360, Note_on_c, 0, 77, 62
2, 111600, Note_on_c, 0, 77, 0
2, 111600, Note_on_c, 0, 77, 75
2, 111600, Note_on_c, 0, 89, 75
2, 111840, Note_on_c, 0, 89, 0
2, 111840, Note_on_c, 0, 77, 0
2, 111840, Note_on_c, 0, 88, 75
2, 112080, Note_on_c, 0, 88, 0
2, 112080, Note_on_c, 0, 86, 75
2, 112127, Note_on_c, 0, 86, 0
2, 112320, Note_on_c, 0, 77, 75
2, 112320, Note_on_c, 0, 89, 75
2, 112560, Note_on_c, 0, 89, 0
2, 112560, Note_on_c, 0, 77, 0
2, 112560, Note_on_c, 0, 88, 75
2, 112800, Note_on_c, 0, 88, 0
2, 112800, Note_on_c, 0, 86, 75
2, 112847, Note_on_c, 0, 86, 0
2, 113040, Note_on_c, 0, 77, 88
2, 113040, Note_on_c, 0, 86, 88
2, 113087, Note_on_c, 0, 86, 0
2, 113087, Note_on_c, 0, 77, 0
2, 113280, Note_on_c, 0, 84, 88
2, 113327, Note_on_c, 0, 84, 0
2, 113520, Note_on_c, 0, 83, 88
2, 113567, Note_on_c, 0, 83, 0
2, 113760, Note_on_c, 0, 76, 101
2, 113760, Note_on_c, 0, 79, 101
2, 113760, Note_on_c, 0, 84, 101
2, 114000, Note_on_c, 0, 84, 0
2, 114000, Note_on_c, 0, 79, 0
2, 114000, Note_on_c, 0, 76, 0
2, 114000, Control_c, 0, 64, 127
2, 114000, Note_on_c, 0, 84, 101
2, 114120, Note_on_c, 0, 84, 0
2, 114120, Note_on_c, 0, 86, 101
2, 114240, Note_on_c, 0, 86, 0
2, 114240, Note_on_c, 0, 87, 101
2, 114360, Note_on_c, 0, 87, 0
2, 114360, Control_c, 0, 64, 0
2, 114360, Note_on_c, 0, 88, 101
2, 114480, Note_on_c, 0, 88, 0
2, 114480, Note_on_c, 0, 77, 101
2, 114480, Note_on_c, 0, 81, 101
2, 114480, Note_on_c, 0, 89, 101
2, 114960, Note_on_c, 0, 89, 0
2, 114960, Note_on_c, 0, 81, 0
2, 114960, Note_on_c, 0, 77, 0
2, 114960, Note_on_c, 0, 77, 101
2, 114960, Note_on_c, 0, 81, 101
2, 114960, Note_on_c, 0, 84, 101
2, 115200, Note_on_c, 0, 84, 0
2, 115200, Note_on_c, 0, 81, 0
2, 115200, Note_on_c, 0, 77, 0
2, 115200, Note_on_c, 0, 77, 101
2, 115200, Note_on_c, 0, 81, 101
2, 115680, Note_on_c, 0, 81, 0
2, 115680, Note_on_c, 0, 77, 0
2, 115680, Note_on_c, 0, 77, 101
2, 115920, Note_on_c, 0, 77, 0
2, 115920, Note_on_c, 0, 79, 101
2, 115920, Note_on_c, 0, 82, 101
2, 115920, Note_on_c, 0, 84, 101
2, 116160, Note_on_c, 0, 84, 0
2, 116160, Note_on_c, 0, 82, 0
2, 116160, Note_on_c, 0, 79, 0
2, 116160, Note_on_c, 0, 86, 101
2, 116400, Note_on_c, 0, 86, 0
2, 116400, Note_on_c, 0, 79, 101
2, 116400, Note_on_c, 0, 82, 101
2, 116400, Note_on_c, 0, 88, 101
2, 116447, Note_on_c, 0, 88, 0
2, 116447, Note_on_c, 0, 82, 0
2, 116447, Note_on_c, 0, 79, 0
2, 116640, Note_on_c, 0, 77, 101
2, 116640, Note_on_c, 0, 84, 101
2, 116640, Note_on_c, 0, 89, 101
2, 117360, Note_on_c, 0, 89, 0
2, 117360, Note_on_c, 0, 84, 0
2, 117360, Note_on_c, 0, 77, 0
2, 117360, Note_on_c, 0, 89, 101
2, 117600, Note_on_c, 0, 89, 0
2, 117600, Note_on_c, 0, 88, 101
2, 117840, Note_on_c, 0, 88, 0
2, 117840, Note_on_c, 0, 86, 101
2, 118080, Note_on_c, 0, 86, 0
2, 118080, Note_on_c, 0, 79, 101
2, 118080, Note_on_c, 0, 82, 101
2, 118080, Note_on_c, 0, 84, 101
2, 118320, Note_on_c, 0, 84, 0
2, 118320, Note_on_c, 0, 82, 0
2, 118320, Note_on_c, 0, 79, 0
2, 118320, Note_on_c, 0, 82, 101
2, 118560, Note_on_c, 0, 82, 0
2, 118560, Note_on_c, 0, 81, 101
2, 118607, Note_on_c, 0, 81, 0
2, 118800, Note_on_c, 0, 79, 101
2, 119040, Note_on_c, 0, 79, 0
2, 119040, Note_on_c, 0, 84, 101
2, 119280, Note_on_c, 0, 84, 0
2, 119280, Note_on_c, 0, 82, 101
2, 119327, Note_on_c, 0, 82, 0
2, 119520, Note_on_c, 0, 77, 101
2, 119520, Note_on_c, 0, 81, 101
2, 120000, Note_on_c, 0, 81, 0
2, 120000, Note_on_c, 0, 77, 0
2, 120000, Note_on_c, 0, 77, 101
2, 120240, Note_on_c, 0, 77, 0
2, 120240, Note_on_c, 0, 77, 101
2, 120240, Note_on_c, 0, 81, 101
2, 120240, Note_on_c, 0, 89, 101
2, 120720, Note_on_c, 0, 89, 0
2, 120720, Note_on_c, 0, 81, 0
2, 120720, Note_on_c, 0, 77, 0
2, 120720, Note_on_c, 0, 77, 101
2, 120720, Note_on_c, 0, 81, 101
2, 120720, Note_on_c, 0, 84, 101
2, 120960, Note_on_c, 0, 84, 0
2, 120960, Note_on_c, 0, 81, 0
2, 120960, Note_on_c, 0, 77, 0
2, 120960, Note_on_c, 0, 77, 101
2, 120960, Note_on_c, 0, 81, 101
2, 121440, Note_on_c, 0, 81, 0
2, 121440, Note_on_c, 0, 77, 0
2, 121440, Note_on_c, 0, 77, 101
2, 121680, Note_on_c, 0, 77, 0
2, 121680, Note_on_c, 0, 79, 101
2, 121680, Note_on_c, 0, 82, 101
2, 121680, Note_on_c, 0, 84, 101
2, 121920, Note_on_c, 0, 84, 0
2, 121920, Note_on_c, 0, 82, 0
2, 121920, Note_on_c, 0, 79, 0
2, 121920, Note_on_c, 0, 86, 101
2, 122160, Note_on_c, 0, 86, 0
2, 122160, Note_on_c, 0, 79, 101
2, 122160, Note_on_c, 0, 82, 101
2, 122160, Note_on_c, 0, 88, 101
2, 122207, Note_on_c, 0, 88, 0
2, 122207, Note_on_c, 0, 82, 0
2, 122207, Note_on_c, 0, 79, 0
2, 122400, Note_on_c, 0, 77, 101
2, 122400, Note_on_c, 0, 84, 101
2, 122400, Note_on_c, 0, 89, 101
2, 123120, Note_on_c, 0, 89, 0
2, 123120, Note_on_c, 0, 84, 0
2, 123120, Note_on_c, 0, 77, 0
2, 123120, Note_on_c, 0, 89, 101
2, 123360, Note_on_c, 0, 89, 0
2, 123360, Note_on_c, 0, 88, 101
2, 123600, Note_on_c, 0, 88, 0
2, 123600, Note_on_c, 0, 86, 101
2, 123647, Note_on_c, 0, 86, 0
2, 123840, Note_on_c, 0, 79, 101
2, 123840, Note_on_c, 0, 82, 101
2, 123840, Note_on_c, 0, 84, 101
2, 124080, Note_on_c, 0, 84, 0
2, 124080, Note_on_c, 0, 82, 0
2, 124080, Note_on_c, 0, 79, 0
2, 124080, Note_on_c, 0, 82, 101
2, 124320, Note_on_c, 0, 82, 0
2, 124320, Note_on_c, 0, 81, 101
2, 124367, Note_on_c, 0, 81, 0
2, 124560, Note_on_c, 0, 79, 101
2, 124607, Note_on_c, 0, 79, 0
2, 124800, Note_on_c, 0, 77, 101
2, 124847, Note_on_c, 0, 77, 0
2, 125040, Note_on_c, 0, 76, 101
2, 125087, Note_on_c, 0, 76, 0
2, 125280, Note_on_c, 0, 69, 101
2, 125280, Note_on_c, 0, 72, 101
2, 125280, Note_on_c, 0, 77, 101
2, 126000, Note_on_c, 0, 77, 0
2, 126000, Note_on_c, 0, 72, 0
2, 126000, Note_on_c, 0, 69, 0
2, 126000, Note_on_c, 0, 65, 75
2, 126047, Note_on_c, 0, 65, 0
2, 126240, Note_on_c, 0, 69, 75
2, 126287, Note_on_c, 0, 69, 0
2, 126480, Note_on_c, 0, 69, 75
2, 126480, Note_on_c, 0, 72, 75
2, 126527, Note_on_c, 0, 72, 0
2, 126527, Note_on_c, 0, 69, 0
2, 126720, Note_on_c, 0, 72, 75
2, 126767, Note_on_c, 0, 72, 0
2, 126960, Note_on_c, 0, 71, 75
2, 127007, Note_on_c, 0, 71, 0
2, 127200, Note_on_c, 0, 72, 75
2, 127247, Note_on_c, 0, 72, 0
2, 127440, Note_on_c, 0, 69, 75
2, 127440, Note_on_c, 0, 72, 75
2, 127487, Note_on_c, 0, 72, 0
2, 127487, Note_on_c, 0, 69, 0
2, 127680, Note_on_c, 0, 71, 75
2, 127727, Note_on_c, 0, 71, 0
2, 127920, Note_on_c, 0, 69, 75
2, 127920, Note_on_c, 0, 72, 75
2, 127967, Note_on_c, 0, 72, 0
2, 127967, Note_on_c, 0, 69, 0
2, 128160, Note_on_c, 0, 65, 75
2, 128160, Note_on_c, 0, 69, 75
2, 128640, Note_on_c, 0, 69, 0
2, 128640, Note_on_c, 0, 65, 0
2, 128640, Note_on_c, 0, 65, 75
2, 128880, Note_on_c, 0, 65, 0
2, 128880, Note_on_c, 0, 65, 75
2, 128927, Note_on_c, 0, 65, 0
2, 129120, Note_on_c, 0, 70, 75
2, 129167, Note_on_c, 0, 70, 0
2, 129360, Note_on_c, 0, 74, 75
2, 129407, Note_on_c, 0, 74, 0
2, 129600, Note_on_c, 0, 74, 75
2, 129647, Note_on_c, 0, 74, 0
2, 129840, Note_on_c, 0, 73, 75
2, 129887, Note_on_c, 0, 73, 0
2, 130080, Note_on_c, 0, 74, 75
2, 130127, Note_on_c, 0, 74, 0
2, 130320, Note_on_c, 0, 77, 75
2, 130367, Note_on_c, 0, 77, 0
2, 130560, Note_on_c, 0, 76, 75
2, 130607, Note_on_c, 0, 76, 0
2, 130800, Note_on_c, 0, 74, 75
2, 130847, Note_on_c, 0, 74, 0
2, 131040, Note_on_c, 0, 72, 75
2, 131760, Note_on_c, 0, 72, 0
2, 131760, Note_on_c, 0, 65, 75
2, 131807, Note_on_c, 0, 65, 0
2, 132000, Note_on_c, 0, 69, 75
2, 132047, Note_on_c, 0, 69, 0
2, 132240, Note_on_c, 0, 72, 75
2, 132287, Note_on_c, 0, 72, 0
2, 132480, Note_on_c, 0, 72, 75
2, 132527, Note_on_c, 0, 72, 0
2, 132720, Note_on_c, 0, 71, 75
2, 132767, Note_on_c, 0, 71, 0
2, 132960, Note_on_c, 0, 72, 75
2, 133007, Note_on_c, 0, 72, 0
2, 133200, Note_on_c, 0, 72, 75
2, 133247, Note_on_c, 0, 72, 0
2, 133440, Note_on_c, 0, 71, 75
2, 133487, Note_on_c, 0, 71, 0
2, 133680, Note_on_c, 0, 72, 75
2, 133727, Note_on_c, 0, 72, 0
2, 133920, Note_on_c, 0, 69, 75
2, 134400, Note_on_c, 0, 69, 0
2, 134400, Note_on_c, 0, 65, 75
2, 134640, Note_on_c, 0, 65, 0
2, 134640, Note_on_c, 0, 77, 88
2, 134687, Note_on_c, 0, 77, 0
2, 134880, Note_on_c, 0, 76, 88
2, 134927, Note_on_c, 0, 76, 0
2, 135120, Note_on_c, 0, 74, 88
2, 135167, Note_on_c, 0, 74, 0
2, 135360, Note_on_c, 0, 77, 88
2, 135407, Note_on_c, 0, 77, 0
2, 135600, Note_on_c, 0, 76, 88
2, 135647, Note_on_c, 0, 76, 0
2, 135840, Note_on_c, 0, 74, 88
2, 135887, Note_on_c, 0, 74, 0
2, 136080, Note_on_c, 0, 74, 88
2, 136127, Note_on_c, 0, 74, 0
2, 136320, Note_on_c, 0, 72, 88
2, 136367, Note_on_c, 0, 72, 0
2, 136560, Note_on_c, 0, 71, 88
2, 136607, Note_on_c, 0, 71, 0
2, 136800, Note_on_c, 0, 72, 101
2, 137040, Note_on_c, 0, 72, 0
2, 137040, Control_c, 0, 64, 127
2, 137040, Note_on_c, 0, 83, 101
2, 137160, Note_on_c, 0, 83, 0
2, 137160, Note_on_c, 0, 84, 101
2, 137280, Note_on_c, 0, 84, 0
2, 137280, Note_on_c, 0, 86, 101
2, 137400, Note_on_c, 0, 86, 0
2, 137400, Control_c, 0, 64, 0
2, 137400, Note_on_c, 0, 88, 101
2, 137520, Note_on_c, 0, 88, 0
2, 137520, Note_on_c, 0, 81, 101
2, 137520, Note_on_c, 0, 84, 101
2, 137520, Note_on_c, 0, 89, 101
2, 138000, Note_on_c, 0, 89, 0
2, 138000, Note_on_c, 0, 84, 0
2, 138000, Note_on_c, 0, 81, 0
2, 138000, Note_on_c, 0, 77, 101
2, 138000, Note_on_c, 0, 81, 101
2, 138000, Note_on_c, 0, 84, 101
2, 138240, Note_on_c, 0, 84, 0
2, 138240, Note_on_c, 0, 81, 0
2, 138240, Note_on_c, 0, 77, 0
2, 138240, Note_on_c, 0, 77, 101
2, 138240, Note_on_c, 0, 81, 101
2, 138720, Note_on_c, 0, 81, 0
2, 138720, Note_on_c, 0, 77, 0
2, 138720, Note_on_c, 0, 77, 101
2, 138960, Note_on_c, 0, 77, 0
2, 138960, Note_on_c, 0, 79, 101
2, 138960, Note_on_c, 0, 82, 101
2, 138960, Note_on_c, 0, 84, 101
2, 139200, Note_on_c, 0, 84, 0
2, 139200, Note_on_c, 0, 82, 0
2, 139200, Note_on_c, 0, 79, 0
2, 139200, Note_on_c, 0, 86, 101
2, 139440, Note_on_c, 0, 86, 0
2, 139440, Note_on_c, 0, 79, 101
2, 139440, Note_on_c, 0, 82, 101
2, 139440, Note_on_c, 0, 88, 101
2, 139487, Note_on_c, 0, 88, 0
2, 139487, Note_on_c, 0, 82, 0
2, 139487, Note_on_c, 0, 79, 0
2, 139680, Note_on_c, 0, 77, 101
2, 139680, Note_on_c, 0, 84, 101
2, 139680, Note_on_c, 0, 89, 101
2, 140400, Note_on_c, 0, 89, 0
2, 140400, Note_on_c, 0, 84, 0
2, 140400, Note_on_c, 0, 77, 0
2, 140400, Note_on_c, 0, 89, 101
2, 140640, Note_on_c, 0, 89, 0
2, 140640, Note_on_c, 0, 88, 101
2, 140880, Note_on_c, 0, 88, 0
2, 140880, Note_on_c, 0, 86, 101
2, 141120, Note_on_c, 0, 86, 0
2, 141120, Note_on_c, 0, 79, 101
2, 141120, Note_on_c, 0, 82, 101
2, 141120, Note_on_c, 0, 84, 101
2, 141360, Note_on_c, 0, 84, 0
2, 141360, Note_on_c, 0, 82, 0
2, 141360, Note_on_c, 0, 79, 0
2, 141360, Note_on_c, 0, 82, 101
2, 141600, Note_on_c, 0, 82, 0
2, 141600, Note_on_c, 0, 81, 101
2, 141647, Note_on_c, 0, 81, 0
2, 141840, Note_on_c, 0, 79, 101
2, 142080, Note_on_c, 0, 79, 0
2, 142080, Note_on_c, 0, 84, 101
2, 142320, Note_on_c, 0, 84, 0
2, 142320, Note_on_c, 0, 82, 101
2, 142367, Note_on_c, 0, 82, 0
2, 142560, Note_on_c, 0, 77, 101
2, 142560, Note_on_c, 0, 81, 101
2, 143040, Note_on_c, 0, 81, 0
2, 143040, Note_on_c, 0, 77, 0
2, 143040, Note_on_c, 0, 77, 101
2, 143280, Note_on_c, 0, 77, 0
2, 143280, Note_on_c, 0, 77, 101
2, 143280, Note_on_c, 0, 81, 101
2, 143280, Note_on_c, 0, 89, 101
2, 143760, Note_on_c, 0, 89, 0
2, 143760, Note_on_c, 0, 81, 0
2, 143760, Note_on_c, 0, 77, 0
2, 143760, Note_on_c, 0, 77, 101
2, 143760, Note_on_c, 0, 81, 101
2, 143760, Note_on_c, 0, 84, 101
2, 144000, Note_on_c, 0, 84, 0
2, 144000, Note_on_c, 0, 81, 0
2, 144000, Note_on_c, 0, 77, 0
2, 144000, Note_on_c, 0, 77, 101
2, 144000, Note_on_c, 0, 81, 101
2, 144480, Note_on_c, 0, 81, 0
2, 144480, Note_on_c, 0, 77, 0
2, 144480, Note_on_c, 0, 77, 101
2, 144720, Note_on_c, 0, 77, 0
2, 144720, Note_on_c, 0, 79, 101
2, 144720, Note_on_c, 0, 82, 101
2, 144720, Note_on_c, 0, 84, 101
2, 144960, Note_on_c, 0, 84, 0
2, 144960, Note_on_c, 0, 82, 0
2, 144960, Note_on_c, 0, 79, 0
2, 144960, Note_on_c, 0, 86, 101
2, 145200, Note_on_c, 0, 86, 0
2, 145200, Note_on_c, 0, 79, 101
2, 145200, Note_on_c, 0, 82, 101
2, 145200, Note_on_c, 0, 88, 101
2, 145247, Note_on_c, 0, 88, 0
2, 145247, Note_on_c, 0, 82, 0
2, 145247, Note_on_c, 0, 79, 0
2, 145440, Note_on_c, 0, 77, 101
2, 145440, Note_on_c, 0, 84, 101
2, 145440, Note_on_c, 0, 89, 101
2, 146160, Note_on_c, 0, 89, 0
2, 146160, Note_on_c, 0, 84, 0
2, 146160, Note_on_c, 0, 77, 0
2, 146160, Note_on_c, 0, 89, 101
2, 146400, Note_on_c, 0, 89, 0
2, 146400, Note_on_c, 0, 88, 101
2, 146640, Note_on_c, 0, 88, 0
2, 146640, Note_on_c, 0, 86, 101
2, 146687, Note_on_c, 0, 86, 0
2, 146880, Note_on_c, 0, 79, 101
2, 146880, Note_on_c, 0, 82, 101
2, 146880, Note_on_c, 0, 84, 101
2, 147120, Note_on_c, 0, 84, 0
2, 147120, Note_on_c, 0, 82, 0
2, 147120, Note_on_c, 0, 79, 0
2, 147120, Note_on_c, 0, 82, 101
2, 147360, Note_on_c, 0, 82, 0
2, 147360, Note_on_c, 0, 81, 101
2, 147407, Note_on_c, 0, 81, 0
2, 147600, Note_on_c, 0, 79, 101
2, 147647, Note_on_c, 0, 79, 0
2, 147840, Note_on_c, 0, 77, 101
2, 147887, Note_on_c, 0, 77, 0
2, 148080, Note_on_c, 0, 76, 101
2, 148127, Note_on_c, 0, 76, 0
2, 148320, Note_on_c, 0, 69, 127
2, 148320, Note_on_c, 0, 76, 127
2, 148320, Note_on_c, 0, 79, 127
2, 148320, Note_on_c, 0, 81, 127
2, 149280, Note_on_c, 0, 81, 0
2, 149280, Note_on_c, 0, 69, 0
2, 149280, Note_on_c, 0, 76, 0
2, 149280, Note_on_c, 0, 79, 0
2, 149280, Control_c, 0, 64, 127
2, 151680, Control_c, 0, 64, 0
2, 151680, End_track
3, 0, Start_track
3, 0, Title_t, "Grand Piano"
3, 0, Program_c, 0, 0
3, 0, Control_c, 0, 7, 115
3, 0, Control_c, 0, 10, 79
3, 57120, Note_on_c, 0, 67, 93
3, 57360, Note_on_c, 0, 67, 0
3, 57360, Note_on_c, 0, 64, 93
3, 57480, Note_on_c, 0, 64, 0
3, 57480, Note_on_c, 0, 67, 93
3, 57600, Note_on_c, 0, 67, 0
3, 59160, Note_on_c, 0, 67, 93
3, 59520, Note_on_c, 0, 67, 0
3, 63360, Note_on_c, 0, 69, 93
3, 63360, Note_on_c, 0, 72, 93
3, 63840, Note_on_c, 0, 72, 0
3, 63840, Note_on_c, 0, 69, 0
3, 63840, Note_on_c, 0, 69, 93
3, 63840, Note_on_c, 0, 72, 93
3, 64320, Note_on_c, 0, 72, 0
3, 64320, Note_on_c, 0, 69, 0
3, 64320, Note_on_c, 0, 62, 93
3, 64320, Note_on_c, 0, 71, 93
3, 64800, Note_on_c, 0, 71, 0
3, 64800, Note_on_c, 0, 62, 0
3, 96480, Note_on_c, 0, 81, 80
3, 96720, Note_on_c, 0, 81, 0
3, 96720, Note_on_c, 0, 76, 80
3, 96960, Note_on_c, 0, 76, 0
3, 96960, Note_on_c, 0, 77, 80
3, 97200, Note_on_c, 0, 77, 0
3, 116640, Note_on_c, 0, 82, 93
3, 117120, Note_on_c, 0, 82, 0
3, 117120, Note_on_c, 0, 81, 93
3, 117360, Note_on_c, 0, 81, 0
3, 117360, Note_on_c, 0, 79, 93
3, 117360, Note_on_c, 0, 82, 93
3, 117360, Note_on_c, 0, 84, 93
3, 117840, Note_on_c, 0, 84, 0
3, 117840, Note_on_c, 0, 82, 0
3, 117840, Note_on_c, 0, 79, 0
3, 117840, Note_on_c, 0, 79, 93
3, 117840, Note_on_c, 0, 82, 93
3, 118080, Note_on_c, 0, 82, 0
3, 118080, Note_on_c, 0, 79, 0
3, 118800, Note_on_c, 0, 72, 93
3, 118800, Note_on_c, 0, 79, 93
3, 119280, Note_on_c, 0, 79, 0
3, 119280, Note_on_c, 0, 72, 0
3, 119280, Note_on_c, 0, 72, 93
3, 119280, Note_on_c, 0, 79, 93
3, 119520, Note_on_c, 0, 79, 0
3, 119520, Note_on_c, 0, 72, 0
3, 119520, Note_on_c, 0, 72, 93
3, 120240, Note_on_c, 0, 72, 0
3, 122400, Note_on_c, 0, 82, 93
3, 122880, Note_on_c, 0, 82, 0
3, 122880, Note_on_c, 0, 81, 93
3, 123120, Note_on_c, 0, 81, 0
3, 123120, Note_on_c, 0, 79, 93
3, 123120, Note_on_c, 0, 82, 93
3, 123120, Note_on_c, 0, 84, 93
3, 123600, Note_on_c, 0, 84, 0
3, 123600, Note_on_c, 0, 82, 0
3, 123600, Note_on_c, 0, 79, 0
3, 123600, Note_on_c, 0, 79, 93
3, 123600, Note_on_c, 0, 82, 93
3, 123840, Note_on_c, 0, 82, 0
3, 123840, Note_on_c, 0, 79, 0
3, 124560, Note_on_c, 0, 70, 93
3, 124560, Note_on_c, 0, 72, 93
3, 125280, Note_on_c, 0, 72, 0
3, 125280, Note_on_c, 0, 70, 0
3, 139680, Note_on_c, 0, 82, 93
3, 140160, Note_on_c, 0, 82, 0
3, 140160, Note_on_c, 0, 81, 93
3, 140400, Note_on_c, 0, 81, 0
3, 140400, Note_on_c, 0, 79, 93
3, 140400, Note_on_c, 0, 82, 93
3, 140400, Note_on_c, 0, 84, 93
3, 140880, Note_on_c, 0, 84, 0
3, 140880, Note_on_c, 0, 82, 0
3, 140880, Note_on_c, 0, 79, 0
3, 140880, Note_on_c, 0, 79, 93
3, 140880, Note_on_c, 0, 82, 93
3, 141120, Note_on_c, 0, 82, 0
3, 141120, Note_on_c, 0, 79, 0
3, 141840, Note_on_c, 0, 72, 93
3, 141840, Note_on_c, 0, 79, 93
3, 142320, Note_on_c, 0, 79, 0
3, 142320, Note_on_c, 0, 72, 0
3, 142320, Note_on_c, 0, 72, 93
3, 142320, Note_on_c, 0, 79, 93
3, 142560, Note_on_c, 0, 79, 0
3, 142560, Note_on_c, 0, 72, 0
3, 142560, Note_on_c, 0, 72, 93
3, 143280, Note_on_c, 0, 72, 0
3, 145440, Note_on_c, 0, 82, 93
3, 145920, Note_on_c, 0, 82, 0
3, 145920, Note_on_c, 0, 81, 93
3, 146160, Note_on_c, 0, 81, 0
3, 146160, Note_on_c, 0, 79, 93
3, 146160, Note_on_c, 0, 82, 93
3, 146160, Note_on_c, 0, 84, 93
3, 146640, Note_on_c, 0, 84, 0
3, 146640, Note_on_c, 0, 82, 0
3, 146640, Note_on_c, 0, 79, 0
3, 146640, Note_on_c, 0, 79, 93
3, 146640, Note_on_c, 0, 82, 93
3, 146880, Note_on_c, 0, 82, 0
3, 146880, Note_on_c, 0, 79, 0
3, 147600, Note_on_c, 0, 67, 93
3, 147600, Note_on_c, 0, 70, 93
3, 147600, Note_on_c, 0, 74, 93
3, 148320, Note_on_c, 0, 74, 0
3, 148320, Note_on_c, 0, 70, 0
3, 148320, Note_on_c, 0, 67, 0
3, 148320, End_track
4, 0, Start_track
4, 0, Title_t, "Grand Piano"
4, 0, Program_c, 0, 0
4, 0, Control_c, 0, 7, 115
4, 0, Control_c, 0, 10, 41
4, 0, Note_on_c, 0, 55, 49
4, 0, Note_on_c, 0, 59, 49
4, 240, Note_on_c, 0, 59, 0
4, 240, Note_on_c, 0, 55, 0
4, 480, Note_on_c, 0, 55, 49
4, 480, Note_on_c, 0, 59, 49
4, 720, Note_on_c, 0, 59, 0
4, 720, Note_on_c, 0, 55, 0
4, 960, Note_on_c, 0, 50, 49
4, 960, Note_on_c, 0, 54, 49
4, 960, Note_on_c, 0, 57, 49
4, 960, Note_on_c, 0, 60, 49
4, 1200, Note_on_c, 0, 60, 0
4, 1200, Note_on_c, 0, 50, 0
4, 1200, Note_on_c, 0, 54, 0
4, 1200, Note_on_c, 0, 57, 0
4, 1200, Note_on_c, 0, 50, 49
4, 1200, Note_on_c, 0, 54, 49
4, 1200, Note_on_c, 0, 57, 49
4, 1200, Note_on_c, 0, 60, 49
4, 1440, Note_on_c, 0, 60, 0
4, 1440, Note_on_c, 0, 50, 0
4, 1440, Note_on_c, 0, 54, 0
4, 1440, Note_on_c, 0, 57, 0
4, 1440, Note_on_c, 0, 55, 49
4, 1440, Note_on_c, 0, 59, 49
4, 1680, Note_on_c, 0, 59, 0
4, 1680, Note_on_c, 0, 55, 0
4, 1920, Note_on_c, 0, 55, 49
4, 1920, Note_on_c, 0, 59, 49
4, 2160, Note_on_c, 0, 59, 0
4, 2160, Note_on_c, 0, 55, 0
4, 2400, Note_on_c, 0, 55, 49
4, 2400, Note_on_c, 0, 59, 49
4, 2640, Note_on_c, 0, 59, 0
4, 2640, Note_on_c, 0, 55, 0
4, 2880, Note_on_c, 0, 50, 49
4, 2880, Note_on_c, 0, 54, 49
4, 2880, Note_on_c, 0, 57, 49
4, 2880, Note_on_c, 0, 60, 49
4, 3120, Note_on_c, 0, 60, 0
4, 3120, Note_on_c, 0, 50, 0
4, 3120, Note_on_c, 0, 54, 0
4, 3120, Note_on_c, 0, 57, 0
4, 3120, Note_on_c, 0, 50, 49
4, 3120, Note_on_c, 0, 54, 49
4, 3120, Note_on_c, 0, 57, 49
4, 3120, Note_on_c, 0, 60, 49
4, 3360, Note_on_c, 0, 60, 0
4, 3360, Note_on_c, 0, 50, 0
4, 3360, Note_on_c, 0, 54, 0
4, 3360, Note_on_c, 0, 57, 0
4, 3360, Note_on_c, 0, 55, 49
4, 3360, Note_on_c, 0, 59, 49
4, 3600, Note_on_c, 0, 59, 0
4, 3600, Note_on_c, 0, 55, 0
4, 3840, Note_on_c, 0, 55, 49
4, 3840, Note_on_c, 0, 59, 49
4, 4080, Note_on_c, 0, 59, 0
4, 4080, Note_on_c, 0, 55, 0
4, 4320, Note_on_c, 0, 55, 49
4, 4320, Note_on_c, 0, 59, 49
4, 4560, Note_on_c, 0, 59, 0
4, 4560, Note_on_c, 0, 55, 0
4, 4800, Note_on_c, 0, 50, 49
4, 4800, Note_on_c, 0, 54, 49
4, 4800, Note_on_c, 0, 57, 49
4, 4800, Note_on_c, 0, 60, 49
4, 5040, Note_on_c, 0, 60, 0
4, 5040, Note_on_c, 0, 50, 0
4, 5040, Note_on_c, 0, 54, 0
4, 5040, Note_on_c, 0, 57, 0
4, 5040, Note_on_c, 0, 50, 49
4, 5040, Note_on_c, 0, 54, 49
4, 5040, Note_on_c, 0, 57, 49
4, 5040, Note_on_c, 0, 60, 49
4, 5280, Note_on_c, 0, 60, 0
4, 5280, Note_on_c, 0, 50, 0
4, 5280, Note_on_c, 0, 54, 0
4, 5280, Note_on_c, 0, 57, 0
4, 5280, Note_on_c, 0, 55, 49
4, 5280, Note_on_c, 0, 59, 49
4, 5520, Note_on_c, 0, 59, 0
4, 5520, Note_on_c, 0, 55, 0
4, 5760, Note_on_c, 0, 55, 49
4, 5760, Note_on_c, 0, 59, 49
4, 6000, Note_on_c, 0, 59, 0
4, 6000, Note_on_c, 0, 55, 0
4, 6240, Note_on_c, 0, 55, 49
4, 6240, Note_on_c, 0, 59, 49
4, 6480, Note_on_c, 0, 59, 0
4, 6480, Note_on_c, 0, 55, 0
4, 6720, Note_on_c, 0, 50, 49
4, 6720, Note_on_c, 0, 54, 49
4, 6720, Note_on_c, 0, 57, 49
4, 6720, Note_on_c, 0, 60, 49
4, 6960, Note_on_c, 0, 60, 0
4, 6960, Note_on_c, 0, 50, 0
4, 6960, Note_on_c, 0, 54, 0
4, 6960, Note_on_c, 0, 57, 0
4, 6960, Note_on_c, 0, 50, 49
4, 6960, Note_on_c, 0, 54, 49
4, 6960, Note_on_c, 0, 57, 49
4, 6960, Note_on_c, 0, 60, 49
4, 7200, Note_on_c, 0, 60, 0
4, 7200, Note_on_c, 0, 50, 0
4, 7200, Note_on_c, 0, 54, 0
4, 7200, Note_on_c, 0, 57, 0
4, 7200, Note_on_c, 0, 55, 49
4, 7200, Note_on_c, 0, 59, 49
4, 7440, Note_on_c, 0, 59, 0
4, 7440, Note_on_c, 0, 55, 0
4, 7440, Note_on_c, 0, 50, 49
4, 7680, Note_on_c, 0, 43, 49
4, 7680, Note_on_c, 0, 47, 49
4, 7920, Note_on_c, 0, 47, 0
4, 7920, Note_on_c, 0, 43, 0
4, 7920, Note_on_c, 0, 50, 0
4, 8160, Note_on_c, 0, 47, 49
4, 8160, Note_on_c, 0, 50, 49
4, 8160, Note_on_c, 0, 55, 49
4, 8400, Note_on_c, 0, 55, 0
4, 8400, Note_on_c, 0, 50, 0
4, 8400, Note_on_c, 0, 47, 0
4, 8640, Note_on_c, 0, 50, 62
4, 8640, Note_on_c, 0, 55, 62
4, 8640, Note_on_c, 0, 59, 62
4, 8880, Note_on_c, 0, 59, 0
4, 8880, Note_on_c, 0, 55, 0
4, 8880, Note_on_c, 0, 50, 0
4, 9120, Note_on_c, 0, 55, 62
4, 9120, Note_on_c, 0, 59, 62
4, 9120, Note_on_c, 0, 62, 62
4, 9360, Note_on_c, 0, 62, 0
4, 9360, Note_on_c, 0, 59, 0
4, 9360, Note_on_c, 0, 55, 0
4, 9600, Note_on_c, 0, 59, 62
4, 9600, Note_on_c, 0, 62, 62
4, 9600, Note_on_c, 0, 67, 62
4, 10320, Note_on_c, 0, 67, 0
4, 10320, Note_on_c, 0, 62, 0
4, 10320, Note_on_c, 0, 59, 0
4, 10320, Note_on_c, 0, 55, 62
4, 10560, Note_on_c, 0, 55, 0
4, 10560, Note_on_c, 0, 50, 75
4, 10560, Note_on_c, 0, 54, 75
4, 10560, Note_on_c, 0, 57, 75
4, 10800, Note_on_c, 0, 57, 0
4, 10800, Note_on_c, 0, 54, 0
4, 10800, Note_on_c, 0, 50, 0
4, 11520, Note_on_c, 0, 55, 49
4, 11520, Note_on_c, 0, 59, 49
4, 11760, Note_on_c, 0, 59, 0
4, 11760, Note_on_c, 0, 55, 0
4, 12000, Note_on_c, 0, 55, 49
4, 12000, Note_on_c, 0, 59, 49
4, 12240, Note_on_c, 0, 59, 0
4, 12240, Note_on_c, 0, 55, 0
4, 12480, Note_on_c, 0, 50, 49
4, 12480, Note_on_c, 0, 54, 49
4, 12480, Note_on_c, 0, 57, 49
4, 12480, Note_on_c, 0, 60, 49
4, 12720, Note_on_c, 0, 60, 0
4, 12720, Note_on_c, 0, 50, 0
4, 12720, Note_on_c, 0, 54, 0
4, 12720, Note_on_c, 0, 57, 0
4, 12720, Note_on_c, 0, 50, 49
4, 12720, Note_on_c, 0, 54, 49
4, 12720, Note_on_c, 0, 57, 49
4, 12720, Note_on_c, 0, 60, 49
4, 12960, Note_on_c, 0, 60, 0
4, 12960, Note_on_c, 0, 50, 0
4, 12960, Note_on_c, 0, 54, 0
4, 12960, Note_on_c, 0, 57, 0
4, 12960, Note_on_c, 0, 55, 49
4, 12960, Note_on_c, 0, 59, 49
4, 13200, Note_on_c, 0, 59, 0
4, 13200, Note_on_c, 0, 55, 0
4, 13440, Note_on_c, 0, 55, 49
4, 13440, Note_on_c, 0, 59, 49
4, 13680, Note_on_c, 0, 59, 0
4, 13680, Note_on_c, 0, 55, 0
4, 13920, Note_on_c, 0, 55, 49
4, 13920, Note_on_c, 0, 59, 49
4, 14160, Note_on_c, 0, 59, 0
4, 14160, Note_on_c, 0, 55, 0
4, 14400, Note_on_c, 0, 50, 49
4, 14400, Note_on_c, 0, 54, 49
4, 14400, Note_on_c, 0, 57, 49
4, 14400, Note_on_c, 0, 60, 49
4, 14640, Note_on_c, 0, 60, 0
4, 14640, Note_on_c, 0, 50, 0
4, 14640, Note_on_c, 0, 54, 0
4, 14640, Note_on_c, 0, 57, 0
4, 14640, Note_on_c, 0, 50, 49
4, 14640, Note_on_c, 0, 54, 49
4, 14640, Note_on_c, 0, 57, 49
4, 14640, Note_on_c, 0, 60, 49
4, 14880, Note_on_c, 0, 60, 0
4, 14880, Note_on_c, 0, 50, 0
4, 14880, Note_on_c, 0, 54, 0
4, 14880, Note_on_c, 0, 57, 0
4, 14880, Note_on_c, 0, 55, 49
4, 14880, Note_on_c, 0, 59, 49
4, 15120, Note_on_c, 0, 59, 0
4, 15120, Note_on_c, 0, 55, 0
4, 15120, Note_on_c, 0, 50, 49
4, 15360, Note_on_c, 0, 43, 49
4, 15360, Note_on_c, 0, 47, 49
4, 15600, Note_on_c, 0, 47, 0
4, 15600, Note_on_c, 0, 43, 0
4, 15600, Note_on_c, 0, 50, 0
4, 15840, Note_on_c, 0, 47, 49
4, 15840, Note_on_c, 0, 50, 49
4, 15840, Note_on_c, 0, 55, 49
4, 16080, Note_on_c, 0, 55, 0
4, 16080, Note_on_c, 0, 50, 0
4, 16080, Note_on_c, 0, 47, 0
4, 16320, Note_on_c, 0, 50, 62
4, 16320, Note_on_c, 0, 55, 62
4, 16320, Note_on_c, 0, 59, 62
4, 16560, Note_on_c, 0, 59, 0
4, 16560, Note_on_c, 0, 55, 0
4, 16560, Note_on_c, 0, 50, 0
4, 16800, Note_on_c, 0, 55, 62
4, 16800, Note_on_c, 0, 59, 62
4, 16800, Note_on_c, 0, 62, 62
4, 17040, Note_on_c, 0, 62, 0
4, 17040, Note_on_c, 0, 59, 0
4, 17040, Note_on_c, 0, 55, 0
4, 17280, Note_on_c, 0, 59, 75
4, 17280, Note_on_c, 0, 62, 75
4, 17280, Note_on_c, 0, 67, 75
4, 18240, Note_on_c, 0, 67, 0
4, 18240, Note_on_c, 0, 62, 0
4, 18240, Note_on_c, 0, 59, 0
4, 18240, Note_on_c, 0, 57, 75
4, 18240, Note_on_c, 0, 61, 75
4, 18240, Note_on_c, 0, 67, 75
4, 18480, Note_on_c, 0, 67, 0
4, 18480, Note_on_c, 0, 61, 0
4, 18480, Note_on_c, 0, 57, 0
4, 18720, Note_on_c, 0, 62, 75
4, 18720, Note_on_c, 0, 66, 75
4, 18960, Note_on_c, 0, 66, 0
4, 18960, Note_on_c, 0, 62, 0
4, 19200, Note_on_c, 0, 60, 49
4, 19680, Note_on_c, 0, 60, 0
4, 19680, Note_on_c, 0, 54, 49
4, 20160, Note_on_c, 0, 54, 0
4, 20160, Note_on_c, 0, 56, 49
4, 20640, Note_on_c, 0, 56, 0
4, 20640, Note_on_c, 0, 57, 49
4, 21120, Note_on_c, 0, 57, 0
4, 21120, Note_on_c, 0, 58, 49
4, 21600, Note_on_c, 0, 58, 0
4, 21600, Note_on_c, 0, 59, 49
4, 22080, Note_on_c, 0, 59, 0
4, 22080, Note_on_c, 0, 57, 49
4, 22080, Note_on_c, 0, 61, 49
4, 22560, Note_on_c, 0, 61, 0
4, 22560, Note_on_c, 0, 57, 0
4, 22560, Note_on_c, 0, 57, 49
4, 22560, Note_on_c, 0, 62, 49
4, 22800, Note_on_c, 0, 62, 0
4, 22800, Note_on_c, 0, 57, 0
4, 23040, Note_on_c, 0, 60, 62
4, 23520, Note_on_c, 0, 60, 0
4, 23520, Note_on_c, 0, 54, 62
4, 24000, Note_on_c, 0, 54, 0
4, 24000, Note_on_c, 0, 56, 62
4, 24480, Note_on_c, 0, 56, 0
4, 24480, Note_on_c, 0, 57, 62
4, 24960, Note_on_c, 0, 57, 0
4, 24960, Note_on_c, 0, 58, 62
4, 25440, Note_on_c, 0, 58, 0
4, 25440, Note_on_c, 0, 59, 62
4, 25920, Note_on_c, 0, 59, 0
4, 25920, Note_on_c, 0, 52, 75
4, 25920, Note_on_c, 0, 55, 75
4, 25920, Note_on_c, 0, 61, 75
4, 26400, Note_on_c, 0, 61, 0
4, 26400, Note_on_c, 0, 55, 0
4, 26400, Note_on_c, 0, 52, 0
4, 26400, Note_on_c, 0, 54, 75
4, 26400, Note_on_c, 0, 57, 75
4, 26400, Note_on_c, 0, 62, 75
4, 26640, Note_on_c, 0, 62, 0
4, 26640, Note_on_c, 0, 57, 0
4, 26640, Note_on_c, 0, 54, 0
4, 26880, Note_on_c, 0, 55, 62
4, 26880, Note_on_c, 0, 59, 62
4, 27120, Note_on_c, 0, 59, 0
4, 27120, Note_on_c, 0, 55, 0
4, 27360, Note_on_c, 0, 55, 62
4, 27360, Note_on_c, 0, 59, 62
4, 27600, Note_on_c, 0, 59, 0
4, 27600, Note_on_c, 0, 55, 0
4, 27840, Note_on_c, 0, 50, 62
4, 27840, Note_on_c, 0, 54, 62
4, 27840, Note_on_c, 0, 57, 62
4, 27840, Note_on_c, 0, 60, 62
4, 28080, Note_on_c, 0, 60, 0
4, 28080, Note_on_c, 0, 50, 0
4, 28080, Note_on_c, 0, 54, 0
4, 28080, Note_on_c, 0, 57, 0
4, 28080, Note_on_c, 0, 50, 62
4, 28080, Note_on_c, 0, 54, 62
4, 28080, Note_on_c, 0, 57, 62
4, 28080, Note_on_c, 0, 60, 62
4, 28320, Note_on_c, 0, 60, 0
4, 28320, Note_on_c, 0, 50, 0
4, 28320, Note_on_c, 0, 54, 0
4, 28320, Note_on_c, 0, 57, 0
4, 28320, Note_on_c, 0, 55, 62
4, 28320, Note_on_c, 0, 59, 62
4, 28560, Note_on_c, 0, 59, 0
4, 28560, Note_on_c, 0, 55, 0
4, 28800, Note_on_c, 0, 55, 62
4, 28800, Note_on_c, 0, 59, 62
4, 29040, Note_on_c, 0, 59, 0
4, 29040, Note_on_c, 0, 55, 0
4, 29280, Note_on_c, 0, 55, 62
4, 29280, Note_on_c, 0, 59, 62
4, 29520, Note_on_c, 0, 59, 0
4, 29520, Note_on_c, 0, 55, 0
4, 29760, Note_on_c, 0, 50, 62
4, 29760, Note_on_c, 0, 54, 62
4, 29760, Note_on_c, 0, 57, 62
4, 29760, Note_on_c, 0, 60, 62
4, 30000, Note_on_c, 0, 60, 0
4, 30000, Note_on_c, 0, 50, 0
4, 30000, Note_on_c, 0, 54, 0
4, 30000, Note_on_c, 0, 57, 0
4, 30000, Note_on_c, 0, 50, 62
4, 30000, Note_on_c, 0, 54, 62
4, 30000, Note_on_c, 0, 57, 62
4, 30000, Note_on_c, 0, 60, 62
4, 30240, Note_on_c, 0, 60, 0
4, 30240, Note_on_c, 0, 50, 0
4, 30240, Note_on_c, 0, 54, 0
4, 30240, Note_on_c, 0, 57, 0
4, 30240, Note_on_c, 0, 55, 62
4, 30240, Note_on_c, 0, 59, 62
4, 30480, Note_on_c, 0, 59, 0
4, 30480, Note_on_c, 0, 55, 0
4, 30480, Note_on_c, 0, 50, 62
4, 30720, Note_on_c, 0, 43, 62
4, 30720, Note_on_c, 0, 47, 62
4, 30960, Note_on_c, 0, 47, 0
4, 30960, Note_on_c, 0, 43, 0
4, 30960, Note_on_c, 0, 50, 0
4, 31200, Note_on_c, 0, 47, 62
4, 31200, Note_on_c, 0, 50, 62
4, 31200, Note_on_c, 0, 55, 62
4, 31440, Note_on_c, 0, 55, 0
4, 31440, Note_on_c, 0, 50, 0
4, 31440, Note_on_c, 0, 47, 0
4, 31680, Note_on_c, 0, 50, 62
4, 31680, Note_on_c, 0, 55, 62
4, 31680, Note_on_c, 0, 59, 62
4, 31920, Note_on_c, 0, 59, 0
4, 31920, Note_on_c, 0, 55, 0
4, 31920, Note_on_c, 0, 50, 0
4, 32160, Note_on_c, 0, 55, 62
4, 32160, Note_on_c, 0, 59, 62
4, 32160, Note_on_c, 0, 62, 62
4, 32400, Note_on_c, 0, 62, 0
4, 32400, Note_on_c, 0, 59, 0
4, 32400, Note_on_c, 0, 55, 0
4, 32640, Note_on_c, 0, 59, 62
4, 32640, Note_on_c, 0, 62, 62
4, 32640, Note_on_c, 0, 67, 62
4, 33360, Note_on_c, 0, 67, 0
4, 33360, Note_on_c, 0, 62, 0
4, 33360, Note_on_c, 0, 59, 0
4, 33360, Note_on_c, 0, 55, 62
4, 33600, Note_on_c, 0, 55, 0
4, 33600, Note_on_c, 0, 50, 75
4, 33600, Note_on_c, 0, 54, 75
4, 33600, Note_on_c, 0, 57, 75
4, 33840, Note_on_c, 0, 57, 0
4, 33840, Note_on_c, 0, 54, 0
4, 33840, Note_on_c, 0, 50, 0
4, 34560, Note_on_c, 0, 55, 62
4, 34560, Note_on_c, 0, 59, 62
4, 34800, Note_on_c, 0, 59, 0
4, 34800, Note_on_c, 0, 55, 0
4, 35040, Note_on_c, 0, 55, 62
4, 35040, Note_on_c, 0, 59, 62
4, 35280, Note_on_c, 0, 59, 0
4, 35280, Note_on_c, 0, 55, 0
4, 35520, Note_on_c, 0, 50, 62
4, 35520, Note_on_c, 0, 54, 62
4, 35520, Note_on_c, 0, 57, 62
4, 35520, Note_on_c, 0, 60, 62
4, 35760, Note_on_c, 0, 60, 0
4, 35760, Note_on_c, 0, 50, 0
4, 35760, Note_on_c, 0, 54, 0
4, 35760, Note_on_c, 0, 57, 0
4, 35760, Note_on_c, 0, 50, 62
4, 35760, Note_on_c, 0, 54, 62
4, 35760, Note_on_c, 0, 57, 62
4, 35760, Note_on_c, 0, 60, 62
4, 36000, Note_on_c, 0, 60, 0
4, 36000, Note_on_c, 0, 50, 0
4, 36000, Note_on_c, 0, 54, 0
4, 36000, Note_on_c, 0, 57, 0
4, 36000, Note_on_c, 0, 55, 62
4, 36000, Note_on_c, 0, 59, 62
4, 36240, Note_on_c, 0, 59, 0
4, 36240, Note_on_c, 0, 55, 0
4, 36480, Note_on_c, 0, 55, 62
4, 36480, Note_on_c, 0, 59, 62
4, 36720, Note_on_c, 0, 59, 0
4, 36720, Note_on_c, 0, 55, 0
4, 36960, Note_on_c, 0, 55, 62
4, 36960, Note_on_c, 0, 59, 62
4, 37200, Note_on_c, 0, 59, 0
4, 37200, Note_on_c, 0, 55, 0
4, 37440, Note_on_c, 0, 50, 62
4, 37440, Note_on_c, 0, 54, 62
4, 37440, Note_on_c, 0, 57, 62
4, 37440, Note_on_c, 0, 60, 62
4, 37680, Note_on_c, 0, 60, 0
4, 37680, Note_on_c, 0, 50, 0
4, 37680, Note_on_c, 0, 54, 0
4, 37680, Note_on_c, 0, 57, 0
4, 37680, Note_on_c, 0, 50, 62
4, 37680, Note_on_c, 0, 54, 62
4, 37680, Note_on_c, 0, 57, 62
4, 37680, Note_on_c, 0, 60, 62
4, 37920, Note_on_c, 0, 60, 0
4, 37920, Note_on_c, 0, 50, 0
4, 37920, Note_on_c, 0, 54, 0
4, 37920, Note_on_c, 0, 57, 0
4, 37920, Note_on_c, 0, 55, 62
4, 37920, Note_on_c, 0, 59, 62
4, 38160, Note_on_c, 0, 59, 0
4, 38160, Note_on_c, 0, 55, 0
4, 38160, Note_on_c, 0, 50, 62
4, 38400, Note_on_c, 0, 43, 62
4, 38400, Note_on_c, 0, 47, 62
4, 38640, Note_on_c, 0, 47, 0
4, 38640, Note_on_c, 0, 43, 0
4, 38640, Note_on_c, 0, 50, 0
4, 38880, Note_on_c, 0, 47, 62
4, 38880, Note_on_c, 0, 50, 62
4, 38880, Note_on_c, 0, 55, 62
4, 39120, Note_on_c, 0, 55, 0
4, 39120, Note_on_c, 0, 50, 0
4, 39120, Note_on_c, 0, 47, 0
4, 39360, Note_on_c, 0, 50, 62
4, 39360, Note_on_c, 0, 55, 62
4, 39360, Note_on_c, 0, 59, 62
4, 39600, Note_on_c, 0, 59, 0
4, 39600, Note_on_c, 0, 55, 0
4, 39600, Note_on_c, 0, 50, 0
4, 39840, Note_on_c, 0, 55, 62
4, 39840, Note_on_c, 0, 59, 62
4, 39840, Note_on_c, 0, 62, 62
4, 40080, Note_on_c, 0, 62, 0
4, 40080, Note_on_c, 0, 59, 0
4, 40080, Note_on_c, 0, 55, 0
4, 40320, Note_on_c, 0, 55, 62
4, 40320, Note_on_c, 0, 59, 62
4, 40320, Note_on_c, 0, 62, 62
4, 40560, Note_on_c, 0, 62, 0
4, 40560, Note_on_c, 0, 59, 0
4, 40560, Note_on_c, 0, 55, 0
4, 40800, Note_on_c, 0, 59, 75
4, 40800, Note_on_c, 0, 62, 75
4, 40800, Note_on_c, 0, 67, 75
4, 41040, Note_on_c, 0, 67, 0
4, 41040, Note_on_c, 0, 62, 0
4, 41040, Note_on_c, 0, 59, 0
4, 41280, Note_on_c, 0, 62, 75
4, 41280, Note_on_c, 0, 67, 75
4, 41280, Note_on_c, 0, 71, 75
4, 41520, Note_on_c, 0, 71, 0
4, 41520, Note_on_c, 0, 67, 0
4, 41520, Note_on_c, 0, 62, 0
4, 41760, Note_on_c, 0, 67, 88
4, 41760, Note_on_c, 0, 71, 88
4, 41760, Note_on_c, 0, 74, 88
4, 42000, Note_on_c, 0, 74, 0
4, 42000, Note_on_c, 0, 71, 0
4, 42000, Note_on_c, 0, 67, 0
4, 42240, Note_on_c, 0, 60, 88
4, 42240, Note_on_c, 0, 64, 88
4, 42720, Note_on_c, 0, 64, 0
4, 42720, Note_on_c, 0, 60, 0
4, 42720, Note_on_c, 0, 48, 88
4, 42720, Note_on_c, 0, 52, 88
4, 42720, Note_on_c, 0, 55, 88
4, 42720, Note_on_c, 0, 60, 88
4, 42960, Note_on_c, 0, 60, 0
4, 42960, Note_on_c, 0, 48, 0
4, 42960, Note_on_c, 0, 52, 0
4, 42960, Note_on_c, 0, 55, 0
4, 43080, Note_on_c, 0, 64, 88
4, 43200, Note_on_c, 0, 64, 0
4, 43200, Note_on_c, 0, 55, 88
4, 43200, Note_on_c, 0, 59, 88
4, 43200, Note_on_c, 0, 65, 88
4, 43380, Note_on_c, 0, 65, 0
4, 43380, Note_on_c, 0, 59, 0
4, 43380, Note_on_c, 0, 55, 0
4, 43380, Note_on_c, 0, 64, 88
4, 43440, Note_on_c, 0, 64, 0
4, 43440, Note_on_c, 0, 62, 88
4, 43620, Note_on_c, 0, 62, 0
4, 43620, Note_on_c, 0, 65, 88
4, 43680, Note_on_c, 0, 65, 0
4, 43680, Note_on_c, 0, 60, 88
4, 43680, Note_on_c, 0, 64, 88
4, 43920, Note_on_c, 0, 64, 0
4, 43920, Note_on_c, 0, 60, 0
4, 43920, Note_on_c, 0, 59, 88
4, 43920, Note_on_c, 0, 60, 88
4, 43920, Note_on_c, 0, 67, 88
4, 44160, Note_on_c, 0, 67, 0
4, 44160, Note_on_c, 0, 60, 0
4, 44160, Note_on_c, 0, 59, 0
4, 44160, Note_on_c, 0, 57, 88
4, 44160, Note_on_c, 0, 60, 88
4, 44160, Note_on_c, 0, 65, 88
4, 44400, Note_on_c, 0, 65, 0
4, 44400, Note_on_c, 0, 60, 0
4, 44400, Note_on_c, 0, 57, 0
4, 44400, Note_on_c, 0, 55, 88
4, 44400, Note_on_c, 0, 60, 88
4, 44400, Note_on_c, 0, 64, 88
4, 44640, Note_on_c, 0, 64, 0
4, 44640, Note_on_c, 0, 60, 0
4, 44640, Note_on_c, 0, 55, 0
4, 44640, Note_on_c, 0, 53, 88
4, 44640, Note_on_c, 0, 55, 88
4, 44640, Note_on_c, 0, 62, 88
4, 44880, Note_on_c, 0, 62, 0
4, 44880, Note_on_c, 0, 55, 0
4, 44880, Note_on_c, 0, 53, 0
4, 44880, Note_on_c, 0, 52, 88
4, 44880, Note_on_c, 0, 55, 88
4, 44880, Note_on_c, 0, 60, 88
4, 45120, Note_on_c, 0, 60, 0
4, 45120, Note_on_c, 0, 55, 0
4, 45120, Note_on_c, 0, 52, 0
4, 45120, Note_on_c, 0, 50, 88
4, 45120, Note_on_c, 0, 55, 88
4, 45120, Note_on_c, 0, 59, 88
4, 45360, Note_on_c, 0, 59, 0
4, 45360, Note_on_c, 0, 55, 0
4, 45360, Note_on_c, 0, 50, 0
4, 45360, Note_on_c, 0, 52, 88
4, 45360, Note_on_c, 0, 55, 88
4, 45360, Note_on_c, 0, 60, 88
4, 45600, Note_on_c, 0, 60, 0
4, 45600, Note_on_c, 0, 55, 0
4, 45600, Note_on_c, 0, 52, 0
4, 45600, Note_on_c, 0, 53, 88
4, 45600, Note_on_c, 0, 55, 88
4, 45600, Note_on_c, 0, 62, 88
4, 45840, Note_on_c, 0, 62, 0
4, 45840, Note_on_c, 0, 55, 0
4, 45840, Note_on_c, 0, 53, 0
4, 45840, Note_on_c, 0, 52, 88
4, 45840, Note_on_c, 0, 55, 88
4, 45840, Note_on_c, 0, 60, 88
4, 46080, Note_on_c, 0, 60, 0
4, 46080, Note_on_c, 0, 55, 0
4, 46080, Note_on_c, 0, 52, 0
4, 46080, Note_on_c, 0, 59, 88
4, 46080, Note_on_c, 0, 62, 88
4, 46080, Note_on_c, 0, 65, 88
4, 46320, Note_on_c, 0, 65, 0
4, 46320, Note_on_c, 0, 62, 0
4, 46320, Note_on_c, 0, 59, 0
4, 46320, Note_on_c, 0, 60, 88
4, 46320, Note_on_c, 0, 64, 88
4, 46560, Note_on_c, 0, 64, 0
4, 46560, Note_on_c, 0, 60, 0
4, 46560, Note_on_c, 0, 60, 114
4, 46560, Note_on_c, 0, 64, 114
4, 47040, Note_on_c, 0, 64, 0
4, 47040, Note_on_c, 0, 60, 0
4, 47040, Note_on_c, 0, 59, 88
4, 47040, Note_on_c, 0, 62, 88
4, 47520, Note_on_c, 0, 62, 0
4, 47520, Note_on_c, 0, 59, 0
4, 48000, Note_on_c, 0, 36, 101
4, 48000, Note_on_c, 0, 48, 101
4, 48480, Note_on_c, 0, 48, 0
4, 48480, Note_on_c, 0, 36, 0
4, 48480, Note_on_c, 0, 40, 75
4, 48480, Note_on_c, 0, 52, 75
4, 48840, Note_on_c, 0, 52, 0
4, 48840, Note_on_c, 0, 40, 0
4, 48840, Note_on_c, 0, 36, 75
4, 48840, Note_on_c, 0, 48, 75
4, 48960, Note_on_c, 0, 48, 0
4, 48960, Note_on_c, 0, 36, 0
4, 48960, Note_on_c, 0, 35, 75
4, 48960, Note_on_c, 0, 47, 75
4, 49200, Note_on_c, 0, 47, 0
4, 49200, Note_on_c, 0, 35, 0
4, 49200, Note_on_c, 0, 31, 75
4, 49200, Note_on_c, 0, 43, 75
4, 49440, Note_on_c, 0, 43, 0
4, 49440, Note_on_c, 0, 31, 0
4, 49440, Note_on_c, 0, 36, 75
4, 49440, Note_on_c, 0, 48, 75
4, 49680, Note_on_c, 0, 48, 0
4, 49680, Note_on_c, 0, 36, 0
4, 49680, Note_on_c, 0, 45, 88
4, 49680, Note_on_c, 0, 57, 88
4, 49920, Note_on_c, 0, 57, 0
4, 49920, Note_on_c, 0, 45, 0
4, 49920, Note_on_c, 0, 47, 88
4, 49920, Note_on_c, 0, 59, 88
4, 50160, Note_on_c, 0, 59, 0
4, 50160, Note_on_c, 0, 47, 0
4, 50160, Note_on_c, 0, 42, 88
4, 50160, Note_on_c, 0, 54, 88
4, 50400, Note_on_c, 0, 54, 0
4, 50400, Note_on_c, 0, 42, 0
4, 50400, Note_on_c, 0, 43, 88
4, 50400, Note_on_c, 0, 55, 88
4, 50640, Note_on_c, 0, 55, 0
4, 50640, Note_on_c, 0, 43, 0
4, 50640, Note_on_c, 0, 40, 88
4, 50640, Note_on_c, 0, 52, 88
4, 50880, Note_on_c, 0, 52, 0
4, 50880, Note_on_c, 0, 40, 0
4, 50880, Note_on_c, 0, 38, 88
4, 50880, Note_on_c, 0, 50, 88
4, 51060, Note_on_c, 0, 50, 0
4, 51060, Note_on_c, 0, 38, 0
4, 51060, Note_on_c, 0, 50, 101
4, 51120, Note_on_c, 0, 50, 0
4, 51120, Note_on_c, 0, 52, 101
4, 51300, Note_on_c, 0, 52, 0
4, 51300, Note_on_c, 0, 54, 101
4, 51360, Note_on_c, 0, 54, 0
4, 51360, Note_on_c, 0, 55, 101
4, 51540, Note_on_c, 0, 55, 0
4, 51540, Note_on_c, 0, 57, 101
4, 51600, Note_on_c, 0, 57, 0
4, 51600, Note_on_c, 0, 59, 101
4, 51780, Note_on_c, 0, 59, 0
4, 51780, Note_on_c, 0, 55, 101
4, 51840, Note_on_c, 0, 55, 0
4, 51840, Note_on_c, 0, 62, 101
4, 52080, Note_on_c, 0, 62, 0
4, 52080, Note_on_c, 0, 50, 88
4, 52080, Note_on_c, 0, 57, 88
4, 52080, Note_on_c, 0, 62, 88
4, 52320, Note_on_c, 0, 62, 0
4, 52320, Note_on_c, 0, 57, 0
4, 52320, Note_on_c, 0, 50, 0
4, 52320, Note_on_c, 0, 62, 88
4, 52320, Note_on_c, 0, 66, 88
4, 52800, Note_on_c, 0, 66, 0
4, 52800, Note_on_c, 0, 62, 0
4, 52800, Note_on_c, 0, 62, 88
4, 52800, Note_on_c, 0, 67, 88
4, 53040, Note_on_c, 0, 67, 0
4, 53040, Note_on_c, 0, 62, 0
4, 53760, Note_on_c, 0, 48, 101
4, 53880, Note_on_c, 0, 48, 0
4, 53880, Note_on_c, 0, 47, 101
4, 54000, Note_on_c, 0, 47, 0
4, 54000, Note_on_c, 0, 48, 101
4, 54120, Note_on_c, 0, 48, 0
4, 54120, Note_on_c, 0, 50, 101
4, 54240, Note_on_c, 0, 50, 0
4, 54240, Note_on_c, 0, 52, 101
4, 54360, Note_on_c, 0, 52, 0
4, 54360, Note_on_c, 0, 51, 101
4, 54480, Note_on_c, 0, 51, 0
4, 54480, Note_on_c, 0, 52, 101
4, 54600, Note_on_c, 0, 52, 0
4, 54600, Note_on_c, 0, 48, 101
4, 54720, Note_on_c, 0, 48, 0
4, 54720, Note_on_c, 0, 47, 101
4, 54840, Note_on_c, 0, 47, 0
4, 54840, Note_on_c, 0, 42, 101
4, 54960, Note_on_c, 0, 42, 0
4, 54960, Note_on_c, 0, 43, 101
4, 55080, Note_on_c, 0, 43, 0
4, 55080, Note_on_c, 0, 47, 101
4, 55200, Note_on_c, 0, 47, 0
4, 55200, Note_on_c, 0, 48, 101
4, 55320, Note_on_c, 0, 48, 0
4, 55320, Note_on_c, 0, 50, 101
4, 55440, Note_on_c, 0, 50, 0
4, 55440, Note_on_c, 0, 52, 101
4, 55560, Note_on_c, 0, 52, 0
4, 55560, Note_on_c, 0, 40, 101
4, 55680, Note_on_c, 0, 40, 0
4, 55680, Note_on_c, 0, 41, 101
4, 55800, Note_on_c, 0, 41, 0
4, 55800, Note_on_c, 0, 45, 101
4, 55920, Note_on_c, 0, 45, 0
4, 55920, Note_on_c, 0, 43, 101
4, 56040, Note_on_c, 0, 43, 0
4, 56040, Note_on_c, 0, 45, 101
4, 56160, Note_on_c, 0, 45, 0
4, 56160, Note_on_c, 0, 46, 101
4, 56280, Note_on_c, 0, 46, 0
4, 56280, Note_on_c, 0, 47, 101
4, 56400, Note_on_c, 0, 47, 0
4, 56400, Note_on_c, 0, 48, 101
4, 56520, Note_on_c, 0, 48, 0
4, 56520, Note_on_c, 0, 45, 101
4, 56640, Note_on_c, 0, 45, 0
4, 56640, Note_on_c, 0, 50, 101
4, 56760, Note_on_c, 0, 50, 0
4, 56760, Note_on_c, 0, 47, 101
4, 56880, Note_on_c, 0, 47, 0
4, 56880, Note_on_c, 0, 52, 101
4, 57000, Note_on_c, 0, 52, 0
4, 57000, Note_on_c, 0, 48, 101
4, 57120, Note_on_c, 0, 48, 0
4, 57120, Note_on_c, 0, 53, 101
4, 57240, Note_on_c, 0, 53, 0
4, 57240, Note_on_c, 0, 50, 101
4, 57360, Note_on_c, 0, 50, 0
4, 57360, Note_on_c, 0, 55, 101
4, 57480, Note_on_c, 0, 55, 0
4, 57480, Note_on_c, 0, 52, 101
4, 57600, Note_on_c, 0, 52, 0
4, 57600, Note_on_c, 0, 57, 101
4, 57720, Note_on_c, 0, 57, 0
4, 57720, Note_on_c, 0, 45, 101
4, 57840, Note_on_c, 0, 45, 0
4, 57840, Note_on_c, 0, 45, 101
4, 57960, Note_on_c, 0, 45, 0
4, 57960, Note_on_c, 0, 57, 101
4, 58080, Note_on_c, 0, 57, 0
4, 58080, Note_on_c, 0, 55, 101
4, 58200, Note_on_c, 0, 55, 0
4, 58200, Note_on_c, 0, 43, 101
4, 58320, Note_on_c, 0, 43, 0
4, 58320, Note_on_c, 0, 43, 101
4, 58440, Note_on_c, 0, 43, 0
4, 58440, Note_on_c, 0, 55, 101
4, 58680, Note_on_c, 0, 55, 0
4, 58680, Note_on_c, 0, 57, 101
4, 58800, Note_on_c, 0, 57, 0
4, 58800, Note_on_c, 0, 55, 101
4, 58920, Note_on_c, 0, 55, 0
4, 58920, Note_on_c, 0, 53, 101
4, 59040, Note_on_c, 0, 53, 0
4, 59040, Note_on_c, 0, 52, 101
4, 59160, Note_on_c, 0, 52, 0
4, 59160, Note_on_c, 0, 53, 101
4, 59280, Note_on_c, 0, 53, 0
4, 59280, Note_on_c, 0, 52, 101
4, 59400, Note_on_c, 0, 52, 0
4, 59400, Note_on_c, 0, 50, 101
4, 59520, Note_on_c, 0, 50, 0
4, 59520, Note_on_c, 0, 48, 101
4, 59640, Note_on_c, 0, 48, 0
4, 59640, Note_on_c, 0, 47, 101
4, 59760, Note_on_c, 0, 47, 0
4, 59760, Note_on_c, 0, 48, 101
4, 59880, Note_on_c, 0, 48, 0
4, 59880, Note_on_c, 0, 50, 101
4, 60000, Note_on_c, 0, 50, 0
4, 60000, Note_on_c, 0, 52, 101
4, 60120, Note_on_c, 0, 52, 0
4, 60120, Note_on_c, 0, 51, 101
4, 60240, Note_on_c, 0, 51, 0
4, 60240, Note_on_c, 0, 52, 101
4, 60360, Note_on_c, 0, 52, 0
4, 60360, Note_on_c, 0, 48, 101
4, 60480, Note_on_c, 0, 48, 0
4, 60480, Note_on_c, 0, 47, 101
4, 60600, Note_on_c, 0, 47, 0
4, 60600, Note_on_c, 0, 42, 101
4, 60720, Note_on_c, 0, 42, 0
4, 60720, Note_on_c, 0, 43, 101
4, 60840, Note_on_c, 0, 43, 0
4, 60840, Note_on_c, 0, 47, 101
4, 60960, Note_on_c, 0, 47, 0
4, 60960, Note_on_c, 0, 48, 101
4, 61080, Note_on_c, 0, 48, 0
4, 61080, Note_on_c, 0, 50, 101
4, 61200, Note_on_c, 0, 50, 0
4, 61200, Note_on_c, 0, 52, 101
4, 61320, Note_on_c, 0, 52, 0
4, 61320, Note_on_c, 0, 40, 101
4, 61440, Note_on_c, 0, 40, 0
4, 61440, Note_on_c, 0, 41, 101
4, 61560, Note_on_c, 0, 41, 0
4, 61560, Note_on_c, 0, 45, 101
4, 61680, Note_on_c, 0, 45, 0
4, 61680, Note_on_c, 0, 43, 101
4, 61800, Note_on_c, 0, 43, 0
4, 61800, Note_on_c, 0, 47, 101
4, 61920, Note_on_c, 0, 47, 0
4, 61920, Note_on_c, 0, 44, 101
4, 62040, Note_on_c, 0, 44, 0
4, 62040, Note_on_c, 0, 47, 101
4, 62160, Note_on_c, 0, 47, 0
4, 62160, Note_on_c, 0, 45, 101
4, 62280, Note_on_c, 0, 45, 0
4, 62280, Note_on_c, 0, 48, 101
4, 62400, Note_on_c, 0, 48, 0
4, 62400, Note_on_c, 0, 47, 101
4, 62520, Note_on_c, 0, 47, 0
4, 62520, Note_on_c, 0, 50, 101
4, 62640, Note_on_c, 0, 50, 0
4, 62640, Note_on_c, 0, 48, 101
4, 62760, Note_on_c, 0, 48, 0
4, 62760, Note_on_c, 0, 52, 101
4, 62880, Note_on_c, 0, 52, 0
4, 62880, Note_on_c, 0, 50, 101
4, 63000, Note_on_c, 0, 50, 0
4, 63000, Note_on_c, 0, 53, 101
4, 63120, Note_on_c, 0, 53, 0
4, 63120, Note_on_c, 0, 52, 101
4, 63240, Note_on_c, 0, 52, 0
4, 63240, Note_on_c, 0, 55, 101
4, 63360, Note_on_c, 0, 55, 0
4, 63360, Note_on_c, 0, 53, 101
4, 63480, Note_on_c, 0, 53, 0
4, 63480, Note_on_c, 0, 57, 101
4, 63600, Note_on_c, 0, 57, 0
4, 63600, Note_on_c, 0, 53, 101
4, 63720, Note_on_c, 0, 53, 0
4, 63720, Note_on_c, 0, 57, 101
4, 63840, Note_on_c, 0, 57, 0
4, 63840, Note_on_c, 0, 54, 101
4, 63960, Note_on_c, 0, 54, 0
4, 63960, Note_on_c, 0, 57, 101
4, 64080, Note_on_c, 0, 57, 0
4, 64080, Note_on_c, 0, 54, 101
4, 64200, Note_on_c, 0, 54, 0
4, 64200, Note_on_c, 0, 57, 101
4, 64320, Note_on_c, 0, 57, 0
4, 64320, Note_on_c, 0, 55, 101
4, 64440, Note_on_c, 0, 55, 0
4, 64440, Note_on_c, 0, 57, 101
4, 64560, Note_on_c, 0, 57, 0
4, 64560, Note_on_c, 0, 55, 101
4, 64680, Note_on_c, 0, 55, 0
4, 64680, Note_on_c, 0, 43, 101
4, 64800, Note_on_c, 0, 43, 0
4, 64800, Note_on_c, 0, 48, 101
4, 64920, Note_on_c, 0, 48, 0
4, 65040, Note_on_c, 0, 60, 101
4, 65040, Note_on_c, 0, 64, 101
4, 65040, Note_on_c, 0, 67, 101
4, 65160, Note_on_c, 0, 67, 0
4, 65160, Note_on_c, 0, 64, 0
4, 65160, Note_on_c, 0, 60, 0
4, 66240, Note_on_c, 0, 41, 88
4, 66240, Note_on_c, 0, 45, 88
4, 66480, Note_on_c, 0, 45, 0
4, 66480, Note_on_c, 0, 41, 0
4, 66480, Note_on_c, 0, 48, 88
4, 66720, Note_on_c, 0, 48, 0
4, 66720, Note_on_c, 0, 53, 88
4, 66960, Note_on_c, 0, 53, 0
4, 66960, Note_on_c, 0, 41, 88
4, 66960, Note_on_c, 0, 45, 88
4, 67200, Note_on_c, 0, 45, 0
4, 67200, Note_on_c, 0, 41, 0
4, 67200, Note_on_c, 0, 48, 88
4, 67440, Note_on_c, 0, 48, 0
4, 67440, Note_on_c, 0, 53, 88
4, 67680, Note_on_c, 0, 53, 0
4, 67680, Note_on_c, 0, 41, 88
4, 67680, Note_on_c, 0, 45, 88
4, 67920, Note_on_c, 0, 45, 0
4, 67920, Note_on_c, 0, 41, 0
4, 67920, Note_on_c, 0, 48, 88
4, 68160, Note_on_c, 0, 48, 0
4, 68160, Note_on_c, 0, 53, 88
4, 68400, Note_on_c, 0, 53, 0
4, 68400, Note_on_c, 0, 41, 75
4, 68400, Note_on_c, 0, 45, 75
4, 68640, Note_on_c, 0, 45, 0
4, 68640, Note_on_c, 0, 41, 0
4, 68640, Note_on_c, 0, 48, 75
4, 68880, Note_on_c, 0, 48, 0
4, 68880, Note_on_c, 0, 53, 75
4, 69120, Note_on_c, 0, 53, 0
4, 69120, Note_on_c, 0, 41, 75
4, 69120, Note_on_c, 0, 45, 75
4, 69360, Note_on_c, 0, 45, 0
4, 69360, Note_on_c, 0, 41, 0
4, 69360, Note_on_c, 0, 48, 75
4, 69600, Note_on_c, 0, 48, 0
4, 69600, Note_on_c, 0, 53, 75
4, 69840, Note_on_c, 0, 53, 0
4, 69840, Note_on_c, 0, 41, 75
4, 69840, Note_on_c, 0, 46, 75
4, 70080, Note_on_c, 0, 46, 0
4, 70080, Note_on_c, 0, 41, 0
4, 70080, Note_on_c, 0, 48, 75
4, 70320, Note_on_c, 0, 48, 0
4, 70320, Note_on_c, 0, 55, 75
4, 70560, Note_on_c, 0, 55, 0
4, 70560, Note_on_c, 0, 41, 75
4, 70560, Note_on_c, 0, 45, 75
4, 70800, Note_on_c, 0, 45, 0
4, 70800, Note_on_c, 0, 41, 0
4, 70800, Note_on_c, 0, 48, 75
4, 71040, Note_on_c, 0, 48, 0
4, 71040, Note_on_c, 0, 53, 75
4, 71280, Note_on_c, 0, 53, 0
4, 71280, Note_on_c, 0, 41, 75
4, 71280, Note_on_c, 0, 45, 75
4, 71520, Note_on_c, 0, 45, 0
4, 71520, Note_on_c, 0, 41, 0
4, 71520, Note_on_c, 0, 48, 75
4, 71760, Note_on_c, 0, 48, 0
4, 71760, Note_on_c, 0, 53, 75
4, 72000, Note_on_c, 0, 53, 0
4, 72000, Note_on_c, 0, 41, 75
4, 72000, Note_on_c, 0, 45, 75
4, 72240, Note_on_c, 0, 45, 0
4, 72240, Note_on_c, 0, 41, 0
4, 72240, Note_on_c, 0, 48, 75
4, 72480, Note_on_c, 0, 48, 0
4, 72480, Note_on_c, 0, 53, 75
4, 72720, Note_on_c, 0, 53, 0
4, 72720, Note_on_c, 0, 41, 75
4, 72720, Note_on_c, 0, 46, 75
4, 72960, Note_on_c, 0, 46, 0
4, 72960, Note_on_c, 0, 41, 0
4, 72960, Note_on_c, 0, 48, 75
4, 73200, Note_on_c, 0, 48, 0
4, 73200, Note_on_c, 0, 52, 75
4, 73440, Note_on_c, 0, 52, 0
4, 73440, Note_on_c, 0, 41, 75
4, 73440, Note_on_c, 0, 45, 75
4, 73680, Note_on_c, 0, 45, 0
4, 73680, Note_on_c, 0, 41, 0
4, 73680, Note_on_c, 0, 48, 75
4, 73920, Note_on_c, 0, 48, 0
4, 73920, Note_on_c, 0, 53, 75
4, 74160, Note_on_c, 0, 53, 0
4, 74160, Note_on_c, 0, 41, 75
4, 74160, Note_on_c, 0, 45, 75
4, 74400, Note_on_c, 0, 45, 0
4, 74400, Note_on_c, 0, 41, 0
4, 74400, Note_on_c, 0, 48, 75
4, 74640, Note_on_c, 0, 48, 0
4, 74640, Note_on_c, 0, 53, 75
4, 74880, Note_on_c, 0, 53, 0
4, 74880, Note_on_c, 0, 41, 75
4, 74880, Note_on_c, 0, 45, 75
4, 75120, Note_on_c, 0, 45, 0
4, 75120, Note_on_c, 0, 41, 0
4, 75120, Note_on_c, 0, 48, 75
4, 75360, Note_on_c, 0, 48, 0
4, 75360, Note_on_c, 0, 53, 75
4, 75600, Note_on_c, 0, 53, 0
4, 75600, Note_on_c, 0, 41, 75
4, 75600, Note_on_c, 0, 46, 75
4, 75840, Note_on_c, 0, 46, 0
4, 75840, Note_on_c, 0, 41, 0
4, 75840, Note_on_c, 0, 48, 75
4, 76080, Note_on_c, 0, 48, 0
4, 76080, Note_on_c, 0, 55, 75
4, 76320, Note_on_c, 0, 55, 0
4, 76320, Note_on_c, 0, 41, 75
4, 76320, Note_on_c, 0, 45, 75
4, 76560, Note_on_c, 0, 45, 0
4, 76560, Note_on_c, 0, 41, 0
4, 76560, Note_on_c, 0, 48, 75
4, 76800, Note_on_c, 0, 48, 0
4, 76800, Note_on_c, 0, 53, 75
4, 77040, Note_on_c, 0, 53, 0
4, 77040, Note_on_c, 0, 41, 75
4, 77040, Note_on_c, 0, 45, 75
4, 77280, Note_on_c, 0, 45, 0
4, 77280, Note_on_c, 0, 41, 0
4, 77280, Note_on_c, 0, 48, 75
4, 77520, Note_on_c, 0, 48, 0
4, 77520, Note_on_c, 0, 53, 75
4, 77760, Note_on_c, 0, 53, 0
4, 77760, Note_on_c, 0, 41, 75
4, 77760, Note_on_c, 0, 45, 75
4, 78000, Note_on_c, 0, 45, 0
4, 78000, Note_on_c, 0, 41, 0
4, 78000, Note_on_c, 0, 48, 75
4, 78240, Note_on_c, 0, 48, 0
4, 78240, Note_on_c, 0, 53, 75
4, 78480, Note_on_c, 0, 53, 0
4, 78480, Note_on_c, 0, 41, 75
4, 78480, Note_on_c, 0, 46, 75
4, 78720, Note_on_c, 0, 46, 0
4, 78720, Note_on_c, 0, 41, 0
4, 78720, Note_on_c, 0, 48, 75
4, 78960, Note_on_c, 0, 48, 0
4, 78960, Note_on_c, 0, 55, 75
4, 79200, Note_on_c, 0, 55, 0
4, 79200, Note_on_c, 0, 41, 75
4, 79200, Note_on_c, 0, 45, 75
4, 79440, Note_on_c, 0, 45, 0
4, 79440, Note_on_c, 0, 41, 0
4, 80640, Note_on_c, 0, 53, 49
4, 80880, Note_on_c, 0, 53, 0
4, 80880, Note_on_c, 0, 57, 49
4, 81120, Note_on_c, 0, 57, 0
4, 81120, Note_on_c, 0, 60, 49
4, 81360, Note_on_c, 0, 60, 0
4, 81360, Note_on_c, 0, 53, 49
4, 81600, Note_on_c, 0, 53, 0
4, 81600, Note_on_c, 0, 57, 49
4, 81840, Note_on_c, 0, 57, 0
4, 81840, Note_on_c, 0, 60, 49
4, 82080, Note_on_c, 0, 60, 0
4, 82080, Note_on_c, 0, 53, 49
4, 82320, Note_on_c, 0, 53, 0
4, 82320, Note_on_c, 0, 57, 49
4, 82560, Note_on_c, 0, 57, 0
4, 82560, Note_on_c, 0, 60, 49
4, 82800, Note_on_c, 0, 60, 0
4, 83520, Note_on_c, 0, 53, 49
4, 83760, Note_on_c, 0, 53, 0
4, 83760, Note_on_c, 0, 58, 49
4, 84000, Note_on_c, 0, 58, 0
4, 84000, Note_on_c, 0, 62, 49
4, 84240, Note_on_c, 0, 62, 0
4, 84240, Note_on_c, 0, 53, 49
4, 84480, Note_on_c, 0, 53, 0
4, 84480, Note_on_c, 0, 58, 49
4, 84720, Note_on_c, 0, 58, 0
4, 84720, Note_on_c, 0, 62, 49
4, 84960, Note_on_c, 0, 62, 0
4, 84960, Note_on_c, 0, 53, 49
4, 85200, Note_on_c, 0, 53, 0
4, 85200, Note_on_c, 0, 57, 49
4, 85440, Note_on_c, 0, 57, 0
4, 85440, Note_on_c, 0, 60, 49
4, 85680, Note_on_c, 0, 60, 0
4, 86400, Note_on_c, 0, 53, 49
4, 86640, Note_on_c, 0, 53, 0
4, 86640, Note_on_c, 0, 57, 49
4, 86880, Note_on_c, 0, 57, 0
4, 86880, Note_on_c, 0, 60, 49
4, 87120, Note_on_c, 0, 60, 0
4, 87120, Note_on_c, 0, 53, 62
4, 87360, Note_on_c, 0, 53, 0
4, 87360, Note_on_c, 0, 57, 62
4, 87600, Note_on_c, 0, 57, 0
4, 87600, Note_on_c, 0, 60, 62
4, 87840, Note_on_c, 0, 60, 0
4, 87840, Note_on_c, 0, 53, 62
4, 88080, Note_on_c, 0, 53, 0
4, 88080, Note_on_c, 0, 57, 62
4, 88320, Note_on_c, 0, 57, 0
4, 88320, Note_on_c, 0, 60, 62
4, 88560, Note_on_c, 0, 60, 0
4, 88560, Note_on_c, 0, 57, 62
4, 88560, Note_on_c, 0, 62, 62
4, 88800, Note_on_c, 0, 62, 0
4, 88800, Note_on_c, 0, 57, 0
4, 89280, Note_on_c, 0, 57, 62
4, 89760, Note_on_c, 0, 57, 0
4, 89760, Note_on_c, 0, 62, 62
4, 90000, Note_on_c, 0, 62, 0
4, 90000, Note_on_c, 0, 55, 62
4, 90000, Note_on_c, 0, 59, 62
4, 90000, Note_on_c, 0, 65, 62
4, 90240, Note_on_c, 0, 65, 0
4, 90240, Note_on_c, 0, 59, 0
4, 90240, Note_on_c, 0, 55, 0
4, 90720, Note_on_c, 0, 60, 62
4, 90720, Note_on_c, 0, 64, 62
4, 90960, Note_on_c, 0, 64, 0
4, 90960, Note_on_c, 0, 60, 0
4, 91440, Note_on_c, 0, 44, 75
4, 91487, Note_on_c, 0, 44, 0
4, 91680, Note_on_c, 0, 45, 75
4, 91727, Note_on_c, 0, 45, 0
4, 91920, Note_on_c, 0, 46, 75
4, 91967, Note_on_c, 0, 46, 0
4, 92160, Note_on_c, 0, 48, 75
4, 92207, Note_on_c, 0, 48, 0
4, 92400, Note_on_c, 0, 49, 75
4, 92447, Note_on_c, 0, 49, 0
4, 92640, Note_on_c, 0, 50, 75
4, 92687, Note_on_c, 0, 50, 0
4, 92880, Note_on_c, 0, 52, 75
4, 92927, Note_on_c, 0, 52, 0
4, 93120, Note_on_c, 0, 53, 75
4, 93167, Note_on_c, 0, 53, 0
4, 93360, Note_on_c, 0, 55, 75
4, 93407, Note_on_c, 0, 55, 0
4, 93600, Note_on_c, 0, 56, 75
4, 93647, Note_on_c, 0, 56, 0
4, 93840, Note_on_c, 0, 57, 75
4, 93887, Note_on_c, 0, 57, 0
4, 94080, Note_on_c, 0, 58, 75
4, 94127, Note_on_c, 0, 58, 0
4, 94320, Note_on_c, 0, 60, 75
4, 94367, Note_on_c, 0, 60, 0
4, 94560, Note_on_c, 0, 61, 75
4, 94607, Note_on_c, 0, 61, 0
4, 94800, Note_on_c, 0, 62, 75
4, 94847, Note_on_c, 0, 62, 0
4, 95040, Note_on_c, 0, 63, 75
4, 95087, Note_on_c, 0, 63, 0
4, 95280, Note_on_c, 0, 64, 75
4, 95327, Note_on_c, 0, 64, 0
4, 95520, Note_on_c, 0, 65, 75
4, 95567, Note_on_c, 0, 65, 0
4, 95760, Note_on_c, 0, 67, 75
4, 95807, Note_on_c, 0, 67, 0
4, 96000, Note_on_c, 0, 69, 75
4, 96047, Note_on_c, 0, 69, 0
4, 96240, Note_on_c, 0, 70, 75
4, 96287, Note_on_c, 0, 70, 0
4, 96480, Note_on_c, 0, 72, 75
4, 96720, Note_on_c, 0, 72, 0
4, 97200, Note_on_c, 0, 44, 75
4, 97247, Note_on_c, 0, 44, 0
4, 97440, Note_on_c, 0, 45, 75
4, 97487, Note_on_c, 0, 45, 0
4, 97680, Note_on_c, 0, 46, 75
4, 97727, Note_on_c, 0, 46, 0
4, 97920, Note_on_c, 0, 48, 75
4, 97967, Note_on_c, 0, 48, 0
4, 98160, Note_on_c, 0, 49, 75
4, 98207, Note_on_c, 0, 49, 0
4, 98400, Note_on_c, 0, 50, 75
4, 98447, Note_on_c, 0, 50, 0
4, 98640, Note_on_c, 0, 52, 75
4, 98687, Note_on_c, 0, 52, 0
4, 98880, Note_on_c, 0, 53, 75
4, 98927, Note_on_c, 0, 53, 0
4, 99120, Note_on_c, 0, 55, 75
4, 99167, Note_on_c, 0, 55, 0
4, 99360, Note_on_c, 0, 56, 75
4, 99407, Note_on_c, 0, 56, 0
4, 99600, Note_on_c, 0, 57, 75
4, 99647, Note_on_c, 0, 57, 0
4, 99840, Note_on_c, 0, 58, 75
4, 99887, Note_on_c, 0, 58, 0
4, 100080, Note_on_c, 0, 60, 75
4, 100127, Note_on_c, 0, 60, 0
4, 100320, Note_on_c, 0, 61, 75
4, 100367, Note_on_c, 0, 61, 0
4, 100560, Note_on_c, 0, 62, 75
4, 100607, Note_on_c, 0, 62, 0
4, 100800, Note_on_c, 0, 63, 75
4, 100847, Note_on_c, 0, 63, 0
4, 101040, Note_on_c, 0, 64, 75
4, 101087, Note_on_c, 0, 64, 0
4, 101280, Note_on_c, 0, 65, 75
4, 101327, Note_on_c, 0, 65, 0
4, 101520, Note_on_c, 0, 67, 75
4, 101567, Note_on_c, 0, 67, 0
4, 102240, Note_on_c, 0, 41, 62
4, 102240, Note_on_c, 0, 45, 62
4, 102240, Note_on_c, 0, 48, 62
4, 102240, Note_on_c, 0, 53, 62
4, 102720, Note_on_c, 0, 53, 0
4, 102720, Note_on_c, 0, 41, 0
4, 102720, Note_on_c, 0, 45, 0
4, 102720, Note_on_c, 0, 48, 0
4, 102720, Note_on_c, 0, 41, 62
4, 102720, Note_on_c, 0, 45, 62
4, 102720, Note_on_c, 0, 48, 62
4, 102720, Note_on_c, 0, 53, 62
4, 102960, Note_on_c, 0, 53, 0
4, 102960, Note_on_c, 0, 41, 0
4, 102960, Note_on_c, 0, 45, 0
4, 102960, Note_on_c, 0, 48, 0
4, 102960, Note_on_c, 0, 41, 49
4, 102960, Note_on_c, 0, 45, 49
4, 102960, Note_on_c, 0, 48, 49
4, 102960, Note_on_c, 0, 53, 49
4, 103440, Note_on_c, 0, 53, 0
4, 103440, Note_on_c, 0, 41, 0
4, 103440, Note_on_c, 0, 45, 0
4, 103440, Note_on_c, 0, 48, 0
4, 103440, Note_on_c, 0, 41, 49
4, 103440, Note_on_c, 0, 45, 49
4, 103440, Note_on_c, 0, 48, 49
4, 103440, Note_on_c, 0, 53, 49
4, 103680, Note_on_c, 0, 53, 0
4, 103680, Note_on_c, 0, 41, 0
4, 103680, Note_on_c, 0, 45, 0
4, 103680, Note_on_c, 0, 48, 0
4, 103680, Note_on_c, 0, 41, 49
4, 103680, Note_on_c, 0, 45, 49
4, 103680, Note_on_c, 0, 48, 49
4, 103680, Note_on_c, 0, 53, 49
4, 104160, Note_on_c, 0, 53, 0
4, 104160, Note_on_c, 0, 41, 0
4, 104160, Note_on_c, 0, 45, 0
4, 104160, Note_on_c, 0, 48, 0
4, 104160, Note_on_c, 0, 41, 49
4, 104160, Note_on_c, 0, 45, 49
4, 104160, Note_on_c, 0, 48, 49
4, 104160, Note_on_c, 0, 53, 49
4, 104400, Note_on_c, 0, 53, 0
4, 104400, Note_on_c, 0, 41, 0
4, 104400, Note_on_c, 0, 45, 0
4, 104400, Note_on_c, 0, 48, 0
4, 104400, Note_on_c, 0, 41, 49
4, 104400, Note_on_c, 0, 45, 49
4, 104400, Note_on_c, 0, 48, 49
4, 104400, Note_on_c, 0, 53, 49
4, 104880, Note_on_c, 0, 53, 0
4, 104880, Note_on_c, 0, 41, 0
4, 104880, Note_on_c, 0, 45, 0
4, 104880, Note_on_c, 0, 48, 0
4, 104880, Note_on_c, 0, 41, 49
4, 104880, Note_on_c, 0, 45, 49
4, 104880, Note_on_c, 0, 48, 49
4, 104880, Note_on_c, 0, 53, 49
4, 105120, Note_on_c, 0, 53, 0
4, 105120, Note_on_c, 0, 41, 0
4, 105120, Note_on_c, 0, 45, 0
4, 105120, Note_on_c, 0, 48, 0
4, 105120, Note_on_c, 0, 41, 49
4, 105120, Note_on_c, 0, 45, 49
4, 105120, Note_on_c, 0, 48, 49
4, 105120, Note_on_c, 0, 53, 49
4, 105600, Note_on_c, 0, 53, 0
4, 105600, Note_on_c, 0, 41, 0
4, 105600, Note_on_c, 0, 45, 0
4, 105600, Note_on_c, 0, 48, 0
4, 105600, Note_on_c, 0, 41, 49
4, 105600, Note_on_c, 0, 45, 49
4, 105600, Note_on_c, 0, 48, 49
4, 105600, Note_on_c, 0, 53, 49
4, 105840, Note_on_c, 0, 53, 0
4, 105840, Note_on_c, 0, 41, 0
4, 105840, Note_on_c, 0, 45, 0
4, 105840, Note_on_c, 0, 48, 0
4, 105840, Note_on_c, 0, 41, 49
4, 105840, Note_on_c, 0, 46, 49
4, 105840, Note_on_c, 0, 50, 49
4, 105840, Note_on_c, 0, 53, 49
4, 106320, Note_on_c, 0, 53, 0
4, 106320, Note_on_c, 0, 41, 0
4, 106320, Note_on_c, 0, 46, 0
4, 106320, Note_on_c, 0, 50, 0
4, 106320, Note_on_c, 0, 41, 49
4, 106320, Note_on_c, 0, 46, 49
4, 106320, Note_on_c, 0, 50, 49
4, 106320, Note_on_c, 0, 53, 49
4, 106560, Note_on_c, 0, 53, 0
4, 106560, Note_on_c, 0, 41, 0
4, 106560, Note_on_c, 0, 46, 0
4, 106560, Note_on_c, 0, 50, 0
4, 106560, Note_on_c, 0, 41, 49
4, 106560, Note_on_c, 0, 46, 49
4, 106560, Note_on_c, 0, 50, 49
4, 106560, Note_on_c, 0, 53, 49
4, 107040, Note_on_c, 0, 53, 0
4, 107040, Note_on_c, 0, 41, 0
4, 107040, Note_on_c, 0, 46, 0
4, 107040, Note_on_c, 0, 50, 0
4, 107040, Note_on_c, 0, 41, 49
4, 107040, Note_on_c, 0, 46, 49
4, 107040, Note_on_c, 0, 50, 49
4, 107040, Note_on_c, 0, 53, 49
4, 107280, Note_on_c, 0, 53, 0
4, 107280, Note_on_c, 0, 41, 0
4, 107280, Note_on_c, 0, 46, 0
4, 107280, Note_on_c, 0, 50, 0
4, 107280, Note_on_c, 0, 41, 49
4, 107280, Note_on_c, 0, 46, 49
4, 107280, Note_on_c, 0, 50, 49
4, 107280, Note_on_c, 0, 53, 49
4, 107760, Note_on_c, 0, 53, 0
4, 107760, Note_on_c, 0, 41, 0
4, 107760, Note_on_c, 0, 46, 0
4, 107760, Note_on_c, 0, 50, 0
4, 107760, Note_on_c, 0, 41, 49
4, 107760, Note_on_c, 0, 46, 49
4, 107760, Note_on_c, 0, 50, 49
4, 107760, Note_on_c, 0, 53, 49
4, 108000, Note_on_c, 0, 53, 0
4, 108000, Note_on_c, 0, 41, 0
4, 108000, Note_on_c, 0, 46, 0
4, 108000, Note_on_c, 0, 50, 0
4, 108000, Note_on_c, 0, 41, 49
4, 108000, Note_on_c, 0, 45, 49
4, 108000, Note_on_c, 0, 48, 49
4, 108000, Note_on_c, 0, 53, 49
4, 108480, Note_on_c, 0, 53, 0
4, 108480, Note_on_c, 0, 41, 0
4, 108480, Note_on_c, 0, 45, 0
4, 108480, Note_on_c, 0, 48, 0
4, 108480, Note_on_c, 0, 41, 49
4, 108480, Note_on_c, 0, 45, 49
4, 108480, Note_on_c, 0, 48, 49
4, 108480, Note_on_c, 0, 53, 49
4, 108720, Note_on_c, 0, 53, 0
4, 108720, Note_on_c, 0, 41, 0
4, 108720, Note_on_c, 0, 45, 0
4, 108720, Note_on_c, 0, 48, 0
4, 108720, Note_on_c, 0, 41, 49
4, 108720, Note_on_c, 0, 45, 49
4, 108720, Note_on_c, 0, 48, 49
4, 108720, Note_on_c, 0, 53, 49
4, 109200, Note_on_c, 0, 53, 0
4, 109200, Note_on_c, 0, 41, 0
4, 109200, Note_on_c, 0, 45, 0
4, 109200, Note_on_c, 0, 48, 0
4, 109200, Note_on_c, 0, 41, 49
4, 109200, Note_on_c, 0, 45, 49
4, 109200, Note_on_c, 0, 48, 49
4, 109200, Note_on_c, 0, 53, 49
4, 109440, Note_on_c, 0, 53, 0
4, 109440, Note_on_c, 0, 41, 0
4, 109440, Note_on_c, 0, 45, 0
4, 109440, Note_on_c, 0, 48, 0
4, 109440, Note_on_c, 0, 41, 49
4, 109440, Note_on_c, 0, 45, 49
4, 109440, Note_on_c, 0, 48, 49
4, 109440, Note_on_c, 0, 53, 49
4, 109920, Note_on_c, 0, 53, 0
4, 109920, Note_on_c, 0, 41, 0
4, 109920, Note_on_c, 0, 45, 0
4, 109920, Note_on_c, 0, 48, 0
4, 109920, Note_on_c, 0, 41, 49
4, 109920, Note_on_c, 0, 45, 49
4, 109920, Note_on_c, 0, 48, 49
4, 109920, Note_on_c, 0, 53, 49
4, 110160, Note_on_c, 0, 53, 0
4, 110160, Note_on_c, 0, 41, 0
4, 110160, Note_on_c, 0, 45, 0
4, 110160, Note_on_c, 0, 48, 0
4, 110160, Note_on_c, 0, 41, 49
4, 110160, Note_on_c, 0, 45, 49
4, 110160, Note_on_c, 0, 48, 49
4, 110160, Note_on_c, 0, 53, 49
4, 110640, Note_on_c, 0, 53, 0
4, 110640, Note_on_c, 0, 41, 0
4, 110640, Note_on_c, 0, 45, 0
4, 110640, Note_on_c, 0, 48, 0
4, 110640, Note_on_c, 0, 41, 49
4, 110640, Note_on_c, 0, 45, 49
4, 110640, Note_on_c, 0, 48, 49
4, 110640, Note_on_c, 0, 53, 49
4, 110880, Note_on_c, 0, 53, 0
4, 110880, Note_on_c, 0, 41, 0
4, 110880, Note_on_c, 0, 45, 0
4, 110880, Note_on_c, 0, 48, 0
4, 110880, Note_on_c, 0, 41, 49
4, 110880, Note_on_c, 0, 45, 49
4, 110880, Note_on_c, 0, 48, 49
4, 110880, Note_on_c, 0, 53, 49
4, 111360, Note_on_c, 0, 53, 0
4, 111360, Note_on_c, 0, 41, 0
4, 111360, Note_on_c, 0, 45, 0
4, 111360, Note_on_c, 0, 48, 0
4, 111360, Note_on_c, 0, 53, 49
4, 111360, Note_on_c, 0, 57, 49
4, 111360, Note_on_c, 0, 60, 49
4, 111600, Note_on_c, 0, 60, 0
4, 111600, Note_on_c, 0, 57, 0
4, 111600, Note_on_c, 0, 53, 0
4, 111600, Note_on_c, 0, 50, 62
4, 111600, Note_on_c, 0, 53, 62
4, 111600, Note_on_c, 0, 57, 62
4, 111600, Note_on_c, 0, 62, 62
4, 112080, Note_on_c, 0, 62, 0
4, 112080, Note_on_c, 0, 50, 0
4, 112080, Note_on_c, 0, 53, 0
4, 112080, Note_on_c, 0, 57, 0
4, 112080, Note_on_c, 0, 50, 62
4, 112080, Note_on_c, 0, 53, 62
4, 112080, Note_on_c, 0, 57, 62
4, 112080, Note_on_c, 0, 62, 62
4, 112320, Note_on_c, 0, 62, 0
4, 112320, Note_on_c, 0, 50, 0
4, 112320, Note_on_c, 0, 53, 0
4, 112320, Note_on_c, 0, 57, 0
4, 112320, Note_on_c, 0, 50, 62
4, 112320, Note_on_c, 0, 53, 62
4, 112320, Note_on_c, 0, 57, 62
4, 112320, Note_on_c, 0, 62, 62
4, 112800, Note_on_c, 0, 62, 0
4, 112800, Note_on_c, 0, 50, 0
4, 112800, Note_on_c, 0, 53, 0
4, 112800, Note_on_c, 0, 57, 0
4, 112800, Note_on_c, 0, 50, 62
4, 112800, Note_on_c, 0, 53, 62
4, 112800, Note_on_c, 0, 57, 62
4, 112800, Note_on_c, 0, 62, 62
4, 113040, Note_on_c, 0, 62, 0
4, 113040, Note_on_c, 0, 50, 0
4, 113040, Note_on_c, 0, 53, 0
4, 113040, Note_on_c, 0, 57, 0
4, 113040, Note_on_c, 0, 55, 75
4, 113040, Note_on_c, 0, 59, 75
4, 113040, Note_on_c, 0, 62, 75
4, 113520, Note_on_c, 0, 62, 0
4, 113520, Note_on_c, 0, 59, 0
4, 113520, Note_on_c, 0, 55, 0
4, 113520, Note_on_c, 0, 55, 75
4, 113520, Note_on_c, 0, 59, 75
4, 113520, Note_on_c, 0, 62, 75
4, 113760, Note_on_c, 0, 62, 0
4, 113760, Note_on_c, 0, 59, 0
4, 113760, Note_on_c, 0, 55, 0
4, 113760, Note_on_c, 0, 48, 88
4, 113760, Note_on_c, 0, 55, 88
4, 113760, Note_on_c, 0, 60, 88
4, 114000, Note_on_c, 0, 60, 0
4, 114000, Note_on_c, 0, 55, 0
4, 114000, Note_on_c, 0, 48, 0
4, 114480, Note_on_c, 0, 41, 88
4, 114480, Note_on_c, 0, 53, 88
4, 114960, Note_on_c, 0, 53, 0
4, 114960, Note_on_c, 0, 41, 0
4, 114960, Note_on_c, 0, 40, 88
4, 114960, Note_on_c, 0, 52, 88
4, 115200, Note_on_c, 0, 52, 0
4, 115200, Note_on_c, 0, 40, 0
4, 115200, Note_on_c, 0, 38, 88
4, 115200, Note_on_c, 0, 50, 88
4, 115680, Note_on_c, 0, 50, 0
4, 115680, Note_on_c, 0, 38, 0
4, 115680, Note_on_c, 0, 36, 88
4, 115680, Note_on_c, 0, 48, 88
4, 115920, Note_on_c, 0, 48, 0
4, 115920, Note_on_c, 0, 36, 0
4, 115920, Note_on_c, 0, 41, 88
4, 115920, Note_on_c, 0, 53, 88
4, 116400, Note_on_c, 0, 53, 0
4, 116400, Note_on_c, 0, 41, 0
4, 116400, Note_on_c, 0, 40, 88
4, 116400, Note_on_c, 0, 52, 88
4, 116640, Note_on_c, 0, 52, 0
4, 116640, Note_on_c, 0, 40, 0
4, 116640, Note_on_c, 0, 38, 88
4, 116640, Note_on_c, 0, 50, 88
4, 117120, Note_on_c, 0, 50, 0
4, 117120, Note_on_c, 0, 38, 0
4, 117120, Note_on_c, 0, 36, 88
4, 117120, Note_on_c, 0, 48, 88
4, 117360, Note_on_c, 0, 48, 0
4, 117360, Note_on_c, 0, 36, 0
4, 117360, Note_on_c, 0, 41, 88
4, 117360, Note_on_c, 0, 53, 88
4, 117840, Note_on_c, 0, 53, 0
4, 117840, Note_on_c, 0, 41, 0
4, 117840, Note_on_c, 0, 40, 88
4, 117840, Note_on_c, 0, 52, 88
4, 118080, Note_on_c, 0, 52, 0
4, 118080, Note_on_c, 0, 40, 0
4, 118080, Note_on_c, 0, 38, 88
4, 118080, Note_on_c, 0, 50, 88
4, 118560, Note_on_c, 0, 50, 0
4, 118560, Note_on_c, 0, 38, 0
4, 118560, Note_on_c, 0, 36, 88
4, 118560, Note_on_c, 0, 48, 88
4, 118800, Note_on_c, 0, 48, 0
4, 118800, Note_on_c, 0, 36, 0
4, 118800, Note_on_c, 0, 41, 88
4, 118800, Note_on_c, 0, 53, 88
4, 119280, Note_on_c, 0, 53, 0
4, 119280, Note_on_c, 0, 41, 0
4, 119280, Note_on_c, 0, 40, 88
4, 119280, Note_on_c, 0, 52, 88
4, 119520, Note_on_c, 0, 52, 0
4, 119520, Note_on_c, 0, 40, 0
4, 119520, Note_on_c, 0, 38, 88
4, 119520, Note_on_c, 0, 50, 88
4, 120000, Note_on_c, 0, 50, 0
4, 120000, Note_on_c, 0, 38, 0
4, 120000, Note_on_c, 0, 36, 88
4, 120000, Note_on_c, 0, 48, 88
4, 120240, Note_on_c, 0, 48, 0
4, 120240, Note_on_c, 0, 36, 0
4, 120240, Note_on_c, 0, 41, 88
4, 120240, Note_on_c, 0, 53, 88
4, 120720, Note_on_c, 0, 53, 0
4, 120720, Note_on_c, 0, 41, 0
4, 120720, Note_on_c, 0, 40, 88
4, 120720, Note_on_c, 0, 52, 88
4, 120960, Note_on_c, 0, 52, 0
4, 120960, Note_on_c, 0, 40, 0
4, 120960, Note_on_c, 0, 38, 88
4, 120960, Note_on_c, 0, 50, 88
4, 121440, Note_on_c, 0, 50, 0
4, 121440, Note_on_c, 0, 38, 0
4, 121440, Note_on_c, 0, 36, 88
4, 121440, Note_on_c, 0, 48, 88
4, 121680, Note_on_c, 0, 48, 0
4, 121680, Note_on_c, 0, 36, 0
4, 121680, Note_on_c, 0, 41, 88
4, 121680, Note_on_c, 0, 53, 88
4, 122160, Note_on_c, 0, 53, 0
4, 122160, Note_on_c, 0, 41, 0
4, 122160, Note_on_c, 0, 40, 88
4, 122160, Note_on_c, 0, 52, 88
4, 122400, Note_on_c, 0, 52, 0
4, 122400, Note_on_c, 0, 40, 0
4, 122400, Note_on_c, 0, 38, 88
4, 122400, Note_on_c, 0, 50, 88
4, 122880, Note_on_c, 0, 50, 0
4, 122880, Note_on_c, 0, 38, 0
4, 122880, Note_on_c, 0, 36, 88
4, 122880, Note_on_c, 0, 48, 88
4, 123120, Note_on_c, 0, 48, 0
4, 123120, Note_on_c, 0, 36, 0
4, 123120, Note_on_c, 0, 41, 88
4, 123120, Note_on_c, 0, 53, 88
4, 123600, Note_on_c, 0, 53, 0
4, 123600, Note_on_c, 0, 41, 0
4, 123600, Note_on_c, 0, 40, 88
4, 123600, Note_on_c, 0, 52, 88
4, 123840, Note_on_c, 0, 52, 0
4, 123840, Note_on_c, 0, 40, 0
4, 123840, Note_on_c, 0, 38, 88
4, 123840, Note_on_c, 0, 50, 88
4, 124320, Note_on_c, 0, 50, 0
4, 124320, Note_on_c, 0, 38, 0
4, 124320, Note_on_c, 0, 36, 88
4, 124320, Note_on_c, 0, 48, 88
4, 124560, Note_on_c, 0, 48, 0
4, 124560, Note_on_c, 0, 36, 0
4, 124560, Note_on_c, 0, 41, 88
4, 124560, Note_on_c, 0, 53, 88
4, 125040, Note_on_c, 0, 53, 0
4, 125040, Note_on_c, 0, 41, 0
4, 125040, Note_on_c, 0, 40, 88
4, 125040, Note_on_c, 0, 52, 88
4, 125280, Note_on_c, 0, 52, 0
4, 125280, Note_on_c, 0, 40, 0
4, 125280, Note_on_c, 0, 38, 88
4, 125280, Note_on_c, 0, 50, 88
4, 125760, Note_on_c, 0, 50, 0
4, 125760, Note_on_c, 0, 38, 0
4, 125760, Note_on_c, 0, 36, 88
4, 125760, Note_on_c, 0, 48, 88
4, 126000, Note_on_c, 0, 48, 0
4, 126000, Note_on_c, 0, 36, 0
4, 126000, Note_on_c, 0, 41, 62
4, 126000, Note_on_c, 0, 53, 62
4, 126240, Note_on_c, 0, 53, 0
4, 126240, Note_on_c, 0, 41, 0
4, 126480, Note_on_c, 0, 65, 62
4, 126720, Note_on_c, 0, 65, 0
4, 126720, Note_on_c, 0, 64, 62
4, 126720, Note_on_c, 0, 67, 62
4, 127200, Note_on_c, 0, 67, 0
4, 127200, Note_on_c, 0, 64, 0
4, 127200, Note_on_c, 0, 64, 62
4, 127200, Note_on_c, 0, 67, 62
4, 127440, Note_on_c, 0, 67, 0
4, 127440, Note_on_c, 0, 64, 0
4, 127440, Note_on_c, 0, 62, 62
4, 127440, Note_on_c, 0, 65, 62
4, 127920, Note_on_c, 0, 65, 0
4, 127920, Note_on_c, 0, 62, 0
4, 127920, Note_on_c, 0, 62, 62
4, 127920, Note_on_c, 0, 65, 62
4, 128160, Note_on_c, 0, 65, 0
4, 128160, Note_on_c, 0, 62, 0
4, 128160, Note_on_c, 0, 60, 62
4, 128640, Note_on_c, 0, 60, 0
4, 128640, Note_on_c, 0, 60, 62
4, 128880, Note_on_c, 0, 60, 0
4, 128880, Note_on_c, 0, 58, 62
4, 128880, Note_on_c, 0, 62, 62
4, 129360, Note_on_c, 0, 62, 0
4, 129360, Note_on_c, 0, 58, 0
4, 129360, Note_on_c, 0, 58, 62
4, 129360, Note_on_c, 0, 62, 62
4, 129360, Note_on_c, 0, 65, 62
4, 129600, Note_on_c, 0, 65, 0
4, 129600, Note_on_c, 0, 62, 0
4, 129600, Note_on_c, 0, 58, 0
4, 129600, Note_on_c, 0, 57, 62
4, 129600, Note_on_c, 0, 62, 62
4, 129600, Note_on_c, 0, 65, 62
4, 130080, Note_on_c, 0, 65, 0
4, 130080, Note_on_c, 0, 62, 0
4, 130080, Note_on_c, 0, 57, 0
4, 130080, Note_on_c, 0, 57, 62
4, 130080, Note_on_c, 0, 62, 62
4, 130080, Note_on_c, 0, 65, 62
4, 130320, Note_on_c, 0, 65, 0
4, 130320, Note_on_c, 0, 62, 0
4, 130320, Note_on_c, 0, 57, 0
4, 130320, Note_on_c, 0, 56, 62
4, 130320, Note_on_c, 0, 59, 62
4, 130320, Note_on_c, 0, 62, 62
4, 130320, Note_on_c, 0, 65, 62
4, 130800, Note_on_c, 0, 65, 0
4, 130800, Note_on_c, 0, 56, 0
4, 130800, Note_on_c, 0, 59, 0
4, 130800, Note_on_c, 0, 62, 0
4, 130800, Note_on_c, 0, 56, 62
4, 130800, Note_on_c, 0, 59, 62
4, 130800, Note_on_c, 0, 62, 62
4, 130800, Note_on_c, 0, 65, 62
4, 131040, Note_on_c, 0, 65, 0
4, 131040, Note_on_c, 0, 56, 0
4, 131040, Note_on_c, 0, 59, 0
4, 131040, Note_on_c, 0, 62, 0
4, 131040, Note_on_c, 0, 55, 62
4, 131040, Note_on_c, 0, 58, 62
4, 131040, Note_on_c, 0, 60, 62
4, 131040, Note_on_c, 0, 64, 62
4, 131520, Note_on_c, 0, 64, 0
4, 131520, Note_on_c, 0, 55, 0
4, 131520, Note_on_c, 0, 58, 0
4, 131520, Note_on_c, 0, 60, 0
4, 131520, Note_on_c, 0, 55, 62
4, 131520, Note_on_c, 0, 58, 62
4, 131520, Note_on_c, 0, 60, 62
4, 131520, Note_on_c, 0, 64, 62
4, 131760, Note_on_c, 0, 64, 0
4, 131760, Note_on_c, 0, 55, 0
4, 131760, Note_on_c, 0, 58, 0
4, 131760, Note_on_c, 0, 60, 0
4, 131760, Note_on_c, 0, 53, 62
4, 131760, Note_on_c, 0, 57, 62
4, 131760, Note_on_c, 0, 60, 62
4, 132240, Note_on_c, 0, 60, 0
4, 132240, Note_on_c, 0, 57, 0
4, 132240, Note_on_c, 0, 53, 0
4, 132240, Note_on_c, 0, 53, 62
4, 132240, Note_on_c, 0, 57, 62
4, 132240, Note_on_c, 0, 60, 62
4, 132480, Note_on_c, 0, 60, 0
4, 132480, Note_on_c, 0, 57, 0
4, 132480, Note_on_c, 0, 53, 0
4, 132480, Note_on_c, 0, 52, 62
4, 132480, Note_on_c, 0, 55, 62
4, 132480, Note_on_c, 0, 60, 62
4, 132960, Note_on_c, 0, 60, 0
4, 132960, Note_on_c, 0, 55, 0
4, 132960, Note_on_c, 0, 52, 0
4, 132960, Note_on_c, 0, 52, 62
4, 132960, Note_on_c, 0, 55, 62
4, 132960, Note_on_c, 0, 60, 62
4, 133200, Note_on_c, 0, 60, 0
4, 133200, Note_on_c, 0, 55, 0
4, 133200, Note_on_c, 0, 52, 0
4, 133200, Note_on_c, 0, 50, 62
4, 133200, Note_on_c, 0, 53, 62
4, 133200, Note_on_c, 0, 57, 62
4, 133680, Note_on_c, 0, 57, 0
4, 133680, Note_on_c, 0, 53, 0
4, 133680, Note_on_c, 0, 50, 0
4, 133680, Note_on_c, 0, 50, 62
4, 133680, Note_on_c, 0, 53, 62
4, 133680, Note_on_c, 0, 57, 62
4, 133920, Note_on_c, 0, 57, 0
4, 133920, Note_on_c, 0, 53, 0
4, 133920, Note_on_c, 0, 50, 0
4, 133920, Note_on_c, 0, 48, 62
4, 133920, Note_on_c, 0, 53, 62
4, 133920, Note_on_c, 0, 57, 62
4, 134400, Note_on_c, 0, 57, 0
4, 134400, Note_on_c, 0, 53, 0
4, 134400, Note_on_c, 0, 48, 0
4, 134400, Note_on_c, 0, 48, 62
4, 134400, Note_on_c, 0, 53, 62
4, 134400, Note_on_c, 0, 57, 62
4, 134640, Note_on_c, 0, 57, 0
4, 134640, Note_on_c, 0, 53, 0
4, 134640, Note_on_c, 0, 48, 0
4, 134640, Note_on_c, 0, 46, 75
4, 134640, Note_on_c, 0, 50, 75
4, 134640, Note_on_c, 0, 55, 75
4, 135120, Note_on_c, 0, 55, 0
4, 135120, Note_on_c, 0, 50, 0
4, 135120, Note_on_c, 0, 46, 0
4, 135120, Note_on_c, 0, 46, 75
4, 135120, Note_on_c, 0, 50, 75
4, 135120, Note_on_c, 0, 56, 75
4, 135360, Note_on_c, 0, 56, 0
4, 135360, Note_on_c, 0, 50, 0
4, 135360, Note_on_c, 0, 46, 0
4, 135360, Note_on_c, 0, 45, 75
4, 135360, Note_on_c, 0, 50, 75
4, 135360, Note_on_c, 0, 57, 75
4, 135840, Note_on_c, 0, 57, 0
4, 135840, Note_on_c, 0, 50, 0
4, 135840, Note_on_c, 0, 45, 0
4, 135840, Note_on_c, 0, 45, 75
4, 135840, Note_on_c, 0, 50, 75
4, 135840, Note_on_c, 0, 53, 75
4, 136080, Note_on_c, 0, 53, 0
4, 136080, Note_on_c, 0, 50, 0
4, 136080, Note_on_c, 0, 45, 0
4, 136080, Note_on_c, 0, 43, 75
4, 136080, Note_on_c, 0, 50, 75
4, 136080, Note_on_c, 0, 53, 75
4, 136560, Note_on_c, 0, 53, 0
4, 136560, Note_on_c, 0, 50, 0
4, 136560, Note_on_c, 0, 43, 0
4, 136560, Note_on_c, 0, 43, 75
4, 136560, Note_on_c, 0, 50, 75
4, 136560, Note_on_c, 0, 53, 75
4, 136800, Note_on_c, 0, 53, 0
4, 136800, Note_on_c, 0, 50, 0
4, 136800, Note_on_c, 0, 43, 0
4, 136800, Note_on_c, 0, 48, 88
4, 136800, Note_on_c, 0, 52, 88
4, 137040, Note_on_c, 0, 52, 0
4, 137040, Note_on_c, 0, 48, 0
4, 137520, Note_on_c, 0, 41, 88
4, 137520, Note_on_c, 0, 53, 88
4, 138000, Note_on_c, 0, 53, 0
4, 138000, Note_on_c, 0, 41, 0
4, 138000, Note_on_c, 0, 40, 88
4, 138000, Note_on_c, 0, 52, 88
4, 138240, Note_on_c, 0, 52, 0
4, 138240, Note_on_c, 0, 40, 0
4, 138240, Note_on_c, 0, 38, 88
4, 138240, Note_on_c, 0, 50, 88
4, 138720, Note_on_c, 0, 50, 0
4, 138720, Note_on_c, 0, 38, 0
4, 138720, Note_on_c, 0, 36, 88
4, 138720, Note_on_c, 0, 48, 88
4, 138960, Note_on_c, 0, 48, 0
4, 138960, Note_on_c, 0, 36, 0
4, 138960, Note_on_c, 0, 41, 88
4, 138960, Note_on_c, 0, 53, 88
4, 139440, Note_on_c, 0, 53, 0
4, 139440, Note_on_c, 0, 41, 0
4, 139440, Note_on_c, 0, 40, 88
4, 139440, Note_on_c, 0, 52, 88
4, 139680, Note_on_c, 0, 52, 0
4, 139680, Note_on_c, 0, 40, 0
4, 139680, Note_on_c, 0, 38, 88
4, 139680, Note_on_c, 0, 50, 88
4, 140160, Note_on_c, 0, 50, 0
4, 140160, Note_on_c, 0, 38, 0
4, 140160, Note_on_c, 0, 36, 88
4, 140160, Note_on_c, 0, 48, 88
4, 140400, Note_on_c, 0, 48, 0
4, 140400, Note_on_c, 0, 36, 0
4, 140400, Note_on_c, 0, 41, 88
4, 140400, Note_on_c, 0, 53, 88
4, 140880, Note_on_c, 0, 53, 0
4, 140880, Note_on_c, 0, 41, 0
4, 140880, Note_on_c, 0, 40, 88
4, 140880, Note_on_c, 0, 52, 88
4, 141120, Note_on_c, 0, 52, 0
4, 141120, Note_on_c, 0, 40, 0
4, 141120, Note_on_c, 0, 38, 88
4, 141120, Note_on_c, 0, 50, 88
4, 141600, Note_on_c, 0, 50, 0
4, 141600, Note_on_c, 0, 38, 0
4, 141600, Note_on_c, 0, 36, 88
4, 141600, Note_on_c, 0, 48, 88
4, 141840, Note_on_c, 0, 48, 0
4, 141840, Note_on_c, 0, 36, 0
4, 141840, Note_on_c, 0, 41, 88
4, 141840, Note_on_c, 0, 53, 88
4, 142320, Note_on_c, 0, 53, 0
4, 142320, Note_on_c, 0, 41, 0
4, 142320, Note_on_c, 0, 40, 88
4, 142320, Note_on_c, 0, 52, 88
4, 142560, Note_on_c, 0, 52, 0
4, 142560, Note_on_c, 0, 40, 0
4, 142560, Note_on_c, 0, 38, 88
4, 142560, Note_on_c, 0, 50, 88
4, 143040, Note_on_c, 0, 50, 0
4, 143040, Note_on_c, 0, 38, 0
4, 143040, Note_on_c, 0, 36, 88
4, 143040, Note_on_c, 0, 48, 88
4, 143280, Note_on_c, 0, 48, 0
4, 143280, Note_on_c, 0, 36, 0
4, 143280, Note_on_c, 0, 41, 88
4, 143280, Note_on_c, 0, 53, 88
4, 143760, Note_on_c, 0, 53, 0
4, 143760, Note_on_c, 0, 41, 0
4, 143760, Note_on_c, 0, 40, 88
4, 143760, Note_on_c, 0, 52, 88
4, 144000, Note_on_c, 0, 52, 0
4, 144000, Note_on_c, 0, 40, 0
4, 144000, Note_on_c, 0, 38, 88
4, 144000, Note_on_c, 0, 50, 88
4, 144480, Note_on_c, 0, 50, 0
4, 144480, Note_on_c, 0, 38, 0
4, 144480, Note_on_c, 0, 36, 88
4, 144480, Note_on_c, 0, 48, 88
4, 144720, Note_on_c, 0, 48, 0
4, 144720, Note_on_c, 0, 36, 0
4, 144720, Note_on_c, 0, 41, 88
4, 144720, Note_on_c, 0, 53, 88
4, 145200, Note_on_c, 0, 53, 0
4, 145200, Note_on_c, 0, 41, 0
4, 145200, Note_on_c, 0, 40, 88
4, 145200, Note_on_c, 0, 52, 88
4, 145440, Note_on_c, 0, 52, 0
4, 145440, Note_on_c, 0, 40, 0
4, 145440, Note_on_c, 0, 38, 88
4, 145440, Note_on_c, 0, 50, 88
4, 145920, Note_on_c, 0, 50, 0
4, 145920, Note_on_c, 0, 38, 0
4, 145920, Note_on_c, 0, 36, 88
4, 145920, Note_on_c, 0, 48, 88
4, 146160, Note_on_c, 0, 48, 0
4, 146160, Note_on_c, 0, 36, 0
4, 146160, Note_on_c, 0, 41, 88
4, 146160, Note_on_c, 0, 53, 88
4, 146640, Note_on_c, 0, 53, 0
4, 146640, Note_on_c, 0, 41, 0
4, 146640, Note_on_c, 0, 40, 88
4, 146640, Note_on_c, 0, 52, 88
4, 146880, Note_on_c, 0, 52, 0
4, 146880, Note_on_c, 0, 40, 0
4, 146880, Note_on_c, 0, 38, 88
4, 146880, Note_on_c, 0, 50, 88
4, 147360, Note_on_c, 0, 50, 0
4, 147360, Note_on_c, 0, 38, 0
4, 147360, Note_on_c, 0, 36, 88
4, 147360, Note_on_c, 0, 48, 88
4, 147600, Note_on_c, 0, 48, 0
4, 147600, Note_on_c, 0, 36, 0
4, 147600, Note_on_c, 0, 41, 88
4, 147600, Note_on_c, 0, 53, 88
4, 148080, Note_on_c, 0, 53, 0
4, 148080, Note_on_c, 0, 41, 0
4, 148080, Note_on_c, 0, 40, 88
4, 148080, Note_on_c, 0, 52, 88
4, 148320, Note_on_c, 0, 52, 0
4, 148320, Note_on_c, 0, 40, 0
4, 148320, Note_on_c, 0, 38, 88
4, 148320, Note_on_c, 0, 50, 88
4, 148800, Note_on_c, 0, 50, 0
4, 148800, Note_on_c, 0, 38, 0
4, 148800, Note_on_c, 0, 37, 114
4, 148800, Note_on_c, 0, 49, 114
4, 149040, Note_on_c, 0, 49, 0
4, 149040, Note_on_c, 0, 37, 0
4, 149040, End_track
5, 0, Start_track
5, 0, Title_t, "Grand Piano"
5, 0, Program_c, 0, 0
5, 0, Control_c, 0, 7, 115
5, 0, Control_c, 0, 10, 47
5, 19440, Note_on_c, 0, 50, 54
5, 19920, Note_on_c, 0, 50, 0
5, 19920, Note_on_c, 0, 50, 54
5, 20400, Note_on_c, 0, 50, 0
5, 20400, Note_on_c, 0, 50, 54
5, 20880, Note_on_c, 0, 50, 0
5, 20880, Note_on_c, 0, 50, 54
5, 21360, Note_on_c, 0, 50, 0
5, 21360, Note_on_c, 0, 50, 54
5, 21840, Note_on_c, 0, 50, 0
5, 21840, Note_on_c, 0, 50, 54
5, 22320, Note_on_c, 0, 50, 0
5, 22320, Note_on_c, 0, 50, 54
5, 22800, Note_on_c, 0, 50, 0
5, 23280, Note_on_c, 0, 50, 67
5, 23760, Note_on_c, 0, 50, 0
5, 23760, Note_on_c, 0, 50, 67
5, 24240, Note_on_c, 0, 50, 0
5, 24240, Note_on_c, 0, 50, 67
5, 24720, Note_on_c, 0, 50, 0
5, 24720, Note_on_c, 0, 50, 67
5, 25200, Note_on_c, 0, 50, 0
5, 25200, Note_on_c, 0, 50, 67
5, 25680, Note_on_c, 0, 50, 0
5, 25680, Note_on_c, 0, 50, 67
5, 26160, Note_on_c, 0, 50, 0
5, 26160, Note_on_c, 0, 50, 80
5, 26640, Note_on_c, 0, 50, 0
5, 46560, Note_on_c, 0, 55, 80
5, 47520, Note_on_c, 0, 55, 0
5, 52320, Note_on_c, 0, 55, 93
5, 52920, Note_on_c, 0, 55, 0
5, 52920, Note_on_c, 0, 57, 93
5, 53040, Note_on_c, 0, 57, 0
5, 53040, Note_on_c, 0, 55, 93
5, 53160, Note_on_c, 0, 55, 0
5, 53160, Note_on_c, 0, 53, 93
5, 53280, Note_on_c, 0, 53, 0
5, 53280, Note_on_c, 0, 52, 93
5, 53400, Note_on_c, 0, 52, 0
5, 53400, Note_on_c, 0, 53, 93
5, 53520, Note_on_c, 0, 53, 0
5, 53520, Note_on_c, 0, 52, 93
5, 53640, Note_on_c, 0, 52, 0
5, 53640, Note_on_c, 0, 50, 93
5, 53760, Note_on_c, 0, 50, 0
5, 88560, Note_on_c, 0, 50, 67
5, 89040, Note_on_c, 0, 50, 0
5, 89040, Note_on_c, 0, 53, 67
5, 89280, Note_on_c, 0, 53, 0
5, 92160, Note_on_c, 0, 41, 80
5, 92400, Note_on_c, 0, 41, 0
5, 93600, Note_on_c, 0, 53, 80
5, 93840, Note_on_c, 0, 53, 0
5, 95040, Note_on_c, 0, 53, 80
5, 95040, Note_on_c, 0, 60, 80
5, 95280, Note_on_c, 0, 60, 0
5, 95280, Note_on_c, 0, 53, 0
5, 96480, Note_on_c, 0, 65, 80
5, 96720, Note_on_c, 0, 65, 0
5, 97920, Note_on_c, 0, 41, 80
5, 98160, Note_on_c, 0, 41, 0
5, 99360, Note_on_c, 0, 53, 80
5, 99600, Note_on_c, 0, 53, 0
5, 100800, Note_on_c, 0, 53, 80
5, 100800, Note_on_c, 0, 60, 80
5, 101040, Note_on_c, 0, 60, 0
5, 101040, Note_on_c, 0, 53, 0
5, 101040, End_track
0, 0, End_of_file
