0, 0, Header, 1, 5, 480
1, 0, Start_track
1, 0, Title_t, "tchaikovsky nutcracker act1 7 scene"
1, 0, Copyright_t, "Adaptation for Disklavier pianos, by: Robert C. Kuhmann (c) 2012."
1, 0, Text_t, "Seq. (c) by: Segundo G. Yogore,  2007\012"
1, 0, Time_signature, 4, 2, 24, 8
1, 0, Key_signature, 0, "major"
1, 0, Tempo, 416667
1, 217200, Tempo, 425532
1, 217440, Tempo, 434783
1, 217680, Tempo, 444444
1, 217920, Tempo, 458015
1, 218160, Tempo, 468750
1, 218400, Tempo, 480000
1, 218640, Tempo, 491803
1, 218880, Time_signature, 6, 2, 24, 8
1, 218880, End_track
2, 0, Start_track
2, 0, Title_t, "Grand Piano"
2, 0, Program_c, 0, 0
2, 0, Control_c, 0, 7, 115
2, 0, Control_c, 0, 10, 86
2, 0, Control_c, 0, 64, 127
2, 0, Note_on_c, 0, 71, 54
2, 120, Note_on_c, 0, 71, 0
2, 120, Note_on_c, 0, 67, 54
2, 240, Note_on_c, 0, 67, 0
2, 240, Note_on_c, 0, 76, 54
2, 360, Note_on_c, 0, 76, 0
2, 360, Control_c, 0, 64, 0
2, 360, Note_on_c, 0, 67, 54
2, 480, Note_on_c, 0, 67, 0
2, 480, Control_c, 0, 64, 127
2, 480, Note_on_c, 0, 71, 54
2, 600, Note_on_c, 0, 71, 0
2, 600, Note_on_c, 0, 67, 54
2, 720, Note_on_c, 0, 67, 0
2, 720, Note_on_c, 0, 76, 54
2, 840, Note_on_c, 0, 76, 0
2, 840, Control_c, 0, 64, 0
2, 840, Note_on_c, 0, 67, 54
2, 960, Note_on_c, 0, 67, 0
2, 960, Control_c, 0, 64, 127
2, 960, Note_on_c, 0, 71, 54
2, 1080, Note_on_c, 0, 71, 0
2, 1080, Note_on_c, 0, 67, 54
2, 1200, Note_on_c, 0, 67, 0
2, 1200, Note_on_c, 0, 76, 54
2, 1320, Note_on_c, 0, 76, 0
2, 1320, Control_c, 0, 64, 0
2, 1320, Note_on_c, 0, 67, 54
2, 1440, Note_on_c, 0, 67, 0
2, 1440, Control_c, 0, 64, 127
2, 1440, Note_on_c, 0, 71, 54
2, 1560, Note_on_c, 0, 71, 0
2, 1560, Note_on_c, 0, 67, 54
2, 1680, Note_on_c, 0, 67, 0
2, 1680, Note_on_c, 0, 76, 54
2, 1800, Note_on_c, 0, 76, 0
2, 1800, Control_c, 0, 64, 0
2, 1800, Note_on_c, 0, 67, 54
2, 1920, Note_on_c, 0, 67, 0
2, 1920, Control_c, 0, 64, 127
2, 1920, Note_on_c, 0, 70, 54
2, 2040, Note_on_c, 0, 70, 0
2, 2040, Note_on_c, 0, 67, 54
2, 2160, Note_on_c, 0, 67, 0
2, 2160, Note_on_c, 0, 76, 54
2, 2280, Note_on_c, 0, 76, 0
2, 2280, Control_c, 0, 64, 0
2, 2280, Note_on_c, 0, 67, 54
2, 2400, Note_on_c, 0, 67, 0
2, 2400, Control_c, 0, 64, 127
2, 2400, Note_on_c, 0, 69, 54
2, 2520, Note_on_c, 0, 69, 0
2, 2520, Note_on_c, 0, 67, 54
2, 2640, Note_on_c, 0, 67, 0
2, 2640, Note_on_c, 0, 76, 54
2, 2760, Note_on_c, 0, 76, 0
2, 2760, Control_c, 0, 64, 0
2, 2760, Note_on_c, 0, 67, 54
2, 2880, Note_on_c, 0, 67, 0
2, 2880, Control_c, 0, 64, 127
2, 2880, Note_on_c, 0, 69, 54
2, 3000, Note_on_c, 0, 69, 0
2, 3000, Note_on_c, 0, 67, 54
2, 3120, Note_on_c, 0, 67, 0
2, 3120, Note_on_c, 0, 76, 54
2, 3240, Note_on_c, 0, 76, 0
2, 3240, Control_c, 0, 64, 0
2, 3240, Note_on_c, 0, 67, 54
2, 3360, Note_on_c, 0, 67, 0
2, 3360, Control_c, 0, 64, 127
2, 3360, Note_on_c, 0, 69, 54
2, 3480, Note_on_c, 0, 69, 0
2, 3480, Note_on_c, 0, 67, 54
2, 3600, Note_on_c, 0, 67, 0
2, 3600, Note_on_c, 0, 76, 54
2, 3720, Note_on_c, 0, 76, 0
2, 3720, Control_c, 0, 64, 0
2, 3720, Note_on_c, 0, 67, 54
2, 3840, Note_on_c, 0, 67, 0
2, 3840, Control_c, 0, 64, 127
2, 3840, Note_on_c, 0, 70, 54
2, 3960, Note_on_c, 0, 70, 0
2, 3960, Note_on_c, 0, 67, 54
2, 4080, Note_on_c, 0, 67, 0
2, 4080, Note_on_c, 0, 76, 54
2, 4200, Note_on_c, 0, 76, 0
2, 4200, Control_c, 0, 64, 0
2, 4200, Note_on_c, 0, 67, 54
2, 4320, Note_on_c, 0, 67, 0
2, 4320, Control_c, 0, 64, 127
2, 4320, Note_on_c, 0, 69, 54
2, 4440, Note_on_c, 0, 69, 0
2, 4440, Note_on_c, 0, 67, 54
2, 4560, Note_on_c, 0, 67, 0
2, 4560, Note_on_c, 0, 76, 54
2, 4680, Note_on_c, 0, 76, 0
2, 4680, Control_c, 0, 64, 0
2, 4680, Note_on_c, 0, 67, 54
2, 4800, Note_on_c, 0, 67, 0
2, 4800, Control_c, 0, 64, 127
2, 4800, Note_on_c, 0, 70, 54
2, 4920, Note_on_c, 0, 70, 0
2, 4920, Note_on_c, 0, 67, 54
2, 5040, Note_on_c, 0, 67, 0
2, 5040, Note_on_c, 0, 76, 54
2, 5160, Note_on_c, 0, 76, 0
2, 5160, Control_c, 0, 64, 0
2, 5160, Note_on_c, 0, 67, 54
2, 5280, Note_on_c, 0, 67, 0
2, 5280, Control_c, 0, 64, 127
2, 5280, Note_on_c, 0, 69, 54
2, 5400, Note_on_c, 0, 69, 0
2, 5400, Note_on_c, 0, 67, 54
2, 5520, Note_on_c, 0, 67, 0
2, 5520, Note_on_c, 0, 76, 54
2, 5640, Note_on_c, 0, 76, 0
2, 5640, Control_c, 0, 64, 0
2, 5640, Note_on_c, 0, 67, 54
2, 5760, Note_on_c, 0, 67, 0
2, 5760, Control_c, 0, 64, 127
2, 5760, Note_on_c, 0, 70, 54
2, 5880, Note_on_c, 0, 70, 0
2, 5880, Note_on_c, 0, 67, 54
2, 6000, Note_on_c, 0, 67, 0
2, 6000, Note_on_c, 0, 76, 54
2, 6120, Note_on_c, 0, 76, 0
2, 6120, Control_c, 0, 64, 0
2, 6120, Note_on_c, 0, 67, 54
2, 6240, Note_on_c, 0, 67, 0
2, 6240, Control_c, 0, 64, 127
2, 6240, Note_on_c, 0, 69, 54
2, 6360, Note_on_c, 0, 69, 0
2, 6360, Note_on_c, 0, 67, 54
2, 6480, Note_on_c, 0, 67, 0
2, 6480, Note_on_c, 0, 76, 54
2, 6600, Note_on_c, 0, 76, 0
2, 6600, Control_c, 0, 64, 0
2, 6600, Note_on_c, 0, 67, 54
2, 6720, Note_on_c, 0, 67, 0
2, 6720, Control_c, 0, 64, 127
2, 6720, Note_on_c, 0, 70, 54
2, 6840, Note_on_c, 0, 70, 0
2, 6840, Note_on_c, 0, 67, 54
2, 6960, Note_on_c, 0, 67, 0
2, 6960, Note_on_c, 0, 76, 54
2, 7080, Note_on_c, 0, 76, 0
2, 7080, Control_c, 0, 64, 0
2, 7080, Note_on_c, 0, 67, 54
2, 7200, Note_on_c, 0, 67, 0
2, 7200, Control_c, 0, 64, 127
2, 7200, Note_on_c, 0, 69, 54
2, 7320, Note_on_c, 0, 69, 0
2, 7320, Note_on_c, 0, 67, 54
2, 7440, Note_on_c, 0, 67, 0
2, 7440, Note_on_c, 0, 76, 54
2, 7560, Note_on_c, 0, 76, 0
2, 7560, Control_c, 0, 64, 0
2, 7560, Note_on_c, 0, 67, 54
2, 7680, Note_on_c, 0, 67, 0
2, 7680, Control_c, 0, 64, 127
2, 7680, Note_on_c, 0, 67, 54
2, 7680, Note_on_c, 0, 69, 54
2, 7800, Note_on_c, 0, 69, 0
2, 7800, Note_on_c, 0, 67, 0
2, 7800, Note_on_c, 0, 64, 54
2, 7920, Note_on_c, 0, 64, 0
2, 7920, Note_on_c, 0, 76, 54
2, 8040, Note_on_c, 0, 76, 0
2, 8040, Control_c, 0, 64, 0
2, 8040, Note_on_c, 0, 64, 54
2, 8160, Note_on_c, 0, 64, 0
2, 8160, Control_c, 0, 64, 127
2, 8160, Note_on_c, 0, 67, 54
2, 8160, Note_on_c, 0, 69, 54
2, 8280, Note_on_c, 0, 69, 0
2, 8280, Note_on_c, 0, 67, 0
2, 8280, Note_on_c, 0, 64, 54
2, 8400, Note_on_c, 0, 64, 0
2, 8400, Note_on_c, 0, 76, 54
2, 8520, Note_on_c, 0, 76, 0
2, 8520, Control_c, 0, 64, 0
2, 8520, Note_on_c, 0, 64, 54
2, 8640, Note_on_c, 0, 64, 0
2, 8640, Control_c, 0, 64, 127
2, 8640, Note_on_c, 0, 67, 54
2, 8760, Note_on_c, 0, 67, 0
2, 8760, Note_on_c, 0, 64, 54
2, 8880, Note_on_c, 0, 64, 0
2, 8880, Note_on_c, 0, 76, 54
2, 9000, Note_on_c, 0, 76, 0
2, 9000, Control_c, 0, 64, 0
2, 9000, Note_on_c, 0, 64, 54
2, 9120, Note_on_c, 0, 64, 0
2, 9120, Control_c, 0, 64, 127
2, 9120, Note_on_c, 0, 67, 54
2, 9240, Note_on_c, 0, 67, 0
2, 9240, Note_on_c, 0, 64, 54
2, 9360, Note_on_c, 0, 64, 0
2, 9360, Note_on_c, 0, 76, 54
2, 9480, Note_on_c, 0, 76, 0
2, 9480, Control_c, 0, 64, 0
2, 9480, Note_on_c, 0, 64, 54
2, 9600, Note_on_c, 0, 64, 0
2, 9600, Control_c, 0, 64, 127
2, 9600, Note_on_c, 0, 67, 54
2, 9720, Note_on_c, 0, 67, 0
2, 9720, Note_on_c, 0, 64, 54
2, 9840, Note_on_c, 0, 64, 0
2, 9840, Note_on_c, 0, 76, 54
2, 9960, Note_on_c, 0, 76, 0
2, 9960, Control_c, 0, 64, 0
2, 9960, Note_on_c, 0, 64, 54
2, 10080, Note_on_c, 0, 64, 0
2, 10080, Control_c, 0, 64, 127
2, 10080, Note_on_c, 0, 67, 54
2, 10200, Note_on_c, 0, 67, 0
2, 10200, Note_on_c, 0, 64, 54
2, 10320, Note_on_c, 0, 64, 0
2, 10320, Note_on_c, 0, 76, 54
2, 10440, Note_on_c, 0, 76, 0
2, 10440, Control_c, 0, 64, 0
2, 10440, Note_on_c, 0, 64, 54
2, 10560, Note_on_c, 0, 64, 0
2, 10560, Control_c, 0, 64, 127
2, 10560, Note_on_c, 0, 67, 67
2, 10680, Note_on_c, 0, 67, 0
2, 10680, Note_on_c, 0, 64, 67
2, 10800, Note_on_c, 0, 64, 0
2, 10800, Note_on_c, 0, 76, 67
2, 10920, Note_on_c, 0, 76, 0
2, 10920, Control_c, 0, 64, 0
2, 10920, Note_on_c, 0, 64, 67
2, 11040, Note_on_c, 0, 64, 0
2, 11040, Control_c, 0, 64, 127
2, 11040, Note_on_c, 0, 67, 67
2, 11160, Note_on_c, 0, 67, 0
2, 11160, Note_on_c, 0, 64, 67
2, 11280, Note_on_c, 0, 64, 0
2, 11280, Note_on_c, 0, 76, 67
2, 11400, Note_on_c, 0, 76, 0
2, 11400, Control_c, 0, 64, 0
2, 11400, Note_on_c, 0, 64, 67
2, 11520, Note_on_c, 0, 64, 0
2, 11520, Note_on_c, 0, 67, 80
2, 11640, Note_on_c, 0, 67, 0
2, 11640, Note_on_c, 0, 64, 80
2, 11760, Note_on_c, 0, 64, 0
2, 11760, Note_on_c, 0, 67, 80
2, 11760, Note_on_c, 0, 71, 80
2, 11880, Note_on_c, 0, 71, 0
2, 11880, Note_on_c, 0, 67, 0
2, 11880, Note_on_c, 0, 64, 80
2, 12000, Note_on_c, 0, 64, 0
2, 12000, Note_on_c, 0, 67, 80
2, 12000, Note_on_c, 0, 71, 80
2, 12240, Note_on_c, 0, 71, 0
2, 12240, Note_on_c, 0, 67, 0
2, 12240, Note_on_c, 0, 67, 80
2, 12240, Note_on_c, 0, 71, 80
2, 12360, Note_on_c, 0, 71, 0
2, 12360, Note_on_c, 0, 67, 0
2, 12360, Note_on_c, 0, 64, 80
2, 12480, Note_on_c, 0, 64, 0
2, 12480, Note_on_c, 0, 67, 80
2, 12480, Note_on_c, 0, 71, 80
2, 12720, Note_on_c, 0, 71, 0
2, 12720, Note_on_c, 0, 67, 0
2, 12720, Note_on_c, 0, 64, 80
2, 12720, Note_on_c, 0, 67, 80
2, 12720, Note_on_c, 0, 74, 80
2, 12767, Note_on_c, 0, 74, 0
2, 12767, Note_on_c, 0, 67, 0
2, 12767, Note_on_c, 0, 64, 0
2, 12960, Note_on_c, 0, 64, 80
2, 12960, Note_on_c, 0, 67, 80
2, 12960, Note_on_c, 0, 72, 80
2, 13007, Note_on_c, 0, 72, 0
2, 13007, Note_on_c, 0, 67, 0
2, 13007, Note_on_c, 0, 64, 0
2, 13200, Note_on_c, 0, 64, 80
2, 13200, Note_on_c, 0, 67, 80
2, 13200, Note_on_c, 0, 74, 80
2, 13247, Note_on_c, 0, 74, 0
2, 13247, Note_on_c, 0, 67, 0
2, 13247, Note_on_c, 0, 64, 0
2, 13440, Note_on_c, 0, 64, 80
2, 13440, Note_on_c, 0, 67, 80
2, 13440, Note_on_c, 0, 71, 80
2, 13487, Note_on_c, 0, 71, 0
2, 13487, Note_on_c, 0, 67, 0
2, 13487, Note_on_c, 0, 64, 0
2, 13680, Note_on_c, 0, 59, 80
2, 13703, Note_on_c, 0, 59, 0
2, 13800, Note_on_c, 0, 59, 80
2, 13823, Note_on_c, 0, 59, 0
2, 13920, Note_on_c, 0, 59, 80
2, 13967, Note_on_c, 0, 59, 0
2, 14160, Note_on_c, 0, 59, 80
2, 14183, Note_on_c, 0, 59, 0
2, 14280, Note_on_c, 0, 59, 80
2, 14303, Note_on_c, 0, 59, 0
2, 14400, Note_on_c, 0, 59, 80
2, 14447, Note_on_c, 0, 59, 0
2, 14640, Note_on_c, 0, 59, 80
2, 14640, Note_on_c, 0, 62, 80
2, 14687, Note_on_c, 0, 62, 0
2, 14687, Note_on_c, 0, 59, 0
2, 14880, Note_on_c, 0, 61, 80
2, 14927, Note_on_c, 0, 61, 0
2, 15120, Note_on_c, 0, 60, 80
2, 15167, Note_on_c, 0, 60, 0
2, 15360, Note_on_c, 0, 59, 80
2, 15407, Note_on_c, 0, 59, 0
2, 15600, Note_on_c, 0, 67, 80
2, 15600, Note_on_c, 0, 71, 80
2, 15720, Note_on_c, 0, 71, 0
2, 15720, Note_on_c, 0, 67, 0
2, 15720, Note_on_c, 0, 64, 80
2, 15840, Note_on_c, 0, 64, 0
2, 15840, Note_on_c, 0, 67, 80
2, 15840, Note_on_c, 0, 71, 80
2, 16080, Note_on_c, 0, 71, 0
2, 16080, Note_on_c, 0, 67, 0
2, 16080, Note_on_c, 0, 67, 80
2, 16080, Note_on_c, 0, 71, 80
2, 16200, Note_on_c, 0, 71, 0
2, 16200, Note_on_c, 0, 67, 0
2, 16200, Note_on_c, 0, 64, 80
2, 16320, Note_on_c, 0, 64, 0
2, 16320, Note_on_c, 0, 67, 80
2, 16320, Note_on_c, 0, 71, 80
2, 16560, Note_on_c, 0, 71, 0
2, 16560, Note_on_c, 0, 67, 0
2, 16560, Note_on_c, 0, 64, 80
2, 16560, Note_on_c, 0, 67, 80
2, 16560, Note_on_c, 0, 74, 80
2, 16607, Note_on_c, 0, 74, 0
2, 16607, Note_on_c, 0, 67, 0
2, 16607, Note_on_c, 0, 64, 0
2, 16800, Note_on_c, 0, 64, 80
2, 16800, Note_on_c, 0, 67, 80
2, 16800, Note_on_c, 0, 73, 80
2, 16847, Note_on_c, 0, 73, 0
2, 16847, Note_on_c, 0, 67, 0
2, 16847, Note_on_c, 0, 64, 0
2, 17040, Note_on_c, 0, 64, 80
2, 17040, Note_on_c, 0, 67, 80
2, 17040, Note_on_c, 0, 72, 80
2, 17087, Note_on_c, 0, 72, 0
2, 17087, Note_on_c, 0, 67, 0
2, 17087, Note_on_c, 0, 64, 0
2, 17280, Note_on_c, 0, 64, 80
2, 17280, Note_on_c, 0, 67, 80
2, 17280, Note_on_c, 0, 71, 80
2, 17327, Note_on_c, 0, 71, 0
2, 17327, Note_on_c, 0, 67, 0
2, 17327, Note_on_c, 0, 64, 0
2, 17520, Note_on_c, 0, 59, 80
2, 17543, Note_on_c, 0, 59, 0
2, 17640, Note_on_c, 0, 59, 80
2, 17663, Note_on_c, 0, 59, 0
2, 17760, Note_on_c, 0, 59, 80
2, 17807, Note_on_c, 0, 59, 0
2, 18000, Note_on_c, 0, 59, 80
2, 18023, Note_on_c, 0, 59, 0
2, 18120, Note_on_c, 0, 59, 80
2, 18143, Note_on_c, 0, 59, 0
2, 18240, Note_on_c, 0, 59, 80
2, 18287, Note_on_c, 0, 59, 0
2, 18480, Note_on_c, 0, 59, 80
2, 18480, Note_on_c, 0, 62, 80
2, 18527, Note_on_c, 0, 62, 0
2, 18527, Note_on_c, 0, 59, 0
2, 18720, Note_on_c, 0, 61, 93
2, 18767, Note_on_c, 0, 61, 0
2, 18960, Note_on_c, 0, 60, 93
2, 19007, Note_on_c, 0, 60, 0
2, 19200, Note_on_c, 0, 59, 93
2, 19247, Note_on_c, 0, 59, 0
2, 19440, Note_on_c, 0, 67, 93
2, 19440, Note_on_c, 0, 71, 93
2, 19560, Note_on_c, 0, 71, 0
2, 19560, Note_on_c, 0, 67, 0
2, 19560, Note_on_c, 0, 64, 93
2, 19680, Note_on_c, 0, 64, 0
2, 19680, Note_on_c, 0, 67, 93
2, 19680, Note_on_c, 0, 71, 93
2, 19920, Note_on_c, 0, 71, 0
2, 19920, Note_on_c, 0, 67, 0
2, 19920, Note_on_c, 0, 67, 93
2, 19920, Note_on_c, 0, 71, 93
2, 20040, Note_on_c, 0, 71, 0
2, 20040, Note_on_c, 0, 67, 0
2, 20040, Note_on_c, 0, 64, 93
2, 20160, Note_on_c, 0, 64, 0
2, 20160, Note_on_c, 0, 67, 93
2, 20160, Note_on_c, 0, 71, 93
2, 20400, Note_on_c, 0, 71, 0
2, 20400, Note_on_c, 0, 67, 0
2, 20400, Note_on_c, 0, 67, 93
2, 20400, Note_on_c, 0, 74, 93
2, 20640, Note_on_c, 0, 74, 0
2, 20640, Note_on_c, 0, 67, 0
2, 20640, Note_on_c, 0, 67, 93
2, 20640, Note_on_c, 0, 72, 93
2, 21360, Note_on_c, 0, 72, 0
2, 21360, Note_on_c, 0, 67, 0
2, 21360, Note_on_c, 0, 70, 93
2, 21360, Note_on_c, 0, 72, 93
2, 21480, Note_on_c, 0, 72, 0
2, 21480, Note_on_c, 0, 70, 0
2, 21480, Note_on_c, 0, 67, 93
2, 21600, Note_on_c, 0, 67, 0
2, 21600, Note_on_c, 0, 69, 93
2, 21600, Note_on_c, 0, 72, 93
2, 21840, Note_on_c, 0, 72, 0
2, 21840, Note_on_c, 0, 69, 0
2, 21840, Note_on_c, 0, 72, 93
2, 21960, Note_on_c, 0, 72, 0
2, 21960, Note_on_c, 0, 69, 93
2, 22080, Note_on_c, 0, 69, 0
2, 22080, Note_on_c, 0, 72, 93
2, 22320, Note_on_c, 0, 72, 0
2, 22320, Note_on_c, 0, 69, 93
2, 22320, Note_on_c, 0, 75, 93
2, 22560, Note_on_c, 0, 75, 0
2, 22560, Note_on_c, 0, 69, 0
2, 22560, Note_on_c, 0, 69, 93
2, 22560, Note_on_c, 0, 74, 93
2, 23280, Note_on_c, 0, 74, 0
2, 23280, Note_on_c, 0, 69, 0
2, 23280, Note_on_c, 0, 72, 93
2, 23280, Note_on_c, 0, 74, 93
2, 23400, Note_on_c, 0, 74, 0
2, 23400, Note_on_c, 0, 72, 0
2, 23400, Note_on_c, 0, 69, 93
2, 23520, Note_on_c, 0, 69, 0
2, 23520, Note_on_c, 0, 70, 93
2, 23520, Note_on_c, 0, 74, 93
2, 23760, Note_on_c, 0, 74, 0
2, 23760, Note_on_c, 0, 70, 0
2, 23760, Note_on_c, 0, 70, 93
2, 23760, Note_on_c, 0, 74, 93
2, 23760, Note_on_c, 0, 77, 93
2, 24000, Note_on_c, 0, 77, 0
2, 24000, Note_on_c, 0, 74, 0
2, 24000, Note_on_c, 0, 70, 0
2, 24000, Note_on_c, 0, 70, 93
2, 24000, Note_on_c, 0, 74, 93
2, 24000, Note_on_c, 0, 76, 93
2, 24240, Note_on_c, 0, 76, 0
2, 24240, Note_on_c, 0, 74, 0
2, 24240, Note_on_c, 0, 70, 0
2, 24240, Note_on_c, 0, 70, 119
2, 24240, Note_on_c, 0, 74, 119
2, 24720, Note_on_c, 0, 74, 0
2, 24720, Note_on_c, 0, 70, 0
2, 25200, Note_on_c, 0, 69, 93
2, 25200, Note_on_c, 0, 74, 93
2, 25320, Note_on_c, 0, 74, 0
2, 25320, Note_on_c, 0, 69, 0
2, 25320, Note_on_c, 0, 65, 93
2, 25440, Note_on_c, 0, 65, 0
2, 25440, Note_on_c, 0, 69, 93
2, 25440, Note_on_c, 0, 74, 93
2, 25680, Note_on_c, 0, 74, 0
2, 25680, Note_on_c, 0, 69, 0
2, 25680, Note_on_c, 0, 69, 93
2, 25680, Note_on_c, 0, 74, 93
2, 25680, Note_on_c, 0, 77, 93
2, 25920, Note_on_c, 0, 77, 0
2, 25920, Note_on_c, 0, 74, 0
2, 25920, Note_on_c, 0, 69, 0
2, 25920, Note_on_c, 0, 70, 93
2, 25920, Note_on_c, 0, 74, 93
2, 25920, Note_on_c, 0, 76, 93
2, 26160, Note_on_c, 0, 76, 0
2, 26160, Note_on_c, 0, 74, 0
2, 26160, Note_on_c, 0, 70, 0
2, 26160, Note_on_c, 0, 70, 119
2, 26160, Note_on_c, 0, 74, 119
2, 26640, Note_on_c, 0, 74, 0
2, 26640, Note_on_c, 0, 70, 0
2, 27120, Note_on_c, 0, 69, 93
2, 27120, Note_on_c, 0, 74, 93
2, 27240, Note_on_c, 0, 74, 0
2, 27240, Note_on_c, 0, 69, 0
2, 27240, Note_on_c, 0, 65, 93
2, 27360, Note_on_c, 0, 65, 0
2, 27360, Note_on_c, 0, 69, 93
2, 27360, Note_on_c, 0, 74, 93
2, 27600, Note_on_c, 0, 74, 0
2, 27600, Note_on_c, 0, 69, 0
2, 27600, Note_on_c, 0, 69, 93
2, 27600, Note_on_c, 0, 74, 93
2, 27600, Note_on_c, 0, 77, 93
2, 27840, Note_on_c, 0, 77, 0
2, 27840, Note_on_c, 0, 74, 0
2, 27840, Note_on_c, 0, 69, 0
2, 27840, Note_on_c, 0, 76, 93
2, 28080, Note_on_c, 0, 76, 0
2, 28080, Note_on_c, 0, 74, 93
2, 28320, Note_on_c, 0, 74, 0
2, 28320, Note_on_c, 0, 79, 93
2, 28560, Note_on_c, 0, 79, 0
2, 28560, Note_on_c, 0, 77, 93
2, 28800, Note_on_c, 0, 77, 0
2, 28800, Note_on_c, 0, 82, 93
2, 29040, Note_on_c, 0, 82, 0
2, 29040, Note_on_c, 0, 80, 93
2, 29280, Note_on_c, 0, 80, 0
2, 29280, Note_on_c, 0, 87, 93
2, 29520, Note_on_c, 0, 87, 0
2, 29520, Note_on_c, 0, 86, 93
2, 29760, Note_on_c, 0, 86, 0
2, 29760, Note_on_c, 0, 91, 106
2, 30000, Note_on_c, 0, 91, 0
2, 30000, Note_on_c, 0, 89, 106
2, 30240, Note_on_c, 0, 89, 0
2, 30240, Note_on_c, 0, 94, 106
2, 30360, Note_on_c, 0, 94, 0
2, 30360, Note_on_c, 0, 86, 106
2, 30480, Note_on_c, 0, 86, 0
2, 30480, Note_on_c, 0, 80, 127
2, 30600, Note_on_c, 0, 80, 0
2, 30600, Note_on_c, 0, 92, 106
2, 30720, Note_on_c, 0, 92, 0
2, 30840, Note_on_c, 0, 89, 106
2, 30960, Note_on_c, 0, 89, 0
2, 31080, Note_on_c, 0, 86, 106
2, 31200, Note_on_c, 0, 86, 0
2, 31320, Note_on_c, 0, 82, 106
2, 31440, Note_on_c, 0, 82, 0
2, 31560, Note_on_c, 0, 80, 106
2, 31680, Note_on_c, 0, 80, 0
2, 31800, Note_on_c, 0, 77, 106
2, 31920, Note_on_c, 0, 77, 0
2, 32040, Note_on_c, 0, 74, 106
2, 32160, Note_on_c, 0, 74, 0
2, 32280, Note_on_c, 0, 70, 106
2, 32400, Note_on_c, 0, 70, 0
2, 32520, Note_on_c, 0, 68, 106
2, 32640, Note_on_c, 0, 68, 0
2, 32760, Note_on_c, 0, 65, 106
2, 32880, Note_on_c, 0, 65, 0
2, 33000, Note_on_c, 0, 62, 106
2, 33120, Note_on_c, 0, 62, 0
2, 33240, Note_on_c, 0, 58, 106
2, 33360, Note_on_c, 0, 58, 0
2, 33480, Note_on_c, 0, 56, 106
2, 33600, Note_on_c, 0, 56, 0
2, 33720, Note_on_c, 0, 53, 106
2, 33840, Note_on_c, 0, 53, 0
2, 33960, Note_on_c, 0, 50, 106
2, 34080, Note_on_c, 0, 50, 0
2, 34200, Note_on_c, 0, 46, 106
2, 34320, Note_on_c, 0, 46, 0
2, 34440, Note_on_c, 0, 44, 106
2, 34560, Note_on_c, 0, 44, 0
2, 71040, Control_c, 0, 64, 127
2, 71040, Note_on_c, 0, 61, 80
2, 71160, Note_on_c, 0, 61, 0
2, 71160, Note_on_c, 0, 62, 80
2, 71280, Note_on_c, 0, 62, 0
2, 71280, Note_on_c, 0, 61, 80
2, 71400, Note_on_c, 0, 61, 0
2, 71400, Control_c, 0, 64, 0
2, 71400, Note_on_c, 0, 62, 80
2, 71520, Note_on_c, 0, 62, 0
2, 71520, Control_c, 0, 64, 127
2, 71520, Note_on_c, 0, 63, 80
2, 71640, Note_on_c, 0, 63, 0
2, 71640, Note_on_c, 0, 64, 80
2, 71760, Note_on_c, 0, 64, 0
2, 71760, Note_on_c, 0, 63, 80
2, 71880, Note_on_c, 0, 63, 0
2, 71880, Control_c, 0, 64, 0
2, 71880, Note_on_c, 0, 64, 80
2, 72000, Note_on_c, 0, 64, 0
2, 72000, Control_c, 0, 64, 127
2, 72000, Note_on_c, 0, 64, 80
2, 72120, Note_on_c, 0, 64, 0
2, 72120, Note_on_c, 0, 65, 80
2, 72240, Note_on_c, 0, 65, 0
2, 72240, Note_on_c, 0, 64, 80
2, 72360, Note_on_c, 0, 64, 0
2, 72360, Control_c, 0, 64, 0
2, 72360, Note_on_c, 0, 65, 80
2, 72480, Note_on_c, 0, 65, 0
2, 72480, Control_c, 0, 64, 127
2, 72480, Note_on_c, 0, 65, 80
2, 72600, Note_on_c, 0, 65, 0
2, 72600, Note_on_c, 0, 66, 80
2, 72720, Note_on_c, 0, 66, 0
2, 72720, Note_on_c, 0, 65, 80
2, 72840, Note_on_c, 0, 65, 0
2, 72840, Control_c, 0, 64, 0
2, 72840, Note_on_c, 0, 66, 80
2, 72960, Note_on_c, 0, 66, 0
2, 72960, Control_c, 0, 64, 127
2, 72960, Note_on_c, 0, 67, 80
2, 73080, Note_on_c, 0, 67, 0
2, 73080, Note_on_c, 0, 69, 80
2, 73200, Note_on_c, 0, 69, 0
2, 73200, Note_on_c, 0, 67, 80
2, 73320, Note_on_c, 0, 67, 0
2, 73320, Control_c, 0, 64, 0
2, 73320, Note_on_c, 0, 69, 80
2, 73440, Note_on_c, 0, 69, 0
2, 73440, Control_c, 0, 64, 127
2, 73440, Note_on_c, 0, 70, 80
2, 73560, Note_on_c, 0, 70, 0
2, 73560, Note_on_c, 0, 72, 80
2, 73680, Note_on_c, 0, 72, 0
2, 73680, Note_on_c, 0, 70, 80
2, 73800, Note_on_c, 0, 70, 0
2, 73800, Control_c, 0, 64, 0
2, 73800, Note_on_c, 0, 72, 80
2, 73920, Note_on_c, 0, 72, 0
2, 73920, Control_c, 0, 64, 127
2, 73920, Note_on_c, 0, 73, 80
2, 74040, Note_on_c, 0, 73, 0
2, 74040, Note_on_c, 0, 74, 80
2, 74160, Note_on_c, 0, 74, 0
2, 74160, Note_on_c, 0, 73, 80
2, 74280, Note_on_c, 0, 73, 0
2, 74280, Control_c, 0, 64, 0
2, 74280, Note_on_c, 0, 74, 80
2, 74400, Note_on_c, 0, 74, 0
2, 74400, Control_c, 0, 64, 127
2, 74400, Note_on_c, 0, 75, 80
2, 74520, Note_on_c, 0, 75, 0
2, 74520, Note_on_c, 0, 74, 80
2, 74640, Note_on_c, 0, 74, 0
2, 74640, Note_on_c, 0, 73, 80
2, 74760, Note_on_c, 0, 73, 0
2, 74760, Control_c, 0, 64, 0
2, 74760, Note_on_c, 0, 74, 80
2, 74880, Note_on_c, 0, 74, 0
2, 74880, Control_c, 0, 64, 127
2, 74880, Note_on_c, 0, 73, 80
2, 75000, Note_on_c, 0, 73, 0
2, 75000, Note_on_c, 0, 74, 80
2, 75120, Note_on_c, 0, 74, 0
2, 75120, Note_on_c, 0, 73, 80
2, 75240, Note_on_c, 0, 73, 0
2, 75240, Control_c, 0, 64, 0
2, 75240, Note_on_c, 0, 74, 80
2, 75360, Note_on_c, 0, 74, 0
2, 75360, Control_c, 0, 64, 127
2, 75360, Note_on_c, 0, 75, 80
2, 75480, Note_on_c, 0, 75, 0
2, 75480, Note_on_c, 0, 76, 80
2, 75600, Note_on_c, 0, 76, 0
2, 75600, Note_on_c, 0, 75, 80
2, 75720, Note_on_c, 0, 75, 0
2, 75720, Control_c, 0, 64, 0
2, 75720, Note_on_c, 0, 76, 80
2, 75840, Note_on_c, 0, 76, 0
2, 75840, Control_c, 0, 64, 127
2, 75840, Note_on_c, 0, 76, 80
2, 75960, Note_on_c, 0, 76, 0
2, 75960, Note_on_c, 0, 77, 80
2, 76080, Note_on_c, 0, 77, 0
2, 76080, Note_on_c, 0, 76, 80
2, 76200, Note_on_c, 0, 76, 0
2, 76200, Control_c, 0, 64, 0
2, 76200, Note_on_c, 0, 77, 80
2, 76320, Note_on_c, 0, 77, 0
2, 76320, Control_c, 0, 64, 127
2, 76320, Note_on_c, 0, 77, 80
2, 76440, Note_on_c, 0, 77, 0
2, 76440, Note_on_c, 0, 78, 80
2, 76560, Note_on_c, 0, 78, 0
2, 76560, Note_on_c, 0, 77, 80
2, 76680, Note_on_c, 0, 77, 0
2, 76680, Control_c, 0, 64, 0
2, 76680, Note_on_c, 0, 78, 80
2, 76800, Note_on_c, 0, 78, 0
2, 76800, Control_c, 0, 64, 127
2, 76800, Note_on_c, 0, 79, 80
2, 76920, Note_on_c, 0, 79, 0
2, 76920, Note_on_c, 0, 81, 80
2, 77040, Note_on_c, 0, 81, 0
2, 77040, Note_on_c, 0, 79, 80
2, 77160, Note_on_c, 0, 79, 0
2, 77160, Control_c, 0, 64, 0
2, 77160, Note_on_c, 0, 81, 80
2, 77280, Note_on_c, 0, 81, 0
2, 77280, Control_c, 0, 64, 127
2, 77280, Note_on_c, 0, 82, 80
2, 77400, Note_on_c, 0, 82, 0
2, 77400, Note_on_c, 0, 84, 80
2, 77520, Note_on_c, 0, 84, 0
2, 77520, Note_on_c, 0, 82, 80
2, 77640, Note_on_c, 0, 82, 0
2, 77640, Control_c, 0, 64, 0
2, 77640, Note_on_c, 0, 84, 80
2, 77760, Note_on_c, 0, 84, 0
2, 77760, Control_c, 0, 64, 127
2, 77760, Note_on_c, 0, 85, 80
2, 77880, Note_on_c, 0, 85, 0
2, 77880, Note_on_c, 0, 86, 80
2, 78000, Note_on_c, 0, 86, 0
2, 78000, Note_on_c, 0, 85, 80
2, 78120, Note_on_c, 0, 85, 0
2, 78120, Control_c, 0, 64, 0
2, 78120, Note_on_c, 0, 86, 80
2, 78240, Note_on_c, 0, 86, 0
2, 78240, Control_c, 0, 64, 127
2, 78240, Note_on_c, 0, 87, 80
2, 78360, Note_on_c, 0, 87, 0
2, 78360, Note_on_c, 0, 86, 80
2, 78480, Note_on_c, 0, 86, 0
2, 78480, Note_on_c, 0, 85, 80
2, 78600, Note_on_c, 0, 85, 0
2, 78600, Control_c, 0, 64, 0
2, 78600, Note_on_c, 0, 86, 80
2, 78720, Note_on_c, 0, 86, 0
2, 78720, Control_c, 0, 64, 127
2, 78720, Note_on_c, 0, 87, 106
2, 78840, Note_on_c, 0, 87, 0
2, 78840, Note_on_c, 0, 86, 106
2, 78960, Note_on_c, 0, 86, 0
2, 78960, Note_on_c, 0, 84, 106
2, 79080, Note_on_c, 0, 84, 0
2, 79080, Note_on_c, 0, 82, 106
2, 79200, Note_on_c, 0, 82, 0
2, 79200, Control_c, 0, 64, 127
2, 79200, Note_on_c, 0, 81, 106
2, 79320, Note_on_c, 0, 81, 0
2, 79320, Note_on_c, 0, 79, 106
2, 79440, Note_on_c, 0, 79, 0
2, 79440, Note_on_c, 0, 78, 106
2, 79560, Note_on_c, 0, 78, 0
2, 79560, Control_c, 0, 64, 0
2, 79560, Note_on_c, 0, 76, 106
2, 79680, Note_on_c, 0, 76, 0
2, 79680, Control_c, 0, 64, 127
2, 79680, Note_on_c, 0, 78, 106
2, 79800, Note_on_c, 0, 78, 0
2, 79800, Note_on_c, 0, 76, 106
2, 79920, Note_on_c, 0, 76, 0
2, 79920, Note_on_c, 0, 78, 106
2, 80040, Note_on_c, 0, 78, 0
2, 80040, Control_c, 0, 64, 0
2, 80040, Note_on_c, 0, 79, 106
2, 80160, Note_on_c, 0, 79, 0
2, 80160, Control_c, 0, 64, 127
2, 80160, Note_on_c, 0, 81, 106
2, 80280, Note_on_c, 0, 81, 0
2, 80280, Note_on_c, 0, 86, 106
2, 80400, Note_on_c, 0, 86, 0
2, 80400, Note_on_c, 0, 85, 106
2, 80520, Note_on_c, 0, 85, 0
2, 80520, Control_c, 0, 64, 0
2, 80520, Note_on_c, 0, 86, 106
2, 80640, Note_on_c, 0, 86, 0
2, 80640, Control_c, 0, 64, 127
2, 80640, Note_on_c, 0, 87, 106
2, 80760, Note_on_c, 0, 87, 0
2, 80760, Note_on_c, 0, 86, 106
2, 80880, Note_on_c, 0, 86, 0
2, 80880, Note_on_c, 0, 84, 106
2, 81000, Note_on_c, 0, 84, 0
2, 81000, Note_on_c, 0, 82, 106
2, 81120, Note_on_c, 0, 82, 0
2, 81120, Control_c, 0, 64, 127
2, 81120, Note_on_c, 0, 81, 106
2, 81240, Note_on_c, 0, 81, 0
2, 81240, Note_on_c, 0, 79, 106
2, 81360, Note_on_c, 0, 79, 0
2, 81360, Note_on_c, 0, 78, 106
2, 81480, Note_on_c, 0, 78, 0
2, 81480, Control_c, 0, 64, 0
2, 81480, Note_on_c, 0, 76, 106
2, 81600, Note_on_c, 0, 76, 0
2, 81600, Control_c, 0, 64, 127
2, 81600, Note_on_c, 0, 78, 106
2, 81720, Note_on_c, 0, 78, 0
2, 81720, Note_on_c, 0, 76, 106
2, 81840, Note_on_c, 0, 76, 0
2, 81840, Note_on_c, 0, 78, 106
2, 81960, Note_on_c, 0, 78, 0
2, 81960, Control_c, 0, 64, 0
2, 81960, Note_on_c, 0, 79, 106
2, 82080, Note_on_c, 0, 79, 0
2, 82080, Control_c, 0, 64, 127
2, 82080, Note_on_c, 0, 81, 106
2, 82200, Note_on_c, 0, 81, 0
2, 82200, Note_on_c, 0, 86, 106
2, 82320, Note_on_c, 0, 86, 0
2, 82320, Note_on_c, 0, 85, 106
2, 82440, Note_on_c, 0, 85, 0
2, 82440, Control_c, 0, 64, 0
2, 82440, Note_on_c, 0, 86, 106
2, 82560, Note_on_c, 0, 86, 0
2, 82560, Control_c, 0, 64, 127
2, 82560, Note_on_c, 0, 87, 106
2, 82680, Note_on_c, 0, 87, 0
2, 82680, Note_on_c, 0, 86, 106
2, 82800, Note_on_c, 0, 86, 0
2, 82800, Note_on_c, 0, 85, 106
2, 82920, Note_on_c, 0, 85, 0
2, 82920, Control_c, 0, 64, 0
2, 82920, Note_on_c, 0, 86, 106
2, 83040, Note_on_c, 0, 86, 0
2, 83040, Control_c, 0, 64, 127
2, 83040, Note_on_c, 0, 87, 106
2, 83160, Note_on_c, 0, 87, 0
2, 83160, Note_on_c, 0, 86, 106
2, 83280, Note_on_c, 0, 86, 0
2, 83280, Note_on_c, 0, 85, 106
2, 83400, Note_on_c, 0, 85, 0
2, 83400, Control_c, 0, 64, 0
2, 83400, Note_on_c, 0, 86, 106
2, 83520, Note_on_c, 0, 86, 0
2, 83520, Control_c, 0, 64, 127
2, 83520, Note_on_c, 0, 87, 106
2, 83640, Note_on_c, 0, 87, 0
2, 83640, Note_on_c, 0, 86, 106
2, 83760, Note_on_c, 0, 86, 0
2, 83760, Note_on_c, 0, 85, 106
2, 83880, Note_on_c, 0, 85, 0
2, 83880, Control_c, 0, 64, 0
2, 83880, Note_on_c, 0, 86, 106
2, 84000, Note_on_c, 0, 86, 0
2, 84000, Control_c, 0, 64, 127
2, 84000, Note_on_c, 0, 87, 106
2, 84120, Note_on_c, 0, 87, 0
2, 84120, Note_on_c, 0, 86, 106
2, 84240, Note_on_c, 0, 86, 0
2, 84240, Note_on_c, 0, 85, 106
2, 84360, Note_on_c, 0, 85, 0
2, 84360, Control_c, 0, 64, 0
2, 84360, Note_on_c, 0, 86, 106
2, 84480, Note_on_c, 0, 86, 0
2, 84480, Control_c, 0, 64, 127
2, 84480, Note_on_c, 0, 87, 106
2, 84600, Note_on_c, 0, 87, 0
2, 84600, Note_on_c, 0, 86, 106
2, 84720, Note_on_c, 0, 86, 0
2, 84720, Note_on_c, 0, 85, 106
2, 84840, Note_on_c, 0, 85, 0
2, 84840, Control_c, 0, 64, 0
2, 84840, Note_on_c, 0, 86, 106
2, 84960, Note_on_c, 0, 86, 0
2, 84960, Control_c, 0, 64, 127
2, 84960, Note_on_c, 0, 87, 106
2, 85080, Note_on_c, 0, 87, 0
2, 85080, Note_on_c, 0, 86, 106
2, 85200, Note_on_c, 0, 86, 0
2, 85200, Note_on_c, 0, 85, 106
2, 85320, Note_on_c, 0, 85, 0
2, 85320, Control_c, 0, 64, 0
2, 85320, Note_on_c, 0, 86, 106
2, 85440, Note_on_c, 0, 86, 0
2, 85440, Note_on_c, 0, 88, 106
2, 85440, Note_on_c, 0, 91, 106
2, 85680, Note_on_c, 0, 91, 0
2, 85680, Note_on_c, 0, 88, 0
2, 85680, Note_on_c, 0, 70, 106
2, 85800, Note_on_c, 0, 70, 0
2, 85800, Note_on_c, 0, 67, 106
2, 85920, Note_on_c, 0, 67, 0
2, 85920, Note_on_c, 0, 70, 106
2, 86160, Note_on_c, 0, 70, 0
2, 86160, Note_on_c, 0, 69, 106
2, 86280, Note_on_c, 0, 69, 0
2, 86280, Note_on_c, 0, 67, 106
2, 86400, Note_on_c, 0, 67, 0
2, 86400, Note_on_c, 0, 69, 106
2, 86640, Note_on_c, 0, 69, 0
2, 86640, Note_on_c, 0, 67, 106
2, 86760, Note_on_c, 0, 67, 0
2, 86760, Note_on_c, 0, 64, 106
2, 86880, Note_on_c, 0, 64, 0
2, 86880, Note_on_c, 0, 67, 106
2, 87120, Note_on_c, 0, 67, 0
2, 87120, Note_on_c, 0, 65, 106
2, 87240, Note_on_c, 0, 65, 0
2, 87240, Note_on_c, 0, 61, 106
2, 87360, Note_on_c, 0, 61, 0
2, 87360, Note_on_c, 0, 65, 106
2, 87600, Note_on_c, 0, 65, 0
2, 87600, Note_on_c, 0, 61, 127
2, 87600, Note_on_c, 0, 64, 127
2, 87840, Note_on_c, 0, 64, 0
2, 87840, Note_on_c, 0, 61, 0
2, 87840, Note_on_c, 0, 60, 127
2, 87840, Note_on_c, 0, 63, 127
2, 88080, Note_on_c, 0, 63, 0
2, 88080, Note_on_c, 0, 60, 0
2, 88080, Note_on_c, 0, 59, 127
2, 88080, Note_on_c, 0, 62, 127
2, 88320, Note_on_c, 0, 62, 0
2, 88320, Note_on_c, 0, 59, 0
2, 88320, Note_on_c, 0, 58, 127
2, 88320, Note_on_c, 0, 61, 127
2, 88560, Note_on_c, 0, 61, 0
2, 88560, Note_on_c, 0, 58, 0
2, 88560, Note_on_c, 0, 56, 127
2, 88560, Note_on_c, 0, 59, 127
2, 88800, Note_on_c, 0, 59, 0
2, 88800, Note_on_c, 0, 56, 0
2, 88800, Note_on_c, 0, 55, 127
2, 88800, Note_on_c, 0, 58, 127
2, 89040, Note_on_c, 0, 58, 0
2, 89040, Note_on_c, 0, 55, 0
2, 89040, Note_on_c, 0, 53, 127
2, 89040, Note_on_c, 0, 56, 127
2, 89280, Note_on_c, 0, 56, 0
2, 89280, Note_on_c, 0, 53, 0
2, 89280, Note_on_c, 0, 52, 127
2, 89280, Note_on_c, 0, 55, 127
2, 89520, Note_on_c, 0, 55, 0
2, 89520, Note_on_c, 0, 52, 0
2, 89520, Note_on_c, 0, 70, 106
2, 89640, Note_on_c, 0, 70, 0
2, 89640, Note_on_c, 0, 67, 106
2, 89760, Note_on_c, 0, 67, 0
2, 89760, Note_on_c, 0, 70, 106
2, 90000, Note_on_c, 0, 70, 0
2, 90000, Note_on_c, 0, 69, 106
2, 90120, Note_on_c, 0, 69, 0
2, 90120, Note_on_c, 0, 67, 106
2, 90240, Note_on_c, 0, 67, 0
2, 90240, Note_on_c, 0, 69, 106
2, 90480, Note_on_c, 0, 69, 0
2, 90480, Note_on_c, 0, 67, 106
2, 90600, Note_on_c, 0, 67, 0
2, 90600, Note_on_c, 0, 64, 106
2, 90720, Note_on_c, 0, 64, 0
2, 90720, Note_on_c, 0, 67, 106
2, 90960, Note_on_c, 0, 67, 0
2, 90960, Note_on_c, 0, 65, 106
2, 91080, Note_on_c, 0, 65, 0
2, 91080, Note_on_c, 0, 61, 106
2, 91200, Note_on_c, 0, 61, 0
2, 91200, Note_on_c, 0, 65, 106
2, 91440, Note_on_c, 0, 65, 0
2, 91440, Note_on_c, 0, 61, 127
2, 91440, Note_on_c, 0, 64, 127
2, 91680, Note_on_c, 0, 64, 0
2, 91680, Note_on_c, 0, 61, 0
2, 91680, Note_on_c, 0, 60, 127
2, 91680, Note_on_c, 0, 63, 127
2, 91920, Note_on_c, 0, 63, 0
2, 91920, Note_on_c, 0, 60, 0
2, 91920, Note_on_c, 0, 59, 127
2, 91920, Note_on_c, 0, 62, 127
2, 92160, Note_on_c, 0, 62, 0
2, 92160, Note_on_c, 0, 59, 0
2, 92160, Note_on_c, 0, 58, 127
2, 92160, Note_on_c, 0, 61, 127
2, 92400, Note_on_c, 0, 61, 0
2, 92400, Note_on_c, 0, 58, 0
2, 92400, Note_on_c, 0, 56, 127
2, 92400, Note_on_c, 0, 59, 127
2, 92640, Note_on_c, 0, 59, 0
2, 92640, Note_on_c, 0, 56, 0
2, 92640, Note_on_c, 0, 55, 127
2, 92640, Note_on_c, 0, 58, 127
2, 92880, Note_on_c, 0, 58, 0
2, 92880, Note_on_c, 0, 55, 0
2, 92880, Note_on_c, 0, 53, 127
2, 92880, Note_on_c, 0, 56, 127
2, 93120, Note_on_c, 0, 56, 0
2, 93120, Note_on_c, 0, 53, 0
2, 93120, Note_on_c, 0, 52, 127
2, 93120, Note_on_c, 0, 55, 127
2, 93360, Note_on_c, 0, 55, 0
2, 93360, Note_on_c, 0, 52, 0
2, 93360, Note_on_c, 0, 70, 106
2, 93480, Note_on_c, 0, 70, 0
2, 93480, Note_on_c, 0, 67, 106
2, 93600, Note_on_c, 0, 67, 0
2, 93600, Note_on_c, 0, 70, 106
2, 93840, Note_on_c, 0, 70, 0
2, 93840, Note_on_c, 0, 69, 106
2, 93960, Note_on_c, 0, 69, 0
2, 93960, Note_on_c, 0, 67, 106
2, 94080, Note_on_c, 0, 67, 0
2, 94080, Note_on_c, 0, 69, 106
2, 94320, Note_on_c, 0, 69, 0
2, 94320, Note_on_c, 0, 67, 106
2, 94440, Note_on_c, 0, 67, 0
2, 94440, Note_on_c, 0, 64, 106
2, 94560, Note_on_c, 0, 64, 0
2, 94560, Note_on_c, 0, 67, 106
2, 94800, Note_on_c, 0, 67, 0
2, 94800, Note_on_c, 0, 69, 106
2, 95040, Note_on_c, 0, 69, 0
2, 95040, Note_on_c, 0, 74, 127
2, 95040, Note_on_c, 0, 86, 127
2, 95760, Note_on_c, 0, 86, 0
2, 95760, Note_on_c, 0, 74, 0
2, 95760, Note_on_c, 0, 81, 106
2, 96000, Note_on_c, 0, 81, 0
2, 96000, Note_on_c, 0, 74, 127
2, 96000, Note_on_c, 0, 86, 127
2, 96720, Note_on_c, 0, 86, 0
2, 96720, Note_on_c, 0, 74, 0
2, 96720, Note_on_c, 0, 81, 106
2, 96960, Note_on_c, 0, 81, 0
2, 96960, Note_on_c, 0, 74, 106
2, 96960, Note_on_c, 0, 86, 106
2, 97200, Note_on_c, 0, 86, 0
2, 97200, Note_on_c, 0, 74, 0
2, 97200, Note_on_c, 0, 74, 106
2, 97320, Note_on_c, 0, 74, 0
2, 97320, Note_on_c, 0, 69, 106
2, 97440, Note_on_c, 0, 69, 0
2, 97440, Note_on_c, 0, 74, 106
2, 97680, Note_on_c, 0, 74, 0
2, 97680, Note_on_c, 0, 72, 106
2, 97800, Note_on_c, 0, 72, 0
2, 97800, Note_on_c, 0, 68, 106
2, 97920, Note_on_c, 0, 68, 0
2, 97920, Note_on_c, 0, 72, 106
2, 98160, Note_on_c, 0, 72, 0
2, 98160, Note_on_c, 0, 71, 106
2, 98280, Note_on_c, 0, 71, 0
2, 98280, Note_on_c, 0, 68, 106
2, 98400, Note_on_c, 0, 68, 0
2, 98400, Note_on_c, 0, 71, 106
2, 98640, Note_on_c, 0, 71, 0
2, 98640, Note_on_c, 0, 72, 106
2, 98687, Note_on_c, 0, 72, 0
2, 98880, Note_on_c, 0, 60, 127
2, 98880, Note_on_c, 0, 64, 127
2, 98880, Note_on_c, 0, 69, 127
2, 99120, Note_on_c, 0, 69, 0
2, 99120, Note_on_c, 0, 64, 0
2, 99120, Note_on_c, 0, 60, 0
2, 99120, Note_on_c, 0, 59, 127
2, 99120, Note_on_c, 0, 62, 127
2, 99120, Note_on_c, 0, 68, 127
2, 99360, Note_on_c, 0, 68, 0
2, 99360, Note_on_c, 0, 62, 0
2, 99360, Note_on_c, 0, 59, 0
2, 99360, Note_on_c, 0, 57, 127
2, 99360, Note_on_c, 0, 60, 127
2, 99360, Note_on_c, 0, 66, 127
2, 99600, Note_on_c, 0, 66, 0
2, 99600, Note_on_c, 0, 60, 0
2, 99600, Note_on_c, 0, 57, 0
2, 99600, Note_on_c, 0, 56, 127
2, 99600, Note_on_c, 0, 59, 127
2, 99600, Note_on_c, 0, 64, 127
2, 99840, Note_on_c, 0, 64, 0
2, 99840, Note_on_c, 0, 59, 0
2, 99840, Note_on_c, 0, 56, 0
2, 99840, Note_on_c, 0, 57, 127
2, 99840, Note_on_c, 0, 60, 127
2, 99840, Note_on_c, 0, 66, 127
2, 100080, Note_on_c, 0, 66, 0
2, 100080, Note_on_c, 0, 60, 0
2, 100080, Note_on_c, 0, 57, 0
2, 100080, Note_on_c, 0, 59, 127
2, 100080, Note_on_c, 0, 62, 127
2, 100080, Note_on_c, 0, 68, 127
2, 100320, Note_on_c, 0, 68, 0
2, 100320, Note_on_c, 0, 62, 0
2, 100320, Note_on_c, 0, 59, 0
2, 100320, Note_on_c, 0, 60, 127
2, 100320, Note_on_c, 0, 64, 127
2, 100320, Note_on_c, 0, 69, 127
2, 100560, Note_on_c, 0, 69, 0
2, 100560, Note_on_c, 0, 64, 0
2, 100560, Note_on_c, 0, 60, 0
2, 100560, Note_on_c, 0, 62, 127
2, 100560, Note_on_c, 0, 68, 127
2, 100560, Note_on_c, 0, 71, 127
2, 100800, Note_on_c, 0, 71, 0
2, 100800, Note_on_c, 0, 68, 0
2, 100800, Note_on_c, 0, 62, 0
2, 100800, Note_on_c, 0, 64, 127
2, 100800, Note_on_c, 0, 69, 127
2, 100800, Note_on_c, 0, 72, 127
2, 101040, Note_on_c, 0, 72, 0
2, 101040, Note_on_c, 0, 69, 0
2, 101040, Note_on_c, 0, 64, 0
2, 101040, Note_on_c, 0, 76, 106
2, 101040, Note_on_c, 0, 81, 106
2, 101160, Note_on_c, 0, 81, 0
2, 101160, Note_on_c, 0, 76, 0
2, 101160, Note_on_c, 0, 72, 106
2, 101280, Note_on_c, 0, 72, 0
2, 101280, Note_on_c, 0, 76, 106
2, 101280, Note_on_c, 0, 81, 106
2, 101520, Note_on_c, 0, 81, 0
2, 101520, Note_on_c, 0, 76, 0
2, 101520, Note_on_c, 0, 79, 106
2, 101640, Note_on_c, 0, 79, 0
2, 101640, Note_on_c, 0, 75, 106
2, 101760, Note_on_c, 0, 75, 0
2, 101760, Note_on_c, 0, 79, 106
2, 102000, Note_on_c, 0, 79, 0
2, 102000, Note_on_c, 0, 78, 106
2, 102120, Note_on_c, 0, 78, 0
2, 102120, Note_on_c, 0, 75, 106
2, 102240, Note_on_c, 0, 75, 0
2, 102240, Note_on_c, 0, 78, 106
2, 102480, Note_on_c, 0, 78, 0
2, 102480, Note_on_c, 0, 75, 106
2, 102480, Note_on_c, 0, 80, 106
2, 102720, Note_on_c, 0, 80, 0
2, 102720, Note_on_c, 0, 75, 0
2, 102720, Note_on_c, 0, 85, 127
2, 103440, Note_on_c, 0, 85, 0
2, 103440, Note_on_c, 0, 80, 106
2, 103680, Note_on_c, 0, 80, 0
2, 103680, Note_on_c, 0, 73, 106
2, 103680, Note_on_c, 0, 85, 106
2, 104400, Note_on_c, 0, 85, 0
2, 104400, Note_on_c, 0, 73, 0
2, 104400, Note_on_c, 0, 80, 106
2, 104640, Note_on_c, 0, 80, 0
2, 104640, Note_on_c, 0, 73, 106
2, 104640, Note_on_c, 0, 85, 106
2, 104880, Note_on_c, 0, 85, 0
2, 104880, Note_on_c, 0, 73, 0
2, 104880, Note_on_c, 0, 85, 106
2, 105000, Note_on_c, 0, 85, 0
2, 105000, Note_on_c, 0, 80, 106
2, 105120, Note_on_c, 0, 80, 0
2, 105120, Note_on_c, 0, 85, 106
2, 105360, Note_on_c, 0, 85, 0
2, 105360, Note_on_c, 0, 83, 106
2, 105480, Note_on_c, 0, 83, 0
2, 105480, Note_on_c, 0, 79, 106
2, 105600, Note_on_c, 0, 79, 0
2, 105600, Note_on_c, 0, 83, 106
2, 105840, Note_on_c, 0, 83, 0
2, 105840, Note_on_c, 0, 82, 106
2, 105960, Note_on_c, 0, 82, 0
2, 105960, Note_on_c, 0, 79, 106
2, 106080, Note_on_c, 0, 79, 0
2, 106080, Note_on_c, 0, 82, 106
2, 106320, Note_on_c, 0, 82, 0
2, 106320, Note_on_c, 0, 83, 106
2, 106367, Note_on_c, 0, 83, 0
2, 106560, Note_on_c, 0, 71, 127
2, 106560, Note_on_c, 0, 75, 127
2, 106560, Note_on_c, 0, 80, 127
2, 106800, Note_on_c, 0, 80, 0
2, 106800, Note_on_c, 0, 75, 0
2, 106800, Note_on_c, 0, 71, 0
2, 106800, Note_on_c, 0, 70, 127
2, 106800, Note_on_c, 0, 73, 127
2, 106800, Note_on_c, 0, 79, 127
2, 107040, Note_on_c, 0, 79, 0
2, 107040, Note_on_c, 0, 73, 0
2, 107040, Note_on_c, 0, 70, 0
2, 107040, Note_on_c, 0, 68, 127
2, 107040, Note_on_c, 0, 71, 127
2, 107040, Note_on_c, 0, 77, 127
2, 107280, Note_on_c, 0, 77, 0
2, 107280, Note_on_c, 0, 71, 0
2, 107280, Note_on_c, 0, 68, 0
2, 107280, Note_on_c, 0, 67, 127
2, 107280, Note_on_c, 0, 73, 127
2, 107280, Note_on_c, 0, 75, 127
2, 107520, Note_on_c, 0, 75, 0
2, 107520, Note_on_c, 0, 73, 0
2, 107520, Note_on_c, 0, 67, 0
2, 107520, Note_on_c, 0, 68, 127
2, 107520, Note_on_c, 0, 71, 127
2, 107520, Note_on_c, 0, 77, 127
2, 107760, Note_on_c, 0, 77, 0
2, 107760, Note_on_c, 0, 71, 0
2, 107760, Note_on_c, 0, 68, 0
2, 107760, Note_on_c, 0, 70, 127
2, 107760, Note_on_c, 0, 73, 127
2, 107760, Note_on_c, 0, 79, 127
2, 108000, Note_on_c, 0, 79, 0
2, 108000, Note_on_c, 0, 73, 0
2, 108000, Note_on_c, 0, 70, 0
2, 108000, Note_on_c, 0, 71, 127
2, 108000, Note_on_c, 0, 75, 127
2, 108000, Note_on_c, 0, 80, 127
2, 108240, Note_on_c, 0, 80, 0
2, 108240, Note_on_c, 0, 75, 0
2, 108240, Note_on_c, 0, 71, 0
2, 108240, Note_on_c, 0, 73, 127
2, 108240, Note_on_c, 0, 79, 127
2, 108240, Note_on_c, 0, 82, 127
2, 108480, Note_on_c, 0, 82, 0
2, 108480, Note_on_c, 0, 79, 0
2, 108480, Note_on_c, 0, 73, 0
2, 108480, Note_on_c, 0, 75, 127
2, 108480, Note_on_c, 0, 80, 127
2, 108480, Note_on_c, 0, 83, 127
2, 108720, Note_on_c, 0, 83, 0
2, 108720, Note_on_c, 0, 80, 0
2, 108720, Note_on_c, 0, 75, 0
2, 108720, Note_on_c, 0, 80, 106
2, 108720, Note_on_c, 0, 83, 106
2, 108840, Note_on_c, 0, 83, 0
2, 108840, Note_on_c, 0, 80, 0
2, 108840, Note_on_c, 0, 75, 106
2, 108960, Note_on_c, 0, 75, 0
2, 108960, Note_on_c, 0, 80, 106
2, 108960, Note_on_c, 0, 83, 106
2, 109200, Note_on_c, 0, 83, 0
2, 109200, Note_on_c, 0, 80, 0
2, 109200, Note_on_c, 0, 75, 106
2, 109200, Note_on_c, 0, 82, 106
2, 109320, Note_on_c, 0, 82, 0
2, 109320, Note_on_c, 0, 75, 0
2, 109320, Note_on_c, 0, 73, 106
2, 109440, Note_on_c, 0, 73, 0
2, 109440, Note_on_c, 0, 75, 106
2, 109440, Note_on_c, 0, 82, 106
2, 109680, Note_on_c, 0, 82, 0
2, 109680, Note_on_c, 0, 75, 0
2, 109680, Note_on_c, 0, 75, 106
2, 109680, Note_on_c, 0, 80, 106
2, 109800, Note_on_c, 0, 80, 0
2, 109800, Note_on_c, 0, 75, 0
2, 109800, Note_on_c, 0, 71, 106
2, 109920, Note_on_c, 0, 71, 0
2, 109920, Note_on_c, 0, 75, 106
2, 109920, Note_on_c, 0, 80, 106
2, 110160, Note_on_c, 0, 80, 0
2, 110160, Note_on_c, 0, 75, 0
2, 110160, Note_on_c, 0, 73, 106
2, 110160, Note_on_c, 0, 79, 106
2, 110280, Note_on_c, 0, 79, 0
2, 110280, Note_on_c, 0, 73, 0
2, 110280, Note_on_c, 0, 70, 106
2, 110400, Note_on_c, 0, 70, 0
2, 110400, Note_on_c, 0, 73, 106
2, 110400, Note_on_c, 0, 79, 106
2, 110640, Note_on_c, 0, 79, 0
2, 110640, Note_on_c, 0, 73, 0
2, 110640, Note_on_c, 0, 71, 106
2, 110640, Note_on_c, 0, 76, 106
2, 110760, Note_on_c, 0, 76, 0
2, 110760, Note_on_c, 0, 71, 0
2, 110760, Note_on_c, 0, 68, 106
2, 110880, Note_on_c, 0, 68, 0
2, 110880, Note_on_c, 0, 71, 106
2, 110880, Note_on_c, 0, 76, 106
2, 111120, Note_on_c, 0, 76, 0
2, 111120, Note_on_c, 0, 71, 0
2, 111120, Note_on_c, 0, 71, 106
2, 111120, Note_on_c, 0, 75, 106
2, 111240, Note_on_c, 0, 75, 0
2, 111240, Note_on_c, 0, 71, 0
2, 111240, Note_on_c, 0, 68, 106
2, 111360, Note_on_c, 0, 68, 0
2, 111360, Note_on_c, 0, 71, 106
2, 111360, Note_on_c, 0, 75, 106
2, 111600, Note_on_c, 0, 75, 0
2, 111600, Note_on_c, 0, 71, 0
2, 111600, Note_on_c, 0, 71, 106
2, 111600, Note_on_c, 0, 74, 106
2, 111720, Note_on_c, 0, 74, 0
2, 111720, Note_on_c, 0, 71, 0
2, 111720, Note_on_c, 0, 68, 106
2, 111840, Note_on_c, 0, 68, 0
2, 111840, Note_on_c, 0, 71, 106
2, 111840, Note_on_c, 0, 74, 106
2, 112080, Note_on_c, 0, 74, 0
2, 112080, Note_on_c, 0, 71, 0
2, 112080, Note_on_c, 0, 71, 106
2, 112080, Note_on_c, 0, 75, 106
2, 112200, Note_on_c, 0, 75, 0
2, 112200, Note_on_c, 0, 71, 0
2, 112200, Note_on_c, 0, 68, 106
2, 112320, Note_on_c, 0, 68, 0
2, 112320, Note_on_c, 0, 71, 106
2, 112320, Note_on_c, 0, 75, 106
2, 112500, Note_on_c, 0, 92, 106
2, 112560, Note_on_c, 0, 92, 0
2, 112560, Note_on_c, 0, 75, 0
2, 112560, Note_on_c, 0, 71, 0
2, 112560, Note_on_c, 0, 83, 106
2, 112560, Note_on_c, 0, 95, 106
2, 112980, Note_on_c, 0, 92, 106
2, 113040, Note_on_c, 0, 92, 0
2, 113040, Note_on_c, 0, 95, 0
2, 113040, Note_on_c, 0, 83, 0
2, 113040, Note_on_c, 0, 83, 106
2, 113040, Note_on_c, 0, 95, 106
2, 113460, Note_on_c, 0, 92, 106
2, 113520, Note_on_c, 0, 92, 0
2, 113520, Note_on_c, 0, 95, 0
2, 113520, Note_on_c, 0, 83, 0
2, 113520, Note_on_c, 0, 83, 106
2, 113520, Note_on_c, 0, 95, 106
2, 113940, Note_on_c, 0, 92, 106
2, 114000, Note_on_c, 0, 92, 0
2, 114000, Note_on_c, 0, 95, 0
2, 114000, Note_on_c, 0, 83, 0
2, 114000, Note_on_c, 0, 83, 106
2, 114000, Note_on_c, 0, 95, 106
2, 114480, Note_on_c, 0, 95, 0
2, 114480, Note_on_c, 0, 83, 0
2, 114480, Note_on_c, 0, 75, 106
2, 114720, Note_on_c, 0, 75, 0
2, 114720, Note_on_c, 0, 76, 106
2, 114960, Note_on_c, 0, 76, 0
2, 114960, Note_on_c, 0, 66, 106
2, 114960, Note_on_c, 0, 78, 106
2, 115200, Note_on_c, 0, 78, 0
2, 115200, Note_on_c, 0, 66, 0
2, 115200, Note_on_c, 0, 67, 106
2, 115200, Note_on_c, 0, 79, 106
2, 115440, Note_on_c, 0, 79, 0
2, 115440, Note_on_c, 0, 67, 0
2, 115440, Note_on_c, 0, 68, 106
2, 115440, Note_on_c, 0, 80, 106
2, 115680, Note_on_c, 0, 80, 0
2, 115680, Note_on_c, 0, 68, 0
2, 115680, Note_on_c, 0, 69, 106
2, 115680, Note_on_c, 0, 81, 106
2, 115920, Note_on_c, 0, 81, 0
2, 115920, Note_on_c, 0, 69, 0
2, 115920, Note_on_c, 0, 70, 106
2, 115920, Note_on_c, 0, 82, 106
2, 116160, Note_on_c, 0, 82, 0
2, 116160, Note_on_c, 0, 70, 0
2, 116160, Note_on_c, 0, 71, 106
2, 116160, Note_on_c, 0, 83, 106
2, 116400, Note_on_c, 0, 83, 0
2, 116400, Note_on_c, 0, 71, 0
2, 116400, Note_on_c, 0, 80, 106
2, 116400, Note_on_c, 0, 83, 106
2, 116520, Note_on_c, 0, 83, 0
2, 116520, Note_on_c, 0, 80, 0
2, 116520, Note_on_c, 0, 75, 106
2, 116640, Note_on_c, 0, 75, 0
2, 116640, Note_on_c, 0, 80, 106
2, 116640, Note_on_c, 0, 83, 106
2, 116880, Note_on_c, 0, 83, 0
2, 116880, Note_on_c, 0, 80, 0
2, 116880, Note_on_c, 0, 75, 106
2, 116880, Note_on_c, 0, 82, 106
2, 117000, Note_on_c, 0, 82, 0
2, 117000, Note_on_c, 0, 75, 0
2, 117000, Note_on_c, 0, 73, 106
2, 117120, Note_on_c, 0, 73, 0
2, 117120, Note_on_c, 0, 75, 106
2, 117120, Note_on_c, 0, 82, 106
2, 117360, Note_on_c, 0, 82, 0
2, 117360, Note_on_c, 0, 75, 0
2, 117360, Note_on_c, 0, 75, 106
2, 117360, Note_on_c, 0, 80, 106
2, 117480, Note_on_c, 0, 80, 0
2, 117480, Note_on_c, 0, 75, 0
2, 117480, Note_on_c, 0, 71, 106
2, 117600, Note_on_c, 0, 71, 0
2, 117600, Note_on_c, 0, 75, 106
2, 117600, Note_on_c, 0, 80, 106
2, 117840, Note_on_c, 0, 80, 0
2, 117840, Note_on_c, 0, 75, 0
2, 117840, Note_on_c, 0, 73, 106
2, 117840, Note_on_c, 0, 79, 106
2, 117960, Note_on_c, 0, 79, 0
2, 117960, Note_on_c, 0, 73, 0
2, 117960, Note_on_c, 0, 70, 106
2, 118080, Note_on_c, 0, 70, 0
2, 118080, Note_on_c, 0, 73, 106
2, 118080, Note_on_c, 0, 79, 106
2, 118320, Note_on_c, 0, 79, 0
2, 118320, Note_on_c, 0, 73, 0
2, 118320, Note_on_c, 0, 71, 106
2, 118320, Note_on_c, 0, 76, 106
2, 118440, Note_on_c, 0, 76, 0
2, 118440, Note_on_c, 0, 71, 0
2, 118440, Note_on_c, 0, 68, 106
2, 118560, Note_on_c, 0, 68, 0
2, 118560, Note_on_c, 0, 71, 106
2, 118560, Note_on_c, 0, 76, 106
2, 118800, Note_on_c, 0, 76, 0
2, 118800, Note_on_c, 0, 71, 0
2, 118800, Note_on_c, 0, 71, 106
2, 118800, Note_on_c, 0, 75, 106
2, 118920, Note_on_c, 0, 75, 0
2, 118920, Note_on_c, 0, 71, 0
2, 118920, Note_on_c, 0, 68, 106
2, 119040, Note_on_c, 0, 68, 0
2, 119040, Note_on_c, 0, 71, 106
2, 119040, Note_on_c, 0, 75, 106
2, 119280, Note_on_c, 0, 75, 0
2, 119280, Note_on_c, 0, 71, 0
2, 119280, Note_on_c, 0, 71, 106
2, 119280, Note_on_c, 0, 74, 106
2, 119400, Note_on_c, 0, 74, 0
2, 119400, Note_on_c, 0, 71, 0
2, 119400, Note_on_c, 0, 68, 106
2, 119520, Note_on_c, 0, 68, 0
2, 119520, Note_on_c, 0, 71, 106
2, 119520, Note_on_c, 0, 74, 106
2, 119760, Note_on_c, 0, 74, 0
2, 119760, Note_on_c, 0, 71, 0
2, 119760, Note_on_c, 0, 71, 106
2, 119760, Note_on_c, 0, 75, 106
2, 119880, Note_on_c, 0, 75, 0
2, 119880, Note_on_c, 0, 71, 0
2, 119880, Note_on_c, 0, 68, 106
2, 120000, Note_on_c, 0, 68, 0
2, 120000, Note_on_c, 0, 71, 106
2, 120000, Note_on_c, 0, 75, 106
2, 120180, Note_on_c, 0, 92, 106
2, 120240, Note_on_c, 0, 92, 0
2, 120240, Note_on_c, 0, 75, 0
2, 120240, Note_on_c, 0, 71, 0
2, 120240, Note_on_c, 0, 83, 106
2, 120240, Note_on_c, 0, 95, 106
2, 120660, Note_on_c, 0, 92, 106
2, 120720, Note_on_c, 0, 92, 0
2, 120720, Note_on_c, 0, 95, 0
2, 120720, Note_on_c, 0, 83, 0
2, 120720, Note_on_c, 0, 83, 106
2, 120720, Note_on_c, 0, 95, 106
2, 121140, Note_on_c, 0, 92, 106
2, 121200, Note_on_c, 0, 92, 0
2, 121200, Note_on_c, 0, 95, 0
2, 121200, Note_on_c, 0, 83, 0
2, 121200, Note_on_c, 0, 83, 106
2, 121200, Note_on_c, 0, 95, 106
2, 121620, Note_on_c, 0, 92, 106
2, 121680, Note_on_c, 0, 92, 0
2, 121680, Note_on_c, 0, 95, 0
2, 121680, Note_on_c, 0, 83, 0
2, 121680, Note_on_c, 0, 83, 106
2, 121680, Note_on_c, 0, 95, 106
2, 122160, Note_on_c, 0, 95, 0
2, 122160, Note_on_c, 0, 83, 0
2, 122160, Note_on_c, 0, 75, 106
2, 122400, Note_on_c, 0, 75, 0
2, 122400, Note_on_c, 0, 76, 106
2, 122640, Note_on_c, 0, 76, 0
2, 122640, Note_on_c, 0, 66, 106
2, 122640, Note_on_c, 0, 78, 106
2, 122880, Note_on_c, 0, 78, 0
2, 122880, Note_on_c, 0, 66, 0
2, 122880, Note_on_c, 0, 67, 106
2, 122880, Note_on_c, 0, 79, 106
2, 123120, Note_on_c, 0, 79, 0
2, 123120, Note_on_c, 0, 67, 0
2, 123120, Note_on_c, 0, 68, 106
2, 123120, Note_on_c, 0, 80, 106
2, 123360, Note_on_c, 0, 80, 0
2, 123360, Note_on_c, 0, 68, 0
2, 123360, Note_on_c, 0, 69, 106
2, 123360, Note_on_c, 0, 81, 106
2, 123600, Note_on_c, 0, 81, 0
2, 123600, Note_on_c, 0, 69, 0
2, 123600, Note_on_c, 0, 70, 106
2, 123600, Note_on_c, 0, 82, 106
2, 123840, Note_on_c, 0, 82, 0
2, 123840, Note_on_c, 0, 70, 0
2, 123840, Note_on_c, 0, 71, 106
2, 123840, Note_on_c, 0, 83, 106
2, 124080, Note_on_c, 0, 83, 0
2, 124080, Note_on_c, 0, 71, 0
2, 124080, Note_on_c, 0, 76, 106
2, 124080, Note_on_c, 0, 84, 106
2, 124080, Note_on_c, 0, 88, 106
2, 124560, Note_on_c, 0, 88, 0
2, 124560, Note_on_c, 0, 84, 0
2, 124560, Note_on_c, 0, 76, 0
2, 124560, Note_on_c, 0, 69, 106
2, 124560, Note_on_c, 0, 76, 106
2, 124560, Note_on_c, 0, 81, 106
2, 125040, Note_on_c, 0, 81, 0
2, 125040, Note_on_c, 0, 76, 0
2, 125040, Note_on_c, 0, 69, 0
2, 125040, Note_on_c, 0, 65, 106
2, 125040, Note_on_c, 0, 69, 106
2, 125040, Note_on_c, 0, 77, 106
2, 125520, Note_on_c, 0, 77, 0
2, 125520, Note_on_c, 0, 69, 0
2, 125520, Note_on_c, 0, 65, 0
2, 125520, Note_on_c, 0, 62, 106
2, 125520, Note_on_c, 0, 69, 106
2, 125520, Note_on_c, 0, 74, 106
2, 126000, Note_on_c, 0, 74, 0
2, 126000, Note_on_c, 0, 69, 0
2, 126000, Note_on_c, 0, 62, 0
2, 126720, Note_on_c, 0, 100, 106
2, 126800, Note_on_c, 0, 100, 0
2, 126800, Note_on_c, 0, 105, 106
2, 126879, Note_on_c, 0, 105, 0
2, 126879, Note_on_c, 0, 100, 106
2, 126960, Note_on_c, 0, 100, 0
2, 126960, Note_on_c, 0, 98, 106
2, 127200, Note_on_c, 0, 98, 0
2, 163200, Control_c, 0, 64, 127
2, 163200, Note_on_c, 0, 61, 80
2, 163320, Note_on_c, 0, 61, 0
2, 163320, Note_on_c, 0, 62, 80
2, 163440, Note_on_c, 0, 62, 0
2, 163440, Note_on_c, 0, 61, 80
2, 163560, Note_on_c, 0, 61, 0
2, 163560, Control_c, 0, 64, 0
2, 163560, Note_on_c, 0, 62, 80
2, 163680, Note_on_c, 0, 62, 0
2, 163680, Control_c, 0, 64, 127
2, 163680, Note_on_c, 0, 63, 80
2, 163800, Note_on_c, 0, 63, 0
2, 163800, Note_on_c, 0, 64, 80
2, 163920, Note_on_c, 0, 64, 0
2, 163920, Note_on_c, 0, 63, 80
2, 164040, Note_on_c, 0, 63, 0
2, 164040, Control_c, 0, 64, 0
2, 164040, Note_on_c, 0, 64, 80
2, 164160, Note_on_c, 0, 64, 0
2, 164160, Control_c, 0, 64, 127
2, 164160, Note_on_c, 0, 64, 80
2, 164280, Note_on_c, 0, 64, 0
2, 164280, Note_on_c, 0, 65, 80
2, 164400, Note_on_c, 0, 65, 0
2, 164400, Note_on_c, 0, 64, 80
2, 164520, Note_on_c, 0, 64, 0
2, 164520, Control_c, 0, 64, 0
2, 164520, Note_on_c, 0, 65, 80
2, 164640, Note_on_c, 0, 65, 0
2, 164640, Control_c, 0, 64, 127
2, 164640, Note_on_c, 0, 65, 80
2, 164760, Note_on_c, 0, 65, 0
2, 164760, Note_on_c, 0, 66, 80
2, 164880, Note_on_c, 0, 66, 0
2, 164880, Note_on_c, 0, 65, 80
2, 165000, Note_on_c, 0, 65, 0
2, 165000, Control_c, 0, 64, 0
2, 165000, Note_on_c, 0, 66, 80
2, 165120, Note_on_c, 0, 66, 0
2, 165120, Control_c, 0, 64, 127
2, 165120, Note_on_c, 0, 67, 80
2, 165240, Note_on_c, 0, 67, 0
2, 165240, Note_on_c, 0, 69, 80
2, 165360, Note_on_c, 0, 69, 0
2, 165360, Note_on_c, 0, 67, 80
2, 165480, Note_on_c, 0, 67, 0
2, 165480, Control_c, 0, 64, 0
2, 165480, Note_on_c, 0, 69, 80
2, 165600, Note_on_c, 0, 69, 0
2, 165600, Control_c, 0, 64, 127
2, 165600, Note_on_c, 0, 70, 80
2, 165720, Note_on_c, 0, 70, 0
2, 165720, Note_on_c, 0, 72, 80
2, 165840, Note_on_c, 0, 72, 0
2, 165840, Note_on_c, 0, 70, 80
2, 165960, Note_on_c, 0, 70, 0
2, 165960, Control_c, 0, 64, 0
2, 165960, Note_on_c, 0, 72, 80
2, 166080, Note_on_c, 0, 72, 0
2, 166080, Control_c, 0, 64, 127
2, 166080, Note_on_c, 0, 73, 80
2, 166200, Note_on_c, 0, 73, 0
2, 166200, Note_on_c, 0, 74, 80
2, 166320, Note_on_c, 0, 74, 0
2, 166320, Note_on_c, 0, 73, 80
2, 166440, Note_on_c, 0, 73, 0
2, 166440, Control_c, 0, 64, 0
2, 166440, Note_on_c, 0, 74, 80
2, 166560, Note_on_c, 0, 74, 0
2, 166560, Control_c, 0, 64, 127
2, 166560, Note_on_c, 0, 75, 80
2, 166680, Note_on_c, 0, 75, 0
2, 166680, Note_on_c, 0, 74, 80
2, 166800, Note_on_c, 0, 74, 0
2, 166800, Note_on_c, 0, 73, 80
2, 166920, Note_on_c, 0, 73, 0
2, 166920, Control_c, 0, 64, 0
2, 166920, Note_on_c, 0, 74, 80
2, 167040, Note_on_c, 0, 74, 0
2, 167040, Control_c, 0, 64, 127
2, 167040, Note_on_c, 0, 73, 80
2, 167160, Note_on_c, 0, 73, 0
2, 167160, Note_on_c, 0, 74, 80
2, 167280, Note_on_c, 0, 74, 0
2, 167280, Note_on_c, 0, 73, 80
2, 167400, Note_on_c, 0, 73, 0
2, 167400, Control_c, 0, 64, 0
2, 167400, Note_on_c, 0, 74, 80
2, 167520, Note_on_c, 0, 74, 0
2, 167520, Control_c, 0, 64, 127
2, 167520, Note_on_c, 0, 75, 80
2, 167640, Note_on_c, 0, 75, 0
2, 167640, Note_on_c, 0, 76, 80
2, 167760, Note_on_c, 0, 76, 0
2, 167760, Note_on_c, 0, 75, 80
2, 167880, Note_on_c, 0, 75, 0
2, 167880, Control_c, 0, 64, 0
2, 167880, Note_on_c, 0, 76, 80
2, 168000, Note_on_c, 0, 76, 0
2, 168000, Control_c, 0, 64, 127
2, 168000, Note_on_c, 0, 76, 80
2, 168120, Note_on_c, 0, 76, 0
2, 168120, Note_on_c, 0, 77, 80
2, 168240, Note_on_c, 0, 77, 0
2, 168240, Note_on_c, 0, 76, 80
2, 168360, Note_on_c, 0, 76, 0
2, 168360, Control_c, 0, 64, 0
2, 168360, Note_on_c, 0, 77, 80
2, 168480, Note_on_c, 0, 77, 0
2, 168480, Control_c, 0, 64, 127
2, 168480, Note_on_c, 0, 77, 80
2, 168600, Note_on_c, 0, 77, 0
2, 168600, Note_on_c, 0, 78, 80
2, 168720, Note_on_c, 0, 78, 0
2, 168720, Note_on_c, 0, 77, 80
2, 168840, Note_on_c, 0, 77, 0
2, 168840, Control_c, 0, 64, 0
2, 168840, Note_on_c, 0, 78, 80
2, 168960, Note_on_c, 0, 78, 0
2, 168960, Control_c, 0, 64, 127
2, 168960, Note_on_c, 0, 79, 80
2, 169080, Note_on_c, 0, 79, 0
2, 169080, Note_on_c, 0, 81, 80
2, 169200, Note_on_c, 0, 81, 0
2, 169200, Note_on_c, 0, 79, 80
2, 169320, Note_on_c, 0, 79, 0
2, 169320, Control_c, 0, 64, 0
2, 169320, Note_on_c, 0, 81, 80
2, 169440, Note_on_c, 0, 81, 0
2, 169440, Control_c, 0, 64, 127
2, 169440, Note_on_c, 0, 82, 80
2, 169560, Note_on_c, 0, 82, 0
2, 169560, Note_on_c, 0, 84, 80
2, 169680, Note_on_c, 0, 84, 0
2, 169680, Note_on_c, 0, 82, 80
2, 169800, Note_on_c, 0, 82, 0
2, 169800, Control_c, 0, 64, 0
2, 169800, Note_on_c, 0, 84, 80
2, 169920, Note_on_c, 0, 84, 0
2, 169920, Control_c, 0, 64, 127
2, 169920, Note_on_c, 0, 85, 80
2, 170040, Note_on_c, 0, 85, 0
2, 170040, Note_on_c, 0, 86, 80
2, 170160, Note_on_c, 0, 86, 0
2, 170160, Note_on_c, 0, 85, 80
2, 170280, Note_on_c, 0, 85, 0
2, 170280, Control_c, 0, 64, 0
2, 170280, Note_on_c, 0, 86, 80
2, 170400, Note_on_c, 0, 86, 0
2, 170400, Control_c, 0, 64, 127
2, 170400, Note_on_c, 0, 87, 80
2, 170520, Note_on_c, 0, 87, 0
2, 170520, Note_on_c, 0, 86, 80
2, 170640, Note_on_c, 0, 86, 0
2, 170640, Note_on_c, 0, 85, 80
2, 170760, Note_on_c, 0, 85, 0
2, 170760, Control_c, 0, 64, 0
2, 170760, Note_on_c, 0, 86, 80
2, 170880, Note_on_c, 0, 86, 0
2, 170880, Control_c, 0, 64, 127
2, 170880, Note_on_c, 0, 87, 106
2, 171000, Note_on_c, 0, 87, 0
2, 171000, Note_on_c, 0, 86, 106
2, 171120, Note_on_c, 0, 86, 0
2, 171120, Note_on_c, 0, 84, 106
2, 171240, Note_on_c, 0, 84, 0
2, 171240, Note_on_c, 0, 82, 106
2, 171360, Note_on_c, 0, 82, 0
2, 171360, Control_c, 0, 64, 127
2, 171360, Note_on_c, 0, 81, 106
2, 171480, Note_on_c, 0, 81, 0
2, 171480, Note_on_c, 0, 79, 106
2, 171600, Note_on_c, 0, 79, 0
2, 171600, Note_on_c, 0, 78, 106
2, 171720, Note_on_c, 0, 78, 0
2, 171720, Control_c, 0, 64, 0
2, 171720, Note_on_c, 0, 76, 106
2, 171840, Note_on_c, 0, 76, 0
2, 171840, Control_c, 0, 64, 127
2, 171840, Note_on_c, 0, 78, 106
2, 171960, Note_on_c, 0, 78, 0
2, 171960, Note_on_c, 0, 76, 106
2, 172080, Note_on_c, 0, 76, 0
2, 172080, Note_on_c, 0, 78, 106
2, 172200, Note_on_c, 0, 78, 0
2, 172200, Control_c, 0, 64, 0
2, 172200, Note_on_c, 0, 79, 106
2, 172320, Note_on_c, 0, 79, 0
2, 172320, Control_c, 0, 64, 127
2, 172320, Note_on_c, 0, 81, 106
2, 172440, Note_on_c, 0, 81, 0
2, 172440, Note_on_c, 0, 86, 106
2, 172560, Note_on_c, 0, 86, 0
2, 172560, Note_on_c, 0, 85, 106
2, 172680, Note_on_c, 0, 85, 0
2, 172680, Control_c, 0, 64, 0
2, 172680, Note_on_c, 0, 86, 106
2, 172800, Note_on_c, 0, 86, 0
2, 172800, Control_c, 0, 64, 127
2, 172800, Note_on_c, 0, 87, 106
2, 172920, Note_on_c, 0, 87, 0
2, 172920, Note_on_c, 0, 86, 106
2, 173040, Note_on_c, 0, 86, 0
2, 173040, Note_on_c, 0, 84, 106
2, 173160, Note_on_c, 0, 84, 0
2, 173160, Note_on_c, 0, 82, 106
2, 173280, Note_on_c, 0, 82, 0
2, 173280, Control_c, 0, 64, 127
2, 173280, Note_on_c, 0, 81, 106
2, 173400, Note_on_c, 0, 81, 0
2, 173400, Note_on_c, 0, 79, 106
2, 173520, Note_on_c, 0, 79, 0
2, 173520, Note_on_c, 0, 78, 106
2, 173640, Note_on_c, 0, 78, 0
2, 173640, Control_c, 0, 64, 0
2, 173640, Note_on_c, 0, 76, 106
2, 173760, Note_on_c, 0, 76, 0
2, 173760, Note_on_c, 0, 78, 106
2, 174000, Note_on_c, 0, 78, 0
2, 174000, Note_on_c, 0, 74, 106
2, 174240, Note_on_c, 0, 74, 0
2, 174240, Note_on_c, 0, 75, 106
2, 174480, Note_on_c, 0, 75, 0
2, 174480, Note_on_c, 0, 64, 106
2, 174480, Note_on_c, 0, 76, 106
2, 174720, Note_on_c, 0, 76, 0
2, 174720, Note_on_c, 0, 64, 0
2, 174720, Note_on_c, 0, 65, 106
2, 174720, Note_on_c, 0, 77, 106
2, 174960, Note_on_c, 0, 77, 0
2, 174960, Note_on_c, 0, 65, 0
2, 174960, Note_on_c, 0, 66, 106
2, 174960, Note_on_c, 0, 78, 106
2, 175200, Note_on_c, 0, 78, 0
2, 175200, Note_on_c, 0, 66, 0
2, 175200, Note_on_c, 0, 67, 106
2, 175200, Note_on_c, 0, 79, 106
2, 175440, Note_on_c, 0, 79, 0
2, 175440, Note_on_c, 0, 67, 0
2, 175440, Note_on_c, 0, 69, 106
2, 175440, Note_on_c, 0, 81, 106
2, 175680, Note_on_c, 0, 81, 0
2, 175680, Note_on_c, 0, 69, 0
2, 175680, Note_on_c, 0, 70, 106
2, 175680, Note_on_c, 0, 82, 106
2, 175920, Note_on_c, 0, 82, 0
2, 175920, Note_on_c, 0, 70, 0
2, 175920, Note_on_c, 0, 75, 106
2, 175920, Note_on_c, 0, 83, 106
2, 175920, Note_on_c, 0, 87, 106
2, 176400, Note_on_c, 0, 87, 0
2, 176400, Note_on_c, 0, 83, 0
2, 176400, Note_on_c, 0, 75, 0
2, 176400, Note_on_c, 0, 68, 106
2, 176400, Note_on_c, 0, 75, 106
2, 176400, Note_on_c, 0, 80, 106
2, 176880, Note_on_c, 0, 80, 0
2, 176880, Note_on_c, 0, 75, 0
2, 176880, Note_on_c, 0, 68, 0
2, 176880, Note_on_c, 0, 63, 106
2, 176880, Note_on_c, 0, 68, 106
2, 176880, Note_on_c, 0, 75, 106
2, 177360, Note_on_c, 0, 75, 0
2, 177360, Note_on_c, 0, 68, 0
2, 177360, Note_on_c, 0, 63, 0
2, 177360, Note_on_c, 0, 68, 106
2, 177360, Note_on_c, 0, 71, 106
2, 177840, Note_on_c, 0, 71, 0
2, 177840, Note_on_c, 0, 68, 0
2, 177840, Note_on_c, 0, 63, 106
2, 177840, Note_on_c, 0, 75, 106
2, 178080, Note_on_c, 0, 75, 0
2, 178080, Note_on_c, 0, 63, 0
2, 178080, Note_on_c, 0, 64, 106
2, 178080, Note_on_c, 0, 76, 106
2, 178320, Note_on_c, 0, 76, 0
2, 178320, Note_on_c, 0, 64, 0
2, 178320, Note_on_c, 0, 65, 106
2, 178320, Note_on_c, 0, 77, 106
2, 178560, Note_on_c, 0, 77, 0
2, 178560, Note_on_c, 0, 65, 0
2, 178560, Note_on_c, 0, 66, 106
2, 178560, Note_on_c, 0, 78, 106
2, 178800, Note_on_c, 0, 78, 0
2, 178800, Note_on_c, 0, 66, 0
2, 178800, Note_on_c, 0, 67, 106
2, 178800, Note_on_c, 0, 79, 106
2, 179040, Note_on_c, 0, 79, 0
2, 179040, Note_on_c, 0, 67, 0
2, 179040, Note_on_c, 0, 68, 106
2, 179040, Note_on_c, 0, 80, 106
2, 179280, Note_on_c, 0, 80, 0
2, 179280, Note_on_c, 0, 68, 0
2, 179280, Note_on_c, 0, 70, 106
2, 179280, Note_on_c, 0, 82, 106
2, 179520, Note_on_c, 0, 82, 0
2, 179520, Note_on_c, 0, 70, 0
2, 179520, Note_on_c, 0, 71, 106
2, 179520, Note_on_c, 0, 83, 106
2, 179760, Note_on_c, 0, 83, 0
2, 179760, Note_on_c, 0, 71, 0
2, 179760, Note_on_c, 0, 76, 106
2, 179760, Note_on_c, 0, 84, 106
2, 179760, Note_on_c, 0, 88, 106
2, 180240, Note_on_c, 0, 88, 0
2, 180240, Note_on_c, 0, 84, 0
2, 180240, Note_on_c, 0, 76, 0
2, 180240, Note_on_c, 0, 69, 106
2, 180240, Note_on_c, 0, 76, 106
2, 180240, Note_on_c, 0, 81, 106
2, 180720, Note_on_c, 0, 81, 0
2, 180720, Note_on_c, 0, 76, 0
2, 180720, Note_on_c, 0, 69, 0
2, 180720, Note_on_c, 0, 64, 106
2, 180720, Note_on_c, 0, 69, 106
2, 180720, Note_on_c, 0, 76, 106
2, 181200, Note_on_c, 0, 76, 0
2, 181200, Note_on_c, 0, 69, 0
2, 181200, Note_on_c, 0, 64, 0
2, 181200, Note_on_c, 0, 60, 106
2, 181200, Note_on_c, 0, 69, 106
2, 181200, Note_on_c, 0, 72, 106
2, 181680, Note_on_c, 0, 72, 0
2, 181680, Note_on_c, 0, 69, 0
2, 181680, Note_on_c, 0, 60, 0
2, 181680, Note_on_c, 0, 77, 106
2, 181680, Note_on_c, 0, 85, 106
2, 181680, Note_on_c, 0, 89, 106
2, 182160, Note_on_c, 0, 89, 0
2, 182160, Note_on_c, 0, 85, 0
2, 182160, Note_on_c, 0, 77, 0
2, 182160, Note_on_c, 0, 70, 106
2, 182160, Note_on_c, 0, 77, 106
2, 182160, Note_on_c, 0, 82, 106
2, 182640, Note_on_c, 0, 82, 0
2, 182640, Note_on_c, 0, 77, 0
2, 182640, Note_on_c, 0, 70, 0
2, 182640, Note_on_c, 0, 65, 106
2, 182640, Note_on_c, 0, 70, 106
2, 182640, Note_on_c, 0, 77, 106
2, 183120, Note_on_c, 0, 77, 0
2, 183120, Note_on_c, 0, 70, 0
2, 183120, Note_on_c, 0, 65, 0
2, 183120, Note_on_c, 0, 61, 106
2, 183120, Note_on_c, 0, 70, 106
2, 183120, Note_on_c, 0, 73, 106
2, 183600, Note_on_c, 0, 73, 0
2, 183600, Note_on_c, 0, 70, 0
2, 183600, Note_on_c, 0, 61, 0
2, 183600, Note_on_c, 0, 78, 106
2, 183600, Note_on_c, 0, 86, 106
2, 183600, Note_on_c, 0, 90, 106
2, 184080, Note_on_c, 0, 90, 0
2, 184080, Note_on_c, 0, 86, 0
2, 184080, Note_on_c, 0, 78, 0
2, 184080, Note_on_c, 0, 71, 106
2, 184080, Note_on_c, 0, 78, 106
2, 184080, Note_on_c, 0, 83, 106
2, 184560, Note_on_c, 0, 83, 0
2, 184560, Note_on_c, 0, 78, 0
2, 184560, Note_on_c, 0, 71, 0
2, 184560, Note_on_c, 0, 66, 106
2, 184560, Note_on_c, 0, 71, 106
2, 184560, Note_on_c, 0, 78, 106
2, 185040, Note_on_c, 0, 78, 0
2, 185040, Note_on_c, 0, 71, 0
2, 185040, Note_on_c, 0, 66, 0
2, 185040, Note_on_c, 0, 62, 106
2, 185040, Note_on_c, 0, 71, 106
2, 185040, Note_on_c, 0, 74, 106
2, 185520, Note_on_c, 0, 74, 0
2, 185520, Note_on_c, 0, 71, 0
2, 185520, Note_on_c, 0, 62, 0
2, 185520, Note_on_c, 0, 79, 106
2, 185640, Note_on_c, 0, 79, 0
2, 185640, Note_on_c, 0, 82, 106
2, 185760, Note_on_c, 0, 82, 0
2, 185760, Note_on_c, 0, 83, 106
2, 185880, Note_on_c, 0, 83, 0
2, 185880, Note_on_c, 0, 85, 106
2, 186000, Note_on_c, 0, 85, 0
2, 186000, Note_on_c, 0, 86, 106
2, 186120, Note_on_c, 0, 86, 0
2, 186120, Note_on_c, 0, 89, 106
2, 186240, Note_on_c, 0, 89, 0
2, 186240, Note_on_c, 0, 90, 106
2, 186360, Note_on_c, 0, 90, 0
2, 186360, Note_on_c, 0, 78, 106
2, 186480, Note_on_c, 0, 78, 0
2, 186480, Note_on_c, 0, 79, 106
2, 186600, Note_on_c, 0, 79, 0
2, 186600, Note_on_c, 0, 82, 106
2, 186720, Note_on_c, 0, 82, 0
2, 186720, Note_on_c, 0, 83, 106
2, 186840, Note_on_c, 0, 83, 0
2, 186840, Note_on_c, 0, 85, 106
2, 186960, Note_on_c, 0, 85, 0
2, 186960, Note_on_c, 0, 86, 106
2, 187080, Note_on_c, 0, 86, 0
2, 187080, Note_on_c, 0, 89, 106
2, 187200, Note_on_c, 0, 89, 0
2, 187200, Note_on_c, 0, 90, 106
2, 187320, Note_on_c, 0, 90, 0
2, 187320, Note_on_c, 0, 91, 106
2, 187440, Note_on_c, 0, 91, 0
2, 187440, Note_on_c, 0, 93, 106
2, 187560, Note_on_c, 0, 93, 0
2, 187560, Note_on_c, 0, 91, 106
2, 187680, Note_on_c, 0, 91, 0
2, 187680, Note_on_c, 0, 90, 106
2, 187800, Note_on_c, 0, 90, 0
2, 187800, Note_on_c, 0, 91, 106
2, 187920, Note_on_c, 0, 91, 0
2, 187920, Note_on_c, 0, 93, 106
2, 188040, Note_on_c, 0, 93, 0
2, 188040, Note_on_c, 0, 91, 106
2, 188160, Note_on_c, 0, 91, 0
2, 188160, Note_on_c, 0, 90, 106
2, 188280, Note_on_c, 0, 90, 0
2, 188280, Note_on_c, 0, 91, 106
2, 188400, Note_on_c, 0, 91, 0
2, 188400, Note_on_c, 0, 93, 106
2, 188520, Note_on_c, 0, 93, 0
2, 188520, Note_on_c, 0, 91, 106
2, 188640, Note_on_c, 0, 91, 0
2, 188640, Note_on_c, 0, 90, 106
2, 188760, Note_on_c, 0, 90, 0
2, 188760, Note_on_c, 0, 91, 106
2, 188880, Note_on_c, 0, 91, 0
2, 188880, Note_on_c, 0, 93, 106
2, 189000, Note_on_c, 0, 93, 0
2, 189000, Note_on_c, 0, 91, 106
2, 189120, Note_on_c, 0, 91, 0
2, 189120, Note_on_c, 0, 90, 127
2, 189360, Note_on_c, 0, 90, 0
2, 189360, Note_on_c, 0, 89, 127
2, 189600, Note_on_c, 0, 89, 0
2, 190080, Control_c, 0, 64, 127
2, 190080, Note_on_c, 0, 71, 106
2, 190176, Note_on_c, 0, 71, 0
2, 190176, Note_on_c, 0, 73, 106
2, 190272, Note_on_c, 0, 73, 0
2, 190272, Note_on_c, 0, 74, 106
2, 190367, Note_on_c, 0, 74, 0
2, 190367, Note_on_c, 0, 76, 106
2, 190463, Note_on_c, 0, 76, 0
2, 190463, Note_on_c, 0, 78, 106
2, 190560, Note_on_c, 0, 78, 0
2, 190560, Note_on_c, 0, 79, 106
2, 190640, Note_on_c, 0, 79, 0
2, 190640, Note_on_c, 0, 81, 106
2, 190719, Note_on_c, 0, 81, 0
2, 190719, Note_on_c, 0, 83, 106
2, 190800, Note_on_c, 0, 83, 0
2, 190800, Note_on_c, 0, 85, 106
2, 190880, Note_on_c, 0, 85, 0
2, 190880, Note_on_c, 0, 86, 106
2, 190959, Note_on_c, 0, 86, 0
2, 190959, Note_on_c, 0, 88, 106
2, 191040, Note_on_c, 0, 88, 0
2, 191040, Control_c, 0, 64, 127
2, 191040, Note_on_c, 0, 89, 106
2, 191160, Note_on_c, 0, 89, 0
2, 191160, Note_on_c, 0, 88, 106
2, 191280, Note_on_c, 0, 88, 0
2, 191280, Note_on_c, 0, 86, 106
2, 191400, Note_on_c, 0, 86, 0
2, 191400, Control_c, 0, 64, 0
2, 191400, Note_on_c, 0, 85, 106
2, 191520, Note_on_c, 0, 85, 0
2, 191520, Control_c, 0, 64, 127
2, 191520, Note_on_c, 0, 83, 106
2, 191640, Note_on_c, 0, 83, 0
2, 191640, Note_on_c, 0, 85, 106
2, 191760, Note_on_c, 0, 85, 0
2, 191760, Note_on_c, 0, 86, 106
2, 191880, Note_on_c, 0, 86, 0
2, 191880, Control_c, 0, 64, 0
2, 191880, Note_on_c, 0, 88, 106
2, 192000, Note_on_c, 0, 88, 0
2, 192000, Control_c, 0, 64, 127
2, 192000, Note_on_c, 0, 89, 106
2, 192120, Note_on_c, 0, 89, 0
2, 192120, Note_on_c, 0, 88, 106
2, 192240, Note_on_c, 0, 88, 0
2, 192240, Note_on_c, 0, 86, 106
2, 192360, Note_on_c, 0, 86, 0
2, 192360, Control_c, 0, 64, 0
2, 192360, Note_on_c, 0, 85, 106
2, 192480, Note_on_c, 0, 85, 0
2, 192480, Control_c, 0, 64, 127
2, 192480, Note_on_c, 0, 83, 106
2, 192600, Note_on_c, 0, 83, 0
2, 192600, Note_on_c, 0, 85, 106
2, 192720, Note_on_c, 0, 85, 0
2, 192720, Note_on_c, 0, 86, 106
2, 192840, Note_on_c, 0, 86, 0
2, 192840, Control_c, 0, 64, 0
2, 192840, Note_on_c, 0, 88, 106
2, 192960, Note_on_c, 0, 88, 0
2, 192960, Control_c, 0, 64, 127
2, 192960, Note_on_c, 0, 89, 106
2, 193080, Note_on_c, 0, 89, 0
2, 193080, Note_on_c, 0, 88, 106
2, 193200, Note_on_c, 0, 88, 0
2, 193200, Note_on_c, 0, 86, 106
2, 193320, Note_on_c, 0, 86, 0
2, 193320, Control_c, 0, 64, 0
2, 193320, Note_on_c, 0, 85, 106
2, 193440, Note_on_c, 0, 85, 0
2, 193440, Control_c, 0, 64, 127
2, 193440, Note_on_c, 0, 83, 106
2, 193560, Note_on_c, 0, 83, 0
2, 193560, Note_on_c, 0, 81, 106
2, 193680, Note_on_c, 0, 81, 0
2, 193680, Note_on_c, 0, 80, 106
2, 193800, Note_on_c, 0, 80, 0
2, 193800, Control_c, 0, 64, 0
2, 193800, Note_on_c, 0, 78, 106
2, 193920, Note_on_c, 0, 78, 0
2, 193920, Control_c, 0, 64, 127
2, 193920, Note_on_c, 0, 77, 106
2, 194040, Note_on_c, 0, 77, 0
2, 194040, Note_on_c, 0, 76, 106
2, 194160, Note_on_c, 0, 76, 0
2, 194160, Note_on_c, 0, 74, 106
2, 194280, Note_on_c, 0, 74, 0
2, 194280, Control_c, 0, 64, 0
2, 194280, Note_on_c, 0, 72, 106
2, 194400, Note_on_c, 0, 72, 0
2, 194400, Control_c, 0, 64, 127
2, 194400, Note_on_c, 0, 71, 106
2, 194520, Note_on_c, 0, 71, 0
2, 194520, Note_on_c, 0, 69, 106
2, 194640, Note_on_c, 0, 69, 0
2, 194640, Note_on_c, 0, 68, 106
2, 194760, Note_on_c, 0, 68, 0
2, 194760, Control_c, 0, 64, 0
2, 194760, Note_on_c, 0, 66, 106
2, 194880, Note_on_c, 0, 66, 0
2, 194880, Control_c, 0, 64, 127
2, 194880, Note_on_c, 0, 65, 106
2, 195000, Note_on_c, 0, 65, 0
2, 195000, Note_on_c, 0, 64, 106
2, 195120, Note_on_c, 0, 64, 0
2, 195120, Note_on_c, 0, 62, 106
2, 195240, Note_on_c, 0, 62, 0
2, 195240, Control_c, 0, 64, 0
2, 195240, Note_on_c, 0, 60, 106
2, 195360, Note_on_c, 0, 60, 0
2, 195360, Control_c, 0, 64, 127
2, 195360, Note_on_c, 0, 59, 106
2, 195480, Note_on_c, 0, 59, 0
2, 195480, Note_on_c, 0, 57, 106
2, 195600, Note_on_c, 0, 57, 0
2, 195600, Note_on_c, 0, 56, 106
2, 195720, Note_on_c, 0, 56, 0
2, 195720, Control_c, 0, 64, 0
2, 195720, Note_on_c, 0, 54, 106
2, 195840, Note_on_c, 0, 54, 0
2, 210240, Note_on_c, 0, 60, 67
2, 210240, Note_on_c, 0, 72, 67
2, 211200, Note_on_c, 0, 72, 0
2, 211200, Note_on_c, 0, 60, 0
2, 211200, Note_on_c, 0, 62, 80
2, 211200, Note_on_c, 0, 74, 80
2, 212160, Note_on_c, 0, 74, 0
2, 212160, Note_on_c, 0, 62, 0
2, 212160, Note_on_c, 0, 63, 80
2, 212160, Note_on_c, 0, 72, 80
2, 212160, Note_on_c, 0, 75, 80
2, 213120, Note_on_c, 0, 75, 0
2, 213120, Note_on_c, 0, 72, 0
2, 213120, Note_on_c, 0, 63, 0
2, 213120, Note_on_c, 0, 64, 93
2, 213120, Note_on_c, 0, 72, 93
2, 213120, Note_on_c, 0, 76, 93
2, 214080, Note_on_c, 0, 76, 0
2, 214080, Note_on_c, 0, 72, 0
2, 214080, Note_on_c, 0, 64, 0
2, 214080, Note_on_c, 0, 72, 93
2, 214080, Note_on_c, 0, 76, 93
2, 214080, Note_on_c, 0, 84, 93
2, 215040, Note_on_c, 0, 84, 0
2, 215040, Note_on_c, 0, 76, 0
2, 215040, Note_on_c, 0, 72, 0
2, 215040, Note_on_c, 0, 71, 93
2, 215040, Note_on_c, 0, 83, 93
2, 216000, Note_on_c, 0, 83, 0
2, 216000, Note_on_c, 0, 71, 0
2, 216000, Note_on_c, 0, 69, 80
2, 216000, Note_on_c, 0, 81, 80
2, 216960, Note_on_c, 0, 81, 0
2, 216960, Note_on_c, 0, 69, 0
2, 216960, Note_on_c, 0, 67, 80
2, 216960, Note_on_c, 0, 79, 80
2, 217920, Note_on_c, 0, 79, 0
2, 217920, Note_on_c, 0, 67, 0
2, 217920, Note_on_c, 0, 65, 67
2, 217920, Note_on_c, 0, 77, 67
2, 218880, Note_on_c, 0, 77, 0
2, 218880, Note_on_c, 0, 65, 0
2, 218880, Note_on_c, 0, 64, 67
2, 218880, Note_on_c, 0, 76, 67
2, 219840, Note_on_c, 0, 76, 0
2, 219840, Note_on_c, 0, 64, 0
2, 219840, Control_c, 0, 64, 127
2, 219840, Note_on_c, 0, 62, 67
2, 219840, Note_on_c, 0, 74, 67
2, 220800, Note_on_c, 0, 74, 0
2, 220800, Note_on_c, 0, 62, 0
2, 221280, Control_c, 0, 64, 0
2, 221280, End_track
3, 0, Start_track
3, 0, Title_t, "Grand Piano"
3, 0, Program_c, 0, 0
3, 0, Control_c, 0, 7, 115
3, 0, Control_c, 0, 10, 48
3, 27840, Note_on_c, 0, 76, 75
3, 27960, Note_on_c, 0, 76, 0
3, 27960, Note_on_c, 0, 68, 75
3, 28080, Note_on_c, 0, 68, 0
3, 28080, Note_on_c, 0, 74, 75
3, 28200, Note_on_c, 0, 74, 0
3, 28200, Note_on_c, 0, 68, 75
3, 28320, Note_on_c, 0, 68, 0
3, 28320, Note_on_c, 0, 79, 75
3, 28440, Note_on_c, 0, 79, 0
3, 28440, Note_on_c, 0, 74, 75
3, 28560, Note_on_c, 0, 74, 0
3, 28560, Note_on_c, 0, 77, 75
3, 28680, Note_on_c, 0, 77, 0
3, 28680, Note_on_c, 0, 74, 75
3, 28800, Note_on_c, 0, 74, 0
3, 28800, Note_on_c, 0, 82, 75
3, 28920, Note_on_c, 0, 82, 0
3, 28920, Note_on_c, 0, 74, 75
3, 29040, Note_on_c, 0, 74, 0
3, 29040, Note_on_c, 0, 80, 75
3, 29160, Note_on_c, 0, 80, 0
3, 29160, Note_on_c, 0, 74, 75
3, 29280, Note_on_c, 0, 74, 0
3, 29280, Note_on_c, 0, 87, 75
3, 29400, Note_on_c, 0, 87, 0
3, 29400, Note_on_c, 0, 82, 75
3, 29520, Note_on_c, 0, 82, 0
3, 29520, Note_on_c, 0, 86, 75
3, 29640, Note_on_c, 0, 86, 0
3, 29640, Note_on_c, 0, 82, 75
3, 29760, Note_on_c, 0, 82, 0
3, 29760, Note_on_c, 0, 91, 88
3, 29880, Note_on_c, 0, 91, 0
3, 29880, Note_on_c, 0, 86, 88
3, 30000, Note_on_c, 0, 86, 0
3, 30000, Note_on_c, 0, 89, 88
3, 30120, Note_on_c, 0, 89, 0
3, 30120, Note_on_c, 0, 86, 88
3, 30240, Note_on_c, 0, 86, 0
3, 36480, Control_c, 0, 64, 127
3, 36480, Note_on_c, 0, 47, 62
3, 36600, Note_on_c, 0, 47, 0
3, 36600, Note_on_c, 0, 48, 62
3, 36720, Note_on_c, 0, 48, 0
3, 36720, Note_on_c, 0, 47, 62
3, 36840, Note_on_c, 0, 47, 0
3, 36840, Note_on_c, 0, 48, 62
3, 36960, Note_on_c, 0, 48, 0
3, 36960, Control_c, 0, 64, 0
3, 36960, Note_on_c, 0, 47, 62
3, 37200, Note_on_c, 0, 47, 0
3, 37440, Control_c, 0, 64, 127
3, 37440, Note_on_c, 0, 50, 62
3, 37560, Note_on_c, 0, 50, 0
3, 37560, Note_on_c, 0, 52, 62
3, 37680, Note_on_c, 0, 52, 0
3, 37680, Note_on_c, 0, 50, 62
3, 37800, Note_on_c, 0, 50, 0
3, 37800, Note_on_c, 0, 52, 62
3, 37920, Note_on_c, 0, 52, 0
3, 37920, Control_c, 0, 64, 0
3, 37920, Note_on_c, 0, 50, 62
3, 38160, Note_on_c, 0, 50, 0
3, 38400, Note_on_c, 0, 47, 88
3, 39360, Note_on_c, 0, 47, 0
3, 39360, Note_on_c, 0, 45, 62
3, 39600, Note_on_c, 0, 45, 0
3, 40320, Control_c, 0, 64, 127
3, 40320, Note_on_c, 0, 47, 62
3, 40440, Note_on_c, 0, 47, 0
3, 40440, Note_on_c, 0, 48, 62
3, 40560, Note_on_c, 0, 48, 0
3, 40560, Note_on_c, 0, 47, 62
3, 40680, Note_on_c, 0, 47, 0
3, 40680, Note_on_c, 0, 48, 62
3, 40800, Note_on_c, 0, 48, 0
3, 40800, Control_c, 0, 64, 0
3, 40800, Note_on_c, 0, 47, 62
3, 41040, Note_on_c, 0, 47, 0
3, 41280, Control_c, 0, 64, 127
3, 41280, Note_on_c, 0, 50, 62
3, 41400, Note_on_c, 0, 50, 0
3, 41400, Note_on_c, 0, 52, 62
3, 41520, Note_on_c, 0, 52, 0
3, 41520, Note_on_c, 0, 50, 62
3, 41640, Note_on_c, 0, 50, 0
3, 41640, Note_on_c, 0, 52, 62
3, 41760, Note_on_c, 0, 52, 0
3, 41760, Control_c, 0, 64, 0
3, 41760, Note_on_c, 0, 50, 62
3, 42000, Note_on_c, 0, 50, 0
3, 42240, Note_on_c, 0, 40, 88
3, 43200, Note_on_c, 0, 40, 0
3, 43200, Note_on_c, 0, 38, 62
3, 43440, Note_on_c, 0, 38, 0
3, 44160, Control_c, 0, 64, 127
3, 44160, Note_on_c, 0, 45, 62
3, 44280, Note_on_c, 0, 45, 0
3, 44280, Note_on_c, 0, 47, 62
3, 44400, Note_on_c, 0, 47, 0
3, 44400, Note_on_c, 0, 45, 62
3, 44520, Note_on_c, 0, 45, 0
3, 44520, Control_c, 0, 64, 0
3, 44520, Note_on_c, 0, 47, 62
3, 44640, Note_on_c, 0, 47, 0
3, 44640, Control_c, 0, 64, 127
3, 44640, Note_on_c, 0, 44, 62
3, 44760, Note_on_c, 0, 44, 0
3, 44760, Note_on_c, 0, 45, 62
3, 44880, Note_on_c, 0, 45, 0
3, 44880, Note_on_c, 0, 44, 62
3, 45000, Note_on_c, 0, 44, 0
3, 45000, Control_c, 0, 64, 0
3, 45000, Note_on_c, 0, 47, 62
3, 45120, Note_on_c, 0, 47, 0
3, 45120, Control_c, 0, 64, 127
3, 45120, Note_on_c, 0, 45, 62
3, 45240, Note_on_c, 0, 45, 0
3, 45240, Note_on_c, 0, 47, 62
3, 45360, Note_on_c, 0, 47, 0
3, 45360, Note_on_c, 0, 48, 62
3, 45480, Note_on_c, 0, 48, 0
3, 45480, Note_on_c, 0, 50, 62
3, 45600, Note_on_c, 0, 50, 0
3, 45600, Note_on_c, 0, 48, 62
3, 45720, Note_on_c, 0, 48, 0
3, 45720, Note_on_c, 0, 47, 62
3, 45840, Note_on_c, 0, 47, 0
3, 45840, Note_on_c, 0, 45, 62
3, 45960, Note_on_c, 0, 45, 0
3, 45960, Control_c, 0, 64, 0
3, 45960, Note_on_c, 0, 44, 62
3, 46080, Note_on_c, 0, 44, 0
3, 46080, Control_c, 0, 64, 127
3, 46080, Note_on_c, 0, 45, 62
3, 46200, Note_on_c, 0, 45, 0
3, 46200, Note_on_c, 0, 47, 62
3, 46320, Note_on_c, 0, 47, 0
3, 46320, Note_on_c, 0, 45, 62
3, 46440, Note_on_c, 0, 45, 0
3, 46440, Control_c, 0, 64, 0
3, 46440, Note_on_c, 0, 47, 62
3, 46560, Note_on_c, 0, 47, 0
3, 46560, Control_c, 0, 64, 127
3, 46560, Note_on_c, 0, 44, 62
3, 46680, Note_on_c, 0, 44, 0
3, 46680, Note_on_c, 0, 45, 62
3, 46800, Note_on_c, 0, 45, 0
3, 46800, Note_on_c, 0, 44, 62
3, 46920, Note_on_c, 0, 44, 0
3, 46920, Control_c, 0, 64, 0
3, 46920, Note_on_c, 0, 47, 62
3, 47040, Note_on_c, 0, 47, 0
3, 47040, Control_c, 0, 64, 127
3, 47040, Note_on_c, 0, 45, 62
3, 47160, Note_on_c, 0, 45, 0
3, 47160, Note_on_c, 0, 47, 62
3, 47280, Note_on_c, 0, 47, 0
3, 47280, Note_on_c, 0, 48, 62
3, 47400, Note_on_c, 0, 48, 0
3, 47400, Note_on_c, 0, 50, 62
3, 47520, Note_on_c, 0, 50, 0
3, 47520, Note_on_c, 0, 48, 62
3, 47640, Note_on_c, 0, 48, 0
3, 47640, Note_on_c, 0, 47, 62
3, 47760, Note_on_c, 0, 47, 0
3, 47760, Note_on_c, 0, 45, 62
3, 47880, Note_on_c, 0, 45, 0
3, 47880, Control_c, 0, 64, 0
3, 47880, Note_on_c, 0, 44, 62
3, 48000, Note_on_c, 0, 44, 0
3, 48000, Control_c, 0, 64, 127
3, 48000, Note_on_c, 0, 45, 62
3, 48120, Note_on_c, 0, 45, 0
3, 48120, Note_on_c, 0, 47, 62
3, 48240, Note_on_c, 0, 47, 0
3, 48240, Note_on_c, 0, 45, 62
3, 48360, Note_on_c, 0, 45, 0
3, 48360, Control_c, 0, 64, 0
3, 48360, Note_on_c, 0, 47, 62
3, 48480, Note_on_c, 0, 47, 0
3, 48480, Control_c, 0, 64, 127
3, 48480, Note_on_c, 0, 43, 62
3, 48600, Note_on_c, 0, 43, 0
3, 48600, Note_on_c, 0, 45, 62
3, 48720, Note_on_c, 0, 45, 0
3, 48720, Note_on_c, 0, 43, 62
3, 48840, Note_on_c, 0, 43, 0
3, 48840, Control_c, 0, 64, 0
3, 48840, Note_on_c, 0, 45, 62
3, 48960, Note_on_c, 0, 45, 0
3, 48960, Control_c, 0, 64, 127
3, 48960, Note_on_c, 0, 41, 62
3, 49080, Note_on_c, 0, 41, 0
3, 49080, Note_on_c, 0, 43, 62
3, 49200, Note_on_c, 0, 43, 0
3, 49200, Note_on_c, 0, 41, 62
3, 49320, Note_on_c, 0, 41, 0
3, 49320, Control_c, 0, 64, 0
3, 49320, Note_on_c, 0, 43, 62
3, 49440, Note_on_c, 0, 43, 0
3, 49440, Control_c, 0, 64, 127
3, 49440, Note_on_c, 0, 40, 62
3, 49560, Note_on_c, 0, 40, 0
3, 49560, Note_on_c, 0, 41, 62
3, 49680, Note_on_c, 0, 41, 0
3, 49680, Note_on_c, 0, 40, 62
3, 49800, Note_on_c, 0, 40, 0
3, 49800, Control_c, 0, 64, 0
3, 49800, Note_on_c, 0, 41, 62
3, 49920, Note_on_c, 0, 41, 0
3, 49920, Control_c, 0, 64, 127
3, 49920, Note_on_c, 0, 38, 62
3, 50040, Note_on_c, 0, 38, 0
3, 50040, Note_on_c, 0, 40, 62
3, 50160, Note_on_c, 0, 40, 0
3, 50160, Note_on_c, 0, 38, 62
3, 50280, Note_on_c, 0, 38, 0
3, 50280, Control_c, 0, 64, 0
3, 50280, Note_on_c, 0, 40, 62
3, 50400, Note_on_c, 0, 40, 0
3, 50400, Control_c, 0, 64, 127
3, 50400, Note_on_c, 0, 43, 75
3, 50520, Note_on_c, 0, 43, 0
3, 50520, Note_on_c, 0, 41, 75
3, 50640, Note_on_c, 0, 41, 0
3, 50640, Note_on_c, 0, 40, 75
3, 50760, Note_on_c, 0, 40, 0
3, 50760, Note_on_c, 0, 43, 75
3, 50880, Note_on_c, 0, 43, 0
3, 50880, Control_c, 0, 64, 0
3, 50880, Note_on_c, 0, 41, 75
3, 51120, Note_on_c, 0, 41, 0
3, 51840, Control_c, 0, 64, 127
3, 51840, Note_on_c, 0, 52, 75
3, 51960, Note_on_c, 0, 52, 0
3, 51960, Note_on_c, 0, 53, 75
3, 52080, Note_on_c, 0, 53, 0
3, 52080, Note_on_c, 0, 52, 75
3, 52200, Note_on_c, 0, 52, 0
3, 52200, Note_on_c, 0, 53, 75
3, 52320, Note_on_c, 0, 53, 0
3, 52320, Control_c, 0, 64, 0
3, 52320, Note_on_c, 0, 52, 75
3, 52560, Note_on_c, 0, 52, 0
3, 52800, Control_c, 0, 64, 127
3, 52800, Note_on_c, 0, 55, 75
3, 52920, Note_on_c, 0, 55, 0
3, 52920, Note_on_c, 0, 57, 75
3, 53040, Note_on_c, 0, 57, 0
3, 53040, Note_on_c, 0, 55, 75
3, 53160, Note_on_c, 0, 55, 0
3, 53160, Note_on_c, 0, 57, 75
3, 53280, Note_on_c, 0, 57, 0
3, 53280, Control_c, 0, 64, 0
3, 53280, Note_on_c, 0, 55, 75
3, 53520, Note_on_c, 0, 55, 0
3, 53760, Note_on_c, 0, 52, 101
3, 54720, Note_on_c, 0, 52, 0
3, 54720, Note_on_c, 0, 50, 75
3, 54960, Note_on_c, 0, 50, 0
3, 55680, Control_c, 0, 64, 127
3, 55680, Note_on_c, 0, 52, 75
3, 55800, Note_on_c, 0, 52, 0
3, 55800, Note_on_c, 0, 53, 75
3, 55920, Note_on_c, 0, 53, 0
3, 55920, Note_on_c, 0, 52, 75
3, 56040, Note_on_c, 0, 52, 0
3, 56040, Note_on_c, 0, 53, 75
3, 56160, Note_on_c, 0, 53, 0
3, 56160, Control_c, 0, 64, 0
3, 56160, Note_on_c, 0, 52, 75
3, 56400, Note_on_c, 0, 52, 0
3, 56640, Control_c, 0, 64, 127
3, 56640, Note_on_c, 0, 55, 75
3, 56760, Note_on_c, 0, 55, 0
3, 56760, Note_on_c, 0, 57, 75
3, 56880, Note_on_c, 0, 57, 0
3, 56880, Note_on_c, 0, 55, 75
3, 57000, Note_on_c, 0, 55, 0
3, 57000, Note_on_c, 0, 57, 75
3, 57120, Note_on_c, 0, 57, 0
3, 57120, Control_c, 0, 64, 0
3, 57120, Note_on_c, 0, 55, 75
3, 57360, Note_on_c, 0, 55, 0
3, 57600, Note_on_c, 0, 45, 101
3, 58560, Note_on_c, 0, 45, 0
3, 58560, Note_on_c, 0, 43, 75
3, 58800, Note_on_c, 0, 43, 0
3, 59520, Control_c, 0, 64, 127
3, 59520, Note_on_c, 0, 50, 75
3, 59640, Note_on_c, 0, 50, 0
3, 59640, Note_on_c, 0, 52, 75
3, 59760, Note_on_c, 0, 52, 0
3, 59760, Note_on_c, 0, 50, 75
3, 59880, Note_on_c, 0, 50, 0
3, 59880, Control_c, 0, 64, 0
3, 59880, Note_on_c, 0, 52, 75
3, 60000, Note_on_c, 0, 52, 0
3, 60000, Control_c, 0, 64, 127
3, 60000, Note_on_c, 0, 49, 75
3, 60120, Note_on_c, 0, 49, 0
3, 60120, Note_on_c, 0, 50, 75
3, 60240, Note_on_c, 0, 50, 0
3, 60240, Note_on_c, 0, 49, 75
3, 60360, Note_on_c, 0, 49, 0
3, 60360, Control_c, 0, 64, 0
3, 60360, Note_on_c, 0, 52, 75
3, 60480, Note_on_c, 0, 52, 0
3, 60480, Control_c, 0, 64, 127
3, 60480, Note_on_c, 0, 50, 75
3, 60600, Note_on_c, 0, 50, 0
3, 60600, Note_on_c, 0, 52, 75
3, 60720, Note_on_c, 0, 52, 0
3, 60720, Note_on_c, 0, 53, 75
3, 60840, Note_on_c, 0, 53, 0
3, 60840, Note_on_c, 0, 55, 75
3, 60960, Note_on_c, 0, 55, 0
3, 60960, Note_on_c, 0, 53, 75
3, 61080, Note_on_c, 0, 53, 0
3, 61080, Note_on_c, 0, 52, 75
3, 61200, Note_on_c, 0, 52, 0
3, 61200, Note_on_c, 0, 50, 75
3, 61320, Note_on_c, 0, 50, 0
3, 61320, Control_c, 0, 64, 0
3, 61320, Note_on_c, 0, 49, 75
3, 61440, Note_on_c, 0, 49, 0
3, 61440, Control_c, 0, 64, 127
3, 61440, Note_on_c, 0, 50, 75
3, 61560, Note_on_c, 0, 50, 0
3, 61560, Note_on_c, 0, 52, 75
3, 61680, Note_on_c, 0, 52, 0
3, 61680, Note_on_c, 0, 50, 75
3, 61800, Note_on_c, 0, 50, 0
3, 61800, Control_c, 0, 64, 0
3, 61800, Note_on_c, 0, 52, 75
3, 61920, Note_on_c, 0, 52, 0
3, 61920, Control_c, 0, 64, 127
3, 61920, Note_on_c, 0, 49, 75
3, 62040, Note_on_c, 0, 49, 0
3, 62040, Note_on_c, 0, 50, 75
3, 62160, Note_on_c, 0, 50, 0
3, 62160, Note_on_c, 0, 49, 75
3, 62280, Note_on_c, 0, 49, 0
3, 62280, Control_c, 0, 64, 0
3, 62280, Note_on_c, 0, 52, 75
3, 62400, Note_on_c, 0, 52, 0
3, 62400, Control_c, 0, 64, 127
3, 62400, Note_on_c, 0, 50, 75
3, 62520, Note_on_c, 0, 50, 0
3, 62520, Note_on_c, 0, 52, 75
3, 62640, Note_on_c, 0, 52, 0
3, 62640, Note_on_c, 0, 53, 75
3, 62760, Note_on_c, 0, 53, 0
3, 62760, Note_on_c, 0, 55, 75
3, 62880, Note_on_c, 0, 55, 0
3, 62880, Note_on_c, 0, 53, 75
3, 63000, Note_on_c, 0, 53, 0
3, 63000, Note_on_c, 0, 52, 75
3, 63120, Note_on_c, 0, 52, 0
3, 63120, Note_on_c, 0, 50, 75
3, 63240, Note_on_c, 0, 50, 0
3, 63240, Control_c, 0, 64, 0
3, 63240, Note_on_c, 0, 49, 75
3, 63360, Note_on_c, 0, 49, 0
3, 63360, Control_c, 0, 64, 127
3, 63360, Note_on_c, 0, 50, 75
3, 63480, Note_on_c, 0, 50, 0
3, 63480, Note_on_c, 0, 52, 75
3, 63600, Note_on_c, 0, 52, 0
3, 63600, Note_on_c, 0, 50, 75
3, 63720, Note_on_c, 0, 50, 0
3, 63720, Control_c, 0, 64, 0
3, 63720, Note_on_c, 0, 52, 75
3, 63840, Note_on_c, 0, 52, 0
3, 63840, Control_c, 0, 64, 127
3, 63840, Note_on_c, 0, 48, 75
3, 63960, Note_on_c, 0, 48, 0
3, 63960, Note_on_c, 0, 50, 75
3, 64080, Note_on_c, 0, 50, 0
3, 64080, Note_on_c, 0, 48, 75
3, 64200, Note_on_c, 0, 48, 0
3, 64200, Control_c, 0, 64, 0
3, 64200, Note_on_c, 0, 50, 75
3, 64320, Note_on_c, 0, 50, 0
3, 64320, Control_c, 0, 64, 127
3, 64320, Note_on_c, 0, 46, 75
3, 64440, Note_on_c, 0, 46, 0
3, 64440, Note_on_c, 0, 48, 75
3, 64560, Note_on_c, 0, 48, 0
3, 64560, Note_on_c, 0, 46, 75
3, 64680, Note_on_c, 0, 46, 0
3, 64680, Control_c, 0, 64, 0
3, 64680, Note_on_c, 0, 48, 75
3, 64800, Note_on_c, 0, 48, 0
3, 64800, Control_c, 0, 64, 127
3, 64800, Note_on_c, 0, 45, 75
3, 64920, Note_on_c, 0, 45, 0
3, 64920, Note_on_c, 0, 46, 75
3, 65040, Note_on_c, 0, 46, 0
3, 65040, Note_on_c, 0, 45, 75
3, 65160, Note_on_c, 0, 45, 0
3, 65160, Control_c, 0, 64, 0
3, 65160, Note_on_c, 0, 46, 75
3, 65280, Note_on_c, 0, 46, 0
3, 65280, Control_c, 0, 64, 127
3, 65280, Note_on_c, 0, 43, 75
3, 65400, Note_on_c, 0, 43, 0
3, 65400, Note_on_c, 0, 45, 75
3, 65520, Note_on_c, 0, 45, 0
3, 65520, Note_on_c, 0, 43, 75
3, 65640, Note_on_c, 0, 43, 0
3, 65640, Control_c, 0, 64, 0
3, 65640, Note_on_c, 0, 45, 75
3, 65760, Note_on_c, 0, 45, 0
3, 65760, Control_c, 0, 64, 127
3, 65760, Note_on_c, 0, 48, 75
3, 65880, Note_on_c, 0, 48, 0
3, 65880, Note_on_c, 0, 46, 75
3, 66000, Note_on_c, 0, 46, 0
3, 66000, Note_on_c, 0, 45, 75
3, 66120, Note_on_c, 0, 45, 0
3, 66120, Note_on_c, 0, 48, 75
3, 66240, Note_on_c, 0, 48, 0
3, 66240, Control_c, 0, 64, 0
3, 66240, Note_on_c, 0, 46, 75
3, 66480, Note_on_c, 0, 46, 0
3, 66720, Control_c, 0, 64, 127
3, 66720, Note_on_c, 0, 43, 75
3, 66840, Note_on_c, 0, 43, 0
3, 66840, Note_on_c, 0, 45, 75
3, 66960, Note_on_c, 0, 45, 0
3, 66960, Note_on_c, 0, 46, 75
3, 67080, Note_on_c, 0, 46, 0
3, 67080, Control_c, 0, 64, 0
3, 67080, Note_on_c, 0, 48, 75
3, 67200, Note_on_c, 0, 48, 0
3, 67200, Control_c, 0, 64, 127
3, 67200, Note_on_c, 0, 49, 88
3, 67320, Note_on_c, 0, 49, 0
3, 67320, Note_on_c, 0, 50, 88
3, 67440, Note_on_c, 0, 50, 0
3, 67440, Note_on_c, 0, 49, 88
3, 67560, Note_on_c, 0, 49, 0
3, 67560, Control_c, 0, 64, 0
3, 67560, Note_on_c, 0, 50, 88
3, 67680, Note_on_c, 0, 50, 0
3, 67680, Control_c, 0, 64, 127
3, 67680, Note_on_c, 0, 51, 88
3, 67800, Note_on_c, 0, 51, 0
3, 67800, Note_on_c, 0, 52, 88
3, 67920, Note_on_c, 0, 52, 0
3, 67920, Note_on_c, 0, 51, 88
3, 68040, Note_on_c, 0, 51, 0
3, 68040, Control_c, 0, 64, 0
3, 68040, Note_on_c, 0, 52, 88
3, 68160, Note_on_c, 0, 52, 0
3, 68160, Control_c, 0, 64, 127
3, 68160, Note_on_c, 0, 52, 88
3, 68280, Note_on_c, 0, 52, 0
3, 68280, Note_on_c, 0, 53, 88
3, 68400, Note_on_c, 0, 53, 0
3, 68400, Note_on_c, 0, 52, 88
3, 68520, Note_on_c, 0, 52, 0
3, 68520, Control_c, 0, 64, 0
3, 68520, Note_on_c, 0, 53, 88
3, 68640, Note_on_c, 0, 53, 0
3, 68640, Control_c, 0, 64, 127
3, 68640, Note_on_c, 0, 53, 88
3, 68760, Note_on_c, 0, 53, 0
3, 68760, Note_on_c, 0, 54, 88
3, 68880, Note_on_c, 0, 54, 0
3, 68880, Note_on_c, 0, 53, 88
3, 69000, Note_on_c, 0, 53, 0
3, 69000, Control_c, 0, 64, 0
3, 69000, Note_on_c, 0, 54, 88
3, 69120, Note_on_c, 0, 54, 0
3, 69120, Control_c, 0, 64, 127
3, 69120, Note_on_c, 0, 55, 88
3, 69240, Note_on_c, 0, 55, 0
3, 69240, Note_on_c, 0, 57, 88
3, 69360, Note_on_c, 0, 57, 0
3, 69360, Note_on_c, 0, 55, 88
3, 69480, Note_on_c, 0, 55, 0
3, 69480, Control_c, 0, 64, 0
3, 69480, Note_on_c, 0, 57, 88
3, 69600, Note_on_c, 0, 57, 0
3, 69600, Control_c, 0, 64, 127
3, 69600, Note_on_c, 0, 58, 88
3, 69720, Note_on_c, 0, 58, 0
3, 69720, Note_on_c, 0, 60, 88
3, 69840, Note_on_c, 0, 60, 0
3, 69840, Note_on_c, 0, 58, 88
3, 69960, Note_on_c, 0, 58, 0
3, 69960, Control_c, 0, 64, 0
3, 69960, Note_on_c, 0, 60, 88
3, 70080, Note_on_c, 0, 60, 0
3, 70080, Control_c, 0, 64, 127
3, 70080, Note_on_c, 0, 61, 88
3, 70200, Note_on_c, 0, 61, 0
3, 70200, Note_on_c, 0, 62, 88
3, 70320, Note_on_c, 0, 62, 0
3, 70320, Note_on_c, 0, 61, 88
3, 70440, Note_on_c, 0, 61, 0
3, 70440, Control_c, 0, 64, 0
3, 70440, Note_on_c, 0, 62, 88
3, 70560, Note_on_c, 0, 62, 0
3, 70560, Control_c, 0, 64, 127
3, 70560, Note_on_c, 0, 63, 88
3, 70680, Note_on_c, 0, 63, 0
3, 70680, Note_on_c, 0, 62, 88
3, 70800, Note_on_c, 0, 62, 0
3, 70800, Note_on_c, 0, 61, 88
3, 70920, Note_on_c, 0, 61, 0
3, 70920, Control_c, 0, 64, 0
3, 70920, Note_on_c, 0, 62, 88
3, 71040, Note_on_c, 0, 62, 0
3, 102720, Note_on_c, 0, 73, 114
3, 102720, Note_on_c, 0, 76, 114
3, 102960, Note_on_c, 0, 76, 0
3, 102960, Note_on_c, 0, 73, 0
3, 102960, Note_on_c, 0, 75, 114
3, 103200, Note_on_c, 0, 75, 0
3, 103200, Note_on_c, 0, 73, 114
3, 103440, Note_on_c, 0, 73, 0
3, 103440, Note_on_c, 0, 80, 88
3, 103680, Note_on_c, 0, 80, 0
3, 128640, Control_c, 0, 64, 127
3, 128640, Note_on_c, 0, 47, 62
3, 128760, Note_on_c, 0, 47, 0
3, 128760, Note_on_c, 0, 48, 62
3, 128880, Note_on_c, 0, 48, 0
3, 128880, Note_on_c, 0, 47, 62
3, 129000, Note_on_c, 0, 47, 0
3, 129000, Note_on_c, 0, 48, 62
3, 129120, Note_on_c, 0, 48, 0
3, 129120, Control_c, 0, 64, 0
3, 129120, Note_on_c, 0, 47, 62
3, 129360, Note_on_c, 0, 47, 0
3, 129600, Control_c, 0, 64, 127
3, 129600, Note_on_c, 0, 50, 62
3, 129720, Note_on_c, 0, 50, 0
3, 129720, Note_on_c, 0, 52, 62
3, 129840, Note_on_c, 0, 52, 0
3, 129840, Note_on_c, 0, 50, 62
3, 129960, Note_on_c, 0, 50, 0
3, 129960, Note_on_c, 0, 52, 62
3, 130080, Note_on_c, 0, 52, 0
3, 130080, Control_c, 0, 64, 0
3, 130080, Note_on_c, 0, 50, 62
3, 130320, Note_on_c, 0, 50, 0
3, 130560, Note_on_c, 0, 47, 88
3, 131520, Note_on_c, 0, 47, 0
3, 131520, Note_on_c, 0, 45, 62
3, 131760, Note_on_c, 0, 45, 0
3, 132480, Control_c, 0, 64, 127
3, 132480, Note_on_c, 0, 47, 62
3, 132600, Note_on_c, 0, 47, 0
3, 132600, Note_on_c, 0, 48, 62
3, 132720, Note_on_c, 0, 48, 0
3, 132720, Note_on_c, 0, 47, 62
3, 132840, Note_on_c, 0, 47, 0
3, 132840, Note_on_c, 0, 48, 62
3, 132960, Note_on_c, 0, 48, 0
3, 132960, Control_c, 0, 64, 0
3, 132960, Note_on_c, 0, 47, 62
3, 133200, Note_on_c, 0, 47, 0
3, 133440, Control_c, 0, 64, 127
3, 133440, Note_on_c, 0, 50, 62
3, 133560, Note_on_c, 0, 50, 0
3, 133560, Note_on_c, 0, 52, 62
3, 133680, Note_on_c, 0, 52, 0
3, 133680, Note_on_c, 0, 50, 62
3, 133800, Note_on_c, 0, 50, 0
3, 133800, Note_on_c, 0, 52, 62
3, 133920, Note_on_c, 0, 52, 0
3, 133920, Control_c, 0, 64, 0
3, 133920, Note_on_c, 0, 50, 62
3, 134160, Note_on_c, 0, 50, 0
3, 134400, Note_on_c, 0, 40, 88
3, 135360, Note_on_c, 0, 40, 0
3, 135360, Note_on_c, 0, 38, 62
3, 135600, Note_on_c, 0, 38, 0
3, 136320, Control_c, 0, 64, 127
3, 136320, Note_on_c, 0, 45, 62
3, 136440, Note_on_c, 0, 45, 0
3, 136440, Note_on_c, 0, 47, 62
3, 136560, Note_on_c, 0, 47, 0
3, 136560, Note_on_c, 0, 45, 62
3, 136680, Note_on_c, 0, 45, 0
3, 136680, Control_c, 0, 64, 0
3, 136680, Note_on_c, 0, 47, 62
3, 136800, Note_on_c, 0, 47, 0
3, 136800, Control_c, 0, 64, 127
3, 136800, Note_on_c, 0, 44, 62
3, 136920, Note_on_c, 0, 44, 0
3, 136920, Note_on_c, 0, 45, 62
3, 137040, Note_on_c, 0, 45, 0
3, 137040, Note_on_c, 0, 44, 62
3, 137160, Note_on_c, 0, 44, 0
3, 137160, Control_c, 0, 64, 0
3, 137160, Note_on_c, 0, 47, 62
3, 137280, Note_on_c, 0, 47, 0
3, 137280, Control_c, 0, 64, 127
3, 137280, Note_on_c, 0, 45, 62
3, 137400, Note_on_c, 0, 45, 0
3, 137400, Note_on_c, 0, 47, 62
3, 137520, Note_on_c, 0, 47, 0
3, 137520, Note_on_c, 0, 48, 62
3, 137640, Note_on_c, 0, 48, 0
3, 137640, Note_on_c, 0, 50, 62
3, 137760, Note_on_c, 0, 50, 0
3, 137760, Note_on_c, 0, 48, 62
3, 137880, Note_on_c, 0, 48, 0
3, 137880, Note_on_c, 0, 47, 62
3, 138000, Note_on_c, 0, 47, 0
3, 138000, Note_on_c, 0, 45, 62
3, 138120, Note_on_c, 0, 45, 0
3, 138120, Control_c, 0, 64, 0
3, 138120, Note_on_c, 0, 44, 62
3, 138240, Note_on_c, 0, 44, 0
3, 138240, Control_c, 0, 64, 127
3, 138240, Note_on_c, 0, 45, 62
3, 138360, Note_on_c, 0, 45, 0
3, 138360, Note_on_c, 0, 47, 62
3, 138480, Note_on_c, 0, 47, 0
3, 138480, Note_on_c, 0, 45, 62
3, 138600, Note_on_c, 0, 45, 0
3, 138600, Control_c, 0, 64, 0
3, 138600, Note_on_c, 0, 47, 62
3, 138720, Note_on_c, 0, 47, 0
3, 138720, Control_c, 0, 64, 127
3, 138720, Note_on_c, 0, 44, 62
3, 138840, Note_on_c, 0, 44, 0
3, 138840, Note_on_c, 0, 45, 62
3, 138960, Note_on_c, 0, 45, 0
3, 138960, Note_on_c, 0, 44, 62
3, 139080, Note_on_c, 0, 44, 0
3, 139080, Control_c, 0, 64, 0
3, 139080, Note_on_c, 0, 47, 62
3, 139200, Note_on_c, 0, 47, 0
3, 139200, Control_c, 0, 64, 127
3, 139200, Note_on_c, 0, 45, 62
3, 139320, Note_on_c, 0, 45, 0
3, 139320, Note_on_c, 0, 47, 62
3, 139440, Note_on_c, 0, 47, 0
3, 139440, Note_on_c, 0, 48, 62
3, 139560, Note_on_c, 0, 48, 0
3, 139560, Note_on_c, 0, 50, 62
3, 139680, Note_on_c, 0, 50, 0
3, 139680, Note_on_c, 0, 48, 62
3, 139800, Note_on_c, 0, 48, 0
3, 139800, Note_on_c, 0, 47, 62
3, 139920, Note_on_c, 0, 47, 0
3, 139920, Note_on_c, 0, 45, 62
3, 140040, Note_on_c, 0, 45, 0
3, 140040, Control_c, 0, 64, 0
3, 140040, Note_on_c, 0, 44, 62
3, 140160, Note_on_c, 0, 44, 0
3, 140160, Control_c, 0, 64, 127
3, 140160, Note_on_c, 0, 45, 62
3, 140280, Note_on_c, 0, 45, 0
3, 140280, Note_on_c, 0, 47, 62
3, 140400, Note_on_c, 0, 47, 0
3, 140400, Note_on_c, 0, 45, 62
3, 140520, Note_on_c, 0, 45, 0
3, 140520, Control_c, 0, 64, 0
3, 140520, Note_on_c, 0, 47, 62
3, 140640, Note_on_c, 0, 47, 0
3, 140640, Control_c, 0, 64, 127
3, 140640, Note_on_c, 0, 43, 62
3, 140760, Note_on_c, 0, 43, 0
3, 140760, Note_on_c, 0, 45, 62
3, 140880, Note_on_c, 0, 45, 0
3, 140880, Note_on_c, 0, 43, 62
3, 141000, Note_on_c, 0, 43, 0
3, 141000, Control_c, 0, 64, 0
3, 141000, Note_on_c, 0, 45, 62
3, 141120, Note_on_c, 0, 45, 0
3, 141120, Control_c, 0, 64, 127
3, 141120, Note_on_c, 0, 41, 62
3, 141240, Note_on_c, 0, 41, 0
3, 141240, Note_on_c, 0, 43, 62
3, 141360, Note_on_c, 0, 43, 0
3, 141360, Note_on_c, 0, 41, 62
3, 141480, Note_on_c, 0, 41, 0
3, 141480, Control_c, 0, 64, 0
3, 141480, Note_on_c, 0, 43, 62
3, 141600, Note_on_c, 0, 43, 0
3, 141600, Control_c, 0, 64, 127
3, 141600, Note_on_c, 0, 40, 62
3, 141720, Note_on_c, 0, 40, 0
3, 141720, Note_on_c, 0, 41, 62
3, 141840, Note_on_c, 0, 41, 0
3, 141840, Note_on_c, 0, 40, 62
3, 141960, Note_on_c, 0, 40, 0
3, 141960, Control_c, 0, 64, 0
3, 141960, Note_on_c, 0, 41, 62
3, 142080, Note_on_c, 0, 41, 0
3, 142080, Control_c, 0, 64, 127
3, 142080, Note_on_c, 0, 38, 62
3, 142200, Note_on_c, 0, 38, 0
3, 142200, Note_on_c, 0, 40, 62
3, 142320, Note_on_c, 0, 40, 0
3, 142320, Note_on_c, 0, 38, 62
3, 142440, Note_on_c, 0, 38, 0
3, 142440, Control_c, 0, 64, 0
3, 142440, Note_on_c, 0, 40, 62
3, 142560, Note_on_c, 0, 40, 0
3, 142560, Control_c, 0, 64, 127
3, 142560, Note_on_c, 0, 43, 75
3, 142680, Note_on_c, 0, 43, 0
3, 142680, Note_on_c, 0, 41, 75
3, 142800, Note_on_c, 0, 41, 0
3, 142800, Note_on_c, 0, 40, 75
3, 142920, Note_on_c, 0, 40, 0
3, 142920, Note_on_c, 0, 43, 75
3, 143040, Note_on_c, 0, 43, 0
3, 143040, Control_c, 0, 64, 0
3, 143040, Note_on_c, 0, 41, 75
3, 143280, Note_on_c, 0, 41, 0
3, 144000, Control_c, 0, 64, 127
3, 144000, Note_on_c, 0, 52, 75
3, 144120, Note_on_c, 0, 52, 0
3, 144120, Note_on_c, 0, 53, 75
3, 144240, Note_on_c, 0, 53, 0
3, 144240, Note_on_c, 0, 52, 75
3, 144360, Note_on_c, 0, 52, 0
3, 144360, Note_on_c, 0, 53, 75
3, 144480, Note_on_c, 0, 53, 0
3, 144480, Control_c, 0, 64, 0
3, 144480, Note_on_c, 0, 52, 75
3, 144720, Note_on_c, 0, 52, 0
3, 144960, Control_c, 0, 64, 127
3, 144960, Note_on_c, 0, 55, 75
3, 145080, Note_on_c, 0, 55, 0
3, 145080, Note_on_c, 0, 57, 75
3, 145200, Note_on_c, 0, 57, 0
3, 145200, Note_on_c, 0, 55, 75
3, 145320, Note_on_c, 0, 55, 0
3, 145320, Note_on_c, 0, 57, 75
3, 145440, Note_on_c, 0, 57, 0
3, 145440, Control_c, 0, 64, 0
3, 145440, Note_on_c, 0, 55, 75
3, 145680, Note_on_c, 0, 55, 0
3, 145920, Note_on_c, 0, 52, 101
3, 146880, Note_on_c, 0, 52, 0
3, 146880, Note_on_c, 0, 50, 75
3, 147120, Note_on_c, 0, 50, 0
3, 147840, Control_c, 0, 64, 127
3, 147840, Note_on_c, 0, 52, 75
3, 147960, Note_on_c, 0, 52, 0
3, 147960, Note_on_c, 0, 53, 75
3, 148080, Note_on_c, 0, 53, 0
3, 148080, Note_on_c, 0, 52, 75
3, 148200, Note_on_c, 0, 52, 0
3, 148200, Note_on_c, 0, 53, 75
3, 148320, Note_on_c, 0, 53, 0
3, 148320, Control_c, 0, 64, 0
3, 148320, Note_on_c, 0, 52, 75
3, 148560, Note_on_c, 0, 52, 0
3, 148800, Control_c, 0, 64, 127
3, 148800, Note_on_c, 0, 55, 75
3, 148920, Note_on_c, 0, 55, 0
3, 148920, Note_on_c, 0, 57, 75
3, 149040, Note_on_c, 0, 57, 0
3, 149040, Note_on_c, 0, 55, 75
3, 149160, Note_on_c, 0, 55, 0
3, 149160, Note_on_c, 0, 57, 75
3, 149280, Note_on_c, 0, 57, 0
3, 149280, Control_c, 0, 64, 0
3, 149280, Note_on_c, 0, 55, 75
3, 149520, Note_on_c, 0, 55, 0
3, 149760, Note_on_c, 0, 45, 101
3, 150720, Note_on_c, 0, 45, 0
3, 150720, Note_on_c, 0, 43, 75
3, 150960, Note_on_c, 0, 43, 0
3, 151680, Control_c, 0, 64, 127
3, 151680, Note_on_c, 0, 50, 75
3, 151800, Note_on_c, 0, 50, 0
3, 151800, Note_on_c, 0, 52, 75
3, 151920, Note_on_c, 0, 52, 0
3, 151920, Note_on_c, 0, 50, 75
3, 152040, Note_on_c, 0, 50, 0
3, 152040, Control_c, 0, 64, 0
3, 152040, Note_on_c, 0, 52, 75
3, 152160, Note_on_c, 0, 52, 0
3, 152160, Control_c, 0, 64, 127
3, 152160, Note_on_c, 0, 49, 75
3, 152280, Note_on_c, 0, 49, 0
3, 152280, Note_on_c, 0, 50, 75
3, 152400, Note_on_c, 0, 50, 0
3, 152400, Note_on_c, 0, 49, 75
3, 152520, Note_on_c, 0, 49, 0
3, 152520, Control_c, 0, 64, 0
3, 152520, Note_on_c, 0, 52, 75
3, 152640, Note_on_c, 0, 52, 0
3, 152640, Control_c, 0, 64, 127
3, 152640, Note_on_c, 0, 50, 75
3, 152760, Note_on_c, 0, 50, 0
3, 152760, Note_on_c, 0, 52, 75
3, 152880, Note_on_c, 0, 52, 0
3, 152880, Note_on_c, 0, 53, 75
3, 153000, Note_on_c, 0, 53, 0
3, 153000, Note_on_c, 0, 55, 75
3, 153120, Note_on_c, 0, 55, 0
3, 153120, Note_on_c, 0, 53, 75
3, 153240, Note_on_c, 0, 53, 0
3, 153240, Note_on_c, 0, 52, 75
3, 153360, Note_on_c, 0, 52, 0
3, 153360, Note_on_c, 0, 50, 75
3, 153480, Note_on_c, 0, 50, 0
3, 153480, Control_c, 0, 64, 0
3, 153480, Note_on_c, 0, 49, 75
3, 153600, Note_on_c, 0, 49, 0
3, 153600, Control_c, 0, 64, 127
3, 153600, Note_on_c, 0, 50, 75
3, 153720, Note_on_c, 0, 50, 0
3, 153720, Note_on_c, 0, 52, 75
3, 153840, Note_on_c, 0, 52, 0
3, 153840, Note_on_c, 0, 50, 75
3, 153960, Note_on_c, 0, 50, 0
3, 153960, Control_c, 0, 64, 0
3, 153960, Note_on_c, 0, 52, 75
3, 154080, Note_on_c, 0, 52, 0
3, 154080, Control_c, 0, 64, 127
3, 154080, Note_on_c, 0, 49, 75
3, 154200, Note_on_c, 0, 49, 0
3, 154200, Note_on_c, 0, 50, 75
3, 154320, Note_on_c, 0, 50, 0
3, 154320, Note_on_c, 0, 49, 75
3, 154440, Note_on_c, 0, 49, 0
3, 154440, Control_c, 0, 64, 0
3, 154440, Note_on_c, 0, 52, 75
3, 154560, Note_on_c, 0, 52, 0
3, 154560, Control_c, 0, 64, 127
3, 154560, Note_on_c, 0, 50, 75
3, 154680, Note_on_c, 0, 50, 0
3, 154680, Note_on_c, 0, 52, 75
3, 154800, Note_on_c, 0, 52, 0
3, 154800, Note_on_c, 0, 53, 75
3, 154920, Note_on_c, 0, 53, 0
3, 154920, Note_on_c, 0, 55, 75
3, 155040, Note_on_c, 0, 55, 0
3, 155040, Note_on_c, 0, 53, 75
3, 155160, Note_on_c, 0, 53, 0
3, 155160, Note_on_c, 0, 52, 75
3, 155280, Note_on_c, 0, 52, 0
3, 155280, Note_on_c, 0, 50, 75
3, 155400, Note_on_c, 0, 50, 0
3, 155400, Control_c, 0, 64, 0
3, 155400, Note_on_c, 0, 49, 75
3, 155520, Note_on_c, 0, 49, 0
3, 155520, Control_c, 0, 64, 127
3, 155520, Note_on_c, 0, 50, 75
3, 155640, Note_on_c, 0, 50, 0
3, 155640, Note_on_c, 0, 52, 75
3, 155760, Note_on_c, 0, 52, 0
3, 155760, Note_on_c, 0, 50, 75
3, 155880, Note_on_c, 0, 50, 0
3, 155880, Control_c, 0, 64, 0
3, 155880, Note_on_c, 0, 52, 75
3, 156000, Note_on_c, 0, 52, 0
3, 156000, Control_c, 0, 64, 127
3, 156000, Note_on_c, 0, 48, 75
3, 156120, Note_on_c, 0, 48, 0
3, 156120, Note_on_c, 0, 50, 75
3, 156240, Note_on_c, 0, 50, 0
3, 156240, Note_on_c, 0, 48, 75
3, 156360, Note_on_c, 0, 48, 0
3, 156360, Control_c, 0, 64, 0
3, 156360, Note_on_c, 0, 50, 75
3, 156480, Note_on_c, 0, 50, 0
3, 156480, Control_c, 0, 64, 127
3, 156480, Note_on_c, 0, 46, 75
3, 156600, Note_on_c, 0, 46, 0
3, 156600, Note_on_c, 0, 48, 75
3, 156720, Note_on_c, 0, 48, 0
3, 156720, Note_on_c, 0, 46, 75
3, 156840, Note_on_c, 0, 46, 0
3, 156840, Control_c, 0, 64, 0
3, 156840, Note_on_c, 0, 48, 75
3, 156960, Note_on_c, 0, 48, 0
3, 156960, Control_c, 0, 64, 127
3, 156960, Note_on_c, 0, 45, 75
3, 157080, Note_on_c, 0, 45, 0
3, 157080, Note_on_c, 0, 46, 75
3, 157200, Note_on_c, 0, 46, 0
3, 157200, Note_on_c, 0, 45, 75
3, 157320, Note_on_c, 0, 45, 0
3, 157320, Control_c, 0, 64, 0
3, 157320, Note_on_c, 0, 46, 75
3, 157440, Note_on_c, 0, 46, 0
3, 157440, Control_c, 0, 64, 127
3, 157440, Note_on_c, 0, 43, 75
3, 157560, Note_on_c, 0, 43, 0
3, 157560, Note_on_c, 0, 45, 75
3, 157680, Note_on_c, 0, 45, 0
3, 157680, Note_on_c, 0, 43, 75
3, 157800, Note_on_c, 0, 43, 0
3, 157800, Control_c, 0, 64, 0
3, 157800, Note_on_c, 0, 45, 75
3, 157920, Note_on_c, 0, 45, 0
3, 157920, Control_c, 0, 64, 127
3, 157920, Note_on_c, 0, 48, 75
3, 158040, Note_on_c, 0, 48, 0
3, 158040, Note_on_c, 0, 46, 75
3, 158160, Note_on_c, 0, 46, 0
3, 158160, Note_on_c, 0, 45, 75
3, 158280, Note_on_c, 0, 45, 0
3, 158280, Note_on_c, 0, 48, 75
3, 158400, Note_on_c, 0, 48, 0
3, 158400, Control_c, 0, 64, 0
3, 158400, Note_on_c, 0, 46, 75
3, 158640, Note_on_c, 0, 46, 0
3, 158880, Control_c, 0, 64, 127
3, 158880, Note_on_c, 0, 43, 75
3, 159000, Note_on_c, 0, 43, 0
3, 159000, Note_on_c, 0, 45, 75
3, 159120, Note_on_c, 0, 45, 0
3, 159120, Note_on_c, 0, 46, 75
3, 159240, Note_on_c, 0, 46, 0
3, 159240, Control_c, 0, 64, 0
3, 159240, Note_on_c, 0, 48, 75
3, 159360, Note_on_c, 0, 48, 0
3, 159360, Control_c, 0, 64, 127
3, 159360, Note_on_c, 0, 49, 88
3, 159480, Note_on_c, 0, 49, 0
3, 159480, Note_on_c, 0, 50, 88
3, 159600, Note_on_c, 0, 50, 0
3, 159600, Note_on_c, 0, 49, 88
3, 159720, Note_on_c, 0, 49, 0
3, 159720, Control_c, 0, 64, 0
3, 159720, Note_on_c, 0, 50, 88
3, 159840, Note_on_c, 0, 50, 0
3, 159840, Control_c, 0, 64, 127
3, 159840, Note_on_c, 0, 51, 88
3, 159960, Note_on_c, 0, 51, 0
3, 159960, Note_on_c, 0, 52, 88
3, 160080, Note_on_c, 0, 52, 0
3, 160080, Note_on_c, 0, 51, 88
3, 160200, Note_on_c, 0, 51, 0
3, 160200, Control_c, 0, 64, 0
3, 160200, Note_on_c, 0, 52, 88
3, 160320, Note_on_c, 0, 52, 0
3, 160320, Control_c, 0, 64, 127
3, 160320, Note_on_c, 0, 52, 88
3, 160440, Note_on_c, 0, 52, 0
3, 160440, Note_on_c, 0, 53, 88
3, 160560, Note_on_c, 0, 53, 0
3, 160560, Note_on_c, 0, 52, 88
3, 160680, Note_on_c, 0, 52, 0
3, 160680, Control_c, 0, 64, 0
3, 160680, Note_on_c, 0, 53, 88
3, 160800, Note_on_c, 0, 53, 0
3, 160800, Control_c, 0, 64, 127
3, 160800, Note_on_c, 0, 53, 88
3, 160920, Note_on_c, 0, 53, 0
3, 160920, Note_on_c, 0, 54, 88
3, 161040, Note_on_c, 0, 54, 0
3, 161040, Note_on_c, 0, 53, 88
3, 161160, Note_on_c, 0, 53, 0
3, 161160, Control_c, 0, 64, 0
3, 161160, Note_on_c, 0, 54, 88
3, 161280, Note_on_c, 0, 54, 0
3, 161280, Control_c, 0, 64, 127
3, 161280, Note_on_c, 0, 55, 88
3, 161400, Note_on_c, 0, 55, 0
3, 161400, Note_on_c, 0, 57, 88
3, 161520, Note_on_c, 0, 57, 0
3, 161520, Note_on_c, 0, 55, 88
3, 161640, Note_on_c, 0, 55, 0
3, 161640, Control_c, 0, 64, 0
3, 161640, Note_on_c, 0, 57, 88
3, 161760, Note_on_c, 0, 57, 0
3, 161760, Control_c, 0, 64, 127
3, 161760, Note_on_c, 0, 58, 88
3, 161880, Note_on_c, 0, 58, 0
3, 161880, Note_on_c, 0, 60, 88
3, 162000, Note_on_c, 0, 60, 0
3, 162000, Note_on_c, 0, 58, 88
3, 162120, Note_on_c, 0, 58, 0
3, 162120, Control_c, 0, 64, 0
3, 162120, Note_on_c, 0, 60, 88
3, 162240, Note_on_c, 0, 60, 0
3, 162240, Control_c, 0, 64, 127
3, 162240, Note_on_c, 0, 61, 88
3, 162360, Note_on_c, 0, 61, 0
3, 162360, Note_on_c, 0, 62, 88
3, 162480, Note_on_c, 0, 62, 0
3, 162480, Note_on_c, 0, 61, 88
3, 162600, Note_on_c, 0, 61, 0
3, 162600, Control_c, 0, 64, 0
3, 162600, Note_on_c, 0, 62, 88
3, 162720, Note_on_c, 0, 62, 0
3, 162720, Control_c, 0, 64, 127
3, 162720, Note_on_c, 0, 63, 88
3, 162840, Note_on_c, 0, 63, 0
3, 162840, Note_on_c, 0, 62, 88
3, 162960, Note_on_c, 0, 62, 0
3, 162960, Note_on_c, 0, 61, 88
3, 163080, Note_on_c, 0, 61, 0
3, 163080, Control_c, 0, 64, 0
3, 163080, Note_on_c, 0, 62, 88
3, 163200, Note_on_c, 0, 62, 0
3, 195840, Control_c, 0, 64, 127
3, 195840, Note_on_c, 0, 53, 88
3, 195960, Note_on_c, 0, 53, 0
3, 195960, Note_on_c, 0, 52, 88
3, 196080, Note_on_c, 0, 52, 0
3, 196080, Note_on_c, 0, 53, 88
3, 196200, Note_on_c, 0, 53, 0
3, 196200, Control_c, 0, 64, 0
3, 196200, Note_on_c, 0, 52, 88
3, 196320, Note_on_c, 0, 52, 0
3, 196320, Control_c, 0, 64, 127
3, 196320, Note_on_c, 0, 53, 88
3, 196440, Note_on_c, 0, 53, 0
3, 196440, Note_on_c, 0, 52, 88
3, 196560, Note_on_c, 0, 52, 0
3, 196560, Note_on_c, 0, 53, 88
3, 196680, Note_on_c, 0, 53, 0
3, 196680, Control_c, 0, 64, 0
3, 196680, Note_on_c, 0, 52, 88
3, 196800, Note_on_c, 0, 52, 0
3, 196800, Control_c, 0, 64, 127
3, 196800, Note_on_c, 0, 53, 88
3, 196920, Note_on_c, 0, 53, 0
3, 196920, Note_on_c, 0, 52, 88
3, 197040, Note_on_c, 0, 52, 0
3, 197040, Note_on_c, 0, 53, 88
3, 197160, Note_on_c, 0, 53, 0
3, 197160, Control_c, 0, 64, 0
3, 197160, Note_on_c, 0, 52, 88
3, 197280, Note_on_c, 0, 52, 0
3, 197280, Control_c, 0, 64, 127
3, 197280, Note_on_c, 0, 53, 88
3, 197400, Note_on_c, 0, 53, 0
3, 197400, Note_on_c, 0, 52, 88
3, 197520, Note_on_c, 0, 52, 0
3, 197520, Note_on_c, 0, 53, 88
3, 197640, Note_on_c, 0, 53, 0
3, 197640, Control_c, 0, 64, 0
3, 197640, Note_on_c, 0, 52, 88
3, 197760, Note_on_c, 0, 52, 0
3, 197760, Note_on_c, 0, 50, 88
3, 197760, Note_on_c, 0, 53, 88
3, 197919, Note_on_c, 0, 53, 0
3, 197919, Note_on_c, 0, 50, 0
3, 197919, Note_on_c, 0, 48, 88
3, 197919, Note_on_c, 0, 52, 88
3, 198080, Note_on_c, 0, 52, 0
3, 198080, Note_on_c, 0, 48, 0
3, 198080, Note_on_c, 0, 50, 88
3, 198080, Note_on_c, 0, 53, 88
3, 198112, Note_on_c, 0, 53, 0
3, 198112, Note_on_c, 0, 50, 0
3, 198240, Note_on_c, 0, 48, 88
3, 198240, Note_on_c, 0, 52, 88
3, 198399, Note_on_c, 0, 52, 0
3, 198399, Note_on_c, 0, 48, 0
3, 198399, Note_on_c, 0, 50, 88
3, 198399, Note_on_c, 0, 53, 88
3, 198560, Note_on_c, 0, 53, 0
3, 198560, Note_on_c, 0, 50, 0
3, 198560, Note_on_c, 0, 48, 88
3, 198560, Note_on_c, 0, 52, 88
3, 198592, Note_on_c, 0, 52, 0
3, 198592, Note_on_c, 0, 48, 0
3, 199680, Note_on_c, 0, 50, 75
3, 199680, Note_on_c, 0, 53, 75
3, 199839, Note_on_c, 0, 53, 0
3, 199839, Note_on_c, 0, 50, 0
3, 199839, Note_on_c, 0, 48, 75
3, 199839, Note_on_c, 0, 52, 75
3, 200000, Note_on_c, 0, 52, 0
3, 200000, Note_on_c, 0, 48, 0
3, 200000, Note_on_c, 0, 50, 75
3, 200000, Note_on_c, 0, 53, 75
3, 200032, Note_on_c, 0, 53, 0
3, 200032, Note_on_c, 0, 50, 0
3, 200160, Note_on_c, 0, 48, 75
3, 200160, Note_on_c, 0, 52, 75
3, 200319, Note_on_c, 0, 52, 0
3, 200319, Note_on_c, 0, 48, 0
3, 200319, Note_on_c, 0, 50, 75
3, 200319, Note_on_c, 0, 53, 75
3, 200480, Note_on_c, 0, 53, 0
3, 200480, Note_on_c, 0, 50, 0
3, 200480, Note_on_c, 0, 48, 75
3, 200480, Note_on_c, 0, 52, 75
3, 200512, Note_on_c, 0, 52, 0
3, 200512, Note_on_c, 0, 48, 0
3, 201600, Note_on_c, 0, 50, 75
3, 201600, Note_on_c, 0, 53, 75
3, 201647, Note_on_c, 0, 53, 0
3, 201647, Note_on_c, 0, 50, 0
3, 201840, Note_on_c, 0, 48, 75
3, 201840, Note_on_c, 0, 52, 75
3, 201887, Note_on_c, 0, 52, 0
3, 201887, Note_on_c, 0, 48, 0
3, 202080, Note_on_c, 0, 50, 75
3, 202080, Note_on_c, 0, 53, 75
3, 202127, Note_on_c, 0, 53, 0
3, 202127, Note_on_c, 0, 50, 0
3, 202320, Note_on_c, 0, 48, 75
3, 202320, Note_on_c, 0, 52, 75
3, 202367, Note_on_c, 0, 52, 0
3, 202367, Note_on_c, 0, 48, 0
3, 203520, Note_on_c, 0, 50, 62
3, 203520, Note_on_c, 0, 53, 62
3, 203567, Note_on_c, 0, 53, 0
3, 203567, Note_on_c, 0, 50, 0
3, 203760, Note_on_c, 0, 48, 62
3, 203760, Note_on_c, 0, 52, 62
3, 203807, Note_on_c, 0, 52, 0
3, 203807, Note_on_c, 0, 48, 0
3, 204000, Note_on_c, 0, 50, 62
3, 204000, Note_on_c, 0, 53, 62
3, 204047, Note_on_c, 0, 53, 0
3, 204047, Note_on_c, 0, 50, 0
3, 204240, Note_on_c, 0, 48, 62
3, 204240, Note_on_c, 0, 52, 62
3, 204287, Note_on_c, 0, 52, 0
3, 204287, Note_on_c, 0, 48, 0
3, 205440, Note_on_c, 0, 45, 75
3, 205440, Note_on_c, 0, 48, 75
3, 205440, Note_on_c, 0, 52, 75
3, 205920, Note_on_c, 0, 52, 0
3, 205920, Note_on_c, 0, 48, 0
3, 205920, Note_on_c, 0, 45, 0
3, 205920, Note_on_c, 0, 45, 75
3, 205920, Note_on_c, 0, 48, 75
3, 205920, Note_on_c, 0, 52, 75
3, 206400, Note_on_c, 0, 52, 0
3, 206400, Note_on_c, 0, 48, 0
3, 206400, Note_on_c, 0, 45, 0
3, 207360, Note_on_c, 0, 45, 75
3, 207360, Note_on_c, 0, 48, 75
3, 207360, Note_on_c, 0, 52, 75
3, 207840, Note_on_c, 0, 52, 0
3, 207840, Note_on_c, 0, 48, 0
3, 207840, Note_on_c, 0, 45, 0
3, 207840, Note_on_c, 0, 45, 75
3, 207840, Note_on_c, 0, 48, 75
3, 207840, Note_on_c, 0, 52, 75
3, 208320, Note_on_c, 0, 52, 0
3, 208320, Note_on_c, 0, 48, 0
3, 208320, Note_on_c, 0, 45, 0
3, 215040, Note_on_c, 0, 76, 75
3, 216960, Note_on_c, 0, 76, 0
3, 216960, Note_on_c, 0, 69, 62
3, 218880, Note_on_c, 0, 69, 0
3, 218880, Note_on_c, 0, 67, 49
3, 220800, Note_on_c, 0, 67, 0
3, 220800, End_track
4, 0, Start_track
4, 0, Title_t, "Grand Piano"
4, 0, Program_c, 0, 0
4, 0, Control_c, 0, 7, 115
4, 0, Control_c, 0, 10, 41
4, 480, Note_on_c, 0, 64, 91
4, 1920, Note_on_c, 0, 64, 0
4, 1920, Note_on_c, 0, 62, 91
4, 2280, Note_on_c, 0, 62, 0
4, 2280, Note_on_c, 0, 62, 91
4, 2400, Note_on_c, 0, 62, 0
4, 2400, Note_on_c, 0, 61, 91
4, 3360, Note_on_c, 0, 61, 0
4, 3360, Note_on_c, 0, 60, 91
4, 3600, Note_on_c, 0, 60, 0
4, 3600, Note_on_c, 0, 61, 91
4, 3840, Note_on_c, 0, 61, 0
4, 3840, Note_on_c, 0, 62, 91
4, 4080, Note_on_c, 0, 62, 0
4, 4080, Note_on_c, 0, 61, 91
4, 5280, Note_on_c, 0, 61, 0
4, 5280, Note_on_c, 0, 60, 91
4, 5520, Note_on_c, 0, 60, 0
4, 5520, Note_on_c, 0, 61, 91
4, 5760, Note_on_c, 0, 61, 0
4, 5760, Note_on_c, 0, 62, 91
4, 6000, Note_on_c, 0, 62, 0
4, 6000, Note_on_c, 0, 61, 91
4, 6720, Note_on_c, 0, 61, 0
4, 6720, Note_on_c, 0, 60, 91
4, 6960, Note_on_c, 0, 60, 0
4, 6960, Note_on_c, 0, 61, 91
4, 7680, Note_on_c, 0, 61, 0
4, 7680, Note_on_c, 0, 60, 91
4, 7920, Note_on_c, 0, 60, 0
4, 7920, Note_on_c, 0, 61, 91
4, 8640, Note_on_c, 0, 61, 0
4, 8640, Note_on_c, 0, 59, 91
4, 8880, Note_on_c, 0, 59, 0
4, 8880, Note_on_c, 0, 60, 91
4, 9600, Note_on_c, 0, 60, 0
4, 9600, Note_on_c, 0, 58, 91
4, 9840, Note_on_c, 0, 58, 0
4, 9840, Note_on_c, 0, 59, 91
4, 10560, Note_on_c, 0, 59, 0
4, 10560, Note_on_c, 0, 57, 104
4, 10800, Note_on_c, 0, 57, 0
4, 10800, Note_on_c, 0, 58, 104
4, 11520, Note_on_c, 0, 58, 0
4, 11520, Note_on_c, 0, 58, 91
4, 11760, Note_on_c, 0, 58, 0
4, 11760, Note_on_c, 0, 59, 91
4, 12000, Note_on_c, 0, 59, 0
4, 12960, Note_on_c, 0, 58, 91
4, 13440, Note_on_c, 0, 58, 0
4, 13440, Note_on_c, 0, 59, 65
4, 13680, Note_on_c, 0, 59, 0
4, 13680, Note_on_c, 0, 52, 52
4, 13680, Note_on_c, 0, 55, 52
4, 13727, Note_on_c, 0, 55, 0
4, 13727, Note_on_c, 0, 52, 0
4, 13920, Note_on_c, 0, 52, 52
4, 13920, Note_on_c, 0, 55, 52
4, 13967, Note_on_c, 0, 55, 0
4, 13967, Note_on_c, 0, 52, 0
4, 14160, Note_on_c, 0, 52, 52
4, 14160, Note_on_c, 0, 55, 52
4, 14207, Note_on_c, 0, 55, 0
4, 14207, Note_on_c, 0, 52, 0
4, 14400, Note_on_c, 0, 52, 52
4, 14400, Note_on_c, 0, 55, 52
4, 14447, Note_on_c, 0, 55, 0
4, 14447, Note_on_c, 0, 52, 0
4, 14640, Note_on_c, 0, 52, 52
4, 14640, Note_on_c, 0, 55, 52
4, 14687, Note_on_c, 0, 55, 0
4, 14687, Note_on_c, 0, 52, 0
4, 14880, Note_on_c, 0, 45, 52
4, 14880, Note_on_c, 0, 52, 52
4, 14880, Note_on_c, 0, 57, 52
4, 14927, Note_on_c, 0, 57, 0
4, 14927, Note_on_c, 0, 52, 0
4, 14927, Note_on_c, 0, 45, 0
4, 15120, Note_on_c, 0, 45, 52
4, 15120, Note_on_c, 0, 52, 52
4, 15120, Note_on_c, 0, 57, 52
4, 15167, Note_on_c, 0, 57, 0
4, 15167, Note_on_c, 0, 52, 0
4, 15167, Note_on_c, 0, 45, 0
4, 15360, Note_on_c, 0, 52, 52
4, 15360, Note_on_c, 0, 55, 52
4, 15407, Note_on_c, 0, 55, 0
4, 15407, Note_on_c, 0, 52, 0
4, 16800, Note_on_c, 0, 58, 65
4, 17280, Note_on_c, 0, 58, 0
4, 17280, Note_on_c, 0, 59, 65
4, 17520, Note_on_c, 0, 59, 0
4, 17520, Note_on_c, 0, 52, 52
4, 17520, Note_on_c, 0, 55, 52
4, 17567, Note_on_c, 0, 55, 0
4, 17567, Note_on_c, 0, 52, 0
4, 17760, Note_on_c, 0, 52, 52
4, 17760, Note_on_c, 0, 55, 52
4, 17807, Note_on_c, 0, 55, 0
4, 17807, Note_on_c, 0, 52, 0
4, 18000, Note_on_c, 0, 52, 52
4, 18000, Note_on_c, 0, 55, 52
4, 18047, Note_on_c, 0, 55, 0
4, 18047, Note_on_c, 0, 52, 0
4, 18240, Note_on_c, 0, 52, 52
4, 18240, Note_on_c, 0, 55, 52
4, 18287, Note_on_c, 0, 55, 0
4, 18287, Note_on_c, 0, 52, 0
4, 18480, Note_on_c, 0, 52, 52
4, 18480, Note_on_c, 0, 55, 52
4, 18527, Note_on_c, 0, 55, 0
4, 18527, Note_on_c, 0, 52, 0
4, 18720, Note_on_c, 0, 45, 65
4, 18720, Note_on_c, 0, 52, 65
4, 18720, Note_on_c, 0, 57, 65
4, 18767, Note_on_c, 0, 57, 0
4, 18767, Note_on_c, 0, 52, 0
4, 18767, Note_on_c, 0, 45, 0
4, 18960, Note_on_c, 0, 45, 65
4, 18960, Note_on_c, 0, 52, 65
4, 18960, Note_on_c, 0, 57, 65
4, 19007, Note_on_c, 0, 57, 0
4, 19007, Note_on_c, 0, 52, 0
4, 19007, Note_on_c, 0, 45, 0
4, 19200, Note_on_c, 0, 52, 65
4, 19200, Note_on_c, 0, 55, 65
4, 19247, Note_on_c, 0, 55, 0
4, 19247, Note_on_c, 0, 52, 0
4, 20400, Note_on_c, 0, 52, 65
4, 20400, Note_on_c, 0, 55, 65
4, 20520, Note_on_c, 0, 55, 0
4, 20520, Note_on_c, 0, 52, 0
4, 20520, Note_on_c, 0, 58, 65
4, 20640, Note_on_c, 0, 58, 0
4, 20640, Note_on_c, 0, 52, 65
4, 20640, Note_on_c, 0, 55, 65
4, 20880, Note_on_c, 0, 55, 0
4, 20880, Note_on_c, 0, 52, 0
4, 20880, Note_on_c, 0, 52, 65
4, 20880, Note_on_c, 0, 55, 65
4, 21000, Note_on_c, 0, 55, 0
4, 21000, Note_on_c, 0, 52, 0
4, 21000, Note_on_c, 0, 58, 65
4, 21120, Note_on_c, 0, 58, 0
4, 21120, Note_on_c, 0, 52, 65
4, 21120, Note_on_c, 0, 55, 65
4, 21360, Note_on_c, 0, 55, 0
4, 21360, Note_on_c, 0, 52, 0
4, 21360, Note_on_c, 0, 48, 65
4, 21360, Note_on_c, 0, 52, 65
4, 21360, Note_on_c, 0, 55, 65
4, 21600, Note_on_c, 0, 55, 0
4, 21600, Note_on_c, 0, 52, 0
4, 21600, Note_on_c, 0, 48, 0
4, 21600, Note_on_c, 0, 53, 65
4, 21600, Note_on_c, 0, 57, 65
4, 22320, Note_on_c, 0, 57, 0
4, 22320, Note_on_c, 0, 53, 0
4, 22320, Note_on_c, 0, 54, 65
4, 22320, Note_on_c, 0, 57, 65
4, 22440, Note_on_c, 0, 57, 0
4, 22440, Note_on_c, 0, 54, 0
4, 22440, Note_on_c, 0, 60, 65
4, 22560, Note_on_c, 0, 60, 0
4, 22560, Note_on_c, 0, 54, 65
4, 22560, Note_on_c, 0, 57, 65
4, 22800, Note_on_c, 0, 57, 0
4, 22800, Note_on_c, 0, 54, 0
4, 22800, Note_on_c, 0, 54, 65
4, 22800, Note_on_c, 0, 57, 65
4, 22920, Note_on_c, 0, 57, 0
4, 22920, Note_on_c, 0, 54, 0
4, 22920, Note_on_c, 0, 60, 65
4, 23040, Note_on_c, 0, 60, 0
4, 23040, Note_on_c, 0, 54, 65
4, 23040, Note_on_c, 0, 57, 65
4, 23280, Note_on_c, 0, 57, 0
4, 23280, Note_on_c, 0, 54, 0
4, 23280, Note_on_c, 0, 50, 65
4, 23280, Note_on_c, 0, 54, 65
4, 23280, Note_on_c, 0, 57, 65
4, 23520, Note_on_c, 0, 57, 0
4, 23520, Note_on_c, 0, 54, 0
4, 23520, Note_on_c, 0, 50, 0
4, 23520, Note_on_c, 0, 55, 65
4, 23520, Note_on_c, 0, 58, 65
4, 24240, Note_on_c, 0, 58, 0
4, 24240, Note_on_c, 0, 55, 0
4, 24240, Note_on_c, 0, 56, 65
4, 24240, Note_on_c, 0, 58, 65
4, 24360, Note_on_c, 0, 58, 0
4, 24360, Note_on_c, 0, 56, 0
4, 24360, Note_on_c, 0, 62, 65
4, 24480, Note_on_c, 0, 62, 0
4, 24480, Note_on_c, 0, 56, 65
4, 24480, Note_on_c, 0, 58, 65
4, 24720, Note_on_c, 0, 58, 0
4, 24720, Note_on_c, 0, 56, 0
4, 24720, Note_on_c, 0, 56, 65
4, 24720, Note_on_c, 0, 58, 65
4, 24720, Note_on_c, 0, 65, 65
4, 24960, Note_on_c, 0, 65, 0
4, 24960, Note_on_c, 0, 58, 0
4, 24960, Note_on_c, 0, 56, 0
4, 24960, Note_on_c, 0, 56, 65
4, 24960, Note_on_c, 0, 58, 65
4, 24960, Note_on_c, 0, 64, 65
4, 25200, Note_on_c, 0, 64, 0
4, 25200, Note_on_c, 0, 58, 0
4, 25200, Note_on_c, 0, 56, 0
4, 25200, Note_on_c, 0, 57, 65
4, 25200, Note_on_c, 0, 62, 65
4, 25680, Note_on_c, 0, 62, 0
4, 25680, Note_on_c, 0, 57, 0
4, 26160, Note_on_c, 0, 56, 65
4, 26160, Note_on_c, 0, 58, 65
4, 26280, Note_on_c, 0, 58, 0
4, 26280, Note_on_c, 0, 56, 0
4, 26280, Note_on_c, 0, 62, 65
4, 26400, Note_on_c, 0, 62, 0
4, 26400, Note_on_c, 0, 56, 65
4, 26400, Note_on_c, 0, 58, 65
4, 26640, Note_on_c, 0, 58, 0
4, 26640, Note_on_c, 0, 56, 0
4, 26640, Note_on_c, 0, 56, 65
4, 26640, Note_on_c, 0, 58, 65
4, 26640, Note_on_c, 0, 65, 65
4, 26880, Note_on_c, 0, 65, 0
4, 26880, Note_on_c, 0, 58, 0
4, 26880, Note_on_c, 0, 56, 0
4, 26880, Note_on_c, 0, 56, 65
4, 26880, Note_on_c, 0, 58, 65
4, 26880, Note_on_c, 0, 64, 65
4, 27120, Note_on_c, 0, 64, 0
4, 27120, Note_on_c, 0, 58, 0
4, 27120, Note_on_c, 0, 56, 0
4, 27120, Note_on_c, 0, 57, 65
4, 27120, Note_on_c, 0, 62, 65
4, 27600, Note_on_c, 0, 62, 0
4, 27600, Note_on_c, 0, 57, 0
4, 27600, Note_on_c, 0, 58, 65
4, 27600, Note_on_c, 0, 62, 65
4, 28080, Note_on_c, 0, 62, 0
4, 28080, Note_on_c, 0, 58, 0
4, 28080, Note_on_c, 0, 62, 65
4, 28080, Note_on_c, 0, 68, 65
4, 28080, Note_on_c, 0, 70, 65
4, 28560, Note_on_c, 0, 70, 0
4, 28560, Note_on_c, 0, 68, 0
4, 28560, Note_on_c, 0, 62, 0
4, 28800, Note_on_c, 0, 65, 65
4, 28800, Note_on_c, 0, 68, 65
4, 28800, Note_on_c, 0, 70, 65
4, 29280, Note_on_c, 0, 70, 0
4, 29280, Note_on_c, 0, 68, 0
4, 29280, Note_on_c, 0, 65, 0
4, 29280, Note_on_c, 0, 68, 65
4, 29280, Note_on_c, 0, 70, 65
4, 29280, Note_on_c, 0, 77, 65
4, 29760, Note_on_c, 0, 77, 0
4, 29760, Note_on_c, 0, 70, 0
4, 29760, Note_on_c, 0, 68, 0
4, 29760, Note_on_c, 0, 74, 78
4, 29760, Note_on_c, 0, 80, 78
4, 29760, Note_on_c, 0, 82, 78
4, 30240, Note_on_c, 0, 82, 0
4, 30240, Note_on_c, 0, 80, 0
4, 30240, Note_on_c, 0, 74, 0
4, 30240, Note_on_c, 0, 77, 78
4, 30240, Note_on_c, 0, 80, 78
4, 30240, Note_on_c, 0, 82, 78
4, 30720, Note_on_c, 0, 82, 0
4, 30720, Note_on_c, 0, 80, 0
4, 30720, Note_on_c, 0, 77, 0
4, 30720, Note_on_c, 0, 77, 104
4, 30840, Note_on_c, 0, 77, 0
4, 30960, Note_on_c, 0, 74, 104
4, 31080, Note_on_c, 0, 74, 0
4, 31200, Note_on_c, 0, 70, 104
4, 31320, Note_on_c, 0, 70, 0
4, 31440, Note_on_c, 0, 68, 104
4, 31560, Note_on_c, 0, 68, 0
4, 31680, Note_on_c, 0, 65, 104
4, 31800, Note_on_c, 0, 65, 0
4, 31920, Note_on_c, 0, 62, 104
4, 32040, Note_on_c, 0, 62, 0
4, 32160, Note_on_c, 0, 58, 104
4, 32280, Note_on_c, 0, 58, 0
4, 32400, Note_on_c, 0, 56, 104
4, 32520, Note_on_c, 0, 56, 0
4, 32640, Note_on_c, 0, 53, 104
4, 32760, Note_on_c, 0, 53, 0
4, 32880, Note_on_c, 0, 50, 104
4, 33000, Note_on_c, 0, 50, 0
4, 33120, Note_on_c, 0, 46, 104
4, 33240, Note_on_c, 0, 46, 0
4, 33360, Note_on_c, 0, 44, 104
4, 33480, Note_on_c, 0, 44, 0
4, 33600, Note_on_c, 0, 41, 104
4, 33720, Note_on_c, 0, 41, 0
4, 33840, Note_on_c, 0, 38, 104
4, 33960, Note_on_c, 0, 38, 0
4, 34080, Note_on_c, 0, 34, 104
4, 34200, Note_on_c, 0, 34, 0
4, 34320, Note_on_c, 0, 32, 104
4, 34440, Note_on_c, 0, 32, 0
4, 34560, Note_on_c, 0, 33, 78
4, 34680, Note_on_c, 0, 33, 0
4, 34680, Note_on_c, 0, 45, 78
4, 34800, Note_on_c, 0, 45, 0
4, 34800, Note_on_c, 0, 41, 78
4, 34800, Note_on_c, 0, 45, 78
4, 35040, Note_on_c, 0, 45, 0
4, 35040, Note_on_c, 0, 41, 0
4, 35040, Note_on_c, 0, 41, 65
4, 35040, Note_on_c, 0, 45, 65
4, 35280, Note_on_c, 0, 45, 0
4, 35280, Note_on_c, 0, 41, 0
4, 35280, Note_on_c, 0, 41, 65
4, 35280, Note_on_c, 0, 45, 65
4, 35520, Note_on_c, 0, 45, 0
4, 35520, Note_on_c, 0, 41, 0
4, 35520, Note_on_c, 0, 41, 52
4, 35520, Note_on_c, 0, 45, 52
4, 35760, Note_on_c, 0, 45, 0
4, 35760, Note_on_c, 0, 41, 0
4, 35760, Note_on_c, 0, 41, 52
4, 35760, Note_on_c, 0, 45, 52
4, 36000, Note_on_c, 0, 45, 0
4, 36000, Note_on_c, 0, 41, 0
4, 36000, Note_on_c, 0, 41, 39
4, 36000, Note_on_c, 0, 45, 39
4, 36240, Note_on_c, 0, 45, 0
4, 36240, Note_on_c, 0, 41, 0
4, 36240, Note_on_c, 0, 41, 39
4, 36240, Note_on_c, 0, 45, 39
4, 36480, Note_on_c, 0, 45, 0
4, 36480, Note_on_c, 0, 41, 0
4, 36480, Note_on_c, 0, 41, 39
4, 36480, Note_on_c, 0, 45, 39
4, 36720, Note_on_c, 0, 45, 0
4, 36720, Note_on_c, 0, 41, 0
4, 36720, Note_on_c, 0, 41, 39
4, 36720, Note_on_c, 0, 45, 39
4, 36960, Note_on_c, 0, 45, 0
4, 36960, Note_on_c, 0, 41, 0
4, 36960, Note_on_c, 0, 41, 39
4, 36960, Note_on_c, 0, 45, 39
4, 37200, Note_on_c, 0, 45, 0
4, 37200, Note_on_c, 0, 41, 0
4, 37200, Note_on_c, 0, 41, 39
4, 37200, Note_on_c, 0, 45, 39
4, 37440, Note_on_c, 0, 45, 0
4, 37440, Note_on_c, 0, 41, 0
4, 37440, Note_on_c, 0, 41, 39
4, 37440, Note_on_c, 0, 45, 39
4, 37680, Note_on_c, 0, 45, 0
4, 37680, Note_on_c, 0, 41, 0
4, 37680, Note_on_c, 0, 41, 39
4, 37680, Note_on_c, 0, 45, 39
4, 37920, Note_on_c, 0, 45, 0
4, 37920, Note_on_c, 0, 41, 0
4, 37920, Note_on_c, 0, 41, 39
4, 37920, Note_on_c, 0, 45, 39
4, 38160, Note_on_c, 0, 45, 0
4, 38160, Note_on_c, 0, 41, 0
4, 38160, Note_on_c, 0, 41, 39
4, 38160, Note_on_c, 0, 45, 39
4, 38400, Note_on_c, 0, 45, 0
4, 38400, Note_on_c, 0, 41, 0
4, 38400, Note_on_c, 0, 41, 39
4, 38400, Note_on_c, 0, 45, 39
4, 38640, Note_on_c, 0, 45, 0
4, 38640, Note_on_c, 0, 41, 0
4, 38640, Note_on_c, 0, 41, 39
4, 38640, Note_on_c, 0, 45, 39
4, 38880, Note_on_c, 0, 45, 0
4, 38880, Note_on_c, 0, 41, 0
4, 38880, Note_on_c, 0, 41, 39
4, 38880, Note_on_c, 0, 45, 39
4, 39120, Note_on_c, 0, 45, 0
4, 39120, Note_on_c, 0, 41, 0
4, 39120, Note_on_c, 0, 41, 39
4, 39120, Note_on_c, 0, 45, 39
4, 39360, Note_on_c, 0, 45, 0
4, 39360, Note_on_c, 0, 41, 0
4, 39360, Note_on_c, 0, 41, 39
4, 39360, Note_on_c, 0, 45, 39
4, 39600, Note_on_c, 0, 45, 0
4, 39600, Note_on_c, 0, 41, 0
4, 39600, Note_on_c, 0, 41, 39
4, 39600, Note_on_c, 0, 45, 39
4, 39840, Note_on_c, 0, 45, 0
4, 39840, Note_on_c, 0, 41, 0
4, 39840, Note_on_c, 0, 41, 39
4, 39840, Note_on_c, 0, 45, 39
4, 40080, Note_on_c, 0, 45, 0
4, 40080, Note_on_c, 0, 41, 0
4, 40080, Note_on_c, 0, 41, 39
4, 40080, Note_on_c, 0, 45, 39
4, 40320, Note_on_c, 0, 45, 0
4, 40320, Note_on_c, 0, 41, 0
4, 40320, Note_on_c, 0, 41, 39
4, 40320, Note_on_c, 0, 45, 39
4, 40560, Note_on_c, 0, 45, 0
4, 40560, Note_on_c, 0, 41, 0
4, 40560, Note_on_c, 0, 41, 39
4, 40560, Note_on_c, 0, 45, 39
4, 40800, Note_on_c, 0, 45, 0
4, 40800, Note_on_c, 0, 41, 0
4, 40800, Note_on_c, 0, 41, 39
4, 40800, Note_on_c, 0, 45, 39
4, 41040, Note_on_c, 0, 45, 0
4, 41040, Note_on_c, 0, 41, 0
4, 41040, Note_on_c, 0, 41, 39
4, 41040, Note_on_c, 0, 45, 39
4, 41280, Note_on_c, 0, 45, 0
4, 41280, Note_on_c, 0, 41, 0
4, 41280, Note_on_c, 0, 41, 39
4, 41280, Note_on_c, 0, 45, 39
4, 41520, Note_on_c, 0, 45, 0
4, 41520, Note_on_c, 0, 41, 0
4, 41520, Note_on_c, 0, 41, 39
4, 41520, Note_on_c, 0, 45, 39
4, 41760, Note_on_c, 0, 45, 0
4, 41760, Note_on_c, 0, 41, 0
4, 41760, Note_on_c, 0, 41, 39
4, 41760, Note_on_c, 0, 45, 39
4, 42000, Note_on_c, 0, 45, 0
4, 42000, Note_on_c, 0, 41, 0
4, 42000, Note_on_c, 0, 41, 39
4, 42000, Note_on_c, 0, 45, 39
4, 42240, Note_on_c, 0, 45, 0
4, 42240, Note_on_c, 0, 41, 0
4, 42240, Note_on_c, 0, 41, 39
4, 42240, Note_on_c, 0, 45, 39
4, 42480, Note_on_c, 0, 45, 0
4, 42480, Note_on_c, 0, 41, 0
4, 42480, Note_on_c, 0, 41, 39
4, 42480, Note_on_c, 0, 45, 39
4, 42720, Note_on_c, 0, 45, 0
4, 42720, Note_on_c, 0, 41, 0
4, 42720, Note_on_c, 0, 41, 39
4, 42720, Note_on_c, 0, 45, 39
4, 42960, Note_on_c, 0, 45, 0
4, 42960, Note_on_c, 0, 41, 0
4, 42960, Note_on_c, 0, 41, 39
4, 42960, Note_on_c, 0, 45, 39
4, 43200, Note_on_c, 0, 45, 0
4, 43200, Note_on_c, 0, 41, 0
4, 43200, Note_on_c, 0, 41, 39
4, 43200, Note_on_c, 0, 45, 39
4, 43440, Note_on_c, 0, 45, 0
4, 43440, Note_on_c, 0, 41, 0
4, 43440, Note_on_c, 0, 41, 39
4, 43440, Note_on_c, 0, 45, 39
4, 43680, Note_on_c, 0, 45, 0
4, 43680, Note_on_c, 0, 41, 0
4, 43680, Note_on_c, 0, 41, 39
4, 43680, Note_on_c, 0, 45, 39
4, 43920, Note_on_c, 0, 45, 0
4, 43920, Note_on_c, 0, 41, 0
4, 43920, Note_on_c, 0, 41, 39
4, 43920, Note_on_c, 0, 45, 39
4, 44160, Note_on_c, 0, 45, 0
4, 44160, Note_on_c, 0, 41, 0
4, 44160, Note_on_c, 0, 38, 39
4, 44160, Note_on_c, 0, 41, 39
4, 44400, Note_on_c, 0, 41, 0
4, 44400, Note_on_c, 0, 38, 0
4, 44400, Note_on_c, 0, 38, 39
4, 44400, Note_on_c, 0, 41, 39
4, 44640, Note_on_c, 0, 41, 0
4, 44640, Note_on_c, 0, 38, 0
4, 44640, Note_on_c, 0, 38, 39
4, 44640, Note_on_c, 0, 41, 39
4, 44880, Note_on_c, 0, 41, 0
4, 44880, Note_on_c, 0, 38, 0
4, 44880, Note_on_c, 0, 38, 39
4, 44880, Note_on_c, 0, 41, 39
4, 45120, Note_on_c, 0, 41, 0
4, 45120, Note_on_c, 0, 38, 0
4, 45120, Note_on_c, 0, 39, 39
4, 45120, Note_on_c, 0, 41, 39
4, 45360, Note_on_c, 0, 41, 0
4, 45360, Note_on_c, 0, 39, 0
4, 45360, Note_on_c, 0, 39, 39
4, 45360, Note_on_c, 0, 41, 39
4, 45600, Note_on_c, 0, 41, 0
4, 45600, Note_on_c, 0, 39, 0
4, 45600, Note_on_c, 0, 39, 39
4, 45600, Note_on_c, 0, 41, 39
4, 45840, Note_on_c, 0, 41, 0
4, 45840, Note_on_c, 0, 39, 0
4, 45840, Note_on_c, 0, 39, 39
4, 45840, Note_on_c, 0, 41, 39
4, 46080, Note_on_c, 0, 41, 0
4, 46080, Note_on_c, 0, 39, 0
4, 46080, Note_on_c, 0, 38, 39
4, 46080, Note_on_c, 0, 41, 39
4, 46320, Note_on_c, 0, 41, 0
4, 46320, Note_on_c, 0, 38, 0
4, 46320, Note_on_c, 0, 38, 39
4, 46320, Note_on_c, 0, 41, 39
4, 46560, Note_on_c, 0, 41, 0
4, 46560, Note_on_c, 0, 38, 0
4, 46560, Note_on_c, 0, 38, 39
4, 46560, Note_on_c, 0, 41, 39
4, 46800, Note_on_c, 0, 41, 0
4, 46800, Note_on_c, 0, 38, 0
4, 46800, Note_on_c, 0, 38, 39
4, 46800, Note_on_c, 0, 41, 39
4, 47040, Note_on_c, 0, 41, 0
4, 47040, Note_on_c, 0, 38, 0
4, 47040, Note_on_c, 0, 36, 39
4, 47040, Note_on_c, 0, 41, 39
4, 47280, Note_on_c, 0, 41, 0
4, 47280, Note_on_c, 0, 36, 0
4, 47280, Note_on_c, 0, 36, 39
4, 47280, Note_on_c, 0, 41, 39
4, 47520, Note_on_c, 0, 41, 0
4, 47520, Note_on_c, 0, 36, 0
4, 47520, Note_on_c, 0, 36, 39
4, 47520, Note_on_c, 0, 41, 39
4, 47760, Note_on_c, 0, 41, 0
4, 47760, Note_on_c, 0, 36, 0
4, 47760, Note_on_c, 0, 36, 39
4, 47760, Note_on_c, 0, 41, 39
4, 48000, Note_on_c, 0, 41, 0
4, 48000, Note_on_c, 0, 36, 0
4, 48000, Note_on_c, 0, 35, 39
4, 48000, Note_on_c, 0, 38, 39
4, 48240, Note_on_c, 0, 38, 0
4, 48240, Note_on_c, 0, 35, 0
4, 48240, Note_on_c, 0, 35, 39
4, 48240, Note_on_c, 0, 38, 39
4, 48480, Note_on_c, 0, 38, 0
4, 48480, Note_on_c, 0, 35, 0
4, 48480, Note_on_c, 0, 35, 39
4, 48480, Note_on_c, 0, 38, 39
4, 48720, Note_on_c, 0, 38, 0
4, 48720, Note_on_c, 0, 35, 0
4, 48720, Note_on_c, 0, 35, 39
4, 48720, Note_on_c, 0, 38, 39
4, 48960, Note_on_c, 0, 38, 0
4, 48960, Note_on_c, 0, 35, 0
4, 48960, Note_on_c, 0, 35, 39
4, 48960, Note_on_c, 0, 38, 39
4, 49200, Note_on_c, 0, 38, 0
4, 49200, Note_on_c, 0, 35, 0
4, 49200, Note_on_c, 0, 35, 39
4, 49200, Note_on_c, 0, 38, 39
4, 49440, Note_on_c, 0, 38, 0
4, 49440, Note_on_c, 0, 35, 0
4, 49440, Note_on_c, 0, 35, 39
4, 49440, Note_on_c, 0, 38, 39
4, 49680, Note_on_c, 0, 38, 0
4, 49680, Note_on_c, 0, 35, 0
4, 49680, Note_on_c, 0, 35, 39
4, 49680, Note_on_c, 0, 38, 39
4, 49920, Note_on_c, 0, 38, 0
4, 49920, Note_on_c, 0, 35, 0
4, 49920, Note_on_c, 0, 34, 39
4, 50160, Note_on_c, 0, 34, 0
4, 50160, Note_on_c, 0, 34, 39
4, 50400, Note_on_c, 0, 34, 0
4, 50400, Note_on_c, 0, 34, 39
4, 50400, Note_on_c, 0, 38, 39
4, 50640, Note_on_c, 0, 38, 0
4, 50640, Note_on_c, 0, 34, 0
4, 50640, Note_on_c, 0, 34, 39
4, 50640, Note_on_c, 0, 38, 39
4, 50880, Note_on_c, 0, 38, 0
4, 50880, Note_on_c, 0, 34, 0
4, 50880, Note_on_c, 0, 34, 52
4, 50880, Note_on_c, 0, 38, 52
4, 51120, Note_on_c, 0, 38, 0
4, 51120, Note_on_c, 0, 34, 0
4, 51120, Note_on_c, 0, 46, 52
4, 51120, Note_on_c, 0, 50, 52
4, 51360, Note_on_c, 0, 50, 0
4, 51360, Note_on_c, 0, 46, 0
4, 51360, Note_on_c, 0, 46, 52
4, 51360, Note_on_c, 0, 50, 52
4, 51600, Note_on_c, 0, 50, 0
4, 51600, Note_on_c, 0, 46, 0
4, 51600, Note_on_c, 0, 46, 52
4, 51600, Note_on_c, 0, 50, 52
4, 51840, Note_on_c, 0, 50, 0
4, 51840, Note_on_c, 0, 46, 0
4, 51840, Note_on_c, 0, 46, 52
4, 51840, Note_on_c, 0, 50, 52
4, 52080, Note_on_c, 0, 50, 0
4, 52080, Note_on_c, 0, 46, 0
4, 52080, Note_on_c, 0, 46, 52
4, 52080, Note_on_c, 0, 50, 52
4, 52320, Note_on_c, 0, 50, 0
4, 52320, Note_on_c, 0, 46, 0
4, 52320, Note_on_c, 0, 46, 52
4, 52320, Note_on_c, 0, 50, 52
4, 52560, Note_on_c, 0, 50, 0
4, 52560, Note_on_c, 0, 46, 0
4, 52560, Note_on_c, 0, 46, 52
4, 52560, Note_on_c, 0, 50, 52
4, 52800, Note_on_c, 0, 50, 0
4, 52800, Note_on_c, 0, 46, 0
4, 52800, Note_on_c, 0, 46, 52
4, 52800, Note_on_c, 0, 50, 52
4, 53040, Note_on_c, 0, 50, 0
4, 53040, Note_on_c, 0, 46, 0
4, 53040, Note_on_c, 0, 46, 52
4, 53040, Note_on_c, 0, 50, 52
4, 53280, Note_on_c, 0, 50, 0
4, 53280, Note_on_c, 0, 46, 0
4, 53280, Note_on_c, 0, 46, 52
4, 53280, Note_on_c, 0, 50, 52
4, 53520, Note_on_c, 0, 50, 0
4, 53520, Note_on_c, 0, 46, 0
4, 53520, Note_on_c, 0, 46, 52
4, 53520, Note_on_c, 0, 50, 52
4, 53760, Note_on_c, 0, 50, 0
4, 53760, Note_on_c, 0, 46, 0
4, 53760, Note_on_c, 0, 46, 52
4, 53760, Note_on_c, 0, 50, 52
4, 54000, Note_on_c, 0, 50, 0
4, 54000, Note_on_c, 0, 46, 0
4, 54000, Note_on_c, 0, 46, 52
4, 54000, Note_on_c, 0, 50, 52
4, 54240, Note_on_c, 0, 50, 0
4, 54240, Note_on_c, 0, 46, 0
4, 54240, Note_on_c, 0, 46, 52
4, 54240, Note_on_c, 0, 50, 52
4, 54480, Note_on_c, 0, 50, 0
4, 54480, Note_on_c, 0, 46, 0
4, 54480, Note_on_c, 0, 46, 52
4, 54480, Note_on_c, 0, 50, 52
4, 54720, Note_on_c, 0, 50, 0
4, 54720, Note_on_c, 0, 46, 0
4, 54720, Note_on_c, 0, 46, 52
4, 54720, Note_on_c, 0, 50, 52
4, 54960, Note_on_c, 0, 50, 0
4, 54960, Note_on_c, 0, 46, 0
4, 54960, Note_on_c, 0, 46, 52
4, 54960, Note_on_c, 0, 50, 52
4, 55200, Note_on_c, 0, 50, 0
4, 55200, Note_on_c, 0, 46, 0
4, 55200, Note_on_c, 0, 46, 52
4, 55200, Note_on_c, 0, 50, 52
4, 55440, Note_on_c, 0, 50, 0
4, 55440, Note_on_c, 0, 46, 0
4, 55440, Note_on_c, 0, 46, 52
4, 55440, Note_on_c, 0, 50, 52
4, 55680, Note_on_c, 0, 50, 0
4, 55680, Note_on_c, 0, 46, 0
4, 55680, Note_on_c, 0, 46, 52
4, 55680, Note_on_c, 0, 50, 52
4, 55920, Note_on_c, 0, 50, 0
4, 55920, Note_on_c, 0, 46, 0
4, 55920, Note_on_c, 0, 46, 52
4, 55920, Note_on_c, 0, 50, 52
4, 56160, Note_on_c, 0, 50, 0
4, 56160, Note_on_c, 0, 46, 0
4, 56160, Note_on_c, 0, 46, 52
4, 56160, Note_on_c, 0, 50, 52
4, 56400, Note_on_c, 0, 50, 0
4, 56400, Note_on_c, 0, 46, 0
4, 56400, Note_on_c, 0, 46, 52
4, 56400, Note_on_c, 0, 50, 52
4, 56640, Note_on_c, 0, 50, 0
4, 56640, Note_on_c, 0, 46, 0
4, 56640, Note_on_c, 0, 46, 52
4, 56640, Note_on_c, 0, 50, 52
4, 56880, Note_on_c, 0, 50, 0
4, 56880, Note_on_c, 0, 46, 0
4, 56880, Note_on_c, 0, 46, 52
4, 56880, Note_on_c, 0, 50, 52
4, 57120, Note_on_c, 0, 50, 0
4, 57120, Note_on_c, 0, 46, 0
4, 57120, Note_on_c, 0, 46, 52
4, 57120, Note_on_c, 0, 50, 52
4, 57360, Note_on_c, 0, 50, 0
4, 57360, Note_on_c, 0, 46, 0
4, 57360, Note_on_c, 0, 46, 52
4, 57360, Note_on_c, 0, 50, 52
4, 57600, Note_on_c, 0, 50, 0
4, 57600, Note_on_c, 0, 46, 0
4, 57600, Note_on_c, 0, 46, 52
4, 57600, Note_on_c, 0, 50, 52
4, 57840, Note_on_c, 0, 50, 0
4, 57840, Note_on_c, 0, 46, 0
4, 57840, Note_on_c, 0, 46, 52
4, 57840, Note_on_c, 0, 50, 52
4, 58080, Note_on_c, 0, 50, 0
4, 58080, Note_on_c, 0, 46, 0
4, 58080, Note_on_c, 0, 46, 52
4, 58080, Note_on_c, 0, 50, 52
4, 58320, Note_on_c, 0, 50, 0
4, 58320, Note_on_c, 0, 46, 0
4, 58320, Note_on_c, 0, 46, 52
4, 58320, Note_on_c, 0, 50, 52
4, 58560, Note_on_c, 0, 50, 0
4, 58560, Note_on_c, 0, 46, 0
4, 58560, Note_on_c, 0, 46, 52
4, 58560, Note_on_c, 0, 50, 52
4, 58800, Note_on_c, 0, 50, 0
4, 58800, Note_on_c, 0, 46, 0
4, 58800, Note_on_c, 0, 46, 52
4, 58800, Note_on_c, 0, 50, 52
4, 59040, Note_on_c, 0, 50, 0
4, 59040, Note_on_c, 0, 46, 0
4, 59040, Note_on_c, 0, 46, 52
4, 59040, Note_on_c, 0, 50, 52
4, 59280, Note_on_c, 0, 50, 0
4, 59280, Note_on_c, 0, 46, 0
4, 59280, Note_on_c, 0, 46, 52
4, 59280, Note_on_c, 0, 50, 52
4, 59520, Note_on_c, 0, 50, 0
4, 59520, Note_on_c, 0, 46, 0
4, 59520, Note_on_c, 0, 43, 52
4, 59520, Note_on_c, 0, 46, 52
4, 59760, Note_on_c, 0, 46, 0
4, 59760, Note_on_c, 0, 43, 0
4, 59760, Note_on_c, 0, 43, 52
4, 59760, Note_on_c, 0, 46, 52
4, 60000, Note_on_c, 0, 46, 0
4, 60000, Note_on_c, 0, 43, 0
4, 60000, Note_on_c, 0, 43, 52
4, 60000, Note_on_c, 0, 46, 52
4, 60240, Note_on_c, 0, 46, 0
4, 60240, Note_on_c, 0, 43, 0
4, 60240, Note_on_c, 0, 43, 52
4, 60240, Note_on_c, 0, 46, 52
4, 60480, Note_on_c, 0, 46, 0
4, 60480, Note_on_c, 0, 43, 0
4, 60480, Note_on_c, 0, 44, 52
4, 60480, Note_on_c, 0, 46, 52
4, 60720, Note_on_c, 0, 46, 0
4, 60720, Note_on_c, 0, 44, 0
4, 60720, Note_on_c, 0, 44, 52
4, 60720, Note_on_c, 0, 46, 52
4, 60960, Note_on_c, 0, 46, 0
4, 60960, Note_on_c, 0, 44, 0
4, 60960, Note_on_c, 0, 44, 52
4, 60960, Note_on_c, 0, 46, 52
4, 61200, Note_on_c, 0, 46, 0
4, 61200, Note_on_c, 0, 44, 0
4, 61200, Note_on_c, 0, 44, 52
4, 61200, Note_on_c, 0, 46, 52
4, 61440, Note_on_c, 0, 46, 0
4, 61440, Note_on_c, 0, 44, 0
4, 61440, Note_on_c, 0, 43, 52
4, 61440, Note_on_c, 0, 46, 52
4, 61680, Note_on_c, 0, 46, 0
4, 61680, Note_on_c, 0, 43, 0
4, 61680, Note_on_c, 0, 43, 52
4, 61680, Note_on_c, 0, 46, 52
4, 61920, Note_on_c, 0, 46, 0
4, 61920, Note_on_c, 0, 43, 0
4, 61920, Note_on_c, 0, 43, 52
4, 61920, Note_on_c, 0, 46, 52
4, 62160, Note_on_c, 0, 46, 0
4, 62160, Note_on_c, 0, 43, 0
4, 62160, Note_on_c, 0, 43, 52
4, 62160, Note_on_c, 0, 46, 52
4, 62400, Note_on_c, 0, 46, 0
4, 62400, Note_on_c, 0, 43, 0
4, 62400, Note_on_c, 0, 41, 52
4, 62400, Note_on_c, 0, 46, 52
4, 62640, Note_on_c, 0, 46, 0
4, 62640, Note_on_c, 0, 41, 0
4, 62640, Note_on_c, 0, 41, 52
4, 62640, Note_on_c, 0, 46, 52
4, 62880, Note_on_c, 0, 46, 0
4, 62880, Note_on_c, 0, 41, 0
4, 62880, Note_on_c, 0, 41, 52
4, 62880, Note_on_c, 0, 46, 52
4, 63120, Note_on_c, 0, 46, 0
4, 63120, Note_on_c, 0, 41, 0
4, 63120, Note_on_c, 0, 41, 52
4, 63120, Note_on_c, 0, 46, 52
4, 63360, Note_on_c, 0, 46, 0
4, 63360, Note_on_c, 0, 41, 0
4, 63360, Note_on_c, 0, 40, 52
4, 63360, Note_on_c, 0, 43, 52
4, 63600, Note_on_c, 0, 43, 0
4, 63600, Note_on_c, 0, 40, 0
4, 63600, Note_on_c, 0, 40, 52
4, 63600, Note_on_c, 0, 43, 52
4, 63840, Note_on_c, 0, 43, 0
4, 63840, Note_on_c, 0, 40, 0
4, 63840, Note_on_c, 0, 40, 52
4, 63840, Note_on_c, 0, 43, 52
4, 64080, Note_on_c, 0, 43, 0
4, 64080, Note_on_c, 0, 40, 0
4, 64080, Note_on_c, 0, 40, 52
4, 64080, Note_on_c, 0, 43, 52
4, 64320, Note_on_c, 0, 43, 0
4, 64320, Note_on_c, 0, 40, 0
4, 64320, Note_on_c, 0, 40, 52
4, 64320, Note_on_c, 0, 43, 52
4, 64560, Note_on_c, 0, 43, 0
4, 64560, Note_on_c, 0, 40, 0
4, 64560, Note_on_c, 0, 40, 52
4, 64560, Note_on_c, 0, 43, 52
4, 64800, Note_on_c, 0, 43, 0
4, 64800, Note_on_c, 0, 40, 0
4, 64800, Note_on_c, 0, 40, 52
4, 64800, Note_on_c, 0, 43, 52
4, 65040, Note_on_c, 0, 43, 0
4, 65040, Note_on_c, 0, 40, 0
4, 65040, Note_on_c, 0, 40, 52
4, 65040, Note_on_c, 0, 43, 52
4, 65280, Note_on_c, 0, 43, 0
4, 65280, Note_on_c, 0, 40, 0
4, 65280, Note_on_c, 0, 39, 52
4, 65280, Note_on_c, 0, 43, 52
4, 65520, Note_on_c, 0, 43, 0
4, 65520, Note_on_c, 0, 39, 0
4, 65520, Note_on_c, 0, 39, 52
4, 65520, Note_on_c, 0, 43, 52
4, 65760, Note_on_c, 0, 43, 0
4, 65760, Note_on_c, 0, 39, 0
4, 65760, Note_on_c, 0, 39, 52
4, 65760, Note_on_c, 0, 43, 52
4, 66000, Note_on_c, 0, 43, 0
4, 66000, Note_on_c, 0, 39, 0
4, 66000, Note_on_c, 0, 39, 52
4, 66000, Note_on_c, 0, 43, 52
4, 66240, Note_on_c, 0, 43, 0
4, 66240, Note_on_c, 0, 39, 0
4, 66240, Note_on_c, 0, 39, 52
4, 66240, Note_on_c, 0, 43, 52
4, 66480, Note_on_c, 0, 43, 0
4, 66480, Note_on_c, 0, 39, 0
4, 66480, Note_on_c, 0, 39, 52
4, 66480, Note_on_c, 0, 43, 52
4, 66720, Note_on_c, 0, 43, 0
4, 66720, Note_on_c, 0, 39, 0
4, 66720, Note_on_c, 0, 39, 52
4, 66720, Note_on_c, 0, 43, 52
4, 66960, Note_on_c, 0, 43, 0
4, 66960, Note_on_c, 0, 39, 0
4, 66960, Note_on_c, 0, 39, 52
4, 66960, Note_on_c, 0, 43, 52
4, 67200, Note_on_c, 0, 43, 0
4, 67200, Note_on_c, 0, 39, 0
4, 67200, Note_on_c, 0, 38, 65
4, 67200, Note_on_c, 0, 43, 65
4, 67200, Note_on_c, 0, 46, 65
4, 67440, Note_on_c, 0, 46, 0
4, 67440, Note_on_c, 0, 43, 0
4, 67440, Note_on_c, 0, 38, 0
4, 67440, Note_on_c, 0, 38, 65
4, 67440, Note_on_c, 0, 43, 65
4, 67440, Note_on_c, 0, 46, 65
4, 67680, Note_on_c, 0, 46, 0
4, 67680, Note_on_c, 0, 43, 0
4, 67680, Note_on_c, 0, 38, 0
4, 67680, Note_on_c, 0, 38, 65
4, 67680, Note_on_c, 0, 43, 65
4, 67680, Note_on_c, 0, 46, 65
4, 67920, Note_on_c, 0, 46, 0
4, 67920, Note_on_c, 0, 43, 0
4, 67920, Note_on_c, 0, 38, 0
4, 67920, Note_on_c, 0, 38, 65
4, 67920, Note_on_c, 0, 43, 65
4, 67920, Note_on_c, 0, 46, 65
4, 68160, Note_on_c, 0, 46, 0
4, 68160, Note_on_c, 0, 43, 0
4, 68160, Note_on_c, 0, 38, 0
4, 68160, Note_on_c, 0, 38, 65
4, 68160, Note_on_c, 0, 45, 65
4, 68160, Note_on_c, 0, 48, 65
4, 68400, Note_on_c, 0, 48, 0
4, 68400, Note_on_c, 0, 45, 0
4, 68400, Note_on_c, 0, 38, 0
4, 68400, Note_on_c, 0, 38, 65
4, 68400, Note_on_c, 0, 45, 65
4, 68400, Note_on_c, 0, 48, 65
4, 68640, Note_on_c, 0, 48, 0
4, 68640, Note_on_c, 0, 45, 0
4, 68640, Note_on_c, 0, 38, 0
4, 68640, Note_on_c, 0, 38, 65
4, 68640, Note_on_c, 0, 45, 65
4, 68640, Note_on_c, 0, 48, 65
4, 68880, Note_on_c, 0, 48, 0
4, 68880, Note_on_c, 0, 45, 0
4, 68880, Note_on_c, 0, 38, 0
4, 68880, Note_on_c, 0, 38, 65
4, 68880, Note_on_c, 0, 45, 65
4, 68880, Note_on_c, 0, 48, 65
4, 69120, Note_on_c, 0, 48, 0
4, 69120, Note_on_c, 0, 45, 0
4, 69120, Note_on_c, 0, 38, 0
4, 69120, Note_on_c, 0, 38, 65
4, 69120, Note_on_c, 0, 43, 65
4, 69120, Note_on_c, 0, 46, 65
4, 69360, Note_on_c, 0, 46, 0
4, 69360, Note_on_c, 0, 43, 0
4, 69360, Note_on_c, 0, 38, 0
4, 69360, Note_on_c, 0, 38, 65
4, 69360, Note_on_c, 0, 43, 65
4, 69360, Note_on_c, 0, 46, 65
4, 69600, Note_on_c, 0, 46, 0
4, 69600, Note_on_c, 0, 43, 0
4, 69600, Note_on_c, 0, 38, 0
4, 69600, Note_on_c, 0, 38, 65
4, 69600, Note_on_c, 0, 43, 65
4, 69600, Note_on_c, 0, 46, 65
4, 69840, Note_on_c, 0, 46, 0
4, 69840, Note_on_c, 0, 43, 0
4, 69840, Note_on_c, 0, 38, 0
4, 69840, Note_on_c, 0, 38, 65
4, 69840, Note_on_c, 0, 43, 65
4, 69840, Note_on_c, 0, 46, 65
4, 70080, Note_on_c, 0, 46, 0
4, 70080, Note_on_c, 0, 43, 0
4, 70080, Note_on_c, 0, 38, 0
4, 70080, Note_on_c, 0, 38, 65
4, 70080, Note_on_c, 0, 42, 65
4, 70080, Note_on_c, 0, 45, 65
4, 70320, Note_on_c, 0, 45, 0
4, 70320, Note_on_c, 0, 42, 0
4, 70320, Note_on_c, 0, 38, 0
4, 70320, Note_on_c, 0, 38, 65
4, 70320, Note_on_c, 0, 42, 65
4, 70320, Note_on_c, 0, 45, 65
4, 70560, Note_on_c, 0, 45, 0
4, 70560, Note_on_c, 0, 42, 0
4, 70560, Note_on_c, 0, 38, 0
4, 70560, Note_on_c, 0, 38, 65
4, 70560, Note_on_c, 0, 42, 65
4, 70560, Note_on_c, 0, 45, 65
4, 70800, Note_on_c, 0, 45, 0
4, 70800, Note_on_c, 0, 42, 0
4, 70800, Note_on_c, 0, 38, 0
4, 70800, Note_on_c, 0, 38, 65
4, 70800, Note_on_c, 0, 42, 65
4, 70800, Note_on_c, 0, 45, 65
4, 71040, Note_on_c, 0, 45, 0
4, 71040, Note_on_c, 0, 42, 0
4, 71040, Note_on_c, 0, 38, 0
4, 71040, Note_on_c, 0, 38, 52
4, 71040, Note_on_c, 0, 43, 52
4, 71040, Note_on_c, 0, 46, 52
4, 71280, Note_on_c, 0, 46, 0
4, 71280, Note_on_c, 0, 43, 0
4, 71280, Note_on_c, 0, 38, 0
4, 71280, Note_on_c, 0, 38, 52
4, 71280, Note_on_c, 0, 43, 52
4, 71280, Note_on_c, 0, 46, 52
4, 71520, Note_on_c, 0, 46, 0
4, 71520, Note_on_c, 0, 43, 0
4, 71520, Note_on_c, 0, 38, 0
4, 71520, Note_on_c, 0, 38, 52
4, 71520, Note_on_c, 0, 43, 52
4, 71520, Note_on_c, 0, 46, 52
4, 71760, Note_on_c, 0, 46, 0
4, 71760, Note_on_c, 0, 43, 0
4, 71760, Note_on_c, 0, 38, 0
4, 71760, Note_on_c, 0, 38, 52
4, 71760, Note_on_c, 0, 43, 52
4, 71760, Note_on_c, 0, 46, 52
4, 72000, Note_on_c, 0, 46, 0
4, 72000, Note_on_c, 0, 43, 0
4, 72000, Note_on_c, 0, 38, 0
4, 72000, Note_on_c, 0, 38, 52
4, 72000, Note_on_c, 0, 45, 52
4, 72000, Note_on_c, 0, 48, 52
4, 72240, Note_on_c, 0, 48, 0
4, 72240, Note_on_c, 0, 45, 0
4, 72240, Note_on_c, 0, 38, 0
4, 72240, Note_on_c, 0, 38, 52
4, 72240, Note_on_c, 0, 45, 52
4, 72240, Note_on_c, 0, 48, 52
4, 72480, Note_on_c, 0, 48, 0
4, 72480, Note_on_c, 0, 45, 0
4, 72480, Note_on_c, 0, 38, 0
4, 72480, Note_on_c, 0, 38, 52
4, 72480, Note_on_c, 0, 45, 52
4, 72480, Note_on_c, 0, 48, 52
4, 72720, Note_on_c, 0, 48, 0
4, 72720, Note_on_c, 0, 45, 0
4, 72720, Note_on_c, 0, 38, 0
4, 72720, Note_on_c, 0, 38, 52
4, 72720, Note_on_c, 0, 45, 52
4, 72720, Note_on_c, 0, 48, 52
4, 72960, Note_on_c, 0, 48, 0
4, 72960, Note_on_c, 0, 45, 0
4, 72960, Note_on_c, 0, 38, 0
4, 72960, Note_on_c, 0, 38, 52
4, 72960, Note_on_c, 0, 43, 52
4, 72960, Note_on_c, 0, 46, 52
4, 73200, Note_on_c, 0, 46, 0
4, 73200, Note_on_c, 0, 43, 0
4, 73200, Note_on_c, 0, 38, 0
4, 73200, Note_on_c, 0, 38, 52
4, 73200, Note_on_c, 0, 43, 52
4, 73200, Note_on_c, 0, 46, 52
4, 73440, Note_on_c, 0, 46, 0
4, 73440, Note_on_c, 0, 43, 0
4, 73440, Note_on_c, 0, 38, 0
4, 73440, Note_on_c, 0, 38, 52
4, 73440, Note_on_c, 0, 43, 52
4, 73440, Note_on_c, 0, 46, 52
4, 73680, Note_on_c, 0, 46, 0
4, 73680, Note_on_c, 0, 43, 0
4, 73680, Note_on_c, 0, 38, 0
4, 73680, Note_on_c, 0, 38, 52
4, 73680, Note_on_c, 0, 43, 52
4, 73680, Note_on_c, 0, 46, 52
4, 73920, Note_on_c, 0, 46, 0
4, 73920, Note_on_c, 0, 43, 0
4, 73920, Note_on_c, 0, 38, 0
4, 73920, Note_on_c, 0, 38, 52
4, 73920, Note_on_c, 0, 42, 52
4, 73920, Note_on_c, 0, 45, 52
4, 74160, Note_on_c, 0, 45, 0
4, 74160, Note_on_c, 0, 42, 0
4, 74160, Note_on_c, 0, 38, 0
4, 74160, Note_on_c, 0, 38, 52
4, 74160, Note_on_c, 0, 42, 52
4, 74160, Note_on_c, 0, 45, 52
4, 74400, Note_on_c, 0, 45, 0
4, 74400, Note_on_c, 0, 42, 0
4, 74400, Note_on_c, 0, 38, 0
4, 74400, Note_on_c, 0, 38, 52
4, 74400, Note_on_c, 0, 42, 52
4, 74400, Note_on_c, 0, 45, 52
4, 74640, Note_on_c, 0, 45, 0
4, 74640, Note_on_c, 0, 42, 0
4, 74640, Note_on_c, 0, 38, 0
4, 74640, Note_on_c, 0, 38, 52
4, 74640, Note_on_c, 0, 42, 52
4, 74640, Note_on_c, 0, 45, 52
4, 74880, Note_on_c, 0, 45, 0
4, 74880, Note_on_c, 0, 42, 0
4, 74880, Note_on_c, 0, 38, 0
4, 74880, Note_on_c, 0, 38, 52
4, 74880, Note_on_c, 0, 43, 52
4, 74880, Note_on_c, 0, 46, 52
4, 75120, Note_on_c, 0, 46, 0
4, 75120, Note_on_c, 0, 43, 0
4, 75120, Note_on_c, 0, 38, 0
4, 75120, Note_on_c, 0, 38, 52
4, 75120, Note_on_c, 0, 43, 52
4, 75120, Note_on_c, 0, 46, 52
4, 75360, Note_on_c, 0, 46, 0
4, 75360, Note_on_c, 0, 43, 0
4, 75360, Note_on_c, 0, 38, 0
4, 75360, Note_on_c, 0, 38, 52
4, 75360, Note_on_c, 0, 43, 52
4, 75360, Note_on_c, 0, 46, 52
4, 75600, Note_on_c, 0, 46, 0
4, 75600, Note_on_c, 0, 43, 0
4, 75600, Note_on_c, 0, 38, 0
4, 75600, Note_on_c, 0, 38, 52
4, 75600, Note_on_c, 0, 43, 52
4, 75600, Note_on_c, 0, 46, 52
4, 75840, Note_on_c, 0, 46, 0
4, 75840, Note_on_c, 0, 43, 0
4, 75840, Note_on_c, 0, 38, 0
4, 75840, Note_on_c, 0, 38, 52
4, 75840, Note_on_c, 0, 45, 52
4, 75840, Note_on_c, 0, 48, 52
4, 76080, Note_on_c, 0, 48, 0
4, 76080, Note_on_c, 0, 45, 0
4, 76080, Note_on_c, 0, 38, 0
4, 76080, Note_on_c, 0, 38, 52
4, 76080, Note_on_c, 0, 45, 52
4, 76080, Note_on_c, 0, 48, 52
4, 76320, Note_on_c, 0, 48, 0
4, 76320, Note_on_c, 0, 45, 0
4, 76320, Note_on_c, 0, 38, 0
4, 76320, Note_on_c, 0, 38, 52
4, 76320, Note_on_c, 0, 45, 52
4, 76320, Note_on_c, 0, 48, 52
4, 76560, Note_on_c, 0, 48, 0
4, 76560, Note_on_c, 0, 45, 0
4, 76560, Note_on_c, 0, 38, 0
4, 76560, Note_on_c, 0, 38, 52
4, 76560, Note_on_c, 0, 45, 52
4, 76560, Note_on_c, 0, 48, 52
4, 76800, Note_on_c, 0, 48, 0
4, 76800, Note_on_c, 0, 45, 0
4, 76800, Note_on_c, 0, 38, 0
4, 76800, Note_on_c, 0, 38, 52
4, 76800, Note_on_c, 0, 43, 52
4, 76800, Note_on_c, 0, 46, 52
4, 77040, Note_on_c, 0, 46, 0
4, 77040, Note_on_c, 0, 43, 0
4, 77040, Note_on_c, 0, 38, 0
4, 77040, Note_on_c, 0, 38, 52
4, 77040, Note_on_c, 0, 43, 52
4, 77040, Note_on_c, 0, 46, 52
4, 77280, Note_on_c, 0, 46, 0
4, 77280, Note_on_c, 0, 43, 0
4, 77280, Note_on_c, 0, 38, 0
4, 77280, Note_on_c, 0, 38, 52
4, 77280, Note_on_c, 0, 43, 52
4, 77280, Note_on_c, 0, 46, 52
4, 77520, Note_on_c, 0, 46, 0
4, 77520, Note_on_c, 0, 43, 0
4, 77520, Note_on_c, 0, 38, 0
4, 77520, Note_on_c, 0, 38, 52
4, 77520, Note_on_c, 0, 43, 52
4, 77520, Note_on_c, 0, 46, 52
4, 77760, Note_on_c, 0, 46, 0
4, 77760, Note_on_c, 0, 43, 0
4, 77760, Note_on_c, 0, 38, 0
4, 77760, Note_on_c, 0, 38, 52
4, 77760, Note_on_c, 0, 42, 52
4, 77760, Note_on_c, 0, 45, 52
4, 78000, Note_on_c, 0, 45, 0
4, 78000, Note_on_c, 0, 42, 0
4, 78000, Note_on_c, 0, 38, 0
4, 78000, Note_on_c, 0, 38, 52
4, 78000, Note_on_c, 0, 42, 52
4, 78000, Note_on_c, 0, 45, 52
4, 78240, Note_on_c, 0, 45, 0
4, 78240, Note_on_c, 0, 42, 0
4, 78240, Note_on_c, 0, 38, 0
4, 78240, Note_on_c, 0, 38, 52
4, 78240, Note_on_c, 0, 42, 52
4, 78240, Note_on_c, 0, 45, 52
4, 78480, Note_on_c, 0, 45, 0
4, 78480, Note_on_c, 0, 42, 0
4, 78480, Note_on_c, 0, 38, 0
4, 78480, Note_on_c, 0, 38, 52
4, 78480, Note_on_c, 0, 42, 52
4, 78480, Note_on_c, 0, 45, 52
4, 78720, Note_on_c, 0, 45, 0
4, 78720, Note_on_c, 0, 42, 0
4, 78720, Note_on_c, 0, 38, 0
4, 78720, Note_on_c, 0, 38, 78
4, 78720, Note_on_c, 0, 43, 78
4, 78720, Note_on_c, 0, 46, 78
4, 78960, Note_on_c, 0, 46, 0
4, 78960, Note_on_c, 0, 43, 0
4, 78960, Note_on_c, 0, 38, 0
4, 78960, Note_on_c, 0, 38, 78
4, 78960, Note_on_c, 0, 43, 78
4, 78960, Note_on_c, 0, 46, 78
4, 79200, Note_on_c, 0, 46, 0
4, 79200, Note_on_c, 0, 43, 0
4, 79200, Note_on_c, 0, 38, 0
4, 79200, Note_on_c, 0, 38, 78
4, 79200, Note_on_c, 0, 43, 78
4, 79200, Note_on_c, 0, 46, 78
4, 79440, Note_on_c, 0, 46, 0
4, 79440, Note_on_c, 0, 43, 0
4, 79440, Note_on_c, 0, 38, 0
4, 79440, Note_on_c, 0, 38, 78
4, 79440, Note_on_c, 0, 43, 78
4, 79440, Note_on_c, 0, 46, 78
4, 79680, Note_on_c, 0, 46, 0
4, 79680, Note_on_c, 0, 43, 0
4, 79680, Note_on_c, 0, 38, 0
4, 79680, Note_on_c, 0, 38, 78
4, 79680, Note_on_c, 0, 45, 78
4, 79680, Note_on_c, 0, 48, 78
4, 79920, Note_on_c, 0, 48, 0
4, 79920, Note_on_c, 0, 45, 0
4, 79920, Note_on_c, 0, 38, 0
4, 79920, Note_on_c, 0, 38, 78
4, 79920, Note_on_c, 0, 45, 78
4, 79920, Note_on_c, 0, 48, 78
4, 80160, Note_on_c, 0, 48, 0
4, 80160, Note_on_c, 0, 45, 0
4, 80160, Note_on_c, 0, 38, 0
4, 80160, Note_on_c, 0, 38, 78
4, 80160, Note_on_c, 0, 42, 78
4, 80160, Note_on_c, 0, 45, 78
4, 80400, Note_on_c, 0, 45, 0
4, 80400, Note_on_c, 0, 42, 0
4, 80400, Note_on_c, 0, 38, 0
4, 80400, Note_on_c, 0, 38, 78
4, 80400, Note_on_c, 0, 42, 78
4, 80400, Note_on_c, 0, 45, 78
4, 80640, Note_on_c, 0, 45, 0
4, 80640, Note_on_c, 0, 42, 0
4, 80640, Note_on_c, 0, 38, 0
4, 80640, Note_on_c, 0, 38, 78
4, 80640, Note_on_c, 0, 43, 78
4, 80640, Note_on_c, 0, 46, 78
4, 80880, Note_on_c, 0, 46, 0
4, 80880, Note_on_c, 0, 43, 0
4, 80880, Note_on_c, 0, 38, 0
4, 80880, Note_on_c, 0, 38, 78
4, 80880, Note_on_c, 0, 43, 78
4, 80880, Note_on_c, 0, 46, 78
4, 81120, Note_on_c, 0, 46, 0
4, 81120, Note_on_c, 0, 43, 0
4, 81120, Note_on_c, 0, 38, 0
4, 81120, Note_on_c, 0, 38, 78
4, 81120, Note_on_c, 0, 43, 78
4, 81120, Note_on_c, 0, 46, 78
4, 81360, Note_on_c, 0, 46, 0
4, 81360, Note_on_c, 0, 43, 0
4, 81360, Note_on_c, 0, 38, 0
4, 81360, Note_on_c, 0, 38, 78
4, 81360, Note_on_c, 0, 43, 78
4, 81360, Note_on_c, 0, 46, 78
4, 81600, Note_on_c, 0, 46, 0
4, 81600, Note_on_c, 0, 43, 0
4, 81600, Note_on_c, 0, 38, 0
4, 81600, Note_on_c, 0, 38, 78
4, 81600, Note_on_c, 0, 45, 78
4, 81600, Note_on_c, 0, 48, 78
4, 81840, Note_on_c, 0, 48, 0
4, 81840, Note_on_c, 0, 45, 0
4, 81840, Note_on_c, 0, 38, 0
4, 81840, Note_on_c, 0, 38, 78
4, 81840, Note_on_c, 0, 45, 78
4, 81840, Note_on_c, 0, 48, 78
4, 82080, Note_on_c, 0, 48, 0
4, 82080, Note_on_c, 0, 45, 0
4, 82080, Note_on_c, 0, 38, 0
4, 82080, Note_on_c, 0, 38, 78
4, 82080, Note_on_c, 0, 42, 78
4, 82080, Note_on_c, 0, 45, 78
4, 82320, Note_on_c, 0, 45, 0
4, 82320, Note_on_c, 0, 42, 0
4, 82320, Note_on_c, 0, 38, 0
4, 82320, Note_on_c, 0, 38, 78
4, 82320, Note_on_c, 0, 42, 78
4, 82320, Note_on_c, 0, 45, 78
4, 82560, Note_on_c, 0, 45, 0
4, 82560, Note_on_c, 0, 42, 0
4, 82560, Note_on_c, 0, 38, 0
4, 82560, Note_on_c, 0, 38, 78
4, 82560, Note_on_c, 0, 43, 78
4, 82560, Note_on_c, 0, 46, 78
4, 82800, Note_on_c, 0, 46, 0
4, 82800, Note_on_c, 0, 43, 0
4, 82800, Note_on_c, 0, 38, 0
4, 82800, Note_on_c, 0, 38, 78
4, 82800, Note_on_c, 0, 43, 78
4, 82800, Note_on_c, 0, 46, 78
4, 83280, Note_on_c, 0, 46, 0
4, 83280, Note_on_c, 0, 43, 0
4, 83280, Note_on_c, 0, 38, 0
4, 83280, Note_on_c, 0, 38, 78
4, 83280, Note_on_c, 0, 43, 78
4, 83280, Note_on_c, 0, 46, 78
4, 83760, Note_on_c, 0, 46, 0
4, 83760, Note_on_c, 0, 43, 0
4, 83760, Note_on_c, 0, 38, 0
4, 83760, Note_on_c, 0, 38, 78
4, 83760, Note_on_c, 0, 43, 78
4, 83760, Note_on_c, 0, 46, 78
4, 84240, Note_on_c, 0, 46, 0
4, 84240, Note_on_c, 0, 43, 0
4, 84240, Note_on_c, 0, 38, 0
4, 84240, Note_on_c, 0, 38, 78
4, 84240, Note_on_c, 0, 43, 78
4, 84240, Note_on_c, 0, 46, 78
4, 84720, Note_on_c, 0, 46, 0
4, 84720, Note_on_c, 0, 43, 0
4, 84720, Note_on_c, 0, 38, 0
4, 84720, Note_on_c, 0, 38, 78
4, 84720, Note_on_c, 0, 43, 78
4, 84720, Note_on_c, 0, 46, 78
4, 85200, Note_on_c, 0, 46, 0
4, 85200, Note_on_c, 0, 43, 0
4, 85200, Note_on_c, 0, 38, 0
4, 85200, Note_on_c, 0, 38, 78
4, 85200, Note_on_c, 0, 43, 78
4, 85200, Note_on_c, 0, 46, 78
4, 85440, Note_on_c, 0, 46, 0
4, 85440, Note_on_c, 0, 43, 0
4, 85440, Note_on_c, 0, 38, 0
4, 85440, Note_on_c, 0, 37, 78
4, 85440, Note_on_c, 0, 43, 78
4, 85440, Note_on_c, 0, 46, 78
4, 85680, Note_on_c, 0, 46, 0
4, 85680, Note_on_c, 0, 43, 0
4, 85680, Note_on_c, 0, 37, 0
4, 85680, Note_on_c, 0, 61, 78
4, 85800, Note_on_c, 0, 61, 0
4, 85800, Note_on_c, 0, 64, 78
4, 85920, Note_on_c, 0, 64, 0
4, 85920, Note_on_c, 0, 61, 78
4, 86160, Note_on_c, 0, 61, 0
4, 86160, Note_on_c, 0, 61, 78
4, 86280, Note_on_c, 0, 61, 0
4, 86280, Note_on_c, 0, 64, 78
4, 86400, Note_on_c, 0, 64, 0
4, 86400, Note_on_c, 0, 61, 78
4, 86640, Note_on_c, 0, 61, 0
4, 86640, Note_on_c, 0, 58, 78
4, 86760, Note_on_c, 0, 58, 0
4, 86760, Note_on_c, 0, 61, 78
4, 86880, Note_on_c, 0, 61, 0
4, 86880, Note_on_c, 0, 58, 78
4, 87120, Note_on_c, 0, 58, 0
4, 87120, Note_on_c, 0, 55, 78
4, 87240, Note_on_c, 0, 55, 0
4, 87240, Note_on_c, 0, 58, 78
4, 87360, Note_on_c, 0, 58, 0
4, 87360, Note_on_c, 0, 55, 78
4, 87600, Note_on_c, 0, 55, 0
4, 87600, Note_on_c, 0, 55, 104
4, 87600, Note_on_c, 0, 58, 104
4, 87840, Note_on_c, 0, 58, 0
4, 87840, Note_on_c, 0, 55, 0
4, 88080, Note_on_c, 0, 52, 104
4, 88080, Note_on_c, 0, 55, 104
4, 88320, Note_on_c, 0, 55, 0
4, 88320, Note_on_c, 0, 52, 0
4, 88560, Note_on_c, 0, 49, 104
4, 88560, Note_on_c, 0, 52, 104
4, 88800, Note_on_c, 0, 52, 0
4, 88800, Note_on_c, 0, 49, 0
4, 89040, Note_on_c, 0, 46, 104
4, 89040, Note_on_c, 0, 49, 104
4, 89280, Note_on_c, 0, 49, 0
4, 89280, Note_on_c, 0, 46, 0
4, 89520, Note_on_c, 0, 61, 78
4, 89640, Note_on_c, 0, 61, 0
4, 89640, Note_on_c, 0, 64, 78
4, 89760, Note_on_c, 0, 64, 0
4, 89760, Note_on_c, 0, 61, 78
4, 90000, Note_on_c, 0, 61, 0
4, 90000, Note_on_c, 0, 61, 78
4, 90120, Note_on_c, 0, 61, 0
4, 90120, Note_on_c, 0, 64, 78
4, 90240, Note_on_c, 0, 64, 0
4, 90240, Note_on_c, 0, 61, 78
4, 90480, Note_on_c, 0, 61, 0
4, 90480, Note_on_c, 0, 58, 78
4, 90600, Note_on_c, 0, 58, 0
4, 90600, Note_on_c, 0, 61, 78
4, 90720, Note_on_c, 0, 61, 0
4, 90720, Note_on_c, 0, 58, 78
4, 90960, Note_on_c, 0, 58, 0
4, 90960, Note_on_c, 0, 55, 78
4, 91080, Note_on_c, 0, 55, 0
4, 91080, Note_on_c, 0, 58, 78
4, 91200, Note_on_c, 0, 58, 0
4, 91200, Note_on_c, 0, 55, 78
4, 91440, Note_on_c, 0, 55, 0
4, 91440, Note_on_c, 0, 55, 104
4, 91440, Note_on_c, 0, 58, 104
4, 91680, Note_on_c, 0, 58, 0
4, 91680, Note_on_c, 0, 55, 0
4, 91920, Note_on_c, 0, 52, 104
4, 91920, Note_on_c, 0, 55, 104
4, 92160, Note_on_c, 0, 55, 0
4, 92160, Note_on_c, 0, 52, 0
4, 92400, Note_on_c, 0, 49, 104
4, 92400, Note_on_c, 0, 52, 104
4, 92640, Note_on_c, 0, 52, 0
4, 92640, Note_on_c, 0, 49, 0
4, 92880, Note_on_c, 0, 46, 104
4, 92880, Note_on_c, 0, 49, 104
4, 93120, Note_on_c, 0, 49, 0
4, 93120, Note_on_c, 0, 46, 0
4, 93360, Note_on_c, 0, 61, 78
4, 93480, Note_on_c, 0, 61, 0
4, 93480, Note_on_c, 0, 64, 78
4, 93600, Note_on_c, 0, 64, 0
4, 93600, Note_on_c, 0, 61, 78
4, 93840, Note_on_c, 0, 61, 0
4, 93840, Note_on_c, 0, 61, 78
4, 93960, Note_on_c, 0, 61, 0
4, 93960, Note_on_c, 0, 64, 78
4, 94080, Note_on_c, 0, 64, 0
4, 94080, Note_on_c, 0, 61, 78
4, 94320, Note_on_c, 0, 61, 0
4, 94320, Note_on_c, 0, 58, 78
4, 94440, Note_on_c, 0, 58, 0
4, 94440, Note_on_c, 0, 61, 78
4, 94560, Note_on_c, 0, 61, 0
4, 94560, Note_on_c, 0, 58, 78
4, 94800, Note_on_c, 0, 58, 0
4, 94800, Note_on_c, 0, 58, 78
4, 94800, Note_on_c, 0, 61, 78
4, 94800, Note_on_c, 0, 64, 78
4, 95040, Note_on_c, 0, 64, 0
4, 95040, Note_on_c, 0, 61, 0
4, 95040, Note_on_c, 0, 58, 0
4, 95040, Note_on_c, 0, 57, 104
4, 95040, Note_on_c, 0, 62, 104
4, 95040, Note_on_c, 0, 65, 104
4, 95280, Note_on_c, 0, 65, 0
4, 95280, Note_on_c, 0, 62, 0
4, 95280, Note_on_c, 0, 57, 0
4, 95280, Note_on_c, 0, 55, 104
4, 95280, Note_on_c, 0, 58, 104
4, 95280, Note_on_c, 0, 64, 104
4, 95520, Note_on_c, 0, 64, 0
4, 95520, Note_on_c, 0, 58, 0
4, 95520, Note_on_c, 0, 55, 0
4, 95520, Note_on_c, 0, 53, 104
4, 95520, Note_on_c, 0, 57, 104
4, 95520, Note_on_c, 0, 62, 104
4, 95760, Note_on_c, 0, 62, 0
4, 95760, Note_on_c, 0, 57, 0
4, 95760, Note_on_c, 0, 53, 0
4, 95760, Note_on_c, 0, 52, 104
4, 95760, Note_on_c, 0, 55, 104
4, 95760, Note_on_c, 0, 61, 104
4, 96000, Note_on_c, 0, 61, 0
4, 96000, Note_on_c, 0, 55, 0
4, 96000, Note_on_c, 0, 52, 0
4, 96000, Note_on_c, 0, 50, 104
4, 96000, Note_on_c, 0, 53, 104
4, 96000, Note_on_c, 0, 59, 104
4, 96240, Note_on_c, 0, 59, 0
4, 96240, Note_on_c, 0, 53, 0
4, 96240, Note_on_c, 0, 50, 0
4, 96240, Note_on_c, 0, 49, 104
4, 96240, Note_on_c, 0, 52, 104
4, 96240, Note_on_c, 0, 57, 104
4, 96480, Note_on_c, 0, 57, 0
4, 96480, Note_on_c, 0, 52, 0
4, 96480, Note_on_c, 0, 49, 0
4, 96480, Note_on_c, 0, 50, 104
4, 96480, Note_on_c, 0, 53, 104
4, 96480, Note_on_c, 0, 59, 104
4, 96720, Note_on_c, 0, 59, 0
4, 96720, Note_on_c, 0, 53, 0
4, 96720, Note_on_c, 0, 50, 0
4, 96720, Note_on_c, 0, 52, 104
4, 96720, Note_on_c, 0, 55, 104
4, 96720, Note_on_c, 0, 61, 104
4, 96960, Note_on_c, 0, 61, 0
4, 96960, Note_on_c, 0, 55, 0
4, 96960, Note_on_c, 0, 52, 0
4, 96960, Note_on_c, 0, 53, 104
4, 96960, Note_on_c, 0, 57, 104
4, 96960, Note_on_c, 0, 62, 104
4, 97200, Note_on_c, 0, 62, 0
4, 97200, Note_on_c, 0, 57, 0
4, 97200, Note_on_c, 0, 53, 0
4, 97200, Note_on_c, 0, 65, 78
4, 97247, Note_on_c, 0, 65, 0
4, 97440, Note_on_c, 0, 65, 78
4, 97487, Note_on_c, 0, 65, 0
4, 97680, Note_on_c, 0, 64, 78
4, 97727, Note_on_c, 0, 64, 0
4, 97920, Note_on_c, 0, 64, 78
4, 97967, Note_on_c, 0, 64, 0
4, 98160, Note_on_c, 0, 62, 78
4, 98280, Note_on_c, 0, 62, 0
4, 98280, Note_on_c, 0, 65, 78
4, 98400, Note_on_c, 0, 65, 0
4, 98400, Note_on_c, 0, 62, 78
4, 98640, Note_on_c, 0, 62, 0
4, 98880, Note_on_c, 0, 45, 78
4, 99600, Note_on_c, 0, 45, 0
4, 99600, Note_on_c, 0, 52, 78
4, 99840, Note_on_c, 0, 52, 0
4, 99840, Note_on_c, 0, 45, 78
4, 100560, Note_on_c, 0, 45, 0
4, 100560, Note_on_c, 0, 52, 78
4, 100800, Note_on_c, 0, 52, 0
4, 100800, Note_on_c, 0, 45, 78
4, 101040, Note_on_c, 0, 45, 0
4, 101520, Note_on_c, 0, 69, 78
4, 101640, Note_on_c, 0, 69, 0
4, 101640, Note_on_c, 0, 72, 78
4, 101760, Note_on_c, 0, 72, 0
4, 101760, Note_on_c, 0, 69, 78
4, 102000, Note_on_c, 0, 69, 0
4, 102000, Note_on_c, 0, 69, 78
4, 102120, Note_on_c, 0, 69, 0
4, 102120, Note_on_c, 0, 72, 78
4, 102240, Note_on_c, 0, 72, 0
4, 102240, Note_on_c, 0, 69, 78
4, 102480, Note_on_c, 0, 69, 0
4, 102480, Note_on_c, 0, 69, 78
4, 102480, Note_on_c, 0, 72, 78
4, 102720, Note_on_c, 0, 72, 0
4, 102720, Note_on_c, 0, 69, 0
4, 102720, Note_on_c, 0, 68, 78
4, 102767, Note_on_c, 0, 68, 0
4, 102960, Note_on_c, 0, 66, 78
4, 103007, Note_on_c, 0, 66, 0
4, 103200, Note_on_c, 0, 64, 78
4, 103247, Note_on_c, 0, 64, 0
4, 103440, Note_on_c, 0, 63, 78
4, 103440, Note_on_c, 0, 66, 78
4, 103440, Note_on_c, 0, 72, 78
4, 103487, Note_on_c, 0, 72, 0
4, 103487, Note_on_c, 0, 66, 0
4, 103487, Note_on_c, 0, 63, 0
4, 103680, Note_on_c, 0, 61, 104
4, 103680, Note_on_c, 0, 64, 104
4, 103680, Note_on_c, 0, 70, 104
4, 103920, Note_on_c, 0, 70, 0
4, 103920, Note_on_c, 0, 64, 0
4, 103920, Note_on_c, 0, 61, 0
4, 103920, Note_on_c, 0, 60, 104
4, 103920, Note_on_c, 0, 63, 104
4, 103920, Note_on_c, 0, 68, 104
4, 104160, Note_on_c, 0, 68, 0
4, 104160, Note_on_c, 0, 63, 0
4, 104160, Note_on_c, 0, 60, 0
4, 104160, Note_on_c, 0, 61, 104
4, 104160, Note_on_c, 0, 64, 104
4, 104160, Note_on_c, 0, 70, 104
4, 104400, Note_on_c, 0, 70, 0
4, 104400, Note_on_c, 0, 64, 0
4, 104400, Note_on_c, 0, 61, 0
4, 104400, Note_on_c, 0, 63, 104
4, 104400, Note_on_c, 0, 66, 104
4, 104400, Note_on_c, 0, 72, 104
4, 104640, Note_on_c, 0, 72, 0
4, 104640, Note_on_c, 0, 66, 0
4, 104640, Note_on_c, 0, 63, 0
4, 104640, Note_on_c, 0, 64, 104
4, 104640, Note_on_c, 0, 68, 104
4, 104880, Note_on_c, 0, 68, 0
4, 104880, Note_on_c, 0, 64, 0
4, 104880, Note_on_c, 0, 76, 78
4, 105120, Note_on_c, 0, 76, 0
4, 105120, Note_on_c, 0, 76, 78
4, 105167, Note_on_c, 0, 76, 0
4, 105360, Note_on_c, 0, 75, 78
4, 105407, Note_on_c, 0, 75, 0
4, 105600, Note_on_c, 0, 75, 78
4, 105647, Note_on_c, 0, 75, 0
4, 105840, Note_on_c, 0, 73, 78
4, 105960, Note_on_c, 0, 73, 0
4, 105960, Note_on_c, 0, 76, 78
4, 106080, Note_on_c, 0, 76, 0
4, 106080, Note_on_c, 0, 73, 78
4, 106320, Note_on_c, 0, 73, 0
4, 106560, Note_on_c, 0, 44, 78
4, 106560, Note_on_c, 0, 56, 78
4, 107280, Note_on_c, 0, 56, 0
4, 107280, Note_on_c, 0, 44, 0
4, 107280, Note_on_c, 0, 51, 78
4, 107520, Note_on_c, 0, 51, 0
4, 107520, Note_on_c, 0, 42, 78
4, 107520, Note_on_c, 0, 54, 78
4, 108240, Note_on_c, 0, 54, 0
4, 108240, Note_on_c, 0, 42, 0
4, 108240, Note_on_c, 0, 51, 78
4, 108480, Note_on_c, 0, 51, 0
4, 108480, Note_on_c, 0, 43, 78
4, 108480, Note_on_c, 0, 55, 78
4, 108720, Note_on_c, 0, 55, 0
4, 108720, Note_on_c, 0, 43, 0
4, 108960, Note_on_c, 0, 39, 104
4, 109200, Note_on_c, 0, 39, 0
4, 109200, Note_on_c, 0, 41, 104
4, 109440, Note_on_c, 0, 41, 0
4, 109440, Note_on_c, 0, 43, 104
4, 109920, Note_on_c, 0, 43, 0
4, 109920, Note_on_c, 0, 44, 104
4, 110400, Note_on_c, 0, 44, 0
4, 110400, Note_on_c, 0, 46, 104
4, 110880, Note_on_c, 0, 46, 0
4, 110880, Note_on_c, 0, 47, 104
4, 111120, Note_on_c, 0, 47, 0
4, 111120, Note_on_c, 0, 49, 104
4, 111360, Note_on_c, 0, 49, 0
4, 111360, Note_on_c, 0, 51, 78
4, 111840, Note_on_c, 0, 51, 0
4, 111840, Note_on_c, 0, 52, 78
4, 112320, Note_on_c, 0, 52, 0
4, 112320, Note_on_c, 0, 51, 78
4, 112560, Note_on_c, 0, 51, 0
4, 112560, Note_on_c, 0, 51, 104
4, 112800, Note_on_c, 0, 51, 0
4, 112800, Note_on_c, 0, 52, 78
4, 113040, Note_on_c, 0, 52, 0
4, 113040, Note_on_c, 0, 51, 104
4, 113280, Note_on_c, 0, 51, 0
4, 113280, Note_on_c, 0, 52, 78
4, 113520, Note_on_c, 0, 52, 0
4, 113520, Note_on_c, 0, 51, 104
4, 113760, Note_on_c, 0, 51, 0
4, 113760, Note_on_c, 0, 52, 78
4, 114000, Note_on_c, 0, 52, 0
4, 114000, Note_on_c, 0, 51, 104
4, 114240, Note_on_c, 0, 51, 0
4, 114240, Note_on_c, 0, 52, 78
4, 114480, Note_on_c, 0, 52, 0
4, 114480, Note_on_c, 0, 59, 78
4, 114960, Note_on_c, 0, 59, 0
4, 114960, Note_on_c, 0, 60, 78
4, 115440, Note_on_c, 0, 60, 0
4, 115440, Note_on_c, 0, 48, 78
4, 115440, Note_on_c, 0, 52, 78
4, 115920, Note_on_c, 0, 52, 0
4, 115920, Note_on_c, 0, 48, 0
4, 115920, Note_on_c, 0, 44, 78
4, 115920, Note_on_c, 0, 51, 78
4, 116400, Note_on_c, 0, 51, 0
4, 116400, Note_on_c, 0, 44, 0
4, 116640, Note_on_c, 0, 39, 104
4, 116880, Note_on_c, 0, 39, 0
4, 116880, Note_on_c, 0, 41, 104
4, 117120, Note_on_c, 0, 41, 0
4, 117120, Note_on_c, 0, 43, 104
4, 117600, Note_on_c, 0, 43, 0
4, 117600, Note_on_c, 0, 44, 104
4, 118080, Note_on_c, 0, 44, 0
4, 118080, Note_on_c, 0, 46, 104
4, 118560, Note_on_c, 0, 46, 0
4, 118560, Note_on_c, 0, 47, 104
4, 118800, Note_on_c, 0, 47, 0
4, 118800, Note_on_c, 0, 49, 104
4, 119040, Note_on_c, 0, 49, 0
4, 119040, Note_on_c, 0, 51, 78
4, 119520, Note_on_c, 0, 51, 0
4, 119520, Note_on_c, 0, 52, 78
4, 120000, Note_on_c, 0, 52, 0
4, 120000, Note_on_c, 0, 51, 78
4, 120240, Note_on_c, 0, 51, 0
4, 120240, Note_on_c, 0, 51, 104
4, 120480, Note_on_c, 0, 51, 0
4, 120480, Note_on_c, 0, 52, 78
4, 120720, Note_on_c, 0, 52, 0
4, 120720, Note_on_c, 0, 51, 104
4, 120960, Note_on_c, 0, 51, 0
4, 120960, Note_on_c, 0, 52, 78
4, 121200, Note_on_c, 0, 52, 0
4, 121200, Note_on_c, 0, 51, 104
4, 121440, Note_on_c, 0, 51, 0
4, 121440, Note_on_c, 0, 52, 78
4, 121680, Note_on_c, 0, 52, 0
4, 121680, Note_on_c, 0, 51, 104
4, 121920, Note_on_c, 0, 51, 0
4, 121920, Note_on_c, 0, 52, 78
4, 122160, Note_on_c, 0, 52, 0
4, 122160, Note_on_c, 0, 59, 78
4, 122640, Note_on_c, 0, 59, 0
4, 122640, Note_on_c, 0, 60, 78
4, 123120, Note_on_c, 0, 60, 0
4, 123120, Note_on_c, 0, 48, 78
4, 123120, Note_on_c, 0, 52, 78
4, 123600, Note_on_c, 0, 52, 0
4, 123600, Note_on_c, 0, 48, 0
4, 123600, Note_on_c, 0, 44, 78
4, 123600, Note_on_c, 0, 51, 78
4, 124080, Note_on_c, 0, 51, 0
4, 124080, Note_on_c, 0, 44, 0
4, 124080, Note_on_c, 0, 32, 78
4, 124080, Note_on_c, 0, 44, 78
4, 124320, Note_on_c, 0, 44, 0
4, 124320, Note_on_c, 0, 32, 0
4, 124320, Note_on_c, 0, 33, 78
4, 124320, Note_on_c, 0, 45, 78
4, 124560, Note_on_c, 0, 45, 0
4, 124560, Note_on_c, 0, 33, 0
4, 124560, Note_on_c, 0, 35, 78
4, 124560, Note_on_c, 0, 47, 78
4, 124800, Note_on_c, 0, 47, 0
4, 124800, Note_on_c, 0, 35, 0
4, 124800, Note_on_c, 0, 36, 78
4, 124800, Note_on_c, 0, 48, 78
4, 125040, Note_on_c, 0, 48, 0
4, 125040, Note_on_c, 0, 36, 0
4, 125040, Note_on_c, 0, 37, 78
4, 125040, Note_on_c, 0, 49, 78
4, 125280, Note_on_c, 0, 49, 0
4, 125280, Note_on_c, 0, 37, 0
4, 125280, Note_on_c, 0, 38, 78
4, 125280, Note_on_c, 0, 50, 78
4, 125520, Note_on_c, 0, 50, 0
4, 125520, Note_on_c, 0, 38, 0
4, 125520, Note_on_c, 0, 40, 78
4, 125520, Note_on_c, 0, 52, 78
4, 125760, Note_on_c, 0, 52, 0
4, 125760, Note_on_c, 0, 40, 0
4, 125760, Note_on_c, 0, 41, 78
4, 125760, Note_on_c, 0, 53, 78
4, 126000, Note_on_c, 0, 53, 0
4, 126000, Note_on_c, 0, 41, 0
4, 126000, Note_on_c, 0, 41, 78
4, 126000, Note_on_c, 0, 45, 78
4, 126240, Note_on_c, 0, 45, 0
4, 126240, Note_on_c, 0, 41, 0
4, 126240, Note_on_c, 0, 41, 78
4, 126240, Note_on_c, 0, 45, 78
4, 126480, Note_on_c, 0, 45, 0
4, 126480, Note_on_c, 0, 41, 0
4, 126480, Note_on_c, 0, 41, 78
4, 126480, Note_on_c, 0, 45, 78
4, 126720, Note_on_c, 0, 45, 0
4, 126720, Note_on_c, 0, 41, 0
4, 126720, Note_on_c, 0, 41, 78
4, 126720, Note_on_c, 0, 45, 78
4, 126960, Note_on_c, 0, 45, 0
4, 126960, Note_on_c, 0, 41, 0
4, 126960, Note_on_c, 0, 41, 78
4, 126960, Note_on_c, 0, 45, 78
4, 127200, Note_on_c, 0, 45, 0
4, 127200, Note_on_c, 0, 41, 0
4, 127200, Note_on_c, 0, 41, 65
4, 127200, Note_on_c, 0, 45, 65
4, 127440, Note_on_c, 0, 45, 0
4, 127440, Note_on_c, 0, 41, 0
4, 127440, Note_on_c, 0, 41, 65
4, 127440, Note_on_c, 0, 45, 65
4, 127680, Note_on_c, 0, 45, 0
4, 127680, Note_on_c, 0, 41, 0
4, 127680, Note_on_c, 0, 41, 65
4, 127680, Note_on_c, 0, 45, 65
4, 127920, Note_on_c, 0, 45, 0
4, 127920, Note_on_c, 0, 41, 0
4, 127920, Note_on_c, 0, 41, 52
4, 127920, Note_on_c, 0, 45, 52
4, 128160, Note_on_c, 0, 45, 0
4, 128160, Note_on_c, 0, 41, 0
4, 128160, Note_on_c, 0, 41, 52
4, 128160, Note_on_c, 0, 45, 52
4, 128400, Note_on_c, 0, 45, 0
4, 128400, Note_on_c, 0, 41, 0
4, 128400, Note_on_c, 0, 41, 39
4, 128400, Note_on_c, 0, 45, 39
4, 128640, Note_on_c, 0, 45, 0
4, 128640, Note_on_c, 0, 41, 0
4, 128640, Note_on_c, 0, 41, 39
4, 128640, Note_on_c, 0, 45, 39
4, 128880, Note_on_c, 0, 45, 0
4, 128880, Note_on_c, 0, 41, 0
4, 128880, Note_on_c, 0, 41, 39
4, 128880, Note_on_c, 0, 45, 39
4, 129120, Note_on_c, 0, 45, 0
4, 129120, Note_on_c, 0, 41, 0
4, 129120, Note_on_c, 0, 41, 39
4, 129120, Note_on_c, 0, 45, 39
4, 129360, Note_on_c, 0, 45, 0
4, 129360, Note_on_c, 0, 41, 0
4, 129360, Note_on_c, 0, 41, 39
4, 129360, Note_on_c, 0, 45, 39
4, 129600, Note_on_c, 0, 45, 0
4, 129600, Note_on_c, 0, 41, 0
4, 129600, Note_on_c, 0, 41, 39
4, 129600, Note_on_c, 0, 45, 39
4, 129840, Note_on_c, 0, 45, 0
4, 129840, Note_on_c, 0, 41, 0
4, 129840, Note_on_c, 0, 41, 39
4, 129840, Note_on_c, 0, 45, 39
4, 130080, Note_on_c, 0, 45, 0
4, 130080, Note_on_c, 0, 41, 0
4, 130080, Note_on_c, 0, 41, 39
4, 130080, Note_on_c, 0, 45, 39
4, 130320, Note_on_c, 0, 45, 0
4, 130320, Note_on_c, 0, 41, 0
4, 130320, Note_on_c, 0, 41, 39
4, 130320, Note_on_c, 0, 45, 39
4, 130560, Note_on_c, 0, 45, 0
4, 130560, Note_on_c, 0, 41, 0
4, 130560, Note_on_c, 0, 41, 39
4, 130560, Note_on_c, 0, 45, 39
4, 130800, Note_on_c, 0, 45, 0
4, 130800, Note_on_c, 0, 41, 0
4, 130800, Note_on_c, 0, 41, 39
4, 130800, Note_on_c, 0, 45, 39
4, 131040, Note_on_c, 0, 45, 0
4, 131040, Note_on_c, 0, 41, 0
4, 131040, Note_on_c, 0, 41, 39
4, 131040, Note_on_c, 0, 45, 39
4, 131280, Note_on_c, 0, 45, 0
4, 131280, Note_on_c, 0, 41, 0
4, 131280, Note_on_c, 0, 41, 39
4, 131280, Note_on_c, 0, 45, 39
4, 131520, Note_on_c, 0, 45, 0
4, 131520, Note_on_c, 0, 41, 0
4, 131520, Note_on_c, 0, 41, 39
4, 131520, Note_on_c, 0, 45, 39
4, 131760, Note_on_c, 0, 45, 0
4, 131760, Note_on_c, 0, 41, 0
4, 131760, Note_on_c, 0, 41, 39
4, 131760, Note_on_c, 0, 45, 39
4, 132000, Note_on_c, 0, 45, 0
4, 132000, Note_on_c, 0, 41, 0
4, 132000, Note_on_c, 0, 41, 39
4, 132000, Note_on_c, 0, 45, 39
4, 132240, Note_on_c, 0, 45, 0
4, 132240, Note_on_c, 0, 41, 0
4, 132240, Note_on_c, 0, 41, 39
4, 132240, Note_on_c, 0, 45, 39
4, 132480, Note_on_c, 0, 45, 0
4, 132480, Note_on_c, 0, 41, 0
4, 132480, Note_on_c, 0, 41, 39
4, 132480, Note_on_c, 0, 45, 39
4, 132720, Note_on_c, 0, 45, 0
4, 132720, Note_on_c, 0, 41, 0
4, 132720, Note_on_c, 0, 41, 39
4, 132720, Note_on_c, 0, 45, 39
4, 132960, Note_on_c, 0, 45, 0
4, 132960, Note_on_c, 0, 41, 0
4, 132960, Note_on_c, 0, 41, 39
4, 132960, Note_on_c, 0, 45, 39
4, 133200, Note_on_c, 0, 45, 0
4, 133200, Note_on_c, 0, 41, 0
4, 133200, Note_on_c, 0, 41, 39
4, 133200, Note_on_c, 0, 45, 39
4, 133440, Note_on_c, 0, 45, 0
4, 133440, Note_on_c, 0, 41, 0
4, 133440, Note_on_c, 0, 41, 39
4, 133440, Note_on_c, 0, 45, 39
4, 133680, Note_on_c, 0, 45, 0
4, 133680, Note_on_c, 0, 41, 0
4, 133680, Note_on_c, 0, 41, 39
4, 133680, Note_on_c, 0, 45, 39
4, 133920, Note_on_c, 0, 45, 0
4, 133920, Note_on_c, 0, 41, 0
4, 133920, Note_on_c, 0, 41, 39
4, 133920, Note_on_c, 0, 45, 39
4, 134160, Note_on_c, 0, 45, 0
4, 134160, Note_on_c, 0, 41, 0
4, 134160, Note_on_c, 0, 41, 39
4, 134160, Note_on_c, 0, 45, 39
4, 134400, Note_on_c, 0, 45, 0
4, 134400, Note_on_c, 0, 41, 0
4, 134400, Note_on_c, 0, 41, 39
4, 134400, Note_on_c, 0, 45, 39
4, 134640, Note_on_c, 0, 45, 0
4, 134640, Note_on_c, 0, 41, 0
4, 134640, Note_on_c, 0, 41, 39
4, 134640, Note_on_c, 0, 45, 39
4, 134880, Note_on_c, 0, 45, 0
4, 134880, Note_on_c, 0, 41, 0
4, 134880, Note_on_c, 0, 41, 39
4, 134880, Note_on_c, 0, 45, 39
4, 135120, Note_on_c, 0, 45, 0
4, 135120, Note_on_c, 0, 41, 0
4, 135120, Note_on_c, 0, 41, 39
4, 135120, Note_on_c, 0, 45, 39
4, 135360, Note_on_c, 0, 45, 0
4, 135360, Note_on_c, 0, 41, 0
4, 135360, Note_on_c, 0, 41, 39
4, 135360, Note_on_c, 0, 45, 39
4, 135600, Note_on_c, 0, 45, 0
4, 135600, Note_on_c, 0, 41, 0
4, 135600, Note_on_c, 0, 41, 39
4, 135600, Note_on_c, 0, 45, 39
4, 135840, Note_on_c, 0, 45, 0
4, 135840, Note_on_c, 0, 41, 0
4, 135840, Note_on_c, 0, 41, 39
4, 135840, Note_on_c, 0, 45, 39
4, 136080, Note_on_c, 0, 45, 0
4, 136080, Note_on_c, 0, 41, 0
4, 136080, Note_on_c, 0, 41, 39
4, 136080, Note_on_c, 0, 45, 39
4, 136320, Note_on_c, 0, 45, 0
4, 136320, Note_on_c, 0, 41, 0
4, 136320, Note_on_c, 0, 38, 39
4, 136320, Note_on_c, 0, 41, 39
4, 136560, Note_on_c, 0, 41, 0
4, 136560, Note_on_c, 0, 38, 0
4, 136560, Note_on_c, 0, 38, 39
4, 136560, Note_on_c, 0, 41, 39
4, 136800, Note_on_c, 0, 41, 0
4, 136800, Note_on_c, 0, 38, 0
4, 136800, Note_on_c, 0, 38, 39
4, 136800, Note_on_c, 0, 41, 39
4, 137040, Note_on_c, 0, 41, 0
4, 137040, Note_on_c, 0, 38, 0
4, 137040, Note_on_c, 0, 38, 39
4, 137040, Note_on_c, 0, 41, 39
4, 137280, Note_on_c, 0, 41, 0
4, 137280, Note_on_c, 0, 38, 0
4, 137280, Note_on_c, 0, 39, 39
4, 137280, Note_on_c, 0, 41, 39
4, 137520, Note_on_c, 0, 41, 0
4, 137520, Note_on_c, 0, 39, 0
4, 137520, Note_on_c, 0, 39, 39
4, 137520, Note_on_c, 0, 41, 39
4, 137760, Note_on_c, 0, 41, 0
4, 137760, Note_on_c, 0, 39, 0
4, 137760, Note_on_c, 0, 39, 39
4, 137760, Note_on_c, 0, 41, 39
4, 138000, Note_on_c, 0, 41, 0
4, 138000, Note_on_c, 0, 39, 0
4, 138000, Note_on_c, 0, 39, 39
4, 138000, Note_on_c, 0, 41, 39
4, 138240, Note_on_c, 0, 41, 0
4, 138240, Note_on_c, 0, 39, 0
4, 138240, Note_on_c, 0, 38, 39
4, 138240, Note_on_c, 0, 41, 39
4, 138480, Note_on_c, 0, 41, 0
4, 138480, Note_on_c, 0, 38, 0
4, 138480, Note_on_c, 0, 38, 39
4, 138480, Note_on_c, 0, 41, 39
4, 138720, Note_on_c, 0, 41, 0
4, 138720, Note_on_c, 0, 38, 0
4, 138720, Note_on_c, 0, 38, 39
4, 138720, Note_on_c, 0, 41, 39
4, 138960, Note_on_c, 0, 41, 0
4, 138960, Note_on_c, 0, 38, 0
4, 138960, Note_on_c, 0, 38, 39
4, 138960, Note_on_c, 0, 41, 39
4, 139200, Note_on_c, 0, 41, 0
4, 139200, Note_on_c, 0, 38, 0
4, 139200, Note_on_c, 0, 36, 39
4, 139200, Note_on_c, 0, 41, 39
4, 139440, Note_on_c, 0, 41, 0
4, 139440, Note_on_c, 0, 36, 0
4, 139440, Note_on_c, 0, 36, 39
4, 139440, Note_on_c, 0, 41, 39
4, 139680, Note_on_c, 0, 41, 0
4, 139680, Note_on_c, 0, 36, 0
4, 139680, Note_on_c, 0, 36, 39
4, 139680, Note_on_c, 0, 41, 39
4, 139920, Note_on_c, 0, 41, 0
4, 139920, Note_on_c, 0, 36, 0
4, 139920, Note_on_c, 0, 36, 39
4, 139920, Note_on_c, 0, 41, 39
4, 140160, Note_on_c, 0, 41, 0
4, 140160, Note_on_c, 0, 36, 0
4, 140160, Note_on_c, 0, 35, 39
4, 140160, Note_on_c, 0, 38, 39
4, 140400, Note_on_c, 0, 38, 0
4, 140400, Note_on_c, 0, 35, 0
4, 140400, Note_on_c, 0, 35, 39
4, 140400, Note_on_c, 0, 38, 39
4, 140640, Note_on_c, 0, 38, 0
4, 140640, Note_on_c, 0, 35, 0
4, 140640, Note_on_c, 0, 35, 39
4, 140640, Note_on_c, 0, 38, 39
4, 140880, Note_on_c, 0, 38, 0
4, 140880, Note_on_c, 0, 35, 0
4, 140880, Note_on_c, 0, 35, 39
4, 140880, Note_on_c, 0, 38, 39
4, 141120, Note_on_c, 0, 38, 0
4, 141120, Note_on_c, 0, 35, 0
4, 141120, Note_on_c, 0, 35, 39
4, 141120, Note_on_c, 0, 38, 39
4, 141360, Note_on_c, 0, 38, 0
4, 141360, Note_on_c, 0, 35, 0
4, 141360, Note_on_c, 0, 35, 39
4, 141360, Note_on_c, 0, 38, 39
4, 141600, Note_on_c, 0, 38, 0
4, 141600, Note_on_c, 0, 35, 0
4, 141600, Note_on_c, 0, 35, 39
4, 141600, Note_on_c, 0, 38, 39
4, 141840, Note_on_c, 0, 38, 0
4, 141840, Note_on_c, 0, 35, 0
4, 141840, Note_on_c, 0, 35, 39
4, 141840, Note_on_c, 0, 38, 39
4, 142080, Note_on_c, 0, 38, 0
4, 142080, Note_on_c, 0, 35, 0
4, 142080, Note_on_c, 0, 34, 39
4, 142320, Note_on_c, 0, 34, 0
4, 142320, Note_on_c, 0, 34, 39
4, 142560, Note_on_c, 0, 34, 0
4, 142560, Note_on_c, 0, 34, 39
4, 142560, Note_on_c, 0, 38, 39
4, 142800, Note_on_c, 0, 38, 0
4, 142800, Note_on_c, 0, 34, 0
4, 142800, Note_on_c, 0, 34, 39
4, 142800, Note_on_c, 0, 38, 39
4, 143040, Note_on_c, 0, 38, 0
4, 143040, Note_on_c, 0, 34, 0
4, 143040, Note_on_c, 0, 34, 52
4, 143040, Note_on_c, 0, 38, 52
4, 143280, Note_on_c, 0, 38, 0
4, 143280, Note_on_c, 0, 34, 0
4, 143280, Note_on_c, 0, 46, 52
4, 143280, Note_on_c, 0, 50, 52
4, 143520, Note_on_c, 0, 50, 0
4, 143520, Note_on_c, 0, 46, 0
4, 143520, Note_on_c, 0, 46, 52
4, 143520, Note_on_c, 0, 50, 52
4, 143760, Note_on_c, 0, 50, 0
4, 143760, Note_on_c, 0, 46, 0
4, 143760, Note_on_c, 0, 46, 52
4, 143760, Note_on_c, 0, 50, 52
4, 144000, Note_on_c, 0, 50, 0
4, 144000, Note_on_c, 0, 46, 0
4, 144000, Note_on_c, 0, 46, 52
4, 144000, Note_on_c, 0, 50, 52
4, 144240, Note_on_c, 0, 50, 0
4, 144240, Note_on_c, 0, 46, 0
4, 144240, Note_on_c, 0, 46, 52
4, 144240, Note_on_c, 0, 50, 52
4, 144480, Note_on_c, 0, 50, 0
4, 144480, Note_on_c, 0, 46, 0
4, 144480, Note_on_c, 0, 46, 52
4, 144480, Note_on_c, 0, 50, 52
4, 144720, Note_on_c, 0, 50, 0
4, 144720, Note_on_c, 0, 46, 0
4, 144720, Note_on_c, 0, 46, 52
4, 144720, Note_on_c, 0, 50, 52
4, 144960, Note_on_c, 0, 50, 0
4, 144960, Note_on_c, 0, 46, 0
4, 144960, Note_on_c, 0, 46, 52
4, 144960, Note_on_c, 0, 50, 52
4, 145200, Note_on_c, 0, 50, 0
4, 145200, Note_on_c, 0, 46, 0
4, 145200, Note_on_c, 0, 46, 52
4, 145200, Note_on_c, 0, 50, 52
4, 145440, Note_on_c, 0, 50, 0
4, 145440, Note_on_c, 0, 46, 0
4, 145440, Note_on_c, 0, 46, 52
4, 145440, Note_on_c, 0, 50, 52
4, 145680, Note_on_c, 0, 50, 0
4, 145680, Note_on_c, 0, 46, 0
4, 145680, Note_on_c, 0, 46, 52
4, 145680, Note_on_c, 0, 50, 52
4, 145920, Note_on_c, 0, 50, 0
4, 145920, Note_on_c, 0, 46, 0
4, 145920, Note_on_c, 0, 46, 52
4, 145920, Note_on_c, 0, 50, 52
4, 146160, Note_on_c, 0, 50, 0
4, 146160, Note_on_c, 0, 46, 0
4, 146160, Note_on_c, 0, 46, 52
4, 146160, Note_on_c, 0, 50, 52
4, 146400, Note_on_c, 0, 50, 0
4, 146400, Note_on_c, 0, 46, 0
4, 146400, Note_on_c, 0, 46, 52
4, 146400, Note_on_c, 0, 50, 52
4, 146640, Note_on_c, 0, 50, 0
4, 146640, Note_on_c, 0, 46, 0
4, 146640, Note_on_c, 0, 46, 52
4, 146640, Note_on_c, 0, 50, 52
4, 146880, Note_on_c, 0, 50, 0
4, 146880, Note_on_c, 0, 46, 0
4, 146880, Note_on_c, 0, 46, 52
4, 146880, Note_on_c, 0, 50, 52
4, 147120, Note_on_c, 0, 50, 0
4, 147120, Note_on_c, 0, 46, 0
4, 147120, Note_on_c, 0, 46, 52
4, 147120, Note_on_c, 0, 50, 52
4, 147360, Note_on_c, 0, 50, 0
4, 147360, Note_on_c, 0, 46, 0
4, 147360, Note_on_c, 0, 46, 52
4, 147360, Note_on_c, 0, 50, 52
4, 147600, Note_on_c, 0, 50, 0
4, 147600, Note_on_c, 0, 46, 0
4, 147600, Note_on_c, 0, 46, 52
4, 147600, Note_on_c, 0, 50, 52
4, 147840, Note_on_c, 0, 50, 0
4, 147840, Note_on_c, 0, 46, 0
4, 147840, Note_on_c, 0, 46, 52
4, 147840, Note_on_c, 0, 50, 52
4, 148080, Note_on_c, 0, 50, 0
4, 148080, Note_on_c, 0, 46, 0
4, 148080, Note_on_c, 0, 46, 52
4, 148080, Note_on_c, 0, 50, 52
4, 148320, Note_on_c, 0, 50, 0
4, 148320, Note_on_c, 0, 46, 0
4, 148320, Note_on_c, 0, 46, 52
4, 148320, Note_on_c, 0, 50, 52
4, 148560, Note_on_c, 0, 50, 0
4, 148560, Note_on_c, 0, 46, 0
4, 148560, Note_on_c, 0, 46, 52
4, 148560, Note_on_c, 0, 50, 52
4, 148800, Note_on_c, 0, 50, 0
4, 148800, Note_on_c, 0, 46, 0
4, 148800, Note_on_c, 0, 46, 52
4, 148800, Note_on_c, 0, 50, 52
4, 149040, Note_on_c, 0, 50, 0
4, 149040, Note_on_c, 0, 46, 0
4, 149040, Note_on_c, 0, 46, 52
4, 149040, Note_on_c, 0, 50, 52
4, 149280, Note_on_c, 0, 50, 0
4, 149280, Note_on_c, 0, 46, 0
4, 149280, Note_on_c, 0, 46, 52
4, 149280, Note_on_c, 0, 50, 52
4, 149520, Note_on_c, 0, 50, 0
4, 149520, Note_on_c, 0, 46, 0
4, 149520, Note_on_c, 0, 46, 52
4, 149520, Note_on_c, 0, 50, 52
4, 149760, Note_on_c, 0, 50, 0
4, 149760, Note_on_c, 0, 46, 0
4, 149760, Note_on_c, 0, 46, 52
4, 149760, Note_on_c, 0, 50, 52
4, 150000, Note_on_c, 0, 50, 0
4, 150000, Note_on_c, 0, 46, 0
4, 150000, Note_on_c, 0, 46, 52
4, 150000, Note_on_c, 0, 50, 52
4, 150240, Note_on_c, 0, 50, 0
4, 150240, Note_on_c, 0, 46, 0
4, 150240, Note_on_c, 0, 46, 52
4, 150240, Note_on_c, 0, 50, 52
4, 150480, Note_on_c, 0, 50, 0
4, 150480, Note_on_c, 0, 46, 0
4, 150480, Note_on_c, 0, 46, 52
4, 150480, Note_on_c, 0, 50, 52
4, 150720, Note_on_c, 0, 50, 0
4, 150720, Note_on_c, 0, 46, 0
4, 150720, Note_on_c, 0, 46, 52
4, 150720, Note_on_c, 0, 50, 52
4, 150960, Note_on_c, 0, 50, 0
4, 150960, Note_on_c, 0, 46, 0
4, 150960, Note_on_c, 0, 46, 52
4, 150960, Note_on_c, 0, 50, 52
4, 151200, Note_on_c, 0, 50, 0
4, 151200, Note_on_c, 0, 46, 0
4, 151200, Note_on_c, 0, 46, 52
4, 151200, Note_on_c, 0, 50, 52
4, 151440, Note_on_c, 0, 50, 0
4, 151440, Note_on_c, 0, 46, 0
4, 151440, Note_on_c, 0, 46, 52
4, 151440, Note_on_c, 0, 50, 52
4, 151680, Note_on_c, 0, 50, 0
4, 151680, Note_on_c, 0, 46, 0
4, 151680, Note_on_c, 0, 43, 52
4, 151680, Note_on_c, 0, 46, 52
4, 151920, Note_on_c, 0, 46, 0
4, 151920, Note_on_c, 0, 43, 0
4, 151920, Note_on_c, 0, 43, 52
4, 151920, Note_on_c, 0, 46, 52
4, 152160, Note_on_c, 0, 46, 0
4, 152160, Note_on_c, 0, 43, 0
4, 152160, Note_on_c, 0, 43, 52
4, 152160, Note_on_c, 0, 46, 52
4, 152400, Note_on_c, 0, 46, 0
4, 152400, Note_on_c, 0, 43, 0
4, 152400, Note_on_c, 0, 43, 52
4, 152400, Note_on_c, 0, 46, 52
4, 152640, Note_on_c, 0, 46, 0
4, 152640, Note_on_c, 0, 43, 0
4, 152640, Note_on_c, 0, 44, 52
4, 152640, Note_on_c, 0, 46, 52
4, 152880, Note_on_c, 0, 46, 0
4, 152880, Note_on_c, 0, 44, 0
4, 152880, Note_on_c, 0, 44, 52
4, 152880, Note_on_c, 0, 46, 52
4, 153120, Note_on_c, 0, 46, 0
4, 153120, Note_on_c, 0, 44, 0
4, 153120, Note_on_c, 0, 44, 52
4, 153120, Note_on_c, 0, 46, 52
4, 153360, Note_on_c, 0, 46, 0
4, 153360, Note_on_c, 0, 44, 0
4, 153360, Note_on_c, 0, 44, 52
4, 153360, Note_on_c, 0, 46, 52
4, 153600, Note_on_c, 0, 46, 0
4, 153600, Note_on_c, 0, 44, 0
4, 153600, Note_on_c, 0, 43, 52
4, 153600, Note_on_c, 0, 46, 52
4, 153840, Note_on_c, 0, 46, 0
4, 153840, Note_on_c, 0, 43, 0
4, 153840, Note_on_c, 0, 43, 52
4, 153840, Note_on_c, 0, 46, 52
4, 154080, Note_on_c, 0, 46, 0
4, 154080, Note_on_c, 0, 43, 0
4, 154080, Note_on_c, 0, 43, 52
4, 154080, Note_on_c, 0, 46, 52
4, 154320, Note_on_c, 0, 46, 0
4, 154320, Note_on_c, 0, 43, 0
4, 154320, Note_on_c, 0, 43, 52
4, 154320, Note_on_c, 0, 46, 52
4, 154560, Note_on_c, 0, 46, 0
4, 154560, Note_on_c, 0, 43, 0
4, 154560, Note_on_c, 0, 41, 52
4, 154560, Note_on_c, 0, 46, 52
4, 154800, Note_on_c, 0, 46, 0
4, 154800, Note_on_c, 0, 41, 0
4, 154800, Note_on_c, 0, 41, 52
4, 154800, Note_on_c, 0, 46, 52
4, 155040, Note_on_c, 0, 46, 0
4, 155040, Note_on_c, 0, 41, 0
4, 155040, Note_on_c, 0, 41, 52
4, 155040, Note_on_c, 0, 46, 52
4, 155280, Note_on_c, 0, 46, 0
4, 155280, Note_on_c, 0, 41, 0
4, 155280, Note_on_c, 0, 41, 52
4, 155280, Note_on_c, 0, 46, 52
4, 155520, Note_on_c, 0, 46, 0
4, 155520, Note_on_c, 0, 41, 0
4, 155520, Note_on_c, 0, 40, 52
4, 155520, Note_on_c, 0, 43, 52
4, 155760, Note_on_c, 0, 43, 0
4, 155760, Note_on_c, 0, 40, 0
4, 155760, Note_on_c, 0, 40, 52
4, 155760, Note_on_c, 0, 43, 52
4, 156000, Note_on_c, 0, 43, 0
4, 156000, Note_on_c, 0, 40, 0
4, 156000, Note_on_c, 0, 40, 52
4, 156000, Note_on_c, 0, 43, 52
4, 156240, Note_on_c, 0, 43, 0
4, 156240, Note_on_c, 0, 40, 0
4, 156240, Note_on_c, 0, 40, 52
4, 156240, Note_on_c, 0, 43, 52
4, 156480, Note_on_c, 0, 43, 0
4, 156480, Note_on_c, 0, 40, 0
4, 156480, Note_on_c, 0, 40, 52
4, 156480, Note_on_c, 0, 43, 52
4, 156720, Note_on_c, 0, 43, 0
4, 156720, Note_on_c, 0, 40, 0
4, 156720, Note_on_c, 0, 40, 52
4, 156720, Note_on_c, 0, 43, 52
4, 156960, Note_on_c, 0, 43, 0
4, 156960, Note_on_c, 0, 40, 0
4, 156960, Note_on_c, 0, 40, 52
4, 156960, Note_on_c, 0, 43, 52
4, 157200, Note_on_c, 0, 43, 0
4, 157200, Note_on_c, 0, 40, 0
4, 157200, Note_on_c, 0, 40, 52
4, 157200, Note_on_c, 0, 43, 52
4, 157440, Note_on_c, 0, 43, 0
4, 157440, Note_on_c, 0, 40, 0
4, 157440, Note_on_c, 0, 39, 52
4, 157440, Note_on_c, 0, 43, 52
4, 157680, Note_on_c, 0, 43, 0
4, 157680, Note_on_c, 0, 39, 0
4, 157680, Note_on_c, 0, 39, 52
4, 157680, Note_on_c, 0, 43, 52
4, 157920, Note_on_c, 0, 43, 0
4, 157920, Note_on_c, 0, 39, 0
4, 157920, Note_on_c, 0, 39, 52
4, 157920, Note_on_c, 0, 43, 52
4, 158160, Note_on_c, 0, 43, 0
4, 158160, Note_on_c, 0, 39, 0
4, 158160, Note_on_c, 0, 39, 52
4, 158160, Note_on_c, 0, 43, 52
4, 158400, Note_on_c, 0, 43, 0
4, 158400, Note_on_c, 0, 39, 0
4, 158400, Note_on_c, 0, 39, 52
4, 158400, Note_on_c, 0, 43, 52
4, 158640, Note_on_c, 0, 43, 0
4, 158640, Note_on_c, 0, 39, 0
4, 158640, Note_on_c, 0, 39, 52
4, 158640, Note_on_c, 0, 43, 52
4, 158880, Note_on_c, 0, 43, 0
4, 158880, Note_on_c, 0, 39, 0
4, 158880, Note_on_c, 0, 39, 52
4, 158880, Note_on_c, 0, 43, 52
4, 159120, Note_on_c, 0, 43, 0
4, 159120, Note_on_c, 0, 39, 0
4, 159120, Note_on_c, 0, 39, 52
4, 159120, Note_on_c, 0, 43, 52
4, 159360, Note_on_c, 0, 43, 0
4, 159360, Note_on_c, 0, 39, 0
4, 159360, Note_on_c, 0, 38, 65
4, 159360, Note_on_c, 0, 43, 65
4, 159360, Note_on_c, 0, 46, 65
4, 159600, Note_on_c, 0, 46, 0
4, 159600, Note_on_c, 0, 43, 0
4, 159600, Note_on_c, 0, 38, 0
4, 159600, Note_on_c, 0, 38, 65
4, 159600, Note_on_c, 0, 43, 65
4, 159600, Note_on_c, 0, 46, 65
4, 159840, Note_on_c, 0, 46, 0
4, 159840, Note_on_c, 0, 43, 0
4, 159840, Note_on_c, 0, 38, 0
4, 159840, Note_on_c, 0, 38, 65
4, 159840, Note_on_c, 0, 43, 65
4, 159840, Note_on_c, 0, 46, 65
4, 160080, Note_on_c, 0, 46, 0
4, 160080, Note_on_c, 0, 43, 0
4, 160080, Note_on_c, 0, 38, 0
4, 160080, Note_on_c, 0, 38, 65
4, 160080, Note_on_c, 0, 43, 65
4, 160080, Note_on_c, 0, 46, 65
4, 160320, Note_on_c, 0, 46, 0
4, 160320, Note_on_c, 0, 43, 0
4, 160320, Note_on_c, 0, 38, 0
4, 160320, Note_on_c, 0, 38, 65
4, 160320, Note_on_c, 0, 45, 65
4, 160320, Note_on_c, 0, 48, 65
4, 160560, Note_on_c, 0, 48, 0
4, 160560, Note_on_c, 0, 45, 0
4, 160560, Note_on_c, 0, 38, 0
4, 160560, Note_on_c, 0, 38, 65
4, 160560, Note_on_c, 0, 45, 65
4, 160560, Note_on_c, 0, 48, 65
4, 160800, Note_on_c, 0, 48, 0
4, 160800, Note_on_c, 0, 45, 0
4, 160800, Note_on_c, 0, 38, 0
4, 160800, Note_on_c, 0, 38, 65
4, 160800, Note_on_c, 0, 45, 65
4, 160800, Note_on_c, 0, 48, 65
4, 161040, Note_on_c, 0, 48, 0
4, 161040, Note_on_c, 0, 45, 0
4, 161040, Note_on_c, 0, 38, 0
4, 161040, Note_on_c, 0, 38, 65
4, 161040, Note_on_c, 0, 45, 65
4, 161040, Note_on_c, 0, 48, 65
4, 161280, Note_on_c, 0, 48, 0
4, 161280, Note_on_c, 0, 45, 0
4, 161280, Note_on_c, 0, 38, 0
4, 161280, Note_on_c, 0, 38, 65
4, 161280, Note_on_c, 0, 43, 65
4, 161280, Note_on_c, 0, 46, 65
4, 161520, Note_on_c, 0, 46, 0
4, 161520, Note_on_c, 0, 43, 0
4, 161520, Note_on_c, 0, 38, 0
4, 161520, Note_on_c, 0, 38, 65
4, 161520, Note_on_c, 0, 43, 65
4, 161520, Note_on_c, 0, 46, 65
4, 161760, Note_on_c, 0, 46, 0
4, 161760, Note_on_c, 0, 43, 0
4, 161760, Note_on_c, 0, 38, 0
4, 161760, Note_on_c, 0, 38, 65
4, 161760, Note_on_c, 0, 43, 65
4, 161760, Note_on_c, 0, 46, 65
4, 162000, Note_on_c, 0, 46, 0
4, 162000, Note_on_c, 0, 43, 0
4, 162000, Note_on_c, 0, 38, 0
4, 162000, Note_on_c, 0, 38, 65
4, 162000, Note_on_c, 0, 43, 65
4, 162000, Note_on_c, 0, 46, 65
4, 162240, Note_on_c, 0, 46, 0
4, 162240, Note_on_c, 0, 43, 0
4, 162240, Note_on_c, 0, 38, 0
4, 162240, Note_on_c, 0, 38, 65
4, 162240, Note_on_c, 0, 42, 65
4, 162240, Note_on_c, 0, 45, 65
4, 162480, Note_on_c, 0, 45, 0
4, 162480, Note_on_c, 0, 42, 0
4, 162480, Note_on_c, 0, 38, 0
4, 162480, Note_on_c, 0, 38, 65
4, 162480, Note_on_c, 0, 42, 65
4, 162480, Note_on_c, 0, 45, 65
4, 162720, Note_on_c, 0, 45, 0
4, 162720, Note_on_c, 0, 42, 0
4, 162720, Note_on_c, 0, 38, 0
4, 162720, Note_on_c, 0, 38, 65
4, 162720, Note_on_c, 0, 42, 65
4, 162720, Note_on_c, 0, 45, 65
4, 162960, Note_on_c, 0, 45, 0
4, 162960, Note_on_c, 0, 42, 0
4, 162960, Note_on_c, 0, 38, 0
4, 162960, Note_on_c, 0, 38, 65
4, 162960, Note_on_c, 0, 42, 65
4, 162960, Note_on_c, 0, 45, 65
4, 163200, Note_on_c, 0, 45, 0
4, 163200, Note_on_c, 0, 42, 0
4, 163200, Note_on_c, 0, 38, 0
4, 163200, Note_on_c, 0, 38, 52
4, 163200, Note_on_c, 0, 43, 52
4, 163200, Note_on_c, 0, 46, 52
4, 163440, Note_on_c, 0, 46, 0
4, 163440, Note_on_c, 0, 43, 0
4, 163440, Note_on_c, 0, 38, 0
4, 163440, Note_on_c, 0, 38, 52
4, 163440, Note_on_c, 0, 43, 52
4, 163440, Note_on_c, 0, 46, 52
4, 163680, Note_on_c, 0, 46, 0
4, 163680, Note_on_c, 0, 43, 0
4, 163680, Note_on_c, 0, 38, 0
4, 163680, Note_on_c, 0, 38, 52
4, 163680, Note_on_c, 0, 43, 52
4, 163680, Note_on_c, 0, 46, 52
4, 163920, Note_on_c, 0, 46, 0
4, 163920, Note_on_c, 0, 43, 0
4, 163920, Note_on_c, 0, 38, 0
4, 163920, Note_on_c, 0, 38, 52
4, 163920, Note_on_c, 0, 43, 52
4, 163920, Note_on_c, 0, 46, 52
4, 164160, Note_on_c, 0, 46, 0
4, 164160, Note_on_c, 0, 43, 0
4, 164160, Note_on_c, 0, 38, 0
4, 164160, Note_on_c, 0, 38, 52
4, 164160, Note_on_c, 0, 45, 52
4, 164160, Note_on_c, 0, 48, 52
4, 164400, Note_on_c, 0, 48, 0
4, 164400, Note_on_c, 0, 45, 0
4, 164400, Note_on_c, 0, 38, 0
4, 164400, Note_on_c, 0, 38, 52
4, 164400, Note_on_c, 0, 45, 52
4, 164400, Note_on_c, 0, 48, 52
4, 164640, Note_on_c, 0, 48, 0
4, 164640, Note_on_c, 0, 45, 0
4, 164640, Note_on_c, 0, 38, 0
4, 164640, Note_on_c, 0, 38, 52
4, 164640, Note_on_c, 0, 45, 52
4, 164640, Note_on_c, 0, 48, 52
4, 164880, Note_on_c, 0, 48, 0
4, 164880, Note_on_c, 0, 45, 0
4, 164880, Note_on_c, 0, 38, 0
4, 164880, Note_on_c, 0, 38, 52
4, 164880, Note_on_c, 0, 45, 52
4, 164880, Note_on_c, 0, 48, 52
4, 165120, Note_on_c, 0, 48, 0
4, 165120, Note_on_c, 0, 45, 0
4, 165120, Note_on_c, 0, 38, 0
4, 165120, Note_on_c, 0, 38, 52
4, 165120, Note_on_c, 0, 43, 52
4, 165120, Note_on_c, 0, 46, 52
4, 165360, Note_on_c, 0, 46, 0
4, 165360, Note_on_c, 0, 43, 0
4, 165360, Note_on_c, 0, 38, 0
4, 165360, Note_on_c, 0, 38, 52
4, 165360, Note_on_c, 0, 43, 52
4, 165360, Note_on_c, 0, 46, 52
4, 165600, Note_on_c, 0, 46, 0
4, 165600, Note_on_c, 0, 43, 0
4, 165600, Note_on_c, 0, 38, 0
4, 165600, Note_on_c, 0, 38, 52
4, 165600, Note_on_c, 0, 43, 52
4, 165600, Note_on_c, 0, 46, 52
4, 165840, Note_on_c, 0, 46, 0
4, 165840, Note_on_c, 0, 43, 0
4, 165840, Note_on_c, 0, 38, 0
4, 165840, Note_on_c, 0, 38, 52
4, 165840, Note_on_c, 0, 43, 52
4, 165840, Note_on_c, 0, 46, 52
4, 166080, Note_on_c, 0, 46, 0
4, 166080, Note_on_c, 0, 43, 0
4, 166080, Note_on_c, 0, 38, 0
4, 166080, Note_on_c, 0, 38, 52
4, 166080, Note_on_c, 0, 42, 52
4, 166080, Note_on_c, 0, 45, 52
4, 166320, Note_on_c, 0, 45, 0
4, 166320, Note_on_c, 0, 42, 0
4, 166320, Note_on_c, 0, 38, 0
4, 166320, Note_on_c, 0, 38, 52
4, 166320, Note_on_c, 0, 42, 52
4, 166320, Note_on_c, 0, 45, 52
4, 166560, Note_on_c, 0, 45, 0
4, 166560, Note_on_c, 0, 42, 0
4, 166560, Note_on_c, 0, 38, 0
4, 166560, Note_on_c, 0, 38, 52
4, 166560, Note_on_c, 0, 42, 52
4, 166560, Note_on_c, 0, 45, 52
4, 166800, Note_on_c, 0, 45, 0
4, 166800, Note_on_c, 0, 42, 0
4, 166800, Note_on_c, 0, 38, 0
4, 166800, Note_on_c, 0, 38, 52
4, 166800, Note_on_c, 0, 42, 52
4, 166800, Note_on_c, 0, 45, 52
4, 167040, Note_on_c, 0, 45, 0
4, 167040, Note_on_c, 0, 42, 0
4, 167040, Note_on_c, 0, 38, 0
4, 167040, Note_on_c, 0, 38, 52
4, 167040, Note_on_c, 0, 43, 52
4, 167040, Note_on_c, 0, 46, 52
4, 167280, Note_on_c, 0, 46, 0
4, 167280, Note_on_c, 0, 43, 0
4, 167280, Note_on_c, 0, 38, 0
4, 167280, Note_on_c, 0, 38, 52
4, 167280, Note_on_c, 0, 43, 52
4, 167280, Note_on_c, 0, 46, 52
4, 167520, Note_on_c, 0, 46, 0
4, 167520, Note_on_c, 0, 43, 0
4, 167520, Note_on_c, 0, 38, 0
4, 167520, Note_on_c, 0, 38, 52
4, 167520, Note_on_c, 0, 43, 52
4, 167520, Note_on_c, 0, 46, 52
4, 167760, Note_on_c, 0, 46, 0
4, 167760, Note_on_c, 0, 43, 0
4, 167760, Note_on_c, 0, 38, 0
4, 167760, Note_on_c, 0, 38, 52
4, 167760, Note_on_c, 0, 43, 52
4, 167760, Note_on_c, 0, 46, 52
4, 168000, Note_on_c, 0, 46, 0
4, 168000, Note_on_c, 0, 43, 0
4, 168000, Note_on_c, 0, 38, 0
4, 168000, Note_on_c, 0, 38, 52
4, 168000, Note_on_c, 0, 45, 52
4, 168000, Note_on_c, 0, 48, 52
4, 168240, Note_on_c, 0, 48, 0
4, 168240, Note_on_c, 0, 45, 0
4, 168240, Note_on_c, 0, 38, 0
4, 168240, Note_on_c, 0, 38, 52
4, 168240, Note_on_c, 0, 45, 52
4, 168240, Note_on_c, 0, 48, 52
4, 168480, Note_on_c, 0, 48, 0
4, 168480, Note_on_c, 0, 45, 0
4, 168480, Note_on_c, 0, 38, 0
4, 168480, Note_on_c, 0, 38, 52
4, 168480, Note_on_c, 0, 45, 52
4, 168480, Note_on_c, 0, 48, 52
4, 168720, Note_on_c, 0, 48, 0
4, 168720, Note_on_c, 0, 45, 0
4, 168720, Note_on_c, 0, 38, 0
4, 168720, Note_on_c, 0, 38, 52
4, 168720, Note_on_c, 0, 45, 52
4, 168720, Note_on_c, 0, 48, 52
4, 168960, Note_on_c, 0, 48, 0
4, 168960, Note_on_c, 0, 45, 0
4, 168960, Note_on_c, 0, 38, 0
4, 168960, Note_on_c, 0, 38, 52
4, 168960, Note_on_c, 0, 43, 52
4, 168960, Note_on_c, 0, 46, 52
4, 169200, Note_on_c, 0, 46, 0
4, 169200, Note_on_c, 0, 43, 0
4, 169200, Note_on_c, 0, 38, 0
4, 169200, Note_on_c, 0, 38, 52
4, 169200, Note_on_c, 0, 43, 52
4, 169200, Note_on_c, 0, 46, 52
4, 169440, Note_on_c, 0, 46, 0
4, 169440, Note_on_c, 0, 43, 0
4, 169440, Note_on_c, 0, 38, 0
4, 169440, Note_on_c, 0, 38, 52
4, 169440, Note_on_c, 0, 43, 52
4, 169440, Note_on_c, 0, 46, 52
4, 169680, Note_on_c, 0, 46, 0
4, 169680, Note_on_c, 0, 43, 0
4, 169680, Note_on_c, 0, 38, 0
4, 169680, Note_on_c, 0, 38, 52
4, 169680, Note_on_c, 0, 43, 52
4, 169680, Note_on_c, 0, 46, 52
4, 169920, Note_on_c, 0, 46, 0
4, 169920, Note_on_c, 0, 43, 0
4, 169920, Note_on_c, 0, 38, 0
4, 169920, Note_on_c, 0, 38, 52
4, 169920, Note_on_c, 0, 42, 52
4, 169920, Note_on_c, 0, 45, 52
4, 170160, Note_on_c, 0, 45, 0
4, 170160, Note_on_c, 0, 42, 0
4, 170160, Note_on_c, 0, 38, 0
4, 170160, Note_on_c, 0, 38, 52
4, 170160, Note_on_c, 0, 42, 52
4, 170160, Note_on_c, 0, 45, 52
4, 170400, Note_on_c, 0, 45, 0
4, 170400, Note_on_c, 0, 42, 0
4, 170400, Note_on_c, 0, 38, 0
4, 170400, Note_on_c, 0, 38, 52
4, 170400, Note_on_c, 0, 42, 52
4, 170400, Note_on_c, 0, 45, 52
4, 170640, Note_on_c, 0, 45, 0
4, 170640, Note_on_c, 0, 42, 0
4, 170640, Note_on_c, 0, 38, 0
4, 170640, Note_on_c, 0, 38, 52
4, 170640, Note_on_c, 0, 42, 52
4, 170640, Note_on_c, 0, 45, 52
4, 170880, Note_on_c, 0, 45, 0
4, 170880, Note_on_c, 0, 42, 0
4, 170880, Note_on_c, 0, 38, 0
4, 170880, Note_on_c, 0, 38, 78
4, 170880, Note_on_c, 0, 43, 78
4, 170880, Note_on_c, 0, 46, 78
4, 171120, Note_on_c, 0, 46, 0
4, 171120, Note_on_c, 0, 43, 0
4, 171120, Note_on_c, 0, 38, 0
4, 171120, Note_on_c, 0, 38, 78
4, 171120, Note_on_c, 0, 43, 78
4, 171120, Note_on_c, 0, 46, 78
4, 171360, Note_on_c, 0, 46, 0
4, 171360, Note_on_c, 0, 43, 0
4, 171360, Note_on_c, 0, 38, 0
4, 171360, Note_on_c, 0, 38, 78
4, 171360, Note_on_c, 0, 43, 78
4, 171360, Note_on_c, 0, 46, 78
4, 171600, Note_on_c, 0, 46, 0
4, 171600, Note_on_c, 0, 43, 0
4, 171600, Note_on_c, 0, 38, 0
4, 171600, Note_on_c, 0, 38, 78
4, 171600, Note_on_c, 0, 43, 78
4, 171600, Note_on_c, 0, 46, 78
4, 171840, Note_on_c, 0, 46, 0
4, 171840, Note_on_c, 0, 43, 0
4, 171840, Note_on_c, 0, 38, 0
4, 171840, Note_on_c, 0, 38, 78
4, 171840, Note_on_c, 0, 45, 78
4, 171840, Note_on_c, 0, 48, 78
4, 172080, Note_on_c, 0, 48, 0
4, 172080, Note_on_c, 0, 45, 0
4, 172080, Note_on_c, 0, 38, 0
4, 172080, Note_on_c, 0, 38, 78
4, 172080, Note_on_c, 0, 45, 78
4, 172080, Note_on_c, 0, 48, 78
4, 172320, Note_on_c, 0, 48, 0
4, 172320, Note_on_c, 0, 45, 0
4, 172320, Note_on_c, 0, 38, 0
4, 172320, Note_on_c, 0, 38, 78
4, 172320, Note_on_c, 0, 42, 78
4, 172320, Note_on_c, 0, 45, 78
4, 172560, Note_on_c, 0, 45, 0
4, 172560, Note_on_c, 0, 42, 0
4, 172560, Note_on_c, 0, 38, 0
4, 172560, Note_on_c, 0, 38, 78
4, 172560, Note_on_c, 0, 42, 78
4, 172560, Note_on_c, 0, 45, 78
4, 172800, Note_on_c, 0, 45, 0
4, 172800, Note_on_c, 0, 42, 0
4, 172800, Note_on_c, 0, 38, 0
4, 172800, Note_on_c, 0, 38, 78
4, 172800, Note_on_c, 0, 43, 78
4, 172800, Note_on_c, 0, 46, 78
4, 173040, Note_on_c, 0, 46, 0
4, 173040, Note_on_c, 0, 43, 0
4, 173040, Note_on_c, 0, 38, 0
4, 173040, Note_on_c, 0, 38, 78
4, 173040, Note_on_c, 0, 43, 78
4, 173040, Note_on_c, 0, 46, 78
4, 173280, Note_on_c, 0, 46, 0
4, 173280, Note_on_c, 0, 43, 0
4, 173280, Note_on_c, 0, 38, 0
4, 173280, Note_on_c, 0, 38, 78
4, 173280, Note_on_c, 0, 43, 78
4, 173280, Note_on_c, 0, 46, 78
4, 173520, Note_on_c, 0, 46, 0
4, 173520, Note_on_c, 0, 43, 0
4, 173520, Note_on_c, 0, 38, 0
4, 173520, Note_on_c, 0, 38, 78
4, 173520, Note_on_c, 0, 43, 78
4, 173520, Note_on_c, 0, 46, 78
4, 173760, Note_on_c, 0, 46, 0
4, 173760, Note_on_c, 0, 43, 0
4, 173760, Note_on_c, 0, 38, 0
4, 173760, Note_on_c, 0, 38, 78
4, 173760, Note_on_c, 0, 45, 78
4, 173760, Note_on_c, 0, 48, 78
4, 174000, Note_on_c, 0, 48, 0
4, 174000, Note_on_c, 0, 45, 0
4, 174000, Note_on_c, 0, 38, 0
4, 174000, Note_on_c, 0, 55, 78
4, 174000, Note_on_c, 0, 58, 78
4, 174480, Note_on_c, 0, 58, 0
4, 174480, Note_on_c, 0, 55, 0
4, 174480, Note_on_c, 0, 50, 78
4, 174480, Note_on_c, 0, 58, 78
4, 174960, Note_on_c, 0, 58, 0
4, 174960, Note_on_c, 0, 50, 0
4, 174960, Note_on_c, 0, 46, 78
4, 174960, Note_on_c, 0, 50, 78
4, 175440, Note_on_c, 0, 50, 0
4, 175440, Note_on_c, 0, 46, 0
4, 175440, Note_on_c, 0, 43, 78
4, 175440, Note_on_c, 0, 50, 78
4, 175920, Note_on_c, 0, 50, 0
4, 175920, Note_on_c, 0, 43, 0
4, 175920, Note_on_c, 0, 31, 104
4, 175920, Note_on_c, 0, 43, 104
4, 176160, Note_on_c, 0, 43, 0
4, 176160, Note_on_c, 0, 31, 0
4, 176160, Note_on_c, 0, 32, 104
4, 176160, Note_on_c, 0, 44, 104
4, 176400, Note_on_c, 0, 44, 0
4, 176400, Note_on_c, 0, 32, 0
4, 176400, Note_on_c, 0, 34, 104
4, 176400, Note_on_c, 0, 46, 104
4, 176640, Note_on_c, 0, 46, 0
4, 176640, Note_on_c, 0, 34, 0
4, 176640, Note_on_c, 0, 35, 104
4, 176640, Note_on_c, 0, 47, 104
4, 176880, Note_on_c, 0, 47, 0
4, 176880, Note_on_c, 0, 35, 0
4, 176880, Note_on_c, 0, 36, 104
4, 176880, Note_on_c, 0, 48, 104
4, 177120, Note_on_c, 0, 48, 0
4, 177120, Note_on_c, 0, 36, 0
4, 177120, Note_on_c, 0, 37, 104
4, 177120, Note_on_c, 0, 49, 104
4, 177360, Note_on_c, 0, 49, 0
4, 177360, Note_on_c, 0, 37, 0
4, 177360, Note_on_c, 0, 38, 104
4, 177360, Note_on_c, 0, 50, 104
4, 177600, Note_on_c, 0, 50, 0
4, 177600, Note_on_c, 0, 38, 0
4, 177600, Note_on_c, 0, 39, 104
4, 177600, Note_on_c, 0, 51, 104
4, 177840, Note_on_c, 0, 51, 0
4, 177840, Note_on_c, 0, 39, 0
4, 177840, Note_on_c, 0, 56, 78
4, 177840, Note_on_c, 0, 59, 78
4, 178320, Note_on_c, 0, 59, 0
4, 178320, Note_on_c, 0, 56, 0
4, 178320, Note_on_c, 0, 51, 78
4, 178320, Note_on_c, 0, 59, 78
4, 178800, Note_on_c, 0, 59, 0
4, 178800, Note_on_c, 0, 51, 0
4, 178800, Note_on_c, 0, 47, 78
4, 178800, Note_on_c, 0, 51, 78
4, 179280, Note_on_c, 0, 51, 0
4, 179280, Note_on_c, 0, 47, 0
4, 179280, Note_on_c, 0, 44, 78
4, 179280, Note_on_c, 0, 51, 78
4, 179760, Note_on_c, 0, 51, 0
4, 179760, Note_on_c, 0, 44, 0
4, 179760, Note_on_c, 0, 32, 104
4, 179760, Note_on_c, 0, 44, 104
4, 180000, Note_on_c, 0, 44, 0
4, 180000, Note_on_c, 0, 32, 0
4, 180000, Note_on_c, 0, 33, 104
4, 180000, Note_on_c, 0, 45, 104
4, 180240, Note_on_c, 0, 45, 0
4, 180240, Note_on_c, 0, 33, 0
4, 180240, Note_on_c, 0, 35, 104
4, 180240, Note_on_c, 0, 47, 104
4, 180480, Note_on_c, 0, 47, 0
4, 180480, Note_on_c, 0, 35, 0
4, 180480, Note_on_c, 0, 36, 104
4, 180480, Note_on_c, 0, 48, 104
4, 180720, Note_on_c, 0, 48, 0
4, 180720, Note_on_c, 0, 36, 0
4, 180720, Note_on_c, 0, 37, 104
4, 180720, Note_on_c, 0, 49, 104
4, 180960, Note_on_c, 0, 49, 0
4, 180960, Note_on_c, 0, 37, 0
4, 180960, Note_on_c, 0, 38, 104
4, 180960, Note_on_c, 0, 50, 104
4, 181200, Note_on_c, 0, 50, 0
4, 181200, Note_on_c, 0, 38, 0
4, 181200, Note_on_c, 0, 39, 104
4, 181200, Note_on_c, 0, 51, 104
4, 181440, Note_on_c, 0, 51, 0
4, 181440, Note_on_c, 0, 39, 0
4, 181440, Note_on_c, 0, 40, 104
4, 181440, Note_on_c, 0, 52, 104
4, 181680, Note_on_c, 0, 52, 0
4, 181680, Note_on_c, 0, 40, 0
4, 181680, Note_on_c, 0, 33, 104
4, 181680, Note_on_c, 0, 45, 104
4, 181920, Note_on_c, 0, 45, 0
4, 181920, Note_on_c, 0, 33, 0
4, 181920, Note_on_c, 0, 34, 104
4, 181920, Note_on_c, 0, 46, 104
4, 182160, Note_on_c, 0, 46, 0
4, 182160, Note_on_c, 0, 34, 0
4, 182160, Note_on_c, 0, 36, 104
4, 182160, Note_on_c, 0, 48, 104
4, 182400, Note_on_c, 0, 48, 0
4, 182400, Note_on_c, 0, 36, 0
4, 182400, Note_on_c, 0, 37, 104
4, 182400, Note_on_c, 0, 49, 104
4, 182640, Note_on_c, 0, 49, 0
4, 182640, Note_on_c, 0, 37, 0
4, 182640, Note_on_c, 0, 38, 104
4, 182640, Note_on_c, 0, 50, 104
4, 182880, Note_on_c, 0, 50, 0
4, 182880, Note_on_c, 0, 38, 0
4, 182880, Note_on_c, 0, 39, 104
4, 182880, Note_on_c, 0, 51, 104
4, 183120, Note_on_c, 0, 51, 0
4, 183120, Note_on_c, 0, 39, 0
4, 183120, Note_on_c, 0, 40, 104
4, 183120, Note_on_c, 0, 52, 104
4, 183360, Note_on_c, 0, 52, 0
4, 183360, Note_on_c, 0, 40, 0
4, 183360, Note_on_c, 0, 41, 104
4, 183360, Note_on_c, 0, 53, 104
4, 183600, Note_on_c, 0, 53, 0
4, 183600, Note_on_c, 0, 41, 0
4, 183600, Note_on_c, 0, 34, 104
4, 183600, Note_on_c, 0, 46, 104
4, 183840, Note_on_c, 0, 46, 0
4, 183840, Note_on_c, 0, 34, 0
4, 183840, Note_on_c, 0, 35, 104
4, 183840, Note_on_c, 0, 47, 104
4, 184080, Note_on_c, 0, 47, 0
4, 184080, Note_on_c, 0, 35, 0
4, 184080, Note_on_c, 0, 37, 104
4, 184080, Note_on_c, 0, 49, 104
4, 184320, Note_on_c, 0, 49, 0
4, 184320, Note_on_c, 0, 37, 0
4, 184320, Note_on_c, 0, 38, 104
4, 184320, Note_on_c, 0, 50, 104
4, 184560, Note_on_c, 0, 50, 0
4, 184560, Note_on_c, 0, 38, 0
4, 184560, Note_on_c, 0, 39, 104
4, 184560, Note_on_c, 0, 51, 104
4, 184800, Note_on_c, 0, 51, 0
4, 184800, Note_on_c, 0, 39, 0
4, 184800, Note_on_c, 0, 40, 104
4, 184800, Note_on_c, 0, 52, 104
4, 185040, Note_on_c, 0, 52, 0
4, 185040, Note_on_c, 0, 40, 0
4, 185040, Note_on_c, 0, 41, 104
4, 185040, Note_on_c, 0, 53, 104
4, 185280, Note_on_c, 0, 53, 0
4, 185280, Note_on_c, 0, 41, 0
4, 185280, Note_on_c, 0, 42, 104
4, 185280, Note_on_c, 0, 54, 104
4, 185520, Note_on_c, 0, 54, 0
4, 185520, Note_on_c, 0, 42, 0
4, 185520, Note_on_c, 0, 41, 78
4, 185520, Note_on_c, 0, 47, 78
4, 185520, Note_on_c, 0, 50, 78
4, 185760, Note_on_c, 0, 41, 0
4, 185760, Note_on_c, 0, 42, 78
4, 186000, Note_on_c, 0, 42, 0
4, 186000, Note_on_c, 0, 50, 0
4, 186000, Note_on_c, 0, 47, 0
4, 186000, Note_on_c, 0, 43, 78
4, 186000, Note_on_c, 0, 47, 78
4, 186000, Note_on_c, 0, 50, 78
4, 186240, Note_on_c, 0, 43, 0
4, 186240, Note_on_c, 0, 42, 78
4, 186480, Note_on_c, 0, 42, 0
4, 186480, Note_on_c, 0, 50, 0
4, 186480, Note_on_c, 0, 47, 0
4, 186480, Note_on_c, 0, 41, 78
4, 186480, Note_on_c, 0, 47, 78
4, 186480, Note_on_c, 0, 50, 78
4, 186720, Note_on_c, 0, 41, 0
4, 186720, Note_on_c, 0, 42, 78
4, 186960, Note_on_c, 0, 42, 0
4, 186960, Note_on_c, 0, 50, 0
4, 186960, Note_on_c, 0, 47, 0
4, 186960, Note_on_c, 0, 43, 78
4, 186960, Note_on_c, 0, 47, 78
4, 186960, Note_on_c, 0, 50, 78
4, 187200, Note_on_c, 0, 43, 0
4, 187200, Note_on_c, 0, 42, 78
4, 187440, Note_on_c, 0, 42, 0
4, 187440, Note_on_c, 0, 50, 0
4, 187440, Note_on_c, 0, 47, 0
4, 187440, Note_on_c, 0, 41, 78
4, 187440, Note_on_c, 0, 47, 78
4, 187440, Note_on_c, 0, 50, 78
4, 187680, Note_on_c, 0, 50, 0
4, 187680, Note_on_c, 0, 47, 0
4, 187680, Note_on_c, 0, 41, 0
4, 187680, Note_on_c, 0, 42, 78
4, 187680, Note_on_c, 0, 47, 78
4, 187680, Note_on_c, 0, 50, 78
4, 187920, Note_on_c, 0, 50, 0
4, 187920, Note_on_c, 0, 47, 0
4, 187920, Note_on_c, 0, 42, 0
4, 187920, Note_on_c, 0, 41, 78
4, 187920, Note_on_c, 0, 47, 78
4, 187920, Note_on_c, 0, 50, 78
4, 188160, Note_on_c, 0, 50, 0
4, 188160, Note_on_c, 0, 47, 0
4, 188160, Note_on_c, 0, 41, 0
4, 188160, Note_on_c, 0, 42, 78
4, 188160, Note_on_c, 0, 47, 78
4, 188160, Note_on_c, 0, 50, 78
4, 188400, Note_on_c, 0, 50, 0
4, 188400, Note_on_c, 0, 47, 0
4, 188400, Note_on_c, 0, 42, 0
4, 188400, Note_on_c, 0, 41, 78
4, 188400, Note_on_c, 0, 47, 78
4, 188400, Note_on_c, 0, 50, 78
4, 188640, Note_on_c, 0, 50, 0
4, 188640, Note_on_c, 0, 47, 0
4, 188640, Note_on_c, 0, 41, 0
4, 188640, Note_on_c, 0, 42, 78
4, 188640, Note_on_c, 0, 47, 78
4, 188640, Note_on_c, 0, 50, 78
4, 188880, Note_on_c, 0, 50, 0
4, 188880, Note_on_c, 0, 47, 0
4, 188880, Note_on_c, 0, 42, 0
4, 188880, Note_on_c, 0, 41, 78
4, 188880, Note_on_c, 0, 47, 78
4, 188880, Note_on_c, 0, 50, 78
4, 189120, Note_on_c, 0, 50, 0
4, 189120, Note_on_c, 0, 47, 0
4, 189120, Note_on_c, 0, 41, 0
4, 189120, Note_on_c, 0, 42, 104
4, 189120, Note_on_c, 0, 47, 104
4, 189120, Note_on_c, 0, 50, 104
4, 189360, Note_on_c, 0, 50, 0
4, 189360, Note_on_c, 0, 47, 0
4, 189360, Note_on_c, 0, 42, 0
4, 189360, Note_on_c, 0, 43, 104
4, 189360, Note_on_c, 0, 47, 104
4, 189360, Note_on_c, 0, 50, 104
4, 189600, Note_on_c, 0, 50, 0
4, 189600, Note_on_c, 0, 47, 0
4, 189600, Note_on_c, 0, 43, 0
4, 189600, Control_c, 0, 64, 127
4, 189600, Note_on_c, 0, 55, 78
4, 189720, Note_on_c, 0, 55, 0
4, 189720, Note_on_c, 0, 57, 78
4, 189840, Note_on_c, 0, 57, 0
4, 189840, Note_on_c, 0, 59, 78
4, 189960, Note_on_c, 0, 59, 0
4, 189960, Control_c, 0, 64, 0
4, 189960, Note_on_c, 0, 61, 78
4, 190080, Note_on_c, 0, 61, 0
4, 190080, Note_on_c, 0, 62, 78
4, 190320, Note_on_c, 0, 62, 0
4, 191040, Note_on_c, 0, 56, 78
4, 191040, Note_on_c, 0, 59, 78
4, 191040, Note_on_c, 0, 62, 78
4, 191280, Note_on_c, 0, 62, 0
4, 191280, Note_on_c, 0, 59, 0
4, 191280, Note_on_c, 0, 56, 0
4, 191520, Control_c, 0, 64, 127
4, 191520, Note_on_c, 0, 62, 78
4, 191640, Note_on_c, 0, 62, 0
4, 191640, Note_on_c, 0, 61, 78
4, 191760, Note_on_c, 0, 61, 0
4, 191760, Note_on_c, 0, 59, 78
4, 191880, Note_on_c, 0, 59, 0
4, 191880, Control_c, 0, 64, 0
4, 191880, Note_on_c, 0, 57, 78
4, 192000, Note_on_c, 0, 57, 0
4, 192000, Control_c, 0, 64, 127
4, 192000, Note_on_c, 0, 56, 78
4, 192120, Note_on_c, 0, 56, 0
4, 192120, Note_on_c, 0, 57, 78
4, 192240, Note_on_c, 0, 57, 0
4, 192240, Note_on_c, 0, 59, 78
4, 192360, Note_on_c, 0, 59, 0
4, 192360, Control_c, 0, 64, 0
4, 192360, Note_on_c, 0, 61, 78
4, 192480, Note_on_c, 0, 61, 0
4, 192480, Control_c, 0, 64, 127
4, 192480, Note_on_c, 0, 62, 78
4, 192600, Note_on_c, 0, 62, 0
4, 192600, Note_on_c, 0, 61, 78
4, 192720, Note_on_c, 0, 61, 0
4, 192720, Note_on_c, 0, 59, 78
4, 192840, Note_on_c, 0, 59, 0
4, 192840, Control_c, 0, 64, 0
4, 192840, Note_on_c, 0, 57, 78
4, 192960, Note_on_c, 0, 57, 0
4, 192960, Control_c, 0, 64, 127
4, 192960, Note_on_c, 0, 56, 78
4, 193080, Note_on_c, 0, 56, 0
4, 193080, Note_on_c, 0, 57, 78
4, 193200, Note_on_c, 0, 57, 0
4, 193200, Note_on_c, 0, 59, 78
4, 193320, Note_on_c, 0, 59, 0
4, 193320, Control_c, 0, 64, 0
4, 193320, Note_on_c, 0, 61, 78
4, 193440, Note_on_c, 0, 61, 0
4, 193440, Control_c, 0, 64, 127
4, 193440, Note_on_c, 0, 62, 78
4, 193560, Note_on_c, 0, 62, 0
4, 193560, Note_on_c, 0, 63, 78
4, 193680, Note_on_c, 0, 63, 0
4, 193680, Note_on_c, 0, 65, 78
4, 193800, Note_on_c, 0, 65, 0
4, 193800, Control_c, 0, 64, 0
4, 193800, Note_on_c, 0, 66, 78
4, 193920, Note_on_c, 0, 66, 0
4, 193920, Control_c, 0, 64, 127
4, 193920, Note_on_c, 0, 68, 78
4, 194040, Note_on_c, 0, 68, 0
4, 194040, Note_on_c, 0, 67, 78
4, 194160, Note_on_c, 0, 67, 0
4, 194160, Note_on_c, 0, 65, 78
4, 194280, Note_on_c, 0, 65, 0
4, 194280, Control_c, 0, 64, 0
4, 194280, Note_on_c, 0, 64, 78
4, 194400, Note_on_c, 0, 64, 0
4, 194400, Control_c, 0, 64, 127
4, 194400, Note_on_c, 0, 62, 78
4, 194520, Note_on_c, 0, 62, 0
4, 194520, Note_on_c, 0, 60, 78
4, 194640, Note_on_c, 0, 60, 0
4, 194640, Note_on_c, 0, 59, 78
4, 194760, Note_on_c, 0, 59, 0
4, 194760, Control_c, 0, 64, 0
4, 194760, Note_on_c, 0, 57, 78
4, 194880, Note_on_c, 0, 57, 0
4, 194880, Control_c, 0, 64, 127
4, 194880, Note_on_c, 0, 56, 78
4, 195000, Note_on_c, 0, 56, 0
4, 195000, Note_on_c, 0, 55, 78
4, 195120, Note_on_c, 0, 55, 0
4, 195120, Note_on_c, 0, 53, 78
4, 195240, Note_on_c, 0, 53, 0
4, 195240, Control_c, 0, 64, 0
4, 195240, Note_on_c, 0, 52, 78
4, 195360, Note_on_c, 0, 52, 0
4, 195360, Control_c, 0, 64, 127
4, 195360, Note_on_c, 0, 50, 78
4, 195480, Note_on_c, 0, 50, 0
4, 195480, Note_on_c, 0, 48, 78
4, 195600, Note_on_c, 0, 48, 0
4, 195600, Note_on_c, 0, 47, 78
4, 195720, Note_on_c, 0, 47, 0
4, 195720, Control_c, 0, 64, 0
4, 195720, Note_on_c, 0, 45, 78
4, 195840, Note_on_c, 0, 45, 0
4, 195840, Note_on_c, 0, 44, 78
4, 195840, Note_on_c, 0, 47, 78
4, 195840, Note_on_c, 0, 50, 78
4, 196080, Note_on_c, 0, 50, 0
4, 196080, Note_on_c, 0, 47, 0
4, 196080, Note_on_c, 0, 44, 0
4, 196080, Note_on_c, 0, 44, 78
4, 196080, Note_on_c, 0, 47, 78
4, 196080, Note_on_c, 0, 50, 78
4, 196320, Note_on_c, 0, 50, 0
4, 196320, Note_on_c, 0, 47, 0
4, 196320, Note_on_c, 0, 44, 0
4, 196320, Note_on_c, 0, 44, 78
4, 196320, Note_on_c, 0, 47, 78
4, 196320, Note_on_c, 0, 50, 78
4, 196560, Note_on_c, 0, 50, 0
4, 196560, Note_on_c, 0, 47, 0
4, 196560, Note_on_c, 0, 44, 0
4, 196560, Note_on_c, 0, 44, 78
4, 196560, Note_on_c, 0, 47, 78
4, 196560, Note_on_c, 0, 50, 78
4, 196800, Note_on_c, 0, 50, 0
4, 196800, Note_on_c, 0, 47, 0
4, 196800, Note_on_c, 0, 44, 0
4, 196800, Note_on_c, 0, 44, 78
4, 196800, Note_on_c, 0, 47, 78
4, 196800, Note_on_c, 0, 50, 78
4, 197040, Note_on_c, 0, 50, 0
4, 197040, Note_on_c, 0, 47, 0
4, 197040, Note_on_c, 0, 44, 0
4, 197040, Note_on_c, 0, 44, 78
4, 197040, Note_on_c, 0, 47, 78
4, 197040, Note_on_c, 0, 50, 78
4, 197280, Note_on_c, 0, 50, 0
4, 197280, Note_on_c, 0, 47, 0
4, 197280, Note_on_c, 0, 44, 0
4, 197280, Note_on_c, 0, 44, 78
4, 197280, Note_on_c, 0, 47, 78
4, 197280, Note_on_c, 0, 50, 78
4, 197520, Note_on_c, 0, 50, 0
4, 197520, Note_on_c, 0, 47, 0
4, 197520, Note_on_c, 0, 44, 0
4, 197520, Note_on_c, 0, 44, 78
4, 197520, Note_on_c, 0, 47, 78
4, 197520, Note_on_c, 0, 50, 78
4, 197760, Note_on_c, 0, 50, 0
4, 197760, Note_on_c, 0, 47, 0
4, 197760, Note_on_c, 0, 44, 0
4, 197760, Note_on_c, 0, 44, 65
4, 197760, Note_on_c, 0, 47, 65
4, 197919, Note_on_c, 0, 47, 0
4, 197919, Note_on_c, 0, 44, 0
4, 197919, Note_on_c, 0, 45, 65
4, 198080, Note_on_c, 0, 45, 0
4, 198080, Note_on_c, 0, 44, 65
4, 198080, Note_on_c, 0, 47, 65
4, 198112, Note_on_c, 0, 47, 0
4, 198112, Note_on_c, 0, 44, 0
4, 198240, Note_on_c, 0, 45, 65
4, 198399, Note_on_c, 0, 45, 0
4, 198399, Note_on_c, 0, 44, 65
4, 198399, Note_on_c, 0, 47, 65
4, 198560, Note_on_c, 0, 47, 0
4, 198560, Note_on_c, 0, 44, 0
4, 198560, Note_on_c, 0, 45, 65
4, 198592, Note_on_c, 0, 45, 0
4, 198720, Note_on_c, 0, 33, 65
4, 198720, Note_on_c, 0, 45, 65
4, 198816, Note_on_c, 0, 45, 0
4, 198816, Note_on_c, 0, 33, 0
4, 199200, Note_on_c, 0, 33, 65
4, 199200, Note_on_c, 0, 45, 65
4, 199296, Note_on_c, 0, 45, 0
4, 199296, Note_on_c, 0, 33, 0
4, 199680, Note_on_c, 0, 44, 52
4, 199680, Note_on_c, 0, 47, 52
4, 199839, Note_on_c, 0, 47, 0
4, 199839, Note_on_c, 0, 44, 0
4, 199839, Note_on_c, 0, 45, 52
4, 200000, Note_on_c, 0, 45, 0
4, 200000, Note_on_c, 0, 44, 52
4, 200000, Note_on_c, 0, 47, 52
4, 200032, Note_on_c, 0, 47, 0
4, 200032, Note_on_c, 0, 44, 0
4, 200160, Note_on_c, 0, 45, 52
4, 200319, Note_on_c, 0, 45, 0
4, 200319, Note_on_c, 0, 44, 52
4, 200319, Note_on_c, 0, 47, 52
4, 200480, Note_on_c, 0, 47, 0
4, 200480, Note_on_c, 0, 44, 0
4, 200480, Note_on_c, 0, 45, 52
4, 200512, Note_on_c, 0, 45, 0
4, 200640, Note_on_c, 0, 33, 52
4, 200640, Note_on_c, 0, 45, 52
4, 200736, Note_on_c, 0, 45, 0
4, 200736, Note_on_c, 0, 33, 0
4, 201120, Note_on_c, 0, 33, 52
4, 201120, Note_on_c, 0, 45, 52
4, 201216, Note_on_c, 0, 45, 0
4, 201216, Note_on_c, 0, 33, 0
4, 201600, Note_on_c, 0, 44, 52
4, 201600, Note_on_c, 0, 47, 52
4, 201647, Note_on_c, 0, 47, 0
4, 201647, Note_on_c, 0, 44, 0
4, 201840, Note_on_c, 0, 45, 52
4, 201887, Note_on_c, 0, 45, 0
4, 202080, Note_on_c, 0, 44, 52
4, 202080, Note_on_c, 0, 47, 52
4, 202127, Note_on_c, 0, 47, 0
4, 202127, Note_on_c, 0, 44, 0
4, 202320, Note_on_c, 0, 45, 52
4, 202367, Note_on_c, 0, 45, 0
4, 202560, Note_on_c, 0, 33, 52
4, 202560, Note_on_c, 0, 45, 52
4, 202656, Note_on_c, 0, 45, 0
4, 202656, Note_on_c, 0, 33, 0
4, 203040, Note_on_c, 0, 33, 52
4, 203040, Note_on_c, 0, 45, 52
4, 203136, Note_on_c, 0, 45, 0
4, 203136, Note_on_c, 0, 33, 0
4, 203520, Note_on_c, 0, 44, 39
4, 203520, Note_on_c, 0, 47, 39
4, 203567, Note_on_c, 0, 47, 0
4, 203567, Note_on_c, 0, 44, 0
4, 203760, Note_on_c, 0, 45, 39
4, 203807, Note_on_c, 0, 45, 0
4, 204000, Note_on_c, 0, 44, 39
4, 204000, Note_on_c, 0, 47, 39
4, 204047, Note_on_c, 0, 47, 0
4, 204047, Note_on_c, 0, 44, 0
4, 204240, Note_on_c, 0, 45, 39
4, 204287, Note_on_c, 0, 45, 0
4, 204480, Note_on_c, 0, 33, 39
4, 204480, Note_on_c, 0, 45, 39
4, 204576, Note_on_c, 0, 45, 0
4, 204576, Note_on_c, 0, 33, 0
4, 204960, Note_on_c, 0, 33, 39
4, 204960, Note_on_c, 0, 45, 39
4, 205056, Note_on_c, 0, 45, 0
4, 205056, Note_on_c, 0, 33, 0
4, 206400, Note_on_c, 0, 33, 39
4, 206400, Note_on_c, 0, 45, 39
4, 206496, Note_on_c, 0, 45, 0
4, 206496, Note_on_c, 0, 33, 0
4, 206880, Note_on_c, 0, 33, 39
4, 206880, Note_on_c, 0, 45, 39
4, 206976, Note_on_c, 0, 45, 0
4, 206976, Note_on_c, 0, 33, 0
4, 208320, Note_on_c, 0, 33, 39
4, 208320, Note_on_c, 0, 45, 39
4, 208416, Note_on_c, 0, 45, 0
4, 208416, Note_on_c, 0, 33, 0
4, 208800, Note_on_c, 0, 33, 39
4, 208800, Note_on_c, 0, 45, 39
4, 208896, Note_on_c, 0, 45, 0
4, 208896, Note_on_c, 0, 33, 0
4, 209280, Note_on_c, 0, 45, 65
4, 209280, Note_on_c, 0, 48, 65
4, 209280, Note_on_c, 0, 52, 65
4, 209760, Note_on_c, 0, 52, 0
4, 209760, Note_on_c, 0, 48, 0
4, 209760, Note_on_c, 0, 45, 0
4, 209760, Note_on_c, 0, 45, 65
4, 209760, Note_on_c, 0, 48, 65
4, 209760, Note_on_c, 0, 52, 65
4, 210240, Note_on_c, 0, 52, 0
4, 210240, Note_on_c, 0, 48, 0
4, 210240, Note_on_c, 0, 45, 0
4, 210240, Note_on_c, 0, 33, 39
4, 210240, Note_on_c, 0, 45, 39
4, 210336, Note_on_c, 0, 45, 0
4, 210336, Note_on_c, 0, 33, 0
4, 210720, Note_on_c, 0, 33, 39
4, 210720, Note_on_c, 0, 45, 39
4, 210816, Note_on_c, 0, 45, 0
4, 210816, Note_on_c, 0, 33, 0
4, 211200, Note_on_c, 0, 44, 65
4, 211200, Note_on_c, 0, 48, 65
4, 211200, Note_on_c, 0, 54, 65
4, 211680, Note_on_c, 0, 54, 0
4, 211680, Note_on_c, 0, 48, 0
4, 211680, Note_on_c, 0, 44, 0
4, 211680, Note_on_c, 0, 44, 65
4, 211680, Note_on_c, 0, 48, 65
4, 211680, Note_on_c, 0, 54, 65
4, 212160, Note_on_c, 0, 54, 0
4, 212160, Note_on_c, 0, 48, 0
4, 212160, Note_on_c, 0, 44, 0
4, 212160, Note_on_c, 0, 32, 39
4, 212160, Note_on_c, 0, 44, 39
4, 212256, Note_on_c, 0, 44, 0
4, 212256, Note_on_c, 0, 32, 0
4, 212640, Note_on_c, 0, 32, 39
4, 212640, Note_on_c, 0, 44, 39
4, 212736, Note_on_c, 0, 44, 0
4, 212736, Note_on_c, 0, 32, 0
4, 213120, Note_on_c, 0, 43, 78
4, 213120, Note_on_c, 0, 48, 78
4, 213120, Note_on_c, 0, 55, 78
4, 213600, Note_on_c, 0, 55, 0
4, 213600, Note_on_c, 0, 48, 0
4, 213600, Note_on_c, 0, 43, 0
4, 213600, Note_on_c, 0, 43, 78
4, 213600, Note_on_c, 0, 48, 78
4, 213600, Note_on_c, 0, 55, 78
4, 214080, Note_on_c, 0, 55, 0
4, 214080, Note_on_c, 0, 48, 0
4, 214080, Note_on_c, 0, 43, 0
4, 214080, Note_on_c, 0, 31, 52
4, 214080, Note_on_c, 0, 43, 52
4, 214176, Note_on_c, 0, 43, 0
4, 214176, Note_on_c, 0, 31, 0
4, 214560, Note_on_c, 0, 31, 52
4, 214560, Note_on_c, 0, 43, 52
4, 214656, Note_on_c, 0, 43, 0
4, 214656, Note_on_c, 0, 31, 0
4, 215040, Note_on_c, 0, 43, 78
4, 215040, Note_on_c, 0, 48, 78
4, 215040, Note_on_c, 0, 52, 78
4, 215520, Note_on_c, 0, 52, 0
4, 215520, Note_on_c, 0, 48, 0
4, 215520, Note_on_c, 0, 43, 0
4, 215520, Note_on_c, 0, 43, 78
4, 215520, Note_on_c, 0, 48, 78
4, 215520, Note_on_c, 0, 52, 78
4, 216000, Note_on_c, 0, 52, 0
4, 216000, Note_on_c, 0, 48, 0
4, 216000, Note_on_c, 0, 43, 0
4, 216000, Note_on_c, 0, 31, 52
4, 216000, Note_on_c, 0, 43, 52
4, 216096, Note_on_c, 0, 43, 0
4, 216096, Note_on_c, 0, 31, 0
4, 216480, Note_on_c, 0, 31, 52
4, 216480, Note_on_c, 0, 43, 52
4, 216576, Note_on_c, 0, 43, 0
4, 216576, Note_on_c, 0, 31, 0
4, 216960, Note_on_c, 0, 43, 65
4, 216960, Note_on_c, 0, 50, 65
4, 216960, Note_on_c, 0, 53, 65
4, 217440, Note_on_c, 0, 53, 0
4, 217440, Note_on_c, 0, 50, 0
4, 217440, Note_on_c, 0, 43, 0
4, 217440, Note_on_c, 0, 43, 65
4, 217440, Note_on_c, 0, 50, 65
4, 217440, Note_on_c, 0, 53, 65
4, 217920, Note_on_c, 0, 53, 0
4, 217920, Note_on_c, 0, 50, 0
4, 217920, Note_on_c, 0, 43, 0
4, 217920, Note_on_c, 0, 31, 39
4, 217920, Note_on_c, 0, 43, 39
4, 218016, Note_on_c, 0, 43, 0
4, 218016, Note_on_c, 0, 31, 0
4, 218400, Note_on_c, 0, 31, 39
4, 218400, Note_on_c, 0, 43, 39
4, 218496, Note_on_c, 0, 43, 0
4, 218496, Note_on_c, 0, 31, 0
4, 218880, Note_on_c, 0, 43, 65
4, 218880, Note_on_c, 0, 47, 65
4, 218880, Note_on_c, 0, 53, 65
4, 219360, Note_on_c, 0, 53, 0
4, 219360, Note_on_c, 0, 47, 0
4, 219360, Note_on_c, 0, 43, 0
4, 219360, Note_on_c, 0, 43, 65
4, 219360, Note_on_c, 0, 47, 65
4, 219360, Note_on_c, 0, 53, 65
4, 219840, Note_on_c, 0, 53, 0
4, 219840, Note_on_c, 0, 47, 0
4, 219840, Note_on_c, 0, 43, 0
4, 219840, Note_on_c, 0, 31, 39
4, 219840, Note_on_c, 0, 43, 39
4, 219936, Note_on_c, 0, 43, 0
4, 219936, Note_on_c, 0, 31, 0
4, 220320, Note_on_c, 0, 31, 39
4, 220320, Note_on_c, 0, 43, 39
4, 220416, Note_on_c, 0, 43, 0
4, 220416, Note_on_c, 0, 31, 0
4, 220416, End_track
5, 0, Start_track
5, 0, Title_t, "Grand Piano"
5, 0, Program_c, 0, 0
5, 0, Control_c, 0, 7, 115
5, 0, Control_c, 0, 10, 79
5, 11520, Note_on_c, 0, 52, 62
5, 11520, Note_on_c, 0, 55, 62
5, 11760, Note_on_c, 0, 55, 0
5, 11760, Note_on_c, 0, 52, 0
5, 11760, Note_on_c, 0, 52, 62
5, 11760, Note_on_c, 0, 55, 62
5, 12000, Note_on_c, 0, 55, 0
5, 12000, Note_on_c, 0, 52, 0
5, 112560, Note_on_c, 0, 44, 88
5, 112560, Note_on_c, 0, 50, 88
5, 113040, Note_on_c, 0, 50, 0
5, 113040, Note_on_c, 0, 44, 0
5, 113040, Note_on_c, 0, 44, 88
5, 113040, Note_on_c, 0, 50, 88
5, 113520, Note_on_c, 0, 50, 0
5, 113520, Note_on_c, 0, 44, 0
5, 113520, Note_on_c, 0, 44, 88
5, 113520, Note_on_c, 0, 50, 88
5, 114000, Note_on_c, 0, 50, 0
5, 114000, Note_on_c, 0, 44, 0
5, 114000, Note_on_c, 0, 44, 88
5, 114000, Note_on_c, 0, 50, 88
5, 114480, Note_on_c, 0, 50, 0
5, 114480, Note_on_c, 0, 44, 0
5, 114480, Note_on_c, 0, 56, 88
5, 114960, Note_on_c, 0, 56, 0
5, 114960, Note_on_c, 0, 52, 88
5, 115440, Note_on_c, 0, 52, 0
5, 120240, Note_on_c, 0, 44, 88
5, 120240, Note_on_c, 0, 50, 88
5, 120720, Note_on_c, 0, 50, 0
5, 120720, Note_on_c, 0, 44, 0
5, 120720, Note_on_c, 0, 44, 88
5, 120720, Note_on_c, 0, 50, 88
5, 121200, Note_on_c, 0, 50, 0
5, 121200, Note_on_c, 0, 44, 0
5, 121200, Note_on_c, 0, 44, 88
5, 121200, Note_on_c, 0, 50, 88
5, 121680, Note_on_c, 0, 50, 0
5, 121680, Note_on_c, 0, 44, 0
5, 121680, Note_on_c, 0, 44, 88
5, 121680, Note_on_c, 0, 50, 88
5, 122160, Note_on_c, 0, 50, 0
5, 122160, Note_on_c, 0, 44, 0
5, 122160, Note_on_c, 0, 56, 88
5, 122640, Note_on_c, 0, 56, 0
5, 122640, Note_on_c, 0, 52, 88
5, 123120, Note_on_c, 0, 52, 0
5, 123120, End_track
0, 0, End_of_file
