0, 0, Header, 1, 5, 480
1, 0, Start_track
1, 0, Title_t, "tchaikovsky nutcracker act2 12d trepak"
1, 0, Copyright_t, "Adaptation for Disklavier pianos, by: Robert C. Kuhmann (c) 2012."
1, 0, Text_t, "Seq. (c) by: Segundo G. Yogore, 2007\012"
1, 0, Time_signature, 2, 2, 24, 8
1, 0, Key_signature, 1, "major"
1, 0, Tempo, 357143
1, 7680, Tempo, 357143
1, 15360, Tempo, 357143
1, 23040, Tempo, 357143
1, 67200, Tempo, 337079
1, 76800, Tempo, 319149
1, 79680, Time_signature, 8, 2, 24, 8
1, 79680, End_track
2, 0, Start_track
2, 0, Title_t, "Grand Piano"
2, 0, Program_c, 0, 0
2, 0, Control_c, 0, 7, 115
2, 0, Control_c, 0, 10, 86
2, 0, Note_on_c, 0, 79, 88
2, 47, Note_on_c, 0, 79, 0
2, 240, Note_on_c, 0, 79, 62
2, 360, Note_on_c, 0, 79, 0
2, 360, Note_on_c, 0, 78, 62
2, 480, Note_on_c, 0, 78, 0
2, 480, Note_on_c, 0, 79, 62
2, 527, Note_on_c, 0, 79, 0
2, 720, Note_on_c, 0, 79, 62
2, 767, Note_on_c, 0, 79, 0
2, 960, Note_on_c, 0, 76, 62
2, 1007, Note_on_c, 0, 76, 0
2, 1200, Note_on_c, 0, 74, 62
2, 1247, Note_on_c, 0, 74, 0
2, 1440, Note_on_c, 0, 72, 88
2, 1680, Note_on_c, 0, 72, 0
2, 1680, Note_on_c, 0, 76, 62
2, 1920, Note_on_c, 0, 76, 0
2, 1920, Note_on_c, 0, 74, 88
2, 1967, Note_on_c, 0, 74, 0
2, 2160, Note_on_c, 0, 74, 62
2, 2280, Note_on_c, 0, 74, 0
2, 2280, Note_on_c, 0, 73, 62
2, 2400, Note_on_c, 0, 73, 0
2, 2400, Note_on_c, 0, 74, 62
2, 2640, Note_on_c, 0, 74, 0
2, 2640, Note_on_c, 0, 74, 62
2, 2687, Note_on_c, 0, 74, 0
2, 2880, Note_on_c, 0, 71, 62
2, 2927, Note_on_c, 0, 71, 0
2, 3120, Note_on_c, 0, 69, 62
2, 3167, Note_on_c, 0, 69, 0
2, 3360, Note_on_c, 0, 67, 62
2, 3407, Note_on_c, 0, 67, 0
2, 3600, Note_on_c, 0, 71, 62
2, 3720, Note_on_c, 0, 71, 0
2, 3720, Note_on_c, 0, 74, 62
2, 3840, Note_on_c, 0, 74, 0
2, 3840, Note_on_c, 0, 69, 62
2, 3887, Note_on_c, 0, 69, 0
2, 4080, Note_on_c, 0, 69, 62
2, 4200, Note_on_c, 0, 69, 0
2, 4200, Note_on_c, 0, 74, 62
2, 4320, Note_on_c, 0, 74, 0
2, 4320, Note_on_c, 0, 67, 62
2, 4367, Note_on_c, 0, 67, 0
2, 4560, Note_on_c, 0, 67, 62
2, 4680, Note_on_c, 0, 67, 0
2, 4680, Note_on_c, 0, 74, 62
2, 4800, Note_on_c, 0, 74, 0
2, 4800, Note_on_c, 0, 66, 62
2, 4847, Note_on_c, 0, 66, 0
2, 5040, Note_on_c, 0, 66, 62
2, 5160, Note_on_c, 0, 66, 0
2, 5160, Note_on_c, 0, 74, 62
2, 5280, Note_on_c, 0, 74, 0
2, 5280, Note_on_c, 0, 69, 62
2, 5327, Note_on_c, 0, 69, 0
2, 5520, Note_on_c, 0, 69, 62
2, 5640, Note_on_c, 0, 69, 0
2, 5640, Note_on_c, 0, 74, 62
2, 5760, Note_on_c, 0, 74, 0
2, 5760, Note_on_c, 0, 71, 62
2, 5807, Note_on_c, 0, 71, 0
2, 6000, Note_on_c, 0, 71, 62
2, 6120, Note_on_c, 0, 71, 0
2, 6120, Note_on_c, 0, 74, 62
2, 6240, Note_on_c, 0, 74, 0
2, 6240, Note_on_c, 0, 67, 62
2, 6287, Note_on_c, 0, 67, 0
2, 6480, Note_on_c, 0, 67, 75
2, 6600, Note_on_c, 0, 67, 0
2, 6600, Note_on_c, 0, 74, 75
2, 6720, Note_on_c, 0, 74, 0
2, 6720, Note_on_c, 0, 69, 75
2, 6960, Note_on_c, 0, 69, 0
2, 7320, Note_on_c, 0, 74, 75
2, 7440, Note_on_c, 0, 74, 0
2, 7440, Note_on_c, 0, 76, 75
2, 7560, Note_on_c, 0, 76, 0
2, 7560, Note_on_c, 0, 78, 75
2, 7680, Note_on_c, 0, 78, 0
2, 7680, Note_on_c, 0, 79, 88
2, 7727, Note_on_c, 0, 79, 0
2, 7920, Note_on_c, 0, 79, 62
2, 8040, Note_on_c, 0, 79, 0
2, 8040, Note_on_c, 0, 78, 62
2, 8160, Note_on_c, 0, 78, 0
2, 8160, Note_on_c, 0, 79, 62
2, 8207, Note_on_c, 0, 79, 0
2, 8400, Note_on_c, 0, 79, 62
2, 8447, Note_on_c, 0, 79, 0
2, 8640, Note_on_c, 0, 76, 62
2, 8687, Note_on_c, 0, 76, 0
2, 8880, Note_on_c, 0, 74, 62
2, 8927, Note_on_c, 0, 74, 0
2, 9120, Note_on_c, 0, 72, 88
2, 9360, Note_on_c, 0, 72, 0
2, 9360, Note_on_c, 0, 76, 62
2, 9600, Note_on_c, 0, 76, 0
2, 9600, Note_on_c, 0, 74, 88
2, 9647, Note_on_c, 0, 74, 0
2, 9840, Note_on_c, 0, 74, 62
2, 9960, Note_on_c, 0, 74, 0
2, 9960, Note_on_c, 0, 73, 62
2, 10080, Note_on_c, 0, 73, 0
2, 10080, Note_on_c, 0, 74, 62
2, 10320, Note_on_c, 0, 74, 0
2, 10320, Note_on_c, 0, 74, 62
2, 10367, Note_on_c, 0, 74, 0
2, 10560, Note_on_c, 0, 71, 62
2, 10607, Note_on_c, 0, 71, 0
2, 10800, Note_on_c, 0, 69, 62
2, 10847, Note_on_c, 0, 69, 0
2, 11040, Note_on_c, 0, 67, 62
2, 11087, Note_on_c, 0, 67, 0
2, 11280, Note_on_c, 0, 71, 62
2, 11400, Note_on_c, 0, 71, 0
2, 11400, Note_on_c, 0, 74, 62
2, 11520, Note_on_c, 0, 74, 0
2, 11520, Note_on_c, 0, 69, 62
2, 11567, Note_on_c, 0, 69, 0
2, 11760, Note_on_c, 0, 69, 62
2, 11880, Note_on_c, 0, 69, 0
2, 11880, Note_on_c, 0, 74, 62
2, 12000, Note_on_c, 0, 74, 0
2, 12000, Note_on_c, 0, 67, 62
2, 12047, Note_on_c, 0, 67, 0
2, 12240, Note_on_c, 0, 67, 62
2, 12360, Note_on_c, 0, 67, 0
2, 12360, Note_on_c, 0, 74, 62
2, 12480, Note_on_c, 0, 74, 0
2, 12480, Note_on_c, 0, 66, 62
2, 12527, Note_on_c, 0, 66, 0
2, 12720, Note_on_c, 0, 66, 62
2, 12840, Note_on_c, 0, 66, 0
2, 12840, Note_on_c, 0, 74, 62
2, 12960, Note_on_c, 0, 74, 0
2, 12960, Note_on_c, 0, 69, 62
2, 13007, Note_on_c, 0, 69, 0
2, 13200, Note_on_c, 0, 69, 62
2, 13320, Note_on_c, 0, 69, 0
2, 13320, Note_on_c, 0, 74, 62
2, 13440, Note_on_c, 0, 74, 0
2, 13440, Note_on_c, 0, 71, 62
2, 13487, Note_on_c, 0, 71, 0
2, 13680, Note_on_c, 0, 71, 62
2, 13800, Note_on_c, 0, 71, 0
2, 13800, Note_on_c, 0, 74, 62
2, 13920, Note_on_c, 0, 74, 0
2, 13920, Note_on_c, 0, 67, 62
2, 13967, Note_on_c, 0, 67, 0
2, 14160, Note_on_c, 0, 67, 75
2, 14280, Note_on_c, 0, 67, 0
2, 14280, Note_on_c, 0, 74, 75
2, 14400, Note_on_c, 0, 74, 0
2, 14400, Note_on_c, 0, 69, 75
2, 14640, Note_on_c, 0, 69, 0
2, 15120, Note_on_c, 0, 86, 101
2, 15200, Note_on_c, 0, 86, 0
2, 15200, Note_on_c, 0, 88, 101
2, 15279, Note_on_c, 0, 88, 0
2, 15279, Note_on_c, 0, 90, 101
2, 15360, Note_on_c, 0, 90, 0
2, 15360, Note_on_c, 0, 91, 101
2, 15407, Note_on_c, 0, 91, 0
2, 15600, Note_on_c, 0, 91, 75
2, 15720, Note_on_c, 0, 91, 0
2, 15720, Note_on_c, 0, 90, 75
2, 15840, Note_on_c, 0, 90, 0
2, 15840, Note_on_c, 0, 91, 75
2, 15887, Note_on_c, 0, 91, 0
2, 16080, Note_on_c, 0, 91, 75
2, 16127, Note_on_c, 0, 91, 0
2, 16320, Note_on_c, 0, 79, 75
2, 16320, Note_on_c, 0, 84, 75
2, 16320, Note_on_c, 0, 88, 75
2, 16367, Note_on_c, 0, 88, 0
2, 16367, Note_on_c, 0, 84, 0
2, 16367, Note_on_c, 0, 79, 0
2, 16560, Note_on_c, 0, 79, 75
2, 16560, Note_on_c, 0, 83, 75
2, 16560, Note_on_c, 0, 86, 75
2, 16607, Note_on_c, 0, 86, 0
2, 16607, Note_on_c, 0, 83, 0
2, 16607, Note_on_c, 0, 79, 0
2, 16800, Note_on_c, 0, 72, 101
2, 16800, Note_on_c, 0, 84, 101
2, 17040, Note_on_c, 0, 84, 0
2, 17040, Note_on_c, 0, 72, 0
2, 17040, Note_on_c, 0, 76, 75
2, 17040, Note_on_c, 0, 88, 75
2, 17280, Note_on_c, 0, 88, 0
2, 17280, Note_on_c, 0, 76, 0
2, 17280, Note_on_c, 0, 79, 101
2, 17280, Note_on_c, 0, 83, 101
2, 17280, Note_on_c, 0, 86, 101
2, 17327, Note_on_c, 0, 86, 0
2, 17327, Note_on_c, 0, 83, 0
2, 17327, Note_on_c, 0, 79, 0
2, 17520, Note_on_c, 0, 86, 75
2, 17640, Note_on_c, 0, 86, 0
2, 17640, Note_on_c, 0, 85, 75
2, 17760, Note_on_c, 0, 85, 0
2, 17760, Note_on_c, 0, 86, 75
2, 18000, Note_on_c, 0, 86, 0
2, 18000, Note_on_c, 0, 86, 75
2, 18047, Note_on_c, 0, 86, 0
2, 18240, Note_on_c, 0, 79, 75
2, 18240, Note_on_c, 0, 83, 75
2, 18287, Note_on_c, 0, 83, 0
2, 18287, Note_on_c, 0, 79, 0
2, 18480, Note_on_c, 0, 78, 75
2, 18480, Note_on_c, 0, 81, 75
2, 18527, Note_on_c, 0, 81, 0
2, 18527, Note_on_c, 0, 78, 0
2, 18720, Note_on_c, 0, 79, 75
2, 18767, Note_on_c, 0, 79, 0
2, 18960, Note_on_c, 0, 79, 75
2, 18960, Note_on_c, 0, 83, 75
2, 19080, Note_on_c, 0, 83, 0
2, 19080, Note_on_c, 0, 79, 0
2, 19080, Note_on_c, 0, 86, 75
2, 19200, Note_on_c, 0, 86, 0
2, 19200, Note_on_c, 0, 78, 75
2, 19200, Note_on_c, 0, 81, 75
2, 19247, Note_on_c, 0, 81, 0
2, 19247, Note_on_c, 0, 78, 0
2, 19440, Note_on_c, 0, 78, 75
2, 19440, Note_on_c, 0, 81, 75
2, 19560, Note_on_c, 0, 81, 0
2, 19560, Note_on_c, 0, 78, 0
2, 19560, Note_on_c, 0, 86, 75
2, 19680, Note_on_c, 0, 86, 0
2, 19680, Note_on_c, 0, 76, 75
2, 19680, Note_on_c, 0, 79, 75
2, 19727, Note_on_c, 0, 79, 0
2, 19727, Note_on_c, 0, 76, 0
2, 19920, Note_on_c, 0, 76, 75
2, 19920, Note_on_c, 0, 79, 75
2, 20040, Note_on_c, 0, 79, 0
2, 20040, Note_on_c, 0, 76, 0
2, 20040, Note_on_c, 0, 86, 75
2, 20160, Note_on_c, 0, 86, 0
2, 20160, Note_on_c, 0, 74, 75
2, 20160, Note_on_c, 0, 78, 75
2, 20207, Note_on_c, 0, 78, 0
2, 20207, Note_on_c, 0, 74, 0
2, 20400, Note_on_c, 0, 74, 75
2, 20400, Note_on_c, 0, 78, 75
2, 20520, Note_on_c, 0, 78, 0
2, 20520, Note_on_c, 0, 74, 0
2, 20520, Note_on_c, 0, 86, 75
2, 20640, Note_on_c, 0, 86, 0
2, 20640, Note_on_c, 0, 78, 75
2, 20640, Note_on_c, 0, 81, 75
2, 20687, Note_on_c, 0, 81, 0
2, 20687, Note_on_c, 0, 78, 0
2, 20880, Note_on_c, 0, 78, 75
2, 20880, Note_on_c, 0, 81, 75
2, 21000, Note_on_c, 0, 81, 0
2, 21000, Note_on_c, 0, 78, 0
2, 21000, Note_on_c, 0, 86, 75
2, 21120, Note_on_c, 0, 86, 0
2, 21120, Note_on_c, 0, 79, 75
2, 21120, Note_on_c, 0, 83, 75
2, 21167, Note_on_c, 0, 83, 0
2, 21167, Note_on_c, 0, 79, 0
2, 21360, Note_on_c, 0, 79, 75
2, 21360, Note_on_c, 0, 83, 75
2, 21480, Note_on_c, 0, 83, 0
2, 21480, Note_on_c, 0, 79, 0
2, 21480, Note_on_c, 0, 86, 75
2, 21600, Note_on_c, 0, 86, 0
2, 21600, Note_on_c, 0, 76, 75
2, 21600, Note_on_c, 0, 79, 75
2, 21647, Note_on_c, 0, 79, 0
2, 21647, Note_on_c, 0, 76, 0
2, 21840, Note_on_c, 0, 76, 75
2, 21840, Note_on_c, 0, 79, 75
2, 21960, Note_on_c, 0, 79, 0
2, 21960, Note_on_c, 0, 76, 0
2, 21960, Note_on_c, 0, 86, 75
2, 22080, Note_on_c, 0, 86, 0
2, 22080, Note_on_c, 0, 78, 88
2, 22080, Note_on_c, 0, 81, 88
2, 22320, Note_on_c, 0, 81, 0
2, 22320, Note_on_c, 0, 78, 0
2, 22320, Note_on_c, 0, 76, 88
2, 22320, Note_on_c, 0, 79, 88
2, 22560, Note_on_c, 0, 79, 0
2, 22560, Note_on_c, 0, 76, 0
2, 22560, Note_on_c, 0, 78, 88
2, 22560, Note_on_c, 0, 81, 88
2, 22680, Note_on_c, 0, 81, 0
2, 22680, Note_on_c, 0, 78, 0
2, 22680, Note_on_c, 0, 86, 101
2, 22800, Note_on_c, 0, 86, 0
2, 22800, Note_on_c, 0, 88, 101
2, 22920, Note_on_c, 0, 88, 0
2, 22920, Note_on_c, 0, 90, 101
2, 23040, Note_on_c, 0, 90, 0
2, 23040, Note_on_c, 0, 91, 101
2, 23087, Note_on_c, 0, 91, 0
2, 23280, Note_on_c, 0, 91, 75
2, 23400, Note_on_c, 0, 91, 0
2, 23400, Note_on_c, 0, 90, 75
2, 23520, Note_on_c, 0, 90, 0
2, 23520, Note_on_c, 0, 91, 75
2, 23567, Note_on_c, 0, 91, 0
2, 23760, Note_on_c, 0, 91, 75
2, 23807, Note_on_c, 0, 91, 0
2, 24000, Note_on_c, 0, 79, 75
2, 24000, Note_on_c, 0, 84, 75
2, 24000, Note_on_c, 0, 88, 75
2, 24047, Note_on_c, 0, 88, 0
2, 24047, Note_on_c, 0, 84, 0
2, 24047, Note_on_c, 0, 79, 0
2, 24240, Note_on_c, 0, 79, 75
2, 24240, Note_on_c, 0, 83, 75
2, 24240, Note_on_c, 0, 86, 75
2, 24287, Note_on_c, 0, 86, 0
2, 24287, Note_on_c, 0, 83, 0
2, 24287, Note_on_c, 0, 79, 0
2, 24480, Note_on_c, 0, 72, 101
2, 24480, Note_on_c, 0, 84, 101
2, 24720, Note_on_c, 0, 84, 0
2, 24720, Note_on_c, 0, 72, 0
2, 24720, Note_on_c, 0, 76, 75
2, 24720, Note_on_c, 0, 88, 75
2, 24960, Note_on_c, 0, 88, 0
2, 24960, Note_on_c, 0, 76, 0
2, 24960, Note_on_c, 0, 79, 101
2, 24960, Note_on_c, 0, 83, 101
2, 24960, Note_on_c, 0, 86, 101
2, 25007, Note_on_c, 0, 86, 0
2, 25007, Note_on_c, 0, 83, 0
2, 25007, Note_on_c, 0, 79, 0
2, 25200, Note_on_c, 0, 86, 75
2, 25320, Note_on_c, 0, 86, 0
2, 25320, Note_on_c, 0, 85, 75
2, 25440, Note_on_c, 0, 85, 0
2, 25440, Note_on_c, 0, 86, 75
2, 25680, Note_on_c, 0, 86, 0
2, 25680, Note_on_c, 0, 86, 75
2, 25727, Note_on_c, 0, 86, 0
2, 25920, Note_on_c, 0, 79, 75
2, 25920, Note_on_c, 0, 83, 75
2, 25967, Note_on_c, 0, 83, 0
2, 25967, Note_on_c, 0, 79, 0
2, 26160, Note_on_c, 0, 81, 75
2, 26207, Note_on_c, 0, 81, 0
2, 26400, Note_on_c, 0, 79, 75
2, 26447, Note_on_c, 0, 79, 0
2, 26640, Note_on_c, 0, 79, 75
2, 26640, Note_on_c, 0, 83, 75
2, 26760, Note_on_c, 0, 83, 0
2, 26760, Note_on_c, 0, 79, 0
2, 26760, Note_on_c, 0, 86, 75
2, 26880, Note_on_c, 0, 86, 0
2, 26880, Note_on_c, 0, 78, 75
2, 26880, Note_on_c, 0, 81, 75
2, 26927, Note_on_c, 0, 81, 0
2, 26927, Note_on_c, 0, 78, 0
2, 27120, Note_on_c, 0, 78, 75
2, 27120, Note_on_c, 0, 81, 75
2, 27240, Note_on_c, 0, 81, 0
2, 27240, Note_on_c, 0, 78, 0
2, 27240, Note_on_c, 0, 86, 75
2, 27360, Note_on_c, 0, 86, 0
2, 27360, Note_on_c, 0, 76, 75
2, 27360, Note_on_c, 0, 79, 75
2, 27407, Note_on_c, 0, 79, 0
2, 27407, Note_on_c, 0, 76, 0
2, 27600, Note_on_c, 0, 76, 75
2, 27600, Note_on_c, 0, 79, 75
2, 27720, Note_on_c, 0, 79, 0
2, 27720, Note_on_c, 0, 76, 0
2, 27720, Note_on_c, 0, 86, 75
2, 27840, Note_on_c, 0, 86, 0
2, 27840, Note_on_c, 0, 74, 75
2, 27840, Note_on_c, 0, 78, 75
2, 27887, Note_on_c, 0, 78, 0
2, 27887, Note_on_c, 0, 74, 0
2, 28080, Note_on_c, 0, 74, 75
2, 28080, Note_on_c, 0, 78, 75
2, 28200, Note_on_c, 0, 78, 0
2, 28200, Note_on_c, 0, 74, 0
2, 28200, Note_on_c, 0, 86, 75
2, 28320, Note_on_c, 0, 86, 0
2, 28320, Note_on_c, 0, 78, 75
2, 28320, Note_on_c, 0, 81, 75
2, 28367, Note_on_c, 0, 81, 0
2, 28367, Note_on_c, 0, 78, 0
2, 28560, Note_on_c, 0, 78, 75
2, 28560, Note_on_c, 0, 81, 75
2, 28680, Note_on_c, 0, 81, 0
2, 28680, Note_on_c, 0, 78, 0
2, 28680, Note_on_c, 0, 86, 75
2, 28800, Note_on_c, 0, 86, 0
2, 28800, Note_on_c, 0, 79, 75
2, 28800, Note_on_c, 0, 83, 75
2, 28847, Note_on_c, 0, 83, 0
2, 28847, Note_on_c, 0, 79, 0
2, 29040, Note_on_c, 0, 79, 75
2, 29040, Note_on_c, 0, 83, 75
2, 29160, Note_on_c, 0, 83, 0
2, 29160, Note_on_c, 0, 79, 0
2, 29160, Note_on_c, 0, 86, 75
2, 29280, Note_on_c, 0, 86, 0
2, 29280, Note_on_c, 0, 78, 88
2, 29280, Note_on_c, 0, 81, 88
2, 29327, Note_on_c, 0, 81, 0
2, 29327, Note_on_c, 0, 78, 0
2, 29520, Note_on_c, 0, 78, 88
2, 29520, Note_on_c, 0, 81, 88
2, 29640, Note_on_c, 0, 81, 0
2, 29640, Note_on_c, 0, 78, 0
2, 29640, Note_on_c, 0, 86, 88
2, 29760, Note_on_c, 0, 86, 0
2, 29760, Note_on_c, 0, 79, 101
2, 29807, Note_on_c, 0, 79, 0
2, 30000, Note_on_c, 0, 76, 101
2, 30047, Note_on_c, 0, 76, 0
2, 30240, Note_on_c, 0, 79, 101
2, 30287, Note_on_c, 0, 79, 0
2, 30960, Note_on_c, 0, 78, 88
2, 30960, Note_on_c, 0, 81, 88
2, 30960, Note_on_c, 0, 86, 88
2, 31007, Note_on_c, 0, 86, 0
2, 31007, Note_on_c, 0, 81, 0
2, 31007, Note_on_c, 0, 78, 0
2, 31440, Note_on_c, 0, 78, 88
2, 31440, Note_on_c, 0, 81, 88
2, 31440, Note_on_c, 0, 86, 88
2, 31487, Note_on_c, 0, 86, 0
2, 31487, Note_on_c, 0, 81, 0
2, 31487, Note_on_c, 0, 78, 0
2, 31920, Note_on_c, 0, 79, 88
2, 31920, Note_on_c, 0, 83, 88
2, 31920, Note_on_c, 0, 88, 88
2, 31967, Note_on_c, 0, 88, 0
2, 31967, Note_on_c, 0, 83, 0
2, 31967, Note_on_c, 0, 79, 0
2, 32400, Note_on_c, 0, 79, 88
2, 32400, Note_on_c, 0, 83, 88
2, 32400, Note_on_c, 0, 88, 88
2, 32447, Note_on_c, 0, 88, 0
2, 32447, Note_on_c, 0, 83, 0
2, 32447, Note_on_c, 0, 79, 0
2, 32880, Note_on_c, 0, 81, 88
2, 32880, Note_on_c, 0, 85, 88
2, 32880, Note_on_c, 0, 88, 88
2, 32927, Note_on_c, 0, 88, 0
2, 32927, Note_on_c, 0, 85, 0
2, 32927, Note_on_c, 0, 81, 0
2, 33360, Note_on_c, 0, 81, 88
2, 33360, Note_on_c, 0, 85, 88
2, 33360, Note_on_c, 0, 88, 88
2, 33407, Note_on_c, 0, 88, 0
2, 33407, Note_on_c, 0, 85, 0
2, 33407, Note_on_c, 0, 81, 0
2, 33840, Note_on_c, 0, 81, 88
2, 33840, Note_on_c, 0, 85, 88
2, 33840, Note_on_c, 0, 90, 88
2, 33887, Note_on_c, 0, 90, 0
2, 33887, Note_on_c, 0, 85, 0
2, 33887, Note_on_c, 0, 81, 0
2, 34320, Note_on_c, 0, 83, 88
2, 34320, Note_on_c, 0, 86, 88
2, 34320, Note_on_c, 0, 90, 88
2, 34367, Note_on_c, 0, 90, 0
2, 34367, Note_on_c, 0, 86, 0
2, 34367, Note_on_c, 0, 83, 0
2, 34800, Note_on_c, 0, 83, 88
2, 34800, Note_on_c, 0, 86, 88
2, 34800, Note_on_c, 0, 91, 88
2, 34847, Note_on_c, 0, 91, 0
2, 34847, Note_on_c, 0, 86, 0
2, 34847, Note_on_c, 0, 83, 0
2, 35280, Note_on_c, 0, 81, 88
2, 35280, Note_on_c, 0, 85, 88
2, 35280, Note_on_c, 0, 90, 88
2, 35327, Note_on_c, 0, 90, 0
2, 35327, Note_on_c, 0, 85, 0
2, 35327, Note_on_c, 0, 81, 0
2, 35760, Note_on_c, 0, 79, 88
2, 35760, Note_on_c, 0, 83, 88
2, 35760, Note_on_c, 0, 88, 88
2, 35807, Note_on_c, 0, 88, 0
2, 35807, Note_on_c, 0, 83, 0
2, 35807, Note_on_c, 0, 79, 0
2, 36240, Note_on_c, 0, 78, 88
2, 36240, Note_on_c, 0, 83, 88
2, 36240, Note_on_c, 0, 86, 88
2, 36287, Note_on_c, 0, 86, 0
2, 36287, Note_on_c, 0, 83, 0
2, 36287, Note_on_c, 0, 78, 0
2, 36720, Note_on_c, 0, 76, 88
2, 36720, Note_on_c, 0, 79, 88
2, 36720, Note_on_c, 0, 85, 88
2, 36767, Note_on_c, 0, 85, 0
2, 36767, Note_on_c, 0, 79, 0
2, 36767, Note_on_c, 0, 76, 0
2, 37200, Note_on_c, 0, 85, 88
2, 37200, Note_on_c, 0, 91, 88
2, 37200, Note_on_c, 0, 95, 88
2, 37247, Note_on_c, 0, 95, 0
2, 37247, Note_on_c, 0, 91, 0
2, 37247, Note_on_c, 0, 85, 0
2, 37680, Note_on_c, 0, 86, 88
2, 37680, Note_on_c, 0, 93, 88
2, 37727, Note_on_c, 0, 93, 0
2, 37727, Note_on_c, 0, 86, 0
2, 38160, Note_on_c, 0, 88, 88
2, 38160, Note_on_c, 0, 91, 88
2, 38160, Note_on_c, 0, 97, 88
2, 38207, Note_on_c, 0, 97, 0
2, 38207, Note_on_c, 0, 91, 0
2, 38207, Note_on_c, 0, 88, 0
2, 38400, Note_on_c, 0, 90, 88
2, 38400, Note_on_c, 0, 93, 88
2, 38400, Note_on_c, 0, 98, 88
2, 38447, Note_on_c, 0, 98, 0
2, 38447, Note_on_c, 0, 93, 0
2, 38447, Note_on_c, 0, 90, 0
2, 38640, Note_on_c, 0, 90, 88
2, 38640, Note_on_c, 0, 93, 88
2, 38640, Note_on_c, 0, 98, 88
2, 38687, Note_on_c, 0, 98, 0
2, 38687, Note_on_c, 0, 93, 0
2, 38687, Note_on_c, 0, 90, 0
2, 39120, Note_on_c, 0, 78, 88
2, 39120, Note_on_c, 0, 81, 88
2, 39120, Note_on_c, 0, 86, 88
2, 39167, Note_on_c, 0, 86, 0
2, 39167, Note_on_c, 0, 81, 0
2, 39167, Note_on_c, 0, 78, 0
2, 39600, Note_on_c, 0, 79, 88
2, 39600, Note_on_c, 0, 83, 88
2, 39600, Note_on_c, 0, 88, 88
2, 39647, Note_on_c, 0, 88, 0
2, 39647, Note_on_c, 0, 83, 0
2, 39647, Note_on_c, 0, 79, 0
2, 40080, Note_on_c, 0, 79, 88
2, 40080, Note_on_c, 0, 83, 88
2, 40080, Note_on_c, 0, 88, 88
2, 40127, Note_on_c, 0, 88, 0
2, 40127, Note_on_c, 0, 83, 0
2, 40127, Note_on_c, 0, 79, 0
2, 40560, Note_on_c, 0, 81, 88
2, 40560, Note_on_c, 0, 85, 88
2, 40560, Note_on_c, 0, 88, 88
2, 40607, Note_on_c, 0, 88, 0
2, 40607, Note_on_c, 0, 85, 0
2, 40607, Note_on_c, 0, 81, 0
2, 41040, Note_on_c, 0, 81, 88
2, 41040, Note_on_c, 0, 85, 88
2, 41040, Note_on_c, 0, 88, 88
2, 41087, Note_on_c, 0, 88, 0
2, 41087, Note_on_c, 0, 85, 0
2, 41087, Note_on_c, 0, 81, 0
2, 41520, Note_on_c, 0, 81, 88
2, 41520, Note_on_c, 0, 85, 88
2, 41520, Note_on_c, 0, 90, 88
2, 41567, Note_on_c, 0, 90, 0
2, 41567, Note_on_c, 0, 85, 0
2, 41567, Note_on_c, 0, 81, 0
2, 42000, Note_on_c, 0, 83, 88
2, 42000, Note_on_c, 0, 86, 88
2, 42000, Note_on_c, 0, 90, 88
2, 42047, Note_on_c, 0, 90, 0
2, 42047, Note_on_c, 0, 86, 0
2, 42047, Note_on_c, 0, 83, 0
2, 42480, Note_on_c, 0, 83, 88
2, 42480, Note_on_c, 0, 86, 88
2, 42480, Note_on_c, 0, 91, 88
2, 42527, Note_on_c, 0, 91, 0
2, 42527, Note_on_c, 0, 86, 0
2, 42527, Note_on_c, 0, 83, 0
2, 42960, Note_on_c, 0, 81, 88
2, 42960, Note_on_c, 0, 85, 88
2, 42960, Note_on_c, 0, 90, 88
2, 43007, Note_on_c, 0, 90, 0
2, 43007, Note_on_c, 0, 85, 0
2, 43007, Note_on_c, 0, 81, 0
2, 43440, Note_on_c, 0, 79, 88
2, 43440, Note_on_c, 0, 83, 88
2, 43440, Note_on_c, 0, 88, 88
2, 43487, Note_on_c, 0, 88, 0
2, 43487, Note_on_c, 0, 83, 0
2, 43487, Note_on_c, 0, 79, 0
2, 43920, Note_on_c, 0, 78, 88
2, 43920, Note_on_c, 0, 83, 88
2, 43920, Note_on_c, 0, 86, 88
2, 43967, Note_on_c, 0, 86, 0
2, 43967, Note_on_c, 0, 83, 0
2, 43967, Note_on_c, 0, 78, 0
2, 44400, Note_on_c, 0, 76, 88
2, 44400, Note_on_c, 0, 79, 88
2, 44400, Note_on_c, 0, 85, 88
2, 44447, Note_on_c, 0, 85, 0
2, 44447, Note_on_c, 0, 79, 0
2, 44447, Note_on_c, 0, 76, 0
2, 44880, Note_on_c, 0, 74, 88
2, 44880, Note_on_c, 0, 76, 88
2, 44880, Note_on_c, 0, 79, 88
2, 44880, Note_on_c, 0, 83, 88
2, 44927, Note_on_c, 0, 83, 0
2, 44927, Note_on_c, 0, 74, 0
2, 44927, Note_on_c, 0, 76, 0
2, 44927, Note_on_c, 0, 79, 0
2, 45360, Note_on_c, 0, 76, 88
2, 45360, Note_on_c, 0, 79, 88
2, 45360, Note_on_c, 0, 81, 88
2, 45407, Note_on_c, 0, 81, 0
2, 45407, Note_on_c, 0, 79, 0
2, 45407, Note_on_c, 0, 76, 0
2, 45840, Note_on_c, 0, 74, 88
2, 45840, Note_on_c, 0, 78, 88
2, 45840, Note_on_c, 0, 81, 88
2, 45887, Note_on_c, 0, 81, 0
2, 45887, Note_on_c, 0, 78, 0
2, 45887, Note_on_c, 0, 74, 0
2, 46080, Note_on_c, 0, 79, 88
2, 46080, Note_on_c, 0, 84, 88
2, 46127, Note_on_c, 0, 84, 0
2, 46127, Note_on_c, 0, 79, 0
2, 46800, Note_on_c, 0, 73, 88
2, 46920, Note_on_c, 0, 73, 0
2, 46920, Note_on_c, 0, 72, 88
2, 47040, Note_on_c, 0, 72, 0
2, 47040, Note_on_c, 0, 73, 88
2, 47280, Note_on_c, 0, 73, 0
2, 47280, Note_on_c, 0, 74, 101
2, 47400, Note_on_c, 0, 74, 0
2, 47400, Note_on_c, 0, 73, 101
2, 47520, Note_on_c, 0, 73, 0
2, 47520, Note_on_c, 0, 74, 101
2, 47760, Note_on_c, 0, 74, 0
2, 47760, Note_on_c, 0, 74, 101
2, 47760, Note_on_c, 0, 78, 101
2, 47760, Note_on_c, 0, 81, 101
2, 47807, Note_on_c, 0, 81, 0
2, 47807, Note_on_c, 0, 78, 0
2, 47807, Note_on_c, 0, 74, 0
2, 48000, Note_on_c, 0, 79, 101
2, 48000, Note_on_c, 0, 84, 101
2, 48047, Note_on_c, 0, 84, 0
2, 48047, Note_on_c, 0, 79, 0
2, 48720, Note_on_c, 0, 73, 88
2, 48840, Note_on_c, 0, 73, 0
2, 48840, Note_on_c, 0, 72, 88
2, 48960, Note_on_c, 0, 72, 0
2, 48960, Note_on_c, 0, 73, 88
2, 49007, Note_on_c, 0, 73, 0
2, 49200, Note_on_c, 0, 74, 101
2, 49320, Note_on_c, 0, 74, 0
2, 49320, Note_on_c, 0, 73, 101
2, 49440, Note_on_c, 0, 73, 0
2, 49440, Note_on_c, 0, 74, 101
2, 49487, Note_on_c, 0, 74, 0
2, 49680, Note_on_c, 0, 74, 101
2, 49680, Note_on_c, 0, 78, 101
2, 49680, Note_on_c, 0, 81, 101
2, 49727, Note_on_c, 0, 81, 0
2, 49727, Note_on_c, 0, 78, 0
2, 49727, Note_on_c, 0, 74, 0
2, 49920, Note_on_c, 0, 79, 101
2, 49920, Note_on_c, 0, 84, 101
2, 49967, Note_on_c, 0, 84, 0
2, 49967, Note_on_c, 0, 79, 0
2, 50640, Note_on_c, 0, 74, 101
2, 50640, Note_on_c, 0, 78, 101
2, 50640, Note_on_c, 0, 81, 101
2, 50687, Note_on_c, 0, 81, 0
2, 50687, Note_on_c, 0, 78, 0
2, 50687, Note_on_c, 0, 74, 0
2, 50880, Note_on_c, 0, 79, 101
2, 50880, Note_on_c, 0, 84, 101
2, 50927, Note_on_c, 0, 84, 0
2, 50927, Note_on_c, 0, 79, 0
2, 51600, Note_on_c, 0, 74, 88
2, 51600, Note_on_c, 0, 78, 88
2, 51600, Note_on_c, 0, 81, 88
2, 51647, Note_on_c, 0, 81, 0
2, 51647, Note_on_c, 0, 78, 0
2, 51647, Note_on_c, 0, 74, 0
2, 51840, Note_on_c, 0, 79, 88
2, 51840, Note_on_c, 0, 84, 88
2, 51887, Note_on_c, 0, 84, 0
2, 51887, Note_on_c, 0, 79, 0
2, 52080, Note_on_c, 0, 74, 88
2, 52080, Note_on_c, 0, 78, 88
2, 52080, Note_on_c, 0, 81, 88
2, 52127, Note_on_c, 0, 81, 0
2, 52127, Note_on_c, 0, 78, 0
2, 52127, Note_on_c, 0, 74, 0
2, 52320, Note_on_c, 0, 79, 101
2, 52320, Note_on_c, 0, 84, 101
2, 52367, Note_on_c, 0, 84, 0
2, 52367, Note_on_c, 0, 79, 0
2, 52560, Note_on_c, 0, 74, 101
2, 52560, Note_on_c, 0, 78, 101
2, 52560, Note_on_c, 0, 81, 101
2, 52607, Note_on_c, 0, 81, 0
2, 52607, Note_on_c, 0, 78, 0
2, 52607, Note_on_c, 0, 74, 0
2, 52800, Note_on_c, 0, 79, 101
2, 52800, Note_on_c, 0, 84, 101
2, 52847, Note_on_c, 0, 84, 0
2, 52847, Note_on_c, 0, 79, 0
2, 53040, Note_on_c, 0, 74, 101
2, 53040, Note_on_c, 0, 78, 101
2, 53040, Note_on_c, 0, 81, 101
2, 53087, Note_on_c, 0, 81, 0
2, 53087, Note_on_c, 0, 78, 0
2, 53087, Note_on_c, 0, 74, 0
2, 53280, Note_on_c, 0, 78, 101
2, 53280, Note_on_c, 0, 81, 101
2, 53280, Note_on_c, 0, 86, 101
2, 53400, Note_on_c, 0, 86, 0
2, 53400, Note_on_c, 0, 81, 0
2, 53400, Note_on_c, 0, 78, 0
2, 53520, Note_on_c, 0, 86, 101
2, 53600, Note_on_c, 0, 86, 0
2, 53600, Note_on_c, 0, 88, 101
2, 53679, Note_on_c, 0, 88, 0
2, 53679, Note_on_c, 0, 90, 101
2, 53760, Note_on_c, 0, 90, 0
2, 53760, Note_on_c, 0, 91, 101
2, 53807, Note_on_c, 0, 91, 0
2, 54000, Note_on_c, 0, 91, 75
2, 54120, Note_on_c, 0, 91, 0
2, 54120, Note_on_c, 0, 90, 75
2, 54240, Note_on_c, 0, 90, 0
2, 54240, Note_on_c, 0, 91, 75
2, 54287, Note_on_c, 0, 91, 0
2, 54480, Note_on_c, 0, 91, 75
2, 54527, Note_on_c, 0, 91, 0
2, 54720, Note_on_c, 0, 79, 75
2, 54720, Note_on_c, 0, 84, 75
2, 54720, Note_on_c, 0, 88, 75
2, 54767, Note_on_c, 0, 88, 0
2, 54767, Note_on_c, 0, 84, 0
2, 54767, Note_on_c, 0, 79, 0
2, 54960, Note_on_c, 0, 79, 75
2, 54960, Note_on_c, 0, 83, 75
2, 54960, Note_on_c, 0, 86, 75
2, 55007, Note_on_c, 0, 86, 0
2, 55007, Note_on_c, 0, 83, 0
2, 55007, Note_on_c, 0, 79, 0
2, 55200, Note_on_c, 0, 72, 101
2, 55200, Note_on_c, 0, 84, 101
2, 55440, Note_on_c, 0, 84, 0
2, 55440, Note_on_c, 0, 72, 0
2, 55440, Note_on_c, 0, 76, 75
2, 55440, Note_on_c, 0, 88, 75
2, 55680, Note_on_c, 0, 88, 0
2, 55680, Note_on_c, 0, 76, 0
2, 55680, Note_on_c, 0, 83, 101
2, 55680, Note_on_c, 0, 86, 101
2, 55727, Note_on_c, 0, 86, 0
2, 55727, Note_on_c, 0, 83, 0
2, 55920, Note_on_c, 0, 86, 75
2, 56040, Note_on_c, 0, 86, 0
2, 56040, Note_on_c, 0, 85, 75
2, 56160, Note_on_c, 0, 85, 0
2, 56160, Note_on_c, 0, 86, 75
2, 56400, Note_on_c, 0, 86, 0
2, 56400, Note_on_c, 0, 86, 75
2, 56447, Note_on_c, 0, 86, 0
2, 56640, Note_on_c, 0, 79, 75
2, 56640, Note_on_c, 0, 83, 75
2, 56687, Note_on_c, 0, 83, 0
2, 56687, Note_on_c, 0, 79, 0
2, 56880, Note_on_c, 0, 74, 75
2, 56880, Note_on_c, 0, 81, 75
2, 56927, Note_on_c, 0, 81, 0
2, 56927, Note_on_c, 0, 74, 0
2, 57120, Note_on_c, 0, 74, 75
2, 57120, Note_on_c, 0, 79, 75
2, 57167, Note_on_c, 0, 79, 0
2, 57167, Note_on_c, 0, 74, 0
2, 57360, Note_on_c, 0, 79, 75
2, 57360, Note_on_c, 0, 83, 75
2, 57480, Note_on_c, 0, 83, 0
2, 57480, Note_on_c, 0, 79, 0
2, 57480, Note_on_c, 0, 86, 75
2, 57600, Note_on_c, 0, 86, 0
2, 57600, Note_on_c, 0, 78, 101
2, 57600, Note_on_c, 0, 81, 101
2, 57647, Note_on_c, 0, 81, 0
2, 57647, Note_on_c, 0, 78, 0
2, 57840, Note_on_c, 0, 78, 101
2, 57840, Note_on_c, 0, 81, 101
2, 57960, Note_on_c, 0, 81, 0
2, 57960, Note_on_c, 0, 78, 0
2, 57960, Note_on_c, 0, 86, 101
2, 58080, Note_on_c, 0, 86, 0
2, 58080, Note_on_c, 0, 76, 101
2, 58080, Note_on_c, 0, 79, 101
2, 58127, Note_on_c, 0, 79, 0
2, 58127, Note_on_c, 0, 76, 0
2, 58320, Note_on_c, 0, 76, 101
2, 58320, Note_on_c, 0, 79, 101
2, 58440, Note_on_c, 0, 79, 0
2, 58440, Note_on_c, 0, 76, 0
2, 58440, Note_on_c, 0, 86, 101
2, 58560, Note_on_c, 0, 86, 0
2, 58560, Note_on_c, 0, 74, 101
2, 58560, Note_on_c, 0, 78, 101
2, 58607, Note_on_c, 0, 78, 0
2, 58607, Note_on_c, 0, 74, 0
2, 58800, Note_on_c, 0, 74, 101
2, 58800, Note_on_c, 0, 78, 101
2, 58920, Note_on_c, 0, 78, 0
2, 58920, Note_on_c, 0, 74, 0
2, 58920, Note_on_c, 0, 86, 101
2, 59040, Note_on_c, 0, 86, 0
2, 59040, Note_on_c, 0, 78, 101
2, 59040, Note_on_c, 0, 81, 101
2, 59087, Note_on_c, 0, 81, 0
2, 59087, Note_on_c, 0, 78, 0
2, 59280, Note_on_c, 0, 78, 101
2, 59280, Note_on_c, 0, 81, 101
2, 59400, Note_on_c, 0, 81, 0
2, 59400, Note_on_c, 0, 78, 0
2, 59400, Note_on_c, 0, 86, 101
2, 59520, Note_on_c, 0, 86, 0
2, 59520, Note_on_c, 0, 79, 101
2, 59520, Note_on_c, 0, 83, 101
2, 59567, Note_on_c, 0, 83, 0
2, 59567, Note_on_c, 0, 79, 0
2, 59760, Note_on_c, 0, 79, 101
2, 59760, Note_on_c, 0, 83, 101
2, 59880, Note_on_c, 0, 83, 0
2, 59880, Note_on_c, 0, 79, 0
2, 59880, Note_on_c, 0, 86, 101
2, 60000, Note_on_c, 0, 86, 0
2, 60000, Note_on_c, 0, 76, 101
2, 60000, Note_on_c, 0, 79, 101
2, 60047, Note_on_c, 0, 79, 0
2, 60047, Note_on_c, 0, 76, 0
2, 60240, Note_on_c, 0, 76, 101
2, 60240, Note_on_c, 0, 79, 101
2, 60360, Note_on_c, 0, 79, 0
2, 60360, Note_on_c, 0, 76, 0
2, 60360, Note_on_c, 0, 86, 101
2, 60480, Note_on_c, 0, 86, 0
2, 60480, Note_on_c, 0, 78, 101
2, 60480, Note_on_c, 0, 81, 101
2, 60720, Note_on_c, 0, 81, 0
2, 60720, Note_on_c, 0, 78, 0
2, 60720, Note_on_c, 0, 76, 101
2, 60720, Note_on_c, 0, 79, 101
2, 60960, Note_on_c, 0, 79, 0
2, 60960, Note_on_c, 0, 76, 0
2, 60960, Note_on_c, 0, 78, 101
2, 60960, Note_on_c, 0, 81, 101
2, 61200, Note_on_c, 0, 81, 0
2, 61200, Note_on_c, 0, 78, 0
2, 61200, Note_on_c, 0, 86, 101
2, 61280, Note_on_c, 0, 86, 0
2, 61280, Note_on_c, 0, 88, 101
2, 61359, Note_on_c, 0, 88, 0
2, 61359, Note_on_c, 0, 90, 101
2, 61440, Note_on_c, 0, 90, 0
2, 61440, Note_on_c, 0, 91, 101
2, 61487, Note_on_c, 0, 91, 0
2, 61680, Note_on_c, 0, 91, 75
2, 61800, Note_on_c, 0, 91, 0
2, 61800, Note_on_c, 0, 90, 75
2, 61920, Note_on_c, 0, 90, 0
2, 61920, Note_on_c, 0, 91, 75
2, 61967, Note_on_c, 0, 91, 0
2, 62160, Note_on_c, 0, 91, 75
2, 62207, Note_on_c, 0, 91, 0
2, 62400, Note_on_c, 0, 84, 75
2, 62400, Note_on_c, 0, 88, 75
2, 62447, Note_on_c, 0, 88, 0
2, 62447, Note_on_c, 0, 84, 0
2, 62640, Note_on_c, 0, 83, 75
2, 62640, Note_on_c, 0, 86, 75
2, 62687, Note_on_c, 0, 86, 0
2, 62687, Note_on_c, 0, 83, 0
2, 62880, Note_on_c, 0, 72, 101
2, 62880, Note_on_c, 0, 84, 101
2, 63120, Note_on_c, 0, 84, 0
2, 63120, Note_on_c, 0, 72, 0
2, 63120, Note_on_c, 0, 76, 75
2, 63120, Note_on_c, 0, 88, 75
2, 63360, Note_on_c, 0, 88, 0
2, 63360, Note_on_c, 0, 76, 0
2, 63360, Note_on_c, 0, 83, 101
2, 63360, Note_on_c, 0, 86, 101
2, 63407, Note_on_c, 0, 86, 0
2, 63407, Note_on_c, 0, 83, 0
2, 63600, Note_on_c, 0, 86, 75
2, 63720, Note_on_c, 0, 86, 0
2, 63720, Note_on_c, 0, 85, 75
2, 63840, Note_on_c, 0, 85, 0
2, 63840, Note_on_c, 0, 86, 75
2, 64080, Note_on_c, 0, 86, 0
2, 64080, Note_on_c, 0, 86, 75
2, 64127, Note_on_c, 0, 86, 0
2, 64320, Note_on_c, 0, 79, 75
2, 64320, Note_on_c, 0, 83, 75
2, 64367, Note_on_c, 0, 83, 0
2, 64367, Note_on_c, 0, 79, 0
2, 64560, Note_on_c, 0, 74, 75
2, 64560, Note_on_c, 0, 81, 75
2, 64607, Note_on_c, 0, 81, 0
2, 64607, Note_on_c, 0, 74, 0
2, 64800, Note_on_c, 0, 74, 75
2, 64800, Note_on_c, 0, 79, 75
2, 64847, Note_on_c, 0, 79, 0
2, 64847, Note_on_c, 0, 74, 0
2, 65040, Note_on_c, 0, 79, 75
2, 65040, Note_on_c, 0, 83, 75
2, 65160, Note_on_c, 0, 83, 0
2, 65160, Note_on_c, 0, 79, 0
2, 65160, Note_on_c, 0, 86, 75
2, 65280, Note_on_c, 0, 86, 0
2, 65280, Note_on_c, 0, 78, 75
2, 65280, Note_on_c, 0, 81, 75
2, 65327, Note_on_c, 0, 81, 0
2, 65327, Note_on_c, 0, 78, 0
2, 65520, Note_on_c, 0, 78, 75
2, 65520, Note_on_c, 0, 81, 75
2, 65640, Note_on_c, 0, 81, 0
2, 65640, Note_on_c, 0, 78, 0
2, 65640, Note_on_c, 0, 86, 75
2, 65760, Note_on_c, 0, 86, 0
2, 65760, Note_on_c, 0, 76, 75
2, 65760, Note_on_c, 0, 79, 75
2, 65807, Note_on_c, 0, 79, 0
2, 65807, Note_on_c, 0, 76, 0
2, 66000, Note_on_c, 0, 76, 75
2, 66000, Note_on_c, 0, 79, 75
2, 66120, Note_on_c, 0, 79, 0
2, 66120, Note_on_c, 0, 76, 0
2, 66120, Note_on_c, 0, 86, 75
2, 66240, Note_on_c, 0, 86, 0
2, 66240, Note_on_c, 0, 74, 88
2, 66240, Note_on_c, 0, 78, 88
2, 66287, Note_on_c, 0, 78, 0
2, 66287, Note_on_c, 0, 74, 0
2, 66480, Note_on_c, 0, 74, 88
2, 66480, Note_on_c, 0, 78, 88
2, 66600, Note_on_c, 0, 78, 0
2, 66600, Note_on_c, 0, 74, 0
2, 66600, Note_on_c, 0, 86, 88
2, 66720, Note_on_c, 0, 86, 0
2, 66720, Note_on_c, 0, 78, 88
2, 66720, Note_on_c, 0, 81, 88
2, 66767, Note_on_c, 0, 81, 0
2, 66767, Note_on_c, 0, 78, 0
2, 66960, Note_on_c, 0, 78, 88
2, 66960, Note_on_c, 0, 81, 88
2, 67080, Note_on_c, 0, 81, 0
2, 67080, Note_on_c, 0, 78, 0
2, 67080, Note_on_c, 0, 86, 88
2, 67200, Note_on_c, 0, 86, 0
2, 67200, Note_on_c, 0, 79, 88
2, 67200, Note_on_c, 0, 83, 88
2, 67247, Note_on_c, 0, 83, 0
2, 67247, Note_on_c, 0, 79, 0
2, 67440, Note_on_c, 0, 79, 101
2, 67440, Note_on_c, 0, 83, 101
2, 67560, Note_on_c, 0, 83, 0
2, 67560, Note_on_c, 0, 79, 0
2, 67560, Note_on_c, 0, 86, 101
2, 67680, Note_on_c, 0, 86, 0
2, 67680, Note_on_c, 0, 78, 101
2, 67680, Note_on_c, 0, 81, 101
2, 67727, Note_on_c, 0, 81, 0
2, 67727, Note_on_c, 0, 78, 0
2, 67920, Note_on_c, 0, 78, 101
2, 67920, Note_on_c, 0, 81, 101
2, 68040, Note_on_c, 0, 81, 0
2, 68040, Note_on_c, 0, 78, 0
2, 68040, Note_on_c, 0, 86, 101
2, 68160, Note_on_c, 0, 86, 0
2, 68160, Note_on_c, 0, 76, 101
2, 68160, Note_on_c, 0, 79, 101
2, 68207, Note_on_c, 0, 79, 0
2, 68207, Note_on_c, 0, 76, 0
2, 68400, Note_on_c, 0, 76, 101
2, 68400, Note_on_c, 0, 79, 101
2, 68520, Note_on_c, 0, 79, 0
2, 68520, Note_on_c, 0, 76, 0
2, 68520, Note_on_c, 0, 86, 101
2, 68640, Note_on_c, 0, 86, 0
2, 68640, Note_on_c, 0, 79, 101
2, 68640, Note_on_c, 0, 83, 101
2, 68687, Note_on_c, 0, 83, 0
2, 68687, Note_on_c, 0, 79, 0
2, 68880, Note_on_c, 0, 79, 101
2, 68880, Note_on_c, 0, 83, 101
2, 69000, Note_on_c, 0, 83, 0
2, 69000, Note_on_c, 0, 79, 0
2, 69000, Note_on_c, 0, 86, 101
2, 69120, Note_on_c, 0, 86, 0
2, 69120, Note_on_c, 0, 78, 101
2, 69120, Note_on_c, 0, 81, 101
2, 69167, Note_on_c, 0, 81, 0
2, 69167, Note_on_c, 0, 78, 0
2, 69360, Note_on_c, 0, 78, 101
2, 69360, Note_on_c, 0, 81, 101
2, 69480, Note_on_c, 0, 81, 0
2, 69480, Note_on_c, 0, 78, 0
2, 69480, Note_on_c, 0, 86, 101
2, 69600, Note_on_c, 0, 86, 0
2, 69600, Note_on_c, 0, 76, 101
2, 69600, Note_on_c, 0, 79, 101
2, 69647, Note_on_c, 0, 79, 0
2, 69647, Note_on_c, 0, 76, 0
2, 69840, Note_on_c, 0, 76, 101
2, 69840, Note_on_c, 0, 79, 101
2, 69960, Note_on_c, 0, 79, 0
2, 69960, Note_on_c, 0, 76, 0
2, 69960, Note_on_c, 0, 86, 101
2, 70080, Note_on_c, 0, 86, 0
2, 70080, Note_on_c, 0, 74, 101
2, 70080, Note_on_c, 0, 78, 101
2, 70127, Note_on_c, 0, 78, 0
2, 70127, Note_on_c, 0, 74, 0
2, 70320, Note_on_c, 0, 74, 101
2, 70320, Note_on_c, 0, 78, 101
2, 70440, Note_on_c, 0, 78, 0
2, 70440, Note_on_c, 0, 74, 0
2, 70440, Note_on_c, 0, 86, 101
2, 70560, Note_on_c, 0, 86, 0
2, 70560, Note_on_c, 0, 78, 101
2, 70560, Note_on_c, 0, 81, 101
2, 70607, Note_on_c, 0, 81, 0
2, 70607, Note_on_c, 0, 78, 0
2, 70800, Note_on_c, 0, 78, 101
2, 70800, Note_on_c, 0, 81, 101
2, 70920, Note_on_c, 0, 81, 0
2, 70920, Note_on_c, 0, 78, 0
2, 70920, Note_on_c, 0, 86, 101
2, 71040, Note_on_c, 0, 86, 0
2, 71040, Note_on_c, 0, 79, 101
2, 71040, Note_on_c, 0, 83, 101
2, 71087, Note_on_c, 0, 83, 0
2, 71087, Note_on_c, 0, 79, 0
2, 71280, Note_on_c, 0, 79, 101
2, 71280, Note_on_c, 0, 83, 101
2, 71400, Note_on_c, 0, 83, 0
2, 71400, Note_on_c, 0, 79, 0
2, 71400, Note_on_c, 0, 86, 101
2, 71520, Note_on_c, 0, 86, 0
2, 71520, Note_on_c, 0, 78, 101
2, 71520, Note_on_c, 0, 81, 101
2, 71567, Note_on_c, 0, 81, 0
2, 71567, Note_on_c, 0, 78, 0
2, 71760, Note_on_c, 0, 78, 101
2, 71760, Note_on_c, 0, 81, 101
2, 71880, Note_on_c, 0, 81, 0
2, 71880, Note_on_c, 0, 78, 0
2, 71880, Note_on_c, 0, 86, 101
2, 72000, Note_on_c, 0, 86, 0
2, 72000, Note_on_c, 0, 76, 101
2, 72000, Note_on_c, 0, 79, 101
2, 72047, Note_on_c, 0, 79, 0
2, 72047, Note_on_c, 0, 76, 0
2, 72240, Note_on_c, 0, 76, 101
2, 72240, Note_on_c, 0, 79, 101
2, 72360, Note_on_c, 0, 79, 0
2, 72360, Note_on_c, 0, 76, 0
2, 72360, Note_on_c, 0, 86, 101
2, 72480, Note_on_c, 0, 86, 0
2, 72480, Note_on_c, 0, 79, 101
2, 72480, Note_on_c, 0, 83, 101
2, 72527, Note_on_c, 0, 83, 0
2, 72527, Note_on_c, 0, 79, 0
2, 72720, Note_on_c, 0, 79, 101
2, 72720, Note_on_c, 0, 83, 101
2, 72840, Note_on_c, 0, 83, 0
2, 72840, Note_on_c, 0, 79, 0
2, 72840, Note_on_c, 0, 86, 101
2, 72960, Note_on_c, 0, 86, 0
2, 72960, Note_on_c, 0, 78, 101
2, 72960, Note_on_c, 0, 81, 101
2, 73007, Note_on_c, 0, 81, 0
2, 73007, Note_on_c, 0, 78, 0
2, 73200, Note_on_c, 0, 78, 101
2, 73200, Note_on_c, 0, 81, 101
2, 73320, Note_on_c, 0, 81, 0
2, 73320, Note_on_c, 0, 78, 0
2, 73320, Note_on_c, 0, 86, 101
2, 73440, Note_on_c, 0, 86, 0
2, 73440, Note_on_c, 0, 78, 101
2, 73440, Note_on_c, 0, 84, 101
2, 73487, Note_on_c, 0, 84, 0
2, 73487, Note_on_c, 0, 78, 0
2, 73680, Note_on_c, 0, 78, 101
2, 73680, Note_on_c, 0, 84, 101
2, 73800, Note_on_c, 0, 84, 0
2, 73800, Note_on_c, 0, 78, 0
2, 73800, Note_on_c, 0, 86, 101
2, 73920, Note_on_c, 0, 86, 0
2, 73920, Note_on_c, 0, 79, 101
2, 73920, Note_on_c, 0, 83, 101
2, 73967, Note_on_c, 0, 83, 0
2, 73967, Note_on_c, 0, 79, 0
2, 74160, Note_on_c, 0, 79, 101
2, 74160, Note_on_c, 0, 83, 101
2, 74280, Note_on_c, 0, 83, 0
2, 74280, Note_on_c, 0, 79, 0
2, 74280, Note_on_c, 0, 86, 101
2, 74400, Note_on_c, 0, 86, 0
2, 74400, Note_on_c, 0, 76, 101
2, 74400, Note_on_c, 0, 79, 101
2, 74447, Note_on_c, 0, 79, 0
2, 74447, Note_on_c, 0, 76, 0
2, 74640, Note_on_c, 0, 76, 101
2, 74640, Note_on_c, 0, 79, 101
2, 74760, Note_on_c, 0, 79, 0
2, 74760, Note_on_c, 0, 76, 0
2, 74760, Note_on_c, 0, 86, 101
2, 74880, Note_on_c, 0, 86, 0
2, 74880, Note_on_c, 0, 78, 101
2, 74880, Note_on_c, 0, 81, 101
2, 74927, Note_on_c, 0, 81, 0
2, 74927, Note_on_c, 0, 78, 0
2, 75120, Note_on_c, 0, 78, 101
2, 75120, Note_on_c, 0, 81, 101
2, 75240, Note_on_c, 0, 81, 0
2, 75240, Note_on_c, 0, 78, 0
2, 75240, Note_on_c, 0, 86, 101
2, 75360, Note_on_c, 0, 86, 0
2, 75360, Note_on_c, 0, 81, 101
2, 75360, Note_on_c, 0, 84, 101
2, 75407, Note_on_c, 0, 84, 0
2, 75407, Note_on_c, 0, 81, 0
2, 75600, Note_on_c, 0, 81, 101
2, 75600, Note_on_c, 0, 84, 101
2, 75720, Note_on_c, 0, 84, 0
2, 75720, Note_on_c, 0, 81, 0
2, 75720, Note_on_c, 0, 86, 101
2, 75840, Note_on_c, 0, 86, 0
2, 75840, Note_on_c, 0, 79, 101
2, 75840, Note_on_c, 0, 83, 101
2, 75887, Note_on_c, 0, 83, 0
2, 75887, Note_on_c, 0, 79, 0
2, 76080, Note_on_c, 0, 79, 101
2, 76080, Note_on_c, 0, 83, 101
2, 76200, Note_on_c, 0, 83, 0
2, 76200, Note_on_c, 0, 79, 0
2, 76200, Note_on_c, 0, 86, 101
2, 76320, Note_on_c, 0, 86, 0
2, 76320, Note_on_c, 0, 76, 101
2, 76320, Note_on_c, 0, 79, 101
2, 76367, Note_on_c, 0, 79, 0
2, 76367, Note_on_c, 0, 76, 0
2, 76560, Note_on_c, 0, 76, 101
2, 76560, Note_on_c, 0, 79, 101
2, 76680, Note_on_c, 0, 79, 0
2, 76680, Note_on_c, 0, 76, 0
2, 76680, Note_on_c, 0, 86, 101
2, 76800, Note_on_c, 0, 86, 0
2, 76800, Note_on_c, 0, 78, 101
2, 76800, Note_on_c, 0, 81, 101
2, 76847, Note_on_c, 0, 81, 0
2, 76847, Note_on_c, 0, 78, 0
2, 77040, Note_on_c, 0, 78, 101
2, 77040, Note_on_c, 0, 81, 101
2, 77160, Note_on_c, 0, 81, 0
2, 77160, Note_on_c, 0, 78, 0
2, 77160, Note_on_c, 0, 86, 101
2, 77280, Note_on_c, 0, 86, 0
2, 77280, Note_on_c, 0, 76, 101
2, 77280, Note_on_c, 0, 79, 101
2, 77327, Note_on_c, 0, 79, 0
2, 77327, Note_on_c, 0, 76, 0
2, 77520, Note_on_c, 0, 76, 101
2, 77520, Note_on_c, 0, 79, 101
2, 77640, Note_on_c, 0, 79, 0
2, 77640, Note_on_c, 0, 76, 0
2, 77640, Note_on_c, 0, 86, 101
2, 77760, Note_on_c, 0, 86, 0
2, 77760, Note_on_c, 0, 78, 101
2, 77760, Note_on_c, 0, 81, 101
2, 77807, Note_on_c, 0, 81, 0
2, 77807, Note_on_c, 0, 78, 0
2, 78000, Note_on_c, 0, 78, 101
2, 78000, Note_on_c, 0, 81, 101
2, 78120, Note_on_c, 0, 81, 0
2, 78120, Note_on_c, 0, 78, 0
2, 78120, Note_on_c, 0, 86, 101
2, 78240, Note_on_c, 0, 86, 0
2, 78240, Note_on_c, 0, 76, 101
2, 78240, Note_on_c, 0, 79, 101
2, 78287, Note_on_c, 0, 79, 0
2, 78287, Note_on_c, 0, 76, 0
2, 78480, Note_on_c, 0, 76, 101
2, 78480, Note_on_c, 0, 79, 101
2, 78600, Note_on_c, 0, 79, 0
2, 78600, Note_on_c, 0, 76, 0
2, 78600, Note_on_c, 0, 86, 101
2, 78720, Note_on_c, 0, 86, 0
2, 78720, Note_on_c, 0, 78, 101
2, 78720, Note_on_c, 0, 81, 101
2, 78767, Note_on_c, 0, 81, 0
2, 78767, Note_on_c, 0, 78, 0
2, 78960, Note_on_c, 0, 78, 101
2, 78960, Note_on_c, 0, 81, 101
2, 79080, Note_on_c, 0, 81, 0
2, 79080, Note_on_c, 0, 78, 0
2, 79080, Note_on_c, 0, 86, 101
2, 79200, Note_on_c, 0, 86, 0
2, 79200, Note_on_c, 0, 76, 101
2, 79200, Note_on_c, 0, 79, 101
2, 79247, Note_on_c, 0, 79, 0
2, 79247, Note_on_c, 0, 76, 0
2, 79440, Note_on_c, 0, 76, 101
2, 79440, Note_on_c, 0, 79, 101
2, 79560, Note_on_c, 0, 79, 0
2, 79560, Note_on_c, 0, 76, 0
2, 79560, Note_on_c, 0, 86, 101
2, 79680, Note_on_c, 0, 86, 0
2, 79680, Note_on_c, 0, 78, 101
2, 79680, Note_on_c, 0, 81, 101
2, 79727, Note_on_c, 0, 81, 0
2, 79727, Note_on_c, 0, 78, 0
2, 79920, Note_on_c, 0, 78, 101
2, 79920, Note_on_c, 0, 81, 101
2, 79920, Note_on_c, 0, 86, 101
2, 79967, Note_on_c, 0, 86, 0
2, 79967, Note_on_c, 0, 81, 0
2, 79967, Note_on_c, 0, 78, 0
2, 80160, Note_on_c, 0, 83, 127
2, 80160, Note_on_c, 0, 86, 127
2, 80160, Note_on_c, 0, 91, 127
2, 80256, Note_on_c, 0, 91, 0
2, 80256, Note_on_c, 0, 86, 0
2, 80256, Note_on_c, 0, 83, 0
2, 80640, Control_c, 0, 64, 127
2, 83040, Control_c, 0, 64, 0
2, 83040, End_track
3, 0, Start_track
3, 0, Title_t, "Grand Piano"
3, 0, Program_c, 0, 0
3, 0, Control_c, 0, 7, 115
3, 0, Control_c, 0, 10, 80
3, 0, Note_on_c, 0, 67, 75
3, 0, Note_on_c, 0, 71, 75
3, 0, Note_on_c, 0, 74, 75
3, 47, Note_on_c, 0, 74, 0
3, 47, Note_on_c, 0, 71, 0
3, 47, Note_on_c, 0, 67, 0
3, 960, Note_on_c, 0, 72, 49
3, 1007, Note_on_c, 0, 72, 0
3, 1200, Note_on_c, 0, 71, 49
3, 1247, Note_on_c, 0, 71, 0
3, 1440, Note_on_c, 0, 69, 75
3, 1920, Note_on_c, 0, 69, 0
3, 1920, Note_on_c, 0, 62, 75
3, 1920, Note_on_c, 0, 67, 75
3, 1920, Note_on_c, 0, 71, 75
3, 1967, Note_on_c, 0, 71, 0
3, 1967, Note_on_c, 0, 67, 0
3, 1967, Note_on_c, 0, 62, 0
3, 2880, Note_on_c, 0, 61, 49
3, 2927, Note_on_c, 0, 61, 0
3, 3120, Note_on_c, 0, 60, 49
3, 3167, Note_on_c, 0, 60, 0
3, 3360, Note_on_c, 0, 59, 49
3, 3407, Note_on_c, 0, 59, 0
3, 3600, Note_on_c, 0, 67, 49
3, 3647, Note_on_c, 0, 67, 0
3, 3840, Note_on_c, 0, 66, 75
3, 4320, Note_on_c, 0, 66, 0
3, 4320, Note_on_c, 0, 64, 75
3, 4800, Note_on_c, 0, 64, 0
3, 4800, Note_on_c, 0, 62, 75
3, 5280, Note_on_c, 0, 62, 0
3, 5280, Note_on_c, 0, 66, 75
3, 5760, Note_on_c, 0, 66, 0
3, 5760, Note_on_c, 0, 67, 75
3, 6240, Note_on_c, 0, 67, 0
3, 6240, Note_on_c, 0, 64, 75
3, 6720, Note_on_c, 0, 64, 0
3, 6720, Note_on_c, 0, 66, 62
3, 6767, Note_on_c, 0, 66, 0
3, 6960, Note_on_c, 0, 64, 62
3, 6960, Note_on_c, 0, 67, 62
3, 7007, Note_on_c, 0, 67, 0
3, 7007, Note_on_c, 0, 64, 0
3, 7200, Note_on_c, 0, 66, 62
3, 7200, Note_on_c, 0, 69, 62
3, 7247, Note_on_c, 0, 69, 0
3, 7247, Note_on_c, 0, 66, 0
3, 7680, Note_on_c, 0, 67, 75
3, 7680, Note_on_c, 0, 71, 75
3, 7680, Note_on_c, 0, 74, 75
3, 7727, Note_on_c, 0, 74, 0
3, 7727, Note_on_c, 0, 71, 0
3, 7727, Note_on_c, 0, 67, 0
3, 8640, Note_on_c, 0, 72, 49
3, 8687, Note_on_c, 0, 72, 0
3, 8880, Note_on_c, 0, 71, 49
3, 8927, Note_on_c, 0, 71, 0
3, 9120, Note_on_c, 0, 69, 75
3, 9600, Note_on_c, 0, 69, 0
3, 9600, Note_on_c, 0, 62, 75
3, 9600, Note_on_c, 0, 67, 75
3, 9600, Note_on_c, 0, 71, 75
3, 9647, Note_on_c, 0, 71, 0
3, 9647, Note_on_c, 0, 67, 0
3, 9647, Note_on_c, 0, 62, 0
3, 10560, Note_on_c, 0, 61, 49
3, 10607, Note_on_c, 0, 61, 0
3, 10800, Note_on_c, 0, 60, 49
3, 10847, Note_on_c, 0, 60, 0
3, 11040, Note_on_c, 0, 59, 49
3, 11087, Note_on_c, 0, 59, 0
3, 11280, Note_on_c, 0, 67, 49
3, 11327, Note_on_c, 0, 67, 0
3, 11520, Note_on_c, 0, 66, 75
3, 12000, Note_on_c, 0, 66, 0
3, 12000, Note_on_c, 0, 64, 75
3, 12480, Note_on_c, 0, 64, 0
3, 12480, Note_on_c, 0, 62, 75
3, 12960, Note_on_c, 0, 62, 0
3, 12960, Note_on_c, 0, 66, 75
3, 13440, Note_on_c, 0, 66, 0
3, 13440, Note_on_c, 0, 67, 75
3, 13920, Note_on_c, 0, 67, 0
3, 13920, Note_on_c, 0, 64, 75
3, 14400, Note_on_c, 0, 64, 0
3, 14640, Note_on_c, 0, 64, 62
3, 14687, Note_on_c, 0, 64, 0
3, 14880, Note_on_c, 0, 67, 62
3, 14927, Note_on_c, 0, 67, 0
3, 15120, Note_on_c, 0, 74, 88
3, 15200, Note_on_c, 0, 74, 0
3, 15200, Note_on_c, 0, 76, 88
3, 15279, Note_on_c, 0, 76, 0
3, 15279, Note_on_c, 0, 78, 88
3, 15360, Note_on_c, 0, 78, 0
3, 15360, Note_on_c, 0, 71, 88
3, 15360, Note_on_c, 0, 74, 88
3, 15360, Note_on_c, 0, 79, 88
3, 15407, Note_on_c, 0, 79, 0
3, 15407, Note_on_c, 0, 74, 0
3, 15407, Note_on_c, 0, 71, 0
3, 15600, Note_on_c, 0, 79, 62
3, 15720, Note_on_c, 0, 79, 0
3, 15720, Note_on_c, 0, 78, 62
3, 15840, Note_on_c, 0, 78, 0
3, 15840, Note_on_c, 0, 79, 62
3, 16080, Note_on_c, 0, 79, 0
3, 16080, Note_on_c, 0, 79, 62
3, 16127, Note_on_c, 0, 79, 0
3, 16320, Note_on_c, 0, 67, 62
3, 16320, Note_on_c, 0, 72, 62
3, 16320, Note_on_c, 0, 76, 62
3, 16367, Note_on_c, 0, 76, 0
3, 16367, Note_on_c, 0, 72, 0
3, 16367, Note_on_c, 0, 67, 0
3, 16560, Note_on_c, 0, 67, 62
3, 16560, Note_on_c, 0, 71, 62
3, 16560, Note_on_c, 0, 74, 62
3, 16607, Note_on_c, 0, 74, 0
3, 16607, Note_on_c, 0, 71, 0
3, 16607, Note_on_c, 0, 67, 0
3, 16800, Note_on_c, 0, 67, 88
3, 16800, Note_on_c, 0, 69, 88
3, 16800, Note_on_c, 0, 79, 88
3, 16800, Note_on_c, 0, 81, 88
3, 17280, Note_on_c, 0, 81, 0
3, 17280, Note_on_c, 0, 67, 0
3, 17280, Note_on_c, 0, 69, 0
3, 17280, Note_on_c, 0, 79, 0
3, 17280, Note_on_c, 0, 67, 88
3, 17280, Note_on_c, 0, 71, 88
3, 17280, Note_on_c, 0, 74, 88
3, 17327, Note_on_c, 0, 74, 0
3, 17327, Note_on_c, 0, 71, 0
3, 17327, Note_on_c, 0, 67, 0
3, 17520, Note_on_c, 0, 74, 62
3, 17640, Note_on_c, 0, 74, 0
3, 17640, Note_on_c, 0, 73, 62
3, 17760, Note_on_c, 0, 73, 0
3, 17760, Note_on_c, 0, 74, 62
3, 18000, Note_on_c, 0, 74, 0
3, 18000, Note_on_c, 0, 74, 62
3, 18047, Note_on_c, 0, 74, 0
3, 18240, Note_on_c, 0, 73, 62
3, 18287, Note_on_c, 0, 73, 0
3, 18480, Note_on_c, 0, 72, 62
3, 18480, Note_on_c, 0, 74, 62
3, 18527, Note_on_c, 0, 74, 0
3, 18527, Note_on_c, 0, 72, 0
3, 18720, Note_on_c, 0, 71, 62
3, 18720, Note_on_c, 0, 74, 62
3, 18767, Note_on_c, 0, 74, 0
3, 18767, Note_on_c, 0, 71, 0
3, 18960, Note_on_c, 0, 67, 62
3, 18960, Note_on_c, 0, 71, 62
3, 19080, Note_on_c, 0, 71, 0
3, 19080, Note_on_c, 0, 67, 0
3, 19080, Note_on_c, 0, 74, 62
3, 19200, Note_on_c, 0, 74, 0
3, 19200, Note_on_c, 0, 66, 62
3, 19200, Note_on_c, 0, 69, 62
3, 19247, Note_on_c, 0, 69, 0
3, 19247, Note_on_c, 0, 66, 0
3, 19440, Note_on_c, 0, 66, 62
3, 19440, Note_on_c, 0, 69, 62
3, 19560, Note_on_c, 0, 69, 0
3, 19560, Note_on_c, 0, 66, 0
3, 19560, Note_on_c, 0, 74, 62
3, 19680, Note_on_c, 0, 74, 0
3, 19680, Note_on_c, 0, 64, 62
3, 19680, Note_on_c, 0, 67, 62
3, 19727, Note_on_c, 0, 67, 0
3, 19727, Note_on_c, 0, 64, 0
3, 19920, Note_on_c, 0, 64, 62
3, 19920, Note_on_c, 0, 67, 62
3, 20160, Note_on_c, 0, 67, 0
3, 20160, Note_on_c, 0, 64, 0
3, 20160, Note_on_c, 0, 62, 62
3, 20160, Note_on_c, 0, 66, 62
3, 20207, Note_on_c, 0, 66, 0
3, 20207, Note_on_c, 0, 62, 0
3, 20400, Note_on_c, 0, 62, 62
3, 20400, Note_on_c, 0, 66, 62
3, 20640, Note_on_c, 0, 66, 0
3, 20640, Note_on_c, 0, 62, 0
3, 20640, Note_on_c, 0, 66, 62
3, 20640, Note_on_c, 0, 69, 62
3, 20687, Note_on_c, 0, 69, 0
3, 20687, Note_on_c, 0, 66, 0
3, 20880, Note_on_c, 0, 66, 62
3, 20880, Note_on_c, 0, 69, 62
3, 21000, Note_on_c, 0, 69, 0
3, 21000, Note_on_c, 0, 66, 0
3, 21000, Note_on_c, 0, 74, 62
3, 21120, Note_on_c, 0, 74, 0
3, 21120, Note_on_c, 0, 67, 62
3, 21120, Note_on_c, 0, 71, 62
3, 21167, Note_on_c, 0, 71, 0
3, 21167, Note_on_c, 0, 67, 0
3, 21360, Note_on_c, 0, 67, 62
3, 21360, Note_on_c, 0, 71, 62
3, 21480, Note_on_c, 0, 71, 0
3, 21480, Note_on_c, 0, 67, 0
3, 21480, Note_on_c, 0, 74, 62
3, 21600, Note_on_c, 0, 74, 0
3, 21600, Note_on_c, 0, 64, 62
3, 21600, Note_on_c, 0, 67, 62
3, 21647, Note_on_c, 0, 67, 0
3, 21647, Note_on_c, 0, 64, 0
3, 21840, Note_on_c, 0, 64, 75
3, 21840, Note_on_c, 0, 67, 75
3, 21960, Note_on_c, 0, 67, 0
3, 21960, Note_on_c, 0, 64, 0
3, 21960, Note_on_c, 0, 74, 75
3, 22080, Note_on_c, 0, 74, 0
3, 22080, Note_on_c, 0, 66, 75
3, 22080, Note_on_c, 0, 69, 75
3, 22127, Note_on_c, 0, 69, 0
3, 22127, Note_on_c, 0, 66, 0
3, 22320, Note_on_c, 0, 64, 75
3, 22320, Note_on_c, 0, 67, 75
3, 22367, Note_on_c, 0, 67, 0
3, 22367, Note_on_c, 0, 64, 0
3, 22560, Note_on_c, 0, 66, 75
3, 22560, Note_on_c, 0, 69, 75
3, 22583, Note_on_c, 0, 69, 0
3, 22583, Note_on_c, 0, 66, 0
3, 22680, Note_on_c, 0, 74, 88
3, 22800, Note_on_c, 0, 74, 0
3, 22800, Note_on_c, 0, 76, 88
3, 22920, Note_on_c, 0, 76, 0
3, 22920, Note_on_c, 0, 78, 88
3, 23040, Note_on_c, 0, 78, 0
3, 23040, Note_on_c, 0, 71, 88
3, 23040, Note_on_c, 0, 74, 88
3, 23040, Note_on_c, 0, 79, 88
3, 23087, Note_on_c, 0, 79, 0
3, 23087, Note_on_c, 0, 74, 0
3, 23087, Note_on_c, 0, 71, 0
3, 23280, Note_on_c, 0, 79, 62
3, 23400, Note_on_c, 0, 79, 0
3, 23400, Note_on_c, 0, 78, 62
3, 23520, Note_on_c, 0, 78, 0
3, 23520, Note_on_c, 0, 79, 62
3, 23760, Note_on_c, 0, 79, 0
3, 23760, Note_on_c, 0, 79, 62
3, 23807, Note_on_c, 0, 79, 0
3, 24000, Note_on_c, 0, 72, 62
3, 24000, Note_on_c, 0, 76, 62
3, 24047, Note_on_c, 0, 76, 0
3, 24047, Note_on_c, 0, 72, 0
3, 24240, Note_on_c, 0, 71, 62
3, 24240, Note_on_c, 0, 74, 62
3, 24287, Note_on_c, 0, 74, 0
3, 24287, Note_on_c, 0, 71, 0
3, 24480, Note_on_c, 0, 69, 88
3, 24480, Note_on_c, 0, 79, 88
3, 24480, Note_on_c, 0, 81, 88
3, 24960, Note_on_c, 0, 81, 0
3, 24960, Note_on_c, 0, 79, 0
3, 24960, Note_on_c, 0, 69, 0
3, 24960, Note_on_c, 0, 67, 88
3, 24960, Note_on_c, 0, 71, 88
3, 24960, Note_on_c, 0, 74, 88
3, 25007, Note_on_c, 0, 74, 0
3, 25007, Note_on_c, 0, 71, 0
3, 25007, Note_on_c, 0, 67, 0
3, 25200, Note_on_c, 0, 74, 62
3, 25320, Note_on_c, 0, 74, 0
3, 25320, Note_on_c, 0, 73, 62
3, 25440, Note_on_c, 0, 73, 0
3, 25440, Note_on_c, 0, 74, 62
3, 25680, Note_on_c, 0, 74, 0
3, 25680, Note_on_c, 0, 74, 62
3, 25727, Note_on_c, 0, 74, 0
3, 25920, Note_on_c, 0, 73, 62
3, 25967, Note_on_c, 0, 73, 0
3, 26160, Note_on_c, 0, 72, 62
3, 26160, Note_on_c, 0, 74, 62
3, 26207, Note_on_c, 0, 74, 0
3, 26207, Note_on_c, 0, 72, 0
3, 26400, Note_on_c, 0, 71, 62
3, 26400, Note_on_c, 0, 74, 62
3, 26447, Note_on_c, 0, 74, 0
3, 26447, Note_on_c, 0, 71, 0
3, 26640, Note_on_c, 0, 67, 75
3, 26640, Note_on_c, 0, 71, 75
3, 26760, Note_on_c, 0, 71, 0
3, 26760, Note_on_c, 0, 67, 0
3, 26760, Note_on_c, 0, 74, 75
3, 26880, Note_on_c, 0, 74, 0
3, 26880, Note_on_c, 0, 66, 75
3, 26880, Note_on_c, 0, 69, 75
3, 26927, Note_on_c, 0, 69, 0
3, 26927, Note_on_c, 0, 66, 0
3, 27120, Note_on_c, 0, 66, 75
3, 27120, Note_on_c, 0, 69, 75
3, 27240, Note_on_c, 0, 69, 0
3, 27240, Note_on_c, 0, 66, 0
3, 27240, Note_on_c, 0, 74, 75
3, 27360, Note_on_c, 0, 74, 0
3, 27360, Note_on_c, 0, 64, 75
3, 27360, Note_on_c, 0, 67, 75
3, 27407, Note_on_c, 0, 67, 0
3, 27407, Note_on_c, 0, 64, 0
3, 27600, Note_on_c, 0, 64, 75
3, 27600, Note_on_c, 0, 67, 75
3, 27840, Note_on_c, 0, 67, 0
3, 27840, Note_on_c, 0, 64, 0
3, 27840, Note_on_c, 0, 62, 75
3, 27840, Note_on_c, 0, 66, 75
3, 27887, Note_on_c, 0, 66, 0
3, 27887, Note_on_c, 0, 62, 0
3, 28080, Note_on_c, 0, 62, 75
3, 28080, Note_on_c, 0, 66, 75
3, 28320, Note_on_c, 0, 66, 0
3, 28320, Note_on_c, 0, 62, 0
3, 28320, Note_on_c, 0, 66, 75
3, 28320, Note_on_c, 0, 69, 75
3, 28367, Note_on_c, 0, 69, 0
3, 28367, Note_on_c, 0, 66, 0
3, 28560, Note_on_c, 0, 66, 75
3, 28560, Note_on_c, 0, 69, 75
3, 28680, Note_on_c, 0, 69, 0
3, 28680, Note_on_c, 0, 66, 0
3, 28680, Note_on_c, 0, 74, 75
3, 28800, Note_on_c, 0, 74, 0
3, 28800, Note_on_c, 0, 67, 75
3, 28800, Note_on_c, 0, 71, 75
3, 28847, Note_on_c, 0, 71, 0
3, 28847, Note_on_c, 0, 67, 0
3, 29040, Note_on_c, 0, 67, 75
3, 29040, Note_on_c, 0, 71, 75
3, 29160, Note_on_c, 0, 71, 0
3, 29160, Note_on_c, 0, 67, 0
3, 29160, Note_on_c, 0, 74, 75
3, 29280, Note_on_c, 0, 74, 0
3, 29280, Note_on_c, 0, 66, 88
3, 29280, Note_on_c, 0, 69, 88
3, 29327, Note_on_c, 0, 69, 0
3, 29327, Note_on_c, 0, 66, 0
3, 29520, Note_on_c, 0, 66, 88
3, 29520, Note_on_c, 0, 69, 88
3, 29640, Note_on_c, 0, 69, 0
3, 29640, Note_on_c, 0, 66, 0
3, 29640, Note_on_c, 0, 74, 88
3, 29760, Note_on_c, 0, 74, 0
3, 29760, Note_on_c, 0, 67, 88
3, 29807, Note_on_c, 0, 67, 0
3, 30000, Note_on_c, 0, 64, 88
3, 30000, Note_on_c, 0, 67, 88
3, 30000, Note_on_c, 0, 69, 88
3, 30047, Note_on_c, 0, 69, 0
3, 30047, Note_on_c, 0, 67, 0
3, 30047, Note_on_c, 0, 64, 0
3, 30240, Note_on_c, 0, 62, 88
3, 30240, Note_on_c, 0, 67, 88
3, 30240, Note_on_c, 0, 71, 88
3, 30287, Note_on_c, 0, 71, 0
3, 30287, Note_on_c, 0, 67, 0
3, 30287, Note_on_c, 0, 62, 0
3, 30720, Note_on_c, 0, 66, 88
3, 30720, Note_on_c, 0, 69, 88
3, 30720, Note_on_c, 0, 74, 88
3, 30767, Note_on_c, 0, 74, 0
3, 30767, Note_on_c, 0, 69, 0
3, 30767, Note_on_c, 0, 66, 0
3, 31200, Note_on_c, 0, 66, 88
3, 31200, Note_on_c, 0, 69, 88
3, 31200, Note_on_c, 0, 74, 88
3, 31247, Note_on_c, 0, 74, 0
3, 31247, Note_on_c, 0, 69, 0
3, 31247, Note_on_c, 0, 66, 0
3, 31680, Note_on_c, 0, 67, 88
3, 31680, Note_on_c, 0, 71, 88
3, 31680, Note_on_c, 0, 76, 88
3, 31727, Note_on_c, 0, 76, 0
3, 31727, Note_on_c, 0, 71, 0
3, 31727, Note_on_c, 0, 67, 0
3, 32160, Note_on_c, 0, 67, 88
3, 32160, Note_on_c, 0, 71, 88
3, 32160, Note_on_c, 0, 76, 88
3, 32207, Note_on_c, 0, 76, 0
3, 32207, Note_on_c, 0, 71, 0
3, 32207, Note_on_c, 0, 67, 0
3, 32640, Note_on_c, 0, 69, 88
3, 32640, Note_on_c, 0, 73, 88
3, 32640, Note_on_c, 0, 76, 88
3, 32687, Note_on_c, 0, 76, 0
3, 32687, Note_on_c, 0, 73, 0
3, 32687, Note_on_c, 0, 69, 0
3, 33120, Note_on_c, 0, 69, 88
3, 33120, Note_on_c, 0, 73, 88
3, 33120, Note_on_c, 0, 76, 88
3, 33167, Note_on_c, 0, 76, 0
3, 33167, Note_on_c, 0, 73, 0
3, 33167, Note_on_c, 0, 69, 0
3, 33600, Note_on_c, 0, 69, 88
3, 33600, Note_on_c, 0, 73, 88
3, 33600, Note_on_c, 0, 78, 88
3, 33647, Note_on_c, 0, 78, 0
3, 33647, Note_on_c, 0, 73, 0
3, 33647, Note_on_c, 0, 69, 0
3, 34080, Note_on_c, 0, 71, 88
3, 34080, Note_on_c, 0, 74, 88
3, 34080, Note_on_c, 0, 78, 88
3, 34127, Note_on_c, 0, 78, 0
3, 34127, Note_on_c, 0, 74, 0
3, 34127, Note_on_c, 0, 71, 0
3, 34560, Note_on_c, 0, 71, 88
3, 34560, Note_on_c, 0, 74, 88
3, 34560, Note_on_c, 0, 79, 88
3, 34607, Note_on_c, 0, 79, 0
3, 34607, Note_on_c, 0, 74, 0
3, 34607, Note_on_c, 0, 71, 0
3, 35040, Note_on_c, 0, 69, 88
3, 35040, Note_on_c, 0, 73, 88
3, 35040, Note_on_c, 0, 78, 88
3, 35087, Note_on_c, 0, 78, 0
3, 35087, Note_on_c, 0, 73, 0
3, 35087, Note_on_c, 0, 69, 0
3, 35520, Note_on_c, 0, 67, 88
3, 35520, Note_on_c, 0, 71, 88
3, 35520, Note_on_c, 0, 76, 88
3, 35567, Note_on_c, 0, 76, 0
3, 35567, Note_on_c, 0, 71, 0
3, 35567, Note_on_c, 0, 67, 0
3, 36000, Note_on_c, 0, 66, 88
3, 36000, Note_on_c, 0, 71, 88
3, 36000, Note_on_c, 0, 74, 88
3, 36047, Note_on_c, 0, 74, 0
3, 36047, Note_on_c, 0, 71, 0
3, 36047, Note_on_c, 0, 66, 0
3, 36480, Note_on_c, 0, 64, 88
3, 36480, Note_on_c, 0, 67, 88
3, 36480, Note_on_c, 0, 73, 88
3, 36527, Note_on_c, 0, 73, 0
3, 36527, Note_on_c, 0, 67, 0
3, 36527, Note_on_c, 0, 64, 0
3, 36960, Note_on_c, 0, 73, 88
3, 36960, Note_on_c, 0, 79, 88
3, 36960, Note_on_c, 0, 83, 88
3, 37007, Note_on_c, 0, 83, 0
3, 37007, Note_on_c, 0, 79, 0
3, 37007, Note_on_c, 0, 73, 0
3, 37440, Note_on_c, 0, 74, 88
3, 37440, Note_on_c, 0, 81, 88
3, 37487, Note_on_c, 0, 81, 0
3, 37487, Note_on_c, 0, 74, 0
3, 37920, Note_on_c, 0, 76, 88
3, 37920, Note_on_c, 0, 79, 88
3, 37920, Note_on_c, 0, 85, 88
3, 37967, Note_on_c, 0, 85, 0
3, 37967, Note_on_c, 0, 79, 0
3, 37967, Note_on_c, 0, 76, 0
3, 38400, Note_on_c, 0, 78, 88
3, 38400, Note_on_c, 0, 81, 88
3, 38400, Note_on_c, 0, 86, 88
3, 38447, Note_on_c, 0, 86, 0
3, 38447, Note_on_c, 0, 81, 0
3, 38447, Note_on_c, 0, 78, 0
3, 38880, Note_on_c, 0, 66, 88
3, 38880, Note_on_c, 0, 69, 88
3, 38880, Note_on_c, 0, 74, 88
3, 38927, Note_on_c, 0, 74, 0
3, 38927, Note_on_c, 0, 69, 0
3, 38927, Note_on_c, 0, 66, 0
3, 39360, Note_on_c, 0, 67, 88
3, 39360, Note_on_c, 0, 71, 88
3, 39360, Note_on_c, 0, 76, 88
3, 39407, Note_on_c, 0, 76, 0
3, 39407, Note_on_c, 0, 71, 0
3, 39407, Note_on_c, 0, 67, 0
3, 39840, Note_on_c, 0, 67, 88
3, 39840, Note_on_c, 0, 71, 88
3, 39840, Note_on_c, 0, 76, 88
3, 39887, Note_on_c, 0, 76, 0
3, 39887, Note_on_c, 0, 71, 0
3, 39887, Note_on_c, 0, 67, 0
3, 40320, Note_on_c, 0, 69, 88
3, 40320, Note_on_c, 0, 73, 88
3, 40320, Note_on_c, 0, 76, 88
3, 40367, Note_on_c, 0, 76, 0
3, 40367, Note_on_c, 0, 73, 0
3, 40367, Note_on_c, 0, 69, 0
3, 40800, Note_on_c, 0, 69, 88
3, 40800, Note_on_c, 0, 73, 88
3, 40800, Note_on_c, 0, 76, 88
3, 40847, Note_on_c, 0, 76, 0
3, 40847, Note_on_c, 0, 73, 0
3, 40847, Note_on_c, 0, 69, 0
3, 41280, Note_on_c, 0, 69, 88
3, 41280, Note_on_c, 0, 73, 88
3, 41280, Note_on_c, 0, 78, 88
3, 41327, Note_on_c, 0, 78, 0
3, 41327, Note_on_c, 0, 73, 0
3, 41327, Note_on_c, 0, 69, 0
3, 41760, Note_on_c, 0, 71, 88
3, 41760, Note_on_c, 0, 74, 88
3, 41760, Note_on_c, 0, 78, 88
3, 41807, Note_on_c, 0, 78, 0
3, 41807, Note_on_c, 0, 74, 0
3, 41807, Note_on_c, 0, 71, 0
3, 42240, Note_on_c, 0, 71, 88
3, 42240, Note_on_c, 0, 74, 88
3, 42240, Note_on_c, 0, 79, 88
3, 42287, Note_on_c, 0, 79, 0
3, 42287, Note_on_c, 0, 74, 0
3, 42287, Note_on_c, 0, 71, 0
3, 42720, Note_on_c, 0, 69, 88
3, 42720, Note_on_c, 0, 73, 88
3, 42720, Note_on_c, 0, 78, 88
3, 42767, Note_on_c, 0, 78, 0
3, 42767, Note_on_c, 0, 73, 0
3, 42767, Note_on_c, 0, 69, 0
3, 43200, Note_on_c, 0, 67, 88
3, 43200, Note_on_c, 0, 71, 88
3, 43200, Note_on_c, 0, 76, 88
3, 43247, Note_on_c, 0, 76, 0
3, 43247, Note_on_c, 0, 71, 0
3, 43247, Note_on_c, 0, 67, 0
3, 43680, Note_on_c, 0, 66, 88
3, 43680, Note_on_c, 0, 71, 88
3, 43680, Note_on_c, 0, 74, 88
3, 43727, Note_on_c, 0, 74, 0
3, 43727, Note_on_c, 0, 71, 0
3, 43727, Note_on_c, 0, 66, 0
3, 44160, Note_on_c, 0, 64, 88
3, 44160, Note_on_c, 0, 67, 88
3, 44160, Note_on_c, 0, 73, 88
3, 44207, Note_on_c, 0, 73, 0
3, 44207, Note_on_c, 0, 67, 0
3, 44207, Note_on_c, 0, 64, 0
3, 44640, Note_on_c, 0, 64, 88
3, 44640, Note_on_c, 0, 67, 88
3, 44640, Note_on_c, 0, 71, 88
3, 44687, Note_on_c, 0, 71, 0
3, 44687, Note_on_c, 0, 67, 0
3, 44687, Note_on_c, 0, 64, 0
3, 45120, Note_on_c, 0, 64, 88
3, 45120, Note_on_c, 0, 67, 88
3, 45120, Note_on_c, 0, 69, 88
3, 45167, Note_on_c, 0, 69, 0
3, 45167, Note_on_c, 0, 67, 0
3, 45167, Note_on_c, 0, 64, 0
3, 45360, Note_on_c, 0, 64, 88
3, 45360, Note_on_c, 0, 67, 88
3, 45360, Note_on_c, 0, 69, 88
3, 45407, Note_on_c, 0, 69, 0
3, 45407, Note_on_c, 0, 67, 0
3, 45407, Note_on_c, 0, 64, 0
3, 45600, Note_on_c, 0, 66, 88
3, 45600, Note_on_c, 0, 69, 88
3, 45647, Note_on_c, 0, 69, 0
3, 45647, Note_on_c, 0, 66, 0
3, 45840, Note_on_c, 0, 62, 88
3, 45840, Note_on_c, 0, 66, 88
3, 45840, Note_on_c, 0, 69, 88
3, 45887, Note_on_c, 0, 69, 0
3, 45887, Note_on_c, 0, 66, 0
3, 45887, Note_on_c, 0, 62, 0
3, 46080, Note_on_c, 0, 67, 88
3, 46080, Note_on_c, 0, 72, 88
3, 46127, Note_on_c, 0, 72, 0
3, 46127, Note_on_c, 0, 67, 0
3, 46320, Note_on_c, 0, 67, 88
3, 46440, Note_on_c, 0, 67, 0
3, 46440, Note_on_c, 0, 66, 88
3, 46560, Note_on_c, 0, 66, 0
3, 46560, Note_on_c, 0, 67, 88
3, 46607, Note_on_c, 0, 67, 0
3, 46800, Note_on_c, 0, 67, 114
3, 47280, Note_on_c, 0, 67, 0
3, 47280, Note_on_c, 0, 62, 101
3, 47400, Note_on_c, 0, 62, 0
3, 47400, Note_on_c, 0, 61, 101
3, 47520, Note_on_c, 0, 61, 0
3, 47520, Note_on_c, 0, 62, 101
3, 47760, Note_on_c, 0, 62, 0
3, 47760, Note_on_c, 0, 62, 101
3, 47760, Note_on_c, 0, 66, 101
3, 47760, Note_on_c, 0, 69, 101
3, 47807, Note_on_c, 0, 69, 0
3, 47807, Note_on_c, 0, 66, 0
3, 47807, Note_on_c, 0, 62, 0
3, 48000, Note_on_c, 0, 67, 101
3, 48000, Note_on_c, 0, 72, 101
3, 48047, Note_on_c, 0, 72, 0
3, 48047, Note_on_c, 0, 67, 0
3, 48240, Note_on_c, 0, 67, 101
3, 48360, Note_on_c, 0, 67, 0
3, 48360, Note_on_c, 0, 66, 101
3, 48480, Note_on_c, 0, 66, 0
3, 48480, Note_on_c, 0, 67, 101
3, 48720, Note_on_c, 0, 67, 0
3, 48720, Note_on_c, 0, 67, 127
3, 49200, Note_on_c, 0, 67, 0
3, 49200, Note_on_c, 0, 62, 101
3, 49320, Note_on_c, 0, 62, 0
3, 49320, Note_on_c, 0, 61, 101
3, 49440, Note_on_c, 0, 61, 0
3, 49440, Note_on_c, 0, 62, 101
3, 49487, Note_on_c, 0, 62, 0
3, 49680, Note_on_c, 0, 62, 101
3, 49680, Note_on_c, 0, 66, 101
3, 49680, Note_on_c, 0, 69, 101
3, 49727, Note_on_c, 0, 69, 0
3, 49727, Note_on_c, 0, 66, 0
3, 49727, Note_on_c, 0, 62, 0
3, 49920, Note_on_c, 0, 67, 101
3, 49920, Note_on_c, 0, 72, 101
3, 49967, Note_on_c, 0, 72, 0
3, 49967, Note_on_c, 0, 67, 0
3, 50160, Note_on_c, 0, 67, 101
3, 50280, Note_on_c, 0, 67, 0
3, 50280, Note_on_c, 0, 66, 101
3, 50400, Note_on_c, 0, 66, 0
3, 50400, Note_on_c, 0, 67, 101
3, 50640, Note_on_c, 0, 67, 0
3, 50640, Note_on_c, 0, 62, 101
3, 50640, Note_on_c, 0, 66, 101
3, 50640, Note_on_c, 0, 69, 101
3, 50687, Note_on_c, 0, 69, 0
3, 50687, Note_on_c, 0, 66, 0
3, 50687, Note_on_c, 0, 62, 0
3, 50880, Note_on_c, 0, 67, 101
3, 50880, Note_on_c, 0, 72, 101
3, 50927, Note_on_c, 0, 72, 0
3, 50927, Note_on_c, 0, 67, 0
3, 51120, Note_on_c, 0, 67, 101
3, 51240, Note_on_c, 0, 67, 0
3, 51240, Note_on_c, 0, 66, 101
3, 51360, Note_on_c, 0, 66, 0
3, 51360, Note_on_c, 0, 67, 101
3, 51600, Note_on_c, 0, 67, 0
3, 51600, Note_on_c, 0, 69, 101
3, 51647, Note_on_c, 0, 69, 0
3, 51840, Note_on_c, 0, 67, 101
3, 51840, Note_on_c, 0, 72, 101
3, 51887, Note_on_c, 0, 72, 0
3, 51887, Note_on_c, 0, 67, 0
3, 52080, Note_on_c, 0, 66, 101
3, 52080, Note_on_c, 0, 69, 101
3, 52127, Note_on_c, 0, 69, 0
3, 52127, Note_on_c, 0, 66, 0
3, 52320, Note_on_c, 0, 67, 101
3, 52320, Note_on_c, 0, 72, 101
3, 52367, Note_on_c, 0, 72, 0
3, 52367, Note_on_c, 0, 67, 0
3, 52560, Note_on_c, 0, 66, 101
3, 52560, Note_on_c, 0, 69, 101
3, 52607, Note_on_c, 0, 69, 0
3, 52607, Note_on_c, 0, 66, 0
3, 52800, Note_on_c, 0, 67, 101
3, 52800, Note_on_c, 0, 72, 101
3, 52847, Note_on_c, 0, 72, 0
3, 52847, Note_on_c, 0, 67, 0
3, 53040, Note_on_c, 0, 66, 101
3, 53040, Note_on_c, 0, 69, 101
3, 53087, Note_on_c, 0, 69, 0
3, 53087, Note_on_c, 0, 66, 0
3, 53280, Note_on_c, 0, 69, 101
3, 53280, Note_on_c, 0, 74, 101
3, 53400, Note_on_c, 0, 74, 0
3, 53400, Note_on_c, 0, 69, 0
3, 53520, Note_on_c, 0, 74, 101
3, 53600, Note_on_c, 0, 74, 0
3, 53600, Note_on_c, 0, 76, 101
3, 53679, Note_on_c, 0, 76, 0
3, 53679, Note_on_c, 0, 78, 101
3, 53760, Note_on_c, 0, 78, 0
3, 53760, Note_on_c, 0, 71, 101
3, 53760, Note_on_c, 0, 74, 101
3, 53760, Note_on_c, 0, 79, 101
3, 53807, Note_on_c, 0, 79, 0
3, 53807, Note_on_c, 0, 74, 0
3, 53807, Note_on_c, 0, 71, 0
3, 54000, Note_on_c, 0, 79, 62
3, 54120, Note_on_c, 0, 79, 0
3, 54120, Note_on_c, 0, 78, 62
3, 54240, Note_on_c, 0, 78, 0
3, 54240, Note_on_c, 0, 79, 62
3, 54480, Note_on_c, 0, 79, 0
3, 54480, Note_on_c, 0, 79, 62
3, 54527, Note_on_c, 0, 79, 0
3, 54720, Note_on_c, 0, 72, 62
3, 54720, Note_on_c, 0, 76, 62
3, 54767, Note_on_c, 0, 76, 0
3, 54767, Note_on_c, 0, 72, 0
3, 54960, Note_on_c, 0, 71, 62
3, 54960, Note_on_c, 0, 74, 62
3, 55007, Note_on_c, 0, 74, 0
3, 55007, Note_on_c, 0, 71, 0
3, 55200, Note_on_c, 0, 69, 88
3, 55200, Note_on_c, 0, 79, 88
3, 55200, Note_on_c, 0, 81, 88
3, 55680, Note_on_c, 0, 81, 0
3, 55680, Note_on_c, 0, 79, 0
3, 55680, Note_on_c, 0, 69, 0
3, 55680, Note_on_c, 0, 71, 88
3, 55680, Note_on_c, 0, 74, 88
3, 55727, Note_on_c, 0, 74, 0
3, 55727, Note_on_c, 0, 71, 0
3, 55920, Note_on_c, 0, 74, 62
3, 56040, Note_on_c, 0, 74, 0
3, 56040, Note_on_c, 0, 73, 62
3, 56160, Note_on_c, 0, 73, 0
3, 56160, Note_on_c, 0, 74, 62
3, 56400, Note_on_c, 0, 74, 0
3, 56400, Note_on_c, 0, 74, 62
3, 56447, Note_on_c, 0, 74, 0
3, 56640, Note_on_c, 0, 71, 62
3, 56640, Note_on_c, 0, 73, 62
3, 56687, Note_on_c, 0, 73, 0
3, 56687, Note_on_c, 0, 71, 0
3, 56880, Note_on_c, 0, 69, 62
3, 56880, Note_on_c, 0, 72, 62
3, 56927, Note_on_c, 0, 72, 0
3, 56927, Note_on_c, 0, 69, 0
3, 57120, Note_on_c, 0, 67, 62
3, 57120, Note_on_c, 0, 71, 62
3, 57167, Note_on_c, 0, 71, 0
3, 57167, Note_on_c, 0, 67, 0
3, 57360, Note_on_c, 0, 67, 62
3, 57360, Note_on_c, 0, 71, 62
3, 57480, Note_on_c, 0, 71, 0
3, 57480, Note_on_c, 0, 67, 0
3, 57480, Note_on_c, 0, 74, 62
3, 57600, Note_on_c, 0, 74, 0
3, 57600, Note_on_c, 0, 66, 88
3, 57600, Note_on_c, 0, 69, 88
3, 57647, Note_on_c, 0, 69, 0
3, 57647, Note_on_c, 0, 66, 0
3, 57840, Note_on_c, 0, 66, 88
3, 57840, Note_on_c, 0, 69, 88
3, 57960, Note_on_c, 0, 69, 0
3, 57960, Note_on_c, 0, 66, 0
3, 57960, Note_on_c, 0, 74, 88
3, 58080, Note_on_c, 0, 74, 0
3, 58080, Note_on_c, 0, 64, 88
3, 58080, Note_on_c, 0, 67, 88
3, 58127, Note_on_c, 0, 67, 0
3, 58127, Note_on_c, 0, 64, 0
3, 58320, Note_on_c, 0, 64, 88
3, 58320, Note_on_c, 0, 67, 88
3, 58560, Note_on_c, 0, 67, 0
3, 58560, Note_on_c, 0, 64, 0
3, 58560, Note_on_c, 0, 62, 88
3, 58560, Note_on_c, 0, 66, 88
3, 58607, Note_on_c, 0, 66, 0
3, 58607, Note_on_c, 0, 62, 0
3, 58800, Note_on_c, 0, 62, 88
3, 58800, Note_on_c, 0, 66, 88
3, 59040, Note_on_c, 0, 66, 0
3, 59040, Note_on_c, 0, 62, 0
3, 59040, Note_on_c, 0, 66, 88
3, 59040, Note_on_c, 0, 69, 88
3, 59087, Note_on_c, 0, 69, 0
3, 59087, Note_on_c, 0, 66, 0
3, 59280, Note_on_c, 0, 66, 88
3, 59280, Note_on_c, 0, 69, 88
3, 59400, Note_on_c, 0, 69, 0
3, 59400, Note_on_c, 0, 66, 0
3, 59400, Note_on_c, 0, 74, 88
3, 59520, Note_on_c, 0, 74, 0
3, 59520, Note_on_c, 0, 67, 88
3, 59520, Note_on_c, 0, 71, 88
3, 59567, Note_on_c, 0, 71, 0
3, 59567, Note_on_c, 0, 67, 0
3, 59760, Note_on_c, 0, 67, 88
3, 59760, Note_on_c, 0, 71, 88
3, 59880, Note_on_c, 0, 71, 0
3, 59880, Note_on_c, 0, 67, 0
3, 59880, Note_on_c, 0, 74, 88
3, 60000, Note_on_c, 0, 74, 0
3, 60000, Note_on_c, 0, 64, 88
3, 60000, Note_on_c, 0, 67, 88
3, 60047, Note_on_c, 0, 67, 0
3, 60047, Note_on_c, 0, 64, 0
3, 60240, Note_on_c, 0, 64, 88
3, 60240, Note_on_c, 0, 67, 88
3, 60360, Note_on_c, 0, 67, 0
3, 60360, Note_on_c, 0, 64, 0
3, 60360, Note_on_c, 0, 74, 88
3, 60480, Note_on_c, 0, 74, 0
3, 60480, Note_on_c, 0, 66, 88
3, 60480, Note_on_c, 0, 69, 88
3, 60527, Note_on_c, 0, 69, 0
3, 60527, Note_on_c, 0, 66, 0
3, 60720, Note_on_c, 0, 64, 88
3, 60720, Note_on_c, 0, 67, 88
3, 60767, Note_on_c, 0, 67, 0
3, 60767, Note_on_c, 0, 64, 0
3, 60960, Note_on_c, 0, 66, 88
3, 60960, Note_on_c, 0, 69, 88
3, 61200, Note_on_c, 0, 69, 0
3, 61200, Note_on_c, 0, 66, 0
3, 61200, Note_on_c, 0, 74, 101
3, 61280, Note_on_c, 0, 74, 0
3, 61280, Note_on_c, 0, 76, 101
3, 61359, Note_on_c, 0, 76, 0
3, 61359, Note_on_c, 0, 78, 101
3, 61440, Note_on_c, 0, 78, 0
3, 61440, Note_on_c, 0, 71, 101
3, 61440, Note_on_c, 0, 74, 101
3, 61440, Note_on_c, 0, 79, 101
3, 61487, Note_on_c, 0, 79, 0
3, 61487, Note_on_c, 0, 74, 0
3, 61487, Note_on_c, 0, 71, 0
3, 61680, Note_on_c, 0, 79, 62
3, 61800, Note_on_c, 0, 79, 0
3, 61800, Note_on_c, 0, 78, 62
3, 61920, Note_on_c, 0, 78, 0
3, 61920, Note_on_c, 0, 79, 62
3, 62160, Note_on_c, 0, 79, 0
3, 62160, Note_on_c, 0, 79, 62
3, 62207, Note_on_c, 0, 79, 0
3, 62400, Note_on_c, 0, 72, 62
3, 62400, Note_on_c, 0, 76, 62
3, 62447, Note_on_c, 0, 76, 0
3, 62447, Note_on_c, 0, 72, 0
3, 62640, Note_on_c, 0, 71, 62
3, 62640, Note_on_c, 0, 74, 62
3, 62687, Note_on_c, 0, 74, 0
3, 62687, Note_on_c, 0, 71, 0
3, 62880, Note_on_c, 0, 69, 88
3, 62880, Note_on_c, 0, 81, 88
3, 63360, Note_on_c, 0, 81, 0
3, 63360, Note_on_c, 0, 69, 0
3, 63360, Note_on_c, 0, 71, 88
3, 63360, Note_on_c, 0, 74, 88
3, 63407, Note_on_c, 0, 74, 0
3, 63407, Note_on_c, 0, 71, 0
3, 63600, Note_on_c, 0, 74, 62
3, 63720, Note_on_c, 0, 74, 0
3, 63720, Note_on_c, 0, 73, 62
3, 63840, Note_on_c, 0, 73, 0
3, 63840, Note_on_c, 0, 74, 62
3, 64080, Note_on_c, 0, 74, 0
3, 64080, Note_on_c, 0, 74, 62
3, 64127, Note_on_c, 0, 74, 0
3, 64320, Note_on_c, 0, 71, 62
3, 64320, Note_on_c, 0, 73, 62
3, 64367, Note_on_c, 0, 73, 0
3, 64367, Note_on_c, 0, 71, 0
3, 64560, Note_on_c, 0, 69, 62
3, 64560, Note_on_c, 0, 72, 62
3, 64607, Note_on_c, 0, 72, 0
3, 64607, Note_on_c, 0, 69, 0
3, 64800, Note_on_c, 0, 67, 62
3, 64800, Note_on_c, 0, 71, 62
3, 64847, Note_on_c, 0, 71, 0
3, 64847, Note_on_c, 0, 67, 0
3, 65040, Note_on_c, 0, 67, 62
3, 65040, Note_on_c, 0, 71, 62
3, 65160, Note_on_c, 0, 71, 0
3, 65160, Note_on_c, 0, 67, 0
3, 65160, Note_on_c, 0, 74, 62
3, 65280, Note_on_c, 0, 74, 0
3, 65280, Note_on_c, 0, 66, 62
3, 65280, Note_on_c, 0, 69, 62
3, 65327, Note_on_c, 0, 69, 0
3, 65327, Note_on_c, 0, 66, 0
3, 65520, Note_on_c, 0, 66, 62
3, 65520, Note_on_c, 0, 69, 62
3, 65640, Note_on_c, 0, 69, 0
3, 65640, Note_on_c, 0, 66, 0
3, 65640, Note_on_c, 0, 74, 62
3, 65760, Note_on_c, 0, 74, 0
3, 65760, Note_on_c, 0, 64, 62
3, 65760, Note_on_c, 0, 67, 62
3, 65807, Note_on_c, 0, 67, 0
3, 65807, Note_on_c, 0, 64, 0
3, 66000, Note_on_c, 0, 64, 62
3, 66000, Note_on_c, 0, 67, 62
3, 66240, Note_on_c, 0, 67, 0
3, 66240, Note_on_c, 0, 64, 0
3, 66240, Note_on_c, 0, 62, 75
3, 66240, Note_on_c, 0, 66, 75
3, 66287, Note_on_c, 0, 66, 0
3, 66287, Note_on_c, 0, 62, 0
3, 66480, Note_on_c, 0, 62, 75
3, 66480, Note_on_c, 0, 66, 75
3, 66720, Note_on_c, 0, 66, 0
3, 66720, Note_on_c, 0, 62, 0
3, 66720, Note_on_c, 0, 66, 75
3, 66720, Note_on_c, 0, 69, 75
3, 66767, Note_on_c, 0, 69, 0
3, 66767, Note_on_c, 0, 66, 0
3, 66960, Note_on_c, 0, 66, 75
3, 66960, Note_on_c, 0, 69, 75
3, 67080, Note_on_c, 0, 69, 0
3, 67080, Note_on_c, 0, 66, 0
3, 67080, Note_on_c, 0, 74, 75
3, 67200, Note_on_c, 0, 74, 0
3, 67200, Note_on_c, 0, 67, 75
3, 67200, Note_on_c, 0, 71, 75
3, 67247, Note_on_c, 0, 71, 0
3, 67247, Note_on_c, 0, 67, 0
3, 67440, Note_on_c, 0, 67, 88
3, 67440, Note_on_c, 0, 71, 88
3, 67560, Note_on_c, 0, 71, 0
3, 67560, Note_on_c, 0, 67, 0
3, 67560, Note_on_c, 0, 74, 88
3, 67680, Note_on_c, 0, 74, 0
3, 67680, Note_on_c, 0, 66, 88
3, 67680, Note_on_c, 0, 69, 88
3, 67727, Note_on_c, 0, 69, 0
3, 67727, Note_on_c, 0, 66, 0
3, 67920, Note_on_c, 0, 66, 88
3, 67920, Note_on_c, 0, 69, 88
3, 68040, Note_on_c, 0, 69, 0
3, 68040, Note_on_c, 0, 66, 0
3, 68040, Note_on_c, 0, 74, 88
3, 68160, Note_on_c, 0, 74, 0
3, 68160, Note_on_c, 0, 64, 88
3, 68160, Note_on_c, 0, 67, 88
3, 68207, Note_on_c, 0, 67, 0
3, 68207, Note_on_c, 0, 64, 0
3, 68400, Note_on_c, 0, 64, 88
3, 68400, Note_on_c, 0, 67, 88
3, 68520, Note_on_c, 0, 67, 0
3, 68520, Note_on_c, 0, 64, 0
3, 68520, Note_on_c, 0, 74, 88
3, 68640, Note_on_c, 0, 74, 0
3, 68640, Note_on_c, 0, 67, 88
3, 68640, Note_on_c, 0, 71, 88
3, 68687, Note_on_c, 0, 71, 0
3, 68687, Note_on_c, 0, 67, 0
3, 68880, Note_on_c, 0, 67, 88
3, 68880, Note_on_c, 0, 71, 88
3, 69000, Note_on_c, 0, 71, 0
3, 69000, Note_on_c, 0, 67, 0
3, 69000, Note_on_c, 0, 74, 88
3, 69120, Note_on_c, 0, 74, 0
3, 69120, Note_on_c, 0, 66, 88
3, 69120, Note_on_c, 0, 69, 88
3, 69167, Note_on_c, 0, 69, 0
3, 69167, Note_on_c, 0, 66, 0
3, 69360, Note_on_c, 0, 66, 88
3, 69360, Note_on_c, 0, 69, 88
3, 69480, Note_on_c, 0, 69, 0
3, 69480, Note_on_c, 0, 66, 0
3, 69480, Note_on_c, 0, 74, 88
3, 69600, Note_on_c, 0, 74, 0
3, 69600, Note_on_c, 0, 64, 88
3, 69600, Note_on_c, 0, 67, 88
3, 69647, Note_on_c, 0, 67, 0
3, 69647, Note_on_c, 0, 64, 0
3, 69840, Note_on_c, 0, 64, 88
3, 69840, Note_on_c, 0, 67, 88
3, 69960, Note_on_c, 0, 67, 0
3, 69960, Note_on_c, 0, 64, 0
3, 69960, Note_on_c, 0, 74, 88
3, 70080, Note_on_c, 0, 74, 0
3, 70080, Note_on_c, 0, 62, 88
3, 70080, Note_on_c, 0, 66, 88
3, 70127, Note_on_c, 0, 66, 0
3, 70127, Note_on_c, 0, 62, 0
3, 70320, Note_on_c, 0, 62, 88
3, 70320, Note_on_c, 0, 66, 88
3, 70440, Note_on_c, 0, 66, 0
3, 70440, Note_on_c, 0, 62, 0
3, 70440, Note_on_c, 0, 74, 88
3, 70560, Note_on_c, 0, 74, 0
3, 70560, Note_on_c, 0, 66, 88
3, 70560, Note_on_c, 0, 69, 88
3, 70607, Note_on_c, 0, 69, 0
3, 70607, Note_on_c, 0, 66, 0
3, 70800, Note_on_c, 0, 66, 88
3, 70800, Note_on_c, 0, 69, 88
3, 70920, Note_on_c, 0, 69, 0
3, 70920, Note_on_c, 0, 66, 0
3, 70920, Note_on_c, 0, 74, 88
3, 71040, Note_on_c, 0, 74, 0
3, 71040, Note_on_c, 0, 67, 88
3, 71040, Note_on_c, 0, 71, 88
3, 71087, Note_on_c, 0, 71, 0
3, 71087, Note_on_c, 0, 67, 0
3, 71280, Note_on_c, 0, 67, 88
3, 71280, Note_on_c, 0, 71, 88
3, 71400, Note_on_c, 0, 71, 0
3, 71400, Note_on_c, 0, 67, 0
3, 71400, Note_on_c, 0, 74, 88
3, 71520, Note_on_c, 0, 74, 0
3, 71520, Note_on_c, 0, 66, 88
3, 71520, Note_on_c, 0, 69, 88
3, 71567, Note_on_c, 0, 69, 0
3, 71567, Note_on_c, 0, 66, 0
3, 71760, Note_on_c, 0, 66, 88
3, 71760, Note_on_c, 0, 69, 88
3, 71880, Note_on_c, 0, 69, 0
3, 71880, Note_on_c, 0, 66, 0
3, 71880, Note_on_c, 0, 74, 88
3, 72000, Note_on_c, 0, 74, 0
3, 72000, Note_on_c, 0, 64, 88
3, 72000, Note_on_c, 0, 67, 88
3, 72047, Note_on_c, 0, 67, 0
3, 72047, Note_on_c, 0, 64, 0
3, 72240, Note_on_c, 0, 64, 88
3, 72240, Note_on_c, 0, 67, 88
3, 72360, Note_on_c, 0, 67, 0
3, 72360, Note_on_c, 0, 64, 0
3, 72360, Note_on_c, 0, 74, 88
3, 72480, Note_on_c, 0, 74, 0
3, 72480, Note_on_c, 0, 67, 88
3, 72480, Note_on_c, 0, 71, 88
3, 72527, Note_on_c, 0, 71, 0
3, 72527, Note_on_c, 0, 67, 0
3, 72720, Note_on_c, 0, 67, 88
3, 72720, Note_on_c, 0, 71, 88
3, 72840, Note_on_c, 0, 71, 0
3, 72840, Note_on_c, 0, 67, 0
3, 72840, Note_on_c, 0, 74, 88
3, 72960, Note_on_c, 0, 74, 0
3, 72960, Note_on_c, 0, 66, 88
3, 72960, Note_on_c, 0, 69, 88
3, 73007, Note_on_c, 0, 69, 0
3, 73007, Note_on_c, 0, 66, 0
3, 73200, Note_on_c, 0, 66, 88
3, 73200, Note_on_c, 0, 69, 88
3, 73320, Note_on_c, 0, 69, 0
3, 73320, Note_on_c, 0, 66, 0
3, 73320, Note_on_c, 0, 74, 88
3, 73440, Note_on_c, 0, 74, 0
3, 73440, Note_on_c, 0, 66, 88
3, 73440, Note_on_c, 0, 72, 88
3, 73487, Note_on_c, 0, 72, 0
3, 73487, Note_on_c, 0, 66, 0
3, 73680, Note_on_c, 0, 66, 88
3, 73680, Note_on_c, 0, 72, 88
3, 73800, Note_on_c, 0, 72, 0
3, 73800, Note_on_c, 0, 66, 0
3, 73800, Note_on_c, 0, 74, 88
3, 73920, Note_on_c, 0, 74, 0
3, 73920, Note_on_c, 0, 67, 88
3, 73920, Note_on_c, 0, 71, 88
3, 73967, Note_on_c, 0, 71, 0
3, 73967, Note_on_c, 0, 67, 0
3, 74160, Note_on_c, 0, 67, 101
3, 74160, Note_on_c, 0, 71, 101
3, 74280, Note_on_c, 0, 71, 0
3, 74280, Note_on_c, 0, 67, 0
3, 74280, Note_on_c, 0, 74, 101
3, 74400, Note_on_c, 0, 74, 0
3, 74400, Note_on_c, 0, 64, 101
3, 74400, Note_on_c, 0, 67, 101
3, 74447, Note_on_c, 0, 67, 0
3, 74447, Note_on_c, 0, 64, 0
3, 74640, Note_on_c, 0, 64, 101
3, 74640, Note_on_c, 0, 67, 101
3, 74760, Note_on_c, 0, 67, 0
3, 74760, Note_on_c, 0, 64, 0
3, 74760, Note_on_c, 0, 74, 101
3, 74880, Note_on_c, 0, 74, 0
3, 74880, Note_on_c, 0, 66, 101
3, 74880, Note_on_c, 0, 69, 101
3, 74927, Note_on_c, 0, 69, 0
3, 74927, Note_on_c, 0, 66, 0
3, 75120, Note_on_c, 0, 66, 101
3, 75120, Note_on_c, 0, 69, 101
3, 75240, Note_on_c, 0, 69, 0
3, 75240, Note_on_c, 0, 66, 0
3, 75240, Note_on_c, 0, 74, 101
3, 75360, Note_on_c, 0, 74, 0
3, 75360, Note_on_c, 0, 69, 101
3, 75360, Note_on_c, 0, 72, 101
3, 75407, Note_on_c, 0, 72, 0
3, 75407, Note_on_c, 0, 69, 0
3, 75600, Note_on_c, 0, 69, 101
3, 75600, Note_on_c, 0, 72, 101
3, 75720, Note_on_c, 0, 72, 0
3, 75720, Note_on_c, 0, 69, 0
3, 75720, Note_on_c, 0, 74, 101
3, 75840, Note_on_c, 0, 74, 0
3, 75840, Note_on_c, 0, 67, 101
3, 75840, Note_on_c, 0, 71, 101
3, 75887, Note_on_c, 0, 71, 0
3, 75887, Note_on_c, 0, 67, 0
3, 76080, Note_on_c, 0, 67, 101
3, 76080, Note_on_c, 0, 71, 101
3, 76200, Note_on_c, 0, 71, 0
3, 76200, Note_on_c, 0, 67, 0
3, 76200, Note_on_c, 0, 74, 101
3, 76320, Note_on_c, 0, 74, 0
3, 76320, Note_on_c, 0, 64, 101
3, 76320, Note_on_c, 0, 67, 101
3, 76367, Note_on_c, 0, 67, 0
3, 76367, Note_on_c, 0, 64, 0
3, 76560, Note_on_c, 0, 64, 101
3, 76560, Note_on_c, 0, 67, 101
3, 76680, Note_on_c, 0, 67, 0
3, 76680, Note_on_c, 0, 64, 0
3, 76680, Note_on_c, 0, 74, 101
3, 76800, Note_on_c, 0, 74, 0
3, 76800, Note_on_c, 0, 66, 101
3, 76800, Note_on_c, 0, 69, 101
3, 76847, Note_on_c, 0, 69, 0
3, 76847, Note_on_c, 0, 66, 0
3, 77040, Note_on_c, 0, 66, 101
3, 77040, Note_on_c, 0, 69, 101
3, 77160, Note_on_c, 0, 69, 0
3, 77160, Note_on_c, 0, 66, 0
3, 77160, Note_on_c, 0, 74, 101
3, 77280, Note_on_c, 0, 74, 0
3, 77280, Note_on_c, 0, 64, 101
3, 77280, Note_on_c, 0, 67, 101
3, 77327, Note_on_c, 0, 67, 0
3, 77327, Note_on_c, 0, 64, 0
3, 77520, Note_on_c, 0, 64, 101
3, 77520, Note_on_c, 0, 67, 101
3, 77640, Note_on_c, 0, 67, 0
3, 77640, Note_on_c, 0, 64, 0
3, 77640, Note_on_c, 0, 74, 101
3, 77760, Note_on_c, 0, 74, 0
3, 77760, Note_on_c, 0, 66, 101
3, 77760, Note_on_c, 0, 69, 101
3, 77807, Note_on_c, 0, 69, 0
3, 77807, Note_on_c, 0, 66, 0
3, 78000, Note_on_c, 0, 66, 101
3, 78000, Note_on_c, 0, 69, 101
3, 78120, Note_on_c, 0, 69, 0
3, 78120, Note_on_c, 0, 66, 0
3, 78120, Note_on_c, 0, 74, 101
3, 78240, Note_on_c, 0, 74, 0
3, 78240, Note_on_c, 0, 64, 101
3, 78240, Note_on_c, 0, 67, 101
3, 78287, Note_on_c, 0, 67, 0
3, 78287, Note_on_c, 0, 64, 0
3, 78480, Note_on_c, 0, 64, 101
3, 78480, Note_on_c, 0, 67, 101
3, 78600, Note_on_c, 0, 67, 0
3, 78600, Note_on_c, 0, 64, 0
3, 78600, Note_on_c, 0, 74, 101
3, 78720, Note_on_c, 0, 74, 0
3, 78720, Note_on_c, 0, 66, 101
3, 78720, Note_on_c, 0, 69, 101
3, 78767, Note_on_c, 0, 69, 0
3, 78767, Note_on_c, 0, 66, 0
3, 78960, Note_on_c, 0, 66, 101
3, 78960, Note_on_c, 0, 69, 101
3, 79080, Note_on_c, 0, 69, 0
3, 79080, Note_on_c, 0, 66, 0
3, 79080, Note_on_c, 0, 74, 101
3, 79200, Note_on_c, 0, 74, 0
3, 79200, Note_on_c, 0, 64, 101
3, 79200, Note_on_c, 0, 67, 101
3, 79247, Note_on_c, 0, 67, 0
3, 79247, Note_on_c, 0, 64, 0
3, 79440, Note_on_c, 0, 64, 101
3, 79440, Note_on_c, 0, 67, 101
3, 79560, Note_on_c, 0, 67, 0
3, 79560, Note_on_c, 0, 64, 0
3, 79560, Note_on_c, 0, 74, 101
3, 79680, Note_on_c, 0, 74, 0
3, 79680, Note_on_c, 0, 66, 101
3, 79680, Note_on_c, 0, 69, 101
3, 79727, Note_on_c, 0, 69, 0
3, 79727, Note_on_c, 0, 66, 0
3, 79920, Note_on_c, 0, 66, 101
3, 79920, Note_on_c, 0, 69, 101
3, 79920, Note_on_c, 0, 72, 101
3, 79920, Note_on_c, 0, 74, 101
3, 79967, Note_on_c, 0, 74, 0
3, 79967, Note_on_c, 0, 66, 0
3, 79967, Note_on_c, 0, 69, 0
3, 79967, Note_on_c, 0, 72, 0
3, 80160, Note_on_c, 0, 67, 127
3, 80160, Note_on_c, 0, 71, 127
3, 80160, Note_on_c, 0, 74, 127
3, 80160, Note_on_c, 0, 79, 127
3, 80256, Note_on_c, 0, 79, 0
3, 80256, Note_on_c, 0, 67, 0
3, 80256, Note_on_c, 0, 71, 0
3, 80256, Note_on_c, 0, 74, 0
3, 80256, End_track
4, 0, Start_track
4, 0, Title_t, "Grand Piano"
4, 0, Program_c, 0, 0
4, 0, Control_c, 0, 7, 115
4, 0, Control_c, 0, 10, 41
4, 0, Note_on_c, 0, 50, 75
4, 0, Note_on_c, 0, 55, 75
4, 0, Note_on_c, 0, 59, 75
4, 0, Note_on_c, 0, 62, 75
4, 240, Note_on_c, 0, 62, 0
4, 240, Note_on_c, 0, 50, 0
4, 240, Note_on_c, 0, 55, 0
4, 240, Note_on_c, 0, 59, 0
4, 960, Note_on_c, 0, 60, 49
4, 960, Note_on_c, 0, 67, 49
4, 1007, Note_on_c, 0, 67, 0
4, 1007, Note_on_c, 0, 60, 0
4, 1200, Note_on_c, 0, 62, 49
4, 1200, Note_on_c, 0, 67, 49
4, 1247, Note_on_c, 0, 67, 0
4, 1247, Note_on_c, 0, 62, 0
4, 1440, Note_on_c, 0, 64, 75
4, 1440, Note_on_c, 0, 67, 75
4, 1487, Note_on_c, 0, 67, 0
4, 1487, Note_on_c, 0, 64, 0
4, 1920, Note_on_c, 0, 50, 75
4, 1920, Note_on_c, 0, 55, 75
4, 1920, Note_on_c, 0, 59, 75
4, 1967, Note_on_c, 0, 59, 0
4, 1967, Note_on_c, 0, 55, 0
4, 1967, Note_on_c, 0, 50, 0
4, 2880, Note_on_c, 0, 52, 49
4, 2880, Note_on_c, 0, 55, 49
4, 2927, Note_on_c, 0, 55, 0
4, 2927, Note_on_c, 0, 52, 0
4, 3120, Note_on_c, 0, 54, 49
4, 3120, Note_on_c, 0, 57, 49
4, 3167, Note_on_c, 0, 57, 0
4, 3167, Note_on_c, 0, 54, 0
4, 3360, Note_on_c, 0, 55, 49
4, 3407, Note_on_c, 0, 55, 0
4, 3600, Note_on_c, 0, 50, 49
4, 3600, Note_on_c, 0, 55, 49
4, 3600, Note_on_c, 0, 59, 49
4, 3647, Note_on_c, 0, 59, 0
4, 3647, Note_on_c, 0, 55, 0
4, 3647, Note_on_c, 0, 50, 0
4, 3840, Note_on_c, 0, 60, 75
4, 4320, Note_on_c, 0, 60, 0
4, 4320, Note_on_c, 0, 59, 75
4, 4800, Note_on_c, 0, 59, 0
4, 4800, Note_on_c, 0, 57, 75
4, 5280, Note_on_c, 0, 57, 0
4, 5280, Note_on_c, 0, 60, 75
4, 5760, Note_on_c, 0, 60, 0
4, 5760, Note_on_c, 0, 62, 75
4, 6240, Note_on_c, 0, 62, 0
4, 6240, Note_on_c, 0, 59, 88
4, 6720, Note_on_c, 0, 59, 0
4, 6720, Note_on_c, 0, 60, 62
4, 6767, Note_on_c, 0, 60, 0
4, 6960, Note_on_c, 0, 50, 62
4, 6960, Note_on_c, 0, 55, 62
4, 6960, Note_on_c, 0, 59, 62
4, 7007, Note_on_c, 0, 59, 0
4, 7007, Note_on_c, 0, 55, 0
4, 7007, Note_on_c, 0, 50, 0
4, 7200, Note_on_c, 0, 50, 62
4, 7200, Note_on_c, 0, 55, 62
4, 7200, Note_on_c, 0, 60, 62
4, 7247, Note_on_c, 0, 60, 0
4, 7247, Note_on_c, 0, 55, 0
4, 7247, Note_on_c, 0, 50, 0
4, 7680, Note_on_c, 0, 50, 75
4, 7680, Note_on_c, 0, 55, 75
4, 7680, Note_on_c, 0, 59, 75
4, 7680, Note_on_c, 0, 62, 75
4, 7727, Note_on_c, 0, 62, 0
4, 7727, Note_on_c, 0, 50, 0
4, 7727, Note_on_c, 0, 55, 0
4, 7727, Note_on_c, 0, 59, 0
4, 8640, Note_on_c, 0, 60, 49
4, 8640, Note_on_c, 0, 67, 49
4, 8687, Note_on_c, 0, 67, 0
4, 8687, Note_on_c, 0, 60, 0
4, 8880, Note_on_c, 0, 62, 49
4, 8880, Note_on_c, 0, 67, 49
4, 8927, Note_on_c, 0, 67, 0
4, 8927, Note_on_c, 0, 62, 0
4, 9120, Note_on_c, 0, 64, 75
4, 9120, Note_on_c, 0, 67, 75
4, 9167, Note_on_c, 0, 67, 0
4, 9167, Note_on_c, 0, 64, 0
4, 9600, Note_on_c, 0, 50, 75
4, 9600, Note_on_c, 0, 55, 75
4, 9600, Note_on_c, 0, 59, 75
4, 9647, Note_on_c, 0, 59, 0
4, 9647, Note_on_c, 0, 55, 0
4, 9647, Note_on_c, 0, 50, 0
4, 10560, Note_on_c, 0, 52, 49
4, 10560, Note_on_c, 0, 55, 49
4, 10607, Note_on_c, 0, 55, 0
4, 10607, Note_on_c, 0, 52, 0
4, 10800, Note_on_c, 0, 54, 49
4, 10800, Note_on_c, 0, 57, 49
4, 10847, Note_on_c, 0, 57, 0
4, 10847, Note_on_c, 0, 54, 0
4, 11040, Note_on_c, 0, 55, 75
4, 11087, Note_on_c, 0, 55, 0
4, 11280, Note_on_c, 0, 50, 49
4, 11280, Note_on_c, 0, 55, 49
4, 11280, Note_on_c, 0, 59, 49
4, 11327, Note_on_c, 0, 59, 0
4, 11327, Note_on_c, 0, 55, 0
4, 11327, Note_on_c, 0, 50, 0
4, 11520, Note_on_c, 0, 60, 75
4, 12000, Note_on_c, 0, 60, 0
4, 12000, Note_on_c, 0, 59, 75
4, 12480, Note_on_c, 0, 59, 0
4, 12480, Note_on_c, 0, 57, 75
4, 12960, Note_on_c, 0, 57, 0
4, 12960, Note_on_c, 0, 60, 75
4, 13440, Note_on_c, 0, 60, 0
4, 13440, Note_on_c, 0, 62, 75
4, 13920, Note_on_c, 0, 62, 0
4, 13920, Note_on_c, 0, 59, 88
4, 14400, Note_on_c, 0, 59, 0
4, 14400, Note_on_c, 0, 50, 62
4, 14400, Note_on_c, 0, 59, 62
4, 14447, Note_on_c, 0, 59, 0
4, 14447, Note_on_c, 0, 50, 0
4, 14640, Note_on_c, 0, 48, 62
4, 14640, Note_on_c, 0, 55, 62
4, 14640, Note_on_c, 0, 57, 62
4, 14687, Note_on_c, 0, 57, 0
4, 14687, Note_on_c, 0, 55, 0
4, 14687, Note_on_c, 0, 48, 0
4, 14880, Note_on_c, 0, 50, 62
4, 14880, Note_on_c, 0, 55, 62
4, 14880, Note_on_c, 0, 59, 62
4, 14927, Note_on_c, 0, 59, 0
4, 14927, Note_on_c, 0, 55, 0
4, 14927, Note_on_c, 0, 50, 0
4, 15120, Note_on_c, 0, 62, 88
4, 15200, Note_on_c, 0, 62, 0
4, 15200, Note_on_c, 0, 64, 88
4, 15279, Note_on_c, 0, 64, 0
4, 15279, Note_on_c, 0, 66, 88
4, 15360, Note_on_c, 0, 66, 0
4, 15360, Note_on_c, 0, 59, 88
4, 15360, Note_on_c, 0, 62, 88
4, 15360, Note_on_c, 0, 67, 88
4, 15407, Note_on_c, 0, 67, 0
4, 15407, Note_on_c, 0, 62, 0
4, 15407, Note_on_c, 0, 59, 0
4, 16320, Note_on_c, 0, 57, 62
4, 16320, Note_on_c, 0, 60, 62
4, 16367, Note_on_c, 0, 60, 0
4, 16367, Note_on_c, 0, 57, 0
4, 16560, Note_on_c, 0, 59, 62
4, 16560, Note_on_c, 0, 62, 62
4, 16607, Note_on_c, 0, 62, 0
4, 16607, Note_on_c, 0, 59, 0
4, 16800, Note_on_c, 0, 60, 62
4, 16800, Note_on_c, 0, 64, 62
4, 16847, Note_on_c, 0, 64, 0
4, 16847, Note_on_c, 0, 60, 0
4, 17280, Note_on_c, 0, 55, 88
4, 17280, Note_on_c, 0, 59, 88
4, 17280, Note_on_c, 0, 62, 88
4, 17327, Note_on_c, 0, 62, 0
4, 17327, Note_on_c, 0, 59, 0
4, 17327, Note_on_c, 0, 55, 0
4, 18240, Note_on_c, 0, 61, 62
4, 18240, Note_on_c, 0, 67, 62
4, 18240, Note_on_c, 0, 71, 62
4, 18287, Note_on_c, 0, 71, 0
4, 18287, Note_on_c, 0, 67, 0
4, 18287, Note_on_c, 0, 61, 0
4, 18480, Note_on_c, 0, 60, 62
4, 18480, Note_on_c, 0, 62, 62
4, 18480, Note_on_c, 0, 69, 62
4, 18527, Note_on_c, 0, 69, 0
4, 18527, Note_on_c, 0, 62, 0
4, 18527, Note_on_c, 0, 60, 0
4, 18720, Note_on_c, 0, 59, 88
4, 18720, Note_on_c, 0, 62, 88
4, 18720, Note_on_c, 0, 67, 88
4, 18767, Note_on_c, 0, 67, 0
4, 18767, Note_on_c, 0, 62, 0
4, 18767, Note_on_c, 0, 59, 0
4, 18960, Note_on_c, 0, 50, 62
4, 18960, Note_on_c, 0, 55, 62
4, 18960, Note_on_c, 0, 59, 62
4, 19007, Note_on_c, 0, 59, 0
4, 19007, Note_on_c, 0, 55, 0
4, 19007, Note_on_c, 0, 50, 0
4, 19200, Note_on_c, 0, 60, 101
4, 19680, Note_on_c, 0, 60, 0
4, 19680, Note_on_c, 0, 59, 101
4, 20160, Note_on_c, 0, 59, 0
4, 20160, Note_on_c, 0, 57, 101
4, 20640, Note_on_c, 0, 57, 0
4, 20640, Note_on_c, 0, 60, 101
4, 21120, Note_on_c, 0, 60, 0
4, 21120, Note_on_c, 0, 62, 101
4, 21600, Note_on_c, 0, 62, 0
4, 21600, Note_on_c, 0, 59, 88
4, 22080, Note_on_c, 0, 59, 0
4, 22080, Note_on_c, 0, 60, 62
4, 22127, Note_on_c, 0, 60, 0
4, 22320, Note_on_c, 0, 50, 75
4, 22320, Note_on_c, 0, 59, 75
4, 22367, Note_on_c, 0, 59, 0
4, 22367, Note_on_c, 0, 50, 0
4, 22560, Note_on_c, 0, 50, 75
4, 22560, Note_on_c, 0, 60, 75
4, 22583, Note_on_c, 0, 60, 0
4, 22583, Note_on_c, 0, 50, 0
4, 22680, Note_on_c, 0, 62, 88
4, 22800, Note_on_c, 0, 62, 0
4, 22800, Note_on_c, 0, 64, 88
4, 22920, Note_on_c, 0, 64, 0
4, 22920, Note_on_c, 0, 66, 88
4, 23040, Note_on_c, 0, 66, 0
4, 23040, Note_on_c, 0, 59, 88
4, 23040, Note_on_c, 0, 62, 88
4, 23040, Note_on_c, 0, 67, 88
4, 23087, Note_on_c, 0, 67, 0
4, 23087, Note_on_c, 0, 62, 0
4, 23087, Note_on_c, 0, 59, 0
4, 24000, Note_on_c, 0, 60, 62
4, 24000, Note_on_c, 0, 67, 62
4, 24047, Note_on_c, 0, 67, 0
4, 24047, Note_on_c, 0, 60, 0
4, 24240, Note_on_c, 0, 62, 62
4, 24240, Note_on_c, 0, 67, 62
4, 24287, Note_on_c, 0, 67, 0
4, 24287, Note_on_c, 0, 62, 0
4, 24480, Note_on_c, 0, 64, 88
4, 24480, Note_on_c, 0, 67, 88
4, 24527, Note_on_c, 0, 67, 0
4, 24527, Note_on_c, 0, 64, 0
4, 24960, Note_on_c, 0, 50, 88
4, 24960, Note_on_c, 0, 55, 88
4, 24960, Note_on_c, 0, 59, 88
4, 24960, Note_on_c, 0, 62, 88
4, 25007, Note_on_c, 0, 62, 0
4, 25007, Note_on_c, 0, 50, 0
4, 25007, Note_on_c, 0, 55, 0
4, 25007, Note_on_c, 0, 59, 0
4, 25920, Note_on_c, 0, 61, 62
4, 25920, Note_on_c, 0, 67, 62
4, 25920, Note_on_c, 0, 71, 62
4, 25967, Note_on_c, 0, 71, 0
4, 25967, Note_on_c, 0, 67, 0
4, 25967, Note_on_c, 0, 61, 0
4, 26160, Note_on_c, 0, 60, 62
4, 26160, Note_on_c, 0, 62, 62
4, 26160, Note_on_c, 0, 69, 62
4, 26207, Note_on_c, 0, 69, 0
4, 26207, Note_on_c, 0, 62, 0
4, 26207, Note_on_c, 0, 60, 0
4, 26400, Note_on_c, 0, 59, 88
4, 26400, Note_on_c, 0, 62, 88
4, 26400, Note_on_c, 0, 67, 88
4, 26447, Note_on_c, 0, 67, 0
4, 26447, Note_on_c, 0, 62, 0
4, 26447, Note_on_c, 0, 59, 0
4, 26640, Note_on_c, 0, 50, 62
4, 26640, Note_on_c, 0, 55, 62
4, 26640, Note_on_c, 0, 59, 62
4, 26687, Note_on_c, 0, 59, 0
4, 26687, Note_on_c, 0, 55, 0
4, 26687, Note_on_c, 0, 50, 0
4, 26880, Note_on_c, 0, 60, 101
4, 27360, Note_on_c, 0, 60, 0
4, 27360, Note_on_c, 0, 59, 101
4, 27840, Note_on_c, 0, 59, 0
4, 27840, Note_on_c, 0, 57, 101
4, 28320, Note_on_c, 0, 57, 0
4, 28320, Note_on_c, 0, 60, 101
4, 28800, Note_on_c, 0, 60, 0
4, 28800, Note_on_c, 0, 62, 101
4, 29280, Note_on_c, 0, 62, 0
4, 29280, Note_on_c, 0, 60, 114
4, 29760, Note_on_c, 0, 60, 0
4, 29760, Note_on_c, 0, 59, 88
4, 29807, Note_on_c, 0, 59, 0
4, 30000, Note_on_c, 0, 48, 88
4, 30000, Note_on_c, 0, 55, 88
4, 30000, Note_on_c, 0, 57, 88
4, 30047, Note_on_c, 0, 57, 0
4, 30047, Note_on_c, 0, 55, 0
4, 30047, Note_on_c, 0, 48, 0
4, 30240, Note_on_c, 0, 50, 88
4, 30240, Note_on_c, 0, 55, 88
4, 30240, Note_on_c, 0, 59, 88
4, 30287, Note_on_c, 0, 59, 0
4, 30287, Note_on_c, 0, 55, 0
4, 30287, Note_on_c, 0, 50, 0
4, 30720, Note_on_c, 0, 62, 88
4, 30767, Note_on_c, 0, 62, 0
4, 30960, Note_on_c, 0, 62, 88
4, 31080, Note_on_c, 0, 62, 0
4, 31080, Note_on_c, 0, 61, 88
4, 31200, Note_on_c, 0, 61, 0
4, 31200, Note_on_c, 0, 62, 88
4, 31440, Note_on_c, 0, 62, 0
4, 31440, Note_on_c, 0, 60, 88
4, 31487, Note_on_c, 0, 60, 0
4, 31680, Note_on_c, 0, 59, 88
4, 31680, Note_on_c, 0, 64, 88
4, 31727, Note_on_c, 0, 64, 0
4, 31727, Note_on_c, 0, 59, 0
4, 31920, Note_on_c, 0, 64, 88
4, 32040, Note_on_c, 0, 64, 0
4, 32040, Note_on_c, 0, 63, 88
4, 32160, Note_on_c, 0, 63, 0
4, 32160, Note_on_c, 0, 64, 88
4, 32400, Note_on_c, 0, 64, 0
4, 32400, Note_on_c, 0, 62, 88
4, 32447, Note_on_c, 0, 62, 0
4, 32640, Note_on_c, 0, 61, 88
4, 33120, Note_on_c, 0, 61, 0
4, 33120, Note_on_c, 0, 64, 88
4, 33600, Note_on_c, 0, 64, 0
4, 33600, Note_on_c, 0, 66, 88
4, 33840, Note_on_c, 0, 66, 0
4, 33840, Control_c, 0, 64, 127
4, 33840, Note_on_c, 0, 66, 88
4, 33960, Note_on_c, 0, 66, 0
4, 33960, Note_on_c, 0, 65, 88
4, 34080, Note_on_c, 0, 65, 0
4, 34080, Note_on_c, 0, 66, 101
4, 34200, Note_on_c, 0, 66, 0
4, 34200, Note_on_c, 0, 64, 101
4, 34320, Note_on_c, 0, 64, 0
4, 34320, Note_on_c, 0, 62, 101
4, 34440, Note_on_c, 0, 62, 0
4, 34440, Control_c, 0, 64, 0
4, 34440, Note_on_c, 0, 61, 101
4, 34560, Note_on_c, 0, 61, 0
4, 34560, Note_on_c, 0, 59, 101
4, 34560, Note_on_c, 0, 62, 101
4, 34560, Note_on_c, 0, 67, 101
4, 34607, Note_on_c, 0, 67, 0
4, 34607, Note_on_c, 0, 62, 0
4, 34607, Note_on_c, 0, 59, 0
4, 34800, Note_on_c, 0, 52, 88
4, 34920, Note_on_c, 0, 52, 0
4, 34920, Note_on_c, 0, 50, 88
4, 35040, Note_on_c, 0, 50, 0
4, 35040, Note_on_c, 0, 54, 88
4, 35087, Note_on_c, 0, 54, 0
4, 35280, Note_on_c, 0, 54, 88
4, 35400, Note_on_c, 0, 54, 0
4, 35400, Note_on_c, 0, 52, 88
4, 35520, Note_on_c, 0, 52, 0
4, 35520, Note_on_c, 0, 55, 88
4, 35567, Note_on_c, 0, 55, 0
4, 35760, Note_on_c, 0, 55, 88
4, 35880, Note_on_c, 0, 55, 0
4, 35880, Note_on_c, 0, 54, 88
4, 36000, Note_on_c, 0, 54, 0
4, 36000, Note_on_c, 0, 56, 88
4, 36047, Note_on_c, 0, 56, 0
4, 36240, Note_on_c, 0, 56, 88
4, 36360, Note_on_c, 0, 56, 0
4, 36360, Note_on_c, 0, 52, 88
4, 36480, Note_on_c, 0, 52, 0
4, 36480, Note_on_c, 0, 57, 88
4, 36503, Note_on_c, 0, 57, 0
4, 36600, Note_on_c, 0, 59, 88
4, 36623, Note_on_c, 0, 59, 0
4, 36720, Note_on_c, 0, 61, 88
4, 36743, Note_on_c, 0, 61, 0
4, 36840, Note_on_c, 0, 62, 88
4, 36863, Note_on_c, 0, 62, 0
4, 36960, Note_on_c, 0, 64, 101
4, 36983, Note_on_c, 0, 64, 0
4, 37080, Note_on_c, 0, 63, 101
4, 37103, Note_on_c, 0, 63, 0
4, 37200, Note_on_c, 0, 64, 101
4, 37223, Note_on_c, 0, 64, 0
4, 37320, Note_on_c, 0, 65, 101
4, 37343, Note_on_c, 0, 65, 0
4, 37440, Note_on_c, 0, 66, 101
4, 37487, Note_on_c, 0, 66, 0
4, 37680, Note_on_c, 0, 66, 101
4, 37800, Note_on_c, 0, 66, 0
4, 37800, Note_on_c, 0, 62, 101
4, 37920, Note_on_c, 0, 62, 0
4, 37920, Note_on_c, 0, 57, 127
4, 38400, Note_on_c, 0, 57, 0
4, 38400, Note_on_c, 0, 62, 88
4, 38447, Note_on_c, 0, 62, 0
4, 38640, Note_on_c, 0, 62, 88
4, 38760, Note_on_c, 0, 62, 0
4, 38760, Note_on_c, 0, 61, 88
4, 38880, Note_on_c, 0, 61, 0
4, 38880, Note_on_c, 0, 62, 88
4, 39120, Note_on_c, 0, 62, 0
4, 39120, Note_on_c, 0, 60, 88
4, 39167, Note_on_c, 0, 60, 0
4, 39360, Note_on_c, 0, 59, 88
4, 39360, Note_on_c, 0, 64, 88
4, 39407, Note_on_c, 0, 64, 0
4, 39407, Note_on_c, 0, 59, 0
4, 39600, Note_on_c, 0, 64, 88
4, 39720, Note_on_c, 0, 64, 0
4, 39720, Note_on_c, 0, 63, 88
4, 39840, Note_on_c, 0, 63, 0
4, 39840, Note_on_c, 0, 64, 88
4, 40080, Note_on_c, 0, 64, 0
4, 40080, Note_on_c, 0, 62, 88
4, 40127, Note_on_c, 0, 62, 0
4, 40320, Note_on_c, 0, 61, 101
4, 40800, Note_on_c, 0, 61, 0
4, 40800, Note_on_c, 0, 64, 101
4, 41280, Note_on_c, 0, 64, 0
4, 41280, Note_on_c, 0, 66, 101
4, 41327, Note_on_c, 0, 66, 0
4, 41520, Control_c, 0, 64, 127
4, 41520, Note_on_c, 0, 66, 101
4, 41640, Note_on_c, 0, 66, 0
4, 41640, Note_on_c, 0, 65, 101
4, 41760, Note_on_c, 0, 65, 0
4, 41760, Note_on_c, 0, 66, 101
4, 41880, Note_on_c, 0, 66, 0
4, 41880, Note_on_c, 0, 64, 101
4, 42000, Note_on_c, 0, 64, 0
4, 42000, Note_on_c, 0, 62, 101
4, 42120, Note_on_c, 0, 62, 0
4, 42120, Control_c, 0, 64, 0
4, 42120, Note_on_c, 0, 61, 101
4, 42240, Note_on_c, 0, 61, 0
4, 42240, Note_on_c, 0, 62, 127
4, 42480, Note_on_c, 0, 62, 0
4, 42480, Note_on_c, 0, 52, 101
4, 42600, Note_on_c, 0, 52, 0
4, 42600, Note_on_c, 0, 50, 101
4, 42720, Note_on_c, 0, 50, 0
4, 42720, Note_on_c, 0, 54, 101
4, 42720, Note_on_c, 0, 61, 101
4, 42960, Note_on_c, 0, 61, 0
4, 42960, Note_on_c, 0, 54, 0
4, 42960, Note_on_c, 0, 54, 101
4, 43080, Note_on_c, 0, 54, 0
4, 43080, Note_on_c, 0, 52, 101
4, 43200, Note_on_c, 0, 52, 0
4, 43200, Note_on_c, 0, 59, 101
4, 43680, Note_on_c, 0, 59, 0
4, 44160, Note_on_c, 0, 57, 88
4, 44207, Note_on_c, 0, 57, 0
4, 44400, Note_on_c, 0, 57, 88
4, 44520, Note_on_c, 0, 57, 0
4, 44520, Note_on_c, 0, 55, 88
4, 44640, Note_on_c, 0, 55, 0
4, 44640, Note_on_c, 0, 59, 88
4, 44687, Note_on_c, 0, 59, 0
4, 44880, Note_on_c, 0, 59, 88
4, 45000, Note_on_c, 0, 59, 0
4, 45000, Note_on_c, 0, 57, 88
4, 45120, Note_on_c, 0, 57, 0
4, 45120, Note_on_c, 0, 61, 88
4, 45167, Note_on_c, 0, 61, 0
4, 45360, Note_on_c, 0, 61, 101
4, 45480, Note_on_c, 0, 61, 0
4, 45480, Note_on_c, 0, 59, 101
4, 45600, Note_on_c, 0, 59, 0
4, 45600, Note_on_c, 0, 62, 101
4, 45647, Note_on_c, 0, 62, 0
4, 45840, Note_on_c, 0, 50, 101
4, 45840, Note_on_c, 0, 54, 101
4, 45840, Note_on_c, 0, 57, 101
4, 45887, Note_on_c, 0, 57, 0
4, 45887, Note_on_c, 0, 54, 0
4, 45887, Note_on_c, 0, 50, 0
4, 46080, Note_on_c, 0, 55, 101
4, 46080, Note_on_c, 0, 60, 101
4, 46320, Note_on_c, 0, 60, 0
4, 46320, Note_on_c, 0, 55, 0
4, 46320, Note_on_c, 0, 55, 101
4, 46320, Note_on_c, 0, 60, 101
4, 46800, Note_on_c, 0, 60, 0
4, 46800, Note_on_c, 0, 55, 0
4, 46800, Note_on_c, 0, 61, 88
4, 46920, Note_on_c, 0, 61, 0
4, 46920, Note_on_c, 0, 60, 88
4, 47040, Note_on_c, 0, 60, 0
4, 47040, Note_on_c, 0, 61, 88
4, 47280, Note_on_c, 0, 61, 0
4, 47280, Note_on_c, 0, 30, 127
4, 47280, Note_on_c, 0, 42, 127
4, 47280, Note_on_c, 0, 57, 127
4, 47760, Note_on_c, 0, 57, 0
4, 47760, Note_on_c, 0, 42, 0
4, 47760, Note_on_c, 0, 30, 0
4, 47760, Note_on_c, 0, 50, 101
4, 47760, Note_on_c, 0, 54, 101
4, 47760, Note_on_c, 0, 57, 101
4, 47807, Note_on_c, 0, 57, 0
4, 47807, Note_on_c, 0, 54, 0
4, 47807, Note_on_c, 0, 50, 0
4, 48000, Note_on_c, 0, 55, 101
4, 48000, Note_on_c, 0, 60, 101
4, 48240, Note_on_c, 0, 60, 0
4, 48240, Note_on_c, 0, 55, 0
4, 48240, Note_on_c, 0, 55, 101
4, 48240, Note_on_c, 0, 60, 101
4, 48720, Note_on_c, 0, 60, 0
4, 48720, Note_on_c, 0, 55, 0
4, 48720, Note_on_c, 0, 61, 88
4, 48840, Note_on_c, 0, 61, 0
4, 48840, Note_on_c, 0, 60, 88
4, 48960, Note_on_c, 0, 60, 0
4, 48960, Note_on_c, 0, 61, 88
4, 49200, Note_on_c, 0, 61, 0
4, 49200, Note_on_c, 0, 30, 114
4, 49200, Note_on_c, 0, 42, 114
4, 49200, Note_on_c, 0, 57, 114
4, 49680, Note_on_c, 0, 57, 0
4, 49680, Note_on_c, 0, 42, 0
4, 49680, Note_on_c, 0, 30, 0
4, 49680, Note_on_c, 0, 50, 101
4, 49680, Note_on_c, 0, 54, 101
4, 49680, Note_on_c, 0, 57, 101
4, 49727, Note_on_c, 0, 57, 0
4, 49727, Note_on_c, 0, 54, 0
4, 49727, Note_on_c, 0, 50, 0
4, 49920, Note_on_c, 0, 51, 101
4, 49920, Note_on_c, 0, 55, 101
4, 49920, Note_on_c, 0, 60, 101
4, 49967, Note_on_c, 0, 60, 0
4, 49967, Note_on_c, 0, 55, 0
4, 49967, Note_on_c, 0, 51, 0
4, 50160, Note_on_c, 0, 55, 127
4, 50160, Note_on_c, 0, 57, 127
4, 50160, Note_on_c, 0, 60, 127
4, 50640, Note_on_c, 0, 60, 0
4, 50640, Note_on_c, 0, 57, 0
4, 50640, Note_on_c, 0, 55, 0
4, 50640, Note_on_c, 0, 54, 101
4, 50640, Note_on_c, 0, 57, 101
4, 50687, Note_on_c, 0, 57, 0
4, 50687, Note_on_c, 0, 54, 0
4, 50880, Note_on_c, 0, 51, 101
4, 50880, Note_on_c, 0, 55, 101
4, 50880, Note_on_c, 0, 60, 101
4, 50927, Note_on_c, 0, 60, 0
4, 50927, Note_on_c, 0, 55, 0
4, 50927, Note_on_c, 0, 51, 0
4, 51120, Note_on_c, 0, 55, 127
4, 51120, Note_on_c, 0, 57, 127
4, 51120, Note_on_c, 0, 60, 127
4, 51600, Note_on_c, 0, 60, 0
4, 51600, Note_on_c, 0, 57, 0
4, 51600, Note_on_c, 0, 55, 0
4, 51600, Note_on_c, 0, 54, 88
4, 51600, Note_on_c, 0, 57, 88
4, 51600, Note_on_c, 0, 62, 88
4, 51647, Note_on_c, 0, 62, 0
4, 51647, Note_on_c, 0, 57, 0
4, 51647, Note_on_c, 0, 54, 0
4, 51840, Note_on_c, 0, 55, 88
4, 51840, Note_on_c, 0, 60, 88
4, 51887, Note_on_c, 0, 60, 0
4, 51887, Note_on_c, 0, 55, 0
4, 52080, Note_on_c, 0, 57, 88
4, 52080, Note_on_c, 0, 62, 88
4, 52127, Note_on_c, 0, 62, 0
4, 52127, Note_on_c, 0, 57, 0
4, 52320, Note_on_c, 0, 55, 88
4, 52320, Note_on_c, 0, 60, 88
4, 52367, Note_on_c, 0, 60, 0
4, 52367, Note_on_c, 0, 55, 0
4, 52560, Note_on_c, 0, 57, 88
4, 52560, Note_on_c, 0, 62, 88
4, 52607, Note_on_c, 0, 62, 0
4, 52607, Note_on_c, 0, 57, 0
4, 52800, Note_on_c, 0, 55, 88
4, 52800, Note_on_c, 0, 60, 88
4, 52847, Note_on_c, 0, 60, 0
4, 52847, Note_on_c, 0, 55, 0
4, 53040, Note_on_c, 0, 57, 88
4, 53040, Note_on_c, 0, 62, 88
4, 53087, Note_on_c, 0, 62, 0
4, 53087, Note_on_c, 0, 57, 0
4, 53280, Note_on_c, 0, 62, 88
4, 53280, Note_on_c, 0, 66, 88
4, 53327, Note_on_c, 0, 66, 0
4, 53327, Note_on_c, 0, 62, 0
4, 53520, Note_on_c, 0, 62, 88
4, 53600, Note_on_c, 0, 62, 0
4, 53600, Note_on_c, 0, 64, 88
4, 53679, Note_on_c, 0, 64, 0
4, 53679, Note_on_c, 0, 66, 88
4, 53760, Note_on_c, 0, 66, 0
4, 53760, Note_on_c, 0, 59, 88
4, 53760, Note_on_c, 0, 62, 88
4, 53760, Note_on_c, 0, 67, 88
4, 53807, Note_on_c, 0, 67, 0
4, 53807, Note_on_c, 0, 62, 0
4, 53807, Note_on_c, 0, 59, 0
4, 54000, Note_on_c, 0, 67, 88
4, 54120, Note_on_c, 0, 67, 0
4, 54120, Note_on_c, 0, 66, 88
4, 54240, Note_on_c, 0, 66, 0
4, 54240, Note_on_c, 0, 67, 88
4, 54287, Note_on_c, 0, 67, 0
4, 54480, Note_on_c, 0, 67, 88
4, 54527, Note_on_c, 0, 67, 0
4, 54720, Note_on_c, 0, 60, 62
4, 54720, Note_on_c, 0, 64, 62
4, 54720, Note_on_c, 0, 67, 62
4, 54767, Note_on_c, 0, 67, 0
4, 54767, Note_on_c, 0, 64, 0
4, 54767, Note_on_c, 0, 60, 0
4, 54960, Note_on_c, 0, 62, 62
4, 54960, Note_on_c, 0, 67, 62
4, 55007, Note_on_c, 0, 67, 0
4, 55007, Note_on_c, 0, 62, 0
4, 55200, Note_on_c, 0, 64, 88
4, 55200, Note_on_c, 0, 67, 88
4, 55680, Note_on_c, 0, 67, 0
4, 55680, Note_on_c, 0, 64, 0
4, 55680, Note_on_c, 0, 55, 88
4, 55680, Note_on_c, 0, 59, 88
4, 55680, Note_on_c, 0, 62, 88
4, 55680, Note_on_c, 0, 67, 88
4, 55727, Note_on_c, 0, 67, 0
4, 55727, Note_on_c, 0, 55, 0
4, 55727, Note_on_c, 0, 59, 0
4, 55727, Note_on_c, 0, 62, 0
4, 55920, Note_on_c, 0, 62, 88
4, 56040, Note_on_c, 0, 62, 0
4, 56040, Note_on_c, 0, 61, 88
4, 56160, Note_on_c, 0, 61, 0
4, 56160, Note_on_c, 0, 62, 88
4, 56207, Note_on_c, 0, 62, 0
4, 56400, Note_on_c, 0, 62, 88
4, 56447, Note_on_c, 0, 62, 0
4, 56640, Note_on_c, 0, 61, 62
4, 56640, Note_on_c, 0, 62, 62
4, 56687, Note_on_c, 0, 62, 0
4, 56687, Note_on_c, 0, 61, 0
4, 56880, Note_on_c, 0, 60, 62
4, 56880, Note_on_c, 0, 62, 62
4, 56927, Note_on_c, 0, 62, 0
4, 56927, Note_on_c, 0, 60, 0
4, 57120, Note_on_c, 0, 59, 88
4, 57120, Note_on_c, 0, 62, 88
4, 57167, Note_on_c, 0, 62, 0
4, 57167, Note_on_c, 0, 59, 0
4, 57360, Note_on_c, 0, 50, 62
4, 57360, Note_on_c, 0, 55, 62
4, 57360, Note_on_c, 0, 59, 62
4, 57360, Note_on_c, 0, 62, 62
4, 57407, Note_on_c, 0, 62, 0
4, 57407, Note_on_c, 0, 50, 0
4, 57407, Note_on_c, 0, 55, 0
4, 57407, Note_on_c, 0, 59, 0
4, 57600, Note_on_c, 0, 60, 114
4, 58080, Note_on_c, 0, 60, 0
4, 58080, Note_on_c, 0, 59, 114
4, 58560, Note_on_c, 0, 59, 0
4, 58560, Note_on_c, 0, 57, 114
4, 59040, Note_on_c, 0, 57, 0
4, 59040, Note_on_c, 0, 60, 114
4, 59520, Note_on_c, 0, 60, 0
4, 59520, Note_on_c, 0, 62, 114
4, 60000, Note_on_c, 0, 62, 0
4, 60000, Note_on_c, 0, 59, 114
4, 60480, Note_on_c, 0, 59, 0
4, 60480, Note_on_c, 0, 60, 88
4, 60527, Note_on_c, 0, 60, 0
4, 60720, Note_on_c, 0, 50, 88
4, 60720, Note_on_c, 0, 55, 88
4, 60720, Note_on_c, 0, 59, 88
4, 60767, Note_on_c, 0, 59, 0
4, 60767, Note_on_c, 0, 55, 0
4, 60767, Note_on_c, 0, 50, 0
4, 60960, Note_on_c, 0, 50, 88
4, 60960, Note_on_c, 0, 55, 88
4, 60960, Note_on_c, 0, 60, 88
4, 61007, Note_on_c, 0, 60, 0
4, 61007, Note_on_c, 0, 55, 0
4, 61007, Note_on_c, 0, 50, 0
4, 61200, Note_on_c, 0, 62, 88
4, 61280, Note_on_c, 0, 62, 0
4, 61280, Note_on_c, 0, 64, 88
4, 61359, Note_on_c, 0, 64, 0
4, 61359, Note_on_c, 0, 66, 88
4, 61440, Note_on_c, 0, 66, 0
4, 61440, Note_on_c, 0, 59, 88
4, 61440, Note_on_c, 0, 62, 88
4, 61440, Note_on_c, 0, 67, 88
4, 61487, Note_on_c, 0, 67, 0
4, 61487, Note_on_c, 0, 62, 0
4, 61487, Note_on_c, 0, 59, 0
4, 61680, Note_on_c, 0, 67, 75
4, 61800, Note_on_c, 0, 67, 0
4, 61800, Note_on_c, 0, 66, 75
4, 61920, Note_on_c, 0, 66, 0
4, 61920, Note_on_c, 0, 67, 75
4, 61967, Note_on_c, 0, 67, 0
4, 62160, Note_on_c, 0, 67, 75
4, 62207, Note_on_c, 0, 67, 0
4, 62400, Note_on_c, 0, 60, 75
4, 62400, Note_on_c, 0, 67, 75
4, 62447, Note_on_c, 0, 67, 0
4, 62447, Note_on_c, 0, 60, 0
4, 62640, Note_on_c, 0, 62, 75
4, 62640, Note_on_c, 0, 67, 75
4, 62687, Note_on_c, 0, 67, 0
4, 62687, Note_on_c, 0, 62, 0
4, 62880, Note_on_c, 0, 64, 101
4, 62880, Note_on_c, 0, 67, 101
4, 63360, Note_on_c, 0, 67, 0
4, 63360, Note_on_c, 0, 64, 0
4, 63360, Note_on_c, 0, 55, 88
4, 63360, Note_on_c, 0, 59, 88
4, 63360, Note_on_c, 0, 62, 88
4, 63360, Note_on_c, 0, 67, 88
4, 63407, Note_on_c, 0, 67, 0
4, 63407, Note_on_c, 0, 55, 0
4, 63407, Note_on_c, 0, 59, 0
4, 63407, Note_on_c, 0, 62, 0
4, 63600, Note_on_c, 0, 62, 88
4, 63720, Note_on_c, 0, 62, 0
4, 63720, Note_on_c, 0, 61, 88
4, 63840, Note_on_c, 0, 61, 0
4, 63840, Note_on_c, 0, 62, 88
4, 63887, Note_on_c, 0, 62, 0
4, 64080, Note_on_c, 0, 62, 88
4, 64127, Note_on_c, 0, 62, 0
4, 64320, Note_on_c, 0, 55, 88
4, 64320, Note_on_c, 0, 62, 88
4, 64367, Note_on_c, 0, 62, 0
4, 64367, Note_on_c, 0, 55, 0
4, 64560, Note_on_c, 0, 57, 88
4, 64560, Note_on_c, 0, 62, 88
4, 64607, Note_on_c, 0, 62, 0
4, 64607, Note_on_c, 0, 57, 0
4, 64800, Note_on_c, 0, 59, 114
4, 64800, Note_on_c, 0, 62, 114
4, 64847, Note_on_c, 0, 62, 0
4, 64847, Note_on_c, 0, 59, 0
4, 65040, Note_on_c, 0, 50, 88
4, 65040, Note_on_c, 0, 55, 88
4, 65040, Note_on_c, 0, 59, 88
4, 65040, Note_on_c, 0, 62, 88
4, 65087, Note_on_c, 0, 62, 0
4, 65087, Note_on_c, 0, 50, 0
4, 65087, Note_on_c, 0, 55, 0
4, 65087, Note_on_c, 0, 59, 0
4, 65280, Note_on_c, 0, 60, 114
4, 65760, Note_on_c, 0, 60, 0
4, 65760, Note_on_c, 0, 59, 114
4, 66240, Note_on_c, 0, 59, 0
4, 66240, Note_on_c, 0, 57, 114
4, 66720, Note_on_c, 0, 57, 0
4, 66720, Note_on_c, 0, 60, 114
4, 67200, Note_on_c, 0, 60, 0
4, 67200, Note_on_c, 0, 62, 114
4, 67680, Note_on_c, 0, 62, 0
4, 67680, Note_on_c, 0, 60, 114
4, 68160, Note_on_c, 0, 60, 0
4, 68160, Note_on_c, 0, 59, 114
4, 68640, Note_on_c, 0, 59, 0
4, 68640, Note_on_c, 0, 62, 114
4, 69120, Note_on_c, 0, 62, 0
4, 69120, Note_on_c, 0, 60, 114
4, 69600, Note_on_c, 0, 60, 0
4, 69600, Note_on_c, 0, 59, 114
4, 70080, Note_on_c, 0, 59, 0
4, 70080, Note_on_c, 0, 57, 114
4, 70560, Note_on_c, 0, 57, 0
4, 70560, Note_on_c, 0, 60, 114
4, 71040, Note_on_c, 0, 60, 0
4, 71040, Note_on_c, 0, 62, 114
4, 71520, Note_on_c, 0, 62, 0
4, 71520, Note_on_c, 0, 60, 114
4, 72000, Note_on_c, 0, 60, 0
4, 72000, Note_on_c, 0, 59, 114
4, 72480, Note_on_c, 0, 59, 0
4, 72480, Note_on_c, 0, 62, 114
4, 72960, Note_on_c, 0, 62, 0
4, 72960, Note_on_c, 0, 60, 114
4, 73440, Note_on_c, 0, 60, 0
4, 73440, Note_on_c, 0, 59, 114
4, 73920, Note_on_c, 0, 59, 0
4, 73920, Note_on_c, 0, 55, 114
4, 73920, Note_on_c, 0, 59, 114
4, 74400, Note_on_c, 0, 59, 0
4, 74400, Note_on_c, 0, 55, 0
4, 74400, Note_on_c, 0, 59, 114
4, 74400, Note_on_c, 0, 62, 114
4, 74880, Note_on_c, 0, 62, 0
4, 74880, Note_on_c, 0, 59, 0
4, 74880, Note_on_c, 0, 60, 114
4, 75360, Note_on_c, 0, 60, 0
4, 75360, Note_on_c, 0, 57, 114
4, 75840, Note_on_c, 0, 57, 0
4, 75840, Note_on_c, 0, 55, 114
4, 75840, Note_on_c, 0, 59, 114
4, 76320, Note_on_c, 0, 59, 0
4, 76320, Note_on_c, 0, 55, 0
4, 76320, Note_on_c, 0, 59, 114
4, 76320, Note_on_c, 0, 62, 114
4, 76800, Note_on_c, 0, 62, 0
4, 76800, Note_on_c, 0, 59, 0
4, 76800, Note_on_c, 0, 50, 114
4, 76800, Note_on_c, 0, 60, 114
4, 77160, Note_on_c, 0, 60, 0
4, 77160, Note_on_c, 0, 50, 0
4, 77160, Note_on_c, 0, 50, 88
4, 77280, Note_on_c, 0, 50, 0
4, 77280, Note_on_c, 0, 50, 114
4, 77280, Note_on_c, 0, 59, 114
4, 77640, Note_on_c, 0, 59, 0
4, 77640, Note_on_c, 0, 50, 0
4, 77640, Note_on_c, 0, 50, 88
4, 77760, Note_on_c, 0, 50, 0
4, 77760, Note_on_c, 0, 50, 114
4, 77760, Note_on_c, 0, 60, 114
4, 78120, Note_on_c, 0, 60, 0
4, 78120, Note_on_c, 0, 50, 0
4, 78120, Note_on_c, 0, 50, 88
4, 78240, Note_on_c, 0, 50, 0
4, 78240, Note_on_c, 0, 50, 114
4, 78240, Note_on_c, 0, 59, 114
4, 78600, Note_on_c, 0, 59, 0
4, 78600, Note_on_c, 0, 50, 0
4, 78600, Note_on_c, 0, 50, 88
4, 78720, Note_on_c, 0, 50, 0
4, 78720, Note_on_c, 0, 50, 114
4, 78720, Note_on_c, 0, 60, 114
4, 79080, Note_on_c, 0, 60, 0
4, 79080, Note_on_c, 0, 50, 0
4, 79080, Note_on_c, 0, 50, 88
4, 79200, Note_on_c, 0, 50, 0
4, 79200, Note_on_c, 0, 50, 114
4, 79200, Note_on_c, 0, 59, 114
4, 79560, Note_on_c, 0, 59, 0
4, 79560, Note_on_c, 0, 50, 0
4, 79560, Note_on_c, 0, 50, 88
4, 79680, Note_on_c, 0, 50, 0
4, 79680, Note_on_c, 0, 50, 88
4, 79680, Note_on_c, 0, 60, 88
4, 79727, Note_on_c, 0, 60, 0
4, 79727, Note_on_c, 0, 50, 0
4, 79920, Note_on_c, 0, 50, 88
4, 79920, Note_on_c, 0, 54, 88
4, 79920, Note_on_c, 0, 57, 88
4, 79920, Note_on_c, 0, 60, 88
4, 79967, Note_on_c, 0, 60, 0
4, 79967, Note_on_c, 0, 50, 0
4, 79967, Note_on_c, 0, 54, 0
4, 79967, Note_on_c, 0, 57, 0
4, 80160, Note_on_c, 0, 50, 114
4, 80160, Note_on_c, 0, 55, 114
4, 80160, Note_on_c, 0, 59, 114
4, 80256, Note_on_c, 0, 59, 0
4, 80256, Note_on_c, 0, 55, 0
4, 80256, Note_on_c, 0, 50, 0
4, 80256, End_track
5, 0, Start_track
5, 0, Title_t, "Grand Piano"
5, 0, Program_c, 0, 0
5, 0, Control_c, 0, 7, 115
5, 0, Control_c, 0, 10, 47
5, 0, Note_on_c, 0, 31, 75
5, 0, Note_on_c, 0, 43, 75
5, 240, Note_on_c, 0, 43, 0
5, 240, Note_on_c, 0, 31, 0
5, 960, Note_on_c, 0, 55, 49
5, 960, Note_on_c, 0, 57, 49
5, 1007, Note_on_c, 0, 57, 0
5, 1007, Note_on_c, 0, 55, 0
5, 1200, Note_on_c, 0, 55, 49
5, 1200, Note_on_c, 0, 59, 49
5, 1247, Note_on_c, 0, 59, 0
5, 1247, Note_on_c, 0, 55, 0
5, 1440, Note_on_c, 0, 55, 49
5, 1440, Note_on_c, 0, 60, 49
5, 1487, Note_on_c, 0, 60, 0
5, 1487, Note_on_c, 0, 55, 0
5, 1920, Note_on_c, 0, 31, 75
5, 1920, Note_on_c, 0, 43, 75
5, 1967, Note_on_c, 0, 43, 0
5, 1967, Note_on_c, 0, 31, 0
5, 2880, Note_on_c, 0, 50, 49
5, 2927, Note_on_c, 0, 50, 0
5, 3120, Note_on_c, 0, 50, 49
5, 3167, Note_on_c, 0, 50, 0
5, 3360, Note_on_c, 0, 50, 49
5, 3407, Note_on_c, 0, 50, 0
5, 3600, Note_on_c, 0, 31, 49
5, 3600, Note_on_c, 0, 43, 49
5, 3647, Note_on_c, 0, 43, 0
5, 3647, Note_on_c, 0, 31, 0
5, 4080, Note_on_c, 0, 31, 49
5, 4080, Note_on_c, 0, 43, 49
5, 4080, Note_on_c, 0, 50, 49
5, 4320, Note_on_c, 0, 50, 0
5, 4320, Note_on_c, 0, 43, 0
5, 4320, Note_on_c, 0, 31, 0
5, 4560, Note_on_c, 0, 31, 49
5, 4560, Note_on_c, 0, 43, 49
5, 4560, Note_on_c, 0, 50, 49
5, 4560, Note_on_c, 0, 55, 49
5, 4800, Note_on_c, 0, 55, 0
5, 4800, Note_on_c, 0, 31, 0
5, 4800, Note_on_c, 0, 43, 0
5, 4800, Note_on_c, 0, 50, 0
5, 5040, Note_on_c, 0, 31, 49
5, 5040, Note_on_c, 0, 43, 49
5, 5040, Note_on_c, 0, 50, 49
5, 5280, Note_on_c, 0, 50, 0
5, 5280, Note_on_c, 0, 43, 0
5, 5280, Note_on_c, 0, 31, 0
5, 5520, Note_on_c, 0, 31, 49
5, 5520, Note_on_c, 0, 43, 49
5, 5520, Note_on_c, 0, 50, 49
5, 5760, Note_on_c, 0, 50, 0
5, 5760, Note_on_c, 0, 43, 0
5, 5760, Note_on_c, 0, 31, 0
5, 6000, Note_on_c, 0, 31, 49
5, 6000, Note_on_c, 0, 43, 49
5, 6000, Note_on_c, 0, 50, 49
5, 6000, Note_on_c, 0, 55, 49
5, 6240, Note_on_c, 0, 55, 0
5, 6240, Note_on_c, 0, 31, 0
5, 6240, Note_on_c, 0, 43, 0
5, 6240, Note_on_c, 0, 50, 0
5, 6480, Note_on_c, 0, 31, 62
5, 6480, Note_on_c, 0, 43, 62
5, 6480, Note_on_c, 0, 50, 62
5, 6480, Note_on_c, 0, 55, 62
5, 6720, Note_on_c, 0, 55, 0
5, 6720, Note_on_c, 0, 31, 0
5, 6720, Note_on_c, 0, 43, 0
5, 6720, Note_on_c, 0, 50, 0
5, 6960, Note_on_c, 0, 31, 62
5, 6960, Note_on_c, 0, 43, 62
5, 7007, Note_on_c, 0, 43, 0
5, 7007, Note_on_c, 0, 31, 0
5, 7200, Note_on_c, 0, 31, 62
5, 7200, Note_on_c, 0, 43, 62
5, 7247, Note_on_c, 0, 43, 0
5, 7247, Note_on_c, 0, 31, 0
5, 7680, Note_on_c, 0, 31, 75
5, 7680, Note_on_c, 0, 43, 75
5, 7727, Note_on_c, 0, 43, 0
5, 7727, Note_on_c, 0, 31, 0
5, 8640, Note_on_c, 0, 55, 49
5, 8640, Note_on_c, 0, 57, 49
5, 8687, Note_on_c, 0, 57, 0
5, 8687, Note_on_c, 0, 55, 0
5, 8880, Note_on_c, 0, 55, 49
5, 8880, Note_on_c, 0, 59, 49
5, 8927, Note_on_c, 0, 59, 0
5, 8927, Note_on_c, 0, 55, 0
5, 9120, Note_on_c, 0, 55, 49
5, 9120, Note_on_c, 0, 60, 49
5, 9167, Note_on_c, 0, 60, 0
5, 9167, Note_on_c, 0, 55, 0
5, 9600, Note_on_c, 0, 31, 75
5, 9600, Note_on_c, 0, 43, 75
5, 9647, Note_on_c, 0, 43, 0
5, 9647, Note_on_c, 0, 31, 0
5, 10560, Note_on_c, 0, 50, 49
5, 10607, Note_on_c, 0, 50, 0
5, 10800, Note_on_c, 0, 50, 49
5, 10847, Note_on_c, 0, 50, 0
5, 11040, Note_on_c, 0, 50, 75
5, 11087, Note_on_c, 0, 50, 0
5, 11280, Note_on_c, 0, 31, 49
5, 11280, Note_on_c, 0, 43, 49
5, 11327, Note_on_c, 0, 43, 0
5, 11327, Note_on_c, 0, 31, 0
5, 11760, Note_on_c, 0, 31, 49
5, 11760, Note_on_c, 0, 43, 49
5, 11760, Note_on_c, 0, 50, 49
5, 12000, Note_on_c, 0, 50, 0
5, 12000, Note_on_c, 0, 43, 0
5, 12000, Note_on_c, 0, 31, 0
5, 12240, Note_on_c, 0, 31, 49
5, 12240, Note_on_c, 0, 43, 49
5, 12240, Note_on_c, 0, 50, 49
5, 12240, Note_on_c, 0, 55, 49
5, 12480, Note_on_c, 0, 55, 0
5, 12480, Note_on_c, 0, 31, 0
5, 12480, Note_on_c, 0, 43, 0
5, 12480, Note_on_c, 0, 50, 0
5, 12720, Note_on_c, 0, 31, 49
5, 12720, Note_on_c, 0, 43, 49
5, 12720, Note_on_c, 0, 50, 49
5, 12960, Note_on_c, 0, 50, 0
5, 12960, Note_on_c, 0, 43, 0
5, 12960, Note_on_c, 0, 31, 0
5, 13200, Note_on_c, 0, 31, 49
5, 13200, Note_on_c, 0, 43, 49
5, 13200, Note_on_c, 0, 50, 49
5, 13440, Note_on_c, 0, 50, 0
5, 13440, Note_on_c, 0, 43, 0
5, 13440, Note_on_c, 0, 31, 0
5, 13680, Note_on_c, 0, 31, 49
5, 13680, Note_on_c, 0, 43, 49
5, 13680, Note_on_c, 0, 50, 49
5, 13680, Note_on_c, 0, 55, 49
5, 13920, Note_on_c, 0, 55, 0
5, 13920, Note_on_c, 0, 31, 0
5, 13920, Note_on_c, 0, 43, 0
5, 13920, Note_on_c, 0, 50, 0
5, 14160, Note_on_c, 0, 31, 62
5, 14160, Note_on_c, 0, 43, 62
5, 14160, Note_on_c, 0, 50, 62
5, 14400, Note_on_c, 0, 50, 0
5, 14400, Note_on_c, 0, 43, 0
5, 14400, Note_on_c, 0, 31, 0
5, 14400, Note_on_c, 0, 31, 62
5, 14400, Note_on_c, 0, 43, 62
5, 14447, Note_on_c, 0, 43, 0
5, 14447, Note_on_c, 0, 31, 0
5, 14640, Note_on_c, 0, 36, 62
5, 14687, Note_on_c, 0, 36, 0
5, 14880, Note_on_c, 0, 31, 62
5, 14880, Note_on_c, 0, 43, 62
5, 14927, Note_on_c, 0, 43, 0
5, 14927, Note_on_c, 0, 31, 0
5, 15360, Note_on_c, 0, 43, 88
5, 15360, Note_on_c, 0, 50, 88
5, 15360, Note_on_c, 0, 55, 88
5, 15407, Note_on_c, 0, 55, 0
5, 15407, Note_on_c, 0, 50, 0
5, 15407, Note_on_c, 0, 43, 0
5, 16320, Note_on_c, 0, 55, 62
5, 16367, Note_on_c, 0, 55, 0
5, 16560, Note_on_c, 0, 55, 62
5, 16607, Note_on_c, 0, 55, 0
5, 16800, Note_on_c, 0, 55, 62
5, 16847, Note_on_c, 0, 55, 0
5, 17280, Note_on_c, 0, 43, 88
5, 17280, Note_on_c, 0, 50, 88
5, 17327, Note_on_c, 0, 50, 0
5, 17327, Note_on_c, 0, 43, 0
5, 18240, Note_on_c, 0, 50, 62
5, 18240, Note_on_c, 0, 52, 62
5, 18287, Note_on_c, 0, 52, 0
5, 18287, Note_on_c, 0, 50, 0
5, 18480, Note_on_c, 0, 50, 62
5, 18480, Note_on_c, 0, 54, 62
5, 18527, Note_on_c, 0, 54, 0
5, 18527, Note_on_c, 0, 50, 0
5, 18720, Note_on_c, 0, 50, 62
5, 18720, Note_on_c, 0, 55, 62
5, 18767, Note_on_c, 0, 55, 0
5, 18767, Note_on_c, 0, 50, 0
5, 18960, Note_on_c, 0, 31, 62
5, 18960, Note_on_c, 0, 43, 62
5, 19007, Note_on_c, 0, 43, 0
5, 19007, Note_on_c, 0, 31, 0
5, 19440, Note_on_c, 0, 31, 75
5, 19440, Note_on_c, 0, 43, 75
5, 19440, Note_on_c, 0, 50, 75
5, 19680, Note_on_c, 0, 50, 0
5, 19680, Note_on_c, 0, 43, 0
5, 19680, Note_on_c, 0, 31, 0
5, 19920, Note_on_c, 0, 31, 75
5, 19920, Note_on_c, 0, 43, 75
5, 19920, Note_on_c, 0, 50, 75
5, 19920, Note_on_c, 0, 55, 75
5, 20160, Note_on_c, 0, 55, 0
5, 20160, Note_on_c, 0, 31, 0
5, 20160, Note_on_c, 0, 43, 0
5, 20160, Note_on_c, 0, 50, 0
5, 20400, Note_on_c, 0, 31, 75
5, 20400, Note_on_c, 0, 43, 75
5, 20400, Note_on_c, 0, 50, 75
5, 20640, Note_on_c, 0, 50, 0
5, 20640, Note_on_c, 0, 43, 0
5, 20640, Note_on_c, 0, 31, 0
5, 20880, Note_on_c, 0, 31, 75
5, 20880, Note_on_c, 0, 43, 75
5, 20880, Note_on_c, 0, 50, 75
5, 21120, Note_on_c, 0, 50, 0
5, 21120, Note_on_c, 0, 43, 0
5, 21120, Note_on_c, 0, 31, 0
5, 21360, Note_on_c, 0, 31, 75
5, 21360, Note_on_c, 0, 43, 75
5, 21360, Note_on_c, 0, 50, 75
5, 21360, Note_on_c, 0, 55, 75
5, 21600, Note_on_c, 0, 55, 0
5, 21600, Note_on_c, 0, 31, 0
5, 21600, Note_on_c, 0, 43, 0
5, 21600, Note_on_c, 0, 50, 0
5, 21840, Note_on_c, 0, 31, 62
5, 21840, Note_on_c, 0, 43, 62
5, 21840, Note_on_c, 0, 50, 62
5, 21840, Note_on_c, 0, 55, 62
5, 22080, Note_on_c, 0, 55, 0
5, 22080, Note_on_c, 0, 31, 0
5, 22080, Note_on_c, 0, 43, 0
5, 22080, Note_on_c, 0, 50, 0
5, 22320, Note_on_c, 0, 31, 75
5, 22320, Note_on_c, 0, 43, 75
5, 22560, Note_on_c, 0, 43, 0
5, 22560, Note_on_c, 0, 31, 0
5, 22560, Note_on_c, 0, 31, 75
5, 22560, Note_on_c, 0, 43, 75
5, 22800, Note_on_c, 0, 43, 0
5, 22800, Note_on_c, 0, 31, 0
5, 23040, Note_on_c, 0, 43, 88
5, 23040, Note_on_c, 0, 50, 88
5, 23040, Note_on_c, 0, 55, 88
5, 23087, Note_on_c, 0, 55, 0
5, 23087, Note_on_c, 0, 50, 0
5, 23087, Note_on_c, 0, 43, 0
5, 24000, Note_on_c, 0, 55, 62
5, 24000, Note_on_c, 0, 57, 62
5, 24047, Note_on_c, 0, 57, 0
5, 24047, Note_on_c, 0, 55, 0
5, 24240, Note_on_c, 0, 55, 62
5, 24240, Note_on_c, 0, 59, 62
5, 24287, Note_on_c, 0, 59, 0
5, 24287, Note_on_c, 0, 55, 0
5, 24480, Note_on_c, 0, 55, 88
5, 24480, Note_on_c, 0, 60, 88
5, 24527, Note_on_c, 0, 60, 0
5, 24527, Note_on_c, 0, 55, 0
5, 24960, Note_on_c, 0, 31, 88
5, 24960, Note_on_c, 0, 43, 88
5, 25007, Note_on_c, 0, 43, 0
5, 25007, Note_on_c, 0, 31, 0
5, 25920, Note_on_c, 0, 50, 62
5, 25920, Note_on_c, 0, 52, 62
5, 25967, Note_on_c, 0, 52, 0
5, 25967, Note_on_c, 0, 50, 0
5, 26160, Note_on_c, 0, 50, 62
5, 26160, Note_on_c, 0, 54, 62
5, 26207, Note_on_c, 0, 54, 0
5, 26207, Note_on_c, 0, 50, 0
5, 26400, Note_on_c, 0, 50, 62
5, 26400, Note_on_c, 0, 55, 62
5, 26447, Note_on_c, 0, 55, 0
5, 26447, Note_on_c, 0, 50, 0
5, 26640, Note_on_c, 0, 31, 62
5, 26640, Note_on_c, 0, 43, 62
5, 26687, Note_on_c, 0, 43, 0
5, 26687, Note_on_c, 0, 31, 0
5, 27120, Note_on_c, 0, 31, 75
5, 27120, Note_on_c, 0, 43, 75
5, 27120, Note_on_c, 0, 50, 75
5, 27360, Note_on_c, 0, 50, 0
5, 27360, Note_on_c, 0, 43, 0
5, 27360, Note_on_c, 0, 31, 0
5, 27600, Note_on_c, 0, 31, 75
5, 27600, Note_on_c, 0, 43, 75
5, 27600, Note_on_c, 0, 50, 75
5, 27840, Note_on_c, 0, 50, 0
5, 27840, Note_on_c, 0, 43, 0
5, 27840, Note_on_c, 0, 31, 0
5, 28080, Note_on_c, 0, 31, 75
5, 28080, Note_on_c, 0, 43, 75
5, 28080, Note_on_c, 0, 50, 75
5, 28320, Note_on_c, 0, 50, 0
5, 28320, Note_on_c, 0, 43, 0
5, 28320, Note_on_c, 0, 31, 0
5, 28560, Note_on_c, 0, 31, 75
5, 28560, Note_on_c, 0, 43, 75
5, 28560, Note_on_c, 0, 50, 75
5, 28800, Note_on_c, 0, 50, 0
5, 28800, Note_on_c, 0, 43, 0
5, 28800, Note_on_c, 0, 31, 0
5, 29040, Note_on_c, 0, 31, 75
5, 29040, Note_on_c, 0, 43, 75
5, 29040, Note_on_c, 0, 50, 75
5, 29280, Note_on_c, 0, 50, 0
5, 29280, Note_on_c, 0, 43, 0
5, 29280, Note_on_c, 0, 31, 0
5, 29520, Note_on_c, 0, 31, 88
5, 29520, Note_on_c, 0, 43, 88
5, 29520, Note_on_c, 0, 50, 88
5, 29760, Note_on_c, 0, 50, 0
5, 29760, Note_on_c, 0, 43, 0
5, 29760, Note_on_c, 0, 31, 0
5, 30000, Note_on_c, 0, 36, 88
5, 30047, Note_on_c, 0, 36, 0
5, 30240, Note_on_c, 0, 31, 88
5, 30240, Note_on_c, 0, 43, 88
5, 30287, Note_on_c, 0, 43, 0
5, 30287, Note_on_c, 0, 31, 0
5, 30720, Note_on_c, 0, 50, 88
5, 30767, Note_on_c, 0, 50, 0
5, 30960, Note_on_c, 0, 50, 88
5, 31080, Note_on_c, 0, 50, 0
5, 31080, Note_on_c, 0, 49, 88
5, 31200, Note_on_c, 0, 49, 0
5, 31200, Note_on_c, 0, 50, 88
5, 31440, Note_on_c, 0, 50, 0
5, 31440, Note_on_c, 0, 48, 88
5, 31487, Note_on_c, 0, 48, 0
5, 31680, Note_on_c, 0, 47, 114
5, 32160, Note_on_c, 0, 47, 0
5, 32160, Note_on_c, 0, 40, 114
5, 32160, Note_on_c, 0, 52, 114
5, 32640, Note_on_c, 0, 52, 0
5, 32640, Note_on_c, 0, 40, 0
5, 32640, Note_on_c, 0, 45, 88
5, 32640, Note_on_c, 0, 57, 88
5, 32687, Note_on_c, 0, 57, 0
5, 32687, Note_on_c, 0, 45, 0
5, 32880, Note_on_c, 0, 45, 88
5, 32880, Note_on_c, 0, 57, 88
5, 33000, Note_on_c, 0, 57, 0
5, 33000, Note_on_c, 0, 45, 0
5, 33000, Note_on_c, 0, 44, 88
5, 33000, Note_on_c, 0, 56, 88
5, 33120, Note_on_c, 0, 56, 0
5, 33120, Note_on_c, 0, 44, 0
5, 33120, Note_on_c, 0, 45, 88
5, 33120, Note_on_c, 0, 57, 88
5, 33360, Note_on_c, 0, 57, 0
5, 33360, Note_on_c, 0, 45, 0
5, 33360, Note_on_c, 0, 43, 88
5, 33360, Note_on_c, 0, 55, 88
5, 33407, Note_on_c, 0, 55, 0
5, 33407, Note_on_c, 0, 43, 0
5, 33600, Note_on_c, 0, 42, 114
5, 33600, Note_on_c, 0, 54, 114
5, 34080, Note_on_c, 0, 54, 0
5, 34080, Note_on_c, 0, 42, 0
5, 34080, Note_on_c, 0, 35, 114
5, 34080, Note_on_c, 0, 47, 114
5, 34560, Note_on_c, 0, 47, 0
5, 34560, Note_on_c, 0, 35, 0
5, 34560, Note_on_c, 0, 40, 88
5, 34560, Note_on_c, 0, 52, 88
5, 34607, Note_on_c, 0, 52, 0
5, 34607, Note_on_c, 0, 40, 0
5, 34800, Note_on_c, 0, 40, 88
5, 34920, Note_on_c, 0, 40, 0
5, 34920, Note_on_c, 0, 38, 88
5, 35040, Note_on_c, 0, 38, 0
5, 35040, Note_on_c, 0, 42, 88
5, 35087, Note_on_c, 0, 42, 0
5, 35280, Note_on_c, 0, 42, 88
5, 35400, Note_on_c, 0, 42, 0
5, 35400, Note_on_c, 0, 40, 88
5, 35520, Note_on_c, 0, 40, 0
5, 35520, Note_on_c, 0, 43, 88
5, 35567, Note_on_c, 0, 43, 0
5, 35760, Note_on_c, 0, 43, 88
5, 35880, Note_on_c, 0, 43, 0
5, 35880, Note_on_c, 0, 42, 88
5, 36000, Note_on_c, 0, 42, 0
5, 36000, Note_on_c, 0, 44, 88
5, 36047, Note_on_c, 0, 44, 0
5, 36240, Note_on_c, 0, 44, 88
5, 36360, Note_on_c, 0, 44, 0
5, 36360, Note_on_c, 0, 40, 88
5, 36480, Note_on_c, 0, 40, 0
5, 36480, Note_on_c, 0, 45, 88
5, 36503, Note_on_c, 0, 45, 0
5, 36600, Note_on_c, 0, 47, 88
5, 36623, Note_on_c, 0, 47, 0
5, 36720, Note_on_c, 0, 49, 88
5, 36743, Note_on_c, 0, 49, 0
5, 36840, Note_on_c, 0, 50, 88
5, 36863, Note_on_c, 0, 50, 0
5, 36960, Note_on_c, 0, 52, 101
5, 36983, Note_on_c, 0, 52, 0
5, 37080, Note_on_c, 0, 51, 101
5, 37103, Note_on_c, 0, 51, 0
5, 37200, Note_on_c, 0, 52, 101
5, 37223, Note_on_c, 0, 52, 0
5, 37320, Note_on_c, 0, 53, 101
5, 37343, Note_on_c, 0, 53, 0
5, 37440, Note_on_c, 0, 54, 101
5, 37487, Note_on_c, 0, 54, 0
5, 37680, Note_on_c, 0, 54, 101
5, 37800, Note_on_c, 0, 54, 0
5, 37800, Note_on_c, 0, 50, 101
5, 37920, Note_on_c, 0, 50, 0
5, 37920, Note_on_c, 0, 45, 127
5, 38400, Note_on_c, 0, 45, 0
5, 38400, Note_on_c, 0, 50, 88
5, 38447, Note_on_c, 0, 50, 0
5, 38640, Note_on_c, 0, 50, 88
5, 38760, Note_on_c, 0, 50, 0
5, 38760, Note_on_c, 0, 49, 88
5, 38880, Note_on_c, 0, 49, 0
5, 38880, Note_on_c, 0, 50, 88
5, 39120, Note_on_c, 0, 50, 0
5, 39120, Note_on_c, 0, 48, 88
5, 39167, Note_on_c, 0, 48, 0
5, 39360, Note_on_c, 0, 47, 114
5, 39840, Note_on_c, 0, 47, 0
5, 39840, Note_on_c, 0, 40, 114
5, 39840, Note_on_c, 0, 52, 114
5, 40320, Note_on_c, 0, 52, 0
5, 40320, Note_on_c, 0, 40, 0
5, 40320, Note_on_c, 0, 45, 101
5, 40320, Note_on_c, 0, 57, 101
5, 40367, Note_on_c, 0, 57, 0
5, 40367, Note_on_c, 0, 45, 0
5, 40560, Note_on_c, 0, 45, 101
5, 40560, Note_on_c, 0, 57, 101
5, 40680, Note_on_c, 0, 57, 0
5, 40680, Note_on_c, 0, 45, 0
5, 40680, Note_on_c, 0, 44, 101
5, 40680, Note_on_c, 0, 56, 101
5, 40800, Note_on_c, 0, 56, 0
5, 40800, Note_on_c, 0, 44, 0
5, 40800, Note_on_c, 0, 45, 101
5, 40800, Note_on_c, 0, 57, 101
5, 41040, Note_on_c, 0, 57, 0
5, 41040, Note_on_c, 0, 45, 0
5, 41040, Note_on_c, 0, 43, 101
5, 41040, Note_on_c, 0, 55, 101
5, 41087, Note_on_c, 0, 55, 0
5, 41087, Note_on_c, 0, 43, 0
5, 41280, Note_on_c, 0, 42, 127
5, 41280, Note_on_c, 0, 54, 127
5, 41760, Note_on_c, 0, 54, 0
5, 41760, Note_on_c, 0, 42, 0
5, 41760, Note_on_c, 0, 35, 127
5, 41760, Note_on_c, 0, 47, 127
5, 42240, Note_on_c, 0, 47, 0
5, 42240, Note_on_c, 0, 35, 0
5, 42240, Note_on_c, 0, 40, 101
5, 42240, Note_on_c, 0, 52, 101
5, 42480, Note_on_c, 0, 52, 0
5, 42480, Note_on_c, 0, 40, 0
5, 42480, Note_on_c, 0, 40, 101
5, 42600, Note_on_c, 0, 40, 0
5, 42600, Note_on_c, 0, 38, 101
5, 42720, Note_on_c, 0, 38, 0
5, 42720, Note_on_c, 0, 42, 101
5, 42767, Note_on_c, 0, 42, 0
5, 42960, Note_on_c, 0, 42, 101
5, 43080, Note_on_c, 0, 42, 0
5, 43080, Note_on_c, 0, 40, 101
5, 43200, Note_on_c, 0, 40, 0
5, 43200, Note_on_c, 0, 43, 101
5, 43200, Note_on_c, 0, 55, 101
5, 43247, Note_on_c, 0, 55, 0
5, 43247, Note_on_c, 0, 43, 0
5, 43440, Note_on_c, 0, 43, 101
5, 43440, Note_on_c, 0, 55, 101
5, 43560, Note_on_c, 0, 55, 0
5, 43560, Note_on_c, 0, 43, 0
5, 43560, Note_on_c, 0, 42, 101
5, 43560, Note_on_c, 0, 54, 101
5, 43680, Note_on_c, 0, 54, 0
5, 43680, Note_on_c, 0, 42, 0
5, 43680, Note_on_c, 0, 44, 101
5, 43680, Note_on_c, 0, 56, 101
5, 43727, Note_on_c, 0, 56, 0
5, 43727, Note_on_c, 0, 44, 0
5, 43920, Note_on_c, 0, 44, 101
5, 43920, Note_on_c, 0, 56, 101
5, 44040, Note_on_c, 0, 56, 0
5, 44040, Note_on_c, 0, 44, 0
5, 44040, Note_on_c, 0, 42, 101
5, 44040, Note_on_c, 0, 54, 101
5, 44160, Note_on_c, 0, 54, 0
5, 44160, Note_on_c, 0, 42, 0
5, 44160, Note_on_c, 0, 45, 88
5, 44207, Note_on_c, 0, 45, 0
5, 44400, Note_on_c, 0, 45, 88
5, 44520, Note_on_c, 0, 45, 0
5, 44520, Note_on_c, 0, 43, 88
5, 44640, Note_on_c, 0, 43, 0
5, 44640, Note_on_c, 0, 47, 88
5, 44687, Note_on_c, 0, 47, 0
5, 44880, Note_on_c, 0, 47, 88
5, 45000, Note_on_c, 0, 47, 0
5, 45000, Note_on_c, 0, 45, 88
5, 45120, Note_on_c, 0, 45, 0
5, 45120, Note_on_c, 0, 49, 88
5, 45167, Note_on_c, 0, 49, 0
5, 45360, Note_on_c, 0, 49, 101
5, 45480, Note_on_c, 0, 49, 0
5, 45480, Note_on_c, 0, 47, 101
5, 45600, Note_on_c, 0, 47, 0
5, 45600, Note_on_c, 0, 50, 101
5, 45647, Note_on_c, 0, 50, 0
5, 45840, Note_on_c, 0, 38, 101
5, 45887, Note_on_c, 0, 38, 0
5, 46080, Note_on_c, 0, 39, 101
5, 46080, Note_on_c, 0, 51, 101
5, 46320, Note_on_c, 0, 51, 0
5, 46320, Note_on_c, 0, 39, 0
5, 46320, Note_on_c, 0, 51, 101
5, 46800, Note_on_c, 0, 51, 0
5, 46800, Note_on_c, 0, 45, 114
5, 46800, Note_on_c, 0, 52, 114
5, 47280, Note_on_c, 0, 52, 0
5, 47280, Note_on_c, 0, 45, 0
5, 47280, Note_on_c, 0, 30, 127
5, 47280, Note_on_c, 0, 42, 127
5, 47760, Note_on_c, 0, 42, 0
5, 47760, Note_on_c, 0, 30, 0
5, 47760, Note_on_c, 0, 38, 101
5, 47807, Note_on_c, 0, 38, 0
5, 48000, Note_on_c, 0, 39, 101
5, 48000, Note_on_c, 0, 51, 101
5, 48240, Note_on_c, 0, 51, 0
5, 48240, Note_on_c, 0, 39, 0
5, 48240, Note_on_c, 0, 51, 101
5, 48720, Note_on_c, 0, 51, 0
5, 48720, Note_on_c, 0, 45, 114
5, 48720, Note_on_c, 0, 52, 114
5, 49200, Note_on_c, 0, 52, 0
5, 49200, Note_on_c, 0, 45, 0
5, 49200, Note_on_c, 0, 30, 114
5, 49200, Note_on_c, 0, 42, 114
5, 49680, Note_on_c, 0, 42, 0
5, 49680, Note_on_c, 0, 30, 0
5, 49680, Note_on_c, 0, 38, 101
5, 49727, Note_on_c, 0, 38, 0
5, 49920, Note_on_c, 0, 39, 101
5, 49967, Note_on_c, 0, 39, 0
5, 50160, Note_on_c, 0, 51, 127
5, 50640, Note_on_c, 0, 51, 0
5, 50640, Note_on_c, 0, 38, 101
5, 50640, Note_on_c, 0, 50, 101
5, 50687, Note_on_c, 0, 50, 0
5, 50687, Note_on_c, 0, 38, 0
5, 50880, Note_on_c, 0, 39, 101
5, 50880, Note_on_c, 0, 51, 101
5, 50927, Note_on_c, 0, 51, 0
5, 50927, Note_on_c, 0, 39, 0
5, 51120, Note_on_c, 0, 51, 127
5, 51600, Note_on_c, 0, 51, 0
5, 51600, Note_on_c, 0, 38, 101
5, 51600, Note_on_c, 0, 50, 101
5, 51647, Note_on_c, 0, 50, 0
5, 51647, Note_on_c, 0, 38, 0
5, 51840, Note_on_c, 0, 39, 101
5, 51840, Note_on_c, 0, 51, 101
5, 51887, Note_on_c, 0, 51, 0
5, 51887, Note_on_c, 0, 39, 0
5, 52080, Note_on_c, 0, 38, 101
5, 52080, Note_on_c, 0, 50, 101
5, 52127, Note_on_c, 0, 50, 0
5, 52127, Note_on_c, 0, 38, 0
5, 52320, Note_on_c, 0, 39, 101
5, 52320, Note_on_c, 0, 51, 101
5, 52367, Note_on_c, 0, 51, 0
5, 52367, Note_on_c, 0, 39, 0
5, 52560, Note_on_c, 0, 38, 101
5, 52560, Note_on_c, 0, 50, 101
5, 52607, Note_on_c, 0, 50, 0
5, 52607, Note_on_c, 0, 38, 0
5, 52800, Note_on_c, 0, 39, 101
5, 52800, Note_on_c, 0, 51, 101
5, 52847, Note_on_c, 0, 51, 0
5, 52847, Note_on_c, 0, 39, 0
5, 53040, Note_on_c, 0, 38, 101
5, 53040, Note_on_c, 0, 50, 101
5, 53087, Note_on_c, 0, 50, 0
5, 53087, Note_on_c, 0, 38, 0
5, 53280, Note_on_c, 0, 50, 101
5, 53280, Note_on_c, 0, 57, 101
5, 53327, Note_on_c, 0, 57, 0
5, 53327, Note_on_c, 0, 50, 0
5, 53760, Note_on_c, 0, 31, 88
5, 53760, Note_on_c, 0, 43, 88
5, 53807, Note_on_c, 0, 43, 0
5, 53807, Note_on_c, 0, 31, 0
5, 54720, Note_on_c, 0, 55, 62
5, 54720, Note_on_c, 0, 57, 62
5, 54767, Note_on_c, 0, 57, 0
5, 54767, Note_on_c, 0, 55, 0
5, 54960, Note_on_c, 0, 55, 62
5, 54960, Note_on_c, 0, 59, 62
5, 55007, Note_on_c, 0, 59, 0
5, 55007, Note_on_c, 0, 55, 0
5, 55200, Note_on_c, 0, 55, 88
5, 55200, Note_on_c, 0, 60, 88
5, 55680, Note_on_c, 0, 60, 0
5, 55680, Note_on_c, 0, 55, 0
5, 55680, Note_on_c, 0, 31, 88
5, 55680, Note_on_c, 0, 43, 88
5, 55727, Note_on_c, 0, 43, 0
5, 55727, Note_on_c, 0, 31, 0
5, 56640, Note_on_c, 0, 50, 62
5, 56640, Note_on_c, 0, 52, 62
5, 56640, Note_on_c, 0, 55, 62
5, 56687, Note_on_c, 0, 55, 0
5, 56687, Note_on_c, 0, 52, 0
5, 56687, Note_on_c, 0, 50, 0
5, 56880, Note_on_c, 0, 50, 62
5, 56880, Note_on_c, 0, 54, 62
5, 56880, Note_on_c, 0, 57, 62
5, 56927, Note_on_c, 0, 57, 0
5, 56927, Note_on_c, 0, 54, 0
5, 56927, Note_on_c, 0, 50, 0
5, 57120, Note_on_c, 0, 50, 62
5, 57120, Note_on_c, 0, 55, 62
5, 57167, Note_on_c, 0, 55, 0
5, 57167, Note_on_c, 0, 50, 0
5, 57360, Note_on_c, 0, 31, 62
5, 57360, Note_on_c, 0, 43, 62
5, 57407, Note_on_c, 0, 43, 0
5, 57407, Note_on_c, 0, 31, 0
5, 57840, Note_on_c, 0, 31, 88
5, 57840, Note_on_c, 0, 43, 88
5, 57840, Note_on_c, 0, 50, 88
5, 58080, Note_on_c, 0, 50, 0
5, 58080, Note_on_c, 0, 43, 0
5, 58080, Note_on_c, 0, 31, 0
5, 58320, Note_on_c, 0, 31, 88
5, 58320, Note_on_c, 0, 43, 88
5, 58320, Note_on_c, 0, 50, 88
5, 58320, Note_on_c, 0, 55, 88
5, 58560, Note_on_c, 0, 55, 0
5, 58560, Note_on_c, 0, 31, 0
5, 58560, Note_on_c, 0, 43, 0
5, 58560, Note_on_c, 0, 50, 0
5, 58800, Note_on_c, 0, 31, 88
5, 58800, Note_on_c, 0, 43, 88
5, 58800, Note_on_c, 0, 50, 88
5, 59040, Note_on_c, 0, 50, 0
5, 59040, Note_on_c, 0, 43, 0
5, 59040, Note_on_c, 0, 31, 0
5, 59280, Note_on_c, 0, 31, 88
5, 59280, Note_on_c, 0, 43, 88
5, 59280, Note_on_c, 0, 50, 88
5, 59520, Note_on_c, 0, 50, 0
5, 59520, Note_on_c, 0, 43, 0
5, 59520, Note_on_c, 0, 31, 0
5, 59760, Note_on_c, 0, 31, 88
5, 59760, Note_on_c, 0, 43, 88
5, 59760, Note_on_c, 0, 50, 88
5, 59760, Note_on_c, 0, 55, 88
5, 60000, Note_on_c, 0, 55, 0
5, 60000, Note_on_c, 0, 31, 0
5, 60000, Note_on_c, 0, 43, 0
5, 60000, Note_on_c, 0, 50, 0
5, 60240, Note_on_c, 0, 31, 88
5, 60240, Note_on_c, 0, 43, 88
5, 60240, Note_on_c, 0, 50, 88
5, 60240, Note_on_c, 0, 55, 88
5, 60480, Note_on_c, 0, 55, 0
5, 60480, Note_on_c, 0, 31, 0
5, 60480, Note_on_c, 0, 43, 0
5, 60480, Note_on_c, 0, 50, 0
5, 60720, Note_on_c, 0, 31, 88
5, 60720, Note_on_c, 0, 43, 88
5, 60767, Note_on_c, 0, 43, 0
5, 60767, Note_on_c, 0, 31, 0
5, 60960, Note_on_c, 0, 31, 88
5, 60960, Note_on_c, 0, 43, 88
5, 61007, Note_on_c, 0, 43, 0
5, 61007, Note_on_c, 0, 31, 0
5, 61440, Note_on_c, 0, 31, 88
5, 61440, Note_on_c, 0, 43, 88
5, 61487, Note_on_c, 0, 43, 0
5, 61487, Note_on_c, 0, 31, 0
5, 62400, Note_on_c, 0, 55, 88
5, 62400, Note_on_c, 0, 57, 88
5, 62447, Note_on_c, 0, 57, 0
5, 62447, Note_on_c, 0, 55, 0
5, 62640, Note_on_c, 0, 55, 88
5, 62640, Note_on_c, 0, 59, 88
5, 62687, Note_on_c, 0, 59, 0
5, 62687, Note_on_c, 0, 55, 0
5, 62880, Note_on_c, 0, 55, 114
5, 62880, Note_on_c, 0, 60, 114
5, 63360, Note_on_c, 0, 60, 0
5, 63360, Note_on_c, 0, 55, 0
5, 63360, Note_on_c, 0, 31, 88
5, 63360, Note_on_c, 0, 43, 88
5, 63407, Note_on_c, 0, 43, 0
5, 63407, Note_on_c, 0, 31, 0
5, 64320, Note_on_c, 0, 50, 88
5, 64320, Note_on_c, 0, 52, 88
5, 64367, Note_on_c, 0, 52, 0
5, 64367, Note_on_c, 0, 50, 0
5, 64560, Note_on_c, 0, 50, 88
5, 64560, Note_on_c, 0, 54, 88
5, 64607, Note_on_c, 0, 54, 0
5, 64607, Note_on_c, 0, 50, 0
5, 64800, Note_on_c, 0, 50, 88
5, 64800, Note_on_c, 0, 55, 88
5, 64847, Note_on_c, 0, 55, 0
5, 64847, Note_on_c, 0, 50, 0
5, 65040, Note_on_c, 0, 31, 88
5, 65040, Note_on_c, 0, 43, 88
5, 65087, Note_on_c, 0, 43, 0
5, 65087, Note_on_c, 0, 31, 0
5, 65520, Note_on_c, 0, 31, 88
5, 65520, Note_on_c, 0, 43, 88
5, 65520, Note_on_c, 0, 50, 88
5, 65760, Note_on_c, 0, 50, 0
5, 65760, Note_on_c, 0, 43, 0
5, 65760, Note_on_c, 0, 31, 0
5, 66000, Note_on_c, 0, 31, 88
5, 66000, Note_on_c, 0, 43, 88
5, 66000, Note_on_c, 0, 50, 88
5, 66000, Note_on_c, 0, 55, 88
5, 66240, Note_on_c, 0, 55, 0
5, 66240, Note_on_c, 0, 31, 0
5, 66240, Note_on_c, 0, 43, 0
5, 66240, Note_on_c, 0, 50, 0
5, 66480, Note_on_c, 0, 31, 88
5, 66480, Note_on_c, 0, 43, 88
5, 66480, Note_on_c, 0, 50, 88
5, 66720, Note_on_c, 0, 50, 0
5, 66720, Note_on_c, 0, 43, 0
5, 66720, Note_on_c, 0, 31, 0
5, 66960, Note_on_c, 0, 31, 88
5, 66960, Note_on_c, 0, 43, 88
5, 66960, Note_on_c, 0, 50, 88
5, 67200, Note_on_c, 0, 50, 0
5, 67200, Note_on_c, 0, 43, 0
5, 67200, Note_on_c, 0, 31, 0
5, 67440, Note_on_c, 0, 31, 88
5, 67440, Note_on_c, 0, 43, 88
5, 67440, Note_on_c, 0, 50, 88
5, 67680, Note_on_c, 0, 50, 0
5, 67680, Note_on_c, 0, 43, 0
5, 67680, Note_on_c, 0, 31, 0
5, 67920, Note_on_c, 0, 31, 88
5, 67920, Note_on_c, 0, 43, 88
5, 67920, Note_on_c, 0, 50, 88
5, 68160, Note_on_c, 0, 50, 0
5, 68160, Note_on_c, 0, 43, 0
5, 68160, Note_on_c, 0, 31, 0
5, 68400, Note_on_c, 0, 31, 88
5, 68400, Note_on_c, 0, 43, 88
5, 68400, Note_on_c, 0, 50, 88
5, 68640, Note_on_c, 0, 50, 0
5, 68640, Note_on_c, 0, 43, 0
5, 68640, Note_on_c, 0, 31, 0
5, 68880, Note_on_c, 0, 31, 88
5, 68880, Note_on_c, 0, 43, 88
5, 68880, Note_on_c, 0, 50, 88
5, 69120, Note_on_c, 0, 50, 0
5, 69120, Note_on_c, 0, 43, 0
5, 69120, Note_on_c, 0, 31, 0
5, 69120, Note_on_c, 0, 50, 88
5, 69240, Note_on_c, 0, 50, 0
5, 69240, Note_on_c, 0, 50, 88
5, 69360, Note_on_c, 0, 50, 0
5, 69360, Note_on_c, 0, 31, 88
5, 69360, Note_on_c, 0, 43, 88
5, 69360, Note_on_c, 0, 50, 88
5, 69600, Note_on_c, 0, 50, 0
5, 69600, Note_on_c, 0, 43, 0
5, 69600, Note_on_c, 0, 31, 0
5, 69600, Note_on_c, 0, 50, 88
5, 69720, Note_on_c, 0, 50, 0
5, 69720, Note_on_c, 0, 50, 88
5, 69840, Note_on_c, 0, 50, 0
5, 69840, Note_on_c, 0, 31, 88
5, 69840, Note_on_c, 0, 43, 88
5, 69840, Note_on_c, 0, 50, 88
5, 70080, Note_on_c, 0, 50, 0
5, 70080, Note_on_c, 0, 43, 0
5, 70080, Note_on_c, 0, 31, 0
5, 70080, Note_on_c, 0, 50, 88
5, 70200, Note_on_c, 0, 50, 0
5, 70200, Note_on_c, 0, 50, 88
5, 70320, Note_on_c, 0, 50, 0
5, 70320, Note_on_c, 0, 31, 88
5, 70320, Note_on_c, 0, 43, 88
5, 70320, Note_on_c, 0, 50, 88
5, 70560, Note_on_c, 0, 50, 0
5, 70560, Note_on_c, 0, 43, 0
5, 70560, Note_on_c, 0, 31, 0
5, 70560, Note_on_c, 0, 50, 88
5, 70680, Note_on_c, 0, 50, 0
5, 70680, Note_on_c, 0, 50, 88
5, 70800, Note_on_c, 0, 50, 0
5, 70800, Note_on_c, 0, 31, 88
5, 70800, Note_on_c, 0, 43, 88
5, 70800, Note_on_c, 0, 50, 88
5, 71040, Note_on_c, 0, 50, 0
5, 71040, Note_on_c, 0, 43, 0
5, 71040, Note_on_c, 0, 31, 0
5, 71040, Note_on_c, 0, 50, 88
5, 71160, Note_on_c, 0, 50, 0
5, 71160, Note_on_c, 0, 50, 88
5, 71280, Note_on_c, 0, 50, 0
5, 71280, Note_on_c, 0, 31, 88
5, 71280, Note_on_c, 0, 43, 88
5, 71280, Note_on_c, 0, 50, 88
5, 71520, Note_on_c, 0, 50, 0
5, 71520, Note_on_c, 0, 43, 0
5, 71520, Note_on_c, 0, 31, 0
5, 71520, Note_on_c, 0, 50, 88
5, 71640, Note_on_c, 0, 50, 0
5, 71640, Note_on_c, 0, 50, 88
5, 71760, Note_on_c, 0, 50, 0
5, 71760, Note_on_c, 0, 31, 88
5, 71760, Note_on_c, 0, 43, 88
5, 71760, Note_on_c, 0, 50, 88
5, 72000, Note_on_c, 0, 50, 0
5, 72000, Note_on_c, 0, 43, 0
5, 72000, Note_on_c, 0, 31, 0
5, 72000, Note_on_c, 0, 50, 88
5, 72120, Note_on_c, 0, 50, 0
5, 72120, Note_on_c, 0, 50, 88
5, 72240, Note_on_c, 0, 50, 0
5, 72240, Note_on_c, 0, 31, 88
5, 72240, Note_on_c, 0, 43, 88
5, 72240, Note_on_c, 0, 50, 88
5, 72480, Note_on_c, 0, 50, 0
5, 72480, Note_on_c, 0, 43, 0
5, 72480, Note_on_c, 0, 31, 0
5, 72480, Note_on_c, 0, 50, 88
5, 72600, Note_on_c, 0, 50, 0
5, 72600, Note_on_c, 0, 50, 88
5, 72720, Note_on_c, 0, 50, 0
5, 72720, Note_on_c, 0, 31, 88
5, 72720, Note_on_c, 0, 43, 88
5, 72720, Note_on_c, 0, 50, 88
5, 72960, Note_on_c, 0, 50, 0
5, 72960, Note_on_c, 0, 43, 0
5, 72960, Note_on_c, 0, 31, 0
5, 72960, Note_on_c, 0, 50, 88
5, 73080, Note_on_c, 0, 50, 0
5, 73080, Note_on_c, 0, 50, 88
5, 73200, Note_on_c, 0, 50, 0
5, 73200, Note_on_c, 0, 31, 88
5, 73200, Note_on_c, 0, 43, 88
5, 73200, Note_on_c, 0, 50, 88
5, 73440, Note_on_c, 0, 50, 0
5, 73440, Note_on_c, 0, 43, 0
5, 73440, Note_on_c, 0, 31, 0
5, 73440, Note_on_c, 0, 50, 88
5, 73560, Note_on_c, 0, 50, 0
5, 73560, Note_on_c, 0, 50, 88
5, 73680, Note_on_c, 0, 50, 0
5, 73680, Note_on_c, 0, 31, 88
5, 73680, Note_on_c, 0, 43, 88
5, 73680, Note_on_c, 0, 50, 88
5, 73920, Note_on_c, 0, 50, 0
5, 73920, Note_on_c, 0, 43, 0
5, 73920, Note_on_c, 0, 31, 0
5, 73920, Note_on_c, 0, 50, 88
5, 74040, Note_on_c, 0, 50, 0
5, 74040, Note_on_c, 0, 50, 88
5, 74160, Note_on_c, 0, 50, 0
5, 74160, Note_on_c, 0, 31, 88
5, 74160, Note_on_c, 0, 43, 88
5, 74160, Note_on_c, 0, 50, 88
5, 74400, Note_on_c, 0, 50, 0
5, 74400, Note_on_c, 0, 43, 0
5, 74400, Note_on_c, 0, 31, 0
5, 74400, Note_on_c, 0, 50, 88
5, 74520, Note_on_c, 0, 50, 0
5, 74520, Note_on_c, 0, 50, 88
5, 74640, Note_on_c, 0, 50, 0
5, 74640, Note_on_c, 0, 31, 88
5, 74640, Note_on_c, 0, 43, 88
5, 74640, Note_on_c, 0, 50, 88
5, 74880, Note_on_c, 0, 50, 0
5, 74880, Note_on_c, 0, 43, 0
5, 74880, Note_on_c, 0, 31, 0
5, 74880, Note_on_c, 0, 50, 88
5, 75000, Note_on_c, 0, 50, 0
5, 75000, Note_on_c, 0, 50, 88
5, 75120, Note_on_c, 0, 50, 0
5, 75120, Note_on_c, 0, 31, 88
5, 75120, Note_on_c, 0, 43, 88
5, 75120, Note_on_c, 0, 50, 88
5, 75360, Note_on_c, 0, 50, 0
5, 75360, Note_on_c, 0, 43, 0
5, 75360, Note_on_c, 0, 31, 0
5, 75360, Note_on_c, 0, 50, 88
5, 75480, Note_on_c, 0, 50, 0
5, 75480, Note_on_c, 0, 50, 88
5, 75600, Note_on_c, 0, 50, 0
5, 75600, Note_on_c, 0, 31, 88
5, 75600, Note_on_c, 0, 43, 88
5, 75600, Note_on_c, 0, 50, 88
5, 75840, Note_on_c, 0, 50, 0
5, 75840, Note_on_c, 0, 43, 0
5, 75840, Note_on_c, 0, 31, 0
5, 75840, Note_on_c, 0, 50, 88
5, 75960, Note_on_c, 0, 50, 0
5, 75960, Note_on_c, 0, 50, 88
5, 76080, Note_on_c, 0, 50, 0
5, 76080, Note_on_c, 0, 31, 88
5, 76080, Note_on_c, 0, 43, 88
5, 76080, Note_on_c, 0, 50, 88
5, 76320, Note_on_c, 0, 50, 0
5, 76320, Note_on_c, 0, 43, 0
5, 76320, Note_on_c, 0, 31, 0
5, 76320, Note_on_c, 0, 50, 88
5, 76440, Note_on_c, 0, 50, 0
5, 76440, Note_on_c, 0, 50, 88
5, 76560, Note_on_c, 0, 50, 0
5, 76560, Note_on_c, 0, 31, 88
5, 76560, Note_on_c, 0, 43, 88
5, 76560, Note_on_c, 0, 50, 88
5, 76800, Note_on_c, 0, 50, 0
5, 76800, Note_on_c, 0, 43, 0
5, 76800, Note_on_c, 0, 31, 0
5, 77040, Note_on_c, 0, 31, 88
5, 77040, Note_on_c, 0, 43, 88
5, 77280, Note_on_c, 0, 43, 0
5, 77280, Note_on_c, 0, 31, 0
5, 77520, Note_on_c, 0, 31, 88
5, 77520, Note_on_c, 0, 43, 88
5, 77760, Note_on_c, 0, 43, 0
5, 77760, Note_on_c, 0, 31, 0
5, 78000, Note_on_c, 0, 31, 88
5, 78000, Note_on_c, 0, 43, 88
5, 78240, Note_on_c, 0, 43, 0
5, 78240, Note_on_c, 0, 31, 0
5, 78480, Note_on_c, 0, 31, 88
5, 78480, Note_on_c, 0, 43, 88
5, 78720, Note_on_c, 0, 43, 0
5, 78720, Note_on_c, 0, 31, 0
5, 78960, Note_on_c, 0, 31, 88
5, 78960, Note_on_c, 0, 43, 88
5, 79200, Note_on_c, 0, 43, 0
5, 79200, Note_on_c, 0, 31, 0
5, 79440, Note_on_c, 0, 31, 88
5, 79440, Note_on_c, 0, 43, 88
5, 79680, Note_on_c, 0, 43, 0
5, 79680, Note_on_c, 0, 31, 0
5, 79920, Note_on_c, 0, 31, 88
5, 79920, Note_on_c, 0, 43, 88
5, 79967, Note_on_c, 0, 43, 0
5, 79967, Note_on_c, 0, 31, 0
5, 80160, Note_on_c, 0, 31, 114
5, 80160, Note_on_c, 0, 43, 114
5, 80256, Note_on_c, 0, 43, 0
5, 80256, Note_on_c, 0, 31, 0
5, 80256, End_track
0, 0, End_of_file
