0, 0, Header, 1, 2, 480
1, 0, Start_track
1, 0, Title_t, "Tschaikowsky  ""The Seasons"" No.2  Played (c) K.Oguri            "
1, 0, Copyright_t, "Adaptation for Disklavier pianos, by: Robert C. Kuhmann (c) 2012."
1, 0, System_exclusive, 10, 65, 16, 66, 18, 64, 0, 127, 0, 65, 247
1, 0, System_exclusive, 10, 65, 16, 66, 18, 64, 0, 4, 100, 88, 247
1, 0, Time_signature, 2, 2, 24, 8
1, 0, Key_signature, 0, "major"
1, 0, Tempo, 500000
1, 0, End_track
2, 0, Start_track
2, 0, Title_t, "Grand Piano "
2, 0, Program_c, 0, 0
2, 0, Control_c, 0, 7, 115
2, 340, System_exclusive, 10, 65, 16, 66, 18, 64, 1, 48, 3, 12, 247
2, 340, System_exclusive, 10, 65, 16, 66, 18, 64, 1, 51, 80, 60, 247
2, 340, System_exclusive, 10, 65, 16, 66, 18, 64, 1, 52, 60, 79, 247
2, 751, Control_c, 0, 0, 0
2, 752, Control_c, 0, 32, 1
2, 752, Program_c, 0, 0
2, 756, Control_c, 0, 7, 100
2, 948, Control_c, 0, 11, 100
2, 960, Control_c, 0, 10, 64
2, 1152, Control_c, 0, 1, 0
2, 1152, Control_c, 0, 91, 80
2, 1174, Control_c, 0, 99, 1
2, 1175, Control_c, 0, 98, 32
2, 1176, Control_c, 0, 6, 62
2, 1177, Control_c, 0, 38, 0
2, 1186, Control_c, 0, 99, 1
2, 1187, Control_c, 0, 98, 33
2, 1188, Control_c, 0, 6, 54
2, 1189, Control_c, 0, 38, 0
2, 1198, Control_c, 0, 99, 1
2, 1199, Control_c, 0, 98, 99
2, 1200, Control_c, 0, 6, 62
2, 1201, Control_c, 0, 38, 0
2, 1210, Control_c, 0, 99, 1
2, 1211, Control_c, 0, 98, 100
2, 1212, Control_c, 0, 6, 60
2, 1213, Control_c, 0, 38, 0
2, 1222, Control_c, 0, 99, 1
2, 1223, Control_c, 0, 98, 102
2, 1224, Control_c, 0, 6, 70
2, 1225, Control_c, 0, 38, 0
2, 2296, Note_on_c, 0, 57, 106
2, 2297, Note_on_c, 0, 74, 103
2, 2298, Note_on_c, 0, 54, 104
2, 2299, Note_on_c, 0, 78, 97
2, 2299, Note_on_c, 0, 81, 97
2, 2299, Note_on_c, 0, 50, 102
2, 2320, Control_c, 0, 64, 127
2, 2494, Note_on_c, 0, 50, 0
2, 2494, Note_on_c, 0, 81, 0
2, 2511, Note_on_c, 0, 78, 0
2, 2524, Note_on_c, 0, 69, 83
2, 2527, Note_on_c, 0, 62, 90
2, 2530, Note_on_c, 0, 74, 0
2, 2535, Control_c, 0, 64, 63
2, 2539, Control_c, 0, 64, 0
2, 2542, Note_on_c, 0, 57, 0
2, 2553, Note_on_c, 0, 54, 0
2, 2572, Note_on_c, 0, 69, 0
2, 2585, Note_on_c, 0, 62, 0
2, 2728, Note_on_c, 0, 58, 89
2, 2728, Note_on_c, 0, 55, 73
2, 2730, Control_c, 0, 64, 63
2, 2731, Note_on_c, 0, 50, 76
2, 2732, Note_on_c, 0, 70, 100
2, 2734, Note_on_c, 0, 76, 88
2, 2736, Control_c, 0, 64, 127
2, 2739, Note_on_c, 0, 74, 82
2, 2836, Note_on_c, 0, 50, 0
2, 2914, Note_on_c, 0, 76, 0
2, 2926, Control_c, 0, 64, 63
2, 2930, Control_c, 0, 64, 0
2, 2941, Note_on_c, 0, 64, 86
2, 2951, Note_on_c, 0, 55, 0
2, 2953, Note_on_c, 0, 74, 0
2, 2959, Note_on_c, 0, 62, 89
2, 2971, Note_on_c, 0, 70, 0
2, 2983, Note_on_c, 0, 58, 0
2, 2993, Note_on_c, 0, 64, 0
2, 3016, Note_on_c, 0, 62, 0
2, 3155, Note_on_c, 0, 57, 90
2, 3157, Note_on_c, 0, 54, 89
2, 3163, Control_c, 0, 64, 127
2, 3166, Note_on_c, 0, 74, 94
2, 3167, Note_on_c, 0, 81, 91
2, 3168, Note_on_c, 0, 78, 88
2, 3169, Note_on_c, 0, 50, 72
2, 3319, Note_on_c, 0, 81, 0
2, 3331, Note_on_c, 0, 50, 0
2, 3350, Control_c, 0, 64, 63
2, 3355, Control_c, 0, 64, 0
2, 3370, Note_on_c, 0, 54, 0
2, 3382, Note_on_c, 0, 78, 0
2, 3394, Note_on_c, 0, 62, 80
2, 3394, Note_on_c, 0, 69, 86
2, 3396, Note_on_c, 0, 74, 0
2, 3400, Note_on_c, 0, 57, 0
2, 3443, Note_on_c, 0, 69, 0
2, 3455, Note_on_c, 0, 62, 0
2, 3595, Control_c, 0, 64, 127
2, 3601, Note_on_c, 0, 55, 71
2, 3608, Note_on_c, 0, 76, 83
2, 3609, Note_on_c, 0, 50, 74
2, 3610, Note_on_c, 0, 70, 96
2, 3611, Note_on_c, 0, 74, 82
2, 3612, Note_on_c, 0, 58, 81
2, 3718, Note_on_c, 0, 50, 0
2, 3807, Note_on_c, 0, 55, 0
2, 3817, Note_on_c, 0, 76, 0
2, 3820, Note_on_c, 0, 64, 80
2, 3828, Note_on_c, 0, 62, 83
2, 3830, Control_c, 0, 64, 63
2, 3832, Note_on_c, 0, 74, 0
2, 3834, Note_on_c, 0, 70, 0
2, 3836, Control_c, 0, 64, 0
2, 3845, Note_on_c, 0, 58, 0
2, 3865, Note_on_c, 0, 62, 0
2, 3872, Note_on_c, 0, 64, 0
2, 4059, Note_on_c, 0, 69, 93
2, 4060, Note_on_c, 0, 66, 95
2, 4061, Control_c, 0, 64, 127
2, 4063, Note_on_c, 0, 62, 81
2, 4063, Note_on_c, 0, 74, 96
2, 4070, Note_on_c, 0, 60, 83
2, 4134, Note_on_c, 0, 74, 0
2, 4189, Note_on_c, 0, 76, 81
2, 4278, Note_on_c, 0, 76, 0
2, 4278, Note_on_c, 0, 74, 79
2, 4357, Note_on_c, 0, 74, 0
2, 4387, Note_on_c, 0, 76, 91
2, 4482, Note_on_c, 0, 78, 102
2, 4502, Note_on_c, 0, 76, 0
2, 4553, Note_on_c, 0, 78, 0
2, 4578, Note_on_c, 0, 69, 0
2, 4588, Note_on_c, 0, 66, 0
2, 4618, Note_on_c, 0, 62, 0
2, 4639, Note_on_c, 0, 60, 0
2, 4696, Note_on_c, 0, 78, 100
2, 4752, Note_on_c, 0, 78, 0
2, 4899, Note_on_c, 0, 58, 102
2, 4909, Note_on_c, 0, 76, 80
2, 4912, Control_c, 0, 64, 63
2, 4914, Note_on_c, 0, 74, 74
2, 4915, Note_on_c, 0, 67, 80
2, 4921, Control_c, 0, 64, 0
2, 4996, Note_on_c, 0, 57, 86
2, 5007, Note_on_c, 0, 58, 0
2, 5059, Note_on_c, 0, 74, 0
2, 5078, Note_on_c, 0, 76, 0
2, 5117, Note_on_c, 0, 55, 93
2, 5122, Note_on_c, 0, 57, 0
2, 5125, Note_on_c, 0, 79, 93
2, 5166, Note_on_c, 0, 67, 0
2, 5197, Note_on_c, 0, 54, 97
2, 5205, Note_on_c, 0, 79, 0
2, 5232, Note_on_c, 0, 55, 0
2, 5312, Note_on_c, 0, 54, 0
2, 5323, Note_on_c, 0, 52, 97
2, 5333, Note_on_c, 0, 76, 98
2, 5335, Note_on_c, 0, 73, 103
2, 5349, Control_c, 0, 64, 127
2, 5547, Note_on_c, 0, 57, 87
2, 5549, Note_on_c, 0, 69, 92
2, 5560, Control_c, 0, 64, 63
2, 5563, Note_on_c, 0, 52, 0
2, 5564, Note_on_c, 0, 76, 0
2, 5567, Control_c, 0, 64, 0
2, 5573, Note_on_c, 0, 73, 0
2, 5611, Note_on_c, 0, 69, 0
2, 5621, Note_on_c, 0, 57, 0
2, 5762, Note_on_c, 0, 57, 96
2, 5765, Note_on_c, 0, 78, 95
2, 5766, Note_on_c, 0, 81, 97
2, 5767, Note_on_c, 0, 74, 99
2, 5769, Note_on_c, 0, 54, 81
2, 5771, Note_on_c, 0, 50, 77
2, 5776, Control_c, 0, 64, 127
2, 5926, Note_on_c, 0, 54, 0
2, 5926, Note_on_c, 0, 81, 0
2, 5940, Note_on_c, 0, 50, 0
2, 5964, Note_on_c, 0, 78, 0
2, 5970, Note_on_c, 0, 74, 0
2, 5971, Control_c, 0, 64, 63
2, 5976, Control_c, 0, 64, 0
2, 5988, Note_on_c, 0, 57, 0
2, 5995, Note_on_c, 0, 62, 79
2, 5995, Note_on_c, 0, 69, 79
2, 6041, Note_on_c, 0, 69, 0
2, 6055, Note_on_c, 0, 62, 0
2, 6195, Note_on_c, 0, 58, 88
2, 6198, Note_on_c, 0, 55, 66
2, 6199, Note_on_c, 0, 70, 102
2, 6199, Note_on_c, 0, 50, 78
2, 6202, Note_on_c, 0, 74, 84
2, 6202, Note_on_c, 0, 76, 83
2, 6207, Control_c, 0, 64, 127
2, 6324, Note_on_c, 0, 50, 0
2, 6385, Note_on_c, 0, 76, 0
2, 6397, Control_c, 0, 64, 63
2, 6401, Control_c, 0, 64, 0
2, 6410, Note_on_c, 0, 74, 0
2, 6411, Note_on_c, 0, 64, 76
2, 6427, Note_on_c, 0, 55, 0
2, 6427, Note_on_c, 0, 62, 84
2, 6428, Note_on_c, 0, 70, 0
2, 6454, Note_on_c, 0, 58, 0
2, 6463, Note_on_c, 0, 64, 0
2, 6495, Note_on_c, 0, 62, 0
2, 6626, Note_on_c, 0, 57, 86
2, 6626, Note_on_c, 0, 54, 86
2, 6631, Note_on_c, 0, 74, 93
2, 6631, Note_on_c, 0, 81, 91
2, 6632, Control_c, 0, 64, 63
2, 6633, Note_on_c, 0, 78, 89
2, 6635, Note_on_c, 0, 50, 78
2, 6637, Control_c, 0, 64, 127
2, 6766, Note_on_c, 0, 50, 0
2, 6785, Note_on_c, 0, 81, 0
2, 6798, Note_on_c, 0, 54, 0
2, 6826, Control_c, 0, 64, 63
2, 6829, Note_on_c, 0, 78, 0
2, 6832, Control_c, 0, 64, 0
2, 6835, Note_on_c, 0, 74, 0
2, 6838, Note_on_c, 0, 62, 83
2, 6846, Note_on_c, 0, 69, 79
2, 6848, Note_on_c, 0, 57, 0
2, 6891, Note_on_c, 0, 69, 0
2, 6901, Note_on_c, 0, 62, 0
2, 7039, Control_c, 0, 64, 127
2, 7041, Note_on_c, 0, 50, 80
2, 7044, Note_on_c, 0, 58, 90
2, 7045, Note_on_c, 0, 55, 61
2, 7048, Note_on_c, 0, 76, 87
2, 7050, Note_on_c, 0, 74, 87
2, 7051, Note_on_c, 0, 70, 100
2, 7156, Note_on_c, 0, 50, 0
2, 7235, Note_on_c, 0, 55, 0
2, 7252, Note_on_c, 0, 76, 0
2, 7255, Note_on_c, 0, 64, 73
2, 7256, Control_c, 0, 64, 63
2, 7256, Note_on_c, 0, 62, 83
2, 7258, Note_on_c, 0, 74, 0
2, 7261, Control_c, 0, 64, 0
2, 7273, Note_on_c, 0, 58, 0
2, 7274, Note_on_c, 0, 70, 0
2, 7298, Note_on_c, 0, 64, 0
2, 7298, Note_on_c, 0, 62, 0
2, 7490, Control_c, 0, 64, 63
2, 7491, Note_on_c, 0, 74, 87
2, 7492, Control_c, 0, 64, 127
2, 7497, Note_on_c, 0, 66, 75
2, 7500, Note_on_c, 0, 69, 66
2, 7508, Note_on_c, 0, 62, 61
2, 7514, Note_on_c, 0, 60, 54
2, 7564, Note_on_c, 0, 74, 0
2, 7609, Note_on_c, 0, 76, 86
2, 7681, Note_on_c, 0, 60, 0
2, 7693, Note_on_c, 0, 74, 79
2, 7697, Note_on_c, 0, 76, 0
2, 7795, Note_on_c, 0, 76, 97
2, 7796, Note_on_c, 0, 74, 0
2, 7891, Note_on_c, 0, 78, 103
2, 7917, Note_on_c, 0, 76, 0
2, 7966, Note_on_c, 0, 78, 0
2, 7973, Note_on_c, 0, 69, 0
2, 8022, Note_on_c, 0, 66, 0
2, 8044, Note_on_c, 0, 62, 0
2, 8118, Note_on_c, 0, 78, 109
2, 8209, Note_on_c, 0, 78, 0
2, 8334, Note_on_c, 0, 58, 91
2, 8337, Note_on_c, 0, 74, 102
2, 8338, Note_on_c, 0, 62, 80
2, 8342, Note_on_c, 0, 76, 102
2, 8358, Control_c, 0, 64, 63
2, 8365, Control_c, 0, 64, 0
2, 8392, Note_on_c, 0, 74, 0
2, 8450, Note_on_c, 0, 78, 97
2, 8458, Note_on_c, 0, 58, 0
2, 8466, Note_on_c, 0, 62, 0
2, 8480, Note_on_c, 0, 76, 0
2, 8525, Note_on_c, 0, 78, 0
2, 8557, Note_on_c, 0, 58, 104
2, 8572, Note_on_c, 0, 79, 99
2, 8634, Note_on_c, 0, 58, 0
2, 8641, Note_on_c, 0, 79, 0
2, 8660, Note_on_c, 0, 57, 98
2, 8661, Note_on_c, 0, 81, 102
2, 8743, Note_on_c, 0, 57, 0
2, 8767, Note_on_c, 0, 81, 0
2, 8779, Note_on_c, 0, 82, 109
2, 8782, Note_on_c, 0, 55, 110
2, 8794, Control_c, 0, 64, 127
2, 8851, Note_on_c, 0, 82, 0
2, 8890, Note_on_c, 0, 55, 0
2, 9316, Control_c, 0, 64, 63
2, 9319, Control_c, 0, 64, 0
2, 9326, Note_on_c, 0, 51, 102
2, 9331, Note_on_c, 0, 43, 84
2, 9371, Note_on_c, 0, 43, 0
2, 9380, Note_on_c, 0, 51, 0
2, 9436, Note_on_c, 0, 61, 77
2, 9436, Note_on_c, 0, 63, 82
2, 9466, Note_on_c, 0, 61, 0
2, 9481, Note_on_c, 0, 63, 0
2, 9546, Note_on_c, 0, 58, 91
2, 9600, Note_on_c, 0, 58, 0
2, 9637, Note_on_c, 0, 61, 87
2, 9640, Note_on_c, 0, 63, 84
2, 9692, Note_on_c, 0, 61, 0
2, 9695, Note_on_c, 0, 63, 0
2, 9758, Note_on_c, 0, 56, 78
2, 9760, Control_c, 0, 64, 127
2, 9769, Note_on_c, 0, 60, 87
2, 9829, Note_on_c, 0, 56, 0
2, 9838, Note_on_c, 0, 60, 0
2, 9974, Note_on_c, 0, 72, 78
2, 9979, Note_on_c, 0, 63, 85
2, 9986, Note_on_c, 0, 44, 66
2, 9992, Note_on_c, 0, 51, 70
2, 10016, Control_c, 0, 64, 63
2, 10022, Control_c, 0, 64, 0
2, 10027, Note_on_c, 0, 63, 0
2, 10027, Note_on_c, 0, 72, 0
2, 10039, Note_on_c, 0, 51, 0
2, 10051, Note_on_c, 0, 44, 0
2, 10203, Note_on_c, 0, 53, 99
2, 10204, Control_c, 0, 64, 127
2, 10212, Note_on_c, 0, 45, 71
2, 10249, Note_on_c, 0, 45, 0
2, 10257, Note_on_c, 0, 53, 0
2, 10306, Note_on_c, 0, 63, 77
2, 10309, Note_on_c, 0, 65, 78
2, 10375, Note_on_c, 0, 63, 0
2, 10384, Control_c, 0, 64, 63
2, 10385, Control_c, 0, 64, 0
2, 10388, Note_on_c, 0, 65, 0
2, 10411, Note_on_c, 0, 60, 91
2, 10450, Note_on_c, 0, 60, 0
2, 10486, Note_on_c, 0, 65, 86
2, 10487, Note_on_c, 0, 63, 89
2, 10549, Note_on_c, 0, 63, 0
2, 10565, Note_on_c, 0, 65, 0
2, 10598, Control_c, 0, 64, 127
2, 10619, Note_on_c, 0, 58, 98
2, 10624, Note_on_c, 0, 62, 103
2, 10708, Note_on_c, 0, 58, 0
2, 10722, Note_on_c, 0, 62, 0
2, 10840, Note_on_c, 0, 74, 86
2, 10840, Note_on_c, 0, 65, 81
2, 10842, Note_on_c, 0, 46, 77
2, 10856, Note_on_c, 0, 53, 63
2, 10867, Control_c, 0, 64, 63
2, 10870, Control_c, 0, 64, 0
2, 10888, Note_on_c, 0, 65, 0
2, 10889, Note_on_c, 0, 53, 0
2, 10890, Note_on_c, 0, 74, 0
2, 10918, Note_on_c, 0, 46, 0
2, 11055, Control_c, 0, 64, 127
2, 11068, Note_on_c, 0, 55, 78
2, 11077, Note_on_c, 0, 62, 79
2, 11077, Note_on_c, 0, 47, 64
2, 11150, Note_on_c, 0, 62, 0
2, 11223, Note_on_c, 0, 47, 0
2, 11296, Note_on_c, 0, 59, 70
2, 11302, Note_on_c, 0, 74, 76
2, 11307, Note_on_c, 0, 55, 0
2, 11311, Note_on_c, 0, 67, 63
2, 11314, Control_c, 0, 64, 63
2, 11315, Note_on_c, 0, 65, 48
2, 11320, Control_c, 0, 64, 0
2, 11352, Note_on_c, 0, 65, 0
2, 11354, Note_on_c, 0, 74, 0
2, 11356, Note_on_c, 0, 59, 0
2, 11362, Note_on_c, 0, 67, 0
2, 11509, Control_c, 0, 64, 127
2, 11516, Note_on_c, 0, 63, 95
2, 11518, Note_on_c, 0, 48, 88
2, 11521, Note_on_c, 0, 55, 87
2, 11596, Note_on_c, 0, 63, 0
2, 11692, Note_on_c, 0, 48, 0
2, 11723, Note_on_c, 0, 60, 94
2, 11728, Note_on_c, 0, 75, 97
2, 11730, Note_on_c, 0, 67, 84
2, 11751, Control_c, 0, 64, 63
2, 11754, Note_on_c, 0, 55, 0
2, 11758, Control_c, 0, 64, 0
2, 11764, Note_on_c, 0, 67, 0
2, 11797, Note_on_c, 0, 75, 0
2, 11804, Note_on_c, 0, 60, 0
2, 11935, Note_on_c, 0, 65, 94
2, 11941, Note_on_c, 0, 50, 98
2, 11945, Note_on_c, 0, 55, 96
2, 11950, Control_c, 0, 64, 63
2, 11950, Control_c, 0, 64, 127
2, 12038, Note_on_c, 0, 65, 0
2, 12160, Control_c, 0, 64, 63
2, 12163, Note_on_c, 0, 62, 78
2, 12164, Note_on_c, 0, 74, 88
2, 12164, Note_on_c, 0, 79, 83
2, 12167, Control_c, 0, 64, 0
2, 12199, Note_on_c, 0, 50, 0
2, 12211, Note_on_c, 0, 74, 0
2, 12214, Note_on_c, 0, 55, 0
2, 12217, Note_on_c, 0, 79, 0
2, 12226, Note_on_c, 0, 62, 0
2, 12372, Control_c, 0, 64, 63
2, 12373, Control_c, 0, 64, 127
2, 12382, Note_on_c, 0, 63, 90
2, 12387, Note_on_c, 0, 55, 73
2, 12388, Note_on_c, 0, 48, 71
2, 12508, Note_on_c, 0, 63, 0
2, 12580, Control_c, 0, 64, 63
2, 12586, Control_c, 0, 64, 0
2, 12594, Note_on_c, 0, 75, 69
2, 12595, Note_on_c, 0, 60, 69
2, 12596, Note_on_c, 0, 67, 65
2, 12608, Note_on_c, 0, 48, 0
2, 12637, Note_on_c, 0, 55, 0
2, 12638, Note_on_c, 0, 75, 0
2, 12639, Note_on_c, 0, 67, 0
2, 12659, Note_on_c, 0, 60, 0
2, 12815, Control_c, 0, 64, 127
2, 12824, Note_on_c, 0, 47, 69
2, 12831, Note_on_c, 0, 55, 70
2, 12883, Note_on_c, 0, 47, 0
2, 12893, Note_on_c, 0, 55, 0
2, 12926, Note_on_c, 0, 65, 62
2, 12928, Note_on_c, 0, 67, 65
2, 12982, Note_on_c, 0, 67, 0
2, 12987, Note_on_c, 0, 65, 0
2, 13034, Note_on_c, 0, 62, 93
2, 13063, Control_c, 0, 64, 63
2, 13070, Control_c, 0, 64, 0
2, 13090, Note_on_c, 0, 62, 0
2, 13127, Note_on_c, 0, 65, 84
2, 13128, Note_on_c, 0, 67, 89
2, 13183, Note_on_c, 0, 65, 0
2, 13187, Note_on_c, 0, 67, 0
2, 13247, Note_on_c, 0, 60, 99
2, 13249, Note_on_c, 0, 64, 97
2, 13252, Control_c, 0, 64, 63
2, 13252, Control_c, 0, 64, 127
2, 13369, Note_on_c, 0, 64, 0
2, 13433, Note_on_c, 0, 60, 0
2, 13459, Note_on_c, 0, 76, 92
2, 13462, Note_on_c, 0, 67, 87
2, 13466, Note_on_c, 0, 55, 78
2, 13468, Note_on_c, 0, 48, 70
2, 13475, Control_c, 0, 64, 63
2, 13481, Control_c, 0, 64, 0
2, 13504, Note_on_c, 0, 67, 0
2, 13520, Note_on_c, 0, 76, 0
2, 13524, Note_on_c, 0, 48, 0
2, 13525, Note_on_c, 0, 55, 0
2, 13671, Control_c, 0, 64, 63
2, 13672, Control_c, 0, 64, 127
2, 13688, Note_on_c, 0, 57, 83
2, 13694, Note_on_c, 0, 49, 78
2, 13763, Note_on_c, 0, 49, 0
2, 13771, Note_on_c, 0, 57, 0
2, 13801, Note_on_c, 0, 69, 81
2, 13804, Note_on_c, 0, 67, 73
2, 13863, Note_on_c, 0, 69, 0
2, 13866, Note_on_c, 0, 67, 0
2, 13892, Note_on_c, 0, 64, 92
2, 13904, Control_c, 0, 64, 63
2, 13908, Control_c, 0, 64, 0
2, 13963, Note_on_c, 0, 64, 0
2, 13982, Note_on_c, 0, 67, 92
2, 13984, Note_on_c, 0, 69, 93
2, 14041, Note_on_c, 0, 67, 0
2, 14053, Note_on_c, 0, 69, 0
2, 14083, Control_c, 0, 64, 127
2, 14095, Note_on_c, 0, 62, 103
2, 14100, Note_on_c, 0, 65, 99
2, 14225, Note_on_c, 0, 65, 0
2, 14288, Note_on_c, 0, 62, 0
2, 14308, Note_on_c, 0, 77, 89
2, 14309, Note_on_c, 0, 69, 87
2, 14310, Note_on_c, 0, 57, 80
2, 14312, Control_c, 0, 64, 63
2, 14314, Note_on_c, 0, 50, 77
2, 14319, Control_c, 0, 64, 0
2, 14360, Note_on_c, 0, 69, 0
2, 14363, Note_on_c, 0, 77, 0
2, 14372, Note_on_c, 0, 57, 0
2, 14379, Note_on_c, 0, 50, 0
2, 14508, Control_c, 0, 64, 127
2, 14521, Note_on_c, 0, 64, 83
2, 14530, Note_on_c, 0, 57, 68
2, 14531, Note_on_c, 0, 49, 85
2, 14627, Note_on_c, 0, 64, 0
2, 14650, Note_on_c, 0, 49, 0
2, 14734, Note_on_c, 0, 61, 82
2, 14738, Note_on_c, 0, 76, 77
2, 14739, Note_on_c, 0, 57, 0
2, 14740, Control_c, 0, 64, 63
2, 14743, Note_on_c, 0, 67, 74
2, 14745, Note_on_c, 0, 69, 67
2, 14747, Control_c, 0, 64, 0
2, 14761, Note_on_c, 0, 61, 0
2, 14782, Note_on_c, 0, 67, 0
2, 14791, Note_on_c, 0, 76, 0
2, 14792, Note_on_c, 0, 69, 0
2, 14946, Control_c, 0, 64, 63
2, 14947, Control_c, 0, 64, 127
2, 14950, Note_on_c, 0, 65, 91
2, 14958, Note_on_c, 0, 50, 93
2, 14959, Note_on_c, 0, 57, 90
2, 15064, Note_on_c, 0, 65, 0
2, 15138, Note_on_c, 0, 50, 0
2, 15161, Note_on_c, 0, 62, 99
2, 15166, Note_on_c, 0, 77, 98
2, 15166, Note_on_c, 0, 69, 97
2, 15205, Note_on_c, 0, 57, 0
2, 15214, Note_on_c, 0, 69, 0
2, 15220, Note_on_c, 0, 77, 0
2, 15231, Control_c, 0, 64, 63
2, 15237, Control_c, 0, 64, 0
2, 15252, Note_on_c, 0, 62, 0
2, 15370, Note_on_c, 0, 67, 101
2, 15381, Control_c, 0, 64, 63
2, 15382, Control_c, 0, 64, 127
2, 15390, Note_on_c, 0, 52, 102
2, 15391, Note_on_c, 0, 57, 102
2, 15450, Note_on_c, 0, 67, 0
2, 15605, Control_c, 0, 64, 63
2, 15610, Note_on_c, 0, 81, 93
2, 15612, Control_c, 0, 64, 0
2, 15613, Note_on_c, 0, 73, 102
2, 15619, Note_on_c, 0, 64, 77
2, 15656, Note_on_c, 0, 73, 0
2, 15658, Note_on_c, 0, 52, 0
2, 15661, Note_on_c, 0, 81, 0
2, 15669, Note_on_c, 0, 57, 0
2, 15678, Note_on_c, 0, 64, 0
2, 15815, Note_on_c, 0, 65, 80
2, 15816, Control_c, 0, 64, 127
2, 15831, Note_on_c, 0, 50, 78
2, 15833, Note_on_c, 0, 57, 68
2, 15939, Note_on_c, 0, 65, 0
2, 16024, Note_on_c, 0, 50, 0
2, 16032, Control_c, 0, 64, 63
2, 16038, Note_on_c, 0, 77, 76
2, 16039, Control_c, 0, 64, 0
2, 16045, Note_on_c, 0, 69, 67
2, 16050, Note_on_c, 0, 62, 67
2, 16082, Note_on_c, 0, 57, 0
2, 16093, Note_on_c, 0, 62, 0
2, 16094, Note_on_c, 0, 69, 0
2, 16095, Note_on_c, 0, 77, 0
2, 16240, Control_c, 0, 64, 63
2, 16240, Note_on_c, 0, 64, 67
2, 16241, Control_c, 0, 64, 127
2, 16254, Note_on_c, 0, 57, 58
2, 16255, Note_on_c, 0, 49, 76
2, 16345, Note_on_c, 0, 64, 0
2, 16384, Note_on_c, 0, 49, 0
2, 16453, Note_on_c, 0, 61, 83
2, 16456, Note_on_c, 0, 76, 79
2, 16459, Note_on_c, 0, 67, 68
2, 16465, Note_on_c, 0, 69, 66
2, 16482, Note_on_c, 0, 57, 0
2, 16484, Control_c, 0, 64, 63
2, 16487, Control_c, 0, 64, 0
2, 16497, Note_on_c, 0, 67, 0
2, 16507, Note_on_c, 0, 61, 0
2, 16509, Note_on_c, 0, 69, 0
2, 16510, Note_on_c, 0, 76, 0
2, 16660, Control_c, 0, 64, 127
2, 16663, Note_on_c, 0, 65, 96
2, 16675, Note_on_c, 0, 50, 102
2, 16676, Note_on_c, 0, 57, 101
2, 16754, Note_on_c, 0, 65, 0
2, 16826, Note_on_c, 0, 50, 0
2, 16870, Note_on_c, 0, 77, 93
2, 16873, Note_on_c, 0, 57, 0
2, 16873, Note_on_c, 0, 69, 90
2, 16874, Note_on_c, 0, 62, 98
2, 16907, Control_c, 0, 64, 63
2, 16911, Control_c, 0, 64, 0
2, 16919, Note_on_c, 0, 69, 0
2, 16927, Note_on_c, 0, 77, 0
2, 16943, Note_on_c, 0, 62, 0
2, 17072, Control_c, 0, 64, 127
2, 17077, Note_on_c, 0, 69, 103
2, 17090, Note_on_c, 0, 59, 90
2, 17097, Note_on_c, 0, 51, 86
2, 17177, Note_on_c, 0, 69, 0
2, 17199, Note_on_c, 0, 51, 0
2, 17275, Note_on_c, 0, 59, 0
2, 17297, Note_on_c, 0, 83, 87
2, 17299, Note_on_c, 0, 78, 95
2, 17306, Note_on_c, 0, 66, 99
2, 17319, Control_c, 0, 64, 63
2, 17322, Control_c, 0, 64, 0
2, 17338, Note_on_c, 0, 83, 0
2, 17342, Note_on_c, 0, 78, 0
2, 17349, Note_on_c, 0, 66, 0
2, 17508, Note_on_c, 0, 67, 69
2, 17523, Note_on_c, 0, 52, 74
2, 17527, Note_on_c, 0, 59, 76
2, 17538, Control_c, 0, 64, 127
2, 17614, Note_on_c, 0, 67, 0
2, 17701, Note_on_c, 0, 52, 0
2, 17726, Note_on_c, 0, 79, 81
2, 17731, Note_on_c, 0, 71, 83
2, 17734, Note_on_c, 0, 64, 70
2, 17739, Control_c, 0, 64, 63
2, 17746, Control_c, 0, 64, 0
2, 17758, Note_on_c, 0, 59, 0
2, 17778, Note_on_c, 0, 79, 0
2, 17779, Note_on_c, 0, 71, 0
2, 17780, Note_on_c, 0, 64, 0
2, 17938, Control_c, 0, 64, 127
2, 17947, Note_on_c, 0, 66, 87
2, 17955, Note_on_c, 0, 59, 66
2, 17958, Note_on_c, 0, 51, 67
2, 18067, Note_on_c, 0, 51, 0
2, 18067, Note_on_c, 0, 66, 0
2, 18124, Note_on_c, 0, 59, 0
2, 18153, Note_on_c, 0, 78, 80
2, 18158, Note_on_c, 0, 63, 93
2, 18166, Note_on_c, 0, 71, 70
2, 18168, Note_on_c, 0, 69, 35
2, 18197, Note_on_c, 0, 71, 0
2, 18199, Control_c, 0, 64, 63
2, 18205, Control_c, 0, 64, 0
2, 18206, Note_on_c, 0, 69, 0
2, 18209, Note_on_c, 0, 63, 0
2, 18220, Note_on_c, 0, 78, 0
2, 18366, Note_on_c, 0, 52, 98
2, 18370, Note_on_c, 0, 59, 102
2, 18370, Note_on_c, 0, 67, 93
2, 18376, Control_c, 0, 64, 63
2, 18377, Control_c, 0, 64, 127
2, 18481, Note_on_c, 0, 67, 0
2, 18538, Note_on_c, 0, 52, 0
2, 18567, Note_on_c, 0, 64, 91
2, 18568, Note_on_c, 0, 79, 91
2, 18568, Note_on_c, 0, 71, 89
2, 18600, Note_on_c, 0, 71, 0
2, 18601, Note_on_c, 0, 59, 0
2, 18624, Control_c, 0, 64, 63
2, 18626, Note_on_c, 0, 64, 0
2, 18628, Note_on_c, 0, 79, 0
2, 18637, Control_c, 0, 64, 0
2, 18765, Control_c, 0, 64, 63
2, 18770, Control_c, 0, 64, 127
2, 18783, Note_on_c, 0, 71, 98
2, 18784, Note_on_c, 0, 53, 98
2, 18795, Note_on_c, 0, 61, 109
2, 18841, Note_on_c, 0, 61, 0
2, 18841, Note_on_c, 0, 53, 0
2, 18843, Note_on_c, 0, 71, 0
2, 19009, Control_c, 0, 64, 63
2, 19012, Control_c, 0, 64, 0
2, 19014, Note_on_c, 0, 85, 88
2, 19015, Note_on_c, 0, 80, 89
2, 19022, Note_on_c, 0, 68, 83
2, 19042, Note_on_c, 0, 85, 0
2, 19053, Note_on_c, 0, 68, 0
2, 19064, Note_on_c, 0, 80, 0
2, 19227, Note_on_c, 0, 69, 74
2, 19231, Control_c, 0, 64, 63
2, 19231, Control_c, 0, 64, 127
2, 19232, Note_on_c, 0, 61, 96
2, 19233, Note_on_c, 0, 54, 89
2, 19329, Note_on_c, 0, 69, 0
2, 19351, Note_on_c, 0, 54, 0
2, 19408, Note_on_c, 0, 61, 0
2, 19432, Note_on_c, 0, 81, 86
2, 19434, Note_on_c, 0, 73, 98
2, 19442, Note_on_c, 0, 66, 86
2, 19456, Control_c, 0, 64, 63
2, 19463, Control_c, 0, 64, 0
2, 19481, Note_on_c, 0, 73, 0
2, 19484, Note_on_c, 0, 81, 0
2, 19494, Note_on_c, 0, 66, 0
2, 19639, Control_c, 0, 64, 127
2, 19649, Note_on_c, 0, 54, 98
2, 19651, Note_on_c, 0, 72, 108
2, 19651, Note_on_c, 0, 62, 99
2, 19738, Note_on_c, 0, 54, 0
2, 19771, Note_on_c, 0, 80, 20
2, 19786, Note_on_c, 0, 72, 0
2, 19817, Note_on_c, 0, 80, 0
2, 19840, Note_on_c, 0, 62, 0
2, 19858, Note_on_c, 0, 69, 78
2, 19866, Note_on_c, 0, 81, 91
2, 19870, Note_on_c, 0, 86, 60
2, 19882, Control_c, 0, 64, 63
2, 19888, Control_c, 0, 64, 0
2, 19911, Note_on_c, 0, 81, 0
2, 19914, Note_on_c, 0, 86, 0
2, 19916, Note_on_c, 0, 69, 0
2, 20071, Note_on_c, 0, 71, 93
2, 20086, Note_on_c, 0, 55, 89
2, 20089, Note_on_c, 0, 62, 98
2, 20101, Control_c, 0, 64, 63
2, 20101, Control_c, 0, 64, 127
2, 20181, Note_on_c, 0, 71, 0
2, 20215, Note_on_c, 0, 55, 0
2, 20266, Note_on_c, 0, 62, 0
2, 20283, Note_on_c, 0, 83, 93
2, 20285, Note_on_c, 0, 74, 98
2, 20289, Note_on_c, 0, 67, 83
2, 20302, Control_c, 0, 64, 63
2, 20308, Control_c, 0, 64, 0
2, 20332, Note_on_c, 0, 74, 0
2, 20332, Note_on_c, 0, 83, 0
2, 20344, Note_on_c, 0, 67, 0
2, 20483, Note_on_c, 0, 72, 107
2, 20488, Control_c, 0, 64, 127
2, 20493, Note_on_c, 0, 62, 103
2, 20494, Note_on_c, 0, 54, 103
2, 20581, Note_on_c, 0, 54, 0
2, 20617, Note_on_c, 0, 72, 0
2, 20680, Note_on_c, 0, 62, 0
2, 20689, Note_on_c, 0, 69, 96
2, 20695, Note_on_c, 0, 86, 94
2, 20698, Note_on_c, 0, 81, 96
2, 20725, Control_c, 0, 64, 63
2, 20728, Control_c, 0, 64, 0
2, 20743, Note_on_c, 0, 86, 0
2, 20745, Note_on_c, 0, 81, 0
2, 20758, Note_on_c, 0, 69, 0
2, 20903, Note_on_c, 0, 71, 101
2, 20909, Note_on_c, 0, 55, 99
2, 20911, Control_c, 0, 64, 63
2, 20912, Control_c, 0, 64, 127
2, 20914, Note_on_c, 0, 62, 108
2, 21031, Note_on_c, 0, 71, 0
2, 21058, Note_on_c, 0, 55, 0
2, 21101, Note_on_c, 0, 62, 0
2, 21102, Note_on_c, 0, 67, 88
2, 21107, Note_on_c, 0, 83, 86
2, 21109, Note_on_c, 0, 74, 94
2, 21123, Control_c, 0, 64, 63
2, 21136, Control_c, 0, 64, 0
2, 21138, Note_on_c, 0, 74, 0
2, 21146, Note_on_c, 0, 67, 0
2, 21175, Note_on_c, 0, 83, 0
2, 21337, Note_on_c, 0, 74, 108
2, 21338, Note_on_c, 0, 70, 108
2, 21340, Note_on_c, 0, 67, 101
2, 21340, Note_on_c, 0, 88, 103
2, 21344, Control_c, 0, 64, 127
2, 21467, Note_on_c, 0, 86, 93
2, 21525, Note_on_c, 0, 88, 0
2, 21571, Note_on_c, 0, 82, 100
2, 21577, Note_on_c, 0, 70, 0
2, 21578, Note_on_c, 0, 74, 0
2, 21586, Note_on_c, 0, 67, 0
2, 21604, Note_on_c, 0, 86, 0
2, 21657, Note_on_c, 0, 81, 87
2, 21713, Note_on_c, 0, 82, 0
2, 21753, Note_on_c, 0, 76, 96
2, 21763, Note_on_c, 0, 79, 93
2, 21799, Note_on_c, 0, 81, 0
2, 21820, Note_on_c, 0, 79, 0
2, 21868, Note_on_c, 0, 74, 88
2, 21906, Note_on_c, 0, 76, 0
2, 21971, Note_on_c, 0, 70, 84
2, 22003, Note_on_c, 0, 74, 0
2, 22066, Note_on_c, 0, 69, 72
2, 22128, Note_on_c, 0, 70, 0
2, 22175, Note_on_c, 0, 64, 91
2, 22183, Note_on_c, 0, 67, 89
2, 22220, Note_on_c, 0, 69, 0
2, 22233, Note_on_c, 0, 67, 0
2, 22281, Note_on_c, 0, 62, 84
2, 22327, Note_on_c, 0, 64, 0
2, 22390, Note_on_c, 0, 58, 94
2, 22422, Note_on_c, 0, 62, 0
2, 22483, Note_on_c, 0, 57, 88
2, 22525, Note_on_c, 0, 58, 0
2, 22591, Note_on_c, 0, 55, 89
2, 22592, Note_on_c, 0, 52, 93
2, 22624, Note_on_c, 0, 57, 0
2, 22660, Note_on_c, 0, 55, 0
2, 22700, Note_on_c, 0, 50, 88
2, 22726, Note_on_c, 0, 52, 0
2, 22806, Note_on_c, 0, 46, 84
2, 22825, Note_on_c, 0, 50, 0
2, 22888, Note_on_c, 0, 45, 69
2, 22930, Note_on_c, 0, 46, 0
2, 23018, Note_on_c, 0, 43, 106
2, 23020, Control_c, 0, 64, 63
2, 23030, Control_c, 0, 64, 0
2, 23058, Note_on_c, 0, 45, 0
2, 23090, Note_on_c, 0, 43, 0
2, 23244, Note_on_c, 0, 43, 99
2, 23344, Note_on_c, 0, 43, 0
2, 23458, Note_on_c, 0, 44, 78
2, 23480, Note_on_c, 0, 64, 91
2, 23482, Note_on_c, 0, 62, 86
2, 23559, Note_on_c, 0, 45, 79
2, 23607, Note_on_c, 0, 44, 0
2, 23670, Note_on_c, 0, 46, 90
2, 23682, Note_on_c, 0, 45, 0
2, 23779, Note_on_c, 0, 44, 103
2, 23796, Note_on_c, 0, 46, 0
2, 23860, Note_on_c, 0, 64, 0
2, 23874, Note_on_c, 0, 62, 0
2, 23881, Note_on_c, 0, 45, 104
2, 23920, Note_on_c, 0, 44, 0
2, 23940, Note_on_c, 0, 45, 0
2, 24107, Note_on_c, 0, 45, 76
2, 24108, Note_on_c, 0, 69, 88
2, 24109, Note_on_c, 0, 55, 89
2, 24109, Note_on_c, 0, 61, 100
2, 24111, Note_on_c, 0, 64, 91
2, 24141, Note_on_c, 0, 45, 0
2, 24147, Note_on_c, 0, 64, 0
2, 24148, Note_on_c, 0, 61, 0
2, 24154, Note_on_c, 0, 55, 0
2, 24161, Note_on_c, 0, 69, 0
2, 24355, Note_on_c, 0, 74, 88
2, 24355, Note_on_c, 0, 69, 90
2, 24356, Note_on_c, 0, 50, 101
2, 24357, Note_on_c, 0, 54, 103
2, 24358, Note_on_c, 0, 62, 101
2, 24358, Note_on_c, 0, 57, 96
2, 24371, Control_c, 0, 64, 127
2, 24379, Note_on_c, 0, 62, 0
2, 24391, Note_on_c, 0, 69, 0
2, 24391, Note_on_c, 0, 57, 0
2, 24397, Note_on_c, 0, 54, 0
2, 24399, Note_on_c, 0, 74, 0
2, 24400, Note_on_c, 0, 50, 0
2, 24726, Control_c, 0, 64, 63
2, 24732, Control_c, 0, 64, 0
2, 24900, Note_on_c, 0, 78, 86
2, 25002, Note_on_c, 0, 76, 71
2, 25036, Note_on_c, 0, 78, 0
2, 25102, Note_on_c, 0, 74, 80
2, 25146, Note_on_c, 0, 76, 0
2, 25186, Note_on_c, 0, 73, 89
2, 25237, Note_on_c, 0, 74, 0
2, 25300, Note_on_c, 0, 73, 0
2, 25311, Note_on_c, 0, 71, 82
2, 25315, Control_c, 0, 64, 63
2, 25317, Note_on_c, 0, 62, 90
2, 25318, Note_on_c, 0, 66, 100
2, 25318, Control_c, 0, 64, 127
2, 25324, Note_on_c, 0, 59, 83
2, 25362, Note_on_c, 0, 71, 0
2, 25513, Note_on_c, 0, 62, 0
2, 25513, Note_on_c, 0, 66, 0
2, 25537, Note_on_c, 0, 59, 0
2, 25543, Note_on_c, 0, 73, 90
2, 25605, Note_on_c, 0, 73, 0
2, 25759, Note_on_c, 0, 61, 90
2, 25760, Control_c, 0, 64, 63
2, 25768, Control_c, 0, 64, 0
2, 25772, Note_on_c, 0, 54, 85
2, 25855, Note_on_c, 0, 54, 0
2, 25858, Note_on_c, 0, 52, 74
2, 25975, Note_on_c, 0, 66, 80
2, 25977, Note_on_c, 0, 70, 83
2, 25978, Note_on_c, 0, 50, 78
2, 25986, Note_on_c, 0, 61, 0
2, 25987, Note_on_c, 0, 52, 0
2, 26002, Note_on_c, 0, 66, 0
2, 26037, Note_on_c, 0, 70, 0
2, 26074, Note_on_c, 0, 49, 73
2, 26080, Note_on_c, 0, 50, 0
2, 26194, Note_on_c, 0, 62, 90
2, 26194, Note_on_c, 0, 47, 91
2, 26204, Note_on_c, 0, 49, 0
2, 26212, Control_c, 0, 64, 63
2, 26213, Control_c, 0, 64, 127
2, 26353, Note_on_c, 0, 62, 0
2, 26400, Note_on_c, 0, 71, 73
2, 26405, Note_on_c, 0, 66, 82
2, 26407, Note_on_c, 0, 47, 0
2, 26425, Control_c, 0, 64, 63
2, 26431, Control_c, 0, 64, 0
2, 26457, Note_on_c, 0, 66, 0
2, 26458, Note_on_c, 0, 71, 0
2, 26642, Note_on_c, 0, 61, 82
2, 26647, Note_on_c, 0, 59, 53
2, 26649, Note_on_c, 0, 55, 53
2, 26653, Control_c, 0, 64, 63
2, 26654, Control_c, 0, 64, 127
2, 26733, Note_on_c, 0, 61, 0
2, 26745, Note_on_c, 0, 73, 74
2, 26845, Note_on_c, 0, 47, 59
2, 26869, Note_on_c, 0, 67, 68
2, 26874, Note_on_c, 0, 55, 0
2, 26890, Note_on_c, 0, 59, 0
2, 26920, Note_on_c, 0, 73, 0
2, 26962, Note_on_c, 0, 71, 69
2, 26966, Note_on_c, 0, 67, 0
2, 27062, Note_on_c, 0, 62, 86
2, 27068, Note_on_c, 0, 59, 82
2, 27070, Control_c, 0, 64, 63
2, 27070, Note_on_c, 0, 54, 79
2, 27073, Note_on_c, 0, 71, 0
2, 27081, Control_c, 0, 64, 0
2, 27106, Control_c, 0, 64, 63
2, 27109, Note_on_c, 0, 47, 0
2, 27125, Control_c, 0, 64, 127
2, 27163, Note_on_c, 0, 74, 86
2, 27235, Note_on_c, 0, 62, 0
2, 27275, Note_on_c, 0, 47, 74
2, 27278, Note_on_c, 0, 66, 88
2, 27295, Note_on_c, 0, 74, 0
2, 27310, Note_on_c, 0, 54, 0
2, 27352, Note_on_c, 0, 66, 0
2, 27364, Note_on_c, 0, 71, 86
2, 27367, Note_on_c, 0, 59, 0
2, 27416, Note_on_c, 0, 71, 0
2, 27461, Control_c, 0, 64, 63
2, 27496, Note_on_c, 0, 55, 79
2, 27496, Note_on_c, 0, 59, 91
2, 27501, Control_c, 0, 64, 127
2, 27502, Note_on_c, 0, 47, 0
2, 27502, Note_on_c, 0, 67, 97
2, 27502, Note_on_c, 0, 52, 75
2, 27610, Note_on_c, 0, 67, 0
2, 27610, Note_on_c, 0, 79, 77
2, 27698, Note_on_c, 0, 79, 0
2, 27708, Note_on_c, 0, 52, 0
2, 27718, Note_on_c, 0, 47, 53
2, 27735, Note_on_c, 0, 71, 87
2, 27749, Note_on_c, 0, 55, 0
2, 27763, Note_on_c, 0, 59, 0
2, 27804, Note_on_c, 0, 71, 0
2, 27823, Note_on_c, 0, 76, 84
2, 27877, Note_on_c, 0, 76, 0
2, 27939, Note_on_c, 0, 54, 83
2, 27941, Note_on_c, 0, 59, 84
2, 27948, Note_on_c, 0, 50, 72
2, 27949, Note_on_c, 0, 66, 102
2, 27952, Control_c, 0, 64, 63
2, 27959, Control_c, 0, 64, 0
2, 27964, Note_on_c, 0, 47, 0
2, 28027, Control_c, 0, 64, 63
2, 28045, Control_c, 0, 64, 127
2, 28047, Note_on_c, 0, 78, 78
2, 28163, Note_on_c, 0, 47, 61
2, 28169, Note_on_c, 0, 66, 0
2, 28173, Note_on_c, 0, 71, 63
2, 28195, Note_on_c, 0, 78, 0
2, 28231, Note_on_c, 0, 54, 0
2, 28240, Note_on_c, 0, 50, 0
2, 28254, Note_on_c, 0, 59, 0
2, 28255, Note_on_c, 0, 47, 0
2, 28266, Note_on_c, 0, 71, 0
2, 28267, Note_on_c, 0, 74, 61
2, 28354, Note_on_c, 0, 74, 0
2, 28374, Control_c, 0, 64, 63
2, 28381, Control_c, 0, 64, 0
2, 28399, Note_on_c, 0, 78, 90
2, 28504, Note_on_c, 0, 76, 72
2, 28506, Note_on_c, 0, 78, 0
2, 28611, Note_on_c, 0, 74, 67
2, 28617, Note_on_c, 0, 76, 0
2, 28696, Note_on_c, 0, 73, 87
2, 28732, Note_on_c, 0, 74, 0
2, 28793, Note_on_c, 0, 73, 0
2, 28807, Note_on_c, 0, 71, 90
2, 28808, Note_on_c, 0, 66, 95
2, 28811, Note_on_c, 0, 62, 83
2, 28812, Control_c, 0, 64, 127
2, 28821, Note_on_c, 0, 59, 72
2, 28861, Note_on_c, 0, 66, 0
2, 28865, Note_on_c, 0, 62, 0
2, 28871, Note_on_c, 0, 71, 0
2, 28891, Note_on_c, 0, 59, 0
2, 29041, Note_on_c, 0, 73, 85
2, 29091, Control_c, 0, 64, 63
2, 29098, Note_on_c, 0, 73, 0
2, 29098, Control_c, 0, 64, 0
2, 29251, Note_on_c, 0, 61, 96
2, 29256, Note_on_c, 0, 54, 91
2, 29266, Control_c, 0, 64, 127
2, 29344, Note_on_c, 0, 52, 74
2, 29348, Note_on_c, 0, 54, 0
2, 29401, Control_c, 0, 64, 63
2, 29407, Control_c, 0, 64, 0
2, 29452, Note_on_c, 0, 66, 80
2, 29458, Note_on_c, 0, 70, 76
2, 29467, Note_on_c, 0, 50, 73
2, 29485, Note_on_c, 0, 52, 0
2, 29492, Note_on_c, 0, 61, 0
2, 29500, Note_on_c, 0, 66, 0
2, 29527, Note_on_c, 0, 70, 0
2, 29564, Note_on_c, 0, 49, 81
2, 29574, Note_on_c, 0, 50, 0
2, 29681, Note_on_c, 0, 47, 91
2, 29689, Note_on_c, 0, 62, 88
2, 29691, Control_c, 0, 64, 127
2, 29706, Note_on_c, 0, 49, 0
2, 29740, Note_on_c, 0, 47, 0
2, 29862, Note_on_c, 0, 62, 0
2, 29913, Note_on_c, 0, 71, 76
2, 29916, Note_on_c, 0, 66, 79
2, 29936, Control_c, 0, 64, 63
2, 29943, Control_c, 0, 64, 0
2, 29954, Note_on_c, 0, 66, 0
2, 29970, Note_on_c, 0, 71, 0
2, 30139, Note_on_c, 0, 61, 85
2, 30145, Note_on_c, 0, 59, 61
2, 30148, Note_on_c, 0, 55, 60
2, 30153, Control_c, 0, 64, 63
2, 30154, Control_c, 0, 64, 127
2, 30232, Note_on_c, 0, 61, 0
2, 30235, Note_on_c, 0, 73, 73
2, 30354, Note_on_c, 0, 47, 63
2, 30362, Note_on_c, 0, 67, 68
2, 30373, Note_on_c, 0, 55, 0
2, 30382, Note_on_c, 0, 59, 0
2, 30382, Note_on_c, 0, 73, 0
2, 30454, Note_on_c, 0, 71, 79
2, 30474, Note_on_c, 0, 67, 0
2, 30534, Control_c, 0, 64, 63
2, 30540, Control_c, 0, 64, 0
2, 30558, Note_on_c, 0, 71, 0
2, 30561, Note_on_c, 0, 62, 92
2, 30569, Note_on_c, 0, 59, 88
2, 30570, Note_on_c, 0, 54, 87
2, 30601, Note_on_c, 0, 47, 0
2, 30608, Control_c, 0, 64, 63
2, 30624, Control_c, 0, 64, 127
2, 30658, Note_on_c, 0, 74, 82
2, 30662, Note_on_c, 0, 62, 0
2, 30744, Note_on_c, 0, 54, 0
2, 30763, Note_on_c, 0, 47, 84
2, 30769, Note_on_c, 0, 66, 79
2, 30782, Note_on_c, 0, 74, 0
2, 30820, Note_on_c, 0, 59, 0
2, 30838, Note_on_c, 0, 66, 0
2, 30863, Note_on_c, 0, 71, 83
2, 30915, Note_on_c, 0, 71, 0
2, 30919, Control_c, 0, 64, 63
2, 30934, Control_c, 0, 64, 0
2, 30992, Note_on_c, 0, 52, 87
2, 30993, Note_on_c, 0, 55, 92
2, 30994, Note_on_c, 0, 59, 101
2, 30994, Control_c, 0, 64, 63
2, 31003, Note_on_c, 0, 67, 82
2, 31009, Control_c, 0, 64, 127
2, 31036, Note_on_c, 0, 47, 0
2, 31078, Note_on_c, 0, 67, 0
2, 31125, Note_on_c, 0, 79, 86
2, 31173, Note_on_c, 0, 52, 0
2, 31212, Note_on_c, 0, 55, 0
2, 31217, Note_on_c, 0, 47, 60
2, 31227, Note_on_c, 0, 71, 97
2, 31235, Note_on_c, 0, 79, 0
2, 31240, Note_on_c, 0, 59, 0
2, 31297, Note_on_c, 0, 71, 0
2, 31314, Note_on_c, 0, 76, 84
2, 31379, Note_on_c, 0, 76, 0
2, 31420, Note_on_c, 0, 54, 75
2, 31424, Note_on_c, 0, 59, 71
2, 31433, Note_on_c, 0, 50, 63
2, 31439, Note_on_c, 0, 66, 81
2, 31459, Note_on_c, 0, 47, 0
2, 31489, Control_c, 0, 64, 63
2, 31499, Control_c, 0, 64, 0
2, 31544, Note_on_c, 0, 78, 81
2, 31633, Control_c, 0, 64, 63
2, 31642, Control_c, 0, 64, 127
2, 31645, Note_on_c, 0, 66, 0
2, 31654, Note_on_c, 0, 47, 71
2, 31660, Note_on_c, 0, 71, 66
2, 31688, Note_on_c, 0, 78, 0
2, 31694, Note_on_c, 0, 54, 0
2, 31702, Note_on_c, 0, 50, 0
2, 31704, Note_on_c, 0, 59, 0
2, 31750, Note_on_c, 0, 74, 80
2, 31757, Note_on_c, 0, 47, 0
2, 31765, Note_on_c, 0, 71, 0
2, 31804, Note_on_c, 0, 74, 0
2, 31857, Control_c, 0, 64, 63
2, 31867, Control_c, 0, 64, 0
2, 31885, Note_on_c, 0, 47, 78
2, 31978, Note_on_c, 0, 49, 69
2, 32005, Note_on_c, 0, 47, 0
2, 32098, Note_on_c, 0, 49, 0
2, 32107, Note_on_c, 0, 50, 71
2, 32112, Note_on_c, 0, 59, 72
2, 32117, Note_on_c, 0, 62, 74
2, 32184, Control_c, 0, 64, 63
2, 32186, Control_c, 0, 64, 127
2, 32204, Note_on_c, 0, 50, 0
2, 32206, Note_on_c, 0, 52, 68
2, 32329, Control_c, 0, 64, 63
2, 32332, Control_c, 0, 64, 0
2, 32334, Note_on_c, 0, 53, 91
2, 32339, Note_on_c, 0, 52, 0
2, 32357, Note_on_c, 0, 59, 0
2, 32377, Note_on_c, 0, 62, 0
2, 32385, Note_on_c, 0, 53, 0
2, 32563, Note_on_c, 0, 54, 98
2, 32566, Note_on_c, 0, 62, 87
2, 32573, Note_on_c, 0, 59, 72
2, 32595, Control_c, 0, 64, 63
2, 32595, Control_c, 0, 64, 127
2, 32785, Note_on_c, 0, 57, 75
2, 32788, Control_c, 0, 64, 63
2, 32791, Control_c, 0, 64, 0
2, 32805, Note_on_c, 0, 54, 0
2, 32828, Note_on_c, 0, 59, 0
2, 32839, Note_on_c, 0, 62, 0
2, 32859, Note_on_c, 0, 57, 0
2, 33020, Control_c, 0, 64, 63
2, 33021, Control_c, 0, 64, 127
2, 33027, Note_on_c, 0, 56, 73
2, 33028, Note_on_c, 0, 62, 80
2, 33031, Note_on_c, 0, 59, 63
2, 33253, Note_on_c, 0, 55, 58
2, 33262, Control_c, 0, 64, 63
2, 33265, Note_on_c, 0, 56, 0
2, 33268, Control_c, 0, 64, 0
2, 33286, Note_on_c, 0, 59, 0
2, 33291, Note_on_c, 0, 62, 0
2, 33326, Note_on_c, 0, 55, 0
2, 33418, Control_c, 0, 64, 63
2, 33424, Control_c, 0, 64, 127
2, 33490, Note_on_c, 0, 59, 62
2, 33492, Note_on_c, 0, 62, 66
2, 33496, Note_on_c, 0, 54, 62
2, 33544, Note_on_c, 0, 62, 0
2, 33548, Note_on_c, 0, 59, 0
2, 33589, Note_on_c, 0, 54, 0
2, 33661, Control_c, 0, 64, 63
2, 33670, Control_c, 0, 64, 0
2, 33721, Note_on_c, 0, 53, 54
2, 33739, Note_on_c, 0, 71, 66
2, 33742, Control_c, 0, 64, 63
2, 33757, Control_c, 0, 64, 127
2, 33829, Note_on_c, 0, 70, 57
2, 33892, Note_on_c, 0, 71, 0
2, 33924, Note_on_c, 0, 69, 56
2, 33940, Note_on_c, 0, 59, 56
2, 33951, Note_on_c, 0, 62, 50
2, 34010, Note_on_c, 0, 70, 0
2, 34025, Note_on_c, 0, 68, 80
2, 34026, Note_on_c, 0, 62, 0
2, 34054, Note_on_c, 0, 59, 0
2, 34060, Note_on_c, 0, 69, 0
2, 34110, Note_on_c, 0, 53, 0
2, 34144, Note_on_c, 0, 67, 74
2, 34150, Note_on_c, 0, 68, 0
2, 34153, Note_on_c, 0, 52, 88
2, 34153, Control_c, 0, 64, 63
2, 34160, Control_c, 0, 64, 0
2, 34205, Note_on_c, 0, 67, 0
2, 34401, Note_on_c, 0, 68, 95
2, 34402, Note_on_c, 0, 59, 64
2, 34404, Note_on_c, 0, 62, 57
2, 34422, Control_c, 0, 64, 63
2, 34423, Control_c, 0, 64, 127
2, 34558, Note_on_c, 0, 52, 0
2, 34617, Note_on_c, 0, 50, 77
2, 34621, Note_on_c, 0, 73, 88
2, 34623, Note_on_c, 0, 62, 0
2, 34640, Note_on_c, 0, 59, 0
2, 34641, Note_on_c, 0, 68, 0
2, 34676, Control_c, 0, 64, 63
2, 34680, Control_c, 0, 64, 0
2, 34708, Note_on_c, 0, 73, 0
2, 34786, Control_c, 0, 64, 63
2, 34792, Control_c, 0, 64, 127
2, 34867, Note_on_c, 0, 71, 80
2, 34868, Note_on_c, 0, 59, 33
2, 34879, Note_on_c, 0, 56, 48
2, 34911, Note_on_c, 0, 64, 27
2, 34944, Note_on_c, 0, 71, 0
2, 34951, Note_on_c, 0, 64, 0
2, 34957, Note_on_c, 0, 50, 0
2, 34967, Note_on_c, 0, 59, 0
2, 35002, Note_on_c, 0, 56, 0
2, 35084, Note_on_c, 0, 49, 68
2, 35088, Note_on_c, 0, 63, 82
2, 35119, Control_c, 0, 64, 63
2, 35124, Control_c, 0, 64, 0
2, 35158, Note_on_c, 0, 63, 0
2, 35201, Control_c, 0, 64, 63
2, 35209, Control_c, 0, 64, 127
2, 35316, Note_on_c, 0, 52, 47
2, 35317, Note_on_c, 0, 61, 42
2, 35317, Note_on_c, 0, 64, 66
2, 35329, Note_on_c, 0, 57, 1
2, 35395, Note_on_c, 0, 57, 0
2, 35398, Note_on_c, 0, 61, 0
2, 35399, Note_on_c, 0, 49, 0
2, 35437, Note_on_c, 0, 52, 0
2, 35446, Note_on_c, 0, 64, 0
2, 35539, Note_on_c, 0, 49, 69
2, 35542, Control_c, 0, 64, 63
2, 35546, Control_c, 0, 64, 0
2, 35650, Note_on_c, 0, 50, 82
2, 35680, Control_c, 0, 64, 63
2, 35686, Control_c, 0, 64, 127
2, 35711, Note_on_c, 0, 49, 0
2, 35758, Note_on_c, 0, 61, 91
2, 35758, Note_on_c, 0, 64, 84
2, 35766, Note_on_c, 0, 52, 88
2, 35803, Note_on_c, 0, 50, 0
2, 35817, Note_on_c, 0, 61, 0
2, 35841, Note_on_c, 0, 64, 0
2, 35850, Control_c, 0, 64, 63
2, 35857, Control_c, 0, 64, 0
2, 35863, Note_on_c, 0, 54, 95
2, 35912, Note_on_c, 0, 52, 0
2, 35973, Note_on_c, 0, 55, 89
2, 36005, Note_on_c, 0, 54, 0
2, 36056, Note_on_c, 0, 55, 0
2, 36201, Note_on_c, 0, 56, 98
2, 36206, Note_on_c, 0, 64, 82
2, 36211, Note_on_c, 0, 61, 84
2, 36251, Control_c, 0, 64, 63
2, 36252, Control_c, 0, 64, 127
2, 36410, Note_on_c, 0, 59, 82
2, 36416, Note_on_c, 0, 61, 0
2, 36437, Note_on_c, 0, 64, 0
2, 36452, Note_on_c, 0, 56, 0
2, 36459, Control_c, 0, 64, 63
2, 36465, Control_c, 0, 64, 0
2, 36484, Note_on_c, 0, 59, 0
2, 36666, Note_on_c, 0, 61, 69
2, 36670, Note_on_c, 0, 58, 66
2, 36682, Note_on_c, 0, 64, 73
2, 36693, Control_c, 0, 64, 63
2, 36695, Control_c, 0, 64, 127
2, 36877, Note_on_c, 0, 57, 76
2, 36889, Note_on_c, 0, 61, 0
2, 36900, Note_on_c, 0, 58, 0
2, 36912, Note_on_c, 0, 64, 0
2, 36922, Control_c, 0, 64, 63
2, 36926, Control_c, 0, 64, 0
2, 36947, Note_on_c, 0, 57, 0
2, 37005, Control_c, 0, 64, 63
2, 37015, Control_c, 0, 64, 127
2, 37123, Note_on_c, 0, 56, 60
2, 37126, Note_on_c, 0, 61, 72
2, 37135, Note_on_c, 0, 64, 54
2, 37167, Note_on_c, 0, 61, 0
2, 37174, Note_on_c, 0, 64, 0
2, 37222, Note_on_c, 0, 56, 0
2, 37348, Control_c, 0, 64, 63
2, 37356, Control_c, 0, 64, 0
2, 37376, Note_on_c, 0, 73, 75
2, 37379, Note_on_c, 0, 55, 53
2, 37444, Control_c, 0, 64, 63
2, 37453, Control_c, 0, 64, 127
2, 37482, Note_on_c, 0, 72, 66
2, 37483, Note_on_c, 0, 73, 0
2, 37577, Note_on_c, 0, 71, 74
2, 37597, Note_on_c, 0, 61, 64
2, 37600, Note_on_c, 0, 64, 55
2, 37620, Note_on_c, 0, 72, 0
2, 37631, Control_c, 0, 64, 63
2, 37639, Control_c, 0, 64, 0
2, 37675, Note_on_c, 0, 70, 82
2, 37728, Note_on_c, 0, 55, 0
2, 37736, Note_on_c, 0, 71, 0
2, 37788, Note_on_c, 0, 69, 82
2, 37798, Note_on_c, 0, 70, 0
2, 37803, Note_on_c, 0, 54, 86
2, 37818, Note_on_c, 0, 64, 0
2, 37828, Note_on_c, 0, 61, 0
2, 37848, Note_on_c, 0, 69, 0
2, 38054, Note_on_c, 0, 61, 66
2, 38055, Note_on_c, 0, 70, 96
2, 38056, Note_on_c, 0, 64, 63
2, 38143, Control_c, 0, 64, 63
2, 38144, Control_c, 0, 64, 127
2, 38207, Note_on_c, 0, 54, 0
2, 38255, Note_on_c, 0, 61, 0
2, 38257, Note_on_c, 0, 64, 0
2, 38278, Note_on_c, 0, 74, 86
2, 38281, Note_on_c, 0, 52, 67
2, 38305, Note_on_c, 0, 70, 0
2, 38332, Control_c, 0, 64, 63
2, 38336, Control_c, 0, 64, 0
2, 38357, Note_on_c, 0, 74, 0
2, 38402, Control_c, 0, 64, 63
2, 38406, Control_c, 0, 64, 127
2, 38439, Note_on_c, 0, 52, 0
2, 38545, Note_on_c, 0, 73, 95
2, 38554, Note_on_c, 0, 66, 83
2, 38556, Note_on_c, 0, 61, 71
2, 38558, Note_on_c, 0, 58, 65
2, 38590, Note_on_c, 0, 61, 0
2, 38593, Note_on_c, 0, 66, 0
2, 38603, Note_on_c, 0, 73, 0
2, 38614, Note_on_c, 0, 58, 0
2, 38754, Note_on_c, 0, 65, 74
2, 38759, Control_c, 0, 64, 63
2, 38761, Control_c, 0, 64, 0
2, 38764, Note_on_c, 0, 50, 66
2, 38821, Note_on_c, 0, 65, 0
2, 38986, Control_c, 0, 64, 63
2, 38987, Control_c, 0, 64, 127
2, 39005, Note_on_c, 0, 66, 87
2, 39005, Note_on_c, 0, 62, 57
2, 39009, Note_on_c, 0, 54, 57
2, 39018, Note_on_c, 0, 59, 46
2, 39061, Note_on_c, 0, 50, 0
2, 39065, Note_on_c, 0, 59, 0
2, 39066, Note_on_c, 0, 66, 0
2, 39067, Note_on_c, 0, 62, 0
2, 39082, Note_on_c, 0, 54, 0
2, 39241, Note_on_c, 0, 71, 86
2, 39244, Note_on_c, 0, 47, 103
2, 39257, Control_c, 0, 64, 63
2, 39262, Control_c, 0, 64, 0
2, 39322, Note_on_c, 0, 73, 104
2, 39328, Note_on_c, 0, 49, 98
2, 39345, Note_on_c, 0, 71, 0
2, 39391, Note_on_c, 0, 47, 0
2, 39418, Note_on_c, 0, 73, 0
2, 39427, Note_on_c, 0, 74, 87
2, 39438, Note_on_c, 0, 50, 101
2, 39499, Note_on_c, 0, 49, 0
2, 39505, Note_on_c, 0, 76, 89
2, 39516, Note_on_c, 0, 52, 91
2, 39544, Note_on_c, 0, 50, 0
2, 39544, Note_on_c, 0, 74, 0
2, 39628, Note_on_c, 0, 78, 95
2, 39638, Note_on_c, 0, 54, 99
2, 39641, Note_on_c, 0, 76, 0
2, 39660, Note_on_c, 0, 52, 0
2, 39690, Note_on_c, 0, 54, 0
2, 39700, Note_on_c, 0, 78, 0
2, 39871, Note_on_c, 0, 71, 93
2, 39871, Note_on_c, 0, 79, 88
2, 39872, Note_on_c, 0, 74, 88
2, 39873, Note_on_c, 0, 47, 93
2, 39874, Note_on_c, 0, 67, 99
2, 39874, Note_on_c, 0, 50, 104
2, 39879, Note_on_c, 0, 43, 83
2, 39879, Note_on_c, 0, 55, 102
2, 39884, Control_c, 0, 64, 127
2, 39900, Note_on_c, 0, 67, 0
2, 39904, Note_on_c, 0, 71, 0
2, 39905, Note_on_c, 0, 74, 0
2, 39918, Note_on_c, 0, 79, 0
2, 39925, Note_on_c, 0, 50, 0
2, 39931, Note_on_c, 0, 55, 0
2, 39939, Note_on_c, 0, 47, 0
2, 39947, Note_on_c, 0, 43, 0
2, 40105, Control_c, 0, 64, 63
2, 40112, Note_on_c, 0, 41, 97
2, 40113, Control_c, 0, 64, 0
2, 40115, Note_on_c, 0, 65, 102
2, 40165, Note_on_c, 0, 65, 0
2, 40174, Note_on_c, 0, 41, 0
2, 40329, Note_on_c, 0, 77, 96
2, 40345, Note_on_c, 0, 53, 91
2, 40386, Note_on_c, 0, 77, 0
2, 40411, Note_on_c, 0, 53, 0
2, 40549, Note_on_c, 0, 66, 106
2, 40549, Note_on_c, 0, 42, 103
2, 40603, Note_on_c, 0, 66, 0
2, 40622, Note_on_c, 0, 42, 0
2, 40765, Note_on_c, 0, 78, 99
2, 40771, Note_on_c, 0, 54, 94
2, 40823, Note_on_c, 0, 78, 0
2, 40832, Note_on_c, 0, 54, 0
2, 40984, Note_on_c, 0, 47, 96
2, 40999, Control_c, 0, 64, 127
2, 40999, Note_on_c, 0, 71, 92
2, 41086, Note_on_c, 0, 49, 71
2, 41092, Note_on_c, 0, 71, 0
2, 41092, Note_on_c, 0, 73, 91
2, 41116, Note_on_c, 0, 47, 0
2, 41173, Note_on_c, 0, 50, 72
2, 41177, Note_on_c, 0, 74, 81
2, 41178, Note_on_c, 0, 73, 0
2, 41208, Note_on_c, 0, 49, 0
2, 41263, Note_on_c, 0, 52, 81
2, 41266, Note_on_c, 0, 76, 86
2, 41291, Note_on_c, 0, 50, 0
2, 41310, Note_on_c, 0, 74, 0
2, 41348, Control_c, 0, 64, 63
2, 41355, Control_c, 0, 64, 0
2, 41369, Note_on_c, 0, 54, 99
2, 41370, Note_on_c, 0, 78, 85
2, 41371, Note_on_c, 0, 52, 0
2, 41380, Note_on_c, 0, 76, 0
2, 41416, Note_on_c, 0, 54, 0
2, 41428, Note_on_c, 0, 78, 0
2, 41584, Control_c, 0, 64, 63
2, 41585, Control_c, 0, 64, 127
2, 41589, Note_on_c, 0, 67, 103
2, 41590, Note_on_c, 0, 79, 84
2, 41590, Note_on_c, 0, 47, 104
2, 41591, Note_on_c, 0, 55, 110
2, 41592, Note_on_c, 0, 71, 87
2, 41593, Note_on_c, 0, 50, 106
2, 41593, Note_on_c, 0, 74, 78
2, 41595, Note_on_c, 0, 43, 102
2, 41618, Note_on_c, 0, 71, 0
2, 41620, Note_on_c, 0, 79, 0
2, 41623, Note_on_c, 0, 74, 0
2, 41635, Note_on_c, 0, 67, 0
2, 41641, Note_on_c, 0, 50, 0
2, 41650, Note_on_c, 0, 55, 0
2, 41655, Note_on_c, 0, 47, 0
2, 41702, Note_on_c, 0, 43, 0
2, 41804, Note_on_c, 0, 65, 103
2, 41808, Note_on_c, 0, 41, 111
2, 41818, Control_c, 0, 64, 63
2, 41824, Control_c, 0, 64, 0
2, 41920, Note_on_c, 0, 65, 0
2, 41968, Note_on_c, 0, 41, 0
2, 42040, Note_on_c, 0, 77, 98
2, 42045, Note_on_c, 0, 53, 83
2, 42100, Note_on_c, 0, 77, 0
2, 42116, Note_on_c, 0, 53, 0
2, 42248, Note_on_c, 0, 42, 99
2, 42252, Note_on_c, 0, 66, 104
2, 42254, Control_c, 0, 64, 63
2, 42255, Control_c, 0, 64, 127
2, 42310, Note_on_c, 0, 66, 0
2, 42325, Note_on_c, 0, 42, 0
2, 42449, Control_c, 0, 64, 63
2, 42453, Control_c, 0, 64, 0
2, 42462, Note_on_c, 0, 54, 88
2, 42463, Note_on_c, 0, 78, 96
2, 42521, Note_on_c, 0, 78, 0
2, 42525, Note_on_c, 0, 54, 0
2, 42709, Control_c, 0, 64, 63
2, 42710, Control_c, 0, 64, 127
2, 42712, Note_on_c, 0, 74, 101
2, 42716, Note_on_c, 0, 50, 106
2, 42792, Note_on_c, 0, 52, 90
2, 42799, Note_on_c, 0, 76, 99
2, 42826, Note_on_c, 0, 74, 0
2, 42859, Note_on_c, 0, 50, 0
2, 42877, Note_on_c, 0, 54, 97
2, 42885, Note_on_c, 0, 78, 99
2, 42928, Note_on_c, 0, 76, 0
2, 42941, Note_on_c, 0, 52, 0
2, 42991, Note_on_c, 0, 55, 67
2, 42998, Note_on_c, 0, 79, 80
2, 43034, Note_on_c, 0, 78, 0
2, 43040, Control_c, 0, 64, 63
2, 43045, Control_c, 0, 64, 0
2, 43057, Note_on_c, 0, 54, 0
2, 43075, Note_on_c, 0, 81, 90
2, 43104, Note_on_c, 0, 55, 0
2, 43105, Note_on_c, 0, 57, 78
2, 43118, Note_on_c, 0, 79, 0
2, 43136, Note_on_c, 0, 81, 0
2, 43162, Note_on_c, 0, 57, 0
2, 43300, Control_c, 0, 64, 63
2, 43300, Control_c, 0, 64, 127
2, 43317, Note_on_c, 0, 70, 108
2, 43318, Note_on_c, 0, 74, 87
2, 43319, Note_on_c, 0, 82, 103
2, 43320, Note_on_c, 0, 53, 99
2, 43321, Note_on_c, 0, 77, 89
2, 43321, Note_on_c, 0, 50, 84
2, 43324, Note_on_c, 0, 46, 84
2, 43324, Note_on_c, 0, 58, 115
2, 43378, Note_on_c, 0, 74, 0
2, 43381, Note_on_c, 0, 77, 0
2, 43383, Note_on_c, 0, 70, 0
2, 43397, Note_on_c, 0, 82, 0
2, 43406, Note_on_c, 0, 53, 0
2, 43415, Note_on_c, 0, 50, 0
2, 43417, Note_on_c, 0, 58, 0
2, 43466, Note_on_c, 0, 46, 0
2, 43546, Note_on_c, 0, 44, 104
2, 43546, Note_on_c, 0, 68, 104
2, 43556, Control_c, 0, 64, 63
2, 43563, Control_c, 0, 64, 0
2, 43627, Note_on_c, 0, 68, 0
2, 43647, Note_on_c, 0, 44, 0
2, 43777, Note_on_c, 0, 80, 90
2, 43778, Note_on_c, 0, 56, 94
2, 43847, Note_on_c, 0, 56, 0
2, 43852, Note_on_c, 0, 80, 0
2, 43984, Note_on_c, 0, 69, 89
2, 43984, Note_on_c, 0, 45, 102
2, 43990, Control_c, 0, 64, 63
2, 43991, Control_c, 0, 64, 127
2, 44044, Note_on_c, 0, 69, 0
2, 44082, Note_on_c, 0, 45, 0
2, 44089, Control_c, 0, 64, 63
2, 44095, Control_c, 0, 64, 0
2, 44203, Note_on_c, 0, 57, 90
2, 44203, Note_on_c, 0, 81, 104
2, 44253, Note_on_c, 0, 81, 0
2, 44274, Note_on_c, 0, 57, 0
2, 44420, Control_c, 0, 64, 127
2, 44431, Note_on_c, 0, 74, 99
2, 44431, Note_on_c, 0, 50, 110
2, 44498, Note_on_c, 0, 74, 0
2, 44505, Note_on_c, 0, 52, 84
2, 44512, Note_on_c, 0, 76, 93
2, 44569, Note_on_c, 0, 50, 0
2, 44590, Note_on_c, 0, 54, 93
2, 44602, Note_on_c, 0, 78, 97
2, 44646, Note_on_c, 0, 76, 0
2, 44652, Note_on_c, 0, 52, 0
2, 44703, Note_on_c, 0, 79, 84
2, 44705, Note_on_c, 0, 55, 84
2, 44755, Note_on_c, 0, 54, 0
2, 44756, Note_on_c, 0, 78, 0
2, 44767, Control_c, 0, 64, 63
2, 44772, Control_c, 0, 64, 0
2, 44803, Note_on_c, 0, 81, 90
2, 44817, Note_on_c, 0, 57, 91
2, 44829, Note_on_c, 0, 55, 0
2, 44830, Note_on_c, 0, 79, 0
2, 44869, Note_on_c, 0, 81, 0
2, 44877, Note_on_c, 0, 57, 0
2, 45031, Control_c, 0, 64, 127
2, 45032, Note_on_c, 0, 70, 116
2, 45033, Note_on_c, 0, 82, 104
2, 45034, Note_on_c, 0, 53, 97
2, 45034, Note_on_c, 0, 74, 93
2, 45035, Note_on_c, 0, 50, 88
2, 45036, Note_on_c, 0, 58, 117
2, 45037, Note_on_c, 0, 77, 90
2, 45037, Note_on_c, 0, 46, 87
2, 45095, Note_on_c, 0, 77, 0
2, 45099, Note_on_c, 0, 70, 0
2, 45100, Note_on_c, 0, 74, 0
2, 45105, Note_on_c, 0, 82, 0
2, 45117, Note_on_c, 0, 53, 0
2, 45123, Note_on_c, 0, 50, 0
2, 45124, Note_on_c, 0, 58, 0
2, 45155, Note_on_c, 0, 46, 0
2, 45181, Control_c, 0, 64, 63
2, 45183, Control_c, 0, 64, 0
2, 45256, Note_on_c, 0, 68, 111
2, 45260, Control_c, 0, 64, 63
2, 45262, Note_on_c, 0, 44, 102
2, 45263, Control_c, 0, 64, 127
2, 45394, Note_on_c, 0, 68, 0
2, 45440, Control_c, 0, 64, 63
2, 45442, Control_c, 0, 64, 0
2, 45459, Note_on_c, 0, 56, 95
2, 45460, Note_on_c, 0, 80, 95
2, 45532, Note_on_c, 0, 56, 0
2, 45534, Note_on_c, 0, 80, 0
2, 45572, Note_on_c, 0, 44, 0
2, 45662, Note_on_c, 0, 45, 104
2, 45663, Note_on_c, 0, 69, 97
2, 45670, Control_c, 0, 64, 127
2, 45817, Note_on_c, 0, 69, 0
2, 45880, Note_on_c, 0, 81, 97
2, 45887, Note_on_c, 0, 57, 84
2, 45933, Note_on_c, 0, 81, 0
2, 45938, Note_on_c, 0, 57, 0
2, 45953, Note_on_c, 0, 45, 0
2, 45964, Control_c, 0, 64, 63
2, 45969, Control_c, 0, 64, 0
2, 46104, Control_c, 0, 64, 127
2, 46113, Note_on_c, 0, 68, 111
2, 46114, Note_on_c, 0, 44, 99
2, 46327, Note_on_c, 0, 56, 102
2, 46329, Note_on_c, 0, 80, 97
2, 46360, Note_on_c, 0, 68, 0
2, 46402, Note_on_c, 0, 56, 0
2, 46426, Note_on_c, 0, 80, 0
2, 46429, Note_on_c, 0, 44, 0
2, 46534, Control_c, 0, 64, 63
2, 46538, Control_c, 0, 64, 0
2, 46540, Note_on_c, 0, 69, 99
2, 46542, Note_on_c, 0, 45, 114
2, 46591, Control_c, 0, 64, 63
2, 46599, Control_c, 0, 64, 127
2, 46699, Note_on_c, 0, 69, 0
2, 46750, Note_on_c, 0, 45, 0
2, 46753, Note_on_c, 0, 81, 102
2, 46756, Note_on_c, 0, 57, 93
2, 46812, Note_on_c, 0, 81, 0
2, 46814, Note_on_c, 0, 57, 0
2, 46862, Control_c, 0, 64, 63
2, 46864, Control_c, 0, 64, 0
2, 46965, Control_c, 0, 64, 127
2, 46985, Note_on_c, 0, 46, 109
2, 46987, Note_on_c, 0, 70, 113
2, 47124, Note_on_c, 0, 70, 0
2, 47198, Note_on_c, 0, 58, 97
2, 47209, Note_on_c, 0, 82, 90
2, 47242, Note_on_c, 0, 46, 0
2, 47245, Note_on_c, 0, 58, 0
2, 47248, Note_on_c, 0, 82, 0
2, 47279, Control_c, 0, 64, 63
2, 47283, Control_c, 0, 64, 0
2, 47420, Note_on_c, 0, 64, 97
2, 47421, Note_on_c, 0, 40, 112
2, 47422, Control_c, 0, 64, 63
2, 47423, Control_c, 0, 64, 127
2, 47557, Note_on_c, 0, 64, 0
2, 47622, Note_on_c, 0, 40, 0
2, 47624, Note_on_c, 0, 76, 91
2, 47628, Note_on_c, 0, 52, 89
2, 47688, Note_on_c, 0, 52, 0
2, 47691, Note_on_c, 0, 76, 0
2, 47820, Control_c, 0, 64, 63
2, 47824, Control_c, 0, 64, 0
2, 47833, Note_on_c, 0, 67, 97
2, 47835, Note_on_c, 0, 43, 115
2, 47883, Control_c, 0, 64, 63
2, 47895, Control_c, 0, 64, 127
2, 47989, Note_on_c, 0, 67, 0
2, 48022, Note_on_c, 0, 43, 0
2, 48038, Note_on_c, 0, 79, 83
2, 48040, Note_on_c, 0, 55, 73
2, 48072, Note_on_c, 0, 55, 0
2, 48089, Note_on_c, 0, 79, 0
2, 48250, Control_c, 0, 64, 63
2, 48262, Control_c, 0, 64, 0
2, 48281, Note_on_c, 0, 58, 103
2, 48285, Note_on_c, 0, 34, 108
2, 48340, Control_c, 0, 64, 63
2, 48355, Control_c, 0, 64, 127
2, 48486, Note_on_c, 0, 46, 93
2, 48490, Note_on_c, 0, 70, 85
2, 48505, Note_on_c, 0, 34, 0
2, 48509, Note_on_c, 0, 58, 0
2, 48535, Note_on_c, 0, 46, 0
2, 48541, Note_on_c, 0, 70, 0
2, 48658, Control_c, 0, 64, 63
2, 48676, Control_c, 0, 64, 0
2, 48706, Note_on_c, 0, 38, 115
2, 48708, Note_on_c, 0, 62, 87
2, 48722, Control_c, 0, 64, 63
2, 48742, Control_c, 0, 64, 127
2, 48861, Note_on_c, 0, 62, 0
2, 48910, Note_on_c, 0, 50, 77
2, 48912, Note_on_c, 0, 74, 88
2, 48937, Note_on_c, 0, 50, 0
2, 48942, Note_on_c, 0, 38, 0
2, 48958, Note_on_c, 0, 74, 0
2, 49106, Control_c, 0, 64, 63
2, 49118, Control_c, 0, 64, 0
2, 49131, Note_on_c, 0, 33, 117
2, 49132, Note_on_c, 0, 57, 92
2, 49183, Control_c, 0, 64, 63
2, 49198, Control_c, 0, 64, 127
2, 49308, Note_on_c, 0, 57, 0
2, 49345, Note_on_c, 0, 45, 87
2, 49347, Note_on_c, 0, 33, 0
2, 49354, Note_on_c, 0, 69, 89
2, 49395, Note_on_c, 0, 45, 0
2, 49419, Note_on_c, 0, 69, 0
2, 49805, Note_on_c, 0, 44, 45
2, 49813, Control_c, 0, 64, 63
2, 49837, Control_c, 0, 64, 0
2, 49912, Note_on_c, 0, 45, 58
2, 49944, Control_c, 0, 64, 63
2, 49963, Control_c, 0, 64, 127
2, 49993, Note_on_c, 0, 44, 0
2, 50028, Note_on_c, 0, 48, 68
2, 50034, Note_on_c, 0, 45, 0
2, 50137, Note_on_c, 0, 49, 60
2, 50150, Note_on_c, 0, 48, 0
2, 50182, Control_c, 0, 64, 63
2, 50236, Control_c, 0, 64, 127
2, 50253, Note_on_c, 0, 49, 0
2, 50255, Note_on_c, 0, 51, 69
2, 50338, Note_on_c, 0, 51, 0
2, 50339, Note_on_c, 0, 52, 59
2, 50440, Note_on_c, 0, 56, 80
2, 50464, Note_on_c, 0, 52, 0
2, 50549, Note_on_c, 0, 57, 75
2, 50561, Note_on_c, 0, 56, 0
2, 50621, Note_on_c, 0, 57, 0
2, 50647, Note_on_c, 0, 56, 78
2, 50734, Note_on_c, 0, 57, 74
2, 50775, Note_on_c, 0, 56, 0
2, 50845, Note_on_c, 0, 57, 0
2, 50845, Note_on_c, 0, 60, 87
2, 50881, Note_on_c, 0, 60, 0
2, 50946, Note_on_c, 0, 61, 105
2, 50990, Note_on_c, 0, 61, 0
2, 51055, Note_on_c, 0, 63, 89
2, 51142, Note_on_c, 0, 64, 74
2, 51166, Note_on_c, 0, 63, 0
2, 51241, Note_on_c, 0, 68, 89
2, 51273, Note_on_c, 0, 64, 0
2, 51345, Note_on_c, 0, 69, 86
2, 51368, Note_on_c, 0, 68, 0
2, 51421, Note_on_c, 0, 69, 0
2, 51433, Control_c, 0, 64, 63
2, 51442, Note_on_c, 0, 68, 96
2, 51454, Control_c, 0, 64, 0
2, 51489, Control_c, 0, 64, 63
2, 51517, Control_c, 0, 64, 127
2, 51531, Note_on_c, 0, 69, 86
2, 51577, Note_on_c, 0, 68, 0
2, 51609, Note_on_c, 0, 69, 0
2, 51637, Note_on_c, 0, 72, 78
2, 51726, Note_on_c, 0, 73, 97
2, 51731, Note_on_c, 0, 72, 0
2, 51746, Note_on_c, 0, 74, 50
2, 51755, Note_on_c, 0, 73, 0
2, 51784, Note_on_c, 0, 74, 0
2, 51837, Note_on_c, 0, 75, 99
2, 51925, Note_on_c, 0, 76, 92
2, 51956, Note_on_c, 0, 75, 0
2, 52030, Note_on_c, 0, 80, 93
2, 52059, Note_on_c, 0, 76, 0
2, 52127, Note_on_c, 0, 81, 90
2, 52160, Note_on_c, 0, 80, 0
2, 52194, Note_on_c, 0, 81, 0
2, 52228, Note_on_c, 0, 80, 99
2, 52335, Note_on_c, 0, 81, 94
2, 52385, Note_on_c, 0, 80, 0
2, 52414, Note_on_c, 0, 81, 0
2, 52441, Note_on_c, 0, 84, 91
2, 52532, Note_on_c, 0, 84, 0
2, 52538, Note_on_c, 0, 85, 94
2, 52554, Note_on_c, 0, 86, 68
2, 52567, Note_on_c, 0, 85, 0
2, 52582, Note_on_c, 0, 86, 0
2, 52650, Note_on_c, 0, 87, 105
2, 52733, Note_on_c, 0, 88, 91
2, 52771, Note_on_c, 0, 87, 0
2, 52843, Note_on_c, 0, 92, 105
2, 52877, Note_on_c, 0, 88, 0
2, 52928, Note_on_c, 0, 93, 99
2, 52965, Note_on_c, 0, 92, 0
2, 52991, Note_on_c, 0, 93, 0
2, 53026, Control_c, 0, 64, 63
2, 53035, Control_c, 0, 64, 0
2, 53187, Note_on_c, 0, 50, 104
2, 53187, Note_on_c, 0, 78, 104
2, 53188, Note_on_c, 0, 57, 104
2, 53189, Note_on_c, 0, 54, 104
2, 53190, Note_on_c, 0, 74, 107
2, 53190, Note_on_c, 0, 81, 101
2, 53210, Control_c, 0, 64, 127
2, 53400, Control_c, 0, 64, 63
2, 53403, Control_c, 0, 64, 0
2, 53418, Note_on_c, 0, 81, 0
2, 53420, Note_on_c, 0, 50, 0
2, 53430, Note_on_c, 0, 78, 0
2, 53437, Note_on_c, 0, 69, 82
2, 53439, Note_on_c, 0, 62, 93
2, 53442, Note_on_c, 0, 74, 0
2, 53458, Note_on_c, 0, 57, 0
2, 53466, Note_on_c, 0, 54, 0
2, 53484, Note_on_c, 0, 69, 0
2, 53502, Note_on_c, 0, 62, 0
2, 53643, Note_on_c, 0, 55, 87
2, 53649, Note_on_c, 0, 58, 97
2, 53650, Note_on_c, 0, 50, 83
2, 53651, Note_on_c, 0, 70, 105
2, 53652, Note_on_c, 0, 76, 91
2, 53658, Control_c, 0, 64, 127
2, 53658, Note_on_c, 0, 74, 86
2, 53769, Note_on_c, 0, 50, 0
2, 53844, Control_c, 0, 64, 63
2, 53850, Control_c, 0, 64, 0
2, 53858, Note_on_c, 0, 76, 0
2, 53859, Note_on_c, 0, 64, 84
2, 53866, Note_on_c, 0, 74, 0
2, 53874, Note_on_c, 0, 62, 89
2, 53877, Note_on_c, 0, 55, 0
2, 53878, Note_on_c, 0, 70, 0
2, 53904, Note_on_c, 0, 58, 0
2, 53910, Note_on_c, 0, 64, 0
2, 53940, Note_on_c, 0, 62, 0
2, 54078, Note_on_c, 0, 54, 93
2, 54078, Note_on_c, 0, 57, 87
2, 54083, Note_on_c, 0, 81, 92
2, 54084, Note_on_c, 0, 74, 92
2, 54084, Note_on_c, 0, 50, 79
2, 54087, Control_c, 0, 64, 127
2, 54088, Note_on_c, 0, 78, 79
2, 54272, Note_on_c, 0, 81, 0
2, 54274, Note_on_c, 0, 50, 0
2, 54291, Note_on_c, 0, 78, 0
2, 54297, Note_on_c, 0, 69, 83
2, 54300, Control_c, 0, 64, 63
2, 54302, Note_on_c, 0, 62, 86
2, 54306, Note_on_c, 0, 74, 0
2, 54308, Control_c, 0, 64, 0
2, 54310, Note_on_c, 0, 54, 0
2, 54318, Note_on_c, 0, 57, 0
2, 54349, Note_on_c, 0, 69, 0
2, 54378, Note_on_c, 0, 62, 0
2, 54506, Note_on_c, 0, 55, 74
2, 54507, Note_on_c, 0, 76, 87
2, 54510, Note_on_c, 0, 70, 96
2, 54510, Note_on_c, 0, 74, 86
2, 54511, Note_on_c, 0, 50, 80
2, 54512, Note_on_c, 0, 58, 90
2, 54518, Control_c, 0, 64, 127
2, 54631, Note_on_c, 0, 50, 0
2, 54702, Control_c, 0, 64, 63
2, 54706, Note_on_c, 0, 70, 0
2, 54707, Control_c, 0, 64, 0
2, 54710, Note_on_c, 0, 76, 0
2, 54711, Note_on_c, 0, 55, 0
2, 54716, Note_on_c, 0, 64, 78
2, 54727, Note_on_c, 0, 62, 90
2, 54728, Note_on_c, 0, 74, 0
2, 54752, Note_on_c, 0, 58, 0
2, 54760, Note_on_c, 0, 64, 0
2, 54775, Note_on_c, 0, 62, 0
2, 54943, Control_c, 0, 64, 127
2, 54965, Note_on_c, 0, 69, 96
2, 54966, Note_on_c, 0, 74, 98
2, 54966, Note_on_c, 0, 66, 95
2, 54967, Note_on_c, 0, 62, 86
2, 54973, Note_on_c, 0, 60, 79
2, 55074, Note_on_c, 0, 76, 93
2, 55080, Note_on_c, 0, 74, 0
2, 55170, Note_on_c, 0, 74, 86
2, 55182, Note_on_c, 0, 76, 0
2, 55272, Note_on_c, 0, 76, 90
2, 55277, Note_on_c, 0, 74, 0
2, 55376, Note_on_c, 0, 78, 99
2, 55395, Note_on_c, 0, 76, 0
2, 55461, Note_on_c, 0, 78, 0
2, 55501, Note_on_c, 0, 69, 0
2, 55506, Note_on_c, 0, 66, 0
2, 55539, Note_on_c, 0, 62, 0
2, 55546, Note_on_c, 0, 60, 0
2, 55594, Note_on_c, 0, 78, 98
2, 55652, Note_on_c, 0, 78, 0
2, 55800, Note_on_c, 0, 58, 105
2, 55809, Control_c, 0, 64, 63
2, 55813, Note_on_c, 0, 67, 81
2, 55815, Note_on_c, 0, 74, 74
2, 55816, Note_on_c, 0, 76, 76
2, 55819, Control_c, 0, 64, 0
2, 55896, Note_on_c, 0, 57, 90
2, 55908, Note_on_c, 0, 58, 0
2, 55919, Note_on_c, 0, 74, 0
2, 55960, Note_on_c, 0, 67, 0
2, 55970, Note_on_c, 0, 76, 0
2, 56004, Note_on_c, 0, 57, 0
2, 56009, Note_on_c, 0, 55, 96
2, 56016, Note_on_c, 0, 79, 74
2, 56078, Note_on_c, 0, 79, 0
2, 56094, Note_on_c, 0, 54, 99
2, 56109, Note_on_c, 0, 55, 0
2, 56166, Note_on_c, 0, 54, 0
2, 56206, Note_on_c, 0, 52, 104
2, 56212, Note_on_c, 0, 73, 98
2, 56213, Note_on_c, 0, 76, 90
2, 56223, Control_c, 0, 64, 63
2, 56224, Control_c, 0, 64, 127
2, 56405, Note_on_c, 0, 73, 0
2, 56430, Note_on_c, 0, 76, 0
2, 56432, Note_on_c, 0, 69, 84
2, 56433, Note_on_c, 0, 57, 80
2, 56434, Control_c, 0, 64, 63
2, 56441, Control_c, 0, 64, 0
2, 56449, Note_on_c, 0, 52, 0
2, 56493, Note_on_c, 0, 69, 0
2, 56502, Note_on_c, 0, 57, 0
2, 56637, Note_on_c, 0, 54, 89
2, 56638, Note_on_c, 0, 57, 91
2, 56640, Note_on_c, 0, 74, 98
2, 56640, Note_on_c, 0, 81, 94
2, 56641, Note_on_c, 0, 50, 84
2, 56643, Note_on_c, 0, 78, 94
2, 56650, Control_c, 0, 64, 127
2, 56815, Note_on_c, 0, 50, 0
2, 56824, Note_on_c, 0, 81, 0
2, 56833, Control_c, 0, 64, 63
2, 56839, Control_c, 0, 64, 0
2, 56849, Note_on_c, 0, 54, 0
2, 56851, Note_on_c, 0, 78, 0
2, 56864, Note_on_c, 0, 74, 0
2, 56865, Note_on_c, 0, 62, 82
2, 56866, Note_on_c, 0, 69, 77
2, 56868, Note_on_c, 0, 57, 0
2, 56919, Note_on_c, 0, 69, 0
2, 56924, Note_on_c, 0, 62, 0
2, 57059, Note_on_c, 0, 50, 77
2, 57063, Note_on_c, 0, 55, 65
2, 57064, Note_on_c, 0, 58, 88
2, 57068, Control_c, 0, 64, 63
2, 57069, Note_on_c, 0, 76, 86
2, 57069, Control_c, 0, 64, 127
2, 57071, Note_on_c, 0, 74, 86
2, 57072, Note_on_c, 0, 70, 96
2, 57186, Note_on_c, 0, 50, 0
2, 57252, Note_on_c, 0, 76, 0
2, 57255, Control_c, 0, 64, 63
2, 57261, Note_on_c, 0, 74, 0
2, 57262, Control_c, 0, 64, 0
2, 57273, Note_on_c, 0, 64, 74
2, 57283, Note_on_c, 0, 55, 0
2, 57285, Note_on_c, 0, 62, 92
2, 57287, Note_on_c, 0, 70, 0
2, 57318, Note_on_c, 0, 58, 0
2, 57322, Note_on_c, 0, 64, 0
2, 57360, Note_on_c, 0, 62, 0
2, 57476, Note_on_c, 0, 54, 94
2, 57478, Note_on_c, 0, 57, 93
2, 57483, Note_on_c, 0, 78, 96
2, 57484, Note_on_c, 0, 74, 98
2, 57484, Note_on_c, 0, 81, 94
2, 57485, Note_on_c, 0, 50, 87
2, 57489, Control_c, 0, 64, 127
2, 57635, Note_on_c, 0, 81, 0
2, 57638, Note_on_c, 0, 50, 0
2, 57661, Control_c, 0, 64, 63
2, 57666, Control_c, 0, 64, 0
2, 57672, Note_on_c, 0, 74, 0
2, 57674, Note_on_c, 0, 78, 0
2, 57681, Note_on_c, 0, 69, 77
2, 57681, Note_on_c, 0, 62, 76
2, 57683, Note_on_c, 0, 54, 0
2, 57695, Note_on_c, 0, 57, 0
2, 57729, Note_on_c, 0, 69, 0
2, 57751, Note_on_c, 0, 62, 0
2, 57875, Control_c, 0, 64, 63
2, 57876, Control_c, 0, 64, 127
2, 57882, Note_on_c, 0, 76, 92
2, 57884, Note_on_c, 0, 55, 70
2, 57885, Note_on_c, 0, 50, 80
2, 57886, Note_on_c, 0, 58, 90
2, 57887, Note_on_c, 0, 70, 100
2, 57888, Note_on_c, 0, 74, 87
2, 58011, Note_on_c, 0, 50, 0
2, 58078, Note_on_c, 0, 55, 0
2, 58080, Control_c, 0, 64, 63
2, 58083, Note_on_c, 0, 64, 75
2, 58086, Note_on_c, 0, 76, 0
2, 58088, Control_c, 0, 64, 0
2, 58098, Note_on_c, 0, 70, 0
2, 58098, Note_on_c, 0, 62, 84
2, 58107, Note_on_c, 0, 74, 0
2, 58113, Note_on_c, 0, 58, 0
2, 58132, Note_on_c, 0, 64, 0
2, 58149, Note_on_c, 0, 62, 0
2, 58323, Note_on_c, 0, 66, 103
2, 58324, Note_on_c, 0, 62, 91
2, 58324, Note_on_c, 0, 74, 101
2, 58325, Note_on_c, 0, 69, 102
2, 58329, Control_c, 0, 64, 127
2, 58333, Note_on_c, 0, 60, 87
2, 58428, Note_on_c, 0, 76, 93
2, 58434, Note_on_c, 0, 74, 0
2, 58515, Note_on_c, 0, 74, 88
2, 58527, Note_on_c, 0, 76, 0
2, 58561, Note_on_c, 0, 60, 0
2, 58626, Note_on_c, 0, 76, 90
2, 58641, Note_on_c, 0, 74, 0
2, 58734, Note_on_c, 0, 78, 104
2, 58761, Note_on_c, 0, 76, 0
2, 58819, Note_on_c, 0, 69, 0
2, 58822, Note_on_c, 0, 78, 0
2, 58842, Note_on_c, 0, 66, 0
2, 58868, Note_on_c, 0, 62, 0
2, 58959, Note_on_c, 0, 78, 97
2, 59029, Note_on_c, 0, 78, 0
2, 59154, Control_c, 0, 64, 63
2, 59161, Control_c, 0, 64, 0
2, 59163, Note_on_c, 0, 58, 102
2, 59165, Note_on_c, 0, 62, 94
2, 59167, Note_on_c, 0, 74, 92
2, 59173, Note_on_c, 0, 76, 93
2, 59217, Note_on_c, 0, 74, 0
2, 59217, Note_on_c, 0, 62, 0
2, 59235, Note_on_c, 0, 58, 0
2, 59271, Note_on_c, 0, 78, 94
2, 59292, Note_on_c, 0, 76, 0
2, 59339, Note_on_c, 0, 78, 0
2, 59382, Note_on_c, 0, 58, 102
2, 59398, Note_on_c, 0, 79, 91
2, 59459, Note_on_c, 0, 79, 0
2, 59459, Note_on_c, 0, 58, 0
2, 59477, Note_on_c, 0, 57, 92
2, 59481, Note_on_c, 0, 81, 101
2, 59556, Note_on_c, 0, 57, 0
2, 59583, Note_on_c, 0, 81, 0
2, 59598, Note_on_c, 0, 82, 105
2, 59601, Note_on_c, 0, 55, 108
2, 59616, Control_c, 0, 64, 127
2, 59842, Note_on_c, 0, 82, 0
2, 59871, Note_on_c, 0, 55, 0
2, 60183, Control_c, 0, 64, 63
2, 60189, Control_c, 0, 64, 0
2, 60199, Note_on_c, 0, 43, 66
2, 60200, Note_on_c, 0, 51, 77
2, 60257, Note_on_c, 0, 43, 0
2, 60262, Note_on_c, 0, 51, 0
2, 60303, Note_on_c, 0, 63, 77
2, 60304, Note_on_c, 0, 61, 71
2, 60345, Note_on_c, 0, 61, 0
2, 60356, Note_on_c, 0, 63, 0
2, 60412, Note_on_c, 0, 58, 81
2, 60471, Note_on_c, 0, 58, 0
2, 60499, Note_on_c, 0, 61, 70
2, 60502, Note_on_c, 0, 63, 72
2, 60549, Note_on_c, 0, 63, 0
2, 60555, Note_on_c, 0, 61, 0
2, 60623, Note_on_c, 0, 56, 59
2, 60632, Note_on_c, 0, 60, 72
2, 60644, Control_c, 0, 64, 63
2, 60645, Control_c, 0, 64, 127
2, 60703, Note_on_c, 0, 56, 0
2, 60709, Note_on_c, 0, 60, 0
2, 60726, Note_on_c, 0, 63, 22
2, 60761, Note_on_c, 0, 63, 0
2, 60840, Note_on_c, 0, 72, 72
2, 60840, Note_on_c, 0, 63, 86
2, 60846, Control_c, 0, 64, 63
2, 60852, Note_on_c, 0, 51, 77
2, 60855, Note_on_c, 0, 44, 64
2, 60855, Control_c, 0, 64, 0
2, 60887, Note_on_c, 0, 63, 0
2, 60894, Note_on_c, 0, 72, 0
2, 60898, Note_on_c, 0, 44, 0
2, 60924, Note_on_c, 0, 51, 0
2, 61059, Note_on_c, 0, 45, 75
2, 61059, Note_on_c, 0, 53, 82
2, 61068, Control_c, 0, 64, 127
2, 61122, Note_on_c, 0, 45, 0
2, 61143, Note_on_c, 0, 53, 0
2, 61145, Note_on_c, 0, 63, 74
2, 61156, Note_on_c, 0, 65, 62
2, 61217, Note_on_c, 0, 63, 0
2, 61218, Note_on_c, 0, 65, 0
2, 61227, Control_c, 0, 64, 63
2, 61233, Control_c, 0, 64, 0
2, 61253, Note_on_c, 0, 60, 93
2, 61306, Note_on_c, 0, 60, 0
2, 61338, Note_on_c, 0, 63, 69
2, 61351, Note_on_c, 0, 65, 46
2, 61404, Note_on_c, 0, 65, 0
2, 61404, Note_on_c, 0, 63, 0
2, 61473, Note_on_c, 0, 58, 86
2, 61479, Note_on_c, 0, 62, 89
2, 61481, Control_c, 0, 64, 63
2, 61482, Control_c, 0, 64, 127
2, 61556, Note_on_c, 0, 58, 0
2, 61569, Note_on_c, 0, 62, 0
2, 61682, Note_on_c, 0, 74, 83
2, 61687, Note_on_c, 0, 65, 84
2, 61692, Control_c, 0, 64, 63
2, 61694, Note_on_c, 0, 46, 63
2, 61696, Note_on_c, 0, 53, 66
2, 61699, Control_c, 0, 64, 0
2, 61735, Note_on_c, 0, 65, 0
2, 61739, Note_on_c, 0, 74, 0
2, 61758, Note_on_c, 0, 46, 0
2, 61758, Note_on_c, 0, 53, 0
2, 61908, Control_c, 0, 64, 63
2, 61908, Control_c, 0, 64, 127
2, 61909, Note_on_c, 0, 62, 96
2, 61924, Note_on_c, 0, 55, 83
2, 61927, Note_on_c, 0, 47, 73
2, 61992, Note_on_c, 0, 62, 0
2, 62096, Note_on_c, 0, 47, 0
2, 62128, Note_on_c, 0, 59, 70
2, 62138, Note_on_c, 0, 74, 49
2, 62138, Note_on_c, 0, 67, 63
2, 62144, Note_on_c, 0, 65, 53
2, 62151, Note_on_c, 0, 55, 0
2, 62154, Control_c, 0, 64, 63
2, 62161, Control_c, 0, 64, 0
2, 62177, Note_on_c, 0, 65, 0
2, 62182, Note_on_c, 0, 74, 0
2, 62184, Note_on_c, 0, 59, 0
2, 62189, Note_on_c, 0, 67, 0
2, 62348, Control_c, 0, 64, 127
2, 62356, Note_on_c, 0, 63, 87
2, 62358, Note_on_c, 0, 48, 78
2, 62367, Note_on_c, 0, 55, 74
2, 62491, Note_on_c, 0, 63, 0
2, 62553, Note_on_c, 0, 60, 80
2, 62554, Note_on_c, 0, 48, 0
2, 62554, Note_on_c, 0, 75, 91
2, 62561, Note_on_c, 0, 67, 69
2, 62587, Note_on_c, 0, 55, 0
2, 62592, Note_on_c, 0, 67, 0
2, 62594, Control_c, 0, 64, 63
2, 62601, Control_c, 0, 64, 0
2, 62622, Note_on_c, 0, 75, 0
2, 62625, Note_on_c, 0, 60, 0
2, 62770, Note_on_c, 0, 65, 91
2, 62771, Control_c, 0, 64, 63
2, 62772, Control_c, 0, 64, 127
2, 62778, Note_on_c, 0, 50, 97
2, 62779, Note_on_c, 0, 55, 94
2, 62848, Note_on_c, 0, 65, 0
2, 62982, Note_on_c, 0, 62, 80
2, 62987, Note_on_c, 0, 79, 82
2, 62991, Note_on_c, 0, 71, 81
2, 62999, Control_c, 0, 64, 63
2, 63009, Control_c, 0, 64, 0
2, 63019, Note_on_c, 0, 55, 0
2, 63021, Note_on_c, 0, 50, 0
2, 63035, Note_on_c, 0, 71, 0
2, 63036, Note_on_c, 0, 79, 0
2, 63046, Note_on_c, 0, 62, 0
2, 63204, Note_on_c, 0, 63, 93
2, 63204, Control_c, 0, 64, 127
2, 63206, Note_on_c, 0, 55, 67
2, 63207, Note_on_c, 0, 48, 70
2, 63414, Note_on_c, 0, 60, 66
2, 63416, Note_on_c, 0, 63, 0
2, 63417, Control_c, 0, 64, 63
2, 63418, Note_on_c, 0, 75, 66
2, 63419, Note_on_c, 0, 67, 61
2, 63425, Control_c, 0, 64, 0
2, 63438, Note_on_c, 0, 48, 0
2, 63459, Note_on_c, 0, 67, 0
2, 63460, Note_on_c, 0, 75, 0
2, 63471, Note_on_c, 0, 55, 0
2, 63485, Note_on_c, 0, 60, 0
2, 63639, Note_on_c, 0, 47, 75
2, 63643, Control_c, 0, 64, 127
2, 63650, Note_on_c, 0, 55, 62
2, 63708, Note_on_c, 0, 47, 0
2, 63723, Note_on_c, 0, 55, 0
2, 63748, Note_on_c, 0, 65, 63
2, 63750, Note_on_c, 0, 67, 62
2, 63802, Note_on_c, 0, 67, 0
2, 63808, Note_on_c, 0, 65, 0
2, 63834, Control_c, 0, 64, 63
2, 63841, Control_c, 0, 64, 0
2, 63847, Note_on_c, 0, 62, 92
2, 63905, Note_on_c, 0, 62, 0
2, 63943, Note_on_c, 0, 67, 84
2, 63945, Note_on_c, 0, 65, 77
2, 63993, Note_on_c, 0, 65, 0
2, 64000, Note_on_c, 0, 67, 0
2, 64047, Control_c, 0, 64, 127
2, 64054, Note_on_c, 0, 60, 97
2, 64061, Note_on_c, 0, 64, 91
2, 64185, Note_on_c, 0, 64, 0
2, 64223, Note_on_c, 0, 60, 0
2, 64266, Note_on_c, 0, 67, 91
2, 64266, Note_on_c, 0, 55, 80
2, 64267, Note_on_c, 0, 76, 91
2, 64269, Note_on_c, 0, 48, 75
2, 64272, Control_c, 0, 64, 63
2, 64276, Control_c, 0, 64, 0
2, 64313, Note_on_c, 0, 67, 0
2, 64323, Note_on_c, 0, 55, 0
2, 64336, Note_on_c, 0, 76, 0
2, 64340, Note_on_c, 0, 48, 0
2, 64470, Control_c, 0, 64, 127
2, 64483, Note_on_c, 0, 57, 89
2, 64487, Note_on_c, 0, 49, 94
2, 64569, Note_on_c, 0, 49, 0
2, 64592, Note_on_c, 0, 67, 75
2, 64595, Note_on_c, 0, 69, 77
2, 64625, Note_on_c, 0, 57, 0
2, 64661, Note_on_c, 0, 69, 0
2, 64664, Note_on_c, 0, 67, 0
2, 64677, Note_on_c, 0, 64, 91
2, 64693, Control_c, 0, 64, 63
2, 64701, Control_c, 0, 64, 0
2, 64758, Note_on_c, 0, 64, 0
2, 64770, Note_on_c, 0, 67, 89
2, 64772, Note_on_c, 0, 69, 92
2, 64829, Note_on_c, 0, 67, 0
2, 64851, Note_on_c, 0, 69, 0
2, 64881, Note_on_c, 0, 62, 102
2, 64893, Note_on_c, 0, 65, 96
2, 64897, Control_c, 0, 64, 63
2, 64899, Control_c, 0, 64, 127
2, 65035, Note_on_c, 0, 65, 0
2, 65091, Note_on_c, 0, 62, 0
2, 65103, Note_on_c, 0, 57, 74
2, 65103, Note_on_c, 0, 69, 86
2, 65106, Note_on_c, 0, 77, 82
2, 65110, Note_on_c, 0, 50, 66
2, 65115, Control_c, 0, 64, 63
2, 65127, Control_c, 0, 64, 0
2, 65157, Note_on_c, 0, 69, 0
2, 65163, Note_on_c, 0, 77, 0
2, 65166, Note_on_c, 0, 57, 0
2, 65177, Note_on_c, 0, 50, 0
2, 65318, Control_c, 0, 64, 63
2, 65325, Note_on_c, 0, 64, 68
2, 65334, Control_c, 0, 64, 127
2, 65336, Note_on_c, 0, 49, 75
2, 65337, Note_on_c, 0, 57, 57
2, 65454, Note_on_c, 0, 64, 0
2, 65489, Note_on_c, 0, 49, 0
2, 65537, Note_on_c, 0, 61, 80
2, 65547, Note_on_c, 0, 76, 70
2, 65552, Note_on_c, 0, 67, 60
2, 65556, Note_on_c, 0, 69, 61
2, 65566, Control_c, 0, 64, 63
2, 65577, Note_on_c, 0, 57, 0
2, 65580, Control_c, 0, 64, 0
2, 65588, Note_on_c, 0, 67, 0
2, 65601, Note_on_c, 0, 61, 0
2, 65601, Note_on_c, 0, 69, 0
2, 65608, Note_on_c, 0, 76, 0
2, 65755, Note_on_c, 0, 65, 88
2, 65756, Control_c, 0, 64, 63
2, 65757, Note_on_c, 0, 50, 91
2, 65759, Note_on_c, 0, 57, 89
2, 65769, Control_c, 0, 64, 127
2, 65879, Note_on_c, 0, 65, 0
2, 65938, Note_on_c, 0, 50, 0
2, 65955, Note_on_c, 0, 62, 94
2, 65963, Note_on_c, 0, 69, 81
2, 65963, Note_on_c, 0, 77, 86
2, 66004, Note_on_c, 0, 57, 0
2, 66015, Note_on_c, 0, 69, 0
2, 66027, Note_on_c, 0, 77, 0
2, 66066, Control_c, 0, 64, 63
2, 66078, Note_on_c, 0, 62, 0
2, 66090, Control_c, 0, 64, 0
2, 66174, Note_on_c, 0, 67, 98
2, 66184, Note_on_c, 0, 52, 107
2, 66190, Control_c, 0, 64, 63
2, 66191, Note_on_c, 0, 57, 103
2, 66204, Control_c, 0, 64, 127
2, 66335, Note_on_c, 0, 67, 0
2, 66408, Note_on_c, 0, 64, 81
2, 66417, Note_on_c, 0, 73, 98
2, 66418, Note_on_c, 0, 81, 89
2, 66468, Control_c, 0, 64, 63
2, 66471, Note_on_c, 0, 57, 0
2, 66472, Note_on_c, 0, 81, 0
2, 66474, Note_on_c, 0, 73, 0
2, 66477, Note_on_c, 0, 52, 0
2, 66480, Note_on_c, 0, 64, 0
2, 66500, Control_c, 0, 64, 0
2, 66619, Note_on_c, 0, 65, 84
2, 66627, Note_on_c, 0, 57, 78
2, 66629, Note_on_c, 0, 50, 78
2, 66651, Control_c, 0, 64, 63
2, 66668, Control_c, 0, 64, 127
2, 66776, Note_on_c, 0, 65, 0
2, 66831, Note_on_c, 0, 77, 78
2, 66832, Note_on_c, 0, 62, 70
2, 66837, Note_on_c, 0, 50, 0
2, 66839, Note_on_c, 0, 69, 51
2, 66870, Control_c, 0, 64, 63
2, 66891, Note_on_c, 0, 57, 0
2, 66895, Note_on_c, 0, 77, 0
2, 66900, Note_on_c, 0, 62, 0
2, 66900, Note_on_c, 0, 69, 0
2, 66906, Control_c, 0, 64, 0
2, 67033, Note_on_c, 0, 64, 72
2, 67050, Note_on_c, 0, 49, 75
2, 67059, Note_on_c, 0, 57, 54
2, 67073, Control_c, 0, 64, 63
2, 67096, Control_c, 0, 64, 127
2, 67178, Note_on_c, 0, 64, 0
2, 67230, Note_on_c, 0, 49, 0
2, 67249, Note_on_c, 0, 61, 74
2, 67252, Note_on_c, 0, 67, 69
2, 67258, Note_on_c, 0, 76, 69
2, 67261, Note_on_c, 0, 69, 64
2, 67295, Note_on_c, 0, 57, 0
2, 67296, Control_c, 0, 64, 63
2, 67298, Note_on_c, 0, 67, 0
2, 67305, Note_on_c, 0, 61, 0
2, 67310, Note_on_c, 0, 76, 0
2, 67311, Note_on_c, 0, 69, 0
2, 67322, Control_c, 0, 64, 0
2, 67467, Note_on_c, 0, 65, 87
2, 67473, Note_on_c, 0, 50, 96
2, 67477, Control_c, 0, 64, 63
2, 67480, Note_on_c, 0, 57, 93
2, 67503, Control_c, 0, 64, 127
2, 67597, Note_on_c, 0, 65, 0
2, 67629, Note_on_c, 0, 50, 0
2, 67674, Note_on_c, 0, 62, 94
2, 67677, Note_on_c, 0, 69, 88
2, 67679, Note_on_c, 0, 77, 88
2, 67680, Note_on_c, 0, 57, 0
2, 67726, Note_on_c, 0, 69, 0
2, 67743, Note_on_c, 0, 77, 0
2, 67752, Note_on_c, 0, 62, 0
2, 67770, Control_c, 0, 64, 63
2, 67794, Control_c, 0, 64, 0
2, 67890, Note_on_c, 0, 69, 103
2, 67895, Note_on_c, 0, 59, 96
2, 67899, Note_on_c, 0, 51, 96
2, 67902, Control_c, 0, 64, 63
2, 67915, Control_c, 0, 64, 127
2, 68046, Note_on_c, 0, 51, 0
2, 68069, Note_on_c, 0, 69, 0
2, 68121, Note_on_c, 0, 78, 89
2, 68127, Note_on_c, 0, 66, 94
2, 68134, Note_on_c, 0, 83, 59
2, 68167, Note_on_c, 0, 66, 0
2, 68168, Note_on_c, 0, 59, 0
2, 68169, Note_on_c, 0, 83, 0
2, 68170, Note_on_c, 0, 78, 0
2, 68185, Control_c, 0, 64, 63
2, 68210, Control_c, 0, 64, 0
2, 68326, Note_on_c, 0, 67, 66
2, 68338, Note_on_c, 0, 59, 77
2, 68341, Note_on_c, 0, 52, 75
2, 68395, Control_c, 0, 64, 63
2, 68411, Control_c, 0, 64, 127
2, 68472, Note_on_c, 0, 67, 0
2, 68509, Note_on_c, 0, 52, 0
2, 68535, Note_on_c, 0, 71, 73
2, 68535, Note_on_c, 0, 79, 70
2, 68539, Note_on_c, 0, 64, 63
2, 68586, Control_c, 0, 64, 63
2, 68592, Note_on_c, 0, 71, 0
2, 68592, Note_on_c, 0, 59, 0
2, 68593, Note_on_c, 0, 79, 0
2, 68602, Note_on_c, 0, 64, 0
2, 68607, Control_c, 0, 64, 0
2, 68744, Control_c, 0, 64, 63
2, 68746, Note_on_c, 0, 66, 82
2, 68755, Note_on_c, 0, 59, 69
2, 68763, Note_on_c, 0, 51, 69
2, 68764, Control_c, 0, 64, 127
2, 68895, Note_on_c, 0, 66, 0
2, 68940, Note_on_c, 0, 51, 0
2, 68959, Note_on_c, 0, 78, 78
2, 68962, Note_on_c, 0, 63, 81
2, 68977, Note_on_c, 0, 71, 53
2, 68982, Note_on_c, 0, 69, 9
2, 68994, Note_on_c, 0, 59, 0
2, 69007, Note_on_c, 0, 69, 0
2, 69008, Note_on_c, 0, 71, 0
2, 69015, Note_on_c, 0, 63, 0
2, 69028, Control_c, 0, 64, 63
2, 69045, Control_c, 0, 64, 0
2, 69054, Note_on_c, 0, 78, 0
2, 69171, Note_on_c, 0, 67, 91
2, 69174, Note_on_c, 0, 52, 98
2, 69182, Note_on_c, 0, 59, 96
2, 69190, Control_c, 0, 64, 63
2, 69202, Control_c, 0, 64, 127
2, 69276, Note_on_c, 0, 67, 0
2, 69360, Note_on_c, 0, 52, 0
2, 69375, Note_on_c, 0, 71, 88
2, 69376, Note_on_c, 0, 79, 88
2, 69376, Note_on_c, 0, 64, 89
2, 69414, Note_on_c, 0, 59, 0
2, 69422, Note_on_c, 0, 71, 0
2, 69446, Note_on_c, 0, 79, 0
2, 69459, Note_on_c, 0, 64, 0
2, 69476, Control_c, 0, 64, 63
2, 69496, Control_c, 0, 64, 0
2, 69584, Note_on_c, 0, 71, 103
2, 69588, Note_on_c, 0, 61, 106
2, 69588, Control_c, 0, 64, 63
2, 69589, Note_on_c, 0, 53, 93
2, 69603, Control_c, 0, 64, 127
2, 69687, Note_on_c, 0, 53, 0
2, 69711, Note_on_c, 0, 71, 0
2, 69756, Note_on_c, 0, 61, 0
2, 69806, Note_on_c, 0, 68, 95
2, 69814, Note_on_c, 0, 80, 80
2, 69818, Note_on_c, 0, 85, 70
2, 69846, Note_on_c, 0, 85, 0
2, 69851, Note_on_c, 0, 80, 0
2, 69852, Control_c, 0, 64, 63
2, 69854, Note_on_c, 0, 68, 0
2, 69864, Control_c, 0, 64, 0
2, 70021, Note_on_c, 0, 69, 64
2, 70022, Note_on_c, 0, 61, 86
2, 70023, Note_on_c, 0, 54, 84
2, 70024, Note_on_c, 0, 67, 59
2, 70041, Control_c, 0, 64, 63
2, 70048, Control_c, 0, 64, 127
2, 70069, Note_on_c, 0, 67, 0
2, 70158, Note_on_c, 0, 69, 0
2, 70176, Note_on_c, 0, 54, 0
2, 70218, Note_on_c, 0, 73, 94
2, 70219, Note_on_c, 0, 81, 83
2, 70221, Note_on_c, 0, 66, 78
2, 70246, Note_on_c, 0, 61, 0
2, 70261, Control_c, 0, 64, 63
2, 70267, Note_on_c, 0, 73, 0
2, 70275, Control_c, 0, 64, 0
2, 70276, Note_on_c, 0, 81, 0
2, 70287, Note_on_c, 0, 66, 0
2, 70416, Control_c, 0, 64, 63
2, 70433, Note_on_c, 0, 54, 93
2, 70434, Control_c, 0, 64, 127
2, 70434, Note_on_c, 0, 72, 102
2, 70440, Note_on_c, 0, 62, 97
2, 70543, Note_on_c, 0, 54, 0
2, 70600, Note_on_c, 0, 72, 0
2, 70643, Note_on_c, 0, 69, 86
2, 70650, Note_on_c, 0, 81, 92
2, 70653, Note_on_c, 0, 86, 65
2, 70668, Note_on_c, 0, 62, 0
2, 70698, Note_on_c, 0, 81, 0
2, 70699, Note_on_c, 0, 86, 0
2, 70702, Control_c, 0, 64, 63
2, 70715, Control_c, 0, 64, 0
2, 70725, Note_on_c, 0, 69, 0
2, 70853, Note_on_c, 0, 71, 91
2, 70863, Note_on_c, 0, 55, 91
2, 70867, Note_on_c, 0, 62, 99
2, 70895, Control_c, 0, 64, 63
2, 70903, Control_c, 0, 64, 127
2, 70996, Note_on_c, 0, 71, 0
2, 71045, Note_on_c, 0, 55, 0
2, 71053, Note_on_c, 0, 83, 86
2, 71055, Note_on_c, 0, 74, 87
2, 71059, Note_on_c, 0, 67, 74
2, 71092, Note_on_c, 0, 62, 0
2, 71100, Note_on_c, 0, 74, 0
2, 71103, Control_c, 0, 64, 63
2, 71117, Note_on_c, 0, 83, 0
2, 71123, Note_on_c, 0, 67, 0
2, 71134, Control_c, 0, 64, 0
2, 71230, Control_c, 0, 64, 63
2, 71245, Control_c, 0, 64, 127
2, 71261, Note_on_c, 0, 72, 107
2, 71262, Note_on_c, 0, 62, 104
2, 71266, Note_on_c, 0, 54, 104
2, 71371, Note_on_c, 0, 54, 0
2, 71401, Note_on_c, 0, 72, 0
2, 71454, Note_on_c, 0, 69, 94
2, 71457, Note_on_c, 0, 81, 97
2, 71460, Note_on_c, 0, 86, 91
2, 71469, Note_on_c, 0, 62, 0
2, 71504, Note_on_c, 0, 81, 0
2, 71508, Control_c, 0, 64, 63
2, 71513, Note_on_c, 0, 86, 0
2, 71521, Control_c, 0, 64, 0
2, 71528, Note_on_c, 0, 69, 0
2, 71665, Note_on_c, 0, 55, 107
2, 71669, Note_on_c, 0, 71, 103
2, 71670, Note_on_c, 0, 62, 112
2, 71683, Control_c, 0, 64, 63
2, 71691, Control_c, 0, 64, 127
2, 71814, Note_on_c, 0, 71, 0
2, 71856, Note_on_c, 0, 55, 0
2, 71877, Note_on_c, 0, 67, 93
2, 71884, Note_on_c, 0, 83, 96
2, 71886, Note_on_c, 0, 74, 90
2, 71893, Note_on_c, 0, 62, 0
2, 71910, Note_on_c, 0, 74, 0
2, 71925, Note_on_c, 0, 67, 0
2, 71935, Control_c, 0, 64, 63
2, 71949, Note_on_c, 0, 83, 0
2, 71957, Control_c, 0, 64, 0
2, 72153, Note_on_c, 0, 67, 101
2, 72153, Note_on_c, 0, 70, 106
2, 72154, Note_on_c, 0, 74, 108
2, 72159, Control_c, 0, 64, 63
2, 72164, Control_c, 0, 64, 127
2, 72165, Note_on_c, 0, 88, 112
2, 72296, Note_on_c, 0, 86, 89
2, 72339, Note_on_c, 0, 88, 0
2, 72398, Note_on_c, 0, 82, 98
2, 72427, Note_on_c, 0, 86, 0
2, 72439, Note_on_c, 0, 74, 0
2, 72450, Note_on_c, 0, 70, 0
2, 72458, Note_on_c, 0, 67, 0
2, 72498, Note_on_c, 0, 81, 93
2, 72563, Note_on_c, 0, 82, 0
2, 72591, Note_on_c, 0, 76, 92
2, 72597, Note_on_c, 0, 79, 93
2, 72638, Note_on_c, 0, 81, 0
2, 72666, Note_on_c, 0, 79, 0
2, 72712, Note_on_c, 0, 74, 90
2, 72748, Note_on_c, 0, 76, 0
2, 72805, Note_on_c, 0, 70, 75
2, 72840, Note_on_c, 0, 74, 0
2, 72899, Note_on_c, 0, 69, 73
2, 72965, Note_on_c, 0, 70, 0
2, 73017, Note_on_c, 0, 64, 87
2, 73018, Note_on_c, 0, 67, 87
2, 73064, Note_on_c, 0, 69, 0
2, 73072, Note_on_c, 0, 67, 0
2, 73125, Note_on_c, 0, 62, 87
2, 73207, Note_on_c, 0, 64, 0
2, 73239, Note_on_c, 0, 58, 90
2, 73278, Note_on_c, 0, 62, 0
2, 73341, Note_on_c, 0, 57, 79
2, 73396, Note_on_c, 0, 58, 0
2, 73437, Note_on_c, 0, 52, 87
2, 73452, Note_on_c, 0, 55, 83
2, 73492, Note_on_c, 0, 57, 0
2, 73529, Note_on_c, 0, 55, 0
2, 73546, Note_on_c, 0, 50, 81
2, 73581, Note_on_c, 0, 52, 0
2, 73638, Note_on_c, 0, 46, 79
2, 73668, Note_on_c, 0, 50, 0
2, 73733, Note_on_c, 0, 45, 70
2, 73769, Note_on_c, 0, 46, 0
2, 73850, Note_on_c, 0, 43, 101
2, 73885, Note_on_c, 0, 45, 0
2, 73888, Control_c, 0, 64, 63
2, 73899, Control_c, 0, 64, 0
2, 73925, Note_on_c, 0, 43, 0
2, 74074, Note_on_c, 0, 43, 102
2, 74180, Note_on_c, 0, 43, 0
2, 74280, Note_on_c, 0, 44, 86
2, 74297, Note_on_c, 0, 64, 103
2, 74300, Note_on_c, 0, 62, 97
2, 74319, Control_c, 0, 64, 63
2, 74319, Control_c, 0, 64, 127
2, 74395, Note_on_c, 0, 45, 80
2, 74478, Note_on_c, 0, 44, 0
2, 74502, Note_on_c, 0, 46, 91
2, 74526, Note_on_c, 0, 45, 0
2, 74600, Note_on_c, 0, 44, 97
2, 74638, Note_on_c, 0, 46, 0
2, 74718, Note_on_c, 0, 45, 101
2, 74723, Note_on_c, 0, 64, 0
2, 74737, Control_c, 0, 64, 63
2, 74739, Note_on_c, 0, 62, 0
2, 74743, Control_c, 0, 64, 0
2, 74753, Note_on_c, 0, 44, 0
2, 74774, Note_on_c, 0, 45, 0
2, 74952, Note_on_c, 0, 69, 91
2, 74953, Note_on_c, 0, 45, 83
2, 74955, Note_on_c, 0, 64, 91
2, 74955, Note_on_c, 0, 61, 102
2, 74955, Note_on_c, 0, 55, 94
2, 74994, Note_on_c, 0, 61, 0
2, 74996, Note_on_c, 0, 45, 0
2, 74997, Note_on_c, 0, 64, 0
2, 75002, Note_on_c, 0, 69, 0
2, 75003, Note_on_c, 0, 55, 0
2, 75233, Note_on_c, 0, 57, 104
2, 75236, Note_on_c, 0, 74, 104
2, 75237, Note_on_c, 0, 69, 103
2, 75238, Note_on_c, 0, 50, 103
2, 75238, Note_on_c, 0, 54, 106
2, 75268, Control_c, 0, 64, 127
2, 75296, Note_on_c, 0, 69, 0
2, 75300, Note_on_c, 0, 57, 0
2, 75301, Note_on_c, 0, 74, 0
2, 75306, Note_on_c, 0, 50, 0
2, 75309, Note_on_c, 0, 54, 0
2, 75847, Control_c, 0, 64, 63
2, 75874, Control_c, 0, 64, 0
2, 76031, Control_c, 0, 64, 127
2, 76051, Note_on_c, 0, 58, 36
2, 76052, Note_on_c, 0, 54, 57
2, 76055, Note_on_c, 0, 78, 60
2, 76056, Note_on_c, 0, 86, 69
2, 76057, Note_on_c, 0, 46, 43
2, 76058, Note_on_c, 0, 74, 39
2, 76109, Control_c, 0, 64, 63
2, 76118, Control_c, 0, 64, 0
2, 76164, Control_c, 0, 64, 63
2, 76170, Control_c, 0, 64, 127
2, 76466, Note_on_c, 0, 46, 0
2, 76512, Note_on_c, 0, 54, 0
2, 76526, Note_on_c, 0, 78, 0
2, 76607, Note_on_c, 0, 79, 61
2, 76621, Note_on_c, 0, 55, 45
2, 76751, Note_on_c, 0, 86, 0
2, 76781, Note_on_c, 0, 79, 0
2, 76823, Note_on_c, 0, 74, 0
2, 76843, Note_on_c, 0, 58, 0
2, 76844, Note_on_c, 0, 55, 0
2, 77042, Control_c, 0, 64, 63
2, 77048, Control_c, 0, 64, 0
2, 77121, Note_on_c, 0, 84, 80
2, 77123, Note_on_c, 0, 72, 63
2, 77128, Note_on_c, 0, 60, 68
2, 77129, Note_on_c, 0, 76, 70
2, 77136, Note_on_c, 0, 48, 55
2, 77138, Note_on_c, 0, 55, 58
2, 77186, Control_c, 0, 64, 63
2, 77197, Control_c, 0, 64, 127
2, 77380, Note_on_c, 0, 76, 0
2, 77448, Note_on_c, 0, 55, 0
2, 77628, Note_on_c, 0, 48, 0
2, 77644, Note_on_c, 0, 77, 62
2, 77650, Note_on_c, 0, 57, 38
2, 77680, Note_on_c, 0, 84, 0
2, 77750, Note_on_c, 0, 77, 0
2, 77752, Note_on_c, 0, 72, 0
2, 77761, Note_on_c, 0, 60, 0
2, 77809, Note_on_c, 0, 57, 0
2, 78011, Control_c, 0, 64, 63
2, 78027, Control_c, 0, 64, 0
2, 78088, Control_c, 0, 64, 63
2, 78110, Control_c, 0, 64, 127
2, 78115, Note_on_c, 0, 49, 48
2, 78118, Note_on_c, 0, 81, 73
2, 78120, Note_on_c, 0, 69, 61
2, 78131, Note_on_c, 0, 61, 55
2, 78134, Note_on_c, 0, 57, 34
2, 78137, Note_on_c, 0, 77, 66
2, 78191, Note_on_c, 0, 69, 0
2, 78203, Note_on_c, 0, 77, 0
2, 78209, Note_on_c, 0, 61, 0
2, 78219, Note_on_c, 0, 81, 0
2, 78236, Note_on_c, 0, 49, 0
2, 78237, Note_on_c, 0, 57, 0
2, 78482, Note_on_c, 0, 82, 80
2, 78486, Note_on_c, 0, 70, 70
2, 78530, Note_on_c, 0, 70, 0
2, 78540, Note_on_c, 0, 82, 0
2, 78622, Note_on_c, 0, 58, 40
2, 78632, Note_on_c, 0, 62, 48
2, 78633, Note_on_c, 0, 79, 50
2, 78643, Note_on_c, 0, 77, 63
2, 78653, Note_on_c, 0, 67, 22
2, 78654, Note_on_c, 0, 50, 16
2, 78669, Control_c, 0, 64, 63
2, 78687, Control_c, 0, 64, 0
2, 78715, Control_c, 0, 64, 63
2, 78744, Control_c, 0, 64, 127
2, 78779, Note_on_c, 0, 67, 0
2, 78787, Note_on_c, 0, 62, 0
2, 78796, Note_on_c, 0, 79, 0
2, 78809, Note_on_c, 0, 77, 0
2, 78860, Note_on_c, 0, 50, 0
2, 78860, Note_on_c, 0, 58, 0
2, 79016, Control_c, 0, 64, 63
2, 79061, Control_c, 0, 64, 0
2, 79163, Control_c, 0, 64, 63
2, 79186, Note_on_c, 0, 69, 68
2, 79188, Control_c, 0, 64, 127
2, 79193, Note_on_c, 0, 58, 38
2, 79194, Note_on_c, 0, 48, 50
2, 79195, Note_on_c, 0, 55, 39
2, 79228, Note_on_c, 0, 64, 34
2, 79237, Note_on_c, 0, 55, 0
2, 79281, Note_on_c, 0, 48, 0
2, 79334, Note_on_c, 0, 69, 0
2, 79379, Note_on_c, 0, 64, 0
2, 79478, Note_on_c, 0, 58, 0
2, 79727, Note_on_c, 0, 57, 32
2, 79728, Note_on_c, 0, 65, 37
2, 79731, Note_on_c, 0, 48, 31
2, 79748, Note_on_c, 0, 41, 24
2, 79808, Control_c, 0, 64, 63
2, 79820, Control_c, 0, 64, 0
2, 79894, Control_c, 0, 64, 63
2, 79909, Control_c, 0, 64, 127
2, 79931, Note_on_c, 0, 48, 0
2, 79981, Note_on_c, 0, 41, 0
2, 79981, Note_on_c, 0, 57, 0
2, 80012, Note_on_c, 0, 65, 0
2, 80068, Control_c, 0, 64, 63
2, 80090, Control_c, 0, 64, 0
2, 80234, Control_c, 0, 64, 63
2, 80249, Note_on_c, 0, 41, 62
2, 80252, Control_c, 0, 64, 127
2, 80255, Note_on_c, 0, 29, 57
2, 80321, Note_on_c, 0, 29, 0
2, 80356, Note_on_c, 0, 41, 0
2, 80537, Note_on_c, 0, 57, 55
2, 80543, Note_on_c, 0, 60, 60
2, 80615, Note_on_c, 0, 57, 0
2, 80641, Note_on_c, 0, 60, 0
2, 80817, Note_on_c, 0, 55, 47
2, 80819, Note_on_c, 0, 41, 54
2, 80821, Note_on_c, 0, 58, 56
2, 80822, Note_on_c, 0, 65, 72
2, 80828, Note_on_c, 0, 48, 52
2, 81023, Control_c, 0, 64, 63
2, 81059, Control_c, 0, 64, 0
2, 81078, Note_on_c, 0, 64, 76
2, 81116, Note_on_c, 0, 65, 0
2, 81329, Note_on_c, 0, 62, 63
2, 81353, Note_on_c, 0, 64, 0
2, 81385, Control_c, 0, 64, 63
2, 81393, Control_c, 0, 64, 127
2, 81569, Note_on_c, 0, 64, 58
2, 81640, Note_on_c, 0, 62, 0
2, 81650, Note_on_c, 0, 55, 0
2, 81671, Note_on_c, 0, 48, 0
2, 81706, Note_on_c, 0, 58, 0
2, 81714, Note_on_c, 0, 41, 0
2, 81821, Note_on_c, 0, 64, 0
2, 81838, Note_on_c, 0, 57, 30
2, 81839, Note_on_c, 0, 65, 44
2, 81840, Note_on_c, 0, 53, 22
2, 81844, Note_on_c, 0, 48, 15
2, 81855, Note_on_c, 0, 41, 7
2, 81885, Control_c, 0, 64, 63
2, 81902, Control_c, 0, 64, 0
2, 81954, Control_c, 0, 64, 63
2, 81974, Control_c, 0, 64, 127
2, 82043, Note_on_c, 0, 57, 0
2, 82055, Note_on_c, 0, 41, 0
2, 82096, Note_on_c, 0, 65, 0
2, 82125, Note_on_c, 0, 48, 0
2, 82162, Note_on_c, 0, 53, 0
2, 82257, Control_c, 0, 64, 63
2, 82268, Control_c, 0, 64, 0
2, 82349, Note_on_c, 0, 72, 60
2, 82358, Note_on_c, 0, 69, 42
2, 82362, Note_on_c, 0, 65, 28
2, 82388, Control_c, 0, 64, 63
2, 82402, Control_c, 0, 64, 127
2, 82503, Note_on_c, 0, 72, 0
2, 82518, Note_on_c, 0, 65, 0
2, 82526, Note_on_c, 0, 69, 0
2, 82606, Note_on_c, 0, 48, 73
2, 82667, Note_on_c, 0, 48, 0
2, 82850, Note_on_c, 0, 58, 58
2, 82853, Note_on_c, 0, 60, 74
2, 82864, Note_on_c, 0, 53, 69
2, 83097, Note_on_c, 0, 52, 75
2, 83171, Note_on_c, 0, 53, 0
2, 83178, Control_c, 0, 64, 63
2, 83220, Control_c, 0, 64, 0
2, 83347, Note_on_c, 0, 50, 65
2, 83414, Note_on_c, 0, 52, 0
2, 83521, Note_on_c, 0, 60, 0
2, 83563, Note_on_c, 0, 52, 58
2, 83597, Note_on_c, 0, 50, 0
2, 83616, Control_c, 0, 64, 63
2, 83624, Control_c, 0, 64, 127
2, 83678, Note_on_c, 0, 58, 0
2, 83845, Note_on_c, 0, 57, 25
2, 83846, Note_on_c, 0, 60, 50
2, 83858, Note_on_c, 0, 53, 20
2, 83872, Note_on_c, 0, 52, 0
2, 83902, Control_c, 0, 64, 63
2, 83914, Control_c, 0, 64, 0
2, 84000, Control_c, 0, 64, 63
2, 84020, Control_c, 0, 64, 127
2, 84100, Note_on_c, 0, 57, 0
2, 84130, Note_on_c, 0, 60, 0
2, 84145, Note_on_c, 0, 53, 0
2, 84214, Control_c, 0, 64, 63
2, 84226, Control_c, 0, 64, 0
2, 84329, Note_on_c, 0, 57, 59
2, 84359, Control_c, 0, 64, 63
2, 84368, Control_c, 0, 64, 127
2, 84572, Note_on_c, 0, 62, 70
2, 84595, Note_on_c, 0, 50, 67
2, 84687, Note_on_c, 0, 57, 0
2, 84835, Note_on_c, 0, 73, 67
2, 84840, Note_on_c, 0, 69, 44
2, 84844, Note_on_c, 0, 41, 61
2, 84881, Control_c, 0, 64, 63
2, 84883, Note_on_c, 0, 62, 0
2, 84891, Control_c, 0, 64, 0
2, 84974, Control_c, 0, 64, 63
2, 84988, Control_c, 0, 64, 127
2, 85046, Note_on_c, 0, 41, 0
2, 85073, Note_on_c, 0, 74, 66
2, 85082, Note_on_c, 0, 50, 0
2, 85103, Note_on_c, 0, 73, 0
2, 85169, Note_on_c, 0, 69, 0
2, 85194, Control_c, 0, 64, 63
2, 85202, Note_on_c, 0, 74, 0
2, 85204, Control_c, 0, 64, 0
2, 85293, Note_on_c, 0, 58, 86
2, 85346, Control_c, 0, 64, 63
2, 85356, Control_c, 0, 64, 127
2, 85496, Note_on_c, 0, 62, 82
2, 85529, Note_on_c, 0, 50, 73
2, 85595, Note_on_c, 0, 58, 0
2, 85748, Note_on_c, 0, 43, 71
2, 85751, Note_on_c, 0, 70, 74
2, 85752, Note_on_c, 0, 73, 88
2, 85784, Note_on_c, 0, 62, 0
2, 85841, Control_c, 0, 64, 63
2, 85850, Control_c, 0, 64, 0
2, 85925, Control_c, 0, 64, 63
2, 85943, Control_c, 0, 64, 127
2, 85946, Note_on_c, 0, 43, 0
2, 85979, Note_on_c, 0, 74, 87
2, 85981, Note_on_c, 0, 50, 0
2, 85991, Note_on_c, 0, 73, 0
2, 86094, Note_on_c, 0, 70, 0
2, 86111, Control_c, 0, 64, 63
2, 86125, Control_c, 0, 64, 0
2, 86131, Note_on_c, 0, 74, 0
2, 86222, Note_on_c, 0, 59, 96
2, 86284, Control_c, 0, 64, 63
2, 86294, Control_c, 0, 64, 127
2, 86445, Note_on_c, 0, 64, 88
2, 86461, Note_on_c, 0, 52, 89
2, 86573, Note_on_c, 0, 59, 0
2, 86668, Note_on_c, 0, 64, 0
2, 86709, Note_on_c, 0, 75, 90
2, 86711, Note_on_c, 0, 71, 63
2, 86711, Note_on_c, 0, 44, 83
2, 86823, Control_c, 0, 64, 63
2, 86831, Control_c, 0, 64, 0
2, 86904, Control_c, 0, 64, 63
2, 86917, Control_c, 0, 64, 127
2, 86935, Note_on_c, 0, 44, 0
2, 86948, Note_on_c, 0, 76, 83
2, 86963, Note_on_c, 0, 75, 0
2, 86984, Note_on_c, 0, 52, 0
2, 87026, Note_on_c, 0, 71, 0
2, 87094, Note_on_c, 0, 76, 0
2, 87121, Control_c, 0, 64, 63
2, 87125, Control_c, 0, 64, 0
2, 87184, Note_on_c, 0, 61, 106
2, 87224, Control_c, 0, 64, 63
2, 87233, Control_c, 0, 64, 127
2, 87368, Note_on_c, 0, 61, 0
2, 87395, Note_on_c, 0, 64, 91
2, 87409, Note_on_c, 0, 52, 84
2, 87605, Note_on_c, 0, 64, 0
2, 87663, Note_on_c, 0, 75, 89
2, 87663, Note_on_c, 0, 45, 79
2, 87666, Note_on_c, 0, 69, 70
2, 87675, Note_on_c, 0, 73, 75
2, 87742, Control_c, 0, 64, 63
2, 87752, Control_c, 0, 64, 0
2, 87794, Control_c, 0, 64, 63
2, 87814, Control_c, 0, 64, 127
2, 87873, Note_on_c, 0, 76, 84
2, 87893, Note_on_c, 0, 75, 0
2, 87896, Note_on_c, 0, 45, 0
2, 87916, Note_on_c, 0, 52, 0
2, 87919, Note_on_c, 0, 69, 0
2, 87959, Note_on_c, 0, 73, 0
2, 87966, Note_on_c, 0, 76, 0
2, 88184, Control_c, 0, 64, 63
2, 88197, Control_c, 0, 64, 0
2, 88254, Note_on_c, 0, 86, 90
2, 88255, Note_on_c, 0, 54, 82
2, 88255, Note_on_c, 0, 58, 78
2, 88258, Note_on_c, 0, 78, 76
2, 88259, Note_on_c, 0, 46, 70
2, 88262, Note_on_c, 0, 74, 53
2, 88385, Control_c, 0, 64, 63
2, 88394, Control_c, 0, 64, 127
2, 88694, Note_on_c, 0, 78, 0
2, 88723, Note_on_c, 0, 46, 0
2, 88746, Note_on_c, 0, 54, 0
2, 88802, Note_on_c, 0, 79, 55
2, 88803, Note_on_c, 0, 55, 43
2, 89060, Note_on_c, 0, 86, 0
2, 89118, Note_on_c, 0, 79, 0
2, 89140, Note_on_c, 0, 74, 0
2, 89162, Note_on_c, 0, 58, 0
2, 89205, Note_on_c, 0, 55, 0
2, 89325, Note_on_c, 0, 84, 88
2, 89327, Note_on_c, 0, 60, 84
2, 89327, Note_on_c, 0, 55, 69
2, 89330, Note_on_c, 0, 76, 80
2, 89330, Note_on_c, 0, 72, 73
2, 89337, Note_on_c, 0, 48, 67
2, 89361, Control_c, 0, 64, 63
2, 89368, Control_c, 0, 64, 0
2, 89471, Control_c, 0, 64, 63
2, 89478, Control_c, 0, 64, 127
2, 89636, Note_on_c, 0, 76, 0
2, 89701, Note_on_c, 0, 55, 0
2, 89843, Note_on_c, 0, 77, 62
2, 89856, Note_on_c, 0, 57, 42
2, 89946, Control_c, 0, 64, 63
2, 89955, Control_c, 0, 64, 0
2, 90001, Control_c, 0, 64, 63
2, 90020, Control_c, 0, 64, 127
2, 90040, Note_on_c, 0, 84, 0
2, 90051, Note_on_c, 0, 48, 0
2, 90083, Note_on_c, 0, 77, 0
2, 90096, Note_on_c, 0, 60, 0
2, 90099, Note_on_c, 0, 72, 0
2, 90121, Note_on_c, 0, 57, 0
2, 90282, Control_c, 0, 64, 63
2, 90296, Control_c, 0, 64, 0
2, 90331, Note_on_c, 0, 49, 66
2, 90332, Control_c, 0, 64, 63
2, 90333, Note_on_c, 0, 69, 78
2, 90334, Note_on_c, 0, 81, 80
2, 90342, Note_on_c, 0, 57, 38
2, 90345, Note_on_c, 0, 61, 60
2, 90349, Note_on_c, 0, 77, 74
2, 90358, Control_c, 0, 64, 127
2, 90413, Note_on_c, 0, 69, 0
2, 90431, Note_on_c, 0, 77, 0
2, 90449, Note_on_c, 0, 49, 0
2, 90449, Note_on_c, 0, 81, 0
2, 90450, Note_on_c, 0, 61, 0
2, 90452, Note_on_c, 0, 57, 0
2, 90695, Note_on_c, 0, 82, 72
2, 90696, Note_on_c, 0, 70, 75
2, 90737, Note_on_c, 0, 70, 0
2, 90737, Note_on_c, 0, 82, 0
2, 90819, Note_on_c, 0, 58, 48
2, 90833, Note_on_c, 0, 62, 50
2, 90838, Note_on_c, 0, 50, 28
2, 90840, Control_c, 0, 64, 63
2, 90846, Note_on_c, 0, 79, 65
2, 90848, Note_on_c, 0, 77, 71
2, 90861, Control_c, 0, 64, 0
2, 90863, Note_on_c, 0, 67, 32
2, 90871, Control_c, 0, 64, 63
2, 90877, Note_on_c, 0, 65, 19
2, 90906, Note_on_c, 0, 65, 0
2, 90910, Control_c, 0, 64, 127
2, 90923, Note_on_c, 0, 67, 0
2, 90950, Note_on_c, 0, 79, 0
2, 90961, Note_on_c, 0, 62, 0
2, 90962, Note_on_c, 0, 77, 0
2, 91025, Note_on_c, 0, 58, 0
2, 91051, Note_on_c, 0, 50, 0
2, 91176, Control_c, 0, 64, 63
2, 91196, Control_c, 0, 64, 0
2, 91366, Control_c, 0, 64, 63
2, 91377, Note_on_c, 0, 55, 50
2, 91379, Note_on_c, 0, 69, 61
2, 91380, Control_c, 0, 64, 127
2, 91383, Note_on_c, 0, 58, 52
2, 91385, Note_on_c, 0, 48, 51
2, 91400, Note_on_c, 0, 64, 53
2, 91451, Note_on_c, 0, 55, 0
2, 91475, Note_on_c, 0, 69, 0
2, 91475, Note_on_c, 0, 64, 0
2, 91485, Note_on_c, 0, 58, 0
2, 91497, Note_on_c, 0, 48, 0
2, 91939, Note_on_c, 0, 65, 35
2, 91941, Note_on_c, 0, 57, 29
2, 91943, Note_on_c, 0, 48, 35
2, 91955, Note_on_c, 0, 41, 34
2, 91993, Control_c, 0, 64, 63
2, 92009, Control_c, 0, 64, 0
2, 92099, Control_c, 0, 64, 63
2, 92115, Control_c, 0, 64, 127
2, 92133, Note_on_c, 0, 48, 0
2, 92169, Note_on_c, 0, 57, 0
2, 92180, Note_on_c, 0, 65, 0
2, 92185, Note_on_c, 0, 41, 0
2, 92258, Control_c, 0, 64, 63
2, 92274, Control_c, 0, 64, 0
2, 92474, Note_on_c, 0, 29, 66
2, 92475, Note_on_c, 0, 41, 64
2, 92489, Control_c, 0, 64, 63
2, 92495, Control_c, 0, 64, 127
2, 92617, Note_on_c, 0, 29, 0
2, 92701, Note_on_c, 0, 41, 0
2, 92738, Note_on_c, 0, 57, 56
2, 92741, Note_on_c, 0, 60, 73
2, 92849, Note_on_c, 0, 57, 0
2, 93058, Note_on_c, 0, 41, 36
2, 93065, Note_on_c, 0, 58, 54
2, 93067, Note_on_c, 0, 55, 40
2, 93070, Note_on_c, 0, 60, 0
2, 93071, Note_on_c, 0, 48, 51
2, 93074, Note_on_c, 0, 65, 58
2, 93206, Control_c, 0, 64, 63
2, 93226, Control_c, 0, 64, 0
2, 93346, Note_on_c, 0, 64, 55
2, 93364, Note_on_c, 0, 65, 0
2, 93569, Control_c, 0, 64, 63
2, 93572, Note_on_c, 0, 64, 0
2, 93574, Control_c, 0, 64, 127
2, 93575, Note_on_c, 0, 62, 46
2, 93811, Note_on_c, 0, 64, 48
2, 93847, Note_on_c, 0, 55, 0
2, 93856, Note_on_c, 0, 62, 0
2, 93862, Note_on_c, 0, 41, 0
2, 93875, Note_on_c, 0, 48, 0
2, 93918, Note_on_c, 0, 58, 0
2, 94021, Note_on_c, 0, 64, 0
2, 94067, Note_on_c, 0, 65, 38
2, 94067, Note_on_c, 0, 53, 27
2, 94067, Note_on_c, 0, 48, 20
2, 94074, Note_on_c, 0, 57, 31
2, 94088, Note_on_c, 0, 41, 24
2, 94100, Control_c, 0, 64, 63
2, 94110, Control_c, 0, 64, 0
2, 94217, Control_c, 0, 64, 63
2, 94231, Control_c, 0, 64, 127
2, 94283, Note_on_c, 0, 65, 0
2, 94284, Note_on_c, 0, 57, 0
2, 94412, Note_on_c, 0, 41, 0
2, 94421, Control_c, 0, 64, 63
2, 94442, Control_c, 0, 64, 0
2, 94470, Note_on_c, 0, 48, 0
2, 94495, Note_on_c, 0, 53, 0
2, 94550, Control_c, 0, 64, 63
2, 94566, Note_on_c, 0, 72, 58
2, 94574, Note_on_c, 0, 65, 36
2, 94576, Control_c, 0, 64, 127
2, 94577, Note_on_c, 0, 69, 35
2, 94691, Note_on_c, 0, 72, 0
2, 94700, Note_on_c, 0, 65, 0
2, 94717, Note_on_c, 0, 69, 0
2, 94802, Note_on_c, 0, 48, 87
2, 95087, Note_on_c, 0, 53, 62
2, 95100, Note_on_c, 0, 60, 73
2, 95101, Note_on_c, 0, 58, 53
2, 95195, Note_on_c, 0, 48, 0
2, 95284, Control_c, 0, 64, 63
2, 95315, Control_c, 0, 64, 0
2, 95379, Note_on_c, 0, 52, 67
2, 95453, Note_on_c, 0, 53, 0
2, 95615, Note_on_c, 0, 50, 59
2, 95660, Note_on_c, 0, 52, 0
2, 95677, Control_c, 0, 64, 63
2, 95685, Control_c, 0, 64, 127
2, 95854, Note_on_c, 0, 60, 0
2, 95856, Note_on_c, 0, 52, 61
2, 95905, Note_on_c, 0, 58, 0
2, 95938, Note_on_c, 0, 50, 0
2, 96137, Note_on_c, 0, 60, 48
2, 96144, Note_on_c, 0, 53, 30
2, 96149, Note_on_c, 0, 57, 30
2, 96169, Control_c, 0, 64, 63
2, 96183, Control_c, 0, 64, 0
2, 96193, Note_on_c, 0, 52, 0
2, 96387, Control_c, 0, 64, 63
2, 96396, Control_c, 0, 64, 127
2, 96439, Note_on_c, 0, 57, 0
2, 96479, Note_on_c, 0, 60, 0
2, 96488, Note_on_c, 0, 53, 0
2, 96698, Control_c, 0, 64, 63
2, 96701, Note_on_c, 0, 57, 51
2, 96710, Control_c, 0, 64, 0
2, 96830, Control_c, 0, 64, 63
2, 96843, Control_c, 0, 64, 127
2, 96970, Note_on_c, 0, 62, 66
2, 96990, Note_on_c, 0, 50, 55
2, 97018, Note_on_c, 0, 57, 0
2, 97219, Note_on_c, 0, 73, 72
2, 97220, Note_on_c, 0, 41, 66
2, 97223, Note_on_c, 0, 69, 55
2, 97264, Control_c, 0, 64, 63
2, 97277, Control_c, 0, 64, 0
2, 97307, Note_on_c, 0, 62, 0
2, 97382, Control_c, 0, 64, 63
2, 97397, Control_c, 0, 64, 127
2, 97428, Note_on_c, 0, 41, 0
2, 97458, Note_on_c, 0, 74, 75
2, 97486, Note_on_c, 0, 50, 0
2, 97535, Note_on_c, 0, 73, 0
2, 97565, Note_on_c, 0, 69, 0
2, 97624, Note_on_c, 0, 74, 0
2, 97701, Note_on_c, 0, 58, 88
2, 97735, Control_c, 0, 64, 63
2, 97742, Control_c, 0, 64, 0
2, 97855, Control_c, 0, 64, 63
2, 97865, Control_c, 0, 64, 127
2, 97912, Note_on_c, 0, 62, 82
2, 97935, Note_on_c, 0, 50, 75
2, 97976, Note_on_c, 0, 58, 0
2, 98171, Note_on_c, 0, 70, 78
2, 98172, Note_on_c, 0, 43, 89
2, 98173, Note_on_c, 0, 73, 89
2, 98237, Control_c, 0, 64, 63
2, 98247, Control_c, 0, 64, 0
2, 98351, Note_on_c, 0, 62, 0
2, 98351, Control_c, 0, 64, 63
2, 98366, Control_c, 0, 64, 127
2, 98381, Note_on_c, 0, 43, 0
2, 98397, Note_on_c, 0, 74, 82
2, 98402, Note_on_c, 0, 50, 0
2, 98423, Note_on_c, 0, 73, 0
2, 98492, Note_on_c, 0, 70, 0
2, 98543, Note_on_c, 0, 74, 0
2, 98648, Note_on_c, 0, 59, 96
2, 98687, Control_c, 0, 64, 63
2, 98701, Control_c, 0, 64, 0
2, 98806, Control_c, 0, 64, 63
2, 98823, Control_c, 0, 64, 127
2, 98867, Note_on_c, 0, 64, 89
2, 98876, Note_on_c, 0, 52, 92
2, 98930, Note_on_c, 0, 59, 0
2, 99122, Note_on_c, 0, 44, 89
2, 99137, Note_on_c, 0, 75, 86
2, 99140, Note_on_c, 0, 71, 71
2, 99164, Control_c, 0, 64, 63
2, 99182, Control_c, 0, 64, 0
2, 99269, Control_c, 0, 64, 63
2, 99284, Control_c, 0, 64, 127
2, 99329, Note_on_c, 0, 64, 0
2, 99350, Note_on_c, 0, 44, 0
2, 99372, Note_on_c, 0, 76, 84
2, 99386, Note_on_c, 0, 52, 0
2, 99405, Note_on_c, 0, 75, 0
2, 99407, Note_on_c, 0, 71, 0
2, 99470, Note_on_c, 0, 76, 0
2, 99593, Control_c, 0, 64, 63
2, 99599, Note_on_c, 0, 61, 102
2, 99602, Control_c, 0, 64, 0
2, 99683, Control_c, 0, 64, 63
2, 99697, Control_c, 0, 64, 127
2, 99787, Note_on_c, 0, 64, 87
2, 99822, Note_on_c, 0, 61, 0
2, 99823, Note_on_c, 0, 52, 79
2, 99995, Note_on_c, 0, 64, 0
2, 100072, Note_on_c, 0, 45, 88
2, 100078, Note_on_c, 0, 75, 96
2, 100079, Note_on_c, 0, 69, 74
2, 100083, Note_on_c, 0, 73, 80
2, 100127, Control_c, 0, 64, 63
2, 100140, Control_c, 0, 64, 0
2, 100201, Control_c, 0, 64, 63
2, 100220, Control_c, 0, 64, 127
2, 100328, Note_on_c, 0, 76, 92
2, 100342, Note_on_c, 0, 75, 0
2, 100343, Note_on_c, 0, 45, 0
2, 100366, Note_on_c, 0, 69, 0
2, 100369, Note_on_c, 0, 73, 0
2, 100384, Note_on_c, 0, 52, 0
2, 100399, Note_on_c, 0, 76, 0
2, 100709, Note_on_c, 0, 89, 97
2, 100712, Note_on_c, 0, 77, 88
2, 100713, Note_on_c, 0, 45, 73
2, 100715, Note_on_c, 0, 85, 91
2, 100715, Note_on_c, 0, 53, 88
2, 100718, Note_on_c, 0, 57, 93
2, 100850, Control_c, 0, 64, 63
2, 100867, Control_c, 0, 64, 0
2, 100941, Control_c, 0, 64, 63
2, 100952, Control_c, 0, 64, 127
2, 101048, Note_on_c, 0, 45, 0
2, 101165, Note_on_c, 0, 57, 0
2, 101253, Note_on_c, 0, 89, 0
2, 101312, Note_on_c, 0, 86, 70
2, 101312, Note_on_c, 0, 46, 79
2, 101313, Note_on_c, 0, 58, 81
2, 101366, Note_on_c, 0, 85, 0
2, 101374, Note_on_c, 0, 53, 0
2, 101482, Note_on_c, 0, 77, 0
2, 101483, Note_on_c, 0, 86, 0
2, 101528, Note_on_c, 0, 46, 0
2, 101576, Note_on_c, 0, 58, 0
2, 101843, Note_on_c, 0, 79, 92
2, 101846, Note_on_c, 0, 55, 72
2, 101846, Note_on_c, 0, 67, 82
2, 101848, Note_on_c, 0, 59, 90
2, 101848, Note_on_c, 0, 75, 86
2, 101850, Note_on_c, 0, 47, 80
2, 101903, Control_c, 0, 64, 63
2, 101909, Control_c, 0, 64, 0
2, 102029, Control_c, 0, 64, 63
2, 102037, Control_c, 0, 64, 127
2, 102182, Note_on_c, 0, 47, 0
2, 102229, Note_on_c, 0, 59, 0
2, 102351, Note_on_c, 0, 60, 77
2, 102352, Note_on_c, 0, 76, 53
2, 102363, Note_on_c, 0, 48, 57
2, 102383, Control_c, 0, 64, 63
2, 102389, Control_c, 0, 64, 0
2, 102400, Note_on_c, 0, 75, 0
2, 102422, Note_on_c, 0, 55, 0
2, 102441, Control_c, 0, 64, 63
2, 102461, Control_c, 0, 64, 127
2, 102543, Note_on_c, 0, 67, 0
2, 102554, Note_on_c, 0, 48, 0
2, 102593, Note_on_c, 0, 76, 0
2, 102598, Note_on_c, 0, 79, 0
2, 102650, Note_on_c, 0, 60, 0
2, 102887, Note_on_c, 0, 84, 89
2, 102890, Note_on_c, 0, 64, 72
2, 102891, Note_on_c, 0, 80, 84
2, 102892, Note_on_c, 0, 52, 64
2, 102893, Note_on_c, 0, 72, 81
2, 102894, Control_c, 0, 64, 63
2, 102898, Note_on_c, 0, 60, 72
2, 102914, Control_c, 0, 64, 0
2, 102934, Control_c, 0, 64, 63
2, 102965, Control_c, 0, 64, 127
2, 103037, Note_on_c, 0, 84, 0
2, 103070, Note_on_c, 0, 72, 0
2, 103133, Note_on_c, 0, 52, 0
2, 103160, Note_on_c, 0, 80, 0
2, 103249, Note_on_c, 0, 64, 0
2, 103279, Note_on_c, 0, 83, 82
2, 103283, Note_on_c, 0, 71, 81
2, 103344, Note_on_c, 0, 71, 0
2, 103345, Note_on_c, 0, 83, 0
2, 103433, Note_on_c, 0, 65, 50
2, 103434, Note_on_c, 0, 60, 0
2, 103437, Note_on_c, 0, 81, 87
2, 103442, Note_on_c, 0, 69, 72
2, 103443, Note_on_c, 0, 53, 24
2, 103520, Control_c, 0, 64, 63
2, 103531, Control_c, 0, 64, 0
2, 103633, Control_c, 0, 64, 63
2, 103643, Note_on_c, 0, 81, 0
2, 103646, Control_c, 0, 64, 127
2, 103683, Note_on_c, 0, 69, 0
2, 103704, Note_on_c, 0, 53, 0
2, 103717, Note_on_c, 0, 65, 0
2, 103934, Control_c, 0, 64, 63
2, 103943, Control_c, 0, 64, 0
2, 103945, Note_on_c, 0, 77, 79
2, 103948, Note_on_c, 0, 73, 77
2, 103952, Note_on_c, 0, 65, 57
2, 103956, Note_on_c, 0, 57, 54
2, 104012, Control_c, 0, 64, 63
2, 104033, Control_c, 0, 64, 127
2, 104084, Note_on_c, 0, 77, 0
2, 104096, Note_on_c, 0, 65, 0
2, 104153, Note_on_c, 0, 73, 0
2, 104263, Note_on_c, 0, 57, 0
2, 104330, Note_on_c, 0, 76, 66
2, 104339, Note_on_c, 0, 64, 42
2, 104411, Note_on_c, 0, 64, 0
2, 104474, Note_on_c, 0, 58, 43
2, 104480, Note_on_c, 0, 62, 48
2, 104482, Note_on_c, 0, 74, 71
2, 104493, Note_on_c, 0, 76, 0
2, 104523, Control_c, 0, 64, 63
2, 104533, Control_c, 0, 64, 0
2, 104663, Control_c, 0, 64, 63
2, 104679, Control_c, 0, 64, 127
2, 104768, Note_on_c, 0, 74, 0
2, 104827, Note_on_c, 0, 62, 0
2, 104828, Note_on_c, 0, 58, 0
2, 105111, Note_on_c, 0, 58, 54
2, 105157, Control_c, 0, 64, 63
2, 105174, Control_c, 0, 64, 0
2, 105368, Note_on_c, 0, 62, 67
2, 105429, Control_c, 0, 64, 63
2, 105432, Control_c, 0, 64, 127
2, 105610, Note_on_c, 0, 57, 30
2, 105615, Note_on_c, 0, 67, 55
2, 105627, Note_on_c, 0, 60, 35
2, 105631, Note_on_c, 0, 62, 0
2, 105638, Note_on_c, 0, 58, 0
2, 105682, Control_c, 0, 64, 63
2, 105700, Control_c, 0, 64, 0
2, 105744, Control_c, 0, 64, 63
2, 105771, Control_c, 0, 64, 127
2, 105844, Note_on_c, 0, 66, 55
2, 105867, Note_on_c, 0, 67, 0
2, 106067, Note_on_c, 0, 50, 41
2, 106079, Note_on_c, 0, 66, 0
2, 106079, Note_on_c, 0, 64, 44
2, 106087, Control_c, 0, 64, 63
2, 106106, Control_c, 0, 64, 0
2, 106223, Control_c, 0, 64, 63
2, 106244, Control_c, 0, 64, 127
2, 106289, Note_on_c, 0, 66, 62
2, 106348, Note_on_c, 0, 57, 0
2, 106367, Note_on_c, 0, 60, 0
2, 106375, Note_on_c, 0, 64, 0
2, 106433, Note_on_c, 0, 66, 0
2, 106544, Control_c, 0, 64, 63
2, 106562, Control_c, 0, 64, 0
2, 106572, Note_on_c, 0, 55, 23
2, 106584, Note_on_c, 0, 58, 33
2, 106585, Note_on_c, 0, 43, 31
2, 106594, Note_on_c, 0, 67, 42
2, 106601, Note_on_c, 0, 62, 37
2, 106659, Control_c, 0, 64, 63
2, 106679, Control_c, 0, 64, 127
2, 106740, Note_on_c, 0, 43, 0
2, 106778, Note_on_c, 0, 58, 0
2, 106779, Note_on_c, 0, 50, 0
2, 106788, Note_on_c, 0, 55, 0
2, 106805, Note_on_c, 0, 62, 0
2, 106838, Note_on_c, 0, 67, 0
2, 107078, Control_c, 0, 64, 63
2, 107104, Control_c, 0, 64, 0
2, 107146, Note_on_c, 0, 70, 64
2, 107411, Note_on_c, 0, 74, 70
2, 107422, Control_c, 0, 64, 63
2, 107430, Control_c, 0, 64, 127
2, 107578, Note_on_c, 0, 70, 0
2, 107640, Note_on_c, 0, 74, 0
2, 107653, Note_on_c, 0, 79, 53
2, 107659, Note_on_c, 0, 72, 45
2, 107673, Note_on_c, 0, 69, 33
2, 107731, Control_c, 0, 64, 63
2, 107750, Control_c, 0, 64, 0
2, 107871, Control_c, 0, 64, 63
2, 107882, Note_on_c, 0, 78, 57
2, 107887, Control_c, 0, 64, 127
2, 107921, Note_on_c, 0, 79, 0
2, 108086, Note_on_c, 0, 78, 0
2, 108090, Note_on_c, 0, 62, 38
2, 108104, Note_on_c, 0, 76, 47
2, 108111, Control_c, 0, 64, 63
2, 108191, Control_c, 0, 64, 127
2, 108317, Note_on_c, 0, 69, 0
2, 108322, Note_on_c, 0, 78, 45
2, 108382, Note_on_c, 0, 72, 0
2, 108414, Note_on_c, 0, 76, 0
2, 108436, Note_on_c, 0, 62, 0
2, 108509, Note_on_c, 0, 78, 0
2, 108599, Note_on_c, 0, 79, 41
2, 108606, Note_on_c, 0, 62, 22
2, 108616, Note_on_c, 0, 55, 12
2, 108620, Note_on_c, 0, 70, 8
2, 108622, Note_on_c, 0, 67, 2
2, 108623, Control_c, 0, 64, 63
2, 108633, Note_on_c, 0, 74, 23
2, 108733, Control_c, 0, 64, 127
2, 108767, Note_on_c, 0, 70, 0
2, 108803, Note_on_c, 0, 67, 0
2, 108816, Note_on_c, 0, 74, 0
2, 108846, Note_on_c, 0, 62, 0
2, 108853, Note_on_c, 0, 79, 0
2, 108885, Note_on_c, 0, 55, 0
2, 109237, Note_on_c, 0, 59, 80
2, 109238, Note_on_c, 0, 91, 91
2, 109238, Note_on_c, 0, 55, 68
2, 109244, Note_on_c, 0, 79, 67
2, 109246, Note_on_c, 0, 47, 68
2, 109247, Note_on_c, 0, 87, 74
2, 109325, Control_c, 0, 64, 63
2, 109342, Control_c, 0, 64, 0
2, 109421, Control_c, 0, 64, 63
2, 109433, Control_c, 0, 64, 127
2, 109607, Note_on_c, 0, 47, 0
2, 109649, Note_on_c, 0, 59, 0
2, 109748, Note_on_c, 0, 91, 0
2, 109781, Note_on_c, 0, 60, 55
2, 109800, Note_on_c, 0, 88, 63
2, 109810, Note_on_c, 0, 48, 31
2, 109850, Control_c, 0, 64, 63
2, 109857, Control_c, 0, 64, 0
2, 109891, Control_c, 0, 64, 63
2, 109910, Control_c, 0, 64, 127
2, 109965, Note_on_c, 0, 79, 0
2, 109966, Note_on_c, 0, 87, 0
2, 109967, Note_on_c, 0, 88, 0
2, 109979, Note_on_c, 0, 48, 0
2, 109988, Note_on_c, 0, 55, 0
2, 110047, Note_on_c, 0, 60, 0
2, 110276, Control_c, 0, 64, 63
2, 110282, Control_c, 0, 64, 0
2, 110287, Note_on_c, 0, 81, 90
2, 110288, Note_on_c, 0, 57, 74
2, 110289, Note_on_c, 0, 69, 80
2, 110290, Note_on_c, 0, 61, 96
2, 110291, Note_on_c, 0, 77, 87
2, 110295, Note_on_c, 0, 49, 72
2, 110394, Control_c, 0, 64, 63
2, 110408, Control_c, 0, 64, 127
2, 110608, Note_on_c, 0, 49, 0
2, 110669, Note_on_c, 0, 61, 0
2, 110825, Note_on_c, 0, 78, 55
2, 110847, Note_on_c, 0, 62, 57
2, 110854, Note_on_c, 0, 57, 0
2, 110858, Note_on_c, 0, 50, 45
2, 110859, Note_on_c, 0, 77, 0
2, 110888, Control_c, 0, 64, 63
2, 110895, Control_c, 0, 64, 0
2, 110981, Control_c, 0, 64, 63
2, 110992, Control_c, 0, 64, 127
2, 111049, Note_on_c, 0, 50, 0
2, 111050, Note_on_c, 0, 69, 0
2, 111094, Note_on_c, 0, 78, 0
2, 111095, Note_on_c, 0, 81, 0
2, 111137, Note_on_c, 0, 62, 0
2, 111299, Control_c, 0, 64, 63
2, 111304, Control_c, 0, 64, 0
2, 111354, Note_on_c, 0, 74, 79
2, 111355, Note_on_c, 0, 86, 89
2, 111355, Note_on_c, 0, 66, 80
2, 111356, Note_on_c, 0, 54, 58
2, 111359, Note_on_c, 0, 62, 61
2, 111361, Note_on_c, 0, 82, 77
2, 111392, Control_c, 0, 64, 63
2, 111402, Control_c, 0, 64, 127
2, 111485, Note_on_c, 0, 74, 0
2, 111498, Note_on_c, 0, 86, 0
2, 111545, Note_on_c, 0, 54, 0
2, 111548, Note_on_c, 0, 82, 0
2, 111575, Note_on_c, 0, 62, 0
2, 111584, Note_on_c, 0, 66, 0
2, 111752, Note_on_c, 0, 85, 78
2, 111755, Note_on_c, 0, 73, 81
2, 111806, Note_on_c, 0, 73, 0
2, 111812, Note_on_c, 0, 85, 0
2, 111891, Note_on_c, 0, 83, 62
2, 111903, Note_on_c, 0, 71, 51
2, 111915, Note_on_c, 0, 62, 31
2, 111916, Note_on_c, 0, 55, 29
2, 111919, Note_on_c, 0, 67, 18
2, 111944, Control_c, 0, 64, 63
2, 111956, Control_c, 0, 64, 0
2, 112047, Control_c, 0, 64, 63
2, 112061, Control_c, 0, 64, 127
2, 112085, Note_on_c, 0, 83, 0
2, 112123, Note_on_c, 0, 71, 0
2, 112143, Note_on_c, 0, 67, 0
2, 112169, Note_on_c, 0, 55, 0
2, 112217, Note_on_c, 0, 62, 0
2, 112376, Control_c, 0, 64, 63
2, 112388, Control_c, 0, 64, 0
2, 112425, Note_on_c, 0, 79, 82
2, 112426, Note_on_c, 0, 75, 78
2, 112429, Note_on_c, 0, 67, 68
2, 112443, Note_on_c, 0, 59, 55
2, 112464, Control_c, 0, 64, 63
2, 112479, Control_c, 0, 64, 127
2, 112498, Note_on_c, 0, 79, 0
2, 112526, Note_on_c, 0, 75, 0
2, 112526, Note_on_c, 0, 67, 0
2, 112751, Note_on_c, 0, 59, 0
2, 112815, Note_on_c, 0, 66, 81
2, 112821, Note_on_c, 0, 78, 73
2, 112900, Note_on_c, 0, 66, 0
2, 112954, Note_on_c, 0, 78, 0
2, 112961, Note_on_c, 0, 64, 44
2, 112964, Note_on_c, 0, 76, 66
2, 112966, Note_on_c, 0, 60, 42
2, 113054, Control_c, 0, 64, 63
2, 113066, Control_c, 0, 64, 0
2, 113220, Control_c, 0, 64, 63
2, 113228, Control_c, 0, 64, 127
2, 113281, Note_on_c, 0, 60, 0
2, 113299, Note_on_c, 0, 76, 0
2, 113402, Note_on_c, 0, 64, 0
2, 113612, Note_on_c, 0, 60, 61
2, 113712, Control_c, 0, 64, 63
2, 113732, Control_c, 0, 64, 0
2, 113848, Control_c, 0, 64, 63
2, 113864, Control_c, 0, 64, 127
2, 113870, Note_on_c, 0, 64, 63
2, 114103, Note_on_c, 0, 69, 40
2, 114104, Note_on_c, 0, 59, 31
2, 114110, Note_on_c, 0, 62, 42
2, 114124, Note_on_c, 0, 64, 0
2, 114138, Note_on_c, 0, 60, 0
2, 114170, Control_c, 0, 64, 63
2, 114187, Control_c, 0, 64, 0
2, 114344, Note_on_c, 0, 68, 46
2, 114375, Note_on_c, 0, 69, 0
2, 114582, Note_on_c, 0, 66, 67
2, 114584, Note_on_c, 0, 52, 54
2, 114590, Note_on_c, 0, 68, 0
2, 114659, Control_c, 0, 64, 63
2, 114661, Control_c, 0, 64, 127
2, 114805, Note_on_c, 0, 68, 67
2, 114835, Note_on_c, 0, 59, 0
2, 114929, Note_on_c, 0, 62, 0
2, 114944, Note_on_c, 0, 66, 0
2, 115067, Note_on_c, 0, 45, 37
2, 115082, Note_on_c, 0, 68, 0
2, 115093, Note_on_c, 0, 69, 40
2, 115109, Note_on_c, 0, 57, 15
2, 115112, Note_on_c, 0, 60, 22
2, 115121, Note_on_c, 0, 64, 43
2, 115178, Control_c, 0, 64, 63
2, 115188, Control_c, 0, 64, 0
2, 115201, Note_on_c, 0, 60, 0
2, 115286, Control_c, 0, 64, 63
2, 115298, Control_c, 0, 64, 127
2, 115301, Note_on_c, 0, 45, 0
2, 115358, Note_on_c, 0, 52, 0
2, 115367, Note_on_c, 0, 64, 0
2, 115386, Note_on_c, 0, 57, 0
2, 115397, Note_on_c, 0, 69, 0
2, 115627, Note_on_c, 0, 72, 56
2, 115870, Note_on_c, 0, 76, 79
2, 115942, Control_c, 0, 64, 63
2, 115947, Control_c, 0, 64, 127
2, 116048, Note_on_c, 0, 76, 0
2, 116150, Note_on_c, 0, 74, 60
2, 116158, Note_on_c, 0, 71, 53
2, 116162, Note_on_c, 0, 81, 62
2, 116192, Note_on_c, 0, 72, 0
2, 116197, Control_c, 0, 64, 63
2, 116203, Control_c, 0, 64, 0
2, 116321, Control_c, 0, 64, 63
2, 116328, Control_c, 0, 64, 127
2, 116434, Note_on_c, 0, 80, 70
2, 116465, Note_on_c, 0, 81, 0
2, 116686, Note_on_c, 0, 78, 62
2, 116708, Control_c, 0, 64, 63
2, 116710, Note_on_c, 0, 64, 39
2, 116717, Control_c, 0, 64, 0
2, 116727, Note_on_c, 0, 80, 0
2, 116802, Control_c, 0, 64, 63
2, 116817, Control_c, 0, 64, 127
2, 116930, Note_on_c, 0, 71, 0
2, 116931, Note_on_c, 0, 80, 55
2, 116966, Note_on_c, 0, 78, 0
2, 116988, Note_on_c, 0, 64, 0
2, 117009, Note_on_c, 0, 74, 0
2, 117083, Note_on_c, 0, 80, 0
2, 117281, Control_c, 0, 64, 63
2, 117282, Note_on_c, 0, 57, 7
2, 117296, Note_on_c, 0, 81, 27
2, 117300, Note_on_c, 0, 76, 26
2, 117303, Note_on_c, 0, 69, 18
2, 117306, Note_on_c, 0, 64, 25
2, 117308, Control_c, 0, 64, 0
2, 117314, Note_on_c, 0, 72, 18
2, 117346, Note_on_c, 0, 57, 0
2, 117368, Note_on_c, 0, 64, 0
2, 117377, Note_on_c, 0, 69, 0
2, 117493, Note_on_c, 0, 72, 0
2, 117599, Note_on_c, 0, 76, 0
2, 117656, Note_on_c, 0, 81, 0
2, 118087, Control_c, 0, 67, 127
2, 118118, Note_on_c, 0, 72, 49
2, 118254, Note_on_c, 0, 76, 55
2, 118386, Note_on_c, 0, 81, 50
2, 118390, Control_c, 0, 64, 63
2, 118391, Control_c, 0, 64, 127
2, 118440, Note_on_c, 0, 76, 0
2, 118477, Note_on_c, 0, 88, 56
2, 118485, Note_on_c, 0, 72, 0
2, 118489, Note_on_c, 0, 81, 0
2, 118552, Note_on_c, 0, 88, 0
2, 118609, Note_on_c, 0, 71, 59
2, 118611, Control_c, 0, 64, 63
2, 118615, Control_c, 0, 64, 0
2, 118632, Note_on_c, 0, 80, 62
2, 118644, Note_on_c, 0, 76, 41
2, 118645, Note_on_c, 0, 74, 40
2, 118680, Note_on_c, 0, 71, 0
2, 118858, Note_on_c, 0, 64, 63
2, 118858, Note_on_c, 0, 57, 58
2, 118900, Note_on_c, 0, 64, 0
2, 118903, Note_on_c, 0, 80, 0
2, 118903, Note_on_c, 0, 57, 0
2, 118921, Note_on_c, 0, 76, 0
2, 118928, Note_on_c, 0, 74, 0
2, 119098, Note_on_c, 0, 69, 74
2, 119101, Control_c, 0, 64, 127
2, 119215, Note_on_c, 0, 72, 58
2, 119336, Note_on_c, 0, 76, 62
2, 119341, Note_on_c, 0, 69, 0
2, 119362, Note_on_c, 0, 72, 0
2, 119411, Note_on_c, 0, 81, 55
2, 119437, Note_on_c, 0, 76, 0
2, 119509, Control_c, 0, 64, 63
2, 119512, Control_c, 0, 64, 0
2, 119525, Note_on_c, 0, 81, 0
2, 119529, Note_on_c, 0, 68, 81
2, 119549, Note_on_c, 0, 76, 58
2, 119560, Note_on_c, 0, 74, 50
2, 119563, Note_on_c, 0, 71, 28
2, 119581, Note_on_c, 0, 68, 0
2, 119763, Note_on_c, 0, 64, 81
2, 119764, Note_on_c, 0, 57, 58
2, 119791, Note_on_c, 0, 71, 0
2, 119800, Note_on_c, 0, 74, 0
2, 119806, Note_on_c, 0, 57, 0
2, 119810, Note_on_c, 0, 76, 0
2, 119828, Note_on_c, 0, 64, 0
2, 120004, Control_c, 0, 64, 63
2, 120005, Control_c, 0, 64, 127
2, 120015, Note_on_c, 0, 72, 79
2, 120071, Note_on_c, 0, 72, 0
2, 120140, Note_on_c, 0, 76, 52
2, 120249, Note_on_c, 0, 81, 65
2, 120273, Note_on_c, 0, 76, 0
2, 120347, Note_on_c, 0, 81, 0
2, 120348, Note_on_c, 0, 88, 57
2, 120431, Note_on_c, 0, 88, 0
2, 120451, Note_on_c, 0, 71, 77
2, 120458, Control_c, 0, 64, 63
2, 120463, Control_c, 0, 64, 0
2, 120470, Note_on_c, 0, 80, 68
2, 120481, Note_on_c, 0, 76, 39
2, 120485, Note_on_c, 0, 74, 42
2, 120502, Note_on_c, 0, 71, 0
2, 120679, Note_on_c, 0, 64, 74
2, 120681, Note_on_c, 0, 57, 66
2, 120694, Note_on_c, 0, 80, 0
2, 120710, Note_on_c, 0, 76, 0
2, 120714, Note_on_c, 0, 74, 0
2, 120718, Note_on_c, 0, 64, 0
2, 120735, Note_on_c, 0, 57, 0
2, 120912, Note_on_c, 0, 69, 90
2, 120915, Control_c, 0, 64, 127
2, 120971, Note_on_c, 0, 69, 0
2, 121024, Note_on_c, 0, 72, 63
2, 121121, Note_on_c, 0, 76, 71
2, 121136, Note_on_c, 0, 72, 0
2, 121208, Note_on_c, 0, 81, 67
2, 121230, Note_on_c, 0, 76, 0
2, 121300, Control_c, 0, 64, 63
2, 121304, Control_c, 0, 64, 0
2, 121306, Note_on_c, 0, 68, 78
2, 121315, Note_on_c, 0, 81, 0
2, 121328, Note_on_c, 0, 71, 59
2, 121330, Note_on_c, 0, 76, 65
2, 121340, Note_on_c, 0, 74, 56
2, 121356, Note_on_c, 0, 68, 0
2, 121506, Note_on_c, 0, 71, 0
2, 121522, Note_on_c, 0, 74, 0
2, 121537, Note_on_c, 0, 76, 0
2, 121539, Note_on_c, 0, 57, 51
2, 121540, Note_on_c, 0, 64, 78
2, 121599, Note_on_c, 0, 64, 0
2, 121604, Note_on_c, 0, 57, 0
2, 121752, Control_c, 0, 64, 127
2, 121755, Note_on_c, 0, 57, 59
2, 121772, Note_on_c, 0, 81, 61
2, 121774, Note_on_c, 0, 64, 39
2, 121790, Note_on_c, 0, 57, 0
2, 121813, Note_on_c, 0, 64, 0
2, 121855, Note_on_c, 0, 81, 0
2, 121873, Note_on_c, 0, 88, 49
2, 121970, Note_on_c, 0, 90, 66
2, 121982, Note_on_c, 0, 88, 0
2, 121986, Note_on_c, 0, 73, 70
2, 122001, Control_c, 0, 64, 63
2, 122007, Control_c, 0, 64, 0
2, 122032, Note_on_c, 0, 73, 0
2, 122067, Note_on_c, 0, 90, 0
2, 122091, Note_on_c, 0, 88, 42
2, 122185, Note_on_c, 0, 80, 65
2, 122191, Note_on_c, 0, 88, 0
2, 122192, Note_on_c, 0, 74, 74
2, 122208, Control_c, 0, 64, 63
2, 122210, Control_c, 0, 64, 127
2, 122230, Note_on_c, 0, 74, 0
2, 122275, Note_on_c, 0, 80, 0
2, 122284, Note_on_c, 0, 88, 55
2, 122371, Control_c, 0, 64, 63
2, 122374, Control_c, 0, 64, 0
2, 122392, Note_on_c, 0, 90, 62
2, 122401, Note_on_c, 0, 64, 73
2, 122410, Note_on_c, 0, 88, 0
2, 122452, Note_on_c, 0, 64, 0
2, 122506, Note_on_c, 0, 88, 44
2, 122525, Note_on_c, 0, 90, 0
2, 122611, Note_on_c, 0, 57, 71
2, 122629, Note_on_c, 0, 83, 65
2, 122637, Note_on_c, 0, 88, 0
2, 122642, Control_c, 0, 64, 63
2, 122643, Control_c, 0, 64, 127
2, 122650, Note_on_c, 0, 57, 0
2, 122722, Note_on_c, 0, 83, 0
2, 122732, Note_on_c, 0, 88, 53
2, 122824, Note_on_c, 0, 68, 70
2, 122827, Control_c, 0, 64, 63
2, 122830, Control_c, 0, 64, 0
2, 122832, Note_on_c, 0, 90, 68
2, 122851, Note_on_c, 0, 88, 0
2, 122871, Note_on_c, 0, 68, 0
2, 122942, Note_on_c, 0, 88, 55
2, 122962, Note_on_c, 0, 90, 0
2, 123049, Note_on_c, 0, 69, 69
2, 123055, Note_on_c, 0, 88, 0
2, 123060, Control_c, 0, 64, 63
2, 123061, Control_c, 0, 64, 127
2, 123065, Note_on_c, 0, 85, 75
2, 123096, Note_on_c, 0, 69, 0
2, 123150, Note_on_c, 0, 85, 0
2, 123159, Note_on_c, 0, 88, 61
2, 123257, Note_on_c, 0, 64, 68
2, 123270, Note_on_c, 0, 90, 68
2, 123272, Note_on_c, 0, 88, 0
2, 123305, Note_on_c, 0, 64, 0
2, 123346, Note_on_c, 0, 88, 73
2, 123361, Note_on_c, 0, 90, 0
2, 123401, Note_on_c, 0, 88, 0
2, 123499, Note_on_c, 0, 57, 70
2, 123506, Note_on_c, 0, 69, 77
2, 123536, Control_c, 0, 64, 63
2, 123542, Control_c, 0, 64, 0
2, 123574, Note_on_c, 0, 57, 0
2, 123607, Note_on_c, 0, 76, 53
2, 123632, Note_on_c, 0, 69, 0
2, 123677, Control_c, 0, 64, 63
2, 123682, Control_c, 0, 64, 127
2, 123715, Note_on_c, 0, 78, 81
2, 123722, Note_on_c, 0, 61, 48
2, 123737, Note_on_c, 0, 76, 0
2, 123757, Note_on_c, 0, 61, 0
2, 123808, Note_on_c, 0, 78, 0
2, 123818, Note_on_c, 0, 76, 45
2, 123903, Control_c, 0, 64, 63
2, 123906, Control_c, 0, 64, 0
2, 123919, Note_on_c, 0, 59, 68
2, 123927, Note_on_c, 0, 76, 0
2, 123929, Note_on_c, 0, 68, 77
2, 123953, Note_on_c, 0, 59, 0
2, 124009, Note_on_c, 0, 68, 0
2, 124023, Note_on_c, 0, 76, 51
2, 124127, Note_on_c, 0, 78, 70
2, 124129, Note_on_c, 0, 52, 57
2, 124149, Note_on_c, 0, 76, 0
2, 124178, Note_on_c, 0, 52, 0
2, 124225, Note_on_c, 0, 76, 45
2, 124241, Note_on_c, 0, 78, 0
2, 124338, Note_on_c, 0, 45, 60
2, 124352, Note_on_c, 0, 71, 68
2, 124354, Control_c, 0, 64, 63
2, 124354, Control_c, 0, 64, 127
2, 124361, Note_on_c, 0, 76, 0
2, 124369, Note_on_c, 0, 45, 0
2, 124440, Note_on_c, 0, 71, 0
2, 124450, Note_on_c, 0, 76, 58
2, 124546, Note_on_c, 0, 56, 62
2, 124553, Note_on_c, 0, 78, 55
2, 124579, Note_on_c, 0, 76, 0
2, 124593, Note_on_c, 0, 56, 0
2, 124671, Note_on_c, 0, 76, 53
2, 124672, Note_on_c, 0, 78, 0
2, 124747, Note_on_c, 0, 57, 82
2, 124763, Control_c, 0, 64, 63
2, 124766, Control_c, 0, 64, 0
2, 124771, Note_on_c, 0, 73, 76
2, 124772, Note_on_c, 0, 76, 0
2, 124792, Note_on_c, 0, 57, 0
2, 124846, Note_on_c, 0, 73, 0
2, 124858, Note_on_c, 0, 76, 50
2, 124954, Note_on_c, 0, 61, 103
2, 124960, Note_on_c, 0, 78, 62
2, 124978, Note_on_c, 0, 76, 0
2, 125005, Note_on_c, 0, 61, 0
2, 125038, Note_on_c, 0, 76, 61
2, 125074, Note_on_c, 0, 78, 0
2, 125173, Note_on_c, 0, 76, 0
2, 125181, Note_on_c, 0, 66, 100
2, 125203, Note_on_c, 0, 69, 60
2, 125235, Control_c, 0, 64, 63
2, 125237, Control_c, 0, 64, 127
2, 125328, Note_on_c, 0, 73, 70
2, 125352, Note_on_c, 0, 69, 0
2, 125437, Note_on_c, 0, 73, 0
2, 125451, Note_on_c, 0, 74, 43
2, 125515, Note_on_c, 0, 73, 60
2, 125551, Note_on_c, 0, 74, 0
2, 125559, Note_on_c, 0, 66, 0
2, 125566, Note_on_c, 0, 73, 0
2, 125623, Note_on_c, 0, 65, 79
2, 125659, Control_c, 0, 64, 63
2, 125672, Control_c, 0, 64, 0
2, 125726, Note_on_c, 0, 69, 54
2, 125779, Control_c, 0, 64, 63
2, 125792, Control_c, 0, 64, 127
2, 125848, Note_on_c, 0, 73, 80
2, 125848, Note_on_c, 0, 64, 90
2, 125869, Note_on_c, 0, 69, 0
2, 125872, Note_on_c, 0, 65, 0
2, 125945, Note_on_c, 0, 69, 66
2, 125946, Note_on_c, 0, 73, 0
2, 125993, Note_on_c, 0, 69, 0
2, 126017, Note_on_c, 0, 64, 0
2, 126052, Note_on_c, 0, 62, 90
2, 126097, Control_c, 0, 64, 63
2, 126114, Control_c, 0, 64, 0
2, 126135, Note_on_c, 0, 62, 0
2, 126141, Note_on_c, 0, 64, 63
2, 126237, Control_c, 0, 64, 63
2, 126254, Control_c, 0, 64, 127
2, 126260, Note_on_c, 0, 69, 75
2, 126266, Note_on_c, 0, 61, 90
2, 126267, Note_on_c, 0, 64, 0
2, 126307, Note_on_c, 0, 61, 0
2, 126337, Note_on_c, 0, 69, 0
2, 126348, Note_on_c, 0, 64, 67
2, 126419, Note_on_c, 0, 64, 0
2, 126460, Note_on_c, 0, 61, 93
2, 126473, Note_on_c, 0, 45, 70
2, 126523, Control_c, 0, 64, 63
2, 126560, Control_c, 0, 64, 0
2, 126562, Note_on_c, 0, 61, 0
2, 126563, Note_on_c, 0, 64, 65
2, 126576, Note_on_c, 0, 45, 0
2, 126660, Note_on_c, 0, 66, 80
2, 126684, Note_on_c, 0, 49, 86
2, 126685, Note_on_c, 0, 64, 0
2, 126724, Note_on_c, 0, 49, 0
2, 126760, Note_on_c, 0, 64, 48
2, 126787, Note_on_c, 0, 66, 0
2, 126888, Note_on_c, 0, 64, 0
2, 126900, Note_on_c, 0, 54, 95
2, 126905, Note_on_c, 0, 57, 51
2, 126917, Control_c, 0, 64, 63
2, 126934, Control_c, 0, 64, 127
2, 127032, Note_on_c, 0, 61, 67
2, 127042, Note_on_c, 0, 57, 0
2, 127135, Note_on_c, 0, 61, 0
2, 127141, Note_on_c, 0, 62, 53
2, 127226, Note_on_c, 0, 61, 65
2, 127252, Note_on_c, 0, 62, 0
2, 127255, Note_on_c, 0, 54, 0
2, 127329, Note_on_c, 0, 53, 82
2, 127379, Control_c, 0, 64, 63
2, 127400, Note_on_c, 0, 61, 0
2, 127407, Control_c, 0, 64, 0
2, 127435, Note_on_c, 0, 57, 65
2, 127493, Note_on_c, 0, 53, 0
2, 127554, Note_on_c, 0, 52, 80
2, 127561, Note_on_c, 0, 57, 0
2, 127567, Note_on_c, 0, 61, 73
2, 127590, Control_c, 0, 64, 63
2, 127615, Control_c, 0, 64, 127
2, 127665, Note_on_c, 0, 57, 47
2, 127675, Note_on_c, 0, 61, 0
2, 127714, Note_on_c, 0, 52, 0
2, 127717, Note_on_c, 0, 57, 0
2, 127768, Note_on_c, 0, 50, 86
2, 127822, Note_on_c, 0, 50, 0
2, 127833, Control_c, 0, 64, 63
2, 127855, Note_on_c, 0, 52, 64
2, 127859, Control_c, 0, 64, 0
2, 127966, Note_on_c, 0, 57, 65
2, 127984, Note_on_c, 0, 49, 70
2, 127990, Note_on_c, 0, 52, 0
2, 128071, Note_on_c, 0, 49, 0
2, 128074, Note_on_c, 0, 57, 0
2, 128076, Note_on_c, 0, 52, 70
2, 128077, Control_c, 0, 64, 63
2, 128101, Control_c, 0, 64, 127
2, 128140, Note_on_c, 0, 52, 0
2, 128173, Note_on_c, 0, 47, 73
2, 128217, Control_c, 0, 64, 63
2, 128245, Note_on_c, 0, 47, 0
2, 128249, Control_c, 0, 64, 0
2, 128276, Note_on_c, 0, 49, 59
2, 128378, Note_on_c, 0, 52, 63
2, 128386, Note_on_c, 0, 49, 0
2, 128395, Note_on_c, 0, 45, 72
2, 128455, Note_on_c, 0, 45, 0
2, 128486, Note_on_c, 0, 49, 62
2, 128520, Note_on_c, 0, 52, 0
2, 128563, Note_on_c, 0, 49, 0
2, 128597, Note_on_c, 0, 44, 71
2, 128652, Note_on_c, 0, 44, 0
2, 128689, Note_on_c, 0, 49, 67
2, 128792, Note_on_c, 0, 52, 57
2, 128803, Note_on_c, 0, 49, 0
2, 128815, Note_on_c, 0, 45, 69
2, 128866, Note_on_c, 0, 45, 0
2, 128897, Note_on_c, 0, 49, 67
2, 128932, Note_on_c, 0, 52, 0
2, 128989, Note_on_c, 0, 49, 0
2, 129007, Note_on_c, 0, 47, 88
2, 129079, Note_on_c, 0, 47, 0
2, 129099, Note_on_c, 0, 49, 70
2, 129216, Note_on_c, 0, 45, 83
2, 129217, Note_on_c, 0, 52, 64
2, 129221, Note_on_c, 0, 49, 0
2, 129281, Note_on_c, 0, 45, 0
2, 129301, Note_on_c, 0, 49, 70
2, 129340, Note_on_c, 0, 52, 0
2, 129390, Note_on_c, 0, 49, 0
2, 129426, Note_on_c, 0, 44, 95
2, 129494, Note_on_c, 0, 44, 0
2, 129517, Note_on_c, 0, 49, 70
2, 129634, Note_on_c, 0, 49, 0
2, 129637, Note_on_c, 0, 52, 53
2, 129646, Note_on_c, 0, 45, 61
2, 129703, Note_on_c, 0, 45, 0
2, 129736, Note_on_c, 0, 49, 58
2, 129776, Note_on_c, 0, 52, 0
2, 129827, Note_on_c, 0, 49, 0
2, 129850, Note_on_c, 0, 47, 59
2, 129902, Note_on_c, 0, 47, 0
2, 129937, Note_on_c, 0, 49, 64
2, 130042, Note_on_c, 0, 49, 0
2, 130057, Note_on_c, 0, 52, 52
2, 130060, Note_on_c, 0, 45, 41
2, 130100, Note_on_c, 0, 45, 0
2, 130161, Note_on_c, 0, 49, 68
2, 130201, Note_on_c, 0, 52, 0
2, 130252, Note_on_c, 0, 49, 0
2, 130301, Note_on_c, 0, 44, 62
2, 130402, Note_on_c, 0, 45, 57
2, 130484, Note_on_c, 0, 44, 0
2, 130487, Note_on_c, 0, 45, 0
2, 130498, Note_on_c, 0, 48, 58
2, 130572, Control_c, 0, 67, 0
2, 130609, Note_on_c, 0, 49, 74
2, 130612, Note_on_c, 0, 48, 0
2, 130709, Control_c, 0, 64, 63
2, 130739, Note_on_c, 0, 51, 66
2, 130753, Control_c, 0, 64, 127
2, 130776, Note_on_c, 0, 49, 0
2, 130821, Note_on_c, 0, 51, 0
2, 130821, Note_on_c, 0, 52, 61
2, 130932, Note_on_c, 0, 56, 70
2, 130941, Note_on_c, 0, 52, 0
2, 131038, Note_on_c, 0, 57, 65
2, 131054, Note_on_c, 0, 56, 0
2, 131087, Control_c, 0, 64, 63
2, 131104, Control_c, 0, 64, 0
2, 131140, Note_on_c, 0, 57, 0
2, 131155, Note_on_c, 0, 56, 70
2, 131182, Control_c, 0, 64, 63
2, 131203, Control_c, 0, 64, 127
2, 131263, Note_on_c, 0, 57, 58
2, 131329, Note_on_c, 0, 56, 0
2, 131359, Note_on_c, 0, 57, 0
2, 131365, Note_on_c, 0, 60, 68
2, 131472, Note_on_c, 0, 61, 90
2, 131475, Note_on_c, 0, 60, 0
2, 131511, Note_on_c, 0, 61, 0
2, 131585, Note_on_c, 0, 63, 73
2, 131675, Note_on_c, 0, 64, 65
2, 131689, Note_on_c, 0, 63, 0
2, 131771, Note_on_c, 0, 68, 76
2, 131798, Note_on_c, 0, 64, 0
2, 131869, Note_on_c, 0, 69, 78
2, 131911, Note_on_c, 0, 68, 0
2, 131962, Note_on_c, 0, 69, 0
2, 131977, Control_c, 0, 64, 63
2, 131984, Note_on_c, 0, 68, 91
2, 131986, Control_c, 0, 64, 0
2, 132013, Control_c, 0, 64, 63
2, 132030, Control_c, 0, 64, 127
2, 132085, Note_on_c, 0, 69, 84
2, 132170, Note_on_c, 0, 68, 0
2, 132193, Note_on_c, 0, 72, 84
2, 132202, Note_on_c, 0, 69, 0
2, 132295, Note_on_c, 0, 72, 0
2, 132300, Note_on_c, 0, 73, 103
2, 132342, Note_on_c, 0, 73, 0
2, 132416, Note_on_c, 0, 75, 93
2, 132503, Note_on_c, 0, 76, 88
2, 132539, Note_on_c, 0, 75, 0
2, 132599, Note_on_c, 0, 80, 96
2, 132634, Note_on_c, 0, 76, 0
2, 132701, Note_on_c, 0, 81, 93
2, 132751, Note_on_c, 0, 80, 0
2, 132784, Note_on_c, 0, 81, 0
2, 132823, Note_on_c, 0, 80, 104
2, 132922, Note_on_c, 0, 81, 98
2, 132972, Note_on_c, 0, 80, 0
2, 133000, Note_on_c, 0, 81, 0
2, 133036, Note_on_c, 0, 84, 93
2, 133125, Note_on_c, 0, 85, 96
2, 133135, Note_on_c, 0, 86, 83
2, 133140, Note_on_c, 0, 84, 0
2, 133157, Note_on_c, 0, 86, 0
2, 133171, Note_on_c, 0, 85, 0
2, 133240, Note_on_c, 0, 87, 106
2, 133332, Note_on_c, 0, 88, 99
2, 133369, Note_on_c, 0, 87, 0
2, 133435, Note_on_c, 0, 92, 104
2, 133473, Note_on_c, 0, 88, 0
2, 133534, Note_on_c, 0, 93, 102
2, 133556, Note_on_c, 0, 92, 0
2, 133596, Note_on_c, 0, 93, 0
2, 133692, Control_c, 0, 64, 63
2, 133702, Control_c, 0, 64, 0
2, 133776, Note_on_c, 0, 57, 104
2, 133777, Note_on_c, 0, 81, 102
2, 133778, Note_on_c, 0, 78, 103
2, 133778, Note_on_c, 0, 54, 108
2, 133779, Note_on_c, 0, 74, 106
2, 133779, Note_on_c, 0, 50, 102
2, 133818, Control_c, 0, 64, 127
2, 133996, Note_on_c, 0, 81, 0
2, 134030, Note_on_c, 0, 78, 0
2, 134037, Note_on_c, 0, 69, 91
2, 134039, Note_on_c, 0, 74, 0
2, 134041, Note_on_c, 0, 50, 0
2, 134047, Note_on_c, 0, 62, 97
2, 134061, Note_on_c, 0, 57, 0
2, 134072, Note_on_c, 0, 54, 0
2, 134077, Control_c, 0, 64, 63
2, 134081, Control_c, 0, 64, 0
2, 134089, Note_on_c, 0, 69, 0
2, 134112, Note_on_c, 0, 62, 0
2, 134247, Note_on_c, 0, 55, 80
2, 134248, Note_on_c, 0, 70, 100
2, 134249, Note_on_c, 0, 58, 96
2, 134249, Note_on_c, 0, 50, 87
2, 134251, Note_on_c, 0, 76, 87
2, 134254, Note_on_c, 0, 74, 86
2, 134256, Control_c, 0, 64, 127
2, 134389, Note_on_c, 0, 50, 0
2, 134464, Note_on_c, 0, 76, 0
2, 134469, Note_on_c, 0, 64, 81
2, 134470, Note_on_c, 0, 74, 0
2, 134475, Note_on_c, 0, 55, 0
2, 134475, Control_c, 0, 64, 63
2, 134482, Control_c, 0, 64, 0
2, 134482, Note_on_c, 0, 62, 97
2, 134493, Note_on_c, 0, 70, 0
2, 134514, Note_on_c, 0, 58, 0
2, 134524, Note_on_c, 0, 64, 0
2, 134564, Note_on_c, 0, 62, 0
2, 134683, Note_on_c, 0, 54, 94
2, 134685, Note_on_c, 0, 57, 94
2, 134688, Note_on_c, 0, 74, 97
2, 134689, Note_on_c, 0, 81, 91
2, 134689, Note_on_c, 0, 78, 93
2, 134692, Note_on_c, 0, 50, 80
2, 134696, Control_c, 0, 64, 127
2, 134868, Note_on_c, 0, 81, 0
2, 134875, Note_on_c, 0, 50, 0
2, 134906, Note_on_c, 0, 78, 0
2, 134912, Note_on_c, 0, 54, 0
2, 134912, Note_on_c, 0, 69, 86
2, 134915, Note_on_c, 0, 74, 0
2, 134921, Control_c, 0, 64, 63
2, 134922, Note_on_c, 0, 62, 82
2, 134928, Control_c, 0, 64, 0
2, 134946, Note_on_c, 0, 57, 0
2, 134965, Note_on_c, 0, 69, 0
2, 135004, Note_on_c, 0, 62, 0
2, 135119, Control_c, 0, 64, 63
2, 135120, Control_c, 0, 64, 127
2, 135123, Note_on_c, 0, 50, 81
2, 135124, Note_on_c, 0, 55, 73
2, 135126, Note_on_c, 0, 76, 88
2, 135129, Note_on_c, 0, 74, 89
2, 135130, Note_on_c, 0, 70, 99
2, 135132, Note_on_c, 0, 58, 84
2, 135275, Note_on_c, 0, 50, 0
2, 135347, Note_on_c, 0, 64, 83
2, 135348, Note_on_c, 0, 76, 0
2, 135349, Note_on_c, 0, 55, 0
2, 135357, Note_on_c, 0, 74, 0
2, 135358, Note_on_c, 0, 62, 91
2, 135362, Note_on_c, 0, 70, 0
2, 135379, Note_on_c, 0, 58, 0
2, 135383, Control_c, 0, 64, 63
2, 135389, Control_c, 0, 64, 0
2, 135397, Note_on_c, 0, 64, 0
2, 135407, Note_on_c, 0, 62, 0
2, 135613, Note_on_c, 0, 74, 101
2, 135614, Control_c, 0, 64, 127
2, 135617, Note_on_c, 0, 66, 102
2, 135618, Note_on_c, 0, 69, 101
2, 135618, Note_on_c, 0, 62, 91
2, 135627, Note_on_c, 0, 60, 86
2, 135715, Note_on_c, 0, 76, 90
2, 135734, Note_on_c, 0, 74, 0
2, 135811, Note_on_c, 0, 74, 82
2, 135841, Note_on_c, 0, 76, 0
2, 135932, Note_on_c, 0, 76, 91
2, 135945, Note_on_c, 0, 74, 0
2, 136050, Note_on_c, 0, 78, 99
2, 136078, Note_on_c, 0, 76, 0
2, 136171, Note_on_c, 0, 78, 0
2, 136207, Note_on_c, 0, 69, 0
2, 136218, Note_on_c, 0, 66, 0
2, 136236, Note_on_c, 0, 62, 0
2, 136249, Note_on_c, 0, 60, 0
2, 136270, Note_on_c, 0, 78, 97
2, 136330, Note_on_c, 0, 78, 0
2, 136488, Note_on_c, 0, 58, 99
2, 136501, Note_on_c, 0, 76, 87
2, 136502, Note_on_c, 0, 67, 88
2, 136503, Note_on_c, 0, 74, 77
2, 136516, Control_c, 0, 64, 63
2, 136520, Control_c, 0, 64, 0
2, 136590, Note_on_c, 0, 57, 83
2, 136603, Note_on_c, 0, 58, 0
2, 136662, Note_on_c, 0, 74, 0
2, 136681, Note_on_c, 0, 76, 0
2, 136713, Note_on_c, 0, 79, 94
2, 136714, Note_on_c, 0, 55, 94
2, 136719, Note_on_c, 0, 57, 0
2, 136799, Note_on_c, 0, 54, 99
2, 136825, Note_on_c, 0, 55, 0
2, 136828, Note_on_c, 0, 79, 0
2, 136889, Note_on_c, 0, 54, 0
2, 136928, Note_on_c, 0, 52, 101
2, 136933, Note_on_c, 0, 73, 100
2, 136934, Note_on_c, 0, 76, 96
2, 136977, Control_c, 0, 64, 63
2, 136977, Control_c, 0, 64, 127
2, 136978, Note_on_c, 0, 67, 0
2, 137160, Note_on_c, 0, 57, 93
2, 137162, Note_on_c, 0, 69, 86
2, 137169, Control_c, 0, 64, 63
2, 137175, Control_c, 0, 64, 0
2, 137179, Note_on_c, 0, 76, 0
2, 137185, Note_on_c, 0, 52, 0
2, 137190, Note_on_c, 0, 73, 0
2, 137236, Note_on_c, 0, 69, 0
2, 137237, Note_on_c, 0, 57, 0
2, 137422, Note_on_c, 0, 54, 96
2, 137425, Note_on_c, 0, 57, 96
2, 137428, Note_on_c, 0, 78, 97
2, 137429, Note_on_c, 0, 74, 101
2, 137430, Note_on_c, 0, 81, 96
2, 137434, Note_on_c, 0, 50, 81
2, 137456, Control_c, 0, 64, 127
2, 137605, Note_on_c, 0, 81, 0
2, 137617, Note_on_c, 0, 50, 0
2, 137626, Note_on_c, 0, 54, 0
2, 137645, Note_on_c, 0, 74, 0
2, 137648, Note_on_c, 0, 78, 0
2, 137656, Note_on_c, 0, 62, 92
2, 137657, Note_on_c, 0, 69, 88
2, 137667, Note_on_c, 0, 57, 0
2, 137680, Control_c, 0, 64, 63
2, 137695, Control_c, 0, 64, 0
2, 137712, Note_on_c, 0, 69, 0
2, 137738, Note_on_c, 0, 62, 0
2, 137821, Control_c, 0, 64, 63
2, 137838, Control_c, 0, 64, 127
2, 137859, Note_on_c, 0, 58, 93
2, 137861, Note_on_c, 0, 55, 67
2, 137862, Note_on_c, 0, 76, 83
2, 137862, Note_on_c, 0, 50, 74
2, 137862, Note_on_c, 0, 70, 100
2, 137865, Note_on_c, 0, 74, 86
2, 138005, Note_on_c, 0, 50, 0
2, 138056, Note_on_c, 0, 76, 0
2, 138060, Note_on_c, 0, 74, 0
2, 138073, Note_on_c, 0, 64, 82
2, 138079, Note_on_c, 0, 55, 0
2, 138087, Note_on_c, 0, 62, 93
2, 138091, Note_on_c, 0, 70, 0
2, 138117, Note_on_c, 0, 58, 0
2, 138123, Control_c, 0, 64, 63
2, 138126, Note_on_c, 0, 64, 0
2, 138160, Control_c, 0, 64, 0
2, 138173, Note_on_c, 0, 62, 0
2, 138265, Control_c, 0, 64, 63
2, 138289, Note_on_c, 0, 57, 96
2, 138290, Control_c, 0, 64, 127
2, 138291, Note_on_c, 0, 74, 94
2, 138292, Note_on_c, 0, 81, 91
2, 138292, Note_on_c, 0, 54, 91
2, 138293, Note_on_c, 0, 78, 91
2, 138295, Note_on_c, 0, 50, 84
2, 138464, Note_on_c, 0, 81, 0
2, 138473, Note_on_c, 0, 50, 0
2, 138497, Note_on_c, 0, 78, 0
2, 138498, Note_on_c, 0, 74, 0
2, 138506, Note_on_c, 0, 69, 84
2, 138514, Note_on_c, 0, 62, 87
2, 138521, Note_on_c, 0, 57, 0
2, 138521, Note_on_c, 0, 54, 0
2, 138539, Control_c, 0, 64, 63
2, 138566, Note_on_c, 0, 69, 0
2, 138571, Control_c, 0, 64, 0
2, 138580, Note_on_c, 0, 62, 0
2, 138697, Control_c, 0, 64, 63
2, 138712, Note_on_c, 0, 76, 92
2, 138713, Note_on_c, 0, 55, 73
2, 138715, Control_c, 0, 64, 127
2, 138717, Note_on_c, 0, 74, 89
2, 138718, Note_on_c, 0, 70, 100
2, 138718, Note_on_c, 0, 50, 77
2, 138719, Note_on_c, 0, 58, 88
2, 138847, Note_on_c, 0, 50, 0
2, 138881, Note_on_c, 0, 55, 0
2, 138926, Note_on_c, 0, 76, 0
2, 138928, Note_on_c, 0, 64, 79
2, 138935, Note_on_c, 0, 74, 0
2, 138935, Note_on_c, 0, 62, 94
2, 138948, Note_on_c, 0, 70, 0
2, 138961, Note_on_c, 0, 58, 0
2, 138981, Note_on_c, 0, 64, 0
2, 138988, Note_on_c, 0, 62, 0
2, 138998, Control_c, 0, 64, 63
2, 139017, Control_c, 0, 64, 0
2, 139178, Control_c, 0, 64, 63
2, 139188, Control_c, 0, 64, 127
2, 139192, Note_on_c, 0, 66, 104
2, 139193, Note_on_c, 0, 69, 102
2, 139196, Note_on_c, 0, 74, 97
2, 139197, Note_on_c, 0, 62, 90
2, 139198, Note_on_c, 0, 60, 93
2, 139292, Note_on_c, 0, 74, 0
2, 139319, Note_on_c, 0, 76, 84
2, 139409, Note_on_c, 0, 74, 82
2, 139418, Note_on_c, 0, 76, 0
2, 139510, Note_on_c, 0, 76, 92
2, 139511, Note_on_c, 0, 74, 0
2, 139620, Note_on_c, 0, 78, 102
2, 139645, Note_on_c, 0, 76, 0
2, 139694, Note_on_c, 0, 69, 0
2, 139701, Note_on_c, 0, 78, 0
2, 139731, Note_on_c, 0, 66, 0
2, 139752, Note_on_c, 0, 62, 0
2, 139761, Note_on_c, 0, 60, 0
2, 139846, Note_on_c, 0, 78, 95
2, 139917, Note_on_c, 0, 78, 0
2, 140058, Note_on_c, 0, 58, 98
2, 140062, Note_on_c, 0, 62, 92
2, 140070, Note_on_c, 0, 74, 91
2, 140071, Note_on_c, 0, 76, 94
2, 140111, Control_c, 0, 64, 63
2, 140126, Note_on_c, 0, 74, 0
2, 140156, Control_c, 0, 64, 127
2, 140180, Note_on_c, 0, 78, 91
2, 140186, Note_on_c, 0, 58, 0
2, 140193, Note_on_c, 0, 62, 0
2, 140203, Note_on_c, 0, 76, 0
2, 140250, Note_on_c, 0, 78, 0
2, 140268, Control_c, 0, 64, 63
2, 140278, Note_on_c, 0, 58, 104
2, 140282, Control_c, 0, 64, 0
2, 140300, Note_on_c, 0, 79, 94
2, 140355, Note_on_c, 0, 58, 0
2, 140366, Note_on_c, 0, 79, 0
2, 140384, Note_on_c, 0, 57, 91
2, 140388, Note_on_c, 0, 81, 99
2, 140450, Note_on_c, 0, 57, 0
2, 140484, Note_on_c, 0, 81, 0
2, 140501, Note_on_c, 0, 55, 111
2, 140504, Note_on_c, 0, 82, 106
2, 140521, Control_c, 0, 64, 127
2, 140573, Note_on_c, 0, 82, 0
2, 140788, Note_on_c, 0, 55, 0
2, 141097, Control_c, 0, 64, 63
2, 141103, Control_c, 0, 64, 0
2, 141129, Note_on_c, 0, 51, 79
2, 141133, Note_on_c, 0, 43, 53
2, 141180, Note_on_c, 0, 51, 0
2, 141187, Note_on_c, 0, 43, 0
2, 141241, Note_on_c, 0, 63, 63
2, 141244, Note_on_c, 0, 61, 51
2, 141283, Note_on_c, 0, 61, 0
2, 141285, Note_on_c, 0, 63, 0
2, 141359, Note_on_c, 0, 58, 82
2, 141416, Note_on_c, 0, 58, 0
2, 141446, Note_on_c, 0, 61, 64
2, 141460, Note_on_c, 0, 63, 44
2, 141497, Note_on_c, 0, 63, 0
2, 141507, Note_on_c, 0, 61, 0
2, 141574, Note_on_c, 0, 56, 70
2, 141584, Control_c, 0, 64, 63
2, 141585, Note_on_c, 0, 60, 78
2, 141586, Control_c, 0, 64, 127
2, 141659, Note_on_c, 0, 60, 0
2, 141692, Note_on_c, 0, 56, 0
2, 141800, Note_on_c, 0, 72, 72
2, 141804, Note_on_c, 0, 63, 86
2, 141812, Note_on_c, 0, 51, 74
2, 141815, Note_on_c, 0, 44, 60
2, 141839, Control_c, 0, 64, 63
2, 141841, Control_c, 0, 64, 0
2, 141853, Note_on_c, 0, 63, 0
2, 141857, Note_on_c, 0, 72, 0
2, 141858, Note_on_c, 0, 51, 0
2, 141881, Note_on_c, 0, 44, 0
2, 142033, Note_on_c, 0, 53, 91
2, 142038, Control_c, 0, 64, 127
2, 142043, Note_on_c, 0, 45, 53
2, 142088, Note_on_c, 0, 45, 0
2, 142092, Note_on_c, 0, 53, 0
2, 142150, Note_on_c, 0, 63, 68
2, 142157, Note_on_c, 0, 65, 58
2, 142210, Note_on_c, 0, 65, 0
2, 142217, Note_on_c, 0, 63, 0
2, 142227, Control_c, 0, 64, 63
2, 142231, Control_c, 0, 64, 0
2, 142261, Note_on_c, 0, 60, 92
2, 142310, Note_on_c, 0, 60, 0
2, 142340, Note_on_c, 0, 63, 75
2, 142352, Note_on_c, 0, 65, 60
2, 142424, Note_on_c, 0, 63, 0
2, 142443, Note_on_c, 0, 65, 0
2, 142473, Control_c, 0, 64, 127
2, 142478, Note_on_c, 0, 62, 87
2, 142481, Note_on_c, 0, 58, 84
2, 142578, Note_on_c, 0, 58, 0
2, 142584, Note_on_c, 0, 62, 0
2, 142689, Note_on_c, 0, 74, 78
2, 142694, Note_on_c, 0, 65, 76
2, 142700, Note_on_c, 0, 46, 71
2, 142713, Note_on_c, 0, 53, 53
2, 142733, Control_c, 0, 64, 63
2, 142740, Control_c, 0, 64, 0
2, 142745, Note_on_c, 0, 65, 0
2, 142751, Note_on_c, 0, 74, 0
2, 142757, Note_on_c, 0, 53, 0
2, 142766, Note_on_c, 0, 46, 0
2, 142928, Note_on_c, 0, 62, 80
2, 142935, Control_c, 0, 64, 127
2, 142939, Note_on_c, 0, 47, 65
2, 142939, Note_on_c, 0, 55, 67
2, 143045, Note_on_c, 0, 62, 0
2, 143122, Note_on_c, 0, 47, 0
2, 143155, Note_on_c, 0, 59, 67
2, 143161, Note_on_c, 0, 74, 72
2, 143166, Note_on_c, 0, 65, 68
2, 143167, Note_on_c, 0, 67, 69
2, 143195, Note_on_c, 0, 55, 0
2, 143208, Note_on_c, 0, 65, 0
2, 143218, Note_on_c, 0, 67, 0
2, 143221, Note_on_c, 0, 59, 0
2, 143226, Note_on_c, 0, 74, 0
2, 143239, Control_c, 0, 64, 63
2, 143253, Control_c, 0, 64, 0
2, 143362, Control_c, 0, 64, 63
2, 143372, Control_c, 0, 64, 127
2, 143384, Note_on_c, 0, 63, 94
2, 143387, Note_on_c, 0, 48, 88
2, 143389, Note_on_c, 0, 55, 89
2, 143529, Note_on_c, 0, 63, 0
2, 143598, Note_on_c, 0, 48, 0
2, 143598, Note_on_c, 0, 75, 90
2, 143599, Note_on_c, 0, 60, 81
2, 143609, Note_on_c, 0, 67, 52
2, 143645, Note_on_c, 0, 67, 0
2, 143647, Note_on_c, 0, 55, 0
2, 143651, Control_c, 0, 64, 63
2, 143679, Note_on_c, 0, 75, 0
2, 143680, Note_on_c, 0, 60, 0
2, 143682, Control_c, 0, 64, 0
2, 143802, Control_c, 0, 64, 63
2, 143807, Note_on_c, 0, 65, 90
2, 143816, Note_on_c, 0, 50, 96
2, 143817, Note_on_c, 0, 55, 93
2, 143818, Control_c, 0, 64, 127
2, 143946, Note_on_c, 0, 65, 0
2, 144041, Note_on_c, 0, 79, 86
2, 144045, Note_on_c, 0, 71, 87
2, 144049, Note_on_c, 0, 62, 82
2, 144088, Control_c, 0, 64, 63
2, 144092, Note_on_c, 0, 50, 0
2, 144093, Note_on_c, 0, 79, 0
2, 144097, Note_on_c, 0, 71, 0
2, 144103, Control_c, 0, 64, 0
2, 144113, Note_on_c, 0, 62, 0
2, 144113, Note_on_c, 0, 55, 0
2, 144258, Control_c, 0, 64, 63
2, 144272, Control_c, 0, 64, 127
2, 144276, Note_on_c, 0, 63, 81
2, 144277, Note_on_c, 0, 48, 77
2, 144279, Note_on_c, 0, 55, 71
2, 144491, Note_on_c, 0, 75, 78
2, 144501, Note_on_c, 0, 63, 0
2, 144501, Note_on_c, 0, 60, 73
2, 144504, Note_on_c, 0, 67, 61
2, 144522, Control_c, 0, 64, 63
2, 144531, Control_c, 0, 64, 0
2, 144539, Note_on_c, 0, 48, 0
2, 144544, Note_on_c, 0, 67, 0
2, 144549, Note_on_c, 0, 75, 0
2, 144563, Note_on_c, 0, 60, 0
2, 144567, Note_on_c, 0, 55, 0
2, 144724, Note_on_c, 0, 47, 81
2, 144727, Note_on_c, 0, 55, 76
2, 144738, Control_c, 0, 64, 63
2, 144739, Control_c, 0, 64, 127
2, 144798, Note_on_c, 0, 55, 0
2, 144799, Note_on_c, 0, 47, 0
2, 144835, Note_on_c, 0, 65, 61
2, 144838, Note_on_c, 0, 67, 55
2, 144899, Note_on_c, 0, 67, 0
2, 144901, Note_on_c, 0, 65, 0
2, 144941, Note_on_c, 0, 62, 83
2, 144946, Control_c, 0, 64, 63
2, 144954, Control_c, 0, 64, 0
2, 144995, Note_on_c, 0, 62, 0
2, 145040, Note_on_c, 0, 67, 71
2, 145041, Note_on_c, 0, 65, 66
2, 145098, Note_on_c, 0, 65, 0
2, 145124, Note_on_c, 0, 67, 0
2, 145156, Note_on_c, 0, 60, 87
2, 145165, Control_c, 0, 64, 63
2, 145166, Note_on_c, 0, 64, 91
2, 145166, Control_c, 0, 64, 127
2, 145321, Note_on_c, 0, 64, 0
2, 145376, Note_on_c, 0, 60, 0
2, 145377, Note_on_c, 0, 67, 86
2, 145378, Note_on_c, 0, 76, 88
2, 145383, Note_on_c, 0, 55, 76
2, 145390, Note_on_c, 0, 48, 58
2, 145399, Control_c, 0, 64, 63
2, 145405, Control_c, 0, 64, 0
2, 145432, Note_on_c, 0, 55, 0
2, 145433, Note_on_c, 0, 48, 0
2, 145434, Note_on_c, 0, 67, 0
2, 145449, Note_on_c, 0, 76, 0
2, 145609, Note_on_c, 0, 57, 79
2, 145610, Note_on_c, 0, 49, 85
2, 145613, Control_c, 0, 64, 127
2, 145686, Note_on_c, 0, 49, 0
2, 145698, Note_on_c, 0, 57, 0
2, 145702, Note_on_c, 0, 67, 73
2, 145704, Note_on_c, 0, 69, 74
2, 145760, Note_on_c, 0, 69, 0
2, 145773, Note_on_c, 0, 67, 0
2, 145804, Note_on_c, 0, 64, 88
2, 145811, Control_c, 0, 64, 63
2, 145818, Control_c, 0, 64, 0
2, 145877, Note_on_c, 0, 64, 0
2, 145908, Note_on_c, 0, 67, 86
2, 145911, Note_on_c, 0, 69, 83
2, 145968, Note_on_c, 0, 67, 0
2, 145990, Note_on_c, 0, 69, 0
2, 146018, Note_on_c, 0, 62, 98
2, 146024, Control_c, 0, 64, 127
2, 146026, Note_on_c, 0, 65, 91
2, 146174, Note_on_c, 0, 65, 0
2, 146229, Note_on_c, 0, 62, 0
2, 146240, Note_on_c, 0, 69, 83
2, 146241, Note_on_c, 0, 77, 80
2, 146248, Note_on_c, 0, 57, 72
2, 146251, Note_on_c, 0, 50, 70
2, 146279, Control_c, 0, 64, 63
2, 146287, Control_c, 0, 64, 0
2, 146294, Note_on_c, 0, 57, 0
2, 146297, Note_on_c, 0, 69, 0
2, 146303, Note_on_c, 0, 77, 0
2, 146312, Note_on_c, 0, 50, 0
2, 146478, Note_on_c, 0, 64, 58
2, 146484, Note_on_c, 0, 57, 57
2, 146490, Control_c, 0, 64, 127
2, 146493, Note_on_c, 0, 49, 70
2, 146609, Note_on_c, 0, 64, 0
2, 146657, Note_on_c, 0, 49, 0
2, 146717, Note_on_c, 0, 61, 80
2, 146719, Note_on_c, 0, 76, 73
2, 146721, Note_on_c, 0, 67, 64
2, 146723, Note_on_c, 0, 69, 67
2, 146750, Note_on_c, 0, 57, 0
2, 146765, Note_on_c, 0, 67, 0
2, 146767, Control_c, 0, 64, 63
2, 146773, Note_on_c, 0, 61, 0
2, 146774, Control_c, 0, 64, 0
2, 146780, Note_on_c, 0, 69, 0
2, 146786, Note_on_c, 0, 76, 0
2, 146950, Note_on_c, 0, 57, 86
2, 146951, Note_on_c, 0, 65, 79
2, 146952, Note_on_c, 0, 50, 88
2, 146954, Control_c, 0, 64, 127
2, 147081, Note_on_c, 0, 65, 0
2, 147153, Note_on_c, 0, 50, 0
2, 147162, Note_on_c, 0, 62, 99
2, 147170, Note_on_c, 0, 69, 87
2, 147171, Note_on_c, 0, 77, 89
2, 147208, Note_on_c, 0, 57, 0
2, 147221, Note_on_c, 0, 69, 0
2, 147236, Note_on_c, 0, 77, 0
2, 147278, Note_on_c, 0, 62, 0
2, 147332, Control_c, 0, 64, 63
2, 147341, Control_c, 0, 64, 0
2, 147381, Note_on_c, 0, 67, 96
2, 147394, Note_on_c, 0, 52, 99
2, 147395, Note_on_c, 0, 57, 101
2, 147413, Control_c, 0, 64, 63
2, 147423, Control_c, 0, 64, 127
2, 147539, Note_on_c, 0, 67, 0
2, 147623, Note_on_c, 0, 64, 80
2, 147626, Note_on_c, 0, 73, 96
2, 147626, Note_on_c, 0, 81, 86
2, 147678, Note_on_c, 0, 57, 0
2, 147681, Note_on_c, 0, 81, 0
2, 147683, Note_on_c, 0, 73, 0
2, 147685, Note_on_c, 0, 52, 0
2, 147690, Note_on_c, 0, 64, 0
2, 147711, Control_c, 0, 64, 63
2, 147732, Control_c, 0, 64, 0
2, 147843, Note_on_c, 0, 65, 70
2, 147856, Note_on_c, 0, 57, 71
2, 147859, Note_on_c, 0, 50, 74
2, 147866, Control_c, 0, 64, 63
2, 147880, Control_c, 0, 64, 127
2, 148000, Note_on_c, 0, 65, 0
2, 148065, Note_on_c, 0, 50, 0
2, 148075, Note_on_c, 0, 77, 74
2, 148081, Note_on_c, 0, 69, 66
2, 148085, Note_on_c, 0, 62, 72
2, 148120, Note_on_c, 0, 57, 0
2, 148120, Control_c, 0, 64, 63
2, 148130, Note_on_c, 0, 69, 0
2, 148135, Note_on_c, 0, 62, 0
2, 148137, Note_on_c, 0, 77, 0
2, 148160, Control_c, 0, 64, 0
2, 148305, Note_on_c, 0, 64, 61
2, 148306, Control_c, 0, 64, 63
2, 148314, Note_on_c, 0, 57, 67
2, 148316, Note_on_c, 0, 49, 83
2, 148322, Control_c, 0, 64, 127
2, 148424, Note_on_c, 0, 64, 0
2, 148480, Note_on_c, 0, 49, 0
2, 148514, Note_on_c, 0, 61, 86
2, 148524, Note_on_c, 0, 76, 80
2, 148530, Note_on_c, 0, 69, 74
2, 148530, Note_on_c, 0, 67, 72
2, 148548, Note_on_c, 0, 57, 0
2, 148570, Note_on_c, 0, 61, 0
2, 148572, Note_on_c, 0, 67, 0
2, 148585, Note_on_c, 0, 76, 0
2, 148592, Note_on_c, 0, 69, 0
2, 148649, Control_c, 0, 64, 63
2, 148672, Control_c, 0, 64, 0
2, 148716, Note_on_c, 0, 65, 94
2, 148723, Note_on_c, 0, 50, 94
2, 148728, Note_on_c, 0, 57, 94
2, 148779, Control_c, 0, 64, 63
2, 148793, Control_c, 0, 64, 127
2, 148856, Note_on_c, 0, 65, 0
2, 148921, Note_on_c, 0, 50, 0
2, 148943, Note_on_c, 0, 62, 101
2, 148949, Note_on_c, 0, 69, 90
2, 148950, Note_on_c, 0, 77, 92
2, 148965, Note_on_c, 0, 57, 0
2, 149000, Note_on_c, 0, 69, 0
2, 149012, Note_on_c, 0, 77, 0
2, 149022, Note_on_c, 0, 62, 0
2, 149049, Control_c, 0, 64, 63
2, 149074, Control_c, 0, 64, 0
2, 149165, Note_on_c, 0, 69, 98
2, 149166, Note_on_c, 0, 59, 101
2, 149167, Control_c, 0, 64, 63
2, 149179, Control_c, 0, 64, 127
2, 149182, Note_on_c, 0, 51, 76
2, 149294, Note_on_c, 0, 69, 0
2, 149311, Note_on_c, 0, 51, 0
2, 149379, Note_on_c, 0, 59, 0
2, 149397, Note_on_c, 0, 78, 96
2, 149398, Note_on_c, 0, 83, 83
2, 149405, Note_on_c, 0, 66, 98
2, 149446, Note_on_c, 0, 78, 0
2, 149450, Control_c, 0, 64, 63
2, 149451, Note_on_c, 0, 66, 0
2, 149451, Note_on_c, 0, 83, 0
2, 149459, Control_c, 0, 64, 0
2, 149626, Note_on_c, 0, 52, 75
2, 149627, Note_on_c, 0, 67, 74
2, 149628, Note_on_c, 0, 59, 78
2, 149644, Control_c, 0, 64, 63
2, 149649, Control_c, 0, 64, 127
2, 149752, Note_on_c, 0, 67, 0
2, 149843, Note_on_c, 0, 79, 61
2, 149847, Note_on_c, 0, 52, 0
2, 149848, Note_on_c, 0, 71, 72
2, 149849, Note_on_c, 0, 64, 66
2, 149896, Note_on_c, 0, 79, 0
2, 149899, Note_on_c, 0, 59, 0
2, 149905, Note_on_c, 0, 71, 0
2, 149905, Note_on_c, 0, 64, 0
2, 149915, Control_c, 0, 64, 63
2, 149928, Control_c, 0, 64, 0
2, 150065, Note_on_c, 0, 59, 91
2, 150068, Note_on_c, 0, 51, 95
2, 150070, Note_on_c, 0, 66, 87
2, 150093, Control_c, 0, 64, 63
2, 150094, Control_c, 0, 64, 127
2, 150239, Note_on_c, 0, 66, 0
2, 150288, Note_on_c, 0, 78, 83
2, 150296, Note_on_c, 0, 63, 96
2, 150298, Note_on_c, 0, 69, 45
2, 150309, Note_on_c, 0, 71, 63
2, 150334, Note_on_c, 0, 51, 0
2, 150341, Note_on_c, 0, 69, 0
2, 150349, Note_on_c, 0, 71, 0
2, 150363, Note_on_c, 0, 59, 0
2, 150369, Note_on_c, 0, 63, 0
2, 150405, Note_on_c, 0, 78, 0
2, 150446, Control_c, 0, 64, 63
2, 150453, Control_c, 0, 64, 0
2, 150504, Note_on_c, 0, 67, 86
2, 150506, Note_on_c, 0, 52, 104
2, 150507, Note_on_c, 0, 59, 111
2, 150541, Control_c, 0, 64, 63
2, 150552, Control_c, 0, 64, 127
2, 150628, Note_on_c, 0, 67, 0
2, 150684, Note_on_c, 0, 52, 0
2, 150708, Note_on_c, 0, 71, 89
2, 150708, Note_on_c, 0, 79, 83
2, 150710, Note_on_c, 0, 64, 97
2, 150727, Note_on_c, 0, 59, 0
2, 150756, Note_on_c, 0, 71, 0
2, 150776, Note_on_c, 0, 79, 0
2, 150802, Note_on_c, 0, 64, 0
2, 150896, Control_c, 0, 64, 63
2, 150903, Control_c, 0, 64, 0
2, 150948, Note_on_c, 0, 71, 99
2, 150952, Note_on_c, 0, 53, 90
2, 150953, Note_on_c, 0, 61, 106
2, 150990, Control_c, 0, 64, 63
2, 151000, Control_c, 0, 64, 127
2, 151040, Note_on_c, 0, 71, 0
2, 151057, Note_on_c, 0, 53, 0
2, 151128, Note_on_c, 0, 61, 0
2, 151185, Note_on_c, 0, 85, 83
2, 151189, Note_on_c, 0, 68, 94
2, 151196, Note_on_c, 0, 80, 72
2, 151224, Note_on_c, 0, 80, 0
2, 151243, Note_on_c, 0, 68, 0
2, 151245, Note_on_c, 0, 85, 0
2, 151266, Control_c, 0, 64, 63
2, 151274, Control_c, 0, 64, 0
2, 151404, Note_on_c, 0, 61, 106
2, 151405, Note_on_c, 0, 69, 81
2, 151406, Note_on_c, 0, 54, 100
2, 151424, Control_c, 0, 64, 63
2, 151424, Control_c, 0, 64, 127
2, 151546, Note_on_c, 0, 69, 0
2, 151604, Note_on_c, 0, 54, 0
2, 151612, Note_on_c, 0, 81, 88
2, 151613, Note_on_c, 0, 73, 97
2, 151618, Note_on_c, 0, 66, 91
2, 151646, Note_on_c, 0, 61, 0
2, 151660, Note_on_c, 0, 73, 0
2, 151679, Note_on_c, 0, 81, 0
2, 151681, Note_on_c, 0, 66, 0
2, 151692, Control_c, 0, 64, 63
2, 151708, Control_c, 0, 64, 0
2, 151826, Control_c, 0, 64, 63
2, 151833, Control_c, 0, 64, 127
2, 151844, Note_on_c, 0, 54, 100
2, 151845, Note_on_c, 0, 62, 90
2, 151858, Note_on_c, 0, 72, 89
2, 151957, Note_on_c, 0, 54, 0
2, 152007, Note_on_c, 0, 72, 0
2, 152074, Note_on_c, 0, 69, 86
2, 152080, Note_on_c, 0, 86, 97
2, 152081, Note_on_c, 0, 81, 91
2, 152082, Note_on_c, 0, 62, 0
2, 152131, Note_on_c, 0, 81, 0
2, 152142, Note_on_c, 0, 86, 0
2, 152155, Control_c, 0, 64, 63
2, 152160, Note_on_c, 0, 69, 0
2, 152165, Control_c, 0, 64, 0
2, 152281, Note_on_c, 0, 71, 96
2, 152282, Control_c, 0, 64, 63
2, 152287, Note_on_c, 0, 62, 110
2, 152288, Note_on_c, 0, 55, 102
2, 152289, Control_c, 0, 64, 127
2, 152417, Note_on_c, 0, 71, 0
2, 152446, Note_on_c, 0, 55, 0
2, 152500, Note_on_c, 0, 83, 96
2, 152501, Note_on_c, 0, 74, 99
2, 152504, Note_on_c, 0, 67, 90
2, 152523, Note_on_c, 0, 62, 0
2, 152547, Note_on_c, 0, 74, 0
2, 152560, Note_on_c, 0, 83, 0
2, 152571, Note_on_c, 0, 67, 0
2, 152592, Control_c, 0, 64, 63
2, 152600, Control_c, 0, 64, 0
2, 152678, Control_c, 0, 64, 63
2, 152688, Control_c, 0, 64, 127
2, 152707, Note_on_c, 0, 62, 107
2, 152707, Note_on_c, 0, 72, 107
2, 152711, Note_on_c, 0, 54, 104
2, 152823, Note_on_c, 0, 54, 0
2, 152850, Note_on_c, 0, 72, 0
2, 152907, Note_on_c, 0, 62, 0
2, 152915, Note_on_c, 0, 69, 97
2, 152921, Note_on_c, 0, 86, 94
2, 152924, Note_on_c, 0, 81, 94
2, 152973, Note_on_c, 0, 81, 0
2, 152978, Note_on_c, 0, 86, 0
2, 153004, Note_on_c, 0, 69, 0
2, 153064, Control_c, 0, 64, 63
2, 153078, Control_c, 0, 64, 0
2, 153121, Control_c, 0, 64, 63
2, 153135, Note_on_c, 0, 55, 106
2, 153137, Note_on_c, 0, 62, 112
2, 153137, Note_on_c, 0, 71, 106
2, 153140, Control_c, 0, 64, 127
2, 153287, Note_on_c, 0, 71, 0
2, 153341, Note_on_c, 0, 55, 0
2, 153346, Note_on_c, 0, 67, 102
2, 153348, Note_on_c, 0, 74, 99
2, 153350, Note_on_c, 0, 83, 97
2, 153376, Note_on_c, 0, 62, 0
2, 153392, Note_on_c, 0, 74, 0
2, 153401, Note_on_c, 0, 67, 0
2, 153418, Note_on_c, 0, 83, 0
2, 153514, Control_c, 0, 64, 63
2, 153543, Control_c, 0, 64, 0
2, 153637, Note_on_c, 0, 67, 90
2, 153638, Note_on_c, 0, 74, 102
2, 153639, Note_on_c, 0, 70, 94
2, 153639, Note_on_c, 0, 76, 104
2, 153649, Note_on_c, 0, 88, 112
2, 153652, Control_c, 0, 64, 63
2, 153658, Control_c, 0, 64, 127
2, 153796, Note_on_c, 0, 86, 83
2, 153826, Note_on_c, 0, 88, 0
2, 153908, Note_on_c, 0, 82, 96
2, 153923, Note_on_c, 0, 86, 0
2, 153930, Note_on_c, 0, 76, 0
2, 153937, Note_on_c, 0, 74, 0
2, 153966, Note_on_c, 0, 70, 0
2, 153983, Note_on_c, 0, 67, 0
2, 154002, Note_on_c, 0, 81, 90
2, 154049, Note_on_c, 0, 82, 0
2, 154093, Note_on_c, 0, 76, 90
2, 154107, Note_on_c, 0, 79, 98
2, 154147, Note_on_c, 0, 81, 0
2, 154169, Note_on_c, 0, 79, 0
2, 154205, Note_on_c, 0, 74, 89
2, 154224, Note_on_c, 0, 76, 0
2, 154315, Note_on_c, 0, 70, 84
2, 154333, Note_on_c, 0, 74, 0
2, 154428, Note_on_c, 0, 69, 81
2, 154455, Note_on_c, 0, 70, 0
2, 154524, Note_on_c, 0, 76, 92
2, 154530, Note_on_c, 0, 67, 83
2, 154552, Note_on_c, 0, 69, 0
2, 154572, Note_on_c, 0, 67, 0
2, 154630, Note_on_c, 0, 74, 89
2, 154682, Note_on_c, 0, 76, 0
2, 154735, Note_on_c, 0, 70, 99
2, 154770, Note_on_c, 0, 74, 0
2, 154819, Note_on_c, 0, 69, 86
2, 154880, Note_on_c, 0, 70, 0
2, 154916, Note_on_c, 0, 64, 98
2, 154927, Note_on_c, 0, 67, 98
2, 154966, Note_on_c, 0, 69, 0
2, 154987, Note_on_c, 0, 67, 0
2, 155036, Note_on_c, 0, 62, 91
2, 155057, Note_on_c, 0, 64, 0
2, 155152, Note_on_c, 0, 58, 87
2, 155170, Note_on_c, 0, 62, 0
2, 155258, Note_on_c, 0, 57, 71
2, 155282, Note_on_c, 0, 58, 0
2, 155355, Note_on_c, 0, 55, 92
2, 155368, Note_on_c, 0, 64, 98
2, 155395, Note_on_c, 0, 57, 0
2, 155415, Note_on_c, 0, 55, 0
2, 155462, Note_on_c, 0, 62, 90
2, 155515, Note_on_c, 0, 64, 0
2, 155569, Note_on_c, 0, 58, 96
2, 155601, Note_on_c, 0, 62, 0
2, 155654, Note_on_c, 0, 57, 84
2, 155734, Note_on_c, 0, 58, 0
2, 155765, Note_on_c, 0, 55, 92
2, 155769, Note_on_c, 0, 52, 92
2, 155803, Note_on_c, 0, 57, 0
2, 155828, Note_on_c, 0, 55, 0
2, 155877, Note_on_c, 0, 50, 93
2, 155899, Note_on_c, 0, 52, 0
2, 155990, Note_on_c, 0, 46, 88
2, 156015, Note_on_c, 0, 50, 0
2, 156086, Note_on_c, 0, 45, 74
2, 156121, Note_on_c, 0, 46, 0
2, 156132, Control_c, 0, 64, 63
2, 156143, Control_c, 0, 64, 0
2, 156187, Note_on_c, 0, 43, 99
2, 156188, Note_on_c, 0, 52, 101
2, 156229, Note_on_c, 0, 45, 0
2, 156238, Control_c, 0, 64, 63
2, 156253, Control_c, 0, 64, 127
2, 156254, Note_on_c, 0, 43, 0
2, 156282, Note_on_c, 0, 50, 88
2, 156334, Note_on_c, 0, 52, 0
2, 156392, Note_on_c, 0, 46, 98
2, 156417, Note_on_c, 0, 50, 0
2, 156483, Note_on_c, 0, 45, 89
2, 156550, Note_on_c, 0, 46, 0
2, 156588, Note_on_c, 0, 43, 87
2, 156597, Note_on_c, 0, 40, 96
2, 156606, Note_on_c, 0, 45, 0
2, 156648, Note_on_c, 0, 43, 0
2, 156693, Note_on_c, 0, 38, 96
2, 156718, Note_on_c, 0, 40, 0
2, 156812, Note_on_c, 0, 34, 87
2, 156824, Note_on_c, 0, 38, 0
2, 156896, Note_on_c, 0, 33, 84
2, 156920, Note_on_c, 0, 34, 0
2, 157006, Note_on_c, 0, 31, 107
2, 157011, Control_c, 0, 64, 63
2, 157018, Control_c, 0, 64, 0
2, 157043, Note_on_c, 0, 33, 0
2, 157081, Note_on_c, 0, 31, 0
2, 157234, Note_on_c, 0, 31, 101
2, 157309, Note_on_c, 0, 31, 0
2, 157441, Note_on_c, 0, 31, 101
2, 157476, Control_c, 0, 64, 63
2, 157479, Control_c, 0, 64, 127
2, 157530, Note_on_c, 0, 33, 88
2, 157593, Note_on_c, 0, 31, 0
2, 157637, Note_on_c, 0, 34, 99
2, 157667, Note_on_c, 0, 33, 0
2, 157739, Note_on_c, 0, 31, 89
2, 157758, Note_on_c, 0, 34, 0
2, 157783, Control_c, 0, 64, 63
2, 157797, Control_c, 0, 64, 0
2, 157857, Note_on_c, 0, 33, 84
2, 157881, Note_on_c, 0, 31, 0
2, 157925, Note_on_c, 0, 33, 0
2, 158067, Note_on_c, 0, 33, 90
2, 158142, Note_on_c, 0, 33, 0
2, 158299, Note_on_c, 0, 34, 88
2, 158372, Note_on_c, 0, 34, 0
2, 158513, Note_on_c, 0, 31, 65
2, 158617, Note_on_c, 0, 31, 0
2, 158798, Note_on_c, 0, 50, 75
2, 158798, Note_on_c, 0, 52, 73
2, 158799, Note_on_c, 0, 64, 74
2, 158802, Note_on_c, 0, 62, 74
2, 159292, Note_on_c, 0, 31, 71
2, 159294, Note_on_c, 0, 43, 75
2, 159480, Control_c, 0, 64, 63
2, 159491, Control_c, 0, 64, 127
2, 159635, Note_on_c, 0, 31, 0
2, 159661, Note_on_c, 0, 43, 0
2, 159780, Note_on_c, 0, 45, 63
2, 159788, Note_on_c, 0, 33, 60
2, 159883, Control_c, 0, 64, 63
2, 159895, Control_c, 0, 64, 0
2, 159993, Control_c, 0, 64, 63
2, 160006, Control_c, 0, 64, 127
2, 160054, Note_on_c, 0, 33, 0
2, 160106, Note_on_c, 0, 45, 0
2, 160285, Note_on_c, 0, 46, 44
2, 160296, Note_on_c, 0, 34, 30
2, 160399, Control_c, 0, 64, 63
2, 160422, Control_c, 0, 64, 0
2, 160496, Control_c, 0, 64, 63
2, 160518, Control_c, 0, 64, 127
2, 160552, Note_on_c, 0, 34, 0
2, 160643, Note_on_c, 0, 46, 0
2, 160744, Note_on_c, 0, 50, 0
2, 160755, Note_on_c, 0, 52, 0
2, 160768, Note_on_c, 0, 64, 0
2, 160769, Note_on_c, 0, 62, 0
2, 160784, Control_c, 0, 64, 63
2, 160795, Control_c, 0, 64, 0
2, 160805, Note_on_c, 0, 43, 67
2, 160859, Note_on_c, 0, 43, 0
2, 161034, Note_on_c, 0, 43, 79
2, 161098, Note_on_c, 0, 43, 0
2, 161247, Note_on_c, 0, 43, 75
2, 161330, Note_on_c, 0, 45, 78
2, 161353, Note_on_c, 0, 43, 0
2, 161449, Note_on_c, 0, 46, 79
2, 161452, Note_on_c, 0, 45, 0
2, 161530, Note_on_c, 0, 43, 60
2, 161554, Note_on_c, 0, 46, 0
2, 161660, Note_on_c, 0, 45, 79
2, 161666, Note_on_c, 0, 43, 0
2, 161722, Note_on_c, 0, 45, 0
2, 161885, Note_on_c, 0, 45, 77
2, 161946, Note_on_c, 0, 45, 0
2, 162106, Note_on_c, 0, 46, 67
2, 162350, Note_on_c, 0, 43, 45
2, 162362, Note_on_c, 0, 46, 0
2, 162444, Note_on_c, 0, 43, 0
2, 162627, Note_on_c, 0, 76, 42
2, 162629, Note_on_c, 0, 74, 38
2, 162641, Note_on_c, 0, 62, 35
2, 162642, Note_on_c, 0, 64, 35
2, 162746, Control_c, 0, 67, 127
2, 163124, Note_on_c, 0, 55, 40
2, 163138, Note_on_c, 0, 43, 44
2, 163287, Control_c, 0, 64, 63
2, 163293, Control_c, 0, 64, 127
2, 163462, Note_on_c, 0, 43, 0
2, 163464, Note_on_c, 0, 55, 0
2, 163600, Note_on_c, 0, 57, 66
2, 163610, Note_on_c, 0, 45, 64
2, 163737, Control_c, 0, 64, 63
2, 163809, Control_c, 0, 64, 127
2, 163923, Note_on_c, 0, 45, 0
2, 163971, Note_on_c, 0, 57, 0
2, 164133, Note_on_c, 0, 58, 35
2, 164148, Note_on_c, 0, 46, 26
2, 164220, Control_c, 0, 64, 63
2, 164242, Control_c, 0, 64, 0
2, 164309, Control_c, 0, 64, 63
2, 164329, Note_on_c, 0, 62, 0
2, 164334, Control_c, 0, 64, 127
2, 164345, Note_on_c, 0, 64, 0
2, 164374, Note_on_c, 0, 74, 0
2, 164386, Note_on_c, 0, 76, 0
2, 164527, Note_on_c, 0, 46, 0
2, 164572, Note_on_c, 0, 58, 0
2, 164690, Control_c, 0, 64, 63
2, 164710, Note_on_c, 0, 76, 26
2, 164711, Note_on_c, 0, 74, 26
2, 164714, Note_on_c, 0, 88, 28
2, 164719, Note_on_c, 0, 86, 21
2, 164730, Control_c, 0, 64, 0
2, 165155, Control_c, 0, 64, 63
2, 165180, Control_c, 0, 64, 127
2, 165195, Note_on_c, 0, 55, 26
2, 165203, Note_on_c, 0, 67, 16
2, 165359, Note_on_c, 0, 55, 0
2, 165384, Note_on_c, 0, 67, 0
2, 165717, Note_on_c, 0, 69, 14
2, 165728, Note_on_c, 0, 57, 20
2, 165761, Control_c, 0, 64, 63
2, 165800, Control_c, 0, 64, 127
2, 165956, Note_on_c, 0, 57, 0
2, 166013, Note_on_c, 0, 69, 0
2, 166360, Note_on_c, 0, 70, 12
2, 166363, Note_on_c, 0, 58, 16
2, 166489, Control_c, 0, 64, 63
2, 166583, Control_c, 0, 64, 127
2, 166895, Note_on_c, 0, 70, 0
2, 167032, Note_on_c, 0, 58, 0
2, 167060, Note_on_c, 0, 74, 0
2, 167065, Note_on_c, 0, 76, 0
2, 167078, Note_on_c, 0, 88, 0
2, 167079, Note_on_c, 0, 86, 0
2, 167083, Control_c, 0, 64, 63
2, 167117, Control_c, 0, 64, 0
2, 167202, Control_c, 0, 67, 0
2, 168230, Note_on_c, 0, 43, 114
2, 168238, Note_on_c, 0, 79, 110
2, 168255, Control_c, 0, 64, 127
2, 168295, Note_on_c, 0, 79, 0
2, 168316, Note_on_c, 0, 43, 0
2, 168453, Note_on_c, 0, 43, 114
2, 168462, Note_on_c, 0, 79, 110
2, 168518, Note_on_c, 0, 79, 0
2, 168557, Note_on_c, 0, 43, 0
2, 168669, Note_on_c, 0, 43, 107
2, 168682, Note_on_c, 0, 79, 106
2, 168698, Control_c, 0, 64, 63
2, 168702, Control_c, 0, 64, 0
2, 168763, Note_on_c, 0, 45, 96
2, 168766, Note_on_c, 0, 81, 103
2, 168801, Note_on_c, 0, 79, 0
2, 168805, Note_on_c, 0, 43, 0
2, 168861, Note_on_c, 0, 46, 96
2, 168869, Note_on_c, 0, 82, 103
2, 168883, Note_on_c, 0, 45, 0
2, 168893, Note_on_c, 0, 81, 0
2, 168945, Note_on_c, 0, 43, 91
2, 168956, Note_on_c, 0, 79, 88
2, 168968, Note_on_c, 0, 46, 0
2, 168987, Note_on_c, 0, 82, 0
2, 169048, Note_on_c, 0, 44, 108
2, 169051, Note_on_c, 0, 79, 0
2, 169053, Note_on_c, 0, 80, 103
2, 169087, Note_on_c, 0, 43, 0
2, 169100, Note_on_c, 0, 44, 0
2, 169104, Note_on_c, 0, 80, 0
2, 169263, Note_on_c, 0, 45, 106
2, 169263, Note_on_c, 0, 81, 114
2, 169319, Note_on_c, 0, 81, 0
2, 169324, Note_on_c, 0, 45, 0
2, 169510, Note_on_c, 0, 78, 108
2, 169511, Note_on_c, 0, 74, 103
2, 169513, Note_on_c, 0, 86, 103
2, 169514, Note_on_c, 0, 45, 114
2, 169517, Note_on_c, 0, 38, 112
2, 169518, Note_on_c, 0, 50, 115
2, 169530, Control_c, 0, 64, 127
2, 169553, Note_on_c, 0, 74, 0
2, 169553, Note_on_c, 0, 78, 0
2, 169560, Note_on_c, 0, 86, 0
2, 169592, Note_on_c, 0, 45, 0
2, 169599, Note_on_c, 0, 50, 0
2, 169604, Note_on_c, 0, 38, 0
2, 170028, Control_c, 0, 64, 63
2, 170034, Control_c, 0, 64, 0
2, 170034, End_track
0, 0, End_of_file
