0, 0, Header, 1, 2, 480
1, 0, Start_track
1, 0, Title_t, "Tschaikowsky  ""The Seasons"" No.6  Played (c) K.Oguri            "
1, 0, Copyright_t, "Adaptation for Disklavier pianos, by: Robert C. Kuhmann (c) 2012."
1, 0, System_exclusive, 10, 65, 16, 66, 18, 64, 0, 127, 0, 65, 247
1, 0, System_exclusive, 10, 65, 16, 66, 18, 64, 0, 4, 100, 88, 247
1, 0, Time_signature, 4, 2, 24, 8
1, 0, Key_signature, 0, "major"
1, 0, Tempo, 500000
1, 0, End_track
2, 0, Start_track
2, 0, Title_t, "Grand Piano "
2, 0, Program_c, 0, 0
2, 0, Control_c, 0, 7, 115
2, 340, System_exclusive, 10, 65, 16, 66, 18, 64, 1, 48, 3, 12, 247
2, 340, System_exclusive, 10, 65, 16, 66, 18, 64, 1, 51, 80, 60, 247
2, 340, System_exclusive, 10, 65, 16, 66, 18, 64, 1, 52, 60, 79, 247
2, 751, Control_c, 0, 0, 0
2, 752, Control_c, 0, 32, 1
2, 752, Program_c, 0, 0
2, 756, Control_c, 0, 7, 100
2, 948, Control_c, 0, 11, 100
2, 1140, Control_c, 0, 10, 64
2, 1332, Control_c, 0, 1, 0
2, 1332, Control_c, 0, 91, 80
2, 1354, Control_c, 0, 99, 1
2, 1355, Control_c, 0, 98, 32
2, 1356, Control_c, 0, 6, 62
2, 1357, Control_c, 0, 38, 0
2, 1366, Control_c, 0, 99, 1
2, 1367, Control_c, 0, 98, 33
2, 1368, Control_c, 0, 6, 54
2, 1369, Control_c, 0, 38, 0
2, 1378, Control_c, 0, 99, 1
2, 1379, Control_c, 0, 98, 99
2, 1380, Control_c, 0, 6, 62
2, 1381, Control_c, 0, 38, 0
2, 1390, Control_c, 0, 99, 1
2, 1391, Control_c, 0, 98, 100
2, 1392, Control_c, 0, 6, 60
2, 1393, Control_c, 0, 38, 0
2, 1402, Control_c, 0, 99, 1
2, 1403, Control_c, 0, 98, 102
2, 1404, Control_c, 0, 6, 70
2, 1405, Control_c, 0, 38, 0
2, 3298, Control_c, 0, 67, 127
2, 3426, Note_on_c, 0, 43, 41
2, 4048, Note_on_c, 0, 50, 52
2, 4208, Control_c, 0, 64, 63
2, 4230, Control_c, 0, 64, 127
2, 4746, Note_on_c, 0, 55, 16
2, 4747, Note_on_c, 0, 58, 23
2, 4753, Note_on_c, 0, 62, 42
2, 5436, Note_on_c, 0, 62, 0
2, 5481, Note_on_c, 0, 58, 0
2, 5511, Note_on_c, 0, 43, 0
2, 5797, Note_on_c, 0, 50, 0
2, 6031, Note_on_c, 0, 55, 0
2, 6099, Note_on_c, 0, 43, 30
2, 6745, Note_on_c, 0, 50, 42
2, 7407, Note_on_c, 0, 55, 23
2, 7428, Note_on_c, 0, 58, 37
2, 7446, Note_on_c, 0, 62, 42
2, 7679, Note_on_c, 0, 58, 0
2, 7723, Note_on_c, 0, 62, 0
2, 7796, Note_on_c, 0, 43, 0
2, 7887, Note_on_c, 0, 62, 72
2, 7961, Note_on_c, 0, 50, 0
2, 7994, Note_on_c, 0, 55, 0
2, 8251, Note_on_c, 0, 64, 84
2, 8282, Note_on_c, 0, 62, 0
2, 8539, Note_on_c, 0, 66, 100
2, 8584, Note_on_c, 0, 64, 0
2, 8817, Note_on_c, 0, 66, 0
2, 8832, Note_on_c, 0, 67, 83
2, 8835, Note_on_c, 0, 43, 68
2, 8843, Control_c, 0, 64, 63
2, 8852, Control_c, 0, 64, 0
2, 8980, Control_c, 0, 64, 63
2, 8993, Control_c, 0, 64, 127
2, 9047, Note_on_c, 0, 43, 0
2, 9117, Note_on_c, 0, 69, 84
2, 9160, Note_on_c, 0, 67, 0
2, 9371, Note_on_c, 0, 70, 98
2, 9375, Note_on_c, 0, 50, 70
2, 9412, Note_on_c, 0, 69, 0
2, 9622, Note_on_c, 0, 70, 0
2, 9622, Note_on_c, 0, 72, 97
2, 9887, Note_on_c, 0, 62, 59
2, 9889, Note_on_c, 0, 58, 51
2, 9889, Note_on_c, 0, 74, 96
2, 9908, Note_on_c, 0, 55, 47
2, 9936, Note_on_c, 0, 72, 0
2, 10000, Note_on_c, 0, 58, 0
2, 10011, Note_on_c, 0, 62, 0
2, 10012, Note_on_c, 0, 50, 0
2, 10081, Note_on_c, 0, 55, 0
2, 10175, Note_on_c, 0, 79, 90
2, 10246, Note_on_c, 0, 74, 0
2, 10491, Note_on_c, 0, 78, 94
2, 10494, Note_on_c, 0, 45, 75
2, 10562, Note_on_c, 0, 79, 0
2, 10605, Control_c, 0, 64, 63
2, 10615, Control_c, 0, 64, 0
2, 10686, Control_c, 0, 64, 63
2, 10720, Control_c, 0, 64, 127
2, 10799, Note_on_c, 0, 79, 94
2, 10896, Note_on_c, 0, 78, 0
2, 11171, Note_on_c, 0, 45, 0
2, 11184, Note_on_c, 0, 46, 75
2, 11188, Note_on_c, 0, 74, 74
2, 11216, Control_c, 0, 64, 63
2, 11222, Control_c, 0, 64, 0
2, 11223, Note_on_c, 0, 79, 0
2, 11372, Control_c, 0, 64, 63
2, 11382, Control_c, 0, 64, 127
2, 11502, Note_on_c, 0, 46, 0
2, 11812, Note_on_c, 0, 55, 68
2, 11824, Note_on_c, 0, 74, 0
2, 12333, Note_on_c, 0, 67, 51
2, 12345, Note_on_c, 0, 62, 54
2, 12410, Note_on_c, 0, 55, 0
2, 12463, Note_on_c, 0, 67, 0
2, 12522, Note_on_c, 0, 62, 0
2, 12655, Note_on_c, 0, 74, 84
2, 12845, Note_on_c, 0, 74, 0
2, 12993, Note_on_c, 0, 69, 66
2, 12997, Note_on_c, 0, 48, 49
2, 13024, Note_on_c, 0, 63, 57
2, 13027, Control_c, 0, 64, 63
2, 13027, Note_on_c, 0, 67, 51
2, 13038, Control_c, 0, 64, 0
2, 13097, Control_c, 0, 64, 63
2, 13125, Control_c, 0, 64, 127
2, 13296, Note_on_c, 0, 72, 83
2, 13311, Note_on_c, 0, 48, 0
2, 13315, Note_on_c, 0, 63, 0
2, 13362, Note_on_c, 0, 69, 0
2, 13377, Note_on_c, 0, 67, 0
2, 13544, Note_on_c, 0, 72, 0
2, 13582, Note_on_c, 0, 50, 71
2, 13589, Control_c, 0, 64, 63
2, 13598, Control_c, 0, 64, 0
2, 13611, Note_on_c, 0, 70, 80
2, 13620, Note_on_c, 0, 67, 55
2, 13621, Note_on_c, 0, 62, 36
2, 13660, Control_c, 0, 64, 63
2, 13676, Control_c, 0, 64, 127
2, 13745, Note_on_c, 0, 50, 0
2, 13867, Note_on_c, 0, 62, 0
2, 13974, Note_on_c, 0, 63, 73
2, 14194, Note_on_c, 0, 67, 0
2, 14256, Note_on_c, 0, 63, 0
2, 14271, Note_on_c, 0, 61, 63
2, 14276, Note_on_c, 0, 55, 38
2, 14281, Note_on_c, 0, 58, 46
2, 14322, Note_on_c, 0, 70, 0
2, 14521, Note_on_c, 0, 63, 69
2, 14535, Note_on_c, 0, 58, 0
2, 14608, Note_on_c, 0, 61, 0
2, 14706, Note_on_c, 0, 63, 0
2, 14755, Note_on_c, 0, 55, 0
2, 14837, Note_on_c, 0, 58, 48
2, 14856, Note_on_c, 0, 62, 46
2, 14873, Note_on_c, 0, 55, 33
2, 14927, Control_c, 0, 64, 63
2, 14996, Control_c, 0, 64, 127
2, 15211, Note_on_c, 0, 62, 0
2, 15212, Note_on_c, 0, 70, 79
2, 15220, Note_on_c, 0, 58, 0
2, 15235, Note_on_c, 0, 55, 0
2, 15475, Note_on_c, 0, 70, 0
2, 15521, Note_on_c, 0, 66, 80
2, 15535, Note_on_c, 0, 50, 49
2, 15543, Note_on_c, 0, 60, 59
2, 15606, Control_c, 0, 64, 63
2, 15668, Control_c, 0, 64, 127
2, 15775, Note_on_c, 0, 50, 0
2, 15810, Note_on_c, 0, 69, 70
2, 15867, Note_on_c, 0, 60, 0
2, 15985, Note_on_c, 0, 66, 0
2, 16107, Note_on_c, 0, 69, 0
2, 16108, Note_on_c, 0, 43, 57
2, 16142, Note_on_c, 0, 67, 63
2, 16145, Note_on_c, 0, 58, 48
2, 16242, Control_c, 0, 64, 63
2, 16261, Control_c, 0, 64, 0
2, 16493, Note_on_c, 0, 51, 55
2, 16643, Control_c, 0, 64, 63
2, 16651, Control_c, 0, 64, 127
2, 16769, Note_on_c, 0, 49, 70
2, 16792, Note_on_c, 0, 51, 0
2, 16982, Note_on_c, 0, 58, 0
2, 17039, Note_on_c, 0, 51, 57
2, 17071, Note_on_c, 0, 49, 0
2, 17155, Note_on_c, 0, 67, 0
2, 17362, Control_c, 0, 64, 63
2, 17395, Note_on_c, 0, 50, 57
2, 17451, Note_on_c, 0, 51, 0
2, 17476, Control_c, 0, 64, 0
2, 17801, Note_on_c, 0, 62, 63
2, 17958, Control_c, 0, 64, 63
2, 17962, Control_c, 0, 64, 127
2, 18181, Note_on_c, 0, 62, 0
2, 18191, Note_on_c, 0, 64, 69
2, 18205, Note_on_c, 0, 60, 54
2, 18259, Note_on_c, 0, 43, 0
2, 18261, Note_on_c, 0, 50, 0
2, 18516, Note_on_c, 0, 66, 96
2, 18530, Note_on_c, 0, 60, 0
2, 18583, Note_on_c, 0, 64, 0
2, 18628, Note_on_c, 0, 66, 0
2, 18900, Note_on_c, 0, 67, 74
2, 18900, Note_on_c, 0, 43, 61
2, 18910, Note_on_c, 0, 58, 45
2, 18966, Control_c, 0, 64, 63
2, 18980, Control_c, 0, 64, 0
2, 19039, Control_c, 0, 64, 63
2, 19067, Control_c, 0, 64, 127
2, 19194, Note_on_c, 0, 43, 0
2, 19235, Note_on_c, 0, 58, 0
2, 19304, Note_on_c, 0, 69, 67
2, 19363, Note_on_c, 0, 67, 0
2, 19585, Note_on_c, 0, 50, 62
2, 19602, Note_on_c, 0, 70, 83
2, 19639, Note_on_c, 0, 69, 0
2, 19761, Note_on_c, 0, 70, 0
2, 19854, Note_on_c, 0, 72, 90
2, 20095, Note_on_c, 0, 72, 0
2, 20119, Note_on_c, 0, 74, 94
2, 20120, Note_on_c, 0, 62, 71
2, 20130, Note_on_c, 0, 58, 58
2, 20153, Note_on_c, 0, 55, 54
2, 20213, Note_on_c, 0, 62, 0
2, 20214, Note_on_c, 0, 58, 0
2, 20214, Note_on_c, 0, 50, 0
2, 20267, Note_on_c, 0, 55, 0
2, 20386, Note_on_c, 0, 79, 91
2, 20417, Note_on_c, 0, 74, 0
2, 20470, Note_on_c, 0, 79, 0
2, 20669, Note_on_c, 0, 45, 67
2, 20679, Note_on_c, 0, 77, 82
2, 20689, Note_on_c, 0, 65, 44
2, 20692, Note_on_c, 0, 75, 75
2, 20699, Note_on_c, 0, 72, 68
2, 20703, Control_c, 0, 64, 63
2, 20770, Control_c, 0, 64, 127
2, 20861, Note_on_c, 0, 77, 0
2, 20904, Note_on_c, 0, 65, 0
2, 20952, Note_on_c, 0, 45, 0
2, 20955, Note_on_c, 0, 79, 89
2, 20992, Note_on_c, 0, 72, 0
2, 21006, Note_on_c, 0, 75, 0
2, 21060, Note_on_c, 0, 79, 0
2, 21314, Note_on_c, 0, 46, 69
2, 21342, Note_on_c, 0, 74, 81
2, 21361, Note_on_c, 0, 70, 67
2, 21370, Note_on_c, 0, 65, 49
2, 21385, Control_c, 0, 64, 63
2, 21391, Control_c, 0, 64, 0
2, 21532, Control_c, 0, 64, 63
2, 21543, Control_c, 0, 64, 127
2, 21640, Note_on_c, 0, 46, 0
2, 21710, Note_on_c, 0, 65, 0
2, 21932, Note_on_c, 0, 53, 85
2, 21999, Note_on_c, 0, 70, 0
2, 22047, Note_on_c, 0, 74, 0
2, 22479, Note_on_c, 0, 65, 86
2, 22487, Note_on_c, 0, 62, 74
2, 22491, Note_on_c, 0, 58, 65
2, 22607, Note_on_c, 0, 65, 0
2, 22647, Note_on_c, 0, 62, 0
2, 22682, Note_on_c, 0, 58, 0
2, 22701, Note_on_c, 0, 53, 0
2, 22769, Note_on_c, 0, 77, 96
2, 22858, Note_on_c, 0, 77, 0
2, 23088, Note_on_c, 0, 43, 72
2, 23109, Note_on_c, 0, 63, 72
2, 23110, Note_on_c, 0, 75, 96
2, 23117, Note_on_c, 0, 74, 64
2, 23144, Control_c, 0, 64, 63
2, 23153, Note_on_c, 0, 70, 52
2, 23162, Control_c, 0, 64, 127
2, 23212, Note_on_c, 0, 70, 0
2, 23264, Note_on_c, 0, 63, 0
2, 23293, Note_on_c, 0, 75, 0
2, 23332, Note_on_c, 0, 74, 0
2, 23376, Note_on_c, 0, 77, 98
2, 23389, Note_on_c, 0, 43, 0
2, 23455, Note_on_c, 0, 77, 0
2, 23709, Note_on_c, 0, 45, 78
2, 23752, Note_on_c, 0, 72, 88
2, 23770, Note_on_c, 0, 63, 54
2, 23780, Control_c, 0, 64, 63
2, 23783, Note_on_c, 0, 69, 62
2, 23789, Control_c, 0, 64, 0
2, 23904, Control_c, 0, 64, 63
2, 23915, Control_c, 0, 64, 127
2, 23978, Note_on_c, 0, 45, 0
2, 24040, Note_on_c, 0, 63, 0
2, 24185, Note_on_c, 0, 69, 0
2, 24264, Note_on_c, 0, 57, 82
2, 24311, Note_on_c, 0, 72, 0
2, 24612, Note_on_c, 0, 57, 0
2, 24826, Note_on_c, 0, 67, 82
2, 24829, Note_on_c, 0, 63, 76
2, 24853, Note_on_c, 0, 60, 61
2, 24931, Note_on_c, 0, 67, 0
2, 24959, Note_on_c, 0, 63, 0
2, 24961, Note_on_c, 0, 60, 0
2, 25143, Note_on_c, 0, 75, 98
2, 25308, Note_on_c, 0, 75, 0
2, 25456, Note_on_c, 0, 42, 76
2, 25458, Note_on_c, 0, 74, 86
2, 25470, Note_on_c, 0, 72, 77
2, 25478, Note_on_c, 0, 69, 59
2, 25480, Control_c, 0, 64, 63
2, 25493, Control_c, 0, 64, 0
2, 25501, Note_on_c, 0, 62, 19
2, 25536, Control_c, 0, 64, 63
2, 25565, Control_c, 0, 64, 127
2, 25619, Note_on_c, 0, 74, 0
2, 25653, Note_on_c, 0, 62, 0
2, 25727, Note_on_c, 0, 42, 0
2, 25739, Note_on_c, 0, 69, 0
2, 25743, Note_on_c, 0, 75, 95
2, 25792, Note_on_c, 0, 72, 0
2, 25846, Note_on_c, 0, 75, 0
2, 26025, Note_on_c, 0, 43, 71
2, 26029, Note_on_c, 0, 70, 87
2, 26053, Note_on_c, 0, 67, 67
2, 26054, Note_on_c, 0, 62, 63
2, 26064, Control_c, 0, 64, 63
2, 26072, Control_c, 0, 64, 0
2, 26159, Control_c, 0, 64, 63
2, 26176, Control_c, 0, 64, 127
2, 26230, Note_on_c, 0, 43, 0
2, 26337, Note_on_c, 0, 62, 0
2, 26563, Note_on_c, 0, 67, 0
2, 26564, Note_on_c, 0, 50, 84
2, 26698, Note_on_c, 0, 70, 0
2, 27028, Note_on_c, 0, 50, 0
2, 27188, Note_on_c, 0, 62, 50
2, 27189, Note_on_c, 0, 58, 51
2, 27199, Note_on_c, 0, 55, 51
2, 27462, Note_on_c, 0, 62, 0
2, 27496, Note_on_c, 0, 58, 0
2, 27514, Note_on_c, 0, 55, 0
2, 27577, Note_on_c, 0, 74, 73
2, 27866, Note_on_c, 0, 74, 0
2, 27933, Note_on_c, 0, 72, 71
2, 27955, Note_on_c, 0, 48, 59
2, 27957, Note_on_c, 0, 63, 43
2, 27961, Note_on_c, 0, 69, 49
2, 28020, Control_c, 0, 64, 63
2, 28098, Control_c, 0, 64, 127
2, 28242, Note_on_c, 0, 74, 81
2, 28265, Note_on_c, 0, 69, 0
2, 28285, Note_on_c, 0, 63, 0
2, 28328, Note_on_c, 0, 72, 0
2, 28334, Note_on_c, 0, 48, 0
2, 28360, Note_on_c, 0, 74, 0
2, 28516, Note_on_c, 0, 50, 71
2, 28530, Note_on_c, 0, 72, 88
2, 28555, Note_on_c, 0, 62, 49
2, 28558, Note_on_c, 0, 67, 62
2, 28605, Control_c, 0, 64, 63
2, 28692, Control_c, 0, 64, 127
2, 28817, Note_on_c, 0, 70, 95
2, 28822, Note_on_c, 0, 72, 0
2, 28858, Note_on_c, 0, 62, 0
2, 28931, Note_on_c, 0, 67, 0
2, 29056, Note_on_c, 0, 70, 0
2, 29103, Note_on_c, 0, 58, 67
2, 29104, Note_on_c, 0, 62, 79
2, 29116, Note_on_c, 0, 69, 88
2, 29244, Control_c, 0, 64, 63
2, 29359, Control_c, 0, 64, 127
2, 29395, Note_on_c, 0, 67, 98
2, 29459, Note_on_c, 0, 69, 0
2, 29628, Note_on_c, 0, 62, 0
2, 29810, Note_on_c, 0, 70, 91
2, 29833, Note_on_c, 0, 61, 66
2, 29840, Note_on_c, 0, 64, 56
2, 29872, Note_on_c, 0, 67, 0
2, 29919, Note_on_c, 0, 58, 0
2, 29973, Control_c, 0, 64, 63
2, 29993, Control_c, 0, 64, 0
2, 30123, Control_c, 0, 64, 63
2, 30142, Control_c, 0, 64, 127
2, 30484, Note_on_c, 0, 61, 0
2, 30527, Note_on_c, 0, 66, 60
2, 30533, Note_on_c, 0, 63, 52
2, 30549, Note_on_c, 0, 60, 45
2, 30610, Control_c, 0, 64, 63
2, 30629, Note_on_c, 0, 64, 0
2, 30645, Control_c, 0, 64, 0
2, 30674, Control_c, 0, 64, 63
2, 30720, Control_c, 0, 64, 127
2, 30721, Note_on_c, 0, 60, 0
2, 30802, Note_on_c, 0, 70, 0
2, 30819, Note_on_c, 0, 50, 0
2, 30866, Note_on_c, 0, 69, 63
2, 31124, Note_on_c, 0, 66, 0
2, 31155, Note_on_c, 0, 63, 0
2, 31281, Note_on_c, 0, 55, 30
2, 31294, Note_on_c, 0, 62, 41
2, 31311, Note_on_c, 0, 67, 59
2, 31379, Note_on_c, 0, 69, 0
2, 31446, Control_c, 0, 64, 63
2, 31470, Control_c, 0, 64, 0
2, 31567, Control_c, 0, 64, 63
2, 31595, Control_c, 0, 64, 127
2, 31753, Note_on_c, 0, 58, 53
2, 31939, Note_on_c, 0, 58, 0
2, 31940, Note_on_c, 0, 55, 0
2, 32099, Note_on_c, 0, 55, 56
2, 32429, Note_on_c, 0, 50, 51
2, 32483, Note_on_c, 0, 55, 0
2, 32799, Control_c, 0, 64, 63
2, 32819, Note_on_c, 0, 62, 0
2, 32821, Note_on_c, 0, 43, 56
2, 32910, Note_on_c, 0, 50, 0
2, 32935, Control_c, 0, 64, 127
2, 33022, Note_on_c, 0, 67, 0
2, 33303, Note_on_c, 0, 67, 61
2, 33342, Note_on_c, 0, 43, 0
2, 33568, Control_c, 0, 67, 0
2, 33745, Note_on_c, 0, 69, 65
2, 33895, Note_on_c, 0, 67, 0
2, 34107, Note_on_c, 0, 70, 72
2, 34173, Note_on_c, 0, 69, 0
2, 34447, Note_on_c, 0, 51, 60
2, 34452, Note_on_c, 0, 72, 68
2, 34490, Note_on_c, 0, 70, 0
2, 34538, Control_c, 0, 64, 63
2, 34605, Control_c, 0, 64, 127
2, 34737, Note_on_c, 0, 51, 0
2, 34763, Note_on_c, 0, 74, 79
2, 34838, Note_on_c, 0, 72, 0
2, 35037, Note_on_c, 0, 75, 80
2, 35054, Note_on_c, 0, 65, 75
2, 35097, Note_on_c, 0, 74, 0
2, 35309, Note_on_c, 0, 77, 91
2, 35329, Note_on_c, 0, 75, 0
2, 35575, Note_on_c, 0, 79, 92
2, 35599, Note_on_c, 0, 60, 69
2, 35601, Note_on_c, 0, 53, 44
2, 35606, Note_on_c, 0, 57, 57
2, 35607, Note_on_c, 0, 65, 0
2, 35638, Note_on_c, 0, 77, 0
2, 35856, Note_on_c, 0, 81, 101
2, 35933, Note_on_c, 0, 79, 0
2, 36113, Note_on_c, 0, 53, 0
2, 36137, Note_on_c, 0, 82, 100
2, 36158, Note_on_c, 0, 60, 0
2, 36199, Note_on_c, 0, 57, 0
2, 36230, Note_on_c, 0, 81, 0
2, 36426, Note_on_c, 0, 84, 100
2, 36500, Note_on_c, 0, 82, 0
2, 36841, Note_on_c, 0, 50, 79
2, 36870, Note_on_c, 0, 77, 87
2, 36893, Note_on_c, 0, 84, 0
2, 36952, Control_c, 0, 64, 63
2, 36963, Control_c, 0, 64, 0
2, 37097, Control_c, 0, 64, 63
2, 37105, Control_c, 0, 64, 127
2, 37226, Note_on_c, 0, 50, 0
2, 37478, Note_on_c, 0, 65, 72
2, 37856, Note_on_c, 0, 77, 0
2, 37946, Note_on_c, 0, 65, 0
2, 38043, Note_on_c, 0, 58, 65
2, 38045, Note_on_c, 0, 62, 71
2, 38053, Note_on_c, 0, 53, 58
2, 38340, Note_on_c, 0, 77, 88
2, 38667, Note_on_c, 0, 79, 84
2, 38678, Note_on_c, 0, 62, 0
2, 38715, Note_on_c, 0, 77, 0
2, 38828, Note_on_c, 0, 53, 0
2, 38838, Note_on_c, 0, 58, 0
2, 38992, Note_on_c, 0, 82, 83
2, 39133, Note_on_c, 0, 79, 0
2, 39407, Note_on_c, 0, 48, 62
2, 39423, Note_on_c, 0, 75, 77
2, 39455, Note_on_c, 0, 82, 0
2, 39469, Control_c, 0, 64, 63
2, 39482, Control_c, 0, 64, 0
2, 39608, Control_c, 0, 64, 63
2, 39618, Control_c, 0, 64, 127
2, 39739, Note_on_c, 0, 48, 0
2, 39987, Note_on_c, 0, 65, 70
2, 40129, Note_on_c, 0, 65, 0
2, 40418, Note_on_c, 0, 75, 0
2, 40574, Note_on_c, 0, 63, 64
2, 40584, Note_on_c, 0, 53, 47
2, 40592, Note_on_c, 0, 57, 57
2, 40891, Note_on_c, 0, 75, 93
2, 41092, Note_on_c, 0, 63, 0
2, 41145, Note_on_c, 0, 77, 91
2, 41151, Note_on_c, 0, 53, 0
2, 41194, Note_on_c, 0, 57, 0
2, 41233, Note_on_c, 0, 75, 0
2, 41388, Note_on_c, 0, 81, 91
2, 41533, Note_on_c, 0, 77, 0
2, 41681, Note_on_c, 0, 46, 74
2, 41738, Note_on_c, 0, 74, 81
2, 41759, Control_c, 0, 64, 63
2, 41767, Control_c, 0, 64, 0
2, 41769, Note_on_c, 0, 81, 0
2, 41887, Control_c, 0, 64, 63
2, 41902, Control_c, 0, 64, 127
2, 42017, Note_on_c, 0, 46, 0
2, 42285, Note_on_c, 0, 65, 59
2, 42507, Note_on_c, 0, 74, 0
2, 42580, Note_on_c, 0, 65, 0
2, 42890, Note_on_c, 0, 58, 46
2, 42903, Note_on_c, 0, 62, 34
2, 42911, Note_on_c, 0, 53, 41
2, 43280, Note_on_c, 0, 67, 63
2, 43378, Note_on_c, 0, 53, 0
2, 43540, Note_on_c, 0, 62, 0
2, 43574, Note_on_c, 0, 69, 68
2, 43581, Note_on_c, 0, 58, 0
2, 43616, Note_on_c, 0, 67, 0
2, 43804, Note_on_c, 0, 70, 92
2, 43850, Note_on_c, 0, 69, 0
2, 44052, Note_on_c, 0, 51, 84
2, 44072, Note_on_c, 0, 72, 84
2, 44076, Note_on_c, 0, 70, 0
2, 44122, Control_c, 0, 64, 63
2, 44134, Control_c, 0, 64, 0
2, 44253, Control_c, 0, 64, 63
2, 44268, Control_c, 0, 64, 127
2, 44329, Note_on_c, 0, 74, 90
2, 44333, Note_on_c, 0, 51, 0
2, 44397, Note_on_c, 0, 72, 0
2, 44566, Note_on_c, 0, 75, 100
2, 44583, Note_on_c, 0, 65, 82
2, 44618, Note_on_c, 0, 74, 0
2, 44827, Note_on_c, 0, 77, 97
2, 44844, Note_on_c, 0, 75, 0
2, 45086, Note_on_c, 0, 79, 97
2, 45087, Note_on_c, 0, 65, 0
2, 45095, Note_on_c, 0, 53, 57
2, 45100, Note_on_c, 0, 60, 78
2, 45108, Note_on_c, 0, 57, 65
2, 45159, Note_on_c, 0, 77, 0
2, 45351, Note_on_c, 0, 81, 102
2, 45428, Note_on_c, 0, 79, 0
2, 45579, Note_on_c, 0, 53, 0
2, 45603, Note_on_c, 0, 60, 0
2, 45622, Note_on_c, 0, 82, 105
2, 45664, Note_on_c, 0, 57, 0
2, 45710, Note_on_c, 0, 81, 0
2, 45887, Note_on_c, 0, 84, 100
2, 45940, Note_on_c, 0, 82, 0
2, 46191, Note_on_c, 0, 84, 0
2, 46258, Note_on_c, 0, 50, 83
2, 46276, Note_on_c, 0, 74, 93
2, 46336, Control_c, 0, 64, 63
2, 46346, Control_c, 0, 64, 0
2, 46460, Control_c, 0, 64, 63
2, 46470, Control_c, 0, 64, 127
2, 46561, Note_on_c, 0, 50, 0
2, 46878, Note_on_c, 0, 66, 88
2, 46932, Note_on_c, 0, 74, 0
2, 47172, Note_on_c, 0, 66, 0
2, 47418, Note_on_c, 0, 62, 70
2, 47419, Note_on_c, 0, 54, 58
2, 47441, Note_on_c, 0, 57, 53
2, 47720, Note_on_c, 0, 74, 64
2, 47837, Note_on_c, 0, 62, 0
2, 48000, Note_on_c, 0, 57, 0
2, 48033, Note_on_c, 0, 76, 76
2, 48072, Note_on_c, 0, 54, 0
2, 48165, Note_on_c, 0, 74, 0
2, 48333, Note_on_c, 0, 78, 82
2, 48438, Note_on_c, 0, 76, 0
2, 48733, Note_on_c, 0, 79, 80
2, 48734, Note_on_c, 0, 50, 34
2, 48792, Note_on_c, 0, 78, 0
2, 48888, Control_c, 0, 64, 63
2, 48918, Control_c, 0, 64, 0
2, 49046, Control_c, 0, 64, 63
2, 49065, Control_c, 0, 64, 127
2, 49251, Note_on_c, 0, 50, 0
2, 49371, Note_on_c, 0, 62, 55
2, 49451, Note_on_c, 0, 79, 0
2, 49575, Note_on_c, 0, 62, 0
2, 49894, Note_on_c, 0, 58, 43
2, 49905, Note_on_c, 0, 55, 42
2, 50193, Note_on_c, 0, 74, 56
2, 50496, Note_on_c, 0, 72, 72
2, 50536, Note_on_c, 0, 58, 0
2, 50542, Note_on_c, 0, 55, 0
2, 50557, Note_on_c, 0, 74, 0
2, 50762, Note_on_c, 0, 70, 85
2, 50811, Note_on_c, 0, 72, 0
2, 51025, Note_on_c, 0, 50, 51
2, 51100, Note_on_c, 0, 78, 70
2, 51115, Note_on_c, 0, 70, 0
2, 51126, Control_c, 0, 64, 63
2, 51149, Control_c, 0, 64, 0
2, 51313, Control_c, 0, 64, 63
2, 51326, Control_c, 0, 64, 127
2, 51470, Note_on_c, 0, 50, 0
2, 51687, Note_on_c, 0, 78, 0
2, 51707, Note_on_c, 0, 62, 50
2, 51934, Note_on_c, 0, 62, 0
2, 52301, Note_on_c, 0, 57, 22
2, 52302, Note_on_c, 0, 60, 36
2, 52678, Note_on_c, 0, 72, 63
2, 53022, Note_on_c, 0, 70, 81
2, 53068, Note_on_c, 0, 72, 0
2, 53073, Note_on_c, 0, 60, 0
2, 53156, Note_on_c, 0, 57, 0
2, 53300, Note_on_c, 0, 69, 73
2, 53322, Note_on_c, 0, 70, 0
2, 53550, Note_on_c, 0, 50, 52
2, 53605, Control_c, 0, 64, 63
2, 53623, Note_on_c, 0, 79, 72
2, 53635, Control_c, 0, 64, 0
2, 53660, Note_on_c, 0, 69, 0
2, 53692, Control_c, 0, 64, 63
2, 53726, Control_c, 0, 64, 127
2, 53952, Note_on_c, 0, 74, 75
2, 53955, Note_on_c, 0, 79, 0
2, 53967, Note_on_c, 0, 50, 0
2, 54166, Note_on_c, 0, 74, 0
2, 54182, Note_on_c, 0, 75, 69
2, 54273, Note_on_c, 0, 74, 62
2, 54291, Note_on_c, 0, 75, 0
2, 54338, Note_on_c, 0, 62, 27
2, 54368, Note_on_c, 0, 73, 84
2, 54405, Note_on_c, 0, 74, 0
2, 54638, Note_on_c, 0, 74, 84
2, 54681, Note_on_c, 0, 73, 0
2, 54895, Note_on_c, 0, 75, 80
2, 54911, Note_on_c, 0, 58, 44
2, 54931, Note_on_c, 0, 62, 0
2, 54936, Note_on_c, 0, 55, 40
2, 55003, Note_on_c, 0, 74, 0
2, 55039, Control_c, 0, 64, 63
2, 55061, Control_c, 0, 64, 0
2, 55182, Note_on_c, 0, 74, 80
2, 55186, Control_c, 0, 64, 63
2, 55207, Control_c, 0, 64, 127
2, 55236, Note_on_c, 0, 75, 0
2, 55458, Note_on_c, 0, 70, 80
2, 55528, Note_on_c, 0, 74, 0
2, 55751, Note_on_c, 0, 67, 64
2, 55820, Note_on_c, 0, 58, 0
2, 55862, Note_on_c, 0, 55, 0
2, 56072, Note_on_c, 0, 70, 0
2, 56105, Note_on_c, 0, 50, 48
2, 56124, Control_c, 0, 64, 63
2, 56130, Note_on_c, 0, 57, 35
2, 56137, Control_c, 0, 64, 0
2, 56150, Note_on_c, 0, 74, 67
2, 56253, Control_c, 0, 64, 63
2, 56268, Control_c, 0, 64, 127
2, 56393, Note_on_c, 0, 50, 0
2, 56415, Note_on_c, 0, 67, 0
2, 56439, Note_on_c, 0, 57, 0
2, 56598, Note_on_c, 0, 74, 0
2, 56612, Note_on_c, 0, 67, 61
2, 56941, Note_on_c, 0, 67, 0
2, 56964, Note_on_c, 0, 66, 76
2, 56991, Note_on_c, 0, 74, 81
2, 57326, Note_on_c, 0, 63, 83
2, 57348, Note_on_c, 0, 66, 0
2, 57599, Note_on_c, 0, 74, 0
2, 57654, Note_on_c, 0, 62, 50
2, 57655, Note_on_c, 0, 63, 0
2, 57820, Note_on_c, 0, 62, 0
2, 58027, Note_on_c, 0, 62, 63
2, 58038, Note_on_c, 0, 60, 50
2, 58388, Note_on_c, 0, 60, 0
2, 58452, Note_on_c, 0, 58, 46
2, 58458, Note_on_c, 0, 64, 52
2, 58477, Note_on_c, 0, 62, 0
2, 58574, Control_c, 0, 64, 63
2, 58601, Control_c, 0, 64, 127
2, 58906, Note_on_c, 0, 66, 59
2, 58924, Note_on_c, 0, 64, 0
2, 58949, Note_on_c, 0, 57, 27
2, 58978, Note_on_c, 0, 58, 0
2, 59161, Control_c, 0, 67, 127
2, 59350, Note_on_c, 0, 57, 0
2, 59472, Note_on_c, 0, 66, 0
2, 59489, Note_on_c, 0, 67, 55
2, 59528, Note_on_c, 0, 55, 36
2, 59532, Note_on_c, 0, 43, 38
2, 59688, Control_c, 0, 64, 63
2, 59716, Control_c, 0, 64, 0
2, 59763, Control_c, 0, 64, 63
2, 59803, Control_c, 0, 64, 127
2, 59888, Note_on_c, 0, 43, 0
2, 59917, Note_on_c, 0, 69, 55
2, 59991, Note_on_c, 0, 67, 0
2, 60239, Note_on_c, 0, 70, 76
2, 60251, Note_on_c, 0, 55, 0
2, 60254, Note_on_c, 0, 69, 0
2, 60261, Note_on_c, 0, 50, 51
2, 60510, Note_on_c, 0, 70, 0
2, 60513, Note_on_c, 0, 72, 84
2, 60565, Note_on_c, 0, 50, 0
2, 60787, Note_on_c, 0, 62, 70
2, 60788, Note_on_c, 0, 58, 61
2, 60792, Note_on_c, 0, 74, 88
2, 60797, Note_on_c, 0, 55, 47
2, 60856, Note_on_c, 0, 72, 0
2, 60983, Note_on_c, 0, 62, 0
2, 60993, Note_on_c, 0, 58, 0
2, 61037, Note_on_c, 0, 55, 0
2, 61063, Note_on_c, 0, 79, 89
2, 61155, Note_on_c, 0, 74, 0
2, 61317, Note_on_c, 0, 45, 85
2, 61337, Note_on_c, 0, 78, 95
2, 61413, Control_c, 0, 64, 63
2, 61417, Note_on_c, 0, 79, 0
2, 61438, Control_c, 0, 64, 0
2, 61561, Control_c, 0, 64, 63
2, 61581, Control_c, 0, 64, 127
2, 61584, Note_on_c, 0, 79, 97
2, 61677, Note_on_c, 0, 78, 0
2, 61853, Control_c, 0, 64, 63
2, 61869, Note_on_c, 0, 46, 86
2, 61871, Control_c, 0, 64, 0
2, 61897, Note_on_c, 0, 74, 84
2, 61930, Note_on_c, 0, 79, 0
2, 61941, Note_on_c, 0, 45, 0
2, 62074, Control_c, 0, 64, 63
2, 62087, Control_c, 0, 64, 127
2, 62198, Note_on_c, 0, 46, 0
2, 62491, Note_on_c, 0, 74, 0
2, 62499, Note_on_c, 0, 55, 67
2, 62916, Note_on_c, 0, 55, 0
2, 62999, Note_on_c, 0, 67, 60
2, 63022, Note_on_c, 0, 62, 55
2, 63177, Note_on_c, 0, 67, 0
2, 63242, Note_on_c, 0, 62, 0
2, 63291, Note_on_c, 0, 74, 80
2, 63481, Note_on_c, 0, 74, 0
2, 63629, Note_on_c, 0, 48, 49
2, 63641, Note_on_c, 0, 69, 54
2, 63657, Note_on_c, 0, 63, 52
2, 63664, Control_c, 0, 64, 63
2, 63665, Note_on_c, 0, 67, 52
2, 63678, Control_c, 0, 64, 0
2, 63804, Control_c, 0, 64, 63
2, 63823, Control_c, 0, 64, 127
2, 63914, Note_on_c, 0, 72, 77
2, 64000, Note_on_c, 0, 69, 0
2, 64018, Note_on_c, 0, 67, 0
2, 64049, Note_on_c, 0, 63, 0
2, 64076, Note_on_c, 0, 48, 0
2, 64155, Note_on_c, 0, 72, 0
2, 64227, Note_on_c, 0, 50, 59
2, 64246, Control_c, 0, 64, 63
2, 64247, Note_on_c, 0, 70, 76
2, 64259, Note_on_c, 0, 67, 52
2, 64261, Control_c, 0, 64, 0
2, 64265, Note_on_c, 0, 62, 41
2, 64324, Control_c, 0, 64, 63
2, 64344, Control_c, 0, 64, 127
2, 64416, Note_on_c, 0, 50, 0
2, 64541, Note_on_c, 0, 62, 0
2, 64646, Note_on_c, 0, 63, 78
2, 64878, Note_on_c, 0, 67, 0
2, 64915, Note_on_c, 0, 63, 0
2, 64954, Note_on_c, 0, 61, 79
2, 64963, Note_on_c, 0, 55, 50
2, 64966, Note_on_c, 0, 58, 60
2, 65006, Note_on_c, 0, 70, 0
2, 65199, Note_on_c, 0, 58, 0
2, 65207, Note_on_c, 0, 63, 76
2, 65228, Note_on_c, 0, 61, 0
2, 65243, Note_on_c, 0, 55, 0
2, 65392, Note_on_c, 0, 63, 0
2, 65509, Note_on_c, 0, 58, 52
2, 65515, Note_on_c, 0, 62, 60
2, 65562, Note_on_c, 0, 55, 32
2, 65579, Control_c, 0, 64, 63
2, 65587, Control_c, 0, 64, 0
2, 65670, Control_c, 0, 64, 63
2, 65698, Control_c, 0, 64, 127
2, 65800, Note_on_c, 0, 58, 0
2, 65816, Note_on_c, 0, 55, 0
2, 65860, Note_on_c, 0, 70, 75
2, 65878, Note_on_c, 0, 62, 0
2, 66158, Note_on_c, 0, 66, 83
2, 66169, Note_on_c, 0, 50, 51
2, 66180, Note_on_c, 0, 70, 0
2, 66187, Note_on_c, 0, 60, 57
2, 66416, Note_on_c, 0, 50, 0
2, 66441, Note_on_c, 0, 69, 70
2, 66474, Note_on_c, 0, 60, 0
2, 66598, Note_on_c, 0, 66, 0
2, 66691, Note_on_c, 0, 69, 0
2, 66768, Note_on_c, 0, 43, 58
2, 66797, Note_on_c, 0, 67, 67
2, 66802, Note_on_c, 0, 58, 58
2, 66962, Control_c, 0, 64, 63
2, 66991, Control_c, 0, 64, 0
2, 67196, Note_on_c, 0, 51, 61
2, 67284, Control_c, 0, 64, 63
2, 67299, Control_c, 0, 64, 127
2, 67488, Note_on_c, 0, 49, 69
2, 67504, Note_on_c, 0, 51, 0
2, 67766, Note_on_c, 0, 51, 65
2, 67799, Note_on_c, 0, 49, 0
2, 68096, Note_on_c, 0, 67, 0
2, 68100, Note_on_c, 0, 58, 0
2, 68153, Note_on_c, 0, 50, 50
2, 68157, Note_on_c, 0, 51, 0
2, 68240, Control_c, 0, 64, 63
2, 68274, Control_c, 0, 64, 0
2, 68587, Note_on_c, 0, 62, 64
2, 68751, Control_c, 0, 64, 63
2, 68755, Control_c, 0, 64, 127
2, 68923, Note_on_c, 0, 62, 0
2, 68934, Note_on_c, 0, 64, 71
2, 68954, Note_on_c, 0, 60, 54
2, 69084, Note_on_c, 0, 43, 0
2, 69121, Note_on_c, 0, 60, 0
2, 69208, Note_on_c, 0, 66, 92
2, 69228, Note_on_c, 0, 50, 0
2, 69281, Note_on_c, 0, 64, 0
2, 69312, Note_on_c, 0, 66, 0
2, 69517, Note_on_c, 0, 43, 65
2, 69541, Note_on_c, 0, 58, 65
2, 69542, Note_on_c, 0, 67, 76
2, 69570, Control_c, 0, 64, 63
2, 69582, Control_c, 0, 64, 0
2, 69634, Control_c, 0, 64, 63
2, 69664, Control_c, 0, 64, 127
2, 69761, Note_on_c, 0, 43, 0
2, 69835, Note_on_c, 0, 58, 0
2, 69903, Note_on_c, 0, 69, 69
2, 69968, Note_on_c, 0, 67, 0
2, 70175, Note_on_c, 0, 50, 57
2, 70204, Note_on_c, 0, 70, 83
2, 70250, Note_on_c, 0, 69, 0
2, 70370, Note_on_c, 0, 70, 0
2, 70467, Note_on_c, 0, 72, 92
2, 70626, Note_on_c, 0, 50, 0
2, 70731, Note_on_c, 0, 74, 94
2, 70733, Note_on_c, 0, 62, 70
2, 70736, Note_on_c, 0, 58, 63
2, 70749, Note_on_c, 0, 72, 0
2, 70760, Note_on_c, 0, 55, 48
2, 70796, Control_c, 0, 64, 63
2, 70813, Control_c, 0, 64, 0
2, 70829, Control_c, 0, 64, 63
2, 70871, Control_c, 0, 64, 127
2, 70947, Note_on_c, 0, 62, 0
2, 70986, Note_on_c, 0, 58, 0
2, 71007, Note_on_c, 0, 79, 88
2, 71014, Note_on_c, 0, 55, 0
2, 71050, Note_on_c, 0, 74, 0
2, 71092, Note_on_c, 0, 79, 0
2, 71344, Note_on_c, 0, 77, 76
2, 71352, Note_on_c, 0, 45, 51
2, 71361, Note_on_c, 0, 65, 47
2, 71377, Note_on_c, 0, 72, 61
2, 71378, Note_on_c, 0, 75, 65
2, 71396, Control_c, 0, 64, 63
2, 71428, Control_c, 0, 64, 127
2, 71546, Note_on_c, 0, 77, 0
2, 71591, Note_on_c, 0, 65, 0
2, 71666, Note_on_c, 0, 79, 82
2, 71679, Note_on_c, 0, 45, 0
2, 71706, Note_on_c, 0, 72, 0
2, 71716, Note_on_c, 0, 75, 0
2, 71772, Note_on_c, 0, 79, 0
2, 72067, Note_on_c, 0, 46, 63
2, 72081, Note_on_c, 0, 74, 68
2, 72095, Note_on_c, 0, 70, 60
2, 72105, Note_on_c, 0, 65, 39
2, 72168, Control_c, 0, 64, 63
2, 72179, Control_c, 0, 64, 0
2, 72275, Control_c, 0, 64, 63
2, 72292, Control_c, 0, 64, 127
2, 72418, Note_on_c, 0, 46, 0
2, 72477, Note_on_c, 0, 65, 0
2, 72700, Note_on_c, 0, 70, 0
2, 72721, Note_on_c, 0, 53, 76
2, 72748, Note_on_c, 0, 74, 0
2, 73063, Note_on_c, 0, 53, 0
2, 73243, Note_on_c, 0, 65, 80
2, 73258, Note_on_c, 0, 62, 69
2, 73259, Note_on_c, 0, 58, 57
2, 73349, Note_on_c, 0, 65, 0
2, 73365, Note_on_c, 0, 62, 0
2, 73404, Note_on_c, 0, 58, 0
2, 73512, Note_on_c, 0, 77, 90
2, 73603, Note_on_c, 0, 77, 0
2, 73831, Note_on_c, 0, 43, 60
2, 73846, Note_on_c, 0, 75, 97
2, 73856, Note_on_c, 0, 74, 65
2, 73860, Note_on_c, 0, 63, 63
2, 73875, Control_c, 0, 64, 63
2, 73897, Note_on_c, 0, 70, 56
2, 73922, Control_c, 0, 64, 127
2, 73957, Note_on_c, 0, 70, 0
2, 73992, Note_on_c, 0, 63, 0
2, 74033, Note_on_c, 0, 75, 0
2, 74068, Note_on_c, 0, 74, 0
2, 74117, Note_on_c, 0, 77, 100
2, 74129, Note_on_c, 0, 43, 0
2, 74205, Note_on_c, 0, 77, 0
2, 74520, Note_on_c, 0, 45, 64
2, 74537, Note_on_c, 0, 72, 83
2, 74576, Note_on_c, 0, 69, 45
2, 74603, Note_on_c, 0, 63, 19
2, 74689, Control_c, 0, 64, 63
2, 74701, Control_c, 0, 64, 0
2, 74756, Control_c, 0, 64, 63
2, 74782, Control_c, 0, 64, 127
2, 74873, Note_on_c, 0, 45, 0
2, 74978, Note_on_c, 0, 63, 0
2, 75134, Note_on_c, 0, 69, 0
2, 75180, Note_on_c, 0, 57, 71
2, 75208, Note_on_c, 0, 72, 0
2, 75415, Note_on_c, 0, 57, 0
2, 75712, Note_on_c, 0, 63, 72
2, 75720, Note_on_c, 0, 67, 68
2, 75739, Note_on_c, 0, 60, 57
2, 75781, Note_on_c, 0, 67, 0
2, 75827, Note_on_c, 0, 63, 0
2, 75866, Note_on_c, 0, 60, 0
2, 75971, Note_on_c, 0, 75, 97
2, 76128, Note_on_c, 0, 75, 0
2, 76271, Note_on_c, 0, 42, 73
2, 76285, Note_on_c, 0, 74, 75
2, 76294, Control_c, 0, 64, 63
2, 76298, Note_on_c, 0, 72, 84
2, 76299, Note_on_c, 0, 69, 57
2, 76302, Note_on_c, 0, 62, 39
2, 76312, Control_c, 0, 64, 0
2, 76340, Control_c, 0, 64, 63
2, 76367, Control_c, 0, 64, 127
2, 76414, Note_on_c, 0, 74, 0
2, 76451, Note_on_c, 0, 62, 0
2, 76551, Note_on_c, 0, 42, 0
2, 76554, Note_on_c, 0, 69, 0
2, 76572, Note_on_c, 0, 75, 92
2, 76616, Note_on_c, 0, 72, 0
2, 76673, Note_on_c, 0, 75, 0
2, 76941, Note_on_c, 0, 43, 34
2, 76949, Note_on_c, 0, 70, 72
2, 76989, Note_on_c, 0, 67, 46
2, 77013, Note_on_c, 0, 62, 19
2, 77072, Control_c, 0, 64, 63
2, 77080, Control_c, 0, 64, 0
2, 77150, Control_c, 0, 64, 63
2, 77171, Control_c, 0, 64, 127
2, 77244, Note_on_c, 0, 43, 0
2, 77342, Note_on_c, 0, 62, 0
2, 77539, Note_on_c, 0, 67, 0
2, 77636, Note_on_c, 0, 50, 60
2, 77699, Note_on_c, 0, 70, 0
2, 77822, Note_on_c, 0, 50, 0
2, 78204, Note_on_c, 0, 58, 40
2, 78222, Note_on_c, 0, 62, 37
2, 78230, Note_on_c, 0, 55, 38
2, 78585, Note_on_c, 0, 62, 0
2, 78611, Note_on_c, 0, 74, 70
2, 78635, Note_on_c, 0, 58, 0
2, 78655, Note_on_c, 0, 55, 0
2, 78975, Note_on_c, 0, 74, 0
2, 78990, Note_on_c, 0, 72, 69
2, 79000, Note_on_c, 0, 48, 51
2, 79013, Note_on_c, 0, 63, 51
2, 79024, Note_on_c, 0, 69, 43
2, 79067, Control_c, 0, 64, 63
2, 79152, Control_c, 0, 64, 127
2, 79296, Note_on_c, 0, 74, 84
2, 79319, Note_on_c, 0, 63, 0
2, 79322, Note_on_c, 0, 69, 0
2, 79342, Note_on_c, 0, 48, 0
2, 79432, Note_on_c, 0, 72, 0
2, 79440, Note_on_c, 0, 74, 0
2, 79597, Note_on_c, 0, 50, 63
2, 79598, Note_on_c, 0, 72, 82
2, 79633, Note_on_c, 0, 67, 61
2, 79649, Note_on_c, 0, 62, 21
2, 79702, Control_c, 0, 64, 63
2, 79769, Control_c, 0, 64, 127
2, 79903, Note_on_c, 0, 70, 89
2, 79977, Note_on_c, 0, 72, 0
2, 80032, Note_on_c, 0, 62, 0
2, 80089, Note_on_c, 0, 67, 0
2, 80153, Note_on_c, 0, 70, 0
2, 80229, Note_on_c, 0, 58, 58
2, 80246, Note_on_c, 0, 62, 51
2, 80248, Note_on_c, 0, 69, 65
2, 80340, Control_c, 0, 64, 63
2, 80452, Control_c, 0, 64, 127
2, 80573, Note_on_c, 0, 67, 76
2, 80612, Note_on_c, 0, 69, 0
2, 80686, Note_on_c, 0, 62, 0
2, 80963, Note_on_c, 0, 67, 0
2, 80974, Note_on_c, 0, 70, 70
2, 81011, Note_on_c, 0, 61, 56
2, 81015, Note_on_c, 0, 64, 45
2, 81065, Control_c, 0, 64, 63
2, 81092, Control_c, 0, 64, 0
2, 81119, Note_on_c, 0, 58, 0
2, 81210, Control_c, 0, 64, 63
2, 81233, Control_c, 0, 64, 127
2, 81526, Note_on_c, 0, 61, 0
2, 81869, Note_on_c, 0, 63, 46
2, 81871, Note_on_c, 0, 66, 53
2, 81884, Note_on_c, 0, 64, 0
2, 81896, Note_on_c, 0, 60, 30
2, 81928, Control_c, 0, 64, 63
2, 81962, Control_c, 0, 64, 0
2, 81996, Control_c, 0, 64, 63
2, 82041, Control_c, 0, 64, 127
2, 82339, Note_on_c, 0, 70, 0
2, 82410, Note_on_c, 0, 69, 45
2, 82561, Note_on_c, 0, 60, 0
2, 82646, Note_on_c, 0, 66, 0
2, 82691, Note_on_c, 0, 63, 0
2, 82986, Note_on_c, 0, 69, 0
2, 83114, Note_on_c, 0, 67, 42
2, 83121, Control_c, 0, 64, 63
2, 83144, Control_c, 0, 64, 0
2, 83147, Note_on_c, 0, 62, 26
2, 83149, Note_on_c, 0, 59, 29
2, 83196, Control_c, 0, 64, 63
2, 83230, Control_c, 0, 64, 127
2, 83313, Note_on_c, 0, 50, 0
2, 83394, Note_on_c, 0, 59, 0
2, 83495, Note_on_c, 0, 62, 0
2, 83611, Note_on_c, 0, 67, 0
2, 83621, Control_c, 0, 67, 0
2, 83756, Note_on_c, 0, 50, 37
2, 83766, Note_on_c, 0, 43, 15
2, 83814, Control_c, 0, 64, 63
2, 83838, Control_c, 0, 64, 0
2, 83928, Control_c, 0, 64, 63
2, 83949, Control_c, 0, 64, 127
2, 84105, Note_on_c, 0, 43, 0
2, 84148, Note_on_c, 0, 50, 0
2, 84334, Note_on_c, 0, 71, 65
2, 84335, Note_on_c, 0, 74, 68
2, 84374, Control_c, 0, 64, 63
2, 84380, Control_c, 0, 64, 127
2, 84729, Note_on_c, 0, 62, 33
2, 84742, Note_on_c, 0, 55, 45
2, 84746, Note_on_c, 0, 50, 27
2, 84837, Note_on_c, 0, 71, 0
2, 84890, Note_on_c, 0, 55, 0
2, 84890, Note_on_c, 0, 62, 0
2, 84934, Note_on_c, 0, 50, 0
2, 85000, Note_on_c, 0, 74, 0
2, 85082, Note_on_c, 0, 71, 60
2, 85087, Note_on_c, 0, 67, 48
2, 85211, Control_c, 0, 64, 63
2, 85230, Control_c, 0, 64, 0
2, 85353, Note_on_c, 0, 50, 62
2, 85368, Note_on_c, 0, 43, 42
2, 85404, Note_on_c, 0, 71, 0
2, 85469, Note_on_c, 0, 67, 0
2, 85572, Note_on_c, 0, 43, 0
2, 85611, Note_on_c, 0, 50, 0
2, 85634, Control_c, 0, 64, 63
2, 85636, Control_c, 0, 64, 127
2, 85656, Note_on_c, 0, 74, 80
2, 85660, Note_on_c, 0, 71, 67
2, 85918, Note_on_c, 0, 62, 74
2, 85920, Note_on_c, 0, 54, 76
2, 85959, Note_on_c, 0, 50, 31
2, 86013, Note_on_c, 0, 62, 0
2, 86034, Note_on_c, 0, 54, 0
2, 86065, Note_on_c, 0, 50, 0
2, 86144, Note_on_c, 0, 71, 0
2, 86192, Note_on_c, 0, 72, 74
2, 86197, Note_on_c, 0, 76, 80
2, 86266, Note_on_c, 0, 74, 0
2, 86356, Control_c, 0, 64, 63
2, 86368, Control_c, 0, 64, 0
2, 86442, Note_on_c, 0, 43, 62
2, 86448, Note_on_c, 0, 50, 65
2, 86463, Control_c, 0, 64, 63
2, 86487, Control_c, 0, 64, 127
2, 86493, Note_on_c, 0, 72, 0
2, 86512, Note_on_c, 0, 76, 0
2, 86526, Note_on_c, 0, 43, 0
2, 86556, Note_on_c, 0, 50, 0
2, 86701, Note_on_c, 0, 69, 76
2, 86714, Note_on_c, 0, 66, 78
2, 86735, Control_c, 0, 64, 63
2, 86744, Control_c, 0, 64, 0
2, 86910, Note_on_c, 0, 66, 0
2, 86927, Note_on_c, 0, 54, 73
2, 86928, Note_on_c, 0, 62, 71
2, 86935, Note_on_c, 0, 71, 76
2, 86937, Control_c, 0, 64, 63
2, 86939, Control_c, 0, 64, 127
2, 86944, Note_on_c, 0, 50, 54
2, 86953, Note_on_c, 0, 69, 0
2, 86980, Note_on_c, 0, 67, 57
2, 87012, Note_on_c, 0, 62, 0
2, 87032, Note_on_c, 0, 54, 0
2, 87060, Note_on_c, 0, 50, 0
2, 87124, Note_on_c, 0, 71, 0
2, 87133, Note_on_c, 0, 67, 0
2, 87145, Control_c, 0, 64, 63
2, 87155, Control_c, 0, 64, 0
2, 87184, Note_on_c, 0, 72, 80
2, 87186, Note_on_c, 0, 69, 66
2, 87324, Control_c, 0, 64, 63
2, 87327, Control_c, 0, 64, 127
2, 87398, Note_on_c, 0, 43, 76
2, 87404, Note_on_c, 0, 50, 82
2, 87454, Note_on_c, 0, 72, 0
2, 87539, Note_on_c, 0, 43, 0
2, 87584, Note_on_c, 0, 69, 0
2, 87588, Note_on_c, 0, 50, 0
2, 87660, Note_on_c, 0, 76, 91
2, 87668, Note_on_c, 0, 72, 83
2, 87799, Control_c, 0, 64, 63
2, 87804, Control_c, 0, 64, 0
2, 87867, Note_on_c, 0, 62, 71
2, 87872, Note_on_c, 0, 55, 68
2, 87874, Control_c, 0, 64, 63
2, 87878, Note_on_c, 0, 50, 61
2, 87891, Control_c, 0, 64, 127
2, 87960, Note_on_c, 0, 62, 0
2, 87981, Note_on_c, 0, 55, 0
2, 88010, Note_on_c, 0, 50, 0
2, 88026, Note_on_c, 0, 72, 0
2, 88107, Note_on_c, 0, 76, 0
2, 88119, Note_on_c, 0, 74, 80
2, 88126, Note_on_c, 0, 71, 68
2, 88135, Control_c, 0, 64, 63
2, 88147, Control_c, 0, 64, 0
2, 88210, Control_c, 0, 64, 63
2, 88240, Control_c, 0, 64, 127
2, 88303, Note_on_c, 0, 74, 0
2, 88320, Note_on_c, 0, 43, 82
2, 88321, Note_on_c, 0, 50, 91
2, 88404, Note_on_c, 0, 43, 0
2, 88421, Note_on_c, 0, 50, 0
2, 88452, Note_on_c, 0, 71, 0
2, 88526, Control_c, 0, 64, 63
2, 88535, Control_c, 0, 64, 0
2, 88560, Note_on_c, 0, 79, 96
2, 88565, Note_on_c, 0, 76, 87
2, 88618, Control_c, 0, 64, 63
2, 88636, Control_c, 0, 64, 127
2, 88787, Note_on_c, 0, 62, 89
2, 88798, Note_on_c, 0, 55, 75
2, 88806, Note_on_c, 0, 50, 69
2, 88816, Note_on_c, 0, 76, 0
2, 88865, Note_on_c, 0, 62, 0
2, 88871, Note_on_c, 0, 55, 0
2, 88873, Note_on_c, 0, 79, 0
2, 88912, Note_on_c, 0, 50, 0
2, 89024, Note_on_c, 0, 78, 89
2, 89044, Note_on_c, 0, 74, 81
2, 89190, Note_on_c, 0, 74, 0
2, 89192, Note_on_c, 0, 78, 0
2, 89238, Note_on_c, 0, 50, 86
2, 89242, Note_on_c, 0, 43, 69
2, 89250, Control_c, 0, 64, 63
2, 89263, Control_c, 0, 64, 0
2, 89360, Control_c, 0, 64, 63
2, 89382, Note_on_c, 0, 43, 0
2, 89387, Control_c, 0, 64, 127
2, 89414, Note_on_c, 0, 50, 0
2, 89486, Note_on_c, 0, 76, 91
2, 89490, Note_on_c, 0, 72, 88
2, 89680, Note_on_c, 0, 54, 85
2, 89682, Note_on_c, 0, 62, 65
2, 89685, Note_on_c, 0, 72, 0
2, 89703, Note_on_c, 0, 50, 53
2, 89708, Note_on_c, 0, 76, 0
2, 89738, Note_on_c, 0, 62, 0
2, 89751, Note_on_c, 0, 54, 0
2, 89781, Note_on_c, 0, 50, 0
2, 89925, Note_on_c, 0, 74, 88
2, 89926, Note_on_c, 0, 71, 84
2, 90079, Control_c, 0, 64, 63
2, 90086, Control_c, 0, 64, 0
2, 90143, Note_on_c, 0, 50, 84
2, 90144, Note_on_c, 0, 43, 75
2, 90191, Note_on_c, 0, 74, 0
2, 90197, Control_c, 0, 64, 63
2, 90205, Note_on_c, 0, 71, 0
2, 90215, Control_c, 0, 64, 127
2, 90230, Note_on_c, 0, 43, 0
2, 90257, Note_on_c, 0, 50, 0
2, 90367, Note_on_c, 0, 69, 78
2, 90376, Note_on_c, 0, 66, 81
2, 90472, Control_c, 0, 64, 63
2, 90480, Control_c, 0, 64, 0
2, 90532, Note_on_c, 0, 66, 0
2, 90573, Note_on_c, 0, 71, 84
2, 90577, Note_on_c, 0, 54, 79
2, 90578, Note_on_c, 0, 62, 76
2, 90587, Note_on_c, 0, 67, 72
2, 90596, Note_on_c, 0, 50, 49
2, 90601, Control_c, 0, 64, 63
2, 90616, Control_c, 0, 64, 127
2, 90626, Note_on_c, 0, 69, 0
2, 90656, Note_on_c, 0, 62, 0
2, 90680, Note_on_c, 0, 54, 0
2, 90703, Note_on_c, 0, 50, 0
2, 90753, Note_on_c, 0, 67, 0
2, 90810, Note_on_c, 0, 72, 94
2, 90811, Note_on_c, 0, 69, 83
2, 90879, Note_on_c, 0, 71, 0
2, 90963, Note_on_c, 0, 69, 0
2, 90967, Control_c, 0, 64, 63
2, 90975, Control_c, 0, 64, 0
2, 90987, Note_on_c, 0, 72, 0
2, 91023, Note_on_c, 0, 50, 97
2, 91024, Note_on_c, 0, 43, 85
2, 91130, Note_on_c, 0, 43, 0
2, 91156, Note_on_c, 0, 50, 0
2, 91260, Note_on_c, 0, 73, 101
2, 91267, Note_on_c, 0, 70, 96
2, 91282, Control_c, 0, 64, 63
2, 91283, Control_c, 0, 64, 127
2, 91453, Note_on_c, 0, 70, 0
2, 91465, Note_on_c, 0, 62, 90
2, 91475, Note_on_c, 0, 55, 76
2, 91476, Note_on_c, 0, 50, 78
2, 91497, Note_on_c, 0, 73, 0
2, 91546, Note_on_c, 0, 62, 0
2, 91563, Note_on_c, 0, 55, 0
2, 91590, Note_on_c, 0, 50, 0
2, 91704, Note_on_c, 0, 74, 86
2, 91707, Note_on_c, 0, 71, 78
2, 91785, Control_c, 0, 64, 63
2, 91792, Control_c, 0, 64, 0
2, 91914, Note_on_c, 0, 43, 79
2, 91915, Note_on_c, 0, 50, 89
2, 91923, Note_on_c, 0, 74, 0
2, 91933, Note_on_c, 0, 71, 0
2, 92035, Note_on_c, 0, 50, 0
2, 92040, Note_on_c, 0, 43, 0
2, 92166, Note_on_c, 0, 74, 96
2, 92168, Note_on_c, 0, 71, 89
2, 92172, Note_on_c, 0, 62, 90
2, 92187, Control_c, 0, 64, 127
2, 92261, Note_on_c, 0, 62, 0
2, 92263, Note_on_c, 0, 71, 0
2, 92292, Note_on_c, 0, 74, 0
2, 92410, Note_on_c, 0, 52, 84
2, 92628, Note_on_c, 0, 71, 94
2, 92630, Note_on_c, 0, 59, 91
2, 92639, Note_on_c, 0, 67, 82
2, 92732, Note_on_c, 0, 59, 0
2, 92762, Note_on_c, 0, 52, 0
2, 92763, Note_on_c, 0, 67, 0
2, 92773, Note_on_c, 0, 71, 0
2, 92825, Control_c, 0, 64, 63
2, 92831, Control_c, 0, 64, 0
2, 92837, Note_on_c, 0, 43, 90
2, 92837, Note_on_c, 0, 50, 100
2, 92929, Note_on_c, 0, 50, 0
2, 92940, Note_on_c, 0, 43, 0
2, 93055, Note_on_c, 0, 74, 107
2, 93058, Note_on_c, 0, 62, 102
2, 93061, Note_on_c, 0, 71, 96
2, 93102, Control_c, 0, 64, 63
2, 93103, Control_c, 0, 64, 127
2, 93172, Note_on_c, 0, 62, 0
2, 93213, Note_on_c, 0, 71, 0
2, 93224, Note_on_c, 0, 74, 0
2, 93271, Note_on_c, 0, 55, 103
2, 93487, Note_on_c, 0, 55, 0
2, 93493, Note_on_c, 0, 76, 100
2, 93500, Note_on_c, 0, 64, 85
2, 93501, Note_on_c, 0, 72, 96
2, 93621, Note_on_c, 0, 72, 0
2, 93631, Note_on_c, 0, 64, 0
2, 93634, Note_on_c, 0, 76, 0
2, 93700, Control_c, 0, 64, 63
2, 93708, Note_on_c, 0, 43, 76
2, 93710, Control_c, 0, 64, 0
2, 93718, Note_on_c, 0, 50, 100
2, 93728, Note_on_c, 0, 54, 105
2, 93778, Control_c, 0, 64, 63
2, 93797, Control_c, 0, 64, 127
2, 93814, Note_on_c, 0, 43, 0
2, 93828, Note_on_c, 0, 54, 0
2, 93831, Note_on_c, 0, 50, 0
2, 93921, Control_c, 0, 64, 63
2, 93928, Control_c, 0, 64, 0
2, 93952, Note_on_c, 0, 69, 97
2, 93969, Note_on_c, 0, 66, 83
2, 94068, Note_on_c, 0, 66, 0
2, 94164, Note_on_c, 0, 69, 0
2, 94173, Note_on_c, 0, 63, 115
2, 94179, Note_on_c, 0, 71, 100
2, 94186, Note_on_c, 0, 67, 94
2, 94201, Control_c, 0, 64, 63
2, 94201, Control_c, 0, 64, 127
2, 94338, Note_on_c, 0, 67, 0
2, 94343, Note_on_c, 0, 71, 0
2, 94395, Note_on_c, 0, 69, 97
2, 94396, Note_on_c, 0, 72, 102
2, 94432, Note_on_c, 0, 63, 0
2, 94502, Note_on_c, 0, 69, 0
2, 94535, Note_on_c, 0, 72, 0
2, 94593, Note_on_c, 0, 62, 107
2, 94597, Note_on_c, 0, 55, 87
2, 94609, Note_on_c, 0, 57, 85
2, 94683, Control_c, 0, 64, 63
2, 94693, Control_c, 0, 64, 0
2, 94694, Note_on_c, 0, 62, 0
2, 94711, Note_on_c, 0, 55, 0
2, 94722, Note_on_c, 0, 57, 0
2, 94834, Note_on_c, 0, 76, 103
2, 94838, Note_on_c, 0, 64, 94
2, 94842, Note_on_c, 0, 72, 93
2, 94892, Control_c, 0, 64, 63
2, 94893, Control_c, 0, 64, 127
2, 95009, Note_on_c, 0, 76, 0
2, 95017, Note_on_c, 0, 72, 0
2, 95025, Note_on_c, 0, 64, 0
2, 95048, Note_on_c, 0, 66, 118
2, 95263, Note_on_c, 0, 74, 103
2, 95270, Note_on_c, 0, 62, 98
2, 95272, Note_on_c, 0, 71, 96
2, 95311, Note_on_c, 0, 66, 0
2, 95332, Note_on_c, 0, 62, 0
2, 95377, Note_on_c, 0, 71, 0
2, 95394, Note_on_c, 0, 74, 0
2, 95464, Note_on_c, 0, 67, 111
2, 95484, Control_c, 0, 64, 63
2, 95492, Control_c, 0, 64, 0
2, 95556, Note_on_c, 0, 67, 0
2, 95712, Note_on_c, 0, 79, 107
2, 95716, Note_on_c, 0, 67, 102
2, 95718, Note_on_c, 0, 76, 104
2, 95765, Control_c, 0, 64, 63
2, 95766, Control_c, 0, 64, 127
2, 95901, Note_on_c, 0, 67, 0
2, 95922, Note_on_c, 0, 79, 0
2, 95958, Note_on_c, 0, 58, 119
2, 95961, Note_on_c, 0, 76, 0
2, 96181, Note_on_c, 0, 78, 109
2, 96182, Note_on_c, 0, 66, 114
2, 96190, Note_on_c, 0, 74, 83
2, 96228, Note_on_c, 0, 74, 0
2, 96251, Note_on_c, 0, 66, 0
2, 96272, Note_on_c, 0, 78, 0
2, 96351, Note_on_c, 0, 58, 0
2, 96361, Note_on_c, 0, 59, 114
2, 96395, Control_c, 0, 64, 63
2, 96403, Control_c, 0, 64, 0
2, 96474, Note_on_c, 0, 59, 0
2, 96587, Note_on_c, 0, 76, 109
2, 96589, Note_on_c, 0, 64, 106
2, 96595, Note_on_c, 0, 72, 103
2, 96645, Control_c, 0, 64, 63
2, 96646, Control_c, 0, 64, 127
2, 96773, Note_on_c, 0, 76, 0
2, 96780, Note_on_c, 0, 72, 0
2, 96793, Note_on_c, 0, 64, 0
2, 96803, Note_on_c, 0, 56, 120
2, 97020, Note_on_c, 0, 74, 106
2, 97023, Note_on_c, 0, 71, 99
2, 97024, Note_on_c, 0, 62, 100
2, 97097, Note_on_c, 0, 62, 0
2, 97098, Note_on_c, 0, 71, 0
2, 97103, Note_on_c, 0, 74, 0
2, 97199, Note_on_c, 0, 56, 0
2, 97229, Note_on_c, 0, 57, 112
2, 97302, Note_on_c, 0, 57, 0
2, 97385, Control_c, 0, 64, 63
2, 97396, Control_c, 0, 64, 0
2, 97442, Note_on_c, 0, 69, 87
2, 97445, Note_on_c, 0, 66, 101
2, 97447, Note_on_c, 0, 57, 87
2, 97523, Control_c, 0, 64, 63
2, 97527, Note_on_c, 0, 57, 0
2, 97560, Control_c, 0, 64, 0
2, 97575, Note_on_c, 0, 69, 0
2, 97576, Note_on_c, 0, 66, 0
2, 97663, Control_c, 0, 64, 63
2, 97678, Note_on_c, 0, 51, 118
2, 97682, Note_on_c, 0, 71, 102
2, 97684, Control_c, 0, 64, 127
2, 97685, Note_on_c, 0, 59, 98
2, 97686, Note_on_c, 0, 67, 91
2, 97753, Note_on_c, 0, 59, 0
2, 97794, Note_on_c, 0, 71, 0
2, 97797, Note_on_c, 0, 67, 0
2, 97888, Control_c, 0, 64, 63
2, 97893, Control_c, 0, 64, 0
2, 97896, Note_on_c, 0, 72, 113
2, 97899, Note_on_c, 0, 60, 114
2, 97900, Note_on_c, 0, 69, 107
2, 97921, Note_on_c, 0, 60, 0
2, 97932, Note_on_c, 0, 51, 0
2, 98102, Note_on_c, 0, 69, 0
2, 98121, Note_on_c, 0, 72, 0
2, 98127, Control_c, 0, 64, 63
2, 98128, Control_c, 0, 64, 127
2, 98144, Note_on_c, 0, 50, 117
2, 98273, Note_on_c, 0, 50, 0
2, 98371, Control_c, 0, 64, 63
2, 98375, Control_c, 0, 64, 0
2, 98385, Note_on_c, 0, 64, 107
2, 98386, Note_on_c, 0, 72, 104
2, 98386, Note_on_c, 0, 76, 109
2, 98618, Control_c, 0, 64, 63
2, 98619, Control_c, 0, 64, 127
2, 98637, Note_on_c, 0, 42, 124
2, 98638, Note_on_c, 0, 76, 0
2, 98647, Note_on_c, 0, 72, 0
2, 98656, Note_on_c, 0, 64, 0
2, 98803, Note_on_c, 0, 42, 0
2, 98926, Note_on_c, 0, 74, 101
2, 98928, Note_on_c, 0, 62, 103
2, 98929, Note_on_c, 0, 71, 100
2, 98941, Note_on_c, 0, 43, 121
2, 98974, Control_c, 0, 64, 63
2, 98979, Control_c, 0, 64, 0
2, 98986, Note_on_c, 0, 71, 0
2, 98991, Note_on_c, 0, 62, 0
2, 99011, Note_on_c, 0, 74, 0
2, 99029, Note_on_c, 0, 43, 0
2, 99280, Note_on_c, 0, 71, 103
2, 99281, Note_on_c, 0, 67, 104
2, 99283, Note_on_c, 0, 74, 98
2, 99294, Note_on_c, 0, 43, 121
2, 99325, Control_c, 0, 64, 63
2, 99347, Control_c, 0, 64, 127
2, 99351, Note_on_c, 0, 67, 0
2, 99370, Note_on_c, 0, 71, 0
2, 99381, Note_on_c, 0, 43, 0
2, 99390, Note_on_c, 0, 74, 0
2, 99485, Control_c, 0, 64, 63
2, 99492, Control_c, 0, 64, 0
2, 99760, Note_on_c, 0, 71, 94
2, 99761, Note_on_c, 0, 79, 110
2, 99766, Note_on_c, 0, 67, 104
2, 99768, Note_on_c, 0, 52, 103
2, 99769, Note_on_c, 0, 59, 93
2, 99770, Note_on_c, 0, 64, 96
2, 100124, Control_c, 0, 64, 63
2, 100138, Control_c, 0, 64, 127
2, 100270, Note_on_c, 0, 52, 0
2, 100290, Note_on_c, 0, 59, 0
2, 100361, Note_on_c, 0, 55, 112
2, 100385, Note_on_c, 0, 67, 0
2, 100392, Note_on_c, 0, 79, 0
2, 100426, Note_on_c, 0, 64, 0
2, 100446, Note_on_c, 0, 71, 0
2, 100594, Note_on_c, 0, 76, 111
2, 100662, Note_on_c, 0, 55, 0
2, 100680, Note_on_c, 0, 76, 0
2, 100730, Control_c, 0, 64, 63
2, 100742, Control_c, 0, 64, 0
2, 100773, Note_on_c, 0, 71, 33
2, 100813, Note_on_c, 0, 71, 0
2, 100862, Control_c, 0, 64, 63
2, 100863, Note_on_c, 0, 78, 112
2, 100864, Note_on_c, 0, 62, 103
2, 100865, Note_on_c, 0, 71, 93
2, 100866, Note_on_c, 0, 59, 98
2, 100869, Note_on_c, 0, 66, 103
2, 100878, Control_c, 0, 64, 127
2, 100973, Note_on_c, 0, 62, 0
2, 100988, Note_on_c, 0, 59, 0
2, 100995, Note_on_c, 0, 66, 0
2, 101002, Note_on_c, 0, 71, 0
2, 101018, Note_on_c, 0, 78, 0
2, 101108, Note_on_c, 0, 54, 97
2, 101112, Note_on_c, 0, 59, 99
2, 101113, Note_on_c, 0, 71, 102
2, 101116, Note_on_c, 0, 66, 103
2, 101144, Note_on_c, 0, 50, 41
2, 101150, Note_on_c, 0, 59, 0
2, 101175, Note_on_c, 0, 66, 0
2, 101176, Note_on_c, 0, 71, 0
2, 101185, Note_on_c, 0, 54, 0
2, 101190, Note_on_c, 0, 50, 0
2, 101426, Note_on_c, 0, 67, 92
2, 101427, Note_on_c, 0, 76, 106
2, 101428, Note_on_c, 0, 48, 100
2, 101429, Note_on_c, 0, 55, 109
2, 101430, Note_on_c, 0, 64, 102
2, 101434, Note_on_c, 0, 60, 116
2, 101467, Control_c, 0, 64, 63
2, 101478, Control_c, 0, 64, 0
2, 101761, Note_on_c, 0, 60, 0
2, 101767, Control_c, 0, 64, 63
2, 101772, Control_c, 0, 64, 127
2, 101832, Note_on_c, 0, 48, 0
2, 101836, Note_on_c, 0, 55, 0
2, 101906, Note_on_c, 0, 52, 112
2, 101922, Note_on_c, 0, 64, 0
2, 101943, Note_on_c, 0, 76, 0
2, 101962, Note_on_c, 0, 67, 0
2, 102039, Note_on_c, 0, 52, 0
2, 102094, Note_on_c, 0, 72, 97
2, 102238, Note_on_c, 0, 72, 0
2, 102287, Control_c, 0, 64, 63
2, 102297, Control_c, 0, 64, 0
2, 102344, Note_on_c, 0, 74, 107
2, 102348, Note_on_c, 0, 59, 114
2, 102349, Note_on_c, 0, 55, 109
2, 102352, Note_on_c, 0, 62, 93
2, 102354, Note_on_c, 0, 67, 91
2, 102370, Control_c, 0, 64, 63
2, 102390, Control_c, 0, 64, 127
2, 102438, Note_on_c, 0, 62, 0
2, 102468, Note_on_c, 0, 67, 0
2, 102469, Note_on_c, 0, 59, 0
2, 102471, Note_on_c, 0, 55, 0
2, 102478, Note_on_c, 0, 74, 0
2, 102564, Note_on_c, 0, 67, 103
2, 102620, Control_c, 0, 64, 63
2, 102640, Control_c, 0, 64, 0
2, 102661, Note_on_c, 0, 67, 0
2, 102811, Note_on_c, 0, 74, 117
2, 102812, Note_on_c, 0, 59, 120
2, 102813, Note_on_c, 0, 47, 108
2, 102814, Note_on_c, 0, 50, 113
2, 102815, Note_on_c, 0, 67, 112
2, 102816, Note_on_c, 0, 62, 117
2, 102835, Control_c, 0, 64, 63
2, 102841, Control_c, 0, 64, 127
2, 102909, Note_on_c, 0, 59, 0
2, 102925, Note_on_c, 0, 50, 0
2, 102932, Note_on_c, 0, 47, 0
2, 103144, Note_on_c, 0, 62, 0
2, 103155, Note_on_c, 0, 74, 0
2, 103219, Note_on_c, 0, 67, 0
2, 103290, Note_on_c, 0, 58, 121
2, 103291, Note_on_c, 0, 46, 115
2, 103345, Note_on_c, 0, 58, 0
2, 103356, Note_on_c, 0, 46, 0
2, 103480, Note_on_c, 0, 73, 109
2, 103481, Note_on_c, 0, 61, 112
2, 103541, Note_on_c, 0, 61, 0
2, 103567, Note_on_c, 0, 73, 0
2, 103637, Control_c, 0, 64, 63
2, 103646, Control_c, 0, 64, 0
2, 103729, Note_on_c, 0, 57, 113
2, 103731, Note_on_c, 0, 45, 104
2, 103732, Note_on_c, 0, 72, 113
2, 103733, Note_on_c, 0, 60, 114
2, 103734, Note_on_c, 0, 66, 115
2, 103758, Control_c, 0, 64, 63
2, 103762, Note_on_c, 0, 57, 0
2, 103770, Control_c, 0, 64, 127
2, 103793, Note_on_c, 0, 60, 0
2, 103798, Note_on_c, 0, 66, 0
2, 103799, Note_on_c, 0, 45, 0
2, 103805, Note_on_c, 0, 72, 0
2, 104087, Control_c, 0, 64, 63
2, 104106, Control_c, 0, 64, 0
2, 104140, Control_c, 0, 64, 63
2, 104170, Note_on_c, 0, 71, 98
2, 104171, Note_on_c, 0, 59, 96
2, 104173, Note_on_c, 0, 65, 93
2, 104175, Control_c, 0, 64, 127
2, 104177, Note_on_c, 0, 44, 97
2, 104191, Note_on_c, 0, 56, 101
2, 104194, Note_on_c, 0, 50, 88
2, 104212, Note_on_c, 0, 59, 0
2, 104224, Note_on_c, 0, 50, 0
2, 104237, Note_on_c, 0, 65, 0
2, 104238, Note_on_c, 0, 44, 0
2, 104249, Note_on_c, 0, 56, 0
2, 104255, Note_on_c, 0, 71, 0
2, 104413, Note_on_c, 0, 68, 92
2, 104419, Note_on_c, 0, 59, 82
2, 104432, Note_on_c, 0, 50, 97
2, 104437, Note_on_c, 0, 65, 112
2, 104438, Note_on_c, 0, 77, 108
2, 104439, Note_on_c, 0, 71, 104
2, 104443, Note_on_c, 0, 56, 92
2, 104478, Note_on_c, 0, 56, 0
2, 104484, Note_on_c, 0, 59, 0
2, 104487, Note_on_c, 0, 68, 0
2, 104498, Note_on_c, 0, 71, 0
2, 104501, Note_on_c, 0, 65, 0
2, 104507, Note_on_c, 0, 77, 0
2, 104512, Note_on_c, 0, 50, 0
2, 104626, Control_c, 0, 64, 63
2, 104651, Control_c, 0, 64, 0
2, 104710, Note_on_c, 0, 48, 60
2, 104715, Note_on_c, 0, 76, 109
2, 104718, Note_on_c, 0, 69, 97
2, 104719, Note_on_c, 0, 64, 97
2, 104727, Note_on_c, 0, 57, 109
2, 104734, Note_on_c, 0, 52, 96
2, 104736, Note_on_c, 0, 60, 120
2, 104783, Control_c, 0, 64, 63
2, 104797, Control_c, 0, 64, 127
2, 104851, Note_on_c, 0, 64, 0
2, 104898, Note_on_c, 0, 69, 0
2, 104910, Note_on_c, 0, 48, 0
2, 104940, Note_on_c, 0, 60, 0
2, 104944, Note_on_c, 0, 57, 0
2, 104967, Note_on_c, 0, 52, 0
2, 104980, Note_on_c, 0, 69, 107
2, 104981, Note_on_c, 0, 76, 0
2, 105064, Note_on_c, 0, 69, 0
2, 105187, Control_c, 0, 64, 63
2, 105196, Control_c, 0, 64, 0
2, 105233, Note_on_c, 0, 74, 107
2, 105235, Note_on_c, 0, 59, 113
2, 105235, Note_on_c, 0, 55, 106
2, 105238, Note_on_c, 0, 50, 111
2, 105238, Note_on_c, 0, 62, 104
2, 105239, Note_on_c, 0, 67, 100
2, 105336, Control_c, 0, 64, 63
2, 105346, Control_c, 0, 64, 127
2, 105425, Note_on_c, 0, 55, 0
2, 105432, Note_on_c, 0, 50, 0
2, 105441, Note_on_c, 0, 59, 0
2, 105473, Note_on_c, 0, 62, 0
2, 105515, Note_on_c, 0, 55, 114
2, 105518, Control_c, 0, 64, 63
2, 105524, Control_c, 0, 64, 0
2, 105594, Note_on_c, 0, 55, 0
2, 105624, Note_on_c, 0, 67, 0
2, 105625, Note_on_c, 0, 74, 0
2, 105845, Note_on_c, 0, 62, 122
2, 105861, Control_c, 0, 64, 63
2, 105861, Control_c, 0, 64, 127
2, 106134, Note_on_c, 0, 71, 106
2, 106312, Note_on_c, 0, 71, 0
2, 106388, Note_on_c, 0, 69, 96
2, 106391, Note_on_c, 0, 50, 100
2, 106393, Note_on_c, 0, 66, 100
2, 106406, Note_on_c, 0, 60, 73
2, 106478, Note_on_c, 0, 62, 0
2, 106515, Note_on_c, 0, 60, 0
2, 106545, Note_on_c, 0, 50, 0
2, 106551, Note_on_c, 0, 66, 0
2, 106571, Note_on_c, 0, 69, 0
2, 106608, Note_on_c, 0, 71, 99
2, 106682, Note_on_c, 0, 71, 0
2, 106795, Control_c, 0, 64, 63
2, 106809, Control_c, 0, 64, 0
2, 106845, Note_on_c, 0, 67, 107
2, 106848, Note_on_c, 0, 55, 113
2, 106852, Control_c, 0, 64, 63
2, 106853, Note_on_c, 0, 59, 100
2, 106879, Control_c, 0, 64, 127
2, 106911, Note_on_c, 0, 59, 0
2, 106944, Note_on_c, 0, 55, 0
2, 106956, Note_on_c, 0, 67, 0
2, 107120, Note_on_c, 0, 59, 104
2, 107121, Note_on_c, 0, 55, 99
2, 107121, Note_on_c, 0, 74, 111
2, 107122, Note_on_c, 0, 62, 106
2, 107125, Note_on_c, 0, 67, 103
2, 107129, Note_on_c, 0, 71, 97
2, 107167, Note_on_c, 0, 71, 0
2, 107173, Note_on_c, 0, 67, 0
2, 107181, Note_on_c, 0, 59, 0
2, 107190, Note_on_c, 0, 62, 0
2, 107205, Note_on_c, 0, 55, 0
2, 107208, Note_on_c, 0, 74, 0
2, 107462, Note_on_c, 0, 52, 108
2, 107462, Note_on_c, 0, 79, 103
2, 107464, Note_on_c, 0, 64, 117
2, 107464, Note_on_c, 0, 59, 114
2, 107470, Note_on_c, 0, 71, 89
2, 107471, Note_on_c, 0, 67, 92
2, 107498, Control_c, 0, 64, 63
2, 107507, Control_c, 0, 64, 0
2, 107823, Control_c, 0, 64, 63
2, 107826, Control_c, 0, 64, 127
2, 107869, Note_on_c, 0, 52, 0
2, 107873, Note_on_c, 0, 59, 0
2, 107933, Note_on_c, 0, 64, 0
2, 107952, Note_on_c, 0, 67, 0
2, 107954, Note_on_c, 0, 55, 111
2, 108002, Note_on_c, 0, 79, 0
2, 108018, Note_on_c, 0, 71, 0
2, 108071, Note_on_c, 0, 55, 0
2, 108162, Note_on_c, 0, 76, 111
2, 108249, Note_on_c, 0, 76, 0
2, 108323, Control_c, 0, 64, 63
2, 108332, Control_c, 0, 64, 0
2, 108400, Note_on_c, 0, 62, 104
2, 108401, Note_on_c, 0, 78, 107
2, 108402, Note_on_c, 0, 59, 102
2, 108407, Note_on_c, 0, 71, 90
2, 108412, Note_on_c, 0, 66, 97
2, 108433, Control_c, 0, 64, 63
2, 108450, Control_c, 0, 64, 127
2, 108464, Note_on_c, 0, 62, 0
2, 108465, Note_on_c, 0, 59, 0
2, 108483, Note_on_c, 0, 66, 0
2, 108502, Note_on_c, 0, 71, 0
2, 108553, Note_on_c, 0, 78, 0
2, 108594, Control_c, 0, 64, 63
2, 108612, Control_c, 0, 64, 0
2, 108650, Note_on_c, 0, 71, 106
2, 108653, Note_on_c, 0, 59, 107
2, 108658, Note_on_c, 0, 66, 103
2, 108664, Note_on_c, 0, 54, 98
2, 108676, Note_on_c, 0, 50, 76
2, 108708, Note_on_c, 0, 54, 0
2, 108710, Note_on_c, 0, 50, 0
2, 108718, Note_on_c, 0, 66, 0
2, 108719, Note_on_c, 0, 71, 0
2, 108730, Note_on_c, 0, 59, 0
2, 108975, Note_on_c, 0, 76, 106
2, 108977, Note_on_c, 0, 67, 93
2, 108982, Note_on_c, 0, 64, 90
2, 108983, Note_on_c, 0, 48, 108
2, 108984, Note_on_c, 0, 60, 118
2, 108985, Note_on_c, 0, 55, 108
2, 109282, Control_c, 0, 64, 63
2, 109283, Control_c, 0, 64, 127
2, 109352, Note_on_c, 0, 55, 0
2, 109373, Note_on_c, 0, 48, 0
2, 109441, Note_on_c, 0, 60, 0
2, 109488, Note_on_c, 0, 64, 0
2, 109508, Note_on_c, 0, 52, 117
2, 109521, Note_on_c, 0, 67, 0
2, 109523, Note_on_c, 0, 76, 0
2, 109706, Note_on_c, 0, 72, 96
2, 109748, Note_on_c, 0, 52, 0
2, 109873, Note_on_c, 0, 72, 0
2, 109878, Control_c, 0, 64, 63
2, 109887, Control_c, 0, 64, 0
2, 109929, Note_on_c, 0, 74, 106
2, 109939, Note_on_c, 0, 67, 94
2, 109941, Note_on_c, 0, 62, 85
2, 109943, Note_on_c, 0, 59, 111
2, 109947, Note_on_c, 0, 55, 102
2, 109953, Note_on_c, 0, 64, 0
2, 109953, Note_on_c, 0, 64, 0
2, 109953, Note_on_c, 0, 64, 0
2, 109953, Note_on_c, 0, 64, 0
2, 109970, Control_c, 0, 64, 63
2, 109994, Control_c, 0, 64, 127
2, 110025, Note_on_c, 0, 64, 0
2, 110025, Note_on_c, 0, 64, 0
2, 110025, Note_on_c, 0, 64, 0
2, 110025, Note_on_c, 0, 64, 0
2, 110046, Note_on_c, 0, 62, 0
2, 110071, Note_on_c, 0, 67, 0
2, 110072, Note_on_c, 0, 55, 0
2, 110077, Note_on_c, 0, 59, 0
2, 110078, Note_on_c, 0, 74, 0
2, 110170, Note_on_c, 0, 67, 103
2, 110217, Control_c, 0, 64, 63
2, 110239, Control_c, 0, 64, 0
2, 110260, Note_on_c, 0, 67, 0
2, 110407, Control_c, 0, 64, 63
2, 110414, Note_on_c, 0, 74, 113
2, 110417, Control_c, 0, 64, 127
2, 110420, Note_on_c, 0, 67, 109
2, 110421, Note_on_c, 0, 62, 116
2, 110422, Note_on_c, 0, 59, 116
2, 110423, Note_on_c, 0, 47, 106
2, 110426, Note_on_c, 0, 50, 111
2, 110503, Note_on_c, 0, 59, 0
2, 110522, Note_on_c, 0, 50, 0
2, 110550, Note_on_c, 0, 47, 0
2, 110740, Note_on_c, 0, 74, 0
2, 110768, Note_on_c, 0, 62, 0
2, 110803, Note_on_c, 0, 67, 0
2, 110911, Note_on_c, 0, 58, 123
2, 110912, Note_on_c, 0, 46, 115
2, 110978, Note_on_c, 0, 58, 0
2, 110984, Note_on_c, 0, 46, 0
2, 111121, Note_on_c, 0, 73, 110
2, 111122, Note_on_c, 0, 61, 115
2, 111175, Note_on_c, 0, 61, 0
2, 111203, Note_on_c, 0, 73, 0
2, 111405, Control_c, 0, 64, 63
2, 111421, Control_c, 0, 64, 0
2, 111455, Note_on_c, 0, 76, 114
2, 111456, Note_on_c, 0, 64, 113
2, 111458, Note_on_c, 0, 61, 118
2, 111459, Note_on_c, 0, 70, 108
2, 111461, Note_on_c, 0, 49, 105
2, 111465, Note_on_c, 0, 55, 92
2, 111500, Note_on_c, 0, 71, 38
2, 111539, Note_on_c, 0, 71, 0
2, 111562, Control_c, 0, 64, 63
2, 111581, Control_c, 0, 64, 127
2, 111723, Note_on_c, 0, 55, 0
2, 111731, Note_on_c, 0, 61, 0
2, 111782, Note_on_c, 0, 49, 0
2, 111887, Note_on_c, 0, 76, 0
2, 111888, Note_on_c, 0, 64, 0
2, 111948, Note_on_c, 0, 69, 96
2, 111956, Note_on_c, 0, 54, 113
2, 111958, Note_on_c, 0, 60, 114
2, 111971, Note_on_c, 0, 48, 88
2, 112000, Note_on_c, 0, 70, 0
2, 112015, Note_on_c, 0, 48, 0
2, 112025, Note_on_c, 0, 60, 0
2, 112026, Note_on_c, 0, 54, 0
2, 112066, Note_on_c, 0, 69, 0
2, 112168, Note_on_c, 0, 75, 115
2, 112169, Note_on_c, 0, 63, 119
2, 112209, Control_c, 0, 64, 63
2, 112218, Control_c, 0, 64, 0
2, 112233, Note_on_c, 0, 63, 0
2, 112271, Note_on_c, 0, 75, 0
2, 112479, Note_on_c, 0, 78, 114
2, 112480, Note_on_c, 0, 72, 109
2, 112482, Note_on_c, 0, 51, 105
2, 112485, Note_on_c, 0, 63, 120
2, 112485, Note_on_c, 0, 57, 99
2, 112486, Note_on_c, 0, 66, 116
2, 112502, Control_c, 0, 64, 63
2, 112503, Control_c, 0, 64, 127
2, 112766, Note_on_c, 0, 72, 0
2, 112767, Note_on_c, 0, 63, 0
2, 112798, Note_on_c, 0, 57, 0
2, 112813, Note_on_c, 0, 51, 0
2, 112971, Note_on_c, 0, 66, 0
2, 113010, Note_on_c, 0, 78, 0
2, 113022, Note_on_c, 0, 62, 117
2, 113023, Note_on_c, 0, 56, 113
2, 113026, Note_on_c, 0, 71, 102
2, 113028, Note_on_c, 0, 50, 108
2, 113126, Control_c, 0, 64, 63
2, 113136, Control_c, 0, 64, 0
2, 113221, Control_c, 0, 64, 63
2, 113243, Control_c, 0, 64, 127
2, 113290, Note_on_c, 0, 65, 109
2, 113290, Note_on_c, 0, 77, 109
2, 113324, Note_on_c, 0, 50, 0
2, 113339, Note_on_c, 0, 71, 0
2, 113358, Note_on_c, 0, 56, 0
2, 113364, Note_on_c, 0, 65, 0
2, 113388, Note_on_c, 0, 62, 0
2, 113401, Note_on_c, 0, 77, 0
2, 113588, Note_on_c, 0, 53, 79
2, 113625, Note_on_c, 0, 59, 104
2, 113636, Note_on_c, 0, 65, 120
2, 113648, Note_on_c, 0, 80, 109
2, 113649, Note_on_c, 0, 74, 104
2, 113650, Note_on_c, 0, 68, 109
2, 113671, Control_c, 0, 64, 63
2, 113674, Note_on_c, 0, 70, 0
2, 113674, Note_on_c, 0, 70, 0
2, 113674, Note_on_c, 0, 70, 0
2, 113674, Note_on_c, 0, 70, 0
2, 113680, Control_c, 0, 64, 0
2, 113738, Control_c, 0, 64, 63
2, 113749, Control_c, 0, 64, 127
2, 113772, Note_on_c, 0, 70, 0
2, 113772, Note_on_c, 0, 70, 0
2, 113772, Note_on_c, 0, 70, 0
2, 113772, Note_on_c, 0, 70, 0
2, 114039, Note_on_c, 0, 53, 0
2, 114071, Note_on_c, 0, 65, 0
2, 114123, Note_on_c, 0, 74, 0
2, 114168, Note_on_c, 0, 59, 0
2, 114243, Note_on_c, 0, 52, 77
2, 114250, Control_c, 0, 64, 63
2, 114258, Control_c, 0, 64, 0
2, 114272, Note_on_c, 0, 58, 112
2, 114273, Note_on_c, 0, 73, 109
2, 114273, Note_on_c, 0, 64, 120
2, 114316, Control_c, 0, 64, 63
2, 114336, Control_c, 0, 64, 127
2, 114362, Note_on_c, 0, 80, 0
2, 114416, Note_on_c, 0, 68, 0
2, 114515, Note_on_c, 0, 73, 0
2, 114546, Note_on_c, 0, 52, 0
2, 114590, Note_on_c, 0, 58, 0
2, 114623, Note_on_c, 0, 79, 100
2, 114633, Note_on_c, 0, 67, 92
2, 114649, Note_on_c, 0, 64, 0
2, 114680, Note_on_c, 0, 67, 0
2, 114729, Note_on_c, 0, 79, 0
2, 114881, Note_on_c, 0, 55, 65
2, 114947, Note_on_c, 0, 58, 53
2, 114964, Control_c, 0, 64, 63
2, 114975, Control_c, 0, 64, 0
2, 115036, Control_c, 0, 64, 63
2, 115041, Note_on_c, 0, 55, 0
2, 115055, Note_on_c, 0, 61, 60
2, 115064, Control_c, 0, 64, 127
2, 115108, Note_on_c, 0, 64, 41
2, 115141, Note_on_c, 0, 70, 99
2, 115149, Note_on_c, 0, 73, 109
2, 115158, Note_on_c, 0, 82, 107
2, 115161, Note_on_c, 0, 76, 98
2, 115166, Note_on_c, 0, 67, 107
2, 115212, Note_on_c, 0, 58, 0
2, 115213, Note_on_c, 0, 70, 0
2, 115233, Note_on_c, 0, 73, 0
2, 115233, Note_on_c, 0, 64, 0
2, 115240, Note_on_c, 0, 61, 0
2, 115249, Note_on_c, 0, 76, 0
2, 115262, Note_on_c, 0, 67, 0
2, 115282, Note_on_c, 0, 82, 0
2, 115415, Note_on_c, 0, 78, 29
2, 115479, Note_on_c, 0, 78, 0
2, 115612, Note_on_c, 0, 58, 64
2, 115655, Note_on_c, 0, 61, 67
2, 115735, Note_on_c, 0, 64, 53
2, 115744, Note_on_c, 0, 58, 0
2, 115748, Note_on_c, 0, 67, 76
2, 115765, Note_on_c, 0, 73, 95
2, 115768, Note_on_c, 0, 76, 100
2, 115792, Note_on_c, 0, 70, 112
2, 115804, Note_on_c, 0, 85, 94
2, 115815, Note_on_c, 0, 61, 0
2, 115828, Note_on_c, 0, 79, 64
2, 115834, Note_on_c, 0, 73, 0
2, 115849, Note_on_c, 0, 64, 0
2, 115857, Note_on_c, 0, 67, 0
2, 115862, Note_on_c, 0, 76, 0
2, 115871, Note_on_c, 0, 79, 0
2, 115884, Note_on_c, 0, 70, 0
2, 115919, Note_on_c, 0, 85, 0
2, 116095, Note_on_c, 0, 61, 40
2, 116178, Note_on_c, 0, 76, 84
2, 116186, Note_on_c, 0, 67, 60
2, 116201, Note_on_c, 0, 61, 0
2, 116202, Note_on_c, 0, 79, 93
2, 116212, Note_on_c, 0, 70, 95
2, 116227, Note_on_c, 0, 82, 109
2, 116232, Note_on_c, 0, 73, 105
2, 116236, Note_on_c, 0, 76, 0
2, 116257, Note_on_c, 0, 88, 101
2, 116270, Note_on_c, 0, 67, 0
2, 116271, Note_on_c, 0, 79, 0
2, 116289, Note_on_c, 0, 82, 0
2, 116297, Note_on_c, 0, 70, 0
2, 116304, Note_on_c, 0, 73, 0
2, 116427, Note_on_c, 0, 88, 0
2, 116478, Note_on_c, 0, 64, 43
2, 116534, Note_on_c, 0, 67, 69
2, 116536, Note_on_c, 0, 64, 0
2, 116564, Note_on_c, 0, 79, 81
2, 116570, Note_on_c, 0, 70, 93
2, 116580, Note_on_c, 0, 82, 107
2, 116595, Note_on_c, 0, 73, 101
2, 116598, Note_on_c, 0, 85, 109
2, 116607, Note_on_c, 0, 79, 0
2, 116618, Note_on_c, 0, 67, 0
2, 116627, Note_on_c, 0, 76, 86
2, 116628, Note_on_c, 0, 91, 106
2, 116638, Note_on_c, 0, 82, 0
2, 116653, Note_on_c, 0, 85, 0
2, 116656, Note_on_c, 0, 70, 0
2, 116662, Note_on_c, 0, 73, 0
2, 116696, Note_on_c, 0, 91, 0
2, 116734, Note_on_c, 0, 76, 0
2, 116846, Note_on_c, 0, 67, 47
2, 116907, Note_on_c, 0, 70, 70
2, 116939, Note_on_c, 0, 73, 85
2, 116953, Note_on_c, 0, 67, 0
2, 116958, Note_on_c, 0, 82, 88
2, 116971, Note_on_c, 0, 85, 88
2, 116972, Note_on_c, 0, 76, 83
2, 116996, Note_on_c, 0, 88, 90
2, 116997, Note_on_c, 0, 70, 0
2, 117000, Note_on_c, 0, 79, 97
2, 117013, Note_on_c, 0, 82, 0
2, 117014, Note_on_c, 0, 94, 103
2, 117040, Note_on_c, 0, 73, 0
2, 117041, Note_on_c, 0, 76, 0
2, 117042, Note_on_c, 0, 85, 0
2, 117047, Note_on_c, 0, 88, 0
2, 117067, Note_on_c, 0, 79, 0
2, 117097, Note_on_c, 0, 94, 0
2, 117303, Note_on_c, 0, 70, 35
2, 117336, Note_on_c, 0, 73, 77
2, 117386, Note_on_c, 0, 76, 53
2, 117387, Note_on_c, 0, 85, 94
2, 117411, Note_on_c, 0, 88, 88
2, 117427, Note_on_c, 0, 82, 110
2, 117438, Note_on_c, 0, 91, 89
2, 117455, Note_on_c, 0, 85, 0
2, 117464, Note_on_c, 0, 97, 104
2, 117469, Note_on_c, 0, 70, 0
2, 117494, Note_on_c, 0, 76, 0
2, 117496, Note_on_c, 0, 88, 0
2, 117497, Note_on_c, 0, 73, 0
2, 117511, Note_on_c, 0, 82, 0
2, 117512, Note_on_c, 0, 91, 0
2, 117571, Note_on_c, 0, 97, 0
2, 117832, Note_on_c, 0, 73, 57
2, 117949, Note_on_c, 0, 76, 76
2, 117992, Note_on_c, 0, 88, 92
2, 117996, Note_on_c, 0, 79, 57
2, 117998, Note_on_c, 0, 73, 0
2, 118021, Note_on_c, 0, 82, 90
2, 118023, Note_on_c, 0, 91, 90
2, 118049, Note_on_c, 0, 85, 106
2, 118050, Note_on_c, 0, 94, 104
2, 118072, Note_on_c, 0, 88, 0
2, 118091, Note_on_c, 0, 100, 109
2, 118096, Note_on_c, 0, 91, 0
2, 118131, Note_on_c, 0, 94, 0
2, 118171, Note_on_c, 0, 100, 0
2, 118250, Note_on_c, 0, 76, 0
2, 118293, Note_on_c, 0, 79, 0
2, 118343, Note_on_c, 0, 82, 0
2, 118384, Note_on_c, 0, 85, 0
2, 118763, Note_on_c, 0, 76, 87
2, 118814, Note_on_c, 0, 79, 60
2, 118860, Note_on_c, 0, 82, 80
2, 118895, Note_on_c, 0, 76, 0
2, 118918, Note_on_c, 0, 85, 92
2, 118950, Note_on_c, 0, 91, 77
2, 119027, Note_on_c, 0, 94, 74
2, 119067, Note_on_c, 0, 97, 101
2, 119078, Note_on_c, 0, 91, 0
2, 119108, Note_on_c, 0, 94, 0
2, 119148, Note_on_c, 0, 97, 0
2, 119150, Note_on_c, 0, 103, 116
2, 119162, Note_on_c, 0, 88, 111
2, 119227, Note_on_c, 0, 103, 0
2, 119338, Note_on_c, 0, 88, 0
2, 119363, Note_on_c, 0, 79, 0
2, 119378, Note_on_c, 0, 85, 0
2, 119392, Note_on_c, 0, 82, 0
2, 121693, Control_c, 0, 64, 63
2, 121747, Control_c, 0, 64, 0
2, 121943, Note_on_c, 0, 52, 102
2, 122407, Note_on_c, 0, 49, 107
2, 122496, Note_on_c, 0, 52, 0
2, 122801, Note_on_c, 0, 46, 107
2, 122946, Note_on_c, 0, 49, 0
2, 123298, Note_on_c, 0, 45, 92
2, 123379, Note_on_c, 0, 46, 0
2, 124427, Note_on_c, 0, 43, 82
2, 124546, Note_on_c, 0, 45, 0
2, 125896, Note_on_c, 0, 42, 77
2, 126032, Note_on_c, 0, 43, 0
2, 126701, Control_c, 0, 64, 63
2, 126708, Control_c, 0, 64, 127
2, 127268, Note_on_c, 0, 42, 0
2, 127542, Note_on_c, 0, 50, 58
2, 127661, Note_on_c, 0, 57, 31
2, 127755, Note_on_c, 0, 62, 52
2, 127849, Note_on_c, 0, 69, 52
2, 127946, Note_on_c, 0, 72, 69
2, 128055, Note_on_c, 0, 74, 76
2, 128087, Note_on_c, 0, 62, 0
2, 128436, Note_on_c, 0, 69, 0
2, 128600, Note_on_c, 0, 74, 0
2, 128603, Note_on_c, 0, 72, 0
2, 130882, Control_c, 0, 67, 127
2, 131396, Note_on_c, 0, 57, 0
2, 131464, Note_on_c, 0, 50, 0
2, 131665, Note_on_c, 0, 62, 50
2, 132231, Note_on_c, 0, 64, 68
2, 132384, Note_on_c, 0, 62, 0
2, 132621, Control_c, 0, 64, 63
2, 132631, Note_on_c, 0, 66, 85
2, 132710, Note_on_c, 0, 64, 0
2, 132771, Control_c, 0, 64, 0
2, 132963, Note_on_c, 0, 43, 68
2, 132985, Note_on_c, 0, 67, 68
2, 133020, Note_on_c, 0, 66, 0
2, 133146, Control_c, 0, 64, 63
2, 133160, Control_c, 0, 64, 127
2, 133273, Note_on_c, 0, 43, 0
2, 133340, Note_on_c, 0, 69, 67
2, 133416, Note_on_c, 0, 67, 0
2, 133587, Note_on_c, 0, 50, 76
2, 133606, Note_on_c, 0, 70, 79
2, 133659, Note_on_c, 0, 69, 0
2, 133885, Note_on_c, 0, 72, 89
2, 133900, Note_on_c, 0, 70, 0
2, 134119, Note_on_c, 0, 62, 82
2, 134125, Note_on_c, 0, 58, 74
2, 134136, Note_on_c, 0, 55, 70
2, 134140, Control_c, 0, 64, 63
2, 134144, Note_on_c, 0, 74, 93
2, 134166, Control_c, 0, 64, 0
2, 134212, Note_on_c, 0, 72, 0
2, 134269, Note_on_c, 0, 50, 0
2, 134271, Control_c, 0, 64, 63
2, 134298, Control_c, 0, 64, 127
2, 134362, Note_on_c, 0, 58, 0
2, 134396, Note_on_c, 0, 62, 0
2, 134454, Note_on_c, 0, 58, 81
2, 134480, Note_on_c, 0, 79, 80
2, 134495, Note_on_c, 0, 55, 0
2, 134541, Note_on_c, 0, 74, 0
2, 134752, Control_c, 0, 64, 63
2, 134787, Note_on_c, 0, 57, 75
2, 134806, Control_c, 0, 64, 0
2, 134822, Note_on_c, 0, 78, 89
2, 134826, Control_c, 0, 64, 63
2, 134838, Note_on_c, 0, 58, 0
2, 134882, Control_c, 0, 64, 127
2, 134891, Note_on_c, 0, 79, 0
2, 135082, Note_on_c, 0, 55, 76
2, 135087, Note_on_c, 0, 79, 84
2, 135114, Note_on_c, 0, 57, 0
2, 135149, Note_on_c, 0, 55, 0
2, 135168, Note_on_c, 0, 78, 0
2, 135417, Note_on_c, 0, 46, 59
2, 135431, Note_on_c, 0, 54, 70
2, 135434, Note_on_c, 0, 50, 38
2, 135446, Note_on_c, 0, 74, 73
2, 135469, Note_on_c, 0, 79, 0
2, 135537, Control_c, 0, 64, 63
2, 135558, Control_c, 0, 64, 0
2, 135678, Control_c, 0, 64, 63
2, 135699, Control_c, 0, 64, 127
2, 135802, Note_on_c, 0, 55, 69
2, 135807, Note_on_c, 0, 46, 0
2, 135808, Note_on_c, 0, 50, 0
2, 135866, Note_on_c, 0, 54, 0
2, 136105, Note_on_c, 0, 58, 66
2, 136180, Note_on_c, 0, 55, 0
2, 136260, Note_on_c, 0, 74, 0
2, 136383, Note_on_c, 0, 60, 77
2, 136548, Note_on_c, 0, 58, 0
2, 136653, Note_on_c, 0, 62, 85
2, 136705, Note_on_c, 0, 60, 0
2, 136780, Control_c, 0, 64, 63
2, 136796, Control_c, 0, 64, 0
2, 136927, Control_c, 0, 64, 63
2, 136946, Control_c, 0, 64, 127
2, 136987, Note_on_c, 0, 74, 88
2, 137148, Note_on_c, 0, 62, 0
2, 137154, Note_on_c, 0, 74, 0
2, 137364, Note_on_c, 0, 69, 62
2, 137372, Note_on_c, 0, 48, 66
2, 137376, Note_on_c, 0, 67, 67
2, 137381, Note_on_c, 0, 63, 55
2, 137501, Control_c, 0, 64, 63
2, 137522, Control_c, 0, 64, 0
2, 137622, Control_c, 0, 64, 63
2, 137649, Control_c, 0, 64, 127
2, 137677, Note_on_c, 0, 72, 82
2, 137755, Note_on_c, 0, 48, 0
2, 137756, Note_on_c, 0, 67, 0
2, 137757, Note_on_c, 0, 69, 0
2, 137844, Note_on_c, 0, 63, 0
2, 137907, Note_on_c, 0, 72, 0
2, 137939, Control_c, 0, 64, 63
2, 137948, Control_c, 0, 64, 0
2, 137975, Note_on_c, 0, 70, 81
2, 137976, Note_on_c, 0, 50, 54
2, 137980, Note_on_c, 0, 62, 62
2, 137991, Note_on_c, 0, 67, 61
2, 138048, Control_c, 0, 64, 63
2, 138063, Control_c, 0, 64, 127
2, 138111, Note_on_c, 0, 50, 0
2, 138264, Note_on_c, 0, 62, 0
2, 138382, Note_on_c, 0, 63, 75
2, 138551, Note_on_c, 0, 67, 0
2, 138687, Note_on_c, 0, 61, 88
2, 138711, Note_on_c, 0, 55, 50
2, 138713, Note_on_c, 0, 58, 63
2, 138714, Note_on_c, 0, 63, 0
2, 138721, Note_on_c, 0, 70, 0
2, 138923, Note_on_c, 0, 63, 100
2, 139066, Note_on_c, 0, 58, 0
2, 139161, Note_on_c, 0, 61, 0
2, 139173, Note_on_c, 0, 63, 0
2, 139192, Note_on_c, 0, 62, 100
2, 139214, Note_on_c, 0, 58, 82
2, 139220, Control_c, 0, 64, 63
2, 139231, Control_c, 0, 64, 0
2, 139333, Control_c, 0, 64, 63
2, 139357, Control_c, 0, 64, 127
2, 139373, Note_on_c, 0, 55, 0
2, 139460, Note_on_c, 0, 70, 98
2, 139461, Note_on_c, 0, 58, 0
2, 139569, Note_on_c, 0, 62, 0
2, 139727, Note_on_c, 0, 66, 97
2, 139738, Note_on_c, 0, 50, 80
2, 139741, Note_on_c, 0, 60, 66
2, 139776, Note_on_c, 0, 70, 0
2, 139790, Control_c, 0, 64, 63
2, 139805, Control_c, 0, 64, 0
2, 139861, Control_c, 0, 64, 63
2, 139900, Control_c, 0, 64, 127
2, 139991, Note_on_c, 0, 69, 79
2, 139995, Note_on_c, 0, 50, 0
2, 140069, Note_on_c, 0, 60, 0
2, 140144, Note_on_c, 0, 66, 0
2, 140234, Note_on_c, 0, 69, 0
2, 140302, Note_on_c, 0, 43, 55
2, 140328, Note_on_c, 0, 67, 68
2, 140331, Note_on_c, 0, 58, 58
2, 140357, Control_c, 0, 64, 63
2, 140375, Control_c, 0, 64, 0
2, 140539, Control_c, 0, 64, 63
2, 140564, Control_c, 0, 64, 127
2, 140659, Note_on_c, 0, 51, 67
2, 140926, Note_on_c, 0, 49, 64
2, 140927, Control_c, 0, 64, 63
2, 140944, Note_on_c, 0, 51, 0
2, 140953, Control_c, 0, 64, 0
2, 141025, Control_c, 0, 64, 63
2, 141064, Control_c, 0, 64, 127
2, 141192, Note_on_c, 0, 51, 76
2, 141214, Note_on_c, 0, 49, 0
2, 141251, Control_c, 0, 64, 63
2, 141279, Control_c, 0, 64, 0
2, 141534, Note_on_c, 0, 50, 62
2, 141571, Note_on_c, 0, 67, 0
2, 141582, Note_on_c, 0, 51, 0
2, 141612, Control_c, 0, 64, 63
2, 141630, Control_c, 0, 64, 127
2, 141674, Note_on_c, 0, 58, 0
2, 141922, Control_c, 0, 64, 63
2, 141936, Control_c, 0, 64, 0
2, 141945, Note_on_c, 0, 62, 67
2, 142091, Control_c, 0, 64, 63
2, 142107, Control_c, 0, 64, 127
2, 142338, Note_on_c, 0, 62, 0
2, 142356, Note_on_c, 0, 64, 72
2, 142362, Note_on_c, 0, 60, 64
2, 142683, Note_on_c, 0, 43, 0
2, 142686, Note_on_c, 0, 66, 91
2, 142746, Note_on_c, 0, 60, 0
2, 142769, Note_on_c, 0, 64, 0
2, 142807, Note_on_c, 0, 66, 0
2, 142946, Note_on_c, 0, 50, 0
2, 143018, Note_on_c, 0, 43, 70
2, 143043, Note_on_c, 0, 67, 80
2, 143044, Control_c, 0, 64, 63
2, 143048, Note_on_c, 0, 58, 60
2, 143057, Control_c, 0, 64, 0
2, 143125, Control_c, 0, 64, 63
2, 143151, Control_c, 0, 64, 127
2, 143237, Note_on_c, 0, 43, 0
2, 143287, Note_on_c, 0, 58, 0
2, 143360, Note_on_c, 0, 69, 80
2, 143431, Note_on_c, 0, 67, 0
2, 143620, Note_on_c, 0, 50, 81
2, 143645, Note_on_c, 0, 70, 95
2, 143688, Note_on_c, 0, 69, 0
2, 143796, Note_on_c, 0, 70, 0
2, 143894, Note_on_c, 0, 72, 92
2, 144151, Note_on_c, 0, 62, 96
2, 144157, Note_on_c, 0, 72, 0
2, 144157, Note_on_c, 0, 58, 80
2, 144158, Note_on_c, 0, 74, 102
2, 144167, Note_on_c, 0, 55, 73
2, 144175, Note_on_c, 0, 50, 0
2, 144320, Note_on_c, 0, 62, 0
2, 144332, Note_on_c, 0, 58, 0
2, 144437, Note_on_c, 0, 55, 0
2, 144475, Note_on_c, 0, 58, 101
2, 144484, Note_on_c, 0, 79, 102
2, 144545, Note_on_c, 0, 74, 0
2, 144585, Note_on_c, 0, 58, 0
2, 144616, Note_on_c, 0, 79, 0
2, 144834, Note_on_c, 0, 57, 91
2, 144838, Note_on_c, 0, 77, 76
2, 144840, Note_on_c, 0, 45, 73
2, 144843, Note_on_c, 0, 65, 58
2, 144845, Note_on_c, 0, 75, 82
2, 144853, Note_on_c, 0, 72, 64
2, 144883, Control_c, 0, 64, 63
2, 144961, Control_c, 0, 64, 127
2, 145014, Note_on_c, 0, 77, 0
2, 145039, Note_on_c, 0, 57, 0
2, 145091, Note_on_c, 0, 65, 0
2, 145123, Note_on_c, 0, 55, 92
2, 145124, Note_on_c, 0, 79, 89
2, 145154, Note_on_c, 0, 72, 0
2, 145156, Note_on_c, 0, 45, 0
2, 145173, Note_on_c, 0, 75, 0
2, 145207, Note_on_c, 0, 79, 0
2, 145425, Note_on_c, 0, 46, 77
2, 145426, Note_on_c, 0, 53, 76
2, 145428, Note_on_c, 0, 74, 90
2, 145440, Note_on_c, 0, 70, 77
2, 145448, Note_on_c, 0, 65, 55
2, 145472, Note_on_c, 0, 55, 0
2, 145518, Control_c, 0, 64, 63
2, 145529, Control_c, 0, 64, 0
2, 145637, Control_c, 0, 64, 63
2, 145651, Control_c, 0, 64, 127
2, 145686, Note_on_c, 0, 55, 81
2, 145695, Note_on_c, 0, 46, 0
2, 145704, Note_on_c, 0, 53, 0
2, 145822, Note_on_c, 0, 65, 0
2, 145950, Note_on_c, 0, 58, 97
2, 145993, Note_on_c, 0, 55, 0
2, 146077, Note_on_c, 0, 70, 0
2, 146116, Note_on_c, 0, 74, 0
2, 146178, Note_on_c, 0, 62, 103
2, 146249, Note_on_c, 0, 58, 0
2, 146505, Note_on_c, 0, 65, 98
2, 146526, Note_on_c, 0, 62, 0
2, 146544, Control_c, 0, 64, 63
2, 146623, Control_c, 0, 64, 127
2, 146781, Note_on_c, 0, 65, 0
2, 146799, Note_on_c, 0, 77, 99
2, 146895, Note_on_c, 0, 77, 0
2, 147132, Note_on_c, 0, 43, 80
2, 147134, Note_on_c, 0, 74, 71
2, 147137, Note_on_c, 0, 70, 71
2, 147140, Note_on_c, 0, 75, 98
2, 147142, Note_on_c, 0, 63, 66
2, 147293, Note_on_c, 0, 63, 0
2, 147313, Note_on_c, 0, 75, 0
2, 147360, Note_on_c, 0, 74, 0
2, 147426, Note_on_c, 0, 77, 94
2, 147428, Note_on_c, 0, 43, 0
2, 147507, Note_on_c, 0, 77, 0
2, 147712, Note_on_c, 0, 70, 0
2, 147782, Note_on_c, 0, 45, 60
2, 147841, Note_on_c, 0, 72, 84
2, 147854, Note_on_c, 0, 63, 58
2, 147874, Note_on_c, 0, 69, 55
2, 148023, Control_c, 0, 64, 63
2, 148038, Control_c, 0, 64, 0
2, 148107, Control_c, 0, 64, 63
2, 148137, Control_c, 0, 64, 127
2, 148190, Note_on_c, 0, 55, 68
2, 148209, Note_on_c, 0, 45, 0
2, 148383, Note_on_c, 0, 63, 0
2, 148494, Note_on_c, 0, 55, 0
2, 148496, Note_on_c, 0, 57, 78
2, 148726, Note_on_c, 0, 60, 94
2, 148753, Note_on_c, 0, 69, 0
2, 148755, Note_on_c, 0, 57, 0
2, 148825, Note_on_c, 0, 60, 0
2, 148840, Note_on_c, 0, 72, 0
2, 149016, Note_on_c, 0, 63, 101
2, 149095, Note_on_c, 0, 63, 0
2, 149275, Note_on_c, 0, 75, 104
2, 149399, Note_on_c, 0, 75, 0
2, 149550, Note_on_c, 0, 42, 73
2, 149554, Control_c, 0, 64, 63
2, 149559, Note_on_c, 0, 74, 91
2, 149570, Note_on_c, 0, 72, 82
2, 149574, Control_c, 0, 64, 0
2, 149576, Note_on_c, 0, 69, 76
2, 149581, Note_on_c, 0, 62, 52
2, 149593, Control_c, 0, 64, 63
2, 149635, Control_c, 0, 64, 127
2, 149698, Note_on_c, 0, 74, 0
2, 149730, Note_on_c, 0, 62, 0
2, 149805, Note_on_c, 0, 69, 0
2, 149816, Note_on_c, 0, 42, 0
2, 149837, Note_on_c, 0, 75, 88
2, 149869, Note_on_c, 0, 72, 0
2, 149932, Note_on_c, 0, 75, 0
2, 150147, Note_on_c, 0, 43, 57
2, 150190, Note_on_c, 0, 70, 76
2, 150214, Note_on_c, 0, 67, 59
2, 150215, Note_on_c, 0, 62, 32
2, 150369, Control_c, 0, 64, 63
2, 150386, Control_c, 0, 64, 0
2, 150517, Control_c, 0, 64, 63
2, 150535, Control_c, 0, 64, 127
2, 150548, Note_on_c, 0, 50, 63
2, 150628, Note_on_c, 0, 62, 0
2, 150743, Note_on_c, 0, 43, 0
2, 150822, Note_on_c, 0, 50, 0
2, 150829, Note_on_c, 0, 55, 73
2, 150860, Note_on_c, 0, 67, 0
2, 151031, Note_on_c, 0, 70, 0
2, 151101, Note_on_c, 0, 58, 82
2, 151117, Note_on_c, 0, 55, 0
2, 151358, Note_on_c, 0, 58, 0
2, 151473, Note_on_c, 0, 62, 68
2, 151645, Control_c, 0, 64, 63
2, 151733, Control_c, 0, 64, 127
2, 151903, Note_on_c, 0, 74, 59
2, 151930, Note_on_c, 0, 62, 0
2, 152240, Note_on_c, 0, 74, 0
2, 152247, Note_on_c, 0, 72, 70
2, 152268, Note_on_c, 0, 48, 46
2, 152270, Note_on_c, 0, 63, 60
2, 152277, Note_on_c, 0, 69, 46
2, 152446, Note_on_c, 0, 63, 0
2, 152516, Note_on_c, 0, 74, 87
2, 152540, Note_on_c, 0, 69, 0
2, 152545, Note_on_c, 0, 48, 0
2, 152648, Note_on_c, 0, 74, 0
2, 152651, Note_on_c, 0, 72, 0
2, 152775, Note_on_c, 0, 72, 81
2, 152777, Note_on_c, 0, 50, 67
2, 152798, Note_on_c, 0, 62, 60
2, 152801, Note_on_c, 0, 67, 70
2, 152844, Control_c, 0, 64, 63
2, 152930, Control_c, 0, 64, 127
2, 153026, Note_on_c, 0, 72, 0
2, 153063, Note_on_c, 0, 70, 92
2, 153146, Note_on_c, 0, 62, 0
2, 153228, Note_on_c, 0, 67, 0
2, 153272, Note_on_c, 0, 70, 0
2, 153326, Note_on_c, 0, 62, 82
2, 153329, Note_on_c, 0, 58, 61
2, 153354, Note_on_c, 0, 69, 84
2, 153418, Control_c, 0, 64, 63
2, 153517, Control_c, 0, 64, 127
2, 153596, Note_on_c, 0, 67, 98
2, 153644, Note_on_c, 0, 69, 0
2, 153766, Note_on_c, 0, 62, 0
2, 153963, Note_on_c, 0, 70, 84
2, 153989, Note_on_c, 0, 61, 67
2, 153991, Note_on_c, 0, 64, 59
2, 154008, Note_on_c, 0, 67, 0
2, 154067, Control_c, 0, 64, 63
2, 154076, Note_on_c, 0, 58, 0
2, 154089, Control_c, 0, 64, 0
2, 154236, Control_c, 0, 64, 63
2, 154253, Control_c, 0, 64, 127
2, 154556, Note_on_c, 0, 61, 0
2, 154627, Note_on_c, 0, 66, 69
2, 154628, Note_on_c, 0, 60, 52
2, 154631, Note_on_c, 0, 63, 58
2, 154685, Control_c, 0, 64, 63
2, 154779, Control_c, 0, 64, 127
2, 154787, Note_on_c, 0, 64, 0
2, 154886, Note_on_c, 0, 70, 0
2, 154919, Note_on_c, 0, 50, 0
2, 154974, Note_on_c, 0, 69, 55
2, 155217, Note_on_c, 0, 66, 0
2, 155230, Note_on_c, 0, 63, 0
2, 155353, Note_on_c, 0, 67, 61
2, 155360, Note_on_c, 0, 55, 31
2, 155371, Note_on_c, 0, 62, 43
2, 155426, Note_on_c, 0, 69, 0
2, 155450, Control_c, 0, 64, 63
2, 155480, Control_c, 0, 64, 0
2, 155517, Control_c, 0, 64, 63
2, 155521, Note_on_c, 0, 60, 0
2, 155564, Control_c, 0, 64, 127
2, 155754, Note_on_c, 0, 58, 61
2, 155809, Note_on_c, 0, 55, 0
2, 156045, Note_on_c, 0, 58, 0
2, 156091, Note_on_c, 0, 55, 47
2, 156407, Note_on_c, 0, 50, 46
2, 156580, Control_c, 0, 64, 63
2, 156691, Note_on_c, 0, 55, 0
2, 156745, Control_c, 0, 64, 127
2, 156810, Note_on_c, 0, 43, 50
2, 156817, Note_on_c, 0, 62, 0
2, 156950, Note_on_c, 0, 67, 0
2, 157172, Note_on_c, 0, 50, 0
2, 157277, Note_on_c, 0, 67, 47
2, 157457, Control_c, 0, 67, 0
2, 157612, Note_on_c, 0, 43, 0
2, 157713, Note_on_c, 0, 69, 46
2, 157798, Note_on_c, 0, 67, 0
2, 158078, Note_on_c, 0, 70, 60
2, 158151, Note_on_c, 0, 69, 0
2, 158431, Note_on_c, 0, 51, 61
2, 158433, Note_on_c, 0, 72, 60
2, 158451, Note_on_c, 0, 70, 0
2, 158513, Control_c, 0, 64, 63
2, 158610, Control_c, 0, 64, 127
2, 158773, Note_on_c, 0, 51, 0
2, 158787, Note_on_c, 0, 74, 65
2, 158880, Note_on_c, 0, 72, 0
2, 159076, Note_on_c, 0, 65, 67
2, 159080, Note_on_c, 0, 75, 86
2, 159137, Note_on_c, 0, 74, 0
2, 159358, Note_on_c, 0, 77, 83
2, 159385, Note_on_c, 0, 75, 0
2, 159607, Note_on_c, 0, 53, 53
2, 159622, Note_on_c, 0, 60, 71
2, 159623, Note_on_c, 0, 65, 0
2, 159624, Note_on_c, 0, 57, 60
2, 159625, Note_on_c, 0, 79, 88
2, 159696, Note_on_c, 0, 77, 0
2, 159888, Note_on_c, 0, 81, 99
2, 159962, Note_on_c, 0, 79, 0
2, 160150, Note_on_c, 0, 82, 100
2, 160204, Note_on_c, 0, 60, 0
2, 160226, Note_on_c, 0, 53, 0
2, 160247, Note_on_c, 0, 81, 0
2, 160265, Note_on_c, 0, 57, 0
2, 160426, Note_on_c, 0, 84, 99
2, 160505, Note_on_c, 0, 82, 0
2, 160782, Note_on_c, 0, 50, 71
2, 160845, Note_on_c, 0, 77, 83
2, 160887, Note_on_c, 0, 84, 0
2, 161030, Control_c, 0, 64, 63
2, 161055, Control_c, 0, 64, 0
2, 161220, Note_on_c, 0, 53, 73
2, 161383, Control_c, 0, 64, 63
2, 161389, Control_c, 0, 64, 127
2, 161515, Note_on_c, 0, 58, 87
2, 161773, Note_on_c, 0, 62, 91
2, 162070, Note_on_c, 0, 65, 85
2, 162187, Note_on_c, 0, 77, 0
2, 162237, Note_on_c, 0, 65, 0
2, 162343, Note_on_c, 0, 53, 0
2, 162368, Note_on_c, 0, 50, 0
2, 162377, Note_on_c, 0, 58, 0
2, 162393, Note_on_c, 0, 62, 0
2, 162518, Note_on_c, 0, 77, 90
2, 162844, Note_on_c, 0, 58, 56
2, 162860, Note_on_c, 0, 62, 62
2, 162867, Note_on_c, 0, 79, 91
2, 162871, Note_on_c, 0, 53, 52
2, 162895, Note_on_c, 0, 77, 0
2, 163153, Note_on_c, 0, 53, 0
2, 163157, Note_on_c, 0, 58, 0
2, 163169, Note_on_c, 0, 82, 91
2, 163235, Note_on_c, 0, 62, 0
2, 163275, Note_on_c, 0, 79, 0
2, 163462, Note_on_c, 0, 48, 47
2, 163535, Note_on_c, 0, 75, 94
2, 163607, Control_c, 0, 64, 63
2, 163618, Control_c, 0, 64, 0
2, 163620, Note_on_c, 0, 82, 0
2, 163698, Control_c, 0, 64, 63
2, 163723, Control_c, 0, 64, 127
2, 163857, Note_on_c, 0, 53, 77
2, 163897, Note_on_c, 0, 48, 0
2, 164112, Note_on_c, 0, 57, 86
2, 164189, Note_on_c, 0, 53, 0
2, 164364, Note_on_c, 0, 63, 96
2, 164393, Note_on_c, 0, 57, 0
2, 164471, Note_on_c, 0, 63, 0
2, 164619, Note_on_c, 0, 75, 0
2, 164625, Note_on_c, 0, 65, 88
2, 164852, Note_on_c, 0, 65, 0
2, 164915, Note_on_c, 0, 75, 93
2, 165225, Note_on_c, 0, 63, 77
2, 165238, Note_on_c, 0, 77, 77
2, 165265, Note_on_c, 0, 75, 0
2, 165268, Note_on_c, 0, 53, 55
2, 165269, Note_on_c, 0, 57, 49
2, 165526, Note_on_c, 0, 81, 94
2, 165528, Note_on_c, 0, 63, 0
2, 165536, Note_on_c, 0, 57, 0
2, 165571, Note_on_c, 0, 53, 0
2, 165618, Note_on_c, 0, 77, 0
2, 165822, Note_on_c, 0, 46, 82
2, 165857, Note_on_c, 0, 81, 0
2, 165895, Note_on_c, 0, 74, 71
2, 165952, Control_c, 0, 64, 63
2, 165961, Control_c, 0, 64, 0
2, 166130, Control_c, 0, 64, 63
2, 166138, Control_c, 0, 64, 127
2, 166244, Note_on_c, 0, 53, 53
2, 166472, Note_on_c, 0, 46, 0
2, 166498, Note_on_c, 0, 58, 80
2, 166511, Note_on_c, 0, 53, 0
2, 166578, Note_on_c, 0, 58, 0
2, 166637, Note_on_c, 0, 74, 0
2, 166737, Note_on_c, 0, 62, 97
2, 167006, Note_on_c, 0, 65, 87
2, 167067, Note_on_c, 0, 62, 0
2, 167236, Note_on_c, 0, 65, 0
2, 167257, Note_on_c, 0, 67, 99
2, 167594, Note_on_c, 0, 69, 92
2, 167598, Note_on_c, 0, 62, 79
2, 167598, Note_on_c, 0, 58, 59
2, 167608, Note_on_c, 0, 53, 52
2, 167654, Note_on_c, 0, 67, 0
2, 167808, Note_on_c, 0, 62, 0
2, 167832, Note_on_c, 0, 53, 0
2, 167853, Note_on_c, 0, 70, 103
2, 167867, Note_on_c, 0, 58, 0
2, 167895, Note_on_c, 0, 69, 0
2, 168107, Note_on_c, 0, 72, 92
2, 168115, Note_on_c, 0, 51, 98
2, 168120, Note_on_c, 0, 70, 0
2, 168162, Control_c, 0, 64, 63
2, 168172, Control_c, 0, 64, 0
2, 168277, Control_c, 0, 64, 63
2, 168292, Control_c, 0, 64, 127
2, 168362, Note_on_c, 0, 51, 0
2, 168370, Note_on_c, 0, 74, 99
2, 168429, Note_on_c, 0, 72, 0
2, 168602, Note_on_c, 0, 65, 92
2, 168610, Note_on_c, 0, 75, 103
2, 168656, Note_on_c, 0, 74, 0
2, 168847, Note_on_c, 0, 77, 101
2, 168851, Note_on_c, 0, 75, 0
2, 169111, Note_on_c, 0, 79, 99
2, 169112, Note_on_c, 0, 53, 66
2, 169118, Note_on_c, 0, 60, 81
2, 169126, Note_on_c, 0, 57, 70
2, 169144, Note_on_c, 0, 77, 0
2, 169359, Note_on_c, 0, 81, 103
2, 169417, Note_on_c, 0, 79, 0
2, 169424, Note_on_c, 0, 65, 0
2, 169583, Note_on_c, 0, 60, 0
2, 169605, Note_on_c, 0, 53, 0
2, 169617, Note_on_c, 0, 82, 105
2, 169671, Note_on_c, 0, 57, 0
2, 169700, Note_on_c, 0, 81, 0
2, 169892, Note_on_c, 0, 84, 98
2, 169944, Note_on_c, 0, 82, 0
2, 170249, Note_on_c, 0, 84, 0
2, 170282, Note_on_c, 0, 50, 85
2, 170311, Control_c, 0, 64, 63
2, 170320, Note_on_c, 0, 74, 89
2, 170327, Control_c, 0, 64, 0
2, 170680, Note_on_c, 0, 54, 82
2, 170784, Control_c, 0, 64, 63
2, 170785, Control_c, 0, 64, 127
2, 170957, Note_on_c, 0, 57, 89
2, 171029, Note_on_c, 0, 50, 0
2, 171111, Note_on_c, 0, 74, 0
2, 171165, Note_on_c, 0, 54, 0
2, 171200, Note_on_c, 0, 62, 98
2, 171203, Note_on_c, 0, 57, 0
2, 171280, Note_on_c, 0, 62, 0
2, 171484, Note_on_c, 0, 66, 99
2, 171543, Note_on_c, 0, 66, 0
2, 171834, Note_on_c, 0, 74, 98
2, 172116, Note_on_c, 0, 76, 106
2, 172124, Note_on_c, 0, 62, 83
2, 172143, Note_on_c, 0, 57, 57
2, 172187, Note_on_c, 0, 74, 0
2, 172315, Note_on_c, 0, 62, 0
2, 172342, Note_on_c, 0, 57, 0
2, 172358, Note_on_c, 0, 78, 112
2, 172413, Note_on_c, 0, 76, 0
2, 172618, Note_on_c, 0, 50, 86
2, 172638, Note_on_c, 0, 79, 103
2, 172709, Note_on_c, 0, 78, 0
2, 172792, Control_c, 0, 64, 63
2, 172801, Control_c, 0, 64, 0
2, 172920, Note_on_c, 0, 55, 81
2, 172973, Control_c, 0, 64, 63
2, 172988, Control_c, 0, 64, 127
2, 173079, Note_on_c, 0, 50, 0
2, 173164, Note_on_c, 0, 58, 89
2, 173392, Note_on_c, 0, 62, 78
2, 173419, Note_on_c, 0, 55, 0
2, 173456, Note_on_c, 0, 58, 0
2, 173547, Note_on_c, 0, 62, 0
2, 173688, Note_on_c, 0, 67, 78
2, 173697, Note_on_c, 0, 79, 0
2, 173969, Note_on_c, 0, 67, 0
2, 174068, Note_on_c, 0, 74, 87
2, 174328, Note_on_c, 0, 62, 74
2, 174343, Note_on_c, 0, 55, 59
2, 174354, Note_on_c, 0, 72, 96
2, 174428, Note_on_c, 0, 74, 0
2, 174607, Note_on_c, 0, 70, 105
2, 174642, Note_on_c, 0, 55, 0
2, 174655, Note_on_c, 0, 72, 0
2, 174865, Note_on_c, 0, 50, 77
2, 174922, Note_on_c, 0, 78, 97
2, 174930, Note_on_c, 0, 62, 0
2, 174992, Note_on_c, 0, 70, 0
2, 175020, Control_c, 0, 64, 63
2, 175035, Control_c, 0, 64, 0
2, 175243, Note_on_c, 0, 54, 74
2, 175249, Control_c, 0, 64, 63
2, 175261, Control_c, 0, 64, 127
2, 175487, Note_on_c, 0, 57, 50
2, 175703, Note_on_c, 0, 78, 0
2, 175724, Note_on_c, 0, 62, 66
2, 175761, Note_on_c, 0, 54, 0
2, 175824, Note_on_c, 0, 57, 0
2, 175918, Note_on_c, 0, 50, 0
2, 175999, Note_on_c, 0, 66, 63
2, 176158, Note_on_c, 0, 62, 0
2, 176229, Note_on_c, 0, 66, 0
2, 176308, Note_on_c, 0, 72, 66
2, 176600, Note_on_c, 0, 62, 49
2, 176605, Note_on_c, 0, 60, 59
2, 176609, Note_on_c, 0, 57, 36
2, 176640, Note_on_c, 0, 70, 79
2, 176641, Note_on_c, 0, 60, 0
2, 176673, Note_on_c, 0, 72, 0
2, 176854, Note_on_c, 0, 57, 0
2, 176878, Note_on_c, 0, 62, 0
2, 176891, Note_on_c, 0, 70, 0
2, 176892, Note_on_c, 0, 69, 84
2, 177144, Note_on_c, 0, 50, 75
2, 177176, Note_on_c, 0, 69, 0
2, 177209, Note_on_c, 0, 79, 78
2, 177233, Control_c, 0, 64, 63
2, 177249, Control_c, 0, 64, 0
2, 177321, Control_c, 0, 64, 63
2, 177356, Control_c, 0, 64, 127
2, 177477, Note_on_c, 0, 74, 77
2, 177508, Note_on_c, 0, 79, 0
2, 177533, Note_on_c, 0, 55, 43
2, 177563, Note_on_c, 0, 50, 0
2, 177688, Note_on_c, 0, 75, 76
2, 177691, Note_on_c, 0, 74, 0
2, 177764, Note_on_c, 0, 74, 65
2, 177800, Note_on_c, 0, 75, 0
2, 177833, Note_on_c, 0, 58, 65
2, 177870, Note_on_c, 0, 73, 83
2, 177903, Note_on_c, 0, 74, 0
2, 178110, Note_on_c, 0, 55, 0
2, 178127, Note_on_c, 0, 74, 97
2, 178140, Note_on_c, 0, 62, 75
2, 178154, Note_on_c, 0, 73, 0
2, 178186, Note_on_c, 0, 58, 0
2, 178245, Note_on_c, 0, 62, 0
2, 178463, Note_on_c, 0, 75, 80
2, 178494, Note_on_c, 0, 67, 55
2, 178533, Note_on_c, 0, 74, 0
2, 178800, Note_on_c, 0, 74, 79
2, 178824, Note_on_c, 0, 67, 0
2, 178842, Note_on_c, 0, 75, 0
2, 179068, Note_on_c, 0, 70, 84
2, 179071, Note_on_c, 0, 58, 54
2, 179076, Note_on_c, 0, 62, 52
2, 179099, Note_on_c, 0, 55, 37
2, 179120, Note_on_c, 0, 74, 0
2, 179135, Control_c, 0, 64, 63
2, 179239, Control_c, 0, 64, 127
2, 179341, Note_on_c, 0, 67, 81
2, 179413, Note_on_c, 0, 55, 0
2, 179418, Note_on_c, 0, 58, 0
2, 179429, Note_on_c, 0, 70, 0
2, 179691, Note_on_c, 0, 50, 55
2, 179693, Note_on_c, 0, 57, 28
2, 179726, Note_on_c, 0, 74, 74
2, 179751, Control_c, 0, 64, 63
2, 179765, Control_c, 0, 64, 0
2, 179884, Control_c, 0, 64, 63
2, 179896, Note_on_c, 0, 62, 0
2, 179897, Control_c, 0, 64, 127
2, 179920, Note_on_c, 0, 50, 0
2, 179937, Note_on_c, 0, 67, 0
2, 179963, Note_on_c, 0, 57, 0
2, 180157, Note_on_c, 0, 74, 0
2, 180204, Note_on_c, 0, 67, 60
2, 180623, Note_on_c, 0, 66, 55
2, 180635, Note_on_c, 0, 74, 60
2, 180683, Note_on_c, 0, 67, 0
2, 181000, Note_on_c, 0, 63, 67
2, 181029, Note_on_c, 0, 66, 0
2, 181037, Control_c, 0, 67, 127
2, 181142, Note_on_c, 0, 74, 0
2, 181284, Note_on_c, 0, 62, 60
2, 181298, Note_on_c, 0, 63, 0
2, 181522, Note_on_c, 0, 62, 0
2, 181593, Note_on_c, 0, 62, 65
2, 181615, Note_on_c, 0, 60, 46
2, 181971, Note_on_c, 0, 58, 54
2, 181987, Note_on_c, 0, 64, 76
2, 182027, Note_on_c, 0, 60, 0
2, 182110, Note_on_c, 0, 62, 0
2, 182341, Note_on_c, 0, 66, 86
2, 182356, Note_on_c, 0, 58, 0
2, 182360, Note_on_c, 0, 57, 45
2, 182400, Note_on_c, 0, 64, 0
2, 182805, Note_on_c, 0, 57, 0
2, 182808, Note_on_c, 0, 67, 68
2, 182820, Note_on_c, 0, 66, 0
2, 182843, Note_on_c, 0, 43, 48
2, 182926, Control_c, 0, 64, 63
2, 182946, Control_c, 0, 64, 0
2, 183063, Control_c, 0, 64, 63
2, 183081, Control_c, 0, 64, 127
2, 183267, Note_on_c, 0, 69, 56
2, 183311, Note_on_c, 0, 43, 0
2, 183330, Note_on_c, 0, 67, 0
2, 183624, Note_on_c, 0, 70, 73
2, 183638, Note_on_c, 0, 69, 0
2, 183651, Note_on_c, 0, 50, 54
2, 183923, Note_on_c, 0, 72, 82
2, 183936, Note_on_c, 0, 70, 0
2, 184186, Note_on_c, 0, 58, 54
2, 184189, Note_on_c, 0, 62, 63
2, 184197, Note_on_c, 0, 55, 54
2, 184211, Note_on_c, 0, 74, 85
2, 184263, Note_on_c, 0, 72, 0
2, 184359, Note_on_c, 0, 50, 0
2, 184391, Note_on_c, 0, 58, 0
2, 184416, Note_on_c, 0, 62, 0
2, 184526, Note_on_c, 0, 55, 0
2, 184537, Note_on_c, 0, 58, 61
2, 184563, Note_on_c, 0, 79, 93
2, 184624, Note_on_c, 0, 74, 0
2, 184873, Note_on_c, 0, 57, 68
2, 184890, Note_on_c, 0, 58, 0
2, 184894, Note_on_c, 0, 78, 96
2, 184952, Note_on_c, 0, 79, 0
2, 185152, Note_on_c, 0, 55, 72
2, 185167, Note_on_c, 0, 79, 88
2, 185193, Note_on_c, 0, 57, 0
2, 185235, Note_on_c, 0, 55, 0
2, 185238, Note_on_c, 0, 78, 0
2, 185455, Note_on_c, 0, 46, 72
2, 185467, Note_on_c, 0, 54, 76
2, 185468, Note_on_c, 0, 50, 56
2, 185474, Note_on_c, 0, 74, 77
2, 185574, Control_c, 0, 64, 63
2, 185588, Note_on_c, 0, 79, 0
2, 185603, Control_c, 0, 64, 0
2, 185709, Control_c, 0, 64, 63
2, 185726, Control_c, 0, 64, 127
2, 185759, Note_on_c, 0, 55, 79
2, 185776, Note_on_c, 0, 46, 0
2, 185782, Note_on_c, 0, 50, 0
2, 185829, Note_on_c, 0, 54, 0
2, 186017, Note_on_c, 0, 58, 96
2, 186070, Note_on_c, 0, 55, 0
2, 186215, Note_on_c, 0, 74, 0
2, 186261, Note_on_c, 0, 60, 102
2, 186325, Note_on_c, 0, 58, 0
2, 186566, Note_on_c, 0, 62, 96
2, 186592, Note_on_c, 0, 60, 0
2, 186721, Control_c, 0, 64, 63
2, 186772, Control_c, 0, 64, 127
2, 186885, Note_on_c, 0, 74, 94
2, 187042, Note_on_c, 0, 62, 0
2, 187066, Note_on_c, 0, 74, 0
2, 187236, Note_on_c, 0, 48, 76
2, 187244, Note_on_c, 0, 69, 76
2, 187255, Note_on_c, 0, 63, 65
2, 187259, Note_on_c, 0, 67, 74
2, 187358, Control_c, 0, 64, 63
2, 187439, Control_c, 0, 64, 127
2, 187530, Note_on_c, 0, 48, 0
2, 187534, Note_on_c, 0, 72, 86
2, 187620, Note_on_c, 0, 67, 0
2, 187622, Note_on_c, 0, 69, 0
2, 187731, Note_on_c, 0, 63, 0
2, 187842, Note_on_c, 0, 72, 0
2, 187848, Note_on_c, 0, 50, 78
2, 187880, Control_c, 0, 64, 63
2, 187888, Note_on_c, 0, 70, 76
2, 187897, Control_c, 0, 64, 0
2, 187908, Note_on_c, 0, 62, 48
2, 187912, Note_on_c, 0, 67, 54
2, 187942, Control_c, 0, 64, 63
2, 187978, Control_c, 0, 64, 127
2, 188017, Note_on_c, 0, 50, 0
2, 188289, Note_on_c, 0, 63, 73
2, 188328, Note_on_c, 0, 62, 0
2, 188631, Note_on_c, 0, 63, 0
2, 188632, Note_on_c, 0, 61, 66
2, 188648, Note_on_c, 0, 58, 50
2, 188659, Note_on_c, 0, 67, 0
2, 188663, Note_on_c, 0, 55, 29
2, 188908, Note_on_c, 0, 63, 61
2, 188932, Note_on_c, 0, 70, 0
2, 188963, Note_on_c, 0, 58, 0
2, 189052, Note_on_c, 0, 61, 0
2, 189076, Note_on_c, 0, 55, 0
2, 189112, Note_on_c, 0, 63, 0
2, 189185, Note_on_c, 0, 62, 64
2, 189189, Note_on_c, 0, 58, 61
2, 189225, Note_on_c, 0, 55, 39
2, 189276, Control_c, 0, 64, 63
2, 189334, Control_c, 0, 64, 127
2, 189452, Note_on_c, 0, 70, 82
2, 189476, Note_on_c, 0, 58, 0
2, 189491, Note_on_c, 0, 55, 0
2, 189644, Note_on_c, 0, 62, 0
2, 189718, Note_on_c, 0, 70, 0
2, 189737, Note_on_c, 0, 66, 76
2, 189753, Note_on_c, 0, 50, 63
2, 189756, Note_on_c, 0, 60, 50
2, 189829, Control_c, 0, 64, 63
2, 189845, Control_c, 0, 64, 127
2, 190005, Note_on_c, 0, 50, 0
2, 190050, Note_on_c, 0, 69, 64
2, 190070, Note_on_c, 0, 60, 0
2, 190152, Note_on_c, 0, 66, 0
2, 190370, Note_on_c, 0, 43, 45
2, 190375, Note_on_c, 0, 69, 0
2, 190417, Note_on_c, 0, 58, 46
2, 190418, Note_on_c, 0, 67, 60
2, 190554, Control_c, 0, 64, 63
2, 190609, Control_c, 0, 64, 0
2, 190687, Control_c, 0, 64, 63
2, 190733, Control_c, 0, 64, 127
2, 190759, Note_on_c, 0, 51, 61
2, 191028, Control_c, 0, 64, 63
2, 191031, Note_on_c, 0, 49, 66
2, 191065, Note_on_c, 0, 51, 0
2, 191094, Control_c, 0, 64, 127
2, 191298, Note_on_c, 0, 51, 61
2, 191325, Note_on_c, 0, 49, 0
2, 191582, Control_c, 0, 64, 63
2, 191615, Control_c, 0, 64, 0
2, 191655, Note_on_c, 0, 51, 0
2, 191660, Note_on_c, 0, 50, 54
2, 191716, Control_c, 0, 64, 63
2, 191743, Note_on_c, 0, 67, 0
2, 191747, Control_c, 0, 64, 127
2, 191825, Note_on_c, 0, 58, 0
2, 192078, Note_on_c, 0, 62, 62
2, 192433, Control_c, 0, 67, 127
2, 192505, Note_on_c, 0, 43, 0
2, 192515, Note_on_c, 0, 64, 68
2, 192520, Note_on_c, 0, 60, 42
2, 192538, Note_on_c, 0, 62, 0
2, 192832, Control_c, 0, 64, 63
2, 192845, Control_c, 0, 64, 127
2, 192877, Note_on_c, 0, 66, 90
2, 192992, Note_on_c, 0, 60, 0
2, 192993, Note_on_c, 0, 64, 0
2, 193015, Note_on_c, 0, 50, 0
2, 193037, Note_on_c, 0, 66, 0
2, 193217, Note_on_c, 0, 43, 63
2, 193236, Note_on_c, 0, 58, 64
2, 193237, Note_on_c, 0, 67, 77
2, 193253, Control_c, 0, 64, 63
2, 193327, Control_c, 0, 64, 127
2, 193465, Note_on_c, 0, 43, 0
2, 193487, Note_on_c, 0, 58, 0
2, 193550, Note_on_c, 0, 69, 72
2, 193590, Note_on_c, 0, 67, 0
2, 193666, Note_on_c, 0, 69, 0
2, 193823, Note_on_c, 0, 50, 74
2, 193834, Note_on_c, 0, 70, 95
2, 194059, Note_on_c, 0, 70, 0
2, 194071, Note_on_c, 0, 50, 0
2, 194080, Note_on_c, 0, 72, 96
2, 194329, Note_on_c, 0, 55, 68
2, 194333, Note_on_c, 0, 72, 0
2, 194333, Note_on_c, 0, 62, 72
2, 194334, Note_on_c, 0, 58, 64
2, 194340, Note_on_c, 0, 74, 93
2, 194467, Note_on_c, 0, 62, 0
2, 194468, Note_on_c, 0, 58, 0
2, 194500, Note_on_c, 0, 55, 0
2, 194641, Note_on_c, 0, 79, 93
2, 194642, Note_on_c, 0, 58, 88
2, 194690, Note_on_c, 0, 74, 0
2, 194757, Note_on_c, 0, 58, 0
2, 194761, Note_on_c, 0, 79, 0
2, 194988, Note_on_c, 0, 77, 69
2, 194992, Control_c, 0, 64, 63
2, 194993, Note_on_c, 0, 45, 82
2, 194996, Note_on_c, 0, 65, 52
2, 194997, Note_on_c, 0, 57, 82
2, 195012, Note_on_c, 0, 75, 74
2, 195013, Note_on_c, 0, 72, 69
2, 195027, Control_c, 0, 64, 127
2, 195161, Note_on_c, 0, 77, 0
2, 195183, Note_on_c, 0, 57, 0
2, 195204, Note_on_c, 0, 65, 0
2, 195273, Note_on_c, 0, 79, 92
2, 195277, Note_on_c, 0, 45, 0
2, 195298, Note_on_c, 0, 55, 78
2, 195308, Note_on_c, 0, 72, 0
2, 195331, Note_on_c, 0, 75, 0
2, 195372, Note_on_c, 0, 79, 0
2, 195581, Note_on_c, 0, 46, 65
2, 195590, Note_on_c, 0, 53, 67
2, 195594, Note_on_c, 0, 74, 84
2, 195605, Note_on_c, 0, 70, 80
2, 195612, Note_on_c, 0, 55, 0
2, 195615, Note_on_c, 0, 65, 57
2, 195695, Control_c, 0, 64, 63
2, 195707, Control_c, 0, 64, 0
2, 195810, Control_c, 0, 64, 63
2, 195826, Control_c, 0, 64, 127
2, 195855, Note_on_c, 0, 46, 0
2, 195862, Note_on_c, 0, 55, 65
2, 195872, Note_on_c, 0, 53, 0
2, 196042, Note_on_c, 0, 65, 0
2, 196138, Note_on_c, 0, 58, 88
2, 196173, Note_on_c, 0, 55, 0
2, 196402, Note_on_c, 0, 62, 97
2, 196553, Note_on_c, 0, 58, 0
2, 196617, Note_on_c, 0, 70, 0
2, 196673, Note_on_c, 0, 74, 0
2, 196686, Note_on_c, 0, 65, 86
2, 196700, Note_on_c, 0, 62, 0
2, 196913, Note_on_c, 0, 65, 0
2, 197012, Note_on_c, 0, 77, 91
2, 197143, Note_on_c, 0, 77, 0
2, 197325, Note_on_c, 0, 43, 71
2, 197332, Note_on_c, 0, 63, 77
2, 197343, Note_on_c, 0, 75, 93
2, 197355, Note_on_c, 0, 74, 60
2, 197364, Note_on_c, 0, 70, 69
2, 197474, Note_on_c, 0, 63, 0
2, 197498, Note_on_c, 0, 75, 0
2, 197516, Note_on_c, 0, 70, 0
2, 197602, Note_on_c, 0, 77, 98
2, 197647, Note_on_c, 0, 74, 0
2, 197650, Note_on_c, 0, 43, 0
2, 197688, Note_on_c, 0, 77, 0
2, 197943, Note_on_c, 0, 45, 52
2, 197974, Note_on_c, 0, 72, 77
2, 197985, Note_on_c, 0, 63, 42
2, 198015, Note_on_c, 0, 69, 49
2, 198059, Control_c, 0, 64, 63
2, 198074, Control_c, 0, 64, 0
2, 198211, Control_c, 0, 64, 63
2, 198229, Control_c, 0, 64, 127
2, 198364, Note_on_c, 0, 55, 65
2, 198406, Note_on_c, 0, 45, 0
2, 198460, Note_on_c, 0, 63, 0
2, 198669, Note_on_c, 0, 57, 74
2, 198727, Note_on_c, 0, 55, 0
2, 198918, Note_on_c, 0, 60, 85
2, 198946, Note_on_c, 0, 69, 0
2, 198979, Note_on_c, 0, 57, 0
2, 199090, Note_on_c, 0, 60, 0
2, 199123, Note_on_c, 0, 72, 0
2, 199257, Note_on_c, 0, 63, 77
2, 199433, Note_on_c, 0, 63, 0
2, 199600, Note_on_c, 0, 75, 80
2, 199788, Note_on_c, 0, 75, 0
2, 199900, Control_c, 0, 64, 63
2, 199907, Note_on_c, 0, 42, 67
2, 199920, Note_on_c, 0, 74, 79
2, 199930, Control_c, 0, 64, 127
2, 199946, Note_on_c, 0, 72, 77
2, 199947, Note_on_c, 0, 62, 46
2, 199950, Note_on_c, 0, 69, 55
2, 200069, Note_on_c, 0, 74, 0
2, 200122, Note_on_c, 0, 62, 0
2, 200190, Note_on_c, 0, 69, 0
2, 200203, Note_on_c, 0, 42, 0
2, 200227, Note_on_c, 0, 75, 85
2, 200296, Note_on_c, 0, 72, 0
2, 200342, Note_on_c, 0, 75, 0
2, 200603, Note_on_c, 0, 43, 46
2, 200646, Note_on_c, 0, 70, 70
2, 200663, Note_on_c, 0, 67, 56
2, 200675, Note_on_c, 0, 62, 38
2, 200848, Control_c, 0, 64, 63
2, 200864, Control_c, 0, 64, 0
2, 200982, Control_c, 0, 64, 63
2, 201005, Control_c, 0, 64, 127
2, 201053, Note_on_c, 0, 50, 59
2, 201323, Note_on_c, 0, 43, 0
2, 201348, Note_on_c, 0, 62, 0
2, 201395, Note_on_c, 0, 55, 53
2, 201404, Note_on_c, 0, 50, 0
2, 201684, Note_on_c, 0, 58, 52
2, 201694, Note_on_c, 0, 55, 0
2, 201723, Note_on_c, 0, 67, 0
2, 201940, Note_on_c, 0, 70, 0
2, 202033, Note_on_c, 0, 62, 42
2, 202038, Note_on_c, 0, 58, 0
2, 202498, Note_on_c, 0, 62, 0
2, 202512, Note_on_c, 0, 74, 60
2, 202870, Note_on_c, 0, 74, 0
2, 202932, Note_on_c, 0, 48, 37
2, 202939, Note_on_c, 0, 72, 68
2, 202969, Note_on_c, 0, 63, 26
2, 202977, Note_on_c, 0, 69, 33
2, 203003, Control_c, 0, 64, 63
2, 203035, Control_c, 0, 64, 127
2, 203194, Note_on_c, 0, 63, 0
2, 203251, Note_on_c, 0, 74, 79
2, 203283, Note_on_c, 0, 48, 0
2, 203288, Note_on_c, 0, 69, 0
2, 203362, Note_on_c, 0, 72, 0
2, 203415, Note_on_c, 0, 74, 0
2, 203532, Note_on_c, 0, 50, 55
2, 203540, Note_on_c, 0, 72, 77
2, 203579, Note_on_c, 0, 67, 59
2, 203580, Note_on_c, 0, 62, 60
2, 203634, Control_c, 0, 64, 63
2, 203718, Control_c, 0, 64, 127
2, 203858, Note_on_c, 0, 70, 89
2, 203949, Note_on_c, 0, 72, 0
2, 204039, Note_on_c, 0, 62, 0
2, 204084, Note_on_c, 0, 67, 0
2, 204147, Note_on_c, 0, 69, 84
2, 204157, Note_on_c, 0, 58, 58
2, 204164, Note_on_c, 0, 62, 58
2, 204197, Control_c, 0, 64, 63
2, 204228, Control_c, 0, 64, 0
2, 204232, Note_on_c, 0, 70, 0
2, 204283, Control_c, 0, 64, 63
2, 204319, Control_c, 0, 64, 127
2, 204462, Note_on_c, 0, 67, 81
2, 204547, Note_on_c, 0, 62, 0
2, 204579, Note_on_c, 0, 69, 0
2, 204862, Note_on_c, 0, 70, 75
2, 204870, Note_on_c, 0, 61, 55
2, 204886, Note_on_c, 0, 64, 44
2, 204888, Note_on_c, 0, 67, 0
2, 204920, Control_c, 0, 64, 63
2, 204938, Control_c, 0, 64, 0
2, 204939, Note_on_c, 0, 58, 0
2, 205074, Control_c, 0, 64, 63
2, 205094, Control_c, 0, 64, 127
2, 205225, Note_on_c, 0, 64, 0
2, 205381, Note_on_c, 0, 61, 0
2, 205630, Note_on_c, 0, 63, 50
2, 205637, Note_on_c, 0, 66, 62
2, 205640, Note_on_c, 0, 60, 34
2, 205695, Control_c, 0, 64, 63
2, 205783, Control_c, 0, 64, 127
2, 205945, Note_on_c, 0, 70, 0
2, 205949, Note_on_c, 0, 50, 0
2, 206088, Note_on_c, 0, 69, 55
2, 206269, Note_on_c, 0, 66, 0
2, 206293, Note_on_c, 0, 63, 0
2, 206588, Note_on_c, 0, 55, 22
2, 206606, Note_on_c, 0, 69, 0
2, 206634, Note_on_c, 0, 67, 43
2, 206655, Note_on_c, 0, 62, 38
2, 206708, Control_c, 0, 64, 63
2, 206725, Control_c, 0, 64, 0
2, 206835, Control_c, 0, 64, 63
2, 206857, Control_c, 0, 64, 127
2, 207148, Note_on_c, 0, 60, 0
2, 207170, Note_on_c, 0, 58, 54
2, 207217, Note_on_c, 0, 62, 0
2, 207253, Note_on_c, 0, 55, 0
2, 207486, Note_on_c, 0, 58, 0
2, 207546, Note_on_c, 0, 55, 48
2, 207864, Note_on_c, 0, 50, 47
2, 207865, Note_on_c, 0, 67, 0
2, 208083, Note_on_c, 0, 55, 0
2, 208337, Note_on_c, 0, 43, 40
2, 208451, Control_c, 0, 64, 63
2, 208488, Control_c, 0, 64, 0
2, 208572, Control_c, 0, 64, 63
2, 208575, Control_c, 0, 67, 0
2, 208608, Control_c, 0, 64, 127
2, 208780, Note_on_c, 0, 50, 0
2, 208848, Note_on_c, 0, 82, 62
2, 209315, Note_on_c, 0, 50, 41
2, 209344, Note_on_c, 0, 91, 58
2, 209346, Note_on_c, 0, 86, 47
2, 209656, Note_on_c, 0, 82, 0
2, 209738, Note_on_c, 0, 86, 0
2, 209795, Note_on_c, 0, 81, 54
2, 209825, Note_on_c, 0, 91, 0
2, 209896, Note_on_c, 0, 43, 0
2, 210171, Note_on_c, 0, 86, 51
2, 210180, Note_on_c, 0, 43, 27
2, 210190, Note_on_c, 0, 90, 57
2, 210205, Note_on_c, 0, 84, 38
2, 210438, Note_on_c, 0, 81, 0
2, 210539, Note_on_c, 0, 84, 0
2, 210542, Note_on_c, 0, 90, 0
2, 210561, Note_on_c, 0, 86, 0
2, 210595, Note_on_c, 0, 79, 54
2, 210617, Note_on_c, 0, 50, 0
2, 210832, Note_on_c, 0, 79, 0
2, 210899, Note_on_c, 0, 84, 51
2, 210900, Note_on_c, 0, 87, 52
2, 210903, Note_on_c, 0, 50, 38
2, 210967, Note_on_c, 0, 81, 12
2, 211199, Note_on_c, 0, 84, 0
2, 211205, Note_on_c, 0, 78, 68
2, 211255, Note_on_c, 0, 87, 0
2, 211317, Note_on_c, 0, 81, 0
2, 211448, Note_on_c, 0, 78, 0
2, 211486, Note_on_c, 0, 81, 52
2, 211491, Note_on_c, 0, 86, 51
2, 211498, Note_on_c, 0, 84, 45
2, 211650, Note_on_c, 0, 50, 0
2, 211709, Note_on_c, 0, 81, 0
2, 211749, Note_on_c, 0, 86, 0
2, 211770, Note_on_c, 0, 75, 63
2, 211773, Note_on_c, 0, 84, 0
2, 211976, Note_on_c, 0, 75, 0
2, 212047, Note_on_c, 0, 84, 55
2, 212050, Note_on_c, 0, 81, 58
2, 212051, Note_on_c, 0, 50, 0
2, 212051, Note_on_c, 0, 50, 0
2, 212051, Note_on_c, 0, 50, 0
2, 212051, Note_on_c, 0, 50, 0
2, 212067, Note_on_c, 0, 78, 39
2, 212300, Note_on_c, 0, 81, 0
2, 212309, Note_on_c, 0, 84, 0
2, 212327, Note_on_c, 0, 74, 71
2, 212335, Note_on_c, 0, 78, 0
2, 212402, Note_on_c, 0, 43, 0
2, 212587, Note_on_c, 0, 74, 0
2, 212600, Note_on_c, 0, 79, 51
2, 212603, Note_on_c, 0, 82, 77
2, 212607, Note_on_c, 0, 43, 38
2, 212632, Note_on_c, 0, 76, 49
2, 212877, Note_on_c, 0, 72, 57
2, 212944, Note_on_c, 0, 50, 0
2, 212944, Note_on_c, 0, 50, 0
2, 212944, Note_on_c, 0, 50, 0
2, 212944, Note_on_c, 0, 50, 0
2, 212950, Note_on_c, 0, 79, 0
2, 212954, Note_on_c, 0, 82, 0
2, 212965, Note_on_c, 0, 76, 0
2, 213143, Note_on_c, 0, 50, 38
2, 213148, Note_on_c, 0, 78, 61
2, 213151, Note_on_c, 0, 75, 53
2, 213152, Note_on_c, 0, 72, 0
2, 213158, Note_on_c, 0, 81, 61
2, 213275, Control_c, 0, 64, 63
2, 213334, Control_c, 0, 64, 127
2, 213495, Note_on_c, 0, 70, 41
2, 213543, Note_on_c, 0, 81, 0
2, 213556, Note_on_c, 0, 75, 0
2, 213637, Note_on_c, 0, 78, 0
2, 213644, Note_on_c, 0, 50, 0
2, 213844, Note_on_c, 0, 79, 53
2, 213867, Note_on_c, 0, 74, 42
2, 213881, Note_on_c, 0, 50, 24
2, 213984, Note_on_c, 0, 74, 0
2, 213993, Note_on_c, 0, 79, 0
2, 214040, Note_on_c, 0, 70, 0
2, 214191, Note_on_c, 0, 43, 0
2, 214251, Note_on_c, 0, 50, 0
2, 214294, Note_on_c, 0, 70, 69
2, 214604, Note_on_c, 0, 70, 0
2, 214764, Note_on_c, 0, 62, 26
2, 214765, Note_on_c, 0, 74, 33
2, 214773, Note_on_c, 0, 69, 50
2, 214775, Note_on_c, 0, 72, 67
2, 214786, Note_on_c, 0, 55, 18
2, 214953, Control_c, 0, 64, 63
2, 215050, Control_c, 0, 64, 127
2, 215101, Note_on_c, 0, 67, 71
2, 215119, Note_on_c, 0, 69, 0
2, 215381, Note_on_c, 0, 66, 80
2, 215427, Note_on_c, 0, 62, 0
2, 215468, Note_on_c, 0, 74, 0
2, 215473, Note_on_c, 0, 67, 0
2, 215498, Note_on_c, 0, 55, 0
2, 215554, Note_on_c, 0, 72, 0
2, 215636, Note_on_c, 0, 67, 71
2, 215659, Note_on_c, 0, 66, 0
2, 215703, Note_on_c, 0, 67, 0
2, 215953, Note_on_c, 0, 38, 51
2, 215954, Note_on_c, 0, 68, 71
2, 215969, Note_on_c, 0, 50, 11
2, 215979, Note_on_c, 0, 60, 39
2, 215981, Note_on_c, 0, 62, 33
2, 216046, Control_c, 0, 64, 63
2, 216124, Control_c, 0, 64, 127
2, 216214, Note_on_c, 0, 38, 0
2, 216296, Note_on_c, 0, 69, 65
2, 216340, Note_on_c, 0, 50, 0
2, 216402, Note_on_c, 0, 68, 0
2, 216556, Note_on_c, 0, 62, 0
2, 216560, Note_on_c, 0, 60, 0
2, 216608, Note_on_c, 0, 69, 0
2, 216620, Note_on_c, 0, 54, 62
2, 216883, Note_on_c, 0, 58, 79
2, 217055, Control_c, 0, 64, 63
2, 217099, Control_c, 0, 64, 0
2, 217148, Note_on_c, 0, 62, 80
2, 217150, Note_on_c, 0, 57, 49
2, 217166, Note_on_c, 0, 60, 70
2, 217178, Control_c, 0, 64, 63
2, 217209, Note_on_c, 0, 58, 0
2, 217230, Control_c, 0, 64, 127
2, 217297, Note_on_c, 0, 54, 0
2, 217381, Note_on_c, 0, 55, 73
2, 217458, Note_on_c, 0, 57, 0
2, 217611, Control_c, 0, 64, 63
2, 217638, Control_c, 0, 64, 0
2, 217675, Note_on_c, 0, 54, 77
2, 217724, Control_c, 0, 64, 63
2, 217729, Note_on_c, 0, 55, 0
2, 217750, Control_c, 0, 64, 127
2, 217900, Note_on_c, 0, 60, 0
2, 217932, Note_on_c, 0, 62, 0
2, 217952, Note_on_c, 0, 52, 76
2, 217970, Note_on_c, 0, 54, 0
2, 218254, Note_on_c, 0, 54, 69
2, 218276, Note_on_c, 0, 58, 49
2, 218277, Note_on_c, 0, 62, 63
2, 218308, Note_on_c, 0, 52, 0
2, 218335, Control_c, 0, 64, 63
2, 218357, Control_c, 0, 64, 0
2, 218434, Control_c, 0, 64, 63
2, 218465, Control_c, 0, 64, 127
2, 218552, Note_on_c, 0, 55, 47
2, 218563, Note_on_c, 0, 54, 0
2, 218663, Note_on_c, 0, 58, 0
2, 218769, Note_on_c, 0, 62, 0
2, 218991, Note_on_c, 0, 43, 45
2, 219010, Note_on_c, 0, 50, 55
2, 219045, Control_c, 0, 67, 127
2, 219121, Control_c, 0, 64, 63
2, 219165, Control_c, 0, 64, 0
2, 219167, Note_on_c, 0, 55, 0
2, 219445, Note_on_c, 0, 70, 65
2, 219554, Control_c, 0, 64, 63
2, 219559, Control_c, 0, 64, 127
2, 219884, Note_on_c, 0, 74, 47
2, 219888, Note_on_c, 0, 79, 64
2, 220108, Note_on_c, 0, 70, 0
2, 220153, Note_on_c, 0, 50, 0
2, 220208, Note_on_c, 0, 74, 0
2, 220220, Note_on_c, 0, 43, 0
2, 220221, Note_on_c, 0, 79, 0
2, 220240, Note_on_c, 0, 69, 63
2, 220592, Note_on_c, 0, 78, 78
2, 220593, Note_on_c, 0, 74, 48
2, 220594, Note_on_c, 0, 31, 68
2, 220602, Note_on_c, 0, 72, 40
2, 220609, Control_c, 0, 64, 63
2, 220672, Control_c, 0, 64, 127
2, 220863, Note_on_c, 0, 69, 0
2, 220988, Note_on_c, 0, 78, 0
2, 221032, Note_on_c, 0, 72, 0
2, 221033, Note_on_c, 0, 74, 0
2, 221039, Note_on_c, 0, 67, 54
2, 221367, Note_on_c, 0, 67, 0
2, 221370, Note_on_c, 0, 72, 54
2, 221373, Note_on_c, 0, 38, 54
2, 221379, Note_on_c, 0, 75, 74
2, 221400, Note_on_c, 0, 69, 41
2, 221694, Note_on_c, 0, 72, 0
2, 221713, Note_on_c, 0, 66, 63
2, 221740, Note_on_c, 0, 75, 0
2, 221809, Note_on_c, 0, 69, 0
2, 221975, Note_on_c, 0, 74, 75
2, 221977, Note_on_c, 0, 66, 0
2, 221978, Note_on_c, 0, 72, 69
2, 221980, Note_on_c, 0, 69, 49
2, 222196, Note_on_c, 0, 74, 0
2, 222227, Note_on_c, 0, 69, 0
2, 222229, Note_on_c, 0, 72, 0
2, 222241, Note_on_c, 0, 63, 80
2, 222494, Note_on_c, 0, 72, 86
2, 222504, Note_on_c, 0, 66, 73
2, 222508, Note_on_c, 0, 69, 63
2, 222635, Note_on_c, 0, 63, 0
2, 222741, Note_on_c, 0, 72, 0
2, 222741, Note_on_c, 0, 69, 0
2, 222753, Note_on_c, 0, 62, 98
2, 222801, Note_on_c, 0, 66, 0
2, 222981, Note_on_c, 0, 31, 0
2, 223102, Note_on_c, 0, 70, 80
2, 223106, Note_on_c, 0, 67, 54
2, 223124, Note_on_c, 0, 31, 39
2, 223148, Note_on_c, 0, 64, 43
2, 223180, Control_c, 0, 64, 63
2, 223233, Control_c, 0, 64, 127
2, 223279, Note_on_c, 0, 62, 0
2, 223490, Note_on_c, 0, 60, 48
2, 223566, Note_on_c, 0, 67, 0
2, 223583, Note_on_c, 0, 64, 0
2, 223614, Note_on_c, 0, 38, 0
2, 223631, Note_on_c, 0, 70, 0
2, 223768, Note_on_c, 0, 66, 62
2, 223784, Note_on_c, 0, 63, 63
2, 223788, Note_on_c, 0, 38, 28
2, 223791, Note_on_c, 0, 69, 54
2, 223844, Note_on_c, 0, 60, 0
2, 224091, Note_on_c, 0, 58, 60
2, 224172, Note_on_c, 0, 63, 0
2, 224245, Note_on_c, 0, 66, 0
2, 224325, Note_on_c, 0, 69, 0
2, 224467, Control_c, 0, 64, 63
2, 224485, Note_on_c, 0, 67, 58
2, 224508, Note_on_c, 0, 62, 42
2, 224554, Control_c, 0, 64, 127
2, 224725, Note_on_c, 0, 67, 0
2, 224775, Note_on_c, 0, 62, 0
2, 224827, Note_on_c, 0, 31, 0
2, 224860, Note_on_c, 0, 58, 0
2, 224919, Note_on_c, 0, 38, 0
2, 225052, Note_on_c, 0, 58, 67
2, 225391, Note_on_c, 0, 58, 0
2, 225448, Note_on_c, 0, 62, 49
2, 225456, Note_on_c, 0, 50, 25
2, 225463, Note_on_c, 0, 43, 31
2, 225470, Note_on_c, 0, 57, 34
2, 225473, Note_on_c, 0, 60, 41
2, 225621, Control_c, 0, 64, 63
2, 225746, Control_c, 0, 64, 127
2, 225784, Note_on_c, 0, 55, 54
2, 225815, Note_on_c, 0, 57, 0
2, 226036, Control_c, 0, 64, 63
2, 226054, Control_c, 0, 64, 127
2, 226066, Note_on_c, 0, 54, 82
2, 226140, Note_on_c, 0, 55, 0
2, 226188, Note_on_c, 0, 50, 0
2, 226230, Note_on_c, 0, 43, 0
2, 226321, Note_on_c, 0, 55, 70
2, 226332, Note_on_c, 0, 60, 0
2, 226333, Note_on_c, 0, 62, 0
2, 226373, Note_on_c, 0, 54, 0
2, 226402, Note_on_c, 0, 55, 0
2, 226609, Note_on_c, 0, 31, 38
2, 226638, Note_on_c, 0, 38, 36
2, 226647, Note_on_c, 0, 56, 57
2, 226650, Note_on_c, 0, 50, 28
2, 226652, Note_on_c, 0, 48, 29
2, 226738, Control_c, 0, 64, 63
2, 226825, Control_c, 0, 64, 127
2, 226897, Note_on_c, 0, 31, 0
2, 226951, Note_on_c, 0, 38, 0
2, 226973, Note_on_c, 0, 57, 51
2, 227032, Note_on_c, 0, 56, 0
2, 227203, Note_on_c, 0, 50, 0
2, 227204, Note_on_c, 0, 48, 0
2, 227243, Note_on_c, 0, 57, 0
2, 227244, Note_on_c, 0, 42, 43
2, 227403, Control_c, 0, 64, 63
2, 227509, Note_on_c, 0, 46, 63
2, 227555, Control_c, 0, 64, 127
2, 227765, Note_on_c, 0, 46, 0
2, 227789, Note_on_c, 0, 42, 0
2, 227798, Note_on_c, 0, 45, 46
2, 227803, Note_on_c, 0, 50, 68
2, 227816, Note_on_c, 0, 48, 49
2, 227894, Control_c, 0, 64, 63
2, 227981, Control_c, 0, 64, 127
2, 228061, Note_on_c, 0, 43, 58
2, 228117, Note_on_c, 0, 45, 0
2, 228248, Control_c, 0, 64, 63
2, 228297, Control_c, 0, 64, 0
2, 228355, Note_on_c, 0, 42, 58
2, 228411, Note_on_c, 0, 43, 0
2, 228418, Control_c, 0, 64, 63
2, 228454, Control_c, 0, 64, 127
2, 228624, Note_on_c, 0, 48, 0
2, 228667, Note_on_c, 0, 50, 0
2, 228672, Note_on_c, 0, 40, 45
2, 228687, Note_on_c, 0, 42, 0
2, 229003, Note_on_c, 0, 42, 53
2, 229017, Note_on_c, 0, 50, 50
2, 229025, Note_on_c, 0, 46, 33
2, 229095, Note_on_c, 0, 40, 0
2, 229137, Control_c, 0, 64, 63
2, 229191, Control_c, 0, 64, 0
2, 229277, Control_c, 0, 64, 63
2, 229327, Note_on_c, 0, 43, 40
2, 229328, Control_c, 0, 64, 127
2, 229340, Note_on_c, 0, 42, 0
2, 229628, Note_on_c, 0, 50, 0
2, 229733, Note_on_c, 0, 31, 44
2, 229738, Note_on_c, 0, 46, 0
2, 229820, Note_on_c, 0, 43, 0
2, 229904, Control_c, 0, 64, 63
2, 230052, Control_c, 0, 64, 0
2, 230183, Note_on_c, 0, 38, 41
2, 230466, Note_on_c, 0, 31, 0
2, 230658, Note_on_c, 0, 50, 32
2, 230661, Note_on_c, 0, 42, 12
2, 230677, Note_on_c, 0, 48, 40
2, 230683, Control_c, 0, 64, 63
2, 230689, Control_c, 0, 64, 127
2, 230770, Note_on_c, 0, 38, 0
2, 230940, Note_on_c, 0, 50, 0
2, 230955, Note_on_c, 0, 42, 0
2, 230972, Note_on_c, 0, 48, 0
2, 231023, Note_on_c, 0, 31, 28
2, 231280, Control_c, 0, 64, 63
2, 231316, Control_c, 0, 64, 0
2, 231376, Note_on_c, 0, 46, 41
2, 231390, Note_on_c, 0, 50, 47
2, 231406, Control_c, 0, 64, 63
2, 231408, Note_on_c, 0, 43, 29
2, 231446, Control_c, 0, 64, 127
2, 231569, Note_on_c, 0, 50, 0
2, 231588, Note_on_c, 0, 46, 0
2, 231592, Note_on_c, 0, 43, 0
2, 231675, Control_c, 0, 64, 63
2, 231711, Note_on_c, 0, 38, 45
2, 231752, Control_c, 0, 64, 0
2, 231811, Note_on_c, 0, 31, 0
2, 231987, Note_on_c, 0, 50, 54
2, 231989, Note_on_c, 0, 54, 55
2, 232011, Control_c, 0, 64, 63
2, 232015, Note_on_c, 0, 45, 17
2, 232042, Control_c, 0, 64, 127
2, 232198, Note_on_c, 0, 45, 0
2, 232199, Note_on_c, 0, 50, 0
2, 232211, Note_on_c, 0, 54, 0
2, 232224, Control_c, 0, 64, 63
2, 232252, Note_on_c, 0, 31, 50
2, 232278, Note_on_c, 0, 38, 0
2, 232285, Control_c, 0, 64, 0
2, 232523, Control_c, 0, 64, 63
2, 232543, Note_on_c, 0, 46, 44
2, 232554, Note_on_c, 0, 55, 51
2, 232556, Control_c, 0, 64, 127
2, 232569, Note_on_c, 0, 50, 50
2, 232722, Control_c, 0, 64, 63
2, 232738, Note_on_c, 0, 46, 0
2, 232744, Note_on_c, 0, 50, 0
2, 232754, Note_on_c, 0, 55, 0
2, 232797, Control_c, 0, 64, 0
2, 232812, Note_on_c, 0, 38, 55
2, 232854, Note_on_c, 0, 31, 0
2, 233021, Control_c, 0, 64, 63
2, 233060, Control_c, 0, 64, 127
2, 233090, Note_on_c, 0, 54, 63
2, 233101, Note_on_c, 0, 57, 55
2, 233110, Note_on_c, 0, 50, 43
2, 233242, Note_on_c, 0, 54, 0
2, 233247, Note_on_c, 0, 50, 0
2, 233251, Note_on_c, 0, 57, 0
2, 233329, Note_on_c, 0, 31, 65
2, 233339, Control_c, 0, 64, 63
2, 233373, Control_c, 0, 64, 0
2, 233381, Note_on_c, 0, 38, 0
2, 233572, Control_c, 0, 64, 63
2, 233587, Note_on_c, 0, 55, 52
2, 233589, Note_on_c, 0, 58, 70
2, 233599, Control_c, 0, 64, 127
2, 233603, Note_on_c, 0, 50, 55
2, 233706, Note_on_c, 0, 50, 0
2, 233737, Note_on_c, 0, 55, 0
2, 233760, Note_on_c, 0, 58, 0
2, 233850, Note_on_c, 0, 38, 55
2, 233856, Control_c, 0, 64, 63
2, 233882, Note_on_c, 0, 31, 0
2, 233908, Control_c, 0, 64, 0
2, 234055, Control_c, 0, 64, 63
2, 234092, Control_c, 0, 64, 127
2, 234109, Note_on_c, 0, 54, 40
2, 234122, Note_on_c, 0, 62, 69
2, 234131, Note_on_c, 0, 60, 54
2, 234258, Note_on_c, 0, 54, 0
2, 234260, Note_on_c, 0, 60, 0
2, 234291, Note_on_c, 0, 62, 0
2, 234370, Note_on_c, 0, 31, 57
2, 234418, Control_c, 0, 64, 63
2, 234441, Control_c, 0, 64, 0
2, 234462, Note_on_c, 0, 38, 0
2, 234564, Control_c, 0, 64, 63
2, 234583, Control_c, 0, 64, 127
2, 234625, Note_on_c, 0, 31, 0
2, 234665, Note_on_c, 0, 58, 40
2, 234677, Note_on_c, 0, 67, 49
2, 234689, Note_on_c, 0, 62, 41
2, 234807, Note_on_c, 0, 67, 0
2, 234827, Note_on_c, 0, 62, 0
2, 234852, Note_on_c, 0, 58, 0
2, 234922, Note_on_c, 0, 50, 48
2, 235074, Control_c, 0, 64, 63
2, 235120, Control_c, 0, 64, 0
2, 235237, Note_on_c, 0, 62, 70
2, 235245, Note_on_c, 0, 54, 37
2, 235282, Control_c, 0, 64, 63
2, 235289, Note_on_c, 0, 60, 44
2, 235310, Control_c, 0, 64, 127
2, 235428, Note_on_c, 0, 54, 0
2, 235441, Note_on_c, 0, 60, 0
2, 235464, Note_on_c, 0, 62, 0
2, 235489, Note_on_c, 0, 43, 66
2, 235535, Note_on_c, 0, 50, 0
2, 235813, Note_on_c, 0, 62, 77
2, 235826, Note_on_c, 0, 58, 61
2, 235851, Control_c, 0, 64, 63
2, 235893, Note_on_c, 0, 55, 6
2, 235972, Control_c, 0, 64, 127
2, 236088, Note_on_c, 0, 55, 0
2, 236110, Note_on_c, 0, 50, 71
2, 236111, Note_on_c, 0, 62, 0
2, 236113, Note_on_c, 0, 58, 0
2, 236141, Note_on_c, 0, 43, 0
2, 236339, Control_c, 0, 64, 63
2, 236394, Note_on_c, 0, 66, 67
2, 236402, Control_c, 0, 64, 0
2, 236405, Note_on_c, 0, 57, 29
2, 236412, Note_on_c, 0, 62, 52
2, 236506, Control_c, 0, 64, 63
2, 236541, Note_on_c, 0, 57, 0
2, 236545, Control_c, 0, 64, 127
2, 236550, Note_on_c, 0, 62, 0
2, 236582, Note_on_c, 0, 66, 0
2, 236635, Note_on_c, 0, 43, 71
2, 236673, Note_on_c, 0, 50, 0
2, 236840, Control_c, 0, 64, 63
2, 236878, Control_c, 0, 64, 0
2, 236895, Note_on_c, 0, 67, 71
2, 236897, Note_on_c, 0, 58, 48
2, 236898, Note_on_c, 0, 62, 60
2, 236991, Control_c, 0, 64, 63
2, 237018, Control_c, 0, 64, 127
2, 237069, Note_on_c, 0, 67, 0
2, 237081, Note_on_c, 0, 58, 0
2, 237082, Note_on_c, 0, 62, 0
2, 237133, Note_on_c, 0, 50, 76
2, 237172, Note_on_c, 0, 43, 0
2, 237301, Control_c, 0, 64, 63
2, 237336, Control_c, 0, 64, 0
2, 237367, Note_on_c, 0, 69, 75
2, 237379, Note_on_c, 0, 66, 76
2, 237392, Note_on_c, 0, 62, 55
2, 237438, Control_c, 0, 64, 63
2, 237470, Control_c, 0, 64, 127
2, 237523, Note_on_c, 0, 66, 0
2, 237541, Note_on_c, 0, 69, 0
2, 237551, Note_on_c, 0, 62, 0
2, 237622, Note_on_c, 0, 43, 79
2, 237656, Note_on_c, 0, 50, 0
2, 237721, Control_c, 0, 64, 63
2, 237754, Control_c, 0, 64, 0
2, 237844, Note_on_c, 0, 70, 84
2, 237847, Note_on_c, 0, 67, 60
2, 237861, Note_on_c, 0, 62, 61
2, 237890, Control_c, 0, 64, 63
2, 237918, Control_c, 0, 64, 127
2, 237958, Note_on_c, 0, 62, 0
2, 237985, Note_on_c, 0, 67, 0
2, 238004, Note_on_c, 0, 70, 0
2, 238090, Note_on_c, 0, 50, 84
2, 238124, Note_on_c, 0, 43, 0
2, 238204, Control_c, 0, 64, 63
2, 238234, Control_c, 0, 64, 0
2, 238323, Note_on_c, 0, 74, 80
2, 238326, Note_on_c, 0, 66, 65
2, 238341, Note_on_c, 0, 72, 65
2, 238357, Control_c, 0, 64, 63
2, 238381, Control_c, 0, 64, 127
2, 238434, Note_on_c, 0, 66, 0
2, 238445, Note_on_c, 0, 72, 0
2, 238475, Note_on_c, 0, 74, 0
2, 238550, Note_on_c, 0, 43, 84
2, 238617, Note_on_c, 0, 50, 0
2, 238661, Control_c, 0, 64, 63
2, 238687, Control_c, 0, 64, 0
2, 238795, Note_on_c, 0, 79, 79
2, 238804, Note_on_c, 0, 74, 61
2, 238809, Control_c, 0, 64, 63
2, 238810, Note_on_c, 0, 70, 54
2, 238836, Control_c, 0, 64, 127
2, 238920, Note_on_c, 0, 79, 0
2, 238929, Note_on_c, 0, 74, 0
2, 238973, Note_on_c, 0, 70, 0
2, 239028, Note_on_c, 0, 50, 66
2, 239063, Note_on_c, 0, 43, 0
2, 239163, Control_c, 0, 64, 63
2, 239192, Control_c, 0, 64, 0
2, 239281, Note_on_c, 0, 74, 66
2, 239284, Note_on_c, 0, 66, 34
2, 239294, Control_c, 0, 64, 63
2, 239309, Note_on_c, 0, 72, 41
2, 239322, Control_c, 0, 64, 127
2, 239398, Note_on_c, 0, 72, 0
2, 239405, Note_on_c, 0, 66, 0
2, 239430, Note_on_c, 0, 74, 0
2, 239522, Note_on_c, 0, 43, 55
2, 239561, Note_on_c, 0, 50, 0
2, 239641, Control_c, 0, 64, 63
2, 239714, Control_c, 0, 64, 127
2, 239718, Note_on_c, 0, 67, 38
2, 239746, Note_on_c, 0, 70, 55
2, 239798, Note_on_c, 0, 74, 44
2, 239811, Note_on_c, 0, 67, 0
2, 239860, Note_on_c, 0, 79, 55
2, 240018, Note_on_c, 0, 70, 0
2, 240022, Note_on_c, 0, 79, 0
2, 240032, Note_on_c, 0, 74, 0
2, 240135, Note_on_c, 0, 50, 46
2, 240148, Note_on_c, 0, 43, 0
2, 240398, Note_on_c, 0, 66, 49
2, 240406, Note_on_c, 0, 74, 60
2, 240458, Note_on_c, 0, 72, 19
2, 240540, Note_on_c, 0, 66, 0
2, 240542, Note_on_c, 0, 72, 0
2, 240573, Note_on_c, 0, 74, 0
2, 240651, Note_on_c, 0, 43, 51
2, 240731, Note_on_c, 0, 50, 0
2, 240820, Note_on_c, 0, 43, 0
2, 240948, Note_on_c, 0, 67, 35
2, 240975, Note_on_c, 0, 70, 50
2, 241022, Note_on_c, 0, 74, 44
2, 241065, Note_on_c, 0, 67, 0
2, 241095, Note_on_c, 0, 79, 53
2, 241163, Note_on_c, 0, 70, 0
2, 241292, Note_on_c, 0, 74, 0
2, 241345, Note_on_c, 0, 79, 0
2, 241346, Note_on_c, 0, 62, 41
2, 241703, Note_on_c, 0, 78, 37
2, 241714, Control_c, 0, 64, 63
2, 241730, Note_on_c, 0, 86, 55
2, 241734, Note_on_c, 0, 84, 45
2, 241816, Control_c, 0, 64, 127
2, 241905, Note_on_c, 0, 78, 0
2, 241908, Note_on_c, 0, 84, 0
2, 241945, Note_on_c, 0, 86, 0
2, 242014, Note_on_c, 0, 55, 43
2, 242114, Note_on_c, 0, 62, 0
2, 242266, Note_on_c, 0, 79, 35
2, 242309, Note_on_c, 0, 82, 55
2, 242383, Note_on_c, 0, 86, 46
2, 242442, Note_on_c, 0, 91, 48
2, 242443, Note_on_c, 0, 79, 0
2, 242595, Note_on_c, 0, 82, 0
2, 242606, Note_on_c, 0, 86, 0
2, 242630, Note_on_c, 0, 91, 0
2, 242744, Note_on_c, 0, 62, 39
2, 242749, Note_on_c, 0, 55, 0
2, 242994, Note_on_c, 0, 78, 49
2, 242998, Note_on_c, 0, 86, 65
2, 243049, Note_on_c, 0, 84, 34
2, 243114, Note_on_c, 0, 84, 0
2, 243115, Note_on_c, 0, 78, 0
2, 243147, Note_on_c, 0, 86, 0
2, 243256, Note_on_c, 0, 55, 50
2, 243335, Note_on_c, 0, 62, 0
2, 243511, Note_on_c, 0, 79, 20
2, 243549, Note_on_c, 0, 82, 58
2, 243618, Note_on_c, 0, 86, 46
2, 243634, Note_on_c, 0, 55, 0
2, 243648, Note_on_c, 0, 79, 0
2, 243672, Note_on_c, 0, 91, 52
2, 243806, Note_on_c, 0, 82, 0
2, 243874, Note_on_c, 0, 91, 0
2, 243875, Note_on_c, 0, 86, 0
2, 244050, Note_on_c, 0, 67, 35
2, 244065, Note_on_c, 0, 74, 27
2, 244311, Note_on_c, 0, 67, 0
2, 244351, Note_on_c, 0, 79, 35
2, 244358, Note_on_c, 0, 74, 0
2, 244389, Note_on_c, 0, 82, 53
2, 244454, Note_on_c, 0, 86, 37
2, 244493, Note_on_c, 0, 91, 54
2, 244530, Note_on_c, 0, 79, 0
2, 244641, Note_on_c, 0, 82, 0
2, 244692, Note_on_c, 0, 86, 0
2, 244716, Note_on_c, 0, 91, 0
2, 244786, Note_on_c, 0, 67, 33
2, 244789, Note_on_c, 0, 74, 25
2, 244996, Note_on_c, 0, 67, 0
2, 245018, Note_on_c, 0, 74, 0
2, 245053, Note_on_c, 0, 79, 40
2, 245073, Note_on_c, 0, 82, 55
2, 245127, Note_on_c, 0, 86, 36
2, 245151, Note_on_c, 0, 91, 43
2, 245205, Note_on_c, 0, 79, 0
2, 245283, Note_on_c, 0, 82, 0
2, 245330, Note_on_c, 0, 86, 0
2, 245362, Note_on_c, 0, 91, 0
2, 245380, Note_on_c, 0, 74, 35
2, 245385, Note_on_c, 0, 67, 31
2, 245575, Note_on_c, 0, 74, 0
2, 245578, Note_on_c, 0, 67, 0
2, 245598, Note_on_c, 0, 79, 29
2, 245637, Note_on_c, 0, 82, 47
2, 245694, Note_on_c, 0, 86, 47
2, 245722, Note_on_c, 0, 91, 63
2, 245738, Note_on_c, 0, 79, 0
2, 245833, Note_on_c, 0, 82, 0
2, 245872, Note_on_c, 0, 86, 0
2, 245904, Note_on_c, 0, 91, 0
2, 245942, Note_on_c, 0, 74, 34
2, 245956, Note_on_c, 0, 67, 34
2, 246136, Note_on_c, 0, 74, 0
2, 246143, Note_on_c, 0, 67, 0
2, 246169, Note_on_c, 0, 79, 24
2, 246204, Note_on_c, 0, 82, 43
2, 246266, Note_on_c, 0, 86, 40
2, 246288, Note_on_c, 0, 91, 56
2, 246309, Note_on_c, 0, 79, 0
2, 246440, Note_on_c, 0, 82, 0
2, 246467, Note_on_c, 0, 86, 0
2, 246489, Note_on_c, 0, 91, 0
2, 246531, Note_on_c, 0, 74, 31
2, 246552, Note_on_c, 0, 67, 28
2, 246725, Note_on_c, 0, 67, 0
2, 246742, Note_on_c, 0, 74, 0
2, 246786, Note_on_c, 0, 79, 17
2, 246819, Note_on_c, 0, 82, 37
2, 246897, Note_on_c, 0, 86, 35
2, 246911, Note_on_c, 0, 91, 40
2, 246967, Note_on_c, 0, 79, 0
2, 247084, Note_on_c, 0, 82, 0
2, 247135, Note_on_c, 0, 91, 0
2, 247143, Note_on_c, 0, 86, 0
2, 247167, Note_on_c, 0, 74, 30
2, 247186, Note_on_c, 0, 67, 24
2, 247359, Note_on_c, 0, 67, 0
2, 247384, Note_on_c, 0, 74, 0
2, 247450, Note_on_c, 0, 79, 15
2, 247484, Note_on_c, 0, 82, 36
2, 247561, Note_on_c, 0, 86, 28
2, 247588, Note_on_c, 0, 91, 42
2, 247634, Note_on_c, 0, 79, 0
2, 247790, Note_on_c, 0, 82, 0
2, 247826, Note_on_c, 0, 86, 0
2, 247854, Note_on_c, 0, 91, 0
2, 247905, Note_on_c, 0, 74, 25
2, 247925, Note_on_c, 0, 67, 15
2, 248152, Note_on_c, 0, 67, 0
2, 248155, Note_on_c, 0, 74, 0
2, 248242, Note_on_c, 0, 79, 19
2, 248277, Note_on_c, 0, 82, 30
2, 248342, Note_on_c, 0, 86, 27
2, 248366, Note_on_c, 0, 91, 34
2, 248419, Note_on_c, 0, 79, 0
2, 248587, Note_on_c, 0, 82, 0
2, 248651, Note_on_c, 0, 86, 0
2, 248688, Note_on_c, 0, 91, 0
2, 248798, Note_on_c, 0, 74, 20
2, 248814, Note_on_c, 0, 67, 23
2, 249715, Note_on_c, 0, 91, 21
2, 249718, Note_on_c, 0, 82, 33
2, 249722, Note_on_c, 0, 79, 32
2, 249727, Note_on_c, 0, 86, 30
2, 251364, Note_on_c, 0, 86, 0
2, 251426, Note_on_c, 0, 82, 0
2, 251439, Note_on_c, 0, 91, 0
2, 251451, Note_on_c, 0, 79, 0
2, 251533, Note_on_c, 0, 67, 0
2, 251539, Note_on_c, 0, 74, 0
2, 251764, Control_c, 0, 64, 63
2, 251809, Control_c, 0, 64, 0
2, 252004, Control_c, 0, 67, 0
2, 252004, End_track
0, 0, End_of_file
