0, 0, Header, 1, 5, 480
1, 0, Start_track
1, 0, Title_t, "tchaikovsky six pieces op19 no2 scherzo humoristique"
1, 0, Copyright_t, "Adaptation for Disklavier pianos, by: Robert C. Kuhmann (c) 2012."
1, 0, Text_t, "Seq. (c) by: Segundo G. Yogore,  2007,  dody@pldtdsl.net\012"
1, 0, Time_signature, 3, 3, 12, 8
1, 0, Key_signature, 2, "major"
1, 0, Tempo, 333333
1, 48240, Tempo, 333333
1, 64560, Tempo, 344828
1, 64800, Tempo, 357143
1, 65040, Tempo, 370370
1, 65280, Tempo, 389610
1, 65520, Tempo, 405405
1, 65760, Tempo, 422535
1, 66000, Tempo, 441176
1, 66240, Tempo, 468750
1, 66960, Time_signature, 6, 3, 12, 8
1, 68400, Time_signature, 3, 3, 12, 8
1, 68400, Key_signature, -3, "major"
1, 68400, Tempo, 400000
1, 131040, Tempo, 363636
1, 137520, Key_signature, 2, "major"
1, 137520, Tempo, 333333
1, 185760, Tempo, 333333
1, 227520, Time_signature, 8, 2, 24, 8
1, 227520, End_track
2, 0, Start_track
2, 0, Title_t, "Grand Piano"
2, 0, Program_c, 0, 0
2, 0, Control_c, 0, 7, 115
2, 0, Control_c, 0, 10, 86
2, 0, Note_on_c, 0, 80, 62
2, 480, Note_on_c, 0, 80, 0
2, 480, Note_on_c, 0, 81, 62
2, 720, Note_on_c, 0, 81, 0
2, 720, Note_on_c, 0, 78, 62
2, 720, Note_on_c, 0, 86, 62
2, 960, Note_on_c, 0, 86, 0
2, 960, Note_on_c, 0, 78, 0
2, 1440, Note_on_c, 0, 77, 62
2, 1920, Note_on_c, 0, 77, 0
2, 1920, Note_on_c, 0, 78, 62
2, 2160, Note_on_c, 0, 78, 0
2, 2160, Note_on_c, 0, 74, 62
2, 2160, Note_on_c, 0, 83, 62
2, 2400, Note_on_c, 0, 83, 0
2, 2400, Note_on_c, 0, 74, 0
2, 2880, Note_on_c, 0, 67, 62
2, 3000, Note_on_c, 0, 67, 0
2, 3000, Note_on_c, 0, 70, 62
2, 3120, Note_on_c, 0, 70, 0
2, 3120, Note_on_c, 0, 74, 62
2, 3240, Note_on_c, 0, 74, 0
2, 3240, Note_on_c, 0, 73, 62
2, 3360, Note_on_c, 0, 73, 0
2, 3360, Note_on_c, 0, 67, 62
2, 3480, Note_on_c, 0, 67, 0
2, 3480, Note_on_c, 0, 70, 62
2, 3600, Note_on_c, 0, 70, 0
2, 3600, Note_on_c, 0, 78, 75
2, 3720, Note_on_c, 0, 78, 0
2, 3720, Note_on_c, 0, 76, 75
2, 3840, Note_on_c, 0, 76, 0
2, 3840, Note_on_c, 0, 70, 75
2, 3960, Note_on_c, 0, 70, 0
2, 3960, Note_on_c, 0, 76, 75
2, 4080, Note_on_c, 0, 76, 0
2, 4080, Note_on_c, 0, 81, 75
2, 4200, Note_on_c, 0, 81, 0
2, 4200, Note_on_c, 0, 79, 75
2, 4320, Note_on_c, 0, 79, 0
2, 4320, Note_on_c, 0, 76, 75
2, 4440, Note_on_c, 0, 76, 0
2, 4440, Note_on_c, 0, 79, 75
2, 4560, Note_on_c, 0, 79, 0
2, 4560, Note_on_c, 0, 86, 75
2, 4680, Note_on_c, 0, 86, 0
2, 4680, Note_on_c, 0, 85, 75
2, 4800, Note_on_c, 0, 85, 0
2, 4800, Note_on_c, 0, 79, 88
2, 4920, Note_on_c, 0, 79, 0
2, 4920, Note_on_c, 0, 85, 88
2, 5040, Note_on_c, 0, 85, 0
2, 5040, Note_on_c, 0, 90, 88
2, 5160, Note_on_c, 0, 90, 0
2, 5160, Note_on_c, 0, 88, 88
2, 5280, Note_on_c, 0, 88, 0
2, 5280, Note_on_c, 0, 86, 88
2, 5400, Note_on_c, 0, 86, 0
2, 5400, Note_on_c, 0, 85, 88
2, 5520, Note_on_c, 0, 85, 0
2, 5520, Note_on_c, 0, 83, 88
2, 5640, Note_on_c, 0, 83, 0
2, 5640, Note_on_c, 0, 81, 88
2, 5760, Note_on_c, 0, 81, 0
2, 5760, Note_on_c, 0, 80, 62
2, 6240, Note_on_c, 0, 80, 0
2, 6240, Note_on_c, 0, 81, 62
2, 6480, Note_on_c, 0, 81, 0
2, 6480, Note_on_c, 0, 78, 62
2, 6480, Note_on_c, 0, 86, 62
2, 6720, Note_on_c, 0, 86, 0
2, 6720, Note_on_c, 0, 78, 0
2, 7200, Note_on_c, 0, 77, 62
2, 7680, Note_on_c, 0, 77, 0
2, 7680, Note_on_c, 0, 78, 62
2, 7920, Note_on_c, 0, 78, 0
2, 7920, Note_on_c, 0, 74, 62
2, 7920, Note_on_c, 0, 83, 62
2, 8160, Note_on_c, 0, 83, 0
2, 8160, Note_on_c, 0, 74, 0
2, 8640, Note_on_c, 0, 67, 62
2, 8760, Note_on_c, 0, 67, 0
2, 8760, Note_on_c, 0, 70, 62
2, 8880, Note_on_c, 0, 70, 0
2, 8880, Note_on_c, 0, 74, 62
2, 9000, Note_on_c, 0, 74, 0
2, 9000, Note_on_c, 0, 73, 62
2, 9120, Note_on_c, 0, 73, 0
2, 9120, Note_on_c, 0, 67, 62
2, 9240, Note_on_c, 0, 67, 0
2, 9240, Note_on_c, 0, 70, 62
2, 9360, Note_on_c, 0, 70, 0
2, 9360, Note_on_c, 0, 78, 75
2, 9480, Note_on_c, 0, 78, 0
2, 9480, Note_on_c, 0, 76, 75
2, 9600, Note_on_c, 0, 76, 0
2, 9600, Note_on_c, 0, 70, 75
2, 9720, Note_on_c, 0, 70, 0
2, 9720, Note_on_c, 0, 76, 75
2, 9840, Note_on_c, 0, 76, 0
2, 9840, Note_on_c, 0, 81, 75
2, 9960, Note_on_c, 0, 81, 0
2, 9960, Note_on_c, 0, 79, 75
2, 10080, Note_on_c, 0, 79, 0
2, 10080, Note_on_c, 0, 76, 75
2, 10200, Note_on_c, 0, 76, 0
2, 10200, Note_on_c, 0, 79, 75
2, 10320, Note_on_c, 0, 79, 0
2, 10320, Note_on_c, 0, 86, 75
2, 10440, Note_on_c, 0, 86, 0
2, 10440, Note_on_c, 0, 85, 75
2, 10560, Note_on_c, 0, 85, 0
2, 10560, Note_on_c, 0, 79, 75
2, 10680, Note_on_c, 0, 79, 0
2, 10680, Note_on_c, 0, 85, 75
2, 10800, Note_on_c, 0, 85, 0
2, 10800, Note_on_c, 0, 88, 75
2, 10920, Note_on_c, 0, 88, 0
2, 10920, Note_on_c, 0, 86, 75
2, 11040, Note_on_c, 0, 86, 0
2, 11040, Note_on_c, 0, 78, 75
2, 11160, Note_on_c, 0, 78, 0
2, 11160, Note_on_c, 0, 82, 75
2, 11280, Note_on_c, 0, 82, 0
2, 11280, Note_on_c, 0, 86, 75
2, 11400, Note_on_c, 0, 86, 0
2, 11400, Note_on_c, 0, 85, 75
2, 11520, Note_on_c, 0, 85, 0
2, 11520, Note_on_c, 0, 78, 75
2, 11640, Note_on_c, 0, 78, 0
2, 11640, Note_on_c, 0, 82, 75
2, 11760, Note_on_c, 0, 82, 0
2, 11760, Note_on_c, 0, 85, 75
2, 11880, Note_on_c, 0, 85, 0
2, 11880, Note_on_c, 0, 83, 75
2, 12000, Note_on_c, 0, 83, 0
2, 12000, Note_on_c, 0, 71, 75
2, 12120, Note_on_c, 0, 71, 0
2, 12120, Note_on_c, 0, 78, 75
2, 12240, Note_on_c, 0, 78, 0
2, 12240, Note_on_c, 0, 81, 75
2, 12360, Note_on_c, 0, 81, 0
2, 12360, Note_on_c, 0, 79, 75
2, 12480, Note_on_c, 0, 79, 0
2, 12480, Note_on_c, 0, 71, 75
2, 12600, Note_on_c, 0, 71, 0
2, 12600, Note_on_c, 0, 75, 75
2, 12720, Note_on_c, 0, 75, 0
2, 12720, Note_on_c, 0, 79, 75
2, 12840, Note_on_c, 0, 79, 0
2, 12840, Note_on_c, 0, 78, 75
2, 12960, Note_on_c, 0, 78, 0
2, 12960, Note_on_c, 0, 71, 88
2, 13080, Note_on_c, 0, 71, 0
2, 13080, Note_on_c, 0, 75, 88
2, 13200, Note_on_c, 0, 75, 0
2, 13200, Note_on_c, 0, 78, 88
2, 13320, Note_on_c, 0, 78, 0
2, 13320, Note_on_c, 0, 76, 88
2, 13440, Note_on_c, 0, 76, 0
2, 13440, Note_on_c, 0, 85, 88
2, 13560, Note_on_c, 0, 85, 0
2, 13560, Note_on_c, 0, 83, 88
2, 13680, Note_on_c, 0, 83, 0
2, 13680, Note_on_c, 0, 76, 88
2, 14160, Note_on_c, 0, 76, 0
2, 14160, Note_on_c, 0, 70, 88
2, 14160, Note_on_c, 0, 78, 88
2, 14160, Note_on_c, 0, 82, 88
2, 14640, Note_on_c, 0, 82, 0
2, 14640, Note_on_c, 0, 78, 0
2, 14640, Note_on_c, 0, 70, 0
2, 14640, Note_on_c, 0, 71, 88
2, 14640, Note_on_c, 0, 76, 88
2, 14640, Note_on_c, 0, 83, 88
2, 15120, Note_on_c, 0, 83, 0
2, 15120, Note_on_c, 0, 76, 0
2, 15120, Note_on_c, 0, 71, 0
2, 15120, Note_on_c, 0, 72, 88
2, 15120, Note_on_c, 0, 78, 88
2, 15120, Note_on_c, 0, 81, 88
2, 15120, Note_on_c, 0, 84, 88
2, 15600, Note_on_c, 0, 84, 0
2, 15600, Note_on_c, 0, 72, 0
2, 15600, Note_on_c, 0, 78, 0
2, 15600, Note_on_c, 0, 81, 0
2, 15600, Note_on_c, 0, 73, 101
2, 15600, Note_on_c, 0, 79, 101
2, 15600, Note_on_c, 0, 85, 101
2, 15840, Note_on_c, 0, 85, 0
2, 15840, Note_on_c, 0, 79, 0
2, 15840, Note_on_c, 0, 73, 0
2, 15840, Note_on_c, 0, 74, 101
2, 15840, Note_on_c, 0, 78, 101
2, 15840, Note_on_c, 0, 86, 101
2, 16080, Note_on_c, 0, 86, 0
2, 16080, Note_on_c, 0, 78, 0
2, 16080, Note_on_c, 0, 74, 0
2, 16560, Note_on_c, 0, 70, 62
2, 16920, Note_on_c, 0, 70, 0
2, 16920, Note_on_c, 0, 71, 62
2, 17040, Note_on_c, 0, 71, 0
2, 17040, Note_on_c, 0, 73, 62
2, 17160, Note_on_c, 0, 73, 0
2, 17160, Note_on_c, 0, 71, 62
2, 17280, Note_on_c, 0, 71, 0
2, 17280, Note_on_c, 0, 78, 62
2, 17327, Note_on_c, 0, 78, 0
2, 17520, Note_on_c, 0, 72, 62
2, 17760, Note_on_c, 0, 72, 0
2, 17760, Note_on_c, 0, 73, 62
2, 18000, Note_on_c, 0, 73, 0
2, 18000, Note_on_c, 0, 70, 62
2, 18360, Note_on_c, 0, 70, 0
2, 18360, Note_on_c, 0, 71, 62
2, 18480, Note_on_c, 0, 71, 0
2, 18480, Note_on_c, 0, 73, 62
2, 18600, Note_on_c, 0, 73, 0
2, 18600, Note_on_c, 0, 71, 62
2, 18720, Note_on_c, 0, 71, 0
2, 18720, Note_on_c, 0, 78, 62
2, 18767, Note_on_c, 0, 78, 0
2, 18960, Note_on_c, 0, 72, 62
2, 19200, Note_on_c, 0, 72, 0
2, 19200, Note_on_c, 0, 73, 62
2, 19440, Note_on_c, 0, 73, 0
2, 19440, Note_on_c, 0, 70, 62
2, 19800, Note_on_c, 0, 70, 0
2, 19800, Note_on_c, 0, 71, 62
2, 19920, Note_on_c, 0, 71, 0
2, 19920, Note_on_c, 0, 73, 62
2, 20040, Note_on_c, 0, 73, 0
2, 20040, Note_on_c, 0, 71, 62
2, 20160, Note_on_c, 0, 71, 0
2, 20160, Note_on_c, 0, 77, 75
2, 20207, Note_on_c, 0, 77, 0
2, 20400, Note_on_c, 0, 73, 75
2, 20640, Note_on_c, 0, 73, 0
2, 20640, Note_on_c, 0, 78, 75
2, 20880, Note_on_c, 0, 78, 0
2, 20880, Note_on_c, 0, 79, 75
2, 21240, Note_on_c, 0, 79, 0
2, 21240, Note_on_c, 0, 80, 75
2, 21360, Note_on_c, 0, 80, 0
2, 21360, Note_on_c, 0, 81, 75
2, 21480, Note_on_c, 0, 81, 0
2, 21480, Note_on_c, 0, 80, 75
2, 21600, Note_on_c, 0, 80, 0
2, 21600, Note_on_c, 0, 89, 88
2, 21840, Note_on_c, 0, 89, 0
2, 21840, Note_on_c, 0, 85, 88
2, 22080, Note_on_c, 0, 85, 0
2, 22080, Note_on_c, 0, 90, 88
2, 22320, Note_on_c, 0, 90, 0
2, 22320, Note_on_c, 0, 70, 62
2, 22680, Note_on_c, 0, 70, 0
2, 22680, Note_on_c, 0, 71, 62
2, 22800, Note_on_c, 0, 71, 0
2, 22800, Note_on_c, 0, 73, 62
2, 22920, Note_on_c, 0, 73, 0
2, 22920, Note_on_c, 0, 71, 62
2, 23040, Note_on_c, 0, 71, 0
2, 23040, Note_on_c, 0, 78, 62
2, 23087, Note_on_c, 0, 78, 0
2, 23280, Note_on_c, 0, 72, 62
2, 23520, Note_on_c, 0, 72, 0
2, 23520, Note_on_c, 0, 73, 62
2, 23760, Note_on_c, 0, 73, 0
2, 23760, Note_on_c, 0, 70, 62
2, 24120, Note_on_c, 0, 70, 0
2, 24120, Note_on_c, 0, 71, 62
2, 24240, Note_on_c, 0, 71, 0
2, 24240, Note_on_c, 0, 73, 62
2, 24360, Note_on_c, 0, 73, 0
2, 24360, Note_on_c, 0, 71, 62
2, 24480, Note_on_c, 0, 71, 0
2, 24480, Note_on_c, 0, 78, 62
2, 24527, Note_on_c, 0, 78, 0
2, 24720, Note_on_c, 0, 72, 62
2, 24960, Note_on_c, 0, 72, 0
2, 24960, Note_on_c, 0, 73, 62
2, 25200, Note_on_c, 0, 73, 0
2, 25200, Note_on_c, 0, 72, 75
2, 25560, Note_on_c, 0, 72, 0
2, 25560, Note_on_c, 0, 73, 75
2, 25680, Note_on_c, 0, 73, 0
2, 25680, Note_on_c, 0, 74, 75
2, 25800, Note_on_c, 0, 74, 0
2, 25800, Note_on_c, 0, 73, 75
2, 25920, Note_on_c, 0, 73, 0
2, 25920, Note_on_c, 0, 77, 75
2, 25967, Note_on_c, 0, 77, 0
2, 26160, Note_on_c, 0, 71, 75
2, 26400, Note_on_c, 0, 71, 0
2, 26400, Note_on_c, 0, 78, 75
2, 26640, Note_on_c, 0, 78, 0
2, 26640, Note_on_c, 0, 84, 75
2, 27000, Note_on_c, 0, 84, 0
2, 27000, Note_on_c, 0, 85, 75
2, 27120, Note_on_c, 0, 85, 0
2, 27120, Note_on_c, 0, 86, 75
2, 27240, Note_on_c, 0, 86, 0
2, 27240, Note_on_c, 0, 85, 75
2, 27360, Note_on_c, 0, 85, 0
2, 27360, Note_on_c, 0, 89, 88
2, 27840, Note_on_c, 0, 89, 0
2, 27840, Note_on_c, 0, 90, 88
2, 28080, Note_on_c, 0, 90, 0
2, 28080, Note_on_c, 0, 77, 62
2, 28560, Note_on_c, 0, 77, 0
2, 28560, Note_on_c, 0, 78, 62
2, 28800, Note_on_c, 0, 78, 0
2, 28800, Note_on_c, 0, 67, 62
2, 29280, Note_on_c, 0, 67, 0
2, 29280, Note_on_c, 0, 68, 62
2, 29520, Note_on_c, 0, 68, 0
2, 29520, Note_on_c, 0, 71, 62
2, 30000, Note_on_c, 0, 71, 0
2, 30000, Note_on_c, 0, 69, 62
2, 30240, Note_on_c, 0, 69, 0
2, 30240, Note_on_c, 0, 65, 62
2, 30720, Note_on_c, 0, 65, 0
2, 30720, Note_on_c, 0, 66, 62
2, 30960, Note_on_c, 0, 66, 0
2, 30960, Note_on_c, 0, 67, 62
2, 31080, Note_on_c, 0, 67, 0
2, 31080, Note_on_c, 0, 68, 62
2, 31200, Note_on_c, 0, 68, 0
2, 31200, Note_on_c, 0, 69, 62
2, 31320, Note_on_c, 0, 69, 0
2, 31320, Note_on_c, 0, 62, 62
2, 31440, Note_on_c, 0, 62, 0
2, 31440, Note_on_c, 0, 68, 62
2, 31560, Note_on_c, 0, 68, 0
2, 31560, Note_on_c, 0, 69, 62
2, 31680, Note_on_c, 0, 69, 0
2, 31680, Note_on_c, 0, 73, 62
2, 31800, Note_on_c, 0, 73, 0
2, 31800, Note_on_c, 0, 64, 62
2, 31920, Note_on_c, 0, 64, 0
2, 31920, Note_on_c, 0, 70, 62
2, 32040, Note_on_c, 0, 70, 0
2, 32040, Note_on_c, 0, 71, 62
2, 32160, Note_on_c, 0, 71, 0
2, 32160, Note_on_c, 0, 74, 62
2, 32280, Note_on_c, 0, 74, 0
2, 32280, Note_on_c, 0, 64, 62
2, 32400, Note_on_c, 0, 64, 0
2, 32400, Note_on_c, 0, 70, 75
2, 32520, Note_on_c, 0, 70, 0
2, 32520, Note_on_c, 0, 71, 75
2, 32640, Note_on_c, 0, 71, 0
2, 32640, Note_on_c, 0, 76, 75
2, 32760, Note_on_c, 0, 76, 0
2, 32760, Note_on_c, 0, 64, 75
2, 32880, Note_on_c, 0, 64, 0
2, 32880, Note_on_c, 0, 73, 75
2, 33000, Note_on_c, 0, 73, 0
2, 33000, Note_on_c, 0, 74, 75
2, 33120, Note_on_c, 0, 74, 0
2, 33120, Note_on_c, 0, 78, 75
2, 33240, Note_on_c, 0, 78, 0
2, 33240, Note_on_c, 0, 66, 75
2, 33360, Note_on_c, 0, 66, 0
2, 33360, Note_on_c, 0, 73, 88
2, 33480, Note_on_c, 0, 73, 0
2, 33480, Note_on_c, 0, 74, 88
2, 33600, Note_on_c, 0, 74, 0
2, 33600, Note_on_c, 0, 79, 88
2, 33720, Note_on_c, 0, 79, 0
2, 33720, Note_on_c, 0, 67, 88
2, 33840, Note_on_c, 0, 67, 0
2, 33840, Note_on_c, 0, 79, 88
2, 34320, Note_on_c, 0, 79, 0
2, 34320, Note_on_c, 0, 80, 62
2, 34560, Note_on_c, 0, 80, 0
2, 34560, Note_on_c, 0, 69, 62
2, 35040, Note_on_c, 0, 69, 0
2, 35040, Note_on_c, 0, 70, 62
2, 35280, Note_on_c, 0, 70, 0
2, 35280, Note_on_c, 0, 73, 62
2, 35760, Note_on_c, 0, 73, 0
2, 35760, Note_on_c, 0, 71, 62
2, 36000, Note_on_c, 0, 71, 0
2, 36000, Note_on_c, 0, 67, 62
2, 36480, Note_on_c, 0, 67, 0
2, 36480, Note_on_c, 0, 68, 62
2, 36720, Note_on_c, 0, 68, 0
2, 36720, Note_on_c, 0, 69, 62
2, 36840, Note_on_c, 0, 69, 0
2, 36840, Note_on_c, 0, 70, 62
2, 36960, Note_on_c, 0, 70, 0
2, 36960, Note_on_c, 0, 71, 62
2, 37080, Note_on_c, 0, 71, 0
2, 37080, Note_on_c, 0, 64, 62
2, 37200, Note_on_c, 0, 64, 0
2, 37200, Note_on_c, 0, 70, 62
2, 37320, Note_on_c, 0, 70, 0
2, 37320, Note_on_c, 0, 71, 62
2, 37440, Note_on_c, 0, 71, 0
2, 37440, Note_on_c, 0, 75, 62
2, 37560, Note_on_c, 0, 75, 0
2, 37560, Note_on_c, 0, 66, 62
2, 37680, Note_on_c, 0, 66, 0
2, 37680, Note_on_c, 0, 72, 62
2, 37800, Note_on_c, 0, 72, 0
2, 37800, Note_on_c, 0, 73, 62
2, 37920, Note_on_c, 0, 73, 0
2, 37920, Note_on_c, 0, 76, 62
2, 38040, Note_on_c, 0, 76, 0
2, 38040, Note_on_c, 0, 66, 62
2, 38160, Note_on_c, 0, 66, 0
2, 38160, Note_on_c, 0, 72, 75
2, 38280, Note_on_c, 0, 72, 0
2, 38280, Note_on_c, 0, 73, 75
2, 38400, Note_on_c, 0, 73, 0
2, 38400, Note_on_c, 0, 78, 75
2, 38520, Note_on_c, 0, 78, 0
2, 38520, Note_on_c, 0, 66, 75
2, 38640, Note_on_c, 0, 66, 0
2, 38640, Note_on_c, 0, 75, 75
2, 38760, Note_on_c, 0, 75, 0
2, 38760, Note_on_c, 0, 76, 75
2, 38880, Note_on_c, 0, 76, 0
2, 38880, Note_on_c, 0, 80, 88
2, 39000, Note_on_c, 0, 80, 0
2, 39000, Note_on_c, 0, 68, 88
2, 39120, Note_on_c, 0, 68, 0
2, 39120, Note_on_c, 0, 75, 88
2, 39240, Note_on_c, 0, 75, 0
2, 39240, Note_on_c, 0, 76, 88
2, 39360, Note_on_c, 0, 76, 0
2, 39360, Note_on_c, 0, 81, 88
2, 39480, Note_on_c, 0, 81, 0
2, 39480, Note_on_c, 0, 69, 88
2, 39600, Note_on_c, 0, 69, 0
2, 39600, Note_on_c, 0, 73, 101
2, 39720, Note_on_c, 0, 73, 0
2, 39720, Note_on_c, 0, 74, 101
2, 39840, Note_on_c, 0, 74, 0
2, 39840, Note_on_c, 0, 81, 101
2, 39960, Note_on_c, 0, 81, 0
2, 39960, Note_on_c, 0, 69, 101
2, 40080, Note_on_c, 0, 69, 0
2, 40320, Note_on_c, 0, 65, 101
2, 40320, Note_on_c, 0, 68, 101
2, 40320, Note_on_c, 0, 71, 101
2, 40800, Note_on_c, 0, 71, 0
2, 40800, Note_on_c, 0, 68, 0
2, 40800, Note_on_c, 0, 65, 0
2, 40800, Note_on_c, 0, 64, 101
2, 40800, Note_on_c, 0, 69, 101
2, 40800, Note_on_c, 0, 73, 101
2, 41040, Note_on_c, 0, 73, 0
2, 41040, Note_on_c, 0, 69, 0
2, 41040, Note_on_c, 0, 64, 0
2, 41040, Control_c, 0, 64, 127
2, 41040, Note_on_c, 0, 73, 101
2, 41160, Note_on_c, 0, 73, 0
2, 41160, Note_on_c, 0, 74, 101
2, 41280, Note_on_c, 0, 74, 0
2, 41280, Note_on_c, 0, 81, 101
2, 41400, Note_on_c, 0, 81, 0
2, 41400, Control_c, 0, 64, 0
2, 41400, Note_on_c, 0, 69, 101
2, 41520, Note_on_c, 0, 69, 0
2, 41760, Note_on_c, 0, 65, 101
2, 41760, Note_on_c, 0, 68, 101
2, 41760, Note_on_c, 0, 71, 101
2, 42240, Note_on_c, 0, 71, 0
2, 42240, Note_on_c, 0, 68, 0
2, 42240, Note_on_c, 0, 65, 0
2, 42240, Note_on_c, 0, 64, 101
2, 42240, Note_on_c, 0, 69, 101
2, 42240, Note_on_c, 0, 73, 101
2, 42480, Note_on_c, 0, 73, 0
2, 42480, Note_on_c, 0, 69, 0
2, 42480, Note_on_c, 0, 64, 0
2, 42480, Control_c, 0, 64, 127
2, 42480, Note_on_c, 0, 73, 101
2, 42600, Note_on_c, 0, 73, 0
2, 42600, Note_on_c, 0, 74, 101
2, 42720, Note_on_c, 0, 74, 0
2, 42720, Note_on_c, 0, 81, 101
2, 42840, Note_on_c, 0, 81, 0
2, 42840, Control_c, 0, 64, 0
2, 42840, Note_on_c, 0, 69, 101
2, 42960, Note_on_c, 0, 69, 0
2, 43200, Note_on_c, 0, 62, 101
2, 43200, Note_on_c, 0, 65, 101
2, 43200, Note_on_c, 0, 68, 101
2, 43680, Note_on_c, 0, 68, 0
2, 43680, Note_on_c, 0, 65, 0
2, 43680, Note_on_c, 0, 62, 0
2, 43680, Note_on_c, 0, 62, 101
2, 43680, Note_on_c, 0, 66, 101
2, 43680, Note_on_c, 0, 69, 101
2, 43920, Note_on_c, 0, 69, 0
2, 43920, Note_on_c, 0, 66, 0
2, 43920, Note_on_c, 0, 62, 0
2, 43920, Control_c, 0, 64, 127
2, 43920, Note_on_c, 0, 73, 101
2, 44040, Note_on_c, 0, 73, 0
2, 44040, Note_on_c, 0, 74, 101
2, 44160, Note_on_c, 0, 74, 0
2, 44160, Note_on_c, 0, 81, 101
2, 44280, Note_on_c, 0, 81, 0
2, 44280, Control_c, 0, 64, 0
2, 44280, Note_on_c, 0, 69, 101
2, 44400, Note_on_c, 0, 69, 0
2, 44640, Note_on_c, 0, 62, 101
2, 44640, Note_on_c, 0, 65, 101
2, 44640, Note_on_c, 0, 68, 101
2, 45120, Note_on_c, 0, 68, 0
2, 45120, Note_on_c, 0, 65, 0
2, 45120, Note_on_c, 0, 62, 0
2, 45120, Note_on_c, 0, 62, 101
2, 45120, Note_on_c, 0, 66, 101
2, 45120, Note_on_c, 0, 69, 101
2, 45360, Note_on_c, 0, 69, 0
2, 45360, Note_on_c, 0, 66, 0
2, 45360, Note_on_c, 0, 62, 0
2, 45840, Note_on_c, 0, 65, 88
2, 45840, Note_on_c, 0, 68, 88
2, 46080, Note_on_c, 0, 68, 0
2, 46080, Note_on_c, 0, 65, 0
2, 46080, Note_on_c, 0, 66, 88
2, 46080, Note_on_c, 0, 69, 88
2, 46320, Note_on_c, 0, 69, 0
2, 46320, Note_on_c, 0, 66, 0
2, 46320, Note_on_c, 0, 65, 88
2, 46320, Note_on_c, 0, 68, 88
2, 46560, Note_on_c, 0, 68, 0
2, 46560, Note_on_c, 0, 65, 0
2, 46560, Note_on_c, 0, 66, 88
2, 46560, Note_on_c, 0, 69, 88
2, 46800, Note_on_c, 0, 69, 0
2, 46800, Note_on_c, 0, 66, 0
2, 47280, Note_on_c, 0, 77, 75
2, 47280, Note_on_c, 0, 80, 75
2, 47520, Note_on_c, 0, 80, 0
2, 47520, Note_on_c, 0, 77, 0
2, 47520, Note_on_c, 0, 78, 75
2, 47520, Note_on_c, 0, 81, 75
2, 47760, Note_on_c, 0, 81, 0
2, 47760, Note_on_c, 0, 78, 0
2, 47760, Note_on_c, 0, 77, 62
2, 47760, Note_on_c, 0, 80, 62
2, 48000, Note_on_c, 0, 80, 0
2, 48000, Note_on_c, 0, 77, 0
2, 48000, Note_on_c, 0, 78, 62
2, 48000, Note_on_c, 0, 81, 62
2, 48240, Note_on_c, 0, 81, 0
2, 48240, Note_on_c, 0, 78, 0
2, 48240, Note_on_c, 0, 80, 62
2, 48720, Note_on_c, 0, 80, 0
2, 48720, Note_on_c, 0, 81, 62
2, 48960, Note_on_c, 0, 81, 0
2, 48960, Note_on_c, 0, 78, 62
2, 48960, Note_on_c, 0, 86, 62
2, 49200, Note_on_c, 0, 86, 0
2, 49200, Note_on_c, 0, 78, 0
2, 49680, Note_on_c, 0, 77, 62
2, 50160, Note_on_c, 0, 77, 0
2, 50160, Note_on_c, 0, 78, 62
2, 50400, Note_on_c, 0, 78, 0
2, 50400, Note_on_c, 0, 74, 62
2, 50400, Note_on_c, 0, 83, 62
2, 50640, Note_on_c, 0, 83, 0
2, 50640, Note_on_c, 0, 74, 0
2, 51120, Note_on_c, 0, 67, 62
2, 51240, Note_on_c, 0, 67, 0
2, 51240, Note_on_c, 0, 70, 62
2, 51360, Note_on_c, 0, 70, 0
2, 51360, Note_on_c, 0, 74, 62
2, 51480, Note_on_c, 0, 74, 0
2, 51480, Note_on_c, 0, 73, 62
2, 51600, Note_on_c, 0, 73, 0
2, 51600, Note_on_c, 0, 67, 62
2, 51720, Note_on_c, 0, 67, 0
2, 51720, Note_on_c, 0, 70, 62
2, 51840, Note_on_c, 0, 70, 0
2, 51840, Note_on_c, 0, 78, 75
2, 51960, Note_on_c, 0, 78, 0
2, 51960, Note_on_c, 0, 76, 75
2, 52080, Note_on_c, 0, 76, 0
2, 52080, Note_on_c, 0, 70, 75
2, 52200, Note_on_c, 0, 70, 0
2, 52200, Note_on_c, 0, 76, 75
2, 52320, Note_on_c, 0, 76, 0
2, 52320, Note_on_c, 0, 81, 75
2, 52440, Note_on_c, 0, 81, 0
2, 52440, Note_on_c, 0, 79, 75
2, 52560, Note_on_c, 0, 79, 0
2, 52560, Note_on_c, 0, 76, 75
2, 52680, Note_on_c, 0, 76, 0
2, 52680, Note_on_c, 0, 79, 75
2, 52800, Note_on_c, 0, 79, 0
2, 52800, Note_on_c, 0, 86, 75
2, 52920, Note_on_c, 0, 86, 0
2, 52920, Note_on_c, 0, 85, 75
2, 53040, Note_on_c, 0, 85, 0
2, 53040, Note_on_c, 0, 79, 88
2, 53160, Note_on_c, 0, 79, 0
2, 53160, Note_on_c, 0, 85, 88
2, 53280, Note_on_c, 0, 85, 0
2, 53280, Note_on_c, 0, 90, 88
2, 53400, Note_on_c, 0, 90, 0
2, 53400, Note_on_c, 0, 88, 88
2, 53520, Note_on_c, 0, 88, 0
2, 53520, Note_on_c, 0, 86, 88
2, 53640, Note_on_c, 0, 86, 0
2, 53640, Note_on_c, 0, 85, 88
2, 53760, Note_on_c, 0, 85, 0
2, 53760, Note_on_c, 0, 83, 88
2, 53880, Note_on_c, 0, 83, 0
2, 53880, Note_on_c, 0, 81, 88
2, 54000, Note_on_c, 0, 81, 0
2, 54000, Note_on_c, 0, 80, 62
2, 54480, Note_on_c, 0, 80, 0
2, 54480, Note_on_c, 0, 81, 62
2, 54720, Note_on_c, 0, 81, 0
2, 54720, Note_on_c, 0, 78, 62
2, 54720, Note_on_c, 0, 86, 62
2, 54960, Note_on_c, 0, 86, 0
2, 54960, Note_on_c, 0, 78, 0
2, 55440, Note_on_c, 0, 77, 62
2, 55920, Note_on_c, 0, 77, 0
2, 55920, Note_on_c, 0, 78, 62
2, 56160, Note_on_c, 0, 78, 0
2, 56160, Note_on_c, 0, 74, 62
2, 56160, Note_on_c, 0, 83, 62
2, 56400, Note_on_c, 0, 83, 0
2, 56400, Note_on_c, 0, 74, 0
2, 56880, Note_on_c, 0, 67, 62
2, 57000, Note_on_c, 0, 67, 0
2, 57000, Note_on_c, 0, 70, 62
2, 57120, Note_on_c, 0, 70, 0
2, 57120, Note_on_c, 0, 74, 62
2, 57240, Note_on_c, 0, 74, 0
2, 57240, Note_on_c, 0, 73, 62
2, 57360, Note_on_c, 0, 73, 0
2, 57360, Note_on_c, 0, 67, 62
2, 57480, Note_on_c, 0, 67, 0
2, 57480, Note_on_c, 0, 70, 62
2, 57600, Note_on_c, 0, 70, 0
2, 57600, Note_on_c, 0, 78, 75
2, 57720, Note_on_c, 0, 78, 0
2, 57720, Note_on_c, 0, 76, 75
2, 57840, Note_on_c, 0, 76, 0
2, 57840, Note_on_c, 0, 70, 75
2, 57960, Note_on_c, 0, 70, 0
2, 57960, Note_on_c, 0, 76, 75
2, 58080, Note_on_c, 0, 76, 0
2, 58080, Note_on_c, 0, 81, 75
2, 58200, Note_on_c, 0, 81, 0
2, 58200, Note_on_c, 0, 79, 75
2, 58320, Note_on_c, 0, 79, 0
2, 58320, Note_on_c, 0, 76, 75
2, 58440, Note_on_c, 0, 76, 0
2, 58440, Note_on_c, 0, 79, 75
2, 58560, Note_on_c, 0, 79, 0
2, 58560, Note_on_c, 0, 86, 75
2, 58680, Note_on_c, 0, 86, 0
2, 58680, Note_on_c, 0, 85, 75
2, 58800, Note_on_c, 0, 85, 0
2, 58800, Note_on_c, 0, 79, 75
2, 58920, Note_on_c, 0, 79, 0
2, 58920, Note_on_c, 0, 85, 75
2, 59040, Note_on_c, 0, 85, 0
2, 59040, Note_on_c, 0, 88, 75
2, 59160, Note_on_c, 0, 88, 0
2, 59160, Note_on_c, 0, 86, 75
2, 59280, Note_on_c, 0, 86, 0
2, 59280, Note_on_c, 0, 78, 75
2, 59400, Note_on_c, 0, 78, 0
2, 59400, Note_on_c, 0, 82, 75
2, 59520, Note_on_c, 0, 82, 0
2, 59520, Note_on_c, 0, 86, 75
2, 59640, Note_on_c, 0, 86, 0
2, 59640, Note_on_c, 0, 85, 75
2, 59760, Note_on_c, 0, 85, 0
2, 59760, Note_on_c, 0, 78, 75
2, 59880, Note_on_c, 0, 78, 0
2, 59880, Note_on_c, 0, 82, 75
2, 60000, Note_on_c, 0, 82, 0
2, 60000, Note_on_c, 0, 85, 75
2, 60120, Note_on_c, 0, 85, 0
2, 60120, Note_on_c, 0, 83, 75
2, 60240, Note_on_c, 0, 83, 0
2, 60240, Note_on_c, 0, 71, 75
2, 60360, Note_on_c, 0, 71, 0
2, 60360, Note_on_c, 0, 78, 75
2, 60480, Note_on_c, 0, 78, 0
2, 60480, Note_on_c, 0, 81, 75
2, 60600, Note_on_c, 0, 81, 0
2, 60600, Note_on_c, 0, 79, 75
2, 60720, Note_on_c, 0, 79, 0
2, 60720, Note_on_c, 0, 71, 75
2, 60840, Note_on_c, 0, 71, 0
2, 60840, Note_on_c, 0, 75, 75
2, 60960, Note_on_c, 0, 75, 0
2, 60960, Note_on_c, 0, 79, 75
2, 61080, Note_on_c, 0, 79, 0
2, 61080, Note_on_c, 0, 78, 75
2, 61200, Note_on_c, 0, 78, 0
2, 61200, Note_on_c, 0, 71, 88
2, 61320, Note_on_c, 0, 71, 0
2, 61320, Note_on_c, 0, 75, 88
2, 61440, Note_on_c, 0, 75, 0
2, 61440, Note_on_c, 0, 78, 88
2, 61560, Note_on_c, 0, 78, 0
2, 61560, Note_on_c, 0, 76, 88
2, 61680, Note_on_c, 0, 76, 0
2, 61680, Note_on_c, 0, 85, 88
2, 61800, Note_on_c, 0, 85, 0
2, 61800, Note_on_c, 0, 83, 88
2, 61920, Note_on_c, 0, 83, 0
2, 61920, Note_on_c, 0, 76, 88
2, 62400, Note_on_c, 0, 76, 0
2, 62400, Note_on_c, 0, 70, 88
2, 62400, Note_on_c, 0, 78, 88
2, 62400, Note_on_c, 0, 82, 88
2, 62880, Note_on_c, 0, 82, 0
2, 62880, Note_on_c, 0, 78, 0
2, 62880, Note_on_c, 0, 70, 0
2, 62880, Note_on_c, 0, 71, 88
2, 62880, Note_on_c, 0, 76, 88
2, 62880, Note_on_c, 0, 83, 88
2, 63360, Note_on_c, 0, 83, 0
2, 63360, Note_on_c, 0, 76, 0
2, 63360, Note_on_c, 0, 71, 0
2, 63360, Note_on_c, 0, 72, 88
2, 63360, Note_on_c, 0, 78, 88
2, 63360, Note_on_c, 0, 81, 88
2, 63360, Note_on_c, 0, 84, 88
2, 63840, Note_on_c, 0, 84, 0
2, 63840, Note_on_c, 0, 72, 0
2, 63840, Note_on_c, 0, 78, 0
2, 63840, Note_on_c, 0, 81, 0
2, 63840, Note_on_c, 0, 73, 101
2, 63840, Note_on_c, 0, 79, 101
2, 63840, Note_on_c, 0, 85, 101
2, 64080, Note_on_c, 0, 85, 0
2, 64080, Note_on_c, 0, 79, 0
2, 64080, Note_on_c, 0, 73, 0
2, 64080, Note_on_c, 0, 74, 101
2, 64080, Note_on_c, 0, 78, 101
2, 64080, Note_on_c, 0, 86, 101
2, 64320, Note_on_c, 0, 86, 0
2, 64320, Note_on_c, 0, 78, 0
2, 64320, Note_on_c, 0, 74, 0
2, 64320, Note_on_c, 0, 61, 101
2, 64560, Note_on_c, 0, 61, 0
2, 64560, Note_on_c, 0, 62, 101
2, 64800, Note_on_c, 0, 62, 0
2, 64800, Note_on_c, 0, 57, 88
2, 64800, Note_on_c, 0, 69, 88
2, 65280, Note_on_c, 0, 69, 0
2, 65280, Note_on_c, 0, 57, 0
2, 65280, Note_on_c, 0, 62, 88
2, 65520, Note_on_c, 0, 62, 0
2, 65760, Note_on_c, 0, 61, 88
2, 66000, Note_on_c, 0, 61, 0
2, 66000, Note_on_c, 0, 62, 88
2, 66240, Note_on_c, 0, 62, 0
2, 66240, Note_on_c, 0, 57, 75
2, 66240, Note_on_c, 0, 69, 75
2, 66720, Note_on_c, 0, 69, 0
2, 66720, Note_on_c, 0, 57, 0
2, 66720, Note_on_c, 0, 62, 75
2, 66960, Note_on_c, 0, 62, 0
2, 68400, Note_on_c, 0, 58, 75
2, 68400, Note_on_c, 0, 63, 75
2, 68400, Note_on_c, 0, 67, 75
2, 68400, Note_on_c, 0, 70, 75
2, 68880, Note_on_c, 0, 70, 0
2, 68880, Note_on_c, 0, 58, 0
2, 68880, Note_on_c, 0, 63, 0
2, 68880, Note_on_c, 0, 67, 0
2, 68880, Note_on_c, 0, 72, 75
2, 69360, Note_on_c, 0, 72, 0
2, 69360, Note_on_c, 0, 77, 75
2, 69720, Note_on_c, 0, 77, 0
2, 69720, Note_on_c, 0, 75, 75
2, 69840, Note_on_c, 0, 75, 0
2, 69840, Note_on_c, 0, 79, 75
2, 70320, Note_on_c, 0, 79, 0
2, 70320, Note_on_c, 0, 70, 75
2, 70560, Note_on_c, 0, 70, 0
2, 71280, Note_on_c, 0, 58, 75
2, 71280, Note_on_c, 0, 63, 75
2, 71280, Note_on_c, 0, 67, 75
2, 71280, Note_on_c, 0, 70, 75
2, 71760, Note_on_c, 0, 70, 0
2, 71760, Note_on_c, 0, 58, 0
2, 71760, Note_on_c, 0, 63, 0
2, 71760, Note_on_c, 0, 67, 0
2, 71760, Note_on_c, 0, 72, 75
2, 72240, Note_on_c, 0, 72, 0
2, 72240, Note_on_c, 0, 75, 75
2, 72600, Note_on_c, 0, 75, 0
2, 72600, Note_on_c, 0, 74, 75
2, 72720, Note_on_c, 0, 74, 0
2, 72720, Note_on_c, 0, 77, 75
2, 73200, Note_on_c, 0, 77, 0
2, 73200, Note_on_c, 0, 70, 75
2, 73440, Note_on_c, 0, 70, 0
2, 74160, Note_on_c, 0, 58, 75
2, 74160, Note_on_c, 0, 63, 75
2, 74160, Note_on_c, 0, 67, 75
2, 74160, Note_on_c, 0, 70, 75
2, 74640, Note_on_c, 0, 70, 0
2, 74640, Note_on_c, 0, 58, 0
2, 74640, Note_on_c, 0, 63, 0
2, 74640, Note_on_c, 0, 67, 0
2, 74640, Note_on_c, 0, 72, 75
2, 75120, Note_on_c, 0, 72, 0
2, 75120, Note_on_c, 0, 77, 75
2, 75480, Note_on_c, 0, 77, 0
2, 75480, Note_on_c, 0, 75, 75
2, 75600, Note_on_c, 0, 75, 0
2, 75600, Note_on_c, 0, 79, 75
2, 75840, Note_on_c, 0, 79, 0
2, 75840, Note_on_c, 0, 82, 75
2, 76080, Note_on_c, 0, 82, 0
2, 76080, Note_on_c, 0, 82, 75
2, 76127, Note_on_c, 0, 82, 0
2, 76800, Note_on_c, 0, 77, 75
2, 77040, Note_on_c, 0, 77, 0
2, 77040, Note_on_c, 0, 79, 75
2, 77280, Note_on_c, 0, 79, 0
2, 77280, Note_on_c, 0, 82, 75
2, 77520, Note_on_c, 0, 82, 0
2, 77520, Note_on_c, 0, 82, 75
2, 77567, Note_on_c, 0, 82, 0
2, 78240, Note_on_c, 0, 77, 75
2, 78480, Note_on_c, 0, 77, 0
2, 78480, Note_on_c, 0, 79, 75
2, 78720, Note_on_c, 0, 79, 0
2, 78720, Note_on_c, 0, 84, 75
2, 78960, Note_on_c, 0, 84, 0
2, 78960, Note_on_c, 0, 84, 75
2, 79440, Note_on_c, 0, 84, 0
2, 79440, Note_on_c, 0, 82, 75
2, 79560, Note_on_c, 0, 82, 0
2, 79560, Note_on_c, 0, 80, 75
2, 79680, Note_on_c, 0, 80, 0
2, 79680, Note_on_c, 0, 79, 75
2, 79800, Note_on_c, 0, 79, 0
2, 79800, Note_on_c, 0, 77, 75
2, 79920, Note_on_c, 0, 77, 0
2, 79920, Note_on_c, 0, 67, 62
2, 79920, Note_on_c, 0, 70, 62
2, 80400, Note_on_c, 0, 70, 0
2, 80400, Note_on_c, 0, 67, 0
2, 80400, Note_on_c, 0, 63, 62
2, 80400, Note_on_c, 0, 67, 62
2, 80400, Note_on_c, 0, 72, 62
2, 80880, Note_on_c, 0, 72, 0
2, 80880, Note_on_c, 0, 67, 0
2, 80880, Note_on_c, 0, 63, 0
2, 80880, Note_on_c, 0, 77, 62
2, 81240, Note_on_c, 0, 77, 0
2, 81240, Note_on_c, 0, 75, 62
2, 81360, Note_on_c, 0, 75, 0
2, 81360, Note_on_c, 0, 79, 62
2, 81840, Note_on_c, 0, 79, 0
2, 81840, Note_on_c, 0, 70, 62
2, 82080, Note_on_c, 0, 70, 0
2, 82080, Note_on_c, 0, 58, 62
2, 82320, Note_on_c, 0, 58, 0
2, 82320, Note_on_c, 0, 60, 62
2, 82440, Note_on_c, 0, 60, 0
2, 82440, Note_on_c, 0, 62, 62
2, 82560, Note_on_c, 0, 62, 0
2, 82560, Note_on_c, 0, 63, 62
2, 82800, Note_on_c, 0, 63, 0
2, 82800, Note_on_c, 0, 67, 62
2, 82800, Note_on_c, 0, 70, 62
2, 83280, Note_on_c, 0, 70, 0
2, 83280, Note_on_c, 0, 67, 0
2, 83280, Note_on_c, 0, 63, 62
2, 83280, Note_on_c, 0, 67, 62
2, 83280, Note_on_c, 0, 72, 62
2, 83760, Note_on_c, 0, 72, 0
2, 83760, Note_on_c, 0, 67, 0
2, 83760, Note_on_c, 0, 63, 0
2, 83760, Note_on_c, 0, 75, 62
2, 84120, Note_on_c, 0, 75, 0
2, 84120, Note_on_c, 0, 74, 62
2, 84240, Note_on_c, 0, 74, 0
2, 84240, Note_on_c, 0, 77, 62
2, 84720, Note_on_c, 0, 77, 0
2, 84720, Note_on_c, 0, 70, 62
2, 84960, Note_on_c, 0, 70, 0
2, 84960, Control_c, 0, 64, 127
2, 84960, Note_on_c, 0, 56, 62
2, 84960, Note_on_c, 0, 58, 62
2, 85080, Note_on_c, 0, 58, 0
2, 85080, Note_on_c, 0, 56, 0
2, 85080, Note_on_c, 0, 59, 62
2, 85200, Note_on_c, 0, 59, 0
2, 85200, Note_on_c, 0, 60, 62
2, 85320, Note_on_c, 0, 60, 0
2, 85320, Note_on_c, 0, 61, 62
2, 85440, Note_on_c, 0, 61, 0
2, 85440, Control_c, 0, 64, 0
2, 85440, Note_on_c, 0, 62, 62
2, 85680, Note_on_c, 0, 62, 0
2, 85680, Note_on_c, 0, 67, 62
2, 85680, Note_on_c, 0, 70, 62
2, 86160, Note_on_c, 0, 70, 0
2, 86160, Note_on_c, 0, 67, 0
2, 86160, Note_on_c, 0, 63, 62
2, 86160, Note_on_c, 0, 67, 62
2, 86160, Note_on_c, 0, 72, 62
2, 86640, Note_on_c, 0, 72, 0
2, 86640, Note_on_c, 0, 67, 0
2, 86640, Note_on_c, 0, 63, 0
2, 86640, Note_on_c, 0, 77, 62
2, 87000, Note_on_c, 0, 77, 0
2, 87000, Note_on_c, 0, 75, 62
2, 87120, Note_on_c, 0, 75, 0
2, 87120, Note_on_c, 0, 67, 62
2, 87120, Note_on_c, 0, 70, 62
2, 87120, Note_on_c, 0, 79, 62
2, 87360, Note_on_c, 0, 79, 0
2, 87360, Note_on_c, 0, 70, 0
2, 87360, Note_on_c, 0, 67, 0
2, 87360, Note_on_c, 0, 70, 62
2, 87360, Note_on_c, 0, 82, 62
2, 87600, Note_on_c, 0, 82, 0
2, 87600, Note_on_c, 0, 70, 0
2, 87600, Note_on_c, 0, 70, 62
2, 87600, Note_on_c, 0, 82, 62
2, 87647, Note_on_c, 0, 82, 0
2, 87647, Note_on_c, 0, 70, 0
2, 87840, Control_c, 0, 64, 127
2, 87840, Note_on_c, 0, 70, 75
2, 87960, Note_on_c, 0, 70, 0
2, 87960, Note_on_c, 0, 71, 75
2, 88080, Note_on_c, 0, 71, 0
2, 88080, Note_on_c, 0, 72, 75
2, 88200, Note_on_c, 0, 72, 0
2, 88200, Note_on_c, 0, 73, 75
2, 88320, Note_on_c, 0, 73, 0
2, 88320, Note_on_c, 0, 74, 75
2, 88440, Note_on_c, 0, 74, 0
2, 88440, Control_c, 0, 64, 0
2, 88440, Note_on_c, 0, 77, 75
2, 88560, Note_on_c, 0, 77, 0
2, 88560, Note_on_c, 0, 67, 75
2, 88560, Note_on_c, 0, 70, 75
2, 88560, Note_on_c, 0, 79, 75
2, 88800, Note_on_c, 0, 79, 0
2, 88800, Note_on_c, 0, 70, 0
2, 88800, Note_on_c, 0, 67, 0
2, 88800, Note_on_c, 0, 70, 75
2, 88800, Note_on_c, 0, 82, 75
2, 89040, Note_on_c, 0, 82, 0
2, 89040, Note_on_c, 0, 70, 0
2, 89040, Note_on_c, 0, 70, 75
2, 89040, Note_on_c, 0, 82, 75
2, 89087, Note_on_c, 0, 82, 0
2, 89087, Note_on_c, 0, 70, 0
2, 89280, Control_c, 0, 64, 127
2, 89280, Note_on_c, 0, 70, 75
2, 89400, Note_on_c, 0, 70, 0
2, 89400, Note_on_c, 0, 71, 75
2, 89520, Note_on_c, 0, 71, 0
2, 89520, Note_on_c, 0, 72, 75
2, 89640, Note_on_c, 0, 72, 0
2, 89640, Note_on_c, 0, 73, 75
2, 89760, Note_on_c, 0, 73, 0
2, 89760, Note_on_c, 0, 74, 75
2, 89880, Note_on_c, 0, 74, 0
2, 89880, Control_c, 0, 64, 0
2, 89880, Note_on_c, 0, 77, 75
2, 90000, Note_on_c, 0, 77, 0
2, 90000, Note_on_c, 0, 67, 75
2, 90000, Note_on_c, 0, 70, 75
2, 90000, Note_on_c, 0, 79, 75
2, 90240, Note_on_c, 0, 79, 0
2, 90240, Note_on_c, 0, 70, 0
2, 90240, Note_on_c, 0, 67, 0
2, 90240, Note_on_c, 0, 70, 75
2, 90240, Note_on_c, 0, 82, 75
2, 90480, Note_on_c, 0, 82, 0
2, 90480, Note_on_c, 0, 70, 0
2, 90480, Note_on_c, 0, 70, 75
2, 90480, Note_on_c, 0, 82, 75
2, 90527, Note_on_c, 0, 82, 0
2, 90527, Note_on_c, 0, 70, 0
2, 90720, Note_on_c, 0, 67, 75
2, 90720, Note_on_c, 0, 70, 75
2, 90720, Note_on_c, 0, 79, 75
2, 90960, Note_on_c, 0, 79, 0
2, 90960, Note_on_c, 0, 70, 0
2, 90960, Note_on_c, 0, 67, 0
2, 90960, Note_on_c, 0, 70, 75
2, 90960, Note_on_c, 0, 82, 75
2, 91200, Note_on_c, 0, 82, 0
2, 91200, Note_on_c, 0, 70, 0
2, 91200, Note_on_c, 0, 70, 75
2, 91200, Note_on_c, 0, 82, 75
2, 91247, Note_on_c, 0, 82, 0
2, 91247, Note_on_c, 0, 70, 0
2, 91440, Note_on_c, 0, 67, 75
2, 91440, Note_on_c, 0, 70, 75
2, 91440, Note_on_c, 0, 79, 75
2, 91680, Note_on_c, 0, 79, 0
2, 91680, Note_on_c, 0, 70, 0
2, 91680, Note_on_c, 0, 67, 0
2, 91680, Note_on_c, 0, 70, 75
2, 91680, Note_on_c, 0, 82, 75
2, 91920, Note_on_c, 0, 82, 0
2, 91920, Note_on_c, 0, 70, 0
2, 91920, Note_on_c, 0, 70, 75
2, 91920, Note_on_c, 0, 82, 75
2, 92400, Note_on_c, 0, 82, 0
2, 92400, Note_on_c, 0, 70, 0
2, 92400, Note_on_c, 0, 70, 62
2, 92400, Note_on_c, 0, 82, 62
2, 92640, Note_on_c, 0, 82, 0
2, 92640, Note_on_c, 0, 70, 0
2, 92640, Note_on_c, 0, 70, 49
2, 92640, Note_on_c, 0, 82, 49
2, 93120, Note_on_c, 0, 82, 0
2, 93120, Note_on_c, 0, 70, 0
2, 93120, Note_on_c, 0, 70, 49
2, 93120, Note_on_c, 0, 82, 49
2, 93360, Note_on_c, 0, 82, 0
2, 93360, Note_on_c, 0, 70, 0
2, 93360, Note_on_c, 0, 70, 49
2, 93360, Note_on_c, 0, 82, 49
2, 93840, Note_on_c, 0, 82, 0
2, 93840, Note_on_c, 0, 70, 0
2, 93840, Note_on_c, 0, 70, 49
2, 93840, Note_on_c, 0, 82, 49
2, 94080, Note_on_c, 0, 82, 0
2, 94080, Note_on_c, 0, 70, 0
2, 94080, Note_on_c, 0, 70, 49
2, 94080, Note_on_c, 0, 82, 49
2, 94560, Note_on_c, 0, 82, 0
2, 94560, Note_on_c, 0, 70, 0
2, 94560, Note_on_c, 0, 70, 49
2, 94560, Note_on_c, 0, 82, 49
2, 94800, Note_on_c, 0, 82, 0
2, 94800, Note_on_c, 0, 70, 0
2, 94800, Note_on_c, 0, 70, 49
2, 94800, Note_on_c, 0, 82, 49
2, 95280, Note_on_c, 0, 82, 0
2, 95280, Note_on_c, 0, 70, 0
2, 95280, Note_on_c, 0, 70, 49
2, 95280, Note_on_c, 0, 82, 49
2, 95520, Note_on_c, 0, 82, 0
2, 95520, Note_on_c, 0, 70, 0
2, 95520, Note_on_c, 0, 70, 49
2, 95520, Note_on_c, 0, 82, 49
2, 96000, Note_on_c, 0, 82, 0
2, 96000, Note_on_c, 0, 70, 0
2, 96000, Note_on_c, 0, 70, 49
2, 96000, Note_on_c, 0, 82, 49
2, 96240, Note_on_c, 0, 82, 0
2, 96240, Note_on_c, 0, 70, 0
2, 96240, Note_on_c, 0, 70, 49
2, 96240, Note_on_c, 0, 82, 49
2, 96720, Note_on_c, 0, 82, 0
2, 96720, Note_on_c, 0, 70, 0
2, 96720, Note_on_c, 0, 70, 49
2, 96720, Note_on_c, 0, 82, 49
2, 96960, Note_on_c, 0, 82, 0
2, 96960, Note_on_c, 0, 70, 0
2, 96960, Note_on_c, 0, 70, 49
2, 96960, Note_on_c, 0, 82, 49
2, 97440, Note_on_c, 0, 82, 0
2, 97440, Note_on_c, 0, 70, 0
2, 97440, Note_on_c, 0, 70, 49
2, 97440, Note_on_c, 0, 82, 49
2, 97680, Note_on_c, 0, 82, 0
2, 97680, Note_on_c, 0, 70, 0
2, 97680, Note_on_c, 0, 70, 49
2, 97680, Note_on_c, 0, 82, 49
2, 98160, Note_on_c, 0, 82, 0
2, 98160, Note_on_c, 0, 70, 0
2, 98160, Note_on_c, 0, 70, 49
2, 98160, Note_on_c, 0, 82, 49
2, 98400, Note_on_c, 0, 82, 0
2, 98400, Note_on_c, 0, 70, 0
2, 98400, Note_on_c, 0, 70, 49
2, 98400, Note_on_c, 0, 82, 49
2, 98880, Note_on_c, 0, 82, 0
2, 98880, Note_on_c, 0, 70, 0
2, 98880, Note_on_c, 0, 70, 49
2, 98880, Note_on_c, 0, 82, 49
2, 99120, Note_on_c, 0, 82, 0
2, 99120, Note_on_c, 0, 70, 0
2, 99120, Note_on_c, 0, 70, 49
2, 99120, Note_on_c, 0, 82, 49
2, 99600, Note_on_c, 0, 82, 0
2, 99600, Note_on_c, 0, 70, 0
2, 99600, Note_on_c, 0, 70, 49
2, 99600, Note_on_c, 0, 82, 49
2, 99840, Note_on_c, 0, 82, 0
2, 99840, Note_on_c, 0, 70, 0
2, 99840, Note_on_c, 0, 70, 49
2, 99840, Note_on_c, 0, 82, 49
2, 100320, Note_on_c, 0, 82, 0
2, 100320, Note_on_c, 0, 70, 0
2, 100320, Note_on_c, 0, 70, 49
2, 100320, Note_on_c, 0, 82, 49
2, 100560, Note_on_c, 0, 82, 0
2, 100560, Note_on_c, 0, 70, 0
2, 100560, Note_on_c, 0, 70, 49
2, 100560, Note_on_c, 0, 82, 49
2, 101040, Note_on_c, 0, 82, 0
2, 101040, Note_on_c, 0, 70, 0
2, 101040, Note_on_c, 0, 70, 49
2, 101040, Note_on_c, 0, 82, 49
2, 101280, Note_on_c, 0, 82, 0
2, 101280, Note_on_c, 0, 70, 0
2, 101280, Note_on_c, 0, 70, 49
2, 101280, Note_on_c, 0, 82, 49
2, 101760, Note_on_c, 0, 82, 0
2, 101760, Note_on_c, 0, 70, 0
2, 101760, Note_on_c, 0, 70, 49
2, 101760, Note_on_c, 0, 82, 49
2, 102000, Note_on_c, 0, 82, 0
2, 102000, Note_on_c, 0, 70, 0
2, 102000, Note_on_c, 0, 70, 49
2, 102000, Note_on_c, 0, 82, 49
2, 102480, Note_on_c, 0, 82, 0
2, 102480, Note_on_c, 0, 70, 0
2, 102480, Note_on_c, 0, 70, 49
2, 102480, Note_on_c, 0, 82, 49
2, 102720, Note_on_c, 0, 82, 0
2, 102720, Note_on_c, 0, 70, 0
2, 102720, Note_on_c, 0, 70, 49
2, 102720, Note_on_c, 0, 82, 49
2, 103200, Note_on_c, 0, 82, 0
2, 103200, Note_on_c, 0, 70, 0
2, 103200, Note_on_c, 0, 70, 62
2, 103200, Note_on_c, 0, 82, 62
2, 103440, Note_on_c, 0, 82, 0
2, 103440, Note_on_c, 0, 70, 0
2, 103440, Note_on_c, 0, 70, 62
2, 103440, Note_on_c, 0, 82, 62
2, 103920, Note_on_c, 0, 82, 0
2, 103920, Note_on_c, 0, 70, 0
2, 103920, Note_on_c, 0, 70, 62
2, 103920, Note_on_c, 0, 82, 62
2, 104160, Note_on_c, 0, 82, 0
2, 104160, Note_on_c, 0, 70, 0
2, 104160, Note_on_c, 0, 70, 62
2, 104160, Note_on_c, 0, 82, 62
2, 104640, Note_on_c, 0, 82, 0
2, 104640, Note_on_c, 0, 70, 0
2, 104640, Note_on_c, 0, 70, 75
2, 104640, Note_on_c, 0, 82, 75
2, 104880, Note_on_c, 0, 82, 0
2, 104880, Note_on_c, 0, 70, 0
2, 104880, Note_on_c, 0, 70, 75
2, 104880, Note_on_c, 0, 82, 75
2, 105360, Note_on_c, 0, 82, 0
2, 105360, Note_on_c, 0, 70, 0
2, 105360, Note_on_c, 0, 70, 75
2, 105360, Note_on_c, 0, 82, 75
2, 105600, Note_on_c, 0, 82, 0
2, 105600, Note_on_c, 0, 70, 0
2, 105600, Note_on_c, 0, 70, 75
2, 105600, Note_on_c, 0, 82, 75
2, 106080, Note_on_c, 0, 82, 0
2, 106080, Note_on_c, 0, 70, 0
2, 106080, Note_on_c, 0, 70, 88
2, 106080, Note_on_c, 0, 82, 88
2, 106320, Note_on_c, 0, 82, 0
2, 106320, Note_on_c, 0, 70, 0
2, 106320, Note_on_c, 0, 70, 88
2, 106320, Note_on_c, 0, 82, 88
2, 106800, Note_on_c, 0, 82, 0
2, 106800, Note_on_c, 0, 70, 0
2, 106800, Note_on_c, 0, 70, 88
2, 106800, Note_on_c, 0, 82, 88
2, 107040, Note_on_c, 0, 82, 0
2, 107040, Note_on_c, 0, 70, 0
2, 107040, Note_on_c, 0, 70, 88
2, 107040, Note_on_c, 0, 82, 88
2, 107280, Note_on_c, 0, 82, 0
2, 107280, Note_on_c, 0, 70, 0
2, 107280, Note_on_c, 0, 70, 88
2, 107280, Note_on_c, 0, 75, 88
2, 107280, Note_on_c, 0, 79, 88
2, 107280, Note_on_c, 0, 82, 88
2, 107760, Note_on_c, 0, 82, 0
2, 107760, Note_on_c, 0, 70, 0
2, 107760, Note_on_c, 0, 75, 0
2, 107760, Note_on_c, 0, 79, 0
2, 107760, Note_on_c, 0, 72, 88
2, 107760, Note_on_c, 0, 84, 88
2, 108240, Note_on_c, 0, 84, 0
2, 108240, Note_on_c, 0, 72, 0
2, 108240, Note_on_c, 0, 77, 88
2, 108240, Note_on_c, 0, 89, 88
2, 108600, Note_on_c, 0, 89, 0
2, 108600, Note_on_c, 0, 77, 0
2, 108600, Note_on_c, 0, 75, 88
2, 108600, Note_on_c, 0, 87, 88
2, 108720, Note_on_c, 0, 87, 0
2, 108720, Note_on_c, 0, 75, 0
2, 108720, Note_on_c, 0, 79, 88
2, 108720, Note_on_c, 0, 91, 88
2, 109200, Note_on_c, 0, 91, 0
2, 109200, Note_on_c, 0, 79, 0
2, 109200, Note_on_c, 0, 70, 88
2, 109200, Note_on_c, 0, 82, 88
2, 109440, Note_on_c, 0, 82, 0
2, 109440, Note_on_c, 0, 70, 0
2, 110160, Note_on_c, 0, 70, 88
2, 110160, Note_on_c, 0, 75, 88
2, 110160, Note_on_c, 0, 79, 88
2, 110160, Note_on_c, 0, 82, 88
2, 110640, Note_on_c, 0, 82, 0
2, 110640, Note_on_c, 0, 70, 0
2, 110640, Note_on_c, 0, 75, 0
2, 110640, Note_on_c, 0, 79, 0
2, 110640, Note_on_c, 0, 72, 88
2, 110640, Note_on_c, 0, 84, 88
2, 111120, Note_on_c, 0, 84, 0
2, 111120, Note_on_c, 0, 72, 0
2, 111120, Note_on_c, 0, 75, 88
2, 111120, Note_on_c, 0, 87, 88
2, 111480, Note_on_c, 0, 87, 0
2, 111480, Note_on_c, 0, 75, 0
2, 111480, Note_on_c, 0, 74, 88
2, 111480, Note_on_c, 0, 86, 88
2, 111600, Note_on_c, 0, 86, 0
2, 111600, Note_on_c, 0, 74, 0
2, 111600, Note_on_c, 0, 77, 88
2, 111600, Note_on_c, 0, 89, 88
2, 112080, Note_on_c, 0, 89, 0
2, 112080, Note_on_c, 0, 77, 0
2, 112080, Note_on_c, 0, 70, 88
2, 112080, Note_on_c, 0, 82, 88
2, 112320, Note_on_c, 0, 82, 0
2, 112320, Note_on_c, 0, 70, 0
2, 113040, Note_on_c, 0, 70, 88
2, 113040, Note_on_c, 0, 75, 88
2, 113040, Note_on_c, 0, 79, 88
2, 113040, Note_on_c, 0, 82, 88
2, 113520, Note_on_c, 0, 82, 0
2, 113520, Note_on_c, 0, 70, 0
2, 113520, Note_on_c, 0, 75, 0
2, 113520, Note_on_c, 0, 79, 0
2, 113520, Note_on_c, 0, 72, 88
2, 113520, Note_on_c, 0, 84, 88
2, 114000, Note_on_c, 0, 84, 0
2, 114000, Note_on_c, 0, 72, 0
2, 114000, Note_on_c, 0, 77, 88
2, 114000, Note_on_c, 0, 89, 88
2, 114360, Note_on_c, 0, 89, 0
2, 114360, Note_on_c, 0, 77, 0
2, 114360, Note_on_c, 0, 75, 88
2, 114360, Note_on_c, 0, 87, 88
2, 114480, Note_on_c, 0, 87, 0
2, 114480, Note_on_c, 0, 75, 0
2, 114480, Note_on_c, 0, 79, 88
2, 114480, Note_on_c, 0, 91, 88
2, 114720, Note_on_c, 0, 91, 0
2, 114720, Note_on_c, 0, 79, 0
2, 114720, Note_on_c, 0, 82, 88
2, 114720, Note_on_c, 0, 94, 88
2, 114960, Note_on_c, 0, 94, 0
2, 114960, Note_on_c, 0, 82, 0
2, 114960, Note_on_c, 0, 82, 88
2, 114960, Note_on_c, 0, 94, 88
2, 115200, Note_on_c, 0, 94, 0
2, 115200, Note_on_c, 0, 82, 0
2, 115680, Note_on_c, 0, 77, 88
2, 115680, Note_on_c, 0, 89, 88
2, 115920, Note_on_c, 0, 89, 0
2, 115920, Note_on_c, 0, 77, 0
2, 115920, Note_on_c, 0, 79, 88
2, 115920, Note_on_c, 0, 91, 88
2, 116160, Note_on_c, 0, 91, 0
2, 116160, Note_on_c, 0, 79, 0
2, 116160, Note_on_c, 0, 82, 88
2, 116160, Note_on_c, 0, 94, 88
2, 116400, Note_on_c, 0, 94, 0
2, 116400, Note_on_c, 0, 82, 0
2, 116400, Note_on_c, 0, 82, 88
2, 116400, Note_on_c, 0, 94, 88
2, 116640, Note_on_c, 0, 94, 0
2, 116640, Note_on_c, 0, 82, 0
2, 117120, Note_on_c, 0, 77, 88
2, 117120, Note_on_c, 0, 89, 88
2, 117360, Note_on_c, 0, 89, 0
2, 117360, Note_on_c, 0, 77, 0
2, 117360, Note_on_c, 0, 79, 88
2, 117360, Note_on_c, 0, 91, 88
2, 117600, Note_on_c, 0, 91, 0
2, 117600, Note_on_c, 0, 79, 0
2, 117600, Note_on_c, 0, 82, 88
2, 117600, Note_on_c, 0, 94, 88
2, 117840, Note_on_c, 0, 94, 0
2, 117840, Note_on_c, 0, 82, 0
2, 117840, Note_on_c, 0, 82, 88
2, 117840, Note_on_c, 0, 94, 88
2, 118080, Note_on_c, 0, 94, 0
2, 118080, Note_on_c, 0, 82, 0
2, 118080, Note_on_c, 0, 79, 88
2, 118080, Note_on_c, 0, 91, 88
2, 118320, Note_on_c, 0, 91, 0
2, 118320, Note_on_c, 0, 79, 0
2, 118320, Note_on_c, 0, 81, 88
2, 118320, Note_on_c, 0, 93, 88
2, 118560, Note_on_c, 0, 93, 0
2, 118560, Note_on_c, 0, 81, 0
2, 118560, Note_on_c, 0, 81, 88
2, 118560, Note_on_c, 0, 93, 88
2, 118800, Note_on_c, 0, 93, 0
2, 118800, Note_on_c, 0, 81, 0
2, 118800, Note_on_c, 0, 69, 88
2, 118800, Note_on_c, 0, 74, 88
2, 118800, Note_on_c, 0, 78, 88
2, 118800, Note_on_c, 0, 81, 88
2, 119280, Note_on_c, 0, 81, 0
2, 119280, Note_on_c, 0, 69, 0
2, 119280, Note_on_c, 0, 74, 0
2, 119280, Note_on_c, 0, 78, 0
2, 119280, Note_on_c, 0, 71, 88
2, 119280, Note_on_c, 0, 83, 88
2, 119760, Note_on_c, 0, 83, 0
2, 119760, Note_on_c, 0, 71, 0
2, 119760, Note_on_c, 0, 76, 88
2, 119760, Note_on_c, 0, 88, 88
2, 120120, Note_on_c, 0, 88, 0
2, 120120, Note_on_c, 0, 76, 0
2, 120120, Note_on_c, 0, 74, 88
2, 120120, Note_on_c, 0, 86, 88
2, 120240, Note_on_c, 0, 86, 0
2, 120240, Note_on_c, 0, 74, 0
2, 120240, Note_on_c, 0, 78, 88
2, 120240, Note_on_c, 0, 90, 88
2, 120720, Note_on_c, 0, 90, 0
2, 120720, Note_on_c, 0, 78, 0
2, 120720, Note_on_c, 0, 69, 88
2, 120720, Note_on_c, 0, 81, 88
2, 120960, Note_on_c, 0, 81, 0
2, 120960, Note_on_c, 0, 69, 0
2, 121680, Note_on_c, 0, 69, 88
2, 121680, Note_on_c, 0, 74, 88
2, 121680, Note_on_c, 0, 78, 88
2, 121680, Note_on_c, 0, 81, 88
2, 122160, Note_on_c, 0, 81, 0
2, 122160, Note_on_c, 0, 69, 0
2, 122160, Note_on_c, 0, 74, 0
2, 122160, Note_on_c, 0, 78, 0
2, 122160, Note_on_c, 0, 71, 88
2, 122160, Note_on_c, 0, 83, 88
2, 122640, Note_on_c, 0, 83, 0
2, 122640, Note_on_c, 0, 71, 0
2, 122640, Note_on_c, 0, 74, 88
2, 122640, Note_on_c, 0, 86, 88
2, 123000, Note_on_c, 0, 86, 0
2, 123000, Note_on_c, 0, 74, 0
2, 123000, Note_on_c, 0, 73, 88
2, 123000, Note_on_c, 0, 85, 88
2, 123120, Note_on_c, 0, 85, 0
2, 123120, Note_on_c, 0, 73, 0
2, 123120, Note_on_c, 0, 76, 88
2, 123120, Note_on_c, 0, 88, 88
2, 123600, Note_on_c, 0, 88, 0
2, 123600, Note_on_c, 0, 76, 0
2, 123600, Note_on_c, 0, 69, 88
2, 123600, Note_on_c, 0, 81, 88
2, 123840, Note_on_c, 0, 81, 0
2, 123840, Note_on_c, 0, 69, 0
2, 124560, Note_on_c, 0, 68, 88
2, 124560, Note_on_c, 0, 74, 88
2, 124560, Note_on_c, 0, 77, 88
2, 124560, Note_on_c, 0, 80, 88
2, 125040, Note_on_c, 0, 80, 0
2, 125040, Note_on_c, 0, 68, 0
2, 125040, Note_on_c, 0, 74, 0
2, 125040, Note_on_c, 0, 77, 0
2, 125040, Note_on_c, 0, 69, 88
2, 125040, Note_on_c, 0, 76, 88
2, 125040, Note_on_c, 0, 81, 88
2, 125520, Note_on_c, 0, 81, 0
2, 125520, Note_on_c, 0, 76, 0
2, 125520, Note_on_c, 0, 69, 0
2, 125520, Note_on_c, 0, 76, 88
2, 125520, Note_on_c, 0, 79, 88
2, 125520, Note_on_c, 0, 88, 88
2, 125880, Note_on_c, 0, 88, 0
2, 125880, Note_on_c, 0, 79, 0
2, 125880, Note_on_c, 0, 76, 0
2, 125880, Note_on_c, 0, 74, 88
2, 125880, Note_on_c, 0, 80, 88
2, 125880, Note_on_c, 0, 86, 88
2, 126000, Note_on_c, 0, 86, 0
2, 126000, Note_on_c, 0, 80, 0
2, 126000, Note_on_c, 0, 74, 0
2, 126000, Note_on_c, 0, 78, 88
2, 126000, Note_on_c, 0, 86, 88
2, 126000, Note_on_c, 0, 90, 88
2, 126480, Note_on_c, 0, 90, 0
2, 126480, Note_on_c, 0, 86, 0
2, 126480, Note_on_c, 0, 78, 0
2, 126480, Note_on_c, 0, 69, 88
2, 126480, Note_on_c, 0, 74, 88
2, 126480, Note_on_c, 0, 81, 88
2, 126720, Note_on_c, 0, 81, 0
2, 126720, Note_on_c, 0, 74, 0
2, 126720, Note_on_c, 0, 69, 0
2, 127440, Note_on_c, 0, 68, 88
2, 127440, Note_on_c, 0, 74, 88
2, 127440, Note_on_c, 0, 77, 88
2, 127440, Note_on_c, 0, 80, 88
2, 127920, Note_on_c, 0, 80, 0
2, 127920, Note_on_c, 0, 68, 0
2, 127920, Note_on_c, 0, 74, 0
2, 127920, Note_on_c, 0, 77, 0
2, 127920, Note_on_c, 0, 69, 88
2, 127920, Note_on_c, 0, 76, 88
2, 127920, Note_on_c, 0, 81, 88
2, 128400, Note_on_c, 0, 81, 0
2, 128400, Note_on_c, 0, 76, 0
2, 128400, Note_on_c, 0, 69, 0
2, 128400, Note_on_c, 0, 74, 88
2, 128400, Note_on_c, 0, 79, 88
2, 128400, Note_on_c, 0, 86, 88
2, 128760, Note_on_c, 0, 86, 0
2, 128760, Note_on_c, 0, 79, 0
2, 128760, Note_on_c, 0, 74, 0
2, 128760, Note_on_c, 0, 73, 88
2, 128760, Note_on_c, 0, 79, 88
2, 128760, Note_on_c, 0, 85, 88
2, 128880, Note_on_c, 0, 85, 0
2, 128880, Note_on_c, 0, 79, 0
2, 128880, Note_on_c, 0, 73, 0
2, 128880, Note_on_c, 0, 76, 88
2, 128880, Note_on_c, 0, 79, 88
2, 128880, Note_on_c, 0, 88, 88
2, 129360, Note_on_c, 0, 88, 0
2, 129360, Note_on_c, 0, 79, 0
2, 129360, Note_on_c, 0, 76, 0
2, 129360, Note_on_c, 0, 69, 88
2, 129360, Note_on_c, 0, 76, 88
2, 129360, Note_on_c, 0, 79, 88
2, 129360, Note_on_c, 0, 81, 88
2, 129600, Note_on_c, 0, 81, 0
2, 129600, Note_on_c, 0, 69, 0
2, 129600, Note_on_c, 0, 76, 0
2, 129600, Note_on_c, 0, 79, 0
2, 129600, Note_on_c, 0, 67, 88
2, 129600, Note_on_c, 0, 69, 88
2, 129600, Note_on_c, 0, 76, 88
2, 130080, Note_on_c, 0, 76, 0
2, 130080, Note_on_c, 0, 69, 0
2, 130080, Note_on_c, 0, 67, 0
2, 130080, Note_on_c, 0, 61, 88
2, 130080, Note_on_c, 0, 67, 88
2, 130080, Note_on_c, 0, 69, 88
2, 130320, Note_on_c, 0, 69, 0
2, 130320, Note_on_c, 0, 67, 0
2, 130320, Note_on_c, 0, 61, 0
2, 130320, Note_on_c, 0, 76, 88
2, 130320, Note_on_c, 0, 79, 88
2, 130320, Note_on_c, 0, 88, 88
2, 130800, Note_on_c, 0, 88, 0
2, 130800, Note_on_c, 0, 79, 0
2, 130800, Note_on_c, 0, 76, 0
2, 130800, Note_on_c, 0, 69, 75
2, 130800, Note_on_c, 0, 76, 75
2, 130800, Note_on_c, 0, 79, 75
2, 130800, Note_on_c, 0, 81, 75
2, 131040, Note_on_c, 0, 81, 0
2, 131040, Note_on_c, 0, 69, 0
2, 131040, Note_on_c, 0, 76, 0
2, 131040, Note_on_c, 0, 79, 0
2, 131040, Note_on_c, 0, 67, 75
2, 131040, Note_on_c, 0, 69, 75
2, 131040, Note_on_c, 0, 76, 75
2, 131520, Note_on_c, 0, 76, 0
2, 131520, Note_on_c, 0, 69, 0
2, 131520, Note_on_c, 0, 67, 0
2, 131520, Note_on_c, 0, 61, 75
2, 131520, Note_on_c, 0, 67, 75
2, 131520, Note_on_c, 0, 69, 75
2, 131760, Note_on_c, 0, 69, 0
2, 131760, Note_on_c, 0, 67, 0
2, 131760, Note_on_c, 0, 61, 0
2, 131760, Note_on_c, 0, 67, 75
2, 131760, Note_on_c, 0, 69, 75
2, 131760, Note_on_c, 0, 76, 75
2, 132240, Note_on_c, 0, 76, 0
2, 132240, Note_on_c, 0, 69, 0
2, 132240, Note_on_c, 0, 67, 0
2, 132240, Note_on_c, 0, 61, 75
2, 132240, Note_on_c, 0, 67, 75
2, 132240, Note_on_c, 0, 69, 75
2, 132480, Note_on_c, 0, 69, 0
2, 132480, Note_on_c, 0, 67, 0
2, 132480, Note_on_c, 0, 61, 0
2, 132480, Note_on_c, 0, 67, 62
2, 132480, Note_on_c, 0, 69, 62
2, 132480, Note_on_c, 0, 76, 62
2, 132960, Note_on_c, 0, 76, 0
2, 132960, Note_on_c, 0, 69, 0
2, 132960, Note_on_c, 0, 67, 0
2, 132960, Note_on_c, 0, 61, 62
2, 132960, Note_on_c, 0, 67, 62
2, 132960, Note_on_c, 0, 69, 62
2, 133200, Note_on_c, 0, 69, 0
2, 133200, Note_on_c, 0, 67, 0
2, 133200, Note_on_c, 0, 61, 0
2, 133200, Note_on_c, 0, 67, 62
2, 133200, Note_on_c, 0, 69, 62
2, 133200, Note_on_c, 0, 76, 62
2, 133680, Note_on_c, 0, 76, 0
2, 133680, Note_on_c, 0, 69, 0
2, 133680, Note_on_c, 0, 67, 0
2, 133680, Note_on_c, 0, 61, 62
2, 133680, Note_on_c, 0, 67, 62
2, 133680, Note_on_c, 0, 69, 62
2, 133920, Note_on_c, 0, 69, 0
2, 133920, Note_on_c, 0, 67, 0
2, 133920, Note_on_c, 0, 61, 0
2, 133920, Note_on_c, 0, 67, 62
2, 133920, Note_on_c, 0, 69, 62
2, 133920, Note_on_c, 0, 76, 62
2, 134400, Note_on_c, 0, 76, 0
2, 134400, Note_on_c, 0, 69, 0
2, 134400, Note_on_c, 0, 67, 0
2, 134400, Note_on_c, 0, 61, 62
2, 134400, Note_on_c, 0, 67, 62
2, 134400, Note_on_c, 0, 69, 62
2, 134640, Note_on_c, 0, 69, 0
2, 134640, Note_on_c, 0, 67, 0
2, 134640, Note_on_c, 0, 61, 0
2, 134640, Note_on_c, 0, 76, 62
2, 134640, Note_on_c, 0, 79, 62
2, 134640, Note_on_c, 0, 81, 62
2, 134880, Note_on_c, 0, 81, 0
2, 134880, Note_on_c, 0, 79, 0
2, 134880, Note_on_c, 0, 76, 0
2, 134880, Note_on_c, 0, 69, 62
2, 135120, Note_on_c, 0, 69, 0
2, 135360, Note_on_c, 0, 76, 62
2, 135360, Note_on_c, 0, 79, 62
2, 135360, Note_on_c, 0, 81, 62
2, 135600, Note_on_c, 0, 81, 0
2, 135600, Note_on_c, 0, 79, 0
2, 135600, Note_on_c, 0, 76, 0
2, 135600, Note_on_c, 0, 69, 62
2, 135840, Note_on_c, 0, 69, 0
2, 136080, Note_on_c, 0, 76, 49
2, 136080, Note_on_c, 0, 79, 49
2, 136080, Note_on_c, 0, 81, 49
2, 136320, Note_on_c, 0, 81, 0
2, 136320, Note_on_c, 0, 79, 0
2, 136320, Note_on_c, 0, 76, 0
2, 136320, Note_on_c, 0, 69, 49
2, 136560, Note_on_c, 0, 69, 0
2, 136800, Note_on_c, 0, 76, 49
2, 136800, Note_on_c, 0, 79, 49
2, 136800, Note_on_c, 0, 81, 49
2, 137040, Note_on_c, 0, 81, 0
2, 137040, Note_on_c, 0, 79, 0
2, 137040, Note_on_c, 0, 76, 0
2, 137040, Note_on_c, 0, 69, 49
2, 137280, Note_on_c, 0, 69, 0
2, 137520, Note_on_c, 0, 80, 62
2, 138000, Note_on_c, 0, 80, 0
2, 138000, Note_on_c, 0, 81, 62
2, 138240, Note_on_c, 0, 81, 0
2, 138240, Note_on_c, 0, 78, 62
2, 138240, Note_on_c, 0, 86, 62
2, 138480, Note_on_c, 0, 86, 0
2, 138480, Note_on_c, 0, 78, 0
2, 138960, Note_on_c, 0, 77, 62
2, 139440, Note_on_c, 0, 77, 0
2, 139440, Note_on_c, 0, 78, 62
2, 139680, Note_on_c, 0, 78, 0
2, 139680, Note_on_c, 0, 74, 62
2, 139680, Note_on_c, 0, 83, 62
2, 139920, Note_on_c, 0, 83, 0
2, 139920, Note_on_c, 0, 74, 0
2, 140400, Note_on_c, 0, 67, 62
2, 140520, Note_on_c, 0, 67, 0
2, 140520, Note_on_c, 0, 70, 62
2, 140640, Note_on_c, 0, 70, 0
2, 140640, Note_on_c, 0, 74, 62
2, 140760, Note_on_c, 0, 74, 0
2, 140760, Note_on_c, 0, 73, 62
2, 140880, Note_on_c, 0, 73, 0
2, 140880, Note_on_c, 0, 67, 62
2, 141000, Note_on_c, 0, 67, 0
2, 141000, Note_on_c, 0, 70, 62
2, 141120, Note_on_c, 0, 70, 0
2, 141120, Note_on_c, 0, 78, 75
2, 141240, Note_on_c, 0, 78, 0
2, 141240, Note_on_c, 0, 76, 75
2, 141360, Note_on_c, 0, 76, 0
2, 141360, Note_on_c, 0, 70, 75
2, 141480, Note_on_c, 0, 70, 0
2, 141480, Note_on_c, 0, 76, 75
2, 141600, Note_on_c, 0, 76, 0
2, 141600, Note_on_c, 0, 81, 75
2, 141720, Note_on_c, 0, 81, 0
2, 141720, Note_on_c, 0, 79, 75
2, 141840, Note_on_c, 0, 79, 0
2, 141840, Note_on_c, 0, 76, 75
2, 141960, Note_on_c, 0, 76, 0
2, 141960, Note_on_c, 0, 79, 75
2, 142080, Note_on_c, 0, 79, 0
2, 142080, Note_on_c, 0, 86, 75
2, 142200, Note_on_c, 0, 86, 0
2, 142200, Note_on_c, 0, 85, 75
2, 142320, Note_on_c, 0, 85, 0
2, 142320, Note_on_c, 0, 79, 88
2, 142440, Note_on_c, 0, 79, 0
2, 142440, Note_on_c, 0, 85, 88
2, 142560, Note_on_c, 0, 85, 0
2, 142560, Note_on_c, 0, 90, 88
2, 142680, Note_on_c, 0, 90, 0
2, 142680, Note_on_c, 0, 88, 88
2, 142800, Note_on_c, 0, 88, 0
2, 142800, Note_on_c, 0, 86, 88
2, 142920, Note_on_c, 0, 86, 0
2, 142920, Note_on_c, 0, 85, 88
2, 143040, Note_on_c, 0, 85, 0
2, 143040, Note_on_c, 0, 83, 88
2, 143160, Note_on_c, 0, 83, 0
2, 143160, Note_on_c, 0, 81, 88
2, 143280, Note_on_c, 0, 81, 0
2, 143280, Note_on_c, 0, 80, 62
2, 143760, Note_on_c, 0, 80, 0
2, 143760, Note_on_c, 0, 81, 62
2, 144000, Note_on_c, 0, 81, 0
2, 144000, Note_on_c, 0, 78, 62
2, 144000, Note_on_c, 0, 86, 62
2, 144240, Note_on_c, 0, 86, 0
2, 144240, Note_on_c, 0, 78, 0
2, 144720, Note_on_c, 0, 77, 62
2, 145200, Note_on_c, 0, 77, 0
2, 145200, Note_on_c, 0, 78, 62
2, 145440, Note_on_c, 0, 78, 0
2, 145440, Note_on_c, 0, 74, 62
2, 145440, Note_on_c, 0, 83, 62
2, 145680, Note_on_c, 0, 83, 0
2, 145680, Note_on_c, 0, 74, 0
2, 146160, Note_on_c, 0, 67, 62
2, 146280, Note_on_c, 0, 67, 0
2, 146280, Note_on_c, 0, 70, 62
2, 146400, Note_on_c, 0, 70, 0
2, 146400, Note_on_c, 0, 74, 62
2, 146520, Note_on_c, 0, 74, 0
2, 146520, Note_on_c, 0, 73, 62
2, 146640, Note_on_c, 0, 73, 0
2, 146640, Note_on_c, 0, 67, 62
2, 146760, Note_on_c, 0, 67, 0
2, 146760, Note_on_c, 0, 70, 62
2, 146880, Note_on_c, 0, 70, 0
2, 146880, Note_on_c, 0, 78, 75
2, 147000, Note_on_c, 0, 78, 0
2, 147000, Note_on_c, 0, 76, 75
2, 147120, Note_on_c, 0, 76, 0
2, 147120, Note_on_c, 0, 70, 75
2, 147240, Note_on_c, 0, 70, 0
2, 147240, Note_on_c, 0, 76, 75
2, 147360, Note_on_c, 0, 76, 0
2, 147360, Note_on_c, 0, 81, 75
2, 147480, Note_on_c, 0, 81, 0
2, 147480, Note_on_c, 0, 79, 75
2, 147600, Note_on_c, 0, 79, 0
2, 147600, Note_on_c, 0, 76, 75
2, 147720, Note_on_c, 0, 76, 0
2, 147720, Note_on_c, 0, 79, 75
2, 147840, Note_on_c, 0, 79, 0
2, 147840, Note_on_c, 0, 86, 75
2, 147960, Note_on_c, 0, 86, 0
2, 147960, Note_on_c, 0, 85, 75
2, 148080, Note_on_c, 0, 85, 0
2, 148080, Note_on_c, 0, 79, 75
2, 148200, Note_on_c, 0, 79, 0
2, 148200, Note_on_c, 0, 85, 75
2, 148320, Note_on_c, 0, 85, 0
2, 148320, Note_on_c, 0, 88, 75
2, 148440, Note_on_c, 0, 88, 0
2, 148440, Note_on_c, 0, 86, 75
2, 148560, Note_on_c, 0, 86, 0
2, 148560, Note_on_c, 0, 78, 75
2, 148680, Note_on_c, 0, 78, 0
2, 148680, Note_on_c, 0, 82, 75
2, 148800, Note_on_c, 0, 82, 0
2, 148800, Note_on_c, 0, 86, 75
2, 148920, Note_on_c, 0, 86, 0
2, 148920, Note_on_c, 0, 85, 75
2, 149040, Note_on_c, 0, 85, 0
2, 149040, Note_on_c, 0, 78, 75
2, 149160, Note_on_c, 0, 78, 0
2, 149160, Note_on_c, 0, 82, 75
2, 149280, Note_on_c, 0, 82, 0
2, 149280, Note_on_c, 0, 85, 75
2, 149400, Note_on_c, 0, 85, 0
2, 149400, Note_on_c, 0, 83, 75
2, 149520, Note_on_c, 0, 83, 0
2, 149520, Note_on_c, 0, 71, 75
2, 149640, Note_on_c, 0, 71, 0
2, 149640, Note_on_c, 0, 78, 75
2, 149760, Note_on_c, 0, 78, 0
2, 149760, Note_on_c, 0, 81, 75
2, 149880, Note_on_c, 0, 81, 0
2, 149880, Note_on_c, 0, 79, 75
2, 150000, Note_on_c, 0, 79, 0
2, 150000, Note_on_c, 0, 71, 75
2, 150120, Note_on_c, 0, 71, 0
2, 150120, Note_on_c, 0, 75, 75
2, 150240, Note_on_c, 0, 75, 0
2, 150240, Note_on_c, 0, 79, 75
2, 150360, Note_on_c, 0, 79, 0
2, 150360, Note_on_c, 0, 78, 75
2, 150480, Note_on_c, 0, 78, 0
2, 150480, Note_on_c, 0, 71, 88
2, 150600, Note_on_c, 0, 71, 0
2, 150600, Note_on_c, 0, 75, 88
2, 150720, Note_on_c, 0, 75, 0
2, 150720, Note_on_c, 0, 78, 88
2, 150840, Note_on_c, 0, 78, 0
2, 150840, Note_on_c, 0, 76, 88
2, 150960, Note_on_c, 0, 76, 0
2, 150960, Note_on_c, 0, 85, 88
2, 151080, Note_on_c, 0, 85, 0
2, 151080, Note_on_c, 0, 83, 88
2, 151200, Note_on_c, 0, 83, 0
2, 151200, Note_on_c, 0, 76, 88
2, 151680, Note_on_c, 0, 76, 0
2, 151680, Note_on_c, 0, 70, 88
2, 151680, Note_on_c, 0, 78, 88
2, 151680, Note_on_c, 0, 82, 88
2, 152160, Note_on_c, 0, 82, 0
2, 152160, Note_on_c, 0, 78, 0
2, 152160, Note_on_c, 0, 70, 0
2, 152160, Note_on_c, 0, 71, 88
2, 152160, Note_on_c, 0, 76, 88
2, 152160, Note_on_c, 0, 83, 88
2, 152640, Note_on_c, 0, 83, 0
2, 152640, Note_on_c, 0, 76, 0
2, 152640, Note_on_c, 0, 71, 0
2, 152640, Note_on_c, 0, 72, 88
2, 152640, Note_on_c, 0, 78, 88
2, 152640, Note_on_c, 0, 81, 88
2, 152640, Note_on_c, 0, 84, 88
2, 153120, Note_on_c, 0, 84, 0
2, 153120, Note_on_c, 0, 72, 0
2, 153120, Note_on_c, 0, 78, 0
2, 153120, Note_on_c, 0, 81, 0
2, 153120, Note_on_c, 0, 73, 101
2, 153120, Note_on_c, 0, 79, 101
2, 153120, Note_on_c, 0, 85, 101
2, 153360, Note_on_c, 0, 85, 0
2, 153360, Note_on_c, 0, 79, 0
2, 153360, Note_on_c, 0, 73, 0
2, 153360, Note_on_c, 0, 74, 101
2, 153360, Note_on_c, 0, 78, 101
2, 153360, Note_on_c, 0, 86, 101
2, 153600, Note_on_c, 0, 86, 0
2, 153600, Note_on_c, 0, 78, 0
2, 153600, Note_on_c, 0, 74, 0
2, 154080, Note_on_c, 0, 70, 62
2, 154440, Note_on_c, 0, 70, 0
2, 154440, Note_on_c, 0, 71, 62
2, 154560, Note_on_c, 0, 71, 0
2, 154560, Note_on_c, 0, 73, 62
2, 154680, Note_on_c, 0, 73, 0
2, 154680, Note_on_c, 0, 71, 62
2, 154800, Note_on_c, 0, 71, 0
2, 154800, Note_on_c, 0, 78, 62
2, 154847, Note_on_c, 0, 78, 0
2, 155040, Note_on_c, 0, 72, 62
2, 155280, Note_on_c, 0, 72, 0
2, 155280, Note_on_c, 0, 73, 62
2, 155520, Note_on_c, 0, 73, 0
2, 155520, Note_on_c, 0, 70, 62
2, 155880, Note_on_c, 0, 70, 0
2, 155880, Note_on_c, 0, 71, 62
2, 156000, Note_on_c, 0, 71, 0
2, 156000, Note_on_c, 0, 73, 62
2, 156120, Note_on_c, 0, 73, 0
2, 156120, Note_on_c, 0, 71, 62
2, 156240, Note_on_c, 0, 71, 0
2, 156240, Note_on_c, 0, 78, 62
2, 156287, Note_on_c, 0, 78, 0
2, 156480, Note_on_c, 0, 72, 62
2, 156720, Note_on_c, 0, 72, 0
2, 156720, Note_on_c, 0, 73, 62
2, 156960, Note_on_c, 0, 73, 0
2, 156960, Note_on_c, 0, 70, 62
2, 157320, Note_on_c, 0, 70, 0
2, 157320, Note_on_c, 0, 71, 62
2, 157440, Note_on_c, 0, 71, 0
2, 157440, Note_on_c, 0, 73, 62
2, 157560, Note_on_c, 0, 73, 0
2, 157560, Note_on_c, 0, 71, 62
2, 157680, Note_on_c, 0, 71, 0
2, 157680, Note_on_c, 0, 77, 75
2, 157727, Note_on_c, 0, 77, 0
2, 157920, Note_on_c, 0, 73, 75
2, 158160, Note_on_c, 0, 73, 0
2, 158160, Note_on_c, 0, 78, 75
2, 158400, Note_on_c, 0, 78, 0
2, 158400, Note_on_c, 0, 79, 75
2, 158760, Note_on_c, 0, 79, 0
2, 158760, Note_on_c, 0, 80, 75
2, 158880, Note_on_c, 0, 80, 0
2, 158880, Note_on_c, 0, 81, 75
2, 159000, Note_on_c, 0, 81, 0
2, 159000, Note_on_c, 0, 80, 75
2, 159120, Note_on_c, 0, 80, 0
2, 159120, Note_on_c, 0, 89, 88
2, 159360, Note_on_c, 0, 89, 0
2, 159360, Note_on_c, 0, 85, 88
2, 159600, Note_on_c, 0, 85, 0
2, 159600, Note_on_c, 0, 90, 88
2, 159840, Note_on_c, 0, 90, 0
2, 159840, Note_on_c, 0, 70, 62
2, 160200, Note_on_c, 0, 70, 0
2, 160200, Note_on_c, 0, 71, 62
2, 160320, Note_on_c, 0, 71, 0
2, 160320, Note_on_c, 0, 73, 62
2, 160440, Note_on_c, 0, 73, 0
2, 160440, Note_on_c, 0, 71, 62
2, 160560, Note_on_c, 0, 71, 0
2, 160560, Note_on_c, 0, 78, 62
2, 160607, Note_on_c, 0, 78, 0
2, 160800, Note_on_c, 0, 72, 62
2, 161040, Note_on_c, 0, 72, 0
2, 161040, Note_on_c, 0, 73, 62
2, 161280, Note_on_c, 0, 73, 0
2, 161280, Note_on_c, 0, 70, 62
2, 161640, Note_on_c, 0, 70, 0
2, 161640, Note_on_c, 0, 71, 62
2, 161760, Note_on_c, 0, 71, 0
2, 161760, Note_on_c, 0, 73, 62
2, 161880, Note_on_c, 0, 73, 0
2, 161880, Note_on_c, 0, 71, 62
2, 162000, Note_on_c, 0, 71, 0
2, 162000, Note_on_c, 0, 78, 62
2, 162047, Note_on_c, 0, 78, 0
2, 162240, Note_on_c, 0, 72, 62
2, 162480, Note_on_c, 0, 72, 0
2, 162480, Note_on_c, 0, 73, 62
2, 162720, Note_on_c, 0, 73, 0
2, 162720, Note_on_c, 0, 72, 75
2, 163080, Note_on_c, 0, 72, 0
2, 163080, Note_on_c, 0, 73, 75
2, 163200, Note_on_c, 0, 73, 0
2, 163200, Note_on_c, 0, 74, 75
2, 163320, Note_on_c, 0, 74, 0
2, 163320, Note_on_c, 0, 73, 75
2, 163440, Note_on_c, 0, 73, 0
2, 163440, Note_on_c, 0, 77, 75
2, 163487, Note_on_c, 0, 77, 0
2, 163680, Note_on_c, 0, 71, 75
2, 163920, Note_on_c, 0, 71, 0
2, 163920, Note_on_c, 0, 78, 75
2, 164160, Note_on_c, 0, 78, 0
2, 164160, Note_on_c, 0, 84, 75
2, 164520, Note_on_c, 0, 84, 0
2, 164520, Note_on_c, 0, 85, 75
2, 164640, Note_on_c, 0, 85, 0
2, 164640, Note_on_c, 0, 86, 75
2, 164760, Note_on_c, 0, 86, 0
2, 164760, Note_on_c, 0, 85, 75
2, 164880, Note_on_c, 0, 85, 0
2, 164880, Note_on_c, 0, 89, 88
2, 165360, Note_on_c, 0, 89, 0
2, 165360, Note_on_c, 0, 90, 88
2, 165600, Note_on_c, 0, 90, 0
2, 165600, Note_on_c, 0, 77, 62
2, 166080, Note_on_c, 0, 77, 0
2, 166080, Note_on_c, 0, 78, 62
2, 166320, Note_on_c, 0, 78, 0
2, 166320, Note_on_c, 0, 67, 62
2, 166800, Note_on_c, 0, 67, 0
2, 166800, Note_on_c, 0, 68, 62
2, 167040, Note_on_c, 0, 68, 0
2, 167040, Note_on_c, 0, 71, 62
2, 167520, Note_on_c, 0, 71, 0
2, 167520, Note_on_c, 0, 69, 62
2, 167760, Note_on_c, 0, 69, 0
2, 167760, Note_on_c, 0, 65, 62
2, 168240, Note_on_c, 0, 65, 0
2, 168240, Note_on_c, 0, 66, 62
2, 168480, Note_on_c, 0, 66, 0
2, 168480, Note_on_c, 0, 67, 62
2, 168600, Note_on_c, 0, 67, 0
2, 168600, Note_on_c, 0, 68, 62
2, 168720, Note_on_c, 0, 68, 0
2, 168720, Note_on_c, 0, 69, 62
2, 168840, Note_on_c, 0, 69, 0
2, 168840, Note_on_c, 0, 62, 62
2, 168960, Note_on_c, 0, 62, 0
2, 168960, Note_on_c, 0, 68, 62
2, 169080, Note_on_c, 0, 68, 0
2, 169080, Note_on_c, 0, 69, 62
2, 169200, Note_on_c, 0, 69, 0
2, 169200, Note_on_c, 0, 73, 62
2, 169320, Note_on_c, 0, 73, 0
2, 169320, Note_on_c, 0, 64, 62
2, 169440, Note_on_c, 0, 64, 0
2, 169440, Note_on_c, 0, 70, 62
2, 169560, Note_on_c, 0, 70, 0
2, 169560, Note_on_c, 0, 71, 62
2, 169680, Note_on_c, 0, 71, 0
2, 169680, Note_on_c, 0, 74, 62
2, 169800, Note_on_c, 0, 74, 0
2, 169800, Note_on_c, 0, 64, 62
2, 169920, Note_on_c, 0, 64, 0
2, 169920, Note_on_c, 0, 70, 75
2, 170040, Note_on_c, 0, 70, 0
2, 170040, Note_on_c, 0, 71, 75
2, 170160, Note_on_c, 0, 71, 0
2, 170160, Note_on_c, 0, 76, 75
2, 170280, Note_on_c, 0, 76, 0
2, 170280, Note_on_c, 0, 64, 75
2, 170400, Note_on_c, 0, 64, 0
2, 170400, Note_on_c, 0, 73, 75
2, 170520, Note_on_c, 0, 73, 0
2, 170520, Note_on_c, 0, 74, 75
2, 170640, Note_on_c, 0, 74, 0
2, 170640, Note_on_c, 0, 78, 75
2, 170760, Note_on_c, 0, 78, 0
2, 170760, Note_on_c, 0, 66, 75
2, 170880, Note_on_c, 0, 66, 0
2, 170880, Note_on_c, 0, 73, 88
2, 171000, Note_on_c, 0, 73, 0
2, 171000, Note_on_c, 0, 74, 88
2, 171120, Note_on_c, 0, 74, 0
2, 171120, Note_on_c, 0, 79, 88
2, 171240, Note_on_c, 0, 79, 0
2, 171240, Note_on_c, 0, 67, 88
2, 171360, Note_on_c, 0, 67, 0
2, 171360, Note_on_c, 0, 79, 88
2, 171840, Note_on_c, 0, 79, 0
2, 171840, Note_on_c, 0, 80, 62
2, 172080, Note_on_c, 0, 80, 0
2, 172080, Note_on_c, 0, 69, 62
2, 172560, Note_on_c, 0, 69, 0
2, 172560, Note_on_c, 0, 70, 62
2, 172800, Note_on_c, 0, 70, 0
2, 172800, Note_on_c, 0, 73, 62
2, 173280, Note_on_c, 0, 73, 0
2, 173280, Note_on_c, 0, 71, 62
2, 173520, Note_on_c, 0, 71, 0
2, 173520, Note_on_c, 0, 67, 62
2, 174000, Note_on_c, 0, 67, 0
2, 174000, Note_on_c, 0, 68, 62
2, 174240, Note_on_c, 0, 68, 0
2, 174240, Note_on_c, 0, 69, 62
2, 174360, Note_on_c, 0, 69, 0
2, 174360, Note_on_c, 0, 70, 62
2, 174480, Note_on_c, 0, 70, 0
2, 174480, Note_on_c, 0, 71, 62
2, 174600, Note_on_c, 0, 71, 0
2, 174600, Note_on_c, 0, 64, 62
2, 174720, Note_on_c, 0, 64, 0
2, 174720, Note_on_c, 0, 70, 62
2, 174840, Note_on_c, 0, 70, 0
2, 174840, Note_on_c, 0, 71, 62
2, 174960, Note_on_c, 0, 71, 0
2, 174960, Note_on_c, 0, 75, 62
2, 175080, Note_on_c, 0, 75, 0
2, 175080, Note_on_c, 0, 66, 62
2, 175200, Note_on_c, 0, 66, 0
2, 175200, Note_on_c, 0, 72, 62
2, 175320, Note_on_c, 0, 72, 0
2, 175320, Note_on_c, 0, 73, 62
2, 175440, Note_on_c, 0, 73, 0
2, 175440, Note_on_c, 0, 76, 62
2, 175560, Note_on_c, 0, 76, 0
2, 175560, Note_on_c, 0, 66, 62
2, 175680, Note_on_c, 0, 66, 0
2, 175680, Note_on_c, 0, 72, 75
2, 175800, Note_on_c, 0, 72, 0
2, 175800, Note_on_c, 0, 73, 75
2, 175920, Note_on_c, 0, 73, 0
2, 175920, Note_on_c, 0, 78, 75
2, 176040, Note_on_c, 0, 78, 0
2, 176040, Note_on_c, 0, 66, 75
2, 176160, Note_on_c, 0, 66, 0
2, 176160, Note_on_c, 0, 75, 75
2, 176280, Note_on_c, 0, 75, 0
2, 176280, Note_on_c, 0, 76, 75
2, 176400, Note_on_c, 0, 76, 0
2, 176400, Note_on_c, 0, 80, 88
2, 176520, Note_on_c, 0, 80, 0
2, 176520, Note_on_c, 0, 68, 88
2, 176640, Note_on_c, 0, 68, 0
2, 176640, Note_on_c, 0, 75, 88
2, 176760, Note_on_c, 0, 75, 0
2, 176760, Note_on_c, 0, 76, 88
2, 176880, Note_on_c, 0, 76, 0
2, 176880, Note_on_c, 0, 81, 88
2, 177000, Note_on_c, 0, 81, 0
2, 177000, Note_on_c, 0, 69, 88
2, 177120, Note_on_c, 0, 69, 0
2, 177120, Note_on_c, 0, 73, 101
2, 177240, Note_on_c, 0, 73, 0
2, 177240, Note_on_c, 0, 74, 101
2, 177360, Note_on_c, 0, 74, 0
2, 177360, Note_on_c, 0, 81, 101
2, 177480, Note_on_c, 0, 81, 0
2, 177480, Note_on_c, 0, 69, 101
2, 177600, Note_on_c, 0, 69, 0
2, 177840, Note_on_c, 0, 65, 101
2, 177840, Note_on_c, 0, 68, 101
2, 177840, Note_on_c, 0, 71, 101
2, 178320, Note_on_c, 0, 71, 0
2, 178320, Note_on_c, 0, 68, 0
2, 178320, Note_on_c, 0, 65, 0
2, 178320, Note_on_c, 0, 64, 101
2, 178320, Note_on_c, 0, 69, 101
2, 178320, Note_on_c, 0, 73, 101
2, 178560, Note_on_c, 0, 73, 0
2, 178560, Note_on_c, 0, 69, 0
2, 178560, Note_on_c, 0, 64, 0
2, 178560, Control_c, 0, 64, 127
2, 178560, Note_on_c, 0, 73, 101
2, 178680, Note_on_c, 0, 73, 0
2, 178680, Note_on_c, 0, 74, 101
2, 178800, Note_on_c, 0, 74, 0
2, 178800, Note_on_c, 0, 81, 101
2, 178920, Note_on_c, 0, 81, 0
2, 178920, Control_c, 0, 64, 0
2, 178920, Note_on_c, 0, 69, 101
2, 179040, Note_on_c, 0, 69, 0
2, 179280, Note_on_c, 0, 65, 101
2, 179280, Note_on_c, 0, 68, 101
2, 179280, Note_on_c, 0, 71, 101
2, 179760, Note_on_c, 0, 71, 0
2, 179760, Note_on_c, 0, 68, 0
2, 179760, Note_on_c, 0, 65, 0
2, 179760, Note_on_c, 0, 64, 101
2, 179760, Note_on_c, 0, 69, 101
2, 179760, Note_on_c, 0, 73, 101
2, 180000, Note_on_c, 0, 73, 0
2, 180000, Note_on_c, 0, 69, 0
2, 180000, Note_on_c, 0, 64, 0
2, 180000, Control_c, 0, 64, 127
2, 180000, Note_on_c, 0, 73, 101
2, 180120, Note_on_c, 0, 73, 0
2, 180120, Note_on_c, 0, 74, 101
2, 180240, Note_on_c, 0, 74, 0
2, 180240, Note_on_c, 0, 81, 101
2, 180360, Note_on_c, 0, 81, 0
2, 180360, Control_c, 0, 64, 0
2, 180360, Note_on_c, 0, 69, 101
2, 180480, Note_on_c, 0, 69, 0
2, 180720, Note_on_c, 0, 62, 101
2, 180720, Note_on_c, 0, 65, 101
2, 180720, Note_on_c, 0, 68, 101
2, 181200, Note_on_c, 0, 68, 0
2, 181200, Note_on_c, 0, 65, 0
2, 181200, Note_on_c, 0, 62, 0
2, 181200, Note_on_c, 0, 62, 101
2, 181200, Note_on_c, 0, 66, 101
2, 181200, Note_on_c, 0, 69, 101
2, 181440, Note_on_c, 0, 69, 0
2, 181440, Note_on_c, 0, 66, 0
2, 181440, Note_on_c, 0, 62, 0
2, 181440, Control_c, 0, 64, 127
2, 181440, Note_on_c, 0, 73, 101
2, 181560, Note_on_c, 0, 73, 0
2, 181560, Note_on_c, 0, 74, 101
2, 181680, Note_on_c, 0, 74, 0
2, 181680, Note_on_c, 0, 81, 101
2, 181800, Note_on_c, 0, 81, 0
2, 181800, Control_c, 0, 64, 0
2, 181800, Note_on_c, 0, 69, 101
2, 181920, Note_on_c, 0, 69, 0
2, 182160, Note_on_c, 0, 62, 101
2, 182160, Note_on_c, 0, 65, 101
2, 182160, Note_on_c, 0, 68, 101
2, 182640, Note_on_c, 0, 68, 0
2, 182640, Note_on_c, 0, 65, 0
2, 182640, Note_on_c, 0, 62, 0
2, 182640, Note_on_c, 0, 62, 101
2, 182640, Note_on_c, 0, 66, 101
2, 182640, Note_on_c, 0, 69, 101
2, 182880, Note_on_c, 0, 69, 0
2, 182880, Note_on_c, 0, 66, 0
2, 182880, Note_on_c, 0, 62, 0
2, 183360, Note_on_c, 0, 65, 88
2, 183360, Note_on_c, 0, 68, 88
2, 183600, Note_on_c, 0, 68, 0
2, 183600, Note_on_c, 0, 65, 0
2, 183600, Note_on_c, 0, 66, 88
2, 183600, Note_on_c, 0, 69, 88
2, 183840, Note_on_c, 0, 69, 0
2, 183840, Note_on_c, 0, 66, 0
2, 183840, Note_on_c, 0, 65, 88
2, 183840, Note_on_c, 0, 68, 88
2, 184080, Note_on_c, 0, 68, 0
2, 184080, Note_on_c, 0, 65, 0
2, 184080, Note_on_c, 0, 66, 88
2, 184080, Note_on_c, 0, 69, 88
2, 184320, Note_on_c, 0, 69, 0
2, 184320, Note_on_c, 0, 66, 0
2, 184800, Note_on_c, 0, 77, 75
2, 184800, Note_on_c, 0, 80, 75
2, 185040, Note_on_c, 0, 80, 0
2, 185040, Note_on_c, 0, 77, 0
2, 185040, Note_on_c, 0, 78, 75
2, 185040, Note_on_c, 0, 81, 75
2, 185280, Note_on_c, 0, 81, 0
2, 185280, Note_on_c, 0, 78, 0
2, 185280, Note_on_c, 0, 77, 62
2, 185280, Note_on_c, 0, 80, 62
2, 185520, Note_on_c, 0, 80, 0
2, 185520, Note_on_c, 0, 77, 0
2, 185520, Note_on_c, 0, 78, 62
2, 185520, Note_on_c, 0, 81, 62
2, 185760, Note_on_c, 0, 81, 0
2, 185760, Note_on_c, 0, 78, 0
2, 185760, Note_on_c, 0, 80, 62
2, 186240, Note_on_c, 0, 80, 0
2, 186240, Note_on_c, 0, 81, 62
2, 186480, Note_on_c, 0, 81, 0
2, 186480, Note_on_c, 0, 78, 62
2, 186480, Note_on_c, 0, 86, 62
2, 186720, Note_on_c, 0, 86, 0
2, 186720, Note_on_c, 0, 78, 0
2, 187200, Note_on_c, 0, 77, 62
2, 187680, Note_on_c, 0, 77, 0
2, 187680, Note_on_c, 0, 78, 62
2, 187920, Note_on_c, 0, 78, 0
2, 187920, Note_on_c, 0, 74, 62
2, 187920, Note_on_c, 0, 83, 62
2, 188160, Note_on_c, 0, 83, 0
2, 188160, Note_on_c, 0, 74, 0
2, 188640, Note_on_c, 0, 67, 62
2, 188760, Note_on_c, 0, 67, 0
2, 188760, Note_on_c, 0, 70, 62
2, 188880, Note_on_c, 0, 70, 0
2, 188880, Note_on_c, 0, 74, 62
2, 189000, Note_on_c, 0, 74, 0
2, 189000, Note_on_c, 0, 73, 62
2, 189120, Note_on_c, 0, 73, 0
2, 189120, Note_on_c, 0, 67, 62
2, 189240, Note_on_c, 0, 67, 0
2, 189240, Note_on_c, 0, 70, 62
2, 189360, Note_on_c, 0, 70, 0
2, 189360, Note_on_c, 0, 78, 75
2, 189480, Note_on_c, 0, 78, 0
2, 189480, Note_on_c, 0, 76, 75
2, 189600, Note_on_c, 0, 76, 0
2, 189600, Note_on_c, 0, 70, 75
2, 189720, Note_on_c, 0, 70, 0
2, 189720, Note_on_c, 0, 76, 75
2, 189840, Note_on_c, 0, 76, 0
2, 189840, Note_on_c, 0, 81, 75
2, 189960, Note_on_c, 0, 81, 0
2, 189960, Note_on_c, 0, 79, 75
2, 190080, Note_on_c, 0, 79, 0
2, 190080, Note_on_c, 0, 76, 75
2, 190200, Note_on_c, 0, 76, 0
2, 190200, Note_on_c, 0, 79, 75
2, 190320, Note_on_c, 0, 79, 0
2, 190320, Note_on_c, 0, 86, 75
2, 190440, Note_on_c, 0, 86, 0
2, 190440, Note_on_c, 0, 85, 75
2, 190560, Note_on_c, 0, 85, 0
2, 190560, Note_on_c, 0, 79, 88
2, 190680, Note_on_c, 0, 79, 0
2, 190680, Note_on_c, 0, 85, 88
2, 190800, Note_on_c, 0, 85, 0
2, 190800, Note_on_c, 0, 90, 88
2, 190920, Note_on_c, 0, 90, 0
2, 190920, Note_on_c, 0, 88, 88
2, 191040, Note_on_c, 0, 88, 0
2, 191040, Note_on_c, 0, 86, 88
2, 191160, Note_on_c, 0, 86, 0
2, 191160, Note_on_c, 0, 85, 88
2, 191280, Note_on_c, 0, 85, 0
2, 191280, Note_on_c, 0, 83, 88
2, 191400, Note_on_c, 0, 83, 0
2, 191400, Note_on_c, 0, 81, 88
2, 191520, Note_on_c, 0, 81, 0
2, 191520, Note_on_c, 0, 80, 62
2, 192000, Note_on_c, 0, 80, 0
2, 192000, Note_on_c, 0, 81, 62
2, 192240, Note_on_c, 0, 81, 0
2, 192240, Note_on_c, 0, 78, 62
2, 192240, Note_on_c, 0, 86, 62
2, 192480, Note_on_c, 0, 86, 0
2, 192480, Note_on_c, 0, 78, 0
2, 192960, Note_on_c, 0, 77, 62
2, 193440, Note_on_c, 0, 77, 0
2, 193440, Note_on_c, 0, 78, 62
2, 193680, Note_on_c, 0, 78, 0
2, 193680, Note_on_c, 0, 74, 62
2, 193680, Note_on_c, 0, 83, 62
2, 193920, Note_on_c, 0, 83, 0
2, 193920, Note_on_c, 0, 74, 0
2, 194400, Note_on_c, 0, 67, 62
2, 194520, Note_on_c, 0, 67, 0
2, 194520, Note_on_c, 0, 70, 62
2, 194640, Note_on_c, 0, 70, 0
2, 194640, Note_on_c, 0, 74, 62
2, 194760, Note_on_c, 0, 74, 0
2, 194760, Note_on_c, 0, 73, 62
2, 194880, Note_on_c, 0, 73, 0
2, 194880, Note_on_c, 0, 67, 62
2, 195000, Note_on_c, 0, 67, 0
2, 195000, Note_on_c, 0, 70, 62
2, 195120, Note_on_c, 0, 70, 0
2, 195120, Note_on_c, 0, 78, 75
2, 195240, Note_on_c, 0, 78, 0
2, 195240, Note_on_c, 0, 76, 75
2, 195360, Note_on_c, 0, 76, 0
2, 195360, Note_on_c, 0, 70, 75
2, 195480, Note_on_c, 0, 70, 0
2, 195480, Note_on_c, 0, 76, 75
2, 195600, Note_on_c, 0, 76, 0
2, 195600, Note_on_c, 0, 81, 75
2, 195720, Note_on_c, 0, 81, 0
2, 195720, Note_on_c, 0, 79, 75
2, 195840, Note_on_c, 0, 79, 0
2, 195840, Note_on_c, 0, 76, 75
2, 195960, Note_on_c, 0, 76, 0
2, 195960, Note_on_c, 0, 79, 75
2, 196080, Note_on_c, 0, 79, 0
2, 196080, Note_on_c, 0, 86, 75
2, 196200, Note_on_c, 0, 86, 0
2, 196200, Note_on_c, 0, 85, 75
2, 196320, Note_on_c, 0, 85, 0
2, 196320, Note_on_c, 0, 79, 75
2, 196440, Note_on_c, 0, 79, 0
2, 196440, Note_on_c, 0, 85, 75
2, 196560, Note_on_c, 0, 85, 0
2, 196560, Note_on_c, 0, 88, 75
2, 196680, Note_on_c, 0, 88, 0
2, 196680, Note_on_c, 0, 86, 75
2, 196800, Note_on_c, 0, 86, 0
2, 196800, Note_on_c, 0, 78, 75
2, 196920, Note_on_c, 0, 78, 0
2, 196920, Note_on_c, 0, 82, 75
2, 197040, Note_on_c, 0, 82, 0
2, 197040, Note_on_c, 0, 86, 75
2, 197160, Note_on_c, 0, 86, 0
2, 197160, Note_on_c, 0, 85, 75
2, 197280, Note_on_c, 0, 85, 0
2, 197280, Note_on_c, 0, 78, 75
2, 197400, Note_on_c, 0, 78, 0
2, 197400, Note_on_c, 0, 82, 75
2, 197520, Note_on_c, 0, 82, 0
2, 197520, Note_on_c, 0, 85, 75
2, 197640, Note_on_c, 0, 85, 0
2, 197640, Note_on_c, 0, 83, 75
2, 197760, Note_on_c, 0, 83, 0
2, 197760, Note_on_c, 0, 71, 75
2, 197880, Note_on_c, 0, 71, 0
2, 197880, Note_on_c, 0, 78, 75
2, 198000, Note_on_c, 0, 78, 0
2, 198000, Note_on_c, 0, 81, 75
2, 198120, Note_on_c, 0, 81, 0
2, 198120, Note_on_c, 0, 79, 75
2, 198240, Note_on_c, 0, 79, 0
2, 198240, Note_on_c, 0, 71, 75
2, 198360, Note_on_c, 0, 71, 0
2, 198360, Note_on_c, 0, 75, 75
2, 198480, Note_on_c, 0, 75, 0
2, 198480, Note_on_c, 0, 79, 75
2, 198600, Note_on_c, 0, 79, 0
2, 198600, Note_on_c, 0, 78, 75
2, 198720, Note_on_c, 0, 78, 0
2, 198720, Note_on_c, 0, 71, 88
2, 198840, Note_on_c, 0, 71, 0
2, 198840, Note_on_c, 0, 75, 88
2, 198960, Note_on_c, 0, 75, 0
2, 198960, Note_on_c, 0, 78, 88
2, 199080, Note_on_c, 0, 78, 0
2, 199080, Note_on_c, 0, 76, 88
2, 199200, Note_on_c, 0, 76, 0
2, 199200, Note_on_c, 0, 85, 88
2, 199320, Note_on_c, 0, 85, 0
2, 199320, Note_on_c, 0, 83, 88
2, 199440, Note_on_c, 0, 83, 0
2, 199440, Note_on_c, 0, 76, 88
2, 199920, Note_on_c, 0, 76, 0
2, 199920, Note_on_c, 0, 70, 88
2, 199920, Note_on_c, 0, 78, 88
2, 199920, Note_on_c, 0, 82, 88
2, 200400, Note_on_c, 0, 82, 0
2, 200400, Note_on_c, 0, 78, 0
2, 200400, Note_on_c, 0, 70, 0
2, 200400, Note_on_c, 0, 71, 88
2, 200400, Note_on_c, 0, 76, 88
2, 200400, Note_on_c, 0, 83, 88
2, 200880, Note_on_c, 0, 83, 0
2, 200880, Note_on_c, 0, 76, 0
2, 200880, Note_on_c, 0, 71, 0
2, 200880, Note_on_c, 0, 72, 88
2, 200880, Note_on_c, 0, 78, 88
2, 200880, Note_on_c, 0, 81, 88
2, 200880, Note_on_c, 0, 84, 88
2, 201360, Note_on_c, 0, 84, 0
2, 201360, Note_on_c, 0, 72, 0
2, 201360, Note_on_c, 0, 78, 0
2, 201360, Note_on_c, 0, 81, 0
2, 201360, Note_on_c, 0, 73, 101
2, 201360, Note_on_c, 0, 79, 101
2, 201360, Note_on_c, 0, 85, 101
2, 201600, Note_on_c, 0, 85, 0
2, 201600, Note_on_c, 0, 79, 0
2, 201600, Note_on_c, 0, 73, 0
2, 201600, Note_on_c, 0, 74, 101
2, 201600, Note_on_c, 0, 78, 101
2, 201600, Note_on_c, 0, 86, 101
2, 201840, Note_on_c, 0, 86, 0
2, 201840, Note_on_c, 0, 78, 0
2, 201840, Note_on_c, 0, 74, 0
2, 202320, Note_on_c, 0, 57, 62
2, 202320, Note_on_c, 0, 64, 62
2, 202320, Note_on_c, 0, 69, 62
2, 202800, Note_on_c, 0, 69, 0
2, 202800, Note_on_c, 0, 64, 0
2, 202800, Note_on_c, 0, 57, 0
2, 202800, Note_on_c, 0, 59, 62
2, 202800, Note_on_c, 0, 62, 62
2, 202800, Note_on_c, 0, 66, 62
2, 202800, Note_on_c, 0, 71, 62
2, 203280, Note_on_c, 0, 71, 0
2, 203280, Note_on_c, 0, 59, 0
2, 203280, Note_on_c, 0, 62, 0
2, 203280, Note_on_c, 0, 66, 0
2, 203280, Note_on_c, 0, 64, 62
2, 203280, Note_on_c, 0, 76, 62
2, 203640, Note_on_c, 0, 76, 0
2, 203640, Note_on_c, 0, 64, 0
2, 203640, Note_on_c, 0, 62, 62
2, 203640, Note_on_c, 0, 74, 62
2, 203760, Note_on_c, 0, 74, 0
2, 203760, Note_on_c, 0, 62, 0
2, 203760, Note_on_c, 0, 66, 62
2, 203760, Note_on_c, 0, 69, 62
2, 203760, Note_on_c, 0, 78, 62
2, 204240, Note_on_c, 0, 78, 0
2, 204240, Note_on_c, 0, 69, 0
2, 204240, Note_on_c, 0, 66, 0
2, 204240, Note_on_c, 0, 57, 62
2, 204240, Note_on_c, 0, 62, 62
2, 204240, Note_on_c, 0, 66, 62
2, 204240, Note_on_c, 0, 69, 62
2, 204480, Note_on_c, 0, 69, 0
2, 204480, Note_on_c, 0, 57, 0
2, 204480, Note_on_c, 0, 62, 0
2, 204480, Note_on_c, 0, 66, 0
2, 205200, Note_on_c, 0, 57, 62
2, 205200, Note_on_c, 0, 64, 62
2, 205200, Note_on_c, 0, 69, 62
2, 205680, Note_on_c, 0, 69, 0
2, 205680, Note_on_c, 0, 64, 0
2, 205680, Note_on_c, 0, 57, 0
2, 205680, Note_on_c, 0, 59, 62
2, 205680, Note_on_c, 0, 62, 62
2, 205680, Note_on_c, 0, 66, 62
2, 205680, Note_on_c, 0, 71, 62
2, 206160, Note_on_c, 0, 71, 0
2, 206160, Note_on_c, 0, 59, 0
2, 206160, Note_on_c, 0, 62, 0
2, 206160, Note_on_c, 0, 66, 0
2, 206160, Note_on_c, 0, 62, 62
2, 206160, Note_on_c, 0, 74, 62
2, 206520, Note_on_c, 0, 74, 0
2, 206520, Note_on_c, 0, 62, 0
2, 206520, Note_on_c, 0, 61, 62
2, 206520, Note_on_c, 0, 73, 62
2, 206640, Note_on_c, 0, 73, 0
2, 206640, Note_on_c, 0, 61, 0
2, 206640, Note_on_c, 0, 64, 62
2, 206640, Note_on_c, 0, 67, 62
2, 206640, Note_on_c, 0, 76, 62
2, 207120, Note_on_c, 0, 76, 0
2, 207120, Note_on_c, 0, 67, 0
2, 207120, Note_on_c, 0, 64, 0
2, 207120, Note_on_c, 0, 57, 62
2, 207120, Note_on_c, 0, 64, 62
2, 207120, Note_on_c, 0, 67, 62
2, 207120, Note_on_c, 0, 69, 62
2, 207360, Note_on_c, 0, 69, 0
2, 207360, Note_on_c, 0, 57, 0
2, 207360, Note_on_c, 0, 64, 0
2, 207360, Note_on_c, 0, 67, 0
2, 208080, Note_on_c, 0, 57, 62
2, 208080, Note_on_c, 0, 62, 62
2, 208080, Note_on_c, 0, 66, 62
2, 208080, Note_on_c, 0, 69, 62
2, 208560, Note_on_c, 0, 69, 0
2, 208560, Note_on_c, 0, 57, 0
2, 208560, Note_on_c, 0, 62, 0
2, 208560, Note_on_c, 0, 66, 0
2, 208560, Note_on_c, 0, 59, 62
2, 208560, Note_on_c, 0, 62, 62
2, 208560, Note_on_c, 0, 66, 62
2, 208560, Note_on_c, 0, 71, 62
2, 209040, Note_on_c, 0, 71, 0
2, 209040, Note_on_c, 0, 59, 0
2, 209040, Note_on_c, 0, 62, 0
2, 209040, Note_on_c, 0, 66, 0
2, 209040, Note_on_c, 0, 64, 62
2, 209040, Note_on_c, 0, 76, 62
2, 209400, Note_on_c, 0, 76, 0
2, 209400, Note_on_c, 0, 64, 0
2, 209400, Note_on_c, 0, 62, 62
2, 209400, Note_on_c, 0, 74, 62
2, 209520, Note_on_c, 0, 74, 0
2, 209520, Note_on_c, 0, 62, 0
2, 209520, Note_on_c, 0, 66, 62
2, 209520, Note_on_c, 0, 74, 62
2, 209520, Note_on_c, 0, 78, 62
2, 209760, Note_on_c, 0, 78, 0
2, 209760, Note_on_c, 0, 74, 0
2, 209760, Note_on_c, 0, 66, 0
2, 209760, Note_on_c, 0, 69, 62
2, 209760, Note_on_c, 0, 78, 62
2, 209760, Note_on_c, 0, 81, 62
2, 210000, Note_on_c, 0, 81, 0
2, 210000, Note_on_c, 0, 78, 0
2, 210000, Note_on_c, 0, 69, 0
2, 210000, Note_on_c, 0, 69, 62
2, 210000, Note_on_c, 0, 78, 62
2, 210000, Note_on_c, 0, 81, 62
2, 210240, Note_on_c, 0, 81, 0
2, 210240, Note_on_c, 0, 78, 0
2, 210240, Note_on_c, 0, 69, 0
2, 210240, Note_on_c, 0, 57, 62
2, 210240, Note_on_c, 0, 64, 62
2, 210240, Note_on_c, 0, 67, 62
2, 210240, Note_on_c, 0, 69, 62
2, 210960, Note_on_c, 0, 69, 0
2, 210960, Note_on_c, 0, 57, 0
2, 210960, Note_on_c, 0, 64, 0
2, 210960, Note_on_c, 0, 67, 0
2, 210960, Note_on_c, 0, 66, 62
2, 210960, Note_on_c, 0, 74, 62
2, 210960, Note_on_c, 0, 78, 62
2, 211200, Note_on_c, 0, 78, 0
2, 211200, Note_on_c, 0, 74, 0
2, 211200, Note_on_c, 0, 66, 0
2, 211200, Note_on_c, 0, 69, 62
2, 211200, Note_on_c, 0, 78, 62
2, 211200, Note_on_c, 0, 81, 62
2, 211440, Note_on_c, 0, 81, 0
2, 211440, Note_on_c, 0, 78, 0
2, 211440, Note_on_c, 0, 69, 0
2, 211440, Note_on_c, 0, 69, 62
2, 211440, Note_on_c, 0, 78, 62
2, 211440, Note_on_c, 0, 81, 62
2, 211680, Note_on_c, 0, 81, 0
2, 211680, Note_on_c, 0, 78, 0
2, 211680, Note_on_c, 0, 69, 0
2, 211680, Note_on_c, 0, 57, 62
2, 211680, Note_on_c, 0, 64, 62
2, 211680, Note_on_c, 0, 67, 62
2, 211680, Note_on_c, 0, 69, 62
2, 212400, Note_on_c, 0, 69, 0
2, 212400, Note_on_c, 0, 57, 0
2, 212400, Note_on_c, 0, 64, 0
2, 212400, Note_on_c, 0, 67, 0
2, 212400, Note_on_c, 0, 54, 62
2, 212400, Note_on_c, 0, 66, 62
2, 212640, Note_on_c, 0, 66, 0
2, 212640, Note_on_c, 0, 54, 0
2, 212640, Note_on_c, 0, 57, 62
2, 212640, Note_on_c, 0, 69, 62
2, 212880, Note_on_c, 0, 69, 0
2, 212880, Note_on_c, 0, 57, 0
2, 212880, Note_on_c, 0, 57, 62
2, 212880, Note_on_c, 0, 69, 62
2, 213120, Note_on_c, 0, 69, 0
2, 213120, Note_on_c, 0, 57, 0
2, 213120, Note_on_c, 0, 52, 62
2, 213120, Note_on_c, 0, 55, 62
2, 213120, Note_on_c, 0, 57, 62
2, 213840, Note_on_c, 0, 57, 0
2, 213840, Note_on_c, 0, 55, 0
2, 213840, Note_on_c, 0, 52, 0
2, 213840, Note_on_c, 0, 54, 62
2, 213840, Note_on_c, 0, 66, 62
2, 214080, Note_on_c, 0, 66, 0
2, 214080, Note_on_c, 0, 54, 0
2, 214080, Note_on_c, 0, 57, 62
2, 214080, Note_on_c, 0, 69, 62
2, 214320, Note_on_c, 0, 69, 0
2, 214320, Note_on_c, 0, 57, 0
2, 214320, Note_on_c, 0, 57, 62
2, 214320, Note_on_c, 0, 69, 62
2, 214560, Note_on_c, 0, 69, 0
2, 214560, Note_on_c, 0, 57, 0
2, 214560, Note_on_c, 0, 52, 62
2, 214560, Note_on_c, 0, 55, 62
2, 214560, Note_on_c, 0, 57, 62
2, 215280, Note_on_c, 0, 57, 0
2, 215280, Note_on_c, 0, 55, 0
2, 215280, Note_on_c, 0, 52, 0
2, 215280, Note_on_c, 0, 54, 62
2, 215280, Note_on_c, 0, 62, 62
2, 215520, Note_on_c, 0, 62, 0
2, 215520, Note_on_c, 0, 54, 0
2, 215520, Note_on_c, 0, 56, 62
2, 215640, Note_on_c, 0, 56, 0
2, 215640, Note_on_c, 0, 57, 62
2, 215760, Note_on_c, 0, 57, 0
2, 215760, Note_on_c, 0, 59, 62
2, 215880, Note_on_c, 0, 59, 0
2, 215880, Note_on_c, 0, 61, 62
2, 216000, Note_on_c, 0, 61, 0
2, 216000, Note_on_c, 0, 62, 62
2, 216120, Note_on_c, 0, 62, 0
2, 216120, Note_on_c, 0, 61, 62
2, 216240, Note_on_c, 0, 61, 0
2, 216240, Note_on_c, 0, 62, 62
2, 216360, Note_on_c, 0, 62, 0
2, 216360, Note_on_c, 0, 64, 62
2, 216480, Note_on_c, 0, 64, 0
2, 216480, Note_on_c, 0, 66, 62
2, 216600, Note_on_c, 0, 66, 0
2, 216600, Note_on_c, 0, 67, 62
2, 216720, Note_on_c, 0, 67, 0
2, 216720, Note_on_c, 0, 68, 62
2, 216840, Note_on_c, 0, 68, 0
2, 216840, Note_on_c, 0, 69, 62
2, 216960, Note_on_c, 0, 69, 0
2, 216960, Note_on_c, 0, 68, 62
2, 217080, Note_on_c, 0, 68, 0
2, 217080, Note_on_c, 0, 69, 62
2, 217200, Note_on_c, 0, 69, 0
2, 217200, Note_on_c, 0, 71, 62
2, 217320, Note_on_c, 0, 71, 0
2, 217320, Note_on_c, 0, 73, 62
2, 217440, Note_on_c, 0, 73, 0
2, 217440, Note_on_c, 0, 74, 75
2, 217560, Note_on_c, 0, 74, 0
2, 217560, Note_on_c, 0, 73, 75
2, 217680, Note_on_c, 0, 73, 0
2, 217680, Note_on_c, 0, 74, 75
2, 217800, Note_on_c, 0, 74, 0
2, 217800, Note_on_c, 0, 76, 75
2, 217920, Note_on_c, 0, 76, 0
2, 217920, Note_on_c, 0, 78, 75
2, 218040, Note_on_c, 0, 78, 0
2, 218040, Note_on_c, 0, 79, 75
2, 218160, Note_on_c, 0, 79, 0
2, 218160, Note_on_c, 0, 80, 75
2, 218280, Note_on_c, 0, 80, 0
2, 218280, Note_on_c, 0, 81, 75
2, 218400, Note_on_c, 0, 81, 0
2, 218400, Note_on_c, 0, 80, 75
2, 218520, Note_on_c, 0, 80, 0
2, 218520, Note_on_c, 0, 81, 75
2, 218640, Note_on_c, 0, 81, 0
2, 218640, Note_on_c, 0, 83, 75
2, 218760, Note_on_c, 0, 83, 0
2, 218760, Note_on_c, 0, 85, 75
2, 218880, Note_on_c, 0, 85, 0
2, 218880, Note_on_c, 0, 86, 75
2, 219000, Note_on_c, 0, 86, 0
2, 219000, Note_on_c, 0, 85, 75
2, 219120, Note_on_c, 0, 85, 0
2, 219120, Note_on_c, 0, 86, 75
2, 219240, Note_on_c, 0, 86, 0
2, 219240, Note_on_c, 0, 88, 75
2, 219360, Note_on_c, 0, 88, 0
2, 219360, Note_on_c, 0, 90, 75
2, 219480, Note_on_c, 0, 90, 0
2, 219480, Note_on_c, 0, 91, 75
2, 219600, Note_on_c, 0, 91, 0
2, 219600, Note_on_c, 0, 92, 88
2, 219720, Note_on_c, 0, 92, 0
2, 219720, Note_on_c, 0, 93, 88
2, 219840, Note_on_c, 0, 93, 0
2, 219840, Note_on_c, 0, 86, 88
2, 219960, Note_on_c, 0, 86, 0
2, 219960, Note_on_c, 0, 88, 88
2, 220080, Note_on_c, 0, 88, 0
2, 220080, Note_on_c, 0, 90, 88
2, 220200, Note_on_c, 0, 90, 0
2, 220200, Note_on_c, 0, 91, 88
2, 220320, Note_on_c, 0, 91, 0
2, 220320, Note_on_c, 0, 93, 88
2, 220440, Note_on_c, 0, 93, 0
2, 220440, Note_on_c, 0, 92, 88
2, 220560, Note_on_c, 0, 92, 0
2, 220560, Note_on_c, 0, 93, 88
2, 220680, Note_on_c, 0, 93, 0
2, 220680, Note_on_c, 0, 94, 88
2, 220800, Note_on_c, 0, 94, 0
2, 220800, Note_on_c, 0, 95, 88
2, 220920, Note_on_c, 0, 95, 0
2, 220920, Note_on_c, 0, 96, 88
2, 221040, Note_on_c, 0, 96, 0
2, 221040, Note_on_c, 0, 97, 88
2, 221160, Note_on_c, 0, 97, 0
2, 221160, Note_on_c, 0, 98, 88
2, 221280, Note_on_c, 0, 98, 0
2, 221280, Note_on_c, 0, 86, 88
2, 221400, Note_on_c, 0, 86, 0
2, 221400, Note_on_c, 0, 88, 88
2, 221520, Note_on_c, 0, 88, 0
2, 221520, Note_on_c, 0, 90, 88
2, 221640, Note_on_c, 0, 90, 0
2, 221640, Note_on_c, 0, 91, 88
2, 221760, Note_on_c, 0, 91, 0
2, 221760, Note_on_c, 0, 93, 88
2, 221880, Note_on_c, 0, 93, 0
2, 221880, Note_on_c, 0, 92, 88
2, 222000, Note_on_c, 0, 92, 0
2, 222000, Note_on_c, 0, 93, 88
2, 222120, Note_on_c, 0, 93, 0
2, 222120, Note_on_c, 0, 94, 88
2, 222240, Note_on_c, 0, 94, 0
2, 222240, Note_on_c, 0, 95, 88
2, 222360, Note_on_c, 0, 95, 0
2, 222360, Note_on_c, 0, 96, 88
2, 222480, Note_on_c, 0, 96, 0
2, 222480, Note_on_c, 0, 97, 101
2, 222600, Note_on_c, 0, 97, 0
2, 222600, Note_on_c, 0, 98, 101
2, 222720, Note_on_c, 0, 98, 0
2, 222720, Note_on_c, 0, 92, 101
2, 222840, Note_on_c, 0, 92, 0
2, 222840, Note_on_c, 0, 93, 101
2, 222960, Note_on_c, 0, 93, 0
2, 222960, Note_on_c, 0, 89, 101
2, 223080, Note_on_c, 0, 89, 0
2, 223080, Note_on_c, 0, 90, 101
2, 223200, Note_on_c, 0, 90, 0
2, 223200, Note_on_c, 0, 85, 101
2, 223320, Note_on_c, 0, 85, 0
2, 223320, Note_on_c, 0, 86, 101
2, 223440, Note_on_c, 0, 86, 0
2, 223440, Note_on_c, 0, 80, 101
2, 223560, Note_on_c, 0, 80, 0
2, 223560, Note_on_c, 0, 81, 101
2, 223680, Note_on_c, 0, 81, 0
2, 223680, Note_on_c, 0, 77, 101
2, 223800, Note_on_c, 0, 77, 0
2, 223800, Note_on_c, 0, 78, 101
2, 223920, Note_on_c, 0, 78, 0
2, 223920, Note_on_c, 0, 73, 101
2, 224040, Note_on_c, 0, 73, 0
2, 224040, Note_on_c, 0, 74, 101
2, 224160, Note_on_c, 0, 74, 0
2, 224160, Note_on_c, 0, 68, 101
2, 224280, Note_on_c, 0, 68, 0
2, 224280, Note_on_c, 0, 69, 101
2, 224400, Note_on_c, 0, 69, 0
2, 224400, Note_on_c, 0, 65, 101
2, 224520, Note_on_c, 0, 65, 0
2, 224520, Note_on_c, 0, 66, 101
2, 224640, Note_on_c, 0, 66, 0
2, 224640, Note_on_c, 0, 62, 101
2, 224880, Note_on_c, 0, 62, 0
2, 224880, Note_on_c, 0, 74, 101
2, 225000, Note_on_c, 0, 74, 0
2, 225000, Note_on_c, 0, 76, 101
2, 225120, Note_on_c, 0, 76, 0
2, 225120, Note_on_c, 0, 78, 101
2, 225240, Note_on_c, 0, 78, 0
2, 225240, Note_on_c, 0, 79, 101
2, 225360, Note_on_c, 0, 79, 0
2, 225360, Note_on_c, 0, 69, 127
2, 225360, Note_on_c, 0, 74, 127
2, 225360, Note_on_c, 0, 78, 127
2, 225360, Note_on_c, 0, 81, 127
2, 225840, Note_on_c, 0, 81, 0
2, 225840, Note_on_c, 0, 69, 0
2, 225840, Note_on_c, 0, 74, 0
2, 225840, Note_on_c, 0, 78, 0
2, 225840, Note_on_c, 0, 71, 127
2, 225840, Note_on_c, 0, 74, 127
2, 225840, Note_on_c, 0, 78, 127
2, 225840, Note_on_c, 0, 83, 127
2, 226320, Note_on_c, 0, 83, 0
2, 226320, Note_on_c, 0, 71, 0
2, 226320, Note_on_c, 0, 74, 0
2, 226320, Note_on_c, 0, 78, 0
2, 226320, Note_on_c, 0, 76, 127
2, 226320, Note_on_c, 0, 88, 127
2, 226680, Note_on_c, 0, 88, 0
2, 226680, Note_on_c, 0, 76, 0
2, 226680, Note_on_c, 0, 74, 127
2, 226680, Note_on_c, 0, 86, 127
2, 226800, Note_on_c, 0, 86, 0
2, 226800, Note_on_c, 0, 74, 0
2, 226800, Note_on_c, 0, 78, 127
2, 226800, Note_on_c, 0, 90, 127
2, 227040, Note_on_c, 0, 90, 0
2, 227040, Note_on_c, 0, 78, 0
2, 227040, Note_on_c, 0, 81, 127
2, 227040, Note_on_c, 0, 93, 127
2, 227280, Note_on_c, 0, 93, 0
2, 227280, Note_on_c, 0, 81, 0
2, 227280, Note_on_c, 0, 81, 127
2, 227280, Note_on_c, 0, 93, 127
2, 227520, Note_on_c, 0, 93, 0
2, 227520, Note_on_c, 0, 81, 0
2, 227520, Note_on_c, 0, 57, 127
2, 227520, Note_on_c, 0, 62, 127
2, 227520, Note_on_c, 0, 66, 127
2, 227520, Note_on_c, 0, 69, 127
2, 228000, Note_on_c, 0, 69, 0
2, 228000, Note_on_c, 0, 57, 0
2, 228000, Note_on_c, 0, 62, 0
2, 228000, Note_on_c, 0, 66, 0
2, 228000, Control_c, 0, 64, 127
2, 230880, Control_c, 0, 64, 0
2, 230880, End_track
3, 0, Start_track
3, 0, Title_t, "Grand Piano"
3, 0, Program_c, 0, 0
3, 0, Control_c, 0, 7, 115
3, 0, Control_c, 0, 10, 79
3, 0, Note_on_c, 0, 74, 49
3, 0, Note_on_c, 0, 77, 49
3, 240, Note_on_c, 0, 77, 0
3, 240, Note_on_c, 0, 74, 0
3, 240, Note_on_c, 0, 69, 49
3, 480, Note_on_c, 0, 69, 0
3, 480, Note_on_c, 0, 76, 49
3, 720, Note_on_c, 0, 76, 0
3, 1440, Note_on_c, 0, 71, 49
3, 1440, Note_on_c, 0, 74, 49
3, 1680, Note_on_c, 0, 74, 0
3, 1680, Note_on_c, 0, 71, 0
3, 1680, Note_on_c, 0, 66, 49
3, 1920, Note_on_c, 0, 66, 0
3, 1920, Note_on_c, 0, 73, 49
3, 2160, Note_on_c, 0, 73, 0
3, 5760, Note_on_c, 0, 74, 49
3, 5760, Note_on_c, 0, 77, 49
3, 6000, Note_on_c, 0, 77, 0
3, 6000, Note_on_c, 0, 74, 0
3, 6000, Note_on_c, 0, 69, 49
3, 6240, Note_on_c, 0, 69, 0
3, 6240, Note_on_c, 0, 76, 49
3, 6480, Note_on_c, 0, 76, 0
3, 7200, Note_on_c, 0, 71, 49
3, 7200, Note_on_c, 0, 74, 49
3, 7440, Note_on_c, 0, 74, 0
3, 7440, Note_on_c, 0, 71, 0
3, 7440, Note_on_c, 0, 66, 49
3, 7680, Note_on_c, 0, 66, 0
3, 7680, Note_on_c, 0, 73, 49
3, 7920, Note_on_c, 0, 73, 0
3, 13440, Note_on_c, 0, 74, 75
3, 13680, Note_on_c, 0, 74, 0
3, 13680, Note_on_c, 0, 74, 75
3, 14160, Note_on_c, 0, 74, 0
3, 16560, Note_on_c, 0, 68, 49
3, 16800, Note_on_c, 0, 68, 0
3, 16800, Note_on_c, 0, 64, 49
3, 17040, Note_on_c, 0, 64, 0
3, 17520, Note_on_c, 0, 69, 49
3, 18000, Note_on_c, 0, 69, 0
3, 18000, Note_on_c, 0, 68, 49
3, 18240, Note_on_c, 0, 68, 0
3, 18240, Note_on_c, 0, 64, 49
3, 18480, Note_on_c, 0, 64, 0
3, 18960, Note_on_c, 0, 69, 49
3, 19440, Note_on_c, 0, 69, 0
3, 19440, Note_on_c, 0, 68, 49
3, 19680, Note_on_c, 0, 68, 0
3, 19680, Note_on_c, 0, 64, 49
3, 19920, Note_on_c, 0, 64, 0
3, 20400, Note_on_c, 0, 66, 62
3, 20400, Note_on_c, 0, 69, 62
3, 20880, Note_on_c, 0, 69, 0
3, 20880, Note_on_c, 0, 66, 0
3, 20880, Note_on_c, 0, 77, 62
3, 21120, Note_on_c, 0, 77, 0
3, 21120, Note_on_c, 0, 73, 62
3, 21360, Note_on_c, 0, 73, 0
3, 21840, Note_on_c, 0, 78, 75
3, 22320, Note_on_c, 0, 78, 0
3, 22320, Note_on_c, 0, 68, 49
3, 22560, Note_on_c, 0, 68, 0
3, 22560, Note_on_c, 0, 64, 49
3, 22800, Note_on_c, 0, 64, 0
3, 23280, Note_on_c, 0, 69, 49
3, 23760, Note_on_c, 0, 69, 0
3, 23760, Note_on_c, 0, 68, 49
3, 24000, Note_on_c, 0, 68, 0
3, 24000, Note_on_c, 0, 64, 49
3, 24240, Note_on_c, 0, 64, 0
3, 24720, Note_on_c, 0, 69, 49
3, 25200, Note_on_c, 0, 69, 0
3, 25200, Note_on_c, 0, 70, 62
3, 25440, Note_on_c, 0, 70, 0
3, 25440, Note_on_c, 0, 66, 62
3, 25680, Note_on_c, 0, 66, 0
3, 26160, Note_on_c, 0, 66, 62
3, 26160, Note_on_c, 0, 71, 62
3, 26640, Note_on_c, 0, 71, 0
3, 26640, Note_on_c, 0, 66, 0
3, 26640, Note_on_c, 0, 82, 62
3, 26880, Note_on_c, 0, 82, 0
3, 26880, Note_on_c, 0, 78, 62
3, 27120, Note_on_c, 0, 78, 0
3, 27360, Note_on_c, 0, 89, 75
3, 27600, Note_on_c, 0, 89, 0
3, 27600, Note_on_c, 0, 78, 75
3, 27600, Note_on_c, 0, 83, 75
3, 27840, Note_on_c, 0, 83, 0
3, 27840, Note_on_c, 0, 78, 0
3, 27840, Note_on_c, 0, 90, 75
3, 28080, Note_on_c, 0, 90, 0
3, 28320, Note_on_c, 0, 66, 49
3, 28320, Note_on_c, 0, 71, 49
3, 28800, Note_on_c, 0, 71, 0
3, 28800, Note_on_c, 0, 66, 0
3, 29040, Note_on_c, 0, 61, 49
3, 29040, Note_on_c, 0, 65, 49
3, 29520, Note_on_c, 0, 65, 0
3, 29520, Note_on_c, 0, 61, 0
3, 29760, Note_on_c, 0, 57, 49
3, 29760, Note_on_c, 0, 61, 49
3, 30240, Note_on_c, 0, 61, 0
3, 30240, Note_on_c, 0, 57, 0
3, 30480, Note_on_c, 0, 54, 49
3, 30480, Note_on_c, 0, 57, 49
3, 30960, Note_on_c, 0, 57, 0
3, 30960, Note_on_c, 0, 54, 0
3, 34080, Note_on_c, 0, 68, 49
3, 34080, Note_on_c, 0, 73, 49
3, 34560, Note_on_c, 0, 73, 0
3, 34560, Note_on_c, 0, 68, 0
3, 34800, Note_on_c, 0, 63, 49
3, 34800, Note_on_c, 0, 67, 49
3, 35280, Note_on_c, 0, 67, 0
3, 35280, Note_on_c, 0, 63, 0
3, 35520, Note_on_c, 0, 59, 49
3, 35520, Note_on_c, 0, 63, 49
3, 36000, Note_on_c, 0, 63, 0
3, 36000, Note_on_c, 0, 59, 0
3, 36240, Note_on_c, 0, 56, 49
3, 36240, Note_on_c, 0, 59, 49
3, 36720, Note_on_c, 0, 59, 0
3, 36720, Note_on_c, 0, 56, 0
3, 45840, Note_on_c, 0, 62, 75
3, 46320, Note_on_c, 0, 62, 0
3, 46320, Note_on_c, 0, 62, 75
3, 46800, Note_on_c, 0, 62, 0
3, 47280, Note_on_c, 0, 74, 62
3, 47760, Note_on_c, 0, 74, 0
3, 47760, Note_on_c, 0, 74, 62
3, 48240, Note_on_c, 0, 74, 0
3, 48240, Note_on_c, 0, 74, 49
3, 48240, Note_on_c, 0, 77, 49
3, 48480, Note_on_c, 0, 77, 0
3, 48480, Note_on_c, 0, 74, 0
3, 48480, Note_on_c, 0, 69, 49
3, 48720, Note_on_c, 0, 69, 0
3, 48720, Note_on_c, 0, 76, 49
3, 48960, Note_on_c, 0, 76, 0
3, 49680, Note_on_c, 0, 71, 49
3, 49680, Note_on_c, 0, 74, 49
3, 49920, Note_on_c, 0, 74, 0
3, 49920, Note_on_c, 0, 71, 0
3, 49920, Note_on_c, 0, 66, 49
3, 50160, Note_on_c, 0, 66, 0
3, 50160, Note_on_c, 0, 73, 49
3, 50400, Note_on_c, 0, 73, 0
3, 54000, Note_on_c, 0, 74, 49
3, 54000, Note_on_c, 0, 77, 49
3, 54240, Note_on_c, 0, 77, 0
3, 54240, Note_on_c, 0, 74, 0
3, 54240, Note_on_c, 0, 69, 49
3, 54480, Note_on_c, 0, 69, 0
3, 54480, Note_on_c, 0, 76, 49
3, 54720, Note_on_c, 0, 76, 0
3, 55440, Note_on_c, 0, 71, 49
3, 55440, Note_on_c, 0, 74, 49
3, 55680, Note_on_c, 0, 74, 0
3, 55680, Note_on_c, 0, 71, 0
3, 55680, Note_on_c, 0, 66, 49
3, 55920, Note_on_c, 0, 66, 0
3, 55920, Note_on_c, 0, 73, 49
3, 56160, Note_on_c, 0, 73, 0
3, 61680, Note_on_c, 0, 74, 75
3, 61920, Note_on_c, 0, 74, 0
3, 61920, Note_on_c, 0, 74, 75
3, 62400, Note_on_c, 0, 74, 0
3, 76320, Note_on_c, 0, 65, 62
3, 76320, Note_on_c, 0, 70, 62
3, 76320, Note_on_c, 0, 74, 62
3, 76800, Note_on_c, 0, 74, 0
3, 76800, Note_on_c, 0, 70, 0
3, 76800, Note_on_c, 0, 65, 0
3, 77760, Note_on_c, 0, 65, 62
3, 77760, Note_on_c, 0, 70, 62
3, 77760, Note_on_c, 0, 74, 62
3, 78240, Note_on_c, 0, 74, 0
3, 78240, Note_on_c, 0, 70, 0
3, 78240, Note_on_c, 0, 65, 0
3, 80880, Note_on_c, 0, 65, 49
3, 80880, Note_on_c, 0, 72, 49
3, 81120, Note_on_c, 0, 72, 0
3, 81120, Note_on_c, 0, 65, 0
3, 81120, Note_on_c, 0, 66, 49
3, 81360, Note_on_c, 0, 66, 0
3, 81360, Note_on_c, 0, 67, 49
3, 81360, Note_on_c, 0, 70, 49
3, 81840, Note_on_c, 0, 70, 0
3, 81840, Note_on_c, 0, 67, 0
3, 81840, Note_on_c, 0, 67, 49
3, 82080, Note_on_c, 0, 67, 0
3, 82080, Note_on_c, 0, 55, 49
3, 82800, Note_on_c, 0, 55, 0
3, 83760, Note_on_c, 0, 65, 49
3, 83760, Note_on_c, 0, 72, 49
3, 84000, Note_on_c, 0, 72, 0
3, 84000, Note_on_c, 0, 65, 0
3, 84000, Note_on_c, 0, 71, 49
3, 84240, Note_on_c, 0, 71, 0
3, 84240, Note_on_c, 0, 65, 49
3, 84240, Note_on_c, 0, 70, 49
3, 84720, Note_on_c, 0, 70, 0
3, 84720, Note_on_c, 0, 65, 0
3, 84720, Note_on_c, 0, 65, 49
3, 84720, Note_on_c, 0, 68, 49
3, 84960, Note_on_c, 0, 68, 0
3, 84960, Note_on_c, 0, 65, 0
3, 86640, Note_on_c, 0, 65, 49
3, 86640, Note_on_c, 0, 72, 49
3, 86880, Note_on_c, 0, 72, 0
3, 86880, Note_on_c, 0, 65, 0
3, 86880, Note_on_c, 0, 66, 49
3, 87120, Note_on_c, 0, 66, 0
3, 87840, Note_on_c, 0, 65, 62
3, 87840, Note_on_c, 0, 68, 62
3, 88080, Note_on_c, 0, 68, 0
3, 88080, Note_on_c, 0, 65, 0
3, 89280, Note_on_c, 0, 65, 62
3, 89280, Note_on_c, 0, 68, 62
3, 89520, Note_on_c, 0, 68, 0
3, 89520, Note_on_c, 0, 65, 0
3, 115200, Note_on_c, 0, 65, 75
3, 115200, Note_on_c, 0, 70, 75
3, 115200, Note_on_c, 0, 74, 75
3, 115200, Note_on_c, 0, 77, 75
3, 115920, Note_on_c, 0, 77, 0
3, 115920, Note_on_c, 0, 65, 0
3, 115920, Note_on_c, 0, 70, 0
3, 115920, Note_on_c, 0, 74, 0
3, 116640, Note_on_c, 0, 65, 75
3, 116640, Note_on_c, 0, 70, 75
3, 116640, Note_on_c, 0, 74, 75
3, 116640, Note_on_c, 0, 77, 75
3, 117360, Note_on_c, 0, 77, 0
3, 117360, Note_on_c, 0, 65, 0
3, 117360, Note_on_c, 0, 70, 0
3, 117360, Note_on_c, 0, 74, 0
3, 137520, Note_on_c, 0, 74, 49
3, 137520, Note_on_c, 0, 77, 49
3, 137760, Note_on_c, 0, 77, 0
3, 137760, Note_on_c, 0, 74, 0
3, 137760, Note_on_c, 0, 69, 49
3, 138000, Note_on_c, 0, 69, 0
3, 138000, Note_on_c, 0, 76, 49
3, 138240, Note_on_c, 0, 76, 0
3, 138960, Note_on_c, 0, 71, 49
3, 138960, Note_on_c, 0, 74, 49
3, 139200, Note_on_c, 0, 74, 0
3, 139200, Note_on_c, 0, 71, 0
3, 139200, Note_on_c, 0, 66, 49
3, 139440, Note_on_c, 0, 66, 0
3, 139440, Note_on_c, 0, 73, 49
3, 139680, Note_on_c, 0, 73, 0
3, 143280, Note_on_c, 0, 74, 49
3, 143280, Note_on_c, 0, 77, 49
3, 143520, Note_on_c, 0, 77, 0
3, 143520, Note_on_c, 0, 74, 0
3, 143520, Note_on_c, 0, 69, 49
3, 143760, Note_on_c, 0, 69, 0
3, 143760, Note_on_c, 0, 76, 49
3, 144000, Note_on_c, 0, 76, 0
3, 144720, Note_on_c, 0, 71, 49
3, 144720, Note_on_c, 0, 74, 49
3, 144960, Note_on_c, 0, 74, 0
3, 144960, Note_on_c, 0, 71, 0
3, 144960, Note_on_c, 0, 66, 49
3, 145200, Note_on_c, 0, 66, 0
3, 145200, Note_on_c, 0, 73, 49
3, 145440, Note_on_c, 0, 73, 0
3, 150960, Note_on_c, 0, 74, 75
3, 151200, Note_on_c, 0, 74, 0
3, 151200, Note_on_c, 0, 74, 75
3, 151680, Note_on_c, 0, 74, 0
3, 154080, Note_on_c, 0, 68, 49
3, 154320, Note_on_c, 0, 68, 0
3, 154320, Note_on_c, 0, 64, 49
3, 154560, Note_on_c, 0, 64, 0
3, 155040, Note_on_c, 0, 69, 49
3, 155520, Note_on_c, 0, 69, 0
3, 155520, Note_on_c, 0, 68, 49
3, 155760, Note_on_c, 0, 68, 0
3, 155760, Note_on_c, 0, 64, 49
3, 156000, Note_on_c, 0, 64, 0
3, 156480, Note_on_c, 0, 69, 49
3, 156960, Note_on_c, 0, 69, 0
3, 156960, Note_on_c, 0, 68, 49
3, 157200, Note_on_c, 0, 68, 0
3, 157200, Note_on_c, 0, 64, 49
3, 157440, Note_on_c, 0, 64, 0
3, 157920, Note_on_c, 0, 66, 62
3, 157920, Note_on_c, 0, 69, 62
3, 158400, Note_on_c, 0, 69, 0
3, 158400, Note_on_c, 0, 66, 0
3, 158400, Note_on_c, 0, 77, 62
3, 158640, Note_on_c, 0, 77, 0
3, 158640, Note_on_c, 0, 73, 62
3, 158880, Note_on_c, 0, 73, 0
3, 159360, Note_on_c, 0, 78, 75
3, 159840, Note_on_c, 0, 78, 0
3, 159840, Note_on_c, 0, 68, 49
3, 160080, Note_on_c, 0, 68, 0
3, 160080, Note_on_c, 0, 64, 49
3, 160320, Note_on_c, 0, 64, 0
3, 160800, Note_on_c, 0, 69, 49
3, 161280, Note_on_c, 0, 69, 0
3, 161280, Note_on_c, 0, 68, 49
3, 161520, Note_on_c, 0, 68, 0
3, 161520, Note_on_c, 0, 64, 49
3, 161760, Note_on_c, 0, 64, 0
3, 162240, Note_on_c, 0, 69, 49
3, 162720, Note_on_c, 0, 69, 0
3, 162720, Note_on_c, 0, 70, 62
3, 162960, Note_on_c, 0, 70, 0
3, 162960, Note_on_c, 0, 66, 62
3, 163200, Note_on_c, 0, 66, 0
3, 163680, Note_on_c, 0, 66, 62
3, 163680, Note_on_c, 0, 71, 62
3, 164160, Note_on_c, 0, 71, 0
3, 164160, Note_on_c, 0, 66, 0
3, 164160, Note_on_c, 0, 82, 62
3, 164400, Note_on_c, 0, 82, 0
3, 164400, Note_on_c, 0, 78, 62
3, 164640, Note_on_c, 0, 78, 0
3, 164880, Note_on_c, 0, 89, 75
3, 165120, Note_on_c, 0, 89, 0
3, 165120, Note_on_c, 0, 78, 75
3, 165120, Note_on_c, 0, 83, 75
3, 165360, Note_on_c, 0, 83, 0
3, 165360, Note_on_c, 0, 78, 0
3, 165360, Note_on_c, 0, 90, 75
3, 165600, Note_on_c, 0, 90, 0
3, 165840, Note_on_c, 0, 66, 49
3, 165840, Note_on_c, 0, 71, 49
3, 166320, Note_on_c, 0, 71, 0
3, 166320, Note_on_c, 0, 66, 0
3, 166560, Note_on_c, 0, 61, 49
3, 166560, Note_on_c, 0, 65, 49
3, 167040, Note_on_c, 0, 65, 0
3, 167040, Note_on_c, 0, 61, 0
3, 167280, Note_on_c, 0, 57, 49
3, 167280, Note_on_c, 0, 61, 49
3, 167760, Note_on_c, 0, 61, 0
3, 167760, Note_on_c, 0, 57, 0
3, 168000, Note_on_c, 0, 54, 49
3, 168000, Note_on_c, 0, 57, 49
3, 168480, Note_on_c, 0, 57, 0
3, 168480, Note_on_c, 0, 54, 0
3, 171600, Note_on_c, 0, 68, 49
3, 171600, Note_on_c, 0, 73, 49
3, 172080, Note_on_c, 0, 73, 0
3, 172080, Note_on_c, 0, 68, 0
3, 172320, Note_on_c, 0, 63, 49
3, 172320, Note_on_c, 0, 67, 49
3, 172800, Note_on_c, 0, 67, 0
3, 172800, Note_on_c, 0, 63, 0
3, 173040, Note_on_c, 0, 59, 49
3, 173040, Note_on_c, 0, 63, 49
3, 173520, Note_on_c, 0, 63, 0
3, 173520, Note_on_c, 0, 59, 0
3, 173760, Note_on_c, 0, 56, 49
3, 173760, Note_on_c, 0, 59, 49
3, 174240, Note_on_c, 0, 59, 0
3, 174240, Note_on_c, 0, 56, 0
3, 183360, Note_on_c, 0, 62, 75
3, 183840, Note_on_c, 0, 62, 0
3, 183840, Note_on_c, 0, 62, 75
3, 184320, Note_on_c, 0, 62, 0
3, 184800, Note_on_c, 0, 74, 62
3, 185280, Note_on_c, 0, 74, 0
3, 185280, Note_on_c, 0, 74, 62
3, 185760, Note_on_c, 0, 74, 0
3, 185760, Note_on_c, 0, 74, 49
3, 185760, Note_on_c, 0, 77, 49
3, 186000, Note_on_c, 0, 77, 0
3, 186000, Note_on_c, 0, 74, 0
3, 186000, Note_on_c, 0, 69, 49
3, 186240, Note_on_c, 0, 69, 0
3, 186240, Note_on_c, 0, 76, 49
3, 186480, Note_on_c, 0, 76, 0
3, 187200, Note_on_c, 0, 71, 49
3, 187200, Note_on_c, 0, 74, 49
3, 187440, Note_on_c, 0, 74, 0
3, 187440, Note_on_c, 0, 71, 0
3, 187440, Note_on_c, 0, 66, 49
3, 187680, Note_on_c, 0, 66, 0
3, 187680, Note_on_c, 0, 73, 49
3, 187920, Note_on_c, 0, 73, 0
3, 191520, Note_on_c, 0, 74, 49
3, 191520, Note_on_c, 0, 77, 49
3, 191760, Note_on_c, 0, 77, 0
3, 191760, Note_on_c, 0, 74, 0
3, 191760, Note_on_c, 0, 69, 49
3, 192000, Note_on_c, 0, 69, 0
3, 192000, Note_on_c, 0, 76, 49
3, 192240, Note_on_c, 0, 76, 0
3, 192960, Note_on_c, 0, 71, 49
3, 192960, Note_on_c, 0, 74, 49
3, 193200, Note_on_c, 0, 74, 0
3, 193200, Note_on_c, 0, 71, 0
3, 193200, Note_on_c, 0, 66, 49
3, 193440, Note_on_c, 0, 66, 0
3, 193440, Note_on_c, 0, 73, 49
3, 193680, Note_on_c, 0, 73, 0
3, 199200, Note_on_c, 0, 74, 75
3, 199440, Note_on_c, 0, 74, 0
3, 199440, Note_on_c, 0, 74, 75
3, 199920, Note_on_c, 0, 74, 0
3, 203280, Note_on_c, 0, 68, 49
3, 203760, Note_on_c, 0, 68, 0
3, 206160, Note_on_c, 0, 67, 49
3, 206640, Note_on_c, 0, 67, 0
3, 209040, Note_on_c, 0, 68, 49
3, 209520, Note_on_c, 0, 68, 0
3, 212400, Note_on_c, 0, 62, 49
3, 213120, Note_on_c, 0, 62, 0
3, 213840, Note_on_c, 0, 62, 49
3, 214560, Note_on_c, 0, 62, 0
3, 214560, End_track
4, 0, Start_track
4, 0, Title_t, "Grand Piano"
4, 0, Program_c, 0, 0
4, 0, Control_c, 0, 7, 115
4, 0, Control_c, 0, 10, 41
4, 480, Note_on_c, 0, 73, 62
4, 527, Note_on_c, 0, 73, 0
4, 720, Note_on_c, 0, 71, 62
4, 767, Note_on_c, 0, 71, 0
4, 960, Note_on_c, 0, 66, 62
4, 1007, Note_on_c, 0, 66, 0
4, 1200, Note_on_c, 0, 59, 62
4, 1247, Note_on_c, 0, 59, 0
4, 1920, Note_on_c, 0, 49, 62
4, 1967, Note_on_c, 0, 49, 0
4, 2160, Note_on_c, 0, 47, 62
4, 2207, Note_on_c, 0, 47, 0
4, 2400, Note_on_c, 0, 42, 62
4, 2447, Note_on_c, 0, 42, 0
4, 2640, Note_on_c, 0, 35, 62
4, 2687, Note_on_c, 0, 35, 0
4, 3120, Note_on_c, 0, 52, 62
4, 3120, Note_on_c, 0, 64, 62
4, 3600, Note_on_c, 0, 64, 0
4, 3600, Note_on_c, 0, 52, 0
4, 3600, Note_on_c, 0, 50, 62
4, 3600, Note_on_c, 0, 52, 62
4, 3600, Note_on_c, 0, 62, 62
4, 4080, Note_on_c, 0, 62, 0
4, 4080, Note_on_c, 0, 52, 0
4, 4080, Note_on_c, 0, 50, 0
4, 4080, Note_on_c, 0, 49, 62
4, 4080, Note_on_c, 0, 52, 62
4, 4080, Note_on_c, 0, 61, 62
4, 4560, Note_on_c, 0, 61, 0
4, 4560, Note_on_c, 0, 52, 0
4, 4560, Note_on_c, 0, 49, 0
4, 4560, Note_on_c, 0, 47, 62
4, 4560, Note_on_c, 0, 52, 62
4, 4560, Note_on_c, 0, 59, 62
4, 4800, Note_on_c, 0, 59, 0
4, 4800, Note_on_c, 0, 52, 0
4, 4800, Note_on_c, 0, 47, 0
4, 4800, Note_on_c, 0, 46, 75
4, 4800, Note_on_c, 0, 52, 75
4, 4800, Note_on_c, 0, 58, 75
4, 5040, Note_on_c, 0, 58, 0
4, 5040, Note_on_c, 0, 52, 0
4, 5040, Note_on_c, 0, 46, 0
4, 5040, Note_on_c, 0, 45, 75
4, 5040, Note_on_c, 0, 52, 75
4, 5040, Note_on_c, 0, 57, 75
4, 5280, Note_on_c, 0, 57, 0
4, 5280, Note_on_c, 0, 52, 0
4, 5280, Note_on_c, 0, 45, 0
4, 6240, Note_on_c, 0, 73, 62
4, 6287, Note_on_c, 0, 73, 0
4, 6480, Note_on_c, 0, 71, 62
4, 6527, Note_on_c, 0, 71, 0
4, 6720, Note_on_c, 0, 66, 62
4, 6767, Note_on_c, 0, 66, 0
4, 6960, Note_on_c, 0, 59, 62
4, 7007, Note_on_c, 0, 59, 0
4, 7680, Note_on_c, 0, 49, 62
4, 7727, Note_on_c, 0, 49, 0
4, 7920, Note_on_c, 0, 47, 62
4, 7967, Note_on_c, 0, 47, 0
4, 8160, Note_on_c, 0, 42, 62
4, 8207, Note_on_c, 0, 42, 0
4, 8400, Note_on_c, 0, 35, 62
4, 8447, Note_on_c, 0, 35, 0
4, 8880, Note_on_c, 0, 52, 62
4, 8880, Note_on_c, 0, 64, 62
4, 9360, Note_on_c, 0, 64, 0
4, 9360, Note_on_c, 0, 52, 0
4, 9360, Note_on_c, 0, 50, 62
4, 9360, Note_on_c, 0, 52, 62
4, 9360, Note_on_c, 0, 62, 62
4, 9840, Note_on_c, 0, 62, 0
4, 9840, Note_on_c, 0, 52, 0
4, 9840, Note_on_c, 0, 50, 0
4, 9840, Note_on_c, 0, 49, 62
4, 9840, Note_on_c, 0, 52, 62
4, 9840, Note_on_c, 0, 61, 62
4, 10320, Note_on_c, 0, 61, 0
4, 10320, Note_on_c, 0, 52, 0
4, 10320, Note_on_c, 0, 49, 0
4, 10320, Note_on_c, 0, 47, 62
4, 10320, Note_on_c, 0, 52, 62
4, 10320, Note_on_c, 0, 59, 62
4, 10560, Note_on_c, 0, 59, 0
4, 10560, Note_on_c, 0, 52, 0
4, 10560, Note_on_c, 0, 47, 0
4, 10560, Note_on_c, 0, 46, 62
4, 10560, Note_on_c, 0, 52, 62
4, 10560, Note_on_c, 0, 58, 62
4, 10800, Note_on_c, 0, 58, 0
4, 10800, Note_on_c, 0, 52, 0
4, 10800, Note_on_c, 0, 46, 0
4, 10800, Note_on_c, 0, 47, 75
4, 10800, Note_on_c, 0, 50, 75
4, 10800, Note_on_c, 0, 59, 75
4, 11040, Note_on_c, 0, 59, 0
4, 11040, Note_on_c, 0, 50, 0
4, 11040, Note_on_c, 0, 47, 0
4, 11040, Note_on_c, 0, 49, 75
4, 11040, Note_on_c, 0, 52, 75
4, 11040, Note_on_c, 0, 61, 75
4, 11520, Note_on_c, 0, 61, 0
4, 11520, Note_on_c, 0, 52, 0
4, 11520, Note_on_c, 0, 49, 0
4, 11520, Note_on_c, 0, 50, 75
4, 11520, Note_on_c, 0, 54, 75
4, 11520, Note_on_c, 0, 62, 75
4, 12000, Note_on_c, 0, 62, 0
4, 12000, Note_on_c, 0, 54, 0
4, 12000, Note_on_c, 0, 50, 0
4, 12000, Note_on_c, 0, 51, 75
4, 12000, Note_on_c, 0, 59, 75
4, 12000, Note_on_c, 0, 63, 75
4, 12240, Note_on_c, 0, 63, 0
4, 12240, Note_on_c, 0, 59, 0
4, 12240, Note_on_c, 0, 51, 0
4, 12240, Note_on_c, 0, 52, 75
4, 12240, Note_on_c, 0, 59, 75
4, 12240, Note_on_c, 0, 64, 75
4, 12480, Note_on_c, 0, 64, 0
4, 12480, Note_on_c, 0, 59, 0
4, 12480, Note_on_c, 0, 52, 0
4, 12480, Note_on_c, 0, 54, 75
4, 12480, Note_on_c, 0, 59, 75
4, 12480, Note_on_c, 0, 66, 75
4, 12960, Note_on_c, 0, 66, 0
4, 12960, Note_on_c, 0, 59, 0
4, 12960, Note_on_c, 0, 54, 0
4, 12960, Note_on_c, 0, 55, 75
4, 12960, Note_on_c, 0, 59, 75
4, 12960, Note_on_c, 0, 67, 75
4, 13440, Note_on_c, 0, 67, 0
4, 13440, Note_on_c, 0, 59, 0
4, 13440, Note_on_c, 0, 55, 0
4, 13440, Note_on_c, 0, 56, 75
4, 13440, Note_on_c, 0, 59, 75
4, 13440, Note_on_c, 0, 65, 75
4, 13680, Note_on_c, 0, 65, 0
4, 13680, Note_on_c, 0, 59, 0
4, 13680, Note_on_c, 0, 56, 0
4, 13680, Note_on_c, 0, 66, 114
4, 13800, Note_on_c, 0, 66, 0
4, 13800, Note_on_c, 0, 67, 88
4, 13920, Note_on_c, 0, 67, 0
4, 13920, Note_on_c, 0, 69, 88
4, 14040, Note_on_c, 0, 69, 0
4, 14040, Note_on_c, 0, 67, 88
4, 14160, Note_on_c, 0, 67, 0
4, 14160, Note_on_c, 0, 61, 114
4, 14280, Note_on_c, 0, 61, 0
4, 14280, Note_on_c, 0, 62, 88
4, 14400, Note_on_c, 0, 62, 0
4, 14400, Note_on_c, 0, 64, 88
4, 14520, Note_on_c, 0, 64, 0
4, 14520, Note_on_c, 0, 62, 88
4, 14640, Note_on_c, 0, 62, 0
4, 14640, Note_on_c, 0, 54, 114
4, 14760, Note_on_c, 0, 54, 0
4, 14760, Note_on_c, 0, 55, 88
4, 14880, Note_on_c, 0, 55, 0
4, 14880, Note_on_c, 0, 57, 88
4, 15000, Note_on_c, 0, 57, 0
4, 15000, Note_on_c, 0, 55, 88
4, 15120, Note_on_c, 0, 55, 0
4, 15120, Note_on_c, 0, 51, 114
4, 15240, Note_on_c, 0, 51, 0
4, 15240, Note_on_c, 0, 52, 88
4, 15360, Note_on_c, 0, 52, 0
4, 15360, Note_on_c, 0, 54, 88
4, 15480, Note_on_c, 0, 54, 0
4, 15480, Note_on_c, 0, 52, 88
4, 15600, Note_on_c, 0, 52, 0
4, 15600, Note_on_c, 0, 45, 88
4, 15840, Note_on_c, 0, 45, 0
4, 15840, Note_on_c, 0, 38, 88
4, 15840, Note_on_c, 0, 50, 88
4, 16080, Note_on_c, 0, 50, 0
4, 16080, Note_on_c, 0, 38, 0
4, 16080, Control_c, 0, 64, 127
4, 16080, Note_on_c, 0, 51, 62
4, 16200, Note_on_c, 0, 51, 0
4, 16200, Note_on_c, 0, 52, 62
4, 16320, Note_on_c, 0, 52, 0
4, 16320, Note_on_c, 0, 54, 62
4, 16440, Note_on_c, 0, 54, 0
4, 16440, Control_c, 0, 64, 0
4, 16440, Note_on_c, 0, 52, 62
4, 16560, Note_on_c, 0, 52, 0
4, 16560, Note_on_c, 0, 62, 62
4, 17040, Note_on_c, 0, 62, 0
4, 17040, Note_on_c, 0, 52, 62
4, 17280, Note_on_c, 0, 52, 0
4, 17280, Note_on_c, 0, 45, 62
4, 17327, Note_on_c, 0, 45, 0
4, 17520, Control_c, 0, 64, 127
4, 17520, Note_on_c, 0, 51, 62
4, 17640, Note_on_c, 0, 51, 0
4, 17640, Note_on_c, 0, 52, 62
4, 17760, Note_on_c, 0, 52, 0
4, 17760, Note_on_c, 0, 54, 62
4, 17880, Note_on_c, 0, 54, 0
4, 17880, Control_c, 0, 64, 0
4, 17880, Note_on_c, 0, 52, 62
4, 18000, Note_on_c, 0, 52, 0
4, 18000, Note_on_c, 0, 62, 62
4, 18480, Note_on_c, 0, 62, 0
4, 18480, Note_on_c, 0, 52, 62
4, 18720, Note_on_c, 0, 52, 0
4, 18720, Note_on_c, 0, 45, 62
4, 18767, Note_on_c, 0, 45, 0
4, 18960, Control_c, 0, 64, 127
4, 18960, Note_on_c, 0, 51, 62
4, 19080, Note_on_c, 0, 51, 0
4, 19080, Note_on_c, 0, 52, 62
4, 19200, Note_on_c, 0, 52, 0
4, 19200, Note_on_c, 0, 54, 62
4, 19320, Note_on_c, 0, 54, 0
4, 19320, Control_c, 0, 64, 0
4, 19320, Note_on_c, 0, 52, 62
4, 19440, Note_on_c, 0, 52, 0
4, 19440, Note_on_c, 0, 62, 62
4, 19487, Note_on_c, 0, 62, 0
4, 19680, Note_on_c, 0, 52, 62
4, 19727, Note_on_c, 0, 52, 0
4, 19920, Note_on_c, 0, 45, 62
4, 19967, Note_on_c, 0, 45, 0
4, 20160, Note_on_c, 0, 61, 62
4, 20207, Note_on_c, 0, 61, 0
4, 20400, Note_on_c, 0, 54, 75
4, 20447, Note_on_c, 0, 54, 0
4, 20640, Note_on_c, 0, 45, 75
4, 20687, Note_on_c, 0, 45, 0
4, 20880, Note_on_c, 0, 71, 75
4, 20927, Note_on_c, 0, 71, 0
4, 21120, Note_on_c, 0, 65, 75
4, 21167, Note_on_c, 0, 65, 0
4, 21360, Note_on_c, 0, 57, 75
4, 21407, Note_on_c, 0, 57, 0
4, 21600, Note_on_c, 0, 73, 88
4, 21647, Note_on_c, 0, 73, 0
4, 21840, Note_on_c, 0, 66, 88
4, 21887, Note_on_c, 0, 66, 0
4, 22080, Note_on_c, 0, 57, 88
4, 22127, Note_on_c, 0, 57, 0
4, 22320, Note_on_c, 0, 62, 62
4, 22800, Note_on_c, 0, 62, 0
4, 22800, Note_on_c, 0, 52, 62
4, 23040, Note_on_c, 0, 52, 0
4, 23040, Note_on_c, 0, 45, 62
4, 23087, Note_on_c, 0, 45, 0
4, 23280, Note_on_c, 0, 51, 62
4, 23400, Note_on_c, 0, 51, 0
4, 23400, Note_on_c, 0, 52, 62
4, 23520, Note_on_c, 0, 52, 0
4, 23520, Note_on_c, 0, 54, 62
4, 23640, Note_on_c, 0, 54, 0
4, 23640, Note_on_c, 0, 52, 62
4, 23760, Note_on_c, 0, 52, 0
4, 23760, Note_on_c, 0, 62, 62
4, 24240, Note_on_c, 0, 62, 0
4, 24240, Note_on_c, 0, 52, 62
4, 24480, Note_on_c, 0, 52, 0
4, 24480, Note_on_c, 0, 45, 62
4, 24527, Note_on_c, 0, 45, 0
4, 24720, Control_c, 0, 64, 127
4, 24720, Note_on_c, 0, 51, 62
4, 24840, Note_on_c, 0, 51, 0
4, 24840, Note_on_c, 0, 52, 62
4, 24960, Note_on_c, 0, 52, 0
4, 24960, Note_on_c, 0, 54, 62
4, 25080, Note_on_c, 0, 54, 0
4, 25080, Control_c, 0, 64, 0
4, 25080, Note_on_c, 0, 52, 62
4, 25200, Note_on_c, 0, 52, 0
4, 25200, Note_on_c, 0, 64, 62
4, 25247, Note_on_c, 0, 64, 0
4, 25440, Note_on_c, 0, 54, 62
4, 25487, Note_on_c, 0, 54, 0
4, 25680, Note_on_c, 0, 47, 62
4, 25727, Note_on_c, 0, 47, 0
4, 25920, Note_on_c, 0, 62, 75
4, 25967, Note_on_c, 0, 62, 0
4, 26160, Note_on_c, 0, 54, 75
4, 26207, Note_on_c, 0, 54, 0
4, 26400, Note_on_c, 0, 47, 75
4, 26447, Note_on_c, 0, 47, 0
4, 26640, Note_on_c, 0, 76, 75
4, 26687, Note_on_c, 0, 76, 0
4, 26880, Note_on_c, 0, 66, 75
4, 26927, Note_on_c, 0, 66, 0
4, 27120, Note_on_c, 0, 59, 75
4, 27167, Note_on_c, 0, 59, 0
4, 27360, Note_on_c, 0, 74, 88
4, 27407, Note_on_c, 0, 74, 0
4, 27600, Note_on_c, 0, 66, 88
4, 27647, Note_on_c, 0, 66, 0
4, 27840, Note_on_c, 0, 59, 88
4, 27887, Note_on_c, 0, 59, 0
4, 28320, Control_c, 0, 64, 127
4, 28320, Note_on_c, 0, 49, 62
4, 28440, Note_on_c, 0, 49, 0
4, 28440, Note_on_c, 0, 50, 62
4, 28560, Note_on_c, 0, 50, 0
4, 28560, Note_on_c, 0, 52, 62
4, 28680, Note_on_c, 0, 52, 0
4, 28680, Control_c, 0, 64, 0
4, 28680, Note_on_c, 0, 50, 62
4, 28800, Note_on_c, 0, 50, 0
4, 28800, Note_on_c, 0, 59, 62
4, 29280, Note_on_c, 0, 59, 0
4, 29280, Note_on_c, 0, 53, 62
4, 29520, Note_on_c, 0, 53, 0
4, 29760, Control_c, 0, 64, 127
4, 29760, Note_on_c, 0, 41, 62
4, 29880, Note_on_c, 0, 41, 0
4, 29880, Note_on_c, 0, 42, 62
4, 30000, Note_on_c, 0, 42, 0
4, 30000, Note_on_c, 0, 44, 62
4, 30120, Note_on_c, 0, 44, 0
4, 30120, Control_c, 0, 64, 0
4, 30120, Note_on_c, 0, 42, 62
4, 30240, Note_on_c, 0, 42, 0
4, 30240, Note_on_c, 0, 50, 62
4, 30720, Note_on_c, 0, 50, 0
4, 30720, Note_on_c, 0, 49, 62
4, 30960, Note_on_c, 0, 49, 0
4, 31200, Note_on_c, 0, 47, 62
4, 31200, Note_on_c, 0, 59, 62
4, 31440, Note_on_c, 0, 59, 0
4, 31440, Note_on_c, 0, 47, 0
4, 31440, Note_on_c, 0, 45, 62
4, 31440, Note_on_c, 0, 47, 62
4, 31440, Note_on_c, 0, 57, 62
4, 31920, Note_on_c, 0, 57, 0
4, 31920, Note_on_c, 0, 47, 0
4, 31920, Note_on_c, 0, 45, 0
4, 31920, Note_on_c, 0, 44, 62
4, 31920, Note_on_c, 0, 47, 62
4, 31920, Note_on_c, 0, 56, 62
4, 32400, Note_on_c, 0, 56, 0
4, 32400, Note_on_c, 0, 47, 0
4, 32400, Note_on_c, 0, 44, 0
4, 32640, Note_on_c, 0, 43, 75
4, 32640, Note_on_c, 0, 47, 75
4, 32640, Note_on_c, 0, 55, 75
4, 32880, Note_on_c, 0, 55, 0
4, 32880, Note_on_c, 0, 47, 0
4, 32880, Note_on_c, 0, 43, 0
4, 32880, Note_on_c, 0, 42, 75
4, 32880, Note_on_c, 0, 47, 75
4, 32880, Note_on_c, 0, 54, 75
4, 33360, Note_on_c, 0, 54, 0
4, 33360, Note_on_c, 0, 47, 0
4, 33360, Note_on_c, 0, 42, 0
4, 33360, Note_on_c, 0, 41, 88
4, 33360, Note_on_c, 0, 47, 88
4, 33360, Note_on_c, 0, 53, 88
4, 33840, Note_on_c, 0, 53, 0
4, 33840, Note_on_c, 0, 47, 0
4, 33840, Note_on_c, 0, 41, 0
4, 34080, Control_c, 0, 64, 127
4, 34080, Note_on_c, 0, 51, 62
4, 34200, Note_on_c, 0, 51, 0
4, 34200, Note_on_c, 0, 52, 62
4, 34320, Note_on_c, 0, 52, 0
4, 34320, Note_on_c, 0, 54, 62
4, 34440, Note_on_c, 0, 54, 0
4, 34440, Control_c, 0, 64, 0
4, 34440, Note_on_c, 0, 52, 62
4, 34560, Note_on_c, 0, 52, 0
4, 34560, Note_on_c, 0, 61, 62
4, 35040, Note_on_c, 0, 61, 0
4, 35040, Note_on_c, 0, 55, 62
4, 35280, Note_on_c, 0, 55, 0
4, 35520, Control_c, 0, 64, 127
4, 35520, Note_on_c, 0, 43, 62
4, 35640, Note_on_c, 0, 43, 0
4, 35640, Note_on_c, 0, 44, 62
4, 35760, Note_on_c, 0, 44, 0
4, 35760, Note_on_c, 0, 46, 62
4, 35880, Note_on_c, 0, 46, 0
4, 35880, Note_on_c, 0, 44, 62
4, 36000, Note_on_c, 0, 44, 0
4, 36000, Control_c, 0, 64, 0
4, 36000, Note_on_c, 0, 52, 62
4, 36480, Note_on_c, 0, 52, 0
4, 36480, Note_on_c, 0, 51, 62
4, 36720, Note_on_c, 0, 51, 0
4, 36960, Note_on_c, 0, 49, 62
4, 36960, Note_on_c, 0, 61, 62
4, 37200, Note_on_c, 0, 61, 0
4, 37200, Note_on_c, 0, 49, 0
4, 37200, Note_on_c, 0, 47, 62
4, 37200, Note_on_c, 0, 49, 62
4, 37200, Note_on_c, 0, 59, 62
4, 37680, Note_on_c, 0, 59, 0
4, 37680, Note_on_c, 0, 49, 0
4, 37680, Note_on_c, 0, 47, 0
4, 37680, Note_on_c, 0, 46, 62
4, 37680, Note_on_c, 0, 49, 62
4, 37680, Note_on_c, 0, 58, 62
4, 38160, Note_on_c, 0, 58, 0
4, 38160, Note_on_c, 0, 49, 0
4, 38160, Note_on_c, 0, 46, 0
4, 38400, Note_on_c, 0, 45, 75
4, 38400, Note_on_c, 0, 49, 75
4, 38400, Note_on_c, 0, 57, 75
4, 38640, Note_on_c, 0, 57, 0
4, 38640, Note_on_c, 0, 49, 0
4, 38640, Note_on_c, 0, 45, 0
4, 38640, Note_on_c, 0, 44, 75
4, 38640, Note_on_c, 0, 49, 75
4, 38640, Note_on_c, 0, 56, 75
4, 39120, Note_on_c, 0, 56, 0
4, 39120, Note_on_c, 0, 49, 0
4, 39120, Note_on_c, 0, 44, 0
4, 39120, Note_on_c, 0, 43, 88
4, 39120, Note_on_c, 0, 49, 88
4, 39120, Note_on_c, 0, 55, 88
4, 39600, Note_on_c, 0, 55, 0
4, 39600, Note_on_c, 0, 49, 0
4, 39600, Note_on_c, 0, 43, 0
4, 39600, Note_on_c, 0, 42, 88
4, 39600, Note_on_c, 0, 50, 88
4, 39600, Note_on_c, 0, 54, 88
4, 40080, Note_on_c, 0, 54, 0
4, 40080, Note_on_c, 0, 50, 0
4, 40080, Note_on_c, 0, 42, 0
4, 40080, Note_on_c, 0, 50, 88
4, 40080, Note_on_c, 0, 62, 88
4, 40560, Note_on_c, 0, 62, 0
4, 40560, Note_on_c, 0, 50, 0
4, 40560, Note_on_c, 0, 45, 88
4, 40560, Note_on_c, 0, 52, 88
4, 40560, Note_on_c, 0, 57, 88
4, 41040, Note_on_c, 0, 57, 0
4, 41040, Note_on_c, 0, 52, 0
4, 41040, Note_on_c, 0, 45, 0
4, 41040, Note_on_c, 0, 42, 88
4, 41040, Note_on_c, 0, 50, 88
4, 41040, Note_on_c, 0, 54, 88
4, 41520, Note_on_c, 0, 54, 0
4, 41520, Note_on_c, 0, 50, 0
4, 41520, Note_on_c, 0, 42, 0
4, 41520, Note_on_c, 0, 50, 88
4, 41520, Note_on_c, 0, 62, 88
4, 42000, Note_on_c, 0, 62, 0
4, 42000, Note_on_c, 0, 50, 0
4, 42000, Note_on_c, 0, 45, 88
4, 42000, Note_on_c, 0, 52, 88
4, 42000, Note_on_c, 0, 57, 88
4, 42480, Note_on_c, 0, 57, 0
4, 42480, Note_on_c, 0, 52, 0
4, 42480, Note_on_c, 0, 45, 0
4, 42480, Note_on_c, 0, 42, 88
4, 42480, Note_on_c, 0, 54, 88
4, 42720, Note_on_c, 0, 54, 0
4, 42720, Note_on_c, 0, 42, 0
4, 42720, Note_on_c, 0, 38, 88
4, 42720, Note_on_c, 0, 50, 88
4, 42960, Note_on_c, 0, 50, 0
4, 42960, Note_on_c, 0, 38, 0
4, 42960, Note_on_c, 0, 47, 88
4, 42960, Note_on_c, 0, 59, 88
4, 43440, Note_on_c, 0, 59, 0
4, 43440, Note_on_c, 0, 47, 0
4, 43440, Note_on_c, 0, 46, 88
4, 43440, Note_on_c, 0, 58, 88
4, 43680, Note_on_c, 0, 58, 0
4, 43680, Note_on_c, 0, 46, 0
4, 43680, Note_on_c, 0, 45, 88
4, 43680, Note_on_c, 0, 57, 88
4, 43920, Note_on_c, 0, 57, 0
4, 43920, Note_on_c, 0, 45, 0
4, 43920, Note_on_c, 0, 42, 88
4, 43920, Note_on_c, 0, 54, 88
4, 44160, Note_on_c, 0, 54, 0
4, 44160, Note_on_c, 0, 42, 0
4, 44160, Note_on_c, 0, 38, 88
4, 44160, Note_on_c, 0, 50, 88
4, 44400, Note_on_c, 0, 50, 0
4, 44400, Note_on_c, 0, 38, 0
4, 44400, Note_on_c, 0, 47, 88
4, 44400, Note_on_c, 0, 59, 88
4, 44880, Note_on_c, 0, 59, 0
4, 44880, Note_on_c, 0, 47, 0
4, 44880, Note_on_c, 0, 46, 88
4, 44880, Note_on_c, 0, 58, 88
4, 45120, Note_on_c, 0, 58, 0
4, 45120, Note_on_c, 0, 46, 0
4, 45120, Note_on_c, 0, 45, 88
4, 45120, Note_on_c, 0, 57, 88
4, 45360, Note_on_c, 0, 57, 0
4, 45360, Note_on_c, 0, 45, 0
4, 45360, Note_on_c, 0, 45, 88
4, 45600, Note_on_c, 0, 45, 0
4, 45600, Note_on_c, 0, 38, 88
4, 45840, Note_on_c, 0, 38, 0
4, 45840, Note_on_c, 0, 58, 88
4, 46080, Note_on_c, 0, 58, 0
4, 46080, Note_on_c, 0, 50, 75
4, 46080, Note_on_c, 0, 57, 75
4, 46320, Note_on_c, 0, 57, 0
4, 46320, Note_on_c, 0, 50, 0
4, 46320, Note_on_c, 0, 58, 75
4, 46560, Note_on_c, 0, 58, 0
4, 46560, Note_on_c, 0, 50, 75
4, 46560, Note_on_c, 0, 57, 75
4, 46800, Note_on_c, 0, 57, 0
4, 46800, Note_on_c, 0, 50, 0
4, 46800, Note_on_c, 0, 57, 75
4, 47040, Note_on_c, 0, 57, 0
4, 47040, Note_on_c, 0, 50, 75
4, 47280, Note_on_c, 0, 50, 0
4, 47280, Note_on_c, 0, 70, 75
4, 47520, Note_on_c, 0, 70, 0
4, 47520, Note_on_c, 0, 62, 75
4, 47520, Note_on_c, 0, 69, 75
4, 47760, Note_on_c, 0, 69, 0
4, 47760, Note_on_c, 0, 62, 0
4, 47760, Note_on_c, 0, 70, 62
4, 48000, Note_on_c, 0, 70, 0
4, 48000, Note_on_c, 0, 62, 62
4, 48000, Note_on_c, 0, 69, 62
4, 48240, Note_on_c, 0, 69, 0
4, 48240, Note_on_c, 0, 62, 0
4, 48720, Note_on_c, 0, 73, 62
4, 48767, Note_on_c, 0, 73, 0
4, 48960, Note_on_c, 0, 71, 62
4, 49007, Note_on_c, 0, 71, 0
4, 49200, Note_on_c, 0, 66, 62
4, 49247, Note_on_c, 0, 66, 0
4, 49440, Note_on_c, 0, 59, 62
4, 49487, Note_on_c, 0, 59, 0
4, 50160, Note_on_c, 0, 49, 62
4, 50207, Note_on_c, 0, 49, 0
4, 50400, Note_on_c, 0, 47, 62
4, 50447, Note_on_c, 0, 47, 0
4, 50640, Note_on_c, 0, 42, 62
4, 50687, Note_on_c, 0, 42, 0
4, 50880, Note_on_c, 0, 35, 62
4, 50927, Note_on_c, 0, 35, 0
4, 51360, Note_on_c, 0, 52, 62
4, 51360, Note_on_c, 0, 64, 62
4, 51840, Note_on_c, 0, 64, 0
4, 51840, Note_on_c, 0, 52, 0
4, 51840, Note_on_c, 0, 50, 62
4, 51840, Note_on_c, 0, 52, 62
4, 51840, Note_on_c, 0, 62, 62
4, 52320, Note_on_c, 0, 62, 0
4, 52320, Note_on_c, 0, 52, 0
4, 52320, Note_on_c, 0, 50, 0
4, 52320, Note_on_c, 0, 49, 62
4, 52320, Note_on_c, 0, 52, 62
4, 52320, Note_on_c, 0, 61, 62
4, 52800, Note_on_c, 0, 61, 0
4, 52800, Note_on_c, 0, 52, 0
4, 52800, Note_on_c, 0, 49, 0
4, 52800, Note_on_c, 0, 47, 62
4, 52800, Note_on_c, 0, 52, 62
4, 52800, Note_on_c, 0, 59, 62
4, 53040, Note_on_c, 0, 59, 0
4, 53040, Note_on_c, 0, 52, 0
4, 53040, Note_on_c, 0, 47, 0
4, 53040, Note_on_c, 0, 46, 75
4, 53040, Note_on_c, 0, 52, 75
4, 53040, Note_on_c, 0, 58, 75
4, 53280, Note_on_c, 0, 58, 0
4, 53280, Note_on_c, 0, 52, 0
4, 53280, Note_on_c, 0, 46, 0
4, 53280, Note_on_c, 0, 45, 75
4, 53280, Note_on_c, 0, 52, 75
4, 53280, Note_on_c, 0, 57, 75
4, 53520, Note_on_c, 0, 57, 0
4, 53520, Note_on_c, 0, 52, 0
4, 53520, Note_on_c, 0, 45, 0
4, 54480, Note_on_c, 0, 73, 62
4, 54527, Note_on_c, 0, 73, 0
4, 54720, Note_on_c, 0, 71, 62
4, 54767, Note_on_c, 0, 71, 0
4, 54960, Note_on_c, 0, 66, 62
4, 55007, Note_on_c, 0, 66, 0
4, 55200, Note_on_c, 0, 59, 62
4, 55247, Note_on_c, 0, 59, 0
4, 55920, Note_on_c, 0, 49, 62
4, 55967, Note_on_c, 0, 49, 0
4, 56160, Note_on_c, 0, 47, 62
4, 56207, Note_on_c, 0, 47, 0
4, 56400, Note_on_c, 0, 42, 62
4, 56447, Note_on_c, 0, 42, 0
4, 56640, Note_on_c, 0, 35, 62
4, 56687, Note_on_c, 0, 35, 0
4, 57120, Note_on_c, 0, 52, 62
4, 57120, Note_on_c, 0, 64, 62
4, 57600, Note_on_c, 0, 64, 0
4, 57600, Note_on_c, 0, 52, 0
4, 57600, Note_on_c, 0, 50, 62
4, 57600, Note_on_c, 0, 52, 62
4, 57600, Note_on_c, 0, 62, 62
4, 58080, Note_on_c, 0, 62, 0
4, 58080, Note_on_c, 0, 52, 0
4, 58080, Note_on_c, 0, 50, 0
4, 58080, Note_on_c, 0, 49, 62
4, 58080, Note_on_c, 0, 52, 62
4, 58080, Note_on_c, 0, 61, 62
4, 58560, Note_on_c, 0, 61, 0
4, 58560, Note_on_c, 0, 52, 0
4, 58560, Note_on_c, 0, 49, 0
4, 58560, Note_on_c, 0, 47, 62
4, 58560, Note_on_c, 0, 52, 62
4, 58560, Note_on_c, 0, 59, 62
4, 58800, Note_on_c, 0, 59, 0
4, 58800, Note_on_c, 0, 52, 0
4, 58800, Note_on_c, 0, 47, 0
4, 58800, Note_on_c, 0, 46, 62
4, 58800, Note_on_c, 0, 52, 62
4, 58800, Note_on_c, 0, 58, 62
4, 59040, Note_on_c, 0, 58, 0
4, 59040, Note_on_c, 0, 52, 0
4, 59040, Note_on_c, 0, 46, 0
4, 59040, Note_on_c, 0, 47, 75
4, 59040, Note_on_c, 0, 50, 75
4, 59040, Note_on_c, 0, 59, 75
4, 59280, Note_on_c, 0, 59, 0
4, 59280, Note_on_c, 0, 50, 0
4, 59280, Note_on_c, 0, 47, 0
4, 59280, Note_on_c, 0, 49, 75
4, 59280, Note_on_c, 0, 52, 75
4, 59280, Note_on_c, 0, 61, 75
4, 59760, Note_on_c, 0, 61, 0
4, 59760, Note_on_c, 0, 52, 0
4, 59760, Note_on_c, 0, 49, 0
4, 59760, Note_on_c, 0, 50, 75
4, 59760, Note_on_c, 0, 54, 75
4, 59760, Note_on_c, 0, 62, 75
4, 60240, Note_on_c, 0, 62, 0
4, 60240, Note_on_c, 0, 54, 0
4, 60240, Note_on_c, 0, 50, 0
4, 60240, Note_on_c, 0, 51, 75
4, 60240, Note_on_c, 0, 59, 75
4, 60240, Note_on_c, 0, 63, 75
4, 60480, Note_on_c, 0, 63, 0
4, 60480, Note_on_c, 0, 59, 0
4, 60480, Note_on_c, 0, 51, 0
4, 60480, Note_on_c, 0, 52, 75
4, 60480, Note_on_c, 0, 59, 75
4, 60480, Note_on_c, 0, 64, 75
4, 60720, Note_on_c, 0, 64, 0
4, 60720, Note_on_c, 0, 59, 0
4, 60720, Note_on_c, 0, 52, 0
4, 60720, Note_on_c, 0, 54, 75
4, 60720, Note_on_c, 0, 59, 75
4, 60720, Note_on_c, 0, 66, 75
4, 61200, Note_on_c, 0, 66, 0
4, 61200, Note_on_c, 0, 59, 0
4, 61200, Note_on_c, 0, 54, 0
4, 61200, Note_on_c, 0, 55, 75
4, 61200, Note_on_c, 0, 59, 75
4, 61200, Note_on_c, 0, 67, 75
4, 61680, Note_on_c, 0, 67, 0
4, 61680, Note_on_c, 0, 59, 0
4, 61680, Note_on_c, 0, 55, 0
4, 61680, Note_on_c, 0, 56, 75
4, 61680, Note_on_c, 0, 59, 75
4, 61680, Note_on_c, 0, 65, 75
4, 61920, Note_on_c, 0, 65, 0
4, 61920, Note_on_c, 0, 59, 0
4, 61920, Note_on_c, 0, 56, 0
4, 61920, Note_on_c, 0, 66, 114
4, 62040, Note_on_c, 0, 66, 0
4, 62040, Note_on_c, 0, 67, 88
4, 62160, Note_on_c, 0, 67, 0
4, 62160, Note_on_c, 0, 69, 88
4, 62280, Note_on_c, 0, 69, 0
4, 62280, Note_on_c, 0, 67, 88
4, 62400, Note_on_c, 0, 67, 0
4, 62400, Note_on_c, 0, 61, 114
4, 62520, Note_on_c, 0, 61, 0
4, 62520, Note_on_c, 0, 62, 88
4, 62640, Note_on_c, 0, 62, 0
4, 62640, Note_on_c, 0, 64, 88
4, 62760, Note_on_c, 0, 64, 0
4, 62760, Note_on_c, 0, 62, 88
4, 62880, Note_on_c, 0, 62, 0
4, 62880, Note_on_c, 0, 54, 114
4, 63000, Note_on_c, 0, 54, 0
4, 63000, Note_on_c, 0, 55, 88
4, 63120, Note_on_c, 0, 55, 0
4, 63120, Note_on_c, 0, 57, 88
4, 63240, Note_on_c, 0, 57, 0
4, 63240, Note_on_c, 0, 55, 88
4, 63360, Note_on_c, 0, 55, 0
4, 63360, Note_on_c, 0, 51, 114
4, 63480, Note_on_c, 0, 51, 0
4, 63480, Note_on_c, 0, 52, 88
4, 63600, Note_on_c, 0, 52, 0
4, 63600, Note_on_c, 0, 54, 88
4, 63720, Note_on_c, 0, 54, 0
4, 63720, Note_on_c, 0, 52, 88
4, 63840, Note_on_c, 0, 52, 0
4, 63840, Note_on_c, 0, 45, 88
4, 64080, Note_on_c, 0, 45, 0
4, 64080, Note_on_c, 0, 38, 88
4, 64080, Note_on_c, 0, 50, 88
4, 64320, Note_on_c, 0, 50, 0
4, 64320, Note_on_c, 0, 38, 0
4, 64320, Note_on_c, 0, 37, 88
4, 64320, Note_on_c, 0, 49, 88
4, 64560, Note_on_c, 0, 49, 0
4, 64560, Note_on_c, 0, 37, 0
4, 64560, Note_on_c, 0, 38, 88
4, 64560, Note_on_c, 0, 50, 88
4, 64800, Note_on_c, 0, 50, 0
4, 64800, Note_on_c, 0, 38, 0
4, 64800, Note_on_c, 0, 45, 88
4, 65280, Note_on_c, 0, 45, 0
4, 65280, Note_on_c, 0, 38, 88
4, 65280, Note_on_c, 0, 50, 88
4, 65520, Note_on_c, 0, 50, 0
4, 65520, Note_on_c, 0, 38, 0
4, 65760, Note_on_c, 0, 37, 88
4, 65760, Note_on_c, 0, 49, 88
4, 66000, Note_on_c, 0, 49, 0
4, 66000, Note_on_c, 0, 37, 0
4, 66000, Note_on_c, 0, 38, 88
4, 66000, Note_on_c, 0, 50, 88
4, 66240, Note_on_c, 0, 50, 0
4, 66240, Note_on_c, 0, 38, 0
4, 66240, Note_on_c, 0, 45, 75
4, 66720, Note_on_c, 0, 45, 0
4, 66720, Note_on_c, 0, 38, 75
4, 66720, Note_on_c, 0, 50, 75
4, 66960, Note_on_c, 0, 50, 0
4, 66960, Note_on_c, 0, 38, 0
4, 68400, Note_on_c, 0, 39, 62
4, 68400, Note_on_c, 0, 46, 62
4, 68400, Note_on_c, 0, 51, 62
4, 68880, Note_on_c, 0, 51, 0
4, 68880, Note_on_c, 0, 46, 0
4, 68880, Note_on_c, 0, 39, 0
4, 68880, Note_on_c, 0, 60, 62
4, 69360, Note_on_c, 0, 60, 0
4, 69360, Note_on_c, 0, 65, 62
4, 69720, Note_on_c, 0, 65, 0
4, 69720, Note_on_c, 0, 63, 62
4, 69840, Note_on_c, 0, 63, 0
4, 69840, Note_on_c, 0, 67, 62
4, 70320, Note_on_c, 0, 67, 0
4, 70320, Note_on_c, 0, 58, 62
4, 70560, Note_on_c, 0, 58, 0
4, 71280, Note_on_c, 0, 39, 62
4, 71280, Note_on_c, 0, 46, 62
4, 71280, Note_on_c, 0, 51, 62
4, 71760, Note_on_c, 0, 51, 0
4, 71760, Note_on_c, 0, 46, 0
4, 71760, Note_on_c, 0, 39, 0
4, 71760, Note_on_c, 0, 60, 62
4, 72240, Note_on_c, 0, 60, 0
4, 72240, Note_on_c, 0, 63, 62
4, 72600, Note_on_c, 0, 63, 0
4, 72600, Note_on_c, 0, 62, 62
4, 72720, Note_on_c, 0, 62, 0
4, 72720, Note_on_c, 0, 65, 62
4, 73200, Note_on_c, 0, 65, 0
4, 73200, Note_on_c, 0, 58, 62
4, 73440, Note_on_c, 0, 58, 0
4, 74160, Note_on_c, 0, 39, 62
4, 74160, Note_on_c, 0, 46, 62
4, 74160, Note_on_c, 0, 51, 62
4, 74640, Note_on_c, 0, 51, 0
4, 74640, Note_on_c, 0, 46, 0
4, 74640, Note_on_c, 0, 39, 0
4, 74640, Note_on_c, 0, 60, 62
4, 75120, Note_on_c, 0, 60, 0
4, 75120, Note_on_c, 0, 65, 62
4, 75480, Note_on_c, 0, 65, 0
4, 75480, Note_on_c, 0, 63, 62
4, 75600, Note_on_c, 0, 63, 0
4, 75600, Note_on_c, 0, 67, 75
4, 75840, Note_on_c, 0, 67, 0
4, 75840, Note_on_c, 0, 70, 75
4, 76080, Note_on_c, 0, 70, 0
4, 76080, Note_on_c, 0, 70, 75
4, 76127, Note_on_c, 0, 70, 0
4, 76800, Note_on_c, 0, 65, 75
4, 77040, Note_on_c, 0, 65, 0
4, 77040, Note_on_c, 0, 67, 75
4, 77280, Note_on_c, 0, 67, 0
4, 77280, Note_on_c, 0, 70, 75
4, 77520, Note_on_c, 0, 70, 0
4, 77520, Note_on_c, 0, 70, 75
4, 77567, Note_on_c, 0, 70, 0
4, 78240, Note_on_c, 0, 65, 75
4, 78480, Note_on_c, 0, 65, 0
4, 78480, Note_on_c, 0, 67, 75
4, 78720, Note_on_c, 0, 67, 0
4, 78720, Note_on_c, 0, 72, 75
4, 78960, Note_on_c, 0, 72, 0
4, 78960, Note_on_c, 0, 72, 75
4, 79440, Note_on_c, 0, 72, 0
4, 79440, Note_on_c, 0, 70, 75
4, 79560, Note_on_c, 0, 70, 0
4, 79560, Note_on_c, 0, 68, 75
4, 79680, Note_on_c, 0, 68, 0
4, 79680, Note_on_c, 0, 67, 75
4, 79800, Note_on_c, 0, 67, 0
4, 79800, Note_on_c, 0, 65, 75
4, 79920, Note_on_c, 0, 65, 0
4, 79920, Note_on_c, 0, 63, 62
4, 80160, Note_on_c, 0, 63, 0
4, 80160, Note_on_c, 0, 62, 62
4, 80400, Note_on_c, 0, 62, 0
4, 80400, Note_on_c, 0, 60, 62
4, 80520, Note_on_c, 0, 60, 0
4, 80520, Note_on_c, 0, 58, 62
4, 80640, Note_on_c, 0, 58, 0
4, 80640, Note_on_c, 0, 57, 62
4, 81360, Note_on_c, 0, 57, 0
4, 81360, Control_c, 0, 64, 127
4, 81360, Note_on_c, 0, 58, 62
4, 81600, Note_on_c, 0, 58, 0
4, 81600, Note_on_c, 0, 60, 62
4, 81720, Note_on_c, 0, 60, 0
4, 81720, Note_on_c, 0, 62, 62
4, 81840, Note_on_c, 0, 62, 0
4, 81840, Control_c, 0, 64, 0
4, 81840, Note_on_c, 0, 63, 62
4, 82080, Note_on_c, 0, 63, 0
4, 82080, Note_on_c, 0, 39, 62
4, 82080, Note_on_c, 0, 46, 62
4, 82080, Note_on_c, 0, 51, 62
4, 82800, Note_on_c, 0, 51, 0
4, 82800, Note_on_c, 0, 46, 0
4, 82800, Note_on_c, 0, 39, 0
4, 82800, Control_c, 0, 64, 127
4, 82800, Note_on_c, 0, 63, 62
4, 83040, Note_on_c, 0, 63, 0
4, 83040, Note_on_c, 0, 62, 62
4, 83280, Note_on_c, 0, 62, 0
4, 83280, Note_on_c, 0, 60, 62
4, 83400, Note_on_c, 0, 60, 0
4, 83400, Note_on_c, 0, 58, 62
4, 83520, Note_on_c, 0, 58, 0
4, 83520, Note_on_c, 0, 57, 62
4, 84000, Note_on_c, 0, 57, 0
4, 84000, Control_c, 0, 64, 0
4, 84000, Note_on_c, 0, 56, 62
4, 84360, Note_on_c, 0, 56, 0
4, 84360, Note_on_c, 0, 58, 62
4, 84480, Note_on_c, 0, 58, 0
4, 84480, Note_on_c, 0, 60, 62
4, 84600, Note_on_c, 0, 60, 0
4, 84600, Note_on_c, 0, 61, 62
4, 84720, Note_on_c, 0, 61, 0
4, 84720, Note_on_c, 0, 62, 62
4, 84960, Note_on_c, 0, 62, 0
4, 84960, Note_on_c, 0, 39, 62
4, 84960, Note_on_c, 0, 46, 62
4, 84960, Note_on_c, 0, 51, 62
4, 85680, Note_on_c, 0, 51, 0
4, 85680, Note_on_c, 0, 46, 0
4, 85680, Note_on_c, 0, 39, 0
4, 85680, Note_on_c, 0, 63, 62
4, 85920, Note_on_c, 0, 63, 0
4, 85920, Note_on_c, 0, 62, 62
4, 86160, Note_on_c, 0, 62, 0
4, 86160, Note_on_c, 0, 60, 62
4, 86280, Note_on_c, 0, 60, 0
4, 86280, Note_on_c, 0, 58, 62
4, 86400, Note_on_c, 0, 58, 0
4, 86400, Note_on_c, 0, 57, 62
4, 87120, Note_on_c, 0, 57, 0
4, 87120, Control_c, 0, 64, 127
4, 87120, Note_on_c, 0, 58, 62
4, 87240, Note_on_c, 0, 58, 0
4, 87240, Note_on_c, 0, 60, 62
4, 87360, Note_on_c, 0, 60, 0
4, 87360, Note_on_c, 0, 62, 62
4, 87480, Note_on_c, 0, 62, 0
4, 87480, Note_on_c, 0, 63, 62
4, 87600, Note_on_c, 0, 63, 0
4, 87600, Note_on_c, 0, 62, 62
4, 87720, Note_on_c, 0, 62, 0
4, 87720, Note_on_c, 0, 60, 62
4, 87840, Note_on_c, 0, 60, 0
4, 87840, Control_c, 0, 64, 0
4, 87840, Note_on_c, 0, 51, 75
4, 87840, Note_on_c, 0, 58, 75
4, 88080, Note_on_c, 0, 58, 0
4, 88080, Note_on_c, 0, 51, 0
4, 88560, Control_c, 0, 64, 127
4, 88560, Note_on_c, 0, 58, 75
4, 88680, Note_on_c, 0, 58, 0
4, 88680, Note_on_c, 0, 60, 75
4, 88800, Note_on_c, 0, 60, 0
4, 88800, Note_on_c, 0, 62, 75
4, 88920, Note_on_c, 0, 62, 0
4, 88920, Note_on_c, 0, 63, 75
4, 89040, Note_on_c, 0, 63, 0
4, 89040, Note_on_c, 0, 62, 75
4, 89160, Note_on_c, 0, 62, 0
4, 89160, Note_on_c, 0, 60, 75
4, 89280, Note_on_c, 0, 60, 0
4, 89280, Control_c, 0, 64, 0
4, 89280, Note_on_c, 0, 51, 75
4, 89280, Note_on_c, 0, 58, 75
4, 89520, Note_on_c, 0, 58, 0
4, 89520, Note_on_c, 0, 51, 0
4, 90000, Control_c, 0, 64, 127
4, 90000, Note_on_c, 0, 58, 75
4, 90120, Note_on_c, 0, 58, 0
4, 90120, Note_on_c, 0, 60, 75
4, 90240, Note_on_c, 0, 60, 0
4, 90240, Note_on_c, 0, 62, 75
4, 90360, Note_on_c, 0, 62, 0
4, 90360, Note_on_c, 0, 63, 75
4, 90480, Note_on_c, 0, 63, 0
4, 90480, Note_on_c, 0, 62, 75
4, 90600, Note_on_c, 0, 62, 0
4, 90600, Control_c, 0, 64, 0
4, 90600, Note_on_c, 0, 60, 75
4, 90720, Note_on_c, 0, 60, 0
4, 90720, Control_c, 0, 64, 127
4, 90720, Note_on_c, 0, 58, 75
4, 90840, Note_on_c, 0, 58, 0
4, 90840, Note_on_c, 0, 60, 75
4, 90960, Note_on_c, 0, 60, 0
4, 90960, Note_on_c, 0, 62, 75
4, 91080, Note_on_c, 0, 62, 0
4, 91080, Note_on_c, 0, 63, 75
4, 91200, Note_on_c, 0, 63, 0
4, 91200, Note_on_c, 0, 62, 75
4, 91320, Note_on_c, 0, 62, 0
4, 91320, Note_on_c, 0, 60, 75
4, 91440, Note_on_c, 0, 60, 0
4, 91440, Control_c, 0, 64, 0
4, 91440, Note_on_c, 0, 51, 75
4, 91440, Note_on_c, 0, 58, 75
4, 91680, Note_on_c, 0, 58, 0
4, 91680, Note_on_c, 0, 51, 0
4, 92800, Note_on_c, 0, 52, 49
4, 92840, Note_on_c, 0, 61, 49
4, 92880, Note_on_c, 0, 67, 49
4, 93360, Note_on_c, 0, 67, 0
4, 93360, Note_on_c, 0, 61, 0
4, 93360, Note_on_c, 0, 52, 0
4, 93520, Note_on_c, 0, 64, 49
4, 93560, Note_on_c, 0, 67, 49
4, 93600, Note_on_c, 0, 73, 49
4, 94080, Note_on_c, 0, 73, 0
4, 94080, Note_on_c, 0, 67, 0
4, 94080, Note_on_c, 0, 64, 0
4, 94240, Note_on_c, 0, 54, 49
4, 94280, Note_on_c, 0, 61, 49
4, 94320, Note_on_c, 0, 66, 49
4, 94800, Note_on_c, 0, 66, 0
4, 94800, Note_on_c, 0, 61, 0
4, 94800, Note_on_c, 0, 54, 0
4, 94960, Note_on_c, 0, 49, 49
4, 95000, Note_on_c, 0, 54, 49
4, 95040, Note_on_c, 0, 61, 49
4, 95520, Note_on_c, 0, 61, 0
4, 95520, Note_on_c, 0, 54, 0
4, 95520, Note_on_c, 0, 49, 0
4, 95680, Note_on_c, 0, 52, 49
4, 95720, Note_on_c, 0, 61, 49
4, 95760, Note_on_c, 0, 67, 49
4, 96240, Note_on_c, 0, 67, 0
4, 96240, Note_on_c, 0, 61, 0
4, 96240, Note_on_c, 0, 52, 0
4, 96400, Note_on_c, 0, 64, 49
4, 96440, Note_on_c, 0, 67, 49
4, 96480, Note_on_c, 0, 73, 49
4, 96960, Note_on_c, 0, 73, 0
4, 96960, Note_on_c, 0, 67, 0
4, 96960, Note_on_c, 0, 64, 0
4, 97120, Note_on_c, 0, 54, 49
4, 97160, Note_on_c, 0, 61, 49
4, 97200, Note_on_c, 0, 66, 49
4, 97680, Note_on_c, 0, 66, 0
4, 97680, Note_on_c, 0, 61, 0
4, 97680, Note_on_c, 0, 54, 0
4, 97840, Note_on_c, 0, 49, 49
4, 97880, Note_on_c, 0, 54, 49
4, 97920, Note_on_c, 0, 61, 49
4, 98400, Note_on_c, 0, 61, 0
4, 98400, Note_on_c, 0, 54, 0
4, 98400, Note_on_c, 0, 49, 0
4, 98560, Note_on_c, 0, 55, 49
4, 98600, Note_on_c, 0, 62, 49
4, 98640, Note_on_c, 0, 67, 49
4, 99120, Note_on_c, 0, 67, 0
4, 99120, Note_on_c, 0, 62, 0
4, 99120, Note_on_c, 0, 55, 0
4, 99280, Note_on_c, 0, 43, 49
4, 99320, Note_on_c, 0, 50, 49
4, 99360, Note_on_c, 0, 55, 49
4, 99840, Note_on_c, 0, 55, 0
4, 99840, Note_on_c, 0, 50, 0
4, 99840, Note_on_c, 0, 43, 0
4, 100000, Note_on_c, 0, 50, 49
4, 100040, Note_on_c, 0, 56, 49
4, 100080, Note_on_c, 0, 65, 49
4, 100560, Note_on_c, 0, 65, 0
4, 100560, Note_on_c, 0, 56, 0
4, 100560, Note_on_c, 0, 50, 0
4, 100720, Note_on_c, 0, 41, 49
4, 100760, Note_on_c, 0, 50, 49
4, 100800, Note_on_c, 0, 56, 49
4, 101280, Note_on_c, 0, 56, 0
4, 101280, Note_on_c, 0, 50, 0
4, 101280, Note_on_c, 0, 41, 0
4, 101440, Note_on_c, 0, 55, 49
4, 101480, Note_on_c, 0, 62, 49
4, 101520, Note_on_c, 0, 67, 49
4, 102000, Note_on_c, 0, 67, 0
4, 102000, Note_on_c, 0, 62, 0
4, 102000, Note_on_c, 0, 55, 0
4, 102160, Note_on_c, 0, 43, 49
4, 102200, Note_on_c, 0, 50, 49
4, 102240, Note_on_c, 0, 55, 49
4, 102720, Note_on_c, 0, 55, 0
4, 102720, Note_on_c, 0, 50, 0
4, 102720, Note_on_c, 0, 43, 0
4, 102880, Note_on_c, 0, 50, 49
4, 102920, Note_on_c, 0, 56, 49
4, 102960, Note_on_c, 0, 65, 49
4, 103440, Note_on_c, 0, 65, 0
4, 103440, Note_on_c, 0, 56, 0
4, 103440, Note_on_c, 0, 50, 0
4, 103600, Note_on_c, 0, 41, 49
4, 103640, Note_on_c, 0, 50, 49
4, 103680, Note_on_c, 0, 56, 62
4, 104160, Note_on_c, 0, 56, 0
4, 104160, Note_on_c, 0, 50, 0
4, 104160, Note_on_c, 0, 41, 0
4, 104320, Note_on_c, 0, 50, 62
4, 104360, Note_on_c, 0, 56, 62
4, 104400, Note_on_c, 0, 65, 62
4, 104880, Note_on_c, 0, 65, 0
4, 104880, Note_on_c, 0, 56, 0
4, 104880, Note_on_c, 0, 50, 0
4, 105040, Note_on_c, 0, 41, 62
4, 105080, Note_on_c, 0, 50, 62
4, 105120, Note_on_c, 0, 56, 75
4, 105600, Note_on_c, 0, 56, 0
4, 105600, Note_on_c, 0, 50, 0
4, 105600, Note_on_c, 0, 41, 0
4, 105760, Note_on_c, 0, 50, 75
4, 105800, Note_on_c, 0, 56, 75
4, 105840, Note_on_c, 0, 65, 75
4, 106320, Note_on_c, 0, 65, 0
4, 106320, Note_on_c, 0, 56, 0
4, 106320, Note_on_c, 0, 50, 0
4, 106480, Note_on_c, 0, 41, 75
4, 106520, Note_on_c, 0, 50, 75
4, 106560, Note_on_c, 0, 56, 88
4, 107040, Note_on_c, 0, 56, 0
4, 107040, Note_on_c, 0, 50, 0
4, 107040, Note_on_c, 0, 41, 0
4, 107280, Note_on_c, 0, 58, 88
4, 107760, Note_on_c, 0, 58, 0
4, 107760, Note_on_c, 0, 60, 88
4, 108240, Note_on_c, 0, 60, 0
4, 108240, Note_on_c, 0, 65, 88
4, 108600, Note_on_c, 0, 65, 0
4, 108600, Note_on_c, 0, 63, 88
4, 108720, Note_on_c, 0, 63, 0
4, 108720, Note_on_c, 0, 67, 88
4, 109200, Note_on_c, 0, 67, 0
4, 109200, Note_on_c, 0, 58, 88
4, 109440, Note_on_c, 0, 58, 0
4, 110160, Note_on_c, 0, 58, 88
4, 110640, Note_on_c, 0, 58, 0
4, 110640, Note_on_c, 0, 60, 88
4, 111120, Note_on_c, 0, 60, 0
4, 111120, Note_on_c, 0, 63, 88
4, 111480, Note_on_c, 0, 63, 0
4, 111480, Note_on_c, 0, 62, 88
4, 111600, Note_on_c, 0, 62, 0
4, 111600, Note_on_c, 0, 65, 88
4, 112080, Note_on_c, 0, 65, 0
4, 112080, Note_on_c, 0, 58, 88
4, 112320, Note_on_c, 0, 58, 0
4, 113040, Note_on_c, 0, 58, 75
4, 113520, Note_on_c, 0, 58, 0
4, 113520, Note_on_c, 0, 60, 75
4, 114000, Note_on_c, 0, 60, 0
4, 114000, Note_on_c, 0, 65, 75
4, 114360, Note_on_c, 0, 65, 0
4, 114360, Note_on_c, 0, 63, 75
4, 114480, Note_on_c, 0, 63, 0
4, 114480, Note_on_c, 0, 67, 75
4, 114720, Note_on_c, 0, 67, 0
4, 114720, Note_on_c, 0, 70, 75
4, 114960, Note_on_c, 0, 70, 0
4, 114960, Note_on_c, 0, 70, 75
4, 115200, Note_on_c, 0, 70, 0
4, 115200, Note_on_c, 0, 51, 75
4, 115200, Note_on_c, 0, 58, 75
4, 115200, Note_on_c, 0, 62, 75
4, 115680, Note_on_c, 0, 62, 0
4, 115680, Note_on_c, 0, 58, 0
4, 115680, Note_on_c, 0, 51, 0
4, 115680, Note_on_c, 0, 65, 75
4, 115920, Note_on_c, 0, 65, 0
4, 115920, Note_on_c, 0, 67, 75
4, 116160, Note_on_c, 0, 67, 0
4, 116160, Note_on_c, 0, 70, 75
4, 116400, Note_on_c, 0, 70, 0
4, 116400, Note_on_c, 0, 70, 75
4, 116640, Note_on_c, 0, 70, 0
4, 116640, Note_on_c, 0, 51, 75
4, 116640, Note_on_c, 0, 58, 75
4, 116640, Note_on_c, 0, 62, 75
4, 117120, Note_on_c, 0, 62, 0
4, 117120, Note_on_c, 0, 58, 0
4, 117120, Note_on_c, 0, 51, 0
4, 117120, Note_on_c, 0, 65, 75
4, 117360, Note_on_c, 0, 65, 0
4, 117360, Note_on_c, 0, 67, 75
4, 117600, Note_on_c, 0, 67, 0
4, 117600, Note_on_c, 0, 70, 75
4, 117840, Note_on_c, 0, 70, 0
4, 117840, Note_on_c, 0, 70, 75
4, 118080, Note_on_c, 0, 70, 0
4, 118080, Note_on_c, 0, 67, 75
4, 118320, Note_on_c, 0, 67, 0
4, 118320, Note_on_c, 0, 69, 75
4, 118560, Note_on_c, 0, 69, 0
4, 118560, Note_on_c, 0, 69, 75
4, 118740, Note_on_c, 0, 38, 75
4, 118800, Note_on_c, 0, 69, 0
4, 118800, Note_on_c, 0, 50, 75
4, 118800, Note_on_c, 0, 54, 75
4, 118800, Note_on_c, 0, 57, 75
4, 119280, Note_on_c, 0, 57, 0
4, 119280, Note_on_c, 0, 38, 0
4, 119280, Note_on_c, 0, 50, 0
4, 119280, Note_on_c, 0, 54, 0
4, 119280, Note_on_c, 0, 59, 75
4, 119760, Note_on_c, 0, 59, 0
4, 119760, Note_on_c, 0, 64, 75
4, 120120, Note_on_c, 0, 64, 0
4, 120120, Note_on_c, 0, 62, 75
4, 120240, Note_on_c, 0, 62, 0
4, 120240, Note_on_c, 0, 66, 75
4, 120720, Note_on_c, 0, 66, 0
4, 120720, Note_on_c, 0, 57, 75
4, 120960, Note_on_c, 0, 57, 0
4, 121620, Note_on_c, 0, 38, 75
4, 121680, Note_on_c, 0, 50, 75
4, 121680, Note_on_c, 0, 54, 75
4, 121680, Note_on_c, 0, 57, 75
4, 122160, Note_on_c, 0, 57, 0
4, 122160, Note_on_c, 0, 38, 0
4, 122160, Note_on_c, 0, 50, 0
4, 122160, Note_on_c, 0, 54, 0
4, 122160, Note_on_c, 0, 59, 75
4, 122640, Note_on_c, 0, 59, 0
4, 122640, Note_on_c, 0, 62, 75
4, 123000, Note_on_c, 0, 62, 0
4, 123000, Note_on_c, 0, 61, 75
4, 123120, Note_on_c, 0, 61, 0
4, 123120, Note_on_c, 0, 64, 75
4, 123600, Note_on_c, 0, 64, 0
4, 123600, Note_on_c, 0, 57, 75
4, 123840, Note_on_c, 0, 57, 0
4, 124800, Note_on_c, 0, 50, 75
4, 124800, Note_on_c, 0, 62, 75
4, 125040, Note_on_c, 0, 62, 0
4, 125040, Note_on_c, 0, 50, 0
4, 125040, Note_on_c, 0, 49, 75
4, 125040, Note_on_c, 0, 61, 75
4, 125280, Note_on_c, 0, 61, 0
4, 125280, Note_on_c, 0, 49, 0
4, 125280, Note_on_c, 0, 47, 75
4, 125280, Note_on_c, 0, 59, 75
4, 125760, Note_on_c, 0, 59, 0
4, 125760, Note_on_c, 0, 47, 0
4, 125760, Note_on_c, 0, 46, 75
4, 125760, Note_on_c, 0, 58, 75
4, 126240, Note_on_c, 0, 58, 0
4, 126240, Note_on_c, 0, 46, 0
4, 126240, Note_on_c, 0, 45, 75
4, 126240, Note_on_c, 0, 57, 75
4, 126480, Note_on_c, 0, 57, 0
4, 126480, Note_on_c, 0, 45, 0
4, 126480, Note_on_c, 0, 42, 75
4, 126480, Note_on_c, 0, 54, 75
4, 126720, Note_on_c, 0, 54, 0
4, 126720, Note_on_c, 0, 42, 0
4, 126720, Note_on_c, 0, 38, 75
4, 126720, Note_on_c, 0, 50, 75
4, 126960, Note_on_c, 0, 50, 0
4, 126960, Note_on_c, 0, 38, 0
4, 127680, Note_on_c, 0, 50, 75
4, 127680, Note_on_c, 0, 62, 75
4, 127920, Note_on_c, 0, 62, 0
4, 127920, Note_on_c, 0, 50, 0
4, 127920, Note_on_c, 0, 49, 75
4, 127920, Note_on_c, 0, 61, 75
4, 128160, Note_on_c, 0, 61, 0
4, 128160, Note_on_c, 0, 49, 0
4, 128160, Note_on_c, 0, 47, 75
4, 128160, Note_on_c, 0, 59, 75
4, 128640, Note_on_c, 0, 59, 0
4, 128640, Note_on_c, 0, 47, 0
4, 128640, Note_on_c, 0, 46, 75
4, 128640, Note_on_c, 0, 58, 75
4, 129120, Note_on_c, 0, 58, 0
4, 129120, Note_on_c, 0, 46, 0
4, 129120, Note_on_c, 0, 45, 75
4, 129120, Note_on_c, 0, 57, 75
4, 129360, Note_on_c, 0, 57, 0
4, 129360, Note_on_c, 0, 45, 0
4, 129360, Note_on_c, 0, 38, 75
4, 129360, Note_on_c, 0, 50, 75
4, 129600, Note_on_c, 0, 50, 0
4, 129600, Note_on_c, 0, 38, 0
4, 129840, Note_on_c, 0, 57, 75
4, 130080, Note_on_c, 0, 57, 0
4, 130080, Note_on_c, 0, 50, 75
4, 130320, Note_on_c, 0, 50, 0
4, 130560, Note_on_c, 0, 45, 75
4, 130560, Note_on_c, 0, 57, 75
4, 130800, Note_on_c, 0, 57, 0
4, 130800, Note_on_c, 0, 45, 0
4, 130800, Note_on_c, 0, 38, 62
4, 130800, Note_on_c, 0, 50, 62
4, 131040, Note_on_c, 0, 50, 0
4, 131040, Note_on_c, 0, 38, 0
4, 131280, Note_on_c, 0, 57, 75
4, 131520, Note_on_c, 0, 57, 0
4, 131520, Note_on_c, 0, 50, 75
4, 131760, Note_on_c, 0, 50, 0
4, 132000, Note_on_c, 0, 57, 75
4, 132240, Note_on_c, 0, 57, 0
4, 132240, Note_on_c, 0, 50, 75
4, 132480, Note_on_c, 0, 50, 0
4, 132720, Note_on_c, 0, 57, 62
4, 132960, Note_on_c, 0, 57, 0
4, 132960, Note_on_c, 0, 50, 62
4, 133200, Note_on_c, 0, 50, 0
4, 133440, Note_on_c, 0, 57, 62
4, 133680, Note_on_c, 0, 57, 0
4, 133680, Note_on_c, 0, 50, 62
4, 133920, Note_on_c, 0, 50, 0
4, 134160, Note_on_c, 0, 57, 62
4, 134400, Note_on_c, 0, 57, 0
4, 134400, Note_on_c, 0, 50, 62
4, 134640, Note_on_c, 0, 50, 0
4, 134880, Note_on_c, 0, 64, 62
4, 135120, Note_on_c, 0, 64, 0
4, 135120, Note_on_c, 0, 50, 62
4, 135120, Note_on_c, 0, 57, 62
4, 135360, Note_on_c, 0, 57, 0
4, 135360, Note_on_c, 0, 50, 0
4, 135600, Note_on_c, 0, 64, 62
4, 135840, Note_on_c, 0, 64, 0
4, 135840, Note_on_c, 0, 50, 62
4, 135840, Note_on_c, 0, 57, 62
4, 136080, Note_on_c, 0, 57, 0
4, 136080, Note_on_c, 0, 50, 0
4, 136320, Note_on_c, 0, 64, 49
4, 136560, Note_on_c, 0, 64, 0
4, 136560, Note_on_c, 0, 50, 49
4, 136560, Note_on_c, 0, 57, 49
4, 136800, Note_on_c, 0, 57, 0
4, 136800, Note_on_c, 0, 50, 0
4, 137040, Note_on_c, 0, 64, 49
4, 137280, Note_on_c, 0, 64, 0
4, 137280, Note_on_c, 0, 50, 49
4, 137280, Note_on_c, 0, 57, 49
4, 137520, Note_on_c, 0, 57, 0
4, 137520, Note_on_c, 0, 50, 0
4, 138000, Note_on_c, 0, 73, 62
4, 138047, Note_on_c, 0, 73, 0
4, 138240, Note_on_c, 0, 71, 62
4, 138287, Note_on_c, 0, 71, 0
4, 138480, Note_on_c, 0, 66, 62
4, 138527, Note_on_c, 0, 66, 0
4, 138720, Note_on_c, 0, 59, 62
4, 138767, Note_on_c, 0, 59, 0
4, 139440, Note_on_c, 0, 49, 62
4, 139487, Note_on_c, 0, 49, 0
4, 139680, Note_on_c, 0, 47, 62
4, 139727, Note_on_c, 0, 47, 0
4, 139920, Note_on_c, 0, 42, 62
4, 139967, Note_on_c, 0, 42, 0
4, 140160, Note_on_c, 0, 35, 62
4, 140207, Note_on_c, 0, 35, 0
4, 140640, Note_on_c, 0, 52, 62
4, 140640, Note_on_c, 0, 64, 62
4, 141120, Note_on_c, 0, 64, 0
4, 141120, Note_on_c, 0, 52, 0
4, 141120, Note_on_c, 0, 50, 62
4, 141120, Note_on_c, 0, 52, 62
4, 141120, Note_on_c, 0, 62, 62
4, 141600, Note_on_c, 0, 62, 0
4, 141600, Note_on_c, 0, 52, 0
4, 141600, Note_on_c, 0, 50, 0
4, 141600, Note_on_c, 0, 49, 62
4, 141600, Note_on_c, 0, 52, 62
4, 141600, Note_on_c, 0, 61, 62
4, 142080, Note_on_c, 0, 61, 0
4, 142080, Note_on_c, 0, 52, 0
4, 142080, Note_on_c, 0, 49, 0
4, 142080, Note_on_c, 0, 47, 62
4, 142080, Note_on_c, 0, 52, 62
4, 142080, Note_on_c, 0, 59, 62
4, 142320, Note_on_c, 0, 59, 0
4, 142320, Note_on_c, 0, 52, 0
4, 142320, Note_on_c, 0, 47, 0
4, 142320, Note_on_c, 0, 46, 75
4, 142320, Note_on_c, 0, 52, 75
4, 142320, Note_on_c, 0, 58, 75
4, 142560, Note_on_c, 0, 58, 0
4, 142560, Note_on_c, 0, 52, 0
4, 142560, Note_on_c, 0, 46, 0
4, 142560, Note_on_c, 0, 45, 75
4, 142560, Note_on_c, 0, 52, 75
4, 142560, Note_on_c, 0, 57, 75
4, 142800, Note_on_c, 0, 57, 0
4, 142800, Note_on_c, 0, 52, 0
4, 142800, Note_on_c, 0, 45, 0
4, 143760, Note_on_c, 0, 73, 62
4, 143807, Note_on_c, 0, 73, 0
4, 144000, Note_on_c, 0, 71, 62
4, 144047, Note_on_c, 0, 71, 0
4, 144240, Note_on_c, 0, 66, 62
4, 144287, Note_on_c, 0, 66, 0
4, 144480, Note_on_c, 0, 59, 62
4, 144527, Note_on_c, 0, 59, 0
4, 145200, Note_on_c, 0, 49, 62
4, 145247, Note_on_c, 0, 49, 0
4, 145440, Note_on_c, 0, 47, 62
4, 145487, Note_on_c, 0, 47, 0
4, 145680, Note_on_c, 0, 42, 62
4, 145727, Note_on_c, 0, 42, 0
4, 145920, Note_on_c, 0, 35, 62
4, 145967, Note_on_c, 0, 35, 0
4, 146400, Note_on_c, 0, 52, 62
4, 146400, Note_on_c, 0, 64, 62
4, 146880, Note_on_c, 0, 64, 0
4, 146880, Note_on_c, 0, 52, 0
4, 146880, Note_on_c, 0, 50, 62
4, 146880, Note_on_c, 0, 52, 62
4, 146880, Note_on_c, 0, 62, 62
4, 147360, Note_on_c, 0, 62, 0
4, 147360, Note_on_c, 0, 52, 0
4, 147360, Note_on_c, 0, 50, 0
4, 147360, Note_on_c, 0, 49, 62
4, 147360, Note_on_c, 0, 52, 62
4, 147360, Note_on_c, 0, 61, 62
4, 147840, Note_on_c, 0, 61, 0
4, 147840, Note_on_c, 0, 52, 0
4, 147840, Note_on_c, 0, 49, 0
4, 147840, Note_on_c, 0, 47, 62
4, 147840, Note_on_c, 0, 52, 62
4, 147840, Note_on_c, 0, 59, 62
4, 148080, Note_on_c, 0, 59, 0
4, 148080, Note_on_c, 0, 52, 0
4, 148080, Note_on_c, 0, 47, 0
4, 148080, Note_on_c, 0, 46, 62
4, 148080, Note_on_c, 0, 52, 62
4, 148080, Note_on_c, 0, 58, 62
4, 148320, Note_on_c, 0, 58, 0
4, 148320, Note_on_c, 0, 52, 0
4, 148320, Note_on_c, 0, 46, 0
4, 148320, Note_on_c, 0, 47, 75
4, 148320, Note_on_c, 0, 50, 75
4, 148320, Note_on_c, 0, 59, 75
4, 148560, Note_on_c, 0, 59, 0
4, 148560, Note_on_c, 0, 50, 0
4, 148560, Note_on_c, 0, 47, 0
4, 148560, Note_on_c, 0, 49, 75
4, 148560, Note_on_c, 0, 52, 75
4, 148560, Note_on_c, 0, 61, 75
4, 149040, Note_on_c, 0, 61, 0
4, 149040, Note_on_c, 0, 52, 0
4, 149040, Note_on_c, 0, 49, 0
4, 149040, Note_on_c, 0, 50, 75
4, 149040, Note_on_c, 0, 54, 75
4, 149040, Note_on_c, 0, 62, 75
4, 149520, Note_on_c, 0, 62, 0
4, 149520, Note_on_c, 0, 54, 0
4, 149520, Note_on_c, 0, 50, 0
4, 149520, Note_on_c, 0, 51, 75
4, 149520, Note_on_c, 0, 59, 75
4, 149520, Note_on_c, 0, 63, 75
4, 149760, Note_on_c, 0, 63, 0
4, 149760, Note_on_c, 0, 59, 0
4, 149760, Note_on_c, 0, 51, 0
4, 149760, Note_on_c, 0, 52, 75
4, 149760, Note_on_c, 0, 59, 75
4, 149760, Note_on_c, 0, 64, 75
4, 150000, Note_on_c, 0, 64, 0
4, 150000, Note_on_c, 0, 59, 0
4, 150000, Note_on_c, 0, 52, 0
4, 150000, Note_on_c, 0, 54, 75
4, 150000, Note_on_c, 0, 59, 75
4, 150000, Note_on_c, 0, 66, 75
4, 150480, Note_on_c, 0, 66, 0
4, 150480, Note_on_c, 0, 59, 0
4, 150480, Note_on_c, 0, 54, 0
4, 150480, Note_on_c, 0, 55, 75
4, 150480, Note_on_c, 0, 59, 75
4, 150480, Note_on_c, 0, 67, 75
4, 150960, Note_on_c, 0, 67, 0
4, 150960, Note_on_c, 0, 59, 0
4, 150960, Note_on_c, 0, 55, 0
4, 150960, Note_on_c, 0, 56, 75
4, 150960, Note_on_c, 0, 59, 75
4, 150960, Note_on_c, 0, 65, 75
4, 151200, Note_on_c, 0, 65, 0
4, 151200, Note_on_c, 0, 59, 0
4, 151200, Note_on_c, 0, 56, 0
4, 151200, Note_on_c, 0, 66, 114
4, 151320, Note_on_c, 0, 66, 0
4, 151320, Note_on_c, 0, 67, 88
4, 151440, Note_on_c, 0, 67, 0
4, 151440, Note_on_c, 0, 69, 88
4, 151560, Note_on_c, 0, 69, 0
4, 151560, Note_on_c, 0, 67, 88
4, 151680, Note_on_c, 0, 67, 0
4, 151680, Note_on_c, 0, 61, 114
4, 151800, Note_on_c, 0, 61, 0
4, 151800, Note_on_c, 0, 62, 88
4, 151920, Note_on_c, 0, 62, 0
4, 151920, Note_on_c, 0, 64, 88
4, 152040, Note_on_c, 0, 64, 0
4, 152040, Note_on_c, 0, 62, 88
4, 152160, Note_on_c, 0, 62, 0
4, 152160, Note_on_c, 0, 54, 114
4, 152280, Note_on_c, 0, 54, 0
4, 152280, Note_on_c, 0, 55, 88
4, 152400, Note_on_c, 0, 55, 0
4, 152400, Note_on_c, 0, 57, 88
4, 152520, Note_on_c, 0, 57, 0
4, 152520, Note_on_c, 0, 55, 88
4, 152640, Note_on_c, 0, 55, 0
4, 152640, Note_on_c, 0, 51, 114
4, 152760, Note_on_c, 0, 51, 0
4, 152760, Note_on_c, 0, 52, 88
4, 152880, Note_on_c, 0, 52, 0
4, 152880, Note_on_c, 0, 54, 88
4, 153000, Note_on_c, 0, 54, 0
4, 153000, Note_on_c, 0, 52, 88
4, 153120, Note_on_c, 0, 52, 0
4, 153120, Note_on_c, 0, 45, 88
4, 153360, Note_on_c, 0, 45, 0
4, 153360, Note_on_c, 0, 38, 88
4, 153360, Note_on_c, 0, 50, 88
4, 153600, Note_on_c, 0, 50, 0
4, 153600, Note_on_c, 0, 38, 0
4, 153600, Control_c, 0, 64, 127
4, 153600, Note_on_c, 0, 51, 62
4, 153720, Note_on_c, 0, 51, 0
4, 153720, Note_on_c, 0, 52, 62
4, 153840, Note_on_c, 0, 52, 0
4, 153840, Note_on_c, 0, 54, 62
4, 153960, Note_on_c, 0, 54, 0
4, 153960, Control_c, 0, 64, 0
4, 153960, Note_on_c, 0, 52, 62
4, 154080, Note_on_c, 0, 52, 0
4, 154080, Note_on_c, 0, 62, 62
4, 154560, Note_on_c, 0, 62, 0
4, 154560, Note_on_c, 0, 52, 62
4, 154800, Note_on_c, 0, 52, 0
4, 154800, Note_on_c, 0, 45, 62
4, 154847, Note_on_c, 0, 45, 0
4, 155040, Control_c, 0, 64, 127
4, 155040, Note_on_c, 0, 51, 62
4, 155160, Note_on_c, 0, 51, 0
4, 155160, Note_on_c, 0, 52, 62
4, 155280, Note_on_c, 0, 52, 0
4, 155280, Note_on_c, 0, 54, 62
4, 155400, Note_on_c, 0, 54, 0
4, 155400, Control_c, 0, 64, 0
4, 155400, Note_on_c, 0, 52, 62
4, 155520, Note_on_c, 0, 52, 0
4, 155520, Note_on_c, 0, 62, 62
4, 156000, Note_on_c, 0, 62, 0
4, 156000, Note_on_c, 0, 52, 62
4, 156240, Note_on_c, 0, 52, 0
4, 156240, Note_on_c, 0, 45, 62
4, 156287, Note_on_c, 0, 45, 0
4, 156480, Control_c, 0, 64, 127
4, 156480, Note_on_c, 0, 51, 62
4, 156600, Note_on_c, 0, 51, 0
4, 156600, Note_on_c, 0, 52, 62
4, 156720, Note_on_c, 0, 52, 0
4, 156720, Note_on_c, 0, 54, 62
4, 156840, Note_on_c, 0, 54, 0
4, 156840, Control_c, 0, 64, 0
4, 156840, Note_on_c, 0, 52, 62
4, 156960, Note_on_c, 0, 52, 0
4, 156960, Note_on_c, 0, 62, 62
4, 157007, Note_on_c, 0, 62, 0
4, 157200, Note_on_c, 0, 52, 62
4, 157247, Note_on_c, 0, 52, 0
4, 157440, Note_on_c, 0, 45, 62
4, 157487, Note_on_c, 0, 45, 0
4, 157680, Note_on_c, 0, 61, 62
4, 157727, Note_on_c, 0, 61, 0
4, 157920, Note_on_c, 0, 54, 75
4, 157967, Note_on_c, 0, 54, 0
4, 158160, Note_on_c, 0, 45, 75
4, 158207, Note_on_c, 0, 45, 0
4, 158400, Note_on_c, 0, 71, 75
4, 158447, Note_on_c, 0, 71, 0
4, 158640, Note_on_c, 0, 65, 75
4, 158687, Note_on_c, 0, 65, 0
4, 158880, Note_on_c, 0, 57, 75
4, 158927, Note_on_c, 0, 57, 0
4, 159120, Note_on_c, 0, 73, 88
4, 159167, Note_on_c, 0, 73, 0
4, 159360, Note_on_c, 0, 66, 88
4, 159407, Note_on_c, 0, 66, 0
4, 159600, Note_on_c, 0, 57, 88
4, 159647, Note_on_c, 0, 57, 0
4, 159840, Note_on_c, 0, 62, 62
4, 160320, Note_on_c, 0, 62, 0
4, 160320, Note_on_c, 0, 52, 62
4, 160560, Note_on_c, 0, 52, 0
4, 160560, Note_on_c, 0, 45, 62
4, 160607, Note_on_c, 0, 45, 0
4, 160800, Note_on_c, 0, 51, 62
4, 160920, Note_on_c, 0, 51, 0
4, 160920, Note_on_c, 0, 52, 62
4, 161040, Note_on_c, 0, 52, 0
4, 161040, Note_on_c, 0, 54, 62
4, 161160, Note_on_c, 0, 54, 0
4, 161160, Note_on_c, 0, 52, 62
4, 161280, Note_on_c, 0, 52, 0
4, 161280, Note_on_c, 0, 62, 62
4, 161760, Note_on_c, 0, 62, 0
4, 161760, Note_on_c, 0, 52, 62
4, 162000, Note_on_c, 0, 52, 0
4, 162000, Note_on_c, 0, 45, 62
4, 162047, Note_on_c, 0, 45, 0
4, 162240, Control_c, 0, 64, 127
4, 162240, Note_on_c, 0, 51, 62
4, 162360, Note_on_c, 0, 51, 0
4, 162360, Note_on_c, 0, 52, 62
4, 162480, Note_on_c, 0, 52, 0
4, 162480, Note_on_c, 0, 54, 62
4, 162600, Note_on_c, 0, 54, 0
4, 162600, Control_c, 0, 64, 0
4, 162600, Note_on_c, 0, 52, 62
4, 162720, Note_on_c, 0, 52, 0
4, 162720, Note_on_c, 0, 64, 62
4, 162767, Note_on_c, 0, 64, 0
4, 162960, Note_on_c, 0, 54, 62
4, 163007, Note_on_c, 0, 54, 0
4, 163200, Note_on_c, 0, 47, 62
4, 163247, Note_on_c, 0, 47, 0
4, 163440, Note_on_c, 0, 62, 75
4, 163487, Note_on_c, 0, 62, 0
4, 163680, Note_on_c, 0, 54, 75
4, 163727, Note_on_c, 0, 54, 0
4, 163920, Note_on_c, 0, 47, 75
4, 163967, Note_on_c, 0, 47, 0
4, 164160, Note_on_c, 0, 76, 75
4, 164207, Note_on_c, 0, 76, 0
4, 164400, Note_on_c, 0, 66, 75
4, 164447, Note_on_c, 0, 66, 0
4, 164640, Note_on_c, 0, 59, 75
4, 164687, Note_on_c, 0, 59, 0
4, 164880, Note_on_c, 0, 74, 88
4, 164927, Note_on_c, 0, 74, 0
4, 165120, Note_on_c, 0, 66, 88
4, 165167, Note_on_c, 0, 66, 0
4, 165360, Note_on_c, 0, 59, 88
4, 165407, Note_on_c, 0, 59, 0
4, 165840, Control_c, 0, 64, 127
4, 165840, Note_on_c, 0, 49, 62
4, 165960, Note_on_c, 0, 49, 0
4, 165960, Note_on_c, 0, 50, 62
4, 166080, Note_on_c, 0, 50, 0
4, 166080, Note_on_c, 0, 52, 62
4, 166200, Note_on_c, 0, 52, 0
4, 166200, Control_c, 0, 64, 0
4, 166200, Note_on_c, 0, 50, 62
4, 166320, Note_on_c, 0, 50, 0
4, 166320, Note_on_c, 0, 59, 62
4, 166800, Note_on_c, 0, 59, 0
4, 166800, Note_on_c, 0, 53, 62
4, 167040, Note_on_c, 0, 53, 0
4, 167280, Control_c, 0, 64, 127
4, 167280, Note_on_c, 0, 41, 62
4, 167400, Note_on_c, 0, 41, 0
4, 167400, Note_on_c, 0, 42, 62
4, 167520, Note_on_c, 0, 42, 0
4, 167520, Note_on_c, 0, 44, 62
4, 167640, Note_on_c, 0, 44, 0
4, 167640, Control_c, 0, 64, 0
4, 167640, Note_on_c, 0, 42, 62
4, 167760, Note_on_c, 0, 42, 0
4, 167760, Note_on_c, 0, 50, 62
4, 168240, Note_on_c, 0, 50, 0
4, 168240, Note_on_c, 0, 49, 62
4, 168480, Note_on_c, 0, 49, 0
4, 168720, Note_on_c, 0, 47, 62
4, 168720, Note_on_c, 0, 59, 62
4, 168960, Note_on_c, 0, 59, 0
4, 168960, Note_on_c, 0, 47, 0
4, 168960, Note_on_c, 0, 45, 62
4, 168960, Note_on_c, 0, 47, 62
4, 168960, Note_on_c, 0, 57, 62
4, 169440, Note_on_c, 0, 57, 0
4, 169440, Note_on_c, 0, 47, 0
4, 169440, Note_on_c, 0, 45, 0
4, 169440, Note_on_c, 0, 44, 62
4, 169440, Note_on_c, 0, 47, 62
4, 169440, Note_on_c, 0, 56, 62
4, 169920, Note_on_c, 0, 56, 0
4, 169920, Note_on_c, 0, 47, 0
4, 169920, Note_on_c, 0, 44, 0
4, 170160, Note_on_c, 0, 43, 75
4, 170160, Note_on_c, 0, 47, 75
4, 170160, Note_on_c, 0, 55, 75
4, 170400, Note_on_c, 0, 55, 0
4, 170400, Note_on_c, 0, 47, 0
4, 170400, Note_on_c, 0, 43, 0
4, 170400, Note_on_c, 0, 42, 75
4, 170400, Note_on_c, 0, 47, 75
4, 170400, Note_on_c, 0, 54, 75
4, 170880, Note_on_c, 0, 54, 0
4, 170880, Note_on_c, 0, 47, 0
4, 170880, Note_on_c, 0, 42, 0
4, 170880, Note_on_c, 0, 41, 88
4, 170880, Note_on_c, 0, 47, 88
4, 170880, Note_on_c, 0, 53, 88
4, 171360, Note_on_c, 0, 53, 0
4, 171360, Note_on_c, 0, 47, 0
4, 171360, Note_on_c, 0, 41, 0
4, 171600, Control_c, 0, 64, 127
4, 171600, Note_on_c, 0, 51, 62
4, 171720, Note_on_c, 0, 51, 0
4, 171720, Note_on_c, 0, 52, 62
4, 171840, Note_on_c, 0, 52, 0
4, 171840, Note_on_c, 0, 54, 62
4, 171960, Note_on_c, 0, 54, 0
4, 171960, Control_c, 0, 64, 0
4, 171960, Note_on_c, 0, 52, 62
4, 172080, Note_on_c, 0, 52, 0
4, 172080, Note_on_c, 0, 61, 62
4, 172560, Note_on_c, 0, 61, 0
4, 172560, Note_on_c, 0, 55, 62
4, 172800, Note_on_c, 0, 55, 0
4, 173040, Control_c, 0, 64, 127
4, 173040, Note_on_c, 0, 43, 62
4, 173160, Note_on_c, 0, 43, 0
4, 173160, Note_on_c, 0, 44, 62
4, 173280, Note_on_c, 0, 44, 0
4, 173280, Note_on_c, 0, 46, 62
4, 173400, Note_on_c, 0, 46, 0
4, 173400, Note_on_c, 0, 44, 62
4, 173520, Note_on_c, 0, 44, 0
4, 173520, Control_c, 0, 64, 0
4, 173520, Note_on_c, 0, 52, 62
4, 174000, Note_on_c, 0, 52, 0
4, 174000, Note_on_c, 0, 51, 62
4, 174240, Note_on_c, 0, 51, 0
4, 174480, Note_on_c, 0, 49, 62
4, 174480, Note_on_c, 0, 61, 62
4, 174720, Note_on_c, 0, 61, 0
4, 174720, Note_on_c, 0, 49, 0
4, 174720, Note_on_c, 0, 47, 62
4, 174720, Note_on_c, 0, 49, 62
4, 174720, Note_on_c, 0, 59, 62
4, 175200, Note_on_c, 0, 59, 0
4, 175200, Note_on_c, 0, 49, 0
4, 175200, Note_on_c, 0, 47, 0
4, 175200, Note_on_c, 0, 46, 62
4, 175200, Note_on_c, 0, 49, 62
4, 175200, Note_on_c, 0, 58, 62
4, 175680, Note_on_c, 0, 58, 0
4, 175680, Note_on_c, 0, 49, 0
4, 175680, Note_on_c, 0, 46, 0
4, 175920, Note_on_c, 0, 45, 75
4, 175920, Note_on_c, 0, 49, 75
4, 175920, Note_on_c, 0, 57, 75
4, 176160, Note_on_c, 0, 57, 0
4, 176160, Note_on_c, 0, 49, 0
4, 176160, Note_on_c, 0, 45, 0
4, 176160, Note_on_c, 0, 44, 75
4, 176160, Note_on_c, 0, 49, 75
4, 176160, Note_on_c, 0, 56, 75
4, 176640, Note_on_c, 0, 56, 0
4, 176640, Note_on_c, 0, 49, 0
4, 176640, Note_on_c, 0, 44, 0
4, 176640, Note_on_c, 0, 43, 88
4, 176640, Note_on_c, 0, 49, 88
4, 176640, Note_on_c, 0, 55, 88
4, 177120, Note_on_c, 0, 55, 0
4, 177120, Note_on_c, 0, 49, 0
4, 177120, Note_on_c, 0, 43, 0
4, 177120, Note_on_c, 0, 42, 88
4, 177120, Note_on_c, 0, 50, 88
4, 177120, Note_on_c, 0, 54, 88
4, 177600, Note_on_c, 0, 54, 0
4, 177600, Note_on_c, 0, 50, 0
4, 177600, Note_on_c, 0, 42, 0
4, 177600, Note_on_c, 0, 50, 88
4, 177600, Note_on_c, 0, 62, 88
4, 178080, Note_on_c, 0, 62, 0
4, 178080, Note_on_c, 0, 50, 0
4, 178080, Note_on_c, 0, 45, 88
4, 178080, Note_on_c, 0, 52, 88
4, 178080, Note_on_c, 0, 57, 88
4, 178560, Note_on_c, 0, 57, 0
4, 178560, Note_on_c, 0, 52, 0
4, 178560, Note_on_c, 0, 45, 0
4, 178560, Note_on_c, 0, 42, 88
4, 178560, Note_on_c, 0, 50, 88
4, 178560, Note_on_c, 0, 54, 88
4, 179040, Note_on_c, 0, 54, 0
4, 179040, Note_on_c, 0, 50, 0
4, 179040, Note_on_c, 0, 42, 0
4, 179040, Note_on_c, 0, 50, 88
4, 179040, Note_on_c, 0, 62, 88
4, 179520, Note_on_c, 0, 62, 0
4, 179520, Note_on_c, 0, 50, 0
4, 179520, Note_on_c, 0, 45, 88
4, 179520, Note_on_c, 0, 52, 88
4, 179520, Note_on_c, 0, 57, 88
4, 180000, Note_on_c, 0, 57, 0
4, 180000, Note_on_c, 0, 52, 0
4, 180000, Note_on_c, 0, 45, 0
4, 180000, Note_on_c, 0, 42, 88
4, 180000, Note_on_c, 0, 54, 88
4, 180240, Note_on_c, 0, 54, 0
4, 180240, Note_on_c, 0, 42, 0
4, 180240, Note_on_c, 0, 38, 88
4, 180240, Note_on_c, 0, 50, 88
4, 180480, Note_on_c, 0, 50, 0
4, 180480, Note_on_c, 0, 38, 0
4, 180480, Note_on_c, 0, 47, 88
4, 180480, Note_on_c, 0, 59, 88
4, 180960, Note_on_c, 0, 59, 0
4, 180960, Note_on_c, 0, 47, 0
4, 180960, Note_on_c, 0, 46, 88
4, 180960, Note_on_c, 0, 58, 88
4, 181200, Note_on_c, 0, 58, 0
4, 181200, Note_on_c, 0, 46, 0
4, 181200, Note_on_c, 0, 45, 88
4, 181200, Note_on_c, 0, 57, 88
4, 181440, Note_on_c, 0, 57, 0
4, 181440, Note_on_c, 0, 45, 0
4, 181440, Note_on_c, 0, 42, 88
4, 181440, Note_on_c, 0, 54, 88
4, 181680, Note_on_c, 0, 54, 0
4, 181680, Note_on_c, 0, 42, 0
4, 181680, Note_on_c, 0, 38, 88
4, 181680, Note_on_c, 0, 50, 88
4, 181920, Note_on_c, 0, 50, 0
4, 181920, Note_on_c, 0, 38, 0
4, 181920, Note_on_c, 0, 47, 88
4, 181920, Note_on_c, 0, 59, 88
4, 182400, Note_on_c, 0, 59, 0
4, 182400, Note_on_c, 0, 47, 0
4, 182400, Note_on_c, 0, 46, 88
4, 182400, Note_on_c, 0, 58, 88
4, 182640, Note_on_c, 0, 58, 0
4, 182640, Note_on_c, 0, 46, 0
4, 182640, Note_on_c, 0, 45, 88
4, 182640, Note_on_c, 0, 57, 88
4, 182880, Note_on_c, 0, 57, 0
4, 182880, Note_on_c, 0, 45, 0
4, 182880, Note_on_c, 0, 45, 88
4, 183120, Note_on_c, 0, 45, 0
4, 183120, Note_on_c, 0, 38, 88
4, 183360, Note_on_c, 0, 38, 0
4, 183360, Note_on_c, 0, 58, 88
4, 183600, Note_on_c, 0, 58, 0
4, 183600, Note_on_c, 0, 50, 75
4, 183600, Note_on_c, 0, 57, 75
4, 183840, Note_on_c, 0, 57, 0
4, 183840, Note_on_c, 0, 50, 0
4, 183840, Note_on_c, 0, 58, 75
4, 184080, Note_on_c, 0, 58, 0
4, 184080, Note_on_c, 0, 50, 75
4, 184080, Note_on_c, 0, 57, 75
4, 184320, Note_on_c, 0, 57, 0
4, 184320, Note_on_c, 0, 50, 0
4, 184320, Note_on_c, 0, 57, 75
4, 184560, Note_on_c, 0, 57, 0
4, 184560, Note_on_c, 0, 50, 75
4, 184800, Note_on_c, 0, 50, 0
4, 184800, Note_on_c, 0, 70, 75
4, 185040, Note_on_c, 0, 70, 0
4, 185040, Note_on_c, 0, 62, 75
4, 185040, Note_on_c, 0, 69, 75
4, 185280, Note_on_c, 0, 69, 0
4, 185280, Note_on_c, 0, 62, 0
4, 185280, Note_on_c, 0, 70, 62
4, 185520, Note_on_c, 0, 70, 0
4, 185520, Note_on_c, 0, 62, 62
4, 185520, Note_on_c, 0, 69, 62
4, 185760, Note_on_c, 0, 69, 0
4, 185760, Note_on_c, 0, 62, 0
4, 186240, Note_on_c, 0, 73, 62
4, 186287, Note_on_c, 0, 73, 0
4, 186480, Note_on_c, 0, 71, 62
4, 186527, Note_on_c, 0, 71, 0
4, 186720, Note_on_c, 0, 66, 62
4, 186767, Note_on_c, 0, 66, 0
4, 186960, Note_on_c, 0, 59, 62
4, 187007, Note_on_c, 0, 59, 0
4, 187680, Note_on_c, 0, 49, 62
4, 187727, Note_on_c, 0, 49, 0
4, 187920, Note_on_c, 0, 47, 62
4, 187967, Note_on_c, 0, 47, 0
4, 188160, Note_on_c, 0, 42, 62
4, 188207, Note_on_c, 0, 42, 0
4, 188400, Note_on_c, 0, 35, 62
4, 188447, Note_on_c, 0, 35, 0
4, 188880, Note_on_c, 0, 52, 62
4, 188880, Note_on_c, 0, 64, 62
4, 189360, Note_on_c, 0, 64, 0
4, 189360, Note_on_c, 0, 52, 0
4, 189360, Note_on_c, 0, 50, 62
4, 189360, Note_on_c, 0, 52, 62
4, 189360, Note_on_c, 0, 62, 62
4, 189840, Note_on_c, 0, 62, 0
4, 189840, Note_on_c, 0, 52, 0
4, 189840, Note_on_c, 0, 50, 0
4, 189840, Note_on_c, 0, 49, 62
4, 189840, Note_on_c, 0, 52, 62
4, 189840, Note_on_c, 0, 61, 62
4, 190320, Note_on_c, 0, 61, 0
4, 190320, Note_on_c, 0, 52, 0
4, 190320, Note_on_c, 0, 49, 0
4, 190320, Note_on_c, 0, 47, 62
4, 190320, Note_on_c, 0, 52, 62
4, 190320, Note_on_c, 0, 59, 62
4, 190560, Note_on_c, 0, 59, 0
4, 190560, Note_on_c, 0, 52, 0
4, 190560, Note_on_c, 0, 47, 0
4, 190560, Note_on_c, 0, 46, 75
4, 190560, Note_on_c, 0, 52, 75
4, 190560, Note_on_c, 0, 58, 75
4, 190800, Note_on_c, 0, 58, 0
4, 190800, Note_on_c, 0, 52, 0
4, 190800, Note_on_c, 0, 46, 0
4, 190800, Note_on_c, 0, 45, 75
4, 190800, Note_on_c, 0, 52, 75
4, 190800, Note_on_c, 0, 57, 75
4, 191040, Note_on_c, 0, 57, 0
4, 191040, Note_on_c, 0, 52, 0
4, 191040, Note_on_c, 0, 45, 0
4, 192000, Note_on_c, 0, 73, 62
4, 192047, Note_on_c, 0, 73, 0
4, 192240, Note_on_c, 0, 71, 62
4, 192287, Note_on_c, 0, 71, 0
4, 192480, Note_on_c, 0, 66, 62
4, 192527, Note_on_c, 0, 66, 0
4, 192720, Note_on_c, 0, 59, 62
4, 192767, Note_on_c, 0, 59, 0
4, 193440, Note_on_c, 0, 49, 62
4, 193487, Note_on_c, 0, 49, 0
4, 193680, Note_on_c, 0, 47, 62
4, 193727, Note_on_c, 0, 47, 0
4, 193920, Note_on_c, 0, 42, 62
4, 193967, Note_on_c, 0, 42, 0
4, 194160, Note_on_c, 0, 35, 62
4, 194207, Note_on_c, 0, 35, 0
4, 194640, Note_on_c, 0, 52, 62
4, 194640, Note_on_c, 0, 64, 62
4, 195120, Note_on_c, 0, 64, 0
4, 195120, Note_on_c, 0, 52, 0
4, 195120, Note_on_c, 0, 50, 62
4, 195120, Note_on_c, 0, 52, 62
4, 195120, Note_on_c, 0, 62, 62
4, 195600, Note_on_c, 0, 62, 0
4, 195600, Note_on_c, 0, 52, 0
4, 195600, Note_on_c, 0, 50, 0
4, 195600, Note_on_c, 0, 49, 62
4, 195600, Note_on_c, 0, 52, 62
4, 195600, Note_on_c, 0, 61, 62
4, 196080, Note_on_c, 0, 61, 0
4, 196080, Note_on_c, 0, 52, 0
4, 196080, Note_on_c, 0, 49, 0
4, 196080, Note_on_c, 0, 47, 62
4, 196080, Note_on_c, 0, 52, 62
4, 196080, Note_on_c, 0, 59, 62
4, 196320, Note_on_c, 0, 59, 0
4, 196320, Note_on_c, 0, 52, 0
4, 196320, Note_on_c, 0, 47, 0
4, 196320, Note_on_c, 0, 46, 62
4, 196320, Note_on_c, 0, 52, 62
4, 196320, Note_on_c, 0, 58, 62
4, 196560, Note_on_c, 0, 58, 0
4, 196560, Note_on_c, 0, 52, 0
4, 196560, Note_on_c, 0, 46, 0
4, 196560, Note_on_c, 0, 47, 75
4, 196560, Note_on_c, 0, 50, 75
4, 196560, Note_on_c, 0, 59, 75
4, 196800, Note_on_c, 0, 59, 0
4, 196800, Note_on_c, 0, 50, 0
4, 196800, Note_on_c, 0, 47, 0
4, 196800, Note_on_c, 0, 49, 75
4, 196800, Note_on_c, 0, 52, 75
4, 196800, Note_on_c, 0, 61, 75
4, 197280, Note_on_c, 0, 61, 0
4, 197280, Note_on_c, 0, 52, 0
4, 197280, Note_on_c, 0, 49, 0
4, 197280, Note_on_c, 0, 50, 75
4, 197280, Note_on_c, 0, 54, 75
4, 197280, Note_on_c, 0, 62, 75
4, 197760, Note_on_c, 0, 62, 0
4, 197760, Note_on_c, 0, 54, 0
4, 197760, Note_on_c, 0, 50, 0
4, 197760, Note_on_c, 0, 51, 75
4, 197760, Note_on_c, 0, 59, 75
4, 197760, Note_on_c, 0, 63, 75
4, 198000, Note_on_c, 0, 63, 0
4, 198000, Note_on_c, 0, 59, 0
4, 198000, Note_on_c, 0, 51, 0
4, 198000, Note_on_c, 0, 52, 75
4, 198000, Note_on_c, 0, 59, 75
4, 198000, Note_on_c, 0, 64, 75
4, 198240, Note_on_c, 0, 64, 0
4, 198240, Note_on_c, 0, 59, 0
4, 198240, Note_on_c, 0, 52, 0
4, 198240, Note_on_c, 0, 54, 75
4, 198240, Note_on_c, 0, 59, 75
4, 198240, Note_on_c, 0, 66, 75
4, 198720, Note_on_c, 0, 66, 0
4, 198720, Note_on_c, 0, 59, 0
4, 198720, Note_on_c, 0, 54, 0
4, 198720, Note_on_c, 0, 55, 75
4, 198720, Note_on_c, 0, 59, 75
4, 198720, Note_on_c, 0, 67, 75
4, 199200, Note_on_c, 0, 67, 0
4, 199200, Note_on_c, 0, 59, 0
4, 199200, Note_on_c, 0, 55, 0
4, 199200, Note_on_c, 0, 56, 75
4, 199200, Note_on_c, 0, 59, 75
4, 199200, Note_on_c, 0, 65, 75
4, 199440, Note_on_c, 0, 65, 0
4, 199440, Note_on_c, 0, 59, 0
4, 199440, Note_on_c, 0, 56, 0
4, 199440, Note_on_c, 0, 66, 114
4, 199560, Note_on_c, 0, 66, 0
4, 199560, Note_on_c, 0, 67, 88
4, 199680, Note_on_c, 0, 67, 0
4, 199680, Note_on_c, 0, 69, 88
4, 199800, Note_on_c, 0, 69, 0
4, 199800, Note_on_c, 0, 67, 88
4, 199920, Note_on_c, 0, 67, 0
4, 199920, Note_on_c, 0, 61, 114
4, 200040, Note_on_c, 0, 61, 0
4, 200040, Note_on_c, 0, 62, 88
4, 200160, Note_on_c, 0, 62, 0
4, 200160, Note_on_c, 0, 64, 88
4, 200280, Note_on_c, 0, 64, 0
4, 200280, Note_on_c, 0, 62, 88
4, 200400, Note_on_c, 0, 62, 0
4, 200400, Note_on_c, 0, 54, 114
4, 200520, Note_on_c, 0, 54, 0
4, 200520, Note_on_c, 0, 55, 88
4, 200640, Note_on_c, 0, 55, 0
4, 200640, Note_on_c, 0, 57, 88
4, 200760, Note_on_c, 0, 57, 0
4, 200760, Note_on_c, 0, 55, 88
4, 200880, Note_on_c, 0, 55, 0
4, 200880, Note_on_c, 0, 51, 114
4, 201000, Note_on_c, 0, 51, 0
4, 201000, Note_on_c, 0, 52, 88
4, 201120, Note_on_c, 0, 52, 0
4, 201120, Note_on_c, 0, 54, 88
4, 201240, Note_on_c, 0, 54, 0
4, 201240, Note_on_c, 0, 52, 88
4, 201360, Note_on_c, 0, 52, 0
4, 201360, Note_on_c, 0, 45, 88
4, 201600, Note_on_c, 0, 45, 0
4, 201600, Note_on_c, 0, 38, 88
4, 201600, Note_on_c, 0, 50, 88
4, 201840, Note_on_c, 0, 50, 0
4, 201840, Note_on_c, 0, 38, 0
4, 201840, Note_on_c, 0, 38, 62
4, 202080, Note_on_c, 0, 38, 0
4, 202080, Note_on_c, 0, 38, 62
4, 202320, Note_on_c, 0, 38, 0
4, 202320, Note_on_c, 0, 49, 62
4, 202800, Note_on_c, 0, 49, 0
4, 202800, Note_on_c, 0, 47, 62
4, 203280, Note_on_c, 0, 47, 0
4, 203280, Note_on_c, 0, 46, 62
4, 203760, Note_on_c, 0, 46, 0
4, 203760, Note_on_c, 0, 45, 62
4, 204480, Note_on_c, 0, 45, 0
4, 205200, Note_on_c, 0, 49, 62
4, 205680, Note_on_c, 0, 49, 0
4, 205680, Note_on_c, 0, 47, 62
4, 206160, Note_on_c, 0, 47, 0
4, 206160, Note_on_c, 0, 46, 62
4, 206640, Note_on_c, 0, 46, 0
4, 206640, Note_on_c, 0, 45, 62
4, 207360, Note_on_c, 0, 45, 0
4, 208080, Note_on_c, 0, 50, 62
4, 208560, Note_on_c, 0, 50, 0
4, 208560, Note_on_c, 0, 47, 62
4, 209040, Note_on_c, 0, 47, 0
4, 209040, Note_on_c, 0, 46, 62
4, 209520, Note_on_c, 0, 46, 0
4, 209520, Note_on_c, 0, 45, 62
4, 210480, Note_on_c, 0, 45, 0
4, 210480, Note_on_c, 0, 47, 62
4, 210720, Note_on_c, 0, 47, 0
4, 210720, Note_on_c, 0, 49, 62
4, 210960, Note_on_c, 0, 49, 0
4, 210960, Note_on_c, 0, 50, 62
4, 211440, Note_on_c, 0, 50, 0
4, 211440, Note_on_c, 0, 45, 62
4, 211920, Note_on_c, 0, 45, 0
4, 211920, Note_on_c, 0, 47, 62
4, 212160, Note_on_c, 0, 47, 0
4, 212160, Note_on_c, 0, 49, 62
4, 212400, Note_on_c, 0, 49, 0
4, 212400, Note_on_c, 0, 50, 62
4, 212880, Note_on_c, 0, 50, 0
4, 212880, Note_on_c, 0, 45, 62
4, 213360, Note_on_c, 0, 45, 0
4, 213360, Note_on_c, 0, 47, 62
4, 213600, Note_on_c, 0, 47, 0
4, 213600, Note_on_c, 0, 49, 62
4, 213840, Note_on_c, 0, 49, 0
4, 213840, Note_on_c, 0, 50, 62
4, 214320, Note_on_c, 0, 50, 0
4, 214320, Note_on_c, 0, 45, 62
4, 214800, Note_on_c, 0, 45, 0
4, 214800, Note_on_c, 0, 47, 62
4, 215040, Note_on_c, 0, 47, 0
4, 215040, Note_on_c, 0, 49, 62
4, 215280, Note_on_c, 0, 49, 0
4, 215280, Note_on_c, 0, 38, 62
4, 215280, Note_on_c, 0, 45, 62
4, 215280, Note_on_c, 0, 50, 62
4, 215520, Note_on_c, 0, 50, 0
4, 215520, Note_on_c, 0, 45, 0
4, 215520, Note_on_c, 0, 38, 0
4, 215520, Note_on_c, 0, 32, 62
4, 215640, Note_on_c, 0, 32, 0
4, 215640, Note_on_c, 0, 33, 62
4, 215760, Note_on_c, 0, 33, 0
4, 215760, Note_on_c, 0, 35, 62
4, 215880, Note_on_c, 0, 35, 0
4, 215880, Note_on_c, 0, 37, 62
4, 216000, Note_on_c, 0, 37, 0
4, 216000, Note_on_c, 0, 38, 62
4, 216120, Note_on_c, 0, 38, 0
4, 216120, Note_on_c, 0, 37, 62
4, 216240, Note_on_c, 0, 37, 0
4, 216240, Note_on_c, 0, 38, 62
4, 216360, Note_on_c, 0, 38, 0
4, 216360, Note_on_c, 0, 40, 62
4, 216480, Note_on_c, 0, 40, 0
4, 216480, Note_on_c, 0, 42, 62
4, 216600, Note_on_c, 0, 42, 0
4, 216600, Note_on_c, 0, 43, 62
4, 216720, Note_on_c, 0, 43, 0
4, 216720, Note_on_c, 0, 44, 62
4, 216840, Note_on_c, 0, 44, 0
4, 216840, Note_on_c, 0, 45, 62
4, 216960, Note_on_c, 0, 45, 0
4, 216960, Note_on_c, 0, 44, 62
4, 217080, Note_on_c, 0, 44, 0
4, 217080, Note_on_c, 0, 45, 62
4, 217200, Note_on_c, 0, 45, 0
4, 217200, Note_on_c, 0, 47, 62
4, 217320, Note_on_c, 0, 47, 0
4, 217320, Note_on_c, 0, 49, 62
4, 217440, Note_on_c, 0, 49, 0
4, 217440, Note_on_c, 0, 50, 75
4, 217560, Note_on_c, 0, 50, 0
4, 217560, Note_on_c, 0, 49, 75
4, 217680, Note_on_c, 0, 49, 0
4, 217680, Note_on_c, 0, 50, 75
4, 217800, Note_on_c, 0, 50, 0
4, 217800, Note_on_c, 0, 52, 75
4, 217920, Note_on_c, 0, 52, 0
4, 217920, Note_on_c, 0, 54, 75
4, 218040, Note_on_c, 0, 54, 0
4, 218040, Note_on_c, 0, 55, 75
4, 218160, Note_on_c, 0, 55, 0
4, 218160, Note_on_c, 0, 56, 75
4, 218280, Note_on_c, 0, 56, 0
4, 218280, Note_on_c, 0, 57, 75
4, 218400, Note_on_c, 0, 57, 0
4, 218400, Note_on_c, 0, 56, 75
4, 218520, Note_on_c, 0, 56, 0
4, 218520, Note_on_c, 0, 57, 75
4, 218640, Note_on_c, 0, 57, 0
4, 218640, Note_on_c, 0, 59, 75
4, 218760, Note_on_c, 0, 59, 0
4, 218760, Note_on_c, 0, 61, 75
4, 218880, Note_on_c, 0, 61, 0
4, 218880, Note_on_c, 0, 62, 75
4, 219000, Note_on_c, 0, 62, 0
4, 219000, Note_on_c, 0, 61, 75
4, 219120, Note_on_c, 0, 61, 0
4, 219120, Note_on_c, 0, 62, 75
4, 219240, Note_on_c, 0, 62, 0
4, 219240, Note_on_c, 0, 64, 75
4, 219360, Note_on_c, 0, 64, 0
4, 219360, Note_on_c, 0, 66, 75
4, 219480, Note_on_c, 0, 66, 0
4, 219480, Note_on_c, 0, 67, 75
4, 219600, Note_on_c, 0, 67, 0
4, 219600, Note_on_c, 0, 68, 88
4, 219720, Note_on_c, 0, 68, 0
4, 219720, Note_on_c, 0, 69, 88
4, 219840, Note_on_c, 0, 69, 0
4, 219840, Note_on_c, 0, 62, 88
4, 219960, Note_on_c, 0, 62, 0
4, 219960, Note_on_c, 0, 64, 88
4, 220080, Note_on_c, 0, 64, 0
4, 220080, Note_on_c, 0, 66, 88
4, 220200, Note_on_c, 0, 66, 0
4, 220200, Note_on_c, 0, 67, 88
4, 220320, Note_on_c, 0, 67, 0
4, 220320, Note_on_c, 0, 69, 88
4, 220440, Note_on_c, 0, 69, 0
4, 220440, Note_on_c, 0, 68, 88
4, 220560, Note_on_c, 0, 68, 0
4, 220560, Note_on_c, 0, 69, 88
4, 220680, Note_on_c, 0, 69, 0
4, 220680, Note_on_c, 0, 70, 88
4, 220800, Note_on_c, 0, 70, 0
4, 220800, Note_on_c, 0, 71, 88
4, 220920, Note_on_c, 0, 71, 0
4, 220920, Note_on_c, 0, 72, 88
4, 221040, Note_on_c, 0, 72, 0
4, 221040, Note_on_c, 0, 73, 88
4, 221160, Note_on_c, 0, 73, 0
4, 221160, Note_on_c, 0, 74, 88
4, 221280, Note_on_c, 0, 74, 0
4, 221280, Note_on_c, 0, 62, 88
4, 221400, Note_on_c, 0, 62, 0
4, 221400, Note_on_c, 0, 64, 88
4, 221520, Note_on_c, 0, 64, 0
4, 221520, Note_on_c, 0, 66, 88
4, 221640, Note_on_c, 0, 66, 0
4, 221640, Note_on_c, 0, 67, 88
4, 221760, Note_on_c, 0, 67, 0
4, 221760, Note_on_c, 0, 69, 88
4, 221880, Note_on_c, 0, 69, 0
4, 221880, Note_on_c, 0, 68, 88
4, 222000, Note_on_c, 0, 68, 0
4, 222000, Note_on_c, 0, 69, 88
4, 222120, Note_on_c, 0, 69, 0
4, 222120, Note_on_c, 0, 70, 88
4, 222240, Note_on_c, 0, 70, 0
4, 222240, Note_on_c, 0, 71, 88
4, 222360, Note_on_c, 0, 71, 0
4, 222360, Note_on_c, 0, 72, 88
4, 222480, Note_on_c, 0, 72, 0
4, 222480, Note_on_c, 0, 73, 101
4, 222600, Note_on_c, 0, 73, 0
4, 222600, Note_on_c, 0, 74, 101
4, 222720, Note_on_c, 0, 74, 0
4, 222720, Note_on_c, 0, 68, 101
4, 222840, Note_on_c, 0, 68, 0
4, 222840, Note_on_c, 0, 69, 101
4, 222960, Note_on_c, 0, 69, 0
4, 222960, Note_on_c, 0, 65, 101
4, 223080, Note_on_c, 0, 65, 0
4, 223080, Note_on_c, 0, 66, 101
4, 223200, Note_on_c, 0, 66, 0
4, 223200, Note_on_c, 0, 61, 101
4, 223320, Note_on_c, 0, 61, 0
4, 223320, Note_on_c, 0, 62, 101
4, 223440, Note_on_c, 0, 62, 0
4, 223440, Note_on_c, 0, 56, 101
4, 223560, Note_on_c, 0, 56, 0
4, 223560, Note_on_c, 0, 57, 101
4, 223680, Note_on_c, 0, 57, 0
4, 223680, Note_on_c, 0, 53, 101
4, 223800, Note_on_c, 0, 53, 0
4, 223800, Note_on_c, 0, 54, 101
4, 223920, Note_on_c, 0, 54, 0
4, 223920, Note_on_c, 0, 49, 101
4, 224040, Note_on_c, 0, 49, 0
4, 224040, Note_on_c, 0, 50, 101
4, 224160, Note_on_c, 0, 50, 0
4, 224160, Note_on_c, 0, 44, 101
4, 224280, Note_on_c, 0, 44, 0
4, 224280, Note_on_c, 0, 45, 101
4, 224400, Note_on_c, 0, 45, 0
4, 224400, Note_on_c, 0, 41, 101
4, 224520, Note_on_c, 0, 41, 0
4, 224520, Note_on_c, 0, 42, 101
4, 224640, Note_on_c, 0, 42, 0
4, 224640, Note_on_c, 0, 38, 101
4, 224880, Note_on_c, 0, 38, 0
4, 224880, Note_on_c, 0, 50, 101
4, 225000, Note_on_c, 0, 50, 0
4, 225000, Note_on_c, 0, 52, 101
4, 225120, Note_on_c, 0, 52, 0
4, 225120, Note_on_c, 0, 54, 101
4, 225240, Note_on_c, 0, 54, 0
4, 225240, Note_on_c, 0, 55, 101
4, 225360, Note_on_c, 0, 55, 0
4, 225360, Note_on_c, 0, 45, 101
4, 225360, Note_on_c, 0, 50, 101
4, 225360, Note_on_c, 0, 54, 101
4, 225360, Note_on_c, 0, 57, 101
4, 225840, Note_on_c, 0, 57, 0
4, 225840, Note_on_c, 0, 45, 0
4, 225840, Note_on_c, 0, 50, 0
4, 225840, Note_on_c, 0, 54, 0
4, 225840, Note_on_c, 0, 47, 101
4, 225840, Note_on_c, 0, 50, 101
4, 225840, Note_on_c, 0, 54, 101
4, 225840, Note_on_c, 0, 59, 101
4, 226320, Note_on_c, 0, 59, 0
4, 226320, Note_on_c, 0, 47, 0
4, 226320, Note_on_c, 0, 50, 0
4, 226320, Note_on_c, 0, 54, 0
4, 226320, Note_on_c, 0, 52, 101
4, 226320, Note_on_c, 0, 64, 101
4, 226680, Note_on_c, 0, 64, 0
4, 226680, Note_on_c, 0, 52, 0
4, 226680, Note_on_c, 0, 50, 101
4, 226680, Note_on_c, 0, 62, 101
4, 226800, Note_on_c, 0, 62, 0
4, 226800, Note_on_c, 0, 50, 0
4, 226800, Note_on_c, 0, 54, 101
4, 226800, Note_on_c, 0, 66, 101
4, 227040, Note_on_c, 0, 66, 0
4, 227040, Note_on_c, 0, 54, 0
4, 227040, Note_on_c, 0, 57, 101
4, 227040, Note_on_c, 0, 69, 101
4, 227280, Note_on_c, 0, 69, 0
4, 227280, Note_on_c, 0, 57, 0
4, 227280, Note_on_c, 0, 57, 101
4, 227280, Note_on_c, 0, 69, 101
4, 227520, Note_on_c, 0, 69, 0
4, 227520, Note_on_c, 0, 57, 0
4, 227520, Note_on_c, 0, 38, 127
4, 227520, Note_on_c, 0, 45, 127
4, 227520, Note_on_c, 0, 50, 127
4, 228000, Note_on_c, 0, 50, 0
4, 228000, Note_on_c, 0, 45, 0
4, 228000, Note_on_c, 0, 38, 0
4, 228000, End_track
5, 0, Start_track
5, 0, Title_t, "Grand Piano"
5, 0, Program_c, 0, 0
5, 0, Control_c, 0, 7, 115
5, 0, Control_c, 0, 10, 47
5, 76320, Note_on_c, 0, 51, 75
5, 76320, Note_on_c, 0, 58, 75
5, 76800, Note_on_c, 0, 58, 0
5, 76800, Note_on_c, 0, 51, 0
5, 77760, Note_on_c, 0, 51, 75
5, 77760, Note_on_c, 0, 58, 75
5, 78240, Note_on_c, 0, 58, 0
5, 78240, Note_on_c, 0, 51, 0
5, 81360, Note_on_c, 0, 51, 62
5, 81840, Note_on_c, 0, 51, 0
5, 84240, Note_on_c, 0, 51, 62
5, 84240, Note_on_c, 0, 62, 62
5, 84480, Note_on_c, 0, 62, 0
5, 84480, Note_on_c, 0, 51, 0
5, 87120, Note_on_c, 0, 51, 62
5, 87360, Note_on_c, 0, 51, 0
5, 88560, Note_on_c, 0, 51, 75
5, 88800, Note_on_c, 0, 51, 0
5, 90000, Note_on_c, 0, 51, 75
5, 90240, Note_on_c, 0, 51, 0
5, 90720, Note_on_c, 0, 51, 75
5, 90960, Note_on_c, 0, 51, 0
5, 107190, Note_on_c, 0, 39, 75
5, 107220, Note_on_c, 0, 46, 75
5, 107250, Note_on_c, 0, 51, 75
5, 107280, Note_on_c, 0, 55, 75
5, 107760, Note_on_c, 0, 55, 0
5, 107760, Note_on_c, 0, 39, 0
5, 107760, Note_on_c, 0, 46, 0
5, 107760, Note_on_c, 0, 51, 0
5, 110070, Note_on_c, 0, 39, 75
5, 110100, Note_on_c, 0, 46, 75
5, 110130, Note_on_c, 0, 51, 75
5, 110160, Note_on_c, 0, 55, 75
5, 110640, Note_on_c, 0, 55, 0
5, 110640, Note_on_c, 0, 39, 0
5, 110640, Note_on_c, 0, 46, 0
5, 110640, Note_on_c, 0, 51, 0
5, 112950, Note_on_c, 0, 39, 75
5, 112980, Note_on_c, 0, 46, 75
5, 113010, Note_on_c, 0, 51, 75
5, 113040, Note_on_c, 0, 55, 75
5, 113520, Note_on_c, 0, 55, 0
5, 113520, Note_on_c, 0, 39, 0
5, 113520, Note_on_c, 0, 46, 0
5, 113520, Note_on_c, 0, 51, 0
5, 202320, Note_on_c, 0, 38, 62
5, 202560, Note_on_c, 0, 38, 0
5, 202560, Note_on_c, 0, 38, 62
5, 202800, Note_on_c, 0, 38, 0
5, 202800, Note_on_c, 0, 38, 62
5, 203040, Note_on_c, 0, 38, 0
5, 203040, Note_on_c, 0, 38, 62
5, 203280, Note_on_c, 0, 38, 0
5, 203280, Note_on_c, 0, 38, 62
5, 203520, Note_on_c, 0, 38, 0
5, 203520, Note_on_c, 0, 38, 62
5, 203760, Note_on_c, 0, 38, 0
5, 203760, Note_on_c, 0, 38, 62
5, 204000, Note_on_c, 0, 38, 0
5, 204000, Note_on_c, 0, 38, 62
5, 204240, Note_on_c, 0, 38, 0
5, 204240, Note_on_c, 0, 38, 62
5, 204480, Note_on_c, 0, 38, 0
5, 204480, Note_on_c, 0, 38, 62
5, 204720, Note_on_c, 0, 38, 0
5, 204720, Note_on_c, 0, 38, 62
5, 204960, Note_on_c, 0, 38, 0
5, 204960, Note_on_c, 0, 38, 62
5, 205200, Note_on_c, 0, 38, 0
5, 205200, Note_on_c, 0, 38, 62
5, 205440, Note_on_c, 0, 38, 0
5, 205440, Note_on_c, 0, 38, 62
5, 205680, Note_on_c, 0, 38, 0
5, 205680, Note_on_c, 0, 38, 62
5, 205920, Note_on_c, 0, 38, 0
5, 205920, Note_on_c, 0, 38, 62
5, 206160, Note_on_c, 0, 38, 0
5, 206160, Note_on_c, 0, 38, 62
5, 206400, Note_on_c, 0, 38, 0
5, 206400, Note_on_c, 0, 38, 62
5, 206640, Note_on_c, 0, 38, 0
5, 206640, Note_on_c, 0, 38, 62
5, 206880, Note_on_c, 0, 38, 0
5, 206880, Note_on_c, 0, 38, 62
5, 207120, Note_on_c, 0, 38, 0
5, 207120, Note_on_c, 0, 38, 62
5, 207360, Note_on_c, 0, 38, 0
5, 207360, Note_on_c, 0, 38, 62
5, 207600, Note_on_c, 0, 38, 0
5, 207600, Note_on_c, 0, 38, 62
5, 207840, Note_on_c, 0, 38, 0
5, 207840, Note_on_c, 0, 38, 62
5, 208080, Note_on_c, 0, 38, 0
5, 208080, Note_on_c, 0, 38, 62
5, 208320, Note_on_c, 0, 38, 0
5, 208320, Note_on_c, 0, 38, 62
5, 208560, Note_on_c, 0, 38, 0
5, 208560, Note_on_c, 0, 38, 62
5, 208800, Note_on_c, 0, 38, 0
5, 208800, Note_on_c, 0, 38, 62
5, 209040, Note_on_c, 0, 38, 0
5, 209040, Note_on_c, 0, 38, 62
5, 209280, Note_on_c, 0, 38, 0
5, 209280, Note_on_c, 0, 38, 62
5, 209520, Note_on_c, 0, 38, 0
5, 209520, Note_on_c, 0, 38, 62
5, 209760, Note_on_c, 0, 38, 0
5, 209760, Note_on_c, 0, 38, 62
5, 210000, Note_on_c, 0, 38, 0
5, 210000, Note_on_c, 0, 38, 62
5, 210240, Note_on_c, 0, 38, 0
5, 210240, Note_on_c, 0, 38, 62
5, 210480, Note_on_c, 0, 38, 0
5, 210480, Note_on_c, 0, 38, 62
5, 210720, Note_on_c, 0, 38, 0
5, 210720, Note_on_c, 0, 38, 62
5, 210960, Note_on_c, 0, 38, 0
5, 210960, Note_on_c, 0, 38, 62
5, 211200, Note_on_c, 0, 38, 0
5, 211200, Note_on_c, 0, 38, 62
5, 211440, Note_on_c, 0, 38, 0
5, 211440, Note_on_c, 0, 38, 62
5, 211680, Note_on_c, 0, 38, 0
5, 211680, Note_on_c, 0, 38, 62
5, 211920, Note_on_c, 0, 38, 0
5, 211920, Note_on_c, 0, 38, 62
5, 212160, Note_on_c, 0, 38, 0
5, 212160, Note_on_c, 0, 38, 62
5, 212400, Note_on_c, 0, 38, 0
5, 212400, Note_on_c, 0, 38, 62
5, 212640, Note_on_c, 0, 38, 0
5, 212640, Note_on_c, 0, 38, 62
5, 212880, Note_on_c, 0, 38, 0
5, 212880, Note_on_c, 0, 38, 62
5, 213120, Note_on_c, 0, 38, 0
5, 213120, Note_on_c, 0, 38, 62
5, 213360, Note_on_c, 0, 38, 0
5, 213360, Note_on_c, 0, 38, 62
5, 213600, Note_on_c, 0, 38, 0
5, 213600, Note_on_c, 0, 38, 62
5, 213840, Note_on_c, 0, 38, 0
5, 213840, Note_on_c, 0, 38, 62
5, 214080, Note_on_c, 0, 38, 0
5, 214080, Note_on_c, 0, 38, 62
5, 214320, Note_on_c, 0, 38, 0
5, 214320, Note_on_c, 0, 38, 62
5, 214560, Note_on_c, 0, 38, 0
5, 214560, Note_on_c, 0, 38, 62
5, 214800, Note_on_c, 0, 38, 0
5, 214800, Note_on_c, 0, 38, 62
5, 215040, Note_on_c, 0, 38, 0
5, 215040, Note_on_c, 0, 38, 62
5, 215280, Note_on_c, 0, 38, 0
5, 215280, End_track
0, 0, End_of_file
