0, 0, Header, 1, 5, 480
1, 0, Start_track
1, 0, Title_t, "tchaikovsky six pieces on one theme op21 no3 impromptu"
1, 0, Copyright_t, "Adaptation for Disklavier pianos, by: Robert C. Kuhmann (c) 2012."
1, 0, Text_t, "Seq. (c) by: Segundo G. Yogore,  2007\012"
1, 0, Time_signature, 4, 2, 24, 8
1, 0, Key_signature, 4, "major"
1, 0, Tempo, 400000
1, 3840, Time_signature, 2, 2, 24, 8
1, 4800, Time_signature, 4, 2, 24, 8
1, 10560, Time_signature, 6, 2, 24, 8
1, 13440, Time_signature, 4, 2, 24, 8
1, 19200, Time_signature, 2, 2, 24, 8
1, 19440, Tempo, 416667
1, 19680, Tempo, 434783
1, 19920, Tempo, 454545
1, 20160, Time_signature, 6, 2, 24, 8
1, 20160, Tempo, 483871
1, 20400, Tempo, 508475
1, 20640, Tempo, 535714
1, 20880, Tempo, 566038
1, 21120, Tempo, 612245
1, 23040, Time_signature, 4, 2, 24, 8
1, 24960, Tempo, 461538
1, 36480, Tempo, 461538
1, 48000, Time_signature, 6, 2, 24, 8
1, 50880, Time_signature, 4, 2, 24, 8
1, 50880, Tempo, 400000
1, 54720, Time_signature, 2, 2, 24, 8
1, 55680, Time_signature, 4, 2, 24, 8
1, 62400, Tempo, 600000
1, 67200, Tempo, 400000
1, 78960, Tempo, 416667
1, 79200, Tempo, 434783
1, 79440, Tempo, 454545
1, 79680, Tempo, 483871
1, 79920, Tempo, 508475
1, 80160, Tempo, 535714
1, 80400, Tempo, 566038
1, 80640, Tempo, 612245
1, 82560, Time_signature, 10, 2, 24, 8
1, 82560, End_track
2, 0, Start_track
2, 0, Title_t, "Grand Piano"
2, 0, Program_c, 0, 0
2, 0, Control_c, 0, 7, 115
2, 0, Control_c, 0, 10, 86
2, 159, Control_c, 0, 64, 127
2, 159, Note_on_c, 0, 68, 75
2, 320, Note_on_c, 0, 68, 0
2, 320, Note_on_c, 0, 69, 75
2, 639, Note_on_c, 0, 69, 0
2, 639, Note_on_c, 0, 68, 75
2, 800, Note_on_c, 0, 68, 0
2, 800, Note_on_c, 0, 67, 75
2, 1119, Note_on_c, 0, 67, 0
2, 1119, Note_on_c, 0, 68, 75
2, 1280, Note_on_c, 0, 68, 0
2, 1280, Note_on_c, 0, 73, 75
2, 1599, Note_on_c, 0, 73, 0
2, 1599, Note_on_c, 0, 68, 75
2, 1760, Note_on_c, 0, 68, 0
2, 1760, Note_on_c, 0, 67, 75
2, 1920, Control_c, 0, 64, 0
2, 2079, Note_on_c, 0, 67, 0
2, 2079, Control_c, 0, 64, 127
2, 2079, Note_on_c, 0, 68, 75
2, 2240, Note_on_c, 0, 68, 0
2, 2240, Note_on_c, 0, 66, 75
2, 2559, Note_on_c, 0, 66, 0
2, 2559, Note_on_c, 0, 64, 75
2, 2720, Note_on_c, 0, 64, 0
2, 2720, Note_on_c, 0, 63, 75
2, 3039, Note_on_c, 0, 63, 0
2, 3039, Note_on_c, 0, 61, 75
2, 3200, Note_on_c, 0, 61, 0
2, 3200, Note_on_c, 0, 69, 75
2, 3519, Note_on_c, 0, 69, 0
2, 3519, Note_on_c, 0, 60, 75
2, 3680, Note_on_c, 0, 60, 0
2, 3680, Note_on_c, 0, 68, 75
2, 3840, Control_c, 0, 64, 0
2, 4800, Note_on_c, 0, 68, 0
2, 4959, Control_c, 0, 64, 127
2, 4959, Note_on_c, 0, 59, 62
2, 5120, Note_on_c, 0, 59, 0
2, 5120, Note_on_c, 0, 60, 62
2, 5439, Note_on_c, 0, 60, 0
2, 5439, Note_on_c, 0, 68, 62
2, 5600, Note_on_c, 0, 68, 0
2, 5600, Note_on_c, 0, 61, 62
2, 5919, Note_on_c, 0, 61, 0
2, 5919, Note_on_c, 0, 64, 75
2, 6080, Note_on_c, 0, 64, 0
2, 6080, Note_on_c, 0, 65, 75
2, 6399, Note_on_c, 0, 65, 0
2, 6399, Note_on_c, 0, 73, 75
2, 6560, Note_on_c, 0, 73, 0
2, 6560, Control_c, 0, 64, 0
2, 6560, Note_on_c, 0, 66, 75
2, 6720, Note_on_c, 0, 66, 0
2, 6879, Control_c, 0, 64, 127
2, 6879, Note_on_c, 0, 76, 88
2, 7040, Note_on_c, 0, 76, 0
2, 7040, Note_on_c, 0, 75, 88
2, 7359, Note_on_c, 0, 75, 0
2, 7359, Note_on_c, 0, 73, 88
2, 7520, Note_on_c, 0, 73, 0
2, 7520, Note_on_c, 0, 71, 88
2, 7839, Note_on_c, 0, 71, 0
2, 7839, Note_on_c, 0, 69, 88
2, 8000, Note_on_c, 0, 69, 0
2, 8000, Note_on_c, 0, 77, 88
2, 8400, Note_on_c, 0, 77, 0
2, 8400, Control_c, 0, 64, 0
2, 8400, Note_on_c, 0, 78, 88
2, 8640, Note_on_c, 0, 78, 0
2, 8799, Control_c, 0, 64, 127
2, 8799, Note_on_c, 0, 76, 88
2, 8960, Note_on_c, 0, 76, 0
2, 8960, Note_on_c, 0, 75, 88
2, 9279, Note_on_c, 0, 75, 0
2, 9279, Note_on_c, 0, 73, 88
2, 9440, Note_on_c, 0, 73, 0
2, 9440, Note_on_c, 0, 71, 88
2, 9759, Note_on_c, 0, 71, 0
2, 9759, Note_on_c, 0, 69, 88
2, 9920, Note_on_c, 0, 69, 0
2, 9920, Note_on_c, 0, 77, 88
2, 10320, Note_on_c, 0, 77, 0
2, 10320, Control_c, 0, 64, 0
2, 10320, Note_on_c, 0, 78, 88
2, 11040, Note_on_c, 0, 78, 0
2, 11040, Note_on_c, 0, 77, 114
2, 11520, Note_on_c, 0, 77, 0
2, 11520, Note_on_c, 0, 78, 101
2, 12000, Note_on_c, 0, 78, 0
2, 12000, Note_on_c, 0, 80, 101
2, 12480, Note_on_c, 0, 80, 0
2, 12480, Note_on_c, 0, 83, 88
2, 12960, Note_on_c, 0, 83, 0
2, 12960, Note_on_c, 0, 81, 88
2, 13440, Note_on_c, 0, 81, 0
2, 13599, Control_c, 0, 64, 127
2, 13599, Note_on_c, 0, 80, 75
2, 13760, Note_on_c, 0, 80, 0
2, 13760, Note_on_c, 0, 81, 75
2, 14079, Note_on_c, 0, 81, 0
2, 14079, Note_on_c, 0, 72, 75
2, 14240, Note_on_c, 0, 72, 0
2, 14240, Note_on_c, 0, 76, 75
2, 14559, Note_on_c, 0, 76, 0
2, 14559, Note_on_c, 0, 75, 75
2, 14720, Note_on_c, 0, 75, 0
2, 14720, Note_on_c, 0, 67, 75
2, 15039, Note_on_c, 0, 67, 0
2, 15039, Note_on_c, 0, 73, 75
2, 15200, Note_on_c, 0, 73, 0
2, 15200, Control_c, 0, 64, 0
2, 15200, Note_on_c, 0, 68, 75
2, 15360, Note_on_c, 0, 68, 0
2, 15519, Control_c, 0, 64, 127
2, 15519, Note_on_c, 0, 80, 75
2, 15680, Note_on_c, 0, 80, 0
2, 15680, Note_on_c, 0, 81, 75
2, 15999, Note_on_c, 0, 81, 0
2, 15999, Note_on_c, 0, 72, 75
2, 16160, Note_on_c, 0, 72, 0
2, 16160, Note_on_c, 0, 76, 75
2, 16479, Note_on_c, 0, 76, 0
2, 16479, Note_on_c, 0, 75, 75
2, 16640, Note_on_c, 0, 75, 0
2, 16640, Note_on_c, 0, 67, 75
2, 16959, Note_on_c, 0, 67, 0
2, 16959, Note_on_c, 0, 73, 75
2, 17120, Note_on_c, 0, 73, 0
2, 17120, Control_c, 0, 64, 0
2, 17120, Note_on_c, 0, 68, 75
2, 17280, Note_on_c, 0, 68, 0
2, 17439, Control_c, 0, 64, 127
2, 17439, Note_on_c, 0, 71, 75
2, 17600, Note_on_c, 0, 71, 0
2, 17600, Note_on_c, 0, 69, 75
2, 17919, Note_on_c, 0, 69, 0
2, 17919, Note_on_c, 0, 68, 75
2, 18080, Note_on_c, 0, 68, 0
2, 18080, Note_on_c, 0, 66, 75
2, 18399, Note_on_c, 0, 66, 0
2, 18399, Note_on_c, 0, 64, 75
2, 18560, Note_on_c, 0, 64, 0
2, 18560, Note_on_c, 0, 63, 75
2, 18879, Note_on_c, 0, 63, 0
2, 18879, Note_on_c, 0, 66, 75
2, 19040, Note_on_c, 0, 66, 0
2, 19040, Note_on_c, 0, 64, 75
2, 19200, Control_c, 0, 64, 0
2, 20160, Note_on_c, 0, 64, 0
2, 20319, Control_c, 0, 64, 127
2, 20319, Note_on_c, 0, 67, 75
2, 20480, Note_on_c, 0, 67, 0
2, 20480, Note_on_c, 0, 68, 75
2, 20799, Note_on_c, 0, 68, 0
2, 20799, Note_on_c, 0, 69, 75
2, 20960, Note_on_c, 0, 69, 0
2, 20960, Note_on_c, 0, 61, 75
2, 21440, Note_on_c, 0, 61, 0
2, 21440, Note_on_c, 0, 60, 62
2, 21759, Note_on_c, 0, 60, 0
2, 21759, Note_on_c, 0, 61, 62
2, 22080, Note_on_c, 0, 61, 0
2, 22080, Note_on_c, 0, 68, 62
2, 22400, Note_on_c, 0, 68, 0
2, 22400, Note_on_c, 0, 63, 62
2, 22719, Note_on_c, 0, 63, 0
2, 22719, Note_on_c, 0, 68, 62
2, 24480, Note_on_c, 0, 68, 0
2, 24480, Control_c, 0, 64, 0
2, 24960, Note_on_c, 0, 70, 62
2, 25320, Note_on_c, 0, 70, 0
2, 25320, Note_on_c, 0, 71, 62
2, 25440, Note_on_c, 0, 71, 0
2, 25440, Note_on_c, 0, 64, 62
2, 25680, Note_on_c, 0, 64, 0
2, 25680, Note_on_c, 0, 66, 88
2, 25920, Note_on_c, 0, 66, 0
2, 25920, Note_on_c, 0, 68, 62
2, 26160, Note_on_c, 0, 68, 0
2, 26160, Note_on_c, 0, 66, 88
2, 26640, Note_on_c, 0, 66, 0
2, 26640, Note_on_c, 0, 64, 62
2, 26880, Note_on_c, 0, 64, 0
2, 26880, Note_on_c, 0, 70, 62
2, 27240, Note_on_c, 0, 70, 0
2, 27240, Note_on_c, 0, 71, 62
2, 27360, Note_on_c, 0, 71, 0
2, 27360, Note_on_c, 0, 64, 62
2, 27600, Note_on_c, 0, 64, 0
2, 27600, Note_on_c, 0, 66, 88
2, 27840, Note_on_c, 0, 66, 0
2, 27840, Note_on_c, 0, 68, 75
2, 28080, Note_on_c, 0, 68, 0
2, 28080, Note_on_c, 0, 66, 101
2, 28320, Note_on_c, 0, 66, 0
2, 28320, Note_on_c, 0, 64, 75
2, 28560, Note_on_c, 0, 64, 0
2, 28560, Note_on_c, 0, 69, 101
2, 28800, Note_on_c, 0, 69, 0
2, 28800, Note_on_c, 0, 68, 88
2, 29040, Note_on_c, 0, 68, 0
2, 29040, Note_on_c, 0, 76, 114
2, 29280, Note_on_c, 0, 76, 0
2, 29280, Note_on_c, 0, 75, 88
2, 29640, Note_on_c, 0, 75, 0
2, 29640, Note_on_c, 0, 76, 88
2, 29760, Note_on_c, 0, 76, 0
2, 29760, Note_on_c, 0, 73, 114
2, 30000, Note_on_c, 0, 73, 0
2, 30000, Note_on_c, 0, 73, 88
2, 30240, Note_on_c, 0, 73, 0
2, 30240, Note_on_c, 0, 72, 88
2, 30480, Note_on_c, 0, 72, 0
2, 30480, Note_on_c, 0, 75, 114
2, 30720, Note_on_c, 0, 75, 0
2, 30720, Note_on_c, 0, 73, 88
2, 30960, Note_on_c, 0, 73, 0
2, 30960, Control_c, 0, 64, 127
2, 30960, Note_on_c, 0, 76, 114
2, 31200, Note_on_c, 0, 76, 0
2, 31200, Note_on_c, 0, 75, 88
2, 31560, Note_on_c, 0, 75, 0
2, 31560, Note_on_c, 0, 76, 88
2, 31680, Note_on_c, 0, 76, 0
2, 31680, Control_c, 0, 64, 0
2, 31680, Note_on_c, 0, 73, 88
2, 31920, Note_on_c, 0, 73, 0
2, 31920, Note_on_c, 0, 73, 114
2, 32160, Note_on_c, 0, 73, 0
2, 32160, Note_on_c, 0, 72, 88
2, 32400, Note_on_c, 0, 72, 0
2, 32400, Note_on_c, 0, 75, 114
2, 32640, Note_on_c, 0, 75, 0
2, 32640, Note_on_c, 0, 73, 88
2, 32880, Note_on_c, 0, 73, 0
2, 32880, Control_c, 0, 64, 127
2, 32880, Note_on_c, 0, 73, 114
2, 33120, Note_on_c, 0, 73, 0
2, 33120, Note_on_c, 0, 71, 88
2, 33480, Note_on_c, 0, 71, 0
2, 33480, Note_on_c, 0, 69, 88
2, 33600, Note_on_c, 0, 69, 0
2, 33600, Note_on_c, 0, 68, 75
2, 33840, Note_on_c, 0, 68, 0
2, 33840, Note_on_c, 0, 66, 75
2, 34080, Note_on_c, 0, 66, 0
2, 34080, Control_c, 0, 64, 0
2, 34080, Note_on_c, 0, 64, 75
2, 34320, Note_on_c, 0, 64, 0
2, 34320, Control_c, 0, 64, 127
2, 34320, Note_on_c, 0, 73, 101
2, 34560, Note_on_c, 0, 73, 0
2, 34560, Note_on_c, 0, 71, 62
2, 34920, Note_on_c, 0, 71, 0
2, 34920, Note_on_c, 0, 69, 62
2, 35040, Note_on_c, 0, 69, 0
2, 35040, Note_on_c, 0, 68, 62
2, 35280, Note_on_c, 0, 68, 0
2, 35280, Control_c, 0, 64, 0
2, 35280, Note_on_c, 0, 66, 62
2, 35520, Note_on_c, 0, 66, 0
2, 35520, Note_on_c, 0, 64, 49
2, 35760, Note_on_c, 0, 64, 0
2, 35760, Note_on_c, 0, 66, 49
2, 36000, Note_on_c, 0, 66, 0
2, 36000, Note_on_c, 0, 68, 49
2, 36240, Note_on_c, 0, 68, 0
2, 36240, Note_on_c, 0, 69, 49
2, 36480, Note_on_c, 0, 69, 0
2, 36480, Note_on_c, 0, 70, 62
2, 36840, Note_on_c, 0, 70, 0
2, 36840, Note_on_c, 0, 71, 62
2, 36960, Note_on_c, 0, 71, 0
2, 36960, Note_on_c, 0, 64, 62
2, 37200, Note_on_c, 0, 64, 0
2, 37200, Note_on_c, 0, 66, 88
2, 37440, Note_on_c, 0, 66, 0
2, 37440, Note_on_c, 0, 68, 62
2, 37680, Note_on_c, 0, 68, 0
2, 37680, Note_on_c, 0, 66, 88
2, 38160, Note_on_c, 0, 66, 0
2, 38160, Note_on_c, 0, 64, 62
2, 38400, Note_on_c, 0, 64, 0
2, 38400, Note_on_c, 0, 70, 62
2, 38760, Note_on_c, 0, 70, 0
2, 38760, Note_on_c, 0, 71, 62
2, 38880, Note_on_c, 0, 71, 0
2, 38880, Note_on_c, 0, 64, 62
2, 39120, Note_on_c, 0, 64, 0
2, 39120, Note_on_c, 0, 66, 88
2, 39360, Note_on_c, 0, 66, 0
2, 39360, Note_on_c, 0, 68, 75
2, 39600, Note_on_c, 0, 68, 0
2, 39600, Note_on_c, 0, 66, 101
2, 39840, Note_on_c, 0, 66, 0
2, 39840, Note_on_c, 0, 64, 75
2, 40080, Note_on_c, 0, 64, 0
2, 40080, Note_on_c, 0, 69, 101
2, 40320, Note_on_c, 0, 69, 0
2, 40320, Note_on_c, 0, 68, 88
2, 40560, Note_on_c, 0, 68, 0
2, 40560, Note_on_c, 0, 76, 114
2, 40800, Note_on_c, 0, 76, 0
2, 40800, Note_on_c, 0, 75, 88
2, 41160, Note_on_c, 0, 75, 0
2, 41160, Note_on_c, 0, 76, 88
2, 41280, Note_on_c, 0, 76, 0
2, 41280, Note_on_c, 0, 73, 114
2, 41520, Note_on_c, 0, 73, 0
2, 41520, Note_on_c, 0, 73, 88
2, 41760, Note_on_c, 0, 73, 0
2, 41760, Note_on_c, 0, 72, 88
2, 42000, Note_on_c, 0, 72, 0
2, 42000, Note_on_c, 0, 75, 114
2, 42240, Note_on_c, 0, 75, 0
2, 42240, Note_on_c, 0, 73, 88
2, 42480, Note_on_c, 0, 73, 0
2, 42480, Control_c, 0, 64, 127
2, 42480, Note_on_c, 0, 76, 114
2, 42720, Note_on_c, 0, 76, 0
2, 42720, Note_on_c, 0, 75, 88
2, 43080, Note_on_c, 0, 75, 0
2, 43080, Note_on_c, 0, 76, 88
2, 43200, Note_on_c, 0, 76, 0
2, 43200, Control_c, 0, 64, 0
2, 43200, Note_on_c, 0, 73, 88
2, 43440, Note_on_c, 0, 73, 0
2, 43440, Note_on_c, 0, 73, 114
2, 43680, Note_on_c, 0, 73, 0
2, 43680, Note_on_c, 0, 72, 88
2, 43920, Note_on_c, 0, 72, 0
2, 43920, Note_on_c, 0, 75, 114
2, 44160, Note_on_c, 0, 75, 0
2, 44160, Note_on_c, 0, 73, 88
2, 44400, Note_on_c, 0, 73, 0
2, 44400, Control_c, 0, 64, 127
2, 44400, Note_on_c, 0, 76, 114
2, 44640, Note_on_c, 0, 76, 0
2, 44640, Note_on_c, 0, 75, 75
2, 45000, Note_on_c, 0, 75, 0
2, 45000, Note_on_c, 0, 76, 75
2, 45120, Note_on_c, 0, 76, 0
2, 45120, Note_on_c, 0, 80, 101
2, 45360, Note_on_c, 0, 80, 0
2, 45360, Note_on_c, 0, 78, 75
2, 45759, Note_on_c, 0, 78, 0
2, 45759, Note_on_c, 0, 76, 75
2, 45920, Note_on_c, 0, 76, 0
2, 45920, Note_on_c, 0, 75, 75
2, 46080, Control_c, 0, 64, 0
2, 46239, Note_on_c, 0, 75, 0
2, 46239, Control_c, 0, 64, 127
2, 46239, Note_on_c, 0, 73, 62
2, 46400, Note_on_c, 0, 73, 0
2, 46400, Note_on_c, 0, 71, 62
2, 46560, Note_on_c, 0, 71, 0
2, 46560, Note_on_c, 0, 69, 62
2, 46920, Note_on_c, 0, 69, 0
2, 46920, Note_on_c, 0, 71, 62
2, 47040, Note_on_c, 0, 71, 0
2, 47040, Note_on_c, 0, 75, 62
2, 47280, Note_on_c, 0, 75, 0
2, 47280, Note_on_c, 0, 73, 62
2, 47679, Note_on_c, 0, 73, 0
2, 47679, Note_on_c, 0, 71, 62
2, 47840, Note_on_c, 0, 71, 0
2, 47840, Note_on_c, 0, 69, 62
2, 48159, Note_on_c, 0, 69, 0
2, 48159, Note_on_c, 0, 68, 49
2, 48320, Note_on_c, 0, 68, 0
2, 48320, Note_on_c, 0, 66, 49
2, 49440, Note_on_c, 0, 66, 0
2, 49440, Control_c, 0, 64, 0
2, 49440, Note_on_c, 0, 67, 49
2, 50880, Note_on_c, 0, 67, 0
2, 51039, Control_c, 0, 64, 127
2, 51039, Note_on_c, 0, 68, 75
2, 51200, Note_on_c, 0, 68, 0
2, 51200, Note_on_c, 0, 69, 75
2, 51519, Note_on_c, 0, 69, 0
2, 51519, Note_on_c, 0, 68, 75
2, 51680, Note_on_c, 0, 68, 0
2, 51680, Note_on_c, 0, 67, 75
2, 51999, Note_on_c, 0, 67, 0
2, 51999, Note_on_c, 0, 68, 75
2, 52160, Note_on_c, 0, 68, 0
2, 52160, Note_on_c, 0, 73, 75
2, 52479, Note_on_c, 0, 73, 0
2, 52479, Note_on_c, 0, 68, 75
2, 52640, Note_on_c, 0, 68, 0
2, 52640, Note_on_c, 0, 67, 75
2, 52800, Control_c, 0, 64, 0
2, 52959, Note_on_c, 0, 67, 0
2, 52959, Control_c, 0, 64, 127
2, 52959, Note_on_c, 0, 68, 75
2, 53120, Note_on_c, 0, 68, 0
2, 53120, Note_on_c, 0, 66, 75
2, 53439, Note_on_c, 0, 66, 0
2, 53439, Note_on_c, 0, 64, 75
2, 53600, Note_on_c, 0, 64, 0
2, 53600, Note_on_c, 0, 63, 75
2, 53919, Note_on_c, 0, 63, 0
2, 53919, Note_on_c, 0, 61, 75
2, 54080, Note_on_c, 0, 61, 0
2, 54080, Note_on_c, 0, 69, 75
2, 54399, Note_on_c, 0, 69, 0
2, 54399, Note_on_c, 0, 60, 75
2, 54560, Note_on_c, 0, 60, 0
2, 54560, Note_on_c, 0, 68, 75
2, 54720, Control_c, 0, 64, 0
2, 55680, Note_on_c, 0, 68, 0
2, 55839, Control_c, 0, 64, 127
2, 55839, Note_on_c, 0, 59, 62
2, 56000, Note_on_c, 0, 59, 0
2, 56000, Note_on_c, 0, 60, 62
2, 56319, Note_on_c, 0, 60, 0
2, 56319, Note_on_c, 0, 68, 62
2, 56480, Note_on_c, 0, 68, 0
2, 56480, Note_on_c, 0, 61, 62
2, 56799, Note_on_c, 0, 61, 0
2, 56799, Note_on_c, 0, 64, 75
2, 56960, Note_on_c, 0, 64, 0
2, 56960, Note_on_c, 0, 65, 75
2, 57279, Note_on_c, 0, 65, 0
2, 57279, Note_on_c, 0, 73, 75
2, 57440, Note_on_c, 0, 73, 0
2, 57440, Control_c, 0, 64, 0
2, 57440, Note_on_c, 0, 66, 75
2, 57600, Note_on_c, 0, 66, 0
2, 57759, Control_c, 0, 64, 127
2, 57759, Note_on_c, 0, 76, 88
2, 57920, Note_on_c, 0, 76, 0
2, 57920, Note_on_c, 0, 75, 88
2, 58239, Note_on_c, 0, 75, 0
2, 58239, Note_on_c, 0, 73, 88
2, 58400, Note_on_c, 0, 73, 0
2, 58400, Note_on_c, 0, 71, 88
2, 58719, Note_on_c, 0, 71, 0
2, 58719, Note_on_c, 0, 69, 88
2, 58880, Note_on_c, 0, 69, 0
2, 58880, Note_on_c, 0, 77, 88
2, 59280, Note_on_c, 0, 77, 0
2, 59280, Control_c, 0, 64, 0
2, 59280, Note_on_c, 0, 78, 88
2, 59520, Note_on_c, 0, 78, 0
2, 59679, Control_c, 0, 64, 127
2, 59679, Note_on_c, 0, 76, 88
2, 59840, Note_on_c, 0, 76, 0
2, 59840, Note_on_c, 0, 75, 88
2, 60159, Note_on_c, 0, 75, 0
2, 60159, Note_on_c, 0, 73, 88
2, 60320, Note_on_c, 0, 73, 0
2, 60320, Note_on_c, 0, 71, 88
2, 60639, Note_on_c, 0, 71, 0
2, 60639, Note_on_c, 0, 69, 88
2, 60800, Note_on_c, 0, 69, 0
2, 60800, Note_on_c, 0, 77, 88
2, 61200, Note_on_c, 0, 77, 0
2, 61200, Control_c, 0, 64, 0
2, 61200, Note_on_c, 0, 78, 88
2, 62400, Note_on_c, 0, 78, 0
2, 62400, Note_on_c, 0, 77, 88
2, 62460, Note_on_c, 0, 77, 0
2, 62460, Note_on_c, 0, 80, 88
2, 62520, Note_on_c, 0, 80, 0
2, 62520, Note_on_c, 0, 78, 88
2, 62580, Note_on_c, 0, 78, 0
2, 62580, Note_on_c, 0, 81, 88
2, 62640, Note_on_c, 0, 81, 0
2, 62640, Note_on_c, 0, 80, 88
2, 62700, Note_on_c, 0, 80, 0
2, 62700, Note_on_c, 0, 83, 88
2, 62760, Note_on_c, 0, 83, 0
2, 62760, Note_on_c, 0, 81, 88
2, 62820, Note_on_c, 0, 81, 0
2, 62820, Note_on_c, 0, 85, 88
2, 62880, Note_on_c, 0, 85, 0
2, 62880, Note_on_c, 0, 84, 88
2, 62940, Note_on_c, 0, 84, 0
2, 62940, Note_on_c, 0, 86, 88
2, 63000, Note_on_c, 0, 86, 0
2, 63000, Note_on_c, 0, 85, 88
2, 63060, Note_on_c, 0, 85, 0
2, 63060, Note_on_c, 0, 90, 88
2, 63120, Note_on_c, 0, 90, 0
2, 63120, Note_on_c, 0, 89, 88
2, 63180, Note_on_c, 0, 89, 0
2, 63180, Note_on_c, 0, 92, 88
2, 63240, Note_on_c, 0, 92, 0
2, 63240, Note_on_c, 0, 90, 88
2, 63300, Note_on_c, 0, 90, 0
2, 63300, Note_on_c, 0, 93, 88
2, 63360, Note_on_c, 0, 93, 0
2, 63360, Note_on_c, 0, 92, 88
2, 63420, Note_on_c, 0, 92, 0
2, 63420, Note_on_c, 0, 95, 88
2, 63480, Note_on_c, 0, 95, 0
2, 63480, Note_on_c, 0, 93, 88
2, 63540, Note_on_c, 0, 93, 0
2, 63540, Note_on_c, 0, 97, 88
2, 63900, Note_on_c, 0, 97, 0
2, 63900, Note_on_c, 0, 96, 88
2, 63960, Note_on_c, 0, 96, 0
2, 63960, Note_on_c, 0, 97, 88
2, 64020, Note_on_c, 0, 97, 0
2, 64020, Note_on_c, 0, 92, 88
2, 64080, Note_on_c, 0, 92, 0
2, 64080, Note_on_c, 0, 95, 88
2, 64140, Note_on_c, 0, 95, 0
2, 64140, Note_on_c, 0, 89, 88
2, 64200, Note_on_c, 0, 89, 0
2, 64200, Note_on_c, 0, 93, 88
2, 64260, Note_on_c, 0, 93, 0
2, 64260, Note_on_c, 0, 86, 88
2, 64320, Note_on_c, 0, 86, 0
2, 64320, Note_on_c, 0, 90, 88
2, 64380, Note_on_c, 0, 90, 0
2, 64380, Note_on_c, 0, 84, 88
2, 64440, Note_on_c, 0, 84, 0
2, 64440, Note_on_c, 0, 86, 88
2, 64500, Note_on_c, 0, 86, 0
2, 64500, Note_on_c, 0, 81, 88
2, 64560, Note_on_c, 0, 81, 0
2, 64560, Note_on_c, 0, 85, 88
2, 64620, Note_on_c, 0, 85, 0
2, 64620, Note_on_c, 0, 77, 88
2, 64680, Note_on_c, 0, 77, 0
2, 64680, Note_on_c, 0, 81, 88
2, 64740, Note_on_c, 0, 81, 0
2, 64740, Note_on_c, 0, 74, 88
2, 64800, Note_on_c, 0, 74, 0
2, 64800, Note_on_c, 0, 78, 88
2, 64860, Note_on_c, 0, 78, 0
2, 64860, Note_on_c, 0, 69, 88
2, 64920, Note_on_c, 0, 69, 0
2, 64920, Note_on_c, 0, 73, 88
2, 64980, Note_on_c, 0, 73, 0
2, 64980, Note_on_c, 0, 65, 88
2, 65040, Note_on_c, 0, 65, 0
2, 65040, Note_on_c, 0, 68, 88
2, 66000, Note_on_c, 0, 68, 0
2, 66000, Note_on_c, 0, 65, 88
2, 66060, Note_on_c, 0, 65, 0
2, 66060, Note_on_c, 0, 66, 88
2, 66120, Note_on_c, 0, 66, 0
2, 66120, Note_on_c, 0, 68, 88
2, 66180, Note_on_c, 0, 68, 0
2, 66180, Note_on_c, 0, 69, 88
2, 66240, Note_on_c, 0, 69, 0
2, 66240, Note_on_c, 0, 72, 88
2, 66300, Note_on_c, 0, 72, 0
2, 66300, Note_on_c, 0, 73, 88
2, 66360, Note_on_c, 0, 73, 0
2, 66360, Note_on_c, 0, 75, 88
2, 66420, Note_on_c, 0, 75, 0
2, 66420, Note_on_c, 0, 77, 88
2, 66480, Note_on_c, 0, 77, 0
2, 66480, Note_on_c, 0, 78, 88
2, 66540, Note_on_c, 0, 78, 0
2, 66540, Note_on_c, 0, 80, 88
2, 66600, Note_on_c, 0, 80, 0
2, 66600, Note_on_c, 0, 83, 88
2, 67080, Note_on_c, 0, 83, 0
2, 67080, Note_on_c, 0, 81, 88
2, 67200, Note_on_c, 0, 81, 0
2, 67359, Control_c, 0, 64, 127
2, 67359, Note_on_c, 0, 80, 88
2, 67520, Note_on_c, 0, 80, 0
2, 67520, Note_on_c, 0, 81, 88
2, 67839, Note_on_c, 0, 81, 0
2, 67839, Note_on_c, 0, 72, 88
2, 68000, Note_on_c, 0, 72, 0
2, 68000, Note_on_c, 0, 76, 88
2, 68319, Note_on_c, 0, 76, 0
2, 68319, Note_on_c, 0, 75, 88
2, 68480, Note_on_c, 0, 75, 0
2, 68480, Note_on_c, 0, 67, 88
2, 68799, Note_on_c, 0, 67, 0
2, 68799, Note_on_c, 0, 73, 88
2, 68960, Note_on_c, 0, 73, 0
2, 68960, Control_c, 0, 64, 0
2, 68960, Note_on_c, 0, 68, 88
2, 69120, Note_on_c, 0, 68, 0
2, 69279, Control_c, 0, 64, 127
2, 69279, Note_on_c, 0, 80, 88
2, 69440, Note_on_c, 0, 80, 0
2, 69440, Note_on_c, 0, 81, 88
2, 69759, Note_on_c, 0, 81, 0
2, 69759, Note_on_c, 0, 72, 88
2, 69920, Note_on_c, 0, 72, 0
2, 69920, Note_on_c, 0, 76, 88
2, 70239, Note_on_c, 0, 76, 0
2, 70239, Note_on_c, 0, 75, 88
2, 70400, Note_on_c, 0, 75, 0
2, 70400, Note_on_c, 0, 67, 88
2, 70719, Note_on_c, 0, 67, 0
2, 70719, Note_on_c, 0, 73, 88
2, 70880, Note_on_c, 0, 73, 0
2, 70880, Control_c, 0, 64, 0
2, 70880, Note_on_c, 0, 68, 88
2, 71040, Note_on_c, 0, 68, 0
2, 71199, Note_on_c, 0, 71, 75
2, 71360, Note_on_c, 0, 71, 0
2, 71360, Note_on_c, 0, 69, 75
2, 71679, Note_on_c, 0, 69, 0
2, 71679, Note_on_c, 0, 68, 75
2, 71840, Note_on_c, 0, 68, 0
2, 71840, Note_on_c, 0, 66, 75
2, 72000, Note_on_c, 0, 66, 0
2, 72159, Note_on_c, 0, 78, 88
2, 72320, Note_on_c, 0, 78, 0
2, 72320, Note_on_c, 0, 76, 88
2, 72639, Note_on_c, 0, 76, 0
2, 72639, Note_on_c, 0, 75, 88
2, 72800, Note_on_c, 0, 75, 0
2, 72800, Note_on_c, 0, 73, 88
2, 72960, Note_on_c, 0, 73, 0
2, 73119, Control_c, 0, 64, 127
2, 73119, Note_on_c, 0, 83, 101
2, 73280, Note_on_c, 0, 83, 0
2, 73280, Note_on_c, 0, 81, 101
2, 73599, Note_on_c, 0, 81, 0
2, 73599, Note_on_c, 0, 80, 101
2, 73760, Note_on_c, 0, 80, 0
2, 73760, Note_on_c, 0, 78, 101
2, 74079, Note_on_c, 0, 78, 0
2, 74079, Note_on_c, 0, 76, 88
2, 74240, Note_on_c, 0, 76, 0
2, 74240, Note_on_c, 0, 75, 88
2, 74559, Note_on_c, 0, 75, 0
2, 74559, Note_on_c, 0, 73, 88
2, 74720, Note_on_c, 0, 73, 0
2, 74720, Note_on_c, 0, 71, 88
2, 75039, Note_on_c, 0, 71, 0
2, 75039, Note_on_c, 0, 69, 75
2, 75200, Note_on_c, 0, 69, 0
2, 75200, Note_on_c, 0, 68, 75
2, 75519, Note_on_c, 0, 68, 0
2, 75519, Note_on_c, 0, 66, 75
2, 75680, Note_on_c, 0, 66, 0
2, 75680, Note_on_c, 0, 64, 75
2, 75999, Note_on_c, 0, 64, 0
2, 75999, Note_on_c, 0, 63, 62
2, 76160, Note_on_c, 0, 63, 0
2, 76160, Note_on_c, 0, 61, 62
2, 76479, Note_on_c, 0, 61, 0
2, 76479, Note_on_c, 0, 59, 62
2, 76640, Note_on_c, 0, 59, 0
2, 76640, Control_c, 0, 64, 0
2, 76640, Note_on_c, 0, 60, 62
2, 76959, Note_on_c, 0, 60, 0
2, 76959, Control_c, 0, 64, 127
2, 76959, Note_on_c, 0, 63, 62
2, 77120, Note_on_c, 0, 63, 0
2, 77120, Note_on_c, 0, 61, 62
2, 77439, Note_on_c, 0, 61, 0
2, 77439, Note_on_c, 0, 66, 62
2, 77600, Note_on_c, 0, 66, 0
2, 77600, Note_on_c, 0, 64, 62
2, 77919, Note_on_c, 0, 64, 0
2, 77919, Note_on_c, 0, 63, 62
2, 78080, Note_on_c, 0, 63, 0
2, 78080, Note_on_c, 0, 61, 62
2, 78399, Note_on_c, 0, 61, 0
2, 78399, Note_on_c, 0, 59, 62
2, 78560, Note_on_c, 0, 59, 0
2, 78560, Control_c, 0, 64, 0
2, 78560, Note_on_c, 0, 60, 62
2, 78879, Note_on_c, 0, 60, 0
2, 78879, Control_c, 0, 64, 127
2, 78879, Note_on_c, 0, 63, 62
2, 79040, Note_on_c, 0, 63, 0
2, 79040, Note_on_c, 0, 61, 62
2, 79359, Note_on_c, 0, 61, 0
2, 79359, Note_on_c, 0, 59, 62
2, 79520, Note_on_c, 0, 59, 0
2, 79520, Note_on_c, 0, 58, 62
2, 79839, Note_on_c, 0, 58, 0
2, 79839, Note_on_c, 0, 57, 62
2, 80000, Note_on_c, 0, 57, 0
2, 80000, Note_on_c, 0, 56, 62
2, 80319, Note_on_c, 0, 56, 0
2, 80319, Note_on_c, 0, 55, 62
2, 80480, Note_on_c, 0, 55, 0
2, 80480, Note_on_c, 0, 54, 62
2, 80640, Control_c, 0, 64, 0
2, 80799, Note_on_c, 0, 54, 0
2, 80799, Control_c, 0, 64, 127
2, 80799, Note_on_c, 0, 52, 49
2, 80960, Note_on_c, 0, 52, 0
2, 80960, Note_on_c, 0, 51, 49
2, 81279, Note_on_c, 0, 51, 0
2, 81279, Note_on_c, 0, 49, 49
2, 81440, Note_on_c, 0, 49, 0
2, 81440, Note_on_c, 0, 47, 49
2, 81759, Note_on_c, 0, 47, 0
2, 81759, Note_on_c, 0, 45, 49
2, 81920, Note_on_c, 0, 45, 0
2, 81920, Note_on_c, 0, 44, 49
2, 82239, Note_on_c, 0, 44, 0
2, 82239, Note_on_c, 0, 43, 49
2, 82400, Note_on_c, 0, 43, 0
2, 82400, Note_on_c, 0, 44, 49
2, 82560, Control_c, 0, 64, 0
2, 85440, Note_on_c, 0, 44, 0
2, 85440, Control_c, 0, 64, 127
2, 86880, Control_c, 0, 64, 0
2, 86880, End_track
3, 0, Start_track
3, 0, Title_t, "Grand Piano"
3, 0, Program_c, 0, 0
3, 0, Control_c, 0, 7, 115
3, 0, Control_c, 0, 10, 79
3, 3519, Note_on_c, 0, 60, 62
3, 4800, Note_on_c, 0, 60, 0
3, 8400, Note_on_c, 0, 66, 75
3, 8400, Note_on_c, 0, 73, 75
3, 8640, Note_on_c, 0, 73, 0
3, 8640, Note_on_c, 0, 66, 0
3, 10320, Note_on_c, 0, 66, 75
3, 10320, Note_on_c, 0, 73, 75
3, 12480, Note_on_c, 0, 73, 0
3, 12480, Note_on_c, 0, 66, 0
3, 22400, Note_on_c, 0, 63, 49
3, 23280, Note_on_c, 0, 63, 0
3, 24960, Note_on_c, 0, 62, 49
3, 25440, Note_on_c, 0, 62, 0
3, 25440, Note_on_c, 0, 61, 49
3, 25680, Note_on_c, 0, 61, 0
3, 25680, Note_on_c, 0, 61, 49
3, 25920, Note_on_c, 0, 61, 0
3, 25920, Note_on_c, 0, 59, 49
3, 26160, Note_on_c, 0, 59, 0
3, 26160, Note_on_c, 0, 63, 49
3, 26400, Note_on_c, 0, 63, 0
3, 26400, Note_on_c, 0, 61, 49
3, 26880, Note_on_c, 0, 61, 0
3, 26880, Note_on_c, 0, 62, 49
3, 27360, Note_on_c, 0, 62, 0
3, 27360, Note_on_c, 0, 61, 49
3, 27600, Note_on_c, 0, 61, 0
3, 27600, Note_on_c, 0, 61, 49
3, 27840, Note_on_c, 0, 61, 0
3, 27840, Note_on_c, 0, 59, 62
3, 28080, Note_on_c, 0, 59, 0
3, 28080, Note_on_c, 0, 63, 62
3, 28320, Note_on_c, 0, 63, 0
3, 28320, Note_on_c, 0, 64, 62
3, 28560, Note_on_c, 0, 64, 0
3, 28560, Note_on_c, 0, 66, 62
3, 28800, Note_on_c, 0, 66, 0
3, 28800, Note_on_c, 0, 68, 75
3, 29040, Note_on_c, 0, 68, 0
3, 29040, Note_on_c, 0, 69, 75
3, 30000, Note_on_c, 0, 69, 0
3, 30000, Note_on_c, 0, 66, 75
3, 30480, Note_on_c, 0, 66, 0
3, 30480, Note_on_c, 0, 64, 75
3, 30960, Note_on_c, 0, 64, 0
3, 30960, Note_on_c, 0, 69, 75
3, 31920, Note_on_c, 0, 69, 0
3, 31920, Note_on_c, 0, 66, 75
3, 32400, Note_on_c, 0, 66, 0
3, 32400, Note_on_c, 0, 64, 75
3, 32880, Note_on_c, 0, 64, 0
3, 32880, Note_on_c, 0, 62, 75
3, 33840, Note_on_c, 0, 62, 0
3, 33840, Note_on_c, 0, 62, 62
3, 34320, Note_on_c, 0, 62, 0
3, 34320, Note_on_c, 0, 62, 62
3, 35280, Note_on_c, 0, 62, 0
3, 35280, Note_on_c, 0, 62, 49
3, 35760, Note_on_c, 0, 62, 0
3, 35760, Note_on_c, 0, 64, 49
3, 36480, Note_on_c, 0, 64, 0
3, 36480, Note_on_c, 0, 62, 49
3, 36960, Note_on_c, 0, 62, 0
3, 36960, Note_on_c, 0, 61, 49
3, 37200, Note_on_c, 0, 61, 0
3, 37200, Note_on_c, 0, 61, 49
3, 37440, Note_on_c, 0, 61, 0
3, 37440, Note_on_c, 0, 59, 49
3, 37680, Note_on_c, 0, 59, 0
3, 37680, Note_on_c, 0, 63, 49
3, 37920, Note_on_c, 0, 63, 0
3, 37920, Note_on_c, 0, 61, 49
3, 38400, Note_on_c, 0, 61, 0
3, 38400, Note_on_c, 0, 62, 49
3, 38880, Note_on_c, 0, 62, 0
3, 38880, Note_on_c, 0, 61, 49
3, 39120, Note_on_c, 0, 61, 0
3, 39120, Note_on_c, 0, 61, 49
3, 39360, Note_on_c, 0, 61, 0
3, 39360, Note_on_c, 0, 59, 62
3, 39600, Note_on_c, 0, 59, 0
3, 39600, Note_on_c, 0, 63, 62
3, 39840, Note_on_c, 0, 63, 0
3, 39840, Note_on_c, 0, 64, 62
3, 40080, Note_on_c, 0, 64, 0
3, 40080, Note_on_c, 0, 66, 62
3, 40320, Note_on_c, 0, 66, 0
3, 40320, Note_on_c, 0, 68, 75
3, 40560, Note_on_c, 0, 68, 0
3, 40560, Note_on_c, 0, 69, 75
3, 41520, Note_on_c, 0, 69, 0
3, 41520, Note_on_c, 0, 66, 75
3, 42000, Note_on_c, 0, 66, 0
3, 42000, Note_on_c, 0, 64, 75
3, 42240, Note_on_c, 0, 64, 0
3, 42240, Note_on_c, 0, 64, 75
3, 42480, Note_on_c, 0, 64, 0
3, 42480, Note_on_c, 0, 69, 75
3, 43440, Note_on_c, 0, 69, 0
3, 43440, Note_on_c, 0, 66, 75
3, 43920, Note_on_c, 0, 66, 0
3, 43920, Note_on_c, 0, 64, 75
3, 44400, Note_on_c, 0, 64, 0
3, 44400, Note_on_c, 0, 69, 75
3, 46080, Note_on_c, 0, 69, 0
3, 46560, Note_on_c, 0, 61, 49
3, 48000, Note_on_c, 0, 61, 0
3, 54399, Note_on_c, 0, 60, 62
3, 55680, Note_on_c, 0, 60, 0
3, 59280, Note_on_c, 0, 66, 75
3, 59280, Note_on_c, 0, 73, 75
3, 59520, Note_on_c, 0, 73, 0
3, 59520, Note_on_c, 0, 66, 0
3, 61200, Note_on_c, 0, 66, 75
3, 61200, Note_on_c, 0, 73, 75
3, 61920, Note_on_c, 0, 73, 0
3, 61920, Note_on_c, 0, 66, 0
3, 72960, Note_on_c, 0, 65, 101
3, 73200, Note_on_c, 0, 65, 0
3, 73200, Note_on_c, 0, 66, 101
3, 73440, Note_on_c, 0, 66, 0
3, 73440, Note_on_c, 0, 68, 101
3, 73680, Note_on_c, 0, 68, 0
3, 73680, Note_on_c, 0, 69, 101
3, 73920, Note_on_c, 0, 69, 0
3, 75840, Note_on_c, 0, 54, 49
3, 76800, Note_on_c, 0, 54, 0
3, 76800, Note_on_c, 0, 56, 49
3, 77280, Note_on_c, 0, 56, 0
3, 77760, Note_on_c, 0, 54, 49
3, 78720, Note_on_c, 0, 54, 0
3, 78720, Note_on_c, 0, 56, 49
3, 79200, Note_on_c, 0, 56, 0
3, 82080, Note_on_c, 0, 49, 49
3, 82080, Note_on_c, 0, 52, 49
3, 85440, Note_on_c, 0, 52, 0
3, 85440, Note_on_c, 0, 49, 0
3, 85440, End_track
4, 0, Start_track
4, 0, Title_t, "Grand Piano"
4, 0, Program_c, 0, 0
4, 0, Control_c, 0, 7, 115
4, 0, Control_c, 0, 10, 41
4, 240, Note_on_c, 0, 56, 62
4, 240, Note_on_c, 0, 61, 62
4, 240, Note_on_c, 0, 64, 62
4, 480, Note_on_c, 0, 64, 0
4, 480, Note_on_c, 0, 61, 0
4, 480, Note_on_c, 0, 56, 0
4, 720, Note_on_c, 0, 56, 62
4, 720, Note_on_c, 0, 60, 62
4, 720, Note_on_c, 0, 66, 62
4, 960, Note_on_c, 0, 66, 0
4, 960, Note_on_c, 0, 60, 0
4, 960, Note_on_c, 0, 56, 0
4, 1200, Note_on_c, 0, 56, 62
4, 1200, Note_on_c, 0, 61, 62
4, 1200, Note_on_c, 0, 64, 62
4, 1440, Note_on_c, 0, 64, 0
4, 1440, Note_on_c, 0, 61, 0
4, 1440, Note_on_c, 0, 56, 0
4, 1680, Note_on_c, 0, 52, 62
4, 1680, Note_on_c, 0, 57, 62
4, 1680, Note_on_c, 0, 61, 62
4, 1920, Note_on_c, 0, 61, 0
4, 1920, Note_on_c, 0, 57, 0
4, 1920, Note_on_c, 0, 52, 0
4, 2160, Note_on_c, 0, 52, 62
4, 2160, Note_on_c, 0, 56, 62
4, 2160, Note_on_c, 0, 61, 62
4, 2400, Note_on_c, 0, 61, 0
4, 2400, Note_on_c, 0, 56, 0
4, 2400, Note_on_c, 0, 52, 0
4, 2640, Note_on_c, 0, 51, 62
4, 2640, Note_on_c, 0, 57, 62
4, 2640, Note_on_c, 0, 61, 62
4, 2880, Note_on_c, 0, 61, 0
4, 2880, Note_on_c, 0, 57, 0
4, 2880, Note_on_c, 0, 51, 0
4, 3120, Note_on_c, 0, 52, 62
4, 3120, Note_on_c, 0, 57, 62
4, 3120, Note_on_c, 0, 61, 62
4, 3360, Note_on_c, 0, 61, 0
4, 3360, Note_on_c, 0, 57, 0
4, 3360, Note_on_c, 0, 52, 0
4, 3600, Note_on_c, 0, 51, 62
4, 3600, Note_on_c, 0, 56, 62
4, 3600, Note_on_c, 0, 63, 62
4, 4800, Note_on_c, 0, 63, 0
4, 4800, Note_on_c, 0, 56, 0
4, 4800, Note_on_c, 0, 51, 0
4, 5040, Note_on_c, 0, 51, 49
4, 5040, Note_on_c, 0, 56, 49
4, 5280, Note_on_c, 0, 56, 0
4, 5280, Note_on_c, 0, 51, 0
4, 5520, Note_on_c, 0, 52, 49
4, 5520, Note_on_c, 0, 56, 49
4, 5760, Note_on_c, 0, 56, 0
4, 5760, Note_on_c, 0, 52, 0
4, 6000, Note_on_c, 0, 56, 62
4, 6000, Note_on_c, 0, 61, 62
4, 6240, Note_on_c, 0, 61, 0
4, 6240, Note_on_c, 0, 56, 0
4, 6480, Note_on_c, 0, 54, 62
4, 6480, Note_on_c, 0, 61, 62
4, 6720, Note_on_c, 0, 61, 0
4, 6720, Note_on_c, 0, 54, 0
4, 6720, Note_on_c, 0, 42, 75
4, 6960, Note_on_c, 0, 42, 0
4, 6960, Note_on_c, 0, 63, 101
4, 7200, Note_on_c, 0, 63, 0
4, 7200, Note_on_c, 0, 64, 101
4, 7440, Note_on_c, 0, 64, 0
4, 7440, Note_on_c, 0, 65, 101
4, 7680, Note_on_c, 0, 65, 0
4, 7680, Note_on_c, 0, 66, 101
4, 7920, Note_on_c, 0, 66, 0
4, 7920, Note_on_c, 0, 68, 101
4, 8160, Note_on_c, 0, 68, 0
4, 8160, Note_on_c, 0, 69, 101
4, 8640, Note_on_c, 0, 69, 0
4, 8640, Note_on_c, 0, 42, 75
4, 8880, Note_on_c, 0, 42, 0
4, 8880, Note_on_c, 0, 63, 101
4, 9120, Note_on_c, 0, 63, 0
4, 9120, Note_on_c, 0, 64, 101
4, 9360, Note_on_c, 0, 64, 0
4, 9360, Note_on_c, 0, 65, 101
4, 9600, Note_on_c, 0, 65, 0
4, 9600, Note_on_c, 0, 66, 101
4, 9840, Note_on_c, 0, 66, 0
4, 9840, Note_on_c, 0, 68, 101
4, 10080, Note_on_c, 0, 68, 0
4, 10080, Note_on_c, 0, 69, 101
4, 12480, Note_on_c, 0, 69, 0
4, 13680, Note_on_c, 0, 54, 62
4, 13680, Note_on_c, 0, 61, 62
4, 13680, Note_on_c, 0, 64, 62
4, 13920, Note_on_c, 0, 64, 0
4, 13920, Note_on_c, 0, 61, 0
4, 13920, Note_on_c, 0, 54, 0
4, 14160, Note_on_c, 0, 56, 62
4, 14160, Note_on_c, 0, 60, 62
4, 14160, Note_on_c, 0, 66, 62
4, 14400, Note_on_c, 0, 66, 0
4, 14400, Note_on_c, 0, 60, 0
4, 14400, Note_on_c, 0, 56, 0
4, 14640, Note_on_c, 0, 56, 62
4, 14640, Note_on_c, 0, 61, 62
4, 14640, Note_on_c, 0, 64, 62
4, 14880, Note_on_c, 0, 64, 0
4, 14880, Note_on_c, 0, 61, 0
4, 14880, Note_on_c, 0, 56, 0
4, 15120, Note_on_c, 0, 56, 62
4, 15120, Note_on_c, 0, 61, 62
4, 15120, Note_on_c, 0, 64, 62
4, 15360, Note_on_c, 0, 64, 0
4, 15360, Note_on_c, 0, 61, 0
4, 15360, Note_on_c, 0, 56, 0
4, 15600, Note_on_c, 0, 54, 62
4, 15600, Note_on_c, 0, 61, 62
4, 15600, Note_on_c, 0, 64, 62
4, 15840, Note_on_c, 0, 64, 0
4, 15840, Note_on_c, 0, 61, 0
4, 15840, Note_on_c, 0, 54, 0
4, 16080, Note_on_c, 0, 56, 62
4, 16080, Note_on_c, 0, 60, 62
4, 16080, Note_on_c, 0, 66, 62
4, 16320, Note_on_c, 0, 66, 0
4, 16320, Note_on_c, 0, 60, 0
4, 16320, Note_on_c, 0, 56, 0
4, 16560, Note_on_c, 0, 56, 62
4, 16560, Note_on_c, 0, 61, 62
4, 16560, Note_on_c, 0, 64, 62
4, 16800, Note_on_c, 0, 64, 0
4, 16800, Note_on_c, 0, 61, 0
4, 16800, Note_on_c, 0, 56, 0
4, 17040, Note_on_c, 0, 56, 62
4, 17040, Note_on_c, 0, 61, 62
4, 17040, Note_on_c, 0, 64, 62
4, 17280, Note_on_c, 0, 64, 0
4, 17280, Note_on_c, 0, 61, 0
4, 17280, Note_on_c, 0, 56, 0
4, 17280, Note_on_c, 0, 51, 88
4, 17520, Note_on_c, 0, 51, 0
4, 17520, Note_on_c, 0, 52, 88
4, 17760, Note_on_c, 0, 52, 0
4, 17760, Note_on_c, 0, 53, 88
4, 18000, Note_on_c, 0, 53, 0
4, 18000, Note_on_c, 0, 54, 88
4, 18240, Note_on_c, 0, 54, 0
4, 18240, Note_on_c, 0, 56, 88
4, 18480, Note_on_c, 0, 56, 0
4, 18480, Note_on_c, 0, 57, 88
4, 18720, Note_on_c, 0, 57, 0
4, 18720, Note_on_c, 0, 58, 88
4, 20160, Note_on_c, 0, 58, 0
4, 20400, Note_on_c, 0, 56, 62
4, 20400, Note_on_c, 0, 59, 62
4, 20400, Note_on_c, 0, 64, 62
4, 20640, Note_on_c, 0, 64, 0
4, 20640, Note_on_c, 0, 59, 0
4, 20640, Note_on_c, 0, 56, 0
4, 20880, Note_on_c, 0, 54, 62
4, 20880, Note_on_c, 0, 57, 62
4, 20880, Note_on_c, 0, 64, 62
4, 22080, Note_on_c, 0, 64, 0
4, 22080, Note_on_c, 0, 57, 0
4, 22080, Note_on_c, 0, 54, 0
4, 22400, Note_on_c, 0, 47, 49
4, 22400, Note_on_c, 0, 57, 49
4, 23280, Note_on_c, 0, 57, 0
4, 23280, Note_on_c, 0, 47, 0
4, 24960, Note_on_c, 0, 52, 49
4, 25680, Note_on_c, 0, 52, 0
4, 25680, Note_on_c, 0, 52, 49
4, 26160, Note_on_c, 0, 52, 0
4, 26160, Note_on_c, 0, 57, 49
4, 26400, Note_on_c, 0, 57, 0
4, 26400, Note_on_c, 0, 56, 49
4, 26880, Note_on_c, 0, 56, 0
4, 26880, Note_on_c, 0, 52, 49
4, 27600, Note_on_c, 0, 52, 0
4, 27600, Note_on_c, 0, 52, 49
4, 28080, Note_on_c, 0, 52, 0
4, 28080, Note_on_c, 0, 57, 62
4, 28560, Note_on_c, 0, 57, 0
4, 28560, Note_on_c, 0, 61, 62
4, 29040, Note_on_c, 0, 61, 0
4, 29040, Note_on_c, 0, 61, 75
4, 30000, Note_on_c, 0, 61, 0
4, 30000, Note_on_c, 0, 57, 75
4, 30480, Note_on_c, 0, 57, 0
4, 30480, Note_on_c, 0, 56, 75
4, 30960, Note_on_c, 0, 56, 0
4, 30960, Note_on_c, 0, 61, 75
4, 31920, Note_on_c, 0, 61, 0
4, 31920, Note_on_c, 0, 57, 75
4, 32400, Note_on_c, 0, 57, 0
4, 32400, Note_on_c, 0, 56, 75
4, 32880, Note_on_c, 0, 56, 0
4, 32880, Note_on_c, 0, 52, 75
4, 33840, Note_on_c, 0, 52, 0
4, 33840, Note_on_c, 0, 52, 62
4, 34320, Note_on_c, 0, 52, 0
4, 34320, Note_on_c, 0, 52, 62
4, 35280, Note_on_c, 0, 52, 0
4, 35280, Note_on_c, 0, 52, 49
4, 35760, Note_on_c, 0, 52, 0
4, 35760, Note_on_c, 0, 52, 49
4, 36480, Note_on_c, 0, 52, 0
4, 36480, Note_on_c, 0, 52, 49
4, 37200, Note_on_c, 0, 52, 0
4, 37200, Note_on_c, 0, 52, 49
4, 37680, Note_on_c, 0, 52, 0
4, 37680, Note_on_c, 0, 57, 49
4, 37920, Note_on_c, 0, 57, 0
4, 37920, Note_on_c, 0, 56, 49
4, 38400, Note_on_c, 0, 56, 0
4, 38400, Note_on_c, 0, 52, 49
4, 39120, Note_on_c, 0, 52, 0
4, 39120, Note_on_c, 0, 52, 49
4, 39600, Note_on_c, 0, 52, 0
4, 39600, Note_on_c, 0, 57, 62
4, 40080, Note_on_c, 0, 57, 0
4, 40080, Note_on_c, 0, 61, 62
4, 40560, Note_on_c, 0, 61, 0
4, 40560, Note_on_c, 0, 61, 75
4, 41520, Note_on_c, 0, 61, 0
4, 41520, Note_on_c, 0, 57, 75
4, 42000, Note_on_c, 0, 57, 0
4, 42000, Note_on_c, 0, 56, 75
4, 42240, Note_on_c, 0, 56, 0
4, 42240, Note_on_c, 0, 56, 75
4, 42480, Note_on_c, 0, 56, 0
4, 42480, Note_on_c, 0, 61, 75
4, 43440, Note_on_c, 0, 61, 0
4, 43440, Note_on_c, 0, 57, 75
4, 43920, Note_on_c, 0, 57, 0
4, 43920, Note_on_c, 0, 56, 75
4, 44400, Note_on_c, 0, 56, 0
4, 44400, Note_on_c, 0, 61, 75
4, 46080, Note_on_c, 0, 61, 0
4, 46560, Note_on_c, 0, 51, 49
4, 48000, Note_on_c, 0, 51, 0
4, 51120, Note_on_c, 0, 56, 62
4, 51120, Note_on_c, 0, 61, 62
4, 51120, Note_on_c, 0, 64, 62
4, 51360, Note_on_c, 0, 64, 0
4, 51360, Note_on_c, 0, 61, 0
4, 51360, Note_on_c, 0, 56, 0
4, 51600, Note_on_c, 0, 56, 62
4, 51600, Note_on_c, 0, 60, 62
4, 51600, Note_on_c, 0, 66, 62
4, 51840, Note_on_c, 0, 66, 0
4, 51840, Note_on_c, 0, 60, 0
4, 51840, Note_on_c, 0, 56, 0
4, 52080, Note_on_c, 0, 56, 62
4, 52080, Note_on_c, 0, 61, 62
4, 52080, Note_on_c, 0, 64, 62
4, 52320, Note_on_c, 0, 64, 0
4, 52320, Note_on_c, 0, 61, 0
4, 52320, Note_on_c, 0, 56, 0
4, 52560, Note_on_c, 0, 52, 62
4, 52560, Note_on_c, 0, 57, 62
4, 52560, Note_on_c, 0, 61, 62
4, 52800, Note_on_c, 0, 61, 0
4, 52800, Note_on_c, 0, 57, 0
4, 52800, Note_on_c, 0, 52, 0
4, 53040, Note_on_c, 0, 52, 62
4, 53040, Note_on_c, 0, 56, 62
4, 53040, Note_on_c, 0, 61, 62
4, 53280, Note_on_c, 0, 61, 0
4, 53280, Note_on_c, 0, 56, 0
4, 53280, Note_on_c, 0, 52, 0
4, 53520, Note_on_c, 0, 51, 62
4, 53520, Note_on_c, 0, 57, 62
4, 53520, Note_on_c, 0, 61, 62
4, 53760, Note_on_c, 0, 61, 0
4, 53760, Note_on_c, 0, 57, 0
4, 53760, Note_on_c, 0, 51, 0
4, 54000, Note_on_c, 0, 52, 62
4, 54000, Note_on_c, 0, 57, 62
4, 54000, Note_on_c, 0, 61, 62
4, 54240, Note_on_c, 0, 61, 0
4, 54240, Note_on_c, 0, 57, 0
4, 54240, Note_on_c, 0, 52, 0
4, 54480, Note_on_c, 0, 51, 62
4, 54480, Note_on_c, 0, 56, 62
4, 54480, Note_on_c, 0, 63, 62
4, 55680, Note_on_c, 0, 63, 0
4, 55680, Note_on_c, 0, 56, 0
4, 55680, Note_on_c, 0, 51, 0
4, 55920, Note_on_c, 0, 51, 49
4, 55920, Note_on_c, 0, 56, 49
4, 56160, Note_on_c, 0, 56, 0
4, 56160, Note_on_c, 0, 51, 0
4, 56400, Note_on_c, 0, 52, 49
4, 56400, Note_on_c, 0, 56, 49
4, 56640, Note_on_c, 0, 56, 0
4, 56640, Note_on_c, 0, 52, 0
4, 56880, Note_on_c, 0, 56, 62
4, 56880, Note_on_c, 0, 61, 62
4, 57120, Note_on_c, 0, 61, 0
4, 57120, Note_on_c, 0, 56, 0
4, 57360, Note_on_c, 0, 54, 62
4, 57360, Note_on_c, 0, 61, 62
4, 57600, Note_on_c, 0, 61, 0
4, 57600, Note_on_c, 0, 54, 0
4, 57600, Note_on_c, 0, 42, 75
4, 57840, Note_on_c, 0, 42, 0
4, 57840, Note_on_c, 0, 63, 101
4, 58080, Note_on_c, 0, 63, 0
4, 58080, Note_on_c, 0, 64, 101
4, 58320, Note_on_c, 0, 64, 0
4, 58320, Note_on_c, 0, 65, 101
4, 58560, Note_on_c, 0, 65, 0
4, 58560, Note_on_c, 0, 66, 101
4, 58800, Note_on_c, 0, 66, 0
4, 58800, Note_on_c, 0, 68, 101
4, 59040, Note_on_c, 0, 68, 0
4, 59040, Note_on_c, 0, 69, 101
4, 59520, Note_on_c, 0, 69, 0
4, 59520, Note_on_c, 0, 42, 75
4, 59760, Note_on_c, 0, 42, 0
4, 59760, Note_on_c, 0, 63, 101
4, 60000, Note_on_c, 0, 63, 0
4, 60000, Note_on_c, 0, 64, 101
4, 60240, Note_on_c, 0, 64, 0
4, 60240, Note_on_c, 0, 65, 101
4, 60480, Note_on_c, 0, 65, 0
4, 60480, Note_on_c, 0, 66, 101
4, 60720, Note_on_c, 0, 66, 0
4, 60720, Note_on_c, 0, 68, 101
4, 60960, Note_on_c, 0, 68, 0
4, 60960, Note_on_c, 0, 69, 101
4, 61440, Note_on_c, 0, 69, 0
4, 67440, Note_on_c, 0, 54, 62
4, 67440, Note_on_c, 0, 61, 62
4, 67440, Note_on_c, 0, 64, 62
4, 67680, Note_on_c, 0, 64, 0
4, 67680, Note_on_c, 0, 61, 0
4, 67680, Note_on_c, 0, 54, 0
4, 67920, Note_on_c, 0, 56, 62
4, 67920, Note_on_c, 0, 60, 62
4, 67920, Note_on_c, 0, 66, 62
4, 68160, Note_on_c, 0, 66, 0
4, 68160, Note_on_c, 0, 60, 0
4, 68160, Note_on_c, 0, 56, 0
4, 68400, Note_on_c, 0, 56, 62
4, 68400, Note_on_c, 0, 61, 62
4, 68400, Note_on_c, 0, 64, 62
4, 68640, Note_on_c, 0, 64, 0
4, 68640, Note_on_c, 0, 61, 0
4, 68640, Note_on_c, 0, 56, 0
4, 68880, Note_on_c, 0, 56, 62
4, 68880, Note_on_c, 0, 61, 62
4, 68880, Note_on_c, 0, 64, 62
4, 69120, Note_on_c, 0, 64, 0
4, 69120, Note_on_c, 0, 61, 0
4, 69120, Note_on_c, 0, 56, 0
4, 69360, Note_on_c, 0, 54, 62
4, 69360, Note_on_c, 0, 61, 62
4, 69360, Note_on_c, 0, 64, 62
4, 69600, Note_on_c, 0, 64, 0
4, 69600, Note_on_c, 0, 61, 0
4, 69600, Note_on_c, 0, 54, 0
4, 69840, Note_on_c, 0, 56, 62
4, 69840, Note_on_c, 0, 60, 62
4, 69840, Note_on_c, 0, 66, 62
4, 70080, Note_on_c, 0, 66, 0
4, 70080, Note_on_c, 0, 60, 0
4, 70080, Note_on_c, 0, 56, 0
4, 70320, Note_on_c, 0, 56, 62
4, 70320, Note_on_c, 0, 61, 62
4, 70320, Note_on_c, 0, 64, 62
4, 70560, Note_on_c, 0, 64, 0
4, 70560, Note_on_c, 0, 61, 0
4, 70560, Note_on_c, 0, 56, 0
4, 70800, Note_on_c, 0, 56, 62
4, 70800, Note_on_c, 0, 61, 62
4, 70800, Note_on_c, 0, 64, 62
4, 71040, Note_on_c, 0, 64, 0
4, 71040, Note_on_c, 0, 61, 0
4, 71040, Note_on_c, 0, 56, 0
4, 71040, Note_on_c, 0, 51, 88
4, 71280, Note_on_c, 0, 51, 0
4, 71280, Note_on_c, 0, 52, 88
4, 71520, Note_on_c, 0, 52, 0
4, 71520, Note_on_c, 0, 53, 88
4, 71760, Note_on_c, 0, 53, 0
4, 71760, Note_on_c, 0, 54, 88
4, 72000, Note_on_c, 0, 54, 0
4, 72000, Note_on_c, 0, 56, 101
4, 72240, Note_on_c, 0, 56, 0
4, 72240, Note_on_c, 0, 57, 101
4, 72480, Note_on_c, 0, 57, 0
4, 72480, Note_on_c, 0, 60, 101
4, 72720, Note_on_c, 0, 60, 0
4, 72720, Note_on_c, 0, 61, 101
4, 72960, Note_on_c, 0, 61, 0
4, 72960, Note_on_c, 0, 57, 88
4, 72960, Note_on_c, 0, 61, 88
4, 73440, Note_on_c, 0, 61, 0
4, 73440, Note_on_c, 0, 57, 0
4, 73440, Note_on_c, 0, 61, 88
4, 73440, Note_on_c, 0, 66, 88
4, 73920, Note_on_c, 0, 66, 0
4, 73920, Note_on_c, 0, 61, 0
4, 75840, Note_on_c, 0, 45, 49
4, 75840, Note_on_c, 0, 49, 49
4, 76320, Note_on_c, 0, 49, 0
4, 76320, Note_on_c, 0, 45, 0
4, 76320, Note_on_c, 0, 44, 49
4, 76320, Note_on_c, 0, 51, 49
4, 76800, Note_on_c, 0, 51, 0
4, 76800, Note_on_c, 0, 44, 0
4, 76800, Note_on_c, 0, 37, 49
4, 76800, Note_on_c, 0, 44, 49
4, 76800, Note_on_c, 0, 49, 49
4, 77280, Note_on_c, 0, 49, 0
4, 77280, Note_on_c, 0, 44, 0
4, 77280, Note_on_c, 0, 37, 0
4, 77760, Note_on_c, 0, 45, 49
4, 77760, Note_on_c, 0, 49, 49
4, 78240, Note_on_c, 0, 49, 0
4, 78240, Note_on_c, 0, 45, 0
4, 78240, Note_on_c, 0, 44, 49
4, 78240, Note_on_c, 0, 51, 49
4, 78720, Note_on_c, 0, 51, 0
4, 78720, Note_on_c, 0, 44, 0
4, 78720, Note_on_c, 0, 37, 49
4, 78720, Note_on_c, 0, 44, 49
4, 78720, Note_on_c, 0, 49, 49
4, 79200, Note_on_c, 0, 49, 0
4, 79200, Note_on_c, 0, 44, 0
4, 79200, Note_on_c, 0, 37, 0
4, 82560, Note_on_c, 0, 37, 49
4, 83280, Note_on_c, 0, 37, 0
4, 83280, Note_on_c, 0, 37, 49
4, 83520, Note_on_c, 0, 37, 0
4, 83520, Note_on_c, 0, 37, 49
4, 85440, Note_on_c, 0, 37, 0
4, 85440, End_track
5, 0, Start_track
5, 0, Title_t, "Grand Piano"
5, 0, Program_c, 0, 0
5, 0, Control_c, 0, 7, 115
5, 0, Control_c, 0, 10, 48
5, 0, Note_on_c, 0, 49, 75
5, 480, Note_on_c, 0, 49, 0
5, 480, Note_on_c, 0, 51, 75
5, 960, Note_on_c, 0, 51, 0
5, 960, Note_on_c, 0, 52, 75
5, 1440, Note_on_c, 0, 52, 0
5, 1440, Note_on_c, 0, 45, 75
5, 1920, Note_on_c, 0, 45, 0
5, 1920, Note_on_c, 0, 44, 75
5, 2400, Note_on_c, 0, 44, 0
5, 2400, Note_on_c, 0, 42, 75
5, 2880, Note_on_c, 0, 42, 0
5, 2880, Note_on_c, 0, 43, 75
5, 3360, Note_on_c, 0, 43, 0
5, 3360, Note_on_c, 0, 44, 75
5, 3840, Note_on_c, 0, 44, 0
5, 4800, Note_on_c, 0, 39, 62
5, 5280, Note_on_c, 0, 39, 0
5, 5280, Note_on_c, 0, 40, 62
5, 5760, Note_on_c, 0, 40, 0
5, 5760, Note_on_c, 0, 47, 75
5, 6240, Note_on_c, 0, 47, 0
5, 6240, Note_on_c, 0, 45, 75
5, 6720, Note_on_c, 0, 45, 0
5, 6960, Note_on_c, 0, 54, 75
5, 6960, Note_on_c, 0, 57, 75
5, 6960, Note_on_c, 0, 61, 75
5, 8160, Note_on_c, 0, 61, 0
5, 8160, Note_on_c, 0, 57, 0
5, 8160, Note_on_c, 0, 54, 0
5, 8160, Note_on_c, 0, 57, 75
5, 8160, Note_on_c, 0, 61, 75
5, 8640, Note_on_c, 0, 61, 0
5, 8640, Note_on_c, 0, 57, 0
5, 8880, Note_on_c, 0, 54, 75
5, 8880, Note_on_c, 0, 57, 75
5, 8880, Note_on_c, 0, 61, 75
5, 10080, Note_on_c, 0, 61, 0
5, 10080, Note_on_c, 0, 57, 0
5, 10080, Note_on_c, 0, 54, 0
5, 10080, Note_on_c, 0, 57, 75
5, 10080, Note_on_c, 0, 61, 75
5, 12480, Note_on_c, 0, 61, 0
5, 12480, Note_on_c, 0, 57, 0
5, 13440, Note_on_c, 0, 42, 75
5, 13920, Note_on_c, 0, 42, 0
5, 13920, Note_on_c, 0, 44, 75
5, 14400, Note_on_c, 0, 44, 0
5, 14400, Note_on_c, 0, 49, 75
5, 14880, Note_on_c, 0, 49, 0
5, 14880, Note_on_c, 0, 52, 75
5, 15360, Note_on_c, 0, 52, 0
5, 15360, Note_on_c, 0, 42, 75
5, 15840, Note_on_c, 0, 42, 0
5, 15840, Note_on_c, 0, 44, 75
5, 16320, Note_on_c, 0, 44, 0
5, 16320, Note_on_c, 0, 49, 75
5, 16800, Note_on_c, 0, 49, 0
5, 16800, Note_on_c, 0, 52, 75
5, 17280, Note_on_c, 0, 52, 0
5, 17280, Note_on_c, 0, 42, 75
5, 17280, Note_on_c, 0, 49, 75
5, 17760, Note_on_c, 0, 49, 0
5, 17760, Note_on_c, 0, 42, 0
5, 17760, Note_on_c, 0, 45, 75
5, 17760, Note_on_c, 0, 49, 75
5, 18240, Note_on_c, 0, 49, 0
5, 18240, Note_on_c, 0, 45, 0
5, 18240, Note_on_c, 0, 49, 75
5, 18240, Note_on_c, 0, 54, 75
5, 18720, Note_on_c, 0, 54, 0
5, 18720, Note_on_c, 0, 49, 0
5, 18720, Note_on_c, 0, 48, 75
5, 18720, Note_on_c, 0, 52, 75
5, 20160, Note_on_c, 0, 52, 0
5, 20160, Note_on_c, 0, 48, 0
5, 20160, Note_on_c, 0, 47, 75
5, 20640, Note_on_c, 0, 47, 0
5, 20640, Note_on_c, 0, 47, 75
5, 21120, Note_on_c, 0, 47, 0
5, 24960, Note_on_c, 0, 44, 62
5, 25440, Note_on_c, 0, 44, 0
5, 25440, Note_on_c, 0, 45, 62
5, 25680, Note_on_c, 0, 45, 0
5, 25680, Note_on_c, 0, 46, 88
5, 25920, Note_on_c, 0, 46, 0
5, 25920, Note_on_c, 0, 47, 62
5, 26160, Note_on_c, 0, 47, 0
5, 26160, Note_on_c, 0, 48, 88
5, 26400, Note_on_c, 0, 48, 0
5, 26400, Note_on_c, 0, 49, 62
5, 26880, Note_on_c, 0, 49, 0
5, 26880, Note_on_c, 0, 44, 62
5, 27360, Note_on_c, 0, 44, 0
5, 27360, Note_on_c, 0, 45, 62
5, 27600, Note_on_c, 0, 45, 0
5, 27600, Note_on_c, 0, 46, 88
5, 27840, Note_on_c, 0, 46, 0
5, 27840, Note_on_c, 0, 47, 62
5, 28080, Note_on_c, 0, 47, 0
5, 28080, Note_on_c, 0, 48, 101
5, 28320, Note_on_c, 0, 48, 0
5, 28320, Note_on_c, 0, 49, 75
5, 28560, Note_on_c, 0, 49, 0
5, 28560, Note_on_c, 0, 51, 101
5, 28800, Note_on_c, 0, 51, 0
5, 28800, Note_on_c, 0, 52, 88
5, 29040, Note_on_c, 0, 52, 0
5, 29040, Note_on_c, 0, 54, 114
5, 30000, Note_on_c, 0, 54, 0
5, 30000, Note_on_c, 0, 57, 114
5, 30480, Note_on_c, 0, 57, 0
5, 30480, Note_on_c, 0, 49, 114
5, 30960, Note_on_c, 0, 49, 0
5, 30960, Note_on_c, 0, 54, 114
5, 31920, Note_on_c, 0, 54, 0
5, 31920, Note_on_c, 0, 57, 88
5, 32400, Note_on_c, 0, 57, 0
5, 32400, Note_on_c, 0, 49, 114
5, 32880, Note_on_c, 0, 49, 0
5, 32880, Control_c, 0, 64, 127
5, 32880, Note_on_c, 0, 45, 114
5, 33120, Note_on_c, 0, 45, 0
5, 33120, Note_on_c, 0, 44, 88
5, 33480, Note_on_c, 0, 44, 0
5, 33480, Note_on_c, 0, 45, 88
5, 33600, Note_on_c, 0, 45, 0
5, 33600, Note_on_c, 0, 47, 75
5, 33840, Note_on_c, 0, 47, 0
5, 33840, Note_on_c, 0, 45, 75
5, 34080, Note_on_c, 0, 45, 0
5, 34080, Control_c, 0, 64, 0
5, 34080, Note_on_c, 0, 44, 75
5, 34320, Note_on_c, 0, 44, 0
5, 34320, Control_c, 0, 64, 127
5, 34320, Note_on_c, 0, 45, 101
5, 34560, Note_on_c, 0, 45, 0
5, 34560, Note_on_c, 0, 44, 62
5, 34920, Note_on_c, 0, 44, 0
5, 34920, Note_on_c, 0, 45, 62
5, 35040, Note_on_c, 0, 45, 0
5, 35040, Note_on_c, 0, 47, 62
5, 35280, Note_on_c, 0, 47, 0
5, 35280, Control_c, 0, 64, 0
5, 35280, Note_on_c, 0, 45, 62
5, 35520, Note_on_c, 0, 45, 0
5, 35520, Note_on_c, 0, 44, 49
5, 35760, Note_on_c, 0, 44, 0
5, 35760, Note_on_c, 0, 49, 49
5, 36000, Note_on_c, 0, 49, 0
5, 36000, Note_on_c, 0, 47, 49
5, 36240, Note_on_c, 0, 47, 0
5, 36240, Note_on_c, 0, 45, 49
5, 36480, Note_on_c, 0, 45, 0
5, 36480, Note_on_c, 0, 44, 62
5, 36960, Note_on_c, 0, 44, 0
5, 36960, Note_on_c, 0, 45, 62
5, 37200, Note_on_c, 0, 45, 0
5, 37200, Note_on_c, 0, 46, 88
5, 37440, Note_on_c, 0, 46, 0
5, 37440, Note_on_c, 0, 47, 62
5, 37680, Note_on_c, 0, 47, 0
5, 37680, Note_on_c, 0, 48, 88
5, 37920, Note_on_c, 0, 48, 0
5, 37920, Note_on_c, 0, 49, 62
5, 38400, Note_on_c, 0, 49, 0
5, 38400, Note_on_c, 0, 44, 62
5, 38880, Note_on_c, 0, 44, 0
5, 38880, Note_on_c, 0, 45, 62
5, 39120, Note_on_c, 0, 45, 0
5, 39120, Note_on_c, 0, 46, 88
5, 39360, Note_on_c, 0, 46, 0
5, 39360, Note_on_c, 0, 47, 62
5, 39600, Note_on_c, 0, 47, 0
5, 39600, Note_on_c, 0, 48, 101
5, 39840, Note_on_c, 0, 48, 0
5, 39840, Note_on_c, 0, 49, 75
5, 40080, Note_on_c, 0, 49, 0
5, 40080, Note_on_c, 0, 51, 101
5, 40320, Note_on_c, 0, 51, 0
5, 40320, Note_on_c, 0, 52, 88
5, 40560, Note_on_c, 0, 52, 0
5, 40560, Note_on_c, 0, 54, 114
5, 41520, Note_on_c, 0, 54, 0
5, 41520, Note_on_c, 0, 57, 114
5, 42000, Note_on_c, 0, 57, 0
5, 42000, Note_on_c, 0, 49, 114
5, 42240, Note_on_c, 0, 49, 0
5, 42240, Note_on_c, 0, 49, 88
5, 42480, Note_on_c, 0, 49, 0
5, 42480, Note_on_c, 0, 54, 114
5, 43440, Note_on_c, 0, 54, 0
5, 43440, Note_on_c, 0, 57, 88
5, 43920, Note_on_c, 0, 57, 0
5, 43920, Note_on_c, 0, 49, 114
5, 44400, Note_on_c, 0, 49, 0
5, 44400, Note_on_c, 0, 54, 88
5, 46080, Note_on_c, 0, 54, 0
5, 46560, Note_on_c, 0, 42, 62
5, 48000, Note_on_c, 0, 42, 0
5, 50880, Note_on_c, 0, 49, 75
5, 51360, Note_on_c, 0, 49, 0
5, 51360, Note_on_c, 0, 51, 75
5, 51840, Note_on_c, 0, 51, 0
5, 51840, Note_on_c, 0, 52, 75
5, 52320, Note_on_c, 0, 52, 0
5, 52320, Note_on_c, 0, 45, 75
5, 52800, Note_on_c, 0, 45, 0
5, 52800, Note_on_c, 0, 44, 75
5, 53280, Note_on_c, 0, 44, 0
5, 53280, Note_on_c, 0, 42, 75
5, 53760, Note_on_c, 0, 42, 0
5, 53760, Note_on_c, 0, 43, 75
5, 54240, Note_on_c, 0, 43, 0
5, 54240, Note_on_c, 0, 44, 75
5, 54720, Note_on_c, 0, 44, 0
5, 55680, Note_on_c, 0, 39, 62
5, 56160, Note_on_c, 0, 39, 0
5, 56160, Note_on_c, 0, 40, 62
5, 56640, Note_on_c, 0, 40, 0
5, 56640, Note_on_c, 0, 47, 75
5, 57120, Note_on_c, 0, 47, 0
5, 57120, Note_on_c, 0, 45, 75
5, 57600, Note_on_c, 0, 45, 0
5, 57840, Note_on_c, 0, 54, 75
5, 57840, Note_on_c, 0, 57, 75
5, 57840, Note_on_c, 0, 61, 75
5, 59040, Note_on_c, 0, 61, 0
5, 59040, Note_on_c, 0, 57, 0
5, 59040, Note_on_c, 0, 54, 0
5, 59040, Note_on_c, 0, 57, 75
5, 59040, Note_on_c, 0, 61, 75
5, 59520, Note_on_c, 0, 61, 0
5, 59520, Note_on_c, 0, 57, 0
5, 59760, Note_on_c, 0, 54, 75
5, 59760, Note_on_c, 0, 57, 75
5, 59760, Note_on_c, 0, 61, 75
5, 60960, Note_on_c, 0, 61, 0
5, 60960, Note_on_c, 0, 57, 0
5, 60960, Note_on_c, 0, 54, 0
5, 60960, Note_on_c, 0, 57, 75
5, 60960, Note_on_c, 0, 61, 75
5, 61440, Note_on_c, 0, 61, 0
5, 61440, Note_on_c, 0, 57, 0
5, 67200, Note_on_c, 0, 42, 75
5, 67680, Note_on_c, 0, 42, 0
5, 67680, Note_on_c, 0, 44, 75
5, 68160, Note_on_c, 0, 44, 0
5, 68160, Note_on_c, 0, 49, 75
5, 68640, Note_on_c, 0, 49, 0
5, 68640, Note_on_c, 0, 52, 75
5, 69120, Note_on_c, 0, 52, 0
5, 69120, Note_on_c, 0, 42, 75
5, 69600, Note_on_c, 0, 42, 0
5, 69600, Note_on_c, 0, 44, 75
5, 70080, Note_on_c, 0, 44, 0
5, 70080, Note_on_c, 0, 49, 75
5, 70560, Note_on_c, 0, 49, 0
5, 70560, Note_on_c, 0, 52, 75
5, 71040, Note_on_c, 0, 52, 0
5, 71040, Note_on_c, 0, 42, 75
5, 71040, Note_on_c, 0, 49, 75
5, 71520, Note_on_c, 0, 49, 0
5, 71520, Note_on_c, 0, 42, 0
5, 71520, Note_on_c, 0, 45, 75
5, 71520, Note_on_c, 0, 51, 75
5, 72000, Note_on_c, 0, 51, 0
5, 72000, Note_on_c, 0, 45, 0
5, 72000, Note_on_c, 0, 49, 88
5, 72000, Note_on_c, 0, 56, 88
5, 72480, Note_on_c, 0, 56, 0
5, 72480, Note_on_c, 0, 49, 0
5, 72480, Note_on_c, 0, 54, 88
5, 72480, Note_on_c, 0, 57, 88
5, 72960, Note_on_c, 0, 57, 0
5, 72960, Note_on_c, 0, 54, 0
5, 72960, End_track
0, 0, End_of_file
