0, 0, Header, 1, 5, 480
1, 0, Start_track
1, 0, Title_t, "tchaikovsky sleeping beauty act0 2 scene dansante"
1, 0, Copyright_t, "Adaptation for Disklavier pianos, by: Robert C. Kuhmann (c) 2012."
1, 0, Text_t, "Seq. (c) by: Segundo G. Yogore,  2006\012"
1, 0, Time_signature, 3, 2, 24, 8
1, 0, Key_signature, -1, "major"
1, 0, Tempo, 461538
1, 80640, Key_signature, 3, "major"
1, 80640, Tempo, 400000
1, 136800, Time_signature, 4, 2, 24, 8
1, 148320, Time_signature, 3, 2, 24, 8
1, 159840, Tempo, 352941
1, 205920, Tempo, 250000
1, 236160, Tempo, 352941
1, 245040, Tempo, 359281
1, 245280, Tempo, 365854
1, 245520, Tempo, 372671
1, 245760, Tempo, 382166
1, 246000, Tempo, 389610
1, 246240, Tempo, 397351
1, 246480, Tempo, 405405
1, 246720, Tempo, 416667
1, 247680, Tempo, 352941
1, 249120, Tempo, 352941
1, 250560, Tempo, 352941
1, 252000, Tempo, 352941
1, 298320, Tempo, 359281
1, 298560, Tempo, 365854
1, 298800, Tempo, 372671
1, 299040, Tempo, 382166
1, 299280, Tempo, 389610
1, 299520, Tempo, 397351
1, 299760, Tempo, 405405
1, 300000, Tempo, 416667
1, 303840, Time_signature, 8, 2, 24, 8
1, 303840, End_track
2, 0, Start_track
2, 0, Title_t, "Grand Piano"
2, 0, Program_c, 0, 0
2, 0, Control_c, 0, 7, 115
2, 0, Control_c, 0, 10, 86
2, 0, Control_c, 0, 64, 127
2, 0, Note_on_c, 0, 57, 54
2, 240, Note_on_c, 0, 57, 0
2, 240, Note_on_c, 0, 60, 54
2, 480, Note_on_c, 0, 60, 0
2, 480, Note_on_c, 0, 65, 54
2, 720, Note_on_c, 0, 65, 0
2, 720, Note_on_c, 0, 69, 54
2, 960, Note_on_c, 0, 69, 0
2, 960, Note_on_c, 0, 65, 54
2, 1200, Note_on_c, 0, 65, 0
2, 1200, Control_c, 0, 64, 0
2, 1200, Note_on_c, 0, 60, 54
2, 1440, Note_on_c, 0, 60, 0
2, 1440, Control_c, 0, 64, 127
2, 1440, Note_on_c, 0, 57, 54
2, 1680, Note_on_c, 0, 57, 0
2, 1680, Note_on_c, 0, 60, 54
2, 1920, Note_on_c, 0, 60, 0
2, 1920, Note_on_c, 0, 65, 54
2, 2160, Note_on_c, 0, 65, 0
2, 2160, Note_on_c, 0, 69, 54
2, 2400, Note_on_c, 0, 69, 0
2, 2400, Note_on_c, 0, 65, 54
2, 2640, Note_on_c, 0, 65, 0
2, 2640, Control_c, 0, 64, 0
2, 2640, Note_on_c, 0, 60, 54
2, 2880, Note_on_c, 0, 60, 0
2, 3360, Note_on_c, 0, 72, 54
2, 3360, Note_on_c, 0, 77, 54
2, 3360, Note_on_c, 0, 81, 54
2, 3840, Note_on_c, 0, 81, 0
2, 3840, Note_on_c, 0, 77, 0
2, 3840, Note_on_c, 0, 72, 0
2, 3840, Note_on_c, 0, 77, 67
2, 3840, Note_on_c, 0, 81, 67
2, 3840, Note_on_c, 0, 84, 67
2, 4320, Note_on_c, 0, 84, 0
2, 4320, Note_on_c, 0, 81, 0
2, 4320, Note_on_c, 0, 77, 0
2, 4320, Note_on_c, 0, 89, 67
2, 4800, Note_on_c, 0, 89, 0
2, 4800, Note_on_c, 0, 88, 67
2, 5280, Note_on_c, 0, 88, 0
2, 5280, Note_on_c, 0, 86, 54
2, 5760, Note_on_c, 0, 86, 0
2, 5760, Note_on_c, 0, 84, 54
2, 6240, Note_on_c, 0, 84, 0
2, 6240, Note_on_c, 0, 83, 54
2, 6720, Note_on_c, 0, 83, 0
2, 6720, Note_on_c, 0, 82, 54
2, 7200, Note_on_c, 0, 82, 0
2, 7200, Note_on_c, 0, 81, 54
2, 7680, Note_on_c, 0, 81, 0
2, 7680, Note_on_c, 0, 79, 54
2, 8160, Note_on_c, 0, 79, 0
2, 8160, Note_on_c, 0, 77, 54
2, 8640, Note_on_c, 0, 77, 0
2, 8640, Note_on_c, 0, 86, 54
2, 9600, Note_on_c, 0, 86, 0
2, 9600, Note_on_c, 0, 84, 54
2, 10080, Note_on_c, 0, 84, 0
2, 10080, Note_on_c, 0, 68, 80
2, 13440, Note_on_c, 0, 68, 0
2, 13440, Note_on_c, 0, 67, 54
2, 13920, Note_on_c, 0, 67, 0
2, 13920, Note_on_c, 0, 60, 54
2, 14400, Note_on_c, 0, 60, 0
2, 14400, Note_on_c, 0, 65, 54
2, 14880, Note_on_c, 0, 65, 0
2, 14880, Note_on_c, 0, 72, 54
2, 14880, Note_on_c, 0, 77, 54
2, 14880, Note_on_c, 0, 81, 54
2, 15360, Note_on_c, 0, 81, 0
2, 15360, Note_on_c, 0, 77, 0
2, 15360, Note_on_c, 0, 72, 0
2, 15360, Note_on_c, 0, 77, 54
2, 15360, Note_on_c, 0, 81, 54
2, 15360, Note_on_c, 0, 84, 54
2, 15840, Note_on_c, 0, 84, 0
2, 15840, Note_on_c, 0, 81, 0
2, 15840, Note_on_c, 0, 77, 0
2, 15840, Note_on_c, 0, 89, 54
2, 16320, Note_on_c, 0, 89, 0
2, 16320, Note_on_c, 0, 88, 54
2, 16800, Note_on_c, 0, 88, 0
2, 16800, Note_on_c, 0, 86, 54
2, 17280, Note_on_c, 0, 86, 0
2, 17280, Note_on_c, 0, 84, 54
2, 17760, Note_on_c, 0, 84, 0
2, 17760, Note_on_c, 0, 83, 54
2, 18240, Note_on_c, 0, 83, 0
2, 18240, Note_on_c, 0, 82, 54
2, 18720, Note_on_c, 0, 82, 0
2, 18720, Note_on_c, 0, 81, 54
2, 19200, Note_on_c, 0, 81, 0
2, 19200, Note_on_c, 0, 79, 54
2, 19680, Note_on_c, 0, 79, 0
2, 19680, Note_on_c, 0, 77, 54
2, 20160, Note_on_c, 0, 77, 0
2, 20160, Note_on_c, 0, 86, 54
2, 21120, Note_on_c, 0, 86, 0
2, 21120, Note_on_c, 0, 85, 54
2, 21600, Note_on_c, 0, 85, 0
2, 21600, Note_on_c, 0, 70, 80
2, 24960, Note_on_c, 0, 70, 0
2, 24960, Note_on_c, 0, 69, 54
2, 25440, Note_on_c, 0, 69, 0
2, 25440, Note_on_c, 0, 64, 54
2, 25920, Note_on_c, 0, 64, 0
2, 26400, Note_on_c, 0, 65, 54
2, 26400, Note_on_c, 0, 69, 54
2, 26400, Note_on_c, 0, 74, 54
2, 26880, Note_on_c, 0, 74, 0
2, 26880, Note_on_c, 0, 69, 0
2, 26880, Note_on_c, 0, 65, 0
2, 26880, Note_on_c, 0, 69, 54
2, 26880, Note_on_c, 0, 74, 54
2, 26880, Note_on_c, 0, 77, 54
2, 27360, Note_on_c, 0, 77, 0
2, 27360, Note_on_c, 0, 74, 0
2, 27360, Note_on_c, 0, 69, 0
2, 27360, Note_on_c, 0, 74, 67
2, 27360, Note_on_c, 0, 77, 67
2, 27360, Note_on_c, 0, 81, 67
2, 27840, Note_on_c, 0, 81, 0
2, 27840, Note_on_c, 0, 77, 0
2, 27840, Note_on_c, 0, 74, 0
2, 27840, Note_on_c, 0, 77, 67
2, 27840, Note_on_c, 0, 81, 67
2, 27840, Note_on_c, 0, 86, 67
2, 28320, Note_on_c, 0, 86, 0
2, 28320, Note_on_c, 0, 81, 0
2, 28320, Note_on_c, 0, 77, 0
2, 28320, Note_on_c, 0, 81, 67
2, 28320, Note_on_c, 0, 86, 67
2, 28320, Note_on_c, 0, 89, 67
2, 28800, Note_on_c, 0, 89, 0
2, 28800, Note_on_c, 0, 86, 0
2, 28800, Note_on_c, 0, 81, 0
2, 28800, Note_on_c, 0, 79, 67
2, 28800, Note_on_c, 0, 84, 67
2, 28800, Note_on_c, 0, 88, 67
2, 30240, Note_on_c, 0, 88, 0
2, 30240, Note_on_c, 0, 84, 0
2, 30240, Note_on_c, 0, 79, 0
2, 30240, Note_on_c, 0, 83, 67
2, 30240, Note_on_c, 0, 88, 67
2, 31200, Note_on_c, 0, 88, 0
2, 31200, Note_on_c, 0, 83, 0
2, 31200, Note_on_c, 0, 86, 67
2, 31680, Note_on_c, 0, 86, 0
2, 31680, Note_on_c, 0, 76, 67
2, 31680, Note_on_c, 0, 79, 67
2, 31680, Note_on_c, 0, 84, 67
2, 32160, Note_on_c, 0, 84, 0
2, 32160, Note_on_c, 0, 79, 0
2, 32160, Note_on_c, 0, 76, 0
2, 32160, Note_on_c, 0, 74, 67
2, 32640, Note_on_c, 0, 74, 0
2, 32640, Note_on_c, 0, 72, 67
2, 33120, Note_on_c, 0, 72, 0
2, 33120, Note_on_c, 0, 70, 67
2, 33600, Note_on_c, 0, 70, 0
2, 33600, Note_on_c, 0, 69, 67
2, 34080, Note_on_c, 0, 69, 0
2, 34080, Note_on_c, 0, 67, 67
2, 34560, Note_on_c, 0, 67, 0
2, 34560, Note_on_c, 0, 66, 67
2, 35040, Note_on_c, 0, 66, 0
2, 35040, Note_on_c, 0, 69, 67
2, 35520, Note_on_c, 0, 69, 0
2, 35520, Note_on_c, 0, 66, 67
2, 36000, Note_on_c, 0, 66, 0
2, 36000, Note_on_c, 0, 67, 67
2, 36960, Note_on_c, 0, 67, 0
2, 36960, Note_on_c, 0, 72, 67
2, 37440, Note_on_c, 0, 72, 0
2, 37440, Note_on_c, 0, 67, 67
2, 37920, Note_on_c, 0, 67, 0
2, 37920, Note_on_c, 0, 74, 67
2, 37920, Note_on_c, 0, 86, 67
2, 38400, Note_on_c, 0, 86, 0
2, 38400, Note_on_c, 0, 74, 0
2, 38400, Note_on_c, 0, 72, 67
2, 38400, Note_on_c, 0, 84, 67
2, 38880, Note_on_c, 0, 84, 0
2, 38880, Note_on_c, 0, 72, 0
2, 38880, Note_on_c, 0, 70, 67
2, 38880, Note_on_c, 0, 82, 67
2, 39360, Note_on_c, 0, 82, 0
2, 39360, Note_on_c, 0, 70, 0
2, 39360, Note_on_c, 0, 69, 67
2, 39360, Note_on_c, 0, 81, 67
2, 39840, Note_on_c, 0, 81, 0
2, 39840, Note_on_c, 0, 69, 0
2, 39840, Note_on_c, 0, 67, 67
2, 39840, Note_on_c, 0, 79, 67
2, 40320, Note_on_c, 0, 79, 0
2, 40320, Note_on_c, 0, 67, 0
2, 40320, Note_on_c, 0, 66, 67
2, 40320, Note_on_c, 0, 78, 67
2, 40800, Note_on_c, 0, 78, 0
2, 40800, Note_on_c, 0, 66, 0
2, 40800, Note_on_c, 0, 69, 67
2, 40800, Note_on_c, 0, 81, 67
2, 41280, Note_on_c, 0, 81, 0
2, 41280, Note_on_c, 0, 69, 0
2, 41280, Note_on_c, 0, 66, 67
2, 41280, Note_on_c, 0, 78, 67
2, 41760, Note_on_c, 0, 78, 0
2, 41760, Note_on_c, 0, 66, 0
2, 41760, Note_on_c, 0, 67, 67
2, 41760, Note_on_c, 0, 79, 67
2, 42720, Note_on_c, 0, 79, 0
2, 42720, Note_on_c, 0, 67, 0
2, 42720, Note_on_c, 0, 72, 67
2, 42720, Note_on_c, 0, 84, 67
2, 43200, Note_on_c, 0, 84, 0
2, 43200, Note_on_c, 0, 72, 0
2, 43200, Note_on_c, 0, 67, 67
2, 43200, Note_on_c, 0, 79, 67
2, 44160, Note_on_c, 0, 79, 0
2, 44160, Note_on_c, 0, 67, 0
2, 44160, Note_on_c, 0, 72, 54
2, 44640, Note_on_c, 0, 72, 0
2, 44640, Note_on_c, 0, 67, 54
2, 45600, Note_on_c, 0, 67, 0
2, 45600, Note_on_c, 0, 60, 54
2, 46080, Note_on_c, 0, 60, 0
2, 46320, Note_on_c, 0, 53, 54
2, 46560, Note_on_c, 0, 53, 0
2, 46560, Note_on_c, 0, 72, 54
2, 46560, Note_on_c, 0, 77, 54
2, 46560, Note_on_c, 0, 81, 54
2, 47040, Note_on_c, 0, 81, 0
2, 47040, Note_on_c, 0, 77, 0
2, 47040, Note_on_c, 0, 72, 0
2, 47040, Note_on_c, 0, 77, 67
2, 47040, Note_on_c, 0, 81, 67
2, 47040, Note_on_c, 0, 84, 67
2, 47520, Note_on_c, 0, 84, 0
2, 47520, Note_on_c, 0, 81, 0
2, 47520, Note_on_c, 0, 77, 0
2, 47520, Note_on_c, 0, 89, 67
2, 48000, Note_on_c, 0, 89, 0
2, 48000, Note_on_c, 0, 88, 67
2, 48480, Note_on_c, 0, 88, 0
2, 48480, Note_on_c, 0, 86, 54
2, 48960, Note_on_c, 0, 86, 0
2, 48960, Note_on_c, 0, 84, 54
2, 49440, Note_on_c, 0, 84, 0
2, 49440, Note_on_c, 0, 83, 54
2, 49920, Note_on_c, 0, 83, 0
2, 49920, Note_on_c, 0, 82, 54
2, 50400, Note_on_c, 0, 82, 0
2, 50400, Note_on_c, 0, 81, 54
2, 50880, Note_on_c, 0, 81, 0
2, 50880, Note_on_c, 0, 79, 54
2, 51360, Note_on_c, 0, 79, 0
2, 51360, Note_on_c, 0, 77, 54
2, 51840, Note_on_c, 0, 77, 0
2, 51840, Note_on_c, 0, 86, 54
2, 52800, Note_on_c, 0, 86, 0
2, 52800, Note_on_c, 0, 84, 54
2, 53280, Note_on_c, 0, 84, 0
2, 53280, Note_on_c, 0, 68, 80
2, 56640, Note_on_c, 0, 68, 0
2, 56640, Note_on_c, 0, 67, 54
2, 57120, Note_on_c, 0, 67, 0
2, 57120, Note_on_c, 0, 60, 54
2, 57600, Note_on_c, 0, 60, 0
2, 57600, Note_on_c, 0, 65, 54
2, 58080, Note_on_c, 0, 65, 0
2, 58080, Note_on_c, 0, 72, 54
2, 58080, Note_on_c, 0, 77, 54
2, 58080, Note_on_c, 0, 81, 54
2, 58560, Note_on_c, 0, 81, 0
2, 58560, Note_on_c, 0, 77, 0
2, 58560, Note_on_c, 0, 72, 0
2, 58560, Note_on_c, 0, 77, 54
2, 58560, Note_on_c, 0, 81, 54
2, 58560, Note_on_c, 0, 84, 54
2, 59040, Note_on_c, 0, 84, 0
2, 59040, Note_on_c, 0, 81, 0
2, 59040, Note_on_c, 0, 77, 0
2, 59040, Note_on_c, 0, 89, 54
2, 59520, Note_on_c, 0, 89, 0
2, 59520, Note_on_c, 0, 88, 54
2, 60000, Note_on_c, 0, 88, 0
2, 60000, Note_on_c, 0, 86, 54
2, 60480, Note_on_c, 0, 86, 0
2, 60480, Note_on_c, 0, 84, 54
2, 60960, Note_on_c, 0, 84, 0
2, 60960, Note_on_c, 0, 83, 54
2, 61440, Note_on_c, 0, 83, 0
2, 61440, Note_on_c, 0, 82, 54
2, 61920, Note_on_c, 0, 82, 0
2, 61920, Note_on_c, 0, 81, 54
2, 62400, Note_on_c, 0, 81, 0
2, 62400, Note_on_c, 0, 79, 54
2, 62880, Note_on_c, 0, 79, 0
2, 62880, Note_on_c, 0, 77, 54
2, 63360, Note_on_c, 0, 77, 0
2, 63360, Note_on_c, 0, 86, 80
2, 64320, Note_on_c, 0, 86, 0
2, 64320, Note_on_c, 0, 84, 54
2, 64800, Note_on_c, 0, 84, 0
2, 64800, Note_on_c, 0, 68, 80
2, 68160, Note_on_c, 0, 68, 0
2, 68160, Note_on_c, 0, 67, 54
2, 68640, Note_on_c, 0, 67, 0
2, 68640, Note_on_c, 0, 60, 54
2, 69120, Note_on_c, 0, 60, 0
2, 69120, Note_on_c, 0, 65, 54
2, 69600, Note_on_c, 0, 65, 0
2, 69600, Note_on_c, 0, 77, 67
2, 69600, Note_on_c, 0, 81, 67
2, 69600, Note_on_c, 0, 86, 67
2, 70080, Note_on_c, 0, 86, 0
2, 70080, Note_on_c, 0, 81, 0
2, 70080, Note_on_c, 0, 77, 0
2, 70080, Note_on_c, 0, 77, 67
2, 70080, Note_on_c, 0, 81, 67
2, 70080, Note_on_c, 0, 84, 67
2, 70560, Note_on_c, 0, 84, 0
2, 70560, Note_on_c, 0, 81, 0
2, 70560, Note_on_c, 0, 77, 0
2, 71040, Note_on_c, 0, 74, 67
2, 71520, Note_on_c, 0, 74, 0
2, 71520, Note_on_c, 0, 72, 67
2, 72000, Note_on_c, 0, 72, 0
2, 72000, Note_on_c, 0, 65, 67
2, 72000, Note_on_c, 0, 69, 67
2, 72000, Note_on_c, 0, 72, 67
2, 72000, Note_on_c, 0, 77, 67
2, 72480, Note_on_c, 0, 77, 0
2, 72480, Note_on_c, 0, 65, 0
2, 72480, Note_on_c, 0, 69, 0
2, 72480, Note_on_c, 0, 72, 0
2, 72480, Note_on_c, 0, 77, 67
2, 72480, Note_on_c, 0, 81, 67
2, 72480, Note_on_c, 0, 86, 67
2, 72960, Note_on_c, 0, 86, 0
2, 72960, Note_on_c, 0, 81, 0
2, 72960, Note_on_c, 0, 77, 0
2, 72960, Note_on_c, 0, 77, 67
2, 72960, Note_on_c, 0, 81, 67
2, 72960, Note_on_c, 0, 84, 67
2, 73440, Note_on_c, 0, 84, 0
2, 73440, Note_on_c, 0, 81, 0
2, 73440, Note_on_c, 0, 77, 0
2, 73920, Note_on_c, 0, 74, 67
2, 74400, Note_on_c, 0, 74, 0
2, 74400, Note_on_c, 0, 72, 67
2, 74880, Note_on_c, 0, 72, 0
2, 74880, Note_on_c, 0, 65, 67
2, 74880, Note_on_c, 0, 69, 67
2, 74880, Note_on_c, 0, 72, 67
2, 74880, Note_on_c, 0, 77, 67
2, 75360, Note_on_c, 0, 77, 0
2, 75360, Note_on_c, 0, 65, 0
2, 75360, Note_on_c, 0, 69, 0
2, 75360, Note_on_c, 0, 72, 0
2, 75360, Note_on_c, 0, 69, 67
2, 75840, Note_on_c, 0, 69, 0
2, 75840, Note_on_c, 0, 69, 67
2, 75840, Note_on_c, 0, 72, 67
2, 76320, Note_on_c, 0, 72, 0
2, 76320, Note_on_c, 0, 69, 0
2, 76320, Note_on_c, 0, 69, 67
2, 76320, Note_on_c, 0, 72, 67
2, 76320, Note_on_c, 0, 77, 67
2, 76800, Note_on_c, 0, 77, 0
2, 76800, Note_on_c, 0, 72, 0
2, 76800, Note_on_c, 0, 69, 0
2, 76800, Note_on_c, 0, 72, 67
2, 76800, Note_on_c, 0, 77, 67
2, 76800, Note_on_c, 0, 81, 67
2, 77280, Note_on_c, 0, 81, 0
2, 77280, Note_on_c, 0, 77, 0
2, 77280, Note_on_c, 0, 72, 0
2, 77280, Note_on_c, 0, 77, 67
2, 77280, Note_on_c, 0, 81, 67
2, 77280, Note_on_c, 0, 84, 67
2, 77760, Note_on_c, 0, 84, 0
2, 77760, Note_on_c, 0, 81, 0
2, 77760, Note_on_c, 0, 77, 0
2, 77760, Note_on_c, 0, 81, 67
2, 77760, Note_on_c, 0, 84, 67
2, 77760, Note_on_c, 0, 89, 67
2, 78240, Note_on_c, 0, 89, 0
2, 78240, Note_on_c, 0, 84, 0
2, 78240, Note_on_c, 0, 81, 0
2, 78240, Note_on_c, 0, 69, 67
2, 78720, Note_on_c, 0, 69, 0
2, 78720, Note_on_c, 0, 69, 67
2, 78720, Note_on_c, 0, 72, 67
2, 79200, Note_on_c, 0, 72, 0
2, 79200, Note_on_c, 0, 69, 0
2, 79200, Note_on_c, 0, 69, 67
2, 79200, Note_on_c, 0, 72, 67
2, 79200, Note_on_c, 0, 77, 67
2, 79440, Note_on_c, 0, 77, 0
2, 79440, Note_on_c, 0, 72, 0
2, 79440, Note_on_c, 0, 69, 0
2, 79680, Note_on_c, 0, 69, 93
2, 79680, Note_on_c, 0, 72, 93
2, 79680, Note_on_c, 0, 81, 93
2, 80160, Note_on_c, 0, 81, 0
2, 80160, Note_on_c, 0, 72, 0
2, 80160, Note_on_c, 0, 69, 0
2, 80160, Note_on_c, 0, 69, 93
2, 80160, Note_on_c, 0, 72, 93
2, 80160, Note_on_c, 0, 81, 93
2, 80640, Note_on_c, 0, 81, 0
2, 80640, Note_on_c, 0, 72, 0
2, 80640, Note_on_c, 0, 69, 0
2, 80640, Note_on_c, 0, 69, 93
2, 80640, Note_on_c, 0, 81, 93
2, 81360, Note_on_c, 0, 81, 0
2, 81360, Note_on_c, 0, 69, 0
2, 81360, Note_on_c, 0, 71, 93
2, 81360, Note_on_c, 0, 83, 93
2, 81840, Note_on_c, 0, 83, 0
2, 81840, Note_on_c, 0, 71, 0
2, 81840, Note_on_c, 0, 73, 93
2, 81840, Note_on_c, 0, 85, 93
2, 82320, Note_on_c, 0, 85, 0
2, 82320, Note_on_c, 0, 73, 0
2, 82320, Note_on_c, 0, 74, 93
2, 82320, Note_on_c, 0, 86, 93
2, 82800, Note_on_c, 0, 86, 0
2, 82800, Note_on_c, 0, 74, 0
2, 82800, Note_on_c, 0, 75, 106
2, 82800, Note_on_c, 0, 87, 106
2, 83280, Note_on_c, 0, 87, 0
2, 83280, Note_on_c, 0, 75, 0
2, 83280, Note_on_c, 0, 76, 106
2, 83280, Note_on_c, 0, 88, 106
2, 83520, Note_on_c, 0, 88, 0
2, 83520, Note_on_c, 0, 76, 0
2, 83520, Note_on_c, 0, 78, 106
2, 83520, Note_on_c, 0, 90, 106
2, 84480, Note_on_c, 0, 90, 0
2, 84480, Note_on_c, 0, 78, 0
2, 84480, Note_on_c, 0, 76, 93
2, 84480, Note_on_c, 0, 88, 93
2, 84960, Note_on_c, 0, 88, 0
2, 84960, Note_on_c, 0, 76, 0
2, 84960, Note_on_c, 0, 81, 93
2, 84960, Note_on_c, 0, 84, 93
2, 85200, Note_on_c, 0, 84, 0
2, 85200, Note_on_c, 0, 81, 0
2, 85440, Note_on_c, 0, 69, 93
2, 85440, Note_on_c, 0, 81, 93
2, 85920, Note_on_c, 0, 81, 0
2, 85920, Note_on_c, 0, 69, 0
2, 85920, Note_on_c, 0, 69, 93
2, 85920, Note_on_c, 0, 81, 93
2, 86400, Note_on_c, 0, 81, 0
2, 86400, Note_on_c, 0, 69, 0
2, 86400, Note_on_c, 0, 69, 93
2, 86400, Note_on_c, 0, 81, 93
2, 87120, Note_on_c, 0, 81, 0
2, 87120, Note_on_c, 0, 69, 0
2, 87120, Note_on_c, 0, 71, 93
2, 87120, Note_on_c, 0, 83, 93
2, 87600, Note_on_c, 0, 83, 0
2, 87600, Note_on_c, 0, 71, 0
2, 87600, Note_on_c, 0, 73, 93
2, 87600, Note_on_c, 0, 85, 93
2, 88080, Note_on_c, 0, 85, 0
2, 88080, Note_on_c, 0, 73, 0
2, 88080, Note_on_c, 0, 74, 93
2, 88080, Note_on_c, 0, 86, 93
2, 88560, Note_on_c, 0, 86, 0
2, 88560, Note_on_c, 0, 74, 0
2, 88560, Note_on_c, 0, 75, 106
2, 88560, Note_on_c, 0, 87, 106
2, 89040, Note_on_c, 0, 87, 0
2, 89040, Note_on_c, 0, 75, 0
2, 89040, Note_on_c, 0, 76, 106
2, 89040, Note_on_c, 0, 88, 106
2, 89280, Note_on_c, 0, 88, 0
2, 89280, Note_on_c, 0, 76, 0
2, 89280, Note_on_c, 0, 78, 106
2, 89280, Note_on_c, 0, 90, 106
2, 91200, Note_on_c, 0, 90, 0
2, 91200, Note_on_c, 0, 78, 0
2, 91200, Note_on_c, 0, 68, 106
2, 91200, Note_on_c, 0, 80, 106
2, 91680, Note_on_c, 0, 80, 0
2, 91680, Note_on_c, 0, 68, 0
2, 91680, Note_on_c, 0, 70, 106
2, 91680, Note_on_c, 0, 82, 106
2, 92160, Note_on_c, 0, 82, 0
2, 92160, Note_on_c, 0, 70, 0
2, 92160, Note_on_c, 0, 76, 106
2, 92160, Note_on_c, 0, 88, 106
2, 92640, Note_on_c, 0, 88, 0
2, 92640, Note_on_c, 0, 76, 0
2, 92640, Note_on_c, 0, 79, 106
2, 92640, Note_on_c, 0, 91, 106
2, 93120, Note_on_c, 0, 91, 0
2, 93120, Note_on_c, 0, 79, 0
2, 93120, Note_on_c, 0, 78, 106
2, 93120, Note_on_c, 0, 90, 106
2, 94080, Note_on_c, 0, 90, 0
2, 94080, Note_on_c, 0, 78, 0
2, 94080, Note_on_c, 0, 68, 106
2, 94080, Note_on_c, 0, 80, 106
2, 94560, Note_on_c, 0, 80, 0
2, 94560, Note_on_c, 0, 68, 0
2, 94560, Note_on_c, 0, 70, 106
2, 94560, Note_on_c, 0, 82, 106
2, 95040, Note_on_c, 0, 82, 0
2, 95040, Note_on_c, 0, 70, 0
2, 95040, Note_on_c, 0, 76, 106
2, 95040, Note_on_c, 0, 88, 106
2, 95520, Note_on_c, 0, 88, 0
2, 95520, Note_on_c, 0, 76, 0
2, 95520, Note_on_c, 0, 79, 106
2, 95520, Note_on_c, 0, 91, 106
2, 96000, Note_on_c, 0, 91, 0
2, 96000, Note_on_c, 0, 79, 0
2, 96000, Note_on_c, 0, 78, 106
2, 96000, Note_on_c, 0, 90, 106
2, 96960, Note_on_c, 0, 90, 0
2, 96960, Note_on_c, 0, 78, 0
2, 96960, Note_on_c, 0, 76, 106
2, 96960, Note_on_c, 0, 88, 106
2, 97440, Note_on_c, 0, 88, 0
2, 97440, Note_on_c, 0, 76, 0
2, 97440, Note_on_c, 0, 74, 106
2, 97440, Note_on_c, 0, 86, 106
2, 98400, Note_on_c, 0, 86, 0
2, 98400, Note_on_c, 0, 74, 0
2, 98400, Note_on_c, 0, 73, 106
2, 98400, Note_on_c, 0, 85, 106
2, 98880, Note_on_c, 0, 85, 0
2, 98880, Note_on_c, 0, 73, 0
2, 98880, Note_on_c, 0, 71, 106
2, 98880, Note_on_c, 0, 83, 106
2, 99840, Note_on_c, 0, 83, 0
2, 99840, Note_on_c, 0, 71, 0
2, 99840, Note_on_c, 0, 69, 106
2, 99840, Note_on_c, 0, 81, 106
2, 100320, Note_on_c, 0, 81, 0
2, 100320, Note_on_c, 0, 69, 0
2, 100320, Note_on_c, 0, 68, 106
2, 100320, Note_on_c, 0, 80, 106
2, 100800, Note_on_c, 0, 80, 0
2, 100800, Note_on_c, 0, 68, 0
2, 100800, Note_on_c, 0, 66, 106
2, 100800, Note_on_c, 0, 78, 106
2, 101280, Note_on_c, 0, 78, 0
2, 101280, Note_on_c, 0, 66, 0
2, 101280, Note_on_c, 0, 68, 106
2, 101280, Note_on_c, 0, 80, 106
2, 101760, Note_on_c, 0, 80, 0
2, 101760, Note_on_c, 0, 68, 0
2, 101760, Note_on_c, 0, 66, 106
2, 101760, Note_on_c, 0, 78, 106
2, 102240, Note_on_c, 0, 78, 0
2, 102240, Note_on_c, 0, 66, 0
2, 102240, Note_on_c, 0, 65, 106
2, 102240, Note_on_c, 0, 69, 106
2, 102240, Note_on_c, 0, 72, 106
2, 102240, Note_on_c, 0, 77, 106
2, 102720, Note_on_c, 0, 77, 0
2, 102720, Note_on_c, 0, 65, 0
2, 102720, Note_on_c, 0, 69, 0
2, 102720, Note_on_c, 0, 72, 0
2, 102720, Note_on_c, 0, 69, 127
2, 103200, Note_on_c, 0, 69, 0
2, 103200, Note_on_c, 0, 69, 127
2, 103680, Note_on_c, 0, 69, 0
2, 103680, Note_on_c, 0, 69, 93
2, 104400, Note_on_c, 0, 69, 0
2, 104400, Note_on_c, 0, 71, 93
2, 104880, Note_on_c, 0, 71, 0
2, 104880, Note_on_c, 0, 73, 93
2, 105360, Note_on_c, 0, 73, 0
2, 105360, Note_on_c, 0, 74, 106
2, 105840, Note_on_c, 0, 74, 0
2, 105840, Note_on_c, 0, 75, 106
2, 106320, Note_on_c, 0, 75, 0
2, 106320, Note_on_c, 0, 76, 106
2, 106560, Note_on_c, 0, 76, 0
2, 106560, Note_on_c, 0, 78, 127
2, 107520, Note_on_c, 0, 78, 0
2, 107520, Note_on_c, 0, 76, 106
2, 108000, Note_on_c, 0, 76, 0
2, 108000, Note_on_c, 0, 69, 106
2, 108000, Note_on_c, 0, 72, 106
2, 108480, Note_on_c, 0, 72, 0
2, 108480, Note_on_c, 0, 69, 0
2, 108480, Note_on_c, 0, 60, 106
2, 108480, Note_on_c, 0, 69, 106
2, 108960, Note_on_c, 0, 69, 0
2, 108960, Note_on_c, 0, 60, 0
2, 108960, Note_on_c, 0, 60, 106
2, 108960, Note_on_c, 0, 69, 106
2, 109440, Note_on_c, 0, 69, 0
2, 109440, Note_on_c, 0, 60, 0
2, 109440, Note_on_c, 0, 69, 93
2, 110160, Note_on_c, 0, 69, 0
2, 110160, Note_on_c, 0, 71, 93
2, 110640, Note_on_c, 0, 71, 0
2, 110640, Note_on_c, 0, 73, 93
2, 111120, Note_on_c, 0, 73, 0
2, 111120, Note_on_c, 0, 74, 106
2, 111600, Note_on_c, 0, 74, 0
2, 111600, Note_on_c, 0, 75, 106
2, 112080, Note_on_c, 0, 75, 0
2, 112080, Note_on_c, 0, 76, 106
2, 112320, Note_on_c, 0, 76, 0
2, 112320, Note_on_c, 0, 78, 127
2, 114240, Note_on_c, 0, 78, 0
2, 114240, Note_on_c, 0, 68, 106
2, 114720, Note_on_c, 0, 68, 0
2, 114720, Note_on_c, 0, 70, 106
2, 115200, Note_on_c, 0, 70, 0
2, 115200, Note_on_c, 0, 76, 106
2, 115680, Note_on_c, 0, 76, 0
2, 115680, Note_on_c, 0, 79, 106
2, 116160, Note_on_c, 0, 79, 0
2, 116160, Note_on_c, 0, 78, 106
2, 117120, Note_on_c, 0, 78, 0
2, 117120, Note_on_c, 0, 68, 106
2, 117600, Note_on_c, 0, 68, 0
2, 117600, Note_on_c, 0, 70, 106
2, 118080, Note_on_c, 0, 70, 0
2, 118080, Note_on_c, 0, 76, 106
2, 118560, Note_on_c, 0, 76, 0
2, 118560, Note_on_c, 0, 79, 106
2, 119040, Note_on_c, 0, 79, 0
2, 119040, Note_on_c, 0, 78, 106
2, 120000, Note_on_c, 0, 78, 0
2, 120000, Note_on_c, 0, 76, 106
2, 120480, Note_on_c, 0, 76, 0
2, 120480, Note_on_c, 0, 74, 106
2, 121440, Note_on_c, 0, 74, 0
2, 121440, Note_on_c, 0, 73, 106
2, 121920, Note_on_c, 0, 73, 0
2, 121920, Note_on_c, 0, 71, 106
2, 122880, Note_on_c, 0, 71, 0
2, 122880, Note_on_c, 0, 69, 106
2, 123360, Note_on_c, 0, 69, 0
2, 123360, Note_on_c, 0, 71, 106
2, 123840, Note_on_c, 0, 71, 0
2, 123840, Note_on_c, 0, 64, 106
2, 123840, Note_on_c, 0, 68, 106
2, 123840, Note_on_c, 0, 73, 106
2, 124800, Note_on_c, 0, 73, 0
2, 124800, Note_on_c, 0, 68, 0
2, 124800, Note_on_c, 0, 64, 0
2, 124800, Note_on_c, 0, 62, 106
2, 124800, Note_on_c, 0, 71, 106
2, 125280, Note_on_c, 0, 71, 0
2, 125280, Note_on_c, 0, 62, 0
2, 125280, Note_on_c, 0, 61, 106
2, 125280, Note_on_c, 0, 64, 106
2, 125280, Note_on_c, 0, 69, 106
2, 125520, Note_on_c, 0, 69, 0
2, 125520, Note_on_c, 0, 64, 0
2, 125520, Note_on_c, 0, 61, 0
2, 125760, Note_on_c, 0, 63, 106
2, 125760, Note_on_c, 0, 78, 106
2, 126240, Note_on_c, 0, 78, 0
2, 126240, Note_on_c, 0, 63, 0
2, 126240, Note_on_c, 0, 64, 106
2, 126240, Note_on_c, 0, 76, 106
2, 126720, Note_on_c, 0, 76, 0
2, 126720, Note_on_c, 0, 64, 0
2, 126720, Note_on_c, 0, 66, 106
2, 126720, Note_on_c, 0, 74, 106
2, 127200, Note_on_c, 0, 74, 0
2, 127200, Note_on_c, 0, 66, 0
2, 127200, Note_on_c, 0, 64, 106
2, 127200, Note_on_c, 0, 73, 106
2, 127680, Note_on_c, 0, 73, 0
2, 127680, Note_on_c, 0, 64, 0
2, 127680, Note_on_c, 0, 62, 106
2, 127680, Note_on_c, 0, 71, 106
2, 128160, Note_on_c, 0, 71, 0
2, 128160, Note_on_c, 0, 62, 0
2, 128160, Note_on_c, 0, 61, 106
2, 128160, Note_on_c, 0, 76, 106
2, 128640, Note_on_c, 0, 76, 0
2, 128640, Note_on_c, 0, 61, 0
2, 128640, Note_on_c, 0, 60, 106
2, 128640, Note_on_c, 0, 78, 106
2, 129120, Note_on_c, 0, 78, 0
2, 129120, Note_on_c, 0, 60, 0
2, 129120, Note_on_c, 0, 61, 106
2, 129120, Note_on_c, 0, 76, 106
2, 129600, Note_on_c, 0, 76, 0
2, 129600, Note_on_c, 0, 61, 0
2, 129600, Note_on_c, 0, 62, 93
2, 129600, Note_on_c, 0, 74, 93
2, 130080, Note_on_c, 0, 74, 0
2, 130080, Note_on_c, 0, 62, 0
2, 130080, Note_on_c, 0, 63, 93
2, 130080, Note_on_c, 0, 73, 93
2, 130560, Note_on_c, 0, 73, 0
2, 130560, Note_on_c, 0, 63, 0
2, 130560, Note_on_c, 0, 64, 93
2, 130560, Note_on_c, 0, 71, 93
2, 131040, Note_on_c, 0, 71, 0
2, 131040, Note_on_c, 0, 64, 0
2, 131040, Note_on_c, 0, 61, 93
2, 131040, Note_on_c, 0, 64, 93
2, 131040, Note_on_c, 0, 69, 93
2, 131520, Note_on_c, 0, 69, 0
2, 131520, Note_on_c, 0, 64, 0
2, 131520, Note_on_c, 0, 61, 0
2, 131520, Note_on_c, 0, 66, 106
2, 132000, Note_on_c, 0, 66, 0
2, 132000, Note_on_c, 0, 64, 106
2, 132480, Note_on_c, 0, 64, 0
2, 132480, Note_on_c, 0, 62, 106
2, 132960, Note_on_c, 0, 62, 0
2, 132960, Note_on_c, 0, 61, 106
2, 133440, Note_on_c, 0, 61, 0
2, 133440, Note_on_c, 0, 59, 106
2, 133920, Note_on_c, 0, 59, 0
2, 133920, Note_on_c, 0, 69, 106
2, 134079, Note_on_c, 0, 69, 0
2, 134079, Note_on_c, 0, 69, 106
2, 134240, Note_on_c, 0, 69, 0
2, 134240, Note_on_c, 0, 69, 106
2, 134400, Note_on_c, 0, 69, 0
2, 134400, Note_on_c, 0, 63, 106
2, 134400, Note_on_c, 0, 75, 106
2, 134559, Note_on_c, 0, 75, 0
2, 134559, Note_on_c, 0, 63, 0
2, 134559, Note_on_c, 0, 63, 106
2, 134559, Note_on_c, 0, 75, 106
2, 134720, Note_on_c, 0, 75, 0
2, 134720, Note_on_c, 0, 63, 0
2, 134720, Note_on_c, 0, 63, 106
2, 134720, Note_on_c, 0, 75, 106
2, 134880, Note_on_c, 0, 75, 0
2, 134880, Note_on_c, 0, 63, 0
2, 134880, Note_on_c, 0, 64, 106
2, 134880, Note_on_c, 0, 76, 106
2, 135039, Note_on_c, 0, 76, 0
2, 135039, Note_on_c, 0, 64, 0
2, 135039, Note_on_c, 0, 64, 106
2, 135039, Note_on_c, 0, 76, 106
2, 135200, Note_on_c, 0, 76, 0
2, 135200, Note_on_c, 0, 64, 0
2, 135200, Note_on_c, 0, 64, 106
2, 135200, Note_on_c, 0, 76, 106
2, 135360, Note_on_c, 0, 76, 0
2, 135360, Note_on_c, 0, 64, 0
2, 135360, Note_on_c, 0, 65, 106
2, 135360, Note_on_c, 0, 77, 106
2, 135519, Note_on_c, 0, 77, 0
2, 135519, Note_on_c, 0, 65, 0
2, 135519, Note_on_c, 0, 65, 106
2, 135519, Note_on_c, 0, 77, 106
2, 135680, Note_on_c, 0, 77, 0
2, 135680, Note_on_c, 0, 65, 0
2, 135680, Note_on_c, 0, 65, 106
2, 135680, Note_on_c, 0, 77, 106
2, 135840, Note_on_c, 0, 77, 0
2, 135840, Note_on_c, 0, 65, 0
2, 135840, Note_on_c, 0, 66, 106
2, 135840, Note_on_c, 0, 78, 106
2, 135999, Note_on_c, 0, 78, 0
2, 135999, Note_on_c, 0, 66, 0
2, 135999, Note_on_c, 0, 66, 106
2, 135999, Note_on_c, 0, 78, 106
2, 136160, Note_on_c, 0, 78, 0
2, 136160, Note_on_c, 0, 66, 0
2, 136160, Note_on_c, 0, 66, 106
2, 136160, Note_on_c, 0, 78, 106
2, 136320, Note_on_c, 0, 78, 0
2, 136320, Note_on_c, 0, 66, 0
2, 136320, Note_on_c, 0, 68, 106
2, 136320, Note_on_c, 0, 80, 106
2, 136479, Note_on_c, 0, 80, 0
2, 136479, Note_on_c, 0, 68, 0
2, 136479, Note_on_c, 0, 68, 106
2, 136479, Note_on_c, 0, 80, 106
2, 136640, Note_on_c, 0, 80, 0
2, 136640, Note_on_c, 0, 68, 0
2, 136640, Note_on_c, 0, 68, 106
2, 136640, Note_on_c, 0, 80, 106
2, 136800, Note_on_c, 0, 80, 0
2, 136800, Note_on_c, 0, 68, 0
2, 136800, Note_on_c, 0, 69, 106
2, 136800, Note_on_c, 0, 73, 106
2, 136800, Note_on_c, 0, 76, 106
2, 136800, Note_on_c, 0, 81, 106
2, 137040, Note_on_c, 0, 81, 0
2, 137040, Note_on_c, 0, 69, 0
2, 137040, Note_on_c, 0, 73, 0
2, 137040, Note_on_c, 0, 76, 0
2, 137760, Note_on_c, 0, 76, 80
2, 138720, Note_on_c, 0, 73, 80
2, 138720, Note_on_c, 0, 81, 80
2, 138767, Note_on_c, 0, 81, 0
2, 138767, Note_on_c, 0, 73, 0
2, 138767, Note_on_c, 0, 76, 0
2, 139680, Note_on_c, 0, 75, 80
2, 140640, Note_on_c, 0, 75, 0
2, 140640, Note_on_c, 0, 68, 80
2, 140640, Note_on_c, 0, 71, 80
2, 140640, Note_on_c, 0, 76, 80
2, 140640, Note_on_c, 0, 80, 80
2, 140687, Note_on_c, 0, 80, 0
2, 140687, Note_on_c, 0, 68, 0
2, 140687, Note_on_c, 0, 71, 0
2, 140687, Note_on_c, 0, 76, 0
2, 141600, Note_on_c, 0, 64, 80
2, 142560, Note_on_c, 0, 64, 0
2, 142560, Note_on_c, 0, 61, 80
2, 142560, Note_on_c, 0, 64, 80
2, 142560, Note_on_c, 0, 69, 80
2, 142607, Note_on_c, 0, 69, 0
2, 142607, Note_on_c, 0, 64, 0
2, 142607, Note_on_c, 0, 61, 0
2, 143520, Note_on_c, 0, 63, 67
2, 144480, Note_on_c, 0, 63, 0
2, 144480, Note_on_c, 0, 62, 67
2, 144480, Note_on_c, 0, 68, 67
2, 144720, Note_on_c, 0, 68, 0
2, 144720, Note_on_c, 0, 62, 0
2, 144960, Note_on_c, 0, 62, 67
2, 144960, Note_on_c, 0, 69, 67
2, 145200, Note_on_c, 0, 69, 0
2, 145200, Note_on_c, 0, 62, 0
2, 145440, Note_on_c, 0, 62, 67
2, 145440, Note_on_c, 0, 68, 67
2, 145680, Note_on_c, 0, 68, 0
2, 145680, Note_on_c, 0, 62, 0
2, 145920, Note_on_c, 0, 62, 67
2, 145920, Note_on_c, 0, 69, 67
2, 146160, Note_on_c, 0, 69, 0
2, 146160, Note_on_c, 0, 62, 0
2, 146400, Note_on_c, 0, 62, 67
2, 146400, Note_on_c, 0, 68, 67
2, 146640, Note_on_c, 0, 68, 0
2, 146640, Note_on_c, 0, 62, 0
2, 147360, Note_on_c, 0, 57, 67
2, 147407, Note_on_c, 0, 57, 0
2, 147600, Note_on_c, 0, 59, 67
2, 147647, Note_on_c, 0, 59, 0
2, 147840, Note_on_c, 0, 61, 67
2, 147887, Note_on_c, 0, 61, 0
2, 148080, Note_on_c, 0, 62, 67
2, 148127, Note_on_c, 0, 62, 0
2, 148320, Note_on_c, 0, 66, 80
2, 149280, Note_on_c, 0, 66, 0
2, 149280, Note_on_c, 0, 64, 54
2, 149760, Note_on_c, 0, 64, 0
2, 151200, Note_on_c, 0, 66, 80
2, 152160, Note_on_c, 0, 66, 0
2, 152160, Note_on_c, 0, 64, 54
2, 152640, Note_on_c, 0, 64, 0
2, 154080, Note_on_c, 0, 66, 80
2, 155040, Note_on_c, 0, 66, 0
2, 155040, Note_on_c, 0, 64, 54
2, 155520, Note_on_c, 0, 64, 0
2, 156960, Note_on_c, 0, 66, 80
2, 157920, Note_on_c, 0, 66, 0
2, 157920, Note_on_c, 0, 64, 54
2, 158400, Note_on_c, 0, 64, 0
2, 159840, Note_on_c, 0, 66, 80
2, 160800, Note_on_c, 0, 66, 0
2, 160800, Note_on_c, 0, 64, 54
2, 162000, Note_on_c, 0, 64, 0
2, 162000, Note_on_c, 0, 66, 54
2, 162240, Note_on_c, 0, 66, 0
2, 162240, Note_on_c, 0, 69, 54
2, 162480, Note_on_c, 0, 69, 0
2, 162480, Note_on_c, 0, 73, 54
2, 162720, Note_on_c, 0, 73, 0
2, 162720, Note_on_c, 0, 66, 80
2, 163680, Note_on_c, 0, 66, 0
2, 163680, Note_on_c, 0, 64, 54
2, 164880, Note_on_c, 0, 64, 0
2, 164880, Note_on_c, 0, 66, 54
2, 165120, Note_on_c, 0, 66, 0
2, 165120, Note_on_c, 0, 69, 54
2, 165360, Note_on_c, 0, 69, 0
2, 165360, Note_on_c, 0, 73, 54
2, 165600, Note_on_c, 0, 73, 0
2, 165600, Note_on_c, 0, 63, 93
2, 166320, Note_on_c, 0, 63, 0
2, 166320, Note_on_c, 0, 64, 67
2, 166560, Note_on_c, 0, 64, 0
2, 166560, Note_on_c, 0, 69, 67
2, 166800, Note_on_c, 0, 69, 0
2, 166800, Note_on_c, 0, 73, 67
2, 167040, Note_on_c, 0, 73, 0
2, 167040, Note_on_c, 0, 63, 106
2, 167760, Note_on_c, 0, 63, 0
2, 167760, Note_on_c, 0, 64, 80
2, 168000, Note_on_c, 0, 64, 0
2, 168000, Note_on_c, 0, 69, 80
2, 168240, Note_on_c, 0, 69, 0
2, 168240, Note_on_c, 0, 73, 80
2, 168480, Note_on_c, 0, 73, 0
2, 168480, Note_on_c, 0, 78, 93
2, 169200, Note_on_c, 0, 78, 0
2, 169200, Note_on_c, 0, 76, 93
2, 169440, Note_on_c, 0, 76, 0
2, 169440, Note_on_c, 0, 74, 93
2, 169680, Note_on_c, 0, 74, 0
2, 169680, Note_on_c, 0, 73, 93
2, 169920, Note_on_c, 0, 73, 0
2, 169920, Note_on_c, 0, 71, 80
2, 170640, Note_on_c, 0, 71, 0
2, 170640, Note_on_c, 0, 69, 80
2, 170880, Note_on_c, 0, 69, 0
2, 170880, Note_on_c, 0, 68, 67
2, 171120, Note_on_c, 0, 68, 0
2, 171120, Note_on_c, 0, 66, 67
2, 171360, Note_on_c, 0, 66, 0
2, 171360, Note_on_c, 0, 68, 80
2, 172320, Note_on_c, 0, 68, 0
2, 172320, Note_on_c, 0, 66, 54
2, 173520, Note_on_c, 0, 66, 0
2, 173520, Note_on_c, 0, 68, 54
2, 173760, Note_on_c, 0, 68, 0
2, 173760, Note_on_c, 0, 71, 54
2, 174000, Note_on_c, 0, 71, 0
2, 174000, Note_on_c, 0, 74, 54
2, 174240, Note_on_c, 0, 74, 0
2, 174240, Note_on_c, 0, 68, 80
2, 175200, Note_on_c, 0, 68, 0
2, 175200, Note_on_c, 0, 66, 54
2, 176400, Note_on_c, 0, 66, 0
2, 176400, Note_on_c, 0, 68, 54
2, 176640, Note_on_c, 0, 68, 0
2, 176640, Note_on_c, 0, 71, 54
2, 176880, Note_on_c, 0, 71, 0
2, 176880, Note_on_c, 0, 74, 54
2, 177120, Note_on_c, 0, 74, 0
2, 177120, Note_on_c, 0, 65, 80
2, 177840, Note_on_c, 0, 65, 0
2, 177840, Note_on_c, 0, 66, 67
2, 178080, Note_on_c, 0, 66, 0
2, 178080, Note_on_c, 0, 71, 67
2, 178320, Note_on_c, 0, 71, 0
2, 178320, Note_on_c, 0, 74, 67
2, 178560, Note_on_c, 0, 74, 0
2, 178560, Note_on_c, 0, 65, 93
2, 179280, Note_on_c, 0, 65, 0
2, 179280, Note_on_c, 0, 66, 80
2, 179520, Note_on_c, 0, 66, 0
2, 179520, Note_on_c, 0, 71, 80
2, 179760, Note_on_c, 0, 71, 0
2, 179760, Note_on_c, 0, 74, 80
2, 180000, Note_on_c, 0, 74, 0
2, 180000, Note_on_c, 0, 64, 106
2, 180720, Note_on_c, 0, 64, 0
2, 180720, Note_on_c, 0, 65, 80
2, 180960, Note_on_c, 0, 65, 0
2, 180960, Note_on_c, 0, 71, 80
2, 181200, Note_on_c, 0, 71, 0
2, 181200, Note_on_c, 0, 74, 80
2, 181440, Note_on_c, 0, 74, 0
2, 181440, Note_on_c, 0, 73, 80
2, 181680, Note_on_c, 0, 73, 0
2, 181680, Note_on_c, 0, 71, 80
2, 181920, Note_on_c, 0, 71, 0
2, 181920, Note_on_c, 0, 69, 80
2, 182160, Note_on_c, 0, 69, 0
2, 182160, Note_on_c, 0, 68, 80
2, 182207, Note_on_c, 0, 68, 0
2, 182400, Note_on_c, 0, 66, 80
2, 182447, Note_on_c, 0, 66, 0
2, 182640, Note_on_c, 0, 64, 80
2, 182687, Note_on_c, 0, 64, 0
2, 182880, Note_on_c, 0, 66, 93
2, 182880, Note_on_c, 0, 78, 93
2, 183840, Note_on_c, 0, 78, 0
2, 183840, Note_on_c, 0, 66, 0
2, 183840, Note_on_c, 0, 64, 67
2, 183840, Note_on_c, 0, 76, 67
2, 184320, Note_on_c, 0, 76, 0
2, 185040, Note_on_c, 0, 64, 0
2, 185040, Note_on_c, 0, 66, 67
2, 185280, Note_on_c, 0, 66, 0
2, 185280, Note_on_c, 0, 69, 67
2, 185520, Note_on_c, 0, 69, 0
2, 185520, Note_on_c, 0, 73, 67
2, 185760, Note_on_c, 0, 73, 0
2, 185760, Note_on_c, 0, 66, 93
2, 185760, Note_on_c, 0, 78, 93
2, 186720, Note_on_c, 0, 78, 0
2, 186720, Note_on_c, 0, 66, 0
2, 186720, Note_on_c, 0, 64, 67
2, 186720, Note_on_c, 0, 76, 67
2, 187200, Note_on_c, 0, 76, 0
2, 187920, Note_on_c, 0, 64, 0
2, 187920, Note_on_c, 0, 66, 67
2, 188160, Note_on_c, 0, 66, 0
2, 188160, Note_on_c, 0, 69, 67
2, 188400, Note_on_c, 0, 69, 0
2, 188400, Note_on_c, 0, 73, 67
2, 188640, Note_on_c, 0, 73, 0
2, 188640, Note_on_c, 0, 63, 93
2, 188640, Note_on_c, 0, 75, 93
2, 189360, Note_on_c, 0, 75, 0
2, 189360, Note_on_c, 0, 63, 0
2, 189360, Note_on_c, 0, 76, 67
2, 189600, Note_on_c, 0, 76, 0
2, 189600, Note_on_c, 0, 81, 67
2, 189840, Note_on_c, 0, 81, 0
2, 189840, Note_on_c, 0, 85, 67
2, 190080, Note_on_c, 0, 85, 0
2, 190080, Note_on_c, 0, 63, 106
2, 190080, Note_on_c, 0, 75, 106
2, 190800, Note_on_c, 0, 75, 0
2, 190800, Note_on_c, 0, 63, 0
2, 190800, Note_on_c, 0, 76, 80
2, 191040, Note_on_c, 0, 76, 0
2, 191040, Note_on_c, 0, 81, 80
2, 191280, Note_on_c, 0, 81, 0
2, 191280, Note_on_c, 0, 85, 80
2, 191520, Note_on_c, 0, 85, 0
2, 191520, Note_on_c, 0, 78, 106
2, 191520, Note_on_c, 0, 90, 106
2, 192240, Note_on_c, 0, 90, 0
2, 192240, Note_on_c, 0, 78, 0
2, 192240, Note_on_c, 0, 76, 80
2, 192240, Note_on_c, 0, 88, 80
2, 192480, Note_on_c, 0, 88, 0
2, 192480, Note_on_c, 0, 76, 0
2, 192480, Note_on_c, 0, 74, 80
2, 192480, Note_on_c, 0, 86, 80
2, 192720, Note_on_c, 0, 86, 0
2, 192720, Note_on_c, 0, 74, 0
2, 192720, Note_on_c, 0, 73, 80
2, 192720, Note_on_c, 0, 85, 80
2, 192960, Note_on_c, 0, 85, 0
2, 192960, Note_on_c, 0, 73, 0
2, 192960, Note_on_c, 0, 71, 106
2, 192960, Note_on_c, 0, 83, 106
2, 193680, Note_on_c, 0, 83, 0
2, 193680, Note_on_c, 0, 71, 0
2, 193680, Note_on_c, 0, 69, 80
2, 193680, Note_on_c, 0, 81, 80
2, 193920, Note_on_c, 0, 81, 0
2, 193920, Note_on_c, 0, 69, 0
2, 193920, Note_on_c, 0, 68, 80
2, 193920, Note_on_c, 0, 80, 80
2, 194160, Note_on_c, 0, 80, 0
2, 194160, Note_on_c, 0, 68, 0
2, 194160, Note_on_c, 0, 66, 80
2, 194160, Note_on_c, 0, 78, 80
2, 194400, Note_on_c, 0, 78, 0
2, 194400, Note_on_c, 0, 66, 0
2, 194400, Note_on_c, 0, 68, 93
2, 194400, Note_on_c, 0, 80, 93
2, 195360, Note_on_c, 0, 80, 0
2, 195360, Note_on_c, 0, 68, 0
2, 195360, Note_on_c, 0, 66, 67
2, 195360, Note_on_c, 0, 78, 67
2, 195840, Note_on_c, 0, 78, 0
2, 196560, Note_on_c, 0, 66, 0
2, 196560, Note_on_c, 0, 68, 67
2, 196800, Note_on_c, 0, 68, 0
2, 196800, Note_on_c, 0, 71, 67
2, 197040, Note_on_c, 0, 71, 0
2, 197040, Note_on_c, 0, 74, 67
2, 197280, Note_on_c, 0, 74, 0
2, 197280, Note_on_c, 0, 68, 93
2, 197280, Note_on_c, 0, 80, 93
2, 198240, Note_on_c, 0, 80, 0
2, 198240, Note_on_c, 0, 68, 0
2, 198240, Note_on_c, 0, 66, 67
2, 198240, Note_on_c, 0, 78, 67
2, 198720, Note_on_c, 0, 78, 0
2, 198720, Note_on_c, 0, 66, 0
2, 198720, Note_on_c, 0, 66, 67
2, 199440, Note_on_c, 0, 66, 0
2, 199440, Note_on_c, 0, 68, 67
2, 199680, Note_on_c, 0, 68, 0
2, 199680, Note_on_c, 0, 71, 67
2, 199920, Note_on_c, 0, 71, 0
2, 199920, Note_on_c, 0, 74, 67
2, 200160, Note_on_c, 0, 74, 0
2, 200160, Note_on_c, 0, 65, 93
2, 200160, Note_on_c, 0, 77, 93
2, 200880, Note_on_c, 0, 77, 0
2, 200880, Note_on_c, 0, 65, 0
2, 200880, Note_on_c, 0, 78, 67
2, 201120, Note_on_c, 0, 78, 0
2, 201120, Note_on_c, 0, 83, 67
2, 201360, Note_on_c, 0, 83, 0
2, 201360, Note_on_c, 0, 86, 67
2, 201600, Note_on_c, 0, 86, 0
2, 201600, Note_on_c, 0, 65, 106
2, 201600, Note_on_c, 0, 77, 106
2, 202320, Note_on_c, 0, 77, 0
2, 202320, Note_on_c, 0, 65, 0
2, 202320, Note_on_c, 0, 78, 80
2, 202560, Note_on_c, 0, 78, 0
2, 202560, Note_on_c, 0, 83, 80
2, 202800, Note_on_c, 0, 83, 0
2, 202800, Note_on_c, 0, 86, 80
2, 203040, Note_on_c, 0, 86, 0
2, 203040, Note_on_c, 0, 73, 106
2, 203040, Note_on_c, 0, 85, 106
2, 203760, Note_on_c, 0, 85, 0
2, 203760, Note_on_c, 0, 73, 0
2, 203760, Note_on_c, 0, 71, 80
2, 203760, Note_on_c, 0, 83, 80
2, 204000, Note_on_c, 0, 83, 0
2, 204000, Note_on_c, 0, 71, 0
2, 204000, Note_on_c, 0, 70, 80
2, 204000, Note_on_c, 0, 82, 80
2, 204240, Note_on_c, 0, 82, 0
2, 204240, Note_on_c, 0, 70, 0
2, 204240, Note_on_c, 0, 71, 80
2, 204240, Note_on_c, 0, 83, 80
2, 204480, Note_on_c, 0, 83, 0
2, 204480, Note_on_c, 0, 71, 0
2, 204480, Note_on_c, 0, 69, 106
2, 204480, Note_on_c, 0, 81, 106
2, 205200, Note_on_c, 0, 81, 0
2, 205200, Note_on_c, 0, 69, 0
2, 205200, Note_on_c, 0, 68, 80
2, 205200, Note_on_c, 0, 80, 80
2, 205440, Note_on_c, 0, 80, 0
2, 205440, Note_on_c, 0, 68, 0
2, 205440, Note_on_c, 0, 78, 80
2, 205680, Note_on_c, 0, 78, 0
2, 205680, Note_on_c, 0, 76, 80
2, 205920, Note_on_c, 0, 76, 0
2, 205920, Note_on_c, 0, 78, 127
2, 205920, Note_on_c, 0, 83, 127
2, 205920, Note_on_c, 0, 90, 127
2, 206640, Note_on_c, 0, 90, 0
2, 206640, Note_on_c, 0, 83, 0
2, 206640, Note_on_c, 0, 78, 0
2, 206640, Note_on_c, 0, 78, 127
2, 206640, Note_on_c, 0, 83, 127
2, 206640, Note_on_c, 0, 90, 127
2, 206880, Note_on_c, 0, 90, 0
2, 206880, Note_on_c, 0, 83, 0
2, 206880, Note_on_c, 0, 78, 0
2, 206880, Note_on_c, 0, 78, 127
2, 206880, Note_on_c, 0, 83, 127
2, 206880, Note_on_c, 0, 90, 127
2, 207360, Note_on_c, 0, 90, 0
2, 207360, Note_on_c, 0, 83, 0
2, 207360, Note_on_c, 0, 78, 0
2, 207840, Note_on_c, 0, 78, 106
2, 208080, Note_on_c, 0, 78, 0
2, 208080, Note_on_c, 0, 66, 106
2, 208320, Note_on_c, 0, 66, 0
2, 208320, Note_on_c, 0, 79, 106
2, 208560, Note_on_c, 0, 79, 0
2, 208560, Note_on_c, 0, 67, 106
2, 208800, Note_on_c, 0, 67, 0
2, 208800, Note_on_c, 0, 80, 106
2, 209040, Note_on_c, 0, 80, 0
2, 209040, Note_on_c, 0, 68, 106
2, 209280, Note_on_c, 0, 68, 0
2, 209280, Note_on_c, 0, 81, 106
2, 209520, Note_on_c, 0, 81, 0
2, 209520, Note_on_c, 0, 69, 106
2, 209760, Note_on_c, 0, 69, 0
2, 209760, Note_on_c, 0, 82, 106
2, 210000, Note_on_c, 0, 82, 0
2, 210000, Note_on_c, 0, 70, 106
2, 210240, Note_on_c, 0, 70, 0
2, 210240, Note_on_c, 0, 78, 106
2, 210480, Note_on_c, 0, 78, 0
2, 210480, Note_on_c, 0, 66, 106
2, 210720, Note_on_c, 0, 66, 0
2, 210720, Note_on_c, 0, 83, 106
2, 210960, Note_on_c, 0, 83, 0
2, 210960, Note_on_c, 0, 71, 106
2, 211200, Note_on_c, 0, 71, 0
2, 211200, Note_on_c, 0, 86, 106
2, 211440, Note_on_c, 0, 86, 0
2, 211440, Note_on_c, 0, 74, 106
2, 211680, Note_on_c, 0, 74, 0
2, 211680, Note_on_c, 0, 78, 127
2, 211680, Note_on_c, 0, 83, 127
2, 211680, Note_on_c, 0, 90, 127
2, 212400, Note_on_c, 0, 90, 0
2, 212400, Note_on_c, 0, 83, 0
2, 212400, Note_on_c, 0, 78, 0
2, 212400, Note_on_c, 0, 78, 127
2, 212400, Note_on_c, 0, 83, 127
2, 212400, Note_on_c, 0, 90, 127
2, 212640, Note_on_c, 0, 90, 0
2, 212640, Note_on_c, 0, 83, 0
2, 212640, Note_on_c, 0, 78, 0
2, 212640, Note_on_c, 0, 78, 127
2, 212640, Note_on_c, 0, 83, 127
2, 212640, Note_on_c, 0, 90, 127
2, 213120, Note_on_c, 0, 90, 0
2, 213120, Note_on_c, 0, 83, 0
2, 213120, Note_on_c, 0, 78, 0
2, 213600, Note_on_c, 0, 78, 106
2, 213840, Note_on_c, 0, 78, 0
2, 213840, Note_on_c, 0, 66, 106
2, 214080, Note_on_c, 0, 66, 0
2, 214080, Note_on_c, 0, 79, 106
2, 214320, Note_on_c, 0, 79, 0
2, 214320, Note_on_c, 0, 67, 106
2, 214560, Note_on_c, 0, 67, 0
2, 214560, Note_on_c, 0, 80, 106
2, 214800, Note_on_c, 0, 80, 0
2, 214800, Note_on_c, 0, 68, 106
2, 215040, Note_on_c, 0, 68, 0
2, 215040, Note_on_c, 0, 81, 106
2, 215280, Note_on_c, 0, 81, 0
2, 215280, Note_on_c, 0, 69, 106
2, 215520, Note_on_c, 0, 69, 0
2, 215520, Note_on_c, 0, 82, 106
2, 215760, Note_on_c, 0, 82, 0
2, 215760, Note_on_c, 0, 70, 106
2, 216000, Note_on_c, 0, 70, 0
2, 216000, Note_on_c, 0, 88, 106
2, 216240, Note_on_c, 0, 88, 0
2, 216240, Note_on_c, 0, 76, 106
2, 216480, Note_on_c, 0, 76, 0
2, 216480, Note_on_c, 0, 85, 106
2, 216720, Note_on_c, 0, 85, 0
2, 216720, Note_on_c, 0, 73, 106
2, 216960, Note_on_c, 0, 73, 0
2, 216960, Note_on_c, 0, 86, 106
2, 217200, Note_on_c, 0, 86, 0
2, 217200, Note_on_c, 0, 74, 106
2, 217440, Note_on_c, 0, 74, 0
2, 217440, Note_on_c, 0, 78, 127
2, 217440, Note_on_c, 0, 83, 127
2, 217440, Note_on_c, 0, 90, 127
2, 218160, Note_on_c, 0, 90, 0
2, 218160, Note_on_c, 0, 83, 0
2, 218160, Note_on_c, 0, 78, 0
2, 218160, Note_on_c, 0, 78, 127
2, 218160, Note_on_c, 0, 83, 127
2, 218160, Note_on_c, 0, 90, 127
2, 218400, Note_on_c, 0, 90, 0
2, 218400, Note_on_c, 0, 83, 0
2, 218400, Note_on_c, 0, 78, 0
2, 218400, Note_on_c, 0, 78, 127
2, 218400, Note_on_c, 0, 83, 127
2, 218400, Note_on_c, 0, 90, 127
2, 218880, Note_on_c, 0, 90, 0
2, 218880, Note_on_c, 0, 83, 0
2, 218880, Note_on_c, 0, 78, 0
2, 219360, Note_on_c, 0, 78, 106
2, 219600, Note_on_c, 0, 78, 0
2, 219600, Note_on_c, 0, 66, 106
2, 219840, Note_on_c, 0, 66, 0
2, 219840, Note_on_c, 0, 79, 106
2, 220080, Note_on_c, 0, 79, 0
2, 220080, Note_on_c, 0, 67, 106
2, 220320, Note_on_c, 0, 67, 0
2, 220320, Note_on_c, 0, 80, 106
2, 220560, Note_on_c, 0, 80, 0
2, 220560, Note_on_c, 0, 68, 106
2, 220800, Note_on_c, 0, 68, 0
2, 220800, Note_on_c, 0, 81, 106
2, 221040, Note_on_c, 0, 81, 0
2, 221040, Note_on_c, 0, 69, 106
2, 221280, Note_on_c, 0, 69, 0
2, 221280, Note_on_c, 0, 82, 106
2, 221520, Note_on_c, 0, 82, 0
2, 221520, Note_on_c, 0, 70, 106
2, 221760, Note_on_c, 0, 70, 0
2, 221760, Note_on_c, 0, 78, 106
2, 222000, Note_on_c, 0, 78, 0
2, 222000, Note_on_c, 0, 66, 106
2, 222240, Note_on_c, 0, 66, 0
2, 222240, Note_on_c, 0, 83, 106
2, 222480, Note_on_c, 0, 83, 0
2, 222480, Note_on_c, 0, 71, 106
2, 222720, Note_on_c, 0, 71, 0
2, 222720, Note_on_c, 0, 86, 106
2, 222960, Note_on_c, 0, 86, 0
2, 222960, Note_on_c, 0, 74, 106
2, 223200, Note_on_c, 0, 74, 0
2, 223200, Note_on_c, 0, 78, 127
2, 223200, Note_on_c, 0, 83, 127
2, 223200, Note_on_c, 0, 90, 127
2, 223920, Note_on_c, 0, 90, 0
2, 223920, Note_on_c, 0, 83, 0
2, 223920, Note_on_c, 0, 78, 0
2, 223920, Note_on_c, 0, 78, 127
2, 223920, Note_on_c, 0, 83, 127
2, 223920, Note_on_c, 0, 90, 127
2, 224160, Note_on_c, 0, 90, 0
2, 224160, Note_on_c, 0, 83, 0
2, 224160, Note_on_c, 0, 78, 0
2, 224160, Note_on_c, 0, 78, 127
2, 224160, Note_on_c, 0, 83, 127
2, 224160, Note_on_c, 0, 90, 127
2, 224640, Note_on_c, 0, 90, 0
2, 224640, Note_on_c, 0, 83, 0
2, 224640, Note_on_c, 0, 78, 0
2, 225120, Note_on_c, 0, 78, 106
2, 225360, Note_on_c, 0, 78, 0
2, 225360, Note_on_c, 0, 66, 106
2, 225600, Note_on_c, 0, 66, 0
2, 225600, Note_on_c, 0, 79, 106
2, 225840, Note_on_c, 0, 79, 0
2, 225840, Note_on_c, 0, 67, 106
2, 226080, Note_on_c, 0, 67, 0
2, 226080, Note_on_c, 0, 80, 106
2, 226320, Note_on_c, 0, 80, 0
2, 226320, Note_on_c, 0, 68, 106
2, 226560, Note_on_c, 0, 68, 0
2, 226560, Note_on_c, 0, 81, 106
2, 226800, Note_on_c, 0, 81, 0
2, 226800, Note_on_c, 0, 69, 106
2, 227040, Note_on_c, 0, 69, 0
2, 227040, Note_on_c, 0, 82, 106
2, 227280, Note_on_c, 0, 82, 0
2, 227280, Note_on_c, 0, 70, 106
2, 227520, Note_on_c, 0, 70, 0
2, 227520, Note_on_c, 0, 78, 106
2, 227760, Note_on_c, 0, 78, 0
2, 227760, Note_on_c, 0, 66, 106
2, 228000, Note_on_c, 0, 66, 0
2, 228000, Note_on_c, 0, 80, 106
2, 228240, Note_on_c, 0, 80, 0
2, 228240, Note_on_c, 0, 68, 106
2, 228480, Note_on_c, 0, 68, 0
2, 228480, Note_on_c, 0, 82, 106
2, 228720, Note_on_c, 0, 82, 0
2, 228720, Note_on_c, 0, 70, 106
2, 228960, Note_on_c, 0, 70, 0
2, 228960, Note_on_c, 0, 83, 106
2, 229200, Note_on_c, 0, 83, 0
2, 229200, Note_on_c, 0, 71, 106
2, 229440, Note_on_c, 0, 71, 0
2, 229440, Note_on_c, 0, 85, 106
2, 229680, Note_on_c, 0, 85, 0
2, 229680, Note_on_c, 0, 73, 106
2, 229920, Note_on_c, 0, 73, 0
2, 229920, Note_on_c, 0, 86, 106
2, 230160, Note_on_c, 0, 86, 0
2, 230160, Note_on_c, 0, 74, 106
2, 230400, Note_on_c, 0, 74, 0
2, 230400, Note_on_c, 0, 78, 106
2, 230640, Note_on_c, 0, 78, 0
2, 230640, Note_on_c, 0, 66, 106
2, 230880, Note_on_c, 0, 66, 0
2, 230880, Note_on_c, 0, 80, 106
2, 231120, Note_on_c, 0, 80, 0
2, 231120, Note_on_c, 0, 68, 106
2, 231360, Note_on_c, 0, 68, 0
2, 231360, Note_on_c, 0, 82, 106
2, 231600, Note_on_c, 0, 82, 0
2, 231600, Note_on_c, 0, 70, 106
2, 231840, Note_on_c, 0, 70, 0
2, 231840, Note_on_c, 0, 83, 106
2, 232080, Note_on_c, 0, 83, 0
2, 232080, Note_on_c, 0, 71, 106
2, 232320, Note_on_c, 0, 71, 0
2, 232320, Note_on_c, 0, 85, 106
2, 232560, Note_on_c, 0, 85, 0
2, 232560, Note_on_c, 0, 73, 106
2, 232800, Note_on_c, 0, 73, 0
2, 232800, Note_on_c, 0, 86, 106
2, 233040, Note_on_c, 0, 86, 0
2, 233040, Note_on_c, 0, 74, 106
2, 233280, Note_on_c, 0, 74, 0
2, 233280, Note_on_c, 0, 78, 106
2, 233520, Note_on_c, 0, 78, 0
2, 233520, Note_on_c, 0, 66, 106
2, 233760, Note_on_c, 0, 66, 0
2, 233760, Note_on_c, 0, 79, 106
2, 234000, Note_on_c, 0, 79, 0
2, 234000, Note_on_c, 0, 67, 106
2, 234240, Note_on_c, 0, 67, 0
2, 234240, Note_on_c, 0, 81, 106
2, 234480, Note_on_c, 0, 81, 0
2, 234480, Note_on_c, 0, 69, 106
2, 234720, Note_on_c, 0, 69, 0
2, 234720, Note_on_c, 0, 83, 106
2, 234960, Note_on_c, 0, 83, 0
2, 234960, Note_on_c, 0, 71, 106
2, 235200, Note_on_c, 0, 71, 0
2, 235200, Note_on_c, 0, 85, 106
2, 235440, Note_on_c, 0, 85, 0
2, 235440, Note_on_c, 0, 73, 106
2, 235680, Note_on_c, 0, 73, 0
2, 235680, Note_on_c, 0, 86, 106
2, 235920, Note_on_c, 0, 86, 0
2, 235920, Note_on_c, 0, 74, 106
2, 236160, Note_on_c, 0, 74, 0
2, 236160, Note_on_c, 0, 66, 127
2, 237120, Note_on_c, 0, 66, 0
2, 237120, Note_on_c, 0, 64, 106
2, 237600, Note_on_c, 0, 64, 0
2, 239040, Note_on_c, 0, 66, 119
2, 240000, Note_on_c, 0, 66, 0
2, 240000, Note_on_c, 0, 64, 93
2, 240480, Note_on_c, 0, 64, 0
2, 241920, Note_on_c, 0, 66, 106
2, 241920, Note_on_c, 0, 78, 106
2, 242880, Note_on_c, 0, 78, 0
2, 242880, Note_on_c, 0, 66, 0
2, 242880, Note_on_c, 0, 76, 80
2, 243360, Note_on_c, 0, 76, 0
2, 243360, Note_on_c, 0, 66, 106
2, 243360, Note_on_c, 0, 78, 106
2, 244320, Note_on_c, 0, 78, 0
2, 244320, Note_on_c, 0, 66, 0
2, 244320, Note_on_c, 0, 76, 80
2, 244800, Note_on_c, 0, 76, 0
2, 244800, Note_on_c, 0, 66, 93
2, 244800, Note_on_c, 0, 78, 93
2, 245760, Note_on_c, 0, 78, 0
2, 245760, Note_on_c, 0, 66, 0
2, 245760, Note_on_c, 0, 76, 67
2, 246240, Note_on_c, 0, 76, 0
2, 246240, Note_on_c, 0, 66, 93
2, 246240, Note_on_c, 0, 78, 93
2, 247200, Note_on_c, 0, 78, 0
2, 247200, Note_on_c, 0, 66, 0
2, 247200, Note_on_c, 0, 76, 67
2, 247680, Note_on_c, 0, 76, 0
2, 247680, Note_on_c, 0, 66, 93
2, 248640, Note_on_c, 0, 66, 0
2, 248640, Note_on_c, 0, 64, 67
2, 249840, Note_on_c, 0, 64, 0
2, 249840, Note_on_c, 0, 66, 67
2, 250080, Note_on_c, 0, 66, 0
2, 250080, Note_on_c, 0, 69, 67
2, 250320, Note_on_c, 0, 69, 0
2, 250320, Note_on_c, 0, 73, 67
2, 250560, Note_on_c, 0, 73, 0
2, 250560, Note_on_c, 0, 66, 93
2, 251520, Note_on_c, 0, 66, 0
2, 251520, Note_on_c, 0, 64, 67
2, 252720, Note_on_c, 0, 64, 0
2, 252720, Note_on_c, 0, 66, 67
2, 252960, Note_on_c, 0, 66, 0
2, 252960, Note_on_c, 0, 69, 67
2, 253200, Note_on_c, 0, 69, 0
2, 253200, Note_on_c, 0, 73, 67
2, 253440, Note_on_c, 0, 73, 0
2, 253440, Note_on_c, 0, 63, 93
2, 254160, Note_on_c, 0, 63, 0
2, 254160, Note_on_c, 0, 64, 67
2, 254400, Note_on_c, 0, 64, 0
2, 254400, Note_on_c, 0, 69, 67
2, 254640, Note_on_c, 0, 69, 0
2, 254640, Note_on_c, 0, 73, 67
2, 254880, Note_on_c, 0, 73, 0
2, 254880, Note_on_c, 0, 63, 93
2, 255600, Note_on_c, 0, 63, 0
2, 255600, Note_on_c, 0, 64, 80
2, 255840, Note_on_c, 0, 64, 0
2, 255840, Note_on_c, 0, 69, 80
2, 256080, Note_on_c, 0, 69, 0
2, 256080, Note_on_c, 0, 73, 80
2, 256320, Note_on_c, 0, 73, 0
2, 256320, Note_on_c, 0, 78, 80
2, 257040, Note_on_c, 0, 78, 0
2, 257040, Note_on_c, 0, 76, 80
2, 257280, Note_on_c, 0, 76, 0
2, 257280, Note_on_c, 0, 74, 80
2, 257520, Note_on_c, 0, 74, 0
2, 257520, Note_on_c, 0, 73, 80
2, 257760, Note_on_c, 0, 73, 0
2, 257760, Note_on_c, 0, 71, 80
2, 258480, Note_on_c, 0, 71, 0
2, 258480, Note_on_c, 0, 69, 67
2, 258720, Note_on_c, 0, 69, 0
2, 258720, Note_on_c, 0, 68, 67
2, 258960, Note_on_c, 0, 68, 0
2, 258960, Note_on_c, 0, 66, 67
2, 259200, Note_on_c, 0, 66, 0
2, 259200, Note_on_c, 0, 68, 93
2, 260160, Note_on_c, 0, 68, 0
2, 260160, Note_on_c, 0, 66, 67
2, 261360, Note_on_c, 0, 66, 0
2, 261360, Note_on_c, 0, 68, 67
2, 261600, Note_on_c, 0, 68, 0
2, 261600, Note_on_c, 0, 71, 67
2, 261840, Note_on_c, 0, 71, 0
2, 261840, Note_on_c, 0, 74, 67
2, 262080, Note_on_c, 0, 74, 0
2, 262080, Note_on_c, 0, 68, 93
2, 263040, Note_on_c, 0, 68, 0
2, 263040, Note_on_c, 0, 66, 67
2, 264240, Note_on_c, 0, 66, 0
2, 264240, Note_on_c, 0, 68, 67
2, 264480, Note_on_c, 0, 68, 0
2, 264480, Note_on_c, 0, 71, 67
2, 264720, Note_on_c, 0, 71, 0
2, 264720, Note_on_c, 0, 74, 67
2, 264960, Note_on_c, 0, 74, 0
2, 264960, Note_on_c, 0, 65, 93
2, 265680, Note_on_c, 0, 65, 0
2, 265680, Note_on_c, 0, 66, 67
2, 265920, Note_on_c, 0, 66, 0
2, 265920, Note_on_c, 0, 71, 67
2, 266160, Note_on_c, 0, 71, 0
2, 266160, Note_on_c, 0, 74, 67
2, 266400, Note_on_c, 0, 74, 0
2, 266400, Note_on_c, 0, 65, 106
2, 267120, Note_on_c, 0, 65, 0
2, 267120, Note_on_c, 0, 66, 80
2, 267360, Note_on_c, 0, 66, 0
2, 267360, Note_on_c, 0, 71, 80
2, 267600, Note_on_c, 0, 71, 0
2, 267600, Note_on_c, 0, 74, 80
2, 267840, Note_on_c, 0, 74, 0
2, 267840, Note_on_c, 0, 64, 106
2, 268560, Note_on_c, 0, 64, 0
2, 268560, Note_on_c, 0, 65, 80
2, 268800, Note_on_c, 0, 65, 0
2, 268800, Note_on_c, 0, 71, 80
2, 269040, Note_on_c, 0, 71, 0
2, 269040, Note_on_c, 0, 74, 80
2, 269280, Note_on_c, 0, 74, 0
2, 269280, Note_on_c, 0, 73, 80
2, 269520, Note_on_c, 0, 73, 0
2, 269520, Note_on_c, 0, 71, 80
2, 269760, Note_on_c, 0, 71, 0
2, 269760, Note_on_c, 0, 69, 80
2, 270000, Note_on_c, 0, 69, 0
2, 270000, Note_on_c, 0, 68, 80
2, 270047, Note_on_c, 0, 68, 0
2, 270240, Note_on_c, 0, 66, 80
2, 270287, Note_on_c, 0, 66, 0
2, 270480, Note_on_c, 0, 64, 80
2, 270527, Note_on_c, 0, 64, 0
2, 270720, Note_on_c, 0, 66, 93
2, 270720, Note_on_c, 0, 78, 93
2, 271680, Note_on_c, 0, 78, 0
2, 271680, Note_on_c, 0, 66, 0
2, 271680, Note_on_c, 0, 64, 67
2, 271680, Note_on_c, 0, 76, 67
2, 272160, Note_on_c, 0, 76, 0
2, 272880, Note_on_c, 0, 64, 0
2, 272880, Note_on_c, 0, 66, 67
2, 273120, Note_on_c, 0, 66, 0
2, 273120, Note_on_c, 0, 69, 67
2, 273360, Note_on_c, 0, 69, 0
2, 273360, Note_on_c, 0, 73, 67
2, 273600, Note_on_c, 0, 73, 0
2, 273600, Note_on_c, 0, 66, 93
2, 273600, Note_on_c, 0, 78, 93
2, 274560, Note_on_c, 0, 78, 0
2, 274560, Note_on_c, 0, 66, 0
2, 274560, Note_on_c, 0, 64, 67
2, 274560, Note_on_c, 0, 76, 67
2, 275040, Note_on_c, 0, 76, 0
2, 275760, Note_on_c, 0, 64, 0
2, 275760, Note_on_c, 0, 66, 67
2, 276000, Note_on_c, 0, 66, 0
2, 276000, Note_on_c, 0, 69, 67
2, 276240, Note_on_c, 0, 69, 0
2, 276240, Note_on_c, 0, 73, 67
2, 276480, Note_on_c, 0, 73, 0
2, 276480, Note_on_c, 0, 63, 93
2, 276480, Note_on_c, 0, 75, 93
2, 277200, Note_on_c, 0, 75, 0
2, 277200, Note_on_c, 0, 63, 0
2, 277200, Note_on_c, 0, 76, 67
2, 277440, Note_on_c, 0, 76, 0
2, 277440, Note_on_c, 0, 81, 67
2, 277680, Note_on_c, 0, 81, 0
2, 277680, Note_on_c, 0, 85, 67
2, 277920, Note_on_c, 0, 85, 0
2, 277920, Note_on_c, 0, 63, 106
2, 277920, Note_on_c, 0, 75, 106
2, 278640, Note_on_c, 0, 75, 0
2, 278640, Note_on_c, 0, 63, 0
2, 278640, Note_on_c, 0, 76, 80
2, 278880, Note_on_c, 0, 76, 0
2, 278880, Note_on_c, 0, 81, 80
2, 279120, Note_on_c, 0, 81, 0
2, 279120, Note_on_c, 0, 85, 80
2, 279360, Note_on_c, 0, 85, 0
2, 279360, Note_on_c, 0, 78, 106
2, 279360, Note_on_c, 0, 90, 106
2, 280080, Note_on_c, 0, 90, 0
2, 280080, Note_on_c, 0, 78, 0
2, 280080, Note_on_c, 0, 76, 80
2, 280080, Note_on_c, 0, 88, 80
2, 280320, Note_on_c, 0, 88, 0
2, 280320, Note_on_c, 0, 76, 0
2, 280320, Note_on_c, 0, 74, 80
2, 280320, Note_on_c, 0, 86, 80
2, 280560, Note_on_c, 0, 86, 0
2, 280560, Note_on_c, 0, 74, 0
2, 280560, Note_on_c, 0, 73, 80
2, 280560, Note_on_c, 0, 85, 80
2, 280800, Note_on_c, 0, 85, 0
2, 280800, Note_on_c, 0, 73, 0
2, 280800, Note_on_c, 0, 71, 106
2, 280800, Note_on_c, 0, 83, 106
2, 281520, Note_on_c, 0, 83, 0
2, 281520, Note_on_c, 0, 71, 0
2, 281520, Note_on_c, 0, 69, 80
2, 281520, Note_on_c, 0, 81, 80
2, 281760, Note_on_c, 0, 81, 0
2, 281760, Note_on_c, 0, 69, 0
2, 281760, Note_on_c, 0, 68, 80
2, 281760, Note_on_c, 0, 80, 80
2, 282000, Note_on_c, 0, 80, 0
2, 282000, Note_on_c, 0, 68, 0
2, 282000, Note_on_c, 0, 66, 80
2, 282000, Note_on_c, 0, 78, 80
2, 282240, Note_on_c, 0, 78, 0
2, 282240, Note_on_c, 0, 66, 0
2, 282240, Note_on_c, 0, 71, 119
2, 282240, Note_on_c, 0, 83, 119
2, 283200, Note_on_c, 0, 83, 0
2, 283200, Note_on_c, 0, 71, 0
2, 283200, Note_on_c, 0, 69, 93
2, 283200, Note_on_c, 0, 81, 93
2, 284400, Note_on_c, 0, 81, 0
2, 284400, Note_on_c, 0, 69, 0
2, 284400, Note_on_c, 0, 68, 93
2, 284400, Note_on_c, 0, 80, 93
2, 284640, Note_on_c, 0, 80, 0
2, 284640, Note_on_c, 0, 68, 0
2, 284640, Note_on_c, 0, 69, 93
2, 284640, Note_on_c, 0, 81, 93
2, 284880, Note_on_c, 0, 81, 0
2, 284880, Note_on_c, 0, 69, 0
2, 284880, Note_on_c, 0, 72, 93
2, 284880, Note_on_c, 0, 84, 93
2, 285120, Note_on_c, 0, 84, 0
2, 285120, Note_on_c, 0, 72, 0
2, 285120, Note_on_c, 0, 78, 119
2, 285120, Note_on_c, 0, 90, 119
2, 286080, Note_on_c, 0, 90, 0
2, 286080, Note_on_c, 0, 78, 0
2, 286080, Note_on_c, 0, 76, 93
2, 286080, Note_on_c, 0, 88, 93
2, 287280, Note_on_c, 0, 88, 0
2, 287280, Note_on_c, 0, 76, 0
2, 287280, Note_on_c, 0, 72, 93
2, 287280, Note_on_c, 0, 84, 93
2, 287520, Note_on_c, 0, 84, 0
2, 287520, Note_on_c, 0, 72, 0
2, 287520, Note_on_c, 0, 73, 93
2, 287520, Note_on_c, 0, 85, 93
2, 287760, Note_on_c, 0, 85, 0
2, 287760, Note_on_c, 0, 73, 0
2, 287760, Note_on_c, 0, 76, 93
2, 287760, Note_on_c, 0, 88, 93
2, 288000, Note_on_c, 0, 88, 0
2, 288000, Note_on_c, 0, 76, 0
2, 288000, Note_on_c, 0, 78, 119
2, 288000, Note_on_c, 0, 90, 119
2, 288960, Note_on_c, 0, 90, 0
2, 288960, Note_on_c, 0, 78, 0
2, 288960, Note_on_c, 0, 76, 93
2, 288960, Note_on_c, 0, 88, 93
2, 289440, Note_on_c, 0, 88, 0
2, 289440, Note_on_c, 0, 76, 0
2, 289440, Note_on_c, 0, 78, 119
2, 289440, Note_on_c, 0, 90, 119
2, 290400, Note_on_c, 0, 90, 0
2, 290400, Note_on_c, 0, 78, 0
2, 290400, Note_on_c, 0, 76, 93
2, 290400, Note_on_c, 0, 88, 93
2, 290880, Note_on_c, 0, 88, 0
2, 290880, Note_on_c, 0, 76, 0
2, 290880, Note_on_c, 0, 78, 119
2, 290880, Note_on_c, 0, 90, 119
2, 291840, Note_on_c, 0, 90, 0
2, 291840, Note_on_c, 0, 78, 0
2, 291840, Note_on_c, 0, 76, 93
2, 291840, Note_on_c, 0, 88, 93
2, 292320, Note_on_c, 0, 88, 0
2, 292320, Note_on_c, 0, 76, 0
2, 292320, Note_on_c, 0, 78, 119
2, 292320, Note_on_c, 0, 90, 119
2, 293040, Note_on_c, 0, 90, 0
2, 293040, Note_on_c, 0, 78, 0
2, 293040, Note_on_c, 0, 76, 93
2, 293040, Note_on_c, 0, 88, 93
2, 293280, Note_on_c, 0, 88, 0
2, 293280, Note_on_c, 0, 76, 0
2, 293280, Note_on_c, 0, 85, 93
2, 293520, Note_on_c, 0, 85, 0
2, 293520, Note_on_c, 0, 81, 93
2, 293760, Note_on_c, 0, 81, 0
2, 293760, Note_on_c, 0, 73, 106
2, 293760, Note_on_c, 0, 85, 106
2, 294480, Note_on_c, 0, 85, 0
2, 294480, Note_on_c, 0, 73, 0
2, 294480, Note_on_c, 0, 83, 80
2, 294720, Note_on_c, 0, 83, 0
2, 294720, Note_on_c, 0, 80, 80
2, 294960, Note_on_c, 0, 80, 0
2, 294960, Note_on_c, 0, 77, 80
2, 295200, Note_on_c, 0, 77, 0
2, 295200, Note_on_c, 0, 71, 106
2, 295200, Note_on_c, 0, 83, 106
2, 295920, Note_on_c, 0, 83, 0
2, 295920, Note_on_c, 0, 71, 0
2, 295920, Note_on_c, 0, 68, 80
2, 295920, Note_on_c, 0, 80, 80
2, 296160, Note_on_c, 0, 80, 0
2, 296160, Note_on_c, 0, 68, 0
2, 296160, Note_on_c, 0, 76, 80
2, 296400, Note_on_c, 0, 76, 0
2, 296400, Note_on_c, 0, 73, 80
2, 296640, Note_on_c, 0, 73, 0
2, 296640, Note_on_c, 0, 66, 93
2, 296640, Note_on_c, 0, 78, 93
2, 297360, Note_on_c, 0, 78, 0
2, 297360, Note_on_c, 0, 66, 0
2, 297360, Note_on_c, 0, 64, 67
2, 297360, Note_on_c, 0, 76, 67
2, 297600, Note_on_c, 0, 76, 0
2, 297600, Note_on_c, 0, 64, 0
2, 297600, Note_on_c, 0, 74, 67
2, 297840, Note_on_c, 0, 74, 0
2, 297840, Note_on_c, 0, 71, 67
2, 298080, Note_on_c, 0, 71, 0
2, 298080, Note_on_c, 0, 74, 93
2, 298800, Note_on_c, 0, 74, 0
2, 298800, Note_on_c, 0, 73, 67
2, 299040, Note_on_c, 0, 73, 0
2, 299040, Note_on_c, 0, 71, 67
2, 299280, Note_on_c, 0, 71, 0
2, 299280, Note_on_c, 0, 69, 67
2, 299520, Note_on_c, 0, 69, 0
2, 299520, Note_on_c, 0, 73, 93
2, 300240, Note_on_c, 0, 73, 0
2, 300240, Note_on_c, 0, 71, 67
2, 300480, Note_on_c, 0, 71, 0
2, 300480, Note_on_c, 0, 68, 67
2, 300720, Note_on_c, 0, 68, 0
2, 300720, Note_on_c, 0, 66, 67
2, 300960, Note_on_c, 0, 66, 0
2, 300960, Note_on_c, 0, 71, 80
2, 301680, Note_on_c, 0, 71, 0
2, 301680, Note_on_c, 0, 69, 54
2, 301920, Note_on_c, 0, 69, 0
2, 301920, Note_on_c, 0, 66, 54
2, 302160, Note_on_c, 0, 66, 0
2, 302160, Note_on_c, 0, 61, 54
2, 302400, Note_on_c, 0, 61, 0
2, 302640, Note_on_c, 0, 69, 54
2, 302880, Note_on_c, 0, 69, 0
2, 302880, Note_on_c, 0, 71, 54
2, 303840, Note_on_c, 0, 71, 0
2, 303840, Note_on_c, 0, 69, 54
2, 303840, Note_on_c, 0, 73, 54
2, 303840, Note_on_c, 0, 81, 54
2, 304320, Note_on_c, 0, 81, 0
2, 304320, Note_on_c, 0, 73, 0
2, 304320, Note_on_c, 0, 69, 0
2, 304320, Control_c, 0, 64, 127
2, 307200, Control_c, 0, 64, 0
2, 307200, End_track
3, 0, Start_track
3, 0, Title_t, "Grand Piano"
3, 0, Program_c, 0, 0
3, 0, Control_c, 0, 7, 115
3, 0, Control_c, 0, 10, 80
3, 4320, Note_on_c, 0, 81, 54
3, 4320, Note_on_c, 0, 84, 54
3, 5280, Note_on_c, 0, 84, 0
3, 5280, Note_on_c, 0, 81, 0
3, 5280, Note_on_c, 0, 81, 54
3, 5280, Note_on_c, 0, 84, 54
3, 5760, Note_on_c, 0, 84, 0
3, 5760, Note_on_c, 0, 77, 54
3, 6240, Note_on_c, 0, 77, 0
3, 6240, Note_on_c, 0, 81, 0
3, 6240, Note_on_c, 0, 72, 54
3, 6240, Note_on_c, 0, 77, 54
3, 7200, Note_on_c, 0, 72, 0
3, 7200, Note_on_c, 0, 72, 54
3, 7680, Note_on_c, 0, 72, 0
3, 7680, Note_on_c, 0, 77, 0
3, 7680, Note_on_c, 0, 69, 54
3, 7680, Note_on_c, 0, 72, 54
3, 8640, Note_on_c, 0, 72, 0
3, 8640, Note_on_c, 0, 69, 0
3, 8640, Note_on_c, 0, 79, 54
3, 8640, Note_on_c, 0, 82, 54
3, 10080, Note_on_c, 0, 82, 0
3, 10080, Note_on_c, 0, 79, 0
3, 10320, Control_c, 0, 64, 127
3, 10320, Note_on_c, 0, 60, 54
3, 10560, Note_on_c, 0, 60, 0
3, 10560, Note_on_c, 0, 63, 54
3, 10800, Note_on_c, 0, 63, 0
3, 10800, Note_on_c, 0, 68, 67
3, 11040, Note_on_c, 0, 68, 0
3, 11040, Note_on_c, 0, 63, 67
3, 11280, Note_on_c, 0, 63, 0
3, 11280, Control_c, 0, 64, 0
3, 11280, Note_on_c, 0, 60, 67
3, 11520, Note_on_c, 0, 60, 0
3, 11520, Control_c, 0, 64, 127
3, 11520, Note_on_c, 0, 56, 67
3, 11760, Note_on_c, 0, 56, 0
3, 11760, Note_on_c, 0, 59, 67
3, 12000, Note_on_c, 0, 59, 0
3, 12000, Note_on_c, 0, 65, 67
3, 12240, Note_on_c, 0, 65, 0
3, 12240, Note_on_c, 0, 68, 54
3, 12480, Note_on_c, 0, 68, 0
3, 12480, Note_on_c, 0, 65, 54
3, 12720, Note_on_c, 0, 65, 0
3, 12720, Control_c, 0, 64, 0
3, 12720, Note_on_c, 0, 59, 54
3, 12960, Note_on_c, 0, 59, 0
3, 15840, Note_on_c, 0, 81, 54
3, 15840, Note_on_c, 0, 84, 54
3, 16800, Note_on_c, 0, 84, 0
3, 16800, Note_on_c, 0, 81, 0
3, 16800, Note_on_c, 0, 81, 54
3, 16800, Note_on_c, 0, 84, 54
3, 17280, Note_on_c, 0, 84, 0
3, 17280, Note_on_c, 0, 77, 54
3, 17760, Note_on_c, 0, 77, 0
3, 17760, Note_on_c, 0, 81, 0
3, 17760, Note_on_c, 0, 72, 54
3, 17760, Note_on_c, 0, 77, 54
3, 18720, Note_on_c, 0, 72, 0
3, 18720, Note_on_c, 0, 72, 54
3, 19200, Note_on_c, 0, 72, 0
3, 19200, Note_on_c, 0, 77, 0
3, 19200, Note_on_c, 0, 69, 54
3, 19200, Note_on_c, 0, 72, 54
3, 20160, Note_on_c, 0, 72, 0
3, 20160, Note_on_c, 0, 69, 0
3, 20160, Note_on_c, 0, 79, 54
3, 20160, Note_on_c, 0, 81, 54
3, 21600, Note_on_c, 0, 81, 0
3, 21600, Note_on_c, 0, 79, 0
3, 21840, Control_c, 0, 64, 127
3, 21840, Note_on_c, 0, 58, 54
3, 22080, Note_on_c, 0, 58, 0
3, 22080, Note_on_c, 0, 64, 54
3, 22320, Note_on_c, 0, 64, 0
3, 22320, Note_on_c, 0, 67, 67
3, 22560, Note_on_c, 0, 67, 0
3, 22560, Note_on_c, 0, 64, 67
3, 22800, Note_on_c, 0, 64, 0
3, 22800, Control_c, 0, 64, 0
3, 22800, Note_on_c, 0, 58, 67
3, 23040, Note_on_c, 0, 58, 0
3, 23280, Control_c, 0, 64, 127
3, 23280, Note_on_c, 0, 58, 67
3, 23520, Note_on_c, 0, 58, 0
3, 23520, Note_on_c, 0, 64, 67
3, 23760, Note_on_c, 0, 64, 0
3, 23760, Note_on_c, 0, 67, 67
3, 24000, Note_on_c, 0, 67, 0
3, 24000, Note_on_c, 0, 64, 54
3, 24240, Note_on_c, 0, 64, 0
3, 24240, Control_c, 0, 64, 0
3, 24240, Note_on_c, 0, 58, 54
3, 24480, Note_on_c, 0, 58, 0
3, 25920, Note_on_c, 0, 65, 54
3, 27360, Note_on_c, 0, 65, 0
3, 29280, Note_on_c, 0, 67, 67
3, 29760, Note_on_c, 0, 67, 0
3, 29760, Note_on_c, 0, 72, 67
3, 30240, Note_on_c, 0, 72, 0
3, 30240, Note_on_c, 0, 77, 67
3, 30720, Note_on_c, 0, 77, 0
3, 30720, Note_on_c, 0, 79, 67
3, 31200, Note_on_c, 0, 79, 0
3, 31200, Note_on_c, 0, 77, 67
3, 31680, Note_on_c, 0, 77, 0
3, 47520, Note_on_c, 0, 81, 54
3, 47520, Note_on_c, 0, 84, 54
3, 48480, Note_on_c, 0, 84, 0
3, 48480, Note_on_c, 0, 81, 0
3, 48480, Note_on_c, 0, 81, 54
3, 48480, Note_on_c, 0, 84, 54
3, 48960, Note_on_c, 0, 84, 0
3, 48960, Note_on_c, 0, 77, 54
3, 49440, Note_on_c, 0, 77, 0
3, 49440, Note_on_c, 0, 81, 0
3, 49440, Note_on_c, 0, 72, 54
3, 49440, Note_on_c, 0, 77, 54
3, 50400, Note_on_c, 0, 72, 0
3, 50400, Note_on_c, 0, 72, 54
3, 50880, Note_on_c, 0, 72, 0
3, 50880, Note_on_c, 0, 77, 0
3, 50880, Note_on_c, 0, 69, 54
3, 50880, Note_on_c, 0, 72, 54
3, 51840, Note_on_c, 0, 72, 0
3, 51840, Note_on_c, 0, 69, 0
3, 51840, Note_on_c, 0, 79, 54
3, 51840, Note_on_c, 0, 82, 54
3, 53280, Note_on_c, 0, 82, 0
3, 53280, Note_on_c, 0, 79, 0
3, 53520, Control_c, 0, 64, 127
3, 53520, Note_on_c, 0, 60, 54
3, 53760, Note_on_c, 0, 60, 0
3, 53760, Note_on_c, 0, 63, 54
3, 54000, Note_on_c, 0, 63, 0
3, 54000, Note_on_c, 0, 68, 67
3, 54240, Note_on_c, 0, 68, 0
3, 54240, Note_on_c, 0, 63, 67
3, 54480, Note_on_c, 0, 63, 0
3, 54480, Control_c, 0, 64, 0
3, 54480, Note_on_c, 0, 60, 67
3, 54720, Note_on_c, 0, 60, 0
3, 54720, Control_c, 0, 64, 127
3, 54720, Note_on_c, 0, 56, 67
3, 54960, Note_on_c, 0, 56, 0
3, 54960, Note_on_c, 0, 59, 67
3, 55200, Note_on_c, 0, 59, 0
3, 55200, Note_on_c, 0, 65, 67
3, 55440, Note_on_c, 0, 65, 0
3, 55440, Note_on_c, 0, 68, 54
3, 55680, Note_on_c, 0, 68, 0
3, 55680, Note_on_c, 0, 65, 54
3, 55920, Note_on_c, 0, 65, 0
3, 55920, Control_c, 0, 64, 0
3, 55920, Note_on_c, 0, 59, 54
3, 56160, Note_on_c, 0, 59, 0
3, 59040, Note_on_c, 0, 81, 54
3, 59040, Note_on_c, 0, 84, 54
3, 60000, Note_on_c, 0, 84, 0
3, 60000, Note_on_c, 0, 81, 0
3, 60000, Note_on_c, 0, 81, 54
3, 60000, Note_on_c, 0, 84, 54
3, 60480, Note_on_c, 0, 84, 0
3, 60480, Note_on_c, 0, 77, 54
3, 60960, Note_on_c, 0, 77, 0
3, 60960, Note_on_c, 0, 81, 0
3, 60960, Note_on_c, 0, 72, 54
3, 60960, Note_on_c, 0, 77, 54
3, 61920, Note_on_c, 0, 72, 0
3, 61920, Note_on_c, 0, 72, 54
3, 62400, Note_on_c, 0, 72, 0
3, 62400, Note_on_c, 0, 77, 0
3, 62400, Note_on_c, 0, 69, 54
3, 62400, Note_on_c, 0, 72, 54
3, 63360, Note_on_c, 0, 72, 0
3, 63360, Note_on_c, 0, 69, 0
3, 63360, Note_on_c, 0, 79, 54
3, 63360, Note_on_c, 0, 82, 54
3, 64800, Note_on_c, 0, 82, 0
3, 64800, Note_on_c, 0, 79, 0
3, 65040, Control_c, 0, 64, 127
3, 65040, Note_on_c, 0, 60, 54
3, 65280, Note_on_c, 0, 60, 0
3, 65280, Note_on_c, 0, 63, 54
3, 65520, Note_on_c, 0, 63, 0
3, 65520, Note_on_c, 0, 68, 67
3, 65760, Note_on_c, 0, 68, 0
3, 65760, Note_on_c, 0, 63, 67
3, 66000, Note_on_c, 0, 63, 0
3, 66000, Control_c, 0, 64, 0
3, 66000, Note_on_c, 0, 60, 67
3, 66240, Note_on_c, 0, 60, 0
3, 66240, Control_c, 0, 64, 127
3, 66240, Note_on_c, 0, 56, 67
3, 66480, Note_on_c, 0, 56, 0
3, 66480, Note_on_c, 0, 59, 67
3, 66720, Note_on_c, 0, 59, 0
3, 66720, Note_on_c, 0, 65, 67
3, 66960, Note_on_c, 0, 65, 0
3, 66960, Note_on_c, 0, 68, 54
3, 67200, Note_on_c, 0, 68, 0
3, 67200, Note_on_c, 0, 65, 54
3, 67440, Note_on_c, 0, 65, 0
3, 67440, Control_c, 0, 64, 0
3, 67440, Note_on_c, 0, 59, 54
3, 67680, Note_on_c, 0, 59, 0
3, 70560, Note_on_c, 0, 70, 67
3, 70560, Note_on_c, 0, 76, 67
3, 70560, Note_on_c, 0, 79, 67
3, 72000, Note_on_c, 0, 79, 0
3, 72000, Note_on_c, 0, 76, 0
3, 72000, Note_on_c, 0, 70, 0
3, 73440, Note_on_c, 0, 70, 67
3, 73440, Note_on_c, 0, 76, 67
3, 73440, Note_on_c, 0, 79, 67
3, 74880, Note_on_c, 0, 79, 0
3, 74880, Note_on_c, 0, 76, 0
3, 74880, Note_on_c, 0, 70, 0
3, 80640, Note_on_c, 0, 69, 93
3, 81120, Note_on_c, 0, 69, 0
3, 81120, Note_on_c, 0, 78, 93
3, 81600, Note_on_c, 0, 78, 0
3, 81600, Note_on_c, 0, 76, 93
3, 81600, Note_on_c, 0, 81, 93
3, 82080, Note_on_c, 0, 81, 0
3, 82080, Note_on_c, 0, 76, 0
3, 82080, Note_on_c, 0, 78, 93
3, 82080, Note_on_c, 0, 83, 93
3, 83040, Note_on_c, 0, 83, 0
3, 83040, Note_on_c, 0, 78, 0
3, 83040, Note_on_c, 0, 83, 106
3, 83040, Note_on_c, 0, 86, 106
3, 83520, Note_on_c, 0, 86, 0
3, 83520, Note_on_c, 0, 83, 0
3, 83520, Note_on_c, 0, 81, 106
3, 83520, Note_on_c, 0, 85, 106
3, 84960, Note_on_c, 0, 85, 0
3, 84960, Note_on_c, 0, 81, 0
3, 85440, Note_on_c, 0, 72, 93
3, 85920, Note_on_c, 0, 72, 0
3, 85920, Note_on_c, 0, 72, 93
3, 86400, Note_on_c, 0, 72, 0
3, 86400, Note_on_c, 0, 73, 93
3, 86880, Note_on_c, 0, 73, 0
3, 86880, Note_on_c, 0, 78, 93
3, 87360, Note_on_c, 0, 78, 0
3, 87360, Note_on_c, 0, 76, 93
3, 87360, Note_on_c, 0, 81, 93
3, 87840, Note_on_c, 0, 81, 0
3, 87840, Note_on_c, 0, 76, 0
3, 87840, Note_on_c, 0, 78, 93
3, 87840, Note_on_c, 0, 83, 93
3, 88800, Note_on_c, 0, 83, 0
3, 88800, Note_on_c, 0, 78, 0
3, 88800, Note_on_c, 0, 83, 106
3, 88800, Note_on_c, 0, 86, 106
3, 89280, Note_on_c, 0, 86, 0
3, 89280, Note_on_c, 0, 83, 0
3, 89280, Note_on_c, 0, 81, 106
3, 89280, Note_on_c, 0, 86, 106
3, 90720, Note_on_c, 0, 86, 0
3, 90720, Note_on_c, 0, 81, 0
3, 90720, Note_on_c, 0, 82, 106
3, 90720, Note_on_c, 0, 88, 106
3, 91680, Note_on_c, 0, 88, 0
3, 91680, Note_on_c, 0, 82, 0
3, 91680, Note_on_c, 0, 76, 106
3, 91680, Note_on_c, 0, 78, 106
3, 92160, Note_on_c, 0, 78, 0
3, 92160, Note_on_c, 0, 76, 0
3, 92160, Note_on_c, 0, 82, 106
3, 92160, Note_on_c, 0, 85, 106
3, 92640, Note_on_c, 0, 85, 0
3, 92640, Note_on_c, 0, 82, 0
3, 92640, Note_on_c, 0, 83, 106
3, 92640, Note_on_c, 0, 86, 106
3, 93600, Note_on_c, 0, 86, 0
3, 93600, Note_on_c, 0, 83, 0
3, 93600, Note_on_c, 0, 82, 106
3, 93600, Note_on_c, 0, 88, 106
3, 94560, Note_on_c, 0, 88, 0
3, 94560, Note_on_c, 0, 82, 0
3, 94560, Note_on_c, 0, 76, 106
3, 94560, Note_on_c, 0, 78, 106
3, 95040, Note_on_c, 0, 78, 0
3, 95040, Note_on_c, 0, 76, 0
3, 95040, Note_on_c, 0, 82, 106
3, 95040, Note_on_c, 0, 85, 106
3, 95520, Note_on_c, 0, 85, 0
3, 95520, Note_on_c, 0, 82, 0
3, 95520, Note_on_c, 0, 83, 106
3, 95520, Note_on_c, 0, 86, 106
3, 96480, Note_on_c, 0, 86, 0
3, 96480, Note_on_c, 0, 83, 0
3, 96480, Note_on_c, 0, 78, 106
3, 96480, Note_on_c, 0, 83, 106
3, 97920, Note_on_c, 0, 83, 0
3, 97920, Note_on_c, 0, 78, 0
3, 97920, Note_on_c, 0, 78, 106
3, 97920, Note_on_c, 0, 83, 106
3, 98880, Note_on_c, 0, 83, 0
3, 98880, Note_on_c, 0, 78, 0
3, 99360, Note_on_c, 0, 74, 106
3, 99360, Note_on_c, 0, 78, 106
3, 99840, Note_on_c, 0, 78, 0
3, 99840, Note_on_c, 0, 74, 0
3, 99840, Note_on_c, 0, 71, 106
3, 99840, Note_on_c, 0, 74, 106
3, 100800, Note_on_c, 0, 74, 0
3, 100800, Note_on_c, 0, 71, 0
3, 100800, Note_on_c, 0, 71, 106
3, 100800, Note_on_c, 0, 74, 106
3, 102240, Note_on_c, 0, 74, 0
3, 102240, Note_on_c, 0, 71, 0
3, 103680, Note_on_c, 0, 61, 93
3, 104160, Note_on_c, 0, 61, 0
3, 104160, Note_on_c, 0, 66, 93
3, 104640, Note_on_c, 0, 66, 0
3, 104640, Note_on_c, 0, 64, 93
3, 104640, Note_on_c, 0, 69, 93
3, 105120, Note_on_c, 0, 69, 0
3, 105120, Note_on_c, 0, 64, 0
3, 105120, Note_on_c, 0, 66, 106
3, 105120, Note_on_c, 0, 71, 106
3, 106080, Note_on_c, 0, 71, 0
3, 106080, Note_on_c, 0, 66, 0
3, 106080, Note_on_c, 0, 71, 106
3, 106080, Note_on_c, 0, 74, 106
3, 106560, Note_on_c, 0, 74, 0
3, 106560, Note_on_c, 0, 71, 0
3, 106560, Note_on_c, 0, 69, 106
3, 106560, Note_on_c, 0, 73, 106
3, 108000, Note_on_c, 0, 73, 0
3, 108000, Note_on_c, 0, 69, 0
3, 109440, Note_on_c, 0, 61, 93
3, 109920, Note_on_c, 0, 61, 0
3, 109920, Note_on_c, 0, 66, 93
3, 110400, Note_on_c, 0, 66, 0
3, 110400, Note_on_c, 0, 64, 93
3, 110400, Note_on_c, 0, 69, 93
3, 110880, Note_on_c, 0, 69, 0
3, 110880, Note_on_c, 0, 64, 0
3, 110880, Note_on_c, 0, 66, 106
3, 110880, Note_on_c, 0, 71, 106
3, 111840, Note_on_c, 0, 71, 0
3, 111840, Note_on_c, 0, 66, 0
3, 111840, Note_on_c, 0, 71, 106
3, 111840, Note_on_c, 0, 74, 106
3, 112320, Note_on_c, 0, 74, 0
3, 112320, Note_on_c, 0, 71, 0
3, 112320, Note_on_c, 0, 69, 106
3, 112320, Note_on_c, 0, 74, 106
3, 113760, Note_on_c, 0, 74, 0
3, 113760, Note_on_c, 0, 69, 0
3, 113760, Note_on_c, 0, 70, 106
3, 113760, Note_on_c, 0, 76, 106
3, 114720, Note_on_c, 0, 76, 0
3, 114720, Note_on_c, 0, 70, 0
3, 114720, Note_on_c, 0, 64, 106
3, 114720, Note_on_c, 0, 66, 106
3, 115200, Note_on_c, 0, 66, 0
3, 115200, Note_on_c, 0, 64, 0
3, 115200, Note_on_c, 0, 70, 106
3, 115200, Note_on_c, 0, 73, 106
3, 115680, Note_on_c, 0, 73, 0
3, 115680, Note_on_c, 0, 70, 0
3, 115680, Note_on_c, 0, 71, 106
3, 115680, Note_on_c, 0, 74, 106
3, 116640, Note_on_c, 0, 74, 0
3, 116640, Note_on_c, 0, 71, 0
3, 116640, Note_on_c, 0, 70, 106
3, 116640, Note_on_c, 0, 76, 106
3, 117600, Note_on_c, 0, 76, 0
3, 117600, Note_on_c, 0, 70, 0
3, 117600, Note_on_c, 0, 64, 106
3, 117600, Note_on_c, 0, 66, 106
3, 118080, Note_on_c, 0, 66, 0
3, 118080, Note_on_c, 0, 64, 0
3, 118080, Note_on_c, 0, 70, 106
3, 118080, Note_on_c, 0, 73, 106
3, 118560, Note_on_c, 0, 73, 0
3, 118560, Note_on_c, 0, 70, 0
3, 118560, Note_on_c, 0, 71, 106
3, 118560, Note_on_c, 0, 74, 106
3, 119520, Note_on_c, 0, 74, 0
3, 119520, Note_on_c, 0, 71, 0
3, 119520, Note_on_c, 0, 66, 106
3, 119520, Note_on_c, 0, 71, 106
3, 122400, Note_on_c, 0, 71, 0
3, 122400, Note_on_c, 0, 66, 0
3, 122400, Note_on_c, 0, 62, 106
3, 122400, Note_on_c, 0, 66, 106
3, 123840, Note_on_c, 0, 66, 0
3, 123840, Note_on_c, 0, 62, 0
3, 123840, Note_on_c, 0, 64, 106
3, 123840, Note_on_c, 0, 68, 106
3, 124800, Note_on_c, 0, 68, 0
3, 124800, Note_on_c, 0, 64, 0
3, 125760, Note_on_c, 0, 69, 106
3, 126720, Note_on_c, 0, 69, 0
3, 126720, Note_on_c, 0, 69, 106
3, 127680, Note_on_c, 0, 69, 0
3, 127680, Note_on_c, 0, 68, 106
3, 128160, Note_on_c, 0, 68, 0
3, 128160, Note_on_c, 0, 69, 106
3, 128640, Note_on_c, 0, 69, 0
3, 128640, Note_on_c, 0, 69, 106
3, 130560, Note_on_c, 0, 69, 0
3, 130560, Note_on_c, 0, 62, 93
3, 131040, Note_on_c, 0, 62, 0
3, 131520, Note_on_c, 0, 62, 106
3, 131679, Note_on_c, 0, 62, 0
3, 131679, Note_on_c, 0, 62, 106
3, 131840, Note_on_c, 0, 62, 0
3, 131840, Note_on_c, 0, 62, 106
3, 132000, Note_on_c, 0, 62, 0
3, 132000, Note_on_c, 0, 64, 106
3, 132159, Note_on_c, 0, 64, 0
3, 132159, Note_on_c, 0, 64, 106
3, 132320, Note_on_c, 0, 64, 0
3, 132320, Note_on_c, 0, 64, 106
3, 132480, Note_on_c, 0, 64, 0
3, 132480, Note_on_c, 0, 65, 106
3, 132639, Note_on_c, 0, 65, 0
3, 132639, Note_on_c, 0, 65, 106
3, 132800, Note_on_c, 0, 65, 0
3, 132800, Note_on_c, 0, 65, 106
3, 132960, Note_on_c, 0, 65, 0
3, 132960, Note_on_c, 0, 66, 106
3, 133119, Note_on_c, 0, 66, 0
3, 133119, Note_on_c, 0, 66, 106
3, 133280, Note_on_c, 0, 66, 0
3, 133280, Note_on_c, 0, 66, 106
3, 133440, Note_on_c, 0, 66, 0
3, 133440, Note_on_c, 0, 68, 106
3, 133599, Note_on_c, 0, 68, 0
3, 133599, Note_on_c, 0, 68, 106
3, 133760, Note_on_c, 0, 68, 0
3, 133760, Note_on_c, 0, 68, 106
3, 133920, Note_on_c, 0, 68, 0
3, 133920, Note_on_c, 0, 64, 106
3, 134400, Note_on_c, 0, 64, 0
3, 134400, Note_on_c, 0, 69, 106
3, 134400, Note_on_c, 0, 73, 106
3, 135360, Note_on_c, 0, 73, 0
3, 135360, Note_on_c, 0, 69, 0
3, 135360, Note_on_c, 0, 69, 106
3, 135360, Note_on_c, 0, 74, 106
3, 135840, Note_on_c, 0, 74, 0
3, 135840, Note_on_c, 0, 69, 0
3, 135840, Note_on_c, 0, 69, 106
3, 135840, Note_on_c, 0, 75, 106
3, 136320, Note_on_c, 0, 75, 0
3, 136320, Note_on_c, 0, 69, 0
3, 136320, Note_on_c, 0, 74, 106
3, 136320, Note_on_c, 0, 76, 106
3, 136800, Note_on_c, 0, 76, 0
3, 136800, Note_on_c, 0, 74, 0
3, 137280, Note_on_c, 0, 73, 80
3, 138000, Note_on_c, 0, 73, 0
3, 138000, Note_on_c, 0, 71, 80
3, 138240, Note_on_c, 0, 71, 0
3, 138240, Note_on_c, 0, 69, 80
3, 138287, Note_on_c, 0, 69, 0
3, 138480, Note_on_c, 0, 68, 80
3, 138527, Note_on_c, 0, 68, 0
3, 138720, Note_on_c, 0, 66, 80
3, 138767, Note_on_c, 0, 66, 0
3, 139200, Note_on_c, 0, 71, 80
3, 139920, Note_on_c, 0, 71, 0
3, 139920, Note_on_c, 0, 69, 80
3, 140160, Note_on_c, 0, 69, 0
3, 140160, Note_on_c, 0, 68, 80
3, 140207, Note_on_c, 0, 68, 0
3, 140400, Note_on_c, 0, 66, 80
3, 140447, Note_on_c, 0, 66, 0
3, 140640, Note_on_c, 0, 64, 80
3, 140687, Note_on_c, 0, 64, 0
3, 141120, Note_on_c, 0, 61, 80
3, 141840, Note_on_c, 0, 61, 0
3, 141840, Note_on_c, 0, 59, 80
3, 142080, Note_on_c, 0, 59, 0
3, 142080, Note_on_c, 0, 57, 80
3, 142320, Note_on_c, 0, 57, 0
3, 142320, Note_on_c, 0, 56, 80
3, 142367, Note_on_c, 0, 56, 0
3, 142560, Note_on_c, 0, 54, 80
3, 142607, Note_on_c, 0, 54, 0
3, 143040, Note_on_c, 0, 59, 80
3, 143760, Note_on_c, 0, 59, 0
3, 143760, Note_on_c, 0, 57, 67
3, 144000, Note_on_c, 0, 57, 0
3, 144000, Note_on_c, 0, 56, 67
3, 144047, Note_on_c, 0, 56, 0
3, 144240, Note_on_c, 0, 54, 67
3, 144287, Note_on_c, 0, 54, 0
3, 161280, Note_on_c, 0, 69, 54
3, 161280, Note_on_c, 0, 73, 54
3, 161327, Note_on_c, 0, 73, 0
3, 161327, Note_on_c, 0, 69, 0
3, 164160, Note_on_c, 0, 69, 54
3, 164160, Note_on_c, 0, 73, 54
3, 164207, Note_on_c, 0, 73, 0
3, 164207, Note_on_c, 0, 69, 0
3, 172800, Note_on_c, 0, 71, 54
3, 172800, Note_on_c, 0, 74, 54
3, 172847, Note_on_c, 0, 74, 0
3, 172847, Note_on_c, 0, 71, 0
3, 175680, Note_on_c, 0, 71, 54
3, 175680, Note_on_c, 0, 74, 54
3, 175727, Note_on_c, 0, 74, 0
3, 175727, Note_on_c, 0, 71, 0
3, 184320, Note_on_c, 0, 60, 67
3, 184560, Note_on_c, 0, 60, 0
3, 184560, Note_on_c, 0, 61, 67
3, 184800, Note_on_c, 0, 61, 0
3, 184800, Note_on_c, 0, 62, 93
3, 185280, Note_on_c, 0, 62, 0
3, 185280, Note_on_c, 0, 61, 67
3, 185520, Note_on_c, 0, 61, 0
3, 187200, Note_on_c, 0, 60, 67
3, 187440, Note_on_c, 0, 60, 0
3, 187440, Note_on_c, 0, 61, 67
3, 187680, Note_on_c, 0, 61, 0
3, 187680, Note_on_c, 0, 62, 93
3, 188160, Note_on_c, 0, 62, 0
3, 188160, Note_on_c, 0, 61, 67
3, 188400, Note_on_c, 0, 61, 0
3, 195840, Note_on_c, 0, 61, 67
3, 196080, Note_on_c, 0, 61, 0
3, 196080, Note_on_c, 0, 62, 67
3, 196320, Note_on_c, 0, 62, 0
3, 196320, Note_on_c, 0, 64, 93
3, 196800, Note_on_c, 0, 64, 0
3, 196800, Note_on_c, 0, 62, 67
3, 197040, Note_on_c, 0, 62, 0
3, 198720, Note_on_c, 0, 61, 67
3, 198960, Note_on_c, 0, 61, 0
3, 198960, Note_on_c, 0, 62, 67
3, 199200, Note_on_c, 0, 62, 0
3, 199200, Note_on_c, 0, 64, 93
3, 199680, Note_on_c, 0, 64, 0
3, 199680, Note_on_c, 0, 62, 67
3, 199920, Note_on_c, 0, 62, 0
3, 245040, Note_on_c, 0, 58, 67
3, 245040, Note_on_c, 0, 61, 67
3, 245280, Note_on_c, 0, 61, 0
3, 245280, Note_on_c, 0, 58, 0
3, 245280, Note_on_c, 0, 61, 67
3, 245280, Note_on_c, 0, 64, 67
3, 245520, Note_on_c, 0, 64, 0
3, 245520, Note_on_c, 0, 61, 0
3, 245520, Note_on_c, 0, 63, 67
3, 245520, Note_on_c, 0, 66, 67
3, 245760, Note_on_c, 0, 66, 0
3, 245760, Note_on_c, 0, 63, 0
3, 245760, Note_on_c, 0, 64, 67
3, 245760, Note_on_c, 0, 67, 67
3, 246000, Note_on_c, 0, 67, 0
3, 246000, Note_on_c, 0, 64, 0
3, 246000, Note_on_c, 0, 61, 67
3, 246000, Note_on_c, 0, 64, 67
3, 246240, Note_on_c, 0, 64, 0
3, 246240, Note_on_c, 0, 61, 0
3, 246480, Note_on_c, 0, 59, 67
3, 246480, Note_on_c, 0, 62, 67
3, 246720, Note_on_c, 0, 62, 0
3, 246720, Note_on_c, 0, 59, 0
3, 246720, Note_on_c, 0, 64, 67
3, 246720, Note_on_c, 0, 68, 67
3, 246960, Note_on_c, 0, 68, 0
3, 246960, Note_on_c, 0, 64, 0
3, 246960, Note_on_c, 0, 66, 67
3, 246960, Note_on_c, 0, 69, 67
3, 247200, Note_on_c, 0, 69, 0
3, 247200, Note_on_c, 0, 66, 0
3, 247200, Note_on_c, 0, 68, 67
3, 247200, Note_on_c, 0, 71, 67
3, 247440, Note_on_c, 0, 71, 0
3, 247440, Note_on_c, 0, 68, 0
3, 247440, Note_on_c, 0, 64, 67
3, 247680, Note_on_c, 0, 64, 0
3, 247920, Note_on_c, 0, 56, 54
3, 248160, Note_on_c, 0, 56, 0
3, 248160, Note_on_c, 0, 57, 54
3, 248400, Note_on_c, 0, 57, 0
3, 248400, Note_on_c, 0, 59, 54
3, 248640, Note_on_c, 0, 59, 0
3, 248640, Note_on_c, 0, 61, 54
3, 248880, Note_on_c, 0, 61, 0
3, 248880, Note_on_c, 0, 62, 54
3, 249120, Note_on_c, 0, 62, 0
3, 249120, Note_on_c, 0, 61, 54
3, 249360, Note_on_c, 0, 61, 0
3, 250800, Note_on_c, 0, 56, 54
3, 251040, Note_on_c, 0, 56, 0
3, 251040, Note_on_c, 0, 57, 54
3, 251280, Note_on_c, 0, 57, 0
3, 251280, Note_on_c, 0, 59, 54
3, 251520, Note_on_c, 0, 59, 0
3, 251520, Note_on_c, 0, 61, 54
3, 251760, Note_on_c, 0, 61, 0
3, 251760, Note_on_c, 0, 62, 54
3, 252000, Note_on_c, 0, 62, 0
3, 252000, Note_on_c, 0, 61, 54
3, 252240, Note_on_c, 0, 61, 0
3, 259680, Note_on_c, 0, 56, 54
3, 259920, Note_on_c, 0, 56, 0
3, 259920, Note_on_c, 0, 58, 54
3, 260160, Note_on_c, 0, 58, 0
3, 260160, Note_on_c, 0, 59, 54
3, 260400, Note_on_c, 0, 59, 0
3, 260400, Note_on_c, 0, 61, 54
3, 260640, Note_on_c, 0, 61, 0
3, 260640, Note_on_c, 0, 62, 54
3, 260880, Note_on_c, 0, 62, 0
3, 262560, Note_on_c, 0, 56, 54
3, 262800, Note_on_c, 0, 56, 0
3, 262800, Note_on_c, 0, 58, 54
3, 263040, Note_on_c, 0, 58, 0
3, 263040, Note_on_c, 0, 59, 54
3, 263280, Note_on_c, 0, 59, 0
3, 263280, Note_on_c, 0, 61, 54
3, 263520, Note_on_c, 0, 61, 0
3, 263520, Note_on_c, 0, 62, 54
3, 263760, Note_on_c, 0, 62, 0
3, 272160, Note_on_c, 0, 60, 67
3, 272400, Note_on_c, 0, 60, 0
3, 272400, Note_on_c, 0, 61, 67
3, 272640, Note_on_c, 0, 61, 0
3, 272640, Note_on_c, 0, 62, 93
3, 273120, Note_on_c, 0, 62, 0
3, 273120, Note_on_c, 0, 61, 67
3, 273360, Note_on_c, 0, 61, 0
3, 275040, Note_on_c, 0, 60, 67
3, 275280, Note_on_c, 0, 60, 0
3, 275280, Note_on_c, 0, 61, 67
3, 275520, Note_on_c, 0, 61, 0
3, 275520, Note_on_c, 0, 62, 93
3, 276000, Note_on_c, 0, 62, 0
3, 276000, Note_on_c, 0, 61, 67
3, 276240, Note_on_c, 0, 61, 0
3, 298560, Note_on_c, 0, 65, 67
3, 299040, Note_on_c, 0, 65, 0
3, 299040, Note_on_c, 0, 64, 67
3, 299520, Note_on_c, 0, 64, 0
3, 299760, Note_on_c, 0, 64, 67
3, 300000, Note_on_c, 0, 64, 0
3, 300000, Note_on_c, 0, 65, 67
3, 300960, Note_on_c, 0, 65, 0
3, 301200, Note_on_c, 0, 65, 54
3, 301440, Note_on_c, 0, 65, 0
3, 301440, Note_on_c, 0, 66, 54
3, 302400, Note_on_c, 0, 66, 0
3, 303360, Note_on_c, 0, 76, 54
3, 303480, Note_on_c, 0, 76, 0
3, 303480, Note_on_c, 0, 78, 54
3, 303600, Note_on_c, 0, 78, 0
3, 303600, Note_on_c, 0, 75, 54
3, 303720, Note_on_c, 0, 75, 0
3, 303720, Note_on_c, 0, 76, 54
3, 303840, Note_on_c, 0, 76, 0
3, 303840, End_track
4, 0, Start_track
4, 0, Title_t, "Grand Piano"
4, 0, Program_c, 0, 0
4, 0, Control_c, 0, 7, 115
4, 0, Control_c, 0, 10, 41
4, 0, Note_on_c, 0, 41, 54
4, 0, Note_on_c, 0, 48, 54
4, 0, Note_on_c, 0, 53, 54
4, 960, Note_on_c, 0, 53, 0
4, 960, Note_on_c, 0, 48, 0
4, 960, Note_on_c, 0, 41, 0
4, 1440, Note_on_c, 0, 41, 54
4, 1440, Note_on_c, 0, 48, 54
4, 1440, Note_on_c, 0, 53, 54
4, 2400, Note_on_c, 0, 53, 0
4, 2400, Note_on_c, 0, 48, 0
4, 2400, Note_on_c, 0, 41, 0
4, 2880, Control_c, 0, 64, 127
4, 2880, Note_on_c, 0, 57, 54
4, 3120, Note_on_c, 0, 57, 0
4, 3120, Note_on_c, 0, 60, 54
4, 3360, Note_on_c, 0, 60, 0
4, 3360, Note_on_c, 0, 65, 54
4, 3600, Note_on_c, 0, 65, 0
4, 3600, Note_on_c, 0, 69, 54
4, 3840, Note_on_c, 0, 69, 0
4, 3840, Note_on_c, 0, 65, 54
4, 4080, Note_on_c, 0, 65, 0
4, 4080, Control_c, 0, 64, 0
4, 4080, Note_on_c, 0, 60, 54
4, 4320, Note_on_c, 0, 60, 0
4, 4320, Control_c, 0, 64, 127
4, 4320, Note_on_c, 0, 57, 54
4, 4560, Note_on_c, 0, 57, 0
4, 4560, Note_on_c, 0, 60, 54
4, 4800, Note_on_c, 0, 60, 0
4, 4800, Note_on_c, 0, 65, 54
4, 5040, Note_on_c, 0, 65, 0
4, 5040, Note_on_c, 0, 69, 54
4, 5280, Note_on_c, 0, 69, 0
4, 5280, Note_on_c, 0, 65, 54
4, 5520, Note_on_c, 0, 65, 0
4, 5520, Control_c, 0, 64, 0
4, 5520, Note_on_c, 0, 60, 54
4, 5760, Note_on_c, 0, 60, 0
4, 5760, Control_c, 0, 64, 127
4, 5760, Note_on_c, 0, 57, 54
4, 6000, Note_on_c, 0, 57, 0
4, 6000, Note_on_c, 0, 60, 54
4, 6240, Note_on_c, 0, 60, 0
4, 6240, Note_on_c, 0, 65, 54
4, 6480, Note_on_c, 0, 65, 0
4, 6480, Note_on_c, 0, 69, 54
4, 6720, Note_on_c, 0, 69, 0
4, 6720, Note_on_c, 0, 65, 54
4, 6960, Note_on_c, 0, 65, 0
4, 6960, Control_c, 0, 64, 0
4, 6960, Note_on_c, 0, 60, 54
4, 7200, Note_on_c, 0, 60, 0
4, 7200, Control_c, 0, 64, 127
4, 7200, Note_on_c, 0, 57, 54
4, 7440, Note_on_c, 0, 57, 0
4, 7440, Note_on_c, 0, 60, 54
4, 7680, Note_on_c, 0, 60, 0
4, 7680, Note_on_c, 0, 65, 54
4, 7920, Note_on_c, 0, 65, 0
4, 7920, Note_on_c, 0, 69, 54
4, 8160, Note_on_c, 0, 69, 0
4, 8160, Note_on_c, 0, 65, 54
4, 8400, Note_on_c, 0, 65, 0
4, 8400, Control_c, 0, 64, 0
4, 8400, Note_on_c, 0, 60, 54
4, 8640, Note_on_c, 0, 60, 0
4, 8640, Control_c, 0, 64, 127
4, 8640, Note_on_c, 0, 58, 54
4, 8880, Note_on_c, 0, 58, 0
4, 8880, Note_on_c, 0, 60, 54
4, 9120, Note_on_c, 0, 60, 0
4, 9120, Note_on_c, 0, 67, 54
4, 9360, Note_on_c, 0, 67, 0
4, 9360, Note_on_c, 0, 70, 54
4, 9600, Note_on_c, 0, 70, 0
4, 9600, Note_on_c, 0, 67, 54
4, 9840, Note_on_c, 0, 67, 0
4, 9840, Control_c, 0, 64, 0
4, 9840, Note_on_c, 0, 60, 54
4, 10080, Note_on_c, 0, 60, 0
4, 10080, Note_on_c, 0, 39, 54
4, 10080, Note_on_c, 0, 48, 54
4, 10080, Note_on_c, 0, 51, 54
4, 11040, Note_on_c, 0, 51, 0
4, 11040, Note_on_c, 0, 48, 0
4, 11040, Note_on_c, 0, 39, 0
4, 11520, Note_on_c, 0, 37, 54
4, 11520, Note_on_c, 0, 49, 54
4, 12480, Note_on_c, 0, 49, 0
4, 12480, Note_on_c, 0, 37, 0
4, 12960, Control_c, 0, 64, 127
4, 12960, Note_on_c, 0, 58, 54
4, 13200, Note_on_c, 0, 58, 0
4, 13200, Note_on_c, 0, 60, 54
4, 13440, Note_on_c, 0, 60, 0
4, 13440, Note_on_c, 0, 64, 54
4, 13680, Note_on_c, 0, 64, 0
4, 13680, Note_on_c, 0, 70, 54
4, 13920, Note_on_c, 0, 70, 0
4, 13920, Note_on_c, 0, 64, 54
4, 14160, Note_on_c, 0, 64, 0
4, 14160, Control_c, 0, 64, 0
4, 14160, Note_on_c, 0, 60, 54
4, 14400, Note_on_c, 0, 60, 0
4, 14400, Control_c, 0, 64, 127
4, 14400, Note_on_c, 0, 57, 54
4, 14640, Note_on_c, 0, 57, 0
4, 14640, Note_on_c, 0, 60, 54
4, 14880, Note_on_c, 0, 60, 0
4, 14880, Note_on_c, 0, 65, 54
4, 15120, Note_on_c, 0, 65, 0
4, 15120, Note_on_c, 0, 69, 54
4, 15360, Note_on_c, 0, 69, 0
4, 15360, Note_on_c, 0, 65, 54
4, 15600, Note_on_c, 0, 65, 0
4, 15600, Control_c, 0, 64, 0
4, 15600, Note_on_c, 0, 60, 54
4, 15840, Note_on_c, 0, 60, 0
4, 15840, Control_c, 0, 64, 127
4, 15840, Note_on_c, 0, 57, 54
4, 16080, Note_on_c, 0, 57, 0
4, 16080, Note_on_c, 0, 60, 54
4, 16320, Note_on_c, 0, 60, 0
4, 16320, Note_on_c, 0, 65, 54
4, 16560, Note_on_c, 0, 65, 0
4, 16560, Note_on_c, 0, 69, 54
4, 16800, Note_on_c, 0, 69, 0
4, 16800, Note_on_c, 0, 65, 54
4, 17040, Note_on_c, 0, 65, 0
4, 17040, Control_c, 0, 64, 0
4, 17040, Note_on_c, 0, 60, 54
4, 17280, Note_on_c, 0, 60, 0
4, 17280, Control_c, 0, 64, 127
4, 17280, Note_on_c, 0, 57, 54
4, 17520, Note_on_c, 0, 57, 0
4, 17520, Note_on_c, 0, 60, 54
4, 17760, Note_on_c, 0, 60, 0
4, 17760, Note_on_c, 0, 65, 54
4, 18000, Note_on_c, 0, 65, 0
4, 18000, Note_on_c, 0, 69, 54
4, 18240, Note_on_c, 0, 69, 0
4, 18240, Note_on_c, 0, 65, 54
4, 18480, Note_on_c, 0, 65, 0
4, 18480, Control_c, 0, 64, 0
4, 18480, Note_on_c, 0, 60, 54
4, 18720, Note_on_c, 0, 60, 0
4, 18720, Control_c, 0, 64, 127
4, 18720, Note_on_c, 0, 57, 54
4, 18960, Note_on_c, 0, 57, 0
4, 18960, Note_on_c, 0, 60, 54
4, 19200, Note_on_c, 0, 60, 0
4, 19200, Note_on_c, 0, 65, 54
4, 19440, Note_on_c, 0, 65, 0
4, 19440, Note_on_c, 0, 69, 54
4, 19680, Note_on_c, 0, 69, 0
4, 19680, Note_on_c, 0, 65, 54
4, 19920, Note_on_c, 0, 65, 0
4, 19920, Control_c, 0, 64, 0
4, 19920, Note_on_c, 0, 60, 54
4, 20160, Note_on_c, 0, 60, 0
4, 20160, Control_c, 0, 64, 127
4, 20160, Note_on_c, 0, 57, 54
4, 20400, Note_on_c, 0, 57, 0
4, 20400, Note_on_c, 0, 64, 54
4, 20640, Note_on_c, 0, 64, 0
4, 20640, Note_on_c, 0, 67, 54
4, 20880, Note_on_c, 0, 67, 0
4, 20880, Note_on_c, 0, 69, 54
4, 21120, Note_on_c, 0, 69, 0
4, 21120, Note_on_c, 0, 67, 54
4, 21360, Note_on_c, 0, 67, 0
4, 21360, Control_c, 0, 64, 0
4, 21360, Note_on_c, 0, 64, 54
4, 21600, Note_on_c, 0, 64, 0
4, 21600, Note_on_c, 0, 38, 54
4, 21600, Note_on_c, 0, 43, 54
4, 21600, Note_on_c, 0, 50, 54
4, 22560, Note_on_c, 0, 50, 0
4, 22560, Note_on_c, 0, 43, 0
4, 22560, Note_on_c, 0, 38, 0
4, 23040, Note_on_c, 0, 37, 54
4, 23040, Note_on_c, 0, 43, 54
4, 23040, Note_on_c, 0, 49, 54
4, 24000, Note_on_c, 0, 49, 0
4, 24000, Note_on_c, 0, 43, 0
4, 24000, Note_on_c, 0, 37, 0
4, 24480, Control_c, 0, 64, 127
4, 24480, Note_on_c, 0, 55, 54
4, 24720, Note_on_c, 0, 55, 0
4, 24720, Note_on_c, 0, 57, 54
4, 24960, Note_on_c, 0, 57, 0
4, 24960, Note_on_c, 0, 61, 54
4, 25200, Note_on_c, 0, 61, 0
4, 25200, Note_on_c, 0, 67, 54
4, 25440, Note_on_c, 0, 67, 0
4, 25440, Note_on_c, 0, 61, 54
4, 25680, Note_on_c, 0, 61, 0
4, 25680, Control_c, 0, 64, 0
4, 25680, Note_on_c, 0, 57, 54
4, 25920, Note_on_c, 0, 57, 0
4, 25920, Control_c, 0, 64, 127
4, 25920, Note_on_c, 0, 53, 54
4, 26160, Note_on_c, 0, 53, 0
4, 26160, Note_on_c, 0, 57, 54
4, 26400, Note_on_c, 0, 57, 0
4, 26400, Note_on_c, 0, 62, 54
4, 26640, Note_on_c, 0, 62, 0
4, 26640, Note_on_c, 0, 65, 54
4, 26880, Note_on_c, 0, 65, 0
4, 26880, Note_on_c, 0, 62, 54
4, 27120, Note_on_c, 0, 62, 0
4, 27120, Control_c, 0, 64, 0
4, 27120, Note_on_c, 0, 57, 54
4, 27360, Note_on_c, 0, 57, 0
4, 27360, Control_c, 0, 64, 127
4, 27360, Note_on_c, 0, 50, 54
4, 27600, Note_on_c, 0, 50, 0
4, 27600, Note_on_c, 0, 53, 54
4, 27840, Note_on_c, 0, 53, 0
4, 27840, Note_on_c, 0, 57, 54
4, 28080, Note_on_c, 0, 57, 0
4, 28080, Note_on_c, 0, 62, 54
4, 28320, Note_on_c, 0, 62, 0
4, 28320, Note_on_c, 0, 57, 54
4, 28560, Note_on_c, 0, 57, 0
4, 28560, Control_c, 0, 64, 0
4, 28560, Note_on_c, 0, 53, 54
4, 28800, Note_on_c, 0, 53, 0
4, 28800, Control_c, 0, 64, 127
4, 28800, Note_on_c, 0, 52, 54
4, 29040, Note_on_c, 0, 52, 0
4, 29040, Note_on_c, 0, 55, 54
4, 29280, Note_on_c, 0, 55, 0
4, 29280, Note_on_c, 0, 60, 54
4, 29520, Note_on_c, 0, 60, 0
4, 29520, Note_on_c, 0, 64, 54
4, 29760, Note_on_c, 0, 64, 0
4, 29760, Note_on_c, 0, 60, 54
4, 30000, Note_on_c, 0, 60, 0
4, 30000, Control_c, 0, 64, 0
4, 30000, Note_on_c, 0, 55, 54
4, 30240, Note_on_c, 0, 55, 0
4, 30240, Control_c, 0, 64, 127
4, 30240, Note_on_c, 0, 59, 54
4, 30480, Note_on_c, 0, 59, 0
4, 30480, Note_on_c, 0, 65, 54
4, 30720, Note_on_c, 0, 65, 0
4, 30720, Note_on_c, 0, 67, 54
4, 30960, Note_on_c, 0, 67, 0
4, 30960, Note_on_c, 0, 71, 54
4, 31200, Note_on_c, 0, 71, 0
4, 31200, Note_on_c, 0, 67, 54
4, 31440, Note_on_c, 0, 67, 0
4, 31440, Control_c, 0, 64, 0
4, 31440, Note_on_c, 0, 65, 54
4, 31680, Note_on_c, 0, 65, 0
4, 31680, Control_c, 0, 64, 127
4, 31680, Note_on_c, 0, 64, 54
4, 31920, Note_on_c, 0, 64, 0
4, 31920, Note_on_c, 0, 67, 54
4, 32160, Note_on_c, 0, 67, 0
4, 32160, Note_on_c, 0, 70, 54
4, 32400, Note_on_c, 0, 70, 0
4, 32400, Note_on_c, 0, 67, 54
4, 32640, Note_on_c, 0, 67, 0
4, 32640, Note_on_c, 0, 64, 54
4, 32880, Note_on_c, 0, 64, 0
4, 32880, Control_c, 0, 64, 0
4, 32880, Note_on_c, 0, 60, 54
4, 33120, Note_on_c, 0, 60, 0
4, 33120, Control_c, 0, 64, 127
4, 33120, Note_on_c, 0, 55, 54
4, 33360, Note_on_c, 0, 55, 0
4, 33360, Note_on_c, 0, 60, 54
4, 33600, Note_on_c, 0, 60, 0
4, 33600, Note_on_c, 0, 64, 54
4, 33840, Note_on_c, 0, 64, 0
4, 33840, Note_on_c, 0, 67, 54
4, 34080, Note_on_c, 0, 67, 0
4, 34080, Note_on_c, 0, 64, 54
4, 34320, Note_on_c, 0, 64, 0
4, 34320, Control_c, 0, 64, 0
4, 34320, Note_on_c, 0, 60, 54
4, 34560, Note_on_c, 0, 60, 0
4, 34560, Control_c, 0, 64, 127
4, 34560, Note_on_c, 0, 57, 54
4, 34800, Note_on_c, 0, 57, 0
4, 34800, Note_on_c, 0, 60, 54
4, 35040, Note_on_c, 0, 60, 0
4, 35040, Note_on_c, 0, 63, 54
4, 35280, Note_on_c, 0, 63, 0
4, 35280, Note_on_c, 0, 66, 54
4, 35520, Note_on_c, 0, 66, 0
4, 35520, Note_on_c, 0, 63, 54
4, 35760, Note_on_c, 0, 63, 0
4, 35760, Control_c, 0, 64, 0
4, 35760, Note_on_c, 0, 60, 54
4, 36000, Note_on_c, 0, 60, 0
4, 36000, Control_c, 0, 64, 127
4, 36000, Note_on_c, 0, 58, 54
4, 36240, Note_on_c, 0, 58, 0
4, 36240, Note_on_c, 0, 60, 54
4, 36480, Note_on_c, 0, 60, 0
4, 36480, Note_on_c, 0, 64, 54
4, 36720, Note_on_c, 0, 64, 0
4, 36720, Note_on_c, 0, 67, 54
4, 36960, Note_on_c, 0, 67, 0
4, 36960, Note_on_c, 0, 64, 54
4, 37200, Note_on_c, 0, 64, 0
4, 37200, Control_c, 0, 64, 0
4, 37200, Note_on_c, 0, 60, 54
4, 37440, Note_on_c, 0, 60, 0
4, 37440, Control_c, 0, 64, 127
4, 37440, Note_on_c, 0, 58, 54
4, 37680, Note_on_c, 0, 58, 0
4, 37680, Note_on_c, 0, 60, 54
4, 37920, Note_on_c, 0, 60, 0
4, 37920, Note_on_c, 0, 64, 54
4, 38160, Note_on_c, 0, 64, 0
4, 38160, Note_on_c, 0, 67, 54
4, 38400, Note_on_c, 0, 67, 0
4, 38400, Note_on_c, 0, 64, 54
4, 38640, Note_on_c, 0, 64, 0
4, 38640, Control_c, 0, 64, 0
4, 38640, Note_on_c, 0, 60, 54
4, 38880, Note_on_c, 0, 60, 0
4, 38880, Control_c, 0, 64, 127
4, 38880, Note_on_c, 0, 55, 54
4, 39120, Note_on_c, 0, 55, 0
4, 39120, Note_on_c, 0, 60, 54
4, 39360, Note_on_c, 0, 60, 0
4, 39360, Note_on_c, 0, 64, 54
4, 39600, Note_on_c, 0, 64, 0
4, 39600, Note_on_c, 0, 67, 54
4, 39840, Note_on_c, 0, 67, 0
4, 39840, Note_on_c, 0, 64, 54
4, 40080, Note_on_c, 0, 64, 0
4, 40080, Control_c, 0, 64, 0
4, 40080, Note_on_c, 0, 60, 54
4, 40320, Note_on_c, 0, 60, 0
4, 40320, Control_c, 0, 64, 127
4, 40320, Note_on_c, 0, 57, 54
4, 40560, Note_on_c, 0, 57, 0
4, 40560, Note_on_c, 0, 60, 54
4, 40800, Note_on_c, 0, 60, 0
4, 40800, Note_on_c, 0, 63, 54
4, 41040, Note_on_c, 0, 63, 0
4, 41040, Note_on_c, 0, 66, 54
4, 41280, Note_on_c, 0, 66, 0
4, 41280, Note_on_c, 0, 63, 54
4, 41520, Note_on_c, 0, 63, 0
4, 41520, Control_c, 0, 64, 0
4, 41520, Note_on_c, 0, 60, 54
4, 41760, Note_on_c, 0, 60, 0
4, 41760, Control_c, 0, 64, 127
4, 41760, Note_on_c, 0, 58, 54
4, 42000, Note_on_c, 0, 58, 0
4, 42000, Note_on_c, 0, 60, 54
4, 42240, Note_on_c, 0, 60, 0
4, 42240, Note_on_c, 0, 64, 54
4, 42480, Note_on_c, 0, 64, 0
4, 42480, Note_on_c, 0, 67, 54
4, 42720, Note_on_c, 0, 67, 0
4, 42720, Note_on_c, 0, 64, 54
4, 42960, Note_on_c, 0, 64, 0
4, 42960, Control_c, 0, 64, 0
4, 42960, Note_on_c, 0, 60, 54
4, 43200, Note_on_c, 0, 60, 0
4, 43200, Control_c, 0, 64, 127
4, 43200, Note_on_c, 0, 58, 54
4, 43440, Note_on_c, 0, 58, 0
4, 43440, Note_on_c, 0, 60, 54
4, 43680, Note_on_c, 0, 60, 0
4, 43680, Note_on_c, 0, 65, 54
4, 43920, Note_on_c, 0, 65, 0
4, 43920, Note_on_c, 0, 67, 54
4, 44160, Note_on_c, 0, 67, 0
4, 44160, Note_on_c, 0, 65, 54
4, 44400, Note_on_c, 0, 65, 0
4, 44400, Control_c, 0, 64, 0
4, 44400, Note_on_c, 0, 60, 54
4, 44640, Note_on_c, 0, 60, 0
4, 44640, Control_c, 0, 64, 127
4, 44640, Note_on_c, 0, 55, 54
4, 44880, Note_on_c, 0, 55, 0
4, 44880, Note_on_c, 0, 58, 54
4, 45120, Note_on_c, 0, 58, 0
4, 45120, Note_on_c, 0, 60, 54
4, 45360, Note_on_c, 0, 60, 0
4, 45360, Note_on_c, 0, 67, 54
4, 45600, Note_on_c, 0, 67, 0
4, 45840, Control_c, 0, 64, 0
4, 45840, Note_on_c, 0, 58, 54
4, 46080, Note_on_c, 0, 58, 0
4, 46080, Control_c, 0, 64, 127
4, 46080, Note_on_c, 0, 57, 54
4, 46320, Note_on_c, 0, 57, 0
4, 46320, Note_on_c, 0, 60, 54
4, 46560, Note_on_c, 0, 60, 0
4, 46560, Note_on_c, 0, 65, 54
4, 46800, Note_on_c, 0, 65, 0
4, 46800, Note_on_c, 0, 69, 54
4, 47040, Note_on_c, 0, 69, 0
4, 47040, Note_on_c, 0, 65, 54
4, 47280, Note_on_c, 0, 65, 0
4, 47280, Control_c, 0, 64, 0
4, 47280, Note_on_c, 0, 60, 54
4, 47520, Note_on_c, 0, 60, 0
4, 47520, Control_c, 0, 64, 127
4, 47520, Note_on_c, 0, 57, 54
4, 47760, Note_on_c, 0, 57, 0
4, 47760, Note_on_c, 0, 60, 54
4, 48000, Note_on_c, 0, 60, 0
4, 48000, Note_on_c, 0, 65, 54
4, 48240, Note_on_c, 0, 65, 0
4, 48240, Note_on_c, 0, 69, 54
4, 48480, Note_on_c, 0, 69, 0
4, 48480, Note_on_c, 0, 65, 54
4, 48720, Note_on_c, 0, 65, 0
4, 48720, Control_c, 0, 64, 0
4, 48720, Note_on_c, 0, 60, 54
4, 48960, Note_on_c, 0, 60, 0
4, 48960, Control_c, 0, 64, 127
4, 48960, Note_on_c, 0, 57, 54
4, 49200, Note_on_c, 0, 57, 0
4, 49200, Note_on_c, 0, 60, 54
4, 49440, Note_on_c, 0, 60, 0
4, 49440, Note_on_c, 0, 65, 54
4, 49680, Note_on_c, 0, 65, 0
4, 49680, Note_on_c, 0, 69, 54
4, 49920, Note_on_c, 0, 69, 0
4, 49920, Note_on_c, 0, 65, 54
4, 50160, Note_on_c, 0, 65, 0
4, 50160, Control_c, 0, 64, 0
4, 50160, Note_on_c, 0, 60, 54
4, 50400, Note_on_c, 0, 60, 0
4, 50400, Control_c, 0, 64, 127
4, 50400, Note_on_c, 0, 57, 54
4, 50640, Note_on_c, 0, 57, 0
4, 50640, Note_on_c, 0, 60, 54
4, 50880, Note_on_c, 0, 60, 0
4, 50880, Note_on_c, 0, 65, 54
4, 51120, Note_on_c, 0, 65, 0
4, 51120, Note_on_c, 0, 69, 54
4, 51360, Note_on_c, 0, 69, 0
4, 51360, Note_on_c, 0, 65, 54
4, 51600, Note_on_c, 0, 65, 0
4, 51600, Control_c, 0, 64, 0
4, 51600, Note_on_c, 0, 60, 54
4, 51840, Note_on_c, 0, 60, 0
4, 51840, Control_c, 0, 64, 127
4, 51840, Note_on_c, 0, 58, 54
4, 52080, Note_on_c, 0, 58, 0
4, 52080, Note_on_c, 0, 60, 54
4, 52320, Note_on_c, 0, 60, 0
4, 52320, Note_on_c, 0, 67, 54
4, 52560, Note_on_c, 0, 67, 0
4, 52560, Note_on_c, 0, 70, 54
4, 52800, Note_on_c, 0, 70, 0
4, 52800, Note_on_c, 0, 67, 54
4, 53040, Note_on_c, 0, 67, 0
4, 53040, Control_c, 0, 64, 0
4, 53040, Note_on_c, 0, 60, 54
4, 53280, Note_on_c, 0, 60, 0
4, 53280, Note_on_c, 0, 39, 54
4, 53280, Note_on_c, 0, 48, 54
4, 53280, Note_on_c, 0, 51, 54
4, 54240, Note_on_c, 0, 51, 0
4, 54240, Note_on_c, 0, 48, 0
4, 54240, Note_on_c, 0, 39, 0
4, 54720, Note_on_c, 0, 37, 54
4, 54720, Note_on_c, 0, 49, 54
4, 55680, Note_on_c, 0, 49, 0
4, 55680, Note_on_c, 0, 37, 0
4, 56160, Control_c, 0, 64, 127
4, 56160, Note_on_c, 0, 58, 54
4, 56400, Note_on_c, 0, 58, 0
4, 56400, Note_on_c, 0, 60, 54
4, 56640, Note_on_c, 0, 60, 0
4, 56640, Note_on_c, 0, 64, 54
4, 56880, Note_on_c, 0, 64, 0
4, 56880, Note_on_c, 0, 70, 54
4, 57120, Note_on_c, 0, 70, 0
4, 57120, Note_on_c, 0, 64, 54
4, 57360, Note_on_c, 0, 64, 0
4, 57360, Control_c, 0, 64, 0
4, 57360, Note_on_c, 0, 60, 54
4, 57600, Note_on_c, 0, 60, 0
4, 57600, Control_c, 0, 64, 127
4, 57600, Note_on_c, 0, 57, 54
4, 57840, Note_on_c, 0, 57, 0
4, 57840, Note_on_c, 0, 60, 54
4, 58080, Note_on_c, 0, 60, 0
4, 58080, Note_on_c, 0, 65, 54
4, 58320, Note_on_c, 0, 65, 0
4, 58320, Note_on_c, 0, 69, 54
4, 58560, Note_on_c, 0, 69, 0
4, 58560, Note_on_c, 0, 65, 54
4, 58800, Note_on_c, 0, 65, 0
4, 58800, Control_c, 0, 64, 0
4, 58800, Note_on_c, 0, 60, 54
4, 59040, Note_on_c, 0, 60, 0
4, 59040, Control_c, 0, 64, 127
4, 59040, Note_on_c, 0, 57, 54
4, 59280, Note_on_c, 0, 57, 0
4, 59280, Note_on_c, 0, 60, 54
4, 59520, Note_on_c, 0, 60, 0
4, 59520, Note_on_c, 0, 65, 54
4, 59760, Note_on_c, 0, 65, 0
4, 59760, Note_on_c, 0, 69, 54
4, 60000, Note_on_c, 0, 69, 0
4, 60000, Note_on_c, 0, 65, 54
4, 60240, Note_on_c, 0, 65, 0
4, 60240, Control_c, 0, 64, 0
4, 60240, Note_on_c, 0, 60, 54
4, 60480, Note_on_c, 0, 60, 0
4, 60480, Control_c, 0, 64, 127
4, 60480, Note_on_c, 0, 57, 54
4, 60720, Note_on_c, 0, 57, 0
4, 60720, Note_on_c, 0, 60, 54
4, 60960, Note_on_c, 0, 60, 0
4, 60960, Note_on_c, 0, 65, 54
4, 61200, Note_on_c, 0, 65, 0
4, 61200, Note_on_c, 0, 69, 54
4, 61440, Note_on_c, 0, 69, 0
4, 61440, Note_on_c, 0, 65, 54
4, 61680, Note_on_c, 0, 65, 0
4, 61680, Control_c, 0, 64, 0
4, 61680, Note_on_c, 0, 60, 54
4, 61920, Note_on_c, 0, 60, 0
4, 61920, Control_c, 0, 64, 127
4, 61920, Note_on_c, 0, 57, 54
4, 62160, Note_on_c, 0, 57, 0
4, 62160, Note_on_c, 0, 60, 54
4, 62400, Note_on_c, 0, 60, 0
4, 62400, Note_on_c, 0, 65, 54
4, 62640, Note_on_c, 0, 65, 0
4, 62640, Note_on_c, 0, 69, 54
4, 62880, Note_on_c, 0, 69, 0
4, 62880, Note_on_c, 0, 65, 54
4, 63120, Note_on_c, 0, 65, 0
4, 63120, Control_c, 0, 64, 0
4, 63120, Note_on_c, 0, 60, 54
4, 63360, Note_on_c, 0, 60, 0
4, 63360, Control_c, 0, 64, 127
4, 63360, Note_on_c, 0, 58, 54
4, 63600, Note_on_c, 0, 58, 0
4, 63600, Note_on_c, 0, 60, 54
4, 63840, Note_on_c, 0, 60, 0
4, 63840, Note_on_c, 0, 67, 54
4, 64080, Note_on_c, 0, 67, 0
4, 64080, Note_on_c, 0, 70, 54
4, 64320, Note_on_c, 0, 70, 0
4, 64320, Note_on_c, 0, 67, 54
4, 64560, Note_on_c, 0, 67, 0
4, 64560, Control_c, 0, 64, 0
4, 64560, Note_on_c, 0, 60, 54
4, 64800, Note_on_c, 0, 60, 0
4, 64800, Note_on_c, 0, 39, 54
4, 64800, Note_on_c, 0, 48, 54
4, 64800, Note_on_c, 0, 51, 54
4, 65760, Note_on_c, 0, 51, 0
4, 65760, Note_on_c, 0, 48, 0
4, 65760, Note_on_c, 0, 39, 0
4, 66240, Note_on_c, 0, 37, 54
4, 66240, Note_on_c, 0, 49, 54
4, 67200, Note_on_c, 0, 49, 0
4, 67200, Note_on_c, 0, 37, 0
4, 67680, Control_c, 0, 64, 127
4, 67680, Note_on_c, 0, 58, 54
4, 67920, Note_on_c, 0, 58, 0
4, 67920, Note_on_c, 0, 60, 54
4, 68160, Note_on_c, 0, 60, 0
4, 68160, Note_on_c, 0, 64, 54
4, 68400, Note_on_c, 0, 64, 0
4, 68400, Note_on_c, 0, 70, 54
4, 68640, Note_on_c, 0, 70, 0
4, 68640, Note_on_c, 0, 64, 54
4, 68880, Note_on_c, 0, 64, 0
4, 68880, Control_c, 0, 64, 0
4, 68880, Note_on_c, 0, 60, 54
4, 69120, Note_on_c, 0, 60, 0
4, 69120, Control_c, 0, 64, 127
4, 69120, Note_on_c, 0, 57, 54
4, 69360, Note_on_c, 0, 57, 0
4, 69360, Note_on_c, 0, 60, 54
4, 69600, Note_on_c, 0, 60, 0
4, 69600, Note_on_c, 0, 65, 54
4, 69840, Note_on_c, 0, 65, 0
4, 69840, Note_on_c, 0, 69, 54
4, 70080, Note_on_c, 0, 69, 0
4, 70080, Note_on_c, 0, 65, 54
4, 70320, Note_on_c, 0, 65, 0
4, 70320, Control_c, 0, 64, 0
4, 70320, Note_on_c, 0, 60, 54
4, 70560, Note_on_c, 0, 60, 0
4, 70560, Control_c, 0, 64, 127
4, 70560, Note_on_c, 0, 58, 54
4, 70800, Note_on_c, 0, 58, 0
4, 70800, Note_on_c, 0, 60, 54
4, 71040, Note_on_c, 0, 60, 0
4, 71040, Note_on_c, 0, 64, 54
4, 71280, Note_on_c, 0, 64, 0
4, 71280, Note_on_c, 0, 67, 54
4, 71520, Note_on_c, 0, 67, 0
4, 71520, Note_on_c, 0, 64, 54
4, 71760, Note_on_c, 0, 64, 0
4, 71760, Control_c, 0, 64, 0
4, 71760, Note_on_c, 0, 60, 54
4, 72000, Note_on_c, 0, 60, 0
4, 72000, Control_c, 0, 64, 127
4, 72000, Note_on_c, 0, 57, 54
4, 72240, Note_on_c, 0, 57, 0
4, 72240, Note_on_c, 0, 60, 54
4, 72480, Note_on_c, 0, 60, 0
4, 72480, Note_on_c, 0, 65, 54
4, 72720, Note_on_c, 0, 65, 0
4, 72720, Note_on_c, 0, 69, 54
4, 72960, Note_on_c, 0, 69, 0
4, 72960, Note_on_c, 0, 65, 54
4, 73200, Note_on_c, 0, 65, 0
4, 73200, Control_c, 0, 64, 0
4, 73200, Note_on_c, 0, 60, 54
4, 73440, Note_on_c, 0, 60, 0
4, 73440, Control_c, 0, 64, 127
4, 73440, Note_on_c, 0, 58, 54
4, 73680, Note_on_c, 0, 58, 0
4, 73680, Note_on_c, 0, 60, 54
4, 73920, Note_on_c, 0, 60, 0
4, 73920, Note_on_c, 0, 64, 54
4, 74160, Note_on_c, 0, 64, 0
4, 74160, Note_on_c, 0, 67, 54
4, 74400, Note_on_c, 0, 67, 0
4, 74400, Note_on_c, 0, 64, 54
4, 74640, Note_on_c, 0, 64, 0
4, 74640, Control_c, 0, 64, 0
4, 74640, Note_on_c, 0, 60, 54
4, 74880, Note_on_c, 0, 60, 0
4, 74880, Control_c, 0, 64, 127
4, 74880, Note_on_c, 0, 57, 54
4, 75120, Note_on_c, 0, 57, 0
4, 75120, Note_on_c, 0, 60, 54
4, 75360, Note_on_c, 0, 60, 0
4, 75360, Note_on_c, 0, 65, 54
4, 75600, Note_on_c, 0, 65, 0
4, 75600, Note_on_c, 0, 69, 54
4, 75840, Note_on_c, 0, 69, 0
4, 75840, Note_on_c, 0, 65, 54
4, 76080, Note_on_c, 0, 65, 0
4, 76080, Control_c, 0, 64, 0
4, 76080, Note_on_c, 0, 60, 54
4, 76320, Note_on_c, 0, 60, 0
4, 76320, Control_c, 0, 64, 127
4, 76320, Note_on_c, 0, 57, 54
4, 76560, Note_on_c, 0, 57, 0
4, 76560, Note_on_c, 0, 60, 54
4, 76800, Note_on_c, 0, 60, 0
4, 76800, Note_on_c, 0, 65, 54
4, 77040, Note_on_c, 0, 65, 0
4, 77040, Note_on_c, 0, 69, 54
4, 77280, Note_on_c, 0, 69, 0
4, 77280, Note_on_c, 0, 65, 54
4, 77520, Note_on_c, 0, 65, 0
4, 77520, Control_c, 0, 64, 0
4, 77520, Note_on_c, 0, 60, 54
4, 77760, Note_on_c, 0, 60, 0
4, 77760, Control_c, 0, 64, 127
4, 77760, Note_on_c, 0, 57, 54
4, 78000, Note_on_c, 0, 57, 0
4, 78000, Note_on_c, 0, 60, 54
4, 78240, Note_on_c, 0, 60, 0
4, 78240, Note_on_c, 0, 65, 54
4, 78480, Note_on_c, 0, 65, 0
4, 78480, Note_on_c, 0, 69, 54
4, 78720, Note_on_c, 0, 69, 0
4, 78720, Note_on_c, 0, 65, 54
4, 78960, Note_on_c, 0, 65, 0
4, 78960, Control_c, 0, 64, 0
4, 78960, Note_on_c, 0, 60, 54
4, 79200, Note_on_c, 0, 60, 0
4, 79200, Note_on_c, 0, 41, 54
4, 79200, Note_on_c, 0, 48, 54
4, 79200, Note_on_c, 0, 57, 54
4, 79440, Note_on_c, 0, 57, 0
4, 79440, Note_on_c, 0, 48, 0
4, 79440, Note_on_c, 0, 41, 0
4, 79680, Note_on_c, 0, 63, 93
4, 80640, Note_on_c, 0, 63, 0
4, 80640, Note_on_c, 0, 64, 93
4, 81120, Note_on_c, 0, 64, 0
4, 81120, Note_on_c, 0, 62, 93
4, 81600, Note_on_c, 0, 62, 0
4, 81600, Note_on_c, 0, 61, 93
4, 82080, Note_on_c, 0, 61, 0
4, 82080, Note_on_c, 0, 59, 93
4, 82560, Note_on_c, 0, 59, 0
4, 82560, Note_on_c, 0, 57, 93
4, 83040, Note_on_c, 0, 57, 0
4, 83040, Note_on_c, 0, 56, 93
4, 83520, Note_on_c, 0, 56, 0
4, 83520, Note_on_c, 0, 54, 93
4, 83760, Note_on_c, 0, 54, 0
4, 83760, Note_on_c, 0, 56, 93
4, 84000, Note_on_c, 0, 56, 0
4, 84000, Note_on_c, 0, 57, 93
4, 84240, Note_on_c, 0, 57, 0
4, 84240, Note_on_c, 0, 59, 93
4, 84480, Note_on_c, 0, 59, 0
4, 84480, Note_on_c, 0, 61, 93
4, 84720, Note_on_c, 0, 61, 0
4, 84720, Note_on_c, 0, 64, 93
4, 84960, Note_on_c, 0, 64, 0
4, 84960, Note_on_c, 0, 65, 93
4, 86400, Note_on_c, 0, 65, 0
4, 86400, Note_on_c, 0, 64, 93
4, 86880, Note_on_c, 0, 64, 0
4, 86880, Note_on_c, 0, 62, 93
4, 87360, Note_on_c, 0, 62, 0
4, 87360, Note_on_c, 0, 61, 93
4, 87840, Note_on_c, 0, 61, 0
4, 87840, Note_on_c, 0, 59, 93
4, 88320, Note_on_c, 0, 59, 0
4, 88320, Note_on_c, 0, 57, 93
4, 88800, Note_on_c, 0, 57, 0
4, 88800, Note_on_c, 0, 56, 93
4, 89280, Note_on_c, 0, 56, 0
4, 89280, Note_on_c, 0, 54, 106
4, 89520, Note_on_c, 0, 54, 0
4, 89520, Note_on_c, 0, 52, 106
4, 89760, Note_on_c, 0, 52, 0
4, 89760, Note_on_c, 0, 50, 106
4, 90000, Note_on_c, 0, 50, 0
4, 90000, Note_on_c, 0, 52, 106
4, 90240, Note_on_c, 0, 52, 0
4, 90240, Note_on_c, 0, 54, 106
4, 90480, Note_on_c, 0, 54, 0
4, 90480, Note_on_c, 0, 56, 106
4, 90720, Note_on_c, 0, 56, 0
4, 90720, Note_on_c, 0, 58, 106
4, 90960, Note_on_c, 0, 58, 0
4, 90960, Note_on_c, 0, 54, 106
4, 91200, Note_on_c, 0, 54, 0
4, 91200, Note_on_c, 0, 66, 106
4, 91440, Note_on_c, 0, 66, 0
4, 91440, Note_on_c, 0, 64, 106
4, 91680, Note_on_c, 0, 64, 0
4, 91680, Note_on_c, 0, 62, 106
4, 91920, Note_on_c, 0, 62, 0
4, 91920, Note_on_c, 0, 61, 106
4, 92160, Note_on_c, 0, 61, 0
4, 92160, Note_on_c, 0, 61, 106
4, 92400, Note_on_c, 0, 61, 0
4, 92400, Note_on_c, 0, 54, 106
4, 92640, Note_on_c, 0, 54, 0
4, 92640, Note_on_c, 0, 53, 106
4, 92880, Note_on_c, 0, 53, 0
4, 92880, Note_on_c, 0, 65, 106
4, 93120, Note_on_c, 0, 65, 0
4, 93120, Note_on_c, 0, 66, 106
4, 93360, Note_on_c, 0, 66, 0
4, 93360, Note_on_c, 0, 54, 106
4, 93600, Note_on_c, 0, 54, 0
4, 93840, Control_c, 0, 64, 127
4, 93840, Note_on_c, 0, 54, 106
4, 94080, Note_on_c, 0, 54, 0
4, 94080, Note_on_c, 0, 66, 106
4, 94320, Note_on_c, 0, 66, 0
4, 94320, Note_on_c, 0, 64, 106
4, 94560, Note_on_c, 0, 64, 0
4, 94560, Note_on_c, 0, 62, 106
4, 94800, Note_on_c, 0, 62, 0
4, 94800, Control_c, 0, 64, 0
4, 94800, Note_on_c, 0, 61, 106
4, 95040, Note_on_c, 0, 61, 0
4, 95040, Note_on_c, 0, 61, 106
4, 95280, Note_on_c, 0, 61, 0
4, 95280, Note_on_c, 0, 54, 106
4, 95520, Note_on_c, 0, 54, 0
4, 95520, Note_on_c, 0, 53, 106
4, 95760, Note_on_c, 0, 53, 0
4, 95760, Note_on_c, 0, 65, 106
4, 96000, Note_on_c, 0, 65, 0
4, 96000, Note_on_c, 0, 66, 106
4, 96240, Note_on_c, 0, 66, 0
4, 96240, Note_on_c, 0, 54, 106
4, 96480, Note_on_c, 0, 54, 0
4, 96720, Control_c, 0, 64, 127
4, 96720, Note_on_c, 0, 54, 106
4, 96960, Note_on_c, 0, 54, 0
4, 96960, Note_on_c, 0, 56, 106
4, 97200, Note_on_c, 0, 56, 0
4, 97200, Note_on_c, 0, 58, 106
4, 97440, Note_on_c, 0, 58, 0
4, 97440, Note_on_c, 0, 59, 106
4, 97680, Note_on_c, 0, 59, 0
4, 97680, Control_c, 0, 64, 0
4, 97680, Note_on_c, 0, 54, 106
4, 97920, Note_on_c, 0, 54, 0
4, 98160, Control_c, 0, 64, 127
4, 98160, Note_on_c, 0, 54, 106
4, 98400, Note_on_c, 0, 54, 0
4, 98400, Note_on_c, 0, 59, 106
4, 98640, Note_on_c, 0, 59, 0
4, 98640, Note_on_c, 0, 61, 106
4, 98880, Note_on_c, 0, 61, 0
4, 98880, Note_on_c, 0, 62, 106
4, 99120, Note_on_c, 0, 62, 0
4, 99120, Control_c, 0, 64, 0
4, 99120, Note_on_c, 0, 59, 106
4, 99360, Note_on_c, 0, 59, 0
4, 99600, Control_c, 0, 64, 127
4, 99600, Note_on_c, 0, 54, 106
4, 99840, Note_on_c, 0, 54, 0
4, 99840, Note_on_c, 0, 59, 106
4, 100080, Note_on_c, 0, 59, 0
4, 100080, Note_on_c, 0, 61, 106
4, 100320, Note_on_c, 0, 61, 0
4, 100320, Note_on_c, 0, 62, 106
4, 100560, Note_on_c, 0, 62, 0
4, 100560, Control_c, 0, 64, 0
4, 100560, Note_on_c, 0, 59, 106
4, 100800, Note_on_c, 0, 59, 0
4, 101040, Control_c, 0, 64, 127
4, 101040, Note_on_c, 0, 54, 106
4, 101280, Note_on_c, 0, 54, 0
4, 101280, Note_on_c, 0, 59, 106
4, 101520, Note_on_c, 0, 59, 0
4, 101520, Note_on_c, 0, 61, 106
4, 101760, Note_on_c, 0, 61, 0
4, 101760, Note_on_c, 0, 62, 106
4, 102000, Note_on_c, 0, 62, 0
4, 102000, Control_c, 0, 64, 0
4, 102000, Note_on_c, 0, 59, 106
4, 102240, Note_on_c, 0, 59, 0
4, 102240, Control_c, 0, 64, 127
4, 102240, Note_on_c, 0, 53, 106
4, 102480, Note_on_c, 0, 53, 0
4, 102480, Note_on_c, 0, 53, 106
4, 102720, Note_on_c, 0, 53, 0
4, 102720, Note_on_c, 0, 57, 106
4, 102960, Note_on_c, 0, 57, 0
4, 102960, Note_on_c, 0, 59, 106
4, 103200, Note_on_c, 0, 59, 0
4, 103200, Note_on_c, 0, 60, 106
4, 103440, Note_on_c, 0, 60, 0
4, 103440, Control_c, 0, 64, 0
4, 103440, Note_on_c, 0, 57, 106
4, 103680, Note_on_c, 0, 57, 0
4, 103680, Note_on_c, 0, 64, 93
4, 104160, Note_on_c, 0, 64, 0
4, 104160, Note_on_c, 0, 62, 93
4, 104640, Note_on_c, 0, 62, 0
4, 104640, Note_on_c, 0, 61, 93
4, 105120, Note_on_c, 0, 61, 0
4, 105120, Note_on_c, 0, 59, 106
4, 105600, Note_on_c, 0, 59, 0
4, 105600, Note_on_c, 0, 57, 106
4, 106080, Note_on_c, 0, 57, 0
4, 106080, Note_on_c, 0, 56, 106
4, 106560, Note_on_c, 0, 56, 0
4, 106560, Note_on_c, 0, 54, 106
4, 106800, Note_on_c, 0, 54, 0
4, 106800, Note_on_c, 0, 56, 106
4, 107040, Note_on_c, 0, 56, 0
4, 107040, Note_on_c, 0, 57, 106
4, 107280, Note_on_c, 0, 57, 0
4, 107280, Note_on_c, 0, 59, 106
4, 107520, Note_on_c, 0, 59, 0
4, 107520, Note_on_c, 0, 61, 106
4, 107760, Note_on_c, 0, 61, 0
4, 107760, Note_on_c, 0, 64, 106
4, 108000, Note_on_c, 0, 64, 0
4, 108000, Note_on_c, 0, 65, 106
4, 109440, Note_on_c, 0, 65, 0
4, 109440, Note_on_c, 0, 64, 93
4, 109920, Note_on_c, 0, 64, 0
4, 109920, Note_on_c, 0, 62, 93
4, 110400, Note_on_c, 0, 62, 0
4, 110400, Note_on_c, 0, 61, 93
4, 110880, Note_on_c, 0, 61, 0
4, 110880, Note_on_c, 0, 59, 106
4, 111360, Note_on_c, 0, 59, 0
4, 111360, Note_on_c, 0, 57, 106
4, 111840, Note_on_c, 0, 57, 0
4, 111840, Note_on_c, 0, 56, 106
4, 112320, Note_on_c, 0, 56, 0
4, 112320, Note_on_c, 0, 54, 106
4, 112560, Note_on_c, 0, 54, 0
4, 112560, Note_on_c, 0, 52, 106
4, 112800, Note_on_c, 0, 52, 0
4, 112800, Note_on_c, 0, 50, 106
4, 113040, Note_on_c, 0, 50, 0
4, 113040, Note_on_c, 0, 53, 106
4, 113280, Note_on_c, 0, 53, 0
4, 113280, Note_on_c, 0, 54, 106
4, 113520, Note_on_c, 0, 54, 0
4, 113520, Note_on_c, 0, 56, 106
4, 113760, Note_on_c, 0, 56, 0
4, 113760, Note_on_c, 0, 58, 106
4, 114000, Note_on_c, 0, 58, 0
4, 114000, Note_on_c, 0, 54, 106
4, 114240, Note_on_c, 0, 54, 0
4, 114240, Note_on_c, 0, 66, 106
4, 114480, Note_on_c, 0, 66, 0
4, 114480, Note_on_c, 0, 64, 106
4, 114720, Note_on_c, 0, 64, 0
4, 114720, Note_on_c, 0, 62, 106
4, 114960, Note_on_c, 0, 62, 0
4, 114960, Note_on_c, 0, 61, 106
4, 115200, Note_on_c, 0, 61, 0
4, 115200, Note_on_c, 0, 61, 106
4, 115440, Note_on_c, 0, 61, 0
4, 115440, Note_on_c, 0, 54, 106
4, 115680, Note_on_c, 0, 54, 0
4, 115680, Note_on_c, 0, 53, 106
4, 115920, Note_on_c, 0, 53, 0
4, 115920, Note_on_c, 0, 65, 106
4, 116160, Note_on_c, 0, 65, 0
4, 116160, Note_on_c, 0, 66, 106
4, 116400, Note_on_c, 0, 66, 0
4, 116400, Note_on_c, 0, 54, 106
4, 116640, Note_on_c, 0, 54, 0
4, 116880, Note_on_c, 0, 54, 106
4, 117120, Note_on_c, 0, 54, 0
4, 117120, Note_on_c, 0, 66, 106
4, 117360, Note_on_c, 0, 66, 0
4, 117360, Note_on_c, 0, 64, 106
4, 117600, Note_on_c, 0, 64, 0
4, 117600, Note_on_c, 0, 62, 106
4, 117840, Note_on_c, 0, 62, 0
4, 117840, Note_on_c, 0, 61, 106
4, 118080, Note_on_c, 0, 61, 0
4, 118080, Note_on_c, 0, 61, 106
4, 118320, Note_on_c, 0, 61, 0
4, 118320, Note_on_c, 0, 54, 106
4, 118560, Note_on_c, 0, 54, 0
4, 118560, Note_on_c, 0, 53, 106
4, 118800, Note_on_c, 0, 53, 0
4, 118800, Note_on_c, 0, 65, 106
4, 119040, Note_on_c, 0, 65, 0
4, 119040, Note_on_c, 0, 66, 106
4, 119280, Note_on_c, 0, 66, 0
4, 119280, Note_on_c, 0, 54, 106
4, 119520, Note_on_c, 0, 54, 0
4, 119760, Note_on_c, 0, 54, 106
4, 120000, Note_on_c, 0, 54, 0
4, 120000, Note_on_c, 0, 56, 106
4, 120240, Note_on_c, 0, 56, 0
4, 120240, Note_on_c, 0, 58, 106
4, 120480, Note_on_c, 0, 58, 0
4, 120480, Note_on_c, 0, 59, 106
4, 120720, Note_on_c, 0, 59, 0
4, 120720, Note_on_c, 0, 54, 106
4, 120960, Note_on_c, 0, 54, 0
4, 121200, Control_c, 0, 64, 127
4, 121200, Note_on_c, 0, 54, 106
4, 121440, Note_on_c, 0, 54, 0
4, 121440, Note_on_c, 0, 59, 106
4, 121680, Note_on_c, 0, 59, 0
4, 121680, Note_on_c, 0, 61, 106
4, 121920, Note_on_c, 0, 61, 0
4, 121920, Note_on_c, 0, 62, 106
4, 122160, Note_on_c, 0, 62, 0
4, 122160, Control_c, 0, 64, 0
4, 122160, Note_on_c, 0, 59, 106
4, 122400, Note_on_c, 0, 59, 0
4, 122640, Control_c, 0, 64, 127
4, 122640, Note_on_c, 0, 54, 106
4, 122880, Note_on_c, 0, 54, 0
4, 122880, Note_on_c, 0, 59, 106
4, 123120, Note_on_c, 0, 59, 0
4, 123120, Note_on_c, 0, 61, 106
4, 123360, Note_on_c, 0, 61, 0
4, 123360, Note_on_c, 0, 62, 106
4, 123600, Note_on_c, 0, 62, 0
4, 123600, Control_c, 0, 64, 0
4, 123600, Note_on_c, 0, 59, 106
4, 123840, Note_on_c, 0, 59, 0
4, 124080, Control_c, 0, 64, 127
4, 124080, Note_on_c, 0, 56, 106
4, 124320, Note_on_c, 0, 56, 0
4, 124320, Note_on_c, 0, 61, 106
4, 124560, Note_on_c, 0, 61, 0
4, 124560, Note_on_c, 0, 64, 106
4, 124800, Note_on_c, 0, 64, 0
4, 124800, Note_on_c, 0, 66, 106
4, 125040, Note_on_c, 0, 66, 0
4, 125040, Control_c, 0, 64, 0
4, 125040, Note_on_c, 0, 68, 106
4, 125280, Note_on_c, 0, 68, 0
4, 125280, Note_on_c, 0, 57, 106
4, 125439, Note_on_c, 0, 57, 0
4, 125439, Note_on_c, 0, 57, 106
4, 125600, Note_on_c, 0, 57, 0
4, 125600, Note_on_c, 0, 57, 106
4, 125760, Note_on_c, 0, 57, 0
4, 125760, Note_on_c, 0, 48, 106
4, 125919, Note_on_c, 0, 48, 0
4, 125919, Note_on_c, 0, 48, 106
4, 126080, Note_on_c, 0, 48, 0
4, 126080, Note_on_c, 0, 48, 106
4, 126240, Note_on_c, 0, 48, 0
4, 126240, Note_on_c, 0, 49, 106
4, 126399, Note_on_c, 0, 49, 0
4, 126399, Note_on_c, 0, 49, 106
4, 126560, Note_on_c, 0, 49, 0
4, 126560, Note_on_c, 0, 49, 106
4, 126720, Note_on_c, 0, 49, 0
4, 126720, Note_on_c, 0, 50, 106
4, 126879, Note_on_c, 0, 50, 0
4, 126879, Note_on_c, 0, 50, 106
4, 127040, Note_on_c, 0, 50, 0
4, 127040, Note_on_c, 0, 50, 106
4, 127200, Note_on_c, 0, 50, 0
4, 127200, Note_on_c, 0, 52, 106
4, 127359, Note_on_c, 0, 52, 0
4, 127359, Note_on_c, 0, 52, 106
4, 127520, Note_on_c, 0, 52, 0
4, 127520, Note_on_c, 0, 52, 106
4, 127680, Note_on_c, 0, 52, 0
4, 127680, Note_on_c, 0, 53, 106
4, 127839, Note_on_c, 0, 53, 0
4, 127839, Note_on_c, 0, 53, 106
4, 128000, Note_on_c, 0, 53, 0
4, 128000, Note_on_c, 0, 53, 106
4, 128160, Note_on_c, 0, 53, 0
4, 128160, Note_on_c, 0, 52, 106
4, 128319, Note_on_c, 0, 52, 0
4, 128319, Note_on_c, 0, 52, 106
4, 128480, Note_on_c, 0, 52, 0
4, 128480, Note_on_c, 0, 52, 106
4, 128640, Note_on_c, 0, 52, 0
4, 128640, Note_on_c, 0, 51, 106
4, 128799, Note_on_c, 0, 51, 0
4, 128799, Note_on_c, 0, 51, 106
4, 128960, Note_on_c, 0, 51, 0
4, 128960, Note_on_c, 0, 51, 106
4, 129120, Note_on_c, 0, 51, 0
4, 129120, Note_on_c, 0, 52, 106
4, 129279, Note_on_c, 0, 52, 0
4, 129279, Note_on_c, 0, 52, 106
4, 129440, Note_on_c, 0, 52, 0
4, 129440, Note_on_c, 0, 52, 106
4, 129600, Note_on_c, 0, 52, 0
4, 129600, Note_on_c, 0, 53, 106
4, 129759, Note_on_c, 0, 53, 0
4, 129759, Note_on_c, 0, 53, 106
4, 129920, Note_on_c, 0, 53, 0
4, 129920, Note_on_c, 0, 53, 106
4, 130080, Note_on_c, 0, 53, 0
4, 130080, Note_on_c, 0, 54, 106
4, 130239, Note_on_c, 0, 54, 0
4, 130239, Note_on_c, 0, 54, 106
4, 130400, Note_on_c, 0, 54, 0
4, 130400, Note_on_c, 0, 54, 106
4, 130560, Note_on_c, 0, 54, 0
4, 130560, Note_on_c, 0, 56, 106
4, 130719, Note_on_c, 0, 56, 0
4, 130719, Note_on_c, 0, 56, 106
4, 130880, Note_on_c, 0, 56, 0
4, 130880, Note_on_c, 0, 56, 106
4, 131040, Note_on_c, 0, 56, 0
4, 131040, Note_on_c, 0, 57, 106
4, 131199, Note_on_c, 0, 57, 0
4, 131199, Note_on_c, 0, 57, 106
4, 131360, Note_on_c, 0, 57, 0
4, 131360, Note_on_c, 0, 57, 106
4, 131520, Note_on_c, 0, 57, 0
4, 131520, Note_on_c, 0, 60, 106
4, 132000, Note_on_c, 0, 60, 0
4, 132000, Note_on_c, 0, 52, 106
4, 132000, Note_on_c, 0, 61, 106
4, 132480, Note_on_c, 0, 61, 0
4, 132480, Note_on_c, 0, 52, 0
4, 132480, Note_on_c, 0, 50, 106
4, 132480, Note_on_c, 0, 59, 106
4, 132960, Note_on_c, 0, 59, 0
4, 132960, Note_on_c, 0, 50, 0
4, 132960, Note_on_c, 0, 51, 106
4, 132960, Note_on_c, 0, 57, 106
4, 133440, Note_on_c, 0, 57, 0
4, 133440, Note_on_c, 0, 51, 0
4, 133440, Note_on_c, 0, 52, 106
4, 133440, Note_on_c, 0, 62, 106
4, 133920, Note_on_c, 0, 62, 0
4, 133920, Note_on_c, 0, 52, 0
4, 133920, Note_on_c, 0, 52, 106
4, 133920, Note_on_c, 0, 61, 106
4, 134400, Note_on_c, 0, 61, 0
4, 134400, Note_on_c, 0, 52, 0
4, 134400, Note_on_c, 0, 54, 106
4, 134400, Note_on_c, 0, 66, 106
4, 134880, Note_on_c, 0, 66, 0
4, 134880, Note_on_c, 0, 54, 0
4, 134880, Note_on_c, 0, 52, 106
4, 134880, Note_on_c, 0, 64, 106
4, 135360, Note_on_c, 0, 64, 0
4, 135360, Note_on_c, 0, 52, 0
4, 135360, Note_on_c, 0, 50, 106
4, 135360, Note_on_c, 0, 62, 106
4, 135840, Note_on_c, 0, 62, 0
4, 135840, Note_on_c, 0, 50, 0
4, 135840, Note_on_c, 0, 49, 106
4, 135840, Note_on_c, 0, 61, 106
4, 136320, Note_on_c, 0, 61, 0
4, 136320, Note_on_c, 0, 49, 0
4, 136320, Note_on_c, 0, 47, 106
4, 136320, Note_on_c, 0, 59, 106
4, 136800, Note_on_c, 0, 59, 0
4, 136800, Note_on_c, 0, 47, 0
4, 136800, Note_on_c, 0, 45, 106
4, 136800, Note_on_c, 0, 49, 106
4, 136800, Note_on_c, 0, 52, 106
4, 136800, Note_on_c, 0, 57, 106
4, 137040, Note_on_c, 0, 57, 0
4, 137040, Note_on_c, 0, 45, 0
4, 137040, Note_on_c, 0, 49, 0
4, 137040, Note_on_c, 0, 52, 0
4, 137760, Note_on_c, 0, 66, 80
4, 137760, Note_on_c, 0, 69, 80
4, 138720, Note_on_c, 0, 69, 0
4, 138720, Note_on_c, 0, 66, 0
4, 139680, Note_on_c, 0, 59, 80
4, 139680, Note_on_c, 0, 66, 80
4, 140640, Note_on_c, 0, 66, 0
4, 140640, Note_on_c, 0, 59, 0
4, 141600, Note_on_c, 0, 54, 80
4, 141600, Note_on_c, 0, 57, 80
4, 142560, Note_on_c, 0, 57, 0
4, 142560, Note_on_c, 0, 54, 0
4, 143520, Note_on_c, 0, 47, 67
4, 143520, Note_on_c, 0, 54, 67
4, 144480, Note_on_c, 0, 54, 0
4, 144480, Note_on_c, 0, 47, 0
4, 144480, Note_on_c, 0, 52, 67
4, 144480, Note_on_c, 0, 59, 67
4, 144527, Note_on_c, 0, 59, 0
4, 144527, Note_on_c, 0, 52, 0
4, 144720, Note_on_c, 0, 53, 67
4, 144767, Note_on_c, 0, 53, 0
4, 144960, Note_on_c, 0, 47, 67
4, 144960, Note_on_c, 0, 54, 67
4, 145007, Note_on_c, 0, 54, 0
4, 145007, Note_on_c, 0, 47, 0
4, 145200, Note_on_c, 0, 53, 67
4, 145247, Note_on_c, 0, 53, 0
4, 145440, Note_on_c, 0, 52, 67
4, 145440, Note_on_c, 0, 59, 67
4, 145487, Note_on_c, 0, 59, 0
4, 145487, Note_on_c, 0, 52, 0
4, 145680, Note_on_c, 0, 53, 67
4, 145727, Note_on_c, 0, 53, 0
4, 145920, Note_on_c, 0, 47, 67
4, 145920, Note_on_c, 0, 54, 67
4, 145967, Note_on_c, 0, 54, 0
4, 145967, Note_on_c, 0, 47, 0
4, 146160, Note_on_c, 0, 53, 67
4, 146207, Note_on_c, 0, 53, 0
4, 146400, Note_on_c, 0, 52, 67
4, 146400, Note_on_c, 0, 59, 67
4, 146447, Note_on_c, 0, 59, 0
4, 146447, Note_on_c, 0, 52, 0
4, 146640, Note_on_c, 0, 53, 67
4, 146687, Note_on_c, 0, 53, 0
4, 146880, Note_on_c, 0, 54, 67
4, 146927, Note_on_c, 0, 54, 0
4, 147120, Note_on_c, 0, 56, 67
4, 147167, Note_on_c, 0, 56, 0
4, 149760, Note_on_c, 0, 59, 54
4, 149760, Note_on_c, 0, 62, 54
4, 149856, Note_on_c, 0, 62, 0
4, 149856, Note_on_c, 0, 59, 0
4, 150240, Note_on_c, 0, 56, 54
4, 150240, Note_on_c, 0, 59, 54
4, 150336, Note_on_c, 0, 59, 0
4, 150336, Note_on_c, 0, 56, 0
4, 150720, Note_on_c, 0, 52, 54
4, 150720, Note_on_c, 0, 56, 54
4, 150816, Note_on_c, 0, 56, 0
4, 150816, Note_on_c, 0, 52, 0
4, 152640, Note_on_c, 0, 59, 54
4, 152640, Note_on_c, 0, 62, 54
4, 152736, Note_on_c, 0, 62, 0
4, 152736, Note_on_c, 0, 59, 0
4, 153120, Note_on_c, 0, 57, 54
4, 153120, Note_on_c, 0, 59, 54
4, 153216, Note_on_c, 0, 59, 0
4, 153216, Note_on_c, 0, 57, 0
4, 153600, Note_on_c, 0, 54, 54
4, 153600, Note_on_c, 0, 57, 54
4, 153696, Note_on_c, 0, 57, 0
4, 153696, Note_on_c, 0, 54, 0
4, 155520, Note_on_c, 0, 61, 54
4, 155520, Note_on_c, 0, 64, 54
4, 155616, Note_on_c, 0, 64, 0
4, 155616, Note_on_c, 0, 61, 0
4, 156000, Note_on_c, 0, 58, 54
4, 156000, Note_on_c, 0, 61, 54
4, 156096, Note_on_c, 0, 61, 0
4, 156096, Note_on_c, 0, 58, 0
4, 156480, Note_on_c, 0, 55, 54
4, 156480, Note_on_c, 0, 58, 54
4, 156576, Note_on_c, 0, 58, 0
4, 156576, Note_on_c, 0, 55, 0
4, 158400, Note_on_c, 0, 62, 54
4, 158400, Note_on_c, 0, 64, 54
4, 158496, Note_on_c, 0, 64, 0
4, 158496, Note_on_c, 0, 62, 0
4, 158880, Note_on_c, 0, 59, 54
4, 158880, Note_on_c, 0, 62, 54
4, 158976, Note_on_c, 0, 62, 0
4, 158976, Note_on_c, 0, 59, 0
4, 159360, Note_on_c, 0, 56, 54
4, 159360, Note_on_c, 0, 59, 54
4, 159456, Note_on_c, 0, 59, 0
4, 159456, Note_on_c, 0, 56, 0
4, 160320, Note_on_c, 0, 57, 54
4, 160320, Note_on_c, 0, 61, 54
4, 161280, Note_on_c, 0, 61, 0
4, 161280, Note_on_c, 0, 57, 0
4, 161760, Note_on_c, 0, 57, 54
4, 161760, Note_on_c, 0, 61, 54
4, 162720, Note_on_c, 0, 61, 0
4, 162720, Note_on_c, 0, 57, 0
4, 163200, Note_on_c, 0, 57, 54
4, 163200, Note_on_c, 0, 61, 54
4, 164160, Note_on_c, 0, 61, 0
4, 164160, Note_on_c, 0, 57, 0
4, 164640, Note_on_c, 0, 57, 54
4, 164640, Note_on_c, 0, 61, 54
4, 165600, Note_on_c, 0, 61, 0
4, 165600, Note_on_c, 0, 57, 0
4, 166080, Note_on_c, 0, 57, 54
4, 166080, Note_on_c, 0, 61, 54
4, 167040, Note_on_c, 0, 61, 0
4, 167040, Note_on_c, 0, 57, 0
4, 167520, Note_on_c, 0, 57, 54
4, 167520, Note_on_c, 0, 61, 54
4, 168480, Note_on_c, 0, 61, 0
4, 168480, Note_on_c, 0, 57, 0
4, 168960, Note_on_c, 0, 57, 54
4, 168960, Note_on_c, 0, 61, 54
4, 169440, Note_on_c, 0, 61, 0
4, 169440, Note_on_c, 0, 57, 0
4, 169440, Note_on_c, 0, 49, 54
4, 169440, Note_on_c, 0, 57, 54
4, 169440, Note_on_c, 0, 64, 54
4, 169920, Note_on_c, 0, 64, 0
4, 169920, Note_on_c, 0, 57, 0
4, 169920, Note_on_c, 0, 49, 0
4, 170400, Note_on_c, 0, 54, 54
4, 170400, Note_on_c, 0, 62, 54
4, 170880, Note_on_c, 0, 62, 0
4, 170880, Note_on_c, 0, 54, 0
4, 170880, Note_on_c, 0, 50, 54
4, 170880, Note_on_c, 0, 54, 54
4, 170880, Note_on_c, 0, 59, 54
4, 171360, Note_on_c, 0, 59, 0
4, 171360, Note_on_c, 0, 54, 0
4, 171360, Note_on_c, 0, 50, 0
4, 171840, Note_on_c, 0, 59, 54
4, 171840, Note_on_c, 0, 62, 54
4, 172800, Note_on_c, 0, 62, 0
4, 172800, Note_on_c, 0, 59, 0
4, 173280, Note_on_c, 0, 59, 54
4, 173280, Note_on_c, 0, 62, 54
4, 174240, Note_on_c, 0, 62, 0
4, 174240, Note_on_c, 0, 59, 0
4, 174720, Note_on_c, 0, 59, 54
4, 174720, Note_on_c, 0, 62, 54
4, 175680, Note_on_c, 0, 62, 0
4, 175680, Note_on_c, 0, 59, 0
4, 176160, Note_on_c, 0, 59, 54
4, 176160, Note_on_c, 0, 62, 54
4, 177120, Note_on_c, 0, 62, 0
4, 177120, Note_on_c, 0, 59, 0
4, 177600, Note_on_c, 0, 59, 54
4, 177600, Note_on_c, 0, 62, 54
4, 178560, Note_on_c, 0, 62, 0
4, 178560, Note_on_c, 0, 59, 0
4, 179040, Note_on_c, 0, 59, 54
4, 179040, Note_on_c, 0, 62, 54
4, 180000, Note_on_c, 0, 62, 0
4, 180000, Note_on_c, 0, 59, 0
4, 180480, Note_on_c, 0, 57, 54
4, 180480, Note_on_c, 0, 59, 54
4, 180480, Note_on_c, 0, 62, 54
4, 181440, Note_on_c, 0, 62, 0
4, 181440, Note_on_c, 0, 59, 0
4, 181440, Note_on_c, 0, 57, 0
4, 181920, Note_on_c, 0, 59, 54
4, 181920, Note_on_c, 0, 62, 54
4, 181920, Note_on_c, 0, 64, 54
4, 182880, Note_on_c, 0, 64, 0
4, 182880, Note_on_c, 0, 62, 0
4, 182880, Note_on_c, 0, 59, 0
4, 183120, Note_on_c, 0, 52, 67
4, 183360, Note_on_c, 0, 52, 0
4, 183360, Note_on_c, 0, 54, 67
4, 183600, Note_on_c, 0, 54, 0
4, 183600, Note_on_c, 0, 56, 67
4, 183840, Note_on_c, 0, 56, 0
4, 183840, Note_on_c, 0, 57, 67
4, 184080, Note_on_c, 0, 57, 0
4, 184080, Note_on_c, 0, 59, 67
4, 184320, Note_on_c, 0, 59, 0
4, 184320, Note_on_c, 0, 57, 67
4, 184416, Note_on_c, 0, 57, 0
4, 184800, Note_on_c, 0, 52, 67
4, 184896, Note_on_c, 0, 52, 0
4, 185280, Note_on_c, 0, 45, 67
4, 185376, Note_on_c, 0, 45, 0
4, 186000, Note_on_c, 0, 52, 67
4, 186240, Note_on_c, 0, 52, 0
4, 186240, Note_on_c, 0, 54, 67
4, 186480, Note_on_c, 0, 54, 0
4, 186480, Note_on_c, 0, 56, 67
4, 186720, Note_on_c, 0, 56, 0
4, 186720, Note_on_c, 0, 57, 67
4, 186960, Note_on_c, 0, 57, 0
4, 186960, Note_on_c, 0, 59, 67
4, 187200, Note_on_c, 0, 59, 0
4, 187200, Note_on_c, 0, 57, 67
4, 187296, Note_on_c, 0, 57, 0
4, 187680, Note_on_c, 0, 52, 67
4, 187776, Note_on_c, 0, 52, 0
4, 188160, Note_on_c, 0, 45, 67
4, 188256, Note_on_c, 0, 45, 0
4, 188880, Note_on_c, 0, 60, 67
4, 189120, Note_on_c, 0, 60, 0
4, 189120, Note_on_c, 0, 61, 67
4, 190080, Note_on_c, 0, 61, 0
4, 190320, Note_on_c, 0, 60, 67
4, 190560, Note_on_c, 0, 60, 0
4, 190560, Note_on_c, 0, 61, 67
4, 191520, Note_on_c, 0, 61, 0
4, 191760, Note_on_c, 0, 63, 67
4, 192000, Note_on_c, 0, 63, 0
4, 192000, Note_on_c, 0, 64, 67
4, 192960, Note_on_c, 0, 64, 0
4, 193200, Note_on_c, 0, 65, 67
4, 193440, Note_on_c, 0, 65, 0
4, 193440, Note_on_c, 0, 66, 67
4, 194400, Note_on_c, 0, 66, 0
4, 194640, Note_on_c, 0, 54, 67
4, 194880, Note_on_c, 0, 54, 0
4, 194880, Note_on_c, 0, 56, 67
4, 195120, Note_on_c, 0, 56, 0
4, 195120, Note_on_c, 0, 58, 67
4, 195360, Note_on_c, 0, 58, 0
4, 195360, Note_on_c, 0, 59, 67
4, 195600, Note_on_c, 0, 59, 0
4, 195600, Note_on_c, 0, 60, 67
4, 195840, Note_on_c, 0, 60, 0
4, 195840, Note_on_c, 0, 59, 67
4, 195936, Note_on_c, 0, 59, 0
4, 196320, Note_on_c, 0, 54, 67
4, 196416, Note_on_c, 0, 54, 0
4, 196800, Note_on_c, 0, 47, 67
4, 196896, Note_on_c, 0, 47, 0
4, 197520, Note_on_c, 0, 54, 67
4, 197760, Note_on_c, 0, 54, 0
4, 197760, Note_on_c, 0, 56, 67
4, 198000, Note_on_c, 0, 56, 0
4, 198000, Note_on_c, 0, 58, 67
4, 198240, Note_on_c, 0, 58, 0
4, 198240, Note_on_c, 0, 59, 67
4, 198480, Note_on_c, 0, 59, 0
4, 198480, Note_on_c, 0, 60, 67
4, 198720, Note_on_c, 0, 60, 0
4, 198720, Note_on_c, 0, 59, 67
4, 198816, Note_on_c, 0, 59, 0
4, 199200, Note_on_c, 0, 54, 67
4, 199296, Note_on_c, 0, 54, 0
4, 199680, Note_on_c, 0, 47, 67
4, 199776, Note_on_c, 0, 47, 0
4, 200400, Note_on_c, 0, 61, 67
4, 200640, Note_on_c, 0, 61, 0
4, 200640, Note_on_c, 0, 62, 67
4, 201600, Note_on_c, 0, 62, 0
4, 201840, Note_on_c, 0, 61, 67
4, 202080, Note_on_c, 0, 61, 0
4, 202080, Note_on_c, 0, 62, 67
4, 203040, Note_on_c, 0, 62, 0
4, 203280, Note_on_c, 0, 61, 67
4, 203520, Note_on_c, 0, 61, 0
4, 203520, Note_on_c, 0, 63, 67
4, 204480, Note_on_c, 0, 63, 0
4, 204720, Note_on_c, 0, 63, 67
4, 204960, Note_on_c, 0, 63, 0
4, 204960, Note_on_c, 0, 64, 67
4, 205920, Note_on_c, 0, 64, 0
4, 205920, Note_on_c, 0, 38, 119
4, 205920, Note_on_c, 0, 42, 119
4, 205920, Note_on_c, 0, 47, 119
4, 205920, Note_on_c, 0, 50, 119
4, 206640, Note_on_c, 0, 50, 0
4, 206640, Note_on_c, 0, 38, 0
4, 206640, Note_on_c, 0, 42, 0
4, 206640, Note_on_c, 0, 47, 0
4, 206640, Note_on_c, 0, 38, 119
4, 206640, Note_on_c, 0, 42, 119
4, 206640, Note_on_c, 0, 47, 119
4, 206640, Note_on_c, 0, 50, 119
4, 206880, Note_on_c, 0, 50, 0
4, 206880, Note_on_c, 0, 38, 0
4, 206880, Note_on_c, 0, 42, 0
4, 206880, Note_on_c, 0, 47, 0
4, 206880, Note_on_c, 0, 38, 119
4, 206880, Note_on_c, 0, 42, 119
4, 206880, Note_on_c, 0, 47, 119
4, 206880, Note_on_c, 0, 50, 119
4, 207360, Note_on_c, 0, 50, 0
4, 207360, Note_on_c, 0, 38, 0
4, 207360, Note_on_c, 0, 42, 0
4, 207360, Note_on_c, 0, 47, 0
4, 207840, Note_on_c, 0, 50, 93
4, 207840, Note_on_c, 0, 54, 93
4, 207840, Note_on_c, 0, 62, 93
4, 209280, Note_on_c, 0, 62, 0
4, 209280, Note_on_c, 0, 54, 0
4, 209280, Note_on_c, 0, 50, 0
4, 209280, Note_on_c, 0, 49, 93
4, 209280, Note_on_c, 0, 52, 93
4, 209280, Note_on_c, 0, 54, 93
4, 209280, Note_on_c, 0, 61, 93
4, 210720, Note_on_c, 0, 61, 0
4, 210720, Note_on_c, 0, 49, 0
4, 210720, Note_on_c, 0, 52, 0
4, 210720, Note_on_c, 0, 54, 0
4, 210720, Note_on_c, 0, 47, 93
4, 210720, Note_on_c, 0, 50, 93
4, 210720, Note_on_c, 0, 54, 93
4, 210720, Note_on_c, 0, 59, 93
4, 211200, Note_on_c, 0, 59, 0
4, 211200, Note_on_c, 0, 47, 0
4, 211200, Note_on_c, 0, 50, 0
4, 211200, Note_on_c, 0, 54, 0
4, 211200, Note_on_c, 0, 42, 93
4, 211200, Note_on_c, 0, 47, 93
4, 211200, Note_on_c, 0, 54, 93
4, 211680, Note_on_c, 0, 54, 0
4, 211680, Note_on_c, 0, 47, 0
4, 211680, Note_on_c, 0, 42, 0
4, 211680, Note_on_c, 0, 38, 119
4, 211680, Note_on_c, 0, 42, 119
4, 211680, Note_on_c, 0, 47, 119
4, 211680, Note_on_c, 0, 50, 119
4, 212400, Note_on_c, 0, 50, 0
4, 212400, Note_on_c, 0, 38, 0
4, 212400, Note_on_c, 0, 42, 0
4, 212400, Note_on_c, 0, 47, 0
4, 212400, Note_on_c, 0, 38, 119
4, 212400, Note_on_c, 0, 42, 119
4, 212400, Note_on_c, 0, 47, 119
4, 212400, Note_on_c, 0, 50, 119
4, 212640, Note_on_c, 0, 50, 0
4, 212640, Note_on_c, 0, 38, 0
4, 212640, Note_on_c, 0, 42, 0
4, 212640, Note_on_c, 0, 47, 0
4, 212640, Note_on_c, 0, 38, 119
4, 212640, Note_on_c, 0, 42, 119
4, 212640, Note_on_c, 0, 47, 119
4, 212640, Note_on_c, 0, 50, 119
4, 213120, Note_on_c, 0, 50, 0
4, 213120, Note_on_c, 0, 38, 0
4, 213120, Note_on_c, 0, 42, 0
4, 213120, Note_on_c, 0, 47, 0
4, 213600, Note_on_c, 0, 50, 93
4, 213600, Note_on_c, 0, 54, 93
4, 213600, Note_on_c, 0, 62, 93
4, 215040, Note_on_c, 0, 62, 0
4, 215040, Note_on_c, 0, 54, 0
4, 215040, Note_on_c, 0, 50, 0
4, 215040, Note_on_c, 0, 49, 93
4, 215040, Note_on_c, 0, 52, 93
4, 215040, Note_on_c, 0, 54, 93
4, 215040, Note_on_c, 0, 61, 93
4, 216480, Note_on_c, 0, 61, 0
4, 216480, Note_on_c, 0, 49, 0
4, 216480, Note_on_c, 0, 52, 0
4, 216480, Note_on_c, 0, 54, 0
4, 216480, Note_on_c, 0, 47, 93
4, 216480, Note_on_c, 0, 54, 93
4, 216480, Note_on_c, 0, 59, 93
4, 217440, Note_on_c, 0, 59, 0
4, 217440, Note_on_c, 0, 54, 0
4, 217440, Note_on_c, 0, 47, 0
4, 217440, Note_on_c, 0, 38, 119
4, 217440, Note_on_c, 0, 42, 119
4, 217440, Note_on_c, 0, 47, 119
4, 217440, Note_on_c, 0, 50, 119
4, 218160, Note_on_c, 0, 50, 0
4, 218160, Note_on_c, 0, 38, 0
4, 218160, Note_on_c, 0, 42, 0
4, 218160, Note_on_c, 0, 47, 0
4, 218160, Note_on_c, 0, 38, 119
4, 218160, Note_on_c, 0, 42, 119
4, 218160, Note_on_c, 0, 47, 119
4, 218160, Note_on_c, 0, 50, 119
4, 218400, Note_on_c, 0, 50, 0
4, 218400, Note_on_c, 0, 38, 0
4, 218400, Note_on_c, 0, 42, 0
4, 218400, Note_on_c, 0, 47, 0
4, 218400, Note_on_c, 0, 38, 119
4, 218400, Note_on_c, 0, 42, 119
4, 218400, Note_on_c, 0, 47, 119
4, 218400, Note_on_c, 0, 50, 119
4, 218880, Note_on_c, 0, 50, 0
4, 218880, Note_on_c, 0, 38, 0
4, 218880, Note_on_c, 0, 42, 0
4, 218880, Note_on_c, 0, 47, 0
4, 219360, Note_on_c, 0, 50, 93
4, 219360, Note_on_c, 0, 54, 93
4, 219360, Note_on_c, 0, 62, 93
4, 220800, Note_on_c, 0, 62, 0
4, 220800, Note_on_c, 0, 54, 0
4, 220800, Note_on_c, 0, 50, 0
4, 220800, Note_on_c, 0, 49, 93
4, 220800, Note_on_c, 0, 52, 93
4, 220800, Note_on_c, 0, 54, 93
4, 220800, Note_on_c, 0, 61, 93
4, 222240, Note_on_c, 0, 61, 0
4, 222240, Note_on_c, 0, 49, 0
4, 222240, Note_on_c, 0, 52, 0
4, 222240, Note_on_c, 0, 54, 0
4, 222240, Note_on_c, 0, 47, 93
4, 222240, Note_on_c, 0, 50, 93
4, 222240, Note_on_c, 0, 54, 93
4, 222240, Note_on_c, 0, 59, 93
4, 222720, Note_on_c, 0, 59, 0
4, 222720, Note_on_c, 0, 47, 0
4, 222720, Note_on_c, 0, 50, 0
4, 222720, Note_on_c, 0, 54, 0
4, 222720, Note_on_c, 0, 42, 93
4, 222720, Note_on_c, 0, 47, 93
4, 222720, Note_on_c, 0, 54, 93
4, 223200, Note_on_c, 0, 54, 0
4, 223200, Note_on_c, 0, 47, 0
4, 223200, Note_on_c, 0, 42, 0
4, 223200, Note_on_c, 0, 38, 119
4, 223200, Note_on_c, 0, 42, 119
4, 223200, Note_on_c, 0, 47, 119
4, 223200, Note_on_c, 0, 50, 119
4, 223920, Note_on_c, 0, 50, 0
4, 223920, Note_on_c, 0, 38, 0
4, 223920, Note_on_c, 0, 42, 0
4, 223920, Note_on_c, 0, 47, 0
4, 223920, Note_on_c, 0, 38, 119
4, 223920, Note_on_c, 0, 42, 119
4, 223920, Note_on_c, 0, 47, 119
4, 223920, Note_on_c, 0, 50, 119
4, 224160, Note_on_c, 0, 50, 0
4, 224160, Note_on_c, 0, 38, 0
4, 224160, Note_on_c, 0, 42, 0
4, 224160, Note_on_c, 0, 47, 0
4, 224160, Note_on_c, 0, 38, 119
4, 224160, Note_on_c, 0, 42, 119
4, 224160, Note_on_c, 0, 47, 119
4, 224160, Note_on_c, 0, 50, 119
4, 224640, Note_on_c, 0, 50, 0
4, 224640, Note_on_c, 0, 38, 0
4, 224640, Note_on_c, 0, 42, 0
4, 224640, Note_on_c, 0, 47, 0
4, 225120, Note_on_c, 0, 50, 119
4, 225120, Note_on_c, 0, 54, 119
4, 225120, Note_on_c, 0, 62, 119
4, 226560, Note_on_c, 0, 62, 0
4, 226560, Note_on_c, 0, 54, 0
4, 226560, Note_on_c, 0, 50, 0
4, 226560, Note_on_c, 0, 49, 119
4, 226560, Note_on_c, 0, 52, 119
4, 226560, Note_on_c, 0, 54, 119
4, 226560, Note_on_c, 0, 61, 119
4, 228000, Note_on_c, 0, 61, 0
4, 228000, Note_on_c, 0, 49, 0
4, 228000, Note_on_c, 0, 52, 0
4, 228000, Note_on_c, 0, 54, 0
4, 228000, Note_on_c, 0, 47, 119
4, 228000, Note_on_c, 0, 50, 119
4, 228000, Note_on_c, 0, 54, 119
4, 228000, Note_on_c, 0, 59, 119
4, 229440, Note_on_c, 0, 59, 0
4, 229440, Note_on_c, 0, 47, 0
4, 229440, Note_on_c, 0, 50, 0
4, 229440, Note_on_c, 0, 54, 0
4, 229440, Note_on_c, 0, 45, 119
4, 229440, Note_on_c, 0, 47, 119
4, 229440, Note_on_c, 0, 50, 119
4, 229440, Note_on_c, 0, 57, 119
4, 230880, Note_on_c, 0, 57, 0
4, 230880, Note_on_c, 0, 45, 0
4, 230880, Note_on_c, 0, 47, 0
4, 230880, Note_on_c, 0, 50, 0
4, 230880, Note_on_c, 0, 44, 119
4, 230880, Note_on_c, 0, 47, 119
4, 230880, Note_on_c, 0, 50, 119
4, 230880, Note_on_c, 0, 56, 119
4, 232320, Note_on_c, 0, 56, 0
4, 232320, Note_on_c, 0, 44, 0
4, 232320, Note_on_c, 0, 47, 0
4, 232320, Note_on_c, 0, 50, 0
4, 232320, Note_on_c, 0, 42, 119
4, 232320, Note_on_c, 0, 47, 119
4, 232320, Note_on_c, 0, 50, 119
4, 232320, Note_on_c, 0, 54, 119
4, 233760, Note_on_c, 0, 54, 0
4, 233760, Note_on_c, 0, 42, 0
4, 233760, Note_on_c, 0, 47, 0
4, 233760, Note_on_c, 0, 50, 0
4, 233760, Note_on_c, 0, 41, 119
4, 233760, Note_on_c, 0, 43, 119
4, 233760, Note_on_c, 0, 47, 119
4, 233760, Note_on_c, 0, 53, 119
4, 235200, Note_on_c, 0, 53, 0
4, 235200, Note_on_c, 0, 41, 0
4, 235200, Note_on_c, 0, 43, 0
4, 235200, Note_on_c, 0, 47, 0
4, 235200, Note_on_c, 0, 40, 119
4, 235200, Note_on_c, 0, 44, 119
4, 235200, Note_on_c, 0, 47, 119
4, 235200, Note_on_c, 0, 52, 119
4, 236160, Note_on_c, 0, 52, 0
4, 236160, Note_on_c, 0, 40, 0
4, 236160, Note_on_c, 0, 44, 0
4, 236160, Note_on_c, 0, 47, 0
4, 236400, Note_on_c, 0, 59, 93
4, 236400, Note_on_c, 0, 62, 93
4, 236640, Note_on_c, 0, 62, 0
4, 236640, Note_on_c, 0, 59, 0
4, 236640, Note_on_c, 0, 52, 93
4, 236640, Note_on_c, 0, 56, 93
4, 236880, Note_on_c, 0, 56, 0
4, 236880, Note_on_c, 0, 52, 0
4, 236880, Note_on_c, 0, 54, 93
4, 236880, Note_on_c, 0, 57, 93
4, 237120, Note_on_c, 0, 57, 0
4, 237120, Note_on_c, 0, 54, 0
4, 237120, Note_on_c, 0, 56, 93
4, 237120, Note_on_c, 0, 59, 93
4, 237360, Note_on_c, 0, 59, 0
4, 237360, Note_on_c, 0, 56, 0
4, 237360, Note_on_c, 0, 57, 93
4, 237360, Note_on_c, 0, 61, 93
4, 237600, Note_on_c, 0, 61, 0
4, 237600, Note_on_c, 0, 57, 0
4, 237600, Note_on_c, 0, 59, 93
4, 237600, Note_on_c, 0, 62, 93
4, 237696, Note_on_c, 0, 62, 0
4, 237696, Note_on_c, 0, 59, 0
4, 238080, Note_on_c, 0, 56, 93
4, 238080, Note_on_c, 0, 59, 93
4, 238176, Note_on_c, 0, 59, 0
4, 238176, Note_on_c, 0, 56, 0
4, 238560, Note_on_c, 0, 52, 93
4, 238560, Note_on_c, 0, 56, 93
4, 238656, Note_on_c, 0, 56, 0
4, 238656, Note_on_c, 0, 52, 0
4, 239280, Note_on_c, 0, 59, 80
4, 239280, Note_on_c, 0, 62, 80
4, 239520, Note_on_c, 0, 62, 0
4, 239520, Note_on_c, 0, 59, 0
4, 239520, Note_on_c, 0, 54, 80
4, 239520, Note_on_c, 0, 57, 80
4, 239760, Note_on_c, 0, 57, 0
4, 239760, Note_on_c, 0, 54, 0
4, 239760, Note_on_c, 0, 56, 80
4, 239760, Note_on_c, 0, 59, 80
4, 240000, Note_on_c, 0, 59, 0
4, 240000, Note_on_c, 0, 56, 0
4, 240000, Note_on_c, 0, 57, 80
4, 240000, Note_on_c, 0, 60, 80
4, 240240, Note_on_c, 0, 60, 0
4, 240240, Note_on_c, 0, 57, 0
4, 240240, Note_on_c, 0, 58, 80
4, 240240, Note_on_c, 0, 61, 80
4, 240480, Note_on_c, 0, 61, 0
4, 240480, Note_on_c, 0, 58, 0
4, 240480, Note_on_c, 0, 59, 80
4, 240480, Note_on_c, 0, 62, 80
4, 240576, Note_on_c, 0, 62, 0
4, 240576, Note_on_c, 0, 59, 0
4, 240960, Note_on_c, 0, 57, 80
4, 240960, Note_on_c, 0, 59, 80
4, 241056, Note_on_c, 0, 59, 0
4, 241056, Note_on_c, 0, 57, 0
4, 241440, Note_on_c, 0, 54, 80
4, 241440, Note_on_c, 0, 57, 80
4, 241536, Note_on_c, 0, 57, 0
4, 241536, Note_on_c, 0, 54, 0
4, 242160, Note_on_c, 0, 55, 80
4, 242160, Note_on_c, 0, 58, 80
4, 242400, Note_on_c, 0, 58, 0
4, 242400, Note_on_c, 0, 55, 0
4, 242400, Note_on_c, 0, 58, 80
4, 242400, Note_on_c, 0, 61, 80
4, 242640, Note_on_c, 0, 61, 0
4, 242640, Note_on_c, 0, 58, 0
4, 242640, Note_on_c, 0, 60, 80
4, 242640, Note_on_c, 0, 63, 80
4, 242880, Note_on_c, 0, 63, 0
4, 242880, Note_on_c, 0, 60, 0
4, 242880, Note_on_c, 0, 61, 80
4, 242880, Note_on_c, 0, 64, 80
4, 243120, Note_on_c, 0, 64, 0
4, 243120, Note_on_c, 0, 61, 0
4, 243120, Note_on_c, 0, 58, 80
4, 243120, Note_on_c, 0, 61, 80
4, 243360, Note_on_c, 0, 61, 0
4, 243360, Note_on_c, 0, 58, 0
4, 243600, Note_on_c, 0, 56, 80
4, 243600, Note_on_c, 0, 59, 80
4, 243840, Note_on_c, 0, 59, 0
4, 243840, Note_on_c, 0, 56, 0
4, 243840, Note_on_c, 0, 59, 80
4, 243840, Note_on_c, 0, 62, 80
4, 244080, Note_on_c, 0, 62, 0
4, 244080, Note_on_c, 0, 59, 0
4, 244080, Note_on_c, 0, 61, 80
4, 244080, Note_on_c, 0, 64, 80
4, 244320, Note_on_c, 0, 64, 0
4, 244320, Note_on_c, 0, 61, 0
4, 244320, Note_on_c, 0, 62, 80
4, 244320, Note_on_c, 0, 66, 80
4, 244560, Note_on_c, 0, 66, 0
4, 244560, Note_on_c, 0, 62, 0
4, 244560, Note_on_c, 0, 59, 80
4, 244560, Note_on_c, 0, 62, 80
4, 244800, Note_on_c, 0, 62, 0
4, 244800, Note_on_c, 0, 59, 0
4, 247920, Note_on_c, 0, 52, 54
4, 248160, Note_on_c, 0, 52, 0
4, 248160, Note_on_c, 0, 54, 54
4, 248400, Note_on_c, 0, 54, 0
4, 248400, Note_on_c, 0, 56, 54
4, 248640, Note_on_c, 0, 56, 0
4, 248640, Note_on_c, 0, 57, 54
4, 248880, Note_on_c, 0, 57, 0
4, 248880, Note_on_c, 0, 59, 54
4, 249120, Note_on_c, 0, 59, 0
4, 249120, Note_on_c, 0, 57, 54
4, 249360, Note_on_c, 0, 57, 0
4, 249600, Note_on_c, 0, 57, 54
4, 249600, Note_on_c, 0, 61, 54
4, 250560, Note_on_c, 0, 61, 0
4, 250560, Note_on_c, 0, 57, 0
4, 250800, Note_on_c, 0, 52, 54
4, 251040, Note_on_c, 0, 52, 0
4, 251040, Note_on_c, 0, 54, 54
4, 251280, Note_on_c, 0, 54, 0
4, 251280, Note_on_c, 0, 56, 54
4, 251520, Note_on_c, 0, 56, 0
4, 251520, Note_on_c, 0, 57, 54
4, 251760, Note_on_c, 0, 57, 0
4, 251760, Note_on_c, 0, 59, 54
4, 252000, Note_on_c, 0, 59, 0
4, 252000, Note_on_c, 0, 57, 54
4, 252240, Note_on_c, 0, 57, 0
4, 252480, Note_on_c, 0, 57, 54
4, 252480, Note_on_c, 0, 61, 54
4, 253440, Note_on_c, 0, 61, 0
4, 253440, Note_on_c, 0, 57, 0
4, 253920, Note_on_c, 0, 57, 54
4, 253920, Note_on_c, 0, 61, 54
4, 254880, Note_on_c, 0, 61, 0
4, 254880, Note_on_c, 0, 57, 0
4, 255360, Note_on_c, 0, 57, 54
4, 255360, Note_on_c, 0, 61, 54
4, 256320, Note_on_c, 0, 61, 0
4, 256320, Note_on_c, 0, 57, 0
4, 256800, Note_on_c, 0, 57, 67
4, 256800, Note_on_c, 0, 61, 67
4, 257280, Note_on_c, 0, 61, 0
4, 257280, Note_on_c, 0, 57, 0
4, 257280, Note_on_c, 0, 49, 67
4, 257280, Note_on_c, 0, 57, 67
4, 257280, Note_on_c, 0, 64, 67
4, 257760, Note_on_c, 0, 64, 0
4, 257760, Note_on_c, 0, 57, 0
4, 257760, Note_on_c, 0, 49, 0
4, 258240, Note_on_c, 0, 54, 54
4, 258240, Note_on_c, 0, 62, 54
4, 258720, Note_on_c, 0, 62, 0
4, 258720, Note_on_c, 0, 54, 0
4, 258720, Note_on_c, 0, 50, 54
4, 258720, Note_on_c, 0, 54, 54
4, 258720, Note_on_c, 0, 59, 54
4, 259200, Note_on_c, 0, 59, 0
4, 259200, Note_on_c, 0, 54, 0
4, 259200, Note_on_c, 0, 50, 0
4, 259440, Note_on_c, 0, 50, 54
4, 259440, Note_on_c, 0, 54, 54
4, 259680, Note_on_c, 0, 54, 0
4, 259680, Note_on_c, 0, 50, 0
4, 259680, Note_on_c, 0, 52, 54
4, 259920, Note_on_c, 0, 52, 0
4, 259920, Note_on_c, 0, 54, 54
4, 260160, Note_on_c, 0, 54, 0
4, 260160, Note_on_c, 0, 56, 54
4, 260400, Note_on_c, 0, 56, 0
4, 260400, Note_on_c, 0, 58, 54
4, 260640, Note_on_c, 0, 58, 0
4, 260640, Note_on_c, 0, 59, 54
4, 260880, Note_on_c, 0, 59, 0
4, 261120, Note_on_c, 0, 59, 54
4, 261120, Note_on_c, 0, 62, 54
4, 262080, Note_on_c, 0, 62, 0
4, 262080, Note_on_c, 0, 59, 0
4, 262320, Note_on_c, 0, 50, 54
4, 262320, Note_on_c, 0, 54, 54
4, 262560, Note_on_c, 0, 54, 0
4, 262560, Note_on_c, 0, 50, 0
4, 262560, Note_on_c, 0, 52, 54
4, 262800, Note_on_c, 0, 52, 0
4, 262800, Note_on_c, 0, 54, 54
4, 263040, Note_on_c, 0, 54, 0
4, 263040, Note_on_c, 0, 56, 54
4, 263280, Note_on_c, 0, 56, 0
4, 263280, Note_on_c, 0, 58, 54
4, 263520, Note_on_c, 0, 58, 0
4, 263520, Note_on_c, 0, 59, 54
4, 263760, Note_on_c, 0, 59, 0
4, 264000, Note_on_c, 0, 59, 54
4, 264000, Note_on_c, 0, 62, 54
4, 264960, Note_on_c, 0, 62, 0
4, 264960, Note_on_c, 0, 59, 0
4, 265440, Note_on_c, 0, 59, 54
4, 265440, Note_on_c, 0, 62, 54
4, 266400, Note_on_c, 0, 62, 0
4, 266400, Note_on_c, 0, 59, 0
4, 266880, Note_on_c, 0, 59, 54
4, 266880, Note_on_c, 0, 62, 54
4, 267840, Note_on_c, 0, 62, 0
4, 267840, Note_on_c, 0, 59, 0
4, 268320, Note_on_c, 0, 57, 54
4, 268320, Note_on_c, 0, 59, 54
4, 268320, Note_on_c, 0, 62, 54
4, 269280, Note_on_c, 0, 62, 0
4, 269280, Note_on_c, 0, 59, 0
4, 269280, Note_on_c, 0, 57, 0
4, 269760, Note_on_c, 0, 59, 54
4, 269760, Note_on_c, 0, 62, 54
4, 269760, Note_on_c, 0, 64, 54
4, 270720, Note_on_c, 0, 64, 0
4, 270720, Note_on_c, 0, 62, 0
4, 270720, Note_on_c, 0, 59, 0
4, 270960, Note_on_c, 0, 52, 67
4, 271200, Note_on_c, 0, 52, 0
4, 271200, Note_on_c, 0, 54, 67
4, 271440, Note_on_c, 0, 54, 0
4, 271440, Note_on_c, 0, 56, 67
4, 271680, Note_on_c, 0, 56, 0
4, 271680, Note_on_c, 0, 57, 67
4, 271920, Note_on_c, 0, 57, 0
4, 271920, Note_on_c, 0, 59, 67
4, 272160, Note_on_c, 0, 59, 0
4, 272160, Note_on_c, 0, 57, 67
4, 272256, Note_on_c, 0, 57, 0
4, 272640, Note_on_c, 0, 52, 67
4, 272736, Note_on_c, 0, 52, 0
4, 273120, Note_on_c, 0, 45, 67
4, 273216, Note_on_c, 0, 45, 0
4, 273840, Note_on_c, 0, 52, 67
4, 274080, Note_on_c, 0, 52, 0
4, 274080, Note_on_c, 0, 54, 67
4, 274320, Note_on_c, 0, 54, 0
4, 274320, Note_on_c, 0, 56, 67
4, 274560, Note_on_c, 0, 56, 0
4, 274560, Note_on_c, 0, 57, 67
4, 274800, Note_on_c, 0, 57, 0
4, 274800, Note_on_c, 0, 59, 67
4, 275040, Note_on_c, 0, 59, 0
4, 275040, Note_on_c, 0, 57, 67
4, 275136, Note_on_c, 0, 57, 0
4, 275520, Note_on_c, 0, 52, 67
4, 275616, Note_on_c, 0, 52, 0
4, 276000, Note_on_c, 0, 45, 67
4, 276096, Note_on_c, 0, 45, 0
4, 276720, Note_on_c, 0, 60, 67
4, 276960, Note_on_c, 0, 60, 0
4, 276960, Note_on_c, 0, 61, 67
4, 277920, Note_on_c, 0, 61, 0
4, 278160, Note_on_c, 0, 60, 67
4, 278400, Note_on_c, 0, 60, 0
4, 278400, Note_on_c, 0, 61, 67
4, 279360, Note_on_c, 0, 61, 0
4, 279600, Note_on_c, 0, 63, 67
4, 279840, Note_on_c, 0, 63, 0
4, 279840, Note_on_c, 0, 64, 67
4, 280800, Note_on_c, 0, 64, 0
4, 281040, Note_on_c, 0, 65, 67
4, 281280, Note_on_c, 0, 65, 0
4, 281280, Note_on_c, 0, 66, 67
4, 282240, Note_on_c, 0, 66, 0
4, 282480, Note_on_c, 0, 53, 67
4, 282720, Note_on_c, 0, 53, 0
4, 282720, Note_on_c, 0, 54, 67
4, 282960, Note_on_c, 0, 54, 0
4, 282960, Note_on_c, 0, 56, 67
4, 283200, Note_on_c, 0, 56, 0
4, 283200, Note_on_c, 0, 57, 67
4, 283440, Note_on_c, 0, 57, 0
4, 283440, Note_on_c, 0, 59, 67
4, 283680, Note_on_c, 0, 59, 0
4, 283680, Note_on_c, 0, 60, 67
4, 285120, Note_on_c, 0, 60, 0
4, 285360, Note_on_c, 0, 56, 80
4, 285600, Note_on_c, 0, 56, 0
4, 285600, Note_on_c, 0, 57, 80
4, 285840, Note_on_c, 0, 57, 0
4, 285840, Note_on_c, 0, 59, 80
4, 286080, Note_on_c, 0, 59, 0
4, 286080, Note_on_c, 0, 61, 80
4, 286320, Note_on_c, 0, 61, 0
4, 286320, Note_on_c, 0, 62, 80
4, 286560, Note_on_c, 0, 62, 0
4, 286560, Note_on_c, 0, 64, 80
4, 288000, Note_on_c, 0, 64, 0
4, 288240, Note_on_c, 0, 58, 80
4, 288480, Note_on_c, 0, 58, 0
4, 288480, Note_on_c, 0, 59, 80
4, 288720, Note_on_c, 0, 59, 0
4, 288720, Note_on_c, 0, 61, 80
4, 288960, Note_on_c, 0, 61, 0
4, 288960, Note_on_c, 0, 62, 80
4, 289200, Note_on_c, 0, 62, 0
4, 289200, Note_on_c, 0, 59, 80
4, 289440, Note_on_c, 0, 59, 0
4, 289680, Note_on_c, 0, 58, 80
4, 289920, Note_on_c, 0, 58, 0
4, 289920, Note_on_c, 0, 59, 80
4, 290160, Note_on_c, 0, 59, 0
4, 290160, Note_on_c, 0, 61, 80
4, 290400, Note_on_c, 0, 61, 0
4, 290400, Note_on_c, 0, 62, 80
4, 290640, Note_on_c, 0, 62, 0
4, 290640, Note_on_c, 0, 59, 80
4, 290880, Note_on_c, 0, 59, 0
4, 291120, Note_on_c, 0, 58, 80
4, 291360, Note_on_c, 0, 58, 0
4, 291360, Note_on_c, 0, 59, 80
4, 291600, Note_on_c, 0, 59, 0
4, 291600, Note_on_c, 0, 61, 80
4, 291840, Note_on_c, 0, 61, 0
4, 291840, Note_on_c, 0, 62, 80
4, 292080, Note_on_c, 0, 62, 0
4, 292080, Note_on_c, 0, 59, 80
4, 292320, Note_on_c, 0, 59, 0
4, 292560, Note_on_c, 0, 60, 80
4, 292800, Note_on_c, 0, 60, 0
4, 292800, Note_on_c, 0, 61, 80
4, 293280, Note_on_c, 0, 61, 0
4, 293280, Note_on_c, 0, 64, 80
4, 293760, Note_on_c, 0, 64, 0
4, 294000, Note_on_c, 0, 52, 80
4, 294240, Note_on_c, 0, 52, 0
4, 294240, Note_on_c, 0, 53, 80
4, 294240, Note_on_c, 0, 59, 80
4, 294240, Note_on_c, 0, 62, 80
4, 295200, Note_on_c, 0, 62, 0
4, 295200, Note_on_c, 0, 59, 0
4, 295200, Note_on_c, 0, 53, 0
4, 295440, Note_on_c, 0, 53, 80
4, 295680, Note_on_c, 0, 53, 0
4, 295680, Note_on_c, 0, 54, 80
4, 295680, Note_on_c, 0, 57, 80
4, 295680, Note_on_c, 0, 61, 80
4, 296640, Note_on_c, 0, 61, 0
4, 296640, Note_on_c, 0, 57, 0
4, 296640, Note_on_c, 0, 54, 0
4, 296880, Note_on_c, 0, 54, 67
4, 297120, Note_on_c, 0, 54, 0
4, 297120, Note_on_c, 0, 56, 67
4, 297120, Note_on_c, 0, 59, 67
4, 297120, Note_on_c, 0, 62, 67
4, 298080, Note_on_c, 0, 62, 0
4, 298080, Note_on_c, 0, 59, 0
4, 298080, Note_on_c, 0, 56, 0
4, 298320, Note_on_c, 0, 56, 67
4, 298560, Note_on_c, 0, 56, 0
4, 298560, Note_on_c, 0, 57, 67
4, 298560, Note_on_c, 0, 61, 67
4, 299520, Note_on_c, 0, 61, 0
4, 299520, Note_on_c, 0, 57, 0
4, 300000, Note_on_c, 0, 57, 67
4, 300000, Note_on_c, 0, 62, 67
4, 300960, Note_on_c, 0, 62, 0
4, 300960, Note_on_c, 0, 57, 0
4, 301440, Note_on_c, 0, 57, 54
4, 301440, Note_on_c, 0, 61, 54
4, 302400, Note_on_c, 0, 61, 0
4, 302400, Note_on_c, 0, 57, 0
4, 302400, Note_on_c, 0, 66, 54
4, 303120, Note_on_c, 0, 66, 0
4, 303120, Note_on_c, 0, 64, 54
4, 303360, Note_on_c, 0, 64, 0
4, 303360, Note_on_c, 0, 62, 54
4, 303600, Note_on_c, 0, 62, 0
4, 303600, Note_on_c, 0, 59, 54
4, 303840, Note_on_c, 0, 59, 0
4, 303840, Note_on_c, 0, 57, 54
4, 303840, Note_on_c, 0, 61, 54
4, 303840, Note_on_c, 0, 64, 54
4, 304080, Note_on_c, 0, 64, 0
4, 304080, Note_on_c, 0, 61, 0
4, 304080, Note_on_c, 0, 57, 0
4, 304320, Note_on_c, 0, 33, 54
4, 304320, Note_on_c, 0, 45, 54
4, 304800, Note_on_c, 0, 45, 0
4, 304800, Note_on_c, 0, 33, 0
4, 304800, End_track
5, 0, Start_track
5, 0, Title_t, "Grand Piano"
5, 0, Program_c, 0, 0
5, 0, Control_c, 0, 7, 115
5, 0, Control_c, 0, 10, 47
5, 2880, Note_on_c, 0, 41, 54
5, 2880, Note_on_c, 0, 48, 54
5, 2880, Note_on_c, 0, 53, 54
5, 3120, Note_on_c, 0, 53, 0
5, 3120, Note_on_c, 0, 48, 0
5, 3120, Note_on_c, 0, 41, 0
5, 4320, Note_on_c, 0, 53, 54
5, 5760, Note_on_c, 0, 53, 0
5, 5760, Note_on_c, 0, 53, 54
5, 7200, Note_on_c, 0, 53, 0
5, 7200, Note_on_c, 0, 53, 54
5, 8160, Note_on_c, 0, 53, 0
5, 8640, Note_on_c, 0, 52, 54
5, 9600, Note_on_c, 0, 52, 0
5, 12960, Note_on_c, 0, 36, 54
5, 12960, Note_on_c, 0, 48, 54
5, 13200, Note_on_c, 0, 48, 0
5, 13200, Note_on_c, 0, 36, 0
5, 14400, Note_on_c, 0, 41, 54
5, 14400, Note_on_c, 0, 48, 54
5, 14640, Note_on_c, 0, 48, 0
5, 14640, Note_on_c, 0, 41, 0
5, 15840, Note_on_c, 0, 53, 54
5, 17280, Note_on_c, 0, 53, 0
5, 17280, Note_on_c, 0, 53, 54
5, 18720, Note_on_c, 0, 53, 0
5, 18720, Note_on_c, 0, 53, 54
5, 19680, Note_on_c, 0, 53, 0
5, 20160, Note_on_c, 0, 52, 54
5, 21120, Note_on_c, 0, 52, 0
5, 24480, Note_on_c, 0, 45, 54
5, 25440, Note_on_c, 0, 45, 0
5, 25920, Note_on_c, 0, 50, 54
5, 26880, Note_on_c, 0, 50, 0
5, 27360, Note_on_c, 0, 41, 54
5, 28320, Note_on_c, 0, 41, 0
5, 28800, Note_on_c, 0, 43, 54
5, 29760, Note_on_c, 0, 43, 0
5, 30240, Note_on_c, 0, 55, 54
5, 31200, Note_on_c, 0, 55, 0
5, 31680, Note_on_c, 0, 48, 54
5, 31680, Note_on_c, 0, 55, 54
5, 32640, Note_on_c, 0, 55, 0
5, 32640, Note_on_c, 0, 48, 0
5, 33120, Note_on_c, 0, 48, 54
5, 34080, Note_on_c, 0, 48, 0
5, 34560, Note_on_c, 0, 48, 54
5, 35520, Note_on_c, 0, 48, 0
5, 36000, Note_on_c, 0, 48, 54
5, 36960, Note_on_c, 0, 48, 0
5, 37440, Note_on_c, 0, 48, 54
5, 38400, Note_on_c, 0, 48, 0
5, 38880, Note_on_c, 0, 48, 54
5, 39840, Note_on_c, 0, 48, 0
5, 40320, Note_on_c, 0, 48, 54
5, 41280, Note_on_c, 0, 48, 0
5, 41760, Note_on_c, 0, 48, 54
5, 42720, Note_on_c, 0, 48, 0
5, 43200, Note_on_c, 0, 50, 54
5, 44160, Note_on_c, 0, 50, 0
5, 44640, Note_on_c, 0, 52, 54
5, 45600, Note_on_c, 0, 52, 0
5, 46080, Note_on_c, 0, 41, 54
5, 46080, Note_on_c, 0, 48, 54
5, 46320, Note_on_c, 0, 48, 0
5, 46320, Note_on_c, 0, 41, 0
5, 47520, Note_on_c, 0, 53, 54
5, 48960, Note_on_c, 0, 53, 0
5, 48960, Note_on_c, 0, 53, 54
5, 50400, Note_on_c, 0, 53, 0
5, 50400, Note_on_c, 0, 53, 54
5, 51360, Note_on_c, 0, 53, 0
5, 51840, Note_on_c, 0, 52, 54
5, 52800, Note_on_c, 0, 52, 0
5, 56160, Note_on_c, 0, 36, 54
5, 56160, Note_on_c, 0, 48, 54
5, 56400, Note_on_c, 0, 48, 0
5, 56400, Note_on_c, 0, 36, 0
5, 57600, Note_on_c, 0, 41, 54
5, 57600, Note_on_c, 0, 48, 54
5, 57840, Note_on_c, 0, 48, 0
5, 57840, Note_on_c, 0, 41, 0
5, 59040, Note_on_c, 0, 53, 54
5, 60480, Note_on_c, 0, 53, 0
5, 60480, Note_on_c, 0, 53, 54
5, 61920, Note_on_c, 0, 53, 0
5, 61920, Note_on_c, 0, 53, 54
5, 62880, Note_on_c, 0, 53, 0
5, 63360, Note_on_c, 0, 52, 54
5, 64320, Note_on_c, 0, 52, 0
5, 67680, Note_on_c, 0, 36, 54
5, 67680, Note_on_c, 0, 48, 54
5, 67920, Note_on_c, 0, 48, 0
5, 67920, Note_on_c, 0, 36, 0
5, 69120, Note_on_c, 0, 53, 54
5, 70080, Note_on_c, 0, 53, 0
5, 70560, Note_on_c, 0, 53, 54
5, 71520, Note_on_c, 0, 53, 0
5, 72000, Note_on_c, 0, 53, 54
5, 72960, Note_on_c, 0, 53, 0
5, 73440, Note_on_c, 0, 53, 54
5, 74400, Note_on_c, 0, 53, 0
5, 74880, Note_on_c, 0, 53, 54
5, 75840, Note_on_c, 0, 53, 0
5, 76320, Note_on_c, 0, 53, 54
5, 77280, Note_on_c, 0, 53, 0
5, 77760, Note_on_c, 0, 53, 54
5, 78720, Note_on_c, 0, 53, 0
5, 79680, Note_on_c, 0, 53, 93
5, 79839, Note_on_c, 0, 53, 0
5, 79839, Note_on_c, 0, 53, 93
5, 80000, Note_on_c, 0, 53, 0
5, 80000, Note_on_c, 0, 53, 93
5, 80160, Note_on_c, 0, 53, 0
5, 80160, Note_on_c, 0, 53, 93
5, 80319, Note_on_c, 0, 53, 0
5, 80319, Note_on_c, 0, 53, 93
5, 80480, Note_on_c, 0, 53, 0
5, 80480, Note_on_c, 0, 53, 93
5, 80640, Note_on_c, 0, 53, 0
5, 80640, Note_on_c, 0, 52, 93
5, 80880, Note_on_c, 0, 52, 0
5, 80880, Note_on_c, 0, 52, 93
5, 81120, Note_on_c, 0, 52, 0
5, 81120, Note_on_c, 0, 52, 93
5, 81360, Note_on_c, 0, 52, 0
5, 81360, Note_on_c, 0, 52, 93
5, 81600, Note_on_c, 0, 52, 0
5, 81600, Note_on_c, 0, 52, 93
5, 81840, Note_on_c, 0, 52, 0
5, 81840, Note_on_c, 0, 52, 93
5, 82080, Note_on_c, 0, 52, 0
5, 82080, Note_on_c, 0, 52, 93
5, 82320, Note_on_c, 0, 52, 0
5, 82320, Note_on_c, 0, 52, 93
5, 82560, Note_on_c, 0, 52, 0
5, 82560, Note_on_c, 0, 52, 93
5, 82800, Note_on_c, 0, 52, 0
5, 82800, Note_on_c, 0, 52, 93
5, 83040, Note_on_c, 0, 52, 0
5, 83040, Note_on_c, 0, 52, 93
5, 83280, Note_on_c, 0, 52, 0
5, 83280, Note_on_c, 0, 52, 93
5, 83520, Note_on_c, 0, 52, 0
5, 83520, Note_on_c, 0, 50, 93
5, 84960, Note_on_c, 0, 50, 0
5, 84960, Note_on_c, 0, 51, 93
5, 85200, Note_on_c, 0, 51, 0
5, 85200, Note_on_c, 0, 51, 93
5, 85440, Note_on_c, 0, 51, 0
5, 85440, Note_on_c, 0, 51, 93
5, 85680, Note_on_c, 0, 51, 0
5, 85680, Note_on_c, 0, 51, 93
5, 85920, Note_on_c, 0, 51, 0
5, 85920, Note_on_c, 0, 51, 93
5, 86160, Note_on_c, 0, 51, 0
5, 86160, Note_on_c, 0, 51, 93
5, 86400, Note_on_c, 0, 51, 0
5, 86400, Note_on_c, 0, 52, 93
5, 86640, Note_on_c, 0, 52, 0
5, 86640, Note_on_c, 0, 52, 93
5, 86880, Note_on_c, 0, 52, 0
5, 86880, Note_on_c, 0, 52, 93
5, 87120, Note_on_c, 0, 52, 0
5, 87120, Note_on_c, 0, 52, 93
5, 87360, Note_on_c, 0, 52, 0
5, 87360, Note_on_c, 0, 52, 93
5, 87600, Note_on_c, 0, 52, 0
5, 87600, Note_on_c, 0, 52, 93
5, 87840, Note_on_c, 0, 52, 0
5, 87840, Note_on_c, 0, 52, 93
5, 88080, Note_on_c, 0, 52, 0
5, 88080, Note_on_c, 0, 52, 93
5, 88320, Note_on_c, 0, 52, 0
5, 88320, Note_on_c, 0, 52, 93
5, 88560, Note_on_c, 0, 52, 0
5, 88560, Note_on_c, 0, 52, 93
5, 88800, Note_on_c, 0, 52, 0
5, 88800, Note_on_c, 0, 52, 93
5, 89040, Note_on_c, 0, 52, 0
5, 89040, Note_on_c, 0, 52, 93
5, 89280, Note_on_c, 0, 52, 0
5, 89280, Note_on_c, 0, 50, 106
5, 90720, Note_on_c, 0, 50, 0
5, 90720, Note_on_c, 0, 49, 106
5, 92160, Note_on_c, 0, 49, 0
5, 92160, Note_on_c, 0, 47, 106
5, 93600, Note_on_c, 0, 47, 0
5, 93600, Note_on_c, 0, 49, 106
5, 95040, Note_on_c, 0, 49, 0
5, 95040, Note_on_c, 0, 47, 106
5, 96480, Note_on_c, 0, 47, 0
5, 96480, Note_on_c, 0, 38, 106
5, 97920, Note_on_c, 0, 38, 0
5, 97920, Note_on_c, 0, 42, 106
5, 99360, Note_on_c, 0, 42, 0
5, 99360, Note_on_c, 0, 47, 106
5, 100800, Note_on_c, 0, 47, 0
5, 100800, Note_on_c, 0, 50, 106
5, 102240, Note_on_c, 0, 50, 0
5, 102240, Note_on_c, 0, 50, 106
5, 103680, Note_on_c, 0, 50, 0
5, 103680, Note_on_c, 0, 52, 93
5, 103839, Note_on_c, 0, 52, 0
5, 103839, Note_on_c, 0, 52, 93
5, 104000, Note_on_c, 0, 52, 0
5, 104000, Note_on_c, 0, 52, 93
5, 104160, Note_on_c, 0, 52, 0
5, 104160, Note_on_c, 0, 52, 93
5, 104319, Note_on_c, 0, 52, 0
5, 104319, Note_on_c, 0, 52, 93
5, 104480, Note_on_c, 0, 52, 0
5, 104480, Note_on_c, 0, 52, 93
5, 104640, Note_on_c, 0, 52, 0
5, 104640, Note_on_c, 0, 52, 93
5, 104799, Note_on_c, 0, 52, 0
5, 104799, Note_on_c, 0, 52, 93
5, 104960, Note_on_c, 0, 52, 0
5, 104960, Note_on_c, 0, 52, 93
5, 105120, Note_on_c, 0, 52, 0
5, 105120, Note_on_c, 0, 52, 106
5, 105279, Note_on_c, 0, 52, 0
5, 105279, Note_on_c, 0, 52, 106
5, 105440, Note_on_c, 0, 52, 0
5, 105440, Note_on_c, 0, 52, 106
5, 105600, Note_on_c, 0, 52, 0
5, 105600, Note_on_c, 0, 52, 106
5, 105759, Note_on_c, 0, 52, 0
5, 105759, Note_on_c, 0, 52, 106
5, 105920, Note_on_c, 0, 52, 0
5, 105920, Note_on_c, 0, 52, 106
5, 106080, Note_on_c, 0, 52, 0
5, 106080, Note_on_c, 0, 52, 106
5, 106239, Note_on_c, 0, 52, 0
5, 106239, Note_on_c, 0, 52, 106
5, 106400, Note_on_c, 0, 52, 0
5, 106400, Note_on_c, 0, 52, 106
5, 106560, Note_on_c, 0, 52, 0
5, 106560, Note_on_c, 0, 52, 106
5, 108000, Note_on_c, 0, 52, 0
5, 108000, Note_on_c, 0, 51, 106
5, 108159, Note_on_c, 0, 51, 0
5, 108159, Note_on_c, 0, 51, 106
5, 108320, Note_on_c, 0, 51, 0
5, 108320, Note_on_c, 0, 51, 106
5, 108480, Note_on_c, 0, 51, 0
5, 108480, Note_on_c, 0, 51, 106
5, 108639, Note_on_c, 0, 51, 0
5, 108639, Note_on_c, 0, 51, 106
5, 108800, Note_on_c, 0, 51, 0
5, 108800, Note_on_c, 0, 51, 106
5, 108960, Note_on_c, 0, 51, 0
5, 108960, Note_on_c, 0, 51, 106
5, 109119, Note_on_c, 0, 51, 0
5, 109119, Note_on_c, 0, 51, 106
5, 109280, Note_on_c, 0, 51, 0
5, 109280, Note_on_c, 0, 51, 106
5, 109440, Note_on_c, 0, 51, 0
5, 109440, Note_on_c, 0, 52, 93
5, 109599, Note_on_c, 0, 52, 0
5, 109599, Note_on_c, 0, 52, 93
5, 109760, Note_on_c, 0, 52, 0
5, 109760, Note_on_c, 0, 52, 93
5, 109920, Note_on_c, 0, 52, 0
5, 109920, Note_on_c, 0, 52, 93
5, 110079, Note_on_c, 0, 52, 0
5, 110079, Note_on_c, 0, 52, 93
5, 110240, Note_on_c, 0, 52, 0
5, 110240, Note_on_c, 0, 52, 93
5, 110400, Note_on_c, 0, 52, 0
5, 110400, Note_on_c, 0, 52, 93
5, 110559, Note_on_c, 0, 52, 0
5, 110559, Note_on_c, 0, 52, 93
5, 110720, Note_on_c, 0, 52, 0
5, 110720, Note_on_c, 0, 52, 93
5, 110880, Note_on_c, 0, 52, 0
5, 110880, Note_on_c, 0, 52, 106
5, 111039, Note_on_c, 0, 52, 0
5, 111039, Note_on_c, 0, 52, 106
5, 111200, Note_on_c, 0, 52, 0
5, 111200, Note_on_c, 0, 52, 106
5, 111360, Note_on_c, 0, 52, 0
5, 111360, Note_on_c, 0, 52, 106
5, 111519, Note_on_c, 0, 52, 0
5, 111519, Note_on_c, 0, 52, 106
5, 111680, Note_on_c, 0, 52, 0
5, 111680, Note_on_c, 0, 52, 106
5, 111840, Note_on_c, 0, 52, 0
5, 111840, Note_on_c, 0, 52, 106
5, 111999, Note_on_c, 0, 52, 0
5, 111999, Note_on_c, 0, 52, 106
5, 112160, Note_on_c, 0, 52, 0
5, 112160, Note_on_c, 0, 52, 106
5, 112320, Note_on_c, 0, 52, 0
5, 112320, Note_on_c, 0, 50, 106
5, 113760, Note_on_c, 0, 50, 0
5, 113760, Note_on_c, 0, 49, 106
5, 115200, Note_on_c, 0, 49, 0
5, 115200, Note_on_c, 0, 47, 106
5, 116640, Note_on_c, 0, 47, 0
5, 116640, Note_on_c, 0, 49, 106
5, 118080, Note_on_c, 0, 49, 0
5, 118080, Note_on_c, 0, 47, 106
5, 119520, Note_on_c, 0, 47, 0
5, 119520, Note_on_c, 0, 38, 106
5, 120960, Note_on_c, 0, 38, 0
5, 120960, Note_on_c, 0, 42, 106
5, 122400, Note_on_c, 0, 42, 0
5, 122400, Note_on_c, 0, 47, 106
5, 123840, Note_on_c, 0, 47, 0
5, 123840, Note_on_c, 0, 52, 106
5, 124800, Note_on_c, 0, 52, 0
5, 124800, Note_on_c, 0, 40, 106
5, 125280, Note_on_c, 0, 40, 0
5, 125280, Note_on_c, 0, 45, 106
5, 129600, Note_on_c, 0, 45, 0
5, 129600, Note_on_c, 0, 50, 106
5, 130080, Note_on_c, 0, 50, 0
5, 130080, Note_on_c, 0, 47, 106
5, 130560, Note_on_c, 0, 47, 0
5, 130560, Note_on_c, 0, 52, 106
5, 131040, Note_on_c, 0, 52, 0
5, 134400, Note_on_c, 0, 45, 106
5, 136800, Note_on_c, 0, 45, 0
5, 162240, Note_on_c, 0, 45, 54
5, 162240, Note_on_c, 0, 52, 54
5, 162336, Note_on_c, 0, 52, 0
5, 162336, Note_on_c, 0, 45, 0
5, 165120, Note_on_c, 0, 45, 54
5, 165120, Note_on_c, 0, 52, 54
5, 165216, Note_on_c, 0, 52, 0
5, 165216, Note_on_c, 0, 45, 0
5, 166560, Note_on_c, 0, 45, 54
5, 166560, Note_on_c, 0, 52, 54
5, 166656, Note_on_c, 0, 52, 0
5, 166656, Note_on_c, 0, 45, 0
5, 168000, Note_on_c, 0, 45, 54
5, 168000, Note_on_c, 0, 52, 54
5, 168096, Note_on_c, 0, 52, 0
5, 168096, Note_on_c, 0, 45, 0
5, 173760, Note_on_c, 0, 47, 54
5, 173760, Note_on_c, 0, 54, 54
5, 173856, Note_on_c, 0, 54, 0
5, 173856, Note_on_c, 0, 47, 0
5, 176640, Note_on_c, 0, 47, 54
5, 176640, Note_on_c, 0, 54, 54
5, 176736, Note_on_c, 0, 54, 0
5, 176736, Note_on_c, 0, 47, 0
5, 178080, Note_on_c, 0, 47, 54
5, 178080, Note_on_c, 0, 54, 54
5, 178176, Note_on_c, 0, 54, 0
5, 178176, Note_on_c, 0, 47, 0
5, 179520, Note_on_c, 0, 47, 54
5, 179520, Note_on_c, 0, 54, 54
5, 179616, Note_on_c, 0, 54, 0
5, 179616, Note_on_c, 0, 47, 0
5, 180960, Note_on_c, 0, 45, 54
5, 180960, Note_on_c, 0, 53, 54
5, 181056, Note_on_c, 0, 53, 0
5, 181056, Note_on_c, 0, 45, 0
5, 182400, Note_on_c, 0, 44, 54
5, 182400, Note_on_c, 0, 52, 54
5, 182496, Note_on_c, 0, 52, 0
5, 182496, Note_on_c, 0, 44, 0
5, 189120, Note_on_c, 0, 57, 54
5, 189600, Note_on_c, 0, 57, 0
5, 189600, Note_on_c, 0, 45, 54
5, 190080, Note_on_c, 0, 45, 0
5, 190560, Note_on_c, 0, 57, 54
5, 191040, Note_on_c, 0, 57, 0
5, 191040, Note_on_c, 0, 45, 54
5, 191520, Note_on_c, 0, 45, 0
5, 192000, Note_on_c, 0, 61, 54
5, 192480, Note_on_c, 0, 61, 0
5, 192480, Note_on_c, 0, 49, 54
5, 192960, Note_on_c, 0, 49, 0
5, 193440, Note_on_c, 0, 62, 54
5, 193920, Note_on_c, 0, 62, 0
5, 193920, Note_on_c, 0, 50, 54
5, 194400, Note_on_c, 0, 50, 0
5, 200640, Note_on_c, 0, 59, 54
5, 200736, Note_on_c, 0, 59, 0
5, 201120, Note_on_c, 0, 47, 54
5, 201216, Note_on_c, 0, 47, 0
5, 202080, Note_on_c, 0, 59, 54
5, 202176, Note_on_c, 0, 59, 0
5, 202560, Note_on_c, 0, 47, 54
5, 202656, Note_on_c, 0, 47, 0
5, 203520, Note_on_c, 0, 59, 54
5, 203616, Note_on_c, 0, 59, 0
5, 204000, Note_on_c, 0, 47, 54
5, 204096, Note_on_c, 0, 47, 0
5, 204960, Note_on_c, 0, 52, 54
5, 205056, Note_on_c, 0, 52, 0
5, 205440, Note_on_c, 0, 40, 54
5, 205536, Note_on_c, 0, 40, 0
5, 250080, Note_on_c, 0, 45, 54
5, 250080, Note_on_c, 0, 52, 54
5, 250560, Note_on_c, 0, 52, 0
5, 250560, Note_on_c, 0, 45, 0
5, 252960, Note_on_c, 0, 45, 54
5, 252960, Note_on_c, 0, 52, 54
5, 253440, Note_on_c, 0, 52, 0
5, 253440, Note_on_c, 0, 45, 0
5, 254400, Note_on_c, 0, 45, 54
5, 254400, Note_on_c, 0, 52, 54
5, 254880, Note_on_c, 0, 52, 0
5, 254880, Note_on_c, 0, 45, 0
5, 255840, Note_on_c, 0, 45, 54
5, 255840, Note_on_c, 0, 52, 54
5, 256320, Note_on_c, 0, 52, 0
5, 256320, Note_on_c, 0, 45, 0
5, 261600, Note_on_c, 0, 47, 54
5, 261600, Note_on_c, 0, 54, 54
5, 261696, Note_on_c, 0, 54, 0
5, 261696, Note_on_c, 0, 47, 0
5, 264480, Note_on_c, 0, 47, 54
5, 264480, Note_on_c, 0, 54, 54
5, 264576, Note_on_c, 0, 54, 0
5, 264576, Note_on_c, 0, 47, 0
5, 265920, Note_on_c, 0, 47, 54
5, 265920, Note_on_c, 0, 54, 54
5, 266016, Note_on_c, 0, 54, 0
5, 266016, Note_on_c, 0, 47, 0
5, 267360, Note_on_c, 0, 47, 54
5, 267360, Note_on_c, 0, 54, 54
5, 267456, Note_on_c, 0, 54, 0
5, 267456, Note_on_c, 0, 47, 0
5, 268800, Note_on_c, 0, 45, 54
5, 268800, Note_on_c, 0, 53, 54
5, 268896, Note_on_c, 0, 53, 0
5, 268896, Note_on_c, 0, 45, 0
5, 270240, Note_on_c, 0, 44, 54
5, 270240, Note_on_c, 0, 52, 54
5, 270336, Note_on_c, 0, 52, 0
5, 270336, Note_on_c, 0, 44, 0
5, 276960, Note_on_c, 0, 57, 54
5, 277056, Note_on_c, 0, 57, 0
5, 277440, Note_on_c, 0, 45, 54
5, 277536, Note_on_c, 0, 45, 0
5, 278400, Note_on_c, 0, 57, 54
5, 278496, Note_on_c, 0, 57, 0
5, 278880, Note_on_c, 0, 45, 54
5, 278976, Note_on_c, 0, 45, 0
5, 279840, Note_on_c, 0, 61, 54
5, 279936, Note_on_c, 0, 61, 0
5, 280320, Note_on_c, 0, 49, 54
5, 280416, Note_on_c, 0, 49, 0
5, 281280, Note_on_c, 0, 62, 54
5, 281376, Note_on_c, 0, 62, 0
5, 281760, Note_on_c, 0, 50, 54
5, 281856, Note_on_c, 0, 50, 0
5, 282720, Note_on_c, 0, 50, 67
5, 283680, Note_on_c, 0, 50, 0
5, 283680, Note_on_c, 0, 51, 67
5, 283680, Note_on_c, 0, 54, 67
5, 284160, Note_on_c, 0, 54, 0
5, 284160, Note_on_c, 0, 51, 0
5, 284160, Note_on_c, 0, 57, 67
5, 284256, Note_on_c, 0, 57, 0
5, 284640, Note_on_c, 0, 51, 67
5, 284736, Note_on_c, 0, 51, 0
5, 285600, Note_on_c, 0, 52, 80
5, 285600, Note_on_c, 0, 57, 80
5, 286560, Note_on_c, 0, 57, 0
5, 286560, Note_on_c, 0, 52, 0
5, 286560, Note_on_c, 0, 52, 80
5, 286560, Note_on_c, 0, 57, 80
5, 287040, Note_on_c, 0, 57, 0
5, 287040, Note_on_c, 0, 52, 0
5, 287040, Note_on_c, 0, 57, 80
5, 287520, Note_on_c, 0, 57, 0
5, 287520, Note_on_c, 0, 52, 80
5, 288000, Note_on_c, 0, 52, 0
5, 288480, Note_on_c, 0, 52, 106
5, 288480, Note_on_c, 0, 56, 106
5, 289440, Note_on_c, 0, 56, 0
5, 289440, Note_on_c, 0, 52, 0
5, 289920, Note_on_c, 0, 54, 106
5, 289920, Note_on_c, 0, 57, 106
5, 290880, Note_on_c, 0, 57, 0
5, 290880, Note_on_c, 0, 54, 0
5, 291360, Note_on_c, 0, 56, 106
5, 291360, Note_on_c, 0, 59, 106
5, 292320, Note_on_c, 0, 59, 0
5, 292320, Note_on_c, 0, 56, 0
5, 292800, Note_on_c, 0, 57, 80
5, 293280, Note_on_c, 0, 57, 0
5, 293280, Note_on_c, 0, 57, 80
5, 293760, Note_on_c, 0, 57, 0
5, 294720, Note_on_c, 0, 45, 80
5, 295200, Note_on_c, 0, 45, 0
5, 296160, Note_on_c, 0, 45, 80
5, 296256, Note_on_c, 0, 45, 0
5, 297600, Note_on_c, 0, 45, 67
5, 297696, Note_on_c, 0, 45, 0
5, 299040, Note_on_c, 0, 45, 67
5, 299136, Note_on_c, 0, 45, 0
5, 300480, Note_on_c, 0, 45, 67
5, 300576, Note_on_c, 0, 45, 0
5, 301920, Note_on_c, 0, 45, 54
5, 302016, Note_on_c, 0, 45, 0
5, 302880, Note_on_c, 0, 57, 54
5, 302880, Note_on_c, 0, 59, 54
5, 303840, Note_on_c, 0, 59, 0
5, 303840, Note_on_c, 0, 57, 0
5, 303840, End_track
0, 0, End_of_file
