0, 0, Header, 1, 5, 480
1, 0, Start_track
1, 0, Title_t, "tchaikovsky sleeping beauty act0 3a pas de six"
1, 0, Copyright_t, "Adaptation for Disklavier pianos, by: Robert C. Kuhmann (c) 2012."
1, 0, Text_t, "Seq. (c) by: Segundo G. Yogore,  2006\012"
1, 0, Time_signature, 4, 2, 24, 8
1, 0, Key_signature, 3, "major"
1, 0, Tempo, 1000000
1, 13440, Time_signature, 6, 2, 24, 8
1, 16320, Time_signature, 4, 2, 24, 8
1, 16320, Key_signature, -2, "major"
1, 16320, Tempo, 750000
1, 45120, Time_signature, 6, 2, 24, 8
1, 48000, Time_signature, 4, 2, 24, 8
1, 119040, Time_signature, 1, 3, 12, 8
1, 119280, Time_signature, 6, 2, 24, 8
1, 125040, Time_signature, 2, 2, 24, 8
1, 125040, Tempo, 400000
1, 152880, Time_signature, 8, 2, 24, 8
1, 152880, End_track
2, 0, Start_track
2, 0, Title_t, "Grand Piano"
2, 0, Program_c, 0, 0
2, 0, Control_c, 0, 7, 115
2, 0, Control_c, 0, 10, 86
2, 0, Note_on_c, 0, 69, 102
2, 0, Note_on_c, 0, 73, 102
2, 0, Note_on_c, 0, 78, 102
2, 0, Note_on_c, 0, 81, 102
2, 1200, Note_on_c, 0, 81, 0
2, 1200, Note_on_c, 0, 69, 0
2, 1200, Note_on_c, 0, 73, 0
2, 1200, Note_on_c, 0, 78, 0
2, 1200, Note_on_c, 0, 69, 102
2, 1200, Note_on_c, 0, 73, 102
2, 1200, Note_on_c, 0, 78, 102
2, 1200, Note_on_c, 0, 81, 102
2, 1440, Note_on_c, 0, 81, 0
2, 1440, Note_on_c, 0, 69, 0
2, 1440, Note_on_c, 0, 73, 0
2, 1440, Note_on_c, 0, 78, 0
2, 1440, Note_on_c, 0, 68, 102
2, 1440, Note_on_c, 0, 73, 102
2, 1440, Note_on_c, 0, 78, 102
2, 1440, Note_on_c, 0, 80, 102
2, 1680, Note_on_c, 0, 80, 0
2, 1680, Note_on_c, 0, 68, 0
2, 1680, Note_on_c, 0, 73, 0
2, 1680, Note_on_c, 0, 78, 0
2, 1680, Note_on_c, 0, 66, 102
2, 1680, Note_on_c, 0, 73, 102
2, 1680, Note_on_c, 0, 78, 102
2, 1920, Note_on_c, 0, 78, 0
2, 1920, Note_on_c, 0, 73, 0
2, 1920, Note_on_c, 0, 66, 0
2, 1920, Note_on_c, 0, 64, 102
2, 1920, Note_on_c, 0, 66, 102
2, 1920, Note_on_c, 0, 69, 102
2, 1920, Note_on_c, 0, 76, 102
2, 2400, Note_on_c, 0, 76, 0
2, 2400, Note_on_c, 0, 64, 0
2, 2400, Note_on_c, 0, 66, 0
2, 2400, Note_on_c, 0, 69, 0
2, 2400, Note_on_c, 0, 63, 102
2, 2400, Note_on_c, 0, 66, 102
2, 2400, Note_on_c, 0, 71, 102
2, 2400, Note_on_c, 0, 75, 102
2, 3840, Note_on_c, 0, 75, 0
2, 3840, Note_on_c, 0, 63, 0
2, 3840, Note_on_c, 0, 66, 0
2, 3840, Note_on_c, 0, 71, 0
2, 3840, Note_on_c, 0, 67, 89
2, 3840, Note_on_c, 0, 71, 89
2, 3840, Note_on_c, 0, 76, 89
2, 3840, Note_on_c, 0, 79, 89
2, 5040, Note_on_c, 0, 79, 0
2, 5040, Note_on_c, 0, 67, 0
2, 5040, Note_on_c, 0, 71, 0
2, 5040, Note_on_c, 0, 76, 0
2, 5040, Note_on_c, 0, 67, 89
2, 5040, Note_on_c, 0, 71, 89
2, 5040, Note_on_c, 0, 76, 89
2, 5040, Note_on_c, 0, 79, 89
2, 5280, Note_on_c, 0, 79, 0
2, 5280, Note_on_c, 0, 67, 0
2, 5280, Note_on_c, 0, 71, 0
2, 5280, Note_on_c, 0, 76, 0
2, 5280, Note_on_c, 0, 66, 89
2, 5280, Note_on_c, 0, 73, 89
2, 5280, Note_on_c, 0, 76, 89
2, 5280, Note_on_c, 0, 78, 89
2, 5520, Note_on_c, 0, 78, 0
2, 5520, Note_on_c, 0, 66, 0
2, 5520, Note_on_c, 0, 73, 0
2, 5520, Note_on_c, 0, 76, 0
2, 5520, Note_on_c, 0, 64, 89
2, 5520, Note_on_c, 0, 71, 89
2, 5520, Note_on_c, 0, 76, 89
2, 5760, Note_on_c, 0, 76, 0
2, 5760, Note_on_c, 0, 71, 0
2, 5760, Note_on_c, 0, 64, 0
2, 5760, Note_on_c, 0, 62, 89
2, 5760, Note_on_c, 0, 64, 89
2, 5760, Note_on_c, 0, 67, 89
2, 5760, Note_on_c, 0, 74, 89
2, 6240, Note_on_c, 0, 74, 0
2, 6240, Note_on_c, 0, 62, 0
2, 6240, Note_on_c, 0, 64, 0
2, 6240, Note_on_c, 0, 67, 0
2, 6240, Note_on_c, 0, 61, 89
2, 6240, Note_on_c, 0, 64, 89
2, 6240, Note_on_c, 0, 67, 89
2, 6240, Note_on_c, 0, 73, 89
2, 7200, Note_on_c, 0, 73, 0
2, 7200, Note_on_c, 0, 61, 0
2, 7200, Note_on_c, 0, 64, 0
2, 7200, Note_on_c, 0, 67, 0
2, 7200, Note_on_c, 0, 64, 89
2, 7200, Note_on_c, 0, 69, 89
2, 7200, Note_on_c, 0, 73, 89
2, 7200, Note_on_c, 0, 76, 89
2, 7680, Note_on_c, 0, 76, 0
2, 7680, Note_on_c, 0, 64, 0
2, 7680, Note_on_c, 0, 69, 0
2, 7680, Note_on_c, 0, 73, 0
2, 7680, Note_on_c, 0, 62, 89
2, 7680, Note_on_c, 0, 64, 89
2, 7680, Note_on_c, 0, 67, 89
2, 7680, Note_on_c, 0, 74, 89
2, 8160, Note_on_c, 0, 74, 0
2, 8160, Note_on_c, 0, 62, 0
2, 8160, Note_on_c, 0, 64, 0
2, 8160, Note_on_c, 0, 67, 0
2, 8160, Control_c, 0, 64, 127
2, 8160, Note_on_c, 0, 61, 89
2, 8160, Note_on_c, 0, 64, 89
2, 8160, Note_on_c, 0, 67, 89
2, 8160, Note_on_c, 0, 73, 89
2, 9600, Note_on_c, 0, 73, 0
2, 9600, Note_on_c, 0, 61, 0
2, 9600, Note_on_c, 0, 64, 0
2, 9600, Note_on_c, 0, 67, 0
2, 12000, Control_c, 0, 64, 0
2, 12480, Note_on_c, 0, 65, 102
2, 12480, Note_on_c, 0, 77, 102
2, 13599, Note_on_c, 0, 77, 0
2, 13599, Note_on_c, 0, 65, 0
2, 13599, Note_on_c, 0, 65, 102
2, 13599, Note_on_c, 0, 77, 102
2, 13760, Note_on_c, 0, 77, 0
2, 13760, Note_on_c, 0, 65, 0
2, 13760, Note_on_c, 0, 65, 102
2, 13760, Note_on_c, 0, 77, 102
2, 13920, Note_on_c, 0, 77, 0
2, 13920, Note_on_c, 0, 65, 0
2, 13920, Note_on_c, 0, 65, 102
2, 13920, Note_on_c, 0, 77, 102
2, 14340, Note_on_c, 0, 77, 0
2, 14340, Note_on_c, 0, 65, 0
2, 14340, Note_on_c, 0, 65, 102
2, 14340, Note_on_c, 0, 77, 102
2, 14400, Note_on_c, 0, 77, 0
2, 14400, Note_on_c, 0, 65, 0
2, 14400, Note_on_c, 0, 65, 102
2, 14400, Note_on_c, 0, 77, 102
2, 15120, Note_on_c, 0, 77, 0
2, 15120, Note_on_c, 0, 65, 0
2, 16560, Control_c, 0, 64, 127
2, 16560, Note_on_c, 0, 74, 63
2, 16594, Note_on_c, 0, 74, 0
2, 16594, Note_on_c, 0, 70, 63
2, 16628, Note_on_c, 0, 70, 0
2, 16628, Note_on_c, 0, 67, 63
2, 16662, Note_on_c, 0, 67, 0
2, 16662, Note_on_c, 0, 65, 63
2, 16697, Note_on_c, 0, 65, 0
2, 16697, Note_on_c, 0, 62, 63
2, 16731, Note_on_c, 0, 62, 0
2, 16731, Note_on_c, 0, 58, 63
2, 16765, Note_on_c, 0, 58, 0
2, 16765, Note_on_c, 0, 55, 63
2, 16800, Note_on_c, 0, 55, 0
2, 16800, Control_c, 0, 64, 0
2, 16800, Note_on_c, 0, 53, 63
2, 17040, Note_on_c, 0, 53, 0
2, 17520, Control_c, 0, 64, 127
2, 17520, Note_on_c, 0, 74, 63
2, 17554, Note_on_c, 0, 74, 0
2, 17554, Note_on_c, 0, 70, 63
2, 17588, Note_on_c, 0, 70, 0
2, 17588, Note_on_c, 0, 67, 63
2, 17622, Note_on_c, 0, 67, 0
2, 17622, Note_on_c, 0, 65, 63
2, 17657, Note_on_c, 0, 65, 0
2, 17657, Note_on_c, 0, 62, 63
2, 17691, Note_on_c, 0, 62, 0
2, 17691, Note_on_c, 0, 58, 63
2, 17725, Note_on_c, 0, 58, 0
2, 17725, Note_on_c, 0, 55, 63
2, 17760, Note_on_c, 0, 55, 0
2, 17760, Control_c, 0, 64, 0
2, 17760, Note_on_c, 0, 53, 63
2, 18000, Note_on_c, 0, 53, 0
2, 18720, Note_on_c, 0, 74, 89
2, 18960, Note_on_c, 0, 74, 0
2, 18960, Note_on_c, 0, 75, 89
2, 19200, Note_on_c, 0, 75, 0
2, 19200, Note_on_c, 0, 77, 89
2, 19680, Note_on_c, 0, 77, 0
2, 19680, Note_on_c, 0, 72, 89
2, 19920, Note_on_c, 0, 72, 0
2, 19920, Note_on_c, 0, 73, 89
2, 20160, Note_on_c, 0, 73, 0
2, 20160, Note_on_c, 0, 74, 63
2, 20880, Note_on_c, 0, 74, 0
2, 20880, Note_on_c, 0, 70, 63
2, 21120, Note_on_c, 0, 70, 0
2, 21120, Note_on_c, 0, 66, 89
2, 21840, Note_on_c, 0, 66, 0
2, 21840, Note_on_c, 0, 65, 63
2, 22080, Note_on_c, 0, 65, 0
2, 22560, Note_on_c, 0, 74, 89
2, 22800, Note_on_c, 0, 74, 0
2, 22800, Note_on_c, 0, 75, 89
2, 23040, Note_on_c, 0, 75, 0
2, 23040, Note_on_c, 0, 76, 63
2, 23280, Note_on_c, 0, 76, 0
2, 23280, Note_on_c, 0, 77, 63
2, 23520, Note_on_c, 0, 77, 0
2, 23520, Note_on_c, 0, 71, 89
2, 23760, Note_on_c, 0, 71, 0
2, 23760, Note_on_c, 0, 72, 89
2, 24000, Note_on_c, 0, 72, 0
2, 24000, Note_on_c, 0, 73, 63
2, 24240, Note_on_c, 0, 73, 0
2, 24240, Note_on_c, 0, 74, 63
2, 24480, Note_on_c, 0, 74, 0
2, 24480, Note_on_c, 0, 70, 89
2, 24720, Note_on_c, 0, 70, 0
2, 24720, Note_on_c, 0, 67, 89
2, 24960, Note_on_c, 0, 67, 0
2, 24960, Note_on_c, 0, 65, 63
2, 25760, Note_on_c, 0, 65, 0
2, 25760, Note_on_c, 0, 66, 76
2, 25920, Note_on_c, 0, 66, 0
2, 25920, Note_on_c, 0, 69, 102
2, 26400, Note_on_c, 0, 69, 0
2, 26400, Note_on_c, 0, 67, 76
2, 26559, Note_on_c, 0, 67, 0
2, 26720, Note_on_c, 0, 69, 76
2, 26880, Note_on_c, 0, 69, 0
2, 26880, Note_on_c, 0, 72, 102
2, 27360, Note_on_c, 0, 72, 0
2, 27360, Note_on_c, 0, 70, 76
2, 27519, Note_on_c, 0, 70, 0
2, 27680, Note_on_c, 0, 71, 76
2, 27840, Note_on_c, 0, 71, 0
2, 27840, Note_on_c, 0, 74, 76
2, 28080, Note_on_c, 0, 74, 0
2, 28080, Note_on_c, 0, 79, 89
2, 28560, Note_on_c, 0, 79, 0
2, 28560, Note_on_c, 0, 75, 89
2, 28800, Note_on_c, 0, 75, 0
2, 28800, Note_on_c, 0, 72, 89
2, 29760, Note_on_c, 0, 72, 0
2, 29919, Note_on_c, 0, 66, 89
2, 30080, Note_on_c, 0, 66, 0
2, 30080, Note_on_c, 0, 67, 89
2, 30240, Note_on_c, 0, 67, 0
2, 30240, Note_on_c, 0, 71, 76
2, 30399, Note_on_c, 0, 71, 0
2, 30399, Note_on_c, 0, 72, 76
2, 30560, Note_on_c, 0, 72, 0
2, 30560, Note_on_c, 0, 75, 76
2, 30720, Note_on_c, 0, 75, 0
2, 30720, Note_on_c, 0, 81, 89
2, 30840, Note_on_c, 0, 81, 0
2, 30840, Note_on_c, 0, 79, 89
2, 30960, Note_on_c, 0, 79, 0
2, 30960, Note_on_c, 0, 75, 89
2, 31080, Note_on_c, 0, 75, 0
2, 31080, Note_on_c, 0, 72, 89
2, 31200, Note_on_c, 0, 72, 0
2, 31200, Note_on_c, 0, 69, 76
2, 31320, Note_on_c, 0, 69, 0
2, 31320, Note_on_c, 0, 67, 76
2, 31440, Note_on_c, 0, 67, 0
2, 31440, Note_on_c, 0, 63, 63
2, 31560, Note_on_c, 0, 63, 0
2, 31560, Note_on_c, 0, 60, 63
2, 31680, Note_on_c, 0, 60, 0
2, 31680, Note_on_c, 0, 63, 76
2, 32160, Note_on_c, 0, 63, 0
2, 32160, Note_on_c, 0, 64, 76
2, 32640, Note_on_c, 0, 64, 0
2, 32640, Note_on_c, 0, 65, 76
2, 33120, Note_on_c, 0, 65, 0
2, 33240, Note_on_c, 0, 65, 76
2, 33360, Note_on_c, 0, 65, 0
2, 33360, Note_on_c, 0, 69, 76
2, 33480, Note_on_c, 0, 69, 0
2, 33480, Note_on_c, 0, 72, 76
2, 33600, Note_on_c, 0, 72, 0
2, 33600, Note_on_c, 0, 77, 76
2, 33840, Note_on_c, 0, 77, 0
2, 33840, Note_on_c, 0, 75, 76
2, 34080, Note_on_c, 0, 75, 0
2, 34080, Note_on_c, 0, 74, 76
2, 34440, Note_on_c, 0, 74, 0
2, 34440, Note_on_c, 0, 72, 76
2, 34560, Note_on_c, 0, 72, 0
2, 34560, Note_on_c, 0, 70, 76
2, 34800, Note_on_c, 0, 70, 0
2, 34800, Note_on_c, 0, 74, 76
2, 35040, Note_on_c, 0, 74, 0
2, 35040, Note_on_c, 0, 70, 76
2, 35400, Note_on_c, 0, 70, 0
2, 35400, Note_on_c, 0, 67, 76
2, 35520, Note_on_c, 0, 67, 0
2, 35520, Note_on_c, 0, 77, 50
2, 35580, Note_on_c, 0, 77, 0
2, 35580, Note_on_c, 0, 79, 50
2, 35640, Note_on_c, 0, 79, 0
2, 35640, Note_on_c, 0, 77, 50
2, 35700, Note_on_c, 0, 77, 0
2, 35700, Note_on_c, 0, 79, 50
2, 35760, Note_on_c, 0, 79, 0
2, 35760, Note_on_c, 0, 77, 50
2, 35820, Note_on_c, 0, 77, 0
2, 35820, Note_on_c, 0, 79, 50
2, 35880, Note_on_c, 0, 79, 0
2, 35880, Note_on_c, 0, 77, 50
2, 35940, Note_on_c, 0, 77, 0
2, 35940, Note_on_c, 0, 79, 50
2, 36000, Note_on_c, 0, 79, 0
2, 36000, Note_on_c, 0, 77, 50
2, 36060, Note_on_c, 0, 77, 0
2, 36060, Note_on_c, 0, 79, 50
2, 36120, Note_on_c, 0, 79, 0
2, 36120, Note_on_c, 0, 77, 50
2, 36180, Note_on_c, 0, 77, 0
2, 36180, Note_on_c, 0, 79, 50
2, 36240, Note_on_c, 0, 79, 0
2, 36240, Note_on_c, 0, 77, 50
2, 36300, Note_on_c, 0, 77, 0
2, 36300, Note_on_c, 0, 79, 50
2, 36360, Note_on_c, 0, 79, 0
2, 36360, Note_on_c, 0, 77, 50
2, 36420, Note_on_c, 0, 77, 0
2, 36420, Note_on_c, 0, 79, 50
2, 36480, Note_on_c, 0, 79, 0
2, 36480, Note_on_c, 0, 77, 50
2, 36540, Note_on_c, 0, 77, 0
2, 36540, Note_on_c, 0, 79, 50
2, 36600, Note_on_c, 0, 79, 0
2, 36600, Note_on_c, 0, 77, 50
2, 36660, Note_on_c, 0, 77, 0
2, 36660, Note_on_c, 0, 79, 50
2, 36720, Note_on_c, 0, 79, 0
2, 36720, Note_on_c, 0, 77, 50
2, 36780, Note_on_c, 0, 77, 0
2, 36780, Note_on_c, 0, 79, 50
2, 36840, Note_on_c, 0, 79, 0
2, 36840, Note_on_c, 0, 77, 50
2, 36900, Note_on_c, 0, 77, 0
2, 36900, Note_on_c, 0, 79, 50
2, 36960, Note_on_c, 0, 79, 0
2, 36960, Note_on_c, 0, 77, 50
2, 37020, Note_on_c, 0, 77, 0
2, 37020, Note_on_c, 0, 79, 50
2, 37080, Note_on_c, 0, 79, 0
2, 37080, Note_on_c, 0, 77, 50
2, 37140, Note_on_c, 0, 77, 0
2, 37140, Note_on_c, 0, 79, 50
2, 37200, Note_on_c, 0, 79, 0
2, 37200, Note_on_c, 0, 77, 50
2, 37260, Note_on_c, 0, 77, 0
2, 37260, Note_on_c, 0, 79, 50
2, 37320, Note_on_c, 0, 79, 0
2, 37320, Note_on_c, 0, 77, 50
2, 37380, Note_on_c, 0, 77, 0
2, 37380, Note_on_c, 0, 79, 63
2, 37380, Note_on_c, 0, 69, 63
2, 37440, Note_on_c, 0, 69, 0
2, 37440, Note_on_c, 0, 79, 0
2, 37440, Note_on_c, 0, 77, 63
2, 37440, Note_on_c, 0, 89, 63
2, 37680, Note_on_c, 0, 89, 0
2, 37680, Note_on_c, 0, 77, 0
2, 37680, Note_on_c, 0, 75, 63
2, 37680, Note_on_c, 0, 87, 63
2, 37920, Note_on_c, 0, 87, 0
2, 37920, Note_on_c, 0, 75, 0
2, 37920, Note_on_c, 0, 74, 63
2, 37920, Note_on_c, 0, 86, 63
2, 38280, Note_on_c, 0, 86, 0
2, 38280, Note_on_c, 0, 74, 0
2, 38280, Note_on_c, 0, 72, 63
2, 38280, Note_on_c, 0, 84, 63
2, 38400, Note_on_c, 0, 84, 0
2, 38400, Note_on_c, 0, 72, 0
2, 38400, Note_on_c, 0, 70, 63
2, 38400, Note_on_c, 0, 82, 63
2, 38640, Note_on_c, 0, 82, 0
2, 38640, Note_on_c, 0, 70, 0
2, 38640, Note_on_c, 0, 74, 63
2, 38640, Note_on_c, 0, 86, 63
2, 38880, Note_on_c, 0, 86, 0
2, 38880, Note_on_c, 0, 74, 0
2, 38880, Note_on_c, 0, 70, 63
2, 38880, Note_on_c, 0, 82, 63
2, 39240, Note_on_c, 0, 82, 0
2, 39240, Note_on_c, 0, 70, 0
2, 39240, Note_on_c, 0, 67, 63
2, 39240, Note_on_c, 0, 79, 63
2, 39360, Note_on_c, 0, 79, 0
2, 39360, Note_on_c, 0, 67, 0
2, 39360, Note_on_c, 0, 65, 76
2, 39360, Note_on_c, 0, 77, 76
2, 39600, Note_on_c, 0, 77, 0
2, 39600, Note_on_c, 0, 65, 0
2, 39600, Note_on_c, 0, 70, 76
2, 39600, Note_on_c, 0, 82, 76
2, 39840, Note_on_c, 0, 82, 0
2, 39840, Note_on_c, 0, 70, 0
2, 39840, Note_on_c, 0, 65, 76
2, 39840, Note_on_c, 0, 77, 76
2, 40200, Note_on_c, 0, 77, 0
2, 40200, Note_on_c, 0, 65, 0
2, 40200, Note_on_c, 0, 67, 76
2, 40200, Note_on_c, 0, 79, 76
2, 40320, Note_on_c, 0, 79, 0
2, 40320, Note_on_c, 0, 67, 0
2, 40320, Note_on_c, 0, 69, 76
2, 40320, Note_on_c, 0, 81, 76
2, 40560, Note_on_c, 0, 81, 0
2, 40560, Note_on_c, 0, 69, 0
2, 40560, Note_on_c, 0, 70, 76
2, 40560, Note_on_c, 0, 82, 76
2, 40800, Note_on_c, 0, 82, 0
2, 40800, Note_on_c, 0, 70, 0
2, 40800, Note_on_c, 0, 72, 76
2, 40800, Note_on_c, 0, 81, 76
2, 40800, Note_on_c, 0, 84, 76
2, 41040, Note_on_c, 0, 84, 0
2, 41040, Note_on_c, 0, 81, 0
2, 41040, Note_on_c, 0, 72, 0
2, 41040, Note_on_c, 0, 73, 76
2, 41040, Note_on_c, 0, 85, 76
2, 41280, Note_on_c, 0, 85, 0
2, 41280, Note_on_c, 0, 73, 0
2, 41280, Note_on_c, 0, 74, 76
2, 41280, Note_on_c, 0, 80, 76
2, 41280, Note_on_c, 0, 86, 76
2, 41520, Note_on_c, 0, 86, 0
2, 41520, Note_on_c, 0, 80, 0
2, 41520, Note_on_c, 0, 74, 0
2, 41760, Note_on_c, 0, 56, 76
2, 41760, Note_on_c, 0, 62, 76
2, 42000, Note_on_c, 0, 62, 0
2, 42000, Note_on_c, 0, 56, 0
2, 42240, Note_on_c, 0, 58, 76
2, 42360, Note_on_c, 0, 58, 0
2, 42360, Note_on_c, 0, 59, 76
2, 42480, Note_on_c, 0, 59, 0
2, 42480, Note_on_c, 0, 61, 76
2, 42600, Note_on_c, 0, 61, 0
2, 42600, Note_on_c, 0, 62, 76
2, 42720, Note_on_c, 0, 62, 0
2, 42720, Note_on_c, 0, 64, 76
2, 42840, Note_on_c, 0, 64, 0
2, 42840, Note_on_c, 0, 65, 76
2, 42960, Note_on_c, 0, 65, 0
2, 42960, Note_on_c, 0, 67, 76
2, 43080, Note_on_c, 0, 67, 0
2, 43080, Note_on_c, 0, 68, 76
2, 43200, Note_on_c, 0, 68, 0
2, 43200, Note_on_c, 0, 69, 89
2, 43320, Note_on_c, 0, 69, 0
2, 43320, Note_on_c, 0, 70, 89
2, 43440, Note_on_c, 0, 70, 0
2, 43440, Note_on_c, 0, 72, 89
2, 43560, Note_on_c, 0, 72, 0
2, 43560, Note_on_c, 0, 74, 89
2, 43680, Note_on_c, 0, 74, 0
2, 43680, Note_on_c, 0, 72, 89
2, 44280, Note_on_c, 0, 72, 0
2, 44280, Note_on_c, 0, 71, 89
2, 44400, Note_on_c, 0, 71, 0
2, 44400, Note_on_c, 0, 72, 89
2, 44520, Note_on_c, 0, 72, 0
2, 44520, Note_on_c, 0, 75, 89
2, 44640, Note_on_c, 0, 75, 0
2, 44640, Note_on_c, 0, 74, 89
2, 45240, Note_on_c, 0, 74, 0
2, 45240, Note_on_c, 0, 73, 89
2, 45360, Note_on_c, 0, 73, 0
2, 45360, Note_on_c, 0, 74, 89
2, 45480, Note_on_c, 0, 74, 0
2, 45480, Note_on_c, 0, 77, 89
2, 45600, Note_on_c, 0, 77, 0
2, 45600, Note_on_c, 0, 76, 89
2, 45720, Note_on_c, 0, 76, 0
2, 45720, Note_on_c, 0, 74, 89
2, 45840, Note_on_c, 0, 74, 0
2, 45840, Note_on_c, 0, 76, 89
2, 45960, Note_on_c, 0, 76, 0
2, 45960, Note_on_c, 0, 77, 89
2, 46080, Note_on_c, 0, 77, 0
2, 46080, Note_on_c, 0, 78, 89
2, 46160, Note_on_c, 0, 78, 0
2, 46160, Note_on_c, 0, 79, 89
2, 46239, Note_on_c, 0, 79, 0
2, 46239, Note_on_c, 0, 81, 89
2, 46320, Note_on_c, 0, 81, 0
2, 46320, Note_on_c, 0, 82, 76
2, 46400, Note_on_c, 0, 82, 0
2, 46400, Note_on_c, 0, 84, 76
2, 46479, Note_on_c, 0, 84, 0
2, 46479, Note_on_c, 0, 85, 76
2, 46560, Note_on_c, 0, 85, 0
2, 46560, Control_c, 0, 64, 127
2, 46560, Note_on_c, 0, 86, 63
2, 47640, Note_on_c, 0, 86, 0
2, 47640, Note_on_c, 0, 82, 63
2, 47670, Note_on_c, 0, 82, 0
2, 47670, Note_on_c, 0, 79, 63
2, 47700, Note_on_c, 0, 79, 0
2, 47700, Note_on_c, 0, 76, 63
2, 47730, Note_on_c, 0, 76, 0
2, 47730, Note_on_c, 0, 74, 63
2, 47760, Note_on_c, 0, 74, 0
2, 47760, Note_on_c, 0, 70, 63
2, 47790, Note_on_c, 0, 70, 0
2, 47790, Note_on_c, 0, 67, 63
2, 47820, Note_on_c, 0, 67, 0
2, 47820, Note_on_c, 0, 64, 63
2, 47850, Note_on_c, 0, 64, 0
2, 47850, Note_on_c, 0, 58, 63
2, 47880, Note_on_c, 0, 58, 0
2, 47880, Note_on_c, 0, 55, 63
2, 47910, Note_on_c, 0, 55, 0
2, 47910, Note_on_c, 0, 52, 63
2, 47940, Note_on_c, 0, 52, 0
2, 47940, Note_on_c, 0, 48, 63
2, 47970, Note_on_c, 0, 48, 0
2, 47970, Control_c, 0, 64, 0
2, 48000, Note_on_c, 0, 55, 63
2, 48840, Note_on_c, 0, 55, 0
2, 48840, Note_on_c, 0, 57, 63
2, 48900, Note_on_c, 0, 57, 0
2, 48900, Note_on_c, 0, 55, 63
2, 48960, Note_on_c, 0, 55, 0
2, 48960, Note_on_c, 0, 53, 63
2, 49200, Note_on_c, 0, 53, 0
2, 49440, Note_on_c, 0, 65, 63
2, 49440, Note_on_c, 0, 77, 63
2, 49680, Note_on_c, 0, 77, 0
2, 49680, Note_on_c, 0, 65, 0
2, 49680, Note_on_c, 0, 67, 63
2, 49680, Note_on_c, 0, 79, 63
2, 49920, Note_on_c, 0, 79, 0
2, 49920, Note_on_c, 0, 67, 0
2, 49920, Note_on_c, 0, 69, 63
2, 49920, Note_on_c, 0, 81, 63
2, 50400, Note_on_c, 0, 81, 0
2, 50400, Note_on_c, 0, 69, 0
2, 50400, Note_on_c, 0, 73, 63
2, 50640, Note_on_c, 0, 73, 0
2, 50640, Note_on_c, 0, 74, 63
2, 50880, Note_on_c, 0, 74, 0
2, 50880, Note_on_c, 0, 75, 63
2, 51120, Note_on_c, 0, 75, 0
2, 51120, Note_on_c, 0, 64, 63
2, 51120, Note_on_c, 0, 76, 63
2, 51360, Note_on_c, 0, 76, 0
2, 51360, Note_on_c, 0, 64, 0
2, 51360, Note_on_c, 0, 74, 76
2, 51360, Note_on_c, 0, 86, 76
2, 51519, Note_on_c, 0, 86, 0
2, 51519, Note_on_c, 0, 74, 0
2, 51519, Note_on_c, 0, 73, 76
2, 51519, Note_on_c, 0, 85, 76
2, 51680, Note_on_c, 0, 85, 0
2, 51680, Note_on_c, 0, 73, 0
2, 51680, Note_on_c, 0, 71, 76
2, 51680, Note_on_c, 0, 83, 76
2, 51840, Note_on_c, 0, 83, 0
2, 51840, Note_on_c, 0, 71, 0
2, 51840, Note_on_c, 0, 73, 76
2, 51840, Note_on_c, 0, 85, 76
2, 52080, Note_on_c, 0, 85, 0
2, 52080, Note_on_c, 0, 73, 0
2, 52080, Note_on_c, 0, 74, 76
2, 52080, Note_on_c, 0, 86, 76
2, 52320, Note_on_c, 0, 86, 0
2, 52320, Note_on_c, 0, 74, 0
2, 52320, Note_on_c, 0, 76, 76
2, 52320, Note_on_c, 0, 88, 76
2, 52560, Note_on_c, 0, 88, 0
2, 52560, Note_on_c, 0, 76, 0
2, 52560, Note_on_c, 0, 78, 76
2, 52560, Note_on_c, 0, 90, 76
2, 52800, Note_on_c, 0, 90, 0
2, 52800, Note_on_c, 0, 78, 0
2, 52800, Note_on_c, 0, 68, 76
2, 52800, Note_on_c, 0, 80, 76
2, 53040, Note_on_c, 0, 80, 0
2, 53040, Note_on_c, 0, 68, 0
2, 53280, Note_on_c, 0, 66, 63
2, 53280, Note_on_c, 0, 78, 63
2, 53520, Note_on_c, 0, 78, 0
2, 53520, Note_on_c, 0, 66, 0
2, 53520, Note_on_c, 0, 68, 63
2, 53520, Note_on_c, 0, 80, 63
2, 53760, Note_on_c, 0, 80, 0
2, 53760, Note_on_c, 0, 68, 0
2, 53760, Note_on_c, 0, 69, 63
2, 53760, Note_on_c, 0, 81, 63
2, 54240, Note_on_c, 0, 81, 0
2, 54240, Note_on_c, 0, 69, 0
2, 54240, Note_on_c, 0, 73, 89
2, 54480, Note_on_c, 0, 73, 0
2, 54480, Note_on_c, 0, 74, 89
2, 54720, Note_on_c, 0, 74, 0
2, 54720, Note_on_c, 0, 75, 63
2, 54960, Note_on_c, 0, 75, 0
2, 54960, Note_on_c, 0, 64, 63
2, 54960, Note_on_c, 0, 76, 63
2, 55200, Note_on_c, 0, 76, 0
2, 55200, Note_on_c, 0, 64, 0
2, 55200, Note_on_c, 0, 74, 76
2, 55200, Note_on_c, 0, 86, 76
2, 55359, Note_on_c, 0, 86, 0
2, 55359, Note_on_c, 0, 74, 0
2, 55359, Note_on_c, 0, 73, 76
2, 55359, Note_on_c, 0, 85, 76
2, 55520, Note_on_c, 0, 85, 0
2, 55520, Note_on_c, 0, 73, 0
2, 55520, Note_on_c, 0, 71, 76
2, 55520, Note_on_c, 0, 83, 76
2, 55680, Note_on_c, 0, 83, 0
2, 55680, Note_on_c, 0, 71, 0
2, 55680, Note_on_c, 0, 73, 76
2, 55680, Note_on_c, 0, 85, 76
2, 55920, Note_on_c, 0, 85, 0
2, 55920, Note_on_c, 0, 73, 0
2, 55920, Note_on_c, 0, 74, 76
2, 55920, Note_on_c, 0, 86, 76
2, 56160, Note_on_c, 0, 86, 0
2, 56160, Note_on_c, 0, 74, 0
2, 56160, Note_on_c, 0, 76, 76
2, 56160, Note_on_c, 0, 88, 76
2, 56400, Note_on_c, 0, 88, 0
2, 56400, Note_on_c, 0, 76, 0
2, 56400, Note_on_c, 0, 78, 76
2, 56400, Note_on_c, 0, 90, 76
2, 56640, Note_on_c, 0, 90, 0
2, 56640, Note_on_c, 0, 78, 0
2, 56640, Note_on_c, 0, 68, 76
2, 56640, Note_on_c, 0, 80, 76
2, 56880, Note_on_c, 0, 80, 0
2, 56880, Note_on_c, 0, 68, 0
2, 57120, Note_on_c, 0, 66, 63
2, 57120, Note_on_c, 0, 78, 63
2, 57360, Note_on_c, 0, 78, 0
2, 57360, Note_on_c, 0, 66, 0
2, 57360, Note_on_c, 0, 68, 63
2, 57360, Note_on_c, 0, 80, 63
2, 57600, Note_on_c, 0, 80, 0
2, 57600, Note_on_c, 0, 68, 0
2, 57600, Note_on_c, 0, 69, 63
2, 57600, Note_on_c, 0, 81, 63
2, 58080, Note_on_c, 0, 81, 0
2, 58080, Note_on_c, 0, 69, 0
2, 58080, Note_on_c, 0, 72, 89
2, 58320, Note_on_c, 0, 72, 0
2, 58320, Note_on_c, 0, 74, 89
2, 58560, Note_on_c, 0, 74, 0
2, 58560, Note_on_c, 0, 75, 63
2, 58800, Note_on_c, 0, 75, 0
2, 58800, Note_on_c, 0, 64, 63
2, 58800, Note_on_c, 0, 76, 63
2, 59040, Note_on_c, 0, 76, 0
2, 59040, Note_on_c, 0, 64, 0
2, 59040, Note_on_c, 0, 70, 76
2, 59040, Note_on_c, 0, 82, 76
2, 59199, Note_on_c, 0, 82, 0
2, 59199, Note_on_c, 0, 70, 0
2, 59199, Note_on_c, 0, 69, 76
2, 59199, Note_on_c, 0, 81, 76
2, 59360, Note_on_c, 0, 81, 0
2, 59360, Note_on_c, 0, 69, 0
2, 59360, Note_on_c, 0, 67, 76
2, 59360, Note_on_c, 0, 79, 76
2, 59520, Note_on_c, 0, 79, 0
2, 59520, Note_on_c, 0, 67, 0
2, 59520, Note_on_c, 0, 69, 76
2, 59520, Note_on_c, 0, 81, 76
2, 59760, Note_on_c, 0, 81, 0
2, 59760, Note_on_c, 0, 69, 0
2, 59760, Note_on_c, 0, 70, 76
2, 59760, Note_on_c, 0, 82, 76
2, 60000, Note_on_c, 0, 82, 0
2, 60000, Note_on_c, 0, 70, 0
2, 60000, Note_on_c, 0, 72, 76
2, 60000, Note_on_c, 0, 84, 76
2, 60240, Note_on_c, 0, 84, 0
2, 60240, Note_on_c, 0, 72, 0
2, 60240, Note_on_c, 0, 74, 76
2, 60240, Note_on_c, 0, 86, 76
2, 60480, Note_on_c, 0, 86, 0
2, 60480, Note_on_c, 0, 74, 0
2, 60480, Note_on_c, 0, 64, 76
2, 60480, Note_on_c, 0, 76, 76
2, 60720, Note_on_c, 0, 76, 0
2, 60720, Note_on_c, 0, 64, 0
2, 60960, Note_on_c, 0, 62, 50
2, 60960, Note_on_c, 0, 74, 50
2, 61200, Note_on_c, 0, 74, 0
2, 61200, Note_on_c, 0, 62, 0
2, 61200, Note_on_c, 0, 64, 50
2, 61200, Note_on_c, 0, 76, 50
2, 61440, Note_on_c, 0, 76, 0
2, 61440, Note_on_c, 0, 64, 0
2, 61440, Note_on_c, 0, 65, 50
2, 61440, Note_on_c, 0, 77, 50
2, 61920, Note_on_c, 0, 77, 0
2, 61920, Note_on_c, 0, 65, 0
2, 61920, Note_on_c, 0, 69, 76
2, 62160, Note_on_c, 0, 69, 0
2, 62160, Note_on_c, 0, 70, 76
2, 62400, Note_on_c, 0, 70, 0
2, 62400, Note_on_c, 0, 71, 50
2, 62640, Note_on_c, 0, 71, 0
2, 62640, Note_on_c, 0, 60, 50
2, 62640, Note_on_c, 0, 72, 50
2, 62880, Note_on_c, 0, 72, 0
2, 62880, Note_on_c, 0, 60, 0
2, 62880, Note_on_c, 0, 70, 76
2, 62880, Note_on_c, 0, 82, 76
2, 63039, Note_on_c, 0, 82, 0
2, 63039, Note_on_c, 0, 70, 0
2, 63039, Note_on_c, 0, 69, 76
2, 63039, Note_on_c, 0, 81, 76
2, 63200, Note_on_c, 0, 81, 0
2, 63200, Note_on_c, 0, 69, 0
2, 63200, Note_on_c, 0, 67, 76
2, 63200, Note_on_c, 0, 79, 76
2, 63360, Note_on_c, 0, 79, 0
2, 63360, Note_on_c, 0, 67, 0
2, 63360, Note_on_c, 0, 69, 76
2, 63360, Note_on_c, 0, 81, 76
2, 63600, Note_on_c, 0, 81, 0
2, 63600, Note_on_c, 0, 69, 0
2, 63600, Note_on_c, 0, 70, 76
2, 63600, Note_on_c, 0, 82, 76
2, 63840, Note_on_c, 0, 82, 0
2, 63840, Note_on_c, 0, 70, 0
2, 63840, Note_on_c, 0, 72, 89
2, 63840, Note_on_c, 0, 84, 89
2, 64080, Note_on_c, 0, 84, 0
2, 64080, Note_on_c, 0, 72, 0
2, 64080, Note_on_c, 0, 74, 89
2, 64080, Note_on_c, 0, 86, 89
2, 64320, Note_on_c, 0, 86, 0
2, 64320, Note_on_c, 0, 74, 0
2, 64320, Note_on_c, 0, 64, 89
2, 64320, Note_on_c, 0, 76, 89
2, 64560, Note_on_c, 0, 76, 0
2, 64560, Note_on_c, 0, 64, 0
2, 64800, Note_on_c, 0, 65, 89
2, 64800, Note_on_c, 0, 74, 89
2, 64800, Note_on_c, 0, 77, 89
2, 65040, Note_on_c, 0, 77, 0
2, 65040, Note_on_c, 0, 74, 0
2, 65040, Note_on_c, 0, 65, 0
2, 65040, Note_on_c, 0, 67, 89
2, 65040, Note_on_c, 0, 76, 89
2, 65040, Note_on_c, 0, 79, 89
2, 65280, Note_on_c, 0, 79, 0
2, 65280, Note_on_c, 0, 76, 0
2, 65280, Note_on_c, 0, 67, 0
2, 65280, Note_on_c, 0, 69, 89
2, 65280, Note_on_c, 0, 77, 89
2, 65280, Note_on_c, 0, 81, 89
2, 65520, Note_on_c, 0, 81, 0
2, 65520, Note_on_c, 0, 77, 0
2, 65520, Note_on_c, 0, 69, 0
2, 65520, Note_on_c, 0, 70, 89
2, 65520, Note_on_c, 0, 79, 89
2, 65520, Note_on_c, 0, 82, 89
2, 65760, Note_on_c, 0, 82, 0
2, 65760, Note_on_c, 0, 79, 0
2, 65760, Note_on_c, 0, 70, 0
2, 65760, Note_on_c, 0, 71, 89
2, 65760, Note_on_c, 0, 80, 89
2, 65760, Note_on_c, 0, 83, 89
2, 66000, Note_on_c, 0, 83, 0
2, 66000, Note_on_c, 0, 80, 0
2, 66000, Note_on_c, 0, 71, 0
2, 66000, Note_on_c, 0, 72, 89
2, 66000, Note_on_c, 0, 81, 89
2, 66000, Note_on_c, 0, 84, 89
2, 66240, Note_on_c, 0, 84, 0
2, 66240, Note_on_c, 0, 81, 0
2, 66240, Note_on_c, 0, 72, 0
2, 66240, Note_on_c, 0, 73, 102
2, 66240, Note_on_c, 0, 81, 102
2, 66240, Note_on_c, 0, 85, 102
2, 66480, Note_on_c, 0, 85, 0
2, 66480, Note_on_c, 0, 81, 0
2, 66480, Note_on_c, 0, 73, 0
2, 66480, Note_on_c, 0, 74, 102
2, 66480, Note_on_c, 0, 82, 102
2, 66480, Note_on_c, 0, 86, 102
2, 66720, Note_on_c, 0, 86, 0
2, 66720, Note_on_c, 0, 82, 0
2, 66720, Note_on_c, 0, 74, 0
2, 66720, Note_on_c, 0, 75, 102
2, 66720, Note_on_c, 0, 84, 102
2, 66720, Note_on_c, 0, 87, 102
2, 66960, Note_on_c, 0, 87, 0
2, 66960, Note_on_c, 0, 84, 0
2, 66960, Note_on_c, 0, 75, 0
2, 66960, Note_on_c, 0, 76, 102
2, 66960, Note_on_c, 0, 85, 102
2, 66960, Note_on_c, 0, 88, 102
2, 67200, Note_on_c, 0, 88, 0
2, 67200, Note_on_c, 0, 85, 0
2, 67200, Note_on_c, 0, 76, 0
2, 67200, Note_on_c, 0, 77, 102
2, 67200, Note_on_c, 0, 86, 102
2, 67200, Note_on_c, 0, 89, 102
2, 68160, Note_on_c, 0, 89, 0
2, 68160, Note_on_c, 0, 86, 0
2, 68160, Note_on_c, 0, 77, 0
2, 68160, Note_on_c, 0, 79, 102
2, 68160, Note_on_c, 0, 87, 102
2, 68160, Note_on_c, 0, 91, 102
2, 68400, Note_on_c, 0, 91, 0
2, 68400, Note_on_c, 0, 87, 0
2, 68400, Note_on_c, 0, 79, 0
2, 68400, Note_on_c, 0, 77, 102
2, 68400, Note_on_c, 0, 86, 102
2, 68400, Note_on_c, 0, 89, 102
2, 68640, Note_on_c, 0, 89, 0
2, 68640, Note_on_c, 0, 86, 0
2, 68640, Note_on_c, 0, 77, 0
2, 68640, Note_on_c, 0, 75, 102
2, 68640, Note_on_c, 0, 84, 102
2, 68640, Note_on_c, 0, 87, 102
2, 68880, Note_on_c, 0, 87, 0
2, 68880, Note_on_c, 0, 84, 0
2, 68880, Note_on_c, 0, 75, 0
2, 68880, Note_on_c, 0, 74, 102
2, 68880, Note_on_c, 0, 83, 102
2, 68880, Note_on_c, 0, 86, 102
2, 69120, Note_on_c, 0, 86, 0
2, 69120, Note_on_c, 0, 83, 0
2, 69120, Note_on_c, 0, 74, 0
2, 69120, Note_on_c, 0, 72, 102
2, 69120, Note_on_c, 0, 81, 102
2, 69120, Note_on_c, 0, 84, 102
2, 69360, Note_on_c, 0, 84, 0
2, 69360, Note_on_c, 0, 81, 0
2, 69360, Note_on_c, 0, 72, 0
2, 69360, Note_on_c, 0, 74, 102
2, 69360, Note_on_c, 0, 83, 102
2, 69360, Note_on_c, 0, 86, 102
2, 69600, Note_on_c, 0, 86, 0
2, 69600, Note_on_c, 0, 83, 0
2, 69600, Note_on_c, 0, 74, 0
2, 69600, Note_on_c, 0, 75, 102
2, 69600, Note_on_c, 0, 84, 102
2, 69600, Note_on_c, 0, 87, 102
2, 69840, Note_on_c, 0, 87, 0
2, 69840, Note_on_c, 0, 84, 0
2, 69840, Note_on_c, 0, 75, 0
2, 69840, Note_on_c, 0, 80, 102
2, 69840, Note_on_c, 0, 89, 102
2, 69840, Note_on_c, 0, 92, 102
2, 70080, Note_on_c, 0, 92, 0
2, 70080, Note_on_c, 0, 89, 0
2, 70080, Note_on_c, 0, 80, 0
2, 70080, Note_on_c, 0, 79, 102
2, 70080, Note_on_c, 0, 87, 102
2, 70080, Note_on_c, 0, 91, 102
2, 70320, Note_on_c, 0, 91, 0
2, 70320, Note_on_c, 0, 87, 0
2, 70320, Note_on_c, 0, 79, 0
2, 70320, Note_on_c, 0, 77, 102
2, 70320, Note_on_c, 0, 86, 102
2, 70320, Note_on_c, 0, 89, 102
2, 70560, Note_on_c, 0, 89, 0
2, 70560, Note_on_c, 0, 86, 0
2, 70560, Note_on_c, 0, 77, 0
2, 70560, Note_on_c, 0, 75, 102
2, 70560, Note_on_c, 0, 84, 102
2, 70560, Note_on_c, 0, 87, 102
2, 70800, Note_on_c, 0, 87, 0
2, 70800, Note_on_c, 0, 84, 0
2, 70800, Note_on_c, 0, 75, 0
2, 70800, Note_on_c, 0, 74, 102
2, 70800, Note_on_c, 0, 83, 102
2, 70800, Note_on_c, 0, 86, 102
2, 71040, Note_on_c, 0, 86, 0
2, 71040, Note_on_c, 0, 83, 0
2, 71040, Note_on_c, 0, 74, 0
2, 71040, Note_on_c, 0, 72, 102
2, 71040, Note_on_c, 0, 81, 102
2, 71040, Note_on_c, 0, 84, 102
2, 71280, Note_on_c, 0, 84, 0
2, 71280, Note_on_c, 0, 81, 0
2, 71280, Note_on_c, 0, 72, 0
2, 71280, Note_on_c, 0, 74, 102
2, 71280, Note_on_c, 0, 83, 102
2, 71280, Note_on_c, 0, 86, 102
2, 71520, Note_on_c, 0, 86, 0
2, 71520, Note_on_c, 0, 83, 0
2, 71520, Note_on_c, 0, 74, 0
2, 71520, Note_on_c, 0, 75, 102
2, 71520, Note_on_c, 0, 84, 102
2, 71520, Note_on_c, 0, 87, 102
2, 72000, Note_on_c, 0, 87, 0
2, 72000, Note_on_c, 0, 84, 0
2, 72000, Note_on_c, 0, 75, 0
2, 72000, Note_on_c, 0, 77, 102
2, 72000, Note_on_c, 0, 86, 102
2, 72000, Note_on_c, 0, 89, 102
2, 72240, Note_on_c, 0, 89, 0
2, 72240, Note_on_c, 0, 86, 0
2, 72240, Note_on_c, 0, 77, 0
2, 72240, Note_on_c, 0, 75, 102
2, 72240, Note_on_c, 0, 84, 102
2, 72240, Note_on_c, 0, 87, 102
2, 72480, Note_on_c, 0, 87, 0
2, 72480, Note_on_c, 0, 84, 0
2, 72480, Note_on_c, 0, 75, 0
2, 72480, Note_on_c, 0, 74, 102
2, 72480, Note_on_c, 0, 82, 102
2, 72480, Note_on_c, 0, 86, 102
2, 72720, Note_on_c, 0, 86, 0
2, 72720, Note_on_c, 0, 82, 0
2, 72720, Note_on_c, 0, 74, 0
2, 72720, Note_on_c, 0, 72, 102
2, 72720, Note_on_c, 0, 81, 102
2, 72720, Note_on_c, 0, 84, 102
2, 72960, Note_on_c, 0, 84, 0
2, 72960, Note_on_c, 0, 81, 0
2, 72960, Note_on_c, 0, 72, 0
2, 72960, Note_on_c, 0, 70, 102
2, 72960, Note_on_c, 0, 79, 102
2, 72960, Note_on_c, 0, 82, 102
2, 73200, Note_on_c, 0, 82, 0
2, 73200, Note_on_c, 0, 79, 0
2, 73200, Note_on_c, 0, 70, 0
2, 73200, Note_on_c, 0, 72, 102
2, 73200, Note_on_c, 0, 81, 102
2, 73200, Note_on_c, 0, 84, 102
2, 73440, Note_on_c, 0, 84, 0
2, 73440, Note_on_c, 0, 81, 0
2, 73440, Note_on_c, 0, 72, 0
2, 73440, Note_on_c, 0, 74, 102
2, 73440, Note_on_c, 0, 82, 102
2, 73440, Note_on_c, 0, 86, 102
2, 73920, Note_on_c, 0, 86, 0
2, 73920, Note_on_c, 0, 82, 0
2, 73920, Note_on_c, 0, 74, 0
2, 73920, Note_on_c, 0, 75, 102
2, 73920, Note_on_c, 0, 84, 102
2, 73920, Note_on_c, 0, 87, 102
2, 74160, Note_on_c, 0, 87, 0
2, 74160, Note_on_c, 0, 84, 0
2, 74160, Note_on_c, 0, 75, 0
2, 74160, Note_on_c, 0, 74, 102
2, 74160, Note_on_c, 0, 82, 102
2, 74160, Note_on_c, 0, 86, 102
2, 74400, Note_on_c, 0, 86, 0
2, 74400, Note_on_c, 0, 82, 0
2, 74400, Note_on_c, 0, 74, 0
2, 74400, Note_on_c, 0, 72, 102
2, 74400, Note_on_c, 0, 81, 102
2, 74400, Note_on_c, 0, 84, 102
2, 74640, Note_on_c, 0, 84, 0
2, 74640, Note_on_c, 0, 81, 0
2, 74640, Note_on_c, 0, 72, 0
2, 74640, Note_on_c, 0, 70, 102
2, 74640, Note_on_c, 0, 79, 102
2, 74640, Note_on_c, 0, 82, 102
2, 74880, Note_on_c, 0, 82, 0
2, 74880, Note_on_c, 0, 79, 0
2, 74880, Note_on_c, 0, 70, 0
2, 74880, Note_on_c, 0, 69, 102
2, 74880, Note_on_c, 0, 78, 102
2, 74880, Note_on_c, 0, 81, 102
2, 75120, Note_on_c, 0, 81, 0
2, 75120, Note_on_c, 0, 78, 0
2, 75120, Note_on_c, 0, 69, 0
2, 75120, Note_on_c, 0, 70, 102
2, 75120, Note_on_c, 0, 79, 102
2, 75120, Note_on_c, 0, 82, 102
2, 75360, Note_on_c, 0, 82, 0
2, 75360, Note_on_c, 0, 79, 0
2, 75360, Note_on_c, 0, 70, 0
2, 75360, Note_on_c, 0, 72, 102
2, 75360, Note_on_c, 0, 81, 102
2, 75360, Note_on_c, 0, 84, 102
2, 75600, Note_on_c, 0, 84, 0
2, 75600, Note_on_c, 0, 81, 0
2, 75600, Note_on_c, 0, 72, 0
2, 75600, Note_on_c, 0, 73, 102
2, 75600, Note_on_c, 0, 79, 102
2, 75600, Note_on_c, 0, 85, 102
2, 75840, Note_on_c, 0, 85, 0
2, 75840, Note_on_c, 0, 79, 0
2, 75840, Note_on_c, 0, 73, 0
2, 75840, Control_c, 0, 64, 127
2, 75840, Note_on_c, 0, 74, 127
2, 75840, Note_on_c, 0, 79, 127
2, 75840, Note_on_c, 0, 81, 127
2, 75840, Note_on_c, 0, 86, 127
2, 76800, Note_on_c, 0, 86, 0
2, 76800, Note_on_c, 0, 74, 0
2, 76800, Note_on_c, 0, 79, 0
2, 76800, Note_on_c, 0, 81, 0
2, 77280, Control_c, 0, 64, 0
2, 77760, Control_c, 0, 64, 127
2, 77760, Note_on_c, 0, 74, 89
2, 77760, Note_on_c, 0, 78, 89
2, 77760, Note_on_c, 0, 81, 89
2, 77760, Note_on_c, 0, 86, 89
2, 78720, Note_on_c, 0, 86, 0
2, 78720, Note_on_c, 0, 74, 0
2, 78720, Note_on_c, 0, 78, 0
2, 78720, Note_on_c, 0, 81, 0
2, 78720, Control_c, 0, 64, 0
2, 78960, Note_on_c, 0, 74, 63
2, 79040, Note_on_c, 0, 74, 0
2, 79040, Note_on_c, 0, 75, 63
2, 79119, Note_on_c, 0, 75, 0
2, 79119, Note_on_c, 0, 74, 63
2, 79200, Note_on_c, 0, 74, 0
2, 79200, Note_on_c, 0, 73, 63
2, 79440, Note_on_c, 0, 73, 0
2, 79440, Note_on_c, 0, 74, 63
2, 79680, Note_on_c, 0, 74, 0
2, 79680, Note_on_c, 0, 77, 63
2, 79920, Note_on_c, 0, 77, 0
2, 79920, Note_on_c, 0, 75, 63
2, 80160, Note_on_c, 0, 75, 0
2, 80160, Note_on_c, 0, 74, 89
2, 80400, Note_on_c, 0, 74, 0
2, 80400, Note_on_c, 0, 72, 89
2, 80640, Note_on_c, 0, 72, 0
2, 80640, Note_on_c, 0, 60, 89
2, 80640, Note_on_c, 0, 63, 89
2, 80640, Note_on_c, 0, 70, 89
2, 81600, Note_on_c, 0, 70, 0
2, 81600, Note_on_c, 0, 63, 0
2, 81600, Note_on_c, 0, 60, 0
2, 81600, Note_on_c, 0, 63, 63
2, 81600, Note_on_c, 0, 69, 63
2, 82320, Note_on_c, 0, 69, 0
2, 82320, Note_on_c, 0, 63, 0
2, 82719, Note_on_c, 0, 57, 63
2, 82719, Note_on_c, 0, 60, 63
2, 82751, Note_on_c, 0, 60, 0
2, 82751, Note_on_c, 0, 57, 0
2, 82880, Note_on_c, 0, 60, 63
2, 82880, Note_on_c, 0, 63, 63
2, 82912, Note_on_c, 0, 63, 0
2, 82912, Note_on_c, 0, 60, 0
2, 83199, Note_on_c, 0, 60, 63
2, 83199, Note_on_c, 0, 63, 63
2, 83231, Note_on_c, 0, 63, 0
2, 83231, Note_on_c, 0, 60, 0
2, 83360, Note_on_c, 0, 60, 63
2, 83360, Note_on_c, 0, 63, 63
2, 83360, Note_on_c, 0, 69, 63
2, 83392, Note_on_c, 0, 69, 0
2, 83392, Note_on_c, 0, 63, 0
2, 83392, Note_on_c, 0, 60, 0
2, 83679, Note_on_c, 0, 65, 63
2, 83711, Note_on_c, 0, 65, 0
2, 83840, Note_on_c, 0, 63, 63
2, 83840, Note_on_c, 0, 65, 63
2, 83840, Note_on_c, 0, 69, 63
2, 83872, Note_on_c, 0, 69, 0
2, 83872, Note_on_c, 0, 65, 0
2, 83872, Note_on_c, 0, 63, 0
2, 84159, Note_on_c, 0, 65, 63
2, 84159, Note_on_c, 0, 72, 63
2, 84191, Note_on_c, 0, 72, 0
2, 84191, Note_on_c, 0, 65, 0
2, 84320, Note_on_c, 0, 65, 63
2, 84320, Note_on_c, 0, 72, 63
2, 84320, Note_on_c, 0, 77, 63
2, 84352, Note_on_c, 0, 77, 0
2, 84352, Note_on_c, 0, 72, 0
2, 84352, Note_on_c, 0, 65, 0
2, 84480, Note_on_c, 0, 65, 63
2, 84480, Note_on_c, 0, 70, 63
2, 84720, Note_on_c, 0, 70, 0
2, 84720, Note_on_c, 0, 65, 0
2, 84960, Note_on_c, 0, 74, 89
2, 85200, Note_on_c, 0, 74, 0
2, 85200, Note_on_c, 0, 75, 89
2, 85440, Note_on_c, 0, 75, 0
2, 85440, Note_on_c, 0, 77, 89
2, 85920, Note_on_c, 0, 77, 0
2, 85920, Note_on_c, 0, 72, 89
2, 86160, Note_on_c, 0, 72, 0
2, 86160, Note_on_c, 0, 73, 89
2, 86400, Note_on_c, 0, 73, 0
2, 86400, Note_on_c, 0, 74, 63
2, 87120, Note_on_c, 0, 74, 0
2, 87120, Note_on_c, 0, 70, 63
2, 87360, Note_on_c, 0, 70, 0
2, 87360, Note_on_c, 0, 66, 89
2, 88080, Note_on_c, 0, 66, 0
2, 88080, Note_on_c, 0, 65, 63
2, 88320, Note_on_c, 0, 65, 0
2, 88800, Note_on_c, 0, 74, 89
2, 89040, Note_on_c, 0, 74, 0
2, 89040, Note_on_c, 0, 75, 89
2, 89280, Note_on_c, 0, 75, 0
2, 89280, Note_on_c, 0, 76, 63
2, 89520, Note_on_c, 0, 76, 0
2, 89520, Note_on_c, 0, 77, 63
2, 89760, Note_on_c, 0, 77, 0
2, 89760, Note_on_c, 0, 71, 89
2, 90000, Note_on_c, 0, 71, 0
2, 90000, Note_on_c, 0, 72, 89
2, 90240, Note_on_c, 0, 72, 0
2, 90240, Note_on_c, 0, 73, 63
2, 90480, Note_on_c, 0, 73, 0
2, 90480, Note_on_c, 0, 74, 63
2, 90720, Note_on_c, 0, 74, 0
2, 90720, Note_on_c, 0, 70, 89
2, 90960, Note_on_c, 0, 70, 0
2, 90960, Note_on_c, 0, 67, 89
2, 91200, Note_on_c, 0, 67, 0
2, 91200, Note_on_c, 0, 65, 63
2, 92000, Note_on_c, 0, 65, 0
2, 92000, Note_on_c, 0, 66, 76
2, 92160, Note_on_c, 0, 66, 0
2, 92160, Note_on_c, 0, 69, 102
2, 92640, Note_on_c, 0, 69, 0
2, 92640, Note_on_c, 0, 67, 76
2, 92799, Note_on_c, 0, 67, 0
2, 92960, Note_on_c, 0, 69, 76
2, 93120, Note_on_c, 0, 69, 0
2, 93120, Note_on_c, 0, 72, 102
2, 93600, Note_on_c, 0, 72, 0
2, 93600, Note_on_c, 0, 70, 76
2, 93759, Note_on_c, 0, 70, 0
2, 93920, Note_on_c, 0, 71, 76
2, 94080, Note_on_c, 0, 71, 0
2, 94080, Note_on_c, 0, 74, 76
2, 94320, Note_on_c, 0, 74, 0
2, 94320, Note_on_c, 0, 79, 89
2, 94800, Note_on_c, 0, 79, 0
2, 94800, Note_on_c, 0, 75, 89
2, 95040, Note_on_c, 0, 75, 0
2, 95040, Note_on_c, 0, 72, 89
2, 95520, Note_on_c, 0, 72, 0
2, 95520, Note_on_c, 0, 55, 89
2, 95679, Note_on_c, 0, 55, 0
2, 95679, Note_on_c, 0, 60, 89
2, 95840, Note_on_c, 0, 60, 0
2, 95840, Note_on_c, 0, 63, 89
2, 96000, Note_on_c, 0, 63, 0
2, 96000, Note_on_c, 0, 67, 89
2, 96240, Note_on_c, 0, 67, 0
2, 96240, Note_on_c, 0, 67, 89
2, 96240, Note_on_c, 0, 79, 89
2, 96480, Note_on_c, 0, 79, 0
2, 96480, Note_on_c, 0, 67, 0
2, 96480, Note_on_c, 0, 66, 89
2, 96480, Note_on_c, 0, 78, 89
2, 96720, Note_on_c, 0, 78, 0
2, 96720, Note_on_c, 0, 66, 0
2, 96720, Note_on_c, 0, 67, 89
2, 96720, Note_on_c, 0, 79, 89
2, 96960, Note_on_c, 0, 79, 0
2, 96960, Note_on_c, 0, 67, 0
2, 96960, Note_on_c, 0, 69, 89
2, 96960, Note_on_c, 0, 81, 89
2, 97200, Note_on_c, 0, 81, 0
2, 97200, Note_on_c, 0, 69, 0
2, 97200, Note_on_c, 0, 67, 89
2, 97200, Note_on_c, 0, 79, 89
2, 97440, Note_on_c, 0, 79, 0
2, 97440, Note_on_c, 0, 67, 0
2, 97440, Note_on_c, 0, 69, 89
2, 97440, Note_on_c, 0, 81, 89
2, 97680, Note_on_c, 0, 81, 0
2, 97680, Note_on_c, 0, 69, 0
2, 97680, Note_on_c, 0, 70, 89
2, 97680, Note_on_c, 0, 82, 89
2, 97920, Note_on_c, 0, 82, 0
2, 97920, Note_on_c, 0, 70, 0
2, 97920, Note_on_c, 0, 70, 63
2, 97920, Note_on_c, 0, 82, 63
2, 98400, Note_on_c, 0, 82, 0
2, 98400, Note_on_c, 0, 70, 0
2, 98400, Note_on_c, 0, 70, 63
2, 98640, Note_on_c, 0, 70, 0
2, 99840, Note_on_c, 0, 74, 76
2, 100080, Note_on_c, 0, 74, 0
2, 100080, Note_on_c, 0, 70, 76
2, 100080, Note_on_c, 0, 82, 76
2, 100320, Note_on_c, 0, 82, 0
2, 100320, Note_on_c, 0, 70, 0
2, 100320, Note_on_c, 0, 69, 76
2, 100320, Note_on_c, 0, 81, 76
2, 100560, Note_on_c, 0, 81, 0
2, 100560, Note_on_c, 0, 69, 0
2, 100560, Note_on_c, 0, 70, 76
2, 100560, Note_on_c, 0, 82, 76
2, 100800, Note_on_c, 0, 82, 0
2, 100800, Note_on_c, 0, 70, 0
2, 100800, Note_on_c, 0, 72, 76
2, 100800, Note_on_c, 0, 84, 76
2, 101040, Note_on_c, 0, 84, 0
2, 101040, Note_on_c, 0, 72, 0
2, 101040, Note_on_c, 0, 70, 76
2, 101040, Note_on_c, 0, 82, 76
2, 101280, Note_on_c, 0, 82, 0
2, 101280, Note_on_c, 0, 70, 0
2, 101280, Note_on_c, 0, 72, 76
2, 101280, Note_on_c, 0, 84, 76
2, 101520, Note_on_c, 0, 84, 0
2, 101520, Note_on_c, 0, 72, 0
2, 101520, Note_on_c, 0, 74, 76
2, 101520, Note_on_c, 0, 86, 76
2, 101760, Note_on_c, 0, 86, 0
2, 101760, Note_on_c, 0, 74, 0
2, 101760, Note_on_c, 0, 74, 89
2, 101760, Note_on_c, 0, 86, 89
2, 102240, Note_on_c, 0, 86, 0
2, 102240, Note_on_c, 0, 74, 0
2, 102240, Note_on_c, 0, 74, 89
2, 102480, Note_on_c, 0, 74, 0
2, 103680, Note_on_c, 0, 77, 89
2, 103920, Note_on_c, 0, 77, 0
2, 103920, Note_on_c, 0, 74, 102
2, 103920, Note_on_c, 0, 86, 102
2, 104160, Note_on_c, 0, 86, 0
2, 104160, Note_on_c, 0, 74, 0
2, 104160, Note_on_c, 0, 76, 102
2, 104160, Note_on_c, 0, 88, 102
2, 104400, Note_on_c, 0, 88, 0
2, 104400, Note_on_c, 0, 76, 0
2, 104400, Note_on_c, 0, 77, 102
2, 104400, Note_on_c, 0, 89, 102
2, 104640, Note_on_c, 0, 89, 0
2, 104640, Note_on_c, 0, 77, 0
2, 104640, Note_on_c, 0, 77, 102
2, 104640, Note_on_c, 0, 89, 102
2, 105120, Note_on_c, 0, 89, 0
2, 105120, Note_on_c, 0, 77, 0
2, 105120, Note_on_c, 0, 77, 102
2, 105360, Note_on_c, 0, 77, 0
2, 105840, Note_on_c, 0, 77, 102
2, 105840, Note_on_c, 0, 89, 102
2, 106080, Note_on_c, 0, 89, 0
2, 106080, Note_on_c, 0, 77, 0
2, 106080, Note_on_c, 0, 76, 102
2, 106080, Note_on_c, 0, 88, 102
2, 106320, Note_on_c, 0, 88, 0
2, 106320, Note_on_c, 0, 76, 0
2, 106320, Note_on_c, 0, 77, 102
2, 106320, Note_on_c, 0, 89, 102
2, 106560, Note_on_c, 0, 89, 0
2, 106560, Note_on_c, 0, 77, 0
2, 106560, Note_on_c, 0, 77, 102
2, 106560, Note_on_c, 0, 89, 102
2, 107040, Note_on_c, 0, 89, 0
2, 107040, Note_on_c, 0, 77, 0
2, 107040, Note_on_c, 0, 77, 102
2, 107280, Note_on_c, 0, 77, 0
2, 107520, Note_on_c, 0, 69, 102
2, 107760, Note_on_c, 0, 69, 0
2, 107760, Note_on_c, 0, 77, 102
2, 107760, Note_on_c, 0, 89, 102
2, 108000, Note_on_c, 0, 89, 0
2, 108000, Note_on_c, 0, 77, 0
2, 108000, Note_on_c, 0, 76, 102
2, 108000, Note_on_c, 0, 88, 102
2, 108240, Note_on_c, 0, 88, 0
2, 108240, Note_on_c, 0, 76, 0
2, 108240, Note_on_c, 0, 77, 102
2, 108240, Note_on_c, 0, 89, 102
2, 108480, Note_on_c, 0, 89, 0
2, 108480, Note_on_c, 0, 77, 0
2, 108480, Note_on_c, 0, 76, 102
2, 108480, Note_on_c, 0, 88, 102
2, 108720, Note_on_c, 0, 88, 0
2, 108720, Note_on_c, 0, 76, 0
2, 108720, Note_on_c, 0, 77, 102
2, 108720, Note_on_c, 0, 89, 102
2, 108960, Note_on_c, 0, 89, 0
2, 108960, Note_on_c, 0, 77, 0
2, 108960, Note_on_c, 0, 76, 102
2, 108960, Note_on_c, 0, 88, 102
2, 109200, Note_on_c, 0, 88, 0
2, 109200, Note_on_c, 0, 76, 0
2, 109200, Note_on_c, 0, 77, 102
2, 109200, Note_on_c, 0, 89, 102
2, 109440, Note_on_c, 0, 89, 0
2, 109440, Note_on_c, 0, 77, 0
2, 109440, Note_on_c, 0, 76, 102
2, 109440, Note_on_c, 0, 88, 102
2, 109599, Note_on_c, 0, 88, 0
2, 109599, Note_on_c, 0, 76, 0
2, 109599, Note_on_c, 0, 77, 102
2, 109599, Note_on_c, 0, 89, 102
2, 109760, Note_on_c, 0, 89, 0
2, 109760, Note_on_c, 0, 77, 0
2, 109760, Note_on_c, 0, 76, 102
2, 109760, Note_on_c, 0, 88, 102
2, 109920, Note_on_c, 0, 88, 0
2, 109920, Note_on_c, 0, 76, 0
2, 109920, Note_on_c, 0, 77, 102
2, 109920, Note_on_c, 0, 89, 102
2, 110079, Note_on_c, 0, 89, 0
2, 110079, Note_on_c, 0, 77, 0
2, 110079, Note_on_c, 0, 76, 102
2, 110079, Note_on_c, 0, 88, 102
2, 110240, Note_on_c, 0, 88, 0
2, 110240, Note_on_c, 0, 76, 0
2, 110240, Note_on_c, 0, 77, 102
2, 110240, Note_on_c, 0, 89, 102
2, 110400, Note_on_c, 0, 89, 0
2, 110400, Note_on_c, 0, 77, 0
2, 110400, Note_on_c, 0, 76, 102
2, 110400, Note_on_c, 0, 88, 102
2, 110559, Note_on_c, 0, 88, 0
2, 110559, Note_on_c, 0, 76, 0
2, 110559, Note_on_c, 0, 77, 102
2, 110559, Note_on_c, 0, 89, 102
2, 110720, Note_on_c, 0, 89, 0
2, 110720, Note_on_c, 0, 77, 0
2, 110720, Note_on_c, 0, 76, 102
2, 110720, Note_on_c, 0, 88, 102
2, 110880, Note_on_c, 0, 88, 0
2, 110880, Note_on_c, 0, 76, 0
2, 110880, Note_on_c, 0, 77, 102
2, 110880, Note_on_c, 0, 89, 102
2, 111039, Note_on_c, 0, 89, 0
2, 111039, Note_on_c, 0, 77, 0
2, 111039, Note_on_c, 0, 76, 102
2, 111039, Note_on_c, 0, 88, 102
2, 111200, Note_on_c, 0, 88, 0
2, 111200, Note_on_c, 0, 76, 0
2, 111200, Note_on_c, 0, 77, 102
2, 111200, Note_on_c, 0, 89, 102
2, 111360, Note_on_c, 0, 89, 0
2, 111360, Note_on_c, 0, 77, 0
2, 111360, Note_on_c, 0, 79, 102
2, 111360, Note_on_c, 0, 91, 102
2, 111840, Note_on_c, 0, 91, 0
2, 111840, Note_on_c, 0, 79, 0
2, 111840, Note_on_c, 0, 71, 127
2, 111840, Note_on_c, 0, 79, 127
2, 111840, Note_on_c, 0, 83, 127
2, 112080, Note_on_c, 0, 83, 0
2, 112080, Note_on_c, 0, 79, 0
2, 112080, Note_on_c, 0, 71, 0
2, 112080, Note_on_c, 0, 72, 127
2, 112080, Note_on_c, 0, 81, 127
2, 112080, Note_on_c, 0, 84, 127
2, 112320, Note_on_c, 0, 84, 0
2, 112320, Note_on_c, 0, 81, 0
2, 112320, Note_on_c, 0, 72, 0
2, 112320, Note_on_c, 0, 74, 127
2, 112320, Note_on_c, 0, 83, 127
2, 112320, Note_on_c, 0, 86, 127
2, 112560, Note_on_c, 0, 86, 0
2, 112560, Note_on_c, 0, 83, 0
2, 112560, Note_on_c, 0, 74, 0
2, 112560, Note_on_c, 0, 74, 127
2, 112560, Note_on_c, 0, 83, 127
2, 112560, Note_on_c, 0, 86, 127
2, 112800, Note_on_c, 0, 86, 0
2, 112800, Note_on_c, 0, 83, 0
2, 112800, Note_on_c, 0, 74, 0
2, 112800, Note_on_c, 0, 75, 127
2, 112800, Note_on_c, 0, 84, 127
2, 112800, Note_on_c, 0, 87, 127
2, 113040, Note_on_c, 0, 87, 0
2, 113040, Note_on_c, 0, 84, 0
2, 113040, Note_on_c, 0, 75, 0
2, 113040, Note_on_c, 0, 77, 127
2, 113040, Note_on_c, 0, 86, 127
2, 113040, Note_on_c, 0, 89, 127
2, 113280, Note_on_c, 0, 89, 0
2, 113280, Note_on_c, 0, 86, 0
2, 113280, Note_on_c, 0, 77, 0
2, 113280, Note_on_c, 0, 80, 127
2, 113280, Note_on_c, 0, 89, 127
2, 113280, Note_on_c, 0, 92, 127
2, 113760, Note_on_c, 0, 92, 0
2, 113760, Note_on_c, 0, 89, 0
2, 113760, Note_on_c, 0, 80, 0
2, 113760, Note_on_c, 0, 79, 127
2, 113760, Note_on_c, 0, 87, 127
2, 113760, Note_on_c, 0, 91, 127
2, 114480, Note_on_c, 0, 91, 0
2, 114480, Note_on_c, 0, 87, 0
2, 114480, Note_on_c, 0, 79, 0
2, 114480, Note_on_c, 0, 79, 127
2, 114480, Note_on_c, 0, 87, 127
2, 114480, Note_on_c, 0, 91, 127
2, 114720, Note_on_c, 0, 91, 0
2, 114720, Note_on_c, 0, 87, 0
2, 114720, Note_on_c, 0, 79, 0
2, 114720, Note_on_c, 0, 81, 127
2, 114720, Note_on_c, 0, 90, 127
2, 114720, Note_on_c, 0, 93, 127
2, 114960, Note_on_c, 0, 93, 0
2, 114960, Note_on_c, 0, 90, 0
2, 114960, Note_on_c, 0, 81, 0
2, 114960, Note_on_c, 0, 82, 127
2, 114960, Note_on_c, 0, 91, 127
2, 114960, Note_on_c, 0, 94, 127
2, 115200, Note_on_c, 0, 94, 0
2, 115200, Note_on_c, 0, 91, 0
2, 115200, Note_on_c, 0, 82, 0
2, 115200, Note_on_c, 0, 82, 127
2, 115200, Note_on_c, 0, 91, 127
2, 115200, Note_on_c, 0, 94, 127
2, 115680, Note_on_c, 0, 94, 0
2, 115680, Note_on_c, 0, 91, 0
2, 115680, Note_on_c, 0, 82, 0
2, 115680, Note_on_c, 0, 70, 127
2, 115680, Note_on_c, 0, 79, 127
2, 115680, Note_on_c, 0, 82, 127
2, 116640, Note_on_c, 0, 82, 0
2, 116640, Note_on_c, 0, 79, 0
2, 116640, Note_on_c, 0, 70, 0
2, 116640, Note_on_c, 0, 82, 127
2, 116640, Note_on_c, 0, 91, 127
2, 116640, Note_on_c, 0, 94, 127
2, 117120, Note_on_c, 0, 94, 0
2, 117120, Note_on_c, 0, 91, 0
2, 117120, Note_on_c, 0, 82, 0
2, 117120, Note_on_c, 0, 82, 127
2, 117120, Note_on_c, 0, 91, 127
2, 117120, Note_on_c, 0, 94, 127
2, 117600, Note_on_c, 0, 94, 0
2, 117600, Note_on_c, 0, 91, 0
2, 117600, Note_on_c, 0, 82, 0
2, 117600, Note_on_c, 0, 70, 127
2, 117600, Note_on_c, 0, 79, 127
2, 117600, Note_on_c, 0, 82, 127
2, 118560, Note_on_c, 0, 82, 0
2, 118560, Note_on_c, 0, 79, 0
2, 118560, Note_on_c, 0, 70, 0
2, 118560, Control_c, 0, 64, 127
2, 118560, Note_on_c, 0, 82, 127
2, 118560, Note_on_c, 0, 91, 127
2, 118560, Note_on_c, 0, 94, 127
2, 119040, Note_on_c, 0, 94, 0
2, 119040, Note_on_c, 0, 91, 0
2, 119040, Note_on_c, 0, 82, 0
2, 125040, Control_c, 0, 64, 0
2, 125040, Note_on_c, 0, 70, 102
2, 125040, Note_on_c, 0, 74, 102
2, 125040, Note_on_c, 0, 77, 102
2, 125040, Note_on_c, 0, 82, 102
2, 125087, Note_on_c, 0, 82, 0
2, 125087, Note_on_c, 0, 70, 0
2, 125087, Note_on_c, 0, 74, 0
2, 125087, Note_on_c, 0, 77, 0
2, 125520, Note_on_c, 0, 74, 76
2, 125760, Note_on_c, 0, 74, 0
2, 125760, Note_on_c, 0, 75, 76
2, 126000, Note_on_c, 0, 75, 0
2, 126000, Note_on_c, 0, 77, 76
2, 126240, Note_on_c, 0, 77, 0
2, 126480, Note_on_c, 0, 72, 76
2, 126527, Note_on_c, 0, 72, 0
2, 126720, Note_on_c, 0, 73, 76
2, 126767, Note_on_c, 0, 73, 0
2, 126960, Note_on_c, 0, 74, 76
2, 127007, Note_on_c, 0, 74, 0
2, 127440, Note_on_c, 0, 75, 76
2, 127680, Note_on_c, 0, 75, 0
2, 127680, Note_on_c, 0, 76, 76
2, 127920, Note_on_c, 0, 76, 0
2, 127920, Note_on_c, 0, 79, 76
2, 128160, Note_on_c, 0, 79, 0
2, 128160, Note_on_c, 0, 77, 76
2, 128400, Note_on_c, 0, 77, 0
2, 128400, Note_on_c, 0, 71, 63
2, 128640, Note_on_c, 0, 71, 0
2, 128640, Note_on_c, 0, 72, 63
2, 128880, Note_on_c, 0, 72, 0
2, 128880, Note_on_c, 0, 73, 63
2, 129120, Note_on_c, 0, 73, 0
2, 129120, Note_on_c, 0, 74, 63
2, 129360, Note_on_c, 0, 74, 0
2, 129360, Note_on_c, 0, 76, 63
2, 129600, Note_on_c, 0, 76, 0
2, 129600, Note_on_c, 0, 77, 63
2, 129840, Note_on_c, 0, 77, 0
2, 129840, Note_on_c, 0, 78, 76
2, 130080, Note_on_c, 0, 78, 0
2, 130080, Note_on_c, 0, 79, 76
2, 130320, Note_on_c, 0, 79, 0
2, 130320, Note_on_c, 0, 81, 76
2, 130560, Note_on_c, 0, 81, 0
2, 130560, Note_on_c, 0, 82, 76
2, 130607, Note_on_c, 0, 82, 0
2, 130800, Note_on_c, 0, 84, 89
2, 130880, Note_on_c, 0, 84, 0
2, 130880, Note_on_c, 0, 86, 89
2, 130959, Note_on_c, 0, 86, 0
2, 130959, Note_on_c, 0, 84, 89
2, 131040, Note_on_c, 0, 84, 0
2, 131040, Note_on_c, 0, 82, 89
2, 131280, Note_on_c, 0, 82, 0
2, 131280, Note_on_c, 0, 81, 89
2, 131360, Note_on_c, 0, 81, 0
2, 131360, Note_on_c, 0, 82, 89
2, 131439, Note_on_c, 0, 82, 0
2, 131439, Note_on_c, 0, 81, 89
2, 131520, Note_on_c, 0, 81, 0
2, 131520, Note_on_c, 0, 79, 89
2, 131760, Note_on_c, 0, 79, 0
2, 131760, Note_on_c, 0, 78, 89
2, 131840, Note_on_c, 0, 78, 0
2, 131840, Note_on_c, 0, 80, 89
2, 131919, Note_on_c, 0, 80, 0
2, 131919, Note_on_c, 0, 78, 89
2, 132000, Note_on_c, 0, 78, 0
2, 132000, Note_on_c, 0, 77, 89
2, 132047, Note_on_c, 0, 77, 0
2, 132240, Note_on_c, 0, 76, 63
2, 132320, Note_on_c, 0, 76, 0
2, 132320, Note_on_c, 0, 77, 63
2, 132399, Note_on_c, 0, 77, 0
2, 132399, Note_on_c, 0, 76, 63
2, 132480, Note_on_c, 0, 76, 0
2, 132480, Note_on_c, 0, 75, 63
2, 132527, Note_on_c, 0, 75, 0
2, 132720, Note_on_c, 0, 75, 50
2, 132800, Note_on_c, 0, 75, 0
2, 132800, Note_on_c, 0, 77, 50
2, 132879, Note_on_c, 0, 77, 0
2, 132879, Note_on_c, 0, 75, 50
2, 132960, Note_on_c, 0, 75, 0
2, 132960, Note_on_c, 0, 74, 50
2, 133007, Note_on_c, 0, 74, 0
2, 133200, Note_on_c, 0, 74, 63
2, 133247, Note_on_c, 0, 74, 0
2, 133440, Note_on_c, 0, 75, 63
2, 133680, Note_on_c, 0, 75, 0
2, 133680, Note_on_c, 0, 77, 63
2, 133727, Note_on_c, 0, 77, 0
2, 134160, Note_on_c, 0, 72, 63
2, 134207, Note_on_c, 0, 72, 0
2, 134400, Note_on_c, 0, 73, 63
2, 134447, Note_on_c, 0, 73, 0
2, 134640, Note_on_c, 0, 74, 63
2, 134687, Note_on_c, 0, 74, 0
2, 135120, Note_on_c, 0, 75, 76
2, 135360, Note_on_c, 0, 75, 0
2, 135360, Note_on_c, 0, 76, 76
2, 135600, Note_on_c, 0, 76, 0
2, 135600, Note_on_c, 0, 79, 76
2, 135840, Note_on_c, 0, 79, 0
2, 135840, Note_on_c, 0, 77, 76
2, 136080, Note_on_c, 0, 77, 0
2, 136080, Note_on_c, 0, 71, 63
2, 136127, Note_on_c, 0, 71, 0
2, 136320, Note_on_c, 0, 72, 63
2, 136367, Note_on_c, 0, 72, 0
2, 136560, Note_on_c, 0, 73, 63
2, 136607, Note_on_c, 0, 73, 0
2, 136800, Note_on_c, 0, 74, 63
2, 137040, Note_on_c, 0, 74, 0
2, 137040, Note_on_c, 0, 76, 63
2, 137280, Note_on_c, 0, 76, 0
2, 137280, Note_on_c, 0, 77, 63
2, 137520, Note_on_c, 0, 77, 0
2, 137520, Note_on_c, 0, 78, 76
2, 137760, Note_on_c, 0, 78, 0
2, 137760, Note_on_c, 0, 79, 76
2, 138000, Note_on_c, 0, 79, 0
2, 138000, Note_on_c, 0, 81, 76
2, 138240, Note_on_c, 0, 81, 0
2, 138240, Note_on_c, 0, 82, 76
2, 138287, Note_on_c, 0, 82, 0
2, 138480, Note_on_c, 0, 84, 89
2, 138560, Note_on_c, 0, 84, 0
2, 138560, Note_on_c, 0, 86, 89
2, 138639, Note_on_c, 0, 86, 0
2, 138639, Note_on_c, 0, 84, 89
2, 138720, Note_on_c, 0, 84, 0
2, 138720, Note_on_c, 0, 82, 89
2, 138960, Note_on_c, 0, 82, 0
2, 138960, Note_on_c, 0, 81, 89
2, 139040, Note_on_c, 0, 81, 0
2, 139040, Note_on_c, 0, 82, 89
2, 139119, Note_on_c, 0, 82, 0
2, 139119, Note_on_c, 0, 81, 89
2, 139200, Note_on_c, 0, 81, 0
2, 139200, Note_on_c, 0, 79, 89
2, 139440, Note_on_c, 0, 79, 0
2, 139440, Note_on_c, 0, 78, 89
2, 139520, Note_on_c, 0, 78, 0
2, 139520, Note_on_c, 0, 80, 89
2, 139599, Note_on_c, 0, 80, 0
2, 139599, Note_on_c, 0, 78, 89
2, 139680, Note_on_c, 0, 78, 0
2, 139680, Note_on_c, 0, 77, 89
2, 139727, Note_on_c, 0, 77, 0
2, 139920, Note_on_c, 0, 76, 63
2, 140000, Note_on_c, 0, 76, 0
2, 140000, Note_on_c, 0, 77, 63
2, 140079, Note_on_c, 0, 77, 0
2, 140079, Note_on_c, 0, 76, 63
2, 140160, Note_on_c, 0, 76, 0
2, 140160, Note_on_c, 0, 75, 63
2, 140207, Note_on_c, 0, 75, 0
2, 140400, Note_on_c, 0, 75, 50
2, 140480, Note_on_c, 0, 75, 0
2, 140480, Note_on_c, 0, 77, 50
2, 140559, Note_on_c, 0, 77, 0
2, 140559, Note_on_c, 0, 75, 50
2, 140640, Note_on_c, 0, 75, 0
2, 140640, Note_on_c, 0, 74, 50
2, 140687, Note_on_c, 0, 74, 0
2, 140880, Note_on_c, 0, 76, 63
2, 140927, Note_on_c, 0, 76, 0
2, 141120, Note_on_c, 0, 77, 63
2, 141360, Note_on_c, 0, 77, 0
2, 141360, Note_on_c, 0, 78, 76
2, 141407, Note_on_c, 0, 78, 0
2, 141600, Note_on_c, 0, 79, 76
2, 141647, Note_on_c, 0, 79, 0
2, 141840, Note_on_c, 0, 81, 76
2, 142080, Note_on_c, 0, 81, 0
2, 142080, Note_on_c, 0, 82, 76
2, 142127, Note_on_c, 0, 82, 0
2, 142320, Note_on_c, 0, 84, 89
2, 142400, Note_on_c, 0, 84, 0
2, 142400, Note_on_c, 0, 86, 89
2, 142479, Note_on_c, 0, 86, 0
2, 142479, Note_on_c, 0, 84, 89
2, 142560, Note_on_c, 0, 84, 0
2, 142560, Note_on_c, 0, 82, 89
2, 142800, Note_on_c, 0, 82, 0
2, 142800, Note_on_c, 0, 81, 89
2, 142880, Note_on_c, 0, 81, 0
2, 142880, Note_on_c, 0, 82, 89
2, 142959, Note_on_c, 0, 82, 0
2, 142959, Note_on_c, 0, 81, 89
2, 143040, Note_on_c, 0, 81, 0
2, 143040, Note_on_c, 0, 79, 89
2, 143280, Note_on_c, 0, 79, 0
2, 143280, Note_on_c, 0, 78, 89
2, 143360, Note_on_c, 0, 78, 0
2, 143360, Note_on_c, 0, 80, 89
2, 143439, Note_on_c, 0, 80, 0
2, 143439, Note_on_c, 0, 78, 89
2, 143520, Note_on_c, 0, 78, 0
2, 143520, Note_on_c, 0, 77, 89
2, 143567, Note_on_c, 0, 77, 0
2, 143760, Note_on_c, 0, 76, 63
2, 143840, Note_on_c, 0, 76, 0
2, 143840, Note_on_c, 0, 77, 63
2, 143919, Note_on_c, 0, 77, 0
2, 143919, Note_on_c, 0, 76, 63
2, 144000, Note_on_c, 0, 76, 0
2, 144000, Note_on_c, 0, 75, 63
2, 144047, Note_on_c, 0, 75, 0
2, 144240, Note_on_c, 0, 75, 50
2, 144320, Note_on_c, 0, 75, 0
2, 144320, Note_on_c, 0, 77, 50
2, 144399, Note_on_c, 0, 77, 0
2, 144399, Note_on_c, 0, 75, 50
2, 144480, Note_on_c, 0, 75, 0
2, 144480, Note_on_c, 0, 74, 50
2, 144527, Note_on_c, 0, 74, 0
2, 144720, Note_on_c, 0, 76, 89
2, 144767, Note_on_c, 0, 76, 0
2, 144960, Note_on_c, 0, 77, 89
2, 145200, Note_on_c, 0, 77, 0
2, 145200, Note_on_c, 0, 78, 89
2, 145247, Note_on_c, 0, 78, 0
2, 145440, Note_on_c, 0, 79, 89
2, 145487, Note_on_c, 0, 79, 0
2, 145680, Note_on_c, 0, 81, 89
2, 145920, Note_on_c, 0, 81, 0
2, 145920, Note_on_c, 0, 82, 89
2, 145967, Note_on_c, 0, 82, 0
2, 146160, Note_on_c, 0, 84, 89
2, 146240, Note_on_c, 0, 84, 0
2, 146240, Note_on_c, 0, 86, 89
2, 146319, Note_on_c, 0, 86, 0
2, 146319, Note_on_c, 0, 84, 89
2, 146400, Note_on_c, 0, 84, 0
2, 146400, Note_on_c, 0, 82, 89
2, 146640, Note_on_c, 0, 82, 0
2, 146640, Note_on_c, 0, 76, 89
2, 146687, Note_on_c, 0, 76, 0
2, 146880, Note_on_c, 0, 77, 89
2, 147120, Note_on_c, 0, 77, 0
2, 147120, Note_on_c, 0, 78, 89
2, 147167, Note_on_c, 0, 78, 0
2, 147360, Note_on_c, 0, 79, 89
2, 147407, Note_on_c, 0, 79, 0
2, 147600, Note_on_c, 0, 81, 89
2, 147840, Note_on_c, 0, 81, 0
2, 147840, Note_on_c, 0, 82, 89
2, 147887, Note_on_c, 0, 82, 0
2, 148080, Note_on_c, 0, 84, 102
2, 148160, Note_on_c, 0, 84, 0
2, 148160, Note_on_c, 0, 86, 102
2, 148239, Note_on_c, 0, 86, 0
2, 148239, Note_on_c, 0, 84, 102
2, 148320, Note_on_c, 0, 84, 0
2, 148320, Note_on_c, 0, 82, 102
2, 148560, Note_on_c, 0, 82, 0
2, 148560, Note_on_c, 0, 84, 102
2, 148640, Note_on_c, 0, 84, 0
2, 148640, Note_on_c, 0, 86, 102
2, 148719, Note_on_c, 0, 86, 0
2, 148719, Note_on_c, 0, 84, 102
2, 148800, Note_on_c, 0, 84, 0
2, 148800, Note_on_c, 0, 82, 102
2, 149040, Note_on_c, 0, 82, 0
2, 149040, Note_on_c, 0, 84, 102
2, 149120, Note_on_c, 0, 84, 0
2, 149120, Note_on_c, 0, 86, 102
2, 149199, Note_on_c, 0, 86, 0
2, 149199, Note_on_c, 0, 84, 102
2, 149280, Note_on_c, 0, 84, 0
2, 149280, Note_on_c, 0, 82, 102
2, 149520, Note_on_c, 0, 82, 0
2, 149520, Note_on_c, 0, 84, 102
2, 149600, Note_on_c, 0, 84, 0
2, 149600, Note_on_c, 0, 86, 102
2, 149679, Note_on_c, 0, 86, 0
2, 149679, Note_on_c, 0, 84, 102
2, 149760, Note_on_c, 0, 84, 0
2, 149760, Note_on_c, 0, 82, 102
2, 150000, Note_on_c, 0, 82, 0
2, 150000, Note_on_c, 0, 84, 102
2, 150080, Note_on_c, 0, 84, 0
2, 150080, Note_on_c, 0, 86, 102
2, 150159, Note_on_c, 0, 86, 0
2, 150159, Note_on_c, 0, 84, 102
2, 150240, Note_on_c, 0, 84, 0
2, 150240, Note_on_c, 0, 82, 102
2, 150480, Note_on_c, 0, 82, 0
2, 150480, Note_on_c, 0, 84, 102
2, 150560, Note_on_c, 0, 84, 0
2, 150560, Note_on_c, 0, 86, 102
2, 150639, Note_on_c, 0, 86, 0
2, 150639, Note_on_c, 0, 84, 102
2, 150720, Note_on_c, 0, 84, 0
2, 150720, Note_on_c, 0, 82, 102
2, 150960, Note_on_c, 0, 82, 0
2, 150960, Note_on_c, 0, 84, 102
2, 151040, Note_on_c, 0, 84, 0
2, 151040, Note_on_c, 0, 86, 102
2, 151119, Note_on_c, 0, 86, 0
2, 151119, Note_on_c, 0, 84, 102
2, 151200, Note_on_c, 0, 84, 0
2, 151200, Note_on_c, 0, 82, 102
2, 151440, Note_on_c, 0, 82, 0
2, 151440, Note_on_c, 0, 84, 102
2, 151520, Note_on_c, 0, 84, 0
2, 151520, Note_on_c, 0, 86, 102
2, 151599, Note_on_c, 0, 86, 0
2, 151599, Note_on_c, 0, 84, 102
2, 151680, Note_on_c, 0, 84, 0
2, 151680, Note_on_c, 0, 82, 102
2, 151920, Note_on_c, 0, 82, 0
2, 151920, Note_on_c, 0, 77, 102
2, 151920, Note_on_c, 0, 89, 102
2, 152160, Note_on_c, 0, 89, 0
2, 152160, Note_on_c, 0, 77, 0
2, 152160, Control_c, 0, 64, 127
2, 152160, Note_on_c, 0, 72, 102
2, 152280, Note_on_c, 0, 72, 0
2, 152280, Note_on_c, 0, 74, 102
2, 152400, Note_on_c, 0, 74, 0
2, 152400, Note_on_c, 0, 75, 102
2, 152520, Note_on_c, 0, 75, 0
2, 152520, Note_on_c, 0, 77, 102
2, 152640, Note_on_c, 0, 77, 0
2, 152640, Note_on_c, 0, 79, 102
2, 152760, Note_on_c, 0, 79, 0
2, 152760, Note_on_c, 0, 81, 102
2, 152880, Note_on_c, 0, 81, 0
2, 152880, Control_c, 0, 64, 0
2, 152880, Note_on_c, 0, 74, 102
2, 152880, Note_on_c, 0, 77, 102
2, 152880, Note_on_c, 0, 82, 102
2, 153360, Note_on_c, 0, 82, 0
2, 153360, Note_on_c, 0, 77, 0
2, 153360, Note_on_c, 0, 74, 0
2, 153360, Control_c, 0, 64, 127
2, 156240, Control_c, 0, 64, 0
2, 156240, End_track
3, 0, Start_track
3, 0, Title_t, "Grand Piano"
3, 0, Program_c, 0, 0
3, 0, Control_c, 0, 7, 115
3, 0, Control_c, 0, 10, 79
3, 720, Control_c, 0, 64, 127
3, 720, Note_on_c, 0, 69, 88
3, 759, Note_on_c, 0, 69, 0
3, 759, Note_on_c, 0, 73, 88
3, 800, Note_on_c, 0, 73, 0
3, 800, Note_on_c, 0, 78, 88
3, 840, Note_on_c, 0, 78, 0
3, 840, Note_on_c, 0, 81, 88
3, 879, Note_on_c, 0, 81, 0
3, 879, Note_on_c, 0, 85, 88
3, 920, Note_on_c, 0, 85, 0
3, 920, Note_on_c, 0, 90, 88
3, 960, Note_on_c, 0, 90, 0
3, 960, Note_on_c, 0, 93, 88
3, 1200, Note_on_c, 0, 93, 0
3, 1200, Control_c, 0, 64, 0
3, 2640, Control_c, 0, 64, 127
3, 2640, Note_on_c, 0, 63, 88
3, 2670, Note_on_c, 0, 63, 0
3, 2670, Note_on_c, 0, 66, 88
3, 2700, Note_on_c, 0, 66, 0
3, 2700, Note_on_c, 0, 71, 88
3, 2730, Note_on_c, 0, 71, 0
3, 2730, Note_on_c, 0, 75, 88
3, 2760, Note_on_c, 0, 75, 0
3, 2760, Note_on_c, 0, 78, 88
3, 2790, Note_on_c, 0, 78, 0
3, 2790, Note_on_c, 0, 83, 88
3, 2820, Note_on_c, 0, 83, 0
3, 2820, Note_on_c, 0, 87, 88
3, 2850, Note_on_c, 0, 87, 0
3, 2850, Note_on_c, 0, 90, 88
3, 2880, Note_on_c, 0, 90, 0
3, 2880, Note_on_c, 0, 95, 88
3, 2910, Note_on_c, 0, 95, 0
3, 2910, Note_on_c, 0, 90, 88
3, 2940, Note_on_c, 0, 90, 0
3, 2940, Note_on_c, 0, 87, 88
3, 2970, Note_on_c, 0, 87, 0
3, 2970, Note_on_c, 0, 83, 88
3, 3000, Note_on_c, 0, 83, 0
3, 3000, Note_on_c, 0, 78, 88
3, 3030, Note_on_c, 0, 78, 0
3, 3030, Note_on_c, 0, 75, 88
3, 3060, Note_on_c, 0, 75, 0
3, 3060, Note_on_c, 0, 71, 88
3, 3090, Note_on_c, 0, 71, 0
3, 3090, Note_on_c, 0, 66, 88
3, 3120, Note_on_c, 0, 66, 0
3, 3360, Control_c, 0, 64, 0
3, 4560, Control_c, 0, 64, 127
3, 4560, Note_on_c, 0, 67, 75
3, 4599, Note_on_c, 0, 67, 0
3, 4599, Note_on_c, 0, 71, 75
3, 4640, Note_on_c, 0, 71, 0
3, 4640, Note_on_c, 0, 76, 75
3, 4680, Note_on_c, 0, 76, 0
3, 4680, Note_on_c, 0, 79, 75
3, 4719, Note_on_c, 0, 79, 0
3, 4719, Note_on_c, 0, 83, 75
3, 4760, Note_on_c, 0, 83, 0
3, 4760, Note_on_c, 0, 88, 75
3, 4800, Note_on_c, 0, 88, 0
3, 5280, Control_c, 0, 64, 0
3, 6480, Control_c, 0, 64, 127
3, 6480, Note_on_c, 0, 61, 75
3, 6510, Note_on_c, 0, 61, 0
3, 6510, Note_on_c, 0, 64, 75
3, 6540, Note_on_c, 0, 64, 0
3, 6540, Note_on_c, 0, 67, 75
3, 6570, Note_on_c, 0, 67, 0
3, 6570, Note_on_c, 0, 73, 75
3, 6600, Note_on_c, 0, 73, 0
3, 6600, Note_on_c, 0, 76, 75
3, 6630, Note_on_c, 0, 76, 0
3, 6630, Note_on_c, 0, 79, 75
3, 6660, Note_on_c, 0, 79, 0
3, 6660, Note_on_c, 0, 85, 75
3, 6690, Note_on_c, 0, 85, 0
3, 6690, Note_on_c, 0, 88, 75
3, 6720, Note_on_c, 0, 88, 0
3, 6720, Note_on_c, 0, 91, 75
3, 6750, Note_on_c, 0, 91, 0
3, 6750, Note_on_c, 0, 88, 75
3, 6780, Note_on_c, 0, 88, 0
3, 6780, Note_on_c, 0, 85, 75
3, 6810, Note_on_c, 0, 85, 0
3, 6810, Note_on_c, 0, 79, 75
3, 6840, Note_on_c, 0, 79, 0
3, 6840, Note_on_c, 0, 76, 75
3, 6870, Note_on_c, 0, 76, 0
3, 6870, Note_on_c, 0, 73, 75
3, 6900, Note_on_c, 0, 73, 0
3, 6900, Note_on_c, 0, 67, 75
3, 6930, Note_on_c, 0, 67, 0
3, 6930, Note_on_c, 0, 64, 75
3, 6960, Note_on_c, 0, 64, 0
3, 7200, Control_c, 0, 64, 0
3, 8400, Control_c, 0, 64, 127
3, 8400, Note_on_c, 0, 64, 75
3, 8460, Note_on_c, 0, 64, 0
3, 8460, Note_on_c, 0, 67, 75
3, 8520, Note_on_c, 0, 67, 0
3, 8520, Note_on_c, 0, 73, 75
3, 8580, Note_on_c, 0, 73, 0
3, 8580, Note_on_c, 0, 76, 75
3, 8640, Note_on_c, 0, 76, 0
3, 8640, Note_on_c, 0, 79, 75
3, 8687, Note_on_c, 0, 79, 0
3, 8687, Note_on_c, 0, 76, 75
3, 8736, Note_on_c, 0, 76, 0
3, 8736, Note_on_c, 0, 73, 75
3, 8783, Note_on_c, 0, 73, 0
3, 8783, Note_on_c, 0, 67, 75
3, 8832, Note_on_c, 0, 67, 0
3, 8832, Note_on_c, 0, 64, 75
3, 8880, Note_on_c, 0, 64, 0
3, 9360, Note_on_c, 0, 64, 75
3, 9407, Note_on_c, 0, 64, 0
3, 9407, Note_on_c, 0, 67, 75
3, 9456, Note_on_c, 0, 67, 0
3, 9456, Note_on_c, 0, 73, 75
3, 9503, Note_on_c, 0, 73, 0
3, 9503, Note_on_c, 0, 76, 75
3, 9552, Note_on_c, 0, 76, 0
3, 9552, Note_on_c, 0, 79, 75
3, 9600, Note_on_c, 0, 79, 0
3, 9600, Note_on_c, 0, 85, 75
3, 9647, Note_on_c, 0, 85, 0
3, 9647, Note_on_c, 0, 79, 75
3, 9696, Note_on_c, 0, 79, 0
3, 9696, Note_on_c, 0, 76, 75
3, 9743, Note_on_c, 0, 76, 0
3, 9743, Note_on_c, 0, 73, 75
3, 9792, Note_on_c, 0, 73, 0
3, 9792, Note_on_c, 0, 67, 75
3, 9840, Note_on_c, 0, 67, 0
3, 10320, Note_on_c, 0, 64, 75
3, 10359, Note_on_c, 0, 64, 0
3, 10359, Note_on_c, 0, 67, 75
3, 10400, Note_on_c, 0, 67, 0
3, 10400, Note_on_c, 0, 73, 75
3, 10440, Note_on_c, 0, 73, 0
3, 10440, Note_on_c, 0, 76, 75
3, 10479, Note_on_c, 0, 76, 0
3, 10479, Note_on_c, 0, 79, 75
3, 10520, Note_on_c, 0, 79, 0
3, 10520, Note_on_c, 0, 85, 75
3, 10560, Note_on_c, 0, 85, 0
3, 10560, Note_on_c, 0, 88, 75
3, 10599, Note_on_c, 0, 88, 0
3, 10599, Note_on_c, 0, 85, 75
3, 10640, Note_on_c, 0, 85, 0
3, 10640, Note_on_c, 0, 79, 75
3, 10680, Note_on_c, 0, 79, 0
3, 10680, Note_on_c, 0, 76, 75
3, 10719, Note_on_c, 0, 76, 0
3, 10719, Note_on_c, 0, 73, 75
3, 10760, Note_on_c, 0, 73, 0
3, 10760, Note_on_c, 0, 67, 75
3, 10800, Note_on_c, 0, 67, 0
3, 11280, Note_on_c, 0, 67, 75
3, 11319, Note_on_c, 0, 67, 0
3, 11319, Note_on_c, 0, 73, 75
3, 11360, Note_on_c, 0, 73, 0
3, 11360, Note_on_c, 0, 76, 75
3, 11400, Note_on_c, 0, 76, 0
3, 11400, Note_on_c, 0, 79, 75
3, 11439, Note_on_c, 0, 79, 0
3, 11439, Note_on_c, 0, 85, 75
3, 11480, Note_on_c, 0, 85, 0
3, 11480, Note_on_c, 0, 88, 75
3, 11520, Note_on_c, 0, 88, 0
3, 11520, Note_on_c, 0, 91, 75
3, 11760, Note_on_c, 0, 91, 0
3, 12000, Control_c, 0, 64, 0
3, 12480, Note_on_c, 0, 69, 101
3, 12480, Note_on_c, 0, 72, 101
3, 12480, Note_on_c, 0, 75, 101
3, 12720, Note_on_c, 0, 75, 0
3, 12720, Note_on_c, 0, 72, 0
3, 12720, Note_on_c, 0, 69, 0
3, 31680, Note_on_c, 0, 57, 88
3, 32520, Note_on_c, 0, 57, 0
3, 32520, Note_on_c, 0, 60, 62
3, 32580, Note_on_c, 0, 60, 0
3, 32580, Note_on_c, 0, 58, 62
3, 32640, Note_on_c, 0, 58, 0
3, 32640, Note_on_c, 0, 57, 62
3, 33120, Note_on_c, 0, 57, 0
3, 33600, Note_on_c, 0, 65, 49
3, 33660, Note_on_c, 0, 65, 0
3, 33660, Note_on_c, 0, 67, 49
3, 33720, Note_on_c, 0, 67, 0
3, 33720, Note_on_c, 0, 65, 49
3, 33780, Note_on_c, 0, 65, 0
3, 33780, Note_on_c, 0, 67, 49
3, 33840, Note_on_c, 0, 67, 0
3, 33840, Note_on_c, 0, 65, 49
3, 33900, Note_on_c, 0, 65, 0
3, 33900, Note_on_c, 0, 67, 49
3, 33960, Note_on_c, 0, 67, 0
3, 33960, Note_on_c, 0, 65, 49
3, 34020, Note_on_c, 0, 65, 0
3, 34020, Note_on_c, 0, 67, 49
3, 34080, Note_on_c, 0, 67, 0
3, 34080, Note_on_c, 0, 65, 49
3, 34140, Note_on_c, 0, 65, 0
3, 34140, Note_on_c, 0, 67, 49
3, 34200, Note_on_c, 0, 67, 0
3, 34200, Note_on_c, 0, 65, 49
3, 34260, Note_on_c, 0, 65, 0
3, 34260, Note_on_c, 0, 67, 49
3, 34320, Note_on_c, 0, 67, 0
3, 34320, Note_on_c, 0, 65, 49
3, 34380, Note_on_c, 0, 65, 0
3, 34380, Note_on_c, 0, 67, 49
3, 34440, Note_on_c, 0, 67, 0
3, 34440, Note_on_c, 0, 65, 49
3, 34500, Note_on_c, 0, 65, 0
3, 34500, Note_on_c, 0, 67, 49
3, 34560, Note_on_c, 0, 67, 0
3, 34560, Note_on_c, 0, 65, 49
3, 34620, Note_on_c, 0, 65, 0
3, 34620, Note_on_c, 0, 67, 49
3, 34680, Note_on_c, 0, 67, 0
3, 34680, Note_on_c, 0, 65, 49
3, 34740, Note_on_c, 0, 65, 0
3, 34740, Note_on_c, 0, 67, 49
3, 34800, Note_on_c, 0, 67, 0
3, 34800, Note_on_c, 0, 65, 49
3, 34860, Note_on_c, 0, 65, 0
3, 34860, Note_on_c, 0, 67, 49
3, 34920, Note_on_c, 0, 67, 0
3, 34920, Note_on_c, 0, 65, 49
3, 34980, Note_on_c, 0, 65, 0
3, 34980, Note_on_c, 0, 67, 49
3, 35040, Note_on_c, 0, 67, 0
3, 35040, Note_on_c, 0, 65, 49
3, 35100, Note_on_c, 0, 65, 0
3, 35100, Note_on_c, 0, 67, 49
3, 35160, Note_on_c, 0, 67, 0
3, 35160, Note_on_c, 0, 65, 49
3, 35220, Note_on_c, 0, 65, 0
3, 35220, Note_on_c, 0, 67, 49
3, 35280, Note_on_c, 0, 67, 0
3, 35280, Note_on_c, 0, 65, 49
3, 35340, Note_on_c, 0, 65, 0
3, 35340, Note_on_c, 0, 67, 49
3, 35400, Note_on_c, 0, 67, 0
3, 35400, Note_on_c, 0, 65, 49
3, 35460, Note_on_c, 0, 65, 0
3, 35460, Note_on_c, 0, 67, 49
3, 35520, Note_on_c, 0, 67, 0
3, 35520, Note_on_c, 0, 65, 75
3, 35760, Note_on_c, 0, 65, 0
3, 35760, Note_on_c, 0, 70, 75
3, 36000, Note_on_c, 0, 70, 0
3, 36000, Note_on_c, 0, 65, 75
3, 36240, Note_on_c, 0, 65, 0
3, 36240, Note_on_c, 0, 67, 75
3, 36480, Note_on_c, 0, 67, 0
3, 36480, Note_on_c, 0, 69, 75
3, 36720, Note_on_c, 0, 69, 0
3, 36720, Note_on_c, 0, 68, 75
3, 36960, Note_on_c, 0, 68, 0
3, 36960, Note_on_c, 0, 69, 75
3, 37140, Note_on_c, 0, 72, 75
3, 37200, Note_on_c, 0, 72, 0
3, 37200, Note_on_c, 0, 69, 0
3, 37200, Note_on_c, 0, 70, 75
3, 37440, Note_on_c, 0, 70, 0
3, 48480, Note_on_c, 0, 58, 62
3, 48480, Note_on_c, 0, 64, 62
3, 48960, Note_on_c, 0, 64, 0
3, 48960, Note_on_c, 0, 58, 0
3, 48960, Note_on_c, 0, 57, 62
3, 48960, Note_on_c, 0, 65, 62
3, 49200, Note_on_c, 0, 65, 0
3, 49200, Note_on_c, 0, 57, 0
3, 76080, Control_c, 0, 64, 127
3, 76080, Note_on_c, 0, 62, 75
3, 76119, Note_on_c, 0, 62, 0
3, 76119, Note_on_c, 0, 67, 75
3, 76160, Note_on_c, 0, 67, 0
3, 76160, Note_on_c, 0, 69, 75
3, 76200, Note_on_c, 0, 69, 0
3, 76200, Note_on_c, 0, 74, 75
3, 76239, Note_on_c, 0, 74, 0
3, 76239, Note_on_c, 0, 79, 75
3, 76280, Note_on_c, 0, 79, 0
3, 76280, Note_on_c, 0, 81, 75
3, 76320, Note_on_c, 0, 81, 0
3, 76320, Note_on_c, 0, 86, 75
3, 76359, Note_on_c, 0, 86, 0
3, 76359, Note_on_c, 0, 81, 75
3, 76400, Note_on_c, 0, 81, 0
3, 76400, Note_on_c, 0, 79, 75
3, 76440, Note_on_c, 0, 79, 0
3, 76440, Note_on_c, 0, 74, 75
3, 76479, Note_on_c, 0, 74, 0
3, 76479, Note_on_c, 0, 69, 75
3, 76520, Note_on_c, 0, 69, 0
3, 76520, Note_on_c, 0, 67, 75
3, 76560, Note_on_c, 0, 67, 0
3, 76680, Control_c, 0, 64, 0
3, 77040, Control_c, 0, 64, 127
3, 77040, Note_on_c, 0, 62, 75
3, 77079, Note_on_c, 0, 62, 0
3, 77079, Note_on_c, 0, 67, 75
3, 77120, Note_on_c, 0, 67, 0
3, 77120, Note_on_c, 0, 69, 75
3, 77160, Note_on_c, 0, 69, 0
3, 77160, Note_on_c, 0, 74, 75
3, 77199, Note_on_c, 0, 74, 0
3, 77199, Note_on_c, 0, 79, 75
3, 77240, Note_on_c, 0, 79, 0
3, 77240, Note_on_c, 0, 81, 75
3, 77280, Note_on_c, 0, 81, 0
3, 77280, Note_on_c, 0, 86, 75
3, 77319, Note_on_c, 0, 86, 0
3, 77319, Note_on_c, 0, 81, 75
3, 77360, Note_on_c, 0, 81, 0
3, 77360, Note_on_c, 0, 79, 75
3, 77400, Note_on_c, 0, 79, 0
3, 77400, Note_on_c, 0, 74, 75
3, 77439, Note_on_c, 0, 74, 0
3, 77439, Note_on_c, 0, 69, 75
3, 77480, Note_on_c, 0, 69, 0
3, 77480, Note_on_c, 0, 67, 75
3, 77520, Note_on_c, 0, 67, 0
3, 77760, Control_c, 0, 64, 0
3, 78000, Control_c, 0, 64, 127
3, 78000, Note_on_c, 0, 62, 75
3, 78039, Note_on_c, 0, 62, 0
3, 78039, Note_on_c, 0, 66, 75
3, 78080, Note_on_c, 0, 66, 0
3, 78080, Note_on_c, 0, 69, 75
3, 78120, Note_on_c, 0, 69, 0
3, 78120, Note_on_c, 0, 74, 75
3, 78159, Note_on_c, 0, 74, 0
3, 78159, Note_on_c, 0, 78, 75
3, 78200, Note_on_c, 0, 78, 0
3, 78200, Note_on_c, 0, 81, 75
3, 78240, Note_on_c, 0, 81, 0
3, 78240, Note_on_c, 0, 86, 75
3, 78279, Note_on_c, 0, 86, 0
3, 78279, Note_on_c, 0, 81, 75
3, 78320, Note_on_c, 0, 81, 0
3, 78320, Note_on_c, 0, 78, 75
3, 78360, Note_on_c, 0, 78, 0
3, 78360, Note_on_c, 0, 74, 75
3, 78399, Note_on_c, 0, 74, 0
3, 78399, Note_on_c, 0, 69, 75
3, 78440, Note_on_c, 0, 69, 0
3, 78440, Note_on_c, 0, 66, 75
3, 78480, Note_on_c, 0, 66, 0
3, 78480, Control_c, 0, 64, 0
3, 78720, Control_c, 0, 64, 0
3, 98160, Note_on_c, 0, 74, 88
3, 98400, Note_on_c, 0, 74, 0
3, 98400, Note_on_c, 0, 73, 88
3, 98640, Note_on_c, 0, 73, 0
3, 98640, Note_on_c, 0, 74, 88
3, 98880, Note_on_c, 0, 74, 0
3, 98880, Note_on_c, 0, 75, 88
3, 99120, Note_on_c, 0, 75, 0
3, 99120, Note_on_c, 0, 74, 88
3, 99360, Note_on_c, 0, 74, 0
3, 99360, Note_on_c, 0, 73, 88
3, 99600, Note_on_c, 0, 73, 0
3, 99600, Note_on_c, 0, 74, 88
3, 99840, Note_on_c, 0, 74, 0
3, 102000, Note_on_c, 0, 77, 114
3, 102240, Note_on_c, 0, 77, 0
3, 102240, Note_on_c, 0, 76, 114
3, 102480, Note_on_c, 0, 76, 0
3, 102480, Note_on_c, 0, 77, 114
3, 102720, Note_on_c, 0, 77, 0
3, 102720, Note_on_c, 0, 79, 114
3, 102960, Note_on_c, 0, 79, 0
3, 102960, Note_on_c, 0, 77, 114
3, 103200, Note_on_c, 0, 77, 0
3, 103200, Note_on_c, 0, 76, 114
3, 103440, Note_on_c, 0, 76, 0
3, 103440, Note_on_c, 0, 77, 114
3, 103680, Note_on_c, 0, 77, 0
3, 104880, Note_on_c, 0, 65, 101
3, 105120, Note_on_c, 0, 65, 0
3, 105120, Note_on_c, 0, 68, 101
3, 105360, Note_on_c, 0, 68, 0
3, 105360, Note_on_c, 0, 69, 101
3, 105600, Note_on_c, 0, 69, 0
3, 105600, Note_on_c, 0, 69, 101
3, 106320, Note_on_c, 0, 69, 0
3, 106800, Note_on_c, 0, 69, 101
3, 107040, Note_on_c, 0, 69, 0
3, 107040, Note_on_c, 0, 68, 101
3, 107280, Note_on_c, 0, 68, 0
3, 107280, Note_on_c, 0, 69, 101
3, 107520, Note_on_c, 0, 69, 0
3, 107679, Note_on_c, 0, 69, 75
3, 107679, Note_on_c, 0, 72, 75
3, 107840, Note_on_c, 0, 72, 0
3, 107840, Note_on_c, 0, 69, 0
3, 107840, Note_on_c, 0, 69, 75
3, 107840, Note_on_c, 0, 72, 75
3, 108000, Note_on_c, 0, 72, 0
3, 108000, Note_on_c, 0, 69, 0
3, 108000, Note_on_c, 0, 69, 75
3, 108000, Note_on_c, 0, 72, 75
3, 108159, Note_on_c, 0, 72, 0
3, 108159, Note_on_c, 0, 69, 0
3, 108159, Note_on_c, 0, 69, 75
3, 108159, Note_on_c, 0, 72, 75
3, 108320, Note_on_c, 0, 72, 0
3, 108320, Note_on_c, 0, 69, 0
3, 108320, Note_on_c, 0, 69, 75
3, 108320, Note_on_c, 0, 72, 75
3, 108480, Note_on_c, 0, 72, 0
3, 108480, Note_on_c, 0, 69, 0
3, 108639, Note_on_c, 0, 63, 75
3, 108639, Note_on_c, 0, 69, 75
3, 108800, Note_on_c, 0, 69, 0
3, 108800, Note_on_c, 0, 63, 0
3, 108800, Note_on_c, 0, 63, 75
3, 108800, Note_on_c, 0, 69, 75
3, 108960, Note_on_c, 0, 69, 0
3, 108960, Note_on_c, 0, 63, 0
3, 108960, Note_on_c, 0, 63, 75
3, 108960, Note_on_c, 0, 69, 75
3, 109119, Note_on_c, 0, 69, 0
3, 109119, Note_on_c, 0, 63, 0
3, 109119, Note_on_c, 0, 63, 75
3, 109119, Note_on_c, 0, 69, 75
3, 109280, Note_on_c, 0, 69, 0
3, 109280, Note_on_c, 0, 63, 0
3, 109280, Note_on_c, 0, 63, 75
3, 109280, Note_on_c, 0, 69, 75
3, 109440, Note_on_c, 0, 69, 0
3, 109440, Note_on_c, 0, 63, 0
3, 113280, Note_on_c, 0, 65, 101
3, 113280, Note_on_c, 0, 68, 101
3, 113760, Note_on_c, 0, 68, 0
3, 113760, Note_on_c, 0, 65, 0
3, 113760, Note_on_c, 0, 63, 101
3, 113760, Note_on_c, 0, 67, 101
3, 114480, Note_on_c, 0, 67, 0
3, 114480, Note_on_c, 0, 63, 0
3, 114480, Note_on_c, 0, 63, 101
3, 114480, Note_on_c, 0, 67, 101
3, 114720, Note_on_c, 0, 67, 0
3, 114720, Note_on_c, 0, 63, 0
3, 114720, Note_on_c, 0, 66, 101
3, 114720, Note_on_c, 0, 69, 101
3, 114960, Note_on_c, 0, 69, 0
3, 114960, Note_on_c, 0, 66, 0
3, 114960, Note_on_c, 0, 67, 101
3, 114960, Note_on_c, 0, 70, 101
3, 115200, Note_on_c, 0, 70, 0
3, 115200, Note_on_c, 0, 67, 0
3, 118599, Control_c, 0, 64, 127
3, 118599, Note_on_c, 0, 94, 75
3, 118640, Note_on_c, 0, 94, 0
3, 118640, Note_on_c, 0, 91, 75
3, 118680, Note_on_c, 0, 91, 0
3, 118680, Note_on_c, 0, 88, 75
3, 118719, Note_on_c, 0, 88, 0
3, 118719, Note_on_c, 0, 85, 75
3, 118760, Note_on_c, 0, 85, 0
3, 118760, Note_on_c, 0, 82, 75
3, 118800, Note_on_c, 0, 82, 0
3, 118800, Note_on_c, 0, 79, 75
3, 118839, Note_on_c, 0, 79, 0
3, 118839, Note_on_c, 0, 76, 75
3, 118880, Note_on_c, 0, 76, 0
3, 118880, Note_on_c, 0, 73, 75
3, 118920, Note_on_c, 0, 73, 0
3, 118920, Note_on_c, 0, 70, 75
3, 118959, Note_on_c, 0, 70, 0
3, 118959, Note_on_c, 0, 67, 75
3, 119000, Note_on_c, 0, 67, 0
3, 119000, Note_on_c, 0, 64, 75
3, 119040, Note_on_c, 0, 64, 0
3, 119640, Note_on_c, 0, 67, 75
3, 119679, Note_on_c, 0, 67, 0
3, 119679, Note_on_c, 0, 70, 75
3, 119720, Note_on_c, 0, 70, 0
3, 119720, Note_on_c, 0, 73, 75
3, 119760, Note_on_c, 0, 73, 0
3, 119760, Note_on_c, 0, 76, 75
3, 119799, Note_on_c, 0, 76, 0
3, 119799, Note_on_c, 0, 79, 75
3, 119840, Note_on_c, 0, 79, 0
3, 119840, Note_on_c, 0, 82, 75
3, 119880, Note_on_c, 0, 82, 0
3, 119880, Note_on_c, 0, 85, 75
3, 119919, Note_on_c, 0, 85, 0
3, 119919, Note_on_c, 0, 88, 75
3, 119960, Note_on_c, 0, 88, 0
3, 119960, Note_on_c, 0, 91, 75
3, 120000, Note_on_c, 0, 91, 0
3, 120000, Note_on_c, 0, 94, 75
3, 120039, Note_on_c, 0, 94, 0
3, 120039, Note_on_c, 0, 91, 75
3, 120080, Note_on_c, 0, 91, 0
3, 120080, Note_on_c, 0, 88, 75
3, 120120, Note_on_c, 0, 88, 0
3, 120120, Note_on_c, 0, 85, 75
3, 120159, Note_on_c, 0, 85, 0
3, 120159, Note_on_c, 0, 82, 75
3, 120200, Note_on_c, 0, 82, 0
3, 120200, Note_on_c, 0, 79, 75
3, 120240, Note_on_c, 0, 79, 0
3, 120240, Note_on_c, 0, 76, 75
3, 120279, Note_on_c, 0, 76, 0
3, 120279, Note_on_c, 0, 73, 75
3, 120320, Note_on_c, 0, 73, 0
3, 120320, Note_on_c, 0, 70, 75
3, 120360, Note_on_c, 0, 70, 0
3, 120360, Note_on_c, 0, 67, 75
3, 120399, Note_on_c, 0, 67, 0
3, 120399, Note_on_c, 0, 64, 75
3, 120440, Note_on_c, 0, 64, 0
3, 120440, Note_on_c, 0, 61, 75
3, 120480, Note_on_c, 0, 61, 0
3, 121080, Note_on_c, 0, 67, 75
3, 121119, Note_on_c, 0, 67, 0
3, 121119, Note_on_c, 0, 70, 75
3, 121160, Note_on_c, 0, 70, 0
3, 121160, Note_on_c, 0, 73, 75
3, 121200, Note_on_c, 0, 73, 0
3, 121200, Note_on_c, 0, 76, 75
3, 121239, Note_on_c, 0, 76, 0
3, 121239, Note_on_c, 0, 79, 75
3, 121280, Note_on_c, 0, 79, 0
3, 121280, Note_on_c, 0, 82, 75
3, 121320, Note_on_c, 0, 82, 0
3, 121320, Note_on_c, 0, 85, 75
3, 121359, Note_on_c, 0, 85, 0
3, 121359, Note_on_c, 0, 88, 75
3, 121400, Note_on_c, 0, 88, 0
3, 121400, Note_on_c, 0, 91, 75
3, 121440, Note_on_c, 0, 91, 0
3, 121440, Note_on_c, 0, 94, 75
3, 121479, Note_on_c, 0, 94, 0
3, 121479, Note_on_c, 0, 91, 75
3, 121520, Note_on_c, 0, 91, 0
3, 121520, Note_on_c, 0, 88, 75
3, 121560, Note_on_c, 0, 88, 0
3, 121560, Note_on_c, 0, 85, 75
3, 121599, Note_on_c, 0, 85, 0
3, 121599, Note_on_c, 0, 82, 75
3, 121640, Note_on_c, 0, 82, 0
3, 121640, Note_on_c, 0, 79, 75
3, 121680, Note_on_c, 0, 79, 0
3, 121680, Note_on_c, 0, 76, 75
3, 121719, Note_on_c, 0, 76, 0
3, 121719, Note_on_c, 0, 73, 75
3, 121760, Note_on_c, 0, 73, 0
3, 121760, Note_on_c, 0, 70, 75
3, 121800, Note_on_c, 0, 70, 0
3, 121800, Note_on_c, 0, 67, 75
3, 121839, Note_on_c, 0, 67, 0
3, 121839, Note_on_c, 0, 64, 75
3, 121880, Note_on_c, 0, 64, 0
3, 121880, Note_on_c, 0, 61, 75
3, 121920, Note_on_c, 0, 61, 0
3, 122520, Note_on_c, 0, 67, 75
3, 122559, Note_on_c, 0, 67, 0
3, 122559, Note_on_c, 0, 70, 75
3, 122600, Note_on_c, 0, 70, 0
3, 122600, Note_on_c, 0, 73, 75
3, 122640, Note_on_c, 0, 73, 0
3, 122640, Note_on_c, 0, 76, 75
3, 122679, Note_on_c, 0, 76, 0
3, 122679, Note_on_c, 0, 79, 75
3, 122720, Note_on_c, 0, 79, 0
3, 122720, Note_on_c, 0, 82, 75
3, 122760, Note_on_c, 0, 82, 0
3, 122760, Note_on_c, 0, 85, 75
3, 122799, Note_on_c, 0, 85, 0
3, 122799, Note_on_c, 0, 88, 75
3, 122840, Note_on_c, 0, 88, 0
3, 122840, Note_on_c, 0, 91, 75
3, 122880, Note_on_c, 0, 91, 0
3, 122880, Note_on_c, 0, 94, 75
3, 122919, Note_on_c, 0, 94, 0
3, 122919, Note_on_c, 0, 91, 75
3, 122960, Note_on_c, 0, 91, 0
3, 122960, Note_on_c, 0, 88, 75
3, 123000, Note_on_c, 0, 88, 0
3, 123000, Note_on_c, 0, 85, 75
3, 123039, Note_on_c, 0, 85, 0
3, 123039, Note_on_c, 0, 82, 75
3, 123080, Note_on_c, 0, 82, 0
3, 123080, Note_on_c, 0, 79, 75
3, 123120, Note_on_c, 0, 79, 0
3, 123120, Note_on_c, 0, 76, 75
3, 123159, Note_on_c, 0, 76, 0
3, 123159, Note_on_c, 0, 73, 75
3, 123200, Note_on_c, 0, 73, 0
3, 123200, Note_on_c, 0, 70, 75
3, 123240, Note_on_c, 0, 70, 0
3, 123240, Note_on_c, 0, 67, 75
3, 123279, Note_on_c, 0, 67, 0
3, 123279, Note_on_c, 0, 64, 75
3, 123320, Note_on_c, 0, 64, 0
3, 123320, Note_on_c, 0, 61, 75
3, 123360, Note_on_c, 0, 61, 0
3, 124560, Control_c, 0, 64, 0
3, 125040, Control_c, 0, 64, 0
3, 125040, End_track
4, 0, Start_track
4, 0, Title_t, "Grand Piano"
4, 0, Program_c, 0, 0
4, 0, Control_c, 0, 7, 115
4, 0, Control_c, 0, 10, 41
4, 480, Control_c, 0, 64, 127
4, 480, Note_on_c, 0, 45, 88
4, 519, Note_on_c, 0, 45, 0
4, 519, Note_on_c, 0, 49, 88
4, 560, Note_on_c, 0, 49, 0
4, 560, Note_on_c, 0, 54, 88
4, 600, Note_on_c, 0, 54, 0
4, 600, Note_on_c, 0, 57, 88
4, 639, Note_on_c, 0, 57, 0
4, 639, Note_on_c, 0, 61, 88
4, 680, Note_on_c, 0, 61, 0
4, 680, Note_on_c, 0, 66, 88
4, 720, Note_on_c, 0, 66, 0
4, 960, Control_c, 0, 64, 0
4, 2430, Control_c, 0, 64, 127
4, 2430, Note_on_c, 0, 39, 88
4, 2460, Note_on_c, 0, 39, 0
4, 2460, Note_on_c, 0, 42, 88
4, 2490, Note_on_c, 0, 42, 0
4, 2490, Note_on_c, 0, 47, 88
4, 2520, Note_on_c, 0, 47, 0
4, 2520, Note_on_c, 0, 51, 88
4, 2550, Note_on_c, 0, 51, 0
4, 2550, Note_on_c, 0, 54, 88
4, 2580, Note_on_c, 0, 54, 0
4, 2580, Note_on_c, 0, 59, 88
4, 2610, Note_on_c, 0, 59, 0
4, 3120, Note_on_c, 0, 59, 88
4, 3150, Note_on_c, 0, 59, 0
4, 3150, Note_on_c, 0, 54, 88
4, 3180, Note_on_c, 0, 54, 0
4, 3180, Note_on_c, 0, 51, 88
4, 3210, Note_on_c, 0, 51, 0
4, 3210, Note_on_c, 0, 47, 88
4, 3240, Note_on_c, 0, 47, 0
4, 3240, Note_on_c, 0, 42, 88
4, 3270, Note_on_c, 0, 42, 0
4, 3270, Note_on_c, 0, 39, 88
4, 3300, Note_on_c, 0, 39, 0
4, 3300, Note_on_c, 0, 35, 88
4, 3540, Note_on_c, 0, 35, 0
4, 3600, Control_c, 0, 64, 0
4, 4320, Control_c, 0, 64, 127
4, 4320, Note_on_c, 0, 43, 75
4, 4359, Note_on_c, 0, 43, 0
4, 4359, Note_on_c, 0, 47, 75
4, 4400, Note_on_c, 0, 47, 0
4, 4400, Note_on_c, 0, 52, 75
4, 4440, Note_on_c, 0, 52, 0
4, 4440, Note_on_c, 0, 55, 75
4, 4479, Note_on_c, 0, 55, 0
4, 4479, Note_on_c, 0, 59, 75
4, 4520, Note_on_c, 0, 59, 0
4, 4520, Note_on_c, 0, 64, 75
4, 4560, Note_on_c, 0, 64, 0
4, 5520, Control_c, 0, 64, 0
4, 6300, Control_c, 0, 64, 127
4, 6300, Note_on_c, 0, 37, 75
4, 6330, Note_on_c, 0, 37, 0
4, 6330, Note_on_c, 0, 40, 75
4, 6360, Note_on_c, 0, 40, 0
4, 6360, Note_on_c, 0, 43, 75
4, 6390, Note_on_c, 0, 43, 0
4, 6390, Note_on_c, 0, 49, 75
4, 6420, Note_on_c, 0, 49, 0
4, 6420, Note_on_c, 0, 52, 75
4, 6450, Note_on_c, 0, 52, 0
4, 6450, Note_on_c, 0, 55, 75
4, 6480, Note_on_c, 0, 55, 0
4, 6960, Note_on_c, 0, 55, 75
4, 6990, Note_on_c, 0, 55, 0
4, 6990, Note_on_c, 0, 52, 75
4, 7020, Note_on_c, 0, 52, 0
4, 7020, Note_on_c, 0, 49, 75
4, 7050, Note_on_c, 0, 49, 0
4, 7050, Note_on_c, 0, 43, 75
4, 7080, Note_on_c, 0, 43, 0
4, 7080, Note_on_c, 0, 40, 75
4, 7110, Note_on_c, 0, 40, 0
4, 7110, Note_on_c, 0, 37, 75
4, 7140, Note_on_c, 0, 37, 0
4, 7200, Control_c, 0, 64, 0
4, 8207, Control_c, 0, 64, 127
4, 8207, Note_on_c, 0, 49, 75
4, 8256, Note_on_c, 0, 49, 0
4, 8256, Note_on_c, 0, 52, 75
4, 8303, Note_on_c, 0, 52, 0
4, 8303, Note_on_c, 0, 55, 75
4, 8352, Note_on_c, 0, 55, 0
4, 8352, Note_on_c, 0, 61, 75
4, 8400, Note_on_c, 0, 61, 0
4, 8880, Note_on_c, 0, 61, 75
4, 8940, Note_on_c, 0, 61, 0
4, 8940, Note_on_c, 0, 55, 75
4, 9000, Note_on_c, 0, 55, 0
4, 9000, Note_on_c, 0, 52, 75
4, 9060, Note_on_c, 0, 52, 0
4, 9060, Note_on_c, 0, 49, 75
4, 9120, Note_on_c, 0, 49, 0
4, 9120, Note_on_c, 0, 45, 75
4, 9167, Note_on_c, 0, 45, 0
4, 9167, Note_on_c, 0, 49, 75
4, 9216, Note_on_c, 0, 49, 0
4, 9216, Note_on_c, 0, 52, 75
4, 9263, Note_on_c, 0, 52, 0
4, 9263, Note_on_c, 0, 55, 75
4, 9312, Note_on_c, 0, 55, 0
4, 9312, Note_on_c, 0, 61, 75
4, 9360, Note_on_c, 0, 61, 0
4, 9840, Note_on_c, 0, 64, 75
4, 9887, Note_on_c, 0, 64, 0
4, 9887, Note_on_c, 0, 61, 75
4, 9936, Note_on_c, 0, 61, 0
4, 9936, Note_on_c, 0, 55, 75
4, 9983, Note_on_c, 0, 55, 0
4, 9983, Note_on_c, 0, 52, 75
4, 10032, Note_on_c, 0, 52, 0
4, 10032, Note_on_c, 0, 49, 75
4, 10080, Note_on_c, 0, 49, 0
4, 10080, Note_on_c, 0, 45, 75
4, 10127, Note_on_c, 0, 45, 0
4, 10127, Note_on_c, 0, 49, 75
4, 10176, Note_on_c, 0, 49, 0
4, 10176, Note_on_c, 0, 52, 75
4, 10223, Note_on_c, 0, 52, 0
4, 10223, Note_on_c, 0, 55, 75
4, 10272, Note_on_c, 0, 55, 0
4, 10272, Note_on_c, 0, 61, 75
4, 10320, Note_on_c, 0, 61, 0
4, 10800, Note_on_c, 0, 64, 75
4, 10847, Note_on_c, 0, 64, 0
4, 10847, Note_on_c, 0, 61, 75
4, 10896, Note_on_c, 0, 61, 0
4, 10896, Note_on_c, 0, 55, 75
4, 10943, Note_on_c, 0, 55, 0
4, 10943, Note_on_c, 0, 52, 75
4, 10992, Note_on_c, 0, 52, 0
4, 10992, Note_on_c, 0, 49, 75
4, 11040, Note_on_c, 0, 49, 0
4, 11040, Note_on_c, 0, 45, 75
4, 11079, Note_on_c, 0, 45, 0
4, 11079, Note_on_c, 0, 49, 75
4, 11120, Note_on_c, 0, 49, 0
4, 11120, Note_on_c, 0, 52, 75
4, 11160, Note_on_c, 0, 52, 0
4, 11160, Note_on_c, 0, 55, 75
4, 11199, Note_on_c, 0, 55, 0
4, 11199, Note_on_c, 0, 61, 75
4, 11240, Note_on_c, 0, 61, 0
4, 11240, Note_on_c, 0, 64, 75
4, 11280, Note_on_c, 0, 64, 0
4, 11520, Control_c, 0, 64, 0
4, 12480, Note_on_c, 0, 53, 101
4, 12480, Note_on_c, 0, 65, 101
4, 13599, Note_on_c, 0, 65, 0
4, 13599, Note_on_c, 0, 53, 0
4, 13599, Note_on_c, 0, 53, 101
4, 13599, Note_on_c, 0, 65, 101
4, 13760, Note_on_c, 0, 65, 0
4, 13760, Note_on_c, 0, 53, 0
4, 13760, Note_on_c, 0, 53, 101
4, 13760, Note_on_c, 0, 65, 101
4, 13920, Note_on_c, 0, 65, 0
4, 13920, Note_on_c, 0, 53, 0
4, 13920, Note_on_c, 0, 53, 101
4, 13920, Note_on_c, 0, 65, 101
4, 14340, Note_on_c, 0, 65, 0
4, 14340, Note_on_c, 0, 53, 0
4, 14340, Note_on_c, 0, 53, 101
4, 14340, Note_on_c, 0, 65, 101
4, 14400, Note_on_c, 0, 65, 0
4, 14400, Note_on_c, 0, 53, 0
4, 14400, Note_on_c, 0, 53, 101
4, 14400, Note_on_c, 0, 65, 101
4, 15120, Note_on_c, 0, 65, 0
4, 15120, Note_on_c, 0, 53, 0
4, 16320, Note_on_c, 0, 53, 49
4, 16320, Note_on_c, 0, 58, 49
4, 16320, Note_on_c, 0, 62, 49
4, 17280, Note_on_c, 0, 62, 0
4, 17280, Note_on_c, 0, 58, 0
4, 17280, Note_on_c, 0, 53, 0
4, 17280, Note_on_c, 0, 53, 49
4, 17280, Note_on_c, 0, 58, 49
4, 17280, Note_on_c, 0, 62, 49
4, 18240, Note_on_c, 0, 62, 0
4, 18240, Note_on_c, 0, 58, 0
4, 18240, Note_on_c, 0, 53, 0
4, 18240, Note_on_c, 0, 53, 49
4, 18240, Note_on_c, 0, 58, 49
4, 18240, Note_on_c, 0, 62, 49
4, 18480, Note_on_c, 0, 62, 0
4, 18480, Note_on_c, 0, 58, 0
4, 18480, Note_on_c, 0, 53, 0
4, 18480, Control_c, 0, 64, 127
4, 18480, Note_on_c, 0, 65, 49
4, 18514, Note_on_c, 0, 65, 0
4, 18514, Note_on_c, 0, 62, 49
4, 18548, Note_on_c, 0, 62, 0
4, 18548, Note_on_c, 0, 58, 49
4, 18582, Note_on_c, 0, 58, 0
4, 18582, Note_on_c, 0, 55, 49
4, 18617, Note_on_c, 0, 55, 0
4, 18617, Note_on_c, 0, 53, 49
4, 18651, Note_on_c, 0, 53, 0
4, 18651, Note_on_c, 0, 46, 49
4, 18685, Note_on_c, 0, 46, 0
4, 18685, Note_on_c, 0, 46, 49
4, 18720, Note_on_c, 0, 46, 0
4, 18720, Control_c, 0, 64, 0
4, 18720, Note_on_c, 0, 34, 49
4, 18960, Note_on_c, 0, 34, 0
4, 19200, Note_on_c, 0, 53, 49
4, 19200, Note_on_c, 0, 57, 49
4, 19200, Note_on_c, 0, 63, 49
4, 19440, Note_on_c, 0, 63, 0
4, 19440, Note_on_c, 0, 57, 0
4, 19440, Note_on_c, 0, 53, 0
4, 19440, Control_c, 0, 64, 127
4, 19440, Note_on_c, 0, 65, 49
4, 19474, Note_on_c, 0, 65, 0
4, 19474, Note_on_c, 0, 63, 49
4, 19508, Note_on_c, 0, 63, 0
4, 19508, Note_on_c, 0, 57, 49
4, 19542, Note_on_c, 0, 57, 0
4, 19542, Note_on_c, 0, 53, 49
4, 19577, Note_on_c, 0, 53, 0
4, 19577, Note_on_c, 0, 51, 49
4, 19611, Note_on_c, 0, 51, 0
4, 19611, Note_on_c, 0, 46, 49
4, 19645, Note_on_c, 0, 46, 0
4, 19645, Note_on_c, 0, 46, 49
4, 19680, Note_on_c, 0, 46, 0
4, 19680, Control_c, 0, 64, 0
4, 19680, Note_on_c, 0, 34, 49
4, 19920, Note_on_c, 0, 34, 0
4, 20160, Note_on_c, 0, 53, 49
4, 20160, Note_on_c, 0, 58, 49
4, 20160, Note_on_c, 0, 62, 49
4, 20400, Note_on_c, 0, 62, 0
4, 20400, Note_on_c, 0, 58, 0
4, 20400, Note_on_c, 0, 53, 0
4, 20400, Control_c, 0, 64, 127
4, 20400, Note_on_c, 0, 65, 49
4, 20434, Note_on_c, 0, 65, 0
4, 20434, Note_on_c, 0, 62, 49
4, 20468, Note_on_c, 0, 62, 0
4, 20468, Note_on_c, 0, 58, 49
4, 20502, Note_on_c, 0, 58, 0
4, 20502, Note_on_c, 0, 55, 49
4, 20537, Note_on_c, 0, 55, 0
4, 20537, Note_on_c, 0, 53, 49
4, 20571, Note_on_c, 0, 53, 0
4, 20571, Note_on_c, 0, 46, 49
4, 20605, Note_on_c, 0, 46, 0
4, 20605, Note_on_c, 0, 46, 49
4, 20640, Note_on_c, 0, 46, 0
4, 20640, Control_c, 0, 64, 0
4, 20640, Note_on_c, 0, 34, 49
4, 20880, Note_on_c, 0, 34, 0
4, 21120, Note_on_c, 0, 51, 49
4, 21120, Note_on_c, 0, 57, 49
4, 21120, Note_on_c, 0, 60, 49
4, 21360, Note_on_c, 0, 60, 0
4, 21360, Note_on_c, 0, 57, 0
4, 21360, Note_on_c, 0, 51, 0
4, 21360, Control_c, 0, 64, 127
4, 21360, Note_on_c, 0, 63, 49
4, 21394, Note_on_c, 0, 63, 0
4, 21394, Note_on_c, 0, 60, 49
4, 21428, Note_on_c, 0, 60, 0
4, 21428, Note_on_c, 0, 57, 49
4, 21462, Note_on_c, 0, 57, 0
4, 21462, Note_on_c, 0, 54, 49
4, 21497, Note_on_c, 0, 54, 0
4, 21497, Note_on_c, 0, 51, 49
4, 21531, Note_on_c, 0, 51, 0
4, 21531, Note_on_c, 0, 46, 49
4, 21565, Note_on_c, 0, 46, 0
4, 21565, Note_on_c, 0, 46, 49
4, 21600, Note_on_c, 0, 46, 0
4, 21600, Control_c, 0, 64, 0
4, 21600, Note_on_c, 0, 34, 49
4, 21840, Note_on_c, 0, 34, 0
4, 22080, Note_on_c, 0, 50, 49
4, 22080, Note_on_c, 0, 53, 49
4, 22080, Note_on_c, 0, 58, 49
4, 22320, Note_on_c, 0, 58, 0
4, 22320, Note_on_c, 0, 53, 0
4, 22320, Note_on_c, 0, 50, 0
4, 22320, Control_c, 0, 64, 127
4, 22320, Note_on_c, 0, 65, 49
4, 22354, Note_on_c, 0, 65, 0
4, 22354, Note_on_c, 0, 62, 49
4, 22388, Note_on_c, 0, 62, 0
4, 22388, Note_on_c, 0, 58, 49
4, 22422, Note_on_c, 0, 58, 0
4, 22422, Note_on_c, 0, 55, 49
4, 22457, Note_on_c, 0, 55, 0
4, 22457, Note_on_c, 0, 53, 49
4, 22491, Note_on_c, 0, 53, 0
4, 22491, Note_on_c, 0, 46, 49
4, 22525, Note_on_c, 0, 46, 0
4, 22525, Note_on_c, 0, 46, 49
4, 22560, Note_on_c, 0, 46, 0
4, 22560, Control_c, 0, 64, 0
4, 22560, Note_on_c, 0, 34, 49
4, 22800, Note_on_c, 0, 34, 0
4, 23040, Note_on_c, 0, 53, 49
4, 23040, Note_on_c, 0, 57, 49
4, 23040, Note_on_c, 0, 63, 49
4, 23280, Note_on_c, 0, 63, 0
4, 23280, Note_on_c, 0, 57, 0
4, 23280, Note_on_c, 0, 53, 0
4, 23280, Control_c, 0, 64, 127
4, 23280, Note_on_c, 0, 65, 49
4, 23314, Note_on_c, 0, 65, 0
4, 23314, Note_on_c, 0, 63, 49
4, 23348, Note_on_c, 0, 63, 0
4, 23348, Note_on_c, 0, 57, 49
4, 23382, Note_on_c, 0, 57, 0
4, 23382, Note_on_c, 0, 53, 49
4, 23417, Note_on_c, 0, 53, 0
4, 23417, Note_on_c, 0, 51, 49
4, 23451, Note_on_c, 0, 51, 0
4, 23451, Note_on_c, 0, 46, 49
4, 23485, Note_on_c, 0, 46, 0
4, 23485, Note_on_c, 0, 46, 49
4, 23520, Note_on_c, 0, 46, 0
4, 23520, Control_c, 0, 64, 0
4, 23520, Note_on_c, 0, 34, 49
4, 23760, Note_on_c, 0, 34, 0
4, 24000, Note_on_c, 0, 53, 49
4, 24000, Note_on_c, 0, 58, 49
4, 24000, Note_on_c, 0, 62, 49
4, 24240, Note_on_c, 0, 62, 0
4, 24240, Note_on_c, 0, 58, 0
4, 24240, Note_on_c, 0, 53, 0
4, 24240, Control_c, 0, 64, 127
4, 24240, Note_on_c, 0, 65, 49
4, 24274, Note_on_c, 0, 65, 0
4, 24274, Note_on_c, 0, 62, 49
4, 24308, Note_on_c, 0, 62, 0
4, 24308, Note_on_c, 0, 58, 49
4, 24342, Note_on_c, 0, 58, 0
4, 24342, Note_on_c, 0, 55, 49
4, 24377, Note_on_c, 0, 55, 0
4, 24377, Note_on_c, 0, 53, 49
4, 24411, Note_on_c, 0, 53, 0
4, 24411, Note_on_c, 0, 46, 49
4, 24445, Note_on_c, 0, 46, 0
4, 24445, Note_on_c, 0, 46, 49
4, 24480, Note_on_c, 0, 46, 0
4, 24480, Control_c, 0, 64, 0
4, 24480, Note_on_c, 0, 34, 49
4, 24720, Note_on_c, 0, 34, 0
4, 24960, Note_on_c, 0, 50, 49
4, 24960, Note_on_c, 0, 53, 49
4, 24960, Note_on_c, 0, 58, 49
4, 25200, Note_on_c, 0, 58, 0
4, 25200, Note_on_c, 0, 53, 0
4, 25200, Note_on_c, 0, 50, 0
4, 25200, Control_c, 0, 64, 127
4, 25200, Note_on_c, 0, 62, 49
4, 25239, Note_on_c, 0, 62, 0
4, 25239, Note_on_c, 0, 58, 49
4, 25280, Note_on_c, 0, 58, 0
4, 25280, Note_on_c, 0, 55, 49
4, 25320, Note_on_c, 0, 55, 0
4, 25320, Note_on_c, 0, 53, 49
4, 25359, Note_on_c, 0, 53, 0
4, 25359, Note_on_c, 0, 50, 49
4, 25400, Note_on_c, 0, 50, 0
4, 25400, Note_on_c, 0, 50, 49
4, 25440, Note_on_c, 0, 50, 0
4, 25440, Control_c, 0, 64, 0
4, 25440, Note_on_c, 0, 38, 49
4, 25680, Note_on_c, 0, 38, 0
4, 25920, Note_on_c, 0, 51, 49
4, 25920, Note_on_c, 0, 55, 49
4, 25920, Note_on_c, 0, 60, 49
4, 26160, Note_on_c, 0, 60, 0
4, 26160, Note_on_c, 0, 55, 0
4, 26160, Note_on_c, 0, 51, 0
4, 26160, Control_c, 0, 64, 127
4, 26160, Note_on_c, 0, 63, 49
4, 26199, Note_on_c, 0, 63, 0
4, 26199, Note_on_c, 0, 60, 49
4, 26240, Note_on_c, 0, 60, 0
4, 26240, Note_on_c, 0, 57, 49
4, 26280, Note_on_c, 0, 57, 0
4, 26280, Note_on_c, 0, 55, 49
4, 26319, Note_on_c, 0, 55, 0
4, 26319, Note_on_c, 0, 51, 49
4, 26360, Note_on_c, 0, 51, 0
4, 26360, Note_on_c, 0, 51, 49
4, 26400, Note_on_c, 0, 51, 0
4, 26400, Control_c, 0, 64, 0
4, 26400, Note_on_c, 0, 39, 49
4, 26640, Note_on_c, 0, 39, 0
4, 26880, Note_on_c, 0, 50, 49
4, 26880, Note_on_c, 0, 55, 49
4, 26880, Note_on_c, 0, 62, 49
4, 27120, Note_on_c, 0, 62, 0
4, 27120, Note_on_c, 0, 55, 0
4, 27120, Note_on_c, 0, 50, 0
4, 27120, Control_c, 0, 64, 127
4, 27120, Note_on_c, 0, 67, 49
4, 27159, Note_on_c, 0, 67, 0
4, 27159, Note_on_c, 0, 62, 49
4, 27200, Note_on_c, 0, 62, 0
4, 27200, Note_on_c, 0, 60, 49
4, 27240, Note_on_c, 0, 60, 0
4, 27240, Note_on_c, 0, 55, 49
4, 27279, Note_on_c, 0, 55, 0
4, 27279, Note_on_c, 0, 50, 49
4, 27320, Note_on_c, 0, 50, 0
4, 27320, Note_on_c, 0, 50, 49
4, 27360, Note_on_c, 0, 50, 0
4, 27360, Control_c, 0, 64, 0
4, 27360, Note_on_c, 0, 38, 49
4, 27600, Note_on_c, 0, 38, 0
4, 27750, Note_on_c, 0, 48, 49
4, 27780, Note_on_c, 0, 55, 49
4, 27810, Note_on_c, 0, 58, 49
4, 27840, Note_on_c, 0, 65, 49
4, 28080, Note_on_c, 0, 65, 0
4, 28080, Note_on_c, 0, 48, 0
4, 28080, Note_on_c, 0, 55, 0
4, 28080, Note_on_c, 0, 58, 0
4, 28080, Control_c, 0, 64, 127
4, 28080, Note_on_c, 0, 65, 49
4, 28114, Note_on_c, 0, 65, 0
4, 28114, Note_on_c, 0, 62, 49
4, 28148, Note_on_c, 0, 62, 0
4, 28148, Note_on_c, 0, 58, 49
4, 28182, Note_on_c, 0, 58, 0
4, 28182, Note_on_c, 0, 55, 49
4, 28217, Note_on_c, 0, 55, 0
4, 28217, Note_on_c, 0, 53, 49
4, 28251, Note_on_c, 0, 53, 0
4, 28251, Note_on_c, 0, 48, 49
4, 28285, Note_on_c, 0, 48, 0
4, 28285, Note_on_c, 0, 48, 49
4, 28320, Note_on_c, 0, 48, 0
4, 28320, Control_c, 0, 64, 0
4, 28320, Note_on_c, 0, 36, 49
4, 28560, Note_on_c, 0, 36, 0
4, 28720, Note_on_c, 0, 48, 49
4, 28760, Note_on_c, 0, 55, 49
4, 28800, Note_on_c, 0, 63, 49
4, 29040, Note_on_c, 0, 63, 0
4, 29040, Note_on_c, 0, 55, 0
4, 29040, Note_on_c, 0, 48, 0
4, 29040, Control_c, 0, 64, 127
4, 29040, Note_on_c, 0, 67, 49
4, 29074, Note_on_c, 0, 67, 0
4, 29074, Note_on_c, 0, 63, 49
4, 29108, Note_on_c, 0, 63, 0
4, 29108, Note_on_c, 0, 60, 49
4, 29142, Note_on_c, 0, 60, 0
4, 29142, Note_on_c, 0, 55, 49
4, 29177, Note_on_c, 0, 55, 0
4, 29177, Note_on_c, 0, 51, 49
4, 29211, Note_on_c, 0, 51, 0
4, 29211, Note_on_c, 0, 48, 49
4, 29245, Note_on_c, 0, 48, 0
4, 29245, Note_on_c, 0, 48, 49
4, 29280, Note_on_c, 0, 48, 0
4, 29280, Control_c, 0, 64, 0
4, 29280, Note_on_c, 0, 36, 49
4, 29520, Note_on_c, 0, 36, 0
4, 29760, Note_on_c, 0, 55, 49
4, 29760, Note_on_c, 0, 60, 49
4, 29760, Note_on_c, 0, 63, 49
4, 30000, Note_on_c, 0, 63, 0
4, 30000, Note_on_c, 0, 60, 0
4, 30000, Note_on_c, 0, 55, 0
4, 30000, Control_c, 0, 64, 127
4, 30000, Note_on_c, 0, 63, 49
4, 30039, Note_on_c, 0, 63, 0
4, 30039, Note_on_c, 0, 60, 49
4, 30080, Note_on_c, 0, 60, 0
4, 30080, Note_on_c, 0, 55, 49
4, 30120, Note_on_c, 0, 55, 0
4, 30120, Note_on_c, 0, 51, 49
4, 30159, Note_on_c, 0, 51, 0
4, 30159, Note_on_c, 0, 48, 49
4, 30200, Note_on_c, 0, 48, 0
4, 30200, Note_on_c, 0, 48, 49
4, 30240, Note_on_c, 0, 48, 0
4, 30240, Control_c, 0, 64, 0
4, 30240, Note_on_c, 0, 36, 49
4, 30480, Note_on_c, 0, 36, 0
4, 30720, Note_on_c, 0, 55, 49
4, 30720, Note_on_c, 0, 60, 49
4, 30720, Note_on_c, 0, 63, 49
4, 30960, Note_on_c, 0, 63, 0
4, 30960, Note_on_c, 0, 60, 0
4, 30960, Note_on_c, 0, 55, 0
4, 30960, Control_c, 0, 64, 127
4, 30960, Note_on_c, 0, 67, 49
4, 30999, Note_on_c, 0, 67, 0
4, 30999, Note_on_c, 0, 63, 49
4, 31040, Note_on_c, 0, 63, 0
4, 31040, Note_on_c, 0, 60, 49
4, 31080, Note_on_c, 0, 60, 0
4, 31080, Note_on_c, 0, 55, 49
4, 31119, Note_on_c, 0, 55, 0
4, 31119, Note_on_c, 0, 51, 49
4, 31160, Note_on_c, 0, 51, 0
4, 31160, Note_on_c, 0, 51, 49
4, 31200, Note_on_c, 0, 51, 0
4, 31200, Control_c, 0, 64, 0
4, 31200, Note_on_c, 0, 39, 49
4, 31440, Note_on_c, 0, 39, 0
4, 31680, Note_on_c, 0, 55, 49
4, 31680, Note_on_c, 0, 60, 49
4, 31920, Note_on_c, 0, 60, 0
4, 31920, Note_on_c, 0, 55, 0
4, 31920, Control_c, 0, 64, 127
4, 31920, Note_on_c, 0, 67, 49
4, 31959, Note_on_c, 0, 67, 0
4, 31959, Note_on_c, 0, 60, 49
4, 32000, Note_on_c, 0, 60, 0
4, 32000, Note_on_c, 0, 55, 49
4, 32040, Note_on_c, 0, 55, 0
4, 32040, Note_on_c, 0, 51, 49
4, 32079, Note_on_c, 0, 51, 0
4, 32079, Note_on_c, 0, 48, 49
4, 32120, Note_on_c, 0, 48, 0
4, 32120, Note_on_c, 0, 46, 49
4, 32160, Note_on_c, 0, 46, 0
4, 32160, Control_c, 0, 64, 0
4, 32160, Note_on_c, 0, 43, 49
4, 32400, Note_on_c, 0, 43, 0
4, 32640, Note_on_c, 0, 53, 49
4, 32640, Note_on_c, 0, 60, 49
4, 32880, Note_on_c, 0, 60, 0
4, 32880, Note_on_c, 0, 53, 0
4, 32880, Control_c, 0, 64, 127
4, 32880, Note_on_c, 0, 60, 49
4, 32927, Note_on_c, 0, 60, 0
4, 32927, Note_on_c, 0, 57, 49
4, 32976, Note_on_c, 0, 57, 0
4, 32976, Note_on_c, 0, 53, 49
4, 33023, Note_on_c, 0, 53, 0
4, 33023, Note_on_c, 0, 48, 49
4, 33072, Note_on_c, 0, 48, 0
4, 33072, Note_on_c, 0, 45, 49
4, 33120, Note_on_c, 0, 45, 0
4, 33120, Control_c, 0, 64, 0
4, 33120, Note_on_c, 0, 41, 49
4, 33360, Note_on_c, 0, 41, 0
4, 34080, Note_on_c, 0, 55, 101
4, 34320, Note_on_c, 0, 55, 0
4, 34320, Note_on_c, 0, 57, 101
4, 34560, Note_on_c, 0, 57, 0
4, 34560, Note_on_c, 0, 58, 101
4, 35040, Note_on_c, 0, 58, 0
4, 35040, Note_on_c, 0, 50, 101
4, 35280, Note_on_c, 0, 50, 0
4, 35280, Note_on_c, 0, 51, 101
4, 35520, Note_on_c, 0, 51, 0
4, 35520, Note_on_c, 0, 53, 101
4, 36360, Note_on_c, 0, 53, 0
4, 36360, Note_on_c, 0, 57, 75
4, 36420, Note_on_c, 0, 57, 0
4, 36420, Note_on_c, 0, 55, 75
4, 36480, Note_on_c, 0, 55, 0
4, 36480, Note_on_c, 0, 53, 75
4, 37440, Note_on_c, 0, 53, 0
4, 37920, Note_on_c, 0, 55, 101
4, 38160, Note_on_c, 0, 55, 0
4, 38160, Note_on_c, 0, 57, 101
4, 38400, Note_on_c, 0, 57, 0
4, 38400, Note_on_c, 0, 53, 101
4, 38400, Note_on_c, 0, 58, 101
4, 38880, Note_on_c, 0, 58, 0
4, 38880, Note_on_c, 0, 53, 0
4, 38880, Note_on_c, 0, 50, 101
4, 39120, Note_on_c, 0, 50, 0
4, 39120, Note_on_c, 0, 51, 101
4, 39360, Note_on_c, 0, 51, 0
4, 39360, Note_on_c, 0, 53, 75
4, 39647, Note_on_c, 0, 53, 0
4, 39647, Note_on_c, 0, 55, 75
4, 39696, Note_on_c, 0, 55, 0
4, 39696, Note_on_c, 0, 53, 75
4, 39743, Note_on_c, 0, 53, 0
4, 39743, Note_on_c, 0, 52, 75
4, 39792, Note_on_c, 0, 52, 0
4, 39792, Note_on_c, 0, 53, 75
4, 39840, Note_on_c, 0, 53, 0
4, 39840, Note_on_c, 0, 57, 75
4, 40080, Note_on_c, 0, 57, 0
4, 40080, Note_on_c, 0, 55, 75
4, 40320, Note_on_c, 0, 55, 0
4, 40320, Note_on_c, 0, 53, 75
4, 41439, Note_on_c, 0, 53, 0
4, 41439, Note_on_c, 0, 50, 101
4, 41600, Note_on_c, 0, 50, 0
4, 41600, Note_on_c, 0, 52, 101
4, 41760, Note_on_c, 0, 52, 0
4, 41760, Note_on_c, 0, 53, 101
4, 41919, Note_on_c, 0, 53, 0
4, 41919, Note_on_c, 0, 55, 101
4, 42080, Note_on_c, 0, 55, 0
4, 42080, Note_on_c, 0, 56, 101
4, 42240, Note_on_c, 0, 56, 0
4, 42240, Note_on_c, 0, 50, 62
4, 42240, Note_on_c, 0, 53, 62
4, 42240, Note_on_c, 0, 56, 62
4, 42480, Note_on_c, 0, 56, 0
4, 42480, Note_on_c, 0, 53, 0
4, 42480, Note_on_c, 0, 50, 0
4, 42720, Note_on_c, 0, 50, 62
4, 42720, Note_on_c, 0, 56, 62
4, 42720, Note_on_c, 0, 59, 62
4, 42960, Note_on_c, 0, 59, 0
4, 42960, Note_on_c, 0, 56, 0
4, 42960, Note_on_c, 0, 50, 0
4, 43200, Note_on_c, 0, 48, 62
4, 43200, Note_on_c, 0, 53, 62
4, 43200, Note_on_c, 0, 57, 62
4, 43200, Note_on_c, 0, 60, 62
4, 43920, Note_on_c, 0, 60, 0
4, 43920, Note_on_c, 0, 48, 0
4, 43920, Note_on_c, 0, 53, 0
4, 43920, Note_on_c, 0, 57, 0
4, 43920, Note_on_c, 0, 48, 62
4, 43920, Note_on_c, 0, 53, 62
4, 43920, Note_on_c, 0, 57, 62
4, 43920, Note_on_c, 0, 63, 62
4, 44160, Note_on_c, 0, 63, 0
4, 44160, Note_on_c, 0, 48, 0
4, 44160, Note_on_c, 0, 53, 0
4, 44160, Note_on_c, 0, 57, 0
4, 44160, Note_on_c, 0, 48, 62
4, 44160, Note_on_c, 0, 54, 62
4, 44160, Note_on_c, 0, 57, 62
4, 44160, Note_on_c, 0, 62, 62
4, 44880, Note_on_c, 0, 62, 0
4, 44880, Note_on_c, 0, 48, 0
4, 44880, Note_on_c, 0, 54, 0
4, 44880, Note_on_c, 0, 57, 0
4, 44880, Note_on_c, 0, 48, 62
4, 44880, Note_on_c, 0, 54, 62
4, 44880, Note_on_c, 0, 57, 62
4, 44880, Note_on_c, 0, 62, 62
4, 45120, Note_on_c, 0, 62, 0
4, 45120, Note_on_c, 0, 48, 0
4, 45120, Note_on_c, 0, 54, 0
4, 45120, Note_on_c, 0, 57, 0
4, 45120, Note_on_c, 0, 48, 62
4, 45120, Note_on_c, 0, 55, 62
4, 45120, Note_on_c, 0, 58, 62
4, 45120, Note_on_c, 0, 62, 62
4, 46080, Note_on_c, 0, 62, 0
4, 46080, Note_on_c, 0, 48, 0
4, 46080, Note_on_c, 0, 55, 0
4, 46080, Note_on_c, 0, 58, 0
4, 46080, Control_c, 0, 64, 127
4, 46080, Note_on_c, 0, 48, 62
4, 46080, Note_on_c, 0, 55, 62
4, 46080, Note_on_c, 0, 58, 62
4, 46080, Note_on_c, 0, 64, 62
4, 46560, Note_on_c, 0, 64, 0
4, 46560, Note_on_c, 0, 48, 0
4, 46560, Note_on_c, 0, 55, 0
4, 46560, Note_on_c, 0, 58, 0
4, 47760, Control_c, 0, 64, 0
4, 48480, Note_on_c, 0, 41, 49
4, 48480, Note_on_c, 0, 49, 49
4, 48960, Note_on_c, 0, 49, 0
4, 48960, Note_on_c, 0, 48, 49
4, 49119, Note_on_c, 0, 48, 0
4, 49119, Note_on_c, 0, 41, 0
4, 49119, Note_on_c, 0, 53, 49
4, 49119, Note_on_c, 0, 57, 49
4, 49119, Note_on_c, 0, 60, 49
4, 49280, Note_on_c, 0, 60, 0
4, 49280, Note_on_c, 0, 57, 0
4, 49280, Note_on_c, 0, 53, 0
4, 49280, Note_on_c, 0, 53, 49
4, 49280, Note_on_c, 0, 57, 49
4, 49280, Note_on_c, 0, 60, 49
4, 49440, Note_on_c, 0, 60, 0
4, 49440, Note_on_c, 0, 57, 0
4, 49440, Note_on_c, 0, 53, 0
4, 49440, Note_on_c, 0, 53, 49
4, 49440, Note_on_c, 0, 57, 49
4, 49440, Note_on_c, 0, 60, 49
4, 49599, Note_on_c, 0, 60, 0
4, 49599, Note_on_c, 0, 57, 0
4, 49599, Note_on_c, 0, 53, 0
4, 49599, Note_on_c, 0, 53, 49
4, 49599, Note_on_c, 0, 57, 49
4, 49599, Note_on_c, 0, 60, 49
4, 49760, Note_on_c, 0, 60, 0
4, 49760, Note_on_c, 0, 57, 0
4, 49760, Note_on_c, 0, 53, 0
4, 49760, Note_on_c, 0, 53, 49
4, 49760, Note_on_c, 0, 57, 49
4, 49760, Note_on_c, 0, 60, 49
4, 49920, Note_on_c, 0, 60, 0
4, 49920, Note_on_c, 0, 57, 0
4, 49920, Note_on_c, 0, 53, 0
4, 49920, Note_on_c, 0, 57, 49
4, 49920, Note_on_c, 0, 61, 49
4, 50079, Note_on_c, 0, 61, 0
4, 50079, Note_on_c, 0, 57, 0
4, 50079, Note_on_c, 0, 57, 49
4, 50079, Note_on_c, 0, 61, 49
4, 50240, Note_on_c, 0, 61, 0
4, 50240, Note_on_c, 0, 57, 0
4, 50240, Note_on_c, 0, 57, 49
4, 50240, Note_on_c, 0, 61, 49
4, 50400, Note_on_c, 0, 61, 0
4, 50400, Note_on_c, 0, 57, 0
4, 50400, Note_on_c, 0, 57, 49
4, 50400, Note_on_c, 0, 61, 49
4, 50559, Note_on_c, 0, 61, 0
4, 50559, Note_on_c, 0, 57, 0
4, 50559, Note_on_c, 0, 57, 49
4, 50559, Note_on_c, 0, 61, 49
4, 50720, Note_on_c, 0, 61, 0
4, 50720, Note_on_c, 0, 57, 0
4, 50720, Note_on_c, 0, 57, 49
4, 50720, Note_on_c, 0, 61, 49
4, 50880, Note_on_c, 0, 61, 0
4, 50880, Note_on_c, 0, 57, 0
4, 50880, Note_on_c, 0, 56, 62
4, 50880, Note_on_c, 0, 62, 62
4, 51039, Note_on_c, 0, 62, 0
4, 51039, Note_on_c, 0, 56, 0
4, 51039, Note_on_c, 0, 56, 62
4, 51039, Note_on_c, 0, 62, 62
4, 51200, Note_on_c, 0, 62, 0
4, 51200, Note_on_c, 0, 56, 0
4, 51200, Note_on_c, 0, 56, 62
4, 51200, Note_on_c, 0, 62, 62
4, 51360, Note_on_c, 0, 62, 0
4, 51360, Note_on_c, 0, 56, 0
4, 51360, Note_on_c, 0, 54, 62
4, 51600, Note_on_c, 0, 54, 0
4, 51600, Note_on_c, 0, 56, 62
4, 51840, Note_on_c, 0, 56, 0
4, 51840, Note_on_c, 0, 57, 62
4, 52320, Note_on_c, 0, 57, 0
4, 52320, Note_on_c, 0, 49, 88
4, 52560, Note_on_c, 0, 49, 0
4, 52560, Note_on_c, 0, 50, 88
4, 52800, Note_on_c, 0, 50, 0
4, 52800, Note_on_c, 0, 51, 62
4, 53040, Note_on_c, 0, 51, 0
4, 53040, Note_on_c, 0, 51, 62
4, 53280, Note_on_c, 0, 51, 0
4, 53280, Note_on_c, 0, 62, 49
4, 53439, Note_on_c, 0, 62, 0
4, 53439, Note_on_c, 0, 61, 49
4, 53600, Note_on_c, 0, 61, 0
4, 53600, Note_on_c, 0, 59, 49
4, 53760, Note_on_c, 0, 59, 0
4, 53760, Note_on_c, 0, 61, 49
4, 54000, Note_on_c, 0, 61, 0
4, 54000, Note_on_c, 0, 62, 49
4, 54240, Note_on_c, 0, 62, 0
4, 54240, Note_on_c, 0, 64, 49
4, 54480, Note_on_c, 0, 64, 0
4, 54480, Note_on_c, 0, 66, 49
4, 54720, Note_on_c, 0, 66, 0
4, 54720, Note_on_c, 0, 56, 62
4, 54960, Note_on_c, 0, 56, 0
4, 55200, Note_on_c, 0, 54, 62
4, 55440, Note_on_c, 0, 54, 0
4, 55440, Note_on_c, 0, 56, 62
4, 55680, Note_on_c, 0, 56, 0
4, 55680, Note_on_c, 0, 57, 62
4, 56160, Note_on_c, 0, 57, 0
4, 56160, Note_on_c, 0, 49, 88
4, 56400, Note_on_c, 0, 49, 0
4, 56400, Note_on_c, 0, 50, 88
4, 56640, Note_on_c, 0, 50, 0
4, 56640, Note_on_c, 0, 51, 62
4, 56880, Note_on_c, 0, 51, 0
4, 56880, Note_on_c, 0, 51, 62
4, 57120, Note_on_c, 0, 51, 0
4, 57120, Note_on_c, 0, 62, 49
4, 57279, Note_on_c, 0, 62, 0
4, 57279, Note_on_c, 0, 61, 49
4, 57440, Note_on_c, 0, 61, 0
4, 57440, Note_on_c, 0, 59, 49
4, 57600, Note_on_c, 0, 59, 0
4, 57600, Note_on_c, 0, 60, 49
4, 57840, Note_on_c, 0, 60, 0
4, 57840, Note_on_c, 0, 62, 49
4, 58080, Note_on_c, 0, 62, 0
4, 58080, Note_on_c, 0, 64, 49
4, 58320, Note_on_c, 0, 64, 0
4, 58320, Note_on_c, 0, 65, 49
4, 58560, Note_on_c, 0, 65, 0
4, 58560, Note_on_c, 0, 55, 49
4, 58800, Note_on_c, 0, 55, 0
4, 59040, Note_on_c, 0, 50, 49
4, 59280, Note_on_c, 0, 50, 0
4, 59280, Note_on_c, 0, 52, 49
4, 59520, Note_on_c, 0, 52, 0
4, 59520, Note_on_c, 0, 53, 62
4, 60000, Note_on_c, 0, 53, 0
4, 60000, Note_on_c, 0, 45, 88
4, 60240, Note_on_c, 0, 45, 0
4, 60240, Note_on_c, 0, 46, 88
4, 60480, Note_on_c, 0, 46, 0
4, 60480, Note_on_c, 0, 47, 62
4, 60720, Note_on_c, 0, 47, 0
4, 60720, Note_on_c, 0, 48, 62
4, 60960, Note_on_c, 0, 48, 0
4, 60960, Note_on_c, 0, 58, 49
4, 61119, Note_on_c, 0, 58, 0
4, 61119, Note_on_c, 0, 57, 49
4, 61280, Note_on_c, 0, 57, 0
4, 61280, Note_on_c, 0, 55, 49
4, 61440, Note_on_c, 0, 55, 0
4, 61440, Note_on_c, 0, 57, 49
4, 61680, Note_on_c, 0, 57, 0
4, 61680, Note_on_c, 0, 58, 49
4, 61920, Note_on_c, 0, 58, 0
4, 61920, Note_on_c, 0, 60, 49
4, 62160, Note_on_c, 0, 60, 0
4, 62160, Note_on_c, 0, 62, 49
4, 62400, Note_on_c, 0, 62, 0
4, 62400, Note_on_c, 0, 52, 49
4, 62640, Note_on_c, 0, 52, 0
4, 62880, Note_on_c, 0, 50, 62
4, 63120, Note_on_c, 0, 50, 0
4, 63120, Note_on_c, 0, 52, 62
4, 63360, Note_on_c, 0, 52, 0
4, 63360, Note_on_c, 0, 53, 62
4, 63840, Note_on_c, 0, 53, 0
4, 63840, Note_on_c, 0, 57, 88
4, 64080, Note_on_c, 0, 57, 0
4, 64080, Note_on_c, 0, 58, 88
4, 64320, Note_on_c, 0, 58, 0
4, 64320, Note_on_c, 0, 59, 75
4, 64560, Note_on_c, 0, 59, 0
4, 64560, Note_on_c, 0, 60, 75
4, 64800, Note_on_c, 0, 60, 0
4, 64800, Note_on_c, 0, 50, 75
4, 65040, Note_on_c, 0, 50, 0
4, 65040, Note_on_c, 0, 52, 75
4, 65280, Note_on_c, 0, 52, 0
4, 65280, Note_on_c, 0, 53, 88
4, 65520, Note_on_c, 0, 53, 0
4, 65520, Note_on_c, 0, 55, 88
4, 65760, Note_on_c, 0, 55, 0
4, 65760, Note_on_c, 0, 56, 88
4, 66000, Note_on_c, 0, 56, 0
4, 66000, Note_on_c, 0, 57, 88
4, 66240, Note_on_c, 0, 57, 0
4, 66240, Note_on_c, 0, 57, 101
4, 66480, Note_on_c, 0, 57, 0
4, 66480, Note_on_c, 0, 58, 101
4, 66720, Note_on_c, 0, 58, 0
4, 66720, Note_on_c, 0, 60, 101
4, 66960, Note_on_c, 0, 60, 0
4, 66960, Note_on_c, 0, 61, 101
4, 67140, Note_on_c, 0, 43, 101
4, 67200, Note_on_c, 0, 43, 0
4, 67200, Note_on_c, 0, 61, 0
4, 67200, Note_on_c, 0, 59, 101
4, 67440, Note_on_c, 0, 59, 0
4, 67440, Note_on_c, 0, 57, 101
4, 67440, Note_on_c, 0, 60, 101
4, 67680, Note_on_c, 0, 60, 0
4, 67680, Note_on_c, 0, 57, 0
4, 67680, Note_on_c, 0, 58, 101
4, 67680, Note_on_c, 0, 61, 101
4, 67920, Note_on_c, 0, 61, 0
4, 67920, Note_on_c, 0, 58, 0
4, 67920, Note_on_c, 0, 59, 101
4, 67920, Note_on_c, 0, 62, 101
4, 68160, Note_on_c, 0, 62, 0
4, 68160, Note_on_c, 0, 59, 0
4, 68160, Note_on_c, 0, 57, 101
4, 68160, Note_on_c, 0, 60, 101
4, 68400, Note_on_c, 0, 60, 0
4, 68400, Note_on_c, 0, 57, 0
4, 68400, Note_on_c, 0, 59, 101
4, 68400, Note_on_c, 0, 62, 101
4, 68640, Note_on_c, 0, 62, 0
4, 68640, Note_on_c, 0, 59, 0
4, 68640, Note_on_c, 0, 60, 101
4, 68640, Note_on_c, 0, 63, 101
4, 68880, Note_on_c, 0, 63, 0
4, 68880, Note_on_c, 0, 60, 0
4, 68880, Note_on_c, 0, 62, 101
4, 68880, Note_on_c, 0, 65, 101
4, 69120, Note_on_c, 0, 65, 0
4, 69120, Note_on_c, 0, 62, 0
4, 69120, Note_on_c, 0, 63, 101
4, 69120, Note_on_c, 0, 67, 101
4, 69360, Note_on_c, 0, 67, 0
4, 69360, Note_on_c, 0, 63, 0
4, 69360, Note_on_c, 0, 62, 101
4, 69360, Note_on_c, 0, 65, 101
4, 69600, Note_on_c, 0, 65, 0
4, 69600, Note_on_c, 0, 62, 0
4, 69600, Note_on_c, 0, 60, 101
4, 69600, Note_on_c, 0, 63, 101
4, 69840, Note_on_c, 0, 63, 0
4, 69840, Note_on_c, 0, 60, 0
4, 69840, Note_on_c, 0, 55, 101
4, 69840, Note_on_c, 0, 59, 101
4, 70080, Note_on_c, 0, 59, 0
4, 70080, Note_on_c, 0, 55, 0
4, 70080, Note_on_c, 0, 57, 101
4, 70080, Note_on_c, 0, 60, 101
4, 70320, Note_on_c, 0, 60, 0
4, 70320, Note_on_c, 0, 57, 0
4, 70320, Note_on_c, 0, 59, 101
4, 70320, Note_on_c, 0, 62, 101
4, 70560, Note_on_c, 0, 62, 0
4, 70560, Note_on_c, 0, 59, 0
4, 70560, Note_on_c, 0, 60, 101
4, 70560, Note_on_c, 0, 63, 101
4, 70800, Note_on_c, 0, 63, 0
4, 70800, Note_on_c, 0, 60, 0
4, 70800, Note_on_c, 0, 62, 101
4, 70800, Note_on_c, 0, 65, 101
4, 71040, Note_on_c, 0, 65, 0
4, 71040, Note_on_c, 0, 62, 0
4, 71040, Note_on_c, 0, 63, 101
4, 71040, Note_on_c, 0, 67, 101
4, 71280, Note_on_c, 0, 67, 0
4, 71280, Note_on_c, 0, 63, 0
4, 71280, Note_on_c, 0, 62, 101
4, 71280, Note_on_c, 0, 65, 101
4, 71520, Note_on_c, 0, 65, 0
4, 71520, Note_on_c, 0, 62, 0
4, 71520, Note_on_c, 0, 60, 101
4, 71520, Note_on_c, 0, 63, 101
4, 71760, Note_on_c, 0, 63, 0
4, 71760, Note_on_c, 0, 60, 0
4, 71760, Note_on_c, 0, 58, 101
4, 72000, Note_on_c, 0, 58, 0
4, 72000, Note_on_c, 0, 55, 101
4, 72000, Note_on_c, 0, 58, 101
4, 72240, Note_on_c, 0, 58, 0
4, 72240, Note_on_c, 0, 55, 0
4, 72240, Note_on_c, 0, 57, 101
4, 72240, Note_on_c, 0, 60, 101
4, 72480, Note_on_c, 0, 60, 0
4, 72480, Note_on_c, 0, 57, 0
4, 72480, Note_on_c, 0, 58, 101
4, 72480, Note_on_c, 0, 62, 101
4, 72720, Note_on_c, 0, 62, 0
4, 72720, Note_on_c, 0, 58, 0
4, 72720, Note_on_c, 0, 60, 101
4, 72720, Note_on_c, 0, 63, 101
4, 72960, Note_on_c, 0, 63, 0
4, 72960, Note_on_c, 0, 60, 0
4, 72960, Note_on_c, 0, 62, 101
4, 72960, Note_on_c, 0, 65, 101
4, 73200, Note_on_c, 0, 65, 0
4, 73200, Note_on_c, 0, 62, 0
4, 73200, Note_on_c, 0, 60, 101
4, 73200, Note_on_c, 0, 63, 101
4, 73440, Note_on_c, 0, 63, 0
4, 73440, Note_on_c, 0, 60, 0
4, 73440, Note_on_c, 0, 58, 101
4, 73440, Note_on_c, 0, 62, 101
4, 73680, Note_on_c, 0, 62, 0
4, 73680, Note_on_c, 0, 58, 0
4, 73680, Note_on_c, 0, 57, 101
4, 73920, Note_on_c, 0, 57, 0
4, 73920, Note_on_c, 0, 54, 101
4, 73920, Note_on_c, 0, 57, 101
4, 74160, Note_on_c, 0, 57, 0
4, 74160, Note_on_c, 0, 54, 0
4, 74160, Note_on_c, 0, 55, 101
4, 74160, Note_on_c, 0, 58, 101
4, 74400, Note_on_c, 0, 58, 0
4, 74400, Note_on_c, 0, 55, 0
4, 74400, Note_on_c, 0, 57, 101
4, 74400, Note_on_c, 0, 60, 101
4, 74640, Note_on_c, 0, 60, 0
4, 74640, Note_on_c, 0, 57, 0
4, 74640, Note_on_c, 0, 58, 101
4, 74640, Note_on_c, 0, 62, 101
4, 74880, Note_on_c, 0, 62, 0
4, 74880, Note_on_c, 0, 58, 0
4, 74880, Note_on_c, 0, 60, 101
4, 74880, Note_on_c, 0, 63, 101
4, 75120, Note_on_c, 0, 63, 0
4, 75120, Note_on_c, 0, 60, 0
4, 75120, Note_on_c, 0, 58, 101
4, 75120, Note_on_c, 0, 62, 101
4, 75360, Note_on_c, 0, 62, 0
4, 75360, Note_on_c, 0, 58, 0
4, 75360, Note_on_c, 0, 57, 101
4, 75360, Note_on_c, 0, 60, 101
4, 75600, Note_on_c, 0, 60, 0
4, 75600, Note_on_c, 0, 57, 0
4, 75600, Note_on_c, 0, 55, 101
4, 75600, Note_on_c, 0, 57, 101
4, 75840, Note_on_c, 0, 57, 0
4, 75840, Note_on_c, 0, 55, 0
4, 75840, Control_c, 0, 64, 127
4, 75840, Note_on_c, 0, 38, 75
4, 75879, Note_on_c, 0, 38, 0
4, 75879, Note_on_c, 0, 43, 75
4, 75920, Note_on_c, 0, 43, 0
4, 75920, Note_on_c, 0, 45, 75
4, 75960, Note_on_c, 0, 45, 0
4, 75960, Note_on_c, 0, 50, 75
4, 75999, Note_on_c, 0, 50, 0
4, 75999, Note_on_c, 0, 55, 75
4, 76040, Note_on_c, 0, 55, 0
4, 76040, Note_on_c, 0, 57, 75
4, 76080, Note_on_c, 0, 57, 0
4, 76560, Note_on_c, 0, 62, 75
4, 76607, Note_on_c, 0, 62, 0
4, 76607, Note_on_c, 0, 57, 75
4, 76656, Note_on_c, 0, 57, 0
4, 76656, Note_on_c, 0, 55, 75
4, 76703, Note_on_c, 0, 55, 0
4, 76703, Note_on_c, 0, 50, 75
4, 76752, Note_on_c, 0, 50, 0
4, 76752, Control_c, 0, 64, 0
4, 76752, Note_on_c, 0, 45, 75
4, 76800, Note_on_c, 0, 45, 0
4, 76800, Control_c, 0, 64, 127
4, 76800, Note_on_c, 0, 38, 75
4, 76839, Note_on_c, 0, 38, 0
4, 76839, Note_on_c, 0, 43, 75
4, 76880, Note_on_c, 0, 43, 0
4, 76880, Note_on_c, 0, 45, 75
4, 76920, Note_on_c, 0, 45, 0
4, 76920, Note_on_c, 0, 50, 75
4, 76959, Note_on_c, 0, 50, 0
4, 76959, Note_on_c, 0, 55, 75
4, 77000, Note_on_c, 0, 55, 0
4, 77000, Note_on_c, 0, 57, 75
4, 77040, Note_on_c, 0, 57, 0
4, 77520, Note_on_c, 0, 62, 75
4, 77559, Note_on_c, 0, 62, 0
4, 77559, Note_on_c, 0, 57, 75
4, 77600, Note_on_c, 0, 57, 0
4, 77600, Note_on_c, 0, 55, 75
4, 77640, Note_on_c, 0, 55, 0
4, 77640, Note_on_c, 0, 50, 75
4, 77679, Note_on_c, 0, 50, 0
4, 77679, Note_on_c, 0, 45, 75
4, 77720, Note_on_c, 0, 45, 0
4, 77720, Control_c, 0, 64, 0
4, 77720, Note_on_c, 0, 43, 75
4, 77760, Note_on_c, 0, 43, 0
4, 77760, Control_c, 0, 64, 127
4, 77760, Note_on_c, 0, 38, 75
4, 77799, Note_on_c, 0, 38, 0
4, 77799, Note_on_c, 0, 42, 75
4, 77840, Note_on_c, 0, 42, 0
4, 77840, Note_on_c, 0, 45, 75
4, 77880, Note_on_c, 0, 45, 0
4, 77880, Note_on_c, 0, 50, 75
4, 77919, Note_on_c, 0, 50, 0
4, 77919, Note_on_c, 0, 54, 75
4, 77960, Note_on_c, 0, 54, 0
4, 77960, Note_on_c, 0, 57, 75
4, 78000, Note_on_c, 0, 57, 0
4, 78480, Note_on_c, 0, 62, 75
4, 78519, Note_on_c, 0, 62, 0
4, 78519, Note_on_c, 0, 57, 75
4, 78560, Note_on_c, 0, 57, 0
4, 78560, Note_on_c, 0, 54, 75
4, 78600, Note_on_c, 0, 54, 0
4, 78600, Note_on_c, 0, 50, 75
4, 78639, Note_on_c, 0, 50, 0
4, 78639, Note_on_c, 0, 45, 75
4, 78680, Note_on_c, 0, 45, 0
4, 78680, Control_c, 0, 64, 0
4, 78680, Note_on_c, 0, 42, 75
4, 78720, Note_on_c, 0, 42, 0
4, 78720, Control_c, 0, 64, 0
4, 79680, Note_on_c, 0, 48, 49
4, 79680, Note_on_c, 0, 55, 49
4, 79680, Note_on_c, 0, 63, 49
4, 80640, Note_on_c, 0, 63, 0
4, 80640, Note_on_c, 0, 48, 0
4, 80880, Note_on_c, 0, 55, 0
4, 80880, Note_on_c, 0, 55, 62
4, 80960, Note_on_c, 0, 55, 0
4, 80960, Note_on_c, 0, 57, 62
4, 81039, Note_on_c, 0, 57, 0
4, 81039, Note_on_c, 0, 55, 62
4, 81120, Note_on_c, 0, 55, 0
4, 81120, Note_on_c, 0, 54, 62
4, 81360, Note_on_c, 0, 54, 0
4, 81360, Note_on_c, 0, 55, 62
4, 81600, Note_on_c, 0, 55, 0
4, 81600, Note_on_c, 0, 62, 62
4, 81840, Note_on_c, 0, 62, 0
4, 81840, Note_on_c, 0, 60, 62
4, 82320, Note_on_c, 0, 60, 0
4, 82320, Note_on_c, 0, 53, 62
4, 82560, Note_on_c, 0, 53, 0
4, 82560, Note_on_c, 0, 57, 62
4, 82800, Note_on_c, 0, 57, 0
4, 82800, Note_on_c, 0, 55, 62
4, 83040, Note_on_c, 0, 55, 0
4, 83040, Note_on_c, 0, 54, 62
4, 83280, Note_on_c, 0, 54, 0
4, 83280, Note_on_c, 0, 53, 62
4, 83520, Note_on_c, 0, 53, 0
4, 83520, Note_on_c, 0, 50, 62
4, 83760, Note_on_c, 0, 50, 0
4, 83760, Note_on_c, 0, 48, 62
4, 84000, Note_on_c, 0, 48, 0
4, 84000, Note_on_c, 0, 43, 62
4, 84240, Note_on_c, 0, 43, 0
4, 84240, Note_on_c, 0, 45, 62
4, 84480, Note_on_c, 0, 45, 0
4, 84480, Note_on_c, 0, 34, 62
4, 84480, Note_on_c, 0, 46, 62
4, 84480, Note_on_c, 0, 53, 62
4, 84480, Note_on_c, 0, 58, 62
4, 84480, Note_on_c, 0, 62, 62
4, 84720, Note_on_c, 0, 62, 0
4, 84720, Note_on_c, 0, 53, 0
4, 84720, Note_on_c, 0, 34, 0
4, 84720, Note_on_c, 0, 46, 0
4, 84720, Note_on_c, 0, 58, 0
4, 84720, Control_c, 0, 64, 127
4, 84720, Note_on_c, 0, 65, 62
4, 84754, Note_on_c, 0, 65, 0
4, 84754, Note_on_c, 0, 62, 62
4, 84788, Note_on_c, 0, 62, 0
4, 84788, Note_on_c, 0, 58, 62
4, 84822, Note_on_c, 0, 58, 0
4, 84822, Note_on_c, 0, 55, 62
4, 84857, Note_on_c, 0, 55, 0
4, 84857, Note_on_c, 0, 53, 62
4, 84891, Note_on_c, 0, 53, 0
4, 84891, Note_on_c, 0, 46, 62
4, 84925, Note_on_c, 0, 46, 0
4, 84925, Note_on_c, 0, 46, 62
4, 84960, Note_on_c, 0, 46, 0
4, 84960, Control_c, 0, 64, 0
4, 84960, Note_on_c, 0, 34, 62
4, 85200, Note_on_c, 0, 34, 0
4, 85440, Note_on_c, 0, 53, 62
4, 85440, Note_on_c, 0, 57, 62
4, 85440, Note_on_c, 0, 63, 62
4, 85680, Note_on_c, 0, 63, 0
4, 85680, Note_on_c, 0, 57, 0
4, 85680, Note_on_c, 0, 53, 0
4, 85680, Control_c, 0, 64, 127
4, 85680, Note_on_c, 0, 65, 62
4, 85714, Note_on_c, 0, 65, 0
4, 85714, Note_on_c, 0, 63, 62
4, 85748, Note_on_c, 0, 63, 0
4, 85748, Note_on_c, 0, 57, 62
4, 85782, Note_on_c, 0, 57, 0
4, 85782, Note_on_c, 0, 53, 62
4, 85817, Note_on_c, 0, 53, 0
4, 85817, Note_on_c, 0, 51, 62
4, 85851, Note_on_c, 0, 51, 0
4, 85851, Note_on_c, 0, 46, 62
4, 85885, Note_on_c, 0, 46, 0
4, 85885, Note_on_c, 0, 46, 62
4, 85920, Note_on_c, 0, 46, 0
4, 85920, Control_c, 0, 64, 0
4, 85920, Note_on_c, 0, 34, 62
4, 86160, Note_on_c, 0, 34, 0
4, 86400, Note_on_c, 0, 53, 62
4, 86400, Note_on_c, 0, 58, 62
4, 86400, Note_on_c, 0, 62, 62
4, 86640, Note_on_c, 0, 62, 0
4, 86640, Note_on_c, 0, 58, 0
4, 86640, Note_on_c, 0, 53, 0
4, 86640, Control_c, 0, 64, 127
4, 86640, Note_on_c, 0, 65, 62
4, 86674, Note_on_c, 0, 65, 0
4, 86674, Note_on_c, 0, 62, 62
4, 86708, Note_on_c, 0, 62, 0
4, 86708, Note_on_c, 0, 58, 62
4, 86742, Note_on_c, 0, 58, 0
4, 86742, Note_on_c, 0, 55, 62
4, 86777, Note_on_c, 0, 55, 0
4, 86777, Note_on_c, 0, 53, 62
4, 86811, Note_on_c, 0, 53, 0
4, 86811, Note_on_c, 0, 46, 62
4, 86845, Note_on_c, 0, 46, 0
4, 86845, Note_on_c, 0, 46, 62
4, 86880, Note_on_c, 0, 46, 0
4, 86880, Control_c, 0, 64, 0
4, 86880, Note_on_c, 0, 34, 62
4, 87120, Note_on_c, 0, 34, 0
4, 87360, Note_on_c, 0, 51, 62
4, 87360, Note_on_c, 0, 57, 62
4, 87360, Note_on_c, 0, 60, 62
4, 87600, Note_on_c, 0, 60, 0
4, 87600, Note_on_c, 0, 57, 0
4, 87600, Note_on_c, 0, 51, 0
4, 87600, Control_c, 0, 64, 127
4, 87600, Note_on_c, 0, 63, 62
4, 87634, Note_on_c, 0, 63, 0
4, 87634, Note_on_c, 0, 60, 62
4, 87668, Note_on_c, 0, 60, 0
4, 87668, Note_on_c, 0, 57, 62
4, 87702, Note_on_c, 0, 57, 0
4, 87702, Note_on_c, 0, 54, 62
4, 87737, Note_on_c, 0, 54, 0
4, 87737, Note_on_c, 0, 51, 62
4, 87771, Note_on_c, 0, 51, 0
4, 87771, Note_on_c, 0, 46, 62
4, 87805, Note_on_c, 0, 46, 0
4, 87805, Note_on_c, 0, 46, 62
4, 87840, Note_on_c, 0, 46, 0
4, 87840, Control_c, 0, 64, 0
4, 87840, Note_on_c, 0, 34, 62
4, 88080, Note_on_c, 0, 34, 0
4, 88320, Note_on_c, 0, 50, 62
4, 88320, Note_on_c, 0, 53, 62
4, 88320, Note_on_c, 0, 58, 62
4, 88560, Note_on_c, 0, 58, 0
4, 88560, Note_on_c, 0, 53, 0
4, 88560, Note_on_c, 0, 50, 0
4, 88560, Control_c, 0, 64, 127
4, 88560, Note_on_c, 0, 65, 62
4, 88594, Note_on_c, 0, 65, 0
4, 88594, Note_on_c, 0, 62, 62
4, 88628, Note_on_c, 0, 62, 0
4, 88628, Note_on_c, 0, 58, 62
4, 88662, Note_on_c, 0, 58, 0
4, 88662, Note_on_c, 0, 55, 62
4, 88697, Note_on_c, 0, 55, 0
4, 88697, Note_on_c, 0, 53, 62
4, 88731, Note_on_c, 0, 53, 0
4, 88731, Note_on_c, 0, 46, 62
4, 88765, Note_on_c, 0, 46, 0
4, 88765, Note_on_c, 0, 46, 62
4, 88800, Note_on_c, 0, 46, 0
4, 88800, Control_c, 0, 64, 0
4, 88800, Note_on_c, 0, 34, 62
4, 89040, Note_on_c, 0, 34, 0
4, 89280, Note_on_c, 0, 53, 62
4, 89280, Note_on_c, 0, 57, 62
4, 89280, Note_on_c, 0, 63, 62
4, 89520, Note_on_c, 0, 63, 0
4, 89520, Note_on_c, 0, 57, 0
4, 89520, Note_on_c, 0, 53, 0
4, 89520, Control_c, 0, 64, 127
4, 89520, Note_on_c, 0, 65, 62
4, 89554, Note_on_c, 0, 65, 0
4, 89554, Note_on_c, 0, 63, 62
4, 89588, Note_on_c, 0, 63, 0
4, 89588, Note_on_c, 0, 57, 62
4, 89622, Note_on_c, 0, 57, 0
4, 89622, Note_on_c, 0, 53, 62
4, 89657, Note_on_c, 0, 53, 0
4, 89657, Note_on_c, 0, 51, 62
4, 89691, Note_on_c, 0, 51, 0
4, 89691, Note_on_c, 0, 46, 62
4, 89725, Note_on_c, 0, 46, 0
4, 89725, Note_on_c, 0, 46, 62
4, 89760, Note_on_c, 0, 46, 0
4, 89760, Control_c, 0, 64, 0
4, 89760, Note_on_c, 0, 34, 62
4, 90000, Note_on_c, 0, 34, 0
4, 90240, Note_on_c, 0, 53, 62
4, 90240, Note_on_c, 0, 58, 62
4, 90240, Note_on_c, 0, 62, 62
4, 90480, Note_on_c, 0, 62, 0
4, 90480, Note_on_c, 0, 58, 0
4, 90480, Note_on_c, 0, 53, 0
4, 90480, Control_c, 0, 64, 127
4, 90480, Note_on_c, 0, 65, 62
4, 90514, Note_on_c, 0, 65, 0
4, 90514, Note_on_c, 0, 62, 62
4, 90548, Note_on_c, 0, 62, 0
4, 90548, Note_on_c, 0, 58, 62
4, 90582, Note_on_c, 0, 58, 0
4, 90582, Note_on_c, 0, 55, 62
4, 90617, Note_on_c, 0, 55, 0
4, 90617, Note_on_c, 0, 53, 62
4, 90651, Note_on_c, 0, 53, 0
4, 90651, Note_on_c, 0, 46, 62
4, 90685, Note_on_c, 0, 46, 0
4, 90685, Note_on_c, 0, 46, 62
4, 90720, Note_on_c, 0, 46, 0
4, 90720, Control_c, 0, 64, 0
4, 90720, Note_on_c, 0, 34, 62
4, 90960, Note_on_c, 0, 34, 0
4, 91200, Note_on_c, 0, 50, 62
4, 91200, Note_on_c, 0, 53, 62
4, 91200, Note_on_c, 0, 58, 62
4, 91440, Note_on_c, 0, 58, 0
4, 91440, Note_on_c, 0, 53, 0
4, 91440, Note_on_c, 0, 50, 0
4, 91440, Control_c, 0, 64, 127
4, 91440, Note_on_c, 0, 62, 62
4, 91479, Note_on_c, 0, 62, 0
4, 91479, Note_on_c, 0, 58, 62
4, 91520, Note_on_c, 0, 58, 0
4, 91520, Note_on_c, 0, 55, 62
4, 91560, Note_on_c, 0, 55, 0
4, 91560, Note_on_c, 0, 53, 62
4, 91599, Note_on_c, 0, 53, 0
4, 91599, Note_on_c, 0, 50, 62
4, 91640, Note_on_c, 0, 50, 0
4, 91640, Note_on_c, 0, 50, 62
4, 91680, Note_on_c, 0, 50, 0
4, 91680, Control_c, 0, 64, 0
4, 91680, Note_on_c, 0, 38, 62
4, 91920, Note_on_c, 0, 38, 0
4, 92160, Note_on_c, 0, 51, 62
4, 92160, Note_on_c, 0, 55, 62
4, 92160, Note_on_c, 0, 60, 62
4, 92400, Note_on_c, 0, 60, 0
4, 92400, Note_on_c, 0, 55, 0
4, 92400, Note_on_c, 0, 51, 0
4, 92400, Control_c, 0, 64, 127
4, 92400, Note_on_c, 0, 63, 62
4, 92439, Note_on_c, 0, 63, 0
4, 92439, Note_on_c, 0, 60, 62
4, 92480, Note_on_c, 0, 60, 0
4, 92480, Note_on_c, 0, 57, 62
4, 92520, Note_on_c, 0, 57, 0
4, 92520, Note_on_c, 0, 55, 62
4, 92559, Note_on_c, 0, 55, 0
4, 92559, Note_on_c, 0, 51, 62
4, 92600, Note_on_c, 0, 51, 0
4, 92600, Note_on_c, 0, 51, 62
4, 92640, Note_on_c, 0, 51, 0
4, 92640, Control_c, 0, 64, 0
4, 92640, Note_on_c, 0, 39, 62
4, 92880, Note_on_c, 0, 39, 0
4, 93120, Note_on_c, 0, 50, 62
4, 93120, Note_on_c, 0, 55, 62
4, 93120, Note_on_c, 0, 62, 62
4, 93360, Note_on_c, 0, 62, 0
4, 93360, Note_on_c, 0, 55, 0
4, 93360, Note_on_c, 0, 50, 0
4, 93360, Control_c, 0, 64, 127
4, 93360, Note_on_c, 0, 67, 62
4, 93399, Note_on_c, 0, 67, 0
4, 93399, Note_on_c, 0, 62, 62
4, 93440, Note_on_c, 0, 62, 0
4, 93440, Note_on_c, 0, 60, 62
4, 93480, Note_on_c, 0, 60, 0
4, 93480, Note_on_c, 0, 55, 62
4, 93519, Note_on_c, 0, 55, 0
4, 93519, Note_on_c, 0, 50, 62
4, 93560, Note_on_c, 0, 50, 0
4, 93560, Note_on_c, 0, 50, 62
4, 93600, Note_on_c, 0, 50, 0
4, 93600, Control_c, 0, 64, 0
4, 93600, Note_on_c, 0, 38, 62
4, 93840, Note_on_c, 0, 38, 0
4, 93990, Note_on_c, 0, 48, 62
4, 94020, Note_on_c, 0, 55, 62
4, 94050, Note_on_c, 0, 59, 62
4, 94080, Note_on_c, 0, 65, 62
4, 94320, Note_on_c, 0, 65, 0
4, 94320, Note_on_c, 0, 48, 0
4, 94320, Note_on_c, 0, 55, 0
4, 94320, Note_on_c, 0, 59, 0
4, 94320, Control_c, 0, 64, 127
4, 94320, Note_on_c, 0, 65, 62
4, 94354, Note_on_c, 0, 65, 0
4, 94354, Note_on_c, 0, 62, 62
4, 94388, Note_on_c, 0, 62, 0
4, 94388, Note_on_c, 0, 59, 62
4, 94422, Note_on_c, 0, 59, 0
4, 94422, Note_on_c, 0, 55, 62
4, 94457, Note_on_c, 0, 55, 0
4, 94457, Note_on_c, 0, 53, 62
4, 94491, Note_on_c, 0, 53, 0
4, 94491, Note_on_c, 0, 48, 62
4, 94525, Note_on_c, 0, 48, 0
4, 94525, Note_on_c, 0, 48, 62
4, 94560, Note_on_c, 0, 48, 0
4, 94560, Control_c, 0, 64, 0
4, 94560, Note_on_c, 0, 36, 62
4, 94800, Note_on_c, 0, 36, 0
4, 94960, Note_on_c, 0, 48, 62
4, 95000, Note_on_c, 0, 55, 62
4, 95040, Note_on_c, 0, 63, 62
4, 95280, Note_on_c, 0, 63, 0
4, 95280, Note_on_c, 0, 55, 0
4, 95280, Note_on_c, 0, 48, 0
4, 95280, Control_c, 0, 64, 127
4, 95280, Note_on_c, 0, 67, 62
4, 95314, Note_on_c, 0, 67, 0
4, 95314, Note_on_c, 0, 63, 62
4, 95348, Note_on_c, 0, 63, 0
4, 95348, Note_on_c, 0, 60, 62
4, 95382, Note_on_c, 0, 60, 0
4, 95382, Note_on_c, 0, 55, 62
4, 95417, Note_on_c, 0, 55, 0
4, 95417, Note_on_c, 0, 51, 62
4, 95451, Note_on_c, 0, 51, 0
4, 95451, Note_on_c, 0, 48, 62
4, 95485, Note_on_c, 0, 48, 0
4, 95485, Note_on_c, 0, 48, 62
4, 95520, Note_on_c, 0, 48, 0
4, 95520, Control_c, 0, 64, 0
4, 95520, Note_on_c, 0, 36, 62
4, 95760, Note_on_c, 0, 36, 0
4, 96000, Note_on_c, 0, 39, 62
4, 96000, Note_on_c, 0, 43, 62
4, 96000, Note_on_c, 0, 48, 62
4, 96000, Note_on_c, 0, 51, 62
4, 96159, Note_on_c, 0, 51, 0
4, 96159, Note_on_c, 0, 39, 0
4, 96159, Note_on_c, 0, 43, 0
4, 96159, Note_on_c, 0, 48, 0
4, 96159, Note_on_c, 0, 39, 62
4, 96159, Note_on_c, 0, 43, 62
4, 96159, Note_on_c, 0, 48, 62
4, 96159, Note_on_c, 0, 51, 62
4, 96320, Note_on_c, 0, 51, 0
4, 96320, Note_on_c, 0, 39, 0
4, 96320, Note_on_c, 0, 43, 0
4, 96320, Note_on_c, 0, 48, 0
4, 96320, Note_on_c, 0, 39, 62
4, 96320, Note_on_c, 0, 43, 62
4, 96320, Note_on_c, 0, 48, 62
4, 96320, Note_on_c, 0, 51, 62
4, 96480, Note_on_c, 0, 51, 0
4, 96480, Note_on_c, 0, 39, 0
4, 96480, Note_on_c, 0, 43, 0
4, 96480, Note_on_c, 0, 48, 0
4, 96480, Note_on_c, 0, 39, 62
4, 96480, Note_on_c, 0, 43, 62
4, 96480, Note_on_c, 0, 48, 62
4, 96480, Note_on_c, 0, 51, 62
4, 96639, Note_on_c, 0, 51, 0
4, 96639, Note_on_c, 0, 39, 0
4, 96639, Note_on_c, 0, 43, 0
4, 96639, Note_on_c, 0, 48, 0
4, 96639, Note_on_c, 0, 39, 62
4, 96639, Note_on_c, 0, 43, 62
4, 96639, Note_on_c, 0, 48, 62
4, 96639, Note_on_c, 0, 51, 62
4, 96800, Note_on_c, 0, 51, 0
4, 96800, Note_on_c, 0, 39, 0
4, 96800, Note_on_c, 0, 43, 0
4, 96800, Note_on_c, 0, 48, 0
4, 96800, Note_on_c, 0, 39, 62
4, 96800, Note_on_c, 0, 43, 62
4, 96800, Note_on_c, 0, 48, 62
4, 96800, Note_on_c, 0, 51, 62
4, 96960, Note_on_c, 0, 51, 0
4, 96960, Note_on_c, 0, 39, 0
4, 96960, Note_on_c, 0, 43, 0
4, 96960, Note_on_c, 0, 48, 0
4, 96960, Note_on_c, 0, 40, 62
4, 96960, Note_on_c, 0, 43, 62
4, 96960, Note_on_c, 0, 49, 62
4, 96960, Note_on_c, 0, 52, 62
4, 97119, Note_on_c, 0, 52, 0
4, 97119, Note_on_c, 0, 40, 0
4, 97119, Note_on_c, 0, 43, 0
4, 97119, Note_on_c, 0, 49, 0
4, 97119, Note_on_c, 0, 40, 62
4, 97119, Note_on_c, 0, 43, 62
4, 97119, Note_on_c, 0, 49, 62
4, 97119, Note_on_c, 0, 52, 62
4, 97280, Note_on_c, 0, 52, 0
4, 97280, Note_on_c, 0, 40, 0
4, 97280, Note_on_c, 0, 43, 0
4, 97280, Note_on_c, 0, 49, 0
4, 97280, Note_on_c, 0, 40, 62
4, 97280, Note_on_c, 0, 43, 62
4, 97280, Note_on_c, 0, 49, 62
4, 97280, Note_on_c, 0, 52, 62
4, 97440, Note_on_c, 0, 52, 0
4, 97440, Note_on_c, 0, 40, 0
4, 97440, Note_on_c, 0, 43, 0
4, 97440, Note_on_c, 0, 49, 0
4, 97440, Note_on_c, 0, 40, 62
4, 97440, Note_on_c, 0, 43, 62
4, 97440, Note_on_c, 0, 49, 62
4, 97440, Note_on_c, 0, 52, 62
4, 97599, Note_on_c, 0, 52, 0
4, 97599, Note_on_c, 0, 40, 0
4, 97599, Note_on_c, 0, 43, 0
4, 97599, Note_on_c, 0, 49, 0
4, 97599, Note_on_c, 0, 40, 62
4, 97599, Note_on_c, 0, 43, 62
4, 97599, Note_on_c, 0, 49, 62
4, 97599, Note_on_c, 0, 52, 62
4, 97760, Note_on_c, 0, 52, 0
4, 97760, Note_on_c, 0, 40, 0
4, 97760, Note_on_c, 0, 43, 0
4, 97760, Note_on_c, 0, 49, 0
4, 97760, Note_on_c, 0, 40, 62
4, 97760, Note_on_c, 0, 43, 62
4, 97760, Note_on_c, 0, 49, 62
4, 97760, Note_on_c, 0, 52, 62
4, 97920, Note_on_c, 0, 52, 0
4, 97920, Note_on_c, 0, 40, 0
4, 97920, Note_on_c, 0, 43, 0
4, 97920, Note_on_c, 0, 49, 0
4, 97920, Note_on_c, 0, 41, 49
4, 97920, Note_on_c, 0, 46, 49
4, 97920, Note_on_c, 0, 50, 49
4, 97920, Note_on_c, 0, 53, 49
4, 98079, Note_on_c, 0, 53, 0
4, 98079, Note_on_c, 0, 41, 0
4, 98079, Note_on_c, 0, 46, 0
4, 98079, Note_on_c, 0, 50, 0
4, 98079, Note_on_c, 0, 41, 49
4, 98079, Note_on_c, 0, 46, 49
4, 98079, Note_on_c, 0, 50, 49
4, 98079, Note_on_c, 0, 53, 49
4, 98240, Note_on_c, 0, 53, 0
4, 98240, Note_on_c, 0, 41, 0
4, 98240, Note_on_c, 0, 46, 0
4, 98240, Note_on_c, 0, 50, 0
4, 98240, Note_on_c, 0, 41, 49
4, 98240, Note_on_c, 0, 46, 49
4, 98240, Note_on_c, 0, 53, 49
4, 98400, Note_on_c, 0, 53, 0
4, 98400, Note_on_c, 0, 46, 0
4, 98400, Note_on_c, 0, 41, 0
4, 98400, Note_on_c, 0, 41, 49
4, 98400, Note_on_c, 0, 46, 49
4, 98400, Note_on_c, 0, 53, 49
4, 98559, Note_on_c, 0, 53, 0
4, 98559, Note_on_c, 0, 46, 0
4, 98559, Note_on_c, 0, 41, 0
4, 98559, Note_on_c, 0, 41, 49
4, 98559, Note_on_c, 0, 46, 49
4, 98559, Note_on_c, 0, 53, 49
4, 98720, Note_on_c, 0, 53, 0
4, 98720, Note_on_c, 0, 46, 0
4, 98720, Note_on_c, 0, 41, 0
4, 98720, Note_on_c, 0, 41, 49
4, 98720, Note_on_c, 0, 46, 49
4, 98720, Note_on_c, 0, 53, 49
4, 98880, Note_on_c, 0, 53, 0
4, 98880, Note_on_c, 0, 46, 0
4, 98880, Note_on_c, 0, 41, 0
4, 98880, Note_on_c, 0, 42, 49
4, 98880, Note_on_c, 0, 46, 49
4, 98880, Note_on_c, 0, 54, 49
4, 99039, Note_on_c, 0, 54, 0
4, 99039, Note_on_c, 0, 46, 0
4, 99039, Note_on_c, 0, 42, 0
4, 99039, Note_on_c, 0, 42, 49
4, 99039, Note_on_c, 0, 46, 49
4, 99039, Note_on_c, 0, 54, 49
4, 99200, Note_on_c, 0, 54, 0
4, 99200, Note_on_c, 0, 46, 0
4, 99200, Note_on_c, 0, 42, 0
4, 99200, Note_on_c, 0, 42, 49
4, 99200, Note_on_c, 0, 46, 49
4, 99200, Note_on_c, 0, 54, 49
4, 99360, Note_on_c, 0, 54, 0
4, 99360, Note_on_c, 0, 46, 0
4, 99360, Note_on_c, 0, 42, 0
4, 99360, Note_on_c, 0, 42, 49
4, 99360, Note_on_c, 0, 46, 49
4, 99360, Note_on_c, 0, 54, 49
4, 99519, Note_on_c, 0, 54, 0
4, 99519, Note_on_c, 0, 46, 0
4, 99519, Note_on_c, 0, 42, 0
4, 99519, Note_on_c, 0, 42, 49
4, 99519, Note_on_c, 0, 46, 49
4, 99519, Note_on_c, 0, 54, 49
4, 99680, Note_on_c, 0, 54, 0
4, 99680, Note_on_c, 0, 46, 0
4, 99680, Note_on_c, 0, 42, 0
4, 99680, Note_on_c, 0, 42, 49
4, 99680, Note_on_c, 0, 46, 49
4, 99680, Note_on_c, 0, 54, 49
4, 99840, Note_on_c, 0, 54, 0
4, 99840, Note_on_c, 0, 46, 0
4, 99840, Note_on_c, 0, 42, 0
4, 99840, Note_on_c, 0, 43, 62
4, 99840, Note_on_c, 0, 46, 62
4, 99840, Note_on_c, 0, 50, 62
4, 99840, Note_on_c, 0, 55, 62
4, 99999, Note_on_c, 0, 55, 0
4, 99999, Note_on_c, 0, 43, 0
4, 99999, Note_on_c, 0, 46, 0
4, 99999, Note_on_c, 0, 50, 0
4, 99999, Note_on_c, 0, 43, 62
4, 99999, Note_on_c, 0, 46, 62
4, 99999, Note_on_c, 0, 50, 62
4, 99999, Note_on_c, 0, 55, 62
4, 100160, Note_on_c, 0, 55, 0
4, 100160, Note_on_c, 0, 43, 0
4, 100160, Note_on_c, 0, 46, 0
4, 100160, Note_on_c, 0, 50, 0
4, 100160, Note_on_c, 0, 43, 62
4, 100160, Note_on_c, 0, 50, 62
4, 100160, Note_on_c, 0, 55, 62
4, 100320, Note_on_c, 0, 55, 0
4, 100320, Note_on_c, 0, 50, 0
4, 100320, Note_on_c, 0, 43, 0
4, 100320, Note_on_c, 0, 43, 62
4, 100320, Note_on_c, 0, 50, 62
4, 100320, Note_on_c, 0, 55, 62
4, 100479, Note_on_c, 0, 55, 0
4, 100479, Note_on_c, 0, 50, 0
4, 100479, Note_on_c, 0, 43, 0
4, 100479, Note_on_c, 0, 43, 62
4, 100479, Note_on_c, 0, 50, 62
4, 100479, Note_on_c, 0, 55, 62
4, 100640, Note_on_c, 0, 55, 0
4, 100640, Note_on_c, 0, 50, 0
4, 100640, Note_on_c, 0, 43, 0
4, 100640, Note_on_c, 0, 43, 62
4, 100640, Note_on_c, 0, 50, 62
4, 100640, Note_on_c, 0, 55, 62
4, 100800, Note_on_c, 0, 55, 0
4, 100800, Note_on_c, 0, 50, 0
4, 100800, Note_on_c, 0, 43, 0
4, 100800, Note_on_c, 0, 44, 62
4, 100800, Note_on_c, 0, 50, 62
4, 100800, Note_on_c, 0, 53, 62
4, 100800, Note_on_c, 0, 56, 62
4, 100959, Note_on_c, 0, 56, 0
4, 100959, Note_on_c, 0, 44, 0
4, 100959, Note_on_c, 0, 50, 0
4, 100959, Note_on_c, 0, 53, 0
4, 100959, Note_on_c, 0, 44, 62
4, 100959, Note_on_c, 0, 50, 62
4, 100959, Note_on_c, 0, 53, 62
4, 100959, Note_on_c, 0, 56, 62
4, 101120, Note_on_c, 0, 56, 0
4, 101120, Note_on_c, 0, 44, 0
4, 101120, Note_on_c, 0, 50, 0
4, 101120, Note_on_c, 0, 53, 0
4, 101120, Note_on_c, 0, 44, 62
4, 101120, Note_on_c, 0, 50, 62
4, 101120, Note_on_c, 0, 53, 62
4, 101120, Note_on_c, 0, 56, 62
4, 101280, Note_on_c, 0, 56, 0
4, 101280, Note_on_c, 0, 44, 0
4, 101280, Note_on_c, 0, 50, 0
4, 101280, Note_on_c, 0, 53, 0
4, 101280, Note_on_c, 0, 44, 62
4, 101280, Note_on_c, 0, 50, 62
4, 101280, Note_on_c, 0, 53, 62
4, 101280, Note_on_c, 0, 56, 62
4, 101439, Note_on_c, 0, 56, 0
4, 101439, Note_on_c, 0, 44, 0
4, 101439, Note_on_c, 0, 50, 0
4, 101439, Note_on_c, 0, 53, 0
4, 101439, Note_on_c, 0, 44, 62
4, 101439, Note_on_c, 0, 50, 62
4, 101439, Note_on_c, 0, 53, 62
4, 101439, Note_on_c, 0, 56, 62
4, 101600, Note_on_c, 0, 56, 0
4, 101600, Note_on_c, 0, 44, 0
4, 101600, Note_on_c, 0, 50, 0
4, 101600, Note_on_c, 0, 53, 0
4, 101600, Note_on_c, 0, 44, 62
4, 101600, Note_on_c, 0, 50, 62
4, 101600, Note_on_c, 0, 53, 62
4, 101600, Note_on_c, 0, 56, 62
4, 101760, Note_on_c, 0, 56, 0
4, 101760, Note_on_c, 0, 44, 0
4, 101760, Note_on_c, 0, 50, 0
4, 101760, Note_on_c, 0, 53, 0
4, 101760, Note_on_c, 0, 45, 62
4, 101760, Note_on_c, 0, 50, 62
4, 101760, Note_on_c, 0, 53, 62
4, 101760, Note_on_c, 0, 57, 62
4, 101919, Note_on_c, 0, 57, 0
4, 101919, Note_on_c, 0, 45, 0
4, 101919, Note_on_c, 0, 50, 0
4, 101919, Note_on_c, 0, 53, 0
4, 101919, Note_on_c, 0, 45, 62
4, 101919, Note_on_c, 0, 50, 62
4, 101919, Note_on_c, 0, 53, 62
4, 101919, Note_on_c, 0, 57, 62
4, 102080, Note_on_c, 0, 57, 0
4, 102080, Note_on_c, 0, 45, 0
4, 102080, Note_on_c, 0, 50, 0
4, 102080, Note_on_c, 0, 53, 0
4, 102080, Note_on_c, 0, 45, 62
4, 102080, Note_on_c, 0, 50, 62
4, 102080, Note_on_c, 0, 57, 62
4, 102240, Note_on_c, 0, 57, 0
4, 102240, Note_on_c, 0, 50, 0
4, 102240, Note_on_c, 0, 45, 0
4, 102240, Note_on_c, 0, 45, 62
4, 102240, Note_on_c, 0, 50, 62
4, 102240, Note_on_c, 0, 57, 62
4, 102399, Note_on_c, 0, 57, 0
4, 102399, Note_on_c, 0, 50, 0
4, 102399, Note_on_c, 0, 45, 0
4, 102399, Note_on_c, 0, 45, 62
4, 102399, Note_on_c, 0, 50, 62
4, 102399, Note_on_c, 0, 57, 62
4, 102560, Note_on_c, 0, 57, 0
4, 102560, Note_on_c, 0, 50, 0
4, 102560, Note_on_c, 0, 45, 0
4, 102560, Note_on_c, 0, 45, 62
4, 102560, Note_on_c, 0, 50, 62
4, 102560, Note_on_c, 0, 57, 62
4, 102720, Note_on_c, 0, 57, 0
4, 102720, Note_on_c, 0, 50, 0
4, 102720, Note_on_c, 0, 45, 0
4, 102720, Note_on_c, 0, 46, 62
4, 102720, Note_on_c, 0, 50, 62
4, 102720, Note_on_c, 0, 55, 62
4, 102720, Note_on_c, 0, 58, 62
4, 102879, Note_on_c, 0, 58, 0
4, 102879, Note_on_c, 0, 46, 0
4, 102879, Note_on_c, 0, 50, 0
4, 102879, Note_on_c, 0, 55, 0
4, 102879, Note_on_c, 0, 46, 62
4, 102879, Note_on_c, 0, 50, 62
4, 102879, Note_on_c, 0, 55, 62
4, 102879, Note_on_c, 0, 58, 62
4, 103040, Note_on_c, 0, 58, 0
4, 103040, Note_on_c, 0, 46, 0
4, 103040, Note_on_c, 0, 50, 0
4, 103040, Note_on_c, 0, 55, 0
4, 103040, Note_on_c, 0, 46, 62
4, 103040, Note_on_c, 0, 50, 62
4, 103040, Note_on_c, 0, 55, 62
4, 103040, Note_on_c, 0, 58, 62
4, 103200, Note_on_c, 0, 58, 0
4, 103200, Note_on_c, 0, 46, 0
4, 103200, Note_on_c, 0, 50, 0
4, 103200, Note_on_c, 0, 55, 0
4, 103200, Note_on_c, 0, 46, 62
4, 103200, Note_on_c, 0, 50, 62
4, 103200, Note_on_c, 0, 55, 62
4, 103200, Note_on_c, 0, 58, 62
4, 103359, Note_on_c, 0, 58, 0
4, 103359, Note_on_c, 0, 46, 0
4, 103359, Note_on_c, 0, 50, 0
4, 103359, Note_on_c, 0, 55, 0
4, 103359, Note_on_c, 0, 46, 62
4, 103359, Note_on_c, 0, 50, 62
4, 103359, Note_on_c, 0, 55, 62
4, 103359, Note_on_c, 0, 58, 62
4, 103520, Note_on_c, 0, 58, 0
4, 103520, Note_on_c, 0, 46, 0
4, 103520, Note_on_c, 0, 50, 0
4, 103520, Note_on_c, 0, 55, 0
4, 103520, Note_on_c, 0, 46, 62
4, 103520, Note_on_c, 0, 50, 62
4, 103520, Note_on_c, 0, 55, 62
4, 103520, Note_on_c, 0, 58, 62
4, 103680, Note_on_c, 0, 58, 0
4, 103680, Note_on_c, 0, 46, 0
4, 103680, Note_on_c, 0, 50, 0
4, 103680, Note_on_c, 0, 55, 0
4, 103680, Note_on_c, 0, 47, 75
4, 103680, Note_on_c, 0, 50, 75
4, 103680, Note_on_c, 0, 56, 75
4, 103680, Note_on_c, 0, 59, 75
4, 103839, Note_on_c, 0, 59, 0
4, 103839, Note_on_c, 0, 47, 0
4, 103839, Note_on_c, 0, 50, 0
4, 103839, Note_on_c, 0, 56, 0
4, 103839, Note_on_c, 0, 47, 75
4, 103839, Note_on_c, 0, 50, 75
4, 103839, Note_on_c, 0, 56, 75
4, 103839, Note_on_c, 0, 59, 75
4, 104000, Note_on_c, 0, 59, 0
4, 104000, Note_on_c, 0, 47, 0
4, 104000, Note_on_c, 0, 50, 0
4, 104000, Note_on_c, 0, 56, 0
4, 104000, Note_on_c, 0, 47, 75
4, 104000, Note_on_c, 0, 50, 75
4, 104000, Note_on_c, 0, 56, 75
4, 104000, Note_on_c, 0, 59, 75
4, 104160, Note_on_c, 0, 59, 0
4, 104160, Note_on_c, 0, 47, 0
4, 104160, Note_on_c, 0, 50, 0
4, 104160, Note_on_c, 0, 56, 0
4, 104160, Note_on_c, 0, 47, 75
4, 104160, Note_on_c, 0, 50, 75
4, 104160, Note_on_c, 0, 56, 75
4, 104160, Note_on_c, 0, 59, 75
4, 104319, Note_on_c, 0, 59, 0
4, 104319, Note_on_c, 0, 47, 0
4, 104319, Note_on_c, 0, 50, 0
4, 104319, Note_on_c, 0, 56, 0
4, 104319, Note_on_c, 0, 47, 75
4, 104319, Note_on_c, 0, 50, 75
4, 104319, Note_on_c, 0, 56, 75
4, 104319, Note_on_c, 0, 59, 75
4, 104480, Note_on_c, 0, 59, 0
4, 104480, Note_on_c, 0, 47, 0
4, 104480, Note_on_c, 0, 50, 0
4, 104480, Note_on_c, 0, 56, 0
4, 104480, Note_on_c, 0, 47, 75
4, 104480, Note_on_c, 0, 50, 75
4, 104480, Note_on_c, 0, 56, 75
4, 104480, Note_on_c, 0, 59, 75
4, 104640, Note_on_c, 0, 59, 0
4, 104640, Note_on_c, 0, 47, 0
4, 104640, Note_on_c, 0, 50, 0
4, 104640, Note_on_c, 0, 56, 0
4, 104640, Note_on_c, 0, 48, 75
4, 104640, Note_on_c, 0, 53, 75
4, 104640, Note_on_c, 0, 57, 75
4, 104640, Note_on_c, 0, 60, 75
4, 104799, Note_on_c, 0, 60, 0
4, 104799, Note_on_c, 0, 48, 0
4, 104799, Note_on_c, 0, 53, 0
4, 104799, Note_on_c, 0, 57, 0
4, 104799, Note_on_c, 0, 48, 75
4, 104799, Note_on_c, 0, 53, 75
4, 104799, Note_on_c, 0, 57, 75
4, 104799, Note_on_c, 0, 60, 75
4, 104960, Note_on_c, 0, 60, 0
4, 104960, Note_on_c, 0, 48, 0
4, 104960, Note_on_c, 0, 53, 0
4, 104960, Note_on_c, 0, 57, 0
4, 104960, Note_on_c, 0, 48, 75
4, 104960, Note_on_c, 0, 53, 75
4, 104960, Note_on_c, 0, 57, 75
4, 104960, Note_on_c, 0, 60, 75
4, 105120, Note_on_c, 0, 60, 0
4, 105120, Note_on_c, 0, 48, 0
4, 105120, Note_on_c, 0, 53, 0
4, 105120, Note_on_c, 0, 57, 0
4, 105120, Note_on_c, 0, 48, 75
4, 105120, Note_on_c, 0, 53, 75
4, 105120, Note_on_c, 0, 60, 75
4, 105279, Note_on_c, 0, 60, 0
4, 105279, Note_on_c, 0, 53, 0
4, 105279, Note_on_c, 0, 48, 0
4, 105279, Note_on_c, 0, 48, 75
4, 105279, Note_on_c, 0, 53, 75
4, 105279, Note_on_c, 0, 60, 75
4, 105440, Note_on_c, 0, 60, 0
4, 105440, Note_on_c, 0, 53, 0
4, 105440, Note_on_c, 0, 48, 0
4, 105440, Note_on_c, 0, 48, 75
4, 105440, Note_on_c, 0, 53, 75
4, 105440, Note_on_c, 0, 60, 75
4, 105600, Note_on_c, 0, 60, 0
4, 105600, Note_on_c, 0, 53, 0
4, 105600, Note_on_c, 0, 48, 0
4, 105600, Note_on_c, 0, 49, 75
4, 105600, Note_on_c, 0, 53, 75
4, 105600, Note_on_c, 0, 57, 75
4, 105600, Note_on_c, 0, 61, 75
4, 105759, Note_on_c, 0, 61, 0
4, 105759, Note_on_c, 0, 49, 0
4, 105759, Note_on_c, 0, 53, 0
4, 105759, Note_on_c, 0, 57, 0
4, 105759, Note_on_c, 0, 49, 75
4, 105759, Note_on_c, 0, 53, 75
4, 105759, Note_on_c, 0, 57, 75
4, 105759, Note_on_c, 0, 61, 75
4, 105920, Note_on_c, 0, 61, 0
4, 105920, Note_on_c, 0, 49, 0
4, 105920, Note_on_c, 0, 53, 0
4, 105920, Note_on_c, 0, 57, 0
4, 105920, Note_on_c, 0, 49, 75
4, 105920, Note_on_c, 0, 53, 75
4, 105920, Note_on_c, 0, 57, 75
4, 105920, Note_on_c, 0, 61, 75
4, 106080, Note_on_c, 0, 61, 0
4, 106080, Note_on_c, 0, 49, 0
4, 106080, Note_on_c, 0, 53, 0
4, 106080, Note_on_c, 0, 57, 0
4, 106080, Note_on_c, 0, 49, 75
4, 106080, Note_on_c, 0, 53, 75
4, 106080, Note_on_c, 0, 57, 75
4, 106080, Note_on_c, 0, 61, 75
4, 106239, Note_on_c, 0, 61, 0
4, 106239, Note_on_c, 0, 49, 0
4, 106239, Note_on_c, 0, 53, 0
4, 106239, Note_on_c, 0, 57, 0
4, 106239, Note_on_c, 0, 49, 75
4, 106239, Note_on_c, 0, 53, 75
4, 106239, Note_on_c, 0, 57, 75
4, 106239, Note_on_c, 0, 61, 75
4, 106400, Note_on_c, 0, 61, 0
4, 106400, Note_on_c, 0, 49, 0
4, 106400, Note_on_c, 0, 53, 0
4, 106400, Note_on_c, 0, 57, 0
4, 106400, Note_on_c, 0, 49, 75
4, 106400, Note_on_c, 0, 53, 75
4, 106400, Note_on_c, 0, 57, 75
4, 106400, Note_on_c, 0, 61, 75
4, 106560, Note_on_c, 0, 61, 0
4, 106560, Note_on_c, 0, 49, 0
4, 106560, Note_on_c, 0, 53, 0
4, 106560, Note_on_c, 0, 57, 0
4, 106560, Note_on_c, 0, 50, 75
4, 106560, Note_on_c, 0, 53, 75
4, 106560, Note_on_c, 0, 57, 75
4, 106560, Note_on_c, 0, 62, 75
4, 106719, Note_on_c, 0, 62, 0
4, 106719, Note_on_c, 0, 50, 0
4, 106719, Note_on_c, 0, 53, 0
4, 106719, Note_on_c, 0, 57, 0
4, 106719, Note_on_c, 0, 50, 75
4, 106719, Note_on_c, 0, 53, 75
4, 106719, Note_on_c, 0, 57, 75
4, 106719, Note_on_c, 0, 62, 75
4, 106880, Note_on_c, 0, 62, 0
4, 106880, Note_on_c, 0, 50, 0
4, 106880, Note_on_c, 0, 53, 0
4, 106880, Note_on_c, 0, 57, 0
4, 106880, Note_on_c, 0, 50, 75
4, 106880, Note_on_c, 0, 53, 75
4, 106880, Note_on_c, 0, 57, 75
4, 106880, Note_on_c, 0, 62, 75
4, 107040, Note_on_c, 0, 62, 0
4, 107040, Note_on_c, 0, 50, 0
4, 107040, Note_on_c, 0, 53, 0
4, 107040, Note_on_c, 0, 57, 0
4, 107040, Note_on_c, 0, 62, 75
4, 107040, Note_on_c, 0, 65, 75
4, 107199, Note_on_c, 0, 65, 0
4, 107199, Note_on_c, 0, 62, 0
4, 107199, Note_on_c, 0, 62, 75
4, 107199, Note_on_c, 0, 65, 75
4, 107360, Note_on_c, 0, 65, 0
4, 107360, Note_on_c, 0, 62, 0
4, 107360, Note_on_c, 0, 62, 75
4, 107360, Note_on_c, 0, 65, 75
4, 107520, Note_on_c, 0, 65, 0
4, 107520, Note_on_c, 0, 62, 0
4, 107520, Note_on_c, 0, 63, 114
4, 108480, Note_on_c, 0, 63, 0
4, 108480, Note_on_c, 0, 60, 114
4, 109440, Note_on_c, 0, 60, 0
4, 109599, Note_on_c, 0, 60, 88
4, 109599, Note_on_c, 0, 63, 88
4, 109760, Note_on_c, 0, 63, 0
4, 109760, Note_on_c, 0, 60, 0
4, 109760, Note_on_c, 0, 60, 88
4, 109760, Note_on_c, 0, 63, 88
4, 109920, Note_on_c, 0, 63, 0
4, 109920, Note_on_c, 0, 60, 0
4, 110079, Note_on_c, 0, 57, 88
4, 110079, Note_on_c, 0, 60, 88
4, 110240, Note_on_c, 0, 60, 0
4, 110240, Note_on_c, 0, 57, 0
4, 110240, Note_on_c, 0, 57, 88
4, 110240, Note_on_c, 0, 60, 88
4, 110400, Note_on_c, 0, 60, 0
4, 110400, Note_on_c, 0, 57, 0
4, 110559, Note_on_c, 0, 51, 88
4, 110559, Note_on_c, 0, 57, 88
4, 110720, Note_on_c, 0, 57, 0
4, 110720, Note_on_c, 0, 51, 0
4, 110720, Note_on_c, 0, 51, 88
4, 110720, Note_on_c, 0, 57, 88
4, 110880, Note_on_c, 0, 57, 0
4, 110880, Note_on_c, 0, 51, 0
4, 111039, Note_on_c, 0, 48, 88
4, 111200, Note_on_c, 0, 48, 0
4, 111200, Note_on_c, 0, 48, 88
4, 111200, Note_on_c, 0, 50, 88
4, 111360, Note_on_c, 0, 50, 0
4, 111360, Note_on_c, 0, 48, 0
4, 111519, Note_on_c, 0, 59, 88
4, 111519, Note_on_c, 0, 62, 88
4, 111680, Note_on_c, 0, 62, 0
4, 111680, Note_on_c, 0, 59, 0
4, 111680, Note_on_c, 0, 59, 88
4, 111680, Note_on_c, 0, 62, 88
4, 111840, Note_on_c, 0, 62, 0
4, 111840, Note_on_c, 0, 59, 0
4, 111840, Note_on_c, 0, 55, 114
4, 111840, Note_on_c, 0, 59, 114
4, 112080, Note_on_c, 0, 59, 0
4, 112080, Note_on_c, 0, 55, 0
4, 112080, Note_on_c, 0, 57, 114
4, 112080, Note_on_c, 0, 60, 114
4, 112320, Note_on_c, 0, 60, 0
4, 112320, Note_on_c, 0, 57, 0
4, 112320, Note_on_c, 0, 59, 114
4, 112320, Note_on_c, 0, 62, 114
4, 112560, Note_on_c, 0, 62, 0
4, 112560, Note_on_c, 0, 59, 0
4, 112560, Note_on_c, 0, 59, 114
4, 112560, Note_on_c, 0, 62, 114
4, 112800, Note_on_c, 0, 62, 0
4, 112800, Note_on_c, 0, 59, 0
4, 112800, Note_on_c, 0, 60, 114
4, 112800, Note_on_c, 0, 63, 114
4, 113040, Note_on_c, 0, 63, 0
4, 113040, Note_on_c, 0, 60, 0
4, 113040, Note_on_c, 0, 62, 114
4, 113040, Note_on_c, 0, 65, 114
4, 113280, Note_on_c, 0, 65, 0
4, 113280, Note_on_c, 0, 62, 0
4, 113280, Note_on_c, 0, 60, 88
4, 113439, Note_on_c, 0, 60, 0
4, 113439, Note_on_c, 0, 60, 88
4, 113600, Note_on_c, 0, 60, 0
4, 113600, Note_on_c, 0, 60, 88
4, 113760, Note_on_c, 0, 60, 0
4, 113760, Note_on_c, 0, 60, 88
4, 113919, Note_on_c, 0, 60, 0
4, 113919, Note_on_c, 0, 60, 88
4, 114080, Note_on_c, 0, 60, 0
4, 114080, Note_on_c, 0, 60, 88
4, 114240, Note_on_c, 0, 60, 0
4, 114240, Note_on_c, 0, 60, 88
4, 114480, Note_on_c, 0, 60, 0
4, 115200, Note_on_c, 0, 39, 88
4, 115200, Note_on_c, 0, 48, 88
4, 115200, Note_on_c, 0, 51, 88
4, 115359, Note_on_c, 0, 51, 0
4, 115359, Note_on_c, 0, 48, 0
4, 115359, Note_on_c, 0, 39, 0
4, 115359, Note_on_c, 0, 39, 88
4, 115359, Note_on_c, 0, 48, 88
4, 115359, Note_on_c, 0, 51, 88
4, 115520, Note_on_c, 0, 51, 0
4, 115520, Note_on_c, 0, 48, 0
4, 115520, Note_on_c, 0, 39, 0
4, 115520, Note_on_c, 0, 39, 88
4, 115520, Note_on_c, 0, 48, 88
4, 115520, Note_on_c, 0, 51, 88
4, 115680, Note_on_c, 0, 51, 0
4, 115680, Note_on_c, 0, 48, 0
4, 115680, Note_on_c, 0, 39, 0
4, 115680, Note_on_c, 0, 39, 88
4, 115680, Note_on_c, 0, 48, 88
4, 115680, Note_on_c, 0, 51, 88
4, 115839, Note_on_c, 0, 51, 0
4, 115839, Note_on_c, 0, 48, 0
4, 115839, Note_on_c, 0, 39, 0
4, 115839, Note_on_c, 0, 39, 88
4, 115839, Note_on_c, 0, 48, 88
4, 115839, Note_on_c, 0, 51, 88
4, 116000, Note_on_c, 0, 51, 0
4, 116000, Note_on_c, 0, 48, 0
4, 116000, Note_on_c, 0, 39, 0
4, 116000, Note_on_c, 0, 39, 88
4, 116000, Note_on_c, 0, 48, 88
4, 116000, Note_on_c, 0, 51, 88
4, 116160, Note_on_c, 0, 51, 0
4, 116160, Note_on_c, 0, 48, 0
4, 116160, Note_on_c, 0, 39, 0
4, 116160, Note_on_c, 0, 39, 88
4, 116160, Note_on_c, 0, 48, 88
4, 116160, Note_on_c, 0, 51, 88
4, 116319, Note_on_c, 0, 51, 0
4, 116319, Note_on_c, 0, 48, 0
4, 116319, Note_on_c, 0, 39, 0
4, 116319, Note_on_c, 0, 39, 88
4, 116319, Note_on_c, 0, 48, 88
4, 116319, Note_on_c, 0, 51, 88
4, 116480, Note_on_c, 0, 51, 0
4, 116480, Note_on_c, 0, 48, 0
4, 116480, Note_on_c, 0, 39, 0
4, 116480, Note_on_c, 0, 39, 88
4, 116480, Note_on_c, 0, 48, 88
4, 116480, Note_on_c, 0, 51, 88
4, 116640, Note_on_c, 0, 51, 0
4, 116640, Note_on_c, 0, 48, 0
4, 116640, Note_on_c, 0, 39, 0
4, 116640, Note_on_c, 0, 39, 88
4, 116640, Note_on_c, 0, 48, 88
4, 116640, Note_on_c, 0, 51, 88
4, 116880, Note_on_c, 0, 51, 0
4, 116880, Note_on_c, 0, 48, 0
4, 116880, Note_on_c, 0, 39, 0
4, 117120, Note_on_c, 0, 40, 88
4, 117120, Note_on_c, 0, 49, 88
4, 117120, Note_on_c, 0, 52, 88
4, 117279, Note_on_c, 0, 52, 0
4, 117279, Note_on_c, 0, 49, 0
4, 117279, Note_on_c, 0, 40, 0
4, 117279, Note_on_c, 0, 40, 88
4, 117279, Note_on_c, 0, 49, 88
4, 117279, Note_on_c, 0, 52, 88
4, 117440, Note_on_c, 0, 52, 0
4, 117440, Note_on_c, 0, 49, 0
4, 117440, Note_on_c, 0, 40, 0
4, 117440, Note_on_c, 0, 40, 88
4, 117440, Note_on_c, 0, 49, 88
4, 117440, Note_on_c, 0, 52, 88
4, 117600, Note_on_c, 0, 52, 0
4, 117600, Note_on_c, 0, 49, 0
4, 117600, Note_on_c, 0, 40, 0
4, 117600, Note_on_c, 0, 40, 88
4, 117600, Note_on_c, 0, 49, 88
4, 117600, Note_on_c, 0, 52, 88
4, 117759, Note_on_c, 0, 52, 0
4, 117759, Note_on_c, 0, 49, 0
4, 117759, Note_on_c, 0, 40, 0
4, 117759, Note_on_c, 0, 40, 88
4, 117759, Note_on_c, 0, 49, 88
4, 117759, Note_on_c, 0, 52, 88
4, 117920, Note_on_c, 0, 52, 0
4, 117920, Note_on_c, 0, 49, 0
4, 117920, Note_on_c, 0, 40, 0
4, 117920, Note_on_c, 0, 40, 88
4, 117920, Note_on_c, 0, 49, 88
4, 117920, Note_on_c, 0, 52, 88
4, 118080, Note_on_c, 0, 52, 0
4, 118080, Note_on_c, 0, 49, 0
4, 118080, Note_on_c, 0, 40, 0
4, 118080, Note_on_c, 0, 40, 88
4, 118080, Note_on_c, 0, 49, 88
4, 118080, Note_on_c, 0, 52, 88
4, 118239, Note_on_c, 0, 52, 0
4, 118239, Note_on_c, 0, 49, 0
4, 118239, Note_on_c, 0, 40, 0
4, 118239, Note_on_c, 0, 40, 88
4, 118239, Note_on_c, 0, 49, 88
4, 118239, Note_on_c, 0, 52, 88
4, 118400, Note_on_c, 0, 52, 0
4, 118400, Note_on_c, 0, 49, 0
4, 118400, Note_on_c, 0, 40, 0
4, 118400, Note_on_c, 0, 40, 88
4, 118400, Note_on_c, 0, 49, 88
4, 118400, Note_on_c, 0, 52, 88
4, 118560, Note_on_c, 0, 52, 0
4, 118560, Note_on_c, 0, 49, 0
4, 118560, Note_on_c, 0, 40, 0
4, 118560, Control_c, 0, 64, 127
4, 118560, Note_on_c, 0, 52, 88
4, 118560, Note_on_c, 0, 55, 88
4, 118560, Note_on_c, 0, 58, 88
4, 118560, Note_on_c, 0, 61, 88
4, 119040, Note_on_c, 0, 61, 0
4, 119040, Note_on_c, 0, 52, 0
4, 119040, Note_on_c, 0, 55, 0
4, 119040, Note_on_c, 0, 58, 0
4, 119040, Note_on_c, 0, 61, 88
4, 119079, Note_on_c, 0, 61, 0
4, 119079, Note_on_c, 0, 58, 88
4, 119120, Note_on_c, 0, 58, 0
4, 119120, Note_on_c, 0, 55, 88
4, 119160, Note_on_c, 0, 55, 0
4, 119160, Note_on_c, 0, 52, 88
4, 119190, Note_on_c, 0, 52, 0
4, 119190, Note_on_c, 0, 49, 88
4, 119220, Note_on_c, 0, 49, 0
4, 119220, Note_on_c, 0, 46, 88
4, 119250, Note_on_c, 0, 46, 0
4, 119250, Note_on_c, 0, 43, 88
4, 119280, Note_on_c, 0, 43, 0
4, 119280, Note_on_c, 0, 40, 88
4, 119319, Note_on_c, 0, 40, 0
4, 119319, Note_on_c, 0, 43, 88
4, 119360, Note_on_c, 0, 43, 0
4, 119360, Note_on_c, 0, 46, 88
4, 119400, Note_on_c, 0, 46, 0
4, 119400, Note_on_c, 0, 49, 88
4, 119439, Note_on_c, 0, 49, 0
4, 119439, Note_on_c, 0, 52, 88
4, 119480, Note_on_c, 0, 52, 0
4, 119480, Note_on_c, 0, 55, 88
4, 119520, Note_on_c, 0, 55, 0
4, 119520, Note_on_c, 0, 58, 88
4, 119559, Note_on_c, 0, 58, 0
4, 119559, Note_on_c, 0, 61, 88
4, 119600, Note_on_c, 0, 61, 0
4, 119600, Note_on_c, 0, 64, 88
4, 119640, Note_on_c, 0, 64, 0
4, 120480, Note_on_c, 0, 58, 88
4, 120519, Note_on_c, 0, 58, 0
4, 120519, Note_on_c, 0, 55, 88
4, 120560, Note_on_c, 0, 55, 0
4, 120560, Note_on_c, 0, 52, 88
4, 120600, Note_on_c, 0, 52, 0
4, 120600, Note_on_c, 0, 49, 88
4, 120639, Note_on_c, 0, 49, 0
4, 120639, Note_on_c, 0, 46, 88
4, 120680, Note_on_c, 0, 46, 0
4, 120680, Note_on_c, 0, 43, 88
4, 120720, Note_on_c, 0, 43, 0
4, 120720, Note_on_c, 0, 40, 88
4, 120759, Note_on_c, 0, 40, 0
4, 120759, Note_on_c, 0, 43, 88
4, 120800, Note_on_c, 0, 43, 0
4, 120800, Note_on_c, 0, 46, 88
4, 120840, Note_on_c, 0, 46, 0
4, 120840, Note_on_c, 0, 49, 88
4, 120879, Note_on_c, 0, 49, 0
4, 120879, Note_on_c, 0, 52, 88
4, 120920, Note_on_c, 0, 52, 0
4, 120920, Note_on_c, 0, 55, 88
4, 120960, Note_on_c, 0, 55, 0
4, 120960, Note_on_c, 0, 58, 88
4, 120999, Note_on_c, 0, 58, 0
4, 120999, Note_on_c, 0, 61, 88
4, 121040, Note_on_c, 0, 61, 0
4, 121040, Note_on_c, 0, 64, 88
4, 121080, Note_on_c, 0, 64, 0
4, 121920, Note_on_c, 0, 58, 88
4, 121959, Note_on_c, 0, 58, 0
4, 121959, Note_on_c, 0, 55, 88
4, 122000, Note_on_c, 0, 55, 0
4, 122000, Note_on_c, 0, 52, 88
4, 122040, Note_on_c, 0, 52, 0
4, 122040, Note_on_c, 0, 49, 88
4, 122079, Note_on_c, 0, 49, 0
4, 122079, Note_on_c, 0, 46, 88
4, 122120, Note_on_c, 0, 46, 0
4, 122120, Note_on_c, 0, 43, 88
4, 122160, Note_on_c, 0, 43, 0
4, 122160, Note_on_c, 0, 40, 88
4, 122199, Note_on_c, 0, 40, 0
4, 122199, Note_on_c, 0, 43, 88
4, 122240, Note_on_c, 0, 43, 0
4, 122240, Note_on_c, 0, 46, 88
4, 122280, Note_on_c, 0, 46, 0
4, 122280, Note_on_c, 0, 49, 88
4, 122319, Note_on_c, 0, 49, 0
4, 122319, Note_on_c, 0, 52, 88
4, 122360, Note_on_c, 0, 52, 0
4, 122360, Note_on_c, 0, 55, 88
4, 122400, Note_on_c, 0, 55, 0
4, 122400, Note_on_c, 0, 58, 88
4, 122439, Note_on_c, 0, 58, 0
4, 122439, Note_on_c, 0, 61, 88
4, 122480, Note_on_c, 0, 61, 0
4, 122480, Note_on_c, 0, 64, 88
4, 122520, Note_on_c, 0, 64, 0
4, 123360, Note_on_c, 0, 58, 88
4, 123399, Note_on_c, 0, 58, 0
4, 123399, Note_on_c, 0, 55, 88
4, 123440, Note_on_c, 0, 55, 0
4, 123440, Note_on_c, 0, 52, 88
4, 123480, Note_on_c, 0, 52, 0
4, 123480, Note_on_c, 0, 49, 88
4, 123519, Note_on_c, 0, 49, 0
4, 123519, Note_on_c, 0, 46, 88
4, 123560, Note_on_c, 0, 46, 0
4, 123560, Note_on_c, 0, 43, 88
4, 123600, Note_on_c, 0, 43, 0
4, 124560, Control_c, 0, 64, 0
4, 125040, Note_on_c, 0, 41, 101
4, 125040, Note_on_c, 0, 46, 101
4, 125040, Note_on_c, 0, 50, 101
4, 125040, Note_on_c, 0, 53, 101
4, 125087, Note_on_c, 0, 53, 0
4, 125087, Note_on_c, 0, 41, 0
4, 125087, Note_on_c, 0, 46, 0
4, 125087, Note_on_c, 0, 50, 0
4, 125280, Note_on_c, 0, 58, 62
4, 125280, Note_on_c, 0, 62, 62
4, 125327, Note_on_c, 0, 62, 0
4, 125327, Note_on_c, 0, 58, 0
4, 125520, Note_on_c, 0, 53, 62
4, 125567, Note_on_c, 0, 53, 0
4, 125760, Note_on_c, 0, 58, 62
4, 125760, Note_on_c, 0, 62, 62
4, 125807, Note_on_c, 0, 62, 0
4, 125807, Note_on_c, 0, 58, 0
4, 126000, Note_on_c, 0, 53, 62
4, 126047, Note_on_c, 0, 53, 0
4, 126240, Note_on_c, 0, 57, 62
4, 126240, Note_on_c, 0, 63, 62
4, 126287, Note_on_c, 0, 63, 0
4, 126287, Note_on_c, 0, 57, 0
4, 126480, Note_on_c, 0, 53, 62
4, 126527, Note_on_c, 0, 53, 0
4, 126720, Note_on_c, 0, 57, 62
4, 126720, Note_on_c, 0, 63, 62
4, 126767, Note_on_c, 0, 63, 0
4, 126767, Note_on_c, 0, 57, 0
4, 126960, Note_on_c, 0, 53, 62
4, 127007, Note_on_c, 0, 53, 0
4, 127200, Note_on_c, 0, 58, 62
4, 127200, Note_on_c, 0, 62, 62
4, 127247, Note_on_c, 0, 62, 0
4, 127247, Note_on_c, 0, 58, 0
4, 127440, Note_on_c, 0, 53, 62
4, 127487, Note_on_c, 0, 53, 0
4, 127680, Note_on_c, 0, 58, 62
4, 127680, Note_on_c, 0, 62, 62
4, 127727, Note_on_c, 0, 62, 0
4, 127727, Note_on_c, 0, 58, 0
4, 127920, Note_on_c, 0, 53, 62
4, 127967, Note_on_c, 0, 53, 0
4, 128160, Note_on_c, 0, 57, 62
4, 128160, Note_on_c, 0, 63, 62
4, 128207, Note_on_c, 0, 63, 0
4, 128207, Note_on_c, 0, 57, 0
4, 128400, Note_on_c, 0, 53, 62
4, 128640, Note_on_c, 0, 53, 0
4, 128640, Note_on_c, 0, 57, 62
4, 128640, Note_on_c, 0, 63, 62
4, 128687, Note_on_c, 0, 63, 0
4, 128687, Note_on_c, 0, 57, 0
4, 128880, Note_on_c, 0, 53, 62
4, 128927, Note_on_c, 0, 53, 0
4, 129120, Note_on_c, 0, 58, 62
4, 129120, Note_on_c, 0, 62, 62
4, 129167, Note_on_c, 0, 62, 0
4, 129167, Note_on_c, 0, 58, 0
4, 129360, Note_on_c, 0, 53, 62
4, 129407, Note_on_c, 0, 53, 0
4, 129600, Note_on_c, 0, 58, 62
4, 129600, Note_on_c, 0, 62, 62
4, 129647, Note_on_c, 0, 62, 0
4, 129647, Note_on_c, 0, 58, 0
4, 129840, Note_on_c, 0, 51, 62
4, 129887, Note_on_c, 0, 51, 0
4, 130080, Note_on_c, 0, 58, 62
4, 130080, Note_on_c, 0, 60, 62
4, 130127, Note_on_c, 0, 60, 0
4, 130127, Note_on_c, 0, 58, 0
4, 130320, Note_on_c, 0, 51, 62
4, 130367, Note_on_c, 0, 51, 0
4, 130560, Note_on_c, 0, 55, 62
4, 130560, Note_on_c, 0, 60, 62
4, 130607, Note_on_c, 0, 60, 0
4, 130607, Note_on_c, 0, 55, 0
4, 130800, Note_on_c, 0, 52, 62
4, 130847, Note_on_c, 0, 52, 0
4, 131040, Note_on_c, 0, 55, 62
4, 131040, Note_on_c, 0, 61, 62
4, 131087, Note_on_c, 0, 61, 0
4, 131087, Note_on_c, 0, 55, 0
4, 131280, Note_on_c, 0, 52, 62
4, 131327, Note_on_c, 0, 52, 0
4, 131520, Note_on_c, 0, 58, 62
4, 131520, Note_on_c, 0, 61, 62
4, 131567, Note_on_c, 0, 61, 0
4, 131567, Note_on_c, 0, 58, 0
4, 131760, Note_on_c, 0, 53, 62
4, 131807, Note_on_c, 0, 53, 0
4, 132000, Note_on_c, 0, 57, 62
4, 132000, Note_on_c, 0, 60, 62
4, 132047, Note_on_c, 0, 60, 0
4, 132047, Note_on_c, 0, 57, 0
4, 132240, Note_on_c, 0, 53, 62
4, 132287, Note_on_c, 0, 53, 0
4, 132480, Note_on_c, 0, 57, 62
4, 132480, Note_on_c, 0, 60, 62
4, 132527, Note_on_c, 0, 60, 0
4, 132527, Note_on_c, 0, 57, 0
4, 132720, Note_on_c, 0, 46, 62
4, 132767, Note_on_c, 0, 46, 0
4, 132960, Note_on_c, 0, 53, 62
4, 132960, Note_on_c, 0, 58, 62
4, 133007, Note_on_c, 0, 58, 0
4, 133007, Note_on_c, 0, 53, 0
4, 133200, Note_on_c, 0, 46, 62
4, 133247, Note_on_c, 0, 46, 0
4, 133440, Note_on_c, 0, 53, 62
4, 133440, Note_on_c, 0, 58, 62
4, 133487, Note_on_c, 0, 58, 0
4, 133487, Note_on_c, 0, 53, 0
4, 133680, Note_on_c, 0, 46, 62
4, 133727, Note_on_c, 0, 46, 0
4, 133920, Note_on_c, 0, 57, 62
4, 133920, Note_on_c, 0, 63, 62
4, 133967, Note_on_c, 0, 63, 0
4, 133967, Note_on_c, 0, 57, 0
4, 134160, Note_on_c, 0, 46, 62
4, 134207, Note_on_c, 0, 46, 0
4, 134400, Note_on_c, 0, 57, 62
4, 134400, Note_on_c, 0, 63, 62
4, 134447, Note_on_c, 0, 63, 0
4, 134447, Note_on_c, 0, 57, 0
4, 134640, Note_on_c, 0, 46, 62
4, 134687, Note_on_c, 0, 46, 0
4, 134880, Note_on_c, 0, 58, 62
4, 134880, Note_on_c, 0, 62, 62
4, 134927, Note_on_c, 0, 62, 0
4, 134927, Note_on_c, 0, 58, 0
4, 135120, Note_on_c, 0, 46, 62
4, 135167, Note_on_c, 0, 46, 0
4, 135360, Note_on_c, 0, 55, 62
4, 135360, Note_on_c, 0, 61, 62
4, 135407, Note_on_c, 0, 61, 0
4, 135407, Note_on_c, 0, 55, 0
4, 135600, Note_on_c, 0, 46, 62
4, 135647, Note_on_c, 0, 46, 0
4, 135840, Note_on_c, 0, 57, 62
4, 135840, Note_on_c, 0, 63, 62
4, 135887, Note_on_c, 0, 63, 0
4, 135887, Note_on_c, 0, 57, 0
4, 136080, Note_on_c, 0, 46, 62
4, 136127, Note_on_c, 0, 46, 0
4, 136320, Note_on_c, 0, 57, 62
4, 136320, Note_on_c, 0, 63, 62
4, 136367, Note_on_c, 0, 63, 0
4, 136367, Note_on_c, 0, 57, 0
4, 136560, Note_on_c, 0, 46, 62
4, 136607, Note_on_c, 0, 46, 0
4, 136800, Note_on_c, 0, 53, 62
4, 136800, Note_on_c, 0, 58, 62
4, 136847, Note_on_c, 0, 58, 0
4, 136847, Note_on_c, 0, 53, 0
4, 137040, Note_on_c, 0, 50, 62
4, 137087, Note_on_c, 0, 50, 0
4, 137280, Note_on_c, 0, 53, 62
4, 137280, Note_on_c, 0, 58, 62
4, 137327, Note_on_c, 0, 58, 0
4, 137327, Note_on_c, 0, 53, 0
4, 137520, Note_on_c, 0, 51, 62
4, 137567, Note_on_c, 0, 51, 0
4, 137760, Note_on_c, 0, 55, 62
4, 137760, Note_on_c, 0, 58, 62
4, 137807, Note_on_c, 0, 58, 0
4, 137807, Note_on_c, 0, 55, 0
4, 138000, Note_on_c, 0, 52, 62
4, 138047, Note_on_c, 0, 52, 0
4, 138240, Note_on_c, 0, 55, 62
4, 138240, Note_on_c, 0, 61, 62
4, 138287, Note_on_c, 0, 61, 0
4, 138287, Note_on_c, 0, 55, 0
4, 138480, Note_on_c, 0, 53, 62
4, 138527, Note_on_c, 0, 53, 0
4, 138720, Note_on_c, 0, 58, 62
4, 138720, Note_on_c, 0, 62, 62
4, 138767, Note_on_c, 0, 62, 0
4, 138767, Note_on_c, 0, 58, 0
4, 138960, Note_on_c, 0, 53, 62
4, 139007, Note_on_c, 0, 53, 0
4, 139200, Note_on_c, 0, 58, 62
4, 139200, Note_on_c, 0, 62, 62
4, 139247, Note_on_c, 0, 62, 0
4, 139247, Note_on_c, 0, 58, 0
4, 139440, Note_on_c, 0, 53, 62
4, 139680, Note_on_c, 0, 53, 0
4, 139680, Note_on_c, 0, 57, 62
4, 139680, Note_on_c, 0, 63, 62
4, 139920, Note_on_c, 0, 63, 0
4, 139920, Note_on_c, 0, 57, 0
4, 139920, Note_on_c, 0, 53, 62
4, 139967, Note_on_c, 0, 53, 0
4, 140160, Note_on_c, 0, 57, 62
4, 140160, Note_on_c, 0, 60, 62
4, 140207, Note_on_c, 0, 60, 0
4, 140207, Note_on_c, 0, 57, 0
4, 140400, Note_on_c, 0, 46, 62
4, 140447, Note_on_c, 0, 46, 0
4, 140640, Note_on_c, 0, 53, 62
4, 140640, Note_on_c, 0, 58, 62
4, 140687, Note_on_c, 0, 58, 0
4, 140687, Note_on_c, 0, 53, 0
4, 140880, Note_on_c, 0, 50, 62
4, 140927, Note_on_c, 0, 50, 0
4, 141120, Note_on_c, 0, 53, 62
4, 141120, Note_on_c, 0, 58, 62
4, 141167, Note_on_c, 0, 58, 0
4, 141167, Note_on_c, 0, 53, 0
4, 141360, Note_on_c, 0, 51, 62
4, 141407, Note_on_c, 0, 51, 0
4, 141600, Note_on_c, 0, 55, 62
4, 141600, Note_on_c, 0, 58, 62
4, 141647, Note_on_c, 0, 58, 0
4, 141647, Note_on_c, 0, 55, 0
4, 141840, Note_on_c, 0, 52, 62
4, 141887, Note_on_c, 0, 52, 0
4, 142080, Note_on_c, 0, 55, 62
4, 142080, Note_on_c, 0, 61, 62
4, 142127, Note_on_c, 0, 61, 0
4, 142127, Note_on_c, 0, 55, 0
4, 142320, Note_on_c, 0, 53, 62
4, 142367, Note_on_c, 0, 53, 0
4, 142560, Note_on_c, 0, 58, 62
4, 142560, Note_on_c, 0, 62, 62
4, 142607, Note_on_c, 0, 62, 0
4, 142607, Note_on_c, 0, 58, 0
4, 142800, Note_on_c, 0, 53, 62
4, 142847, Note_on_c, 0, 53, 0
4, 143040, Note_on_c, 0, 58, 62
4, 143040, Note_on_c, 0, 62, 62
4, 143087, Note_on_c, 0, 62, 0
4, 143087, Note_on_c, 0, 58, 0
4, 143280, Note_on_c, 0, 53, 62
4, 143327, Note_on_c, 0, 53, 0
4, 143520, Note_on_c, 0, 57, 62
4, 143520, Note_on_c, 0, 63, 62
4, 143567, Note_on_c, 0, 63, 0
4, 143567, Note_on_c, 0, 57, 0
4, 143760, Note_on_c, 0, 53, 62
4, 143807, Note_on_c, 0, 53, 0
4, 144000, Note_on_c, 0, 57, 62
4, 144000, Note_on_c, 0, 60, 62
4, 144047, Note_on_c, 0, 60, 0
4, 144047, Note_on_c, 0, 57, 0
4, 144240, Note_on_c, 0, 46, 62
4, 144287, Note_on_c, 0, 46, 0
4, 144480, Note_on_c, 0, 53, 62
4, 144480, Note_on_c, 0, 58, 62
4, 144527, Note_on_c, 0, 58, 0
4, 144527, Note_on_c, 0, 53, 0
4, 144720, Note_on_c, 0, 50, 75
4, 144767, Note_on_c, 0, 50, 0
4, 144960, Note_on_c, 0, 58, 75
4, 144960, Note_on_c, 0, 62, 75
4, 145007, Note_on_c, 0, 62, 0
4, 145007, Note_on_c, 0, 58, 0
4, 145200, Note_on_c, 0, 51, 75
4, 145247, Note_on_c, 0, 51, 0
4, 145440, Note_on_c, 0, 58, 75
4, 145440, Note_on_c, 0, 60, 75
4, 145440, Note_on_c, 0, 63, 75
4, 145487, Note_on_c, 0, 63, 0
4, 145487, Note_on_c, 0, 60, 0
4, 145487, Note_on_c, 0, 58, 0
4, 145680, Note_on_c, 0, 53, 75
4, 145727, Note_on_c, 0, 53, 0
4, 145920, Note_on_c, 0, 60, 75
4, 145920, Note_on_c, 0, 63, 75
4, 145967, Note_on_c, 0, 63, 0
4, 145967, Note_on_c, 0, 60, 0
4, 146160, Note_on_c, 0, 46, 75
4, 146207, Note_on_c, 0, 46, 0
4, 146400, Note_on_c, 0, 53, 75
4, 146400, Note_on_c, 0, 62, 75
4, 146447, Note_on_c, 0, 62, 0
4, 146447, Note_on_c, 0, 53, 0
4, 146640, Note_on_c, 0, 50, 75
4, 146687, Note_on_c, 0, 50, 0
4, 146880, Note_on_c, 0, 58, 75
4, 146880, Note_on_c, 0, 62, 75
4, 146927, Note_on_c, 0, 62, 0
4, 146927, Note_on_c, 0, 58, 0
4, 147120, Note_on_c, 0, 51, 75
4, 147167, Note_on_c, 0, 51, 0
4, 147360, Note_on_c, 0, 58, 75
4, 147360, Note_on_c, 0, 60, 75
4, 147360, Note_on_c, 0, 63, 75
4, 147407, Note_on_c, 0, 63, 0
4, 147407, Note_on_c, 0, 60, 0
4, 147407, Note_on_c, 0, 58, 0
4, 147600, Note_on_c, 0, 53, 75
4, 147647, Note_on_c, 0, 53, 0
4, 147840, Note_on_c, 0, 60, 75
4, 147840, Note_on_c, 0, 63, 75
4, 147887, Note_on_c, 0, 63, 0
4, 147887, Note_on_c, 0, 60, 0
4, 148080, Note_on_c, 0, 46, 88
4, 148127, Note_on_c, 0, 46, 0
4, 148320, Note_on_c, 0, 53, 88
4, 148320, Note_on_c, 0, 62, 88
4, 148367, Note_on_c, 0, 62, 0
4, 148367, Note_on_c, 0, 53, 0
4, 148560, Note_on_c, 0, 54, 88
4, 148560, Note_on_c, 0, 58, 88
4, 148560, Note_on_c, 0, 64, 88
4, 148980, Note_on_c, 0, 46, 88
4, 149040, Note_on_c, 0, 64, 0
4, 149040, Note_on_c, 0, 54, 0
4, 149040, Note_on_c, 0, 58, 0
4, 149040, Note_on_c, 0, 58, 88
4, 149040, Note_on_c, 0, 62, 88
4, 149040, Note_on_c, 0, 65, 88
4, 149520, Note_on_c, 0, 65, 0
4, 149520, Note_on_c, 0, 46, 0
4, 149520, Note_on_c, 0, 58, 0
4, 149520, Note_on_c, 0, 62, 0
4, 149520, Note_on_c, 0, 54, 88
4, 149520, Note_on_c, 0, 58, 88
4, 149520, Note_on_c, 0, 64, 88
4, 149940, Note_on_c, 0, 46, 88
4, 150000, Note_on_c, 0, 64, 0
4, 150000, Note_on_c, 0, 54, 0
4, 150000, Note_on_c, 0, 58, 0
4, 150000, Note_on_c, 0, 58, 88
4, 150000, Note_on_c, 0, 62, 88
4, 150000, Note_on_c, 0, 65, 88
4, 150480, Note_on_c, 0, 65, 0
4, 150480, Note_on_c, 0, 46, 0
4, 150480, Note_on_c, 0, 58, 0
4, 150480, Note_on_c, 0, 62, 0
4, 150480, Note_on_c, 0, 54, 88
4, 150480, Note_on_c, 0, 58, 88
4, 150480, Note_on_c, 0, 64, 88
4, 150900, Note_on_c, 0, 46, 88
4, 150960, Note_on_c, 0, 64, 0
4, 150960, Note_on_c, 0, 54, 0
4, 150960, Note_on_c, 0, 58, 0
4, 150960, Note_on_c, 0, 58, 88
4, 150960, Note_on_c, 0, 62, 88
4, 150960, Note_on_c, 0, 65, 88
4, 151440, Note_on_c, 0, 65, 0
4, 151440, Note_on_c, 0, 46, 0
4, 151440, Note_on_c, 0, 58, 0
4, 151440, Note_on_c, 0, 62, 0
4, 151440, Note_on_c, 0, 54, 88
4, 151440, Note_on_c, 0, 58, 88
4, 151440, Note_on_c, 0, 64, 88
4, 151860, Control_c, 0, 64, 127
4, 151860, Note_on_c, 0, 46, 88
4, 151920, Note_on_c, 0, 46, 0
4, 151920, Note_on_c, 0, 54, 0
4, 151920, Note_on_c, 0, 58, 0
4, 151920, Note_on_c, 0, 64, 0
4, 151920, Note_on_c, 0, 53, 88
4, 151920, Note_on_c, 0, 58, 88
4, 151920, Note_on_c, 0, 62, 88
4, 152160, Note_on_c, 0, 62, 0
4, 152160, Note_on_c, 0, 58, 0
4, 152160, Note_on_c, 0, 53, 0
4, 152160, Note_on_c, 0, 63, 88
4, 152280, Note_on_c, 0, 63, 0
4, 152280, Note_on_c, 0, 65, 88
4, 152400, Note_on_c, 0, 65, 0
4, 152400, Note_on_c, 0, 67, 88
4, 152520, Note_on_c, 0, 67, 0
4, 152520, Note_on_c, 0, 69, 88
4, 152640, Note_on_c, 0, 69, 0
4, 152640, Note_on_c, 0, 70, 88
4, 152760, Note_on_c, 0, 70, 0
4, 152760, Note_on_c, 0, 72, 88
4, 152880, Note_on_c, 0, 72, 0
4, 152880, Note_on_c, 0, 58, 88
4, 152880, Note_on_c, 0, 70, 88
4, 153120, Note_on_c, 0, 70, 0
4, 153120, Note_on_c, 0, 58, 0
4, 153120, Note_on_c, 0, 46, 88
4, 153120, Note_on_c, 0, 58, 88
4, 153600, Note_on_c, 0, 58, 0
4, 153600, Note_on_c, 0, 46, 0
4, 153600, Control_c, 0, 64, 0
4, 153600, End_track
5, 0, Start_track
5, 0, Title_t, "Grand Piano"
5, 0, Program_c, 0, 0
5, 0, Control_c, 0, 7, 115
5, 0, Control_c, 0, 10, 48
5, 0, Note_on_c, 0, 42, 88
5, 0, Note_on_c, 0, 49, 88
5, 0, Note_on_c, 0, 54, 88
5, 1200, Note_on_c, 0, 54, 0
5, 1200, Note_on_c, 0, 49, 0
5, 1200, Note_on_c, 0, 42, 0
5, 1200, Note_on_c, 0, 42, 88
5, 1200, Note_on_c, 0, 49, 88
5, 1200, Note_on_c, 0, 54, 88
5, 1440, Note_on_c, 0, 54, 0
5, 1440, Note_on_c, 0, 49, 0
5, 1440, Note_on_c, 0, 42, 0
5, 1440, Note_on_c, 0, 44, 88
5, 1440, Note_on_c, 0, 49, 88
5, 1440, Note_on_c, 0, 56, 88
5, 1680, Note_on_c, 0, 56, 0
5, 1680, Note_on_c, 0, 49, 0
5, 1680, Note_on_c, 0, 44, 0
5, 1680, Note_on_c, 0, 45, 88
5, 1680, Note_on_c, 0, 49, 88
5, 1680, Note_on_c, 0, 57, 88
5, 1920, Note_on_c, 0, 57, 0
5, 1920, Note_on_c, 0, 49, 0
5, 1920, Note_on_c, 0, 45, 0
5, 1920, Note_on_c, 0, 49, 88
5, 1920, Note_on_c, 0, 54, 88
5, 1920, Note_on_c, 0, 57, 88
5, 1920, Note_on_c, 0, 61, 88
5, 2400, Note_on_c, 0, 61, 0
5, 2400, Note_on_c, 0, 49, 0
5, 2400, Note_on_c, 0, 54, 0
5, 2400, Note_on_c, 0, 57, 0
5, 2400, Note_on_c, 0, 35, 88
5, 2400, Note_on_c, 0, 47, 88
5, 3840, Note_on_c, 0, 47, 0
5, 3840, Note_on_c, 0, 35, 0
5, 3840, Note_on_c, 0, 40, 75
5, 3840, Note_on_c, 0, 47, 75
5, 3840, Note_on_c, 0, 52, 75
5, 5040, Note_on_c, 0, 52, 0
5, 5040, Note_on_c, 0, 47, 0
5, 5040, Note_on_c, 0, 40, 0
5, 5040, Note_on_c, 0, 40, 75
5, 5040, Note_on_c, 0, 47, 75
5, 5040, Note_on_c, 0, 52, 75
5, 5280, Note_on_c, 0, 52, 0
5, 5280, Note_on_c, 0, 47, 0
5, 5280, Note_on_c, 0, 40, 0
5, 5280, Note_on_c, 0, 42, 75
5, 5280, Note_on_c, 0, 47, 75
5, 5280, Note_on_c, 0, 54, 75
5, 5520, Note_on_c, 0, 54, 0
5, 5520, Note_on_c, 0, 47, 0
5, 5520, Note_on_c, 0, 42, 0
5, 5520, Note_on_c, 0, 43, 75
5, 5520, Note_on_c, 0, 47, 75
5, 5520, Note_on_c, 0, 55, 75
5, 5760, Note_on_c, 0, 55, 0
5, 5760, Note_on_c, 0, 47, 0
5, 5760, Note_on_c, 0, 43, 0
5, 5760, Note_on_c, 0, 47, 75
5, 5760, Note_on_c, 0, 52, 75
5, 5760, Note_on_c, 0, 55, 75
5, 5760, Note_on_c, 0, 59, 75
5, 6240, Note_on_c, 0, 59, 0
5, 6240, Note_on_c, 0, 47, 0
5, 6240, Note_on_c, 0, 52, 0
5, 6240, Note_on_c, 0, 55, 0
5, 6240, Note_on_c, 0, 33, 75
5, 6240, Note_on_c, 0, 45, 75
5, 7200, Note_on_c, 0, 45, 0
5, 7200, Note_on_c, 0, 33, 0
5, 7200, Note_on_c, 0, 33, 75
5, 7200, Note_on_c, 0, 45, 75
5, 7680, Note_on_c, 0, 45, 0
5, 7680, Note_on_c, 0, 33, 0
5, 7680, Note_on_c, 0, 35, 75
5, 7680, Note_on_c, 0, 47, 75
5, 8160, Note_on_c, 0, 47, 0
5, 8160, Note_on_c, 0, 35, 0
5, 8160, Control_c, 0, 64, 127
5, 8160, Note_on_c, 0, 33, 75
5, 8160, Note_on_c, 0, 45, 75
5, 9600, Note_on_c, 0, 45, 0
5, 9600, Note_on_c, 0, 33, 0
5, 11520, Control_c, 0, 64, 0
5, 12480, Note_on_c, 0, 57, 101
5, 12480, Note_on_c, 0, 60, 101
5, 12480, Note_on_c, 0, 63, 101
5, 12720, Note_on_c, 0, 63, 0
5, 12720, Note_on_c, 0, 60, 0
5, 12720, Note_on_c, 0, 57, 0
5, 16800, Note_on_c, 0, 34, 49
5, 16800, Note_on_c, 0, 46, 49
5, 17040, Note_on_c, 0, 46, 0
5, 17040, Note_on_c, 0, 34, 0
5, 17760, Note_on_c, 0, 34, 49
5, 17760, Note_on_c, 0, 46, 49
5, 18000, Note_on_c, 0, 46, 0
5, 18000, Note_on_c, 0, 34, 0
5, 33600, Note_on_c, 0, 51, 62
5, 33600, Note_on_c, 0, 53, 62
5, 34560, Note_on_c, 0, 53, 0
5, 34560, Note_on_c, 0, 51, 0
5, 34560, Note_on_c, 0, 50, 62
5, 35520, Note_on_c, 0, 50, 0
5, 35520, Note_on_c, 0, 49, 62
5, 35520, Note_on_c, 0, 58, 62
5, 36480, Note_on_c, 0, 58, 0
5, 36480, Note_on_c, 0, 49, 0
5, 36480, Note_on_c, 0, 48, 62
5, 36480, Note_on_c, 0, 60, 62
5, 37440, Note_on_c, 0, 60, 0
5, 37440, Note_on_c, 0, 48, 0
5, 37440, Note_on_c, 0, 51, 62
5, 37440, Note_on_c, 0, 53, 62
5, 38400, Note_on_c, 0, 53, 0
5, 38400, Note_on_c, 0, 51, 0
5, 38400, Note_on_c, 0, 50, 62
5, 39360, Note_on_c, 0, 50, 0
5, 39360, Note_on_c, 0, 49, 62
5, 39360, Note_on_c, 0, 58, 62
5, 40320, Note_on_c, 0, 58, 0
5, 40320, Note_on_c, 0, 49, 0
5, 40320, Note_on_c, 0, 48, 62
5, 40320, Note_on_c, 0, 60, 62
5, 41280, Note_on_c, 0, 60, 0
5, 41280, Note_on_c, 0, 48, 0
5, 41280, Note_on_c, 0, 47, 62
5, 41280, Note_on_c, 0, 56, 62
5, 41280, Note_on_c, 0, 62, 62
5, 41520, Note_on_c, 0, 62, 0
5, 41520, Note_on_c, 0, 56, 0
5, 41520, Note_on_c, 0, 47, 0
5, 41760, Note_on_c, 0, 47, 62
5, 42000, Note_on_c, 0, 47, 0
5, 49920, Note_on_c, 0, 52, 49
5, 50400, Note_on_c, 0, 52, 0
5, 50400, Note_on_c, 0, 52, 49
5, 50880, Note_on_c, 0, 52, 0
5, 50880, Note_on_c, 0, 52, 62
5, 51360, Note_on_c, 0, 52, 0
5, 51360, Note_on_c, 0, 52, 62
5, 51519, Note_on_c, 0, 52, 0
5, 51519, Note_on_c, 0, 52, 62
5, 51680, Note_on_c, 0, 52, 0
5, 51680, Note_on_c, 0, 52, 62
5, 51840, Note_on_c, 0, 52, 0
5, 51840, Note_on_c, 0, 52, 62
5, 51999, Note_on_c, 0, 52, 0
5, 51999, Note_on_c, 0, 52, 62
5, 52160, Note_on_c, 0, 52, 0
5, 52160, Note_on_c, 0, 52, 62
5, 52320, Note_on_c, 0, 52, 0
5, 52320, Note_on_c, 0, 40, 62
5, 52479, Note_on_c, 0, 40, 0
5, 52479, Note_on_c, 0, 40, 62
5, 52640, Note_on_c, 0, 40, 0
5, 52640, Note_on_c, 0, 40, 62
5, 52800, Note_on_c, 0, 40, 0
5, 52800, Note_on_c, 0, 40, 62
5, 52959, Note_on_c, 0, 40, 0
5, 52959, Note_on_c, 0, 40, 62
5, 53120, Note_on_c, 0, 40, 0
5, 53120, Note_on_c, 0, 40, 62
5, 53280, Note_on_c, 0, 40, 0
5, 53280, Note_on_c, 0, 52, 49
5, 53439, Note_on_c, 0, 52, 0
5, 53439, Note_on_c, 0, 52, 49
5, 53600, Note_on_c, 0, 52, 0
5, 53600, Note_on_c, 0, 52, 49
5, 53760, Note_on_c, 0, 52, 0
5, 53760, Note_on_c, 0, 52, 49
5, 53919, Note_on_c, 0, 52, 0
5, 53919, Note_on_c, 0, 52, 49
5, 54080, Note_on_c, 0, 52, 0
5, 54080, Note_on_c, 0, 52, 49
5, 54240, Note_on_c, 0, 52, 0
5, 54240, Note_on_c, 0, 52, 49
5, 54399, Note_on_c, 0, 52, 0
5, 54399, Note_on_c, 0, 52, 49
5, 54560, Note_on_c, 0, 52, 0
5, 54560, Note_on_c, 0, 52, 49
5, 54720, Note_on_c, 0, 52, 0
5, 54720, Note_on_c, 0, 52, 62
5, 54879, Note_on_c, 0, 52, 0
5, 54879, Note_on_c, 0, 52, 62
5, 55040, Note_on_c, 0, 52, 0
5, 55040, Note_on_c, 0, 52, 62
5, 55200, Note_on_c, 0, 52, 0
5, 55200, Note_on_c, 0, 52, 62
5, 55359, Note_on_c, 0, 52, 0
5, 55359, Note_on_c, 0, 52, 62
5, 55520, Note_on_c, 0, 52, 0
5, 55520, Note_on_c, 0, 52, 62
5, 55680, Note_on_c, 0, 52, 0
5, 55680, Note_on_c, 0, 52, 62
5, 55839, Note_on_c, 0, 52, 0
5, 55839, Note_on_c, 0, 52, 62
5, 56000, Note_on_c, 0, 52, 0
5, 56000, Note_on_c, 0, 52, 62
5, 56160, Note_on_c, 0, 52, 0
5, 56160, Note_on_c, 0, 40, 62
5, 56319, Note_on_c, 0, 40, 0
5, 56319, Note_on_c, 0, 40, 62
5, 56480, Note_on_c, 0, 40, 0
5, 56480, Note_on_c, 0, 40, 62
5, 56640, Note_on_c, 0, 40, 0
5, 56640, Note_on_c, 0, 40, 62
5, 56799, Note_on_c, 0, 40, 0
5, 56799, Note_on_c, 0, 40, 62
5, 56960, Note_on_c, 0, 40, 0
5, 56960, Note_on_c, 0, 40, 62
5, 57120, Note_on_c, 0, 40, 0
5, 57120, Note_on_c, 0, 52, 49
5, 57279, Note_on_c, 0, 52, 0
5, 57279, Note_on_c, 0, 52, 49
5, 57440, Note_on_c, 0, 52, 0
5, 57440, Note_on_c, 0, 52, 49
5, 57600, Note_on_c, 0, 52, 0
5, 57600, Note_on_c, 0, 48, 49
5, 57759, Note_on_c, 0, 48, 0
5, 57759, Note_on_c, 0, 48, 49
5, 57920, Note_on_c, 0, 48, 0
5, 57920, Note_on_c, 0, 48, 49
5, 58080, Note_on_c, 0, 48, 0
5, 58080, Note_on_c, 0, 48, 49
5, 58239, Note_on_c, 0, 48, 0
5, 58239, Note_on_c, 0, 48, 49
5, 58400, Note_on_c, 0, 48, 0
5, 58400, Note_on_c, 0, 48, 49
5, 58560, Note_on_c, 0, 48, 0
5, 58560, Note_on_c, 0, 48, 49
5, 58719, Note_on_c, 0, 48, 0
5, 58719, Note_on_c, 0, 48, 49
5, 58880, Note_on_c, 0, 48, 0
5, 58880, Note_on_c, 0, 48, 49
5, 59040, Note_on_c, 0, 48, 0
5, 59040, Note_on_c, 0, 48, 49
5, 59199, Note_on_c, 0, 48, 0
5, 59199, Note_on_c, 0, 48, 49
5, 59360, Note_on_c, 0, 48, 0
5, 59360, Note_on_c, 0, 48, 49
5, 59520, Note_on_c, 0, 48, 0
5, 59520, Note_on_c, 0, 48, 62
5, 59679, Note_on_c, 0, 48, 0
5, 59679, Note_on_c, 0, 48, 62
5, 59840, Note_on_c, 0, 48, 0
5, 59840, Note_on_c, 0, 48, 62
5, 60000, Note_on_c, 0, 48, 0
5, 60000, Note_on_c, 0, 36, 62
5, 60159, Note_on_c, 0, 36, 0
5, 60159, Note_on_c, 0, 36, 62
5, 60320, Note_on_c, 0, 36, 0
5, 60320, Note_on_c, 0, 36, 62
5, 60480, Note_on_c, 0, 36, 0
5, 60480, Note_on_c, 0, 36, 62
5, 60639, Note_on_c, 0, 36, 0
5, 60639, Note_on_c, 0, 36, 62
5, 60800, Note_on_c, 0, 36, 0
5, 60800, Note_on_c, 0, 36, 62
5, 60960, Note_on_c, 0, 36, 0
5, 60960, Note_on_c, 0, 48, 49
5, 61119, Note_on_c, 0, 48, 0
5, 61119, Note_on_c, 0, 48, 49
5, 61280, Note_on_c, 0, 48, 0
5, 61280, Note_on_c, 0, 48, 49
5, 61440, Note_on_c, 0, 48, 0
5, 61440, Note_on_c, 0, 48, 49
5, 61599, Note_on_c, 0, 48, 0
5, 61599, Note_on_c, 0, 48, 49
5, 61760, Note_on_c, 0, 48, 0
5, 61760, Note_on_c, 0, 48, 49
5, 61920, Note_on_c, 0, 48, 0
5, 61920, Note_on_c, 0, 48, 49
5, 62079, Note_on_c, 0, 48, 0
5, 62079, Note_on_c, 0, 48, 49
5, 62240, Note_on_c, 0, 48, 0
5, 62240, Note_on_c, 0, 48, 49
5, 62400, Note_on_c, 0, 48, 0
5, 62400, Note_on_c, 0, 48, 49
5, 62559, Note_on_c, 0, 48, 0
5, 62559, Note_on_c, 0, 48, 49
5, 62720, Note_on_c, 0, 48, 0
5, 62720, Note_on_c, 0, 48, 49
5, 62880, Note_on_c, 0, 48, 0
5, 62880, Note_on_c, 0, 48, 62
5, 63039, Note_on_c, 0, 48, 0
5, 63039, Note_on_c, 0, 48, 62
5, 63200, Note_on_c, 0, 48, 0
5, 63200, Note_on_c, 0, 48, 62
5, 63360, Note_on_c, 0, 48, 0
5, 63360, Note_on_c, 0, 48, 62
5, 63519, Note_on_c, 0, 48, 0
5, 63519, Note_on_c, 0, 48, 62
5, 63680, Note_on_c, 0, 48, 0
5, 63680, Note_on_c, 0, 48, 62
5, 63840, Note_on_c, 0, 48, 0
5, 63840, Note_on_c, 0, 48, 62
5, 63999, Note_on_c, 0, 48, 0
5, 63999, Note_on_c, 0, 48, 62
5, 64160, Note_on_c, 0, 48, 0
5, 64160, Note_on_c, 0, 48, 62
5, 64320, Note_on_c, 0, 48, 0
5, 64320, Note_on_c, 0, 48, 75
5, 64479, Note_on_c, 0, 48, 0
5, 64479, Note_on_c, 0, 48, 75
5, 64640, Note_on_c, 0, 48, 0
5, 64640, Note_on_c, 0, 48, 75
5, 64800, Note_on_c, 0, 48, 0
5, 64800, Note_on_c, 0, 48, 75
5, 64959, Note_on_c, 0, 48, 0
5, 64959, Note_on_c, 0, 48, 75
5, 65120, Note_on_c, 0, 48, 0
5, 65120, Note_on_c, 0, 48, 75
5, 65280, Note_on_c, 0, 48, 0
5, 65280, Note_on_c, 0, 48, 75
5, 65439, Note_on_c, 0, 48, 0
5, 65439, Note_on_c, 0, 48, 75
5, 65600, Note_on_c, 0, 48, 0
5, 65600, Note_on_c, 0, 48, 75
5, 65760, Note_on_c, 0, 48, 0
5, 65760, Note_on_c, 0, 48, 75
5, 65919, Note_on_c, 0, 48, 0
5, 65919, Note_on_c, 0, 48, 75
5, 66080, Note_on_c, 0, 48, 0
5, 66080, Note_on_c, 0, 48, 75
5, 66240, Note_on_c, 0, 48, 0
5, 66240, Note_on_c, 0, 46, 88
5, 66399, Note_on_c, 0, 46, 0
5, 66399, Note_on_c, 0, 46, 88
5, 66560, Note_on_c, 0, 46, 0
5, 66560, Note_on_c, 0, 46, 88
5, 66720, Note_on_c, 0, 46, 0
5, 66720, Note_on_c, 0, 45, 88
5, 66879, Note_on_c, 0, 45, 0
5, 66879, Note_on_c, 0, 45, 88
5, 67040, Note_on_c, 0, 45, 0
5, 67040, Note_on_c, 0, 45, 88
5, 67200, Note_on_c, 0, 45, 0
5, 67200, Note_on_c, 0, 55, 88
5, 67359, Note_on_c, 0, 55, 0
5, 67359, Note_on_c, 0, 55, 88
5, 67520, Note_on_c, 0, 55, 0
5, 67520, Note_on_c, 0, 55, 88
5, 67680, Note_on_c, 0, 55, 0
5, 67680, Note_on_c, 0, 55, 88
5, 67839, Note_on_c, 0, 55, 0
5, 67839, Note_on_c, 0, 55, 88
5, 68000, Note_on_c, 0, 55, 0
5, 68000, Note_on_c, 0, 55, 88
5, 68160, Note_on_c, 0, 55, 0
5, 68160, Note_on_c, 0, 55, 88
5, 68319, Note_on_c, 0, 55, 0
5, 68319, Note_on_c, 0, 55, 88
5, 68480, Note_on_c, 0, 55, 0
5, 68480, Note_on_c, 0, 55, 88
5, 68640, Note_on_c, 0, 55, 0
5, 68640, Note_on_c, 0, 55, 88
5, 68799, Note_on_c, 0, 55, 0
5, 68799, Note_on_c, 0, 55, 88
5, 68960, Note_on_c, 0, 55, 0
5, 68960, Note_on_c, 0, 55, 88
5, 69120, Note_on_c, 0, 55, 0
5, 69120, Note_on_c, 0, 55, 88
5, 69279, Note_on_c, 0, 55, 0
5, 69279, Note_on_c, 0, 55, 88
5, 69440, Note_on_c, 0, 55, 0
5, 69440, Note_on_c, 0, 55, 88
5, 69600, Note_on_c, 0, 55, 0
5, 69600, Note_on_c, 0, 55, 88
5, 69759, Note_on_c, 0, 55, 0
5, 69759, Note_on_c, 0, 55, 88
5, 69920, Note_on_c, 0, 55, 0
5, 69920, Note_on_c, 0, 55, 88
5, 70080, Note_on_c, 0, 55, 0
5, 70080, Note_on_c, 0, 55, 88
5, 70239, Note_on_c, 0, 55, 0
5, 70239, Note_on_c, 0, 55, 88
5, 70400, Note_on_c, 0, 55, 0
5, 70400, Note_on_c, 0, 55, 88
5, 70560, Note_on_c, 0, 55, 0
5, 70560, Note_on_c, 0, 55, 88
5, 70719, Note_on_c, 0, 55, 0
5, 70719, Note_on_c, 0, 55, 88
5, 70880, Note_on_c, 0, 55, 0
5, 70880, Note_on_c, 0, 55, 88
5, 71040, Note_on_c, 0, 55, 0
5, 71040, Note_on_c, 0, 55, 88
5, 71199, Note_on_c, 0, 55, 0
5, 71199, Note_on_c, 0, 55, 88
5, 71360, Note_on_c, 0, 55, 0
5, 71360, Note_on_c, 0, 55, 88
5, 71520, Note_on_c, 0, 55, 0
5, 71520, Note_on_c, 0, 55, 88
5, 71679, Note_on_c, 0, 55, 0
5, 71679, Note_on_c, 0, 55, 88
5, 71840, Note_on_c, 0, 55, 0
5, 71840, Note_on_c, 0, 54, 88
5, 72000, Note_on_c, 0, 54, 0
5, 72000, Note_on_c, 0, 53, 88
5, 72159, Note_on_c, 0, 53, 0
5, 72159, Note_on_c, 0, 53, 88
5, 72320, Note_on_c, 0, 53, 0
5, 72320, Note_on_c, 0, 53, 88
5, 72480, Note_on_c, 0, 53, 0
5, 72480, Note_on_c, 0, 53, 88
5, 72639, Note_on_c, 0, 53, 0
5, 72639, Note_on_c, 0, 53, 88
5, 72800, Note_on_c, 0, 53, 0
5, 72800, Note_on_c, 0, 53, 88
5, 72960, Note_on_c, 0, 53, 0
5, 72960, Note_on_c, 0, 53, 88
5, 73119, Note_on_c, 0, 53, 0
5, 73119, Note_on_c, 0, 53, 88
5, 73280, Note_on_c, 0, 53, 0
5, 73280, Note_on_c, 0, 53, 88
5, 73440, Note_on_c, 0, 53, 0
5, 73440, Note_on_c, 0, 53, 88
5, 73599, Note_on_c, 0, 53, 0
5, 73599, Note_on_c, 0, 53, 88
5, 73760, Note_on_c, 0, 53, 0
5, 73760, Note_on_c, 0, 53, 88
5, 73920, Note_on_c, 0, 53, 0
5, 73920, Note_on_c, 0, 51, 88
5, 74079, Note_on_c, 0, 51, 0
5, 74079, Note_on_c, 0, 51, 88
5, 74240, Note_on_c, 0, 51, 0
5, 74240, Note_on_c, 0, 51, 88
5, 74400, Note_on_c, 0, 51, 0
5, 74400, Note_on_c, 0, 51, 88
5, 74559, Note_on_c, 0, 51, 0
5, 74559, Note_on_c, 0, 51, 88
5, 74720, Note_on_c, 0, 51, 0
5, 74720, Note_on_c, 0, 51, 88
5, 74880, Note_on_c, 0, 51, 0
5, 74880, Note_on_c, 0, 51, 88
5, 75039, Note_on_c, 0, 51, 0
5, 75039, Note_on_c, 0, 51, 88
5, 75200, Note_on_c, 0, 51, 0
5, 75200, Note_on_c, 0, 51, 88
5, 75360, Note_on_c, 0, 51, 0
5, 75360, Note_on_c, 0, 51, 88
5, 75519, Note_on_c, 0, 51, 0
5, 75519, Note_on_c, 0, 51, 88
5, 75680, Note_on_c, 0, 51, 0
5, 75680, Note_on_c, 0, 51, 88
5, 75840, Note_on_c, 0, 51, 0
5, 75840, Control_c, 0, 64, 127
5, 75840, Note_on_c, 0, 38, 101
5, 75840, Note_on_c, 0, 50, 101
5, 76800, Note_on_c, 0, 50, 0
5, 76800, Note_on_c, 0, 38, 0
5, 77760, Control_c, 0, 64, 127
5, 77760, Note_on_c, 0, 34, 88
5, 77760, Note_on_c, 0, 50, 88
5, 78720, Note_on_c, 0, 50, 0
5, 78720, Note_on_c, 0, 34, 0
5, 78720, Control_c, 0, 64, 0
5, 80640, Note_on_c, 0, 41, 49
5, 81600, Note_on_c, 0, 41, 0
5, 81600, Note_on_c, 0, 53, 49
5, 82320, Note_on_c, 0, 53, 0
5, 109440, Note_on_c, 0, 57, 114
5, 109920, Note_on_c, 0, 57, 0
5, 109920, Note_on_c, 0, 51, 114
5, 109920, Note_on_c, 0, 63, 114
5, 110400, Note_on_c, 0, 63, 0
5, 110400, Note_on_c, 0, 51, 0
5, 110400, Note_on_c, 0, 48, 114
5, 110400, Note_on_c, 0, 60, 114
5, 110880, Note_on_c, 0, 60, 0
5, 110880, Note_on_c, 0, 48, 0
5, 110880, Note_on_c, 0, 45, 114
5, 110880, Note_on_c, 0, 57, 114
5, 111120, Note_on_c, 0, 57, 0
5, 111120, Note_on_c, 0, 45, 0
5, 111120, Note_on_c, 0, 44, 114
5, 111120, Note_on_c, 0, 56, 114
5, 111360, Note_on_c, 0, 56, 0
5, 111360, Note_on_c, 0, 44, 0
5, 111360, Note_on_c, 0, 43, 114
5, 111360, Note_on_c, 0, 55, 114
5, 113280, Note_on_c, 0, 55, 0
5, 113280, Note_on_c, 0, 43, 0
5, 113280, End_track
0, 0, End_of_file
