0, 0, Header, 1, 5, 480
1, 0, Start_track
1, 0, Title_t, "tchaikovsky sleeping beauty act0 3b candite"
1, 0, Copyright_t, "Adaptation for Disklavier pianos, by: Robert C. Kuhmann (c) 2012."
1, 0, Text_t, "Seq. (c) by: Segundo G. Yogore,  2006\012"
1, 0, Time_signature, 2, 2, 24, 8
1, 0, Key_signature, -2, "major"
1, 0, Tempo, 461538
1, 31920, Tempo, 472441
1, 32160, Tempo, 483871
1, 32400, Tempo, 495868
1, 32640, Tempo, 512821
1, 32880, Tempo, 526316
1, 33120, Tempo, 540541
1, 33360, Tempo, 555556
1, 33600, Time_signature, 8, 2, 24, 8
1, 33600, End_track
2, 0, Start_track
2, 0, Title_t, "Grand Piano"
2, 0, Program_c, 0, 0
2, 0, Control_c, 0, 7, 115
2, 0, Control_c, 0, 10, 86
2, 3840, Note_on_c, 0, 77, 75
2, 4560, Note_on_c, 0, 77, 0
2, 4560, Note_on_c, 0, 72, 75
2, 4800, Note_on_c, 0, 72, 0
2, 4800, Note_on_c, 0, 74, 75
2, 5520, Note_on_c, 0, 74, 0
2, 5520, Note_on_c, 0, 70, 75
2, 5760, Note_on_c, 0, 70, 0
2, 5760, Note_on_c, 0, 72, 75
2, 6000, Note_on_c, 0, 72, 0
2, 6000, Note_on_c, 0, 67, 75
2, 6240, Note_on_c, 0, 67, 0
2, 6240, Note_on_c, 0, 69, 75
2, 6480, Note_on_c, 0, 69, 0
2, 6480, Note_on_c, 0, 65, 75
2, 6720, Note_on_c, 0, 65, 0
2, 6720, Note_on_c, 0, 74, 75
2, 7200, Note_on_c, 0, 74, 0
2, 7200, Note_on_c, 0, 70, 75
2, 7680, Note_on_c, 0, 70, 0
2, 7680, Note_on_c, 0, 77, 75
2, 8400, Note_on_c, 0, 77, 0
2, 8400, Note_on_c, 0, 72, 75
2, 8640, Note_on_c, 0, 72, 0
2, 8640, Note_on_c, 0, 74, 75
2, 9360, Note_on_c, 0, 74, 0
2, 9360, Note_on_c, 0, 70, 75
2, 9600, Note_on_c, 0, 70, 0
2, 9600, Note_on_c, 0, 72, 75
2, 9840, Note_on_c, 0, 72, 0
2, 9840, Note_on_c, 0, 67, 75
2, 10080, Note_on_c, 0, 67, 0
2, 10080, Note_on_c, 0, 69, 75
2, 10320, Note_on_c, 0, 69, 0
2, 10320, Note_on_c, 0, 65, 75
2, 10560, Note_on_c, 0, 65, 0
2, 10560, Note_on_c, 0, 70, 75
2, 11040, Note_on_c, 0, 70, 0
2, 11040, Note_on_c, 0, 70, 75
2, 11280, Note_on_c, 0, 70, 0
2, 11280, Note_on_c, 0, 74, 75
2, 11520, Note_on_c, 0, 74, 0
2, 11520, Note_on_c, 0, 72, 75
2, 12000, Note_on_c, 0, 72, 0
2, 12000, Note_on_c, 0, 72, 75
2, 12240, Note_on_c, 0, 72, 0
2, 12240, Note_on_c, 0, 75, 75
2, 12480, Note_on_c, 0, 75, 0
2, 12480, Note_on_c, 0, 74, 75
2, 12960, Note_on_c, 0, 74, 0
2, 12960, Note_on_c, 0, 74, 75
2, 13200, Note_on_c, 0, 74, 0
2, 13200, Note_on_c, 0, 77, 75
2, 13440, Note_on_c, 0, 77, 0
2, 13440, Note_on_c, 0, 75, 75
2, 13680, Note_on_c, 0, 75, 0
2, 13680, Note_on_c, 0, 74, 75
2, 13920, Note_on_c, 0, 74, 0
2, 13920, Note_on_c, 0, 75, 75
2, 14160, Note_on_c, 0, 75, 0
2, 14160, Note_on_c, 0, 72, 75
2, 14400, Note_on_c, 0, 72, 0
2, 14400, Note_on_c, 0, 77, 75
2, 14640, Note_on_c, 0, 77, 0
2, 14640, Note_on_c, 0, 74, 75
2, 14880, Note_on_c, 0, 74, 0
2, 14880, Note_on_c, 0, 70, 75
2, 15120, Note_on_c, 0, 70, 0
2, 15120, Note_on_c, 0, 74, 75
2, 15360, Note_on_c, 0, 74, 0
2, 15360, Note_on_c, 0, 72, 75
2, 15840, Note_on_c, 0, 72, 0
2, 15840, Note_on_c, 0, 72, 75
2, 16080, Note_on_c, 0, 72, 0
2, 16080, Note_on_c, 0, 75, 75
2, 16320, Note_on_c, 0, 75, 0
2, 16320, Note_on_c, 0, 74, 75
2, 16800, Note_on_c, 0, 74, 0
2, 16800, Note_on_c, 0, 74, 75
2, 17040, Note_on_c, 0, 74, 0
2, 17040, Note_on_c, 0, 77, 75
2, 17280, Note_on_c, 0, 77, 0
2, 17280, Note_on_c, 0, 75, 75
2, 17520, Note_on_c, 0, 75, 0
2, 17520, Note_on_c, 0, 74, 75
2, 17760, Note_on_c, 0, 74, 0
2, 17760, Note_on_c, 0, 75, 75
2, 18000, Note_on_c, 0, 75, 0
2, 18000, Note_on_c, 0, 72, 75
2, 18240, Note_on_c, 0, 72, 0
2, 18240, Note_on_c, 0, 70, 75
2, 18480, Note_on_c, 0, 70, 0
2, 18480, Note_on_c, 0, 69, 75
2, 18720, Note_on_c, 0, 69, 0
2, 18720, Note_on_c, 0, 70, 75
2, 18960, Note_on_c, 0, 70, 0
2, 18960, Note_on_c, 0, 67, 75
2, 19200, Note_on_c, 0, 67, 0
2, 19200, Note_on_c, 0, 63, 62
2, 19440, Note_on_c, 0, 63, 0
2, 19440, Note_on_c, 0, 67, 62
2, 19680, Note_on_c, 0, 67, 0
2, 19680, Note_on_c, 0, 68, 62
2, 19920, Note_on_c, 0, 68, 0
2, 19920, Note_on_c, 0, 69, 62
2, 20160, Note_on_c, 0, 69, 0
2, 20160, Note_on_c, 0, 65, 62
2, 20400, Note_on_c, 0, 65, 0
2, 20400, Note_on_c, 0, 67, 62
2, 20640, Note_on_c, 0, 67, 0
2, 20640, Note_on_c, 0, 69, 62
2, 20880, Note_on_c, 0, 69, 0
2, 20880, Note_on_c, 0, 70, 62
2, 21120, Note_on_c, 0, 70, 0
2, 21120, Note_on_c, 0, 69, 62
2, 21360, Note_on_c, 0, 69, 0
2, 21360, Note_on_c, 0, 70, 62
2, 21600, Note_on_c, 0, 70, 0
2, 21600, Note_on_c, 0, 72, 62
2, 21840, Note_on_c, 0, 72, 0
2, 21840, Note_on_c, 0, 73, 62
2, 22080, Note_on_c, 0, 73, 0
2, 22080, Note_on_c, 0, 70, 62
2, 22320, Note_on_c, 0, 70, 0
2, 22320, Note_on_c, 0, 72, 62
2, 22560, Note_on_c, 0, 72, 0
2, 22560, Note_on_c, 0, 73, 75
2, 22800, Note_on_c, 0, 73, 0
2, 22800, Note_on_c, 0, 74, 75
2, 23040, Note_on_c, 0, 74, 0
2, 23040, Note_on_c, 0, 63, 75
2, 23040, Note_on_c, 0, 75, 75
2, 23280, Note_on_c, 0, 75, 0
2, 23280, Note_on_c, 0, 63, 0
2, 23280, Note_on_c, 0, 67, 75
2, 23280, Note_on_c, 0, 79, 75
2, 23520, Note_on_c, 0, 79, 0
2, 23520, Note_on_c, 0, 67, 0
2, 23520, Note_on_c, 0, 68, 75
2, 23520, Note_on_c, 0, 80, 75
2, 23760, Note_on_c, 0, 80, 0
2, 23760, Note_on_c, 0, 68, 0
2, 23760, Note_on_c, 0, 69, 75
2, 23760, Note_on_c, 0, 81, 75
2, 24000, Note_on_c, 0, 81, 0
2, 24000, Note_on_c, 0, 69, 0
2, 24000, Note_on_c, 0, 65, 75
2, 24000, Note_on_c, 0, 77, 75
2, 24240, Note_on_c, 0, 77, 0
2, 24240, Note_on_c, 0, 65, 0
2, 24240, Note_on_c, 0, 67, 75
2, 24240, Note_on_c, 0, 79, 75
2, 24480, Note_on_c, 0, 79, 0
2, 24480, Note_on_c, 0, 67, 0
2, 24480, Note_on_c, 0, 69, 75
2, 24480, Note_on_c, 0, 81, 75
2, 24720, Note_on_c, 0, 81, 0
2, 24720, Note_on_c, 0, 69, 0
2, 24720, Note_on_c, 0, 70, 75
2, 24720, Note_on_c, 0, 82, 75
2, 24960, Note_on_c, 0, 82, 0
2, 24960, Note_on_c, 0, 70, 0
2, 24960, Note_on_c, 0, 69, 75
2, 24960, Note_on_c, 0, 81, 75
2, 25200, Note_on_c, 0, 81, 0
2, 25200, Note_on_c, 0, 69, 0
2, 25200, Note_on_c, 0, 70, 75
2, 25200, Note_on_c, 0, 82, 75
2, 25440, Note_on_c, 0, 82, 0
2, 25440, Note_on_c, 0, 70, 0
2, 25440, Note_on_c, 0, 72, 75
2, 25440, Note_on_c, 0, 84, 75
2, 25680, Note_on_c, 0, 84, 0
2, 25680, Note_on_c, 0, 72, 0
2, 25680, Note_on_c, 0, 73, 75
2, 25680, Note_on_c, 0, 85, 75
2, 25920, Note_on_c, 0, 85, 0
2, 25920, Note_on_c, 0, 73, 0
2, 25920, Note_on_c, 0, 73, 75
2, 25920, Note_on_c, 0, 85, 75
2, 26160, Note_on_c, 0, 85, 0
2, 26160, Note_on_c, 0, 73, 0
2, 26160, Note_on_c, 0, 74, 75
2, 26160, Note_on_c, 0, 86, 75
2, 26400, Note_on_c, 0, 86, 0
2, 26400, Note_on_c, 0, 74, 0
2, 26400, Note_on_c, 0, 70, 62
2, 26640, Note_on_c, 0, 70, 0
2, 26640, Note_on_c, 0, 67, 62
2, 26880, Note_on_c, 0, 67, 0
2, 26880, Note_on_c, 0, 69, 62
2, 27360, Note_on_c, 0, 69, 0
2, 27360, Note_on_c, 0, 69, 62
2, 27600, Note_on_c, 0, 69, 0
2, 27600, Note_on_c, 0, 65, 62
2, 27840, Note_on_c, 0, 65, 0
2, 27840, Note_on_c, 0, 67, 62
2, 28320, Note_on_c, 0, 67, 0
2, 28320, Note_on_c, 0, 67, 62
2, 28560, Note_on_c, 0, 67, 0
2, 28560, Note_on_c, 0, 62, 62
2, 28800, Note_on_c, 0, 62, 0
2, 28800, Note_on_c, 0, 60, 62
2, 28800, Note_on_c, 0, 65, 62
2, 29040, Note_on_c, 0, 65, 0
2, 29040, Note_on_c, 0, 60, 0
2, 29040, Note_on_c, 0, 61, 62
2, 29280, Note_on_c, 0, 61, 0
2, 29280, Note_on_c, 0, 65, 75
2, 29520, Note_on_c, 0, 65, 0
2, 29520, Note_on_c, 0, 60, 75
2, 29760, Note_on_c, 0, 60, 0
2, 29760, Note_on_c, 0, 65, 75
2, 30000, Note_on_c, 0, 65, 0
2, 30000, Note_on_c, 0, 62, 75
2, 30240, Note_on_c, 0, 62, 0
2, 30240, Note_on_c, 0, 70, 75
2, 30240, Note_on_c, 0, 82, 75
2, 30480, Note_on_c, 0, 82, 0
2, 30480, Note_on_c, 0, 70, 0
2, 30480, Note_on_c, 0, 67, 75
2, 30480, Note_on_c, 0, 79, 75
2, 30720, Note_on_c, 0, 79, 0
2, 30720, Note_on_c, 0, 67, 0
2, 30720, Note_on_c, 0, 69, 75
2, 30720, Note_on_c, 0, 81, 75
2, 31200, Note_on_c, 0, 81, 0
2, 31200, Note_on_c, 0, 69, 0
2, 31200, Note_on_c, 0, 69, 75
2, 31200, Note_on_c, 0, 81, 75
2, 31440, Note_on_c, 0, 81, 0
2, 31440, Note_on_c, 0, 69, 0
2, 31440, Note_on_c, 0, 65, 75
2, 31440, Note_on_c, 0, 77, 75
2, 31680, Note_on_c, 0, 77, 0
2, 31680, Note_on_c, 0, 65, 0
2, 31680, Note_on_c, 0, 67, 75
2, 31680, Note_on_c, 0, 79, 75
2, 32160, Note_on_c, 0, 79, 0
2, 32160, Note_on_c, 0, 67, 0
2, 32160, Note_on_c, 0, 67, 75
2, 32160, Note_on_c, 0, 79, 75
2, 32400, Note_on_c, 0, 79, 0
2, 32400, Note_on_c, 0, 67, 0
2, 32400, Note_on_c, 0, 62, 75
2, 32400, Note_on_c, 0, 74, 75
2, 32640, Note_on_c, 0, 74, 0
2, 32640, Note_on_c, 0, 62, 0
2, 32640, Note_on_c, 0, 65, 75
2, 32640, Note_on_c, 0, 72, 75
2, 32640, Note_on_c, 0, 77, 75
2, 32880, Note_on_c, 0, 77, 0
2, 32880, Note_on_c, 0, 72, 0
2, 32880, Note_on_c, 0, 65, 0
2, 32880, Note_on_c, 0, 61, 75
2, 32880, Note_on_c, 0, 73, 75
2, 33120, Note_on_c, 0, 73, 0
2, 33120, Note_on_c, 0, 61, 0
2, 33120, Note_on_c, 0, 65, 75
2, 33120, Note_on_c, 0, 77, 75
2, 33360, Note_on_c, 0, 77, 0
2, 33360, Note_on_c, 0, 65, 0
2, 33360, Note_on_c, 0, 60, 75
2, 33360, Note_on_c, 0, 72, 75
2, 33520, Note_on_c, 0, 65, 75
2, 33560, Note_on_c, 0, 70, 75
2, 33600, Note_on_c, 0, 72, 0
2, 33600, Note_on_c, 0, 60, 0
2, 33600, Note_on_c, 0, 77, 75
2, 34080, Note_on_c, 0, 77, 0
2, 34080, Note_on_c, 0, 65, 0
2, 34080, Note_on_c, 0, 70, 0
2, 34080, Control_c, 0, 64, 127
2, 36960, Control_c, 0, 64, 0
2, 36960, End_track
3, 0, Start_track
3, 0, Title_t, "Grand Piano"
3, 0, Program_c, 0, 0
3, 0, Control_c, 0, 7, 115
3, 0, Control_c, 0, 10, 79
3, 3840, Note_on_c, 0, 69, 62
3, 4320, Note_on_c, 0, 69, 0
3, 4320, Note_on_c, 0, 65, 62
3, 4560, Note_on_c, 0, 65, 0
3, 4560, Note_on_c, 0, 69, 62
3, 4800, Note_on_c, 0, 69, 0
3, 4800, Note_on_c, 0, 70, 62
3, 5280, Note_on_c, 0, 70, 0
3, 5280, Note_on_c, 0, 67, 62
3, 5760, Note_on_c, 0, 67, 0
3, 5760, Note_on_c, 0, 65, 62
3, 6240, Note_on_c, 0, 65, 0
3, 6240, Note_on_c, 0, 60, 62
3, 6720, Note_on_c, 0, 60, 0
3, 6720, Note_on_c, 0, 62, 62
3, 7200, Note_on_c, 0, 62, 0
3, 7200, Note_on_c, 0, 67, 62
3, 7680, Note_on_c, 0, 67, 0
3, 7680, Note_on_c, 0, 65, 62
3, 8160, Note_on_c, 0, 65, 0
3, 8160, Note_on_c, 0, 63, 62
3, 8640, Note_on_c, 0, 63, 0
3, 8640, Note_on_c, 0, 62, 62
3, 8640, Note_on_c, 0, 70, 62
3, 9120, Note_on_c, 0, 70, 0
3, 9120, Note_on_c, 0, 62, 0
3, 9120, Note_on_c, 0, 67, 62
3, 9600, Note_on_c, 0, 67, 0
3, 9600, Note_on_c, 0, 65, 62
3, 10080, Note_on_c, 0, 65, 0
3, 10080, Note_on_c, 0, 60, 62
3, 10560, Note_on_c, 0, 60, 0
3, 10560, Note_on_c, 0, 58, 62
3, 10560, Note_on_c, 0, 65, 62
3, 11040, Note_on_c, 0, 65, 0
3, 11040, Note_on_c, 0, 58, 0
3, 11520, Note_on_c, 0, 60, 62
3, 11520, Note_on_c, 0, 69, 62
3, 12000, Note_on_c, 0, 69, 0
3, 12000, Note_on_c, 0, 60, 0
3, 12480, Note_on_c, 0, 62, 62
3, 12480, Note_on_c, 0, 70, 62
3, 12960, Note_on_c, 0, 70, 0
3, 12960, Note_on_c, 0, 62, 0
3, 13440, Note_on_c, 0, 63, 62
3, 13440, Note_on_c, 0, 69, 62
3, 13920, Note_on_c, 0, 69, 0
3, 13920, Note_on_c, 0, 63, 0
3, 14400, Note_on_c, 0, 65, 62
3, 14400, Note_on_c, 0, 70, 62
3, 14880, Note_on_c, 0, 70, 0
3, 14880, Note_on_c, 0, 65, 0
3, 15360, Note_on_c, 0, 60, 62
3, 15360, Note_on_c, 0, 69, 62
3, 15840, Note_on_c, 0, 69, 0
3, 15840, Note_on_c, 0, 60, 0
3, 16320, Note_on_c, 0, 62, 62
3, 16320, Note_on_c, 0, 70, 62
3, 16800, Note_on_c, 0, 70, 0
3, 16800, Note_on_c, 0, 62, 0
3, 17280, Note_on_c, 0, 63, 62
3, 17280, Note_on_c, 0, 69, 62
3, 17760, Note_on_c, 0, 69, 0
3, 17760, Note_on_c, 0, 63, 0
3, 18240, Note_on_c, 0, 58, 62
3, 18240, Note_on_c, 0, 65, 62
3, 18720, Note_on_c, 0, 65, 0
3, 18720, Note_on_c, 0, 58, 0
3, 26400, Note_on_c, 0, 65, 49
3, 27360, Note_on_c, 0, 65, 0
3, 27360, Note_on_c, 0, 63, 49
3, 27840, Note_on_c, 0, 63, 0
3, 27840, Note_on_c, 0, 62, 49
3, 28800, Note_on_c, 0, 62, 0
3, 30240, Note_on_c, 0, 74, 62
3, 30240, Note_on_c, 0, 77, 62
3, 30720, Note_on_c, 0, 77, 0
3, 30720, Note_on_c, 0, 74, 0
3, 30720, Note_on_c, 0, 72, 62
3, 30720, Note_on_c, 0, 77, 62
3, 31200, Note_on_c, 0, 77, 0
3, 31200, Note_on_c, 0, 72, 0
3, 31200, Note_on_c, 0, 69, 62
3, 31200, Note_on_c, 0, 75, 62
3, 31680, Note_on_c, 0, 75, 0
3, 31680, Note_on_c, 0, 69, 0
3, 31680, Note_on_c, 0, 70, 62
3, 31680, Note_on_c, 0, 74, 62
3, 32640, Note_on_c, 0, 74, 0
3, 32640, Note_on_c, 0, 70, 0
3, 32640, End_track
4, 0, Start_track
4, 0, Title_t, "Grand Piano"
4, 0, Program_c, 0, 0
4, 0, Control_c, 0, 7, 115
4, 0, Control_c, 0, 10, 41
4, 0, Note_on_c, 0, 63, 62
4, 240, Note_on_c, 0, 63, 0
4, 240, Note_on_c, 0, 60, 62
4, 480, Note_on_c, 0, 60, 0
4, 480, Note_on_c, 0, 57, 62
4, 720, Note_on_c, 0, 57, 0
4, 720, Note_on_c, 0, 53, 62
4, 960, Note_on_c, 0, 53, 0
4, 960, Note_on_c, 0, 54, 62
4, 1200, Note_on_c, 0, 54, 0
4, 1200, Note_on_c, 0, 55, 62
4, 1440, Note_on_c, 0, 55, 0
4, 1440, Note_on_c, 0, 58, 62
4, 1680, Note_on_c, 0, 58, 0
4, 1680, Note_on_c, 0, 62, 62
4, 1920, Note_on_c, 0, 62, 0
4, 1920, Note_on_c, 0, 63, 62
4, 2160, Note_on_c, 0, 63, 0
4, 2160, Note_on_c, 0, 60, 62
4, 2400, Note_on_c, 0, 60, 0
4, 2400, Note_on_c, 0, 57, 62
4, 2640, Note_on_c, 0, 57, 0
4, 2640, Note_on_c, 0, 53, 62
4, 2880, Note_on_c, 0, 53, 0
4, 2880, Note_on_c, 0, 54, 62
4, 3120, Note_on_c, 0, 54, 0
4, 3120, Note_on_c, 0, 55, 62
4, 3360, Note_on_c, 0, 55, 0
4, 3360, Note_on_c, 0, 58, 62
4, 3600, Note_on_c, 0, 58, 0
4, 3600, Note_on_c, 0, 62, 62
4, 3840, Note_on_c, 0, 62, 0
4, 3840, Note_on_c, 0, 63, 62
4, 4080, Note_on_c, 0, 63, 0
4, 4080, Note_on_c, 0, 60, 62
4, 4320, Note_on_c, 0, 60, 0
4, 4320, Note_on_c, 0, 57, 62
4, 4560, Note_on_c, 0, 57, 0
4, 4560, Note_on_c, 0, 53, 62
4, 4800, Note_on_c, 0, 53, 0
4, 4800, Note_on_c, 0, 54, 62
4, 5040, Note_on_c, 0, 54, 0
4, 5040, Note_on_c, 0, 55, 62
4, 5280, Note_on_c, 0, 55, 0
4, 5280, Note_on_c, 0, 58, 62
4, 5520, Note_on_c, 0, 58, 0
4, 5520, Note_on_c, 0, 62, 62
4, 5760, Note_on_c, 0, 62, 0
4, 5760, Note_on_c, 0, 63, 62
4, 6000, Note_on_c, 0, 63, 0
4, 6000, Note_on_c, 0, 60, 62
4, 6240, Note_on_c, 0, 60, 0
4, 6240, Note_on_c, 0, 57, 62
4, 6480, Note_on_c, 0, 57, 0
4, 6480, Note_on_c, 0, 53, 62
4, 6720, Note_on_c, 0, 53, 0
4, 6720, Note_on_c, 0, 54, 62
4, 6960, Note_on_c, 0, 54, 0
4, 6960, Note_on_c, 0, 55, 62
4, 7200, Note_on_c, 0, 55, 0
4, 7200, Note_on_c, 0, 58, 62
4, 7440, Note_on_c, 0, 58, 0
4, 7440, Note_on_c, 0, 62, 62
4, 7680, Note_on_c, 0, 62, 0
4, 7680, Note_on_c, 0, 63, 62
4, 7920, Note_on_c, 0, 63, 0
4, 7920, Note_on_c, 0, 60, 62
4, 8160, Note_on_c, 0, 60, 0
4, 8160, Note_on_c, 0, 57, 62
4, 8400, Note_on_c, 0, 57, 0
4, 8400, Note_on_c, 0, 53, 62
4, 8640, Note_on_c, 0, 53, 0
4, 8640, Note_on_c, 0, 54, 62
4, 8880, Note_on_c, 0, 54, 0
4, 8880, Note_on_c, 0, 55, 62
4, 9120, Note_on_c, 0, 55, 0
4, 9120, Note_on_c, 0, 58, 62
4, 9360, Note_on_c, 0, 58, 0
4, 9360, Note_on_c, 0, 62, 62
4, 9600, Note_on_c, 0, 62, 0
4, 9600, Note_on_c, 0, 63, 62
4, 9840, Note_on_c, 0, 63, 0
4, 9840, Note_on_c, 0, 60, 62
4, 10080, Note_on_c, 0, 60, 0
4, 10080, Note_on_c, 0, 57, 62
4, 10320, Note_on_c, 0, 57, 0
4, 10320, Note_on_c, 0, 53, 62
4, 10560, Note_on_c, 0, 53, 0
4, 10560, Note_on_c, 0, 50, 62
4, 10800, Note_on_c, 0, 50, 0
4, 10800, Note_on_c, 0, 53, 62
4, 11040, Note_on_c, 0, 53, 0
4, 11040, Note_on_c, 0, 58, 62
4, 11280, Note_on_c, 0, 58, 0
4, 11280, Note_on_c, 0, 62, 62
4, 11520, Note_on_c, 0, 62, 0
4, 11520, Note_on_c, 0, 51, 62
4, 11760, Note_on_c, 0, 51, 0
4, 11760, Note_on_c, 0, 54, 62
4, 12000, Note_on_c, 0, 54, 0
4, 12000, Note_on_c, 0, 57, 62
4, 12240, Note_on_c, 0, 57, 0
4, 12240, Note_on_c, 0, 60, 62
4, 12480, Note_on_c, 0, 60, 0
4, 12480, Note_on_c, 0, 54, 62
4, 12720, Note_on_c, 0, 54, 0
4, 12720, Note_on_c, 0, 55, 62
4, 12960, Note_on_c, 0, 55, 0
4, 12960, Note_on_c, 0, 58, 62
4, 13200, Note_on_c, 0, 58, 0
4, 13200, Note_on_c, 0, 62, 62
4, 13440, Note_on_c, 0, 62, 0
4, 13440, Note_on_c, 0, 53, 62
4, 13680, Note_on_c, 0, 53, 0
4, 13680, Note_on_c, 0, 57, 62
4, 13920, Note_on_c, 0, 57, 0
4, 13920, Note_on_c, 0, 60, 62
4, 14160, Note_on_c, 0, 60, 0
4, 14160, Note_on_c, 0, 63, 62
4, 14400, Note_on_c, 0, 63, 0
4, 14400, Note_on_c, 0, 50, 62
4, 14640, Note_on_c, 0, 50, 0
4, 14640, Note_on_c, 0, 53, 62
4, 14880, Note_on_c, 0, 53, 0
4, 14880, Note_on_c, 0, 55, 62
4, 15120, Note_on_c, 0, 55, 0
4, 15120, Note_on_c, 0, 58, 62
4, 15360, Note_on_c, 0, 58, 0
4, 15360, Note_on_c, 0, 51, 62
4, 15600, Note_on_c, 0, 51, 0
4, 15600, Note_on_c, 0, 54, 62
4, 15840, Note_on_c, 0, 54, 0
4, 15840, Note_on_c, 0, 57, 62
4, 16080, Note_on_c, 0, 57, 0
4, 16080, Note_on_c, 0, 60, 62
4, 16320, Note_on_c, 0, 60, 0
4, 16320, Note_on_c, 0, 54, 62
4, 16560, Note_on_c, 0, 54, 0
4, 16560, Note_on_c, 0, 55, 62
4, 16800, Note_on_c, 0, 55, 0
4, 16800, Note_on_c, 0, 58, 62
4, 17040, Note_on_c, 0, 58, 0
4, 17040, Note_on_c, 0, 62, 62
4, 17280, Note_on_c, 0, 62, 0
4, 17280, Note_on_c, 0, 53, 62
4, 17520, Note_on_c, 0, 53, 0
4, 17520, Note_on_c, 0, 57, 62
4, 17760, Note_on_c, 0, 57, 0
4, 17760, Note_on_c, 0, 60, 62
4, 18000, Note_on_c, 0, 60, 0
4, 18000, Note_on_c, 0, 63, 62
4, 18240, Note_on_c, 0, 63, 0
4, 18240, Note_on_c, 0, 50, 62
4, 18480, Note_on_c, 0, 50, 0
4, 18480, Note_on_c, 0, 53, 62
4, 18720, Note_on_c, 0, 53, 0
4, 18720, Note_on_c, 0, 55, 62
4, 18960, Note_on_c, 0, 55, 0
4, 18960, Note_on_c, 0, 58, 62
4, 19200, Note_on_c, 0, 58, 0
4, 19200, Note_on_c, 0, 65, 75
4, 19920, Note_on_c, 0, 65, 0
4, 19920, Note_on_c, 0, 60, 75
4, 20160, Note_on_c, 0, 60, 0
4, 20160, Note_on_c, 0, 62, 75
4, 20880, Note_on_c, 0, 62, 0
4, 20880, Note_on_c, 0, 58, 75
4, 21120, Note_on_c, 0, 58, 0
4, 21120, Note_on_c, 0, 60, 75
4, 21360, Note_on_c, 0, 60, 0
4, 21360, Note_on_c, 0, 55, 75
4, 21600, Note_on_c, 0, 55, 0
4, 21600, Note_on_c, 0, 57, 75
4, 21840, Note_on_c, 0, 57, 0
4, 21840, Note_on_c, 0, 53, 75
4, 22080, Note_on_c, 0, 53, 0
4, 22080, Note_on_c, 0, 62, 75
4, 22560, Note_on_c, 0, 62, 0
4, 22560, Note_on_c, 0, 58, 75
4, 23040, Note_on_c, 0, 58, 0
4, 23040, Note_on_c, 0, 65, 88
4, 23760, Note_on_c, 0, 65, 0
4, 23760, Note_on_c, 0, 60, 88
4, 24000, Note_on_c, 0, 60, 0
4, 24000, Note_on_c, 0, 62, 88
4, 24720, Note_on_c, 0, 62, 0
4, 24720, Note_on_c, 0, 58, 88
4, 24960, Note_on_c, 0, 58, 0
4, 24960, Note_on_c, 0, 60, 88
4, 25200, Note_on_c, 0, 60, 0
4, 25200, Note_on_c, 0, 55, 88
4, 25440, Note_on_c, 0, 55, 0
4, 25440, Note_on_c, 0, 57, 88
4, 25680, Note_on_c, 0, 57, 0
4, 25680, Note_on_c, 0, 53, 88
4, 25920, Note_on_c, 0, 53, 0
4, 25920, Note_on_c, 0, 58, 88
4, 26160, Note_on_c, 0, 58, 0
4, 26160, Note_on_c, 0, 53, 88
4, 26400, Note_on_c, 0, 53, 0
4, 26400, Note_on_c, 0, 58, 62
4, 26640, Note_on_c, 0, 58, 0
4, 26640, Note_on_c, 0, 62, 62
4, 26880, Note_on_c, 0, 62, 0
4, 26880, Note_on_c, 0, 51, 62
4, 27120, Note_on_c, 0, 51, 0
4, 27120, Note_on_c, 0, 53, 62
4, 27360, Note_on_c, 0, 53, 0
4, 27360, Note_on_c, 0, 57, 62
4, 27600, Note_on_c, 0, 57, 0
4, 27600, Note_on_c, 0, 60, 62
4, 27840, Note_on_c, 0, 60, 0
4, 27840, Note_on_c, 0, 50, 62
4, 28080, Note_on_c, 0, 50, 0
4, 28080, Note_on_c, 0, 53, 62
4, 28320, Note_on_c, 0, 53, 0
4, 28320, Note_on_c, 0, 55, 62
4, 28560, Note_on_c, 0, 55, 0
4, 28560, Note_on_c, 0, 58, 62
4, 28800, Note_on_c, 0, 58, 0
4, 28800, Note_on_c, 0, 51, 62
4, 29040, Note_on_c, 0, 51, 0
4, 29040, Note_on_c, 0, 53, 62
4, 29280, Note_on_c, 0, 53, 0
4, 29280, Note_on_c, 0, 57, 62
4, 29520, Note_on_c, 0, 57, 0
4, 29520, Note_on_c, 0, 63, 62
4, 29760, Note_on_c, 0, 63, 0
4, 29760, Note_on_c, 0, 50, 62
4, 30000, Note_on_c, 0, 50, 0
4, 30000, Note_on_c, 0, 53, 62
4, 30240, Note_on_c, 0, 53, 0
4, 30240, Note_on_c, 0, 58, 62
4, 30480, Note_on_c, 0, 58, 0
4, 30480, Note_on_c, 0, 62, 62
4, 30720, Note_on_c, 0, 62, 0
4, 30720, Note_on_c, 0, 51, 62
4, 30960, Note_on_c, 0, 51, 0
4, 30960, Note_on_c, 0, 53, 62
4, 31200, Note_on_c, 0, 53, 0
4, 31200, Note_on_c, 0, 57, 62
4, 31440, Note_on_c, 0, 57, 0
4, 31440, Note_on_c, 0, 60, 62
4, 31680, Note_on_c, 0, 60, 0
4, 31680, Note_on_c, 0, 50, 62
4, 31920, Note_on_c, 0, 50, 0
4, 31920, Note_on_c, 0, 53, 62
4, 32160, Note_on_c, 0, 53, 0
4, 32160, Note_on_c, 0, 55, 62
4, 32400, Note_on_c, 0, 55, 0
4, 32400, Note_on_c, 0, 58, 62
4, 32640, Note_on_c, 0, 58, 0
4, 32640, Note_on_c, 0, 51, 62
4, 32880, Note_on_c, 0, 51, 0
4, 32880, Note_on_c, 0, 53, 62
4, 33120, Note_on_c, 0, 53, 0
4, 33120, Note_on_c, 0, 57, 62
4, 33360, Note_on_c, 0, 57, 0
4, 33360, Note_on_c, 0, 63, 62
4, 33510, Note_on_c, 0, 46, 62
4, 33540, Note_on_c, 0, 53, 62
4, 33570, Note_on_c, 0, 58, 62
4, 33600, Note_on_c, 0, 63, 0
4, 33600, Note_on_c, 0, 62, 62
4, 34080, Note_on_c, 0, 62, 0
4, 34080, Note_on_c, 0, 58, 0
4, 34080, Note_on_c, 0, 53, 0
4, 34080, Note_on_c, 0, 46, 0
4, 34080, End_track
5, 0, Start_track
5, 0, Title_t, "Grand Piano"
5, 0, Program_c, 0, 0
5, 0, Control_c, 0, 7, 115
5, 0, Control_c, 0, 10, 47
5, 0, Note_on_c, 0, 46, 62
5, 480, Note_on_c, 0, 46, 0
5, 960, Note_on_c, 0, 46, 62
5, 1440, Note_on_c, 0, 46, 0
5, 1920, Note_on_c, 0, 46, 62
5, 2400, Note_on_c, 0, 46, 0
5, 2880, Note_on_c, 0, 46, 62
5, 3360, Note_on_c, 0, 46, 0
5, 3840, Note_on_c, 0, 46, 62
5, 4320, Note_on_c, 0, 46, 0
5, 4800, Note_on_c, 0, 46, 62
5, 5280, Note_on_c, 0, 46, 0
5, 5760, Note_on_c, 0, 46, 62
5, 6240, Note_on_c, 0, 46, 0
5, 6720, Note_on_c, 0, 46, 62
5, 7200, Note_on_c, 0, 46, 0
5, 7680, Note_on_c, 0, 46, 62
5, 8160, Note_on_c, 0, 46, 0
5, 8640, Note_on_c, 0, 46, 62
5, 9120, Note_on_c, 0, 46, 0
5, 9600, Note_on_c, 0, 46, 62
5, 10080, Note_on_c, 0, 46, 0
5, 10560, Note_on_c, 0, 46, 62
5, 11040, Note_on_c, 0, 46, 0
5, 11520, Note_on_c, 0, 46, 62
5, 12000, Note_on_c, 0, 46, 0
5, 12480, Note_on_c, 0, 46, 62
5, 12960, Note_on_c, 0, 46, 0
5, 13440, Note_on_c, 0, 46, 62
5, 13920, Note_on_c, 0, 46, 0
5, 14400, Note_on_c, 0, 46, 62
5, 14880, Note_on_c, 0, 46, 0
5, 15360, Note_on_c, 0, 46, 62
5, 15840, Note_on_c, 0, 46, 0
5, 16320, Note_on_c, 0, 46, 62
5, 16800, Note_on_c, 0, 46, 0
5, 17280, Note_on_c, 0, 46, 62
5, 17760, Note_on_c, 0, 46, 0
5, 18240, Note_on_c, 0, 46, 62
5, 18720, Note_on_c, 0, 46, 0
5, 19120, Note_on_c, 0, 53, 62
5, 19160, Note_on_c, 0, 57, 62
5, 19200, Note_on_c, 0, 60, 62
5, 19680, Note_on_c, 0, 60, 0
5, 19680, Note_on_c, 0, 57, 0
5, 19680, Note_on_c, 0, 53, 0
5, 19680, Note_on_c, 0, 46, 62
5, 19680, Note_on_c, 0, 53, 62
5, 20160, Note_on_c, 0, 53, 0
5, 20160, Note_on_c, 0, 46, 0
5, 20160, Note_on_c, 0, 53, 62
5, 20160, Note_on_c, 0, 58, 62
5, 20640, Note_on_c, 0, 58, 0
5, 20640, Note_on_c, 0, 53, 0
5, 20640, Note_on_c, 0, 46, 62
5, 20640, Note_on_c, 0, 53, 62
5, 21120, Note_on_c, 0, 53, 0
5, 21120, Note_on_c, 0, 46, 0
5, 21120, Note_on_c, 0, 53, 62
5, 21600, Note_on_c, 0, 53, 0
5, 21600, Note_on_c, 0, 46, 62
5, 22080, Note_on_c, 0, 46, 0
5, 22080, Note_on_c, 0, 53, 62
5, 22080, Note_on_c, 0, 58, 62
5, 22560, Note_on_c, 0, 58, 0
5, 22560, Note_on_c, 0, 53, 0
5, 22560, Note_on_c, 0, 46, 62
5, 22560, Note_on_c, 0, 53, 62
5, 22960, Note_on_c, 0, 53, 62
5, 23000, Note_on_c, 0, 57, 62
5, 23040, Note_on_c, 0, 53, 0
5, 23040, Note_on_c, 0, 46, 0
5, 23040, Note_on_c, 0, 60, 75
5, 23520, Note_on_c, 0, 60, 0
5, 23520, Note_on_c, 0, 53, 0
5, 23520, Note_on_c, 0, 57, 0
5, 23520, Note_on_c, 0, 46, 75
5, 23520, Note_on_c, 0, 53, 75
5, 24000, Note_on_c, 0, 53, 0
5, 24000, Note_on_c, 0, 46, 0
5, 24000, Note_on_c, 0, 53, 75
5, 24000, Note_on_c, 0, 58, 75
5, 24480, Note_on_c, 0, 58, 0
5, 24480, Note_on_c, 0, 53, 0
5, 24480, Note_on_c, 0, 46, 75
5, 24480, Note_on_c, 0, 53, 75
5, 24960, Note_on_c, 0, 53, 0
5, 24960, Note_on_c, 0, 46, 0
5, 24960, Note_on_c, 0, 53, 75
5, 25440, Note_on_c, 0, 53, 0
5, 25440, Note_on_c, 0, 46, 75
5, 25920, Note_on_c, 0, 46, 0
5, 25920, Note_on_c, 0, 53, 75
5, 26160, Note_on_c, 0, 53, 0
5, 26400, Note_on_c, 0, 46, 49
5, 26400, Note_on_c, 0, 53, 49
5, 26640, Note_on_c, 0, 53, 0
5, 26640, Note_on_c, 0, 46, 0
5, 26880, Note_on_c, 0, 46, 49
5, 26880, Note_on_c, 0, 48, 49
5, 27840, Note_on_c, 0, 48, 0
5, 27840, Note_on_c, 0, 46, 0
5, 27840, Note_on_c, 0, 46, 49
5, 27840, Note_on_c, 0, 50, 49
5, 28800, Note_on_c, 0, 50, 0
5, 28800, Note_on_c, 0, 46, 0
5, 28800, Note_on_c, 0, 46, 49
5, 29040, Note_on_c, 0, 46, 0
5, 29760, Note_on_c, 0, 46, 62
5, 30000, Note_on_c, 0, 46, 0
5, 30720, Note_on_c, 0, 46, 62
5, 30720, Note_on_c, 0, 48, 62
5, 31680, Note_on_c, 0, 48, 0
5, 31680, Note_on_c, 0, 46, 0
5, 31680, Note_on_c, 0, 46, 62
5, 31680, Note_on_c, 0, 50, 62
5, 32640, Note_on_c, 0, 50, 0
5, 32640, Note_on_c, 0, 46, 0
5, 32640, End_track
0, 0, End_of_file
