0, 0, Header, 1, 5, 480
1, 0, Start_track
1, 0, Title_t, "tchaikovsky sleeping beauty act0 3f violente"
1, 0, Copyright_t, "Adaptation for Disklavier pianos, by: Robert C. Kuhmann (c) 2012."
1, 0, Text_t, "Seq. (c) by: Segundo G. Yogore,  2006\012"
1, 0, Time_signature, 2, 2, 24, 8
1, 0, Key_signature, -1, "major"
1, 0, Tempo, 352941
1, 6720, Time_signature, 4, 2, 24, 8
1, 8640, Time_signature, 2, 2, 24, 8
1, 72960, Time_signature, 8, 2, 24, 8
1, 72960, End_track
2, 0, Start_track
2, 0, Title_t, "Grand Piano"
2, 0, Program_c, 0, 0
2, 0, Control_c, 0, 7, 115
2, 0, Control_c, 0, 10, 86
2, 0, Note_on_c, 0, 69, 101
2, 240, Note_on_c, 0, 69, 0
2, 240, Note_on_c, 0, 69, 101
2, 240, Note_on_c, 0, 81, 101
2, 480, Note_on_c, 0, 81, 0
2, 480, Note_on_c, 0, 69, 0
2, 720, Note_on_c, 0, 69, 62
2, 840, Note_on_c, 0, 69, 0
2, 840, Note_on_c, 0, 64, 62
2, 960, Note_on_c, 0, 64, 0
2, 960, Note_on_c, 0, 61, 62
2, 1200, Note_on_c, 0, 61, 0
2, 1200, Note_on_c, 0, 70, 62
2, 1320, Note_on_c, 0, 70, 0
2, 1320, Note_on_c, 0, 64, 62
2, 1440, Note_on_c, 0, 64, 0
2, 1440, Note_on_c, 0, 62, 62
2, 1680, Note_on_c, 0, 62, 0
2, 1920, Note_on_c, 0, 69, 101
2, 2160, Note_on_c, 0, 69, 0
2, 2160, Note_on_c, 0, 69, 101
2, 2160, Note_on_c, 0, 81, 101
2, 2400, Note_on_c, 0, 81, 0
2, 2400, Note_on_c, 0, 69, 0
2, 2640, Note_on_c, 0, 69, 62
2, 2760, Note_on_c, 0, 69, 0
2, 2760, Note_on_c, 0, 64, 62
2, 2880, Note_on_c, 0, 64, 0
2, 2880, Note_on_c, 0, 61, 62
2, 3120, Note_on_c, 0, 61, 0
2, 3120, Note_on_c, 0, 70, 62
2, 3240, Note_on_c, 0, 70, 0
2, 3240, Note_on_c, 0, 64, 62
2, 3360, Note_on_c, 0, 64, 0
2, 3360, Note_on_c, 0, 62, 62
2, 3600, Note_on_c, 0, 62, 0
2, 3840, Note_on_c, 0, 69, 101
2, 4080, Note_on_c, 0, 69, 0
2, 4080, Note_on_c, 0, 69, 101
2, 4080, Note_on_c, 0, 81, 101
2, 4320, Note_on_c, 0, 81, 0
2, 4320, Note_on_c, 0, 69, 0
2, 4560, Note_on_c, 0, 69, 62
2, 4680, Note_on_c, 0, 69, 0
2, 4680, Note_on_c, 0, 64, 62
2, 4800, Note_on_c, 0, 64, 0
2, 4800, Note_on_c, 0, 61, 62
2, 5040, Note_on_c, 0, 61, 0
2, 5040, Note_on_c, 0, 70, 62
2, 5160, Note_on_c, 0, 70, 0
2, 5160, Note_on_c, 0, 65, 62
2, 5280, Note_on_c, 0, 65, 0
2, 5280, Note_on_c, 0, 62, 62
2, 5520, Note_on_c, 0, 62, 0
2, 5520, Note_on_c, 0, 70, 62
2, 5640, Note_on_c, 0, 70, 0
2, 5640, Note_on_c, 0, 67, 62
2, 5760, Note_on_c, 0, 67, 0
2, 5760, Note_on_c, 0, 63, 75
2, 6000, Note_on_c, 0, 63, 0
2, 6000, Note_on_c, 0, 71, 75
2, 6120, Note_on_c, 0, 71, 0
2, 6120, Note_on_c, 0, 67, 75
2, 6240, Note_on_c, 0, 67, 0
2, 6240, Note_on_c, 0, 59, 75
2, 6240, Note_on_c, 0, 63, 75
2, 6480, Note_on_c, 0, 63, 0
2, 6480, Note_on_c, 0, 59, 0
2, 6480, Note_on_c, 0, 71, 75
2, 6600, Note_on_c, 0, 71, 0
2, 6600, Note_on_c, 0, 68, 75
2, 6720, Note_on_c, 0, 68, 0
2, 6720, Note_on_c, 0, 59, 75
2, 6720, Note_on_c, 0, 64, 75
2, 6960, Note_on_c, 0, 64, 0
2, 6960, Note_on_c, 0, 59, 0
2, 6960, Note_on_c, 0, 72, 101
2, 7080, Note_on_c, 0, 72, 0
2, 7080, Note_on_c, 0, 67, 101
2, 7200, Note_on_c, 0, 67, 0
2, 7200, Note_on_c, 0, 60, 101
2, 7200, Note_on_c, 0, 64, 101
2, 7440, Note_on_c, 0, 64, 0
2, 7440, Note_on_c, 0, 60, 0
2, 9360, Note_on_c, 0, 72, 62
2, 9480, Note_on_c, 0, 72, 0
2, 9480, Note_on_c, 0, 69, 62
2, 9600, Note_on_c, 0, 69, 0
2, 9600, Note_on_c, 0, 65, 62
2, 9840, Note_on_c, 0, 65, 0
2, 9840, Note_on_c, 0, 74, 62
2, 9960, Note_on_c, 0, 74, 0
2, 9960, Note_on_c, 0, 69, 62
2, 10080, Note_on_c, 0, 69, 0
2, 10080, Note_on_c, 0, 65, 62
2, 10320, Note_on_c, 0, 65, 0
2, 10320, Note_on_c, 0, 76, 62
2, 10440, Note_on_c, 0, 76, 0
2, 10440, Note_on_c, 0, 72, 62
2, 10560, Note_on_c, 0, 72, 0
2, 10560, Note_on_c, 0, 69, 62
2, 10800, Note_on_c, 0, 69, 0
2, 10800, Note_on_c, 0, 77, 62
2, 10920, Note_on_c, 0, 77, 0
2, 10920, Note_on_c, 0, 72, 62
2, 11040, Note_on_c, 0, 72, 0
2, 11040, Note_on_c, 0, 69, 75
2, 11280, Note_on_c, 0, 69, 0
2, 11280, Note_on_c, 0, 79, 75
2, 11400, Note_on_c, 0, 79, 0
2, 11400, Note_on_c, 0, 72, 75
2, 11520, Note_on_c, 0, 72, 0
2, 11520, Note_on_c, 0, 69, 75
2, 11760, Note_on_c, 0, 69, 0
2, 11760, Note_on_c, 0, 81, 75
2, 11880, Note_on_c, 0, 81, 0
2, 11880, Note_on_c, 0, 77, 75
2, 12000, Note_on_c, 0, 77, 0
2, 12000, Note_on_c, 0, 72, 75
2, 12240, Note_on_c, 0, 72, 0
2, 12240, Note_on_c, 0, 81, 75
2, 12360, Note_on_c, 0, 81, 0
2, 12360, Note_on_c, 0, 74, 75
2, 12480, Note_on_c, 0, 74, 0
2, 12480, Note_on_c, 0, 70, 75
2, 12720, Note_on_c, 0, 70, 0
2, 12720, Note_on_c, 0, 74, 75
2, 12840, Note_on_c, 0, 74, 0
2, 12840, Note_on_c, 0, 70, 75
2, 12960, Note_on_c, 0, 70, 0
2, 12960, Note_on_c, 0, 67, 75
2, 13200, Note_on_c, 0, 67, 0
2, 13200, Note_on_c, 0, 74, 62
2, 13320, Note_on_c, 0, 74, 0
2, 13320, Note_on_c, 0, 70, 62
2, 13440, Note_on_c, 0, 70, 0
2, 13440, Note_on_c, 0, 67, 62
2, 13680, Note_on_c, 0, 67, 0
2, 13680, Note_on_c, 0, 76, 62
2, 13800, Note_on_c, 0, 76, 0
2, 13800, Note_on_c, 0, 70, 62
2, 13920, Note_on_c, 0, 70, 0
2, 13920, Note_on_c, 0, 67, 62
2, 14160, Note_on_c, 0, 67, 0
2, 14160, Note_on_c, 0, 78, 62
2, 14280, Note_on_c, 0, 78, 0
2, 14280, Note_on_c, 0, 74, 62
2, 14400, Note_on_c, 0, 74, 0
2, 14400, Note_on_c, 0, 70, 62
2, 14640, Note_on_c, 0, 70, 0
2, 14640, Note_on_c, 0, 79, 62
2, 14760, Note_on_c, 0, 79, 0
2, 14760, Note_on_c, 0, 74, 62
2, 14880, Note_on_c, 0, 74, 0
2, 14880, Note_on_c, 0, 70, 62
2, 15120, Note_on_c, 0, 70, 0
2, 15120, Note_on_c, 0, 81, 62
2, 15240, Note_on_c, 0, 81, 0
2, 15240, Note_on_c, 0, 74, 62
2, 15360, Note_on_c, 0, 74, 0
2, 15360, Note_on_c, 0, 70, 75
2, 15600, Note_on_c, 0, 70, 0
2, 15600, Note_on_c, 0, 82, 75
2, 15720, Note_on_c, 0, 82, 0
2, 15720, Note_on_c, 0, 79, 75
2, 15840, Note_on_c, 0, 79, 0
2, 15840, Note_on_c, 0, 74, 75
2, 16080, Note_on_c, 0, 74, 0
2, 16080, Note_on_c, 0, 82, 75
2, 16200, Note_on_c, 0, 82, 0
2, 16200, Note_on_c, 0, 79, 75
2, 16320, Note_on_c, 0, 79, 0
2, 16320, Note_on_c, 0, 72, 75
2, 16560, Note_on_c, 0, 72, 0
2, 16560, Note_on_c, 0, 79, 75
2, 16680, Note_on_c, 0, 79, 0
2, 16680, Note_on_c, 0, 76, 75
2, 16800, Note_on_c, 0, 76, 0
2, 16800, Note_on_c, 0, 72, 75
2, 17040, Note_on_c, 0, 72, 0
2, 17040, Note_on_c, 0, 78, 62
2, 17160, Note_on_c, 0, 78, 0
2, 17160, Note_on_c, 0, 76, 62
2, 17280, Note_on_c, 0, 76, 0
2, 17280, Note_on_c, 0, 72, 62
2, 17520, Note_on_c, 0, 72, 0
2, 17520, Note_on_c, 0, 79, 62
2, 17640, Note_on_c, 0, 79, 0
2, 17640, Note_on_c, 0, 76, 62
2, 17760, Note_on_c, 0, 76, 0
2, 17760, Note_on_c, 0, 72, 62
2, 18000, Note_on_c, 0, 72, 0
2, 18000, Note_on_c, 0, 81, 62
2, 18120, Note_on_c, 0, 81, 0
2, 18120, Note_on_c, 0, 76, 62
2, 18240, Note_on_c, 0, 76, 0
2, 18240, Note_on_c, 0, 72, 62
2, 18480, Note_on_c, 0, 72, 0
2, 18480, Note_on_c, 0, 82, 62
2, 18600, Note_on_c, 0, 82, 0
2, 18600, Note_on_c, 0, 76, 62
2, 18720, Note_on_c, 0, 76, 0
2, 18720, Note_on_c, 0, 72, 75
2, 18960, Note_on_c, 0, 72, 0
2, 18960, Note_on_c, 0, 83, 75
2, 19080, Note_on_c, 0, 83, 0
2, 19080, Note_on_c, 0, 79, 75
2, 19200, Note_on_c, 0, 79, 0
2, 19200, Note_on_c, 0, 76, 75
2, 19440, Note_on_c, 0, 76, 0
2, 19440, Note_on_c, 0, 84, 75
2, 19560, Note_on_c, 0, 84, 0
2, 19560, Note_on_c, 0, 79, 75
2, 19680, Note_on_c, 0, 79, 0
2, 19680, Note_on_c, 0, 76, 75
2, 19920, Note_on_c, 0, 76, 0
2, 19920, Note_on_c, 0, 86, 75
2, 20040, Note_on_c, 0, 86, 0
2, 20040, Note_on_c, 0, 81, 75
2, 20160, Note_on_c, 0, 81, 0
2, 20160, Note_on_c, 0, 77, 88
2, 20400, Note_on_c, 0, 77, 0
2, 20400, Note_on_c, 0, 84, 88
2, 20520, Note_on_c, 0, 84, 0
2, 20520, Note_on_c, 0, 81, 88
2, 20640, Note_on_c, 0, 81, 0
2, 20640, Note_on_c, 0, 77, 88
2, 20880, Note_on_c, 0, 77, 0
2, 20880, Note_on_c, 0, 82, 88
2, 21000, Note_on_c, 0, 82, 0
2, 21000, Note_on_c, 0, 78, 88
2, 21120, Note_on_c, 0, 78, 0
2, 21120, Note_on_c, 0, 74, 88
2, 21360, Note_on_c, 0, 74, 0
2, 21360, Note_on_c, 0, 81, 75
2, 21480, Note_on_c, 0, 81, 0
2, 21480, Note_on_c, 0, 78, 75
2, 21600, Note_on_c, 0, 78, 0
2, 21600, Note_on_c, 0, 74, 75
2, 21840, Note_on_c, 0, 74, 0
2, 21840, Note_on_c, 0, 84, 75
2, 21960, Note_on_c, 0, 84, 0
2, 21960, Note_on_c, 0, 79, 75
2, 22080, Note_on_c, 0, 79, 0
2, 22080, Note_on_c, 0, 74, 75
2, 22320, Note_on_c, 0, 74, 0
2, 22320, Note_on_c, 0, 82, 75
2, 22440, Note_on_c, 0, 82, 0
2, 22440, Note_on_c, 0, 79, 75
2, 22560, Note_on_c, 0, 79, 0
2, 22560, Note_on_c, 0, 74, 75
2, 22800, Note_on_c, 0, 74, 0
2, 22800, Note_on_c, 0, 81, 75
2, 22920, Note_on_c, 0, 81, 0
2, 22920, Note_on_c, 0, 74, 75
2, 23040, Note_on_c, 0, 74, 0
2, 23040, Note_on_c, 0, 70, 62
2, 23280, Note_on_c, 0, 70, 0
2, 23280, Note_on_c, 0, 79, 62
2, 23400, Note_on_c, 0, 79, 0
2, 23400, Note_on_c, 0, 74, 62
2, 23520, Note_on_c, 0, 74, 0
2, 23520, Note_on_c, 0, 70, 62
2, 23760, Note_on_c, 0, 70, 0
2, 23760, Note_on_c, 0, 77, 62
2, 23880, Note_on_c, 0, 77, 0
2, 23880, Note_on_c, 0, 70, 62
2, 24000, Note_on_c, 0, 70, 0
2, 24000, Note_on_c, 0, 67, 62
2, 24240, Note_on_c, 0, 67, 0
2, 24240, Note_on_c, 0, 76, 62
2, 24360, Note_on_c, 0, 76, 0
2, 24360, Note_on_c, 0, 70, 62
2, 24480, Note_on_c, 0, 70, 0
2, 24480, Note_on_c, 0, 67, 62
2, 24720, Note_on_c, 0, 67, 0
2, 24720, Note_on_c, 0, 72, 62
2, 24840, Note_on_c, 0, 72, 0
2, 24840, Note_on_c, 0, 69, 62
2, 24960, Note_on_c, 0, 69, 0
2, 24960, Note_on_c, 0, 65, 62
2, 25200, Note_on_c, 0, 65, 0
2, 25200, Note_on_c, 0, 74, 62
2, 25320, Note_on_c, 0, 74, 0
2, 25320, Note_on_c, 0, 69, 62
2, 25440, Note_on_c, 0, 69, 0
2, 25440, Note_on_c, 0, 65, 62
2, 25680, Note_on_c, 0, 65, 0
2, 25680, Note_on_c, 0, 76, 62
2, 25800, Note_on_c, 0, 76, 0
2, 25800, Note_on_c, 0, 72, 62
2, 25920, Note_on_c, 0, 72, 0
2, 25920, Note_on_c, 0, 69, 62
2, 26160, Note_on_c, 0, 69, 0
2, 26160, Note_on_c, 0, 77, 62
2, 26280, Note_on_c, 0, 77, 0
2, 26280, Note_on_c, 0, 72, 62
2, 26400, Note_on_c, 0, 72, 0
2, 26400, Note_on_c, 0, 69, 75
2, 26640, Note_on_c, 0, 69, 0
2, 26640, Note_on_c, 0, 79, 75
2, 26760, Note_on_c, 0, 79, 0
2, 26760, Note_on_c, 0, 72, 75
2, 26880, Note_on_c, 0, 72, 0
2, 26880, Note_on_c, 0, 69, 75
2, 27120, Note_on_c, 0, 69, 0
2, 27120, Note_on_c, 0, 81, 75
2, 27240, Note_on_c, 0, 81, 0
2, 27240, Note_on_c, 0, 77, 75
2, 27360, Note_on_c, 0, 77, 0
2, 27360, Note_on_c, 0, 72, 75
2, 27600, Note_on_c, 0, 72, 0
2, 27600, Note_on_c, 0, 81, 75
2, 27720, Note_on_c, 0, 81, 0
2, 27720, Note_on_c, 0, 74, 75
2, 27840, Note_on_c, 0, 74, 0
2, 27840, Note_on_c, 0, 70, 75
2, 28080, Note_on_c, 0, 70, 0
2, 28080, Note_on_c, 0, 74, 75
2, 28200, Note_on_c, 0, 74, 0
2, 28200, Note_on_c, 0, 70, 75
2, 28320, Note_on_c, 0, 70, 0
2, 28320, Note_on_c, 0, 67, 75
2, 28560, Note_on_c, 0, 67, 0
2, 28560, Note_on_c, 0, 74, 62
2, 28680, Note_on_c, 0, 74, 0
2, 28680, Note_on_c, 0, 70, 62
2, 28800, Note_on_c, 0, 70, 0
2, 28800, Note_on_c, 0, 67, 62
2, 29040, Note_on_c, 0, 67, 0
2, 29040, Note_on_c, 0, 76, 62
2, 29160, Note_on_c, 0, 76, 0
2, 29160, Note_on_c, 0, 70, 62
2, 29280, Note_on_c, 0, 70, 0
2, 29280, Note_on_c, 0, 67, 62
2, 29520, Note_on_c, 0, 67, 0
2, 29520, Note_on_c, 0, 78, 62
2, 29640, Note_on_c, 0, 78, 0
2, 29640, Note_on_c, 0, 74, 62
2, 29760, Note_on_c, 0, 74, 0
2, 29760, Note_on_c, 0, 70, 62
2, 30000, Note_on_c, 0, 70, 0
2, 30000, Note_on_c, 0, 79, 62
2, 30120, Note_on_c, 0, 79, 0
2, 30120, Note_on_c, 0, 74, 62
2, 30240, Note_on_c, 0, 74, 0
2, 30240, Note_on_c, 0, 70, 62
2, 30480, Note_on_c, 0, 70, 0
2, 30480, Note_on_c, 0, 81, 62
2, 30600, Note_on_c, 0, 81, 0
2, 30600, Note_on_c, 0, 74, 62
2, 30720, Note_on_c, 0, 74, 0
2, 30720, Note_on_c, 0, 70, 75
2, 30960, Note_on_c, 0, 70, 0
2, 30960, Note_on_c, 0, 82, 75
2, 31080, Note_on_c, 0, 82, 0
2, 31080, Note_on_c, 0, 79, 75
2, 31200, Note_on_c, 0, 79, 0
2, 31200, Note_on_c, 0, 74, 75
2, 31440, Note_on_c, 0, 74, 0
2, 31440, Note_on_c, 0, 82, 75
2, 31560, Note_on_c, 0, 82, 0
2, 31560, Note_on_c, 0, 79, 75
2, 31680, Note_on_c, 0, 79, 0
2, 31680, Note_on_c, 0, 72, 75
2, 31920, Note_on_c, 0, 72, 0
2, 31920, Note_on_c, 0, 79, 75
2, 32040, Note_on_c, 0, 79, 0
2, 32040, Note_on_c, 0, 76, 75
2, 32160, Note_on_c, 0, 76, 0
2, 32160, Note_on_c, 0, 72, 75
2, 32400, Note_on_c, 0, 72, 0
2, 32400, Note_on_c, 0, 78, 62
2, 32520, Note_on_c, 0, 78, 0
2, 32520, Note_on_c, 0, 76, 62
2, 32640, Note_on_c, 0, 76, 0
2, 32640, Note_on_c, 0, 72, 62
2, 32880, Note_on_c, 0, 72, 0
2, 32880, Note_on_c, 0, 79, 62
2, 33000, Note_on_c, 0, 79, 0
2, 33000, Note_on_c, 0, 76, 62
2, 33120, Note_on_c, 0, 76, 0
2, 33120, Note_on_c, 0, 72, 62
2, 33360, Note_on_c, 0, 72, 0
2, 33360, Note_on_c, 0, 81, 62
2, 33480, Note_on_c, 0, 81, 0
2, 33480, Note_on_c, 0, 76, 62
2, 33600, Note_on_c, 0, 76, 0
2, 33600, Note_on_c, 0, 72, 62
2, 33840, Note_on_c, 0, 72, 0
2, 33840, Note_on_c, 0, 82, 62
2, 33960, Note_on_c, 0, 82, 0
2, 33960, Note_on_c, 0, 76, 62
2, 34080, Note_on_c, 0, 76, 0
2, 34080, Note_on_c, 0, 72, 75
2, 34320, Note_on_c, 0, 72, 0
2, 34320, Note_on_c, 0, 83, 75
2, 34440, Note_on_c, 0, 83, 0
2, 34440, Note_on_c, 0, 79, 75
2, 34560, Note_on_c, 0, 79, 0
2, 34560, Note_on_c, 0, 76, 75
2, 34800, Note_on_c, 0, 76, 0
2, 34800, Note_on_c, 0, 84, 75
2, 34920, Note_on_c, 0, 84, 0
2, 34920, Note_on_c, 0, 79, 75
2, 35040, Note_on_c, 0, 79, 0
2, 35040, Note_on_c, 0, 76, 75
2, 35280, Note_on_c, 0, 76, 0
2, 35280, Note_on_c, 0, 86, 75
2, 35400, Note_on_c, 0, 86, 0
2, 35400, Note_on_c, 0, 81, 75
2, 35520, Note_on_c, 0, 81, 0
2, 35520, Note_on_c, 0, 77, 88
2, 35760, Note_on_c, 0, 77, 0
2, 35760, Note_on_c, 0, 84, 88
2, 35880, Note_on_c, 0, 84, 0
2, 35880, Note_on_c, 0, 81, 88
2, 36000, Note_on_c, 0, 81, 0
2, 36000, Note_on_c, 0, 77, 88
2, 36240, Note_on_c, 0, 77, 0
2, 36240, Note_on_c, 0, 83, 88
2, 36360, Note_on_c, 0, 83, 0
2, 36360, Note_on_c, 0, 75, 88
2, 36480, Note_on_c, 0, 75, 0
2, 36480, Note_on_c, 0, 72, 88
2, 36720, Note_on_c, 0, 72, 0
2, 36720, Note_on_c, 0, 81, 88
2, 36840, Note_on_c, 0, 81, 0
2, 36840, Note_on_c, 0, 75, 88
2, 36960, Note_on_c, 0, 75, 0
2, 36960, Note_on_c, 0, 72, 88
2, 37200, Note_on_c, 0, 72, 0
2, 37200, Note_on_c, 0, 81, 88
2, 37320, Note_on_c, 0, 81, 0
2, 37320, Note_on_c, 0, 76, 88
2, 37440, Note_on_c, 0, 76, 0
2, 37440, Note_on_c, 0, 72, 88
2, 37680, Note_on_c, 0, 72, 0
2, 37680, Note_on_c, 0, 79, 88
2, 37800, Note_on_c, 0, 79, 0
2, 37800, Note_on_c, 0, 76, 88
2, 37920, Note_on_c, 0, 76, 0
2, 37920, Note_on_c, 0, 72, 88
2, 38160, Note_on_c, 0, 72, 0
2, 38160, Note_on_c, 0, 81, 88
2, 38280, Note_on_c, 0, 81, 0
2, 38280, Note_on_c, 0, 77, 88
2, 38400, Note_on_c, 0, 77, 0
2, 38400, Note_on_c, 0, 71, 88
2, 38640, Note_on_c, 0, 71, 0
2, 38640, Note_on_c, 0, 79, 88
2, 38760, Note_on_c, 0, 79, 0
2, 38760, Note_on_c, 0, 77, 88
2, 38880, Note_on_c, 0, 77, 0
2, 38880, Note_on_c, 0, 71, 88
2, 39120, Note_on_c, 0, 71, 0
2, 39120, Note_on_c, 0, 79, 88
2, 39240, Note_on_c, 0, 79, 0
2, 39240, Note_on_c, 0, 76, 88
2, 39360, Note_on_c, 0, 76, 0
2, 39360, Note_on_c, 0, 72, 88
2, 39600, Note_on_c, 0, 72, 0
2, 39600, Note_on_c, 0, 72, 101
2, 39647, Note_on_c, 0, 72, 0
2, 39840, Note_on_c, 0, 73, 101
2, 39960, Note_on_c, 0, 73, 0
2, 39960, Note_on_c, 0, 74, 101
2, 40080, Note_on_c, 0, 74, 0
2, 40080, Note_on_c, 0, 75, 101
2, 40200, Note_on_c, 0, 75, 0
2, 40200, Note_on_c, 0, 76, 101
2, 40320, Note_on_c, 0, 76, 0
2, 40320, Note_on_c, 0, 77, 101
2, 40440, Note_on_c, 0, 77, 0
2, 40440, Note_on_c, 0, 78, 101
2, 40560, Note_on_c, 0, 78, 0
2, 40560, Note_on_c, 0, 79, 101
2, 40680, Note_on_c, 0, 79, 0
2, 40680, Note_on_c, 0, 80, 101
2, 40800, Note_on_c, 0, 80, 0
2, 40800, Note_on_c, 0, 81, 101
2, 40847, Note_on_c, 0, 81, 0
2, 41040, Note_on_c, 0, 83, 101
2, 41087, Note_on_c, 0, 83, 0
2, 41280, Note_on_c, 0, 84, 127
2, 41520, Note_on_c, 0, 84, 0
2, 41520, Note_on_c, 0, 72, 127
2, 41760, Note_on_c, 0, 72, 0
2, 41760, Note_on_c, 0, 80, 127
2, 42000, Note_on_c, 0, 80, 0
2, 42000, Note_on_c, 0, 67, 127
2, 42240, Note_on_c, 0, 67, 0
2, 42240, Note_on_c, 0, 76, 127
2, 42480, Note_on_c, 0, 76, 0
2, 42480, Note_on_c, 0, 62, 127
2, 42720, Note_on_c, 0, 62, 0
2, 42720, Note_on_c, 0, 71, 127
2, 42960, Note_on_c, 0, 71, 0
2, 43200, Note_on_c, 0, 72, 101
2, 43440, Note_on_c, 0, 72, 0
2, 43440, Note_on_c, 0, 72, 101
2, 43487, Note_on_c, 0, 72, 0
2, 43680, Note_on_c, 0, 73, 101
2, 43800, Note_on_c, 0, 73, 0
2, 43800, Note_on_c, 0, 74, 101
2, 43920, Note_on_c, 0, 74, 0
2, 43920, Note_on_c, 0, 75, 101
2, 44040, Note_on_c, 0, 75, 0
2, 44040, Note_on_c, 0, 76, 101
2, 44160, Note_on_c, 0, 76, 0
2, 44160, Note_on_c, 0, 77, 101
2, 44280, Note_on_c, 0, 77, 0
2, 44280, Note_on_c, 0, 78, 101
2, 44400, Note_on_c, 0, 78, 0
2, 44400, Note_on_c, 0, 79, 101
2, 44520, Note_on_c, 0, 79, 0
2, 44520, Note_on_c, 0, 80, 101
2, 44640, Note_on_c, 0, 80, 0
2, 44640, Note_on_c, 0, 81, 101
2, 44687, Note_on_c, 0, 81, 0
2, 44880, Note_on_c, 0, 83, 101
2, 44927, Note_on_c, 0, 83, 0
2, 45120, Note_on_c, 0, 84, 127
2, 45360, Note_on_c, 0, 84, 0
2, 45360, Note_on_c, 0, 72, 127
2, 45600, Note_on_c, 0, 72, 0
2, 45600, Note_on_c, 0, 80, 127
2, 45840, Note_on_c, 0, 80, 0
2, 45840, Note_on_c, 0, 67, 127
2, 46080, Note_on_c, 0, 67, 0
2, 46080, Note_on_c, 0, 76, 127
2, 46320, Note_on_c, 0, 76, 0
2, 46320, Note_on_c, 0, 62, 127
2, 46560, Note_on_c, 0, 62, 0
2, 46560, Note_on_c, 0, 71, 127
2, 46800, Note_on_c, 0, 71, 0
2, 47040, Note_on_c, 0, 72, 88
2, 47087, Note_on_c, 0, 72, 0
2, 47280, Note_on_c, 0, 60, 88
2, 47327, Note_on_c, 0, 60, 0
2, 47520, Note_on_c, 0, 76, 88
2, 47567, Note_on_c, 0, 76, 0
2, 48000, Note_on_c, 0, 72, 88
2, 48047, Note_on_c, 0, 72, 0
2, 48240, Note_on_c, 0, 60, 88
2, 48287, Note_on_c, 0, 60, 0
2, 48480, Note_on_c, 0, 76, 88
2, 48527, Note_on_c, 0, 76, 0
2, 48960, Note_on_c, 0, 72, 75
2, 49007, Note_on_c, 0, 72, 0
2, 49200, Note_on_c, 0, 60, 75
2, 49247, Note_on_c, 0, 60, 0
2, 49440, Note_on_c, 0, 76, 75
2, 49487, Note_on_c, 0, 76, 0
2, 49920, Note_on_c, 0, 72, 75
2, 49967, Note_on_c, 0, 72, 0
2, 50160, Note_on_c, 0, 60, 75
2, 50207, Note_on_c, 0, 60, 0
2, 50400, Note_on_c, 0, 76, 49
2, 50640, Note_on_c, 0, 76, 0
2, 50640, Note_on_c, 0, 72, 49
2, 50760, Note_on_c, 0, 72, 0
2, 50760, Note_on_c, 0, 69, 49
2, 50880, Note_on_c, 0, 69, 0
2, 50880, Note_on_c, 0, 65, 49
2, 51120, Note_on_c, 0, 65, 0
2, 51120, Note_on_c, 0, 74, 49
2, 51240, Note_on_c, 0, 74, 0
2, 51240, Note_on_c, 0, 69, 49
2, 51360, Note_on_c, 0, 69, 0
2, 51360, Note_on_c, 0, 65, 49
2, 51600, Note_on_c, 0, 65, 0
2, 51600, Note_on_c, 0, 76, 49
2, 51720, Note_on_c, 0, 76, 0
2, 51720, Note_on_c, 0, 72, 49
2, 51840, Note_on_c, 0, 72, 0
2, 51840, Note_on_c, 0, 69, 49
2, 52080, Note_on_c, 0, 69, 0
2, 52080, Note_on_c, 0, 77, 49
2, 52200, Note_on_c, 0, 77, 0
2, 52200, Note_on_c, 0, 72, 49
2, 52320, Note_on_c, 0, 72, 0
2, 52320, Note_on_c, 0, 69, 75
2, 52560, Note_on_c, 0, 69, 0
2, 52560, Note_on_c, 0, 79, 75
2, 52680, Note_on_c, 0, 79, 0
2, 52680, Note_on_c, 0, 72, 75
2, 52800, Note_on_c, 0, 72, 0
2, 52800, Note_on_c, 0, 69, 75
2, 53040, Note_on_c, 0, 69, 0
2, 53040, Note_on_c, 0, 81, 75
2, 53160, Note_on_c, 0, 81, 0
2, 53160, Note_on_c, 0, 77, 75
2, 53280, Note_on_c, 0, 77, 0
2, 53280, Note_on_c, 0, 72, 75
2, 53520, Note_on_c, 0, 72, 0
2, 53520, Note_on_c, 0, 81, 75
2, 53640, Note_on_c, 0, 81, 0
2, 53640, Note_on_c, 0, 74, 75
2, 53760, Note_on_c, 0, 74, 0
2, 53760, Note_on_c, 0, 70, 75
2, 54000, Note_on_c, 0, 70, 0
2, 54000, Note_on_c, 0, 74, 75
2, 54120, Note_on_c, 0, 74, 0
2, 54120, Note_on_c, 0, 70, 75
2, 54240, Note_on_c, 0, 70, 0
2, 54240, Note_on_c, 0, 67, 75
2, 54480, Note_on_c, 0, 67, 0
2, 54480, Note_on_c, 0, 74, 49
2, 54600, Note_on_c, 0, 74, 0
2, 54600, Note_on_c, 0, 70, 49
2, 54720, Note_on_c, 0, 70, 0
2, 54720, Note_on_c, 0, 67, 49
2, 54960, Note_on_c, 0, 67, 0
2, 54960, Note_on_c, 0, 76, 49
2, 55080, Note_on_c, 0, 76, 0
2, 55080, Note_on_c, 0, 70, 49
2, 55200, Note_on_c, 0, 70, 0
2, 55200, Note_on_c, 0, 67, 49
2, 55440, Note_on_c, 0, 67, 0
2, 55440, Note_on_c, 0, 78, 49
2, 55560, Note_on_c, 0, 78, 0
2, 55560, Note_on_c, 0, 74, 49
2, 55680, Note_on_c, 0, 74, 0
2, 55680, Note_on_c, 0, 70, 62
2, 55920, Note_on_c, 0, 70, 0
2, 55920, Note_on_c, 0, 79, 62
2, 56040, Note_on_c, 0, 79, 0
2, 56040, Note_on_c, 0, 74, 62
2, 56160, Note_on_c, 0, 74, 0
2, 56160, Note_on_c, 0, 70, 62
2, 56400, Note_on_c, 0, 70, 0
2, 56400, Note_on_c, 0, 81, 62
2, 56520, Note_on_c, 0, 81, 0
2, 56520, Note_on_c, 0, 74, 62
2, 56640, Note_on_c, 0, 74, 0
2, 56640, Note_on_c, 0, 70, 75
2, 56880, Note_on_c, 0, 70, 0
2, 56880, Note_on_c, 0, 82, 75
2, 57000, Note_on_c, 0, 82, 0
2, 57000, Note_on_c, 0, 79, 75
2, 57120, Note_on_c, 0, 79, 0
2, 57120, Note_on_c, 0, 74, 75
2, 57360, Note_on_c, 0, 74, 0
2, 57360, Note_on_c, 0, 82, 75
2, 57480, Note_on_c, 0, 82, 0
2, 57480, Note_on_c, 0, 79, 75
2, 57600, Note_on_c, 0, 79, 0
2, 57600, Note_on_c, 0, 72, 75
2, 57840, Note_on_c, 0, 72, 0
2, 57840, Note_on_c, 0, 79, 75
2, 57960, Note_on_c, 0, 79, 0
2, 57960, Note_on_c, 0, 76, 75
2, 58080, Note_on_c, 0, 76, 0
2, 58080, Note_on_c, 0, 72, 75
2, 58320, Note_on_c, 0, 72, 0
2, 58320, Note_on_c, 0, 78, 62
2, 58440, Note_on_c, 0, 78, 0
2, 58440, Note_on_c, 0, 76, 62
2, 58560, Note_on_c, 0, 76, 0
2, 58560, Note_on_c, 0, 72, 62
2, 58800, Note_on_c, 0, 72, 0
2, 58800, Note_on_c, 0, 79, 62
2, 58920, Note_on_c, 0, 79, 0
2, 58920, Note_on_c, 0, 76, 62
2, 59040, Note_on_c, 0, 76, 0
2, 59040, Note_on_c, 0, 72, 62
2, 59280, Note_on_c, 0, 72, 0
2, 59280, Note_on_c, 0, 81, 62
2, 59400, Note_on_c, 0, 81, 0
2, 59400, Note_on_c, 0, 76, 62
2, 59520, Note_on_c, 0, 76, 0
2, 59520, Note_on_c, 0, 72, 62
2, 59760, Note_on_c, 0, 72, 0
2, 59760, Note_on_c, 0, 82, 62
2, 59880, Note_on_c, 0, 82, 0
2, 59880, Note_on_c, 0, 76, 62
2, 60000, Note_on_c, 0, 76, 0
2, 60000, Note_on_c, 0, 72, 75
2, 60240, Note_on_c, 0, 72, 0
2, 60240, Note_on_c, 0, 83, 75
2, 60360, Note_on_c, 0, 83, 0
2, 60360, Note_on_c, 0, 79, 75
2, 60480, Note_on_c, 0, 79, 0
2, 60480, Note_on_c, 0, 76, 75
2, 60720, Note_on_c, 0, 76, 0
2, 60720, Note_on_c, 0, 84, 75
2, 60840, Note_on_c, 0, 84, 0
2, 60840, Note_on_c, 0, 79, 75
2, 60960, Note_on_c, 0, 79, 0
2, 60960, Note_on_c, 0, 76, 88
2, 61200, Note_on_c, 0, 76, 0
2, 61200, Note_on_c, 0, 86, 88
2, 61320, Note_on_c, 0, 86, 0
2, 61320, Note_on_c, 0, 81, 88
2, 61440, Note_on_c, 0, 81, 0
2, 61440, Note_on_c, 0, 77, 88
2, 61680, Note_on_c, 0, 77, 0
2, 61680, Note_on_c, 0, 84, 88
2, 61800, Note_on_c, 0, 84, 0
2, 61800, Note_on_c, 0, 81, 88
2, 61920, Note_on_c, 0, 81, 0
2, 61920, Note_on_c, 0, 77, 88
2, 62160, Note_on_c, 0, 77, 0
2, 62160, Note_on_c, 0, 82, 88
2, 62280, Note_on_c, 0, 82, 0
2, 62280, Note_on_c, 0, 78, 88
2, 62400, Note_on_c, 0, 78, 0
2, 62400, Note_on_c, 0, 74, 88
2, 62640, Note_on_c, 0, 74, 0
2, 62640, Note_on_c, 0, 81, 88
2, 62760, Note_on_c, 0, 81, 0
2, 62760, Note_on_c, 0, 78, 88
2, 62880, Note_on_c, 0, 78, 0
2, 62880, Note_on_c, 0, 74, 88
2, 63120, Note_on_c, 0, 74, 0
2, 63120, Note_on_c, 0, 84, 88
2, 63240, Note_on_c, 0, 84, 0
2, 63240, Note_on_c, 0, 79, 88
2, 63360, Note_on_c, 0, 79, 0
2, 63360, Note_on_c, 0, 74, 88
2, 63600, Note_on_c, 0, 74, 0
2, 63600, Note_on_c, 0, 82, 88
2, 63720, Note_on_c, 0, 82, 0
2, 63720, Note_on_c, 0, 79, 88
2, 63840, Note_on_c, 0, 79, 0
2, 63840, Note_on_c, 0, 74, 88
2, 64080, Note_on_c, 0, 74, 0
2, 64080, Note_on_c, 0, 81, 88
2, 64200, Note_on_c, 0, 81, 0
2, 64200, Note_on_c, 0, 76, 88
2, 64320, Note_on_c, 0, 76, 0
2, 64320, Note_on_c, 0, 72, 88
2, 64560, Note_on_c, 0, 72, 0
2, 64560, Note_on_c, 0, 79, 88
2, 64680, Note_on_c, 0, 79, 0
2, 64680, Note_on_c, 0, 76, 88
2, 64800, Note_on_c, 0, 76, 0
2, 64800, Note_on_c, 0, 72, 88
2, 65040, Note_on_c, 0, 72, 0
2, 65040, Note_on_c, 0, 77, 88
2, 65160, Note_on_c, 0, 77, 0
2, 65160, Note_on_c, 0, 72, 88
2, 65280, Note_on_c, 0, 72, 0
2, 65280, Note_on_c, 0, 69, 88
2, 65520, Note_on_c, 0, 69, 0
2, 65520, Note_on_c, 0, 86, 101
2, 65640, Note_on_c, 0, 86, 0
2, 65640, Note_on_c, 0, 81, 101
2, 65760, Note_on_c, 0, 81, 0
2, 65760, Note_on_c, 0, 75, 101
2, 66000, Note_on_c, 0, 75, 0
2, 66000, Note_on_c, 0, 86, 101
2, 66120, Note_on_c, 0, 86, 0
2, 66120, Note_on_c, 0, 79, 101
2, 66240, Note_on_c, 0, 79, 0
2, 66240, Note_on_c, 0, 76, 101
2, 66480, Note_on_c, 0, 76, 0
2, 66480, Note_on_c, 0, 76, 101
2, 66600, Note_on_c, 0, 76, 0
2, 66600, Note_on_c, 0, 72, 101
2, 66720, Note_on_c, 0, 72, 0
2, 66720, Note_on_c, 0, 70, 101
2, 66960, Note_on_c, 0, 70, 0
2, 66960, Note_on_c, 0, 77, 101
2, 67080, Note_on_c, 0, 77, 0
2, 67080, Note_on_c, 0, 72, 101
2, 67200, Note_on_c, 0, 72, 0
2, 67200, Note_on_c, 0, 69, 101
2, 67440, Note_on_c, 0, 69, 0
2, 67440, Note_on_c, 0, 86, 101
2, 67560, Note_on_c, 0, 86, 0
2, 67560, Note_on_c, 0, 81, 101
2, 67680, Note_on_c, 0, 81, 0
2, 67680, Note_on_c, 0, 75, 101
2, 67920, Note_on_c, 0, 75, 0
2, 67920, Note_on_c, 0, 84, 101
2, 68040, Note_on_c, 0, 84, 0
2, 68040, Note_on_c, 0, 79, 101
2, 68160, Note_on_c, 0, 79, 0
2, 68160, Note_on_c, 0, 76, 127
2, 68400, Note_on_c, 0, 76, 0
2, 68400, Note_on_c, 0, 76, 101
2, 68520, Note_on_c, 0, 76, 0
2, 68520, Note_on_c, 0, 72, 101
2, 68640, Note_on_c, 0, 72, 0
2, 68640, Note_on_c, 0, 70, 101
2, 68880, Note_on_c, 0, 70, 0
2, 68880, Note_on_c, 0, 77, 101
2, 69000, Note_on_c, 0, 77, 0
2, 69000, Note_on_c, 0, 72, 101
2, 69120, Note_on_c, 0, 72, 0
2, 69120, Note_on_c, 0, 69, 101
2, 69360, Note_on_c, 0, 69, 0
2, 69360, Note_on_c, 0, 81, 101
2, 69480, Note_on_c, 0, 81, 0
2, 69480, Note_on_c, 0, 77, 101
2, 69600, Note_on_c, 0, 77, 0
2, 69600, Note_on_c, 0, 71, 101
2, 69840, Note_on_c, 0, 71, 0
2, 69840, Note_on_c, 0, 77, 101
2, 69960, Note_on_c, 0, 77, 0
2, 69960, Note_on_c, 0, 72, 101
2, 70080, Note_on_c, 0, 72, 0
2, 70080, Note_on_c, 0, 69, 101
2, 70320, Note_on_c, 0, 69, 0
2, 70320, Note_on_c, 0, 81, 101
2, 70440, Note_on_c, 0, 81, 0
2, 70440, Note_on_c, 0, 77, 101
2, 70560, Note_on_c, 0, 77, 0
2, 70560, Note_on_c, 0, 71, 101
2, 70800, Note_on_c, 0, 71, 0
2, 70800, Note_on_c, 0, 77, 101
2, 70920, Note_on_c, 0, 77, 0
2, 70920, Note_on_c, 0, 72, 101
2, 71040, Note_on_c, 0, 72, 0
2, 71040, Note_on_c, 0, 69, 101
2, 71280, Note_on_c, 0, 69, 0
2, 71280, Note_on_c, 0, 77, 101
2, 71400, Note_on_c, 0, 77, 0
2, 71400, Note_on_c, 0, 72, 101
2, 71520, Note_on_c, 0, 72, 0
2, 71520, Note_on_c, 0, 69, 101
2, 71760, Note_on_c, 0, 69, 0
2, 71760, Note_on_c, 0, 81, 101
2, 71880, Note_on_c, 0, 81, 0
2, 71880, Note_on_c, 0, 77, 101
2, 72000, Note_on_c, 0, 77, 0
2, 72000, Note_on_c, 0, 72, 101
2, 72240, Note_on_c, 0, 72, 0
2, 72240, Note_on_c, 0, 84, 101
2, 72360, Note_on_c, 0, 84, 0
2, 72360, Note_on_c, 0, 81, 101
2, 72480, Note_on_c, 0, 81, 0
2, 72480, Note_on_c, 0, 77, 101
2, 72720, Note_on_c, 0, 77, 0
2, 72720, Note_on_c, 0, 81, 101
2, 72840, Note_on_c, 0, 81, 0
2, 72840, Note_on_c, 0, 84, 101
2, 72960, Note_on_c, 0, 84, 0
2, 72960, Note_on_c, 0, 77, 101
2, 72960, Note_on_c, 0, 89, 101
2, 73440, Note_on_c, 0, 89, 0
2, 73440, Note_on_c, 0, 77, 0
2, 73440, Control_c, 0, 64, 127
2, 76320, Control_c, 0, 64, 0
2, 76320, End_track
3, 0, Start_track
3, 0, Title_t, "Grand Piano"
3, 0, Program_c, 0, 0
3, 0, Control_c, 0, 7, 115
3, 0, Control_c, 0, 10, 79
3, 39600, Note_on_c, 0, 64, 88
3, 39600, Note_on_c, 0, 67, 88
3, 39647, Note_on_c, 0, 67, 0
3, 39647, Note_on_c, 0, 64, 0
3, 39840, Note_on_c, 0, 64, 88
3, 39840, Note_on_c, 0, 67, 88
3, 39960, Note_on_c, 0, 67, 0
3, 39960, Note_on_c, 0, 64, 0
3, 39960, Note_on_c, 0, 65, 88
3, 39960, Note_on_c, 0, 68, 88
3, 40080, Note_on_c, 0, 68, 0
3, 40080, Note_on_c, 0, 65, 0
3, 40080, Note_on_c, 0, 66, 88
3, 40080, Note_on_c, 0, 69, 88
3, 40200, Note_on_c, 0, 69, 0
3, 40200, Note_on_c, 0, 66, 0
3, 40200, Note_on_c, 0, 67, 88
3, 40200, Note_on_c, 0, 70, 88
3, 40320, Note_on_c, 0, 70, 0
3, 40320, Note_on_c, 0, 67, 0
3, 40320, Note_on_c, 0, 68, 88
3, 40320, Note_on_c, 0, 71, 88
3, 40440, Note_on_c, 0, 71, 0
3, 40440, Note_on_c, 0, 68, 0
3, 40440, Note_on_c, 0, 69, 88
3, 40440, Note_on_c, 0, 72, 88
3, 40560, Note_on_c, 0, 72, 0
3, 40560, Note_on_c, 0, 69, 0
3, 40560, Note_on_c, 0, 70, 88
3, 40560, Note_on_c, 0, 73, 88
3, 40680, Note_on_c, 0, 73, 0
3, 40680, Note_on_c, 0, 70, 0
3, 40680, Note_on_c, 0, 71, 88
3, 40680, Note_on_c, 0, 74, 88
3, 40800, Note_on_c, 0, 74, 0
3, 40800, Note_on_c, 0, 71, 0
3, 40800, Note_on_c, 0, 73, 88
3, 40800, Note_on_c, 0, 75, 88
3, 40847, Note_on_c, 0, 75, 0
3, 40847, Note_on_c, 0, 73, 0
3, 41040, Note_on_c, 0, 74, 88
3, 41040, Note_on_c, 0, 78, 88
3, 41087, Note_on_c, 0, 78, 0
3, 41087, Note_on_c, 0, 74, 0
3, 41280, Note_on_c, 0, 76, 88
3, 41280, Note_on_c, 0, 79, 88
3, 41520, Note_on_c, 0, 79, 0
3, 41520, Note_on_c, 0, 76, 0
3, 43440, Note_on_c, 0, 64, 88
3, 43440, Note_on_c, 0, 67, 88
3, 43487, Note_on_c, 0, 67, 0
3, 43487, Note_on_c, 0, 64, 0
3, 43680, Note_on_c, 0, 64, 88
3, 43680, Note_on_c, 0, 67, 88
3, 43800, Note_on_c, 0, 67, 0
3, 43800, Note_on_c, 0, 64, 0
3, 43800, Note_on_c, 0, 65, 88
3, 43800, Note_on_c, 0, 68, 88
3, 43920, Note_on_c, 0, 68, 0
3, 43920, Note_on_c, 0, 65, 0
3, 43920, Note_on_c, 0, 66, 88
3, 43920, Note_on_c, 0, 69, 88
3, 44040, Note_on_c, 0, 69, 0
3, 44040, Note_on_c, 0, 66, 0
3, 44040, Note_on_c, 0, 67, 88
3, 44040, Note_on_c, 0, 70, 88
3, 44160, Note_on_c, 0, 70, 0
3, 44160, Note_on_c, 0, 67, 0
3, 44160, Note_on_c, 0, 68, 88
3, 44160, Note_on_c, 0, 71, 88
3, 44280, Note_on_c, 0, 71, 0
3, 44280, Note_on_c, 0, 68, 0
3, 44280, Note_on_c, 0, 69, 88
3, 44280, Note_on_c, 0, 72, 88
3, 44400, Note_on_c, 0, 72, 0
3, 44400, Note_on_c, 0, 69, 0
3, 44400, Note_on_c, 0, 70, 88
3, 44400, Note_on_c, 0, 73, 88
3, 44520, Note_on_c, 0, 73, 0
3, 44520, Note_on_c, 0, 70, 0
3, 44520, Note_on_c, 0, 71, 88
3, 44520, Note_on_c, 0, 74, 88
3, 44640, Note_on_c, 0, 74, 0
3, 44640, Note_on_c, 0, 71, 0
3, 44640, Note_on_c, 0, 73, 88
3, 44640, Note_on_c, 0, 75, 88
3, 44687, Note_on_c, 0, 75, 0
3, 44687, Note_on_c, 0, 73, 0
3, 44880, Note_on_c, 0, 74, 88
3, 44880, Note_on_c, 0, 78, 88
3, 44927, Note_on_c, 0, 78, 0
3, 44927, Note_on_c, 0, 74, 0
3, 45120, Note_on_c, 0, 76, 88
3, 45120, Note_on_c, 0, 79, 88
3, 45360, Note_on_c, 0, 79, 0
3, 45360, Note_on_c, 0, 76, 0
3, 45360, End_track
4, 0, Start_track
4, 0, Title_t, "Grand Piano"
4, 0, Program_c, 0, 0
4, 0, Control_c, 0, 7, 115
4, 0, Control_c, 0, 10, 41
4, 0, Note_on_c, 0, 33, 101
4, 0, Note_on_c, 0, 45, 101
4, 240, Note_on_c, 0, 45, 0
4, 240, Note_on_c, 0, 33, 0
4, 240, Note_on_c, 0, 45, 101
4, 240, Note_on_c, 0, 57, 101
4, 480, Note_on_c, 0, 57, 0
4, 480, Note_on_c, 0, 45, 0
4, 960, Note_on_c, 0, 45, 49
4, 960, Note_on_c, 0, 52, 49
4, 960, Note_on_c, 0, 57, 49
4, 1200, Note_on_c, 0, 57, 0
4, 1200, Note_on_c, 0, 52, 0
4, 1200, Note_on_c, 0, 45, 0
4, 1440, Note_on_c, 0, 44, 49
4, 1440, Note_on_c, 0, 53, 49
4, 1440, Note_on_c, 0, 58, 49
4, 1680, Note_on_c, 0, 58, 0
4, 1680, Note_on_c, 0, 53, 0
4, 1680, Note_on_c, 0, 44, 0
4, 1920, Note_on_c, 0, 33, 101
4, 1920, Note_on_c, 0, 45, 101
4, 2160, Note_on_c, 0, 45, 0
4, 2160, Note_on_c, 0, 33, 0
4, 2160, Note_on_c, 0, 45, 101
4, 2160, Note_on_c, 0, 57, 101
4, 2400, Note_on_c, 0, 57, 0
4, 2400, Note_on_c, 0, 45, 0
4, 2880, Note_on_c, 0, 45, 49
4, 2880, Note_on_c, 0, 52, 49
4, 2880, Note_on_c, 0, 57, 49
4, 3120, Note_on_c, 0, 57, 0
4, 3120, Note_on_c, 0, 52, 0
4, 3120, Note_on_c, 0, 45, 0
4, 3360, Note_on_c, 0, 44, 49
4, 3360, Note_on_c, 0, 53, 49
4, 3360, Note_on_c, 0, 58, 49
4, 3600, Note_on_c, 0, 58, 0
4, 3600, Note_on_c, 0, 53, 0
4, 3600, Note_on_c, 0, 44, 0
4, 3840, Note_on_c, 0, 33, 101
4, 3840, Note_on_c, 0, 45, 101
4, 4080, Note_on_c, 0, 45, 0
4, 4080, Note_on_c, 0, 33, 0
4, 4080, Note_on_c, 0, 45, 101
4, 4080, Note_on_c, 0, 57, 101
4, 4320, Note_on_c, 0, 57, 0
4, 4320, Note_on_c, 0, 45, 0
4, 4800, Note_on_c, 0, 45, 49
4, 4800, Note_on_c, 0, 52, 49
4, 4800, Note_on_c, 0, 57, 49
4, 5040, Note_on_c, 0, 57, 0
4, 5040, Note_on_c, 0, 52, 0
4, 5040, Note_on_c, 0, 45, 0
4, 5280, Note_on_c, 0, 44, 49
4, 5280, Note_on_c, 0, 53, 49
4, 5280, Note_on_c, 0, 58, 49
4, 5520, Note_on_c, 0, 58, 0
4, 5520, Note_on_c, 0, 53, 0
4, 5520, Note_on_c, 0, 44, 0
4, 5760, Note_on_c, 0, 43, 62
4, 5760, Note_on_c, 0, 51, 62
4, 5760, Note_on_c, 0, 58, 62
4, 6000, Note_on_c, 0, 58, 0
4, 6000, Note_on_c, 0, 51, 0
4, 6000, Note_on_c, 0, 43, 0
4, 6240, Note_on_c, 0, 41, 62
4, 6240, Note_on_c, 0, 47, 62
4, 6240, Note_on_c, 0, 55, 62
4, 6480, Note_on_c, 0, 55, 0
4, 6480, Note_on_c, 0, 47, 0
4, 6480, Note_on_c, 0, 41, 0
4, 6720, Note_on_c, 0, 40, 62
4, 6720, Note_on_c, 0, 47, 62
4, 6720, Note_on_c, 0, 56, 62
4, 6960, Note_on_c, 0, 56, 0
4, 6960, Note_on_c, 0, 47, 0
4, 6960, Note_on_c, 0, 40, 0
4, 7200, Note_on_c, 0, 36, 62
4, 7200, Note_on_c, 0, 43, 62
4, 7200, Note_on_c, 0, 46, 62
4, 7200, Note_on_c, 0, 48, 62
4, 7440, Note_on_c, 0, 48, 0
4, 7440, Note_on_c, 0, 36, 0
4, 7440, Note_on_c, 0, 43, 0
4, 7440, Note_on_c, 0, 46, 0
4, 9600, Note_on_c, 0, 53, 49
4, 9600, Note_on_c, 0, 57, 49
4, 9600, Note_on_c, 0, 60, 49
4, 9647, Note_on_c, 0, 60, 0
4, 9647, Note_on_c, 0, 57, 0
4, 9647, Note_on_c, 0, 53, 0
4, 10080, Note_on_c, 0, 53, 49
4, 10080, Note_on_c, 0, 57, 49
4, 10080, Note_on_c, 0, 60, 49
4, 10127, Note_on_c, 0, 60, 0
4, 10127, Note_on_c, 0, 57, 0
4, 10127, Note_on_c, 0, 53, 0
4, 10560, Note_on_c, 0, 53, 49
4, 10560, Note_on_c, 0, 57, 49
4, 10560, Note_on_c, 0, 60, 49
4, 10607, Note_on_c, 0, 60, 0
4, 10607, Note_on_c, 0, 57, 0
4, 10607, Note_on_c, 0, 53, 0
4, 11040, Note_on_c, 0, 53, 49
4, 11040, Note_on_c, 0, 57, 49
4, 11040, Note_on_c, 0, 60, 49
4, 11087, Note_on_c, 0, 60, 0
4, 11087, Note_on_c, 0, 57, 0
4, 11087, Note_on_c, 0, 53, 0
4, 11520, Note_on_c, 0, 53, 62
4, 11520, Note_on_c, 0, 57, 62
4, 11520, Note_on_c, 0, 60, 62
4, 11567, Note_on_c, 0, 60, 0
4, 11567, Note_on_c, 0, 57, 0
4, 11567, Note_on_c, 0, 53, 0
4, 12000, Note_on_c, 0, 53, 62
4, 12000, Note_on_c, 0, 57, 62
4, 12000, Note_on_c, 0, 60, 62
4, 12047, Note_on_c, 0, 60, 0
4, 12047, Note_on_c, 0, 57, 0
4, 12047, Note_on_c, 0, 53, 0
4, 12480, Note_on_c, 0, 53, 62
4, 12480, Note_on_c, 0, 55, 62
4, 12480, Note_on_c, 0, 58, 62
4, 12480, Note_on_c, 0, 62, 62
4, 12527, Note_on_c, 0, 62, 0
4, 12527, Note_on_c, 0, 53, 0
4, 12527, Note_on_c, 0, 55, 0
4, 12527, Note_on_c, 0, 58, 0
4, 12960, Note_on_c, 0, 53, 62
4, 12960, Note_on_c, 0, 55, 62
4, 12960, Note_on_c, 0, 58, 62
4, 12960, Note_on_c, 0, 62, 62
4, 13007, Note_on_c, 0, 62, 0
4, 13007, Note_on_c, 0, 53, 0
4, 13007, Note_on_c, 0, 55, 0
4, 13007, Note_on_c, 0, 58, 0
4, 13440, Note_on_c, 0, 53, 49
4, 13440, Note_on_c, 0, 55, 49
4, 13440, Note_on_c, 0, 58, 49
4, 13440, Note_on_c, 0, 62, 49
4, 13487, Note_on_c, 0, 62, 0
4, 13487, Note_on_c, 0, 53, 0
4, 13487, Note_on_c, 0, 55, 0
4, 13487, Note_on_c, 0, 58, 0
4, 13920, Note_on_c, 0, 53, 49
4, 13920, Note_on_c, 0, 55, 49
4, 13920, Note_on_c, 0, 58, 49
4, 13920, Note_on_c, 0, 62, 49
4, 13967, Note_on_c, 0, 62, 0
4, 13967, Note_on_c, 0, 53, 0
4, 13967, Note_on_c, 0, 55, 0
4, 13967, Note_on_c, 0, 58, 0
4, 14400, Note_on_c, 0, 53, 49
4, 14400, Note_on_c, 0, 55, 49
4, 14400, Note_on_c, 0, 58, 49
4, 14400, Note_on_c, 0, 62, 49
4, 14447, Note_on_c, 0, 62, 0
4, 14447, Note_on_c, 0, 53, 0
4, 14447, Note_on_c, 0, 55, 0
4, 14447, Note_on_c, 0, 58, 0
4, 14880, Note_on_c, 0, 53, 49
4, 14880, Note_on_c, 0, 55, 49
4, 14880, Note_on_c, 0, 58, 49
4, 14880, Note_on_c, 0, 62, 49
4, 14927, Note_on_c, 0, 62, 0
4, 14927, Note_on_c, 0, 53, 0
4, 14927, Note_on_c, 0, 55, 0
4, 14927, Note_on_c, 0, 58, 0
4, 15360, Note_on_c, 0, 53, 62
4, 15360, Note_on_c, 0, 55, 62
4, 15360, Note_on_c, 0, 58, 62
4, 15360, Note_on_c, 0, 62, 62
4, 15407, Note_on_c, 0, 62, 0
4, 15407, Note_on_c, 0, 53, 0
4, 15407, Note_on_c, 0, 55, 0
4, 15407, Note_on_c, 0, 58, 0
4, 15840, Note_on_c, 0, 53, 62
4, 15840, Note_on_c, 0, 55, 62
4, 15840, Note_on_c, 0, 58, 62
4, 15840, Note_on_c, 0, 62, 62
4, 15887, Note_on_c, 0, 62, 0
4, 15887, Note_on_c, 0, 53, 0
4, 15887, Note_on_c, 0, 55, 0
4, 15887, Note_on_c, 0, 58, 0
4, 16320, Note_on_c, 0, 52, 62
4, 16320, Note_on_c, 0, 55, 62
4, 16320, Note_on_c, 0, 58, 62
4, 16320, Note_on_c, 0, 60, 62
4, 16367, Note_on_c, 0, 60, 0
4, 16367, Note_on_c, 0, 52, 0
4, 16367, Note_on_c, 0, 55, 0
4, 16367, Note_on_c, 0, 58, 0
4, 16800, Note_on_c, 0, 52, 62
4, 16800, Note_on_c, 0, 55, 62
4, 16800, Note_on_c, 0, 58, 62
4, 16800, Note_on_c, 0, 60, 62
4, 16847, Note_on_c, 0, 60, 0
4, 16847, Note_on_c, 0, 52, 0
4, 16847, Note_on_c, 0, 55, 0
4, 16847, Note_on_c, 0, 58, 0
4, 17280, Note_on_c, 0, 52, 49
4, 17280, Note_on_c, 0, 55, 49
4, 17280, Note_on_c, 0, 58, 49
4, 17280, Note_on_c, 0, 60, 49
4, 17327, Note_on_c, 0, 60, 0
4, 17327, Note_on_c, 0, 52, 0
4, 17327, Note_on_c, 0, 55, 0
4, 17327, Note_on_c, 0, 58, 0
4, 17760, Note_on_c, 0, 52, 49
4, 17760, Note_on_c, 0, 55, 49
4, 17760, Note_on_c, 0, 58, 49
4, 17760, Note_on_c, 0, 60, 49
4, 17807, Note_on_c, 0, 60, 0
4, 17807, Note_on_c, 0, 52, 0
4, 17807, Note_on_c, 0, 55, 0
4, 17807, Note_on_c, 0, 58, 0
4, 18240, Note_on_c, 0, 55, 49
4, 18240, Note_on_c, 0, 58, 49
4, 18240, Note_on_c, 0, 60, 49
4, 18240, Note_on_c, 0, 64, 49
4, 18287, Note_on_c, 0, 64, 0
4, 18287, Note_on_c, 0, 55, 0
4, 18287, Note_on_c, 0, 58, 0
4, 18287, Note_on_c, 0, 60, 0
4, 18720, Note_on_c, 0, 55, 62
4, 18720, Note_on_c, 0, 58, 62
4, 18720, Note_on_c, 0, 60, 62
4, 18720, Note_on_c, 0, 64, 62
4, 18767, Note_on_c, 0, 64, 0
4, 18767, Note_on_c, 0, 55, 0
4, 18767, Note_on_c, 0, 58, 0
4, 18767, Note_on_c, 0, 60, 0
4, 19200, Note_on_c, 0, 55, 62
4, 19200, Note_on_c, 0, 58, 62
4, 19200, Note_on_c, 0, 60, 62
4, 19200, Note_on_c, 0, 64, 62
4, 19247, Note_on_c, 0, 64, 0
4, 19247, Note_on_c, 0, 55, 0
4, 19247, Note_on_c, 0, 58, 0
4, 19247, Note_on_c, 0, 60, 0
4, 19680, Note_on_c, 0, 55, 62
4, 19680, Note_on_c, 0, 58, 62
4, 19680, Note_on_c, 0, 60, 62
4, 19680, Note_on_c, 0, 64, 62
4, 19727, Note_on_c, 0, 64, 0
4, 19727, Note_on_c, 0, 55, 0
4, 19727, Note_on_c, 0, 58, 0
4, 19727, Note_on_c, 0, 60, 0
4, 20160, Note_on_c, 0, 57, 75
4, 20160, Note_on_c, 0, 60, 75
4, 20160, Note_on_c, 0, 65, 75
4, 20207, Note_on_c, 0, 65, 0
4, 20207, Note_on_c, 0, 60, 0
4, 20207, Note_on_c, 0, 57, 0
4, 20640, Note_on_c, 0, 57, 75
4, 20640, Note_on_c, 0, 60, 75
4, 20640, Note_on_c, 0, 65, 75
4, 20687, Note_on_c, 0, 65, 0
4, 20687, Note_on_c, 0, 60, 0
4, 20687, Note_on_c, 0, 57, 0
4, 21120, Note_on_c, 0, 50, 62
4, 21120, Note_on_c, 0, 57, 62
4, 21120, Note_on_c, 0, 66, 62
4, 21167, Note_on_c, 0, 66, 0
4, 21167, Note_on_c, 0, 57, 0
4, 21167, Note_on_c, 0, 50, 0
4, 21600, Note_on_c, 0, 50, 62
4, 21600, Note_on_c, 0, 57, 62
4, 21600, Note_on_c, 0, 66, 62
4, 21647, Note_on_c, 0, 66, 0
4, 21647, Note_on_c, 0, 57, 0
4, 21647, Note_on_c, 0, 50, 0
4, 22080, Note_on_c, 0, 55, 62
4, 22080, Note_on_c, 0, 58, 62
4, 22080, Note_on_c, 0, 62, 62
4, 22080, Note_on_c, 0, 67, 62
4, 22127, Note_on_c, 0, 67, 0
4, 22127, Note_on_c, 0, 55, 0
4, 22127, Note_on_c, 0, 58, 0
4, 22127, Note_on_c, 0, 62, 0
4, 22560, Note_on_c, 0, 55, 62
4, 22560, Note_on_c, 0, 58, 62
4, 22560, Note_on_c, 0, 62, 62
4, 22560, Note_on_c, 0, 67, 62
4, 22607, Note_on_c, 0, 67, 0
4, 22607, Note_on_c, 0, 55, 0
4, 22607, Note_on_c, 0, 58, 0
4, 22607, Note_on_c, 0, 62, 0
4, 23040, Note_on_c, 0, 50, 62
4, 23040, Note_on_c, 0, 55, 62
4, 23040, Note_on_c, 0, 58, 62
4, 23040, Note_on_c, 0, 62, 62
4, 23087, Note_on_c, 0, 62, 0
4, 23087, Note_on_c, 0, 50, 0
4, 23087, Note_on_c, 0, 55, 0
4, 23087, Note_on_c, 0, 58, 0
4, 23520, Note_on_c, 0, 50, 62
4, 23520, Note_on_c, 0, 55, 62
4, 23520, Note_on_c, 0, 58, 62
4, 23520, Note_on_c, 0, 62, 62
4, 23567, Note_on_c, 0, 62, 0
4, 23567, Note_on_c, 0, 50, 0
4, 23567, Note_on_c, 0, 55, 0
4, 23567, Note_on_c, 0, 58, 0
4, 24000, Note_on_c, 0, 48, 62
4, 24000, Note_on_c, 0, 55, 62
4, 24000, Note_on_c, 0, 58, 62
4, 24000, Note_on_c, 0, 60, 62
4, 24047, Note_on_c, 0, 60, 0
4, 24047, Note_on_c, 0, 48, 0
4, 24047, Note_on_c, 0, 55, 0
4, 24047, Note_on_c, 0, 58, 0
4, 24480, Note_on_c, 0, 48, 62
4, 24480, Note_on_c, 0, 55, 62
4, 24480, Note_on_c, 0, 58, 62
4, 24480, Note_on_c, 0, 60, 62
4, 24527, Note_on_c, 0, 60, 0
4, 24527, Note_on_c, 0, 48, 0
4, 24527, Note_on_c, 0, 55, 0
4, 24527, Note_on_c, 0, 58, 0
4, 24960, Note_on_c, 0, 53, 62
4, 24960, Note_on_c, 0, 57, 62
4, 24960, Note_on_c, 0, 60, 62
4, 25007, Note_on_c, 0, 60, 0
4, 25007, Note_on_c, 0, 57, 0
4, 25007, Note_on_c, 0, 53, 0
4, 25440, Note_on_c, 0, 53, 62
4, 25440, Note_on_c, 0, 57, 62
4, 25440, Note_on_c, 0, 60, 62
4, 25487, Note_on_c, 0, 60, 0
4, 25487, Note_on_c, 0, 57, 0
4, 25487, Note_on_c, 0, 53, 0
4, 25920, Note_on_c, 0, 53, 62
4, 25920, Note_on_c, 0, 57, 62
4, 25920, Note_on_c, 0, 60, 62
4, 25967, Note_on_c, 0, 60, 0
4, 25967, Note_on_c, 0, 57, 0
4, 25967, Note_on_c, 0, 53, 0
4, 26400, Note_on_c, 0, 53, 62
4, 26400, Note_on_c, 0, 57, 62
4, 26400, Note_on_c, 0, 60, 62
4, 26447, Note_on_c, 0, 60, 0
4, 26447, Note_on_c, 0, 57, 0
4, 26447, Note_on_c, 0, 53, 0
4, 26880, Note_on_c, 0, 53, 62
4, 26880, Note_on_c, 0, 57, 62
4, 26880, Note_on_c, 0, 60, 62
4, 26927, Note_on_c, 0, 60, 0
4, 26927, Note_on_c, 0, 57, 0
4, 26927, Note_on_c, 0, 53, 0
4, 27360, Note_on_c, 0, 53, 62
4, 27360, Note_on_c, 0, 57, 62
4, 27360, Note_on_c, 0, 60, 62
4, 27407, Note_on_c, 0, 60, 0
4, 27407, Note_on_c, 0, 57, 0
4, 27407, Note_on_c, 0, 53, 0
4, 27840, Note_on_c, 0, 53, 62
4, 27840, Note_on_c, 0, 55, 62
4, 27840, Note_on_c, 0, 58, 62
4, 27840, Note_on_c, 0, 62, 62
4, 27887, Note_on_c, 0, 62, 0
4, 27887, Note_on_c, 0, 53, 0
4, 27887, Note_on_c, 0, 55, 0
4, 27887, Note_on_c, 0, 58, 0
4, 28320, Note_on_c, 0, 53, 62
4, 28320, Note_on_c, 0, 55, 62
4, 28320, Note_on_c, 0, 58, 62
4, 28320, Note_on_c, 0, 62, 62
4, 28367, Note_on_c, 0, 62, 0
4, 28367, Note_on_c, 0, 53, 0
4, 28367, Note_on_c, 0, 55, 0
4, 28367, Note_on_c, 0, 58, 0
4, 28800, Note_on_c, 0, 53, 49
4, 28800, Note_on_c, 0, 55, 49
4, 28800, Note_on_c, 0, 58, 49
4, 28800, Note_on_c, 0, 62, 49
4, 28847, Note_on_c, 0, 62, 0
4, 28847, Note_on_c, 0, 53, 0
4, 28847, Note_on_c, 0, 55, 0
4, 28847, Note_on_c, 0, 58, 0
4, 29280, Note_on_c, 0, 53, 49
4, 29280, Note_on_c, 0, 55, 49
4, 29280, Note_on_c, 0, 58, 49
4, 29280, Note_on_c, 0, 62, 49
4, 29327, Note_on_c, 0, 62, 0
4, 29327, Note_on_c, 0, 53, 0
4, 29327, Note_on_c, 0, 55, 0
4, 29327, Note_on_c, 0, 58, 0
4, 29760, Note_on_c, 0, 53, 49
4, 29760, Note_on_c, 0, 55, 49
4, 29760, Note_on_c, 0, 58, 49
4, 29760, Note_on_c, 0, 62, 49
4, 29807, Note_on_c, 0, 62, 0
4, 29807, Note_on_c, 0, 53, 0
4, 29807, Note_on_c, 0, 55, 0
4, 29807, Note_on_c, 0, 58, 0
4, 30240, Note_on_c, 0, 53, 49
4, 30240, Note_on_c, 0, 55, 49
4, 30240, Note_on_c, 0, 58, 49
4, 30240, Note_on_c, 0, 62, 49
4, 30287, Note_on_c, 0, 62, 0
4, 30287, Note_on_c, 0, 53, 0
4, 30287, Note_on_c, 0, 55, 0
4, 30287, Note_on_c, 0, 58, 0
4, 30720, Note_on_c, 0, 53, 62
4, 30720, Note_on_c, 0, 55, 62
4, 30720, Note_on_c, 0, 58, 62
4, 30720, Note_on_c, 0, 62, 62
4, 30767, Note_on_c, 0, 62, 0
4, 30767, Note_on_c, 0, 53, 0
4, 30767, Note_on_c, 0, 55, 0
4, 30767, Note_on_c, 0, 58, 0
4, 31200, Note_on_c, 0, 53, 62
4, 31200, Note_on_c, 0, 55, 62
4, 31200, Note_on_c, 0, 58, 62
4, 31200, Note_on_c, 0, 62, 62
4, 31247, Note_on_c, 0, 62, 0
4, 31247, Note_on_c, 0, 53, 0
4, 31247, Note_on_c, 0, 55, 0
4, 31247, Note_on_c, 0, 58, 0
4, 31680, Note_on_c, 0, 52, 62
4, 31680, Note_on_c, 0, 55, 62
4, 31680, Note_on_c, 0, 58, 62
4, 31680, Note_on_c, 0, 60, 62
4, 31727, Note_on_c, 0, 60, 0
4, 31727, Note_on_c, 0, 52, 0
4, 31727, Note_on_c, 0, 55, 0
4, 31727, Note_on_c, 0, 58, 0
4, 32160, Note_on_c, 0, 52, 62
4, 32160, Note_on_c, 0, 55, 62
4, 32160, Note_on_c, 0, 58, 62
4, 32160, Note_on_c, 0, 60, 62
4, 32207, Note_on_c, 0, 60, 0
4, 32207, Note_on_c, 0, 52, 0
4, 32207, Note_on_c, 0, 55, 0
4, 32207, Note_on_c, 0, 58, 0
4, 32640, Note_on_c, 0, 52, 49
4, 32640, Note_on_c, 0, 55, 49
4, 32640, Note_on_c, 0, 58, 49
4, 32640, Note_on_c, 0, 60, 49
4, 32687, Note_on_c, 0, 60, 0
4, 32687, Note_on_c, 0, 52, 0
4, 32687, Note_on_c, 0, 55, 0
4, 32687, Note_on_c, 0, 58, 0
4, 33120, Note_on_c, 0, 52, 49
4, 33120, Note_on_c, 0, 55, 49
4, 33120, Note_on_c, 0, 58, 49
4, 33120, Note_on_c, 0, 60, 49
4, 33167, Note_on_c, 0, 60, 0
4, 33167, Note_on_c, 0, 52, 0
4, 33167, Note_on_c, 0, 55, 0
4, 33167, Note_on_c, 0, 58, 0
4, 33600, Note_on_c, 0, 55, 49
4, 33600, Note_on_c, 0, 58, 49
4, 33600, Note_on_c, 0, 60, 49
4, 33600, Note_on_c, 0, 64, 49
4, 33647, Note_on_c, 0, 64, 0
4, 33647, Note_on_c, 0, 55, 0
4, 33647, Note_on_c, 0, 58, 0
4, 33647, Note_on_c, 0, 60, 0
4, 34080, Note_on_c, 0, 55, 62
4, 34080, Note_on_c, 0, 58, 62
4, 34080, Note_on_c, 0, 60, 62
4, 34080, Note_on_c, 0, 64, 62
4, 34127, Note_on_c, 0, 64, 0
4, 34127, Note_on_c, 0, 55, 0
4, 34127, Note_on_c, 0, 58, 0
4, 34127, Note_on_c, 0, 60, 0
4, 34560, Note_on_c, 0, 55, 62
4, 34560, Note_on_c, 0, 58, 62
4, 34560, Note_on_c, 0, 60, 62
4, 34560, Note_on_c, 0, 64, 62
4, 34607, Note_on_c, 0, 64, 0
4, 34607, Note_on_c, 0, 55, 0
4, 34607, Note_on_c, 0, 58, 0
4, 34607, Note_on_c, 0, 60, 0
4, 35040, Note_on_c, 0, 55, 62
4, 35040, Note_on_c, 0, 58, 62
4, 35040, Note_on_c, 0, 60, 62
4, 35040, Note_on_c, 0, 64, 62
4, 35087, Note_on_c, 0, 64, 0
4, 35087, Note_on_c, 0, 55, 0
4, 35087, Note_on_c, 0, 58, 0
4, 35087, Note_on_c, 0, 60, 0
4, 35520, Note_on_c, 0, 57, 75
4, 35520, Note_on_c, 0, 60, 75
4, 35520, Note_on_c, 0, 65, 75
4, 35567, Note_on_c, 0, 65, 0
4, 35567, Note_on_c, 0, 60, 0
4, 35567, Note_on_c, 0, 57, 0
4, 36000, Note_on_c, 0, 57, 75
4, 36000, Note_on_c, 0, 60, 75
4, 36000, Note_on_c, 0, 65, 75
4, 36047, Note_on_c, 0, 65, 0
4, 36047, Note_on_c, 0, 60, 0
4, 36047, Note_on_c, 0, 57, 0
4, 36480, Note_on_c, 0, 54, 75
4, 36480, Note_on_c, 0, 57, 75
4, 36480, Note_on_c, 0, 63, 75
4, 36527, Note_on_c, 0, 63, 0
4, 36527, Note_on_c, 0, 57, 0
4, 36527, Note_on_c, 0, 54, 0
4, 36960, Note_on_c, 0, 54, 75
4, 36960, Note_on_c, 0, 57, 75
4, 36960, Note_on_c, 0, 63, 75
4, 37007, Note_on_c, 0, 63, 0
4, 37007, Note_on_c, 0, 57, 0
4, 37007, Note_on_c, 0, 54, 0
4, 37440, Note_on_c, 0, 55, 75
4, 37440, Note_on_c, 0, 60, 75
4, 37440, Note_on_c, 0, 64, 75
4, 37487, Note_on_c, 0, 64, 0
4, 37487, Note_on_c, 0, 60, 0
4, 37487, Note_on_c, 0, 55, 0
4, 37920, Note_on_c, 0, 55, 75
4, 37920, Note_on_c, 0, 60, 75
4, 37920, Note_on_c, 0, 64, 75
4, 37967, Note_on_c, 0, 64, 0
4, 37967, Note_on_c, 0, 60, 0
4, 37967, Note_on_c, 0, 55, 0
4, 38400, Note_on_c, 0, 55, 75
4, 38400, Note_on_c, 0, 62, 75
4, 38400, Note_on_c, 0, 65, 75
4, 38447, Note_on_c, 0, 65, 0
4, 38447, Note_on_c, 0, 62, 0
4, 38447, Note_on_c, 0, 55, 0
4, 38880, Note_on_c, 0, 55, 75
4, 38880, Note_on_c, 0, 62, 75
4, 38880, Note_on_c, 0, 65, 75
4, 38927, Note_on_c, 0, 65, 0
4, 38927, Note_on_c, 0, 62, 0
4, 38927, Note_on_c, 0, 55, 0
4, 39360, Note_on_c, 0, 48, 75
4, 39360, Note_on_c, 0, 55, 75
4, 39360, Note_on_c, 0, 64, 75
4, 39600, Note_on_c, 0, 64, 0
4, 39600, Note_on_c, 0, 55, 0
4, 39600, Note_on_c, 0, 48, 0
4, 39600, Note_on_c, 0, 60, 75
4, 39840, Note_on_c, 0, 60, 0
4, 39840, Note_on_c, 0, 58, 88
4, 39887, Note_on_c, 0, 58, 0
4, 40080, Note_on_c, 0, 57, 88
4, 40127, Note_on_c, 0, 57, 0
4, 40320, Note_on_c, 0, 56, 88
4, 40367, Note_on_c, 0, 56, 0
4, 40560, Note_on_c, 0, 55, 88
4, 40607, Note_on_c, 0, 55, 0
4, 40800, Note_on_c, 0, 54, 88
4, 40847, Note_on_c, 0, 54, 0
4, 41040, Note_on_c, 0, 53, 88
4, 41040, Note_on_c, 0, 56, 88
4, 41087, Note_on_c, 0, 56, 0
4, 41087, Note_on_c, 0, 53, 0
4, 41280, Note_on_c, 0, 48, 88
4, 41280, Note_on_c, 0, 52, 88
4, 41280, Note_on_c, 0, 55, 88
4, 41280, Note_on_c, 0, 60, 88
4, 41327, Note_on_c, 0, 60, 0
4, 41327, Note_on_c, 0, 48, 0
4, 41327, Note_on_c, 0, 52, 0
4, 41327, Note_on_c, 0, 55, 0
4, 41760, Note_on_c, 0, 54, 88
4, 41760, Note_on_c, 0, 60, 88
4, 41760, Note_on_c, 0, 63, 88
4, 42000, Note_on_c, 0, 63, 0
4, 42000, Note_on_c, 0, 60, 0
4, 42000, Note_on_c, 0, 54, 0
4, 42240, Note_on_c, 0, 55, 88
4, 42240, Note_on_c, 0, 60, 88
4, 42240, Note_on_c, 0, 64, 88
4, 42480, Note_on_c, 0, 64, 0
4, 42480, Note_on_c, 0, 60, 0
4, 42480, Note_on_c, 0, 55, 0
4, 42720, Note_on_c, 0, 55, 88
4, 42720, Note_on_c, 0, 62, 88
4, 42720, Note_on_c, 0, 65, 88
4, 42960, Note_on_c, 0, 65, 0
4, 42960, Note_on_c, 0, 62, 0
4, 42960, Note_on_c, 0, 55, 0
4, 43200, Note_on_c, 0, 48, 88
4, 43200, Note_on_c, 0, 55, 88
4, 43200, Note_on_c, 0, 64, 88
4, 43440, Note_on_c, 0, 64, 0
4, 43440, Note_on_c, 0, 55, 0
4, 43440, Note_on_c, 0, 48, 0
4, 43440, Note_on_c, 0, 60, 88
4, 43680, Note_on_c, 0, 60, 0
4, 43680, Note_on_c, 0, 58, 88
4, 43727, Note_on_c, 0, 58, 0
4, 43920, Note_on_c, 0, 57, 88
4, 43967, Note_on_c, 0, 57, 0
4, 44160, Note_on_c, 0, 56, 88
4, 44207, Note_on_c, 0, 56, 0
4, 44400, Note_on_c, 0, 55, 88
4, 44447, Note_on_c, 0, 55, 0
4, 44640, Note_on_c, 0, 54, 88
4, 44687, Note_on_c, 0, 54, 0
4, 44880, Note_on_c, 0, 53, 88
4, 44880, Note_on_c, 0, 56, 88
4, 44927, Note_on_c, 0, 56, 0
4, 44927, Note_on_c, 0, 53, 0
4, 45120, Note_on_c, 0, 48, 88
4, 45120, Note_on_c, 0, 52, 88
4, 45120, Note_on_c, 0, 55, 88
4, 45120, Note_on_c, 0, 60, 88
4, 45167, Note_on_c, 0, 60, 0
4, 45167, Note_on_c, 0, 48, 0
4, 45167, Note_on_c, 0, 52, 0
4, 45167, Note_on_c, 0, 55, 0
4, 45600, Note_on_c, 0, 54, 88
4, 45600, Note_on_c, 0, 60, 88
4, 45600, Note_on_c, 0, 63, 88
4, 45840, Note_on_c, 0, 63, 0
4, 45840, Note_on_c, 0, 60, 0
4, 45840, Note_on_c, 0, 54, 0
4, 46080, Note_on_c, 0, 55, 88
4, 46080, Note_on_c, 0, 60, 88
4, 46080, Note_on_c, 0, 64, 88
4, 46320, Note_on_c, 0, 64, 0
4, 46320, Note_on_c, 0, 60, 0
4, 46320, Note_on_c, 0, 55, 0
4, 46560, Note_on_c, 0, 55, 88
4, 46560, Note_on_c, 0, 62, 88
4, 46560, Note_on_c, 0, 65, 88
4, 46800, Note_on_c, 0, 65, 0
4, 46800, Note_on_c, 0, 62, 0
4, 46800, Note_on_c, 0, 55, 0
4, 46800, Note_on_c, 0, 55, 114
4, 47040, Note_on_c, 0, 55, 0
4, 47040, Note_on_c, 0, 48, 75
4, 47040, Note_on_c, 0, 55, 75
4, 47040, Note_on_c, 0, 64, 75
4, 47280, Note_on_c, 0, 64, 0
4, 47280, Note_on_c, 0, 55, 0
4, 47280, Note_on_c, 0, 48, 0
4, 47520, Note_on_c, 0, 42, 49
4, 47520, Note_on_c, 0, 48, 49
4, 47520, Note_on_c, 0, 56, 49
4, 47760, Note_on_c, 0, 56, 0
4, 47760, Note_on_c, 0, 48, 0
4, 47760, Note_on_c, 0, 42, 0
4, 47760, Note_on_c, 0, 55, 75
4, 48000, Note_on_c, 0, 55, 0
4, 48000, Note_on_c, 0, 48, 49
4, 48000, Note_on_c, 0, 52, 49
4, 48000, Note_on_c, 0, 55, 49
4, 48240, Note_on_c, 0, 55, 0
4, 48240, Note_on_c, 0, 52, 0
4, 48240, Note_on_c, 0, 48, 0
4, 48480, Note_on_c, 0, 42, 49
4, 48480, Note_on_c, 0, 48, 49
4, 48480, Note_on_c, 0, 56, 49
4, 48720, Note_on_c, 0, 56, 0
4, 48720, Note_on_c, 0, 48, 0
4, 48720, Note_on_c, 0, 42, 0
4, 48720, Note_on_c, 0, 55, 75
4, 48960, Note_on_c, 0, 55, 0
4, 48960, Note_on_c, 0, 48, 75
4, 48960, Note_on_c, 0, 52, 75
4, 48960, Note_on_c, 0, 55, 75
4, 49200, Note_on_c, 0, 55, 0
4, 49200, Note_on_c, 0, 52, 0
4, 49200, Note_on_c, 0, 48, 0
4, 49440, Note_on_c, 0, 42, 49
4, 49440, Note_on_c, 0, 48, 49
4, 49440, Note_on_c, 0, 56, 49
4, 49680, Note_on_c, 0, 56, 0
4, 49680, Note_on_c, 0, 48, 0
4, 49680, Note_on_c, 0, 42, 0
4, 49680, Note_on_c, 0, 55, 75
4, 49920, Note_on_c, 0, 55, 0
4, 49920, Note_on_c, 0, 48, 75
4, 49920, Note_on_c, 0, 52, 75
4, 49920, Note_on_c, 0, 55, 75
4, 50160, Note_on_c, 0, 55, 0
4, 50160, Note_on_c, 0, 52, 0
4, 50160, Note_on_c, 0, 48, 0
4, 50400, Note_on_c, 0, 48, 49
4, 50400, Note_on_c, 0, 55, 49
4, 50400, Note_on_c, 0, 58, 49
4, 50400, Note_on_c, 0, 60, 49
4, 50640, Note_on_c, 0, 60, 0
4, 50640, Note_on_c, 0, 48, 0
4, 50640, Note_on_c, 0, 55, 0
4, 50640, Note_on_c, 0, 58, 0
4, 50880, Note_on_c, 0, 53, 49
4, 50880, Note_on_c, 0, 57, 49
4, 50880, Note_on_c, 0, 60, 49
4, 50927, Note_on_c, 0, 60, 0
4, 50927, Note_on_c, 0, 57, 0
4, 50927, Note_on_c, 0, 53, 0
4, 51360, Note_on_c, 0, 53, 49
4, 51360, Note_on_c, 0, 57, 49
4, 51360, Note_on_c, 0, 60, 49
4, 51407, Note_on_c, 0, 60, 0
4, 51407, Note_on_c, 0, 57, 0
4, 51407, Note_on_c, 0, 53, 0
4, 51840, Note_on_c, 0, 53, 49
4, 51840, Note_on_c, 0, 57, 49
4, 51840, Note_on_c, 0, 60, 49
4, 51887, Note_on_c, 0, 60, 0
4, 51887, Note_on_c, 0, 57, 0
4, 51887, Note_on_c, 0, 53, 0
4, 52320, Note_on_c, 0, 53, 49
4, 52320, Note_on_c, 0, 57, 49
4, 52320, Note_on_c, 0, 60, 49
4, 52367, Note_on_c, 0, 60, 0
4, 52367, Note_on_c, 0, 57, 0
4, 52367, Note_on_c, 0, 53, 0
4, 52800, Note_on_c, 0, 53, 62
4, 52800, Note_on_c, 0, 57, 62
4, 52800, Note_on_c, 0, 60, 62
4, 52847, Note_on_c, 0, 60, 0
4, 52847, Note_on_c, 0, 57, 0
4, 52847, Note_on_c, 0, 53, 0
4, 53280, Note_on_c, 0, 53, 62
4, 53280, Note_on_c, 0, 57, 62
4, 53280, Note_on_c, 0, 60, 62
4, 53327, Note_on_c, 0, 60, 0
4, 53327, Note_on_c, 0, 57, 0
4, 53327, Note_on_c, 0, 53, 0
4, 53760, Note_on_c, 0, 53, 62
4, 53760, Note_on_c, 0, 55, 62
4, 53760, Note_on_c, 0, 58, 62
4, 53760, Note_on_c, 0, 62, 62
4, 53807, Note_on_c, 0, 62, 0
4, 53807, Note_on_c, 0, 53, 0
4, 53807, Note_on_c, 0, 55, 0
4, 53807, Note_on_c, 0, 58, 0
4, 54240, Note_on_c, 0, 53, 62
4, 54240, Note_on_c, 0, 55, 62
4, 54240, Note_on_c, 0, 58, 62
4, 54240, Note_on_c, 0, 62, 62
4, 54287, Note_on_c, 0, 62, 0
4, 54287, Note_on_c, 0, 53, 0
4, 54287, Note_on_c, 0, 55, 0
4, 54287, Note_on_c, 0, 58, 0
4, 54720, Note_on_c, 0, 53, 49
4, 54720, Note_on_c, 0, 55, 49
4, 54720, Note_on_c, 0, 58, 49
4, 54720, Note_on_c, 0, 62, 49
4, 54767, Note_on_c, 0, 62, 0
4, 54767, Note_on_c, 0, 53, 0
4, 54767, Note_on_c, 0, 55, 0
4, 54767, Note_on_c, 0, 58, 0
4, 55200, Note_on_c, 0, 53, 49
4, 55200, Note_on_c, 0, 55, 49
4, 55200, Note_on_c, 0, 58, 49
4, 55200, Note_on_c, 0, 62, 49
4, 55247, Note_on_c, 0, 62, 0
4, 55247, Note_on_c, 0, 53, 0
4, 55247, Note_on_c, 0, 55, 0
4, 55247, Note_on_c, 0, 58, 0
4, 55680, Note_on_c, 0, 53, 49
4, 55680, Note_on_c, 0, 55, 49
4, 55680, Note_on_c, 0, 58, 49
4, 55680, Note_on_c, 0, 62, 49
4, 55727, Note_on_c, 0, 62, 0
4, 55727, Note_on_c, 0, 53, 0
4, 55727, Note_on_c, 0, 55, 0
4, 55727, Note_on_c, 0, 58, 0
4, 56160, Note_on_c, 0, 53, 49
4, 56160, Note_on_c, 0, 55, 49
4, 56160, Note_on_c, 0, 58, 49
4, 56160, Note_on_c, 0, 62, 49
4, 56207, Note_on_c, 0, 62, 0
4, 56207, Note_on_c, 0, 53, 0
4, 56207, Note_on_c, 0, 55, 0
4, 56207, Note_on_c, 0, 58, 0
4, 56640, Note_on_c, 0, 53, 62
4, 56640, Note_on_c, 0, 55, 62
4, 56640, Note_on_c, 0, 58, 62
4, 56640, Note_on_c, 0, 62, 62
4, 56687, Note_on_c, 0, 62, 0
4, 56687, Note_on_c, 0, 53, 0
4, 56687, Note_on_c, 0, 55, 0
4, 56687, Note_on_c, 0, 58, 0
4, 57120, Note_on_c, 0, 53, 62
4, 57120, Note_on_c, 0, 55, 62
4, 57120, Note_on_c, 0, 58, 62
4, 57120, Note_on_c, 0, 62, 62
4, 57167, Note_on_c, 0, 62, 0
4, 57167, Note_on_c, 0, 53, 0
4, 57167, Note_on_c, 0, 55, 0
4, 57167, Note_on_c, 0, 58, 0
4, 57600, Note_on_c, 0, 52, 62
4, 57600, Note_on_c, 0, 55, 62
4, 57600, Note_on_c, 0, 58, 62
4, 57600, Note_on_c, 0, 60, 62
4, 57647, Note_on_c, 0, 60, 0
4, 57647, Note_on_c, 0, 52, 0
4, 57647, Note_on_c, 0, 55, 0
4, 57647, Note_on_c, 0, 58, 0
4, 58080, Note_on_c, 0, 52, 62
4, 58080, Note_on_c, 0, 55, 62
4, 58080, Note_on_c, 0, 58, 62
4, 58080, Note_on_c, 0, 60, 62
4, 58127, Note_on_c, 0, 60, 0
4, 58127, Note_on_c, 0, 52, 0
4, 58127, Note_on_c, 0, 55, 0
4, 58127, Note_on_c, 0, 58, 0
4, 58560, Note_on_c, 0, 52, 49
4, 58560, Note_on_c, 0, 55, 49
4, 58560, Note_on_c, 0, 58, 49
4, 58560, Note_on_c, 0, 60, 49
4, 58607, Note_on_c, 0, 60, 0
4, 58607, Note_on_c, 0, 52, 0
4, 58607, Note_on_c, 0, 55, 0
4, 58607, Note_on_c, 0, 58, 0
4, 59040, Note_on_c, 0, 52, 49
4, 59040, Note_on_c, 0, 55, 49
4, 59040, Note_on_c, 0, 58, 49
4, 59040, Note_on_c, 0, 60, 49
4, 59087, Note_on_c, 0, 60, 0
4, 59087, Note_on_c, 0, 52, 0
4, 59087, Note_on_c, 0, 55, 0
4, 59087, Note_on_c, 0, 58, 0
4, 59520, Note_on_c, 0, 55, 49
4, 59520, Note_on_c, 0, 58, 49
4, 59520, Note_on_c, 0, 60, 49
4, 59520, Note_on_c, 0, 64, 49
4, 59567, Note_on_c, 0, 64, 0
4, 59567, Note_on_c, 0, 55, 0
4, 59567, Note_on_c, 0, 58, 0
4, 59567, Note_on_c, 0, 60, 0
4, 60000, Note_on_c, 0, 55, 62
4, 60000, Note_on_c, 0, 58, 62
4, 60000, Note_on_c, 0, 60, 62
4, 60000, Note_on_c, 0, 64, 62
4, 60047, Note_on_c, 0, 64, 0
4, 60047, Note_on_c, 0, 55, 0
4, 60047, Note_on_c, 0, 58, 0
4, 60047, Note_on_c, 0, 60, 0
4, 60480, Note_on_c, 0, 55, 62
4, 60480, Note_on_c, 0, 58, 62
4, 60480, Note_on_c, 0, 60, 62
4, 60480, Note_on_c, 0, 64, 62
4, 60527, Note_on_c, 0, 64, 0
4, 60527, Note_on_c, 0, 55, 0
4, 60527, Note_on_c, 0, 58, 0
4, 60527, Note_on_c, 0, 60, 0
4, 60960, Note_on_c, 0, 55, 75
4, 60960, Note_on_c, 0, 58, 75
4, 60960, Note_on_c, 0, 60, 75
4, 60960, Note_on_c, 0, 64, 75
4, 61007, Note_on_c, 0, 64, 0
4, 61007, Note_on_c, 0, 55, 0
4, 61007, Note_on_c, 0, 58, 0
4, 61007, Note_on_c, 0, 60, 0
4, 61440, Note_on_c, 0, 57, 75
4, 61440, Note_on_c, 0, 60, 75
4, 61440, Note_on_c, 0, 65, 75
4, 61487, Note_on_c, 0, 65, 0
4, 61487, Note_on_c, 0, 60, 0
4, 61487, Note_on_c, 0, 57, 0
4, 61860, Note_on_c, 0, 45, 75
4, 61920, Note_on_c, 0, 45, 0
4, 61920, Note_on_c, 0, 60, 75
4, 61920, Note_on_c, 0, 65, 75
4, 61967, Note_on_c, 0, 65, 0
4, 61967, Note_on_c, 0, 60, 0
4, 62400, Note_on_c, 0, 50, 75
4, 62400, Note_on_c, 0, 57, 75
4, 62400, Note_on_c, 0, 66, 75
4, 62447, Note_on_c, 0, 66, 0
4, 62447, Note_on_c, 0, 57, 0
4, 62447, Note_on_c, 0, 50, 0
4, 62820, Note_on_c, 0, 38, 75
4, 62880, Note_on_c, 0, 38, 0
4, 62880, Note_on_c, 0, 54, 75
4, 62880, Note_on_c, 0, 57, 75
4, 62927, Note_on_c, 0, 57, 0
4, 62927, Note_on_c, 0, 54, 0
4, 63360, Note_on_c, 0, 55, 75
4, 63360, Note_on_c, 0, 58, 75
4, 63360, Note_on_c, 0, 62, 75
4, 63407, Note_on_c, 0, 62, 0
4, 63407, Note_on_c, 0, 58, 0
4, 63407, Note_on_c, 0, 55, 0
4, 63780, Note_on_c, 0, 43, 75
4, 63840, Note_on_c, 0, 43, 0
4, 63840, Note_on_c, 0, 55, 75
4, 63840, Note_on_c, 0, 58, 75
4, 63887, Note_on_c, 0, 58, 0
4, 63887, Note_on_c, 0, 55, 0
4, 64320, Note_on_c, 0, 48, 75
4, 64320, Note_on_c, 0, 58, 75
4, 64320, Note_on_c, 0, 64, 75
4, 64367, Note_on_c, 0, 64, 0
4, 64367, Note_on_c, 0, 58, 0
4, 64367, Note_on_c, 0, 48, 0
4, 64740, Note_on_c, 0, 36, 75
4, 64800, Note_on_c, 0, 36, 0
4, 64800, Note_on_c, 0, 52, 75
4, 64800, Note_on_c, 0, 58, 75
4, 64800, Note_on_c, 0, 60, 75
4, 64847, Note_on_c, 0, 60, 0
4, 64847, Note_on_c, 0, 58, 0
4, 64847, Note_on_c, 0, 52, 0
4, 65280, Note_on_c, 0, 41, 75
4, 65280, Note_on_c, 0, 48, 75
4, 65280, Note_on_c, 0, 57, 75
4, 65327, Note_on_c, 0, 57, 0
4, 65327, Note_on_c, 0, 48, 0
4, 65327, Note_on_c, 0, 41, 0
4, 65760, Note_on_c, 0, 54, 88
4, 65760, Note_on_c, 0, 60, 88
4, 65760, Note_on_c, 0, 69, 88
4, 65807, Note_on_c, 0, 69, 0
4, 65807, Note_on_c, 0, 60, 0
4, 65807, Note_on_c, 0, 54, 0
4, 66240, Note_on_c, 0, 55, 88
4, 66240, Note_on_c, 0, 60, 88
4, 66240, Note_on_c, 0, 70, 88
4, 66287, Note_on_c, 0, 70, 0
4, 66287, Note_on_c, 0, 60, 0
4, 66287, Note_on_c, 0, 55, 0
4, 66720, Note_on_c, 0, 48, 88
4, 66720, Note_on_c, 0, 55, 88
4, 66720, Note_on_c, 0, 64, 88
4, 66767, Note_on_c, 0, 64, 0
4, 66767, Note_on_c, 0, 55, 0
4, 66767, Note_on_c, 0, 48, 0
4, 67200, Note_on_c, 0, 41, 88
4, 67200, Note_on_c, 0, 48, 88
4, 67200, Note_on_c, 0, 57, 88
4, 67247, Note_on_c, 0, 57, 0
4, 67247, Note_on_c, 0, 48, 0
4, 67247, Note_on_c, 0, 41, 0
4, 67680, Note_on_c, 0, 54, 88
4, 67680, Note_on_c, 0, 60, 88
4, 67680, Note_on_c, 0, 69, 88
4, 67727, Note_on_c, 0, 69, 0
4, 67727, Note_on_c, 0, 60, 0
4, 67727, Note_on_c, 0, 54, 0
4, 68160, Note_on_c, 0, 55, 88
4, 68160, Note_on_c, 0, 60, 88
4, 68160, Note_on_c, 0, 70, 88
4, 68207, Note_on_c, 0, 70, 0
4, 68207, Note_on_c, 0, 60, 0
4, 68207, Note_on_c, 0, 55, 0
4, 68640, Note_on_c, 0, 48, 88
4, 68640, Note_on_c, 0, 55, 88
4, 68640, Note_on_c, 0, 64, 88
4, 68687, Note_on_c, 0, 64, 0
4, 68687, Note_on_c, 0, 55, 0
4, 68687, Note_on_c, 0, 48, 0
4, 69120, Note_on_c, 0, 41, 88
4, 69120, Note_on_c, 0, 48, 88
4, 69120, Note_on_c, 0, 57, 88
4, 69167, Note_on_c, 0, 57, 0
4, 69167, Note_on_c, 0, 48, 0
4, 69167, Note_on_c, 0, 41, 0
4, 69600, Note_on_c, 0, 53, 88
4, 69600, Note_on_c, 0, 55, 88
4, 69600, Note_on_c, 0, 62, 88
4, 69647, Note_on_c, 0, 62, 0
4, 69647, Note_on_c, 0, 55, 0
4, 69647, Note_on_c, 0, 53, 0
4, 70080, Note_on_c, 0, 53, 88
4, 70080, Note_on_c, 0, 57, 88
4, 70080, Note_on_c, 0, 60, 88
4, 70127, Note_on_c, 0, 60, 0
4, 70127, Note_on_c, 0, 57, 0
4, 70127, Note_on_c, 0, 53, 0
4, 70560, Note_on_c, 0, 53, 88
4, 70560, Note_on_c, 0, 55, 88
4, 70560, Note_on_c, 0, 62, 88
4, 70607, Note_on_c, 0, 62, 0
4, 70607, Note_on_c, 0, 55, 0
4, 70607, Note_on_c, 0, 53, 0
4, 71040, Note_on_c, 0, 53, 88
4, 71040, Note_on_c, 0, 57, 88
4, 71040, Note_on_c, 0, 60, 88
4, 71087, Note_on_c, 0, 60, 0
4, 71087, Note_on_c, 0, 57, 0
4, 71087, Note_on_c, 0, 53, 0
4, 71520, Note_on_c, 0, 53, 88
4, 71520, Note_on_c, 0, 57, 88
4, 71520, Note_on_c, 0, 60, 88
4, 71567, Note_on_c, 0, 60, 0
4, 71567, Note_on_c, 0, 57, 0
4, 71567, Note_on_c, 0, 53, 0
4, 72000, Note_on_c, 0, 48, 88
4, 72000, Note_on_c, 0, 53, 88
4, 72000, Note_on_c, 0, 57, 88
4, 72047, Note_on_c, 0, 57, 0
4, 72047, Note_on_c, 0, 53, 0
4, 72047, Note_on_c, 0, 48, 0
4, 72480, Note_on_c, 0, 45, 88
4, 72480, Note_on_c, 0, 53, 88
4, 72480, Note_on_c, 0, 60, 88
4, 72527, Note_on_c, 0, 60, 0
4, 72527, Note_on_c, 0, 53, 0
4, 72527, Note_on_c, 0, 45, 0
4, 72960, Note_on_c, 0, 41, 88
4, 72960, Note_on_c, 0, 48, 88
4, 72960, Note_on_c, 0, 57, 88
4, 73440, Note_on_c, 0, 57, 0
4, 73440, Note_on_c, 0, 48, 0
4, 73440, Note_on_c, 0, 41, 0
4, 73440, End_track
5, 0, Start_track
5, 0, Title_t, "Grand Piano"
5, 0, Program_c, 0, 0
5, 0, Control_c, 0, 7, 125
5, 0, Control_c, 0, 10, 47
5, 39840, Note_on_c, 0, 61, 88
5, 39840, Note_on_c, 0, 67, 88
5, 39887, Note_on_c, 0, 67, 0
5, 39887, Note_on_c, 0, 61, 0
5, 40080, Note_on_c, 0, 60, 88
5, 40080, Note_on_c, 0, 66, 88
5, 40127, Note_on_c, 0, 66, 0
5, 40127, Note_on_c, 0, 60, 0
5, 40320, Note_on_c, 0, 59, 88
5, 40320, Note_on_c, 0, 65, 88
5, 40367, Note_on_c, 0, 65, 0
5, 40367, Note_on_c, 0, 59, 0
5, 40560, Note_on_c, 0, 58, 88
5, 40560, Note_on_c, 0, 64, 88
5, 40607, Note_on_c, 0, 64, 0
5, 40607, Note_on_c, 0, 58, 0
5, 40800, Note_on_c, 0, 57, 88
5, 40800, Note_on_c, 0, 63, 88
5, 40847, Note_on_c, 0, 63, 0
5, 40847, Note_on_c, 0, 57, 0
5, 43680, Note_on_c, 0, 61, 88
5, 43680, Note_on_c, 0, 67, 88
5, 43727, Note_on_c, 0, 67, 0
5, 43727, Note_on_c, 0, 61, 0
5, 43920, Note_on_c, 0, 60, 88
5, 43920, Note_on_c, 0, 66, 88
5, 43967, Note_on_c, 0, 66, 0
5, 43967, Note_on_c, 0, 60, 0
5, 44160, Note_on_c, 0, 59, 88
5, 44160, Note_on_c, 0, 65, 88
5, 44207, Note_on_c, 0, 65, 0
5, 44207, Note_on_c, 0, 59, 0
5, 44400, Note_on_c, 0, 58, 88
5, 44400, Note_on_c, 0, 64, 88
5, 44447, Note_on_c, 0, 64, 0
5, 44447, Note_on_c, 0, 58, 0
5, 44640, Note_on_c, 0, 57, 88
5, 44640, Note_on_c, 0, 63, 88
5, 44687, Note_on_c, 0, 63, 0
5, 44687, Note_on_c, 0, 57, 0
5, 44880, Note_on_c, 0, 62, 88
5, 44927, Note_on_c, 0, 62, 0
5, 44927, End_track
0, 0, End_of_file
