0, 0, Header, 1, 5, 480
1, 0, Start_track
1, 0, Title_t, "tchaikovsky sleeping beauty act0 3g la fee des lilas"
1, 0, Copyright_t, "Adaptation for Disklavier pianos, by: Robert C. Kuhmann (c) 2012."
1, 0, Text_t, "Seq. (c) by: Segundo G. Yogore,  2006\012"
1, 0, Time_signature, 3, 2, 24, 8
1, 0, Key_signature, 0, "major"
1, 0, Tempo, 352941
1, 84960, Time_signature, 8, 2, 24, 8
1, 84960, End_track
2, 0, Start_track
2, 0, Title_t, "Grand Piano"
2, 0, Program_c, 0, 0
2, 0, Control_c, 0, 7, 115
2, 0, Control_c, 0, 10, 86
2, 480, Note_on_c, 0, 68, 78
2, 960, Note_on_c, 0, 68, 0
2, 960, Note_on_c, 0, 69, 78
2, 1440, Note_on_c, 0, 69, 0
2, 1440, Note_on_c, 0, 59, 78
2, 1440, Note_on_c, 0, 71, 78
2, 1920, Note_on_c, 0, 71, 0
2, 1920, Note_on_c, 0, 59, 0
2, 1920, Note_on_c, 0, 60, 78
2, 1920, Note_on_c, 0, 72, 78
2, 2400, Note_on_c, 0, 72, 0
2, 2400, Note_on_c, 0, 60, 0
2, 2400, Note_on_c, 0, 64, 78
2, 2400, Note_on_c, 0, 76, 78
2, 2880, Note_on_c, 0, 76, 0
2, 2880, Note_on_c, 0, 64, 0
2, 2880, Note_on_c, 0, 77, 78
2, 4320, Note_on_c, 0, 77, 0
2, 4320, Note_on_c, 0, 76, 78
2, 5280, Note_on_c, 0, 76, 0
2, 5280, Note_on_c, 0, 62, 78
2, 5280, Note_on_c, 0, 74, 78
2, 5760, Note_on_c, 0, 74, 0
2, 5760, Note_on_c, 0, 62, 0
2, 5760, Note_on_c, 0, 76, 78
2, 7200, Note_on_c, 0, 76, 0
2, 7200, Note_on_c, 0, 74, 78
2, 8160, Note_on_c, 0, 74, 0
2, 8160, Note_on_c, 0, 60, 78
2, 8160, Note_on_c, 0, 72, 78
2, 8640, Note_on_c, 0, 72, 0
2, 8640, Note_on_c, 0, 60, 0
2, 8640, Note_on_c, 0, 77, 78
2, 10080, Note_on_c, 0, 77, 0
2, 10080, Note_on_c, 0, 76, 78
2, 11040, Note_on_c, 0, 76, 0
2, 11040, Note_on_c, 0, 62, 78
2, 11040, Note_on_c, 0, 74, 78
2, 11520, Note_on_c, 0, 74, 0
2, 11520, Note_on_c, 0, 62, 0
2, 11520, Note_on_c, 0, 76, 78
2, 12000, Note_on_c, 0, 76, 0
2, 12000, Note_on_c, 0, 67, 78
2, 12480, Note_on_c, 0, 67, 0
2, 12480, Note_on_c, 0, 69, 78
2, 12960, Note_on_c, 0, 69, 0
2, 12960, Note_on_c, 0, 71, 78
2, 13440, Note_on_c, 0, 71, 0
2, 13440, Note_on_c, 0, 72, 78
2, 13920, Note_on_c, 0, 72, 0
2, 13920, Note_on_c, 0, 76, 78
2, 14400, Note_on_c, 0, 76, 0
2, 14400, Note_on_c, 0, 77, 78
2, 15840, Note_on_c, 0, 77, 0
2, 15840, Note_on_c, 0, 76, 78
2, 16800, Note_on_c, 0, 76, 0
2, 16800, Note_on_c, 0, 62, 78
2, 16800, Note_on_c, 0, 74, 78
2, 17280, Note_on_c, 0, 74, 0
2, 17280, Note_on_c, 0, 62, 0
2, 17280, Note_on_c, 0, 76, 78
2, 18720, Note_on_c, 0, 76, 0
2, 18720, Note_on_c, 0, 74, 78
2, 19680, Note_on_c, 0, 74, 0
2, 19680, Note_on_c, 0, 60, 78
2, 19680, Note_on_c, 0, 72, 78
2, 20160, Note_on_c, 0, 72, 0
2, 20160, Note_on_c, 0, 60, 0
2, 20160, Note_on_c, 0, 77, 78
2, 21600, Note_on_c, 0, 77, 0
2, 21600, Note_on_c, 0, 76, 78
2, 22560, Note_on_c, 0, 76, 0
2, 22560, Note_on_c, 0, 62, 78
2, 22560, Note_on_c, 0, 74, 78
2, 23040, Note_on_c, 0, 74, 0
2, 23040, Note_on_c, 0, 62, 0
2, 23040, Note_on_c, 0, 76, 91
2, 23520, Note_on_c, 0, 76, 0
2, 23520, Note_on_c, 0, 79, 91
2, 24000, Note_on_c, 0, 79, 0
2, 24000, Note_on_c, 0, 81, 91
2, 24480, Note_on_c, 0, 81, 0
2, 24480, Note_on_c, 0, 83, 91
2, 24960, Note_on_c, 0, 83, 0
2, 24960, Note_on_c, 0, 84, 91
2, 25440, Note_on_c, 0, 84, 0
2, 25440, Note_on_c, 0, 88, 91
2, 25920, Note_on_c, 0, 88, 0
2, 25920, Note_on_c, 0, 89, 91
2, 27360, Note_on_c, 0, 89, 0
2, 27360, Note_on_c, 0, 88, 91
2, 28320, Note_on_c, 0, 88, 0
2, 28320, Note_on_c, 0, 74, 91
2, 28320, Note_on_c, 0, 86, 91
2, 28800, Note_on_c, 0, 86, 0
2, 28800, Note_on_c, 0, 74, 0
2, 28800, Note_on_c, 0, 88, 91
2, 30240, Note_on_c, 0, 88, 0
2, 30240, Note_on_c, 0, 86, 91
2, 31200, Note_on_c, 0, 86, 0
2, 31200, Note_on_c, 0, 72, 91
2, 31200, Note_on_c, 0, 84, 91
2, 31680, Note_on_c, 0, 84, 0
2, 31680, Note_on_c, 0, 72, 0
2, 31680, Note_on_c, 0, 89, 91
2, 33120, Note_on_c, 0, 89, 0
2, 33120, Note_on_c, 0, 88, 91
2, 34080, Note_on_c, 0, 88, 0
2, 34080, Note_on_c, 0, 74, 91
2, 34080, Note_on_c, 0, 86, 91
2, 34560, Note_on_c, 0, 86, 0
2, 34560, Note_on_c, 0, 74, 0
2, 34560, Note_on_c, 0, 88, 91
2, 35040, Note_on_c, 0, 88, 0
2, 35040, Note_on_c, 0, 79, 91
2, 35520, Note_on_c, 0, 79, 0
2, 35520, Note_on_c, 0, 81, 91
2, 36000, Note_on_c, 0, 81, 0
2, 36000, Note_on_c, 0, 83, 91
2, 36480, Note_on_c, 0, 83, 0
2, 36480, Note_on_c, 0, 84, 91
2, 36960, Note_on_c, 0, 84, 0
2, 36960, Note_on_c, 0, 88, 91
2, 37440, Note_on_c, 0, 88, 0
2, 37440, Note_on_c, 0, 89, 91
2, 38880, Note_on_c, 0, 89, 0
2, 38880, Note_on_c, 0, 88, 91
2, 39840, Note_on_c, 0, 88, 0
2, 39840, Note_on_c, 0, 74, 91
2, 39840, Note_on_c, 0, 86, 91
2, 40320, Note_on_c, 0, 86, 0
2, 40320, Note_on_c, 0, 74, 0
2, 40320, Note_on_c, 0, 88, 91
2, 41760, Note_on_c, 0, 88, 0
2, 41760, Note_on_c, 0, 86, 91
2, 42720, Note_on_c, 0, 86, 0
2, 42720, Note_on_c, 0, 72, 91
2, 42720, Note_on_c, 0, 84, 91
2, 43200, Note_on_c, 0, 84, 0
2, 43200, Note_on_c, 0, 72, 0
2, 43200, Note_on_c, 0, 89, 91
2, 44640, Note_on_c, 0, 89, 0
2, 44640, Note_on_c, 0, 87, 91
2, 45600, Note_on_c, 0, 87, 0
2, 45600, Note_on_c, 0, 73, 91
2, 45600, Note_on_c, 0, 85, 91
2, 46080, Note_on_c, 0, 85, 0
2, 46080, Note_on_c, 0, 73, 0
2, 46080, Note_on_c, 0, 75, 91
2, 46080, Note_on_c, 0, 87, 91
2, 46560, Note_on_c, 0, 87, 0
2, 46560, Note_on_c, 0, 75, 0
2, 46560, Note_on_c, 0, 80, 91
2, 47040, Note_on_c, 0, 80, 0
2, 47040, Note_on_c, 0, 70, 91
2, 47040, Note_on_c, 0, 82, 91
2, 47520, Note_on_c, 0, 82, 0
2, 47520, Note_on_c, 0, 70, 0
2, 47520, Note_on_c, 0, 72, 91
2, 47520, Note_on_c, 0, 84, 91
2, 48000, Note_on_c, 0, 84, 0
2, 48000, Note_on_c, 0, 72, 0
2, 48000, Note_on_c, 0, 73, 91
2, 48000, Note_on_c, 0, 85, 91
2, 48480, Note_on_c, 0, 85, 0
2, 48480, Note_on_c, 0, 73, 0
2, 48480, Note_on_c, 0, 74, 91
2, 48480, Note_on_c, 0, 86, 91
2, 48960, Note_on_c, 0, 86, 0
2, 48960, Note_on_c, 0, 74, 0
2, 48960, Note_on_c, 0, 75, 91
2, 48960, Note_on_c, 0, 87, 91
2, 50400, Note_on_c, 0, 87, 0
2, 50400, Note_on_c, 0, 75, 0
2, 50400, Note_on_c, 0, 73, 91
2, 50400, Note_on_c, 0, 85, 91
2, 51360, Note_on_c, 0, 85, 0
2, 51360, Note_on_c, 0, 73, 0
2, 51360, Note_on_c, 0, 71, 91
2, 51360, Note_on_c, 0, 83, 91
2, 51840, Note_on_c, 0, 83, 0
2, 51840, Note_on_c, 0, 71, 0
2, 51840, Note_on_c, 0, 73, 91
2, 51840, Note_on_c, 0, 85, 91
2, 52320, Note_on_c, 0, 85, 0
2, 52320, Note_on_c, 0, 73, 0
2, 52320, Note_on_c, 0, 78, 91
2, 52800, Note_on_c, 0, 78, 0
2, 52800, Note_on_c, 0, 68, 91
2, 52800, Note_on_c, 0, 80, 91
2, 53280, Note_on_c, 0, 80, 0
2, 53280, Note_on_c, 0, 68, 0
2, 53280, Note_on_c, 0, 70, 91
2, 53280, Note_on_c, 0, 82, 91
2, 53760, Note_on_c, 0, 82, 0
2, 53760, Note_on_c, 0, 70, 0
2, 53760, Note_on_c, 0, 71, 91
2, 53760, Note_on_c, 0, 83, 91
2, 54240, Note_on_c, 0, 83, 0
2, 54240, Note_on_c, 0, 71, 0
2, 54240, Note_on_c, 0, 73, 91
2, 54240, Note_on_c, 0, 85, 91
2, 54720, Note_on_c, 0, 85, 0
2, 54720, Note_on_c, 0, 73, 0
2, 54720, Note_on_c, 0, 73, 91
2, 54720, Note_on_c, 0, 85, 91
2, 55200, Note_on_c, 0, 85, 0
2, 55200, Note_on_c, 0, 73, 0
2, 55200, Note_on_c, 0, 71, 91
2, 55200, Note_on_c, 0, 83, 91
2, 55680, Note_on_c, 0, 83, 0
2, 55680, Note_on_c, 0, 71, 0
2, 55680, Note_on_c, 0, 69, 91
2, 55680, Note_on_c, 0, 81, 91
2, 56160, Note_on_c, 0, 81, 0
2, 56160, Note_on_c, 0, 69, 0
2, 56160, Note_on_c, 0, 71, 91
2, 56160, Note_on_c, 0, 83, 91
2, 56640, Note_on_c, 0, 83, 0
2, 56640, Note_on_c, 0, 71, 0
2, 56640, Note_on_c, 0, 68, 91
2, 56640, Note_on_c, 0, 80, 91
2, 57120, Note_on_c, 0, 80, 0
2, 57120, Note_on_c, 0, 68, 0
2, 57120, Note_on_c, 0, 76, 91
2, 57600, Note_on_c, 0, 76, 0
2, 57600, Note_on_c, 0, 71, 91
2, 57600, Note_on_c, 0, 83, 91
2, 58080, Note_on_c, 0, 83, 0
2, 58080, Note_on_c, 0, 71, 0
2, 58080, Note_on_c, 0, 69, 91
2, 58080, Note_on_c, 0, 81, 91
2, 58560, Note_on_c, 0, 81, 0
2, 58560, Note_on_c, 0, 69, 0
2, 58560, Note_on_c, 0, 79, 91
2, 59040, Note_on_c, 0, 79, 0
2, 59040, Note_on_c, 0, 81, 91
2, 59520, Note_on_c, 0, 81, 0
2, 59520, Note_on_c, 0, 78, 91
2, 60000, Note_on_c, 0, 78, 0
2, 60000, Note_on_c, 0, 74, 91
2, 60480, Note_on_c, 0, 74, 0
2, 60720, Note_on_c, 0, 91, 78
2, 60767, Note_on_c, 0, 91, 0
2, 60960, Note_on_c, 0, 91, 78
2, 61200, Note_on_c, 0, 91, 0
2, 61200, Note_on_c, 0, 79, 78
2, 61440, Note_on_c, 0, 79, 0
2, 61440, Note_on_c, 0, 79, 78
2, 61487, Note_on_c, 0, 79, 0
2, 61680, Note_on_c, 0, 67, 78
2, 61727, Note_on_c, 0, 67, 0
2, 61920, Note_on_c, 0, 67, 78
2, 62160, Note_on_c, 0, 67, 0
2, 62160, Note_on_c, 0, 79, 78
2, 62400, Note_on_c, 0, 79, 0
2, 62400, Note_on_c, 0, 79, 78
2, 62640, Note_on_c, 0, 79, 0
2, 62640, Note_on_c, 0, 67, 78
2, 62880, Note_on_c, 0, 67, 0
2, 62880, Note_on_c, 0, 67, 78
2, 62927, Note_on_c, 0, 67, 0
2, 63120, Note_on_c, 0, 79, 78
2, 63167, Note_on_c, 0, 79, 0
2, 63360, Note_on_c, 0, 79, 78
2, 63600, Note_on_c, 0, 79, 0
2, 63600, Note_on_c, 0, 91, 78
2, 63647, Note_on_c, 0, 91, 0
2, 63840, Note_on_c, 0, 91, 78
2, 64080, Note_on_c, 0, 91, 0
2, 64080, Note_on_c, 0, 79, 78
2, 64320, Note_on_c, 0, 79, 0
2, 64320, Note_on_c, 0, 79, 78
2, 64367, Note_on_c, 0, 79, 0
2, 64560, Note_on_c, 0, 67, 78
2, 64607, Note_on_c, 0, 67, 0
2, 64800, Note_on_c, 0, 67, 78
2, 65040, Note_on_c, 0, 67, 0
2, 65040, Note_on_c, 0, 79, 78
2, 65280, Note_on_c, 0, 79, 0
2, 65280, Note_on_c, 0, 79, 78
2, 65520, Note_on_c, 0, 79, 0
2, 65520, Note_on_c, 0, 67, 78
2, 65760, Note_on_c, 0, 67, 0
2, 65760, Note_on_c, 0, 67, 78
2, 65807, Note_on_c, 0, 67, 0
2, 66000, Note_on_c, 0, 79, 78
2, 66047, Note_on_c, 0, 79, 0
2, 66240, Note_on_c, 0, 79, 78
2, 66480, Note_on_c, 0, 79, 0
2, 66480, Note_on_c, 0, 91, 78
2, 66527, Note_on_c, 0, 91, 0
2, 66720, Note_on_c, 0, 91, 78
2, 66960, Note_on_c, 0, 91, 0
2, 66960, Note_on_c, 0, 79, 78
2, 67200, Note_on_c, 0, 79, 0
2, 67200, Note_on_c, 0, 79, 78
2, 67247, Note_on_c, 0, 79, 0
2, 67440, Note_on_c, 0, 67, 78
2, 67487, Note_on_c, 0, 67, 0
2, 67680, Note_on_c, 0, 67, 78
2, 67920, Note_on_c, 0, 67, 0
2, 67920, Note_on_c, 0, 79, 78
2, 68160, Note_on_c, 0, 79, 0
2, 68160, Note_on_c, 0, 79, 78
2, 68400, Note_on_c, 0, 79, 0
2, 68400, Note_on_c, 0, 67, 78
2, 68640, Note_on_c, 0, 67, 0
2, 68640, Note_on_c, 0, 67, 78
2, 68687, Note_on_c, 0, 67, 0
2, 68880, Note_on_c, 0, 79, 78
2, 68927, Note_on_c, 0, 79, 0
2, 69120, Note_on_c, 0, 79, 78
2, 69360, Note_on_c, 0, 79, 0
2, 69360, Note_on_c, 0, 91, 78
2, 69407, Note_on_c, 0, 91, 0
2, 69600, Note_on_c, 0, 91, 78
2, 69840, Note_on_c, 0, 91, 0
2, 69840, Note_on_c, 0, 79, 78
2, 70080, Note_on_c, 0, 79, 0
2, 70080, Note_on_c, 0, 79, 78
2, 70127, Note_on_c, 0, 79, 0
2, 70320, Note_on_c, 0, 67, 78
2, 70367, Note_on_c, 0, 67, 0
2, 70560, Note_on_c, 0, 67, 78
2, 70800, Note_on_c, 0, 67, 0
2, 70800, Note_on_c, 0, 79, 78
2, 71040, Note_on_c, 0, 79, 0
2, 71040, Note_on_c, 0, 79, 78
2, 71280, Note_on_c, 0, 79, 0
2, 71280, Note_on_c, 0, 67, 78
2, 71520, Note_on_c, 0, 67, 0
2, 71520, Note_on_c, 0, 67, 78
2, 71567, Note_on_c, 0, 67, 0
2, 71760, Note_on_c, 0, 79, 78
2, 71807, Note_on_c, 0, 79, 0
2, 72000, Note_on_c, 0, 79, 78
2, 72240, Note_on_c, 0, 79, 0
2, 72240, Note_on_c, 0, 91, 78
2, 72287, Note_on_c, 0, 91, 0
2, 72480, Note_on_c, 0, 91, 78
2, 72720, Note_on_c, 0, 91, 0
2, 72720, Note_on_c, 0, 79, 78
2, 72960, Note_on_c, 0, 79, 0
2, 72960, Note_on_c, 0, 79, 78
2, 73007, Note_on_c, 0, 79, 0
2, 73200, Note_on_c, 0, 67, 78
2, 73247, Note_on_c, 0, 67, 0
2, 73440, Note_on_c, 0, 67, 78
2, 73680, Note_on_c, 0, 67, 0
2, 73680, Note_on_c, 0, 79, 78
2, 73920, Note_on_c, 0, 79, 0
2, 73920, Note_on_c, 0, 79, 78
2, 74160, Note_on_c, 0, 79, 0
2, 74160, Note_on_c, 0, 67, 78
2, 74400, Note_on_c, 0, 67, 0
2, 74400, Note_on_c, 0, 67, 78
2, 74447, Note_on_c, 0, 67, 0
2, 74640, Note_on_c, 0, 79, 78
2, 74687, Note_on_c, 0, 79, 0
2, 74880, Note_on_c, 0, 79, 78
2, 75120, Note_on_c, 0, 79, 0
2, 75120, Note_on_c, 0, 91, 78
2, 75167, Note_on_c, 0, 91, 0
2, 75360, Note_on_c, 0, 91, 78
2, 75600, Note_on_c, 0, 91, 0
2, 75600, Note_on_c, 0, 79, 78
2, 75840, Note_on_c, 0, 79, 0
2, 75840, Note_on_c, 0, 79, 78
2, 75887, Note_on_c, 0, 79, 0
2, 76080, Note_on_c, 0, 67, 78
2, 76127, Note_on_c, 0, 67, 0
2, 76320, Note_on_c, 0, 67, 78
2, 76560, Note_on_c, 0, 67, 0
2, 76560, Note_on_c, 0, 79, 78
2, 76800, Note_on_c, 0, 79, 0
2, 76800, Note_on_c, 0, 79, 78
2, 77040, Note_on_c, 0, 79, 0
2, 77040, Note_on_c, 0, 67, 78
2, 77280, Note_on_c, 0, 67, 0
2, 77280, Note_on_c, 0, 67, 78
2, 77327, Note_on_c, 0, 67, 0
2, 77520, Note_on_c, 0, 79, 78
2, 77567, Note_on_c, 0, 79, 0
2, 77760, Note_on_c, 0, 79, 78
2, 78000, Note_on_c, 0, 79, 0
2, 78000, Note_on_c, 0, 91, 78
2, 78047, Note_on_c, 0, 91, 0
2, 78240, Note_on_c, 0, 91, 78
2, 78480, Note_on_c, 0, 91, 0
2, 78480, Note_on_c, 0, 79, 78
2, 78720, Note_on_c, 0, 79, 0
2, 78720, Note_on_c, 0, 79, 78
2, 78767, Note_on_c, 0, 79, 0
2, 78960, Note_on_c, 0, 67, 78
2, 79007, Note_on_c, 0, 67, 0
2, 79200, Note_on_c, 0, 67, 78
2, 79440, Note_on_c, 0, 67, 0
2, 79440, Note_on_c, 0, 79, 78
2, 79680, Note_on_c, 0, 79, 0
2, 79680, Note_on_c, 0, 79, 78
2, 79920, Note_on_c, 0, 79, 0
2, 79920, Note_on_c, 0, 67, 78
2, 80160, Note_on_c, 0, 67, 0
2, 80160, Note_on_c, 0, 67, 78
2, 80207, Note_on_c, 0, 67, 0
2, 80400, Note_on_c, 0, 79, 78
2, 80447, Note_on_c, 0, 79, 0
2, 80640, Note_on_c, 0, 67, 91
2, 80640, Note_on_c, 0, 76, 91
2, 80640, Note_on_c, 0, 79, 91
2, 81120, Note_on_c, 0, 79, 0
2, 81120, Note_on_c, 0, 76, 0
2, 81120, Note_on_c, 0, 67, 0
2, 81120, Note_on_c, 0, 69, 91
2, 81120, Note_on_c, 0, 76, 91
2, 81120, Note_on_c, 0, 81, 91
2, 81600, Note_on_c, 0, 81, 0
2, 81600, Note_on_c, 0, 76, 0
2, 81600, Note_on_c, 0, 69, 0
2, 81600, Note_on_c, 0, 70, 91
2, 81600, Note_on_c, 0, 76, 91
2, 81600, Note_on_c, 0, 82, 91
2, 82080, Note_on_c, 0, 82, 0
2, 82080, Note_on_c, 0, 76, 0
2, 82080, Note_on_c, 0, 70, 0
2, 82080, Note_on_c, 0, 71, 91
2, 82080, Note_on_c, 0, 75, 91
2, 82080, Note_on_c, 0, 78, 91
2, 82080, Note_on_c, 0, 83, 91
2, 82560, Note_on_c, 0, 83, 0
2, 82560, Note_on_c, 0, 71, 0
2, 82560, Note_on_c, 0, 75, 0
2, 82560, Note_on_c, 0, 78, 0
2, 84480, Note_on_c, 0, 68, 91
2, 84480, Note_on_c, 0, 74, 91
2, 84480, Note_on_c, 0, 76, 91
2, 84480, Note_on_c, 0, 80, 91
2, 84960, Note_on_c, 0, 80, 0
2, 84960, Note_on_c, 0, 68, 0
2, 84960, Note_on_c, 0, 74, 0
2, 84960, Note_on_c, 0, 76, 0
2, 84960, Note_on_c, 0, 69, 91
2, 84960, Note_on_c, 0, 73, 91
2, 84960, Note_on_c, 0, 76, 91
2, 84960, Note_on_c, 0, 81, 91
2, 85440, Note_on_c, 0, 81, 0
2, 85440, Note_on_c, 0, 69, 0
2, 85440, Note_on_c, 0, 73, 0
2, 85440, Note_on_c, 0, 76, 0
2, 85440, Note_on_c, 0, 57, 91
2, 85920, Note_on_c, 0, 57, 0
2, 85920, Control_c, 0, 64, 127
2, 88320, Control_c, 0, 64, 0
2, 88320, End_track
3, 0, Start_track
3, 0, Title_t, "Grand Piano"
3, 0, Program_c, 0, 0
3, 0, Control_c, 0, 7, 115
3, 0, Control_c, 0, 10, 80
3, 3120, Control_c, 0, 64, 127
3, 3120, Note_on_c, 0, 65, 75
3, 3360, Note_on_c, 0, 65, 0
3, 3360, Note_on_c, 0, 67, 75
3, 3600, Note_on_c, 0, 67, 0
3, 3600, Note_on_c, 0, 68, 75
3, 3840, Note_on_c, 0, 68, 0
3, 3840, Note_on_c, 0, 69, 75
3, 4080, Note_on_c, 0, 69, 0
3, 4080, Control_c, 0, 64, 0
3, 4080, Note_on_c, 0, 65, 75
3, 4320, Note_on_c, 0, 65, 0
3, 4560, Control_c, 0, 64, 127
3, 4560, Note_on_c, 0, 64, 75
3, 4560, Note_on_c, 0, 67, 75
3, 4800, Note_on_c, 0, 67, 0
3, 4800, Note_on_c, 0, 64, 0
3, 4800, Note_on_c, 0, 69, 75
3, 5040, Note_on_c, 0, 69, 0
3, 5040, Note_on_c, 0, 70, 75
3, 5280, Note_on_c, 0, 70, 0
3, 5280, Note_on_c, 0, 71, 75
3, 5520, Note_on_c, 0, 71, 0
3, 5520, Control_c, 0, 64, 0
3, 5520, Note_on_c, 0, 67, 75
3, 5760, Note_on_c, 0, 67, 0
3, 6000, Control_c, 0, 64, 127
3, 6000, Note_on_c, 0, 64, 75
3, 6000, Note_on_c, 0, 67, 75
3, 6240, Note_on_c, 0, 67, 0
3, 6240, Note_on_c, 0, 64, 0
3, 6240, Note_on_c, 0, 69, 75
3, 6480, Note_on_c, 0, 69, 0
3, 6480, Note_on_c, 0, 71, 75
3, 6720, Note_on_c, 0, 71, 0
3, 6720, Note_on_c, 0, 72, 75
3, 6960, Note_on_c, 0, 72, 0
3, 6960, Control_c, 0, 64, 0
3, 6960, Note_on_c, 0, 67, 75
3, 7200, Note_on_c, 0, 67, 0
3, 7440, Control_c, 0, 64, 127
3, 7440, Note_on_c, 0, 62, 75
3, 7440, Note_on_c, 0, 67, 75
3, 7680, Note_on_c, 0, 67, 0
3, 7680, Note_on_c, 0, 62, 0
3, 7680, Note_on_c, 0, 69, 75
3, 7920, Note_on_c, 0, 69, 0
3, 7920, Note_on_c, 0, 71, 75
3, 8160, Note_on_c, 0, 71, 0
3, 8400, Control_c, 0, 64, 0
3, 8400, Note_on_c, 0, 67, 75
3, 8640, Note_on_c, 0, 67, 0
3, 8880, Control_c, 0, 64, 127
3, 8880, Note_on_c, 0, 65, 75
3, 9120, Note_on_c, 0, 65, 0
3, 9120, Note_on_c, 0, 67, 75
3, 9360, Note_on_c, 0, 67, 0
3, 9360, Note_on_c, 0, 68, 75
3, 9600, Note_on_c, 0, 68, 0
3, 9600, Note_on_c, 0, 69, 75
3, 9840, Note_on_c, 0, 69, 0
3, 9840, Control_c, 0, 64, 0
3, 9840, Note_on_c, 0, 65, 75
3, 10080, Note_on_c, 0, 65, 0
3, 10320, Control_c, 0, 64, 127
3, 10320, Note_on_c, 0, 64, 75
3, 10320, Note_on_c, 0, 67, 75
3, 10560, Note_on_c, 0, 67, 0
3, 10560, Note_on_c, 0, 64, 0
3, 10560, Note_on_c, 0, 69, 75
3, 10800, Note_on_c, 0, 69, 0
3, 10800, Note_on_c, 0, 70, 75
3, 11040, Note_on_c, 0, 70, 0
3, 11040, Note_on_c, 0, 71, 75
3, 11280, Note_on_c, 0, 71, 0
3, 11280, Control_c, 0, 64, 0
3, 11280, Note_on_c, 0, 67, 75
3, 11520, Note_on_c, 0, 67, 0
3, 11760, Control_c, 0, 64, 127
3, 11760, Note_on_c, 0, 67, 75
3, 12000, Note_on_c, 0, 67, 0
3, 12000, Note_on_c, 0, 65, 75
3, 12240, Note_on_c, 0, 65, 0
3, 12240, Note_on_c, 0, 64, 75
3, 12480, Note_on_c, 0, 64, 0
3, 12480, Note_on_c, 0, 63, 75
3, 12720, Note_on_c, 0, 63, 0
3, 12720, Control_c, 0, 64, 0
3, 12720, Note_on_c, 0, 64, 75
3, 12960, Note_on_c, 0, 64, 0
3, 12960, Control_c, 0, 64, 127
3, 12960, Note_on_c, 0, 62, 75
3, 13200, Note_on_c, 0, 62, 0
3, 13200, Note_on_c, 0, 61, 75
3, 13440, Note_on_c, 0, 61, 0
3, 13440, Note_on_c, 0, 60, 75
3, 13680, Note_on_c, 0, 60, 0
3, 13680, Note_on_c, 0, 71, 75
3, 13920, Note_on_c, 0, 71, 0
3, 13920, Note_on_c, 0, 72, 75
3, 14160, Note_on_c, 0, 72, 0
3, 14160, Control_c, 0, 64, 0
3, 14160, Note_on_c, 0, 67, 75
3, 14400, Note_on_c, 0, 67, 0
3, 14640, Control_c, 0, 64, 127
3, 14640, Note_on_c, 0, 65, 75
3, 14880, Note_on_c, 0, 65, 0
3, 14880, Note_on_c, 0, 67, 75
3, 15120, Note_on_c, 0, 67, 0
3, 15120, Note_on_c, 0, 68, 75
3, 15360, Note_on_c, 0, 68, 0
3, 15360, Note_on_c, 0, 69, 75
3, 15600, Note_on_c, 0, 69, 0
3, 15600, Control_c, 0, 64, 0
3, 15600, Note_on_c, 0, 65, 75
3, 15840, Note_on_c, 0, 65, 0
3, 16080, Control_c, 0, 64, 127
3, 16080, Note_on_c, 0, 64, 75
3, 16080, Note_on_c, 0, 67, 75
3, 16320, Note_on_c, 0, 67, 0
3, 16320, Note_on_c, 0, 64, 0
3, 16320, Note_on_c, 0, 69, 75
3, 16560, Note_on_c, 0, 69, 0
3, 16560, Note_on_c, 0, 70, 75
3, 16800, Note_on_c, 0, 70, 0
3, 16800, Note_on_c, 0, 71, 75
3, 17040, Note_on_c, 0, 71, 0
3, 17040, Control_c, 0, 64, 0
3, 17040, Note_on_c, 0, 67, 75
3, 17280, Note_on_c, 0, 67, 0
3, 17520, Control_c, 0, 64, 127
3, 17520, Note_on_c, 0, 64, 75
3, 17520, Note_on_c, 0, 67, 75
3, 17760, Note_on_c, 0, 67, 0
3, 17760, Note_on_c, 0, 64, 0
3, 17760, Note_on_c, 0, 69, 75
3, 18000, Note_on_c, 0, 69, 0
3, 18000, Note_on_c, 0, 71, 75
3, 18240, Note_on_c, 0, 71, 0
3, 18240, Note_on_c, 0, 72, 75
3, 18480, Note_on_c, 0, 72, 0
3, 18480, Control_c, 0, 64, 0
3, 18480, Note_on_c, 0, 67, 75
3, 18720, Note_on_c, 0, 67, 0
3, 18960, Control_c, 0, 64, 127
3, 18960, Note_on_c, 0, 62, 75
3, 18960, Note_on_c, 0, 67, 75
3, 19200, Note_on_c, 0, 67, 0
3, 19200, Note_on_c, 0, 62, 0
3, 19200, Note_on_c, 0, 69, 75
3, 19440, Note_on_c, 0, 69, 0
3, 19440, Note_on_c, 0, 71, 75
3, 19680, Note_on_c, 0, 71, 0
3, 19920, Control_c, 0, 64, 0
3, 19920, Note_on_c, 0, 69, 75
3, 20160, Note_on_c, 0, 69, 0
3, 20400, Control_c, 0, 64, 127
3, 20400, Note_on_c, 0, 65, 75
3, 20640, Note_on_c, 0, 65, 0
3, 20640, Note_on_c, 0, 67, 75
3, 20880, Note_on_c, 0, 67, 0
3, 20880, Note_on_c, 0, 68, 75
3, 21120, Note_on_c, 0, 68, 0
3, 21120, Note_on_c, 0, 69, 75
3, 21360, Note_on_c, 0, 69, 0
3, 21360, Control_c, 0, 64, 0
3, 21360, Note_on_c, 0, 65, 75
3, 21600, Note_on_c, 0, 65, 0
3, 21840, Control_c, 0, 64, 127
3, 21840, Note_on_c, 0, 64, 75
3, 21840, Note_on_c, 0, 67, 75
3, 22080, Note_on_c, 0, 67, 0
3, 22080, Note_on_c, 0, 64, 0
3, 22080, Note_on_c, 0, 69, 75
3, 22320, Note_on_c, 0, 69, 0
3, 22320, Note_on_c, 0, 70, 75
3, 22560, Note_on_c, 0, 70, 0
3, 22560, Note_on_c, 0, 71, 75
3, 22800, Note_on_c, 0, 71, 0
3, 22800, Control_c, 0, 64, 0
3, 22800, Note_on_c, 0, 67, 75
3, 23040, Note_on_c, 0, 67, 0
3, 23280, Control_c, 0, 64, 127
3, 23280, Note_on_c, 0, 76, 88
3, 23520, Note_on_c, 0, 76, 0
3, 23520, Note_on_c, 0, 77, 88
3, 23760, Note_on_c, 0, 77, 0
3, 23760, Note_on_c, 0, 76, 88
3, 24000, Note_on_c, 0, 76, 0
3, 24000, Note_on_c, 0, 75, 88
3, 24240, Note_on_c, 0, 75, 0
3, 24240, Control_c, 0, 64, 0
3, 24240, Note_on_c, 0, 76, 88
3, 24480, Note_on_c, 0, 76, 0
3, 24480, Control_c, 0, 64, 127
3, 24480, Note_on_c, 0, 74, 88
3, 24720, Note_on_c, 0, 74, 0
3, 24720, Note_on_c, 0, 73, 88
3, 24960, Note_on_c, 0, 73, 0
3, 24960, Note_on_c, 0, 72, 88
3, 25200, Note_on_c, 0, 72, 0
3, 25200, Note_on_c, 0, 83, 88
3, 25440, Note_on_c, 0, 83, 0
3, 25440, Note_on_c, 0, 84, 88
3, 25680, Note_on_c, 0, 84, 0
3, 25680, Control_c, 0, 64, 0
3, 25680, Note_on_c, 0, 79, 88
3, 25920, Note_on_c, 0, 79, 0
3, 26160, Control_c, 0, 64, 127
3, 26160, Note_on_c, 0, 77, 88
3, 26400, Note_on_c, 0, 77, 0
3, 26400, Note_on_c, 0, 79, 88
3, 26640, Note_on_c, 0, 79, 0
3, 26640, Note_on_c, 0, 80, 88
3, 26880, Note_on_c, 0, 80, 0
3, 26880, Note_on_c, 0, 81, 88
3, 27120, Note_on_c, 0, 81, 0
3, 27120, Control_c, 0, 64, 0
3, 27120, Note_on_c, 0, 77, 88
3, 27360, Note_on_c, 0, 77, 0
3, 27600, Control_c, 0, 64, 127
3, 27600, Note_on_c, 0, 76, 88
3, 27600, Note_on_c, 0, 79, 88
3, 27840, Note_on_c, 0, 79, 0
3, 27840, Note_on_c, 0, 76, 0
3, 27840, Note_on_c, 0, 81, 88
3, 28080, Note_on_c, 0, 81, 0
3, 28080, Note_on_c, 0, 82, 88
3, 28320, Note_on_c, 0, 82, 0
3, 28320, Note_on_c, 0, 83, 88
3, 28560, Note_on_c, 0, 83, 0
3, 28560, Control_c, 0, 64, 0
3, 28560, Note_on_c, 0, 79, 88
3, 28800, Note_on_c, 0, 79, 0
3, 29040, Control_c, 0, 64, 127
3, 29040, Note_on_c, 0, 76, 88
3, 29040, Note_on_c, 0, 79, 88
3, 29280, Note_on_c, 0, 79, 0
3, 29280, Note_on_c, 0, 76, 0
3, 29280, Note_on_c, 0, 81, 88
3, 29520, Note_on_c, 0, 81, 0
3, 29520, Note_on_c, 0, 83, 88
3, 29760, Note_on_c, 0, 83, 0
3, 29760, Note_on_c, 0, 84, 88
3, 30000, Note_on_c, 0, 84, 0
3, 30000, Control_c, 0, 64, 0
3, 30000, Note_on_c, 0, 79, 88
3, 30240, Note_on_c, 0, 79, 0
3, 30480, Control_c, 0, 64, 127
3, 30480, Note_on_c, 0, 74, 88
3, 30480, Note_on_c, 0, 79, 88
3, 30720, Note_on_c, 0, 79, 0
3, 30720, Note_on_c, 0, 74, 0
3, 30720, Note_on_c, 0, 81, 88
3, 30960, Note_on_c, 0, 81, 0
3, 30960, Note_on_c, 0, 83, 88
3, 31200, Note_on_c, 0, 83, 0
3, 31440, Control_c, 0, 64, 0
3, 31440, Note_on_c, 0, 79, 88
3, 31680, Note_on_c, 0, 79, 0
3, 31920, Control_c, 0, 64, 127
3, 31920, Note_on_c, 0, 77, 88
3, 32160, Note_on_c, 0, 77, 0
3, 32160, Note_on_c, 0, 79, 88
3, 32400, Note_on_c, 0, 79, 0
3, 32400, Note_on_c, 0, 80, 88
3, 32640, Note_on_c, 0, 80, 0
3, 32640, Note_on_c, 0, 81, 88
3, 32880, Note_on_c, 0, 81, 0
3, 32880, Control_c, 0, 64, 0
3, 32880, Note_on_c, 0, 77, 88
3, 33120, Note_on_c, 0, 77, 0
3, 33360, Control_c, 0, 64, 127
3, 33360, Note_on_c, 0, 76, 88
3, 33360, Note_on_c, 0, 79, 88
3, 33600, Note_on_c, 0, 79, 0
3, 33600, Note_on_c, 0, 76, 0
3, 33600, Note_on_c, 0, 81, 88
3, 33840, Note_on_c, 0, 81, 0
3, 33840, Note_on_c, 0, 82, 88
3, 34080, Note_on_c, 0, 82, 0
3, 34080, Note_on_c, 0, 83, 88
3, 34320, Note_on_c, 0, 83, 0
3, 34320, Control_c, 0, 64, 0
3, 34320, Note_on_c, 0, 79, 88
3, 34560, Note_on_c, 0, 79, 0
3, 34800, Control_c, 0, 64, 127
3, 34800, Note_on_c, 0, 76, 88
3, 35040, Note_on_c, 0, 76, 0
3, 35040, Note_on_c, 0, 77, 88
3, 35280, Note_on_c, 0, 77, 0
3, 35280, Note_on_c, 0, 76, 88
3, 35520, Note_on_c, 0, 76, 0
3, 35520, Note_on_c, 0, 75, 88
3, 35760, Note_on_c, 0, 75, 0
3, 35760, Control_c, 0, 64, 0
3, 35760, Note_on_c, 0, 76, 88
3, 36000, Note_on_c, 0, 76, 0
3, 36000, Control_c, 0, 64, 127
3, 36000, Note_on_c, 0, 74, 88
3, 36240, Note_on_c, 0, 74, 0
3, 36240, Note_on_c, 0, 73, 88
3, 36480, Note_on_c, 0, 73, 0
3, 36480, Note_on_c, 0, 72, 88
3, 36720, Note_on_c, 0, 72, 0
3, 36720, Note_on_c, 0, 83, 88
3, 36960, Note_on_c, 0, 83, 0
3, 36960, Note_on_c, 0, 84, 88
3, 37200, Note_on_c, 0, 84, 0
3, 37200, Control_c, 0, 64, 0
3, 37200, Note_on_c, 0, 79, 88
3, 37440, Note_on_c, 0, 79, 0
3, 37680, Control_c, 0, 64, 127
3, 37680, Note_on_c, 0, 77, 88
3, 37920, Note_on_c, 0, 77, 0
3, 37920, Note_on_c, 0, 79, 88
3, 38160, Note_on_c, 0, 79, 0
3, 38160, Note_on_c, 0, 80, 88
3, 38400, Note_on_c, 0, 80, 0
3, 38400, Note_on_c, 0, 81, 88
3, 38640, Note_on_c, 0, 81, 0
3, 38640, Control_c, 0, 64, 0
3, 38640, Note_on_c, 0, 77, 88
3, 38880, Note_on_c, 0, 77, 0
3, 39120, Control_c, 0, 64, 127
3, 39120, Note_on_c, 0, 76, 88
3, 39120, Note_on_c, 0, 79, 88
3, 39360, Note_on_c, 0, 79, 0
3, 39360, Note_on_c, 0, 76, 0
3, 39360, Note_on_c, 0, 81, 88
3, 39600, Note_on_c, 0, 81, 0
3, 39600, Note_on_c, 0, 82, 88
3, 39840, Note_on_c, 0, 82, 0
3, 39840, Note_on_c, 0, 83, 88
3, 40080, Note_on_c, 0, 83, 0
3, 40080, Control_c, 0, 64, 0
3, 40080, Note_on_c, 0, 79, 88
3, 40320, Note_on_c, 0, 79, 0
3, 40560, Control_c, 0, 64, 127
3, 40560, Note_on_c, 0, 76, 88
3, 40560, Note_on_c, 0, 79, 88
3, 40800, Note_on_c, 0, 79, 0
3, 40800, Note_on_c, 0, 76, 0
3, 40800, Note_on_c, 0, 81, 88
3, 41040, Note_on_c, 0, 81, 0
3, 41040, Note_on_c, 0, 83, 88
3, 41280, Note_on_c, 0, 83, 0
3, 41280, Note_on_c, 0, 84, 88
3, 41520, Note_on_c, 0, 84, 0
3, 41520, Control_c, 0, 64, 0
3, 41520, Note_on_c, 0, 79, 88
3, 41760, Note_on_c, 0, 79, 0
3, 42000, Control_c, 0, 64, 127
3, 42000, Note_on_c, 0, 74, 88
3, 42000, Note_on_c, 0, 79, 88
3, 42240, Note_on_c, 0, 79, 0
3, 42240, Note_on_c, 0, 74, 0
3, 42240, Note_on_c, 0, 81, 88
3, 42480, Note_on_c, 0, 81, 0
3, 42480, Note_on_c, 0, 83, 88
3, 42720, Note_on_c, 0, 83, 0
3, 42960, Control_c, 0, 64, 0
3, 42960, Note_on_c, 0, 79, 88
3, 43200, Note_on_c, 0, 79, 0
3, 43440, Control_c, 0, 64, 127
3, 43440, Note_on_c, 0, 77, 88
3, 43440, Note_on_c, 0, 80, 88
3, 43680, Note_on_c, 0, 80, 0
3, 43680, Note_on_c, 0, 77, 0
3, 43680, Note_on_c, 0, 82, 88
3, 43920, Note_on_c, 0, 82, 0
3, 43920, Note_on_c, 0, 84, 88
3, 44160, Note_on_c, 0, 84, 0
3, 44160, Note_on_c, 0, 85, 88
3, 44400, Note_on_c, 0, 85, 0
3, 44400, Control_c, 0, 64, 0
3, 44400, Note_on_c, 0, 80, 88
3, 44640, Note_on_c, 0, 80, 0
3, 44880, Control_c, 0, 64, 127
3, 44880, Note_on_c, 0, 75, 88
3, 44880, Note_on_c, 0, 80, 88
3, 45120, Note_on_c, 0, 80, 0
3, 45120, Note_on_c, 0, 75, 0
3, 45120, Note_on_c, 0, 82, 88
3, 45360, Note_on_c, 0, 82, 0
3, 45360, Note_on_c, 0, 84, 88
3, 45600, Note_on_c, 0, 84, 0
3, 45840, Control_c, 0, 64, 0
3, 45840, Note_on_c, 0, 80, 88
3, 46080, Note_on_c, 0, 80, 0
3, 48960, Control_c, 0, 64, 127
3, 48960, Note_on_c, 0, 75, 88
3, 49200, Note_on_c, 0, 75, 0
3, 49200, Note_on_c, 0, 78, 88
3, 49440, Note_on_c, 0, 78, 0
3, 49440, Note_on_c, 0, 80, 88
3, 49680, Note_on_c, 0, 80, 0
3, 49680, Note_on_c, 0, 82, 88
3, 49920, Note_on_c, 0, 82, 0
3, 49920, Note_on_c, 0, 83, 88
3, 50160, Note_on_c, 0, 83, 0
3, 50160, Control_c, 0, 64, 0
3, 50160, Note_on_c, 0, 78, 88
3, 50400, Note_on_c, 0, 78, 0
3, 50640, Control_c, 0, 64, 127
3, 50640, Note_on_c, 0, 78, 88
3, 50880, Note_on_c, 0, 78, 0
3, 50880, Note_on_c, 0, 80, 88
3, 51120, Note_on_c, 0, 80, 0
3, 51120, Note_on_c, 0, 82, 88
3, 51360, Note_on_c, 0, 82, 0
3, 51360, Note_on_c, 0, 83, 88
3, 51600, Note_on_c, 0, 83, 0
3, 51600, Control_c, 0, 64, 0
3, 51600, Note_on_c, 0, 78, 88
3, 51840, Note_on_c, 0, 78, 0
3, 51840, End_track
4, 0, Start_track
4, 0, Title_t, "Grand Piano"
4, 0, Program_c, 0, 0
4, 0, Control_c, 0, 7, 115
4, 0, Control_c, 0, 10, 41
4, 480, Note_on_c, 0, 56, 78
4, 960, Note_on_c, 0, 56, 0
4, 960, Note_on_c, 0, 57, 78
4, 1440, Note_on_c, 0, 57, 0
4, 3360, Note_on_c, 0, 53, 78
4, 3360, Note_on_c, 0, 62, 78
4, 3840, Note_on_c, 0, 62, 0
4, 3840, Note_on_c, 0, 53, 0
4, 3840, Note_on_c, 0, 53, 78
4, 3840, Note_on_c, 0, 62, 78
4, 4320, Note_on_c, 0, 62, 0
4, 4320, Note_on_c, 0, 53, 0
4, 4800, Note_on_c, 0, 55, 78
4, 5280, Note_on_c, 0, 55, 0
4, 5280, Note_on_c, 0, 55, 78
4, 5760, Note_on_c, 0, 55, 0
4, 6240, Note_on_c, 0, 55, 78
4, 6720, Note_on_c, 0, 55, 0
4, 6720, Note_on_c, 0, 55, 78
4, 7200, Note_on_c, 0, 55, 0
4, 7680, Note_on_c, 0, 55, 78
4, 8160, Note_on_c, 0, 55, 0
4, 8160, Note_on_c, 0, 55, 78
4, 8640, Note_on_c, 0, 55, 0
4, 9120, Note_on_c, 0, 53, 78
4, 9120, Note_on_c, 0, 62, 78
4, 9600, Note_on_c, 0, 62, 0
4, 9600, Note_on_c, 0, 53, 0
4, 9600, Note_on_c, 0, 53, 78
4, 9600, Note_on_c, 0, 62, 78
4, 10080, Note_on_c, 0, 62, 0
4, 10080, Note_on_c, 0, 53, 0
4, 10560, Note_on_c, 0, 55, 78
4, 11040, Note_on_c, 0, 55, 0
4, 11040, Note_on_c, 0, 55, 78
4, 11520, Note_on_c, 0, 55, 0
4, 12000, Note_on_c, 0, 55, 78
4, 12480, Note_on_c, 0, 55, 0
4, 12480, Note_on_c, 0, 55, 78
4, 12960, Note_on_c, 0, 55, 0
4, 12960, Note_on_c, 0, 43, 78
4, 12960, Note_on_c, 0, 55, 78
4, 13440, Note_on_c, 0, 55, 0
4, 13440, Note_on_c, 0, 43, 0
4, 13440, Note_on_c, 0, 40, 78
4, 13440, Note_on_c, 0, 52, 78
4, 13920, Note_on_c, 0, 52, 0
4, 13920, Note_on_c, 0, 40, 0
4, 13920, Note_on_c, 0, 36, 78
4, 13920, Note_on_c, 0, 48, 78
4, 14400, Note_on_c, 0, 48, 0
4, 14400, Note_on_c, 0, 36, 0
4, 14880, Note_on_c, 0, 53, 78
4, 14880, Note_on_c, 0, 62, 78
4, 15360, Note_on_c, 0, 62, 0
4, 15360, Note_on_c, 0, 53, 0
4, 15360, Note_on_c, 0, 53, 78
4, 15360, Note_on_c, 0, 62, 78
4, 15840, Note_on_c, 0, 62, 0
4, 15840, Note_on_c, 0, 53, 0
4, 16320, Note_on_c, 0, 55, 78
4, 16800, Note_on_c, 0, 55, 0
4, 16800, Note_on_c, 0, 55, 78
4, 17280, Note_on_c, 0, 55, 0
4, 17760, Note_on_c, 0, 55, 78
4, 18240, Note_on_c, 0, 55, 0
4, 18240, Note_on_c, 0, 55, 78
4, 18720, Note_on_c, 0, 55, 0
4, 19200, Note_on_c, 0, 55, 78
4, 19680, Note_on_c, 0, 55, 0
4, 19680, Note_on_c, 0, 55, 78
4, 20160, Note_on_c, 0, 55, 0
4, 20640, Note_on_c, 0, 53, 78
4, 20640, Note_on_c, 0, 62, 78
4, 21120, Note_on_c, 0, 62, 0
4, 21120, Note_on_c, 0, 53, 0
4, 21120, Note_on_c, 0, 53, 78
4, 21120, Note_on_c, 0, 62, 78
4, 21600, Note_on_c, 0, 62, 0
4, 21600, Note_on_c, 0, 53, 0
4, 22080, Note_on_c, 0, 55, 78
4, 22560, Note_on_c, 0, 55, 0
4, 22560, Note_on_c, 0, 55, 78
4, 23040, Note_on_c, 0, 55, 0
4, 23520, Note_on_c, 0, 55, 78
4, 24000, Note_on_c, 0, 55, 0
4, 24000, Note_on_c, 0, 57, 78
4, 24480, Note_on_c, 0, 57, 0
4, 24480, Note_on_c, 0, 55, 78
4, 24480, Note_on_c, 0, 59, 78
4, 24960, Note_on_c, 0, 59, 0
4, 24960, Note_on_c, 0, 55, 0
4, 24960, Note_on_c, 0, 52, 78
4, 24960, Note_on_c, 0, 55, 78
4, 24960, Note_on_c, 0, 60, 78
4, 25440, Note_on_c, 0, 60, 0
4, 25440, Note_on_c, 0, 55, 0
4, 25440, Note_on_c, 0, 52, 0
4, 25440, Note_on_c, 0, 48, 78
4, 25440, Note_on_c, 0, 55, 78
4, 25440, Note_on_c, 0, 64, 78
4, 25920, Note_on_c, 0, 64, 0
4, 25920, Note_on_c, 0, 55, 0
4, 25920, Note_on_c, 0, 48, 0
4, 25920, Note_on_c, 0, 53, 78
4, 25920, Note_on_c, 0, 57, 78
4, 26160, Note_on_c, 0, 57, 0
4, 26160, Note_on_c, 0, 53, 0
4, 26400, Note_on_c, 0, 62, 78
4, 26880, Note_on_c, 0, 62, 0
4, 26880, Note_on_c, 0, 62, 78
4, 27360, Note_on_c, 0, 62, 0
4, 27360, Note_on_c, 0, 59, 78
4, 27600, Note_on_c, 0, 59, 0
4, 27840, Note_on_c, 0, 55, 78
4, 28320, Note_on_c, 0, 55, 0
4, 28320, Note_on_c, 0, 55, 78
4, 28800, Note_on_c, 0, 55, 0
4, 28800, Note_on_c, 0, 55, 78
4, 28800, Note_on_c, 0, 60, 78
4, 29040, Note_on_c, 0, 60, 0
4, 29040, Note_on_c, 0, 55, 0
4, 29280, Note_on_c, 0, 55, 78
4, 29760, Note_on_c, 0, 55, 0
4, 29760, Note_on_c, 0, 55, 78
4, 30240, Note_on_c, 0, 55, 0
4, 30240, Note_on_c, 0, 55, 78
4, 30480, Note_on_c, 0, 55, 0
4, 30720, Note_on_c, 0, 55, 78
4, 31200, Note_on_c, 0, 55, 0
4, 31200, Note_on_c, 0, 55, 78
4, 31680, Note_on_c, 0, 55, 0
4, 31680, Note_on_c, 0, 53, 78
4, 31680, Note_on_c, 0, 57, 78
4, 31920, Note_on_c, 0, 57, 0
4, 31920, Note_on_c, 0, 53, 0
4, 32160, Note_on_c, 0, 62, 78
4, 32640, Note_on_c, 0, 62, 0
4, 32640, Note_on_c, 0, 62, 78
4, 33120, Note_on_c, 0, 62, 0
4, 33120, Note_on_c, 0, 59, 78
4, 33360, Note_on_c, 0, 59, 0
4, 33600, Note_on_c, 0, 55, 78
4, 34080, Note_on_c, 0, 55, 0
4, 34080, Note_on_c, 0, 55, 78
4, 34560, Note_on_c, 0, 55, 0
4, 34560, Note_on_c, 0, 55, 78
4, 34560, Note_on_c, 0, 60, 78
4, 34800, Note_on_c, 0, 60, 0
4, 34800, Note_on_c, 0, 55, 0
4, 35040, Note_on_c, 0, 55, 78
4, 35520, Note_on_c, 0, 55, 0
4, 35520, Note_on_c, 0, 55, 78
4, 36000, Note_on_c, 0, 55, 0
4, 36000, Note_on_c, 0, 55, 78
4, 36000, Note_on_c, 0, 59, 78
4, 36480, Note_on_c, 0, 59, 0
4, 36480, Note_on_c, 0, 55, 0
4, 36480, Note_on_c, 0, 52, 78
4, 36480, Note_on_c, 0, 55, 78
4, 36480, Note_on_c, 0, 60, 78
4, 36960, Note_on_c, 0, 60, 0
4, 36960, Note_on_c, 0, 55, 0
4, 36960, Note_on_c, 0, 52, 0
4, 36960, Note_on_c, 0, 48, 78
4, 36960, Note_on_c, 0, 55, 78
4, 36960, Note_on_c, 0, 64, 78
4, 37440, Note_on_c, 0, 64, 0
4, 37440, Note_on_c, 0, 55, 0
4, 37440, Note_on_c, 0, 48, 0
4, 37440, Note_on_c, 0, 53, 78
4, 37440, Note_on_c, 0, 57, 78
4, 37680, Note_on_c, 0, 57, 0
4, 37680, Note_on_c, 0, 53, 0
4, 37920, Note_on_c, 0, 62, 78
4, 38400, Note_on_c, 0, 62, 0
4, 38400, Note_on_c, 0, 62, 78
4, 38880, Note_on_c, 0, 62, 0
4, 38880, Note_on_c, 0, 59, 78
4, 39120, Note_on_c, 0, 59, 0
4, 39360, Note_on_c, 0, 55, 78
4, 39840, Note_on_c, 0, 55, 0
4, 39840, Note_on_c, 0, 55, 78
4, 40320, Note_on_c, 0, 55, 0
4, 40320, Note_on_c, 0, 55, 78
4, 40320, Note_on_c, 0, 60, 78
4, 40560, Note_on_c, 0, 60, 0
4, 40560, Note_on_c, 0, 55, 0
4, 40800, Note_on_c, 0, 55, 78
4, 41280, Note_on_c, 0, 55, 0
4, 41280, Note_on_c, 0, 55, 78
4, 41760, Note_on_c, 0, 55, 0
4, 41760, Note_on_c, 0, 55, 78
4, 42000, Note_on_c, 0, 55, 0
4, 42240, Note_on_c, 0, 55, 78
4, 42720, Note_on_c, 0, 55, 0
4, 42720, Note_on_c, 0, 55, 78
4, 43200, Note_on_c, 0, 55, 0
4, 43200, Note_on_c, 0, 53, 78
4, 43200, Note_on_c, 0, 56, 78
4, 43440, Note_on_c, 0, 56, 0
4, 43440, Note_on_c, 0, 53, 0
4, 43680, Note_on_c, 0, 56, 78
4, 44160, Note_on_c, 0, 56, 0
4, 44160, Note_on_c, 0, 56, 78
4, 44640, Note_on_c, 0, 56, 0
4, 44640, Note_on_c, 0, 56, 78
4, 44880, Note_on_c, 0, 56, 0
4, 45120, Note_on_c, 0, 56, 78
4, 45600, Note_on_c, 0, 56, 0
4, 45600, Note_on_c, 0, 56, 78
4, 46080, Note_on_c, 0, 56, 0
4, 46080, Note_on_c, 0, 56, 78
4, 46080, Note_on_c, 0, 60, 78
4, 46080, Note_on_c, 0, 63, 78
4, 46320, Note_on_c, 0, 63, 0
4, 46320, Note_on_c, 0, 60, 0
4, 46320, Note_on_c, 0, 56, 0
4, 46320, Note_on_c, 0, 56, 78
4, 46560, Note_on_c, 0, 56, 0
4, 46560, Note_on_c, 0, 68, 78
4, 46800, Note_on_c, 0, 68, 0
4, 46800, Note_on_c, 0, 67, 78
4, 47040, Note_on_c, 0, 67, 0
4, 47040, Note_on_c, 0, 66, 78
4, 47280, Note_on_c, 0, 66, 0
4, 47280, Note_on_c, 0, 63, 78
4, 47520, Note_on_c, 0, 63, 0
4, 47520, Note_on_c, 0, 63, 78
4, 47760, Note_on_c, 0, 63, 0
4, 47760, Note_on_c, 0, 62, 78
4, 48000, Note_on_c, 0, 62, 0
4, 48000, Note_on_c, 0, 61, 78
4, 48240, Note_on_c, 0, 61, 0
4, 48240, Note_on_c, 0, 60, 78
4, 48480, Note_on_c, 0, 60, 0
4, 48480, Note_on_c, 0, 59, 78
4, 48720, Note_on_c, 0, 59, 0
4, 48720, Note_on_c, 0, 58, 78
4, 48960, Note_on_c, 0, 58, 0
4, 48960, Note_on_c, 0, 51, 78
4, 48960, Note_on_c, 0, 54, 78
4, 49200, Note_on_c, 0, 54, 0
4, 49200, Note_on_c, 0, 51, 0
4, 49440, Note_on_c, 0, 54, 78
4, 49920, Note_on_c, 0, 54, 0
4, 49920, Note_on_c, 0, 54, 78
4, 50400, Note_on_c, 0, 54, 0
4, 50400, Note_on_c, 0, 54, 78
4, 50640, Note_on_c, 0, 54, 0
4, 50880, Note_on_c, 0, 54, 78
4, 51360, Note_on_c, 0, 54, 0
4, 51360, Note_on_c, 0, 54, 78
4, 51840, Note_on_c, 0, 54, 0
4, 51840, Note_on_c, 0, 54, 78
4, 51840, Note_on_c, 0, 58, 78
4, 51840, Note_on_c, 0, 61, 78
4, 52080, Note_on_c, 0, 61, 0
4, 52080, Note_on_c, 0, 58, 0
4, 52080, Note_on_c, 0, 54, 0
4, 52080, Note_on_c, 0, 54, 78
4, 52320, Note_on_c, 0, 54, 0
4, 52320, Note_on_c, 0, 66, 78
4, 52560, Note_on_c, 0, 66, 0
4, 52560, Note_on_c, 0, 65, 78
4, 52800, Note_on_c, 0, 65, 0
4, 52800, Note_on_c, 0, 64, 78
4, 53040, Note_on_c, 0, 64, 0
4, 53040, Note_on_c, 0, 63, 78
4, 53280, Note_on_c, 0, 63, 0
4, 53280, Note_on_c, 0, 61, 78
4, 53520, Note_on_c, 0, 61, 0
4, 53520, Note_on_c, 0, 60, 78
4, 53760, Note_on_c, 0, 60, 0
4, 53760, Note_on_c, 0, 59, 78
4, 54000, Note_on_c, 0, 59, 0
4, 54000, Note_on_c, 0, 58, 78
4, 54240, Note_on_c, 0, 58, 0
4, 54240, Note_on_c, 0, 57, 78
4, 54480, Note_on_c, 0, 57, 0
4, 54480, Note_on_c, 0, 56, 78
4, 54720, Note_on_c, 0, 56, 0
4, 54720, Note_on_c, 0, 45, 78
4, 54720, Note_on_c, 0, 52, 78
4, 54720, Note_on_c, 0, 57, 78
4, 55200, Note_on_c, 0, 57, 0
4, 55200, Note_on_c, 0, 52, 0
4, 55200, Note_on_c, 0, 45, 0
4, 56160, Note_on_c, 0, 52, 78
4, 56160, Note_on_c, 0, 56, 78
4, 56160, Note_on_c, 0, 59, 78
4, 56640, Note_on_c, 0, 59, 0
4, 56640, Note_on_c, 0, 56, 0
4, 56640, Note_on_c, 0, 52, 0
4, 57120, Note_on_c, 0, 64, 78
4, 57600, Note_on_c, 0, 64, 0
4, 57600, Note_on_c, 0, 55, 78
4, 57600, Note_on_c, 0, 59, 78
4, 57600, Note_on_c, 0, 62, 78
4, 58080, Note_on_c, 0, 62, 0
4, 58080, Note_on_c, 0, 59, 0
4, 58080, Note_on_c, 0, 55, 0
4, 58560, Note_on_c, 0, 67, 78
4, 59040, Note_on_c, 0, 67, 0
4, 59040, Note_on_c, 0, 62, 78
4, 59040, Note_on_c, 0, 66, 78
4, 59040, Note_on_c, 0, 69, 78
4, 59520, Note_on_c, 0, 69, 0
4, 59520, Note_on_c, 0, 66, 0
4, 59520, Note_on_c, 0, 62, 0
4, 59520, Note_on_c, 0, 66, 78
4, 60000, Note_on_c, 0, 66, 0
4, 60000, Note_on_c, 0, 62, 78
4, 60480, Note_on_c, 0, 62, 0
4, 60480, Note_on_c, 0, 55, 91
4, 60480, Note_on_c, 0, 59, 91
4, 60480, Note_on_c, 0, 65, 91
4, 61920, Note_on_c, 0, 65, 0
4, 61920, Note_on_c, 0, 59, 0
4, 61920, Note_on_c, 0, 55, 0
4, 61920, Note_on_c, 0, 53, 91
4, 61920, Note_on_c, 0, 59, 91
4, 61920, Note_on_c, 0, 64, 91
4, 62880, Note_on_c, 0, 64, 0
4, 62880, Note_on_c, 0, 59, 0
4, 62880, Note_on_c, 0, 53, 0
4, 62880, Note_on_c, 0, 62, 91
4, 63360, Note_on_c, 0, 62, 0
4, 63360, Note_on_c, 0, 52, 91
4, 63360, Note_on_c, 0, 60, 91
4, 63360, Note_on_c, 0, 64, 91
4, 64800, Note_on_c, 0, 64, 0
4, 64800, Note_on_c, 0, 60, 0
4, 64800, Note_on_c, 0, 52, 0
4, 64800, Note_on_c, 0, 52, 91
4, 64800, Note_on_c, 0, 55, 91
4, 64800, Note_on_c, 0, 62, 91
4, 65760, Note_on_c, 0, 62, 0
4, 65760, Note_on_c, 0, 55, 0
4, 65760, Note_on_c, 0, 52, 0
4, 65760, Note_on_c, 0, 60, 91
4, 66240, Note_on_c, 0, 60, 0
4, 66240, Note_on_c, 0, 50, 91
4, 66240, Note_on_c, 0, 57, 91
4, 66240, Note_on_c, 0, 65, 91
4, 67680, Note_on_c, 0, 65, 0
4, 67680, Note_on_c, 0, 57, 0
4, 67680, Note_on_c, 0, 50, 0
4, 67680, Note_on_c, 0, 53, 91
4, 67680, Note_on_c, 0, 59, 91
4, 67680, Note_on_c, 0, 64, 91
4, 68640, Note_on_c, 0, 64, 0
4, 68640, Note_on_c, 0, 59, 0
4, 68640, Note_on_c, 0, 53, 0
4, 68640, Note_on_c, 0, 62, 91
4, 69120, Note_on_c, 0, 62, 0
4, 69120, Note_on_c, 0, 60, 91
4, 69120, Note_on_c, 0, 64, 91
4, 69600, Note_on_c, 0, 64, 0
4, 69600, Note_on_c, 0, 60, 0
4, 69600, Note_on_c, 0, 55, 117
4, 70080, Note_on_c, 0, 55, 0
4, 70080, Note_on_c, 0, 57, 117
4, 70560, Note_on_c, 0, 57, 0
4, 70560, Note_on_c, 0, 59, 117
4, 71040, Note_on_c, 0, 59, 0
4, 71040, Note_on_c, 0, 60, 117
4, 71520, Note_on_c, 0, 60, 0
4, 71520, Note_on_c, 0, 64, 117
4, 72000, Note_on_c, 0, 64, 0
4, 72000, Note_on_c, 0, 55, 91
4, 72000, Note_on_c, 0, 59, 91
4, 72000, Note_on_c, 0, 65, 91
4, 73440, Note_on_c, 0, 65, 0
4, 73440, Note_on_c, 0, 59, 0
4, 73440, Note_on_c, 0, 55, 0
4, 73440, Note_on_c, 0, 53, 91
4, 73440, Note_on_c, 0, 59, 91
4, 73440, Note_on_c, 0, 64, 91
4, 74400, Note_on_c, 0, 64, 0
4, 74400, Note_on_c, 0, 59, 0
4, 74400, Note_on_c, 0, 53, 0
4, 74400, Note_on_c, 0, 62, 91
4, 74880, Note_on_c, 0, 62, 0
4, 74880, Note_on_c, 0, 52, 91
4, 74880, Note_on_c, 0, 60, 91
4, 74880, Note_on_c, 0, 64, 91
4, 76320, Note_on_c, 0, 64, 0
4, 76320, Note_on_c, 0, 60, 0
4, 76320, Note_on_c, 0, 52, 0
4, 76320, Note_on_c, 0, 52, 91
4, 76320, Note_on_c, 0, 55, 91
4, 76320, Note_on_c, 0, 62, 91
4, 77280, Note_on_c, 0, 62, 0
4, 77280, Note_on_c, 0, 55, 0
4, 77280, Note_on_c, 0, 52, 0
4, 77280, Note_on_c, 0, 60, 91
4, 77760, Note_on_c, 0, 60, 0
4, 77760, Note_on_c, 0, 50, 91
4, 77760, Note_on_c, 0, 57, 91
4, 77760, Note_on_c, 0, 65, 91
4, 79200, Note_on_c, 0, 65, 0
4, 79200, Note_on_c, 0, 57, 0
4, 79200, Note_on_c, 0, 50, 0
4, 79200, Note_on_c, 0, 53, 91
4, 79200, Note_on_c, 0, 59, 91
4, 79200, Note_on_c, 0, 64, 91
4, 80160, Note_on_c, 0, 64, 0
4, 80160, Note_on_c, 0, 59, 0
4, 80160, Note_on_c, 0, 53, 0
4, 80160, Note_on_c, 0, 62, 91
4, 80640, Note_on_c, 0, 62, 0
4, 80640, Note_on_c, 0, 48, 78
4, 80640, Note_on_c, 0, 52, 78
4, 80640, Note_on_c, 0, 60, 78
4, 81120, Note_on_c, 0, 60, 0
4, 81120, Note_on_c, 0, 52, 0
4, 81120, Note_on_c, 0, 48, 0
4, 81120, Note_on_c, 0, 48, 78
4, 81120, Note_on_c, 0, 52, 78
4, 81120, Note_on_c, 0, 60, 78
4, 81600, Note_on_c, 0, 60, 0
4, 81600, Note_on_c, 0, 52, 0
4, 81600, Note_on_c, 0, 48, 0
4, 81600, Note_on_c, 0, 48, 78
4, 81600, Note_on_c, 0, 52, 78
4, 81600, Note_on_c, 0, 60, 78
4, 82080, Note_on_c, 0, 60, 0
4, 82080, Note_on_c, 0, 52, 0
4, 82080, Note_on_c, 0, 48, 0
4, 82080, Note_on_c, 0, 47, 91
4, 82080, Note_on_c, 0, 51, 91
4, 82080, Note_on_c, 0, 54, 91
4, 82080, Note_on_c, 0, 59, 91
4, 82560, Note_on_c, 0, 59, 0
4, 82560, Note_on_c, 0, 47, 0
4, 82560, Note_on_c, 0, 51, 0
4, 82560, Note_on_c, 0, 54, 0
4, 84480, Note_on_c, 0, 46, 91
4, 84480, Note_on_c, 0, 50, 91
4, 84480, Note_on_c, 0, 52, 91
4, 84480, Note_on_c, 0, 58, 91
4, 84960, Note_on_c, 0, 58, 0
4, 84960, Note_on_c, 0, 46, 0
4, 84960, Note_on_c, 0, 50, 0
4, 84960, Note_on_c, 0, 52, 0
4, 84960, Note_on_c, 0, 45, 91
4, 84960, Note_on_c, 0, 49, 91
4, 84960, Note_on_c, 0, 52, 91
4, 84960, Note_on_c, 0, 57, 91
4, 85440, Note_on_c, 0, 57, 0
4, 85440, Note_on_c, 0, 45, 0
4, 85440, Note_on_c, 0, 49, 0
4, 85440, Note_on_c, 0, 52, 0
4, 85440, Note_on_c, 0, 33, 91
4, 85440, Note_on_c, 0, 45, 91
4, 85920, Note_on_c, 0, 45, 0
4, 85920, Note_on_c, 0, 33, 0
4, 85920, End_track
5, 0, Start_track
5, 0, Title_t, "Grand Piano"
5, 0, Program_c, 0, 0
5, 0, Control_c, 0, 7, 115
5, 0, Control_c, 0, 10, 47
5, 2880, Note_on_c, 0, 38, 78
5, 2880, Note_on_c, 0, 50, 78
5, 4320, Note_on_c, 0, 50, 0
5, 4320, Note_on_c, 0, 38, 0
5, 4320, Note_on_c, 0, 31, 78
5, 4320, Note_on_c, 0, 43, 78
5, 5760, Note_on_c, 0, 43, 0
5, 5760, Note_on_c, 0, 31, 0
5, 5760, Note_on_c, 0, 36, 78
5, 5760, Note_on_c, 0, 48, 78
5, 7200, Note_on_c, 0, 48, 0
5, 7200, Note_on_c, 0, 36, 0
5, 7200, Note_on_c, 0, 40, 78
5, 7200, Note_on_c, 0, 52, 78
5, 8640, Note_on_c, 0, 52, 0
5, 8640, Note_on_c, 0, 40, 0
5, 8640, Note_on_c, 0, 38, 78
5, 8640, Note_on_c, 0, 50, 78
5, 10080, Note_on_c, 0, 50, 0
5, 10080, Note_on_c, 0, 38, 0
5, 10080, Note_on_c, 0, 31, 78
5, 10080, Note_on_c, 0, 43, 78
5, 11520, Note_on_c, 0, 43, 0
5, 11520, Note_on_c, 0, 31, 0
5, 11520, Note_on_c, 0, 36, 78
5, 11520, Note_on_c, 0, 48, 78
5, 12960, Note_on_c, 0, 48, 0
5, 12960, Note_on_c, 0, 36, 0
5, 14400, Note_on_c, 0, 38, 78
5, 14400, Note_on_c, 0, 50, 78
5, 15840, Note_on_c, 0, 50, 0
5, 15840, Note_on_c, 0, 38, 0
5, 15840, Note_on_c, 0, 31, 78
5, 15840, Note_on_c, 0, 43, 78
5, 17280, Note_on_c, 0, 43, 0
5, 17280, Note_on_c, 0, 31, 0
5, 17280, Note_on_c, 0, 36, 78
5, 17280, Note_on_c, 0, 48, 78
5, 18720, Note_on_c, 0, 48, 0
5, 18720, Note_on_c, 0, 36, 0
5, 18720, Note_on_c, 0, 40, 78
5, 18720, Note_on_c, 0, 52, 78
5, 20160, Note_on_c, 0, 52, 0
5, 20160, Note_on_c, 0, 40, 0
5, 20160, Note_on_c, 0, 38, 78
5, 20160, Note_on_c, 0, 50, 78
5, 21600, Note_on_c, 0, 50, 0
5, 21600, Note_on_c, 0, 38, 0
5, 21600, Note_on_c, 0, 31, 78
5, 21600, Note_on_c, 0, 43, 78
5, 23040, Note_on_c, 0, 43, 0
5, 23040, Note_on_c, 0, 31, 0
5, 23040, Note_on_c, 0, 36, 78
5, 23040, Note_on_c, 0, 48, 78
5, 24480, Note_on_c, 0, 48, 0
5, 24480, Note_on_c, 0, 36, 0
5, 25920, Note_on_c, 0, 50, 78
5, 25920, Note_on_c, 0, 65, 78
5, 27360, Note_on_c, 0, 65, 0
5, 27360, Note_on_c, 0, 50, 0
5, 27360, Note_on_c, 0, 43, 78
5, 27360, Note_on_c, 0, 64, 78
5, 28320, Note_on_c, 0, 64, 0
5, 28320, Note_on_c, 0, 43, 0
5, 28320, Note_on_c, 0, 62, 78
5, 28800, Note_on_c, 0, 62, 0
5, 28800, Note_on_c, 0, 48, 78
5, 28800, Note_on_c, 0, 64, 78
5, 30240, Note_on_c, 0, 64, 0
5, 30240, Note_on_c, 0, 48, 0
5, 30240, Note_on_c, 0, 52, 78
5, 30240, Note_on_c, 0, 62, 78
5, 31200, Note_on_c, 0, 62, 0
5, 31200, Note_on_c, 0, 52, 0
5, 31200, Note_on_c, 0, 60, 78
5, 31680, Note_on_c, 0, 60, 0
5, 31680, Note_on_c, 0, 50, 78
5, 31680, Note_on_c, 0, 65, 78
5, 33120, Note_on_c, 0, 65, 0
5, 33120, Note_on_c, 0, 50, 0
5, 33120, Note_on_c, 0, 43, 78
5, 33120, Note_on_c, 0, 64, 78
5, 34080, Note_on_c, 0, 64, 0
5, 34080, Note_on_c, 0, 43, 0
5, 34080, Note_on_c, 0, 62, 78
5, 34560, Note_on_c, 0, 62, 0
5, 34560, Note_on_c, 0, 48, 78
5, 34560, Note_on_c, 0, 64, 78
5, 35520, Note_on_c, 0, 64, 0
5, 35520, Note_on_c, 0, 48, 0
5, 35520, Note_on_c, 0, 57, 78
5, 36000, Note_on_c, 0, 57, 0
5, 37440, Note_on_c, 0, 50, 78
5, 37440, Note_on_c, 0, 65, 78
5, 38880, Note_on_c, 0, 65, 0
5, 38880, Note_on_c, 0, 50, 0
5, 38880, Note_on_c, 0, 43, 78
5, 38880, Note_on_c, 0, 64, 78
5, 39840, Note_on_c, 0, 64, 0
5, 39840, Note_on_c, 0, 43, 0
5, 39840, Note_on_c, 0, 62, 78
5, 40320, Note_on_c, 0, 62, 0
5, 40320, Note_on_c, 0, 43, 78
5, 40320, Note_on_c, 0, 64, 78
5, 41760, Note_on_c, 0, 64, 0
5, 41760, Note_on_c, 0, 43, 0
5, 41760, Note_on_c, 0, 52, 78
5, 41760, Note_on_c, 0, 62, 78
5, 42720, Note_on_c, 0, 62, 0
5, 42720, Note_on_c, 0, 52, 0
5, 42720, Note_on_c, 0, 60, 78
5, 43200, Note_on_c, 0, 60, 0
5, 43200, Note_on_c, 0, 49, 78
5, 43200, Note_on_c, 0, 65, 78
5, 44640, Note_on_c, 0, 65, 0
5, 44640, Note_on_c, 0, 49, 0
5, 44640, Note_on_c, 0, 53, 78
5, 44640, Note_on_c, 0, 63, 78
5, 45600, Note_on_c, 0, 63, 0
5, 45600, Note_on_c, 0, 53, 0
5, 45600, Note_on_c, 0, 61, 78
5, 46080, Note_on_c, 0, 61, 0
5, 48960, Note_on_c, 0, 47, 78
5, 48960, Note_on_c, 0, 63, 78
5, 50400, Note_on_c, 0, 63, 0
5, 50400, Note_on_c, 0, 47, 0
5, 50400, Note_on_c, 0, 51, 78
5, 50400, Note_on_c, 0, 61, 78
5, 51360, Note_on_c, 0, 61, 0
5, 51360, Note_on_c, 0, 51, 0
5, 51360, Note_on_c, 0, 59, 78
5, 51840, Note_on_c, 0, 59, 0
5, 60960, Note_on_c, 0, 55, 78
5, 61056, Note_on_c, 0, 55, 0
5, 61440, Note_on_c, 0, 43, 78
5, 61536, Note_on_c, 0, 43, 0
5, 62400, Note_on_c, 0, 55, 78
5, 62496, Note_on_c, 0, 55, 0
5, 62880, Note_on_c, 0, 43, 78
5, 62976, Note_on_c, 0, 43, 0
5, 63840, Note_on_c, 0, 55, 78
5, 63936, Note_on_c, 0, 55, 0
5, 64320, Note_on_c, 0, 43, 78
5, 64416, Note_on_c, 0, 43, 0
5, 65280, Note_on_c, 0, 55, 78
5, 65376, Note_on_c, 0, 55, 0
5, 65760, Note_on_c, 0, 43, 78
5, 65856, Note_on_c, 0, 43, 0
5, 66720, Note_on_c, 0, 55, 78
5, 66816, Note_on_c, 0, 55, 0
5, 67200, Note_on_c, 0, 43, 78
5, 67296, Note_on_c, 0, 43, 0
5, 68160, Note_on_c, 0, 55, 78
5, 68256, Note_on_c, 0, 55, 0
5, 68640, Note_on_c, 0, 43, 78
5, 68736, Note_on_c, 0, 43, 0
5, 69120, Note_on_c, 0, 52, 78
5, 69600, Note_on_c, 0, 52, 0
5, 70080, Note_on_c, 0, 43, 78
5, 70560, Note_on_c, 0, 43, 0
5, 70560, Note_on_c, 0, 52, 78
5, 70560, Note_on_c, 0, 55, 78
5, 71040, Note_on_c, 0, 55, 0
5, 71040, Note_on_c, 0, 52, 0
5, 71040, Note_on_c, 0, 55, 78
5, 71136, Note_on_c, 0, 55, 0
5, 71520, Note_on_c, 0, 43, 78
5, 71616, Note_on_c, 0, 43, 0
5, 72480, Note_on_c, 0, 55, 78
5, 72576, Note_on_c, 0, 55, 0
5, 72960, Note_on_c, 0, 43, 78
5, 73056, Note_on_c, 0, 43, 0
5, 73920, Note_on_c, 0, 55, 78
5, 74016, Note_on_c, 0, 55, 0
5, 74400, Note_on_c, 0, 43, 78
5, 74496, Note_on_c, 0, 43, 0
5, 75360, Note_on_c, 0, 55, 78
5, 75456, Note_on_c, 0, 55, 0
5, 75840, Note_on_c, 0, 43, 78
5, 75936, Note_on_c, 0, 43, 0
5, 76800, Note_on_c, 0, 55, 78
5, 76896, Note_on_c, 0, 55, 0
5, 77280, Note_on_c, 0, 43, 78
5, 77376, Note_on_c, 0, 43, 0
5, 78240, Note_on_c, 0, 55, 78
5, 78336, Note_on_c, 0, 55, 0
5, 78720, Note_on_c, 0, 43, 78
5, 78816, Note_on_c, 0, 43, 0
5, 79680, Note_on_c, 0, 55, 78
5, 79776, Note_on_c, 0, 55, 0
5, 80160, Note_on_c, 0, 43, 78
5, 80256, Note_on_c, 0, 43, 0
5, 80256, End_track
0, 0, End_of_file
