0, 0, Header, 1, 5, 480
1, 0, Start_track
1, 0, Title_t, "tchaikovsky sleeping beauty act0 4 finale"
1, 0, Copyright_t, "Adaptation for Disklavier pianos, by: Robert C. Kuhmann (c) 2012."
1, 0, Text_t, "Seq. (c) by: Segundo G. Yogore,  2006\012"
1, 0, Time_signature, 4, 2, 24, 8
1, 0, Key_signature, 2, "major"
1, 0, Tempo, 750000
1, 13440, Key_signature, 0, "major"
1, 13440, Tempo, 461538
1, 67200, Time_signature, 6, 2, 24, 8
1, 70080, Time_signature, 4, 2, 24, 8
1, 72000, Time_signature, 6, 2, 24, 8
1, 74880, Time_signature, 4, 2, 24, 8
1, 76800, Time_signature, 6, 2, 24, 8
1, 79680, Time_signature, 4, 2, 24, 8
1, 131520, Time_signature, 6, 2, 24, 8
1, 134400, Time_signature, 4, 2, 24, 8
1, 136320, Time_signature, 6, 2, 24, 8
1, 139200, Time_signature, 4, 2, 24, 8
1, 158400, Tempo, 600000
1, 166080, Tempo, 750000
1, 187200, Time_signature, 2, 2, 24, 8
1, 187200, Tempo, 461538
1, 191040, Tempo, 461538
1, 263040, Time_signature, 5, 2, 24, 8
1, 265440, Time_signature, 3, 2, 24, 8
1, 305760, Time_signature, 2, 2, 24, 8
1, 331680, Time_signature, 5, 2, 24, 8
1, 334080, Time_signature, 6, 3, 12, 8
1, 334080, Key_signature, 4, "major"
1, 334080, Tempo, 705882
1, 387360, Time_signature, 10, 3, 12, 8
1, 389760, Time_signature, 6, 3, 12, 8
1, 422880, Time_signature, 8, 2, 24, 8
1, 422880, End_track
2, 0, Start_track
2, 0, Title_t, "Grand Piano"
2, 0, Program_c, 0, 0
2, 0, Control_c, 0, 7, 115
2, 0, Control_c, 0, 10, 86
2, 1920, Note_on_c, 0, 66, 88
2, 2640, Note_on_c, 0, 66, 0
2, 2640, Note_on_c, 0, 64, 88
2, 2880, Note_on_c, 0, 64, 0
2, 2880, Note_on_c, 0, 62, 88
2, 3360, Note_on_c, 0, 62, 0
2, 3360, Note_on_c, 0, 67, 114
2, 3720, Note_on_c, 0, 67, 0
2, 3720, Note_on_c, 0, 66, 88
2, 3840, Note_on_c, 0, 66, 0
2, 3840, Note_on_c, 0, 64, 88
2, 4320, Note_on_c, 0, 64, 0
2, 4320, Note_on_c, 0, 66, 114
2, 4680, Note_on_c, 0, 66, 0
2, 4680, Note_on_c, 0, 64, 88
2, 4800, Note_on_c, 0, 64, 0
2, 4800, Note_on_c, 0, 62, 88
2, 4896, Note_on_c, 0, 62, 0
2, 4896, Note_on_c, 0, 64, 88
2, 4992, Note_on_c, 0, 64, 0
2, 4992, Note_on_c, 0, 62, 88
2, 5087, Note_on_c, 0, 62, 0
2, 5087, Note_on_c, 0, 61, 88
2, 5183, Note_on_c, 0, 61, 0
2, 5183, Note_on_c, 0, 62, 88
2, 5280, Note_on_c, 0, 62, 0
2, 5280, Note_on_c, 0, 62, 88
2, 5280, Note_on_c, 0, 66, 88
2, 5640, Note_on_c, 0, 66, 0
2, 5640, Note_on_c, 0, 62, 0
2, 5640, Note_on_c, 0, 64, 88
2, 5760, Note_on_c, 0, 64, 0
2, 5760, Note_on_c, 0, 62, 75
2, 6720, Note_on_c, 0, 62, 0
2, 6720, Note_on_c, 0, 61, 75
2, 7440, Note_on_c, 0, 61, 0
2, 7440, Note_on_c, 0, 57, 62
2, 7680, Note_on_c, 0, 57, 0
2, 7680, Note_on_c, 0, 66, 62
2, 8319, Note_on_c, 0, 66, 0
2, 8319, Note_on_c, 0, 67, 88
2, 8480, Note_on_c, 0, 67, 0
2, 8480, Note_on_c, 0, 68, 88
2, 8640, Note_on_c, 0, 68, 0
2, 8640, Note_on_c, 0, 69, 75
2, 8799, Note_on_c, 0, 69, 0
2, 8799, Note_on_c, 0, 66, 75
2, 8960, Note_on_c, 0, 66, 0
2, 8960, Note_on_c, 0, 67, 75
2, 9120, Note_on_c, 0, 67, 0
2, 9120, Note_on_c, 0, 68, 75
2, 9151, Note_on_c, 0, 68, 0
2, 9279, Note_on_c, 0, 69, 75
2, 9311, Note_on_c, 0, 69, 0
2, 9440, Note_on_c, 0, 71, 75
2, 9472, Note_on_c, 0, 71, 0
2, 9600, Note_on_c, 0, 78, 75
2, 10320, Note_on_c, 0, 78, 0
2, 10320, Note_on_c, 0, 76, 75
2, 10560, Note_on_c, 0, 76, 0
2, 10560, Note_on_c, 0, 74, 62
2, 11040, Note_on_c, 0, 74, 0
2, 11040, Note_on_c, 0, 73, 88
2, 11400, Note_on_c, 0, 73, 0
2, 11400, Note_on_c, 0, 71, 62
2, 11520, Note_on_c, 0, 71, 0
2, 11520, Note_on_c, 0, 70, 62
2, 11640, Note_on_c, 0, 71, 62
2, 11700, Note_on_c, 0, 71, 0
2, 11700, Note_on_c, 0, 70, 62
2, 11760, Note_on_c, 0, 70, 0
2, 11760, Note_on_c, 0, 70, 0
2, 11760, Note_on_c, 0, 69, 62
2, 11880, Note_on_c, 0, 69, 0
2, 11880, Note_on_c, 0, 70, 62
2, 12000, Note_on_c, 0, 70, 0
2, 12000, Note_on_c, 0, 73, 88
2, 12360, Note_on_c, 0, 73, 0
2, 12360, Note_on_c, 0, 71, 62
2, 12480, Note_on_c, 0, 71, 0
2, 12480, Note_on_c, 0, 70, 62
2, 12576, Note_on_c, 0, 70, 0
2, 12576, Note_on_c, 0, 71, 62
2, 12672, Note_on_c, 0, 71, 0
2, 12672, Note_on_c, 0, 70, 62
2, 12767, Note_on_c, 0, 70, 0
2, 12767, Note_on_c, 0, 69, 62
2, 12863, Note_on_c, 0, 69, 0
2, 12863, Note_on_c, 0, 70, 62
2, 12960, Note_on_c, 0, 70, 0
2, 12960, Note_on_c, 0, 73, 88
2, 13320, Note_on_c, 0, 73, 0
2, 13320, Note_on_c, 0, 71, 62
2, 13440, Note_on_c, 0, 71, 0
2, 13440, Note_on_c, 0, 56, 49
2, 13440, Note_on_c, 0, 65, 49
2, 13440, Note_on_c, 0, 70, 49
2, 16560, Note_on_c, 0, 70, 0
2, 16560, Note_on_c, 0, 65, 0
2, 16560, Note_on_c, 0, 56, 0
2, 16560, Note_on_c, 0, 58, 49
2, 16560, Note_on_c, 0, 65, 49
2, 16560, Note_on_c, 0, 70, 49
2, 17040, Note_on_c, 0, 70, 0
2, 17040, Note_on_c, 0, 65, 0
2, 17040, Note_on_c, 0, 58, 0
2, 17040, Note_on_c, 0, 58, 49
2, 17040, Note_on_c, 0, 65, 49
2, 17040, Note_on_c, 0, 70, 49
2, 17280, Note_on_c, 0, 70, 0
2, 17280, Note_on_c, 0, 65, 0
2, 17280, Note_on_c, 0, 58, 0
2, 17280, Note_on_c, 0, 59, 62
2, 17280, Note_on_c, 0, 66, 62
2, 17280, Note_on_c, 0, 71, 62
2, 20400, Note_on_c, 0, 71, 0
2, 20400, Note_on_c, 0, 66, 0
2, 20400, Note_on_c, 0, 59, 0
2, 20400, Note_on_c, 0, 59, 62
2, 20400, Note_on_c, 0, 66, 62
2, 20400, Note_on_c, 0, 71, 62
2, 20880, Note_on_c, 0, 71, 0
2, 20880, Note_on_c, 0, 66, 0
2, 20880, Note_on_c, 0, 59, 0
2, 20880, Note_on_c, 0, 59, 62
2, 20880, Note_on_c, 0, 66, 62
2, 20880, Note_on_c, 0, 71, 62
2, 21120, Note_on_c, 0, 71, 0
2, 21120, Note_on_c, 0, 66, 0
2, 21120, Note_on_c, 0, 59, 0
2, 21120, Note_on_c, 0, 60, 62
2, 21120, Note_on_c, 0, 67, 62
2, 21120, Note_on_c, 0, 72, 62
2, 22560, Note_on_c, 0, 72, 0
2, 22560, Note_on_c, 0, 67, 0
2, 22560, Note_on_c, 0, 60, 0
2, 22560, Note_on_c, 0, 60, 62
2, 22560, Note_on_c, 0, 67, 62
2, 22560, Note_on_c, 0, 72, 62
2, 22719, Note_on_c, 0, 72, 0
2, 22719, Note_on_c, 0, 67, 0
2, 22719, Note_on_c, 0, 60, 0
2, 22719, Note_on_c, 0, 60, 62
2, 22719, Note_on_c, 0, 67, 62
2, 22719, Note_on_c, 0, 72, 62
2, 22880, Note_on_c, 0, 72, 0
2, 22880, Note_on_c, 0, 67, 0
2, 22880, Note_on_c, 0, 60, 0
2, 22880, Note_on_c, 0, 60, 62
2, 22880, Note_on_c, 0, 67, 62
2, 22880, Note_on_c, 0, 72, 62
2, 23040, Note_on_c, 0, 72, 0
2, 23040, Note_on_c, 0, 67, 0
2, 23040, Note_on_c, 0, 60, 0
2, 23040, Note_on_c, 0, 61, 62
2, 23040, Note_on_c, 0, 68, 62
2, 23040, Note_on_c, 0, 73, 62
2, 24480, Note_on_c, 0, 73, 0
2, 24480, Note_on_c, 0, 68, 0
2, 24480, Note_on_c, 0, 61, 0
2, 24480, Note_on_c, 0, 61, 62
2, 24480, Note_on_c, 0, 68, 62
2, 24480, Note_on_c, 0, 73, 62
2, 24639, Note_on_c, 0, 73, 0
2, 24639, Note_on_c, 0, 68, 0
2, 24639, Note_on_c, 0, 61, 0
2, 24639, Note_on_c, 0, 61, 62
2, 24639, Note_on_c, 0, 68, 62
2, 24639, Note_on_c, 0, 73, 62
2, 24800, Note_on_c, 0, 73, 0
2, 24800, Note_on_c, 0, 68, 0
2, 24800, Note_on_c, 0, 61, 0
2, 24800, Note_on_c, 0, 61, 62
2, 24800, Note_on_c, 0, 68, 62
2, 24800, Note_on_c, 0, 73, 62
2, 24960, Note_on_c, 0, 73, 0
2, 24960, Note_on_c, 0, 68, 0
2, 24960, Note_on_c, 0, 61, 0
2, 24960, Note_on_c, 0, 62, 62
2, 24960, Note_on_c, 0, 69, 62
2, 24960, Note_on_c, 0, 74, 62
2, 25440, Note_on_c, 0, 74, 0
2, 25440, Note_on_c, 0, 69, 0
2, 25440, Note_on_c, 0, 62, 0
2, 25440, Note_on_c, 0, 62, 62
2, 25440, Note_on_c, 0, 69, 62
2, 25440, Note_on_c, 0, 74, 62
2, 25599, Note_on_c, 0, 74, 0
2, 25599, Note_on_c, 0, 69, 0
2, 25599, Note_on_c, 0, 62, 0
2, 25599, Note_on_c, 0, 62, 62
2, 25599, Note_on_c, 0, 69, 62
2, 25599, Note_on_c, 0, 74, 62
2, 25760, Note_on_c, 0, 74, 0
2, 25760, Note_on_c, 0, 69, 0
2, 25760, Note_on_c, 0, 62, 0
2, 25760, Note_on_c, 0, 62, 62
2, 25760, Note_on_c, 0, 69, 62
2, 25760, Note_on_c, 0, 74, 62
2, 25920, Note_on_c, 0, 74, 0
2, 25920, Note_on_c, 0, 69, 0
2, 25920, Note_on_c, 0, 62, 0
2, 25920, Note_on_c, 0, 63, 62
2, 25920, Note_on_c, 0, 70, 62
2, 25920, Note_on_c, 0, 75, 62
2, 26400, Note_on_c, 0, 75, 0
2, 26400, Note_on_c, 0, 70, 0
2, 26400, Note_on_c, 0, 63, 0
2, 26400, Note_on_c, 0, 63, 62
2, 26400, Note_on_c, 0, 70, 62
2, 26400, Note_on_c, 0, 75, 62
2, 26559, Note_on_c, 0, 75, 0
2, 26559, Note_on_c, 0, 70, 0
2, 26559, Note_on_c, 0, 63, 0
2, 26559, Note_on_c, 0, 63, 62
2, 26559, Note_on_c, 0, 70, 62
2, 26559, Note_on_c, 0, 75, 62
2, 26720, Note_on_c, 0, 75, 0
2, 26720, Note_on_c, 0, 70, 0
2, 26720, Note_on_c, 0, 63, 0
2, 26720, Note_on_c, 0, 63, 62
2, 26720, Note_on_c, 0, 70, 62
2, 26720, Note_on_c, 0, 75, 62
2, 26880, Note_on_c, 0, 75, 0
2, 26880, Note_on_c, 0, 70, 0
2, 26880, Note_on_c, 0, 63, 0
2, 26880, Note_on_c, 0, 64, 75
2, 26880, Note_on_c, 0, 71, 75
2, 26880, Note_on_c, 0, 76, 75
2, 27039, Note_on_c, 0, 76, 0
2, 27039, Note_on_c, 0, 71, 0
2, 27039, Note_on_c, 0, 64, 0
2, 27039, Note_on_c, 0, 64, 75
2, 27039, Note_on_c, 0, 71, 75
2, 27039, Note_on_c, 0, 76, 75
2, 27200, Note_on_c, 0, 76, 0
2, 27200, Note_on_c, 0, 71, 0
2, 27200, Note_on_c, 0, 64, 0
2, 27200, Note_on_c, 0, 64, 75
2, 27200, Note_on_c, 0, 71, 75
2, 27200, Note_on_c, 0, 76, 75
2, 27360, Note_on_c, 0, 76, 0
2, 27360, Note_on_c, 0, 71, 0
2, 27360, Note_on_c, 0, 64, 0
2, 27360, Note_on_c, 0, 65, 75
2, 27360, Note_on_c, 0, 72, 75
2, 27360, Note_on_c, 0, 77, 75
2, 27519, Note_on_c, 0, 77, 0
2, 27519, Note_on_c, 0, 72, 0
2, 27519, Note_on_c, 0, 65, 0
2, 27519, Note_on_c, 0, 65, 75
2, 27519, Note_on_c, 0, 72, 75
2, 27519, Note_on_c, 0, 77, 75
2, 27680, Note_on_c, 0, 77, 0
2, 27680, Note_on_c, 0, 72, 0
2, 27680, Note_on_c, 0, 65, 0
2, 27680, Note_on_c, 0, 65, 75
2, 27680, Note_on_c, 0, 72, 75
2, 27680, Note_on_c, 0, 77, 75
2, 27840, Note_on_c, 0, 77, 0
2, 27840, Note_on_c, 0, 72, 0
2, 27840, Note_on_c, 0, 65, 0
2, 27840, Note_on_c, 0, 66, 75
2, 27840, Note_on_c, 0, 73, 75
2, 27840, Note_on_c, 0, 78, 75
2, 27999, Note_on_c, 0, 78, 0
2, 27999, Note_on_c, 0, 73, 0
2, 27999, Note_on_c, 0, 66, 0
2, 27999, Note_on_c, 0, 66, 75
2, 27999, Note_on_c, 0, 73, 75
2, 27999, Note_on_c, 0, 78, 75
2, 28160, Note_on_c, 0, 78, 0
2, 28160, Note_on_c, 0, 73, 0
2, 28160, Note_on_c, 0, 66, 0
2, 28160, Note_on_c, 0, 66, 75
2, 28160, Note_on_c, 0, 73, 75
2, 28160, Note_on_c, 0, 78, 75
2, 28320, Note_on_c, 0, 78, 0
2, 28320, Note_on_c, 0, 73, 0
2, 28320, Note_on_c, 0, 66, 0
2, 28320, Note_on_c, 0, 67, 75
2, 28320, Note_on_c, 0, 74, 75
2, 28320, Note_on_c, 0, 79, 75
2, 28479, Note_on_c, 0, 79, 0
2, 28479, Note_on_c, 0, 74, 0
2, 28479, Note_on_c, 0, 67, 0
2, 28479, Note_on_c, 0, 67, 75
2, 28479, Note_on_c, 0, 74, 75
2, 28479, Note_on_c, 0, 79, 75
2, 28640, Note_on_c, 0, 79, 0
2, 28640, Note_on_c, 0, 74, 0
2, 28640, Note_on_c, 0, 67, 0
2, 28640, Note_on_c, 0, 67, 75
2, 28640, Note_on_c, 0, 74, 75
2, 28640, Note_on_c, 0, 79, 75
2, 28800, Note_on_c, 0, 79, 0
2, 28800, Note_on_c, 0, 74, 0
2, 28800, Note_on_c, 0, 67, 0
2, 28800, Note_on_c, 0, 68, 88
2, 28800, Note_on_c, 0, 72, 88
2, 28800, Note_on_c, 0, 80, 88
2, 29040, Note_on_c, 0, 80, 0
2, 29040, Note_on_c, 0, 72, 0
2, 29040, Note_on_c, 0, 68, 0
2, 29040, Note_on_c, 0, 68, 88
2, 29040, Note_on_c, 0, 75, 88
2, 29040, Note_on_c, 0, 80, 88
2, 29520, Note_on_c, 0, 80, 0
2, 29520, Note_on_c, 0, 75, 0
2, 29520, Note_on_c, 0, 68, 0
2, 29520, Note_on_c, 0, 72, 88
2, 29520, Note_on_c, 0, 75, 88
2, 29520, Note_on_c, 0, 80, 88
2, 29520, Note_on_c, 0, 84, 88
2, 30000, Note_on_c, 0, 84, 0
2, 30000, Note_on_c, 0, 72, 0
2, 30000, Note_on_c, 0, 75, 0
2, 30000, Note_on_c, 0, 80, 0
2, 30000, Note_on_c, 0, 75, 101
2, 30000, Note_on_c, 0, 78, 101
2, 30000, Note_on_c, 0, 84, 101
2, 30000, Note_on_c, 0, 87, 101
2, 30480, Note_on_c, 0, 87, 0
2, 30480, Note_on_c, 0, 75, 0
2, 30480, Note_on_c, 0, 78, 0
2, 30480, Note_on_c, 0, 84, 0
2, 30480, Note_on_c, 0, 78, 101
2, 30480, Note_on_c, 0, 81, 101
2, 30480, Note_on_c, 0, 87, 101
2, 30480, Note_on_c, 0, 90, 101
2, 30720, Note_on_c, 0, 90, 0
2, 30720, Note_on_c, 0, 78, 0
2, 30720, Note_on_c, 0, 81, 0
2, 30720, Note_on_c, 0, 87, 0
2, 30720, Note_on_c, 0, 78, 101
2, 30720, Note_on_c, 0, 81, 101
2, 30720, Note_on_c, 0, 87, 101
2, 30720, Note_on_c, 0, 90, 101
2, 30960, Note_on_c, 0, 90, 0
2, 30960, Note_on_c, 0, 78, 0
2, 30960, Note_on_c, 0, 81, 0
2, 30960, Note_on_c, 0, 87, 0
2, 30960, Note_on_c, 0, 77, 101
2, 30960, Note_on_c, 0, 82, 101
2, 30960, Note_on_c, 0, 86, 101
2, 30960, Note_on_c, 0, 89, 101
2, 31200, Note_on_c, 0, 89, 0
2, 31200, Note_on_c, 0, 77, 0
2, 31200, Note_on_c, 0, 82, 0
2, 31200, Note_on_c, 0, 86, 0
2, 31200, Note_on_c, 0, 70, 101
2, 31800, Note_on_c, 0, 70, 0
2, 31800, Note_on_c, 0, 65, 75
2, 31823, Note_on_c, 0, 65, 0
2, 31920, Note_on_c, 0, 62, 75
2, 31943, Note_on_c, 0, 62, 0
2, 32040, Note_on_c, 0, 58, 75
2, 32063, Note_on_c, 0, 58, 0
2, 32160, Note_on_c, 0, 74, 101
2, 32760, Note_on_c, 0, 74, 0
2, 32760, Note_on_c, 0, 71, 75
2, 32783, Note_on_c, 0, 71, 0
2, 32880, Note_on_c, 0, 65, 75
2, 32903, Note_on_c, 0, 65, 0
2, 33000, Note_on_c, 0, 62, 75
2, 33023, Note_on_c, 0, 62, 0
2, 33120, Note_on_c, 0, 79, 101
2, 33720, Note_on_c, 0, 79, 0
2, 33720, Note_on_c, 0, 74, 75
2, 33743, Note_on_c, 0, 74, 0
2, 33840, Note_on_c, 0, 71, 75
2, 33863, Note_on_c, 0, 71, 0
2, 33960, Note_on_c, 0, 67, 75
2, 33983, Note_on_c, 0, 67, 0
2, 34080, Note_on_c, 0, 66, 75
2, 34200, Note_on_c, 0, 66, 0
2, 34200, Note_on_c, 0, 67, 75
2, 34320, Note_on_c, 0, 67, 0
2, 34320, Note_on_c, 0, 69, 101
2, 34440, Note_on_c, 0, 69, 0
2, 34440, Note_on_c, 0, 71, 101
2, 34560, Note_on_c, 0, 71, 0
2, 34560, Note_on_c, 0, 74, 75
2, 34680, Note_on_c, 0, 74, 0
2, 34680, Note_on_c, 0, 72, 75
2, 34800, Note_on_c, 0, 72, 0
2, 34800, Note_on_c, 0, 67, 75
2, 34823, Note_on_c, 0, 67, 0
2, 34920, Note_on_c, 0, 63, 75
2, 34943, Note_on_c, 0, 63, 0
2, 35040, Note_on_c, 0, 72, 101
2, 35640, Note_on_c, 0, 72, 0
2, 35640, Note_on_c, 0, 67, 75
2, 35663, Note_on_c, 0, 67, 0
2, 35760, Note_on_c, 0, 63, 75
2, 35783, Note_on_c, 0, 63, 0
2, 35880, Note_on_c, 0, 60, 75
2, 35903, Note_on_c, 0, 60, 0
2, 36000, Note_on_c, 0, 76, 101
2, 36600, Note_on_c, 0, 76, 0
2, 36600, Note_on_c, 0, 73, 75
2, 36623, Note_on_c, 0, 73, 0
2, 36720, Note_on_c, 0, 67, 75
2, 36743, Note_on_c, 0, 67, 0
2, 36840, Note_on_c, 0, 64, 75
2, 36863, Note_on_c, 0, 64, 0
2, 36960, Note_on_c, 0, 81, 101
2, 37560, Note_on_c, 0, 81, 0
2, 37560, Note_on_c, 0, 76, 75
2, 37583, Note_on_c, 0, 76, 0
2, 37680, Note_on_c, 0, 73, 75
2, 37703, Note_on_c, 0, 73, 0
2, 37800, Note_on_c, 0, 69, 75
2, 37823, Note_on_c, 0, 69, 0
2, 37920, Note_on_c, 0, 70, 75
2, 38040, Note_on_c, 0, 70, 0
2, 38040, Note_on_c, 0, 71, 75
2, 38160, Note_on_c, 0, 71, 0
2, 38160, Note_on_c, 0, 73, 75
2, 38183, Note_on_c, 0, 73, 0
2, 38280, Note_on_c, 0, 76, 75
2, 38303, Note_on_c, 0, 76, 0
2, 38640, Note_on_c, 0, 77, 75
2, 38640, Note_on_c, 0, 81, 75
2, 38880, Note_on_c, 0, 81, 0
2, 38880, Note_on_c, 0, 77, 0
2, 38880, Note_on_c, 0, 81, 75
2, 38880, Note_on_c, 0, 84, 75
2, 39120, Note_on_c, 0, 84, 0
2, 39120, Note_on_c, 0, 81, 0
2, 39120, Note_on_c, 0, 79, 75
2, 39120, Note_on_c, 0, 82, 75
2, 39360, Note_on_c, 0, 82, 0
2, 39360, Note_on_c, 0, 79, 0
2, 39360, Note_on_c, 0, 77, 75
2, 39360, Note_on_c, 0, 81, 75
2, 39600, Note_on_c, 0, 81, 0
2, 39600, Note_on_c, 0, 77, 0
2, 39600, Note_on_c, 0, 76, 75
2, 39600, Note_on_c, 0, 79, 75
2, 39840, Note_on_c, 0, 79, 0
2, 39840, Note_on_c, 0, 76, 0
2, 39840, Note_on_c, 0, 74, 75
2, 39840, Note_on_c, 0, 77, 75
2, 40080, Note_on_c, 0, 77, 0
2, 40080, Note_on_c, 0, 74, 0
2, 40080, Note_on_c, 0, 73, 75
2, 40080, Note_on_c, 0, 76, 75
2, 40320, Note_on_c, 0, 76, 0
2, 40320, Note_on_c, 0, 73, 0
2, 40320, Note_on_c, 0, 74, 75
2, 40560, Note_on_c, 0, 74, 0
2, 40560, Note_on_c, 0, 77, 75
2, 40560, Note_on_c, 0, 81, 75
2, 40800, Note_on_c, 0, 81, 0
2, 40800, Note_on_c, 0, 77, 0
2, 40800, Note_on_c, 0, 81, 75
2, 40800, Note_on_c, 0, 84, 75
2, 41040, Note_on_c, 0, 84, 0
2, 41040, Note_on_c, 0, 81, 0
2, 41040, Note_on_c, 0, 79, 75
2, 41040, Note_on_c, 0, 82, 75
2, 41280, Note_on_c, 0, 82, 0
2, 41280, Note_on_c, 0, 79, 0
2, 41280, Note_on_c, 0, 77, 75
2, 41280, Note_on_c, 0, 81, 75
2, 41520, Note_on_c, 0, 81, 0
2, 41520, Note_on_c, 0, 77, 0
2, 41520, Note_on_c, 0, 76, 75
2, 41520, Note_on_c, 0, 79, 75
2, 41760, Note_on_c, 0, 79, 0
2, 41760, Note_on_c, 0, 76, 0
2, 41760, Note_on_c, 0, 74, 75
2, 41760, Note_on_c, 0, 77, 75
2, 42000, Note_on_c, 0, 77, 0
2, 42000, Note_on_c, 0, 74, 0
2, 42000, Note_on_c, 0, 73, 75
2, 42000, Note_on_c, 0, 76, 75
2, 42240, Note_on_c, 0, 76, 0
2, 42240, Note_on_c, 0, 73, 0
2, 42240, Note_on_c, 0, 69, 75
2, 42240, Note_on_c, 0, 74, 75
2, 42480, Note_on_c, 0, 74, 0
2, 42480, Note_on_c, 0, 69, 0
2, 42720, Note_on_c, 0, 73, 75
2, 42840, Note_on_c, 0, 73, 0
2, 42840, Note_on_c, 0, 74, 75
2, 42960, Note_on_c, 0, 74, 0
2, 42960, Note_on_c, 0, 77, 75
2, 42983, Note_on_c, 0, 77, 0
2, 43080, Note_on_c, 0, 81, 75
2, 43103, Note_on_c, 0, 81, 0
2, 43200, Note_on_c, 0, 82, 75
2, 43247, Note_on_c, 0, 82, 0
2, 43680, Note_on_c, 0, 71, 75
2, 43800, Note_on_c, 0, 71, 0
2, 43800, Note_on_c, 0, 72, 75
2, 43920, Note_on_c, 0, 72, 0
2, 43920, Note_on_c, 0, 76, 75
2, 43943, Note_on_c, 0, 76, 0
2, 44040, Note_on_c, 0, 79, 75
2, 44063, Note_on_c, 0, 79, 0
2, 44160, Note_on_c, 0, 81, 75
2, 44400, Note_on_c, 0, 81, 0
2, 44640, Note_on_c, 0, 76, 75
2, 44760, Note_on_c, 0, 76, 0
2, 44760, Note_on_c, 0, 77, 75
2, 44880, Note_on_c, 0, 77, 0
2, 44880, Note_on_c, 0, 81, 75
2, 44903, Note_on_c, 0, 81, 0
2, 45000, Note_on_c, 0, 84, 75
2, 45023, Note_on_c, 0, 84, 0
2, 45120, Note_on_c, 0, 86, 75
2, 45167, Note_on_c, 0, 86, 0
2, 45600, Note_on_c, 0, 73, 75
2, 45720, Note_on_c, 0, 73, 0
2, 45720, Note_on_c, 0, 74, 75
2, 45840, Note_on_c, 0, 74, 0
2, 45840, Note_on_c, 0, 78, 75
2, 45863, Note_on_c, 0, 78, 0
2, 45960, Note_on_c, 0, 81, 75
2, 45983, Note_on_c, 0, 81, 0
2, 46080, Note_on_c, 0, 82, 75
2, 46127, Note_on_c, 0, 82, 0
2, 46560, Note_on_c, 0, 67, 114
2, 47160, Note_on_c, 0, 67, 0
2, 47160, Note_on_c, 0, 62, 88
2, 47183, Note_on_c, 0, 62, 0
2, 47280, Note_on_c, 0, 59, 88
2, 47303, Note_on_c, 0, 59, 0
2, 47400, Note_on_c, 0, 55, 88
2, 47423, Note_on_c, 0, 55, 0
2, 47520, Note_on_c, 0, 71, 114
2, 48120, Note_on_c, 0, 71, 0
2, 48120, Note_on_c, 0, 68, 88
2, 48143, Note_on_c, 0, 68, 0
2, 48240, Note_on_c, 0, 62, 88
2, 48263, Note_on_c, 0, 62, 0
2, 48360, Note_on_c, 0, 59, 88
2, 48383, Note_on_c, 0, 59, 0
2, 48480, Note_on_c, 0, 76, 114
2, 49080, Note_on_c, 0, 76, 0
2, 49080, Note_on_c, 0, 71, 88
2, 49103, Note_on_c, 0, 71, 0
2, 49200, Note_on_c, 0, 68, 88
2, 49223, Note_on_c, 0, 68, 0
2, 49320, Note_on_c, 0, 64, 88
2, 49343, Note_on_c, 0, 64, 0
2, 49440, Note_on_c, 0, 63, 88
2, 49560, Note_on_c, 0, 63, 0
2, 49560, Note_on_c, 0, 64, 88
2, 49583, Note_on_c, 0, 64, 0
2, 49680, Note_on_c, 0, 66, 88
2, 49703, Note_on_c, 0, 66, 0
2, 49800, Note_on_c, 0, 68, 88
2, 49823, Note_on_c, 0, 68, 0
2, 49920, Note_on_c, 0, 71, 88
2, 50040, Note_on_c, 0, 71, 0
2, 50040, Note_on_c, 0, 69, 88
2, 50160, Note_on_c, 0, 69, 0
2, 50160, Note_on_c, 0, 64, 88
2, 50183, Note_on_c, 0, 64, 0
2, 50280, Note_on_c, 0, 60, 88
2, 50303, Note_on_c, 0, 60, 0
2, 50400, Note_on_c, 0, 69, 114
2, 51000, Note_on_c, 0, 69, 0
2, 51000, Note_on_c, 0, 64, 88
2, 51120, Note_on_c, 0, 64, 0
2, 51120, Note_on_c, 0, 60, 88
2, 51143, Note_on_c, 0, 60, 0
2, 51240, Note_on_c, 0, 57, 88
2, 51263, Note_on_c, 0, 57, 0
2, 51360, Note_on_c, 0, 73, 114
2, 51960, Note_on_c, 0, 73, 0
2, 51960, Note_on_c, 0, 70, 88
2, 51983, Note_on_c, 0, 70, 0
2, 52080, Note_on_c, 0, 64, 88
2, 52103, Note_on_c, 0, 64, 0
2, 52200, Note_on_c, 0, 61, 88
2, 52223, Note_on_c, 0, 61, 0
2, 52320, Note_on_c, 0, 78, 114
2, 52920, Note_on_c, 0, 78, 0
2, 52920, Note_on_c, 0, 73, 88
2, 52943, Note_on_c, 0, 73, 0
2, 53040, Note_on_c, 0, 70, 88
2, 53063, Note_on_c, 0, 70, 0
2, 53160, Note_on_c, 0, 66, 88
2, 53183, Note_on_c, 0, 66, 0
2, 53280, Note_on_c, 0, 68, 88
2, 53303, Note_on_c, 0, 68, 0
2, 53400, Note_on_c, 0, 69, 88
2, 53423, Note_on_c, 0, 69, 0
2, 53520, Note_on_c, 0, 70, 88
2, 53543, Note_on_c, 0, 70, 0
2, 53640, Note_on_c, 0, 73, 88
2, 53663, Note_on_c, 0, 73, 0
2, 54000, Note_on_c, 0, 74, 88
2, 54000, Note_on_c, 0, 78, 88
2, 54240, Note_on_c, 0, 78, 0
2, 54240, Note_on_c, 0, 74, 0
2, 54240, Note_on_c, 0, 78, 88
2, 54240, Note_on_c, 0, 81, 88
2, 54480, Note_on_c, 0, 81, 0
2, 54480, Note_on_c, 0, 78, 0
2, 54480, Note_on_c, 0, 76, 88
2, 54480, Note_on_c, 0, 79, 88
2, 54720, Note_on_c, 0, 79, 0
2, 54720, Note_on_c, 0, 76, 0
2, 54720, Note_on_c, 0, 74, 88
2, 54720, Note_on_c, 0, 78, 88
2, 54960, Note_on_c, 0, 78, 0
2, 54960, Note_on_c, 0, 74, 0
2, 54960, Note_on_c, 0, 73, 88
2, 54960, Note_on_c, 0, 76, 88
2, 55200, Note_on_c, 0, 76, 0
2, 55200, Note_on_c, 0, 73, 0
2, 55200, Note_on_c, 0, 71, 88
2, 55200, Note_on_c, 0, 74, 88
2, 55440, Note_on_c, 0, 74, 0
2, 55440, Note_on_c, 0, 71, 0
2, 55440, Note_on_c, 0, 70, 88
2, 55440, Note_on_c, 0, 73, 88
2, 55680, Note_on_c, 0, 73, 0
2, 55680, Note_on_c, 0, 70, 0
2, 55680, Note_on_c, 0, 71, 88
2, 55920, Note_on_c, 0, 71, 0
2, 55920, Note_on_c, 0, 74, 88
2, 55920, Note_on_c, 0, 78, 88
2, 56160, Note_on_c, 0, 78, 0
2, 56160, Note_on_c, 0, 74, 0
2, 56160, Note_on_c, 0, 78, 88
2, 56160, Note_on_c, 0, 81, 88
2, 56400, Note_on_c, 0, 81, 0
2, 56400, Note_on_c, 0, 78, 0
2, 56400, Note_on_c, 0, 76, 88
2, 56400, Note_on_c, 0, 79, 88
2, 56640, Note_on_c, 0, 79, 0
2, 56640, Note_on_c, 0, 76, 0
2, 56640, Note_on_c, 0, 74, 88
2, 56640, Note_on_c, 0, 78, 88
2, 56880, Note_on_c, 0, 78, 0
2, 56880, Note_on_c, 0, 74, 0
2, 56880, Note_on_c, 0, 73, 88
2, 56880, Note_on_c, 0, 76, 88
2, 57120, Note_on_c, 0, 76, 0
2, 57120, Note_on_c, 0, 73, 0
2, 57120, Note_on_c, 0, 71, 88
2, 57120, Note_on_c, 0, 74, 88
2, 57360, Note_on_c, 0, 74, 0
2, 57360, Note_on_c, 0, 71, 0
2, 57360, Note_on_c, 0, 70, 88
2, 57360, Note_on_c, 0, 73, 88
2, 57600, Note_on_c, 0, 73, 0
2, 57600, Note_on_c, 0, 70, 0
2, 57600, Note_on_c, 0, 66, 88
2, 57600, Note_on_c, 0, 71, 88
2, 57840, Note_on_c, 0, 71, 0
2, 57840, Note_on_c, 0, 66, 0
2, 58080, Note_on_c, 0, 70, 88
2, 58200, Note_on_c, 0, 70, 0
2, 58200, Note_on_c, 0, 71, 88
2, 58320, Note_on_c, 0, 71, 0
2, 58320, Note_on_c, 0, 74, 88
2, 58343, Note_on_c, 0, 74, 0
2, 58440, Note_on_c, 0, 78, 88
2, 58463, Note_on_c, 0, 78, 0
2, 58560, Note_on_c, 0, 79, 88
2, 58800, Note_on_c, 0, 79, 0
2, 59040, Note_on_c, 0, 68, 88
2, 59160, Note_on_c, 0, 68, 0
2, 59160, Note_on_c, 0, 69, 88
2, 59280, Note_on_c, 0, 69, 0
2, 59280, Note_on_c, 0, 73, 88
2, 59303, Note_on_c, 0, 73, 0
2, 59400, Note_on_c, 0, 76, 88
2, 59423, Note_on_c, 0, 76, 0
2, 59520, Note_on_c, 0, 78, 88
2, 59760, Note_on_c, 0, 78, 0
2, 60000, Note_on_c, 0, 73, 88
2, 60120, Note_on_c, 0, 73, 0
2, 60120, Note_on_c, 0, 74, 88
2, 60240, Note_on_c, 0, 74, 0
2, 60240, Note_on_c, 0, 78, 88
2, 60263, Note_on_c, 0, 78, 0
2, 60360, Note_on_c, 0, 81, 88
2, 60383, Note_on_c, 0, 81, 0
2, 60480, Note_on_c, 0, 83, 88
2, 60720, Note_on_c, 0, 83, 0
2, 60960, Note_on_c, 0, 70, 88
2, 61080, Note_on_c, 0, 70, 0
2, 61080, Note_on_c, 0, 71, 88
2, 61200, Note_on_c, 0, 71, 0
2, 61200, Note_on_c, 0, 75, 88
2, 61223, Note_on_c, 0, 75, 0
2, 61320, Note_on_c, 0, 78, 88
2, 61343, Note_on_c, 0, 78, 0
2, 61440, Note_on_c, 0, 79, 88
2, 61680, Note_on_c, 0, 79, 0
2, 61800, Note_on_c, 0, 71, 88
2, 61823, Note_on_c, 0, 71, 0
2, 61920, Note_on_c, 0, 73, 88
2, 62040, Note_on_c, 0, 73, 0
2, 62040, Note_on_c, 0, 75, 88
2, 62160, Note_on_c, 0, 75, 0
2, 62160, Note_on_c, 0, 76, 88
2, 62183, Note_on_c, 0, 76, 0
2, 62280, Note_on_c, 0, 78, 88
2, 62303, Note_on_c, 0, 78, 0
2, 62400, Note_on_c, 0, 79, 88
2, 62640, Note_on_c, 0, 79, 0
2, 62760, Note_on_c, 0, 71, 88
2, 62783, Note_on_c, 0, 71, 0
2, 62880, Note_on_c, 0, 73, 88
2, 63000, Note_on_c, 0, 73, 0
2, 63000, Note_on_c, 0, 75, 88
2, 63120, Note_on_c, 0, 75, 0
2, 63120, Note_on_c, 0, 76, 88
2, 63143, Note_on_c, 0, 76, 0
2, 63240, Note_on_c, 0, 78, 88
2, 63263, Note_on_c, 0, 78, 0
2, 63360, Note_on_c, 0, 79, 49
2, 63480, Note_on_c, 0, 79, 0
2, 63480, Note_on_c, 0, 75, 49
2, 63600, Note_on_c, 0, 75, 0
2, 63600, Note_on_c, 0, 76, 49
2, 63720, Note_on_c, 0, 76, 0
2, 63720, Note_on_c, 0, 78, 49
2, 63840, Note_on_c, 0, 78, 0
2, 63840, Note_on_c, 0, 79, 62
2, 63960, Note_on_c, 0, 79, 0
2, 63960, Note_on_c, 0, 75, 62
2, 64080, Note_on_c, 0, 75, 0
2, 64080, Note_on_c, 0, 76, 62
2, 64200, Note_on_c, 0, 76, 0
2, 64200, Note_on_c, 0, 78, 62
2, 64320, Note_on_c, 0, 78, 0
2, 64320, Note_on_c, 0, 79, 75
2, 64440, Note_on_c, 0, 79, 0
2, 64440, Note_on_c, 0, 75, 75
2, 64560, Note_on_c, 0, 75, 0
2, 64560, Note_on_c, 0, 76, 75
2, 64680, Note_on_c, 0, 76, 0
2, 64680, Note_on_c, 0, 78, 75
2, 64800, Note_on_c, 0, 78, 0
2, 64800, Note_on_c, 0, 79, 88
2, 64920, Note_on_c, 0, 79, 0
2, 64920, Note_on_c, 0, 75, 88
2, 65040, Note_on_c, 0, 75, 0
2, 65040, Note_on_c, 0, 76, 88
2, 65160, Note_on_c, 0, 76, 0
2, 65160, Note_on_c, 0, 78, 88
2, 65280, Note_on_c, 0, 78, 0
2, 65280, Note_on_c, 0, 79, 101
2, 65400, Note_on_c, 0, 79, 0
2, 65400, Note_on_c, 0, 76, 101
2, 65520, Note_on_c, 0, 76, 0
2, 65520, Note_on_c, 0, 76, 101
2, 65640, Note_on_c, 0, 76, 0
2, 65640, Note_on_c, 0, 85, 101
2, 65760, Note_on_c, 0, 85, 0
2, 65760, Note_on_c, 0, 85, 101
2, 65880, Note_on_c, 0, 85, 0
2, 65880, Note_on_c, 0, 79, 101
2, 66000, Note_on_c, 0, 79, 0
2, 66000, Note_on_c, 0, 79, 101
2, 66120, Note_on_c, 0, 79, 0
2, 66120, Note_on_c, 0, 88, 101
2, 66240, Note_on_c, 0, 88, 0
2, 66240, Note_on_c, 0, 88, 101
2, 66360, Note_on_c, 0, 88, 0
2, 66360, Note_on_c, 0, 85, 101
2, 66480, Note_on_c, 0, 85, 0
2, 66480, Note_on_c, 0, 85, 101
2, 66600, Note_on_c, 0, 85, 0
2, 66600, Note_on_c, 0, 91, 101
2, 66720, Note_on_c, 0, 91, 0
2, 66720, Note_on_c, 0, 91, 101
2, 66840, Note_on_c, 0, 91, 0
2, 66840, Note_on_c, 0, 88, 101
2, 66960, Note_on_c, 0, 88, 0
2, 66960, Note_on_c, 0, 88, 101
2, 67080, Note_on_c, 0, 88, 0
2, 67080, Note_on_c, 0, 91, 101
2, 67200, Note_on_c, 0, 91, 0
2, 67200, Note_on_c, 0, 91, 101
2, 67320, Note_on_c, 0, 91, 0
2, 67320, Note_on_c, 0, 88, 101
2, 67440, Note_on_c, 0, 88, 0
2, 67440, Note_on_c, 0, 88, 101
2, 67560, Note_on_c, 0, 88, 0
2, 67560, Note_on_c, 0, 91, 101
2, 67680, Note_on_c, 0, 91, 0
2, 67680, Note_on_c, 0, 91, 101
2, 67800, Note_on_c, 0, 91, 0
2, 67800, Note_on_c, 0, 88, 101
2, 67920, Note_on_c, 0, 88, 0
2, 67920, Note_on_c, 0, 88, 101
2, 68040, Note_on_c, 0, 88, 0
2, 68040, Note_on_c, 0, 91, 101
2, 68160, Note_on_c, 0, 91, 0
2, 68160, Note_on_c, 0, 91, 101
2, 68280, Note_on_c, 0, 91, 0
2, 68280, Note_on_c, 0, 88, 101
2, 68400, Note_on_c, 0, 88, 0
2, 68400, Note_on_c, 0, 88, 101
2, 68520, Note_on_c, 0, 88, 0
2, 68520, Note_on_c, 0, 91, 101
2, 68640, Note_on_c, 0, 91, 0
2, 68640, Note_on_c, 0, 79, 127
2, 68640, Note_on_c, 0, 91, 127
2, 69120, Note_on_c, 0, 91, 0
2, 69120, Note_on_c, 0, 79, 0
2, 70080, Note_on_c, 0, 55, 127
2, 70560, Note_on_c, 0, 55, 0
2, 70560, Note_on_c, 0, 56, 127
2, 71040, Note_on_c, 0, 56, 0
2, 71040, Note_on_c, 0, 57, 127
2, 71160, Note_on_c, 0, 57, 0
2, 71160, Note_on_c, 0, 58, 101
2, 71280, Note_on_c, 0, 58, 0
2, 71280, Note_on_c, 0, 59, 101
2, 71400, Note_on_c, 0, 59, 0
2, 71400, Note_on_c, 0, 58, 101
2, 71520, Note_on_c, 0, 58, 0
2, 71520, Note_on_c, 0, 58, 101
2, 71700, Note_on_c, 0, 63, 101
2, 71760, Note_on_c, 0, 63, 0
2, 71760, Note_on_c, 0, 58, 0
2, 71760, Note_on_c, 0, 57, 101
2, 71760, Note_on_c, 0, 64, 101
2, 72000, Note_on_c, 0, 64, 0
2, 72000, Note_on_c, 0, 57, 0
2, 72000, Note_on_c, 0, 58, 101
2, 72180, Note_on_c, 0, 63, 101
2, 72240, Note_on_c, 0, 63, 0
2, 72240, Note_on_c, 0, 58, 0
2, 72240, Note_on_c, 0, 57, 101
2, 72240, Note_on_c, 0, 64, 101
2, 72480, Note_on_c, 0, 64, 0
2, 72480, Note_on_c, 0, 57, 0
2, 72480, Note_on_c, 0, 58, 101
2, 72660, Note_on_c, 0, 63, 101
2, 72720, Note_on_c, 0, 63, 0
2, 72720, Note_on_c, 0, 58, 0
2, 72720, Note_on_c, 0, 57, 101
2, 72720, Note_on_c, 0, 64, 101
2, 72960, Note_on_c, 0, 64, 0
2, 72960, Note_on_c, 0, 57, 0
2, 72960, Note_on_c, 0, 58, 101
2, 73140, Note_on_c, 0, 63, 101
2, 73200, Note_on_c, 0, 63, 0
2, 73200, Note_on_c, 0, 58, 0
2, 73200, Note_on_c, 0, 57, 101
2, 73200, Note_on_c, 0, 64, 101
2, 73440, Note_on_c, 0, 64, 0
2, 73440, Note_on_c, 0, 57, 0
2, 73440, Note_on_c, 0, 58, 101
2, 73680, Note_on_c, 0, 58, 0
2, 74880, Note_on_c, 0, 58, 127
2, 75360, Note_on_c, 0, 58, 0
2, 75360, Note_on_c, 0, 59, 127
2, 75840, Note_on_c, 0, 59, 0
2, 75840, Note_on_c, 0, 60, 127
2, 75960, Note_on_c, 0, 60, 0
2, 75960, Note_on_c, 0, 61, 101
2, 76080, Note_on_c, 0, 61, 0
2, 76080, Note_on_c, 0, 62, 101
2, 76200, Note_on_c, 0, 62, 0
2, 76200, Note_on_c, 0, 61, 101
2, 76320, Note_on_c, 0, 61, 0
2, 76320, Note_on_c, 0, 61, 101
2, 76500, Note_on_c, 0, 64, 101
2, 76560, Note_on_c, 0, 64, 0
2, 76560, Note_on_c, 0, 61, 0
2, 76560, Note_on_c, 0, 60, 101
2, 76560, Note_on_c, 0, 67, 101
2, 76800, Note_on_c, 0, 67, 0
2, 76800, Note_on_c, 0, 60, 0
2, 76800, Note_on_c, 0, 61, 101
2, 76980, Note_on_c, 0, 64, 101
2, 77040, Note_on_c, 0, 64, 0
2, 77040, Note_on_c, 0, 61, 0
2, 77040, Note_on_c, 0, 60, 101
2, 77040, Note_on_c, 0, 67, 101
2, 77280, Note_on_c, 0, 67, 0
2, 77280, Note_on_c, 0, 60, 0
2, 77280, Note_on_c, 0, 61, 101
2, 77460, Note_on_c, 0, 64, 101
2, 77520, Note_on_c, 0, 64, 0
2, 77520, Note_on_c, 0, 61, 0
2, 77520, Note_on_c, 0, 60, 101
2, 77520, Note_on_c, 0, 67, 101
2, 77760, Note_on_c, 0, 67, 0
2, 77760, Note_on_c, 0, 60, 0
2, 77760, Note_on_c, 0, 61, 101
2, 77940, Note_on_c, 0, 64, 101
2, 78000, Note_on_c, 0, 64, 0
2, 78000, Note_on_c, 0, 61, 0
2, 78000, Note_on_c, 0, 60, 101
2, 78000, Note_on_c, 0, 67, 101
2, 78240, Note_on_c, 0, 67, 0
2, 78240, Note_on_c, 0, 60, 0
2, 78240, Note_on_c, 0, 61, 101
2, 78480, Note_on_c, 0, 61, 0
2, 79920, Note_on_c, 0, 70, 101
2, 80160, Note_on_c, 0, 70, 0
2, 80160, Note_on_c, 0, 64, 101
2, 80160, Note_on_c, 0, 69, 101
2, 80240, Note_on_c, 0, 69, 0
2, 80240, Note_on_c, 0, 64, 0
2, 80240, Note_on_c, 0, 67, 101
2, 80319, Note_on_c, 0, 67, 0
2, 80319, Note_on_c, 0, 66, 101
2, 80400, Note_on_c, 0, 66, 0
2, 80400, Note_on_c, 0, 64, 101
2, 80520, Note_on_c, 0, 64, 0
2, 80880, Note_on_c, 0, 62, 127
2, 81000, Note_on_c, 0, 62, 0
2, 81000, Note_on_c, 0, 61, 127
2, 81120, Note_on_c, 0, 61, 0
2, 81120, Note_on_c, 0, 55, 101
2, 81120, Note_on_c, 0, 59, 101
2, 81360, Note_on_c, 0, 59, 0
2, 81360, Note_on_c, 0, 58, 101
2, 81480, Note_on_c, 0, 58, 0
2, 81480, Note_on_c, 0, 55, 0
2, 81840, Note_on_c, 0, 70, 101
2, 82080, Note_on_c, 0, 70, 0
2, 82080, Note_on_c, 0, 64, 101
2, 82080, Note_on_c, 0, 69, 101
2, 82160, Note_on_c, 0, 69, 0
2, 82160, Note_on_c, 0, 64, 0
2, 82160, Note_on_c, 0, 67, 101
2, 82239, Note_on_c, 0, 67, 0
2, 82239, Note_on_c, 0, 66, 101
2, 82320, Note_on_c, 0, 66, 0
2, 82320, Note_on_c, 0, 64, 101
2, 82440, Note_on_c, 0, 64, 0
2, 82800, Note_on_c, 0, 62, 127
2, 82920, Note_on_c, 0, 62, 0
2, 82920, Note_on_c, 0, 61, 127
2, 83040, Note_on_c, 0, 61, 0
2, 83040, Note_on_c, 0, 55, 101
2, 83040, Note_on_c, 0, 59, 101
2, 83280, Note_on_c, 0, 59, 0
2, 83280, Note_on_c, 0, 58, 101
2, 83400, Note_on_c, 0, 58, 0
2, 83400, Note_on_c, 0, 55, 0
2, 83760, Note_on_c, 0, 70, 101
2, 84000, Note_on_c, 0, 70, 0
2, 84000, Note_on_c, 0, 64, 101
2, 84000, Note_on_c, 0, 69, 101
2, 84080, Note_on_c, 0, 69, 0
2, 84080, Note_on_c, 0, 64, 0
2, 84080, Note_on_c, 0, 67, 101
2, 84159, Note_on_c, 0, 67, 0
2, 84159, Note_on_c, 0, 66, 101
2, 84240, Note_on_c, 0, 66, 0
2, 84240, Note_on_c, 0, 64, 101
2, 84360, Note_on_c, 0, 64, 0
2, 84720, Note_on_c, 0, 70, 101
2, 84960, Note_on_c, 0, 70, 0
2, 84960, Note_on_c, 0, 64, 101
2, 84960, Note_on_c, 0, 69, 101
2, 85040, Note_on_c, 0, 69, 0
2, 85040, Note_on_c, 0, 64, 0
2, 85040, Note_on_c, 0, 67, 101
2, 85119, Note_on_c, 0, 67, 0
2, 85119, Note_on_c, 0, 66, 101
2, 85200, Note_on_c, 0, 66, 0
2, 85200, Note_on_c, 0, 64, 101
2, 85320, Note_on_c, 0, 64, 0
2, 85680, Note_on_c, 0, 70, 101
2, 85920, Note_on_c, 0, 70, 0
2, 85920, Note_on_c, 0, 64, 101
2, 85920, Note_on_c, 0, 69, 101
2, 86000, Note_on_c, 0, 69, 0
2, 86000, Note_on_c, 0, 64, 0
2, 86000, Note_on_c, 0, 67, 101
2, 86079, Note_on_c, 0, 67, 0
2, 86079, Note_on_c, 0, 66, 101
2, 86160, Note_on_c, 0, 66, 0
2, 86160, Note_on_c, 0, 64, 101
2, 86280, Note_on_c, 0, 64, 0
2, 86400, Note_on_c, 0, 73, 101
2, 86480, Note_on_c, 0, 73, 0
2, 86480, Note_on_c, 0, 72, 101
2, 86559, Note_on_c, 0, 72, 0
2, 86559, Note_on_c, 0, 71, 101
2, 86640, Note_on_c, 0, 71, 0
2, 86640, Note_on_c, 0, 70, 101
2, 86760, Note_on_c, 0, 70, 0
2, 86880, Note_on_c, 0, 76, 101
2, 86960, Note_on_c, 0, 76, 0
2, 86960, Note_on_c, 0, 75, 101
2, 87039, Note_on_c, 0, 75, 0
2, 87039, Note_on_c, 0, 74, 101
2, 87120, Note_on_c, 0, 74, 0
2, 87120, Note_on_c, 0, 73, 101
2, 87240, Note_on_c, 0, 73, 0
2, 87360, Note_on_c, 0, 79, 101
2, 87440, Note_on_c, 0, 79, 0
2, 87440, Note_on_c, 0, 78, 101
2, 87519, Note_on_c, 0, 78, 0
2, 87519, Note_on_c, 0, 77, 101
2, 87600, Note_on_c, 0, 77, 0
2, 87600, Note_on_c, 0, 76, 101
2, 87720, Note_on_c, 0, 76, 0
2, 87840, Note_on_c, 0, 76, 101
2, 87840, Note_on_c, 0, 81, 101
2, 87999, Note_on_c, 0, 81, 0
2, 87999, Note_on_c, 0, 76, 0
2, 87999, Note_on_c, 0, 79, 101
2, 87999, Note_on_c, 0, 82, 101
2, 88160, Note_on_c, 0, 82, 0
2, 88160, Note_on_c, 0, 79, 0
2, 88160, Note_on_c, 0, 76, 101
2, 88160, Note_on_c, 0, 81, 101
2, 88320, Note_on_c, 0, 81, 0
2, 88320, Note_on_c, 0, 76, 0
2, 88320, Note_on_c, 0, 79, 101
2, 88320, Note_on_c, 0, 82, 101
2, 88479, Note_on_c, 0, 82, 0
2, 88479, Note_on_c, 0, 79, 0
2, 88479, Note_on_c, 0, 76, 101
2, 88479, Note_on_c, 0, 81, 101
2, 88640, Note_on_c, 0, 81, 0
2, 88640, Note_on_c, 0, 76, 0
2, 88640, Note_on_c, 0, 79, 101
2, 88640, Note_on_c, 0, 82, 101
2, 88800, Note_on_c, 0, 82, 0
2, 88800, Note_on_c, 0, 79, 0
2, 88800, Note_on_c, 0, 76, 101
2, 88800, Note_on_c, 0, 81, 101
2, 88959, Note_on_c, 0, 81, 0
2, 88959, Note_on_c, 0, 76, 0
2, 88959, Note_on_c, 0, 79, 101
2, 88959, Note_on_c, 0, 82, 101
2, 89120, Note_on_c, 0, 82, 0
2, 89120, Note_on_c, 0, 79, 0
2, 89120, Note_on_c, 0, 76, 101
2, 89120, Note_on_c, 0, 81, 101
2, 89280, Note_on_c, 0, 81, 0
2, 89280, Note_on_c, 0, 76, 0
2, 89280, Note_on_c, 0, 79, 101
2, 89280, Note_on_c, 0, 82, 101
2, 89520, Note_on_c, 0, 82, 0
2, 89520, Note_on_c, 0, 79, 0
2, 89760, Note_on_c, 0, 64, 101
2, 89760, Note_on_c, 0, 69, 101
2, 89919, Note_on_c, 0, 69, 0
2, 89919, Note_on_c, 0, 64, 0
2, 89919, Note_on_c, 0, 67, 101
2, 89919, Note_on_c, 0, 70, 101
2, 90080, Note_on_c, 0, 70, 0
2, 90080, Note_on_c, 0, 67, 0
2, 90080, Note_on_c, 0, 64, 101
2, 90080, Note_on_c, 0, 69, 101
2, 90240, Note_on_c, 0, 69, 0
2, 90240, Note_on_c, 0, 64, 0
2, 90240, Note_on_c, 0, 67, 101
2, 90240, Note_on_c, 0, 70, 101
2, 90399, Note_on_c, 0, 70, 0
2, 90399, Note_on_c, 0, 67, 0
2, 90399, Note_on_c, 0, 64, 101
2, 90399, Note_on_c, 0, 69, 101
2, 90560, Note_on_c, 0, 69, 0
2, 90560, Note_on_c, 0, 64, 0
2, 90560, Note_on_c, 0, 67, 101
2, 90560, Note_on_c, 0, 70, 101
2, 90720, Note_on_c, 0, 70, 0
2, 90720, Note_on_c, 0, 67, 0
2, 90720, Note_on_c, 0, 64, 101
2, 90720, Note_on_c, 0, 69, 101
2, 90879, Note_on_c, 0, 69, 0
2, 90879, Note_on_c, 0, 64, 0
2, 90879, Note_on_c, 0, 67, 101
2, 90879, Note_on_c, 0, 70, 101
2, 91040, Note_on_c, 0, 70, 0
2, 91040, Note_on_c, 0, 67, 0
2, 91040, Note_on_c, 0, 64, 101
2, 91040, Note_on_c, 0, 69, 101
2, 91200, Note_on_c, 0, 69, 0
2, 91200, Note_on_c, 0, 64, 0
2, 91200, Note_on_c, 0, 67, 101
2, 91200, Note_on_c, 0, 70, 101
2, 91440, Note_on_c, 0, 70, 0
2, 91440, Note_on_c, 0, 67, 0
2, 91680, Note_on_c, 0, 52, 101
2, 91680, Note_on_c, 0, 57, 101
2, 91839, Note_on_c, 0, 57, 0
2, 91839, Note_on_c, 0, 52, 0
2, 91839, Note_on_c, 0, 55, 101
2, 91839, Note_on_c, 0, 58, 101
2, 92000, Note_on_c, 0, 58, 0
2, 92000, Note_on_c, 0, 55, 0
2, 92000, Note_on_c, 0, 52, 101
2, 92000, Note_on_c, 0, 57, 101
2, 92160, Note_on_c, 0, 57, 0
2, 92160, Note_on_c, 0, 52, 0
2, 92160, Note_on_c, 0, 55, 101
2, 92160, Note_on_c, 0, 58, 101
2, 92319, Note_on_c, 0, 58, 0
2, 92319, Note_on_c, 0, 55, 0
2, 92319, Note_on_c, 0, 52, 101
2, 92319, Note_on_c, 0, 57, 101
2, 92480, Note_on_c, 0, 57, 0
2, 92480, Note_on_c, 0, 52, 0
2, 92480, Note_on_c, 0, 55, 101
2, 92480, Note_on_c, 0, 58, 101
2, 92640, Note_on_c, 0, 58, 0
2, 92640, Note_on_c, 0, 55, 0
2, 92640, Note_on_c, 0, 52, 101
2, 92640, Note_on_c, 0, 57, 101
2, 92799, Note_on_c, 0, 57, 0
2, 92799, Note_on_c, 0, 52, 0
2, 92799, Note_on_c, 0, 55, 101
2, 92799, Note_on_c, 0, 58, 101
2, 92960, Note_on_c, 0, 58, 0
2, 92960, Note_on_c, 0, 55, 0
2, 92960, Note_on_c, 0, 52, 101
2, 92960, Note_on_c, 0, 57, 101
2, 93120, Note_on_c, 0, 57, 0
2, 93120, Note_on_c, 0, 52, 0
2, 93120, Note_on_c, 0, 52, 101
2, 93120, Note_on_c, 0, 57, 101
2, 93360, Note_on_c, 0, 57, 0
2, 93360, Note_on_c, 0, 52, 0
2, 93600, Note_on_c, 0, 58, 75
2, 93600, Note_on_c, 0, 70, 75
2, 93840, Note_on_c, 0, 70, 0
2, 93840, Note_on_c, 0, 58, 0
2, 93840, Note_on_c, 0, 59, 75
2, 93840, Note_on_c, 0, 71, 75
2, 94080, Note_on_c, 0, 71, 0
2, 94080, Note_on_c, 0, 59, 0
2, 94080, Note_on_c, 0, 61, 75
2, 94080, Note_on_c, 0, 73, 75
2, 94560, Note_on_c, 0, 73, 0
2, 94560, Note_on_c, 0, 61, 0
2, 94560, Note_on_c, 0, 67, 88
2, 94560, Note_on_c, 0, 79, 88
2, 94800, Note_on_c, 0, 79, 0
2, 94800, Note_on_c, 0, 67, 0
2, 94800, Note_on_c, 0, 66, 88
2, 94800, Note_on_c, 0, 78, 88
2, 95040, Note_on_c, 0, 78, 0
2, 95040, Note_on_c, 0, 66, 0
2, 95040, Note_on_c, 0, 64, 88
2, 95040, Note_on_c, 0, 76, 88
2, 95520, Note_on_c, 0, 76, 0
2, 95520, Note_on_c, 0, 64, 0
2, 95520, Note_on_c, 0, 62, 88
2, 95520, Note_on_c, 0, 74, 88
2, 95760, Note_on_c, 0, 74, 0
2, 95760, Note_on_c, 0, 62, 0
2, 95760, Note_on_c, 0, 60, 88
2, 95760, Note_on_c, 0, 72, 88
2, 96000, Note_on_c, 0, 72, 0
2, 96000, Note_on_c, 0, 60, 0
2, 96000, Note_on_c, 0, 59, 88
2, 96000, Note_on_c, 0, 71, 88
2, 96240, Note_on_c, 0, 71, 0
2, 96240, Note_on_c, 0, 59, 0
2, 96240, Note_on_c, 0, 58, 88
2, 96240, Note_on_c, 0, 70, 88
2, 96480, Note_on_c, 0, 70, 0
2, 96480, Note_on_c, 0, 58, 0
2, 96480, Note_on_c, 0, 69, 101
2, 96480, Note_on_c, 0, 73, 101
2, 96480, Note_on_c, 0, 79, 101
2, 96480, Note_on_c, 0, 81, 101
2, 96639, Note_on_c, 0, 81, 0
2, 96639, Note_on_c, 0, 69, 0
2, 96639, Note_on_c, 0, 73, 0
2, 96639, Note_on_c, 0, 79, 0
2, 96639, Note_on_c, 0, 70, 101
2, 96639, Note_on_c, 0, 73, 101
2, 96639, Note_on_c, 0, 79, 101
2, 96639, Note_on_c, 0, 82, 101
2, 96800, Note_on_c, 0, 82, 0
2, 96800, Note_on_c, 0, 70, 0
2, 96800, Note_on_c, 0, 73, 0
2, 96800, Note_on_c, 0, 79, 0
2, 96800, Note_on_c, 0, 69, 101
2, 96800, Note_on_c, 0, 73, 101
2, 96800, Note_on_c, 0, 79, 101
2, 96800, Note_on_c, 0, 81, 101
2, 96960, Note_on_c, 0, 81, 0
2, 96960, Note_on_c, 0, 69, 0
2, 96960, Note_on_c, 0, 73, 0
2, 96960, Note_on_c, 0, 79, 0
2, 96960, Note_on_c, 0, 70, 101
2, 96960, Note_on_c, 0, 73, 101
2, 96960, Note_on_c, 0, 79, 101
2, 96960, Note_on_c, 0, 82, 101
2, 97200, Note_on_c, 0, 82, 0
2, 97200, Note_on_c, 0, 70, 0
2, 97200, Note_on_c, 0, 73, 0
2, 97200, Note_on_c, 0, 79, 0
2, 97440, Note_on_c, 0, 58, 75
2, 97440, Note_on_c, 0, 70, 75
2, 97680, Note_on_c, 0, 70, 0
2, 97680, Note_on_c, 0, 58, 0
2, 97680, Note_on_c, 0, 59, 75
2, 97680, Note_on_c, 0, 71, 75
2, 97920, Note_on_c, 0, 71, 0
2, 97920, Note_on_c, 0, 59, 0
2, 97920, Note_on_c, 0, 61, 75
2, 97920, Note_on_c, 0, 73, 75
2, 98400, Note_on_c, 0, 73, 0
2, 98400, Note_on_c, 0, 61, 0
2, 98400, Note_on_c, 0, 67, 88
2, 98400, Note_on_c, 0, 79, 88
2, 98640, Note_on_c, 0, 79, 0
2, 98640, Note_on_c, 0, 67, 0
2, 98640, Note_on_c, 0, 66, 88
2, 98640, Note_on_c, 0, 78, 88
2, 98880, Note_on_c, 0, 78, 0
2, 98880, Note_on_c, 0, 66, 0
2, 98880, Note_on_c, 0, 64, 88
2, 98880, Note_on_c, 0, 76, 88
2, 99360, Note_on_c, 0, 76, 0
2, 99360, Note_on_c, 0, 64, 0
2, 99360, Note_on_c, 0, 62, 88
2, 99360, Note_on_c, 0, 74, 88
2, 99600, Note_on_c, 0, 74, 0
2, 99600, Note_on_c, 0, 62, 0
2, 99600, Note_on_c, 0, 60, 88
2, 99600, Note_on_c, 0, 72, 88
2, 99840, Note_on_c, 0, 72, 0
2, 99840, Note_on_c, 0, 60, 0
2, 99840, Note_on_c, 0, 59, 114
2, 99840, Note_on_c, 0, 71, 114
2, 100080, Note_on_c, 0, 71, 0
2, 100080, Note_on_c, 0, 59, 0
2, 100080, Note_on_c, 0, 58, 88
2, 100080, Note_on_c, 0, 70, 88
2, 100320, Note_on_c, 0, 70, 0
2, 100320, Note_on_c, 0, 58, 0
2, 100320, Note_on_c, 0, 69, 101
2, 100320, Note_on_c, 0, 73, 101
2, 100320, Note_on_c, 0, 79, 101
2, 100320, Note_on_c, 0, 81, 101
2, 100479, Note_on_c, 0, 81, 0
2, 100479, Note_on_c, 0, 69, 0
2, 100479, Note_on_c, 0, 73, 0
2, 100479, Note_on_c, 0, 79, 0
2, 100479, Note_on_c, 0, 70, 101
2, 100479, Note_on_c, 0, 73, 101
2, 100479, Note_on_c, 0, 79, 101
2, 100479, Note_on_c, 0, 82, 101
2, 100640, Note_on_c, 0, 82, 0
2, 100640, Note_on_c, 0, 70, 0
2, 100640, Note_on_c, 0, 73, 0
2, 100640, Note_on_c, 0, 79, 0
2, 100640, Note_on_c, 0, 69, 101
2, 100640, Note_on_c, 0, 73, 101
2, 100640, Note_on_c, 0, 79, 101
2, 100640, Note_on_c, 0, 81, 101
2, 100800, Note_on_c, 0, 81, 0
2, 100800, Note_on_c, 0, 69, 0
2, 100800, Note_on_c, 0, 73, 0
2, 100800, Note_on_c, 0, 79, 0
2, 100800, Note_on_c, 0, 70, 101
2, 100800, Note_on_c, 0, 73, 101
2, 100800, Note_on_c, 0, 79, 101
2, 100800, Note_on_c, 0, 82, 101
2, 101040, Note_on_c, 0, 82, 0
2, 101040, Note_on_c, 0, 70, 0
2, 101040, Note_on_c, 0, 73, 0
2, 101040, Note_on_c, 0, 79, 0
2, 101280, Note_on_c, 0, 61, 88
2, 101280, Note_on_c, 0, 73, 88
2, 101520, Note_on_c, 0, 73, 0
2, 101520, Note_on_c, 0, 61, 0
2, 101520, Note_on_c, 0, 62, 88
2, 101520, Note_on_c, 0, 74, 88
2, 101760, Note_on_c, 0, 74, 0
2, 101760, Note_on_c, 0, 62, 0
2, 101760, Note_on_c, 0, 64, 88
2, 101760, Note_on_c, 0, 76, 88
2, 102240, Note_on_c, 0, 76, 0
2, 102240, Note_on_c, 0, 64, 0
2, 102240, Note_on_c, 0, 70, 88
2, 102240, Note_on_c, 0, 82, 88
2, 102480, Note_on_c, 0, 82, 0
2, 102480, Note_on_c, 0, 70, 0
2, 102480, Note_on_c, 0, 69, 88
2, 102480, Note_on_c, 0, 81, 88
2, 102720, Note_on_c, 0, 81, 0
2, 102720, Note_on_c, 0, 69, 0
2, 102720, Note_on_c, 0, 67, 88
2, 102720, Note_on_c, 0, 79, 88
2, 103200, Note_on_c, 0, 79, 0
2, 103200, Note_on_c, 0, 67, 0
2, 103200, Note_on_c, 0, 66, 88
2, 103200, Note_on_c, 0, 78, 88
2, 103440, Note_on_c, 0, 78, 0
2, 103440, Note_on_c, 0, 66, 0
2, 103440, Note_on_c, 0, 64, 88
2, 103440, Note_on_c, 0, 76, 88
2, 103680, Note_on_c, 0, 76, 0
2, 103680, Note_on_c, 0, 64, 0
2, 103680, Note_on_c, 0, 62, 88
2, 103680, Note_on_c, 0, 74, 88
2, 103920, Note_on_c, 0, 74, 0
2, 103920, Note_on_c, 0, 62, 0
2, 103920, Note_on_c, 0, 61, 88
2, 103920, Note_on_c, 0, 73, 88
2, 104160, Note_on_c, 0, 73, 0
2, 104160, Note_on_c, 0, 61, 0
2, 104160, Note_on_c, 0, 72, 101
2, 104160, Note_on_c, 0, 79, 101
2, 104160, Note_on_c, 0, 82, 101
2, 104160, Note_on_c, 0, 84, 101
2, 104319, Note_on_c, 0, 84, 0
2, 104319, Note_on_c, 0, 72, 0
2, 104319, Note_on_c, 0, 79, 0
2, 104319, Note_on_c, 0, 82, 0
2, 104319, Note_on_c, 0, 73, 101
2, 104319, Note_on_c, 0, 79, 101
2, 104319, Note_on_c, 0, 82, 101
2, 104319, Note_on_c, 0, 85, 101
2, 104480, Note_on_c, 0, 85, 0
2, 104480, Note_on_c, 0, 73, 0
2, 104480, Note_on_c, 0, 79, 0
2, 104480, Note_on_c, 0, 82, 0
2, 104480, Note_on_c, 0, 72, 101
2, 104480, Note_on_c, 0, 79, 101
2, 104480, Note_on_c, 0, 82, 101
2, 104480, Note_on_c, 0, 84, 101
2, 104640, Note_on_c, 0, 84, 0
2, 104640, Note_on_c, 0, 72, 0
2, 104640, Note_on_c, 0, 79, 0
2, 104640, Note_on_c, 0, 82, 0
2, 104640, Note_on_c, 0, 73, 101
2, 104640, Note_on_c, 0, 79, 101
2, 104640, Note_on_c, 0, 82, 101
2, 104640, Note_on_c, 0, 85, 101
2, 104880, Note_on_c, 0, 85, 0
2, 104880, Note_on_c, 0, 73, 0
2, 104880, Note_on_c, 0, 79, 0
2, 104880, Note_on_c, 0, 82, 0
2, 105120, Note_on_c, 0, 61, 88
2, 105120, Note_on_c, 0, 73, 88
2, 105360, Note_on_c, 0, 73, 0
2, 105360, Note_on_c, 0, 61, 0
2, 105360, Note_on_c, 0, 62, 88
2, 105360, Note_on_c, 0, 74, 88
2, 105600, Note_on_c, 0, 74, 0
2, 105600, Note_on_c, 0, 62, 0
2, 105600, Note_on_c, 0, 64, 88
2, 105600, Note_on_c, 0, 76, 88
2, 106080, Note_on_c, 0, 76, 0
2, 106080, Note_on_c, 0, 64, 0
2, 106080, Note_on_c, 0, 70, 88
2, 106080, Note_on_c, 0, 82, 88
2, 106320, Note_on_c, 0, 82, 0
2, 106320, Note_on_c, 0, 70, 0
2, 106320, Note_on_c, 0, 69, 88
2, 106320, Note_on_c, 0, 81, 88
2, 106560, Note_on_c, 0, 81, 0
2, 106560, Note_on_c, 0, 69, 0
2, 106560, Note_on_c, 0, 67, 88
2, 106560, Note_on_c, 0, 79, 88
2, 107040, Note_on_c, 0, 79, 0
2, 107040, Note_on_c, 0, 67, 0
2, 107040, Note_on_c, 0, 66, 88
2, 107040, Note_on_c, 0, 78, 88
2, 107280, Note_on_c, 0, 78, 0
2, 107280, Note_on_c, 0, 66, 0
2, 107280, Note_on_c, 0, 64, 88
2, 107280, Note_on_c, 0, 76, 88
2, 107520, Note_on_c, 0, 76, 0
2, 107520, Note_on_c, 0, 64, 0
2, 107520, Note_on_c, 0, 62, 114
2, 107520, Note_on_c, 0, 74, 114
2, 107760, Note_on_c, 0, 74, 0
2, 107760, Note_on_c, 0, 62, 0
2, 107760, Note_on_c, 0, 61, 88
2, 107760, Note_on_c, 0, 73, 88
2, 108000, Note_on_c, 0, 73, 0
2, 108000, Note_on_c, 0, 61, 0
2, 108000, Note_on_c, 0, 72, 101
2, 108000, Note_on_c, 0, 79, 101
2, 108000, Note_on_c, 0, 82, 101
2, 108000, Note_on_c, 0, 84, 101
2, 108159, Note_on_c, 0, 84, 0
2, 108159, Note_on_c, 0, 72, 0
2, 108159, Note_on_c, 0, 79, 0
2, 108159, Note_on_c, 0, 82, 0
2, 108159, Note_on_c, 0, 73, 101
2, 108159, Note_on_c, 0, 79, 101
2, 108159, Note_on_c, 0, 82, 101
2, 108159, Note_on_c, 0, 85, 101
2, 108320, Note_on_c, 0, 85, 0
2, 108320, Note_on_c, 0, 73, 0
2, 108320, Note_on_c, 0, 79, 0
2, 108320, Note_on_c, 0, 82, 0
2, 108320, Note_on_c, 0, 72, 101
2, 108320, Note_on_c, 0, 79, 101
2, 108320, Note_on_c, 0, 82, 101
2, 108320, Note_on_c, 0, 84, 101
2, 108480, Note_on_c, 0, 84, 0
2, 108480, Note_on_c, 0, 72, 0
2, 108480, Note_on_c, 0, 79, 0
2, 108480, Note_on_c, 0, 82, 0
2, 108480, Note_on_c, 0, 73, 101
2, 108480, Note_on_c, 0, 79, 101
2, 108480, Note_on_c, 0, 82, 101
2, 108480, Note_on_c, 0, 85, 101
2, 108639, Note_on_c, 0, 85, 0
2, 108639, Note_on_c, 0, 73, 0
2, 108639, Note_on_c, 0, 79, 0
2, 108639, Note_on_c, 0, 82, 0
2, 108639, Note_on_c, 0, 67, 101
2, 108639, Note_on_c, 0, 79, 101
2, 108800, Note_on_c, 0, 79, 0
2, 108800, Note_on_c, 0, 67, 0
2, 108800, Note_on_c, 0, 69, 101
2, 108800, Note_on_c, 0, 81, 101
2, 108960, Note_on_c, 0, 81, 0
2, 108960, Note_on_c, 0, 69, 0
2, 108960, Note_on_c, 0, 70, 101
2, 108960, Note_on_c, 0, 82, 101
2, 109119, Note_on_c, 0, 82, 0
2, 109119, Note_on_c, 0, 70, 0
2, 109119, Note_on_c, 0, 72, 101
2, 109119, Note_on_c, 0, 84, 101
2, 109280, Note_on_c, 0, 84, 0
2, 109280, Note_on_c, 0, 72, 0
2, 109280, Note_on_c, 0, 73, 101
2, 109280, Note_on_c, 0, 85, 101
2, 109680, Note_on_c, 0, 85, 0
2, 109680, Note_on_c, 0, 73, 0
2, 109680, Note_on_c, 0, 74, 101
2, 109680, Note_on_c, 0, 86, 101
2, 109920, Note_on_c, 0, 86, 0
2, 109920, Note_on_c, 0, 74, 0
2, 109920, Note_on_c, 0, 75, 101
2, 109920, Note_on_c, 0, 87, 101
2, 110160, Note_on_c, 0, 87, 0
2, 110160, Note_on_c, 0, 75, 0
2, 110160, Note_on_c, 0, 74, 101
2, 110160, Note_on_c, 0, 86, 101
2, 110400, Note_on_c, 0, 86, 0
2, 110400, Note_on_c, 0, 74, 0
2, 110400, Note_on_c, 0, 79, 101
2, 110559, Note_on_c, 0, 79, 0
2, 110559, Note_on_c, 0, 67, 101
2, 110559, Note_on_c, 0, 79, 101
2, 110720, Note_on_c, 0, 79, 0
2, 110720, Note_on_c, 0, 67, 0
2, 110720, Note_on_c, 0, 69, 101
2, 110720, Note_on_c, 0, 81, 101
2, 110880, Note_on_c, 0, 81, 0
2, 110880, Note_on_c, 0, 69, 0
2, 110880, Note_on_c, 0, 70, 101
2, 110880, Note_on_c, 0, 82, 101
2, 111039, Note_on_c, 0, 82, 0
2, 111039, Note_on_c, 0, 70, 0
2, 111039, Note_on_c, 0, 72, 101
2, 111039, Note_on_c, 0, 84, 101
2, 111200, Note_on_c, 0, 84, 0
2, 111200, Note_on_c, 0, 72, 0
2, 111200, Note_on_c, 0, 73, 101
2, 111200, Note_on_c, 0, 85, 101
2, 111600, Note_on_c, 0, 85, 0
2, 111600, Note_on_c, 0, 73, 0
2, 111600, Note_on_c, 0, 74, 101
2, 111600, Note_on_c, 0, 86, 101
2, 111840, Note_on_c, 0, 86, 0
2, 111840, Note_on_c, 0, 74, 0
2, 111840, Note_on_c, 0, 75, 101
2, 111840, Note_on_c, 0, 87, 101
2, 112080, Note_on_c, 0, 87, 0
2, 112080, Note_on_c, 0, 75, 0
2, 112080, Note_on_c, 0, 74, 101
2, 112080, Note_on_c, 0, 86, 101
2, 112320, Note_on_c, 0, 86, 0
2, 112320, Note_on_c, 0, 74, 0
2, 112320, Note_on_c, 0, 79, 101
2, 112479, Note_on_c, 0, 79, 0
2, 112479, Note_on_c, 0, 74, 101
2, 112479, Note_on_c, 0, 86, 101
2, 112640, Note_on_c, 0, 86, 0
2, 112640, Note_on_c, 0, 74, 0
2, 112640, Note_on_c, 0, 75, 101
2, 112640, Note_on_c, 0, 87, 101
2, 112800, Note_on_c, 0, 87, 0
2, 112800, Note_on_c, 0, 75, 0
2, 112800, Note_on_c, 0, 77, 101
2, 112800, Note_on_c, 0, 89, 101
2, 112959, Note_on_c, 0, 89, 0
2, 112959, Note_on_c, 0, 77, 0
2, 112959, Note_on_c, 0, 79, 101
2, 112959, Note_on_c, 0, 91, 101
2, 113120, Note_on_c, 0, 91, 0
2, 113120, Note_on_c, 0, 79, 0
2, 113120, Note_on_c, 0, 80, 101
2, 113120, Note_on_c, 0, 92, 101
2, 113439, Note_on_c, 0, 92, 0
2, 113439, Note_on_c, 0, 80, 0
2, 113439, Note_on_c, 0, 79, 101
2, 113439, Note_on_c, 0, 91, 101
2, 113600, Note_on_c, 0, 91, 0
2, 113600, Note_on_c, 0, 79, 0
2, 113600, Note_on_c, 0, 78, 101
2, 113600, Note_on_c, 0, 90, 101
2, 113760, Note_on_c, 0, 90, 0
2, 113760, Note_on_c, 0, 78, 0
2, 113760, Note_on_c, 0, 77, 101
2, 113760, Note_on_c, 0, 89, 101
2, 113919, Note_on_c, 0, 89, 0
2, 113919, Note_on_c, 0, 77, 0
2, 113919, Note_on_c, 0, 75, 101
2, 113919, Note_on_c, 0, 87, 101
2, 114080, Note_on_c, 0, 87, 0
2, 114080, Note_on_c, 0, 75, 0
2, 114080, Note_on_c, 0, 74, 101
2, 114080, Note_on_c, 0, 86, 101
2, 114240, Note_on_c, 0, 86, 0
2, 114240, Note_on_c, 0, 74, 0
2, 114240, Note_on_c, 0, 79, 101
2, 114399, Note_on_c, 0, 79, 0
2, 114399, Note_on_c, 0, 81, 101
2, 114560, Note_on_c, 0, 81, 0
2, 114560, Note_on_c, 0, 71, 101
2, 114560, Note_on_c, 0, 83, 101
2, 114720, Note_on_c, 0, 83, 0
2, 114720, Note_on_c, 0, 71, 0
2, 114720, Note_on_c, 0, 72, 101
2, 114720, Note_on_c, 0, 84, 101
2, 114879, Note_on_c, 0, 84, 0
2, 114879, Note_on_c, 0, 72, 0
2, 114879, Note_on_c, 0, 74, 101
2, 114879, Note_on_c, 0, 86, 101
2, 115040, Note_on_c, 0, 86, 0
2, 115040, Note_on_c, 0, 74, 0
2, 115040, Note_on_c, 0, 75, 101
2, 115040, Note_on_c, 0, 87, 101
2, 115200, Note_on_c, 0, 87, 0
2, 115200, Note_on_c, 0, 75, 0
2, 115200, Note_on_c, 0, 70, 101
2, 115200, Note_on_c, 0, 82, 101
2, 116000, Note_on_c, 0, 82, 0
2, 116000, Note_on_c, 0, 70, 0
2, 116000, Note_on_c, 0, 69, 101
2, 116000, Note_on_c, 0, 81, 101
2, 116160, Note_on_c, 0, 81, 0
2, 116160, Note_on_c, 0, 69, 0
2, 116160, Note_on_c, 0, 79, 101
2, 116319, Note_on_c, 0, 79, 0
2, 116319, Note_on_c, 0, 67, 101
2, 116319, Note_on_c, 0, 79, 101
2, 116480, Note_on_c, 0, 79, 0
2, 116480, Note_on_c, 0, 67, 0
2, 116480, Note_on_c, 0, 69, 101
2, 116480, Note_on_c, 0, 81, 101
2, 116640, Note_on_c, 0, 81, 0
2, 116640, Note_on_c, 0, 69, 0
2, 116640, Note_on_c, 0, 70, 101
2, 116640, Note_on_c, 0, 82, 101
2, 116799, Note_on_c, 0, 82, 0
2, 116799, Note_on_c, 0, 70, 0
2, 116799, Note_on_c, 0, 72, 101
2, 116799, Note_on_c, 0, 84, 101
2, 116960, Note_on_c, 0, 84, 0
2, 116960, Note_on_c, 0, 72, 0
2, 116960, Note_on_c, 0, 73, 101
2, 116960, Note_on_c, 0, 85, 101
2, 117360, Note_on_c, 0, 85, 0
2, 117360, Note_on_c, 0, 73, 0
2, 117360, Note_on_c, 0, 74, 101
2, 117360, Note_on_c, 0, 86, 101
2, 117600, Note_on_c, 0, 86, 0
2, 117600, Note_on_c, 0, 74, 0
2, 117600, Note_on_c, 0, 75, 101
2, 117600, Note_on_c, 0, 87, 101
2, 117840, Note_on_c, 0, 87, 0
2, 117840, Note_on_c, 0, 75, 0
2, 117840, Note_on_c, 0, 74, 101
2, 117840, Note_on_c, 0, 86, 101
2, 118080, Note_on_c, 0, 86, 0
2, 118080, Note_on_c, 0, 74, 0
2, 118080, Note_on_c, 0, 79, 101
2, 118239, Note_on_c, 0, 79, 0
2, 118239, Note_on_c, 0, 67, 101
2, 118239, Note_on_c, 0, 79, 101
2, 118400, Note_on_c, 0, 79, 0
2, 118400, Note_on_c, 0, 67, 0
2, 118400, Note_on_c, 0, 69, 101
2, 118400, Note_on_c, 0, 81, 101
2, 118560, Note_on_c, 0, 81, 0
2, 118560, Note_on_c, 0, 69, 0
2, 118560, Note_on_c, 0, 70, 101
2, 118560, Note_on_c, 0, 82, 101
2, 118719, Note_on_c, 0, 82, 0
2, 118719, Note_on_c, 0, 70, 0
2, 118719, Note_on_c, 0, 72, 101
2, 118719, Note_on_c, 0, 84, 101
2, 118880, Note_on_c, 0, 84, 0
2, 118880, Note_on_c, 0, 72, 0
2, 118880, Note_on_c, 0, 73, 101
2, 118880, Note_on_c, 0, 85, 101
2, 119280, Note_on_c, 0, 85, 0
2, 119280, Note_on_c, 0, 73, 0
2, 119280, Note_on_c, 0, 74, 101
2, 119280, Note_on_c, 0, 86, 101
2, 119520, Note_on_c, 0, 86, 0
2, 119520, Note_on_c, 0, 74, 0
2, 119520, Note_on_c, 0, 75, 101
2, 119520, Note_on_c, 0, 87, 101
2, 119760, Note_on_c, 0, 87, 0
2, 119760, Note_on_c, 0, 75, 0
2, 119760, Note_on_c, 0, 74, 101
2, 119760, Note_on_c, 0, 86, 101
2, 120000, Note_on_c, 0, 86, 0
2, 120000, Note_on_c, 0, 74, 0
2, 120000, Note_on_c, 0, 79, 101
2, 120159, Note_on_c, 0, 79, 0
2, 120159, Note_on_c, 0, 74, 101
2, 120159, Note_on_c, 0, 86, 101
2, 120320, Note_on_c, 0, 86, 0
2, 120320, Note_on_c, 0, 74, 0
2, 120320, Note_on_c, 0, 75, 101
2, 120320, Note_on_c, 0, 87, 101
2, 120480, Note_on_c, 0, 87, 0
2, 120480, Note_on_c, 0, 75, 0
2, 120480, Note_on_c, 0, 77, 101
2, 120480, Note_on_c, 0, 89, 101
2, 120639, Note_on_c, 0, 89, 0
2, 120639, Note_on_c, 0, 77, 0
2, 120639, Note_on_c, 0, 79, 101
2, 120639, Note_on_c, 0, 91, 101
2, 120800, Note_on_c, 0, 91, 0
2, 120800, Note_on_c, 0, 79, 0
2, 120800, Note_on_c, 0, 80, 101
2, 120800, Note_on_c, 0, 92, 101
2, 121119, Note_on_c, 0, 92, 0
2, 121119, Note_on_c, 0, 80, 0
2, 121119, Note_on_c, 0, 79, 101
2, 121119, Note_on_c, 0, 91, 101
2, 121280, Note_on_c, 0, 91, 0
2, 121280, Note_on_c, 0, 79, 0
2, 121280, Note_on_c, 0, 78, 101
2, 121280, Note_on_c, 0, 90, 101
2, 121440, Note_on_c, 0, 90, 0
2, 121440, Note_on_c, 0, 78, 0
2, 121440, Note_on_c, 0, 77, 101
2, 121440, Note_on_c, 0, 89, 101
2, 121599, Note_on_c, 0, 89, 0
2, 121599, Note_on_c, 0, 77, 0
2, 121599, Note_on_c, 0, 75, 101
2, 121599, Note_on_c, 0, 87, 101
2, 121760, Note_on_c, 0, 87, 0
2, 121760, Note_on_c, 0, 75, 0
2, 121760, Note_on_c, 0, 74, 101
2, 121760, Note_on_c, 0, 86, 101
2, 121920, Note_on_c, 0, 86, 0
2, 121920, Note_on_c, 0, 74, 0
2, 121920, Note_on_c, 0, 79, 101
2, 122079, Note_on_c, 0, 79, 0
2, 122079, Note_on_c, 0, 81, 101
2, 122240, Note_on_c, 0, 81, 0
2, 122240, Note_on_c, 0, 71, 101
2, 122240, Note_on_c, 0, 83, 101
2, 122400, Note_on_c, 0, 83, 0
2, 122400, Note_on_c, 0, 71, 0
2, 122400, Note_on_c, 0, 72, 101
2, 122400, Note_on_c, 0, 84, 101
2, 122559, Note_on_c, 0, 84, 0
2, 122559, Note_on_c, 0, 72, 0
2, 122559, Note_on_c, 0, 74, 101
2, 122559, Note_on_c, 0, 86, 101
2, 122720, Note_on_c, 0, 86, 0
2, 122720, Note_on_c, 0, 74, 0
2, 122720, Note_on_c, 0, 75, 101
2, 122720, Note_on_c, 0, 87, 101
2, 122880, Note_on_c, 0, 87, 0
2, 122880, Note_on_c, 0, 75, 0
2, 122880, Note_on_c, 0, 70, 101
2, 122880, Note_on_c, 0, 82, 101
2, 123680, Note_on_c, 0, 82, 0
2, 123680, Note_on_c, 0, 70, 0
2, 123680, Note_on_c, 0, 69, 101
2, 123680, Note_on_c, 0, 81, 101
2, 123840, Note_on_c, 0, 81, 0
2, 123840, Note_on_c, 0, 69, 0
2, 123840, Note_on_c, 0, 79, 101
2, 123999, Note_on_c, 0, 79, 0
2, 123999, Note_on_c, 0, 67, 101
2, 124160, Note_on_c, 0, 67, 0
2, 124160, Note_on_c, 0, 69, 101
2, 124320, Note_on_c, 0, 69, 0
2, 124320, Note_on_c, 0, 70, 101
2, 124479, Note_on_c, 0, 70, 0
2, 124479, Note_on_c, 0, 72, 101
2, 124640, Note_on_c, 0, 72, 0
2, 124640, Note_on_c, 0, 73, 101
2, 124800, Note_on_c, 0, 73, 0
2, 124800, Note_on_c, 0, 73, 101
2, 125040, Note_on_c, 0, 73, 0
2, 125040, Note_on_c, 0, 74, 101
2, 125280, Note_on_c, 0, 74, 0
2, 125280, Note_on_c, 0, 75, 101
2, 125520, Note_on_c, 0, 75, 0
2, 125520, Note_on_c, 0, 74, 101
2, 125760, Note_on_c, 0, 74, 0
2, 125760, Note_on_c, 0, 79, 101
2, 125919, Note_on_c, 0, 79, 0
2, 125919, Note_on_c, 0, 67, 101
2, 126080, Note_on_c, 0, 67, 0
2, 126080, Note_on_c, 0, 69, 101
2, 126240, Note_on_c, 0, 69, 0
2, 126240, Note_on_c, 0, 70, 101
2, 126399, Note_on_c, 0, 70, 0
2, 126399, Note_on_c, 0, 72, 101
2, 126560, Note_on_c, 0, 72, 0
2, 126560, Note_on_c, 0, 73, 101
2, 126720, Note_on_c, 0, 73, 0
2, 126720, Note_on_c, 0, 73, 101
2, 126960, Note_on_c, 0, 73, 0
2, 126960, Note_on_c, 0, 74, 101
2, 127200, Note_on_c, 0, 74, 0
2, 127200, Note_on_c, 0, 75, 101
2, 127440, Note_on_c, 0, 75, 0
2, 127440, Note_on_c, 0, 74, 101
2, 127680, Note_on_c, 0, 74, 0
2, 127680, Note_on_c, 0, 67, 101
2, 127839, Note_on_c, 0, 67, 0
2, 127839, Note_on_c, 0, 75, 101
2, 128000, Note_on_c, 0, 75, 0
2, 128000, Note_on_c, 0, 74, 101
2, 128160, Note_on_c, 0, 74, 0
2, 128160, Note_on_c, 0, 67, 101
2, 128319, Note_on_c, 0, 67, 0
2, 128319, Note_on_c, 0, 75, 101
2, 128480, Note_on_c, 0, 75, 0
2, 128480, Note_on_c, 0, 74, 101
2, 128640, Note_on_c, 0, 74, 0
2, 128640, Note_on_c, 0, 67, 101
2, 128799, Note_on_c, 0, 67, 0
2, 128799, Note_on_c, 0, 75, 101
2, 128960, Note_on_c, 0, 75, 0
2, 128960, Note_on_c, 0, 74, 101
2, 129120, Note_on_c, 0, 74, 0
2, 129120, Note_on_c, 0, 67, 101
2, 129279, Note_on_c, 0, 67, 0
2, 129279, Note_on_c, 0, 75, 101
2, 129440, Note_on_c, 0, 75, 0
2, 129440, Note_on_c, 0, 74, 101
2, 129600, Note_on_c, 0, 74, 0
2, 129600, Note_on_c, 0, 61, 127
2, 130080, Note_on_c, 0, 61, 0
2, 130080, Note_on_c, 0, 62, 127
2, 130560, Note_on_c, 0, 62, 0
2, 130560, Note_on_c, 0, 63, 127
2, 130680, Note_on_c, 0, 63, 0
2, 130680, Note_on_c, 0, 64, 101
2, 130800, Note_on_c, 0, 64, 0
2, 130800, Note_on_c, 0, 65, 101
2, 130920, Note_on_c, 0, 65, 0
2, 130920, Note_on_c, 0, 64, 101
2, 131040, Note_on_c, 0, 64, 0
2, 131040, Note_on_c, 0, 64, 101
2, 131220, Note_on_c, 0, 67, 101
2, 131280, Note_on_c, 0, 67, 0
2, 131280, Note_on_c, 0, 64, 0
2, 131280, Note_on_c, 0, 63, 101
2, 131280, Note_on_c, 0, 70, 101
2, 131327, Note_on_c, 0, 70, 0
2, 131327, Note_on_c, 0, 63, 0
2, 131520, Note_on_c, 0, 64, 101
2, 131567, Note_on_c, 0, 64, 0
2, 131700, Note_on_c, 0, 67, 101
2, 131760, Note_on_c, 0, 67, 0
2, 131760, Note_on_c, 0, 63, 101
2, 131760, Note_on_c, 0, 70, 101
2, 131807, Note_on_c, 0, 70, 0
2, 131807, Note_on_c, 0, 63, 0
2, 132000, Note_on_c, 0, 64, 101
2, 132047, Note_on_c, 0, 64, 0
2, 132180, Note_on_c, 0, 67, 101
2, 132240, Note_on_c, 0, 67, 0
2, 132240, Note_on_c, 0, 63, 101
2, 132240, Note_on_c, 0, 70, 101
2, 132287, Note_on_c, 0, 70, 0
2, 132287, Note_on_c, 0, 63, 0
2, 132480, Note_on_c, 0, 64, 101
2, 132527, Note_on_c, 0, 64, 0
2, 132660, Note_on_c, 0, 67, 101
2, 132720, Note_on_c, 0, 67, 0
2, 132720, Note_on_c, 0, 63, 101
2, 132720, Note_on_c, 0, 70, 101
2, 132767, Note_on_c, 0, 70, 0
2, 132767, Note_on_c, 0, 63, 0
2, 132960, Note_on_c, 0, 64, 101
2, 133200, Note_on_c, 0, 64, 0
2, 134400, Note_on_c, 0, 64, 127
2, 134880, Note_on_c, 0, 64, 0
2, 134880, Note_on_c, 0, 65, 127
2, 135360, Note_on_c, 0, 65, 0
2, 135360, Note_on_c, 0, 66, 127
2, 135480, Note_on_c, 0, 66, 0
2, 135480, Note_on_c, 0, 67, 101
2, 135600, Note_on_c, 0, 67, 0
2, 135600, Note_on_c, 0, 68, 101
2, 135720, Note_on_c, 0, 68, 0
2, 135720, Note_on_c, 0, 67, 101
2, 135840, Note_on_c, 0, 67, 0
2, 135840, Note_on_c, 0, 67, 101
2, 136020, Note_on_c, 0, 70, 101
2, 136080, Note_on_c, 0, 70, 0
2, 136080, Note_on_c, 0, 67, 0
2, 136080, Note_on_c, 0, 66, 101
2, 136080, Note_on_c, 0, 73, 101
2, 136320, Note_on_c, 0, 73, 0
2, 136320, Note_on_c, 0, 66, 0
2, 136320, Note_on_c, 0, 67, 101
2, 136367, Note_on_c, 0, 67, 0
2, 136500, Note_on_c, 0, 70, 101
2, 136560, Note_on_c, 0, 70, 0
2, 136560, Note_on_c, 0, 66, 101
2, 136560, Note_on_c, 0, 73, 101
2, 136607, Note_on_c, 0, 73, 0
2, 136607, Note_on_c, 0, 66, 0
2, 136800, Note_on_c, 0, 67, 101
2, 136847, Note_on_c, 0, 67, 0
2, 136980, Note_on_c, 0, 70, 101
2, 137040, Note_on_c, 0, 70, 0
2, 137040, Note_on_c, 0, 66, 101
2, 137040, Note_on_c, 0, 73, 101
2, 137087, Note_on_c, 0, 73, 0
2, 137087, Note_on_c, 0, 66, 0
2, 137280, Note_on_c, 0, 67, 101
2, 137327, Note_on_c, 0, 67, 0
2, 137460, Note_on_c, 0, 70, 101
2, 137520, Note_on_c, 0, 70, 0
2, 137520, Note_on_c, 0, 66, 101
2, 137520, Note_on_c, 0, 73, 101
2, 137567, Note_on_c, 0, 73, 0
2, 137567, Note_on_c, 0, 66, 0
2, 137760, Note_on_c, 0, 67, 101
2, 137807, Note_on_c, 0, 67, 0
2, 139440, Note_on_c, 0, 76, 127
2, 139680, Note_on_c, 0, 76, 0
2, 139680, Note_on_c, 0, 75, 101
2, 139760, Note_on_c, 0, 75, 0
2, 139760, Note_on_c, 0, 73, 101
2, 139839, Note_on_c, 0, 73, 0
2, 139839, Note_on_c, 0, 72, 101
2, 139920, Note_on_c, 0, 72, 0
2, 139920, Note_on_c, 0, 70, 101
2, 140040, Note_on_c, 0, 70, 0
2, 140400, Note_on_c, 0, 68, 127
2, 140520, Note_on_c, 0, 68, 0
2, 140520, Note_on_c, 0, 67, 127
2, 140640, Note_on_c, 0, 67, 0
2, 140640, Note_on_c, 0, 61, 127
2, 140640, Note_on_c, 0, 65, 127
2, 140880, Note_on_c, 0, 65, 0
2, 140880, Note_on_c, 0, 64, 101
2, 141000, Note_on_c, 0, 64, 0
2, 141000, Note_on_c, 0, 61, 0
2, 141360, Note_on_c, 0, 76, 127
2, 141600, Note_on_c, 0, 76, 0
2, 141600, Note_on_c, 0, 75, 101
2, 141680, Note_on_c, 0, 75, 0
2, 141680, Note_on_c, 0, 73, 101
2, 141759, Note_on_c, 0, 73, 0
2, 141759, Note_on_c, 0, 72, 101
2, 141840, Note_on_c, 0, 72, 0
2, 141840, Note_on_c, 0, 70, 101
2, 141960, Note_on_c, 0, 70, 0
2, 142320, Note_on_c, 0, 68, 127
2, 142440, Note_on_c, 0, 68, 0
2, 142440, Note_on_c, 0, 67, 127
2, 142560, Note_on_c, 0, 67, 0
2, 142560, Note_on_c, 0, 61, 127
2, 142560, Note_on_c, 0, 65, 127
2, 142800, Note_on_c, 0, 65, 0
2, 142800, Note_on_c, 0, 64, 101
2, 142920, Note_on_c, 0, 64, 0
2, 142920, Note_on_c, 0, 61, 0
2, 143280, Note_on_c, 0, 68, 127
2, 143360, Note_on_c, 0, 68, 0
2, 143360, Note_on_c, 0, 67, 101
2, 143439, Note_on_c, 0, 67, 0
2, 143439, Note_on_c, 0, 65, 101
2, 143520, Note_on_c, 0, 65, 0
2, 143520, Note_on_c, 0, 61, 101
2, 143520, Note_on_c, 0, 64, 101
2, 143760, Note_on_c, 0, 64, 0
2, 143760, Note_on_c, 0, 61, 0
2, 144240, Note_on_c, 0, 68, 127
2, 144320, Note_on_c, 0, 68, 0
2, 144320, Note_on_c, 0, 67, 101
2, 144399, Note_on_c, 0, 67, 0
2, 144399, Note_on_c, 0, 65, 101
2, 144480, Note_on_c, 0, 65, 0
2, 144480, Note_on_c, 0, 61, 101
2, 144480, Note_on_c, 0, 64, 101
2, 144720, Note_on_c, 0, 64, 0
2, 144720, Note_on_c, 0, 61, 0
2, 145200, Note_on_c, 0, 68, 101
2, 145280, Note_on_c, 0, 68, 0
2, 145280, Note_on_c, 0, 67, 101
2, 145359, Note_on_c, 0, 67, 0
2, 145359, Note_on_c, 0, 65, 101
2, 145440, Note_on_c, 0, 65, 0
2, 145440, Note_on_c, 0, 61, 101
2, 145440, Note_on_c, 0, 64, 101
2, 145680, Note_on_c, 0, 64, 0
2, 145680, Note_on_c, 0, 61, 0
2, 145680, Note_on_c, 0, 68, 101
2, 145760, Note_on_c, 0, 68, 0
2, 145760, Note_on_c, 0, 67, 101
2, 145839, Note_on_c, 0, 67, 0
2, 145839, Note_on_c, 0, 65, 101
2, 145920, Note_on_c, 0, 65, 0
2, 145920, Note_on_c, 0, 61, 101
2, 145920, Note_on_c, 0, 64, 101
2, 146160, Note_on_c, 0, 64, 0
2, 146160, Note_on_c, 0, 61, 0
2, 146160, Note_on_c, 0, 67, 88
2, 146160, Note_on_c, 0, 72, 88
2, 146280, Note_on_c, 0, 72, 0
2, 146280, Note_on_c, 0, 67, 0
2, 146280, Note_on_c, 0, 67, 88
2, 146280, Note_on_c, 0, 72, 88
2, 146400, Note_on_c, 0, 72, 0
2, 146400, Note_on_c, 0, 67, 0
2, 146400, Note_on_c, 0, 60, 88
2, 146423, Note_on_c, 0, 60, 0
2, 146520, Note_on_c, 0, 60, 88
2, 146543, Note_on_c, 0, 60, 0
2, 146640, Note_on_c, 0, 72, 88
2, 146640, Note_on_c, 0, 77, 88
2, 146663, Note_on_c, 0, 77, 0
2, 146663, Note_on_c, 0, 72, 0
2, 146760, Note_on_c, 0, 72, 88
2, 146760, Note_on_c, 0, 77, 88
2, 146783, Note_on_c, 0, 77, 0
2, 146783, Note_on_c, 0, 72, 0
2, 146880, Note_on_c, 0, 65, 88
2, 146903, Note_on_c, 0, 65, 0
2, 147000, Note_on_c, 0, 65, 88
2, 147023, Note_on_c, 0, 65, 0
2, 147120, Note_on_c, 0, 73, 127
2, 147200, Note_on_c, 0, 73, 0
2, 147200, Note_on_c, 0, 72, 101
2, 147279, Note_on_c, 0, 72, 0
2, 147279, Note_on_c, 0, 70, 101
2, 147360, Note_on_c, 0, 70, 0
2, 147360, Note_on_c, 0, 66, 101
2, 147360, Note_on_c, 0, 69, 101
2, 147600, Note_on_c, 0, 69, 0
2, 147600, Note_on_c, 0, 66, 0
2, 147600, Note_on_c, 0, 73, 101
2, 147680, Note_on_c, 0, 73, 0
2, 147680, Note_on_c, 0, 72, 101
2, 147759, Note_on_c, 0, 72, 0
2, 147759, Note_on_c, 0, 70, 101
2, 147840, Note_on_c, 0, 70, 0
2, 147840, Note_on_c, 0, 66, 101
2, 147840, Note_on_c, 0, 69, 101
2, 148080, Note_on_c, 0, 69, 0
2, 148080, Note_on_c, 0, 66, 0
2, 148080, Note_on_c, 0, 72, 101
2, 148080, Note_on_c, 0, 77, 101
2, 148103, Note_on_c, 0, 77, 0
2, 148103, Note_on_c, 0, 72, 0
2, 148200, Note_on_c, 0, 72, 101
2, 148200, Note_on_c, 0, 77, 101
2, 148223, Note_on_c, 0, 77, 0
2, 148223, Note_on_c, 0, 72, 0
2, 148320, Note_on_c, 0, 65, 101
2, 148343, Note_on_c, 0, 65, 0
2, 148440, Note_on_c, 0, 65, 101
2, 148463, Note_on_c, 0, 65, 0
2, 148560, Note_on_c, 0, 77, 101
2, 148560, Note_on_c, 0, 82, 101
2, 148583, Note_on_c, 0, 82, 0
2, 148583, Note_on_c, 0, 77, 0
2, 148680, Note_on_c, 0, 77, 101
2, 148680, Note_on_c, 0, 82, 101
2, 148703, Note_on_c, 0, 82, 0
2, 148703, Note_on_c, 0, 77, 0
2, 148800, Note_on_c, 0, 70, 101
2, 148823, Note_on_c, 0, 70, 0
2, 148920, Note_on_c, 0, 70, 101
2, 148943, Note_on_c, 0, 70, 0
2, 149040, Note_on_c, 0, 75, 101
2, 149040, Note_on_c, 0, 82, 101
2, 149063, Note_on_c, 0, 82, 0
2, 149063, Note_on_c, 0, 75, 0
2, 149160, Note_on_c, 0, 75, 101
2, 149160, Note_on_c, 0, 82, 101
2, 149183, Note_on_c, 0, 82, 0
2, 149183, Note_on_c, 0, 75, 0
2, 149280, Note_on_c, 0, 70, 101
2, 149303, Note_on_c, 0, 70, 0
2, 149400, Note_on_c, 0, 70, 101
2, 149423, Note_on_c, 0, 70, 0
2, 149520, Note_on_c, 0, 77, 101
2, 149520, Note_on_c, 0, 82, 101
2, 149543, Note_on_c, 0, 82, 0
2, 149543, Note_on_c, 0, 77, 0
2, 149640, Note_on_c, 0, 77, 101
2, 149640, Note_on_c, 0, 82, 101
2, 149663, Note_on_c, 0, 82, 0
2, 149663, Note_on_c, 0, 77, 0
2, 149760, Note_on_c, 0, 70, 101
2, 149783, Note_on_c, 0, 70, 0
2, 149880, Note_on_c, 0, 70, 101
2, 149903, Note_on_c, 0, 70, 0
2, 150000, Note_on_c, 0, 78, 101
2, 150000, Note_on_c, 0, 82, 101
2, 150023, Note_on_c, 0, 82, 0
2, 150023, Note_on_c, 0, 78, 0
2, 150120, Note_on_c, 0, 78, 101
2, 150120, Note_on_c, 0, 82, 101
2, 150143, Note_on_c, 0, 82, 0
2, 150143, Note_on_c, 0, 78, 0
2, 150240, Note_on_c, 0, 70, 101
2, 150263, Note_on_c, 0, 70, 0
2, 150360, Note_on_c, 0, 70, 101
2, 150383, Note_on_c, 0, 70, 0
2, 150480, Note_on_c, 0, 78, 101
2, 150480, Note_on_c, 0, 82, 101
2, 150503, Note_on_c, 0, 82, 0
2, 150503, Note_on_c, 0, 78, 0
2, 150600, Note_on_c, 0, 78, 101
2, 150600, Note_on_c, 0, 82, 101
2, 150623, Note_on_c, 0, 82, 0
2, 150623, Note_on_c, 0, 78, 0
2, 150720, Note_on_c, 0, 70, 101
2, 150743, Note_on_c, 0, 70, 0
2, 150840, Note_on_c, 0, 70, 101
2, 150863, Note_on_c, 0, 70, 0
2, 150960, Note_on_c, 0, 75, 101
2, 150960, Note_on_c, 0, 82, 101
2, 150983, Note_on_c, 0, 82, 0
2, 150983, Note_on_c, 0, 75, 0
2, 151080, Note_on_c, 0, 75, 101
2, 151080, Note_on_c, 0, 82, 101
2, 151103, Note_on_c, 0, 82, 0
2, 151103, Note_on_c, 0, 75, 0
2, 151200, Note_on_c, 0, 70, 101
2, 151223, Note_on_c, 0, 70, 0
2, 151320, Note_on_c, 0, 70, 101
2, 151343, Note_on_c, 0, 70, 0
2, 151440, Note_on_c, 0, 77, 101
2, 151440, Note_on_c, 0, 82, 101
2, 151463, Note_on_c, 0, 82, 0
2, 151463, Note_on_c, 0, 77, 0
2, 151560, Note_on_c, 0, 77, 101
2, 151560, Note_on_c, 0, 82, 101
2, 151583, Note_on_c, 0, 82, 0
2, 151583, Note_on_c, 0, 77, 0
2, 151680, Note_on_c, 0, 70, 101
2, 151703, Note_on_c, 0, 70, 0
2, 151800, Note_on_c, 0, 70, 101
2, 151823, Note_on_c, 0, 70, 0
2, 151920, Note_on_c, 0, 78, 101
2, 151920, Note_on_c, 0, 82, 101
2, 151943, Note_on_c, 0, 82, 0
2, 151943, Note_on_c, 0, 78, 0
2, 152040, Note_on_c, 0, 78, 101
2, 152040, Note_on_c, 0, 82, 101
2, 152063, Note_on_c, 0, 82, 0
2, 152063, Note_on_c, 0, 78, 0
2, 152160, Note_on_c, 0, 70, 101
2, 152183, Note_on_c, 0, 70, 0
2, 152280, Note_on_c, 0, 70, 101
2, 152303, Note_on_c, 0, 70, 0
2, 152400, Note_on_c, 0, 78, 101
2, 152400, Note_on_c, 0, 82, 101
2, 152423, Note_on_c, 0, 82, 0
2, 152423, Note_on_c, 0, 78, 0
2, 152520, Note_on_c, 0, 78, 101
2, 152520, Note_on_c, 0, 82, 101
2, 152543, Note_on_c, 0, 82, 0
2, 152543, Note_on_c, 0, 78, 0
2, 152640, Note_on_c, 0, 70, 101
2, 152663, Note_on_c, 0, 70, 0
2, 152760, Note_on_c, 0, 70, 101
2, 152783, Note_on_c, 0, 70, 0
2, 152880, Note_on_c, 0, 82, 101
2, 152880, Note_on_c, 0, 85, 101
2, 152903, Note_on_c, 0, 85, 0
2, 152903, Note_on_c, 0, 82, 0
2, 153000, Note_on_c, 0, 82, 101
2, 153000, Note_on_c, 0, 85, 101
2, 153023, Note_on_c, 0, 85, 0
2, 153023, Note_on_c, 0, 82, 0
2, 153120, Note_on_c, 0, 73, 101
2, 153143, Note_on_c, 0, 73, 0
2, 153240, Note_on_c, 0, 73, 101
2, 153263, Note_on_c, 0, 73, 0
2, 153360, Note_on_c, 0, 82, 101
2, 153360, Note_on_c, 0, 85, 101
2, 153383, Note_on_c, 0, 85, 0
2, 153383, Note_on_c, 0, 82, 0
2, 153480, Note_on_c, 0, 82, 101
2, 153480, Note_on_c, 0, 85, 101
2, 153503, Note_on_c, 0, 85, 0
2, 153503, Note_on_c, 0, 82, 0
2, 153600, Note_on_c, 0, 73, 101
2, 153623, Note_on_c, 0, 73, 0
2, 153720, Note_on_c, 0, 73, 101
2, 153743, Note_on_c, 0, 73, 0
2, 153840, Note_on_c, 0, 82, 101
2, 153840, Note_on_c, 0, 85, 101
2, 153863, Note_on_c, 0, 85, 0
2, 153863, Note_on_c, 0, 82, 0
2, 153960, Note_on_c, 0, 82, 101
2, 153960, Note_on_c, 0, 85, 101
2, 153983, Note_on_c, 0, 85, 0
2, 153983, Note_on_c, 0, 82, 0
2, 154080, Note_on_c, 0, 73, 101
2, 154103, Note_on_c, 0, 73, 0
2, 154200, Note_on_c, 0, 73, 101
2, 154223, Note_on_c, 0, 73, 0
2, 154320, Note_on_c, 0, 82, 101
2, 154320, Note_on_c, 0, 85, 101
2, 154343, Note_on_c, 0, 85, 0
2, 154343, Note_on_c, 0, 82, 0
2, 154440, Note_on_c, 0, 82, 101
2, 154440, Note_on_c, 0, 85, 101
2, 154463, Note_on_c, 0, 85, 0
2, 154463, Note_on_c, 0, 82, 0
2, 154560, Note_on_c, 0, 70, 101
2, 154583, Note_on_c, 0, 70, 0
2, 154680, Note_on_c, 0, 70, 101
2, 154703, Note_on_c, 0, 70, 0
2, 154800, Note_on_c, 0, 82, 101
2, 154800, Note_on_c, 0, 85, 101
2, 154823, Note_on_c, 0, 85, 0
2, 154823, Note_on_c, 0, 82, 0
2, 154920, Note_on_c, 0, 82, 101
2, 154920, Note_on_c, 0, 85, 101
2, 154943, Note_on_c, 0, 85, 0
2, 154943, Note_on_c, 0, 82, 0
2, 155040, Note_on_c, 0, 73, 101
2, 155063, Note_on_c, 0, 73, 0
2, 155160, Note_on_c, 0, 73, 101
2, 155183, Note_on_c, 0, 73, 0
2, 155280, Note_on_c, 0, 82, 101
2, 155280, Note_on_c, 0, 85, 101
2, 155303, Note_on_c, 0, 85, 0
2, 155303, Note_on_c, 0, 82, 0
2, 155400, Note_on_c, 0, 82, 101
2, 155400, Note_on_c, 0, 85, 101
2, 155423, Note_on_c, 0, 85, 0
2, 155423, Note_on_c, 0, 82, 0
2, 155520, Note_on_c, 0, 73, 101
2, 155543, Note_on_c, 0, 73, 0
2, 155640, Note_on_c, 0, 73, 101
2, 155663, Note_on_c, 0, 73, 0
2, 155760, Note_on_c, 0, 82, 101
2, 155760, Note_on_c, 0, 85, 101
2, 155783, Note_on_c, 0, 85, 0
2, 155783, Note_on_c, 0, 82, 0
2, 155880, Note_on_c, 0, 82, 101
2, 155880, Note_on_c, 0, 85, 101
2, 155903, Note_on_c, 0, 85, 0
2, 155903, Note_on_c, 0, 82, 0
2, 156000, Note_on_c, 0, 73, 101
2, 156023, Note_on_c, 0, 73, 0
2, 156120, Note_on_c, 0, 73, 101
2, 156143, Note_on_c, 0, 73, 0
2, 156240, Note_on_c, 0, 82, 101
2, 156240, Note_on_c, 0, 85, 101
2, 156263, Note_on_c, 0, 85, 0
2, 156263, Note_on_c, 0, 82, 0
2, 156360, Note_on_c, 0, 82, 101
2, 156360, Note_on_c, 0, 85, 101
2, 156383, Note_on_c, 0, 85, 0
2, 156383, Note_on_c, 0, 82, 0
2, 156480, Note_on_c, 0, 70, 101
2, 156503, Note_on_c, 0, 70, 0
2, 156600, Note_on_c, 0, 70, 101
2, 156623, Note_on_c, 0, 70, 0
2, 156720, Note_on_c, 0, 82, 101
2, 156720, Note_on_c, 0, 85, 101
2, 156743, Note_on_c, 0, 85, 0
2, 156743, Note_on_c, 0, 82, 0
2, 156840, Note_on_c, 0, 82, 101
2, 156840, Note_on_c, 0, 85, 101
2, 156863, Note_on_c, 0, 85, 0
2, 156863, Note_on_c, 0, 82, 0
2, 156960, Note_on_c, 0, 73, 101
2, 156983, Note_on_c, 0, 73, 0
2, 157080, Note_on_c, 0, 73, 101
2, 157103, Note_on_c, 0, 73, 0
2, 157200, Note_on_c, 0, 82, 101
2, 157200, Note_on_c, 0, 85, 101
2, 157223, Note_on_c, 0, 85, 0
2, 157223, Note_on_c, 0, 82, 0
2, 157320, Note_on_c, 0, 82, 101
2, 157320, Note_on_c, 0, 85, 101
2, 157343, Note_on_c, 0, 85, 0
2, 157343, Note_on_c, 0, 82, 0
2, 157440, Note_on_c, 0, 73, 101
2, 157463, Note_on_c, 0, 73, 0
2, 157560, Note_on_c, 0, 73, 101
2, 157583, Note_on_c, 0, 73, 0
2, 157680, Note_on_c, 0, 82, 101
2, 157680, Note_on_c, 0, 85, 101
2, 157703, Note_on_c, 0, 85, 0
2, 157703, Note_on_c, 0, 82, 0
2, 157800, Note_on_c, 0, 82, 101
2, 157800, Note_on_c, 0, 85, 101
2, 157823, Note_on_c, 0, 85, 0
2, 157823, Note_on_c, 0, 82, 0
2, 157920, Note_on_c, 0, 73, 101
2, 157943, Note_on_c, 0, 73, 0
2, 158040, Note_on_c, 0, 73, 101
2, 158063, Note_on_c, 0, 73, 0
2, 158160, Note_on_c, 0, 82, 101
2, 158160, Note_on_c, 0, 85, 101
2, 158183, Note_on_c, 0, 85, 0
2, 158183, Note_on_c, 0, 82, 0
2, 158280, Note_on_c, 0, 82, 101
2, 158280, Note_on_c, 0, 85, 101
2, 158303, Note_on_c, 0, 85, 0
2, 158303, Note_on_c, 0, 82, 0
2, 158400, Note_on_c, 0, 73, 101
2, 158400, Note_on_c, 0, 82, 101
2, 158640, Note_on_c, 0, 82, 0
2, 158640, Note_on_c, 0, 73, 0
2, 158640, Note_on_c, 0, 71, 101
2, 158640, Note_on_c, 0, 83, 101
2, 158880, Note_on_c, 0, 83, 0
2, 158880, Note_on_c, 0, 71, 0
2, 158880, Note_on_c, 0, 70, 101
2, 158880, Note_on_c, 0, 82, 101
2, 159240, Note_on_c, 0, 82, 0
2, 159240, Note_on_c, 0, 70, 0
2, 159240, Note_on_c, 0, 68, 75
2, 159240, Note_on_c, 0, 80, 75
2, 159360, Note_on_c, 0, 80, 0
2, 159360, Note_on_c, 0, 68, 0
2, 159360, Note_on_c, 0, 66, 75
2, 159360, Note_on_c, 0, 78, 75
2, 159600, Note_on_c, 0, 78, 0
2, 159600, Note_on_c, 0, 66, 0
2, 159600, Note_on_c, 0, 68, 101
2, 159600, Note_on_c, 0, 80, 101
2, 159840, Note_on_c, 0, 80, 0
2, 159840, Note_on_c, 0, 68, 0
2, 159840, Note_on_c, 0, 63, 101
2, 159840, Note_on_c, 0, 75, 101
2, 160200, Note_on_c, 0, 75, 0
2, 160200, Note_on_c, 0, 63, 0
2, 160200, Note_on_c, 0, 64, 75
2, 160200, Note_on_c, 0, 76, 75
2, 160320, Note_on_c, 0, 76, 0
2, 160320, Note_on_c, 0, 64, 0
2, 160320, Note_on_c, 0, 66, 75
2, 160320, Note_on_c, 0, 78, 75
2, 160560, Note_on_c, 0, 78, 0
2, 160560, Note_on_c, 0, 66, 0
2, 160560, Note_on_c, 0, 71, 101
2, 160560, Note_on_c, 0, 83, 101
2, 160800, Note_on_c, 0, 83, 0
2, 160800, Note_on_c, 0, 71, 0
2, 160800, Note_on_c, 0, 70, 75
2, 160800, Note_on_c, 0, 82, 75
2, 161160, Note_on_c, 0, 82, 0
2, 161160, Note_on_c, 0, 70, 0
2, 161160, Note_on_c, 0, 68, 75
2, 161160, Note_on_c, 0, 80, 75
2, 161280, Note_on_c, 0, 80, 0
2, 161280, Note_on_c, 0, 68, 0
2, 161280, Note_on_c, 0, 66, 75
2, 161280, Note_on_c, 0, 78, 75
2, 161520, Note_on_c, 0, 78, 0
2, 161520, Note_on_c, 0, 66, 0
2, 161520, Note_on_c, 0, 68, 101
2, 161520, Note_on_c, 0, 80, 101
2, 161760, Note_on_c, 0, 80, 0
2, 161760, Note_on_c, 0, 68, 0
2, 161760, Note_on_c, 0, 63, 101
2, 161760, Note_on_c, 0, 75, 101
2, 162120, Note_on_c, 0, 75, 0
2, 162120, Note_on_c, 0, 63, 0
2, 162120, Note_on_c, 0, 64, 75
2, 162120, Note_on_c, 0, 76, 75
2, 162240, Note_on_c, 0, 76, 0
2, 162240, Note_on_c, 0, 64, 0
2, 162240, Note_on_c, 0, 66, 75
2, 162240, Note_on_c, 0, 78, 75
2, 162480, Note_on_c, 0, 78, 0
2, 162480, Note_on_c, 0, 66, 0
2, 162480, Note_on_c, 0, 75, 114
2, 162480, Note_on_c, 0, 77, 114
2, 162480, Note_on_c, 0, 87, 114
2, 162720, Note_on_c, 0, 87, 0
2, 162720, Note_on_c, 0, 77, 0
2, 162720, Note_on_c, 0, 75, 0
2, 162720, Note_on_c, 0, 73, 114
2, 162720, Note_on_c, 0, 85, 114
2, 163080, Note_on_c, 0, 85, 0
2, 163080, Note_on_c, 0, 73, 0
2, 163080, Note_on_c, 0, 71, 88
2, 163080, Note_on_c, 0, 83, 88
2, 163200, Note_on_c, 0, 83, 0
2, 163200, Note_on_c, 0, 71, 0
2, 163200, Note_on_c, 0, 70, 88
2, 163200, Note_on_c, 0, 82, 88
2, 163440, Note_on_c, 0, 82, 0
2, 163440, Note_on_c, 0, 70, 0
2, 163440, Note_on_c, 0, 71, 114
2, 163440, Note_on_c, 0, 74, 114
2, 163440, Note_on_c, 0, 83, 114
2, 163680, Note_on_c, 0, 83, 0
2, 163680, Note_on_c, 0, 74, 0
2, 163680, Note_on_c, 0, 71, 0
2, 163680, Note_on_c, 0, 70, 114
2, 163680, Note_on_c, 0, 82, 114
2, 164040, Note_on_c, 0, 82, 0
2, 164040, Note_on_c, 0, 70, 0
2, 164040, Note_on_c, 0, 68, 88
2, 164040, Note_on_c, 0, 80, 88
2, 164160, Note_on_c, 0, 80, 0
2, 164160, Note_on_c, 0, 68, 0
2, 164160, Note_on_c, 0, 66, 88
2, 164160, Note_on_c, 0, 78, 88
2, 164400, Note_on_c, 0, 78, 0
2, 164400, Note_on_c, 0, 66, 0
2, 164400, Note_on_c, 0, 82, 101
2, 164480, Note_on_c, 0, 82, 0
2, 164480, Note_on_c, 0, 81, 101
2, 164559, Note_on_c, 0, 81, 0
2, 164559, Note_on_c, 0, 79, 101
2, 164640, Note_on_c, 0, 79, 0
2, 164640, Note_on_c, 0, 78, 101
2, 164880, Note_on_c, 0, 78, 0
2, 164880, Note_on_c, 0, 82, 101
2, 164960, Note_on_c, 0, 82, 0
2, 164960, Note_on_c, 0, 81, 101
2, 165039, Note_on_c, 0, 81, 0
2, 165039, Note_on_c, 0, 79, 101
2, 165120, Note_on_c, 0, 79, 0
2, 165120, Note_on_c, 0, 78, 101
2, 165360, Note_on_c, 0, 78, 0
2, 165360, Note_on_c, 0, 82, 101
2, 165440, Note_on_c, 0, 82, 0
2, 165440, Note_on_c, 0, 81, 101
2, 165519, Note_on_c, 0, 81, 0
2, 165519, Note_on_c, 0, 79, 101
2, 165600, Note_on_c, 0, 79, 0
2, 165600, Note_on_c, 0, 75, 101
2, 165600, Note_on_c, 0, 78, 101
2, 165840, Note_on_c, 0, 78, 0
2, 165840, Note_on_c, 0, 75, 0
2, 165840, Note_on_c, 0, 74, 101
2, 165840, Note_on_c, 0, 77, 101
2, 165840, Note_on_c, 0, 82, 101
2, 166080, Note_on_c, 0, 82, 0
2, 166080, Note_on_c, 0, 77, 0
2, 166080, Note_on_c, 0, 74, 0
2, 166080, Control_c, 0, 64, 127
2, 166080, Note_on_c, 0, 66, 75
2, 166080, Note_on_c, 0, 70, 75
2, 166080, Note_on_c, 0, 75, 75
2, 166239, Note_on_c, 0, 75, 0
2, 166239, Note_on_c, 0, 70, 0
2, 166239, Note_on_c, 0, 66, 0
2, 166239, Note_on_c, 0, 66, 75
2, 166239, Note_on_c, 0, 70, 75
2, 166400, Note_on_c, 0, 70, 0
2, 166400, Note_on_c, 0, 66, 0
2, 166400, Note_on_c, 0, 66, 75
2, 166400, Note_on_c, 0, 70, 75
2, 166560, Note_on_c, 0, 70, 0
2, 166560, Note_on_c, 0, 66, 0
2, 166560, Note_on_c, 0, 66, 75
2, 166560, Note_on_c, 0, 70, 75
2, 166719, Note_on_c, 0, 70, 0
2, 166719, Note_on_c, 0, 66, 0
2, 166719, Note_on_c, 0, 66, 75
2, 166719, Note_on_c, 0, 70, 75
2, 166880, Note_on_c, 0, 70, 0
2, 166880, Note_on_c, 0, 66, 0
2, 166880, Note_on_c, 0, 66, 75
2, 166880, Note_on_c, 0, 70, 75
2, 167040, Note_on_c, 0, 70, 0
2, 167040, Note_on_c, 0, 66, 0
2, 167040, Note_on_c, 0, 58, 75
2, 167040, Note_on_c, 0, 62, 75
2, 167040, Note_on_c, 0, 66, 75
2, 167040, Note_on_c, 0, 70, 75
2, 167199, Note_on_c, 0, 70, 0
2, 167199, Note_on_c, 0, 58, 0
2, 167199, Note_on_c, 0, 62, 0
2, 167199, Note_on_c, 0, 66, 0
2, 167199, Note_on_c, 0, 66, 75
2, 167199, Note_on_c, 0, 70, 75
2, 167360, Note_on_c, 0, 70, 0
2, 167360, Note_on_c, 0, 66, 0
2, 167360, Note_on_c, 0, 66, 75
2, 167360, Note_on_c, 0, 70, 75
2, 167520, Note_on_c, 0, 70, 0
2, 167520, Note_on_c, 0, 66, 0
2, 167520, Note_on_c, 0, 78, 101
2, 168000, Control_c, 0, 64, 0
2, 168000, Note_on_c, 0, 66, 75
2, 168000, Note_on_c, 0, 70, 75
2, 168000, Note_on_c, 0, 73, 75
2, 168240, Note_on_c, 0, 73, 0
2, 168240, Note_on_c, 0, 78, 0
2, 168240, Note_on_c, 0, 66, 0
2, 168240, Note_on_c, 0, 70, 0
2, 168240, Note_on_c, 0, 70, 75
2, 168480, Note_on_c, 0, 70, 0
2, 168480, Note_on_c, 0, 71, 75
2, 168720, Note_on_c, 0, 71, 0
2, 168720, Note_on_c, 0, 73, 75
2, 168960, Note_on_c, 0, 73, 0
2, 168960, Note_on_c, 0, 65, 75
2, 168960, Note_on_c, 0, 71, 75
2, 168960, Note_on_c, 0, 75, 75
2, 169200, Note_on_c, 0, 75, 0
2, 169200, Note_on_c, 0, 71, 0
2, 169200, Note_on_c, 0, 65, 0
2, 169200, Note_on_c, 0, 68, 75
2, 169440, Note_on_c, 0, 68, 0
2, 169440, Note_on_c, 0, 70, 75
2, 169680, Note_on_c, 0, 70, 0
2, 169680, Note_on_c, 0, 71, 75
2, 169920, Note_on_c, 0, 71, 0
2, 169920, Note_on_c, 0, 66, 75
2, 169920, Note_on_c, 0, 70, 75
2, 169920, Note_on_c, 0, 73, 75
2, 170160, Note_on_c, 0, 73, 0
2, 170160, Note_on_c, 0, 70, 0
2, 170160, Note_on_c, 0, 66, 0
2, 170160, Note_on_c, 0, 66, 75
2, 170400, Note_on_c, 0, 66, 0
2, 170400, Note_on_c, 0, 63, 75
2, 170400, Note_on_c, 0, 66, 75
2, 170400, Note_on_c, 0, 71, 75
2, 170760, Note_on_c, 0, 71, 0
2, 170760, Note_on_c, 0, 66, 0
2, 170760, Note_on_c, 0, 63, 0
2, 170760, Note_on_c, 0, 70, 75
2, 170880, Note_on_c, 0, 70, 0
2, 170880, Note_on_c, 0, 59, 75
2, 170880, Note_on_c, 0, 65, 75
2, 170880, Note_on_c, 0, 70, 75
2, 171120, Note_on_c, 0, 70, 0
2, 171120, Note_on_c, 0, 65, 0
2, 171120, Note_on_c, 0, 59, 0
2, 171120, Note_on_c, 0, 68, 75
2, 171360, Note_on_c, 0, 68, 0
2, 171600, Note_on_c, 0, 73, 75
2, 171840, Note_on_c, 0, 73, 0
2, 171840, Control_c, 0, 64, 0
2, 171840, Note_on_c, 0, 66, 75
2, 171840, Note_on_c, 0, 70, 75
2, 171840, Note_on_c, 0, 73, 75
2, 171840, Note_on_c, 0, 78, 75
2, 172080, Note_on_c, 0, 78, 0
2, 172080, Note_on_c, 0, 66, 0
2, 172080, Note_on_c, 0, 70, 0
2, 172080, Note_on_c, 0, 73, 0
2, 172080, Note_on_c, 0, 70, 75
2, 172320, Note_on_c, 0, 70, 0
2, 172320, Note_on_c, 0, 71, 75
2, 172560, Note_on_c, 0, 71, 0
2, 172560, Note_on_c, 0, 73, 75
2, 172800, Note_on_c, 0, 73, 0
2, 172800, Note_on_c, 0, 61, 75
2, 172800, Note_on_c, 0, 65, 75
2, 172800, Note_on_c, 0, 75, 75
2, 173040, Note_on_c, 0, 75, 0
2, 173040, Note_on_c, 0, 65, 0
2, 173040, Note_on_c, 0, 61, 0
2, 173040, Note_on_c, 0, 68, 75
2, 173280, Note_on_c, 0, 68, 0
2, 173280, Note_on_c, 0, 70, 75
2, 173520, Note_on_c, 0, 70, 0
2, 173520, Note_on_c, 0, 71, 75
2, 173760, Note_on_c, 0, 71, 0
2, 173760, Note_on_c, 0, 61, 88
2, 173760, Note_on_c, 0, 64, 88
2, 173760, Note_on_c, 0, 67, 88
2, 173760, Note_on_c, 0, 73, 88
2, 174000, Note_on_c, 0, 73, 0
2, 174000, Note_on_c, 0, 61, 0
2, 174000, Note_on_c, 0, 64, 0
2, 174000, Note_on_c, 0, 67, 0
2, 174000, Note_on_c, 0, 62, 88
2, 174000, Note_on_c, 0, 74, 88
2, 174240, Note_on_c, 0, 74, 0
2, 174240, Note_on_c, 0, 62, 0
2, 174240, Note_on_c, 0, 63, 88
2, 174240, Note_on_c, 0, 75, 88
2, 174480, Note_on_c, 0, 75, 0
2, 174480, Note_on_c, 0, 63, 0
2, 174480, Note_on_c, 0, 64, 88
2, 174480, Note_on_c, 0, 76, 88
2, 174720, Note_on_c, 0, 76, 0
2, 174720, Note_on_c, 0, 64, 0
2, 174720, Note_on_c, 0, 65, 88
2, 174720, Note_on_c, 0, 68, 88
2, 174720, Note_on_c, 0, 73, 88
2, 174720, Note_on_c, 0, 77, 88
2, 174960, Note_on_c, 0, 77, 0
2, 174960, Note_on_c, 0, 65, 0
2, 174960, Note_on_c, 0, 68, 0
2, 174960, Note_on_c, 0, 73, 0
2, 174960, Note_on_c, 0, 66, 88
2, 174960, Note_on_c, 0, 78, 88
2, 175200, Note_on_c, 0, 78, 0
2, 175200, Note_on_c, 0, 66, 0
2, 175200, Note_on_c, 0, 68, 88
2, 175200, Note_on_c, 0, 80, 88
2, 175440, Note_on_c, 0, 80, 0
2, 175440, Note_on_c, 0, 68, 0
2, 175440, Note_on_c, 0, 70, 88
2, 175440, Note_on_c, 0, 82, 88
2, 175680, Note_on_c, 0, 82, 0
2, 175680, Note_on_c, 0, 70, 0
2, 175680, Note_on_c, 0, 72, 88
2, 175680, Note_on_c, 0, 75, 88
2, 175680, Note_on_c, 0, 82, 88
2, 175680, Note_on_c, 0, 84, 88
2, 175920, Note_on_c, 0, 84, 0
2, 175920, Note_on_c, 0, 72, 0
2, 175920, Note_on_c, 0, 75, 0
2, 175920, Note_on_c, 0, 82, 0
2, 175920, Note_on_c, 0, 73, 88
2, 175920, Note_on_c, 0, 85, 88
2, 176160, Note_on_c, 0, 85, 0
2, 176160, Note_on_c, 0, 73, 0
2, 176160, Note_on_c, 0, 75, 88
2, 176160, Note_on_c, 0, 81, 88
2, 176160, Note_on_c, 0, 84, 88
2, 176160, Note_on_c, 0, 87, 88
2, 176400, Note_on_c, 0, 87, 0
2, 176400, Note_on_c, 0, 75, 0
2, 176400, Note_on_c, 0, 81, 0
2, 176400, Note_on_c, 0, 84, 0
2, 176400, Note_on_c, 0, 77, 88
2, 176400, Note_on_c, 0, 89, 88
2, 176640, Note_on_c, 0, 89, 0
2, 176640, Note_on_c, 0, 77, 0
2, 176640, Note_on_c, 0, 78, 114
2, 176640, Note_on_c, 0, 90, 114
2, 177840, Note_on_c, 0, 90, 0
2, 177840, Note_on_c, 0, 78, 0
2, 177840, Note_on_c, 0, 70, 101
2, 177840, Note_on_c, 0, 82, 101
2, 178080, Note_on_c, 0, 82, 0
2, 178080, Note_on_c, 0, 70, 0
2, 178080, Note_on_c, 0, 71, 101
2, 178080, Note_on_c, 0, 78, 101
2, 178080, Note_on_c, 0, 83, 101
2, 178320, Note_on_c, 0, 83, 0
2, 178320, Note_on_c, 0, 78, 0
2, 178320, Note_on_c, 0, 71, 0
2, 178320, Note_on_c, 0, 73, 101
2, 178320, Note_on_c, 0, 85, 101
2, 178560, Note_on_c, 0, 85, 0
2, 178560, Note_on_c, 0, 73, 0
2, 178560, Note_on_c, 0, 75, 101
2, 178560, Note_on_c, 0, 77, 101
2, 178560, Note_on_c, 0, 87, 101
2, 178800, Note_on_c, 0, 87, 0
2, 178800, Note_on_c, 0, 77, 0
2, 178800, Note_on_c, 0, 75, 0
2, 178800, Note_on_c, 0, 68, 101
2, 178800, Note_on_c, 0, 80, 101
2, 179040, Note_on_c, 0, 80, 0
2, 179040, Note_on_c, 0, 68, 0
2, 179040, Note_on_c, 0, 70, 101
2, 179040, Note_on_c, 0, 77, 101
2, 179040, Note_on_c, 0, 82, 101
2, 179280, Note_on_c, 0, 82, 0
2, 179280, Note_on_c, 0, 77, 0
2, 179280, Note_on_c, 0, 70, 0
2, 179280, Note_on_c, 0, 71, 101
2, 179280, Note_on_c, 0, 83, 101
2, 179520, Note_on_c, 0, 83, 0
2, 179520, Note_on_c, 0, 71, 0
2, 179520, Note_on_c, 0, 73, 101
2, 179520, Note_on_c, 0, 78, 101
2, 179520, Note_on_c, 0, 82, 101
2, 179520, Note_on_c, 0, 85, 101
2, 179760, Note_on_c, 0, 85, 0
2, 179760, Note_on_c, 0, 73, 0
2, 179760, Note_on_c, 0, 78, 0
2, 179760, Note_on_c, 0, 82, 0
2, 179760, Note_on_c, 0, 66, 101
2, 179760, Note_on_c, 0, 78, 101
2, 180000, Note_on_c, 0, 78, 0
2, 180000, Note_on_c, 0, 66, 0
2, 180000, Note_on_c, 0, 71, 101
2, 180000, Note_on_c, 0, 75, 101
2, 180000, Note_on_c, 0, 78, 101
2, 180000, Note_on_c, 0, 83, 101
2, 180360, Note_on_c, 0, 83, 0
2, 180360, Note_on_c, 0, 71, 0
2, 180360, Note_on_c, 0, 75, 0
2, 180360, Note_on_c, 0, 78, 0
2, 180360, Note_on_c, 0, 70, 101
2, 180360, Note_on_c, 0, 82, 101
2, 180480, Note_on_c, 0, 82, 0
2, 180480, Note_on_c, 0, 70, 0
2, 180480, Note_on_c, 0, 70, 101
2, 180480, Note_on_c, 0, 77, 101
2, 180480, Note_on_c, 0, 82, 101
2, 180720, Note_on_c, 0, 82, 0
2, 180720, Note_on_c, 0, 77, 0
2, 180720, Note_on_c, 0, 70, 0
2, 180720, Note_on_c, 0, 68, 101
2, 180720, Note_on_c, 0, 80, 101
2, 180960, Note_on_c, 0, 80, 0
2, 180960, Note_on_c, 0, 68, 0
2, 181200, Note_on_c, 0, 73, 101
2, 181200, Note_on_c, 0, 85, 101
2, 181440, Note_on_c, 0, 85, 0
2, 181440, Note_on_c, 0, 73, 0
2, 181440, Note_on_c, 0, 78, 101
2, 181440, Note_on_c, 0, 82, 101
2, 181440, Note_on_c, 0, 85, 101
2, 181440, Note_on_c, 0, 90, 101
2, 181680, Note_on_c, 0, 90, 0
2, 181680, Note_on_c, 0, 78, 0
2, 181680, Note_on_c, 0, 82, 0
2, 181680, Note_on_c, 0, 85, 0
2, 181680, Note_on_c, 0, 70, 101
2, 181680, Note_on_c, 0, 82, 101
2, 181920, Note_on_c, 0, 82, 0
2, 181920, Note_on_c, 0, 70, 0
2, 181920, Note_on_c, 0, 71, 101
2, 181920, Note_on_c, 0, 78, 101
2, 181920, Note_on_c, 0, 83, 101
2, 182160, Note_on_c, 0, 83, 0
2, 182160, Note_on_c, 0, 78, 0
2, 182160, Note_on_c, 0, 71, 0
2, 182160, Note_on_c, 0, 73, 101
2, 182160, Note_on_c, 0, 85, 101
2, 182400, Note_on_c, 0, 85, 0
2, 182400, Note_on_c, 0, 73, 0
2, 182400, Note_on_c, 0, 75, 101
2, 182400, Note_on_c, 0, 77, 101
2, 182400, Note_on_c, 0, 87, 101
2, 182640, Note_on_c, 0, 87, 0
2, 182640, Note_on_c, 0, 77, 0
2, 182640, Note_on_c, 0, 75, 0
2, 182640, Note_on_c, 0, 68, 88
2, 182640, Note_on_c, 0, 80, 88
2, 182880, Note_on_c, 0, 80, 0
2, 182880, Note_on_c, 0, 68, 0
2, 182880, Note_on_c, 0, 70, 88
2, 182880, Note_on_c, 0, 77, 88
2, 182880, Note_on_c, 0, 82, 88
2, 183120, Note_on_c, 0, 82, 0
2, 183120, Note_on_c, 0, 77, 0
2, 183120, Note_on_c, 0, 70, 0
2, 183120, Note_on_c, 0, 71, 88
2, 183120, Note_on_c, 0, 83, 88
2, 183360, Note_on_c, 0, 83, 0
2, 183360, Note_on_c, 0, 71, 0
2, 183360, Note_on_c, 0, 73, 75
2, 183360, Note_on_c, 0, 78, 75
2, 183360, Note_on_c, 0, 82, 75
2, 183360, Note_on_c, 0, 85, 75
2, 183600, Note_on_c, 0, 85, 0
2, 183600, Note_on_c, 0, 73, 0
2, 183600, Note_on_c, 0, 78, 0
2, 183600, Note_on_c, 0, 82, 0
2, 183600, Note_on_c, 0, 70, 75
2, 183840, Note_on_c, 0, 70, 0
2, 183840, Note_on_c, 0, 71, 75
2, 184080, Note_on_c, 0, 71, 0
2, 184080, Note_on_c, 0, 73, 75
2, 184320, Note_on_c, 0, 73, 0
2, 184320, Note_on_c, 0, 75, 75
2, 184560, Note_on_c, 0, 75, 0
2, 184560, Note_on_c, 0, 68, 75
2, 184800, Note_on_c, 0, 68, 0
2, 184800, Note_on_c, 0, 70, 75
2, 185040, Note_on_c, 0, 70, 0
2, 185040, Note_on_c, 0, 71, 75
2, 185280, Note_on_c, 0, 71, 0
2, 185280, Note_on_c, 0, 73, 62
2, 185520, Note_on_c, 0, 73, 0
2, 185520, Note_on_c, 0, 58, 62
2, 185760, Note_on_c, 0, 58, 0
2, 185760, Note_on_c, 0, 59, 62
2, 186000, Note_on_c, 0, 59, 0
2, 186000, Note_on_c, 0, 61, 62
2, 186240, Note_on_c, 0, 61, 0
2, 186240, Note_on_c, 0, 63, 62
2, 186480, Note_on_c, 0, 63, 0
2, 186480, Note_on_c, 0, 56, 62
2, 186720, Note_on_c, 0, 56, 0
2, 186720, Note_on_c, 0, 58, 62
2, 186960, Note_on_c, 0, 58, 0
2, 186960, Note_on_c, 0, 59, 62
2, 187200, Note_on_c, 0, 59, 0
2, 187200, Note_on_c, 0, 61, 101
2, 187247, Note_on_c, 0, 61, 0
2, 187440, Note_on_c, 0, 61, 101
2, 187440, Note_on_c, 0, 64, 101
2, 187487, Note_on_c, 0, 64, 0
2, 187487, Note_on_c, 0, 61, 0
2, 187680, Note_on_c, 0, 61, 101
2, 187727, Note_on_c, 0, 61, 0
2, 187920, Note_on_c, 0, 61, 101
2, 187920, Note_on_c, 0, 64, 101
2, 187967, Note_on_c, 0, 64, 0
2, 187967, Note_on_c, 0, 61, 0
2, 188160, Note_on_c, 0, 61, 101
2, 188207, Note_on_c, 0, 61, 0
2, 188400, Note_on_c, 0, 61, 101
2, 188400, Note_on_c, 0, 64, 101
2, 188447, Note_on_c, 0, 64, 0
2, 188447, Note_on_c, 0, 61, 0
2, 188640, Note_on_c, 0, 61, 101
2, 188880, Note_on_c, 0, 61, 0
2, 188880, Note_on_c, 0, 79, 101
2, 188960, Note_on_c, 0, 79, 0
2, 188960, Note_on_c, 0, 78, 101
2, 189039, Note_on_c, 0, 78, 0
2, 189039, Note_on_c, 0, 77, 101
2, 189120, Note_on_c, 0, 77, 0
2, 189120, Note_on_c, 0, 76, 101
2, 189360, Note_on_c, 0, 76, 0
2, 189360, Note_on_c, 0, 88, 101
2, 189440, Note_on_c, 0, 88, 0
2, 189440, Note_on_c, 0, 89, 101
2, 189519, Note_on_c, 0, 89, 0
2, 189519, Note_on_c, 0, 90, 101
2, 189600, Note_on_c, 0, 90, 0
2, 189600, Note_on_c, 0, 91, 101
2, 189840, Note_on_c, 0, 91, 0
2, 189840, Note_on_c, 0, 79, 101
2, 189920, Note_on_c, 0, 79, 0
2, 189920, Note_on_c, 0, 78, 101
2, 189999, Note_on_c, 0, 78, 0
2, 189999, Note_on_c, 0, 77, 101
2, 190080, Note_on_c, 0, 77, 0
2, 190080, Note_on_c, 0, 76, 101
2, 190320, Note_on_c, 0, 76, 0
2, 190320, Note_on_c, 0, 88, 101
2, 190400, Note_on_c, 0, 88, 0
2, 190400, Note_on_c, 0, 89, 101
2, 190479, Note_on_c, 0, 89, 0
2, 190479, Note_on_c, 0, 90, 101
2, 190560, Note_on_c, 0, 90, 0
2, 190560, Note_on_c, 0, 91, 101
2, 190800, Note_on_c, 0, 91, 0
2, 190800, Note_on_c, 0, 57, 101
2, 190800, Note_on_c, 0, 64, 101
2, 190920, Note_on_c, 0, 64, 0
2, 190920, Note_on_c, 0, 57, 0
2, 190920, Note_on_c, 0, 56, 101
2, 191040, Note_on_c, 0, 56, 0
2, 191040, Note_on_c, 0, 61, 101
2, 191087, Note_on_c, 0, 61, 0
2, 191280, Note_on_c, 0, 61, 101
2, 191280, Note_on_c, 0, 64, 101
2, 191327, Note_on_c, 0, 64, 0
2, 191327, Note_on_c, 0, 61, 0
2, 191520, Note_on_c, 0, 61, 101
2, 191567, Note_on_c, 0, 61, 0
2, 191760, Note_on_c, 0, 61, 101
2, 191760, Note_on_c, 0, 64, 101
2, 191807, Note_on_c, 0, 64, 0
2, 191807, Note_on_c, 0, 61, 0
2, 192000, Note_on_c, 0, 61, 101
2, 192047, Note_on_c, 0, 61, 0
2, 192240, Note_on_c, 0, 61, 101
2, 192240, Note_on_c, 0, 64, 101
2, 192287, Note_on_c, 0, 64, 0
2, 192287, Note_on_c, 0, 61, 0
2, 192480, Note_on_c, 0, 61, 101
2, 192720, Note_on_c, 0, 61, 0
2, 192720, Note_on_c, 0, 79, 101
2, 192800, Note_on_c, 0, 79, 0
2, 192800, Note_on_c, 0, 78, 101
2, 192879, Note_on_c, 0, 78, 0
2, 192879, Note_on_c, 0, 77, 101
2, 192960, Note_on_c, 0, 77, 0
2, 192960, Note_on_c, 0, 76, 101
2, 193200, Note_on_c, 0, 76, 0
2, 193200, Note_on_c, 0, 88, 101
2, 193280, Note_on_c, 0, 88, 0
2, 193280, Note_on_c, 0, 89, 101
2, 193359, Note_on_c, 0, 89, 0
2, 193359, Note_on_c, 0, 90, 101
2, 193440, Note_on_c, 0, 90, 0
2, 193440, Note_on_c, 0, 91, 101
2, 193680, Note_on_c, 0, 91, 0
2, 193680, Note_on_c, 0, 79, 101
2, 193760, Note_on_c, 0, 79, 0
2, 193760, Note_on_c, 0, 78, 101
2, 193839, Note_on_c, 0, 78, 0
2, 193839, Note_on_c, 0, 77, 101
2, 193920, Note_on_c, 0, 77, 0
2, 193920, Note_on_c, 0, 76, 101
2, 194160, Note_on_c, 0, 76, 0
2, 194160, Note_on_c, 0, 88, 101
2, 194240, Note_on_c, 0, 88, 0
2, 194240, Note_on_c, 0, 89, 101
2, 194319, Note_on_c, 0, 89, 0
2, 194319, Note_on_c, 0, 90, 101
2, 194400, Note_on_c, 0, 90, 0
2, 194400, Note_on_c, 0, 91, 101
2, 194640, Note_on_c, 0, 91, 0
2, 194640, Note_on_c, 0, 60, 101
2, 194640, Note_on_c, 0, 67, 101
2, 194760, Note_on_c, 0, 67, 0
2, 194760, Note_on_c, 0, 60, 0
2, 194760, Note_on_c, 0, 59, 101
2, 194880, Note_on_c, 0, 59, 0
2, 194880, Note_on_c, 0, 64, 101
2, 194927, Note_on_c, 0, 64, 0
2, 195120, Note_on_c, 0, 64, 101
2, 195120, Note_on_c, 0, 67, 101
2, 195167, Note_on_c, 0, 67, 0
2, 195167, Note_on_c, 0, 64, 0
2, 195360, Note_on_c, 0, 64, 101
2, 195407, Note_on_c, 0, 64, 0
2, 195600, Note_on_c, 0, 64, 101
2, 195600, Note_on_c, 0, 67, 101
2, 195647, Note_on_c, 0, 67, 0
2, 195647, Note_on_c, 0, 64, 0
2, 195840, Note_on_c, 0, 64, 101
2, 195887, Note_on_c, 0, 64, 0
2, 196080, Note_on_c, 0, 64, 101
2, 196080, Note_on_c, 0, 67, 101
2, 196127, Note_on_c, 0, 67, 0
2, 196127, Note_on_c, 0, 64, 0
2, 196320, Note_on_c, 0, 64, 101
2, 196367, Note_on_c, 0, 64, 0
2, 196560, Note_on_c, 0, 82, 101
2, 196640, Note_on_c, 0, 82, 0
2, 196640, Note_on_c, 0, 81, 101
2, 196719, Note_on_c, 0, 81, 0
2, 196719, Note_on_c, 0, 80, 101
2, 196800, Note_on_c, 0, 80, 0
2, 196800, Note_on_c, 0, 79, 101
2, 197040, Note_on_c, 0, 79, 0
2, 197040, Note_on_c, 0, 91, 101
2, 197120, Note_on_c, 0, 91, 0
2, 197120, Note_on_c, 0, 92, 101
2, 197199, Note_on_c, 0, 92, 0
2, 197199, Note_on_c, 0, 93, 101
2, 197280, Note_on_c, 0, 93, 0
2, 197280, Note_on_c, 0, 94, 101
2, 197520, Note_on_c, 0, 94, 0
2, 197520, Note_on_c, 0, 82, 101
2, 197600, Note_on_c, 0, 82, 0
2, 197600, Note_on_c, 0, 81, 101
2, 197679, Note_on_c, 0, 81, 0
2, 197679, Note_on_c, 0, 80, 101
2, 197760, Note_on_c, 0, 80, 0
2, 197760, Note_on_c, 0, 79, 101
2, 198000, Note_on_c, 0, 79, 0
2, 198000, Note_on_c, 0, 91, 101
2, 198080, Note_on_c, 0, 91, 0
2, 198080, Note_on_c, 0, 92, 101
2, 198159, Note_on_c, 0, 92, 0
2, 198159, Note_on_c, 0, 93, 101
2, 198240, Note_on_c, 0, 93, 0
2, 198240, Note_on_c, 0, 94, 101
2, 198480, Note_on_c, 0, 94, 0
2, 198480, Note_on_c, 0, 60, 101
2, 198480, Note_on_c, 0, 67, 101
2, 198600, Note_on_c, 0, 67, 0
2, 198600, Note_on_c, 0, 60, 0
2, 198600, Note_on_c, 0, 59, 101
2, 198720, Note_on_c, 0, 59, 0
2, 198720, Note_on_c, 0, 64, 101
2, 198767, Note_on_c, 0, 64, 0
2, 198960, Note_on_c, 0, 64, 101
2, 198960, Note_on_c, 0, 67, 101
2, 199007, Note_on_c, 0, 67, 0
2, 199007, Note_on_c, 0, 64, 0
2, 199200, Note_on_c, 0, 64, 101
2, 199247, Note_on_c, 0, 64, 0
2, 199440, Note_on_c, 0, 64, 101
2, 199440, Note_on_c, 0, 67, 101
2, 199487, Note_on_c, 0, 67, 0
2, 199487, Note_on_c, 0, 64, 0
2, 199680, Note_on_c, 0, 64, 101
2, 199727, Note_on_c, 0, 64, 0
2, 199920, Note_on_c, 0, 64, 101
2, 199920, Note_on_c, 0, 67, 101
2, 199967, Note_on_c, 0, 67, 0
2, 199967, Note_on_c, 0, 64, 0
2, 200160, Note_on_c, 0, 64, 101
2, 200207, Note_on_c, 0, 64, 0
2, 200400, Note_on_c, 0, 82, 101
2, 200480, Note_on_c, 0, 82, 0
2, 200480, Note_on_c, 0, 81, 101
2, 200559, Note_on_c, 0, 81, 0
2, 200559, Note_on_c, 0, 80, 101
2, 200640, Note_on_c, 0, 80, 0
2, 200640, Note_on_c, 0, 79, 101
2, 200880, Note_on_c, 0, 79, 0
2, 200880, Note_on_c, 0, 91, 101
2, 200960, Note_on_c, 0, 91, 0
2, 200960, Note_on_c, 0, 92, 101
2, 201039, Note_on_c, 0, 92, 0
2, 201039, Note_on_c, 0, 93, 101
2, 201120, Note_on_c, 0, 93, 0
2, 201120, Note_on_c, 0, 94, 101
2, 201360, Note_on_c, 0, 94, 0
2, 201360, Note_on_c, 0, 82, 101
2, 201440, Note_on_c, 0, 82, 0
2, 201440, Note_on_c, 0, 81, 101
2, 201519, Note_on_c, 0, 81, 0
2, 201519, Note_on_c, 0, 80, 101
2, 201600, Note_on_c, 0, 80, 0
2, 201600, Note_on_c, 0, 79, 101
2, 201840, Note_on_c, 0, 79, 0
2, 201840, Note_on_c, 0, 91, 101
2, 201920, Note_on_c, 0, 91, 0
2, 201920, Note_on_c, 0, 92, 101
2, 201999, Note_on_c, 0, 92, 0
2, 201999, Note_on_c, 0, 93, 101
2, 202080, Note_on_c, 0, 93, 0
2, 202080, Note_on_c, 0, 94, 101
2, 202320, Note_on_c, 0, 94, 0
2, 202320, Note_on_c, 0, 72, 62
2, 202320, Note_on_c, 0, 76, 62
2, 202440, Note_on_c, 0, 76, 0
2, 202440, Note_on_c, 0, 72, 0
2, 202440, Note_on_c, 0, 78, 62
2, 202560, Note_on_c, 0, 78, 0
2, 202560, Note_on_c, 0, 88, 62
2, 202560, Note_on_c, 0, 91, 62
2, 202680, Note_on_c, 0, 91, 0
2, 202680, Note_on_c, 0, 88, 0
2, 202680, Note_on_c, 0, 95, 62
2, 202800, Note_on_c, 0, 95, 0
2, 202800, Note_on_c, 0, 88, 62
2, 202800, Note_on_c, 0, 91, 62
2, 202920, Note_on_c, 0, 91, 0
2, 202920, Note_on_c, 0, 88, 0
2, 202920, Note_on_c, 0, 96, 62
2, 203040, Note_on_c, 0, 96, 0
2, 203040, Note_on_c, 0, 88, 62
2, 203040, Note_on_c, 0, 91, 62
2, 203160, Note_on_c, 0, 91, 0
2, 203160, Note_on_c, 0, 88, 0
2, 203160, Note_on_c, 0, 95, 62
2, 203280, Note_on_c, 0, 95, 0
2, 203280, Note_on_c, 0, 84, 62
2, 203280, Note_on_c, 0, 88, 62
2, 203400, Note_on_c, 0, 88, 0
2, 203400, Note_on_c, 0, 84, 0
2, 203400, Note_on_c, 0, 91, 62
2, 203520, Note_on_c, 0, 91, 0
2, 203520, Note_on_c, 0, 83, 62
2, 203520, Note_on_c, 0, 88, 62
2, 203640, Note_on_c, 0, 88, 0
2, 203640, Note_on_c, 0, 83, 0
2, 203640, Note_on_c, 0, 91, 62
2, 203760, Note_on_c, 0, 91, 0
2, 203760, Note_on_c, 0, 79, 62
2, 203760, Note_on_c, 0, 84, 62
2, 203880, Note_on_c, 0, 84, 0
2, 203880, Note_on_c, 0, 79, 0
2, 203880, Note_on_c, 0, 88, 62
2, 204000, Note_on_c, 0, 88, 0
2, 204000, Note_on_c, 0, 79, 62
2, 204000, Note_on_c, 0, 83, 62
2, 204120, Note_on_c, 0, 83, 0
2, 204120, Note_on_c, 0, 79, 0
2, 204120, Note_on_c, 0, 88, 62
2, 204240, Note_on_c, 0, 88, 0
2, 204240, Note_on_c, 0, 84, 62
2, 204240, Note_on_c, 0, 88, 62
2, 204360, Note_on_c, 0, 88, 0
2, 204360, Note_on_c, 0, 84, 0
2, 204360, Note_on_c, 0, 90, 62
2, 204480, Note_on_c, 0, 90, 0
2, 204480, Note_on_c, 0, 88, 75
2, 204480, Note_on_c, 0, 91, 75
2, 204600, Note_on_c, 0, 91, 0
2, 204600, Note_on_c, 0, 88, 0
2, 204600, Note_on_c, 0, 95, 75
2, 204720, Note_on_c, 0, 95, 0
2, 204720, Note_on_c, 0, 88, 75
2, 204720, Note_on_c, 0, 91, 75
2, 204840, Note_on_c, 0, 91, 0
2, 204840, Note_on_c, 0, 88, 0
2, 204840, Note_on_c, 0, 96, 75
2, 204960, Note_on_c, 0, 96, 0
2, 204960, Note_on_c, 0, 88, 75
2, 204960, Note_on_c, 0, 91, 75
2, 205080, Note_on_c, 0, 91, 0
2, 205080, Note_on_c, 0, 88, 0
2, 205080, Note_on_c, 0, 95, 75
2, 205200, Note_on_c, 0, 95, 0
2, 205200, Note_on_c, 0, 84, 75
2, 205200, Note_on_c, 0, 88, 75
2, 205320, Note_on_c, 0, 88, 0
2, 205320, Note_on_c, 0, 84, 0
2, 205320, Note_on_c, 0, 91, 75
2, 205440, Note_on_c, 0, 91, 0
2, 205440, Note_on_c, 0, 85, 75
2, 205560, Note_on_c, 0, 85, 0
2, 205560, Note_on_c, 0, 87, 75
2, 205680, Note_on_c, 0, 87, 0
2, 205680, Note_on_c, 0, 84, 75
2, 205680, Note_on_c, 0, 88, 75
2, 205800, Note_on_c, 0, 88, 0
2, 205800, Note_on_c, 0, 84, 0
2, 205800, Note_on_c, 0, 90, 75
2, 205920, Note_on_c, 0, 90, 0
2, 205920, Note_on_c, 0, 83, 75
2, 205920, Note_on_c, 0, 91, 75
2, 206040, Note_on_c, 0, 91, 0
2, 206040, Note_on_c, 0, 83, 0
2, 206040, Note_on_c, 0, 90, 75
2, 206160, Note_on_c, 0, 90, 0
2, 206160, Note_on_c, 0, 84, 75
2, 206160, Note_on_c, 0, 88, 75
2, 206280, Note_on_c, 0, 88, 0
2, 206280, Note_on_c, 0, 84, 0
2, 206280, Note_on_c, 0, 90, 75
2, 206400, Note_on_c, 0, 90, 0
2, 206400, Note_on_c, 0, 88, 75
2, 206400, Note_on_c, 0, 91, 75
2, 206520, Note_on_c, 0, 91, 0
2, 206520, Note_on_c, 0, 88, 0
2, 206520, Note_on_c, 0, 95, 75
2, 206640, Note_on_c, 0, 95, 0
2, 206640, Note_on_c, 0, 88, 75
2, 206640, Note_on_c, 0, 91, 75
2, 206760, Note_on_c, 0, 91, 0
2, 206760, Note_on_c, 0, 88, 0
2, 206760, Note_on_c, 0, 96, 75
2, 206880, Note_on_c, 0, 96, 0
2, 206880, Note_on_c, 0, 88, 75
2, 206880, Note_on_c, 0, 91, 75
2, 207000, Note_on_c, 0, 91, 0
2, 207000, Note_on_c, 0, 88, 0
2, 207000, Note_on_c, 0, 95, 75
2, 207120, Note_on_c, 0, 95, 0
2, 207120, Note_on_c, 0, 84, 75
2, 207120, Note_on_c, 0, 88, 75
2, 207240, Note_on_c, 0, 88, 0
2, 207240, Note_on_c, 0, 84, 0
2, 207240, Note_on_c, 0, 91, 75
2, 207360, Note_on_c, 0, 91, 0
2, 207360, Note_on_c, 0, 83, 75
2, 207360, Note_on_c, 0, 88, 75
2, 207480, Note_on_c, 0, 88, 0
2, 207480, Note_on_c, 0, 83, 0
2, 207480, Note_on_c, 0, 91, 75
2, 207600, Note_on_c, 0, 91, 0
2, 207600, Note_on_c, 0, 79, 75
2, 207600, Note_on_c, 0, 84, 75
2, 207720, Note_on_c, 0, 84, 0
2, 207720, Note_on_c, 0, 79, 0
2, 207720, Note_on_c, 0, 88, 75
2, 207840, Note_on_c, 0, 88, 0
2, 207840, Note_on_c, 0, 79, 75
2, 207840, Note_on_c, 0, 83, 75
2, 207960, Note_on_c, 0, 83, 0
2, 207960, Note_on_c, 0, 79, 0
2, 207960, Note_on_c, 0, 88, 75
2, 208080, Note_on_c, 0, 88, 0
2, 208080, Note_on_c, 0, 84, 75
2, 208080, Note_on_c, 0, 88, 75
2, 208200, Note_on_c, 0, 88, 0
2, 208200, Note_on_c, 0, 84, 0
2, 208200, Note_on_c, 0, 90, 75
2, 208320, Note_on_c, 0, 90, 0
2, 208320, Note_on_c, 0, 88, 75
2, 208320, Note_on_c, 0, 91, 75
2, 208440, Note_on_c, 0, 91, 0
2, 208440, Note_on_c, 0, 88, 0
2, 208440, Note_on_c, 0, 95, 75
2, 208560, Note_on_c, 0, 95, 0
2, 208560, Note_on_c, 0, 88, 75
2, 208560, Note_on_c, 0, 91, 75
2, 208680, Note_on_c, 0, 91, 0
2, 208680, Note_on_c, 0, 88, 0
2, 208680, Note_on_c, 0, 96, 75
2, 208800, Note_on_c, 0, 96, 0
2, 208800, Note_on_c, 0, 88, 75
2, 208800, Note_on_c, 0, 91, 75
2, 208920, Note_on_c, 0, 91, 0
2, 208920, Note_on_c, 0, 88, 0
2, 208920, Note_on_c, 0, 95, 75
2, 209040, Note_on_c, 0, 95, 0
2, 209040, Note_on_c, 0, 84, 75
2, 209040, Note_on_c, 0, 88, 75
2, 209160, Note_on_c, 0, 88, 0
2, 209160, Note_on_c, 0, 84, 0
2, 209160, Note_on_c, 0, 91, 75
2, 209280, Note_on_c, 0, 91, 0
2, 209280, Note_on_c, 0, 85, 88
2, 209400, Note_on_c, 0, 85, 0
2, 209400, Note_on_c, 0, 87, 88
2, 209520, Note_on_c, 0, 87, 0
2, 209520, Note_on_c, 0, 84, 88
2, 209520, Note_on_c, 0, 88, 88
2, 209640, Note_on_c, 0, 88, 0
2, 209640, Note_on_c, 0, 84, 0
2, 209640, Note_on_c, 0, 90, 88
2, 209760, Note_on_c, 0, 90, 0
2, 209760, Note_on_c, 0, 83, 88
2, 209760, Note_on_c, 0, 91, 88
2, 209880, Note_on_c, 0, 91, 0
2, 209880, Note_on_c, 0, 83, 0
2, 209880, Note_on_c, 0, 90, 88
2, 210000, Note_on_c, 0, 90, 0
2, 210000, Note_on_c, 0, 84, 88
2, 210000, Note_on_c, 0, 88, 88
2, 210120, Note_on_c, 0, 88, 0
2, 210120, Note_on_c, 0, 84, 0
2, 210120, Note_on_c, 0, 90, 88
2, 210240, Note_on_c, 0, 90, 0
2, 210240, Note_on_c, 0, 85, 88
2, 210360, Note_on_c, 0, 85, 0
2, 210360, Note_on_c, 0, 87, 88
2, 210480, Note_on_c, 0, 87, 0
2, 210480, Note_on_c, 0, 84, 88
2, 210480, Note_on_c, 0, 88, 88
2, 210600, Note_on_c, 0, 88, 0
2, 210600, Note_on_c, 0, 84, 0
2, 210600, Note_on_c, 0, 90, 88
2, 210720, Note_on_c, 0, 90, 0
2, 210720, Note_on_c, 0, 83, 88
2, 210720, Note_on_c, 0, 91, 88
2, 210840, Note_on_c, 0, 91, 0
2, 210840, Note_on_c, 0, 83, 0
2, 210840, Note_on_c, 0, 90, 88
2, 210960, Note_on_c, 0, 90, 0
2, 210960, Note_on_c, 0, 84, 88
2, 210960, Note_on_c, 0, 88, 88
2, 211080, Note_on_c, 0, 88, 0
2, 211080, Note_on_c, 0, 84, 0
2, 211080, Note_on_c, 0, 90, 88
2, 211200, Note_on_c, 0, 90, 0
2, 211200, Note_on_c, 0, 85, 88
2, 211320, Note_on_c, 0, 85, 0
2, 211320, Note_on_c, 0, 87, 88
2, 211440, Note_on_c, 0, 87, 0
2, 211440, Note_on_c, 0, 84, 88
2, 211440, Note_on_c, 0, 88, 88
2, 211560, Note_on_c, 0, 88, 0
2, 211560, Note_on_c, 0, 84, 0
2, 211560, Note_on_c, 0, 90, 88
2, 211680, Note_on_c, 0, 90, 0
2, 211680, Note_on_c, 0, 83, 88
2, 211680, Note_on_c, 0, 91, 88
2, 211800, Note_on_c, 0, 91, 0
2, 211800, Note_on_c, 0, 83, 0
2, 211800, Note_on_c, 0, 90, 88
2, 211920, Note_on_c, 0, 90, 0
2, 211920, Note_on_c, 0, 84, 88
2, 211920, Note_on_c, 0, 88, 88
2, 212040, Note_on_c, 0, 88, 0
2, 212040, Note_on_c, 0, 84, 0
2, 212040, Note_on_c, 0, 90, 88
2, 212160, Note_on_c, 0, 90, 0
2, 212160, Note_on_c, 0, 85, 101
2, 212280, Note_on_c, 0, 85, 0
2, 212280, Note_on_c, 0, 87, 101
2, 212400, Note_on_c, 0, 87, 0
2, 212400, Note_on_c, 0, 84, 101
2, 212400, Note_on_c, 0, 88, 101
2, 212520, Note_on_c, 0, 88, 0
2, 212520, Note_on_c, 0, 84, 0
2, 212520, Note_on_c, 0, 90, 101
2, 212640, Note_on_c, 0, 90, 0
2, 212640, Note_on_c, 0, 83, 101
2, 212640, Note_on_c, 0, 91, 101
2, 212760, Note_on_c, 0, 91, 0
2, 212760, Note_on_c, 0, 83, 0
2, 212760, Note_on_c, 0, 90, 101
2, 212880, Note_on_c, 0, 90, 0
2, 212880, Note_on_c, 0, 84, 101
2, 212880, Note_on_c, 0, 88, 101
2, 213000, Note_on_c, 0, 88, 0
2, 213000, Note_on_c, 0, 84, 0
2, 213000, Note_on_c, 0, 90, 101
2, 213120, Note_on_c, 0, 90, 0
2, 213120, Note_on_c, 0, 95, 101
2, 213240, Note_on_c, 0, 95, 0
2, 213240, Note_on_c, 0, 97, 101
2, 213360, Note_on_c, 0, 97, 0
2, 213360, Note_on_c, 0, 99, 101
2, 213480, Note_on_c, 0, 99, 0
2, 213480, Note_on_c, 0, 102, 101
2, 213600, Note_on_c, 0, 102, 0
2, 213600, Note_on_c, 0, 100, 101
2, 213840, Note_on_c, 0, 100, 0
2, 213840, Note_on_c, 0, 67, 101
2, 213840, Note_on_c, 0, 71, 101
2, 213887, Note_on_c, 0, 71, 0
2, 213887, Note_on_c, 0, 67, 0
2, 214080, Note_on_c, 0, 59, 101
2, 214080, Note_on_c, 0, 64, 101
2, 214320, Note_on_c, 0, 64, 0
2, 214320, Note_on_c, 0, 59, 0
2, 214320, Note_on_c, 0, 67, 101
2, 214320, Note_on_c, 0, 71, 101
2, 214560, Note_on_c, 0, 71, 0
2, 214560, Note_on_c, 0, 67, 0
2, 214560, Note_on_c, 0, 59, 101
2, 214560, Note_on_c, 0, 67, 101
2, 214800, Note_on_c, 0, 67, 0
2, 214800, Note_on_c, 0, 59, 0
2, 214800, Note_on_c, 0, 67, 101
2, 214800, Note_on_c, 0, 71, 101
2, 215040, Note_on_c, 0, 71, 0
2, 215040, Note_on_c, 0, 67, 0
2, 215040, Note_on_c, 0, 64, 101
2, 215040, Note_on_c, 0, 67, 101
2, 215280, Note_on_c, 0, 67, 0
2, 215280, Note_on_c, 0, 64, 0
2, 215280, Note_on_c, 0, 67, 101
2, 215280, Note_on_c, 0, 71, 101
2, 215520, Note_on_c, 0, 71, 0
2, 215520, Note_on_c, 0, 67, 0
2, 215520, Note_on_c, 0, 64, 101
2, 215520, Note_on_c, 0, 67, 101
2, 215760, Note_on_c, 0, 67, 0
2, 215760, Note_on_c, 0, 64, 0
2, 215760, Note_on_c, 0, 67, 101
2, 215760, Note_on_c, 0, 71, 101
2, 216000, Note_on_c, 0, 71, 0
2, 216000, Note_on_c, 0, 67, 0
2, 216000, Note_on_c, 0, 59, 101
2, 216000, Note_on_c, 0, 64, 101
2, 216000, Note_on_c, 0, 68, 101
2, 216240, Note_on_c, 0, 68, 0
2, 216240, Note_on_c, 0, 64, 0
2, 216240, Note_on_c, 0, 59, 0
2, 216240, Note_on_c, 0, 64, 101
2, 216240, Note_on_c, 0, 68, 101
2, 216240, Note_on_c, 0, 71, 101
2, 216480, Note_on_c, 0, 71, 0
2, 216480, Note_on_c, 0, 68, 0
2, 216480, Note_on_c, 0, 64, 0
2, 216480, Note_on_c, 0, 59, 101
2, 216480, Note_on_c, 0, 64, 101
2, 216480, Note_on_c, 0, 68, 101
2, 216720, Note_on_c, 0, 68, 0
2, 216720, Note_on_c, 0, 64, 0
2, 216720, Note_on_c, 0, 59, 0
2, 216720, Note_on_c, 0, 64, 101
2, 216720, Note_on_c, 0, 68, 101
2, 216720, Note_on_c, 0, 71, 101
2, 216960, Note_on_c, 0, 71, 0
2, 216960, Note_on_c, 0, 68, 0
2, 216960, Note_on_c, 0, 64, 0
2, 216960, Note_on_c, 0, 60, 101
2, 216960, Note_on_c, 0, 64, 101
2, 216960, Note_on_c, 0, 69, 101
2, 217200, Note_on_c, 0, 69, 0
2, 217200, Note_on_c, 0, 64, 0
2, 217200, Note_on_c, 0, 60, 0
2, 217200, Note_on_c, 0, 64, 101
2, 217200, Note_on_c, 0, 69, 101
2, 217200, Note_on_c, 0, 72, 101
2, 217440, Note_on_c, 0, 72, 0
2, 217440, Note_on_c, 0, 69, 0
2, 217440, Note_on_c, 0, 64, 0
2, 217440, Note_on_c, 0, 60, 101
2, 217440, Note_on_c, 0, 64, 101
2, 217440, Note_on_c, 0, 69, 101
2, 217680, Note_on_c, 0, 69, 0
2, 217680, Note_on_c, 0, 64, 0
2, 217680, Note_on_c, 0, 60, 0
2, 217680, Note_on_c, 0, 64, 101
2, 217680, Note_on_c, 0, 69, 101
2, 217680, Note_on_c, 0, 72, 101
2, 217920, Note_on_c, 0, 72, 0
2, 217920, Note_on_c, 0, 69, 0
2, 217920, Note_on_c, 0, 64, 0
2, 217920, Note_on_c, 0, 64, 101
2, 217920, Note_on_c, 0, 69, 101
2, 218160, Note_on_c, 0, 69, 0
2, 218160, Note_on_c, 0, 64, 0
2, 218160, Note_on_c, 0, 64, 101
2, 218160, Note_on_c, 0, 69, 101
2, 218160, Note_on_c, 0, 72, 101
2, 218400, Note_on_c, 0, 72, 0
2, 218400, Note_on_c, 0, 69, 0
2, 218400, Note_on_c, 0, 64, 0
2, 218400, Note_on_c, 0, 64, 101
2, 218400, Note_on_c, 0, 69, 101
2, 218640, Note_on_c, 0, 69, 0
2, 218640, Note_on_c, 0, 64, 0
2, 218640, Note_on_c, 0, 64, 101
2, 218640, Note_on_c, 0, 69, 101
2, 218640, Note_on_c, 0, 72, 101
2, 218880, Note_on_c, 0, 72, 0
2, 218880, Note_on_c, 0, 69, 0
2, 218880, Note_on_c, 0, 64, 0
2, 218880, Note_on_c, 0, 60, 101
2, 218880, Note_on_c, 0, 63, 101
2, 218880, Note_on_c, 0, 69, 101
2, 219120, Note_on_c, 0, 69, 0
2, 219120, Note_on_c, 0, 63, 0
2, 219120, Note_on_c, 0, 60, 0
2, 219120, Note_on_c, 0, 63, 101
2, 219120, Note_on_c, 0, 69, 101
2, 219120, Note_on_c, 0, 72, 101
2, 219360, Note_on_c, 0, 72, 0
2, 219360, Note_on_c, 0, 69, 0
2, 219360, Note_on_c, 0, 63, 0
2, 219360, Note_on_c, 0, 60, 101
2, 219360, Note_on_c, 0, 63, 101
2, 219360, Note_on_c, 0, 69, 101
2, 219600, Note_on_c, 0, 69, 0
2, 219600, Note_on_c, 0, 63, 0
2, 219600, Note_on_c, 0, 60, 0
2, 219600, Note_on_c, 0, 63, 101
2, 219600, Note_on_c, 0, 69, 101
2, 219600, Note_on_c, 0, 72, 101
2, 219840, Note_on_c, 0, 72, 0
2, 219840, Note_on_c, 0, 69, 0
2, 219840, Note_on_c, 0, 63, 0
2, 219840, Note_on_c, 0, 60, 101
2, 219840, Note_on_c, 0, 63, 101
2, 219840, Note_on_c, 0, 69, 101
2, 220080, Note_on_c, 0, 69, 0
2, 220080, Note_on_c, 0, 63, 0
2, 220080, Note_on_c, 0, 60, 0
2, 220080, Note_on_c, 0, 63, 101
2, 220080, Note_on_c, 0, 69, 101
2, 220080, Note_on_c, 0, 72, 101
2, 220320, Note_on_c, 0, 72, 0
2, 220320, Note_on_c, 0, 69, 0
2, 220320, Note_on_c, 0, 63, 0
2, 220320, Note_on_c, 0, 60, 101
2, 220320, Note_on_c, 0, 63, 101
2, 220320, Note_on_c, 0, 69, 101
2, 220560, Note_on_c, 0, 69, 0
2, 220560, Note_on_c, 0, 63, 0
2, 220560, Note_on_c, 0, 60, 0
2, 220560, Note_on_c, 0, 63, 101
2, 220560, Note_on_c, 0, 69, 101
2, 220560, Note_on_c, 0, 72, 101
2, 220800, Note_on_c, 0, 72, 0
2, 220800, Note_on_c, 0, 69, 0
2, 220800, Note_on_c, 0, 63, 0
2, 220800, Note_on_c, 0, 59, 101
2, 220800, Note_on_c, 0, 64, 101
2, 220800, Note_on_c, 0, 67, 101
2, 221040, Note_on_c, 0, 67, 0
2, 221040, Note_on_c, 0, 64, 0
2, 221040, Note_on_c, 0, 59, 0
2, 221040, Note_on_c, 0, 64, 101
2, 221040, Note_on_c, 0, 67, 101
2, 221040, Note_on_c, 0, 71, 101
2, 221280, Note_on_c, 0, 71, 0
2, 221280, Note_on_c, 0, 67, 0
2, 221280, Note_on_c, 0, 64, 0
2, 221280, Note_on_c, 0, 59, 101
2, 221280, Note_on_c, 0, 64, 101
2, 221280, Note_on_c, 0, 67, 101
2, 221520, Note_on_c, 0, 67, 0
2, 221520, Note_on_c, 0, 64, 0
2, 221520, Note_on_c, 0, 59, 0
2, 221520, Note_on_c, 0, 64, 101
2, 221520, Note_on_c, 0, 67, 101
2, 221520, Note_on_c, 0, 71, 101
2, 221760, Note_on_c, 0, 71, 0
2, 221760, Note_on_c, 0, 67, 0
2, 221760, Note_on_c, 0, 64, 0
2, 221760, Note_on_c, 0, 59, 101
2, 221760, Note_on_c, 0, 64, 101
2, 222000, Note_on_c, 0, 64, 0
2, 222000, Note_on_c, 0, 59, 0
2, 222000, Note_on_c, 0, 67, 101
2, 222000, Note_on_c, 0, 71, 101
2, 222240, Note_on_c, 0, 71, 0
2, 222240, Note_on_c, 0, 67, 0
2, 222240, Note_on_c, 0, 59, 101
2, 222240, Note_on_c, 0, 67, 101
2, 222480, Note_on_c, 0, 67, 0
2, 222480, Note_on_c, 0, 59, 0
2, 222480, Note_on_c, 0, 67, 101
2, 222480, Note_on_c, 0, 71, 101
2, 222720, Note_on_c, 0, 71, 0
2, 222720, Note_on_c, 0, 67, 0
2, 222720, Note_on_c, 0, 64, 101
2, 222720, Note_on_c, 0, 67, 101
2, 222960, Note_on_c, 0, 67, 0
2, 222960, Note_on_c, 0, 64, 0
2, 222960, Note_on_c, 0, 67, 101
2, 222960, Note_on_c, 0, 71, 101
2, 223200, Note_on_c, 0, 71, 0
2, 223200, Note_on_c, 0, 67, 0
2, 223200, Note_on_c, 0, 64, 101
2, 223200, Note_on_c, 0, 67, 101
2, 223440, Note_on_c, 0, 67, 0
2, 223440, Note_on_c, 0, 64, 0
2, 223440, Note_on_c, 0, 67, 101
2, 223440, Note_on_c, 0, 71, 101
2, 223680, Note_on_c, 0, 71, 0
2, 223680, Note_on_c, 0, 67, 0
2, 223680, Note_on_c, 0, 59, 101
2, 223680, Note_on_c, 0, 64, 101
2, 223680, Note_on_c, 0, 68, 101
2, 223920, Note_on_c, 0, 68, 0
2, 223920, Note_on_c, 0, 64, 0
2, 223920, Note_on_c, 0, 59, 0
2, 223920, Note_on_c, 0, 64, 101
2, 223920, Note_on_c, 0, 68, 101
2, 223920, Note_on_c, 0, 71, 101
2, 224160, Note_on_c, 0, 71, 0
2, 224160, Note_on_c, 0, 68, 0
2, 224160, Note_on_c, 0, 64, 0
2, 224160, Note_on_c, 0, 59, 101
2, 224160, Note_on_c, 0, 64, 101
2, 224160, Note_on_c, 0, 68, 101
2, 224400, Note_on_c, 0, 68, 0
2, 224400, Note_on_c, 0, 64, 0
2, 224400, Note_on_c, 0, 59, 0
2, 224400, Note_on_c, 0, 64, 101
2, 224400, Note_on_c, 0, 68, 101
2, 224400, Note_on_c, 0, 71, 101
2, 224640, Note_on_c, 0, 71, 0
2, 224640, Note_on_c, 0, 68, 0
2, 224640, Note_on_c, 0, 64, 0
2, 224640, Note_on_c, 0, 60, 101
2, 224640, Note_on_c, 0, 64, 101
2, 224640, Note_on_c, 0, 69, 101
2, 224880, Note_on_c, 0, 69, 0
2, 224880, Note_on_c, 0, 64, 0
2, 224880, Note_on_c, 0, 60, 0
2, 224880, Note_on_c, 0, 64, 101
2, 224880, Note_on_c, 0, 69, 101
2, 224880, Note_on_c, 0, 72, 101
2, 225120, Note_on_c, 0, 72, 0
2, 225120, Note_on_c, 0, 69, 0
2, 225120, Note_on_c, 0, 64, 0
2, 225120, Note_on_c, 0, 60, 101
2, 225120, Note_on_c, 0, 64, 101
2, 225120, Note_on_c, 0, 69, 101
2, 225360, Note_on_c, 0, 69, 0
2, 225360, Note_on_c, 0, 64, 0
2, 225360, Note_on_c, 0, 60, 0
2, 225360, Note_on_c, 0, 64, 101
2, 225360, Note_on_c, 0, 69, 101
2, 225360, Note_on_c, 0, 72, 101
2, 225600, Note_on_c, 0, 72, 0
2, 225600, Note_on_c, 0, 69, 0
2, 225600, Note_on_c, 0, 64, 0
2, 225600, Note_on_c, 0, 64, 101
2, 225600, Note_on_c, 0, 69, 101
2, 225840, Note_on_c, 0, 69, 0
2, 225840, Note_on_c, 0, 64, 0
2, 225840, Note_on_c, 0, 64, 101
2, 225840, Note_on_c, 0, 69, 101
2, 225840, Note_on_c, 0, 72, 101
2, 226080, Note_on_c, 0, 72, 0
2, 226080, Note_on_c, 0, 69, 0
2, 226080, Note_on_c, 0, 64, 0
2, 226080, Note_on_c, 0, 64, 101
2, 226080, Note_on_c, 0, 69, 101
2, 226320, Note_on_c, 0, 69, 0
2, 226320, Note_on_c, 0, 64, 0
2, 226320, Note_on_c, 0, 64, 101
2, 226320, Note_on_c, 0, 69, 101
2, 226320, Note_on_c, 0, 72, 101
2, 226560, Note_on_c, 0, 72, 0
2, 226560, Note_on_c, 0, 69, 0
2, 226560, Note_on_c, 0, 64, 0
2, 226560, Note_on_c, 0, 60, 101
2, 226560, Note_on_c, 0, 63, 101
2, 226560, Note_on_c, 0, 69, 101
2, 226800, Note_on_c, 0, 69, 0
2, 226800, Note_on_c, 0, 63, 0
2, 226800, Note_on_c, 0, 60, 0
2, 226800, Note_on_c, 0, 63, 101
2, 226800, Note_on_c, 0, 69, 101
2, 226800, Note_on_c, 0, 72, 101
2, 227040, Note_on_c, 0, 72, 0
2, 227040, Note_on_c, 0, 69, 0
2, 227040, Note_on_c, 0, 63, 0
2, 227040, Note_on_c, 0, 60, 101
2, 227040, Note_on_c, 0, 63, 101
2, 227040, Note_on_c, 0, 69, 101
2, 227280, Note_on_c, 0, 69, 0
2, 227280, Note_on_c, 0, 63, 0
2, 227280, Note_on_c, 0, 60, 0
2, 227280, Note_on_c, 0, 63, 101
2, 227280, Note_on_c, 0, 69, 101
2, 227280, Note_on_c, 0, 72, 101
2, 227520, Note_on_c, 0, 72, 0
2, 227520, Note_on_c, 0, 69, 0
2, 227520, Note_on_c, 0, 63, 0
2, 227520, Note_on_c, 0, 60, 101
2, 227520, Note_on_c, 0, 63, 101
2, 227520, Note_on_c, 0, 69, 101
2, 227760, Note_on_c, 0, 69, 0
2, 227760, Note_on_c, 0, 63, 0
2, 227760, Note_on_c, 0, 60, 0
2, 227760, Note_on_c, 0, 63, 101
2, 227760, Note_on_c, 0, 69, 101
2, 227760, Note_on_c, 0, 72, 101
2, 228000, Note_on_c, 0, 72, 0
2, 228000, Note_on_c, 0, 69, 0
2, 228000, Note_on_c, 0, 63, 0
2, 228000, Note_on_c, 0, 60, 101
2, 228000, Note_on_c, 0, 63, 101
2, 228000, Note_on_c, 0, 69, 101
2, 228240, Note_on_c, 0, 69, 0
2, 228240, Note_on_c, 0, 63, 0
2, 228240, Note_on_c, 0, 60, 0
2, 228240, Note_on_c, 0, 63, 101
2, 228240, Note_on_c, 0, 69, 101
2, 228240, Note_on_c, 0, 72, 101
2, 228480, Note_on_c, 0, 72, 0
2, 228480, Note_on_c, 0, 69, 0
2, 228480, Note_on_c, 0, 63, 0
2, 228480, Note_on_c, 0, 59, 101
2, 228480, Note_on_c, 0, 64, 101
2, 228480, Note_on_c, 0, 67, 101
2, 228720, Note_on_c, 0, 67, 0
2, 228720, Note_on_c, 0, 64, 0
2, 228720, Note_on_c, 0, 59, 0
2, 228720, Note_on_c, 0, 64, 101
2, 228720, Note_on_c, 0, 67, 101
2, 228720, Note_on_c, 0, 71, 101
2, 228960, Note_on_c, 0, 71, 0
2, 228960, Note_on_c, 0, 67, 0
2, 228960, Note_on_c, 0, 64, 0
2, 228960, Note_on_c, 0, 59, 101
2, 228960, Note_on_c, 0, 64, 101
2, 228960, Note_on_c, 0, 67, 101
2, 229200, Note_on_c, 0, 67, 0
2, 229200, Note_on_c, 0, 64, 0
2, 229200, Note_on_c, 0, 59, 0
2, 229200, Note_on_c, 0, 64, 101
2, 229200, Note_on_c, 0, 67, 101
2, 229200, Note_on_c, 0, 71, 101
2, 229440, Note_on_c, 0, 71, 0
2, 229440, Note_on_c, 0, 67, 0
2, 229440, Note_on_c, 0, 64, 0
2, 229440, Note_on_c, 0, 79, 101
2, 229440, Note_on_c, 0, 91, 101
2, 230400, Note_on_c, 0, 91, 0
2, 230400, Note_on_c, 0, 79, 0
2, 230400, Note_on_c, 0, 67, 101
2, 230400, Note_on_c, 0, 79, 101
2, 231360, Note_on_c, 0, 79, 0
2, 231360, Note_on_c, 0, 67, 0
2, 231360, Note_on_c, 0, 72, 101
2, 231360, Note_on_c, 0, 84, 101
2, 232320, Note_on_c, 0, 84, 0
2, 232320, Note_on_c, 0, 72, 0
2, 232320, Note_on_c, 0, 61, 101
2, 232320, Note_on_c, 0, 73, 101
2, 233280, Note_on_c, 0, 73, 0
2, 233280, Note_on_c, 0, 61, 0
2, 233280, Note_on_c, 0, 66, 101
2, 233280, Note_on_c, 0, 78, 101
2, 234240, Note_on_c, 0, 78, 0
2, 234240, Note_on_c, 0, 66, 0
2, 234240, Note_on_c, 0, 66, 127
2, 234720, Note_on_c, 0, 66, 0
2, 234720, Note_on_c, 0, 68, 127
2, 235200, Note_on_c, 0, 68, 0
2, 235200, Note_on_c, 0, 69, 127
2, 235680, Note_on_c, 0, 69, 0
2, 235680, Note_on_c, 0, 70, 127
2, 236160, Note_on_c, 0, 70, 0
2, 236160, Note_on_c, 0, 71, 127
2, 236640, Note_on_c, 0, 71, 0
2, 237120, Note_on_c, 0, 79, 101
2, 237120, Note_on_c, 0, 91, 101
2, 238080, Note_on_c, 0, 91, 0
2, 238080, Note_on_c, 0, 79, 0
2, 238080, Note_on_c, 0, 67, 101
2, 238080, Note_on_c, 0, 79, 101
2, 239040, Note_on_c, 0, 79, 0
2, 239040, Note_on_c, 0, 67, 0
2, 239040, Note_on_c, 0, 73, 101
2, 239040, Note_on_c, 0, 85, 101
2, 240000, Note_on_c, 0, 85, 0
2, 240000, Note_on_c, 0, 73, 0
2, 240000, Note_on_c, 0, 61, 101
2, 240000, Note_on_c, 0, 73, 101
2, 240960, Note_on_c, 0, 73, 0
2, 240960, Note_on_c, 0, 61, 0
2, 240960, Note_on_c, 0, 66, 101
2, 240960, Note_on_c, 0, 78, 101
2, 241920, Note_on_c, 0, 78, 0
2, 241920, Note_on_c, 0, 66, 0
2, 241920, Note_on_c, 0, 66, 127
2, 242400, Note_on_c, 0, 66, 0
2, 242400, Note_on_c, 0, 68, 127
2, 242880, Note_on_c, 0, 68, 0
2, 242880, Note_on_c, 0, 69, 127
2, 243360, Note_on_c, 0, 69, 0
2, 243360, Note_on_c, 0, 70, 127
2, 243840, Note_on_c, 0, 70, 0
2, 243840, Note_on_c, 0, 71, 127
2, 244320, Note_on_c, 0, 71, 0
2, 244800, Note_on_c, 0, 80, 127
2, 245760, Note_on_c, 0, 80, 0
2, 245760, Note_on_c, 0, 65, 127
2, 246720, Note_on_c, 0, 65, 0
2, 246720, Note_on_c, 0, 61, 101
2, 246960, Note_on_c, 0, 61, 0
2, 246960, Note_on_c, 0, 65, 101
2, 247200, Note_on_c, 0, 65, 0
2, 247200, Note_on_c, 0, 61, 101
2, 247440, Note_on_c, 0, 61, 0
2, 247440, Note_on_c, 0, 65, 101
2, 247680, Note_on_c, 0, 65, 0
2, 247680, Note_on_c, 0, 61, 101
2, 247920, Note_on_c, 0, 61, 0
2, 247920, Note_on_c, 0, 66, 101
2, 248160, Note_on_c, 0, 66, 0
2, 248160, Note_on_c, 0, 66, 101
2, 248400, Note_on_c, 0, 66, 0
2, 248400, Note_on_c, 0, 61, 101
2, 248640, Note_on_c, 0, 61, 0
2, 248640, Note_on_c, 0, 78, 127
2, 249600, Note_on_c, 0, 78, 0
2, 249600, Note_on_c, 0, 63, 127
2, 250560, Note_on_c, 0, 63, 0
2, 250560, Note_on_c, 0, 59, 101
2, 250800, Note_on_c, 0, 59, 0
2, 250800, Note_on_c, 0, 63, 101
2, 251040, Note_on_c, 0, 63, 0
2, 251040, Note_on_c, 0, 59, 101
2, 251280, Note_on_c, 0, 59, 0
2, 251280, Note_on_c, 0, 63, 101
2, 251520, Note_on_c, 0, 63, 0
2, 251520, Note_on_c, 0, 59, 101
2, 251760, Note_on_c, 0, 59, 0
2, 251760, Note_on_c, 0, 64, 101
2, 252000, Note_on_c, 0, 64, 0
2, 252000, Note_on_c, 0, 64, 101
2, 252240, Note_on_c, 0, 64, 0
2, 252240, Note_on_c, 0, 59, 101
2, 252480, Note_on_c, 0, 59, 0
2, 252480, Note_on_c, 0, 60, 101
2, 252600, Note_on_c, 0, 60, 0
2, 252600, Note_on_c, 0, 62, 101
2, 252720, Note_on_c, 0, 62, 0
2, 252720, Note_on_c, 0, 60, 101
2, 252840, Note_on_c, 0, 60, 0
2, 252840, Note_on_c, 0, 62, 101
2, 252960, Note_on_c, 0, 62, 0
2, 252960, Note_on_c, 0, 64, 101
2, 253080, Note_on_c, 0, 64, 0
2, 253080, Note_on_c, 0, 66, 101
2, 253200, Note_on_c, 0, 66, 0
2, 253200, Note_on_c, 0, 64, 101
2, 253320, Note_on_c, 0, 64, 0
2, 253320, Note_on_c, 0, 66, 101
2, 253440, Note_on_c, 0, 66, 0
2, 253440, Note_on_c, 0, 67, 101
2, 253560, Note_on_c, 0, 67, 0
2, 253560, Note_on_c, 0, 69, 101
2, 253680, Note_on_c, 0, 69, 0
2, 253680, Note_on_c, 0, 67, 101
2, 253800, Note_on_c, 0, 67, 0
2, 253800, Note_on_c, 0, 69, 101
2, 253920, Note_on_c, 0, 69, 0
2, 253920, Note_on_c, 0, 70, 101
2, 254040, Note_on_c, 0, 70, 0
2, 254040, Note_on_c, 0, 71, 101
2, 254160, Note_on_c, 0, 71, 0
2, 254160, Note_on_c, 0, 70, 101
2, 254280, Note_on_c, 0, 70, 0
2, 254280, Note_on_c, 0, 71, 101
2, 254400, Note_on_c, 0, 71, 0
2, 254400, Note_on_c, 0, 60, 101
2, 254520, Note_on_c, 0, 60, 0
2, 254520, Note_on_c, 0, 62, 101
2, 254640, Note_on_c, 0, 62, 0
2, 254640, Note_on_c, 0, 60, 101
2, 254760, Note_on_c, 0, 60, 0
2, 254760, Note_on_c, 0, 62, 101
2, 254880, Note_on_c, 0, 62, 0
2, 254880, Note_on_c, 0, 64, 101
2, 255000, Note_on_c, 0, 64, 0
2, 255000, Note_on_c, 0, 66, 101
2, 255120, Note_on_c, 0, 66, 0
2, 255120, Note_on_c, 0, 64, 101
2, 255240, Note_on_c, 0, 64, 0
2, 255240, Note_on_c, 0, 66, 101
2, 255360, Note_on_c, 0, 66, 0
2, 255360, Note_on_c, 0, 67, 101
2, 255480, Note_on_c, 0, 67, 0
2, 255480, Note_on_c, 0, 69, 101
2, 255600, Note_on_c, 0, 69, 0
2, 255600, Note_on_c, 0, 67, 101
2, 255720, Note_on_c, 0, 67, 0
2, 255720, Note_on_c, 0, 69, 101
2, 255840, Note_on_c, 0, 69, 0
2, 255840, Note_on_c, 0, 70, 101
2, 255960, Note_on_c, 0, 70, 0
2, 255960, Note_on_c, 0, 71, 101
2, 256080, Note_on_c, 0, 71, 0
2, 256080, Note_on_c, 0, 70, 101
2, 256200, Note_on_c, 0, 70, 0
2, 256200, Note_on_c, 0, 71, 101
2, 256320, Note_on_c, 0, 71, 0
2, 256320, Note_on_c, 0, 72, 88
2, 256440, Note_on_c, 0, 72, 0
2, 256440, Note_on_c, 0, 74, 88
2, 256560, Note_on_c, 0, 74, 0
2, 256560, Note_on_c, 0, 72, 88
2, 256680, Note_on_c, 0, 72, 0
2, 256680, Note_on_c, 0, 74, 88
2, 256800, Note_on_c, 0, 74, 0
2, 256800, Note_on_c, 0, 76, 88
2, 256920, Note_on_c, 0, 76, 0
2, 256920, Note_on_c, 0, 78, 88
2, 257040, Note_on_c, 0, 78, 0
2, 257040, Note_on_c, 0, 76, 88
2, 257160, Note_on_c, 0, 76, 0
2, 257160, Note_on_c, 0, 78, 88
2, 257280, Note_on_c, 0, 78, 0
2, 257280, Note_on_c, 0, 79, 88
2, 257400, Note_on_c, 0, 79, 0
2, 257400, Note_on_c, 0, 81, 88
2, 257520, Note_on_c, 0, 81, 0
2, 257520, Note_on_c, 0, 79, 88
2, 257640, Note_on_c, 0, 79, 0
2, 257640, Note_on_c, 0, 81, 88
2, 257760, Note_on_c, 0, 81, 0
2, 257760, Note_on_c, 0, 82, 88
2, 257880, Note_on_c, 0, 82, 0
2, 257880, Note_on_c, 0, 83, 88
2, 258000, Note_on_c, 0, 83, 0
2, 258000, Note_on_c, 0, 82, 88
2, 258120, Note_on_c, 0, 82, 0
2, 258120, Note_on_c, 0, 83, 88
2, 258240, Note_on_c, 0, 83, 0
2, 258240, Note_on_c, 0, 72, 75
2, 258360, Note_on_c, 0, 72, 0
2, 258360, Note_on_c, 0, 74, 75
2, 258480, Note_on_c, 0, 74, 0
2, 258480, Note_on_c, 0, 72, 75
2, 258600, Note_on_c, 0, 72, 0
2, 258600, Note_on_c, 0, 74, 75
2, 258720, Note_on_c, 0, 74, 0
2, 258720, Note_on_c, 0, 76, 75
2, 258840, Note_on_c, 0, 76, 0
2, 258840, Note_on_c, 0, 78, 75
2, 258960, Note_on_c, 0, 78, 0
2, 258960, Note_on_c, 0, 76, 75
2, 259080, Note_on_c, 0, 76, 0
2, 259080, Note_on_c, 0, 78, 75
2, 259200, Note_on_c, 0, 78, 0
2, 259200, Note_on_c, 0, 79, 75
2, 259320, Note_on_c, 0, 79, 0
2, 259320, Note_on_c, 0, 81, 75
2, 259440, Note_on_c, 0, 81, 0
2, 259440, Note_on_c, 0, 79, 75
2, 259560, Note_on_c, 0, 79, 0
2, 259560, Note_on_c, 0, 81, 75
2, 259680, Note_on_c, 0, 81, 0
2, 259680, Note_on_c, 0, 82, 75
2, 259800, Note_on_c, 0, 82, 0
2, 259800, Note_on_c, 0, 83, 75
2, 259920, Note_on_c, 0, 83, 0
2, 259920, Note_on_c, 0, 82, 75
2, 260040, Note_on_c, 0, 82, 0
2, 260040, Note_on_c, 0, 83, 75
2, 260160, Note_on_c, 0, 83, 0
2, 260160, Note_on_c, 0, 76, 62
2, 260280, Note_on_c, 0, 76, 0
2, 260280, Note_on_c, 0, 78, 62
2, 260400, Note_on_c, 0, 78, 0
2, 260400, Note_on_c, 0, 79, 62
2, 260520, Note_on_c, 0, 79, 0
2, 260520, Note_on_c, 0, 81, 62
2, 260640, Note_on_c, 0, 81, 0
2, 260640, Note_on_c, 0, 82, 62
2, 260760, Note_on_c, 0, 82, 0
2, 260760, Note_on_c, 0, 83, 62
2, 260880, Note_on_c, 0, 83, 0
2, 260880, Note_on_c, 0, 82, 62
2, 261000, Note_on_c, 0, 82, 0
2, 261000, Note_on_c, 0, 83, 62
2, 261120, Note_on_c, 0, 83, 0
2, 261120, Note_on_c, 0, 76, 62
2, 261240, Note_on_c, 0, 76, 0
2, 261240, Note_on_c, 0, 78, 62
2, 261360, Note_on_c, 0, 78, 0
2, 261360, Note_on_c, 0, 79, 62
2, 261480, Note_on_c, 0, 79, 0
2, 261480, Note_on_c, 0, 81, 62
2, 261600, Note_on_c, 0, 81, 0
2, 261600, Note_on_c, 0, 82, 62
2, 261720, Note_on_c, 0, 82, 0
2, 261720, Note_on_c, 0, 83, 62
2, 261840, Note_on_c, 0, 83, 0
2, 261840, Note_on_c, 0, 82, 62
2, 261960, Note_on_c, 0, 82, 0
2, 261960, Note_on_c, 0, 83, 62
2, 262080, Note_on_c, 0, 83, 0
2, 262080, Note_on_c, 0, 83, 49
2, 262200, Note_on_c, 0, 83, 0
2, 262200, Note_on_c, 0, 84, 49
2, 262320, Note_on_c, 0, 84, 0
2, 262320, Note_on_c, 0, 83, 49
2, 262440, Note_on_c, 0, 83, 0
2, 262440, Note_on_c, 0, 84, 49
2, 262560, Note_on_c, 0, 84, 0
2, 262560, Note_on_c, 0, 85, 49
2, 262680, Note_on_c, 0, 85, 0
2, 262680, Note_on_c, 0, 86, 49
2, 262800, Note_on_c, 0, 86, 0
2, 262800, Note_on_c, 0, 85, 49
2, 262920, Note_on_c, 0, 85, 0
2, 262920, Note_on_c, 0, 86, 49
2, 263040, Note_on_c, 0, 86, 0
2, 263040, Note_on_c, 0, 86, 49
2, 263160, Note_on_c, 0, 86, 0
2, 263160, Note_on_c, 0, 87, 49
2, 263280, Note_on_c, 0, 87, 0
2, 263280, Note_on_c, 0, 86, 49
2, 263400, Note_on_c, 0, 86, 0
2, 263400, Note_on_c, 0, 87, 49
2, 263520, Note_on_c, 0, 87, 0
2, 263520, Note_on_c, 0, 88, 49
2, 264000, Note_on_c, 0, 88, 0
2, 265680, Note_on_c, 0, 91, 101
2, 265800, Note_on_c, 0, 91, 0
2, 265800, Note_on_c, 0, 79, 101
2, 265920, Note_on_c, 0, 79, 0
2, 265920, Note_on_c, 0, 91, 101
2, 266040, Note_on_c, 0, 91, 0
2, 266040, Note_on_c, 0, 79, 101
2, 266160, Note_on_c, 0, 79, 0
2, 266160, Note_on_c, 0, 90, 101
2, 266280, Note_on_c, 0, 90, 0
2, 266280, Note_on_c, 0, 78, 101
2, 266400, Note_on_c, 0, 78, 0
2, 266400, Note_on_c, 0, 88, 101
2, 266520, Note_on_c, 0, 88, 0
2, 266520, Note_on_c, 0, 76, 101
2, 266640, Note_on_c, 0, 76, 0
2, 266640, Note_on_c, 0, 86, 101
2, 266760, Note_on_c, 0, 86, 0
2, 266760, Note_on_c, 0, 74, 101
2, 266880, Note_on_c, 0, 74, 0
2, 266880, Note_on_c, 0, 84, 101
2, 267000, Note_on_c, 0, 84, 0
2, 267000, Note_on_c, 0, 72, 101
2, 267120, Note_on_c, 0, 72, 0
2, 267120, Note_on_c, 0, 79, 101
2, 267240, Note_on_c, 0, 79, 0
2, 267240, Note_on_c, 0, 67, 101
2, 267360, Note_on_c, 0, 67, 0
2, 267360, Note_on_c, 0, 76, 101
2, 267480, Note_on_c, 0, 76, 0
2, 267480, Note_on_c, 0, 64, 101
2, 267600, Note_on_c, 0, 64, 0
2, 267600, Note_on_c, 0, 74, 101
2, 267720, Note_on_c, 0, 74, 0
2, 267720, Note_on_c, 0, 62, 101
2, 267840, Note_on_c, 0, 62, 0
2, 267840, Note_on_c, 0, 72, 101
2, 268080, Note_on_c, 0, 72, 0
2, 268560, Note_on_c, 0, 79, 101
2, 268680, Note_on_c, 0, 79, 0
2, 268680, Note_on_c, 0, 67, 101
2, 268800, Note_on_c, 0, 67, 0
2, 268800, Note_on_c, 0, 79, 101
2, 268920, Note_on_c, 0, 79, 0
2, 268920, Note_on_c, 0, 67, 101
2, 269040, Note_on_c, 0, 67, 0
2, 269040, Note_on_c, 0, 78, 101
2, 269160, Note_on_c, 0, 78, 0
2, 269160, Note_on_c, 0, 66, 101
2, 269280, Note_on_c, 0, 66, 0
2, 269280, Note_on_c, 0, 76, 101
2, 269400, Note_on_c, 0, 76, 0
2, 269400, Note_on_c, 0, 64, 101
2, 269520, Note_on_c, 0, 64, 0
2, 269520, Note_on_c, 0, 74, 101
2, 269640, Note_on_c, 0, 74, 0
2, 269640, Note_on_c, 0, 62, 101
2, 269760, Note_on_c, 0, 62, 0
2, 269760, Note_on_c, 0, 72, 101
2, 269880, Note_on_c, 0, 72, 0
2, 269880, Note_on_c, 0, 60, 101
2, 270000, Note_on_c, 0, 60, 0
2, 270000, Note_on_c, 0, 67, 101
2, 270120, Note_on_c, 0, 67, 0
2, 270120, Note_on_c, 0, 55, 101
2, 270240, Note_on_c, 0, 55, 0
2, 270240, Note_on_c, 0, 64, 101
2, 270360, Note_on_c, 0, 64, 0
2, 270360, Note_on_c, 0, 52, 101
2, 270480, Note_on_c, 0, 52, 0
2, 270480, Note_on_c, 0, 62, 101
2, 270600, Note_on_c, 0, 62, 0
2, 270600, Note_on_c, 0, 50, 101
2, 270720, Note_on_c, 0, 50, 0
2, 270720, Note_on_c, 0, 60, 101
2, 270840, Note_on_c, 0, 60, 0
2, 270840, Note_on_c, 0, 60, 101
2, 270960, Note_on_c, 0, 60, 0
2, 270960, Note_on_c, 0, 60, 101
2, 271080, Note_on_c, 0, 60, 0
2, 271080, Note_on_c, 0, 60, 101
2, 271200, Note_on_c, 0, 60, 0
2, 271200, Note_on_c, 0, 60, 101
2, 271320, Note_on_c, 0, 60, 0
2, 271320, Note_on_c, 0, 60, 101
2, 271440, Note_on_c, 0, 60, 0
2, 271440, Note_on_c, 0, 60, 101
2, 271560, Note_on_c, 0, 60, 0
2, 271560, Note_on_c, 0, 60, 101
2, 271680, Note_on_c, 0, 60, 0
2, 271680, Note_on_c, 0, 60, 101
2, 271800, Note_on_c, 0, 60, 0
2, 271800, Note_on_c, 0, 60, 101
2, 271920, Note_on_c, 0, 60, 0
2, 271920, Note_on_c, 0, 60, 101
2, 272040, Note_on_c, 0, 60, 0
2, 272040, Note_on_c, 0, 60, 101
2, 272160, Note_on_c, 0, 60, 0
2, 272160, Note_on_c, 0, 60, 101
2, 272280, Note_on_c, 0, 60, 0
2, 272280, Note_on_c, 0, 60, 101
2, 272400, Note_on_c, 0, 60, 0
2, 272400, Note_on_c, 0, 60, 101
2, 272520, Note_on_c, 0, 60, 0
2, 272520, Note_on_c, 0, 60, 101
2, 272640, Note_on_c, 0, 60, 0
2, 272640, Note_on_c, 0, 60, 101
2, 272760, Note_on_c, 0, 60, 0
2, 272760, Note_on_c, 0, 60, 101
2, 272880, Note_on_c, 0, 60, 0
2, 272880, Note_on_c, 0, 60, 101
2, 273000, Note_on_c, 0, 60, 0
2, 273000, Note_on_c, 0, 60, 101
2, 273120, Note_on_c, 0, 60, 0
2, 273120, Note_on_c, 0, 60, 101
2, 273240, Note_on_c, 0, 60, 0
2, 273240, Note_on_c, 0, 60, 101
2, 273360, Note_on_c, 0, 60, 0
2, 273360, Note_on_c, 0, 60, 101
2, 273480, Note_on_c, 0, 60, 0
2, 273480, Note_on_c, 0, 60, 101
2, 273600, Note_on_c, 0, 60, 0
2, 273600, Note_on_c, 0, 60, 101
2, 273720, Note_on_c, 0, 60, 0
2, 273720, Note_on_c, 0, 60, 101
2, 273840, Note_on_c, 0, 60, 0
2, 273840, Note_on_c, 0, 60, 101
2, 273960, Note_on_c, 0, 60, 0
2, 273960, Note_on_c, 0, 60, 101
2, 274080, Note_on_c, 0, 60, 0
2, 274080, Note_on_c, 0, 60, 101
2, 274200, Note_on_c, 0, 60, 0
2, 274200, Note_on_c, 0, 60, 101
2, 274320, Note_on_c, 0, 60, 0
2, 274320, Note_on_c, 0, 60, 101
2, 274440, Note_on_c, 0, 60, 0
2, 274440, Note_on_c, 0, 60, 101
2, 274560, Note_on_c, 0, 60, 0
2, 274560, Note_on_c, 0, 60, 101
2, 274680, Note_on_c, 0, 60, 0
2, 274680, Note_on_c, 0, 60, 101
2, 274800, Note_on_c, 0, 60, 0
2, 274800, Note_on_c, 0, 60, 101
2, 274920, Note_on_c, 0, 60, 0
2, 274920, Note_on_c, 0, 60, 101
2, 275040, Note_on_c, 0, 60, 0
2, 275040, Note_on_c, 0, 60, 101
2, 275160, Note_on_c, 0, 60, 0
2, 275160, Note_on_c, 0, 60, 101
2, 275280, Note_on_c, 0, 60, 0
2, 275280, Note_on_c, 0, 60, 101
2, 275400, Note_on_c, 0, 60, 0
2, 275400, Note_on_c, 0, 60, 101
2, 275520, Note_on_c, 0, 60, 0
2, 275520, Note_on_c, 0, 60, 101
2, 275640, Note_on_c, 0, 60, 0
2, 275640, Note_on_c, 0, 60, 101
2, 275760, Note_on_c, 0, 60, 0
2, 275760, Note_on_c, 0, 60, 101
2, 275880, Note_on_c, 0, 60, 0
2, 275880, Note_on_c, 0, 60, 101
2, 276000, Note_on_c, 0, 60, 0
2, 276000, Note_on_c, 0, 60, 101
2, 276120, Note_on_c, 0, 60, 0
2, 276120, Note_on_c, 0, 60, 101
2, 276240, Note_on_c, 0, 60, 0
2, 276240, Note_on_c, 0, 60, 101
2, 276360, Note_on_c, 0, 60, 0
2, 276360, Note_on_c, 0, 60, 101
2, 276480, Note_on_c, 0, 60, 0
2, 276480, Note_on_c, 0, 60, 101
2, 276600, Note_on_c, 0, 60, 0
2, 276600, Note_on_c, 0, 60, 101
2, 276720, Note_on_c, 0, 60, 0
2, 276720, Note_on_c, 0, 60, 101
2, 276840, Note_on_c, 0, 60, 0
2, 276840, Note_on_c, 0, 60, 101
2, 276960, Note_on_c, 0, 60, 0
2, 276960, Note_on_c, 0, 60, 101
2, 277080, Note_on_c, 0, 60, 0
2, 277080, Note_on_c, 0, 60, 101
2, 277200, Note_on_c, 0, 60, 0
2, 277200, Note_on_c, 0, 60, 101
2, 277320, Note_on_c, 0, 60, 0
2, 277320, Note_on_c, 0, 60, 101
2, 277440, Note_on_c, 0, 60, 0
2, 277440, Note_on_c, 0, 60, 101
2, 277560, Note_on_c, 0, 60, 0
2, 277560, Note_on_c, 0, 60, 101
2, 277680, Note_on_c, 0, 60, 0
2, 277680, Note_on_c, 0, 60, 101
2, 277800, Note_on_c, 0, 60, 0
2, 277800, Note_on_c, 0, 60, 101
2, 277920, Note_on_c, 0, 60, 0
2, 277920, Note_on_c, 0, 60, 101
2, 278040, Note_on_c, 0, 60, 0
2, 278040, Note_on_c, 0, 60, 101
2, 278160, Note_on_c, 0, 60, 0
2, 278160, Note_on_c, 0, 60, 101
2, 278280, Note_on_c, 0, 60, 0
2, 278280, Note_on_c, 0, 60, 101
2, 278400, Note_on_c, 0, 60, 0
2, 278400, Note_on_c, 0, 60, 101
2, 278520, Note_on_c, 0, 60, 0
2, 278520, Note_on_c, 0, 60, 101
2, 278640, Note_on_c, 0, 60, 0
2, 278640, Note_on_c, 0, 60, 101
2, 278760, Note_on_c, 0, 60, 0
2, 278760, Note_on_c, 0, 60, 101
2, 278880, Note_on_c, 0, 60, 0
2, 278880, Note_on_c, 0, 60, 101
2, 279000, Note_on_c, 0, 60, 0
2, 279000, Note_on_c, 0, 60, 101
2, 279120, Note_on_c, 0, 60, 0
2, 279120, Note_on_c, 0, 60, 101
2, 279240, Note_on_c, 0, 60, 0
2, 279240, Note_on_c, 0, 60, 101
2, 279360, Note_on_c, 0, 60, 0
2, 279360, Note_on_c, 0, 60, 101
2, 279480, Note_on_c, 0, 60, 0
2, 279480, Note_on_c, 0, 60, 101
2, 279600, Note_on_c, 0, 60, 0
2, 279600, Note_on_c, 0, 60, 101
2, 279720, Note_on_c, 0, 60, 0
2, 279720, Note_on_c, 0, 60, 101
2, 279840, Note_on_c, 0, 60, 0
2, 279840, Note_on_c, 0, 60, 101
2, 279960, Note_on_c, 0, 60, 0
2, 279960, Note_on_c, 0, 60, 101
2, 280080, Note_on_c, 0, 60, 0
2, 280080, Note_on_c, 0, 60, 101
2, 280200, Note_on_c, 0, 60, 0
2, 280200, Note_on_c, 0, 60, 101
2, 280320, Note_on_c, 0, 60, 0
2, 280320, Note_on_c, 0, 60, 101
2, 280440, Note_on_c, 0, 60, 0
2, 280440, Note_on_c, 0, 60, 101
2, 280560, Note_on_c, 0, 60, 0
2, 280560, Note_on_c, 0, 60, 101
2, 280680, Note_on_c, 0, 60, 0
2, 280680, Note_on_c, 0, 60, 101
2, 280800, Note_on_c, 0, 60, 0
2, 280800, Note_on_c, 0, 60, 101
2, 280920, Note_on_c, 0, 60, 0
2, 280920, Note_on_c, 0, 60, 101
2, 281040, Note_on_c, 0, 60, 0
2, 281040, Note_on_c, 0, 60, 101
2, 281160, Note_on_c, 0, 60, 0
2, 281160, Note_on_c, 0, 60, 101
2, 281280, Note_on_c, 0, 60, 0
2, 281280, Note_on_c, 0, 60, 101
2, 281400, Note_on_c, 0, 60, 0
2, 281400, Note_on_c, 0, 60, 101
2, 281520, Note_on_c, 0, 60, 0
2, 281520, Note_on_c, 0, 60, 101
2, 281640, Note_on_c, 0, 60, 0
2, 281640, Note_on_c, 0, 60, 101
2, 281760, Note_on_c, 0, 60, 0
2, 281760, Note_on_c, 0, 60, 101
2, 281880, Note_on_c, 0, 60, 0
2, 281880, Note_on_c, 0, 60, 101
2, 282000, Note_on_c, 0, 60, 0
2, 282000, Note_on_c, 0, 60, 101
2, 282120, Note_on_c, 0, 60, 0
2, 282120, Note_on_c, 0, 60, 101
2, 282240, Note_on_c, 0, 60, 0
2, 282240, Note_on_c, 0, 60, 101
2, 282360, Note_on_c, 0, 60, 0
2, 282360, Note_on_c, 0, 60, 101
2, 282480, Note_on_c, 0, 60, 0
2, 282480, Note_on_c, 0, 60, 101
2, 282600, Note_on_c, 0, 60, 0
2, 282600, Note_on_c, 0, 60, 101
2, 282720, Note_on_c, 0, 60, 0
2, 282720, Note_on_c, 0, 60, 101
2, 282840, Note_on_c, 0, 60, 0
2, 282840, Note_on_c, 0, 60, 101
2, 282960, Note_on_c, 0, 60, 0
2, 282960, Note_on_c, 0, 60, 101
2, 283080, Note_on_c, 0, 60, 0
2, 283080, Note_on_c, 0, 60, 101
2, 283200, Note_on_c, 0, 60, 0
2, 283200, Note_on_c, 0, 60, 101
2, 283320, Note_on_c, 0, 60, 0
2, 283320, Note_on_c, 0, 60, 101
2, 283440, Note_on_c, 0, 60, 0
2, 283440, Note_on_c, 0, 60, 101
2, 283560, Note_on_c, 0, 60, 0
2, 283560, Note_on_c, 0, 60, 101
2, 283680, Note_on_c, 0, 60, 0
2, 283680, Note_on_c, 0, 60, 101
2, 283800, Note_on_c, 0, 60, 0
2, 283800, Note_on_c, 0, 60, 101
2, 283920, Note_on_c, 0, 60, 0
2, 283920, Note_on_c, 0, 60, 101
2, 284040, Note_on_c, 0, 60, 0
2, 284040, Note_on_c, 0, 60, 101
2, 284160, Note_on_c, 0, 60, 0
2, 284160, Note_on_c, 0, 60, 101
2, 284280, Note_on_c, 0, 60, 0
2, 284280, Note_on_c, 0, 60, 101
2, 284400, Note_on_c, 0, 60, 0
2, 284400, Note_on_c, 0, 60, 101
2, 284520, Note_on_c, 0, 60, 0
2, 284520, Note_on_c, 0, 60, 101
2, 284640, Note_on_c, 0, 60, 0
2, 284760, Note_on_c, 0, 60, 101
2, 284880, Note_on_c, 0, 60, 0
2, 284880, Note_on_c, 0, 60, 101
2, 285000, Note_on_c, 0, 60, 0
2, 285000, Note_on_c, 0, 60, 101
2, 285120, Note_on_c, 0, 60, 0
2, 285120, Note_on_c, 0, 60, 101
2, 285240, Note_on_c, 0, 60, 0
2, 285240, Note_on_c, 0, 60, 101
2, 285360, Note_on_c, 0, 60, 0
2, 285360, Note_on_c, 0, 60, 101
2, 285480, Note_on_c, 0, 60, 0
2, 285480, Note_on_c, 0, 60, 101
2, 285600, Note_on_c, 0, 60, 0
2, 285600, Note_on_c, 0, 60, 101
2, 285720, Note_on_c, 0, 60, 0
2, 285720, Note_on_c, 0, 60, 101
2, 285840, Note_on_c, 0, 60, 0
2, 285840, Note_on_c, 0, 60, 101
2, 285960, Note_on_c, 0, 60, 0
2, 285960, Note_on_c, 0, 60, 101
2, 286080, Note_on_c, 0, 60, 0
2, 286080, Note_on_c, 0, 60, 101
2, 286200, Note_on_c, 0, 60, 0
2, 286200, Note_on_c, 0, 60, 101
2, 286320, Note_on_c, 0, 60, 0
2, 286320, Note_on_c, 0, 60, 101
2, 286440, Note_on_c, 0, 60, 0
2, 286440, Note_on_c, 0, 60, 101
2, 286560, Note_on_c, 0, 60, 0
2, 286560, Note_on_c, 0, 60, 101
2, 286680, Note_on_c, 0, 60, 0
2, 286680, Note_on_c, 0, 60, 101
2, 286800, Note_on_c, 0, 60, 0
2, 286800, Note_on_c, 0, 60, 101
2, 286920, Note_on_c, 0, 60, 0
2, 286920, Note_on_c, 0, 60, 101
2, 287040, Note_on_c, 0, 60, 0
2, 287040, Note_on_c, 0, 60, 101
2, 287160, Note_on_c, 0, 60, 0
2, 287160, Note_on_c, 0, 60, 101
2, 287280, Note_on_c, 0, 60, 0
2, 287280, Note_on_c, 0, 60, 101
2, 287400, Note_on_c, 0, 60, 0
2, 287400, Note_on_c, 0, 60, 101
2, 287520, Note_on_c, 0, 60, 0
2, 287520, Note_on_c, 0, 60, 101
2, 287640, Note_on_c, 0, 60, 0
2, 287640, Note_on_c, 0, 60, 101
2, 287760, Note_on_c, 0, 60, 0
2, 287760, Note_on_c, 0, 60, 101
2, 287880, Note_on_c, 0, 60, 0
2, 287880, Note_on_c, 0, 60, 101
2, 288000, Note_on_c, 0, 60, 0
2, 288000, Note_on_c, 0, 60, 101
2, 288120, Note_on_c, 0, 60, 0
2, 288120, Note_on_c, 0, 60, 101
2, 288240, Note_on_c, 0, 60, 0
2, 288240, Note_on_c, 0, 60, 101
2, 288360, Note_on_c, 0, 60, 0
2, 288360, Note_on_c, 0, 60, 101
2, 288480, Note_on_c, 0, 60, 0
2, 288480, Note_on_c, 0, 60, 101
2, 288600, Note_on_c, 0, 60, 0
2, 288600, Note_on_c, 0, 60, 101
2, 288720, Note_on_c, 0, 60, 0
2, 288720, Note_on_c, 0, 60, 101
2, 288840, Note_on_c, 0, 60, 0
2, 288840, Note_on_c, 0, 60, 101
2, 288960, Note_on_c, 0, 60, 0
2, 288960, Note_on_c, 0, 60, 101
2, 289080, Note_on_c, 0, 60, 0
2, 289080, Note_on_c, 0, 60, 101
2, 289200, Note_on_c, 0, 60, 0
2, 289200, Note_on_c, 0, 60, 101
2, 289320, Note_on_c, 0, 60, 0
2, 289320, Note_on_c, 0, 60, 101
2, 289440, Note_on_c, 0, 60, 0
2, 289440, Note_on_c, 0, 60, 101
2, 289560, Note_on_c, 0, 60, 0
2, 289560, Note_on_c, 0, 60, 101
2, 289680, Note_on_c, 0, 60, 0
2, 289680, Note_on_c, 0, 60, 101
2, 289800, Note_on_c, 0, 60, 0
2, 289800, Note_on_c, 0, 60, 101
2, 289920, Note_on_c, 0, 60, 0
2, 289920, Note_on_c, 0, 60, 101
2, 290040, Note_on_c, 0, 60, 0
2, 290040, Note_on_c, 0, 60, 101
2, 290160, Note_on_c, 0, 60, 0
2, 290160, Note_on_c, 0, 60, 101
2, 290280, Note_on_c, 0, 60, 0
2, 290280, Note_on_c, 0, 60, 101
2, 290400, Note_on_c, 0, 60, 0
2, 290520, Note_on_c, 0, 60, 101
2, 290640, Note_on_c, 0, 60, 0
2, 290640, Note_on_c, 0, 60, 101
2, 290760, Note_on_c, 0, 60, 0
2, 290760, Note_on_c, 0, 60, 101
2, 290880, Note_on_c, 0, 60, 0
2, 290880, Note_on_c, 0, 60, 101
2, 291000, Note_on_c, 0, 60, 0
2, 291000, Note_on_c, 0, 60, 101
2, 291120, Note_on_c, 0, 60, 0
2, 291120, Note_on_c, 0, 60, 101
2, 291240, Note_on_c, 0, 60, 0
2, 291240, Note_on_c, 0, 60, 101
2, 291360, Note_on_c, 0, 60, 0
2, 291360, Note_on_c, 0, 60, 101
2, 291480, Note_on_c, 0, 60, 0
2, 291480, Note_on_c, 0, 60, 101
2, 291600, Note_on_c, 0, 60, 0
2, 291600, Note_on_c, 0, 60, 101
2, 291720, Note_on_c, 0, 60, 0
2, 291720, Note_on_c, 0, 60, 101
2, 291840, Note_on_c, 0, 60, 0
2, 291840, Note_on_c, 0, 60, 101
2, 291960, Note_on_c, 0, 60, 0
2, 291960, Note_on_c, 0, 60, 101
2, 292080, Note_on_c, 0, 60, 0
2, 292080, Note_on_c, 0, 60, 101
2, 292200, Note_on_c, 0, 60, 0
2, 292200, Note_on_c, 0, 60, 101
2, 292320, Note_on_c, 0, 60, 0
2, 292320, Note_on_c, 0, 60, 101
2, 292440, Note_on_c, 0, 60, 0
2, 292440, Note_on_c, 0, 60, 101
2, 292560, Note_on_c, 0, 60, 0
2, 292560, Note_on_c, 0, 60, 101
2, 292680, Note_on_c, 0, 60, 0
2, 292680, Note_on_c, 0, 60, 101
2, 292800, Note_on_c, 0, 60, 0
2, 292800, Note_on_c, 0, 60, 101
2, 292920, Note_on_c, 0, 60, 0
2, 292920, Note_on_c, 0, 60, 101
2, 293040, Note_on_c, 0, 60, 0
2, 293040, Note_on_c, 0, 60, 101
2, 293160, Note_on_c, 0, 60, 0
2, 293160, Note_on_c, 0, 60, 101
2, 293280, Note_on_c, 0, 60, 0
2, 293280, Note_on_c, 0, 60, 101
2, 293400, Note_on_c, 0, 60, 0
2, 293400, Note_on_c, 0, 60, 101
2, 293520, Note_on_c, 0, 60, 0
2, 293520, Note_on_c, 0, 60, 101
2, 293640, Note_on_c, 0, 60, 0
2, 293640, Note_on_c, 0, 60, 101
2, 293760, Note_on_c, 0, 60, 0
2, 293760, Note_on_c, 0, 60, 101
2, 293880, Note_on_c, 0, 60, 0
2, 293880, Note_on_c, 0, 60, 101
2, 294000, Note_on_c, 0, 60, 0
2, 294000, Note_on_c, 0, 60, 101
2, 294120, Note_on_c, 0, 60, 0
2, 294120, Note_on_c, 0, 60, 101
2, 294240, Note_on_c, 0, 60, 0
2, 294240, Note_on_c, 0, 60, 101
2, 294360, Note_on_c, 0, 60, 0
2, 294360, Note_on_c, 0, 60, 101
2, 294480, Note_on_c, 0, 60, 0
2, 294480, Note_on_c, 0, 60, 101
2, 294600, Note_on_c, 0, 60, 0
2, 294600, Note_on_c, 0, 60, 101
2, 294720, Note_on_c, 0, 60, 0
2, 294720, Note_on_c, 0, 60, 101
2, 294840, Note_on_c, 0, 60, 0
2, 294840, Note_on_c, 0, 60, 101
2, 294960, Note_on_c, 0, 60, 0
2, 294960, Note_on_c, 0, 60, 101
2, 295080, Note_on_c, 0, 60, 0
2, 295080, Note_on_c, 0, 60, 101
2, 295200, Note_on_c, 0, 60, 0
2, 295200, Note_on_c, 0, 60, 101
2, 295320, Note_on_c, 0, 60, 0
2, 295320, Note_on_c, 0, 60, 101
2, 295440, Note_on_c, 0, 60, 0
2, 295440, Note_on_c, 0, 60, 101
2, 295560, Note_on_c, 0, 60, 0
2, 295560, Note_on_c, 0, 60, 101
2, 295680, Note_on_c, 0, 60, 0
2, 295680, Note_on_c, 0, 60, 101
2, 295800, Note_on_c, 0, 60, 0
2, 295800, Note_on_c, 0, 60, 101
2, 295920, Note_on_c, 0, 60, 0
2, 295920, Note_on_c, 0, 60, 101
2, 296040, Note_on_c, 0, 60, 0
2, 296040, Note_on_c, 0, 60, 101
2, 296160, Note_on_c, 0, 60, 0
2, 296280, Note_on_c, 0, 60, 101
2, 296400, Note_on_c, 0, 60, 0
2, 296400, Note_on_c, 0, 60, 101
2, 296520, Note_on_c, 0, 60, 0
2, 296520, Note_on_c, 0, 60, 101
2, 296640, Note_on_c, 0, 60, 0
2, 296640, Note_on_c, 0, 65, 101
2, 296640, Note_on_c, 0, 68, 101
2, 296640, Note_on_c, 0, 72, 101
2, 296760, Note_on_c, 0, 72, 0
2, 296760, Note_on_c, 0, 68, 0
2, 296760, Note_on_c, 0, 65, 0
2, 296760, Note_on_c, 0, 60, 101
2, 296880, Note_on_c, 0, 60, 0
2, 296880, Note_on_c, 0, 60, 101
2, 297000, Note_on_c, 0, 60, 0
2, 297000, Note_on_c, 0, 65, 127
2, 297000, Note_on_c, 0, 68, 127
2, 297000, Note_on_c, 0, 72, 127
2, 297120, Note_on_c, 0, 72, 0
2, 297120, Note_on_c, 0, 68, 0
2, 297120, Note_on_c, 0, 65, 0
2, 297120, Note_on_c, 0, 65, 101
2, 297120, Note_on_c, 0, 68, 101
2, 297120, Note_on_c, 0, 72, 101
2, 297240, Note_on_c, 0, 72, 0
2, 297240, Note_on_c, 0, 68, 0
2, 297240, Note_on_c, 0, 65, 0
2, 297240, Note_on_c, 0, 60, 101
2, 297360, Note_on_c, 0, 60, 0
2, 297360, Note_on_c, 0, 60, 101
2, 297480, Note_on_c, 0, 60, 0
2, 297480, Note_on_c, 0, 60, 101
2, 297600, Note_on_c, 0, 60, 0
2, 297600, Note_on_c, 0, 60, 101
2, 297720, Note_on_c, 0, 60, 0
2, 297720, Note_on_c, 0, 60, 101
2, 297840, Note_on_c, 0, 60, 0
2, 297840, Note_on_c, 0, 60, 101
2, 297960, Note_on_c, 0, 60, 0
2, 297960, Note_on_c, 0, 60, 101
2, 298080, Note_on_c, 0, 60, 0
2, 298080, Note_on_c, 0, 60, 101
2, 298200, Note_on_c, 0, 60, 0
2, 298200, Note_on_c, 0, 60, 101
2, 298320, Note_on_c, 0, 60, 0
2, 298320, Note_on_c, 0, 60, 101
2, 298440, Note_on_c, 0, 60, 0
2, 298440, Note_on_c, 0, 60, 101
2, 298560, Note_on_c, 0, 60, 0
2, 298560, Note_on_c, 0, 60, 101
2, 298680, Note_on_c, 0, 60, 0
2, 298680, Note_on_c, 0, 60, 101
2, 298800, Note_on_c, 0, 60, 0
2, 298800, Note_on_c, 0, 60, 101
2, 298920, Note_on_c, 0, 60, 0
2, 298920, Note_on_c, 0, 60, 101
2, 299040, Note_on_c, 0, 60, 0
2, 299160, Note_on_c, 0, 60, 101
2, 299280, Note_on_c, 0, 60, 0
2, 299280, Note_on_c, 0, 60, 101
2, 299400, Note_on_c, 0, 60, 0
2, 299400, Note_on_c, 0, 60, 101
2, 299520, Note_on_c, 0, 60, 0
2, 299520, Note_on_c, 0, 65, 101
2, 299520, Note_on_c, 0, 68, 101
2, 299520, Note_on_c, 0, 72, 101
2, 299640, Note_on_c, 0, 72, 0
2, 299640, Note_on_c, 0, 68, 0
2, 299640, Note_on_c, 0, 65, 0
2, 299640, Note_on_c, 0, 60, 101
2, 299760, Note_on_c, 0, 60, 0
2, 299760, Note_on_c, 0, 60, 101
2, 299880, Note_on_c, 0, 60, 0
2, 299880, Note_on_c, 0, 65, 101
2, 299880, Note_on_c, 0, 68, 101
2, 299880, Note_on_c, 0, 72, 101
2, 300000, Note_on_c, 0, 72, 0
2, 300000, Note_on_c, 0, 68, 0
2, 300000, Note_on_c, 0, 65, 0
2, 300000, Note_on_c, 0, 65, 101
2, 300000, Note_on_c, 0, 68, 101
2, 300000, Note_on_c, 0, 72, 101
2, 300120, Note_on_c, 0, 72, 0
2, 300120, Note_on_c, 0, 68, 0
2, 300120, Note_on_c, 0, 65, 0
2, 300120, Note_on_c, 0, 60, 101
2, 300240, Note_on_c, 0, 60, 0
2, 300240, Note_on_c, 0, 60, 101
2, 300360, Note_on_c, 0, 60, 0
2, 300360, Note_on_c, 0, 60, 101
2, 300480, Note_on_c, 0, 60, 0
2, 300480, Note_on_c, 0, 60, 101
2, 300600, Note_on_c, 0, 60, 0
2, 300600, Note_on_c, 0, 60, 101
2, 300720, Note_on_c, 0, 60, 0
2, 300720, Note_on_c, 0, 60, 101
2, 300840, Note_on_c, 0, 60, 0
2, 300840, Note_on_c, 0, 60, 101
2, 300960, Note_on_c, 0, 60, 0
2, 300960, Note_on_c, 0, 65, 101
2, 300960, Note_on_c, 0, 68, 101
2, 300960, Note_on_c, 0, 72, 101
2, 301080, Note_on_c, 0, 72, 0
2, 301080, Note_on_c, 0, 68, 0
2, 301080, Note_on_c, 0, 65, 0
2, 301080, Note_on_c, 0, 60, 101
2, 301200, Note_on_c, 0, 60, 0
2, 301200, Note_on_c, 0, 60, 101
2, 301320, Note_on_c, 0, 60, 0
2, 301320, Note_on_c, 0, 65, 101
2, 301320, Note_on_c, 0, 68, 101
2, 301320, Note_on_c, 0, 72, 101
2, 301440, Note_on_c, 0, 72, 0
2, 301440, Note_on_c, 0, 68, 0
2, 301440, Note_on_c, 0, 65, 0
2, 301440, Note_on_c, 0, 65, 101
2, 301440, Note_on_c, 0, 68, 101
2, 301440, Note_on_c, 0, 72, 101
2, 301560, Note_on_c, 0, 72, 0
2, 301560, Note_on_c, 0, 68, 0
2, 301560, Note_on_c, 0, 65, 0
2, 301560, Note_on_c, 0, 60, 101
2, 301680, Note_on_c, 0, 60, 0
2, 301680, Note_on_c, 0, 60, 101
2, 301800, Note_on_c, 0, 60, 0
2, 301800, Note_on_c, 0, 60, 101
2, 301920, Note_on_c, 0, 60, 0
2, 301920, Note_on_c, 0, 60, 101
2, 302040, Note_on_c, 0, 60, 0
2, 302040, Note_on_c, 0, 60, 101
2, 302160, Note_on_c, 0, 60, 0
2, 302160, Note_on_c, 0, 60, 101
2, 302280, Note_on_c, 0, 60, 0
2, 302280, Note_on_c, 0, 60, 101
2, 302400, Note_on_c, 0, 60, 0
2, 302400, Note_on_c, 0, 65, 101
2, 302400, Note_on_c, 0, 68, 101
2, 302400, Note_on_c, 0, 72, 101
2, 302520, Note_on_c, 0, 72, 0
2, 302520, Note_on_c, 0, 68, 0
2, 302520, Note_on_c, 0, 65, 0
2, 302520, Note_on_c, 0, 60, 101
2, 302640, Note_on_c, 0, 60, 0
2, 302640, Note_on_c, 0, 60, 101
2, 302760, Note_on_c, 0, 60, 0
2, 302760, Note_on_c, 0, 65, 101
2, 302760, Note_on_c, 0, 68, 101
2, 302760, Note_on_c, 0, 72, 101
2, 302880, Note_on_c, 0, 72, 0
2, 302880, Note_on_c, 0, 68, 0
2, 302880, Note_on_c, 0, 65, 0
2, 302880, Note_on_c, 0, 60, 101
2, 302880, Note_on_c, 0, 65, 101
2, 302880, Note_on_c, 0, 68, 101
2, 302880, Note_on_c, 0, 72, 101
2, 303120, Note_on_c, 0, 72, 0
2, 303120, Note_on_c, 0, 60, 0
2, 303120, Note_on_c, 0, 65, 0
2, 303120, Note_on_c, 0, 68, 0
2, 303360, Note_on_c, 0, 72, 127
2, 303720, Note_on_c, 0, 72, 0
2, 303720, Note_on_c, 0, 72, 127
2, 303840, Note_on_c, 0, 72, 0
2, 303840, Note_on_c, 0, 72, 127
2, 304080, Note_on_c, 0, 72, 0
2, 304320, Note_on_c, 0, 72, 127
2, 304680, Note_on_c, 0, 72, 0
2, 304680, Note_on_c, 0, 72, 127
2, 304800, Note_on_c, 0, 72, 0
2, 304800, Note_on_c, 0, 72, 101
2, 305040, Note_on_c, 0, 72, 0
2, 305280, Note_on_c, 0, 72, 127
2, 305640, Note_on_c, 0, 72, 0
2, 305640, Note_on_c, 0, 72, 127
2, 305760, Note_on_c, 0, 72, 0
2, 305760, Note_on_c, 0, 65, 101
2, 305807, Note_on_c, 0, 65, 0
2, 306000, Note_on_c, 0, 68, 101
2, 306047, Note_on_c, 0, 68, 0
2, 306240, Note_on_c, 0, 65, 101
2, 306287, Note_on_c, 0, 65, 0
2, 306480, Note_on_c, 0, 68, 101
2, 306527, Note_on_c, 0, 68, 0
2, 306720, Note_on_c, 0, 65, 101
2, 306767, Note_on_c, 0, 65, 0
2, 306960, Note_on_c, 0, 68, 101
2, 307007, Note_on_c, 0, 68, 0
2, 307200, Note_on_c, 0, 65, 101
2, 307440, Note_on_c, 0, 65, 0
2, 307440, Note_on_c, 0, 83, 101
2, 307520, Note_on_c, 0, 83, 0
2, 307520, Note_on_c, 0, 82, 101
2, 307599, Note_on_c, 0, 82, 0
2, 307599, Note_on_c, 0, 81, 101
2, 307680, Note_on_c, 0, 81, 0
2, 307680, Note_on_c, 0, 80, 101
2, 307920, Note_on_c, 0, 80, 0
2, 307920, Note_on_c, 0, 92, 101
2, 308000, Note_on_c, 0, 92, 0
2, 308000, Note_on_c, 0, 93, 101
2, 308079, Note_on_c, 0, 93, 0
2, 308079, Note_on_c, 0, 94, 101
2, 308160, Note_on_c, 0, 94, 0
2, 308160, Note_on_c, 0, 95, 101
2, 308400, Note_on_c, 0, 95, 0
2, 308400, Note_on_c, 0, 83, 101
2, 308480, Note_on_c, 0, 83, 0
2, 308480, Note_on_c, 0, 82, 101
2, 308559, Note_on_c, 0, 82, 0
2, 308559, Note_on_c, 0, 81, 101
2, 308640, Note_on_c, 0, 81, 0
2, 308640, Note_on_c, 0, 80, 101
2, 308880, Note_on_c, 0, 80, 0
2, 308880, Note_on_c, 0, 92, 101
2, 308960, Note_on_c, 0, 92, 0
2, 308960, Note_on_c, 0, 93, 101
2, 309039, Note_on_c, 0, 93, 0
2, 309039, Note_on_c, 0, 94, 101
2, 309120, Note_on_c, 0, 94, 0
2, 309120, Note_on_c, 0, 95, 101
2, 309360, Note_on_c, 0, 95, 0
2, 309360, Note_on_c, 0, 61, 101
2, 309360, Note_on_c, 0, 68, 101
2, 309480, Note_on_c, 0, 68, 0
2, 309480, Note_on_c, 0, 61, 0
2, 309480, Note_on_c, 0, 60, 101
2, 309600, Note_on_c, 0, 60, 0
2, 309600, Note_on_c, 0, 65, 101
2, 309647, Note_on_c, 0, 65, 0
2, 309840, Note_on_c, 0, 68, 101
2, 309887, Note_on_c, 0, 68, 0
2, 310080, Note_on_c, 0, 65, 101
2, 310127, Note_on_c, 0, 65, 0
2, 310320, Note_on_c, 0, 68, 101
2, 310367, Note_on_c, 0, 68, 0
2, 310560, Note_on_c, 0, 65, 101
2, 310607, Note_on_c, 0, 65, 0
2, 310800, Note_on_c, 0, 68, 101
2, 310847, Note_on_c, 0, 68, 0
2, 311040, Note_on_c, 0, 65, 101
2, 311280, Note_on_c, 0, 65, 0
2, 311280, Note_on_c, 0, 83, 101
2, 311360, Note_on_c, 0, 83, 0
2, 311360, Note_on_c, 0, 82, 101
2, 311439, Note_on_c, 0, 82, 0
2, 311439, Note_on_c, 0, 81, 101
2, 311520, Note_on_c, 0, 81, 0
2, 311520, Note_on_c, 0, 80, 101
2, 311760, Note_on_c, 0, 80, 0
2, 311760, Note_on_c, 0, 92, 101
2, 311840, Note_on_c, 0, 92, 0
2, 311840, Note_on_c, 0, 93, 101
2, 311919, Note_on_c, 0, 93, 0
2, 311919, Note_on_c, 0, 94, 101
2, 312000, Note_on_c, 0, 94, 0
2, 312000, Note_on_c, 0, 95, 101
2, 312240, Note_on_c, 0, 95, 0
2, 312240, Note_on_c, 0, 83, 101
2, 312320, Note_on_c, 0, 83, 0
2, 312320, Note_on_c, 0, 82, 101
2, 312399, Note_on_c, 0, 82, 0
2, 312399, Note_on_c, 0, 81, 101
2, 312480, Note_on_c, 0, 81, 0
2, 312480, Note_on_c, 0, 80, 101
2, 312720, Note_on_c, 0, 80, 0
2, 312720, Note_on_c, 0, 92, 101
2, 312800, Note_on_c, 0, 92, 0
2, 312800, Note_on_c, 0, 93, 101
2, 312879, Note_on_c, 0, 93, 0
2, 312879, Note_on_c, 0, 94, 101
2, 312960, Note_on_c, 0, 94, 0
2, 312960, Note_on_c, 0, 95, 101
2, 313200, Note_on_c, 0, 95, 0
2, 313200, Note_on_c, 0, 65, 101
2, 313200, Note_on_c, 0, 71, 101
2, 313320, Note_on_c, 0, 71, 0
2, 313320, Note_on_c, 0, 65, 0
2, 313320, Note_on_c, 0, 63, 101
2, 313440, Note_on_c, 0, 63, 0
2, 313440, Note_on_c, 0, 68, 101
2, 313487, Note_on_c, 0, 68, 0
2, 313680, Note_on_c, 0, 71, 101
2, 313727, Note_on_c, 0, 71, 0
2, 313920, Note_on_c, 0, 68, 101
2, 313967, Note_on_c, 0, 68, 0
2, 314160, Note_on_c, 0, 71, 101
2, 314207, Note_on_c, 0, 71, 0
2, 314400, Note_on_c, 0, 68, 101
2, 314447, Note_on_c, 0, 68, 0
2, 314640, Note_on_c, 0, 71, 101
2, 314687, Note_on_c, 0, 71, 0
2, 314880, Note_on_c, 0, 68, 101
2, 314927, Note_on_c, 0, 68, 0
2, 315120, Note_on_c, 0, 86, 101
2, 315200, Note_on_c, 0, 86, 0
2, 315200, Note_on_c, 0, 85, 101
2, 315279, Note_on_c, 0, 85, 0
2, 315279, Note_on_c, 0, 84, 101
2, 315360, Note_on_c, 0, 84, 0
2, 315360, Note_on_c, 0, 83, 101
2, 315600, Note_on_c, 0, 83, 0
2, 315600, Note_on_c, 0, 95, 101
2, 315680, Note_on_c, 0, 95, 0
2, 315680, Note_on_c, 0, 96, 101
2, 315759, Note_on_c, 0, 96, 0
2, 315759, Note_on_c, 0, 97, 101
2, 315840, Note_on_c, 0, 97, 0
2, 315840, Note_on_c, 0, 98, 101
2, 316080, Note_on_c, 0, 98, 0
2, 316080, Note_on_c, 0, 86, 101
2, 316160, Note_on_c, 0, 86, 0
2, 316160, Note_on_c, 0, 85, 101
2, 316239, Note_on_c, 0, 85, 0
2, 316239, Note_on_c, 0, 84, 101
2, 316320, Note_on_c, 0, 84, 0
2, 316320, Note_on_c, 0, 83, 101
2, 316560, Note_on_c, 0, 83, 0
2, 316560, Note_on_c, 0, 95, 101
2, 316640, Note_on_c, 0, 95, 0
2, 316640, Note_on_c, 0, 96, 101
2, 316719, Note_on_c, 0, 96, 0
2, 316719, Note_on_c, 0, 97, 101
2, 316800, Note_on_c, 0, 97, 0
2, 316800, Note_on_c, 0, 98, 101
2, 317040, Note_on_c, 0, 98, 0
2, 317040, Note_on_c, 0, 65, 101
2, 317040, Note_on_c, 0, 71, 101
2, 317160, Note_on_c, 0, 71, 0
2, 317160, Note_on_c, 0, 65, 0
2, 317160, Note_on_c, 0, 63, 101
2, 317280, Note_on_c, 0, 63, 0
2, 317280, Note_on_c, 0, 68, 101
2, 317327, Note_on_c, 0, 68, 0
2, 317520, Note_on_c, 0, 71, 101
2, 317567, Note_on_c, 0, 71, 0
2, 317760, Note_on_c, 0, 68, 101
2, 317807, Note_on_c, 0, 68, 0
2, 318000, Note_on_c, 0, 71, 101
2, 318047, Note_on_c, 0, 71, 0
2, 318240, Note_on_c, 0, 68, 101
2, 318287, Note_on_c, 0, 68, 0
2, 318480, Note_on_c, 0, 71, 101
2, 318527, Note_on_c, 0, 71, 0
2, 318720, Note_on_c, 0, 68, 101
2, 318767, Note_on_c, 0, 68, 0
2, 318960, Note_on_c, 0, 86, 101
2, 319040, Note_on_c, 0, 86, 0
2, 319040, Note_on_c, 0, 85, 101
2, 319119, Note_on_c, 0, 85, 0
2, 319119, Note_on_c, 0, 84, 101
2, 319200, Note_on_c, 0, 84, 0
2, 319200, Note_on_c, 0, 83, 101
2, 319440, Note_on_c, 0, 83, 0
2, 319440, Note_on_c, 0, 95, 101
2, 319520, Note_on_c, 0, 95, 0
2, 319520, Note_on_c, 0, 96, 101
2, 319599, Note_on_c, 0, 96, 0
2, 319599, Note_on_c, 0, 97, 101
2, 319680, Note_on_c, 0, 97, 0
2, 319680, Note_on_c, 0, 98, 101
2, 319920, Note_on_c, 0, 98, 0
2, 319920, Note_on_c, 0, 86, 101
2, 320000, Note_on_c, 0, 86, 0
2, 320000, Note_on_c, 0, 85, 101
2, 320079, Note_on_c, 0, 85, 0
2, 320079, Note_on_c, 0, 84, 101
2, 320160, Note_on_c, 0, 84, 0
2, 320160, Note_on_c, 0, 83, 101
2, 320400, Note_on_c, 0, 83, 0
2, 320400, Note_on_c, 0, 95, 101
2, 320480, Note_on_c, 0, 95, 0
2, 320480, Note_on_c, 0, 96, 101
2, 320559, Note_on_c, 0, 96, 0
2, 320559, Note_on_c, 0, 97, 101
2, 320640, Note_on_c, 0, 97, 0
2, 320640, Note_on_c, 0, 98, 101
2, 320880, Note_on_c, 0, 98, 0
2, 320880, Note_on_c, 0, 92, 62
2, 320903, Note_on_c, 0, 92, 0
2, 321000, Note_on_c, 0, 94, 62
2, 321023, Note_on_c, 0, 94, 0
2, 321120, Note_on_c, 0, 92, 62
2, 321120, Note_on_c, 0, 95, 62
2, 321143, Note_on_c, 0, 95, 0
2, 321143, Note_on_c, 0, 92, 0
2, 321240, Note_on_c, 0, 99, 62
2, 321263, Note_on_c, 0, 99, 0
2, 321360, Note_on_c, 0, 92, 62
2, 321360, Note_on_c, 0, 95, 62
2, 321383, Note_on_c, 0, 95, 0
2, 321383, Note_on_c, 0, 92, 0
2, 321480, Note_on_c, 0, 100, 62
2, 321503, Note_on_c, 0, 100, 0
2, 321600, Note_on_c, 0, 92, 62
2, 321600, Note_on_c, 0, 95, 62
2, 321623, Note_on_c, 0, 95, 0
2, 321623, Note_on_c, 0, 92, 0
2, 321720, Note_on_c, 0, 99, 62
2, 321743, Note_on_c, 0, 99, 0
2, 321840, Note_on_c, 0, 88, 62
2, 321840, Note_on_c, 0, 92, 62
2, 321863, Note_on_c, 0, 92, 0
2, 321863, Note_on_c, 0, 88, 0
2, 321960, Note_on_c, 0, 95, 62
2, 321983, Note_on_c, 0, 95, 0
2, 322080, Note_on_c, 0, 87, 62
2, 322080, Note_on_c, 0, 92, 62
2, 322103, Note_on_c, 0, 92, 0
2, 322103, Note_on_c, 0, 87, 0
2, 322200, Note_on_c, 0, 95, 62
2, 322223, Note_on_c, 0, 95, 0
2, 322320, Note_on_c, 0, 83, 62
2, 322320, Note_on_c, 0, 88, 62
2, 322343, Note_on_c, 0, 88, 0
2, 322343, Note_on_c, 0, 83, 0
2, 322440, Note_on_c, 0, 92, 62
2, 322463, Note_on_c, 0, 92, 0
2, 322560, Note_on_c, 0, 83, 62
2, 322560, Note_on_c, 0, 87, 62
2, 322583, Note_on_c, 0, 87, 0
2, 322583, Note_on_c, 0, 83, 0
2, 322680, Note_on_c, 0, 92, 62
2, 322703, Note_on_c, 0, 92, 0
2, 322800, Note_on_c, 0, 88, 62
2, 322800, Note_on_c, 0, 92, 62
2, 322823, Note_on_c, 0, 92, 0
2, 322823, Note_on_c, 0, 88, 0
2, 322920, Note_on_c, 0, 94, 62
2, 322943, Note_on_c, 0, 94, 0
2, 323040, Note_on_c, 0, 92, 62
2, 323040, Note_on_c, 0, 95, 62
2, 323063, Note_on_c, 0, 95, 0
2, 323063, Note_on_c, 0, 92, 0
2, 323160, Note_on_c, 0, 99, 62
2, 323183, Note_on_c, 0, 99, 0
2, 323280, Note_on_c, 0, 92, 62
2, 323280, Note_on_c, 0, 95, 62
2, 323303, Note_on_c, 0, 95, 0
2, 323303, Note_on_c, 0, 92, 0
2, 323400, Note_on_c, 0, 100, 62
2, 323423, Note_on_c, 0, 100, 0
2, 323520, Note_on_c, 0, 92, 62
2, 323520, Note_on_c, 0, 95, 62
2, 323543, Note_on_c, 0, 95, 0
2, 323543, Note_on_c, 0, 92, 0
2, 323640, Note_on_c, 0, 99, 62
2, 323663, Note_on_c, 0, 99, 0
2, 323760, Note_on_c, 0, 88, 62
2, 323760, Note_on_c, 0, 92, 62
2, 323783, Note_on_c, 0, 92, 0
2, 323783, Note_on_c, 0, 88, 0
2, 323880, Note_on_c, 0, 95, 62
2, 323903, Note_on_c, 0, 95, 0
2, 324000, Note_on_c, 0, 89, 62
2, 324023, Note_on_c, 0, 89, 0
2, 324120, Note_on_c, 0, 91, 62
2, 324143, Note_on_c, 0, 91, 0
2, 324240, Note_on_c, 0, 88, 62
2, 324240, Note_on_c, 0, 92, 62
2, 324263, Note_on_c, 0, 92, 0
2, 324263, Note_on_c, 0, 88, 0
2, 324360, Note_on_c, 0, 94, 62
2, 324383, Note_on_c, 0, 94, 0
2, 324480, Note_on_c, 0, 87, 62
2, 324480, Note_on_c, 0, 95, 62
2, 324503, Note_on_c, 0, 95, 0
2, 324503, Note_on_c, 0, 87, 0
2, 324600, Note_on_c, 0, 94, 62
2, 324623, Note_on_c, 0, 94, 0
2, 324720, Note_on_c, 0, 88, 62
2, 324720, Note_on_c, 0, 92, 62
2, 324743, Note_on_c, 0, 92, 0
2, 324743, Note_on_c, 0, 88, 0
2, 324840, Note_on_c, 0, 94, 62
2, 324863, Note_on_c, 0, 94, 0
2, 324960, Note_on_c, 0, 92, 75
2, 324960, Note_on_c, 0, 95, 75
2, 324983, Note_on_c, 0, 95, 0
2, 324983, Note_on_c, 0, 92, 0
2, 325080, Note_on_c, 0, 99, 75
2, 325103, Note_on_c, 0, 99, 0
2, 325200, Note_on_c, 0, 92, 75
2, 325200, Note_on_c, 0, 95, 75
2, 325223, Note_on_c, 0, 95, 0
2, 325223, Note_on_c, 0, 92, 0
2, 325320, Note_on_c, 0, 100, 75
2, 325343, Note_on_c, 0, 100, 0
2, 325440, Note_on_c, 0, 92, 75
2, 325440, Note_on_c, 0, 95, 75
2, 325463, Note_on_c, 0, 95, 0
2, 325463, Note_on_c, 0, 92, 0
2, 325560, Note_on_c, 0, 99, 75
2, 325583, Note_on_c, 0, 99, 0
2, 325680, Note_on_c, 0, 88, 75
2, 325680, Note_on_c, 0, 92, 75
2, 325703, Note_on_c, 0, 92, 0
2, 325703, Note_on_c, 0, 88, 0
2, 325800, Note_on_c, 0, 95, 75
2, 325823, Note_on_c, 0, 95, 0
2, 325920, Note_on_c, 0, 87, 75
2, 325920, Note_on_c, 0, 92, 75
2, 325943, Note_on_c, 0, 92, 0
2, 325943, Note_on_c, 0, 87, 0
2, 326040, Note_on_c, 0, 95, 75
2, 326063, Note_on_c, 0, 95, 0
2, 326160, Note_on_c, 0, 83, 75
2, 326160, Note_on_c, 0, 88, 75
2, 326183, Note_on_c, 0, 88, 0
2, 326183, Note_on_c, 0, 83, 0
2, 326280, Note_on_c, 0, 92, 75
2, 326303, Note_on_c, 0, 92, 0
2, 326400, Note_on_c, 0, 83, 75
2, 326400, Note_on_c, 0, 87, 75
2, 326423, Note_on_c, 0, 87, 0
2, 326423, Note_on_c, 0, 83, 0
2, 326520, Note_on_c, 0, 92, 75
2, 326543, Note_on_c, 0, 92, 0
2, 326640, Note_on_c, 0, 88, 75
2, 326640, Note_on_c, 0, 92, 75
2, 326663, Note_on_c, 0, 92, 0
2, 326663, Note_on_c, 0, 88, 0
2, 326760, Note_on_c, 0, 94, 75
2, 326783, Note_on_c, 0, 94, 0
2, 326880, Note_on_c, 0, 92, 75
2, 326880, Note_on_c, 0, 95, 75
2, 326903, Note_on_c, 0, 95, 0
2, 326903, Note_on_c, 0, 92, 0
2, 327000, Note_on_c, 0, 99, 75
2, 327023, Note_on_c, 0, 99, 0
2, 327120, Note_on_c, 0, 92, 75
2, 327120, Note_on_c, 0, 95, 75
2, 327143, Note_on_c, 0, 95, 0
2, 327143, Note_on_c, 0, 92, 0
2, 327240, Note_on_c, 0, 100, 75
2, 327263, Note_on_c, 0, 100, 0
2, 327360, Note_on_c, 0, 92, 75
2, 327360, Note_on_c, 0, 95, 75
2, 327383, Note_on_c, 0, 95, 0
2, 327383, Note_on_c, 0, 92, 0
2, 327480, Note_on_c, 0, 99, 75
2, 327503, Note_on_c, 0, 99, 0
2, 327600, Note_on_c, 0, 88, 75
2, 327600, Note_on_c, 0, 92, 75
2, 327623, Note_on_c, 0, 92, 0
2, 327623, Note_on_c, 0, 88, 0
2, 327720, Note_on_c, 0, 95, 75
2, 327743, Note_on_c, 0, 95, 0
2, 327840, Note_on_c, 0, 89, 75
2, 327863, Note_on_c, 0, 89, 0
2, 327960, Note_on_c, 0, 91, 75
2, 327983, Note_on_c, 0, 91, 0
2, 328080, Note_on_c, 0, 88, 75
2, 328080, Note_on_c, 0, 92, 75
2, 328103, Note_on_c, 0, 92, 0
2, 328103, Note_on_c, 0, 88, 0
2, 328200, Note_on_c, 0, 94, 75
2, 328223, Note_on_c, 0, 94, 0
2, 328320, Note_on_c, 0, 87, 75
2, 328320, Note_on_c, 0, 95, 75
2, 328343, Note_on_c, 0, 95, 0
2, 328343, Note_on_c, 0, 87, 0
2, 328440, Note_on_c, 0, 94, 75
2, 328463, Note_on_c, 0, 94, 0
2, 328560, Note_on_c, 0, 88, 75
2, 328560, Note_on_c, 0, 92, 75
2, 328583, Note_on_c, 0, 92, 0
2, 328583, Note_on_c, 0, 88, 0
2, 328680, Note_on_c, 0, 94, 75
2, 328703, Note_on_c, 0, 94, 0
2, 328800, Note_on_c, 0, 89, 75
2, 328823, Note_on_c, 0, 89, 0
2, 328920, Note_on_c, 0, 91, 75
2, 328943, Note_on_c, 0, 91, 0
2, 329040, Note_on_c, 0, 88, 75
2, 329040, Note_on_c, 0, 92, 75
2, 329063, Note_on_c, 0, 92, 0
2, 329063, Note_on_c, 0, 88, 0
2, 329160, Note_on_c, 0, 94, 75
2, 329183, Note_on_c, 0, 94, 0
2, 329280, Note_on_c, 0, 87, 75
2, 329280, Note_on_c, 0, 95, 75
2, 329303, Note_on_c, 0, 95, 0
2, 329303, Note_on_c, 0, 87, 0
2, 329400, Note_on_c, 0, 94, 75
2, 329423, Note_on_c, 0, 94, 0
2, 329520, Note_on_c, 0, 88, 75
2, 329520, Note_on_c, 0, 92, 75
2, 329543, Note_on_c, 0, 92, 0
2, 329543, Note_on_c, 0, 88, 0
2, 329640, Note_on_c, 0, 94, 75
2, 329663, Note_on_c, 0, 94, 0
2, 329760, Note_on_c, 0, 89, 88
2, 329783, Note_on_c, 0, 89, 0
2, 329880, Note_on_c, 0, 91, 88
2, 329903, Note_on_c, 0, 91, 0
2, 330000, Note_on_c, 0, 88, 88
2, 330000, Note_on_c, 0, 92, 88
2, 330023, Note_on_c, 0, 92, 0
2, 330023, Note_on_c, 0, 88, 0
2, 330120, Note_on_c, 0, 94, 88
2, 330143, Note_on_c, 0, 94, 0
2, 330240, Note_on_c, 0, 87, 88
2, 330240, Note_on_c, 0, 95, 88
2, 330263, Note_on_c, 0, 95, 0
2, 330263, Note_on_c, 0, 87, 0
2, 330360, Note_on_c, 0, 94, 88
2, 330383, Note_on_c, 0, 94, 0
2, 330480, Note_on_c, 0, 88, 88
2, 330480, Note_on_c, 0, 92, 88
2, 330503, Note_on_c, 0, 92, 0
2, 330503, Note_on_c, 0, 88, 0
2, 330600, Note_on_c, 0, 94, 88
2, 330623, Note_on_c, 0, 94, 0
2, 330720, Note_on_c, 0, 89, 88
2, 330743, Note_on_c, 0, 89, 0
2, 330840, Note_on_c, 0, 91, 88
2, 330863, Note_on_c, 0, 91, 0
2, 330960, Note_on_c, 0, 88, 88
2, 330960, Note_on_c, 0, 92, 88
2, 330983, Note_on_c, 0, 92, 0
2, 330983, Note_on_c, 0, 88, 0
2, 331080, Note_on_c, 0, 94, 88
2, 331103, Note_on_c, 0, 94, 0
2, 331200, Note_on_c, 0, 87, 101
2, 331200, Note_on_c, 0, 95, 101
2, 331223, Note_on_c, 0, 95, 0
2, 331223, Note_on_c, 0, 87, 0
2, 331320, Note_on_c, 0, 94, 101
2, 331343, Note_on_c, 0, 94, 0
2, 331440, Note_on_c, 0, 88, 101
2, 331440, Note_on_c, 0, 92, 101
2, 331463, Note_on_c, 0, 92, 0
2, 331463, Note_on_c, 0, 88, 0
2, 331560, Note_on_c, 0, 95, 101
2, 331583, Note_on_c, 0, 95, 0
2, 331680, Note_on_c, 0, 99, 101
2, 331703, Note_on_c, 0, 99, 0
2, 331800, Note_on_c, 0, 101, 101
2, 331823, Note_on_c, 0, 101, 0
2, 331920, Note_on_c, 0, 102, 101
2, 331943, Note_on_c, 0, 102, 0
2, 332040, Note_on_c, 0, 103, 101
2, 332063, Note_on_c, 0, 103, 0
2, 332160, Note_on_c, 0, 92, 101
2, 332160, Note_on_c, 0, 104, 101
2, 332256, Note_on_c, 0, 104, 0
2, 332256, Note_on_c, 0, 92, 0
2, 336240, Control_c, 0, 64, 127
2, 336240, Note_on_c, 0, 64, 75
2, 336279, Note_on_c, 0, 64, 0
2, 336279, Note_on_c, 0, 66, 75
2, 336320, Note_on_c, 0, 66, 0
2, 336320, Note_on_c, 0, 68, 75
2, 336360, Note_on_c, 0, 68, 0
2, 336360, Note_on_c, 0, 69, 75
2, 336399, Note_on_c, 0, 69, 0
2, 336399, Note_on_c, 0, 71, 75
2, 336440, Note_on_c, 0, 71, 0
2, 336440, Note_on_c, 0, 73, 75
2, 336480, Note_on_c, 0, 73, 0
2, 336480, Note_on_c, 0, 75, 75
2, 336519, Note_on_c, 0, 75, 0
2, 336519, Note_on_c, 0, 76, 75
2, 336560, Note_on_c, 0, 76, 0
2, 336560, Note_on_c, 0, 78, 75
2, 336600, Note_on_c, 0, 78, 0
2, 336600, Note_on_c, 0, 80, 75
2, 336639, Note_on_c, 0, 80, 0
2, 336639, Note_on_c, 0, 81, 75
2, 336680, Note_on_c, 0, 81, 0
2, 336680, Note_on_c, 0, 83, 75
2, 336720, Note_on_c, 0, 83, 0
2, 336720, Note_on_c, 0, 85, 75
2, 336759, Note_on_c, 0, 85, 0
2, 336759, Note_on_c, 0, 87, 75
2, 336800, Note_on_c, 0, 87, 0
2, 336800, Note_on_c, 0, 88, 75
2, 336840, Note_on_c, 0, 88, 0
2, 336840, Note_on_c, 0, 90, 75
2, 336879, Note_on_c, 0, 90, 0
2, 336879, Note_on_c, 0, 92, 75
2, 336920, Note_on_c, 0, 92, 0
2, 336920, Control_c, 0, 64, 0
2, 336920, Note_on_c, 0, 93, 75
2, 336960, Note_on_c, 0, 93, 0
2, 336960, Note_on_c, 0, 95, 75
2, 337200, Note_on_c, 0, 95, 0
2, 337200, Note_on_c, 0, 71, 62
2, 337440, Note_on_c, 0, 71, 0
2, 337440, Note_on_c, 0, 68, 62
2, 337680, Note_on_c, 0, 68, 0
2, 337680, Note_on_c, 0, 68, 62
2, 337920, Note_on_c, 0, 68, 0
2, 337920, Note_on_c, 0, 66, 62
2, 338160, Note_on_c, 0, 66, 0
2, 338160, Note_on_c, 0, 65, 62
2, 338400, Note_on_c, 0, 65, 0
2, 338400, Note_on_c, 0, 66, 62
2, 338640, Note_on_c, 0, 66, 0
2, 338640, Note_on_c, 0, 68, 62
2, 338880, Note_on_c, 0, 68, 0
2, 338880, Note_on_c, 0, 69, 62
2, 339120, Note_on_c, 0, 69, 0
2, 339120, Note_on_c, 0, 71, 62
2, 340080, Note_on_c, 0, 71, 0
2, 340080, Note_on_c, 0, 73, 88
2, 340320, Note_on_c, 0, 73, 0
2, 340320, Note_on_c, 0, 75, 88
2, 340560, Note_on_c, 0, 75, 0
2, 340560, Note_on_c, 0, 76, 75
2, 340800, Note_on_c, 0, 76, 0
2, 340800, Note_on_c, 0, 75, 75
2, 341040, Note_on_c, 0, 75, 0
2, 341040, Note_on_c, 0, 73, 62
2, 341280, Note_on_c, 0, 73, 0
2, 341280, Note_on_c, 0, 71, 88
2, 341760, Note_on_c, 0, 71, 0
2, 341760, Note_on_c, 0, 66, 62
2, 342000, Note_on_c, 0, 66, 0
2, 342000, Note_on_c, 0, 66, 62
2, 342480, Note_on_c, 0, 66, 0
2, 342720, Note_on_c, 0, 95, 62
2, 342960, Note_on_c, 0, 95, 0
2, 342960, Note_on_c, 0, 71, 88
2, 343200, Note_on_c, 0, 71, 0
2, 343200, Note_on_c, 0, 68, 88
2, 343440, Note_on_c, 0, 68, 0
2, 343440, Note_on_c, 0, 68, 62
2, 343680, Note_on_c, 0, 68, 0
2, 343680, Note_on_c, 0, 66, 62
2, 343920, Note_on_c, 0, 66, 0
2, 343920, Note_on_c, 0, 65, 62
2, 344160, Note_on_c, 0, 65, 0
2, 344160, Note_on_c, 0, 66, 62
2, 344400, Note_on_c, 0, 66, 0
2, 344400, Note_on_c, 0, 68, 62
2, 344640, Note_on_c, 0, 68, 0
2, 344640, Note_on_c, 0, 69, 62
2, 344880, Note_on_c, 0, 69, 0
2, 344880, Note_on_c, 0, 71, 62
2, 345840, Note_on_c, 0, 71, 0
2, 345840, Note_on_c, 0, 73, 88
2, 346080, Note_on_c, 0, 73, 0
2, 346080, Note_on_c, 0, 75, 88
2, 346320, Note_on_c, 0, 75, 0
2, 346320, Note_on_c, 0, 76, 75
2, 346560, Note_on_c, 0, 76, 0
2, 346560, Note_on_c, 0, 75, 75
2, 346800, Note_on_c, 0, 75, 0
2, 346800, Note_on_c, 0, 73, 62
2, 347040, Note_on_c, 0, 73, 0
2, 347040, Note_on_c, 0, 71, 88
2, 347520, Note_on_c, 0, 71, 0
2, 347520, Note_on_c, 0, 70, 62
2, 347760, Note_on_c, 0, 70, 0
2, 347760, Note_on_c, 0, 68, 62
2, 348480, Note_on_c, 0, 68, 0
2, 348480, Note_on_c, 0, 95, 75
2, 348720, Note_on_c, 0, 95, 0
2, 348720, Note_on_c, 0, 71, 62
2, 348720, Note_on_c, 0, 83, 62
2, 348960, Note_on_c, 0, 83, 0
2, 348960, Note_on_c, 0, 71, 0
2, 348960, Note_on_c, 0, 73, 62
2, 348960, Note_on_c, 0, 85, 62
2, 349200, Note_on_c, 0, 85, 0
2, 349200, Note_on_c, 0, 73, 0
2, 349200, Note_on_c, 0, 75, 62
2, 349200, Note_on_c, 0, 87, 62
2, 349440, Note_on_c, 0, 87, 0
2, 349440, Note_on_c, 0, 75, 0
2, 349440, Note_on_c, 0, 76, 75
2, 349440, Note_on_c, 0, 88, 75
2, 349680, Note_on_c, 0, 88, 0
2, 349680, Note_on_c, 0, 76, 0
2, 349680, Note_on_c, 0, 78, 75
2, 349680, Note_on_c, 0, 90, 75
2, 349920, Note_on_c, 0, 90, 0
2, 349920, Note_on_c, 0, 78, 0
2, 349920, Note_on_c, 0, 76, 75
2, 349920, Note_on_c, 0, 88, 75
2, 350160, Note_on_c, 0, 88, 0
2, 350160, Note_on_c, 0, 76, 0
2, 350160, Note_on_c, 0, 75, 75
2, 350160, Note_on_c, 0, 87, 75
2, 350400, Note_on_c, 0, 87, 0
2, 350400, Note_on_c, 0, 75, 0
2, 350400, Note_on_c, 0, 73, 75
2, 350400, Note_on_c, 0, 85, 75
2, 350640, Note_on_c, 0, 85, 0
2, 350640, Note_on_c, 0, 73, 0
2, 350640, Note_on_c, 0, 71, 75
2, 350640, Note_on_c, 0, 83, 75
2, 350880, Note_on_c, 0, 83, 0
2, 350880, Note_on_c, 0, 71, 0
2, 350880, Note_on_c, 0, 67, 101
2, 350880, Note_on_c, 0, 79, 101
2, 351120, Note_on_c, 0, 79, 0
2, 351120, Note_on_c, 0, 67, 0
2, 351120, Note_on_c, 0, 68, 101
2, 351120, Note_on_c, 0, 80, 101
2, 351360, Note_on_c, 0, 80, 0
2, 351360, Note_on_c, 0, 68, 0
2, 351360, Note_on_c, 0, 71, 75
2, 351360, Note_on_c, 0, 83, 75
2, 351840, Note_on_c, 0, 83, 0
2, 351840, Note_on_c, 0, 71, 0
2, 351840, Note_on_c, 0, 66, 75
2, 351840, Note_on_c, 0, 78, 75
2, 352080, Note_on_c, 0, 78, 0
2, 352080, Note_on_c, 0, 66, 0
2, 352320, Note_on_c, 0, 78, 75
2, 352560, Note_on_c, 0, 78, 0
2, 352560, Note_on_c, 0, 79, 75
2, 352800, Note_on_c, 0, 79, 0
2, 352800, Note_on_c, 0, 71, 75
2, 352800, Note_on_c, 0, 76, 75
2, 352800, Note_on_c, 0, 80, 75
2, 352800, Note_on_c, 0, 83, 75
2, 353280, Note_on_c, 0, 83, 0
2, 353280, Note_on_c, 0, 71, 0
2, 353280, Note_on_c, 0, 76, 0
2, 353280, Note_on_c, 0, 80, 0
2, 353280, Note_on_c, 0, 68, 75
2, 353280, Note_on_c, 0, 80, 75
2, 353520, Note_on_c, 0, 80, 0
2, 353520, Note_on_c, 0, 68, 0
2, 353520, Control_c, 0, 64, 127
2, 353520, Note_on_c, 0, 64, 62
2, 353559, Note_on_c, 0, 64, 0
2, 353559, Note_on_c, 0, 66, 62
2, 353600, Note_on_c, 0, 66, 0
2, 353600, Note_on_c, 0, 68, 62
2, 353640, Note_on_c, 0, 68, 0
2, 353640, Note_on_c, 0, 69, 62
2, 353679, Note_on_c, 0, 69, 0
2, 353679, Note_on_c, 0, 71, 62
2, 353720, Note_on_c, 0, 71, 0
2, 353720, Note_on_c, 0, 73, 62
2, 353760, Note_on_c, 0, 73, 0
2, 353760, Note_on_c, 0, 75, 62
2, 353799, Note_on_c, 0, 75, 0
2, 353799, Note_on_c, 0, 76, 62
2, 353840, Note_on_c, 0, 76, 0
2, 353840, Note_on_c, 0, 78, 62
2, 353880, Note_on_c, 0, 78, 0
2, 353880, Note_on_c, 0, 80, 75
2, 353919, Note_on_c, 0, 80, 0
2, 353919, Note_on_c, 0, 81, 75
2, 353960, Note_on_c, 0, 81, 0
2, 353960, Note_on_c, 0, 83, 75
2, 354000, Note_on_c, 0, 83, 0
2, 354000, Note_on_c, 0, 85, 75
2, 354039, Note_on_c, 0, 85, 0
2, 354039, Note_on_c, 0, 87, 75
2, 354080, Note_on_c, 0, 87, 0
2, 354080, Note_on_c, 0, 88, 75
2, 354120, Note_on_c, 0, 88, 0
2, 354120, Note_on_c, 0, 90, 75
2, 354159, Note_on_c, 0, 90, 0
2, 354159, Note_on_c, 0, 92, 75
2, 354200, Note_on_c, 0, 92, 0
2, 354200, Control_c, 0, 64, 0
2, 354200, Note_on_c, 0, 93, 75
2, 354240, Note_on_c, 0, 93, 0
2, 354240, Note_on_c, 0, 95, 75
2, 354480, Note_on_c, 0, 95, 0
2, 354480, Note_on_c, 0, 71, 88
2, 354480, Note_on_c, 0, 83, 88
2, 354720, Note_on_c, 0, 83, 0
2, 354720, Note_on_c, 0, 71, 0
2, 354720, Note_on_c, 0, 73, 88
2, 354720, Note_on_c, 0, 85, 88
2, 354960, Note_on_c, 0, 85, 0
2, 354960, Note_on_c, 0, 73, 0
2, 354960, Note_on_c, 0, 75, 62
2, 354960, Note_on_c, 0, 87, 62
2, 355200, Note_on_c, 0, 87, 0
2, 355200, Note_on_c, 0, 75, 0
2, 355200, Note_on_c, 0, 76, 75
2, 355200, Note_on_c, 0, 88, 75
2, 355440, Note_on_c, 0, 88, 0
2, 355440, Note_on_c, 0, 76, 0
2, 355440, Note_on_c, 0, 78, 75
2, 355440, Note_on_c, 0, 90, 75
2, 355680, Note_on_c, 0, 90, 0
2, 355680, Note_on_c, 0, 78, 0
2, 355680, Note_on_c, 0, 76, 75
2, 355680, Note_on_c, 0, 88, 75
2, 355920, Note_on_c, 0, 88, 0
2, 355920, Note_on_c, 0, 76, 0
2, 355920, Note_on_c, 0, 75, 75
2, 355920, Note_on_c, 0, 87, 75
2, 356160, Note_on_c, 0, 87, 0
2, 356160, Note_on_c, 0, 75, 0
2, 356160, Note_on_c, 0, 73, 75
2, 356160, Note_on_c, 0, 85, 75
2, 356400, Note_on_c, 0, 85, 0
2, 356400, Note_on_c, 0, 73, 0
2, 356400, Note_on_c, 0, 71, 62
2, 356400, Note_on_c, 0, 83, 62
2, 356640, Note_on_c, 0, 83, 0
2, 356640, Note_on_c, 0, 71, 0
2, 356640, Note_on_c, 0, 70, 88
2, 356640, Note_on_c, 0, 82, 88
2, 356880, Note_on_c, 0, 82, 0
2, 356880, Note_on_c, 0, 70, 0
2, 356880, Note_on_c, 0, 68, 88
2, 356880, Note_on_c, 0, 80, 88
2, 357120, Note_on_c, 0, 80, 0
2, 357120, Note_on_c, 0, 68, 0
2, 357120, Note_on_c, 0, 67, 88
2, 357120, Note_on_c, 0, 79, 88
2, 357360, Note_on_c, 0, 79, 0
2, 357360, Note_on_c, 0, 67, 0
2, 357360, Note_on_c, 0, 68, 62
2, 357360, Note_on_c, 0, 80, 62
2, 357600, Note_on_c, 0, 80, 0
2, 357600, Note_on_c, 0, 68, 0
2, 357600, Note_on_c, 0, 76, 75
2, 357600, Note_on_c, 0, 88, 75
2, 357840, Note_on_c, 0, 88, 0
2, 357840, Note_on_c, 0, 76, 0
2, 357840, Note_on_c, 0, 75, 101
2, 357840, Note_on_c, 0, 87, 101
2, 358320, Note_on_c, 0, 87, 0
2, 358320, Note_on_c, 0, 75, 0
2, 358320, Note_on_c, 0, 73, 62
2, 358320, Note_on_c, 0, 85, 62
2, 358560, Note_on_c, 0, 85, 0
2, 358560, Note_on_c, 0, 73, 0
2, 358560, Note_on_c, 0, 73, 88
2, 358560, Note_on_c, 0, 85, 88
2, 359040, Note_on_c, 0, 85, 0
2, 359040, Note_on_c, 0, 73, 0
2, 359040, Note_on_c, 0, 71, 62
2, 359040, Note_on_c, 0, 83, 62
2, 359280, Note_on_c, 0, 83, 0
2, 359280, Note_on_c, 0, 71, 0
2, 359280, Note_on_c, 0, 73, 62
2, 359760, Note_on_c, 0, 73, 0
2, 359760, Note_on_c, 0, 51, 62
2, 360000, Note_on_c, 0, 51, 0
2, 360000, Note_on_c, 0, 95, 62
2, 360240, Note_on_c, 0, 95, 0
2, 360240, Note_on_c, 0, 71, 88
2, 360240, Note_on_c, 0, 83, 88
2, 360480, Note_on_c, 0, 83, 0
2, 360480, Note_on_c, 0, 71, 0
2, 360480, Note_on_c, 0, 68, 88
2, 360480, Note_on_c, 0, 71, 88
2, 360480, Note_on_c, 0, 80, 88
2, 360720, Note_on_c, 0, 80, 0
2, 360720, Note_on_c, 0, 71, 0
2, 360720, Note_on_c, 0, 68, 0
2, 360720, Note_on_c, 0, 68, 62
2, 360720, Note_on_c, 0, 72, 62
2, 360720, Note_on_c, 0, 80, 62
2, 360960, Note_on_c, 0, 80, 0
2, 360960, Note_on_c, 0, 72, 0
2, 360960, Note_on_c, 0, 68, 0
2, 360960, Note_on_c, 0, 66, 62
2, 360960, Note_on_c, 0, 73, 62
2, 360960, Note_on_c, 0, 78, 62
2, 361200, Note_on_c, 0, 78, 0
2, 361200, Note_on_c, 0, 73, 0
2, 361200, Note_on_c, 0, 66, 0
2, 361200, Note_on_c, 0, 65, 62
2, 361200, Note_on_c, 0, 74, 62
2, 361200, Note_on_c, 0, 77, 62
2, 361440, Note_on_c, 0, 77, 0
2, 361440, Note_on_c, 0, 74, 0
2, 361440, Note_on_c, 0, 65, 0
2, 361440, Note_on_c, 0, 66, 62
2, 361440, Note_on_c, 0, 75, 62
2, 361440, Note_on_c, 0, 78, 62
2, 361680, Note_on_c, 0, 78, 0
2, 361680, Note_on_c, 0, 75, 0
2, 361680, Note_on_c, 0, 66, 0
2, 361680, Note_on_c, 0, 68, 62
2, 361680, Note_on_c, 0, 76, 62
2, 361680, Note_on_c, 0, 80, 62
2, 361920, Note_on_c, 0, 80, 0
2, 361920, Note_on_c, 0, 76, 0
2, 361920, Note_on_c, 0, 68, 0
2, 361920, Note_on_c, 0, 69, 62
2, 361920, Note_on_c, 0, 78, 62
2, 361920, Note_on_c, 0, 81, 62
2, 362160, Note_on_c, 0, 81, 0
2, 362160, Note_on_c, 0, 78, 0
2, 362160, Note_on_c, 0, 69, 0
2, 362160, Note_on_c, 0, 71, 62
2, 362160, Note_on_c, 0, 83, 62
2, 362880, Note_on_c, 0, 80, 62
2, 363120, Note_on_c, 0, 80, 0
2, 363120, Note_on_c, 0, 83, 0
2, 363120, Note_on_c, 0, 71, 0
2, 363120, Note_on_c, 0, 73, 75
2, 363120, Note_on_c, 0, 79, 75
2, 363120, Note_on_c, 0, 85, 75
2, 363360, Note_on_c, 0, 85, 0
2, 363360, Note_on_c, 0, 79, 0
2, 363360, Note_on_c, 0, 73, 0
2, 363360, Note_on_c, 0, 75, 101
2, 363360, Note_on_c, 0, 78, 101
2, 363360, Note_on_c, 0, 87, 101
2, 363600, Note_on_c, 0, 87, 0
2, 363600, Note_on_c, 0, 78, 0
2, 363600, Note_on_c, 0, 75, 0
2, 363600, Note_on_c, 0, 76, 101
2, 363600, Note_on_c, 0, 88, 101
2, 363840, Note_on_c, 0, 88, 0
2, 363840, Note_on_c, 0, 76, 0
2, 363840, Note_on_c, 0, 75, 75
2, 363840, Note_on_c, 0, 87, 75
2, 364080, Note_on_c, 0, 87, 0
2, 364080, Note_on_c, 0, 75, 0
2, 364080, Note_on_c, 0, 73, 75
2, 364080, Note_on_c, 0, 85, 75
2, 364320, Note_on_c, 0, 85, 0
2, 364320, Note_on_c, 0, 73, 0
2, 364320, Note_on_c, 0, 71, 101
2, 364320, Note_on_c, 0, 83, 101
2, 364800, Note_on_c, 0, 83, 0
2, 364800, Note_on_c, 0, 71, 0
2, 364800, Note_on_c, 0, 66, 75
2, 364800, Note_on_c, 0, 78, 75
2, 365040, Note_on_c, 0, 78, 0
2, 365040, Note_on_c, 0, 66, 0
2, 365040, Note_on_c, 0, 66, 75
2, 365040, Note_on_c, 0, 78, 75
2, 365760, Note_on_c, 0, 78, 0
2, 365760, Note_on_c, 0, 66, 0
2, 366000, Note_on_c, 0, 71, 62
2, 366000, Note_on_c, 0, 83, 62
2, 366240, Note_on_c, 0, 83, 0
2, 366240, Note_on_c, 0, 71, 0
2, 366240, Note_on_c, 0, 68, 88
2, 366240, Note_on_c, 0, 80, 88
2, 366480, Note_on_c, 0, 80, 0
2, 366480, Note_on_c, 0, 68, 0
2, 366480, Note_on_c, 0, 68, 75
2, 366480, Note_on_c, 0, 80, 75
2, 366720, Note_on_c, 0, 80, 0
2, 366720, Note_on_c, 0, 68, 0
2, 366720, Note_on_c, 0, 66, 75
2, 366720, Note_on_c, 0, 78, 75
2, 366960, Note_on_c, 0, 78, 0
2, 366960, Note_on_c, 0, 66, 0
2, 366960, Note_on_c, 0, 65, 75
2, 366960, Note_on_c, 0, 77, 75
2, 367200, Note_on_c, 0, 77, 0
2, 367200, Note_on_c, 0, 65, 0
2, 367200, Note_on_c, 0, 66, 75
2, 367200, Note_on_c, 0, 78, 75
2, 367440, Note_on_c, 0, 78, 0
2, 367440, Note_on_c, 0, 66, 0
2, 367440, Note_on_c, 0, 68, 75
2, 367440, Note_on_c, 0, 80, 75
2, 367680, Note_on_c, 0, 80, 0
2, 367680, Note_on_c, 0, 68, 0
2, 367680, Note_on_c, 0, 69, 75
2, 367680, Note_on_c, 0, 81, 75
2, 367920, Note_on_c, 0, 81, 0
2, 367920, Note_on_c, 0, 69, 0
2, 367920, Note_on_c, 0, 71, 75
2, 367920, Note_on_c, 0, 83, 75
2, 368160, Note_on_c, 0, 83, 0
2, 368160, Note_on_c, 0, 71, 0
2, 368160, Note_on_c, 0, 76, 101
2, 368400, Note_on_c, 0, 76, 0
2, 368400, Note_on_c, 0, 71, 101
2, 368400, Note_on_c, 0, 83, 101
2, 368640, Note_on_c, 0, 83, 0
2, 368640, Note_on_c, 0, 71, 0
2, 368640, Note_on_c, 0, 72, 101
2, 368640, Note_on_c, 0, 76, 101
2, 368640, Note_on_c, 0, 79, 101
2, 368640, Note_on_c, 0, 84, 101
2, 369120, Note_on_c, 0, 84, 0
2, 369120, Note_on_c, 0, 72, 0
2, 369120, Note_on_c, 0, 76, 0
2, 369120, Note_on_c, 0, 79, 0
2, 369120, Note_on_c, 0, 69, 75
2, 369120, Note_on_c, 0, 81, 75
2, 369360, Note_on_c, 0, 81, 0
2, 369360, Note_on_c, 0, 69, 0
2, 369360, Note_on_c, 0, 74, 114
2, 369360, Note_on_c, 0, 79, 114
2, 369360, Note_on_c, 0, 83, 114
2, 369360, Note_on_c, 0, 86, 114
2, 369840, Note_on_c, 0, 86, 0
2, 369840, Note_on_c, 0, 74, 0
2, 369840, Note_on_c, 0, 79, 0
2, 369840, Note_on_c, 0, 83, 0
2, 369840, Note_on_c, 0, 71, 88
2, 369840, Note_on_c, 0, 83, 88
2, 370080, Note_on_c, 0, 83, 0
2, 370080, Note_on_c, 0, 71, 0
2, 370080, Note_on_c, 0, 76, 114
2, 370080, Note_on_c, 0, 79, 114
2, 370080, Note_on_c, 0, 82, 114
2, 370080, Note_on_c, 0, 88, 114
2, 370560, Note_on_c, 0, 88, 0
2, 370560, Note_on_c, 0, 76, 0
2, 370560, Note_on_c, 0, 79, 0
2, 370560, Note_on_c, 0, 82, 0
2, 370560, Note_on_c, 0, 70, 88
2, 370560, Note_on_c, 0, 82, 88
2, 370800, Note_on_c, 0, 82, 0
2, 370800, Note_on_c, 0, 70, 0
2, 370800, Note_on_c, 0, 64, 114
2, 370800, Note_on_c, 0, 76, 114
2, 371280, Note_on_c, 0, 76, 0
2, 371280, Note_on_c, 0, 64, 0
2, 371280, Note_on_c, 0, 58, 88
2, 371280, Note_on_c, 0, 70, 88
2, 371520, Note_on_c, 0, 70, 0
2, 371520, Note_on_c, 0, 58, 0
2, 371520, Note_on_c, 0, 56, 62
2, 371543, Note_on_c, 0, 56, 0
2, 371640, Note_on_c, 0, 57, 62
2, 371663, Note_on_c, 0, 57, 0
2, 371760, Note_on_c, 0, 58, 62
2, 371820, Note_on_c, 0, 58, 0
2, 371820, Note_on_c, 0, 59, 62
2, 371880, Note_on_c, 0, 59, 0
2, 371880, Note_on_c, 0, 60, 62
2, 371940, Note_on_c, 0, 60, 0
2, 371940, Note_on_c, 0, 59, 62
2, 372000, Note_on_c, 0, 59, 0
2, 372000, Note_on_c, 0, 59, 62
2, 372023, Note_on_c, 0, 59, 0
2, 372120, Note_on_c, 0, 64, 62
2, 372143, Note_on_c, 0, 64, 0
2, 372240, Note_on_c, 0, 52, 62
2, 372240, Note_on_c, 0, 55, 62
2, 372240, Note_on_c, 0, 58, 62
2, 372240, Note_on_c, 0, 60, 62
2, 372263, Note_on_c, 0, 60, 0
2, 372263, Note_on_c, 0, 52, 0
2, 372263, Note_on_c, 0, 55, 0
2, 372263, Note_on_c, 0, 58, 0
2, 372360, Note_on_c, 0, 52, 62
2, 372360, Note_on_c, 0, 55, 62
2, 372360, Note_on_c, 0, 58, 62
2, 372360, Note_on_c, 0, 64, 62
2, 372383, Note_on_c, 0, 64, 0
2, 372383, Note_on_c, 0, 52, 0
2, 372383, Note_on_c, 0, 55, 0
2, 372383, Note_on_c, 0, 58, 0
2, 372480, Note_on_c, 0, 52, 62
2, 372480, Note_on_c, 0, 56, 62
2, 372480, Note_on_c, 0, 59, 62
2, 372503, Note_on_c, 0, 59, 0
2, 372503, Note_on_c, 0, 56, 0
2, 372503, Note_on_c, 0, 52, 0
2, 372600, Note_on_c, 0, 52, 62
2, 372600, Note_on_c, 0, 56, 62
2, 372600, Note_on_c, 0, 64, 62
2, 372623, Note_on_c, 0, 64, 0
2, 372623, Note_on_c, 0, 56, 0
2, 372623, Note_on_c, 0, 52, 0
2, 372720, Note_on_c, 0, 52, 62
2, 372720, Note_on_c, 0, 55, 62
2, 372720, Note_on_c, 0, 58, 62
2, 372720, Note_on_c, 0, 60, 62
2, 372743, Note_on_c, 0, 60, 0
2, 372743, Note_on_c, 0, 52, 0
2, 372743, Note_on_c, 0, 55, 0
2, 372743, Note_on_c, 0, 58, 0
2, 372840, Note_on_c, 0, 52, 62
2, 372840, Note_on_c, 0, 55, 62
2, 372840, Note_on_c, 0, 58, 62
2, 372840, Note_on_c, 0, 64, 62
2, 372863, Note_on_c, 0, 64, 0
2, 372863, Note_on_c, 0, 52, 0
2, 372863, Note_on_c, 0, 55, 0
2, 372863, Note_on_c, 0, 58, 0
2, 372960, Note_on_c, 0, 68, 75
2, 372983, Note_on_c, 0, 68, 0
2, 373080, Note_on_c, 0, 69, 75
2, 373103, Note_on_c, 0, 69, 0
2, 373200, Note_on_c, 0, 70, 75
2, 373260, Note_on_c, 0, 70, 0
2, 373260, Note_on_c, 0, 71, 75
2, 373320, Note_on_c, 0, 71, 0
2, 373320, Note_on_c, 0, 72, 75
2, 373380, Note_on_c, 0, 72, 0
2, 373380, Note_on_c, 0, 71, 75
2, 373440, Note_on_c, 0, 71, 0
2, 373440, Note_on_c, 0, 71, 75
2, 373463, Note_on_c, 0, 71, 0
2, 373560, Note_on_c, 0, 76, 75
2, 373583, Note_on_c, 0, 76, 0
2, 373680, Note_on_c, 0, 64, 75
2, 373680, Note_on_c, 0, 67, 75
2, 373680, Note_on_c, 0, 70, 75
2, 373680, Note_on_c, 0, 72, 75
2, 373703, Note_on_c, 0, 72, 0
2, 373703, Note_on_c, 0, 64, 0
2, 373703, Note_on_c, 0, 67, 0
2, 373703, Note_on_c, 0, 70, 0
2, 373800, Note_on_c, 0, 64, 75
2, 373800, Note_on_c, 0, 67, 75
2, 373800, Note_on_c, 0, 70, 75
2, 373800, Note_on_c, 0, 76, 75
2, 373823, Note_on_c, 0, 76, 0
2, 373823, Note_on_c, 0, 64, 0
2, 373823, Note_on_c, 0, 67, 0
2, 373823, Note_on_c, 0, 70, 0
2, 373920, Note_on_c, 0, 64, 75
2, 373920, Note_on_c, 0, 68, 75
2, 373920, Note_on_c, 0, 71, 75
2, 373943, Note_on_c, 0, 71, 0
2, 373943, Note_on_c, 0, 68, 0
2, 373943, Note_on_c, 0, 64, 0
2, 374040, Note_on_c, 0, 64, 75
2, 374040, Note_on_c, 0, 68, 75
2, 374040, Note_on_c, 0, 76, 75
2, 374063, Note_on_c, 0, 76, 0
2, 374063, Note_on_c, 0, 68, 0
2, 374063, Note_on_c, 0, 64, 0
2, 374160, Note_on_c, 0, 64, 75
2, 374160, Note_on_c, 0, 67, 75
2, 374160, Note_on_c, 0, 70, 75
2, 374160, Note_on_c, 0, 72, 75
2, 374183, Note_on_c, 0, 72, 0
2, 374183, Note_on_c, 0, 64, 0
2, 374183, Note_on_c, 0, 67, 0
2, 374183, Note_on_c, 0, 70, 0
2, 374280, Note_on_c, 0, 64, 75
2, 374280, Note_on_c, 0, 67, 75
2, 374280, Note_on_c, 0, 70, 75
2, 374280, Note_on_c, 0, 76, 75
2, 374303, Note_on_c, 0, 76, 0
2, 374303, Note_on_c, 0, 64, 0
2, 374303, Note_on_c, 0, 67, 0
2, 374303, Note_on_c, 0, 70, 0
2, 374400, Note_on_c, 0, 59, 75
2, 374423, Note_on_c, 0, 59, 0
2, 374520, Note_on_c, 0, 60, 75
2, 374543, Note_on_c, 0, 60, 0
2, 374640, Note_on_c, 0, 61, 75
2, 374700, Note_on_c, 0, 61, 0
2, 374700, Note_on_c, 0, 62, 75
2, 374760, Note_on_c, 0, 62, 0
2, 374760, Note_on_c, 0, 64, 75
2, 374820, Note_on_c, 0, 64, 0
2, 374820, Note_on_c, 0, 62, 75
2, 374880, Note_on_c, 0, 62, 0
2, 374880, Note_on_c, 0, 62, 75
2, 374903, Note_on_c, 0, 62, 0
2, 375000, Note_on_c, 0, 68, 75
2, 375023, Note_on_c, 0, 68, 0
2, 375120, Note_on_c, 0, 56, 75
2, 375120, Note_on_c, 0, 59, 75
2, 375120, Note_on_c, 0, 63, 75
2, 375143, Note_on_c, 0, 63, 0
2, 375143, Note_on_c, 0, 59, 0
2, 375143, Note_on_c, 0, 56, 0
2, 375240, Note_on_c, 0, 56, 75
2, 375240, Note_on_c, 0, 59, 75
2, 375240, Note_on_c, 0, 68, 75
2, 375263, Note_on_c, 0, 68, 0
2, 375263, Note_on_c, 0, 59, 0
2, 375263, Note_on_c, 0, 56, 0
2, 375360, Note_on_c, 0, 56, 75
2, 375360, Note_on_c, 0, 59, 75
2, 375360, Note_on_c, 0, 62, 75
2, 375383, Note_on_c, 0, 62, 0
2, 375383, Note_on_c, 0, 59, 0
2, 375383, Note_on_c, 0, 56, 0
2, 375480, Note_on_c, 0, 56, 75
2, 375480, Note_on_c, 0, 59, 75
2, 375480, Note_on_c, 0, 68, 75
2, 375503, Note_on_c, 0, 68, 0
2, 375503, Note_on_c, 0, 59, 0
2, 375503, Note_on_c, 0, 56, 0
2, 375600, Note_on_c, 0, 56, 75
2, 375600, Note_on_c, 0, 59, 75
2, 375600, Note_on_c, 0, 63, 75
2, 375623, Note_on_c, 0, 63, 0
2, 375623, Note_on_c, 0, 59, 0
2, 375623, Note_on_c, 0, 56, 0
2, 375720, Note_on_c, 0, 56, 75
2, 375720, Note_on_c, 0, 59, 75
2, 375720, Note_on_c, 0, 68, 75
2, 375743, Note_on_c, 0, 68, 0
2, 375743, Note_on_c, 0, 59, 0
2, 375743, Note_on_c, 0, 56, 0
2, 375840, Note_on_c, 0, 71, 75
2, 375863, Note_on_c, 0, 71, 0
2, 375960, Note_on_c, 0, 72, 75
2, 375983, Note_on_c, 0, 72, 0
2, 376080, Note_on_c, 0, 73, 75
2, 376140, Note_on_c, 0, 73, 0
2, 376140, Note_on_c, 0, 74, 75
2, 376200, Note_on_c, 0, 74, 0
2, 376200, Note_on_c, 0, 76, 75
2, 376260, Note_on_c, 0, 76, 0
2, 376260, Note_on_c, 0, 74, 75
2, 376320, Note_on_c, 0, 74, 0
2, 376320, Note_on_c, 0, 74, 75
2, 376343, Note_on_c, 0, 74, 0
2, 376440, Note_on_c, 0, 80, 75
2, 376463, Note_on_c, 0, 80, 0
2, 376560, Note_on_c, 0, 68, 75
2, 376560, Note_on_c, 0, 71, 75
2, 376560, Note_on_c, 0, 75, 75
2, 376583, Note_on_c, 0, 75, 0
2, 376583, Note_on_c, 0, 71, 0
2, 376583, Note_on_c, 0, 68, 0
2, 376680, Note_on_c, 0, 68, 75
2, 376680, Note_on_c, 0, 71, 75
2, 376680, Note_on_c, 0, 80, 75
2, 376703, Note_on_c, 0, 80, 0
2, 376703, Note_on_c, 0, 71, 0
2, 376703, Note_on_c, 0, 68, 0
2, 376800, Note_on_c, 0, 68, 75
2, 376800, Note_on_c, 0, 71, 75
2, 376800, Note_on_c, 0, 74, 75
2, 376823, Note_on_c, 0, 74, 0
2, 376823, Note_on_c, 0, 71, 0
2, 376823, Note_on_c, 0, 68, 0
2, 376920, Note_on_c, 0, 68, 75
2, 376920, Note_on_c, 0, 71, 75
2, 376920, Note_on_c, 0, 80, 75
2, 376943, Note_on_c, 0, 80, 0
2, 376943, Note_on_c, 0, 71, 0
2, 376943, Note_on_c, 0, 68, 0
2, 377040, Note_on_c, 0, 68, 75
2, 377040, Note_on_c, 0, 71, 75
2, 377040, Note_on_c, 0, 75, 75
2, 377063, Note_on_c, 0, 75, 0
2, 377063, Note_on_c, 0, 71, 0
2, 377063, Note_on_c, 0, 68, 0
2, 377160, Note_on_c, 0, 68, 75
2, 377160, Note_on_c, 0, 71, 75
2, 377160, Note_on_c, 0, 80, 75
2, 377183, Note_on_c, 0, 80, 0
2, 377183, Note_on_c, 0, 71, 0
2, 377183, Note_on_c, 0, 68, 0
2, 377280, Note_on_c, 0, 56, 88
2, 377280, Note_on_c, 0, 59, 88
2, 377280, Note_on_c, 0, 62, 88
2, 377303, Note_on_c, 0, 62, 0
2, 377303, Note_on_c, 0, 59, 0
2, 377303, Note_on_c, 0, 56, 0
2, 377400, Note_on_c, 0, 63, 88
2, 377423, Note_on_c, 0, 63, 0
2, 377520, Note_on_c, 0, 64, 88
2, 377580, Note_on_c, 0, 64, 0
2, 377580, Note_on_c, 0, 65, 88
2, 377640, Note_on_c, 0, 65, 0
2, 377640, Note_on_c, 0, 67, 88
2, 377700, Note_on_c, 0, 67, 0
2, 377700, Note_on_c, 0, 65, 88
2, 377760, Note_on_c, 0, 65, 0
2, 377760, Note_on_c, 0, 65, 88
2, 377783, Note_on_c, 0, 65, 0
2, 377880, Note_on_c, 0, 71, 88
2, 377903, Note_on_c, 0, 71, 0
2, 378000, Note_on_c, 0, 78, 88
2, 378023, Note_on_c, 0, 78, 0
2, 378120, Note_on_c, 0, 79, 88
2, 378143, Note_on_c, 0, 79, 0
2, 378240, Note_on_c, 0, 79, 88
2, 378300, Note_on_c, 0, 79, 0
2, 378300, Note_on_c, 0, 81, 88
2, 378360, Note_on_c, 0, 81, 0
2, 378360, Note_on_c, 0, 82, 88
2, 378420, Note_on_c, 0, 82, 0
2, 378420, Note_on_c, 0, 81, 88
2, 378480, Note_on_c, 0, 81, 0
2, 378480, Note_on_c, 0, 81, 88
2, 378503, Note_on_c, 0, 81, 0
2, 378600, Note_on_c, 0, 84, 88
2, 378623, Note_on_c, 0, 84, 0
2, 378720, Note_on_c, 0, 58, 101
2, 378720, Note_on_c, 0, 61, 101
2, 378720, Note_on_c, 0, 64, 101
2, 378743, Note_on_c, 0, 64, 0
2, 378743, Note_on_c, 0, 61, 0
2, 378743, Note_on_c, 0, 58, 0
2, 378840, Note_on_c, 0, 65, 101
2, 378863, Note_on_c, 0, 65, 0
2, 378960, Note_on_c, 0, 66, 101
2, 379020, Note_on_c, 0, 66, 0
2, 379020, Note_on_c, 0, 67, 101
2, 379080, Note_on_c, 0, 67, 0
2, 379080, Note_on_c, 0, 69, 101
2, 379140, Note_on_c, 0, 69, 0
2, 379140, Note_on_c, 0, 67, 101
2, 379200, Note_on_c, 0, 67, 0
2, 379200, Note_on_c, 0, 67, 101
2, 379223, Note_on_c, 0, 67, 0
2, 379320, Note_on_c, 0, 73, 101
2, 379343, Note_on_c, 0, 73, 0
2, 379440, Note_on_c, 0, 79, 101
2, 379463, Note_on_c, 0, 79, 0
2, 379560, Note_on_c, 0, 81, 101
2, 379583, Note_on_c, 0, 81, 0
2, 379680, Note_on_c, 0, 82, 101
2, 379740, Note_on_c, 0, 82, 0
2, 379740, Note_on_c, 0, 83, 101
2, 379800, Note_on_c, 0, 83, 0
2, 379800, Note_on_c, 0, 84, 101
2, 379860, Note_on_c, 0, 84, 0
2, 379860, Note_on_c, 0, 83, 101
2, 379920, Note_on_c, 0, 83, 0
2, 379920, Note_on_c, 0, 83, 101
2, 379943, Note_on_c, 0, 83, 0
2, 380040, Note_on_c, 0, 86, 101
2, 380063, Note_on_c, 0, 86, 0
2, 380160, Note_on_c, 0, 67, 101
2, 380220, Note_on_c, 0, 67, 0
2, 380220, Note_on_c, 0, 68, 101
2, 380280, Note_on_c, 0, 68, 0
2, 380280, Note_on_c, 0, 70, 101
2, 380340, Note_on_c, 0, 70, 0
2, 380340, Note_on_c, 0, 68, 101
2, 380400, Note_on_c, 0, 68, 0
2, 380400, Note_on_c, 0, 68, 101
2, 380423, Note_on_c, 0, 68, 0
2, 380520, Note_on_c, 0, 75, 101
2, 380543, Note_on_c, 0, 75, 0
2, 380640, Note_on_c, 0, 79, 101
2, 380700, Note_on_c, 0, 79, 0
2, 380700, Note_on_c, 0, 80, 101
2, 380760, Note_on_c, 0, 80, 0
2, 380760, Note_on_c, 0, 82, 101
2, 380820, Note_on_c, 0, 82, 0
2, 380820, Note_on_c, 0, 80, 101
2, 380880, Note_on_c, 0, 80, 0
2, 380880, Note_on_c, 0, 80, 101
2, 380903, Note_on_c, 0, 80, 0
2, 381000, Note_on_c, 0, 87, 101
2, 381023, Note_on_c, 0, 87, 0
2, 381120, Note_on_c, 0, 68, 101
2, 381180, Note_on_c, 0, 68, 0
2, 381180, Note_on_c, 0, 69, 101
2, 381240, Note_on_c, 0, 69, 0
2, 381240, Note_on_c, 0, 71, 101
2, 381300, Note_on_c, 0, 71, 0
2, 381300, Note_on_c, 0, 69, 101
2, 381360, Note_on_c, 0, 69, 0
2, 381360, Note_on_c, 0, 69, 101
2, 381383, Note_on_c, 0, 69, 0
2, 381480, Note_on_c, 0, 76, 101
2, 381503, Note_on_c, 0, 76, 0
2, 381600, Note_on_c, 0, 80, 101
2, 381660, Note_on_c, 0, 80, 0
2, 381660, Note_on_c, 0, 81, 101
2, 381720, Note_on_c, 0, 81, 0
2, 381720, Note_on_c, 0, 83, 101
2, 381780, Note_on_c, 0, 83, 0
2, 381780, Note_on_c, 0, 81, 101
2, 381840, Note_on_c, 0, 81, 0
2, 381840, Note_on_c, 0, 81, 101
2, 381863, Note_on_c, 0, 81, 0
2, 381960, Note_on_c, 0, 88, 101
2, 381983, Note_on_c, 0, 88, 0
2, 382080, Note_on_c, 0, 69, 101
2, 382140, Note_on_c, 0, 69, 0
2, 382140, Note_on_c, 0, 70, 101
2, 382200, Note_on_c, 0, 70, 0
2, 382200, Note_on_c, 0, 71, 101
2, 382260, Note_on_c, 0, 71, 0
2, 382260, Note_on_c, 0, 70, 101
2, 382320, Note_on_c, 0, 70, 0
2, 382320, Note_on_c, 0, 70, 101
2, 382343, Note_on_c, 0, 70, 0
2, 382440, Note_on_c, 0, 78, 101
2, 382463, Note_on_c, 0, 78, 0
2, 382560, Note_on_c, 0, 70, 101
2, 382620, Note_on_c, 0, 70, 0
2, 382620, Note_on_c, 0, 71, 101
2, 382680, Note_on_c, 0, 71, 0
2, 382680, Note_on_c, 0, 73, 101
2, 382740, Note_on_c, 0, 73, 0
2, 382740, Note_on_c, 0, 71, 101
2, 382800, Note_on_c, 0, 71, 0
2, 382800, Note_on_c, 0, 71, 101
2, 382823, Note_on_c, 0, 71, 0
2, 382920, Note_on_c, 0, 78, 101
2, 382943, Note_on_c, 0, 78, 0
2, 383040, Note_on_c, 0, 71, 101
2, 383100, Note_on_c, 0, 71, 0
2, 383100, Note_on_c, 0, 72, 101
2, 383160, Note_on_c, 0, 72, 0
2, 383160, Note_on_c, 0, 74, 101
2, 383220, Note_on_c, 0, 74, 0
2, 383220, Note_on_c, 0, 72, 101
2, 383280, Note_on_c, 0, 72, 0
2, 383280, Note_on_c, 0, 72, 101
2, 383303, Note_on_c, 0, 72, 0
2, 383400, Note_on_c, 0, 79, 101
2, 383423, Note_on_c, 0, 79, 0
2, 383520, Note_on_c, 0, 75, 101
2, 383580, Note_on_c, 0, 75, 0
2, 383580, Note_on_c, 0, 76, 101
2, 383640, Note_on_c, 0, 76, 0
2, 383640, Note_on_c, 0, 77, 101
2, 383700, Note_on_c, 0, 77, 0
2, 383700, Note_on_c, 0, 76, 101
2, 383760, Note_on_c, 0, 76, 0
2, 383760, Note_on_c, 0, 76, 101
2, 383783, Note_on_c, 0, 76, 0
2, 383880, Note_on_c, 0, 84, 101
2, 383903, Note_on_c, 0, 84, 0
2, 384000, Note_on_c, 0, 72, 101
2, 384000, Note_on_c, 0, 76, 101
2, 384000, Note_on_c, 0, 79, 101
2, 384023, Note_on_c, 0, 79, 0
2, 384023, Note_on_c, 0, 76, 0
2, 384023, Note_on_c, 0, 72, 0
2, 384120, Note_on_c, 0, 88, 101
2, 384143, Note_on_c, 0, 88, 0
2, 384240, Note_on_c, 0, 76, 101
2, 384240, Note_on_c, 0, 79, 101
2, 384240, Note_on_c, 0, 84, 101
2, 384263, Note_on_c, 0, 84, 0
2, 384263, Note_on_c, 0, 79, 0
2, 384263, Note_on_c, 0, 76, 0
2, 384360, Note_on_c, 0, 91, 101
2, 384383, Note_on_c, 0, 91, 0
2, 384480, Note_on_c, 0, 87, 101
2, 384540, Note_on_c, 0, 87, 0
2, 384540, Note_on_c, 0, 88, 101
2, 384600, Note_on_c, 0, 88, 0
2, 384600, Note_on_c, 0, 90, 101
2, 384660, Note_on_c, 0, 90, 0
2, 384660, Note_on_c, 0, 91, 101
2, 384720, Note_on_c, 0, 91, 0
2, 384720, Note_on_c, 0, 87, 101
2, 384780, Note_on_c, 0, 87, 0
2, 384780, Note_on_c, 0, 88, 101
2, 384840, Note_on_c, 0, 88, 0
2, 384840, Note_on_c, 0, 90, 101
2, 384900, Note_on_c, 0, 90, 0
2, 384900, Note_on_c, 0, 91, 101
2, 384960, Note_on_c, 0, 91, 0
2, 384960, Note_on_c, 0, 87, 101
2, 385020, Note_on_c, 0, 87, 0
2, 385020, Note_on_c, 0, 88, 101
2, 385080, Note_on_c, 0, 88, 0
2, 385080, Note_on_c, 0, 90, 101
2, 385140, Note_on_c, 0, 90, 0
2, 385140, Note_on_c, 0, 91, 101
2, 385200, Note_on_c, 0, 91, 0
2, 385200, Note_on_c, 0, 87, 101
2, 385260, Note_on_c, 0, 87, 0
2, 385260, Note_on_c, 0, 88, 101
2, 385320, Note_on_c, 0, 88, 0
2, 385320, Note_on_c, 0, 90, 101
2, 385380, Note_on_c, 0, 90, 0
2, 385380, Note_on_c, 0, 91, 101
2, 385440, Note_on_c, 0, 91, 0
2, 385440, Note_on_c, 0, 87, 101
2, 385500, Note_on_c, 0, 87, 0
2, 385500, Note_on_c, 0, 88, 101
2, 385560, Note_on_c, 0, 88, 0
2, 385560, Note_on_c, 0, 90, 101
2, 385620, Note_on_c, 0, 90, 0
2, 385620, Note_on_c, 0, 91, 101
2, 385680, Note_on_c, 0, 91, 0
2, 385680, Note_on_c, 0, 87, 101
2, 385740, Note_on_c, 0, 87, 0
2, 385740, Note_on_c, 0, 88, 101
2, 385800, Note_on_c, 0, 88, 0
2, 385800, Note_on_c, 0, 90, 101
2, 385860, Note_on_c, 0, 90, 0
2, 385860, Note_on_c, 0, 91, 101
2, 385920, Note_on_c, 0, 91, 0
2, 385920, Control_c, 0, 64, 127
2, 385920, Note_on_c, 0, 80, 101
2, 385920, Note_on_c, 0, 83, 101
2, 385920, Note_on_c, 0, 88, 101
2, 385920, Note_on_c, 0, 92, 101
2, 386040, Note_on_c, 0, 92, 0
2, 386040, Note_on_c, 0, 80, 0
2, 386040, Note_on_c, 0, 83, 0
2, 386040, Note_on_c, 0, 88, 0
2, 386040, Note_on_c, 0, 80, 101
2, 386040, Note_on_c, 0, 83, 101
2, 386040, Note_on_c, 0, 88, 101
2, 386040, Note_on_c, 0, 92, 101
2, 386160, Note_on_c, 0, 92, 0
2, 386160, Note_on_c, 0, 80, 0
2, 386160, Note_on_c, 0, 83, 0
2, 386160, Note_on_c, 0, 88, 0
2, 386160, Note_on_c, 0, 80, 101
2, 386160, Note_on_c, 0, 83, 101
2, 386160, Note_on_c, 0, 88, 101
2, 386160, Note_on_c, 0, 92, 101
2, 386280, Note_on_c, 0, 92, 0
2, 386280, Note_on_c, 0, 80, 0
2, 386280, Note_on_c, 0, 83, 0
2, 386280, Note_on_c, 0, 88, 0
2, 386280, Note_on_c, 0, 80, 101
2, 386280, Note_on_c, 0, 83, 101
2, 386280, Note_on_c, 0, 88, 101
2, 386280, Note_on_c, 0, 92, 101
2, 386400, Note_on_c, 0, 92, 0
2, 386400, Note_on_c, 0, 80, 0
2, 386400, Note_on_c, 0, 83, 0
2, 386400, Note_on_c, 0, 88, 0
2, 386400, Note_on_c, 0, 80, 101
2, 386400, Note_on_c, 0, 83, 101
2, 386400, Note_on_c, 0, 88, 101
2, 386400, Note_on_c, 0, 92, 101
2, 386520, Note_on_c, 0, 92, 0
2, 386520, Note_on_c, 0, 80, 0
2, 386520, Note_on_c, 0, 83, 0
2, 386520, Note_on_c, 0, 88, 0
2, 386520, Note_on_c, 0, 80, 101
2, 386520, Note_on_c, 0, 83, 101
2, 386520, Note_on_c, 0, 88, 101
2, 386520, Note_on_c, 0, 92, 101
2, 386640, Note_on_c, 0, 92, 0
2, 386640, Note_on_c, 0, 80, 0
2, 386640, Note_on_c, 0, 83, 0
2, 386640, Note_on_c, 0, 88, 0
2, 386640, Note_on_c, 0, 80, 101
2, 386640, Note_on_c, 0, 83, 101
2, 386640, Note_on_c, 0, 88, 101
2, 386640, Note_on_c, 0, 92, 101
2, 386760, Note_on_c, 0, 92, 0
2, 386760, Note_on_c, 0, 80, 0
2, 386760, Note_on_c, 0, 83, 0
2, 386760, Note_on_c, 0, 88, 0
2, 386760, Note_on_c, 0, 80, 101
2, 386760, Note_on_c, 0, 83, 101
2, 386760, Note_on_c, 0, 88, 101
2, 386760, Note_on_c, 0, 92, 101
2, 386880, Note_on_c, 0, 92, 0
2, 386880, Note_on_c, 0, 80, 0
2, 386880, Note_on_c, 0, 83, 0
2, 386880, Note_on_c, 0, 88, 0
2, 386880, Note_on_c, 0, 80, 101
2, 386880, Note_on_c, 0, 83, 101
2, 386880, Note_on_c, 0, 88, 101
2, 386880, Note_on_c, 0, 92, 101
2, 387000, Note_on_c, 0, 92, 0
2, 387000, Note_on_c, 0, 80, 0
2, 387000, Note_on_c, 0, 83, 0
2, 387000, Note_on_c, 0, 88, 0
2, 387000, Note_on_c, 0, 80, 101
2, 387000, Note_on_c, 0, 83, 101
2, 387000, Note_on_c, 0, 88, 101
2, 387000, Note_on_c, 0, 92, 101
2, 387120, Note_on_c, 0, 92, 0
2, 387120, Note_on_c, 0, 80, 0
2, 387120, Note_on_c, 0, 83, 0
2, 387120, Note_on_c, 0, 88, 0
2, 387120, Note_on_c, 0, 80, 101
2, 387120, Note_on_c, 0, 83, 101
2, 387120, Note_on_c, 0, 88, 101
2, 387120, Note_on_c, 0, 92, 101
2, 387240, Note_on_c, 0, 92, 0
2, 387240, Note_on_c, 0, 80, 0
2, 387240, Note_on_c, 0, 83, 0
2, 387240, Note_on_c, 0, 88, 0
2, 387240, Control_c, 0, 64, 0
2, 387240, Note_on_c, 0, 80, 101
2, 387240, Note_on_c, 0, 83, 101
2, 387240, Note_on_c, 0, 88, 101
2, 387240, Note_on_c, 0, 92, 101
2, 387360, Note_on_c, 0, 92, 0
2, 387360, Note_on_c, 0, 80, 0
2, 387360, Note_on_c, 0, 83, 0
2, 387360, Note_on_c, 0, 88, 0
2, 387360, Control_c, 0, 64, 127
2, 387360, Note_on_c, 0, 80, 101
2, 387360, Note_on_c, 0, 83, 101
2, 387360, Note_on_c, 0, 88, 101
2, 387360, Note_on_c, 0, 92, 101
2, 387420, Note_on_c, 0, 92, 0
2, 387420, Note_on_c, 0, 80, 0
2, 387420, Note_on_c, 0, 83, 0
2, 387420, Note_on_c, 0, 88, 0
2, 387420, Note_on_c, 0, 80, 101
2, 387420, Note_on_c, 0, 83, 101
2, 387420, Note_on_c, 0, 88, 101
2, 387420, Note_on_c, 0, 92, 101
2, 387480, Note_on_c, 0, 92, 0
2, 387480, Note_on_c, 0, 80, 0
2, 387480, Note_on_c, 0, 83, 0
2, 387480, Note_on_c, 0, 88, 0
2, 387480, Note_on_c, 0, 80, 101
2, 387480, Note_on_c, 0, 83, 101
2, 387480, Note_on_c, 0, 88, 101
2, 387480, Note_on_c, 0, 92, 101
2, 387600, Note_on_c, 0, 92, 0
2, 387600, Note_on_c, 0, 80, 0
2, 387600, Note_on_c, 0, 83, 0
2, 387600, Note_on_c, 0, 88, 0
2, 387600, Note_on_c, 0, 80, 101
2, 387600, Note_on_c, 0, 83, 101
2, 387600, Note_on_c, 0, 88, 101
2, 387600, Note_on_c, 0, 92, 101
2, 387660, Note_on_c, 0, 92, 0
2, 387660, Note_on_c, 0, 80, 0
2, 387660, Note_on_c, 0, 83, 0
2, 387660, Note_on_c, 0, 88, 0
2, 387660, Note_on_c, 0, 80, 101
2, 387660, Note_on_c, 0, 83, 101
2, 387660, Note_on_c, 0, 88, 101
2, 387660, Note_on_c, 0, 92, 101
2, 387720, Note_on_c, 0, 92, 0
2, 387720, Note_on_c, 0, 80, 0
2, 387720, Note_on_c, 0, 83, 0
2, 387720, Note_on_c, 0, 88, 0
2, 387720, Note_on_c, 0, 80, 101
2, 387720, Note_on_c, 0, 83, 101
2, 387720, Note_on_c, 0, 88, 101
2, 387720, Note_on_c, 0, 92, 101
2, 387840, Note_on_c, 0, 92, 0
2, 387840, Note_on_c, 0, 80, 0
2, 387840, Note_on_c, 0, 83, 0
2, 387840, Note_on_c, 0, 88, 0
2, 387840, Note_on_c, 0, 80, 101
2, 387840, Note_on_c, 0, 83, 101
2, 387840, Note_on_c, 0, 88, 101
2, 387840, Note_on_c, 0, 92, 101
2, 387900, Note_on_c, 0, 92, 0
2, 387900, Note_on_c, 0, 80, 0
2, 387900, Note_on_c, 0, 83, 0
2, 387900, Note_on_c, 0, 88, 0
2, 387900, Note_on_c, 0, 80, 101
2, 387900, Note_on_c, 0, 83, 101
2, 387900, Note_on_c, 0, 88, 101
2, 387900, Note_on_c, 0, 92, 101
2, 387960, Note_on_c, 0, 92, 0
2, 387960, Note_on_c, 0, 80, 0
2, 387960, Note_on_c, 0, 83, 0
2, 387960, Note_on_c, 0, 88, 0
2, 387960, Control_c, 0, 64, 0
2, 387960, Note_on_c, 0, 80, 101
2, 387960, Note_on_c, 0, 83, 101
2, 387960, Note_on_c, 0, 88, 101
2, 387960, Note_on_c, 0, 92, 101
2, 388080, Note_on_c, 0, 92, 0
2, 388080, Note_on_c, 0, 80, 0
2, 388080, Note_on_c, 0, 83, 0
2, 388080, Note_on_c, 0, 88, 0
2, 388080, Note_on_c, 0, 79, 127
2, 388080, Note_on_c, 0, 84, 127
2, 388080, Note_on_c, 0, 88, 127
2, 388080, Note_on_c, 0, 91, 127
2, 388320, Note_on_c, 0, 91, 0
2, 388320, Note_on_c, 0, 79, 0
2, 388320, Note_on_c, 0, 84, 0
2, 388320, Note_on_c, 0, 88, 0
2, 388320, Control_c, 0, 64, 127
2, 388320, Note_on_c, 0, 67, 101
2, 388380, Note_on_c, 0, 67, 0
2, 388380, Note_on_c, 0, 65, 101
2, 388440, Note_on_c, 0, 65, 0
2, 388440, Note_on_c, 0, 64, 101
2, 388500, Note_on_c, 0, 64, 0
2, 388500, Note_on_c, 0, 62, 101
2, 388560, Note_on_c, 0, 62, 0
2, 388560, Control_c, 0, 64, 0
2, 388560, Note_on_c, 0, 52, 101
2, 388560, Note_on_c, 0, 55, 101
2, 388560, Note_on_c, 0, 60, 101
2, 389040, Note_on_c, 0, 60, 0
2, 389040, Note_on_c, 0, 55, 0
2, 389040, Note_on_c, 0, 52, 0
2, 390000, Note_on_c, 0, 84, 62
2, 390000, Note_on_c, 0, 88, 62
2, 390000, Note_on_c, 0, 91, 62
2, 390240, Note_on_c, 0, 91, 0
2, 390240, Note_on_c, 0, 88, 0
2, 390240, Note_on_c, 0, 84, 0
2, 390240, Note_on_c, 0, 79, 62
2, 390240, Note_on_c, 0, 84, 62
2, 390240, Note_on_c, 0, 88, 62
2, 390480, Note_on_c, 0, 88, 0
2, 390480, Note_on_c, 0, 84, 0
2, 390480, Note_on_c, 0, 79, 0
2, 390480, Note_on_c, 0, 76, 62
2, 390480, Note_on_c, 0, 79, 62
2, 390480, Note_on_c, 0, 84, 62
2, 390720, Note_on_c, 0, 84, 0
2, 390720, Note_on_c, 0, 79, 0
2, 390720, Note_on_c, 0, 76, 0
2, 390720, Note_on_c, 0, 79, 62
2, 390720, Note_on_c, 0, 84, 62
2, 390720, Note_on_c, 0, 88, 62
2, 390960, Note_on_c, 0, 88, 0
2, 390960, Note_on_c, 0, 84, 0
2, 390960, Note_on_c, 0, 79, 0
2, 390960, Note_on_c, 0, 76, 62
2, 390960, Note_on_c, 0, 79, 62
2, 390960, Note_on_c, 0, 84, 62
2, 391200, Note_on_c, 0, 84, 0
2, 391200, Note_on_c, 0, 79, 0
2, 391200, Note_on_c, 0, 76, 0
2, 391200, Note_on_c, 0, 72, 62
2, 391200, Note_on_c, 0, 76, 62
2, 391200, Note_on_c, 0, 79, 62
2, 391440, Note_on_c, 0, 79, 0
2, 391440, Note_on_c, 0, 76, 0
2, 391440, Note_on_c, 0, 72, 0
2, 391440, Note_on_c, 0, 76, 62
2, 391440, Note_on_c, 0, 79, 62
2, 391440, Note_on_c, 0, 84, 62
2, 391680, Note_on_c, 0, 84, 0
2, 391680, Note_on_c, 0, 79, 0
2, 391680, Note_on_c, 0, 76, 0
2, 391680, Note_on_c, 0, 72, 62
2, 391680, Note_on_c, 0, 76, 62
2, 391680, Note_on_c, 0, 79, 62
2, 391920, Note_on_c, 0, 79, 0
2, 391920, Note_on_c, 0, 76, 0
2, 391920, Note_on_c, 0, 72, 0
2, 391920, Note_on_c, 0, 67, 62
2, 391920, Note_on_c, 0, 72, 62
2, 391920, Note_on_c, 0, 76, 62
2, 392160, Note_on_c, 0, 76, 0
2, 392160, Note_on_c, 0, 72, 0
2, 392160, Note_on_c, 0, 67, 0
2, 392160, Note_on_c, 0, 64, 62
2, 392160, Note_on_c, 0, 67, 62
2, 392160, Note_on_c, 0, 72, 62
2, 392400, Note_on_c, 0, 72, 0
2, 392400, Note_on_c, 0, 67, 0
2, 392400, Note_on_c, 0, 64, 0
2, 392400, Note_on_c, 0, 60, 62
2, 392400, Note_on_c, 0, 64, 62
2, 392400, Note_on_c, 0, 67, 62
2, 392640, Note_on_c, 0, 67, 0
2, 392640, Note_on_c, 0, 64, 0
2, 392640, Note_on_c, 0, 60, 0
2, 392640, Note_on_c, 0, 56, 62
2, 392640, Note_on_c, 0, 59, 62
2, 392640, Note_on_c, 0, 64, 62
2, 392880, Note_on_c, 0, 64, 0
2, 392880, Note_on_c, 0, 59, 0
2, 392880, Note_on_c, 0, 56, 0
2, 392880, Note_on_c, 0, 71, 88
2, 392880, Note_on_c, 0, 83, 88
2, 393120, Note_on_c, 0, 83, 0
2, 393120, Note_on_c, 0, 71, 0
2, 393120, Note_on_c, 0, 68, 88
2, 393120, Note_on_c, 0, 80, 88
2, 393360, Note_on_c, 0, 80, 0
2, 393360, Note_on_c, 0, 68, 0
2, 393360, Note_on_c, 0, 68, 88
2, 393360, Note_on_c, 0, 80, 88
2, 393600, Note_on_c, 0, 80, 0
2, 393600, Note_on_c, 0, 68, 0
2, 393600, Note_on_c, 0, 66, 88
2, 393600, Note_on_c, 0, 78, 88
2, 393840, Note_on_c, 0, 78, 0
2, 393840, Note_on_c, 0, 66, 0
2, 393840, Note_on_c, 0, 65, 88
2, 393840, Note_on_c, 0, 77, 88
2, 394080, Note_on_c, 0, 77, 0
2, 394080, Note_on_c, 0, 65, 0
2, 394080, Note_on_c, 0, 66, 88
2, 394080, Note_on_c, 0, 78, 88
2, 394320, Note_on_c, 0, 78, 0
2, 394320, Note_on_c, 0, 66, 0
2, 394320, Note_on_c, 0, 68, 88
2, 394320, Note_on_c, 0, 80, 88
2, 394560, Note_on_c, 0, 80, 0
2, 394560, Note_on_c, 0, 68, 0
2, 394560, Note_on_c, 0, 69, 88
2, 394560, Note_on_c, 0, 81, 88
2, 394800, Note_on_c, 0, 81, 0
2, 394800, Note_on_c, 0, 69, 0
2, 394800, Note_on_c, 0, 71, 88
2, 394800, Note_on_c, 0, 83, 88
2, 395760, Note_on_c, 0, 83, 0
2, 395760, Note_on_c, 0, 71, 0
2, 395760, Note_on_c, 0, 73, 114
2, 395760, Note_on_c, 0, 85, 114
2, 396000, Note_on_c, 0, 85, 0
2, 396000, Note_on_c, 0, 73, 0
2, 396000, Note_on_c, 0, 75, 114
2, 396000, Note_on_c, 0, 87, 114
2, 396240, Note_on_c, 0, 87, 0
2, 396240, Note_on_c, 0, 75, 0
2, 396240, Note_on_c, 0, 76, 88
2, 396240, Note_on_c, 0, 88, 88
2, 396480, Note_on_c, 0, 88, 0
2, 396480, Note_on_c, 0, 76, 0
2, 396480, Note_on_c, 0, 75, 88
2, 396480, Note_on_c, 0, 87, 88
2, 396720, Note_on_c, 0, 87, 0
2, 396720, Note_on_c, 0, 75, 0
2, 396720, Note_on_c, 0, 73, 88
2, 396720, Note_on_c, 0, 85, 88
2, 396960, Note_on_c, 0, 85, 0
2, 396960, Note_on_c, 0, 73, 0
2, 396960, Note_on_c, 0, 71, 114
2, 396960, Note_on_c, 0, 83, 114
2, 397440, Note_on_c, 0, 83, 0
2, 397440, Note_on_c, 0, 71, 0
2, 397440, Note_on_c, 0, 66, 88
2, 397440, Note_on_c, 0, 78, 88
2, 397680, Note_on_c, 0, 78, 0
2, 397680, Note_on_c, 0, 66, 0
2, 397680, Note_on_c, 0, 66, 88
2, 397680, Note_on_c, 0, 78, 88
2, 398400, Note_on_c, 0, 78, 0
2, 398400, Note_on_c, 0, 66, 0
2, 398400, Note_on_c, 0, 56, 88
2, 398400, Note_on_c, 0, 59, 88
2, 398400, Note_on_c, 0, 64, 88
2, 398640, Note_on_c, 0, 64, 0
2, 398640, Note_on_c, 0, 59, 0
2, 398640, Note_on_c, 0, 56, 0
2, 398640, Note_on_c, 0, 71, 88
2, 398640, Note_on_c, 0, 83, 88
2, 398880, Note_on_c, 0, 83, 0
2, 398880, Note_on_c, 0, 71, 0
2, 398880, Note_on_c, 0, 68, 88
2, 398880, Note_on_c, 0, 80, 88
2, 399120, Note_on_c, 0, 80, 0
2, 399120, Note_on_c, 0, 68, 0
2, 399120, Note_on_c, 0, 68, 88
2, 399120, Note_on_c, 0, 80, 88
2, 399360, Note_on_c, 0, 80, 0
2, 399360, Note_on_c, 0, 68, 0
2, 399360, Note_on_c, 0, 66, 88
2, 399360, Note_on_c, 0, 78, 88
2, 399600, Note_on_c, 0, 78, 0
2, 399600, Note_on_c, 0, 66, 0
2, 399600, Note_on_c, 0, 65, 88
2, 399600, Note_on_c, 0, 77, 88
2, 399840, Note_on_c, 0, 77, 0
2, 399840, Note_on_c, 0, 65, 0
2, 399840, Note_on_c, 0, 66, 88
2, 399840, Note_on_c, 0, 78, 88
2, 400080, Note_on_c, 0, 78, 0
2, 400080, Note_on_c, 0, 66, 0
2, 400080, Note_on_c, 0, 68, 88
2, 400080, Note_on_c, 0, 80, 88
2, 400320, Note_on_c, 0, 80, 0
2, 400320, Note_on_c, 0, 68, 0
2, 400320, Note_on_c, 0, 69, 88
2, 400320, Note_on_c, 0, 81, 88
2, 400560, Note_on_c, 0, 81, 0
2, 400560, Note_on_c, 0, 69, 0
2, 400560, Note_on_c, 0, 71, 88
2, 400560, Note_on_c, 0, 83, 88
2, 401520, Note_on_c, 0, 83, 0
2, 401520, Note_on_c, 0, 71, 0
2, 401520, Note_on_c, 0, 85, 114
2, 401760, Note_on_c, 0, 85, 0
2, 401760, Note_on_c, 0, 87, 114
2, 402000, Note_on_c, 0, 87, 0
2, 402000, Note_on_c, 0, 76, 88
2, 402000, Note_on_c, 0, 88, 88
2, 402240, Note_on_c, 0, 88, 0
2, 402240, Note_on_c, 0, 76, 0
2, 402240, Note_on_c, 0, 75, 88
2, 402240, Note_on_c, 0, 87, 88
2, 402480, Note_on_c, 0, 87, 0
2, 402480, Note_on_c, 0, 75, 0
2, 402480, Note_on_c, 0, 73, 88
2, 402480, Note_on_c, 0, 85, 88
2, 402720, Note_on_c, 0, 85, 0
2, 402720, Note_on_c, 0, 73, 0
2, 402720, Note_on_c, 0, 71, 88
2, 402720, Note_on_c, 0, 83, 88
2, 403200, Note_on_c, 0, 83, 0
2, 403200, Note_on_c, 0, 71, 0
2, 403200, Note_on_c, 0, 70, 88
2, 403200, Note_on_c, 0, 82, 88
2, 403440, Note_on_c, 0, 82, 0
2, 403440, Note_on_c, 0, 70, 0
2, 403440, Control_c, 0, 64, 127
2, 403440, Note_on_c, 0, 68, 88
2, 403440, Note_on_c, 0, 71, 88
2, 403440, Note_on_c, 0, 75, 88
2, 403440, Note_on_c, 0, 80, 88
2, 403560, Note_on_c, 0, 80, 0
2, 403560, Note_on_c, 0, 68, 0
2, 403560, Note_on_c, 0, 71, 0
2, 403560, Note_on_c, 0, 75, 0
2, 403560, Note_on_c, 0, 63, 88
2, 403680, Note_on_c, 0, 63, 0
2, 403680, Note_on_c, 0, 63, 88
2, 403680, Note_on_c, 0, 68, 88
2, 403800, Note_on_c, 0, 68, 0
2, 403800, Note_on_c, 0, 63, 0
2, 403800, Note_on_c, 0, 68, 101
2, 403800, Note_on_c, 0, 71, 101
2, 403920, Note_on_c, 0, 71, 0
2, 403920, Note_on_c, 0, 68, 0
2, 403920, Note_on_c, 0, 71, 101
2, 403920, Note_on_c, 0, 75, 101
2, 404040, Note_on_c, 0, 75, 0
2, 404040, Note_on_c, 0, 71, 0
2, 404040, Note_on_c, 0, 71, 101
2, 404040, Note_on_c, 0, 75, 101
2, 404040, Note_on_c, 0, 80, 101
2, 404160, Note_on_c, 0, 80, 0
2, 404160, Note_on_c, 0, 75, 0
2, 404160, Note_on_c, 0, 71, 0
2, 404160, Control_c, 0, 64, 0
2, 404160, Note_on_c, 0, 71, 101
2, 404160, Note_on_c, 0, 75, 101
2, 404160, Note_on_c, 0, 78, 101
2, 404160, Note_on_c, 0, 83, 101
2, 404400, Note_on_c, 0, 83, 0
2, 404400, Note_on_c, 0, 71, 0
2, 404400, Note_on_c, 0, 75, 0
2, 404400, Note_on_c, 0, 78, 0
2, 404400, Note_on_c, 0, 71, 127
2, 404400, Note_on_c, 0, 83, 127
2, 404640, Note_on_c, 0, 83, 0
2, 404640, Note_on_c, 0, 71, 0
2, 404640, Note_on_c, 0, 73, 127
2, 404640, Note_on_c, 0, 85, 127
2, 404880, Note_on_c, 0, 85, 0
2, 404880, Note_on_c, 0, 73, 0
2, 404880, Note_on_c, 0, 75, 101
2, 404880, Note_on_c, 0, 87, 101
2, 405120, Note_on_c, 0, 87, 0
2, 405120, Note_on_c, 0, 75, 0
2, 405120, Note_on_c, 0, 76, 101
2, 405120, Note_on_c, 0, 88, 101
2, 405360, Note_on_c, 0, 88, 0
2, 405360, Note_on_c, 0, 76, 0
2, 405360, Note_on_c, 0, 78, 101
2, 405360, Note_on_c, 0, 90, 101
2, 405600, Note_on_c, 0, 90, 0
2, 405600, Note_on_c, 0, 78, 0
2, 405600, Note_on_c, 0, 76, 101
2, 405600, Note_on_c, 0, 80, 101
2, 405600, Note_on_c, 0, 83, 101
2, 405600, Note_on_c, 0, 88, 101
2, 405840, Note_on_c, 0, 88, 0
2, 405840, Note_on_c, 0, 76, 0
2, 405840, Note_on_c, 0, 80, 0
2, 405840, Note_on_c, 0, 83, 0
2, 405840, Note_on_c, 0, 75, 101
2, 405840, Note_on_c, 0, 87, 101
2, 406080, Note_on_c, 0, 87, 0
2, 406080, Note_on_c, 0, 75, 0
2, 406080, Note_on_c, 0, 73, 101
2, 406080, Note_on_c, 0, 85, 101
2, 406320, Note_on_c, 0, 85, 0
2, 406320, Note_on_c, 0, 73, 0
2, 406320, Note_on_c, 0, 71, 101
2, 406320, Note_on_c, 0, 75, 101
2, 406320, Note_on_c, 0, 78, 101
2, 406320, Note_on_c, 0, 83, 101
2, 407040, Note_on_c, 0, 78, 0
2, 407040, Note_on_c, 0, 75, 0
2, 407040, Note_on_c, 0, 76, 101
2, 407040, Note_on_c, 0, 80, 101
2, 407280, Note_on_c, 0, 80, 0
2, 407280, Note_on_c, 0, 83, 0
2, 407280, Note_on_c, 0, 71, 0
2, 407280, Note_on_c, 0, 76, 0
2, 407280, Note_on_c, 0, 71, 127
2, 407280, Note_on_c, 0, 83, 127
2, 407520, Note_on_c, 0, 83, 0
2, 407520, Note_on_c, 0, 71, 0
2, 407520, Note_on_c, 0, 73, 127
2, 407520, Note_on_c, 0, 85, 127
2, 407760, Note_on_c, 0, 85, 0
2, 407760, Note_on_c, 0, 73, 0
2, 407760, Note_on_c, 0, 75, 101
2, 407760, Note_on_c, 0, 83, 101
2, 407760, Note_on_c, 0, 87, 101
2, 408000, Note_on_c, 0, 87, 0
2, 408000, Note_on_c, 0, 83, 0
2, 408000, Note_on_c, 0, 75, 0
2, 408000, Note_on_c, 0, 76, 101
2, 408000, Note_on_c, 0, 88, 101
2, 408240, Note_on_c, 0, 88, 0
2, 408240, Note_on_c, 0, 76, 0
2, 408240, Note_on_c, 0, 78, 101
2, 408240, Note_on_c, 0, 90, 101
2, 408480, Note_on_c, 0, 90, 0
2, 408480, Note_on_c, 0, 78, 0
2, 408480, Note_on_c, 0, 76, 101
2, 408480, Note_on_c, 0, 80, 101
2, 408480, Note_on_c, 0, 83, 101
2, 408480, Note_on_c, 0, 88, 101
2, 408720, Note_on_c, 0, 88, 0
2, 408720, Note_on_c, 0, 76, 0
2, 408720, Note_on_c, 0, 80, 0
2, 408720, Note_on_c, 0, 83, 0
2, 408720, Note_on_c, 0, 75, 101
2, 408720, Note_on_c, 0, 87, 101
2, 408960, Note_on_c, 0, 87, 0
2, 408960, Note_on_c, 0, 75, 0
2, 408960, Note_on_c, 0, 73, 101
2, 408960, Note_on_c, 0, 85, 101
2, 409200, Note_on_c, 0, 85, 0
2, 409200, Note_on_c, 0, 73, 0
2, 409200, Note_on_c, 0, 71, 101
2, 409200, Note_on_c, 0, 75, 101
2, 409200, Note_on_c, 0, 78, 101
2, 409200, Note_on_c, 0, 83, 101
2, 409920, Note_on_c, 0, 78, 0
2, 409920, Note_on_c, 0, 75, 0
2, 409920, Note_on_c, 0, 76, 101
2, 409920, Note_on_c, 0, 80, 101
2, 410400, Note_on_c, 0, 80, 0
2, 410400, Note_on_c, 0, 83, 0
2, 410400, Note_on_c, 0, 71, 0
2, 410400, Note_on_c, 0, 76, 0
2, 410400, Note_on_c, 0, 71, 101
2, 410400, Note_on_c, 0, 83, 101
2, 410640, Note_on_c, 0, 83, 0
2, 410640, Note_on_c, 0, 71, 0
2, 410640, Note_on_c, 0, 73, 127
2, 410640, Note_on_c, 0, 78, 127
2, 410640, Note_on_c, 0, 81, 127
2, 410640, Note_on_c, 0, 85, 127
2, 411120, Note_on_c, 0, 85, 0
2, 411120, Note_on_c, 0, 73, 0
2, 411120, Note_on_c, 0, 78, 0
2, 411120, Note_on_c, 0, 81, 0
2, 411120, Note_on_c, 0, 71, 101
2, 411120, Note_on_c, 0, 83, 101
2, 411360, Note_on_c, 0, 83, 0
2, 411360, Note_on_c, 0, 71, 0
2, 411360, Note_on_c, 0, 64, 127
2, 411360, Note_on_c, 0, 68, 127
2, 411360, Note_on_c, 0, 71, 127
2, 411360, Note_on_c, 0, 76, 127
2, 411840, Note_on_c, 0, 76, 0
2, 411840, Note_on_c, 0, 64, 0
2, 411840, Note_on_c, 0, 68, 0
2, 411840, Note_on_c, 0, 71, 0
2, 411840, Note_on_c, 0, 71, 101
2, 411840, Note_on_c, 0, 83, 101
2, 412080, Note_on_c, 0, 83, 0
2, 412080, Note_on_c, 0, 71, 0
2, 412080, Note_on_c, 0, 73, 127
2, 412080, Note_on_c, 0, 78, 127
2, 412080, Note_on_c, 0, 81, 127
2, 412080, Note_on_c, 0, 85, 127
2, 412560, Note_on_c, 0, 85, 0
2, 412560, Note_on_c, 0, 73, 0
2, 412560, Note_on_c, 0, 78, 0
2, 412560, Note_on_c, 0, 81, 0
2, 412560, Note_on_c, 0, 71, 101
2, 412560, Note_on_c, 0, 83, 101
2, 412800, Note_on_c, 0, 83, 0
2, 412800, Note_on_c, 0, 71, 0
2, 412800, Note_on_c, 0, 64, 127
2, 412800, Note_on_c, 0, 68, 127
2, 412800, Note_on_c, 0, 71, 127
2, 412800, Note_on_c, 0, 76, 127
2, 413280, Note_on_c, 0, 76, 0
2, 413280, Note_on_c, 0, 64, 0
2, 413280, Note_on_c, 0, 68, 0
2, 413280, Note_on_c, 0, 71, 0
2, 413280, Note_on_c, 0, 71, 101
2, 413280, Note_on_c, 0, 83, 101
2, 413520, Note_on_c, 0, 83, 0
2, 413520, Note_on_c, 0, 71, 0
2, 413520, Note_on_c, 0, 73, 127
2, 413520, Note_on_c, 0, 78, 127
2, 413520, Note_on_c, 0, 81, 127
2, 413520, Note_on_c, 0, 85, 127
2, 414000, Note_on_c, 0, 85, 0
2, 414000, Note_on_c, 0, 73, 0
2, 414000, Note_on_c, 0, 78, 0
2, 414000, Note_on_c, 0, 81, 0
2, 414000, Note_on_c, 0, 71, 101
2, 414000, Note_on_c, 0, 83, 101
2, 414240, Note_on_c, 0, 83, 0
2, 414240, Note_on_c, 0, 71, 0
2, 414240, Note_on_c, 0, 64, 127
2, 414240, Note_on_c, 0, 68, 127
2, 414240, Note_on_c, 0, 71, 127
2, 414240, Note_on_c, 0, 76, 127
2, 414720, Note_on_c, 0, 76, 0
2, 414720, Note_on_c, 0, 64, 0
2, 414720, Note_on_c, 0, 68, 0
2, 414720, Note_on_c, 0, 71, 0
2, 414720, Note_on_c, 0, 71, 101
2, 414720, Note_on_c, 0, 83, 101
2, 414960, Note_on_c, 0, 83, 0
2, 414960, Note_on_c, 0, 71, 0
2, 414960, Note_on_c, 0, 76, 101
2, 414960, Note_on_c, 0, 80, 101
2, 414960, Note_on_c, 0, 83, 101
2, 414960, Note_on_c, 0, 88, 101
2, 415440, Note_on_c, 0, 88, 0
2, 415440, Note_on_c, 0, 76, 0
2, 415440, Note_on_c, 0, 80, 0
2, 415440, Note_on_c, 0, 83, 0
2, 415440, Note_on_c, 0, 68, 101
2, 415440, Note_on_c, 0, 80, 101
2, 415680, Note_on_c, 0, 80, 0
2, 415680, Note_on_c, 0, 68, 0
2, 415680, Note_on_c, 0, 71, 101
2, 415680, Note_on_c, 0, 76, 101
2, 415680, Note_on_c, 0, 80, 101
2, 415680, Note_on_c, 0, 83, 101
2, 416160, Note_on_c, 0, 83, 0
2, 416160, Note_on_c, 0, 71, 0
2, 416160, Note_on_c, 0, 76, 0
2, 416160, Note_on_c, 0, 80, 0
2, 416160, Note_on_c, 0, 76, 101
2, 416400, Note_on_c, 0, 76, 0
2, 416400, Note_on_c, 0, 68, 101
2, 416400, Note_on_c, 0, 71, 101
2, 416400, Note_on_c, 0, 76, 101
2, 416400, Note_on_c, 0, 80, 101
2, 416880, Note_on_c, 0, 80, 0
2, 416880, Note_on_c, 0, 68, 0
2, 416880, Note_on_c, 0, 71, 0
2, 416880, Note_on_c, 0, 76, 0
2, 416880, Note_on_c, 0, 59, 101
2, 416880, Note_on_c, 0, 71, 101
2, 417120, Note_on_c, 0, 71, 0
2, 417120, Note_on_c, 0, 59, 0
2, 417120, Note_on_c, 0, 64, 101
2, 417120, Note_on_c, 0, 68, 101
2, 417120, Note_on_c, 0, 71, 101
2, 417120, Note_on_c, 0, 76, 101
2, 417360, Note_on_c, 0, 76, 0
2, 417360, Note_on_c, 0, 64, 0
2, 417360, Note_on_c, 0, 68, 0
2, 417360, Note_on_c, 0, 71, 0
2, 417360, Control_c, 0, 64, 127
2, 417360, Note_on_c, 0, 56, 101
2, 417600, Note_on_c, 0, 56, 0
2, 417600, Note_on_c, 0, 56, 101
2, 417600, Note_on_c, 0, 59, 101
2, 417840, Note_on_c, 0, 59, 0
2, 417840, Note_on_c, 0, 56, 0
2, 417840, Note_on_c, 0, 56, 101
2, 417840, Note_on_c, 0, 59, 101
2, 417840, Note_on_c, 0, 64, 101
2, 418080, Note_on_c, 0, 64, 0
2, 418080, Note_on_c, 0, 59, 0
2, 418080, Note_on_c, 0, 56, 0
2, 418080, Note_on_c, 0, 59, 101
2, 418080, Note_on_c, 0, 64, 101
2, 418080, Note_on_c, 0, 68, 101
2, 418320, Note_on_c, 0, 68, 0
2, 418320, Note_on_c, 0, 64, 0
2, 418320, Note_on_c, 0, 59, 0
2, 418320, Control_c, 0, 64, 0
2, 418320, Note_on_c, 0, 59, 101
2, 418320, Note_on_c, 0, 64, 101
2, 418320, Note_on_c, 0, 68, 101
2, 418320, Note_on_c, 0, 71, 101
2, 418560, Note_on_c, 0, 71, 0
2, 418560, Note_on_c, 0, 59, 0
2, 418560, Note_on_c, 0, 64, 0
2, 418560, Note_on_c, 0, 68, 0
2, 418560, Control_c, 0, 64, 127
2, 418560, Note_on_c, 0, 64, 101
2, 418560, Note_on_c, 0, 68, 101
2, 418560, Note_on_c, 0, 71, 101
2, 418560, Note_on_c, 0, 76, 101
2, 418800, Note_on_c, 0, 76, 0
2, 418800, Note_on_c, 0, 64, 0
2, 418800, Note_on_c, 0, 68, 0
2, 418800, Note_on_c, 0, 71, 0
2, 418800, Note_on_c, 0, 56, 101
2, 418800, Note_on_c, 0, 59, 101
2, 418800, Note_on_c, 0, 64, 101
2, 418800, Note_on_c, 0, 68, 101
2, 419040, Note_on_c, 0, 68, 0
2, 419040, Note_on_c, 0, 56, 0
2, 419040, Note_on_c, 0, 59, 0
2, 419040, Note_on_c, 0, 64, 0
2, 419040, Note_on_c, 0, 59, 101
2, 419040, Note_on_c, 0, 64, 101
2, 419040, Note_on_c, 0, 68, 101
2, 419040, Note_on_c, 0, 71, 101
2, 419280, Note_on_c, 0, 71, 0
2, 419280, Note_on_c, 0, 59, 0
2, 419280, Note_on_c, 0, 64, 0
2, 419280, Note_on_c, 0, 68, 0
2, 419280, Note_on_c, 0, 64, 101
2, 419280, Note_on_c, 0, 68, 101
2, 419280, Note_on_c, 0, 71, 101
2, 419280, Note_on_c, 0, 76, 101
2, 419520, Note_on_c, 0, 76, 0
2, 419520, Note_on_c, 0, 64, 0
2, 419520, Note_on_c, 0, 68, 0
2, 419520, Note_on_c, 0, 71, 0
2, 419520, Note_on_c, 0, 68, 101
2, 419520, Note_on_c, 0, 71, 101
2, 419520, Note_on_c, 0, 76, 101
2, 419520, Note_on_c, 0, 80, 101
2, 419760, Note_on_c, 0, 80, 0
2, 419760, Note_on_c, 0, 68, 0
2, 419760, Note_on_c, 0, 71, 0
2, 419760, Note_on_c, 0, 76, 0
2, 419760, Note_on_c, 0, 71, 101
2, 419760, Note_on_c, 0, 76, 101
2, 419760, Note_on_c, 0, 80, 101
2, 419760, Note_on_c, 0, 83, 101
2, 420000, Note_on_c, 0, 83, 0
2, 420000, Note_on_c, 0, 71, 0
2, 420000, Note_on_c, 0, 76, 0
2, 420000, Note_on_c, 0, 80, 0
2, 420000, Control_c, 0, 64, 0
2, 420000, Note_on_c, 0, 76, 101
2, 420000, Note_on_c, 0, 80, 101
2, 420000, Note_on_c, 0, 83, 101
2, 420000, Note_on_c, 0, 88, 101
2, 420240, Note_on_c, 0, 88, 0
2, 420240, Note_on_c, 0, 76, 0
2, 420240, Note_on_c, 0, 80, 0
2, 420240, Note_on_c, 0, 83, 0
2, 421440, Note_on_c, 0, 68, 114
2, 421440, Note_on_c, 0, 71, 114
2, 421440, Note_on_c, 0, 76, 114
2, 421440, Note_on_c, 0, 80, 114
2, 421500, Note_on_c, 0, 80, 0
2, 421500, Note_on_c, 0, 68, 0
2, 421500, Note_on_c, 0, 71, 0
2, 421500, Note_on_c, 0, 76, 0
2, 421500, Note_on_c, 0, 68, 114
2, 421500, Note_on_c, 0, 71, 114
2, 421500, Note_on_c, 0, 76, 114
2, 421500, Note_on_c, 0, 80, 114
2, 421560, Note_on_c, 0, 80, 0
2, 421560, Note_on_c, 0, 68, 0
2, 421560, Note_on_c, 0, 71, 0
2, 421560, Note_on_c, 0, 76, 0
2, 421560, Note_on_c, 0, 68, 114
2, 421560, Note_on_c, 0, 71, 114
2, 421560, Note_on_c, 0, 76, 114
2, 421560, Note_on_c, 0, 80, 114
2, 421680, Note_on_c, 0, 80, 0
2, 421680, Note_on_c, 0, 68, 0
2, 421680, Note_on_c, 0, 71, 0
2, 421680, Note_on_c, 0, 76, 0
2, 422880, Note_on_c, 0, 56, 114
2, 422880, Note_on_c, 0, 59, 114
2, 422880, Note_on_c, 0, 64, 114
2, 423360, Note_on_c, 0, 64, 0
2, 423360, Note_on_c, 0, 59, 0
2, 423360, Note_on_c, 0, 56, 0
2, 423360, Control_c, 0, 64, 127
2, 426240, Control_c, 0, 64, 0
2, 426240, End_track
3, 0, Start_track
3, 0, Title_t, "Grand Piano"
3, 0, Program_c, 0, 0
3, 0, Control_c, 0, 7, 115
3, 0, Control_c, 0, 10, 80
3, 2400, Note_on_c, 0, 55, 75
3, 2400, Note_on_c, 0, 61, 75
3, 2880, Note_on_c, 0, 61, 0
3, 2880, Note_on_c, 0, 55, 0
3, 2880, Note_on_c, 0, 54, 75
3, 2880, Note_on_c, 0, 59, 75
3, 3360, Note_on_c, 0, 59, 0
3, 3360, Note_on_c, 0, 54, 0
3, 3360, Note_on_c, 0, 55, 75
3, 3360, Note_on_c, 0, 59, 75
3, 3360, Note_on_c, 0, 62, 75
3, 3840, Note_on_c, 0, 62, 0
3, 3840, Note_on_c, 0, 59, 0
3, 3840, Note_on_c, 0, 55, 0
3, 3840, Note_on_c, 0, 55, 75
3, 3840, Note_on_c, 0, 61, 75
3, 4320, Note_on_c, 0, 61, 0
3, 4320, Note_on_c, 0, 55, 0
3, 4320, Note_on_c, 0, 58, 75
3, 4320, Note_on_c, 0, 61, 75
3, 4800, Note_on_c, 0, 61, 0
3, 4800, Note_on_c, 0, 58, 0
3, 4800, Note_on_c, 0, 59, 75
3, 4800, Note_on_c, 0, 62, 75
3, 5280, Note_on_c, 0, 62, 0
3, 5280, Note_on_c, 0, 59, 0
3, 5280, Note_on_c, 0, 56, 75
3, 5280, Note_on_c, 0, 62, 75
3, 5760, Note_on_c, 0, 62, 0
3, 5760, Note_on_c, 0, 56, 0
3, 21360, Note_on_c, 0, 64, 88
3, 21600, Note_on_c, 0, 64, 0
3, 21600, Note_on_c, 0, 64, 62
3, 21960, Note_on_c, 0, 64, 0
3, 21960, Note_on_c, 0, 64, 62
3, 22080, Note_on_c, 0, 64, 0
3, 22080, Note_on_c, 0, 64, 62
3, 22320, Note_on_c, 0, 64, 0
3, 22320, Note_on_c, 0, 64, 62
3, 22560, Note_on_c, 0, 64, 0
3, 23280, Note_on_c, 0, 65, 88
3, 23520, Note_on_c, 0, 65, 0
3, 23520, Note_on_c, 0, 65, 62
3, 23880, Note_on_c, 0, 65, 0
3, 23880, Note_on_c, 0, 65, 62
3, 24000, Note_on_c, 0, 65, 0
3, 24000, Note_on_c, 0, 65, 62
3, 24240, Note_on_c, 0, 65, 0
3, 24240, Note_on_c, 0, 65, 62
3, 24480, Note_on_c, 0, 65, 0
3, 25200, Note_on_c, 0, 66, 88
3, 25440, Note_on_c, 0, 66, 0
3, 26160, Note_on_c, 0, 67, 88
3, 26400, Note_on_c, 0, 67, 0
3, 31320, Note_on_c, 0, 58, 75
3, 31440, Note_on_c, 0, 58, 0
3, 31440, Note_on_c, 0, 60, 75
3, 31560, Note_on_c, 0, 60, 0
3, 31560, Note_on_c, 0, 61, 75
3, 31680, Note_on_c, 0, 61, 0
3, 31680, Note_on_c, 0, 62, 75
3, 31920, Note_on_c, 0, 62, 0
3, 32280, Note_on_c, 0, 62, 75
3, 32400, Note_on_c, 0, 62, 0
3, 32400, Note_on_c, 0, 63, 75
3, 32520, Note_on_c, 0, 63, 0
3, 32520, Note_on_c, 0, 65, 75
3, 32640, Note_on_c, 0, 65, 0
3, 32640, Note_on_c, 0, 67, 75
3, 32880, Note_on_c, 0, 67, 0
3, 33240, Note_on_c, 0, 67, 75
3, 33360, Note_on_c, 0, 67, 0
3, 33360, Note_on_c, 0, 71, 75
3, 33480, Note_on_c, 0, 71, 0
3, 33480, Note_on_c, 0, 72, 75
3, 33600, Note_on_c, 0, 72, 0
3, 33600, Note_on_c, 0, 74, 75
3, 33840, Note_on_c, 0, 74, 0
3, 35160, Note_on_c, 0, 60, 75
3, 35280, Note_on_c, 0, 60, 0
3, 35280, Note_on_c, 0, 62, 75
3, 35400, Note_on_c, 0, 62, 0
3, 35400, Note_on_c, 0, 63, 75
3, 35520, Note_on_c, 0, 63, 0
3, 35520, Note_on_c, 0, 64, 75
3, 35760, Note_on_c, 0, 64, 0
3, 36120, Note_on_c, 0, 64, 75
3, 36240, Note_on_c, 0, 64, 0
3, 36240, Note_on_c, 0, 66, 75
3, 36360, Note_on_c, 0, 66, 0
3, 36360, Note_on_c, 0, 67, 75
3, 36480, Note_on_c, 0, 67, 0
3, 36480, Note_on_c, 0, 69, 75
3, 36720, Note_on_c, 0, 69, 0
3, 37080, Note_on_c, 0, 69, 75
3, 37200, Note_on_c, 0, 69, 0
3, 37200, Note_on_c, 0, 72, 75
3, 37320, Note_on_c, 0, 72, 0
3, 37320, Note_on_c, 0, 74, 75
3, 37440, Note_on_c, 0, 74, 0
3, 37440, Note_on_c, 0, 76, 75
3, 37680, Note_on_c, 0, 76, 0
3, 38400, Note_on_c, 0, 76, 75
3, 38520, Note_on_c, 0, 76, 0
3, 38520, Note_on_c, 0, 74, 75
3, 38640, Note_on_c, 0, 74, 0
3, 38640, Note_on_c, 0, 69, 75
3, 38663, Note_on_c, 0, 69, 0
3, 38760, Note_on_c, 0, 65, 75
3, 38783, Note_on_c, 0, 65, 0
3, 38880, Note_on_c, 0, 77, 62
3, 39360, Note_on_c, 0, 77, 0
3, 39360, Note_on_c, 0, 74, 62
3, 39840, Note_on_c, 0, 74, 0
3, 39840, Note_on_c, 0, 71, 62
3, 40080, Note_on_c, 0, 71, 0
3, 40080, Note_on_c, 0, 70, 62
3, 40320, Note_on_c, 0, 70, 0
3, 40320, Note_on_c, 0, 69, 62
3, 40560, Note_on_c, 0, 69, 0
3, 40800, Note_on_c, 0, 77, 62
3, 41280, Note_on_c, 0, 77, 0
3, 41280, Note_on_c, 0, 74, 62
3, 41760, Note_on_c, 0, 74, 0
3, 41760, Note_on_c, 0, 71, 62
3, 42000, Note_on_c, 0, 71, 0
3, 42000, Note_on_c, 0, 70, 62
3, 42240, Note_on_c, 0, 70, 0
3, 42720, Note_on_c, 0, 69, 62
3, 42960, Note_on_c, 0, 69, 0
3, 43200, Note_on_c, 0, 66, 62
3, 43320, Note_on_c, 0, 66, 0
3, 43320, Note_on_c, 0, 67, 62
3, 43440, Note_on_c, 0, 67, 0
3, 43440, Note_on_c, 0, 70, 62
3, 43463, Note_on_c, 0, 70, 0
3, 43560, Note_on_c, 0, 74, 62
3, 43583, Note_on_c, 0, 74, 0
3, 44160, Note_on_c, 0, 64, 62
3, 44280, Note_on_c, 0, 64, 0
3, 44280, Note_on_c, 0, 65, 62
3, 44400, Note_on_c, 0, 65, 0
3, 44400, Note_on_c, 0, 69, 62
3, 44423, Note_on_c, 0, 69, 0
3, 44520, Note_on_c, 0, 72, 62
3, 44543, Note_on_c, 0, 72, 0
3, 44640, Note_on_c, 0, 69, 62
3, 44880, Note_on_c, 0, 69, 0
3, 44880, Note_on_c, 0, 65, 62
3, 45120, Note_on_c, 0, 65, 0
3, 45120, Note_on_c, 0, 65, 62
3, 45240, Note_on_c, 0, 65, 0
3, 45240, Note_on_c, 0, 66, 62
3, 45360, Note_on_c, 0, 66, 0
3, 45360, Note_on_c, 0, 69, 62
3, 45383, Note_on_c, 0, 69, 0
3, 45480, Note_on_c, 0, 74, 62
3, 45503, Note_on_c, 0, 74, 0
3, 46080, Note_on_c, 0, 61, 62
3, 46200, Note_on_c, 0, 61, 0
3, 46200, Note_on_c, 0, 62, 62
3, 46320, Note_on_c, 0, 62, 0
3, 46320, Note_on_c, 0, 64, 62
3, 46343, Note_on_c, 0, 64, 0
3, 46440, Note_on_c, 0, 66, 62
3, 46463, Note_on_c, 0, 66, 0
3, 46680, Note_on_c, 0, 55, 75
3, 46800, Note_on_c, 0, 55, 0
3, 46800, Note_on_c, 0, 57, 75
3, 46920, Note_on_c, 0, 57, 0
3, 46920, Note_on_c, 0, 58, 75
3, 47040, Note_on_c, 0, 58, 0
3, 47040, Note_on_c, 0, 59, 75
3, 47280, Note_on_c, 0, 59, 0
3, 47640, Note_on_c, 0, 59, 75
3, 47760, Note_on_c, 0, 59, 0
3, 47760, Note_on_c, 0, 61, 75
3, 47880, Note_on_c, 0, 61, 0
3, 47880, Note_on_c, 0, 62, 75
3, 48000, Note_on_c, 0, 62, 0
3, 48000, Note_on_c, 0, 64, 75
3, 48240, Note_on_c, 0, 64, 0
3, 48600, Note_on_c, 0, 64, 75
3, 48720, Note_on_c, 0, 64, 0
3, 48720, Note_on_c, 0, 68, 75
3, 48840, Note_on_c, 0, 68, 0
3, 48840, Note_on_c, 0, 69, 75
3, 48960, Note_on_c, 0, 69, 0
3, 48960, Note_on_c, 0, 71, 75
3, 49200, Note_on_c, 0, 71, 0
3, 50520, Note_on_c, 0, 57, 75
3, 50640, Note_on_c, 0, 57, 0
3, 50640, Note_on_c, 0, 59, 75
3, 50760, Note_on_c, 0, 59, 0
3, 50760, Note_on_c, 0, 60, 75
3, 50880, Note_on_c, 0, 60, 0
3, 50880, Note_on_c, 0, 61, 75
3, 51120, Note_on_c, 0, 61, 0
3, 51480, Note_on_c, 0, 61, 75
3, 51600, Note_on_c, 0, 61, 0
3, 51600, Note_on_c, 0, 63, 75
3, 51720, Note_on_c, 0, 63, 0
3, 51720, Note_on_c, 0, 64, 75
3, 51840, Note_on_c, 0, 64, 0
3, 51840, Note_on_c, 0, 66, 75
3, 52080, Note_on_c, 0, 66, 0
3, 52440, Note_on_c, 0, 66, 75
3, 52560, Note_on_c, 0, 66, 0
3, 52560, Note_on_c, 0, 70, 75
3, 52680, Note_on_c, 0, 70, 0
3, 52680, Note_on_c, 0, 71, 75
3, 52800, Note_on_c, 0, 71, 0
3, 52800, Note_on_c, 0, 73, 75
3, 53040, Note_on_c, 0, 73, 0
3, 53760, Note_on_c, 0, 73, 75
3, 53880, Note_on_c, 0, 73, 0
3, 53880, Note_on_c, 0, 71, 75
3, 54000, Note_on_c, 0, 71, 0
3, 54000, Note_on_c, 0, 66, 75
3, 54023, Note_on_c, 0, 66, 0
3, 54120, Note_on_c, 0, 59, 75
3, 54143, Note_on_c, 0, 59, 0
3, 54240, Note_on_c, 0, 74, 75
3, 54720, Note_on_c, 0, 74, 0
3, 54720, Note_on_c, 0, 71, 75
3, 55200, Note_on_c, 0, 71, 0
3, 55200, Note_on_c, 0, 68, 75
3, 55440, Note_on_c, 0, 68, 0
3, 55440, Note_on_c, 0, 67, 75
3, 55680, Note_on_c, 0, 67, 0
3, 55680, Note_on_c, 0, 66, 75
3, 55920, Note_on_c, 0, 66, 0
3, 56160, Note_on_c, 0, 74, 75
3, 56640, Note_on_c, 0, 74, 0
3, 56640, Note_on_c, 0, 71, 75
3, 57120, Note_on_c, 0, 71, 0
3, 57120, Note_on_c, 0, 68, 75
3, 57360, Note_on_c, 0, 68, 0
3, 57360, Note_on_c, 0, 67, 75
3, 57600, Note_on_c, 0, 67, 0
3, 57600, Note_on_c, 0, 54, 88
3, 57720, Note_on_c, 0, 54, 0
3, 57720, Note_on_c, 0, 58, 88
3, 57840, Note_on_c, 0, 58, 0
3, 57840, Note_on_c, 0, 59, 88
3, 57863, Note_on_c, 0, 59, 0
3, 57960, Note_on_c, 0, 62, 88
3, 57983, Note_on_c, 0, 62, 0
3, 58080, Note_on_c, 0, 66, 88
3, 58320, Note_on_c, 0, 66, 0
3, 58560, Note_on_c, 0, 63, 88
3, 58680, Note_on_c, 0, 63, 0
3, 58680, Note_on_c, 0, 64, 88
3, 58800, Note_on_c, 0, 64, 0
3, 58800, Note_on_c, 0, 67, 88
3, 58823, Note_on_c, 0, 67, 0
3, 58920, Note_on_c, 0, 71, 88
3, 58943, Note_on_c, 0, 71, 0
3, 59520, Note_on_c, 0, 61, 88
3, 59640, Note_on_c, 0, 61, 0
3, 59640, Note_on_c, 0, 62, 88
3, 59760, Note_on_c, 0, 62, 0
3, 59760, Note_on_c, 0, 66, 88
3, 59783, Note_on_c, 0, 66, 0
3, 59880, Note_on_c, 0, 69, 88
3, 59903, Note_on_c, 0, 69, 0
3, 60000, Note_on_c, 0, 66, 88
3, 60240, Note_on_c, 0, 66, 0
3, 60480, Note_on_c, 0, 62, 88
3, 60600, Note_on_c, 0, 62, 0
3, 60600, Note_on_c, 0, 63, 88
3, 60720, Note_on_c, 0, 63, 0
3, 60720, Note_on_c, 0, 66, 88
3, 60743, Note_on_c, 0, 66, 0
3, 60840, Note_on_c, 0, 71, 88
3, 60863, Note_on_c, 0, 71, 0
3, 63600, Note_on_c, 0, 67, 88
3, 63840, Note_on_c, 0, 67, 0
3, 64080, Note_on_c, 0, 67, 88
3, 64320, Note_on_c, 0, 67, 0
3, 64560, Note_on_c, 0, 67, 88
3, 64800, Note_on_c, 0, 67, 0
3, 65040, Note_on_c, 0, 67, 88
3, 65280, Note_on_c, 0, 67, 0
3, 65280, Note_on_c, 0, 67, 88
3, 65520, Note_on_c, 0, 67, 0
3, 65520, Note_on_c, 0, 73, 88
3, 66000, Note_on_c, 0, 73, 0
3, 66000, Note_on_c, 0, 76, 88
3, 66480, Note_on_c, 0, 76, 0
3, 66480, Note_on_c, 0, 79, 88
3, 66960, Note_on_c, 0, 79, 0
3, 66960, Note_on_c, 0, 79, 88
3, 67200, Note_on_c, 0, 79, 0
3, 67200, Note_on_c, 0, 79, 88
3, 67440, Note_on_c, 0, 79, 0
3, 67440, Note_on_c, 0, 79, 88
3, 67680, Note_on_c, 0, 79, 0
3, 67680, Note_on_c, 0, 79, 88
3, 67920, Note_on_c, 0, 79, 0
3, 67920, Note_on_c, 0, 79, 88
3, 68160, Note_on_c, 0, 79, 0
3, 68160, Note_on_c, 0, 79, 88
3, 68400, Note_on_c, 0, 79, 0
3, 68400, Note_on_c, 0, 79, 88
3, 68640, Note_on_c, 0, 79, 0
3, 70260, Note_on_c, 0, 63, 101
3, 70320, Note_on_c, 0, 63, 0
3, 70320, Note_on_c, 0, 64, 127
3, 70560, Note_on_c, 0, 64, 0
3, 70740, Note_on_c, 0, 63, 101
3, 70800, Note_on_c, 0, 63, 0
3, 70800, Note_on_c, 0, 64, 127
3, 71040, Note_on_c, 0, 64, 0
3, 75060, Note_on_c, 0, 64, 101
3, 75120, Note_on_c, 0, 64, 0
3, 75120, Note_on_c, 0, 67, 127
3, 75360, Note_on_c, 0, 67, 0
3, 75540, Note_on_c, 0, 64, 101
3, 75600, Note_on_c, 0, 64, 0
3, 75600, Note_on_c, 0, 67, 127
3, 75840, Note_on_c, 0, 67, 0
3, 86400, Note_on_c, 0, 64, 101
3, 86640, Note_on_c, 0, 64, 0
3, 86640, Note_on_c, 0, 67, 101
3, 86760, Note_on_c, 0, 67, 0
3, 86880, Note_on_c, 0, 70, 101
3, 87240, Note_on_c, 0, 70, 0
3, 87360, Note_on_c, 0, 73, 101
3, 87600, Note_on_c, 0, 73, 0
3, 87600, Note_on_c, 0, 73, 101
3, 87720, Note_on_c, 0, 73, 0
3, 93600, Note_on_c, 0, 67, 62
3, 94560, Note_on_c, 0, 67, 0
3, 94560, Note_on_c, 0, 73, 75
3, 95040, Note_on_c, 0, 73, 0
3, 95040, Note_on_c, 0, 67, 75
3, 96000, Note_on_c, 0, 67, 0
3, 97440, Note_on_c, 0, 67, 62
3, 98400, Note_on_c, 0, 67, 0
3, 98400, Note_on_c, 0, 73, 75
3, 98880, Note_on_c, 0, 73, 0
3, 98880, Note_on_c, 0, 67, 75
3, 99840, Note_on_c, 0, 67, 0
3, 101280, Note_on_c, 0, 70, 75
3, 102240, Note_on_c, 0, 70, 0
3, 102240, Note_on_c, 0, 76, 75
3, 102720, Note_on_c, 0, 76, 0
3, 102720, Note_on_c, 0, 73, 75
3, 103680, Note_on_c, 0, 73, 0
3, 103680, Note_on_c, 0, 67, 75
3, 104160, Note_on_c, 0, 67, 0
3, 105120, Note_on_c, 0, 70, 75
3, 106080, Note_on_c, 0, 70, 0
3, 106080, Note_on_c, 0, 76, 75
3, 106560, Note_on_c, 0, 76, 0
3, 106560, Note_on_c, 0, 73, 75
3, 107520, Note_on_c, 0, 73, 0
3, 107520, Note_on_c, 0, 67, 75
3, 108000, Note_on_c, 0, 67, 0
3, 124320, Note_on_c, 0, 67, 101
3, 125280, Note_on_c, 0, 67, 0
3, 125280, Note_on_c, 0, 66, 101
3, 125439, Note_on_c, 0, 66, 0
3, 125439, Note_on_c, 0, 67, 101
3, 125600, Note_on_c, 0, 67, 0
3, 125600, Note_on_c, 0, 69, 101
3, 125760, Note_on_c, 0, 69, 0
3, 126240, Note_on_c, 0, 67, 101
3, 127200, Note_on_c, 0, 67, 0
3, 127200, Note_on_c, 0, 66, 101
3, 127359, Note_on_c, 0, 66, 0
3, 127359, Note_on_c, 0, 67, 101
3, 127520, Note_on_c, 0, 67, 0
3, 127520, Note_on_c, 0, 69, 101
3, 127680, Note_on_c, 0, 69, 0
3, 127680, Note_on_c, 0, 67, 101
3, 127920, Note_on_c, 0, 67, 0
3, 127920, Note_on_c, 0, 66, 101
3, 128160, Note_on_c, 0, 66, 0
3, 128160, Note_on_c, 0, 67, 101
3, 128400, Note_on_c, 0, 67, 0
3, 128400, Note_on_c, 0, 66, 101
3, 128640, Note_on_c, 0, 66, 0
3, 128640, Note_on_c, 0, 67, 101
3, 128880, Note_on_c, 0, 67, 0
3, 128880, Note_on_c, 0, 66, 101
3, 129120, Note_on_c, 0, 66, 0
3, 129120, Note_on_c, 0, 67, 101
3, 129360, Note_on_c, 0, 67, 0
3, 129360, Note_on_c, 0, 66, 101
3, 129600, Note_on_c, 0, 66, 0
3, 129780, Note_on_c, 0, 67, 101
3, 129840, Note_on_c, 0, 67, 0
3, 129840, Note_on_c, 0, 70, 127
3, 130080, Note_on_c, 0, 70, 0
3, 130260, Note_on_c, 0, 67, 101
3, 130320, Note_on_c, 0, 67, 0
3, 130320, Note_on_c, 0, 70, 127
3, 130560, Note_on_c, 0, 70, 0
3, 134580, Note_on_c, 0, 70, 101
3, 134640, Note_on_c, 0, 70, 0
3, 134640, Note_on_c, 0, 73, 127
3, 134880, Note_on_c, 0, 73, 0
3, 135060, Note_on_c, 0, 70, 101
3, 135120, Note_on_c, 0, 70, 0
3, 135120, Note_on_c, 0, 73, 127
3, 135360, Note_on_c, 0, 73, 0
3, 139680, Note_on_c, 0, 70, 101
3, 140040, Note_on_c, 0, 70, 0
3, 141600, Note_on_c, 0, 70, 101
3, 141960, Note_on_c, 0, 70, 0
3, 158880, Note_on_c, 0, 73, 75
3, 159120, Note_on_c, 0, 73, 0
3, 159120, Note_on_c, 0, 75, 75
3, 159360, Note_on_c, 0, 75, 0
3, 159360, Note_on_c, 0, 76, 75
3, 159600, Note_on_c, 0, 76, 0
3, 159840, Note_on_c, 0, 71, 75
3, 160560, Note_on_c, 0, 71, 0
3, 160800, Note_on_c, 0, 73, 75
3, 161040, Note_on_c, 0, 73, 0
3, 161040, Note_on_c, 0, 75, 75
3, 161280, Note_on_c, 0, 75, 0
3, 161280, Note_on_c, 0, 76, 75
3, 161520, Note_on_c, 0, 76, 0
3, 161760, Note_on_c, 0, 71, 75
3, 162480, Note_on_c, 0, 71, 0
3, 162720, Note_on_c, 0, 78, 75
3, 162960, Note_on_c, 0, 78, 0
3, 162960, Note_on_c, 0, 80, 75
3, 163200, Note_on_c, 0, 80, 0
3, 163680, Note_on_c, 0, 75, 75
3, 163920, Note_on_c, 0, 75, 0
3, 163920, Note_on_c, 0, 77, 75
3, 164160, Note_on_c, 0, 77, 0
3, 164400, Note_on_c, 0, 78, 101
3, 164520, Note_on_c, 0, 78, 0
3, 164520, Note_on_c, 0, 77, 101
3, 164640, Note_on_c, 0, 77, 0
3, 164640, Note_on_c, 0, 75, 101
3, 164880, Note_on_c, 0, 75, 0
3, 164880, Note_on_c, 0, 78, 101
3, 165000, Note_on_c, 0, 78, 0
3, 165000, Note_on_c, 0, 77, 101
3, 165120, Note_on_c, 0, 77, 0
3, 165120, Note_on_c, 0, 75, 101
3, 165360, Note_on_c, 0, 75, 0
3, 165360, Note_on_c, 0, 78, 101
3, 165480, Note_on_c, 0, 78, 0
3, 165480, Note_on_c, 0, 77, 101
3, 165600, Note_on_c, 0, 77, 0
3, 167520, Control_c, 0, 64, 127
3, 167520, Note_on_c, 0, 66, 62
3, 167520, Note_on_c, 0, 70, 62
3, 167679, Note_on_c, 0, 70, 0
3, 167679, Note_on_c, 0, 66, 0
3, 167679, Note_on_c, 0, 66, 62
3, 167679, Note_on_c, 0, 70, 62
3, 167840, Note_on_c, 0, 70, 0
3, 167840, Note_on_c, 0, 66, 0
3, 167840, Control_c, 0, 64, 0
3, 167840, Note_on_c, 0, 66, 62
3, 167840, Note_on_c, 0, 70, 62
3, 168000, Note_on_c, 0, 70, 0
3, 168000, Note_on_c, 0, 66, 0
3, 171120, Note_on_c, 0, 61, 62
3, 171360, Note_on_c, 0, 61, 0
3, 171360, Note_on_c, 0, 63, 62
3, 171720, Note_on_c, 0, 63, 0
3, 171720, Note_on_c, 0, 61, 62
3, 171840, Note_on_c, 0, 61, 0
3, 176880, Note_on_c, 0, 54, 101
3, 176880, Note_on_c, 0, 66, 101
3, 177120, Note_on_c, 0, 66, 0
3, 177120, Note_on_c, 0, 54, 0
3, 177120, Note_on_c, 0, 56, 101
3, 177120, Note_on_c, 0, 68, 101
3, 177360, Note_on_c, 0, 68, 0
3, 177360, Note_on_c, 0, 56, 0
3, 177360, Note_on_c, 0, 57, 101
3, 177360, Note_on_c, 0, 69, 101
3, 177600, Note_on_c, 0, 69, 0
3, 177600, Note_on_c, 0, 57, 0
3, 177600, Note_on_c, 0, 58, 101
3, 177600, Note_on_c, 0, 70, 101
3, 177840, Note_on_c, 0, 70, 0
3, 177840, Note_on_c, 0, 58, 0
3, 219840, Note_on_c, 0, 89, 101
3, 220800, Note_on_c, 0, 89, 0
3, 220800, Note_on_c, 0, 88, 101
3, 221280, Note_on_c, 0, 88, 0
3, 227520, Note_on_c, 0, 89, 101
3, 228480, Note_on_c, 0, 89, 0
3, 228480, Note_on_c, 0, 88, 101
3, 228960, Note_on_c, 0, 88, 0
3, 229440, Note_on_c, 0, 59, 101
3, 229440, Note_on_c, 0, 64, 101
3, 229440, Note_on_c, 0, 67, 101
3, 229680, Note_on_c, 0, 67, 0
3, 229680, Note_on_c, 0, 64, 0
3, 229680, Note_on_c, 0, 59, 0
3, 229680, Note_on_c, 0, 64, 101
3, 229680, Note_on_c, 0, 67, 101
3, 229680, Note_on_c, 0, 71, 101
3, 229920, Note_on_c, 0, 71, 0
3, 229920, Note_on_c, 0, 67, 0
3, 229920, Note_on_c, 0, 64, 0
3, 229920, Note_on_c, 0, 59, 101
3, 229920, Note_on_c, 0, 64, 101
3, 229920, Note_on_c, 0, 67, 101
3, 230160, Note_on_c, 0, 67, 0
3, 230160, Note_on_c, 0, 64, 0
3, 230160, Note_on_c, 0, 59, 0
3, 230160, Note_on_c, 0, 64, 101
3, 230160, Note_on_c, 0, 67, 101
3, 230160, Note_on_c, 0, 71, 101
3, 230400, Note_on_c, 0, 71, 0
3, 230400, Note_on_c, 0, 67, 0
3, 230400, Note_on_c, 0, 64, 0
3, 230400, Note_on_c, 0, 59, 101
3, 230400, Note_on_c, 0, 64, 101
3, 230640, Note_on_c, 0, 64, 0
3, 230640, Note_on_c, 0, 59, 0
3, 230640, Note_on_c, 0, 64, 101
3, 230640, Note_on_c, 0, 71, 101
3, 230880, Note_on_c, 0, 71, 0
3, 230880, Note_on_c, 0, 64, 0
3, 230880, Note_on_c, 0, 59, 101
3, 230880, Note_on_c, 0, 64, 101
3, 231120, Note_on_c, 0, 64, 0
3, 231120, Note_on_c, 0, 59, 0
3, 231120, Note_on_c, 0, 64, 101
3, 231120, Note_on_c, 0, 71, 101
3, 231360, Note_on_c, 0, 71, 0
3, 231360, Note_on_c, 0, 64, 0
3, 231360, Note_on_c, 0, 59, 101
3, 231360, Note_on_c, 0, 64, 101
3, 231360, Note_on_c, 0, 67, 101
3, 231600, Note_on_c, 0, 67, 0
3, 231600, Note_on_c, 0, 64, 0
3, 231600, Note_on_c, 0, 59, 0
3, 231600, Note_on_c, 0, 64, 101
3, 231600, Note_on_c, 0, 67, 101
3, 231600, Note_on_c, 0, 71, 101
3, 231840, Note_on_c, 0, 71, 0
3, 231840, Note_on_c, 0, 67, 0
3, 231840, Note_on_c, 0, 64, 0
3, 231840, Note_on_c, 0, 59, 101
3, 231840, Note_on_c, 0, 64, 101
3, 231840, Note_on_c, 0, 67, 101
3, 232080, Note_on_c, 0, 67, 0
3, 232080, Note_on_c, 0, 64, 0
3, 232080, Note_on_c, 0, 59, 0
3, 232080, Note_on_c, 0, 64, 101
3, 232080, Note_on_c, 0, 67, 101
3, 232080, Note_on_c, 0, 71, 101
3, 232320, Note_on_c, 0, 71, 0
3, 232320, Note_on_c, 0, 67, 0
3, 232320, Note_on_c, 0, 64, 0
3, 232320, Note_on_c, 0, 59, 101
3, 232320, Note_on_c, 0, 64, 101
3, 232320, Note_on_c, 0, 67, 101
3, 232560, Note_on_c, 0, 67, 0
3, 232560, Note_on_c, 0, 64, 0
3, 232560, Note_on_c, 0, 59, 0
3, 232560, Note_on_c, 0, 64, 101
3, 232560, Note_on_c, 0, 67, 101
3, 232560, Note_on_c, 0, 71, 101
3, 232800, Note_on_c, 0, 71, 0
3, 232800, Note_on_c, 0, 67, 0
3, 232800, Note_on_c, 0, 64, 0
3, 232800, Note_on_c, 0, 59, 101
3, 232800, Note_on_c, 0, 64, 101
3, 232800, Note_on_c, 0, 67, 101
3, 233040, Note_on_c, 0, 67, 0
3, 233040, Note_on_c, 0, 64, 0
3, 233040, Note_on_c, 0, 59, 0
3, 233040, Note_on_c, 0, 64, 101
3, 233040, Note_on_c, 0, 67, 101
3, 233040, Note_on_c, 0, 71, 101
3, 233280, Note_on_c, 0, 71, 0
3, 233280, Note_on_c, 0, 67, 0
3, 233280, Note_on_c, 0, 64, 0
3, 233280, Note_on_c, 0, 58, 101
3, 233280, Note_on_c, 0, 61, 101
3, 233280, Note_on_c, 0, 64, 101
3, 233520, Note_on_c, 0, 64, 0
3, 233520, Note_on_c, 0, 61, 0
3, 233520, Note_on_c, 0, 58, 0
3, 233520, Note_on_c, 0, 61, 101
3, 233520, Note_on_c, 0, 64, 101
3, 233520, Note_on_c, 0, 70, 101
3, 233760, Note_on_c, 0, 70, 0
3, 233760, Note_on_c, 0, 64, 0
3, 233760, Note_on_c, 0, 61, 0
3, 233760, Note_on_c, 0, 58, 101
3, 233760, Note_on_c, 0, 61, 101
3, 233760, Note_on_c, 0, 64, 101
3, 234000, Note_on_c, 0, 64, 0
3, 234000, Note_on_c, 0, 61, 0
3, 234000, Note_on_c, 0, 58, 0
3, 234000, Note_on_c, 0, 61, 101
3, 234000, Note_on_c, 0, 64, 101
3, 234000, Note_on_c, 0, 70, 101
3, 234240, Note_on_c, 0, 70, 0
3, 234240, Note_on_c, 0, 64, 0
3, 234240, Note_on_c, 0, 61, 0
3, 234240, Note_on_c, 0, 58, 101
3, 234240, Note_on_c, 0, 61, 101
3, 234240, Note_on_c, 0, 64, 101
3, 234480, Note_on_c, 0, 64, 0
3, 234480, Note_on_c, 0, 61, 0
3, 234480, Note_on_c, 0, 58, 0
3, 234480, Note_on_c, 0, 61, 101
3, 234480, Note_on_c, 0, 64, 101
3, 234480, Note_on_c, 0, 70, 101
3, 234720, Note_on_c, 0, 70, 0
3, 234720, Note_on_c, 0, 64, 0
3, 234720, Note_on_c, 0, 61, 0
3, 234720, Note_on_c, 0, 58, 101
3, 234720, Note_on_c, 0, 61, 101
3, 234720, Note_on_c, 0, 64, 101
3, 234960, Note_on_c, 0, 64, 0
3, 234960, Note_on_c, 0, 61, 0
3, 234960, Note_on_c, 0, 58, 0
3, 234960, Note_on_c, 0, 61, 101
3, 234960, Note_on_c, 0, 64, 101
3, 235200, Note_on_c, 0, 64, 0
3, 235200, Note_on_c, 0, 61, 0
3, 235200, Note_on_c, 0, 61, 101
3, 235200, Note_on_c, 0, 64, 101
3, 235440, Note_on_c, 0, 64, 0
3, 235440, Note_on_c, 0, 61, 0
3, 235440, Note_on_c, 0, 64, 101
3, 235440, Note_on_c, 0, 66, 101
3, 235680, Note_on_c, 0, 66, 0
3, 235680, Note_on_c, 0, 64, 0
3, 235680, Note_on_c, 0, 61, 101
3, 235680, Note_on_c, 0, 64, 101
3, 235920, Note_on_c, 0, 64, 0
3, 235920, Note_on_c, 0, 61, 0
3, 235920, Note_on_c, 0, 64, 101
3, 235920, Note_on_c, 0, 66, 101
3, 236160, Note_on_c, 0, 66, 0
3, 236160, Note_on_c, 0, 64, 0
3, 236160, Note_on_c, 0, 62, 101
3, 236160, Note_on_c, 0, 66, 101
3, 236400, Note_on_c, 0, 66, 0
3, 236400, Note_on_c, 0, 62, 0
3, 236400, Note_on_c, 0, 62, 101
3, 236400, Note_on_c, 0, 66, 101
3, 236400, Note_on_c, 0, 71, 101
3, 236640, Note_on_c, 0, 71, 0
3, 236640, Note_on_c, 0, 66, 0
3, 236640, Note_on_c, 0, 62, 0
3, 236640, Note_on_c, 0, 59, 101
3, 236640, Note_on_c, 0, 62, 101
3, 236640, Note_on_c, 0, 66, 101
3, 236880, Note_on_c, 0, 66, 0
3, 236880, Note_on_c, 0, 62, 0
3, 236880, Note_on_c, 0, 59, 0
3, 236880, Note_on_c, 0, 62, 101
3, 236880, Note_on_c, 0, 66, 101
3, 236880, Note_on_c, 0, 71, 101
3, 237120, Note_on_c, 0, 71, 0
3, 237120, Note_on_c, 0, 66, 0
3, 237120, Note_on_c, 0, 62, 0
3, 237120, Note_on_c, 0, 59, 101
3, 237120, Note_on_c, 0, 64, 101
3, 237120, Note_on_c, 0, 67, 101
3, 237360, Note_on_c, 0, 67, 0
3, 237360, Note_on_c, 0, 64, 0
3, 237360, Note_on_c, 0, 59, 0
3, 237360, Note_on_c, 0, 64, 101
3, 237360, Note_on_c, 0, 67, 101
3, 237360, Note_on_c, 0, 71, 101
3, 237600, Note_on_c, 0, 71, 0
3, 237600, Note_on_c, 0, 67, 0
3, 237600, Note_on_c, 0, 64, 0
3, 237600, Note_on_c, 0, 59, 101
3, 237600, Note_on_c, 0, 64, 101
3, 237600, Note_on_c, 0, 67, 101
3, 237840, Note_on_c, 0, 67, 0
3, 237840, Note_on_c, 0, 64, 0
3, 237840, Note_on_c, 0, 59, 0
3, 237840, Note_on_c, 0, 64, 101
3, 237840, Note_on_c, 0, 67, 101
3, 237840, Note_on_c, 0, 71, 101
3, 238080, Note_on_c, 0, 71, 0
3, 238080, Note_on_c, 0, 67, 0
3, 238080, Note_on_c, 0, 64, 0
3, 238080, Note_on_c, 0, 59, 101
3, 238080, Note_on_c, 0, 64, 101
3, 238320, Note_on_c, 0, 64, 0
3, 238320, Note_on_c, 0, 59, 0
3, 238320, Note_on_c, 0, 64, 101
3, 238320, Note_on_c, 0, 71, 101
3, 238560, Note_on_c, 0, 71, 0
3, 238560, Note_on_c, 0, 64, 0
3, 238560, Note_on_c, 0, 59, 101
3, 238560, Note_on_c, 0, 64, 101
3, 238800, Note_on_c, 0, 64, 0
3, 238800, Note_on_c, 0, 59, 0
3, 238800, Note_on_c, 0, 64, 101
3, 238800, Note_on_c, 0, 71, 101
3, 239040, Note_on_c, 0, 71, 0
3, 239040, Note_on_c, 0, 64, 0
3, 239040, Note_on_c, 0, 59, 101
3, 239040, Note_on_c, 0, 64, 101
3, 239040, Note_on_c, 0, 67, 101
3, 239280, Note_on_c, 0, 67, 0
3, 239280, Note_on_c, 0, 64, 0
3, 239280, Note_on_c, 0, 59, 0
3, 239280, Note_on_c, 0, 64, 101
3, 239280, Note_on_c, 0, 67, 101
3, 239280, Note_on_c, 0, 71, 101
3, 239520, Note_on_c, 0, 71, 0
3, 239520, Note_on_c, 0, 67, 0
3, 239520, Note_on_c, 0, 64, 0
3, 239520, Note_on_c, 0, 59, 101
3, 239520, Note_on_c, 0, 64, 101
3, 239520, Note_on_c, 0, 67, 101
3, 239760, Note_on_c, 0, 67, 0
3, 239760, Note_on_c, 0, 64, 0
3, 239760, Note_on_c, 0, 59, 0
3, 239760, Note_on_c, 0, 64, 101
3, 239760, Note_on_c, 0, 67, 101
3, 239760, Note_on_c, 0, 71, 101
3, 240000, Note_on_c, 0, 71, 0
3, 240000, Note_on_c, 0, 67, 0
3, 240000, Note_on_c, 0, 64, 0
3, 240000, Note_on_c, 0, 59, 101
3, 240000, Note_on_c, 0, 64, 101
3, 240000, Note_on_c, 0, 67, 101
3, 240240, Note_on_c, 0, 67, 0
3, 240240, Note_on_c, 0, 64, 0
3, 240240, Note_on_c, 0, 59, 0
3, 240240, Note_on_c, 0, 64, 101
3, 240240, Note_on_c, 0, 67, 101
3, 240240, Note_on_c, 0, 71, 101
3, 240480, Note_on_c, 0, 71, 0
3, 240480, Note_on_c, 0, 67, 0
3, 240480, Note_on_c, 0, 64, 0
3, 240480, Note_on_c, 0, 59, 101
3, 240480, Note_on_c, 0, 64, 101
3, 240480, Note_on_c, 0, 67, 101
3, 240720, Note_on_c, 0, 67, 0
3, 240720, Note_on_c, 0, 64, 0
3, 240720, Note_on_c, 0, 59, 0
3, 240720, Note_on_c, 0, 64, 101
3, 240720, Note_on_c, 0, 67, 101
3, 240720, Note_on_c, 0, 71, 101
3, 240960, Note_on_c, 0, 71, 0
3, 240960, Note_on_c, 0, 67, 0
3, 240960, Note_on_c, 0, 64, 0
3, 240960, Note_on_c, 0, 58, 101
3, 240960, Note_on_c, 0, 61, 101
3, 240960, Note_on_c, 0, 64, 101
3, 241200, Note_on_c, 0, 64, 0
3, 241200, Note_on_c, 0, 61, 0
3, 241200, Note_on_c, 0, 58, 0
3, 241200, Note_on_c, 0, 64, 101
3, 241200, Note_on_c, 0, 70, 101
3, 241440, Note_on_c, 0, 70, 0
3, 241440, Note_on_c, 0, 64, 0
3, 241440, Note_on_c, 0, 58, 101
3, 241440, Note_on_c, 0, 61, 101
3, 241440, Note_on_c, 0, 64, 101
3, 241680, Note_on_c, 0, 64, 0
3, 241680, Note_on_c, 0, 61, 0
3, 241680, Note_on_c, 0, 58, 0
3, 241680, Note_on_c, 0, 61, 101
3, 241680, Note_on_c, 0, 64, 101
3, 241680, Note_on_c, 0, 70, 101
3, 241920, Note_on_c, 0, 70, 0
3, 241920, Note_on_c, 0, 64, 0
3, 241920, Note_on_c, 0, 61, 0
3, 241920, Note_on_c, 0, 58, 101
3, 241920, Note_on_c, 0, 61, 101
3, 241920, Note_on_c, 0, 64, 101
3, 242160, Note_on_c, 0, 64, 0
3, 242160, Note_on_c, 0, 61, 0
3, 242160, Note_on_c, 0, 58, 0
3, 242160, Note_on_c, 0, 61, 101
3, 242160, Note_on_c, 0, 64, 101
3, 242160, Note_on_c, 0, 70, 101
3, 242400, Note_on_c, 0, 70, 0
3, 242400, Note_on_c, 0, 64, 0
3, 242400, Note_on_c, 0, 61, 0
3, 242400, Note_on_c, 0, 58, 101
3, 242400, Note_on_c, 0, 61, 101
3, 242400, Note_on_c, 0, 64, 101
3, 242640, Note_on_c, 0, 64, 0
3, 242640, Note_on_c, 0, 61, 0
3, 242640, Note_on_c, 0, 58, 0
3, 242640, Note_on_c, 0, 61, 101
3, 242640, Note_on_c, 0, 64, 101
3, 242880, Note_on_c, 0, 64, 0
3, 242880, Note_on_c, 0, 61, 0
3, 242880, Note_on_c, 0, 61, 101
3, 242880, Note_on_c, 0, 64, 101
3, 243120, Note_on_c, 0, 64, 0
3, 243120, Note_on_c, 0, 61, 0
3, 243120, Note_on_c, 0, 64, 101
3, 243120, Note_on_c, 0, 66, 101
3, 243360, Note_on_c, 0, 66, 0
3, 243360, Note_on_c, 0, 64, 0
3, 243360, Note_on_c, 0, 61, 101
3, 243360, Note_on_c, 0, 64, 101
3, 243600, Note_on_c, 0, 64, 0
3, 243600, Note_on_c, 0, 61, 0
3, 243600, Note_on_c, 0, 64, 101
3, 243600, Note_on_c, 0, 66, 101
3, 243840, Note_on_c, 0, 66, 0
3, 243840, Note_on_c, 0, 64, 0
3, 243840, Note_on_c, 0, 62, 101
3, 243840, Note_on_c, 0, 66, 101
3, 244080, Note_on_c, 0, 66, 0
3, 244080, Note_on_c, 0, 62, 0
3, 244080, Note_on_c, 0, 62, 101
3, 244080, Note_on_c, 0, 66, 101
3, 244080, Note_on_c, 0, 71, 101
3, 244320, Note_on_c, 0, 71, 0
3, 244320, Note_on_c, 0, 66, 0
3, 244320, Note_on_c, 0, 62, 0
3, 244320, Note_on_c, 0, 59, 101
3, 244320, Note_on_c, 0, 62, 101
3, 244320, Note_on_c, 0, 66, 101
3, 244560, Note_on_c, 0, 66, 0
3, 244560, Note_on_c, 0, 62, 0
3, 244560, Note_on_c, 0, 59, 0
3, 244560, Note_on_c, 0, 62, 101
3, 244560, Note_on_c, 0, 66, 101
3, 244560, Note_on_c, 0, 71, 101
3, 244800, Note_on_c, 0, 71, 0
3, 244800, Note_on_c, 0, 66, 0
3, 244800, Note_on_c, 0, 62, 0
3, 244800, Note_on_c, 0, 74, 101
3, 244920, Note_on_c, 0, 74, 0
3, 244920, Note_on_c, 0, 76, 101
3, 245040, Note_on_c, 0, 76, 0
3, 245040, Note_on_c, 0, 74, 101
3, 245160, Note_on_c, 0, 74, 0
3, 245160, Note_on_c, 0, 76, 101
3, 245280, Note_on_c, 0, 76, 0
3, 245280, Note_on_c, 0, 78, 101
3, 245400, Note_on_c, 0, 78, 0
3, 245400, Note_on_c, 0, 76, 101
3, 245520, Note_on_c, 0, 76, 0
3, 245520, Note_on_c, 0, 74, 101
3, 245640, Note_on_c, 0, 74, 0
3, 245640, Note_on_c, 0, 73, 101
3, 245760, Note_on_c, 0, 73, 0
3, 245760, Note_on_c, 0, 71, 101
3, 245880, Note_on_c, 0, 71, 0
3, 245880, Note_on_c, 0, 73, 101
3, 246000, Note_on_c, 0, 73, 0
3, 246000, Note_on_c, 0, 71, 101
3, 246120, Note_on_c, 0, 71, 0
3, 246120, Note_on_c, 0, 73, 101
3, 246240, Note_on_c, 0, 73, 0
3, 246240, Note_on_c, 0, 74, 101
3, 246360, Note_on_c, 0, 74, 0
3, 246360, Note_on_c, 0, 73, 101
3, 246480, Note_on_c, 0, 73, 0
3, 246480, Note_on_c, 0, 71, 101
3, 246600, Note_on_c, 0, 71, 0
3, 246600, Note_on_c, 0, 69, 101
3, 246720, Note_on_c, 0, 69, 0
3, 246720, Note_on_c, 0, 68, 101
3, 246840, Note_on_c, 0, 68, 0
3, 246840, Note_on_c, 0, 69, 101
3, 246960, Note_on_c, 0, 69, 0
3, 246960, Note_on_c, 0, 68, 101
3, 247080, Note_on_c, 0, 68, 0
3, 247080, Note_on_c, 0, 69, 101
3, 247200, Note_on_c, 0, 69, 0
3, 247200, Note_on_c, 0, 71, 101
3, 247320, Note_on_c, 0, 71, 0
3, 247320, Note_on_c, 0, 69, 101
3, 247440, Note_on_c, 0, 69, 0
3, 247440, Note_on_c, 0, 68, 101
3, 247560, Note_on_c, 0, 68, 0
3, 247560, Note_on_c, 0, 66, 101
3, 247680, Note_on_c, 0, 66, 0
3, 247680, Note_on_c, 0, 68, 101
3, 247800, Note_on_c, 0, 68, 0
3, 247800, Note_on_c, 0, 69, 101
3, 247920, Note_on_c, 0, 69, 0
3, 247920, Note_on_c, 0, 68, 101
3, 248040, Note_on_c, 0, 68, 0
3, 248040, Note_on_c, 0, 69, 101
3, 248160, Note_on_c, 0, 69, 0
3, 248160, Note_on_c, 0, 71, 127
3, 248220, Note_on_c, 0, 71, 0
3, 248220, Note_on_c, 0, 70, 101
3, 248280, Note_on_c, 0, 70, 0
3, 248280, Note_on_c, 0, 70, 101
3, 248640, Note_on_c, 0, 70, 0
3, 248640, Note_on_c, 0, 72, 101
3, 248760, Note_on_c, 0, 72, 0
3, 248760, Note_on_c, 0, 74, 101
3, 248880, Note_on_c, 0, 74, 0
3, 248880, Note_on_c, 0, 72, 101
3, 249000, Note_on_c, 0, 72, 0
3, 249000, Note_on_c, 0, 74, 101
3, 249120, Note_on_c, 0, 74, 0
3, 249120, Note_on_c, 0, 76, 101
3, 249240, Note_on_c, 0, 76, 0
3, 249240, Note_on_c, 0, 74, 101
3, 249360, Note_on_c, 0, 74, 0
3, 249360, Note_on_c, 0, 72, 101
3, 249480, Note_on_c, 0, 72, 0
3, 249480, Note_on_c, 0, 71, 101
3, 249600, Note_on_c, 0, 71, 0
3, 249600, Note_on_c, 0, 69, 101
3, 249720, Note_on_c, 0, 69, 0
3, 249720, Note_on_c, 0, 71, 101
3, 249840, Note_on_c, 0, 71, 0
3, 249840, Note_on_c, 0, 69, 101
3, 249960, Note_on_c, 0, 69, 0
3, 249960, Note_on_c, 0, 71, 101
3, 250080, Note_on_c, 0, 71, 0
3, 250080, Note_on_c, 0, 72, 101
3, 250200, Note_on_c, 0, 72, 0
3, 250200, Note_on_c, 0, 71, 101
3, 250320, Note_on_c, 0, 71, 0
3, 250320, Note_on_c, 0, 69, 101
3, 250440, Note_on_c, 0, 69, 0
3, 250440, Note_on_c, 0, 67, 101
3, 250560, Note_on_c, 0, 67, 0
3, 250560, Note_on_c, 0, 66, 101
3, 250680, Note_on_c, 0, 66, 0
3, 250680, Note_on_c, 0, 67, 101
3, 250800, Note_on_c, 0, 67, 0
3, 250800, Note_on_c, 0, 66, 101
3, 250920, Note_on_c, 0, 66, 0
3, 250920, Note_on_c, 0, 67, 101
3, 251040, Note_on_c, 0, 67, 0
3, 251040, Note_on_c, 0, 69, 101
3, 251160, Note_on_c, 0, 69, 0
3, 251160, Note_on_c, 0, 67, 101
3, 251280, Note_on_c, 0, 67, 0
3, 251280, Note_on_c, 0, 66, 101
3, 251400, Note_on_c, 0, 66, 0
3, 251400, Note_on_c, 0, 64, 101
3, 251520, Note_on_c, 0, 64, 0
3, 251520, Note_on_c, 0, 66, 101
3, 251640, Note_on_c, 0, 66, 0
3, 251640, Note_on_c, 0, 67, 101
3, 251760, Note_on_c, 0, 67, 0
3, 251760, Note_on_c, 0, 66, 101
3, 251880, Note_on_c, 0, 66, 0
3, 251880, Note_on_c, 0, 67, 101
3, 252000, Note_on_c, 0, 67, 0
3, 252000, Note_on_c, 0, 69, 127
3, 252060, Note_on_c, 0, 69, 0
3, 252060, Note_on_c, 0, 68, 101
3, 252120, Note_on_c, 0, 68, 0
3, 252120, Note_on_c, 0, 67, 101
3, 252480, Note_on_c, 0, 67, 0
3, 252480, Note_on_c, 0, 52, 101
3, 252480, Note_on_c, 0, 55, 101
3, 252960, Note_on_c, 0, 55, 0
3, 252960, Note_on_c, 0, 52, 0
3, 252960, Note_on_c, 0, 55, 101
3, 252960, Note_on_c, 0, 60, 101
3, 253440, Note_on_c, 0, 60, 0
3, 253440, Note_on_c, 0, 55, 0
3, 253440, Note_on_c, 0, 59, 101
3, 253440, Note_on_c, 0, 64, 101
3, 253920, Note_on_c, 0, 64, 0
3, 253920, Note_on_c, 0, 59, 0
3, 253920, Note_on_c, 0, 64, 101
3, 253920, Note_on_c, 0, 67, 101
3, 254400, Note_on_c, 0, 67, 0
3, 254400, Note_on_c, 0, 64, 0
3, 254400, Note_on_c, 0, 52, 101
3, 254400, Note_on_c, 0, 55, 101
3, 254880, Note_on_c, 0, 55, 0
3, 254880, Note_on_c, 0, 52, 0
3, 254880, Note_on_c, 0, 55, 101
3, 254880, Note_on_c, 0, 60, 101
3, 255360, Note_on_c, 0, 60, 0
3, 255360, Note_on_c, 0, 55, 0
3, 255360, Note_on_c, 0, 59, 101
3, 255360, Note_on_c, 0, 64, 101
3, 255840, Note_on_c, 0, 64, 0
3, 255840, Note_on_c, 0, 59, 0
3, 255840, Note_on_c, 0, 64, 101
3, 255840, Note_on_c, 0, 67, 101
3, 256320, Note_on_c, 0, 67, 0
3, 256320, Note_on_c, 0, 64, 0
3, 256320, Note_on_c, 0, 64, 88
3, 256320, Note_on_c, 0, 67, 88
3, 256800, Note_on_c, 0, 67, 0
3, 256800, Note_on_c, 0, 64, 0
3, 256800, Note_on_c, 0, 72, 88
3, 257280, Note_on_c, 0, 72, 0
3, 257280, Note_on_c, 0, 71, 88
3, 257280, Note_on_c, 0, 76, 88
3, 257760, Note_on_c, 0, 76, 0
3, 257760, Note_on_c, 0, 71, 0
3, 257760, Note_on_c, 0, 76, 88
3, 257760, Note_on_c, 0, 79, 88
3, 258240, Note_on_c, 0, 79, 0
3, 258240, Note_on_c, 0, 76, 0
3, 258240, Note_on_c, 0, 64, 75
3, 258240, Note_on_c, 0, 67, 75
3, 258720, Note_on_c, 0, 67, 0
3, 258720, Note_on_c, 0, 64, 0
3, 258720, Note_on_c, 0, 72, 75
3, 259200, Note_on_c, 0, 72, 0
3, 259200, Note_on_c, 0, 71, 75
3, 259200, Note_on_c, 0, 76, 75
3, 259680, Note_on_c, 0, 76, 0
3, 259680, Note_on_c, 0, 71, 0
3, 259680, Note_on_c, 0, 76, 75
3, 259680, Note_on_c, 0, 79, 75
3, 260160, Note_on_c, 0, 79, 0
3, 260160, Note_on_c, 0, 76, 0
3, 262080, Note_on_c, 0, 79, 49
3, 264480, Note_on_c, 0, 79, 0
3, 276240, Note_on_c, 0, 79, 101
3, 276320, Note_on_c, 0, 79, 0
3, 276320, Note_on_c, 0, 81, 101
3, 276399, Note_on_c, 0, 81, 0
3, 276399, Note_on_c, 0, 83, 101
3, 276480, Note_on_c, 0, 83, 0
3, 276480, Note_on_c, 0, 84, 127
3, 276720, Note_on_c, 0, 84, 0
3, 282000, Note_on_c, 0, 79, 101
3, 282080, Note_on_c, 0, 79, 0
3, 282080, Note_on_c, 0, 81, 101
3, 282159, Note_on_c, 0, 81, 0
3, 282159, Note_on_c, 0, 83, 101
3, 282240, Note_on_c, 0, 83, 0
3, 282240, Note_on_c, 0, 84, 127
3, 282480, Note_on_c, 0, 84, 0
3, 282480, Note_on_c, 0, 84, 101
3, 282560, Note_on_c, 0, 84, 0
3, 282560, Note_on_c, 0, 86, 101
3, 282639, Note_on_c, 0, 86, 0
3, 282639, Note_on_c, 0, 88, 101
3, 282720, Note_on_c, 0, 88, 0
3, 282720, Note_on_c, 0, 89, 127
3, 282960, Note_on_c, 0, 89, 0
3, 282960, Note_on_c, 0, 65, 127
3, 282960, Note_on_c, 0, 68, 127
3, 282960, Note_on_c, 0, 72, 127
3, 283440, Note_on_c, 0, 72, 0
3, 283440, Note_on_c, 0, 68, 0
3, 283440, Note_on_c, 0, 65, 0
3, 283440, Note_on_c, 0, 65, 101
3, 283440, Note_on_c, 0, 70, 101
3, 283680, Note_on_c, 0, 70, 0
3, 283680, Note_on_c, 0, 65, 0
3, 283680, Note_on_c, 0, 65, 101
3, 283680, Note_on_c, 0, 68, 101
3, 283920, Note_on_c, 0, 68, 0
3, 283920, Note_on_c, 0, 65, 0
3, 283920, Note_on_c, 0, 56, 101
3, 283920, Note_on_c, 0, 67, 101
3, 284160, Note_on_c, 0, 67, 0
3, 284160, Note_on_c, 0, 56, 0
3, 285600, Note_on_c, 0, 61, 101
3, 285600, Note_on_c, 0, 65, 101
3, 285600, Note_on_c, 0, 68, 101
3, 285600, Note_on_c, 0, 71, 101
3, 286080, Note_on_c, 0, 71, 0
3, 286080, Note_on_c, 0, 61, 0
3, 286080, Note_on_c, 0, 65, 0
3, 286080, Note_on_c, 0, 68, 0
3, 286080, Note_on_c, 0, 65, 101
3, 286080, Note_on_c, 0, 68, 101
3, 286080, Note_on_c, 0, 72, 101
3, 286920, Note_on_c, 0, 72, 0
3, 286920, Note_on_c, 0, 68, 0
3, 286920, Note_on_c, 0, 65, 0
3, 286920, Note_on_c, 0, 61, 101
3, 286920, Note_on_c, 0, 65, 101
3, 286920, Note_on_c, 0, 68, 101
3, 286920, Note_on_c, 0, 71, 101
3, 287040, Note_on_c, 0, 71, 0
3, 287040, Note_on_c, 0, 61, 0
3, 287040, Note_on_c, 0, 65, 0
3, 287040, Note_on_c, 0, 68, 0
3, 287040, Note_on_c, 0, 61, 101
3, 287040, Note_on_c, 0, 65, 101
3, 287040, Note_on_c, 0, 68, 101
3, 287040, Note_on_c, 0, 71, 101
3, 287520, Note_on_c, 0, 71, 0
3, 287520, Note_on_c, 0, 61, 0
3, 287520, Note_on_c, 0, 65, 0
3, 287520, Note_on_c, 0, 68, 0
3, 287520, Note_on_c, 0, 65, 101
3, 287520, Note_on_c, 0, 68, 101
3, 287520, Note_on_c, 0, 72, 101
3, 287760, Note_on_c, 0, 72, 0
3, 287760, Note_on_c, 0, 68, 0
3, 287760, Note_on_c, 0, 65, 0
3, 287760, Note_on_c, 0, 84, 101
3, 287840, Note_on_c, 0, 84, 0
3, 287840, Note_on_c, 0, 86, 101
3, 287919, Note_on_c, 0, 86, 0
3, 287919, Note_on_c, 0, 88, 101
3, 288000, Note_on_c, 0, 88, 0
3, 288000, Note_on_c, 0, 89, 127
3, 288240, Note_on_c, 0, 89, 0
3, 288240, Note_on_c, 0, 84, 101
3, 288320, Note_on_c, 0, 84, 0
3, 288320, Note_on_c, 0, 86, 101
3, 288399, Note_on_c, 0, 86, 0
3, 288399, Note_on_c, 0, 88, 101
3, 288480, Note_on_c, 0, 88, 0
3, 288480, Note_on_c, 0, 89, 127
3, 288720, Note_on_c, 0, 89, 0
3, 288720, Note_on_c, 0, 65, 127
3, 288720, Note_on_c, 0, 68, 127
3, 288720, Note_on_c, 0, 72, 127
3, 289200, Note_on_c, 0, 72, 0
3, 289200, Note_on_c, 0, 68, 0
3, 289200, Note_on_c, 0, 65, 0
3, 289200, Note_on_c, 0, 65, 101
3, 289200, Note_on_c, 0, 70, 101
3, 289440, Note_on_c, 0, 70, 0
3, 289440, Note_on_c, 0, 65, 0
3, 289440, Note_on_c, 0, 65, 101
3, 289440, Note_on_c, 0, 68, 101
3, 289680, Note_on_c, 0, 68, 0
3, 289680, Note_on_c, 0, 65, 0
3, 289680, Note_on_c, 0, 56, 101
3, 289680, Note_on_c, 0, 67, 101
3, 289920, Note_on_c, 0, 67, 0
3, 289920, Note_on_c, 0, 56, 0
3, 291360, Note_on_c, 0, 61, 101
3, 291360, Note_on_c, 0, 65, 101
3, 291360, Note_on_c, 0, 68, 101
3, 291360, Note_on_c, 0, 71, 101
3, 291840, Note_on_c, 0, 71, 0
3, 291840, Note_on_c, 0, 61, 0
3, 291840, Note_on_c, 0, 65, 0
3, 291840, Note_on_c, 0, 68, 0
3, 291840, Note_on_c, 0, 65, 101
3, 291840, Note_on_c, 0, 68, 101
3, 291840, Note_on_c, 0, 72, 101
3, 292680, Note_on_c, 0, 72, 0
3, 292680, Note_on_c, 0, 68, 0
3, 292680, Note_on_c, 0, 65, 0
3, 292680, Note_on_c, 0, 61, 101
3, 292680, Note_on_c, 0, 65, 101
3, 292680, Note_on_c, 0, 68, 101
3, 292680, Note_on_c, 0, 71, 101
3, 292800, Note_on_c, 0, 71, 0
3, 292800, Note_on_c, 0, 61, 0
3, 292800, Note_on_c, 0, 65, 0
3, 292800, Note_on_c, 0, 68, 0
3, 292800, Note_on_c, 0, 61, 101
3, 292800, Note_on_c, 0, 65, 101
3, 292800, Note_on_c, 0, 68, 101
3, 292800, Note_on_c, 0, 71, 101
3, 293280, Note_on_c, 0, 71, 0
3, 293280, Note_on_c, 0, 61, 0
3, 293280, Note_on_c, 0, 65, 0
3, 293280, Note_on_c, 0, 68, 0
3, 293280, Note_on_c, 0, 65, 101
3, 293280, Note_on_c, 0, 68, 101
3, 293280, Note_on_c, 0, 72, 101
3, 293520, Note_on_c, 0, 72, 0
3, 293520, Note_on_c, 0, 68, 0
3, 293520, Note_on_c, 0, 65, 0
3, 293520, Note_on_c, 0, 84, 101
3, 293600, Note_on_c, 0, 84, 0
3, 293600, Note_on_c, 0, 86, 101
3, 293679, Note_on_c, 0, 86, 0
3, 293679, Note_on_c, 0, 88, 101
3, 293760, Note_on_c, 0, 88, 0
3, 293760, Note_on_c, 0, 89, 127
3, 294000, Note_on_c, 0, 89, 0
3, 294000, Note_on_c, 0, 84, 101
3, 294080, Note_on_c, 0, 84, 0
3, 294080, Note_on_c, 0, 86, 101
3, 294159, Note_on_c, 0, 86, 0
3, 294159, Note_on_c, 0, 88, 101
3, 294240, Note_on_c, 0, 88, 0
3, 294240, Note_on_c, 0, 89, 127
3, 294480, Note_on_c, 0, 89, 0
3, 294480, Note_on_c, 0, 65, 127
3, 294480, Note_on_c, 0, 68, 127
3, 294480, Note_on_c, 0, 72, 127
3, 294960, Note_on_c, 0, 72, 0
3, 294960, Note_on_c, 0, 68, 0
3, 294960, Note_on_c, 0, 65, 0
3, 294960, Note_on_c, 0, 65, 101
3, 294960, Note_on_c, 0, 70, 101
3, 295200, Note_on_c, 0, 70, 0
3, 295200, Note_on_c, 0, 65, 0
3, 295200, Note_on_c, 0, 65, 101
3, 295200, Note_on_c, 0, 68, 101
3, 295440, Note_on_c, 0, 68, 0
3, 295440, Note_on_c, 0, 65, 0
3, 295440, Note_on_c, 0, 56, 101
3, 295440, Note_on_c, 0, 67, 101
3, 295680, Note_on_c, 0, 67, 0
3, 295680, Note_on_c, 0, 56, 0
3, 297120, Note_on_c, 0, 84, 101
3, 297200, Note_on_c, 0, 84, 0
3, 297200, Note_on_c, 0, 86, 101
3, 297279, Note_on_c, 0, 86, 0
3, 297279, Note_on_c, 0, 88, 101
3, 297360, Note_on_c, 0, 88, 0
3, 297360, Note_on_c, 0, 65, 127
3, 297360, Note_on_c, 0, 68, 127
3, 297360, Note_on_c, 0, 72, 127
3, 297360, Note_on_c, 0, 89, 127
3, 297840, Note_on_c, 0, 89, 0
3, 297840, Note_on_c, 0, 65, 0
3, 297840, Note_on_c, 0, 68, 0
3, 297840, Note_on_c, 0, 72, 0
3, 297840, Note_on_c, 0, 65, 101
3, 297840, Note_on_c, 0, 70, 101
3, 298080, Note_on_c, 0, 70, 0
3, 298080, Note_on_c, 0, 65, 0
3, 298080, Note_on_c, 0, 65, 101
3, 298080, Note_on_c, 0, 68, 101
3, 298320, Note_on_c, 0, 68, 0
3, 298320, Note_on_c, 0, 65, 0
3, 298320, Note_on_c, 0, 56, 101
3, 298320, Note_on_c, 0, 67, 101
3, 298560, Note_on_c, 0, 67, 0
3, 298560, Note_on_c, 0, 56, 0
3, 300000, Note_on_c, 0, 84, 101
3, 300080, Note_on_c, 0, 84, 0
3, 300080, Note_on_c, 0, 86, 101
3, 300159, Note_on_c, 0, 86, 0
3, 300159, Note_on_c, 0, 88, 101
3, 300240, Note_on_c, 0, 88, 0
3, 300240, Note_on_c, 0, 65, 127
3, 300240, Note_on_c, 0, 68, 127
3, 300240, Note_on_c, 0, 72, 127
3, 300240, Note_on_c, 0, 89, 127
3, 300720, Note_on_c, 0, 89, 0
3, 300720, Note_on_c, 0, 65, 0
3, 300720, Note_on_c, 0, 68, 0
3, 300720, Note_on_c, 0, 72, 0
3, 300720, Note_on_c, 0, 65, 101
3, 300720, Note_on_c, 0, 68, 101
3, 300960, Note_on_c, 0, 68, 0
3, 300960, Note_on_c, 0, 65, 0
3, 301440, Note_on_c, 0, 84, 101
3, 301520, Note_on_c, 0, 84, 0
3, 301520, Note_on_c, 0, 86, 101
3, 301599, Note_on_c, 0, 86, 0
3, 301599, Note_on_c, 0, 88, 101
3, 301680, Note_on_c, 0, 88, 0
3, 301680, Note_on_c, 0, 65, 127
3, 301680, Note_on_c, 0, 68, 127
3, 301680, Note_on_c, 0, 72, 127
3, 301680, Note_on_c, 0, 89, 127
3, 302160, Note_on_c, 0, 89, 0
3, 302160, Note_on_c, 0, 65, 0
3, 302160, Note_on_c, 0, 68, 0
3, 302160, Note_on_c, 0, 72, 0
3, 302160, Note_on_c, 0, 65, 101
3, 302160, Note_on_c, 0, 68, 101
3, 302400, Note_on_c, 0, 68, 0
3, 302400, Note_on_c, 0, 65, 0
3, 302880, Note_on_c, 0, 84, 101
3, 302960, Note_on_c, 0, 84, 0
3, 302960, Note_on_c, 0, 86, 101
3, 303039, Note_on_c, 0, 86, 0
3, 303039, Note_on_c, 0, 88, 101
3, 303120, Note_on_c, 0, 88, 0
3, 303120, Note_on_c, 0, 80, 101
3, 303120, Note_on_c, 0, 84, 101
3, 303120, Note_on_c, 0, 89, 101
3, 303360, Note_on_c, 0, 89, 0
3, 303360, Note_on_c, 0, 84, 0
3, 303360, Note_on_c, 0, 80, 0
3, 303840, Note_on_c, 0, 84, 101
3, 303920, Note_on_c, 0, 84, 0
3, 303920, Note_on_c, 0, 86, 101
3, 303999, Note_on_c, 0, 86, 0
3, 303999, Note_on_c, 0, 88, 101
3, 304080, Note_on_c, 0, 88, 0
3, 304080, Note_on_c, 0, 80, 101
3, 304080, Note_on_c, 0, 84, 101
3, 304080, Note_on_c, 0, 89, 101
3, 304320, Note_on_c, 0, 89, 0
3, 304320, Note_on_c, 0, 84, 0
3, 304320, Note_on_c, 0, 80, 0
3, 304320, Note_on_c, 0, 65, 101
3, 304560, Note_on_c, 0, 65, 0
3, 304560, Note_on_c, 0, 68, 101
3, 304800, Note_on_c, 0, 68, 0
3, 304800, Note_on_c, 0, 84, 101
3, 304880, Note_on_c, 0, 84, 0
3, 304880, Note_on_c, 0, 86, 101
3, 304959, Note_on_c, 0, 86, 0
3, 304959, Note_on_c, 0, 88, 101
3, 305040, Note_on_c, 0, 88, 0
3, 305040, Note_on_c, 0, 80, 101
3, 305040, Note_on_c, 0, 84, 101
3, 305040, Note_on_c, 0, 89, 101
3, 305280, Note_on_c, 0, 89, 0
3, 305280, Note_on_c, 0, 84, 0
3, 305280, Note_on_c, 0, 80, 0
3, 305280, Note_on_c, 0, 65, 101
3, 305520, Note_on_c, 0, 65, 0
3, 305520, Note_on_c, 0, 68, 101
3, 305760, Note_on_c, 0, 68, 0
3, 315120, Note_on_c, 0, 66, 101
3, 315120, Note_on_c, 0, 68, 101
3, 315120, Note_on_c, 0, 71, 101
3, 315167, Note_on_c, 0, 71, 0
3, 315167, Note_on_c, 0, 68, 0
3, 315167, Note_on_c, 0, 66, 0
3, 315360, Note_on_c, 0, 65, 101
3, 315360, Note_on_c, 0, 68, 101
3, 315407, Note_on_c, 0, 68, 0
3, 315407, Note_on_c, 0, 65, 0
3, 315600, Note_on_c, 0, 66, 101
3, 315600, Note_on_c, 0, 68, 101
3, 315600, Note_on_c, 0, 71, 101
3, 315647, Note_on_c, 0, 71, 0
3, 315647, Note_on_c, 0, 68, 0
3, 315647, Note_on_c, 0, 66, 0
3, 315840, Note_on_c, 0, 65, 101
3, 315840, Note_on_c, 0, 68, 101
3, 315887, Note_on_c, 0, 68, 0
3, 315887, Note_on_c, 0, 65, 0
3, 316080, Note_on_c, 0, 66, 101
3, 316080, Note_on_c, 0, 68, 101
3, 316080, Note_on_c, 0, 71, 101
3, 316127, Note_on_c, 0, 71, 0
3, 316127, Note_on_c, 0, 68, 0
3, 316127, Note_on_c, 0, 66, 0
3, 316320, Note_on_c, 0, 65, 101
3, 316320, Note_on_c, 0, 68, 101
3, 316367, Note_on_c, 0, 68, 0
3, 316367, Note_on_c, 0, 65, 0
3, 316560, Note_on_c, 0, 66, 101
3, 316560, Note_on_c, 0, 68, 101
3, 316560, Note_on_c, 0, 71, 101
3, 316607, Note_on_c, 0, 71, 0
3, 316607, Note_on_c, 0, 68, 0
3, 316607, Note_on_c, 0, 66, 0
3, 316800, Note_on_c, 0, 65, 101
3, 316800, Note_on_c, 0, 68, 101
3, 316847, Note_on_c, 0, 68, 0
3, 316847, Note_on_c, 0, 65, 0
3, 318960, Note_on_c, 0, 66, 101
3, 318960, Note_on_c, 0, 68, 101
3, 318960, Note_on_c, 0, 71, 101
3, 319007, Note_on_c, 0, 71, 0
3, 319007, Note_on_c, 0, 68, 0
3, 319007, Note_on_c, 0, 66, 0
3, 319200, Note_on_c, 0, 65, 101
3, 319200, Note_on_c, 0, 68, 101
3, 319247, Note_on_c, 0, 68, 0
3, 319247, Note_on_c, 0, 65, 0
3, 319440, Note_on_c, 0, 66, 101
3, 319440, Note_on_c, 0, 68, 101
3, 319440, Note_on_c, 0, 71, 101
3, 319487, Note_on_c, 0, 71, 0
3, 319487, Note_on_c, 0, 68, 0
3, 319487, Note_on_c, 0, 66, 0
3, 319680, Note_on_c, 0, 65, 101
3, 319680, Note_on_c, 0, 68, 101
3, 319727, Note_on_c, 0, 68, 0
3, 319727, Note_on_c, 0, 65, 0
3, 319920, Note_on_c, 0, 66, 101
3, 319920, Note_on_c, 0, 68, 101
3, 319920, Note_on_c, 0, 71, 101
3, 319967, Note_on_c, 0, 71, 0
3, 319967, Note_on_c, 0, 68, 0
3, 319967, Note_on_c, 0, 66, 0
3, 320160, Note_on_c, 0, 65, 101
3, 320160, Note_on_c, 0, 68, 101
3, 320207, Note_on_c, 0, 68, 0
3, 320207, Note_on_c, 0, 65, 0
3, 320400, Note_on_c, 0, 66, 101
3, 320400, Note_on_c, 0, 68, 101
3, 320400, Note_on_c, 0, 71, 101
3, 320447, Note_on_c, 0, 71, 0
3, 320447, Note_on_c, 0, 68, 0
3, 320447, Note_on_c, 0, 66, 0
3, 320640, Note_on_c, 0, 65, 101
3, 320640, Note_on_c, 0, 68, 101
3, 320687, Note_on_c, 0, 68, 0
3, 320687, Note_on_c, 0, 65, 0
3, 337680, Note_on_c, 0, 63, 49
3, 339360, Note_on_c, 0, 63, 0
3, 339360, Note_on_c, 0, 66, 49
3, 339600, Note_on_c, 0, 66, 0
3, 339600, Note_on_c, 0, 67, 49
3, 339840, Note_on_c, 0, 67, 0
3, 339840, Note_on_c, 0, 64, 49
3, 339840, Note_on_c, 0, 68, 49
3, 340560, Note_on_c, 0, 68, 0
3, 340560, Note_on_c, 0, 64, 0
3, 340560, Note_on_c, 0, 64, 49
3, 340560, Note_on_c, 0, 67, 49
3, 340560, Note_on_c, 0, 70, 49
3, 341280, Note_on_c, 0, 70, 0
3, 341280, Note_on_c, 0, 67, 0
3, 341280, Note_on_c, 0, 64, 0
3, 341280, Note_on_c, 0, 63, 49
3, 341280, Note_on_c, 0, 66, 49
3, 342000, Note_on_c, 0, 66, 0
3, 342000, Note_on_c, 0, 63, 0
3, 342000, Control_c, 0, 64, 127
3, 342039, Note_on_c, 0, 66, 75
3, 342080, Note_on_c, 0, 66, 0
3, 342080, Note_on_c, 0, 68, 75
3, 342120, Note_on_c, 0, 68, 0
3, 342120, Note_on_c, 0, 69, 75
3, 342159, Note_on_c, 0, 69, 0
3, 342159, Note_on_c, 0, 71, 75
3, 342200, Note_on_c, 0, 71, 0
3, 342200, Note_on_c, 0, 73, 75
3, 342240, Note_on_c, 0, 73, 0
3, 342240, Note_on_c, 0, 75, 75
3, 342279, Note_on_c, 0, 75, 0
3, 342279, Note_on_c, 0, 76, 75
3, 342320, Note_on_c, 0, 76, 0
3, 342320, Note_on_c, 0, 78, 75
3, 342360, Note_on_c, 0, 78, 0
3, 342360, Note_on_c, 0, 80, 75
3, 342399, Note_on_c, 0, 80, 0
3, 342399, Note_on_c, 0, 81, 75
3, 342440, Note_on_c, 0, 81, 0
3, 342440, Note_on_c, 0, 83, 75
3, 342480, Note_on_c, 0, 83, 0
3, 342480, Note_on_c, 0, 85, 75
3, 342519, Note_on_c, 0, 85, 0
3, 342519, Note_on_c, 0, 87, 75
3, 342560, Note_on_c, 0, 87, 0
3, 342560, Note_on_c, 0, 88, 75
3, 342600, Note_on_c, 0, 88, 0
3, 342600, Note_on_c, 0, 90, 75
3, 342639, Note_on_c, 0, 90, 0
3, 342639, Note_on_c, 0, 92, 75
3, 342680, Note_on_c, 0, 92, 0
3, 342680, Control_c, 0, 64, 0
3, 342680, Note_on_c, 0, 93, 75
3, 342720, Note_on_c, 0, 93, 0
3, 343440, Note_on_c, 0, 63, 49
3, 345120, Note_on_c, 0, 63, 0
3, 345120, Note_on_c, 0, 66, 49
3, 345360, Note_on_c, 0, 66, 0
3, 345360, Note_on_c, 0, 67, 49
3, 345600, Note_on_c, 0, 67, 0
3, 345600, Note_on_c, 0, 64, 49
3, 345600, Note_on_c, 0, 68, 49
3, 346320, Note_on_c, 0, 68, 0
3, 346320, Note_on_c, 0, 64, 0
3, 346320, Note_on_c, 0, 64, 49
3, 346320, Note_on_c, 0, 68, 49
3, 346320, Note_on_c, 0, 73, 49
3, 347040, Note_on_c, 0, 73, 0
3, 347040, Note_on_c, 0, 68, 0
3, 347040, Note_on_c, 0, 64, 0
3, 347040, Note_on_c, 0, 63, 49
3, 347040, Note_on_c, 0, 67, 49
3, 347760, Note_on_c, 0, 67, 0
3, 347760, Note_on_c, 0, 63, 0
3, 347760, Control_c, 0, 64, 127
3, 347760, Note_on_c, 0, 68, 49
3, 347805, Note_on_c, 0, 68, 0
3, 347805, Note_on_c, 0, 70, 49
3, 347850, Note_on_c, 0, 70, 0
3, 347850, Note_on_c, 0, 71, 49
3, 347895, Note_on_c, 0, 71, 0
3, 347895, Note_on_c, 0, 73, 49
3, 347940, Note_on_c, 0, 73, 0
3, 347940, Note_on_c, 0, 75, 49
3, 347985, Note_on_c, 0, 75, 0
3, 347985, Note_on_c, 0, 77, 49
3, 348030, Note_on_c, 0, 77, 0
3, 348030, Note_on_c, 0, 79, 62
3, 348075, Note_on_c, 0, 79, 0
3, 348075, Note_on_c, 0, 80, 62
3, 348120, Note_on_c, 0, 80, 0
3, 348120, Note_on_c, 0, 82, 62
3, 348165, Note_on_c, 0, 82, 0
3, 348165, Note_on_c, 0, 83, 62
3, 348210, Note_on_c, 0, 83, 0
3, 348210, Note_on_c, 0, 85, 62
3, 348255, Note_on_c, 0, 85, 0
3, 348255, Note_on_c, 0, 87, 75
3, 348300, Note_on_c, 0, 87, 0
3, 348300, Note_on_c, 0, 89, 75
3, 348345, Note_on_c, 0, 89, 0
3, 348345, Note_on_c, 0, 91, 75
3, 348390, Note_on_c, 0, 91, 0
3, 348390, Note_on_c, 0, 92, 75
3, 348435, Note_on_c, 0, 92, 0
3, 348435, Control_c, 0, 64, 0
3, 348435, Note_on_c, 0, 94, 75
3, 348480, Note_on_c, 0, 94, 0
3, 352080, Note_on_c, 0, 71, 62
3, 352560, Note_on_c, 0, 71, 0
3, 352560, Note_on_c, 0, 63, 62
3, 352800, Note_on_c, 0, 63, 0
3, 359280, Control_c, 0, 64, 127
3, 359280, Note_on_c, 0, 73, 75
3, 359335, Note_on_c, 0, 73, 0
3, 359335, Note_on_c, 0, 75, 75
3, 359390, Note_on_c, 0, 75, 0
3, 359390, Note_on_c, 0, 76, 75
3, 359445, Note_on_c, 0, 76, 0
3, 359445, Note_on_c, 0, 78, 75
3, 359501, Note_on_c, 0, 78, 0
3, 359501, Note_on_c, 0, 80, 75
3, 359557, Note_on_c, 0, 80, 0
3, 359557, Note_on_c, 0, 81, 75
3, 359612, Note_on_c, 0, 81, 0
3, 359612, Note_on_c, 0, 83, 75
3, 359667, Note_on_c, 0, 83, 0
3, 359667, Note_on_c, 0, 85, 75
3, 359722, Note_on_c, 0, 85, 0
3, 359722, Note_on_c, 0, 87, 75
3, 359778, Note_on_c, 0, 87, 0
3, 359778, Note_on_c, 0, 88, 75
3, 359834, Note_on_c, 0, 88, 0
3, 359834, Note_on_c, 0, 90, 75
3, 359889, Note_on_c, 0, 90, 0
3, 359889, Note_on_c, 0, 92, 75
3, 359944, Note_on_c, 0, 92, 0
3, 359944, Control_c, 0, 64, 0
3, 359944, Note_on_c, 0, 93, 75
3, 360000, Note_on_c, 0, 93, 0
3, 362160, Note_on_c, 0, 79, 49
3, 362400, Note_on_c, 0, 79, 0
3, 362400, Note_on_c, 0, 80, 62
3, 362640, Note_on_c, 0, 80, 0
3, 362640, Note_on_c, 0, 81, 62
3, 362880, Note_on_c, 0, 81, 0
3, 371520, Note_on_c, 0, 52, 62
3, 372000, Note_on_c, 0, 52, 0
3, 372000, Note_on_c, 0, 52, 62
3, 372023, Note_on_c, 0, 52, 0
3, 372120, Note_on_c, 0, 52, 62
3, 372143, Note_on_c, 0, 52, 0
3, 372960, Note_on_c, 0, 64, 75
3, 373440, Note_on_c, 0, 64, 0
3, 373440, Note_on_c, 0, 64, 75
3, 373463, Note_on_c, 0, 64, 0
3, 373560, Note_on_c, 0, 64, 75
3, 373583, Note_on_c, 0, 64, 0
3, 374400, Note_on_c, 0, 56, 75
3, 374880, Note_on_c, 0, 56, 0
3, 374880, Note_on_c, 0, 56, 75
3, 374903, Note_on_c, 0, 56, 0
3, 375000, Note_on_c, 0, 56, 75
3, 375000, Note_on_c, 0, 59, 75
3, 375023, Note_on_c, 0, 59, 0
3, 375023, Note_on_c, 0, 56, 0
3, 375840, Note_on_c, 0, 68, 75
3, 376320, Note_on_c, 0, 68, 0
3, 376320, Note_on_c, 0, 68, 75
3, 376343, Note_on_c, 0, 68, 0
3, 376440, Note_on_c, 0, 68, 75
3, 376440, Note_on_c, 0, 71, 75
3, 376463, Note_on_c, 0, 71, 0
3, 376463, Note_on_c, 0, 68, 0
3, 378000, Note_on_c, 0, 69, 75
3, 378000, Note_on_c, 0, 72, 75
3, 378000, Note_on_c, 0, 75, 75
3, 378023, Note_on_c, 0, 75, 0
3, 378023, Note_on_c, 0, 72, 0
3, 378023, Note_on_c, 0, 69, 0
3, 378120, Note_on_c, 0, 67, 75
3, 378143, Note_on_c, 0, 67, 0
3, 378180, Note_on_c, 0, 65, 75
3, 378240, Note_on_c, 0, 65, 0
3, 378240, Note_on_c, 0, 72, 75
3, 378240, Note_on_c, 0, 75, 75
3, 378480, Note_on_c, 0, 75, 0
3, 378480, Note_on_c, 0, 72, 0
3, 379440, Note_on_c, 0, 71, 88
3, 379440, Note_on_c, 0, 74, 88
3, 379440, Note_on_c, 0, 77, 88
3, 379463, Note_on_c, 0, 77, 0
3, 379463, Note_on_c, 0, 74, 0
3, 379463, Note_on_c, 0, 71, 0
3, 379560, Note_on_c, 0, 69, 88
3, 379583, Note_on_c, 0, 69, 0
3, 379620, Note_on_c, 0, 67, 88
3, 379680, Note_on_c, 0, 67, 0
3, 379680, Note_on_c, 0, 74, 88
3, 379680, Note_on_c, 0, 77, 88
3, 379920, Note_on_c, 0, 77, 0
3, 379920, Note_on_c, 0, 74, 0
3, 380160, Note_on_c, 0, 59, 88
3, 380160, Note_on_c, 0, 63, 88
3, 380640, Note_on_c, 0, 63, 0
3, 380640, Note_on_c, 0, 59, 0
3, 380640, Note_on_c, 0, 71, 88
3, 380640, Note_on_c, 0, 76, 88
3, 381120, Note_on_c, 0, 76, 0
3, 381120, Note_on_c, 0, 71, 0
3, 381120, Note_on_c, 0, 60, 88
3, 381120, Note_on_c, 0, 64, 88
3, 381600, Note_on_c, 0, 64, 0
3, 381600, Note_on_c, 0, 60, 0
3, 381600, Note_on_c, 0, 72, 88
3, 381600, Note_on_c, 0, 76, 88
3, 382080, Note_on_c, 0, 76, 0
3, 382080, Note_on_c, 0, 72, 0
3, 382080, Note_on_c, 0, 61, 88
3, 382080, Note_on_c, 0, 66, 88
3, 382560, Note_on_c, 0, 66, 0
3, 382560, Note_on_c, 0, 61, 0
3, 382560, Note_on_c, 0, 62, 88
3, 382560, Note_on_c, 0, 66, 88
3, 383040, Note_on_c, 0, 66, 0
3, 383040, Note_on_c, 0, 62, 0
3, 383040, Note_on_c, 0, 64, 88
3, 383040, Note_on_c, 0, 67, 88
3, 383520, Note_on_c, 0, 67, 0
3, 383520, Note_on_c, 0, 64, 0
3, 383520, Note_on_c, 0, 67, 88
3, 383520, Note_on_c, 0, 72, 88
3, 384000, Note_on_c, 0, 72, 0
3, 384000, Note_on_c, 0, 67, 0
3, 387360, Control_c, 0, 64, 127
3, 387360, Note_on_c, 0, 59, 88
3, 387360, Note_on_c, 0, 64, 88
3, 387360, Note_on_c, 0, 68, 88
3, 387360, Note_on_c, 0, 71, 88
3, 387420, Note_on_c, 0, 71, 0
3, 387420, Note_on_c, 0, 59, 0
3, 387420, Note_on_c, 0, 64, 0
3, 387420, Note_on_c, 0, 68, 0
3, 387420, Note_on_c, 0, 59, 88
3, 387420, Note_on_c, 0, 64, 88
3, 387420, Note_on_c, 0, 68, 88
3, 387420, Note_on_c, 0, 71, 88
3, 387480, Note_on_c, 0, 71, 0
3, 387480, Note_on_c, 0, 59, 0
3, 387480, Note_on_c, 0, 64, 0
3, 387480, Note_on_c, 0, 68, 0
3, 387480, Note_on_c, 0, 59, 88
3, 387480, Note_on_c, 0, 64, 88
3, 387480, Note_on_c, 0, 68, 88
3, 387480, Note_on_c, 0, 71, 88
3, 387600, Note_on_c, 0, 71, 0
3, 387600, Note_on_c, 0, 59, 0
3, 387600, Note_on_c, 0, 64, 0
3, 387600, Note_on_c, 0, 68, 0
3, 387600, Note_on_c, 0, 59, 88
3, 387600, Note_on_c, 0, 64, 88
3, 387600, Note_on_c, 0, 68, 88
3, 387600, Note_on_c, 0, 71, 88
3, 387660, Note_on_c, 0, 71, 0
3, 387660, Note_on_c, 0, 59, 0
3, 387660, Note_on_c, 0, 64, 0
3, 387660, Note_on_c, 0, 68, 0
3, 387660, Note_on_c, 0, 59, 88
3, 387660, Note_on_c, 0, 64, 88
3, 387660, Note_on_c, 0, 68, 88
3, 387660, Note_on_c, 0, 71, 88
3, 387720, Note_on_c, 0, 71, 0
3, 387720, Note_on_c, 0, 59, 0
3, 387720, Note_on_c, 0, 64, 0
3, 387720, Note_on_c, 0, 68, 0
3, 387720, Note_on_c, 0, 59, 88
3, 387720, Note_on_c, 0, 64, 88
3, 387720, Note_on_c, 0, 68, 88
3, 387720, Note_on_c, 0, 71, 88
3, 387840, Note_on_c, 0, 71, 0
3, 387840, Note_on_c, 0, 59, 0
3, 387840, Note_on_c, 0, 64, 0
3, 387840, Note_on_c, 0, 68, 0
3, 387840, Note_on_c, 0, 59, 88
3, 387840, Note_on_c, 0, 64, 88
3, 387840, Note_on_c, 0, 68, 88
3, 387840, Note_on_c, 0, 71, 88
3, 387900, Note_on_c, 0, 71, 0
3, 387900, Note_on_c, 0, 59, 0
3, 387900, Note_on_c, 0, 64, 0
3, 387900, Note_on_c, 0, 68, 0
3, 387900, Note_on_c, 0, 59, 88
3, 387900, Note_on_c, 0, 64, 88
3, 387900, Note_on_c, 0, 68, 88
3, 387900, Note_on_c, 0, 71, 88
3, 387960, Note_on_c, 0, 71, 0
3, 387960, Note_on_c, 0, 59, 0
3, 387960, Note_on_c, 0, 64, 0
3, 387960, Note_on_c, 0, 68, 0
3, 387960, Control_c, 0, 64, 0
3, 387960, Note_on_c, 0, 59, 88
3, 387960, Note_on_c, 0, 64, 88
3, 387960, Note_on_c, 0, 68, 88
3, 387960, Note_on_c, 0, 71, 88
3, 388080, Note_on_c, 0, 71, 0
3, 388080, Note_on_c, 0, 59, 0
3, 388080, Note_on_c, 0, 64, 0
3, 388080, Note_on_c, 0, 68, 0
3, 388080, Note_on_c, 0, 58, 101
3, 388080, Note_on_c, 0, 60, 101
3, 388080, Note_on_c, 0, 64, 101
3, 388080, Note_on_c, 0, 67, 101
3, 388080, Note_on_c, 0, 70, 101
3, 388320, Note_on_c, 0, 70, 0
3, 388320, Note_on_c, 0, 64, 0
3, 388320, Note_on_c, 0, 58, 0
3, 388320, Note_on_c, 0, 60, 0
3, 388320, Note_on_c, 0, 67, 0
3, 390000, Control_c, 0, 64, 127
3, 390000, Note_on_c, 0, 67, 49
3, 390047, Note_on_c, 0, 67, 0
3, 390047, Note_on_c, 0, 70, 49
3, 390096, Note_on_c, 0, 70, 0
3, 390096, Note_on_c, 0, 72, 49
3, 390143, Note_on_c, 0, 72, 0
3, 390143, Note_on_c, 0, 76, 49
3, 390192, Note_on_c, 0, 76, 0
3, 390192, Note_on_c, 0, 79, 49
3, 390240, Note_on_c, 0, 79, 0
3, 390240, Note_on_c, 0, 64, 49
3, 390287, Note_on_c, 0, 64, 0
3, 390287, Note_on_c, 0, 67, 49
3, 390336, Note_on_c, 0, 67, 0
3, 390336, Note_on_c, 0, 70, 49
3, 390383, Note_on_c, 0, 70, 0
3, 390383, Note_on_c, 0, 72, 49
3, 390432, Note_on_c, 0, 72, 0
3, 390432, Note_on_c, 0, 76, 49
3, 390480, Note_on_c, 0, 76, 0
3, 390480, Note_on_c, 0, 60, 49
3, 390527, Note_on_c, 0, 60, 0
3, 390527, Note_on_c, 0, 64, 49
3, 390576, Note_on_c, 0, 64, 0
3, 390576, Note_on_c, 0, 67, 49
3, 390623, Note_on_c, 0, 67, 0
3, 390623, Note_on_c, 0, 70, 49
3, 390672, Note_on_c, 0, 70, 0
3, 390672, Note_on_c, 0, 72, 49
3, 390720, Note_on_c, 0, 72, 0
3, 390720, Note_on_c, 0, 64, 49
3, 390767, Note_on_c, 0, 64, 0
3, 390767, Note_on_c, 0, 67, 49
3, 390816, Note_on_c, 0, 67, 0
3, 390816, Note_on_c, 0, 70, 49
3, 390863, Note_on_c, 0, 70, 0
3, 390863, Note_on_c, 0, 72, 49
3, 390912, Note_on_c, 0, 72, 0
3, 390912, Note_on_c, 0, 76, 49
3, 390960, Note_on_c, 0, 76, 0
3, 390960, Note_on_c, 0, 60, 49
3, 391007, Note_on_c, 0, 60, 0
3, 391007, Note_on_c, 0, 64, 49
3, 391056, Note_on_c, 0, 64, 0
3, 391056, Note_on_c, 0, 67, 49
3, 391103, Note_on_c, 0, 67, 0
3, 391103, Note_on_c, 0, 70, 49
3, 391152, Note_on_c, 0, 70, 0
3, 391152, Control_c, 0, 64, 0
3, 391152, Note_on_c, 0, 72, 49
3, 391200, Note_on_c, 0, 72, 0
3, 393360, Note_on_c, 0, 75, 75
3, 395040, Note_on_c, 0, 75, 0
3, 395040, Note_on_c, 0, 78, 75
3, 395280, Note_on_c, 0, 78, 0
3, 395280, Note_on_c, 0, 79, 75
3, 395520, Note_on_c, 0, 79, 0
3, 395520, Note_on_c, 0, 76, 75
3, 395520, Note_on_c, 0, 80, 75
3, 396240, Note_on_c, 0, 80, 0
3, 396240, Note_on_c, 0, 76, 0
3, 396240, Note_on_c, 0, 79, 75
3, 396240, Note_on_c, 0, 82, 75
3, 396960, Note_on_c, 0, 82, 0
3, 396960, Note_on_c, 0, 79, 0
3, 396960, Note_on_c, 0, 75, 75
3, 397920, Note_on_c, 0, 75, 0
3, 399120, Note_on_c, 0, 75, 75
3, 400800, Note_on_c, 0, 75, 0
3, 400800, Note_on_c, 0, 78, 75
3, 401040, Note_on_c, 0, 78, 0
3, 401040, Note_on_c, 0, 79, 75
3, 401280, Note_on_c, 0, 79, 0
3, 401280, Note_on_c, 0, 76, 75
3, 401280, Note_on_c, 0, 80, 75
3, 402000, Note_on_c, 0, 80, 0
3, 402000, Note_on_c, 0, 76, 0
3, 402000, Note_on_c, 0, 76, 75
3, 402000, Note_on_c, 0, 80, 75
3, 402720, Note_on_c, 0, 80, 0
3, 402720, Note_on_c, 0, 76, 0
3, 402720, Note_on_c, 0, 73, 75
3, 402720, Note_on_c, 0, 79, 75
3, 403440, Note_on_c, 0, 79, 0
3, 403440, Note_on_c, 0, 73, 0
3, 403440, End_track
4, 0, Start_track
4, 0, Title_t, "Grand Piano"
4, 0, Program_c, 0, 0
4, 0, Control_c, 0, 7, 115
4, 0, Control_c, 0, 10, 41
4, 0, Note_on_c, 0, 52, 62
4, 720, Note_on_c, 0, 52, 0
4, 720, Note_on_c, 0, 55, 62
4, 960, Note_on_c, 0, 55, 0
4, 960, Note_on_c, 0, 57, 62
4, 1200, Note_on_c, 0, 57, 0
4, 1200, Note_on_c, 0, 54, 62
4, 1440, Note_on_c, 0, 54, 0
4, 1440, Note_on_c, 0, 57, 75
4, 1680, Note_on_c, 0, 57, 0
4, 1680, Note_on_c, 0, 59, 75
4, 1920, Note_on_c, 0, 59, 0
4, 2400, Note_on_c, 0, 33, 75
4, 2400, Note_on_c, 0, 45, 75
4, 2880, Note_on_c, 0, 45, 0
4, 2880, Note_on_c, 0, 33, 0
4, 2880, Note_on_c, 0, 35, 75
4, 2880, Note_on_c, 0, 47, 75
4, 3360, Note_on_c, 0, 47, 0
4, 3360, Note_on_c, 0, 35, 0
4, 3360, Note_on_c, 0, 40, 75
4, 3360, Note_on_c, 0, 52, 75
4, 3840, Note_on_c, 0, 52, 0
4, 3840, Note_on_c, 0, 40, 0
4, 3840, Note_on_c, 0, 45, 75
4, 3840, Note_on_c, 0, 57, 75
4, 4320, Note_on_c, 0, 57, 0
4, 4320, Note_on_c, 0, 45, 0
4, 4320, Note_on_c, 0, 38, 75
4, 4320, Note_on_c, 0, 50, 75
4, 4800, Note_on_c, 0, 50, 0
4, 4800, Note_on_c, 0, 38, 0
4, 4800, Note_on_c, 0, 43, 75
4, 4800, Note_on_c, 0, 55, 75
4, 5280, Note_on_c, 0, 55, 0
4, 5280, Note_on_c, 0, 43, 0
4, 5280, Note_on_c, 0, 40, 75
4, 5280, Note_on_c, 0, 52, 75
4, 5760, Note_on_c, 0, 52, 0
4, 5760, Note_on_c, 0, 40, 0
4, 6240, Note_on_c, 0, 46, 62
4, 6240, Note_on_c, 0, 52, 62
4, 6240, Note_on_c, 0, 55, 62
4, 6720, Note_on_c, 0, 55, 0
4, 6720, Note_on_c, 0, 52, 0
4, 6720, Note_on_c, 0, 46, 0
4, 7200, Note_on_c, 0, 45, 62
4, 7200, Note_on_c, 0, 52, 62
4, 7200, Note_on_c, 0, 55, 62
4, 7680, Note_on_c, 0, 55, 0
4, 7680, Note_on_c, 0, 52, 0
4, 7680, Note_on_c, 0, 45, 0
4, 8160, Note_on_c, 0, 50, 49
4, 8160, Note_on_c, 0, 54, 49
4, 8160, Note_on_c, 0, 57, 49
4, 8160, Note_on_c, 0, 62, 49
4, 8640, Note_on_c, 0, 62, 0
4, 8640, Note_on_c, 0, 50, 0
4, 8640, Note_on_c, 0, 54, 0
4, 8640, Note_on_c, 0, 57, 0
4, 10080, Note_on_c, 0, 57, 62
4, 10080, Note_on_c, 0, 61, 62
4, 10080, Note_on_c, 0, 67, 62
4, 10560, Note_on_c, 0, 67, 0
4, 10560, Note_on_c, 0, 61, 0
4, 10560, Note_on_c, 0, 57, 0
4, 10560, Note_on_c, 0, 59, 62
4, 10560, Note_on_c, 0, 62, 62
4, 10560, Note_on_c, 0, 66, 62
4, 11040, Note_on_c, 0, 66, 0
4, 11040, Note_on_c, 0, 62, 0
4, 11040, Note_on_c, 0, 59, 0
4, 11040, Note_on_c, 0, 61, 49
4, 11040, Note_on_c, 0, 65, 49
4, 11520, Note_on_c, 0, 65, 0
4, 11520, Note_on_c, 0, 61, 0
4, 11520, Note_on_c, 0, 54, 49
4, 11520, Note_on_c, 0, 61, 49
4, 12000, Note_on_c, 0, 61, 0
4, 12000, Note_on_c, 0, 54, 0
4, 12000, Note_on_c, 0, 58, 49
4, 12360, Note_on_c, 0, 58, 0
4, 12360, Note_on_c, 0, 59, 49
4, 12480, Note_on_c, 0, 59, 0
4, 12480, Note_on_c, 0, 54, 49
4, 12480, Note_on_c, 0, 61, 49
4, 12960, Note_on_c, 0, 61, 0
4, 12960, Note_on_c, 0, 54, 0
4, 12960, Note_on_c, 0, 58, 49
4, 13320, Note_on_c, 0, 58, 0
4, 13320, Note_on_c, 0, 59, 49
4, 13440, Note_on_c, 0, 59, 0
4, 13920, Note_on_c, 0, 46, 75
4, 13920, Note_on_c, 0, 53, 75
4, 13920, Note_on_c, 0, 62, 75
4, 14640, Note_on_c, 0, 62, 0
4, 14640, Note_on_c, 0, 53, 0
4, 14640, Note_on_c, 0, 46, 0
4, 14640, Note_on_c, 0, 46, 49
4, 14640, Note_on_c, 0, 53, 49
4, 14640, Note_on_c, 0, 62, 49
4, 14880, Note_on_c, 0, 62, 0
4, 14880, Note_on_c, 0, 53, 0
4, 14880, Note_on_c, 0, 46, 0
4, 14880, Note_on_c, 0, 46, 49
4, 14880, Note_on_c, 0, 53, 49
4, 14880, Note_on_c, 0, 62, 49
4, 15120, Note_on_c, 0, 62, 0
4, 15120, Note_on_c, 0, 53, 0
4, 15120, Note_on_c, 0, 46, 0
4, 15120, Note_on_c, 0, 46, 49
4, 15120, Note_on_c, 0, 53, 49
4, 15120, Note_on_c, 0, 62, 49
4, 15360, Note_on_c, 0, 62, 0
4, 15360, Note_on_c, 0, 53, 0
4, 15360, Note_on_c, 0, 46, 0
4, 15360, Note_on_c, 0, 46, 49
4, 15360, Note_on_c, 0, 53, 49
4, 15360, Note_on_c, 0, 62, 49
4, 15720, Note_on_c, 0, 62, 0
4, 15720, Note_on_c, 0, 53, 0
4, 15720, Note_on_c, 0, 46, 0
4, 15720, Note_on_c, 0, 46, 49
4, 15720, Note_on_c, 0, 53, 49
4, 15720, Note_on_c, 0, 62, 49
4, 15840, Note_on_c, 0, 62, 0
4, 15840, Note_on_c, 0, 53, 0
4, 15840, Note_on_c, 0, 46, 0
4, 15840, Note_on_c, 0, 46, 49
4, 15840, Note_on_c, 0, 53, 49
4, 15840, Note_on_c, 0, 62, 49
4, 16080, Note_on_c, 0, 62, 0
4, 16080, Note_on_c, 0, 53, 0
4, 16080, Note_on_c, 0, 46, 0
4, 16560, Note_on_c, 0, 46, 49
4, 16560, Note_on_c, 0, 50, 49
4, 16560, Note_on_c, 0, 56, 49
4, 17040, Note_on_c, 0, 56, 0
4, 17040, Note_on_c, 0, 50, 0
4, 17040, Note_on_c, 0, 46, 0
4, 17040, Note_on_c, 0, 46, 49
4, 17040, Note_on_c, 0, 50, 49
4, 17040, Note_on_c, 0, 56, 49
4, 17280, Note_on_c, 0, 56, 0
4, 17280, Note_on_c, 0, 50, 0
4, 17280, Note_on_c, 0, 46, 0
4, 17760, Note_on_c, 0, 47, 75
4, 17760, Note_on_c, 0, 54, 75
4, 17760, Note_on_c, 0, 63, 75
4, 18480, Note_on_c, 0, 63, 0
4, 18480, Note_on_c, 0, 54, 0
4, 18480, Note_on_c, 0, 47, 0
4, 18480, Note_on_c, 0, 47, 49
4, 18480, Note_on_c, 0, 54, 49
4, 18480, Note_on_c, 0, 63, 49
4, 18720, Note_on_c, 0, 63, 0
4, 18720, Note_on_c, 0, 54, 0
4, 18720, Note_on_c, 0, 47, 0
4, 18720, Note_on_c, 0, 47, 49
4, 18720, Note_on_c, 0, 54, 49
4, 18720, Note_on_c, 0, 63, 49
4, 18960, Note_on_c, 0, 63, 0
4, 18960, Note_on_c, 0, 54, 0
4, 18960, Note_on_c, 0, 47, 0
4, 18960, Note_on_c, 0, 47, 49
4, 18960, Note_on_c, 0, 54, 49
4, 18960, Note_on_c, 0, 63, 49
4, 19200, Note_on_c, 0, 63, 0
4, 19200, Note_on_c, 0, 54, 0
4, 19200, Note_on_c, 0, 47, 0
4, 19200, Note_on_c, 0, 47, 49
4, 19200, Note_on_c, 0, 54, 49
4, 19200, Note_on_c, 0, 63, 49
4, 19560, Note_on_c, 0, 63, 0
4, 19560, Note_on_c, 0, 54, 0
4, 19560, Note_on_c, 0, 47, 0
4, 19560, Note_on_c, 0, 47, 49
4, 19560, Note_on_c, 0, 54, 49
4, 19560, Note_on_c, 0, 63, 49
4, 19680, Note_on_c, 0, 63, 0
4, 19680, Note_on_c, 0, 54, 0
4, 19680, Note_on_c, 0, 47, 0
4, 19680, Note_on_c, 0, 47, 49
4, 19680, Note_on_c, 0, 54, 49
4, 19680, Note_on_c, 0, 63, 49
4, 19920, Note_on_c, 0, 63, 0
4, 19920, Note_on_c, 0, 54, 0
4, 19920, Note_on_c, 0, 47, 0
4, 20400, Note_on_c, 0, 51, 49
4, 20400, Note_on_c, 0, 57, 49
4, 20880, Note_on_c, 0, 57, 0
4, 20880, Note_on_c, 0, 51, 0
4, 20880, Note_on_c, 0, 51, 49
4, 20880, Note_on_c, 0, 57, 49
4, 21120, Note_on_c, 0, 57, 0
4, 21120, Note_on_c, 0, 51, 0
4, 21360, Note_on_c, 0, 48, 75
4, 21360, Note_on_c, 0, 55, 75
4, 21600, Note_on_c, 0, 55, 0
4, 21600, Note_on_c, 0, 48, 0
4, 21600, Note_on_c, 0, 48, 49
4, 21600, Note_on_c, 0, 55, 49
4, 21960, Note_on_c, 0, 55, 0
4, 21960, Note_on_c, 0, 48, 0
4, 21960, Note_on_c, 0, 48, 49
4, 21960, Note_on_c, 0, 55, 49
4, 22080, Note_on_c, 0, 55, 0
4, 22080, Note_on_c, 0, 48, 0
4, 22080, Note_on_c, 0, 48, 49
4, 22080, Note_on_c, 0, 55, 49
4, 22320, Note_on_c, 0, 55, 0
4, 22320, Note_on_c, 0, 48, 0
4, 22320, Note_on_c, 0, 48, 49
4, 22320, Note_on_c, 0, 55, 49
4, 22560, Note_on_c, 0, 55, 0
4, 22560, Note_on_c, 0, 48, 0
4, 22560, Note_on_c, 0, 52, 49
4, 22560, Note_on_c, 0, 59, 49
4, 22719, Note_on_c, 0, 59, 0
4, 22719, Note_on_c, 0, 52, 0
4, 22719, Note_on_c, 0, 52, 49
4, 22719, Note_on_c, 0, 59, 49
4, 22880, Note_on_c, 0, 59, 0
4, 22880, Note_on_c, 0, 52, 0
4, 22880, Note_on_c, 0, 52, 49
4, 22880, Note_on_c, 0, 59, 49
4, 23040, Note_on_c, 0, 59, 0
4, 23040, Note_on_c, 0, 52, 0
4, 23040, Note_on_c, 0, 53, 49
4, 23040, Note_on_c, 0, 59, 49
4, 24480, Note_on_c, 0, 59, 0
4, 24480, Note_on_c, 0, 53, 0
4, 24480, Note_on_c, 0, 53, 49
4, 24480, Note_on_c, 0, 59, 49
4, 24639, Note_on_c, 0, 59, 0
4, 24639, Note_on_c, 0, 53, 0
4, 24639, Note_on_c, 0, 53, 49
4, 24639, Note_on_c, 0, 59, 49
4, 24800, Note_on_c, 0, 59, 0
4, 24800, Note_on_c, 0, 53, 0
4, 24800, Note_on_c, 0, 53, 49
4, 24800, Note_on_c, 0, 59, 49
4, 24960, Note_on_c, 0, 59, 0
4, 24960, Note_on_c, 0, 53, 0
4, 24960, Note_on_c, 0, 54, 49
4, 24960, Note_on_c, 0, 60, 49
4, 25440, Note_on_c, 0, 60, 0
4, 25440, Note_on_c, 0, 54, 0
4, 25440, Note_on_c, 0, 54, 49
4, 25440, Note_on_c, 0, 60, 49
4, 25599, Note_on_c, 0, 60, 0
4, 25599, Note_on_c, 0, 54, 0
4, 25599, Note_on_c, 0, 54, 49
4, 25599, Note_on_c, 0, 60, 49
4, 25760, Note_on_c, 0, 60, 0
4, 25760, Note_on_c, 0, 54, 0
4, 25760, Note_on_c, 0, 54, 49
4, 25760, Note_on_c, 0, 60, 49
4, 25920, Note_on_c, 0, 60, 0
4, 25920, Note_on_c, 0, 54, 0
4, 25920, Note_on_c, 0, 55, 49
4, 25920, Note_on_c, 0, 61, 49
4, 26400, Note_on_c, 0, 61, 0
4, 26400, Note_on_c, 0, 55, 0
4, 26400, Note_on_c, 0, 55, 49
4, 26400, Note_on_c, 0, 61, 49
4, 26559, Note_on_c, 0, 61, 0
4, 26559, Note_on_c, 0, 55, 0
4, 26559, Note_on_c, 0, 55, 49
4, 26559, Note_on_c, 0, 61, 49
4, 26720, Note_on_c, 0, 61, 0
4, 26720, Note_on_c, 0, 55, 0
4, 26720, Note_on_c, 0, 55, 49
4, 26720, Note_on_c, 0, 61, 49
4, 26880, Note_on_c, 0, 61, 0
4, 26880, Note_on_c, 0, 55, 0
4, 26880, Note_on_c, 0, 56, 62
4, 26880, Note_on_c, 0, 62, 62
4, 27039, Note_on_c, 0, 62, 0
4, 27039, Note_on_c, 0, 56, 0
4, 27039, Note_on_c, 0, 56, 62
4, 27039, Note_on_c, 0, 62, 62
4, 27200, Note_on_c, 0, 62, 0
4, 27200, Note_on_c, 0, 56, 0
4, 27200, Note_on_c, 0, 56, 62
4, 27200, Note_on_c, 0, 62, 62
4, 27360, Note_on_c, 0, 62, 0
4, 27360, Note_on_c, 0, 56, 0
4, 27360, Note_on_c, 0, 57, 62
4, 27360, Note_on_c, 0, 63, 62
4, 27519, Note_on_c, 0, 63, 0
4, 27519, Note_on_c, 0, 57, 0
4, 27519, Note_on_c, 0, 57, 62
4, 27519, Note_on_c, 0, 63, 62
4, 27680, Note_on_c, 0, 63, 0
4, 27680, Note_on_c, 0, 57, 0
4, 27680, Note_on_c, 0, 57, 62
4, 27680, Note_on_c, 0, 63, 62
4, 27840, Note_on_c, 0, 63, 0
4, 27840, Note_on_c, 0, 57, 0
4, 27840, Note_on_c, 0, 58, 62
4, 27840, Note_on_c, 0, 64, 62
4, 27999, Note_on_c, 0, 64, 0
4, 27999, Note_on_c, 0, 58, 0
4, 27999, Note_on_c, 0, 58, 62
4, 27999, Note_on_c, 0, 64, 62
4, 28160, Note_on_c, 0, 64, 0
4, 28160, Note_on_c, 0, 58, 0
4, 28160, Note_on_c, 0, 58, 62
4, 28160, Note_on_c, 0, 64, 62
4, 28320, Note_on_c, 0, 64, 0
4, 28320, Note_on_c, 0, 58, 0
4, 28320, Note_on_c, 0, 59, 62
4, 28320, Note_on_c, 0, 65, 62
4, 28479, Note_on_c, 0, 65, 0
4, 28479, Note_on_c, 0, 59, 0
4, 28479, Note_on_c, 0, 59, 62
4, 28479, Note_on_c, 0, 65, 62
4, 28640, Note_on_c, 0, 65, 0
4, 28640, Note_on_c, 0, 59, 0
4, 28640, Note_on_c, 0, 59, 62
4, 28640, Note_on_c, 0, 65, 62
4, 28800, Note_on_c, 0, 65, 0
4, 28800, Note_on_c, 0, 59, 0
4, 28800, Note_on_c, 0, 56, 75
4, 28800, Note_on_c, 0, 63, 75
4, 29040, Note_on_c, 0, 63, 0
4, 29040, Note_on_c, 0, 56, 0
4, 29040, Note_on_c, 0, 51, 75
4, 29040, Note_on_c, 0, 56, 75
4, 29040, Note_on_c, 0, 60, 75
4, 29520, Note_on_c, 0, 60, 0
4, 29520, Note_on_c, 0, 56, 0
4, 29520, Note_on_c, 0, 51, 0
4, 29520, Note_on_c, 0, 51, 75
4, 29520, Note_on_c, 0, 56, 75
4, 29520, Note_on_c, 0, 60, 75
4, 30000, Note_on_c, 0, 60, 0
4, 30000, Note_on_c, 0, 56, 0
4, 30000, Note_on_c, 0, 51, 0
4, 30000, Note_on_c, 0, 51, 75
4, 30000, Note_on_c, 0, 54, 75
4, 30000, Note_on_c, 0, 57, 75
4, 30000, Note_on_c, 0, 60, 75
4, 30480, Note_on_c, 0, 60, 0
4, 30480, Note_on_c, 0, 51, 0
4, 30480, Note_on_c, 0, 54, 0
4, 30480, Note_on_c, 0, 57, 0
4, 30480, Note_on_c, 0, 51, 75
4, 30480, Note_on_c, 0, 54, 75
4, 30480, Note_on_c, 0, 57, 75
4, 30480, Note_on_c, 0, 60, 75
4, 30720, Note_on_c, 0, 60, 0
4, 30720, Note_on_c, 0, 51, 0
4, 30720, Note_on_c, 0, 54, 0
4, 30720, Note_on_c, 0, 57, 0
4, 30720, Note_on_c, 0, 46, 88
4, 30720, Note_on_c, 0, 51, 88
4, 30720, Note_on_c, 0, 60, 88
4, 30960, Note_on_c, 0, 60, 0
4, 30960, Note_on_c, 0, 51, 0
4, 30960, Note_on_c, 0, 46, 0
4, 30960, Note_on_c, 0, 46, 88
4, 30960, Note_on_c, 0, 53, 88
4, 30960, Note_on_c, 0, 62, 88
4, 31200, Note_on_c, 0, 62, 0
4, 31200, Note_on_c, 0, 53, 0
4, 31200, Note_on_c, 0, 46, 0
4, 31440, Note_on_c, 0, 46, 62
4, 31440, Note_on_c, 0, 53, 62
4, 31680, Note_on_c, 0, 53, 0
4, 31680, Note_on_c, 0, 46, 0
4, 31680, Note_on_c, 0, 44, 62
4, 31680, Note_on_c, 0, 53, 62
4, 31920, Note_on_c, 0, 53, 0
4, 31920, Note_on_c, 0, 44, 0
4, 31920, Note_on_c, 0, 44, 62
4, 31920, Note_on_c, 0, 53, 62
4, 32160, Note_on_c, 0, 53, 0
4, 32160, Note_on_c, 0, 44, 0
4, 32400, Note_on_c, 0, 56, 62
4, 32400, Note_on_c, 0, 58, 62
4, 32640, Note_on_c, 0, 58, 0
4, 32640, Note_on_c, 0, 56, 0
4, 32640, Note_on_c, 0, 55, 62
4, 32640, Note_on_c, 0, 59, 62
4, 32880, Note_on_c, 0, 59, 0
4, 32880, Note_on_c, 0, 55, 0
4, 32880, Note_on_c, 0, 55, 62
4, 32880, Note_on_c, 0, 59, 62
4, 33120, Note_on_c, 0, 59, 0
4, 33120, Note_on_c, 0, 55, 0
4, 33360, Note_on_c, 0, 55, 62
4, 33360, Note_on_c, 0, 59, 62
4, 33360, Note_on_c, 0, 62, 62
4, 33600, Note_on_c, 0, 62, 0
4, 33600, Note_on_c, 0, 59, 0
4, 33600, Note_on_c, 0, 55, 0
4, 33600, Note_on_c, 0, 53, 62
4, 33600, Note_on_c, 0, 59, 62
4, 33600, Note_on_c, 0, 62, 62
4, 33840, Note_on_c, 0, 62, 0
4, 33840, Note_on_c, 0, 59, 0
4, 33840, Note_on_c, 0, 53, 0
4, 33840, Note_on_c, 0, 53, 62
4, 33840, Note_on_c, 0, 55, 62
4, 33840, Note_on_c, 0, 62, 62
4, 34080, Note_on_c, 0, 62, 0
4, 34080, Note_on_c, 0, 55, 0
4, 34080, Note_on_c, 0, 53, 0
4, 34320, Note_on_c, 0, 53, 62
4, 34320, Note_on_c, 0, 55, 62
4, 34320, Note_on_c, 0, 62, 62
4, 34560, Note_on_c, 0, 62, 0
4, 34560, Note_on_c, 0, 55, 0
4, 34560, Note_on_c, 0, 53, 0
4, 34560, Note_on_c, 0, 51, 62
4, 34560, Note_on_c, 0, 55, 62
4, 34560, Note_on_c, 0, 63, 62
4, 34800, Note_on_c, 0, 63, 0
4, 34800, Note_on_c, 0, 55, 0
4, 34800, Note_on_c, 0, 51, 0
4, 34800, Note_on_c, 0, 48, 62
4, 34800, Note_on_c, 0, 55, 62
4, 34800, Note_on_c, 0, 60, 62
4, 35040, Note_on_c, 0, 60, 0
4, 35040, Note_on_c, 0, 55, 0
4, 35040, Note_on_c, 0, 48, 0
4, 35280, Note_on_c, 0, 48, 62
4, 35280, Note_on_c, 0, 55, 62
4, 35520, Note_on_c, 0, 55, 0
4, 35520, Note_on_c, 0, 48, 0
4, 35520, Note_on_c, 0, 46, 62
4, 35520, Note_on_c, 0, 55, 62
4, 35760, Note_on_c, 0, 55, 0
4, 35760, Note_on_c, 0, 46, 0
4, 35760, Note_on_c, 0, 46, 62
4, 35760, Note_on_c, 0, 55, 62
4, 36000, Note_on_c, 0, 55, 0
4, 36000, Note_on_c, 0, 46, 0
4, 36240, Note_on_c, 0, 58, 62
4, 36240, Note_on_c, 0, 60, 62
4, 36480, Note_on_c, 0, 60, 0
4, 36480, Note_on_c, 0, 58, 0
4, 36480, Note_on_c, 0, 57, 62
4, 36480, Note_on_c, 0, 61, 62
4, 36720, Note_on_c, 0, 61, 0
4, 36720, Note_on_c, 0, 57, 0
4, 36720, Note_on_c, 0, 57, 62
4, 36720, Note_on_c, 0, 61, 62
4, 36960, Note_on_c, 0, 61, 0
4, 36960, Note_on_c, 0, 57, 0
4, 37200, Note_on_c, 0, 57, 62
4, 37200, Note_on_c, 0, 61, 62
4, 37200, Note_on_c, 0, 64, 62
4, 37440, Note_on_c, 0, 64, 0
4, 37440, Note_on_c, 0, 61, 0
4, 37440, Note_on_c, 0, 57, 0
4, 37440, Note_on_c, 0, 55, 62
4, 37440, Note_on_c, 0, 61, 62
4, 37440, Note_on_c, 0, 64, 62
4, 37680, Note_on_c, 0, 64, 0
4, 37680, Note_on_c, 0, 61, 0
4, 37680, Note_on_c, 0, 55, 0
4, 37680, Note_on_c, 0, 55, 62
4, 37680, Note_on_c, 0, 57, 62
4, 37680, Note_on_c, 0, 64, 62
4, 37920, Note_on_c, 0, 64, 0
4, 37920, Note_on_c, 0, 57, 0
4, 37920, Note_on_c, 0, 55, 0
4, 38160, Note_on_c, 0, 55, 62
4, 38160, Note_on_c, 0, 57, 62
4, 38160, Note_on_c, 0, 64, 62
4, 38400, Note_on_c, 0, 64, 0
4, 38400, Note_on_c, 0, 57, 0
4, 38400, Note_on_c, 0, 55, 0
4, 38400, Note_on_c, 0, 53, 62
4, 38400, Note_on_c, 0, 57, 62
4, 38400, Note_on_c, 0, 65, 62
4, 38640, Note_on_c, 0, 65, 0
4, 38640, Note_on_c, 0, 57, 0
4, 38640, Note_on_c, 0, 53, 0
4, 38640, Note_on_c, 0, 50, 62
4, 38640, Note_on_c, 0, 62, 62
4, 38880, Note_on_c, 0, 62, 0
4, 38880, Note_on_c, 0, 50, 0
4, 38880, Note_on_c, 0, 57, 75
4, 39000, Note_on_c, 0, 57, 0
4, 39000, Note_on_c, 0, 57, 75
4, 39120, Note_on_c, 0, 57, 0
4, 39120, Note_on_c, 0, 58, 75
4, 39240, Note_on_c, 0, 58, 0
4, 39240, Note_on_c, 0, 58, 75
4, 39360, Note_on_c, 0, 58, 0
4, 39360, Note_on_c, 0, 59, 75
4, 39480, Note_on_c, 0, 59, 0
4, 39480, Note_on_c, 0, 59, 75
4, 39600, Note_on_c, 0, 59, 0
4, 39600, Note_on_c, 0, 58, 75
4, 39720, Note_on_c, 0, 58, 0
4, 39720, Note_on_c, 0, 58, 75
4, 39840, Note_on_c, 0, 58, 0
4, 39840, Note_on_c, 0, 57, 75
4, 39960, Note_on_c, 0, 57, 0
4, 39960, Note_on_c, 0, 57, 75
4, 40080, Note_on_c, 0, 57, 0
4, 40080, Note_on_c, 0, 55, 75
4, 40200, Note_on_c, 0, 55, 0
4, 40200, Note_on_c, 0, 55, 75
4, 40320, Note_on_c, 0, 55, 0
4, 40320, Note_on_c, 0, 53, 75
4, 40440, Note_on_c, 0, 53, 0
4, 40440, Note_on_c, 0, 53, 75
4, 40560, Note_on_c, 0, 53, 0
4, 40560, Note_on_c, 0, 50, 75
4, 40680, Note_on_c, 0, 50, 0
4, 40680, Note_on_c, 0, 50, 75
4, 40800, Note_on_c, 0, 50, 0
4, 40800, Note_on_c, 0, 57, 75
4, 40920, Note_on_c, 0, 57, 0
4, 40920, Note_on_c, 0, 57, 75
4, 41040, Note_on_c, 0, 57, 0
4, 41040, Note_on_c, 0, 58, 75
4, 41160, Note_on_c, 0, 58, 0
4, 41160, Note_on_c, 0, 58, 75
4, 41280, Note_on_c, 0, 58, 0
4, 41280, Note_on_c, 0, 59, 75
4, 41400, Note_on_c, 0, 59, 0
4, 41400, Note_on_c, 0, 59, 75
4, 41520, Note_on_c, 0, 59, 0
4, 41520, Note_on_c, 0, 58, 75
4, 41640, Note_on_c, 0, 58, 0
4, 41640, Note_on_c, 0, 58, 75
4, 41760, Note_on_c, 0, 58, 0
4, 41760, Note_on_c, 0, 57, 75
4, 41880, Note_on_c, 0, 57, 0
4, 41880, Note_on_c, 0, 57, 75
4, 42000, Note_on_c, 0, 57, 0
4, 42000, Note_on_c, 0, 55, 75
4, 42120, Note_on_c, 0, 55, 0
4, 42120, Note_on_c, 0, 55, 75
4, 42240, Note_on_c, 0, 55, 0
4, 42240, Note_on_c, 0, 53, 75
4, 42360, Note_on_c, 0, 53, 0
4, 42360, Note_on_c, 0, 57, 75
4, 42480, Note_on_c, 0, 57, 0
4, 42480, Note_on_c, 0, 62, 75
4, 42600, Note_on_c, 0, 62, 0
4, 42600, Note_on_c, 0, 65, 75
4, 42720, Note_on_c, 0, 65, 0
4, 42960, Note_on_c, 0, 62, 75
4, 42960, Note_on_c, 0, 65, 75
4, 43200, Note_on_c, 0, 65, 0
4, 43200, Note_on_c, 0, 62, 0
4, 43200, Note_on_c, 0, 55, 75
4, 43200, Note_on_c, 0, 62, 75
4, 43440, Note_on_c, 0, 62, 0
4, 43440, Note_on_c, 0, 55, 0
4, 43440, Note_on_c, 0, 55, 75
4, 43440, Note_on_c, 0, 62, 75
4, 43680, Note_on_c, 0, 62, 0
4, 43680, Note_on_c, 0, 55, 0
4, 43680, Note_on_c, 0, 64, 75
4, 43920, Note_on_c, 0, 64, 0
4, 43920, Note_on_c, 0, 60, 75
4, 43920, Note_on_c, 0, 67, 75
4, 44160, Note_on_c, 0, 67, 0
4, 44160, Note_on_c, 0, 60, 0
4, 44160, Note_on_c, 0, 53, 75
4, 44160, Note_on_c, 0, 60, 75
4, 44400, Note_on_c, 0, 60, 0
4, 44400, Note_on_c, 0, 53, 0
4, 44400, Note_on_c, 0, 53, 75
4, 44400, Note_on_c, 0, 60, 75
4, 44640, Note_on_c, 0, 60, 0
4, 44640, Note_on_c, 0, 53, 0
4, 44880, Note_on_c, 0, 63, 75
4, 45120, Note_on_c, 0, 63, 0
4, 45120, Note_on_c, 0, 62, 75
4, 45360, Note_on_c, 0, 62, 0
4, 45360, Note_on_c, 0, 62, 75
4, 45360, Note_on_c, 0, 66, 75
4, 45600, Note_on_c, 0, 66, 0
4, 45600, Note_on_c, 0, 62, 0
4, 45600, Note_on_c, 0, 69, 75
4, 45840, Note_on_c, 0, 69, 0
4, 45840, Note_on_c, 0, 57, 75
4, 45840, Note_on_c, 0, 60, 75
4, 45840, Note_on_c, 0, 62, 75
4, 46080, Note_on_c, 0, 62, 0
4, 46080, Note_on_c, 0, 60, 0
4, 46080, Note_on_c, 0, 57, 0
4, 46080, Note_on_c, 0, 55, 75
4, 46080, Note_on_c, 0, 58, 75
4, 46320, Note_on_c, 0, 58, 0
4, 46320, Note_on_c, 0, 55, 0
4, 46320, Note_on_c, 0, 55, 75
4, 46320, Note_on_c, 0, 58, 75
4, 46560, Note_on_c, 0, 58, 0
4, 46560, Note_on_c, 0, 55, 0
4, 46800, Note_on_c, 0, 43, 75
4, 46800, Note_on_c, 0, 50, 75
4, 46800, Note_on_c, 0, 55, 75
4, 47040, Note_on_c, 0, 55, 0
4, 47040, Note_on_c, 0, 50, 0
4, 47040, Note_on_c, 0, 43, 0
4, 47040, Note_on_c, 0, 41, 75
4, 47040, Note_on_c, 0, 50, 75
4, 47040, Note_on_c, 0, 53, 75
4, 47280, Note_on_c, 0, 53, 0
4, 47280, Note_on_c, 0, 50, 0
4, 47280, Note_on_c, 0, 41, 0
4, 47280, Note_on_c, 0, 41, 75
4, 47280, Note_on_c, 0, 50, 75
4, 47280, Note_on_c, 0, 53, 75
4, 47520, Note_on_c, 0, 53, 0
4, 47520, Note_on_c, 0, 50, 0
4, 47520, Note_on_c, 0, 41, 0
4, 47760, Note_on_c, 0, 53, 75
4, 47760, Note_on_c, 0, 55, 75
4, 48000, Note_on_c, 0, 55, 0
4, 48000, Note_on_c, 0, 53, 0
4, 48000, Note_on_c, 0, 52, 75
4, 48000, Note_on_c, 0, 56, 75
4, 48240, Note_on_c, 0, 56, 0
4, 48240, Note_on_c, 0, 52, 0
4, 48240, Note_on_c, 0, 52, 75
4, 48240, Note_on_c, 0, 56, 75
4, 48480, Note_on_c, 0, 56, 0
4, 48480, Note_on_c, 0, 52, 0
4, 48720, Note_on_c, 0, 52, 75
4, 48720, Note_on_c, 0, 56, 75
4, 48720, Note_on_c, 0, 59, 75
4, 48960, Note_on_c, 0, 59, 0
4, 48960, Note_on_c, 0, 56, 0
4, 48960, Note_on_c, 0, 52, 0
4, 48960, Note_on_c, 0, 50, 75
4, 48960, Note_on_c, 0, 56, 75
4, 48960, Note_on_c, 0, 59, 75
4, 49200, Note_on_c, 0, 59, 0
4, 49200, Note_on_c, 0, 56, 0
4, 49200, Note_on_c, 0, 50, 0
4, 49200, Note_on_c, 0, 50, 75
4, 49200, Note_on_c, 0, 52, 75
4, 49200, Note_on_c, 0, 59, 75
4, 49440, Note_on_c, 0, 59, 0
4, 49440, Note_on_c, 0, 52, 0
4, 49440, Note_on_c, 0, 50, 0
4, 49680, Note_on_c, 0, 50, 75
4, 49680, Note_on_c, 0, 52, 75
4, 49680, Note_on_c, 0, 59, 75
4, 49920, Note_on_c, 0, 59, 0
4, 49920, Note_on_c, 0, 52, 0
4, 49920, Note_on_c, 0, 50, 0
4, 49920, Note_on_c, 0, 45, 75
4, 49920, Note_on_c, 0, 48, 75
4, 49920, Note_on_c, 0, 57, 75
4, 50160, Note_on_c, 0, 57, 0
4, 50160, Note_on_c, 0, 48, 0
4, 50160, Note_on_c, 0, 45, 0
4, 50160, Note_on_c, 0, 45, 75
4, 50160, Note_on_c, 0, 52, 75
4, 50160, Note_on_c, 0, 57, 75
4, 50400, Note_on_c, 0, 57, 0
4, 50400, Note_on_c, 0, 52, 0
4, 50400, Note_on_c, 0, 45, 0
4, 50640, Note_on_c, 0, 45, 75
4, 50640, Note_on_c, 0, 52, 75
4, 50880, Note_on_c, 0, 52, 0
4, 50880, Note_on_c, 0, 45, 0
4, 50880, Note_on_c, 0, 43, 75
4, 50880, Note_on_c, 0, 52, 75
4, 51120, Note_on_c, 0, 52, 0
4, 51120, Note_on_c, 0, 43, 0
4, 51120, Note_on_c, 0, 43, 75
4, 51120, Note_on_c, 0, 52, 75
4, 51360, Note_on_c, 0, 52, 0
4, 51360, Note_on_c, 0, 43, 0
4, 51600, Note_on_c, 0, 55, 75
4, 51600, Note_on_c, 0, 57, 75
4, 51840, Note_on_c, 0, 57, 0
4, 51840, Note_on_c, 0, 55, 0
4, 51840, Note_on_c, 0, 54, 75
4, 51840, Note_on_c, 0, 58, 75
4, 52080, Note_on_c, 0, 58, 0
4, 52080, Note_on_c, 0, 54, 0
4, 52080, Note_on_c, 0, 54, 75
4, 52080, Note_on_c, 0, 58, 75
4, 52320, Note_on_c, 0, 58, 0
4, 52320, Note_on_c, 0, 54, 0
4, 52560, Note_on_c, 0, 54, 75
4, 52560, Note_on_c, 0, 58, 75
4, 52560, Note_on_c, 0, 61, 75
4, 52800, Note_on_c, 0, 61, 0
4, 52800, Note_on_c, 0, 58, 0
4, 52800, Note_on_c, 0, 54, 0
4, 52800, Note_on_c, 0, 52, 75
4, 52800, Note_on_c, 0, 58, 75
4, 52800, Note_on_c, 0, 61, 75
4, 53040, Note_on_c, 0, 61, 0
4, 53040, Note_on_c, 0, 58, 0
4, 53040, Note_on_c, 0, 52, 0
4, 53040, Note_on_c, 0, 52, 75
4, 53040, Note_on_c, 0, 54, 75
4, 53040, Note_on_c, 0, 61, 75
4, 53280, Note_on_c, 0, 61, 0
4, 53280, Note_on_c, 0, 54, 0
4, 53280, Note_on_c, 0, 52, 0
4, 53520, Note_on_c, 0, 52, 75
4, 53520, Note_on_c, 0, 54, 75
4, 53520, Note_on_c, 0, 61, 75
4, 53760, Note_on_c, 0, 61, 0
4, 53760, Note_on_c, 0, 54, 0
4, 53760, Note_on_c, 0, 52, 0
4, 53760, Note_on_c, 0, 50, 75
4, 53760, Note_on_c, 0, 54, 75
4, 53760, Note_on_c, 0, 62, 75
4, 54000, Note_on_c, 0, 62, 0
4, 54000, Note_on_c, 0, 54, 0
4, 54000, Note_on_c, 0, 50, 0
4, 54000, Note_on_c, 0, 47, 75
4, 54000, Note_on_c, 0, 59, 75
4, 54240, Note_on_c, 0, 59, 0
4, 54240, Note_on_c, 0, 47, 0
4, 54240, Note_on_c, 0, 54, 75
4, 54360, Note_on_c, 0, 54, 0
4, 54360, Note_on_c, 0, 54, 75
4, 54480, Note_on_c, 0, 54, 0
4, 54480, Note_on_c, 0, 55, 75
4, 54600, Note_on_c, 0, 55, 0
4, 54600, Note_on_c, 0, 55, 75
4, 54720, Note_on_c, 0, 55, 0
4, 54720, Note_on_c, 0, 56, 75
4, 54840, Note_on_c, 0, 56, 0
4, 54840, Note_on_c, 0, 56, 75
4, 54960, Note_on_c, 0, 56, 0
4, 54960, Note_on_c, 0, 55, 75
4, 55080, Note_on_c, 0, 55, 0
4, 55080, Note_on_c, 0, 55, 75
4, 55200, Note_on_c, 0, 55, 0
4, 55200, Note_on_c, 0, 54, 75
4, 55320, Note_on_c, 0, 54, 0
4, 55320, Note_on_c, 0, 54, 75
4, 55440, Note_on_c, 0, 54, 0
4, 55440, Note_on_c, 0, 52, 75
4, 55560, Note_on_c, 0, 52, 0
4, 55560, Note_on_c, 0, 52, 75
4, 55680, Note_on_c, 0, 52, 0
4, 55680, Note_on_c, 0, 50, 75
4, 55800, Note_on_c, 0, 50, 0
4, 55800, Note_on_c, 0, 50, 75
4, 55920, Note_on_c, 0, 50, 0
4, 55920, Note_on_c, 0, 47, 75
4, 56040, Note_on_c, 0, 47, 0
4, 56040, Note_on_c, 0, 47, 75
4, 56160, Note_on_c, 0, 47, 0
4, 56160, Note_on_c, 0, 54, 75
4, 56280, Note_on_c, 0, 54, 0
4, 56280, Note_on_c, 0, 54, 75
4, 56400, Note_on_c, 0, 54, 0
4, 56400, Note_on_c, 0, 55, 75
4, 56520, Note_on_c, 0, 55, 0
4, 56520, Note_on_c, 0, 55, 75
4, 56640, Note_on_c, 0, 55, 0
4, 56640, Note_on_c, 0, 56, 75
4, 56760, Note_on_c, 0, 56, 0
4, 56760, Note_on_c, 0, 56, 75
4, 56880, Note_on_c, 0, 56, 0
4, 56880, Note_on_c, 0, 55, 75
4, 57000, Note_on_c, 0, 55, 0
4, 57000, Note_on_c, 0, 55, 75
4, 57120, Note_on_c, 0, 55, 0
4, 57120, Note_on_c, 0, 54, 75
4, 57240, Note_on_c, 0, 54, 0
4, 57240, Note_on_c, 0, 54, 75
4, 57360, Note_on_c, 0, 54, 0
4, 57360, Note_on_c, 0, 52, 75
4, 57480, Note_on_c, 0, 52, 0
4, 57480, Note_on_c, 0, 52, 75
4, 57600, Note_on_c, 0, 52, 0
4, 57600, Note_on_c, 0, 47, 75
4, 57600, Note_on_c, 0, 50, 75
4, 57840, Note_on_c, 0, 50, 0
4, 57840, Note_on_c, 0, 47, 0
4, 58320, Note_on_c, 0, 59, 75
4, 58320, Note_on_c, 0, 62, 75
4, 58560, Note_on_c, 0, 62, 0
4, 58560, Note_on_c, 0, 59, 0
4, 58560, Note_on_c, 0, 52, 75
4, 58560, Note_on_c, 0, 59, 75
4, 58800, Note_on_c, 0, 59, 0
4, 58800, Note_on_c, 0, 52, 0
4, 58800, Note_on_c, 0, 52, 75
4, 58800, Note_on_c, 0, 59, 75
4, 59040, Note_on_c, 0, 59, 0
4, 59040, Note_on_c, 0, 52, 0
4, 59040, Note_on_c, 0, 61, 75
4, 59280, Note_on_c, 0, 61, 0
4, 59280, Note_on_c, 0, 57, 75
4, 59280, Note_on_c, 0, 64, 75
4, 59520, Note_on_c, 0, 64, 0
4, 59520, Note_on_c, 0, 57, 0
4, 59520, Note_on_c, 0, 50, 75
4, 59520, Note_on_c, 0, 57, 75
4, 59760, Note_on_c, 0, 57, 0
4, 59760, Note_on_c, 0, 50, 0
4, 59760, Note_on_c, 0, 50, 75
4, 59760, Note_on_c, 0, 57, 75
4, 60000, Note_on_c, 0, 57, 0
4, 60000, Note_on_c, 0, 50, 0
4, 60240, Note_on_c, 0, 60, 75
4, 60240, Note_on_c, 0, 62, 75
4, 60480, Note_on_c, 0, 62, 0
4, 60480, Note_on_c, 0, 60, 0
4, 60480, Note_on_c, 0, 59, 75
4, 60720, Note_on_c, 0, 59, 0
4, 60720, Note_on_c, 0, 59, 75
4, 60960, Note_on_c, 0, 59, 0
4, 60960, Note_on_c, 0, 63, 75
4, 61200, Note_on_c, 0, 63, 0
4, 61200, Note_on_c, 0, 54, 75
4, 61200, Note_on_c, 0, 57, 75
4, 61200, Note_on_c, 0, 59, 75
4, 61440, Note_on_c, 0, 59, 0
4, 61440, Note_on_c, 0, 57, 0
4, 61440, Note_on_c, 0, 54, 0
4, 61440, Note_on_c, 0, 58, 75
4, 61560, Note_on_c, 0, 58, 0
4, 61560, Note_on_c, 0, 59, 75
4, 61680, Note_on_c, 0, 59, 0
4, 61680, Note_on_c, 0, 61, 75
4, 61703, Note_on_c, 0, 61, 0
4, 61800, Note_on_c, 0, 63, 75
4, 61823, Note_on_c, 0, 63, 0
4, 61920, Note_on_c, 0, 64, 75
4, 62160, Note_on_c, 0, 64, 0
4, 62280, Note_on_c, 0, 57, 75
4, 62303, Note_on_c, 0, 57, 0
4, 62400, Note_on_c, 0, 58, 75
4, 62520, Note_on_c, 0, 58, 0
4, 62520, Note_on_c, 0, 59, 75
4, 62640, Note_on_c, 0, 59, 0
4, 62640, Note_on_c, 0, 61, 75
4, 62663, Note_on_c, 0, 61, 0
4, 62760, Note_on_c, 0, 63, 75
4, 62783, Note_on_c, 0, 63, 0
4, 62880, Note_on_c, 0, 64, 75
4, 63120, Note_on_c, 0, 64, 0
4, 63240, Note_on_c, 0, 57, 75
4, 63360, Note_on_c, 0, 57, 0
4, 63360, Note_on_c, 0, 49, 49
4, 63360, Note_on_c, 0, 52, 49
4, 63360, Note_on_c, 0, 55, 49
4, 63360, Note_on_c, 0, 58, 49
4, 63720, Note_on_c, 0, 58, 0
4, 63720, Note_on_c, 0, 49, 0
4, 63720, Note_on_c, 0, 52, 0
4, 63720, Note_on_c, 0, 55, 0
4, 63720, Note_on_c, 0, 49, 49
4, 63720, Note_on_c, 0, 52, 49
4, 63720, Note_on_c, 0, 55, 49
4, 63720, Note_on_c, 0, 58, 49
4, 63840, Note_on_c, 0, 58, 0
4, 63840, Note_on_c, 0, 49, 0
4, 63840, Note_on_c, 0, 52, 0
4, 63840, Note_on_c, 0, 55, 0
4, 63840, Note_on_c, 0, 48, 62
4, 63840, Note_on_c, 0, 52, 62
4, 63840, Note_on_c, 0, 55, 62
4, 63840, Note_on_c, 0, 58, 62
4, 64200, Note_on_c, 0, 58, 0
4, 64200, Note_on_c, 0, 48, 0
4, 64200, Note_on_c, 0, 52, 0
4, 64200, Note_on_c, 0, 55, 0
4, 64200, Note_on_c, 0, 48, 62
4, 64200, Note_on_c, 0, 52, 62
4, 64200, Note_on_c, 0, 55, 62
4, 64200, Note_on_c, 0, 58, 62
4, 64320, Note_on_c, 0, 58, 0
4, 64320, Note_on_c, 0, 48, 0
4, 64320, Note_on_c, 0, 52, 0
4, 64320, Note_on_c, 0, 55, 0
4, 64320, Note_on_c, 0, 47, 75
4, 64320, Note_on_c, 0, 52, 75
4, 64320, Note_on_c, 0, 55, 75
4, 64320, Note_on_c, 0, 59, 75
4, 64680, Note_on_c, 0, 59, 0
4, 64680, Note_on_c, 0, 47, 0
4, 64680, Note_on_c, 0, 52, 0
4, 64680, Note_on_c, 0, 55, 0
4, 64680, Note_on_c, 0, 47, 75
4, 64680, Note_on_c, 0, 52, 75
4, 64680, Note_on_c, 0, 55, 75
4, 64680, Note_on_c, 0, 59, 75
4, 64800, Note_on_c, 0, 59, 0
4, 64800, Note_on_c, 0, 47, 0
4, 64800, Note_on_c, 0, 52, 0
4, 64800, Note_on_c, 0, 55, 0
4, 64800, Note_on_c, 0, 46, 75
4, 64800, Note_on_c, 0, 52, 75
4, 64800, Note_on_c, 0, 55, 75
4, 64800, Note_on_c, 0, 60, 75
4, 65160, Note_on_c, 0, 60, 0
4, 65160, Note_on_c, 0, 46, 0
4, 65160, Note_on_c, 0, 52, 0
4, 65160, Note_on_c, 0, 55, 0
4, 65160, Note_on_c, 0, 60, 75
4, 65280, Note_on_c, 0, 60, 0
4, 65280, Note_on_c, 0, 45, 88
4, 65280, Note_on_c, 0, 52, 88
4, 65280, Note_on_c, 0, 55, 88
4, 65280, Note_on_c, 0, 61, 88
4, 65520, Note_on_c, 0, 61, 0
4, 65520, Note_on_c, 0, 45, 0
4, 65520, Note_on_c, 0, 52, 0
4, 65520, Note_on_c, 0, 55, 0
4, 65520, Note_on_c, 0, 45, 88
4, 65520, Note_on_c, 0, 49, 88
4, 65520, Note_on_c, 0, 52, 88
4, 65520, Note_on_c, 0, 57, 88
4, 66000, Note_on_c, 0, 57, 0
4, 66000, Note_on_c, 0, 45, 0
4, 66000, Note_on_c, 0, 49, 0
4, 66000, Note_on_c, 0, 52, 0
4, 66000, Note_on_c, 0, 45, 88
4, 66000, Note_on_c, 0, 49, 88
4, 66000, Note_on_c, 0, 52, 88
4, 66000, Note_on_c, 0, 57, 88
4, 66480, Note_on_c, 0, 57, 0
4, 66480, Note_on_c, 0, 45, 0
4, 66480, Note_on_c, 0, 49, 0
4, 66480, Note_on_c, 0, 52, 0
4, 66480, Note_on_c, 0, 45, 88
4, 66480, Note_on_c, 0, 49, 88
4, 66480, Note_on_c, 0, 52, 88
4, 66480, Note_on_c, 0, 57, 88
4, 66960, Note_on_c, 0, 57, 0
4, 66960, Note_on_c, 0, 45, 0
4, 66960, Note_on_c, 0, 49, 0
4, 66960, Note_on_c, 0, 52, 0
4, 66960, Note_on_c, 0, 46, 88
4, 66960, Note_on_c, 0, 48, 88
4, 66960, Note_on_c, 0, 52, 88
4, 66960, Note_on_c, 0, 58, 88
4, 67200, Note_on_c, 0, 58, 0
4, 67200, Note_on_c, 0, 46, 0
4, 67200, Note_on_c, 0, 48, 0
4, 67200, Note_on_c, 0, 52, 0
4, 67200, Note_on_c, 0, 45, 88
4, 67200, Note_on_c, 0, 49, 88
4, 67200, Note_on_c, 0, 52, 88
4, 67200, Note_on_c, 0, 57, 88
4, 67440, Note_on_c, 0, 57, 0
4, 67440, Note_on_c, 0, 45, 0
4, 67440, Note_on_c, 0, 49, 0
4, 67440, Note_on_c, 0, 52, 0
4, 67440, Note_on_c, 0, 46, 88
4, 67440, Note_on_c, 0, 48, 88
4, 67440, Note_on_c, 0, 52, 88
4, 67440, Note_on_c, 0, 58, 88
4, 67680, Note_on_c, 0, 58, 0
4, 67680, Note_on_c, 0, 46, 0
4, 67680, Note_on_c, 0, 48, 0
4, 67680, Note_on_c, 0, 52, 0
4, 67680, Note_on_c, 0, 45, 88
4, 67680, Note_on_c, 0, 49, 88
4, 67680, Note_on_c, 0, 52, 88
4, 67680, Note_on_c, 0, 57, 88
4, 67920, Note_on_c, 0, 57, 0
4, 67920, Note_on_c, 0, 45, 0
4, 67920, Note_on_c, 0, 49, 0
4, 67920, Note_on_c, 0, 52, 0
4, 67920, Note_on_c, 0, 46, 88
4, 67920, Note_on_c, 0, 48, 88
4, 67920, Note_on_c, 0, 52, 88
4, 67920, Note_on_c, 0, 58, 88
4, 68160, Note_on_c, 0, 58, 0
4, 68160, Note_on_c, 0, 46, 0
4, 68160, Note_on_c, 0, 48, 0
4, 68160, Note_on_c, 0, 52, 0
4, 68160, Note_on_c, 0, 45, 88
4, 68160, Note_on_c, 0, 49, 88
4, 68160, Note_on_c, 0, 52, 88
4, 68160, Note_on_c, 0, 57, 88
4, 68400, Note_on_c, 0, 57, 0
4, 68400, Note_on_c, 0, 45, 0
4, 68400, Note_on_c, 0, 49, 0
4, 68400, Note_on_c, 0, 52, 0
4, 68400, Note_on_c, 0, 46, 88
4, 68400, Note_on_c, 0, 48, 88
4, 68400, Note_on_c, 0, 52, 88
4, 68400, Note_on_c, 0, 58, 88
4, 68640, Note_on_c, 0, 58, 0
4, 68640, Note_on_c, 0, 46, 0
4, 68640, Note_on_c, 0, 48, 0
4, 68640, Note_on_c, 0, 52, 0
4, 68640, Note_on_c, 0, 45, 114
4, 68640, Note_on_c, 0, 49, 114
4, 68640, Note_on_c, 0, 52, 114
4, 68640, Note_on_c, 0, 57, 114
4, 69120, Note_on_c, 0, 57, 0
4, 69120, Note_on_c, 0, 45, 0
4, 69120, Note_on_c, 0, 49, 0
4, 69120, Note_on_c, 0, 52, 0
4, 70320, Note_on_c, 0, 45, 88
4, 70320, Note_on_c, 0, 49, 88
4, 70320, Note_on_c, 0, 52, 88
4, 70560, Note_on_c, 0, 52, 0
4, 70560, Note_on_c, 0, 49, 0
4, 70560, Note_on_c, 0, 45, 0
4, 70800, Note_on_c, 0, 44, 88
4, 70800, Note_on_c, 0, 49, 88
4, 70800, Note_on_c, 0, 52, 88
4, 71040, Note_on_c, 0, 52, 0
4, 71040, Note_on_c, 0, 49, 0
4, 71040, Note_on_c, 0, 44, 0
4, 71280, Note_on_c, 0, 43, 88
4, 71280, Note_on_c, 0, 49, 88
4, 71280, Note_on_c, 0, 52, 88
4, 71760, Note_on_c, 0, 52, 0
4, 71760, Note_on_c, 0, 49, 0
4, 71760, Note_on_c, 0, 43, 0
4, 71760, Note_on_c, 0, 42, 88
4, 71760, Note_on_c, 0, 49, 88
4, 72000, Note_on_c, 0, 49, 0
4, 72000, Note_on_c, 0, 42, 0
4, 72000, Note_on_c, 0, 43, 88
4, 72000, Note_on_c, 0, 49, 88
4, 72000, Note_on_c, 0, 52, 88
4, 72240, Note_on_c, 0, 52, 0
4, 72240, Note_on_c, 0, 49, 0
4, 72240, Note_on_c, 0, 43, 0
4, 72240, Note_on_c, 0, 42, 88
4, 72240, Note_on_c, 0, 49, 88
4, 72240, Note_on_c, 0, 54, 88
4, 72480, Note_on_c, 0, 54, 0
4, 72480, Note_on_c, 0, 49, 0
4, 72480, Note_on_c, 0, 42, 0
4, 72480, Note_on_c, 0, 43, 88
4, 72480, Note_on_c, 0, 49, 88
4, 72480, Note_on_c, 0, 52, 88
4, 72720, Note_on_c, 0, 52, 0
4, 72720, Note_on_c, 0, 49, 0
4, 72720, Note_on_c, 0, 43, 0
4, 72720, Note_on_c, 0, 42, 88
4, 72720, Note_on_c, 0, 49, 88
4, 72720, Note_on_c, 0, 54, 88
4, 72960, Note_on_c, 0, 54, 0
4, 72960, Note_on_c, 0, 49, 0
4, 72960, Note_on_c, 0, 42, 0
4, 72960, Note_on_c, 0, 43, 88
4, 72960, Note_on_c, 0, 49, 88
4, 72960, Note_on_c, 0, 52, 88
4, 73200, Note_on_c, 0, 52, 0
4, 73200, Note_on_c, 0, 49, 0
4, 73200, Note_on_c, 0, 43, 0
4, 73200, Note_on_c, 0, 42, 88
4, 73200, Note_on_c, 0, 49, 88
4, 73200, Note_on_c, 0, 54, 88
4, 73440, Note_on_c, 0, 54, 0
4, 73440, Note_on_c, 0, 49, 0
4, 73440, Note_on_c, 0, 42, 0
4, 73440, Note_on_c, 0, 43, 88
4, 73440, Note_on_c, 0, 49, 88
4, 73440, Note_on_c, 0, 52, 88
4, 73680, Note_on_c, 0, 52, 0
4, 73680, Note_on_c, 0, 49, 0
4, 73680, Note_on_c, 0, 43, 0
4, 75120, Note_on_c, 0, 49, 88
4, 75120, Note_on_c, 0, 52, 88
4, 75120, Note_on_c, 0, 55, 88
4, 75360, Note_on_c, 0, 55, 0
4, 75360, Note_on_c, 0, 52, 0
4, 75360, Note_on_c, 0, 49, 0
4, 75600, Note_on_c, 0, 47, 88
4, 75600, Note_on_c, 0, 52, 88
4, 75600, Note_on_c, 0, 55, 88
4, 75840, Note_on_c, 0, 55, 0
4, 75840, Note_on_c, 0, 52, 0
4, 75840, Note_on_c, 0, 47, 0
4, 76080, Note_on_c, 0, 46, 88
4, 76080, Note_on_c, 0, 52, 88
4, 76080, Note_on_c, 0, 55, 88
4, 76560, Note_on_c, 0, 55, 0
4, 76560, Note_on_c, 0, 52, 0
4, 76560, Note_on_c, 0, 46, 0
4, 76560, Note_on_c, 0, 45, 88
4, 76560, Note_on_c, 0, 52, 88
4, 76560, Note_on_c, 0, 55, 88
4, 76800, Note_on_c, 0, 55, 0
4, 76800, Note_on_c, 0, 52, 0
4, 76800, Note_on_c, 0, 45, 0
4, 76800, Note_on_c, 0, 46, 88
4, 76800, Note_on_c, 0, 52, 88
4, 76800, Note_on_c, 0, 55, 88
4, 77040, Note_on_c, 0, 55, 0
4, 77040, Note_on_c, 0, 52, 0
4, 77040, Note_on_c, 0, 46, 0
4, 77040, Note_on_c, 0, 45, 88
4, 77040, Note_on_c, 0, 52, 88
4, 77040, Note_on_c, 0, 55, 88
4, 77280, Note_on_c, 0, 55, 0
4, 77280, Note_on_c, 0, 52, 0
4, 77280, Note_on_c, 0, 45, 0
4, 77280, Note_on_c, 0, 46, 88
4, 77280, Note_on_c, 0, 52, 88
4, 77280, Note_on_c, 0, 55, 88
4, 77520, Note_on_c, 0, 55, 0
4, 77520, Note_on_c, 0, 52, 0
4, 77520, Note_on_c, 0, 46, 0
4, 77520, Note_on_c, 0, 45, 88
4, 77520, Note_on_c, 0, 52, 88
4, 77520, Note_on_c, 0, 55, 88
4, 77760, Note_on_c, 0, 55, 0
4, 77760, Note_on_c, 0, 52, 0
4, 77760, Note_on_c, 0, 45, 0
4, 77760, Note_on_c, 0, 46, 88
4, 77760, Note_on_c, 0, 52, 88
4, 77760, Note_on_c, 0, 55, 88
4, 78000, Note_on_c, 0, 55, 0
4, 78000, Note_on_c, 0, 52, 0
4, 78000, Note_on_c, 0, 46, 0
4, 78000, Note_on_c, 0, 45, 88
4, 78000, Note_on_c, 0, 52, 88
4, 78000, Note_on_c, 0, 55, 88
4, 78240, Note_on_c, 0, 55, 0
4, 78240, Note_on_c, 0, 52, 0
4, 78240, Note_on_c, 0, 45, 0
4, 78240, Note_on_c, 0, 46, 88
4, 78240, Note_on_c, 0, 52, 88
4, 78240, Note_on_c, 0, 55, 88
4, 78480, Note_on_c, 0, 55, 0
4, 78480, Note_on_c, 0, 52, 0
4, 78480, Note_on_c, 0, 46, 0
4, 79920, Note_on_c, 0, 55, 88
4, 80160, Note_on_c, 0, 55, 0
4, 80160, Note_on_c, 0, 49, 88
4, 80160, Note_on_c, 0, 55, 88
4, 80160, Note_on_c, 0, 57, 88
4, 80400, Note_on_c, 0, 57, 0
4, 80400, Note_on_c, 0, 55, 0
4, 80400, Note_on_c, 0, 55, 88
4, 80400, Note_on_c, 0, 58, 88
4, 80520, Note_on_c, 0, 58, 0
4, 80520, Note_on_c, 0, 55, 0
4, 80520, Note_on_c, 0, 49, 0
4, 80880, Note_on_c, 0, 46, 88
4, 80960, Note_on_c, 0, 46, 0
4, 80960, Note_on_c, 0, 47, 88
4, 81039, Note_on_c, 0, 47, 0
4, 81039, Note_on_c, 0, 49, 88
4, 81120, Note_on_c, 0, 49, 0
4, 81120, Note_on_c, 0, 40, 88
4, 81120, Note_on_c, 0, 50, 88
4, 81360, Note_on_c, 0, 50, 0
4, 81360, Note_on_c, 0, 49, 88
4, 81480, Note_on_c, 0, 49, 0
4, 81480, Note_on_c, 0, 40, 0
4, 81840, Note_on_c, 0, 55, 88
4, 82080, Note_on_c, 0, 55, 0
4, 82080, Note_on_c, 0, 49, 88
4, 82080, Note_on_c, 0, 55, 88
4, 82080, Note_on_c, 0, 57, 88
4, 82320, Note_on_c, 0, 57, 0
4, 82320, Note_on_c, 0, 55, 0
4, 82320, Note_on_c, 0, 55, 88
4, 82320, Note_on_c, 0, 58, 88
4, 82440, Note_on_c, 0, 58, 0
4, 82440, Note_on_c, 0, 55, 0
4, 82440, Note_on_c, 0, 49, 0
4, 82800, Note_on_c, 0, 46, 88
4, 82880, Note_on_c, 0, 46, 0
4, 82880, Note_on_c, 0, 47, 88
4, 82959, Note_on_c, 0, 47, 0
4, 82959, Note_on_c, 0, 49, 88
4, 83040, Note_on_c, 0, 49, 0
4, 83040, Note_on_c, 0, 40, 88
4, 83040, Note_on_c, 0, 50, 88
4, 83280, Note_on_c, 0, 50, 0
4, 83280, Note_on_c, 0, 49, 88
4, 83400, Note_on_c, 0, 49, 0
4, 83400, Note_on_c, 0, 40, 0
4, 83760, Note_on_c, 0, 55, 88
4, 84000, Note_on_c, 0, 55, 0
4, 84000, Note_on_c, 0, 54, 88
4, 84080, Note_on_c, 0, 54, 0
4, 84080, Note_on_c, 0, 55, 88
4, 84159, Note_on_c, 0, 55, 0
4, 84159, Note_on_c, 0, 57, 88
4, 84240, Note_on_c, 0, 57, 0
4, 84240, Note_on_c, 0, 55, 88
4, 84240, Note_on_c, 0, 58, 88
4, 84360, Note_on_c, 0, 58, 0
4, 84360, Note_on_c, 0, 55, 0
4, 84720, Note_on_c, 0, 55, 88
4, 84960, Note_on_c, 0, 55, 0
4, 84960, Note_on_c, 0, 54, 88
4, 85040, Note_on_c, 0, 54, 0
4, 85040, Note_on_c, 0, 55, 88
4, 85119, Note_on_c, 0, 55, 0
4, 85119, Note_on_c, 0, 57, 88
4, 85200, Note_on_c, 0, 57, 0
4, 85200, Note_on_c, 0, 55, 88
4, 85200, Note_on_c, 0, 58, 88
4, 85320, Note_on_c, 0, 58, 0
4, 85320, Note_on_c, 0, 55, 0
4, 85680, Note_on_c, 0, 55, 88
4, 85920, Note_on_c, 0, 55, 0
4, 85920, Note_on_c, 0, 54, 88
4, 86000, Note_on_c, 0, 54, 0
4, 86000, Note_on_c, 0, 55, 88
4, 86079, Note_on_c, 0, 55, 0
4, 86079, Note_on_c, 0, 57, 88
4, 86160, Note_on_c, 0, 57, 0
4, 86160, Note_on_c, 0, 55, 88
4, 86160, Note_on_c, 0, 58, 88
4, 86280, Note_on_c, 0, 58, 0
4, 86280, Note_on_c, 0, 55, 0
4, 86400, Note_on_c, 0, 57, 88
4, 86480, Note_on_c, 0, 57, 0
4, 86480, Note_on_c, 0, 58, 88
4, 86559, Note_on_c, 0, 58, 0
4, 86559, Note_on_c, 0, 59, 88
4, 86640, Note_on_c, 0, 59, 0
4, 86640, Note_on_c, 0, 61, 88
4, 86760, Note_on_c, 0, 61, 0
4, 86880, Note_on_c, 0, 60, 88
4, 86960, Note_on_c, 0, 60, 0
4, 86960, Note_on_c, 0, 61, 88
4, 87039, Note_on_c, 0, 61, 0
4, 87039, Note_on_c, 0, 62, 88
4, 87120, Note_on_c, 0, 62, 0
4, 87120, Note_on_c, 0, 64, 88
4, 87240, Note_on_c, 0, 64, 0
4, 87360, Note_on_c, 0, 63, 88
4, 87440, Note_on_c, 0, 63, 0
4, 87440, Note_on_c, 0, 64, 88
4, 87519, Note_on_c, 0, 64, 0
4, 87519, Note_on_c, 0, 65, 88
4, 87600, Note_on_c, 0, 65, 0
4, 87600, Note_on_c, 0, 67, 88
4, 87720, Note_on_c, 0, 67, 0
4, 87840, Note_on_c, 0, 61, 88
4, 87840, Note_on_c, 0, 67, 88
4, 87999, Note_on_c, 0, 67, 0
4, 87999, Note_on_c, 0, 61, 0
4, 87999, Note_on_c, 0, 64, 88
4, 87999, Note_on_c, 0, 73, 88
4, 88160, Note_on_c, 0, 73, 0
4, 88160, Note_on_c, 0, 64, 0
4, 88160, Note_on_c, 0, 61, 88
4, 88160, Note_on_c, 0, 67, 88
4, 88320, Note_on_c, 0, 67, 0
4, 88320, Note_on_c, 0, 61, 0
4, 88320, Note_on_c, 0, 64, 88
4, 88320, Note_on_c, 0, 73, 88
4, 88479, Note_on_c, 0, 73, 0
4, 88479, Note_on_c, 0, 64, 0
4, 88479, Note_on_c, 0, 61, 88
4, 88479, Note_on_c, 0, 67, 88
4, 88640, Note_on_c, 0, 67, 0
4, 88640, Note_on_c, 0, 61, 0
4, 88640, Note_on_c, 0, 64, 88
4, 88640, Note_on_c, 0, 73, 88
4, 88800, Note_on_c, 0, 73, 0
4, 88800, Note_on_c, 0, 64, 0
4, 88800, Note_on_c, 0, 61, 88
4, 88800, Note_on_c, 0, 67, 88
4, 88959, Note_on_c, 0, 67, 0
4, 88959, Note_on_c, 0, 61, 0
4, 88959, Note_on_c, 0, 64, 88
4, 88959, Note_on_c, 0, 73, 88
4, 89120, Note_on_c, 0, 73, 0
4, 89120, Note_on_c, 0, 64, 0
4, 89120, Note_on_c, 0, 61, 88
4, 89120, Note_on_c, 0, 67, 88
4, 89280, Note_on_c, 0, 67, 0
4, 89280, Note_on_c, 0, 61, 0
4, 89280, Note_on_c, 0, 64, 88
4, 89280, Note_on_c, 0, 73, 88
4, 89439, Note_on_c, 0, 73, 0
4, 89439, Note_on_c, 0, 64, 0
4, 89439, Note_on_c, 0, 64, 88
4, 89600, Note_on_c, 0, 64, 0
4, 89600, Note_on_c, 0, 64, 88
4, 89760, Note_on_c, 0, 64, 0
4, 89760, Note_on_c, 0, 49, 88
4, 89760, Note_on_c, 0, 55, 88
4, 89919, Note_on_c, 0, 55, 0
4, 89919, Note_on_c, 0, 49, 0
4, 89919, Note_on_c, 0, 52, 88
4, 89919, Note_on_c, 0, 61, 88
4, 90080, Note_on_c, 0, 61, 0
4, 90080, Note_on_c, 0, 52, 0
4, 90080, Note_on_c, 0, 49, 88
4, 90080, Note_on_c, 0, 55, 88
4, 90240, Note_on_c, 0, 55, 0
4, 90240, Note_on_c, 0, 49, 0
4, 90240, Note_on_c, 0, 52, 88
4, 90240, Note_on_c, 0, 61, 88
4, 90399, Note_on_c, 0, 61, 0
4, 90399, Note_on_c, 0, 52, 0
4, 90399, Note_on_c, 0, 49, 88
4, 90399, Note_on_c, 0, 55, 88
4, 90560, Note_on_c, 0, 55, 0
4, 90560, Note_on_c, 0, 49, 0
4, 90560, Note_on_c, 0, 52, 88
4, 90560, Note_on_c, 0, 61, 88
4, 90720, Note_on_c, 0, 61, 0
4, 90720, Note_on_c, 0, 52, 0
4, 90720, Note_on_c, 0, 49, 88
4, 90720, Note_on_c, 0, 55, 88
4, 90879, Note_on_c, 0, 55, 0
4, 90879, Note_on_c, 0, 49, 0
4, 90879, Note_on_c, 0, 52, 88
4, 90879, Note_on_c, 0, 61, 88
4, 91040, Note_on_c, 0, 61, 0
4, 91040, Note_on_c, 0, 52, 0
4, 91040, Note_on_c, 0, 49, 88
4, 91040, Note_on_c, 0, 55, 88
4, 91200, Note_on_c, 0, 55, 0
4, 91200, Note_on_c, 0, 49, 0
4, 91200, Note_on_c, 0, 52, 88
4, 91200, Note_on_c, 0, 61, 88
4, 91359, Note_on_c, 0, 61, 0
4, 91359, Note_on_c, 0, 52, 0
4, 91359, Note_on_c, 0, 52, 88
4, 91520, Note_on_c, 0, 52, 0
4, 91520, Note_on_c, 0, 52, 88
4, 91680, Note_on_c, 0, 52, 0
4, 91680, Note_on_c, 0, 37, 88
4, 91680, Note_on_c, 0, 43, 88
4, 91839, Note_on_c, 0, 43, 0
4, 91839, Note_on_c, 0, 37, 0
4, 91839, Note_on_c, 0, 40, 88
4, 91839, Note_on_c, 0, 49, 88
4, 92000, Note_on_c, 0, 49, 0
4, 92000, Note_on_c, 0, 40, 0
4, 92000, Note_on_c, 0, 37, 88
4, 92000, Note_on_c, 0, 43, 88
4, 92160, Note_on_c, 0, 43, 0
4, 92160, Note_on_c, 0, 37, 0
4, 92160, Note_on_c, 0, 40, 88
4, 92160, Note_on_c, 0, 49, 88
4, 92319, Note_on_c, 0, 49, 0
4, 92319, Note_on_c, 0, 40, 0
4, 92319, Note_on_c, 0, 37, 88
4, 92319, Note_on_c, 0, 43, 88
4, 92480, Note_on_c, 0, 43, 0
4, 92480, Note_on_c, 0, 37, 0
4, 92480, Note_on_c, 0, 40, 88
4, 92480, Note_on_c, 0, 49, 88
4, 92640, Note_on_c, 0, 49, 0
4, 92640, Note_on_c, 0, 40, 0
4, 92640, Note_on_c, 0, 37, 88
4, 92640, Note_on_c, 0, 43, 88
4, 92799, Note_on_c, 0, 43, 0
4, 92799, Note_on_c, 0, 37, 0
4, 92799, Note_on_c, 0, 40, 88
4, 92799, Note_on_c, 0, 49, 88
4, 92960, Note_on_c, 0, 49, 0
4, 92960, Note_on_c, 0, 40, 0
4, 92960, Note_on_c, 0, 37, 88
4, 92960, Note_on_c, 0, 43, 88
4, 93120, Note_on_c, 0, 43, 0
4, 93120, Note_on_c, 0, 37, 0
4, 93120, Note_on_c, 0, 40, 88
4, 93120, Note_on_c, 0, 49, 88
4, 93279, Note_on_c, 0, 49, 0
4, 93279, Note_on_c, 0, 40, 0
4, 93279, Note_on_c, 0, 40, 88
4, 93440, Note_on_c, 0, 40, 0
4, 93440, Note_on_c, 0, 40, 88
4, 93600, Note_on_c, 0, 40, 0
4, 93600, Note_on_c, 0, 49, 75
4, 93840, Note_on_c, 0, 49, 0
4, 93840, Note_on_c, 0, 47, 75
4, 94080, Note_on_c, 0, 47, 0
4, 94080, Note_on_c, 0, 46, 75
4, 94560, Note_on_c, 0, 46, 0
4, 94560, Note_on_c, 0, 45, 88
4, 94800, Note_on_c, 0, 45, 0
4, 94800, Note_on_c, 0, 46, 88
4, 95040, Note_on_c, 0, 46, 0
4, 95040, Note_on_c, 0, 47, 88
4, 95520, Note_on_c, 0, 47, 0
4, 95520, Note_on_c, 0, 47, 88
4, 95760, Note_on_c, 0, 47, 0
4, 95760, Note_on_c, 0, 48, 88
4, 96000, Note_on_c, 0, 48, 0
4, 96000, Note_on_c, 0, 49, 88
4, 96480, Note_on_c, 0, 49, 0
4, 97440, Note_on_c, 0, 49, 75
4, 97680, Note_on_c, 0, 49, 0
4, 97680, Note_on_c, 0, 47, 75
4, 97920, Note_on_c, 0, 47, 0
4, 97920, Note_on_c, 0, 46, 75
4, 98400, Note_on_c, 0, 46, 0
4, 98400, Note_on_c, 0, 45, 88
4, 98640, Note_on_c, 0, 45, 0
4, 98640, Note_on_c, 0, 46, 88
4, 98880, Note_on_c, 0, 46, 0
4, 98880, Note_on_c, 0, 47, 88
4, 99360, Note_on_c, 0, 47, 0
4, 99360, Note_on_c, 0, 47, 88
4, 99600, Note_on_c, 0, 47, 0
4, 99600, Note_on_c, 0, 48, 88
4, 99840, Note_on_c, 0, 48, 0
4, 99840, Note_on_c, 0, 49, 114
4, 100320, Note_on_c, 0, 49, 0
4, 101280, Note_on_c, 0, 52, 88
4, 101520, Note_on_c, 0, 52, 0
4, 101520, Note_on_c, 0, 50, 88
4, 101760, Note_on_c, 0, 50, 0
4, 101760, Note_on_c, 0, 49, 88
4, 102240, Note_on_c, 0, 49, 0
4, 102240, Note_on_c, 0, 48, 88
4, 102480, Note_on_c, 0, 48, 0
4, 102480, Note_on_c, 0, 49, 88
4, 102720, Note_on_c, 0, 49, 0
4, 102720, Note_on_c, 0, 52, 88
4, 103200, Note_on_c, 0, 52, 0
4, 103200, Note_on_c, 0, 54, 88
4, 103440, Note_on_c, 0, 54, 0
4, 103440, Note_on_c, 0, 55, 88
4, 103680, Note_on_c, 0, 55, 0
4, 103680, Note_on_c, 0, 58, 88
4, 104160, Note_on_c, 0, 58, 0
4, 105120, Note_on_c, 0, 52, 88
4, 105360, Note_on_c, 0, 52, 0
4, 105360, Note_on_c, 0, 50, 88
4, 105600, Note_on_c, 0, 50, 0
4, 105600, Note_on_c, 0, 49, 88
4, 106080, Note_on_c, 0, 49, 0
4, 106080, Note_on_c, 0, 48, 88
4, 106320, Note_on_c, 0, 48, 0
4, 106320, Note_on_c, 0, 49, 88
4, 106560, Note_on_c, 0, 49, 0
4, 106560, Note_on_c, 0, 52, 88
4, 107040, Note_on_c, 0, 52, 0
4, 107040, Note_on_c, 0, 54, 88
4, 107280, Note_on_c, 0, 54, 0
4, 107280, Note_on_c, 0, 55, 88
4, 107520, Note_on_c, 0, 55, 0
4, 107520, Note_on_c, 0, 58, 88
4, 108000, Note_on_c, 0, 58, 0
4, 108480, Note_on_c, 0, 52, 101
4, 108720, Note_on_c, 0, 52, 0
4, 108960, Note_on_c, 0, 51, 101
4, 108960, Note_on_c, 0, 55, 101
4, 108960, Note_on_c, 0, 61, 101
4, 109119, Note_on_c, 0, 61, 0
4, 109119, Note_on_c, 0, 55, 0
4, 109119, Note_on_c, 0, 51, 0
4, 109119, Note_on_c, 0, 60, 101
4, 109280, Note_on_c, 0, 60, 0
4, 109280, Note_on_c, 0, 58, 101
4, 109440, Note_on_c, 0, 50, 101
4, 109440, Note_on_c, 0, 55, 101
4, 109680, Note_on_c, 0, 55, 0
4, 109680, Note_on_c, 0, 50, 0
4, 109680, Note_on_c, 0, 58, 0
4, 109920, Note_on_c, 0, 50, 101
4, 109920, Note_on_c, 0, 54, 101
4, 109920, Note_on_c, 0, 57, 101
4, 109920, Note_on_c, 0, 60, 101
4, 110160, Note_on_c, 0, 60, 0
4, 110160, Note_on_c, 0, 50, 0
4, 110160, Note_on_c, 0, 54, 0
4, 110160, Note_on_c, 0, 57, 0
4, 110400, Note_on_c, 0, 43, 101
4, 110400, Note_on_c, 0, 50, 101
4, 110400, Note_on_c, 0, 58, 101
4, 110640, Note_on_c, 0, 58, 0
4, 110640, Note_on_c, 0, 50, 0
4, 110640, Note_on_c, 0, 43, 0
4, 110880, Note_on_c, 0, 51, 101
4, 110880, Note_on_c, 0, 55, 101
4, 110880, Note_on_c, 0, 61, 101
4, 111039, Note_on_c, 0, 61, 0
4, 111039, Note_on_c, 0, 55, 0
4, 111039, Note_on_c, 0, 51, 0
4, 111039, Note_on_c, 0, 60, 101
4, 111200, Note_on_c, 0, 60, 0
4, 111200, Note_on_c, 0, 58, 101
4, 111360, Note_on_c, 0, 50, 101
4, 111360, Note_on_c, 0, 55, 101
4, 111600, Note_on_c, 0, 55, 0
4, 111600, Note_on_c, 0, 50, 0
4, 111600, Note_on_c, 0, 58, 0
4, 111840, Note_on_c, 0, 50, 101
4, 111840, Note_on_c, 0, 54, 101
4, 111840, Note_on_c, 0, 57, 101
4, 111840, Note_on_c, 0, 60, 101
4, 112080, Note_on_c, 0, 60, 0
4, 112080, Note_on_c, 0, 50, 0
4, 112080, Note_on_c, 0, 54, 0
4, 112080, Note_on_c, 0, 57, 0
4, 112320, Note_on_c, 0, 43, 101
4, 112320, Note_on_c, 0, 50, 101
4, 112320, Note_on_c, 0, 58, 101
4, 112560, Note_on_c, 0, 58, 0
4, 112560, Note_on_c, 0, 50, 0
4, 112560, Note_on_c, 0, 43, 0
4, 112800, Note_on_c, 0, 56, 101
4, 112959, Note_on_c, 0, 56, 0
4, 112959, Note_on_c, 0, 55, 101
4, 113120, Note_on_c, 0, 55, 0
4, 113120, Note_on_c, 0, 53, 101
4, 113280, Note_on_c, 0, 53, 0
4, 113280, Note_on_c, 0, 53, 101
4, 113439, Note_on_c, 0, 53, 0
4, 113439, Note_on_c, 0, 55, 101
4, 113600, Note_on_c, 0, 55, 0
4, 113600, Note_on_c, 0, 57, 101
4, 113760, Note_on_c, 0, 57, 0
4, 113760, Note_on_c, 0, 59, 101
4, 113919, Note_on_c, 0, 59, 0
4, 113919, Note_on_c, 0, 60, 101
4, 114080, Note_on_c, 0, 60, 0
4, 114080, Note_on_c, 0, 62, 101
4, 114240, Note_on_c, 0, 62, 0
4, 114240, Note_on_c, 0, 65, 101
4, 114399, Note_on_c, 0, 65, 0
4, 114399, Note_on_c, 0, 63, 101
4, 114560, Note_on_c, 0, 63, 0
4, 114560, Note_on_c, 0, 62, 101
4, 114720, Note_on_c, 0, 62, 0
4, 114720, Note_on_c, 0, 60, 101
4, 114879, Note_on_c, 0, 60, 0
4, 114879, Note_on_c, 0, 58, 101
4, 115040, Note_on_c, 0, 58, 0
4, 115040, Note_on_c, 0, 57, 101
4, 115200, Note_on_c, 0, 57, 0
4, 115200, Note_on_c, 0, 62, 101
4, 115359, Note_on_c, 0, 62, 0
4, 115359, Note_on_c, 0, 61, 101
4, 115520, Note_on_c, 0, 61, 0
4, 115520, Note_on_c, 0, 62, 101
4, 115680, Note_on_c, 0, 62, 0
4, 115680, Note_on_c, 0, 63, 101
4, 115839, Note_on_c, 0, 63, 0
4, 115839, Note_on_c, 0, 64, 101
4, 116000, Note_on_c, 0, 64, 0
4, 116000, Note_on_c, 0, 66, 101
4, 116160, Note_on_c, 0, 66, 0
4, 116160, Note_on_c, 0, 55, 101
4, 116160, Note_on_c, 0, 58, 101
4, 116160, Note_on_c, 0, 62, 101
4, 116160, Note_on_c, 0, 67, 101
4, 116400, Note_on_c, 0, 67, 0
4, 116400, Note_on_c, 0, 55, 0
4, 116400, Note_on_c, 0, 58, 0
4, 116400, Note_on_c, 0, 62, 0
4, 116640, Note_on_c, 0, 61, 101
4, 116799, Note_on_c, 0, 61, 0
4, 116799, Note_on_c, 0, 60, 101
4, 116960, Note_on_c, 0, 60, 0
4, 116960, Note_on_c, 0, 58, 101
4, 117120, Note_on_c, 0, 50, 101
4, 117120, Note_on_c, 0, 55, 101
4, 117360, Note_on_c, 0, 55, 0
4, 117360, Note_on_c, 0, 50, 0
4, 117360, Note_on_c, 0, 58, 0
4, 117600, Note_on_c, 0, 50, 101
4, 117600, Note_on_c, 0, 54, 101
4, 117600, Note_on_c, 0, 57, 101
4, 117600, Note_on_c, 0, 60, 101
4, 117840, Note_on_c, 0, 60, 0
4, 117840, Note_on_c, 0, 50, 0
4, 117840, Note_on_c, 0, 54, 0
4, 117840, Note_on_c, 0, 57, 0
4, 118080, Note_on_c, 0, 43, 101
4, 118080, Note_on_c, 0, 50, 101
4, 118080, Note_on_c, 0, 58, 101
4, 118320, Note_on_c, 0, 58, 0
4, 118320, Note_on_c, 0, 50, 0
4, 118320, Note_on_c, 0, 43, 0
4, 118560, Note_on_c, 0, 61, 101
4, 118719, Note_on_c, 0, 61, 0
4, 118719, Note_on_c, 0, 60, 101
4, 118880, Note_on_c, 0, 60, 0
4, 118880, Note_on_c, 0, 58, 101
4, 119040, Note_on_c, 0, 50, 101
4, 119040, Note_on_c, 0, 55, 101
4, 119280, Note_on_c, 0, 55, 0
4, 119280, Note_on_c, 0, 50, 0
4, 119280, Note_on_c, 0, 58, 0
4, 119520, Note_on_c, 0, 50, 101
4, 119520, Note_on_c, 0, 54, 101
4, 119520, Note_on_c, 0, 57, 101
4, 119520, Note_on_c, 0, 60, 101
4, 119760, Note_on_c, 0, 60, 0
4, 119760, Note_on_c, 0, 50, 0
4, 119760, Note_on_c, 0, 54, 0
4, 119760, Note_on_c, 0, 57, 0
4, 120000, Note_on_c, 0, 43, 101
4, 120000, Note_on_c, 0, 50, 101
4, 120000, Note_on_c, 0, 58, 101
4, 120240, Note_on_c, 0, 58, 0
4, 120240, Note_on_c, 0, 50, 0
4, 120240, Note_on_c, 0, 43, 0
4, 120480, Note_on_c, 0, 56, 101
4, 120639, Note_on_c, 0, 56, 0
4, 120639, Note_on_c, 0, 55, 101
4, 120800, Note_on_c, 0, 55, 0
4, 120800, Note_on_c, 0, 53, 101
4, 121119, Note_on_c, 0, 53, 0
4, 121119, Note_on_c, 0, 55, 101
4, 121280, Note_on_c, 0, 55, 0
4, 121280, Note_on_c, 0, 57, 101
4, 121440, Note_on_c, 0, 57, 0
4, 121440, Note_on_c, 0, 59, 101
4, 121599, Note_on_c, 0, 59, 0
4, 121599, Note_on_c, 0, 60, 101
4, 121760, Note_on_c, 0, 60, 0
4, 121760, Note_on_c, 0, 62, 101
4, 121920, Note_on_c, 0, 62, 0
4, 121920, Note_on_c, 0, 65, 101
4, 122079, Note_on_c, 0, 65, 0
4, 122079, Note_on_c, 0, 63, 101
4, 122240, Note_on_c, 0, 63, 0
4, 122240, Note_on_c, 0, 62, 101
4, 122400, Note_on_c, 0, 62, 0
4, 122400, Note_on_c, 0, 60, 101
4, 122559, Note_on_c, 0, 60, 0
4, 122559, Note_on_c, 0, 58, 101
4, 122720, Note_on_c, 0, 58, 0
4, 122720, Note_on_c, 0, 57, 101
4, 122880, Note_on_c, 0, 57, 0
4, 122880, Note_on_c, 0, 62, 101
4, 123039, Note_on_c, 0, 62, 0
4, 123039, Note_on_c, 0, 61, 101
4, 123200, Note_on_c, 0, 61, 0
4, 123200, Note_on_c, 0, 62, 101
4, 123360, Note_on_c, 0, 62, 0
4, 123360, Note_on_c, 0, 63, 101
4, 123519, Note_on_c, 0, 63, 0
4, 123519, Note_on_c, 0, 64, 101
4, 123680, Note_on_c, 0, 64, 0
4, 123680, Note_on_c, 0, 66, 101
4, 123840, Note_on_c, 0, 66, 0
4, 123840, Note_on_c, 0, 55, 101
4, 123840, Note_on_c, 0, 58, 101
4, 123840, Note_on_c, 0, 62, 101
4, 123840, Note_on_c, 0, 67, 101
4, 124080, Note_on_c, 0, 67, 0
4, 124080, Note_on_c, 0, 55, 0
4, 124080, Note_on_c, 0, 58, 0
4, 124080, Note_on_c, 0, 62, 0
4, 124320, Note_on_c, 0, 51, 101
4, 124320, Note_on_c, 0, 58, 101
4, 124560, Note_on_c, 0, 58, 0
4, 124560, Note_on_c, 0, 51, 0
4, 124800, Note_on_c, 0, 55, 101
4, 124959, Note_on_c, 0, 55, 0
4, 124959, Note_on_c, 0, 57, 101
4, 125120, Note_on_c, 0, 57, 0
4, 125120, Note_on_c, 0, 58, 101
4, 125280, Note_on_c, 0, 58, 0
4, 125280, Note_on_c, 0, 57, 101
4, 125439, Note_on_c, 0, 57, 0
4, 125439, Note_on_c, 0, 55, 101
4, 125600, Note_on_c, 0, 55, 0
4, 125600, Note_on_c, 0, 54, 101
4, 125760, Note_on_c, 0, 54, 0
4, 125760, Note_on_c, 0, 55, 101
4, 125760, Note_on_c, 0, 58, 101
4, 125760, Note_on_c, 0, 62, 101
4, 126000, Note_on_c, 0, 62, 0
4, 126000, Note_on_c, 0, 58, 0
4, 126000, Note_on_c, 0, 55, 0
4, 126240, Note_on_c, 0, 51, 101
4, 126240, Note_on_c, 0, 58, 101
4, 126480, Note_on_c, 0, 58, 0
4, 126480, Note_on_c, 0, 51, 0
4, 126720, Note_on_c, 0, 55, 101
4, 126879, Note_on_c, 0, 55, 0
4, 126879, Note_on_c, 0, 57, 101
4, 127040, Note_on_c, 0, 57, 0
4, 127040, Note_on_c, 0, 58, 101
4, 127200, Note_on_c, 0, 58, 0
4, 127200, Note_on_c, 0, 57, 101
4, 127359, Note_on_c, 0, 57, 0
4, 127359, Note_on_c, 0, 55, 101
4, 127520, Note_on_c, 0, 55, 0
4, 127520, Note_on_c, 0, 54, 101
4, 127680, Note_on_c, 0, 54, 0
4, 127680, Note_on_c, 0, 55, 101
4, 127680, Note_on_c, 0, 58, 101
4, 127920, Note_on_c, 0, 58, 0
4, 127920, Note_on_c, 0, 55, 0
4, 127920, Note_on_c, 0, 50, 101
4, 127920, Note_on_c, 0, 57, 101
4, 127920, Note_on_c, 0, 60, 101
4, 128160, Note_on_c, 0, 60, 0
4, 128160, Note_on_c, 0, 57, 0
4, 128160, Note_on_c, 0, 50, 0
4, 128160, Note_on_c, 0, 55, 101
4, 128160, Note_on_c, 0, 58, 101
4, 128400, Note_on_c, 0, 58, 0
4, 128400, Note_on_c, 0, 55, 0
4, 128400, Note_on_c, 0, 50, 101
4, 128400, Note_on_c, 0, 57, 101
4, 128400, Note_on_c, 0, 60, 101
4, 128640, Note_on_c, 0, 60, 0
4, 128640, Note_on_c, 0, 57, 0
4, 128640, Note_on_c, 0, 50, 0
4, 128640, Note_on_c, 0, 55, 101
4, 128640, Note_on_c, 0, 58, 101
4, 128880, Note_on_c, 0, 58, 0
4, 128880, Note_on_c, 0, 55, 0
4, 128880, Note_on_c, 0, 50, 101
4, 128880, Note_on_c, 0, 57, 101
4, 128880, Note_on_c, 0, 60, 101
4, 129120, Note_on_c, 0, 60, 0
4, 129120, Note_on_c, 0, 57, 0
4, 129120, Note_on_c, 0, 50, 0
4, 129120, Note_on_c, 0, 55, 101
4, 129120, Note_on_c, 0, 58, 101
4, 129360, Note_on_c, 0, 58, 0
4, 129360, Note_on_c, 0, 55, 0
4, 129360, Note_on_c, 0, 50, 101
4, 129360, Note_on_c, 0, 57, 101
4, 129360, Note_on_c, 0, 60, 101
4, 129600, Note_on_c, 0, 60, 0
4, 129600, Note_on_c, 0, 57, 0
4, 129600, Note_on_c, 0, 50, 0
4, 129840, Note_on_c, 0, 51, 88
4, 129840, Note_on_c, 0, 55, 88
4, 129840, Note_on_c, 0, 58, 88
4, 130080, Note_on_c, 0, 58, 0
4, 130080, Note_on_c, 0, 55, 0
4, 130080, Note_on_c, 0, 51, 0
4, 130320, Note_on_c, 0, 50, 88
4, 130320, Note_on_c, 0, 55, 88
4, 130320, Note_on_c, 0, 58, 88
4, 130560, Note_on_c, 0, 58, 0
4, 130560, Note_on_c, 0, 55, 0
4, 130560, Note_on_c, 0, 50, 0
4, 130800, Note_on_c, 0, 49, 88
4, 130800, Note_on_c, 0, 55, 88
4, 130800, Note_on_c, 0, 58, 88
4, 131040, Note_on_c, 0, 58, 0
4, 131040, Note_on_c, 0, 55, 0
4, 131040, Note_on_c, 0, 49, 0
4, 131280, Note_on_c, 0, 48, 88
4, 131280, Note_on_c, 0, 55, 88
4, 131280, Note_on_c, 0, 60, 88
4, 131520, Note_on_c, 0, 60, 0
4, 131520, Note_on_c, 0, 55, 0
4, 131520, Note_on_c, 0, 48, 0
4, 131520, Note_on_c, 0, 49, 88
4, 131520, Note_on_c, 0, 55, 88
4, 131520, Note_on_c, 0, 58, 88
4, 131760, Note_on_c, 0, 58, 0
4, 131760, Note_on_c, 0, 55, 0
4, 131760, Note_on_c, 0, 49, 0
4, 131760, Note_on_c, 0, 48, 88
4, 131760, Note_on_c, 0, 55, 88
4, 131760, Note_on_c, 0, 60, 88
4, 132000, Note_on_c, 0, 60, 0
4, 132000, Note_on_c, 0, 55, 0
4, 132000, Note_on_c, 0, 48, 0
4, 132000, Note_on_c, 0, 49, 88
4, 132000, Note_on_c, 0, 55, 88
4, 132000, Note_on_c, 0, 58, 88
4, 132240, Note_on_c, 0, 58, 0
4, 132240, Note_on_c, 0, 55, 0
4, 132240, Note_on_c, 0, 49, 0
4, 132240, Note_on_c, 0, 48, 88
4, 132240, Note_on_c, 0, 55, 88
4, 132240, Note_on_c, 0, 60, 88
4, 132480, Note_on_c, 0, 60, 0
4, 132480, Note_on_c, 0, 55, 0
4, 132480, Note_on_c, 0, 48, 0
4, 132480, Note_on_c, 0, 49, 88
4, 132480, Note_on_c, 0, 55, 88
4, 132480, Note_on_c, 0, 58, 88
4, 132720, Note_on_c, 0, 58, 0
4, 132720, Note_on_c, 0, 55, 0
4, 132720, Note_on_c, 0, 49, 0
4, 132720, Note_on_c, 0, 48, 88
4, 132720, Note_on_c, 0, 55, 88
4, 132720, Note_on_c, 0, 60, 88
4, 132960, Note_on_c, 0, 60, 0
4, 132960, Note_on_c, 0, 55, 0
4, 132960, Note_on_c, 0, 48, 0
4, 132960, Note_on_c, 0, 49, 88
4, 132960, Note_on_c, 0, 55, 88
4, 132960, Note_on_c, 0, 58, 88
4, 133200, Note_on_c, 0, 58, 0
4, 133200, Note_on_c, 0, 55, 0
4, 133200, Note_on_c, 0, 49, 0
4, 134640, Note_on_c, 0, 54, 88
4, 134640, Note_on_c, 0, 58, 88
4, 134640, Note_on_c, 0, 61, 88
4, 134880, Note_on_c, 0, 61, 0
4, 134880, Note_on_c, 0, 58, 0
4, 134880, Note_on_c, 0, 54, 0
4, 135120, Note_on_c, 0, 53, 88
4, 135120, Note_on_c, 0, 58, 88
4, 135120, Note_on_c, 0, 61, 88
4, 135360, Note_on_c, 0, 61, 0
4, 135360, Note_on_c, 0, 58, 0
4, 135360, Note_on_c, 0, 53, 0
4, 135600, Note_on_c, 0, 52, 88
4, 135600, Note_on_c, 0, 58, 88
4, 135600, Note_on_c, 0, 61, 88
4, 135840, Note_on_c, 0, 61, 0
4, 135840, Note_on_c, 0, 58, 0
4, 135840, Note_on_c, 0, 52, 0
4, 136080, Note_on_c, 0, 51, 88
4, 136080, Note_on_c, 0, 58, 88
4, 136080, Note_on_c, 0, 63, 88
4, 136320, Note_on_c, 0, 63, 0
4, 136320, Note_on_c, 0, 58, 0
4, 136320, Note_on_c, 0, 51, 0
4, 136320, Note_on_c, 0, 52, 88
4, 136320, Note_on_c, 0, 58, 88
4, 136320, Note_on_c, 0, 61, 88
4, 136367, Note_on_c, 0, 61, 0
4, 136367, Note_on_c, 0, 58, 0
4, 136367, Note_on_c, 0, 52, 0
4, 136560, Note_on_c, 0, 51, 88
4, 136560, Note_on_c, 0, 58, 88
4, 136560, Note_on_c, 0, 63, 88
4, 136607, Note_on_c, 0, 63, 0
4, 136607, Note_on_c, 0, 58, 0
4, 136607, Note_on_c, 0, 51, 0
4, 136800, Note_on_c, 0, 52, 88
4, 136800, Note_on_c, 0, 58, 88
4, 136800, Note_on_c, 0, 61, 88
4, 136847, Note_on_c, 0, 61, 0
4, 136847, Note_on_c, 0, 58, 0
4, 136847, Note_on_c, 0, 52, 0
4, 137040, Note_on_c, 0, 51, 88
4, 137040, Note_on_c, 0, 58, 88
4, 137040, Note_on_c, 0, 63, 88
4, 137087, Note_on_c, 0, 63, 0
4, 137087, Note_on_c, 0, 58, 0
4, 137087, Note_on_c, 0, 51, 0
4, 137280, Note_on_c, 0, 52, 88
4, 137280, Note_on_c, 0, 58, 88
4, 137280, Note_on_c, 0, 61, 88
4, 137327, Note_on_c, 0, 61, 0
4, 137327, Note_on_c, 0, 58, 0
4, 137327, Note_on_c, 0, 52, 0
4, 137520, Note_on_c, 0, 51, 88
4, 137520, Note_on_c, 0, 58, 88
4, 137520, Note_on_c, 0, 63, 88
4, 137567, Note_on_c, 0, 63, 0
4, 137567, Note_on_c, 0, 58, 0
4, 137567, Note_on_c, 0, 51, 0
4, 137760, Note_on_c, 0, 52, 88
4, 137760, Note_on_c, 0, 58, 88
4, 137760, Note_on_c, 0, 61, 88
4, 137807, Note_on_c, 0, 61, 0
4, 137807, Note_on_c, 0, 58, 0
4, 137807, Note_on_c, 0, 52, 0
4, 139440, Note_on_c, 0, 61, 127
4, 139680, Note_on_c, 0, 61, 0
4, 139680, Note_on_c, 0, 55, 101
4, 139680, Note_on_c, 0, 61, 101
4, 139680, Note_on_c, 0, 63, 101
4, 140040, Note_on_c, 0, 63, 0
4, 140040, Note_on_c, 0, 61, 0
4, 140040, Note_on_c, 0, 55, 0
4, 140400, Note_on_c, 0, 52, 127
4, 140480, Note_on_c, 0, 52, 0
4, 140480, Note_on_c, 0, 53, 101
4, 140559, Note_on_c, 0, 53, 0
4, 140559, Note_on_c, 0, 55, 101
4, 140640, Note_on_c, 0, 55, 0
4, 140640, Note_on_c, 0, 46, 127
4, 140640, Note_on_c, 0, 56, 127
4, 141000, Note_on_c, 0, 56, 0
4, 141000, Note_on_c, 0, 46, 0
4, 141360, Note_on_c, 0, 61, 127
4, 141600, Note_on_c, 0, 61, 0
4, 141600, Note_on_c, 0, 55, 101
4, 141600, Note_on_c, 0, 61, 101
4, 141600, Note_on_c, 0, 63, 101
4, 141960, Note_on_c, 0, 63, 0
4, 141960, Note_on_c, 0, 61, 0
4, 141960, Note_on_c, 0, 55, 0
4, 142320, Note_on_c, 0, 52, 127
4, 142400, Note_on_c, 0, 52, 0
4, 142400, Note_on_c, 0, 53, 101
4, 142479, Note_on_c, 0, 53, 0
4, 142479, Note_on_c, 0, 55, 101
4, 142560, Note_on_c, 0, 55, 0
4, 142560, Note_on_c, 0, 46, 127
4, 142560, Note_on_c, 0, 56, 127
4, 142920, Note_on_c, 0, 56, 0
4, 142920, Note_on_c, 0, 46, 0
4, 143280, Note_on_c, 0, 52, 127
4, 143400, Note_on_c, 0, 52, 0
4, 143400, Note_on_c, 0, 53, 101
4, 143520, Note_on_c, 0, 53, 0
4, 143520, Note_on_c, 0, 46, 101
4, 143520, Note_on_c, 0, 49, 101
4, 143520, Note_on_c, 0, 55, 101
4, 143760, Note_on_c, 0, 55, 0
4, 143760, Note_on_c, 0, 49, 0
4, 143760, Note_on_c, 0, 46, 0
4, 144240, Note_on_c, 0, 52, 127
4, 144360, Note_on_c, 0, 52, 0
4, 144360, Note_on_c, 0, 53, 101
4, 144480, Note_on_c, 0, 53, 0
4, 144480, Note_on_c, 0, 46, 101
4, 144480, Note_on_c, 0, 49, 101
4, 144480, Note_on_c, 0, 55, 101
4, 144720, Note_on_c, 0, 55, 0
4, 144720, Note_on_c, 0, 49, 0
4, 144720, Note_on_c, 0, 46, 0
4, 145200, Note_on_c, 0, 52, 127
4, 145320, Note_on_c, 0, 52, 0
4, 145320, Note_on_c, 0, 53, 101
4, 145440, Note_on_c, 0, 53, 0
4, 145440, Note_on_c, 0, 46, 101
4, 145440, Note_on_c, 0, 49, 101
4, 145440, Note_on_c, 0, 55, 101
4, 145680, Note_on_c, 0, 55, 0
4, 145680, Note_on_c, 0, 49, 0
4, 145680, Note_on_c, 0, 46, 0
4, 145680, Note_on_c, 0, 52, 127
4, 145800, Note_on_c, 0, 52, 0
4, 145800, Note_on_c, 0, 53, 101
4, 145920, Note_on_c, 0, 53, 0
4, 145920, Note_on_c, 0, 46, 101
4, 145920, Note_on_c, 0, 49, 101
4, 145920, Note_on_c, 0, 55, 101
4, 146160, Note_on_c, 0, 55, 0
4, 146160, Note_on_c, 0, 49, 0
4, 146160, Note_on_c, 0, 46, 0
4, 146160, Note_on_c, 0, 44, 88
4, 146160, Note_on_c, 0, 48, 88
4, 146160, Note_on_c, 0, 52, 88
4, 146640, Note_on_c, 0, 52, 0
4, 146640, Note_on_c, 0, 48, 0
4, 146640, Note_on_c, 0, 44, 0
4, 146640, Note_on_c, 0, 44, 88
4, 146640, Note_on_c, 0, 48, 88
4, 146640, Note_on_c, 0, 53, 88
4, 147120, Note_on_c, 0, 53, 0
4, 147120, Note_on_c, 0, 48, 0
4, 147120, Note_on_c, 0, 44, 0
4, 147120, Note_on_c, 0, 57, 127
4, 147240, Note_on_c, 0, 57, 0
4, 147240, Note_on_c, 0, 58, 101
4, 147360, Note_on_c, 0, 58, 0
4, 147360, Note_on_c, 0, 51, 101
4, 147360, Note_on_c, 0, 54, 101
4, 147360, Note_on_c, 0, 60, 101
4, 147600, Note_on_c, 0, 60, 0
4, 147600, Note_on_c, 0, 54, 0
4, 147600, Note_on_c, 0, 51, 0
4, 147600, Note_on_c, 0, 57, 127
4, 147720, Note_on_c, 0, 57, 0
4, 147720, Note_on_c, 0, 58, 101
4, 147840, Note_on_c, 0, 58, 0
4, 147840, Note_on_c, 0, 51, 101
4, 147840, Note_on_c, 0, 54, 101
4, 147840, Note_on_c, 0, 60, 101
4, 148080, Note_on_c, 0, 60, 0
4, 148080, Note_on_c, 0, 54, 0
4, 148080, Note_on_c, 0, 51, 0
4, 148080, Note_on_c, 0, 49, 88
4, 148080, Note_on_c, 0, 53, 88
4, 148080, Note_on_c, 0, 57, 88
4, 148560, Note_on_c, 0, 57, 0
4, 148560, Note_on_c, 0, 53, 0
4, 148560, Note_on_c, 0, 49, 0
4, 148560, Note_on_c, 0, 49, 88
4, 148560, Note_on_c, 0, 53, 88
4, 148560, Note_on_c, 0, 58, 88
4, 149040, Note_on_c, 0, 58, 0
4, 149040, Note_on_c, 0, 53, 0
4, 149040, Note_on_c, 0, 49, 0
4, 149040, Note_on_c, 0, 48, 88
4, 149040, Note_on_c, 0, 54, 88
4, 149040, Note_on_c, 0, 58, 88
4, 149520, Note_on_c, 0, 58, 0
4, 149520, Note_on_c, 0, 54, 0
4, 149520, Note_on_c, 0, 48, 0
4, 149520, Note_on_c, 0, 49, 88
4, 149520, Note_on_c, 0, 53, 88
4, 149520, Note_on_c, 0, 58, 88
4, 150000, Note_on_c, 0, 58, 0
4, 150000, Note_on_c, 0, 53, 0
4, 150000, Note_on_c, 0, 49, 0
4, 150000, Note_on_c, 0, 60, 88
4, 150240, Note_on_c, 0, 60, 0
4, 150240, Note_on_c, 0, 61, 88
4, 150480, Note_on_c, 0, 61, 0
4, 150480, Note_on_c, 0, 62, 88
4, 150720, Note_on_c, 0, 62, 0
4, 150720, Note_on_c, 0, 63, 88
4, 150960, Note_on_c, 0, 63, 0
4, 150960, Note_on_c, 0, 48, 88
4, 150960, Note_on_c, 0, 54, 88
4, 150960, Note_on_c, 0, 58, 88
4, 151440, Note_on_c, 0, 58, 0
4, 151440, Note_on_c, 0, 54, 0
4, 151440, Note_on_c, 0, 48, 0
4, 151440, Note_on_c, 0, 49, 88
4, 151440, Note_on_c, 0, 53, 88
4, 151440, Note_on_c, 0, 58, 88
4, 151920, Note_on_c, 0, 58, 0
4, 151920, Note_on_c, 0, 53, 0
4, 151920, Note_on_c, 0, 49, 0
4, 151920, Note_on_c, 0, 60, 88
4, 152160, Note_on_c, 0, 60, 0
4, 152160, Note_on_c, 0, 61, 88
4, 152400, Note_on_c, 0, 61, 0
4, 152400, Note_on_c, 0, 62, 88
4, 152640, Note_on_c, 0, 62, 0
4, 152640, Note_on_c, 0, 63, 88
4, 152880, Note_on_c, 0, 63, 0
4, 152880, Note_on_c, 0, 54, 88
4, 152880, Note_on_c, 0, 58, 88
4, 152880, Note_on_c, 0, 61, 88
4, 153360, Note_on_c, 0, 61, 0
4, 153360, Note_on_c, 0, 58, 0
4, 153360, Note_on_c, 0, 54, 0
4, 153360, Note_on_c, 0, 54, 88
4, 153360, Note_on_c, 0, 58, 88
4, 153360, Note_on_c, 0, 61, 88
4, 153360, Note_on_c, 0, 63, 88
4, 153840, Note_on_c, 0, 63, 0
4, 153840, Note_on_c, 0, 54, 0
4, 153840, Note_on_c, 0, 58, 0
4, 153840, Note_on_c, 0, 61, 0
4, 153840, Note_on_c, 0, 54, 88
4, 153840, Note_on_c, 0, 58, 88
4, 153840, Note_on_c, 0, 61, 88
4, 153840, Note_on_c, 0, 64, 88
4, 154320, Note_on_c, 0, 64, 0
4, 154320, Note_on_c, 0, 54, 0
4, 154320, Note_on_c, 0, 58, 0
4, 154320, Note_on_c, 0, 61, 0
4, 154320, Note_on_c, 0, 53, 88
4, 154320, Note_on_c, 0, 58, 88
4, 154320, Note_on_c, 0, 61, 88
4, 154320, Note_on_c, 0, 65, 88
4, 154560, Note_on_c, 0, 65, 0
4, 154560, Note_on_c, 0, 53, 0
4, 154560, Note_on_c, 0, 58, 0
4, 154560, Note_on_c, 0, 61, 0
4, 154560, Note_on_c, 0, 52, 88
4, 154560, Note_on_c, 0, 58, 88
4, 154560, Note_on_c, 0, 61, 88
4, 154560, Note_on_c, 0, 66, 88
4, 154800, Note_on_c, 0, 66, 0
4, 154800, Note_on_c, 0, 52, 0
4, 154800, Note_on_c, 0, 58, 0
4, 154800, Note_on_c, 0, 61, 0
4, 154800, Note_on_c, 0, 54, 88
4, 154800, Note_on_c, 0, 58, 88
4, 154800, Note_on_c, 0, 61, 88
4, 155280, Note_on_c, 0, 61, 0
4, 155280, Note_on_c, 0, 58, 0
4, 155280, Note_on_c, 0, 54, 0
4, 155280, Note_on_c, 0, 54, 88
4, 155280, Note_on_c, 0, 58, 88
4, 155280, Note_on_c, 0, 61, 88
4, 155280, Note_on_c, 0, 63, 88
4, 155760, Note_on_c, 0, 63, 0
4, 155760, Note_on_c, 0, 54, 0
4, 155760, Note_on_c, 0, 58, 0
4, 155760, Note_on_c, 0, 61, 0
4, 155760, Note_on_c, 0, 54, 88
4, 155760, Note_on_c, 0, 58, 88
4, 155760, Note_on_c, 0, 61, 88
4, 155760, Note_on_c, 0, 64, 88
4, 156240, Note_on_c, 0, 64, 0
4, 156240, Note_on_c, 0, 54, 0
4, 156240, Note_on_c, 0, 58, 0
4, 156240, Note_on_c, 0, 61, 0
4, 156240, Note_on_c, 0, 53, 88
4, 156240, Note_on_c, 0, 58, 88
4, 156240, Note_on_c, 0, 61, 88
4, 156240, Note_on_c, 0, 65, 88
4, 156480, Note_on_c, 0, 65, 0
4, 156480, Note_on_c, 0, 53, 0
4, 156480, Note_on_c, 0, 58, 0
4, 156480, Note_on_c, 0, 61, 0
4, 156480, Note_on_c, 0, 52, 88
4, 156480, Note_on_c, 0, 58, 88
4, 156480, Note_on_c, 0, 61, 88
4, 156480, Note_on_c, 0, 66, 88
4, 156720, Note_on_c, 0, 66, 0
4, 156720, Note_on_c, 0, 52, 0
4, 156720, Note_on_c, 0, 58, 0
4, 156720, Note_on_c, 0, 61, 0
4, 156720, Note_on_c, 0, 51, 88
4, 156720, Note_on_c, 0, 58, 88
4, 156720, Note_on_c, 0, 61, 88
4, 156720, Note_on_c, 0, 67, 88
4, 156960, Note_on_c, 0, 67, 0
4, 156960, Note_on_c, 0, 51, 0
4, 156960, Note_on_c, 0, 58, 0
4, 156960, Note_on_c, 0, 61, 0
4, 156960, Note_on_c, 0, 52, 88
4, 156960, Note_on_c, 0, 58, 88
4, 156960, Note_on_c, 0, 61, 88
4, 156960, Note_on_c, 0, 66, 88
4, 157200, Note_on_c, 0, 66, 0
4, 157200, Note_on_c, 0, 52, 0
4, 157200, Note_on_c, 0, 58, 0
4, 157200, Note_on_c, 0, 61, 0
4, 157200, Note_on_c, 0, 51, 88
4, 157200, Note_on_c, 0, 58, 88
4, 157200, Note_on_c, 0, 61, 88
4, 157200, Note_on_c, 0, 67, 88
4, 157440, Note_on_c, 0, 67, 0
4, 157440, Note_on_c, 0, 51, 0
4, 157440, Note_on_c, 0, 58, 0
4, 157440, Note_on_c, 0, 61, 0
4, 157440, Note_on_c, 0, 52, 88
4, 157440, Note_on_c, 0, 58, 88
4, 157440, Note_on_c, 0, 61, 88
4, 157440, Note_on_c, 0, 66, 88
4, 157680, Note_on_c, 0, 66, 0
4, 157680, Note_on_c, 0, 52, 0
4, 157680, Note_on_c, 0, 58, 0
4, 157680, Note_on_c, 0, 61, 0
4, 157680, Note_on_c, 0, 51, 88
4, 157680, Note_on_c, 0, 58, 88
4, 157680, Note_on_c, 0, 61, 88
4, 157680, Note_on_c, 0, 67, 88
4, 157920, Note_on_c, 0, 67, 0
4, 157920, Note_on_c, 0, 51, 0
4, 157920, Note_on_c, 0, 58, 0
4, 157920, Note_on_c, 0, 61, 0
4, 157920, Note_on_c, 0, 52, 88
4, 157920, Note_on_c, 0, 58, 88
4, 157920, Note_on_c, 0, 61, 88
4, 157920, Note_on_c, 0, 66, 88
4, 158160, Note_on_c, 0, 66, 0
4, 158160, Note_on_c, 0, 52, 0
4, 158160, Note_on_c, 0, 58, 0
4, 158160, Note_on_c, 0, 61, 0
4, 158160, Note_on_c, 0, 51, 88
4, 158160, Note_on_c, 0, 58, 88
4, 158160, Note_on_c, 0, 61, 88
4, 158160, Note_on_c, 0, 67, 88
4, 158400, Note_on_c, 0, 67, 0
4, 158400, Note_on_c, 0, 51, 0
4, 158400, Note_on_c, 0, 58, 0
4, 158400, Note_on_c, 0, 61, 0
4, 158400, Note_on_c, 0, 52, 62
4, 158400, Note_on_c, 0, 58, 62
4, 158400, Note_on_c, 0, 61, 62
4, 158400, Note_on_c, 0, 66, 62
4, 158640, Note_on_c, 0, 66, 0
4, 158640, Note_on_c, 0, 52, 0
4, 158640, Note_on_c, 0, 58, 0
4, 158640, Note_on_c, 0, 61, 0
4, 158640, Note_on_c, 0, 51, 62
4, 158640, Note_on_c, 0, 54, 62
4, 158640, Note_on_c, 0, 63, 62
4, 158880, Note_on_c, 0, 63, 0
4, 158880, Note_on_c, 0, 54, 0
4, 158880, Note_on_c, 0, 51, 0
4, 158880, Note_on_c, 0, 49, 62
4, 158880, Note_on_c, 0, 54, 62
4, 158880, Note_on_c, 0, 61, 62
4, 159120, Note_on_c, 0, 61, 0
4, 159120, Note_on_c, 0, 54, 0
4, 159120, Note_on_c, 0, 49, 0
4, 159120, Note_on_c, 0, 47, 62
4, 159120, Note_on_c, 0, 54, 62
4, 159120, Note_on_c, 0, 59, 62
4, 159360, Note_on_c, 0, 59, 0
4, 159360, Note_on_c, 0, 54, 0
4, 159360, Note_on_c, 0, 47, 0
4, 159360, Note_on_c, 0, 46, 62
4, 159360, Note_on_c, 0, 54, 62
4, 159360, Note_on_c, 0, 61, 62
4, 159600, Note_on_c, 0, 61, 0
4, 159600, Note_on_c, 0, 54, 0
4, 159600, Note_on_c, 0, 46, 0
4, 159840, Note_on_c, 0, 47, 62
4, 159840, Note_on_c, 0, 59, 62
4, 160080, Note_on_c, 0, 59, 0
4, 160080, Note_on_c, 0, 47, 0
4, 160080, Note_on_c, 0, 49, 62
4, 160080, Note_on_c, 0, 61, 62
4, 160320, Note_on_c, 0, 61, 0
4, 160320, Note_on_c, 0, 49, 0
4, 160320, Note_on_c, 0, 51, 62
4, 160320, Note_on_c, 0, 54, 62
4, 160320, Note_on_c, 0, 63, 62
4, 160560, Note_on_c, 0, 63, 0
4, 160560, Note_on_c, 0, 54, 0
4, 160560, Note_on_c, 0, 51, 0
4, 160560, Note_on_c, 0, 51, 62
4, 160560, Note_on_c, 0, 54, 62
4, 160560, Note_on_c, 0, 63, 62
4, 160800, Note_on_c, 0, 63, 0
4, 160800, Note_on_c, 0, 54, 0
4, 160800, Note_on_c, 0, 51, 0
4, 160800, Note_on_c, 0, 49, 62
4, 160800, Note_on_c, 0, 54, 62
4, 160800, Note_on_c, 0, 61, 62
4, 161040, Note_on_c, 0, 61, 0
4, 161040, Note_on_c, 0, 54, 0
4, 161040, Note_on_c, 0, 49, 0
4, 161040, Note_on_c, 0, 47, 62
4, 161040, Note_on_c, 0, 54, 62
4, 161040, Note_on_c, 0, 59, 62
4, 161280, Note_on_c, 0, 59, 0
4, 161280, Note_on_c, 0, 54, 0
4, 161280, Note_on_c, 0, 47, 0
4, 161280, Note_on_c, 0, 46, 62
4, 161280, Note_on_c, 0, 54, 62
4, 161280, Note_on_c, 0, 61, 62
4, 161520, Note_on_c, 0, 61, 0
4, 161520, Note_on_c, 0, 54, 0
4, 161520, Note_on_c, 0, 46, 0
4, 161760, Note_on_c, 0, 47, 62
4, 161760, Note_on_c, 0, 59, 62
4, 162000, Note_on_c, 0, 59, 0
4, 162000, Note_on_c, 0, 47, 0
4, 162000, Note_on_c, 0, 49, 62
4, 162000, Note_on_c, 0, 61, 62
4, 162240, Note_on_c, 0, 61, 0
4, 162240, Note_on_c, 0, 49, 0
4, 162240, Note_on_c, 0, 51, 62
4, 162240, Note_on_c, 0, 54, 62
4, 162240, Note_on_c, 0, 63, 62
4, 162480, Note_on_c, 0, 63, 0
4, 162480, Note_on_c, 0, 54, 0
4, 162480, Note_on_c, 0, 51, 0
4, 162480, Note_on_c, 0, 59, 88
4, 162480, Note_on_c, 0, 61, 88
4, 162480, Note_on_c, 0, 71, 88
4, 162720, Note_on_c, 0, 71, 0
4, 162720, Note_on_c, 0, 61, 0
4, 162720, Note_on_c, 0, 59, 0
4, 162720, Note_on_c, 0, 58, 88
4, 162720, Note_on_c, 0, 61, 88
4, 162720, Note_on_c, 0, 63, 88
4, 162720, Note_on_c, 0, 70, 88
4, 162960, Note_on_c, 0, 70, 0
4, 162960, Note_on_c, 0, 58, 0
4, 162960, Note_on_c, 0, 61, 0
4, 162960, Note_on_c, 0, 63, 0
4, 162960, Note_on_c, 0, 56, 88
4, 162960, Note_on_c, 0, 61, 88
4, 162960, Note_on_c, 0, 65, 88
4, 162960, Note_on_c, 0, 68, 88
4, 163200, Note_on_c, 0, 68, 0
4, 163200, Note_on_c, 0, 56, 0
4, 163200, Note_on_c, 0, 61, 0
4, 163200, Note_on_c, 0, 65, 0
4, 163200, Note_on_c, 0, 54, 88
4, 163200, Note_on_c, 0, 61, 88
4, 163200, Note_on_c, 0, 66, 88
4, 163440, Note_on_c, 0, 66, 0
4, 163440, Note_on_c, 0, 61, 0
4, 163440, Note_on_c, 0, 54, 0
4, 163440, Note_on_c, 0, 56, 88
4, 163440, Note_on_c, 0, 58, 88
4, 163440, Note_on_c, 0, 68, 88
4, 163680, Note_on_c, 0, 68, 0
4, 163680, Note_on_c, 0, 58, 0
4, 163680, Note_on_c, 0, 56, 0
4, 163680, Note_on_c, 0, 54, 88
4, 163680, Note_on_c, 0, 60, 88
4, 163680, Note_on_c, 0, 66, 88
4, 163920, Note_on_c, 0, 66, 0
4, 163920, Note_on_c, 0, 60, 0
4, 163920, Note_on_c, 0, 54, 0
4, 163920, Note_on_c, 0, 53, 88
4, 163920, Note_on_c, 0, 58, 88
4, 163920, Note_on_c, 0, 62, 88
4, 163920, Note_on_c, 0, 65, 88
4, 164160, Note_on_c, 0, 65, 0
4, 164160, Note_on_c, 0, 53, 0
4, 164160, Note_on_c, 0, 58, 0
4, 164160, Note_on_c, 0, 62, 0
4, 164160, Note_on_c, 0, 51, 88
4, 164160, Note_on_c, 0, 58, 88
4, 164160, Note_on_c, 0, 63, 88
4, 164400, Note_on_c, 0, 63, 0
4, 164400, Note_on_c, 0, 58, 0
4, 164400, Note_on_c, 0, 51, 0
4, 164400, Note_on_c, 0, 59, 101
4, 164400, Note_on_c, 0, 70, 101
4, 164640, Note_on_c, 0, 70, 0
4, 164640, Note_on_c, 0, 59, 0
4, 164640, Note_on_c, 0, 69, 101
4, 164880, Note_on_c, 0, 69, 0
4, 164880, Note_on_c, 0, 59, 101
4, 164880, Note_on_c, 0, 70, 101
4, 165120, Note_on_c, 0, 70, 0
4, 165120, Note_on_c, 0, 59, 0
4, 165120, Note_on_c, 0, 69, 101
4, 165360, Note_on_c, 0, 69, 0
4, 165360, Note_on_c, 0, 59, 101
4, 165360, Note_on_c, 0, 70, 101
4, 165600, Note_on_c, 0, 70, 0
4, 165600, Note_on_c, 0, 59, 0
4, 165600, Note_on_c, 0, 59, 101
4, 165600, Note_on_c, 0, 69, 101
4, 165840, Note_on_c, 0, 69, 0
4, 165840, Note_on_c, 0, 59, 0
4, 165840, Note_on_c, 0, 58, 101
4, 165840, Note_on_c, 0, 65, 101
4, 165840, Note_on_c, 0, 68, 101
4, 166080, Note_on_c, 0, 68, 0
4, 166080, Note_on_c, 0, 65, 0
4, 166080, Note_on_c, 0, 58, 0
4, 166080, Control_c, 0, 64, 127
4, 166080, Note_on_c, 0, 39, 62
4, 166080, Note_on_c, 0, 46, 62
4, 166080, Note_on_c, 0, 54, 62
4, 166239, Note_on_c, 0, 54, 0
4, 166239, Note_on_c, 0, 46, 0
4, 166239, Note_on_c, 0, 39, 0
4, 166239, Note_on_c, 0, 54, 62
4, 166239, Note_on_c, 0, 58, 62
4, 166400, Note_on_c, 0, 58, 0
4, 166400, Note_on_c, 0, 54, 0
4, 166400, Note_on_c, 0, 54, 62
4, 166400, Note_on_c, 0, 58, 62
4, 166560, Note_on_c, 0, 58, 0
4, 166560, Note_on_c, 0, 54, 0
4, 166560, Note_on_c, 0, 54, 62
4, 166560, Note_on_c, 0, 58, 62
4, 166719, Note_on_c, 0, 58, 0
4, 166719, Note_on_c, 0, 54, 0
4, 166719, Note_on_c, 0, 54, 62
4, 166719, Note_on_c, 0, 58, 62
4, 166880, Note_on_c, 0, 58, 0
4, 166880, Note_on_c, 0, 54, 0
4, 166880, Control_c, 0, 64, 0
4, 166880, Note_on_c, 0, 54, 62
4, 166880, Note_on_c, 0, 58, 62
4, 167040, Note_on_c, 0, 58, 0
4, 167040, Note_on_c, 0, 54, 0
4, 167040, Control_c, 0, 64, 127
4, 167040, Note_on_c, 0, 38, 62
4, 167040, Note_on_c, 0, 50, 62
4, 167199, Note_on_c, 0, 50, 0
4, 167199, Note_on_c, 0, 38, 0
4, 167199, Note_on_c, 0, 54, 62
4, 167199, Note_on_c, 0, 58, 62
4, 167360, Note_on_c, 0, 58, 0
4, 167360, Note_on_c, 0, 54, 0
4, 167360, Note_on_c, 0, 54, 62
4, 167360, Note_on_c, 0, 58, 62
4, 167520, Note_on_c, 0, 58, 0
4, 167520, Note_on_c, 0, 54, 0
4, 167520, Note_on_c, 0, 54, 62
4, 167520, Note_on_c, 0, 58, 62
4, 167679, Note_on_c, 0, 58, 0
4, 167679, Note_on_c, 0, 54, 0
4, 167679, Note_on_c, 0, 54, 62
4, 167679, Note_on_c, 0, 58, 62
4, 167840, Note_on_c, 0, 58, 0
4, 167840, Note_on_c, 0, 54, 0
4, 167840, Control_c, 0, 64, 0
4, 167840, Note_on_c, 0, 54, 62
4, 167840, Note_on_c, 0, 58, 62
4, 168000, Note_on_c, 0, 58, 0
4, 168000, Note_on_c, 0, 54, 0
4, 168000, Control_c, 0, 64, 127
4, 168000, Note_on_c, 0, 37, 62
4, 168000, Note_on_c, 0, 49, 62
4, 168159, Note_on_c, 0, 49, 0
4, 168159, Note_on_c, 0, 37, 0
4, 168159, Note_on_c, 0, 54, 62
4, 168159, Note_on_c, 0, 58, 62
4, 168159, Note_on_c, 0, 61, 62
4, 168320, Note_on_c, 0, 61, 0
4, 168320, Note_on_c, 0, 58, 0
4, 168320, Note_on_c, 0, 54, 0
4, 168320, Note_on_c, 0, 54, 62
4, 168320, Note_on_c, 0, 58, 62
4, 168320, Note_on_c, 0, 61, 62
4, 168480, Note_on_c, 0, 61, 0
4, 168480, Note_on_c, 0, 58, 0
4, 168480, Note_on_c, 0, 54, 0
4, 168480, Note_on_c, 0, 54, 62
4, 168480, Note_on_c, 0, 58, 62
4, 168480, Note_on_c, 0, 61, 62
4, 168639, Note_on_c, 0, 61, 0
4, 168639, Note_on_c, 0, 58, 0
4, 168639, Note_on_c, 0, 54, 0
4, 168639, Note_on_c, 0, 54, 62
4, 168639, Note_on_c, 0, 58, 62
4, 168639, Note_on_c, 0, 61, 62
4, 168800, Note_on_c, 0, 61, 0
4, 168800, Note_on_c, 0, 58, 0
4, 168800, Note_on_c, 0, 54, 0
4, 168800, Control_c, 0, 64, 0
4, 168800, Note_on_c, 0, 54, 62
4, 168800, Note_on_c, 0, 58, 62
4, 168800, Note_on_c, 0, 61, 62
4, 168960, Note_on_c, 0, 61, 0
4, 168960, Note_on_c, 0, 58, 0
4, 168960, Note_on_c, 0, 54, 0
4, 168960, Control_c, 0, 64, 127
4, 168960, Note_on_c, 0, 49, 62
4, 169119, Note_on_c, 0, 49, 0
4, 169119, Note_on_c, 0, 53, 62
4, 169119, Note_on_c, 0, 59, 62
4, 169280, Note_on_c, 0, 59, 0
4, 169280, Note_on_c, 0, 53, 0
4, 169280, Note_on_c, 0, 53, 62
4, 169280, Note_on_c, 0, 59, 62
4, 169440, Note_on_c, 0, 59, 0
4, 169440, Note_on_c, 0, 53, 0
4, 169440, Note_on_c, 0, 53, 62
4, 169440, Note_on_c, 0, 59, 62
4, 169599, Note_on_c, 0, 59, 0
4, 169599, Note_on_c, 0, 53, 0
4, 169599, Note_on_c, 0, 53, 62
4, 169599, Note_on_c, 0, 59, 62
4, 169760, Note_on_c, 0, 59, 0
4, 169760, Note_on_c, 0, 53, 0
4, 169760, Control_c, 0, 64, 0
4, 169760, Note_on_c, 0, 53, 62
4, 169760, Note_on_c, 0, 59, 62
4, 169920, Note_on_c, 0, 59, 0
4, 169920, Note_on_c, 0, 53, 0
4, 169920, Note_on_c, 0, 49, 62
4, 170079, Note_on_c, 0, 49, 0
4, 170079, Note_on_c, 0, 54, 62
4, 170079, Note_on_c, 0, 58, 62
4, 170240, Note_on_c, 0, 58, 0
4, 170240, Note_on_c, 0, 54, 0
4, 170240, Note_on_c, 0, 54, 62
4, 170240, Note_on_c, 0, 58, 62
4, 170400, Note_on_c, 0, 58, 0
4, 170400, Note_on_c, 0, 54, 0
4, 170400, Note_on_c, 0, 49, 62
4, 170559, Note_on_c, 0, 49, 0
4, 170559, Note_on_c, 0, 51, 62
4, 170559, Note_on_c, 0, 54, 62
4, 170720, Note_on_c, 0, 54, 0
4, 170720, Note_on_c, 0, 51, 0
4, 170720, Note_on_c, 0, 51, 62
4, 170720, Note_on_c, 0, 54, 62
4, 170880, Note_on_c, 0, 54, 0
4, 170880, Note_on_c, 0, 51, 0
4, 170880, Control_c, 0, 64, 127
4, 170880, Note_on_c, 0, 49, 62
4, 171039, Note_on_c, 0, 49, 0
4, 171039, Note_on_c, 0, 53, 62
4, 171039, Note_on_c, 0, 59, 62
4, 171200, Note_on_c, 0, 59, 0
4, 171200, Note_on_c, 0, 53, 0
4, 171200, Note_on_c, 0, 53, 62
4, 171200, Note_on_c, 0, 59, 62
4, 171360, Note_on_c, 0, 59, 0
4, 171360, Note_on_c, 0, 53, 0
4, 171360, Note_on_c, 0, 53, 62
4, 171360, Note_on_c, 0, 59, 62
4, 171519, Note_on_c, 0, 59, 0
4, 171519, Note_on_c, 0, 53, 0
4, 171519, Note_on_c, 0, 53, 62
4, 171519, Note_on_c, 0, 59, 62
4, 171680, Note_on_c, 0, 59, 0
4, 171680, Note_on_c, 0, 53, 0
4, 171680, Control_c, 0, 64, 0
4, 171680, Note_on_c, 0, 53, 62
4, 171680, Note_on_c, 0, 59, 62
4, 171840, Note_on_c, 0, 59, 0
4, 171840, Note_on_c, 0, 53, 0
4, 171840, Control_c, 0, 64, 127
4, 171840, Note_on_c, 0, 37, 62
4, 171840, Note_on_c, 0, 49, 62
4, 171999, Note_on_c, 0, 49, 0
4, 171999, Note_on_c, 0, 37, 0
4, 171999, Note_on_c, 0, 54, 62
4, 171999, Note_on_c, 0, 58, 62
4, 171999, Note_on_c, 0, 61, 62
4, 172160, Note_on_c, 0, 61, 0
4, 172160, Note_on_c, 0, 58, 0
4, 172160, Note_on_c, 0, 54, 0
4, 172160, Note_on_c, 0, 54, 62
4, 172160, Note_on_c, 0, 58, 62
4, 172160, Note_on_c, 0, 61, 62
4, 172320, Note_on_c, 0, 61, 0
4, 172320, Note_on_c, 0, 58, 0
4, 172320, Note_on_c, 0, 54, 0
4, 172320, Note_on_c, 0, 54, 62
4, 172320, Note_on_c, 0, 58, 62
4, 172320, Note_on_c, 0, 61, 62
4, 172479, Note_on_c, 0, 61, 0
4, 172479, Note_on_c, 0, 58, 0
4, 172479, Note_on_c, 0, 54, 0
4, 172479, Note_on_c, 0, 54, 62
4, 172479, Note_on_c, 0, 58, 62
4, 172479, Note_on_c, 0, 61, 62
4, 172640, Note_on_c, 0, 61, 0
4, 172640, Note_on_c, 0, 58, 0
4, 172640, Note_on_c, 0, 54, 0
4, 172640, Control_c, 0, 64, 0
4, 172640, Note_on_c, 0, 54, 62
4, 172640, Note_on_c, 0, 58, 62
4, 172640, Note_on_c, 0, 61, 62
4, 172800, Note_on_c, 0, 61, 0
4, 172800, Note_on_c, 0, 58, 0
4, 172800, Note_on_c, 0, 54, 0
4, 172800, Control_c, 0, 64, 127
4, 172800, Note_on_c, 0, 47, 62
4, 172959, Note_on_c, 0, 47, 0
4, 172959, Note_on_c, 0, 49, 62
4, 172959, Note_on_c, 0, 53, 62
4, 172959, Note_on_c, 0, 56, 62
4, 173120, Note_on_c, 0, 56, 0
4, 173120, Note_on_c, 0, 53, 0
4, 173120, Note_on_c, 0, 49, 0
4, 173120, Note_on_c, 0, 49, 62
4, 173120, Note_on_c, 0, 53, 62
4, 173120, Note_on_c, 0, 56, 62
4, 173280, Note_on_c, 0, 56, 0
4, 173280, Note_on_c, 0, 53, 0
4, 173280, Note_on_c, 0, 49, 0
4, 173280, Control_c, 0, 64, 127
4, 173280, Note_on_c, 0, 47, 62
4, 173439, Note_on_c, 0, 47, 0
4, 173439, Note_on_c, 0, 49, 62
4, 173439, Note_on_c, 0, 53, 62
4, 173439, Note_on_c, 0, 56, 62
4, 173600, Note_on_c, 0, 56, 0
4, 173600, Note_on_c, 0, 53, 0
4, 173600, Note_on_c, 0, 49, 0
4, 173600, Control_c, 0, 64, 0
4, 173600, Note_on_c, 0, 49, 62
4, 173600, Note_on_c, 0, 53, 62
4, 173600, Note_on_c, 0, 56, 62
4, 173760, Note_on_c, 0, 56, 0
4, 173760, Note_on_c, 0, 53, 0
4, 173760, Note_on_c, 0, 49, 0
4, 173760, Control_c, 0, 64, 127
4, 173760, Note_on_c, 0, 45, 75
4, 173919, Note_on_c, 0, 45, 0
4, 173919, Note_on_c, 0, 49, 75
4, 173919, Note_on_c, 0, 55, 75
4, 174080, Note_on_c, 0, 55, 0
4, 174080, Note_on_c, 0, 49, 0
4, 174080, Note_on_c, 0, 49, 75
4, 174080, Note_on_c, 0, 55, 75
4, 174240, Note_on_c, 0, 55, 0
4, 174240, Note_on_c, 0, 49, 0
4, 174240, Note_on_c, 0, 49, 75
4, 174240, Note_on_c, 0, 55, 75
4, 174399, Note_on_c, 0, 55, 0
4, 174399, Note_on_c, 0, 49, 0
4, 174399, Note_on_c, 0, 49, 75
4, 174399, Note_on_c, 0, 55, 75
4, 174560, Note_on_c, 0, 55, 0
4, 174560, Note_on_c, 0, 49, 0
4, 174560, Control_c, 0, 64, 0
4, 174560, Note_on_c, 0, 49, 75
4, 174560, Note_on_c, 0, 55, 75
4, 174720, Note_on_c, 0, 55, 0
4, 174720, Note_on_c, 0, 49, 0
4, 174720, Control_c, 0, 64, 127
4, 174720, Note_on_c, 0, 44, 75
4, 174879, Note_on_c, 0, 44, 0
4, 174879, Note_on_c, 0, 49, 75
4, 174879, Note_on_c, 0, 53, 75
4, 174879, Note_on_c, 0, 56, 75
4, 175040, Note_on_c, 0, 56, 0
4, 175040, Note_on_c, 0, 53, 0
4, 175040, Note_on_c, 0, 49, 0
4, 175040, Note_on_c, 0, 49, 75
4, 175040, Note_on_c, 0, 53, 75
4, 175040, Note_on_c, 0, 56, 75
4, 175200, Note_on_c, 0, 56, 0
4, 175200, Note_on_c, 0, 53, 0
4, 175200, Note_on_c, 0, 49, 0
4, 175200, Note_on_c, 0, 49, 75
4, 175200, Note_on_c, 0, 53, 75
4, 175200, Note_on_c, 0, 56, 75
4, 175359, Note_on_c, 0, 56, 0
4, 175359, Note_on_c, 0, 53, 0
4, 175359, Note_on_c, 0, 49, 0
4, 175359, Note_on_c, 0, 49, 75
4, 175359, Note_on_c, 0, 53, 75
4, 175359, Note_on_c, 0, 56, 75
4, 175520, Note_on_c, 0, 56, 0
4, 175520, Note_on_c, 0, 53, 0
4, 175520, Note_on_c, 0, 49, 0
4, 175520, Control_c, 0, 64, 0
4, 175520, Note_on_c, 0, 49, 75
4, 175520, Note_on_c, 0, 53, 75
4, 175520, Note_on_c, 0, 56, 75
4, 175680, Note_on_c, 0, 56, 0
4, 175680, Note_on_c, 0, 53, 0
4, 175680, Note_on_c, 0, 49, 0
4, 175680, Note_on_c, 0, 42, 75
4, 175839, Note_on_c, 0, 42, 0
4, 175839, Note_on_c, 0, 48, 75
4, 175839, Note_on_c, 0, 51, 75
4, 175839, Note_on_c, 0, 54, 75
4, 176000, Note_on_c, 0, 54, 0
4, 176000, Note_on_c, 0, 51, 0
4, 176000, Note_on_c, 0, 48, 0
4, 176000, Note_on_c, 0, 48, 75
4, 176000, Note_on_c, 0, 51, 75
4, 176000, Note_on_c, 0, 54, 75
4, 176160, Note_on_c, 0, 54, 0
4, 176160, Note_on_c, 0, 51, 0
4, 176160, Note_on_c, 0, 48, 0
4, 176160, Note_on_c, 0, 41, 75
4, 176319, Note_on_c, 0, 41, 0
4, 176319, Note_on_c, 0, 48, 75
4, 176319, Note_on_c, 0, 57, 75
4, 176480, Note_on_c, 0, 57, 0
4, 176480, Note_on_c, 0, 48, 0
4, 176480, Note_on_c, 0, 48, 75
4, 176480, Note_on_c, 0, 57, 75
4, 176640, Note_on_c, 0, 57, 0
4, 176640, Note_on_c, 0, 48, 0
4, 176640, Note_on_c, 0, 39, 75
4, 176640, Note_on_c, 0, 51, 75
4, 176799, Note_on_c, 0, 51, 0
4, 176799, Note_on_c, 0, 39, 0
4, 176799, Note_on_c, 0, 54, 75
4, 176799, Note_on_c, 0, 58, 75
4, 176960, Note_on_c, 0, 58, 0
4, 176960, Note_on_c, 0, 54, 0
4, 176960, Note_on_c, 0, 54, 75
4, 176960, Note_on_c, 0, 58, 75
4, 177120, Note_on_c, 0, 58, 0
4, 177120, Note_on_c, 0, 54, 0
4, 177120, Note_on_c, 0, 38, 75
4, 177120, Note_on_c, 0, 50, 75
4, 177279, Note_on_c, 0, 50, 0
4, 177279, Note_on_c, 0, 38, 0
4, 177279, Note_on_c, 0, 54, 75
4, 177279, Note_on_c, 0, 60, 75
4, 177440, Note_on_c, 0, 60, 0
4, 177440, Note_on_c, 0, 54, 0
4, 177440, Note_on_c, 0, 54, 75
4, 177440, Note_on_c, 0, 60, 75
4, 177600, Note_on_c, 0, 60, 0
4, 177600, Note_on_c, 0, 54, 0
4, 177600, Note_on_c, 0, 37, 114
4, 177600, Note_on_c, 0, 49, 114
4, 177759, Note_on_c, 0, 49, 0
4, 177759, Note_on_c, 0, 37, 0
4, 177759, Note_on_c, 0, 54, 88
4, 177759, Note_on_c, 0, 58, 88
4, 177920, Note_on_c, 0, 58, 0
4, 177920, Note_on_c, 0, 54, 0
4, 177920, Note_on_c, 0, 54, 88
4, 177920, Note_on_c, 0, 58, 88
4, 178080, Note_on_c, 0, 58, 0
4, 178080, Note_on_c, 0, 54, 0
4, 178080, Note_on_c, 0, 49, 88
4, 178239, Note_on_c, 0, 49, 0
4, 178239, Note_on_c, 0, 54, 88
4, 178239, Note_on_c, 0, 58, 88
4, 178239, Note_on_c, 0, 61, 88
4, 178400, Note_on_c, 0, 61, 0
4, 178400, Note_on_c, 0, 58, 0
4, 178400, Note_on_c, 0, 54, 0
4, 178400, Note_on_c, 0, 54, 88
4, 178400, Note_on_c, 0, 58, 88
4, 178400, Note_on_c, 0, 61, 88
4, 178560, Note_on_c, 0, 61, 0
4, 178560, Note_on_c, 0, 58, 0
4, 178560, Note_on_c, 0, 54, 0
4, 178560, Note_on_c, 0, 37, 88
4, 178560, Note_on_c, 0, 49, 88
4, 178719, Note_on_c, 0, 49, 0
4, 178719, Note_on_c, 0, 37, 0
4, 178719, Note_on_c, 0, 53, 88
4, 178719, Note_on_c, 0, 59, 88
4, 178880, Note_on_c, 0, 59, 0
4, 178880, Note_on_c, 0, 53, 0
4, 178880, Note_on_c, 0, 53, 88
4, 178880, Note_on_c, 0, 59, 88
4, 179040, Note_on_c, 0, 59, 0
4, 179040, Note_on_c, 0, 53, 0
4, 179040, Note_on_c, 0, 49, 88
4, 179199, Note_on_c, 0, 49, 0
4, 179199, Note_on_c, 0, 53, 88
4, 179199, Note_on_c, 0, 56, 88
4, 179199, Note_on_c, 0, 61, 88
4, 179360, Note_on_c, 0, 61, 0
4, 179360, Note_on_c, 0, 56, 0
4, 179360, Note_on_c, 0, 53, 0
4, 179360, Note_on_c, 0, 53, 88
4, 179360, Note_on_c, 0, 56, 88
4, 179360, Note_on_c, 0, 61, 88
4, 179520, Note_on_c, 0, 61, 0
4, 179520, Note_on_c, 0, 56, 0
4, 179520, Note_on_c, 0, 53, 0
4, 179520, Note_on_c, 0, 37, 88
4, 179520, Note_on_c, 0, 49, 88
4, 179679, Note_on_c, 0, 49, 0
4, 179679, Note_on_c, 0, 37, 0
4, 179679, Note_on_c, 0, 54, 88
4, 179679, Note_on_c, 0, 58, 88
4, 179840, Note_on_c, 0, 58, 0
4, 179840, Note_on_c, 0, 54, 0
4, 179840, Note_on_c, 0, 54, 88
4, 179840, Note_on_c, 0, 58, 88
4, 180000, Note_on_c, 0, 58, 0
4, 180000, Note_on_c, 0, 54, 0
4, 180000, Note_on_c, 0, 49, 88
4, 180159, Note_on_c, 0, 49, 0
4, 180159, Note_on_c, 0, 51, 88
4, 180159, Note_on_c, 0, 54, 88
4, 180159, Note_on_c, 0, 61, 88
4, 180320, Note_on_c, 0, 61, 0
4, 180320, Note_on_c, 0, 54, 0
4, 180320, Note_on_c, 0, 51, 0
4, 180320, Note_on_c, 0, 51, 88
4, 180320, Note_on_c, 0, 54, 88
4, 180320, Note_on_c, 0, 61, 88
4, 180480, Note_on_c, 0, 61, 0
4, 180480, Note_on_c, 0, 54, 0
4, 180480, Note_on_c, 0, 51, 0
4, 180720, Note_on_c, 0, 61, 88
4, 180960, Note_on_c, 0, 61, 0
4, 180960, Note_on_c, 0, 63, 88
4, 181320, Note_on_c, 0, 63, 0
4, 181320, Note_on_c, 0, 61, 88
4, 181440, Note_on_c, 0, 61, 0
4, 181440, Note_on_c, 0, 37, 114
4, 181440, Note_on_c, 0, 49, 114
4, 181599, Note_on_c, 0, 49, 0
4, 181599, Note_on_c, 0, 37, 0
4, 181599, Note_on_c, 0, 54, 88
4, 181599, Note_on_c, 0, 58, 88
4, 181760, Note_on_c, 0, 58, 0
4, 181760, Note_on_c, 0, 54, 0
4, 181760, Note_on_c, 0, 54, 88
4, 181760, Note_on_c, 0, 58, 88
4, 181920, Note_on_c, 0, 58, 0
4, 181920, Note_on_c, 0, 54, 0
4, 181920, Note_on_c, 0, 49, 88
4, 182079, Note_on_c, 0, 49, 0
4, 182079, Note_on_c, 0, 54, 88
4, 182079, Note_on_c, 0, 58, 88
4, 182079, Note_on_c, 0, 61, 88
4, 182240, Note_on_c, 0, 61, 0
4, 182240, Note_on_c, 0, 58, 0
4, 182240, Note_on_c, 0, 54, 0
4, 182240, Note_on_c, 0, 54, 88
4, 182240, Note_on_c, 0, 58, 88
4, 182240, Note_on_c, 0, 61, 88
4, 182400, Note_on_c, 0, 61, 0
4, 182400, Note_on_c, 0, 58, 0
4, 182400, Note_on_c, 0, 54, 0
4, 182400, Note_on_c, 0, 37, 75
4, 182400, Note_on_c, 0, 49, 75
4, 182559, Note_on_c, 0, 49, 0
4, 182559, Note_on_c, 0, 37, 0
4, 182559, Note_on_c, 0, 53, 75
4, 182559, Note_on_c, 0, 59, 75
4, 182720, Note_on_c, 0, 59, 0
4, 182720, Note_on_c, 0, 53, 0
4, 182720, Note_on_c, 0, 53, 75
4, 182720, Note_on_c, 0, 59, 75
4, 182880, Note_on_c, 0, 59, 0
4, 182880, Note_on_c, 0, 53, 0
4, 182880, Note_on_c, 0, 49, 75
4, 183039, Note_on_c, 0, 49, 0
4, 183039, Note_on_c, 0, 53, 75
4, 183039, Note_on_c, 0, 56, 75
4, 183039, Note_on_c, 0, 61, 75
4, 183200, Note_on_c, 0, 61, 0
4, 183200, Note_on_c, 0, 56, 0
4, 183200, Note_on_c, 0, 53, 0
4, 183200, Note_on_c, 0, 53, 75
4, 183200, Note_on_c, 0, 56, 75
4, 183200, Note_on_c, 0, 61, 75
4, 183360, Note_on_c, 0, 61, 0
4, 183360, Note_on_c, 0, 56, 0
4, 183360, Note_on_c, 0, 53, 0
4, 183360, Note_on_c, 0, 37, 62
4, 183360, Note_on_c, 0, 49, 62
4, 183519, Note_on_c, 0, 49, 0
4, 183519, Note_on_c, 0, 37, 0
4, 183519, Note_on_c, 0, 54, 62
4, 183519, Note_on_c, 0, 58, 62
4, 183680, Note_on_c, 0, 58, 0
4, 183680, Note_on_c, 0, 54, 0
4, 183680, Note_on_c, 0, 54, 62
4, 183680, Note_on_c, 0, 58, 62
4, 183840, Note_on_c, 0, 58, 0
4, 183840, Note_on_c, 0, 54, 0
4, 183840, Note_on_c, 0, 49, 62
4, 183999, Note_on_c, 0, 49, 0
4, 183999, Note_on_c, 0, 54, 62
4, 183999, Note_on_c, 0, 58, 62
4, 183999, Note_on_c, 0, 61, 62
4, 184160, Note_on_c, 0, 61, 0
4, 184160, Note_on_c, 0, 58, 0
4, 184160, Note_on_c, 0, 54, 0
4, 184160, Note_on_c, 0, 54, 62
4, 184160, Note_on_c, 0, 58, 62
4, 184160, Note_on_c, 0, 61, 62
4, 184320, Note_on_c, 0, 61, 0
4, 184320, Note_on_c, 0, 58, 0
4, 184320, Note_on_c, 0, 54, 0
4, 184320, Note_on_c, 0, 37, 62
4, 184320, Note_on_c, 0, 49, 62
4, 184479, Note_on_c, 0, 49, 0
4, 184479, Note_on_c, 0, 37, 0
4, 184479, Note_on_c, 0, 53, 62
4, 184479, Note_on_c, 0, 59, 62
4, 184640, Note_on_c, 0, 59, 0
4, 184640, Note_on_c, 0, 53, 0
4, 184640, Note_on_c, 0, 53, 62
4, 184640, Note_on_c, 0, 59, 62
4, 184800, Note_on_c, 0, 59, 0
4, 184800, Note_on_c, 0, 53, 0
4, 184800, Note_on_c, 0, 49, 62
4, 184959, Note_on_c, 0, 49, 0
4, 184959, Note_on_c, 0, 53, 62
4, 184959, Note_on_c, 0, 59, 62
4, 185120, Note_on_c, 0, 59, 0
4, 185120, Note_on_c, 0, 53, 0
4, 185120, Note_on_c, 0, 53, 62
4, 185120, Note_on_c, 0, 59, 62
4, 185280, Note_on_c, 0, 59, 0
4, 185280, Note_on_c, 0, 53, 0
4, 185280, Control_c, 0, 64, 127
4, 185280, Note_on_c, 0, 49, 49
4, 185280, Note_on_c, 0, 54, 49
4, 185280, Note_on_c, 0, 58, 49
4, 185439, Note_on_c, 0, 58, 0
4, 185439, Note_on_c, 0, 54, 0
4, 185439, Note_on_c, 0, 49, 0
4, 185439, Note_on_c, 0, 49, 49
4, 185439, Note_on_c, 0, 54, 49
4, 185600, Note_on_c, 0, 54, 0
4, 185600, Note_on_c, 0, 49, 0
4, 185600, Note_on_c, 0, 49, 49
4, 185600, Note_on_c, 0, 54, 49
4, 185760, Note_on_c, 0, 54, 0
4, 185760, Note_on_c, 0, 49, 0
4, 185760, Note_on_c, 0, 49, 49
4, 185760, Note_on_c, 0, 54, 49
4, 185760, Note_on_c, 0, 58, 49
4, 185919, Note_on_c, 0, 58, 0
4, 185919, Note_on_c, 0, 54, 0
4, 185919, Note_on_c, 0, 49, 0
4, 185919, Note_on_c, 0, 49, 49
4, 185919, Note_on_c, 0, 54, 49
4, 185919, Note_on_c, 0, 58, 49
4, 186080, Note_on_c, 0, 58, 0
4, 186080, Note_on_c, 0, 54, 0
4, 186080, Note_on_c, 0, 49, 0
4, 186080, Control_c, 0, 64, 0
4, 186080, Note_on_c, 0, 49, 49
4, 186080, Note_on_c, 0, 54, 49
4, 186080, Note_on_c, 0, 58, 49
4, 186240, Note_on_c, 0, 58, 0
4, 186240, Note_on_c, 0, 54, 0
4, 186240, Note_on_c, 0, 49, 0
4, 186240, Control_c, 0, 64, 127
4, 186240, Note_on_c, 0, 47, 49
4, 186240, Note_on_c, 0, 49, 49
4, 186240, Note_on_c, 0, 53, 49
4, 186240, Note_on_c, 0, 56, 49
4, 186399, Note_on_c, 0, 56, 0
4, 186399, Note_on_c, 0, 47, 0
4, 186399, Note_on_c, 0, 49, 0
4, 186399, Note_on_c, 0, 53, 0
4, 186399, Note_on_c, 0, 47, 49
4, 186399, Note_on_c, 0, 49, 49
4, 186399, Note_on_c, 0, 53, 49
4, 186560, Note_on_c, 0, 53, 0
4, 186560, Note_on_c, 0, 49, 0
4, 186560, Note_on_c, 0, 47, 0
4, 186560, Note_on_c, 0, 47, 49
4, 186560, Note_on_c, 0, 49, 49
4, 186560, Note_on_c, 0, 53, 49
4, 186720, Note_on_c, 0, 53, 0
4, 186720, Note_on_c, 0, 49, 0
4, 186720, Note_on_c, 0, 47, 0
4, 186720, Note_on_c, 0, 47, 49
4, 186720, Note_on_c, 0, 49, 49
4, 186720, Note_on_c, 0, 53, 49
4, 186720, Note_on_c, 0, 56, 49
4, 186879, Note_on_c, 0, 56, 0
4, 186879, Note_on_c, 0, 47, 0
4, 186879, Note_on_c, 0, 49, 0
4, 186879, Note_on_c, 0, 53, 0
4, 186879, Note_on_c, 0, 47, 49
4, 186879, Note_on_c, 0, 49, 49
4, 186879, Note_on_c, 0, 53, 49
4, 186879, Note_on_c, 0, 56, 49
4, 187040, Note_on_c, 0, 56, 0
4, 187040, Note_on_c, 0, 47, 0
4, 187040, Note_on_c, 0, 49, 0
4, 187040, Note_on_c, 0, 53, 0
4, 187040, Control_c, 0, 64, 0
4, 187040, Note_on_c, 0, 47, 49
4, 187040, Note_on_c, 0, 49, 49
4, 187040, Note_on_c, 0, 53, 49
4, 187040, Note_on_c, 0, 56, 49
4, 187200, Note_on_c, 0, 56, 0
4, 187200, Note_on_c, 0, 47, 0
4, 187200, Note_on_c, 0, 49, 0
4, 187200, Note_on_c, 0, 53, 0
4, 187200, Note_on_c, 0, 55, 127
4, 187680, Note_on_c, 0, 55, 0
4, 187680, Note_on_c, 0, 56, 127
4, 188160, Note_on_c, 0, 56, 0
4, 188160, Note_on_c, 0, 57, 127
4, 188280, Note_on_c, 0, 57, 0
4, 188280, Note_on_c, 0, 58, 101
4, 188400, Note_on_c, 0, 58, 0
4, 188400, Note_on_c, 0, 59, 101
4, 188520, Note_on_c, 0, 59, 0
4, 188520, Note_on_c, 0, 58, 101
4, 188640, Note_on_c, 0, 58, 0
4, 188640, Note_on_c, 0, 58, 101
4, 188880, Note_on_c, 0, 58, 0
4, 188880, Note_on_c, 0, 59, 101
4, 188880, Note_on_c, 0, 61, 101
4, 188880, Note_on_c, 0, 64, 101
4, 189120, Note_on_c, 0, 64, 0
4, 189120, Note_on_c, 0, 61, 0
4, 189120, Note_on_c, 0, 59, 0
4, 189120, Note_on_c, 0, 58, 101
4, 189120, Note_on_c, 0, 61, 101
4, 189167, Note_on_c, 0, 61, 0
4, 189167, Note_on_c, 0, 58, 0
4, 189360, Note_on_c, 0, 59, 101
4, 189360, Note_on_c, 0, 61, 101
4, 189360, Note_on_c, 0, 64, 101
4, 189407, Note_on_c, 0, 64, 0
4, 189407, Note_on_c, 0, 61, 0
4, 189407, Note_on_c, 0, 59, 0
4, 189600, Note_on_c, 0, 58, 101
4, 189600, Note_on_c, 0, 61, 101
4, 189647, Note_on_c, 0, 61, 0
4, 189647, Note_on_c, 0, 58, 0
4, 189840, Note_on_c, 0, 59, 101
4, 189840, Note_on_c, 0, 61, 101
4, 189840, Note_on_c, 0, 64, 101
4, 189887, Note_on_c, 0, 64, 0
4, 189887, Note_on_c, 0, 61, 0
4, 189887, Note_on_c, 0, 59, 0
4, 190080, Note_on_c, 0, 58, 101
4, 190080, Note_on_c, 0, 61, 101
4, 190127, Note_on_c, 0, 61, 0
4, 190127, Note_on_c, 0, 58, 0
4, 190320, Note_on_c, 0, 59, 101
4, 190320, Note_on_c, 0, 61, 101
4, 190320, Note_on_c, 0, 64, 101
4, 190367, Note_on_c, 0, 64, 0
4, 190367, Note_on_c, 0, 61, 0
4, 190367, Note_on_c, 0, 59, 0
4, 190560, Note_on_c, 0, 58, 101
4, 190560, Note_on_c, 0, 61, 101
4, 190607, Note_on_c, 0, 61, 0
4, 190607, Note_on_c, 0, 58, 0
4, 190800, Note_on_c, 0, 43, 101
4, 190800, Note_on_c, 0, 49, 101
4, 190800, Note_on_c, 0, 52, 101
4, 190920, Note_on_c, 0, 52, 0
4, 190920, Note_on_c, 0, 49, 0
4, 190920, Note_on_c, 0, 43, 0
4, 190920, Note_on_c, 0, 44, 101
4, 191040, Note_on_c, 0, 44, 0
4, 191040, Note_on_c, 0, 55, 127
4, 191520, Note_on_c, 0, 55, 0
4, 191520, Note_on_c, 0, 56, 127
4, 192000, Note_on_c, 0, 56, 0
4, 192000, Note_on_c, 0, 57, 127
4, 192120, Note_on_c, 0, 57, 0
4, 192120, Note_on_c, 0, 58, 101
4, 192240, Note_on_c, 0, 58, 0
4, 192240, Note_on_c, 0, 59, 101
4, 192360, Note_on_c, 0, 59, 0
4, 192360, Note_on_c, 0, 58, 101
4, 192480, Note_on_c, 0, 58, 0
4, 192480, Note_on_c, 0, 58, 101
4, 192720, Note_on_c, 0, 58, 0
4, 192720, Note_on_c, 0, 59, 101
4, 192720, Note_on_c, 0, 61, 101
4, 192720, Note_on_c, 0, 64, 101
4, 192960, Note_on_c, 0, 64, 0
4, 192960, Note_on_c, 0, 61, 0
4, 192960, Note_on_c, 0, 59, 0
4, 192960, Note_on_c, 0, 58, 101
4, 192960, Note_on_c, 0, 61, 101
4, 193007, Note_on_c, 0, 61, 0
4, 193007, Note_on_c, 0, 58, 0
4, 193200, Note_on_c, 0, 59, 101
4, 193200, Note_on_c, 0, 61, 101
4, 193200, Note_on_c, 0, 64, 101
4, 193247, Note_on_c, 0, 64, 0
4, 193247, Note_on_c, 0, 61, 0
4, 193247, Note_on_c, 0, 59, 0
4, 193440, Note_on_c, 0, 58, 101
4, 193440, Note_on_c, 0, 61, 101
4, 193487, Note_on_c, 0, 61, 0
4, 193487, Note_on_c, 0, 58, 0
4, 193680, Note_on_c, 0, 59, 101
4, 193680, Note_on_c, 0, 61, 101
4, 193680, Note_on_c, 0, 64, 101
4, 193727, Note_on_c, 0, 64, 0
4, 193727, Note_on_c, 0, 61, 0
4, 193727, Note_on_c, 0, 59, 0
4, 193920, Note_on_c, 0, 58, 101
4, 193920, Note_on_c, 0, 61, 101
4, 193967, Note_on_c, 0, 61, 0
4, 193967, Note_on_c, 0, 58, 0
4, 194160, Note_on_c, 0, 59, 101
4, 194160, Note_on_c, 0, 61, 101
4, 194160, Note_on_c, 0, 64, 101
4, 194207, Note_on_c, 0, 64, 0
4, 194207, Note_on_c, 0, 61, 0
4, 194207, Note_on_c, 0, 59, 0
4, 194400, Note_on_c, 0, 58, 101
4, 194400, Note_on_c, 0, 61, 101
4, 194447, Note_on_c, 0, 61, 0
4, 194447, Note_on_c, 0, 58, 0
4, 194640, Note_on_c, 0, 46, 101
4, 194640, Note_on_c, 0, 52, 101
4, 194640, Note_on_c, 0, 55, 101
4, 194760, Note_on_c, 0, 55, 0
4, 194760, Note_on_c, 0, 52, 0
4, 194760, Note_on_c, 0, 46, 0
4, 194760, Note_on_c, 0, 47, 101
4, 194880, Note_on_c, 0, 47, 0
4, 194880, Note_on_c, 0, 58, 127
4, 195360, Note_on_c, 0, 58, 0
4, 195360, Note_on_c, 0, 59, 127
4, 195840, Note_on_c, 0, 59, 0
4, 195840, Note_on_c, 0, 60, 127
4, 195960, Note_on_c, 0, 60, 0
4, 195960, Note_on_c, 0, 61, 101
4, 196080, Note_on_c, 0, 61, 0
4, 196080, Note_on_c, 0, 62, 101
4, 196200, Note_on_c, 0, 62, 0
4, 196200, Note_on_c, 0, 61, 101
4, 196320, Note_on_c, 0, 61, 0
4, 196320, Note_on_c, 0, 61, 101
4, 196560, Note_on_c, 0, 61, 0
4, 196560, Note_on_c, 0, 62, 101
4, 196560, Note_on_c, 0, 64, 101
4, 196560, Note_on_c, 0, 67, 101
4, 196607, Note_on_c, 0, 67, 0
4, 196607, Note_on_c, 0, 64, 0
4, 196607, Note_on_c, 0, 62, 0
4, 196800, Note_on_c, 0, 61, 101
4, 196800, Note_on_c, 0, 64, 101
4, 196847, Note_on_c, 0, 64, 0
4, 196847, Note_on_c, 0, 61, 0
4, 197040, Note_on_c, 0, 62, 101
4, 197040, Note_on_c, 0, 64, 101
4, 197040, Note_on_c, 0, 67, 101
4, 197087, Note_on_c, 0, 67, 0
4, 197087, Note_on_c, 0, 64, 0
4, 197087, Note_on_c, 0, 62, 0
4, 197280, Note_on_c, 0, 61, 101
4, 197280, Note_on_c, 0, 64, 101
4, 197327, Note_on_c, 0, 64, 0
4, 197327, Note_on_c, 0, 61, 0
4, 197520, Note_on_c, 0, 62, 101
4, 197520, Note_on_c, 0, 64, 101
4, 197520, Note_on_c, 0, 67, 101
4, 197567, Note_on_c, 0, 67, 0
4, 197567, Note_on_c, 0, 64, 0
4, 197567, Note_on_c, 0, 62, 0
4, 197760, Note_on_c, 0, 61, 101
4, 197760, Note_on_c, 0, 64, 101
4, 197807, Note_on_c, 0, 64, 0
4, 197807, Note_on_c, 0, 61, 0
4, 198000, Note_on_c, 0, 62, 101
4, 198000, Note_on_c, 0, 64, 101
4, 198000, Note_on_c, 0, 67, 101
4, 198047, Note_on_c, 0, 67, 0
4, 198047, Note_on_c, 0, 64, 0
4, 198047, Note_on_c, 0, 62, 0
4, 198240, Note_on_c, 0, 61, 101
4, 198240, Note_on_c, 0, 64, 101
4, 198480, Note_on_c, 0, 64, 0
4, 198480, Note_on_c, 0, 61, 0
4, 198480, Note_on_c, 0, 46, 101
4, 198480, Note_on_c, 0, 52, 101
4, 198480, Note_on_c, 0, 55, 101
4, 198600, Note_on_c, 0, 55, 0
4, 198600, Note_on_c, 0, 52, 0
4, 198600, Note_on_c, 0, 46, 0
4, 198600, Note_on_c, 0, 47, 101
4, 198720, Note_on_c, 0, 47, 0
4, 198720, Note_on_c, 0, 58, 127
4, 199200, Note_on_c, 0, 58, 0
4, 199200, Note_on_c, 0, 59, 127
4, 199680, Note_on_c, 0, 59, 0
4, 199680, Note_on_c, 0, 60, 127
4, 199800, Note_on_c, 0, 60, 0
4, 199800, Note_on_c, 0, 61, 101
4, 199920, Note_on_c, 0, 61, 0
4, 199920, Note_on_c, 0, 62, 101
4, 200040, Note_on_c, 0, 62, 0
4, 200040, Note_on_c, 0, 61, 101
4, 200160, Note_on_c, 0, 61, 0
4, 200160, Note_on_c, 0, 61, 101
4, 200400, Note_on_c, 0, 61, 0
4, 200400, Note_on_c, 0, 62, 101
4, 200400, Note_on_c, 0, 64, 101
4, 200400, Note_on_c, 0, 67, 101
4, 200447, Note_on_c, 0, 67, 0
4, 200447, Note_on_c, 0, 64, 0
4, 200447, Note_on_c, 0, 62, 0
4, 200640, Note_on_c, 0, 61, 101
4, 200640, Note_on_c, 0, 64, 101
4, 200687, Note_on_c, 0, 64, 0
4, 200687, Note_on_c, 0, 61, 0
4, 200880, Note_on_c, 0, 62, 101
4, 200880, Note_on_c, 0, 64, 101
4, 200880, Note_on_c, 0, 67, 101
4, 200927, Note_on_c, 0, 67, 0
4, 200927, Note_on_c, 0, 64, 0
4, 200927, Note_on_c, 0, 62, 0
4, 201120, Note_on_c, 0, 61, 101
4, 201120, Note_on_c, 0, 64, 101
4, 201167, Note_on_c, 0, 64, 0
4, 201167, Note_on_c, 0, 61, 0
4, 201360, Note_on_c, 0, 62, 101
4, 201360, Note_on_c, 0, 64, 101
4, 201360, Note_on_c, 0, 67, 101
4, 201407, Note_on_c, 0, 67, 0
4, 201407, Note_on_c, 0, 64, 0
4, 201407, Note_on_c, 0, 62, 0
4, 201600, Note_on_c, 0, 61, 101
4, 201600, Note_on_c, 0, 64, 101
4, 201647, Note_on_c, 0, 64, 0
4, 201647, Note_on_c, 0, 61, 0
4, 201840, Note_on_c, 0, 62, 101
4, 201840, Note_on_c, 0, 64, 101
4, 201840, Note_on_c, 0, 67, 101
4, 201887, Note_on_c, 0, 67, 0
4, 201887, Note_on_c, 0, 64, 0
4, 201887, Note_on_c, 0, 62, 0
4, 202080, Note_on_c, 0, 61, 101
4, 202080, Note_on_c, 0, 64, 101
4, 202320, Note_on_c, 0, 64, 0
4, 202320, Note_on_c, 0, 61, 0
4, 202320, Note_on_c, 0, 46, 49
4, 202320, Note_on_c, 0, 52, 49
4, 202320, Note_on_c, 0, 55, 49
4, 202560, Note_on_c, 0, 55, 0
4, 202560, Note_on_c, 0, 52, 0
4, 202560, Note_on_c, 0, 46, 0
4, 202560, Note_on_c, 0, 47, 49
4, 202560, Note_on_c, 0, 52, 49
4, 202560, Note_on_c, 0, 55, 49
4, 202800, Note_on_c, 0, 55, 0
4, 202800, Note_on_c, 0, 52, 0
4, 202800, Note_on_c, 0, 47, 0
4, 202800, Note_on_c, 0, 46, 49
4, 202800, Note_on_c, 0, 52, 49
4, 202800, Note_on_c, 0, 55, 49
4, 203040, Note_on_c, 0, 55, 0
4, 203040, Note_on_c, 0, 52, 0
4, 203040, Note_on_c, 0, 46, 0
4, 203040, Note_on_c, 0, 47, 49
4, 203040, Note_on_c, 0, 52, 49
4, 203040, Note_on_c, 0, 55, 49
4, 203280, Note_on_c, 0, 55, 0
4, 203280, Note_on_c, 0, 52, 0
4, 203280, Note_on_c, 0, 47, 0
4, 203280, Note_on_c, 0, 46, 49
4, 203280, Note_on_c, 0, 52, 49
4, 203280, Note_on_c, 0, 55, 49
4, 203520, Note_on_c, 0, 55, 0
4, 203520, Note_on_c, 0, 52, 0
4, 203520, Note_on_c, 0, 46, 0
4, 203520, Note_on_c, 0, 47, 49
4, 203520, Note_on_c, 0, 52, 49
4, 203520, Note_on_c, 0, 55, 49
4, 203760, Note_on_c, 0, 55, 0
4, 203760, Note_on_c, 0, 52, 0
4, 203760, Note_on_c, 0, 47, 0
4, 203760, Note_on_c, 0, 46, 49
4, 203760, Note_on_c, 0, 52, 49
4, 203760, Note_on_c, 0, 55, 49
4, 204000, Note_on_c, 0, 55, 0
4, 204000, Note_on_c, 0, 52, 0
4, 204000, Note_on_c, 0, 46, 0
4, 204000, Note_on_c, 0, 47, 49
4, 204000, Note_on_c, 0, 52, 49
4, 204000, Note_on_c, 0, 55, 49
4, 204240, Note_on_c, 0, 55, 0
4, 204240, Note_on_c, 0, 52, 0
4, 204240, Note_on_c, 0, 47, 0
4, 204240, Note_on_c, 0, 46, 49
4, 204240, Note_on_c, 0, 52, 49
4, 204240, Note_on_c, 0, 55, 49
4, 204480, Note_on_c, 0, 55, 0
4, 204480, Note_on_c, 0, 52, 0
4, 204480, Note_on_c, 0, 46, 0
4, 204480, Note_on_c, 0, 47, 62
4, 204480, Note_on_c, 0, 52, 62
4, 204480, Note_on_c, 0, 55, 62
4, 204720, Note_on_c, 0, 55, 0
4, 204720, Note_on_c, 0, 52, 0
4, 204720, Note_on_c, 0, 47, 0
4, 204720, Note_on_c, 0, 46, 62
4, 204720, Note_on_c, 0, 52, 62
4, 204720, Note_on_c, 0, 55, 62
4, 204960, Note_on_c, 0, 55, 0
4, 204960, Note_on_c, 0, 52, 0
4, 204960, Note_on_c, 0, 46, 0
4, 204960, Note_on_c, 0, 47, 62
4, 204960, Note_on_c, 0, 52, 62
4, 204960, Note_on_c, 0, 55, 62
4, 205200, Note_on_c, 0, 55, 0
4, 205200, Note_on_c, 0, 52, 0
4, 205200, Note_on_c, 0, 47, 0
4, 205200, Note_on_c, 0, 46, 62
4, 205200, Note_on_c, 0, 52, 62
4, 205200, Note_on_c, 0, 55, 62
4, 205440, Note_on_c, 0, 55, 0
4, 205440, Note_on_c, 0, 52, 0
4, 205440, Note_on_c, 0, 46, 0
4, 205440, Note_on_c, 0, 47, 62
4, 205440, Note_on_c, 0, 52, 62
4, 205440, Note_on_c, 0, 55, 62
4, 205680, Note_on_c, 0, 55, 0
4, 205680, Note_on_c, 0, 52, 0
4, 205680, Note_on_c, 0, 47, 0
4, 205680, Note_on_c, 0, 46, 62
4, 205680, Note_on_c, 0, 52, 62
4, 205680, Note_on_c, 0, 55, 62
4, 205920, Note_on_c, 0, 55, 0
4, 205920, Note_on_c, 0, 52, 0
4, 205920, Note_on_c, 0, 46, 0
4, 205920, Note_on_c, 0, 47, 62
4, 205920, Note_on_c, 0, 52, 62
4, 205920, Note_on_c, 0, 55, 62
4, 206160, Note_on_c, 0, 55, 0
4, 206160, Note_on_c, 0, 52, 0
4, 206160, Note_on_c, 0, 47, 0
4, 206160, Note_on_c, 0, 46, 62
4, 206160, Note_on_c, 0, 52, 62
4, 206160, Note_on_c, 0, 55, 62
4, 206400, Note_on_c, 0, 55, 0
4, 206400, Note_on_c, 0, 52, 0
4, 206400, Note_on_c, 0, 46, 0
4, 206400, Note_on_c, 0, 47, 62
4, 206400, Note_on_c, 0, 52, 62
4, 206400, Note_on_c, 0, 55, 62
4, 206640, Note_on_c, 0, 55, 0
4, 206640, Note_on_c, 0, 52, 0
4, 206640, Note_on_c, 0, 47, 0
4, 206640, Note_on_c, 0, 46, 62
4, 206640, Note_on_c, 0, 52, 62
4, 206640, Note_on_c, 0, 55, 62
4, 206880, Note_on_c, 0, 55, 0
4, 206880, Note_on_c, 0, 52, 0
4, 206880, Note_on_c, 0, 46, 0
4, 206880, Note_on_c, 0, 47, 62
4, 206880, Note_on_c, 0, 52, 62
4, 206880, Note_on_c, 0, 55, 62
4, 207120, Note_on_c, 0, 55, 0
4, 207120, Note_on_c, 0, 52, 0
4, 207120, Note_on_c, 0, 47, 0
4, 207120, Note_on_c, 0, 46, 62
4, 207120, Note_on_c, 0, 52, 62
4, 207120, Note_on_c, 0, 55, 62
4, 207360, Note_on_c, 0, 55, 0
4, 207360, Note_on_c, 0, 52, 0
4, 207360, Note_on_c, 0, 46, 0
4, 207360, Note_on_c, 0, 47, 62
4, 207360, Note_on_c, 0, 52, 62
4, 207360, Note_on_c, 0, 55, 62
4, 207600, Note_on_c, 0, 55, 0
4, 207600, Note_on_c, 0, 52, 0
4, 207600, Note_on_c, 0, 47, 0
4, 207600, Note_on_c, 0, 46, 62
4, 207600, Note_on_c, 0, 52, 62
4, 207600, Note_on_c, 0, 55, 62
4, 207840, Note_on_c, 0, 55, 0
4, 207840, Note_on_c, 0, 52, 0
4, 207840, Note_on_c, 0, 46, 0
4, 207840, Note_on_c, 0, 47, 62
4, 207840, Note_on_c, 0, 52, 62
4, 207840, Note_on_c, 0, 55, 62
4, 208080, Note_on_c, 0, 55, 0
4, 208080, Note_on_c, 0, 52, 0
4, 208080, Note_on_c, 0, 47, 0
4, 208080, Note_on_c, 0, 46, 62
4, 208080, Note_on_c, 0, 52, 62
4, 208080, Note_on_c, 0, 55, 62
4, 208320, Note_on_c, 0, 55, 0
4, 208320, Note_on_c, 0, 52, 0
4, 208320, Note_on_c, 0, 46, 0
4, 208320, Note_on_c, 0, 47, 62
4, 208320, Note_on_c, 0, 52, 62
4, 208320, Note_on_c, 0, 55, 62
4, 208560, Note_on_c, 0, 55, 0
4, 208560, Note_on_c, 0, 52, 0
4, 208560, Note_on_c, 0, 47, 0
4, 208560, Note_on_c, 0, 46, 62
4, 208560, Note_on_c, 0, 52, 62
4, 208560, Note_on_c, 0, 55, 62
4, 208800, Note_on_c, 0, 55, 0
4, 208800, Note_on_c, 0, 52, 0
4, 208800, Note_on_c, 0, 46, 0
4, 208800, Note_on_c, 0, 47, 62
4, 208800, Note_on_c, 0, 52, 62
4, 208800, Note_on_c, 0, 55, 62
4, 209040, Note_on_c, 0, 55, 0
4, 209040, Note_on_c, 0, 52, 0
4, 209040, Note_on_c, 0, 47, 0
4, 209040, Note_on_c, 0, 46, 62
4, 209040, Note_on_c, 0, 52, 62
4, 209040, Note_on_c, 0, 55, 62
4, 209280, Note_on_c, 0, 55, 0
4, 209280, Note_on_c, 0, 52, 0
4, 209280, Note_on_c, 0, 46, 0
4, 209280, Note_on_c, 0, 47, 75
4, 209280, Note_on_c, 0, 52, 75
4, 209280, Note_on_c, 0, 55, 75
4, 209520, Note_on_c, 0, 55, 0
4, 209520, Note_on_c, 0, 52, 0
4, 209520, Note_on_c, 0, 47, 0
4, 209520, Note_on_c, 0, 46, 75
4, 209520, Note_on_c, 0, 52, 75
4, 209520, Note_on_c, 0, 55, 75
4, 209760, Note_on_c, 0, 55, 0
4, 209760, Note_on_c, 0, 52, 0
4, 209760, Note_on_c, 0, 46, 0
4, 209760, Note_on_c, 0, 47, 75
4, 209760, Note_on_c, 0, 52, 75
4, 209760, Note_on_c, 0, 55, 75
4, 210000, Note_on_c, 0, 55, 0
4, 210000, Note_on_c, 0, 52, 0
4, 210000, Note_on_c, 0, 47, 0
4, 210000, Note_on_c, 0, 46, 75
4, 210000, Note_on_c, 0, 52, 75
4, 210000, Note_on_c, 0, 55, 75
4, 210240, Note_on_c, 0, 55, 0
4, 210240, Note_on_c, 0, 52, 0
4, 210240, Note_on_c, 0, 46, 0
4, 210240, Note_on_c, 0, 47, 75
4, 210240, Note_on_c, 0, 52, 75
4, 210240, Note_on_c, 0, 55, 75
4, 210480, Note_on_c, 0, 55, 0
4, 210480, Note_on_c, 0, 52, 0
4, 210480, Note_on_c, 0, 47, 0
4, 210480, Note_on_c, 0, 46, 75
4, 210480, Note_on_c, 0, 52, 75
4, 210480, Note_on_c, 0, 55, 75
4, 210720, Note_on_c, 0, 55, 0
4, 210720, Note_on_c, 0, 52, 0
4, 210720, Note_on_c, 0, 46, 0
4, 210720, Note_on_c, 0, 47, 75
4, 210720, Note_on_c, 0, 52, 75
4, 210720, Note_on_c, 0, 55, 75
4, 210960, Note_on_c, 0, 55, 0
4, 210960, Note_on_c, 0, 52, 0
4, 210960, Note_on_c, 0, 47, 0
4, 210960, Note_on_c, 0, 46, 75
4, 210960, Note_on_c, 0, 52, 75
4, 210960, Note_on_c, 0, 55, 75
4, 211200, Note_on_c, 0, 55, 0
4, 211200, Note_on_c, 0, 52, 0
4, 211200, Note_on_c, 0, 46, 0
4, 211200, Note_on_c, 0, 47, 75
4, 211200, Note_on_c, 0, 52, 75
4, 211200, Note_on_c, 0, 55, 75
4, 211440, Note_on_c, 0, 55, 0
4, 211440, Note_on_c, 0, 52, 0
4, 211440, Note_on_c, 0, 47, 0
4, 211440, Note_on_c, 0, 46, 75
4, 211440, Note_on_c, 0, 52, 75
4, 211440, Note_on_c, 0, 55, 75
4, 211680, Note_on_c, 0, 55, 0
4, 211680, Note_on_c, 0, 52, 0
4, 211680, Note_on_c, 0, 46, 0
4, 211680, Note_on_c, 0, 47, 75
4, 211680, Note_on_c, 0, 52, 75
4, 211680, Note_on_c, 0, 55, 75
4, 211920, Note_on_c, 0, 55, 0
4, 211920, Note_on_c, 0, 52, 0
4, 211920, Note_on_c, 0, 47, 0
4, 211920, Note_on_c, 0, 46, 75
4, 211920, Note_on_c, 0, 52, 75
4, 211920, Note_on_c, 0, 55, 75
4, 212160, Note_on_c, 0, 55, 0
4, 212160, Note_on_c, 0, 52, 0
4, 212160, Note_on_c, 0, 46, 0
4, 212160, Note_on_c, 0, 47, 88
4, 212160, Note_on_c, 0, 52, 88
4, 212160, Note_on_c, 0, 55, 88
4, 212400, Note_on_c, 0, 55, 0
4, 212400, Note_on_c, 0, 52, 0
4, 212400, Note_on_c, 0, 47, 0
4, 212400, Note_on_c, 0, 46, 88
4, 212400, Note_on_c, 0, 52, 88
4, 212400, Note_on_c, 0, 55, 88
4, 212640, Note_on_c, 0, 55, 0
4, 212640, Note_on_c, 0, 52, 0
4, 212640, Note_on_c, 0, 46, 0
4, 212640, Note_on_c, 0, 47, 88
4, 212640, Note_on_c, 0, 52, 88
4, 212640, Note_on_c, 0, 55, 88
4, 212880, Note_on_c, 0, 55, 0
4, 212880, Note_on_c, 0, 52, 0
4, 212880, Note_on_c, 0, 47, 0
4, 212880, Note_on_c, 0, 46, 88
4, 212880, Note_on_c, 0, 52, 88
4, 212880, Note_on_c, 0, 55, 88
4, 213120, Note_on_c, 0, 55, 0
4, 213120, Note_on_c, 0, 52, 0
4, 213120, Note_on_c, 0, 46, 0
4, 213120, Note_on_c, 0, 47, 88
4, 213120, Note_on_c, 0, 52, 88
4, 213120, Note_on_c, 0, 55, 88
4, 213360, Note_on_c, 0, 55, 0
4, 213360, Note_on_c, 0, 52, 0
4, 213360, Note_on_c, 0, 47, 0
4, 213360, Note_on_c, 0, 47, 88
4, 213360, Note_on_c, 0, 54, 88
4, 213360, Note_on_c, 0, 57, 88
4, 213360, Note_on_c, 0, 59, 88
4, 213600, Note_on_c, 0, 59, 0
4, 213600, Note_on_c, 0, 47, 0
4, 213600, Note_on_c, 0, 54, 0
4, 213600, Note_on_c, 0, 57, 0
4, 213600, Note_on_c, 0, 52, 88
4, 213600, Note_on_c, 0, 55, 88
4, 213600, Note_on_c, 0, 59, 88
4, 213840, Note_on_c, 0, 59, 0
4, 213840, Note_on_c, 0, 55, 0
4, 213840, Note_on_c, 0, 52, 0
4, 214080, Note_on_c, 0, 52, 127
4, 214080, Note_on_c, 0, 64, 127
4, 215040, Note_on_c, 0, 64, 0
4, 215040, Note_on_c, 0, 52, 0
4, 215040, Note_on_c, 0, 47, 127
4, 215040, Note_on_c, 0, 59, 127
4, 216000, Note_on_c, 0, 59, 0
4, 216000, Note_on_c, 0, 47, 0
4, 216000, Note_on_c, 0, 50, 127
4, 216000, Note_on_c, 0, 62, 127
4, 216960, Note_on_c, 0, 62, 0
4, 216960, Note_on_c, 0, 50, 0
4, 216960, Note_on_c, 0, 45, 127
4, 216960, Note_on_c, 0, 57, 127
4, 217920, Note_on_c, 0, 57, 0
4, 217920, Note_on_c, 0, 45, 0
4, 217920, Note_on_c, 0, 48, 127
4, 217920, Note_on_c, 0, 60, 127
4, 218880, Note_on_c, 0, 60, 0
4, 218880, Note_on_c, 0, 48, 0
4, 218880, Note_on_c, 0, 41, 127
4, 218880, Note_on_c, 0, 53, 127
4, 219360, Note_on_c, 0, 53, 0
4, 219360, Note_on_c, 0, 41, 0
4, 219360, Note_on_c, 0, 43, 127
4, 219360, Note_on_c, 0, 55, 127
4, 219840, Note_on_c, 0, 55, 0
4, 219840, Note_on_c, 0, 43, 0
4, 219840, Note_on_c, 0, 45, 127
4, 219840, Note_on_c, 0, 57, 127
4, 220320, Note_on_c, 0, 57, 0
4, 220320, Note_on_c, 0, 45, 0
4, 220320, Note_on_c, 0, 33, 127
4, 220320, Note_on_c, 0, 45, 127
4, 220800, Note_on_c, 0, 45, 0
4, 220800, Note_on_c, 0, 33, 0
4, 220800, Note_on_c, 0, 40, 101
4, 220800, Note_on_c, 0, 52, 101
4, 221280, Note_on_c, 0, 52, 0
4, 221280, Note_on_c, 0, 40, 0
4, 221760, Note_on_c, 0, 52, 127
4, 221760, Note_on_c, 0, 64, 127
4, 222720, Note_on_c, 0, 64, 0
4, 222720, Note_on_c, 0, 52, 0
4, 222720, Note_on_c, 0, 47, 127
4, 222720, Note_on_c, 0, 59, 127
4, 223680, Note_on_c, 0, 59, 0
4, 223680, Note_on_c, 0, 47, 0
4, 223680, Note_on_c, 0, 50, 127
4, 223680, Note_on_c, 0, 62, 127
4, 224640, Note_on_c, 0, 62, 0
4, 224640, Note_on_c, 0, 50, 0
4, 224640, Note_on_c, 0, 45, 127
4, 224640, Note_on_c, 0, 57, 127
4, 225600, Note_on_c, 0, 57, 0
4, 225600, Note_on_c, 0, 45, 0
4, 225600, Note_on_c, 0, 48, 127
4, 225600, Note_on_c, 0, 60, 127
4, 226560, Note_on_c, 0, 60, 0
4, 226560, Note_on_c, 0, 48, 0
4, 226560, Note_on_c, 0, 41, 127
4, 226560, Note_on_c, 0, 53, 127
4, 227040, Note_on_c, 0, 53, 0
4, 227040, Note_on_c, 0, 41, 0
4, 227040, Note_on_c, 0, 43, 127
4, 227040, Note_on_c, 0, 55, 127
4, 227520, Note_on_c, 0, 55, 0
4, 227520, Note_on_c, 0, 43, 0
4, 227520, Note_on_c, 0, 45, 127
4, 227520, Note_on_c, 0, 57, 127
4, 228000, Note_on_c, 0, 57, 0
4, 228000, Note_on_c, 0, 45, 0
4, 228000, Note_on_c, 0, 33, 127
4, 228000, Note_on_c, 0, 45, 127
4, 228480, Note_on_c, 0, 45, 0
4, 228480, Note_on_c, 0, 33, 0
4, 228480, Note_on_c, 0, 40, 101
4, 228480, Note_on_c, 0, 52, 101
4, 228960, Note_on_c, 0, 52, 0
4, 228960, Note_on_c, 0, 40, 0
4, 235200, Note_on_c, 0, 54, 101
4, 235280, Note_on_c, 0, 54, 0
4, 235280, Note_on_c, 0, 55, 101
4, 235359, Note_on_c, 0, 55, 0
4, 235359, Note_on_c, 0, 54, 101
4, 235440, Note_on_c, 0, 54, 0
4, 235440, Note_on_c, 0, 55, 101
4, 235520, Note_on_c, 0, 55, 0
4, 235520, Note_on_c, 0, 54, 101
4, 235599, Note_on_c, 0, 54, 0
4, 235599, Note_on_c, 0, 55, 101
4, 235680, Note_on_c, 0, 55, 0
4, 235680, Note_on_c, 0, 54, 101
4, 235776, Note_on_c, 0, 54, 0
4, 235776, Note_on_c, 0, 55, 101
4, 235872, Note_on_c, 0, 55, 0
4, 235872, Note_on_c, 0, 54, 101
4, 235967, Note_on_c, 0, 54, 0
4, 235967, Note_on_c, 0, 53, 101
4, 236063, Note_on_c, 0, 53, 0
4, 236063, Note_on_c, 0, 54, 101
4, 236160, Note_on_c, 0, 54, 0
4, 236160, Note_on_c, 0, 47, 101
4, 236640, Note_on_c, 0, 47, 0
4, 242880, Note_on_c, 0, 54, 101
4, 242960, Note_on_c, 0, 54, 0
4, 242960, Note_on_c, 0, 55, 101
4, 243039, Note_on_c, 0, 55, 0
4, 243039, Note_on_c, 0, 54, 101
4, 243120, Note_on_c, 0, 54, 0
4, 243120, Note_on_c, 0, 55, 101
4, 243200, Note_on_c, 0, 55, 0
4, 243200, Note_on_c, 0, 54, 101
4, 243279, Note_on_c, 0, 54, 0
4, 243279, Note_on_c, 0, 55, 101
4, 243360, Note_on_c, 0, 55, 0
4, 243360, Note_on_c, 0, 54, 101
4, 243456, Note_on_c, 0, 54, 0
4, 243456, Note_on_c, 0, 55, 101
4, 243552, Note_on_c, 0, 55, 0
4, 243552, Note_on_c, 0, 54, 101
4, 243647, Note_on_c, 0, 54, 0
4, 243647, Note_on_c, 0, 53, 101
4, 243743, Note_on_c, 0, 53, 0
4, 243743, Note_on_c, 0, 54, 101
4, 243840, Note_on_c, 0, 54, 0
4, 243840, Note_on_c, 0, 47, 101
4, 244320, Note_on_c, 0, 47, 0
4, 244800, Note_on_c, 0, 59, 101
4, 244800, Note_on_c, 0, 62, 101
4, 244800, Note_on_c, 0, 66, 101
4, 245040, Note_on_c, 0, 66, 0
4, 245040, Note_on_c, 0, 62, 0
4, 245040, Note_on_c, 0, 59, 0
4, 245040, Note_on_c, 0, 62, 101
4, 245040, Note_on_c, 0, 66, 101
4, 245040, Note_on_c, 0, 71, 101
4, 245280, Note_on_c, 0, 71, 0
4, 245280, Note_on_c, 0, 66, 0
4, 245280, Note_on_c, 0, 62, 0
4, 245280, Note_on_c, 0, 59, 101
4, 245280, Note_on_c, 0, 62, 101
4, 245280, Note_on_c, 0, 66, 101
4, 245520, Note_on_c, 0, 66, 0
4, 245520, Note_on_c, 0, 62, 0
4, 245520, Note_on_c, 0, 59, 0
4, 245520, Note_on_c, 0, 62, 101
4, 245520, Note_on_c, 0, 66, 101
4, 245520, Note_on_c, 0, 71, 101
4, 245760, Note_on_c, 0, 71, 0
4, 245760, Note_on_c, 0, 66, 0
4, 245760, Note_on_c, 0, 62, 0
4, 245760, Note_on_c, 0, 59, 101
4, 245760, Note_on_c, 0, 62, 101
4, 245760, Note_on_c, 0, 68, 101
4, 246000, Note_on_c, 0, 68, 0
4, 246000, Note_on_c, 0, 62, 0
4, 246000, Note_on_c, 0, 59, 0
4, 246000, Note_on_c, 0, 62, 101
4, 246000, Note_on_c, 0, 68, 101
4, 246240, Note_on_c, 0, 68, 0
4, 246240, Note_on_c, 0, 62, 0
4, 246240, Note_on_c, 0, 59, 101
4, 246240, Note_on_c, 0, 62, 101
4, 246240, Note_on_c, 0, 68, 101
4, 246480, Note_on_c, 0, 68, 0
4, 246480, Note_on_c, 0, 62, 0
4, 246480, Note_on_c, 0, 59, 0
4, 246480, Note_on_c, 0, 62, 101
4, 246480, Note_on_c, 0, 68, 101
4, 246720, Note_on_c, 0, 68, 0
4, 246720, Note_on_c, 0, 62, 0
4, 246720, Note_on_c, 0, 47, 127
4, 246720, Note_on_c, 0, 59, 127
4, 247680, Note_on_c, 0, 59, 0
4, 247680, Note_on_c, 0, 47, 0
4, 247680, Note_on_c, 0, 42, 127
4, 247680, Note_on_c, 0, 54, 127
4, 248160, Note_on_c, 0, 54, 0
4, 248160, Note_on_c, 0, 42, 0
4, 248160, Note_on_c, 0, 37, 101
4, 248160, Note_on_c, 0, 49, 101
4, 248400, Note_on_c, 0, 49, 0
4, 248400, Note_on_c, 0, 37, 0
4, 248400, Note_on_c, 0, 30, 101
4, 248400, Note_on_c, 0, 42, 101
4, 248640, Note_on_c, 0, 42, 0
4, 248640, Note_on_c, 0, 30, 0
4, 248640, Note_on_c, 0, 57, 101
4, 248640, Note_on_c, 0, 60, 101
4, 248640, Note_on_c, 0, 64, 101
4, 248880, Note_on_c, 0, 64, 0
4, 248880, Note_on_c, 0, 60, 0
4, 248880, Note_on_c, 0, 57, 0
4, 248880, Note_on_c, 0, 60, 101
4, 248880, Note_on_c, 0, 64, 101
4, 248880, Note_on_c, 0, 69, 101
4, 249120, Note_on_c, 0, 69, 0
4, 249120, Note_on_c, 0, 64, 0
4, 249120, Note_on_c, 0, 60, 0
4, 249120, Note_on_c, 0, 57, 101
4, 249120, Note_on_c, 0, 60, 101
4, 249120, Note_on_c, 0, 64, 101
4, 249360, Note_on_c, 0, 64, 0
4, 249360, Note_on_c, 0, 60, 0
4, 249360, Note_on_c, 0, 57, 0
4, 249360, Note_on_c, 0, 60, 101
4, 249360, Note_on_c, 0, 64, 101
4, 249360, Note_on_c, 0, 69, 101
4, 249600, Note_on_c, 0, 69, 0
4, 249600, Note_on_c, 0, 64, 0
4, 249600, Note_on_c, 0, 60, 0
4, 249600, Note_on_c, 0, 57, 101
4, 249600, Note_on_c, 0, 60, 101
4, 249600, Note_on_c, 0, 66, 101
4, 249840, Note_on_c, 0, 66, 0
4, 249840, Note_on_c, 0, 60, 0
4, 249840, Note_on_c, 0, 57, 0
4, 249840, Note_on_c, 0, 60, 101
4, 249840, Note_on_c, 0, 66, 101
4, 250080, Note_on_c, 0, 66, 0
4, 250080, Note_on_c, 0, 60, 0
4, 250080, Note_on_c, 0, 57, 101
4, 250080, Note_on_c, 0, 60, 101
4, 250080, Note_on_c, 0, 66, 101
4, 250320, Note_on_c, 0, 66, 0
4, 250320, Note_on_c, 0, 60, 0
4, 250320, Note_on_c, 0, 57, 0
4, 250320, Note_on_c, 0, 60, 101
4, 250320, Note_on_c, 0, 66, 101
4, 250560, Note_on_c, 0, 66, 0
4, 250560, Note_on_c, 0, 60, 0
4, 250560, Note_on_c, 0, 45, 127
4, 250560, Note_on_c, 0, 57, 127
4, 251520, Note_on_c, 0, 57, 0
4, 251520, Note_on_c, 0, 45, 0
4, 251520, Note_on_c, 0, 40, 127
4, 251520, Note_on_c, 0, 52, 127
4, 252000, Note_on_c, 0, 52, 0
4, 252000, Note_on_c, 0, 40, 0
4, 252000, Note_on_c, 0, 35, 101
4, 252000, Note_on_c, 0, 47, 101
4, 252240, Note_on_c, 0, 47, 0
4, 252240, Note_on_c, 0, 35, 0
4, 252240, Note_on_c, 0, 28, 127
4, 252240, Note_on_c, 0, 40, 127
4, 252480, Note_on_c, 0, 40, 0
4, 252480, Note_on_c, 0, 28, 0
4, 252480, Note_on_c, 0, 48, 127
4, 252540, Note_on_c, 0, 48, 0
4, 252540, Note_on_c, 0, 47, 101
4, 252600, Note_on_c, 0, 47, 0
4, 252600, Note_on_c, 0, 46, 101
4, 252720, Note_on_c, 0, 46, 0
4, 252960, Note_on_c, 0, 79, 127
4, 253020, Note_on_c, 0, 79, 0
4, 253020, Note_on_c, 0, 78, 101
4, 253080, Note_on_c, 0, 78, 0
4, 253080, Note_on_c, 0, 76, 101
4, 253200, Note_on_c, 0, 76, 0
4, 253440, Note_on_c, 0, 47, 127
4, 253500, Note_on_c, 0, 47, 0
4, 253500, Note_on_c, 0, 43, 101
4, 253560, Note_on_c, 0, 43, 0
4, 253560, Note_on_c, 0, 40, 101
4, 253680, Note_on_c, 0, 40, 0
4, 253920, Note_on_c, 0, 62, 127
4, 253980, Note_on_c, 0, 62, 0
4, 253980, Note_on_c, 0, 60, 101
4, 254040, Note_on_c, 0, 60, 0
4, 254040, Note_on_c, 0, 59, 101
4, 254160, Note_on_c, 0, 59, 0
4, 254400, Note_on_c, 0, 48, 127
4, 254460, Note_on_c, 0, 48, 0
4, 254460, Note_on_c, 0, 47, 101
4, 254520, Note_on_c, 0, 47, 0
4, 254520, Note_on_c, 0, 46, 101
4, 254640, Note_on_c, 0, 46, 0
4, 254880, Note_on_c, 0, 79, 127
4, 254940, Note_on_c, 0, 79, 0
4, 254940, Note_on_c, 0, 78, 101
4, 255000, Note_on_c, 0, 78, 0
4, 255000, Note_on_c, 0, 76, 101
4, 255120, Note_on_c, 0, 76, 0
4, 255360, Note_on_c, 0, 47, 127
4, 255420, Note_on_c, 0, 47, 0
4, 255420, Note_on_c, 0, 43, 101
4, 255480, Note_on_c, 0, 43, 0
4, 255480, Note_on_c, 0, 40, 101
4, 255600, Note_on_c, 0, 40, 0
4, 255840, Note_on_c, 0, 62, 127
4, 255900, Note_on_c, 0, 62, 0
4, 255900, Note_on_c, 0, 60, 101
4, 255960, Note_on_c, 0, 60, 0
4, 255960, Note_on_c, 0, 59, 101
4, 256080, Note_on_c, 0, 59, 0
4, 256320, Note_on_c, 0, 60, 114
4, 256380, Note_on_c, 0, 60, 0
4, 256380, Note_on_c, 0, 59, 88
4, 256440, Note_on_c, 0, 59, 0
4, 256440, Note_on_c, 0, 58, 88
4, 256560, Note_on_c, 0, 58, 0
4, 256800, Note_on_c, 0, 67, 114
4, 256860, Note_on_c, 0, 67, 0
4, 256860, Note_on_c, 0, 66, 88
4, 256920, Note_on_c, 0, 66, 0
4, 256920, Note_on_c, 0, 64, 88
4, 257040, Note_on_c, 0, 64, 0
4, 257280, Note_on_c, 0, 59, 114
4, 257340, Note_on_c, 0, 59, 0
4, 257340, Note_on_c, 0, 55, 88
4, 257400, Note_on_c, 0, 55, 0
4, 257400, Note_on_c, 0, 52, 88
4, 257520, Note_on_c, 0, 52, 0
4, 257760, Note_on_c, 0, 62, 114
4, 257820, Note_on_c, 0, 62, 0
4, 257820, Note_on_c, 0, 60, 88
4, 257880, Note_on_c, 0, 60, 0
4, 257880, Note_on_c, 0, 59, 88
4, 258000, Note_on_c, 0, 59, 0
4, 258240, Note_on_c, 0, 60, 101
4, 258300, Note_on_c, 0, 60, 0
4, 258300, Note_on_c, 0, 59, 75
4, 258360, Note_on_c, 0, 59, 0
4, 258360, Note_on_c, 0, 58, 75
4, 258480, Note_on_c, 0, 58, 0
4, 258720, Note_on_c, 0, 67, 101
4, 258780, Note_on_c, 0, 67, 0
4, 258780, Note_on_c, 0, 66, 75
4, 258840, Note_on_c, 0, 66, 0
4, 258840, Note_on_c, 0, 64, 75
4, 258960, Note_on_c, 0, 64, 0
4, 259200, Note_on_c, 0, 59, 101
4, 259260, Note_on_c, 0, 59, 0
4, 259260, Note_on_c, 0, 55, 75
4, 259320, Note_on_c, 0, 55, 0
4, 259320, Note_on_c, 0, 52, 75
4, 259440, Note_on_c, 0, 52, 0
4, 259680, Note_on_c, 0, 67, 101
4, 259740, Note_on_c, 0, 67, 0
4, 259740, Note_on_c, 0, 66, 75
4, 259800, Note_on_c, 0, 66, 0
4, 259800, Note_on_c, 0, 64, 75
4, 259920, Note_on_c, 0, 64, 0
4, 260160, Note_on_c, 0, 60, 49
4, 260640, Note_on_c, 0, 60, 0
4, 260640, Note_on_c, 0, 64, 49
4, 260640, Note_on_c, 0, 67, 49
4, 261120, Note_on_c, 0, 67, 0
4, 261120, Note_on_c, 0, 64, 0
4, 261120, Note_on_c, 0, 60, 49
4, 261600, Note_on_c, 0, 60, 0
4, 261600, Note_on_c, 0, 64, 49
4, 261600, Note_on_c, 0, 67, 49
4, 262080, Note_on_c, 0, 67, 0
4, 262080, Note_on_c, 0, 64, 0
4, 262080, Note_on_c, 0, 64, 49
4, 262080, Note_on_c, 0, 67, 49
4, 262080, Note_on_c, 0, 71, 49
4, 264480, Note_on_c, 0, 71, 0
4, 264480, Note_on_c, 0, 67, 0
4, 264480, Note_on_c, 0, 64, 0
4, 265440, Note_on_c, 0, 34, 101
4, 265440, Note_on_c, 0, 46, 101
4, 265680, Note_on_c, 0, 46, 0
4, 265680, Note_on_c, 0, 34, 0
4, 265680, Note_on_c, 0, 34, 101
4, 265680, Note_on_c, 0, 40, 101
4, 265680, Note_on_c, 0, 43, 101
4, 265680, Note_on_c, 0, 48, 101
4, 266160, Note_on_c, 0, 48, 0
4, 266160, Note_on_c, 0, 34, 0
4, 266160, Note_on_c, 0, 40, 0
4, 266160, Note_on_c, 0, 43, 0
4, 266160, Note_on_c, 0, 34, 101
4, 266160, Note_on_c, 0, 40, 101
4, 266160, Note_on_c, 0, 43, 101
4, 266160, Note_on_c, 0, 48, 101
4, 266400, Note_on_c, 0, 48, 0
4, 266400, Note_on_c, 0, 34, 0
4, 266400, Note_on_c, 0, 40, 0
4, 266400, Note_on_c, 0, 43, 0
4, 266400, Note_on_c, 0, 34, 101
4, 266400, Note_on_c, 0, 40, 101
4, 266400, Note_on_c, 0, 43, 101
4, 266400, Note_on_c, 0, 48, 101
4, 266640, Note_on_c, 0, 48, 0
4, 266640, Note_on_c, 0, 34, 0
4, 266640, Note_on_c, 0, 40, 0
4, 266640, Note_on_c, 0, 43, 0
4, 266640, Note_on_c, 0, 34, 101
4, 266640, Note_on_c, 0, 40, 101
4, 266640, Note_on_c, 0, 43, 101
4, 266640, Note_on_c, 0, 48, 101
4, 266880, Note_on_c, 0, 48, 0
4, 266880, Note_on_c, 0, 34, 0
4, 266880, Note_on_c, 0, 40, 0
4, 266880, Note_on_c, 0, 43, 0
4, 266880, Note_on_c, 0, 34, 101
4, 266880, Note_on_c, 0, 40, 101
4, 266880, Note_on_c, 0, 43, 101
4, 266880, Note_on_c, 0, 48, 101
4, 267120, Note_on_c, 0, 48, 0
4, 267120, Note_on_c, 0, 34, 0
4, 267120, Note_on_c, 0, 40, 0
4, 267120, Note_on_c, 0, 43, 0
4, 267120, Note_on_c, 0, 34, 101
4, 267120, Note_on_c, 0, 40, 101
4, 267120, Note_on_c, 0, 43, 101
4, 267120, Note_on_c, 0, 48, 101
4, 267360, Note_on_c, 0, 48, 0
4, 267360, Note_on_c, 0, 34, 0
4, 267360, Note_on_c, 0, 40, 0
4, 267360, Note_on_c, 0, 43, 0
4, 267360, Note_on_c, 0, 34, 101
4, 267360, Note_on_c, 0, 40, 101
4, 267360, Note_on_c, 0, 43, 101
4, 267360, Note_on_c, 0, 48, 101
4, 267600, Note_on_c, 0, 48, 0
4, 267600, Note_on_c, 0, 34, 0
4, 267600, Note_on_c, 0, 40, 0
4, 267600, Note_on_c, 0, 43, 0
4, 267600, Note_on_c, 0, 34, 101
4, 267600, Note_on_c, 0, 40, 101
4, 267600, Note_on_c, 0, 43, 101
4, 267600, Note_on_c, 0, 48, 101
4, 267840, Note_on_c, 0, 48, 0
4, 267840, Note_on_c, 0, 34, 0
4, 267840, Note_on_c, 0, 40, 0
4, 267840, Note_on_c, 0, 43, 0
4, 267840, Note_on_c, 0, 34, 101
4, 267840, Note_on_c, 0, 40, 101
4, 267840, Note_on_c, 0, 43, 101
4, 267840, Note_on_c, 0, 48, 101
4, 268080, Note_on_c, 0, 48, 0
4, 268080, Note_on_c, 0, 34, 0
4, 268080, Note_on_c, 0, 40, 0
4, 268080, Note_on_c, 0, 43, 0
4, 268320, Note_on_c, 0, 34, 101
4, 268320, Note_on_c, 0, 46, 101
4, 268560, Note_on_c, 0, 46, 0
4, 268560, Note_on_c, 0, 40, 101
4, 268560, Note_on_c, 0, 43, 101
4, 268560, Note_on_c, 0, 48, 101
4, 269040, Note_on_c, 0, 48, 0
4, 269040, Note_on_c, 0, 34, 0
4, 269040, Note_on_c, 0, 40, 0
4, 269040, Note_on_c, 0, 43, 0
4, 269040, Note_on_c, 0, 34, 101
4, 269040, Note_on_c, 0, 40, 101
4, 269040, Note_on_c, 0, 43, 101
4, 269040, Note_on_c, 0, 48, 101
4, 269280, Note_on_c, 0, 48, 0
4, 269280, Note_on_c, 0, 34, 0
4, 269280, Note_on_c, 0, 40, 0
4, 269280, Note_on_c, 0, 43, 0
4, 269280, Note_on_c, 0, 34, 101
4, 269280, Note_on_c, 0, 40, 101
4, 269280, Note_on_c, 0, 43, 101
4, 269280, Note_on_c, 0, 48, 101
4, 269520, Note_on_c, 0, 48, 0
4, 269520, Note_on_c, 0, 34, 0
4, 269520, Note_on_c, 0, 40, 0
4, 269520, Note_on_c, 0, 43, 0
4, 269520, Note_on_c, 0, 34, 101
4, 269520, Note_on_c, 0, 40, 101
4, 269520, Note_on_c, 0, 43, 101
4, 269520, Note_on_c, 0, 48, 101
4, 269760, Note_on_c, 0, 48, 0
4, 269760, Note_on_c, 0, 34, 0
4, 269760, Note_on_c, 0, 40, 0
4, 269760, Note_on_c, 0, 43, 0
4, 269760, Note_on_c, 0, 34, 101
4, 269760, Note_on_c, 0, 40, 101
4, 269760, Note_on_c, 0, 43, 101
4, 269760, Note_on_c, 0, 48, 101
4, 270000, Note_on_c, 0, 48, 0
4, 270000, Note_on_c, 0, 34, 0
4, 270000, Note_on_c, 0, 40, 0
4, 270000, Note_on_c, 0, 43, 0
4, 270000, Note_on_c, 0, 34, 101
4, 270000, Note_on_c, 0, 40, 101
4, 270000, Note_on_c, 0, 43, 101
4, 270000, Note_on_c, 0, 48, 101
4, 270240, Note_on_c, 0, 48, 0
4, 270240, Note_on_c, 0, 34, 0
4, 270240, Note_on_c, 0, 40, 0
4, 270240, Note_on_c, 0, 43, 0
4, 270240, Note_on_c, 0, 34, 101
4, 270240, Note_on_c, 0, 40, 101
4, 270240, Note_on_c, 0, 43, 101
4, 270240, Note_on_c, 0, 48, 101
4, 270480, Note_on_c, 0, 48, 0
4, 270480, Note_on_c, 0, 34, 0
4, 270480, Note_on_c, 0, 40, 0
4, 270480, Note_on_c, 0, 43, 0
4, 270480, Note_on_c, 0, 34, 101
4, 270480, Note_on_c, 0, 40, 101
4, 270480, Note_on_c, 0, 43, 101
4, 270480, Note_on_c, 0, 48, 101
4, 270720, Note_on_c, 0, 48, 0
4, 270720, Note_on_c, 0, 34, 0
4, 270720, Note_on_c, 0, 40, 0
4, 270720, Note_on_c, 0, 43, 0
4, 270720, Note_on_c, 0, 34, 101
4, 270720, Note_on_c, 0, 40, 101
4, 270720, Note_on_c, 0, 43, 101
4, 270720, Note_on_c, 0, 48, 101
4, 270960, Note_on_c, 0, 48, 0
4, 270960, Note_on_c, 0, 34, 0
4, 270960, Note_on_c, 0, 40, 0
4, 270960, Note_on_c, 0, 43, 0
4, 271440, Note_on_c, 0, 58, 127
4, 271440, Note_on_c, 0, 64, 127
4, 271440, Note_on_c, 0, 67, 127
4, 271920, Note_on_c, 0, 67, 0
4, 271920, Note_on_c, 0, 64, 0
4, 271920, Note_on_c, 0, 58, 0
4, 271920, Note_on_c, 0, 55, 101
4, 271920, Note_on_c, 0, 58, 101
4, 271920, Note_on_c, 0, 66, 101
4, 272160, Note_on_c, 0, 66, 0
4, 272160, Note_on_c, 0, 58, 0
4, 272160, Note_on_c, 0, 55, 0
4, 272160, Note_on_c, 0, 55, 101
4, 272160, Note_on_c, 0, 58, 101
4, 272160, Note_on_c, 0, 64, 101
4, 272400, Note_on_c, 0, 64, 0
4, 272400, Note_on_c, 0, 58, 0
4, 272400, Note_on_c, 0, 55, 0
4, 272400, Note_on_c, 0, 52, 101
4, 272400, Note_on_c, 0, 55, 101
4, 272400, Note_on_c, 0, 62, 101
4, 272640, Note_on_c, 0, 62, 0
4, 272640, Note_on_c, 0, 55, 0
4, 272640, Note_on_c, 0, 52, 0
4, 272640, Note_on_c, 0, 52, 101
4, 272640, Note_on_c, 0, 55, 101
4, 272880, Note_on_c, 0, 55, 0
4, 272880, Note_on_c, 0, 52, 0
4, 272880, Note_on_c, 0, 46, 101
4, 272880, Note_on_c, 0, 52, 101
4, 272880, Note_on_c, 0, 57, 101
4, 273120, Note_on_c, 0, 57, 0
4, 273120, Note_on_c, 0, 52, 0
4, 273120, Note_on_c, 0, 46, 0
4, 273120, Note_on_c, 0, 46, 101
4, 273120, Note_on_c, 0, 52, 101
4, 273120, Note_on_c, 0, 55, 101
4, 273360, Note_on_c, 0, 55, 0
4, 273360, Note_on_c, 0, 52, 0
4, 273360, Note_on_c, 0, 46, 0
4, 273360, Note_on_c, 0, 43, 101
4, 273360, Note_on_c, 0, 46, 101
4, 273360, Note_on_c, 0, 54, 101
4, 273600, Note_on_c, 0, 54, 0
4, 273600, Note_on_c, 0, 46, 0
4, 273600, Note_on_c, 0, 43, 0
4, 273600, Note_on_c, 0, 43, 101
4, 273600, Note_on_c, 0, 46, 101
4, 273600, Note_on_c, 0, 52, 101
4, 273840, Note_on_c, 0, 52, 0
4, 273840, Note_on_c, 0, 46, 0
4, 273840, Note_on_c, 0, 43, 0
4, 274080, Note_on_c, 0, 57, 101
4, 274080, Note_on_c, 0, 58, 101
4, 274080, Note_on_c, 0, 64, 101
4, 274080, Note_on_c, 0, 66, 101
4, 274560, Note_on_c, 0, 66, 0
4, 274560, Note_on_c, 0, 57, 0
4, 274560, Note_on_c, 0, 58, 0
4, 274560, Note_on_c, 0, 64, 0
4, 274560, Note_on_c, 0, 55, 101
4, 274560, Note_on_c, 0, 58, 101
4, 274560, Note_on_c, 0, 64, 101
4, 274560, Note_on_c, 0, 67, 101
4, 275400, Note_on_c, 0, 67, 0
4, 275400, Note_on_c, 0, 55, 0
4, 275400, Note_on_c, 0, 58, 0
4, 275400, Note_on_c, 0, 64, 0
4, 275400, Note_on_c, 0, 57, 101
4, 275400, Note_on_c, 0, 58, 101
4, 275400, Note_on_c, 0, 64, 101
4, 275400, Note_on_c, 0, 66, 101
4, 275520, Note_on_c, 0, 66, 0
4, 275520, Note_on_c, 0, 57, 0
4, 275520, Note_on_c, 0, 58, 0
4, 275520, Note_on_c, 0, 64, 0
4, 275520, Note_on_c, 0, 57, 101
4, 275520, Note_on_c, 0, 58, 101
4, 275520, Note_on_c, 0, 64, 101
4, 275520, Note_on_c, 0, 66, 101
4, 276000, Note_on_c, 0, 66, 0
4, 276000, Note_on_c, 0, 57, 0
4, 276000, Note_on_c, 0, 58, 0
4, 276000, Note_on_c, 0, 64, 0
4, 276000, Note_on_c, 0, 55, 101
4, 276000, Note_on_c, 0, 58, 101
4, 276000, Note_on_c, 0, 64, 101
4, 276000, Note_on_c, 0, 67, 101
4, 276240, Note_on_c, 0, 67, 0
4, 276240, Note_on_c, 0, 55, 0
4, 276240, Note_on_c, 0, 58, 0
4, 276240, Note_on_c, 0, 64, 0
4, 277200, Note_on_c, 0, 58, 127
4, 277200, Note_on_c, 0, 64, 127
4, 277200, Note_on_c, 0, 67, 127
4, 277680, Note_on_c, 0, 67, 0
4, 277680, Note_on_c, 0, 64, 0
4, 277680, Note_on_c, 0, 58, 0
4, 277680, Note_on_c, 0, 55, 101
4, 277680, Note_on_c, 0, 58, 101
4, 277680, Note_on_c, 0, 66, 101
4, 277920, Note_on_c, 0, 66, 0
4, 277920, Note_on_c, 0, 58, 0
4, 277920, Note_on_c, 0, 55, 0
4, 277920, Note_on_c, 0, 55, 101
4, 277920, Note_on_c, 0, 58, 101
4, 277920, Note_on_c, 0, 64, 101
4, 278160, Note_on_c, 0, 64, 0
4, 278160, Note_on_c, 0, 58, 0
4, 278160, Note_on_c, 0, 55, 0
4, 278160, Note_on_c, 0, 52, 101
4, 278160, Note_on_c, 0, 55, 101
4, 278160, Note_on_c, 0, 62, 101
4, 278400, Note_on_c, 0, 62, 0
4, 278400, Note_on_c, 0, 55, 0
4, 278400, Note_on_c, 0, 52, 0
4, 278400, Note_on_c, 0, 52, 101
4, 278400, Note_on_c, 0, 55, 101
4, 278640, Note_on_c, 0, 55, 0
4, 278640, Note_on_c, 0, 52, 0
4, 278640, Note_on_c, 0, 46, 101
4, 278640, Note_on_c, 0, 52, 101
4, 278640, Note_on_c, 0, 57, 101
4, 278880, Note_on_c, 0, 57, 0
4, 278880, Note_on_c, 0, 52, 0
4, 278880, Note_on_c, 0, 46, 0
4, 278880, Note_on_c, 0, 46, 101
4, 278880, Note_on_c, 0, 52, 101
4, 278880, Note_on_c, 0, 55, 101
4, 279120, Note_on_c, 0, 55, 0
4, 279120, Note_on_c, 0, 52, 0
4, 279120, Note_on_c, 0, 46, 0
4, 279120, Note_on_c, 0, 43, 101
4, 279120, Note_on_c, 0, 46, 101
4, 279120, Note_on_c, 0, 54, 101
4, 279360, Note_on_c, 0, 54, 0
4, 279360, Note_on_c, 0, 46, 0
4, 279360, Note_on_c, 0, 43, 0
4, 279360, Note_on_c, 0, 43, 101
4, 279360, Note_on_c, 0, 46, 101
4, 279360, Note_on_c, 0, 52, 101
4, 279600, Note_on_c, 0, 52, 0
4, 279600, Note_on_c, 0, 46, 0
4, 279600, Note_on_c, 0, 43, 0
4, 279840, Note_on_c, 0, 57, 101
4, 279840, Note_on_c, 0, 58, 101
4, 279840, Note_on_c, 0, 64, 101
4, 279840, Note_on_c, 0, 66, 101
4, 280320, Note_on_c, 0, 66, 0
4, 280320, Note_on_c, 0, 57, 0
4, 280320, Note_on_c, 0, 58, 0
4, 280320, Note_on_c, 0, 64, 0
4, 280320, Note_on_c, 0, 55, 101
4, 280320, Note_on_c, 0, 58, 101
4, 280320, Note_on_c, 0, 64, 101
4, 280320, Note_on_c, 0, 67, 101
4, 281160, Note_on_c, 0, 67, 0
4, 281160, Note_on_c, 0, 55, 0
4, 281160, Note_on_c, 0, 58, 0
4, 281160, Note_on_c, 0, 64, 0
4, 281160, Note_on_c, 0, 57, 101
4, 281160, Note_on_c, 0, 58, 101
4, 281160, Note_on_c, 0, 64, 101
4, 281160, Note_on_c, 0, 66, 101
4, 281280, Note_on_c, 0, 66, 0
4, 281280, Note_on_c, 0, 57, 0
4, 281280, Note_on_c, 0, 58, 0
4, 281280, Note_on_c, 0, 64, 0
4, 281280, Note_on_c, 0, 57, 101
4, 281280, Note_on_c, 0, 58, 101
4, 281280, Note_on_c, 0, 64, 101
4, 281280, Note_on_c, 0, 66, 101
4, 281760, Note_on_c, 0, 66, 0
4, 281760, Note_on_c, 0, 57, 0
4, 281760, Note_on_c, 0, 58, 0
4, 281760, Note_on_c, 0, 64, 0
4, 281760, Note_on_c, 0, 55, 101
4, 281760, Note_on_c, 0, 58, 101
4, 281760, Note_on_c, 0, 64, 101
4, 281760, Note_on_c, 0, 67, 101
4, 282000, Note_on_c, 0, 67, 0
4, 282000, Note_on_c, 0, 55, 0
4, 282000, Note_on_c, 0, 58, 0
4, 282000, Note_on_c, 0, 64, 0
4, 282720, Note_on_c, 0, 41, 101
4, 282720, Note_on_c, 0, 48, 101
4, 282720, Note_on_c, 0, 56, 101
4, 282960, Note_on_c, 0, 56, 0
4, 282960, Note_on_c, 0, 48, 0
4, 282960, Note_on_c, 0, 41, 0
4, 284160, Note_on_c, 0, 56, 101
4, 284160, Note_on_c, 0, 65, 101
4, 284400, Note_on_c, 0, 65, 0
4, 284400, Note_on_c, 0, 56, 0
4, 284400, Note_on_c, 0, 53, 101
4, 284400, Note_on_c, 0, 56, 101
4, 284400, Note_on_c, 0, 61, 101
4, 284640, Note_on_c, 0, 61, 0
4, 284640, Note_on_c, 0, 56, 0
4, 284640, Note_on_c, 0, 53, 0
4, 284640, Note_on_c, 0, 53, 101
4, 284640, Note_on_c, 0, 56, 101
4, 284640, Note_on_c, 0, 60, 101
4, 284880, Note_on_c, 0, 60, 0
4, 284880, Note_on_c, 0, 56, 0
4, 284880, Note_on_c, 0, 53, 0
4, 284880, Note_on_c, 0, 48, 101
4, 284880, Note_on_c, 0, 53, 101
4, 284880, Note_on_c, 0, 56, 101
4, 285120, Note_on_c, 0, 56, 0
4, 285120, Note_on_c, 0, 53, 0
4, 285120, Note_on_c, 0, 48, 0
4, 285120, Note_on_c, 0, 44, 101
4, 285120, Note_on_c, 0, 48, 101
4, 285120, Note_on_c, 0, 53, 101
4, 285360, Note_on_c, 0, 53, 0
4, 285360, Note_on_c, 0, 48, 0
4, 285360, Note_on_c, 0, 44, 0
4, 288480, Note_on_c, 0, 41, 101
4, 288480, Note_on_c, 0, 48, 101
4, 288480, Note_on_c, 0, 56, 101
4, 288720, Note_on_c, 0, 56, 0
4, 288720, Note_on_c, 0, 48, 0
4, 288720, Note_on_c, 0, 41, 0
4, 289920, Note_on_c, 0, 56, 101
4, 289920, Note_on_c, 0, 65, 101
4, 290160, Note_on_c, 0, 65, 0
4, 290160, Note_on_c, 0, 56, 0
4, 290160, Note_on_c, 0, 53, 101
4, 290160, Note_on_c, 0, 56, 101
4, 290160, Note_on_c, 0, 61, 101
4, 290400, Note_on_c, 0, 61, 0
4, 290400, Note_on_c, 0, 56, 0
4, 290400, Note_on_c, 0, 53, 0
4, 290400, Note_on_c, 0, 53, 101
4, 290400, Note_on_c, 0, 56, 101
4, 290400, Note_on_c, 0, 60, 101
4, 290640, Note_on_c, 0, 60, 0
4, 290640, Note_on_c, 0, 56, 0
4, 290640, Note_on_c, 0, 53, 0
4, 290640, Note_on_c, 0, 48, 101
4, 290640, Note_on_c, 0, 53, 101
4, 290640, Note_on_c, 0, 56, 101
4, 290880, Note_on_c, 0, 56, 0
4, 290880, Note_on_c, 0, 53, 0
4, 290880, Note_on_c, 0, 48, 0
4, 290880, Note_on_c, 0, 44, 101
4, 290880, Note_on_c, 0, 48, 101
4, 290880, Note_on_c, 0, 53, 101
4, 291120, Note_on_c, 0, 53, 0
4, 291120, Note_on_c, 0, 48, 0
4, 291120, Note_on_c, 0, 44, 0
4, 294240, Note_on_c, 0, 41, 101
4, 294240, Note_on_c, 0, 48, 101
4, 294240, Note_on_c, 0, 56, 101
4, 294480, Note_on_c, 0, 56, 0
4, 294480, Note_on_c, 0, 48, 0
4, 294480, Note_on_c, 0, 41, 0
4, 295680, Note_on_c, 0, 56, 101
4, 295680, Note_on_c, 0, 65, 101
4, 295920, Note_on_c, 0, 65, 0
4, 295920, Note_on_c, 0, 56, 0
4, 295920, Note_on_c, 0, 53, 101
4, 295920, Note_on_c, 0, 56, 101
4, 295920, Note_on_c, 0, 61, 101
4, 296160, Note_on_c, 0, 61, 0
4, 296160, Note_on_c, 0, 56, 0
4, 296160, Note_on_c, 0, 53, 0
4, 296160, Note_on_c, 0, 53, 101
4, 296160, Note_on_c, 0, 56, 101
4, 296160, Note_on_c, 0, 60, 101
4, 296400, Note_on_c, 0, 60, 0
4, 296400, Note_on_c, 0, 56, 0
4, 296400, Note_on_c, 0, 53, 0
4, 296400, Note_on_c, 0, 48, 101
4, 296400, Note_on_c, 0, 53, 101
4, 296400, Note_on_c, 0, 56, 101
4, 296640, Note_on_c, 0, 56, 0
4, 296640, Note_on_c, 0, 53, 0
4, 296640, Note_on_c, 0, 48, 0
4, 296640, Note_on_c, 0, 41, 101
4, 296640, Note_on_c, 0, 44, 101
4, 296640, Note_on_c, 0, 48, 101
4, 296640, Note_on_c, 0, 53, 101
4, 296880, Note_on_c, 0, 53, 0
4, 296880, Note_on_c, 0, 41, 0
4, 296880, Note_on_c, 0, 44, 0
4, 296880, Note_on_c, 0, 48, 0
4, 297120, Note_on_c, 0, 39, 101
4, 297120, Note_on_c, 0, 51, 101
4, 298080, Note_on_c, 0, 51, 0
4, 298080, Note_on_c, 0, 39, 0
4, 298560, Note_on_c, 0, 56, 101
4, 298560, Note_on_c, 0, 65, 101
4, 298800, Note_on_c, 0, 65, 0
4, 298800, Note_on_c, 0, 56, 0
4, 298800, Note_on_c, 0, 53, 101
4, 298800, Note_on_c, 0, 56, 101
4, 298800, Note_on_c, 0, 61, 101
4, 299040, Note_on_c, 0, 61, 0
4, 299040, Note_on_c, 0, 56, 0
4, 299040, Note_on_c, 0, 53, 0
4, 299040, Note_on_c, 0, 53, 101
4, 299040, Note_on_c, 0, 56, 101
4, 299040, Note_on_c, 0, 60, 101
4, 299280, Note_on_c, 0, 60, 0
4, 299280, Note_on_c, 0, 56, 0
4, 299280, Note_on_c, 0, 53, 0
4, 299280, Note_on_c, 0, 48, 101
4, 299280, Note_on_c, 0, 53, 101
4, 299280, Note_on_c, 0, 56, 101
4, 299520, Note_on_c, 0, 56, 0
4, 299520, Note_on_c, 0, 53, 0
4, 299520, Note_on_c, 0, 48, 0
4, 299520, Note_on_c, 0, 39, 101
4, 299520, Note_on_c, 0, 44, 101
4, 299520, Note_on_c, 0, 48, 101
4, 299520, Note_on_c, 0, 51, 101
4, 299760, Note_on_c, 0, 51, 0
4, 299760, Note_on_c, 0, 39, 0
4, 299760, Note_on_c, 0, 44, 0
4, 299760, Note_on_c, 0, 48, 0
4, 300000, Note_on_c, 0, 38, 101
4, 300000, Note_on_c, 0, 50, 101
4, 300960, Note_on_c, 0, 50, 0
4, 300960, Note_on_c, 0, 38, 0
4, 300960, Note_on_c, 0, 56, 101
4, 300960, Note_on_c, 0, 60, 101
4, 301200, Note_on_c, 0, 60, 0
4, 301200, Note_on_c, 0, 56, 0
4, 301200, Note_on_c, 0, 53, 101
4, 301200, Note_on_c, 0, 56, 101
4, 301440, Note_on_c, 0, 56, 0
4, 301440, Note_on_c, 0, 53, 0
4, 301440, Note_on_c, 0, 48, 101
4, 301440, Note_on_c, 0, 53, 101
4, 301440, Note_on_c, 0, 56, 101
4, 302400, Note_on_c, 0, 56, 0
4, 302400, Note_on_c, 0, 53, 0
4, 302400, Note_on_c, 0, 48, 0
4, 302400, Note_on_c, 0, 56, 101
4, 302400, Note_on_c, 0, 60, 101
4, 302640, Note_on_c, 0, 60, 0
4, 302640, Note_on_c, 0, 56, 0
4, 302640, Note_on_c, 0, 53, 101
4, 302640, Note_on_c, 0, 56, 101
4, 302880, Note_on_c, 0, 56, 0
4, 302880, Note_on_c, 0, 53, 0
4, 302880, Note_on_c, 0, 48, 101
4, 302880, Note_on_c, 0, 53, 101
4, 302880, Note_on_c, 0, 56, 101
4, 303120, Note_on_c, 0, 56, 0
4, 303120, Note_on_c, 0, 53, 0
4, 303120, Note_on_c, 0, 48, 0
4, 303120, Note_on_c, 0, 53, 101
4, 303120, Note_on_c, 0, 56, 101
4, 303120, Note_on_c, 0, 60, 101
4, 303360, Note_on_c, 0, 60, 0
4, 303360, Note_on_c, 0, 56, 0
4, 303360, Note_on_c, 0, 53, 0
4, 303360, Note_on_c, 0, 56, 101
4, 303360, Note_on_c, 0, 60, 101
4, 303360, Note_on_c, 0, 65, 101
4, 303600, Note_on_c, 0, 65, 0
4, 303600, Note_on_c, 0, 60, 0
4, 303600, Note_on_c, 0, 56, 0
4, 303600, Note_on_c, 0, 60, 101
4, 303600, Note_on_c, 0, 65, 101
4, 303600, Note_on_c, 0, 68, 101
4, 303840, Note_on_c, 0, 68, 0
4, 303840, Note_on_c, 0, 65, 0
4, 303840, Note_on_c, 0, 60, 0
4, 303840, Note_on_c, 0, 48, 101
4, 303840, Note_on_c, 0, 53, 101
4, 303840, Note_on_c, 0, 56, 101
4, 304080, Note_on_c, 0, 56, 0
4, 304080, Note_on_c, 0, 53, 0
4, 304080, Note_on_c, 0, 48, 0
4, 304080, Note_on_c, 0, 53, 101
4, 304080, Note_on_c, 0, 56, 101
4, 304080, Note_on_c, 0, 60, 101
4, 304320, Note_on_c, 0, 60, 0
4, 304320, Note_on_c, 0, 56, 0
4, 304320, Note_on_c, 0, 53, 0
4, 304320, Note_on_c, 0, 56, 101
4, 304320, Note_on_c, 0, 60, 101
4, 304560, Note_on_c, 0, 60, 0
4, 304560, Note_on_c, 0, 56, 0
4, 304560, Note_on_c, 0, 60, 101
4, 304560, Note_on_c, 0, 65, 101
4, 304800, Note_on_c, 0, 65, 0
4, 304800, Note_on_c, 0, 60, 0
4, 304800, Note_on_c, 0, 48, 101
4, 304800, Note_on_c, 0, 53, 101
4, 304800, Note_on_c, 0, 56, 101
4, 305040, Note_on_c, 0, 56, 0
4, 305040, Note_on_c, 0, 53, 0
4, 305040, Note_on_c, 0, 48, 0
4, 305040, Note_on_c, 0, 53, 101
4, 305040, Note_on_c, 0, 56, 101
4, 305040, Note_on_c, 0, 60, 101
4, 305280, Note_on_c, 0, 60, 0
4, 305280, Note_on_c, 0, 56, 0
4, 305280, Note_on_c, 0, 53, 0
4, 305280, Note_on_c, 0, 56, 101
4, 305280, Note_on_c, 0, 60, 101
4, 305520, Note_on_c, 0, 60, 0
4, 305520, Note_on_c, 0, 56, 0
4, 305520, Note_on_c, 0, 60, 101
4, 305520, Note_on_c, 0, 65, 101
4, 305760, Note_on_c, 0, 65, 0
4, 305760, Note_on_c, 0, 60, 0
4, 305760, Note_on_c, 0, 59, 127
4, 306240, Note_on_c, 0, 59, 0
4, 306240, Note_on_c, 0, 60, 127
4, 306720, Note_on_c, 0, 60, 0
4, 306720, Note_on_c, 0, 61, 127
4, 306840, Note_on_c, 0, 61, 0
4, 306840, Note_on_c, 0, 62, 101
4, 306960, Note_on_c, 0, 62, 0
4, 306960, Note_on_c, 0, 63, 101
4, 307080, Note_on_c, 0, 63, 0
4, 307080, Note_on_c, 0, 62, 101
4, 307200, Note_on_c, 0, 62, 0
4, 307200, Note_on_c, 0, 62, 101
4, 307440, Note_on_c, 0, 62, 0
4, 307440, Note_on_c, 0, 63, 101
4, 307440, Note_on_c, 0, 65, 101
4, 307440, Note_on_c, 0, 68, 101
4, 307487, Note_on_c, 0, 68, 0
4, 307487, Note_on_c, 0, 65, 0
4, 307487, Note_on_c, 0, 63, 0
4, 307680, Note_on_c, 0, 62, 101
4, 307680, Note_on_c, 0, 65, 101
4, 307727, Note_on_c, 0, 65, 0
4, 307727, Note_on_c, 0, 62, 0
4, 307920, Note_on_c, 0, 63, 101
4, 307920, Note_on_c, 0, 65, 101
4, 307920, Note_on_c, 0, 68, 101
4, 307967, Note_on_c, 0, 68, 0
4, 307967, Note_on_c, 0, 65, 0
4, 307967, Note_on_c, 0, 63, 0
4, 308160, Note_on_c, 0, 62, 101
4, 308160, Note_on_c, 0, 65, 101
4, 308207, Note_on_c, 0, 65, 0
4, 308207, Note_on_c, 0, 62, 0
4, 308400, Note_on_c, 0, 63, 101
4, 308400, Note_on_c, 0, 65, 101
4, 308400, Note_on_c, 0, 68, 101
4, 308447, Note_on_c, 0, 68, 0
4, 308447, Note_on_c, 0, 65, 0
4, 308447, Note_on_c, 0, 63, 0
4, 308640, Note_on_c, 0, 62, 101
4, 308640, Note_on_c, 0, 65, 101
4, 308687, Note_on_c, 0, 65, 0
4, 308687, Note_on_c, 0, 62, 0
4, 308880, Note_on_c, 0, 63, 101
4, 308880, Note_on_c, 0, 65, 101
4, 308880, Note_on_c, 0, 68, 101
4, 308927, Note_on_c, 0, 68, 0
4, 308927, Note_on_c, 0, 65, 0
4, 308927, Note_on_c, 0, 63, 0
4, 309120, Note_on_c, 0, 62, 101
4, 309120, Note_on_c, 0, 65, 101
4, 309360, Note_on_c, 0, 65, 0
4, 309360, Note_on_c, 0, 62, 0
4, 309360, Note_on_c, 0, 47, 101
4, 309360, Note_on_c, 0, 53, 101
4, 309360, Note_on_c, 0, 56, 101
4, 309480, Note_on_c, 0, 56, 0
4, 309480, Note_on_c, 0, 53, 0
4, 309480, Note_on_c, 0, 47, 0
4, 309480, Note_on_c, 0, 48, 101
4, 309600, Note_on_c, 0, 48, 0
4, 309600, Note_on_c, 0, 59, 127
4, 310080, Note_on_c, 0, 59, 0
4, 310080, Note_on_c, 0, 60, 127
4, 310560, Note_on_c, 0, 60, 0
4, 310560, Note_on_c, 0, 61, 127
4, 310680, Note_on_c, 0, 61, 0
4, 310680, Note_on_c, 0, 62, 101
4, 310800, Note_on_c, 0, 62, 0
4, 310800, Note_on_c, 0, 63, 101
4, 310920, Note_on_c, 0, 63, 0
4, 310920, Note_on_c, 0, 62, 101
4, 311040, Note_on_c, 0, 62, 0
4, 311040, Note_on_c, 0, 62, 101
4, 311280, Note_on_c, 0, 62, 0
4, 311280, Note_on_c, 0, 63, 101
4, 311280, Note_on_c, 0, 65, 101
4, 311280, Note_on_c, 0, 68, 101
4, 311327, Note_on_c, 0, 68, 0
4, 311327, Note_on_c, 0, 65, 0
4, 311327, Note_on_c, 0, 63, 0
4, 311520, Note_on_c, 0, 62, 101
4, 311520, Note_on_c, 0, 65, 101
4, 311567, Note_on_c, 0, 65, 0
4, 311567, Note_on_c, 0, 62, 0
4, 311760, Note_on_c, 0, 63, 101
4, 311760, Note_on_c, 0, 65, 101
4, 311760, Note_on_c, 0, 68, 101
4, 311807, Note_on_c, 0, 68, 0
4, 311807, Note_on_c, 0, 65, 0
4, 311807, Note_on_c, 0, 63, 0
4, 312000, Note_on_c, 0, 62, 101
4, 312000, Note_on_c, 0, 65, 101
4, 312047, Note_on_c, 0, 65, 0
4, 312047, Note_on_c, 0, 62, 0
4, 312240, Note_on_c, 0, 63, 101
4, 312240, Note_on_c, 0, 65, 101
4, 312240, Note_on_c, 0, 68, 101
4, 312287, Note_on_c, 0, 68, 0
4, 312287, Note_on_c, 0, 65, 0
4, 312287, Note_on_c, 0, 63, 0
4, 312480, Note_on_c, 0, 62, 101
4, 312480, Note_on_c, 0, 65, 101
4, 312527, Note_on_c, 0, 65, 0
4, 312527, Note_on_c, 0, 62, 0
4, 312720, Note_on_c, 0, 63, 101
4, 312720, Note_on_c, 0, 65, 101
4, 312720, Note_on_c, 0, 68, 101
4, 312767, Note_on_c, 0, 68, 0
4, 312767, Note_on_c, 0, 65, 0
4, 312767, Note_on_c, 0, 63, 0
4, 312960, Note_on_c, 0, 62, 101
4, 312960, Note_on_c, 0, 65, 101
4, 313200, Note_on_c, 0, 65, 0
4, 313200, Note_on_c, 0, 62, 0
4, 313200, Note_on_c, 0, 50, 101
4, 313200, Note_on_c, 0, 56, 101
4, 313200, Note_on_c, 0, 59, 101
4, 313320, Note_on_c, 0, 59, 0
4, 313320, Note_on_c, 0, 56, 0
4, 313320, Note_on_c, 0, 50, 0
4, 313320, Note_on_c, 0, 51, 101
4, 313440, Note_on_c, 0, 51, 0
4, 313440, Note_on_c, 0, 62, 127
4, 313920, Note_on_c, 0, 62, 0
4, 313920, Note_on_c, 0, 63, 127
4, 314400, Note_on_c, 0, 63, 0
4, 314400, Note_on_c, 0, 64, 127
4, 314520, Note_on_c, 0, 64, 0
4, 314520, Note_on_c, 0, 65, 101
4, 314640, Note_on_c, 0, 65, 0
4, 314640, Note_on_c, 0, 66, 101
4, 314760, Note_on_c, 0, 66, 0
4, 314760, Note_on_c, 0, 65, 101
4, 314880, Note_on_c, 0, 65, 0
4, 314880, Note_on_c, 0, 65, 101
4, 315120, Note_on_c, 0, 65, 0
4, 317040, Note_on_c, 0, 50, 101
4, 317040, Note_on_c, 0, 56, 101
4, 317040, Note_on_c, 0, 59, 101
4, 317160, Note_on_c, 0, 59, 0
4, 317160, Note_on_c, 0, 56, 0
4, 317160, Note_on_c, 0, 50, 0
4, 317160, Note_on_c, 0, 51, 101
4, 317280, Note_on_c, 0, 51, 0
4, 317280, Note_on_c, 0, 62, 127
4, 317760, Note_on_c, 0, 62, 0
4, 317760, Note_on_c, 0, 63, 127
4, 318240, Note_on_c, 0, 63, 0
4, 318240, Note_on_c, 0, 64, 127
4, 318360, Note_on_c, 0, 64, 0
4, 318360, Note_on_c, 0, 65, 101
4, 318480, Note_on_c, 0, 65, 0
4, 318480, Note_on_c, 0, 66, 101
4, 318600, Note_on_c, 0, 66, 0
4, 318600, Note_on_c, 0, 65, 101
4, 318720, Note_on_c, 0, 65, 0
4, 318720, Note_on_c, 0, 65, 101
4, 318960, Note_on_c, 0, 65, 0
4, 320880, Note_on_c, 0, 50, 49
4, 320880, Note_on_c, 0, 56, 49
4, 320880, Note_on_c, 0, 59, 49
4, 321120, Note_on_c, 0, 59, 0
4, 321120, Note_on_c, 0, 56, 0
4, 321120, Note_on_c, 0, 50, 0
4, 321120, Note_on_c, 0, 51, 49
4, 321120, Note_on_c, 0, 56, 49
4, 321120, Note_on_c, 0, 59, 49
4, 321360, Note_on_c, 0, 59, 0
4, 321360, Note_on_c, 0, 56, 0
4, 321360, Note_on_c, 0, 51, 0
4, 321360, Note_on_c, 0, 50, 49
4, 321360, Note_on_c, 0, 56, 49
4, 321360, Note_on_c, 0, 59, 49
4, 321600, Note_on_c, 0, 59, 0
4, 321600, Note_on_c, 0, 56, 0
4, 321600, Note_on_c, 0, 50, 0
4, 321600, Note_on_c, 0, 51, 49
4, 321600, Note_on_c, 0, 56, 49
4, 321600, Note_on_c, 0, 59, 49
4, 321840, Note_on_c, 0, 59, 0
4, 321840, Note_on_c, 0, 56, 0
4, 321840, Note_on_c, 0, 51, 0
4, 321840, Note_on_c, 0, 50, 49
4, 321840, Note_on_c, 0, 56, 49
4, 321840, Note_on_c, 0, 59, 49
4, 322080, Note_on_c, 0, 59, 0
4, 322080, Note_on_c, 0, 56, 0
4, 322080, Note_on_c, 0, 50, 0
4, 322080, Note_on_c, 0, 51, 49
4, 322080, Note_on_c, 0, 56, 49
4, 322080, Note_on_c, 0, 59, 49
4, 322320, Note_on_c, 0, 59, 0
4, 322320, Note_on_c, 0, 56, 0
4, 322320, Note_on_c, 0, 51, 0
4, 322320, Note_on_c, 0, 50, 49
4, 322320, Note_on_c, 0, 56, 49
4, 322320, Note_on_c, 0, 59, 49
4, 322560, Note_on_c, 0, 59, 0
4, 322560, Note_on_c, 0, 56, 0
4, 322560, Note_on_c, 0, 50, 0
4, 322560, Note_on_c, 0, 51, 49
4, 322560, Note_on_c, 0, 56, 49
4, 322560, Note_on_c, 0, 59, 49
4, 322800, Note_on_c, 0, 59, 0
4, 322800, Note_on_c, 0, 56, 0
4, 322800, Note_on_c, 0, 51, 0
4, 322800, Note_on_c, 0, 50, 49
4, 322800, Note_on_c, 0, 56, 49
4, 322800, Note_on_c, 0, 59, 49
4, 323040, Note_on_c, 0, 59, 0
4, 323040, Note_on_c, 0, 56, 0
4, 323040, Note_on_c, 0, 50, 0
4, 323040, Note_on_c, 0, 51, 49
4, 323040, Note_on_c, 0, 56, 49
4, 323040, Note_on_c, 0, 59, 49
4, 323280, Note_on_c, 0, 59, 0
4, 323280, Note_on_c, 0, 56, 0
4, 323280, Note_on_c, 0, 51, 0
4, 323280, Note_on_c, 0, 50, 49
4, 323280, Note_on_c, 0, 56, 49
4, 323280, Note_on_c, 0, 59, 49
4, 323520, Note_on_c, 0, 59, 0
4, 323520, Note_on_c, 0, 56, 0
4, 323520, Note_on_c, 0, 50, 0
4, 323520, Note_on_c, 0, 51, 49
4, 323520, Note_on_c, 0, 56, 49
4, 323520, Note_on_c, 0, 59, 49
4, 323760, Note_on_c, 0, 59, 0
4, 323760, Note_on_c, 0, 56, 0
4, 323760, Note_on_c, 0, 51, 0
4, 323760, Note_on_c, 0, 50, 49
4, 323760, Note_on_c, 0, 56, 49
4, 323760, Note_on_c, 0, 59, 49
4, 324000, Note_on_c, 0, 59, 0
4, 324000, Note_on_c, 0, 56, 0
4, 324000, Note_on_c, 0, 50, 0
4, 324000, Note_on_c, 0, 51, 49
4, 324000, Note_on_c, 0, 56, 49
4, 324000, Note_on_c, 0, 59, 49
4, 324240, Note_on_c, 0, 59, 0
4, 324240, Note_on_c, 0, 56, 0
4, 324240, Note_on_c, 0, 51, 0
4, 324240, Note_on_c, 0, 50, 49
4, 324240, Note_on_c, 0, 56, 49
4, 324240, Note_on_c, 0, 59, 49
4, 324480, Note_on_c, 0, 59, 0
4, 324480, Note_on_c, 0, 56, 0
4, 324480, Note_on_c, 0, 50, 0
4, 324480, Note_on_c, 0, 51, 49
4, 324480, Note_on_c, 0, 56, 49
4, 324480, Note_on_c, 0, 59, 49
4, 324720, Note_on_c, 0, 59, 0
4, 324720, Note_on_c, 0, 56, 0
4, 324720, Note_on_c, 0, 51, 0
4, 324720, Note_on_c, 0, 50, 49
4, 324720, Note_on_c, 0, 56, 49
4, 324720, Note_on_c, 0, 59, 49
4, 324960, Note_on_c, 0, 59, 0
4, 324960, Note_on_c, 0, 56, 0
4, 324960, Note_on_c, 0, 50, 0
4, 324960, Note_on_c, 0, 51, 75
4, 324960, Note_on_c, 0, 56, 75
4, 324960, Note_on_c, 0, 59, 75
4, 325200, Note_on_c, 0, 59, 0
4, 325200, Note_on_c, 0, 56, 0
4, 325200, Note_on_c, 0, 51, 0
4, 325200, Note_on_c, 0, 50, 75
4, 325200, Note_on_c, 0, 56, 75
4, 325200, Note_on_c, 0, 59, 75
4, 325440, Note_on_c, 0, 59, 0
4, 325440, Note_on_c, 0, 56, 0
4, 325440, Note_on_c, 0, 50, 0
4, 325440, Note_on_c, 0, 51, 75
4, 325440, Note_on_c, 0, 56, 75
4, 325440, Note_on_c, 0, 59, 75
4, 325680, Note_on_c, 0, 59, 0
4, 325680, Note_on_c, 0, 56, 0
4, 325680, Note_on_c, 0, 51, 0
4, 325680, Note_on_c, 0, 50, 75
4, 325680, Note_on_c, 0, 56, 75
4, 325680, Note_on_c, 0, 59, 75
4, 325920, Note_on_c, 0, 59, 0
4, 325920, Note_on_c, 0, 56, 0
4, 325920, Note_on_c, 0, 50, 0
4, 325920, Note_on_c, 0, 51, 75
4, 325920, Note_on_c, 0, 56, 75
4, 325920, Note_on_c, 0, 59, 75
4, 326160, Note_on_c, 0, 59, 0
4, 326160, Note_on_c, 0, 56, 0
4, 326160, Note_on_c, 0, 51, 0
4, 326160, Note_on_c, 0, 50, 75
4, 326160, Note_on_c, 0, 56, 75
4, 326160, Note_on_c, 0, 59, 75
4, 326400, Note_on_c, 0, 59, 0
4, 326400, Note_on_c, 0, 56, 0
4, 326400, Note_on_c, 0, 50, 0
4, 326400, Note_on_c, 0, 51, 75
4, 326400, Note_on_c, 0, 56, 75
4, 326400, Note_on_c, 0, 59, 75
4, 326640, Note_on_c, 0, 59, 0
4, 326640, Note_on_c, 0, 56, 0
4, 326640, Note_on_c, 0, 51, 0
4, 326640, Note_on_c, 0, 50, 75
4, 326640, Note_on_c, 0, 56, 75
4, 326640, Note_on_c, 0, 59, 75
4, 326880, Note_on_c, 0, 59, 0
4, 326880, Note_on_c, 0, 56, 0
4, 326880, Note_on_c, 0, 50, 0
4, 326880, Note_on_c, 0, 51, 75
4, 326880, Note_on_c, 0, 56, 75
4, 326880, Note_on_c, 0, 59, 75
4, 327120, Note_on_c, 0, 59, 0
4, 327120, Note_on_c, 0, 56, 0
4, 327120, Note_on_c, 0, 51, 0
4, 327120, Note_on_c, 0, 50, 75
4, 327120, Note_on_c, 0, 56, 75
4, 327120, Note_on_c, 0, 59, 75
4, 327360, Note_on_c, 0, 59, 0
4, 327360, Note_on_c, 0, 56, 0
4, 327360, Note_on_c, 0, 50, 0
4, 327360, Note_on_c, 0, 51, 75
4, 327360, Note_on_c, 0, 56, 75
4, 327360, Note_on_c, 0, 59, 75
4, 327600, Note_on_c, 0, 59, 0
4, 327600, Note_on_c, 0, 56, 0
4, 327600, Note_on_c, 0, 51, 0
4, 327600, Note_on_c, 0, 50, 75
4, 327600, Note_on_c, 0, 56, 75
4, 327600, Note_on_c, 0, 59, 75
4, 327840, Note_on_c, 0, 59, 0
4, 327840, Note_on_c, 0, 56, 0
4, 327840, Note_on_c, 0, 50, 0
4, 327840, Note_on_c, 0, 51, 75
4, 327840, Note_on_c, 0, 56, 75
4, 327840, Note_on_c, 0, 59, 75
4, 328080, Note_on_c, 0, 59, 0
4, 328080, Note_on_c, 0, 56, 0
4, 328080, Note_on_c, 0, 51, 0
4, 328080, Note_on_c, 0, 50, 75
4, 328080, Note_on_c, 0, 56, 75
4, 328080, Note_on_c, 0, 59, 75
4, 328320, Note_on_c, 0, 59, 0
4, 328320, Note_on_c, 0, 56, 0
4, 328320, Note_on_c, 0, 50, 0
4, 328320, Note_on_c, 0, 51, 75
4, 328320, Note_on_c, 0, 56, 75
4, 328320, Note_on_c, 0, 59, 75
4, 328560, Note_on_c, 0, 59, 0
4, 328560, Note_on_c, 0, 56, 0
4, 328560, Note_on_c, 0, 51, 0
4, 328560, Note_on_c, 0, 50, 75
4, 328560, Note_on_c, 0, 56, 75
4, 328560, Note_on_c, 0, 59, 75
4, 328800, Note_on_c, 0, 59, 0
4, 328800, Note_on_c, 0, 56, 0
4, 328800, Note_on_c, 0, 50, 0
4, 328800, Note_on_c, 0, 51, 75
4, 328800, Note_on_c, 0, 56, 75
4, 328800, Note_on_c, 0, 59, 75
4, 329040, Note_on_c, 0, 59, 0
4, 329040, Note_on_c, 0, 56, 0
4, 329040, Note_on_c, 0, 51, 0
4, 329040, Note_on_c, 0, 50, 75
4, 329040, Note_on_c, 0, 56, 75
4, 329040, Note_on_c, 0, 59, 75
4, 329280, Note_on_c, 0, 59, 0
4, 329280, Note_on_c, 0, 56, 0
4, 329280, Note_on_c, 0, 50, 0
4, 329280, Note_on_c, 0, 51, 75
4, 329280, Note_on_c, 0, 56, 75
4, 329280, Note_on_c, 0, 59, 75
4, 329520, Note_on_c, 0, 59, 0
4, 329520, Note_on_c, 0, 56, 0
4, 329520, Note_on_c, 0, 51, 0
4, 329520, Note_on_c, 0, 50, 75
4, 329520, Note_on_c, 0, 56, 75
4, 329520, Note_on_c, 0, 59, 75
4, 329760, Note_on_c, 0, 59, 0
4, 329760, Note_on_c, 0, 56, 0
4, 329760, Note_on_c, 0, 50, 0
4, 329760, Note_on_c, 0, 51, 75
4, 329760, Note_on_c, 0, 56, 75
4, 329760, Note_on_c, 0, 59, 75
4, 330000, Note_on_c, 0, 59, 0
4, 330000, Note_on_c, 0, 56, 0
4, 330000, Note_on_c, 0, 51, 0
4, 330000, Note_on_c, 0, 50, 75
4, 330000, Note_on_c, 0, 56, 75
4, 330000, Note_on_c, 0, 59, 75
4, 330240, Note_on_c, 0, 59, 0
4, 330240, Note_on_c, 0, 56, 0
4, 330240, Note_on_c, 0, 50, 0
4, 330240, Note_on_c, 0, 51, 75
4, 330240, Note_on_c, 0, 56, 75
4, 330240, Note_on_c, 0, 59, 75
4, 330480, Note_on_c, 0, 59, 0
4, 330480, Note_on_c, 0, 56, 0
4, 330480, Note_on_c, 0, 51, 0
4, 330480, Note_on_c, 0, 50, 75
4, 330480, Note_on_c, 0, 56, 75
4, 330480, Note_on_c, 0, 59, 75
4, 330720, Note_on_c, 0, 59, 0
4, 330720, Note_on_c, 0, 56, 0
4, 330720, Note_on_c, 0, 50, 0
4, 330720, Note_on_c, 0, 51, 75
4, 330720, Note_on_c, 0, 56, 75
4, 330720, Note_on_c, 0, 59, 75
4, 330960, Note_on_c, 0, 59, 0
4, 330960, Note_on_c, 0, 56, 0
4, 330960, Note_on_c, 0, 51, 0
4, 330960, Note_on_c, 0, 50, 88
4, 330960, Note_on_c, 0, 56, 88
4, 330960, Note_on_c, 0, 59, 88
4, 331200, Note_on_c, 0, 59, 0
4, 331200, Note_on_c, 0, 56, 0
4, 331200, Note_on_c, 0, 50, 0
4, 331200, Note_on_c, 0, 51, 88
4, 331200, Note_on_c, 0, 56, 88
4, 331200, Note_on_c, 0, 59, 88
4, 331440, Note_on_c, 0, 59, 0
4, 331440, Note_on_c, 0, 56, 0
4, 331440, Note_on_c, 0, 51, 0
4, 331440, Note_on_c, 0, 50, 88
4, 331440, Note_on_c, 0, 56, 88
4, 331440, Note_on_c, 0, 59, 88
4, 331680, Note_on_c, 0, 59, 0
4, 331680, Note_on_c, 0, 56, 0
4, 331680, Note_on_c, 0, 50, 0
4, 331680, Note_on_c, 0, 51, 88
4, 331680, Note_on_c, 0, 56, 88
4, 331680, Note_on_c, 0, 59, 88
4, 331800, Note_on_c, 0, 59, 0
4, 331800, Note_on_c, 0, 56, 0
4, 331800, Note_on_c, 0, 51, 0
4, 331920, Note_on_c, 0, 51, 88
4, 331920, Note_on_c, 0, 58, 88
4, 331920, Note_on_c, 0, 61, 88
4, 331920, Note_on_c, 0, 63, 88
4, 332040, Note_on_c, 0, 63, 0
4, 332040, Note_on_c, 0, 51, 0
4, 332040, Note_on_c, 0, 58, 0
4, 332040, Note_on_c, 0, 61, 0
4, 332160, Note_on_c, 0, 56, 88
4, 332160, Note_on_c, 0, 59, 88
4, 332160, Note_on_c, 0, 63, 88
4, 332280, Note_on_c, 0, 63, 0
4, 332280, Note_on_c, 0, 59, 0
4, 332280, Note_on_c, 0, 56, 0
4, 332400, Note_on_c, 0, 32, 114
4, 332400, Note_on_c, 0, 44, 114
4, 332880, Note_on_c, 0, 44, 0
4, 332880, Note_on_c, 0, 32, 0
4, 334080, Control_c, 0, 64, 127
4, 334080, Note_on_c, 0, 56, 49
4, 334200, Note_on_c, 0, 56, 0
4, 334200, Note_on_c, 0, 56, 49
4, 334320, Note_on_c, 0, 56, 0
4, 334320, Note_on_c, 0, 56, 49
4, 334440, Note_on_c, 0, 56, 0
4, 334440, Note_on_c, 0, 56, 49
4, 334560, Note_on_c, 0, 56, 0
4, 334560, Note_on_c, 0, 56, 49
4, 334680, Note_on_c, 0, 56, 0
4, 334680, Note_on_c, 0, 56, 49
4, 334800, Note_on_c, 0, 56, 0
4, 334800, Note_on_c, 0, 56, 49
4, 334920, Note_on_c, 0, 56, 0
4, 334920, Note_on_c, 0, 56, 49
4, 335040, Note_on_c, 0, 56, 0
4, 335040, Note_on_c, 0, 56, 49
4, 335160, Note_on_c, 0, 56, 0
4, 335160, Note_on_c, 0, 56, 49
4, 335280, Note_on_c, 0, 56, 0
4, 335280, Note_on_c, 0, 56, 49
4, 335400, Note_on_c, 0, 56, 0
4, 335400, Control_c, 0, 64, 0
4, 335400, Note_on_c, 0, 56, 49
4, 335520, Note_on_c, 0, 56, 0
4, 335520, Control_c, 0, 64, 127
4, 335520, Note_on_c, 0, 56, 49
4, 335520, Note_on_c, 0, 59, 49
4, 335640, Note_on_c, 0, 59, 0
4, 335640, Note_on_c, 0, 56, 0
4, 335640, Note_on_c, 0, 56, 49
4, 335640, Note_on_c, 0, 59, 49
4, 335760, Note_on_c, 0, 59, 0
4, 335760, Note_on_c, 0, 56, 0
4, 335760, Note_on_c, 0, 56, 49
4, 335760, Note_on_c, 0, 59, 49
4, 335880, Note_on_c, 0, 59, 0
4, 335880, Note_on_c, 0, 56, 0
4, 335880, Note_on_c, 0, 56, 49
4, 335880, Note_on_c, 0, 59, 49
4, 336000, Note_on_c, 0, 59, 0
4, 336000, Note_on_c, 0, 56, 0
4, 336000, Note_on_c, 0, 56, 49
4, 336000, Note_on_c, 0, 59, 49
4, 336120, Note_on_c, 0, 59, 0
4, 336120, Note_on_c, 0, 56, 0
4, 336120, Note_on_c, 0, 56, 49
4, 336120, Note_on_c, 0, 59, 49
4, 336240, Note_on_c, 0, 59, 0
4, 336240, Note_on_c, 0, 56, 0
4, 336240, Note_on_c, 0, 52, 49
4, 336240, Note_on_c, 0, 56, 49
4, 336240, Note_on_c, 0, 59, 49
4, 336360, Note_on_c, 0, 59, 0
4, 336360, Note_on_c, 0, 56, 0
4, 336360, Note_on_c, 0, 52, 0
4, 336360, Note_on_c, 0, 52, 49
4, 336360, Note_on_c, 0, 56, 49
4, 336360, Note_on_c, 0, 59, 49
4, 336480, Note_on_c, 0, 59, 0
4, 336480, Note_on_c, 0, 56, 0
4, 336480, Note_on_c, 0, 52, 0
4, 336480, Note_on_c, 0, 52, 49
4, 336480, Note_on_c, 0, 56, 49
4, 336480, Note_on_c, 0, 59, 49
4, 336600, Note_on_c, 0, 59, 0
4, 336600, Note_on_c, 0, 56, 0
4, 336600, Note_on_c, 0, 52, 0
4, 336600, Note_on_c, 0, 52, 49
4, 336600, Note_on_c, 0, 56, 49
4, 336600, Note_on_c, 0, 59, 49
4, 336720, Note_on_c, 0, 59, 0
4, 336720, Note_on_c, 0, 56, 0
4, 336720, Note_on_c, 0, 52, 0
4, 336720, Note_on_c, 0, 52, 49
4, 336720, Note_on_c, 0, 56, 49
4, 336720, Note_on_c, 0, 59, 49
4, 336840, Note_on_c, 0, 59, 0
4, 336840, Note_on_c, 0, 56, 0
4, 336840, Note_on_c, 0, 52, 0
4, 336840, Control_c, 0, 64, 0
4, 336840, Note_on_c, 0, 52, 49
4, 336840, Note_on_c, 0, 56, 49
4, 336840, Note_on_c, 0, 59, 49
4, 336960, Note_on_c, 0, 59, 0
4, 336960, Note_on_c, 0, 56, 0
4, 336960, Note_on_c, 0, 52, 0
4, 336960, Control_c, 0, 64, 127
4, 336960, Note_on_c, 0, 52, 49
4, 336960, Note_on_c, 0, 56, 49
4, 336960, Note_on_c, 0, 59, 49
4, 337080, Note_on_c, 0, 59, 0
4, 337080, Note_on_c, 0, 56, 0
4, 337080, Note_on_c, 0, 52, 0
4, 337080, Note_on_c, 0, 52, 49
4, 337080, Note_on_c, 0, 56, 49
4, 337080, Note_on_c, 0, 59, 49
4, 337200, Note_on_c, 0, 59, 0
4, 337200, Note_on_c, 0, 56, 0
4, 337200, Note_on_c, 0, 52, 0
4, 337200, Note_on_c, 0, 52, 49
4, 337200, Note_on_c, 0, 56, 49
4, 337200, Note_on_c, 0, 59, 49
4, 337320, Note_on_c, 0, 59, 0
4, 337320, Note_on_c, 0, 56, 0
4, 337320, Note_on_c, 0, 52, 0
4, 337320, Note_on_c, 0, 52, 49
4, 337320, Note_on_c, 0, 56, 49
4, 337320, Note_on_c, 0, 59, 49
4, 337440, Note_on_c, 0, 59, 0
4, 337440, Note_on_c, 0, 56, 0
4, 337440, Note_on_c, 0, 52, 0
4, 337440, Note_on_c, 0, 52, 49
4, 337440, Note_on_c, 0, 56, 49
4, 337440, Note_on_c, 0, 59, 49
4, 337560, Note_on_c, 0, 59, 0
4, 337560, Note_on_c, 0, 56, 0
4, 337560, Note_on_c, 0, 52, 0
4, 337560, Control_c, 0, 64, 0
4, 337560, Note_on_c, 0, 52, 49
4, 337560, Note_on_c, 0, 56, 49
4, 337560, Note_on_c, 0, 59, 49
4, 337680, Note_on_c, 0, 59, 0
4, 337680, Note_on_c, 0, 56, 0
4, 337680, Note_on_c, 0, 52, 0
4, 337680, Control_c, 0, 64, 127
4, 337680, Note_on_c, 0, 52, 49
4, 337680, Note_on_c, 0, 57, 49
4, 337680, Note_on_c, 0, 59, 49
4, 337800, Note_on_c, 0, 59, 0
4, 337800, Note_on_c, 0, 57, 0
4, 337800, Note_on_c, 0, 52, 0
4, 337800, Note_on_c, 0, 52, 49
4, 337800, Note_on_c, 0, 57, 49
4, 337800, Note_on_c, 0, 59, 49
4, 337920, Note_on_c, 0, 59, 0
4, 337920, Note_on_c, 0, 57, 0
4, 337920, Note_on_c, 0, 52, 0
4, 337920, Note_on_c, 0, 52, 49
4, 337920, Note_on_c, 0, 57, 49
4, 337920, Note_on_c, 0, 59, 49
4, 338040, Note_on_c, 0, 59, 0
4, 338040, Note_on_c, 0, 57, 0
4, 338040, Note_on_c, 0, 52, 0
4, 338040, Note_on_c, 0, 52, 49
4, 338040, Note_on_c, 0, 57, 49
4, 338040, Note_on_c, 0, 59, 49
4, 338160, Note_on_c, 0, 59, 0
4, 338160, Note_on_c, 0, 57, 0
4, 338160, Note_on_c, 0, 52, 0
4, 338160, Note_on_c, 0, 52, 49
4, 338160, Note_on_c, 0, 57, 49
4, 338160, Note_on_c, 0, 59, 49
4, 338280, Note_on_c, 0, 59, 0
4, 338280, Note_on_c, 0, 57, 0
4, 338280, Note_on_c, 0, 52, 0
4, 338280, Note_on_c, 0, 52, 49
4, 338280, Note_on_c, 0, 57, 49
4, 338280, Note_on_c, 0, 59, 49
4, 338400, Note_on_c, 0, 59, 0
4, 338400, Note_on_c, 0, 57, 0
4, 338400, Note_on_c, 0, 52, 0
4, 338400, Note_on_c, 0, 52, 49
4, 338400, Note_on_c, 0, 57, 49
4, 338400, Note_on_c, 0, 59, 49
4, 338520, Note_on_c, 0, 59, 0
4, 338520, Note_on_c, 0, 57, 0
4, 338520, Note_on_c, 0, 52, 0
4, 338520, Note_on_c, 0, 52, 49
4, 338520, Note_on_c, 0, 57, 49
4, 338520, Note_on_c, 0, 59, 49
4, 338640, Note_on_c, 0, 59, 0
4, 338640, Note_on_c, 0, 57, 0
4, 338640, Note_on_c, 0, 52, 0
4, 338640, Note_on_c, 0, 52, 49
4, 338640, Note_on_c, 0, 57, 49
4, 338640, Note_on_c, 0, 59, 49
4, 338760, Note_on_c, 0, 59, 0
4, 338760, Note_on_c, 0, 57, 0
4, 338760, Note_on_c, 0, 52, 0
4, 338760, Note_on_c, 0, 52, 49
4, 338760, Note_on_c, 0, 57, 49
4, 338760, Note_on_c, 0, 59, 49
4, 338880, Note_on_c, 0, 59, 0
4, 338880, Note_on_c, 0, 57, 0
4, 338880, Note_on_c, 0, 52, 0
4, 338880, Note_on_c, 0, 52, 49
4, 338880, Note_on_c, 0, 57, 49
4, 338880, Note_on_c, 0, 59, 49
4, 339000, Note_on_c, 0, 59, 0
4, 339000, Note_on_c, 0, 57, 0
4, 339000, Note_on_c, 0, 52, 0
4, 339000, Note_on_c, 0, 52, 49
4, 339000, Note_on_c, 0, 57, 49
4, 339000, Note_on_c, 0, 59, 49
4, 339120, Note_on_c, 0, 59, 0
4, 339120, Note_on_c, 0, 57, 0
4, 339120, Note_on_c, 0, 52, 0
4, 339120, Note_on_c, 0, 52, 49
4, 339120, Note_on_c, 0, 57, 49
4, 339120, Note_on_c, 0, 59, 49
4, 339240, Note_on_c, 0, 59, 0
4, 339240, Note_on_c, 0, 57, 0
4, 339240, Note_on_c, 0, 52, 0
4, 339240, Note_on_c, 0, 52, 49
4, 339240, Note_on_c, 0, 57, 49
4, 339240, Note_on_c, 0, 59, 49
4, 339360, Note_on_c, 0, 59, 0
4, 339360, Note_on_c, 0, 57, 0
4, 339360, Note_on_c, 0, 52, 0
4, 339360, Note_on_c, 0, 52, 49
4, 339360, Note_on_c, 0, 57, 49
4, 339360, Note_on_c, 0, 59, 49
4, 339480, Note_on_c, 0, 59, 0
4, 339480, Note_on_c, 0, 57, 0
4, 339480, Note_on_c, 0, 52, 0
4, 339480, Note_on_c, 0, 52, 49
4, 339480, Note_on_c, 0, 57, 49
4, 339480, Note_on_c, 0, 59, 49
4, 339600, Note_on_c, 0, 59, 0
4, 339600, Note_on_c, 0, 57, 0
4, 339600, Note_on_c, 0, 52, 0
4, 339600, Note_on_c, 0, 52, 49
4, 339600, Note_on_c, 0, 57, 49
4, 339600, Note_on_c, 0, 59, 49
4, 339720, Note_on_c, 0, 59, 0
4, 339720, Note_on_c, 0, 57, 0
4, 339720, Note_on_c, 0, 52, 0
4, 339720, Control_c, 0, 64, 0
4, 339720, Note_on_c, 0, 52, 49
4, 339720, Note_on_c, 0, 57, 49
4, 339720, Note_on_c, 0, 59, 49
4, 339840, Note_on_c, 0, 59, 0
4, 339840, Note_on_c, 0, 57, 0
4, 339840, Note_on_c, 0, 52, 0
4, 339840, Control_c, 0, 64, 127
4, 339840, Note_on_c, 0, 52, 49
4, 339840, Note_on_c, 0, 56, 49
4, 339840, Note_on_c, 0, 59, 49
4, 339960, Note_on_c, 0, 59, 0
4, 339960, Note_on_c, 0, 56, 0
4, 339960, Note_on_c, 0, 52, 0
4, 339960, Note_on_c, 0, 52, 49
4, 339960, Note_on_c, 0, 56, 49
4, 339960, Note_on_c, 0, 59, 49
4, 340080, Note_on_c, 0, 59, 0
4, 340080, Note_on_c, 0, 56, 0
4, 340080, Note_on_c, 0, 52, 0
4, 340080, Note_on_c, 0, 52, 49
4, 340080, Note_on_c, 0, 56, 49
4, 340080, Note_on_c, 0, 59, 49
4, 340200, Note_on_c, 0, 59, 0
4, 340200, Note_on_c, 0, 56, 0
4, 340200, Note_on_c, 0, 52, 0
4, 340200, Note_on_c, 0, 52, 49
4, 340200, Note_on_c, 0, 56, 49
4, 340200, Note_on_c, 0, 59, 49
4, 340320, Note_on_c, 0, 59, 0
4, 340320, Note_on_c, 0, 56, 0
4, 340320, Note_on_c, 0, 52, 0
4, 340320, Note_on_c, 0, 52, 49
4, 340320, Note_on_c, 0, 56, 49
4, 340320, Note_on_c, 0, 59, 49
4, 340440, Note_on_c, 0, 59, 0
4, 340440, Note_on_c, 0, 56, 0
4, 340440, Note_on_c, 0, 52, 0
4, 340440, Control_c, 0, 64, 0
4, 340440, Note_on_c, 0, 52, 49
4, 340440, Note_on_c, 0, 56, 49
4, 340440, Note_on_c, 0, 59, 49
4, 340560, Note_on_c, 0, 59, 0
4, 340560, Note_on_c, 0, 56, 0
4, 340560, Note_on_c, 0, 52, 0
4, 340560, Control_c, 0, 64, 127
4, 340560, Note_on_c, 0, 52, 49
4, 340560, Note_on_c, 0, 56, 49
4, 340560, Note_on_c, 0, 58, 49
4, 340560, Note_on_c, 0, 61, 49
4, 340680, Note_on_c, 0, 61, 0
4, 340680, Note_on_c, 0, 52, 0
4, 340680, Note_on_c, 0, 56, 0
4, 340680, Note_on_c, 0, 58, 0
4, 340680, Note_on_c, 0, 52, 49
4, 340680, Note_on_c, 0, 56, 49
4, 340680, Note_on_c, 0, 58, 49
4, 340680, Note_on_c, 0, 61, 49
4, 340800, Note_on_c, 0, 61, 0
4, 340800, Note_on_c, 0, 52, 0
4, 340800, Note_on_c, 0, 56, 0
4, 340800, Note_on_c, 0, 58, 0
4, 340800, Note_on_c, 0, 52, 49
4, 340800, Note_on_c, 0, 56, 49
4, 340800, Note_on_c, 0, 58, 49
4, 340800, Note_on_c, 0, 61, 49
4, 340920, Note_on_c, 0, 61, 0
4, 340920, Note_on_c, 0, 52, 0
4, 340920, Note_on_c, 0, 56, 0
4, 340920, Note_on_c, 0, 58, 0
4, 340920, Note_on_c, 0, 52, 49
4, 340920, Note_on_c, 0, 56, 49
4, 340920, Note_on_c, 0, 58, 49
4, 340920, Note_on_c, 0, 61, 49
4, 341040, Note_on_c, 0, 61, 0
4, 341040, Note_on_c, 0, 52, 0
4, 341040, Note_on_c, 0, 56, 0
4, 341040, Note_on_c, 0, 58, 0
4, 341040, Note_on_c, 0, 52, 49
4, 341040, Note_on_c, 0, 56, 49
4, 341040, Note_on_c, 0, 58, 49
4, 341040, Note_on_c, 0, 61, 49
4, 341160, Note_on_c, 0, 61, 0
4, 341160, Note_on_c, 0, 52, 0
4, 341160, Note_on_c, 0, 56, 0
4, 341160, Note_on_c, 0, 58, 0
4, 341160, Control_c, 0, 64, 0
4, 341160, Note_on_c, 0, 52, 49
4, 341160, Note_on_c, 0, 56, 49
4, 341160, Note_on_c, 0, 58, 49
4, 341160, Note_on_c, 0, 61, 49
4, 341280, Note_on_c, 0, 61, 0
4, 341280, Note_on_c, 0, 52, 0
4, 341280, Note_on_c, 0, 56, 0
4, 341280, Note_on_c, 0, 58, 0
4, 341280, Control_c, 0, 64, 127
4, 341280, Note_on_c, 0, 54, 49
4, 341280, Note_on_c, 0, 58, 49
4, 341280, Note_on_c, 0, 59, 49
4, 341400, Note_on_c, 0, 59, 0
4, 341400, Note_on_c, 0, 58, 0
4, 341400, Note_on_c, 0, 54, 0
4, 341400, Note_on_c, 0, 54, 49
4, 341400, Note_on_c, 0, 58, 49
4, 341400, Note_on_c, 0, 59, 49
4, 341520, Note_on_c, 0, 59, 0
4, 341520, Note_on_c, 0, 58, 0
4, 341520, Note_on_c, 0, 54, 0
4, 341520, Note_on_c, 0, 54, 49
4, 341520, Note_on_c, 0, 58, 49
4, 341520, Note_on_c, 0, 59, 49
4, 341640, Note_on_c, 0, 59, 0
4, 341640, Note_on_c, 0, 58, 0
4, 341640, Note_on_c, 0, 54, 0
4, 341640, Note_on_c, 0, 54, 49
4, 341640, Note_on_c, 0, 58, 49
4, 341640, Note_on_c, 0, 59, 49
4, 341760, Note_on_c, 0, 59, 0
4, 341760, Note_on_c, 0, 58, 0
4, 341760, Note_on_c, 0, 54, 0
4, 341760, Note_on_c, 0, 54, 49
4, 341760, Note_on_c, 0, 58, 49
4, 341760, Note_on_c, 0, 59, 49
4, 341880, Note_on_c, 0, 59, 0
4, 341880, Note_on_c, 0, 58, 0
4, 341880, Note_on_c, 0, 54, 0
4, 341880, Note_on_c, 0, 54, 49
4, 341880, Note_on_c, 0, 58, 49
4, 341880, Note_on_c, 0, 59, 49
4, 342000, Note_on_c, 0, 59, 0
4, 342000, Note_on_c, 0, 58, 0
4, 342000, Note_on_c, 0, 54, 0
4, 342000, Note_on_c, 0, 54, 49
4, 342000, Note_on_c, 0, 58, 49
4, 342000, Note_on_c, 0, 59, 49
4, 342120, Note_on_c, 0, 59, 0
4, 342120, Note_on_c, 0, 58, 0
4, 342120, Note_on_c, 0, 54, 0
4, 342120, Note_on_c, 0, 54, 49
4, 342120, Note_on_c, 0, 58, 49
4, 342120, Note_on_c, 0, 59, 49
4, 342240, Note_on_c, 0, 59, 0
4, 342240, Note_on_c, 0, 58, 0
4, 342240, Note_on_c, 0, 54, 0
4, 342240, Note_on_c, 0, 54, 49
4, 342240, Note_on_c, 0, 58, 49
4, 342240, Note_on_c, 0, 59, 49
4, 342360, Note_on_c, 0, 59, 0
4, 342360, Note_on_c, 0, 58, 0
4, 342360, Note_on_c, 0, 54, 0
4, 342360, Note_on_c, 0, 54, 49
4, 342360, Note_on_c, 0, 58, 49
4, 342360, Note_on_c, 0, 59, 49
4, 342480, Note_on_c, 0, 59, 0
4, 342480, Note_on_c, 0, 58, 0
4, 342480, Note_on_c, 0, 54, 0
4, 342480, Note_on_c, 0, 54, 49
4, 342480, Note_on_c, 0, 58, 49
4, 342480, Note_on_c, 0, 59, 49
4, 342600, Note_on_c, 0, 59, 0
4, 342600, Note_on_c, 0, 58, 0
4, 342600, Note_on_c, 0, 54, 0
4, 342600, Control_c, 0, 64, 0
4, 342600, Note_on_c, 0, 54, 49
4, 342600, Note_on_c, 0, 58, 49
4, 342600, Note_on_c, 0, 59, 49
4, 342720, Note_on_c, 0, 59, 0
4, 342720, Note_on_c, 0, 58, 0
4, 342720, Note_on_c, 0, 54, 0
4, 342720, Control_c, 0, 64, 127
4, 342720, Note_on_c, 0, 52, 49
4, 342720, Note_on_c, 0, 56, 49
4, 342720, Note_on_c, 0, 59, 49
4, 342840, Note_on_c, 0, 59, 0
4, 342840, Note_on_c, 0, 56, 0
4, 342840, Note_on_c, 0, 52, 0
4, 342840, Note_on_c, 0, 52, 49
4, 342840, Note_on_c, 0, 56, 49
4, 342840, Note_on_c, 0, 59, 49
4, 342960, Note_on_c, 0, 59, 0
4, 342960, Note_on_c, 0, 56, 0
4, 342960, Note_on_c, 0, 52, 0
4, 342960, Note_on_c, 0, 52, 49
4, 342960, Note_on_c, 0, 56, 49
4, 342960, Note_on_c, 0, 59, 49
4, 343080, Note_on_c, 0, 59, 0
4, 343080, Note_on_c, 0, 56, 0
4, 343080, Note_on_c, 0, 52, 0
4, 343080, Note_on_c, 0, 52, 49
4, 343080, Note_on_c, 0, 56, 49
4, 343080, Note_on_c, 0, 59, 49
4, 343200, Note_on_c, 0, 59, 0
4, 343200, Note_on_c, 0, 56, 0
4, 343200, Note_on_c, 0, 52, 0
4, 343200, Note_on_c, 0, 52, 49
4, 343200, Note_on_c, 0, 56, 49
4, 343200, Note_on_c, 0, 59, 49
4, 343320, Note_on_c, 0, 59, 0
4, 343320, Note_on_c, 0, 56, 0
4, 343320, Note_on_c, 0, 52, 0
4, 343320, Control_c, 0, 64, 0
4, 343320, Note_on_c, 0, 52, 49
4, 343320, Note_on_c, 0, 56, 49
4, 343320, Note_on_c, 0, 59, 49
4, 343440, Note_on_c, 0, 59, 0
4, 343440, Note_on_c, 0, 56, 0
4, 343440, Note_on_c, 0, 52, 0
4, 343440, Control_c, 0, 64, 127
4, 343440, Note_on_c, 0, 52, 49
4, 343440, Note_on_c, 0, 57, 49
4, 343440, Note_on_c, 0, 59, 49
4, 343560, Note_on_c, 0, 59, 0
4, 343560, Note_on_c, 0, 57, 0
4, 343560, Note_on_c, 0, 52, 0
4, 343560, Note_on_c, 0, 52, 49
4, 343560, Note_on_c, 0, 57, 49
4, 343560, Note_on_c, 0, 59, 49
4, 343680, Note_on_c, 0, 59, 0
4, 343680, Note_on_c, 0, 57, 0
4, 343680, Note_on_c, 0, 52, 0
4, 343680, Note_on_c, 0, 52, 49
4, 343680, Note_on_c, 0, 57, 49
4, 343680, Note_on_c, 0, 59, 49
4, 343800, Note_on_c, 0, 59, 0
4, 343800, Note_on_c, 0, 57, 0
4, 343800, Note_on_c, 0, 52, 0
4, 343800, Note_on_c, 0, 52, 49
4, 343800, Note_on_c, 0, 57, 49
4, 343800, Note_on_c, 0, 59, 49
4, 343920, Note_on_c, 0, 59, 0
4, 343920, Note_on_c, 0, 57, 0
4, 343920, Note_on_c, 0, 52, 0
4, 343920, Note_on_c, 0, 52, 49
4, 343920, Note_on_c, 0, 57, 49
4, 343920, Note_on_c, 0, 59, 49
4, 344040, Note_on_c, 0, 59, 0
4, 344040, Note_on_c, 0, 57, 0
4, 344040, Note_on_c, 0, 52, 0
4, 344040, Note_on_c, 0, 52, 49
4, 344040, Note_on_c, 0, 57, 49
4, 344040, Note_on_c, 0, 59, 49
4, 344160, Note_on_c, 0, 59, 0
4, 344160, Note_on_c, 0, 57, 0
4, 344160, Note_on_c, 0, 52, 0
4, 344160, Note_on_c, 0, 52, 49
4, 344160, Note_on_c, 0, 57, 49
4, 344160, Note_on_c, 0, 59, 49
4, 344280, Note_on_c, 0, 59, 0
4, 344280, Note_on_c, 0, 57, 0
4, 344280, Note_on_c, 0, 52, 0
4, 344280, Note_on_c, 0, 52, 49
4, 344280, Note_on_c, 0, 57, 49
4, 344280, Note_on_c, 0, 59, 49
4, 344400, Note_on_c, 0, 59, 0
4, 344400, Note_on_c, 0, 57, 0
4, 344400, Note_on_c, 0, 52, 0
4, 344400, Note_on_c, 0, 52, 49
4, 344400, Note_on_c, 0, 57, 49
4, 344400, Note_on_c, 0, 59, 49
4, 344520, Note_on_c, 0, 59, 0
4, 344520, Note_on_c, 0, 57, 0
4, 344520, Note_on_c, 0, 52, 0
4, 344520, Note_on_c, 0, 52, 49
4, 344520, Note_on_c, 0, 57, 49
4, 344520, Note_on_c, 0, 59, 49
4, 344640, Note_on_c, 0, 59, 0
4, 344640, Note_on_c, 0, 57, 0
4, 344640, Note_on_c, 0, 52, 0
4, 344640, Note_on_c, 0, 52, 49
4, 344640, Note_on_c, 0, 57, 49
4, 344640, Note_on_c, 0, 59, 49
4, 344760, Note_on_c, 0, 59, 0
4, 344760, Note_on_c, 0, 57, 0
4, 344760, Note_on_c, 0, 52, 0
4, 344760, Note_on_c, 0, 52, 49
4, 344760, Note_on_c, 0, 57, 49
4, 344760, Note_on_c, 0, 59, 49
4, 344880, Note_on_c, 0, 59, 0
4, 344880, Note_on_c, 0, 57, 0
4, 344880, Note_on_c, 0, 52, 0
4, 344880, Note_on_c, 0, 52, 49
4, 344880, Note_on_c, 0, 57, 49
4, 344880, Note_on_c, 0, 59, 49
4, 345000, Note_on_c, 0, 59, 0
4, 345000, Note_on_c, 0, 57, 0
4, 345000, Note_on_c, 0, 52, 0
4, 345000, Note_on_c, 0, 52, 49
4, 345000, Note_on_c, 0, 57, 49
4, 345000, Note_on_c, 0, 59, 49
4, 345120, Note_on_c, 0, 59, 0
4, 345120, Note_on_c, 0, 57, 0
4, 345120, Note_on_c, 0, 52, 0
4, 345120, Note_on_c, 0, 52, 49
4, 345120, Note_on_c, 0, 57, 49
4, 345120, Note_on_c, 0, 59, 49
4, 345240, Note_on_c, 0, 59, 0
4, 345240, Note_on_c, 0, 57, 0
4, 345240, Note_on_c, 0, 52, 0
4, 345240, Note_on_c, 0, 52, 49
4, 345240, Note_on_c, 0, 57, 49
4, 345240, Note_on_c, 0, 59, 49
4, 345360, Note_on_c, 0, 59, 0
4, 345360, Note_on_c, 0, 57, 0
4, 345360, Note_on_c, 0, 52, 0
4, 345360, Note_on_c, 0, 52, 49
4, 345360, Note_on_c, 0, 57, 49
4, 345360, Note_on_c, 0, 59, 49
4, 345480, Note_on_c, 0, 59, 0
4, 345480, Note_on_c, 0, 57, 0
4, 345480, Note_on_c, 0, 52, 0
4, 345480, Control_c, 0, 64, 0
4, 345480, Note_on_c, 0, 52, 49
4, 345480, Note_on_c, 0, 57, 49
4, 345480, Note_on_c, 0, 59, 49
4, 345600, Note_on_c, 0, 59, 0
4, 345600, Note_on_c, 0, 57, 0
4, 345600, Note_on_c, 0, 52, 0
4, 345600, Control_c, 0, 64, 127
4, 345600, Note_on_c, 0, 52, 49
4, 345600, Note_on_c, 0, 56, 49
4, 345600, Note_on_c, 0, 59, 49
4, 345720, Note_on_c, 0, 59, 0
4, 345720, Note_on_c, 0, 56, 0
4, 345720, Note_on_c, 0, 52, 0
4, 345720, Note_on_c, 0, 52, 49
4, 345720, Note_on_c, 0, 56, 49
4, 345720, Note_on_c, 0, 59, 49
4, 345840, Note_on_c, 0, 59, 0
4, 345840, Note_on_c, 0, 56, 0
4, 345840, Note_on_c, 0, 52, 0
4, 345840, Note_on_c, 0, 52, 49
4, 345840, Note_on_c, 0, 56, 49
4, 345840, Note_on_c, 0, 59, 49
4, 345960, Note_on_c, 0, 59, 0
4, 345960, Note_on_c, 0, 56, 0
4, 345960, Note_on_c, 0, 52, 0
4, 345960, Note_on_c, 0, 52, 49
4, 345960, Note_on_c, 0, 56, 49
4, 345960, Note_on_c, 0, 59, 49
4, 346080, Note_on_c, 0, 59, 0
4, 346080, Note_on_c, 0, 56, 0
4, 346080, Note_on_c, 0, 52, 0
4, 346080, Note_on_c, 0, 52, 49
4, 346080, Note_on_c, 0, 56, 49
4, 346080, Note_on_c, 0, 59, 49
4, 346200, Note_on_c, 0, 59, 0
4, 346200, Note_on_c, 0, 56, 0
4, 346200, Note_on_c, 0, 52, 0
4, 346200, Control_c, 0, 64, 0
4, 346200, Note_on_c, 0, 52, 49
4, 346200, Note_on_c, 0, 56, 49
4, 346200, Note_on_c, 0, 59, 49
4, 346320, Note_on_c, 0, 59, 0
4, 346320, Note_on_c, 0, 56, 0
4, 346320, Note_on_c, 0, 52, 0
4, 346320, Control_c, 0, 64, 127
4, 346320, Note_on_c, 0, 49, 49
4, 346320, Note_on_c, 0, 56, 49
4, 346320, Note_on_c, 0, 61, 49
4, 346440, Note_on_c, 0, 61, 0
4, 346440, Note_on_c, 0, 56, 0
4, 346440, Note_on_c, 0, 49, 0
4, 346440, Note_on_c, 0, 49, 49
4, 346440, Note_on_c, 0, 56, 49
4, 346440, Note_on_c, 0, 61, 49
4, 346560, Note_on_c, 0, 61, 0
4, 346560, Note_on_c, 0, 56, 0
4, 346560, Note_on_c, 0, 49, 0
4, 346560, Note_on_c, 0, 49, 49
4, 346560, Note_on_c, 0, 56, 49
4, 346560, Note_on_c, 0, 61, 49
4, 346680, Note_on_c, 0, 61, 0
4, 346680, Note_on_c, 0, 56, 0
4, 346680, Note_on_c, 0, 49, 0
4, 346680, Note_on_c, 0, 49, 49
4, 346680, Note_on_c, 0, 56, 49
4, 346680, Note_on_c, 0, 61, 49
4, 346800, Note_on_c, 0, 61, 0
4, 346800, Note_on_c, 0, 56, 0
4, 346800, Note_on_c, 0, 49, 0
4, 346800, Note_on_c, 0, 49, 49
4, 346800, Note_on_c, 0, 56, 49
4, 346800, Note_on_c, 0, 61, 49
4, 346920, Note_on_c, 0, 61, 0
4, 346920, Note_on_c, 0, 56, 0
4, 346920, Note_on_c, 0, 49, 0
4, 346920, Control_c, 0, 64, 0
4, 346920, Note_on_c, 0, 49, 49
4, 346920, Note_on_c, 0, 56, 49
4, 346920, Note_on_c, 0, 61, 49
4, 347040, Note_on_c, 0, 61, 0
4, 347040, Note_on_c, 0, 56, 0
4, 347040, Note_on_c, 0, 49, 0
4, 347040, Control_c, 0, 64, 127
4, 347040, Note_on_c, 0, 51, 49
4, 347040, Note_on_c, 0, 61, 49
4, 347160, Note_on_c, 0, 61, 0
4, 347160, Note_on_c, 0, 51, 0
4, 347160, Note_on_c, 0, 51, 49
4, 347160, Note_on_c, 0, 61, 49
4, 347280, Note_on_c, 0, 61, 0
4, 347280, Note_on_c, 0, 51, 0
4, 347280, Note_on_c, 0, 51, 49
4, 347280, Note_on_c, 0, 61, 49
4, 347400, Note_on_c, 0, 61, 0
4, 347400, Note_on_c, 0, 51, 0
4, 347400, Note_on_c, 0, 51, 49
4, 347400, Note_on_c, 0, 61, 49
4, 347520, Note_on_c, 0, 61, 0
4, 347520, Note_on_c, 0, 51, 0
4, 347520, Note_on_c, 0, 51, 49
4, 347520, Note_on_c, 0, 61, 49
4, 347640, Note_on_c, 0, 61, 0
4, 347640, Note_on_c, 0, 51, 0
4, 347640, Control_c, 0, 64, 0
4, 347640, Note_on_c, 0, 51, 49
4, 347640, Note_on_c, 0, 61, 49
4, 347760, Note_on_c, 0, 61, 0
4, 347760, Note_on_c, 0, 51, 0
4, 347760, Control_c, 0, 64, 127
4, 347760, Note_on_c, 0, 56, 49
4, 347760, Note_on_c, 0, 59, 49
4, 347880, Note_on_c, 0, 59, 0
4, 347880, Note_on_c, 0, 56, 0
4, 347880, Note_on_c, 0, 56, 49
4, 347880, Note_on_c, 0, 59, 49
4, 348000, Note_on_c, 0, 59, 0
4, 348000, Note_on_c, 0, 56, 0
4, 348000, Note_on_c, 0, 56, 49
4, 348000, Note_on_c, 0, 59, 49
4, 348120, Note_on_c, 0, 59, 0
4, 348120, Note_on_c, 0, 56, 0
4, 348120, Note_on_c, 0, 56, 49
4, 348120, Note_on_c, 0, 59, 49
4, 348240, Note_on_c, 0, 59, 0
4, 348240, Note_on_c, 0, 56, 0
4, 348240, Note_on_c, 0, 56, 49
4, 348240, Note_on_c, 0, 59, 49
4, 348360, Note_on_c, 0, 59, 0
4, 348360, Note_on_c, 0, 56, 0
4, 348360, Note_on_c, 0, 56, 49
4, 348360, Note_on_c, 0, 59, 49
4, 348480, Note_on_c, 0, 59, 0
4, 348480, Note_on_c, 0, 56, 0
4, 348480, Note_on_c, 0, 56, 49
4, 348480, Note_on_c, 0, 59, 49
4, 348600, Note_on_c, 0, 59, 0
4, 348600, Note_on_c, 0, 56, 0
4, 348600, Note_on_c, 0, 56, 49
4, 348600, Note_on_c, 0, 59, 49
4, 348720, Note_on_c, 0, 59, 0
4, 348720, Note_on_c, 0, 56, 0
4, 348720, Note_on_c, 0, 56, 49
4, 348720, Note_on_c, 0, 59, 49
4, 348840, Note_on_c, 0, 59, 0
4, 348840, Note_on_c, 0, 56, 0
4, 348840, Note_on_c, 0, 56, 49
4, 348840, Note_on_c, 0, 59, 49
4, 348960, Note_on_c, 0, 59, 0
4, 348960, Note_on_c, 0, 56, 0
4, 348960, Note_on_c, 0, 56, 49
4, 348960, Note_on_c, 0, 59, 49
4, 349080, Note_on_c, 0, 59, 0
4, 349080, Note_on_c, 0, 56, 0
4, 349080, Control_c, 0, 64, 0
4, 349080, Note_on_c, 0, 56, 49
4, 349080, Note_on_c, 0, 59, 49
4, 349200, Note_on_c, 0, 59, 0
4, 349200, Note_on_c, 0, 56, 0
4, 349200, Note_on_c, 0, 54, 62
4, 349200, Note_on_c, 0, 57, 62
4, 349200, Note_on_c, 0, 59, 62
4, 349320, Note_on_c, 0, 59, 0
4, 349320, Note_on_c, 0, 57, 0
4, 349320, Note_on_c, 0, 54, 0
4, 349320, Note_on_c, 0, 54, 62
4, 349320, Note_on_c, 0, 57, 62
4, 349320, Note_on_c, 0, 59, 62
4, 349440, Note_on_c, 0, 59, 0
4, 349440, Note_on_c, 0, 57, 0
4, 349440, Note_on_c, 0, 54, 0
4, 349440, Note_on_c, 0, 52, 62
4, 349440, Note_on_c, 0, 57, 62
4, 349440, Note_on_c, 0, 59, 62
4, 349560, Note_on_c, 0, 59, 0
4, 349560, Note_on_c, 0, 57, 0
4, 349560, Note_on_c, 0, 52, 0
4, 349560, Note_on_c, 0, 52, 62
4, 349560, Note_on_c, 0, 57, 62
4, 349560, Note_on_c, 0, 59, 62
4, 349680, Note_on_c, 0, 59, 0
4, 349680, Note_on_c, 0, 57, 0
4, 349680, Note_on_c, 0, 52, 0
4, 349680, Note_on_c, 0, 51, 62
4, 349680, Note_on_c, 0, 57, 62
4, 349680, Note_on_c, 0, 59, 62
4, 349800, Note_on_c, 0, 59, 0
4, 349800, Note_on_c, 0, 57, 0
4, 349800, Note_on_c, 0, 51, 0
4, 349800, Note_on_c, 0, 51, 62
4, 349800, Note_on_c, 0, 57, 62
4, 349800, Note_on_c, 0, 59, 62
4, 349920, Note_on_c, 0, 59, 0
4, 349920, Note_on_c, 0, 57, 0
4, 349920, Note_on_c, 0, 51, 0
4, 350160, Note_on_c, 0, 60, 62
4, 350400, Note_on_c, 0, 60, 0
4, 350400, Note_on_c, 0, 61, 62
4, 350640, Note_on_c, 0, 61, 0
4, 350640, Note_on_c, 0, 62, 62
4, 350880, Note_on_c, 0, 62, 0
4, 350880, Note_on_c, 0, 63, 62
4, 351120, Note_on_c, 0, 63, 0
4, 351120, Note_on_c, 0, 64, 62
4, 351360, Note_on_c, 0, 64, 0
4, 351360, Note_on_c, 0, 63, 62
4, 352260, Note_on_c, 0, 63, 0
4, 352800, Control_c, 0, 64, 127
4, 352800, Note_on_c, 0, 52, 49
4, 352800, Note_on_c, 0, 56, 49
4, 352800, Note_on_c, 0, 59, 49
4, 352920, Note_on_c, 0, 59, 0
4, 352920, Note_on_c, 0, 56, 0
4, 352920, Note_on_c, 0, 52, 0
4, 352920, Note_on_c, 0, 52, 49
4, 352920, Note_on_c, 0, 56, 49
4, 352920, Note_on_c, 0, 59, 49
4, 353040, Note_on_c, 0, 59, 0
4, 353040, Note_on_c, 0, 56, 0
4, 353040, Note_on_c, 0, 52, 0
4, 353040, Note_on_c, 0, 52, 49
4, 353040, Note_on_c, 0, 56, 49
4, 353040, Note_on_c, 0, 59, 49
4, 353160, Note_on_c, 0, 59, 0
4, 353160, Note_on_c, 0, 56, 0
4, 353160, Note_on_c, 0, 52, 0
4, 353160, Note_on_c, 0, 52, 49
4, 353160, Note_on_c, 0, 56, 49
4, 353160, Note_on_c, 0, 59, 49
4, 353280, Note_on_c, 0, 59, 0
4, 353280, Note_on_c, 0, 56, 0
4, 353280, Note_on_c, 0, 52, 0
4, 353280, Note_on_c, 0, 52, 49
4, 353280, Note_on_c, 0, 56, 49
4, 353280, Note_on_c, 0, 59, 49
4, 353400, Note_on_c, 0, 59, 0
4, 353400, Note_on_c, 0, 56, 0
4, 353400, Note_on_c, 0, 52, 0
4, 353400, Note_on_c, 0, 52, 49
4, 353400, Note_on_c, 0, 56, 49
4, 353400, Note_on_c, 0, 59, 49
4, 353520, Note_on_c, 0, 59, 0
4, 353520, Note_on_c, 0, 56, 0
4, 353520, Note_on_c, 0, 52, 0
4, 353520, Note_on_c, 0, 52, 49
4, 353520, Note_on_c, 0, 56, 49
4, 353520, Note_on_c, 0, 59, 49
4, 353640, Note_on_c, 0, 59, 0
4, 353640, Note_on_c, 0, 56, 0
4, 353640, Note_on_c, 0, 52, 0
4, 353640, Note_on_c, 0, 52, 49
4, 353640, Note_on_c, 0, 56, 49
4, 353640, Note_on_c, 0, 59, 49
4, 353760, Note_on_c, 0, 59, 0
4, 353760, Note_on_c, 0, 56, 0
4, 353760, Note_on_c, 0, 52, 0
4, 353760, Note_on_c, 0, 52, 49
4, 353760, Note_on_c, 0, 56, 49
4, 353760, Note_on_c, 0, 59, 49
4, 353880, Note_on_c, 0, 59, 0
4, 353880, Note_on_c, 0, 56, 0
4, 353880, Note_on_c, 0, 52, 0
4, 353880, Note_on_c, 0, 52, 49
4, 353880, Note_on_c, 0, 56, 49
4, 353880, Note_on_c, 0, 59, 49
4, 354000, Note_on_c, 0, 59, 0
4, 354000, Note_on_c, 0, 56, 0
4, 354000, Note_on_c, 0, 52, 0
4, 354120, Control_c, 0, 64, 0
4, 354120, Note_on_c, 0, 52, 49
4, 354120, Note_on_c, 0, 56, 49
4, 354120, Note_on_c, 0, 59, 49
4, 354240, Note_on_c, 0, 59, 0
4, 354240, Note_on_c, 0, 56, 0
4, 354240, Note_on_c, 0, 52, 0
4, 354240, Control_c, 0, 64, 127
4, 354240, Note_on_c, 0, 52, 49
4, 354240, Note_on_c, 0, 54, 49
4, 354240, Note_on_c, 0, 57, 49
4, 354240, Note_on_c, 0, 59, 49
4, 354360, Note_on_c, 0, 59, 0
4, 354360, Note_on_c, 0, 52, 0
4, 354360, Note_on_c, 0, 54, 0
4, 354360, Note_on_c, 0, 57, 0
4, 354360, Note_on_c, 0, 52, 49
4, 354360, Note_on_c, 0, 54, 49
4, 354360, Note_on_c, 0, 57, 49
4, 354360, Note_on_c, 0, 59, 49
4, 354480, Note_on_c, 0, 59, 0
4, 354480, Note_on_c, 0, 52, 0
4, 354480, Note_on_c, 0, 54, 0
4, 354480, Note_on_c, 0, 57, 0
4, 354480, Note_on_c, 0, 52, 49
4, 354480, Note_on_c, 0, 54, 49
4, 354480, Note_on_c, 0, 57, 49
4, 354480, Note_on_c, 0, 59, 49
4, 354600, Note_on_c, 0, 59, 0
4, 354600, Note_on_c, 0, 52, 0
4, 354600, Note_on_c, 0, 54, 0
4, 354600, Note_on_c, 0, 57, 0
4, 354600, Note_on_c, 0, 52, 49
4, 354600, Note_on_c, 0, 54, 49
4, 354600, Note_on_c, 0, 57, 49
4, 354600, Note_on_c, 0, 59, 49
4, 354720, Note_on_c, 0, 59, 0
4, 354720, Note_on_c, 0, 52, 0
4, 354720, Note_on_c, 0, 54, 0
4, 354720, Note_on_c, 0, 57, 0
4, 354720, Note_on_c, 0, 52, 49
4, 354720, Note_on_c, 0, 54, 49
4, 354720, Note_on_c, 0, 57, 49
4, 354720, Note_on_c, 0, 59, 49
4, 354840, Note_on_c, 0, 59, 0
4, 354840, Note_on_c, 0, 52, 0
4, 354840, Note_on_c, 0, 54, 0
4, 354840, Note_on_c, 0, 57, 0
4, 354840, Note_on_c, 0, 52, 49
4, 354840, Note_on_c, 0, 54, 49
4, 354840, Note_on_c, 0, 57, 49
4, 354840, Note_on_c, 0, 59, 49
4, 354960, Note_on_c, 0, 59, 0
4, 354960, Note_on_c, 0, 52, 0
4, 354960, Note_on_c, 0, 54, 0
4, 354960, Note_on_c, 0, 57, 0
4, 354960, Note_on_c, 0, 52, 49
4, 354960, Note_on_c, 0, 54, 49
4, 354960, Note_on_c, 0, 57, 49
4, 354960, Note_on_c, 0, 59, 49
4, 355080, Note_on_c, 0, 59, 0
4, 355080, Note_on_c, 0, 52, 0
4, 355080, Note_on_c, 0, 54, 0
4, 355080, Note_on_c, 0, 57, 0
4, 355080, Note_on_c, 0, 52, 49
4, 355080, Note_on_c, 0, 54, 49
4, 355080, Note_on_c, 0, 57, 49
4, 355080, Note_on_c, 0, 59, 49
4, 355200, Note_on_c, 0, 59, 0
4, 355200, Note_on_c, 0, 52, 0
4, 355200, Note_on_c, 0, 54, 0
4, 355200, Note_on_c, 0, 57, 0
4, 355200, Note_on_c, 0, 52, 49
4, 355200, Note_on_c, 0, 54, 49
4, 355200, Note_on_c, 0, 57, 49
4, 355200, Note_on_c, 0, 59, 49
4, 355320, Note_on_c, 0, 59, 0
4, 355320, Note_on_c, 0, 52, 0
4, 355320, Note_on_c, 0, 54, 0
4, 355320, Note_on_c, 0, 57, 0
4, 355320, Note_on_c, 0, 52, 49
4, 355320, Note_on_c, 0, 54, 49
4, 355320, Note_on_c, 0, 57, 49
4, 355320, Note_on_c, 0, 59, 49
4, 355440, Note_on_c, 0, 59, 0
4, 355440, Note_on_c, 0, 52, 0
4, 355440, Note_on_c, 0, 54, 0
4, 355440, Note_on_c, 0, 57, 0
4, 355440, Note_on_c, 0, 52, 49
4, 355440, Note_on_c, 0, 54, 49
4, 355440, Note_on_c, 0, 57, 49
4, 355440, Note_on_c, 0, 59, 49
4, 355560, Note_on_c, 0, 59, 0
4, 355560, Note_on_c, 0, 52, 0
4, 355560, Note_on_c, 0, 54, 0
4, 355560, Note_on_c, 0, 57, 0
4, 355560, Control_c, 0, 64, 0
4, 355560, Note_on_c, 0, 52, 49
4, 355560, Note_on_c, 0, 54, 49
4, 355560, Note_on_c, 0, 57, 49
4, 355560, Note_on_c, 0, 59, 49
4, 355680, Note_on_c, 0, 59, 0
4, 355680, Note_on_c, 0, 52, 0
4, 355680, Note_on_c, 0, 54, 0
4, 355680, Note_on_c, 0, 57, 0
4, 355920, Note_on_c, 0, 60, 62
4, 356160, Note_on_c, 0, 60, 0
4, 356160, Note_on_c, 0, 61, 62
4, 356400, Note_on_c, 0, 61, 0
4, 356400, Note_on_c, 0, 62, 62
4, 357120, Note_on_c, 0, 62, 0
4, 357120, Note_on_c, 0, 63, 62
4, 357600, Note_on_c, 0, 63, 0
4, 357600, Note_on_c, 0, 62, 62
4, 357840, Note_on_c, 0, 62, 0
4, 357840, Note_on_c, 0, 63, 62
4, 358080, Note_on_c, 0, 63, 0
4, 358080, Note_on_c, 0, 65, 62
4, 358320, Note_on_c, 0, 65, 0
4, 358320, Note_on_c, 0, 67, 62
4, 358560, Note_on_c, 0, 67, 0
4, 358560, Note_on_c, 0, 68, 62
4, 358800, Note_on_c, 0, 68, 0
4, 358800, Note_on_c, 0, 70, 62
4, 359040, Note_on_c, 0, 70, 0
4, 360000, Control_c, 0, 64, 127
4, 360000, Note_on_c, 0, 52, 49
4, 360000, Note_on_c, 0, 59, 49
4, 360000, Note_on_c, 0, 68, 49
4, 360120, Note_on_c, 0, 68, 0
4, 360120, Note_on_c, 0, 59, 0
4, 360120, Note_on_c, 0, 52, 0
4, 360120, Note_on_c, 0, 52, 49
4, 360120, Note_on_c, 0, 56, 49
4, 360240, Note_on_c, 0, 56, 0
4, 360240, Note_on_c, 0, 52, 0
4, 360240, Note_on_c, 0, 52, 49
4, 360240, Note_on_c, 0, 56, 49
4, 360240, Note_on_c, 0, 59, 49
4, 360360, Note_on_c, 0, 59, 0
4, 360360, Note_on_c, 0, 56, 0
4, 360360, Note_on_c, 0, 52, 0
4, 360360, Note_on_c, 0, 52, 49
4, 360360, Note_on_c, 0, 56, 49
4, 360360, Note_on_c, 0, 59, 49
4, 360480, Note_on_c, 0, 59, 0
4, 360480, Note_on_c, 0, 56, 0
4, 360480, Note_on_c, 0, 52, 0
4, 360480, Note_on_c, 0, 52, 49
4, 360480, Note_on_c, 0, 56, 49
4, 360480, Note_on_c, 0, 59, 49
4, 360600, Note_on_c, 0, 59, 0
4, 360600, Note_on_c, 0, 56, 0
4, 360600, Note_on_c, 0, 52, 0
4, 360600, Control_c, 0, 64, 0
4, 360600, Note_on_c, 0, 52, 49
4, 360600, Note_on_c, 0, 56, 49
4, 360600, Note_on_c, 0, 59, 49
4, 360720, Note_on_c, 0, 59, 0
4, 360720, Note_on_c, 0, 56, 0
4, 360720, Note_on_c, 0, 52, 0
4, 360720, Control_c, 0, 64, 127
4, 360720, Note_on_c, 0, 52, 49
4, 360720, Note_on_c, 0, 57, 49
4, 360840, Note_on_c, 0, 57, 0
4, 360840, Note_on_c, 0, 52, 0
4, 360840, Note_on_c, 0, 52, 49
4, 360840, Note_on_c, 0, 57, 49
4, 360960, Note_on_c, 0, 57, 0
4, 360960, Note_on_c, 0, 52, 0
4, 360960, Note_on_c, 0, 52, 49
4, 360960, Note_on_c, 0, 57, 49
4, 361080, Note_on_c, 0, 57, 0
4, 361080, Note_on_c, 0, 52, 0
4, 361080, Note_on_c, 0, 52, 49
4, 361080, Note_on_c, 0, 57, 49
4, 361200, Note_on_c, 0, 57, 0
4, 361200, Note_on_c, 0, 52, 0
4, 361200, Note_on_c, 0, 52, 49
4, 361200, Note_on_c, 0, 57, 49
4, 361200, Note_on_c, 0, 59, 49
4, 361320, Note_on_c, 0, 59, 0
4, 361320, Note_on_c, 0, 57, 0
4, 361320, Note_on_c, 0, 52, 0
4, 361320, Note_on_c, 0, 52, 49
4, 361320, Note_on_c, 0, 57, 49
4, 361320, Note_on_c, 0, 59, 49
4, 361440, Note_on_c, 0, 59, 0
4, 361440, Note_on_c, 0, 57, 0
4, 361440, Note_on_c, 0, 52, 0
4, 361440, Note_on_c, 0, 52, 49
4, 361440, Note_on_c, 0, 57, 49
4, 361440, Note_on_c, 0, 59, 49
4, 361560, Note_on_c, 0, 59, 0
4, 361560, Note_on_c, 0, 57, 0
4, 361560, Note_on_c, 0, 52, 0
4, 361560, Note_on_c, 0, 52, 49
4, 361560, Note_on_c, 0, 57, 49
4, 361560, Note_on_c, 0, 59, 49
4, 361680, Note_on_c, 0, 59, 0
4, 361680, Note_on_c, 0, 57, 0
4, 361680, Note_on_c, 0, 52, 0
4, 361680, Note_on_c, 0, 52, 49
4, 361680, Note_on_c, 0, 57, 49
4, 361680, Note_on_c, 0, 59, 49
4, 361800, Note_on_c, 0, 59, 0
4, 361800, Note_on_c, 0, 57, 0
4, 361800, Note_on_c, 0, 52, 0
4, 361800, Note_on_c, 0, 52, 49
4, 361800, Note_on_c, 0, 57, 49
4, 361800, Note_on_c, 0, 59, 49
4, 361920, Note_on_c, 0, 59, 0
4, 361920, Note_on_c, 0, 57, 0
4, 361920, Note_on_c, 0, 52, 0
4, 361920, Note_on_c, 0, 52, 49
4, 361920, Note_on_c, 0, 57, 49
4, 361920, Note_on_c, 0, 59, 49
4, 362040, Note_on_c, 0, 59, 0
4, 362040, Note_on_c, 0, 57, 0
4, 362040, Note_on_c, 0, 52, 0
4, 362040, Control_c, 0, 64, 0
4, 362040, Note_on_c, 0, 52, 49
4, 362040, Note_on_c, 0, 57, 49
4, 362040, Note_on_c, 0, 59, 49
4, 362160, Note_on_c, 0, 59, 0
4, 362160, Note_on_c, 0, 57, 0
4, 362160, Note_on_c, 0, 52, 0
4, 362160, Note_on_c, 0, 52, 49
4, 362160, Note_on_c, 0, 59, 49
4, 362160, Note_on_c, 0, 64, 49
4, 362280, Note_on_c, 0, 64, 0
4, 362280, Note_on_c, 0, 59, 0
4, 362280, Note_on_c, 0, 52, 0
4, 362280, Note_on_c, 0, 52, 49
4, 362280, Note_on_c, 0, 59, 49
4, 362280, Note_on_c, 0, 64, 49
4, 362400, Note_on_c, 0, 64, 0
4, 362400, Note_on_c, 0, 59, 0
4, 362400, Note_on_c, 0, 52, 0
4, 362400, Note_on_c, 0, 52, 49
4, 362400, Note_on_c, 0, 59, 49
4, 362400, Note_on_c, 0, 64, 49
4, 362520, Note_on_c, 0, 64, 0
4, 362520, Note_on_c, 0, 59, 0
4, 362520, Note_on_c, 0, 52, 0
4, 362520, Note_on_c, 0, 52, 49
4, 362520, Note_on_c, 0, 59, 49
4, 362520, Note_on_c, 0, 64, 49
4, 362640, Note_on_c, 0, 64, 0
4, 362640, Note_on_c, 0, 59, 0
4, 362640, Note_on_c, 0, 52, 0
4, 362640, Note_on_c, 0, 52, 49
4, 362640, Note_on_c, 0, 59, 49
4, 362640, Note_on_c, 0, 64, 49
4, 362760, Note_on_c, 0, 64, 0
4, 362760, Note_on_c, 0, 59, 0
4, 362760, Note_on_c, 0, 52, 0
4, 362760, Note_on_c, 0, 52, 49
4, 362760, Note_on_c, 0, 59, 49
4, 362760, Note_on_c, 0, 64, 49
4, 362880, Note_on_c, 0, 64, 0
4, 362880, Note_on_c, 0, 59, 0
4, 362880, Note_on_c, 0, 52, 0
4, 362880, Note_on_c, 0, 52, 49
4, 362880, Note_on_c, 0, 59, 49
4, 362880, Note_on_c, 0, 64, 49
4, 363000, Note_on_c, 0, 64, 0
4, 363000, Note_on_c, 0, 59, 0
4, 363000, Note_on_c, 0, 52, 0
4, 363000, Note_on_c, 0, 52, 49
4, 363000, Note_on_c, 0, 59, 49
4, 363000, Note_on_c, 0, 64, 49
4, 363120, Note_on_c, 0, 64, 0
4, 363120, Note_on_c, 0, 59, 0
4, 363120, Note_on_c, 0, 52, 0
4, 363120, Note_on_c, 0, 52, 49
4, 363120, Note_on_c, 0, 59, 49
4, 363120, Note_on_c, 0, 64, 49
4, 363240, Note_on_c, 0, 64, 0
4, 363240, Note_on_c, 0, 59, 0
4, 363240, Note_on_c, 0, 52, 0
4, 363240, Control_c, 0, 64, 0
4, 363240, Note_on_c, 0, 52, 49
4, 363240, Note_on_c, 0, 59, 49
4, 363240, Note_on_c, 0, 64, 49
4, 363360, Note_on_c, 0, 64, 0
4, 363360, Note_on_c, 0, 59, 0
4, 363360, Note_on_c, 0, 52, 0
4, 363360, Note_on_c, 0, 52, 49
4, 363360, Note_on_c, 0, 57, 49
4, 363360, Note_on_c, 0, 59, 49
4, 363480, Note_on_c, 0, 59, 0
4, 363480, Note_on_c, 0, 57, 0
4, 363480, Note_on_c, 0, 52, 0
4, 363480, Note_on_c, 0, 52, 49
4, 363480, Note_on_c, 0, 57, 49
4, 363480, Note_on_c, 0, 59, 49
4, 363600, Note_on_c, 0, 59, 0
4, 363600, Note_on_c, 0, 57, 0
4, 363600, Note_on_c, 0, 52, 0
4, 363600, Control_c, 0, 64, 127
4, 363600, Note_on_c, 0, 52, 49
4, 363600, Note_on_c, 0, 56, 49
4, 363600, Note_on_c, 0, 59, 49
4, 363720, Note_on_c, 0, 59, 0
4, 363720, Note_on_c, 0, 56, 0
4, 363720, Note_on_c, 0, 52, 0
4, 363720, Note_on_c, 0, 52, 49
4, 363720, Note_on_c, 0, 56, 49
4, 363840, Note_on_c, 0, 56, 0
4, 363840, Note_on_c, 0, 52, 0
4, 363840, Note_on_c, 0, 52, 49
4, 363840, Note_on_c, 0, 56, 49
4, 363960, Note_on_c, 0, 56, 0
4, 363960, Note_on_c, 0, 52, 0
4, 363960, Note_on_c, 0, 52, 49
4, 363960, Note_on_c, 0, 56, 49
4, 364080, Note_on_c, 0, 56, 0
4, 364080, Note_on_c, 0, 52, 0
4, 364080, Note_on_c, 0, 52, 49
4, 364080, Note_on_c, 0, 56, 49
4, 364200, Note_on_c, 0, 56, 0
4, 364200, Note_on_c, 0, 52, 0
4, 364200, Control_c, 0, 64, 0
4, 364200, Note_on_c, 0, 52, 49
4, 364200, Note_on_c, 0, 56, 49
4, 364320, Note_on_c, 0, 56, 0
4, 364320, Note_on_c, 0, 52, 0
4, 364320, Note_on_c, 0, 62, 62
4, 364560, Note_on_c, 0, 62, 0
4, 364560, Note_on_c, 0, 63, 62
4, 364800, Note_on_c, 0, 63, 0
4, 364800, Note_on_c, 0, 64, 62
4, 365040, Note_on_c, 0, 64, 0
4, 365040, Note_on_c, 0, 63, 62
4, 365280, Note_on_c, 0, 63, 0
4, 365280, Note_on_c, 0, 62, 62
4, 365520, Note_on_c, 0, 62, 0
4, 365520, Note_on_c, 0, 63, 62
4, 365760, Note_on_c, 0, 63, 0
4, 365760, Note_on_c, 0, 64, 62
4, 366000, Note_on_c, 0, 64, 0
4, 366240, Note_on_c, 0, 59, 62
4, 366480, Note_on_c, 0, 59, 0
4, 366480, Note_on_c, 0, 60, 62
4, 366720, Note_on_c, 0, 60, 0
4, 366720, Note_on_c, 0, 61, 62
4, 366960, Note_on_c, 0, 61, 0
4, 366960, Note_on_c, 0, 62, 62
4, 367200, Note_on_c, 0, 62, 0
4, 367200, Note_on_c, 0, 63, 62
4, 367440, Note_on_c, 0, 63, 0
4, 367440, Note_on_c, 0, 64, 62
4, 367680, Note_on_c, 0, 64, 0
4, 367680, Note_on_c, 0, 66, 62
4, 367920, Note_on_c, 0, 66, 0
4, 367920, Note_on_c, 0, 67, 62
4, 368160, Note_on_c, 0, 67, 0
4, 368160, Note_on_c, 0, 69, 62
4, 368400, Note_on_c, 0, 69, 0
4, 368400, Note_on_c, 0, 68, 62
4, 368640, Note_on_c, 0, 68, 0
4, 368640, Control_c, 0, 64, 127
4, 368640, Note_on_c, 0, 40, 62
4, 368640, Note_on_c, 0, 52, 62
4, 368760, Note_on_c, 0, 52, 0
4, 368760, Note_on_c, 0, 40, 0
4, 368760, Note_on_c, 0, 55, 62
4, 368760, Note_on_c, 0, 57, 62
4, 368760, Note_on_c, 0, 60, 62
4, 368880, Note_on_c, 0, 60, 0
4, 368880, Note_on_c, 0, 57, 0
4, 368880, Note_on_c, 0, 55, 0
4, 368880, Note_on_c, 0, 55, 62
4, 368880, Note_on_c, 0, 57, 62
4, 368880, Note_on_c, 0, 60, 62
4, 369000, Note_on_c, 0, 60, 0
4, 369000, Note_on_c, 0, 57, 0
4, 369000, Note_on_c, 0, 55, 0
4, 369000, Note_on_c, 0, 55, 62
4, 369000, Note_on_c, 0, 57, 62
4, 369000, Note_on_c, 0, 60, 62
4, 369120, Note_on_c, 0, 60, 0
4, 369120, Note_on_c, 0, 57, 0
4, 369120, Note_on_c, 0, 55, 0
4, 369120, Note_on_c, 0, 55, 62
4, 369120, Note_on_c, 0, 57, 62
4, 369120, Note_on_c, 0, 60, 62
4, 369240, Note_on_c, 0, 60, 0
4, 369240, Note_on_c, 0, 57, 0
4, 369240, Note_on_c, 0, 55, 0
4, 369240, Control_c, 0, 64, 0
4, 369240, Note_on_c, 0, 55, 62
4, 369240, Note_on_c, 0, 57, 62
4, 369240, Note_on_c, 0, 60, 62
4, 369360, Note_on_c, 0, 60, 0
4, 369360, Note_on_c, 0, 57, 0
4, 369360, Note_on_c, 0, 55, 0
4, 369360, Control_c, 0, 64, 127
4, 369360, Note_on_c, 0, 38, 75
4, 369360, Note_on_c, 0, 50, 75
4, 369480, Note_on_c, 0, 50, 0
4, 369480, Note_on_c, 0, 38, 0
4, 369480, Note_on_c, 0, 55, 75
4, 369480, Note_on_c, 0, 59, 75
4, 369480, Note_on_c, 0, 62, 75
4, 369600, Note_on_c, 0, 62, 0
4, 369600, Note_on_c, 0, 59, 0
4, 369600, Note_on_c, 0, 55, 0
4, 369600, Note_on_c, 0, 55, 75
4, 369600, Note_on_c, 0, 59, 75
4, 369600, Note_on_c, 0, 62, 75
4, 369720, Note_on_c, 0, 62, 0
4, 369720, Note_on_c, 0, 59, 0
4, 369720, Note_on_c, 0, 55, 0
4, 369720, Note_on_c, 0, 55, 75
4, 369720, Note_on_c, 0, 59, 75
4, 369720, Note_on_c, 0, 62, 75
4, 369840, Note_on_c, 0, 62, 0
4, 369840, Note_on_c, 0, 59, 0
4, 369840, Note_on_c, 0, 55, 0
4, 369840, Note_on_c, 0, 55, 75
4, 369840, Note_on_c, 0, 59, 75
4, 369840, Note_on_c, 0, 62, 75
4, 369960, Note_on_c, 0, 62, 0
4, 369960, Note_on_c, 0, 59, 0
4, 369960, Note_on_c, 0, 55, 0
4, 369960, Control_c, 0, 64, 0
4, 369960, Note_on_c, 0, 55, 75
4, 369960, Note_on_c, 0, 59, 75
4, 369960, Note_on_c, 0, 62, 75
4, 370080, Note_on_c, 0, 62, 0
4, 370080, Note_on_c, 0, 59, 0
4, 370080, Note_on_c, 0, 55, 0
4, 370080, Control_c, 0, 64, 127
4, 370080, Note_on_c, 0, 36, 75
4, 370080, Note_on_c, 0, 48, 75
4, 370200, Note_on_c, 0, 48, 0
4, 370200, Note_on_c, 0, 36, 0
4, 370200, Note_on_c, 0, 55, 75
4, 370200, Note_on_c, 0, 64, 75
4, 370320, Note_on_c, 0, 64, 0
4, 370320, Note_on_c, 0, 55, 0
4, 370320, Note_on_c, 0, 55, 75
4, 370320, Note_on_c, 0, 64, 75
4, 370440, Note_on_c, 0, 64, 0
4, 370440, Note_on_c, 0, 55, 0
4, 370440, Note_on_c, 0, 55, 75
4, 370440, Note_on_c, 0, 64, 75
4, 370560, Note_on_c, 0, 64, 0
4, 370560, Note_on_c, 0, 55, 0
4, 370560, Note_on_c, 0, 55, 75
4, 370560, Note_on_c, 0, 64, 75
4, 370680, Note_on_c, 0, 64, 0
4, 370680, Note_on_c, 0, 55, 0
4, 370680, Control_c, 0, 64, 0
4, 370680, Note_on_c, 0, 55, 75
4, 370680, Note_on_c, 0, 64, 75
4, 370800, Note_on_c, 0, 64, 0
4, 370800, Note_on_c, 0, 55, 0
4, 370800, Control_c, 0, 64, 127
4, 370800, Note_on_c, 0, 36, 75
4, 370800, Note_on_c, 0, 48, 75
4, 370920, Note_on_c, 0, 48, 0
4, 370920, Note_on_c, 0, 36, 0
4, 370920, Note_on_c, 0, 55, 75
4, 370920, Note_on_c, 0, 60, 75
4, 371040, Note_on_c, 0, 60, 0
4, 371040, Note_on_c, 0, 55, 0
4, 371040, Note_on_c, 0, 55, 75
4, 371040, Note_on_c, 0, 60, 75
4, 371160, Note_on_c, 0, 60, 0
4, 371160, Note_on_c, 0, 55, 0
4, 371160, Note_on_c, 0, 55, 75
4, 371160, Note_on_c, 0, 60, 75
4, 371280, Note_on_c, 0, 60, 0
4, 371280, Note_on_c, 0, 55, 0
4, 371280, Note_on_c, 0, 55, 75
4, 371280, Note_on_c, 0, 64, 75
4, 371400, Note_on_c, 0, 64, 0
4, 371400, Note_on_c, 0, 55, 0
4, 371400, Control_c, 0, 64, 0
4, 371400, Note_on_c, 0, 55, 75
4, 371400, Note_on_c, 0, 64, 75
4, 371520, Note_on_c, 0, 64, 0
4, 371520, Note_on_c, 0, 55, 0
4, 371520, Control_c, 0, 64, 127
4, 371520, Note_on_c, 0, 35, 49
4, 371580, Note_on_c, 0, 35, 0
4, 371580, Note_on_c, 0, 47, 49
4, 371640, Note_on_c, 0, 47, 0
4, 371640, Note_on_c, 0, 35, 49
4, 371700, Note_on_c, 0, 35, 0
4, 371700, Note_on_c, 0, 47, 49
4, 371760, Note_on_c, 0, 47, 0
4, 371760, Note_on_c, 0, 35, 49
4, 371820, Note_on_c, 0, 35, 0
4, 371820, Note_on_c, 0, 47, 49
4, 371880, Note_on_c, 0, 47, 0
4, 371880, Note_on_c, 0, 35, 49
4, 371940, Note_on_c, 0, 35, 0
4, 371940, Note_on_c, 0, 47, 49
4, 372000, Note_on_c, 0, 47, 0
4, 372000, Note_on_c, 0, 35, 49
4, 372060, Note_on_c, 0, 35, 0
4, 372060, Note_on_c, 0, 47, 49
4, 372120, Note_on_c, 0, 47, 0
4, 372120, Note_on_c, 0, 35, 49
4, 372180, Note_on_c, 0, 35, 0
4, 372180, Note_on_c, 0, 47, 49
4, 372240, Note_on_c, 0, 47, 0
4, 372240, Note_on_c, 0, 35, 49
4, 372300, Note_on_c, 0, 35, 0
4, 372300, Note_on_c, 0, 47, 49
4, 372360, Note_on_c, 0, 47, 0
4, 372360, Note_on_c, 0, 35, 49
4, 372420, Note_on_c, 0, 35, 0
4, 372420, Note_on_c, 0, 47, 49
4, 372480, Note_on_c, 0, 47, 0
4, 372480, Note_on_c, 0, 35, 49
4, 372540, Note_on_c, 0, 35, 0
4, 372540, Note_on_c, 0, 47, 49
4, 372600, Note_on_c, 0, 47, 0
4, 372600, Note_on_c, 0, 35, 49
4, 372660, Note_on_c, 0, 35, 0
4, 372660, Note_on_c, 0, 47, 49
4, 372720, Note_on_c, 0, 47, 0
4, 372720, Note_on_c, 0, 35, 49
4, 372780, Note_on_c, 0, 35, 0
4, 372780, Note_on_c, 0, 47, 49
4, 372840, Note_on_c, 0, 47, 0
4, 372840, Note_on_c, 0, 35, 49
4, 372900, Note_on_c, 0, 35, 0
4, 372900, Control_c, 0, 64, 0
4, 372900, Note_on_c, 0, 47, 49
4, 372960, Note_on_c, 0, 47, 0
4, 372960, Control_c, 0, 64, 127
4, 372960, Note_on_c, 0, 35, 62
4, 373020, Note_on_c, 0, 35, 0
4, 373020, Note_on_c, 0, 47, 62
4, 373080, Note_on_c, 0, 47, 0
4, 373080, Note_on_c, 0, 35, 62
4, 373140, Note_on_c, 0, 35, 0
4, 373140, Note_on_c, 0, 47, 62
4, 373200, Note_on_c, 0, 47, 0
4, 373200, Note_on_c, 0, 35, 62
4, 373260, Note_on_c, 0, 35, 0
4, 373260, Note_on_c, 0, 47, 62
4, 373320, Note_on_c, 0, 47, 0
4, 373320, Note_on_c, 0, 35, 62
4, 373380, Note_on_c, 0, 35, 0
4, 373380, Note_on_c, 0, 47, 62
4, 373440, Note_on_c, 0, 47, 0
4, 373440, Note_on_c, 0, 35, 62
4, 373500, Note_on_c, 0, 35, 0
4, 373500, Note_on_c, 0, 47, 62
4, 373560, Note_on_c, 0, 47, 0
4, 373560, Note_on_c, 0, 35, 62
4, 373620, Note_on_c, 0, 35, 0
4, 373620, Note_on_c, 0, 47, 62
4, 373680, Note_on_c, 0, 47, 0
4, 373680, Note_on_c, 0, 35, 62
4, 373740, Note_on_c, 0, 35, 0
4, 373740, Note_on_c, 0, 47, 62
4, 373800, Note_on_c, 0, 47, 0
4, 373800, Note_on_c, 0, 35, 62
4, 373860, Note_on_c, 0, 35, 0
4, 373860, Note_on_c, 0, 47, 62
4, 373920, Note_on_c, 0, 47, 0
4, 373920, Note_on_c, 0, 35, 62
4, 373980, Note_on_c, 0, 35, 0
4, 373980, Note_on_c, 0, 47, 62
4, 374040, Note_on_c, 0, 47, 0
4, 374040, Note_on_c, 0, 35, 62
4, 374100, Note_on_c, 0, 35, 0
4, 374100, Note_on_c, 0, 47, 62
4, 374160, Note_on_c, 0, 47, 0
4, 374160, Note_on_c, 0, 35, 62
4, 374220, Note_on_c, 0, 35, 0
4, 374220, Note_on_c, 0, 47, 62
4, 374280, Note_on_c, 0, 47, 0
4, 374280, Note_on_c, 0, 35, 62
4, 374340, Note_on_c, 0, 35, 0
4, 374340, Control_c, 0, 64, 0
4, 374340, Note_on_c, 0, 47, 62
4, 374400, Note_on_c, 0, 47, 0
4, 374400, Control_c, 0, 64, 127
4, 374400, Note_on_c, 0, 35, 62
4, 374460, Note_on_c, 0, 35, 0
4, 374460, Note_on_c, 0, 47, 62
4, 374520, Note_on_c, 0, 47, 0
4, 374520, Note_on_c, 0, 35, 62
4, 374580, Note_on_c, 0, 35, 0
4, 374580, Note_on_c, 0, 47, 62
4, 374640, Note_on_c, 0, 47, 0
4, 374640, Note_on_c, 0, 35, 62
4, 374700, Note_on_c, 0, 35, 0
4, 374700, Note_on_c, 0, 47, 62
4, 374760, Note_on_c, 0, 47, 0
4, 374760, Note_on_c, 0, 35, 62
4, 374820, Note_on_c, 0, 35, 0
4, 374820, Note_on_c, 0, 47, 62
4, 374880, Note_on_c, 0, 47, 0
4, 374880, Note_on_c, 0, 35, 62
4, 374940, Note_on_c, 0, 35, 0
4, 374940, Note_on_c, 0, 47, 62
4, 375000, Note_on_c, 0, 47, 0
4, 375000, Note_on_c, 0, 35, 62
4, 375060, Note_on_c, 0, 35, 0
4, 375060, Note_on_c, 0, 47, 62
4, 375120, Note_on_c, 0, 47, 0
4, 375120, Note_on_c, 0, 35, 62
4, 375180, Note_on_c, 0, 35, 0
4, 375180, Note_on_c, 0, 47, 62
4, 375240, Note_on_c, 0, 47, 0
4, 375240, Note_on_c, 0, 35, 62
4, 375300, Note_on_c, 0, 35, 0
4, 375300, Note_on_c, 0, 47, 62
4, 375360, Note_on_c, 0, 47, 0
4, 375360, Note_on_c, 0, 35, 62
4, 375420, Note_on_c, 0, 35, 0
4, 375420, Note_on_c, 0, 47, 62
4, 375480, Note_on_c, 0, 47, 0
4, 375480, Note_on_c, 0, 35, 62
4, 375540, Note_on_c, 0, 35, 0
4, 375540, Note_on_c, 0, 47, 62
4, 375600, Note_on_c, 0, 47, 0
4, 375600, Note_on_c, 0, 35, 62
4, 375660, Note_on_c, 0, 35, 0
4, 375660, Note_on_c, 0, 47, 62
4, 375720, Note_on_c, 0, 47, 0
4, 375720, Note_on_c, 0, 35, 62
4, 375780, Note_on_c, 0, 35, 0
4, 375780, Control_c, 0, 64, 0
4, 375780, Note_on_c, 0, 47, 62
4, 375840, Note_on_c, 0, 47, 0
4, 375840, Control_c, 0, 64, 127
4, 375840, Note_on_c, 0, 35, 62
4, 375900, Note_on_c, 0, 35, 0
4, 375900, Note_on_c, 0, 47, 62
4, 375960, Note_on_c, 0, 47, 0
4, 375960, Note_on_c, 0, 35, 62
4, 376020, Note_on_c, 0, 35, 0
4, 376020, Note_on_c, 0, 47, 62
4, 376080, Note_on_c, 0, 47, 0
4, 376080, Note_on_c, 0, 35, 62
4, 376140, Note_on_c, 0, 35, 0
4, 376140, Note_on_c, 0, 47, 62
4, 376200, Note_on_c, 0, 47, 0
4, 376200, Note_on_c, 0, 35, 62
4, 376260, Note_on_c, 0, 35, 0
4, 376260, Note_on_c, 0, 47, 62
4, 376320, Note_on_c, 0, 47, 0
4, 376320, Note_on_c, 0, 35, 62
4, 376380, Note_on_c, 0, 35, 0
4, 376380, Note_on_c, 0, 47, 62
4, 376440, Note_on_c, 0, 47, 0
4, 376440, Note_on_c, 0, 35, 62
4, 376500, Note_on_c, 0, 35, 0
4, 376500, Note_on_c, 0, 47, 62
4, 376560, Note_on_c, 0, 47, 0
4, 376560, Note_on_c, 0, 35, 62
4, 376620, Note_on_c, 0, 35, 0
4, 376620, Note_on_c, 0, 47, 62
4, 376680, Note_on_c, 0, 47, 0
4, 376680, Note_on_c, 0, 35, 62
4, 376740, Note_on_c, 0, 35, 0
4, 376740, Note_on_c, 0, 47, 62
4, 376800, Note_on_c, 0, 47, 0
4, 376800, Note_on_c, 0, 35, 62
4, 376860, Note_on_c, 0, 35, 0
4, 376860, Note_on_c, 0, 47, 62
4, 376920, Note_on_c, 0, 47, 0
4, 376920, Note_on_c, 0, 35, 62
4, 376980, Note_on_c, 0, 35, 0
4, 376980, Note_on_c, 0, 47, 62
4, 377040, Note_on_c, 0, 47, 0
4, 377040, Note_on_c, 0, 35, 62
4, 377100, Note_on_c, 0, 35, 0
4, 377100, Note_on_c, 0, 47, 62
4, 377160, Note_on_c, 0, 47, 0
4, 377160, Note_on_c, 0, 35, 62
4, 377220, Note_on_c, 0, 35, 0
4, 377220, Control_c, 0, 64, 0
4, 377220, Note_on_c, 0, 47, 62
4, 377280, Note_on_c, 0, 47, 0
4, 377280, Control_c, 0, 64, 127
4, 377280, Note_on_c, 0, 35, 75
4, 377340, Note_on_c, 0, 35, 0
4, 377340, Note_on_c, 0, 47, 75
4, 377400, Note_on_c, 0, 47, 0
4, 377400, Note_on_c, 0, 35, 75
4, 377460, Note_on_c, 0, 35, 0
4, 377460, Note_on_c, 0, 47, 75
4, 377520, Note_on_c, 0, 47, 0
4, 377520, Note_on_c, 0, 35, 75
4, 377580, Note_on_c, 0, 35, 0
4, 377580, Note_on_c, 0, 47, 75
4, 377640, Note_on_c, 0, 47, 0
4, 377640, Note_on_c, 0, 35, 75
4, 377700, Note_on_c, 0, 35, 0
4, 377700, Note_on_c, 0, 47, 75
4, 377760, Note_on_c, 0, 47, 0
4, 377760, Note_on_c, 0, 35, 75
4, 377820, Note_on_c, 0, 35, 0
4, 377820, Note_on_c, 0, 47, 75
4, 377880, Note_on_c, 0, 47, 0
4, 377880, Note_on_c, 0, 35, 75
4, 377940, Note_on_c, 0, 35, 0
4, 377940, Note_on_c, 0, 47, 75
4, 378000, Note_on_c, 0, 47, 0
4, 378000, Note_on_c, 0, 35, 75
4, 378060, Note_on_c, 0, 35, 0
4, 378060, Note_on_c, 0, 47, 75
4, 378120, Note_on_c, 0, 47, 0
4, 378120, Note_on_c, 0, 35, 75
4, 378180, Note_on_c, 0, 35, 0
4, 378180, Note_on_c, 0, 47, 75
4, 378240, Note_on_c, 0, 47, 0
4, 378240, Note_on_c, 0, 35, 75
4, 378300, Note_on_c, 0, 35, 0
4, 378300, Note_on_c, 0, 47, 75
4, 378360, Note_on_c, 0, 47, 0
4, 378360, Note_on_c, 0, 35, 75
4, 378420, Note_on_c, 0, 35, 0
4, 378420, Note_on_c, 0, 47, 75
4, 378480, Note_on_c, 0, 47, 0
4, 378480, Note_on_c, 0, 35, 75
4, 378540, Note_on_c, 0, 35, 0
4, 378540, Note_on_c, 0, 47, 75
4, 378600, Note_on_c, 0, 47, 0
4, 378600, Note_on_c, 0, 35, 75
4, 378660, Note_on_c, 0, 35, 0
4, 378660, Control_c, 0, 64, 0
4, 378660, Note_on_c, 0, 47, 75
4, 378720, Note_on_c, 0, 47, 0
4, 378720, Control_c, 0, 64, 127
4, 378720, Note_on_c, 0, 35, 75
4, 378780, Note_on_c, 0, 35, 0
4, 378780, Note_on_c, 0, 47, 75
4, 378840, Note_on_c, 0, 47, 0
4, 378840, Note_on_c, 0, 35, 75
4, 378900, Note_on_c, 0, 35, 0
4, 378900, Note_on_c, 0, 47, 75
4, 378960, Note_on_c, 0, 47, 0
4, 378960, Note_on_c, 0, 35, 75
4, 379020, Note_on_c, 0, 35, 0
4, 379020, Note_on_c, 0, 47, 75
4, 379080, Note_on_c, 0, 47, 0
4, 379080, Note_on_c, 0, 35, 75
4, 379140, Note_on_c, 0, 35, 0
4, 379140, Note_on_c, 0, 47, 75
4, 379200, Note_on_c, 0, 47, 0
4, 379200, Note_on_c, 0, 35, 75
4, 379260, Note_on_c, 0, 35, 0
4, 379260, Note_on_c, 0, 47, 75
4, 379320, Note_on_c, 0, 47, 0
4, 379320, Note_on_c, 0, 35, 75
4, 379380, Note_on_c, 0, 35, 0
4, 379380, Note_on_c, 0, 47, 75
4, 379440, Note_on_c, 0, 47, 0
4, 379440, Note_on_c, 0, 35, 75
4, 379500, Note_on_c, 0, 35, 0
4, 379500, Note_on_c, 0, 47, 75
4, 379560, Note_on_c, 0, 47, 0
4, 379560, Note_on_c, 0, 35, 75
4, 379620, Note_on_c, 0, 35, 0
4, 379620, Note_on_c, 0, 47, 75
4, 379680, Note_on_c, 0, 47, 0
4, 379680, Note_on_c, 0, 35, 75
4, 379740, Note_on_c, 0, 35, 0
4, 379740, Note_on_c, 0, 47, 75
4, 379800, Note_on_c, 0, 47, 0
4, 379800, Note_on_c, 0, 35, 75
4, 379860, Note_on_c, 0, 35, 0
4, 379860, Note_on_c, 0, 47, 75
4, 379920, Note_on_c, 0, 47, 0
4, 379920, Note_on_c, 0, 35, 75
4, 379980, Note_on_c, 0, 35, 0
4, 379980, Note_on_c, 0, 47, 75
4, 380040, Note_on_c, 0, 47, 0
4, 380040, Note_on_c, 0, 35, 75
4, 380100, Note_on_c, 0, 35, 0
4, 380100, Control_c, 0, 64, 0
4, 380100, Note_on_c, 0, 47, 75
4, 380160, Note_on_c, 0, 47, 0
4, 380160, Control_c, 0, 64, 127
4, 380160, Note_on_c, 0, 35, 75
4, 380220, Note_on_c, 0, 35, 0
4, 380220, Note_on_c, 0, 47, 75
4, 380280, Note_on_c, 0, 47, 0
4, 380280, Note_on_c, 0, 35, 75
4, 380340, Note_on_c, 0, 35, 0
4, 380340, Note_on_c, 0, 47, 75
4, 380400, Note_on_c, 0, 47, 0
4, 380400, Note_on_c, 0, 35, 75
4, 380460, Note_on_c, 0, 35, 0
4, 380460, Note_on_c, 0, 47, 75
4, 380520, Note_on_c, 0, 47, 0
4, 380520, Note_on_c, 0, 35, 75
4, 380580, Note_on_c, 0, 35, 0
4, 380580, Note_on_c, 0, 47, 75
4, 380640, Note_on_c, 0, 47, 0
4, 380640, Note_on_c, 0, 35, 75
4, 380700, Note_on_c, 0, 35, 0
4, 380700, Note_on_c, 0, 47, 75
4, 380760, Note_on_c, 0, 47, 0
4, 380760, Note_on_c, 0, 35, 75
4, 380820, Note_on_c, 0, 35, 0
4, 380820, Note_on_c, 0, 47, 75
4, 380880, Note_on_c, 0, 47, 0
4, 380880, Note_on_c, 0, 35, 75
4, 380940, Note_on_c, 0, 35, 0
4, 380940, Note_on_c, 0, 47, 75
4, 381000, Note_on_c, 0, 47, 0
4, 381000, Note_on_c, 0, 35, 75
4, 381060, Note_on_c, 0, 35, 0
4, 381060, Note_on_c, 0, 47, 75
4, 381120, Note_on_c, 0, 47, 0
4, 381120, Note_on_c, 0, 35, 75
4, 381180, Note_on_c, 0, 35, 0
4, 381180, Note_on_c, 0, 47, 75
4, 381240, Note_on_c, 0, 47, 0
4, 381240, Note_on_c, 0, 35, 75
4, 381300, Note_on_c, 0, 35, 0
4, 381300, Note_on_c, 0, 47, 75
4, 381360, Note_on_c, 0, 47, 0
4, 381360, Note_on_c, 0, 35, 75
4, 381420, Note_on_c, 0, 35, 0
4, 381420, Note_on_c, 0, 47, 75
4, 381480, Note_on_c, 0, 47, 0
4, 381480, Note_on_c, 0, 35, 75
4, 381540, Note_on_c, 0, 35, 0
4, 381540, Control_c, 0, 64, 0
4, 381540, Note_on_c, 0, 47, 75
4, 381600, Note_on_c, 0, 47, 0
4, 381600, Control_c, 0, 64, 127
4, 381600, Note_on_c, 0, 35, 75
4, 381660, Note_on_c, 0, 35, 0
4, 381660, Note_on_c, 0, 47, 75
4, 381720, Note_on_c, 0, 47, 0
4, 381720, Note_on_c, 0, 35, 75
4, 381780, Note_on_c, 0, 35, 0
4, 381780, Note_on_c, 0, 47, 75
4, 381840, Note_on_c, 0, 47, 0
4, 381840, Note_on_c, 0, 35, 75
4, 381900, Note_on_c, 0, 35, 0
4, 381900, Note_on_c, 0, 47, 75
4, 381960, Note_on_c, 0, 47, 0
4, 381960, Note_on_c, 0, 35, 75
4, 382020, Note_on_c, 0, 35, 0
4, 382020, Note_on_c, 0, 47, 75
4, 382080, Note_on_c, 0, 47, 0
4, 382080, Note_on_c, 0, 35, 75
4, 382140, Note_on_c, 0, 35, 0
4, 382140, Note_on_c, 0, 47, 75
4, 382200, Note_on_c, 0, 47, 0
4, 382200, Note_on_c, 0, 35, 75
4, 382260, Note_on_c, 0, 35, 0
4, 382260, Note_on_c, 0, 47, 75
4, 382320, Note_on_c, 0, 47, 0
4, 382320, Note_on_c, 0, 35, 75
4, 382380, Note_on_c, 0, 35, 0
4, 382380, Note_on_c, 0, 47, 75
4, 382440, Note_on_c, 0, 47, 0
4, 382440, Note_on_c, 0, 35, 75
4, 382500, Note_on_c, 0, 35, 0
4, 382500, Note_on_c, 0, 47, 75
4, 382560, Note_on_c, 0, 47, 0
4, 382560, Note_on_c, 0, 35, 75
4, 382620, Note_on_c, 0, 35, 0
4, 382620, Note_on_c, 0, 47, 75
4, 382680, Note_on_c, 0, 47, 0
4, 382680, Note_on_c, 0, 35, 75
4, 382740, Note_on_c, 0, 35, 0
4, 382740, Note_on_c, 0, 47, 75
4, 382800, Note_on_c, 0, 47, 0
4, 382800, Note_on_c, 0, 35, 75
4, 382860, Note_on_c, 0, 35, 0
4, 382860, Note_on_c, 0, 47, 75
4, 382920, Note_on_c, 0, 47, 0
4, 382920, Note_on_c, 0, 35, 75
4, 382980, Note_on_c, 0, 35, 0
4, 382980, Control_c, 0, 64, 0
4, 382980, Note_on_c, 0, 47, 75
4, 383040, Note_on_c, 0, 47, 0
4, 383040, Control_c, 0, 64, 127
4, 383040, Note_on_c, 0, 35, 75
4, 383100, Note_on_c, 0, 35, 0
4, 383100, Note_on_c, 0, 47, 75
4, 383160, Note_on_c, 0, 47, 0
4, 383160, Note_on_c, 0, 35, 75
4, 383220, Note_on_c, 0, 35, 0
4, 383220, Note_on_c, 0, 47, 75
4, 383280, Note_on_c, 0, 47, 0
4, 383280, Note_on_c, 0, 35, 75
4, 383340, Note_on_c, 0, 35, 0
4, 383340, Note_on_c, 0, 47, 75
4, 383400, Note_on_c, 0, 47, 0
4, 383400, Note_on_c, 0, 35, 75
4, 383460, Note_on_c, 0, 35, 0
4, 383460, Note_on_c, 0, 47, 75
4, 383520, Note_on_c, 0, 47, 0
4, 383520, Note_on_c, 0, 35, 75
4, 383580, Note_on_c, 0, 35, 0
4, 383580, Note_on_c, 0, 47, 75
4, 383640, Note_on_c, 0, 47, 0
4, 383640, Note_on_c, 0, 35, 75
4, 383700, Note_on_c, 0, 35, 0
4, 383700, Note_on_c, 0, 47, 75
4, 383760, Note_on_c, 0, 47, 0
4, 383760, Note_on_c, 0, 35, 75
4, 383820, Note_on_c, 0, 35, 0
4, 383820, Note_on_c, 0, 47, 75
4, 383880, Note_on_c, 0, 47, 0
4, 383880, Note_on_c, 0, 35, 75
4, 383940, Note_on_c, 0, 35, 0
4, 383940, Note_on_c, 0, 47, 75
4, 384000, Note_on_c, 0, 47, 0
4, 384000, Note_on_c, 0, 35, 75
4, 384060, Note_on_c, 0, 35, 0
4, 384060, Note_on_c, 0, 47, 75
4, 384120, Note_on_c, 0, 47, 0
4, 384120, Note_on_c, 0, 35, 75
4, 384180, Note_on_c, 0, 35, 0
4, 384180, Note_on_c, 0, 47, 75
4, 384240, Note_on_c, 0, 47, 0
4, 384240, Note_on_c, 0, 35, 75
4, 384300, Note_on_c, 0, 35, 0
4, 384300, Note_on_c, 0, 47, 75
4, 384360, Note_on_c, 0, 47, 0
4, 384360, Note_on_c, 0, 35, 75
4, 384420, Note_on_c, 0, 35, 0
4, 384420, Control_c, 0, 64, 0
4, 384420, Note_on_c, 0, 47, 75
4, 384480, Note_on_c, 0, 47, 0
4, 384480, Control_c, 0, 64, 127
4, 384480, Note_on_c, 0, 47, 75
4, 384480, Note_on_c, 0, 52, 75
4, 384480, Note_on_c, 0, 55, 75
4, 384540, Note_on_c, 0, 55, 0
4, 384540, Note_on_c, 0, 52, 0
4, 384540, Note_on_c, 0, 47, 0
4, 384540, Note_on_c, 0, 60, 75
4, 384600, Note_on_c, 0, 60, 0
4, 384600, Note_on_c, 0, 47, 75
4, 384600, Note_on_c, 0, 52, 75
4, 384600, Note_on_c, 0, 55, 75
4, 384660, Note_on_c, 0, 55, 0
4, 384660, Note_on_c, 0, 52, 0
4, 384660, Note_on_c, 0, 47, 0
4, 384660, Note_on_c, 0, 60, 75
4, 384720, Note_on_c, 0, 60, 0
4, 384720, Note_on_c, 0, 47, 75
4, 384720, Note_on_c, 0, 52, 75
4, 384720, Note_on_c, 0, 55, 75
4, 384780, Note_on_c, 0, 55, 0
4, 384780, Note_on_c, 0, 52, 0
4, 384780, Note_on_c, 0, 47, 0
4, 384780, Note_on_c, 0, 60, 75
4, 384840, Note_on_c, 0, 60, 0
4, 384840, Note_on_c, 0, 47, 75
4, 384840, Note_on_c, 0, 52, 75
4, 384840, Note_on_c, 0, 55, 75
4, 384900, Note_on_c, 0, 55, 0
4, 384900, Note_on_c, 0, 52, 0
4, 384900, Note_on_c, 0, 47, 0
4, 384900, Note_on_c, 0, 60, 75
4, 384960, Note_on_c, 0, 60, 0
4, 384960, Note_on_c, 0, 47, 75
4, 384960, Note_on_c, 0, 52, 75
4, 384960, Note_on_c, 0, 55, 75
4, 385020, Note_on_c, 0, 55, 0
4, 385020, Note_on_c, 0, 52, 0
4, 385020, Note_on_c, 0, 47, 0
4, 385020, Note_on_c, 0, 60, 75
4, 385080, Note_on_c, 0, 60, 0
4, 385080, Note_on_c, 0, 47, 75
4, 385080, Note_on_c, 0, 52, 75
4, 385080, Note_on_c, 0, 55, 75
4, 385140, Note_on_c, 0, 55, 0
4, 385140, Note_on_c, 0, 52, 0
4, 385140, Note_on_c, 0, 47, 0
4, 385140, Note_on_c, 0, 60, 75
4, 385200, Note_on_c, 0, 60, 0
4, 385200, Note_on_c, 0, 47, 75
4, 385200, Note_on_c, 0, 52, 75
4, 385200, Note_on_c, 0, 55, 75
4, 385260, Note_on_c, 0, 55, 0
4, 385260, Note_on_c, 0, 52, 0
4, 385260, Note_on_c, 0, 47, 0
4, 385260, Note_on_c, 0, 60, 75
4, 385320, Note_on_c, 0, 60, 0
4, 385320, Note_on_c, 0, 47, 75
4, 385320, Note_on_c, 0, 52, 75
4, 385320, Note_on_c, 0, 55, 75
4, 385380, Note_on_c, 0, 55, 0
4, 385380, Note_on_c, 0, 52, 0
4, 385380, Note_on_c, 0, 47, 0
4, 385380, Note_on_c, 0, 60, 75
4, 385440, Note_on_c, 0, 60, 0
4, 385440, Note_on_c, 0, 47, 75
4, 385440, Note_on_c, 0, 52, 75
4, 385440, Note_on_c, 0, 55, 75
4, 385500, Note_on_c, 0, 55, 0
4, 385500, Note_on_c, 0, 52, 0
4, 385500, Note_on_c, 0, 47, 0
4, 385500, Note_on_c, 0, 60, 75
4, 385560, Note_on_c, 0, 60, 0
4, 385560, Note_on_c, 0, 47, 75
4, 385560, Note_on_c, 0, 52, 75
4, 385560, Note_on_c, 0, 55, 75
4, 385620, Note_on_c, 0, 55, 0
4, 385620, Note_on_c, 0, 52, 0
4, 385620, Note_on_c, 0, 47, 0
4, 385620, Note_on_c, 0, 60, 75
4, 385680, Note_on_c, 0, 60, 0
4, 385680, Note_on_c, 0, 47, 75
4, 385680, Note_on_c, 0, 52, 75
4, 385680, Note_on_c, 0, 55, 75
4, 385740, Note_on_c, 0, 55, 0
4, 385740, Note_on_c, 0, 52, 0
4, 385740, Note_on_c, 0, 47, 0
4, 385740, Note_on_c, 0, 60, 75
4, 385800, Note_on_c, 0, 60, 0
4, 385800, Note_on_c, 0, 47, 75
4, 385800, Note_on_c, 0, 52, 75
4, 385800, Note_on_c, 0, 55, 75
4, 385860, Note_on_c, 0, 55, 0
4, 385860, Note_on_c, 0, 52, 0
4, 385860, Note_on_c, 0, 47, 0
4, 385860, Control_c, 0, 64, 0
4, 385860, Note_on_c, 0, 60, 75
4, 385920, Note_on_c, 0, 60, 0
4, 385920, Control_c, 0, 64, 127
4, 385920, Note_on_c, 0, 47, 101
4, 385920, Note_on_c, 0, 52, 101
4, 385920, Note_on_c, 0, 56, 101
4, 385920, Note_on_c, 0, 59, 101
4, 386040, Note_on_c, 0, 59, 0
4, 386040, Note_on_c, 0, 47, 0
4, 386040, Note_on_c, 0, 52, 0
4, 386040, Note_on_c, 0, 56, 0
4, 386040, Note_on_c, 0, 35, 101
4, 386040, Note_on_c, 0, 47, 101
4, 386160, Note_on_c, 0, 47, 0
4, 386160, Note_on_c, 0, 35, 0
4, 386160, Note_on_c, 0, 37, 101
4, 386160, Note_on_c, 0, 49, 101
4, 386280, Note_on_c, 0, 49, 0
4, 386280, Note_on_c, 0, 37, 0
4, 386280, Note_on_c, 0, 40, 101
4, 386280, Note_on_c, 0, 52, 101
4, 386400, Note_on_c, 0, 52, 0
4, 386400, Note_on_c, 0, 40, 0
4, 386400, Note_on_c, 0, 44, 101
4, 386400, Note_on_c, 0, 56, 101
4, 386520, Note_on_c, 0, 56, 0
4, 386520, Note_on_c, 0, 44, 0
4, 386520, Note_on_c, 0, 47, 101
4, 386520, Note_on_c, 0, 59, 101
4, 386640, Note_on_c, 0, 59, 0
4, 386640, Note_on_c, 0, 47, 0
4, 386640, Note_on_c, 0, 49, 101
4, 386640, Note_on_c, 0, 61, 101
4, 386760, Note_on_c, 0, 61, 0
4, 386760, Note_on_c, 0, 49, 0
4, 386760, Note_on_c, 0, 44, 101
4, 386760, Note_on_c, 0, 56, 101
4, 386880, Note_on_c, 0, 56, 0
4, 386880, Note_on_c, 0, 44, 0
4, 386880, Note_on_c, 0, 47, 101
4, 386880, Note_on_c, 0, 59, 101
4, 387000, Note_on_c, 0, 59, 0
4, 387000, Note_on_c, 0, 47, 0
4, 387000, Note_on_c, 0, 49, 101
4, 387000, Note_on_c, 0, 61, 101
4, 387120, Note_on_c, 0, 61, 0
4, 387120, Note_on_c, 0, 49, 0
4, 387120, Note_on_c, 0, 52, 101
4, 387120, Note_on_c, 0, 64, 101
4, 387240, Note_on_c, 0, 64, 0
4, 387240, Note_on_c, 0, 52, 0
4, 387240, Control_c, 0, 64, 0
4, 387240, Note_on_c, 0, 56, 101
4, 387240, Note_on_c, 0, 68, 101
4, 387360, Note_on_c, 0, 68, 0
4, 387360, Note_on_c, 0, 56, 0
4, 388560, Note_on_c, 0, 34, 101
4, 388560, Note_on_c, 0, 46, 101
4, 389040, Note_on_c, 0, 46, 0
4, 389040, Note_on_c, 0, 34, 0
4, 389760, Note_on_c, 0, 46, 62
4, 389760, Note_on_c, 0, 52, 62
4, 389760, Note_on_c, 0, 55, 62
4, 389760, Note_on_c, 0, 60, 62
4, 391200, Note_on_c, 0, 60, 0
4, 391200, Note_on_c, 0, 46, 0
4, 391200, Note_on_c, 0, 52, 0
4, 391200, Note_on_c, 0, 55, 0
4, 391200, Control_c, 0, 64, 127
4, 391200, Note_on_c, 0, 55, 62
4, 391247, Note_on_c, 0, 55, 0
4, 391247, Note_on_c, 0, 58, 62
4, 391296, Note_on_c, 0, 58, 0
4, 391296, Note_on_c, 0, 60, 62
4, 391343, Note_on_c, 0, 60, 0
4, 391343, Note_on_c, 0, 64, 62
4, 391392, Note_on_c, 0, 64, 0
4, 391392, Note_on_c, 0, 67, 62
4, 391440, Note_on_c, 0, 67, 0
4, 391440, Note_on_c, 0, 60, 62
4, 391487, Note_on_c, 0, 60, 0
4, 391487, Note_on_c, 0, 64, 62
4, 391536, Note_on_c, 0, 64, 0
4, 391536, Note_on_c, 0, 67, 62
4, 391583, Note_on_c, 0, 67, 0
4, 391583, Note_on_c, 0, 70, 62
4, 391632, Note_on_c, 0, 70, 0
4, 391632, Note_on_c, 0, 72, 62
4, 391680, Note_on_c, 0, 72, 0
4, 391680, Note_on_c, 0, 55, 62
4, 391727, Note_on_c, 0, 55, 0
4, 391727, Note_on_c, 0, 58, 62
4, 391776, Note_on_c, 0, 58, 0
4, 391776, Note_on_c, 0, 60, 62
4, 391823, Note_on_c, 0, 60, 0
4, 391823, Note_on_c, 0, 64, 62
4, 391872, Note_on_c, 0, 64, 0
4, 391872, Note_on_c, 0, 67, 62
4, 391920, Note_on_c, 0, 67, 0
4, 391920, Note_on_c, 0, 52, 62
4, 391967, Note_on_c, 0, 52, 0
4, 391967, Note_on_c, 0, 55, 62
4, 392016, Note_on_c, 0, 55, 0
4, 392016, Note_on_c, 0, 58, 62
4, 392063, Note_on_c, 0, 58, 0
4, 392063, Note_on_c, 0, 60, 62
4, 392112, Note_on_c, 0, 60, 0
4, 392112, Note_on_c, 0, 64, 62
4, 392160, Note_on_c, 0, 64, 0
4, 392160, Note_on_c, 0, 48, 62
4, 392207, Note_on_c, 0, 48, 0
4, 392207, Note_on_c, 0, 52, 62
4, 392256, Note_on_c, 0, 52, 0
4, 392256, Note_on_c, 0, 55, 62
4, 392303, Note_on_c, 0, 55, 0
4, 392303, Note_on_c, 0, 58, 62
4, 392352, Note_on_c, 0, 58, 0
4, 392352, Note_on_c, 0, 60, 62
4, 392400, Note_on_c, 0, 60, 0
4, 392400, Note_on_c, 0, 43, 62
4, 392447, Note_on_c, 0, 43, 0
4, 392447, Note_on_c, 0, 46, 62
4, 392496, Note_on_c, 0, 46, 0
4, 392496, Note_on_c, 0, 48, 62
4, 392543, Note_on_c, 0, 48, 0
4, 392543, Note_on_c, 0, 52, 62
4, 392592, Note_on_c, 0, 52, 0
4, 392592, Control_c, 0, 64, 0
4, 392592, Note_on_c, 0, 55, 62
4, 392640, Note_on_c, 0, 55, 0
4, 392640, Note_on_c, 0, 40, 62
4, 392640, Note_on_c, 0, 47, 62
4, 392640, Note_on_c, 0, 52, 62
4, 392880, Note_on_c, 0, 52, 0
4, 392880, Note_on_c, 0, 47, 0
4, 392880, Note_on_c, 0, 40, 0
4, 392880, Control_c, 0, 64, 127
4, 392880, Note_on_c, 0, 52, 62
4, 392880, Note_on_c, 0, 56, 62
4, 392880, Note_on_c, 0, 59, 62
4, 393000, Note_on_c, 0, 59, 0
4, 393000, Note_on_c, 0, 56, 0
4, 393000, Note_on_c, 0, 52, 0
4, 393000, Note_on_c, 0, 52, 62
4, 393000, Note_on_c, 0, 56, 62
4, 393000, Note_on_c, 0, 59, 62
4, 393120, Note_on_c, 0, 59, 0
4, 393120, Note_on_c, 0, 56, 0
4, 393120, Note_on_c, 0, 52, 0
4, 393120, Note_on_c, 0, 52, 62
4, 393120, Note_on_c, 0, 56, 62
4, 393120, Note_on_c, 0, 59, 62
4, 393240, Note_on_c, 0, 59, 0
4, 393240, Note_on_c, 0, 56, 0
4, 393240, Note_on_c, 0, 52, 0
4, 393240, Control_c, 0, 64, 0
4, 393240, Note_on_c, 0, 52, 62
4, 393240, Note_on_c, 0, 56, 62
4, 393240, Note_on_c, 0, 59, 62
4, 393360, Note_on_c, 0, 59, 0
4, 393360, Note_on_c, 0, 56, 0
4, 393360, Note_on_c, 0, 52, 0
4, 393360, Control_c, 0, 64, 127
4, 393360, Note_on_c, 0, 52, 62
4, 393360, Note_on_c, 0, 57, 62
4, 393360, Note_on_c, 0, 59, 62
4, 393480, Note_on_c, 0, 59, 0
4, 393480, Note_on_c, 0, 57, 0
4, 393480, Note_on_c, 0, 52, 0
4, 393480, Note_on_c, 0, 52, 62
4, 393480, Note_on_c, 0, 57, 62
4, 393480, Note_on_c, 0, 59, 62
4, 393600, Note_on_c, 0, 59, 0
4, 393600, Note_on_c, 0, 57, 0
4, 393600, Note_on_c, 0, 52, 0
4, 393600, Note_on_c, 0, 52, 62
4, 393600, Note_on_c, 0, 57, 62
4, 393600, Note_on_c, 0, 59, 62
4, 393720, Note_on_c, 0, 59, 0
4, 393720, Note_on_c, 0, 57, 0
4, 393720, Note_on_c, 0, 52, 0
4, 393720, Note_on_c, 0, 52, 62
4, 393720, Note_on_c, 0, 57, 62
4, 393720, Note_on_c, 0, 59, 62
4, 393840, Note_on_c, 0, 59, 0
4, 393840, Note_on_c, 0, 57, 0
4, 393840, Note_on_c, 0, 52, 0
4, 393840, Note_on_c, 0, 52, 62
4, 393840, Note_on_c, 0, 57, 62
4, 393840, Note_on_c, 0, 59, 62
4, 393960, Note_on_c, 0, 59, 0
4, 393960, Note_on_c, 0, 57, 0
4, 393960, Note_on_c, 0, 52, 0
4, 393960, Note_on_c, 0, 52, 62
4, 393960, Note_on_c, 0, 57, 62
4, 393960, Note_on_c, 0, 59, 62
4, 394080, Note_on_c, 0, 59, 0
4, 394080, Note_on_c, 0, 57, 0
4, 394080, Note_on_c, 0, 52, 0
4, 394080, Note_on_c, 0, 52, 62
4, 394080, Note_on_c, 0, 57, 62
4, 394080, Note_on_c, 0, 59, 62
4, 394200, Note_on_c, 0, 59, 0
4, 394200, Note_on_c, 0, 57, 0
4, 394200, Note_on_c, 0, 52, 0
4, 394200, Note_on_c, 0, 52, 62
4, 394200, Note_on_c, 0, 57, 62
4, 394200, Note_on_c, 0, 59, 62
4, 394320, Note_on_c, 0, 59, 0
4, 394320, Note_on_c, 0, 57, 0
4, 394320, Note_on_c, 0, 52, 0
4, 394320, Note_on_c, 0, 52, 62
4, 394320, Note_on_c, 0, 57, 62
4, 394320, Note_on_c, 0, 59, 62
4, 394440, Note_on_c, 0, 59, 0
4, 394440, Note_on_c, 0, 57, 0
4, 394440, Note_on_c, 0, 52, 0
4, 394440, Note_on_c, 0, 52, 62
4, 394440, Note_on_c, 0, 57, 62
4, 394440, Note_on_c, 0, 59, 62
4, 394560, Note_on_c, 0, 59, 0
4, 394560, Note_on_c, 0, 57, 0
4, 394560, Note_on_c, 0, 52, 0
4, 394560, Note_on_c, 0, 52, 62
4, 394560, Note_on_c, 0, 57, 62
4, 394560, Note_on_c, 0, 59, 62
4, 394680, Note_on_c, 0, 59, 0
4, 394680, Note_on_c, 0, 57, 0
4, 394680, Note_on_c, 0, 52, 0
4, 394680, Note_on_c, 0, 52, 62
4, 394680, Note_on_c, 0, 57, 62
4, 394680, Note_on_c, 0, 59, 62
4, 394800, Note_on_c, 0, 59, 0
4, 394800, Note_on_c, 0, 57, 0
4, 394800, Note_on_c, 0, 52, 0
4, 394800, Note_on_c, 0, 52, 62
4, 394800, Note_on_c, 0, 57, 62
4, 394800, Note_on_c, 0, 59, 62
4, 394920, Note_on_c, 0, 59, 0
4, 394920, Note_on_c, 0, 57, 0
4, 394920, Note_on_c, 0, 52, 0
4, 394920, Note_on_c, 0, 52, 62
4, 394920, Note_on_c, 0, 57, 62
4, 394920, Note_on_c, 0, 59, 62
4, 395040, Note_on_c, 0, 59, 0
4, 395040, Note_on_c, 0, 57, 0
4, 395040, Note_on_c, 0, 52, 0
4, 395040, Note_on_c, 0, 52, 62
4, 395040, Note_on_c, 0, 57, 62
4, 395040, Note_on_c, 0, 59, 62
4, 395160, Note_on_c, 0, 59, 0
4, 395160, Note_on_c, 0, 57, 0
4, 395160, Note_on_c, 0, 52, 0
4, 395160, Note_on_c, 0, 52, 62
4, 395160, Note_on_c, 0, 57, 62
4, 395160, Note_on_c, 0, 59, 62
4, 395280, Note_on_c, 0, 59, 0
4, 395280, Note_on_c, 0, 57, 0
4, 395280, Note_on_c, 0, 52, 0
4, 395280, Note_on_c, 0, 52, 62
4, 395280, Note_on_c, 0, 57, 62
4, 395280, Note_on_c, 0, 59, 62
4, 395400, Note_on_c, 0, 59, 0
4, 395400, Note_on_c, 0, 57, 0
4, 395400, Note_on_c, 0, 52, 0
4, 395400, Control_c, 0, 64, 0
4, 395400, Note_on_c, 0, 52, 62
4, 395400, Note_on_c, 0, 57, 62
4, 395400, Note_on_c, 0, 59, 62
4, 395520, Note_on_c, 0, 59, 0
4, 395520, Note_on_c, 0, 57, 0
4, 395520, Note_on_c, 0, 52, 0
4, 395520, Control_c, 0, 64, 127
4, 395520, Note_on_c, 0, 52, 62
4, 395520, Note_on_c, 0, 56, 62
4, 395520, Note_on_c, 0, 59, 62
4, 395640, Note_on_c, 0, 59, 0
4, 395640, Note_on_c, 0, 56, 0
4, 395640, Note_on_c, 0, 52, 0
4, 395640, Note_on_c, 0, 52, 62
4, 395640, Note_on_c, 0, 56, 62
4, 395640, Note_on_c, 0, 59, 62
4, 395760, Note_on_c, 0, 59, 0
4, 395760, Note_on_c, 0, 56, 0
4, 395760, Note_on_c, 0, 52, 0
4, 395760, Note_on_c, 0, 52, 62
4, 395760, Note_on_c, 0, 56, 62
4, 395760, Note_on_c, 0, 59, 62
4, 395880, Note_on_c, 0, 59, 0
4, 395880, Note_on_c, 0, 56, 0
4, 395880, Note_on_c, 0, 52, 0
4, 395880, Note_on_c, 0, 52, 62
4, 395880, Note_on_c, 0, 56, 62
4, 395880, Note_on_c, 0, 59, 62
4, 396000, Note_on_c, 0, 59, 0
4, 396000, Note_on_c, 0, 56, 0
4, 396000, Note_on_c, 0, 52, 0
4, 396000, Note_on_c, 0, 52, 62
4, 396000, Note_on_c, 0, 56, 62
4, 396000, Note_on_c, 0, 59, 62
4, 396120, Note_on_c, 0, 59, 0
4, 396120, Note_on_c, 0, 56, 0
4, 396120, Note_on_c, 0, 52, 0
4, 396120, Control_c, 0, 64, 0
4, 396120, Note_on_c, 0, 52, 62
4, 396120, Note_on_c, 0, 56, 62
4, 396120, Note_on_c, 0, 59, 62
4, 396240, Note_on_c, 0, 59, 0
4, 396240, Note_on_c, 0, 56, 0
4, 396240, Note_on_c, 0, 52, 0
4, 396240, Control_c, 0, 64, 127
4, 396240, Note_on_c, 0, 52, 62
4, 396240, Note_on_c, 0, 55, 62
4, 396240, Note_on_c, 0, 58, 62
4, 396240, Note_on_c, 0, 61, 62
4, 396360, Note_on_c, 0, 61, 0
4, 396360, Note_on_c, 0, 52, 0
4, 396360, Note_on_c, 0, 55, 0
4, 396360, Note_on_c, 0, 58, 0
4, 396360, Note_on_c, 0, 52, 62
4, 396360, Note_on_c, 0, 55, 62
4, 396360, Note_on_c, 0, 58, 62
4, 396360, Note_on_c, 0, 61, 62
4, 396480, Note_on_c, 0, 61, 0
4, 396480, Note_on_c, 0, 52, 0
4, 396480, Note_on_c, 0, 55, 0
4, 396480, Note_on_c, 0, 58, 0
4, 396480, Note_on_c, 0, 52, 62
4, 396480, Note_on_c, 0, 55, 62
4, 396480, Note_on_c, 0, 58, 62
4, 396480, Note_on_c, 0, 61, 62
4, 396600, Note_on_c, 0, 61, 0
4, 396600, Note_on_c, 0, 52, 0
4, 396600, Note_on_c, 0, 55, 0
4, 396600, Note_on_c, 0, 58, 0
4, 396600, Note_on_c, 0, 52, 62
4, 396600, Note_on_c, 0, 55, 62
4, 396600, Note_on_c, 0, 58, 62
4, 396600, Note_on_c, 0, 61, 62
4, 396720, Note_on_c, 0, 61, 0
4, 396720, Note_on_c, 0, 52, 0
4, 396720, Note_on_c, 0, 55, 0
4, 396720, Note_on_c, 0, 58, 0
4, 396720, Note_on_c, 0, 52, 62
4, 396720, Note_on_c, 0, 55, 62
4, 396720, Note_on_c, 0, 58, 62
4, 396720, Note_on_c, 0, 61, 62
4, 396840, Note_on_c, 0, 61, 0
4, 396840, Note_on_c, 0, 52, 0
4, 396840, Note_on_c, 0, 55, 0
4, 396840, Note_on_c, 0, 58, 0
4, 396840, Control_c, 0, 64, 0
4, 396840, Note_on_c, 0, 52, 62
4, 396840, Note_on_c, 0, 55, 62
4, 396840, Note_on_c, 0, 58, 62
4, 396840, Note_on_c, 0, 61, 62
4, 396960, Note_on_c, 0, 61, 0
4, 396960, Note_on_c, 0, 52, 0
4, 396960, Note_on_c, 0, 55, 0
4, 396960, Note_on_c, 0, 58, 0
4, 396960, Control_c, 0, 64, 127
4, 396960, Note_on_c, 0, 52, 62
4, 396960, Note_on_c, 0, 54, 62
4, 396960, Note_on_c, 0, 57, 62
4, 396960, Note_on_c, 0, 59, 62
4, 397080, Note_on_c, 0, 59, 0
4, 397080, Note_on_c, 0, 52, 0
4, 397080, Note_on_c, 0, 54, 0
4, 397080, Note_on_c, 0, 57, 0
4, 397080, Note_on_c, 0, 52, 62
4, 397080, Note_on_c, 0, 54, 62
4, 397080, Note_on_c, 0, 57, 62
4, 397080, Note_on_c, 0, 59, 62
4, 397200, Note_on_c, 0, 59, 0
4, 397200, Note_on_c, 0, 52, 0
4, 397200, Note_on_c, 0, 54, 0
4, 397200, Note_on_c, 0, 57, 0
4, 397200, Note_on_c, 0, 52, 62
4, 397200, Note_on_c, 0, 54, 62
4, 397200, Note_on_c, 0, 57, 62
4, 397200, Note_on_c, 0, 59, 62
4, 397320, Note_on_c, 0, 59, 0
4, 397320, Note_on_c, 0, 52, 0
4, 397320, Note_on_c, 0, 54, 0
4, 397320, Note_on_c, 0, 57, 0
4, 397320, Note_on_c, 0, 52, 62
4, 397320, Note_on_c, 0, 54, 62
4, 397320, Note_on_c, 0, 57, 62
4, 397320, Note_on_c, 0, 59, 62
4, 397440, Note_on_c, 0, 59, 0
4, 397440, Note_on_c, 0, 52, 0
4, 397440, Note_on_c, 0, 54, 0
4, 397440, Note_on_c, 0, 57, 0
4, 397440, Note_on_c, 0, 52, 62
4, 397440, Note_on_c, 0, 54, 62
4, 397440, Note_on_c, 0, 57, 62
4, 397440, Note_on_c, 0, 59, 62
4, 397560, Note_on_c, 0, 59, 0
4, 397560, Note_on_c, 0, 52, 0
4, 397560, Note_on_c, 0, 54, 0
4, 397560, Note_on_c, 0, 57, 0
4, 397560, Note_on_c, 0, 52, 62
4, 397560, Note_on_c, 0, 54, 62
4, 397560, Note_on_c, 0, 57, 62
4, 397560, Note_on_c, 0, 59, 62
4, 397680, Note_on_c, 0, 59, 0
4, 397680, Note_on_c, 0, 52, 0
4, 397680, Note_on_c, 0, 54, 0
4, 397680, Note_on_c, 0, 57, 0
4, 397680, Note_on_c, 0, 52, 62
4, 397680, Note_on_c, 0, 54, 62
4, 397680, Note_on_c, 0, 57, 62
4, 397680, Note_on_c, 0, 59, 62
4, 397800, Note_on_c, 0, 59, 0
4, 397800, Note_on_c, 0, 52, 0
4, 397800, Note_on_c, 0, 54, 0
4, 397800, Note_on_c, 0, 57, 0
4, 397800, Note_on_c, 0, 52, 62
4, 397800, Note_on_c, 0, 54, 62
4, 397800, Note_on_c, 0, 57, 62
4, 397800, Note_on_c, 0, 59, 62
4, 397920, Note_on_c, 0, 59, 0
4, 397920, Note_on_c, 0, 52, 0
4, 397920, Note_on_c, 0, 54, 0
4, 397920, Note_on_c, 0, 57, 0
4, 397920, Note_on_c, 0, 52, 62
4, 397920, Note_on_c, 0, 54, 62
4, 397920, Note_on_c, 0, 57, 62
4, 397920, Note_on_c, 0, 59, 62
4, 398040, Note_on_c, 0, 59, 0
4, 398040, Note_on_c, 0, 52, 0
4, 398040, Note_on_c, 0, 54, 0
4, 398040, Note_on_c, 0, 57, 0
4, 398040, Note_on_c, 0, 52, 62
4, 398040, Note_on_c, 0, 54, 62
4, 398040, Note_on_c, 0, 57, 62
4, 398040, Note_on_c, 0, 59, 62
4, 398160, Note_on_c, 0, 59, 0
4, 398160, Note_on_c, 0, 52, 0
4, 398160, Note_on_c, 0, 54, 0
4, 398160, Note_on_c, 0, 57, 0
4, 398160, Note_on_c, 0, 52, 62
4, 398160, Note_on_c, 0, 54, 62
4, 398160, Note_on_c, 0, 57, 62
4, 398160, Note_on_c, 0, 59, 62
4, 398280, Note_on_c, 0, 59, 0
4, 398280, Note_on_c, 0, 52, 0
4, 398280, Note_on_c, 0, 54, 0
4, 398280, Note_on_c, 0, 57, 0
4, 398280, Control_c, 0, 64, 0
4, 398280, Note_on_c, 0, 52, 62
4, 398280, Note_on_c, 0, 54, 62
4, 398280, Note_on_c, 0, 57, 62
4, 398280, Note_on_c, 0, 59, 62
4, 398400, Note_on_c, 0, 59, 0
4, 398400, Note_on_c, 0, 52, 0
4, 398400, Note_on_c, 0, 54, 0
4, 398400, Note_on_c, 0, 57, 0
4, 398400, Note_on_c, 0, 40, 62
4, 398400, Note_on_c, 0, 47, 62
4, 398400, Note_on_c, 0, 52, 62
4, 398640, Note_on_c, 0, 52, 0
4, 398640, Note_on_c, 0, 47, 0
4, 398640, Note_on_c, 0, 40, 0
4, 398640, Control_c, 0, 64, 127
4, 398640, Note_on_c, 0, 52, 62
4, 398640, Note_on_c, 0, 56, 62
4, 398640, Note_on_c, 0, 59, 62
4, 398760, Note_on_c, 0, 59, 0
4, 398760, Note_on_c, 0, 56, 0
4, 398760, Note_on_c, 0, 52, 0
4, 398760, Note_on_c, 0, 52, 62
4, 398760, Note_on_c, 0, 56, 62
4, 398760, Note_on_c, 0, 59, 62
4, 398880, Note_on_c, 0, 59, 0
4, 398880, Note_on_c, 0, 56, 0
4, 398880, Note_on_c, 0, 52, 0
4, 398880, Note_on_c, 0, 52, 62
4, 398880, Note_on_c, 0, 56, 62
4, 398880, Note_on_c, 0, 59, 62
4, 399000, Note_on_c, 0, 59, 0
4, 399000, Note_on_c, 0, 56, 0
4, 399000, Note_on_c, 0, 52, 0
4, 399000, Control_c, 0, 64, 0
4, 399000, Note_on_c, 0, 52, 62
4, 399000, Note_on_c, 0, 56, 62
4, 399000, Note_on_c, 0, 59, 62
4, 399120, Note_on_c, 0, 59, 0
4, 399120, Note_on_c, 0, 56, 0
4, 399120, Note_on_c, 0, 52, 0
4, 399120, Control_c, 0, 64, 127
4, 399120, Note_on_c, 0, 52, 62
4, 399120, Note_on_c, 0, 57, 62
4, 399120, Note_on_c, 0, 59, 62
4, 399240, Note_on_c, 0, 59, 0
4, 399240, Note_on_c, 0, 57, 0
4, 399240, Note_on_c, 0, 52, 0
4, 399240, Note_on_c, 0, 52, 62
4, 399240, Note_on_c, 0, 57, 62
4, 399240, Note_on_c, 0, 59, 62
4, 399360, Note_on_c, 0, 59, 0
4, 399360, Note_on_c, 0, 57, 0
4, 399360, Note_on_c, 0, 52, 0
4, 399360, Note_on_c, 0, 52, 62
4, 399360, Note_on_c, 0, 57, 62
4, 399360, Note_on_c, 0, 59, 62
4, 399480, Note_on_c, 0, 59, 0
4, 399480, Note_on_c, 0, 57, 0
4, 399480, Note_on_c, 0, 52, 0
4, 399480, Note_on_c, 0, 52, 62
4, 399480, Note_on_c, 0, 57, 62
4, 399480, Note_on_c, 0, 59, 62
4, 399600, Note_on_c, 0, 59, 0
4, 399600, Note_on_c, 0, 57, 0
4, 399600, Note_on_c, 0, 52, 0
4, 399600, Note_on_c, 0, 52, 62
4, 399600, Note_on_c, 0, 57, 62
4, 399600, Note_on_c, 0, 59, 62
4, 399720, Note_on_c, 0, 59, 0
4, 399720, Note_on_c, 0, 57, 0
4, 399720, Note_on_c, 0, 52, 0
4, 399720, Note_on_c, 0, 52, 62
4, 399720, Note_on_c, 0, 57, 62
4, 399720, Note_on_c, 0, 59, 62
4, 399840, Note_on_c, 0, 59, 0
4, 399840, Note_on_c, 0, 57, 0
4, 399840, Note_on_c, 0, 52, 0
4, 399840, Note_on_c, 0, 52, 62
4, 399840, Note_on_c, 0, 57, 62
4, 399840, Note_on_c, 0, 59, 62
4, 399960, Note_on_c, 0, 59, 0
4, 399960, Note_on_c, 0, 57, 0
4, 399960, Note_on_c, 0, 52, 0
4, 399960, Note_on_c, 0, 52, 62
4, 399960, Note_on_c, 0, 57, 62
4, 399960, Note_on_c, 0, 59, 62
4, 400080, Note_on_c, 0, 59, 0
4, 400080, Note_on_c, 0, 57, 0
4, 400080, Note_on_c, 0, 52, 0
4, 400080, Note_on_c, 0, 52, 62
4, 400080, Note_on_c, 0, 57, 62
4, 400080, Note_on_c, 0, 59, 62
4, 400200, Note_on_c, 0, 59, 0
4, 400200, Note_on_c, 0, 57, 0
4, 400200, Note_on_c, 0, 52, 0
4, 400200, Note_on_c, 0, 52, 62
4, 400200, Note_on_c, 0, 57, 62
4, 400200, Note_on_c, 0, 59, 62
4, 400320, Note_on_c, 0, 59, 0
4, 400320, Note_on_c, 0, 57, 0
4, 400320, Note_on_c, 0, 52, 0
4, 400320, Note_on_c, 0, 52, 62
4, 400320, Note_on_c, 0, 57, 62
4, 400320, Note_on_c, 0, 59, 62
4, 400440, Note_on_c, 0, 59, 0
4, 400440, Note_on_c, 0, 57, 0
4, 400440, Note_on_c, 0, 52, 0
4, 400440, Note_on_c, 0, 52, 62
4, 400440, Note_on_c, 0, 57, 62
4, 400440, Note_on_c, 0, 59, 62
4, 400560, Note_on_c, 0, 59, 0
4, 400560, Note_on_c, 0, 57, 0
4, 400560, Note_on_c, 0, 52, 0
4, 400560, Note_on_c, 0, 52, 62
4, 400560, Note_on_c, 0, 57, 62
4, 400560, Note_on_c, 0, 59, 62
4, 400680, Note_on_c, 0, 59, 0
4, 400680, Note_on_c, 0, 57, 0
4, 400680, Note_on_c, 0, 52, 0
4, 400680, Note_on_c, 0, 52, 62
4, 400680, Note_on_c, 0, 57, 62
4, 400680, Note_on_c, 0, 59, 62
4, 400800, Note_on_c, 0, 59, 0
4, 400800, Note_on_c, 0, 57, 0
4, 400800, Note_on_c, 0, 52, 0
4, 400800, Note_on_c, 0, 52, 62
4, 400800, Note_on_c, 0, 57, 62
4, 400800, Note_on_c, 0, 59, 62
4, 400920, Note_on_c, 0, 59, 0
4, 400920, Note_on_c, 0, 57, 0
4, 400920, Note_on_c, 0, 52, 0
4, 400920, Note_on_c, 0, 52, 62
4, 400920, Note_on_c, 0, 57, 62
4, 400920, Note_on_c, 0, 59, 62
4, 401040, Note_on_c, 0, 59, 0
4, 401040, Note_on_c, 0, 57, 0
4, 401040, Note_on_c, 0, 52, 0
4, 401040, Note_on_c, 0, 52, 62
4, 401040, Note_on_c, 0, 57, 62
4, 401040, Note_on_c, 0, 59, 62
4, 401160, Note_on_c, 0, 59, 0
4, 401160, Note_on_c, 0, 57, 0
4, 401160, Note_on_c, 0, 52, 0
4, 401160, Control_c, 0, 64, 0
4, 401160, Note_on_c, 0, 52, 62
4, 401160, Note_on_c, 0, 57, 62
4, 401160, Note_on_c, 0, 59, 62
4, 401280, Note_on_c, 0, 59, 0
4, 401280, Note_on_c, 0, 57, 0
4, 401280, Note_on_c, 0, 52, 0
4, 401280, Control_c, 0, 64, 127
4, 401280, Note_on_c, 0, 52, 62
4, 401280, Note_on_c, 0, 56, 62
4, 401280, Note_on_c, 0, 59, 62
4, 401400, Note_on_c, 0, 59, 0
4, 401400, Note_on_c, 0, 56, 0
4, 401400, Note_on_c, 0, 52, 0
4, 401400, Note_on_c, 0, 52, 62
4, 401400, Note_on_c, 0, 56, 62
4, 401400, Note_on_c, 0, 59, 62
4, 401520, Note_on_c, 0, 59, 0
4, 401520, Note_on_c, 0, 56, 0
4, 401520, Note_on_c, 0, 52, 0
4, 401520, Note_on_c, 0, 52, 62
4, 401520, Note_on_c, 0, 56, 62
4, 401520, Note_on_c, 0, 59, 62
4, 401640, Note_on_c, 0, 59, 0
4, 401640, Note_on_c, 0, 56, 0
4, 401640, Note_on_c, 0, 52, 0
4, 401640, Note_on_c, 0, 52, 62
4, 401640, Note_on_c, 0, 56, 62
4, 401640, Note_on_c, 0, 59, 62
4, 401760, Note_on_c, 0, 59, 0
4, 401760, Note_on_c, 0, 56, 0
4, 401760, Note_on_c, 0, 52, 0
4, 401760, Note_on_c, 0, 52, 62
4, 401760, Note_on_c, 0, 56, 62
4, 401760, Note_on_c, 0, 59, 62
4, 401880, Note_on_c, 0, 59, 0
4, 401880, Note_on_c, 0, 56, 0
4, 401880, Note_on_c, 0, 52, 0
4, 401880, Control_c, 0, 64, 0
4, 401880, Note_on_c, 0, 52, 62
4, 401880, Note_on_c, 0, 56, 62
4, 401880, Note_on_c, 0, 59, 62
4, 402000, Note_on_c, 0, 59, 0
4, 402000, Note_on_c, 0, 56, 0
4, 402000, Note_on_c, 0, 52, 0
4, 402000, Control_c, 0, 64, 127
4, 402000, Note_on_c, 0, 49, 62
4, 402000, Note_on_c, 0, 56, 62
4, 402000, Note_on_c, 0, 61, 62
4, 402120, Note_on_c, 0, 61, 0
4, 402120, Note_on_c, 0, 56, 0
4, 402120, Note_on_c, 0, 49, 0
4, 402120, Note_on_c, 0, 49, 62
4, 402120, Note_on_c, 0, 56, 62
4, 402120, Note_on_c, 0, 61, 62
4, 402240, Note_on_c, 0, 61, 0
4, 402240, Note_on_c, 0, 56, 0
4, 402240, Note_on_c, 0, 49, 0
4, 402240, Note_on_c, 0, 49, 62
4, 402240, Note_on_c, 0, 56, 62
4, 402240, Note_on_c, 0, 61, 62
4, 402360, Note_on_c, 0, 61, 0
4, 402360, Note_on_c, 0, 56, 0
4, 402360, Note_on_c, 0, 49, 0
4, 402360, Note_on_c, 0, 49, 62
4, 402360, Note_on_c, 0, 56, 62
4, 402360, Note_on_c, 0, 61, 62
4, 402480, Note_on_c, 0, 61, 0
4, 402480, Note_on_c, 0, 56, 0
4, 402480, Note_on_c, 0, 49, 0
4, 402480, Note_on_c, 0, 49, 62
4, 402480, Note_on_c, 0, 56, 62
4, 402480, Note_on_c, 0, 61, 62
4, 402600, Note_on_c, 0, 61, 0
4, 402600, Note_on_c, 0, 56, 0
4, 402600, Note_on_c, 0, 49, 0
4, 402600, Control_c, 0, 64, 0
4, 402600, Note_on_c, 0, 49, 62
4, 402600, Note_on_c, 0, 56, 62
4, 402600, Note_on_c, 0, 61, 62
4, 402720, Note_on_c, 0, 61, 0
4, 402720, Note_on_c, 0, 56, 0
4, 402720, Note_on_c, 0, 49, 0
4, 402720, Control_c, 0, 64, 127
4, 402720, Note_on_c, 0, 51, 62
4, 402720, Note_on_c, 0, 55, 62
4, 402720, Note_on_c, 0, 63, 62
4, 402840, Note_on_c, 0, 63, 0
4, 402840, Note_on_c, 0, 55, 0
4, 402840, Note_on_c, 0, 51, 0
4, 402840, Note_on_c, 0, 51, 62
4, 402840, Note_on_c, 0, 55, 62
4, 402840, Note_on_c, 0, 63, 62
4, 402960, Note_on_c, 0, 63, 0
4, 402960, Note_on_c, 0, 55, 0
4, 402960, Note_on_c, 0, 51, 0
4, 402960, Note_on_c, 0, 51, 62
4, 402960, Note_on_c, 0, 55, 62
4, 402960, Note_on_c, 0, 63, 62
4, 403080, Note_on_c, 0, 63, 0
4, 403080, Note_on_c, 0, 55, 0
4, 403080, Note_on_c, 0, 51, 0
4, 403080, Note_on_c, 0, 51, 62
4, 403080, Note_on_c, 0, 55, 62
4, 403080, Note_on_c, 0, 63, 62
4, 403200, Note_on_c, 0, 63, 0
4, 403200, Note_on_c, 0, 55, 0
4, 403200, Note_on_c, 0, 51, 0
4, 403200, Note_on_c, 0, 51, 62
4, 403200, Note_on_c, 0, 55, 62
4, 403200, Note_on_c, 0, 63, 62
4, 403320, Note_on_c, 0, 63, 0
4, 403320, Note_on_c, 0, 55, 0
4, 403320, Note_on_c, 0, 51, 0
4, 403320, Control_c, 0, 64, 0
4, 403320, Note_on_c, 0, 51, 62
4, 403320, Note_on_c, 0, 55, 62
4, 403320, Note_on_c, 0, 63, 62
4, 403440, Note_on_c, 0, 63, 0
4, 403440, Note_on_c, 0, 55, 0
4, 403440, Note_on_c, 0, 51, 0
4, 403440, Control_c, 0, 64, 127
4, 403440, Note_on_c, 0, 56, 62
4, 403440, Note_on_c, 0, 59, 62
4, 403560, Note_on_c, 0, 59, 0
4, 403560, Note_on_c, 0, 56, 0
4, 403560, Note_on_c, 0, 56, 62
4, 403560, Note_on_c, 0, 59, 62
4, 403680, Note_on_c, 0, 59, 0
4, 403680, Note_on_c, 0, 56, 0
4, 403680, Note_on_c, 0, 56, 62
4, 403680, Note_on_c, 0, 59, 62
4, 403800, Note_on_c, 0, 59, 0
4, 403800, Note_on_c, 0, 56, 0
4, 403800, Note_on_c, 0, 56, 75
4, 403800, Note_on_c, 0, 59, 75
4, 403920, Note_on_c, 0, 59, 0
4, 403920, Note_on_c, 0, 56, 0
4, 403920, Note_on_c, 0, 56, 75
4, 403920, Note_on_c, 0, 59, 75
4, 404040, Note_on_c, 0, 59, 0
4, 404040, Note_on_c, 0, 56, 0
4, 404040, Control_c, 0, 64, 0
4, 404040, Note_on_c, 0, 56, 75
4, 404040, Note_on_c, 0, 59, 75
4, 404160, Note_on_c, 0, 59, 0
4, 404160, Note_on_c, 0, 56, 0
4, 404160, Control_c, 0, 64, 127
4, 404160, Note_on_c, 0, 40, 75
4, 404160, Note_on_c, 0, 45, 75
4, 404160, Note_on_c, 0, 47, 75
4, 404160, Note_on_c, 0, 52, 75
4, 404280, Note_on_c, 0, 52, 0
4, 404280, Note_on_c, 0, 40, 0
4, 404280, Note_on_c, 0, 45, 0
4, 404280, Note_on_c, 0, 47, 0
4, 404280, Note_on_c, 0, 52, 75
4, 404280, Note_on_c, 0, 54, 75
4, 404280, Note_on_c, 0, 57, 75
4, 404280, Note_on_c, 0, 59, 75
4, 404400, Note_on_c, 0, 59, 0
4, 404400, Note_on_c, 0, 52, 0
4, 404400, Note_on_c, 0, 54, 0
4, 404400, Note_on_c, 0, 57, 0
4, 404400, Note_on_c, 0, 52, 75
4, 404400, Note_on_c, 0, 54, 75
4, 404400, Note_on_c, 0, 57, 75
4, 404400, Note_on_c, 0, 59, 75
4, 404520, Note_on_c, 0, 59, 0
4, 404520, Note_on_c, 0, 52, 0
4, 404520, Note_on_c, 0, 54, 0
4, 404520, Note_on_c, 0, 57, 0
4, 404520, Note_on_c, 0, 52, 75
4, 404520, Note_on_c, 0, 54, 75
4, 404520, Note_on_c, 0, 57, 75
4, 404520, Note_on_c, 0, 59, 75
4, 404640, Note_on_c, 0, 59, 0
4, 404640, Note_on_c, 0, 52, 0
4, 404640, Note_on_c, 0, 54, 0
4, 404640, Note_on_c, 0, 57, 0
4, 404640, Note_on_c, 0, 52, 75
4, 404640, Note_on_c, 0, 54, 75
4, 404640, Note_on_c, 0, 57, 75
4, 404640, Note_on_c, 0, 59, 75
4, 404760, Note_on_c, 0, 59, 0
4, 404760, Note_on_c, 0, 52, 0
4, 404760, Note_on_c, 0, 54, 0
4, 404760, Note_on_c, 0, 57, 0
4, 404760, Note_on_c, 0, 52, 75
4, 404760, Note_on_c, 0, 54, 75
4, 404760, Note_on_c, 0, 57, 75
4, 404760, Note_on_c, 0, 59, 75
4, 404880, Note_on_c, 0, 59, 0
4, 404880, Note_on_c, 0, 52, 0
4, 404880, Note_on_c, 0, 54, 0
4, 404880, Note_on_c, 0, 57, 0
4, 404880, Note_on_c, 0, 52, 75
4, 404880, Note_on_c, 0, 54, 75
4, 404880, Note_on_c, 0, 57, 75
4, 404880, Note_on_c, 0, 59, 75
4, 405000, Note_on_c, 0, 59, 0
4, 405000, Note_on_c, 0, 52, 0
4, 405000, Note_on_c, 0, 54, 0
4, 405000, Note_on_c, 0, 57, 0
4, 405000, Note_on_c, 0, 52, 75
4, 405000, Note_on_c, 0, 54, 75
4, 405000, Note_on_c, 0, 57, 75
4, 405000, Note_on_c, 0, 59, 75
4, 405120, Note_on_c, 0, 59, 0
4, 405120, Note_on_c, 0, 52, 0
4, 405120, Note_on_c, 0, 54, 0
4, 405120, Note_on_c, 0, 57, 0
4, 405120, Note_on_c, 0, 52, 75
4, 405120, Note_on_c, 0, 54, 75
4, 405120, Note_on_c, 0, 57, 75
4, 405120, Note_on_c, 0, 59, 75
4, 405240, Note_on_c, 0, 59, 0
4, 405240, Note_on_c, 0, 52, 0
4, 405240, Note_on_c, 0, 54, 0
4, 405240, Note_on_c, 0, 57, 0
4, 405240, Note_on_c, 0, 52, 75
4, 405240, Note_on_c, 0, 54, 75
4, 405240, Note_on_c, 0, 57, 75
4, 405240, Note_on_c, 0, 59, 75
4, 405360, Note_on_c, 0, 59, 0
4, 405360, Note_on_c, 0, 52, 0
4, 405360, Note_on_c, 0, 54, 0
4, 405360, Note_on_c, 0, 57, 0
4, 405360, Note_on_c, 0, 52, 75
4, 405360, Note_on_c, 0, 54, 75
4, 405360, Note_on_c, 0, 57, 75
4, 405360, Note_on_c, 0, 59, 75
4, 405480, Note_on_c, 0, 59, 0
4, 405480, Note_on_c, 0, 52, 0
4, 405480, Note_on_c, 0, 54, 0
4, 405480, Note_on_c, 0, 57, 0
4, 405480, Control_c, 0, 64, 0
4, 405480, Note_on_c, 0, 52, 75
4, 405480, Note_on_c, 0, 54, 75
4, 405480, Note_on_c, 0, 57, 75
4, 405480, Note_on_c, 0, 59, 75
4, 405600, Note_on_c, 0, 59, 0
4, 405600, Note_on_c, 0, 52, 0
4, 405600, Note_on_c, 0, 54, 0
4, 405600, Note_on_c, 0, 57, 0
4, 405840, Note_on_c, 0, 59, 114
4, 406080, Note_on_c, 0, 59, 0
4, 406080, Note_on_c, 0, 61, 114
4, 406320, Note_on_c, 0, 61, 0
4, 406320, Note_on_c, 0, 63, 88
4, 406560, Note_on_c, 0, 63, 0
4, 406560, Note_on_c, 0, 64, 88
4, 406800, Note_on_c, 0, 64, 0
4, 406800, Note_on_c, 0, 66, 88
4, 407040, Note_on_c, 0, 66, 0
4, 407040, Note_on_c, 0, 64, 88
4, 407280, Note_on_c, 0, 64, 0
4, 407280, Note_on_c, 0, 63, 88
4, 407520, Note_on_c, 0, 63, 0
4, 407520, Note_on_c, 0, 61, 88
4, 407760, Note_on_c, 0, 61, 0
4, 407760, Note_on_c, 0, 59, 88
4, 408720, Note_on_c, 0, 59, 0
4, 408720, Note_on_c, 0, 59, 114
4, 408960, Note_on_c, 0, 59, 0
4, 408960, Note_on_c, 0, 61, 114
4, 409200, Note_on_c, 0, 61, 0
4, 409200, Note_on_c, 0, 63, 88
4, 409440, Note_on_c, 0, 63, 0
4, 409440, Note_on_c, 0, 64, 88
4, 409680, Note_on_c, 0, 64, 0
4, 409680, Note_on_c, 0, 66, 88
4, 409920, Note_on_c, 0, 66, 0
4, 409920, Note_on_c, 0, 64, 88
4, 410160, Note_on_c, 0, 64, 0
4, 410160, Note_on_c, 0, 63, 88
4, 410400, Note_on_c, 0, 63, 0
4, 410400, Note_on_c, 0, 61, 88
4, 410640, Note_on_c, 0, 61, 0
4, 410640, Note_on_c, 0, 59, 88
4, 411120, Note_on_c, 0, 59, 0
4, 411120, Note_on_c, 0, 59, 88
4, 411360, Note_on_c, 0, 59, 0
4, 411360, Note_on_c, 0, 61, 88
4, 411840, Note_on_c, 0, 61, 0
4, 411840, Note_on_c, 0, 59, 88
4, 412080, Note_on_c, 0, 59, 0
4, 412080, Note_on_c, 0, 54, 88
4, 412560, Note_on_c, 0, 54, 0
4, 412560, Note_on_c, 0, 59, 88
4, 412800, Note_on_c, 0, 59, 0
4, 412800, Note_on_c, 0, 61, 88
4, 413280, Note_on_c, 0, 61, 0
4, 413280, Note_on_c, 0, 59, 88
4, 413520, Note_on_c, 0, 59, 0
4, 413520, Note_on_c, 0, 54, 88
4, 414000, Note_on_c, 0, 54, 0
4, 414000, Note_on_c, 0, 59, 88
4, 414240, Note_on_c, 0, 59, 0
4, 414240, Note_on_c, 0, 61, 114
4, 414720, Note_on_c, 0, 61, 0
4, 414720, Note_on_c, 0, 59, 88
4, 415200, Note_on_c, 0, 59, 0
4, 415200, Note_on_c, 0, 68, 88
4, 415440, Note_on_c, 0, 68, 0
4, 415440, Note_on_c, 0, 71, 88
4, 415680, Note_on_c, 0, 71, 0
4, 415920, Note_on_c, 0, 64, 88
4, 416160, Note_on_c, 0, 64, 0
4, 416160, Note_on_c, 0, 68, 88
4, 416400, Note_on_c, 0, 68, 0
4, 416640, Note_on_c, 0, 59, 88
4, 416880, Note_on_c, 0, 59, 0
4, 416880, Note_on_c, 0, 64, 88
4, 417120, Note_on_c, 0, 64, 0
4, 417120, Control_c, 0, 64, 127
4, 417120, Note_on_c, 0, 40, 75
4, 417120, Note_on_c, 0, 52, 75
4, 417360, Note_on_c, 0, 52, 0
4, 417360, Note_on_c, 0, 40, 0
4, 417360, Note_on_c, 0, 40, 75
4, 417360, Note_on_c, 0, 44, 75
4, 417360, Note_on_c, 0, 47, 75
4, 417360, Note_on_c, 0, 52, 75
4, 417600, Note_on_c, 0, 52, 0
4, 417600, Note_on_c, 0, 40, 0
4, 417600, Note_on_c, 0, 44, 0
4, 417600, Note_on_c, 0, 47, 0
4, 417600, Note_on_c, 0, 40, 75
4, 417600, Note_on_c, 0, 44, 75
4, 417600, Note_on_c, 0, 47, 75
4, 417600, Note_on_c, 0, 52, 75
4, 417840, Note_on_c, 0, 52, 0
4, 417840, Note_on_c, 0, 40, 0
4, 417840, Note_on_c, 0, 44, 0
4, 417840, Note_on_c, 0, 47, 0
4, 417840, Note_on_c, 0, 40, 75
4, 417840, Note_on_c, 0, 44, 75
4, 417840, Note_on_c, 0, 47, 75
4, 417840, Note_on_c, 0, 52, 75
4, 418080, Note_on_c, 0, 52, 0
4, 418080, Note_on_c, 0, 40, 0
4, 418080, Note_on_c, 0, 44, 0
4, 418080, Note_on_c, 0, 47, 0
4, 418080, Note_on_c, 0, 40, 75
4, 418080, Note_on_c, 0, 44, 75
4, 418080, Note_on_c, 0, 47, 75
4, 418080, Note_on_c, 0, 52, 75
4, 418320, Note_on_c, 0, 52, 0
4, 418320, Note_on_c, 0, 40, 0
4, 418320, Note_on_c, 0, 44, 0
4, 418320, Note_on_c, 0, 47, 0
4, 418320, Note_on_c, 0, 40, 75
4, 418320, Note_on_c, 0, 44, 75
4, 418320, Note_on_c, 0, 47, 75
4, 418320, Note_on_c, 0, 52, 75
4, 418560, Note_on_c, 0, 52, 0
4, 418560, Note_on_c, 0, 40, 0
4, 418560, Note_on_c, 0, 44, 0
4, 418560, Note_on_c, 0, 47, 0
4, 418560, Note_on_c, 0, 40, 75
4, 418560, Note_on_c, 0, 44, 75
4, 418560, Note_on_c, 0, 47, 75
4, 418560, Note_on_c, 0, 52, 75
4, 418800, Note_on_c, 0, 52, 0
4, 418800, Note_on_c, 0, 40, 0
4, 418800, Note_on_c, 0, 44, 0
4, 418800, Note_on_c, 0, 47, 0
4, 418800, Note_on_c, 0, 40, 75
4, 418800, Note_on_c, 0, 44, 75
4, 418800, Note_on_c, 0, 47, 75
4, 418800, Note_on_c, 0, 52, 75
4, 419040, Note_on_c, 0, 52, 0
4, 419040, Note_on_c, 0, 40, 0
4, 419040, Note_on_c, 0, 44, 0
4, 419040, Note_on_c, 0, 47, 0
4, 419040, Note_on_c, 0, 40, 75
4, 419040, Note_on_c, 0, 44, 75
4, 419040, Note_on_c, 0, 47, 75
4, 419040, Note_on_c, 0, 52, 75
4, 419280, Note_on_c, 0, 52, 0
4, 419280, Note_on_c, 0, 40, 0
4, 419280, Note_on_c, 0, 44, 0
4, 419280, Note_on_c, 0, 47, 0
4, 419280, Note_on_c, 0, 40, 75
4, 419280, Note_on_c, 0, 44, 75
4, 419280, Note_on_c, 0, 47, 75
4, 419280, Note_on_c, 0, 52, 75
4, 419520, Note_on_c, 0, 52, 0
4, 419520, Note_on_c, 0, 40, 0
4, 419520, Note_on_c, 0, 44, 0
4, 419520, Note_on_c, 0, 47, 0
4, 419520, Note_on_c, 0, 40, 75
4, 419520, Note_on_c, 0, 44, 75
4, 419520, Note_on_c, 0, 47, 75
4, 419520, Note_on_c, 0, 52, 75
4, 419760, Note_on_c, 0, 52, 0
4, 419760, Note_on_c, 0, 40, 0
4, 419760, Note_on_c, 0, 44, 0
4, 419760, Note_on_c, 0, 47, 0
4, 419760, Note_on_c, 0, 40, 75
4, 419760, Note_on_c, 0, 44, 75
4, 419760, Note_on_c, 0, 47, 75
4, 419760, Note_on_c, 0, 52, 75
4, 420000, Note_on_c, 0, 52, 0
4, 420000, Note_on_c, 0, 40, 0
4, 420000, Note_on_c, 0, 44, 0
4, 420000, Note_on_c, 0, 47, 0
4, 420000, Control_c, 0, 64, 0
4, 420000, Note_on_c, 0, 40, 75
4, 420000, Note_on_c, 0, 44, 75
4, 420000, Note_on_c, 0, 47, 75
4, 420000, Note_on_c, 0, 52, 75
4, 420240, Note_on_c, 0, 52, 0
4, 420240, Note_on_c, 0, 40, 0
4, 420240, Note_on_c, 0, 44, 0
4, 420240, Note_on_c, 0, 47, 0
4, 420240, Control_c, 0, 64, 127
4, 420240, Note_on_c, 0, 28, 75
4, 420300, Note_on_c, 0, 28, 0
4, 420300, Note_on_c, 0, 40, 75
4, 420360, Note_on_c, 0, 40, 0
4, 420360, Note_on_c, 0, 28, 75
4, 420420, Note_on_c, 0, 28, 0
4, 420420, Note_on_c, 0, 40, 75
4, 420480, Note_on_c, 0, 40, 0
4, 420480, Note_on_c, 0, 28, 75
4, 420540, Note_on_c, 0, 28, 0
4, 420540, Note_on_c, 0, 40, 75
4, 420600, Note_on_c, 0, 40, 0
4, 420600, Note_on_c, 0, 28, 75
4, 420660, Note_on_c, 0, 28, 0
4, 420660, Note_on_c, 0, 40, 75
4, 420720, Note_on_c, 0, 40, 0
4, 420720, Note_on_c, 0, 28, 75
4, 420780, Note_on_c, 0, 28, 0
4, 420780, Note_on_c, 0, 40, 75
4, 420840, Note_on_c, 0, 40, 0
4, 420840, Note_on_c, 0, 28, 75
4, 420900, Note_on_c, 0, 28, 0
4, 420900, Note_on_c, 0, 40, 75
4, 420960, Note_on_c, 0, 40, 0
4, 420960, Note_on_c, 0, 28, 75
4, 421020, Note_on_c, 0, 28, 0
4, 421020, Note_on_c, 0, 40, 75
4, 421080, Note_on_c, 0, 40, 0
4, 421080, Note_on_c, 0, 28, 75
4, 421140, Note_on_c, 0, 28, 0
4, 421140, Note_on_c, 0, 40, 75
4, 421200, Note_on_c, 0, 40, 0
4, 421200, Note_on_c, 0, 28, 75
4, 421260, Note_on_c, 0, 28, 0
4, 421260, Note_on_c, 0, 40, 75
4, 421320, Note_on_c, 0, 40, 0
4, 421320, Note_on_c, 0, 28, 75
4, 421380, Note_on_c, 0, 28, 0
4, 421380, Control_c, 0, 64, 0
4, 421380, Note_on_c, 0, 40, 75
4, 421440, Note_on_c, 0, 40, 0
4, 421440, Note_on_c, 0, 47, 88
4, 421440, Note_on_c, 0, 52, 88
4, 421440, Note_on_c, 0, 56, 88
4, 421440, Note_on_c, 0, 59, 88
4, 421500, Note_on_c, 0, 59, 0
4, 421500, Note_on_c, 0, 47, 0
4, 421500, Note_on_c, 0, 52, 0
4, 421500, Note_on_c, 0, 56, 0
4, 421500, Note_on_c, 0, 47, 88
4, 421500, Note_on_c, 0, 52, 88
4, 421500, Note_on_c, 0, 56, 88
4, 421500, Note_on_c, 0, 59, 88
4, 421560, Note_on_c, 0, 59, 0
4, 421560, Note_on_c, 0, 47, 0
4, 421560, Note_on_c, 0, 52, 0
4, 421560, Note_on_c, 0, 56, 0
4, 421560, Note_on_c, 0, 47, 88
4, 421560, Note_on_c, 0, 52, 88
4, 421560, Note_on_c, 0, 56, 88
4, 421560, Note_on_c, 0, 59, 88
4, 421680, Note_on_c, 0, 59, 0
4, 421680, Note_on_c, 0, 47, 0
4, 421680, Note_on_c, 0, 52, 0
4, 421680, Note_on_c, 0, 56, 0
4, 421680, Control_c, 0, 64, 127
4, 421680, Note_on_c, 0, 28, 88
4, 421740, Note_on_c, 0, 28, 0
4, 421740, Note_on_c, 0, 40, 88
4, 421800, Note_on_c, 0, 40, 0
4, 421800, Note_on_c, 0, 28, 88
4, 421860, Note_on_c, 0, 28, 0
4, 421860, Note_on_c, 0, 40, 88
4, 421920, Note_on_c, 0, 40, 0
4, 421920, Note_on_c, 0, 28, 88
4, 421980, Note_on_c, 0, 28, 0
4, 421980, Note_on_c, 0, 40, 88
4, 422040, Note_on_c, 0, 40, 0
4, 422040, Note_on_c, 0, 28, 88
4, 422100, Note_on_c, 0, 28, 0
4, 422100, Note_on_c, 0, 40, 88
4, 422160, Note_on_c, 0, 40, 0
4, 422160, Note_on_c, 0, 28, 88
4, 422220, Note_on_c, 0, 28, 0
4, 422220, Note_on_c, 0, 40, 88
4, 422280, Note_on_c, 0, 40, 0
4, 422280, Note_on_c, 0, 28, 88
4, 422340, Note_on_c, 0, 28, 0
4, 422340, Note_on_c, 0, 40, 88
4, 422400, Note_on_c, 0, 40, 0
4, 422400, Note_on_c, 0, 28, 88
4, 422460, Note_on_c, 0, 28, 0
4, 422460, Note_on_c, 0, 40, 88
4, 422520, Note_on_c, 0, 40, 0
4, 422520, Note_on_c, 0, 28, 88
4, 422580, Note_on_c, 0, 28, 0
4, 422580, Note_on_c, 0, 40, 88
4, 422640, Note_on_c, 0, 40, 0
4, 422640, Note_on_c, 0, 28, 88
4, 422700, Note_on_c, 0, 28, 0
4, 422700, Note_on_c, 0, 40, 88
4, 422760, Note_on_c, 0, 40, 0
4, 422760, Note_on_c, 0, 28, 88
4, 422820, Note_on_c, 0, 28, 0
4, 422820, Note_on_c, 0, 40, 88
4, 422880, Note_on_c, 0, 40, 0
4, 422880, Control_c, 0, 64, 0
4, 422880, Note_on_c, 0, 28, 88
4, 422880, Note_on_c, 0, 40, 88
4, 423360, Note_on_c, 0, 40, 0
4, 423360, Note_on_c, 0, 28, 0
4, 423360, End_track
5, 0, Start_track
5, 0, Title_t, "Grand Piano"
5, 0, Program_c, 0, 0
5, 0, Control_c, 0, 7, 115
5, 0, Control_c, 0, 10, 48
5, 12000, Note_on_c, 0, 50, 64
5, 12480, Note_on_c, 0, 50, 0
5, 12960, Note_on_c, 0, 50, 64
5, 13440, Note_on_c, 0, 50, 0
5, 13440, Control_c, 0, 64, 127
5, 13440, Note_on_c, 0, 34, 49
5, 13440, Note_on_c, 0, 50, 49
5, 15360, Note_on_c, 0, 50, 0
5, 15360, Note_on_c, 0, 34, 0
5, 16800, Control_c, 0, 64, 0
5, 17280, Control_c, 0, 64, 127
5, 17280, Note_on_c, 0, 34, 49
5, 17280, Note_on_c, 0, 46, 49
5, 17280, Note_on_c, 0, 51, 49
5, 17280, Note_on_c, 0, 57, 49
5, 19200, Note_on_c, 0, 57, 0
5, 19200, Note_on_c, 0, 34, 0
5, 19200, Note_on_c, 0, 46, 0
5, 19200, Note_on_c, 0, 51, 0
5, 20640, Control_c, 0, 64, 0
5, 21120, Note_on_c, 0, 46, 49
5, 21120, Note_on_c, 0, 52, 49
5, 21120, Note_on_c, 0, 58, 49
5, 23040, Note_on_c, 0, 58, 0
5, 23040, Note_on_c, 0, 52, 0
5, 23040, Note_on_c, 0, 46, 0
5, 23280, Note_on_c, 0, 49, 75
5, 23280, Note_on_c, 0, 56, 75
5, 23520, Note_on_c, 0, 56, 0
5, 23520, Note_on_c, 0, 49, 0
5, 23520, Note_on_c, 0, 49, 49
5, 23520, Note_on_c, 0, 56, 49
5, 23880, Note_on_c, 0, 56, 0
5, 23880, Note_on_c, 0, 49, 0
5, 23880, Note_on_c, 0, 49, 49
5, 23880, Note_on_c, 0, 56, 49
5, 24000, Note_on_c, 0, 56, 0
5, 24000, Note_on_c, 0, 49, 0
5, 24000, Note_on_c, 0, 49, 49
5, 24000, Note_on_c, 0, 56, 49
5, 24240, Note_on_c, 0, 56, 0
5, 24240, Note_on_c, 0, 49, 0
5, 24240, Note_on_c, 0, 49, 49
5, 24240, Note_on_c, 0, 56, 49
5, 24480, Note_on_c, 0, 56, 0
5, 24480, Note_on_c, 0, 49, 0
5, 25200, Note_on_c, 0, 50, 75
5, 25200, Note_on_c, 0, 57, 75
5, 25440, Note_on_c, 0, 57, 0
5, 25440, Note_on_c, 0, 50, 0
5, 26160, Note_on_c, 0, 51, 75
5, 26160, Note_on_c, 0, 58, 75
5, 26400, Note_on_c, 0, 58, 0
5, 26400, Note_on_c, 0, 51, 0
5, 38880, Note_on_c, 0, 50, 75
5, 40560, Note_on_c, 0, 50, 0
5, 40800, Note_on_c, 0, 50, 75
5, 42480, Note_on_c, 0, 50, 0
5, 54240, Note_on_c, 0, 47, 75
5, 55920, Note_on_c, 0, 47, 0
5, 56160, Note_on_c, 0, 47, 75
5, 57600, Note_on_c, 0, 47, 0
5, 61440, Note_on_c, 0, 52, 75
5, 61440, Note_on_c, 0, 55, 75
5, 61680, Note_on_c, 0, 55, 0
5, 61680, Note_on_c, 0, 52, 0
5, 61680, Note_on_c, 0, 52, 75
5, 61680, Note_on_c, 0, 55, 75
5, 61920, Note_on_c, 0, 55, 0
5, 61920, Note_on_c, 0, 52, 0
5, 62160, Note_on_c, 0, 52, 75
5, 62160, Note_on_c, 0, 55, 75
5, 62400, Note_on_c, 0, 55, 0
5, 62400, Note_on_c, 0, 52, 0
5, 62400, Note_on_c, 0, 50, 75
5, 62400, Note_on_c, 0, 52, 75
5, 62640, Note_on_c, 0, 52, 0
5, 62640, Note_on_c, 0, 50, 0
5, 62640, Note_on_c, 0, 50, 75
5, 62640, Note_on_c, 0, 52, 75
5, 62880, Note_on_c, 0, 52, 0
5, 62880, Note_on_c, 0, 50, 0
5, 63120, Note_on_c, 0, 50, 75
5, 63120, Note_on_c, 0, 52, 75
5, 63360, Note_on_c, 0, 52, 0
5, 63360, Note_on_c, 0, 50, 0
5, 84000, Note_on_c, 0, 49, 75
5, 84360, Note_on_c, 0, 49, 0
5, 84960, Note_on_c, 0, 49, 75
5, 85320, Note_on_c, 0, 49, 0
5, 85920, Note_on_c, 0, 49, 75
5, 86280, Note_on_c, 0, 49, 0
5, 86400, Note_on_c, 0, 52, 75
5, 86760, Note_on_c, 0, 52, 0
5, 86880, Note_on_c, 0, 55, 75
5, 87240, Note_on_c, 0, 55, 0
5, 87360, Note_on_c, 0, 58, 75
5, 87720, Note_on_c, 0, 58, 0
5, 93600, Note_on_c, 0, 40, 62
5, 93759, Note_on_c, 0, 40, 0
5, 93759, Note_on_c, 0, 40, 62
5, 93920, Note_on_c, 0, 40, 0
5, 93920, Note_on_c, 0, 40, 62
5, 94080, Note_on_c, 0, 40, 0
5, 94080, Note_on_c, 0, 40, 62
5, 94239, Note_on_c, 0, 40, 0
5, 94239, Note_on_c, 0, 40, 62
5, 94400, Note_on_c, 0, 40, 0
5, 94400, Note_on_c, 0, 40, 62
5, 94560, Note_on_c, 0, 40, 0
5, 94560, Note_on_c, 0, 40, 75
5, 94719, Note_on_c, 0, 40, 0
5, 94719, Note_on_c, 0, 40, 75
5, 94880, Note_on_c, 0, 40, 0
5, 94880, Note_on_c, 0, 40, 75
5, 95040, Note_on_c, 0, 40, 0
5, 95040, Note_on_c, 0, 40, 75
5, 95199, Note_on_c, 0, 40, 0
5, 95199, Note_on_c, 0, 40, 75
5, 95360, Note_on_c, 0, 40, 0
5, 95360, Note_on_c, 0, 40, 75
5, 95520, Note_on_c, 0, 40, 0
5, 95520, Note_on_c, 0, 40, 75
5, 95679, Note_on_c, 0, 40, 0
5, 95679, Note_on_c, 0, 40, 75
5, 95840, Note_on_c, 0, 40, 0
5, 95840, Note_on_c, 0, 40, 75
5, 96000, Note_on_c, 0, 40, 0
5, 96000, Note_on_c, 0, 40, 75
5, 96159, Note_on_c, 0, 40, 0
5, 96159, Note_on_c, 0, 40, 75
5, 96320, Note_on_c, 0, 40, 0
5, 96320, Note_on_c, 0, 40, 75
5, 96480, Note_on_c, 0, 40, 0
5, 96480, Note_on_c, 0, 40, 88
5, 96639, Note_on_c, 0, 40, 0
5, 96639, Note_on_c, 0, 40, 88
5, 96800, Note_on_c, 0, 40, 0
5, 96800, Note_on_c, 0, 40, 88
5, 96960, Note_on_c, 0, 40, 0
5, 96960, Note_on_c, 0, 40, 88
5, 97119, Note_on_c, 0, 40, 0
5, 97119, Note_on_c, 0, 40, 88
5, 97280, Note_on_c, 0, 40, 0
5, 97280, Note_on_c, 0, 40, 88
5, 97440, Note_on_c, 0, 40, 0
5, 97440, Note_on_c, 0, 40, 62
5, 97599, Note_on_c, 0, 40, 0
5, 97599, Note_on_c, 0, 40, 62
5, 97760, Note_on_c, 0, 40, 0
5, 97760, Note_on_c, 0, 40, 62
5, 97920, Note_on_c, 0, 40, 0
5, 97920, Note_on_c, 0, 40, 62
5, 98079, Note_on_c, 0, 40, 0
5, 98079, Note_on_c, 0, 40, 62
5, 98240, Note_on_c, 0, 40, 0
5, 98240, Note_on_c, 0, 40, 62
5, 98400, Note_on_c, 0, 40, 0
5, 98400, Note_on_c, 0, 40, 75
5, 98559, Note_on_c, 0, 40, 0
5, 98559, Note_on_c, 0, 40, 75
5, 98720, Note_on_c, 0, 40, 0
5, 98720, Note_on_c, 0, 40, 75
5, 98880, Note_on_c, 0, 40, 0
5, 98880, Note_on_c, 0, 40, 75
5, 99039, Note_on_c, 0, 40, 0
5, 99039, Note_on_c, 0, 40, 75
5, 99200, Note_on_c, 0, 40, 0
5, 99200, Note_on_c, 0, 40, 75
5, 99360, Note_on_c, 0, 40, 0
5, 99360, Note_on_c, 0, 40, 75
5, 99519, Note_on_c, 0, 40, 0
5, 99519, Note_on_c, 0, 40, 75
5, 99680, Note_on_c, 0, 40, 0
5, 99680, Note_on_c, 0, 40, 75
5, 99840, Note_on_c, 0, 40, 0
5, 99840, Note_on_c, 0, 40, 75
5, 99999, Note_on_c, 0, 40, 0
5, 99999, Note_on_c, 0, 40, 75
5, 100160, Note_on_c, 0, 40, 0
5, 100160, Note_on_c, 0, 40, 75
5, 100320, Note_on_c, 0, 40, 0
5, 100320, Note_on_c, 0, 40, 88
5, 100479, Note_on_c, 0, 40, 0
5, 100479, Note_on_c, 0, 40, 88
5, 100640, Note_on_c, 0, 40, 0
5, 100640, Note_on_c, 0, 40, 88
5, 100800, Note_on_c, 0, 40, 0
5, 100800, Note_on_c, 0, 40, 75
5, 100959, Note_on_c, 0, 40, 0
5, 100959, Note_on_c, 0, 40, 75
5, 101120, Note_on_c, 0, 40, 0
5, 101120, Note_on_c, 0, 40, 75
5, 101280, Note_on_c, 0, 40, 0
5, 101280, Note_on_c, 0, 40, 75
5, 101439, Note_on_c, 0, 40, 0
5, 101439, Note_on_c, 0, 40, 75
5, 101600, Note_on_c, 0, 40, 0
5, 101600, Note_on_c, 0, 40, 75
5, 101760, Note_on_c, 0, 40, 0
5, 101760, Note_on_c, 0, 40, 75
5, 101919, Note_on_c, 0, 40, 0
5, 101919, Note_on_c, 0, 40, 75
5, 102080, Note_on_c, 0, 40, 0
5, 102080, Note_on_c, 0, 40, 75
5, 102240, Note_on_c, 0, 40, 0
5, 102240, Note_on_c, 0, 40, 75
5, 102399, Note_on_c, 0, 40, 0
5, 102399, Note_on_c, 0, 40, 75
5, 102560, Note_on_c, 0, 40, 0
5, 102560, Note_on_c, 0, 40, 75
5, 102720, Note_on_c, 0, 40, 0
5, 102720, Note_on_c, 0, 40, 75
5, 102879, Note_on_c, 0, 40, 0
5, 102879, Note_on_c, 0, 40, 75
5, 103040, Note_on_c, 0, 40, 0
5, 103040, Note_on_c, 0, 40, 75
5, 103200, Note_on_c, 0, 40, 0
5, 103200, Note_on_c, 0, 52, 75
5, 103359, Note_on_c, 0, 52, 0
5, 103359, Note_on_c, 0, 52, 75
5, 103520, Note_on_c, 0, 52, 0
5, 103520, Note_on_c, 0, 52, 75
5, 103680, Note_on_c, 0, 52, 0
5, 103680, Note_on_c, 0, 52, 75
5, 103839, Note_on_c, 0, 52, 0
5, 103839, Note_on_c, 0, 52, 75
5, 104000, Note_on_c, 0, 52, 0
5, 104000, Note_on_c, 0, 52, 75
5, 104160, Note_on_c, 0, 52, 0
5, 104160, Note_on_c, 0, 40, 88
5, 104319, Note_on_c, 0, 40, 0
5, 104319, Note_on_c, 0, 40, 88
5, 104480, Note_on_c, 0, 40, 0
5, 104480, Note_on_c, 0, 40, 88
5, 104640, Note_on_c, 0, 40, 0
5, 104640, Note_on_c, 0, 40, 75
5, 104799, Note_on_c, 0, 40, 0
5, 104799, Note_on_c, 0, 40, 75
5, 104960, Note_on_c, 0, 40, 0
5, 104960, Note_on_c, 0, 40, 75
5, 105120, Note_on_c, 0, 40, 0
5, 105120, Note_on_c, 0, 40, 75
5, 105279, Note_on_c, 0, 40, 0
5, 105279, Note_on_c, 0, 40, 75
5, 105440, Note_on_c, 0, 40, 0
5, 105440, Note_on_c, 0, 40, 75
5, 105600, Note_on_c, 0, 40, 0
5, 105600, Note_on_c, 0, 40, 75
5, 105759, Note_on_c, 0, 40, 0
5, 105759, Note_on_c, 0, 40, 75
5, 105920, Note_on_c, 0, 40, 0
5, 105920, Note_on_c, 0, 40, 75
5, 106080, Note_on_c, 0, 40, 0
5, 106080, Note_on_c, 0, 40, 75
5, 106239, Note_on_c, 0, 40, 0
5, 106239, Note_on_c, 0, 40, 75
5, 106400, Note_on_c, 0, 40, 0
5, 106400, Note_on_c, 0, 40, 75
5, 106560, Note_on_c, 0, 40, 0
5, 106560, Note_on_c, 0, 40, 75
5, 106719, Note_on_c, 0, 40, 0
5, 106719, Note_on_c, 0, 40, 75
5, 106880, Note_on_c, 0, 40, 0
5, 106880, Note_on_c, 0, 40, 75
5, 107040, Note_on_c, 0, 40, 0
5, 107040, Note_on_c, 0, 52, 75
5, 107199, Note_on_c, 0, 52, 0
5, 107199, Note_on_c, 0, 52, 75
5, 107360, Note_on_c, 0, 52, 0
5, 107360, Note_on_c, 0, 52, 75
5, 107520, Note_on_c, 0, 52, 0
5, 107520, Note_on_c, 0, 52, 75
5, 107679, Note_on_c, 0, 52, 0
5, 107679, Note_on_c, 0, 52, 75
5, 107840, Note_on_c, 0, 52, 0
5, 107840, Note_on_c, 0, 52, 75
5, 108000, Note_on_c, 0, 52, 0
5, 108000, Note_on_c, 0, 52, 88
5, 108159, Note_on_c, 0, 52, 0
5, 108159, Note_on_c, 0, 52, 88
5, 108320, Note_on_c, 0, 52, 0
5, 108320, Note_on_c, 0, 52, 88
5, 108480, Note_on_c, 0, 52, 0
5, 112800, Note_on_c, 0, 48, 88
5, 112800, Note_on_c, 0, 50, 88
5, 113040, Note_on_c, 0, 50, 0
5, 113040, Note_on_c, 0, 48, 0
5, 113280, Note_on_c, 0, 47, 88
5, 113280, Note_on_c, 0, 50, 88
5, 113520, Note_on_c, 0, 50, 0
5, 113520, Note_on_c, 0, 47, 0
5, 113760, Note_on_c, 0, 43, 88
5, 113760, Note_on_c, 0, 50, 88
5, 114000, Note_on_c, 0, 50, 0
5, 114000, Note_on_c, 0, 43, 0
5, 114240, Note_on_c, 0, 48, 88
5, 114240, Note_on_c, 0, 55, 88
5, 114480, Note_on_c, 0, 55, 0
5, 114480, Note_on_c, 0, 48, 0
5, 114720, Note_on_c, 0, 51, 88
5, 114720, Note_on_c, 0, 55, 88
5, 114960, Note_on_c, 0, 55, 0
5, 114960, Note_on_c, 0, 51, 0
5, 115200, Note_on_c, 0, 50, 88
5, 115200, Note_on_c, 0, 55, 88
5, 115440, Note_on_c, 0, 55, 0
5, 115440, Note_on_c, 0, 50, 0
5, 115680, Note_on_c, 0, 50, 88
5, 115680, Note_on_c, 0, 54, 88
5, 115920, Note_on_c, 0, 54, 0
5, 115920, Note_on_c, 0, 50, 0
5, 116640, Note_on_c, 0, 51, 88
5, 116640, Note_on_c, 0, 55, 88
5, 116880, Note_on_c, 0, 55, 0
5, 116880, Note_on_c, 0, 51, 0
5, 118560, Note_on_c, 0, 51, 88
5, 118560, Note_on_c, 0, 55, 88
5, 118800, Note_on_c, 0, 55, 0
5, 118800, Note_on_c, 0, 51, 0
5, 120480, Note_on_c, 0, 48, 88
5, 120480, Note_on_c, 0, 50, 88
5, 120720, Note_on_c, 0, 50, 0
5, 120720, Note_on_c, 0, 48, 0
5, 120960, Note_on_c, 0, 47, 88
5, 120960, Note_on_c, 0, 50, 88
5, 121200, Note_on_c, 0, 50, 0
5, 121200, Note_on_c, 0, 47, 0
5, 121440, Note_on_c, 0, 43, 88
5, 121440, Note_on_c, 0, 50, 88
5, 121680, Note_on_c, 0, 50, 0
5, 121680, Note_on_c, 0, 43, 0
5, 121920, Note_on_c, 0, 48, 88
5, 121920, Note_on_c, 0, 55, 88
5, 122160, Note_on_c, 0, 55, 0
5, 122160, Note_on_c, 0, 48, 0
5, 122400, Note_on_c, 0, 51, 88
5, 122400, Note_on_c, 0, 55, 88
5, 122640, Note_on_c, 0, 55, 0
5, 122640, Note_on_c, 0, 51, 0
5, 122880, Note_on_c, 0, 50, 88
5, 122880, Note_on_c, 0, 55, 88
5, 123120, Note_on_c, 0, 55, 0
5, 123120, Note_on_c, 0, 50, 0
5, 123360, Note_on_c, 0, 50, 88
5, 123360, Note_on_c, 0, 54, 88
5, 123600, Note_on_c, 0, 54, 0
5, 123600, Note_on_c, 0, 50, 0
5, 124800, Note_on_c, 0, 50, 101
5, 124800, Note_on_c, 0, 58, 101
5, 125040, Note_on_c, 0, 58, 0
5, 125040, Note_on_c, 0, 50, 0
5, 125280, Note_on_c, 0, 50, 101
5, 125280, Note_on_c, 0, 60, 101
5, 125520, Note_on_c, 0, 60, 0
5, 125520, Note_on_c, 0, 50, 0
5, 126720, Note_on_c, 0, 50, 101
5, 126720, Note_on_c, 0, 58, 101
5, 126960, Note_on_c, 0, 58, 0
5, 126960, Note_on_c, 0, 50, 0
5, 127200, Note_on_c, 0, 50, 101
5, 127200, Note_on_c, 0, 60, 101
5, 127440, Note_on_c, 0, 60, 0
5, 127440, Note_on_c, 0, 50, 0
5, 150000, Note_on_c, 0, 51, 101
5, 150000, Note_on_c, 0, 54, 101
5, 150000, Note_on_c, 0, 58, 101
5, 150480, Note_on_c, 0, 58, 0
5, 150480, Note_on_c, 0, 54, 0
5, 150480, Note_on_c, 0, 51, 0
5, 151920, Note_on_c, 0, 51, 101
5, 151920, Note_on_c, 0, 54, 101
5, 151920, Note_on_c, 0, 58, 101
5, 152400, Note_on_c, 0, 58, 0
5, 152400, Note_on_c, 0, 54, 0
5, 152400, Note_on_c, 0, 51, 0
5, 159840, Note_on_c, 0, 54, 62
5, 160560, Note_on_c, 0, 54, 0
5, 161760, Note_on_c, 0, 54, 62
5, 162240, Note_on_c, 0, 54, 0
5, 164400, Note_on_c, 0, 63, 101
5, 164520, Note_on_c, 0, 63, 0
5, 164520, Note_on_c, 0, 65, 101
5, 164640, Note_on_c, 0, 65, 0
5, 164640, Note_on_c, 0, 66, 101
5, 164880, Note_on_c, 0, 66, 0
5, 164880, Note_on_c, 0, 63, 101
5, 165000, Note_on_c, 0, 63, 0
5, 165000, Note_on_c, 0, 65, 101
5, 165120, Note_on_c, 0, 65, 0
5, 165120, Note_on_c, 0, 66, 101
5, 165360, Note_on_c, 0, 66, 0
5, 165360, Note_on_c, 0, 63, 101
5, 165480, Note_on_c, 0, 63, 0
5, 165480, Note_on_c, 0, 65, 101
5, 165600, Note_on_c, 0, 65, 0
5, 168960, Note_on_c, 0, 49, 62
5, 169920, Note_on_c, 0, 49, 0
5, 169920, Note_on_c, 0, 49, 62
5, 170400, Note_on_c, 0, 49, 0
5, 170400, Note_on_c, 0, 49, 62
5, 170880, Note_on_c, 0, 49, 0
5, 170880, Note_on_c, 0, 49, 62
5, 171840, Note_on_c, 0, 49, 0
5, 171840, Note_on_c, 0, 49, 62
5, 172800, Note_on_c, 0, 49, 0
5, 172800, Note_on_c, 0, 47, 62
5, 173760, Note_on_c, 0, 47, 0
5, 173760, Note_on_c, 0, 45, 75
5, 174720, Note_on_c, 0, 45, 0
5, 174720, Note_on_c, 0, 44, 75
5, 175680, Note_on_c, 0, 44, 0
5, 175680, Note_on_c, 0, 42, 75
5, 176160, Note_on_c, 0, 42, 0
5, 176160, Note_on_c, 0, 41, 75
5, 176640, Note_on_c, 0, 41, 0
5, 176640, Note_on_c, 0, 51, 75
5, 177120, Note_on_c, 0, 51, 0
5, 177120, Note_on_c, 0, 50, 75
5, 177600, Note_on_c, 0, 50, 0
5, 177600, Note_on_c, 0, 49, 114
5, 178080, Note_on_c, 0, 49, 0
5, 178080, Note_on_c, 0, 49, 88
5, 178560, Note_on_c, 0, 49, 0
5, 178560, Note_on_c, 0, 49, 88
5, 179040, Note_on_c, 0, 49, 0
5, 179040, Note_on_c, 0, 49, 88
5, 179520, Note_on_c, 0, 49, 0
5, 179520, Note_on_c, 0, 49, 88
5, 180000, Note_on_c, 0, 49, 0
5, 180000, Note_on_c, 0, 49, 88
5, 180480, Note_on_c, 0, 49, 0
5, 180480, Control_c, 0, 64, 127
5, 180480, Note_on_c, 0, 37, 88
5, 180480, Note_on_c, 0, 49, 88
5, 180639, Note_on_c, 0, 49, 0
5, 180639, Note_on_c, 0, 37, 0
5, 180639, Note_on_c, 0, 53, 88
5, 180639, Note_on_c, 0, 59, 88
5, 180800, Note_on_c, 0, 59, 0
5, 180800, Note_on_c, 0, 53, 0
5, 180800, Note_on_c, 0, 53, 88
5, 180800, Note_on_c, 0, 59, 88
5, 180960, Note_on_c, 0, 59, 0
5, 180960, Note_on_c, 0, 53, 0
5, 180960, Note_on_c, 0, 49, 88
5, 181119, Note_on_c, 0, 49, 0
5, 181119, Note_on_c, 0, 53, 88
5, 181119, Note_on_c, 0, 59, 88
5, 181280, Note_on_c, 0, 59, 0
5, 181280, Note_on_c, 0, 53, 0
5, 181280, Control_c, 0, 64, 0
5, 181280, Note_on_c, 0, 53, 88
5, 181280, Note_on_c, 0, 59, 88
5, 181440, Note_on_c, 0, 59, 0
5, 181440, Note_on_c, 0, 53, 0
5, 181440, Note_on_c, 0, 49, 114
5, 181920, Note_on_c, 0, 49, 0
5, 181920, Note_on_c, 0, 49, 88
5, 182400, Note_on_c, 0, 49, 0
5, 182400, Note_on_c, 0, 49, 75
5, 182880, Note_on_c, 0, 49, 0
5, 182880, Note_on_c, 0, 49, 75
5, 183360, Note_on_c, 0, 49, 0
5, 183360, Note_on_c, 0, 49, 62
5, 183840, Note_on_c, 0, 49, 0
5, 183840, Note_on_c, 0, 49, 62
5, 184320, Note_on_c, 0, 49, 0
5, 184320, Note_on_c, 0, 49, 62
5, 184800, Note_on_c, 0, 49, 0
5, 184800, Note_on_c, 0, 49, 62
5, 185280, Note_on_c, 0, 49, 0
5, 187200, Note_on_c, 0, 45, 101
5, 187200, Note_on_c, 0, 49, 101
5, 187200, Note_on_c, 0, 52, 101
5, 187440, Note_on_c, 0, 52, 0
5, 187440, Note_on_c, 0, 49, 0
5, 187440, Note_on_c, 0, 45, 0
5, 187680, Note_on_c, 0, 44, 101
5, 187680, Note_on_c, 0, 49, 101
5, 187680, Note_on_c, 0, 52, 101
5, 187920, Note_on_c, 0, 52, 0
5, 187920, Note_on_c, 0, 49, 0
5, 187920, Note_on_c, 0, 44, 0
5, 188160, Note_on_c, 0, 43, 101
5, 188160, Note_on_c, 0, 49, 101
5, 188160, Note_on_c, 0, 52, 101
5, 188400, Note_on_c, 0, 52, 0
5, 188400, Note_on_c, 0, 49, 0
5, 188400, Note_on_c, 0, 43, 0
5, 191040, Note_on_c, 0, 45, 101
5, 191040, Note_on_c, 0, 49, 101
5, 191040, Note_on_c, 0, 52, 101
5, 191280, Note_on_c, 0, 52, 0
5, 191280, Note_on_c, 0, 49, 0
5, 191280, Note_on_c, 0, 45, 0
5, 191520, Note_on_c, 0, 44, 101
5, 191520, Note_on_c, 0, 49, 101
5, 191520, Note_on_c, 0, 52, 101
5, 191760, Note_on_c, 0, 52, 0
5, 191760, Note_on_c, 0, 49, 0
5, 191760, Note_on_c, 0, 44, 0
5, 192000, Note_on_c, 0, 43, 101
5, 192000, Note_on_c, 0, 49, 101
5, 192000, Note_on_c, 0, 52, 101
5, 192240, Note_on_c, 0, 52, 0
5, 192240, Note_on_c, 0, 49, 0
5, 192240, Note_on_c, 0, 43, 0
5, 194880, Note_on_c, 0, 48, 101
5, 194880, Note_on_c, 0, 52, 101
5, 194880, Note_on_c, 0, 55, 101
5, 195120, Note_on_c, 0, 55, 0
5, 195120, Note_on_c, 0, 52, 0
5, 195120, Note_on_c, 0, 48, 0
5, 195360, Note_on_c, 0, 47, 101
5, 195360, Note_on_c, 0, 52, 101
5, 195360, Note_on_c, 0, 55, 101
5, 195600, Note_on_c, 0, 55, 0
5, 195600, Note_on_c, 0, 52, 0
5, 195600, Note_on_c, 0, 47, 0
5, 195840, Note_on_c, 0, 46, 101
5, 195840, Note_on_c, 0, 52, 101
5, 195840, Note_on_c, 0, 55, 101
5, 196080, Note_on_c, 0, 55, 0
5, 196080, Note_on_c, 0, 52, 0
5, 196080, Note_on_c, 0, 46, 0
5, 198720, Note_on_c, 0, 48, 101
5, 198720, Note_on_c, 0, 52, 101
5, 198720, Note_on_c, 0, 55, 101
5, 198960, Note_on_c, 0, 55, 0
5, 198960, Note_on_c, 0, 52, 0
5, 198960, Note_on_c, 0, 48, 0
5, 199200, Note_on_c, 0, 47, 101
5, 199200, Note_on_c, 0, 52, 101
5, 199200, Note_on_c, 0, 55, 101
5, 199440, Note_on_c, 0, 55, 0
5, 199440, Note_on_c, 0, 52, 0
5, 199440, Note_on_c, 0, 47, 0
5, 199680, Note_on_c, 0, 46, 101
5, 199680, Note_on_c, 0, 52, 101
5, 199680, Note_on_c, 0, 55, 101
5, 199920, Note_on_c, 0, 55, 0
5, 199920, Note_on_c, 0, 52, 0
5, 199920, Note_on_c, 0, 46, 0
5, 256320, Note_on_c, 0, 52, 88
5, 258240, Note_on_c, 0, 52, 0
5, 258240, Note_on_c, 0, 52, 75
5, 260160, Note_on_c, 0, 52, 0
5, 260160, Note_on_c, 0, 52, 49
5, 260160, Note_on_c, 0, 55, 49
5, 261120, Note_on_c, 0, 55, 0
5, 261120, Note_on_c, 0, 52, 0
5, 261120, Note_on_c, 0, 52, 49
5, 261120, Note_on_c, 0, 55, 49
5, 262080, Note_on_c, 0, 55, 0
5, 262080, Note_on_c, 0, 52, 0
5, 302880, Note_on_c, 0, 44, 101
5, 303840, Note_on_c, 0, 44, 0
5, 304320, Note_on_c, 0, 41, 101
5, 305760, Note_on_c, 0, 41, 0
5, 305760, Note_on_c, 0, 49, 101
5, 305760, Note_on_c, 0, 53, 101
5, 305760, Note_on_c, 0, 56, 101
5, 306000, Note_on_c, 0, 56, 0
5, 306000, Note_on_c, 0, 53, 0
5, 306000, Note_on_c, 0, 49, 0
5, 306240, Note_on_c, 0, 48, 101
5, 306240, Note_on_c, 0, 53, 101
5, 306240, Note_on_c, 0, 56, 101
5, 306480, Note_on_c, 0, 56, 0
5, 306480, Note_on_c, 0, 53, 0
5, 306480, Note_on_c, 0, 48, 0
5, 306720, Note_on_c, 0, 47, 101
5, 306720, Note_on_c, 0, 53, 101
5, 306720, Note_on_c, 0, 56, 101
5, 306960, Note_on_c, 0, 56, 0
5, 306960, Note_on_c, 0, 53, 0
5, 306960, Note_on_c, 0, 47, 0
5, 309600, Note_on_c, 0, 49, 101
5, 309600, Note_on_c, 0, 53, 101
5, 309600, Note_on_c, 0, 56, 101
5, 309840, Note_on_c, 0, 56, 0
5, 309840, Note_on_c, 0, 53, 0
5, 309840, Note_on_c, 0, 49, 0
5, 310080, Note_on_c, 0, 48, 101
5, 310080, Note_on_c, 0, 53, 101
5, 310080, Note_on_c, 0, 56, 101
5, 310320, Note_on_c, 0, 56, 0
5, 310320, Note_on_c, 0, 53, 0
5, 310320, Note_on_c, 0, 48, 0
5, 310560, Note_on_c, 0, 47, 101
5, 310560, Note_on_c, 0, 53, 101
5, 310560, Note_on_c, 0, 56, 101
5, 310800, Note_on_c, 0, 56, 0
5, 310800, Note_on_c, 0, 53, 0
5, 310800, Note_on_c, 0, 47, 0
5, 313440, Note_on_c, 0, 53, 101
5, 313440, Note_on_c, 0, 56, 101
5, 313440, Note_on_c, 0, 59, 101
5, 313680, Note_on_c, 0, 59, 0
5, 313680, Note_on_c, 0, 56, 0
5, 313680, Note_on_c, 0, 53, 0
5, 313920, Note_on_c, 0, 51, 101
5, 313920, Note_on_c, 0, 56, 101
5, 313920, Note_on_c, 0, 59, 101
5, 314160, Note_on_c, 0, 59, 0
5, 314160, Note_on_c, 0, 56, 0
5, 314160, Note_on_c, 0, 51, 0
5, 314400, Note_on_c, 0, 50, 101
5, 314400, Note_on_c, 0, 56, 101
5, 314400, Note_on_c, 0, 59, 101
5, 314640, Note_on_c, 0, 59, 0
5, 314640, Note_on_c, 0, 56, 0
5, 314640, Note_on_c, 0, 50, 0
5, 317280, Note_on_c, 0, 53, 101
5, 317280, Note_on_c, 0, 56, 101
5, 317280, Note_on_c, 0, 59, 101
5, 317520, Note_on_c, 0, 59, 0
5, 317520, Note_on_c, 0, 56, 0
5, 317520, Note_on_c, 0, 53, 0
5, 317760, Note_on_c, 0, 51, 101
5, 317760, Note_on_c, 0, 56, 101
5, 317760, Note_on_c, 0, 59, 101
5, 318000, Note_on_c, 0, 59, 0
5, 318000, Note_on_c, 0, 56, 0
5, 318000, Note_on_c, 0, 51, 0
5, 318240, Note_on_c, 0, 50, 101
5, 318240, Note_on_c, 0, 56, 101
5, 318240, Note_on_c, 0, 59, 101
5, 318480, Note_on_c, 0, 59, 0
5, 318480, Note_on_c, 0, 56, 0
5, 318480, Note_on_c, 0, 50, 0
5, 336960, Note_on_c, 0, 40, 49
5, 336960, Note_on_c, 0, 47, 49
5, 338400, Note_on_c, 0, 47, 0
5, 338400, Note_on_c, 0, 40, 0
5, 339840, Note_on_c, 0, 40, 49
5, 339840, Note_on_c, 0, 47, 49
5, 341280, Note_on_c, 0, 47, 0
5, 341280, Note_on_c, 0, 40, 0
5, 341280, Note_on_c, 0, 52, 49
5, 342720, Note_on_c, 0, 52, 0
5, 342720, Note_on_c, 0, 40, 49
5, 342720, Note_on_c, 0, 47, 49
5, 344160, Note_on_c, 0, 47, 0
5, 344160, Note_on_c, 0, 40, 0
5, 345600, Note_on_c, 0, 40, 49
5, 345600, Note_on_c, 0, 47, 49
5, 347040, Note_on_c, 0, 47, 0
5, 347040, Note_on_c, 0, 40, 0
5, 347760, Note_on_c, 0, 44, 49
5, 347760, Note_on_c, 0, 51, 49
5, 348480, Note_on_c, 0, 51, 0
5, 348480, Note_on_c, 0, 44, 0
5, 349920, Control_c, 0, 64, 127
5, 349920, Note_on_c, 0, 52, 49
5, 349920, Note_on_c, 0, 56, 49
5, 349920, Note_on_c, 0, 59, 49
5, 350040, Note_on_c, 0, 59, 0
5, 350040, Note_on_c, 0, 56, 0
5, 350040, Note_on_c, 0, 52, 0
5, 350040, Note_on_c, 0, 52, 49
5, 350040, Note_on_c, 0, 56, 49
5, 350040, Note_on_c, 0, 59, 49
5, 350160, Note_on_c, 0, 59, 0
5, 350160, Note_on_c, 0, 56, 0
5, 350160, Note_on_c, 0, 52, 0
5, 350160, Note_on_c, 0, 52, 49
5, 350160, Note_on_c, 0, 56, 49
5, 350280, Note_on_c, 0, 56, 0
5, 350280, Note_on_c, 0, 52, 0
5, 350280, Note_on_c, 0, 52, 49
5, 350280, Note_on_c, 0, 56, 49
5, 350400, Note_on_c, 0, 56, 0
5, 350400, Note_on_c, 0, 52, 0
5, 350400, Note_on_c, 0, 52, 49
5, 350400, Note_on_c, 0, 56, 49
5, 350520, Note_on_c, 0, 56, 0
5, 350520, Note_on_c, 0, 52, 0
5, 350520, Note_on_c, 0, 52, 49
5, 350520, Note_on_c, 0, 56, 49
5, 350640, Note_on_c, 0, 56, 0
5, 350640, Note_on_c, 0, 52, 0
5, 350640, Note_on_c, 0, 52, 49
5, 350640, Note_on_c, 0, 56, 49
5, 350760, Note_on_c, 0, 56, 0
5, 350760, Note_on_c, 0, 52, 0
5, 350760, Note_on_c, 0, 52, 49
5, 350760, Note_on_c, 0, 56, 49
5, 350880, Note_on_c, 0, 56, 0
5, 350880, Note_on_c, 0, 52, 0
5, 350880, Note_on_c, 0, 52, 49
5, 350880, Note_on_c, 0, 57, 49
5, 351000, Note_on_c, 0, 57, 0
5, 351000, Note_on_c, 0, 52, 0
5, 351000, Note_on_c, 0, 52, 49
5, 351000, Note_on_c, 0, 57, 49
5, 351120, Note_on_c, 0, 57, 0
5, 351120, Note_on_c, 0, 52, 0
5, 351120, Note_on_c, 0, 52, 49
5, 351120, Note_on_c, 0, 59, 49
5, 351240, Note_on_c, 0, 59, 0
5, 351240, Note_on_c, 0, 52, 0
5, 351240, Control_c, 0, 64, 0
5, 351240, Note_on_c, 0, 52, 49
5, 351240, Note_on_c, 0, 59, 49
5, 351360, Note_on_c, 0, 59, 0
5, 351360, Note_on_c, 0, 52, 0
5, 351360, Control_c, 0, 64, 127
5, 351360, Note_on_c, 0, 52, 49
5, 351360, Note_on_c, 0, 54, 49
5, 351360, Note_on_c, 0, 57, 49
5, 351360, Note_on_c, 0, 59, 49
5, 351480, Note_on_c, 0, 59, 0
5, 351480, Note_on_c, 0, 52, 0
5, 351480, Note_on_c, 0, 54, 0
5, 351480, Note_on_c, 0, 57, 0
5, 351480, Note_on_c, 0, 52, 49
5, 351480, Note_on_c, 0, 54, 49
5, 351480, Note_on_c, 0, 57, 49
5, 351480, Note_on_c, 0, 59, 49
5, 351600, Note_on_c, 0, 59, 0
5, 351600, Note_on_c, 0, 52, 0
5, 351600, Note_on_c, 0, 54, 0
5, 351600, Note_on_c, 0, 57, 0
5, 351600, Note_on_c, 0, 52, 49
5, 351600, Note_on_c, 0, 54, 49
5, 351600, Note_on_c, 0, 57, 49
5, 351600, Note_on_c, 0, 59, 49
5, 351720, Note_on_c, 0, 59, 0
5, 351720, Note_on_c, 0, 52, 0
5, 351720, Note_on_c, 0, 54, 0
5, 351720, Note_on_c, 0, 57, 0
5, 351720, Note_on_c, 0, 52, 49
5, 351720, Note_on_c, 0, 54, 49
5, 351720, Note_on_c, 0, 57, 49
5, 351720, Note_on_c, 0, 59, 49
5, 351840, Note_on_c, 0, 59, 0
5, 351840, Note_on_c, 0, 52, 0
5, 351840, Note_on_c, 0, 54, 0
5, 351840, Note_on_c, 0, 57, 0
5, 351840, Note_on_c, 0, 52, 49
5, 351840, Note_on_c, 0, 54, 49
5, 351840, Note_on_c, 0, 57, 49
5, 351840, Note_on_c, 0, 59, 49
5, 351960, Note_on_c, 0, 59, 0
5, 351960, Note_on_c, 0, 52, 0
5, 351960, Note_on_c, 0, 54, 0
5, 351960, Note_on_c, 0, 57, 0
5, 351960, Note_on_c, 0, 52, 49
5, 351960, Note_on_c, 0, 54, 49
5, 351960, Note_on_c, 0, 57, 49
5, 351960, Note_on_c, 0, 59, 49
5, 352080, Note_on_c, 0, 59, 0
5, 352080, Note_on_c, 0, 52, 0
5, 352080, Note_on_c, 0, 54, 0
5, 352080, Note_on_c, 0, 57, 0
5, 352080, Note_on_c, 0, 52, 49
5, 352080, Note_on_c, 0, 54, 49
5, 352080, Note_on_c, 0, 57, 49
5, 352080, Note_on_c, 0, 59, 49
5, 352200, Note_on_c, 0, 59, 0
5, 352200, Note_on_c, 0, 52, 0
5, 352200, Note_on_c, 0, 54, 0
5, 352200, Note_on_c, 0, 57, 0
5, 352200, Note_on_c, 0, 52, 49
5, 352200, Note_on_c, 0, 54, 49
5, 352200, Note_on_c, 0, 57, 49
5, 352200, Note_on_c, 0, 59, 49
5, 352320, Note_on_c, 0, 59, 0
5, 352320, Note_on_c, 0, 52, 0
5, 352320, Note_on_c, 0, 54, 0
5, 352320, Note_on_c, 0, 57, 0
5, 352320, Note_on_c, 0, 52, 49
5, 352320, Note_on_c, 0, 54, 49
5, 352320, Note_on_c, 0, 57, 49
5, 352320, Note_on_c, 0, 59, 49
5, 352440, Note_on_c, 0, 59, 0
5, 352440, Note_on_c, 0, 52, 0
5, 352440, Note_on_c, 0, 54, 0
5, 352440, Note_on_c, 0, 57, 0
5, 352440, Note_on_c, 0, 52, 49
5, 352440, Note_on_c, 0, 54, 49
5, 352440, Note_on_c, 0, 57, 49
5, 352440, Note_on_c, 0, 59, 49
5, 352560, Note_on_c, 0, 59, 0
5, 352560, Note_on_c, 0, 52, 0
5, 352560, Note_on_c, 0, 54, 0
5, 352560, Note_on_c, 0, 57, 0
5, 352560, Note_on_c, 0, 52, 49
5, 352560, Note_on_c, 0, 54, 49
5, 352560, Note_on_c, 0, 57, 49
5, 352560, Note_on_c, 0, 59, 49
5, 352680, Note_on_c, 0, 59, 0
5, 352680, Note_on_c, 0, 52, 0
5, 352680, Note_on_c, 0, 54, 0
5, 352680, Note_on_c, 0, 57, 0
5, 352680, Control_c, 0, 64, 0
5, 352680, Note_on_c, 0, 52, 49
5, 352680, Note_on_c, 0, 54, 49
5, 352680, Note_on_c, 0, 57, 49
5, 352680, Note_on_c, 0, 59, 49
5, 352800, Note_on_c, 0, 59, 0
5, 352800, Note_on_c, 0, 52, 0
5, 352800, Note_on_c, 0, 54, 0
5, 352800, Note_on_c, 0, 57, 0
5, 353520, Note_on_c, 0, 47, 88
5, 354000, Note_on_c, 0, 47, 0
5, 354000, Note_on_c, 0, 40, 62
5, 354240, Note_on_c, 0, 40, 0
5, 355680, Control_c, 0, 64, 127
5, 355680, Note_on_c, 0, 52, 49
5, 355680, Note_on_c, 0, 56, 49
5, 355680, Note_on_c, 0, 59, 49
5, 355800, Note_on_c, 0, 59, 0
5, 355800, Note_on_c, 0, 56, 0
5, 355800, Note_on_c, 0, 52, 0
5, 355800, Note_on_c, 0, 52, 49
5, 355800, Note_on_c, 0, 56, 49
5, 355800, Note_on_c, 0, 59, 49
5, 355920, Note_on_c, 0, 59, 0
5, 355920, Note_on_c, 0, 56, 0
5, 355920, Note_on_c, 0, 52, 0
5, 355920, Note_on_c, 0, 52, 49
5, 355920, Note_on_c, 0, 56, 49
5, 356040, Note_on_c, 0, 56, 0
5, 356040, Note_on_c, 0, 52, 0
5, 356040, Note_on_c, 0, 52, 49
5, 356040, Note_on_c, 0, 56, 49
5, 356160, Note_on_c, 0, 56, 0
5, 356160, Note_on_c, 0, 52, 0
5, 356160, Note_on_c, 0, 52, 49
5, 356160, Note_on_c, 0, 56, 49
5, 356280, Note_on_c, 0, 56, 0
5, 356280, Note_on_c, 0, 52, 0
5, 356280, Note_on_c, 0, 52, 49
5, 356280, Note_on_c, 0, 56, 49
5, 356400, Note_on_c, 0, 56, 0
5, 356400, Note_on_c, 0, 52, 0
5, 356400, Note_on_c, 0, 52, 49
5, 356400, Note_on_c, 0, 56, 49
5, 356520, Note_on_c, 0, 56, 0
5, 356520, Note_on_c, 0, 52, 0
5, 356520, Note_on_c, 0, 52, 49
5, 356520, Note_on_c, 0, 56, 49
5, 356640, Note_on_c, 0, 56, 0
5, 356640, Note_on_c, 0, 52, 0
5, 356640, Note_on_c, 0, 52, 49
5, 356640, Note_on_c, 0, 56, 49
5, 356760, Note_on_c, 0, 56, 0
5, 356760, Note_on_c, 0, 52, 0
5, 356760, Note_on_c, 0, 52, 49
5, 356760, Note_on_c, 0, 56, 49
5, 356880, Note_on_c, 0, 56, 0
5, 356880, Note_on_c, 0, 52, 0
5, 356880, Note_on_c, 0, 52, 49
5, 356880, Note_on_c, 0, 56, 49
5, 357000, Note_on_c, 0, 56, 0
5, 357000, Note_on_c, 0, 52, 0
5, 357000, Control_c, 0, 64, 0
5, 357000, Note_on_c, 0, 52, 49
5, 357000, Note_on_c, 0, 56, 49
5, 357120, Note_on_c, 0, 56, 0
5, 357120, Note_on_c, 0, 52, 0
5, 357120, Control_c, 0, 64, 127
5, 357120, Note_on_c, 0, 51, 49
5, 357120, Note_on_c, 0, 59, 49
5, 357240, Note_on_c, 0, 59, 0
5, 357240, Note_on_c, 0, 51, 0
5, 357240, Note_on_c, 0, 51, 49
5, 357240, Note_on_c, 0, 59, 49
5, 357360, Note_on_c, 0, 59, 0
5, 357360, Note_on_c, 0, 51, 0
5, 357360, Note_on_c, 0, 51, 49
5, 357360, Note_on_c, 0, 59, 49
5, 357480, Note_on_c, 0, 59, 0
5, 357480, Note_on_c, 0, 51, 0
5, 357480, Note_on_c, 0, 51, 49
5, 357480, Note_on_c, 0, 59, 49
5, 357600, Note_on_c, 0, 59, 0
5, 357600, Note_on_c, 0, 51, 0
5, 357600, Note_on_c, 0, 51, 49
5, 357600, Note_on_c, 0, 59, 49
5, 357720, Note_on_c, 0, 59, 0
5, 357720, Note_on_c, 0, 51, 0
5, 357720, Control_c, 0, 64, 0
5, 357720, Note_on_c, 0, 51, 49
5, 357720, Note_on_c, 0, 56, 49
5, 357720, Note_on_c, 0, 59, 49
5, 357840, Note_on_c, 0, 59, 0
5, 357840, Note_on_c, 0, 56, 0
5, 357840, Note_on_c, 0, 51, 0
5, 357840, Control_c, 0, 64, 127
5, 357840, Note_on_c, 0, 51, 49
5, 357840, Note_on_c, 0, 57, 49
5, 357840, Note_on_c, 0, 61, 49
5, 357960, Note_on_c, 0, 61, 0
5, 357960, Note_on_c, 0, 57, 0
5, 357960, Note_on_c, 0, 51, 0
5, 357960, Note_on_c, 0, 51, 49
5, 357960, Note_on_c, 0, 57, 49
5, 357960, Note_on_c, 0, 61, 49
5, 358080, Note_on_c, 0, 61, 0
5, 358080, Note_on_c, 0, 57, 0
5, 358080, Note_on_c, 0, 51, 0
5, 358080, Note_on_c, 0, 51, 49
5, 358080, Note_on_c, 0, 57, 49
5, 358080, Note_on_c, 0, 61, 49
5, 358200, Note_on_c, 0, 61, 0
5, 358200, Note_on_c, 0, 57, 0
5, 358200, Note_on_c, 0, 51, 0
5, 358200, Note_on_c, 0, 51, 49
5, 358200, Note_on_c, 0, 57, 49
5, 358200, Note_on_c, 0, 61, 49
5, 358320, Note_on_c, 0, 61, 0
5, 358320, Note_on_c, 0, 57, 0
5, 358320, Note_on_c, 0, 51, 0
5, 358320, Note_on_c, 0, 51, 49
5, 358320, Note_on_c, 0, 57, 49
5, 358320, Note_on_c, 0, 61, 49
5, 358440, Note_on_c, 0, 61, 0
5, 358440, Note_on_c, 0, 57, 0
5, 358440, Note_on_c, 0, 51, 0
5, 358440, Control_c, 0, 64, 0
5, 358440, Note_on_c, 0, 51, 49
5, 358440, Note_on_c, 0, 57, 49
5, 358440, Note_on_c, 0, 61, 49
5, 358560, Note_on_c, 0, 61, 0
5, 358560, Note_on_c, 0, 57, 0
5, 358560, Note_on_c, 0, 51, 0
5, 358560, Control_c, 0, 64, 127
5, 358560, Note_on_c, 0, 56, 49
5, 358560, Note_on_c, 0, 63, 49
5, 358680, Note_on_c, 0, 63, 0
5, 358680, Note_on_c, 0, 56, 0
5, 358680, Note_on_c, 0, 56, 49
5, 358680, Note_on_c, 0, 63, 49
5, 358800, Note_on_c, 0, 63, 0
5, 358800, Note_on_c, 0, 56, 0
5, 358800, Note_on_c, 0, 56, 49
5, 358800, Note_on_c, 0, 63, 49
5, 358920, Note_on_c, 0, 63, 0
5, 358920, Note_on_c, 0, 56, 0
5, 358920, Note_on_c, 0, 56, 49
5, 358920, Note_on_c, 0, 63, 49
5, 359040, Note_on_c, 0, 63, 0
5, 359040, Note_on_c, 0, 56, 0
5, 359040, Note_on_c, 0, 56, 49
5, 359040, Note_on_c, 0, 63, 49
5, 359160, Note_on_c, 0, 63, 0
5, 359160, Note_on_c, 0, 56, 0
5, 359160, Control_c, 0, 64, 0
5, 359160, Note_on_c, 0, 56, 49
5, 359160, Note_on_c, 0, 63, 49
5, 359280, Note_on_c, 0, 63, 0
5, 359280, Note_on_c, 0, 56, 0
5, 359280, Control_c, 0, 64, 127
5, 359280, Note_on_c, 0, 54, 49
5, 359280, Note_on_c, 0, 63, 49
5, 359280, Note_on_c, 0, 69, 49
5, 359400, Note_on_c, 0, 69, 0
5, 359400, Note_on_c, 0, 63, 0
5, 359400, Note_on_c, 0, 54, 0
5, 359400, Note_on_c, 0, 63, 49
5, 359400, Note_on_c, 0, 69, 49
5, 359520, Note_on_c, 0, 69, 0
5, 359520, Note_on_c, 0, 63, 0
5, 359520, Note_on_c, 0, 63, 49
5, 359520, Note_on_c, 0, 69, 49
5, 359640, Note_on_c, 0, 69, 0
5, 359640, Note_on_c, 0, 63, 0
5, 359640, Note_on_c, 0, 63, 49
5, 359640, Note_on_c, 0, 69, 49
5, 359760, Note_on_c, 0, 69, 0
5, 359760, Note_on_c, 0, 63, 0
5, 359760, Note_on_c, 0, 63, 49
5, 359760, Note_on_c, 0, 69, 49
5, 359880, Note_on_c, 0, 69, 0
5, 359880, Note_on_c, 0, 63, 0
5, 359880, Control_c, 0, 64, 0
5, 359880, Note_on_c, 0, 63, 49
5, 359880, Note_on_c, 0, 69, 49
5, 360000, Note_on_c, 0, 69, 0
5, 360000, Note_on_c, 0, 63, 0
5, 363840, Note_on_c, 0, 60, 88
5, 364080, Note_on_c, 0, 60, 0
5, 364080, Note_on_c, 0, 61, 88
5, 364320, Note_on_c, 0, 61, 0
5, 364320, Control_c, 0, 64, 127
5, 364320, Note_on_c, 0, 52, 49
5, 364320, Note_on_c, 0, 54, 49
5, 364320, Note_on_c, 0, 59, 49
5, 364440, Note_on_c, 0, 59, 0
5, 364440, Note_on_c, 0, 54, 0
5, 364440, Note_on_c, 0, 52, 0
5, 364440, Note_on_c, 0, 52, 49
5, 364440, Note_on_c, 0, 54, 49
5, 364440, Note_on_c, 0, 59, 49
5, 364560, Note_on_c, 0, 59, 0
5, 364560, Note_on_c, 0, 54, 0
5, 364560, Note_on_c, 0, 52, 0
5, 364560, Note_on_c, 0, 52, 49
5, 364560, Note_on_c, 0, 54, 49
5, 364560, Note_on_c, 0, 59, 49
5, 364680, Note_on_c, 0, 59, 0
5, 364680, Note_on_c, 0, 54, 0
5, 364680, Note_on_c, 0, 52, 0
5, 364680, Note_on_c, 0, 52, 49
5, 364680, Note_on_c, 0, 54, 49
5, 364680, Note_on_c, 0, 59, 49
5, 364800, Note_on_c, 0, 59, 0
5, 364800, Note_on_c, 0, 54, 0
5, 364800, Note_on_c, 0, 52, 0
5, 364800, Note_on_c, 0, 52, 49
5, 364800, Note_on_c, 0, 54, 49
5, 364800, Note_on_c, 0, 59, 49
5, 364920, Note_on_c, 0, 59, 0
5, 364920, Note_on_c, 0, 54, 0
5, 364920, Note_on_c, 0, 52, 0
5, 364920, Note_on_c, 0, 52, 49
5, 364920, Note_on_c, 0, 54, 49
5, 364920, Note_on_c, 0, 59, 49
5, 365040, Note_on_c, 0, 59, 0
5, 365040, Note_on_c, 0, 54, 0
5, 365040, Note_on_c, 0, 52, 0
5, 365040, Note_on_c, 0, 52, 49
5, 365040, Note_on_c, 0, 54, 49
5, 365040, Note_on_c, 0, 59, 49
5, 365160, Note_on_c, 0, 59, 0
5, 365160, Note_on_c, 0, 54, 0
5, 365160, Note_on_c, 0, 52, 0
5, 365160, Note_on_c, 0, 52, 49
5, 365160, Note_on_c, 0, 54, 49
5, 365160, Note_on_c, 0, 59, 49
5, 365280, Note_on_c, 0, 59, 0
5, 365280, Note_on_c, 0, 54, 0
5, 365280, Note_on_c, 0, 52, 0
5, 365280, Note_on_c, 0, 52, 49
5, 365280, Note_on_c, 0, 54, 49
5, 365280, Note_on_c, 0, 59, 49
5, 365400, Note_on_c, 0, 59, 0
5, 365400, Note_on_c, 0, 54, 0
5, 365400, Note_on_c, 0, 52, 0
5, 365400, Note_on_c, 0, 52, 49
5, 365400, Note_on_c, 0, 54, 49
5, 365400, Note_on_c, 0, 59, 49
5, 365520, Note_on_c, 0, 59, 0
5, 365520, Note_on_c, 0, 54, 0
5, 365520, Note_on_c, 0, 52, 0
5, 365520, Note_on_c, 0, 52, 49
5, 365520, Note_on_c, 0, 54, 49
5, 365520, Note_on_c, 0, 59, 49
5, 365640, Note_on_c, 0, 59, 0
5, 365640, Note_on_c, 0, 54, 0
5, 365640, Note_on_c, 0, 52, 0
5, 365640, Control_c, 0, 64, 0
5, 365640, Note_on_c, 0, 52, 49
5, 365640, Note_on_c, 0, 54, 49
5, 365640, Note_on_c, 0, 59, 49
5, 365760, Note_on_c, 0, 59, 0
5, 365760, Note_on_c, 0, 54, 0
5, 365760, Note_on_c, 0, 52, 0
5, 365760, Control_c, 0, 64, 127
5, 365760, Note_on_c, 0, 52, 49
5, 365760, Note_on_c, 0, 56, 49
5, 365760, Note_on_c, 0, 59, 49
5, 365880, Note_on_c, 0, 59, 0
5, 365880, Note_on_c, 0, 56, 0
5, 365880, Note_on_c, 0, 52, 0
5, 365880, Note_on_c, 0, 52, 49
5, 365880, Note_on_c, 0, 56, 49
5, 365880, Note_on_c, 0, 59, 49
5, 366000, Note_on_c, 0, 59, 0
5, 366000, Note_on_c, 0, 56, 0
5, 366000, Note_on_c, 0, 52, 0
5, 366000, Note_on_c, 0, 52, 49
5, 366000, Note_on_c, 0, 56, 49
5, 366000, Note_on_c, 0, 59, 49
5, 366120, Note_on_c, 0, 59, 0
5, 366120, Note_on_c, 0, 56, 0
5, 366120, Note_on_c, 0, 52, 0
5, 366120, Note_on_c, 0, 52, 49
5, 366120, Note_on_c, 0, 56, 49
5, 366120, Note_on_c, 0, 59, 49
5, 366240, Note_on_c, 0, 59, 0
5, 366240, Note_on_c, 0, 56, 0
5, 366240, Note_on_c, 0, 52, 0
5, 366240, Note_on_c, 0, 52, 49
5, 366240, Note_on_c, 0, 56, 49
5, 366360, Note_on_c, 0, 56, 0
5, 366360, Note_on_c, 0, 52, 0
5, 366360, Control_c, 0, 64, 0
5, 366360, Note_on_c, 0, 52, 49
5, 366360, Note_on_c, 0, 56, 49
5, 366480, Note_on_c, 0, 56, 0
5, 366480, Note_on_c, 0, 52, 0
5, 366480, Control_c, 0, 64, 127
5, 366480, Note_on_c, 0, 52, 49
5, 366480, Note_on_c, 0, 57, 49
5, 366600, Note_on_c, 0, 57, 0
5, 366600, Note_on_c, 0, 52, 0
5, 366600, Note_on_c, 0, 52, 49
5, 366600, Note_on_c, 0, 57, 49
5, 366720, Note_on_c, 0, 57, 0
5, 366720, Note_on_c, 0, 52, 0
5, 366720, Note_on_c, 0, 52, 49
5, 366720, Note_on_c, 0, 57, 49
5, 366840, Note_on_c, 0, 57, 0
5, 366840, Note_on_c, 0, 52, 0
5, 366840, Note_on_c, 0, 52, 49
5, 366840, Note_on_c, 0, 57, 49
5, 366960, Note_on_c, 0, 57, 0
5, 366960, Note_on_c, 0, 52, 0
5, 366960, Note_on_c, 0, 52, 49
5, 366960, Note_on_c, 0, 57, 49
5, 366960, Note_on_c, 0, 59, 49
5, 367080, Note_on_c, 0, 59, 0
5, 367080, Note_on_c, 0, 57, 0
5, 367080, Note_on_c, 0, 52, 0
5, 367080, Control_c, 0, 64, 0
5, 367080, Note_on_c, 0, 52, 49
5, 367080, Note_on_c, 0, 57, 49
5, 367080, Note_on_c, 0, 59, 49
5, 367200, Note_on_c, 0, 59, 0
5, 367200, Note_on_c, 0, 57, 0
5, 367200, Note_on_c, 0, 52, 0
5, 367200, Control_c, 0, 64, 127
5, 367200, Note_on_c, 0, 52, 49
5, 367200, Note_on_c, 0, 59, 49
5, 367320, Note_on_c, 0, 59, 0
5, 367320, Note_on_c, 0, 52, 0
5, 367320, Note_on_c, 0, 52, 49
5, 367320, Note_on_c, 0, 59, 49
5, 367440, Note_on_c, 0, 59, 0
5, 367440, Note_on_c, 0, 52, 0
5, 367440, Note_on_c, 0, 52, 49
5, 367440, Note_on_c, 0, 59, 49
5, 367560, Note_on_c, 0, 59, 0
5, 367560, Note_on_c, 0, 52, 0
5, 367560, Note_on_c, 0, 52, 49
5, 367560, Note_on_c, 0, 59, 49
5, 367680, Note_on_c, 0, 59, 0
5, 367680, Note_on_c, 0, 52, 0
5, 367680, Note_on_c, 0, 52, 49
5, 367680, Note_on_c, 0, 59, 49
5, 367800, Note_on_c, 0, 59, 0
5, 367800, Note_on_c, 0, 52, 0
5, 367800, Note_on_c, 0, 52, 49
5, 367800, Note_on_c, 0, 59, 49
5, 367920, Note_on_c, 0, 59, 0
5, 367920, Note_on_c, 0, 52, 0
5, 367920, Note_on_c, 0, 64, 49
5, 368040, Note_on_c, 0, 64, 0
5, 368040, Note_on_c, 0, 64, 49
5, 368160, Note_on_c, 0, 64, 0
5, 368160, Note_on_c, 0, 64, 49
5, 368280, Note_on_c, 0, 64, 0
5, 368280, Note_on_c, 0, 64, 49
5, 368400, Note_on_c, 0, 64, 0
5, 368400, Note_on_c, 0, 64, 49
5, 368520, Note_on_c, 0, 64, 0
5, 368520, Control_c, 0, 64, 0
5, 368520, Note_on_c, 0, 64, 49
5, 368640, Note_on_c, 0, 64, 0
5, 368640, Note_on_c, 0, 52, 62
5, 369360, Note_on_c, 0, 52, 0
5, 369360, Note_on_c, 0, 50, 75
5, 370080, Note_on_c, 0, 50, 0
5, 370080, Note_on_c, 0, 48, 75
5, 370800, Note_on_c, 0, 48, 0
5, 370800, Note_on_c, 0, 48, 75
5, 371520, Note_on_c, 0, 48, 0
5, 394080, Note_on_c, 0, 40, 75
5, 395520, Note_on_c, 0, 40, 0
5, 399840, Note_on_c, 0, 40, 75
5, 401280, Note_on_c, 0, 40, 0
5, 405600, Control_c, 0, 64, 127
5, 405600, Note_on_c, 0, 52, 75
5, 405600, Note_on_c, 0, 56, 75
5, 405600, Note_on_c, 0, 59, 75
5, 405720, Note_on_c, 0, 59, 0
5, 405720, Note_on_c, 0, 56, 0
5, 405720, Note_on_c, 0, 52, 0
5, 405720, Note_on_c, 0, 52, 75
5, 405720, Note_on_c, 0, 56, 75
5, 405840, Note_on_c, 0, 56, 0
5, 405840, Note_on_c, 0, 52, 0
5, 405840, Note_on_c, 0, 52, 75
5, 405840, Note_on_c, 0, 56, 75
5, 405960, Note_on_c, 0, 56, 0
5, 405960, Note_on_c, 0, 52, 0
5, 405960, Note_on_c, 0, 52, 75
5, 405960, Note_on_c, 0, 56, 75
5, 406080, Note_on_c, 0, 56, 0
5, 406080, Note_on_c, 0, 52, 0
5, 406080, Note_on_c, 0, 52, 75
5, 406080, Note_on_c, 0, 56, 75
5, 406200, Note_on_c, 0, 56, 0
5, 406200, Note_on_c, 0, 52, 0
5, 406200, Control_c, 0, 64, 0
5, 406200, Note_on_c, 0, 52, 75
5, 406200, Note_on_c, 0, 56, 75
5, 406320, Note_on_c, 0, 56, 0
5, 406320, Note_on_c, 0, 52, 0
5, 406320, Control_c, 0, 64, 127
5, 406320, Note_on_c, 0, 52, 75
5, 406320, Note_on_c, 0, 57, 75
5, 406440, Note_on_c, 0, 57, 0
5, 406440, Note_on_c, 0, 52, 0
5, 406440, Note_on_c, 0, 52, 75
5, 406440, Note_on_c, 0, 57, 75
5, 406560, Note_on_c, 0, 57, 0
5, 406560, Note_on_c, 0, 52, 0
5, 406560, Note_on_c, 0, 52, 75
5, 406560, Note_on_c, 0, 57, 75
5, 406680, Note_on_c, 0, 57, 0
5, 406680, Note_on_c, 0, 52, 0
5, 406680, Note_on_c, 0, 52, 75
5, 406680, Note_on_c, 0, 57, 75
5, 406800, Note_on_c, 0, 57, 0
5, 406800, Note_on_c, 0, 52, 0
5, 406800, Note_on_c, 0, 52, 75
5, 406800, Note_on_c, 0, 57, 75
5, 406920, Note_on_c, 0, 57, 0
5, 406920, Note_on_c, 0, 52, 0
5, 406920, Control_c, 0, 64, 0
5, 406920, Note_on_c, 0, 52, 75
5, 406920, Note_on_c, 0, 57, 75
5, 407040, Note_on_c, 0, 57, 0
5, 407040, Note_on_c, 0, 52, 0
5, 407040, Control_c, 0, 64, 127
5, 407040, Note_on_c, 0, 52, 75
5, 407040, Note_on_c, 0, 56, 75
5, 407160, Note_on_c, 0, 56, 0
5, 407160, Note_on_c, 0, 52, 0
5, 407160, Note_on_c, 0, 52, 75
5, 407160, Note_on_c, 0, 56, 75
5, 407280, Note_on_c, 0, 56, 0
5, 407280, Note_on_c, 0, 52, 0
5, 407280, Note_on_c, 0, 52, 75
5, 407280, Note_on_c, 0, 56, 75
5, 407400, Note_on_c, 0, 56, 0
5, 407400, Note_on_c, 0, 52, 0
5, 407400, Note_on_c, 0, 52, 75
5, 407400, Note_on_c, 0, 56, 75
5, 407520, Note_on_c, 0, 56, 0
5, 407520, Note_on_c, 0, 52, 0
5, 407520, Note_on_c, 0, 52, 75
5, 407520, Note_on_c, 0, 56, 75
5, 407640, Note_on_c, 0, 56, 0
5, 407640, Note_on_c, 0, 52, 0
5, 407640, Control_c, 0, 64, 0
5, 407640, Note_on_c, 0, 52, 75
5, 407640, Note_on_c, 0, 56, 75
5, 407760, Note_on_c, 0, 56, 0
5, 407760, Note_on_c, 0, 52, 0
5, 407760, Control_c, 0, 64, 127
5, 407760, Note_on_c, 0, 52, 75
5, 407760, Note_on_c, 0, 57, 75
5, 407880, Note_on_c, 0, 57, 0
5, 407880, Note_on_c, 0, 52, 0
5, 407880, Note_on_c, 0, 52, 75
5, 407880, Note_on_c, 0, 57, 75
5, 408000, Note_on_c, 0, 57, 0
5, 408000, Note_on_c, 0, 52, 0
5, 408000, Note_on_c, 0, 52, 75
5, 408000, Note_on_c, 0, 57, 75
5, 408120, Note_on_c, 0, 57, 0
5, 408120, Note_on_c, 0, 52, 0
5, 408120, Note_on_c, 0, 52, 75
5, 408120, Note_on_c, 0, 57, 75
5, 408240, Note_on_c, 0, 57, 0
5, 408240, Note_on_c, 0, 52, 0
5, 408240, Note_on_c, 0, 52, 75
5, 408240, Note_on_c, 0, 57, 75
5, 408360, Note_on_c, 0, 57, 0
5, 408360, Note_on_c, 0, 52, 0
5, 408360, Control_c, 0, 64, 0
5, 408360, Note_on_c, 0, 52, 75
5, 408360, Note_on_c, 0, 57, 75
5, 408480, Note_on_c, 0, 57, 0
5, 408480, Note_on_c, 0, 52, 0
5, 408480, Control_c, 0, 64, 127
5, 408480, Note_on_c, 0, 52, 75
5, 408480, Note_on_c, 0, 56, 75
5, 408600, Note_on_c, 0, 56, 0
5, 408600, Note_on_c, 0, 52, 0
5, 408600, Note_on_c, 0, 52, 75
5, 408600, Note_on_c, 0, 56, 75
5, 408720, Note_on_c, 0, 56, 0
5, 408720, Note_on_c, 0, 52, 0
5, 408720, Note_on_c, 0, 52, 75
5, 408720, Note_on_c, 0, 56, 75
5, 408840, Note_on_c, 0, 56, 0
5, 408840, Note_on_c, 0, 52, 0
5, 408840, Note_on_c, 0, 52, 75
5, 408840, Note_on_c, 0, 56, 75
5, 408960, Note_on_c, 0, 56, 0
5, 408960, Note_on_c, 0, 52, 0
5, 408960, Note_on_c, 0, 52, 75
5, 408960, Note_on_c, 0, 56, 75
5, 409080, Note_on_c, 0, 56, 0
5, 409080, Note_on_c, 0, 52, 0
5, 409080, Control_c, 0, 64, 0
5, 409080, Note_on_c, 0, 52, 75
5, 409080, Note_on_c, 0, 56, 75
5, 409200, Note_on_c, 0, 56, 0
5, 409200, Note_on_c, 0, 52, 0
5, 409200, Control_c, 0, 64, 127
5, 409200, Note_on_c, 0, 52, 75
5, 409200, Note_on_c, 0, 57, 75
5, 409320, Note_on_c, 0, 57, 0
5, 409320, Note_on_c, 0, 52, 0
5, 409320, Note_on_c, 0, 52, 75
5, 409320, Note_on_c, 0, 57, 75
5, 409440, Note_on_c, 0, 57, 0
5, 409440, Note_on_c, 0, 52, 0
5, 409440, Note_on_c, 0, 52, 75
5, 409440, Note_on_c, 0, 57, 75
5, 409560, Note_on_c, 0, 57, 0
5, 409560, Note_on_c, 0, 52, 0
5, 409560, Note_on_c, 0, 52, 75
5, 409560, Note_on_c, 0, 57, 75
5, 409680, Note_on_c, 0, 57, 0
5, 409680, Note_on_c, 0, 52, 0
5, 409680, Note_on_c, 0, 52, 75
5, 409680, Note_on_c, 0, 57, 75
5, 409800, Note_on_c, 0, 57, 0
5, 409800, Note_on_c, 0, 52, 0
5, 409800, Control_c, 0, 64, 0
5, 409800, Note_on_c, 0, 52, 75
5, 409800, Note_on_c, 0, 57, 75
5, 409920, Note_on_c, 0, 57, 0
5, 409920, Note_on_c, 0, 52, 0
5, 409920, Control_c, 0, 64, 127
5, 409920, Note_on_c, 0, 52, 75
5, 409920, Note_on_c, 0, 56, 75
5, 410040, Note_on_c, 0, 56, 0
5, 410040, Note_on_c, 0, 52, 0
5, 410040, Note_on_c, 0, 52, 75
5, 410040, Note_on_c, 0, 56, 75
5, 410160, Note_on_c, 0, 56, 0
5, 410160, Note_on_c, 0, 52, 0
5, 410160, Note_on_c, 0, 52, 75
5, 410160, Note_on_c, 0, 56, 75
5, 410280, Note_on_c, 0, 56, 0
5, 410280, Note_on_c, 0, 52, 0
5, 410280, Note_on_c, 0, 52, 75
5, 410280, Note_on_c, 0, 56, 75
5, 410400, Note_on_c, 0, 56, 0
5, 410400, Note_on_c, 0, 52, 0
5, 410400, Note_on_c, 0, 52, 75
5, 410400, Note_on_c, 0, 56, 75
5, 410520, Note_on_c, 0, 56, 0
5, 410520, Note_on_c, 0, 52, 0
5, 410520, Control_c, 0, 64, 0
5, 410520, Note_on_c, 0, 52, 75
5, 410520, Note_on_c, 0, 56, 75
5, 410640, Note_on_c, 0, 56, 0
5, 410640, Note_on_c, 0, 52, 0
5, 410640, Control_c, 0, 64, 127
5, 410640, Note_on_c, 0, 52, 75
5, 410640, Note_on_c, 0, 57, 75
5, 410760, Note_on_c, 0, 57, 0
5, 410760, Note_on_c, 0, 52, 0
5, 410760, Note_on_c, 0, 52, 75
5, 410760, Note_on_c, 0, 57, 75
5, 410880, Note_on_c, 0, 57, 0
5, 410880, Note_on_c, 0, 52, 0
5, 410880, Note_on_c, 0, 52, 75
5, 410880, Note_on_c, 0, 57, 75
5, 411000, Note_on_c, 0, 57, 0
5, 411000, Note_on_c, 0, 52, 0
5, 411000, Note_on_c, 0, 52, 75
5, 411000, Note_on_c, 0, 57, 75
5, 411120, Note_on_c, 0, 57, 0
5, 411120, Note_on_c, 0, 52, 0
5, 411120, Note_on_c, 0, 52, 75
5, 411120, Note_on_c, 0, 57, 75
5, 411240, Note_on_c, 0, 57, 0
5, 411240, Note_on_c, 0, 52, 0
5, 411240, Control_c, 0, 64, 0
5, 411240, Note_on_c, 0, 52, 75
5, 411240, Note_on_c, 0, 57, 75
5, 411360, Note_on_c, 0, 57, 0
5, 411360, Note_on_c, 0, 52, 0
5, 411360, Control_c, 0, 64, 127
5, 411360, Note_on_c, 0, 52, 75
5, 411360, Note_on_c, 0, 56, 75
5, 411480, Note_on_c, 0, 56, 0
5, 411480, Note_on_c, 0, 52, 0
5, 411480, Note_on_c, 0, 52, 75
5, 411480, Note_on_c, 0, 56, 75
5, 411600, Note_on_c, 0, 56, 0
5, 411600, Note_on_c, 0, 52, 0
5, 411600, Note_on_c, 0, 52, 75
5, 411600, Note_on_c, 0, 56, 75
5, 411720, Note_on_c, 0, 56, 0
5, 411720, Note_on_c, 0, 52, 0
5, 411720, Note_on_c, 0, 52, 75
5, 411720, Note_on_c, 0, 56, 75
5, 411840, Note_on_c, 0, 56, 0
5, 411840, Note_on_c, 0, 52, 0
5, 411840, Note_on_c, 0, 52, 75
5, 411840, Note_on_c, 0, 56, 75
5, 411960, Note_on_c, 0, 56, 0
5, 411960, Note_on_c, 0, 52, 0
5, 411960, Control_c, 0, 64, 0
5, 411960, Note_on_c, 0, 52, 75
5, 411960, Note_on_c, 0, 56, 75
5, 412080, Note_on_c, 0, 56, 0
5, 412080, Note_on_c, 0, 52, 0
5, 412080, Control_c, 0, 64, 127
5, 412080, Note_on_c, 0, 40, 75
5, 412080, Note_on_c, 0, 47, 75
5, 412200, Note_on_c, 0, 47, 0
5, 412200, Note_on_c, 0, 40, 0
5, 412200, Note_on_c, 0, 40, 75
5, 412200, Note_on_c, 0, 47, 75
5, 412320, Note_on_c, 0, 47, 0
5, 412320, Note_on_c, 0, 40, 0
5, 412320, Note_on_c, 0, 40, 75
5, 412320, Note_on_c, 0, 47, 75
5, 412440, Note_on_c, 0, 47, 0
5, 412440, Note_on_c, 0, 40, 0
5, 412440, Control_c, 0, 64, 0
5, 412440, Note_on_c, 0, 40, 75
5, 412440, Note_on_c, 0, 47, 75
5, 412560, Note_on_c, 0, 47, 0
5, 412560, Note_on_c, 0, 40, 0
5, 412560, Note_on_c, 0, 52, 75
5, 412560, Note_on_c, 0, 54, 75
5, 412560, Note_on_c, 0, 57, 75
5, 412680, Note_on_c, 0, 57, 0
5, 412680, Note_on_c, 0, 54, 0
5, 412680, Note_on_c, 0, 52, 0
5, 412680, Note_on_c, 0, 52, 75
5, 412680, Note_on_c, 0, 54, 75
5, 412680, Note_on_c, 0, 57, 75
5, 412800, Note_on_c, 0, 57, 0
5, 412800, Note_on_c, 0, 54, 0
5, 412800, Note_on_c, 0, 52, 0
5, 412800, Control_c, 0, 64, 127
5, 412800, Note_on_c, 0, 52, 75
5, 412800, Note_on_c, 0, 56, 75
5, 412920, Note_on_c, 0, 56, 0
5, 412920, Note_on_c, 0, 52, 0
5, 412920, Note_on_c, 0, 52, 75
5, 412920, Note_on_c, 0, 56, 75
5, 413040, Note_on_c, 0, 56, 0
5, 413040, Note_on_c, 0, 52, 0
5, 413040, Note_on_c, 0, 52, 75
5, 413040, Note_on_c, 0, 56, 75
5, 413160, Note_on_c, 0, 56, 0
5, 413160, Note_on_c, 0, 52, 0
5, 413160, Note_on_c, 0, 52, 75
5, 413160, Note_on_c, 0, 56, 75
5, 413280, Note_on_c, 0, 56, 0
5, 413280, Note_on_c, 0, 52, 0
5, 413280, Note_on_c, 0, 52, 75
5, 413280, Note_on_c, 0, 56, 75
5, 413400, Note_on_c, 0, 56, 0
5, 413400, Note_on_c, 0, 52, 0
5, 413400, Control_c, 0, 64, 0
5, 413400, Note_on_c, 0, 52, 75
5, 413400, Note_on_c, 0, 56, 75
5, 413520, Note_on_c, 0, 56, 0
5, 413520, Note_on_c, 0, 52, 0
5, 413520, Control_c, 0, 64, 127
5, 413520, Note_on_c, 0, 40, 75
5, 413520, Note_on_c, 0, 47, 75
5, 413640, Note_on_c, 0, 47, 0
5, 413640, Note_on_c, 0, 40, 0
5, 413640, Note_on_c, 0, 40, 75
5, 413640, Note_on_c, 0, 47, 75
5, 413760, Note_on_c, 0, 47, 0
5, 413760, Note_on_c, 0, 40, 0
5, 413760, Note_on_c, 0, 40, 75
5, 413760, Note_on_c, 0, 47, 75
5, 413880, Note_on_c, 0, 47, 0
5, 413880, Note_on_c, 0, 40, 0
5, 413880, Control_c, 0, 64, 0
5, 413880, Note_on_c, 0, 40, 75
5, 413880, Note_on_c, 0, 47, 75
5, 414000, Note_on_c, 0, 47, 0
5, 414000, Note_on_c, 0, 40, 0
5, 414000, Note_on_c, 0, 52, 75
5, 414000, Note_on_c, 0, 54, 75
5, 414000, Note_on_c, 0, 57, 75
5, 414120, Note_on_c, 0, 57, 0
5, 414120, Note_on_c, 0, 54, 0
5, 414120, Note_on_c, 0, 52, 0
5, 414120, Note_on_c, 0, 52, 75
5, 414120, Note_on_c, 0, 54, 75
5, 414120, Note_on_c, 0, 57, 75
5, 414240, Note_on_c, 0, 57, 0
5, 414240, Note_on_c, 0, 54, 0
5, 414240, Note_on_c, 0, 52, 0
5, 414240, Control_c, 0, 64, 127
5, 414240, Note_on_c, 0, 40, 75
5, 414240, Note_on_c, 0, 52, 75
5, 414240, Note_on_c, 0, 56, 75
5, 414360, Note_on_c, 0, 56, 0
5, 414360, Note_on_c, 0, 52, 0
5, 414360, Note_on_c, 0, 40, 0
5, 414360, Note_on_c, 0, 52, 75
5, 414360, Note_on_c, 0, 56, 75
5, 414480, Note_on_c, 0, 56, 0
5, 414480, Note_on_c, 0, 52, 0
5, 414480, Note_on_c, 0, 52, 75
5, 414480, Note_on_c, 0, 56, 75
5, 414600, Note_on_c, 0, 56, 0
5, 414600, Note_on_c, 0, 52, 0
5, 414600, Note_on_c, 0, 52, 75
5, 414600, Note_on_c, 0, 56, 75
5, 414720, Note_on_c, 0, 56, 0
5, 414720, Note_on_c, 0, 52, 0
5, 414720, Note_on_c, 0, 52, 75
5, 414720, Note_on_c, 0, 56, 75
5, 414840, Note_on_c, 0, 56, 0
5, 414840, Note_on_c, 0, 52, 0
5, 414840, Note_on_c, 0, 52, 75
5, 414840, Note_on_c, 0, 56, 75
5, 414960, Note_on_c, 0, 56, 0
5, 414960, Note_on_c, 0, 52, 0
5, 414960, Note_on_c, 0, 52, 75
5, 414960, Note_on_c, 0, 56, 75
5, 415080, Note_on_c, 0, 56, 0
5, 415080, Note_on_c, 0, 52, 0
5, 415080, Note_on_c, 0, 52, 75
5, 415080, Note_on_c, 0, 56, 75
5, 415200, Note_on_c, 0, 56, 0
5, 415200, Note_on_c, 0, 52, 0
5, 415200, Note_on_c, 0, 64, 75
5, 415320, Note_on_c, 0, 64, 0
5, 415320, Note_on_c, 0, 64, 75
5, 415440, Note_on_c, 0, 64, 0
5, 415440, Note_on_c, 0, 64, 75
5, 415560, Note_on_c, 0, 64, 0
5, 415560, Control_c, 0, 64, 0
5, 415560, Note_on_c, 0, 64, 75
5, 415680, Note_on_c, 0, 64, 0
5, 415680, Control_c, 0, 64, 127
5, 415680, Note_on_c, 0, 52, 75
5, 415680, Note_on_c, 0, 56, 75
5, 415680, Note_on_c, 0, 59, 75
5, 415800, Note_on_c, 0, 59, 0
5, 415800, Note_on_c, 0, 56, 0
5, 415800, Note_on_c, 0, 52, 0
5, 415800, Note_on_c, 0, 52, 75
5, 415800, Note_on_c, 0, 56, 75
5, 415800, Note_on_c, 0, 59, 75
5, 415920, Note_on_c, 0, 59, 0
5, 415920, Note_on_c, 0, 56, 0
5, 415920, Note_on_c, 0, 52, 0
5, 415920, Note_on_c, 0, 52, 75
5, 415920, Note_on_c, 0, 56, 75
5, 415920, Note_on_c, 0, 59, 75
5, 416040, Note_on_c, 0, 59, 0
5, 416040, Note_on_c, 0, 56, 0
5, 416040, Note_on_c, 0, 52, 0
5, 416040, Note_on_c, 0, 52, 75
5, 416040, Note_on_c, 0, 56, 75
5, 416040, Note_on_c, 0, 59, 75
5, 416160, Note_on_c, 0, 59, 0
5, 416160, Note_on_c, 0, 56, 0
5, 416160, Note_on_c, 0, 52, 0
5, 416160, Note_on_c, 0, 64, 75
5, 416280, Note_on_c, 0, 64, 0
5, 416280, Note_on_c, 0, 64, 75
5, 416400, Note_on_c, 0, 64, 0
5, 416400, Note_on_c, 0, 52, 75
5, 416400, Note_on_c, 0, 56, 75
5, 416400, Note_on_c, 0, 59, 75
5, 416520, Note_on_c, 0, 59, 0
5, 416520, Note_on_c, 0, 56, 0
5, 416520, Note_on_c, 0, 52, 0
5, 416520, Note_on_c, 0, 52, 75
5, 416520, Note_on_c, 0, 56, 75
5, 416520, Note_on_c, 0, 59, 75
5, 416640, Note_on_c, 0, 59, 0
5, 416640, Note_on_c, 0, 56, 0
5, 416640, Note_on_c, 0, 52, 0
5, 416640, Note_on_c, 0, 52, 75
5, 416640, Note_on_c, 0, 56, 75
5, 416760, Note_on_c, 0, 56, 0
5, 416760, Note_on_c, 0, 52, 0
5, 416760, Note_on_c, 0, 52, 75
5, 416760, Note_on_c, 0, 56, 75
5, 416880, Note_on_c, 0, 56, 0
5, 416880, Note_on_c, 0, 52, 0
5, 416880, Note_on_c, 0, 52, 75
5, 416880, Note_on_c, 0, 56, 75
5, 417000, Note_on_c, 0, 56, 0
5, 417000, Note_on_c, 0, 52, 0
5, 417000, Control_c, 0, 64, 0
5, 417000, Note_on_c, 0, 52, 75
5, 417000, Note_on_c, 0, 56, 75
5, 417120, Note_on_c, 0, 56, 0
5, 417120, Note_on_c, 0, 52, 0
5, 417120, End_track
0, 0, End_of_file
