0, 0, Header, 1, 5, 480
1, 0, Start_track
1, 0, Title_t, "tchaikovsky sleeping beauty act2 12b danse des baronnes"
1, 0, Copyright_t, "Adaptation for Disklavier pianos, by: Robert C. Kuhmann (c) 2012."
1, 0, Text_t, "Seq. (c) by: Segundo G. Yogore,  2006\012"
1, 0, Time_signature, 4, 2, 24, 8
1, 0, Key_signature, 0, "major"
1, 0, Tempo, 500000
1, 48000, Time_signature, 8, 2, 24, 8
1, 48000, End_track
2, 0, Start_track
2, 0, Title_t, "Grand Piano"
2, 0, Program_c, 0, 0
2, 0, Control_c, 0, 7, 115
2, 0, Control_c, 0, 10, 86
2, 3840, Note_on_c, 0, 76, 67
2, 3887, Note_on_c, 0, 76, 0
2, 4320, Note_on_c, 0, 77, 67
2, 4367, Note_on_c, 0, 77, 0
2, 4800, Note_on_c, 0, 79, 67
2, 5040, Note_on_c, 0, 79, 0
2, 5040, Note_on_c, 0, 76, 67
2, 5280, Note_on_c, 0, 76, 0
2, 5280, Note_on_c, 0, 72, 67
2, 5327, Note_on_c, 0, 72, 0
2, 5520, Note_on_c, 0, 76, 67
2, 5567, Note_on_c, 0, 76, 0
2, 5760, Note_on_c, 0, 74, 67
2, 5807, Note_on_c, 0, 74, 0
2, 6240, Note_on_c, 0, 76, 67
2, 6287, Note_on_c, 0, 76, 0
2, 6720, Note_on_c, 0, 72, 93
2, 7680, Note_on_c, 0, 72, 0
2, 7680, Note_on_c, 0, 74, 67
2, 7727, Note_on_c, 0, 74, 0
2, 7920, Note_on_c, 0, 76, 67
2, 7967, Note_on_c, 0, 76, 0
2, 8160, Note_on_c, 0, 74, 67
2, 8207, Note_on_c, 0, 74, 0
2, 8400, Note_on_c, 0, 76, 67
2, 8447, Note_on_c, 0, 76, 0
2, 8640, Note_on_c, 0, 72, 93
2, 8880, Note_on_c, 0, 72, 0
2, 8880, Note_on_c, 0, 71, 67
2, 9120, Note_on_c, 0, 71, 0
2, 9120, Note_on_c, 0, 69, 67
2, 9167, Note_on_c, 0, 69, 0
2, 9360, Note_on_c, 0, 67, 67
2, 9407, Note_on_c, 0, 67, 0
2, 9600, Note_on_c, 0, 69, 67
2, 9647, Note_on_c, 0, 69, 0
2, 9840, Note_on_c, 0, 71, 67
2, 9887, Note_on_c, 0, 71, 0
2, 10080, Note_on_c, 0, 69, 67
2, 10127, Note_on_c, 0, 69, 0
2, 10320, Note_on_c, 0, 71, 67
2, 10367, Note_on_c, 0, 71, 0
2, 10560, Note_on_c, 0, 67, 67
2, 10800, Note_on_c, 0, 67, 0
2, 10800, Note_on_c, 0, 69, 67
2, 11040, Note_on_c, 0, 69, 0
2, 11040, Note_on_c, 0, 67, 67
2, 11087, Note_on_c, 0, 67, 0
2, 11280, Note_on_c, 0, 74, 67
2, 11327, Note_on_c, 0, 74, 0
2, 11520, Note_on_c, 0, 76, 67
2, 11567, Note_on_c, 0, 76, 0
2, 12000, Note_on_c, 0, 77, 67
2, 12047, Note_on_c, 0, 77, 0
2, 12480, Note_on_c, 0, 79, 67
2, 12720, Note_on_c, 0, 79, 0
2, 12720, Note_on_c, 0, 76, 67
2, 12960, Note_on_c, 0, 76, 0
2, 12960, Note_on_c, 0, 72, 67
2, 13007, Note_on_c, 0, 72, 0
2, 13200, Note_on_c, 0, 76, 67
2, 13247, Note_on_c, 0, 76, 0
2, 13440, Note_on_c, 0, 74, 67
2, 13487, Note_on_c, 0, 74, 0
2, 13920, Note_on_c, 0, 76, 67
2, 13967, Note_on_c, 0, 76, 0
2, 14400, Note_on_c, 0, 72, 93
2, 15360, Note_on_c, 0, 72, 0
2, 15360, Note_on_c, 0, 74, 67
2, 15407, Note_on_c, 0, 74, 0
2, 15600, Note_on_c, 0, 76, 67
2, 15647, Note_on_c, 0, 76, 0
2, 15840, Note_on_c, 0, 74, 67
2, 15887, Note_on_c, 0, 74, 0
2, 16080, Note_on_c, 0, 76, 67
2, 16127, Note_on_c, 0, 76, 0
2, 16320, Note_on_c, 0, 72, 93
2, 16560, Note_on_c, 0, 72, 0
2, 16560, Note_on_c, 0, 71, 67
2, 16800, Note_on_c, 0, 71, 0
2, 16800, Note_on_c, 0, 69, 67
2, 16847, Note_on_c, 0, 69, 0
2, 17040, Note_on_c, 0, 67, 67
2, 17087, Note_on_c, 0, 67, 0
2, 17280, Note_on_c, 0, 69, 67
2, 17327, Note_on_c, 0, 69, 0
2, 17520, Note_on_c, 0, 71, 67
2, 17567, Note_on_c, 0, 71, 0
2, 17760, Note_on_c, 0, 69, 67
2, 17807, Note_on_c, 0, 69, 0
2, 18000, Note_on_c, 0, 71, 67
2, 18047, Note_on_c, 0, 71, 0
2, 18240, Note_on_c, 0, 67, 80
2, 19200, Note_on_c, 0, 67, 0
2, 19200, Note_on_c, 0, 74, 80
2, 19440, Note_on_c, 0, 74, 0
2, 19620, Note_on_c, 0, 79, 80
2, 19680, Note_on_c, 0, 79, 0
2, 19680, Note_on_c, 0, 80, 80
2, 19920, Note_on_c, 0, 80, 0
2, 20160, Note_on_c, 0, 72, 80
2, 20400, Note_on_c, 0, 72, 0
2, 20580, Note_on_c, 0, 78, 80
2, 20640, Note_on_c, 0, 78, 0
2, 20640, Note_on_c, 0, 79, 80
2, 20880, Note_on_c, 0, 79, 0
2, 21120, Note_on_c, 0, 69, 80
2, 21360, Note_on_c, 0, 69, 0
2, 21540, Note_on_c, 0, 74, 80
2, 21600, Note_on_c, 0, 74, 0
2, 21600, Note_on_c, 0, 75, 80
2, 21840, Note_on_c, 0, 75, 0
2, 22080, Note_on_c, 0, 71, 80
2, 22320, Note_on_c, 0, 71, 0
2, 22320, Note_on_c, 0, 72, 80
2, 22560, Note_on_c, 0, 72, 0
2, 22560, Note_on_c, 0, 71, 80
2, 22607, Note_on_c, 0, 71, 0
2, 22800, Note_on_c, 0, 72, 80
2, 22847, Note_on_c, 0, 72, 0
2, 23040, Note_on_c, 0, 74, 80
2, 23280, Note_on_c, 0, 74, 0
2, 23460, Note_on_c, 0, 79, 80
2, 23520, Note_on_c, 0, 79, 0
2, 23520, Note_on_c, 0, 80, 80
2, 23760, Note_on_c, 0, 80, 0
2, 24000, Note_on_c, 0, 72, 80
2, 24240, Note_on_c, 0, 72, 0
2, 24420, Note_on_c, 0, 78, 80
2, 24480, Note_on_c, 0, 78, 0
2, 24480, Note_on_c, 0, 79, 80
2, 24720, Note_on_c, 0, 79, 0
2, 24960, Note_on_c, 0, 69, 80
2, 25200, Note_on_c, 0, 69, 0
2, 25200, Note_on_c, 0, 71, 80
2, 25440, Note_on_c, 0, 71, 0
2, 25440, Note_on_c, 0, 72, 80
2, 25487, Note_on_c, 0, 72, 0
2, 25680, Note_on_c, 0, 75, 80
2, 25727, Note_on_c, 0, 75, 0
2, 25920, Note_on_c, 0, 71, 80
2, 26880, Note_on_c, 0, 71, 0
2, 26880, Note_on_c, 0, 74, 80
2, 27120, Note_on_c, 0, 74, 0
2, 27300, Note_on_c, 0, 79, 80
2, 27360, Note_on_c, 0, 79, 0
2, 27360, Note_on_c, 0, 80, 80
2, 27600, Note_on_c, 0, 80, 0
2, 27840, Note_on_c, 0, 72, 80
2, 28080, Note_on_c, 0, 72, 0
2, 28260, Note_on_c, 0, 78, 80
2, 28320, Note_on_c, 0, 78, 0
2, 28320, Note_on_c, 0, 79, 80
2, 28560, Note_on_c, 0, 79, 0
2, 28800, Note_on_c, 0, 69, 80
2, 29040, Note_on_c, 0, 69, 0
2, 29220, Note_on_c, 0, 74, 80
2, 29280, Note_on_c, 0, 74, 0
2, 29280, Note_on_c, 0, 75, 80
2, 29520, Note_on_c, 0, 75, 0
2, 29760, Note_on_c, 0, 71, 80
2, 30000, Note_on_c, 0, 71, 0
2, 30000, Note_on_c, 0, 72, 80
2, 30240, Note_on_c, 0, 72, 0
2, 30240, Note_on_c, 0, 71, 80
2, 30287, Note_on_c, 0, 71, 0
2, 30480, Note_on_c, 0, 72, 80
2, 30527, Note_on_c, 0, 72, 0
2, 30720, Note_on_c, 0, 74, 80
2, 30960, Note_on_c, 0, 74, 0
2, 31140, Note_on_c, 0, 79, 80
2, 31200, Note_on_c, 0, 79, 0
2, 31200, Note_on_c, 0, 80, 80
2, 31440, Note_on_c, 0, 80, 0
2, 31680, Note_on_c, 0, 72, 80
2, 31920, Note_on_c, 0, 72, 0
2, 32100, Note_on_c, 0, 78, 80
2, 32160, Note_on_c, 0, 78, 0
2, 32160, Note_on_c, 0, 79, 80
2, 32400, Note_on_c, 0, 79, 0
2, 32640, Note_on_c, 0, 69, 80
2, 32880, Note_on_c, 0, 69, 0
2, 32880, Note_on_c, 0, 71, 80
2, 33120, Note_on_c, 0, 71, 0
2, 33120, Note_on_c, 0, 72, 80
2, 33167, Note_on_c, 0, 72, 0
2, 33360, Note_on_c, 0, 75, 80
2, 33407, Note_on_c, 0, 75, 0
2, 33600, Note_on_c, 0, 71, 80
2, 33840, Note_on_c, 0, 71, 0
2, 33840, Note_on_c, 0, 74, 80
2, 34080, Note_on_c, 0, 74, 0
2, 34080, Note_on_c, 0, 67, 80
2, 34127, Note_on_c, 0, 67, 0
2, 34560, Note_on_c, 0, 76, 67
2, 34607, Note_on_c, 0, 76, 0
2, 35040, Note_on_c, 0, 77, 67
2, 35087, Note_on_c, 0, 77, 0
2, 35520, Note_on_c, 0, 79, 67
2, 35760, Note_on_c, 0, 79, 0
2, 35760, Note_on_c, 0, 76, 67
2, 36000, Note_on_c, 0, 76, 0
2, 36000, Note_on_c, 0, 72, 67
2, 36047, Note_on_c, 0, 72, 0
2, 36240, Note_on_c, 0, 76, 67
2, 36287, Note_on_c, 0, 76, 0
2, 36480, Note_on_c, 0, 74, 67
2, 36527, Note_on_c, 0, 74, 0
2, 36960, Note_on_c, 0, 76, 67
2, 37007, Note_on_c, 0, 76, 0
2, 37440, Note_on_c, 0, 72, 93
2, 38400, Note_on_c, 0, 72, 0
2, 38400, Note_on_c, 0, 74, 67
2, 38447, Note_on_c, 0, 74, 0
2, 38640, Note_on_c, 0, 76, 67
2, 38687, Note_on_c, 0, 76, 0
2, 38880, Note_on_c, 0, 74, 67
2, 38927, Note_on_c, 0, 74, 0
2, 39120, Note_on_c, 0, 76, 67
2, 39167, Note_on_c, 0, 76, 0
2, 39360, Note_on_c, 0, 72, 93
2, 39600, Note_on_c, 0, 72, 0
2, 39600, Note_on_c, 0, 71, 67
2, 39840, Note_on_c, 0, 71, 0
2, 39840, Note_on_c, 0, 69, 67
2, 39887, Note_on_c, 0, 69, 0
2, 40080, Note_on_c, 0, 67, 67
2, 40127, Note_on_c, 0, 67, 0
2, 40320, Note_on_c, 0, 69, 67
2, 40367, Note_on_c, 0, 69, 0
2, 40560, Note_on_c, 0, 71, 67
2, 40607, Note_on_c, 0, 71, 0
2, 40800, Note_on_c, 0, 69, 67
2, 40847, Note_on_c, 0, 69, 0
2, 41040, Note_on_c, 0, 71, 67
2, 41087, Note_on_c, 0, 71, 0
2, 41280, Note_on_c, 0, 67, 67
2, 41520, Note_on_c, 0, 67, 0
2, 41520, Note_on_c, 0, 69, 67
2, 41760, Note_on_c, 0, 69, 0
2, 41760, Note_on_c, 0, 71, 67
2, 41807, Note_on_c, 0, 71, 0
2, 42000, Note_on_c, 0, 74, 67
2, 42047, Note_on_c, 0, 74, 0
2, 42240, Note_on_c, 0, 76, 67
2, 42287, Note_on_c, 0, 76, 0
2, 42720, Note_on_c, 0, 77, 67
2, 42767, Note_on_c, 0, 77, 0
2, 43200, Note_on_c, 0, 79, 67
2, 43440, Note_on_c, 0, 79, 0
2, 43440, Note_on_c, 0, 76, 67
2, 43680, Note_on_c, 0, 76, 0
2, 43680, Note_on_c, 0, 72, 67
2, 43727, Note_on_c, 0, 72, 0
2, 43920, Note_on_c, 0, 76, 67
2, 43967, Note_on_c, 0, 76, 0
2, 44160, Note_on_c, 0, 74, 67
2, 44207, Note_on_c, 0, 74, 0
2, 44640, Note_on_c, 0, 76, 67
2, 44687, Note_on_c, 0, 76, 0
2, 45120, Note_on_c, 0, 72, 93
2, 46080, Note_on_c, 0, 72, 0
2, 46080, Note_on_c, 0, 74, 67
2, 46127, Note_on_c, 0, 74, 0
2, 46320, Note_on_c, 0, 76, 67
2, 46367, Note_on_c, 0, 76, 0
2, 46560, Note_on_c, 0, 74, 67
2, 46607, Note_on_c, 0, 74, 0
2, 46800, Note_on_c, 0, 76, 67
2, 46847, Note_on_c, 0, 76, 0
2, 47040, Note_on_c, 0, 72, 67
2, 47280, Note_on_c, 0, 72, 0
2, 47280, Note_on_c, 0, 74, 67
2, 47520, Note_on_c, 0, 74, 0
2, 47520, Note_on_c, 0, 76, 67
2, 47567, Note_on_c, 0, 76, 0
2, 47760, Note_on_c, 0, 79, 67
2, 47807, Note_on_c, 0, 79, 0
2, 48000, Note_on_c, 0, 74, 67
2, 48047, Note_on_c, 0, 74, 0
2, 48240, Note_on_c, 0, 76, 67
2, 48287, Note_on_c, 0, 76, 0
2, 48480, Note_on_c, 0, 74, 67
2, 48527, Note_on_c, 0, 74, 0
2, 48720, Note_on_c, 0, 76, 67
2, 48767, Note_on_c, 0, 76, 0
2, 48960, Note_on_c, 0, 72, 67
2, 49200, Note_on_c, 0, 72, 0
2, 49380, Note_on_c, 0, 83, 67
2, 49440, Note_on_c, 0, 83, 0
2, 49440, Note_on_c, 0, 76, 93
2, 49440, Note_on_c, 0, 79, 93
2, 49440, Note_on_c, 0, 84, 93
2, 49920, Note_on_c, 0, 84, 0
2, 49920, Note_on_c, 0, 79, 0
2, 49920, Note_on_c, 0, 76, 0
2, 49920, Control_c, 0, 64, 127
2, 51360, Control_c, 0, 64, 0
2, 51360, End_track
3, 0, Start_track
3, 0, Title_t, "Grand Piano"
3, 0, Program_c, 0, 0
3, 0, Control_c, 0, 7, 115
3, 0, Control_c, 0, 10, 79
3, 0, Note_on_c, 0, 67, 67
3, 47, Note_on_c, 0, 67, 0
3, 480, Note_on_c, 0, 67, 67
3, 527, Note_on_c, 0, 67, 0
3, 960, Note_on_c, 0, 69, 67
3, 1200, Note_on_c, 0, 69, 0
3, 1200, Note_on_c, 0, 67, 67
3, 1440, Note_on_c, 0, 67, 0
3, 1440, Note_on_c, 0, 65, 67
3, 1487, Note_on_c, 0, 65, 0
3, 1680, Note_on_c, 0, 64, 67
3, 1727, Note_on_c, 0, 64, 0
3, 1920, Note_on_c, 0, 62, 67
3, 1967, Note_on_c, 0, 62, 0
3, 2160, Note_on_c, 0, 64, 67
3, 2207, Note_on_c, 0, 64, 0
3, 2400, Note_on_c, 0, 65, 67
3, 2447, Note_on_c, 0, 65, 0
3, 2640, Note_on_c, 0, 69, 67
3, 2687, Note_on_c, 0, 69, 0
3, 2880, Note_on_c, 0, 67, 67
3, 3120, Note_on_c, 0, 67, 0
3, 3120, Note_on_c, 0, 65, 67
3, 3360, Note_on_c, 0, 65, 0
3, 3360, Note_on_c, 0, 64, 67
3, 3407, Note_on_c, 0, 64, 0
3, 3600, Note_on_c, 0, 62, 67
3, 3647, Note_on_c, 0, 62, 0
3, 3840, Note_on_c, 0, 67, 54
3, 3840, Note_on_c, 0, 72, 54
3, 4080, Note_on_c, 0, 72, 0
3, 4080, Note_on_c, 0, 67, 0
3, 4320, Note_on_c, 0, 67, 54
3, 4320, Note_on_c, 0, 72, 54
3, 4560, Note_on_c, 0, 72, 0
3, 4560, Note_on_c, 0, 67, 0
3, 4800, Note_on_c, 0, 67, 54
3, 4800, Note_on_c, 0, 72, 54
3, 5760, Note_on_c, 0, 72, 0
3, 5760, Note_on_c, 0, 67, 0
3, 5760, Note_on_c, 0, 69, 54
3, 5760, Note_on_c, 0, 72, 54
3, 6000, Note_on_c, 0, 72, 0
3, 6000, Note_on_c, 0, 69, 0
3, 6240, Note_on_c, 0, 67, 54
3, 6240, Note_on_c, 0, 71, 54
3, 6480, Note_on_c, 0, 71, 0
3, 6480, Note_on_c, 0, 67, 0
3, 6720, Note_on_c, 0, 64, 54
3, 7680, Note_on_c, 0, 64, 0
3, 7680, Note_on_c, 0, 65, 54
3, 7680, Note_on_c, 0, 72, 54
3, 7920, Note_on_c, 0, 72, 0
3, 7920, Note_on_c, 0, 65, 0
3, 8160, Note_on_c, 0, 65, 54
3, 8160, Note_on_c, 0, 71, 54
3, 8400, Note_on_c, 0, 71, 0
3, 8400, Note_on_c, 0, 65, 0
3, 8640, Note_on_c, 0, 67, 54
3, 9600, Note_on_c, 0, 67, 0
3, 9600, Note_on_c, 0, 60, 54
3, 9600, Note_on_c, 0, 67, 54
3, 9840, Note_on_c, 0, 67, 0
3, 9840, Note_on_c, 0, 60, 0
3, 10080, Note_on_c, 0, 60, 54
3, 10080, Note_on_c, 0, 66, 54
3, 10320, Note_on_c, 0, 66, 0
3, 10320, Note_on_c, 0, 60, 0
3, 10560, Note_on_c, 0, 62, 54
3, 10560, Note_on_c, 0, 67, 54
3, 11280, Note_on_c, 0, 67, 0
3, 11280, Note_on_c, 0, 62, 0
3, 11520, Note_on_c, 0, 67, 54
3, 11520, Note_on_c, 0, 72, 54
3, 11760, Note_on_c, 0, 72, 0
3, 11760, Note_on_c, 0, 67, 0
3, 12000, Note_on_c, 0, 67, 54
3, 12000, Note_on_c, 0, 72, 54
3, 12240, Note_on_c, 0, 72, 0
3, 12240, Note_on_c, 0, 67, 0
3, 12480, Note_on_c, 0, 67, 54
3, 12480, Note_on_c, 0, 72, 54
3, 13440, Note_on_c, 0, 72, 0
3, 13440, Note_on_c, 0, 67, 0
3, 13440, Note_on_c, 0, 69, 54
3, 13440, Note_on_c, 0, 72, 54
3, 13680, Note_on_c, 0, 72, 0
3, 13680, Note_on_c, 0, 69, 0
3, 13920, Note_on_c, 0, 67, 54
3, 13920, Note_on_c, 0, 71, 54
3, 14160, Note_on_c, 0, 71, 0
3, 14160, Note_on_c, 0, 67, 0
3, 14400, Note_on_c, 0, 64, 80
3, 15360, Note_on_c, 0, 64, 0
3, 15360, Note_on_c, 0, 65, 54
3, 15360, Note_on_c, 0, 72, 54
3, 15600, Note_on_c, 0, 72, 0
3, 15600, Note_on_c, 0, 65, 0
3, 15840, Note_on_c, 0, 65, 54
3, 15840, Note_on_c, 0, 71, 54
3, 16080, Note_on_c, 0, 71, 0
3, 16080, Note_on_c, 0, 65, 0
3, 16320, Note_on_c, 0, 67, 54
3, 17280, Note_on_c, 0, 67, 0
3, 17280, Note_on_c, 0, 60, 54
3, 17280, Note_on_c, 0, 67, 54
3, 17520, Note_on_c, 0, 67, 0
3, 17520, Note_on_c, 0, 60, 0
3, 17760, Note_on_c, 0, 60, 54
3, 17760, Note_on_c, 0, 66, 54
3, 18000, Note_on_c, 0, 66, 0
3, 18000, Note_on_c, 0, 60, 0
3, 18240, Note_on_c, 0, 59, 67
3, 18240, Note_on_c, 0, 62, 67
3, 19200, Note_on_c, 0, 62, 0
3, 19200, Note_on_c, 0, 59, 0
3, 19200, Note_on_c, 0, 65, 67
3, 20160, Note_on_c, 0, 65, 0
3, 20160, Note_on_c, 0, 64, 67
3, 21120, Note_on_c, 0, 64, 0
3, 21120, Note_on_c, 0, 63, 67
3, 22080, Note_on_c, 0, 63, 0
3, 22080, Note_on_c, 0, 62, 67
3, 22560, Note_on_c, 0, 62, 0
3, 22560, Note_on_c, 0, 67, 67
3, 23040, Note_on_c, 0, 67, 0
3, 23040, Note_on_c, 0, 65, 67
3, 24000, Note_on_c, 0, 65, 0
3, 24000, Note_on_c, 0, 64, 67
3, 24960, Note_on_c, 0, 64, 0
3, 24960, Note_on_c, 0, 63, 67
3, 25920, Note_on_c, 0, 63, 0
3, 25920, Note_on_c, 0, 62, 67
3, 26400, Note_on_c, 0, 62, 0
3, 26400, Note_on_c, 0, 67, 67
3, 26880, Note_on_c, 0, 67, 0
3, 26880, Note_on_c, 0, 65, 67
3, 27840, Note_on_c, 0, 65, 0
3, 27840, Note_on_c, 0, 64, 67
3, 28800, Note_on_c, 0, 64, 0
3, 28800, Note_on_c, 0, 63, 67
3, 29760, Note_on_c, 0, 63, 0
3, 29760, Note_on_c, 0, 62, 67
3, 30240, Note_on_c, 0, 62, 0
3, 30240, Note_on_c, 0, 67, 67
3, 30720, Note_on_c, 0, 67, 0
3, 30720, Note_on_c, 0, 65, 67
3, 31680, Note_on_c, 0, 65, 0
3, 31680, Note_on_c, 0, 64, 67
3, 32640, Note_on_c, 0, 64, 0
3, 32640, Note_on_c, 0, 63, 67
3, 33600, Note_on_c, 0, 63, 0
3, 33600, Note_on_c, 0, 62, 67
3, 33840, Note_on_c, 0, 62, 0
3, 34560, Note_on_c, 0, 67, 54
3, 34560, Note_on_c, 0, 72, 54
3, 34800, Note_on_c, 0, 72, 0
3, 34800, Note_on_c, 0, 67, 0
3, 35040, Note_on_c, 0, 67, 54
3, 35040, Note_on_c, 0, 72, 54
3, 35280, Note_on_c, 0, 72, 0
3, 35280, Note_on_c, 0, 67, 0
3, 35520, Note_on_c, 0, 67, 54
3, 35520, Note_on_c, 0, 72, 54
3, 36480, Note_on_c, 0, 72, 0
3, 36480, Note_on_c, 0, 67, 0
3, 36480, Note_on_c, 0, 69, 54
3, 36480, Note_on_c, 0, 72, 54
3, 36720, Note_on_c, 0, 72, 0
3, 36720, Note_on_c, 0, 69, 0
3, 36960, Note_on_c, 0, 67, 54
3, 36960, Note_on_c, 0, 71, 54
3, 37200, Note_on_c, 0, 71, 0
3, 37200, Note_on_c, 0, 67, 0
3, 37440, Note_on_c, 0, 64, 54
3, 38400, Note_on_c, 0, 64, 0
3, 38400, Note_on_c, 0, 65, 54
3, 38400, Note_on_c, 0, 72, 54
3, 38640, Note_on_c, 0, 72, 0
3, 38640, Note_on_c, 0, 65, 0
3, 38880, Note_on_c, 0, 65, 54
3, 38880, Note_on_c, 0, 71, 54
3, 39120, Note_on_c, 0, 71, 0
3, 39120, Note_on_c, 0, 65, 0
3, 39360, Note_on_c, 0, 67, 54
3, 40320, Note_on_c, 0, 67, 0
3, 40320, Note_on_c, 0, 60, 54
3, 40320, Note_on_c, 0, 67, 54
3, 40560, Note_on_c, 0, 67, 0
3, 40560, Note_on_c, 0, 60, 0
3, 40800, Note_on_c, 0, 60, 54
3, 40800, Note_on_c, 0, 66, 54
3, 41040, Note_on_c, 0, 66, 0
3, 41040, Note_on_c, 0, 60, 0
3, 41280, Note_on_c, 0, 62, 54
3, 41280, Note_on_c, 0, 67, 54
3, 42000, Note_on_c, 0, 67, 0
3, 42000, Note_on_c, 0, 62, 0
3, 42240, Note_on_c, 0, 67, 54
3, 42240, Note_on_c, 0, 72, 54
3, 42480, Note_on_c, 0, 72, 0
3, 42480, Note_on_c, 0, 67, 0
3, 42720, Note_on_c, 0, 67, 54
3, 42720, Note_on_c, 0, 72, 54
3, 42960, Note_on_c, 0, 72, 0
3, 42960, Note_on_c, 0, 67, 0
3, 43200, Note_on_c, 0, 67, 54
3, 43200, Note_on_c, 0, 72, 54
3, 44160, Note_on_c, 0, 72, 0
3, 44160, Note_on_c, 0, 67, 0
3, 44160, Note_on_c, 0, 69, 54
3, 44160, Note_on_c, 0, 72, 54
3, 44400, Note_on_c, 0, 72, 0
3, 44400, Note_on_c, 0, 69, 0
3, 44640, Note_on_c, 0, 67, 54
3, 44640, Note_on_c, 0, 71, 54
3, 44880, Note_on_c, 0, 71, 0
3, 44880, Note_on_c, 0, 67, 0
3, 45120, Note_on_c, 0, 64, 80
3, 46080, Note_on_c, 0, 64, 0
3, 46080, Note_on_c, 0, 65, 54
3, 46080, Note_on_c, 0, 72, 54
3, 46320, Note_on_c, 0, 72, 0
3, 46320, Note_on_c, 0, 65, 0
3, 46560, Note_on_c, 0, 65, 54
3, 46560, Note_on_c, 0, 71, 54
3, 46800, Note_on_c, 0, 71, 0
3, 46800, Note_on_c, 0, 65, 0
3, 47040, Note_on_c, 0, 64, 54
3, 47280, Note_on_c, 0, 64, 0
3, 47520, Note_on_c, 0, 65, 54
3, 47520, Note_on_c, 0, 72, 54
3, 47760, Note_on_c, 0, 72, 0
3, 47760, Note_on_c, 0, 65, 0
3, 48000, Note_on_c, 0, 69, 54
3, 48000, Note_on_c, 0, 72, 54
3, 48240, Note_on_c, 0, 72, 0
3, 48240, Note_on_c, 0, 69, 0
3, 48480, Note_on_c, 0, 67, 54
3, 48480, Note_on_c, 0, 71, 54
3, 48720, Note_on_c, 0, 71, 0
3, 48720, Note_on_c, 0, 67, 0
3, 48960, Note_on_c, 0, 64, 54
3, 49200, Note_on_c, 0, 64, 0
3, 49200, End_track
4, 0, Start_track
4, 0, Title_t, "Grand Piano"
4, 0, Program_c, 0, 0
4, 0, Control_c, 0, 7, 115
4, 0, Control_c, 0, 10, 41
4, 3840, Note_on_c, 0, 48, 54
4, 3840, Note_on_c, 0, 55, 54
4, 3840, Note_on_c, 0, 60, 54
4, 4080, Note_on_c, 0, 60, 0
4, 4080, Note_on_c, 0, 55, 0
4, 4080, Note_on_c, 0, 48, 0
4, 4320, Note_on_c, 0, 50, 54
4, 4320, Note_on_c, 0, 55, 54
4, 4320, Note_on_c, 0, 60, 54
4, 4560, Note_on_c, 0, 60, 0
4, 4560, Note_on_c, 0, 55, 0
4, 4560, Note_on_c, 0, 50, 0
4, 4800, Note_on_c, 0, 52, 54
4, 4800, Note_on_c, 0, 55, 54
4, 4800, Note_on_c, 0, 60, 54
4, 5760, Note_on_c, 0, 60, 0
4, 5760, Note_on_c, 0, 55, 0
4, 5760, Note_on_c, 0, 52, 0
4, 5760, Note_on_c, 0, 53, 54
4, 5760, Note_on_c, 0, 57, 54
4, 5760, Note_on_c, 0, 60, 54
4, 6000, Note_on_c, 0, 60, 0
4, 6000, Note_on_c, 0, 57, 0
4, 6000, Note_on_c, 0, 53, 0
4, 6240, Note_on_c, 0, 55, 54
4, 6240, Note_on_c, 0, 59, 54
4, 6480, Note_on_c, 0, 59, 0
4, 6480, Note_on_c, 0, 55, 0
4, 6720, Note_on_c, 0, 57, 54
4, 6960, Note_on_c, 0, 57, 0
4, 6960, Note_on_c, 0, 55, 54
4, 7200, Note_on_c, 0, 55, 0
4, 7200, Note_on_c, 0, 53, 54
4, 7247, Note_on_c, 0, 53, 0
4, 7440, Note_on_c, 0, 52, 54
4, 7487, Note_on_c, 0, 52, 0
4, 7680, Note_on_c, 0, 50, 54
4, 7680, Note_on_c, 0, 57, 54
4, 7680, Note_on_c, 0, 62, 54
4, 7920, Note_on_c, 0, 62, 0
4, 7920, Note_on_c, 0, 57, 0
4, 7920, Note_on_c, 0, 50, 0
4, 8160, Note_on_c, 0, 55, 54
4, 8160, Note_on_c, 0, 62, 54
4, 8400, Note_on_c, 0, 62, 0
4, 8400, Note_on_c, 0, 55, 0
4, 8640, Note_on_c, 0, 52, 80
4, 8640, Note_on_c, 0, 55, 80
4, 8640, Note_on_c, 0, 60, 80
4, 9600, Note_on_c, 0, 60, 0
4, 9600, Note_on_c, 0, 55, 0
4, 9600, Note_on_c, 0, 52, 0
4, 9600, Note_on_c, 0, 45, 54
4, 9600, Note_on_c, 0, 52, 54
4, 9600, Note_on_c, 0, 57, 54
4, 9840, Note_on_c, 0, 57, 0
4, 9840, Note_on_c, 0, 52, 0
4, 9840, Note_on_c, 0, 45, 0
4, 10080, Note_on_c, 0, 50, 54
4, 10080, Note_on_c, 0, 57, 54
4, 10320, Note_on_c, 0, 57, 0
4, 10320, Note_on_c, 0, 50, 0
4, 10560, Note_on_c, 0, 50, 54
4, 11280, Note_on_c, 0, 50, 0
4, 11520, Note_on_c, 0, 48, 54
4, 11520, Note_on_c, 0, 55, 54
4, 11520, Note_on_c, 0, 60, 54
4, 11760, Note_on_c, 0, 60, 0
4, 11760, Note_on_c, 0, 55, 0
4, 11760, Note_on_c, 0, 48, 0
4, 12000, Note_on_c, 0, 50, 54
4, 12000, Note_on_c, 0, 55, 54
4, 12000, Note_on_c, 0, 60, 54
4, 12240, Note_on_c, 0, 60, 0
4, 12240, Note_on_c, 0, 55, 0
4, 12240, Note_on_c, 0, 50, 0
4, 12480, Note_on_c, 0, 52, 54
4, 12480, Note_on_c, 0, 55, 54
4, 12480, Note_on_c, 0, 60, 54
4, 13440, Note_on_c, 0, 60, 0
4, 13440, Note_on_c, 0, 55, 0
4, 13440, Note_on_c, 0, 52, 0
4, 13440, Note_on_c, 0, 53, 54
4, 13440, Note_on_c, 0, 57, 54
4, 13440, Note_on_c, 0, 60, 54
4, 13680, Note_on_c, 0, 60, 0
4, 13680, Note_on_c, 0, 57, 0
4, 13680, Note_on_c, 0, 53, 0
4, 13920, Note_on_c, 0, 55, 54
4, 13920, Note_on_c, 0, 59, 54
4, 14160, Note_on_c, 0, 59, 0
4, 14160, Note_on_c, 0, 55, 0
4, 14400, Note_on_c, 0, 57, 54
4, 14400, Note_on_c, 0, 60, 54
4, 15360, Note_on_c, 0, 60, 0
4, 15360, Note_on_c, 0, 57, 0
4, 15360, Note_on_c, 0, 50, 54
4, 15360, Note_on_c, 0, 57, 54
4, 15360, Note_on_c, 0, 62, 54
4, 15600, Note_on_c, 0, 62, 0
4, 15600, Note_on_c, 0, 57, 0
4, 15600, Note_on_c, 0, 50, 0
4, 15840, Note_on_c, 0, 55, 54
4, 15840, Note_on_c, 0, 62, 54
4, 16080, Note_on_c, 0, 62, 0
4, 16080, Note_on_c, 0, 55, 0
4, 16320, Note_on_c, 0, 52, 54
4, 16320, Note_on_c, 0, 55, 54
4, 16320, Note_on_c, 0, 60, 54
4, 17280, Note_on_c, 0, 60, 0
4, 17280, Note_on_c, 0, 55, 0
4, 17280, Note_on_c, 0, 52, 0
4, 17280, Note_on_c, 0, 45, 54
4, 17280, Note_on_c, 0, 52, 54
4, 17280, Note_on_c, 0, 57, 54
4, 17520, Note_on_c, 0, 57, 0
4, 17520, Note_on_c, 0, 52, 0
4, 17520, Note_on_c, 0, 45, 0
4, 17760, Note_on_c, 0, 50, 54
4, 17760, Note_on_c, 0, 57, 54
4, 18000, Note_on_c, 0, 57, 0
4, 18000, Note_on_c, 0, 50, 0
4, 18240, Note_on_c, 0, 55, 67
4, 19200, Note_on_c, 0, 55, 0
4, 19200, Note_on_c, 0, 50, 67
4, 19200, Note_on_c, 0, 59, 67
4, 20160, Note_on_c, 0, 59, 0
4, 20160, Note_on_c, 0, 50, 0
4, 20160, Note_on_c, 0, 48, 67
4, 20160, Note_on_c, 0, 55, 67
4, 21120, Note_on_c, 0, 55, 0
4, 21120, Note_on_c, 0, 48, 0
4, 21120, Note_on_c, 0, 48, 67
4, 21120, Note_on_c, 0, 54, 67
4, 22080, Note_on_c, 0, 54, 0
4, 22080, Note_on_c, 0, 48, 0
4, 22080, Note_on_c, 0, 50, 67
4, 22080, Note_on_c, 0, 55, 67
4, 22560, Note_on_c, 0, 55, 0
4, 22560, Note_on_c, 0, 50, 0
4, 22560, Note_on_c, 0, 50, 67
4, 22560, Note_on_c, 0, 59, 67
4, 23040, Note_on_c, 0, 59, 0
4, 23040, Note_on_c, 0, 50, 0
4, 23040, Note_on_c, 0, 50, 67
4, 23040, Note_on_c, 0, 59, 67
4, 24000, Note_on_c, 0, 59, 0
4, 24000, Note_on_c, 0, 50, 0
4, 24000, Note_on_c, 0, 48, 67
4, 24000, Note_on_c, 0, 55, 67
4, 24960, Note_on_c, 0, 55, 0
4, 24960, Note_on_c, 0, 48, 0
4, 24960, Note_on_c, 0, 48, 67
4, 24960, Note_on_c, 0, 54, 67
4, 25920, Note_on_c, 0, 54, 0
4, 25920, Note_on_c, 0, 48, 0
4, 25920, Note_on_c, 0, 50, 67
4, 25920, Note_on_c, 0, 55, 67
4, 26400, Note_on_c, 0, 55, 0
4, 26400, Note_on_c, 0, 50, 0
4, 26400, Note_on_c, 0, 50, 67
4, 26400, Note_on_c, 0, 59, 67
4, 26880, Note_on_c, 0, 59, 0
4, 26880, Note_on_c, 0, 50, 0
4, 26880, Note_on_c, 0, 50, 67
4, 26880, Note_on_c, 0, 59, 67
4, 27840, Note_on_c, 0, 59, 0
4, 27840, Note_on_c, 0, 50, 0
4, 27840, Note_on_c, 0, 48, 67
4, 27840, Note_on_c, 0, 55, 67
4, 28800, Note_on_c, 0, 55, 0
4, 28800, Note_on_c, 0, 48, 0
4, 28800, Note_on_c, 0, 48, 67
4, 28800, Note_on_c, 0, 54, 67
4, 29760, Note_on_c, 0, 54, 0
4, 29760, Note_on_c, 0, 48, 0
4, 29760, Note_on_c, 0, 50, 67
4, 29760, Note_on_c, 0, 55, 67
4, 30240, Note_on_c, 0, 55, 0
4, 30240, Note_on_c, 0, 50, 0
4, 30240, Note_on_c, 0, 50, 67
4, 30240, Note_on_c, 0, 59, 67
4, 30720, Note_on_c, 0, 59, 0
4, 30720, Note_on_c, 0, 50, 0
4, 30720, Note_on_c, 0, 50, 67
4, 30720, Note_on_c, 0, 59, 67
4, 31680, Note_on_c, 0, 59, 0
4, 31680, Note_on_c, 0, 50, 0
4, 31680, Note_on_c, 0, 48, 67
4, 31680, Note_on_c, 0, 55, 67
4, 32640, Note_on_c, 0, 55, 0
4, 32640, Note_on_c, 0, 48, 0
4, 32640, Note_on_c, 0, 48, 67
4, 32640, Note_on_c, 0, 54, 67
4, 33600, Note_on_c, 0, 54, 0
4, 33600, Note_on_c, 0, 48, 0
4, 33600, Note_on_c, 0, 55, 67
4, 33840, Note_on_c, 0, 55, 0
4, 33840, Note_on_c, 0, 57, 67
4, 34080, Note_on_c, 0, 57, 0
4, 34080, Note_on_c, 0, 59, 67
4, 34127, Note_on_c, 0, 59, 0
4, 34320, Note_on_c, 0, 62, 67
4, 34367, Note_on_c, 0, 62, 0
4, 34560, Note_on_c, 0, 48, 54
4, 34560, Note_on_c, 0, 55, 54
4, 34560, Note_on_c, 0, 60, 54
4, 34800, Note_on_c, 0, 60, 0
4, 34800, Note_on_c, 0, 55, 0
4, 34800, Note_on_c, 0, 48, 0
4, 35040, Note_on_c, 0, 50, 54
4, 35040, Note_on_c, 0, 55, 54
4, 35040, Note_on_c, 0, 60, 54
4, 35280, Note_on_c, 0, 60, 0
4, 35280, Note_on_c, 0, 55, 0
4, 35280, Note_on_c, 0, 50, 0
4, 35520, Note_on_c, 0, 52, 54
4, 35520, Note_on_c, 0, 55, 54
4, 35520, Note_on_c, 0, 60, 54
4, 36480, Note_on_c, 0, 60, 0
4, 36480, Note_on_c, 0, 55, 0
4, 36480, Note_on_c, 0, 52, 0
4, 36480, Note_on_c, 0, 53, 54
4, 36480, Note_on_c, 0, 57, 54
4, 36480, Note_on_c, 0, 60, 54
4, 36720, Note_on_c, 0, 60, 0
4, 36720, Note_on_c, 0, 57, 0
4, 36720, Note_on_c, 0, 53, 0
4, 36960, Note_on_c, 0, 55, 54
4, 36960, Note_on_c, 0, 59, 54
4, 37200, Note_on_c, 0, 59, 0
4, 37200, Note_on_c, 0, 55, 0
4, 37440, Note_on_c, 0, 57, 54
4, 37680, Note_on_c, 0, 57, 0
4, 37680, Note_on_c, 0, 55, 54
4, 37920, Note_on_c, 0, 55, 0
4, 37920, Note_on_c, 0, 53, 54
4, 37967, Note_on_c, 0, 53, 0
4, 38160, Note_on_c, 0, 52, 54
4, 38207, Note_on_c, 0, 52, 0
4, 38400, Note_on_c, 0, 50, 54
4, 38400, Note_on_c, 0, 57, 54
4, 38400, Note_on_c, 0, 62, 54
4, 38640, Note_on_c, 0, 62, 0
4, 38640, Note_on_c, 0, 57, 0
4, 38640, Note_on_c, 0, 50, 0
4, 38880, Note_on_c, 0, 55, 54
4, 38880, Note_on_c, 0, 62, 54
4, 39120, Note_on_c, 0, 62, 0
4, 39120, Note_on_c, 0, 55, 0
4, 39360, Note_on_c, 0, 52, 80
4, 39360, Note_on_c, 0, 55, 80
4, 39360, Note_on_c, 0, 60, 80
4, 40320, Note_on_c, 0, 60, 0
4, 40320, Note_on_c, 0, 55, 0
4, 40320, Note_on_c, 0, 52, 0
4, 40320, Note_on_c, 0, 45, 54
4, 40320, Note_on_c, 0, 52, 54
4, 40320, Note_on_c, 0, 57, 54
4, 40560, Note_on_c, 0, 57, 0
4, 40560, Note_on_c, 0, 52, 0
4, 40560, Note_on_c, 0, 45, 0
4, 40800, Note_on_c, 0, 50, 54
4, 40800, Note_on_c, 0, 57, 54
4, 41040, Note_on_c, 0, 57, 0
4, 41040, Note_on_c, 0, 50, 0
4, 41280, Note_on_c, 0, 50, 54
4, 42000, Note_on_c, 0, 50, 0
4, 42240, Note_on_c, 0, 48, 54
4, 42240, Note_on_c, 0, 55, 54
4, 42240, Note_on_c, 0, 60, 54
4, 42480, Note_on_c, 0, 60, 0
4, 42480, Note_on_c, 0, 55, 0
4, 42480, Note_on_c, 0, 48, 0
4, 42720, Note_on_c, 0, 50, 54
4, 42720, Note_on_c, 0, 55, 54
4, 42720, Note_on_c, 0, 60, 54
4, 42960, Note_on_c, 0, 60, 0
4, 42960, Note_on_c, 0, 55, 0
4, 42960, Note_on_c, 0, 50, 0
4, 43200, Note_on_c, 0, 52, 54
4, 43200, Note_on_c, 0, 55, 54
4, 43200, Note_on_c, 0, 60, 54
4, 44160, Note_on_c, 0, 60, 0
4, 44160, Note_on_c, 0, 55, 0
4, 44160, Note_on_c, 0, 52, 0
4, 44160, Note_on_c, 0, 53, 54
4, 44160, Note_on_c, 0, 57, 54
4, 44160, Note_on_c, 0, 60, 54
4, 44400, Note_on_c, 0, 60, 0
4, 44400, Note_on_c, 0, 57, 0
4, 44400, Note_on_c, 0, 53, 0
4, 44640, Note_on_c, 0, 55, 54
4, 44640, Note_on_c, 0, 59, 54
4, 44880, Note_on_c, 0, 59, 0
4, 44880, Note_on_c, 0, 55, 0
4, 45120, Note_on_c, 0, 57, 54
4, 45120, Note_on_c, 0, 60, 54
4, 46080, Note_on_c, 0, 60, 0
4, 46080, Note_on_c, 0, 57, 0
4, 46080, Note_on_c, 0, 50, 54
4, 46080, Note_on_c, 0, 57, 54
4, 46080, Note_on_c, 0, 62, 54
4, 46320, Note_on_c, 0, 62, 0
4, 46320, Note_on_c, 0, 57, 0
4, 46320, Note_on_c, 0, 50, 0
4, 46560, Note_on_c, 0, 55, 54
4, 46560, Note_on_c, 0, 62, 54
4, 46800, Note_on_c, 0, 62, 0
4, 46800, Note_on_c, 0, 55, 0
4, 47040, Note_on_c, 0, 57, 54
4, 47040, Note_on_c, 0, 60, 54
4, 47280, Note_on_c, 0, 60, 0
4, 47280, Note_on_c, 0, 57, 0
4, 47520, Note_on_c, 0, 52, 54
4, 47520, Note_on_c, 0, 55, 54
4, 47520, Note_on_c, 0, 60, 54
4, 47760, Note_on_c, 0, 60, 0
4, 47760, Note_on_c, 0, 55, 0
4, 47760, Note_on_c, 0, 52, 0
4, 48000, Note_on_c, 0, 53, 54
4, 48000, Note_on_c, 0, 57, 54
4, 48000, Note_on_c, 0, 60, 54
4, 48240, Note_on_c, 0, 60, 0
4, 48240, Note_on_c, 0, 57, 0
4, 48240, Note_on_c, 0, 53, 0
4, 48480, Note_on_c, 0, 55, 54
4, 48480, Note_on_c, 0, 59, 54
4, 48720, Note_on_c, 0, 59, 0
4, 48720, Note_on_c, 0, 55, 0
4, 48960, Note_on_c, 0, 48, 54
4, 48960, Note_on_c, 0, 55, 54
4, 48960, Note_on_c, 0, 60, 54
4, 49200, Note_on_c, 0, 60, 0
4, 49200, Note_on_c, 0, 55, 0
4, 49200, Note_on_c, 0, 48, 0
4, 49440, Note_on_c, 0, 60, 80
4, 49440, Note_on_c, 0, 64, 80
4, 49440, Note_on_c, 0, 67, 80
4, 49440, Note_on_c, 0, 72, 80
4, 49920, Note_on_c, 0, 72, 0
4, 49920, Note_on_c, 0, 60, 0
4, 49920, Note_on_c, 0, 64, 0
4, 49920, Note_on_c, 0, 67, 0
4, 49920, End_track
5, 0, Start_track
5, 0, Title_t, "Grand Piano"
5, 0, Program_c, 0, 0
5, 0, Control_c, 0, 7, 115
5, 0, Control_c, 0, 10, 47
5, 10560, Note_on_c, 0, 47, 49
5, 10800, Note_on_c, 0, 47, 0
5, 10800, Note_on_c, 0, 45, 49
5, 11040, Note_on_c, 0, 45, 0
5, 11040, Note_on_c, 0, 43, 49
5, 11280, Note_on_c, 0, 43, 0
5, 14400, Note_on_c, 0, 57, 49
5, 14640, Note_on_c, 0, 57, 0
5, 14640, Note_on_c, 0, 55, 49
5, 14880, Note_on_c, 0, 55, 0
5, 14880, Note_on_c, 0, 53, 49
5, 14927, Note_on_c, 0, 53, 0
5, 15120, Note_on_c, 0, 52, 49
5, 15167, Note_on_c, 0, 52, 0
5, 18240, Note_on_c, 0, 43, 62
5, 18480, Note_on_c, 0, 43, 0
5, 18480, Note_on_c, 0, 45, 62
5, 18720, Note_on_c, 0, 45, 0
5, 18720, Note_on_c, 0, 43, 62
5, 18960, Note_on_c, 0, 43, 0
5, 18960, Note_on_c, 0, 45, 62
5, 19200, Note_on_c, 0, 45, 0
5, 19200, Note_on_c, 0, 43, 62
5, 19440, Note_on_c, 0, 43, 0
5, 19440, Note_on_c, 0, 45, 62
5, 19680, Note_on_c, 0, 45, 0
5, 19680, Note_on_c, 0, 43, 62
5, 19920, Note_on_c, 0, 43, 0
5, 19920, Note_on_c, 0, 45, 62
5, 20160, Note_on_c, 0, 45, 0
5, 20160, Note_on_c, 0, 43, 62
5, 20400, Note_on_c, 0, 43, 0
5, 20400, Note_on_c, 0, 45, 62
5, 20640, Note_on_c, 0, 45, 0
5, 20640, Note_on_c, 0, 43, 62
5, 20880, Note_on_c, 0, 43, 0
5, 20880, Note_on_c, 0, 45, 62
5, 21120, Note_on_c, 0, 45, 0
5, 21120, Note_on_c, 0, 43, 62
5, 21360, Note_on_c, 0, 43, 0
5, 21360, Note_on_c, 0, 45, 62
5, 21600, Note_on_c, 0, 45, 0
5, 21600, Note_on_c, 0, 43, 62
5, 21840, Note_on_c, 0, 43, 0
5, 21840, Note_on_c, 0, 45, 62
5, 22080, Note_on_c, 0, 45, 0
5, 22080, Note_on_c, 0, 43, 62
5, 22320, Note_on_c, 0, 43, 0
5, 22320, Note_on_c, 0, 45, 62
5, 22560, Note_on_c, 0, 45, 0
5, 22560, Note_on_c, 0, 43, 62
5, 22800, Note_on_c, 0, 43, 0
5, 22800, Note_on_c, 0, 45, 62
5, 23040, Note_on_c, 0, 45, 0
5, 23040, Note_on_c, 0, 43, 62
5, 23280, Note_on_c, 0, 43, 0
5, 23280, Note_on_c, 0, 45, 62
5, 23520, Note_on_c, 0, 45, 0
5, 23520, Note_on_c, 0, 43, 62
5, 23760, Note_on_c, 0, 43, 0
5, 23760, Note_on_c, 0, 45, 62
5, 24000, Note_on_c, 0, 45, 0
5, 24000, Note_on_c, 0, 43, 62
5, 24240, Note_on_c, 0, 43, 0
5, 24240, Note_on_c, 0, 45, 62
5, 24480, Note_on_c, 0, 45, 0
5, 24480, Note_on_c, 0, 43, 62
5, 24720, Note_on_c, 0, 43, 0
5, 24720, Note_on_c, 0, 45, 62
5, 24960, Note_on_c, 0, 45, 0
5, 24960, Note_on_c, 0, 43, 62
5, 25200, Note_on_c, 0, 43, 0
5, 25200, Note_on_c, 0, 45, 62
5, 25440, Note_on_c, 0, 45, 0
5, 25440, Note_on_c, 0, 43, 62
5, 25680, Note_on_c, 0, 43, 0
5, 25680, Note_on_c, 0, 45, 62
5, 25920, Note_on_c, 0, 45, 0
5, 25920, Note_on_c, 0, 43, 62
5, 26160, Note_on_c, 0, 43, 0
5, 26160, Note_on_c, 0, 45, 62
5, 26400, Note_on_c, 0, 45, 0
5, 26400, Note_on_c, 0, 43, 62
5, 26640, Note_on_c, 0, 43, 0
5, 26640, Note_on_c, 0, 45, 62
5, 26880, Note_on_c, 0, 45, 0
5, 26880, Note_on_c, 0, 43, 62
5, 27120, Note_on_c, 0, 43, 0
5, 27120, Note_on_c, 0, 45, 62
5, 27360, Note_on_c, 0, 45, 0
5, 27360, Note_on_c, 0, 43, 62
5, 27600, Note_on_c, 0, 43, 0
5, 27600, Note_on_c, 0, 45, 62
5, 27840, Note_on_c, 0, 45, 0
5, 27840, Note_on_c, 0, 43, 62
5, 28080, Note_on_c, 0, 43, 0
5, 28080, Note_on_c, 0, 45, 62
5, 28320, Note_on_c, 0, 45, 0
5, 28320, Note_on_c, 0, 43, 62
5, 28560, Note_on_c, 0, 43, 0
5, 28560, Note_on_c, 0, 45, 62
5, 28800, Note_on_c, 0, 45, 0
5, 28800, Note_on_c, 0, 43, 62
5, 29040, Note_on_c, 0, 43, 0
5, 29040, Note_on_c, 0, 45, 62
5, 29280, Note_on_c, 0, 45, 0
5, 29280, Note_on_c, 0, 43, 62
5, 29520, Note_on_c, 0, 43, 0
5, 29520, Note_on_c, 0, 45, 62
5, 29760, Note_on_c, 0, 45, 0
5, 29760, Note_on_c, 0, 43, 62
5, 30000, Note_on_c, 0, 43, 0
5, 30000, Note_on_c, 0, 45, 62
5, 30240, Note_on_c, 0, 45, 0
5, 30240, Note_on_c, 0, 43, 62
5, 30480, Note_on_c, 0, 43, 0
5, 30480, Note_on_c, 0, 45, 62
5, 30720, Note_on_c, 0, 45, 0
5, 30720, Note_on_c, 0, 43, 62
5, 30960, Note_on_c, 0, 43, 0
5, 30960, Note_on_c, 0, 45, 62
5, 31200, Note_on_c, 0, 45, 0
5, 31200, Note_on_c, 0, 43, 62
5, 31440, Note_on_c, 0, 43, 0
5, 31440, Note_on_c, 0, 45, 62
5, 31680, Note_on_c, 0, 45, 0
5, 31680, Note_on_c, 0, 43, 62
5, 31920, Note_on_c, 0, 43, 0
5, 31920, Note_on_c, 0, 45, 62
5, 32160, Note_on_c, 0, 45, 0
5, 32160, Note_on_c, 0, 43, 62
5, 32400, Note_on_c, 0, 43, 0
5, 32400, Note_on_c, 0, 45, 62
5, 32640, Note_on_c, 0, 45, 0
5, 32640, Note_on_c, 0, 43, 62
5, 32880, Note_on_c, 0, 43, 0
5, 32880, Note_on_c, 0, 45, 62
5, 33120, Note_on_c, 0, 45, 0
5, 33120, Note_on_c, 0, 43, 62
5, 33360, Note_on_c, 0, 43, 0
5, 33360, Note_on_c, 0, 45, 62
5, 33600, Note_on_c, 0, 45, 0
5, 33600, Note_on_c, 0, 43, 62
5, 33600, Note_on_c, 0, 50, 62
5, 33840, Note_on_c, 0, 50, 0
5, 33840, Note_on_c, 0, 43, 0
5, 37440, Note_on_c, 0, 57, 49
5, 37440, Note_on_c, 0, 60, 49
5, 38400, Note_on_c, 0, 60, 0
5, 38400, Note_on_c, 0, 57, 0
5, 41280, Note_on_c, 0, 47, 49
5, 41520, Note_on_c, 0, 47, 0
5, 41520, Note_on_c, 0, 45, 49
5, 41760, Note_on_c, 0, 45, 0
5, 41760, Note_on_c, 0, 43, 49
5, 42000, Note_on_c, 0, 43, 0
5, 45120, Note_on_c, 0, 57, 49
5, 45360, Note_on_c, 0, 57, 0
5, 45360, Note_on_c, 0, 55, 49
5, 45600, Note_on_c, 0, 55, 0
5, 45600, Note_on_c, 0, 53, 49
5, 45647, Note_on_c, 0, 53, 0
5, 45840, Note_on_c, 0, 52, 49
5, 45887, Note_on_c, 0, 52, 0
5, 45887, End_track
0, 0, End_of_file
