0, 0, Header, 1, 5, 480
1, 0, Start_track
1, 0, Title_t, "tchaikovsky sleeping beauty act2 17 panorama"
1, 0, Copyright_t, "Adaptation for Disklavier pianos, by: Robert C. Kuhmann (c) 2012."
1, 0, Text_t, "Seq. (c) by: Segundo G. Yogore,  2006\012"
1, 0, Time_signature, 6, 3, 12, 8
1, 0, Key_signature, 1, "major"
1, 0, Tempo, 705882
1, 112320, Time_signature, 8, 2, 24, 8
1, 112320, End_track
2, 0, Start_track
2, 0, Title_t, "Grand Piano"
2, 0, Program_c, 0, 0
2, 0, Control_c, 0, 7, 115
2, 0, Control_c, 0, 10, 86
2, 0, Control_c, 0, 64, 127
2, 0, Note_on_c, 0, 62, 49
2, 0, Note_on_c, 0, 67, 49
2, 0, Note_on_c, 0, 71, 49
2, 0, Note_on_c, 0, 74, 49
2, 120, Note_on_c, 0, 74, 0
2, 120, Note_on_c, 0, 62, 0
2, 120, Note_on_c, 0, 67, 0
2, 120, Note_on_c, 0, 71, 0
2, 120, Note_on_c, 0, 62, 49
2, 120, Note_on_c, 0, 67, 49
2, 120, Note_on_c, 0, 71, 49
2, 120, Note_on_c, 0, 74, 49
2, 240, Note_on_c, 0, 74, 0
2, 240, Note_on_c, 0, 62, 0
2, 240, Note_on_c, 0, 67, 0
2, 240, Note_on_c, 0, 71, 0
2, 240, Note_on_c, 0, 62, 49
2, 240, Note_on_c, 0, 67, 49
2, 240, Note_on_c, 0, 71, 49
2, 240, Note_on_c, 0, 74, 49
2, 360, Note_on_c, 0, 74, 0
2, 360, Note_on_c, 0, 62, 0
2, 360, Note_on_c, 0, 67, 0
2, 360, Note_on_c, 0, 71, 0
2, 360, Note_on_c, 0, 62, 49
2, 360, Note_on_c, 0, 67, 49
2, 360, Note_on_c, 0, 71, 49
2, 360, Note_on_c, 0, 74, 49
2, 480, Note_on_c, 0, 74, 0
2, 480, Note_on_c, 0, 62, 0
2, 480, Note_on_c, 0, 67, 0
2, 480, Note_on_c, 0, 71, 0
2, 480, Note_on_c, 0, 62, 49
2, 480, Note_on_c, 0, 67, 49
2, 480, Note_on_c, 0, 71, 49
2, 480, Note_on_c, 0, 74, 49
2, 600, Note_on_c, 0, 74, 0
2, 600, Note_on_c, 0, 62, 0
2, 600, Note_on_c, 0, 67, 0
2, 600, Note_on_c, 0, 71, 0
2, 600, Note_on_c, 0, 62, 49
2, 600, Note_on_c, 0, 67, 49
2, 600, Note_on_c, 0, 71, 49
2, 600, Note_on_c, 0, 74, 49
2, 720, Note_on_c, 0, 74, 0
2, 720, Note_on_c, 0, 62, 0
2, 720, Note_on_c, 0, 67, 0
2, 720, Note_on_c, 0, 71, 0
2, 720, Note_on_c, 0, 62, 49
2, 720, Note_on_c, 0, 67, 49
2, 720, Note_on_c, 0, 71, 49
2, 720, Note_on_c, 0, 74, 49
2, 840, Note_on_c, 0, 74, 0
2, 840, Note_on_c, 0, 62, 0
2, 840, Note_on_c, 0, 67, 0
2, 840, Note_on_c, 0, 71, 0
2, 840, Note_on_c, 0, 62, 49
2, 840, Note_on_c, 0, 67, 49
2, 840, Note_on_c, 0, 71, 49
2, 840, Note_on_c, 0, 74, 49
2, 960, Note_on_c, 0, 74, 0
2, 960, Note_on_c, 0, 62, 0
2, 960, Note_on_c, 0, 67, 0
2, 960, Note_on_c, 0, 71, 0
2, 960, Note_on_c, 0, 62, 49
2, 960, Note_on_c, 0, 67, 49
2, 960, Note_on_c, 0, 71, 49
2, 960, Note_on_c, 0, 74, 49
2, 1080, Note_on_c, 0, 74, 0
2, 1080, Note_on_c, 0, 62, 0
2, 1080, Note_on_c, 0, 67, 0
2, 1080, Note_on_c, 0, 71, 0
2, 1080, Note_on_c, 0, 62, 49
2, 1080, Note_on_c, 0, 67, 49
2, 1080, Note_on_c, 0, 71, 49
2, 1080, Note_on_c, 0, 74, 49
2, 1200, Note_on_c, 0, 74, 0
2, 1200, Note_on_c, 0, 62, 0
2, 1200, Note_on_c, 0, 67, 0
2, 1200, Note_on_c, 0, 71, 0
2, 1200, Note_on_c, 0, 62, 49
2, 1200, Note_on_c, 0, 67, 49
2, 1200, Note_on_c, 0, 71, 49
2, 1200, Note_on_c, 0, 74, 49
2, 1320, Note_on_c, 0, 74, 0
2, 1320, Note_on_c, 0, 62, 0
2, 1320, Note_on_c, 0, 67, 0
2, 1320, Note_on_c, 0, 71, 0
2, 1320, Note_on_c, 0, 62, 49
2, 1320, Note_on_c, 0, 67, 49
2, 1320, Note_on_c, 0, 71, 49
2, 1320, Note_on_c, 0, 74, 49
2, 1440, Note_on_c, 0, 74, 0
2, 1440, Note_on_c, 0, 62, 0
2, 1440, Note_on_c, 0, 67, 0
2, 1440, Note_on_c, 0, 71, 0
2, 1440, Note_on_c, 0, 62, 49
2, 1440, Note_on_c, 0, 67, 49
2, 1440, Note_on_c, 0, 71, 49
2, 1440, Note_on_c, 0, 74, 49
2, 1560, Note_on_c, 0, 74, 0
2, 1560, Note_on_c, 0, 62, 0
2, 1560, Note_on_c, 0, 67, 0
2, 1560, Note_on_c, 0, 71, 0
2, 1560, Note_on_c, 0, 62, 49
2, 1560, Note_on_c, 0, 67, 49
2, 1560, Note_on_c, 0, 71, 49
2, 1560, Note_on_c, 0, 74, 49
2, 1680, Note_on_c, 0, 74, 0
2, 1680, Note_on_c, 0, 62, 0
2, 1680, Note_on_c, 0, 67, 0
2, 1680, Note_on_c, 0, 71, 0
2, 1680, Note_on_c, 0, 62, 49
2, 1680, Note_on_c, 0, 67, 49
2, 1680, Note_on_c, 0, 71, 49
2, 1680, Note_on_c, 0, 74, 49
2, 1800, Note_on_c, 0, 74, 0
2, 1800, Note_on_c, 0, 62, 0
2, 1800, Note_on_c, 0, 67, 0
2, 1800, Note_on_c, 0, 71, 0
2, 1800, Note_on_c, 0, 62, 49
2, 1800, Note_on_c, 0, 67, 49
2, 1800, Note_on_c, 0, 71, 49
2, 1800, Note_on_c, 0, 74, 49
2, 1920, Note_on_c, 0, 74, 0
2, 1920, Note_on_c, 0, 62, 0
2, 1920, Note_on_c, 0, 67, 0
2, 1920, Note_on_c, 0, 71, 0
2, 1920, Note_on_c, 0, 62, 49
2, 1920, Note_on_c, 0, 67, 49
2, 1920, Note_on_c, 0, 71, 49
2, 1920, Note_on_c, 0, 74, 49
2, 2040, Note_on_c, 0, 74, 0
2, 2040, Note_on_c, 0, 62, 0
2, 2040, Note_on_c, 0, 67, 0
2, 2040, Note_on_c, 0, 71, 0
2, 2040, Note_on_c, 0, 62, 49
2, 2040, Note_on_c, 0, 67, 49
2, 2040, Note_on_c, 0, 71, 49
2, 2040, Note_on_c, 0, 74, 49
2, 2160, Note_on_c, 0, 74, 0
2, 2160, Note_on_c, 0, 62, 0
2, 2160, Note_on_c, 0, 67, 0
2, 2160, Note_on_c, 0, 71, 0
2, 2160, Note_on_c, 0, 62, 49
2, 2160, Note_on_c, 0, 67, 49
2, 2160, Note_on_c, 0, 71, 49
2, 2160, Note_on_c, 0, 74, 49
2, 2280, Note_on_c, 0, 74, 0
2, 2280, Note_on_c, 0, 62, 0
2, 2280, Note_on_c, 0, 67, 0
2, 2280, Note_on_c, 0, 71, 0
2, 2280, Note_on_c, 0, 62, 49
2, 2280, Note_on_c, 0, 67, 49
2, 2280, Note_on_c, 0, 71, 49
2, 2280, Note_on_c, 0, 74, 49
2, 2400, Note_on_c, 0, 74, 0
2, 2400, Note_on_c, 0, 62, 0
2, 2400, Note_on_c, 0, 67, 0
2, 2400, Note_on_c, 0, 71, 0
2, 2400, Note_on_c, 0, 62, 49
2, 2400, Note_on_c, 0, 67, 49
2, 2400, Note_on_c, 0, 71, 49
2, 2400, Note_on_c, 0, 74, 49
2, 2520, Note_on_c, 0, 74, 0
2, 2520, Note_on_c, 0, 62, 0
2, 2520, Note_on_c, 0, 67, 0
2, 2520, Note_on_c, 0, 71, 0
2, 2520, Note_on_c, 0, 62, 49
2, 2520, Note_on_c, 0, 67, 49
2, 2520, Note_on_c, 0, 71, 49
2, 2520, Note_on_c, 0, 74, 49
2, 2640, Note_on_c, 0, 74, 0
2, 2640, Note_on_c, 0, 62, 0
2, 2640, Note_on_c, 0, 67, 0
2, 2640, Note_on_c, 0, 71, 0
2, 2640, Note_on_c, 0, 62, 49
2, 2640, Note_on_c, 0, 67, 49
2, 2640, Note_on_c, 0, 71, 49
2, 2640, Note_on_c, 0, 74, 49
2, 2760, Note_on_c, 0, 74, 0
2, 2760, Note_on_c, 0, 62, 0
2, 2760, Note_on_c, 0, 67, 0
2, 2760, Note_on_c, 0, 71, 0
2, 2760, Control_c, 0, 64, 0
2, 2760, Note_on_c, 0, 62, 49
2, 2760, Note_on_c, 0, 67, 49
2, 2760, Note_on_c, 0, 71, 49
2, 2760, Note_on_c, 0, 74, 49
2, 2880, Note_on_c, 0, 74, 0
2, 2880, Note_on_c, 0, 62, 0
2, 2880, Note_on_c, 0, 67, 0
2, 2880, Note_on_c, 0, 71, 0
2, 2880, Note_on_c, 0, 67, 75
2, 2880, Note_on_c, 0, 79, 75
2, 3360, Note_on_c, 0, 79, 0
2, 3360, Note_on_c, 0, 67, 0
2, 3360, Note_on_c, 0, 66, 75
2, 3360, Note_on_c, 0, 78, 75
2, 3840, Note_on_c, 0, 78, 0
2, 3840, Note_on_c, 0, 66, 0
2, 3840, Note_on_c, 0, 64, 75
2, 3840, Note_on_c, 0, 76, 75
2, 4320, Note_on_c, 0, 76, 0
2, 4320, Note_on_c, 0, 64, 0
2, 4320, Note_on_c, 0, 62, 75
2, 4320, Note_on_c, 0, 74, 75
2, 4800, Note_on_c, 0, 74, 0
2, 4800, Note_on_c, 0, 62, 0
2, 4800, Note_on_c, 0, 64, 75
2, 4800, Note_on_c, 0, 76, 75
2, 5280, Note_on_c, 0, 76, 0
2, 5280, Note_on_c, 0, 64, 0
2, 5280, Note_on_c, 0, 66, 75
2, 5280, Note_on_c, 0, 78, 75
2, 5760, Note_on_c, 0, 78, 0
2, 5760, Note_on_c, 0, 66, 0
2, 5760, Note_on_c, 0, 67, 75
2, 5760, Note_on_c, 0, 79, 75
2, 6240, Note_on_c, 0, 79, 0
2, 6240, Note_on_c, 0, 67, 0
2, 6240, Note_on_c, 0, 66, 75
2, 6240, Note_on_c, 0, 78, 75
2, 6720, Note_on_c, 0, 78, 0
2, 6720, Note_on_c, 0, 66, 0
2, 6720, Note_on_c, 0, 64, 75
2, 6720, Note_on_c, 0, 76, 75
2, 7200, Note_on_c, 0, 76, 0
2, 7200, Note_on_c, 0, 64, 0
2, 7200, Note_on_c, 0, 62, 75
2, 7200, Note_on_c, 0, 74, 75
2, 7680, Note_on_c, 0, 74, 0
2, 7680, Note_on_c, 0, 62, 0
2, 7680, Note_on_c, 0, 60, 75
2, 7680, Note_on_c, 0, 72, 75
2, 8640, Note_on_c, 0, 72, 0
2, 8640, Note_on_c, 0, 60, 0
2, 8640, Note_on_c, 0, 59, 75
2, 8640, Note_on_c, 0, 71, 75
2, 9120, Note_on_c, 0, 71, 0
2, 9120, Note_on_c, 0, 59, 0
2, 9120, Note_on_c, 0, 57, 75
2, 9120, Note_on_c, 0, 69, 75
2, 9600, Note_on_c, 0, 69, 0
2, 9600, Note_on_c, 0, 57, 0
2, 9600, Note_on_c, 0, 56, 75
2, 9600, Note_on_c, 0, 68, 75
2, 10080, Note_on_c, 0, 68, 0
2, 10080, Note_on_c, 0, 56, 0
2, 10080, Note_on_c, 0, 57, 75
2, 10080, Note_on_c, 0, 69, 75
2, 10560, Note_on_c, 0, 69, 0
2, 10560, Note_on_c, 0, 57, 0
2, 10560, Note_on_c, 0, 59, 75
2, 10560, Note_on_c, 0, 71, 75
2, 11040, Note_on_c, 0, 71, 0
2, 11040, Note_on_c, 0, 59, 0
2, 11040, Note_on_c, 0, 60, 75
2, 11040, Note_on_c, 0, 72, 75
2, 11520, Note_on_c, 0, 72, 0
2, 11520, Note_on_c, 0, 60, 0
2, 11520, Note_on_c, 0, 64, 75
2, 11520, Note_on_c, 0, 76, 75
2, 12000, Note_on_c, 0, 76, 0
2, 12000, Note_on_c, 0, 64, 0
2, 12000, Note_on_c, 0, 62, 75
2, 12000, Note_on_c, 0, 74, 75
2, 12480, Note_on_c, 0, 74, 0
2, 12480, Note_on_c, 0, 62, 0
2, 12480, Note_on_c, 0, 61, 75
2, 12480, Note_on_c, 0, 73, 75
2, 12960, Note_on_c, 0, 73, 0
2, 12960, Note_on_c, 0, 61, 0
2, 12960, Note_on_c, 0, 62, 75
2, 12960, Note_on_c, 0, 74, 75
2, 13920, Note_on_c, 0, 74, 0
2, 13920, Note_on_c, 0, 62, 0
2, 13920, Note_on_c, 0, 64, 75
2, 13920, Note_on_c, 0, 76, 75
2, 14160, Note_on_c, 0, 76, 0
2, 14160, Note_on_c, 0, 64, 0
2, 14160, Note_on_c, 0, 62, 75
2, 14160, Note_on_c, 0, 74, 75
2, 14400, Note_on_c, 0, 74, 0
2, 14400, Note_on_c, 0, 62, 0
2, 14400, Note_on_c, 0, 67, 75
2, 14400, Note_on_c, 0, 79, 75
2, 14880, Note_on_c, 0, 79, 0
2, 14880, Note_on_c, 0, 67, 0
2, 14880, Note_on_c, 0, 66, 75
2, 14880, Note_on_c, 0, 78, 75
2, 15360, Note_on_c, 0, 78, 0
2, 15360, Note_on_c, 0, 66, 0
2, 15360, Note_on_c, 0, 64, 75
2, 15360, Note_on_c, 0, 76, 75
2, 15840, Note_on_c, 0, 76, 0
2, 15840, Note_on_c, 0, 64, 0
2, 15840, Note_on_c, 0, 62, 75
2, 15840, Note_on_c, 0, 74, 75
2, 16320, Note_on_c, 0, 74, 0
2, 16320, Note_on_c, 0, 62, 0
2, 16320, Note_on_c, 0, 64, 75
2, 16320, Note_on_c, 0, 76, 75
2, 16800, Note_on_c, 0, 76, 0
2, 16800, Note_on_c, 0, 64, 0
2, 16800, Note_on_c, 0, 66, 75
2, 16800, Note_on_c, 0, 78, 75
2, 17280, Note_on_c, 0, 78, 0
2, 17280, Note_on_c, 0, 66, 0
2, 17280, Note_on_c, 0, 67, 75
2, 17280, Note_on_c, 0, 79, 75
2, 17760, Note_on_c, 0, 79, 0
2, 17760, Note_on_c, 0, 67, 0
2, 17760, Note_on_c, 0, 66, 75
2, 17760, Note_on_c, 0, 78, 75
2, 18240, Note_on_c, 0, 78, 0
2, 18240, Note_on_c, 0, 66, 0
2, 18240, Note_on_c, 0, 64, 75
2, 18240, Note_on_c, 0, 76, 75
2, 18720, Note_on_c, 0, 76, 0
2, 18720, Note_on_c, 0, 64, 0
2, 18720, Note_on_c, 0, 62, 75
2, 18720, Note_on_c, 0, 74, 75
2, 19200, Note_on_c, 0, 74, 0
2, 19200, Note_on_c, 0, 62, 0
2, 19200, Note_on_c, 0, 61, 75
2, 19200, Note_on_c, 0, 73, 75
2, 20160, Note_on_c, 0, 73, 0
2, 20160, Note_on_c, 0, 61, 0
2, 20160, Note_on_c, 0, 62, 75
2, 20160, Note_on_c, 0, 74, 75
2, 20640, Note_on_c, 0, 74, 0
2, 20640, Note_on_c, 0, 62, 0
2, 20640, Note_on_c, 0, 64, 75
2, 20640, Note_on_c, 0, 76, 75
2, 21120, Note_on_c, 0, 76, 0
2, 21120, Note_on_c, 0, 64, 0
2, 21120, Note_on_c, 0, 66, 75
2, 21120, Note_on_c, 0, 78, 75
2, 21600, Note_on_c, 0, 78, 0
2, 21600, Note_on_c, 0, 66, 0
2, 21600, Note_on_c, 0, 69, 75
2, 21600, Note_on_c, 0, 81, 75
2, 22080, Note_on_c, 0, 81, 0
2, 22080, Note_on_c, 0, 69, 0
2, 22080, Note_on_c, 0, 67, 75
2, 22080, Note_on_c, 0, 79, 75
2, 22560, Note_on_c, 0, 79, 0
2, 22560, Note_on_c, 0, 67, 0
2, 22560, Note_on_c, 0, 66, 75
2, 22560, Note_on_c, 0, 78, 75
2, 23040, Note_on_c, 0, 78, 0
2, 23040, Note_on_c, 0, 66, 0
2, 23040, Note_on_c, 0, 66, 75
2, 23040, Note_on_c, 0, 78, 75
2, 23520, Note_on_c, 0, 78, 0
2, 23520, Note_on_c, 0, 66, 0
2, 23520, Note_on_c, 0, 64, 75
2, 23520, Note_on_c, 0, 76, 75
2, 24000, Note_on_c, 0, 76, 0
2, 24000, Note_on_c, 0, 64, 0
2, 24000, Note_on_c, 0, 66, 75
2, 24000, Note_on_c, 0, 78, 75
2, 24480, Note_on_c, 0, 78, 0
2, 24480, Note_on_c, 0, 66, 0
2, 24480, Note_on_c, 0, 62, 75
2, 24480, Note_on_c, 0, 74, 75
2, 25200, Note_on_c, 0, 74, 0
2, 25200, Note_on_c, 0, 62, 0
2, 25920, Note_on_c, 0, 72, 62
2, 25920, Note_on_c, 0, 76, 62
2, 26400, Note_on_c, 0, 76, 0
2, 26400, Note_on_c, 0, 72, 0
2, 26400, Note_on_c, 0, 71, 62
2, 26400, Note_on_c, 0, 74, 62
2, 26880, Note_on_c, 0, 74, 0
2, 26880, Note_on_c, 0, 71, 0
2, 26880, Note_on_c, 0, 68, 62
2, 26880, Note_on_c, 0, 71, 62
2, 27360, Note_on_c, 0, 71, 0
2, 27360, Note_on_c, 0, 68, 0
2, 27360, Note_on_c, 0, 71, 62
2, 27360, Note_on_c, 0, 74, 62
2, 27840, Note_on_c, 0, 74, 0
2, 27840, Note_on_c, 0, 71, 0
2, 27840, Note_on_c, 0, 69, 62
2, 27840, Note_on_c, 0, 72, 62
2, 28320, Note_on_c, 0, 72, 0
2, 28320, Note_on_c, 0, 69, 0
2, 28320, Note_on_c, 0, 66, 62
2, 28320, Note_on_c, 0, 69, 62
2, 28800, Note_on_c, 0, 69, 0
2, 28800, Note_on_c, 0, 66, 0
2, 28800, Note_on_c, 0, 72, 62
2, 28800, Note_on_c, 0, 76, 62
2, 29280, Note_on_c, 0, 76, 0
2, 29280, Note_on_c, 0, 72, 0
2, 29280, Note_on_c, 0, 71, 62
2, 29280, Note_on_c, 0, 74, 62
2, 29760, Note_on_c, 0, 74, 0
2, 29760, Note_on_c, 0, 71, 0
2, 29760, Note_on_c, 0, 68, 62
2, 29760, Note_on_c, 0, 71, 62
2, 30240, Note_on_c, 0, 71, 0
2, 30240, Note_on_c, 0, 68, 0
2, 30240, Note_on_c, 0, 71, 62
2, 30240, Note_on_c, 0, 74, 62
2, 30720, Note_on_c, 0, 74, 0
2, 30720, Note_on_c, 0, 71, 0
2, 30720, Note_on_c, 0, 69, 62
2, 30720, Note_on_c, 0, 72, 62
2, 31680, Note_on_c, 0, 72, 0
2, 31680, Note_on_c, 0, 69, 0
2, 31680, Note_on_c, 0, 72, 75
2, 31680, Note_on_c, 0, 76, 75
2, 32160, Note_on_c, 0, 76, 0
2, 32160, Note_on_c, 0, 72, 0
2, 32160, Note_on_c, 0, 71, 75
2, 32160, Note_on_c, 0, 74, 75
2, 32640, Note_on_c, 0, 74, 0
2, 32640, Note_on_c, 0, 71, 0
2, 32640, Note_on_c, 0, 68, 75
2, 32640, Note_on_c, 0, 71, 75
2, 33120, Note_on_c, 0, 71, 0
2, 33120, Note_on_c, 0, 68, 0
2, 33120, Note_on_c, 0, 71, 75
2, 33120, Note_on_c, 0, 74, 75
2, 33600, Note_on_c, 0, 74, 0
2, 33600, Note_on_c, 0, 71, 0
2, 33600, Note_on_c, 0, 69, 75
2, 33600, Note_on_c, 0, 72, 75
2, 34080, Note_on_c, 0, 72, 0
2, 34080, Note_on_c, 0, 69, 0
2, 34080, Note_on_c, 0, 66, 75
2, 34080, Note_on_c, 0, 69, 75
2, 34560, Note_on_c, 0, 69, 0
2, 34560, Note_on_c, 0, 66, 0
2, 34560, Note_on_c, 0, 72, 75
2, 34560, Note_on_c, 0, 76, 75
2, 35040, Note_on_c, 0, 76, 0
2, 35040, Note_on_c, 0, 72, 0
2, 35040, Note_on_c, 0, 71, 75
2, 35040, Note_on_c, 0, 74, 75
2, 35520, Note_on_c, 0, 74, 0
2, 35520, Note_on_c, 0, 71, 0
2, 35520, Note_on_c, 0, 68, 75
2, 35520, Note_on_c, 0, 71, 75
2, 36000, Note_on_c, 0, 71, 0
2, 36000, Note_on_c, 0, 68, 0
2, 36000, Note_on_c, 0, 72, 75
2, 36000, Note_on_c, 0, 76, 75
2, 36480, Note_on_c, 0, 76, 0
2, 36480, Note_on_c, 0, 72, 0
2, 36480, Note_on_c, 0, 71, 75
2, 36480, Note_on_c, 0, 74, 75
2, 36960, Note_on_c, 0, 74, 0
2, 36960, Note_on_c, 0, 71, 0
2, 36960, Note_on_c, 0, 69, 75
2, 36960, Note_on_c, 0, 72, 75
2, 37200, Note_on_c, 0, 72, 0
2, 37200, Note_on_c, 0, 69, 0
2, 37200, Note_on_c, 0, 67, 75
2, 37200, Note_on_c, 0, 71, 75
2, 37440, Note_on_c, 0, 71, 0
2, 37440, Note_on_c, 0, 67, 0
2, 37440, Note_on_c, 0, 66, 75
2, 37440, Note_on_c, 0, 69, 75
2, 37680, Note_on_c, 0, 69, 0
2, 37680, Note_on_c, 0, 66, 0
2, 37680, Note_on_c, 0, 64, 75
2, 37680, Note_on_c, 0, 67, 75
2, 37920, Note_on_c, 0, 67, 0
2, 37920, Note_on_c, 0, 64, 0
2, 37920, Note_on_c, 0, 66, 75
2, 37920, Note_on_c, 0, 69, 75
2, 38160, Note_on_c, 0, 69, 0
2, 38160, Note_on_c, 0, 66, 0
2, 38160, Note_on_c, 0, 69, 75
2, 38160, Note_on_c, 0, 72, 75
2, 38400, Note_on_c, 0, 72, 0
2, 38400, Note_on_c, 0, 69, 0
2, 38400, Note_on_c, 0, 67, 75
2, 38400, Note_on_c, 0, 71, 75
2, 38640, Note_on_c, 0, 71, 0
2, 38640, Note_on_c, 0, 67, 0
2, 38640, Note_on_c, 0, 66, 75
2, 38640, Note_on_c, 0, 69, 75
2, 38880, Note_on_c, 0, 69, 0
2, 38880, Note_on_c, 0, 66, 0
2, 38880, Note_on_c, 0, 67, 75
2, 38880, Note_on_c, 0, 79, 75
2, 39360, Note_on_c, 0, 79, 0
2, 39360, Note_on_c, 0, 67, 0
2, 39360, Note_on_c, 0, 66, 75
2, 39360, Note_on_c, 0, 78, 75
2, 39840, Note_on_c, 0, 78, 0
2, 39840, Note_on_c, 0, 66, 0
2, 39840, Note_on_c, 0, 64, 75
2, 39840, Note_on_c, 0, 76, 75
2, 40320, Note_on_c, 0, 76, 0
2, 40320, Note_on_c, 0, 64, 0
2, 40320, Note_on_c, 0, 62, 75
2, 40320, Note_on_c, 0, 74, 75
2, 40800, Note_on_c, 0, 74, 0
2, 40800, Note_on_c, 0, 62, 0
2, 40800, Note_on_c, 0, 64, 75
2, 40800, Note_on_c, 0, 76, 75
2, 41280, Note_on_c, 0, 76, 0
2, 41280, Note_on_c, 0, 64, 0
2, 41280, Note_on_c, 0, 66, 75
2, 41280, Note_on_c, 0, 78, 75
2, 41760, Note_on_c, 0, 78, 0
2, 41760, Note_on_c, 0, 66, 0
2, 41760, Note_on_c, 0, 67, 75
2, 41760, Note_on_c, 0, 79, 75
2, 42240, Note_on_c, 0, 79, 0
2, 42240, Note_on_c, 0, 67, 0
2, 42240, Note_on_c, 0, 66, 75
2, 42240, Note_on_c, 0, 78, 75
2, 42720, Note_on_c, 0, 78, 0
2, 42720, Note_on_c, 0, 66, 0
2, 42720, Note_on_c, 0, 64, 75
2, 42720, Note_on_c, 0, 76, 75
2, 43200, Note_on_c, 0, 76, 0
2, 43200, Note_on_c, 0, 64, 0
2, 43200, Note_on_c, 0, 62, 75
2, 43200, Note_on_c, 0, 74, 75
2, 43680, Note_on_c, 0, 74, 0
2, 43680, Note_on_c, 0, 62, 0
2, 43680, Note_on_c, 0, 60, 75
2, 43680, Note_on_c, 0, 72, 75
2, 44640, Note_on_c, 0, 72, 0
2, 44640, Note_on_c, 0, 60, 0
2, 44640, Note_on_c, 0, 59, 75
2, 44640, Note_on_c, 0, 71, 75
2, 45120, Note_on_c, 0, 71, 0
2, 45120, Note_on_c, 0, 59, 0
2, 45120, Note_on_c, 0, 57, 75
2, 45120, Note_on_c, 0, 69, 75
2, 45600, Note_on_c, 0, 69, 0
2, 45600, Note_on_c, 0, 57, 0
2, 45600, Note_on_c, 0, 56, 75
2, 45600, Note_on_c, 0, 68, 75
2, 46080, Note_on_c, 0, 68, 0
2, 46080, Note_on_c, 0, 56, 0
2, 46080, Note_on_c, 0, 57, 75
2, 46080, Note_on_c, 0, 69, 75
2, 46560, Note_on_c, 0, 69, 0
2, 46560, Note_on_c, 0, 57, 0
2, 46560, Note_on_c, 0, 59, 75
2, 46560, Note_on_c, 0, 71, 75
2, 47040, Note_on_c, 0, 71, 0
2, 47040, Note_on_c, 0, 59, 0
2, 47040, Note_on_c, 0, 60, 75
2, 47040, Note_on_c, 0, 72, 75
2, 47520, Note_on_c, 0, 72, 0
2, 47520, Note_on_c, 0, 60, 0
2, 47520, Note_on_c, 0, 64, 75
2, 47520, Note_on_c, 0, 76, 75
2, 48000, Note_on_c, 0, 76, 0
2, 48000, Note_on_c, 0, 64, 0
2, 48000, Note_on_c, 0, 62, 75
2, 48000, Note_on_c, 0, 74, 75
2, 48480, Note_on_c, 0, 74, 0
2, 48480, Note_on_c, 0, 62, 0
2, 48480, Note_on_c, 0, 61, 75
2, 48480, Note_on_c, 0, 73, 75
2, 48960, Note_on_c, 0, 73, 0
2, 48960, Note_on_c, 0, 61, 0
2, 48960, Note_on_c, 0, 62, 75
2, 48960, Note_on_c, 0, 74, 75
2, 49920, Note_on_c, 0, 74, 0
2, 49920, Note_on_c, 0, 62, 0
2, 49920, Note_on_c, 0, 64, 75
2, 49920, Note_on_c, 0, 76, 75
2, 50160, Note_on_c, 0, 76, 0
2, 50160, Note_on_c, 0, 64, 0
2, 50160, Note_on_c, 0, 62, 75
2, 50160, Note_on_c, 0, 74, 75
2, 50400, Note_on_c, 0, 74, 0
2, 50400, Note_on_c, 0, 62, 0
2, 50400, Note_on_c, 0, 67, 75
2, 50400, Note_on_c, 0, 79, 75
2, 50880, Note_on_c, 0, 79, 0
2, 50880, Note_on_c, 0, 67, 0
2, 50880, Note_on_c, 0, 66, 75
2, 50880, Note_on_c, 0, 78, 75
2, 51360, Note_on_c, 0, 78, 0
2, 51360, Note_on_c, 0, 66, 0
2, 51360, Note_on_c, 0, 64, 75
2, 51360, Note_on_c, 0, 76, 75
2, 51840, Note_on_c, 0, 76, 0
2, 51840, Note_on_c, 0, 64, 0
2, 51840, Note_on_c, 0, 62, 75
2, 51840, Note_on_c, 0, 74, 75
2, 52320, Note_on_c, 0, 74, 0
2, 52320, Note_on_c, 0, 62, 0
2, 52320, Note_on_c, 0, 64, 75
2, 52320, Note_on_c, 0, 76, 75
2, 52800, Note_on_c, 0, 76, 0
2, 52800, Note_on_c, 0, 64, 0
2, 52800, Note_on_c, 0, 66, 75
2, 52800, Note_on_c, 0, 78, 75
2, 53280, Note_on_c, 0, 78, 0
2, 53280, Note_on_c, 0, 66, 0
2, 53280, Note_on_c, 0, 67, 75
2, 53280, Note_on_c, 0, 79, 75
2, 53760, Note_on_c, 0, 79, 0
2, 53760, Note_on_c, 0, 67, 0
2, 53760, Note_on_c, 0, 62, 75
2, 53760, Note_on_c, 0, 74, 75
2, 54240, Note_on_c, 0, 74, 0
2, 54240, Note_on_c, 0, 62, 0
2, 54240, Note_on_c, 0, 59, 75
2, 54240, Note_on_c, 0, 71, 75
2, 54720, Note_on_c, 0, 71, 0
2, 54720, Note_on_c, 0, 59, 0
2, 54720, Note_on_c, 0, 63, 75
2, 54720, Note_on_c, 0, 75, 75
2, 55200, Note_on_c, 0, 75, 0
2, 55200, Note_on_c, 0, 63, 0
2, 55200, Note_on_c, 0, 64, 75
2, 55200, Note_on_c, 0, 76, 75
2, 56160, Note_on_c, 0, 76, 0
2, 56160, Note_on_c, 0, 64, 0
2, 56160, Note_on_c, 0, 64, 75
2, 56160, Note_on_c, 0, 76, 75
2, 56640, Note_on_c, 0, 76, 0
2, 56640, Note_on_c, 0, 64, 0
2, 56640, Note_on_c, 0, 66, 75
2, 56640, Note_on_c, 0, 78, 75
2, 57120, Note_on_c, 0, 78, 0
2, 57120, Note_on_c, 0, 66, 0
2, 57120, Note_on_c, 0, 67, 75
2, 57120, Note_on_c, 0, 79, 75
2, 57600, Note_on_c, 0, 79, 0
2, 57600, Note_on_c, 0, 67, 0
2, 57600, Note_on_c, 0, 67, 75
2, 57600, Note_on_c, 0, 79, 75
2, 58080, Note_on_c, 0, 79, 0
2, 58080, Note_on_c, 0, 67, 0
2, 58080, Note_on_c, 0, 69, 75
2, 58080, Note_on_c, 0, 81, 75
2, 58560, Note_on_c, 0, 81, 0
2, 58560, Note_on_c, 0, 69, 0
2, 58560, Note_on_c, 0, 71, 75
2, 58560, Note_on_c, 0, 83, 75
2, 59040, Note_on_c, 0, 83, 0
2, 59040, Note_on_c, 0, 71, 0
2, 59040, Note_on_c, 0, 72, 88
2, 59040, Note_on_c, 0, 84, 88
2, 59520, Note_on_c, 0, 84, 0
2, 59520, Note_on_c, 0, 72, 0
2, 59520, Note_on_c, 0, 73, 88
2, 59520, Note_on_c, 0, 85, 88
2, 60000, Note_on_c, 0, 85, 0
2, 60000, Note_on_c, 0, 73, 0
2, 60000, Note_on_c, 0, 74, 88
2, 60000, Note_on_c, 0, 86, 88
2, 60480, Note_on_c, 0, 86, 0
2, 60480, Note_on_c, 0, 74, 0
2, 60480, Note_on_c, 0, 67, 62
2, 60480, Note_on_c, 0, 71, 62
2, 60480, Note_on_c, 0, 74, 62
2, 60480, Note_on_c, 0, 79, 62
2, 60600, Note_on_c, 0, 79, 0
2, 60600, Note_on_c, 0, 67, 0
2, 60600, Note_on_c, 0, 71, 0
2, 60600, Note_on_c, 0, 74, 0
2, 60600, Control_c, 0, 64, 127
2, 60600, Note_on_c, 0, 62, 62
2, 60720, Note_on_c, 0, 62, 0
2, 60720, Note_on_c, 0, 62, 62
2, 60840, Note_on_c, 0, 62, 0
2, 60840, Note_on_c, 0, 62, 62
2, 60960, Note_on_c, 0, 62, 0
2, 60960, Note_on_c, 0, 62, 62
2, 61080, Note_on_c, 0, 62, 0
2, 61080, Note_on_c, 0, 62, 62
2, 61200, Note_on_c, 0, 62, 0
2, 61200, Note_on_c, 0, 62, 62
2, 61320, Note_on_c, 0, 62, 0
2, 61320, Note_on_c, 0, 62, 62
2, 61440, Note_on_c, 0, 62, 0
2, 61440, Note_on_c, 0, 62, 62
2, 61560, Note_on_c, 0, 62, 0
2, 61560, Note_on_c, 0, 62, 62
2, 61680, Note_on_c, 0, 62, 0
2, 61680, Note_on_c, 0, 62, 62
2, 61800, Note_on_c, 0, 62, 0
2, 61800, Control_c, 0, 64, 0
2, 61800, Note_on_c, 0, 62, 62
2, 61920, Note_on_c, 0, 62, 0
2, 61920, Note_on_c, 0, 72, 62
2, 61920, Note_on_c, 0, 76, 62
2, 62400, Note_on_c, 0, 76, 0
2, 62400, Note_on_c, 0, 72, 0
2, 62400, Note_on_c, 0, 71, 62
2, 62400, Note_on_c, 0, 74, 62
2, 62880, Note_on_c, 0, 74, 0
2, 62880, Note_on_c, 0, 71, 0
2, 62880, Note_on_c, 0, 68, 62
2, 62880, Note_on_c, 0, 71, 62
2, 63360, Note_on_c, 0, 71, 0
2, 63360, Note_on_c, 0, 68, 0
2, 63360, Note_on_c, 0, 71, 62
2, 63360, Note_on_c, 0, 74, 62
2, 63840, Note_on_c, 0, 74, 0
2, 63840, Note_on_c, 0, 71, 0
2, 63840, Note_on_c, 0, 69, 62
2, 63840, Note_on_c, 0, 72, 62
2, 64320, Note_on_c, 0, 72, 0
2, 64320, Note_on_c, 0, 69, 0
2, 64320, Note_on_c, 0, 66, 62
2, 64320, Note_on_c, 0, 69, 62
2, 64800, Note_on_c, 0, 69, 0
2, 64800, Note_on_c, 0, 66, 0
2, 64800, Note_on_c, 0, 72, 62
2, 64800, Note_on_c, 0, 76, 62
2, 65280, Note_on_c, 0, 76, 0
2, 65280, Note_on_c, 0, 72, 0
2, 65280, Note_on_c, 0, 71, 62
2, 65280, Note_on_c, 0, 74, 62
2, 65760, Note_on_c, 0, 74, 0
2, 65760, Note_on_c, 0, 71, 0
2, 65760, Note_on_c, 0, 68, 62
2, 65760, Note_on_c, 0, 71, 62
2, 66240, Note_on_c, 0, 71, 0
2, 66240, Note_on_c, 0, 68, 0
2, 66240, Note_on_c, 0, 71, 62
2, 66240, Note_on_c, 0, 74, 62
2, 66720, Note_on_c, 0, 74, 0
2, 66720, Note_on_c, 0, 71, 0
2, 66720, Note_on_c, 0, 69, 62
2, 66720, Note_on_c, 0, 72, 62
2, 67680, Note_on_c, 0, 72, 0
2, 67680, Note_on_c, 0, 69, 0
2, 67680, Note_on_c, 0, 72, 62
2, 67680, Note_on_c, 0, 76, 62
2, 68160, Note_on_c, 0, 76, 0
2, 68160, Note_on_c, 0, 72, 0
2, 68160, Note_on_c, 0, 71, 62
2, 68160, Note_on_c, 0, 74, 62
2, 68640, Note_on_c, 0, 74, 0
2, 68640, Note_on_c, 0, 71, 0
2, 68640, Note_on_c, 0, 68, 62
2, 68640, Note_on_c, 0, 71, 62
2, 69120, Note_on_c, 0, 71, 0
2, 69120, Note_on_c, 0, 68, 0
2, 69120, Note_on_c, 0, 71, 62
2, 69120, Note_on_c, 0, 74, 62
2, 69600, Note_on_c, 0, 74, 0
2, 69600, Note_on_c, 0, 71, 0
2, 69600, Note_on_c, 0, 69, 62
2, 69600, Note_on_c, 0, 72, 62
2, 70080, Note_on_c, 0, 72, 0
2, 70080, Note_on_c, 0, 69, 0
2, 70080, Note_on_c, 0, 66, 62
2, 70080, Note_on_c, 0, 69, 62
2, 70560, Note_on_c, 0, 69, 0
2, 70560, Note_on_c, 0, 66, 0
2, 70560, Note_on_c, 0, 72, 62
2, 70560, Note_on_c, 0, 76, 62
2, 71040, Note_on_c, 0, 76, 0
2, 71040, Note_on_c, 0, 72, 0
2, 71040, Note_on_c, 0, 71, 62
2, 71040, Note_on_c, 0, 74, 62
2, 71520, Note_on_c, 0, 74, 0
2, 71520, Note_on_c, 0, 71, 0
2, 71520, Note_on_c, 0, 69, 62
2, 71520, Note_on_c, 0, 72, 62
2, 71760, Note_on_c, 0, 72, 0
2, 71760, Note_on_c, 0, 69, 0
2, 71760, Note_on_c, 0, 67, 62
2, 71760, Note_on_c, 0, 71, 62
2, 72000, Note_on_c, 0, 71, 0
2, 72000, Note_on_c, 0, 67, 0
2, 72000, Note_on_c, 0, 66, 62
2, 72000, Note_on_c, 0, 69, 62
2, 72240, Note_on_c, 0, 69, 0
2, 72240, Note_on_c, 0, 66, 0
2, 72240, Note_on_c, 0, 64, 62
2, 72240, Note_on_c, 0, 67, 62
2, 72480, Note_on_c, 0, 67, 0
2, 72480, Note_on_c, 0, 64, 0
2, 72480, Note_on_c, 0, 66, 62
2, 72480, Note_on_c, 0, 69, 62
2, 72720, Note_on_c, 0, 69, 0
2, 72720, Note_on_c, 0, 66, 0
2, 72720, Note_on_c, 0, 69, 62
2, 72720, Note_on_c, 0, 72, 62
2, 72960, Note_on_c, 0, 72, 0
2, 72960, Note_on_c, 0, 69, 0
2, 72960, Note_on_c, 0, 67, 62
2, 72960, Note_on_c, 0, 71, 62
2, 73200, Note_on_c, 0, 71, 0
2, 73200, Note_on_c, 0, 67, 0
2, 73200, Note_on_c, 0, 66, 62
2, 73200, Note_on_c, 0, 69, 62
2, 73440, Note_on_c, 0, 69, 0
2, 73440, Note_on_c, 0, 66, 0
2, 73440, Note_on_c, 0, 67, 75
2, 73440, Note_on_c, 0, 79, 75
2, 73920, Note_on_c, 0, 79, 0
2, 73920, Note_on_c, 0, 67, 0
2, 73920, Note_on_c, 0, 66, 75
2, 73920, Note_on_c, 0, 78, 75
2, 74400, Note_on_c, 0, 78, 0
2, 74400, Note_on_c, 0, 66, 0
2, 74400, Note_on_c, 0, 64, 75
2, 74400, Note_on_c, 0, 76, 75
2, 74880, Note_on_c, 0, 76, 0
2, 74880, Note_on_c, 0, 64, 0
2, 74880, Note_on_c, 0, 62, 75
2, 74880, Note_on_c, 0, 74, 75
2, 75360, Note_on_c, 0, 74, 0
2, 75360, Note_on_c, 0, 62, 0
2, 75360, Note_on_c, 0, 64, 75
2, 75360, Note_on_c, 0, 76, 75
2, 75840, Note_on_c, 0, 76, 0
2, 75840, Note_on_c, 0, 64, 0
2, 75840, Note_on_c, 0, 66, 75
2, 75840, Note_on_c, 0, 78, 75
2, 76320, Note_on_c, 0, 78, 0
2, 76320, Note_on_c, 0, 66, 0
2, 76320, Note_on_c, 0, 67, 75
2, 76320, Note_on_c, 0, 79, 75
2, 76800, Note_on_c, 0, 79, 0
2, 76800, Note_on_c, 0, 67, 0
2, 76800, Note_on_c, 0, 66, 75
2, 76800, Note_on_c, 0, 78, 75
2, 77280, Note_on_c, 0, 78, 0
2, 77280, Note_on_c, 0, 66, 0
2, 77280, Note_on_c, 0, 64, 75
2, 77280, Note_on_c, 0, 76, 75
2, 77760, Note_on_c, 0, 76, 0
2, 77760, Note_on_c, 0, 64, 0
2, 77760, Note_on_c, 0, 62, 75
2, 77760, Note_on_c, 0, 74, 75
2, 78240, Note_on_c, 0, 74, 0
2, 78240, Note_on_c, 0, 62, 0
2, 78240, Note_on_c, 0, 60, 75
2, 78240, Note_on_c, 0, 72, 75
2, 79200, Note_on_c, 0, 72, 0
2, 79200, Note_on_c, 0, 60, 0
2, 79200, Note_on_c, 0, 59, 75
2, 79200, Note_on_c, 0, 71, 75
2, 79680, Note_on_c, 0, 71, 0
2, 79680, Note_on_c, 0, 59, 0
2, 79680, Note_on_c, 0, 57, 75
2, 79680, Note_on_c, 0, 69, 75
2, 80160, Note_on_c, 0, 69, 0
2, 80160, Note_on_c, 0, 57, 0
2, 80160, Note_on_c, 0, 56, 75
2, 80160, Note_on_c, 0, 68, 75
2, 80640, Note_on_c, 0, 68, 0
2, 80640, Note_on_c, 0, 56, 0
2, 80640, Note_on_c, 0, 57, 75
2, 80640, Note_on_c, 0, 69, 75
2, 81120, Note_on_c, 0, 69, 0
2, 81120, Note_on_c, 0, 57, 0
2, 81120, Note_on_c, 0, 59, 75
2, 81120, Note_on_c, 0, 71, 75
2, 81600, Note_on_c, 0, 71, 0
2, 81600, Note_on_c, 0, 59, 0
2, 81600, Note_on_c, 0, 60, 75
2, 81600, Note_on_c, 0, 72, 75
2, 82080, Note_on_c, 0, 72, 0
2, 82080, Note_on_c, 0, 60, 0
2, 82080, Note_on_c, 0, 64, 75
2, 82080, Note_on_c, 0, 76, 75
2, 82560, Note_on_c, 0, 76, 0
2, 82560, Note_on_c, 0, 64, 0
2, 82560, Note_on_c, 0, 62, 75
2, 82560, Note_on_c, 0, 74, 75
2, 83040, Note_on_c, 0, 74, 0
2, 83040, Note_on_c, 0, 62, 0
2, 83040, Note_on_c, 0, 61, 75
2, 83040, Note_on_c, 0, 73, 75
2, 83520, Note_on_c, 0, 73, 0
2, 83520, Note_on_c, 0, 61, 0
2, 83520, Note_on_c, 0, 62, 75
2, 83520, Note_on_c, 0, 74, 75
2, 84480, Note_on_c, 0, 74, 0
2, 84480, Note_on_c, 0, 62, 0
2, 84480, Note_on_c, 0, 64, 75
2, 84480, Note_on_c, 0, 76, 75
2, 84720, Note_on_c, 0, 76, 0
2, 84720, Note_on_c, 0, 64, 0
2, 84720, Note_on_c, 0, 62, 75
2, 84720, Note_on_c, 0, 74, 75
2, 84960, Note_on_c, 0, 74, 0
2, 84960, Note_on_c, 0, 62, 0
2, 84960, Note_on_c, 0, 67, 75
2, 84960, Note_on_c, 0, 79, 75
2, 85440, Note_on_c, 0, 79, 0
2, 85440, Note_on_c, 0, 67, 0
2, 85440, Note_on_c, 0, 66, 75
2, 85440, Note_on_c, 0, 78, 75
2, 85920, Note_on_c, 0, 78, 0
2, 85920, Note_on_c, 0, 66, 0
2, 85920, Note_on_c, 0, 64, 75
2, 85920, Note_on_c, 0, 76, 75
2, 86400, Note_on_c, 0, 76, 0
2, 86400, Note_on_c, 0, 64, 0
2, 86400, Note_on_c, 0, 62, 75
2, 86400, Note_on_c, 0, 74, 75
2, 86880, Note_on_c, 0, 74, 0
2, 86880, Note_on_c, 0, 62, 0
2, 86880, Note_on_c, 0, 64, 75
2, 86880, Note_on_c, 0, 76, 75
2, 87360, Note_on_c, 0, 76, 0
2, 87360, Note_on_c, 0, 64, 0
2, 87360, Note_on_c, 0, 66, 75
2, 87360, Note_on_c, 0, 78, 75
2, 87840, Note_on_c, 0, 78, 0
2, 87840, Note_on_c, 0, 66, 0
2, 87840, Note_on_c, 0, 67, 75
2, 87840, Note_on_c, 0, 79, 75
2, 88320, Note_on_c, 0, 79, 0
2, 88320, Note_on_c, 0, 67, 0
2, 88320, Note_on_c, 0, 62, 75
2, 88320, Note_on_c, 0, 74, 75
2, 88800, Note_on_c, 0, 74, 0
2, 88800, Note_on_c, 0, 62, 0
2, 88800, Note_on_c, 0, 59, 75
2, 88800, Note_on_c, 0, 71, 75
2, 89280, Note_on_c, 0, 71, 0
2, 89280, Note_on_c, 0, 59, 0
2, 89280, Note_on_c, 0, 63, 75
2, 89280, Note_on_c, 0, 75, 75
2, 89760, Note_on_c, 0, 75, 0
2, 89760, Note_on_c, 0, 63, 0
2, 89760, Note_on_c, 0, 64, 75
2, 89760, Note_on_c, 0, 76, 75
2, 90720, Note_on_c, 0, 76, 0
2, 90720, Note_on_c, 0, 64, 0
2, 90720, Note_on_c, 0, 64, 75
2, 90720, Note_on_c, 0, 76, 75
2, 91200, Note_on_c, 0, 76, 0
2, 91200, Note_on_c, 0, 64, 0
2, 91200, Note_on_c, 0, 66, 75
2, 91200, Note_on_c, 0, 78, 75
2, 91680, Note_on_c, 0, 78, 0
2, 91680, Note_on_c, 0, 66, 0
2, 91680, Note_on_c, 0, 67, 75
2, 91680, Note_on_c, 0, 79, 75
2, 92160, Note_on_c, 0, 79, 0
2, 92160, Note_on_c, 0, 67, 0
2, 92160, Note_on_c, 0, 67, 75
2, 92160, Note_on_c, 0, 79, 75
2, 92640, Note_on_c, 0, 79, 0
2, 92640, Note_on_c, 0, 67, 0
2, 92640, Note_on_c, 0, 69, 75
2, 92640, Note_on_c, 0, 81, 75
2, 93120, Note_on_c, 0, 81, 0
2, 93120, Note_on_c, 0, 69, 0
2, 93120, Note_on_c, 0, 71, 75
2, 93120, Note_on_c, 0, 83, 75
2, 93600, Note_on_c, 0, 83, 0
2, 93600, Note_on_c, 0, 71, 0
2, 93600, Note_on_c, 0, 72, 88
2, 93600, Note_on_c, 0, 84, 88
2, 94080, Note_on_c, 0, 84, 0
2, 94080, Note_on_c, 0, 72, 0
2, 94080, Note_on_c, 0, 73, 88
2, 94080, Note_on_c, 0, 85, 88
2, 94560, Note_on_c, 0, 85, 0
2, 94560, Note_on_c, 0, 73, 0
2, 94560, Note_on_c, 0, 74, 88
2, 94560, Note_on_c, 0, 86, 88
2, 95040, Note_on_c, 0, 86, 0
2, 95040, Note_on_c, 0, 74, 0
2, 95040, Control_c, 0, 64, 127
2, 95040, Note_on_c, 0, 67, 49
2, 95040, Note_on_c, 0, 71, 49
2, 95040, Note_on_c, 0, 74, 49
2, 95040, Note_on_c, 0, 79, 49
2, 95160, Note_on_c, 0, 79, 0
2, 95160, Note_on_c, 0, 67, 0
2, 95160, Note_on_c, 0, 71, 0
2, 95160, Note_on_c, 0, 74, 0
2, 95160, Note_on_c, 0, 67, 49
2, 95160, Note_on_c, 0, 71, 49
2, 95160, Note_on_c, 0, 74, 49
2, 95280, Note_on_c, 0, 74, 0
2, 95280, Note_on_c, 0, 71, 0
2, 95280, Note_on_c, 0, 67, 0
2, 95280, Note_on_c, 0, 67, 49
2, 95280, Note_on_c, 0, 71, 49
2, 95280, Note_on_c, 0, 74, 49
2, 95400, Note_on_c, 0, 74, 0
2, 95400, Note_on_c, 0, 71, 0
2, 95400, Note_on_c, 0, 67, 0
2, 95400, Note_on_c, 0, 67, 49
2, 95400, Note_on_c, 0, 71, 49
2, 95400, Note_on_c, 0, 74, 49
2, 95520, Note_on_c, 0, 74, 0
2, 95520, Note_on_c, 0, 71, 0
2, 95520, Note_on_c, 0, 67, 0
2, 95520, Note_on_c, 0, 67, 49
2, 95520, Note_on_c, 0, 71, 49
2, 95520, Note_on_c, 0, 74, 49
2, 95640, Note_on_c, 0, 74, 0
2, 95640, Note_on_c, 0, 71, 0
2, 95640, Note_on_c, 0, 67, 0
2, 95640, Note_on_c, 0, 67, 49
2, 95640, Note_on_c, 0, 71, 49
2, 95640, Note_on_c, 0, 74, 49
2, 95760, Note_on_c, 0, 74, 0
2, 95760, Note_on_c, 0, 71, 0
2, 95760, Note_on_c, 0, 67, 0
2, 95760, Note_on_c, 0, 67, 49
2, 95760, Note_on_c, 0, 71, 49
2, 95760, Note_on_c, 0, 74, 49
2, 95880, Note_on_c, 0, 74, 0
2, 95880, Note_on_c, 0, 71, 0
2, 95880, Note_on_c, 0, 67, 0
2, 95880, Note_on_c, 0, 67, 49
2, 95880, Note_on_c, 0, 71, 49
2, 95880, Note_on_c, 0, 74, 49
2, 96000, Note_on_c, 0, 74, 0
2, 96000, Note_on_c, 0, 71, 0
2, 96000, Note_on_c, 0, 67, 0
2, 96000, Note_on_c, 0, 67, 49
2, 96000, Note_on_c, 0, 71, 49
2, 96000, Note_on_c, 0, 74, 49
2, 96120, Note_on_c, 0, 74, 0
2, 96120, Note_on_c, 0, 71, 0
2, 96120, Note_on_c, 0, 67, 0
2, 96120, Note_on_c, 0, 67, 49
2, 96120, Note_on_c, 0, 71, 49
2, 96120, Note_on_c, 0, 74, 49
2, 96240, Note_on_c, 0, 74, 0
2, 96240, Note_on_c, 0, 71, 0
2, 96240, Note_on_c, 0, 67, 0
2, 96240, Note_on_c, 0, 67, 49
2, 96240, Note_on_c, 0, 71, 49
2, 96240, Note_on_c, 0, 74, 49
2, 96360, Note_on_c, 0, 74, 0
2, 96360, Note_on_c, 0, 71, 0
2, 96360, Note_on_c, 0, 67, 0
2, 96360, Note_on_c, 0, 67, 49
2, 96360, Note_on_c, 0, 71, 49
2, 96360, Note_on_c, 0, 74, 49
2, 96480, Note_on_c, 0, 74, 0
2, 96480, Note_on_c, 0, 71, 0
2, 96480, Note_on_c, 0, 67, 0
2, 96480, Note_on_c, 0, 67, 49
2, 96480, Note_on_c, 0, 71, 49
2, 96480, Note_on_c, 0, 74, 49
2, 96600, Note_on_c, 0, 74, 0
2, 96600, Note_on_c, 0, 71, 0
2, 96600, Note_on_c, 0, 67, 0
2, 96600, Note_on_c, 0, 67, 49
2, 96600, Note_on_c, 0, 71, 49
2, 96600, Note_on_c, 0, 74, 49
2, 96720, Note_on_c, 0, 74, 0
2, 96720, Note_on_c, 0, 71, 0
2, 96720, Note_on_c, 0, 67, 0
2, 96720, Note_on_c, 0, 67, 49
2, 96720, Note_on_c, 0, 71, 49
2, 96720, Note_on_c, 0, 74, 49
2, 96840, Note_on_c, 0, 74, 0
2, 96840, Note_on_c, 0, 71, 0
2, 96840, Note_on_c, 0, 67, 0
2, 96840, Note_on_c, 0, 67, 49
2, 96840, Note_on_c, 0, 71, 49
2, 96840, Note_on_c, 0, 74, 49
2, 96960, Note_on_c, 0, 74, 0
2, 96960, Note_on_c, 0, 71, 0
2, 96960, Note_on_c, 0, 67, 0
2, 96960, Note_on_c, 0, 67, 49
2, 96960, Note_on_c, 0, 71, 49
2, 96960, Note_on_c, 0, 74, 49
2, 97080, Note_on_c, 0, 74, 0
2, 97080, Note_on_c, 0, 71, 0
2, 97080, Note_on_c, 0, 67, 0
2, 97080, Note_on_c, 0, 67, 49
2, 97080, Note_on_c, 0, 71, 49
2, 97080, Note_on_c, 0, 74, 49
2, 97200, Note_on_c, 0, 74, 0
2, 97200, Note_on_c, 0, 71, 0
2, 97200, Note_on_c, 0, 67, 0
2, 97200, Note_on_c, 0, 67, 49
2, 97200, Note_on_c, 0, 71, 49
2, 97200, Note_on_c, 0, 74, 49
2, 97320, Note_on_c, 0, 74, 0
2, 97320, Note_on_c, 0, 71, 0
2, 97320, Note_on_c, 0, 67, 0
2, 97320, Note_on_c, 0, 67, 49
2, 97320, Note_on_c, 0, 71, 49
2, 97320, Note_on_c, 0, 74, 49
2, 97440, Note_on_c, 0, 74, 0
2, 97440, Note_on_c, 0, 71, 0
2, 97440, Note_on_c, 0, 67, 0
2, 97440, Note_on_c, 0, 67, 49
2, 97440, Note_on_c, 0, 71, 49
2, 97440, Note_on_c, 0, 74, 49
2, 97560, Note_on_c, 0, 74, 0
2, 97560, Note_on_c, 0, 71, 0
2, 97560, Note_on_c, 0, 67, 0
2, 97560, Control_c, 0, 64, 0
2, 97560, Note_on_c, 0, 67, 49
2, 97560, Note_on_c, 0, 71, 49
2, 97560, Note_on_c, 0, 74, 49
2, 97680, Note_on_c, 0, 74, 0
2, 97680, Note_on_c, 0, 71, 0
2, 97680, Note_on_c, 0, 67, 0
2, 97680, Note_on_c, 0, 74, 49
2, 97800, Note_on_c, 0, 74, 0
2, 97800, Note_on_c, 0, 67, 49
2, 97800, Note_on_c, 0, 71, 49
2, 97920, Note_on_c, 0, 71, 0
2, 97920, Note_on_c, 0, 67, 0
2, 97920, Control_c, 0, 64, 127
2, 97920, Note_on_c, 0, 67, 49
2, 97920, Note_on_c, 0, 70, 49
2, 97920, Note_on_c, 0, 73, 49
2, 98040, Note_on_c, 0, 73, 0
2, 98040, Note_on_c, 0, 70, 0
2, 98040, Note_on_c, 0, 67, 0
2, 98040, Note_on_c, 0, 67, 49
2, 98040, Note_on_c, 0, 70, 49
2, 98040, Note_on_c, 0, 73, 49
2, 98160, Note_on_c, 0, 73, 0
2, 98160, Note_on_c, 0, 70, 0
2, 98160, Note_on_c, 0, 67, 0
2, 98160, Note_on_c, 0, 67, 49
2, 98160, Note_on_c, 0, 70, 49
2, 98160, Note_on_c, 0, 73, 49
2, 98280, Note_on_c, 0, 73, 0
2, 98280, Note_on_c, 0, 70, 0
2, 98280, Note_on_c, 0, 67, 0
2, 98280, Note_on_c, 0, 67, 49
2, 98280, Note_on_c, 0, 70, 49
2, 98280, Note_on_c, 0, 73, 49
2, 98400, Note_on_c, 0, 73, 0
2, 98400, Note_on_c, 0, 70, 0
2, 98400, Note_on_c, 0, 67, 0
2, 98400, Note_on_c, 0, 67, 49
2, 98400, Note_on_c, 0, 70, 49
2, 98400, Note_on_c, 0, 73, 49
2, 98520, Note_on_c, 0, 73, 0
2, 98520, Note_on_c, 0, 70, 0
2, 98520, Note_on_c, 0, 67, 0
2, 98520, Note_on_c, 0, 67, 49
2, 98520, Note_on_c, 0, 70, 49
2, 98520, Note_on_c, 0, 73, 49
2, 98640, Note_on_c, 0, 73, 0
2, 98640, Note_on_c, 0, 70, 0
2, 98640, Note_on_c, 0, 67, 0
2, 98640, Note_on_c, 0, 67, 49
2, 98640, Note_on_c, 0, 70, 49
2, 98640, Note_on_c, 0, 73, 49
2, 98760, Note_on_c, 0, 73, 0
2, 98760, Note_on_c, 0, 70, 0
2, 98760, Note_on_c, 0, 67, 0
2, 98760, Note_on_c, 0, 67, 49
2, 98760, Note_on_c, 0, 70, 49
2, 98760, Note_on_c, 0, 73, 49
2, 98880, Note_on_c, 0, 73, 0
2, 98880, Note_on_c, 0, 70, 0
2, 98880, Note_on_c, 0, 67, 0
2, 98880, Note_on_c, 0, 67, 49
2, 98880, Note_on_c, 0, 70, 49
2, 98880, Note_on_c, 0, 73, 49
2, 99000, Note_on_c, 0, 73, 0
2, 99000, Note_on_c, 0, 70, 0
2, 99000, Note_on_c, 0, 67, 0
2, 99000, Control_c, 0, 64, 0
2, 99000, Note_on_c, 0, 67, 49
2, 99000, Note_on_c, 0, 70, 49
2, 99000, Note_on_c, 0, 73, 49
2, 99120, Note_on_c, 0, 73, 0
2, 99120, Note_on_c, 0, 70, 0
2, 99120, Note_on_c, 0, 67, 0
2, 99120, Note_on_c, 0, 67, 49
2, 99240, Note_on_c, 0, 67, 0
2, 99240, Note_on_c, 0, 70, 49
2, 99240, Note_on_c, 0, 73, 49
2, 99360, Note_on_c, 0, 73, 0
2, 99360, Note_on_c, 0, 70, 0
2, 99360, Control_c, 0, 64, 127
2, 99360, Note_on_c, 0, 67, 49
2, 99360, Note_on_c, 0, 69, 49
2, 99480, Note_on_c, 0, 69, 0
2, 99480, Note_on_c, 0, 67, 0
2, 99480, Note_on_c, 0, 67, 49
2, 99480, Note_on_c, 0, 69, 49
2, 99600, Note_on_c, 0, 69, 0
2, 99600, Note_on_c, 0, 67, 0
2, 99600, Note_on_c, 0, 67, 49
2, 99600, Note_on_c, 0, 69, 49
2, 99720, Note_on_c, 0, 69, 0
2, 99720, Note_on_c, 0, 67, 0
2, 99720, Note_on_c, 0, 67, 49
2, 99720, Note_on_c, 0, 69, 49
2, 99840, Note_on_c, 0, 69, 0
2, 99840, Note_on_c, 0, 67, 0
2, 99840, Note_on_c, 0, 67, 49
2, 99840, Note_on_c, 0, 69, 49
2, 99960, Note_on_c, 0, 69, 0
2, 99960, Note_on_c, 0, 67, 0
2, 99960, Note_on_c, 0, 67, 49
2, 99960, Note_on_c, 0, 69, 49
2, 100080, Note_on_c, 0, 69, 0
2, 100080, Note_on_c, 0, 67, 0
2, 100080, Note_on_c, 0, 67, 49
2, 100080, Note_on_c, 0, 69, 49
2, 100200, Note_on_c, 0, 69, 0
2, 100200, Note_on_c, 0, 67, 0
2, 100200, Note_on_c, 0, 67, 49
2, 100200, Note_on_c, 0, 69, 49
2, 100320, Note_on_c, 0, 69, 0
2, 100320, Note_on_c, 0, 67, 0
2, 100320, Note_on_c, 0, 67, 49
2, 100320, Note_on_c, 0, 69, 49
2, 100440, Note_on_c, 0, 69, 0
2, 100440, Note_on_c, 0, 67, 0
2, 100440, Control_c, 0, 64, 0
2, 100440, Note_on_c, 0, 67, 49
2, 100440, Note_on_c, 0, 69, 49
2, 100560, Note_on_c, 0, 69, 0
2, 100560, Note_on_c, 0, 67, 0
2, 100560, Note_on_c, 0, 60, 49
2, 100680, Note_on_c, 0, 60, 0
2, 100680, Note_on_c, 0, 67, 49
2, 100680, Note_on_c, 0, 69, 49
2, 100800, Note_on_c, 0, 69, 0
2, 100800, Note_on_c, 0, 67, 0
2, 100800, Control_c, 0, 64, 127
2, 100800, Note_on_c, 0, 67, 49
2, 100800, Note_on_c, 0, 71, 49
2, 100920, Note_on_c, 0, 71, 0
2, 100920, Note_on_c, 0, 67, 0
2, 100920, Note_on_c, 0, 71, 49
2, 101040, Note_on_c, 0, 71, 0
2, 101040, Note_on_c, 0, 67, 49
2, 101040, Note_on_c, 0, 71, 49
2, 101160, Note_on_c, 0, 71, 0
2, 101160, Note_on_c, 0, 67, 0
2, 101160, Note_on_c, 0, 67, 49
2, 101160, Note_on_c, 0, 71, 49
2, 101280, Note_on_c, 0, 71, 0
2, 101280, Note_on_c, 0, 67, 0
2, 101280, Note_on_c, 0, 67, 49
2, 101280, Note_on_c, 0, 71, 49
2, 101400, Note_on_c, 0, 71, 0
2, 101400, Note_on_c, 0, 67, 0
2, 101400, Note_on_c, 0, 67, 49
2, 101400, Note_on_c, 0, 71, 49
2, 101520, Note_on_c, 0, 71, 0
2, 101520, Note_on_c, 0, 67, 0
2, 101520, Note_on_c, 0, 67, 49
2, 101520, Note_on_c, 0, 71, 49
2, 101640, Note_on_c, 0, 71, 0
2, 101640, Note_on_c, 0, 67, 0
2, 101640, Note_on_c, 0, 67, 49
2, 101640, Note_on_c, 0, 71, 49
2, 101760, Note_on_c, 0, 71, 0
2, 101760, Note_on_c, 0, 67, 0
2, 101760, Note_on_c, 0, 67, 49
2, 101760, Note_on_c, 0, 71, 49
2, 101880, Note_on_c, 0, 71, 0
2, 101880, Note_on_c, 0, 67, 0
2, 101880, Note_on_c, 0, 67, 49
2, 101880, Note_on_c, 0, 71, 49
2, 102000, Note_on_c, 0, 71, 0
2, 102000, Note_on_c, 0, 67, 0
2, 102000, Note_on_c, 0, 67, 49
2, 102000, Note_on_c, 0, 71, 49
2, 102120, Note_on_c, 0, 71, 0
2, 102120, Note_on_c, 0, 67, 0
2, 102120, Control_c, 0, 64, 0
2, 102120, Note_on_c, 0, 67, 49
2, 102120, Note_on_c, 0, 71, 49
2, 102240, Note_on_c, 0, 71, 0
2, 102240, Note_on_c, 0, 67, 0
2, 102240, Control_c, 0, 64, 127
2, 102240, Note_on_c, 0, 55, 49
2, 102240, Note_on_c, 0, 59, 49
2, 102240, Note_on_c, 0, 67, 49
2, 102360, Note_on_c, 0, 67, 0
2, 102360, Note_on_c, 0, 59, 0
2, 102360, Note_on_c, 0, 55, 0
2, 102360, Note_on_c, 0, 55, 49
2, 102360, Note_on_c, 0, 59, 49
2, 102360, Note_on_c, 0, 67, 49
2, 102480, Note_on_c, 0, 67, 0
2, 102480, Note_on_c, 0, 59, 0
2, 102480, Note_on_c, 0, 55, 0
2, 102480, Note_on_c, 0, 55, 49
2, 102480, Note_on_c, 0, 59, 49
2, 102480, Note_on_c, 0, 67, 49
2, 102600, Note_on_c, 0, 67, 0
2, 102600, Note_on_c, 0, 59, 0
2, 102600, Note_on_c, 0, 55, 0
2, 102600, Note_on_c, 0, 55, 49
2, 102600, Note_on_c, 0, 59, 49
2, 102600, Note_on_c, 0, 67, 49
2, 102720, Note_on_c, 0, 67, 0
2, 102720, Note_on_c, 0, 59, 0
2, 102720, Note_on_c, 0, 55, 0
2, 102720, Note_on_c, 0, 55, 49
2, 102720, Note_on_c, 0, 59, 49
2, 102720, Note_on_c, 0, 67, 49
2, 102840, Note_on_c, 0, 67, 0
2, 102840, Note_on_c, 0, 59, 0
2, 102840, Note_on_c, 0, 55, 0
2, 102840, Note_on_c, 0, 55, 49
2, 102840, Note_on_c, 0, 59, 49
2, 102840, Note_on_c, 0, 67, 49
2, 102960, Note_on_c, 0, 67, 0
2, 102960, Note_on_c, 0, 59, 0
2, 102960, Note_on_c, 0, 55, 0
2, 102960, Note_on_c, 0, 55, 49
2, 102960, Note_on_c, 0, 59, 49
2, 102960, Note_on_c, 0, 67, 49
2, 103080, Note_on_c, 0, 67, 0
2, 103080, Note_on_c, 0, 59, 0
2, 103080, Note_on_c, 0, 55, 0
2, 103080, Note_on_c, 0, 55, 49
2, 103080, Note_on_c, 0, 59, 49
2, 103080, Note_on_c, 0, 67, 49
2, 103200, Note_on_c, 0, 67, 0
2, 103200, Note_on_c, 0, 59, 0
2, 103200, Note_on_c, 0, 55, 0
2, 103200, Note_on_c, 0, 55, 49
2, 103200, Note_on_c, 0, 59, 49
2, 103200, Note_on_c, 0, 67, 49
2, 103320, Note_on_c, 0, 67, 0
2, 103320, Note_on_c, 0, 59, 0
2, 103320, Note_on_c, 0, 55, 0
2, 103320, Control_c, 0, 64, 0
2, 103320, Note_on_c, 0, 55, 49
2, 103320, Note_on_c, 0, 59, 49
2, 103320, Note_on_c, 0, 67, 49
2, 103440, Note_on_c, 0, 67, 0
2, 103440, Note_on_c, 0, 59, 0
2, 103440, Note_on_c, 0, 55, 0
2, 103440, Note_on_c, 0, 62, 49
2, 103560, Note_on_c, 0, 62, 0
2, 103560, Note_on_c, 0, 55, 49
2, 103560, Note_on_c, 0, 59, 49
2, 103680, Note_on_c, 0, 59, 0
2, 103680, Note_on_c, 0, 55, 0
2, 103680, Control_c, 0, 64, 127
2, 103680, Note_on_c, 0, 55, 49
2, 103680, Note_on_c, 0, 58, 49
2, 103680, Note_on_c, 0, 61, 49
2, 103800, Note_on_c, 0, 61, 0
2, 103800, Note_on_c, 0, 58, 0
2, 103800, Note_on_c, 0, 55, 0
2, 103800, Note_on_c, 0, 55, 49
2, 103800, Note_on_c, 0, 58, 49
2, 103800, Note_on_c, 0, 61, 49
2, 103920, Note_on_c, 0, 61, 0
2, 103920, Note_on_c, 0, 58, 0
2, 103920, Note_on_c, 0, 55, 0
2, 103920, Note_on_c, 0, 55, 49
2, 103920, Note_on_c, 0, 58, 49
2, 103920, Note_on_c, 0, 61, 49
2, 103920, Note_on_c, 0, 67, 49
2, 104040, Note_on_c, 0, 67, 0
2, 104040, Note_on_c, 0, 55, 0
2, 104040, Note_on_c, 0, 58, 0
2, 104040, Note_on_c, 0, 61, 0
2, 104040, Note_on_c, 0, 55, 49
2, 104040, Note_on_c, 0, 58, 49
2, 104040, Note_on_c, 0, 61, 49
2, 104040, Note_on_c, 0, 67, 49
2, 104160, Note_on_c, 0, 67, 0
2, 104160, Note_on_c, 0, 55, 0
2, 104160, Note_on_c, 0, 58, 0
2, 104160, Note_on_c, 0, 61, 0
2, 104160, Note_on_c, 0, 55, 49
2, 104160, Note_on_c, 0, 58, 49
2, 104160, Note_on_c, 0, 61, 49
2, 104160, Note_on_c, 0, 67, 49
2, 104280, Note_on_c, 0, 67, 0
2, 104280, Note_on_c, 0, 55, 0
2, 104280, Note_on_c, 0, 58, 0
2, 104280, Note_on_c, 0, 61, 0
2, 104280, Note_on_c, 0, 55, 49
2, 104280, Note_on_c, 0, 58, 49
2, 104280, Note_on_c, 0, 61, 49
2, 104280, Note_on_c, 0, 67, 49
2, 104400, Note_on_c, 0, 67, 0
2, 104400, Note_on_c, 0, 55, 0
2, 104400, Note_on_c, 0, 58, 0
2, 104400, Note_on_c, 0, 61, 0
2, 104400, Note_on_c, 0, 55, 49
2, 104400, Note_on_c, 0, 58, 49
2, 104400, Note_on_c, 0, 61, 49
2, 104400, Note_on_c, 0, 67, 49
2, 104520, Note_on_c, 0, 67, 0
2, 104520, Note_on_c, 0, 55, 0
2, 104520, Note_on_c, 0, 58, 0
2, 104520, Note_on_c, 0, 61, 0
2, 104520, Note_on_c, 0, 55, 49
2, 104520, Note_on_c, 0, 58, 49
2, 104520, Note_on_c, 0, 61, 49
2, 104520, Note_on_c, 0, 67, 49
2, 104640, Note_on_c, 0, 67, 0
2, 104640, Note_on_c, 0, 55, 0
2, 104640, Note_on_c, 0, 58, 0
2, 104640, Note_on_c, 0, 61, 0
2, 104640, Note_on_c, 0, 55, 49
2, 104640, Note_on_c, 0, 58, 49
2, 104640, Note_on_c, 0, 61, 49
2, 104640, Note_on_c, 0, 67, 49
2, 104760, Note_on_c, 0, 67, 0
2, 104760, Note_on_c, 0, 55, 0
2, 104760, Note_on_c, 0, 58, 0
2, 104760, Note_on_c, 0, 61, 0
2, 104760, Control_c, 0, 64, 0
2, 104760, Note_on_c, 0, 55, 49
2, 104760, Note_on_c, 0, 58, 49
2, 104760, Note_on_c, 0, 61, 49
2, 104760, Note_on_c, 0, 67, 49
2, 104880, Note_on_c, 0, 67, 0
2, 104880, Note_on_c, 0, 55, 0
2, 104880, Note_on_c, 0, 58, 0
2, 104880, Note_on_c, 0, 61, 0
2, 104880, Note_on_c, 0, 55, 49
2, 105000, Note_on_c, 0, 55, 0
2, 105000, Note_on_c, 0, 58, 49
2, 105000, Note_on_c, 0, 61, 49
2, 105120, Note_on_c, 0, 61, 0
2, 105120, Note_on_c, 0, 58, 0
2, 105120, Control_c, 0, 64, 127
2, 105120, Note_on_c, 0, 55, 49
2, 105120, Note_on_c, 0, 57, 49
2, 105240, Note_on_c, 0, 57, 0
2, 105240, Note_on_c, 0, 55, 0
2, 105240, Note_on_c, 0, 55, 49
2, 105240, Note_on_c, 0, 57, 49
2, 105360, Note_on_c, 0, 57, 0
2, 105360, Note_on_c, 0, 55, 0
2, 105360, Note_on_c, 0, 55, 49
2, 105360, Note_on_c, 0, 57, 49
2, 105360, Note_on_c, 0, 60, 49
2, 105360, Note_on_c, 0, 67, 49
2, 105480, Note_on_c, 0, 67, 0
2, 105480, Note_on_c, 0, 55, 0
2, 105480, Note_on_c, 0, 57, 0
2, 105480, Note_on_c, 0, 60, 0
2, 105480, Note_on_c, 0, 55, 49
2, 105480, Note_on_c, 0, 57, 49
2, 105480, Note_on_c, 0, 60, 49
2, 105480, Note_on_c, 0, 67, 49
2, 105600, Note_on_c, 0, 67, 0
2, 105600, Note_on_c, 0, 55, 0
2, 105600, Note_on_c, 0, 57, 0
2, 105600, Note_on_c, 0, 60, 0
2, 105600, Note_on_c, 0, 55, 49
2, 105600, Note_on_c, 0, 57, 49
2, 105600, Note_on_c, 0, 60, 49
2, 105600, Note_on_c, 0, 67, 49
2, 105720, Note_on_c, 0, 67, 0
2, 105720, Note_on_c, 0, 55, 0
2, 105720, Note_on_c, 0, 57, 0
2, 105720, Note_on_c, 0, 60, 0
2, 105720, Note_on_c, 0, 55, 49
2, 105720, Note_on_c, 0, 57, 49
2, 105720, Note_on_c, 0, 60, 49
2, 105720, Note_on_c, 0, 67, 49
2, 105840, Note_on_c, 0, 67, 0
2, 105840, Note_on_c, 0, 55, 0
2, 105840, Note_on_c, 0, 57, 0
2, 105840, Note_on_c, 0, 60, 0
2, 105840, Note_on_c, 0, 55, 49
2, 105840, Note_on_c, 0, 57, 49
2, 105840, Note_on_c, 0, 60, 49
2, 105840, Note_on_c, 0, 67, 49
2, 105960, Note_on_c, 0, 67, 0
2, 105960, Note_on_c, 0, 55, 0
2, 105960, Note_on_c, 0, 57, 0
2, 105960, Note_on_c, 0, 60, 0
2, 105960, Note_on_c, 0, 55, 49
2, 105960, Note_on_c, 0, 57, 49
2, 105960, Note_on_c, 0, 60, 49
2, 105960, Note_on_c, 0, 67, 49
2, 106080, Note_on_c, 0, 67, 0
2, 106080, Note_on_c, 0, 55, 0
2, 106080, Note_on_c, 0, 57, 0
2, 106080, Note_on_c, 0, 60, 0
2, 106080, Note_on_c, 0, 55, 49
2, 106080, Note_on_c, 0, 57, 49
2, 106080, Note_on_c, 0, 60, 49
2, 106080, Note_on_c, 0, 67, 49
2, 106200, Note_on_c, 0, 67, 0
2, 106200, Note_on_c, 0, 55, 0
2, 106200, Note_on_c, 0, 57, 0
2, 106200, Note_on_c, 0, 60, 0
2, 106200, Control_c, 0, 64, 0
2, 106200, Note_on_c, 0, 55, 49
2, 106200, Note_on_c, 0, 57, 49
2, 106200, Note_on_c, 0, 60, 49
2, 106200, Note_on_c, 0, 67, 49
2, 106320, Note_on_c, 0, 67, 0
2, 106320, Note_on_c, 0, 55, 0
2, 106320, Note_on_c, 0, 57, 0
2, 106320, Note_on_c, 0, 60, 0
2, 106320, Note_on_c, 0, 48, 49
2, 106440, Note_on_c, 0, 48, 0
2, 106440, Note_on_c, 0, 55, 49
2, 106440, Note_on_c, 0, 57, 49
2, 106560, Note_on_c, 0, 57, 0
2, 106560, Note_on_c, 0, 55, 0
2, 106560, Note_on_c, 0, 50, 49
2, 106560, Note_on_c, 0, 55, 49
2, 106560, Note_on_c, 0, 59, 49
2, 106800, Note_on_c, 0, 59, 0
2, 106800, Note_on_c, 0, 55, 0
2, 106800, Note_on_c, 0, 50, 0
2, 106800, Control_c, 0, 64, 127
2, 106800, Note_on_c, 0, 43, 62
2, 106860, Note_on_c, 0, 43, 0
2, 106860, Note_on_c, 0, 47, 62
2, 106920, Note_on_c, 0, 47, 0
2, 106920, Note_on_c, 0, 50, 62
2, 106980, Note_on_c, 0, 50, 0
2, 106980, Note_on_c, 0, 55, 62
2, 107040, Note_on_c, 0, 55, 0
2, 107040, Note_on_c, 0, 59, 62
2, 107087, Note_on_c, 0, 59, 0
2, 107087, Note_on_c, 0, 62, 62
2, 107136, Note_on_c, 0, 62, 0
2, 107136, Note_on_c, 0, 67, 62
2, 107183, Note_on_c, 0, 67, 0
2, 107183, Note_on_c, 0, 71, 62
2, 107232, Note_on_c, 0, 71, 0
2, 107232, Note_on_c, 0, 74, 62
2, 107280, Note_on_c, 0, 74, 0
2, 107280, Note_on_c, 0, 79, 62
2, 107360, Note_on_c, 0, 79, 0
2, 107360, Note_on_c, 0, 74, 62
2, 107439, Note_on_c, 0, 74, 0
2, 107439, Note_on_c, 0, 71, 62
2, 107520, Note_on_c, 0, 71, 0
2, 107520, Note_on_c, 0, 67, 62
2, 107600, Note_on_c, 0, 67, 0
2, 107600, Note_on_c, 0, 62, 62
2, 107679, Note_on_c, 0, 62, 0
2, 107679, Note_on_c, 0, 59, 62
2, 107760, Note_on_c, 0, 59, 0
2, 107760, Note_on_c, 0, 55, 62
2, 107840, Note_on_c, 0, 55, 0
2, 107840, Note_on_c, 0, 50, 62
2, 107919, Note_on_c, 0, 50, 0
2, 107919, Control_c, 0, 64, 0
2, 107919, Note_on_c, 0, 47, 62
2, 108000, Note_on_c, 0, 47, 0
2, 108000, Control_c, 0, 64, 127
2, 108000, Note_on_c, 0, 43, 62
2, 108060, Note_on_c, 0, 43, 0
2, 108060, Note_on_c, 0, 47, 62
2, 108120, Note_on_c, 0, 47, 0
2, 108120, Note_on_c, 0, 50, 62
2, 108180, Note_on_c, 0, 50, 0
2, 108180, Note_on_c, 0, 55, 62
2, 108240, Note_on_c, 0, 55, 0
2, 108240, Note_on_c, 0, 59, 62
2, 108320, Note_on_c, 0, 59, 0
2, 108320, Note_on_c, 0, 62, 62
2, 108399, Note_on_c, 0, 62, 0
2, 108399, Note_on_c, 0, 67, 62
2, 108480, Note_on_c, 0, 67, 0
2, 108480, Note_on_c, 0, 71, 62
2, 108560, Note_on_c, 0, 71, 0
2, 108560, Note_on_c, 0, 74, 62
2, 108639, Note_on_c, 0, 74, 0
2, 108639, Note_on_c, 0, 79, 62
2, 108720, Note_on_c, 0, 79, 0
2, 108720, Note_on_c, 0, 83, 62
2, 108800, Note_on_c, 0, 83, 0
2, 108800, Note_on_c, 0, 79, 62
2, 108879, Note_on_c, 0, 79, 0
2, 108879, Note_on_c, 0, 74, 62
2, 108960, Note_on_c, 0, 74, 0
2, 108960, Note_on_c, 0, 71, 62
2, 109040, Note_on_c, 0, 71, 0
2, 109040, Note_on_c, 0, 67, 62
2, 109119, Note_on_c, 0, 67, 0
2, 109119, Note_on_c, 0, 62, 62
2, 109200, Note_on_c, 0, 62, 0
2, 109200, Note_on_c, 0, 59, 62
2, 109260, Note_on_c, 0, 59, 0
2, 109260, Note_on_c, 0, 55, 62
2, 109320, Note_on_c, 0, 55, 0
2, 109320, Note_on_c, 0, 50, 62
2, 109380, Note_on_c, 0, 50, 0
2, 109380, Control_c, 0, 64, 0
2, 109380, Note_on_c, 0, 47, 62
2, 109440, Note_on_c, 0, 47, 0
2, 109440, Control_c, 0, 64, 127
2, 109440, Note_on_c, 0, 43, 62
2, 109500, Note_on_c, 0, 43, 0
2, 109500, Note_on_c, 0, 47, 62
2, 109560, Note_on_c, 0, 47, 0
2, 109560, Note_on_c, 0, 50, 62
2, 109620, Note_on_c, 0, 50, 0
2, 109620, Note_on_c, 0, 55, 62
2, 109680, Note_on_c, 0, 55, 0
2, 109680, Note_on_c, 0, 59, 62
2, 109740, Note_on_c, 0, 59, 0
2, 109740, Note_on_c, 0, 62, 62
2, 109800, Note_on_c, 0, 62, 0
2, 109800, Note_on_c, 0, 67, 62
2, 109860, Note_on_c, 0, 67, 0
2, 109860, Note_on_c, 0, 71, 62
2, 109920, Note_on_c, 0, 71, 0
2, 109920, Note_on_c, 0, 74, 62
2, 110000, Note_on_c, 0, 74, 0
2, 110000, Note_on_c, 0, 79, 62
2, 110079, Note_on_c, 0, 79, 0
2, 110079, Note_on_c, 0, 83, 62
2, 110160, Note_on_c, 0, 83, 0
2, 110160, Note_on_c, 0, 86, 62
2, 110240, Note_on_c, 0, 86, 0
2, 110240, Note_on_c, 0, 83, 62
2, 110319, Note_on_c, 0, 83, 0
2, 110319, Note_on_c, 0, 79, 62
2, 110400, Note_on_c, 0, 79, 0
2, 110400, Note_on_c, 0, 74, 62
2, 110460, Note_on_c, 0, 74, 0
2, 110460, Note_on_c, 0, 71, 62
2, 110520, Note_on_c, 0, 71, 0
2, 110520, Note_on_c, 0, 67, 62
2, 110580, Note_on_c, 0, 67, 0
2, 110580, Note_on_c, 0, 62, 62
2, 110640, Note_on_c, 0, 62, 0
2, 110640, Note_on_c, 0, 59, 62
2, 110700, Note_on_c, 0, 59, 0
2, 110700, Note_on_c, 0, 55, 62
2, 110760, Note_on_c, 0, 55, 0
2, 110760, Note_on_c, 0, 50, 62
2, 110820, Note_on_c, 0, 50, 0
2, 110820, Control_c, 0, 64, 0
2, 110820, Note_on_c, 0, 47, 62
2, 110880, Note_on_c, 0, 47, 0
2, 110880, Control_c, 0, 64, 127
2, 110880, Note_on_c, 0, 43, 62
2, 110940, Note_on_c, 0, 43, 0
2, 110940, Note_on_c, 0, 47, 62
2, 111000, Note_on_c, 0, 47, 0
2, 111000, Note_on_c, 0, 50, 62
2, 111060, Note_on_c, 0, 50, 0
2, 111060, Note_on_c, 0, 55, 62
2, 111120, Note_on_c, 0, 55, 0
2, 111120, Note_on_c, 0, 59, 62
2, 111180, Note_on_c, 0, 59, 0
2, 111180, Note_on_c, 0, 62, 62
2, 111240, Note_on_c, 0, 62, 0
2, 111240, Note_on_c, 0, 67, 62
2, 111300, Note_on_c, 0, 67, 0
2, 111300, Note_on_c, 0, 71, 62
2, 111360, Note_on_c, 0, 71, 0
2, 111360, Note_on_c, 0, 74, 62
2, 111420, Note_on_c, 0, 74, 0
2, 111420, Note_on_c, 0, 79, 62
2, 111480, Note_on_c, 0, 79, 0
2, 111480, Note_on_c, 0, 83, 62
2, 111540, Note_on_c, 0, 83, 0
2, 111540, Note_on_c, 0, 86, 62
2, 111600, Note_on_c, 0, 86, 0
2, 111600, Note_on_c, 0, 91, 62
2, 111660, Note_on_c, 0, 91, 0
2, 111660, Note_on_c, 0, 86, 62
2, 111720, Note_on_c, 0, 86, 0
2, 111720, Note_on_c, 0, 83, 62
2, 111780, Note_on_c, 0, 83, 0
2, 111780, Note_on_c, 0, 79, 62
2, 111840, Note_on_c, 0, 79, 0
2, 111840, Note_on_c, 0, 74, 62
2, 111900, Note_on_c, 0, 74, 0
2, 111900, Note_on_c, 0, 71, 62
2, 111960, Note_on_c, 0, 71, 0
2, 111960, Note_on_c, 0, 67, 62
2, 112020, Note_on_c, 0, 67, 0
2, 112020, Note_on_c, 0, 62, 62
2, 112080, Note_on_c, 0, 62, 0
2, 112080, Note_on_c, 0, 59, 62
2, 112140, Note_on_c, 0, 59, 0
2, 112140, Note_on_c, 0, 55, 62
2, 112200, Note_on_c, 0, 55, 0
2, 112200, Note_on_c, 0, 50, 62
2, 112260, Note_on_c, 0, 50, 0
2, 112260, Control_c, 0, 64, 0
2, 112260, Note_on_c, 0, 47, 62
2, 112320, Note_on_c, 0, 47, 0
2, 112320, Note_on_c, 0, 59, 62
2, 112320, Note_on_c, 0, 62, 62
2, 112320, Note_on_c, 0, 67, 62
2, 112320, Note_on_c, 0, 71, 62
2, 112416, Note_on_c, 0, 71, 0
2, 112416, Note_on_c, 0, 59, 0
2, 112416, Note_on_c, 0, 62, 0
2, 112416, Note_on_c, 0, 67, 0
2, 112800, Control_c, 0, 64, 127
2, 115680, Control_c, 0, 64, 0
2, 115680, End_track
3, 0, Start_track
3, 0, Title_t, "Grand Piano"
3, 0, Program_c, 0, 0
3, 0, Control_c, 0, 7, 115
3, 0, Control_c, 0, 10, 78
3, 720, Control_c, 0, 64, 127
3, 720, Note_on_c, 0, 43, 75
3, 750, Note_on_c, 0, 43, 0
3, 750, Note_on_c, 0, 47, 75
3, 780, Note_on_c, 0, 47, 0
3, 780, Note_on_c, 0, 50, 75
3, 810, Note_on_c, 0, 50, 0
3, 810, Note_on_c, 0, 55, 75
3, 840, Note_on_c, 0, 55, 0
3, 840, Note_on_c, 0, 59, 75
3, 870, Note_on_c, 0, 59, 0
3, 870, Note_on_c, 0, 62, 75
3, 900, Note_on_c, 0, 62, 0
3, 900, Note_on_c, 0, 67, 75
3, 930, Note_on_c, 0, 67, 0
3, 930, Note_on_c, 0, 71, 75
3, 960, Note_on_c, 0, 71, 0
3, 960, Note_on_c, 0, 74, 75
3, 1040, Note_on_c, 0, 74, 0
3, 1040, Note_on_c, 0, 79, 75
3, 1119, Note_on_c, 0, 79, 0
3, 1119, Note_on_c, 0, 83, 75
3, 1200, Note_on_c, 0, 83, 0
3, 1200, Note_on_c, 0, 86, 75
3, 1280, Note_on_c, 0, 86, 0
3, 1280, Note_on_c, 0, 91, 75
3, 1359, Note_on_c, 0, 91, 0
3, 1359, Note_on_c, 0, 95, 75
3, 1440, Note_on_c, 0, 95, 0
3, 1440, Note_on_c, 0, 98, 75
3, 1500, Note_on_c, 0, 98, 0
3, 1500, Note_on_c, 0, 95, 75
3, 1560, Note_on_c, 0, 95, 0
3, 1560, Note_on_c, 0, 91, 75
3, 1620, Note_on_c, 0, 91, 0
3, 1620, Note_on_c, 0, 86, 75
3, 1680, Note_on_c, 0, 86, 0
3, 1680, Note_on_c, 0, 83, 75
3, 1740, Note_on_c, 0, 83, 0
3, 1740, Note_on_c, 0, 79, 75
3, 1800, Note_on_c, 0, 79, 0
3, 1800, Note_on_c, 0, 74, 75
3, 1860, Note_on_c, 0, 74, 0
3, 1860, Note_on_c, 0, 71, 75
3, 1920, Note_on_c, 0, 71, 0
3, 1920, Note_on_c, 0, 67, 75
3, 2000, Note_on_c, 0, 67, 0
3, 2000, Note_on_c, 0, 62, 75
3, 2079, Note_on_c, 0, 62, 0
3, 2079, Note_on_c, 0, 59, 75
3, 2160, Note_on_c, 0, 59, 0
3, 2160, Note_on_c, 0, 55, 75
3, 2240, Note_on_c, 0, 55, 0
3, 2240, Note_on_c, 0, 50, 75
3, 2319, Note_on_c, 0, 50, 0
3, 2319, Note_on_c, 0, 47, 75
3, 2400, Note_on_c, 0, 47, 0
3, 2400, Control_c, 0, 64, 0
3, 2400, Note_on_c, 0, 43, 75
3, 2640, Note_on_c, 0, 43, 0
3, 2880, Control_c, 0, 64, 127
3, 2880, Note_on_c, 0, 71, 49
3, 2880, Note_on_c, 0, 74, 49
3, 3000, Note_on_c, 0, 74, 0
3, 3000, Note_on_c, 0, 71, 0
3, 3000, Note_on_c, 0, 71, 49
3, 3000, Note_on_c, 0, 74, 49
3, 3120, Note_on_c, 0, 74, 0
3, 3120, Note_on_c, 0, 71, 0
3, 3120, Note_on_c, 0, 71, 49
3, 3120, Note_on_c, 0, 74, 49
3, 3240, Note_on_c, 0, 74, 0
3, 3240, Note_on_c, 0, 71, 0
3, 3240, Note_on_c, 0, 71, 49
3, 3240, Note_on_c, 0, 74, 49
3, 3360, Note_on_c, 0, 74, 0
3, 3360, Note_on_c, 0, 71, 0
3, 3360, Note_on_c, 0, 71, 49
3, 3360, Note_on_c, 0, 74, 49
3, 3480, Note_on_c, 0, 74, 0
3, 3480, Note_on_c, 0, 71, 0
3, 3480, Note_on_c, 0, 71, 49
3, 3480, Note_on_c, 0, 74, 49
3, 3600, Note_on_c, 0, 74, 0
3, 3600, Note_on_c, 0, 71, 0
3, 3600, Note_on_c, 0, 71, 49
3, 3600, Note_on_c, 0, 74, 49
3, 3720, Note_on_c, 0, 74, 0
3, 3720, Note_on_c, 0, 71, 0
3, 3720, Control_c, 0, 64, 0
3, 3720, Note_on_c, 0, 71, 49
3, 3720, Note_on_c, 0, 74, 49
3, 3840, Note_on_c, 0, 74, 0
3, 3840, Note_on_c, 0, 71, 0
3, 3840, Control_c, 0, 64, 127
3, 3840, Note_on_c, 0, 67, 49
3, 3840, Note_on_c, 0, 71, 49
3, 3960, Note_on_c, 0, 71, 0
3, 3960, Note_on_c, 0, 67, 0
3, 3960, Note_on_c, 0, 67, 49
3, 3960, Note_on_c, 0, 71, 49
3, 4080, Note_on_c, 0, 71, 0
3, 4080, Note_on_c, 0, 67, 0
3, 4080, Note_on_c, 0, 67, 49
3, 4080, Note_on_c, 0, 71, 49
3, 4200, Note_on_c, 0, 71, 0
3, 4200, Note_on_c, 0, 67, 0
3, 4200, Note_on_c, 0, 67, 49
3, 4200, Note_on_c, 0, 71, 49
3, 4320, Note_on_c, 0, 71, 0
3, 4320, Note_on_c, 0, 67, 0
3, 4320, Note_on_c, 0, 67, 49
3, 4320, Note_on_c, 0, 71, 49
3, 4440, Note_on_c, 0, 71, 0
3, 4440, Note_on_c, 0, 67, 0
3, 4440, Note_on_c, 0, 67, 49
3, 4440, Note_on_c, 0, 71, 49
3, 4560, Note_on_c, 0, 71, 0
3, 4560, Note_on_c, 0, 67, 0
3, 4560, Note_on_c, 0, 67, 49
3, 4560, Note_on_c, 0, 71, 49
3, 4680, Note_on_c, 0, 71, 0
3, 4680, Note_on_c, 0, 67, 0
3, 4680, Note_on_c, 0, 67, 49
3, 4680, Note_on_c, 0, 71, 49
3, 4800, Note_on_c, 0, 71, 0
3, 4800, Note_on_c, 0, 67, 0
3, 4800, Note_on_c, 0, 67, 49
3, 4800, Note_on_c, 0, 71, 49
3, 4920, Note_on_c, 0, 71, 0
3, 4920, Note_on_c, 0, 67, 0
3, 4920, Note_on_c, 0, 67, 49
3, 4920, Note_on_c, 0, 71, 49
3, 5040, Note_on_c, 0, 71, 0
3, 5040, Note_on_c, 0, 67, 0
3, 5040, Note_on_c, 0, 67, 49
3, 5040, Note_on_c, 0, 71, 49
3, 5160, Note_on_c, 0, 71, 0
3, 5160, Note_on_c, 0, 67, 0
3, 5160, Control_c, 0, 64, 0
3, 5160, Note_on_c, 0, 67, 49
3, 5160, Note_on_c, 0, 71, 49
3, 5280, Note_on_c, 0, 71, 0
3, 5280, Note_on_c, 0, 67, 0
3, 5280, Control_c, 0, 64, 127
3, 5280, Note_on_c, 0, 71, 49
3, 5280, Note_on_c, 0, 74, 49
3, 5400, Note_on_c, 0, 74, 0
3, 5400, Note_on_c, 0, 71, 0
3, 5400, Note_on_c, 0, 71, 49
3, 5400, Note_on_c, 0, 74, 49
3, 5520, Note_on_c, 0, 74, 0
3, 5520, Note_on_c, 0, 71, 0
3, 5520, Note_on_c, 0, 71, 49
3, 5520, Note_on_c, 0, 74, 49
3, 5640, Note_on_c, 0, 74, 0
3, 5640, Note_on_c, 0, 71, 0
3, 5640, Note_on_c, 0, 71, 49
3, 5640, Note_on_c, 0, 74, 49
3, 5760, Note_on_c, 0, 74, 0
3, 5760, Note_on_c, 0, 71, 0
3, 5760, Note_on_c, 0, 71, 49
3, 5760, Note_on_c, 0, 74, 49
3, 5880, Note_on_c, 0, 74, 0
3, 5880, Note_on_c, 0, 71, 0
3, 5880, Note_on_c, 0, 71, 49
3, 5880, Note_on_c, 0, 74, 49
3, 6000, Note_on_c, 0, 74, 0
3, 6000, Note_on_c, 0, 71, 0
3, 6000, Note_on_c, 0, 71, 49
3, 6000, Note_on_c, 0, 74, 49
3, 6120, Note_on_c, 0, 74, 0
3, 6120, Note_on_c, 0, 71, 0
3, 6120, Note_on_c, 0, 71, 49
3, 6120, Note_on_c, 0, 74, 49
3, 6240, Note_on_c, 0, 74, 0
3, 6240, Note_on_c, 0, 71, 0
3, 6240, Note_on_c, 0, 71, 49
3, 6240, Note_on_c, 0, 74, 49
3, 6360, Note_on_c, 0, 74, 0
3, 6360, Note_on_c, 0, 71, 0
3, 6360, Note_on_c, 0, 71, 49
3, 6360, Note_on_c, 0, 74, 49
3, 6480, Note_on_c, 0, 74, 0
3, 6480, Note_on_c, 0, 71, 0
3, 6480, Note_on_c, 0, 71, 49
3, 6480, Note_on_c, 0, 74, 49
3, 6600, Note_on_c, 0, 74, 0
3, 6600, Note_on_c, 0, 71, 0
3, 6600, Control_c, 0, 64, 0
3, 6600, Note_on_c, 0, 71, 49
3, 6600, Note_on_c, 0, 74, 49
3, 6720, Note_on_c, 0, 74, 0
3, 6720, Note_on_c, 0, 71, 0
3, 6720, Control_c, 0, 64, 127
3, 6720, Note_on_c, 0, 67, 49
3, 6720, Note_on_c, 0, 71, 49
3, 6840, Note_on_c, 0, 71, 0
3, 6840, Note_on_c, 0, 67, 0
3, 6840, Note_on_c, 0, 67, 49
3, 6840, Note_on_c, 0, 71, 49
3, 6960, Note_on_c, 0, 71, 0
3, 6960, Note_on_c, 0, 67, 0
3, 6960, Note_on_c, 0, 67, 49
3, 6960, Note_on_c, 0, 71, 49
3, 7080, Note_on_c, 0, 71, 0
3, 7080, Note_on_c, 0, 67, 0
3, 7080, Control_c, 0, 64, 0
3, 7080, Note_on_c, 0, 67, 49
3, 7080, Note_on_c, 0, 71, 49
3, 7200, Note_on_c, 0, 71, 0
3, 7200, Note_on_c, 0, 67, 0
3, 7200, Control_c, 0, 64, 127
3, 7200, Note_on_c, 0, 64, 49
3, 7200, Note_on_c, 0, 69, 49
3, 7320, Note_on_c, 0, 69, 0
3, 7320, Note_on_c, 0, 64, 0
3, 7320, Note_on_c, 0, 64, 49
3, 7320, Note_on_c, 0, 69, 49
3, 7440, Note_on_c, 0, 69, 0
3, 7440, Note_on_c, 0, 64, 0
3, 7440, Note_on_c, 0, 64, 49
3, 7440, Note_on_c, 0, 69, 49
3, 7560, Note_on_c, 0, 69, 0
3, 7560, Note_on_c, 0, 64, 0
3, 7560, Note_on_c, 0, 64, 49
3, 7560, Note_on_c, 0, 69, 49
3, 7680, Note_on_c, 0, 69, 0
3, 7680, Note_on_c, 0, 64, 0
3, 7680, Note_on_c, 0, 64, 49
3, 7680, Note_on_c, 0, 69, 49
3, 7800, Note_on_c, 0, 69, 0
3, 7800, Note_on_c, 0, 64, 0
3, 7800, Note_on_c, 0, 64, 49
3, 7800, Note_on_c, 0, 69, 49
3, 7920, Note_on_c, 0, 69, 0
3, 7920, Note_on_c, 0, 64, 0
3, 7920, Note_on_c, 0, 64, 49
3, 7920, Note_on_c, 0, 69, 49
3, 8040, Note_on_c, 0, 69, 0
3, 8040, Note_on_c, 0, 64, 0
3, 8040, Note_on_c, 0, 64, 49
3, 8040, Note_on_c, 0, 69, 49
3, 8160, Note_on_c, 0, 69, 0
3, 8160, Note_on_c, 0, 64, 0
3, 8160, Note_on_c, 0, 64, 49
3, 8160, Note_on_c, 0, 69, 49
3, 8280, Note_on_c, 0, 69, 0
3, 8280, Note_on_c, 0, 64, 0
3, 8280, Note_on_c, 0, 64, 49
3, 8280, Note_on_c, 0, 69, 49
3, 8400, Note_on_c, 0, 69, 0
3, 8400, Note_on_c, 0, 64, 0
3, 8400, Note_on_c, 0, 64, 49
3, 8400, Note_on_c, 0, 69, 49
3, 8520, Note_on_c, 0, 69, 0
3, 8520, Note_on_c, 0, 64, 0
3, 8520, Control_c, 0, 64, 0
3, 8520, Note_on_c, 0, 64, 49
3, 8520, Note_on_c, 0, 69, 49
3, 8640, Note_on_c, 0, 69, 0
3, 8640, Note_on_c, 0, 64, 0
3, 8640, Control_c, 0, 64, 127
3, 8640, Note_on_c, 0, 60, 49
3, 8640, Note_on_c, 0, 66, 49
3, 8760, Note_on_c, 0, 66, 0
3, 8760, Note_on_c, 0, 60, 0
3, 8760, Note_on_c, 0, 60, 49
3, 8760, Note_on_c, 0, 66, 49
3, 8880, Note_on_c, 0, 66, 0
3, 8880, Note_on_c, 0, 60, 0
3, 8880, Note_on_c, 0, 60, 49
3, 8880, Note_on_c, 0, 66, 49
3, 9000, Note_on_c, 0, 66, 0
3, 9000, Note_on_c, 0, 60, 0
3, 9000, Note_on_c, 0, 60, 49
3, 9000, Note_on_c, 0, 66, 49
3, 9120, Note_on_c, 0, 66, 0
3, 9120, Note_on_c, 0, 60, 0
3, 9120, Note_on_c, 0, 60, 49
3, 9120, Note_on_c, 0, 66, 49
3, 9240, Note_on_c, 0, 66, 0
3, 9240, Note_on_c, 0, 60, 0
3, 9240, Note_on_c, 0, 60, 49
3, 9240, Note_on_c, 0, 66, 49
3, 9360, Note_on_c, 0, 66, 0
3, 9360, Note_on_c, 0, 60, 0
3, 9360, Note_on_c, 0, 60, 49
3, 9360, Note_on_c, 0, 66, 49
3, 9480, Note_on_c, 0, 66, 0
3, 9480, Note_on_c, 0, 60, 0
3, 9480, Note_on_c, 0, 60, 49
3, 9480, Note_on_c, 0, 66, 49
3, 9600, Note_on_c, 0, 66, 0
3, 9600, Note_on_c, 0, 60, 0
3, 9600, Note_on_c, 0, 60, 49
3, 9600, Note_on_c, 0, 66, 49
3, 9720, Note_on_c, 0, 66, 0
3, 9720, Note_on_c, 0, 60, 0
3, 9720, Note_on_c, 0, 60, 49
3, 9720, Note_on_c, 0, 66, 49
3, 9840, Note_on_c, 0, 66, 0
3, 9840, Note_on_c, 0, 60, 0
3, 9840, Note_on_c, 0, 60, 49
3, 9840, Note_on_c, 0, 66, 49
3, 9960, Note_on_c, 0, 66, 0
3, 9960, Note_on_c, 0, 60, 0
3, 9960, Note_on_c, 0, 60, 49
3, 9960, Note_on_c, 0, 66, 49
3, 10080, Note_on_c, 0, 66, 0
3, 10080, Note_on_c, 0, 60, 0
3, 10080, Note_on_c, 0, 60, 49
3, 10080, Note_on_c, 0, 66, 49
3, 10200, Note_on_c, 0, 66, 0
3, 10200, Note_on_c, 0, 60, 0
3, 10200, Note_on_c, 0, 60, 49
3, 10200, Note_on_c, 0, 66, 49
3, 10320, Note_on_c, 0, 66, 0
3, 10320, Note_on_c, 0, 60, 0
3, 10320, Note_on_c, 0, 60, 49
3, 10320, Note_on_c, 0, 66, 49
3, 10440, Note_on_c, 0, 66, 0
3, 10440, Note_on_c, 0, 60, 0
3, 10440, Control_c, 0, 64, 0
3, 10440, Note_on_c, 0, 60, 49
3, 10440, Note_on_c, 0, 66, 49
3, 10560, Note_on_c, 0, 66, 0
3, 10560, Note_on_c, 0, 60, 0
3, 10560, Control_c, 0, 64, 127
3, 10560, Note_on_c, 0, 66, 49
3, 10560, Note_on_c, 0, 69, 49
3, 10680, Note_on_c, 0, 69, 0
3, 10680, Note_on_c, 0, 66, 0
3, 10680, Note_on_c, 0, 66, 49
3, 10680, Note_on_c, 0, 69, 49
3, 10800, Note_on_c, 0, 69, 0
3, 10800, Note_on_c, 0, 66, 0
3, 10800, Note_on_c, 0, 66, 49
3, 10800, Note_on_c, 0, 69, 49
3, 10920, Note_on_c, 0, 69, 0
3, 10920, Note_on_c, 0, 66, 0
3, 10920, Note_on_c, 0, 66, 49
3, 10920, Note_on_c, 0, 69, 49
3, 11040, Note_on_c, 0, 69, 0
3, 11040, Note_on_c, 0, 66, 0
3, 11040, Note_on_c, 0, 66, 49
3, 11040, Note_on_c, 0, 69, 49
3, 11160, Note_on_c, 0, 69, 0
3, 11160, Note_on_c, 0, 66, 0
3, 11160, Note_on_c, 0, 66, 49
3, 11160, Note_on_c, 0, 69, 49
3, 11280, Note_on_c, 0, 69, 0
3, 11280, Note_on_c, 0, 66, 0
3, 11280, Note_on_c, 0, 66, 49
3, 11280, Note_on_c, 0, 69, 49
3, 11400, Note_on_c, 0, 69, 0
3, 11400, Note_on_c, 0, 66, 0
3, 11400, Control_c, 0, 64, 0
3, 11400, Note_on_c, 0, 66, 49
3, 11400, Note_on_c, 0, 69, 49
3, 11520, Note_on_c, 0, 69, 0
3, 11520, Note_on_c, 0, 66, 0
3, 11520, Control_c, 0, 64, 127
3, 11520, Note_on_c, 0, 66, 49
3, 11520, Note_on_c, 0, 69, 49
3, 11640, Note_on_c, 0, 69, 0
3, 11640, Note_on_c, 0, 66, 0
3, 11640, Note_on_c, 0, 66, 49
3, 11640, Note_on_c, 0, 69, 49
3, 11760, Note_on_c, 0, 69, 0
3, 11760, Note_on_c, 0, 66, 0
3, 11760, Note_on_c, 0, 66, 49
3, 11760, Note_on_c, 0, 69, 49
3, 11880, Note_on_c, 0, 69, 0
3, 11880, Note_on_c, 0, 66, 0
3, 11880, Note_on_c, 0, 66, 49
3, 11880, Note_on_c, 0, 69, 49
3, 12000, Note_on_c, 0, 69, 0
3, 12000, Note_on_c, 0, 66, 0
3, 12000, Note_on_c, 0, 66, 49
3, 12000, Note_on_c, 0, 69, 49
3, 12120, Note_on_c, 0, 69, 0
3, 12120, Note_on_c, 0, 66, 0
3, 12120, Note_on_c, 0, 66, 49
3, 12120, Note_on_c, 0, 69, 49
3, 12240, Note_on_c, 0, 69, 0
3, 12240, Note_on_c, 0, 66, 0
3, 12240, Note_on_c, 0, 66, 49
3, 12240, Note_on_c, 0, 69, 49
3, 12360, Note_on_c, 0, 69, 0
3, 12360, Note_on_c, 0, 66, 0
3, 12360, Note_on_c, 0, 66, 49
3, 12360, Note_on_c, 0, 69, 49
3, 12480, Note_on_c, 0, 69, 0
3, 12480, Note_on_c, 0, 66, 0
3, 12480, Note_on_c, 0, 66, 49
3, 12480, Note_on_c, 0, 69, 49
3, 12600, Note_on_c, 0, 69, 0
3, 12600, Note_on_c, 0, 66, 0
3, 12600, Note_on_c, 0, 66, 49
3, 12600, Note_on_c, 0, 69, 49
3, 12720, Note_on_c, 0, 69, 0
3, 12720, Note_on_c, 0, 66, 0
3, 12720, Note_on_c, 0, 66, 49
3, 12720, Note_on_c, 0, 69, 49
3, 12840, Note_on_c, 0, 69, 0
3, 12840, Note_on_c, 0, 66, 0
3, 12840, Control_c, 0, 64, 0
3, 12840, Note_on_c, 0, 66, 49
3, 12840, Note_on_c, 0, 69, 49
3, 12960, Note_on_c, 0, 69, 0
3, 12960, Note_on_c, 0, 66, 0
3, 12960, Control_c, 0, 64, 127
3, 12960, Note_on_c, 0, 66, 49
3, 12960, Note_on_c, 0, 72, 49
3, 13080, Note_on_c, 0, 72, 0
3, 13080, Note_on_c, 0, 66, 0
3, 13080, Note_on_c, 0, 66, 49
3, 13080, Note_on_c, 0, 72, 49
3, 13200, Note_on_c, 0, 72, 0
3, 13200, Note_on_c, 0, 66, 0
3, 13200, Note_on_c, 0, 66, 49
3, 13200, Note_on_c, 0, 72, 49
3, 13320, Note_on_c, 0, 72, 0
3, 13320, Note_on_c, 0, 66, 0
3, 13320, Note_on_c, 0, 66, 49
3, 13320, Note_on_c, 0, 72, 49
3, 13440, Note_on_c, 0, 72, 0
3, 13440, Note_on_c, 0, 66, 0
3, 13440, Note_on_c, 0, 66, 49
3, 13440, Note_on_c, 0, 72, 49
3, 13560, Note_on_c, 0, 72, 0
3, 13560, Note_on_c, 0, 66, 0
3, 13560, Note_on_c, 0, 66, 49
3, 13560, Note_on_c, 0, 72, 49
3, 13680, Note_on_c, 0, 72, 0
3, 13680, Note_on_c, 0, 66, 0
3, 13680, Note_on_c, 0, 66, 49
3, 13680, Note_on_c, 0, 72, 49
3, 13800, Note_on_c, 0, 72, 0
3, 13800, Note_on_c, 0, 66, 0
3, 13800, Note_on_c, 0, 66, 49
3, 13800, Note_on_c, 0, 72, 49
3, 13920, Note_on_c, 0, 72, 0
3, 13920, Note_on_c, 0, 66, 0
3, 13920, Note_on_c, 0, 66, 49
3, 13920, Note_on_c, 0, 72, 49
3, 14040, Note_on_c, 0, 72, 0
3, 14040, Note_on_c, 0, 66, 0
3, 14040, Note_on_c, 0, 66, 49
3, 14040, Note_on_c, 0, 72, 49
3, 14160, Note_on_c, 0, 72, 0
3, 14160, Note_on_c, 0, 66, 0
3, 14160, Note_on_c, 0, 66, 49
3, 14160, Note_on_c, 0, 72, 49
3, 14280, Note_on_c, 0, 72, 0
3, 14280, Note_on_c, 0, 66, 0
3, 14280, Control_c, 0, 64, 0
3, 14280, Note_on_c, 0, 66, 49
3, 14280, Note_on_c, 0, 72, 49
3, 14400, Note_on_c, 0, 72, 0
3, 14400, Note_on_c, 0, 66, 0
3, 14400, Control_c, 0, 64, 127
3, 14400, Note_on_c, 0, 71, 49
3, 14400, Note_on_c, 0, 74, 49
3, 14520, Note_on_c, 0, 74, 0
3, 14520, Note_on_c, 0, 71, 0
3, 14520, Note_on_c, 0, 71, 49
3, 14520, Note_on_c, 0, 74, 49
3, 14640, Note_on_c, 0, 74, 0
3, 14640, Note_on_c, 0, 71, 0
3, 14640, Note_on_c, 0, 71, 49
3, 14640, Note_on_c, 0, 74, 49
3, 14760, Note_on_c, 0, 74, 0
3, 14760, Note_on_c, 0, 71, 0
3, 14760, Note_on_c, 0, 71, 49
3, 14760, Note_on_c, 0, 74, 49
3, 14880, Note_on_c, 0, 74, 0
3, 14880, Note_on_c, 0, 71, 0
3, 14880, Note_on_c, 0, 71, 49
3, 14880, Note_on_c, 0, 74, 49
3, 15000, Note_on_c, 0, 74, 0
3, 15000, Note_on_c, 0, 71, 0
3, 15000, Note_on_c, 0, 71, 49
3, 15000, Note_on_c, 0, 74, 49
3, 15120, Note_on_c, 0, 74, 0
3, 15120, Note_on_c, 0, 71, 0
3, 15120, Note_on_c, 0, 71, 49
3, 15120, Note_on_c, 0, 74, 49
3, 15240, Note_on_c, 0, 74, 0
3, 15240, Note_on_c, 0, 71, 0
3, 15240, Control_c, 0, 64, 0
3, 15240, Note_on_c, 0, 71, 49
3, 15240, Note_on_c, 0, 74, 49
3, 15360, Note_on_c, 0, 74, 0
3, 15360, Note_on_c, 0, 71, 0
3, 15360, Control_c, 0, 64, 127
3, 15360, Note_on_c, 0, 67, 49
3, 15360, Note_on_c, 0, 71, 49
3, 15480, Note_on_c, 0, 71, 0
3, 15480, Note_on_c, 0, 67, 0
3, 15480, Note_on_c, 0, 67, 49
3, 15480, Note_on_c, 0, 71, 49
3, 15600, Note_on_c, 0, 71, 0
3, 15600, Note_on_c, 0, 67, 0
3, 15600, Note_on_c, 0, 67, 49
3, 15600, Note_on_c, 0, 71, 49
3, 15720, Note_on_c, 0, 71, 0
3, 15720, Note_on_c, 0, 67, 0
3, 15720, Note_on_c, 0, 67, 49
3, 15720, Note_on_c, 0, 71, 49
3, 15840, Note_on_c, 0, 71, 0
3, 15840, Note_on_c, 0, 67, 0
3, 15840, Note_on_c, 0, 67, 49
3, 15840, Note_on_c, 0, 71, 49
3, 15960, Note_on_c, 0, 71, 0
3, 15960, Note_on_c, 0, 67, 0
3, 15960, Note_on_c, 0, 67, 49
3, 15960, Note_on_c, 0, 71, 49
3, 16080, Note_on_c, 0, 71, 0
3, 16080, Note_on_c, 0, 67, 0
3, 16080, Note_on_c, 0, 67, 49
3, 16080, Note_on_c, 0, 71, 49
3, 16200, Note_on_c, 0, 71, 0
3, 16200, Note_on_c, 0, 67, 0
3, 16200, Note_on_c, 0, 67, 49
3, 16200, Note_on_c, 0, 71, 49
3, 16320, Note_on_c, 0, 71, 0
3, 16320, Note_on_c, 0, 67, 0
3, 16320, Note_on_c, 0, 67, 49
3, 16320, Note_on_c, 0, 71, 49
3, 16440, Note_on_c, 0, 71, 0
3, 16440, Note_on_c, 0, 67, 0
3, 16440, Note_on_c, 0, 67, 49
3, 16440, Note_on_c, 0, 71, 49
3, 16560, Note_on_c, 0, 71, 0
3, 16560, Note_on_c, 0, 67, 0
3, 16560, Note_on_c, 0, 67, 49
3, 16560, Note_on_c, 0, 71, 49
3, 16680, Note_on_c, 0, 71, 0
3, 16680, Note_on_c, 0, 67, 0
3, 16680, Control_c, 0, 64, 0
3, 16680, Note_on_c, 0, 67, 49
3, 16680, Note_on_c, 0, 71, 49
3, 16800, Note_on_c, 0, 71, 0
3, 16800, Note_on_c, 0, 67, 0
3, 16800, Control_c, 0, 64, 127
3, 16800, Note_on_c, 0, 71, 49
3, 16800, Note_on_c, 0, 74, 49
3, 16920, Note_on_c, 0, 74, 0
3, 16920, Note_on_c, 0, 71, 0
3, 16920, Note_on_c, 0, 71, 49
3, 16920, Note_on_c, 0, 74, 49
3, 17040, Note_on_c, 0, 74, 0
3, 17040, Note_on_c, 0, 71, 0
3, 17040, Note_on_c, 0, 71, 49
3, 17040, Note_on_c, 0, 74, 49
3, 17160, Note_on_c, 0, 74, 0
3, 17160, Note_on_c, 0, 71, 0
3, 17160, Note_on_c, 0, 71, 49
3, 17160, Note_on_c, 0, 74, 49
3, 17280, Note_on_c, 0, 74, 0
3, 17280, Note_on_c, 0, 71, 0
3, 17280, Note_on_c, 0, 71, 49
3, 17280, Note_on_c, 0, 74, 49
3, 17400, Note_on_c, 0, 74, 0
3, 17400, Note_on_c, 0, 71, 0
3, 17400, Note_on_c, 0, 71, 49
3, 17400, Note_on_c, 0, 74, 49
3, 17520, Note_on_c, 0, 74, 0
3, 17520, Note_on_c, 0, 71, 0
3, 17520, Note_on_c, 0, 71, 49
3, 17520, Note_on_c, 0, 74, 49
3, 17640, Note_on_c, 0, 74, 0
3, 17640, Note_on_c, 0, 71, 0
3, 17640, Note_on_c, 0, 71, 49
3, 17640, Note_on_c, 0, 74, 49
3, 17760, Note_on_c, 0, 74, 0
3, 17760, Note_on_c, 0, 71, 0
3, 17760, Note_on_c, 0, 71, 49
3, 17760, Note_on_c, 0, 74, 49
3, 17880, Note_on_c, 0, 74, 0
3, 17880, Note_on_c, 0, 71, 0
3, 17880, Note_on_c, 0, 71, 49
3, 17880, Note_on_c, 0, 74, 49
3, 18000, Note_on_c, 0, 74, 0
3, 18000, Note_on_c, 0, 71, 0
3, 18000, Note_on_c, 0, 71, 49
3, 18000, Note_on_c, 0, 74, 49
3, 18120, Note_on_c, 0, 74, 0
3, 18120, Note_on_c, 0, 71, 0
3, 18120, Control_c, 0, 64, 0
3, 18120, Note_on_c, 0, 71, 49
3, 18120, Note_on_c, 0, 74, 49
3, 18240, Note_on_c, 0, 74, 0
3, 18240, Note_on_c, 0, 71, 0
3, 18240, Control_c, 0, 64, 127
3, 18240, Note_on_c, 0, 67, 49
3, 18240, Note_on_c, 0, 71, 49
3, 18360, Note_on_c, 0, 71, 0
3, 18360, Note_on_c, 0, 67, 0
3, 18360, Note_on_c, 0, 67, 49
3, 18360, Note_on_c, 0, 71, 49
3, 18480, Note_on_c, 0, 71, 0
3, 18480, Note_on_c, 0, 67, 0
3, 18480, Note_on_c, 0, 67, 49
3, 18480, Note_on_c, 0, 71, 49
3, 18600, Note_on_c, 0, 71, 0
3, 18600, Note_on_c, 0, 67, 0
3, 18600, Control_c, 0, 64, 0
3, 18600, Note_on_c, 0, 67, 49
3, 18600, Note_on_c, 0, 71, 49
3, 18720, Note_on_c, 0, 71, 0
3, 18720, Note_on_c, 0, 67, 0
3, 18720, Control_c, 0, 64, 127
3, 18720, Note_on_c, 0, 64, 49
3, 18720, Note_on_c, 0, 69, 49
3, 18840, Note_on_c, 0, 69, 0
3, 18840, Note_on_c, 0, 64, 0
3, 18840, Note_on_c, 0, 64, 49
3, 18840, Note_on_c, 0, 69, 49
3, 18960, Note_on_c, 0, 69, 0
3, 18960, Note_on_c, 0, 64, 0
3, 18960, Note_on_c, 0, 64, 49
3, 18960, Note_on_c, 0, 69, 49
3, 19080, Note_on_c, 0, 69, 0
3, 19080, Note_on_c, 0, 64, 0
3, 19080, Note_on_c, 0, 64, 49
3, 19080, Note_on_c, 0, 69, 49
3, 19200, Note_on_c, 0, 69, 0
3, 19200, Note_on_c, 0, 64, 0
3, 19200, Note_on_c, 0, 64, 49
3, 19200, Note_on_c, 0, 69, 49
3, 19320, Note_on_c, 0, 69, 0
3, 19320, Note_on_c, 0, 64, 0
3, 19320, Note_on_c, 0, 64, 49
3, 19320, Note_on_c, 0, 69, 49
3, 19440, Note_on_c, 0, 69, 0
3, 19440, Note_on_c, 0, 64, 0
3, 19440, Note_on_c, 0, 64, 49
3, 19440, Note_on_c, 0, 69, 49
3, 19560, Note_on_c, 0, 69, 0
3, 19560, Note_on_c, 0, 64, 0
3, 19560, Note_on_c, 0, 64, 49
3, 19560, Note_on_c, 0, 69, 49
3, 19680, Note_on_c, 0, 69, 0
3, 19680, Note_on_c, 0, 64, 0
3, 19680, Note_on_c, 0, 64, 49
3, 19680, Note_on_c, 0, 69, 49
3, 19800, Note_on_c, 0, 69, 0
3, 19800, Note_on_c, 0, 64, 0
3, 19800, Note_on_c, 0, 64, 49
3, 19800, Note_on_c, 0, 69, 49
3, 19920, Note_on_c, 0, 69, 0
3, 19920, Note_on_c, 0, 64, 0
3, 19920, Note_on_c, 0, 64, 49
3, 19920, Note_on_c, 0, 69, 49
3, 20040, Note_on_c, 0, 69, 0
3, 20040, Note_on_c, 0, 64, 0
3, 20040, Control_c, 0, 64, 0
3, 20040, Note_on_c, 0, 64, 49
3, 20040, Note_on_c, 0, 69, 49
3, 20160, Note_on_c, 0, 69, 0
3, 20160, Note_on_c, 0, 64, 0
3, 20160, Control_c, 0, 64, 127
3, 20160, Note_on_c, 0, 69, 49
3, 20160, Note_on_c, 0, 74, 49
3, 20280, Note_on_c, 0, 74, 0
3, 20280, Note_on_c, 0, 69, 0
3, 20280, Note_on_c, 0, 69, 49
3, 20280, Note_on_c, 0, 74, 49
3, 20400, Note_on_c, 0, 74, 0
3, 20400, Note_on_c, 0, 69, 0
3, 20400, Note_on_c, 0, 69, 49
3, 20400, Note_on_c, 0, 74, 49
3, 20520, Note_on_c, 0, 74, 0
3, 20520, Note_on_c, 0, 69, 0
3, 20520, Note_on_c, 0, 69, 49
3, 20520, Note_on_c, 0, 74, 49
3, 20640, Note_on_c, 0, 74, 0
3, 20640, Note_on_c, 0, 69, 0
3, 20640, Note_on_c, 0, 69, 49
3, 20640, Note_on_c, 0, 74, 49
3, 20760, Note_on_c, 0, 74, 0
3, 20760, Note_on_c, 0, 69, 0
3, 20760, Note_on_c, 0, 69, 49
3, 20760, Note_on_c, 0, 74, 49
3, 20880, Note_on_c, 0, 74, 0
3, 20880, Note_on_c, 0, 69, 0
3, 20880, Note_on_c, 0, 69, 49
3, 20880, Note_on_c, 0, 74, 49
3, 21000, Note_on_c, 0, 74, 0
3, 21000, Note_on_c, 0, 69, 0
3, 21000, Note_on_c, 0, 69, 49
3, 21000, Note_on_c, 0, 74, 49
3, 21120, Note_on_c, 0, 74, 0
3, 21120, Note_on_c, 0, 69, 0
3, 21120, Note_on_c, 0, 69, 49
3, 21120, Note_on_c, 0, 74, 49
3, 21240, Note_on_c, 0, 74, 0
3, 21240, Note_on_c, 0, 69, 0
3, 21240, Note_on_c, 0, 69, 49
3, 21240, Note_on_c, 0, 74, 49
3, 21360, Note_on_c, 0, 74, 0
3, 21360, Note_on_c, 0, 69, 0
3, 21360, Note_on_c, 0, 69, 49
3, 21360, Note_on_c, 0, 74, 49
3, 21480, Note_on_c, 0, 74, 0
3, 21480, Note_on_c, 0, 69, 0
3, 21480, Control_c, 0, 64, 0
3, 21480, Note_on_c, 0, 69, 49
3, 21480, Note_on_c, 0, 74, 49
3, 21600, Note_on_c, 0, 74, 0
3, 21600, Note_on_c, 0, 69, 0
3, 21600, Control_c, 0, 64, 127
3, 21600, Note_on_c, 0, 71, 49
3, 21600, Note_on_c, 0, 76, 49
3, 21720, Note_on_c, 0, 76, 0
3, 21720, Note_on_c, 0, 71, 0
3, 21720, Note_on_c, 0, 71, 49
3, 21720, Note_on_c, 0, 76, 49
3, 21840, Note_on_c, 0, 76, 0
3, 21840, Note_on_c, 0, 71, 0
3, 21840, Note_on_c, 0, 71, 49
3, 21840, Note_on_c, 0, 76, 49
3, 21960, Note_on_c, 0, 76, 0
3, 21960, Note_on_c, 0, 71, 0
3, 21960, Note_on_c, 0, 71, 49
3, 21960, Note_on_c, 0, 76, 49
3, 22080, Note_on_c, 0, 76, 0
3, 22080, Note_on_c, 0, 71, 0
3, 22080, Note_on_c, 0, 71, 49
3, 22080, Note_on_c, 0, 76, 49
3, 22200, Note_on_c, 0, 76, 0
3, 22200, Note_on_c, 0, 71, 0
3, 22200, Note_on_c, 0, 71, 49
3, 22200, Note_on_c, 0, 76, 49
3, 22320, Note_on_c, 0, 76, 0
3, 22320, Note_on_c, 0, 71, 0
3, 22320, Note_on_c, 0, 71, 49
3, 22320, Note_on_c, 0, 76, 49
3, 22440, Note_on_c, 0, 76, 0
3, 22440, Note_on_c, 0, 71, 0
3, 22440, Note_on_c, 0, 71, 49
3, 22440, Note_on_c, 0, 76, 49
3, 22560, Note_on_c, 0, 76, 0
3, 22560, Note_on_c, 0, 71, 0
3, 22560, Note_on_c, 0, 71, 49
3, 22560, Note_on_c, 0, 76, 49
3, 22680, Note_on_c, 0, 76, 0
3, 22680, Note_on_c, 0, 71, 0
3, 22680, Note_on_c, 0, 71, 49
3, 22680, Note_on_c, 0, 76, 49
3, 22800, Note_on_c, 0, 76, 0
3, 22800, Note_on_c, 0, 71, 0
3, 22800, Note_on_c, 0, 71, 49
3, 22800, Note_on_c, 0, 76, 49
3, 22920, Note_on_c, 0, 76, 0
3, 22920, Note_on_c, 0, 71, 0
3, 22920, Control_c, 0, 64, 0
3, 22920, Note_on_c, 0, 71, 49
3, 22920, Note_on_c, 0, 76, 49
3, 23040, Note_on_c, 0, 76, 0
3, 23040, Note_on_c, 0, 71, 0
3, 23040, Control_c, 0, 64, 127
3, 23040, Note_on_c, 0, 67, 49
3, 23040, Note_on_c, 0, 73, 49
3, 23160, Note_on_c, 0, 73, 0
3, 23160, Note_on_c, 0, 67, 0
3, 23160, Note_on_c, 0, 67, 49
3, 23160, Note_on_c, 0, 73, 49
3, 23280, Note_on_c, 0, 73, 0
3, 23280, Note_on_c, 0, 67, 0
3, 23280, Note_on_c, 0, 67, 49
3, 23280, Note_on_c, 0, 73, 49
3, 23400, Note_on_c, 0, 73, 0
3, 23400, Note_on_c, 0, 67, 0
3, 23400, Note_on_c, 0, 67, 49
3, 23400, Note_on_c, 0, 73, 49
3, 23520, Note_on_c, 0, 73, 0
3, 23520, Note_on_c, 0, 67, 0
3, 23520, Note_on_c, 0, 67, 49
3, 23520, Note_on_c, 0, 73, 49
3, 23640, Note_on_c, 0, 73, 0
3, 23640, Note_on_c, 0, 67, 0
3, 23640, Note_on_c, 0, 67, 49
3, 23640, Note_on_c, 0, 73, 49
3, 23760, Note_on_c, 0, 73, 0
3, 23760, Note_on_c, 0, 67, 0
3, 23760, Note_on_c, 0, 67, 49
3, 23760, Note_on_c, 0, 73, 49
3, 23880, Note_on_c, 0, 73, 0
3, 23880, Note_on_c, 0, 67, 0
3, 23880, Note_on_c, 0, 67, 49
3, 23880, Note_on_c, 0, 73, 49
3, 24000, Note_on_c, 0, 73, 0
3, 24000, Note_on_c, 0, 67, 0
3, 24000, Note_on_c, 0, 67, 49
3, 24000, Note_on_c, 0, 73, 49
3, 24120, Note_on_c, 0, 73, 0
3, 24120, Note_on_c, 0, 67, 0
3, 24120, Note_on_c, 0, 67, 49
3, 24120, Note_on_c, 0, 73, 49
3, 24240, Note_on_c, 0, 73, 0
3, 24240, Note_on_c, 0, 67, 0
3, 24240, Note_on_c, 0, 67, 49
3, 24240, Note_on_c, 0, 73, 49
3, 24360, Note_on_c, 0, 73, 0
3, 24360, Note_on_c, 0, 67, 0
3, 24360, Control_c, 0, 64, 0
3, 24360, Note_on_c, 0, 67, 49
3, 24360, Note_on_c, 0, 73, 49
3, 24480, Note_on_c, 0, 73, 0
3, 24480, Note_on_c, 0, 67, 0
3, 24480, Control_c, 0, 64, 127
3, 24480, Note_on_c, 0, 66, 49
3, 24480, Note_on_c, 0, 69, 49
3, 24600, Note_on_c, 0, 69, 0
3, 24600, Note_on_c, 0, 66, 0
3, 24600, Note_on_c, 0, 66, 49
3, 24600, Note_on_c, 0, 69, 49
3, 24720, Note_on_c, 0, 69, 0
3, 24720, Note_on_c, 0, 66, 0
3, 24720, Note_on_c, 0, 66, 49
3, 24720, Note_on_c, 0, 69, 49
3, 24840, Note_on_c, 0, 69, 0
3, 24840, Note_on_c, 0, 66, 0
3, 24840, Note_on_c, 0, 66, 49
3, 24840, Note_on_c, 0, 69, 49
3, 24960, Note_on_c, 0, 69, 0
3, 24960, Note_on_c, 0, 66, 0
3, 24960, Note_on_c, 0, 66, 49
3, 24960, Note_on_c, 0, 69, 49
3, 25080, Note_on_c, 0, 69, 0
3, 25080, Note_on_c, 0, 66, 0
3, 25080, Note_on_c, 0, 66, 49
3, 25080, Note_on_c, 0, 69, 49
3, 25200, Note_on_c, 0, 69, 0
3, 25200, Note_on_c, 0, 66, 0
3, 25200, Note_on_c, 0, 66, 49
3, 25200, Note_on_c, 0, 69, 49
3, 25320, Note_on_c, 0, 69, 0
3, 25320, Note_on_c, 0, 66, 0
3, 25320, Note_on_c, 0, 66, 49
3, 25320, Note_on_c, 0, 69, 49
3, 25440, Note_on_c, 0, 69, 0
3, 25440, Note_on_c, 0, 66, 0
3, 25440, Note_on_c, 0, 66, 49
3, 25440, Note_on_c, 0, 69, 49
3, 25560, Note_on_c, 0, 69, 0
3, 25560, Note_on_c, 0, 66, 0
3, 25560, Note_on_c, 0, 66, 49
3, 25560, Note_on_c, 0, 69, 49
3, 25680, Note_on_c, 0, 69, 0
3, 25680, Note_on_c, 0, 66, 0
3, 25680, Note_on_c, 0, 66, 49
3, 25680, Note_on_c, 0, 69, 49
3, 25800, Note_on_c, 0, 69, 0
3, 25800, Note_on_c, 0, 66, 0
3, 25800, Control_c, 0, 64, 0
3, 25800, Note_on_c, 0, 66, 49
3, 25800, Note_on_c, 0, 69, 49
3, 25920, Note_on_c, 0, 69, 0
3, 25920, Note_on_c, 0, 66, 0
3, 30480, Control_c, 0, 64, 127
3, 30480, Note_on_c, 0, 62, 75
3, 30540, Note_on_c, 0, 62, 0
3, 30540, Note_on_c, 0, 66, 75
3, 30600, Note_on_c, 0, 66, 0
3, 30600, Note_on_c, 0, 69, 75
3, 30660, Note_on_c, 0, 69, 0
3, 30660, Note_on_c, 0, 72, 75
3, 30720, Note_on_c, 0, 72, 0
3, 30720, Note_on_c, 0, 74, 75
3, 30759, Note_on_c, 0, 74, 0
3, 30759, Note_on_c, 0, 78, 75
3, 30800, Note_on_c, 0, 78, 0
3, 30800, Note_on_c, 0, 81, 75
3, 30840, Note_on_c, 0, 81, 0
3, 30840, Note_on_c, 0, 86, 75
3, 30879, Note_on_c, 0, 86, 0
3, 30879, Note_on_c, 0, 90, 75
3, 30920, Note_on_c, 0, 90, 0
3, 30920, Note_on_c, 0, 93, 75
3, 30960, Note_on_c, 0, 93, 0
3, 30960, Note_on_c, 0, 98, 75
3, 30999, Note_on_c, 0, 98, 0
3, 30999, Note_on_c, 0, 96, 75
3, 31040, Note_on_c, 0, 96, 0
3, 31040, Note_on_c, 0, 93, 75
3, 31080, Note_on_c, 0, 93, 0
3, 31080, Note_on_c, 0, 90, 75
3, 31119, Note_on_c, 0, 90, 0
3, 31119, Note_on_c, 0, 86, 75
3, 31160, Note_on_c, 0, 86, 0
3, 31160, Note_on_c, 0, 84, 75
3, 31200, Note_on_c, 0, 84, 0
3, 31200, Note_on_c, 0, 81, 75
3, 31239, Note_on_c, 0, 81, 0
3, 31239, Note_on_c, 0, 78, 75
3, 31280, Note_on_c, 0, 78, 0
3, 31280, Note_on_c, 0, 74, 75
3, 31320, Note_on_c, 0, 74, 0
3, 31320, Note_on_c, 0, 72, 75
3, 31359, Note_on_c, 0, 72, 0
3, 31359, Note_on_c, 0, 69, 75
3, 31400, Note_on_c, 0, 69, 0
3, 31400, Note_on_c, 0, 66, 75
3, 31440, Note_on_c, 0, 66, 0
3, 31440, Control_c, 0, 64, 0
3, 31440, Note_on_c, 0, 62, 75
3, 31680, Note_on_c, 0, 62, 0
3, 38880, Control_c, 0, 64, 127
3, 38880, Note_on_c, 0, 71, 49
3, 38880, Note_on_c, 0, 74, 49
3, 39000, Note_on_c, 0, 74, 0
3, 39000, Note_on_c, 0, 71, 0
3, 39000, Note_on_c, 0, 71, 49
3, 39000, Note_on_c, 0, 74, 49
3, 39120, Note_on_c, 0, 74, 0
3, 39120, Note_on_c, 0, 71, 0
3, 39120, Note_on_c, 0, 71, 49
3, 39120, Note_on_c, 0, 74, 49
3, 39240, Note_on_c, 0, 74, 0
3, 39240, Note_on_c, 0, 71, 0
3, 39240, Note_on_c, 0, 71, 49
3, 39240, Note_on_c, 0, 74, 49
3, 39360, Note_on_c, 0, 74, 0
3, 39360, Note_on_c, 0, 71, 0
3, 39360, Note_on_c, 0, 71, 49
3, 39360, Note_on_c, 0, 74, 49
3, 39480, Note_on_c, 0, 74, 0
3, 39480, Note_on_c, 0, 71, 0
3, 39480, Note_on_c, 0, 71, 49
3, 39480, Note_on_c, 0, 74, 49
3, 39600, Note_on_c, 0, 74, 0
3, 39600, Note_on_c, 0, 71, 0
3, 39600, Note_on_c, 0, 71, 49
3, 39600, Note_on_c, 0, 74, 49
3, 39720, Note_on_c, 0, 74, 0
3, 39720, Note_on_c, 0, 71, 0
3, 39720, Control_c, 0, 64, 0
3, 39720, Note_on_c, 0, 71, 49
3, 39720, Note_on_c, 0, 74, 49
3, 39840, Note_on_c, 0, 74, 0
3, 39840, Note_on_c, 0, 71, 0
3, 39840, Control_c, 0, 64, 127
3, 39840, Note_on_c, 0, 67, 49
3, 39840, Note_on_c, 0, 71, 49
3, 39960, Note_on_c, 0, 71, 0
3, 39960, Note_on_c, 0, 67, 0
3, 39960, Note_on_c, 0, 67, 49
3, 39960, Note_on_c, 0, 71, 49
3, 40080, Note_on_c, 0, 71, 0
3, 40080, Note_on_c, 0, 67, 0
3, 40080, Note_on_c, 0, 67, 49
3, 40080, Note_on_c, 0, 71, 49
3, 40200, Note_on_c, 0, 71, 0
3, 40200, Note_on_c, 0, 67, 0
3, 40200, Note_on_c, 0, 67, 49
3, 40200, Note_on_c, 0, 71, 49
3, 40320, Note_on_c, 0, 71, 0
3, 40320, Note_on_c, 0, 67, 0
3, 40320, Note_on_c, 0, 67, 49
3, 40320, Note_on_c, 0, 71, 49
3, 40440, Note_on_c, 0, 71, 0
3, 40440, Note_on_c, 0, 67, 0
3, 40440, Note_on_c, 0, 67, 49
3, 40440, Note_on_c, 0, 71, 49
3, 40560, Note_on_c, 0, 71, 0
3, 40560, Note_on_c, 0, 67, 0
3, 40560, Note_on_c, 0, 67, 49
3, 40560, Note_on_c, 0, 71, 49
3, 40680, Note_on_c, 0, 71, 0
3, 40680, Note_on_c, 0, 67, 0
3, 40680, Note_on_c, 0, 67, 49
3, 40680, Note_on_c, 0, 71, 49
3, 40800, Note_on_c, 0, 71, 0
3, 40800, Note_on_c, 0, 67, 0
3, 40800, Note_on_c, 0, 67, 49
3, 40800, Note_on_c, 0, 71, 49
3, 40920, Note_on_c, 0, 71, 0
3, 40920, Note_on_c, 0, 67, 0
3, 40920, Note_on_c, 0, 67, 49
3, 40920, Note_on_c, 0, 71, 49
3, 41040, Note_on_c, 0, 71, 0
3, 41040, Note_on_c, 0, 67, 0
3, 41040, Note_on_c, 0, 67, 49
3, 41040, Note_on_c, 0, 71, 49
3, 41160, Note_on_c, 0, 71, 0
3, 41160, Note_on_c, 0, 67, 0
3, 41160, Control_c, 0, 64, 0
3, 41160, Note_on_c, 0, 67, 49
3, 41160, Note_on_c, 0, 71, 49
3, 41280, Note_on_c, 0, 71, 0
3, 41280, Note_on_c, 0, 67, 0
3, 41280, Control_c, 0, 64, 127
3, 41280, Note_on_c, 0, 71, 49
3, 41280, Note_on_c, 0, 74, 49
3, 41400, Note_on_c, 0, 74, 0
3, 41400, Note_on_c, 0, 71, 0
3, 41400, Note_on_c, 0, 71, 49
3, 41400, Note_on_c, 0, 74, 49
3, 41520, Note_on_c, 0, 74, 0
3, 41520, Note_on_c, 0, 71, 0
3, 41520, Note_on_c, 0, 71, 49
3, 41520, Note_on_c, 0, 74, 49
3, 41640, Note_on_c, 0, 74, 0
3, 41640, Note_on_c, 0, 71, 0
3, 41640, Note_on_c, 0, 71, 49
3, 41640, Note_on_c, 0, 74, 49
3, 41760, Note_on_c, 0, 74, 0
3, 41760, Note_on_c, 0, 71, 0
3, 41760, Note_on_c, 0, 71, 49
3, 41760, Note_on_c, 0, 74, 49
3, 41880, Note_on_c, 0, 74, 0
3, 41880, Note_on_c, 0, 71, 0
3, 41880, Note_on_c, 0, 71, 49
3, 41880, Note_on_c, 0, 74, 49
3, 42000, Note_on_c, 0, 74, 0
3, 42000, Note_on_c, 0, 71, 0
3, 42000, Note_on_c, 0, 71, 49
3, 42000, Note_on_c, 0, 74, 49
3, 42120, Note_on_c, 0, 74, 0
3, 42120, Note_on_c, 0, 71, 0
3, 42120, Note_on_c, 0, 71, 49
3, 42120, Note_on_c, 0, 74, 49
3, 42240, Note_on_c, 0, 74, 0
3, 42240, Note_on_c, 0, 71, 0
3, 42240, Note_on_c, 0, 71, 49
3, 42240, Note_on_c, 0, 74, 49
3, 42360, Note_on_c, 0, 74, 0
3, 42360, Note_on_c, 0, 71, 0
3, 42360, Note_on_c, 0, 71, 49
3, 42360, Note_on_c, 0, 74, 49
3, 42480, Note_on_c, 0, 74, 0
3, 42480, Note_on_c, 0, 71, 0
3, 42480, Note_on_c, 0, 71, 49
3, 42480, Note_on_c, 0, 74, 49
3, 42600, Note_on_c, 0, 74, 0
3, 42600, Note_on_c, 0, 71, 0
3, 42600, Control_c, 0, 64, 0
3, 42600, Note_on_c, 0, 71, 49
3, 42600, Note_on_c, 0, 74, 49
3, 42720, Note_on_c, 0, 74, 0
3, 42720, Note_on_c, 0, 71, 0
3, 42720, Control_c, 0, 64, 127
3, 42720, Note_on_c, 0, 67, 49
3, 42720, Note_on_c, 0, 71, 49
3, 42840, Note_on_c, 0, 71, 0
3, 42840, Note_on_c, 0, 67, 0
3, 42840, Note_on_c, 0, 67, 49
3, 42840, Note_on_c, 0, 71, 49
3, 42960, Note_on_c, 0, 71, 0
3, 42960, Note_on_c, 0, 67, 0
3, 42960, Note_on_c, 0, 67, 49
3, 42960, Note_on_c, 0, 71, 49
3, 43080, Note_on_c, 0, 71, 0
3, 43080, Note_on_c, 0, 67, 0
3, 43080, Control_c, 0, 64, 0
3, 43080, Note_on_c, 0, 67, 49
3, 43080, Note_on_c, 0, 71, 49
3, 43200, Note_on_c, 0, 71, 0
3, 43200, Note_on_c, 0, 67, 0
3, 43200, Control_c, 0, 64, 127
3, 43200, Note_on_c, 0, 64, 49
3, 43200, Note_on_c, 0, 69, 49
3, 43320, Note_on_c, 0, 69, 0
3, 43320, Note_on_c, 0, 64, 0
3, 43320, Note_on_c, 0, 64, 49
3, 43320, Note_on_c, 0, 69, 49
3, 43440, Note_on_c, 0, 69, 0
3, 43440, Note_on_c, 0, 64, 0
3, 43440, Note_on_c, 0, 64, 49
3, 43440, Note_on_c, 0, 69, 49
3, 43560, Note_on_c, 0, 69, 0
3, 43560, Note_on_c, 0, 64, 0
3, 43560, Note_on_c, 0, 64, 49
3, 43560, Note_on_c, 0, 69, 49
3, 43680, Note_on_c, 0, 69, 0
3, 43680, Note_on_c, 0, 64, 0
3, 43680, Note_on_c, 0, 64, 49
3, 43680, Note_on_c, 0, 69, 49
3, 43800, Note_on_c, 0, 69, 0
3, 43800, Note_on_c, 0, 64, 0
3, 43800, Note_on_c, 0, 64, 49
3, 43800, Note_on_c, 0, 69, 49
3, 43920, Note_on_c, 0, 69, 0
3, 43920, Note_on_c, 0, 64, 0
3, 43920, Note_on_c, 0, 64, 49
3, 43920, Note_on_c, 0, 69, 49
3, 44040, Note_on_c, 0, 69, 0
3, 44040, Note_on_c, 0, 64, 0
3, 44040, Note_on_c, 0, 64, 49
3, 44040, Note_on_c, 0, 69, 49
3, 44160, Note_on_c, 0, 69, 0
3, 44160, Note_on_c, 0, 64, 0
3, 44160, Note_on_c, 0, 64, 49
3, 44160, Note_on_c, 0, 69, 49
3, 44280, Note_on_c, 0, 69, 0
3, 44280, Note_on_c, 0, 64, 0
3, 44280, Note_on_c, 0, 64, 49
3, 44280, Note_on_c, 0, 69, 49
3, 44400, Note_on_c, 0, 69, 0
3, 44400, Note_on_c, 0, 64, 0
3, 44400, Note_on_c, 0, 64, 49
3, 44400, Note_on_c, 0, 69, 49
3, 44520, Note_on_c, 0, 69, 0
3, 44520, Note_on_c, 0, 64, 0
3, 44520, Control_c, 0, 64, 0
3, 44520, Note_on_c, 0, 64, 49
3, 44520, Note_on_c, 0, 69, 49
3, 44640, Note_on_c, 0, 69, 0
3, 44640, Note_on_c, 0, 64, 0
3, 44640, Control_c, 0, 64, 127
3, 44640, Note_on_c, 0, 60, 49
3, 44640, Note_on_c, 0, 66, 49
3, 44760, Note_on_c, 0, 66, 0
3, 44760, Note_on_c, 0, 60, 0
3, 44760, Note_on_c, 0, 60, 49
3, 44760, Note_on_c, 0, 66, 49
3, 44880, Note_on_c, 0, 66, 0
3, 44880, Note_on_c, 0, 60, 0
3, 44880, Note_on_c, 0, 60, 49
3, 44880, Note_on_c, 0, 66, 49
3, 45000, Note_on_c, 0, 66, 0
3, 45000, Note_on_c, 0, 60, 0
3, 45000, Note_on_c, 0, 60, 49
3, 45000, Note_on_c, 0, 66, 49
3, 45120, Note_on_c, 0, 66, 0
3, 45120, Note_on_c, 0, 60, 0
3, 45120, Note_on_c, 0, 60, 49
3, 45120, Note_on_c, 0, 66, 49
3, 45240, Note_on_c, 0, 66, 0
3, 45240, Note_on_c, 0, 60, 0
3, 45240, Note_on_c, 0, 60, 49
3, 45240, Note_on_c, 0, 66, 49
3, 45360, Note_on_c, 0, 66, 0
3, 45360, Note_on_c, 0, 60, 0
3, 45360, Note_on_c, 0, 60, 49
3, 45360, Note_on_c, 0, 66, 49
3, 45480, Note_on_c, 0, 66, 0
3, 45480, Note_on_c, 0, 60, 0
3, 45480, Note_on_c, 0, 60, 49
3, 45480, Note_on_c, 0, 66, 49
3, 45600, Note_on_c, 0, 66, 0
3, 45600, Note_on_c, 0, 60, 0
3, 45600, Note_on_c, 0, 60, 49
3, 45600, Note_on_c, 0, 66, 49
3, 45720, Note_on_c, 0, 66, 0
3, 45720, Note_on_c, 0, 60, 0
3, 45720, Note_on_c, 0, 60, 49
3, 45720, Note_on_c, 0, 66, 49
3, 45840, Note_on_c, 0, 66, 0
3, 45840, Note_on_c, 0, 60, 0
3, 45840, Note_on_c, 0, 60, 49
3, 45840, Note_on_c, 0, 66, 49
3, 45960, Note_on_c, 0, 66, 0
3, 45960, Note_on_c, 0, 60, 0
3, 45960, Note_on_c, 0, 60, 49
3, 45960, Note_on_c, 0, 66, 49
3, 46080, Note_on_c, 0, 66, 0
3, 46080, Note_on_c, 0, 60, 0
3, 46080, Note_on_c, 0, 60, 49
3, 46080, Note_on_c, 0, 66, 49
3, 46200, Note_on_c, 0, 66, 0
3, 46200, Note_on_c, 0, 60, 0
3, 46200, Note_on_c, 0, 60, 49
3, 46200, Note_on_c, 0, 66, 49
3, 46320, Note_on_c, 0, 66, 0
3, 46320, Note_on_c, 0, 60, 0
3, 46320, Note_on_c, 0, 60, 49
3, 46320, Note_on_c, 0, 66, 49
3, 46440, Note_on_c, 0, 66, 0
3, 46440, Note_on_c, 0, 60, 0
3, 46440, Control_c, 0, 64, 0
3, 46440, Note_on_c, 0, 60, 49
3, 46440, Note_on_c, 0, 66, 49
3, 46560, Note_on_c, 0, 66, 0
3, 46560, Note_on_c, 0, 60, 0
3, 46560, Control_c, 0, 64, 127
3, 46560, Note_on_c, 0, 66, 49
3, 46560, Note_on_c, 0, 69, 49
3, 46680, Note_on_c, 0, 69, 0
3, 46680, Note_on_c, 0, 66, 0
3, 46680, Note_on_c, 0, 66, 49
3, 46680, Note_on_c, 0, 69, 49
3, 46800, Note_on_c, 0, 69, 0
3, 46800, Note_on_c, 0, 66, 0
3, 46800, Note_on_c, 0, 66, 49
3, 46800, Note_on_c, 0, 69, 49
3, 46920, Note_on_c, 0, 69, 0
3, 46920, Note_on_c, 0, 66, 0
3, 46920, Note_on_c, 0, 66, 49
3, 46920, Note_on_c, 0, 69, 49
3, 47040, Note_on_c, 0, 69, 0
3, 47040, Note_on_c, 0, 66, 0
3, 47040, Note_on_c, 0, 66, 49
3, 47040, Note_on_c, 0, 69, 49
3, 47160, Note_on_c, 0, 69, 0
3, 47160, Note_on_c, 0, 66, 0
3, 47160, Note_on_c, 0, 66, 49
3, 47160, Note_on_c, 0, 69, 49
3, 47280, Note_on_c, 0, 69, 0
3, 47280, Note_on_c, 0, 66, 0
3, 47280, Note_on_c, 0, 66, 49
3, 47280, Note_on_c, 0, 69, 49
3, 47400, Note_on_c, 0, 69, 0
3, 47400, Note_on_c, 0, 66, 0
3, 47400, Control_c, 0, 64, 0
3, 47400, Note_on_c, 0, 66, 49
3, 47400, Note_on_c, 0, 69, 49
3, 47520, Note_on_c, 0, 69, 0
3, 47520, Note_on_c, 0, 66, 0
3, 47520, Control_c, 0, 64, 127
3, 47520, Note_on_c, 0, 66, 49
3, 47520, Note_on_c, 0, 69, 49
3, 47640, Note_on_c, 0, 69, 0
3, 47640, Note_on_c, 0, 66, 0
3, 47640, Note_on_c, 0, 66, 49
3, 47640, Note_on_c, 0, 69, 49
3, 47760, Note_on_c, 0, 69, 0
3, 47760, Note_on_c, 0, 66, 0
3, 47760, Note_on_c, 0, 66, 49
3, 47760, Note_on_c, 0, 69, 49
3, 47880, Note_on_c, 0, 69, 0
3, 47880, Note_on_c, 0, 66, 0
3, 47880, Note_on_c, 0, 66, 49
3, 47880, Note_on_c, 0, 69, 49
3, 48000, Note_on_c, 0, 69, 0
3, 48000, Note_on_c, 0, 66, 0
3, 48000, Note_on_c, 0, 66, 49
3, 48000, Note_on_c, 0, 69, 49
3, 48120, Note_on_c, 0, 69, 0
3, 48120, Note_on_c, 0, 66, 0
3, 48120, Note_on_c, 0, 66, 49
3, 48120, Note_on_c, 0, 69, 49
3, 48240, Note_on_c, 0, 69, 0
3, 48240, Note_on_c, 0, 66, 0
3, 48240, Note_on_c, 0, 66, 49
3, 48240, Note_on_c, 0, 69, 49
3, 48360, Note_on_c, 0, 69, 0
3, 48360, Note_on_c, 0, 66, 0
3, 48360, Note_on_c, 0, 66, 49
3, 48360, Note_on_c, 0, 69, 49
3, 48480, Note_on_c, 0, 69, 0
3, 48480, Note_on_c, 0, 66, 0
3, 48480, Note_on_c, 0, 66, 49
3, 48480, Note_on_c, 0, 69, 49
3, 48600, Note_on_c, 0, 69, 0
3, 48600, Note_on_c, 0, 66, 0
3, 48600, Note_on_c, 0, 66, 49
3, 48600, Note_on_c, 0, 69, 49
3, 48720, Note_on_c, 0, 69, 0
3, 48720, Note_on_c, 0, 66, 0
3, 48720, Note_on_c, 0, 66, 49
3, 48720, Note_on_c, 0, 69, 49
3, 48840, Note_on_c, 0, 69, 0
3, 48840, Note_on_c, 0, 66, 0
3, 48840, Control_c, 0, 64, 0
3, 48840, Note_on_c, 0, 66, 49
3, 48840, Note_on_c, 0, 69, 49
3, 48960, Note_on_c, 0, 69, 0
3, 48960, Note_on_c, 0, 66, 0
3, 48960, Control_c, 0, 64, 127
3, 48960, Note_on_c, 0, 66, 49
3, 48960, Note_on_c, 0, 72, 49
3, 49080, Note_on_c, 0, 72, 0
3, 49080, Note_on_c, 0, 66, 0
3, 49080, Note_on_c, 0, 66, 49
3, 49080, Note_on_c, 0, 72, 49
3, 49200, Note_on_c, 0, 72, 0
3, 49200, Note_on_c, 0, 66, 0
3, 49200, Note_on_c, 0, 66, 49
3, 49200, Note_on_c, 0, 72, 49
3, 49320, Note_on_c, 0, 72, 0
3, 49320, Note_on_c, 0, 66, 0
3, 49320, Note_on_c, 0, 66, 49
3, 49320, Note_on_c, 0, 72, 49
3, 49440, Note_on_c, 0, 72, 0
3, 49440, Note_on_c, 0, 66, 0
3, 49440, Note_on_c, 0, 66, 49
3, 49440, Note_on_c, 0, 72, 49
3, 49560, Note_on_c, 0, 72, 0
3, 49560, Note_on_c, 0, 66, 0
3, 49560, Note_on_c, 0, 66, 49
3, 49560, Note_on_c, 0, 72, 49
3, 49680, Note_on_c, 0, 72, 0
3, 49680, Note_on_c, 0, 66, 0
3, 49680, Note_on_c, 0, 66, 49
3, 49680, Note_on_c, 0, 72, 49
3, 49800, Note_on_c, 0, 72, 0
3, 49800, Note_on_c, 0, 66, 0
3, 49800, Note_on_c, 0, 66, 49
3, 49800, Note_on_c, 0, 72, 49
3, 49920, Note_on_c, 0, 72, 0
3, 49920, Note_on_c, 0, 66, 0
3, 49920, Note_on_c, 0, 66, 49
3, 49920, Note_on_c, 0, 72, 49
3, 50040, Note_on_c, 0, 72, 0
3, 50040, Note_on_c, 0, 66, 0
3, 50040, Note_on_c, 0, 66, 49
3, 50040, Note_on_c, 0, 72, 49
3, 50160, Note_on_c, 0, 72, 0
3, 50160, Note_on_c, 0, 66, 0
3, 50160, Note_on_c, 0, 66, 49
3, 50160, Note_on_c, 0, 72, 49
3, 50280, Note_on_c, 0, 72, 0
3, 50280, Note_on_c, 0, 66, 0
3, 50280, Control_c, 0, 64, 0
3, 50280, Note_on_c, 0, 66, 49
3, 50280, Note_on_c, 0, 72, 49
3, 50400, Note_on_c, 0, 72, 0
3, 50400, Note_on_c, 0, 66, 0
3, 50400, Control_c, 0, 64, 127
3, 50400, Note_on_c, 0, 71, 49
3, 50400, Note_on_c, 0, 74, 49
3, 50520, Note_on_c, 0, 74, 0
3, 50520, Note_on_c, 0, 71, 0
3, 50520, Note_on_c, 0, 71, 49
3, 50520, Note_on_c, 0, 74, 49
3, 50640, Note_on_c, 0, 74, 0
3, 50640, Note_on_c, 0, 71, 0
3, 50640, Note_on_c, 0, 71, 49
3, 50640, Note_on_c, 0, 74, 49
3, 50760, Note_on_c, 0, 74, 0
3, 50760, Note_on_c, 0, 71, 0
3, 50760, Note_on_c, 0, 71, 49
3, 50760, Note_on_c, 0, 74, 49
3, 50880, Note_on_c, 0, 74, 0
3, 50880, Note_on_c, 0, 71, 0
3, 50880, Note_on_c, 0, 71, 49
3, 50880, Note_on_c, 0, 74, 49
3, 51000, Note_on_c, 0, 74, 0
3, 51000, Note_on_c, 0, 71, 0
3, 51000, Note_on_c, 0, 71, 49
3, 51000, Note_on_c, 0, 74, 49
3, 51120, Note_on_c, 0, 74, 0
3, 51120, Note_on_c, 0, 71, 0
3, 51120, Note_on_c, 0, 71, 49
3, 51120, Note_on_c, 0, 74, 49
3, 51240, Note_on_c, 0, 74, 0
3, 51240, Note_on_c, 0, 71, 0
3, 51240, Control_c, 0, 64, 0
3, 51240, Note_on_c, 0, 71, 49
3, 51240, Note_on_c, 0, 74, 49
3, 51360, Note_on_c, 0, 74, 0
3, 51360, Note_on_c, 0, 71, 0
3, 51360, Control_c, 0, 64, 127
3, 51360, Note_on_c, 0, 67, 49
3, 51360, Note_on_c, 0, 71, 49
3, 51480, Note_on_c, 0, 71, 0
3, 51480, Note_on_c, 0, 67, 0
3, 51480, Note_on_c, 0, 67, 49
3, 51480, Note_on_c, 0, 71, 49
3, 51600, Note_on_c, 0, 71, 0
3, 51600, Note_on_c, 0, 67, 0
3, 51600, Note_on_c, 0, 67, 49
3, 51600, Note_on_c, 0, 71, 49
3, 51720, Note_on_c, 0, 71, 0
3, 51720, Note_on_c, 0, 67, 0
3, 51720, Note_on_c, 0, 67, 49
3, 51720, Note_on_c, 0, 71, 49
3, 51840, Note_on_c, 0, 71, 0
3, 51840, Note_on_c, 0, 67, 0
3, 51840, Note_on_c, 0, 67, 49
3, 51840, Note_on_c, 0, 71, 49
3, 51960, Note_on_c, 0, 71, 0
3, 51960, Note_on_c, 0, 67, 0
3, 51960, Note_on_c, 0, 67, 49
3, 51960, Note_on_c, 0, 71, 49
3, 52080, Note_on_c, 0, 71, 0
3, 52080, Note_on_c, 0, 67, 0
3, 52080, Note_on_c, 0, 67, 49
3, 52080, Note_on_c, 0, 71, 49
3, 52200, Note_on_c, 0, 71, 0
3, 52200, Note_on_c, 0, 67, 0
3, 52200, Note_on_c, 0, 67, 49
3, 52200, Note_on_c, 0, 71, 49
3, 52320, Note_on_c, 0, 71, 0
3, 52320, Note_on_c, 0, 67, 0
3, 52320, Note_on_c, 0, 67, 49
3, 52320, Note_on_c, 0, 71, 49
3, 52440, Note_on_c, 0, 71, 0
3, 52440, Note_on_c, 0, 67, 0
3, 52440, Note_on_c, 0, 67, 49
3, 52440, Note_on_c, 0, 71, 49
3, 52560, Note_on_c, 0, 71, 0
3, 52560, Note_on_c, 0, 67, 0
3, 52560, Note_on_c, 0, 67, 49
3, 52560, Note_on_c, 0, 71, 49
3, 52680, Note_on_c, 0, 71, 0
3, 52680, Note_on_c, 0, 67, 0
3, 52680, Control_c, 0, 64, 0
3, 52680, Note_on_c, 0, 67, 49
3, 52680, Note_on_c, 0, 71, 49
3, 52800, Note_on_c, 0, 71, 0
3, 52800, Note_on_c, 0, 67, 0
3, 52800, Control_c, 0, 64, 127
3, 52800, Note_on_c, 0, 71, 49
3, 52800, Note_on_c, 0, 74, 49
3, 52920, Note_on_c, 0, 74, 0
3, 52920, Note_on_c, 0, 71, 0
3, 52920, Note_on_c, 0, 71, 49
3, 52920, Note_on_c, 0, 74, 49
3, 53040, Note_on_c, 0, 74, 0
3, 53040, Note_on_c, 0, 71, 0
3, 53040, Note_on_c, 0, 71, 49
3, 53040, Note_on_c, 0, 74, 49
3, 53160, Note_on_c, 0, 74, 0
3, 53160, Note_on_c, 0, 71, 0
3, 53160, Note_on_c, 0, 71, 49
3, 53160, Note_on_c, 0, 74, 49
3, 53280, Note_on_c, 0, 74, 0
3, 53280, Note_on_c, 0, 71, 0
3, 53280, Note_on_c, 0, 71, 49
3, 53280, Note_on_c, 0, 74, 49
3, 53400, Note_on_c, 0, 74, 0
3, 53400, Note_on_c, 0, 71, 0
3, 53400, Note_on_c, 0, 71, 49
3, 53400, Note_on_c, 0, 74, 49
3, 53520, Note_on_c, 0, 74, 0
3, 53520, Note_on_c, 0, 71, 0
3, 53520, Note_on_c, 0, 71, 49
3, 53520, Note_on_c, 0, 74, 49
3, 53640, Note_on_c, 0, 74, 0
3, 53640, Note_on_c, 0, 71, 0
3, 53640, Control_c, 0, 64, 0
3, 53640, Note_on_c, 0, 71, 49
3, 53640, Note_on_c, 0, 74, 49
3, 53760, Note_on_c, 0, 74, 0
3, 53760, Note_on_c, 0, 71, 0
3, 53760, Control_c, 0, 64, 127
3, 53760, Note_on_c, 0, 67, 49
3, 53760, Note_on_c, 0, 71, 49
3, 53880, Note_on_c, 0, 71, 0
3, 53880, Note_on_c, 0, 67, 0
3, 53880, Note_on_c, 0, 67, 49
3, 53880, Note_on_c, 0, 71, 49
3, 54000, Note_on_c, 0, 71, 0
3, 54000, Note_on_c, 0, 67, 0
3, 54000, Note_on_c, 0, 67, 49
3, 54000, Note_on_c, 0, 71, 49
3, 54120, Note_on_c, 0, 71, 0
3, 54120, Note_on_c, 0, 67, 0
3, 54120, Control_c, 0, 64, 0
3, 54120, Note_on_c, 0, 67, 49
3, 54120, Note_on_c, 0, 71, 49
3, 54240, Note_on_c, 0, 71, 0
3, 54240, Note_on_c, 0, 67, 0
3, 54240, Control_c, 0, 64, 127
3, 54240, Note_on_c, 0, 64, 49
3, 54240, Note_on_c, 0, 67, 49
3, 54360, Note_on_c, 0, 67, 0
3, 54360, Note_on_c, 0, 64, 0
3, 54360, Note_on_c, 0, 64, 49
3, 54360, Note_on_c, 0, 67, 49
3, 54480, Note_on_c, 0, 67, 0
3, 54480, Note_on_c, 0, 64, 0
3, 54480, Note_on_c, 0, 64, 49
3, 54480, Note_on_c, 0, 67, 49
3, 54600, Note_on_c, 0, 67, 0
3, 54600, Note_on_c, 0, 64, 0
3, 54600, Control_c, 0, 64, 0
3, 54600, Note_on_c, 0, 64, 49
3, 54600, Note_on_c, 0, 67, 49
3, 54720, Note_on_c, 0, 67, 0
3, 54720, Note_on_c, 0, 64, 0
3, 54720, Control_c, 0, 64, 127
3, 54720, Note_on_c, 0, 67, 49
3, 54720, Note_on_c, 0, 69, 49
3, 54840, Note_on_c, 0, 69, 0
3, 54840, Note_on_c, 0, 67, 0
3, 54840, Note_on_c, 0, 67, 49
3, 54840, Note_on_c, 0, 69, 49
3, 54960, Note_on_c, 0, 69, 0
3, 54960, Note_on_c, 0, 67, 0
3, 54960, Note_on_c, 0, 67, 49
3, 54960, Note_on_c, 0, 69, 49
3, 55080, Note_on_c, 0, 69, 0
3, 55080, Note_on_c, 0, 67, 0
3, 55080, Note_on_c, 0, 67, 49
3, 55080, Note_on_c, 0, 69, 49
3, 55200, Note_on_c, 0, 69, 0
3, 55200, Note_on_c, 0, 67, 0
3, 55200, Note_on_c, 0, 67, 49
3, 55200, Note_on_c, 0, 69, 49
3, 55320, Note_on_c, 0, 69, 0
3, 55320, Note_on_c, 0, 67, 0
3, 55320, Note_on_c, 0, 67, 49
3, 55320, Note_on_c, 0, 69, 49
3, 55440, Note_on_c, 0, 69, 0
3, 55440, Note_on_c, 0, 67, 0
3, 55440, Note_on_c, 0, 67, 49
3, 55440, Note_on_c, 0, 69, 49
3, 55560, Note_on_c, 0, 69, 0
3, 55560, Note_on_c, 0, 67, 0
3, 55560, Note_on_c, 0, 67, 49
3, 55560, Note_on_c, 0, 69, 49
3, 55680, Note_on_c, 0, 69, 0
3, 55680, Note_on_c, 0, 67, 0
3, 55680, Note_on_c, 0, 67, 49
3, 55680, Note_on_c, 0, 69, 49
3, 55800, Note_on_c, 0, 69, 0
3, 55800, Note_on_c, 0, 67, 0
3, 55800, Note_on_c, 0, 67, 49
3, 55800, Note_on_c, 0, 69, 49
3, 55920, Note_on_c, 0, 69, 0
3, 55920, Note_on_c, 0, 67, 0
3, 55920, Note_on_c, 0, 67, 49
3, 55920, Note_on_c, 0, 69, 49
3, 56040, Note_on_c, 0, 69, 0
3, 56040, Note_on_c, 0, 67, 0
3, 56040, Control_c, 0, 64, 0
3, 56040, Note_on_c, 0, 67, 49
3, 56040, Note_on_c, 0, 69, 49
3, 56160, Note_on_c, 0, 69, 0
3, 56160, Note_on_c, 0, 67, 0
3, 56160, Control_c, 0, 64, 127
3, 56160, Note_on_c, 0, 67, 49
3, 56160, Note_on_c, 0, 71, 49
3, 56280, Note_on_c, 0, 71, 0
3, 56280, Note_on_c, 0, 67, 0
3, 56280, Note_on_c, 0, 67, 49
3, 56280, Note_on_c, 0, 71, 49
3, 56400, Note_on_c, 0, 71, 0
3, 56400, Note_on_c, 0, 67, 0
3, 56400, Note_on_c, 0, 67, 49
3, 56400, Note_on_c, 0, 71, 49
3, 56520, Note_on_c, 0, 71, 0
3, 56520, Note_on_c, 0, 67, 0
3, 56520, Control_c, 0, 64, 0
3, 56520, Note_on_c, 0, 67, 49
3, 56520, Note_on_c, 0, 71, 49
3, 56640, Note_on_c, 0, 71, 0
3, 56640, Note_on_c, 0, 67, 0
3, 56640, Control_c, 0, 64, 127
3, 56640, Note_on_c, 0, 71, 49
3, 56640, Note_on_c, 0, 76, 49
3, 56760, Note_on_c, 0, 76, 0
3, 56760, Note_on_c, 0, 71, 0
3, 56760, Note_on_c, 0, 71, 49
3, 56760, Note_on_c, 0, 76, 49
3, 56880, Note_on_c, 0, 76, 0
3, 56880, Note_on_c, 0, 71, 0
3, 56880, Note_on_c, 0, 71, 49
3, 56880, Note_on_c, 0, 76, 49
3, 57000, Note_on_c, 0, 76, 0
3, 57000, Note_on_c, 0, 71, 0
3, 57000, Note_on_c, 0, 71, 49
3, 57000, Note_on_c, 0, 76, 49
3, 57120, Note_on_c, 0, 76, 0
3, 57120, Note_on_c, 0, 71, 0
3, 57120, Note_on_c, 0, 71, 49
3, 57120, Note_on_c, 0, 76, 49
3, 57240, Note_on_c, 0, 76, 0
3, 57240, Note_on_c, 0, 71, 0
3, 57240, Note_on_c, 0, 71, 49
3, 57240, Note_on_c, 0, 76, 49
3, 57360, Note_on_c, 0, 76, 0
3, 57360, Note_on_c, 0, 71, 0
3, 57360, Note_on_c, 0, 71, 49
3, 57360, Note_on_c, 0, 76, 49
3, 57480, Note_on_c, 0, 76, 0
3, 57480, Note_on_c, 0, 71, 0
3, 57480, Control_c, 0, 64, 0
3, 57480, Note_on_c, 0, 71, 49
3, 57480, Note_on_c, 0, 76, 49
3, 57600, Note_on_c, 0, 76, 0
3, 57600, Note_on_c, 0, 71, 0
3, 57600, Control_c, 0, 64, 127
3, 57600, Note_on_c, 0, 71, 49
3, 57600, Note_on_c, 0, 74, 49
3, 57720, Note_on_c, 0, 74, 0
3, 57720, Note_on_c, 0, 71, 0
3, 57720, Note_on_c, 0, 71, 49
3, 57720, Note_on_c, 0, 74, 49
3, 57840, Note_on_c, 0, 74, 0
3, 57840, Note_on_c, 0, 71, 0
3, 57840, Note_on_c, 0, 71, 49
3, 57840, Note_on_c, 0, 74, 49
3, 57960, Note_on_c, 0, 74, 0
3, 57960, Note_on_c, 0, 71, 0
3, 57960, Control_c, 0, 64, 0
3, 57960, Note_on_c, 0, 71, 49
3, 57960, Note_on_c, 0, 74, 49
3, 58080, Note_on_c, 0, 74, 0
3, 58080, Note_on_c, 0, 71, 0
3, 58080, Control_c, 0, 64, 127
3, 58080, Note_on_c, 0, 74, 49
3, 58080, Note_on_c, 0, 79, 49
3, 58200, Note_on_c, 0, 79, 0
3, 58200, Note_on_c, 0, 74, 0
3, 58200, Note_on_c, 0, 74, 49
3, 58200, Note_on_c, 0, 79, 49
3, 58320, Note_on_c, 0, 79, 0
3, 58320, Note_on_c, 0, 74, 0
3, 58320, Note_on_c, 0, 74, 49
3, 58320, Note_on_c, 0, 79, 49
3, 58440, Note_on_c, 0, 79, 0
3, 58440, Note_on_c, 0, 74, 0
3, 58440, Note_on_c, 0, 74, 49
3, 58440, Note_on_c, 0, 79, 49
3, 58560, Note_on_c, 0, 79, 0
3, 58560, Note_on_c, 0, 74, 0
3, 58560, Note_on_c, 0, 74, 49
3, 58560, Note_on_c, 0, 79, 49
3, 58680, Note_on_c, 0, 79, 0
3, 58680, Note_on_c, 0, 74, 0
3, 58680, Note_on_c, 0, 74, 49
3, 58680, Note_on_c, 0, 79, 49
3, 58800, Note_on_c, 0, 79, 0
3, 58800, Note_on_c, 0, 74, 0
3, 58800, Note_on_c, 0, 74, 49
3, 58800, Note_on_c, 0, 79, 49
3, 58920, Note_on_c, 0, 79, 0
3, 58920, Note_on_c, 0, 74, 0
3, 58920, Control_c, 0, 64, 0
3, 58920, Note_on_c, 0, 74, 49
3, 58920, Note_on_c, 0, 79, 49
3, 59040, Note_on_c, 0, 79, 0
3, 59040, Note_on_c, 0, 74, 0
3, 59040, Control_c, 0, 64, 127
3, 59040, Note_on_c, 0, 79, 49
3, 59040, Note_on_c, 0, 81, 49
3, 59160, Note_on_c, 0, 81, 0
3, 59160, Note_on_c, 0, 79, 0
3, 59160, Note_on_c, 0, 79, 49
3, 59160, Note_on_c, 0, 81, 49
3, 59280, Note_on_c, 0, 81, 0
3, 59280, Note_on_c, 0, 79, 0
3, 59280, Note_on_c, 0, 79, 49
3, 59280, Note_on_c, 0, 81, 49
3, 59400, Note_on_c, 0, 81, 0
3, 59400, Note_on_c, 0, 79, 0
3, 59400, Note_on_c, 0, 79, 49
3, 59400, Note_on_c, 0, 81, 49
3, 59520, Note_on_c, 0, 81, 0
3, 59520, Note_on_c, 0, 79, 0
3, 59520, Note_on_c, 0, 79, 49
3, 59520, Note_on_c, 0, 81, 49
3, 59640, Note_on_c, 0, 81, 0
3, 59640, Note_on_c, 0, 79, 0
3, 59640, Control_c, 0, 64, 0
3, 59640, Note_on_c, 0, 79, 49
3, 59640, Note_on_c, 0, 81, 49
3, 59760, Note_on_c, 0, 81, 0
3, 59760, Note_on_c, 0, 79, 0
3, 59760, Control_c, 0, 64, 127
3, 59760, Note_on_c, 0, 78, 49
3, 59760, Note_on_c, 0, 81, 49
3, 59880, Note_on_c, 0, 81, 0
3, 59880, Note_on_c, 0, 78, 0
3, 59880, Note_on_c, 0, 78, 49
3, 59880, Note_on_c, 0, 81, 49
3, 60000, Note_on_c, 0, 81, 0
3, 60000, Note_on_c, 0, 78, 0
3, 60000, Note_on_c, 0, 78, 49
3, 60000, Note_on_c, 0, 81, 49
3, 60120, Note_on_c, 0, 81, 0
3, 60120, Note_on_c, 0, 78, 0
3, 60120, Note_on_c, 0, 78, 49
3, 60120, Note_on_c, 0, 81, 49
3, 60240, Note_on_c, 0, 81, 0
3, 60240, Note_on_c, 0, 78, 0
3, 60240, Note_on_c, 0, 78, 49
3, 60240, Note_on_c, 0, 81, 49
3, 60360, Note_on_c, 0, 81, 0
3, 60360, Note_on_c, 0, 78, 0
3, 60360, Control_c, 0, 64, 0
3, 60360, Note_on_c, 0, 78, 49
3, 60360, Note_on_c, 0, 81, 49
3, 60480, Note_on_c, 0, 81, 0
3, 60480, Note_on_c, 0, 78, 0
3, 60480, Note_on_c, 0, 55, 49
3, 60480, Note_on_c, 0, 59, 49
3, 60480, Note_on_c, 0, 62, 49
3, 60480, Note_on_c, 0, 67, 49
3, 60480, Note_on_c, 0, 71, 49
3, 60480, Note_on_c, 0, 74, 49
3, 60480, Note_on_c, 0, 79, 49
3, 60720, Note_on_c, 0, 79, 0
3, 60720, Note_on_c, 0, 71, 0
3, 60720, Note_on_c, 0, 59, 0
3, 60720, Note_on_c, 0, 62, 0
3, 60720, Note_on_c, 0, 55, 0
3, 60720, Note_on_c, 0, 74, 0
3, 60720, Note_on_c, 0, 67, 0
3, 66480, Control_c, 0, 64, 127
3, 66480, Note_on_c, 0, 62, 75
3, 66540, Note_on_c, 0, 62, 0
3, 66540, Note_on_c, 0, 66, 75
3, 66600, Note_on_c, 0, 66, 0
3, 66600, Note_on_c, 0, 69, 75
3, 66660, Note_on_c, 0, 69, 0
3, 66660, Note_on_c, 0, 72, 75
3, 66720, Note_on_c, 0, 72, 0
3, 66720, Note_on_c, 0, 74, 75
3, 66759, Note_on_c, 0, 74, 0
3, 66759, Note_on_c, 0, 78, 75
3, 66800, Note_on_c, 0, 78, 0
3, 66800, Note_on_c, 0, 81, 75
3, 66840, Note_on_c, 0, 81, 0
3, 66840, Note_on_c, 0, 86, 75
3, 66879, Note_on_c, 0, 86, 0
3, 66879, Note_on_c, 0, 90, 75
3, 66920, Note_on_c, 0, 90, 0
3, 66920, Note_on_c, 0, 93, 75
3, 66960, Note_on_c, 0, 93, 0
3, 66960, Note_on_c, 0, 98, 75
3, 66999, Note_on_c, 0, 98, 0
3, 66999, Note_on_c, 0, 96, 75
3, 67040, Note_on_c, 0, 96, 0
3, 67040, Note_on_c, 0, 93, 75
3, 67080, Note_on_c, 0, 93, 0
3, 67080, Note_on_c, 0, 90, 75
3, 67119, Note_on_c, 0, 90, 0
3, 67119, Note_on_c, 0, 86, 75
3, 67160, Note_on_c, 0, 86, 0
3, 67160, Note_on_c, 0, 84, 75
3, 67200, Note_on_c, 0, 84, 0
3, 67200, Note_on_c, 0, 81, 75
3, 67239, Note_on_c, 0, 81, 0
3, 67239, Note_on_c, 0, 78, 75
3, 67280, Note_on_c, 0, 78, 0
3, 67280, Note_on_c, 0, 74, 75
3, 67320, Note_on_c, 0, 74, 0
3, 67320, Note_on_c, 0, 72, 75
3, 67359, Note_on_c, 0, 72, 0
3, 67359, Note_on_c, 0, 69, 75
3, 67400, Note_on_c, 0, 69, 0
3, 67400, Note_on_c, 0, 66, 75
3, 67440, Note_on_c, 0, 66, 0
3, 67440, Control_c, 0, 64, 0
3, 67440, Note_on_c, 0, 62, 75
3, 67680, Note_on_c, 0, 62, 0
3, 73440, Control_c, 0, 64, 127
3, 73440, Note_on_c, 0, 71, 49
3, 73440, Note_on_c, 0, 74, 49
3, 73560, Note_on_c, 0, 74, 0
3, 73560, Note_on_c, 0, 71, 0
3, 73560, Note_on_c, 0, 71, 49
3, 73560, Note_on_c, 0, 74, 49
3, 73680, Note_on_c, 0, 74, 0
3, 73680, Note_on_c, 0, 71, 0
3, 73680, Note_on_c, 0, 71, 49
3, 73680, Note_on_c, 0, 74, 49
3, 73800, Note_on_c, 0, 74, 0
3, 73800, Note_on_c, 0, 71, 0
3, 73800, Note_on_c, 0, 71, 49
3, 73800, Note_on_c, 0, 74, 49
3, 73920, Note_on_c, 0, 74, 0
3, 73920, Note_on_c, 0, 71, 0
3, 73920, Note_on_c, 0, 71, 49
3, 73920, Note_on_c, 0, 74, 49
3, 74040, Note_on_c, 0, 74, 0
3, 74040, Note_on_c, 0, 71, 0
3, 74040, Note_on_c, 0, 71, 49
3, 74040, Note_on_c, 0, 74, 49
3, 74160, Note_on_c, 0, 74, 0
3, 74160, Note_on_c, 0, 71, 0
3, 74160, Note_on_c, 0, 71, 49
3, 74160, Note_on_c, 0, 74, 49
3, 74280, Note_on_c, 0, 74, 0
3, 74280, Note_on_c, 0, 71, 0
3, 74280, Control_c, 0, 64, 0
3, 74280, Note_on_c, 0, 71, 49
3, 74280, Note_on_c, 0, 74, 49
3, 74400, Note_on_c, 0, 74, 0
3, 74400, Note_on_c, 0, 71, 0
3, 74400, Control_c, 0, 64, 127
3, 74400, Note_on_c, 0, 67, 49
3, 74400, Note_on_c, 0, 71, 49
3, 74520, Note_on_c, 0, 71, 0
3, 74520, Note_on_c, 0, 67, 0
3, 74520, Note_on_c, 0, 67, 49
3, 74520, Note_on_c, 0, 71, 49
3, 74640, Note_on_c, 0, 71, 0
3, 74640, Note_on_c, 0, 67, 0
3, 74640, Note_on_c, 0, 67, 49
3, 74640, Note_on_c, 0, 71, 49
3, 74760, Note_on_c, 0, 71, 0
3, 74760, Note_on_c, 0, 67, 0
3, 74760, Note_on_c, 0, 67, 49
3, 74760, Note_on_c, 0, 71, 49
3, 74880, Note_on_c, 0, 71, 0
3, 74880, Note_on_c, 0, 67, 0
3, 74880, Note_on_c, 0, 67, 49
3, 74880, Note_on_c, 0, 71, 49
3, 75000, Note_on_c, 0, 71, 0
3, 75000, Note_on_c, 0, 67, 0
3, 75000, Note_on_c, 0, 67, 49
3, 75000, Note_on_c, 0, 71, 49
3, 75120, Note_on_c, 0, 71, 0
3, 75120, Note_on_c, 0, 67, 0
3, 75120, Note_on_c, 0, 67, 49
3, 75120, Note_on_c, 0, 71, 49
3, 75240, Note_on_c, 0, 71, 0
3, 75240, Note_on_c, 0, 67, 0
3, 75240, Note_on_c, 0, 67, 49
3, 75240, Note_on_c, 0, 71, 49
3, 75360, Note_on_c, 0, 71, 0
3, 75360, Note_on_c, 0, 67, 0
3, 75360, Note_on_c, 0, 67, 49
3, 75360, Note_on_c, 0, 71, 49
3, 75480, Note_on_c, 0, 71, 0
3, 75480, Note_on_c, 0, 67, 0
3, 75480, Note_on_c, 0, 67, 49
3, 75480, Note_on_c, 0, 71, 49
3, 75600, Note_on_c, 0, 71, 0
3, 75600, Note_on_c, 0, 67, 0
3, 75600, Note_on_c, 0, 67, 49
3, 75600, Note_on_c, 0, 71, 49
3, 75720, Note_on_c, 0, 71, 0
3, 75720, Note_on_c, 0, 67, 0
3, 75720, Control_c, 0, 64, 0
3, 75720, Note_on_c, 0, 67, 49
3, 75720, Note_on_c, 0, 71, 49
3, 75840, Note_on_c, 0, 71, 0
3, 75840, Note_on_c, 0, 67, 0
3, 75840, Control_c, 0, 64, 127
3, 75840, Note_on_c, 0, 71, 49
3, 75840, Note_on_c, 0, 74, 49
3, 75960, Note_on_c, 0, 74, 0
3, 75960, Note_on_c, 0, 71, 0
3, 75960, Note_on_c, 0, 71, 49
3, 75960, Note_on_c, 0, 74, 49
3, 76080, Note_on_c, 0, 74, 0
3, 76080, Note_on_c, 0, 71, 0
3, 76080, Note_on_c, 0, 71, 49
3, 76080, Note_on_c, 0, 74, 49
3, 76200, Note_on_c, 0, 74, 0
3, 76200, Note_on_c, 0, 71, 0
3, 76200, Note_on_c, 0, 71, 49
3, 76200, Note_on_c, 0, 74, 49
3, 76320, Note_on_c, 0, 74, 0
3, 76320, Note_on_c, 0, 71, 0
3, 76320, Note_on_c, 0, 71, 49
3, 76320, Note_on_c, 0, 74, 49
3, 76440, Note_on_c, 0, 74, 0
3, 76440, Note_on_c, 0, 71, 0
3, 76440, Note_on_c, 0, 71, 49
3, 76440, Note_on_c, 0, 74, 49
3, 76560, Note_on_c, 0, 74, 0
3, 76560, Note_on_c, 0, 71, 0
3, 76560, Note_on_c, 0, 71, 49
3, 76560, Note_on_c, 0, 74, 49
3, 76680, Note_on_c, 0, 74, 0
3, 76680, Note_on_c, 0, 71, 0
3, 76680, Note_on_c, 0, 71, 49
3, 76680, Note_on_c, 0, 74, 49
3, 76800, Note_on_c, 0, 74, 0
3, 76800, Note_on_c, 0, 71, 0
3, 76800, Note_on_c, 0, 71, 49
3, 76800, Note_on_c, 0, 74, 49
3, 76920, Note_on_c, 0, 74, 0
3, 76920, Note_on_c, 0, 71, 0
3, 76920, Note_on_c, 0, 71, 49
3, 76920, Note_on_c, 0, 74, 49
3, 77040, Note_on_c, 0, 74, 0
3, 77040, Note_on_c, 0, 71, 0
3, 77040, Note_on_c, 0, 71, 49
3, 77040, Note_on_c, 0, 74, 49
3, 77160, Note_on_c, 0, 74, 0
3, 77160, Note_on_c, 0, 71, 0
3, 77160, Control_c, 0, 64, 0
3, 77160, Note_on_c, 0, 71, 49
3, 77160, Note_on_c, 0, 74, 49
3, 77280, Note_on_c, 0, 74, 0
3, 77280, Note_on_c, 0, 71, 0
3, 77280, Control_c, 0, 64, 127
3, 77280, Note_on_c, 0, 67, 49
3, 77280, Note_on_c, 0, 71, 49
3, 77400, Note_on_c, 0, 71, 0
3, 77400, Note_on_c, 0, 67, 0
3, 77400, Note_on_c, 0, 67, 49
3, 77400, Note_on_c, 0, 71, 49
3, 77520, Note_on_c, 0, 71, 0
3, 77520, Note_on_c, 0, 67, 0
3, 77520, Note_on_c, 0, 67, 49
3, 77520, Note_on_c, 0, 71, 49
3, 77640, Note_on_c, 0, 71, 0
3, 77640, Note_on_c, 0, 67, 0
3, 77640, Control_c, 0, 64, 0
3, 77640, Note_on_c, 0, 67, 49
3, 77640, Note_on_c, 0, 71, 49
3, 77760, Note_on_c, 0, 71, 0
3, 77760, Note_on_c, 0, 67, 0
3, 77760, Control_c, 0, 64, 127
3, 77760, Note_on_c, 0, 64, 49
3, 77760, Note_on_c, 0, 69, 49
3, 77880, Note_on_c, 0, 69, 0
3, 77880, Note_on_c, 0, 64, 0
3, 77880, Note_on_c, 0, 64, 49
3, 77880, Note_on_c, 0, 69, 49
3, 78000, Note_on_c, 0, 69, 0
3, 78000, Note_on_c, 0, 64, 0
3, 78000, Note_on_c, 0, 64, 49
3, 78000, Note_on_c, 0, 69, 49
3, 78120, Note_on_c, 0, 69, 0
3, 78120, Note_on_c, 0, 64, 0
3, 78120, Note_on_c, 0, 64, 49
3, 78120, Note_on_c, 0, 69, 49
3, 78240, Note_on_c, 0, 69, 0
3, 78240, Note_on_c, 0, 64, 0
3, 78240, Note_on_c, 0, 64, 49
3, 78240, Note_on_c, 0, 69, 49
3, 78360, Note_on_c, 0, 69, 0
3, 78360, Note_on_c, 0, 64, 0
3, 78360, Note_on_c, 0, 64, 49
3, 78360, Note_on_c, 0, 69, 49
3, 78480, Note_on_c, 0, 69, 0
3, 78480, Note_on_c, 0, 64, 0
3, 78480, Note_on_c, 0, 64, 49
3, 78480, Note_on_c, 0, 69, 49
3, 78600, Note_on_c, 0, 69, 0
3, 78600, Note_on_c, 0, 64, 0
3, 78600, Note_on_c, 0, 64, 49
3, 78600, Note_on_c, 0, 69, 49
3, 78720, Note_on_c, 0, 69, 0
3, 78720, Note_on_c, 0, 64, 0
3, 78720, Note_on_c, 0, 64, 49
3, 78720, Note_on_c, 0, 69, 49
3, 78840, Note_on_c, 0, 69, 0
3, 78840, Note_on_c, 0, 64, 0
3, 78840, Note_on_c, 0, 64, 49
3, 78840, Note_on_c, 0, 69, 49
3, 78960, Note_on_c, 0, 69, 0
3, 78960, Note_on_c, 0, 64, 0
3, 78960, Note_on_c, 0, 64, 49
3, 78960, Note_on_c, 0, 69, 49
3, 79080, Note_on_c, 0, 69, 0
3, 79080, Note_on_c, 0, 64, 0
3, 79080, Control_c, 0, 64, 0
3, 79080, Note_on_c, 0, 64, 49
3, 79080, Note_on_c, 0, 69, 49
3, 79200, Note_on_c, 0, 69, 0
3, 79200, Note_on_c, 0, 64, 0
3, 79200, Control_c, 0, 64, 127
3, 79200, Note_on_c, 0, 60, 49
3, 79200, Note_on_c, 0, 66, 49
3, 79320, Note_on_c, 0, 66, 0
3, 79320, Note_on_c, 0, 60, 0
3, 79320, Note_on_c, 0, 60, 49
3, 79320, Note_on_c, 0, 66, 49
3, 79440, Note_on_c, 0, 66, 0
3, 79440, Note_on_c, 0, 60, 0
3, 79440, Note_on_c, 0, 60, 49
3, 79440, Note_on_c, 0, 66, 49
3, 79560, Note_on_c, 0, 66, 0
3, 79560, Note_on_c, 0, 60, 0
3, 79560, Note_on_c, 0, 60, 49
3, 79560, Note_on_c, 0, 66, 49
3, 79680, Note_on_c, 0, 66, 0
3, 79680, Note_on_c, 0, 60, 0
3, 79680, Note_on_c, 0, 60, 49
3, 79680, Note_on_c, 0, 66, 49
3, 79800, Note_on_c, 0, 66, 0
3, 79800, Note_on_c, 0, 60, 0
3, 79800, Note_on_c, 0, 60, 49
3, 79800, Note_on_c, 0, 66, 49
3, 79920, Note_on_c, 0, 66, 0
3, 79920, Note_on_c, 0, 60, 0
3, 79920, Note_on_c, 0, 60, 49
3, 79920, Note_on_c, 0, 66, 49
3, 80040, Note_on_c, 0, 66, 0
3, 80040, Note_on_c, 0, 60, 0
3, 80040, Note_on_c, 0, 60, 49
3, 80040, Note_on_c, 0, 66, 49
3, 80160, Note_on_c, 0, 66, 0
3, 80160, Note_on_c, 0, 60, 0
3, 80160, Note_on_c, 0, 60, 49
3, 80160, Note_on_c, 0, 66, 49
3, 80280, Note_on_c, 0, 66, 0
3, 80280, Note_on_c, 0, 60, 0
3, 80280, Note_on_c, 0, 60, 49
3, 80280, Note_on_c, 0, 66, 49
3, 80400, Note_on_c, 0, 66, 0
3, 80400, Note_on_c, 0, 60, 0
3, 80400, Note_on_c, 0, 60, 49
3, 80400, Note_on_c, 0, 66, 49
3, 80520, Note_on_c, 0, 66, 0
3, 80520, Note_on_c, 0, 60, 0
3, 80520, Note_on_c, 0, 60, 49
3, 80520, Note_on_c, 0, 66, 49
3, 80640, Note_on_c, 0, 66, 0
3, 80640, Note_on_c, 0, 60, 0
3, 80640, Note_on_c, 0, 60, 49
3, 80640, Note_on_c, 0, 66, 49
3, 80760, Note_on_c, 0, 66, 0
3, 80760, Note_on_c, 0, 60, 0
3, 80760, Note_on_c, 0, 60, 49
3, 80760, Note_on_c, 0, 66, 49
3, 80880, Note_on_c, 0, 66, 0
3, 80880, Note_on_c, 0, 60, 0
3, 80880, Note_on_c, 0, 60, 49
3, 80880, Note_on_c, 0, 66, 49
3, 81000, Note_on_c, 0, 66, 0
3, 81000, Note_on_c, 0, 60, 0
3, 81000, Control_c, 0, 64, 0
3, 81000, Note_on_c, 0, 60, 49
3, 81000, Note_on_c, 0, 66, 49
3, 81120, Note_on_c, 0, 66, 0
3, 81120, Note_on_c, 0, 60, 0
3, 81120, Control_c, 0, 64, 127
3, 81120, Note_on_c, 0, 66, 49
3, 81120, Note_on_c, 0, 69, 49
3, 81240, Note_on_c, 0, 69, 0
3, 81240, Note_on_c, 0, 66, 0
3, 81240, Note_on_c, 0, 66, 49
3, 81240, Note_on_c, 0, 69, 49
3, 81360, Note_on_c, 0, 69, 0
3, 81360, Note_on_c, 0, 66, 0
3, 81360, Note_on_c, 0, 66, 49
3, 81360, Note_on_c, 0, 69, 49
3, 81480, Note_on_c, 0, 69, 0
3, 81480, Note_on_c, 0, 66, 0
3, 81480, Note_on_c, 0, 66, 49
3, 81480, Note_on_c, 0, 69, 49
3, 81600, Note_on_c, 0, 69, 0
3, 81600, Note_on_c, 0, 66, 0
3, 81600, Note_on_c, 0, 66, 49
3, 81600, Note_on_c, 0, 69, 49
3, 81720, Note_on_c, 0, 69, 0
3, 81720, Note_on_c, 0, 66, 0
3, 81720, Note_on_c, 0, 66, 49
3, 81720, Note_on_c, 0, 69, 49
3, 81840, Note_on_c, 0, 69, 0
3, 81840, Note_on_c, 0, 66, 0
3, 81840, Note_on_c, 0, 66, 49
3, 81840, Note_on_c, 0, 69, 49
3, 81960, Note_on_c, 0, 69, 0
3, 81960, Note_on_c, 0, 66, 0
3, 81960, Control_c, 0, 64, 0
3, 81960, Note_on_c, 0, 66, 49
3, 81960, Note_on_c, 0, 69, 49
3, 82080, Note_on_c, 0, 69, 0
3, 82080, Note_on_c, 0, 66, 0
3, 82080, Control_c, 0, 64, 127
3, 82080, Note_on_c, 0, 66, 49
3, 82080, Note_on_c, 0, 69, 49
3, 82200, Note_on_c, 0, 69, 0
3, 82200, Note_on_c, 0, 66, 0
3, 82200, Note_on_c, 0, 66, 49
3, 82200, Note_on_c, 0, 69, 49
3, 82320, Note_on_c, 0, 69, 0
3, 82320, Note_on_c, 0, 66, 0
3, 82320, Note_on_c, 0, 66, 49
3, 82320, Note_on_c, 0, 69, 49
3, 82440, Note_on_c, 0, 69, 0
3, 82440, Note_on_c, 0, 66, 0
3, 82440, Note_on_c, 0, 66, 49
3, 82440, Note_on_c, 0, 69, 49
3, 82560, Note_on_c, 0, 69, 0
3, 82560, Note_on_c, 0, 66, 0
3, 82560, Note_on_c, 0, 66, 49
3, 82560, Note_on_c, 0, 69, 49
3, 82680, Note_on_c, 0, 69, 0
3, 82680, Note_on_c, 0, 66, 0
3, 82680, Note_on_c, 0, 66, 49
3, 82680, Note_on_c, 0, 69, 49
3, 82800, Note_on_c, 0, 69, 0
3, 82800, Note_on_c, 0, 66, 0
3, 82800, Note_on_c, 0, 66, 49
3, 82800, Note_on_c, 0, 69, 49
3, 82920, Note_on_c, 0, 69, 0
3, 82920, Note_on_c, 0, 66, 0
3, 82920, Note_on_c, 0, 66, 49
3, 82920, Note_on_c, 0, 69, 49
3, 83040, Note_on_c, 0, 69, 0
3, 83040, Note_on_c, 0, 66, 0
3, 83040, Note_on_c, 0, 66, 49
3, 83040, Note_on_c, 0, 69, 49
3, 83160, Note_on_c, 0, 69, 0
3, 83160, Note_on_c, 0, 66, 0
3, 83160, Note_on_c, 0, 66, 49
3, 83160, Note_on_c, 0, 69, 49
3, 83280, Note_on_c, 0, 69, 0
3, 83280, Note_on_c, 0, 66, 0
3, 83280, Note_on_c, 0, 66, 49
3, 83280, Note_on_c, 0, 69, 49
3, 83400, Note_on_c, 0, 69, 0
3, 83400, Note_on_c, 0, 66, 0
3, 83400, Control_c, 0, 64, 0
3, 83400, Note_on_c, 0, 66, 49
3, 83400, Note_on_c, 0, 69, 49
3, 83520, Note_on_c, 0, 69, 0
3, 83520, Note_on_c, 0, 66, 0
3, 83520, Control_c, 0, 64, 127
3, 83520, Note_on_c, 0, 66, 49
3, 83520, Note_on_c, 0, 72, 49
3, 83640, Note_on_c, 0, 72, 0
3, 83640, Note_on_c, 0, 66, 0
3, 83640, Note_on_c, 0, 66, 49
3, 83640, Note_on_c, 0, 72, 49
3, 83760, Note_on_c, 0, 72, 0
3, 83760, Note_on_c, 0, 66, 0
3, 83760, Note_on_c, 0, 66, 49
3, 83760, Note_on_c, 0, 72, 49
3, 83880, Note_on_c, 0, 72, 0
3, 83880, Note_on_c, 0, 66, 0
3, 83880, Note_on_c, 0, 66, 49
3, 83880, Note_on_c, 0, 72, 49
3, 84000, Note_on_c, 0, 72, 0
3, 84000, Note_on_c, 0, 66, 0
3, 84000, Note_on_c, 0, 66, 49
3, 84000, Note_on_c, 0, 72, 49
3, 84120, Note_on_c, 0, 72, 0
3, 84120, Note_on_c, 0, 66, 0
3, 84120, Note_on_c, 0, 66, 49
3, 84120, Note_on_c, 0, 72, 49
3, 84240, Note_on_c, 0, 72, 0
3, 84240, Note_on_c, 0, 66, 0
3, 84240, Note_on_c, 0, 66, 49
3, 84240, Note_on_c, 0, 72, 49
3, 84360, Note_on_c, 0, 72, 0
3, 84360, Note_on_c, 0, 66, 0
3, 84360, Note_on_c, 0, 66, 49
3, 84360, Note_on_c, 0, 72, 49
3, 84480, Note_on_c, 0, 72, 0
3, 84480, Note_on_c, 0, 66, 0
3, 84480, Note_on_c, 0, 66, 49
3, 84480, Note_on_c, 0, 72, 49
3, 84600, Note_on_c, 0, 72, 0
3, 84600, Note_on_c, 0, 66, 0
3, 84600, Note_on_c, 0, 66, 49
3, 84600, Note_on_c, 0, 72, 49
3, 84720, Note_on_c, 0, 72, 0
3, 84720, Note_on_c, 0, 66, 0
3, 84720, Note_on_c, 0, 66, 49
3, 84720, Note_on_c, 0, 72, 49
3, 84840, Note_on_c, 0, 72, 0
3, 84840, Note_on_c, 0, 66, 0
3, 84840, Control_c, 0, 64, 0
3, 84840, Note_on_c, 0, 66, 49
3, 84840, Note_on_c, 0, 72, 49
3, 84960, Note_on_c, 0, 72, 0
3, 84960, Note_on_c, 0, 66, 0
3, 84960, Control_c, 0, 64, 127
3, 84960, Note_on_c, 0, 71, 49
3, 84960, Note_on_c, 0, 74, 49
3, 85080, Note_on_c, 0, 74, 0
3, 85080, Note_on_c, 0, 71, 0
3, 85080, Note_on_c, 0, 71, 49
3, 85080, Note_on_c, 0, 74, 49
3, 85200, Note_on_c, 0, 74, 0
3, 85200, Note_on_c, 0, 71, 0
3, 85200, Note_on_c, 0, 71, 49
3, 85200, Note_on_c, 0, 74, 49
3, 85320, Note_on_c, 0, 74, 0
3, 85320, Note_on_c, 0, 71, 0
3, 85320, Note_on_c, 0, 71, 49
3, 85320, Note_on_c, 0, 74, 49
3, 85440, Note_on_c, 0, 74, 0
3, 85440, Note_on_c, 0, 71, 0
3, 85440, Note_on_c, 0, 71, 49
3, 85440, Note_on_c, 0, 74, 49
3, 85560, Note_on_c, 0, 74, 0
3, 85560, Note_on_c, 0, 71, 0
3, 85560, Note_on_c, 0, 71, 49
3, 85560, Note_on_c, 0, 74, 49
3, 85680, Note_on_c, 0, 74, 0
3, 85680, Note_on_c, 0, 71, 0
3, 85680, Note_on_c, 0, 71, 49
3, 85680, Note_on_c, 0, 74, 49
3, 85800, Note_on_c, 0, 74, 0
3, 85800, Note_on_c, 0, 71, 0
3, 85800, Control_c, 0, 64, 0
3, 85800, Note_on_c, 0, 71, 49
3, 85800, Note_on_c, 0, 74, 49
3, 85920, Note_on_c, 0, 74, 0
3, 85920, Note_on_c, 0, 71, 0
3, 85920, Control_c, 0, 64, 127
3, 85920, Note_on_c, 0, 67, 49
3, 85920, Note_on_c, 0, 71, 49
3, 86040, Note_on_c, 0, 71, 0
3, 86040, Note_on_c, 0, 67, 0
3, 86040, Note_on_c, 0, 67, 49
3, 86040, Note_on_c, 0, 71, 49
3, 86160, Note_on_c, 0, 71, 0
3, 86160, Note_on_c, 0, 67, 0
3, 86160, Note_on_c, 0, 67, 49
3, 86160, Note_on_c, 0, 71, 49
3, 86280, Note_on_c, 0, 71, 0
3, 86280, Note_on_c, 0, 67, 0
3, 86280, Note_on_c, 0, 67, 49
3, 86280, Note_on_c, 0, 71, 49
3, 86400, Note_on_c, 0, 71, 0
3, 86400, Note_on_c, 0, 67, 0
3, 86400, Note_on_c, 0, 67, 49
3, 86400, Note_on_c, 0, 71, 49
3, 86520, Note_on_c, 0, 71, 0
3, 86520, Note_on_c, 0, 67, 0
3, 86520, Note_on_c, 0, 67, 49
3, 86520, Note_on_c, 0, 71, 49
3, 86640, Note_on_c, 0, 71, 0
3, 86640, Note_on_c, 0, 67, 0
3, 86640, Note_on_c, 0, 67, 49
3, 86640, Note_on_c, 0, 71, 49
3, 86760, Note_on_c, 0, 71, 0
3, 86760, Note_on_c, 0, 67, 0
3, 86760, Note_on_c, 0, 67, 49
3, 86760, Note_on_c, 0, 71, 49
3, 86880, Note_on_c, 0, 71, 0
3, 86880, Note_on_c, 0, 67, 0
3, 86880, Note_on_c, 0, 67, 49
3, 86880, Note_on_c, 0, 71, 49
3, 87000, Note_on_c, 0, 71, 0
3, 87000, Note_on_c, 0, 67, 0
3, 87000, Note_on_c, 0, 67, 49
3, 87000, Note_on_c, 0, 71, 49
3, 87120, Note_on_c, 0, 71, 0
3, 87120, Note_on_c, 0, 67, 0
3, 87120, Note_on_c, 0, 67, 49
3, 87120, Note_on_c, 0, 71, 49
3, 87240, Note_on_c, 0, 71, 0
3, 87240, Note_on_c, 0, 67, 0
3, 87240, Control_c, 0, 64, 0
3, 87240, Note_on_c, 0, 67, 49
3, 87240, Note_on_c, 0, 71, 49
3, 87360, Note_on_c, 0, 71, 0
3, 87360, Note_on_c, 0, 67, 0
3, 87360, Control_c, 0, 64, 127
3, 87360, Note_on_c, 0, 71, 49
3, 87360, Note_on_c, 0, 74, 49
3, 87480, Note_on_c, 0, 74, 0
3, 87480, Note_on_c, 0, 71, 0
3, 87480, Note_on_c, 0, 71, 49
3, 87480, Note_on_c, 0, 74, 49
3, 87600, Note_on_c, 0, 74, 0
3, 87600, Note_on_c, 0, 71, 0
3, 87600, Note_on_c, 0, 71, 49
3, 87600, Note_on_c, 0, 74, 49
3, 87720, Note_on_c, 0, 74, 0
3, 87720, Note_on_c, 0, 71, 0
3, 87720, Note_on_c, 0, 71, 49
3, 87720, Note_on_c, 0, 74, 49
3, 87840, Note_on_c, 0, 74, 0
3, 87840, Note_on_c, 0, 71, 0
3, 87840, Note_on_c, 0, 71, 49
3, 87840, Note_on_c, 0, 74, 49
3, 87960, Note_on_c, 0, 74, 0
3, 87960, Note_on_c, 0, 71, 0
3, 87960, Note_on_c, 0, 71, 49
3, 87960, Note_on_c, 0, 74, 49
3, 88080, Note_on_c, 0, 74, 0
3, 88080, Note_on_c, 0, 71, 0
3, 88080, Note_on_c, 0, 71, 49
3, 88080, Note_on_c, 0, 74, 49
3, 88200, Note_on_c, 0, 74, 0
3, 88200, Note_on_c, 0, 71, 0
3, 88200, Control_c, 0, 64, 0
3, 88200, Note_on_c, 0, 71, 49
3, 88200, Note_on_c, 0, 74, 49
3, 88320, Note_on_c, 0, 74, 0
3, 88320, Note_on_c, 0, 71, 0
3, 88320, Control_c, 0, 64, 127
3, 88320, Note_on_c, 0, 67, 49
3, 88320, Note_on_c, 0, 71, 49
3, 88440, Note_on_c, 0, 71, 0
3, 88440, Note_on_c, 0, 67, 0
3, 88440, Note_on_c, 0, 67, 49
3, 88440, Note_on_c, 0, 71, 49
3, 88560, Note_on_c, 0, 71, 0
3, 88560, Note_on_c, 0, 67, 0
3, 88560, Note_on_c, 0, 67, 49
3, 88560, Note_on_c, 0, 71, 49
3, 88680, Note_on_c, 0, 71, 0
3, 88680, Note_on_c, 0, 67, 0
3, 88680, Control_c, 0, 64, 0
3, 88680, Note_on_c, 0, 67, 49
3, 88680, Note_on_c, 0, 71, 49
3, 88800, Note_on_c, 0, 71, 0
3, 88800, Note_on_c, 0, 67, 0
3, 88800, Control_c, 0, 64, 127
3, 88800, Note_on_c, 0, 64, 49
3, 88800, Note_on_c, 0, 67, 49
3, 88920, Note_on_c, 0, 67, 0
3, 88920, Note_on_c, 0, 64, 0
3, 88920, Note_on_c, 0, 64, 49
3, 88920, Note_on_c, 0, 67, 49
3, 89040, Note_on_c, 0, 67, 0
3, 89040, Note_on_c, 0, 64, 0
3, 89040, Note_on_c, 0, 64, 49
3, 89040, Note_on_c, 0, 67, 49
3, 89160, Note_on_c, 0, 67, 0
3, 89160, Note_on_c, 0, 64, 0
3, 89160, Control_c, 0, 64, 0
3, 89160, Note_on_c, 0, 64, 49
3, 89160, Note_on_c, 0, 67, 49
3, 89280, Note_on_c, 0, 67, 0
3, 89280, Note_on_c, 0, 64, 0
3, 89280, Control_c, 0, 64, 127
3, 89280, Note_on_c, 0, 67, 49
3, 89280, Note_on_c, 0, 69, 49
3, 89400, Note_on_c, 0, 69, 0
3, 89400, Note_on_c, 0, 67, 0
3, 89400, Note_on_c, 0, 67, 49
3, 89400, Note_on_c, 0, 69, 49
3, 89520, Note_on_c, 0, 69, 0
3, 89520, Note_on_c, 0, 67, 0
3, 89520, Note_on_c, 0, 67, 49
3, 89520, Note_on_c, 0, 69, 49
3, 89640, Note_on_c, 0, 69, 0
3, 89640, Note_on_c, 0, 67, 0
3, 89640, Note_on_c, 0, 67, 49
3, 89640, Note_on_c, 0, 69, 49
3, 89760, Note_on_c, 0, 69, 0
3, 89760, Note_on_c, 0, 67, 0
3, 89760, Note_on_c, 0, 67, 49
3, 89760, Note_on_c, 0, 69, 49
3, 89880, Note_on_c, 0, 69, 0
3, 89880, Note_on_c, 0, 67, 0
3, 89880, Note_on_c, 0, 67, 49
3, 89880, Note_on_c, 0, 69, 49
3, 90000, Note_on_c, 0, 69, 0
3, 90000, Note_on_c, 0, 67, 0
3, 90000, Note_on_c, 0, 67, 49
3, 90000, Note_on_c, 0, 69, 49
3, 90120, Note_on_c, 0, 69, 0
3, 90120, Note_on_c, 0, 67, 0
3, 90120, Note_on_c, 0, 67, 49
3, 90120, Note_on_c, 0, 69, 49
3, 90240, Note_on_c, 0, 69, 0
3, 90240, Note_on_c, 0, 67, 0
3, 90240, Note_on_c, 0, 67, 49
3, 90240, Note_on_c, 0, 69, 49
3, 90360, Note_on_c, 0, 69, 0
3, 90360, Note_on_c, 0, 67, 0
3, 90360, Note_on_c, 0, 67, 49
3, 90360, Note_on_c, 0, 69, 49
3, 90480, Note_on_c, 0, 69, 0
3, 90480, Note_on_c, 0, 67, 0
3, 90480, Note_on_c, 0, 67, 49
3, 90480, Note_on_c, 0, 69, 49
3, 90600, Note_on_c, 0, 69, 0
3, 90600, Note_on_c, 0, 67, 0
3, 90600, Control_c, 0, 64, 0
3, 90600, Note_on_c, 0, 67, 49
3, 90600, Note_on_c, 0, 69, 49
3, 90720, Note_on_c, 0, 69, 0
3, 90720, Note_on_c, 0, 67, 0
3, 90720, Control_c, 0, 64, 127
3, 90720, Note_on_c, 0, 67, 49
3, 90720, Note_on_c, 0, 71, 49
3, 90840, Note_on_c, 0, 71, 0
3, 90840, Note_on_c, 0, 67, 0
3, 90840, Note_on_c, 0, 67, 49
3, 90840, Note_on_c, 0, 71, 49
3, 90960, Note_on_c, 0, 71, 0
3, 90960, Note_on_c, 0, 67, 0
3, 90960, Note_on_c, 0, 67, 49
3, 90960, Note_on_c, 0, 71, 49
3, 91080, Note_on_c, 0, 71, 0
3, 91080, Note_on_c, 0, 67, 0
3, 91080, Control_c, 0, 64, 0
3, 91080, Note_on_c, 0, 67, 49
3, 91080, Note_on_c, 0, 71, 49
3, 91200, Note_on_c, 0, 71, 0
3, 91200, Note_on_c, 0, 67, 0
3, 91200, Control_c, 0, 64, 127
3, 91200, Note_on_c, 0, 71, 49
3, 91200, Note_on_c, 0, 76, 49
3, 91320, Note_on_c, 0, 76, 0
3, 91320, Note_on_c, 0, 71, 0
3, 91320, Note_on_c, 0, 71, 49
3, 91320, Note_on_c, 0, 76, 49
3, 91440, Note_on_c, 0, 76, 0
3, 91440, Note_on_c, 0, 71, 0
3, 91440, Note_on_c, 0, 71, 49
3, 91440, Note_on_c, 0, 76, 49
3, 91560, Note_on_c, 0, 76, 0
3, 91560, Note_on_c, 0, 71, 0
3, 91560, Note_on_c, 0, 71, 49
3, 91560, Note_on_c, 0, 76, 49
3, 91680, Note_on_c, 0, 76, 0
3, 91680, Note_on_c, 0, 71, 0
3, 91680, Note_on_c, 0, 71, 49
3, 91680, Note_on_c, 0, 76, 49
3, 91800, Note_on_c, 0, 76, 0
3, 91800, Note_on_c, 0, 71, 0
3, 91800, Note_on_c, 0, 71, 49
3, 91800, Note_on_c, 0, 76, 49
3, 91920, Note_on_c, 0, 76, 0
3, 91920, Note_on_c, 0, 71, 0
3, 91920, Note_on_c, 0, 71, 49
3, 91920, Note_on_c, 0, 76, 49
3, 92040, Note_on_c, 0, 76, 0
3, 92040, Note_on_c, 0, 71, 0
3, 92040, Control_c, 0, 64, 0
3, 92040, Note_on_c, 0, 71, 49
3, 92040, Note_on_c, 0, 76, 49
3, 92160, Note_on_c, 0, 76, 0
3, 92160, Note_on_c, 0, 71, 0
3, 92160, Control_c, 0, 64, 127
3, 92160, Note_on_c, 0, 71, 49
3, 92160, Note_on_c, 0, 74, 49
3, 92280, Note_on_c, 0, 74, 0
3, 92280, Note_on_c, 0, 71, 0
3, 92280, Note_on_c, 0, 71, 49
3, 92280, Note_on_c, 0, 74, 49
3, 92400, Note_on_c, 0, 74, 0
3, 92400, Note_on_c, 0, 71, 0
3, 92400, Note_on_c, 0, 71, 49
3, 92400, Note_on_c, 0, 74, 49
3, 92520, Note_on_c, 0, 74, 0
3, 92520, Note_on_c, 0, 71, 0
3, 92520, Control_c, 0, 64, 0
3, 92520, Note_on_c, 0, 71, 49
3, 92520, Note_on_c, 0, 74, 49
3, 92640, Note_on_c, 0, 74, 0
3, 92640, Note_on_c, 0, 71, 0
3, 92640, Control_c, 0, 64, 127
3, 92640, Note_on_c, 0, 74, 49
3, 92640, Note_on_c, 0, 79, 49
3, 92760, Note_on_c, 0, 79, 0
3, 92760, Note_on_c, 0, 74, 0
3, 92760, Note_on_c, 0, 74, 49
3, 92760, Note_on_c, 0, 79, 49
3, 92880, Note_on_c, 0, 79, 0
3, 92880, Note_on_c, 0, 74, 0
3, 92880, Note_on_c, 0, 74, 49
3, 92880, Note_on_c, 0, 79, 49
3, 93000, Note_on_c, 0, 79, 0
3, 93000, Note_on_c, 0, 74, 0
3, 93000, Note_on_c, 0, 74, 49
3, 93000, Note_on_c, 0, 79, 49
3, 93120, Note_on_c, 0, 79, 0
3, 93120, Note_on_c, 0, 74, 0
3, 93120, Note_on_c, 0, 74, 49
3, 93120, Note_on_c, 0, 79, 49
3, 93240, Note_on_c, 0, 79, 0
3, 93240, Note_on_c, 0, 74, 0
3, 93240, Note_on_c, 0, 74, 49
3, 93240, Note_on_c, 0, 79, 49
3, 93360, Note_on_c, 0, 79, 0
3, 93360, Note_on_c, 0, 74, 0
3, 93360, Note_on_c, 0, 74, 49
3, 93360, Note_on_c, 0, 79, 49
3, 93480, Note_on_c, 0, 79, 0
3, 93480, Note_on_c, 0, 74, 0
3, 93480, Control_c, 0, 64, 0
3, 93480, Note_on_c, 0, 74, 49
3, 93480, Note_on_c, 0, 79, 49
3, 93600, Note_on_c, 0, 79, 0
3, 93600, Note_on_c, 0, 74, 0
3, 93600, Control_c, 0, 64, 127
3, 93600, Note_on_c, 0, 79, 49
3, 93600, Note_on_c, 0, 81, 49
3, 93720, Note_on_c, 0, 81, 0
3, 93720, Note_on_c, 0, 79, 0
3, 93720, Note_on_c, 0, 79, 49
3, 93720, Note_on_c, 0, 81, 49
3, 93840, Note_on_c, 0, 81, 0
3, 93840, Note_on_c, 0, 79, 0
3, 93840, Note_on_c, 0, 79, 49
3, 93840, Note_on_c, 0, 81, 49
3, 93960, Note_on_c, 0, 81, 0
3, 93960, Note_on_c, 0, 79, 0
3, 93960, Note_on_c, 0, 79, 49
3, 93960, Note_on_c, 0, 81, 49
3, 94080, Note_on_c, 0, 81, 0
3, 94080, Note_on_c, 0, 79, 0
3, 94080, Note_on_c, 0, 79, 49
3, 94080, Note_on_c, 0, 81, 49
3, 94200, Note_on_c, 0, 81, 0
3, 94200, Note_on_c, 0, 79, 0
3, 94200, Control_c, 0, 64, 0
3, 94200, Note_on_c, 0, 79, 49
3, 94200, Note_on_c, 0, 81, 49
3, 94320, Note_on_c, 0, 81, 0
3, 94320, Note_on_c, 0, 79, 0
3, 94320, Control_c, 0, 64, 127
3, 94320, Note_on_c, 0, 78, 49
3, 94320, Note_on_c, 0, 81, 49
3, 94440, Note_on_c, 0, 81, 0
3, 94440, Note_on_c, 0, 78, 0
3, 94440, Note_on_c, 0, 78, 49
3, 94440, Note_on_c, 0, 81, 49
3, 94560, Note_on_c, 0, 81, 0
3, 94560, Note_on_c, 0, 78, 0
3, 94560, Note_on_c, 0, 78, 49
3, 94560, Note_on_c, 0, 81, 49
3, 94680, Note_on_c, 0, 81, 0
3, 94680, Note_on_c, 0, 78, 0
3, 94680, Note_on_c, 0, 78, 49
3, 94680, Note_on_c, 0, 81, 49
3, 94800, Note_on_c, 0, 81, 0
3, 94800, Note_on_c, 0, 78, 0
3, 94800, Note_on_c, 0, 78, 49
3, 94800, Note_on_c, 0, 81, 49
3, 94920, Note_on_c, 0, 81, 0
3, 94920, Note_on_c, 0, 78, 0
3, 94920, Control_c, 0, 64, 0
3, 94920, Note_on_c, 0, 78, 49
3, 94920, Note_on_c, 0, 81, 49
3, 95040, Note_on_c, 0, 81, 0
3, 95040, Note_on_c, 0, 78, 0
3, 95280, Control_c, 0, 64, 127
3, 95280, Note_on_c, 0, 43, 88
3, 95319, Note_on_c, 0, 43, 0
3, 95319, Note_on_c, 0, 47, 88
3, 95360, Note_on_c, 0, 47, 0
3, 95360, Note_on_c, 0, 50, 88
3, 95400, Note_on_c, 0, 50, 0
3, 95400, Note_on_c, 0, 55, 88
3, 95439, Note_on_c, 0, 55, 0
3, 95439, Note_on_c, 0, 59, 88
3, 95480, Note_on_c, 0, 59, 0
3, 95480, Note_on_c, 0, 62, 88
3, 95520, Note_on_c, 0, 62, 0
3, 95520, Note_on_c, 0, 67, 88
3, 95559, Note_on_c, 0, 67, 0
3, 95559, Note_on_c, 0, 71, 88
3, 95600, Note_on_c, 0, 71, 0
3, 95600, Note_on_c, 0, 74, 88
3, 95640, Note_on_c, 0, 74, 0
3, 95640, Note_on_c, 0, 79, 88
3, 95679, Note_on_c, 0, 79, 0
3, 95679, Note_on_c, 0, 83, 88
3, 95720, Note_on_c, 0, 83, 0
3, 95720, Note_on_c, 0, 86, 88
3, 95760, Note_on_c, 0, 86, 0
3, 95760, Note_on_c, 0, 91, 88
3, 95799, Note_on_c, 0, 91, 0
3, 95799, Note_on_c, 0, 86, 88
3, 95840, Note_on_c, 0, 86, 0
3, 95840, Note_on_c, 0, 83, 88
3, 95880, Note_on_c, 0, 83, 0
3, 95880, Note_on_c, 0, 79, 88
3, 95919, Note_on_c, 0, 79, 0
3, 95919, Note_on_c, 0, 74, 88
3, 95960, Note_on_c, 0, 74, 0
3, 95960, Note_on_c, 0, 71, 88
3, 96000, Note_on_c, 0, 71, 0
3, 96000, Note_on_c, 0, 67, 88
3, 96039, Note_on_c, 0, 67, 0
3, 96039, Note_on_c, 0, 62, 88
3, 96080, Note_on_c, 0, 62, 0
3, 96080, Note_on_c, 0, 59, 88
3, 96120, Note_on_c, 0, 59, 0
3, 96120, Note_on_c, 0, 55, 88
3, 96159, Note_on_c, 0, 55, 0
3, 96159, Note_on_c, 0, 50, 88
3, 96200, Note_on_c, 0, 50, 0
3, 96200, Note_on_c, 0, 47, 88
3, 96240, Note_on_c, 0, 47, 0
3, 96240, Control_c, 0, 64, 0
3, 96240, Note_on_c, 0, 43, 88
3, 96480, Note_on_c, 0, 43, 0
3, 97680, Note_on_c, 0, 74, 75
3, 97680, Note_on_c, 0, 86, 75
3, 97920, Note_on_c, 0, 86, 0
3, 97920, Note_on_c, 0, 74, 0
3, 97920, Note_on_c, 0, 79, 75
3, 98160, Note_on_c, 0, 79, 0
3, 99120, Note_on_c, 0, 67, 75
3, 99360, Note_on_c, 0, 67, 0
3, 99360, Note_on_c, 0, 72, 75
3, 99600, Note_on_c, 0, 72, 0
3, 100560, Note_on_c, 0, 60, 75
3, 100800, Note_on_c, 0, 60, 0
3, 100800, Note_on_c, 0, 67, 75
3, 100800, Note_on_c, 0, 79, 75
3, 101040, Note_on_c, 0, 79, 0
3, 101040, Note_on_c, 0, 67, 0
3, 101040, Control_c, 0, 64, 127
3, 101040, Note_on_c, 0, 59, 62
3, 101120, Note_on_c, 0, 59, 0
3, 101120, Note_on_c, 0, 67, 62
3, 101199, Note_on_c, 0, 67, 0
3, 101199, Note_on_c, 0, 71, 62
3, 101280, Note_on_c, 0, 71, 0
3, 101280, Note_on_c, 0, 55, 62
3, 101360, Note_on_c, 0, 55, 0
3, 101360, Note_on_c, 0, 59, 62
3, 101439, Note_on_c, 0, 59, 0
3, 101439, Note_on_c, 0, 67, 62
3, 101520, Note_on_c, 0, 67, 0
3, 101520, Note_on_c, 0, 71, 62
3, 101600, Note_on_c, 0, 71, 0
3, 101600, Note_on_c, 0, 79, 62
3, 101679, Note_on_c, 0, 79, 0
3, 101679, Note_on_c, 0, 83, 62
3, 101760, Note_on_c, 0, 83, 0
3, 101760, Note_on_c, 0, 67, 62
3, 101840, Note_on_c, 0, 67, 0
3, 101840, Note_on_c, 0, 71, 62
3, 101919, Note_on_c, 0, 71, 0
3, 101919, Note_on_c, 0, 79, 62
3, 102000, Note_on_c, 0, 79, 0
3, 102000, Note_on_c, 0, 83, 62
3, 102080, Note_on_c, 0, 83, 0
3, 102080, Note_on_c, 0, 91, 62
3, 102159, Note_on_c, 0, 91, 0
3, 102159, Control_c, 0, 64, 0
3, 102159, Note_on_c, 0, 95, 62
3, 102240, Note_on_c, 0, 95, 0
3, 103440, Note_on_c, 0, 62, 62
3, 103680, Note_on_c, 0, 62, 0
3, 103680, Note_on_c, 0, 67, 62
3, 103920, Note_on_c, 0, 67, 0
3, 104880, Note_on_c, 0, 55, 62
3, 105120, Note_on_c, 0, 55, 0
3, 105120, Note_on_c, 0, 60, 62
3, 105360, Note_on_c, 0, 60, 0
3, 106320, Note_on_c, 0, 48, 62
3, 106560, Note_on_c, 0, 48, 0
3, 106560, End_track
4, 0, Start_track
4, 0, Title_t, "Grand Piano"
4, 0, Program_c, 0, 0
4, 0, Control_c, 0, 7, 115
4, 0, Control_c, 0, 10, 41
4, 0, Note_on_c, 0, 31, 49
4, 0, Note_on_c, 0, 43, 49
4, 240, Note_on_c, 0, 43, 0
4, 240, Note_on_c, 0, 31, 0
4, 720, Note_on_c, 0, 38, 49
4, 720, Note_on_c, 0, 50, 49
4, 960, Note_on_c, 0, 50, 0
4, 960, Note_on_c, 0, 38, 0
4, 1440, Note_on_c, 0, 43, 49
4, 1440, Note_on_c, 0, 55, 49
4, 1680, Note_on_c, 0, 55, 0
4, 1680, Note_on_c, 0, 43, 0
4, 2160, Note_on_c, 0, 38, 49
4, 2160, Note_on_c, 0, 50, 49
4, 2400, Note_on_c, 0, 50, 0
4, 2400, Note_on_c, 0, 38, 0
4, 2880, Note_on_c, 0, 31, 49
4, 2880, Note_on_c, 0, 43, 49
4, 3120, Note_on_c, 0, 43, 0
4, 3120, Note_on_c, 0, 31, 0
4, 3600, Note_on_c, 0, 38, 49
4, 3600, Note_on_c, 0, 50, 49
4, 3840, Note_on_c, 0, 50, 0
4, 3840, Note_on_c, 0, 38, 0
4, 4320, Note_on_c, 0, 43, 49
4, 4320, Note_on_c, 0, 55, 49
4, 4560, Note_on_c, 0, 55, 0
4, 4560, Note_on_c, 0, 43, 0
4, 5040, Note_on_c, 0, 38, 49
4, 5040, Note_on_c, 0, 50, 49
4, 5280, Note_on_c, 0, 50, 0
4, 5280, Note_on_c, 0, 38, 0
4, 5760, Note_on_c, 0, 31, 49
4, 5760, Note_on_c, 0, 43, 49
4, 6000, Note_on_c, 0, 43, 0
4, 6000, Note_on_c, 0, 31, 0
4, 6480, Note_on_c, 0, 38, 49
4, 6480, Note_on_c, 0, 50, 49
4, 6720, Note_on_c, 0, 50, 0
4, 6720, Note_on_c, 0, 38, 0
4, 7200, Note_on_c, 0, 43, 49
4, 7200, Note_on_c, 0, 55, 49
4, 7440, Note_on_c, 0, 55, 0
4, 7440, Note_on_c, 0, 43, 0
4, 7920, Note_on_c, 0, 40, 49
4, 7920, Note_on_c, 0, 52, 49
4, 8160, Note_on_c, 0, 52, 0
4, 8160, Note_on_c, 0, 40, 0
4, 8640, Note_on_c, 0, 31, 49
4, 8640, Note_on_c, 0, 43, 49
4, 8880, Note_on_c, 0, 43, 0
4, 8880, Note_on_c, 0, 31, 0
4, 9360, Note_on_c, 0, 38, 49
4, 9360, Note_on_c, 0, 50, 49
4, 9600, Note_on_c, 0, 50, 0
4, 9600, Note_on_c, 0, 38, 0
4, 10080, Note_on_c, 0, 43, 49
4, 10080, Note_on_c, 0, 55, 49
4, 10320, Note_on_c, 0, 55, 0
4, 10320, Note_on_c, 0, 43, 0
4, 10800, Note_on_c, 0, 38, 49
4, 10800, Note_on_c, 0, 50, 49
4, 11040, Note_on_c, 0, 50, 0
4, 11040, Note_on_c, 0, 38, 0
4, 11520, Note_on_c, 0, 31, 49
4, 11520, Note_on_c, 0, 43, 49
4, 11760, Note_on_c, 0, 43, 0
4, 11760, Note_on_c, 0, 31, 0
4, 12240, Note_on_c, 0, 38, 49
4, 12240, Note_on_c, 0, 50, 49
4, 12480, Note_on_c, 0, 50, 0
4, 12480, Note_on_c, 0, 38, 0
4, 12960, Note_on_c, 0, 43, 49
4, 12960, Note_on_c, 0, 55, 49
4, 13200, Note_on_c, 0, 55, 0
4, 13200, Note_on_c, 0, 43, 0
4, 13680, Note_on_c, 0, 38, 49
4, 13680, Note_on_c, 0, 50, 49
4, 13920, Note_on_c, 0, 50, 0
4, 13920, Note_on_c, 0, 38, 0
4, 14400, Note_on_c, 0, 31, 49
4, 14400, Note_on_c, 0, 43, 49
4, 14640, Note_on_c, 0, 43, 0
4, 14640, Note_on_c, 0, 31, 0
4, 15120, Note_on_c, 0, 38, 49
4, 15120, Note_on_c, 0, 50, 49
4, 15360, Note_on_c, 0, 50, 0
4, 15360, Note_on_c, 0, 38, 0
4, 15840, Note_on_c, 0, 43, 49
4, 15840, Note_on_c, 0, 55, 49
4, 16080, Note_on_c, 0, 55, 0
4, 16080, Note_on_c, 0, 43, 0
4, 16560, Note_on_c, 0, 38, 49
4, 16560, Note_on_c, 0, 50, 49
4, 16800, Note_on_c, 0, 50, 0
4, 16800, Note_on_c, 0, 38, 0
4, 17280, Note_on_c, 0, 31, 49
4, 17280, Note_on_c, 0, 43, 49
4, 17520, Note_on_c, 0, 43, 0
4, 17520, Note_on_c, 0, 31, 0
4, 18000, Note_on_c, 0, 38, 49
4, 18000, Note_on_c, 0, 50, 49
4, 18240, Note_on_c, 0, 50, 0
4, 18240, Note_on_c, 0, 38, 0
4, 18720, Note_on_c, 0, 43, 49
4, 18720, Note_on_c, 0, 55, 49
4, 18960, Note_on_c, 0, 55, 0
4, 18960, Note_on_c, 0, 43, 0
4, 19440, Note_on_c, 0, 31, 49
4, 19440, Note_on_c, 0, 43, 49
4, 19680, Note_on_c, 0, 43, 0
4, 19680, Note_on_c, 0, 31, 0
4, 20160, Note_on_c, 0, 30, 49
4, 20160, Note_on_c, 0, 42, 49
4, 20400, Note_on_c, 0, 42, 0
4, 20400, Note_on_c, 0, 30, 0
4, 20880, Note_on_c, 0, 42, 62
4, 20880, Note_on_c, 0, 54, 62
4, 21120, Note_on_c, 0, 54, 0
4, 21120, Note_on_c, 0, 42, 0
4, 21600, Note_on_c, 0, 28, 62
4, 21600, Note_on_c, 0, 40, 62
4, 21840, Note_on_c, 0, 40, 0
4, 21840, Note_on_c, 0, 28, 0
4, 22320, Note_on_c, 0, 40, 62
4, 22320, Note_on_c, 0, 52, 62
4, 22560, Note_on_c, 0, 52, 0
4, 22560, Note_on_c, 0, 40, 0
4, 23040, Note_on_c, 0, 33, 62
4, 23040, Note_on_c, 0, 45, 62
4, 23280, Note_on_c, 0, 45, 0
4, 23280, Note_on_c, 0, 33, 0
4, 23760, Note_on_c, 0, 33, 62
4, 23760, Note_on_c, 0, 45, 62
4, 24000, Note_on_c, 0, 45, 0
4, 24000, Note_on_c, 0, 33, 0
4, 24480, Note_on_c, 0, 38, 62
4, 24480, Note_on_c, 0, 50, 62
4, 24720, Note_on_c, 0, 50, 0
4, 24720, Note_on_c, 0, 38, 0
4, 25920, Note_on_c, 0, 50, 49
4, 25920, Note_on_c, 0, 54, 49
4, 26400, Note_on_c, 0, 54, 0
4, 26400, Note_on_c, 0, 50, 0
4, 26400, Note_on_c, 0, 52, 49
4, 26400, Note_on_c, 0, 55, 49
4, 26880, Note_on_c, 0, 55, 0
4, 26880, Note_on_c, 0, 52, 0
4, 26880, Note_on_c, 0, 53, 49
4, 26880, Note_on_c, 0, 56, 49
4, 27360, Note_on_c, 0, 56, 0
4, 27360, Note_on_c, 0, 53, 0
4, 27360, Note_on_c, 0, 52, 49
4, 27360, Note_on_c, 0, 56, 49
4, 27840, Note_on_c, 0, 56, 0
4, 27840, Note_on_c, 0, 52, 0
4, 27840, Note_on_c, 0, 54, 49
4, 27840, Note_on_c, 0, 57, 49
4, 28320, Note_on_c, 0, 57, 0
4, 28320, Note_on_c, 0, 54, 0
4, 28320, Note_on_c, 0, 57, 49
4, 28320, Note_on_c, 0, 60, 49
4, 28800, Note_on_c, 0, 60, 0
4, 28800, Note_on_c, 0, 57, 0
4, 28800, Note_on_c, 0, 50, 49
4, 28800, Note_on_c, 0, 54, 49
4, 29280, Note_on_c, 0, 54, 0
4, 29280, Note_on_c, 0, 50, 0
4, 29280, Note_on_c, 0, 52, 49
4, 29280, Note_on_c, 0, 55, 49
4, 29760, Note_on_c, 0, 55, 0
4, 29760, Note_on_c, 0, 52, 0
4, 29760, Note_on_c, 0, 53, 49
4, 29760, Note_on_c, 0, 56, 49
4, 30240, Note_on_c, 0, 56, 0
4, 30240, Note_on_c, 0, 53, 0
4, 30240, Note_on_c, 0, 53, 49
4, 30240, Note_on_c, 0, 56, 49
4, 30720, Note_on_c, 0, 56, 0
4, 30720, Note_on_c, 0, 53, 0
4, 30720, Note_on_c, 0, 54, 49
4, 30720, Note_on_c, 0, 57, 49
4, 31680, Note_on_c, 0, 57, 0
4, 31680, Note_on_c, 0, 54, 0
4, 31680, Note_on_c, 0, 50, 62
4, 31680, Note_on_c, 0, 54, 62
4, 32160, Note_on_c, 0, 54, 0
4, 32160, Note_on_c, 0, 50, 0
4, 32160, Note_on_c, 0, 52, 62
4, 32160, Note_on_c, 0, 55, 62
4, 32640, Note_on_c, 0, 55, 0
4, 32640, Note_on_c, 0, 52, 0
4, 32640, Note_on_c, 0, 53, 62
4, 32640, Note_on_c, 0, 56, 62
4, 33120, Note_on_c, 0, 56, 0
4, 33120, Note_on_c, 0, 53, 0
4, 33120, Note_on_c, 0, 52, 62
4, 33120, Note_on_c, 0, 56, 62
4, 33600, Note_on_c, 0, 56, 0
4, 33600, Note_on_c, 0, 52, 0
4, 33600, Note_on_c, 0, 54, 62
4, 33600, Note_on_c, 0, 57, 62
4, 34080, Note_on_c, 0, 57, 0
4, 34080, Note_on_c, 0, 54, 0
4, 34080, Note_on_c, 0, 57, 62
4, 34080, Note_on_c, 0, 60, 62
4, 34560, Note_on_c, 0, 60, 0
4, 34560, Note_on_c, 0, 57, 0
4, 34560, Note_on_c, 0, 50, 62
4, 34560, Note_on_c, 0, 54, 62
4, 35040, Note_on_c, 0, 54, 0
4, 35040, Note_on_c, 0, 50, 0
4, 35040, Note_on_c, 0, 52, 62
4, 35040, Note_on_c, 0, 55, 62
4, 35520, Note_on_c, 0, 55, 0
4, 35520, Note_on_c, 0, 52, 0
4, 35520, Note_on_c, 0, 53, 62
4, 35520, Note_on_c, 0, 56, 62
4, 36000, Note_on_c, 0, 56, 0
4, 36000, Note_on_c, 0, 53, 0
4, 36000, Note_on_c, 0, 50, 62
4, 36000, Note_on_c, 0, 54, 62
4, 36480, Note_on_c, 0, 54, 0
4, 36480, Note_on_c, 0, 50, 0
4, 36480, Note_on_c, 0, 52, 62
4, 36480, Note_on_c, 0, 55, 62
4, 36960, Note_on_c, 0, 55, 0
4, 36960, Note_on_c, 0, 52, 0
4, 36960, Note_on_c, 0, 54, 62
4, 36960, Note_on_c, 0, 57, 62
4, 37200, Note_on_c, 0, 57, 0
4, 37200, Note_on_c, 0, 54, 0
4, 37200, Note_on_c, 0, 55, 62
4, 37200, Note_on_c, 0, 59, 62
4, 37440, Note_on_c, 0, 59, 0
4, 37440, Note_on_c, 0, 55, 0
4, 37440, Note_on_c, 0, 57, 62
4, 37440, Note_on_c, 0, 60, 62
4, 37680, Note_on_c, 0, 60, 0
4, 37680, Note_on_c, 0, 57, 0
4, 37680, Note_on_c, 0, 59, 62
4, 37680, Note_on_c, 0, 62, 62
4, 37920, Note_on_c, 0, 62, 0
4, 37920, Note_on_c, 0, 59, 0
4, 37920, Note_on_c, 0, 57, 62
4, 37920, Note_on_c, 0, 60, 62
4, 38160, Note_on_c, 0, 60, 0
4, 38160, Note_on_c, 0, 57, 0
4, 38160, Note_on_c, 0, 54, 62
4, 38160, Note_on_c, 0, 57, 62
4, 38400, Note_on_c, 0, 57, 0
4, 38400, Note_on_c, 0, 54, 0
4, 38400, Note_on_c, 0, 55, 62
4, 38400, Note_on_c, 0, 59, 62
4, 38640, Note_on_c, 0, 59, 0
4, 38640, Note_on_c, 0, 55, 0
4, 38640, Note_on_c, 0, 57, 62
4, 38640, Note_on_c, 0, 60, 62
4, 38880, Note_on_c, 0, 60, 0
4, 38880, Note_on_c, 0, 57, 0
4, 38880, Note_on_c, 0, 31, 49
4, 38880, Note_on_c, 0, 43, 49
4, 39120, Note_on_c, 0, 43, 0
4, 39120, Note_on_c, 0, 31, 0
4, 39600, Note_on_c, 0, 38, 49
4, 39600, Note_on_c, 0, 50, 49
4, 39840, Note_on_c, 0, 50, 0
4, 39840, Note_on_c, 0, 38, 0
4, 40320, Note_on_c, 0, 43, 49
4, 40320, Note_on_c, 0, 55, 49
4, 40560, Note_on_c, 0, 55, 0
4, 40560, Note_on_c, 0, 43, 0
4, 41040, Note_on_c, 0, 38, 49
4, 41040, Note_on_c, 0, 50, 49
4, 41280, Note_on_c, 0, 50, 0
4, 41280, Note_on_c, 0, 38, 0
4, 41760, Note_on_c, 0, 31, 49
4, 41760, Note_on_c, 0, 43, 49
4, 42000, Note_on_c, 0, 43, 0
4, 42000, Note_on_c, 0, 31, 0
4, 42480, Note_on_c, 0, 38, 49
4, 42480, Note_on_c, 0, 50, 49
4, 42720, Note_on_c, 0, 50, 0
4, 42720, Note_on_c, 0, 38, 0
4, 43200, Note_on_c, 0, 43, 49
4, 43200, Note_on_c, 0, 55, 49
4, 43440, Note_on_c, 0, 55, 0
4, 43440, Note_on_c, 0, 43, 0
4, 43920, Note_on_c, 0, 40, 49
4, 43920, Note_on_c, 0, 52, 49
4, 44160, Note_on_c, 0, 52, 0
4, 44160, Note_on_c, 0, 40, 0
4, 44640, Note_on_c, 0, 31, 49
4, 44640, Note_on_c, 0, 43, 49
4, 44880, Note_on_c, 0, 43, 0
4, 44880, Note_on_c, 0, 31, 0
4, 45360, Note_on_c, 0, 38, 49
4, 45360, Note_on_c, 0, 50, 49
4, 45600, Note_on_c, 0, 50, 0
4, 45600, Note_on_c, 0, 38, 0
4, 46080, Note_on_c, 0, 43, 49
4, 46080, Note_on_c, 0, 55, 49
4, 46320, Note_on_c, 0, 55, 0
4, 46320, Note_on_c, 0, 43, 0
4, 46800, Note_on_c, 0, 38, 49
4, 46800, Note_on_c, 0, 50, 49
4, 47040, Note_on_c, 0, 50, 0
4, 47040, Note_on_c, 0, 38, 0
4, 47520, Note_on_c, 0, 31, 49
4, 47520, Note_on_c, 0, 43, 49
4, 47760, Note_on_c, 0, 43, 0
4, 47760, Note_on_c, 0, 31, 0
4, 48240, Note_on_c, 0, 38, 49
4, 48240, Note_on_c, 0, 50, 49
4, 48480, Note_on_c, 0, 50, 0
4, 48480, Note_on_c, 0, 38, 0
4, 48960, Note_on_c, 0, 43, 49
4, 48960, Note_on_c, 0, 55, 49
4, 49200, Note_on_c, 0, 55, 0
4, 49200, Note_on_c, 0, 43, 0
4, 49680, Note_on_c, 0, 38, 49
4, 49680, Note_on_c, 0, 50, 49
4, 49920, Note_on_c, 0, 50, 0
4, 49920, Note_on_c, 0, 38, 0
4, 50400, Note_on_c, 0, 31, 49
4, 50400, Note_on_c, 0, 43, 49
4, 50640, Note_on_c, 0, 43, 0
4, 50640, Note_on_c, 0, 31, 0
4, 51120, Note_on_c, 0, 38, 49
4, 51120, Note_on_c, 0, 50, 49
4, 51360, Note_on_c, 0, 50, 0
4, 51360, Note_on_c, 0, 38, 0
4, 51840, Note_on_c, 0, 43, 49
4, 51840, Note_on_c, 0, 55, 49
4, 52080, Note_on_c, 0, 55, 0
4, 52080, Note_on_c, 0, 43, 0
4, 52560, Note_on_c, 0, 38, 49
4, 52560, Note_on_c, 0, 50, 49
4, 52800, Note_on_c, 0, 50, 0
4, 52800, Note_on_c, 0, 38, 0
4, 53280, Note_on_c, 0, 31, 49
4, 53280, Note_on_c, 0, 43, 49
4, 53520, Note_on_c, 0, 43, 0
4, 53520, Note_on_c, 0, 31, 0
4, 54000, Note_on_c, 0, 43, 49
4, 54000, Note_on_c, 0, 55, 49
4, 54240, Note_on_c, 0, 55, 0
4, 54240, Note_on_c, 0, 43, 0
4, 54720, Note_on_c, 0, 36, 49
4, 54720, Note_on_c, 0, 48, 49
4, 54960, Note_on_c, 0, 48, 0
4, 54960, Note_on_c, 0, 36, 0
4, 55440, Note_on_c, 0, 48, 49
4, 55440, Note_on_c, 0, 60, 49
4, 55680, Note_on_c, 0, 60, 0
4, 55680, Note_on_c, 0, 48, 0
4, 56160, Note_on_c, 0, 37, 62
4, 56160, Note_on_c, 0, 49, 62
4, 56400, Note_on_c, 0, 49, 0
4, 56400, Note_on_c, 0, 37, 0
4, 56880, Note_on_c, 0, 49, 62
4, 56880, Note_on_c, 0, 61, 62
4, 57120, Note_on_c, 0, 61, 0
4, 57120, Note_on_c, 0, 49, 0
4, 57600, Note_on_c, 0, 38, 62
4, 57600, Note_on_c, 0, 43, 62
4, 57600, Note_on_c, 0, 47, 62
4, 57600, Note_on_c, 0, 50, 62
4, 57840, Note_on_c, 0, 50, 0
4, 57840, Note_on_c, 0, 38, 0
4, 57840, Note_on_c, 0, 43, 0
4, 57840, Note_on_c, 0, 47, 0
4, 58320, Note_on_c, 0, 50, 62
4, 58320, Note_on_c, 0, 55, 62
4, 58320, Note_on_c, 0, 59, 62
4, 58320, Note_on_c, 0, 62, 62
4, 58560, Note_on_c, 0, 62, 0
4, 58560, Note_on_c, 0, 50, 0
4, 58560, Note_on_c, 0, 55, 0
4, 58560, Note_on_c, 0, 59, 0
4, 59040, Note_on_c, 0, 38, 75
4, 59040, Note_on_c, 0, 45, 75
4, 59040, Note_on_c, 0, 50, 75
4, 59280, Note_on_c, 0, 50, 0
4, 59280, Note_on_c, 0, 45, 0
4, 59280, Note_on_c, 0, 38, 0
4, 59760, Note_on_c, 0, 50, 75
4, 59760, Note_on_c, 0, 54, 75
4, 59760, Note_on_c, 0, 57, 75
4, 59760, Note_on_c, 0, 62, 75
4, 60000, Note_on_c, 0, 62, 0
4, 60000, Note_on_c, 0, 50, 0
4, 60000, Note_on_c, 0, 54, 0
4, 60000, Note_on_c, 0, 57, 0
4, 60480, Note_on_c, 0, 43, 75
4, 60480, Note_on_c, 0, 55, 75
4, 60720, Note_on_c, 0, 55, 0
4, 60720, Note_on_c, 0, 43, 0
4, 60720, Control_c, 0, 64, 127
4, 60720, Note_on_c, 0, 59, 75
4, 60720, Note_on_c, 0, 62, 75
4, 60960, Note_on_c, 0, 62, 0
4, 60960, Note_on_c, 0, 59, 0
4, 60960, Note_on_c, 0, 57, 75
4, 60960, Note_on_c, 0, 60, 75
4, 61200, Note_on_c, 0, 60, 0
4, 61200, Note_on_c, 0, 57, 0
4, 61200, Note_on_c, 0, 55, 75
4, 61200, Note_on_c, 0, 59, 75
4, 61440, Note_on_c, 0, 59, 0
4, 61440, Note_on_c, 0, 55, 0
4, 61440, Note_on_c, 0, 54, 75
4, 61440, Note_on_c, 0, 57, 75
4, 61680, Note_on_c, 0, 57, 0
4, 61680, Note_on_c, 0, 54, 0
4, 61680, Control_c, 0, 64, 0
4, 61680, Note_on_c, 0, 52, 75
4, 61680, Note_on_c, 0, 55, 75
4, 61920, Note_on_c, 0, 55, 0
4, 61920, Note_on_c, 0, 52, 0
4, 61920, Note_on_c, 0, 50, 49
4, 61920, Note_on_c, 0, 54, 49
4, 62400, Note_on_c, 0, 54, 0
4, 62400, Note_on_c, 0, 50, 0
4, 62400, Note_on_c, 0, 52, 49
4, 62400, Note_on_c, 0, 55, 49
4, 62880, Note_on_c, 0, 55, 0
4, 62880, Note_on_c, 0, 52, 0
4, 62880, Note_on_c, 0, 53, 49
4, 62880, Note_on_c, 0, 56, 49
4, 63360, Note_on_c, 0, 56, 0
4, 63360, Note_on_c, 0, 53, 0
4, 63360, Note_on_c, 0, 53, 49
4, 63360, Note_on_c, 0, 56, 49
4, 63840, Note_on_c, 0, 56, 0
4, 63840, Note_on_c, 0, 53, 0
4, 63840, Note_on_c, 0, 54, 49
4, 63840, Note_on_c, 0, 57, 49
4, 64320, Note_on_c, 0, 57, 0
4, 64320, Note_on_c, 0, 54, 0
4, 64320, Note_on_c, 0, 57, 49
4, 64320, Note_on_c, 0, 60, 49
4, 64800, Note_on_c, 0, 60, 0
4, 64800, Note_on_c, 0, 57, 0
4, 64800, Note_on_c, 0, 50, 49
4, 64800, Note_on_c, 0, 54, 49
4, 65280, Note_on_c, 0, 54, 0
4, 65280, Note_on_c, 0, 50, 0
4, 65280, Note_on_c, 0, 52, 49
4, 65280, Note_on_c, 0, 55, 49
4, 65760, Note_on_c, 0, 55, 0
4, 65760, Note_on_c, 0, 52, 0
4, 65760, Note_on_c, 0, 53, 49
4, 65760, Note_on_c, 0, 56, 49
4, 66240, Note_on_c, 0, 56, 0
4, 66240, Note_on_c, 0, 53, 0
4, 66240, Note_on_c, 0, 53, 49
4, 66240, Note_on_c, 0, 56, 49
4, 66720, Note_on_c, 0, 56, 0
4, 66720, Note_on_c, 0, 53, 0
4, 66720, Note_on_c, 0, 54, 49
4, 66720, Note_on_c, 0, 57, 49
4, 67680, Note_on_c, 0, 57, 0
4, 67680, Note_on_c, 0, 54, 0
4, 67680, Note_on_c, 0, 50, 49
4, 67680, Note_on_c, 0, 54, 49
4, 68160, Note_on_c, 0, 54, 0
4, 68160, Note_on_c, 0, 50, 0
4, 68160, Note_on_c, 0, 52, 49
4, 68160, Note_on_c, 0, 55, 49
4, 68640, Note_on_c, 0, 55, 0
4, 68640, Note_on_c, 0, 52, 0
4, 68640, Note_on_c, 0, 53, 49
4, 68640, Note_on_c, 0, 56, 49
4, 69120, Note_on_c, 0, 56, 0
4, 69120, Note_on_c, 0, 53, 0
4, 69120, Note_on_c, 0, 53, 49
4, 69120, Note_on_c, 0, 56, 49
4, 69600, Note_on_c, 0, 56, 0
4, 69600, Note_on_c, 0, 53, 0
4, 69600, Note_on_c, 0, 54, 49
4, 69600, Note_on_c, 0, 57, 49
4, 70080, Note_on_c, 0, 57, 0
4, 70080, Note_on_c, 0, 54, 0
4, 70080, Note_on_c, 0, 57, 49
4, 70080, Note_on_c, 0, 60, 49
4, 70560, Note_on_c, 0, 60, 0
4, 70560, Note_on_c, 0, 57, 0
4, 70560, Note_on_c, 0, 50, 49
4, 70560, Note_on_c, 0, 54, 49
4, 71040, Note_on_c, 0, 54, 0
4, 71040, Note_on_c, 0, 50, 0
4, 71040, Note_on_c, 0, 52, 49
4, 71040, Note_on_c, 0, 55, 49
4, 71520, Note_on_c, 0, 55, 0
4, 71520, Note_on_c, 0, 52, 0
4, 71520, Note_on_c, 0, 54, 49
4, 71520, Note_on_c, 0, 57, 49
4, 71760, Note_on_c, 0, 57, 0
4, 71760, Note_on_c, 0, 54, 0
4, 71760, Note_on_c, 0, 55, 49
4, 71760, Note_on_c, 0, 59, 49
4, 72000, Note_on_c, 0, 59, 0
4, 72000, Note_on_c, 0, 55, 0
4, 72000, Note_on_c, 0, 57, 49
4, 72000, Note_on_c, 0, 60, 49
4, 72240, Note_on_c, 0, 60, 0
4, 72240, Note_on_c, 0, 57, 0
4, 72240, Note_on_c, 0, 59, 49
4, 72240, Note_on_c, 0, 62, 49
4, 72480, Note_on_c, 0, 62, 0
4, 72480, Note_on_c, 0, 59, 0
4, 72480, Note_on_c, 0, 57, 49
4, 72480, Note_on_c, 0, 60, 49
4, 72720, Note_on_c, 0, 60, 0
4, 72720, Note_on_c, 0, 57, 0
4, 72720, Note_on_c, 0, 54, 49
4, 72720, Note_on_c, 0, 57, 49
4, 72960, Note_on_c, 0, 57, 0
4, 72960, Note_on_c, 0, 54, 0
4, 72960, Note_on_c, 0, 55, 49
4, 72960, Note_on_c, 0, 59, 49
4, 73200, Note_on_c, 0, 59, 0
4, 73200, Note_on_c, 0, 55, 0
4, 73200, Note_on_c, 0, 57, 49
4, 73200, Note_on_c, 0, 60, 49
4, 73440, Note_on_c, 0, 60, 0
4, 73440, Note_on_c, 0, 57, 0
4, 73440, Note_on_c, 0, 31, 49
4, 73440, Note_on_c, 0, 43, 49
4, 73680, Note_on_c, 0, 43, 0
4, 73680, Note_on_c, 0, 31, 0
4, 74160, Note_on_c, 0, 38, 49
4, 74160, Note_on_c, 0, 50, 49
4, 74400, Note_on_c, 0, 50, 0
4, 74400, Note_on_c, 0, 38, 0
4, 74880, Note_on_c, 0, 43, 49
4, 74880, Note_on_c, 0, 55, 49
4, 75120, Note_on_c, 0, 55, 0
4, 75120, Note_on_c, 0, 43, 0
4, 75600, Note_on_c, 0, 38, 49
4, 75600, Note_on_c, 0, 50, 49
4, 75840, Note_on_c, 0, 50, 0
4, 75840, Note_on_c, 0, 38, 0
4, 76320, Note_on_c, 0, 31, 49
4, 76320, Note_on_c, 0, 43, 49
4, 76560, Note_on_c, 0, 43, 0
4, 76560, Note_on_c, 0, 31, 0
4, 77040, Note_on_c, 0, 38, 49
4, 77040, Note_on_c, 0, 50, 49
4, 77280, Note_on_c, 0, 50, 0
4, 77280, Note_on_c, 0, 38, 0
4, 77760, Note_on_c, 0, 43, 49
4, 77760, Note_on_c, 0, 55, 49
4, 78000, Note_on_c, 0, 55, 0
4, 78000, Note_on_c, 0, 43, 0
4, 78480, Note_on_c, 0, 40, 49
4, 78480, Note_on_c, 0, 52, 49
4, 78720, Note_on_c, 0, 52, 0
4, 78720, Note_on_c, 0, 40, 0
4, 79200, Note_on_c, 0, 31, 49
4, 79200, Note_on_c, 0, 43, 49
4, 79440, Note_on_c, 0, 43, 0
4, 79440, Note_on_c, 0, 31, 0
4, 79920, Note_on_c, 0, 38, 49
4, 79920, Note_on_c, 0, 50, 49
4, 80160, Note_on_c, 0, 50, 0
4, 80160, Note_on_c, 0, 38, 0
4, 80640, Note_on_c, 0, 43, 49
4, 80640, Note_on_c, 0, 55, 49
4, 80880, Note_on_c, 0, 55, 0
4, 80880, Note_on_c, 0, 43, 0
4, 81360, Note_on_c, 0, 38, 49
4, 81360, Note_on_c, 0, 50, 49
4, 81600, Note_on_c, 0, 50, 0
4, 81600, Note_on_c, 0, 38, 0
4, 82080, Note_on_c, 0, 31, 49
4, 82080, Note_on_c, 0, 43, 49
4, 82320, Note_on_c, 0, 43, 0
4, 82320, Note_on_c, 0, 31, 0
4, 82800, Note_on_c, 0, 38, 49
4, 82800, Note_on_c, 0, 50, 49
4, 83040, Note_on_c, 0, 50, 0
4, 83040, Note_on_c, 0, 38, 0
4, 83520, Note_on_c, 0, 43, 49
4, 83520, Note_on_c, 0, 55, 49
4, 83760, Note_on_c, 0, 55, 0
4, 83760, Note_on_c, 0, 43, 0
4, 84240, Note_on_c, 0, 38, 49
4, 84240, Note_on_c, 0, 50, 49
4, 84480, Note_on_c, 0, 50, 0
4, 84480, Note_on_c, 0, 38, 0
4, 84960, Note_on_c, 0, 31, 49
4, 84960, Note_on_c, 0, 43, 49
4, 85200, Note_on_c, 0, 43, 0
4, 85200, Note_on_c, 0, 31, 0
4, 85680, Note_on_c, 0, 38, 49
4, 85680, Note_on_c, 0, 50, 49
4, 85920, Note_on_c, 0, 50, 0
4, 85920, Note_on_c, 0, 38, 0
4, 86400, Note_on_c, 0, 43, 49
4, 86400, Note_on_c, 0, 55, 49
4, 86640, Note_on_c, 0, 55, 0
4, 86640, Note_on_c, 0, 43, 0
4, 87120, Note_on_c, 0, 38, 49
4, 87120, Note_on_c, 0, 50, 49
4, 87360, Note_on_c, 0, 50, 0
4, 87360, Note_on_c, 0, 38, 0
4, 87840, Note_on_c, 0, 31, 49
4, 87840, Note_on_c, 0, 43, 49
4, 88080, Note_on_c, 0, 43, 0
4, 88080, Note_on_c, 0, 31, 0
4, 88560, Note_on_c, 0, 43, 49
4, 88560, Note_on_c, 0, 55, 49
4, 88800, Note_on_c, 0, 55, 0
4, 88800, Note_on_c, 0, 43, 0
4, 89280, Note_on_c, 0, 36, 49
4, 89280, Note_on_c, 0, 48, 49
4, 89520, Note_on_c, 0, 48, 0
4, 89520, Note_on_c, 0, 36, 0
4, 90000, Note_on_c, 0, 48, 49
4, 90000, Note_on_c, 0, 60, 49
4, 90240, Note_on_c, 0, 60, 0
4, 90240, Note_on_c, 0, 48, 0
4, 90720, Note_on_c, 0, 37, 62
4, 90720, Note_on_c, 0, 49, 62
4, 90960, Note_on_c, 0, 49, 0
4, 90960, Note_on_c, 0, 37, 0
4, 91440, Note_on_c, 0, 49, 62
4, 91440, Note_on_c, 0, 61, 62
4, 91680, Note_on_c, 0, 61, 0
4, 91680, Note_on_c, 0, 49, 0
4, 92160, Note_on_c, 0, 38, 62
4, 92160, Note_on_c, 0, 43, 62
4, 92160, Note_on_c, 0, 47, 62
4, 92160, Note_on_c, 0, 50, 62
4, 92400, Note_on_c, 0, 50, 0
4, 92400, Note_on_c, 0, 38, 0
4, 92400, Note_on_c, 0, 43, 0
4, 92400, Note_on_c, 0, 47, 0
4, 92880, Note_on_c, 0, 50, 62
4, 92880, Note_on_c, 0, 55, 62
4, 92880, Note_on_c, 0, 59, 62
4, 92880, Note_on_c, 0, 62, 62
4, 93120, Note_on_c, 0, 62, 0
4, 93120, Note_on_c, 0, 50, 0
4, 93120, Note_on_c, 0, 55, 0
4, 93120, Note_on_c, 0, 59, 0
4, 93600, Note_on_c, 0, 38, 75
4, 93600, Note_on_c, 0, 45, 75
4, 93600, Note_on_c, 0, 50, 75
4, 93840, Note_on_c, 0, 50, 0
4, 93840, Note_on_c, 0, 45, 0
4, 93840, Note_on_c, 0, 38, 0
4, 94320, Note_on_c, 0, 50, 75
4, 94320, Note_on_c, 0, 54, 75
4, 94320, Note_on_c, 0, 57, 75
4, 94320, Note_on_c, 0, 62, 75
4, 94560, Note_on_c, 0, 62, 0
4, 94560, Note_on_c, 0, 50, 0
4, 94560, Note_on_c, 0, 54, 0
4, 94560, Note_on_c, 0, 57, 0
4, 95040, Note_on_c, 0, 55, 75
4, 95280, Note_on_c, 0, 55, 0
4, 96480, Note_on_c, 0, 65, 75
4, 96960, Note_on_c, 0, 65, 0
4, 96960, Note_on_c, 0, 64, 75
4, 97440, Note_on_c, 0, 64, 0
4, 97440, Note_on_c, 0, 65, 75
4, 97920, Note_on_c, 0, 65, 0
4, 97920, Note_on_c, 0, 64, 75
4, 98400, Note_on_c, 0, 64, 0
4, 98400, Note_on_c, 0, 63, 75
4, 98880, Note_on_c, 0, 63, 0
4, 98880, Note_on_c, 0, 64, 75
4, 99360, Note_on_c, 0, 64, 0
4, 99360, Note_on_c, 0, 63, 75
4, 99840, Note_on_c, 0, 63, 0
4, 99840, Note_on_c, 0, 62, 75
4, 100320, Note_on_c, 0, 62, 0
4, 100320, Note_on_c, 0, 63, 75
4, 100800, Note_on_c, 0, 63, 0
4, 100800, Note_on_c, 0, 62, 75
4, 101280, Note_on_c, 0, 62, 0
4, 101280, Note_on_c, 0, 61, 75
4, 101760, Note_on_c, 0, 61, 0
4, 101760, Note_on_c, 0, 62, 75
4, 102240, Note_on_c, 0, 62, 0
4, 102240, Note_on_c, 0, 53, 75
4, 102720, Note_on_c, 0, 53, 0
4, 102720, Note_on_c, 0, 52, 75
4, 103200, Note_on_c, 0, 52, 0
4, 103200, Note_on_c, 0, 53, 75
4, 103680, Note_on_c, 0, 53, 0
4, 103680, Note_on_c, 0, 52, 75
4, 104160, Note_on_c, 0, 52, 0
4, 104160, Note_on_c, 0, 51, 75
4, 104640, Note_on_c, 0, 51, 0
4, 104640, Note_on_c, 0, 52, 75
4, 105120, Note_on_c, 0, 52, 0
4, 105120, Note_on_c, 0, 51, 75
4, 105600, Note_on_c, 0, 51, 0
4, 105600, Note_on_c, 0, 50, 75
4, 106080, Note_on_c, 0, 50, 0
4, 106080, Note_on_c, 0, 51, 75
4, 106560, Note_on_c, 0, 51, 0
4, 106560, Control_c, 0, 64, 127
4, 106560, Note_on_c, 0, 31, 49
4, 106620, Note_on_c, 0, 31, 0
4, 106620, Note_on_c, 0, 43, 49
4, 106680, Note_on_c, 0, 43, 0
4, 106680, Note_on_c, 0, 31, 49
4, 106740, Note_on_c, 0, 31, 0
4, 106740, Note_on_c, 0, 43, 49
4, 106800, Note_on_c, 0, 43, 0
4, 106800, Note_on_c, 0, 31, 49
4, 106860, Note_on_c, 0, 31, 0
4, 106860, Note_on_c, 0, 43, 49
4, 106920, Note_on_c, 0, 43, 0
4, 106920, Note_on_c, 0, 31, 49
4, 106980, Note_on_c, 0, 31, 0
4, 106980, Note_on_c, 0, 43, 49
4, 107040, Note_on_c, 0, 43, 0
4, 107040, Note_on_c, 0, 31, 49
4, 107100, Note_on_c, 0, 31, 0
4, 107100, Note_on_c, 0, 43, 49
4, 107160, Note_on_c, 0, 43, 0
4, 107160, Note_on_c, 0, 31, 49
4, 107220, Note_on_c, 0, 31, 0
4, 107220, Note_on_c, 0, 43, 49
4, 107280, Note_on_c, 0, 43, 0
4, 107280, Note_on_c, 0, 31, 49
4, 107340, Note_on_c, 0, 31, 0
4, 107340, Note_on_c, 0, 43, 49
4, 107400, Note_on_c, 0, 43, 0
4, 107400, Note_on_c, 0, 31, 49
4, 107460, Note_on_c, 0, 31, 0
4, 107460, Note_on_c, 0, 43, 49
4, 107520, Note_on_c, 0, 43, 0
4, 107520, Note_on_c, 0, 31, 49
4, 107580, Note_on_c, 0, 31, 0
4, 107580, Note_on_c, 0, 43, 49
4, 107640, Note_on_c, 0, 43, 0
4, 107640, Note_on_c, 0, 31, 49
4, 107700, Note_on_c, 0, 31, 0
4, 107700, Note_on_c, 0, 43, 49
4, 107760, Note_on_c, 0, 43, 0
4, 107760, Note_on_c, 0, 31, 49
4, 107820, Note_on_c, 0, 31, 0
4, 107820, Note_on_c, 0, 43, 49
4, 107880, Note_on_c, 0, 43, 0
4, 107880, Note_on_c, 0, 31, 49
4, 107940, Note_on_c, 0, 31, 0
4, 107940, Control_c, 0, 64, 0
4, 107940, Note_on_c, 0, 43, 49
4, 108000, Note_on_c, 0, 43, 0
4, 108000, Control_c, 0, 64, 127
4, 108000, Note_on_c, 0, 31, 49
4, 108060, Note_on_c, 0, 31, 0
4, 108060, Note_on_c, 0, 43, 49
4, 108120, Note_on_c, 0, 43, 0
4, 108120, Note_on_c, 0, 31, 49
4, 108180, Note_on_c, 0, 31, 0
4, 108180, Note_on_c, 0, 43, 49
4, 108240, Note_on_c, 0, 43, 0
4, 108240, Note_on_c, 0, 31, 49
4, 108300, Note_on_c, 0, 31, 0
4, 108300, Note_on_c, 0, 43, 49
4, 108360, Note_on_c, 0, 43, 0
4, 108360, Note_on_c, 0, 31, 49
4, 108420, Note_on_c, 0, 31, 0
4, 108420, Note_on_c, 0, 43, 49
4, 108480, Note_on_c, 0, 43, 0
4, 108480, Note_on_c, 0, 31, 49
4, 108540, Note_on_c, 0, 31, 0
4, 108540, Note_on_c, 0, 43, 49
4, 108600, Note_on_c, 0, 43, 0
4, 108600, Note_on_c, 0, 31, 49
4, 108660, Note_on_c, 0, 31, 0
4, 108660, Note_on_c, 0, 43, 49
4, 108720, Note_on_c, 0, 43, 0
4, 108720, Note_on_c, 0, 31, 49
4, 108780, Note_on_c, 0, 31, 0
4, 108780, Note_on_c, 0, 43, 49
4, 108840, Note_on_c, 0, 43, 0
4, 108840, Note_on_c, 0, 31, 49
4, 108900, Note_on_c, 0, 31, 0
4, 108900, Note_on_c, 0, 43, 49
4, 108960, Note_on_c, 0, 43, 0
4, 108960, Note_on_c, 0, 31, 49
4, 109020, Note_on_c, 0, 31, 0
4, 109020, Note_on_c, 0, 43, 49
4, 109080, Note_on_c, 0, 43, 0
4, 109080, Note_on_c, 0, 31, 49
4, 109140, Note_on_c, 0, 31, 0
4, 109140, Note_on_c, 0, 43, 49
4, 109200, Note_on_c, 0, 43, 0
4, 109200, Note_on_c, 0, 31, 49
4, 109260, Note_on_c, 0, 31, 0
4, 109260, Note_on_c, 0, 43, 49
4, 109320, Note_on_c, 0, 43, 0
4, 109320, Note_on_c, 0, 31, 49
4, 109380, Note_on_c, 0, 31, 0
4, 109380, Control_c, 0, 64, 0
4, 109380, Note_on_c, 0, 43, 49
4, 109440, Note_on_c, 0, 43, 0
4, 109440, Control_c, 0, 64, 127
4, 109440, Note_on_c, 0, 31, 49
4, 109500, Note_on_c, 0, 31, 0
4, 109500, Note_on_c, 0, 43, 49
4, 109560, Note_on_c, 0, 43, 0
4, 109560, Note_on_c, 0, 31, 49
4, 109620, Note_on_c, 0, 31, 0
4, 109620, Note_on_c, 0, 43, 49
4, 109680, Note_on_c, 0, 43, 0
4, 109680, Note_on_c, 0, 31, 49
4, 109740, Note_on_c, 0, 31, 0
4, 109740, Note_on_c, 0, 43, 49
4, 109800, Note_on_c, 0, 43, 0
4, 109800, Note_on_c, 0, 31, 49
4, 109860, Note_on_c, 0, 31, 0
4, 109860, Note_on_c, 0, 43, 49
4, 109920, Note_on_c, 0, 43, 0
4, 109920, Note_on_c, 0, 31, 49
4, 109980, Note_on_c, 0, 31, 0
4, 109980, Note_on_c, 0, 43, 49
4, 110040, Note_on_c, 0, 43, 0
4, 110040, Note_on_c, 0, 31, 49
4, 110100, Note_on_c, 0, 31, 0
4, 110100, Note_on_c, 0, 43, 49
4, 110160, Note_on_c, 0, 43, 0
4, 110160, Note_on_c, 0, 31, 49
4, 110220, Note_on_c, 0, 31, 0
4, 110220, Note_on_c, 0, 43, 49
4, 110280, Note_on_c, 0, 43, 0
4, 110280, Note_on_c, 0, 31, 49
4, 110340, Note_on_c, 0, 31, 0
4, 110340, Note_on_c, 0, 43, 49
4, 110400, Note_on_c, 0, 43, 0
4, 110400, Note_on_c, 0, 31, 49
4, 110460, Note_on_c, 0, 31, 0
4, 110460, Note_on_c, 0, 43, 49
4, 110520, Note_on_c, 0, 43, 0
4, 110520, Note_on_c, 0, 31, 49
4, 110580, Note_on_c, 0, 31, 0
4, 110580, Note_on_c, 0, 43, 49
4, 110640, Note_on_c, 0, 43, 0
4, 110640, Note_on_c, 0, 31, 49
4, 110700, Note_on_c, 0, 31, 0
4, 110700, Note_on_c, 0, 43, 49
4, 110760, Note_on_c, 0, 43, 0
4, 110760, Note_on_c, 0, 31, 49
4, 110820, Note_on_c, 0, 31, 0
4, 110820, Control_c, 0, 64, 0
4, 110820, Note_on_c, 0, 43, 49
4, 110880, Note_on_c, 0, 43, 0
4, 110880, Control_c, 0, 64, 127
4, 110880, Note_on_c, 0, 31, 49
4, 110940, Note_on_c, 0, 31, 0
4, 110940, Note_on_c, 0, 43, 49
4, 111000, Note_on_c, 0, 43, 0
4, 111000, Note_on_c, 0, 31, 49
4, 111060, Note_on_c, 0, 31, 0
4, 111060, Note_on_c, 0, 43, 49
4, 111120, Note_on_c, 0, 43, 0
4, 111120, Note_on_c, 0, 31, 49
4, 111180, Note_on_c, 0, 31, 0
4, 111180, Note_on_c, 0, 43, 49
4, 111240, Note_on_c, 0, 43, 0
4, 111240, Note_on_c, 0, 31, 49
4, 111300, Note_on_c, 0, 31, 0
4, 111300, Note_on_c, 0, 43, 49
4, 111360, Note_on_c, 0, 43, 0
4, 111360, Note_on_c, 0, 31, 49
4, 111420, Note_on_c, 0, 31, 0
4, 111420, Note_on_c, 0, 43, 49
4, 111480, Note_on_c, 0, 43, 0
4, 111480, Note_on_c, 0, 31, 49
4, 111540, Note_on_c, 0, 31, 0
4, 111540, Note_on_c, 0, 43, 49
4, 111600, Note_on_c, 0, 43, 0
4, 111600, Control_c, 0, 64, 0
4, 111600, Note_on_c, 0, 31, 49
4, 111600, Note_on_c, 0, 43, 49
4, 111840, Note_on_c, 0, 43, 0
4, 111840, Note_on_c, 0, 31, 0
4, 112320, Note_on_c, 0, 31, 49
4, 112320, Note_on_c, 0, 43, 49
4, 112416, Note_on_c, 0, 43, 0
4, 112416, Note_on_c, 0, 31, 0
4, 112416, End_track
5, 0, Start_track
5, 0, Title_t, "Grand Piano"
5, 0, Program_c, 0, 0
5, 0, Control_c, 0, 7, 115
5, 0, Control_c, 0, 10, 48
5, 7920, Control_c, 0, 64, 127
5, 7920, Note_on_c, 0, 52, 62
5, 7980, Note_on_c, 0, 52, 0
5, 7980, Note_on_c, 0, 57, 62
5, 8040, Note_on_c, 0, 57, 0
5, 8040, Note_on_c, 0, 60, 62
5, 8100, Note_on_c, 0, 60, 0
5, 8100, Note_on_c, 0, 64, 62
5, 8160, Note_on_c, 0, 64, 0
5, 8160, Note_on_c, 0, 69, 62
5, 8207, Note_on_c, 0, 69, 0
5, 8207, Note_on_c, 0, 72, 62
5, 8256, Note_on_c, 0, 72, 0
5, 8256, Note_on_c, 0, 76, 62
5, 8303, Note_on_c, 0, 76, 0
5, 8303, Note_on_c, 0, 81, 62
5, 8352, Note_on_c, 0, 81, 0
5, 8352, Note_on_c, 0, 84, 62
5, 8400, Note_on_c, 0, 84, 0
5, 8400, Control_c, 0, 64, 0
5, 8400, Note_on_c, 0, 88, 62
5, 8640, Note_on_c, 0, 88, 0
5, 13200, Control_c, 0, 64, 127
5, 13200, Note_on_c, 0, 62, 75
5, 13260, Note_on_c, 0, 62, 0
5, 13260, Note_on_c, 0, 66, 75
5, 13320, Note_on_c, 0, 66, 0
5, 13320, Note_on_c, 0, 69, 75
5, 13380, Note_on_c, 0, 69, 0
5, 13380, Note_on_c, 0, 72, 75
5, 13440, Note_on_c, 0, 72, 0
5, 13440, Note_on_c, 0, 74, 75
5, 13479, Note_on_c, 0, 74, 0
5, 13479, Note_on_c, 0, 78, 75
5, 13520, Note_on_c, 0, 78, 0
5, 13520, Note_on_c, 0, 81, 75
5, 13560, Note_on_c, 0, 81, 0
5, 13560, Note_on_c, 0, 86, 75
5, 13599, Note_on_c, 0, 86, 0
5, 13599, Note_on_c, 0, 90, 75
5, 13640, Note_on_c, 0, 90, 0
5, 13640, Note_on_c, 0, 93, 75
5, 13680, Note_on_c, 0, 93, 0
5, 13680, Note_on_c, 0, 98, 75
5, 13719, Note_on_c, 0, 98, 0
5, 13719, Note_on_c, 0, 96, 75
5, 13760, Note_on_c, 0, 96, 0
5, 13760, Note_on_c, 0, 93, 75
5, 13800, Note_on_c, 0, 93, 0
5, 13800, Note_on_c, 0, 90, 75
5, 13839, Note_on_c, 0, 90, 0
5, 13839, Note_on_c, 0, 86, 75
5, 13880, Note_on_c, 0, 86, 0
5, 13880, Note_on_c, 0, 84, 75
5, 13920, Note_on_c, 0, 84, 0
5, 13920, Note_on_c, 0, 81, 75
5, 13959, Note_on_c, 0, 81, 0
5, 13959, Note_on_c, 0, 78, 75
5, 14000, Note_on_c, 0, 78, 0
5, 14000, Note_on_c, 0, 74, 75
5, 14040, Note_on_c, 0, 74, 0
5, 14040, Note_on_c, 0, 72, 75
5, 14079, Note_on_c, 0, 72, 0
5, 14079, Note_on_c, 0, 69, 75
5, 14120, Note_on_c, 0, 69, 0
5, 14120, Note_on_c, 0, 66, 75
5, 14160, Note_on_c, 0, 66, 0
5, 14160, Control_c, 0, 64, 0
5, 14160, Note_on_c, 0, 62, 75
5, 14400, Note_on_c, 0, 62, 0
5, 19440, Control_c, 0, 64, 127
5, 19440, Note_on_c, 0, 52, 75
5, 19500, Note_on_c, 0, 52, 0
5, 19500, Note_on_c, 0, 57, 75
5, 19560, Note_on_c, 0, 57, 0
5, 19560, Note_on_c, 0, 61, 75
5, 19620, Note_on_c, 0, 61, 0
5, 19620, Note_on_c, 0, 64, 75
5, 19680, Note_on_c, 0, 64, 0
5, 19680, Note_on_c, 0, 69, 75
5, 19727, Note_on_c, 0, 69, 0
5, 19727, Note_on_c, 0, 73, 75
5, 19776, Note_on_c, 0, 73, 0
5, 19776, Note_on_c, 0, 76, 75
5, 19823, Note_on_c, 0, 76, 0
5, 19823, Note_on_c, 0, 81, 75
5, 19872, Note_on_c, 0, 81, 0
5, 19872, Note_on_c, 0, 85, 75
5, 19920, Note_on_c, 0, 85, 0
5, 19920, Control_c, 0, 64, 0
5, 19920, Note_on_c, 0, 88, 75
5, 20160, Note_on_c, 0, 88, 0
5, 21600, Note_on_c, 0, 52, 75
5, 21600, Note_on_c, 0, 59, 75
5, 21600, Note_on_c, 0, 64, 75
5, 21600, Note_on_c, 0, 71, 75
5, 21600, Note_on_c, 0, 76, 75
5, 21840, Note_on_c, 0, 76, 0
5, 21840, Note_on_c, 0, 64, 0
5, 21840, Note_on_c, 0, 52, 0
5, 21840, Note_on_c, 0, 59, 0
5, 21840, Note_on_c, 0, 71, 0
5, 23040, Note_on_c, 0, 45, 49
5, 23040, Note_on_c, 0, 55, 49
5, 23040, Note_on_c, 0, 57, 49
5, 23040, Note_on_c, 0, 61, 49
5, 23040, Note_on_c, 0, 67, 49
5, 23040, Note_on_c, 0, 69, 49
5, 23040, Note_on_c, 0, 73, 49
5, 23280, Note_on_c, 0, 73, 0
5, 23280, Note_on_c, 0, 67, 0
5, 23280, Note_on_c, 0, 55, 0
5, 23280, Note_on_c, 0, 57, 0
5, 23280, Note_on_c, 0, 45, 0
5, 23280, Note_on_c, 0, 69, 0
5, 23280, Note_on_c, 0, 61, 0
5, 24480, Note_on_c, 0, 50, 49
5, 24480, Note_on_c, 0, 54, 49
5, 24480, Note_on_c, 0, 57, 49
5, 24480, Note_on_c, 0, 62, 49
5, 24480, Note_on_c, 0, 66, 49
5, 24480, Note_on_c, 0, 69, 49
5, 24480, Note_on_c, 0, 74, 49
5, 24720, Note_on_c, 0, 74, 0
5, 24720, Note_on_c, 0, 66, 0
5, 24720, Note_on_c, 0, 54, 0
5, 24720, Note_on_c, 0, 57, 0
5, 24720, Note_on_c, 0, 50, 0
5, 24720, Note_on_c, 0, 69, 0
5, 24720, Note_on_c, 0, 62, 0
5, 24720, Control_c, 0, 64, 127
5, 24720, Note_on_c, 0, 50, 75
5, 24780, Note_on_c, 0, 50, 0
5, 24780, Note_on_c, 0, 54, 75
5, 24840, Note_on_c, 0, 54, 0
5, 24840, Note_on_c, 0, 57, 75
5, 24900, Note_on_c, 0, 57, 0
5, 24900, Note_on_c, 0, 62, 75
5, 24960, Note_on_c, 0, 62, 0
5, 24960, Note_on_c, 0, 66, 75
5, 24999, Note_on_c, 0, 66, 0
5, 24999, Note_on_c, 0, 69, 75
5, 25040, Note_on_c, 0, 69, 0
5, 25040, Note_on_c, 0, 74, 75
5, 25080, Note_on_c, 0, 74, 0
5, 25080, Note_on_c, 0, 78, 75
5, 25119, Note_on_c, 0, 78, 0
5, 25119, Note_on_c, 0, 81, 75
5, 25160, Note_on_c, 0, 81, 0
5, 25160, Note_on_c, 0, 86, 75
5, 25200, Note_on_c, 0, 86, 0
5, 25200, Note_on_c, 0, 90, 75
5, 25239, Note_on_c, 0, 90, 0
5, 25239, Note_on_c, 0, 93, 75
5, 25280, Note_on_c, 0, 93, 0
5, 25280, Note_on_c, 0, 98, 75
5, 25320, Note_on_c, 0, 98, 0
5, 25320, Note_on_c, 0, 93, 75
5, 25359, Note_on_c, 0, 93, 0
5, 25359, Note_on_c, 0, 90, 75
5, 25400, Note_on_c, 0, 90, 0
5, 25400, Note_on_c, 0, 86, 75
5, 25440, Note_on_c, 0, 86, 0
5, 25440, Note_on_c, 0, 81, 75
5, 25487, Note_on_c, 0, 81, 0
5, 25487, Note_on_c, 0, 78, 75
5, 25536, Note_on_c, 0, 78, 0
5, 25536, Note_on_c, 0, 74, 75
5, 25583, Note_on_c, 0, 74, 0
5, 25583, Note_on_c, 0, 69, 75
5, 25632, Note_on_c, 0, 69, 0
5, 25632, Note_on_c, 0, 66, 75
5, 25680, Note_on_c, 0, 66, 0
5, 25680, Note_on_c, 0, 62, 75
5, 25740, Note_on_c, 0, 62, 0
5, 25740, Note_on_c, 0, 57, 75
5, 25800, Note_on_c, 0, 57, 0
5, 25800, Note_on_c, 0, 54, 75
5, 25860, Note_on_c, 0, 54, 0
5, 25860, Control_c, 0, 64, 0
5, 25860, Note_on_c, 0, 50, 75
5, 25920, Note_on_c, 0, 50, 0
5, 25920, Control_c, 0, 64, 127
5, 25920, Note_on_c, 0, 50, 49
5, 26040, Note_on_c, 0, 50, 0
5, 26040, Note_on_c, 0, 50, 49
5, 26160, Note_on_c, 0, 50, 0
5, 26160, Note_on_c, 0, 50, 49
5, 26280, Note_on_c, 0, 50, 0
5, 26280, Note_on_c, 0, 50, 49
5, 26400, Note_on_c, 0, 50, 0
5, 26400, Note_on_c, 0, 50, 49
5, 26520, Note_on_c, 0, 50, 0
5, 26520, Note_on_c, 0, 50, 49
5, 26640, Note_on_c, 0, 50, 0
5, 26640, Note_on_c, 0, 50, 49
5, 26760, Note_on_c, 0, 50, 0
5, 26760, Note_on_c, 0, 50, 49
5, 26880, Note_on_c, 0, 50, 0
5, 26880, Note_on_c, 0, 50, 49
5, 27000, Note_on_c, 0, 50, 0
5, 27000, Note_on_c, 0, 50, 49
5, 27120, Note_on_c, 0, 50, 0
5, 27120, Note_on_c, 0, 50, 49
5, 27240, Note_on_c, 0, 50, 0
5, 27240, Note_on_c, 0, 50, 49
5, 27360, Note_on_c, 0, 50, 0
5, 27360, Note_on_c, 0, 50, 49
5, 27480, Note_on_c, 0, 50, 0
5, 27480, Note_on_c, 0, 50, 49
5, 27600, Note_on_c, 0, 50, 0
5, 27600, Note_on_c, 0, 50, 49
5, 27720, Note_on_c, 0, 50, 0
5, 27720, Note_on_c, 0, 50, 49
5, 27840, Note_on_c, 0, 50, 0
5, 27840, Note_on_c, 0, 50, 49
5, 27960, Note_on_c, 0, 50, 0
5, 27960, Note_on_c, 0, 50, 49
5, 28080, Note_on_c, 0, 50, 0
5, 28080, Note_on_c, 0, 50, 49
5, 28200, Note_on_c, 0, 50, 0
5, 28200, Note_on_c, 0, 50, 49
5, 28320, Note_on_c, 0, 50, 0
5, 28320, Note_on_c, 0, 50, 49
5, 28440, Note_on_c, 0, 50, 0
5, 28440, Note_on_c, 0, 50, 49
5, 28560, Note_on_c, 0, 50, 0
5, 28560, Note_on_c, 0, 50, 49
5, 28680, Note_on_c, 0, 50, 0
5, 28680, Note_on_c, 0, 50, 49
5, 28800, Note_on_c, 0, 50, 0
5, 28800, Note_on_c, 0, 50, 49
5, 28920, Note_on_c, 0, 50, 0
5, 28920, Note_on_c, 0, 50, 49
5, 29040, Note_on_c, 0, 50, 0
5, 29040, Note_on_c, 0, 50, 49
5, 29160, Note_on_c, 0, 50, 0
5, 29160, Note_on_c, 0, 50, 49
5, 29280, Note_on_c, 0, 50, 0
5, 29280, Note_on_c, 0, 50, 49
5, 29400, Note_on_c, 0, 50, 0
5, 29400, Note_on_c, 0, 50, 49
5, 29520, Note_on_c, 0, 50, 0
5, 29520, Note_on_c, 0, 50, 49
5, 29640, Note_on_c, 0, 50, 0
5, 29640, Note_on_c, 0, 50, 49
5, 29760, Note_on_c, 0, 50, 0
5, 29760, Note_on_c, 0, 50, 49
5, 29880, Note_on_c, 0, 50, 0
5, 29880, Note_on_c, 0, 50, 49
5, 30000, Note_on_c, 0, 50, 0
5, 30000, Note_on_c, 0, 50, 49
5, 30120, Note_on_c, 0, 50, 0
5, 30120, Control_c, 0, 64, 0
5, 30120, Note_on_c, 0, 50, 49
5, 30240, Note_on_c, 0, 50, 0
5, 30240, Control_c, 0, 64, 127
5, 30240, Note_on_c, 0, 50, 49
5, 30360, Note_on_c, 0, 50, 0
5, 30360, Note_on_c, 0, 50, 49
5, 30480, Note_on_c, 0, 50, 0
5, 30480, Note_on_c, 0, 50, 49
5, 30600, Note_on_c, 0, 50, 0
5, 30600, Note_on_c, 0, 50, 49
5, 30720, Note_on_c, 0, 50, 0
5, 30720, Note_on_c, 0, 50, 49
5, 30840, Note_on_c, 0, 50, 0
5, 30840, Note_on_c, 0, 50, 49
5, 30960, Note_on_c, 0, 50, 0
5, 30960, Note_on_c, 0, 50, 49
5, 31080, Note_on_c, 0, 50, 0
5, 31080, Note_on_c, 0, 50, 49
5, 31200, Note_on_c, 0, 50, 0
5, 31200, Note_on_c, 0, 50, 49
5, 31320, Note_on_c, 0, 50, 0
5, 31320, Note_on_c, 0, 50, 49
5, 31440, Note_on_c, 0, 50, 0
5, 31440, Note_on_c, 0, 50, 49
5, 31560, Note_on_c, 0, 50, 0
5, 31560, Note_on_c, 0, 50, 49
5, 31680, Note_on_c, 0, 50, 0
5, 31680, Note_on_c, 0, 50, 62
5, 31800, Note_on_c, 0, 50, 0
5, 31800, Note_on_c, 0, 50, 62
5, 31920, Note_on_c, 0, 50, 0
5, 31920, Note_on_c, 0, 50, 62
5, 32040, Note_on_c, 0, 50, 0
5, 32040, Note_on_c, 0, 50, 62
5, 32160, Note_on_c, 0, 50, 0
5, 32160, Note_on_c, 0, 50, 62
5, 32280, Note_on_c, 0, 50, 0
5, 32280, Note_on_c, 0, 50, 62
5, 32400, Note_on_c, 0, 50, 0
5, 32400, Note_on_c, 0, 50, 62
5, 32520, Note_on_c, 0, 50, 0
5, 32520, Note_on_c, 0, 50, 62
5, 32640, Note_on_c, 0, 50, 0
5, 32640, Note_on_c, 0, 50, 62
5, 32760, Note_on_c, 0, 50, 0
5, 32760, Note_on_c, 0, 50, 62
5, 32880, Note_on_c, 0, 50, 0
5, 32880, Note_on_c, 0, 50, 62
5, 33000, Note_on_c, 0, 50, 0
5, 33000, Note_on_c, 0, 50, 62
5, 33120, Note_on_c, 0, 50, 0
5, 33120, Note_on_c, 0, 50, 62
5, 33240, Note_on_c, 0, 50, 0
5, 33240, Note_on_c, 0, 50, 62
5, 33360, Note_on_c, 0, 50, 0
5, 33360, Note_on_c, 0, 50, 62
5, 33480, Note_on_c, 0, 50, 0
5, 33480, Note_on_c, 0, 50, 62
5, 33600, Note_on_c, 0, 50, 0
5, 33600, Note_on_c, 0, 50, 62
5, 33720, Note_on_c, 0, 50, 0
5, 33720, Note_on_c, 0, 50, 62
5, 33840, Note_on_c, 0, 50, 0
5, 33840, Note_on_c, 0, 50, 62
5, 33960, Note_on_c, 0, 50, 0
5, 33960, Note_on_c, 0, 50, 62
5, 34080, Note_on_c, 0, 50, 0
5, 34080, Note_on_c, 0, 50, 62
5, 34200, Note_on_c, 0, 50, 0
5, 34200, Note_on_c, 0, 50, 62
5, 34320, Note_on_c, 0, 50, 0
5, 34320, Note_on_c, 0, 50, 62
5, 34440, Note_on_c, 0, 50, 0
5, 34440, Control_c, 0, 64, 0
5, 34440, Note_on_c, 0, 50, 62
5, 34560, Note_on_c, 0, 50, 0
5, 34560, Note_on_c, 0, 50, 62
5, 34680, Note_on_c, 0, 50, 0
5, 34680, Note_on_c, 0, 50, 62
5, 34800, Note_on_c, 0, 50, 0
5, 34800, Note_on_c, 0, 50, 62
5, 34920, Note_on_c, 0, 50, 0
5, 34920, Note_on_c, 0, 50, 62
5, 35040, Note_on_c, 0, 50, 0
5, 35040, Note_on_c, 0, 50, 62
5, 35160, Note_on_c, 0, 50, 0
5, 35160, Note_on_c, 0, 50, 62
5, 35280, Note_on_c, 0, 50, 0
5, 35280, Note_on_c, 0, 50, 62
5, 35400, Note_on_c, 0, 50, 0
5, 35400, Note_on_c, 0, 50, 62
5, 35520, Note_on_c, 0, 50, 0
5, 35520, Note_on_c, 0, 50, 62
5, 35640, Note_on_c, 0, 50, 0
5, 35640, Note_on_c, 0, 50, 62
5, 35760, Note_on_c, 0, 50, 0
5, 35760, Note_on_c, 0, 50, 62
5, 35880, Note_on_c, 0, 50, 0
5, 35880, Control_c, 0, 64, 0
5, 35880, Note_on_c, 0, 50, 62
5, 36000, Note_on_c, 0, 50, 0
5, 36000, Control_c, 0, 64, 127
5, 36000, Note_on_c, 0, 50, 62
5, 36120, Note_on_c, 0, 50, 0
5, 36120, Note_on_c, 0, 50, 62
5, 36240, Note_on_c, 0, 50, 0
5, 36240, Note_on_c, 0, 50, 62
5, 36360, Note_on_c, 0, 50, 0
5, 36360, Note_on_c, 0, 50, 62
5, 36480, Note_on_c, 0, 50, 0
5, 36480, Note_on_c, 0, 50, 62
5, 36600, Note_on_c, 0, 50, 0
5, 36600, Note_on_c, 0, 50, 62
5, 36720, Note_on_c, 0, 50, 0
5, 36720, Note_on_c, 0, 50, 62
5, 36840, Note_on_c, 0, 50, 0
5, 36840, Note_on_c, 0, 50, 62
5, 36960, Note_on_c, 0, 50, 0
5, 36960, Note_on_c, 0, 50, 62
5, 37080, Note_on_c, 0, 50, 0
5, 37080, Note_on_c, 0, 50, 62
5, 37200, Note_on_c, 0, 50, 0
5, 37200, Note_on_c, 0, 50, 62
5, 37320, Note_on_c, 0, 50, 0
5, 37320, Note_on_c, 0, 50, 62
5, 37440, Note_on_c, 0, 50, 0
5, 37440, Note_on_c, 0, 50, 62
5, 37560, Note_on_c, 0, 50, 0
5, 37560, Note_on_c, 0, 50, 62
5, 37680, Note_on_c, 0, 50, 0
5, 37680, Note_on_c, 0, 50, 62
5, 37800, Note_on_c, 0, 50, 0
5, 37800, Note_on_c, 0, 50, 62
5, 37920, Note_on_c, 0, 50, 0
5, 37920, Note_on_c, 0, 50, 62
5, 38040, Note_on_c, 0, 50, 0
5, 38040, Note_on_c, 0, 50, 62
5, 38160, Note_on_c, 0, 50, 0
5, 38160, Note_on_c, 0, 50, 62
5, 38280, Note_on_c, 0, 50, 0
5, 38280, Note_on_c, 0, 50, 62
5, 38400, Note_on_c, 0, 50, 0
5, 38400, Note_on_c, 0, 50, 62
5, 38520, Note_on_c, 0, 50, 0
5, 38520, Note_on_c, 0, 50, 62
5, 38640, Note_on_c, 0, 50, 0
5, 38640, Note_on_c, 0, 50, 62
5, 38760, Note_on_c, 0, 50, 0
5, 38760, Control_c, 0, 64, 0
5, 38760, Note_on_c, 0, 50, 62
5, 38775, Note_on_c, 0, 50, 62
5, 38790, Note_on_c, 0, 55, 62
5, 38805, Note_on_c, 0, 59, 62
5, 38820, Note_on_c, 0, 62, 62
5, 38835, Note_on_c, 0, 67, 62
5, 38850, Note_on_c, 0, 71, 62
5, 38865, Note_on_c, 0, 74, 62
5, 38880, Note_on_c, 0, 50, 0
5, 38880, Note_on_c, 0, 79, 62
5, 39120, Note_on_c, 0, 79, 0
5, 39120, Note_on_c, 0, 62, 0
5, 39120, Note_on_c, 0, 67, 0
5, 39120, Note_on_c, 0, 55, 0
5, 39120, Note_on_c, 0, 59, 0
5, 39120, Note_on_c, 0, 74, 0
5, 39120, Note_on_c, 0, 71, 0
5, 39120, Note_on_c, 0, 50, 0
5, 43920, Control_c, 0, 64, 127
5, 43920, Note_on_c, 0, 52, 62
5, 43980, Note_on_c, 0, 52, 0
5, 43980, Note_on_c, 0, 57, 62
5, 44040, Note_on_c, 0, 57, 0
5, 44040, Note_on_c, 0, 60, 62
5, 44100, Note_on_c, 0, 60, 0
5, 44100, Note_on_c, 0, 64, 62
5, 44160, Note_on_c, 0, 64, 0
5, 44160, Note_on_c, 0, 69, 62
5, 44207, Note_on_c, 0, 69, 0
5, 44207, Note_on_c, 0, 72, 62
5, 44256, Note_on_c, 0, 72, 0
5, 44256, Note_on_c, 0, 76, 62
5, 44303, Note_on_c, 0, 76, 0
5, 44303, Note_on_c, 0, 81, 62
5, 44352, Note_on_c, 0, 81, 0
5, 44352, Note_on_c, 0, 84, 62
5, 44400, Note_on_c, 0, 84, 0
5, 44400, Control_c, 0, 64, 0
5, 44400, Note_on_c, 0, 88, 62
5, 44640, Note_on_c, 0, 88, 0
5, 49200, Control_c, 0, 64, 127
5, 49200, Note_on_c, 0, 62, 75
5, 49260, Note_on_c, 0, 62, 0
5, 49260, Note_on_c, 0, 66, 75
5, 49320, Note_on_c, 0, 66, 0
5, 49320, Note_on_c, 0, 69, 75
5, 49380, Note_on_c, 0, 69, 0
5, 49380, Note_on_c, 0, 72, 75
5, 49440, Note_on_c, 0, 72, 0
5, 49440, Note_on_c, 0, 74, 75
5, 49479, Note_on_c, 0, 74, 0
5, 49479, Note_on_c, 0, 78, 75
5, 49520, Note_on_c, 0, 78, 0
5, 49520, Note_on_c, 0, 81, 75
5, 49560, Note_on_c, 0, 81, 0
5, 49560, Note_on_c, 0, 86, 75
5, 49599, Note_on_c, 0, 86, 0
5, 49599, Note_on_c, 0, 90, 75
5, 49640, Note_on_c, 0, 90, 0
5, 49640, Note_on_c, 0, 93, 75
5, 49680, Note_on_c, 0, 93, 0
5, 49680, Note_on_c, 0, 98, 75
5, 49719, Note_on_c, 0, 98, 0
5, 49719, Note_on_c, 0, 96, 75
5, 49760, Note_on_c, 0, 96, 0
5, 49760, Note_on_c, 0, 93, 75
5, 49800, Note_on_c, 0, 93, 0
5, 49800, Note_on_c, 0, 90, 75
5, 49839, Note_on_c, 0, 90, 0
5, 49839, Note_on_c, 0, 86, 75
5, 49880, Note_on_c, 0, 86, 0
5, 49880, Note_on_c, 0, 84, 75
5, 49920, Note_on_c, 0, 84, 0
5, 49920, Note_on_c, 0, 81, 75
5, 49959, Note_on_c, 0, 81, 0
5, 49959, Note_on_c, 0, 78, 75
5, 50000, Note_on_c, 0, 78, 0
5, 50000, Note_on_c, 0, 74, 75
5, 50040, Note_on_c, 0, 74, 0
5, 50040, Note_on_c, 0, 72, 75
5, 50079, Note_on_c, 0, 72, 0
5, 50079, Note_on_c, 0, 69, 75
5, 50120, Note_on_c, 0, 69, 0
5, 50120, Note_on_c, 0, 66, 75
5, 50160, Note_on_c, 0, 66, 0
5, 50160, Control_c, 0, 64, 0
5, 50160, Note_on_c, 0, 62, 75
5, 50400, Note_on_c, 0, 62, 0
5, 55440, Control_c, 0, 64, 127
5, 55440, Note_on_c, 0, 55, 62
5, 55500, Note_on_c, 0, 55, 0
5, 55500, Note_on_c, 0, 57, 62
5, 55560, Note_on_c, 0, 57, 0
5, 55560, Note_on_c, 0, 64, 62
5, 55620, Note_on_c, 0, 64, 0
5, 55620, Note_on_c, 0, 67, 62
5, 55680, Note_on_c, 0, 67, 0
5, 55680, Note_on_c, 0, 69, 62
5, 55740, Note_on_c, 0, 69, 0
5, 55740, Note_on_c, 0, 76, 62
5, 55800, Note_on_c, 0, 76, 0
5, 55800, Note_on_c, 0, 79, 62
5, 55860, Note_on_c, 0, 79, 0
5, 55860, Note_on_c, 0, 81, 62
5, 55920, Note_on_c, 0, 81, 0
5, 55920, Control_c, 0, 64, 0
5, 55920, Note_on_c, 0, 88, 62
5, 56160, Note_on_c, 0, 88, 0
5, 57600, Note_on_c, 0, 50, 49
5, 57600, Note_on_c, 0, 59, 49
5, 57600, Note_on_c, 0, 62, 49
5, 57600, Note_on_c, 0, 71, 49
5, 57600, Note_on_c, 0, 74, 49
5, 57840, Note_on_c, 0, 74, 0
5, 57840, Note_on_c, 0, 62, 0
5, 57840, Note_on_c, 0, 50, 0
5, 57840, Note_on_c, 0, 59, 0
5, 57840, Note_on_c, 0, 71, 0
5, 58320, Note_on_c, 0, 50, 62
5, 58320, Note_on_c, 0, 59, 62
5, 58320, Note_on_c, 0, 62, 62
5, 58320, Note_on_c, 0, 71, 62
5, 58320, Note_on_c, 0, 74, 62
5, 58560, Note_on_c, 0, 74, 0
5, 58560, Note_on_c, 0, 62, 0
5, 58560, Note_on_c, 0, 50, 0
5, 58560, Note_on_c, 0, 59, 0
5, 58560, Note_on_c, 0, 71, 0
5, 59040, Note_on_c, 0, 55, 62
5, 59040, Note_on_c, 0, 57, 62
5, 59040, Note_on_c, 0, 67, 62
5, 59040, Note_on_c, 0, 69, 62
5, 59040, Note_on_c, 0, 79, 62
5, 59040, Note_on_c, 0, 81, 62
5, 59280, Note_on_c, 0, 81, 0
5, 59280, Note_on_c, 0, 57, 0
5, 59280, Note_on_c, 0, 67, 0
5, 59280, Note_on_c, 0, 55, 0
5, 59280, Note_on_c, 0, 79, 0
5, 59280, Note_on_c, 0, 69, 0
5, 59760, Note_on_c, 0, 54, 75
5, 59760, Note_on_c, 0, 57, 75
5, 59760, Note_on_c, 0, 66, 75
5, 59760, Note_on_c, 0, 69, 75
5, 59760, Note_on_c, 0, 78, 75
5, 59760, Note_on_c, 0, 81, 75
5, 60000, Note_on_c, 0, 81, 0
5, 60000, Note_on_c, 0, 57, 0
5, 60000, Note_on_c, 0, 66, 0
5, 60000, Note_on_c, 0, 54, 0
5, 60000, Note_on_c, 0, 78, 0
5, 60000, Note_on_c, 0, 69, 0
5, 61920, Control_c, 0, 64, 127
5, 61920, Note_on_c, 0, 50, 49
5, 62040, Note_on_c, 0, 50, 0
5, 62040, Note_on_c, 0, 50, 49
5, 62160, Note_on_c, 0, 50, 0
5, 62160, Note_on_c, 0, 50, 49
5, 62280, Note_on_c, 0, 50, 0
5, 62280, Note_on_c, 0, 50, 49
5, 62400, Note_on_c, 0, 50, 0
5, 62400, Note_on_c, 0, 50, 49
5, 62520, Note_on_c, 0, 50, 0
5, 62520, Note_on_c, 0, 50, 49
5, 62640, Note_on_c, 0, 50, 0
5, 62640, Note_on_c, 0, 50, 49
5, 62760, Note_on_c, 0, 50, 0
5, 62760, Note_on_c, 0, 50, 49
5, 62880, Note_on_c, 0, 50, 0
5, 62880, Note_on_c, 0, 50, 49
5, 63000, Note_on_c, 0, 50, 0
5, 63000, Note_on_c, 0, 50, 49
5, 63120, Note_on_c, 0, 50, 0
5, 63120, Note_on_c, 0, 50, 49
5, 63240, Note_on_c, 0, 50, 0
5, 63240, Note_on_c, 0, 50, 49
5, 63360, Note_on_c, 0, 50, 0
5, 63360, Note_on_c, 0, 50, 49
5, 63480, Note_on_c, 0, 50, 0
5, 63480, Note_on_c, 0, 50, 49
5, 63600, Note_on_c, 0, 50, 0
5, 63600, Note_on_c, 0, 50, 49
5, 63720, Note_on_c, 0, 50, 0
5, 63720, Note_on_c, 0, 50, 49
5, 63840, Note_on_c, 0, 50, 0
5, 63840, Note_on_c, 0, 50, 49
5, 63960, Note_on_c, 0, 50, 0
5, 63960, Note_on_c, 0, 50, 49
5, 64080, Note_on_c, 0, 50, 0
5, 64080, Note_on_c, 0, 50, 49
5, 64200, Note_on_c, 0, 50, 0
5, 64200, Note_on_c, 0, 50, 49
5, 64320, Note_on_c, 0, 50, 0
5, 64320, Note_on_c, 0, 50, 49
5, 64440, Note_on_c, 0, 50, 0
5, 64440, Note_on_c, 0, 50, 49
5, 64560, Note_on_c, 0, 50, 0
5, 64560, Note_on_c, 0, 50, 49
5, 64680, Note_on_c, 0, 50, 0
5, 64680, Note_on_c, 0, 50, 49
5, 64800, Note_on_c, 0, 50, 0
5, 64800, Note_on_c, 0, 50, 49
5, 64920, Note_on_c, 0, 50, 0
5, 64920, Note_on_c, 0, 50, 49
5, 65040, Note_on_c, 0, 50, 0
5, 65040, Note_on_c, 0, 50, 49
5, 65160, Note_on_c, 0, 50, 0
5, 65160, Note_on_c, 0, 50, 49
5, 65280, Note_on_c, 0, 50, 0
5, 65280, Note_on_c, 0, 50, 49
5, 65400, Note_on_c, 0, 50, 0
5, 65400, Note_on_c, 0, 50, 49
5, 65520, Note_on_c, 0, 50, 0
5, 65520, Note_on_c, 0, 50, 49
5, 65640, Note_on_c, 0, 50, 0
5, 65640, Note_on_c, 0, 50, 49
5, 65760, Note_on_c, 0, 50, 0
5, 65760, Note_on_c, 0, 50, 49
5, 65880, Note_on_c, 0, 50, 0
5, 65880, Note_on_c, 0, 50, 49
5, 66000, Note_on_c, 0, 50, 0
5, 66000, Note_on_c, 0, 50, 49
5, 66120, Note_on_c, 0, 50, 0
5, 66120, Control_c, 0, 64, 0
5, 66120, Note_on_c, 0, 50, 49
5, 66240, Note_on_c, 0, 50, 0
5, 66240, Control_c, 0, 64, 127
5, 66240, Note_on_c, 0, 50, 49
5, 66360, Note_on_c, 0, 50, 0
5, 66360, Note_on_c, 0, 50, 49
5, 66480, Note_on_c, 0, 50, 0
5, 66480, Note_on_c, 0, 50, 49
5, 66600, Note_on_c, 0, 50, 0
5, 66600, Note_on_c, 0, 50, 49
5, 66720, Note_on_c, 0, 50, 0
5, 66720, Note_on_c, 0, 50, 49
5, 66840, Note_on_c, 0, 50, 0
5, 66840, Note_on_c, 0, 50, 49
5, 66960, Note_on_c, 0, 50, 0
5, 66960, Note_on_c, 0, 50, 49
5, 67080, Note_on_c, 0, 50, 0
5, 67080, Note_on_c, 0, 50, 49
5, 67200, Note_on_c, 0, 50, 0
5, 67200, Note_on_c, 0, 50, 49
5, 67320, Note_on_c, 0, 50, 0
5, 67320, Note_on_c, 0, 50, 49
5, 67440, Note_on_c, 0, 50, 0
5, 67440, Note_on_c, 0, 50, 49
5, 67560, Note_on_c, 0, 50, 0
5, 67560, Control_c, 0, 64, 0
5, 67560, Note_on_c, 0, 50, 49
5, 67680, Note_on_c, 0, 50, 0
5, 67680, Control_c, 0, 64, 127
5, 67680, Note_on_c, 0, 50, 49
5, 67800, Note_on_c, 0, 50, 0
5, 67800, Note_on_c, 0, 50, 49
5, 67920, Note_on_c, 0, 50, 0
5, 67920, Note_on_c, 0, 50, 49
5, 68040, Note_on_c, 0, 50, 0
5, 68040, Note_on_c, 0, 50, 49
5, 68160, Note_on_c, 0, 50, 0
5, 68160, Note_on_c, 0, 50, 49
5, 68280, Note_on_c, 0, 50, 0
5, 68280, Note_on_c, 0, 50, 49
5, 68400, Note_on_c, 0, 50, 0
5, 68400, Note_on_c, 0, 50, 49
5, 68520, Note_on_c, 0, 50, 0
5, 68520, Note_on_c, 0, 50, 49
5, 68640, Note_on_c, 0, 50, 0
5, 68640, Note_on_c, 0, 50, 49
5, 68760, Note_on_c, 0, 50, 0
5, 68760, Note_on_c, 0, 50, 49
5, 68880, Note_on_c, 0, 50, 0
5, 68880, Note_on_c, 0, 50, 49
5, 69000, Note_on_c, 0, 50, 0
5, 69000, Note_on_c, 0, 50, 49
5, 69120, Note_on_c, 0, 50, 0
5, 69120, Note_on_c, 0, 50, 49
5, 69240, Note_on_c, 0, 50, 0
5, 69240, Note_on_c, 0, 50, 49
5, 69360, Note_on_c, 0, 50, 0
5, 69360, Note_on_c, 0, 50, 49
5, 69480, Note_on_c, 0, 50, 0
5, 69480, Note_on_c, 0, 50, 49
5, 69600, Note_on_c, 0, 50, 0
5, 69600, Note_on_c, 0, 50, 49
5, 69720, Note_on_c, 0, 50, 0
5, 69720, Note_on_c, 0, 50, 49
5, 69840, Note_on_c, 0, 50, 0
5, 69840, Note_on_c, 0, 50, 49
5, 69960, Note_on_c, 0, 50, 0
5, 69960, Note_on_c, 0, 50, 49
5, 70080, Note_on_c, 0, 50, 0
5, 70080, Note_on_c, 0, 50, 49
5, 70200, Note_on_c, 0, 50, 0
5, 70200, Note_on_c, 0, 50, 49
5, 70320, Note_on_c, 0, 50, 0
5, 70320, Note_on_c, 0, 50, 49
5, 70440, Note_on_c, 0, 50, 0
5, 70440, Note_on_c, 0, 50, 49
5, 70560, Note_on_c, 0, 50, 0
5, 70560, Note_on_c, 0, 50, 49
5, 70680, Note_on_c, 0, 50, 0
5, 70680, Note_on_c, 0, 50, 49
5, 70800, Note_on_c, 0, 50, 0
5, 70800, Note_on_c, 0, 50, 49
5, 70920, Note_on_c, 0, 50, 0
5, 70920, Note_on_c, 0, 50, 49
5, 71040, Note_on_c, 0, 50, 0
5, 71040, Note_on_c, 0, 50, 49
5, 71160, Note_on_c, 0, 50, 0
5, 71160, Note_on_c, 0, 50, 49
5, 71280, Note_on_c, 0, 50, 0
5, 71280, Note_on_c, 0, 50, 49
5, 71400, Note_on_c, 0, 50, 0
5, 71400, Note_on_c, 0, 50, 49
5, 71520, Note_on_c, 0, 50, 0
5, 71520, Note_on_c, 0, 50, 49
5, 71640, Note_on_c, 0, 50, 0
5, 71640, Note_on_c, 0, 50, 49
5, 71760, Note_on_c, 0, 50, 0
5, 71760, Note_on_c, 0, 50, 49
5, 71880, Note_on_c, 0, 50, 0
5, 71880, Control_c, 0, 64, 0
5, 71880, Note_on_c, 0, 50, 49
5, 72000, Note_on_c, 0, 50, 0
5, 72000, Note_on_c, 0, 50, 49
5, 72120, Note_on_c, 0, 50, 0
5, 72120, Note_on_c, 0, 50, 49
5, 72240, Note_on_c, 0, 50, 0
5, 72240, Note_on_c, 0, 50, 49
5, 72360, Note_on_c, 0, 50, 0
5, 72360, Note_on_c, 0, 50, 49
5, 72480, Note_on_c, 0, 50, 0
5, 72480, Note_on_c, 0, 50, 49
5, 72600, Note_on_c, 0, 50, 0
5, 72600, Note_on_c, 0, 50, 49
5, 72720, Note_on_c, 0, 50, 0
5, 72720, Note_on_c, 0, 50, 49
5, 72840, Note_on_c, 0, 50, 0
5, 72840, Note_on_c, 0, 50, 49
5, 72960, Note_on_c, 0, 50, 0
5, 72960, Note_on_c, 0, 50, 49
5, 73080, Note_on_c, 0, 50, 0
5, 73080, Note_on_c, 0, 50, 49
5, 73200, Note_on_c, 0, 50, 0
5, 73200, Note_on_c, 0, 50, 49
5, 73320, Note_on_c, 0, 50, 0
5, 73320, Control_c, 0, 64, 0
5, 73320, Note_on_c, 0, 50, 49
5, 73335, Note_on_c, 0, 50, 49
5, 73350, Note_on_c, 0, 55, 49
5, 73365, Note_on_c, 0, 59, 49
5, 73380, Note_on_c, 0, 62, 49
5, 73395, Note_on_c, 0, 67, 49
5, 73410, Note_on_c, 0, 71, 49
5, 73425, Note_on_c, 0, 74, 49
5, 73440, Note_on_c, 0, 50, 0
5, 73440, Note_on_c, 0, 79, 49
5, 73680, Note_on_c, 0, 79, 0
5, 73680, Note_on_c, 0, 62, 0
5, 73680, Note_on_c, 0, 67, 0
5, 73680, Note_on_c, 0, 55, 0
5, 73680, Note_on_c, 0, 59, 0
5, 73680, Note_on_c, 0, 74, 0
5, 73680, Note_on_c, 0, 71, 0
5, 73680, Note_on_c, 0, 50, 0
5, 78480, Control_c, 0, 64, 127
5, 78480, Note_on_c, 0, 52, 62
5, 78540, Note_on_c, 0, 52, 0
5, 78540, Note_on_c, 0, 57, 62
5, 78600, Note_on_c, 0, 57, 0
5, 78600, Note_on_c, 0, 60, 62
5, 78660, Note_on_c, 0, 60, 0
5, 78660, Note_on_c, 0, 64, 62
5, 78720, Note_on_c, 0, 64, 0
5, 78720, Note_on_c, 0, 69, 62
5, 78767, Note_on_c, 0, 69, 0
5, 78767, Note_on_c, 0, 72, 62
5, 78816, Note_on_c, 0, 72, 0
5, 78816, Note_on_c, 0, 76, 62
5, 78863, Note_on_c, 0, 76, 0
5, 78863, Note_on_c, 0, 81, 62
5, 78912, Note_on_c, 0, 81, 0
5, 78912, Note_on_c, 0, 84, 62
5, 78960, Note_on_c, 0, 84, 0
5, 78960, Control_c, 0, 64, 0
5, 78960, Note_on_c, 0, 88, 62
5, 79200, Note_on_c, 0, 88, 0
5, 83760, Control_c, 0, 64, 127
5, 83760, Note_on_c, 0, 62, 75
5, 83820, Note_on_c, 0, 62, 0
5, 83820, Note_on_c, 0, 66, 75
5, 83880, Note_on_c, 0, 66, 0
5, 83880, Note_on_c, 0, 69, 75
5, 83940, Note_on_c, 0, 69, 0
5, 83940, Note_on_c, 0, 72, 75
5, 84000, Note_on_c, 0, 72, 0
5, 84000, Note_on_c, 0, 74, 75
5, 84039, Note_on_c, 0, 74, 0
5, 84039, Note_on_c, 0, 78, 75
5, 84080, Note_on_c, 0, 78, 0
5, 84080, Note_on_c, 0, 81, 75
5, 84120, Note_on_c, 0, 81, 0
5, 84120, Note_on_c, 0, 86, 75
5, 84159, Note_on_c, 0, 86, 0
5, 84159, Note_on_c, 0, 90, 75
5, 84200, Note_on_c, 0, 90, 0
5, 84200, Note_on_c, 0, 93, 75
5, 84240, Note_on_c, 0, 93, 0
5, 84240, Note_on_c, 0, 98, 75
5, 84279, Note_on_c, 0, 98, 0
5, 84279, Note_on_c, 0, 96, 75
5, 84320, Note_on_c, 0, 96, 0
5, 84320, Note_on_c, 0, 93, 75
5, 84360, Note_on_c, 0, 93, 0
5, 84360, Note_on_c, 0, 90, 75
5, 84399, Note_on_c, 0, 90, 0
5, 84399, Note_on_c, 0, 86, 75
5, 84440, Note_on_c, 0, 86, 0
5, 84440, Note_on_c, 0, 84, 75
5, 84480, Note_on_c, 0, 84, 0
5, 84480, Note_on_c, 0, 81, 75
5, 84519, Note_on_c, 0, 81, 0
5, 84519, Note_on_c, 0, 78, 75
5, 84560, Note_on_c, 0, 78, 0
5, 84560, Note_on_c, 0, 74, 75
5, 84600, Note_on_c, 0, 74, 0
5, 84600, Note_on_c, 0, 72, 75
5, 84639, Note_on_c, 0, 72, 0
5, 84639, Note_on_c, 0, 69, 75
5, 84680, Note_on_c, 0, 69, 0
5, 84680, Note_on_c, 0, 66, 75
5, 84720, Note_on_c, 0, 66, 0
5, 84720, Control_c, 0, 64, 0
5, 84720, Note_on_c, 0, 62, 75
5, 84960, Note_on_c, 0, 62, 0
5, 90000, Control_c, 0, 64, 127
5, 90000, Note_on_c, 0, 55, 62
5, 90060, Note_on_c, 0, 55, 0
5, 90060, Note_on_c, 0, 57, 62
5, 90120, Note_on_c, 0, 57, 0
5, 90120, Note_on_c, 0, 64, 62
5, 90180, Note_on_c, 0, 64, 0
5, 90180, Note_on_c, 0, 67, 62
5, 90240, Note_on_c, 0, 67, 0
5, 90240, Note_on_c, 0, 69, 62
5, 90300, Note_on_c, 0, 69, 0
5, 90300, Note_on_c, 0, 76, 62
5, 90360, Note_on_c, 0, 76, 0
5, 90360, Note_on_c, 0, 79, 62
5, 90420, Note_on_c, 0, 79, 0
5, 90420, Note_on_c, 0, 81, 62
5, 90480, Note_on_c, 0, 81, 0
5, 90480, Control_c, 0, 64, 0
5, 90480, Note_on_c, 0, 88, 62
5, 90720, Note_on_c, 0, 88, 0
5, 92160, Note_on_c, 0, 50, 49
5, 92160, Note_on_c, 0, 59, 49
5, 92160, Note_on_c, 0, 62, 49
5, 92160, Note_on_c, 0, 71, 49
5, 92160, Note_on_c, 0, 74, 49
5, 92400, Note_on_c, 0, 74, 0
5, 92400, Note_on_c, 0, 62, 0
5, 92400, Note_on_c, 0, 50, 0
5, 92400, Note_on_c, 0, 59, 0
5, 92400, Note_on_c, 0, 71, 0
5, 92880, Note_on_c, 0, 50, 62
5, 92880, Note_on_c, 0, 59, 62
5, 92880, Note_on_c, 0, 62, 62
5, 92880, Note_on_c, 0, 71, 62
5, 92880, Note_on_c, 0, 74, 62
5, 93120, Note_on_c, 0, 74, 0
5, 93120, Note_on_c, 0, 62, 0
5, 93120, Note_on_c, 0, 50, 0
5, 93120, Note_on_c, 0, 59, 0
5, 93120, Note_on_c, 0, 71, 0
5, 93600, Note_on_c, 0, 55, 62
5, 93600, Note_on_c, 0, 57, 62
5, 93600, Note_on_c, 0, 67, 62
5, 93600, Note_on_c, 0, 69, 62
5, 93600, Note_on_c, 0, 79, 62
5, 93600, Note_on_c, 0, 81, 62
5, 93840, Note_on_c, 0, 81, 0
5, 93840, Note_on_c, 0, 57, 0
5, 93840, Note_on_c, 0, 67, 0
5, 93840, Note_on_c, 0, 55, 0
5, 93840, Note_on_c, 0, 79, 0
5, 93840, Note_on_c, 0, 69, 0
5, 94320, Note_on_c, 0, 54, 75
5, 94320, Note_on_c, 0, 57, 75
5, 94320, Note_on_c, 0, 66, 75
5, 94320, Note_on_c, 0, 69, 75
5, 94320, Note_on_c, 0, 78, 75
5, 94320, Note_on_c, 0, 81, 75
5, 94560, Note_on_c, 0, 81, 0
5, 94560, Note_on_c, 0, 57, 0
5, 94560, Note_on_c, 0, 66, 0
5, 94560, Note_on_c, 0, 54, 0
5, 94560, Note_on_c, 0, 78, 0
5, 94560, Note_on_c, 0, 69, 0
5, 96480, Note_on_c, 0, 43, 62
5, 96720, Note_on_c, 0, 43, 0
5, 97200, Note_on_c, 0, 55, 62
5, 97440, Note_on_c, 0, 55, 0
5, 97920, Note_on_c, 0, 43, 62
5, 98160, Note_on_c, 0, 43, 0
5, 98640, Note_on_c, 0, 55, 62
5, 98880, Note_on_c, 0, 55, 0
5, 99360, Note_on_c, 0, 43, 62
5, 99600, Note_on_c, 0, 43, 0
5, 100080, Note_on_c, 0, 55, 62
5, 100320, Note_on_c, 0, 55, 0
5, 100800, Note_on_c, 0, 43, 62
5, 101040, Note_on_c, 0, 43, 0
5, 101520, Note_on_c, 0, 55, 62
5, 101760, Note_on_c, 0, 55, 0
5, 102240, Note_on_c, 0, 43, 62
5, 105120, Note_on_c, 0, 43, 0
5, 105120, End_track
0, 0, End_of_file
