0, 0, Header, 1, 5, 480
1, 0, Start_track
1, 0, Title_t, "tchaikovsky sleeping beauty act3 25a pas de quatre"
1, 0, Copyright_t, "Adaptation for Disklavier pianos, by: Robert C. Kuhmann (c) 2012."
1, 0, Text_t, "Seq. (c) by: Segundo G. Yogore,  2007\012"
1, 0, Time_signature, 4, 2, 24, 8
1, 0, Key_signature, 0, "major"
1, 0, Tempo, 857143
1, 51840, Time_signature, 8, 2, 24, 8
1, 51840, End_track
2, 0, Start_track
2, 0, Title_t, "Grand Piano"
2, 0, Program_c, 0, 0
2, 0, Control_c, 0, 7, 115
2, 0, Control_c, 0, 10, 86
2, 1440, Note_on_c, 0, 91, 96
2, 1800, Note_on_c, 0, 91, 0
2, 1800, Note_on_c, 0, 88, 70
2, 1920, Note_on_c, 0, 88, 0
2, 1920, Note_on_c, 0, 93, 96
2, 2160, Note_on_c, 0, 93, 0
2, 2160, Control_c, 0, 64, 127
2, 2160, Note_on_c, 0, 91, 70
2, 2199, Note_on_c, 0, 91, 0
2, 2199, Note_on_c, 0, 93, 70
2, 2240, Note_on_c, 0, 93, 0
2, 2240, Note_on_c, 0, 91, 70
2, 2280, Note_on_c, 0, 91, 0
2, 2280, Note_on_c, 0, 88, 70
2, 2319, Note_on_c, 0, 88, 0
2, 2319, Note_on_c, 0, 84, 70
2, 2360, Note_on_c, 0, 84, 0
2, 2360, Note_on_c, 0, 81, 70
2, 2400, Note_on_c, 0, 81, 0
2, 2400, Note_on_c, 0, 79, 70
2, 2880, Control_c, 0, 64, 0
2, 3120, Note_on_c, 0, 79, 0
2, 3360, Note_on_c, 0, 91, 96
2, 3720, Note_on_c, 0, 91, 0
2, 3720, Note_on_c, 0, 88, 70
2, 3840, Note_on_c, 0, 88, 0
2, 3840, Note_on_c, 0, 93, 96
2, 4080, Note_on_c, 0, 93, 0
2, 4080, Control_c, 0, 64, 127
2, 4080, Note_on_c, 0, 91, 70
2, 4119, Note_on_c, 0, 91, 0
2, 4119, Note_on_c, 0, 93, 70
2, 4160, Note_on_c, 0, 93, 0
2, 4160, Note_on_c, 0, 91, 70
2, 4200, Note_on_c, 0, 91, 0
2, 4200, Note_on_c, 0, 88, 70
2, 4239, Note_on_c, 0, 88, 0
2, 4239, Note_on_c, 0, 84, 70
2, 4280, Note_on_c, 0, 84, 0
2, 4280, Note_on_c, 0, 81, 70
2, 4320, Note_on_c, 0, 81, 0
2, 4320, Note_on_c, 0, 79, 70
2, 4800, Control_c, 0, 64, 0
2, 5040, Note_on_c, 0, 79, 0
2, 5280, Note_on_c, 0, 88, 96
2, 5640, Note_on_c, 0, 88, 0
2, 5640, Note_on_c, 0, 91, 70
2, 5760, Note_on_c, 0, 91, 0
2, 5760, Note_on_c, 0, 88, 96
2, 6000, Note_on_c, 0, 88, 0
2, 6000, Control_c, 0, 64, 127
2, 6000, Note_on_c, 0, 86, 70
2, 6034, Note_on_c, 0, 86, 0
2, 6034, Note_on_c, 0, 91, 70
2, 6068, Note_on_c, 0, 91, 0
2, 6068, Note_on_c, 0, 86, 70
2, 6102, Note_on_c, 0, 86, 0
2, 6102, Note_on_c, 0, 83, 70
2, 6137, Note_on_c, 0, 83, 0
2, 6137, Note_on_c, 0, 79, 70
2, 6171, Note_on_c, 0, 79, 0
2, 6171, Note_on_c, 0, 74, 70
2, 6205, Note_on_c, 0, 74, 0
2, 6205, Note_on_c, 0, 71, 70
2, 6240, Note_on_c, 0, 71, 0
2, 6240, Note_on_c, 0, 67, 70
2, 6960, Note_on_c, 0, 67, 0
2, 6960, Control_c, 0, 64, 0
2, 7200, Note_on_c, 0, 86, 96
2, 7560, Note_on_c, 0, 86, 0
2, 7560, Note_on_c, 0, 91, 70
2, 7680, Note_on_c, 0, 91, 0
2, 7680, Note_on_c, 0, 86, 96
2, 7920, Note_on_c, 0, 86, 0
2, 7920, Control_c, 0, 64, 127
2, 7920, Note_on_c, 0, 84, 70
2, 7959, Note_on_c, 0, 84, 0
2, 7959, Note_on_c, 0, 88, 70
2, 8000, Note_on_c, 0, 88, 0
2, 8000, Note_on_c, 0, 84, 70
2, 8040, Note_on_c, 0, 84, 0
2, 8040, Note_on_c, 0, 79, 70
2, 8079, Note_on_c, 0, 79, 0
2, 8079, Note_on_c, 0, 76, 70
2, 8120, Note_on_c, 0, 76, 0
2, 8120, Note_on_c, 0, 72, 70
2, 8160, Note_on_c, 0, 72, 0
2, 8160, Note_on_c, 0, 67, 70
2, 8640, Control_c, 0, 64, 0
2, 8674, Note_on_c, 0, 67, 0
2, 8674, Control_c, 0, 64, 127
2, 8674, Note_on_c, 0, 69, 70
2, 8708, Note_on_c, 0, 69, 0
2, 8708, Note_on_c, 0, 71, 70
2, 8742, Note_on_c, 0, 71, 0
2, 8742, Note_on_c, 0, 72, 70
2, 8777, Note_on_c, 0, 72, 0
2, 8777, Note_on_c, 0, 74, 70
2, 8811, Note_on_c, 0, 74, 0
2, 8811, Note_on_c, 0, 76, 70
2, 8845, Note_on_c, 0, 76, 0
2, 8845, Note_on_c, 0, 77, 70
2, 8880, Note_on_c, 0, 77, 0
2, 8880, Note_on_c, 0, 79, 70
2, 8914, Note_on_c, 0, 79, 0
2, 8914, Note_on_c, 0, 81, 70
2, 8948, Note_on_c, 0, 81, 0
2, 8948, Note_on_c, 0, 83, 70
2, 8982, Note_on_c, 0, 83, 0
2, 8982, Note_on_c, 0, 84, 70
2, 9017, Note_on_c, 0, 84, 0
2, 9017, Note_on_c, 0, 86, 70
2, 9051, Note_on_c, 0, 86, 0
2, 9051, Note_on_c, 0, 88, 70
2, 9085, Note_on_c, 0, 88, 0
2, 9085, Control_c, 0, 64, 0
2, 9085, Note_on_c, 0, 89, 70
2, 9120, Note_on_c, 0, 89, 0
2, 9120, Note_on_c, 0, 91, 96
2, 9480, Note_on_c, 0, 91, 0
2, 9480, Note_on_c, 0, 88, 70
2, 9600, Note_on_c, 0, 88, 0
2, 9600, Note_on_c, 0, 93, 96
2, 9840, Note_on_c, 0, 93, 0
2, 9840, Control_c, 0, 64, 127
2, 9840, Note_on_c, 0, 91, 70
2, 9879, Note_on_c, 0, 91, 0
2, 9879, Note_on_c, 0, 93, 70
2, 9920, Note_on_c, 0, 93, 0
2, 9920, Note_on_c, 0, 91, 70
2, 9960, Note_on_c, 0, 91, 0
2, 9960, Note_on_c, 0, 88, 70
2, 9999, Note_on_c, 0, 88, 0
2, 9999, Note_on_c, 0, 84, 70
2, 10040, Note_on_c, 0, 84, 0
2, 10040, Note_on_c, 0, 81, 70
2, 10080, Note_on_c, 0, 81, 0
2, 10080, Control_c, 0, 64, 0
2, 10080, Note_on_c, 0, 79, 70
2, 10440, Note_on_c, 0, 79, 0
2, 10440, Note_on_c, 0, 76, 70
2, 10560, Note_on_c, 0, 76, 0
2, 10560, Note_on_c, 0, 81, 96
2, 10800, Note_on_c, 0, 81, 0
2, 10800, Control_c, 0, 64, 127
2, 10800, Note_on_c, 0, 79, 70
2, 10839, Note_on_c, 0, 79, 0
2, 10839, Note_on_c, 0, 81, 70
2, 10880, Note_on_c, 0, 81, 0
2, 10880, Note_on_c, 0, 79, 70
2, 10920, Note_on_c, 0, 79, 0
2, 10920, Note_on_c, 0, 76, 70
2, 10959, Note_on_c, 0, 76, 0
2, 10959, Note_on_c, 0, 72, 70
2, 11000, Note_on_c, 0, 72, 0
2, 11000, Note_on_c, 0, 69, 70
2, 11040, Note_on_c, 0, 69, 0
2, 11040, Control_c, 0, 64, 0
2, 11040, Note_on_c, 0, 67, 96
2, 11040, Note_on_c, 0, 91, 96
2, 11400, Note_on_c, 0, 91, 0
2, 11400, Note_on_c, 0, 67, 0
2, 11400, Note_on_c, 0, 88, 70
2, 11520, Note_on_c, 0, 88, 0
2, 11520, Note_on_c, 0, 93, 96
2, 11760, Note_on_c, 0, 93, 0
2, 11760, Control_c, 0, 64, 127
2, 11760, Note_on_c, 0, 91, 70
2, 11799, Note_on_c, 0, 91, 0
2, 11799, Note_on_c, 0, 93, 70
2, 11840, Note_on_c, 0, 93, 0
2, 11840, Note_on_c, 0, 91, 70
2, 11880, Note_on_c, 0, 91, 0
2, 11880, Note_on_c, 0, 88, 70
2, 11919, Note_on_c, 0, 88, 0
2, 11919, Note_on_c, 0, 84, 70
2, 11960, Note_on_c, 0, 84, 0
2, 11960, Note_on_c, 0, 81, 70
2, 12000, Note_on_c, 0, 81, 0
2, 12000, Control_c, 0, 64, 0
2, 12000, Note_on_c, 0, 79, 70
2, 12360, Note_on_c, 0, 79, 0
2, 12360, Note_on_c, 0, 76, 70
2, 12480, Note_on_c, 0, 76, 0
2, 12480, Note_on_c, 0, 81, 96
2, 12720, Note_on_c, 0, 81, 0
2, 12720, Control_c, 0, 64, 127
2, 12720, Note_on_c, 0, 79, 70
2, 12759, Note_on_c, 0, 79, 0
2, 12759, Note_on_c, 0, 81, 70
2, 12800, Note_on_c, 0, 81, 0
2, 12800, Note_on_c, 0, 79, 70
2, 12840, Note_on_c, 0, 79, 0
2, 12840, Note_on_c, 0, 76, 70
2, 12879, Note_on_c, 0, 76, 0
2, 12879, Note_on_c, 0, 72, 70
2, 12920, Note_on_c, 0, 72, 0
2, 12920, Note_on_c, 0, 69, 70
2, 12960, Note_on_c, 0, 69, 0
2, 12960, Control_c, 0, 64, 0
2, 12960, Note_on_c, 0, 67, 96
2, 12960, Note_on_c, 0, 88, 96
2, 13320, Note_on_c, 0, 88, 0
2, 13320, Note_on_c, 0, 67, 0
2, 13320, Note_on_c, 0, 91, 83
2, 13440, Note_on_c, 0, 91, 0
2, 13440, Control_c, 0, 64, 127
2, 13440, Note_on_c, 0, 88, 83
2, 13714, Note_on_c, 0, 88, 0
2, 13714, Note_on_c, 0, 86, 83
2, 13748, Note_on_c, 0, 86, 0
2, 13748, Note_on_c, 0, 81, 83
2, 13782, Note_on_c, 0, 81, 0
2, 13782, Note_on_c, 0, 78, 83
2, 13817, Note_on_c, 0, 78, 0
2, 13817, Note_on_c, 0, 74, 83
2, 13851, Note_on_c, 0, 74, 0
2, 13851, Note_on_c, 0, 69, 83
2, 13885, Note_on_c, 0, 69, 0
2, 13885, Note_on_c, 0, 66, 83
2, 13920, Note_on_c, 0, 66, 0
2, 13920, Control_c, 0, 64, 0
2, 13920, Note_on_c, 0, 62, 83
2, 13920, Note_on_c, 0, 74, 83
2, 14280, Note_on_c, 0, 74, 0
2, 14280, Note_on_c, 0, 62, 0
2, 14280, Note_on_c, 0, 81, 83
2, 14400, Note_on_c, 0, 81, 0
2, 14400, Control_c, 0, 64, 127
2, 14400, Note_on_c, 0, 76, 83
2, 14674, Note_on_c, 0, 76, 0
2, 14674, Note_on_c, 0, 74, 83
2, 14708, Note_on_c, 0, 74, 0
2, 14708, Note_on_c, 0, 69, 83
2, 14742, Note_on_c, 0, 69, 0
2, 14742, Note_on_c, 0, 66, 83
2, 14777, Note_on_c, 0, 66, 0
2, 14777, Note_on_c, 0, 62, 83
2, 14811, Note_on_c, 0, 62, 0
2, 14811, Note_on_c, 0, 57, 83
2, 14845, Note_on_c, 0, 57, 0
2, 14845, Note_on_c, 0, 54, 83
2, 14880, Note_on_c, 0, 54, 0
2, 14880, Control_c, 0, 64, 0
2, 14880, Note_on_c, 0, 86, 109
2, 15240, Note_on_c, 0, 86, 0
2, 15240, Note_on_c, 0, 93, 83
2, 15360, Note_on_c, 0, 93, 0
2, 15360, Note_on_c, 0, 84, 109
2, 15600, Note_on_c, 0, 84, 0
2, 15600, Control_c, 0, 64, 127
2, 15600, Note_on_c, 0, 83, 83
2, 15634, Note_on_c, 0, 83, 0
2, 15634, Note_on_c, 0, 84, 83
2, 15668, Note_on_c, 0, 84, 0
2, 15668, Note_on_c, 0, 86, 83
2, 15702, Note_on_c, 0, 86, 0
2, 15702, Note_on_c, 0, 83, 83
2, 15737, Note_on_c, 0, 83, 0
2, 15737, Note_on_c, 0, 79, 83
2, 15771, Note_on_c, 0, 79, 0
2, 15771, Note_on_c, 0, 74, 83
2, 15805, Note_on_c, 0, 74, 0
2, 15805, Note_on_c, 0, 71, 83
2, 15840, Note_on_c, 0, 71, 0
2, 15840, Control_c, 0, 64, 0
2, 15840, Note_on_c, 0, 72, 83
2, 16200, Note_on_c, 0, 72, 0
2, 16200, Note_on_c, 0, 79, 83
2, 16320, Note_on_c, 0, 79, 0
2, 16320, Control_c, 0, 64, 127
2, 16320, Note_on_c, 0, 72, 83
2, 16560, Note_on_c, 0, 72, 0
2, 16560, Note_on_c, 0, 71, 83
2, 16594, Note_on_c, 0, 71, 0
2, 16594, Note_on_c, 0, 72, 83
2, 16628, Note_on_c, 0, 72, 0
2, 16628, Note_on_c, 0, 74, 83
2, 16662, Note_on_c, 0, 74, 0
2, 16662, Note_on_c, 0, 71, 83
2, 16697, Note_on_c, 0, 71, 0
2, 16697, Note_on_c, 0, 67, 83
2, 16731, Note_on_c, 0, 67, 0
2, 16731, Note_on_c, 0, 62, 83
2, 16765, Note_on_c, 0, 62, 0
2, 16765, Control_c, 0, 64, 0
2, 16765, Note_on_c, 0, 59, 83
2, 16800, Note_on_c, 0, 59, 0
2, 16800, Control_c, 0, 64, 127
2, 16800, Note_on_c, 0, 71, 83
2, 16800, Note_on_c, 0, 83, 83
2, 17160, Note_on_c, 0, 83, 0
2, 17160, Note_on_c, 0, 71, 0
2, 17160, Note_on_c, 0, 70, 57
2, 17160, Note_on_c, 0, 82, 57
2, 17280, Note_on_c, 0, 82, 0
2, 17280, Note_on_c, 0, 70, 0
2, 17280, Note_on_c, 0, 71, 57
2, 17280, Note_on_c, 0, 83, 57
2, 17520, Note_on_c, 0, 83, 0
2, 17520, Note_on_c, 0, 71, 0
2, 17520, Note_on_c, 0, 70, 57
2, 17520, Note_on_c, 0, 82, 57
2, 17760, Note_on_c, 0, 82, 0
2, 17760, Note_on_c, 0, 70, 0
2, 17760, Control_c, 0, 64, 0
2, 17760, Note_on_c, 0, 71, 57
2, 17760, Note_on_c, 0, 74, 57
2, 17760, Note_on_c, 0, 78, 57
2, 17760, Note_on_c, 0, 83, 57
2, 18000, Note_on_c, 0, 83, 0
2, 18000, Note_on_c, 0, 71, 0
2, 18000, Note_on_c, 0, 74, 0
2, 18000, Note_on_c, 0, 78, 0
2, 18000, Control_c, 0, 64, 127
2, 18000, Note_on_c, 0, 68, 70
2, 18000, Note_on_c, 0, 80, 70
2, 18240, Note_on_c, 0, 80, 0
2, 18240, Note_on_c, 0, 68, 0
2, 18240, Note_on_c, 0, 71, 70
2, 18240, Note_on_c, 0, 83, 70
2, 18480, Note_on_c, 0, 83, 0
2, 18480, Note_on_c, 0, 71, 0
2, 18480, Note_on_c, 0, 70, 70
2, 18480, Note_on_c, 0, 82, 70
2, 18720, Note_on_c, 0, 82, 0
2, 18720, Note_on_c, 0, 70, 0
2, 18720, Control_c, 0, 64, 0
2, 18720, Note_on_c, 0, 73, 70
2, 18720, Note_on_c, 0, 85, 70
2, 18960, Note_on_c, 0, 85, 0
2, 18960, Note_on_c, 0, 73, 0
2, 18960, Note_on_c, 0, 70, 70
2, 18960, Note_on_c, 0, 82, 70
2, 19200, Note_on_c, 0, 82, 0
2, 19200, Note_on_c, 0, 70, 0
2, 19200, Note_on_c, 0, 73, 70
2, 19200, Note_on_c, 0, 85, 70
2, 19320, Note_on_c, 0, 85, 0
2, 19320, Note_on_c, 0, 73, 0
2, 19320, Note_on_c, 0, 71, 70
2, 19320, Note_on_c, 0, 83, 70
2, 19440, Note_on_c, 0, 83, 0
2, 19440, Note_on_c, 0, 71, 0
2, 19440, Control_c, 0, 64, 127
2, 19440, Note_on_c, 0, 73, 70
2, 19440, Note_on_c, 0, 85, 70
2, 19560, Note_on_c, 0, 85, 0
2, 19560, Note_on_c, 0, 73, 0
2, 19560, Note_on_c, 0, 74, 70
2, 19560, Note_on_c, 0, 86, 70
2, 19680, Note_on_c, 0, 86, 0
2, 19680, Note_on_c, 0, 74, 0
2, 19680, Note_on_c, 0, 76, 70
2, 19680, Note_on_c, 0, 88, 70
2, 19800, Note_on_c, 0, 88, 0
2, 19800, Note_on_c, 0, 76, 0
2, 19800, Control_c, 0, 64, 0
2, 19800, Note_on_c, 0, 78, 70
2, 19800, Note_on_c, 0, 90, 70
2, 19920, Note_on_c, 0, 90, 0
2, 19920, Note_on_c, 0, 78, 0
2, 19920, Note_on_c, 0, 79, 83
2, 19920, Note_on_c, 0, 91, 83
2, 20100, Note_on_c, 0, 91, 0
2, 20100, Note_on_c, 0, 79, 0
2, 20100, Note_on_c, 0, 78, 83
2, 20100, Note_on_c, 0, 90, 83
2, 20160, Note_on_c, 0, 90, 0
2, 20160, Note_on_c, 0, 78, 0
2, 20160, Note_on_c, 0, 78, 83
2, 20160, Note_on_c, 0, 90, 83
2, 20520, Note_on_c, 0, 90, 0
2, 20520, Note_on_c, 0, 78, 0
2, 20520, Note_on_c, 0, 73, 70
2, 20520, Note_on_c, 0, 85, 70
2, 20640, Note_on_c, 0, 85, 0
2, 20640, Note_on_c, 0, 73, 0
2, 20640, Note_on_c, 0, 71, 83
2, 20640, Note_on_c, 0, 74, 83
2, 20640, Note_on_c, 0, 77, 83
2, 20640, Note_on_c, 0, 83, 83
2, 21000, Note_on_c, 0, 83, 0
2, 21000, Note_on_c, 0, 71, 0
2, 21000, Note_on_c, 0, 74, 0
2, 21000, Note_on_c, 0, 77, 0
2, 21000, Control_c, 0, 64, 127
2, 21000, Note_on_c, 0, 70, 57
2, 21000, Note_on_c, 0, 82, 57
2, 21120, Note_on_c, 0, 82, 0
2, 21120, Note_on_c, 0, 70, 0
2, 21120, Note_on_c, 0, 71, 57
2, 21120, Note_on_c, 0, 83, 57
2, 21360, Note_on_c, 0, 83, 0
2, 21360, Note_on_c, 0, 71, 0
2, 21360, Note_on_c, 0, 70, 57
2, 21360, Note_on_c, 0, 82, 57
2, 21600, Note_on_c, 0, 82, 0
2, 21600, Note_on_c, 0, 70, 0
2, 21600, Control_c, 0, 64, 0
2, 21600, Note_on_c, 0, 71, 57
2, 21600, Note_on_c, 0, 74, 57
2, 21600, Note_on_c, 0, 78, 57
2, 21600, Note_on_c, 0, 83, 57
2, 21840, Note_on_c, 0, 83, 0
2, 21840, Note_on_c, 0, 71, 0
2, 21840, Note_on_c, 0, 74, 0
2, 21840, Note_on_c, 0, 78, 0
2, 21840, Control_c, 0, 64, 127
2, 21840, Note_on_c, 0, 68, 70
2, 21840, Note_on_c, 0, 80, 70
2, 22080, Note_on_c, 0, 80, 0
2, 22080, Note_on_c, 0, 68, 0
2, 22080, Note_on_c, 0, 71, 70
2, 22080, Note_on_c, 0, 83, 70
2, 22320, Note_on_c, 0, 83, 0
2, 22320, Note_on_c, 0, 71, 0
2, 22320, Note_on_c, 0, 70, 70
2, 22320, Note_on_c, 0, 82, 70
2, 22560, Note_on_c, 0, 82, 0
2, 22560, Note_on_c, 0, 70, 0
2, 22560, Control_c, 0, 64, 0
2, 22560, Note_on_c, 0, 73, 70
2, 22560, Note_on_c, 0, 85, 70
2, 22800, Note_on_c, 0, 85, 0
2, 22800, Note_on_c, 0, 73, 0
2, 22800, Note_on_c, 0, 70, 70
2, 22800, Note_on_c, 0, 82, 70
2, 23040, Note_on_c, 0, 82, 0
2, 23040, Note_on_c, 0, 70, 0
2, 23040, Note_on_c, 0, 73, 70
2, 23040, Note_on_c, 0, 85, 70
2, 23160, Note_on_c, 0, 85, 0
2, 23160, Note_on_c, 0, 73, 0
2, 23160, Note_on_c, 0, 71, 70
2, 23160, Note_on_c, 0, 83, 70
2, 23280, Note_on_c, 0, 83, 0
2, 23280, Note_on_c, 0, 71, 0
2, 23280, Control_c, 0, 64, 127
2, 23280, Note_on_c, 0, 73, 70
2, 23280, Note_on_c, 0, 85, 70
2, 23400, Note_on_c, 0, 85, 0
2, 23400, Note_on_c, 0, 73, 0
2, 23400, Note_on_c, 0, 74, 70
2, 23400, Note_on_c, 0, 86, 70
2, 23520, Note_on_c, 0, 86, 0
2, 23520, Note_on_c, 0, 74, 0
2, 23520, Note_on_c, 0, 76, 70
2, 23520, Note_on_c, 0, 88, 70
2, 23640, Note_on_c, 0, 88, 0
2, 23640, Note_on_c, 0, 76, 0
2, 23640, Control_c, 0, 64, 0
2, 23640, Note_on_c, 0, 78, 70
2, 23640, Note_on_c, 0, 90, 70
2, 23760, Note_on_c, 0, 90, 0
2, 23760, Note_on_c, 0, 78, 0
2, 23760, Note_on_c, 0, 79, 83
2, 23760, Note_on_c, 0, 91, 83
2, 23940, Note_on_c, 0, 91, 0
2, 23940, Note_on_c, 0, 79, 0
2, 23940, Note_on_c, 0, 78, 83
2, 23940, Note_on_c, 0, 90, 83
2, 24000, Note_on_c, 0, 90, 0
2, 24000, Note_on_c, 0, 78, 0
2, 24000, Note_on_c, 0, 78, 83
2, 24000, Note_on_c, 0, 90, 83
2, 24360, Note_on_c, 0, 90, 0
2, 24360, Note_on_c, 0, 78, 0
2, 24360, Note_on_c, 0, 73, 70
2, 24360, Note_on_c, 0, 85, 70
2, 24480, Note_on_c, 0, 85, 0
2, 24480, Note_on_c, 0, 73, 0
2, 24480, Note_on_c, 0, 74, 83
2, 24480, Note_on_c, 0, 77, 83
2, 24480, Note_on_c, 0, 80, 83
2, 24480, Note_on_c, 0, 86, 83
2, 24840, Note_on_c, 0, 86, 0
2, 24840, Note_on_c, 0, 74, 0
2, 24840, Note_on_c, 0, 77, 0
2, 24840, Note_on_c, 0, 80, 0
2, 24840, Control_c, 0, 64, 127
2, 24840, Note_on_c, 0, 73, 57
2, 24840, Note_on_c, 0, 85, 57
2, 24960, Note_on_c, 0, 85, 0
2, 24960, Note_on_c, 0, 73, 0
2, 24960, Note_on_c, 0, 74, 57
2, 24960, Note_on_c, 0, 86, 57
2, 25200, Note_on_c, 0, 86, 0
2, 25200, Note_on_c, 0, 74, 0
2, 25200, Note_on_c, 0, 73, 57
2, 25200, Note_on_c, 0, 85, 57
2, 25440, Note_on_c, 0, 85, 0
2, 25440, Note_on_c, 0, 73, 0
2, 25440, Control_c, 0, 64, 0
2, 25440, Note_on_c, 0, 74, 57
2, 25440, Note_on_c, 0, 78, 57
2, 25440, Note_on_c, 0, 81, 57
2, 25440, Note_on_c, 0, 86, 57
2, 25680, Note_on_c, 0, 86, 0
2, 25680, Note_on_c, 0, 74, 0
2, 25680, Note_on_c, 0, 78, 0
2, 25680, Note_on_c, 0, 81, 0
2, 25680, Control_c, 0, 64, 127
2, 25680, Note_on_c, 0, 71, 57
2, 25680, Note_on_c, 0, 83, 57
2, 25920, Note_on_c, 0, 83, 0
2, 25920, Note_on_c, 0, 71, 0
2, 25920, Note_on_c, 0, 74, 70
2, 25920, Note_on_c, 0, 86, 70
2, 26160, Note_on_c, 0, 86, 0
2, 26160, Note_on_c, 0, 74, 0
2, 26160, Note_on_c, 0, 73, 70
2, 26160, Note_on_c, 0, 85, 70
2, 26400, Note_on_c, 0, 85, 0
2, 26400, Note_on_c, 0, 73, 0
2, 26400, Control_c, 0, 64, 0
2, 26400, Note_on_c, 0, 76, 70
2, 26400, Note_on_c, 0, 88, 70
2, 26640, Note_on_c, 0, 88, 0
2, 26640, Note_on_c, 0, 76, 0
2, 26640, Note_on_c, 0, 73, 70
2, 26640, Note_on_c, 0, 85, 70
2, 26880, Note_on_c, 0, 85, 0
2, 26880, Note_on_c, 0, 73, 0
2, 26880, Note_on_c, 0, 76, 70
2, 26880, Note_on_c, 0, 88, 70
2, 27000, Note_on_c, 0, 88, 0
2, 27000, Note_on_c, 0, 76, 0
2, 27000, Note_on_c, 0, 74, 70
2, 27000, Note_on_c, 0, 86, 70
2, 27120, Note_on_c, 0, 86, 0
2, 27120, Note_on_c, 0, 74, 0
2, 27120, Control_c, 0, 64, 127
2, 27120, Note_on_c, 0, 76, 70
2, 27120, Note_on_c, 0, 88, 70
2, 27240, Note_on_c, 0, 88, 0
2, 27240, Note_on_c, 0, 76, 0
2, 27240, Note_on_c, 0, 78, 70
2, 27240, Note_on_c, 0, 90, 70
2, 27360, Note_on_c, 0, 90, 0
2, 27360, Note_on_c, 0, 78, 0
2, 27360, Note_on_c, 0, 79, 70
2, 27360, Note_on_c, 0, 91, 70
2, 27480, Note_on_c, 0, 91, 0
2, 27480, Note_on_c, 0, 79, 0
2, 27480, Control_c, 0, 64, 0
2, 27480, Note_on_c, 0, 81, 70
2, 27480, Note_on_c, 0, 93, 70
2, 27600, Note_on_c, 0, 93, 0
2, 27600, Note_on_c, 0, 81, 0
2, 27600, Note_on_c, 0, 83, 83
2, 27600, Note_on_c, 0, 95, 83
2, 27780, Note_on_c, 0, 95, 0
2, 27780, Note_on_c, 0, 83, 0
2, 27780, Note_on_c, 0, 81, 83
2, 27780, Note_on_c, 0, 93, 83
2, 27840, Note_on_c, 0, 93, 0
2, 27840, Note_on_c, 0, 81, 0
2, 27840, Note_on_c, 0, 81, 83
2, 27840, Note_on_c, 0, 93, 83
2, 28200, Note_on_c, 0, 93, 0
2, 28200, Note_on_c, 0, 81, 0
2, 28200, Note_on_c, 0, 76, 70
2, 28200, Note_on_c, 0, 88, 70
2, 28320, Note_on_c, 0, 88, 0
2, 28320, Note_on_c, 0, 76, 0
2, 28320, Note_on_c, 0, 74, 83
2, 28320, Note_on_c, 0, 77, 83
2, 28320, Note_on_c, 0, 80, 83
2, 28320, Note_on_c, 0, 86, 83
2, 28680, Note_on_c, 0, 86, 0
2, 28680, Note_on_c, 0, 74, 0
2, 28680, Note_on_c, 0, 77, 0
2, 28680, Note_on_c, 0, 80, 0
2, 28680, Control_c, 0, 64, 127
2, 28680, Note_on_c, 0, 73, 57
2, 28680, Note_on_c, 0, 85, 57
2, 28800, Note_on_c, 0, 85, 0
2, 28800, Note_on_c, 0, 73, 0
2, 28800, Note_on_c, 0, 74, 57
2, 28800, Note_on_c, 0, 86, 57
2, 29040, Note_on_c, 0, 86, 0
2, 29040, Note_on_c, 0, 74, 0
2, 29040, Note_on_c, 0, 73, 57
2, 29040, Note_on_c, 0, 85, 57
2, 29280, Note_on_c, 0, 85, 0
2, 29280, Note_on_c, 0, 73, 0
2, 29280, Control_c, 0, 64, 0
2, 29280, Note_on_c, 0, 74, 57
2, 29280, Note_on_c, 0, 78, 57
2, 29280, Note_on_c, 0, 81, 57
2, 29280, Note_on_c, 0, 86, 57
2, 29520, Note_on_c, 0, 86, 0
2, 29520, Note_on_c, 0, 74, 0
2, 29520, Note_on_c, 0, 78, 0
2, 29520, Note_on_c, 0, 81, 0
2, 29520, Control_c, 0, 64, 127
2, 29520, Note_on_c, 0, 71, 57
2, 29520, Note_on_c, 0, 83, 57
2, 29760, Note_on_c, 0, 83, 0
2, 29760, Note_on_c, 0, 71, 0
2, 29760, Note_on_c, 0, 74, 70
2, 29760, Note_on_c, 0, 86, 70
2, 30000, Note_on_c, 0, 86, 0
2, 30000, Note_on_c, 0, 74, 0
2, 30000, Note_on_c, 0, 73, 70
2, 30000, Note_on_c, 0, 85, 70
2, 30240, Note_on_c, 0, 85, 0
2, 30240, Note_on_c, 0, 73, 0
2, 30240, Control_c, 0, 64, 0
2, 30240, Note_on_c, 0, 76, 70
2, 30240, Note_on_c, 0, 88, 70
2, 30480, Note_on_c, 0, 88, 0
2, 30480, Note_on_c, 0, 76, 0
2, 30480, Note_on_c, 0, 73, 70
2, 30480, Note_on_c, 0, 85, 70
2, 30720, Note_on_c, 0, 85, 0
2, 30720, Note_on_c, 0, 73, 0
2, 30720, Note_on_c, 0, 76, 70
2, 30720, Note_on_c, 0, 88, 70
2, 30960, Note_on_c, 0, 88, 0
2, 30960, Note_on_c, 0, 76, 0
2, 30960, Note_on_c, 0, 74, 70
2, 30960, Note_on_c, 0, 86, 70
2, 31200, Note_on_c, 0, 86, 0
2, 31200, Note_on_c, 0, 74, 0
2, 31200, Note_on_c, 0, 77, 70
2, 31200, Note_on_c, 0, 89, 70
2, 31440, Note_on_c, 0, 89, 0
2, 31440, Note_on_c, 0, 77, 0
2, 31440, Control_c, 0, 64, 127
2, 31440, Note_on_c, 0, 74, 70
2, 31440, Note_on_c, 0, 86, 70
2, 31680, Note_on_c, 0, 86, 0
2, 31680, Note_on_c, 0, 74, 0
2, 31680, Note_on_c, 0, 76, 70
2, 31680, Note_on_c, 0, 88, 70
2, 31920, Note_on_c, 0, 88, 0
2, 31920, Note_on_c, 0, 76, 0
2, 31920, Note_on_c, 0, 74, 70
2, 31920, Note_on_c, 0, 86, 70
2, 32160, Note_on_c, 0, 86, 0
2, 32160, Note_on_c, 0, 74, 0
2, 32160, Control_c, 0, 64, 0
2, 32160, Note_on_c, 0, 77, 70
2, 32160, Note_on_c, 0, 89, 70
2, 32400, Note_on_c, 0, 89, 0
2, 32400, Note_on_c, 0, 77, 0
2, 32400, Note_on_c, 0, 74, 70
2, 32400, Note_on_c, 0, 86, 70
2, 32640, Note_on_c, 0, 86, 0
2, 32640, Note_on_c, 0, 74, 0
2, 32640, Note_on_c, 0, 77, 70
2, 32640, Note_on_c, 0, 89, 70
2, 32880, Note_on_c, 0, 89, 0
2, 32880, Note_on_c, 0, 77, 0
2, 32880, Note_on_c, 0, 74, 70
2, 32880, Note_on_c, 0, 86, 70
2, 33120, Note_on_c, 0, 86, 0
2, 33120, Note_on_c, 0, 74, 0
2, 33120, Note_on_c, 0, 77, 96
2, 33120, Note_on_c, 0, 89, 96
2, 33360, Note_on_c, 0, 89, 0
2, 33360, Note_on_c, 0, 77, 0
2, 33360, Note_on_c, 0, 74, 70
2, 33360, Note_on_c, 0, 86, 70
2, 33600, Note_on_c, 0, 86, 0
2, 33600, Note_on_c, 0, 74, 0
2, 33600, Note_on_c, 0, 77, 122
2, 33600, Note_on_c, 0, 89, 122
2, 33840, Note_on_c, 0, 89, 0
2, 33840, Note_on_c, 0, 77, 0
2, 33840, Note_on_c, 0, 74, 96
2, 33840, Note_on_c, 0, 86, 96
2, 34080, Note_on_c, 0, 86, 0
2, 34080, Note_on_c, 0, 74, 0
2, 34080, Control_c, 0, 64, 127
2, 34080, Note_on_c, 0, 79, 83
2, 34140, Note_on_c, 0, 79, 0
2, 34140, Note_on_c, 0, 81, 83
2, 34200, Note_on_c, 0, 81, 0
2, 34200, Note_on_c, 0, 79, 83
2, 34260, Note_on_c, 0, 79, 0
2, 34260, Note_on_c, 0, 78, 83
2, 34320, Note_on_c, 0, 78, 0
2, 34320, Control_c, 0, 64, 0
2, 34320, Note_on_c, 0, 79, 83
2, 34500, Note_on_c, 0, 79, 0
2, 34500, Note_on_c, 0, 76, 83
2, 34560, Note_on_c, 0, 76, 0
2, 34560, Note_on_c, 0, 81, 83
2, 34800, Note_on_c, 0, 81, 0
2, 34800, Control_c, 0, 64, 127
2, 34800, Note_on_c, 0, 79, 83
2, 34839, Note_on_c, 0, 79, 0
2, 34839, Note_on_c, 0, 81, 83
2, 34880, Note_on_c, 0, 81, 0
2, 34880, Note_on_c, 0, 79, 83
2, 34920, Note_on_c, 0, 79, 0
2, 34920, Note_on_c, 0, 76, 83
2, 34959, Note_on_c, 0, 76, 0
2, 34959, Note_on_c, 0, 72, 83
2, 35000, Note_on_c, 0, 72, 0
2, 35000, Control_c, 0, 64, 0
2, 35000, Note_on_c, 0, 69, 83
2, 35040, Note_on_c, 0, 69, 0
2, 35040, Control_c, 0, 64, 127
2, 35040, Note_on_c, 0, 91, 83
2, 35100, Note_on_c, 0, 91, 0
2, 35100, Note_on_c, 0, 93, 83
2, 35160, Note_on_c, 0, 93, 0
2, 35160, Note_on_c, 0, 91, 83
2, 35220, Note_on_c, 0, 91, 0
2, 35220, Note_on_c, 0, 90, 83
2, 35280, Note_on_c, 0, 90, 0
2, 35280, Control_c, 0, 64, 0
2, 35280, Note_on_c, 0, 91, 83
2, 35460, Note_on_c, 0, 91, 0
2, 35460, Note_on_c, 0, 88, 83
2, 35520, Note_on_c, 0, 88, 0
2, 35520, Note_on_c, 0, 93, 83
2, 35760, Note_on_c, 0, 93, 0
2, 35760, Control_c, 0, 64, 127
2, 35760, Note_on_c, 0, 91, 83
2, 35799, Note_on_c, 0, 91, 0
2, 35799, Note_on_c, 0, 93, 83
2, 35840, Note_on_c, 0, 93, 0
2, 35840, Note_on_c, 0, 91, 83
2, 35880, Note_on_c, 0, 91, 0
2, 35880, Note_on_c, 0, 88, 83
2, 35919, Note_on_c, 0, 88, 0
2, 35919, Note_on_c, 0, 84, 83
2, 35960, Note_on_c, 0, 84, 0
2, 35960, Control_c, 0, 64, 0
2, 35960, Note_on_c, 0, 81, 83
2, 36000, Note_on_c, 0, 81, 0
2, 36000, Control_c, 0, 64, 127
2, 36000, Note_on_c, 0, 79, 83
2, 36060, Note_on_c, 0, 79, 0
2, 36060, Note_on_c, 0, 81, 83
2, 36120, Note_on_c, 0, 81, 0
2, 36120, Note_on_c, 0, 79, 83
2, 36180, Note_on_c, 0, 79, 0
2, 36180, Note_on_c, 0, 78, 83
2, 36240, Note_on_c, 0, 78, 0
2, 36240, Control_c, 0, 64, 0
2, 36240, Note_on_c, 0, 79, 83
2, 36420, Note_on_c, 0, 79, 0
2, 36420, Note_on_c, 0, 76, 83
2, 36480, Note_on_c, 0, 76, 0
2, 36480, Note_on_c, 0, 81, 83
2, 36720, Note_on_c, 0, 81, 0
2, 36720, Control_c, 0, 64, 127
2, 36720, Note_on_c, 0, 79, 83
2, 36759, Note_on_c, 0, 79, 0
2, 36759, Note_on_c, 0, 81, 83
2, 36800, Note_on_c, 0, 81, 0
2, 36800, Note_on_c, 0, 79, 83
2, 36840, Note_on_c, 0, 79, 0
2, 36840, Note_on_c, 0, 76, 83
2, 36879, Note_on_c, 0, 76, 0
2, 36879, Note_on_c, 0, 72, 83
2, 36920, Note_on_c, 0, 72, 0
2, 36920, Control_c, 0, 64, 0
2, 36920, Note_on_c, 0, 69, 83
2, 36960, Note_on_c, 0, 69, 0
2, 36960, Control_c, 0, 64, 127
2, 36960, Note_on_c, 0, 91, 83
2, 37020, Note_on_c, 0, 91, 0
2, 37020, Note_on_c, 0, 93, 83
2, 37080, Note_on_c, 0, 93, 0
2, 37080, Note_on_c, 0, 91, 83
2, 37140, Note_on_c, 0, 91, 0
2, 37140, Note_on_c, 0, 90, 83
2, 37200, Note_on_c, 0, 90, 0
2, 37200, Control_c, 0, 64, 0
2, 37200, Note_on_c, 0, 91, 83
2, 37380, Note_on_c, 0, 91, 0
2, 37380, Note_on_c, 0, 88, 83
2, 37440, Note_on_c, 0, 88, 0
2, 37440, Note_on_c, 0, 93, 83
2, 37680, Note_on_c, 0, 93, 0
2, 37680, Control_c, 0, 64, 127
2, 37680, Note_on_c, 0, 91, 83
2, 37719, Note_on_c, 0, 91, 0
2, 37719, Note_on_c, 0, 93, 83
2, 37760, Note_on_c, 0, 93, 0
2, 37760, Note_on_c, 0, 91, 83
2, 37800, Note_on_c, 0, 91, 0
2, 37800, Note_on_c, 0, 88, 83
2, 37839, Note_on_c, 0, 88, 0
2, 37839, Note_on_c, 0, 84, 83
2, 37880, Note_on_c, 0, 84, 0
2, 37880, Control_c, 0, 64, 0
2, 37880, Note_on_c, 0, 81, 83
2, 37920, Note_on_c, 0, 81, 0
2, 37920, Control_c, 0, 64, 127
2, 37920, Note_on_c, 0, 79, 83
2, 37980, Note_on_c, 0, 79, 0
2, 37980, Note_on_c, 0, 77, 83
2, 38040, Note_on_c, 0, 77, 0
2, 38040, Note_on_c, 0, 76, 83
2, 38100, Note_on_c, 0, 76, 0
2, 38100, Note_on_c, 0, 75, 83
2, 38160, Note_on_c, 0, 75, 0
2, 38160, Control_c, 0, 64, 0
2, 38160, Note_on_c, 0, 76, 83
2, 38340, Note_on_c, 0, 76, 0
2, 38340, Note_on_c, 0, 79, 83
2, 38400, Note_on_c, 0, 79, 0
2, 38400, Note_on_c, 0, 76, 83
2, 38640, Note_on_c, 0, 76, 0
2, 38640, Control_c, 0, 64, 127
2, 38640, Note_on_c, 0, 74, 83
2, 38674, Note_on_c, 0, 74, 0
2, 38674, Note_on_c, 0, 79, 83
2, 38708, Note_on_c, 0, 79, 0
2, 38708, Note_on_c, 0, 74, 83
2, 38742, Note_on_c, 0, 74, 0
2, 38742, Note_on_c, 0, 71, 83
2, 38777, Note_on_c, 0, 71, 0
2, 38777, Note_on_c, 0, 67, 83
2, 38811, Note_on_c, 0, 67, 0
2, 38811, Note_on_c, 0, 62, 83
2, 38845, Note_on_c, 0, 62, 0
2, 38845, Control_c, 0, 64, 0
2, 38845, Note_on_c, 0, 59, 83
2, 38880, Note_on_c, 0, 59, 0
2, 38880, Control_c, 0, 64, 127
2, 38880, Note_on_c, 0, 86, 83
2, 38940, Note_on_c, 0, 86, 0
2, 38940, Note_on_c, 0, 88, 83
2, 39000, Note_on_c, 0, 88, 0
2, 39000, Note_on_c, 0, 86, 83
2, 39060, Note_on_c, 0, 86, 0
2, 39060, Note_on_c, 0, 85, 83
2, 39120, Note_on_c, 0, 85, 0
2, 39120, Control_c, 0, 64, 0
2, 39120, Note_on_c, 0, 86, 83
2, 39300, Note_on_c, 0, 86, 0
2, 39300, Note_on_c, 0, 91, 83
2, 39360, Note_on_c, 0, 91, 0
2, 39360, Note_on_c, 0, 88, 83
2, 39600, Note_on_c, 0, 88, 0
2, 39600, Control_c, 0, 64, 127
2, 39600, Note_on_c, 0, 86, 83
2, 39634, Note_on_c, 0, 86, 0
2, 39634, Note_on_c, 0, 91, 83
2, 39668, Note_on_c, 0, 91, 0
2, 39668, Note_on_c, 0, 86, 83
2, 39702, Note_on_c, 0, 86, 0
2, 39702, Note_on_c, 0, 83, 83
2, 39737, Note_on_c, 0, 83, 0
2, 39737, Note_on_c, 0, 79, 83
2, 39771, Note_on_c, 0, 79, 0
2, 39771, Note_on_c, 0, 74, 83
2, 39805, Note_on_c, 0, 74, 0
2, 39805, Control_c, 0, 64, 0
2, 39805, Note_on_c, 0, 71, 83
2, 39840, Note_on_c, 0, 71, 0
2, 39840, Control_c, 0, 64, 127
2, 39840, Note_on_c, 0, 74, 83
2, 39900, Note_on_c, 0, 74, 0
2, 39900, Note_on_c, 0, 76, 83
2, 39960, Note_on_c, 0, 76, 0
2, 39960, Note_on_c, 0, 74, 83
2, 40020, Note_on_c, 0, 74, 0
2, 40020, Note_on_c, 0, 73, 83
2, 40080, Note_on_c, 0, 73, 0
2, 40080, Note_on_c, 0, 74, 83
2, 40260, Note_on_c, 0, 74, 0
2, 40260, Control_c, 0, 64, 0
2, 40260, Note_on_c, 0, 79, 83
2, 40320, Note_on_c, 0, 79, 0
2, 40320, Note_on_c, 0, 74, 83
2, 40560, Note_on_c, 0, 74, 0
2, 40560, Control_c, 0, 64, 127
2, 40560, Note_on_c, 0, 72, 83
2, 40594, Note_on_c, 0, 72, 0
2, 40594, Note_on_c, 0, 76, 83
2, 40628, Note_on_c, 0, 76, 0
2, 40628, Note_on_c, 0, 72, 83
2, 40662, Note_on_c, 0, 72, 0
2, 40662, Note_on_c, 0, 67, 83
2, 40697, Note_on_c, 0, 67, 0
2, 40697, Note_on_c, 0, 64, 83
2, 40731, Note_on_c, 0, 64, 0
2, 40731, Note_on_c, 0, 60, 83
2, 40765, Note_on_c, 0, 60, 0
2, 40765, Control_c, 0, 64, 0
2, 40765, Note_on_c, 0, 55, 83
2, 40800, Note_on_c, 0, 55, 0
2, 40800, Control_c, 0, 64, 127
2, 40800, Note_on_c, 0, 86, 83
2, 40860, Note_on_c, 0, 86, 0
2, 40860, Note_on_c, 0, 88, 83
2, 40920, Note_on_c, 0, 88, 0
2, 40920, Note_on_c, 0, 86, 83
2, 40980, Note_on_c, 0, 86, 0
2, 40980, Note_on_c, 0, 85, 83
2, 41040, Note_on_c, 0, 85, 0
2, 41040, Note_on_c, 0, 86, 83
2, 41220, Note_on_c, 0, 86, 0
2, 41220, Control_c, 0, 64, 0
2, 41220, Note_on_c, 0, 91, 83
2, 41280, Note_on_c, 0, 91, 0
2, 41280, Note_on_c, 0, 86, 83
2, 41520, Note_on_c, 0, 86, 0
2, 41520, Control_c, 0, 64, 127
2, 41520, Note_on_c, 0, 84, 83
2, 41554, Note_on_c, 0, 84, 0
2, 41554, Note_on_c, 0, 88, 83
2, 41588, Note_on_c, 0, 88, 0
2, 41588, Note_on_c, 0, 84, 83
2, 41622, Note_on_c, 0, 84, 0
2, 41622, Note_on_c, 0, 79, 83
2, 41657, Note_on_c, 0, 79, 0
2, 41657, Note_on_c, 0, 76, 83
2, 41691, Note_on_c, 0, 76, 0
2, 41691, Note_on_c, 0, 72, 83
2, 41725, Note_on_c, 0, 72, 0
2, 41725, Control_c, 0, 64, 0
2, 41725, Note_on_c, 0, 67, 83
2, 41760, Note_on_c, 0, 67, 0
2, 41760, Control_c, 0, 64, 127
2, 41760, Note_on_c, 0, 79, 83
2, 41820, Note_on_c, 0, 79, 0
2, 41820, Note_on_c, 0, 81, 83
2, 41880, Note_on_c, 0, 81, 0
2, 41880, Note_on_c, 0, 79, 83
2, 41940, Note_on_c, 0, 79, 0
2, 41940, Note_on_c, 0, 78, 83
2, 42000, Note_on_c, 0, 78, 0
2, 42000, Control_c, 0, 64, 0
2, 42000, Note_on_c, 0, 79, 83
2, 42180, Note_on_c, 0, 79, 0
2, 42180, Note_on_c, 0, 76, 83
2, 42240, Note_on_c, 0, 76, 0
2, 42240, Note_on_c, 0, 81, 83
2, 42480, Note_on_c, 0, 81, 0
2, 42480, Control_c, 0, 64, 127
2, 42480, Note_on_c, 0, 79, 83
2, 42519, Note_on_c, 0, 79, 0
2, 42519, Note_on_c, 0, 81, 83
2, 42560, Note_on_c, 0, 81, 0
2, 42560, Note_on_c, 0, 79, 83
2, 42600, Note_on_c, 0, 79, 0
2, 42600, Note_on_c, 0, 76, 83
2, 42639, Note_on_c, 0, 76, 0
2, 42639, Note_on_c, 0, 72, 83
2, 42680, Note_on_c, 0, 72, 0
2, 42680, Control_c, 0, 64, 0
2, 42680, Note_on_c, 0, 69, 83
2, 42720, Note_on_c, 0, 69, 0
2, 42720, Control_c, 0, 64, 127
2, 42720, Note_on_c, 0, 91, 83
2, 42780, Note_on_c, 0, 91, 0
2, 42780, Note_on_c, 0, 93, 83
2, 42840, Note_on_c, 0, 93, 0
2, 42840, Note_on_c, 0, 91, 83
2, 42900, Note_on_c, 0, 91, 0
2, 42900, Note_on_c, 0, 90, 83
2, 42960, Note_on_c, 0, 90, 0
2, 42960, Control_c, 0, 64, 0
2, 42960, Note_on_c, 0, 91, 83
2, 43140, Note_on_c, 0, 91, 0
2, 43140, Note_on_c, 0, 88, 83
2, 43200, Note_on_c, 0, 88, 0
2, 43200, Note_on_c, 0, 93, 83
2, 43440, Note_on_c, 0, 93, 0
2, 43440, Control_c, 0, 64, 127
2, 43440, Note_on_c, 0, 91, 83
2, 43479, Note_on_c, 0, 91, 0
2, 43479, Note_on_c, 0, 93, 83
2, 43520, Note_on_c, 0, 93, 0
2, 43520, Note_on_c, 0, 91, 83
2, 43560, Note_on_c, 0, 91, 0
2, 43560, Note_on_c, 0, 88, 83
2, 43599, Note_on_c, 0, 88, 0
2, 43599, Note_on_c, 0, 84, 83
2, 43640, Note_on_c, 0, 84, 0
2, 43640, Control_c, 0, 64, 0
2, 43640, Note_on_c, 0, 81, 83
2, 43680, Note_on_c, 0, 81, 0
2, 43680, Control_c, 0, 64, 127
2, 43680, Note_on_c, 0, 79, 83
2, 43740, Note_on_c, 0, 79, 0
2, 43740, Note_on_c, 0, 81, 83
2, 43800, Note_on_c, 0, 81, 0
2, 43800, Note_on_c, 0, 79, 83
2, 43860, Note_on_c, 0, 79, 0
2, 43860, Note_on_c, 0, 78, 83
2, 43920, Note_on_c, 0, 78, 0
2, 43920, Control_c, 0, 64, 0
2, 43920, Note_on_c, 0, 79, 83
2, 44100, Note_on_c, 0, 79, 0
2, 44100, Note_on_c, 0, 76, 83
2, 44160, Note_on_c, 0, 76, 0
2, 44160, Note_on_c, 0, 81, 83
2, 44400, Note_on_c, 0, 81, 0
2, 44400, Control_c, 0, 64, 127
2, 44400, Note_on_c, 0, 79, 83
2, 44439, Note_on_c, 0, 79, 0
2, 44439, Note_on_c, 0, 81, 83
2, 44480, Note_on_c, 0, 81, 0
2, 44480, Note_on_c, 0, 79, 83
2, 44520, Note_on_c, 0, 79, 0
2, 44520, Note_on_c, 0, 76, 83
2, 44559, Note_on_c, 0, 76, 0
2, 44559, Note_on_c, 0, 72, 83
2, 44600, Note_on_c, 0, 72, 0
2, 44600, Control_c, 0, 64, 0
2, 44600, Note_on_c, 0, 69, 83
2, 44640, Note_on_c, 0, 69, 0
2, 44640, Control_c, 0, 64, 127
2, 44640, Note_on_c, 0, 91, 83
2, 44700, Note_on_c, 0, 91, 0
2, 44700, Note_on_c, 0, 93, 83
2, 44760, Note_on_c, 0, 93, 0
2, 44760, Note_on_c, 0, 91, 83
2, 44820, Note_on_c, 0, 91, 0
2, 44820, Note_on_c, 0, 90, 83
2, 44880, Note_on_c, 0, 90, 0
2, 44880, Control_c, 0, 64, 0
2, 44880, Note_on_c, 0, 91, 83
2, 45060, Note_on_c, 0, 91, 0
2, 45060, Note_on_c, 0, 88, 83
2, 45120, Note_on_c, 0, 88, 0
2, 45120, Note_on_c, 0, 93, 83
2, 45360, Note_on_c, 0, 93, 0
2, 45360, Control_c, 0, 64, 127
2, 45360, Note_on_c, 0, 91, 83
2, 45399, Note_on_c, 0, 91, 0
2, 45399, Note_on_c, 0, 93, 83
2, 45440, Note_on_c, 0, 93, 0
2, 45440, Note_on_c, 0, 91, 83
2, 45480, Note_on_c, 0, 91, 0
2, 45480, Note_on_c, 0, 88, 83
2, 45519, Note_on_c, 0, 88, 0
2, 45519, Note_on_c, 0, 84, 83
2, 45560, Note_on_c, 0, 84, 0
2, 45560, Control_c, 0, 64, 0
2, 45560, Note_on_c, 0, 81, 83
2, 45600, Note_on_c, 0, 81, 0
2, 45600, Note_on_c, 0, 79, 83
2, 45720, Note_on_c, 0, 79, 0
2, 45720, Note_on_c, 0, 72, 83
2, 45720, Note_on_c, 0, 84, 83
2, 45743, Note_on_c, 0, 84, 0
2, 45743, Note_on_c, 0, 72, 0
2, 45840, Note_on_c, 0, 74, 83
2, 45840, Note_on_c, 0, 86, 83
2, 45863, Note_on_c, 0, 86, 0
2, 45863, Note_on_c, 0, 74, 0
2, 45960, Note_on_c, 0, 76, 83
2, 45960, Note_on_c, 0, 88, 83
2, 45983, Note_on_c, 0, 88, 0
2, 45983, Note_on_c, 0, 76, 0
2, 46080, Note_on_c, 0, 77, 83
2, 46080, Note_on_c, 0, 89, 83
2, 46103, Note_on_c, 0, 89, 0
2, 46103, Note_on_c, 0, 77, 0
2, 46200, Note_on_c, 0, 76, 83
2, 46200, Note_on_c, 0, 88, 83
2, 46223, Note_on_c, 0, 88, 0
2, 46223, Note_on_c, 0, 76, 0
2, 46320, Note_on_c, 0, 74, 83
2, 46320, Note_on_c, 0, 86, 83
2, 46343, Note_on_c, 0, 86, 0
2, 46343, Note_on_c, 0, 74, 0
2, 46440, Note_on_c, 0, 72, 83
2, 46440, Note_on_c, 0, 84, 83
2, 46463, Note_on_c, 0, 84, 0
2, 46463, Note_on_c, 0, 72, 0
2, 46620, Control_c, 0, 64, 127
2, 46620, Note_on_c, 0, 72, 96
2, 46680, Note_on_c, 0, 72, 0
2, 46680, Note_on_c, 0, 77, 96
2, 46740, Note_on_c, 0, 77, 0
2, 46740, Note_on_c, 0, 81, 96
2, 46800, Note_on_c, 0, 81, 0
2, 46800, Control_c, 0, 64, 0
2, 46800, Note_on_c, 0, 84, 96
2, 46920, Note_on_c, 0, 84, 0
2, 46920, Note_on_c, 0, 72, 96
2, 46920, Note_on_c, 0, 84, 96
2, 46943, Note_on_c, 0, 84, 0
2, 46943, Note_on_c, 0, 72, 0
2, 47040, Note_on_c, 0, 74, 96
2, 47040, Note_on_c, 0, 86, 96
2, 47063, Note_on_c, 0, 86, 0
2, 47063, Note_on_c, 0, 74, 0
2, 47160, Note_on_c, 0, 72, 96
2, 47160, Note_on_c, 0, 84, 96
2, 47183, Note_on_c, 0, 84, 0
2, 47183, Note_on_c, 0, 72, 0
2, 47280, Note_on_c, 0, 71, 96
2, 47280, Note_on_c, 0, 83, 96
2, 47303, Note_on_c, 0, 83, 0
2, 47303, Note_on_c, 0, 71, 0
2, 47400, Note_on_c, 0, 72, 96
2, 47400, Note_on_c, 0, 84, 96
2, 47423, Note_on_c, 0, 84, 0
2, 47423, Note_on_c, 0, 72, 0
2, 47580, Control_c, 0, 64, 127
2, 47580, Note_on_c, 0, 75, 96
2, 47640, Note_on_c, 0, 75, 0
2, 47640, Note_on_c, 0, 80, 96
2, 47700, Note_on_c, 0, 80, 0
2, 47700, Note_on_c, 0, 84, 96
2, 47760, Note_on_c, 0, 84, 0
2, 47760, Control_c, 0, 64, 0
2, 47760, Note_on_c, 0, 87, 96
2, 47880, Note_on_c, 0, 87, 0
2, 47880, Note_on_c, 0, 66, 96
2, 47880, Note_on_c, 0, 78, 96
2, 47903, Note_on_c, 0, 78, 0
2, 47903, Note_on_c, 0, 66, 0
2, 48000, Note_on_c, 0, 69, 96
2, 48000, Note_on_c, 0, 81, 96
2, 48023, Note_on_c, 0, 81, 0
2, 48023, Note_on_c, 0, 69, 0
2, 48120, Note_on_c, 0, 67, 96
2, 48120, Note_on_c, 0, 79, 96
2, 48143, Note_on_c, 0, 79, 0
2, 48143, Note_on_c, 0, 67, 0
2, 48240, Note_on_c, 0, 66, 96
2, 48240, Note_on_c, 0, 78, 96
2, 48263, Note_on_c, 0, 78, 0
2, 48263, Note_on_c, 0, 66, 0
2, 48360, Note_on_c, 0, 67, 96
2, 48360, Note_on_c, 0, 79, 96
2, 48383, Note_on_c, 0, 79, 0
2, 48383, Note_on_c, 0, 67, 0
2, 48540, Control_c, 0, 64, 127
2, 48540, Note_on_c, 0, 79, 96
2, 48600, Note_on_c, 0, 79, 0
2, 48600, Note_on_c, 0, 84, 96
2, 48660, Note_on_c, 0, 84, 0
2, 48660, Note_on_c, 0, 88, 96
2, 48720, Note_on_c, 0, 88, 0
2, 48720, Note_on_c, 0, 91, 96
2, 48780, Note_on_c, 0, 91, 0
2, 48780, Note_on_c, 0, 88, 96
2, 48840, Note_on_c, 0, 88, 0
2, 48840, Note_on_c, 0, 84, 96
2, 48900, Note_on_c, 0, 84, 0
2, 48900, Control_c, 0, 64, 0
2, 48900, Note_on_c, 0, 79, 96
2, 48960, Note_on_c, 0, 79, 0
2, 49020, Control_c, 0, 64, 127
2, 49020, Note_on_c, 0, 79, 96
2, 49080, Note_on_c, 0, 79, 0
2, 49080, Note_on_c, 0, 84, 96
2, 49140, Note_on_c, 0, 84, 0
2, 49140, Note_on_c, 0, 88, 96
2, 49200, Note_on_c, 0, 88, 0
2, 49200, Note_on_c, 0, 91, 96
2, 49260, Note_on_c, 0, 91, 0
2, 49260, Note_on_c, 0, 88, 96
2, 49320, Note_on_c, 0, 88, 0
2, 49320, Note_on_c, 0, 84, 96
2, 49380, Note_on_c, 0, 84, 0
2, 49380, Control_c, 0, 64, 0
2, 49380, Note_on_c, 0, 79, 96
2, 49440, Note_on_c, 0, 79, 0
2, 49560, Note_on_c, 0, 67, 96
2, 49560, Note_on_c, 0, 79, 96
2, 49680, Note_on_c, 0, 79, 0
2, 49680, Note_on_c, 0, 67, 0
2, 49680, Note_on_c, 0, 69, 96
2, 49680, Note_on_c, 0, 81, 96
2, 49800, Note_on_c, 0, 81, 0
2, 49800, Note_on_c, 0, 69, 0
2, 49800, Note_on_c, 0, 71, 96
2, 49800, Note_on_c, 0, 83, 96
2, 49920, Note_on_c, 0, 83, 0
2, 49920, Note_on_c, 0, 71, 0
2, 49920, Note_on_c, 0, 74, 96
2, 49920, Note_on_c, 0, 86, 96
2, 50040, Note_on_c, 0, 86, 0
2, 50040, Note_on_c, 0, 74, 0
2, 50040, Note_on_c, 0, 72, 96
2, 50040, Note_on_c, 0, 84, 96
2, 50160, Note_on_c, 0, 84, 0
2, 50160, Note_on_c, 0, 72, 0
2, 50160, Note_on_c, 0, 71, 96
2, 50160, Note_on_c, 0, 83, 96
2, 50280, Note_on_c, 0, 83, 0
2, 50280, Note_on_c, 0, 71, 0
2, 50280, Note_on_c, 0, 72, 96
2, 50280, Note_on_c, 0, 84, 96
2, 50400, Note_on_c, 0, 84, 0
2, 50400, Note_on_c, 0, 72, 0
2, 50400, Note_on_c, 0, 74, 96
2, 50400, Note_on_c, 0, 86, 96
2, 50520, Note_on_c, 0, 86, 0
2, 50520, Note_on_c, 0, 74, 0
2, 50520, Note_on_c, 0, 72, 96
2, 50520, Note_on_c, 0, 84, 96
2, 50640, Note_on_c, 0, 84, 0
2, 50640, Note_on_c, 0, 72, 0
2, 50640, Note_on_c, 0, 71, 96
2, 50640, Note_on_c, 0, 83, 96
2, 50760, Note_on_c, 0, 83, 0
2, 50760, Note_on_c, 0, 71, 0
2, 50760, Note_on_c, 0, 72, 96
2, 50760, Note_on_c, 0, 84, 96
2, 50880, Note_on_c, 0, 84, 0
2, 50880, Note_on_c, 0, 72, 0
2, 50880, Note_on_c, 0, 74, 96
2, 50880, Note_on_c, 0, 86, 96
2, 51000, Note_on_c, 0, 86, 0
2, 51000, Note_on_c, 0, 74, 0
2, 51000, Note_on_c, 0, 72, 96
2, 51000, Note_on_c, 0, 84, 96
2, 51120, Note_on_c, 0, 84, 0
2, 51120, Note_on_c, 0, 72, 0
2, 51120, Note_on_c, 0, 71, 96
2, 51120, Note_on_c, 0, 83, 96
2, 51240, Note_on_c, 0, 83, 0
2, 51240, Note_on_c, 0, 71, 0
2, 51240, Note_on_c, 0, 72, 96
2, 51240, Note_on_c, 0, 84, 96
2, 51360, Note_on_c, 0, 84, 0
2, 51360, Note_on_c, 0, 72, 0
2, 51360, Note_on_c, 0, 74, 96
2, 51360, Note_on_c, 0, 86, 96
2, 51480, Note_on_c, 0, 86, 0
2, 51480, Note_on_c, 0, 74, 0
2, 51480, Note_on_c, 0, 72, 96
2, 51480, Note_on_c, 0, 84, 96
2, 51600, Note_on_c, 0, 84, 0
2, 51600, Note_on_c, 0, 72, 0
2, 51600, Note_on_c, 0, 71, 96
2, 51600, Note_on_c, 0, 83, 96
2, 51720, Note_on_c, 0, 83, 0
2, 51720, Note_on_c, 0, 71, 0
2, 51720, Note_on_c, 0, 72, 96
2, 51720, Note_on_c, 0, 84, 96
2, 51840, Note_on_c, 0, 84, 0
2, 51840, Note_on_c, 0, 72, 0
2, 51840, Note_on_c, 0, 72, 96
2, 51840, Note_on_c, 0, 84, 96
2, 51900, Note_on_c, 0, 78, 96
2, 51960, Note_on_c, 0, 78, 0
2, 51960, Note_on_c, 0, 84, 0
2, 51960, Note_on_c, 0, 72, 0
2, 51960, Note_on_c, 0, 79, 96
2, 52020, Note_on_c, 0, 83, 96
2, 52080, Note_on_c, 0, 83, 0
2, 52080, Note_on_c, 0, 79, 0
2, 52080, Note_on_c, 0, 84, 96
2, 52140, Note_on_c, 0, 87, 96
2, 52200, Note_on_c, 0, 87, 0
2, 52200, Note_on_c, 0, 84, 0
2, 52200, Note_on_c, 0, 88, 96
2, 52260, Note_on_c, 0, 90, 96
2, 52320, Note_on_c, 0, 90, 0
2, 52320, Note_on_c, 0, 88, 0
2, 52320, Note_on_c, 0, 91, 96
2, 52380, Note_on_c, 0, 83, 96
2, 52440, Note_on_c, 0, 83, 0
2, 52440, Note_on_c, 0, 91, 0
2, 52440, Note_on_c, 0, 84, 96
2, 52500, Note_on_c, 0, 87, 96
2, 52560, Note_on_c, 0, 87, 0
2, 52560, Note_on_c, 0, 84, 0
2, 52560, Note_on_c, 0, 88, 96
2, 52620, Note_on_c, 0, 90, 96
2, 52680, Note_on_c, 0, 90, 0
2, 52680, Note_on_c, 0, 88, 0
2, 52680, Note_on_c, 0, 91, 96
2, 52740, Note_on_c, 0, 95, 96
2, 52800, Note_on_c, 0, 95, 0
2, 52800, Note_on_c, 0, 91, 0
2, 52800, Note_on_c, 0, 96, 96
2, 53040, Note_on_c, 0, 96, 0
2, 53040, Note_on_c, 0, 72, 96
2, 53040, Note_on_c, 0, 79, 96
2, 53040, Note_on_c, 0, 88, 96
2, 53280, Note_on_c, 0, 88, 0
2, 53280, Note_on_c, 0, 79, 0
2, 53280, Note_on_c, 0, 72, 0
2, 53280, Note_on_c, 0, 60, 122
2, 53760, Note_on_c, 0, 60, 0
2, 53760, Control_c, 0, 64, 127
2, 55200, Control_c, 0, 64, 0
2, 55200, End_track
3, 0, Start_track
3, 0, Title_t, "Grand Piano"
3, 0, Program_c, 0, 0
3, 0, Control_c, 0, 7, 115
3, 0, Control_c, 0, 10, 79
3, 15840, Note_on_c, 0, 67, 75
3, 16080, Note_on_c, 0, 67, 0
3, 35040, Note_on_c, 0, 67, 88
3, 35280, Note_on_c, 0, 67, 0
3, 36000, Note_on_c, 0, 79, 88
3, 36240, Note_on_c, 0, 79, 0
3, 36960, Note_on_c, 0, 67, 88
3, 37200, Note_on_c, 0, 67, 0
3, 37920, Note_on_c, 0, 79, 88
3, 38160, Note_on_c, 0, 79, 0
3, 38880, Note_on_c, 0, 55, 88
3, 39120, Note_on_c, 0, 55, 0
3, 39840, Note_on_c, 0, 67, 88
3, 40080, Note_on_c, 0, 67, 0
3, 40800, Note_on_c, 0, 55, 88
3, 41040, Note_on_c, 0, 55, 0
3, 41760, Note_on_c, 0, 64, 88
3, 42000, Note_on_c, 0, 64, 0
3, 42720, Note_on_c, 0, 67, 88
3, 42960, Note_on_c, 0, 67, 0
3, 43680, Note_on_c, 0, 79, 88
3, 43920, Note_on_c, 0, 79, 0
3, 44640, Note_on_c, 0, 67, 88
3, 44880, Note_on_c, 0, 67, 0
3, 48480, Control_c, 0, 64, 127
3, 48480, Note_on_c, 0, 76, 88
3, 48600, Note_on_c, 0, 76, 0
3, 48600, Note_on_c, 0, 72, 88
3, 48660, Note_on_c, 0, 72, 0
3, 48660, Note_on_c, 0, 67, 88
3, 48720, Note_on_c, 0, 67, 0
3, 48720, Note_on_c, 0, 64, 88
3, 48780, Note_on_c, 0, 64, 0
3, 48780, Note_on_c, 0, 67, 88
3, 48840, Note_on_c, 0, 67, 0
3, 48840, Note_on_c, 0, 72, 88
3, 48900, Note_on_c, 0, 72, 0
3, 48900, Control_c, 0, 64, 0
3, 48900, Note_on_c, 0, 76, 88
3, 48960, Note_on_c, 0, 76, 0
3, 48960, Control_c, 0, 64, 127
3, 48960, Note_on_c, 0, 76, 88
3, 49080, Note_on_c, 0, 76, 0
3, 49080, Note_on_c, 0, 72, 88
3, 49140, Note_on_c, 0, 72, 0
3, 49140, Note_on_c, 0, 67, 88
3, 49200, Note_on_c, 0, 67, 0
3, 49200, Note_on_c, 0, 64, 88
3, 49260, Note_on_c, 0, 64, 0
3, 49260, Note_on_c, 0, 67, 88
3, 49320, Note_on_c, 0, 67, 0
3, 49320, Note_on_c, 0, 72, 88
3, 49380, Note_on_c, 0, 72, 0
3, 49380, Control_c, 0, 64, 0
3, 49380, Note_on_c, 0, 76, 88
3, 49440, Note_on_c, 0, 76, 0
3, 49440, Note_on_c, 0, 76, 88
3, 49560, Note_on_c, 0, 76, 0
3, 52020, Note_on_c, 0, 75, 101
3, 52080, Note_on_c, 0, 75, 0
3, 52080, Note_on_c, 0, 76, 101
3, 52140, Note_on_c, 0, 71, 101
3, 52200, Note_on_c, 0, 71, 0
3, 52200, Note_on_c, 0, 76, 0
3, 52200, Note_on_c, 0, 72, 101
3, 52260, Note_on_c, 0, 66, 101
3, 52320, Note_on_c, 0, 66, 0
3, 52320, Note_on_c, 0, 72, 0
3, 52320, Note_on_c, 0, 67, 101
3, 52380, Note_on_c, 0, 75, 101
3, 52440, Note_on_c, 0, 75, 0
3, 52440, Note_on_c, 0, 67, 0
3, 52440, Note_on_c, 0, 76, 101
3, 52500, Note_on_c, 0, 71, 101
3, 52560, Note_on_c, 0, 71, 0
3, 52560, Note_on_c, 0, 76, 0
3, 52560, Note_on_c, 0, 72, 101
3, 52620, Note_on_c, 0, 66, 101
3, 52680, Note_on_c, 0, 66, 0
3, 52680, Note_on_c, 0, 72, 0
3, 52680, Note_on_c, 0, 67, 101
3, 52740, Note_on_c, 0, 63, 101
3, 52800, Note_on_c, 0, 63, 0
3, 52800, Note_on_c, 0, 67, 0
3, 52800, Note_on_c, 0, 60, 101
3, 52800, Note_on_c, 0, 64, 101
3, 53040, Note_on_c, 0, 64, 0
3, 53040, Note_on_c, 0, 60, 0
3, 53040, End_track
4, 0, Start_track
4, 0, Title_t, "Grand Piano"
4, 0, Program_c, 0, 0
4, 0, Control_c, 0, 7, 115
4, 0, Control_c, 0, 10, 41
4, 120, Note_on_c, 0, 52, 49
4, 120, Note_on_c, 0, 60, 49
4, 143, Note_on_c, 0, 60, 0
4, 143, Note_on_c, 0, 52, 0
4, 240, Note_on_c, 0, 52, 49
4, 240, Note_on_c, 0, 60, 49
4, 263, Note_on_c, 0, 60, 0
4, 263, Note_on_c, 0, 52, 0
4, 360, Note_on_c, 0, 60, 49
4, 360, Note_on_c, 0, 64, 49
4, 383, Note_on_c, 0, 64, 0
4, 383, Note_on_c, 0, 60, 0
4, 600, Note_on_c, 0, 52, 49
4, 600, Note_on_c, 0, 60, 49
4, 623, Note_on_c, 0, 60, 0
4, 623, Note_on_c, 0, 52, 0
4, 720, Note_on_c, 0, 52, 49
4, 720, Note_on_c, 0, 60, 49
4, 743, Note_on_c, 0, 60, 0
4, 743, Note_on_c, 0, 52, 0
4, 840, Note_on_c, 0, 60, 49
4, 840, Note_on_c, 0, 64, 49
4, 863, Note_on_c, 0, 64, 0
4, 863, Note_on_c, 0, 60, 0
4, 1080, Note_on_c, 0, 52, 49
4, 1080, Note_on_c, 0, 60, 49
4, 1103, Note_on_c, 0, 60, 0
4, 1103, Note_on_c, 0, 52, 0
4, 1200, Note_on_c, 0, 52, 49
4, 1200, Note_on_c, 0, 60, 49
4, 1223, Note_on_c, 0, 60, 0
4, 1223, Note_on_c, 0, 52, 0
4, 1320, Note_on_c, 0, 60, 49
4, 1320, Note_on_c, 0, 64, 49
4, 1343, Note_on_c, 0, 64, 0
4, 1343, Note_on_c, 0, 60, 0
4, 1560, Note_on_c, 0, 52, 49
4, 1560, Note_on_c, 0, 60, 49
4, 1583, Note_on_c, 0, 60, 0
4, 1583, Note_on_c, 0, 52, 0
4, 1680, Note_on_c, 0, 52, 49
4, 1680, Note_on_c, 0, 60, 49
4, 1703, Note_on_c, 0, 60, 0
4, 1703, Note_on_c, 0, 52, 0
4, 1800, Note_on_c, 0, 60, 49
4, 1800, Note_on_c, 0, 64, 49
4, 1823, Note_on_c, 0, 64, 0
4, 1823, Note_on_c, 0, 60, 0
4, 2040, Note_on_c, 0, 52, 49
4, 2040, Note_on_c, 0, 60, 49
4, 2063, Note_on_c, 0, 60, 0
4, 2063, Note_on_c, 0, 52, 0
4, 2160, Note_on_c, 0, 52, 49
4, 2160, Note_on_c, 0, 60, 49
4, 2183, Note_on_c, 0, 60, 0
4, 2183, Note_on_c, 0, 52, 0
4, 2280, Note_on_c, 0, 60, 49
4, 2280, Note_on_c, 0, 64, 49
4, 2303, Note_on_c, 0, 64, 0
4, 2303, Note_on_c, 0, 60, 0
4, 2520, Note_on_c, 0, 52, 49
4, 2520, Note_on_c, 0, 60, 49
4, 2543, Note_on_c, 0, 60, 0
4, 2543, Note_on_c, 0, 52, 0
4, 2640, Note_on_c, 0, 52, 49
4, 2640, Note_on_c, 0, 60, 49
4, 2663, Note_on_c, 0, 60, 0
4, 2663, Note_on_c, 0, 52, 0
4, 2760, Note_on_c, 0, 60, 49
4, 2760, Note_on_c, 0, 64, 49
4, 2783, Note_on_c, 0, 64, 0
4, 2783, Note_on_c, 0, 60, 0
4, 3000, Note_on_c, 0, 52, 49
4, 3000, Note_on_c, 0, 60, 49
4, 3023, Note_on_c, 0, 60, 0
4, 3023, Note_on_c, 0, 52, 0
4, 3120, Note_on_c, 0, 52, 49
4, 3120, Note_on_c, 0, 60, 49
4, 3143, Note_on_c, 0, 60, 0
4, 3143, Note_on_c, 0, 52, 0
4, 3240, Note_on_c, 0, 60, 49
4, 3240, Note_on_c, 0, 64, 49
4, 3263, Note_on_c, 0, 64, 0
4, 3263, Note_on_c, 0, 60, 0
4, 3480, Note_on_c, 0, 52, 49
4, 3480, Note_on_c, 0, 60, 49
4, 3503, Note_on_c, 0, 60, 0
4, 3503, Note_on_c, 0, 52, 0
4, 3600, Note_on_c, 0, 52, 49
4, 3600, Note_on_c, 0, 60, 49
4, 3623, Note_on_c, 0, 60, 0
4, 3623, Note_on_c, 0, 52, 0
4, 3720, Note_on_c, 0, 60, 49
4, 3720, Note_on_c, 0, 64, 49
4, 3743, Note_on_c, 0, 64, 0
4, 3743, Note_on_c, 0, 60, 0
4, 3960, Note_on_c, 0, 52, 49
4, 3960, Note_on_c, 0, 60, 49
4, 3983, Note_on_c, 0, 60, 0
4, 3983, Note_on_c, 0, 52, 0
4, 4080, Note_on_c, 0, 52, 49
4, 4080, Note_on_c, 0, 60, 49
4, 4103, Note_on_c, 0, 60, 0
4, 4103, Note_on_c, 0, 52, 0
4, 4200, Note_on_c, 0, 60, 49
4, 4200, Note_on_c, 0, 64, 49
4, 4223, Note_on_c, 0, 64, 0
4, 4223, Note_on_c, 0, 60, 0
4, 4440, Note_on_c, 0, 52, 49
4, 4440, Note_on_c, 0, 60, 49
4, 4463, Note_on_c, 0, 60, 0
4, 4463, Note_on_c, 0, 52, 0
4, 4560, Note_on_c, 0, 52, 49
4, 4560, Note_on_c, 0, 60, 49
4, 4583, Note_on_c, 0, 60, 0
4, 4583, Note_on_c, 0, 52, 0
4, 4680, Note_on_c, 0, 60, 49
4, 4680, Note_on_c, 0, 64, 49
4, 4703, Note_on_c, 0, 64, 0
4, 4703, Note_on_c, 0, 60, 0
4, 4920, Note_on_c, 0, 52, 49
4, 4920, Note_on_c, 0, 60, 49
4, 4943, Note_on_c, 0, 60, 0
4, 4943, Note_on_c, 0, 52, 0
4, 5040, Note_on_c, 0, 52, 49
4, 5040, Note_on_c, 0, 60, 49
4, 5063, Note_on_c, 0, 60, 0
4, 5063, Note_on_c, 0, 52, 0
4, 5160, Note_on_c, 0, 60, 49
4, 5160, Note_on_c, 0, 64, 49
4, 5183, Note_on_c, 0, 64, 0
4, 5183, Note_on_c, 0, 60, 0
4, 5400, Note_on_c, 0, 52, 49
4, 5400, Note_on_c, 0, 60, 49
4, 5423, Note_on_c, 0, 60, 0
4, 5423, Note_on_c, 0, 52, 0
4, 5520, Note_on_c, 0, 52, 49
4, 5520, Note_on_c, 0, 60, 49
4, 5543, Note_on_c, 0, 60, 0
4, 5543, Note_on_c, 0, 52, 0
4, 5640, Note_on_c, 0, 60, 49
4, 5640, Note_on_c, 0, 64, 49
4, 5663, Note_on_c, 0, 64, 0
4, 5663, Note_on_c, 0, 60, 0
4, 5880, Note_on_c, 0, 50, 49
4, 5880, Note_on_c, 0, 59, 49
4, 5903, Note_on_c, 0, 59, 0
4, 5903, Note_on_c, 0, 50, 0
4, 6000, Note_on_c, 0, 50, 49
4, 6000, Note_on_c, 0, 59, 49
4, 6023, Note_on_c, 0, 59, 0
4, 6023, Note_on_c, 0, 50, 0
4, 6120, Note_on_c, 0, 55, 49
4, 6120, Note_on_c, 0, 62, 49
4, 6143, Note_on_c, 0, 62, 0
4, 6143, Note_on_c, 0, 55, 0
4, 6360, Note_on_c, 0, 50, 49
4, 6360, Note_on_c, 0, 59, 49
4, 6383, Note_on_c, 0, 59, 0
4, 6383, Note_on_c, 0, 50, 0
4, 6480, Note_on_c, 0, 50, 49
4, 6480, Note_on_c, 0, 59, 49
4, 6503, Note_on_c, 0, 59, 0
4, 6503, Note_on_c, 0, 50, 0
4, 6600, Note_on_c, 0, 55, 49
4, 6600, Note_on_c, 0, 62, 49
4, 6623, Note_on_c, 0, 62, 0
4, 6623, Note_on_c, 0, 55, 0
4, 6840, Note_on_c, 0, 50, 49
4, 6840, Note_on_c, 0, 59, 49
4, 6863, Note_on_c, 0, 59, 0
4, 6863, Note_on_c, 0, 50, 0
4, 6960, Note_on_c, 0, 50, 49
4, 6960, Note_on_c, 0, 59, 49
4, 6983, Note_on_c, 0, 59, 0
4, 6983, Note_on_c, 0, 50, 0
4, 7080, Note_on_c, 0, 55, 49
4, 7080, Note_on_c, 0, 62, 49
4, 7103, Note_on_c, 0, 62, 0
4, 7103, Note_on_c, 0, 55, 0
4, 7320, Note_on_c, 0, 50, 49
4, 7320, Note_on_c, 0, 59, 49
4, 7343, Note_on_c, 0, 59, 0
4, 7343, Note_on_c, 0, 50, 0
4, 7440, Note_on_c, 0, 50, 49
4, 7440, Note_on_c, 0, 59, 49
4, 7463, Note_on_c, 0, 59, 0
4, 7463, Note_on_c, 0, 50, 0
4, 7560, Note_on_c, 0, 55, 49
4, 7560, Note_on_c, 0, 62, 49
4, 7583, Note_on_c, 0, 62, 0
4, 7583, Note_on_c, 0, 55, 0
4, 7800, Note_on_c, 0, 52, 49
4, 7800, Note_on_c, 0, 60, 49
4, 7823, Note_on_c, 0, 60, 0
4, 7823, Note_on_c, 0, 52, 0
4, 7920, Note_on_c, 0, 52, 49
4, 7920, Note_on_c, 0, 60, 49
4, 7943, Note_on_c, 0, 60, 0
4, 7943, Note_on_c, 0, 52, 0
4, 8040, Note_on_c, 0, 60, 49
4, 8040, Note_on_c, 0, 64, 49
4, 8063, Note_on_c, 0, 64, 0
4, 8063, Note_on_c, 0, 60, 0
4, 8280, Note_on_c, 0, 52, 49
4, 8280, Note_on_c, 0, 60, 49
4, 8303, Note_on_c, 0, 60, 0
4, 8303, Note_on_c, 0, 52, 0
4, 8400, Note_on_c, 0, 52, 49
4, 8400, Note_on_c, 0, 60, 49
4, 8423, Note_on_c, 0, 60, 0
4, 8423, Note_on_c, 0, 52, 0
4, 8520, Note_on_c, 0, 60, 49
4, 8520, Note_on_c, 0, 64, 49
4, 8543, Note_on_c, 0, 64, 0
4, 8543, Note_on_c, 0, 60, 0
4, 8760, Note_on_c, 0, 52, 49
4, 8760, Note_on_c, 0, 60, 49
4, 8783, Note_on_c, 0, 60, 0
4, 8783, Note_on_c, 0, 52, 0
4, 8880, Note_on_c, 0, 52, 49
4, 8880, Note_on_c, 0, 60, 49
4, 8903, Note_on_c, 0, 60, 0
4, 8903, Note_on_c, 0, 52, 0
4, 9000, Note_on_c, 0, 60, 49
4, 9000, Note_on_c, 0, 64, 49
4, 9023, Note_on_c, 0, 64, 0
4, 9023, Note_on_c, 0, 60, 0
4, 9240, Note_on_c, 0, 52, 49
4, 9240, Note_on_c, 0, 60, 49
4, 9263, Note_on_c, 0, 60, 0
4, 9263, Note_on_c, 0, 52, 0
4, 9360, Note_on_c, 0, 52, 49
4, 9360, Note_on_c, 0, 60, 49
4, 9383, Note_on_c, 0, 60, 0
4, 9383, Note_on_c, 0, 52, 0
4, 9480, Note_on_c, 0, 60, 49
4, 9480, Note_on_c, 0, 64, 49
4, 9503, Note_on_c, 0, 64, 0
4, 9503, Note_on_c, 0, 60, 0
4, 9720, Note_on_c, 0, 52, 49
4, 9720, Note_on_c, 0, 60, 49
4, 9743, Note_on_c, 0, 60, 0
4, 9743, Note_on_c, 0, 52, 0
4, 9840, Note_on_c, 0, 52, 49
4, 9840, Note_on_c, 0, 60, 49
4, 9863, Note_on_c, 0, 60, 0
4, 9863, Note_on_c, 0, 52, 0
4, 9960, Note_on_c, 0, 60, 49
4, 9960, Note_on_c, 0, 64, 49
4, 9983, Note_on_c, 0, 64, 0
4, 9983, Note_on_c, 0, 60, 0
4, 10200, Note_on_c, 0, 52, 49
4, 10200, Note_on_c, 0, 60, 49
4, 10223, Note_on_c, 0, 60, 0
4, 10223, Note_on_c, 0, 52, 0
4, 10320, Note_on_c, 0, 52, 49
4, 10320, Note_on_c, 0, 60, 49
4, 10343, Note_on_c, 0, 60, 0
4, 10343, Note_on_c, 0, 52, 0
4, 10440, Note_on_c, 0, 60, 49
4, 10440, Note_on_c, 0, 64, 49
4, 10463, Note_on_c, 0, 64, 0
4, 10463, Note_on_c, 0, 60, 0
4, 10680, Note_on_c, 0, 52, 49
4, 10680, Note_on_c, 0, 60, 49
4, 10703, Note_on_c, 0, 60, 0
4, 10703, Note_on_c, 0, 52, 0
4, 10800, Note_on_c, 0, 52, 49
4, 10800, Note_on_c, 0, 60, 49
4, 10823, Note_on_c, 0, 60, 0
4, 10823, Note_on_c, 0, 52, 0
4, 10920, Note_on_c, 0, 60, 49
4, 10920, Note_on_c, 0, 64, 49
4, 10943, Note_on_c, 0, 64, 0
4, 10943, Note_on_c, 0, 60, 0
4, 11160, Note_on_c, 0, 52, 49
4, 11160, Note_on_c, 0, 60, 49
4, 11183, Note_on_c, 0, 60, 0
4, 11183, Note_on_c, 0, 52, 0
4, 11280, Note_on_c, 0, 52, 49
4, 11280, Note_on_c, 0, 60, 49
4, 11303, Note_on_c, 0, 60, 0
4, 11303, Note_on_c, 0, 52, 0
4, 11400, Note_on_c, 0, 60, 49
4, 11400, Note_on_c, 0, 64, 49
4, 11423, Note_on_c, 0, 64, 0
4, 11423, Note_on_c, 0, 60, 0
4, 11640, Note_on_c, 0, 52, 49
4, 11640, Note_on_c, 0, 60, 49
4, 11663, Note_on_c, 0, 60, 0
4, 11663, Note_on_c, 0, 52, 0
4, 11760, Note_on_c, 0, 52, 49
4, 11760, Note_on_c, 0, 60, 49
4, 11783, Note_on_c, 0, 60, 0
4, 11783, Note_on_c, 0, 52, 0
4, 11880, Note_on_c, 0, 60, 49
4, 11880, Note_on_c, 0, 64, 49
4, 11903, Note_on_c, 0, 64, 0
4, 11903, Note_on_c, 0, 60, 0
4, 12120, Note_on_c, 0, 52, 49
4, 12120, Note_on_c, 0, 60, 49
4, 12143, Note_on_c, 0, 60, 0
4, 12143, Note_on_c, 0, 52, 0
4, 12240, Note_on_c, 0, 52, 49
4, 12240, Note_on_c, 0, 60, 49
4, 12263, Note_on_c, 0, 60, 0
4, 12263, Note_on_c, 0, 52, 0
4, 12360, Note_on_c, 0, 60, 49
4, 12360, Note_on_c, 0, 64, 49
4, 12383, Note_on_c, 0, 64, 0
4, 12383, Note_on_c, 0, 60, 0
4, 12600, Note_on_c, 0, 52, 49
4, 12600, Note_on_c, 0, 60, 49
4, 12623, Note_on_c, 0, 60, 0
4, 12623, Note_on_c, 0, 52, 0
4, 12720, Note_on_c, 0, 52, 49
4, 12720, Note_on_c, 0, 60, 49
4, 12743, Note_on_c, 0, 60, 0
4, 12743, Note_on_c, 0, 52, 0
4, 12840, Note_on_c, 0, 60, 49
4, 12840, Note_on_c, 0, 64, 49
4, 12863, Note_on_c, 0, 64, 0
4, 12863, Note_on_c, 0, 60, 0
4, 13080, Note_on_c, 0, 52, 62
4, 13080, Note_on_c, 0, 60, 62
4, 13103, Note_on_c, 0, 60, 0
4, 13103, Note_on_c, 0, 52, 0
4, 13200, Note_on_c, 0, 52, 62
4, 13200, Note_on_c, 0, 60, 62
4, 13223, Note_on_c, 0, 60, 0
4, 13223, Note_on_c, 0, 52, 0
4, 13320, Note_on_c, 0, 60, 62
4, 13320, Note_on_c, 0, 64, 62
4, 13343, Note_on_c, 0, 64, 0
4, 13343, Note_on_c, 0, 60, 0
4, 13560, Note_on_c, 0, 54, 62
4, 13560, Note_on_c, 0, 60, 62
4, 13583, Note_on_c, 0, 60, 0
4, 13583, Note_on_c, 0, 54, 0
4, 13680, Note_on_c, 0, 54, 62
4, 13680, Note_on_c, 0, 60, 62
4, 13703, Note_on_c, 0, 60, 0
4, 13703, Note_on_c, 0, 54, 0
4, 13800, Note_on_c, 0, 60, 62
4, 13800, Note_on_c, 0, 66, 62
4, 13823, Note_on_c, 0, 66, 0
4, 13823, Note_on_c, 0, 60, 0
4, 14040, Note_on_c, 0, 54, 62
4, 14040, Note_on_c, 0, 60, 62
4, 14063, Note_on_c, 0, 60, 0
4, 14063, Note_on_c, 0, 54, 0
4, 14160, Note_on_c, 0, 54, 62
4, 14160, Note_on_c, 0, 60, 62
4, 14183, Note_on_c, 0, 60, 0
4, 14183, Note_on_c, 0, 54, 0
4, 14280, Note_on_c, 0, 60, 62
4, 14280, Note_on_c, 0, 66, 62
4, 14303, Note_on_c, 0, 66, 0
4, 14303, Note_on_c, 0, 60, 0
4, 14520, Note_on_c, 0, 54, 62
4, 14520, Note_on_c, 0, 60, 62
4, 14543, Note_on_c, 0, 60, 0
4, 14543, Note_on_c, 0, 54, 0
4, 14640, Note_on_c, 0, 54, 62
4, 14640, Note_on_c, 0, 60, 62
4, 14663, Note_on_c, 0, 60, 0
4, 14663, Note_on_c, 0, 54, 0
4, 14760, Note_on_c, 0, 60, 62
4, 14760, Note_on_c, 0, 66, 62
4, 14783, Note_on_c, 0, 66, 0
4, 14783, Note_on_c, 0, 60, 0
4, 15000, Note_on_c, 0, 54, 62
4, 15000, Note_on_c, 0, 60, 62
4, 15023, Note_on_c, 0, 60, 0
4, 15023, Note_on_c, 0, 54, 0
4, 15120, Note_on_c, 0, 54, 62
4, 15120, Note_on_c, 0, 60, 62
4, 15143, Note_on_c, 0, 60, 0
4, 15143, Note_on_c, 0, 54, 0
4, 15240, Note_on_c, 0, 60, 62
4, 15240, Note_on_c, 0, 66, 62
4, 15263, Note_on_c, 0, 66, 0
4, 15263, Note_on_c, 0, 60, 0
4, 15480, Note_on_c, 0, 55, 62
4, 15480, Note_on_c, 0, 62, 62
4, 15503, Note_on_c, 0, 62, 0
4, 15503, Note_on_c, 0, 55, 0
4, 15600, Note_on_c, 0, 55, 62
4, 15600, Note_on_c, 0, 62, 62
4, 15623, Note_on_c, 0, 62, 0
4, 15623, Note_on_c, 0, 55, 0
4, 15720, Note_on_c, 0, 62, 62
4, 15720, Note_on_c, 0, 67, 62
4, 15743, Note_on_c, 0, 67, 0
4, 15743, Note_on_c, 0, 62, 0
4, 15960, Note_on_c, 0, 55, 62
4, 15960, Note_on_c, 0, 62, 62
4, 15983, Note_on_c, 0, 62, 0
4, 15983, Note_on_c, 0, 55, 0
4, 16080, Note_on_c, 0, 55, 62
4, 16080, Note_on_c, 0, 62, 62
4, 16103, Note_on_c, 0, 62, 0
4, 16103, Note_on_c, 0, 55, 0
4, 16200, Note_on_c, 0, 62, 62
4, 16200, Note_on_c, 0, 67, 62
4, 16223, Note_on_c, 0, 67, 0
4, 16223, Note_on_c, 0, 62, 0
4, 16440, Note_on_c, 0, 55, 62
4, 16440, Note_on_c, 0, 62, 62
4, 16463, Note_on_c, 0, 62, 0
4, 16463, Note_on_c, 0, 55, 0
4, 16560, Note_on_c, 0, 55, 62
4, 16560, Note_on_c, 0, 62, 62
4, 16583, Note_on_c, 0, 62, 0
4, 16583, Note_on_c, 0, 55, 0
4, 16680, Note_on_c, 0, 62, 62
4, 16680, Note_on_c, 0, 67, 62
4, 16703, Note_on_c, 0, 67, 0
4, 16703, Note_on_c, 0, 62, 0
4, 16920, Note_on_c, 0, 55, 49
4, 16920, Note_on_c, 0, 62, 49
4, 16943, Note_on_c, 0, 62, 0
4, 16943, Note_on_c, 0, 55, 0
4, 17040, Note_on_c, 0, 55, 49
4, 17040, Note_on_c, 0, 62, 49
4, 17063, Note_on_c, 0, 62, 0
4, 17063, Note_on_c, 0, 55, 0
4, 17160, Note_on_c, 0, 62, 49
4, 17160, Note_on_c, 0, 67, 49
4, 17183, Note_on_c, 0, 67, 0
4, 17183, Note_on_c, 0, 62, 0
4, 17400, Control_c, 0, 64, 127
4, 17400, Note_on_c, 0, 54, 49
4, 17400, Note_on_c, 0, 62, 49
4, 17640, Note_on_c, 0, 62, 0
4, 17640, Note_on_c, 0, 54, 0
4, 17640, Note_on_c, 0, 62, 49
4, 17640, Note_on_c, 0, 66, 49
4, 17760, Note_on_c, 0, 66, 0
4, 17760, Note_on_c, 0, 62, 0
4, 17760, Note_on_c, 0, 42, 49
4, 17880, Note_on_c, 0, 42, 0
4, 17880, Note_on_c, 0, 54, 49
4, 17880, Note_on_c, 0, 62, 49
4, 18120, Note_on_c, 0, 62, 0
4, 18120, Note_on_c, 0, 54, 0
4, 18120, Control_c, 0, 64, 0
4, 18120, Note_on_c, 0, 62, 49
4, 18120, Note_on_c, 0, 66, 49
4, 18360, Note_on_c, 0, 66, 0
4, 18360, Note_on_c, 0, 62, 0
4, 18360, Control_c, 0, 64, 127
4, 18360, Note_on_c, 0, 54, 49
4, 18360, Note_on_c, 0, 61, 49
4, 18360, Note_on_c, 0, 64, 49
4, 18600, Note_on_c, 0, 64, 0
4, 18600, Note_on_c, 0, 61, 0
4, 18600, Note_on_c, 0, 54, 0
4, 18600, Note_on_c, 0, 61, 49
4, 18600, Note_on_c, 0, 64, 49
4, 18600, Note_on_c, 0, 66, 49
4, 18840, Note_on_c, 0, 66, 0
4, 18840, Note_on_c, 0, 64, 0
4, 18840, Note_on_c, 0, 61, 0
4, 18840, Note_on_c, 0, 54, 49
4, 18840, Note_on_c, 0, 61, 49
4, 18840, Note_on_c, 0, 64, 49
4, 19080, Note_on_c, 0, 64, 0
4, 19080, Note_on_c, 0, 61, 0
4, 19080, Note_on_c, 0, 54, 0
4, 19080, Control_c, 0, 64, 0
4, 19080, Note_on_c, 0, 61, 49
4, 19080, Note_on_c, 0, 64, 49
4, 19080, Note_on_c, 0, 66, 49
4, 19320, Note_on_c, 0, 66, 0
4, 19320, Note_on_c, 0, 64, 0
4, 19320, Note_on_c, 0, 61, 0
4, 19320, Control_c, 0, 64, 127
4, 19320, Note_on_c, 0, 54, 49
4, 19320, Note_on_c, 0, 59, 49
4, 19320, Note_on_c, 0, 62, 49
4, 19560, Note_on_c, 0, 62, 0
4, 19560, Note_on_c, 0, 59, 0
4, 19560, Note_on_c, 0, 54, 0
4, 19560, Note_on_c, 0, 59, 49
4, 19560, Note_on_c, 0, 62, 49
4, 19560, Note_on_c, 0, 66, 49
4, 19800, Note_on_c, 0, 66, 0
4, 19800, Note_on_c, 0, 62, 0
4, 19800, Note_on_c, 0, 59, 0
4, 19800, Note_on_c, 0, 54, 49
4, 19800, Note_on_c, 0, 59, 49
4, 19800, Note_on_c, 0, 62, 49
4, 20040, Note_on_c, 0, 62, 0
4, 20040, Note_on_c, 0, 59, 0
4, 20040, Note_on_c, 0, 54, 0
4, 20040, Control_c, 0, 64, 0
4, 20040, Note_on_c, 0, 58, 75
4, 20040, Note_on_c, 0, 64, 75
4, 20040, Note_on_c, 0, 66, 75
4, 20280, Note_on_c, 0, 66, 0
4, 20280, Note_on_c, 0, 64, 0
4, 20280, Note_on_c, 0, 58, 0
4, 20280, Note_on_c, 0, 54, 75
4, 20280, Note_on_c, 0, 58, 75
4, 20280, Note_on_c, 0, 64, 75
4, 20520, Note_on_c, 0, 58, 0
4, 20520, Note_on_c, 0, 54, 0
4, 20520, Note_on_c, 0, 58, 75
4, 20520, Note_on_c, 0, 66, 75
4, 20640, Note_on_c, 0, 66, 0
4, 20640, Note_on_c, 0, 58, 0
4, 20640, Note_on_c, 0, 64, 0
4, 20640, Note_on_c, 0, 43, 49
4, 20760, Note_on_c, 0, 43, 0
4, 20760, Note_on_c, 0, 55, 49
4, 20760, Note_on_c, 0, 62, 49
4, 20760, Note_on_c, 0, 65, 49
4, 21000, Note_on_c, 0, 62, 0
4, 21000, Note_on_c, 0, 55, 0
4, 21000, Note_on_c, 0, 62, 49
4, 21000, Note_on_c, 0, 67, 49
4, 21120, Note_on_c, 0, 67, 0
4, 21120, Note_on_c, 0, 62, 0
4, 21120, Note_on_c, 0, 65, 0
4, 21240, Control_c, 0, 64, 127
4, 21240, Note_on_c, 0, 54, 49
4, 21240, Note_on_c, 0, 62, 49
4, 21480, Note_on_c, 0, 62, 0
4, 21480, Note_on_c, 0, 54, 0
4, 21480, Note_on_c, 0, 62, 49
4, 21480, Note_on_c, 0, 66, 49
4, 21600, Note_on_c, 0, 66, 0
4, 21600, Note_on_c, 0, 62, 0
4, 21600, Note_on_c, 0, 42, 49
4, 21720, Note_on_c, 0, 42, 0
4, 21720, Note_on_c, 0, 54, 49
4, 21720, Note_on_c, 0, 62, 49
4, 21960, Note_on_c, 0, 62, 0
4, 21960, Note_on_c, 0, 54, 0
4, 21960, Control_c, 0, 64, 0
4, 21960, Note_on_c, 0, 62, 62
4, 21960, Note_on_c, 0, 66, 62
4, 22200, Note_on_c, 0, 66, 0
4, 22200, Note_on_c, 0, 62, 0
4, 22200, Control_c, 0, 64, 127
4, 22200, Note_on_c, 0, 54, 62
4, 22200, Note_on_c, 0, 61, 62
4, 22200, Note_on_c, 0, 64, 62
4, 22440, Note_on_c, 0, 64, 0
4, 22440, Note_on_c, 0, 61, 0
4, 22440, Note_on_c, 0, 54, 0
4, 22440, Note_on_c, 0, 61, 62
4, 22440, Note_on_c, 0, 64, 62
4, 22440, Note_on_c, 0, 66, 62
4, 22680, Note_on_c, 0, 66, 0
4, 22680, Note_on_c, 0, 64, 0
4, 22680, Note_on_c, 0, 61, 0
4, 22680, Note_on_c, 0, 54, 62
4, 22680, Note_on_c, 0, 61, 62
4, 22680, Note_on_c, 0, 64, 62
4, 22920, Note_on_c, 0, 64, 0
4, 22920, Note_on_c, 0, 61, 0
4, 22920, Note_on_c, 0, 54, 0
4, 22920, Control_c, 0, 64, 0
4, 22920, Note_on_c, 0, 61, 62
4, 22920, Note_on_c, 0, 64, 62
4, 22920, Note_on_c, 0, 66, 62
4, 23160, Note_on_c, 0, 66, 0
4, 23160, Note_on_c, 0, 64, 0
4, 23160, Note_on_c, 0, 61, 0
4, 23160, Control_c, 0, 64, 127
4, 23160, Note_on_c, 0, 54, 62
4, 23160, Note_on_c, 0, 59, 62
4, 23160, Note_on_c, 0, 62, 62
4, 23400, Note_on_c, 0, 62, 0
4, 23400, Note_on_c, 0, 59, 0
4, 23400, Note_on_c, 0, 54, 0
4, 23400, Note_on_c, 0, 59, 62
4, 23400, Note_on_c, 0, 62, 62
4, 23400, Note_on_c, 0, 66, 62
4, 23640, Note_on_c, 0, 66, 0
4, 23640, Note_on_c, 0, 62, 0
4, 23640, Note_on_c, 0, 59, 0
4, 23640, Note_on_c, 0, 54, 62
4, 23640, Note_on_c, 0, 59, 62
4, 23640, Note_on_c, 0, 62, 62
4, 23880, Note_on_c, 0, 62, 0
4, 23880, Note_on_c, 0, 59, 0
4, 23880, Note_on_c, 0, 54, 0
4, 23880, Control_c, 0, 64, 0
4, 23880, Note_on_c, 0, 58, 75
4, 23880, Note_on_c, 0, 64, 75
4, 23880, Note_on_c, 0, 66, 75
4, 24120, Note_on_c, 0, 66, 0
4, 24120, Note_on_c, 0, 64, 0
4, 24120, Note_on_c, 0, 58, 0
4, 24120, Note_on_c, 0, 54, 75
4, 24120, Note_on_c, 0, 58, 75
4, 24120, Note_on_c, 0, 64, 75
4, 24360, Note_on_c, 0, 58, 0
4, 24360, Note_on_c, 0, 54, 0
4, 24360, Note_on_c, 0, 58, 75
4, 24360, Note_on_c, 0, 66, 75
4, 24480, Note_on_c, 0, 66, 0
4, 24480, Note_on_c, 0, 58, 0
4, 24480, Note_on_c, 0, 64, 0
4, 24480, Note_on_c, 0, 46, 49
4, 24600, Note_on_c, 0, 46, 0
4, 24600, Note_on_c, 0, 58, 49
4, 24600, Note_on_c, 0, 65, 49
4, 24600, Note_on_c, 0, 68, 49
4, 24840, Note_on_c, 0, 65, 0
4, 24840, Note_on_c, 0, 58, 0
4, 24840, Note_on_c, 0, 65, 49
4, 24840, Note_on_c, 0, 70, 49
4, 24960, Note_on_c, 0, 70, 0
4, 24960, Note_on_c, 0, 65, 0
4, 24960, Note_on_c, 0, 68, 0
4, 25080, Control_c, 0, 64, 127
4, 25080, Note_on_c, 0, 57, 49
4, 25080, Note_on_c, 0, 66, 49
4, 25320, Note_on_c, 0, 66, 0
4, 25320, Note_on_c, 0, 57, 0
4, 25320, Note_on_c, 0, 66, 49
4, 25320, Note_on_c, 0, 69, 49
4, 25440, Note_on_c, 0, 69, 0
4, 25440, Note_on_c, 0, 66, 0
4, 25440, Note_on_c, 0, 45, 49
4, 25560, Note_on_c, 0, 45, 0
4, 25560, Note_on_c, 0, 57, 49
4, 25560, Note_on_c, 0, 66, 49
4, 25800, Note_on_c, 0, 66, 0
4, 25800, Note_on_c, 0, 57, 0
4, 25800, Control_c, 0, 64, 0
4, 25800, Note_on_c, 0, 66, 49
4, 25800, Note_on_c, 0, 69, 49
4, 26040, Note_on_c, 0, 69, 0
4, 26040, Note_on_c, 0, 66, 0
4, 26040, Control_c, 0, 64, 127
4, 26040, Note_on_c, 0, 57, 62
4, 26040, Note_on_c, 0, 64, 62
4, 26040, Note_on_c, 0, 67, 62
4, 26280, Note_on_c, 0, 67, 0
4, 26280, Note_on_c, 0, 64, 0
4, 26280, Note_on_c, 0, 57, 0
4, 26280, Note_on_c, 0, 64, 62
4, 26280, Note_on_c, 0, 67, 62
4, 26280, Note_on_c, 0, 69, 62
4, 26520, Note_on_c, 0, 69, 0
4, 26520, Note_on_c, 0, 67, 0
4, 26520, Note_on_c, 0, 64, 0
4, 26520, Note_on_c, 0, 57, 62
4, 26520, Note_on_c, 0, 64, 62
4, 26520, Note_on_c, 0, 67, 62
4, 26760, Note_on_c, 0, 67, 0
4, 26760, Note_on_c, 0, 64, 0
4, 26760, Note_on_c, 0, 57, 0
4, 26760, Control_c, 0, 64, 0
4, 26760, Note_on_c, 0, 64, 62
4, 26760, Note_on_c, 0, 67, 62
4, 26760, Note_on_c, 0, 69, 62
4, 27000, Note_on_c, 0, 69, 0
4, 27000, Note_on_c, 0, 67, 0
4, 27000, Note_on_c, 0, 64, 0
4, 27000, Control_c, 0, 64, 127
4, 27000, Note_on_c, 0, 57, 62
4, 27000, Note_on_c, 0, 62, 62
4, 27000, Note_on_c, 0, 66, 62
4, 27240, Note_on_c, 0, 66, 0
4, 27240, Note_on_c, 0, 62, 0
4, 27240, Note_on_c, 0, 57, 0
4, 27240, Note_on_c, 0, 62, 62
4, 27240, Note_on_c, 0, 66, 62
4, 27240, Note_on_c, 0, 69, 62
4, 27480, Note_on_c, 0, 69, 0
4, 27480, Note_on_c, 0, 66, 0
4, 27480, Note_on_c, 0, 62, 0
4, 27480, Note_on_c, 0, 57, 62
4, 27480, Note_on_c, 0, 62, 62
4, 27480, Note_on_c, 0, 66, 62
4, 27720, Note_on_c, 0, 66, 0
4, 27720, Note_on_c, 0, 62, 0
4, 27720, Note_on_c, 0, 57, 0
4, 27720, Control_c, 0, 64, 0
4, 27720, Note_on_c, 0, 61, 75
4, 27720, Note_on_c, 0, 67, 75
4, 27720, Note_on_c, 0, 69, 75
4, 27960, Note_on_c, 0, 69, 0
4, 27960, Note_on_c, 0, 67, 0
4, 27960, Note_on_c, 0, 61, 0
4, 27960, Note_on_c, 0, 57, 75
4, 27960, Note_on_c, 0, 61, 75
4, 27960, Note_on_c, 0, 67, 75
4, 28200, Note_on_c, 0, 67, 0
4, 28200, Note_on_c, 0, 61, 0
4, 28200, Note_on_c, 0, 57, 0
4, 28200, Note_on_c, 0, 61, 75
4, 28200, Note_on_c, 0, 67, 75
4, 28200, Note_on_c, 0, 69, 75
4, 28320, Note_on_c, 0, 69, 0
4, 28320, Note_on_c, 0, 67, 0
4, 28320, Note_on_c, 0, 61, 0
4, 28320, Note_on_c, 0, 46, 49
4, 28440, Note_on_c, 0, 46, 0
4, 28440, Note_on_c, 0, 58, 49
4, 28440, Note_on_c, 0, 65, 49
4, 28440, Note_on_c, 0, 68, 49
4, 28680, Note_on_c, 0, 68, 0
4, 28680, Note_on_c, 0, 65, 0
4, 28680, Note_on_c, 0, 58, 0
4, 28680, Note_on_c, 0, 65, 49
4, 28680, Note_on_c, 0, 68, 49
4, 28680, Note_on_c, 0, 70, 49
4, 28800, Note_on_c, 0, 70, 0
4, 28800, Note_on_c, 0, 68, 0
4, 28800, Note_on_c, 0, 65, 0
4, 28920, Control_c, 0, 64, 127
4, 28920, Note_on_c, 0, 57, 49
4, 28920, Note_on_c, 0, 66, 49
4, 29160, Note_on_c, 0, 66, 0
4, 29160, Note_on_c, 0, 57, 0
4, 29160, Note_on_c, 0, 66, 49
4, 29160, Note_on_c, 0, 69, 49
4, 29280, Note_on_c, 0, 69, 0
4, 29280, Note_on_c, 0, 66, 0
4, 29280, Note_on_c, 0, 45, 49
4, 29400, Note_on_c, 0, 45, 0
4, 29400, Note_on_c, 0, 57, 49
4, 29400, Note_on_c, 0, 66, 49
4, 29640, Note_on_c, 0, 66, 0
4, 29640, Note_on_c, 0, 57, 0
4, 29640, Control_c, 0, 64, 0
4, 29640, Note_on_c, 0, 66, 49
4, 29640, Note_on_c, 0, 69, 49
4, 29880, Note_on_c, 0, 69, 0
4, 29880, Note_on_c, 0, 66, 0
4, 29880, Control_c, 0, 64, 127
4, 29880, Note_on_c, 0, 57, 62
4, 29880, Note_on_c, 0, 64, 62
4, 29880, Note_on_c, 0, 67, 62
4, 30120, Note_on_c, 0, 67, 0
4, 30120, Note_on_c, 0, 64, 0
4, 30120, Note_on_c, 0, 57, 0
4, 30120, Note_on_c, 0, 64, 62
4, 30120, Note_on_c, 0, 67, 62
4, 30120, Note_on_c, 0, 69, 62
4, 30360, Note_on_c, 0, 69, 0
4, 30360, Note_on_c, 0, 67, 0
4, 30360, Note_on_c, 0, 64, 0
4, 30360, Note_on_c, 0, 57, 62
4, 30360, Note_on_c, 0, 64, 62
4, 30360, Note_on_c, 0, 67, 62
4, 30600, Note_on_c, 0, 67, 0
4, 30600, Note_on_c, 0, 64, 0
4, 30600, Note_on_c, 0, 57, 0
4, 30600, Control_c, 0, 64, 0
4, 30600, Note_on_c, 0, 64, 62
4, 30600, Note_on_c, 0, 67, 62
4, 30600, Note_on_c, 0, 69, 62
4, 30720, Note_on_c, 0, 69, 0
4, 30720, Note_on_c, 0, 67, 0
4, 30720, Note_on_c, 0, 64, 0
4, 30840, Control_c, 0, 64, 127
4, 30840, Note_on_c, 0, 57, 62
4, 30840, Note_on_c, 0, 62, 62
4, 30840, Note_on_c, 0, 65, 62
4, 31080, Note_on_c, 0, 65, 0
4, 31080, Note_on_c, 0, 62, 0
4, 31080, Note_on_c, 0, 57, 0
4, 31080, Note_on_c, 0, 62, 62
4, 31080, Note_on_c, 0, 65, 62
4, 31080, Note_on_c, 0, 69, 62
4, 31320, Note_on_c, 0, 69, 0
4, 31320, Note_on_c, 0, 65, 0
4, 31320, Note_on_c, 0, 62, 0
4, 31320, Note_on_c, 0, 57, 62
4, 31320, Note_on_c, 0, 62, 62
4, 31320, Note_on_c, 0, 65, 62
4, 31560, Note_on_c, 0, 65, 0
4, 31560, Note_on_c, 0, 62, 0
4, 31560, Note_on_c, 0, 57, 0
4, 31560, Control_c, 0, 64, 0
4, 31560, Note_on_c, 0, 62, 62
4, 31560, Note_on_c, 0, 65, 62
4, 31560, Note_on_c, 0, 69, 62
4, 31680, Note_on_c, 0, 69, 0
4, 31680, Note_on_c, 0, 65, 0
4, 31680, Note_on_c, 0, 62, 0
4, 31800, Control_c, 0, 64, 127
4, 31800, Note_on_c, 0, 56, 62
4, 31800, Note_on_c, 0, 58, 62
4, 31800, Note_on_c, 0, 65, 62
4, 32040, Note_on_c, 0, 65, 0
4, 32040, Note_on_c, 0, 58, 0
4, 32040, Note_on_c, 0, 56, 0
4, 32040, Note_on_c, 0, 62, 62
4, 32040, Note_on_c, 0, 65, 62
4, 32040, Note_on_c, 0, 70, 62
4, 32280, Note_on_c, 0, 70, 0
4, 32280, Note_on_c, 0, 65, 0
4, 32280, Note_on_c, 0, 62, 0
4, 32280, Note_on_c, 0, 56, 62
4, 32280, Note_on_c, 0, 58, 62
4, 32280, Note_on_c, 0, 65, 62
4, 32520, Note_on_c, 0, 65, 0
4, 32520, Note_on_c, 0, 58, 0
4, 32520, Note_on_c, 0, 56, 0
4, 32520, Control_c, 0, 64, 0
4, 32520, Note_on_c, 0, 62, 62
4, 32520, Note_on_c, 0, 65, 62
4, 32520, Note_on_c, 0, 70, 62
4, 32640, Note_on_c, 0, 70, 0
4, 32640, Note_on_c, 0, 65, 0
4, 32640, Note_on_c, 0, 62, 0
4, 32760, Control_c, 0, 64, 127
4, 32760, Note_on_c, 0, 55, 62
4, 32760, Note_on_c, 0, 59, 62
4, 32760, Note_on_c, 0, 62, 62
4, 33000, Note_on_c, 0, 62, 0
4, 33000, Note_on_c, 0, 59, 0
4, 33000, Note_on_c, 0, 55, 0
4, 33000, Note_on_c, 0, 62, 62
4, 33000, Note_on_c, 0, 65, 62
4, 33000, Note_on_c, 0, 71, 62
4, 33240, Note_on_c, 0, 71, 0
4, 33240, Note_on_c, 0, 65, 0
4, 33240, Note_on_c, 0, 62, 0
4, 33240, Note_on_c, 0, 55, 88
4, 33240, Note_on_c, 0, 59, 88
4, 33240, Note_on_c, 0, 62, 88
4, 33480, Note_on_c, 0, 62, 0
4, 33480, Note_on_c, 0, 59, 0
4, 33480, Note_on_c, 0, 55, 0
4, 33480, Control_c, 0, 64, 0
4, 33480, Note_on_c, 0, 62, 88
4, 33480, Note_on_c, 0, 65, 88
4, 33480, Note_on_c, 0, 71, 88
4, 33720, Note_on_c, 0, 71, 0
4, 33720, Note_on_c, 0, 65, 0
4, 33720, Note_on_c, 0, 62, 0
4, 33720, Note_on_c, 0, 55, 88
4, 33720, Note_on_c, 0, 59, 88
4, 33720, Note_on_c, 0, 62, 88
4, 33960, Note_on_c, 0, 62, 0
4, 33960, Note_on_c, 0, 59, 0
4, 33960, Note_on_c, 0, 55, 0
4, 33960, Note_on_c, 0, 62, 88
4, 33960, Note_on_c, 0, 65, 88
4, 33960, Note_on_c, 0, 71, 88
4, 34080, Note_on_c, 0, 71, 0
4, 34080, Note_on_c, 0, 65, 0
4, 34080, Note_on_c, 0, 62, 0
4, 34680, Note_on_c, 0, 52, 62
4, 34680, Note_on_c, 0, 60, 62
4, 34703, Note_on_c, 0, 60, 0
4, 34703, Note_on_c, 0, 52, 0
4, 34800, Note_on_c, 0, 52, 62
4, 34800, Note_on_c, 0, 60, 62
4, 34823, Note_on_c, 0, 60, 0
4, 34823, Note_on_c, 0, 52, 0
4, 34920, Note_on_c, 0, 60, 62
4, 34920, Note_on_c, 0, 64, 62
4, 34943, Note_on_c, 0, 64, 0
4, 34943, Note_on_c, 0, 60, 0
4, 35160, Note_on_c, 0, 52, 62
4, 35160, Note_on_c, 0, 60, 62
4, 35183, Note_on_c, 0, 60, 0
4, 35183, Note_on_c, 0, 52, 0
4, 35280, Note_on_c, 0, 52, 62
4, 35280, Note_on_c, 0, 60, 62
4, 35303, Note_on_c, 0, 60, 0
4, 35303, Note_on_c, 0, 52, 0
4, 35400, Note_on_c, 0, 60, 62
4, 35400, Note_on_c, 0, 64, 62
4, 35423, Note_on_c, 0, 64, 0
4, 35423, Note_on_c, 0, 60, 0
4, 35640, Note_on_c, 0, 52, 62
4, 35640, Note_on_c, 0, 60, 62
4, 35663, Note_on_c, 0, 60, 0
4, 35663, Note_on_c, 0, 52, 0
4, 35760, Note_on_c, 0, 52, 62
4, 35760, Note_on_c, 0, 60, 62
4, 35783, Note_on_c, 0, 60, 0
4, 35783, Note_on_c, 0, 52, 0
4, 35880, Note_on_c, 0, 60, 62
4, 35880, Note_on_c, 0, 64, 62
4, 35903, Note_on_c, 0, 64, 0
4, 35903, Note_on_c, 0, 60, 0
4, 36120, Note_on_c, 0, 52, 62
4, 36120, Note_on_c, 0, 60, 62
4, 36143, Note_on_c, 0, 60, 0
4, 36143, Note_on_c, 0, 52, 0
4, 36240, Note_on_c, 0, 52, 62
4, 36240, Note_on_c, 0, 60, 62
4, 36263, Note_on_c, 0, 60, 0
4, 36263, Note_on_c, 0, 52, 0
4, 36360, Note_on_c, 0, 60, 62
4, 36360, Note_on_c, 0, 64, 62
4, 36383, Note_on_c, 0, 64, 0
4, 36383, Note_on_c, 0, 60, 0
4, 36600, Note_on_c, 0, 52, 62
4, 36600, Note_on_c, 0, 60, 62
4, 36623, Note_on_c, 0, 60, 0
4, 36623, Note_on_c, 0, 52, 0
4, 36720, Note_on_c, 0, 52, 62
4, 36720, Note_on_c, 0, 60, 62
4, 36743, Note_on_c, 0, 60, 0
4, 36743, Note_on_c, 0, 52, 0
4, 36840, Note_on_c, 0, 60, 62
4, 36840, Note_on_c, 0, 64, 62
4, 36863, Note_on_c, 0, 64, 0
4, 36863, Note_on_c, 0, 60, 0
4, 37080, Note_on_c, 0, 52, 62
4, 37080, Note_on_c, 0, 60, 62
4, 37103, Note_on_c, 0, 60, 0
4, 37103, Note_on_c, 0, 52, 0
4, 37200, Note_on_c, 0, 52, 62
4, 37200, Note_on_c, 0, 60, 62
4, 37223, Note_on_c, 0, 60, 0
4, 37223, Note_on_c, 0, 52, 0
4, 37320, Note_on_c, 0, 60, 62
4, 37320, Note_on_c, 0, 64, 62
4, 37343, Note_on_c, 0, 64, 0
4, 37343, Note_on_c, 0, 60, 0
4, 37560, Note_on_c, 0, 52, 62
4, 37560, Note_on_c, 0, 60, 62
4, 37583, Note_on_c, 0, 60, 0
4, 37583, Note_on_c, 0, 52, 0
4, 37680, Note_on_c, 0, 52, 62
4, 37680, Note_on_c, 0, 60, 62
4, 37703, Note_on_c, 0, 60, 0
4, 37703, Note_on_c, 0, 52, 0
4, 37800, Note_on_c, 0, 60, 62
4, 37800, Note_on_c, 0, 64, 62
4, 37823, Note_on_c, 0, 64, 0
4, 37823, Note_on_c, 0, 60, 0
4, 38040, Note_on_c, 0, 52, 62
4, 38040, Note_on_c, 0, 60, 62
4, 38063, Note_on_c, 0, 60, 0
4, 38063, Note_on_c, 0, 52, 0
4, 38160, Note_on_c, 0, 52, 62
4, 38160, Note_on_c, 0, 60, 62
4, 38183, Note_on_c, 0, 60, 0
4, 38183, Note_on_c, 0, 52, 0
4, 38280, Note_on_c, 0, 60, 62
4, 38280, Note_on_c, 0, 64, 62
4, 38303, Note_on_c, 0, 64, 0
4, 38303, Note_on_c, 0, 60, 0
4, 38520, Note_on_c, 0, 53, 62
4, 38520, Note_on_c, 0, 55, 62
4, 38543, Note_on_c, 0, 55, 0
4, 38543, Note_on_c, 0, 53, 0
4, 38640, Note_on_c, 0, 53, 62
4, 38640, Note_on_c, 0, 55, 62
4, 38663, Note_on_c, 0, 55, 0
4, 38663, Note_on_c, 0, 53, 0
4, 38760, Note_on_c, 0, 55, 62
4, 38760, Note_on_c, 0, 65, 62
4, 38783, Note_on_c, 0, 65, 0
4, 38783, Note_on_c, 0, 55, 0
4, 39000, Note_on_c, 0, 53, 62
4, 39000, Note_on_c, 0, 55, 62
4, 39023, Note_on_c, 0, 55, 0
4, 39023, Note_on_c, 0, 53, 0
4, 39120, Note_on_c, 0, 53, 62
4, 39120, Note_on_c, 0, 55, 62
4, 39143, Note_on_c, 0, 55, 0
4, 39143, Note_on_c, 0, 53, 0
4, 39240, Note_on_c, 0, 55, 62
4, 39240, Note_on_c, 0, 65, 62
4, 39263, Note_on_c, 0, 65, 0
4, 39263, Note_on_c, 0, 55, 0
4, 39480, Note_on_c, 0, 53, 62
4, 39480, Note_on_c, 0, 55, 62
4, 39503, Note_on_c, 0, 55, 0
4, 39503, Note_on_c, 0, 53, 0
4, 39600, Note_on_c, 0, 53, 62
4, 39600, Note_on_c, 0, 55, 62
4, 39623, Note_on_c, 0, 55, 0
4, 39623, Note_on_c, 0, 53, 0
4, 39720, Note_on_c, 0, 55, 62
4, 39720, Note_on_c, 0, 65, 62
4, 39743, Note_on_c, 0, 65, 0
4, 39743, Note_on_c, 0, 55, 0
4, 39960, Note_on_c, 0, 53, 62
4, 39960, Note_on_c, 0, 55, 62
4, 39983, Note_on_c, 0, 55, 0
4, 39983, Note_on_c, 0, 53, 0
4, 40080, Note_on_c, 0, 53, 62
4, 40080, Note_on_c, 0, 55, 62
4, 40103, Note_on_c, 0, 55, 0
4, 40103, Note_on_c, 0, 53, 0
4, 40200, Note_on_c, 0, 55, 62
4, 40200, Note_on_c, 0, 65, 62
4, 40223, Note_on_c, 0, 65, 0
4, 40223, Note_on_c, 0, 55, 0
4, 40440, Note_on_c, 0, 52, 62
4, 40440, Note_on_c, 0, 60, 62
4, 40463, Note_on_c, 0, 60, 0
4, 40463, Note_on_c, 0, 52, 0
4, 40560, Note_on_c, 0, 52, 62
4, 40560, Note_on_c, 0, 60, 62
4, 40583, Note_on_c, 0, 60, 0
4, 40583, Note_on_c, 0, 52, 0
4, 40680, Note_on_c, 0, 60, 62
4, 40680, Note_on_c, 0, 64, 62
4, 40703, Note_on_c, 0, 64, 0
4, 40703, Note_on_c, 0, 60, 0
4, 40920, Note_on_c, 0, 52, 62
4, 40920, Note_on_c, 0, 60, 62
4, 40943, Note_on_c, 0, 60, 0
4, 40943, Note_on_c, 0, 52, 0
4, 41040, Note_on_c, 0, 52, 62
4, 41040, Note_on_c, 0, 60, 62
4, 41063, Note_on_c, 0, 60, 0
4, 41063, Note_on_c, 0, 52, 0
4, 41160, Note_on_c, 0, 60, 62
4, 41160, Note_on_c, 0, 64, 62
4, 41183, Note_on_c, 0, 64, 0
4, 41183, Note_on_c, 0, 60, 0
4, 41400, Note_on_c, 0, 52, 62
4, 41400, Note_on_c, 0, 60, 62
4, 41423, Note_on_c, 0, 60, 0
4, 41423, Note_on_c, 0, 52, 0
4, 41520, Note_on_c, 0, 52, 62
4, 41520, Note_on_c, 0, 60, 62
4, 41543, Note_on_c, 0, 60, 0
4, 41543, Note_on_c, 0, 52, 0
4, 41640, Note_on_c, 0, 60, 62
4, 41640, Note_on_c, 0, 64, 62
4, 41663, Note_on_c, 0, 64, 0
4, 41663, Note_on_c, 0, 60, 0
4, 41880, Note_on_c, 0, 52, 62
4, 41880, Note_on_c, 0, 60, 62
4, 41903, Note_on_c, 0, 60, 0
4, 41903, Note_on_c, 0, 52, 0
4, 42000, Note_on_c, 0, 52, 62
4, 42000, Note_on_c, 0, 60, 62
4, 42023, Note_on_c, 0, 60, 0
4, 42023, Note_on_c, 0, 52, 0
4, 42120, Note_on_c, 0, 60, 62
4, 42120, Note_on_c, 0, 64, 62
4, 42143, Note_on_c, 0, 64, 0
4, 42143, Note_on_c, 0, 60, 0
4, 42360, Note_on_c, 0, 52, 62
4, 42360, Note_on_c, 0, 60, 62
4, 42383, Note_on_c, 0, 60, 0
4, 42383, Note_on_c, 0, 52, 0
4, 42480, Note_on_c, 0, 52, 62
4, 42480, Note_on_c, 0, 60, 62
4, 42503, Note_on_c, 0, 60, 0
4, 42503, Note_on_c, 0, 52, 0
4, 42600, Note_on_c, 0, 60, 62
4, 42600, Note_on_c, 0, 64, 62
4, 42623, Note_on_c, 0, 64, 0
4, 42623, Note_on_c, 0, 60, 0
4, 42840, Note_on_c, 0, 52, 62
4, 42840, Note_on_c, 0, 60, 62
4, 42863, Note_on_c, 0, 60, 0
4, 42863, Note_on_c, 0, 52, 0
4, 42960, Note_on_c, 0, 52, 62
4, 42960, Note_on_c, 0, 60, 62
4, 42983, Note_on_c, 0, 60, 0
4, 42983, Note_on_c, 0, 52, 0
4, 43080, Note_on_c, 0, 60, 62
4, 43080, Note_on_c, 0, 64, 62
4, 43103, Note_on_c, 0, 64, 0
4, 43103, Note_on_c, 0, 60, 0
4, 43320, Note_on_c, 0, 52, 62
4, 43320, Note_on_c, 0, 60, 62
4, 43343, Note_on_c, 0, 60, 0
4, 43343, Note_on_c, 0, 52, 0
4, 43440, Note_on_c, 0, 52, 62
4, 43440, Note_on_c, 0, 60, 62
4, 43463, Note_on_c, 0, 60, 0
4, 43463, Note_on_c, 0, 52, 0
4, 43560, Note_on_c, 0, 60, 62
4, 43560, Note_on_c, 0, 64, 62
4, 43583, Note_on_c, 0, 64, 0
4, 43583, Note_on_c, 0, 60, 0
4, 43800, Note_on_c, 0, 52, 62
4, 43800, Note_on_c, 0, 60, 62
4, 43823, Note_on_c, 0, 60, 0
4, 43823, Note_on_c, 0, 52, 0
4, 43920, Note_on_c, 0, 52, 62
4, 43920, Note_on_c, 0, 60, 62
4, 43943, Note_on_c, 0, 60, 0
4, 43943, Note_on_c, 0, 52, 0
4, 44040, Note_on_c, 0, 60, 62
4, 44040, Note_on_c, 0, 64, 62
4, 44063, Note_on_c, 0, 64, 0
4, 44063, Note_on_c, 0, 60, 0
4, 44280, Note_on_c, 0, 52, 62
4, 44280, Note_on_c, 0, 60, 62
4, 44303, Note_on_c, 0, 60, 0
4, 44303, Note_on_c, 0, 52, 0
4, 44400, Note_on_c, 0, 52, 62
4, 44400, Note_on_c, 0, 60, 62
4, 44423, Note_on_c, 0, 60, 0
4, 44423, Note_on_c, 0, 52, 0
4, 44520, Note_on_c, 0, 60, 62
4, 44520, Note_on_c, 0, 64, 62
4, 44543, Note_on_c, 0, 64, 0
4, 44543, Note_on_c, 0, 60, 0
4, 44760, Note_on_c, 0, 52, 62
4, 44760, Note_on_c, 0, 60, 62
4, 44783, Note_on_c, 0, 60, 0
4, 44783, Note_on_c, 0, 52, 0
4, 44880, Note_on_c, 0, 52, 62
4, 44880, Note_on_c, 0, 60, 62
4, 44903, Note_on_c, 0, 60, 0
4, 44903, Note_on_c, 0, 52, 0
4, 45000, Note_on_c, 0, 60, 62
4, 45000, Note_on_c, 0, 64, 62
4, 45023, Note_on_c, 0, 64, 0
4, 45023, Note_on_c, 0, 60, 0
4, 45240, Note_on_c, 0, 52, 62
4, 45240, Note_on_c, 0, 60, 62
4, 45263, Note_on_c, 0, 60, 0
4, 45263, Note_on_c, 0, 52, 0
4, 45360, Note_on_c, 0, 52, 62
4, 45360, Note_on_c, 0, 60, 62
4, 45383, Note_on_c, 0, 60, 0
4, 45383, Note_on_c, 0, 52, 0
4, 45480, Note_on_c, 0, 60, 62
4, 45480, Note_on_c, 0, 64, 62
4, 45503, Note_on_c, 0, 64, 0
4, 45503, Note_on_c, 0, 60, 0
4, 45720, Note_on_c, 0, 58, 75
4, 45720, Note_on_c, 0, 60, 75
4, 45720, Note_on_c, 0, 64, 75
4, 45743, Note_on_c, 0, 64, 0
4, 45743, Note_on_c, 0, 60, 0
4, 45743, Note_on_c, 0, 58, 0
4, 45840, Note_on_c, 0, 58, 75
4, 45840, Note_on_c, 0, 60, 75
4, 45840, Note_on_c, 0, 64, 75
4, 45863, Note_on_c, 0, 64, 0
4, 45863, Note_on_c, 0, 60, 0
4, 45863, Note_on_c, 0, 58, 0
4, 45960, Note_on_c, 0, 58, 75
4, 45960, Note_on_c, 0, 60, 75
4, 45960, Note_on_c, 0, 64, 75
4, 45983, Note_on_c, 0, 64, 0
4, 45983, Note_on_c, 0, 60, 0
4, 45983, Note_on_c, 0, 58, 0
4, 46080, Note_on_c, 0, 57, 75
4, 46080, Note_on_c, 0, 60, 75
4, 46080, Note_on_c, 0, 65, 75
4, 46103, Note_on_c, 0, 65, 0
4, 46103, Note_on_c, 0, 60, 0
4, 46103, Note_on_c, 0, 57, 0
4, 46200, Note_on_c, 0, 57, 75
4, 46200, Note_on_c, 0, 60, 75
4, 46200, Note_on_c, 0, 65, 75
4, 46223, Note_on_c, 0, 65, 0
4, 46223, Note_on_c, 0, 60, 0
4, 46223, Note_on_c, 0, 57, 0
4, 46320, Note_on_c, 0, 57, 75
4, 46320, Note_on_c, 0, 60, 75
4, 46320, Note_on_c, 0, 65, 75
4, 46343, Note_on_c, 0, 65, 0
4, 46343, Note_on_c, 0, 60, 0
4, 46343, Note_on_c, 0, 57, 0
4, 46440, Note_on_c, 0, 57, 75
4, 46440, Note_on_c, 0, 60, 75
4, 46440, Note_on_c, 0, 65, 75
4, 46463, Note_on_c, 0, 65, 0
4, 46463, Note_on_c, 0, 60, 0
4, 46463, Note_on_c, 0, 57, 0
4, 46560, Control_c, 0, 64, 127
4, 46560, Note_on_c, 0, 69, 75
4, 46680, Note_on_c, 0, 69, 0
4, 46680, Note_on_c, 0, 65, 75
4, 46740, Note_on_c, 0, 65, 0
4, 46740, Note_on_c, 0, 60, 75
4, 46800, Note_on_c, 0, 60, 0
4, 46800, Control_c, 0, 64, 0
4, 46800, Note_on_c, 0, 57, 75
4, 46920, Note_on_c, 0, 57, 0
4, 46920, Note_on_c, 0, 57, 75
4, 46920, Note_on_c, 0, 60, 75
4, 46920, Note_on_c, 0, 65, 75
4, 46943, Note_on_c, 0, 65, 0
4, 46943, Note_on_c, 0, 60, 0
4, 46943, Note_on_c, 0, 57, 0
4, 47040, Note_on_c, 0, 56, 75
4, 47040, Note_on_c, 0, 63, 75
4, 47040, Note_on_c, 0, 66, 75
4, 47063, Note_on_c, 0, 66, 0
4, 47063, Note_on_c, 0, 63, 0
4, 47063, Note_on_c, 0, 56, 0
4, 47160, Note_on_c, 0, 56, 75
4, 47160, Note_on_c, 0, 63, 75
4, 47160, Note_on_c, 0, 66, 75
4, 47183, Note_on_c, 0, 66, 0
4, 47183, Note_on_c, 0, 63, 0
4, 47183, Note_on_c, 0, 56, 0
4, 47280, Note_on_c, 0, 56, 75
4, 47280, Note_on_c, 0, 63, 75
4, 47280, Note_on_c, 0, 66, 75
4, 47303, Note_on_c, 0, 66, 0
4, 47303, Note_on_c, 0, 63, 0
4, 47303, Note_on_c, 0, 56, 0
4, 47400, Note_on_c, 0, 56, 75
4, 47400, Note_on_c, 0, 63, 75
4, 47400, Note_on_c, 0, 66, 75
4, 47423, Note_on_c, 0, 66, 0
4, 47423, Note_on_c, 0, 63, 0
4, 47423, Note_on_c, 0, 56, 0
4, 47520, Control_c, 0, 64, 127
4, 47520, Note_on_c, 0, 72, 75
4, 47640, Note_on_c, 0, 72, 0
4, 47640, Note_on_c, 0, 68, 75
4, 47700, Note_on_c, 0, 68, 0
4, 47700, Note_on_c, 0, 66, 75
4, 47760, Note_on_c, 0, 66, 0
4, 47760, Control_c, 0, 64, 0
4, 47760, Note_on_c, 0, 60, 75
4, 47880, Note_on_c, 0, 60, 0
4, 47880, Note_on_c, 0, 56, 75
4, 47880, Note_on_c, 0, 60, 75
4, 47880, Note_on_c, 0, 63, 75
4, 47903, Note_on_c, 0, 63, 0
4, 47903, Note_on_c, 0, 60, 0
4, 47903, Note_on_c, 0, 56, 0
4, 48000, Note_on_c, 0, 55, 75
4, 48000, Note_on_c, 0, 60, 75
4, 48000, Note_on_c, 0, 64, 75
4, 48023, Note_on_c, 0, 64, 0
4, 48023, Note_on_c, 0, 60, 0
4, 48023, Note_on_c, 0, 55, 0
4, 48120, Note_on_c, 0, 55, 75
4, 48120, Note_on_c, 0, 60, 75
4, 48120, Note_on_c, 0, 64, 75
4, 48143, Note_on_c, 0, 64, 0
4, 48143, Note_on_c, 0, 60, 0
4, 48143, Note_on_c, 0, 55, 0
4, 48240, Note_on_c, 0, 55, 75
4, 48240, Note_on_c, 0, 60, 75
4, 48240, Note_on_c, 0, 64, 75
4, 48263, Note_on_c, 0, 64, 0
4, 48263, Note_on_c, 0, 60, 0
4, 48263, Note_on_c, 0, 55, 0
4, 48360, Note_on_c, 0, 55, 75
4, 48360, Note_on_c, 0, 60, 75
4, 48360, Note_on_c, 0, 64, 75
4, 48383, Note_on_c, 0, 64, 0
4, 48383, Note_on_c, 0, 60, 0
4, 48383, Note_on_c, 0, 55, 0
4, 49560, Note_on_c, 0, 55, 88
4, 49560, Note_on_c, 0, 62, 88
4, 49560, Note_on_c, 0, 65, 88
4, 49680, Note_on_c, 0, 65, 0
4, 49680, Note_on_c, 0, 62, 0
4, 49680, Note_on_c, 0, 55, 0
4, 49680, Note_on_c, 0, 55, 88
4, 49680, Note_on_c, 0, 62, 88
4, 49680, Note_on_c, 0, 65, 88
4, 49800, Note_on_c, 0, 65, 0
4, 49800, Note_on_c, 0, 62, 0
4, 49800, Note_on_c, 0, 55, 0
4, 49800, Note_on_c, 0, 55, 88
4, 49800, Note_on_c, 0, 62, 88
4, 49800, Note_on_c, 0, 65, 88
4, 49920, Note_on_c, 0, 65, 0
4, 49920, Note_on_c, 0, 62, 0
4, 49920, Note_on_c, 0, 55, 0
4, 49920, Note_on_c, 0, 60, 88
4, 49920, Note_on_c, 0, 64, 88
4, 49920, Note_on_c, 0, 67, 88
4, 50040, Note_on_c, 0, 67, 0
4, 50040, Note_on_c, 0, 64, 0
4, 50040, Note_on_c, 0, 60, 0
4, 50040, Note_on_c, 0, 60, 88
4, 50040, Note_on_c, 0, 64, 88
4, 50040, Note_on_c, 0, 67, 88
4, 50160, Note_on_c, 0, 67, 0
4, 50160, Note_on_c, 0, 64, 0
4, 50160, Note_on_c, 0, 60, 0
4, 50160, Note_on_c, 0, 60, 88
4, 50160, Note_on_c, 0, 64, 88
4, 50160, Note_on_c, 0, 67, 88
4, 50280, Note_on_c, 0, 67, 0
4, 50280, Note_on_c, 0, 64, 0
4, 50280, Note_on_c, 0, 60, 0
4, 50280, Note_on_c, 0, 60, 88
4, 50280, Note_on_c, 0, 64, 88
4, 50280, Note_on_c, 0, 67, 88
4, 50400, Note_on_c, 0, 67, 0
4, 50400, Note_on_c, 0, 64, 0
4, 50400, Note_on_c, 0, 60, 0
4, 50400, Note_on_c, 0, 56, 88
4, 50400, Note_on_c, 0, 60, 88
4, 50400, Note_on_c, 0, 63, 88
4, 50400, Note_on_c, 0, 66, 88
4, 50520, Note_on_c, 0, 66, 0
4, 50520, Note_on_c, 0, 56, 0
4, 50520, Note_on_c, 0, 60, 0
4, 50520, Note_on_c, 0, 63, 0
4, 50520, Note_on_c, 0, 56, 88
4, 50520, Note_on_c, 0, 60, 88
4, 50520, Note_on_c, 0, 63, 88
4, 50520, Note_on_c, 0, 66, 88
4, 50640, Note_on_c, 0, 66, 0
4, 50640, Note_on_c, 0, 56, 0
4, 50640, Note_on_c, 0, 60, 0
4, 50640, Note_on_c, 0, 63, 0
4, 50640, Note_on_c, 0, 56, 88
4, 50640, Note_on_c, 0, 60, 88
4, 50640, Note_on_c, 0, 63, 88
4, 50640, Note_on_c, 0, 66, 88
4, 50760, Note_on_c, 0, 66, 0
4, 50760, Note_on_c, 0, 56, 0
4, 50760, Note_on_c, 0, 60, 0
4, 50760, Note_on_c, 0, 63, 0
4, 50760, Note_on_c, 0, 56, 88
4, 50760, Note_on_c, 0, 60, 88
4, 50760, Note_on_c, 0, 63, 88
4, 50760, Note_on_c, 0, 66, 88
4, 50880, Note_on_c, 0, 66, 0
4, 50880, Note_on_c, 0, 56, 0
4, 50880, Note_on_c, 0, 60, 0
4, 50880, Note_on_c, 0, 63, 0
4, 50880, Note_on_c, 0, 60, 88
4, 50880, Note_on_c, 0, 64, 88
4, 50880, Note_on_c, 0, 67, 88
4, 51000, Note_on_c, 0, 67, 0
4, 51000, Note_on_c, 0, 64, 0
4, 51000, Note_on_c, 0, 60, 0
4, 51000, Note_on_c, 0, 60, 88
4, 51000, Note_on_c, 0, 64, 88
4, 51000, Note_on_c, 0, 67, 88
4, 51120, Note_on_c, 0, 67, 0
4, 51120, Note_on_c, 0, 64, 0
4, 51120, Note_on_c, 0, 60, 0
4, 51120, Note_on_c, 0, 60, 88
4, 51120, Note_on_c, 0, 64, 88
4, 51120, Note_on_c, 0, 67, 88
4, 51240, Note_on_c, 0, 67, 0
4, 51240, Note_on_c, 0, 64, 0
4, 51240, Note_on_c, 0, 60, 0
4, 51240, Note_on_c, 0, 60, 88
4, 51240, Note_on_c, 0, 64, 88
4, 51240, Note_on_c, 0, 67, 88
4, 51360, Note_on_c, 0, 67, 0
4, 51360, Note_on_c, 0, 64, 0
4, 51360, Note_on_c, 0, 60, 0
4, 51360, Note_on_c, 0, 56, 88
4, 51360, Note_on_c, 0, 60, 88
4, 51360, Note_on_c, 0, 63, 88
4, 51360, Note_on_c, 0, 66, 88
4, 51480, Note_on_c, 0, 66, 0
4, 51480, Note_on_c, 0, 56, 0
4, 51480, Note_on_c, 0, 60, 0
4, 51480, Note_on_c, 0, 63, 0
4, 51480, Note_on_c, 0, 56, 88
4, 51480, Note_on_c, 0, 60, 88
4, 51480, Note_on_c, 0, 63, 88
4, 51480, Note_on_c, 0, 66, 88
4, 51600, Note_on_c, 0, 66, 0
4, 51600, Note_on_c, 0, 56, 0
4, 51600, Note_on_c, 0, 60, 0
4, 51600, Note_on_c, 0, 63, 0
4, 51600, Note_on_c, 0, 56, 88
4, 51600, Note_on_c, 0, 60, 88
4, 51600, Note_on_c, 0, 63, 88
4, 51600, Note_on_c, 0, 66, 88
4, 51720, Note_on_c, 0, 66, 0
4, 51720, Note_on_c, 0, 56, 0
4, 51720, Note_on_c, 0, 60, 0
4, 51720, Note_on_c, 0, 63, 0
4, 51720, Note_on_c, 0, 56, 88
4, 51720, Note_on_c, 0, 60, 88
4, 51720, Note_on_c, 0, 63, 88
4, 51720, Note_on_c, 0, 66, 88
4, 51840, Note_on_c, 0, 66, 0
4, 51840, Note_on_c, 0, 56, 0
4, 51840, Note_on_c, 0, 60, 0
4, 51840, Note_on_c, 0, 63, 0
4, 51840, Note_on_c, 0, 60, 88
4, 51840, Note_on_c, 0, 64, 88
4, 51840, Note_on_c, 0, 67, 88
4, 51960, Note_on_c, 0, 67, 0
4, 51960, Note_on_c, 0, 64, 0
4, 51960, Note_on_c, 0, 60, 0
4, 53040, Note_on_c, 0, 48, 101
4, 53040, Note_on_c, 0, 55, 101
4, 53040, Note_on_c, 0, 64, 101
4, 53280, Note_on_c, 0, 64, 0
4, 53280, Note_on_c, 0, 55, 0
4, 53280, Note_on_c, 0, 48, 0
4, 53280, Note_on_c, 0, 36, 127
4, 53280, Note_on_c, 0, 48, 127
4, 53760, Note_on_c, 0, 48, 0
4, 53760, Note_on_c, 0, 36, 0
4, 53760, End_track
5, 0, Start_track
5, 0, Title_t, "Grand Piano"
5, 0, Program_c, 0, 0
5, 0, Control_c, 0, 7, 115
5, 0, Control_c, 0, 10, 47
5, 0, Note_on_c, 0, 36, 49
5, 0, Note_on_c, 0, 48, 49
5, 240, Note_on_c, 0, 48, 0
5, 240, Note_on_c, 0, 36, 0
5, 480, Note_on_c, 0, 43, 49
5, 480, Note_on_c, 0, 55, 49
5, 720, Note_on_c, 0, 55, 0
5, 720, Note_on_c, 0, 43, 0
5, 960, Note_on_c, 0, 55, 49
5, 960, Note_on_c, 0, 67, 49
5, 1680, Note_on_c, 0, 67, 0
5, 1680, Note_on_c, 0, 55, 0
5, 1920, Note_on_c, 0, 36, 49
5, 1920, Note_on_c, 0, 48, 49
5, 2160, Note_on_c, 0, 48, 0
5, 2160, Note_on_c, 0, 36, 0
5, 2400, Note_on_c, 0, 43, 49
5, 2400, Note_on_c, 0, 55, 49
5, 2640, Note_on_c, 0, 55, 0
5, 2640, Note_on_c, 0, 43, 0
5, 2880, Note_on_c, 0, 55, 49
5, 2880, Note_on_c, 0, 67, 49
5, 3600, Note_on_c, 0, 67, 0
5, 3600, Note_on_c, 0, 55, 0
5, 3840, Note_on_c, 0, 36, 49
5, 3840, Note_on_c, 0, 48, 49
5, 4080, Note_on_c, 0, 48, 0
5, 4080, Note_on_c, 0, 36, 0
5, 4320, Note_on_c, 0, 43, 49
5, 4320, Note_on_c, 0, 55, 49
5, 4560, Note_on_c, 0, 55, 0
5, 4560, Note_on_c, 0, 43, 0
5, 4800, Note_on_c, 0, 55, 49
5, 4800, Note_on_c, 0, 67, 49
5, 5520, Note_on_c, 0, 67, 0
5, 5520, Note_on_c, 0, 55, 0
5, 5760, Note_on_c, 0, 36, 49
5, 5760, Note_on_c, 0, 48, 49
5, 6000, Note_on_c, 0, 48, 0
5, 6000, Note_on_c, 0, 36, 0
5, 6240, Note_on_c, 0, 43, 49
5, 6240, Note_on_c, 0, 55, 49
5, 6480, Note_on_c, 0, 55, 0
5, 6480, Note_on_c, 0, 43, 0
5, 6720, Note_on_c, 0, 55, 49
5, 6720, Note_on_c, 0, 67, 49
5, 7440, Note_on_c, 0, 67, 0
5, 7440, Note_on_c, 0, 55, 0
5, 7680, Note_on_c, 0, 36, 49
5, 7680, Note_on_c, 0, 48, 49
5, 7920, Note_on_c, 0, 48, 0
5, 7920, Note_on_c, 0, 36, 0
5, 8160, Note_on_c, 0, 43, 49
5, 8160, Note_on_c, 0, 55, 49
5, 8400, Note_on_c, 0, 55, 0
5, 8400, Note_on_c, 0, 43, 0
5, 8640, Note_on_c, 0, 55, 49
5, 8640, Note_on_c, 0, 67, 49
5, 9360, Note_on_c, 0, 67, 0
5, 9360, Note_on_c, 0, 55, 0
5, 9600, Note_on_c, 0, 36, 49
5, 9600, Note_on_c, 0, 48, 49
5, 9840, Note_on_c, 0, 48, 0
5, 9840, Note_on_c, 0, 36, 0
5, 10080, Note_on_c, 0, 43, 49
5, 10080, Note_on_c, 0, 55, 49
5, 10320, Note_on_c, 0, 55, 0
5, 10320, Note_on_c, 0, 43, 0
5, 10560, Note_on_c, 0, 55, 49
5, 10560, Note_on_c, 0, 67, 49
5, 11280, Note_on_c, 0, 67, 0
5, 11280, Note_on_c, 0, 55, 0
5, 11520, Note_on_c, 0, 36, 49
5, 11520, Note_on_c, 0, 48, 49
5, 11760, Note_on_c, 0, 48, 0
5, 11760, Note_on_c, 0, 36, 0
5, 12000, Note_on_c, 0, 43, 49
5, 12000, Note_on_c, 0, 55, 49
5, 12240, Note_on_c, 0, 55, 0
5, 12240, Note_on_c, 0, 43, 0
5, 12480, Note_on_c, 0, 48, 62
5, 12720, Note_on_c, 0, 48, 0
5, 13440, Note_on_c, 0, 33, 62
5, 13440, Note_on_c, 0, 45, 62
5, 13680, Note_on_c, 0, 45, 0
5, 13680, Note_on_c, 0, 33, 0
5, 13920, Note_on_c, 0, 38, 62
5, 13920, Note_on_c, 0, 50, 62
5, 14160, Note_on_c, 0, 50, 0
5, 14160, Note_on_c, 0, 38, 0
5, 14400, Note_on_c, 0, 45, 62
5, 14400, Note_on_c, 0, 57, 62
5, 14640, Note_on_c, 0, 57, 0
5, 14640, Note_on_c, 0, 45, 0
5, 14880, Note_on_c, 0, 54, 62
5, 15120, Note_on_c, 0, 54, 0
5, 15360, Note_on_c, 0, 31, 62
5, 15360, Note_on_c, 0, 43, 62
5, 15600, Note_on_c, 0, 43, 0
5, 15600, Note_on_c, 0, 31, 0
5, 15840, Note_on_c, 0, 38, 62
5, 15840, Note_on_c, 0, 50, 62
5, 16080, Note_on_c, 0, 50, 0
5, 16080, Note_on_c, 0, 38, 0
5, 16320, Note_on_c, 0, 43, 62
5, 16320, Note_on_c, 0, 55, 62
5, 16560, Note_on_c, 0, 55, 0
5, 16560, Note_on_c, 0, 43, 0
5, 16800, Note_on_c, 0, 55, 49
5, 17040, Note_on_c, 0, 55, 0
5, 34560, Note_on_c, 0, 48, 62
5, 34800, Note_on_c, 0, 48, 0
5, 35040, Note_on_c, 0, 43, 62
5, 35280, Note_on_c, 0, 43, 0
5, 35520, Note_on_c, 0, 48, 62
5, 35760, Note_on_c, 0, 48, 0
5, 36000, Note_on_c, 0, 43, 62
5, 36240, Note_on_c, 0, 43, 0
5, 36480, Note_on_c, 0, 48, 62
5, 36720, Note_on_c, 0, 48, 0
5, 36960, Note_on_c, 0, 43, 62
5, 37200, Note_on_c, 0, 43, 0
5, 37440, Note_on_c, 0, 48, 62
5, 37680, Note_on_c, 0, 48, 0
5, 37920, Note_on_c, 0, 43, 62
5, 38160, Note_on_c, 0, 43, 0
5, 38400, Note_on_c, 0, 47, 62
5, 38640, Note_on_c, 0, 47, 0
5, 38880, Note_on_c, 0, 43, 62
5, 39120, Note_on_c, 0, 43, 0
5, 39360, Note_on_c, 0, 47, 62
5, 39600, Note_on_c, 0, 47, 0
5, 39840, Note_on_c, 0, 43, 62
5, 40080, Note_on_c, 0, 43, 0
5, 40320, Note_on_c, 0, 48, 62
5, 40560, Note_on_c, 0, 48, 0
5, 40800, Note_on_c, 0, 43, 62
5, 41040, Note_on_c, 0, 43, 0
5, 41280, Note_on_c, 0, 48, 62
5, 41520, Note_on_c, 0, 48, 0
5, 41760, Note_on_c, 0, 43, 62
5, 42000, Note_on_c, 0, 43, 0
5, 42240, Note_on_c, 0, 48, 62
5, 42480, Note_on_c, 0, 48, 0
5, 42720, Note_on_c, 0, 43, 62
5, 42960, Note_on_c, 0, 43, 0
5, 43200, Note_on_c, 0, 48, 62
5, 43440, Note_on_c, 0, 48, 0
5, 43680, Note_on_c, 0, 43, 62
5, 43920, Note_on_c, 0, 43, 0
5, 44160, Note_on_c, 0, 48, 62
5, 44400, Note_on_c, 0, 48, 0
5, 44640, Note_on_c, 0, 43, 62
5, 44880, Note_on_c, 0, 43, 0
5, 45120, Note_on_c, 0, 48, 62
5, 45360, Note_on_c, 0, 48, 0
5, 45360, End_track
0, 0, End_of_file
