0, 0, Header, 1, 5, 480
1, 0, Start_track
1, 0, Title_t, "tchaikovsky sleeping beauty act3 25d coda"
1, 0, Copyright_t, "Adaptation for Disklavier pianos, by: Robert C. Kuhmann (c) 2012."
1, 0, Text_t, "Seq. (c) by: Segundo G. Yogore,  2007\012"
1, 0, Time_signature, 2, 2, 24, 8
1, 0, Key_signature, -1, "major"
1, 0, Tempo, 363636
1, 85440, Time_signature, 8, 2, 24, 8
1, 85440, End_track
2, 0, Start_track
2, 0, Title_t, "Grand Piano"
2, 0, Program_c, 0, 0
2, 0, Control_c, 0, 7, 115
2, 0, Control_c, 0, 10, 86
2, 960, Note_on_c, 0, 72, 91
2, 1007, Note_on_c, 0, 72, 0
2, 1200, Note_on_c, 0, 60, 91
2, 1247, Note_on_c, 0, 60, 0
2, 1920, Note_on_c, 0, 72, 78
2, 1967, Note_on_c, 0, 72, 0
2, 2160, Note_on_c, 0, 60, 78
2, 2207, Note_on_c, 0, 60, 0
2, 2880, Note_on_c, 0, 72, 65
2, 2927, Note_on_c, 0, 72, 0
2, 3120, Note_on_c, 0, 60, 65
2, 3167, Note_on_c, 0, 60, 0
2, 3840, Note_on_c, 0, 72, 52
2, 3887, Note_on_c, 0, 72, 0
2, 4080, Note_on_c, 0, 60, 52
2, 4127, Note_on_c, 0, 60, 0
2, 4320, Note_on_c, 0, 68, 52
2, 4320, Note_on_c, 0, 74, 52
2, 4440, Note_on_c, 0, 74, 0
2, 4440, Note_on_c, 0, 68, 0
2, 4440, Note_on_c, 0, 69, 52
2, 4440, Note_on_c, 0, 72, 52
2, 4560, Note_on_c, 0, 72, 0
2, 4560, Note_on_c, 0, 69, 0
2, 4560, Note_on_c, 0, 68, 52
2, 4560, Note_on_c, 0, 74, 52
2, 4680, Note_on_c, 0, 74, 0
2, 4680, Note_on_c, 0, 68, 0
2, 4680, Note_on_c, 0, 69, 52
2, 4680, Note_on_c, 0, 72, 52
2, 4800, Note_on_c, 0, 72, 0
2, 4800, Note_on_c, 0, 69, 0
2, 4800, Note_on_c, 0, 68, 78
2, 4800, Note_on_c, 0, 76, 78
2, 5040, Note_on_c, 0, 76, 0
2, 5040, Note_on_c, 0, 68, 0
2, 5040, Note_on_c, 0, 69, 52
2, 5040, Note_on_c, 0, 72, 52
2, 5280, Note_on_c, 0, 72, 0
2, 5280, Note_on_c, 0, 69, 0
2, 5280, Note_on_c, 0, 68, 52
2, 5280, Note_on_c, 0, 76, 52
2, 5400, Note_on_c, 0, 76, 0
2, 5400, Note_on_c, 0, 68, 0
2, 5400, Note_on_c, 0, 69, 52
2, 5400, Note_on_c, 0, 72, 52
2, 5520, Note_on_c, 0, 72, 0
2, 5520, Note_on_c, 0, 69, 0
2, 5520, Note_on_c, 0, 68, 52
2, 5520, Note_on_c, 0, 76, 52
2, 5640, Note_on_c, 0, 76, 0
2, 5640, Note_on_c, 0, 68, 0
2, 5640, Note_on_c, 0, 69, 52
2, 5640, Note_on_c, 0, 72, 52
2, 5760, Note_on_c, 0, 72, 0
2, 5760, Note_on_c, 0, 69, 0
2, 5760, Note_on_c, 0, 68, 78
2, 5760, Note_on_c, 0, 77, 78
2, 6000, Note_on_c, 0, 77, 0
2, 6000, Note_on_c, 0, 68, 0
2, 6000, Note_on_c, 0, 69, 52
2, 6000, Note_on_c, 0, 72, 52
2, 6240, Note_on_c, 0, 72, 0
2, 6240, Note_on_c, 0, 69, 0
2, 6240, Note_on_c, 0, 68, 52
2, 6240, Note_on_c, 0, 77, 52
2, 6360, Note_on_c, 0, 77, 0
2, 6360, Note_on_c, 0, 68, 0
2, 6360, Note_on_c, 0, 69, 52
2, 6360, Note_on_c, 0, 72, 52
2, 6480, Note_on_c, 0, 72, 0
2, 6480, Note_on_c, 0, 69, 0
2, 6480, Note_on_c, 0, 68, 52
2, 6480, Note_on_c, 0, 77, 52
2, 6600, Note_on_c, 0, 77, 0
2, 6600, Note_on_c, 0, 68, 0
2, 6600, Note_on_c, 0, 69, 52
2, 6600, Note_on_c, 0, 72, 52
2, 6720, Note_on_c, 0, 72, 0
2, 6720, Note_on_c, 0, 69, 0
2, 6720, Note_on_c, 0, 68, 78
2, 6720, Note_on_c, 0, 76, 78
2, 6960, Note_on_c, 0, 76, 0
2, 6960, Note_on_c, 0, 68, 0
2, 6960, Note_on_c, 0, 69, 52
2, 6960, Note_on_c, 0, 72, 52
2, 7200, Note_on_c, 0, 72, 0
2, 7200, Note_on_c, 0, 69, 0
2, 7200, Note_on_c, 0, 68, 52
2, 7200, Note_on_c, 0, 76, 52
2, 7320, Note_on_c, 0, 76, 0
2, 7320, Note_on_c, 0, 68, 0
2, 7320, Note_on_c, 0, 69, 52
2, 7320, Note_on_c, 0, 72, 52
2, 7440, Note_on_c, 0, 72, 0
2, 7440, Note_on_c, 0, 69, 0
2, 7440, Note_on_c, 0, 68, 52
2, 7440, Note_on_c, 0, 76, 52
2, 7560, Note_on_c, 0, 76, 0
2, 7560, Note_on_c, 0, 68, 0
2, 7560, Note_on_c, 0, 69, 52
2, 7560, Note_on_c, 0, 72, 52
2, 7680, Note_on_c, 0, 72, 0
2, 7680, Note_on_c, 0, 69, 0
2, 7680, Note_on_c, 0, 68, 52
2, 7680, Note_on_c, 0, 74, 52
2, 7920, Note_on_c, 0, 74, 0
2, 7920, Note_on_c, 0, 68, 0
2, 7920, Note_on_c, 0, 69, 52
2, 7920, Note_on_c, 0, 72, 52
2, 8160, Note_on_c, 0, 72, 0
2, 8160, Note_on_c, 0, 69, 0
2, 8160, Note_on_c, 0, 68, 65
2, 8160, Note_on_c, 0, 74, 65
2, 8280, Note_on_c, 0, 74, 0
2, 8280, Note_on_c, 0, 68, 0
2, 8280, Note_on_c, 0, 69, 65
2, 8280, Note_on_c, 0, 72, 65
2, 8400, Note_on_c, 0, 72, 0
2, 8400, Note_on_c, 0, 69, 0
2, 8400, Note_on_c, 0, 68, 65
2, 8400, Note_on_c, 0, 74, 65
2, 8520, Note_on_c, 0, 74, 0
2, 8520, Note_on_c, 0, 68, 0
2, 8520, Note_on_c, 0, 69, 65
2, 8520, Note_on_c, 0, 72, 65
2, 8640, Note_on_c, 0, 72, 0
2, 8640, Note_on_c, 0, 69, 0
2, 8640, Note_on_c, 0, 68, 91
2, 8640, Note_on_c, 0, 76, 91
2, 8880, Note_on_c, 0, 76, 0
2, 8880, Note_on_c, 0, 68, 0
2, 8880, Note_on_c, 0, 69, 65
2, 8880, Note_on_c, 0, 72, 65
2, 9120, Note_on_c, 0, 72, 0
2, 9120, Note_on_c, 0, 69, 0
2, 9120, Note_on_c, 0, 68, 65
2, 9120, Note_on_c, 0, 76, 65
2, 9240, Note_on_c, 0, 76, 0
2, 9240, Note_on_c, 0, 68, 0
2, 9240, Note_on_c, 0, 69, 65
2, 9240, Note_on_c, 0, 72, 65
2, 9360, Note_on_c, 0, 72, 0
2, 9360, Note_on_c, 0, 69, 0
2, 9360, Note_on_c, 0, 68, 65
2, 9360, Note_on_c, 0, 76, 65
2, 9480, Note_on_c, 0, 76, 0
2, 9480, Note_on_c, 0, 68, 0
2, 9480, Note_on_c, 0, 69, 65
2, 9480, Note_on_c, 0, 72, 65
2, 9600, Note_on_c, 0, 72, 0
2, 9600, Note_on_c, 0, 69, 0
2, 9600, Note_on_c, 0, 68, 91
2, 9600, Note_on_c, 0, 77, 91
2, 9840, Note_on_c, 0, 77, 0
2, 9840, Note_on_c, 0, 68, 0
2, 9840, Note_on_c, 0, 69, 65
2, 9840, Note_on_c, 0, 72, 65
2, 10080, Note_on_c, 0, 72, 0
2, 10080, Note_on_c, 0, 69, 0
2, 10080, Note_on_c, 0, 68, 65
2, 10080, Note_on_c, 0, 77, 65
2, 10200, Note_on_c, 0, 77, 0
2, 10200, Note_on_c, 0, 68, 0
2, 10200, Note_on_c, 0, 69, 65
2, 10200, Note_on_c, 0, 72, 65
2, 10320, Note_on_c, 0, 72, 0
2, 10320, Note_on_c, 0, 69, 0
2, 10320, Note_on_c, 0, 68, 65
2, 10320, Note_on_c, 0, 77, 65
2, 10440, Note_on_c, 0, 77, 0
2, 10440, Note_on_c, 0, 68, 0
2, 10440, Note_on_c, 0, 69, 65
2, 10440, Note_on_c, 0, 72, 65
2, 10560, Note_on_c, 0, 72, 0
2, 10560, Note_on_c, 0, 69, 0
2, 10560, Note_on_c, 0, 68, 91
2, 10560, Note_on_c, 0, 76, 91
2, 10800, Note_on_c, 0, 76, 0
2, 10800, Note_on_c, 0, 68, 0
2, 10800, Note_on_c, 0, 69, 65
2, 10800, Note_on_c, 0, 72, 65
2, 11040, Note_on_c, 0, 72, 0
2, 11040, Note_on_c, 0, 69, 0
2, 11040, Note_on_c, 0, 68, 65
2, 11040, Note_on_c, 0, 76, 65
2, 11160, Note_on_c, 0, 76, 0
2, 11160, Note_on_c, 0, 68, 0
2, 11160, Note_on_c, 0, 69, 65
2, 11160, Note_on_c, 0, 72, 65
2, 11280, Note_on_c, 0, 72, 0
2, 11280, Note_on_c, 0, 69, 0
2, 11280, Note_on_c, 0, 68, 65
2, 11280, Note_on_c, 0, 76, 65
2, 11400, Note_on_c, 0, 76, 0
2, 11400, Note_on_c, 0, 68, 0
2, 11400, Note_on_c, 0, 69, 65
2, 11400, Note_on_c, 0, 72, 65
2, 11520, Note_on_c, 0, 72, 0
2, 11520, Note_on_c, 0, 69, 0
2, 11520, Note_on_c, 0, 66, 91
2, 11520, Note_on_c, 0, 74, 91
2, 11760, Note_on_c, 0, 74, 0
2, 11760, Note_on_c, 0, 66, 0
2, 11760, Note_on_c, 0, 67, 65
2, 11760, Note_on_c, 0, 70, 65
2, 12000, Note_on_c, 0, 70, 0
2, 12000, Note_on_c, 0, 67, 0
2, 12000, Control_c, 0, 64, 127
2, 12000, Note_on_c, 0, 67, 65
2, 12120, Note_on_c, 0, 67, 0
2, 12120, Note_on_c, 0, 69, 65
2, 12240, Note_on_c, 0, 69, 0
2, 12240, Note_on_c, 0, 70, 65
2, 12360, Note_on_c, 0, 70, 0
2, 12360, Control_c, 0, 64, 0
2, 12360, Note_on_c, 0, 67, 65
2, 12480, Note_on_c, 0, 67, 0
2, 12480, Control_c, 0, 64, 127
2, 12480, Note_on_c, 0, 69, 65
2, 12600, Note_on_c, 0, 69, 0
2, 12600, Note_on_c, 0, 67, 65
2, 12720, Note_on_c, 0, 67, 0
2, 12720, Note_on_c, 0, 64, 65
2, 12840, Note_on_c, 0, 64, 0
2, 12840, Control_c, 0, 64, 0
2, 12840, Note_on_c, 0, 57, 65
2, 12960, Note_on_c, 0, 57, 0
2, 12960, Control_c, 0, 64, 127
2, 12960, Note_on_c, 0, 76, 65
2, 13080, Note_on_c, 0, 76, 0
2, 13080, Note_on_c, 0, 77, 65
2, 13200, Note_on_c, 0, 77, 0
2, 13200, Note_on_c, 0, 79, 65
2, 13320, Note_on_c, 0, 79, 0
2, 13320, Control_c, 0, 64, 0
2, 13320, Note_on_c, 0, 80, 65
2, 13440, Note_on_c, 0, 80, 0
2, 13440, Control_c, 0, 64, 127
2, 13440, Note_on_c, 0, 81, 65
2, 13560, Note_on_c, 0, 81, 0
2, 13560, Note_on_c, 0, 77, 65
2, 13680, Note_on_c, 0, 77, 0
2, 13680, Note_on_c, 0, 74, 65
2, 13800, Note_on_c, 0, 74, 0
2, 13800, Control_c, 0, 64, 0
2, 13800, Note_on_c, 0, 69, 65
2, 13920, Note_on_c, 0, 69, 0
2, 13920, Control_c, 0, 64, 127
2, 13920, Note_on_c, 0, 65, 65
2, 14040, Note_on_c, 0, 65, 0
2, 14040, Note_on_c, 0, 67, 65
2, 14160, Note_on_c, 0, 67, 0
2, 14160, Note_on_c, 0, 68, 65
2, 14280, Note_on_c, 0, 68, 0
2, 14280, Control_c, 0, 64, 0
2, 14280, Note_on_c, 0, 65, 65
2, 14400, Note_on_c, 0, 65, 0
2, 14400, Control_c, 0, 64, 127
2, 14400, Note_on_c, 0, 67, 65
2, 14520, Note_on_c, 0, 67, 0
2, 14520, Note_on_c, 0, 65, 65
2, 14640, Note_on_c, 0, 65, 0
2, 14640, Note_on_c, 0, 62, 65
2, 14760, Note_on_c, 0, 62, 0
2, 14760, Control_c, 0, 64, 0
2, 14760, Note_on_c, 0, 55, 65
2, 14880, Note_on_c, 0, 55, 0
2, 14880, Control_c, 0, 64, 127
2, 14880, Note_on_c, 0, 74, 65
2, 15000, Note_on_c, 0, 74, 0
2, 15000, Note_on_c, 0, 76, 65
2, 15120, Note_on_c, 0, 76, 0
2, 15120, Note_on_c, 0, 77, 65
2, 15240, Note_on_c, 0, 77, 0
2, 15240, Control_c, 0, 64, 0
2, 15240, Note_on_c, 0, 78, 65
2, 15360, Note_on_c, 0, 78, 0
2, 15360, Control_c, 0, 64, 127
2, 15360, Note_on_c, 0, 79, 65
2, 15480, Note_on_c, 0, 79, 0
2, 15480, Note_on_c, 0, 76, 65
2, 15600, Note_on_c, 0, 76, 0
2, 15600, Note_on_c, 0, 72, 65
2, 15720, Note_on_c, 0, 72, 0
2, 15720, Control_c, 0, 64, 0
2, 15720, Note_on_c, 0, 67, 65
2, 15840, Note_on_c, 0, 67, 0
2, 15840, Control_c, 0, 64, 127
2, 15840, Note_on_c, 0, 66, 65
2, 15960, Note_on_c, 0, 66, 0
2, 15960, Note_on_c, 0, 67, 65
2, 16080, Note_on_c, 0, 67, 0
2, 16080, Note_on_c, 0, 69, 65
2, 16200, Note_on_c, 0, 69, 0
2, 16200, Control_c, 0, 64, 0
2, 16200, Note_on_c, 0, 70, 65
2, 16320, Note_on_c, 0, 70, 0
2, 16320, Control_c, 0, 64, 127
2, 16320, Note_on_c, 0, 72, 65
2, 16440, Note_on_c, 0, 72, 0
2, 16440, Note_on_c, 0, 69, 65
2, 16560, Note_on_c, 0, 69, 0
2, 16560, Note_on_c, 0, 64, 65
2, 16680, Note_on_c, 0, 64, 0
2, 16680, Control_c, 0, 64, 0
2, 16680, Note_on_c, 0, 65, 65
2, 16800, Note_on_c, 0, 65, 0
2, 16800, Control_c, 0, 64, 127
2, 16800, Note_on_c, 0, 75, 65
2, 16920, Note_on_c, 0, 75, 0
2, 16920, Note_on_c, 0, 72, 65
2, 17040, Note_on_c, 0, 72, 0
2, 17040, Note_on_c, 0, 68, 65
2, 17160, Note_on_c, 0, 68, 0
2, 17160, Control_c, 0, 64, 0
2, 17160, Note_on_c, 0, 69, 65
2, 17280, Note_on_c, 0, 69, 0
2, 17280, Control_c, 0, 64, 127
2, 17280, Note_on_c, 0, 76, 65
2, 17400, Note_on_c, 0, 76, 0
2, 17400, Note_on_c, 0, 72, 65
2, 17520, Note_on_c, 0, 72, 0
2, 17520, Note_on_c, 0, 66, 65
2, 17640, Note_on_c, 0, 66, 0
2, 17640, Control_c, 0, 64, 0
2, 17640, Note_on_c, 0, 67, 65
2, 17760, Note_on_c, 0, 67, 0
2, 17760, Control_c, 0, 64, 127
2, 17760, Note_on_c, 0, 78, 65
2, 17880, Note_on_c, 0, 78, 0
2, 17880, Note_on_c, 0, 75, 65
2, 18000, Note_on_c, 0, 75, 0
2, 18000, Note_on_c, 0, 71, 65
2, 18120, Note_on_c, 0, 71, 0
2, 18120, Control_c, 0, 64, 0
2, 18120, Note_on_c, 0, 72, 65
2, 18240, Note_on_c, 0, 72, 0
2, 18240, Control_c, 0, 64, 127
2, 18240, Note_on_c, 0, 79, 91
2, 18360, Note_on_c, 0, 79, 0
2, 18360, Note_on_c, 0, 76, 91
2, 18480, Note_on_c, 0, 76, 0
2, 18480, Note_on_c, 0, 72, 91
2, 18600, Note_on_c, 0, 72, 0
2, 18600, Control_c, 0, 64, 0
2, 18600, Note_on_c, 0, 73, 91
2, 18720, Note_on_c, 0, 73, 0
2, 18720, Control_c, 0, 64, 127
2, 18720, Note_on_c, 0, 74, 91
2, 18840, Note_on_c, 0, 74, 0
2, 18840, Note_on_c, 0, 79, 91
2, 18960, Note_on_c, 0, 79, 0
2, 18960, Note_on_c, 0, 81, 91
2, 19080, Note_on_c, 0, 81, 0
2, 19080, Control_c, 0, 64, 0
2, 19080, Note_on_c, 0, 83, 91
2, 19200, Note_on_c, 0, 83, 0
2, 19200, Control_c, 0, 64, 127
2, 19200, Note_on_c, 0, 84, 91
2, 19320, Note_on_c, 0, 84, 0
2, 19320, Note_on_c, 0, 79, 91
2, 19440, Note_on_c, 0, 79, 0
2, 19440, Note_on_c, 0, 76, 91
2, 19560, Note_on_c, 0, 76, 0
2, 19560, Control_c, 0, 64, 0
2, 19560, Note_on_c, 0, 72, 91
2, 19680, Note_on_c, 0, 72, 0
2, 19680, Control_c, 0, 64, 127
2, 19680, Note_on_c, 0, 68, 52
2, 19680, Note_on_c, 0, 74, 52
2, 19800, Note_on_c, 0, 74, 0
2, 19800, Note_on_c, 0, 68, 0
2, 19800, Note_on_c, 0, 69, 52
2, 19800, Note_on_c, 0, 72, 52
2, 19920, Note_on_c, 0, 72, 0
2, 19920, Note_on_c, 0, 69, 0
2, 19920, Note_on_c, 0, 68, 52
2, 19920, Note_on_c, 0, 74, 52
2, 20040, Note_on_c, 0, 74, 0
2, 20040, Note_on_c, 0, 68, 0
2, 20040, Control_c, 0, 64, 0
2, 20040, Note_on_c, 0, 69, 52
2, 20040, Note_on_c, 0, 72, 52
2, 20160, Note_on_c, 0, 72, 0
2, 20160, Note_on_c, 0, 69, 0
2, 20160, Note_on_c, 0, 68, 78
2, 20160, Note_on_c, 0, 76, 78
2, 20400, Note_on_c, 0, 76, 0
2, 20400, Note_on_c, 0, 68, 0
2, 20400, Note_on_c, 0, 69, 52
2, 20400, Note_on_c, 0, 72, 52
2, 20640, Note_on_c, 0, 72, 0
2, 20640, Note_on_c, 0, 69, 0
2, 20640, Note_on_c, 0, 68, 52
2, 20640, Note_on_c, 0, 76, 52
2, 20760, Note_on_c, 0, 76, 0
2, 20760, Note_on_c, 0, 68, 0
2, 20760, Note_on_c, 0, 69, 52
2, 20760, Note_on_c, 0, 72, 52
2, 20880, Note_on_c, 0, 72, 0
2, 20880, Note_on_c, 0, 69, 0
2, 20880, Note_on_c, 0, 68, 52
2, 20880, Note_on_c, 0, 76, 52
2, 21000, Note_on_c, 0, 76, 0
2, 21000, Note_on_c, 0, 68, 0
2, 21000, Note_on_c, 0, 69, 52
2, 21000, Note_on_c, 0, 72, 52
2, 21120, Note_on_c, 0, 72, 0
2, 21120, Note_on_c, 0, 69, 0
2, 21120, Note_on_c, 0, 68, 78
2, 21120, Note_on_c, 0, 77, 78
2, 21360, Note_on_c, 0, 77, 0
2, 21360, Note_on_c, 0, 68, 0
2, 21360, Note_on_c, 0, 69, 52
2, 21360, Note_on_c, 0, 72, 52
2, 21600, Note_on_c, 0, 72, 0
2, 21600, Note_on_c, 0, 69, 0
2, 21600, Note_on_c, 0, 68, 52
2, 21600, Note_on_c, 0, 77, 52
2, 21720, Note_on_c, 0, 77, 0
2, 21720, Note_on_c, 0, 68, 0
2, 21720, Note_on_c, 0, 69, 52
2, 21720, Note_on_c, 0, 72, 52
2, 21840, Note_on_c, 0, 72, 0
2, 21840, Note_on_c, 0, 69, 0
2, 21840, Note_on_c, 0, 68, 52
2, 21840, Note_on_c, 0, 77, 52
2, 21960, Note_on_c, 0, 77, 0
2, 21960, Note_on_c, 0, 68, 0
2, 21960, Note_on_c, 0, 69, 52
2, 21960, Note_on_c, 0, 72, 52
2, 22080, Note_on_c, 0, 72, 0
2, 22080, Note_on_c, 0, 69, 0
2, 22080, Note_on_c, 0, 68, 78
2, 22080, Note_on_c, 0, 76, 78
2, 22320, Note_on_c, 0, 76, 0
2, 22320, Note_on_c, 0, 68, 0
2, 22320, Note_on_c, 0, 69, 52
2, 22320, Note_on_c, 0, 72, 52
2, 22560, Note_on_c, 0, 72, 0
2, 22560, Note_on_c, 0, 69, 0
2, 22560, Note_on_c, 0, 68, 52
2, 22560, Note_on_c, 0, 76, 52
2, 22680, Note_on_c, 0, 76, 0
2, 22680, Note_on_c, 0, 68, 0
2, 22680, Note_on_c, 0, 69, 52
2, 22680, Note_on_c, 0, 72, 52
2, 22800, Note_on_c, 0, 72, 0
2, 22800, Note_on_c, 0, 69, 0
2, 22800, Note_on_c, 0, 68, 52
2, 22800, Note_on_c, 0, 76, 52
2, 22920, Note_on_c, 0, 76, 0
2, 22920, Note_on_c, 0, 68, 0
2, 22920, Note_on_c, 0, 69, 52
2, 22920, Note_on_c, 0, 72, 52
2, 23040, Note_on_c, 0, 72, 0
2, 23040, Note_on_c, 0, 69, 0
2, 23040, Note_on_c, 0, 68, 52
2, 23040, Note_on_c, 0, 74, 52
2, 23280, Note_on_c, 0, 74, 0
2, 23280, Note_on_c, 0, 68, 0
2, 23280, Note_on_c, 0, 69, 52
2, 23280, Note_on_c, 0, 72, 52
2, 23520, Note_on_c, 0, 72, 0
2, 23520, Note_on_c, 0, 69, 0
2, 23520, Note_on_c, 0, 68, 65
2, 23520, Note_on_c, 0, 74, 65
2, 23640, Note_on_c, 0, 74, 0
2, 23640, Note_on_c, 0, 68, 0
2, 23640, Note_on_c, 0, 69, 65
2, 23640, Note_on_c, 0, 72, 65
2, 23760, Note_on_c, 0, 72, 0
2, 23760, Note_on_c, 0, 69, 0
2, 23760, Note_on_c, 0, 68, 65
2, 23760, Note_on_c, 0, 74, 65
2, 23880, Note_on_c, 0, 74, 0
2, 23880, Note_on_c, 0, 68, 0
2, 23880, Note_on_c, 0, 69, 65
2, 23880, Note_on_c, 0, 72, 65
2, 24000, Note_on_c, 0, 72, 0
2, 24000, Note_on_c, 0, 69, 0
2, 24000, Note_on_c, 0, 68, 91
2, 24000, Note_on_c, 0, 76, 91
2, 24240, Note_on_c, 0, 76, 0
2, 24240, Note_on_c, 0, 68, 0
2, 24240, Note_on_c, 0, 69, 65
2, 24240, Note_on_c, 0, 72, 65
2, 24480, Note_on_c, 0, 72, 0
2, 24480, Note_on_c, 0, 69, 0
2, 24480, Note_on_c, 0, 68, 65
2, 24480, Note_on_c, 0, 76, 65
2, 24600, Note_on_c, 0, 76, 0
2, 24600, Note_on_c, 0, 68, 0
2, 24600, Note_on_c, 0, 69, 65
2, 24600, Note_on_c, 0, 72, 65
2, 24720, Note_on_c, 0, 72, 0
2, 24720, Note_on_c, 0, 69, 0
2, 24720, Note_on_c, 0, 68, 65
2, 24720, Note_on_c, 0, 76, 65
2, 24840, Note_on_c, 0, 76, 0
2, 24840, Note_on_c, 0, 68, 0
2, 24840, Note_on_c, 0, 69, 65
2, 24840, Note_on_c, 0, 72, 65
2, 24960, Note_on_c, 0, 72, 0
2, 24960, Note_on_c, 0, 69, 0
2, 24960, Note_on_c, 0, 68, 91
2, 24960, Note_on_c, 0, 77, 91
2, 25200, Note_on_c, 0, 77, 0
2, 25200, Note_on_c, 0, 68, 0
2, 25200, Note_on_c, 0, 69, 65
2, 25200, Note_on_c, 0, 72, 65
2, 25440, Note_on_c, 0, 72, 0
2, 25440, Note_on_c, 0, 69, 0
2, 25440, Note_on_c, 0, 68, 65
2, 25440, Note_on_c, 0, 77, 65
2, 25560, Note_on_c, 0, 77, 0
2, 25560, Note_on_c, 0, 68, 0
2, 25560, Note_on_c, 0, 69, 65
2, 25560, Note_on_c, 0, 72, 65
2, 25680, Note_on_c, 0, 72, 0
2, 25680, Note_on_c, 0, 69, 0
2, 25680, Note_on_c, 0, 68, 65
2, 25680, Note_on_c, 0, 77, 65
2, 25800, Note_on_c, 0, 77, 0
2, 25800, Note_on_c, 0, 68, 0
2, 25800, Note_on_c, 0, 69, 65
2, 25800, Note_on_c, 0, 72, 65
2, 25920, Note_on_c, 0, 72, 0
2, 25920, Note_on_c, 0, 69, 0
2, 25920, Note_on_c, 0, 68, 91
2, 25920, Note_on_c, 0, 76, 91
2, 26160, Note_on_c, 0, 76, 0
2, 26160, Note_on_c, 0, 68, 0
2, 26160, Note_on_c, 0, 69, 65
2, 26160, Note_on_c, 0, 72, 65
2, 26400, Note_on_c, 0, 72, 0
2, 26400, Note_on_c, 0, 69, 0
2, 26400, Note_on_c, 0, 68, 65
2, 26400, Note_on_c, 0, 76, 65
2, 26520, Note_on_c, 0, 76, 0
2, 26520, Note_on_c, 0, 68, 0
2, 26520, Note_on_c, 0, 69, 65
2, 26520, Note_on_c, 0, 72, 65
2, 26640, Note_on_c, 0, 72, 0
2, 26640, Note_on_c, 0, 69, 0
2, 26640, Note_on_c, 0, 68, 65
2, 26640, Note_on_c, 0, 76, 65
2, 26760, Note_on_c, 0, 76, 0
2, 26760, Note_on_c, 0, 68, 0
2, 26760, Note_on_c, 0, 69, 65
2, 26760, Note_on_c, 0, 72, 65
2, 26880, Note_on_c, 0, 72, 0
2, 26880, Note_on_c, 0, 69, 0
2, 26880, Note_on_c, 0, 66, 91
2, 26880, Note_on_c, 0, 74, 91
2, 27120, Note_on_c, 0, 74, 0
2, 27120, Note_on_c, 0, 66, 0
2, 27120, Note_on_c, 0, 67, 65
2, 27120, Note_on_c, 0, 70, 65
2, 27360, Note_on_c, 0, 70, 0
2, 27360, Note_on_c, 0, 67, 0
2, 27360, Control_c, 0, 64, 127
2, 27360, Note_on_c, 0, 67, 65
2, 27480, Note_on_c, 0, 67, 0
2, 27480, Note_on_c, 0, 69, 65
2, 27600, Note_on_c, 0, 69, 0
2, 27600, Note_on_c, 0, 70, 65
2, 27720, Note_on_c, 0, 70, 0
2, 27720, Control_c, 0, 64, 0
2, 27720, Note_on_c, 0, 67, 65
2, 27840, Note_on_c, 0, 67, 0
2, 27840, Control_c, 0, 64, 127
2, 27840, Note_on_c, 0, 69, 65
2, 27960, Note_on_c, 0, 69, 0
2, 27960, Note_on_c, 0, 67, 65
2, 28080, Note_on_c, 0, 67, 0
2, 28080, Note_on_c, 0, 64, 65
2, 28200, Note_on_c, 0, 64, 0
2, 28200, Control_c, 0, 64, 0
2, 28200, Note_on_c, 0, 57, 65
2, 28320, Note_on_c, 0, 57, 0
2, 28320, Control_c, 0, 64, 127
2, 28320, Note_on_c, 0, 76, 65
2, 28440, Note_on_c, 0, 76, 0
2, 28440, Note_on_c, 0, 77, 65
2, 28560, Note_on_c, 0, 77, 0
2, 28560, Note_on_c, 0, 79, 65
2, 28680, Note_on_c, 0, 79, 0
2, 28680, Control_c, 0, 64, 0
2, 28680, Note_on_c, 0, 80, 65
2, 28800, Note_on_c, 0, 80, 0
2, 28800, Control_c, 0, 64, 127
2, 28800, Note_on_c, 0, 81, 65
2, 28920, Note_on_c, 0, 81, 0
2, 28920, Note_on_c, 0, 77, 65
2, 29040, Note_on_c, 0, 77, 0
2, 29040, Note_on_c, 0, 74, 65
2, 29160, Note_on_c, 0, 74, 0
2, 29160, Control_c, 0, 64, 0
2, 29160, Note_on_c, 0, 69, 65
2, 29280, Note_on_c, 0, 69, 0
2, 29280, Control_c, 0, 64, 127
2, 29280, Note_on_c, 0, 65, 65
2, 29400, Note_on_c, 0, 65, 0
2, 29400, Note_on_c, 0, 67, 65
2, 29520, Note_on_c, 0, 67, 0
2, 29520, Note_on_c, 0, 68, 65
2, 29640, Note_on_c, 0, 68, 0
2, 29640, Control_c, 0, 64, 0
2, 29640, Note_on_c, 0, 65, 65
2, 29760, Note_on_c, 0, 65, 0
2, 29760, Control_c, 0, 64, 127
2, 29760, Note_on_c, 0, 67, 65
2, 29880, Note_on_c, 0, 67, 0
2, 29880, Note_on_c, 0, 65, 65
2, 30000, Note_on_c, 0, 65, 0
2, 30000, Note_on_c, 0, 62, 65
2, 30120, Note_on_c, 0, 62, 0
2, 30120, Control_c, 0, 64, 0
2, 30120, Note_on_c, 0, 55, 65
2, 30240, Note_on_c, 0, 55, 0
2, 30240, Control_c, 0, 64, 127
2, 30240, Note_on_c, 0, 74, 65
2, 30360, Note_on_c, 0, 74, 0
2, 30360, Note_on_c, 0, 76, 65
2, 30480, Note_on_c, 0, 76, 0
2, 30480, Note_on_c, 0, 77, 65
2, 30600, Note_on_c, 0, 77, 0
2, 30600, Control_c, 0, 64, 0
2, 30600, Note_on_c, 0, 78, 65
2, 30720, Note_on_c, 0, 78, 0
2, 30720, Control_c, 0, 64, 127
2, 30720, Note_on_c, 0, 79, 65
2, 30840, Note_on_c, 0, 79, 0
2, 30840, Note_on_c, 0, 76, 65
2, 30960, Note_on_c, 0, 76, 0
2, 30960, Note_on_c, 0, 72, 65
2, 31080, Note_on_c, 0, 72, 0
2, 31080, Control_c, 0, 64, 0
2, 31080, Note_on_c, 0, 67, 65
2, 31200, Note_on_c, 0, 67, 0
2, 31200, Control_c, 0, 64, 127
2, 31200, Note_on_c, 0, 66, 65
2, 31320, Note_on_c, 0, 66, 0
2, 31320, Note_on_c, 0, 67, 65
2, 31440, Note_on_c, 0, 67, 0
2, 31440, Note_on_c, 0, 69, 65
2, 31560, Note_on_c, 0, 69, 0
2, 31560, Control_c, 0, 64, 0
2, 31560, Note_on_c, 0, 70, 65
2, 31680, Note_on_c, 0, 70, 0
2, 31680, Control_c, 0, 64, 127
2, 31680, Note_on_c, 0, 72, 65
2, 31800, Note_on_c, 0, 72, 0
2, 31800, Note_on_c, 0, 69, 65
2, 31920, Note_on_c, 0, 69, 0
2, 31920, Note_on_c, 0, 64, 65
2, 32040, Note_on_c, 0, 64, 0
2, 32040, Control_c, 0, 64, 0
2, 32040, Note_on_c, 0, 65, 65
2, 32160, Note_on_c, 0, 65, 0
2, 32160, Control_c, 0, 64, 127
2, 32160, Note_on_c, 0, 75, 65
2, 32280, Note_on_c, 0, 75, 0
2, 32280, Note_on_c, 0, 72, 65
2, 32400, Note_on_c, 0, 72, 0
2, 32400, Note_on_c, 0, 68, 65
2, 32520, Note_on_c, 0, 68, 0
2, 32520, Control_c, 0, 64, 0
2, 32520, Note_on_c, 0, 69, 65
2, 32640, Note_on_c, 0, 69, 0
2, 32640, Control_c, 0, 64, 127
2, 32640, Note_on_c, 0, 76, 65
2, 32760, Note_on_c, 0, 76, 0
2, 32760, Note_on_c, 0, 72, 65
2, 32880, Note_on_c, 0, 72, 0
2, 32880, Note_on_c, 0, 66, 65
2, 33000, Note_on_c, 0, 66, 0
2, 33000, Control_c, 0, 64, 0
2, 33000, Note_on_c, 0, 67, 65
2, 33120, Note_on_c, 0, 67, 0
2, 33120, Control_c, 0, 64, 127
2, 33120, Note_on_c, 0, 78, 65
2, 33240, Note_on_c, 0, 78, 0
2, 33240, Note_on_c, 0, 75, 65
2, 33360, Note_on_c, 0, 75, 0
2, 33360, Note_on_c, 0, 71, 65
2, 33480, Note_on_c, 0, 71, 0
2, 33480, Control_c, 0, 64, 0
2, 33480, Note_on_c, 0, 72, 65
2, 33600, Note_on_c, 0, 72, 0
2, 33600, Control_c, 0, 64, 127
2, 33600, Note_on_c, 0, 79, 91
2, 33720, Note_on_c, 0, 79, 0
2, 33720, Note_on_c, 0, 76, 91
2, 33840, Note_on_c, 0, 76, 0
2, 33840, Note_on_c, 0, 72, 91
2, 33960, Note_on_c, 0, 72, 0
2, 33960, Control_c, 0, 64, 0
2, 33960, Note_on_c, 0, 73, 91
2, 34080, Note_on_c, 0, 73, 0
2, 34080, Control_c, 0, 64, 127
2, 34080, Note_on_c, 0, 74, 91
2, 34200, Note_on_c, 0, 74, 0
2, 34200, Note_on_c, 0, 79, 91
2, 34320, Note_on_c, 0, 79, 0
2, 34320, Note_on_c, 0, 81, 91
2, 34440, Note_on_c, 0, 81, 0
2, 34440, Control_c, 0, 64, 0
2, 34440, Note_on_c, 0, 83, 91
2, 34560, Note_on_c, 0, 83, 0
2, 34560, Control_c, 0, 64, 127
2, 34560, Note_on_c, 0, 84, 91
2, 34680, Note_on_c, 0, 84, 0
2, 34680, Note_on_c, 0, 79, 91
2, 34800, Note_on_c, 0, 79, 0
2, 34800, Note_on_c, 0, 76, 91
2, 34920, Note_on_c, 0, 76, 0
2, 34920, Control_c, 0, 64, 0
2, 34920, Note_on_c, 0, 72, 91
2, 35040, Note_on_c, 0, 72, 0
2, 35040, Control_c, 0, 64, 127
2, 35040, Note_on_c, 0, 74, 52
2, 35160, Note_on_c, 0, 74, 0
2, 35160, Note_on_c, 0, 72, 52
2, 35280, Note_on_c, 0, 72, 0
2, 35280, Note_on_c, 0, 74, 52
2, 35400, Note_on_c, 0, 74, 0
2, 35400, Control_c, 0, 64, 0
2, 35400, Note_on_c, 0, 72, 52
2, 35520, Note_on_c, 0, 72, 0
2, 35520, Control_c, 0, 64, 127
2, 35520, Note_on_c, 0, 72, 52
2, 35640, Note_on_c, 0, 72, 0
2, 35640, Note_on_c, 0, 70, 52
2, 35760, Note_on_c, 0, 70, 0
2, 35760, Note_on_c, 0, 69, 52
2, 35880, Note_on_c, 0, 69, 0
2, 35880, Note_on_c, 0, 67, 52
2, 36000, Note_on_c, 0, 67, 0
2, 36000, Note_on_c, 0, 69, 52
2, 36120, Note_on_c, 0, 69, 0
2, 36120, Note_on_c, 0, 67, 52
2, 36240, Note_on_c, 0, 67, 0
2, 36240, Note_on_c, 0, 69, 52
2, 36360, Note_on_c, 0, 69, 0
2, 36360, Control_c, 0, 64, 0
2, 36360, Note_on_c, 0, 67, 52
2, 36480, Note_on_c, 0, 67, 0
2, 36480, Control_c, 0, 64, 127
2, 36480, Note_on_c, 0, 65, 52
2, 36600, Note_on_c, 0, 65, 0
2, 36600, Note_on_c, 0, 64, 52
2, 36720, Note_on_c, 0, 64, 0
2, 36720, Note_on_c, 0, 62, 52
2, 36840, Note_on_c, 0, 62, 0
2, 36840, Control_c, 0, 64, 0
2, 36840, Note_on_c, 0, 60, 52
2, 36960, Note_on_c, 0, 60, 0
2, 36960, Control_c, 0, 64, 127
2, 36960, Note_on_c, 0, 86, 52
2, 37080, Note_on_c, 0, 86, 0
2, 37080, Note_on_c, 0, 84, 52
2, 37200, Note_on_c, 0, 84, 0
2, 37200, Note_on_c, 0, 86, 52
2, 37320, Note_on_c, 0, 86, 0
2, 37320, Control_c, 0, 64, 0
2, 37320, Note_on_c, 0, 84, 52
2, 37440, Note_on_c, 0, 84, 0
2, 37440, Control_c, 0, 64, 127
2, 37440, Note_on_c, 0, 84, 52
2, 37560, Note_on_c, 0, 84, 0
2, 37560, Note_on_c, 0, 82, 52
2, 37680, Note_on_c, 0, 82, 0
2, 37680, Note_on_c, 0, 81, 52
2, 37800, Note_on_c, 0, 81, 0
2, 37800, Control_c, 0, 64, 0
2, 37800, Note_on_c, 0, 79, 52
2, 37920, Note_on_c, 0, 79, 0
2, 37920, Control_c, 0, 64, 127
2, 37920, Note_on_c, 0, 81, 52
2, 38040, Note_on_c, 0, 81, 0
2, 38040, Note_on_c, 0, 79, 52
2, 38160, Note_on_c, 0, 79, 0
2, 38160, Note_on_c, 0, 81, 52
2, 38280, Note_on_c, 0, 81, 0
2, 38280, Control_c, 0, 64, 0
2, 38280, Note_on_c, 0, 79, 52
2, 38400, Note_on_c, 0, 79, 0
2, 38400, Control_c, 0, 64, 127
2, 38400, Note_on_c, 0, 77, 52
2, 38520, Note_on_c, 0, 77, 0
2, 38520, Note_on_c, 0, 76, 52
2, 38640, Note_on_c, 0, 76, 0
2, 38640, Note_on_c, 0, 74, 52
2, 38760, Note_on_c, 0, 74, 0
2, 38760, Control_c, 0, 64, 0
2, 38760, Note_on_c, 0, 72, 52
2, 38880, Note_on_c, 0, 72, 0
2, 38880, Control_c, 0, 64, 127
2, 38880, Note_on_c, 0, 69, 39
2, 39000, Note_on_c, 0, 69, 0
2, 39000, Note_on_c, 0, 67, 39
2, 39120, Note_on_c, 0, 67, 0
2, 39120, Note_on_c, 0, 69, 39
2, 39240, Note_on_c, 0, 69, 0
2, 39240, Control_c, 0, 64, 0
2, 39240, Note_on_c, 0, 67, 39
2, 39360, Note_on_c, 0, 67, 0
2, 39360, Control_c, 0, 64, 127
2, 39360, Note_on_c, 0, 65, 39
2, 39480, Note_on_c, 0, 65, 0
2, 39480, Note_on_c, 0, 64, 39
2, 39600, Note_on_c, 0, 64, 0
2, 39600, Note_on_c, 0, 62, 39
2, 39720, Note_on_c, 0, 62, 0
2, 39720, Control_c, 0, 64, 0
2, 39720, Note_on_c, 0, 60, 39
2, 39840, Note_on_c, 0, 60, 0
2, 39840, Control_c, 0, 64, 127
2, 39840, Note_on_c, 0, 81, 39
2, 39960, Note_on_c, 0, 81, 0
2, 39960, Note_on_c, 0, 79, 39
2, 40080, Note_on_c, 0, 79, 0
2, 40080, Note_on_c, 0, 81, 39
2, 40200, Note_on_c, 0, 81, 0
2, 40200, Control_c, 0, 64, 0
2, 40200, Note_on_c, 0, 79, 39
2, 40320, Note_on_c, 0, 79, 0
2, 40320, Control_c, 0, 64, 127
2, 40320, Note_on_c, 0, 77, 39
2, 40440, Note_on_c, 0, 77, 0
2, 40440, Note_on_c, 0, 76, 39
2, 40560, Note_on_c, 0, 76, 0
2, 40560, Note_on_c, 0, 74, 39
2, 40680, Note_on_c, 0, 74, 0
2, 40680, Control_c, 0, 64, 0
2, 40680, Note_on_c, 0, 72, 39
2, 40800, Note_on_c, 0, 72, 0
2, 40800, Control_c, 0, 64, 127
2, 40800, Note_on_c, 0, 69, 39
2, 40920, Note_on_c, 0, 69, 0
2, 40920, Note_on_c, 0, 67, 39
2, 41040, Note_on_c, 0, 67, 0
2, 41040, Note_on_c, 0, 69, 39
2, 41160, Note_on_c, 0, 69, 0
2, 41160, Control_c, 0, 64, 0
2, 41160, Note_on_c, 0, 67, 39
2, 41280, Note_on_c, 0, 67, 0
2, 41280, Control_c, 0, 64, 127
2, 41280, Note_on_c, 0, 65, 39
2, 41400, Note_on_c, 0, 65, 0
2, 41400, Note_on_c, 0, 64, 39
2, 41520, Note_on_c, 0, 64, 0
2, 41520, Note_on_c, 0, 62, 39
2, 41640, Note_on_c, 0, 62, 0
2, 41640, Control_c, 0, 64, 0
2, 41640, Note_on_c, 0, 60, 39
2, 41760, Note_on_c, 0, 60, 0
2, 41760, Control_c, 0, 64, 127
2, 41760, Note_on_c, 0, 81, 39
2, 41880, Note_on_c, 0, 81, 0
2, 41880, Note_on_c, 0, 79, 39
2, 42000, Note_on_c, 0, 79, 0
2, 42000, Note_on_c, 0, 81, 39
2, 42120, Note_on_c, 0, 81, 0
2, 42120, Control_c, 0, 64, 0
2, 42120, Note_on_c, 0, 79, 39
2, 42240, Note_on_c, 0, 79, 0
2, 42240, Control_c, 0, 64, 127
2, 42240, Note_on_c, 0, 77, 52
2, 42360, Note_on_c, 0, 77, 0
2, 42360, Note_on_c, 0, 76, 52
2, 42480, Note_on_c, 0, 76, 0
2, 42480, Note_on_c, 0, 74, 52
2, 42600, Note_on_c, 0, 74, 0
2, 42600, Control_c, 0, 64, 0
2, 42600, Note_on_c, 0, 72, 52
2, 42720, Note_on_c, 0, 72, 0
2, 42720, Control_c, 0, 64, 127
2, 42720, Note_on_c, 0, 60, 52
2, 42840, Note_on_c, 0, 60, 0
2, 42840, Note_on_c, 0, 57, 52
2, 42960, Note_on_c, 0, 57, 0
2, 42960, Note_on_c, 0, 60, 52
2, 43080, Note_on_c, 0, 60, 0
2, 43080, Control_c, 0, 64, 0
2, 43080, Note_on_c, 0, 57, 52
2, 43200, Note_on_c, 0, 57, 0
2, 43200, Note_on_c, 0, 62, 78
2, 43680, Note_on_c, 0, 62, 0
2, 43680, Control_c, 0, 64, 127
2, 43680, Note_on_c, 0, 62, 52
2, 43800, Note_on_c, 0, 62, 0
2, 43800, Note_on_c, 0, 58, 52
2, 43920, Note_on_c, 0, 58, 0
2, 43920, Note_on_c, 0, 62, 52
2, 44040, Note_on_c, 0, 62, 0
2, 44040, Control_c, 0, 64, 0
2, 44040, Note_on_c, 0, 58, 52
2, 44160, Note_on_c, 0, 58, 0
2, 44160, Note_on_c, 0, 64, 78
2, 44640, Note_on_c, 0, 64, 0
2, 44640, Control_c, 0, 64, 127
2, 44640, Note_on_c, 0, 64, 52
2, 44760, Note_on_c, 0, 64, 0
2, 44760, Note_on_c, 0, 60, 52
2, 44880, Note_on_c, 0, 60, 0
2, 44880, Note_on_c, 0, 64, 52
2, 45000, Note_on_c, 0, 64, 0
2, 45000, Control_c, 0, 64, 0
2, 45000, Note_on_c, 0, 60, 52
2, 45120, Note_on_c, 0, 60, 0
2, 45120, Control_c, 0, 64, 127
2, 45120, Note_on_c, 0, 59, 52
2, 45120, Note_on_c, 0, 64, 52
2, 45240, Note_on_c, 0, 64, 0
2, 45240, Note_on_c, 0, 59, 0
2, 45240, Note_on_c, 0, 60, 52
2, 45240, Note_on_c, 0, 64, 52
2, 45360, Note_on_c, 0, 64, 0
2, 45360, Note_on_c, 0, 60, 0
2, 45360, Note_on_c, 0, 62, 52
2, 45360, Note_on_c, 0, 65, 52
2, 45480, Note_on_c, 0, 65, 0
2, 45480, Note_on_c, 0, 62, 0
2, 45480, Control_c, 0, 64, 0
2, 45480, Note_on_c, 0, 60, 52
2, 45480, Note_on_c, 0, 64, 52
2, 45600, Note_on_c, 0, 64, 0
2, 45600, Note_on_c, 0, 60, 0
2, 45600, Control_c, 0, 64, 127
2, 45600, Note_on_c, 0, 60, 52
2, 45600, Note_on_c, 0, 66, 52
2, 45720, Note_on_c, 0, 66, 0
2, 45720, Note_on_c, 0, 60, 0
2, 45720, Note_on_c, 0, 62, 52
2, 45720, Note_on_c, 0, 65, 52
2, 45840, Note_on_c, 0, 65, 0
2, 45840, Note_on_c, 0, 62, 0
2, 45840, Note_on_c, 0, 63, 52
2, 45840, Note_on_c, 0, 66, 52
2, 45960, Note_on_c, 0, 66, 0
2, 45960, Note_on_c, 0, 63, 0
2, 45960, Control_c, 0, 64, 0
2, 45960, Note_on_c, 0, 62, 52
2, 45960, Note_on_c, 0, 65, 52
2, 46080, Note_on_c, 0, 65, 0
2, 46080, Note_on_c, 0, 62, 0
2, 46080, Control_c, 0, 64, 127
2, 46080, Note_on_c, 0, 62, 52
2, 46080, Note_on_c, 0, 68, 52
2, 46200, Note_on_c, 0, 68, 0
2, 46200, Note_on_c, 0, 62, 0
2, 46200, Note_on_c, 0, 64, 52
2, 46200, Note_on_c, 0, 67, 52
2, 46320, Note_on_c, 0, 67, 0
2, 46320, Note_on_c, 0, 64, 0
2, 46320, Note_on_c, 0, 65, 52
2, 46320, Note_on_c, 0, 68, 52
2, 46440, Note_on_c, 0, 68, 0
2, 46440, Note_on_c, 0, 65, 0
2, 46440, Control_c, 0, 64, 0
2, 46440, Note_on_c, 0, 64, 52
2, 46440, Note_on_c, 0, 67, 52
2, 46560, Note_on_c, 0, 67, 0
2, 46560, Note_on_c, 0, 64, 0
2, 46560, Control_c, 0, 64, 127
2, 46560, Note_on_c, 0, 64, 65
2, 46560, Note_on_c, 0, 72, 65
2, 46680, Note_on_c, 0, 72, 0
2, 46680, Note_on_c, 0, 64, 0
2, 46680, Note_on_c, 0, 65, 65
2, 46680, Note_on_c, 0, 69, 65
2, 46800, Note_on_c, 0, 69, 0
2, 46800, Note_on_c, 0, 65, 0
2, 46800, Note_on_c, 0, 64, 65
2, 46800, Note_on_c, 0, 72, 65
2, 46920, Note_on_c, 0, 72, 0
2, 46920, Note_on_c, 0, 64, 0
2, 46920, Control_c, 0, 64, 0
2, 46920, Note_on_c, 0, 65, 65
2, 46920, Note_on_c, 0, 69, 65
2, 47040, Note_on_c, 0, 69, 0
2, 47040, Note_on_c, 0, 65, 0
2, 47040, Note_on_c, 0, 62, 91
2, 47040, Note_on_c, 0, 66, 91
2, 47040, Note_on_c, 0, 74, 91
2, 47520, Note_on_c, 0, 74, 0
2, 47520, Note_on_c, 0, 66, 0
2, 47520, Note_on_c, 0, 62, 0
2, 47520, Note_on_c, 0, 66, 78
2, 47520, Note_on_c, 0, 74, 78
2, 47640, Note_on_c, 0, 74, 0
2, 47640, Note_on_c, 0, 66, 0
2, 47640, Note_on_c, 0, 67, 78
2, 47640, Note_on_c, 0, 70, 78
2, 47760, Note_on_c, 0, 70, 0
2, 47760, Note_on_c, 0, 67, 0
2, 47760, Note_on_c, 0, 66, 78
2, 47760, Note_on_c, 0, 74, 78
2, 47880, Note_on_c, 0, 74, 0
2, 47880, Note_on_c, 0, 66, 0
2, 47880, Note_on_c, 0, 67, 78
2, 47880, Note_on_c, 0, 70, 78
2, 48000, Note_on_c, 0, 70, 0
2, 48000, Note_on_c, 0, 67, 0
2, 48000, Note_on_c, 0, 64, 104
2, 48000, Note_on_c, 0, 68, 104
2, 48000, Note_on_c, 0, 76, 104
2, 48480, Note_on_c, 0, 76, 0
2, 48480, Note_on_c, 0, 68, 0
2, 48480, Note_on_c, 0, 64, 0
2, 48480, Note_on_c, 0, 68, 78
2, 48480, Note_on_c, 0, 76, 78
2, 48600, Note_on_c, 0, 76, 0
2, 48600, Note_on_c, 0, 68, 0
2, 48600, Note_on_c, 0, 69, 78
2, 48600, Note_on_c, 0, 72, 78
2, 48720, Note_on_c, 0, 72, 0
2, 48720, Note_on_c, 0, 69, 0
2, 48720, Note_on_c, 0, 68, 78
2, 48720, Note_on_c, 0, 76, 78
2, 48840, Note_on_c, 0, 76, 0
2, 48840, Note_on_c, 0, 68, 0
2, 48840, Note_on_c, 0, 69, 78
2, 48840, Note_on_c, 0, 72, 78
2, 48960, Note_on_c, 0, 72, 0
2, 48960, Note_on_c, 0, 69, 0
2, 48960, Control_c, 0, 64, 127
2, 48960, Note_on_c, 0, 71, 104
2, 48960, Note_on_c, 0, 77, 104
2, 49080, Note_on_c, 0, 77, 0
2, 49080, Note_on_c, 0, 71, 0
2, 49080, Note_on_c, 0, 72, 78
2, 49080, Note_on_c, 0, 76, 78
2, 49200, Note_on_c, 0, 76, 0
2, 49200, Note_on_c, 0, 72, 0
2, 49200, Note_on_c, 0, 74, 78
2, 49200, Note_on_c, 0, 77, 78
2, 49320, Note_on_c, 0, 77, 0
2, 49320, Note_on_c, 0, 74, 0
2, 49320, Control_c, 0, 64, 0
2, 49320, Note_on_c, 0, 72, 78
2, 49320, Note_on_c, 0, 76, 78
2, 49440, Note_on_c, 0, 76, 0
2, 49440, Note_on_c, 0, 72, 0
2, 49440, Control_c, 0, 64, 127
2, 49440, Note_on_c, 0, 72, 104
2, 49440, Note_on_c, 0, 78, 104
2, 49560, Note_on_c, 0, 78, 0
2, 49560, Note_on_c, 0, 72, 0
2, 49560, Note_on_c, 0, 74, 78
2, 49560, Note_on_c, 0, 77, 78
2, 49680, Note_on_c, 0, 77, 0
2, 49680, Note_on_c, 0, 74, 0
2, 49680, Note_on_c, 0, 75, 78
2, 49680, Note_on_c, 0, 78, 78
2, 49800, Note_on_c, 0, 78, 0
2, 49800, Note_on_c, 0, 75, 0
2, 49800, Control_c, 0, 64, 0
2, 49800, Note_on_c, 0, 74, 78
2, 49800, Note_on_c, 0, 77, 78
2, 49920, Note_on_c, 0, 77, 0
2, 49920, Note_on_c, 0, 74, 0
2, 49920, Control_c, 0, 64, 127
2, 49920, Note_on_c, 0, 74, 91
2, 49920, Note_on_c, 0, 80, 91
2, 50040, Note_on_c, 0, 80, 0
2, 50040, Note_on_c, 0, 74, 0
2, 50040, Note_on_c, 0, 76, 91
2, 50040, Note_on_c, 0, 79, 91
2, 50160, Note_on_c, 0, 79, 0
2, 50160, Note_on_c, 0, 76, 0
2, 50160, Note_on_c, 0, 77, 91
2, 50160, Note_on_c, 0, 80, 91
2, 50280, Note_on_c, 0, 80, 0
2, 50280, Note_on_c, 0, 77, 0
2, 50280, Control_c, 0, 64, 0
2, 50280, Note_on_c, 0, 76, 91
2, 50280, Note_on_c, 0, 79, 91
2, 50400, Note_on_c, 0, 79, 0
2, 50400, Note_on_c, 0, 76, 0
2, 50400, Control_c, 0, 64, 127
2, 50400, Note_on_c, 0, 68, 52
2, 50400, Note_on_c, 0, 74, 52
2, 50520, Note_on_c, 0, 74, 0
2, 50520, Note_on_c, 0, 68, 0
2, 50520, Note_on_c, 0, 69, 52
2, 50520, Note_on_c, 0, 72, 52
2, 50640, Note_on_c, 0, 72, 0
2, 50640, Note_on_c, 0, 69, 0
2, 50640, Note_on_c, 0, 68, 52
2, 50640, Note_on_c, 0, 74, 52
2, 50760, Note_on_c, 0, 74, 0
2, 50760, Note_on_c, 0, 68, 0
2, 50760, Control_c, 0, 64, 0
2, 50760, Note_on_c, 0, 69, 52
2, 50760, Note_on_c, 0, 72, 52
2, 50880, Note_on_c, 0, 72, 0
2, 50880, Note_on_c, 0, 69, 0
2, 50880, Note_on_c, 0, 68, 78
2, 50880, Note_on_c, 0, 76, 78
2, 51120, Note_on_c, 0, 76, 0
2, 51120, Note_on_c, 0, 68, 0
2, 51120, Note_on_c, 0, 69, 52
2, 51120, Note_on_c, 0, 72, 52
2, 51360, Note_on_c, 0, 72, 0
2, 51360, Note_on_c, 0, 69, 0
2, 51360, Note_on_c, 0, 68, 52
2, 51360, Note_on_c, 0, 76, 52
2, 51480, Note_on_c, 0, 76, 0
2, 51480, Note_on_c, 0, 68, 0
2, 51480, Note_on_c, 0, 69, 52
2, 51480, Note_on_c, 0, 72, 52
2, 51600, Note_on_c, 0, 72, 0
2, 51600, Note_on_c, 0, 69, 0
2, 51600, Note_on_c, 0, 68, 52
2, 51600, Note_on_c, 0, 76, 52
2, 51720, Note_on_c, 0, 76, 0
2, 51720, Note_on_c, 0, 68, 0
2, 51720, Note_on_c, 0, 69, 52
2, 51720, Note_on_c, 0, 72, 52
2, 51840, Note_on_c, 0, 72, 0
2, 51840, Note_on_c, 0, 69, 0
2, 51840, Note_on_c, 0, 68, 78
2, 51840, Note_on_c, 0, 77, 78
2, 52080, Note_on_c, 0, 77, 0
2, 52080, Note_on_c, 0, 68, 0
2, 52080, Note_on_c, 0, 69, 52
2, 52080, Note_on_c, 0, 72, 52
2, 52320, Note_on_c, 0, 72, 0
2, 52320, Note_on_c, 0, 69, 0
2, 52320, Note_on_c, 0, 68, 52
2, 52320, Note_on_c, 0, 77, 52
2, 52440, Note_on_c, 0, 77, 0
2, 52440, Note_on_c, 0, 68, 0
2, 52440, Note_on_c, 0, 69, 52
2, 52440, Note_on_c, 0, 72, 52
2, 52560, Note_on_c, 0, 72, 0
2, 52560, Note_on_c, 0, 69, 0
2, 52560, Note_on_c, 0, 68, 52
2, 52560, Note_on_c, 0, 77, 52
2, 52680, Note_on_c, 0, 77, 0
2, 52680, Note_on_c, 0, 68, 0
2, 52680, Note_on_c, 0, 69, 52
2, 52680, Note_on_c, 0, 72, 52
2, 52800, Note_on_c, 0, 72, 0
2, 52800, Note_on_c, 0, 69, 0
2, 52800, Note_on_c, 0, 68, 78
2, 52800, Note_on_c, 0, 76, 78
2, 53040, Note_on_c, 0, 76, 0
2, 53040, Note_on_c, 0, 68, 0
2, 53040, Note_on_c, 0, 69, 52
2, 53040, Note_on_c, 0, 72, 52
2, 53280, Note_on_c, 0, 72, 0
2, 53280, Note_on_c, 0, 69, 0
2, 53280, Note_on_c, 0, 68, 52
2, 53280, Note_on_c, 0, 76, 52
2, 53400, Note_on_c, 0, 76, 0
2, 53400, Note_on_c, 0, 68, 0
2, 53400, Note_on_c, 0, 69, 52
2, 53400, Note_on_c, 0, 72, 52
2, 53520, Note_on_c, 0, 72, 0
2, 53520, Note_on_c, 0, 69, 0
2, 53520, Note_on_c, 0, 68, 52
2, 53520, Note_on_c, 0, 76, 52
2, 53640, Note_on_c, 0, 76, 0
2, 53640, Note_on_c, 0, 68, 0
2, 53640, Note_on_c, 0, 69, 52
2, 53640, Note_on_c, 0, 72, 52
2, 53760, Note_on_c, 0, 72, 0
2, 53760, Note_on_c, 0, 69, 0
2, 53760, Note_on_c, 0, 68, 52
2, 53760, Note_on_c, 0, 74, 52
2, 54000, Note_on_c, 0, 74, 0
2, 54000, Note_on_c, 0, 68, 0
2, 54000, Note_on_c, 0, 69, 52
2, 54000, Note_on_c, 0, 72, 52
2, 54240, Note_on_c, 0, 72, 0
2, 54240, Note_on_c, 0, 69, 0
2, 54240, Note_on_c, 0, 68, 65
2, 54240, Note_on_c, 0, 74, 65
2, 54360, Note_on_c, 0, 74, 0
2, 54360, Note_on_c, 0, 68, 0
2, 54360, Note_on_c, 0, 69, 65
2, 54360, Note_on_c, 0, 72, 65
2, 54480, Note_on_c, 0, 72, 0
2, 54480, Note_on_c, 0, 69, 0
2, 54480, Note_on_c, 0, 68, 65
2, 54480, Note_on_c, 0, 74, 65
2, 54600, Note_on_c, 0, 74, 0
2, 54600, Note_on_c, 0, 68, 0
2, 54600, Note_on_c, 0, 69, 65
2, 54600, Note_on_c, 0, 72, 65
2, 54720, Note_on_c, 0, 72, 0
2, 54720, Note_on_c, 0, 69, 0
2, 54720, Note_on_c, 0, 68, 91
2, 54720, Note_on_c, 0, 76, 91
2, 54960, Note_on_c, 0, 76, 0
2, 54960, Note_on_c, 0, 68, 0
2, 54960, Note_on_c, 0, 69, 65
2, 54960, Note_on_c, 0, 72, 65
2, 55200, Note_on_c, 0, 72, 0
2, 55200, Note_on_c, 0, 69, 0
2, 55200, Note_on_c, 0, 68, 65
2, 55200, Note_on_c, 0, 76, 65
2, 55320, Note_on_c, 0, 76, 0
2, 55320, Note_on_c, 0, 68, 0
2, 55320, Note_on_c, 0, 69, 65
2, 55320, Note_on_c, 0, 72, 65
2, 55440, Note_on_c, 0, 72, 0
2, 55440, Note_on_c, 0, 69, 0
2, 55440, Note_on_c, 0, 68, 65
2, 55440, Note_on_c, 0, 76, 65
2, 55560, Note_on_c, 0, 76, 0
2, 55560, Note_on_c, 0, 68, 0
2, 55560, Note_on_c, 0, 69, 65
2, 55560, Note_on_c, 0, 72, 65
2, 55680, Note_on_c, 0, 72, 0
2, 55680, Note_on_c, 0, 69, 0
2, 55680, Note_on_c, 0, 68, 91
2, 55680, Note_on_c, 0, 77, 91
2, 55920, Note_on_c, 0, 77, 0
2, 55920, Note_on_c, 0, 68, 0
2, 55920, Note_on_c, 0, 69, 65
2, 55920, Note_on_c, 0, 72, 65
2, 56160, Note_on_c, 0, 72, 0
2, 56160, Note_on_c, 0, 69, 0
2, 56160, Note_on_c, 0, 68, 65
2, 56160, Note_on_c, 0, 77, 65
2, 56280, Note_on_c, 0, 77, 0
2, 56280, Note_on_c, 0, 68, 0
2, 56280, Note_on_c, 0, 69, 65
2, 56280, Note_on_c, 0, 72, 65
2, 56400, Note_on_c, 0, 72, 0
2, 56400, Note_on_c, 0, 69, 0
2, 56400, Note_on_c, 0, 68, 65
2, 56400, Note_on_c, 0, 77, 65
2, 56520, Note_on_c, 0, 77, 0
2, 56520, Note_on_c, 0, 68, 0
2, 56520, Note_on_c, 0, 69, 65
2, 56520, Note_on_c, 0, 72, 65
2, 56640, Note_on_c, 0, 72, 0
2, 56640, Note_on_c, 0, 69, 0
2, 56640, Note_on_c, 0, 68, 91
2, 56640, Note_on_c, 0, 76, 91
2, 56880, Note_on_c, 0, 76, 0
2, 56880, Note_on_c, 0, 68, 0
2, 56880, Note_on_c, 0, 69, 65
2, 56880, Note_on_c, 0, 72, 65
2, 57120, Note_on_c, 0, 72, 0
2, 57120, Note_on_c, 0, 69, 0
2, 57120, Note_on_c, 0, 68, 65
2, 57120, Note_on_c, 0, 76, 65
2, 57240, Note_on_c, 0, 76, 0
2, 57240, Note_on_c, 0, 68, 0
2, 57240, Note_on_c, 0, 69, 65
2, 57240, Note_on_c, 0, 72, 65
2, 57360, Note_on_c, 0, 72, 0
2, 57360, Note_on_c, 0, 69, 0
2, 57360, Note_on_c, 0, 68, 65
2, 57360, Note_on_c, 0, 76, 65
2, 57480, Note_on_c, 0, 76, 0
2, 57480, Note_on_c, 0, 68, 0
2, 57480, Note_on_c, 0, 69, 65
2, 57480, Note_on_c, 0, 72, 65
2, 57600, Note_on_c, 0, 72, 0
2, 57600, Note_on_c, 0, 69, 0
2, 57600, Note_on_c, 0, 66, 104
2, 57600, Note_on_c, 0, 74, 104
2, 57840, Note_on_c, 0, 74, 0
2, 57840, Note_on_c, 0, 66, 0
2, 57840, Note_on_c, 0, 67, 78
2, 57840, Note_on_c, 0, 70, 78
2, 58080, Note_on_c, 0, 70, 0
2, 58080, Note_on_c, 0, 67, 0
2, 58080, Control_c, 0, 64, 127
2, 58080, Note_on_c, 0, 79, 78
2, 58200, Note_on_c, 0, 79, 0
2, 58200, Note_on_c, 0, 81, 78
2, 58320, Note_on_c, 0, 81, 0
2, 58320, Note_on_c, 0, 82, 78
2, 58440, Note_on_c, 0, 82, 0
2, 58440, Control_c, 0, 64, 0
2, 58440, Note_on_c, 0, 79, 78
2, 58560, Note_on_c, 0, 79, 0
2, 58560, Control_c, 0, 64, 127
2, 58560, Note_on_c, 0, 81, 78
2, 58680, Note_on_c, 0, 81, 0
2, 58680, Note_on_c, 0, 79, 78
2, 58800, Note_on_c, 0, 79, 0
2, 58800, Note_on_c, 0, 76, 78
2, 58920, Note_on_c, 0, 76, 0
2, 58920, Control_c, 0, 64, 0
2, 58920, Note_on_c, 0, 69, 78
2, 59040, Note_on_c, 0, 69, 0
2, 59040, Control_c, 0, 64, 127
2, 59040, Note_on_c, 0, 88, 78
2, 59160, Note_on_c, 0, 88, 0
2, 59160, Note_on_c, 0, 89, 78
2, 59280, Note_on_c, 0, 89, 0
2, 59280, Note_on_c, 0, 91, 78
2, 59400, Note_on_c, 0, 91, 0
2, 59400, Control_c, 0, 64, 0
2, 59400, Note_on_c, 0, 92, 78
2, 59520, Note_on_c, 0, 92, 0
2, 59520, Control_c, 0, 64, 127
2, 59520, Note_on_c, 0, 93, 78
2, 59640, Note_on_c, 0, 93, 0
2, 59640, Note_on_c, 0, 89, 78
2, 59760, Note_on_c, 0, 89, 0
2, 59760, Note_on_c, 0, 86, 78
2, 59880, Note_on_c, 0, 86, 0
2, 59880, Control_c, 0, 64, 0
2, 59880, Note_on_c, 0, 81, 78
2, 60000, Note_on_c, 0, 81, 0
2, 60000, Control_c, 0, 64, 127
2, 60000, Note_on_c, 0, 77, 78
2, 60120, Note_on_c, 0, 77, 0
2, 60120, Note_on_c, 0, 79, 78
2, 60240, Note_on_c, 0, 79, 0
2, 60240, Note_on_c, 0, 80, 78
2, 60360, Note_on_c, 0, 80, 0
2, 60360, Control_c, 0, 64, 0
2, 60360, Note_on_c, 0, 77, 78
2, 60480, Note_on_c, 0, 77, 0
2, 60480, Control_c, 0, 64, 127
2, 60480, Note_on_c, 0, 79, 78
2, 60600, Note_on_c, 0, 79, 0
2, 60600, Note_on_c, 0, 77, 78
2, 60720, Note_on_c, 0, 77, 0
2, 60720, Note_on_c, 0, 74, 78
2, 60840, Note_on_c, 0, 74, 0
2, 60840, Control_c, 0, 64, 0
2, 60840, Note_on_c, 0, 67, 78
2, 60960, Note_on_c, 0, 67, 0
2, 60960, Control_c, 0, 64, 127
2, 60960, Note_on_c, 0, 86, 91
2, 61080, Note_on_c, 0, 86, 0
2, 61080, Note_on_c, 0, 88, 91
2, 61200, Note_on_c, 0, 88, 0
2, 61200, Note_on_c, 0, 89, 91
2, 61320, Note_on_c, 0, 89, 0
2, 61320, Control_c, 0, 64, 0
2, 61320, Note_on_c, 0, 90, 91
2, 61440, Note_on_c, 0, 90, 0
2, 61440, Control_c, 0, 64, 127
2, 61440, Note_on_c, 0, 91, 91
2, 61560, Note_on_c, 0, 91, 0
2, 61560, Note_on_c, 0, 88, 91
2, 61680, Note_on_c, 0, 88, 0
2, 61680, Note_on_c, 0, 84, 91
2, 61800, Note_on_c, 0, 84, 0
2, 61800, Control_c, 0, 64, 0
2, 61800, Note_on_c, 0, 79, 91
2, 61920, Note_on_c, 0, 79, 0
2, 61920, Control_c, 0, 64, 127
2, 61920, Note_on_c, 0, 78, 91
2, 62040, Note_on_c, 0, 78, 0
2, 62040, Note_on_c, 0, 79, 91
2, 62160, Note_on_c, 0, 79, 0
2, 62160, Note_on_c, 0, 81, 91
2, 62280, Note_on_c, 0, 81, 0
2, 62280, Control_c, 0, 64, 0
2, 62280, Note_on_c, 0, 83, 91
2, 62400, Note_on_c, 0, 83, 0
2, 62400, Control_c, 0, 64, 127
2, 62400, Note_on_c, 0, 84, 91
2, 62520, Note_on_c, 0, 84, 0
2, 62520, Note_on_c, 0, 81, 91
2, 62640, Note_on_c, 0, 81, 0
2, 62640, Note_on_c, 0, 76, 91
2, 62760, Note_on_c, 0, 76, 0
2, 62760, Control_c, 0, 64, 0
2, 62760, Note_on_c, 0, 77, 91
2, 62880, Note_on_c, 0, 77, 0
2, 62880, Control_c, 0, 64, 127
2, 62880, Note_on_c, 0, 87, 91
2, 63000, Note_on_c, 0, 87, 0
2, 63000, Note_on_c, 0, 84, 91
2, 63120, Note_on_c, 0, 84, 0
2, 63120, Note_on_c, 0, 80, 91
2, 63240, Note_on_c, 0, 80, 0
2, 63240, Control_c, 0, 64, 0
2, 63240, Note_on_c, 0, 81, 91
2, 63360, Note_on_c, 0, 81, 0
2, 63360, Control_c, 0, 64, 127
2, 63360, Note_on_c, 0, 88, 91
2, 63480, Note_on_c, 0, 88, 0
2, 63480, Note_on_c, 0, 84, 91
2, 63600, Note_on_c, 0, 84, 0
2, 63600, Note_on_c, 0, 78, 91
2, 63720, Note_on_c, 0, 78, 0
2, 63720, Control_c, 0, 64, 0
2, 63720, Note_on_c, 0, 79, 91
2, 63840, Note_on_c, 0, 79, 0
2, 63840, Control_c, 0, 64, 127
2, 63840, Note_on_c, 0, 90, 91
2, 63960, Note_on_c, 0, 90, 0
2, 63960, Note_on_c, 0, 87, 91
2, 64080, Note_on_c, 0, 87, 0
2, 64080, Note_on_c, 0, 83, 91
2, 64200, Note_on_c, 0, 83, 0
2, 64200, Control_c, 0, 64, 0
2, 64200, Note_on_c, 0, 84, 91
2, 64320, Note_on_c, 0, 84, 0
2, 64320, Control_c, 0, 64, 127
2, 64320, Note_on_c, 0, 91, 91
2, 64440, Note_on_c, 0, 91, 0
2, 64440, Note_on_c, 0, 88, 91
2, 64560, Note_on_c, 0, 88, 0
2, 64560, Note_on_c, 0, 84, 91
2, 64680, Note_on_c, 0, 84, 0
2, 64680, Control_c, 0, 64, 0
2, 64680, Note_on_c, 0, 85, 91
2, 64800, Note_on_c, 0, 85, 0
2, 64800, Control_c, 0, 64, 127
2, 64800, Note_on_c, 0, 86, 91
2, 64920, Note_on_c, 0, 86, 0
2, 64920, Note_on_c, 0, 91, 91
2, 65040, Note_on_c, 0, 91, 0
2, 65040, Note_on_c, 0, 93, 91
2, 65160, Note_on_c, 0, 93, 0
2, 65160, Control_c, 0, 64, 0
2, 65160, Note_on_c, 0, 95, 91
2, 65280, Note_on_c, 0, 95, 0
2, 65280, Note_on_c, 0, 84, 91
2, 65280, Note_on_c, 0, 96, 91
2, 65400, Note_on_c, 0, 96, 0
2, 65400, Note_on_c, 0, 84, 0
2, 65400, Note_on_c, 0, 91, 91
2, 65520, Note_on_c, 0, 91, 0
2, 65520, Note_on_c, 0, 88, 91
2, 65640, Note_on_c, 0, 88, 0
2, 65640, Note_on_c, 0, 84, 91
2, 65760, Note_on_c, 0, 84, 0
2, 65760, Note_on_c, 0, 68, 65
2, 65760, Note_on_c, 0, 74, 65
2, 65880, Note_on_c, 0, 74, 0
2, 65880, Note_on_c, 0, 68, 0
2, 65880, Note_on_c, 0, 69, 65
2, 65880, Note_on_c, 0, 72, 65
2, 66000, Note_on_c, 0, 72, 0
2, 66000, Note_on_c, 0, 69, 0
2, 66000, Note_on_c, 0, 68, 65
2, 66000, Note_on_c, 0, 74, 65
2, 66120, Note_on_c, 0, 74, 0
2, 66120, Note_on_c, 0, 68, 0
2, 66120, Note_on_c, 0, 69, 65
2, 66120, Note_on_c, 0, 72, 65
2, 66240, Note_on_c, 0, 72, 0
2, 66240, Note_on_c, 0, 69, 0
2, 66240, Note_on_c, 0, 68, 91
2, 66240, Note_on_c, 0, 76, 91
2, 66480, Note_on_c, 0, 76, 0
2, 66480, Note_on_c, 0, 68, 0
2, 66480, Note_on_c, 0, 69, 65
2, 66480, Note_on_c, 0, 72, 65
2, 66720, Note_on_c, 0, 72, 0
2, 66720, Note_on_c, 0, 69, 0
2, 66720, Note_on_c, 0, 68, 65
2, 66720, Note_on_c, 0, 76, 65
2, 66840, Note_on_c, 0, 76, 0
2, 66840, Note_on_c, 0, 68, 0
2, 66840, Note_on_c, 0, 69, 65
2, 66840, Note_on_c, 0, 72, 65
2, 66960, Note_on_c, 0, 72, 0
2, 66960, Note_on_c, 0, 69, 0
2, 66960, Note_on_c, 0, 68, 65
2, 66960, Note_on_c, 0, 76, 65
2, 67080, Note_on_c, 0, 76, 0
2, 67080, Note_on_c, 0, 68, 0
2, 67080, Note_on_c, 0, 69, 65
2, 67080, Note_on_c, 0, 72, 65
2, 67200, Note_on_c, 0, 72, 0
2, 67200, Note_on_c, 0, 69, 0
2, 67200, Note_on_c, 0, 68, 91
2, 67200, Note_on_c, 0, 77, 91
2, 67440, Note_on_c, 0, 77, 0
2, 67440, Note_on_c, 0, 68, 0
2, 67440, Note_on_c, 0, 69, 65
2, 67440, Note_on_c, 0, 72, 65
2, 67680, Note_on_c, 0, 72, 0
2, 67680, Note_on_c, 0, 69, 0
2, 67680, Note_on_c, 0, 68, 65
2, 67680, Note_on_c, 0, 77, 65
2, 67800, Note_on_c, 0, 77, 0
2, 67800, Note_on_c, 0, 68, 0
2, 67800, Note_on_c, 0, 69, 65
2, 67800, Note_on_c, 0, 72, 65
2, 67920, Note_on_c, 0, 72, 0
2, 67920, Note_on_c, 0, 69, 0
2, 67920, Note_on_c, 0, 68, 65
2, 67920, Note_on_c, 0, 77, 65
2, 68040, Note_on_c, 0, 77, 0
2, 68040, Note_on_c, 0, 68, 0
2, 68040, Note_on_c, 0, 69, 65
2, 68040, Note_on_c, 0, 72, 65
2, 68160, Note_on_c, 0, 72, 0
2, 68160, Note_on_c, 0, 69, 0
2, 68160, Note_on_c, 0, 68, 91
2, 68160, Note_on_c, 0, 76, 91
2, 68400, Note_on_c, 0, 76, 0
2, 68400, Note_on_c, 0, 68, 0
2, 68400, Note_on_c, 0, 69, 65
2, 68400, Note_on_c, 0, 72, 65
2, 68640, Note_on_c, 0, 72, 0
2, 68640, Note_on_c, 0, 69, 0
2, 68640, Note_on_c, 0, 68, 65
2, 68640, Note_on_c, 0, 76, 65
2, 68760, Note_on_c, 0, 76, 0
2, 68760, Note_on_c, 0, 68, 0
2, 68760, Note_on_c, 0, 69, 65
2, 68760, Note_on_c, 0, 72, 65
2, 68880, Note_on_c, 0, 72, 0
2, 68880, Note_on_c, 0, 69, 0
2, 68880, Note_on_c, 0, 68, 65
2, 68880, Note_on_c, 0, 76, 65
2, 69000, Note_on_c, 0, 76, 0
2, 69000, Note_on_c, 0, 68, 0
2, 69000, Note_on_c, 0, 69, 65
2, 69000, Note_on_c, 0, 72, 65
2, 69120, Note_on_c, 0, 72, 0
2, 69120, Note_on_c, 0, 69, 0
2, 69120, Note_on_c, 0, 68, 65
2, 69120, Note_on_c, 0, 74, 65
2, 69360, Note_on_c, 0, 74, 0
2, 69360, Note_on_c, 0, 68, 0
2, 69360, Note_on_c, 0, 69, 65
2, 69360, Note_on_c, 0, 72, 65
2, 69600, Note_on_c, 0, 72, 0
2, 69600, Note_on_c, 0, 69, 0
2, 69600, Note_on_c, 0, 68, 78
2, 69600, Note_on_c, 0, 74, 78
2, 69720, Note_on_c, 0, 74, 0
2, 69720, Note_on_c, 0, 68, 0
2, 69720, Note_on_c, 0, 69, 78
2, 69720, Note_on_c, 0, 72, 78
2, 69840, Note_on_c, 0, 72, 0
2, 69840, Note_on_c, 0, 69, 0
2, 69840, Note_on_c, 0, 68, 78
2, 69840, Note_on_c, 0, 74, 78
2, 69960, Note_on_c, 0, 74, 0
2, 69960, Note_on_c, 0, 68, 0
2, 69960, Note_on_c, 0, 69, 78
2, 69960, Note_on_c, 0, 72, 78
2, 70080, Note_on_c, 0, 72, 0
2, 70080, Note_on_c, 0, 69, 0
2, 70080, Note_on_c, 0, 68, 104
2, 70080, Note_on_c, 0, 76, 104
2, 70320, Note_on_c, 0, 76, 0
2, 70320, Note_on_c, 0, 68, 0
2, 70320, Note_on_c, 0, 69, 78
2, 70320, Note_on_c, 0, 72, 78
2, 70560, Note_on_c, 0, 72, 0
2, 70560, Note_on_c, 0, 69, 0
2, 70560, Note_on_c, 0, 68, 78
2, 70560, Note_on_c, 0, 76, 78
2, 70680, Note_on_c, 0, 76, 0
2, 70680, Note_on_c, 0, 68, 0
2, 70680, Note_on_c, 0, 69, 78
2, 70680, Note_on_c, 0, 72, 78
2, 70800, Note_on_c, 0, 72, 0
2, 70800, Note_on_c, 0, 69, 0
2, 70800, Note_on_c, 0, 68, 78
2, 70800, Note_on_c, 0, 76, 78
2, 70920, Note_on_c, 0, 76, 0
2, 70920, Note_on_c, 0, 68, 0
2, 70920, Note_on_c, 0, 69, 78
2, 70920, Note_on_c, 0, 72, 78
2, 71040, Note_on_c, 0, 72, 0
2, 71040, Note_on_c, 0, 69, 0
2, 71040, Note_on_c, 0, 68, 104
2, 71040, Note_on_c, 0, 77, 104
2, 71280, Note_on_c, 0, 77, 0
2, 71280, Note_on_c, 0, 68, 0
2, 71280, Note_on_c, 0, 69, 78
2, 71280, Note_on_c, 0, 72, 78
2, 71520, Note_on_c, 0, 72, 0
2, 71520, Note_on_c, 0, 69, 0
2, 71520, Note_on_c, 0, 68, 78
2, 71520, Note_on_c, 0, 77, 78
2, 71640, Note_on_c, 0, 77, 0
2, 71640, Note_on_c, 0, 68, 0
2, 71640, Note_on_c, 0, 69, 78
2, 71640, Note_on_c, 0, 72, 78
2, 71760, Note_on_c, 0, 72, 0
2, 71760, Note_on_c, 0, 69, 0
2, 71760, Note_on_c, 0, 68, 78
2, 71760, Note_on_c, 0, 77, 78
2, 71880, Note_on_c, 0, 77, 0
2, 71880, Note_on_c, 0, 68, 0
2, 71880, Note_on_c, 0, 69, 78
2, 71880, Note_on_c, 0, 72, 78
2, 72000, Note_on_c, 0, 72, 0
2, 72000, Note_on_c, 0, 69, 0
2, 72000, Note_on_c, 0, 68, 104
2, 72000, Note_on_c, 0, 76, 104
2, 72240, Note_on_c, 0, 76, 0
2, 72240, Note_on_c, 0, 68, 0
2, 72240, Note_on_c, 0, 69, 78
2, 72240, Note_on_c, 0, 72, 78
2, 72480, Note_on_c, 0, 72, 0
2, 72480, Note_on_c, 0, 69, 0
2, 72480, Note_on_c, 0, 68, 78
2, 72480, Note_on_c, 0, 76, 78
2, 72600, Note_on_c, 0, 76, 0
2, 72600, Note_on_c, 0, 68, 0
2, 72600, Note_on_c, 0, 69, 78
2, 72600, Note_on_c, 0, 72, 78
2, 72720, Note_on_c, 0, 72, 0
2, 72720, Note_on_c, 0, 69, 0
2, 72720, Note_on_c, 0, 68, 78
2, 72720, Note_on_c, 0, 76, 78
2, 72840, Note_on_c, 0, 76, 0
2, 72840, Note_on_c, 0, 68, 0
2, 72840, Note_on_c, 0, 69, 78
2, 72840, Note_on_c, 0, 72, 78
2, 72960, Note_on_c, 0, 72, 0
2, 72960, Note_on_c, 0, 69, 0
2, 72960, Note_on_c, 0, 66, 117
2, 72960, Note_on_c, 0, 74, 117
2, 73200, Note_on_c, 0, 74, 0
2, 73200, Note_on_c, 0, 66, 0
2, 73200, Note_on_c, 0, 67, 91
2, 73200, Note_on_c, 0, 70, 91
2, 73440, Note_on_c, 0, 70, 0
2, 73440, Note_on_c, 0, 67, 0
2, 73440, Control_c, 0, 64, 127
2, 73440, Note_on_c, 0, 74, 91
2, 73560, Note_on_c, 0, 74, 0
2, 73560, Note_on_c, 0, 76, 91
2, 73680, Note_on_c, 0, 76, 0
2, 73680, Note_on_c, 0, 77, 91
2, 73800, Note_on_c, 0, 77, 0
2, 73800, Control_c, 0, 64, 0
2, 73800, Note_on_c, 0, 79, 91
2, 73920, Note_on_c, 0, 79, 0
2, 73920, Control_c, 0, 64, 127
2, 73920, Note_on_c, 0, 80, 91
2, 74040, Note_on_c, 0, 80, 0
2, 74040, Note_on_c, 0, 77, 91
2, 74160, Note_on_c, 0, 77, 0
2, 74160, Note_on_c, 0, 73, 91
2, 74280, Note_on_c, 0, 73, 0
2, 74280, Control_c, 0, 64, 0
2, 74280, Note_on_c, 0, 74, 91
2, 74400, Note_on_c, 0, 74, 0
2, 74400, Control_c, 0, 64, 127
2, 74400, Note_on_c, 0, 86, 91
2, 74520, Note_on_c, 0, 86, 0
2, 74520, Note_on_c, 0, 88, 91
2, 74640, Note_on_c, 0, 88, 0
2, 74640, Note_on_c, 0, 89, 91
2, 74760, Note_on_c, 0, 89, 0
2, 74760, Control_c, 0, 64, 0
2, 74760, Note_on_c, 0, 91, 91
2, 74880, Note_on_c, 0, 91, 0
2, 74880, Control_c, 0, 64, 127
2, 74880, Note_on_c, 0, 93, 91
2, 75000, Note_on_c, 0, 93, 0
2, 75000, Note_on_c, 0, 89, 91
2, 75120, Note_on_c, 0, 89, 0
2, 75120, Note_on_c, 0, 83, 91
2, 75240, Note_on_c, 0, 83, 0
2, 75240, Control_c, 0, 64, 0
2, 75240, Note_on_c, 0, 84, 91
2, 75360, Note_on_c, 0, 84, 0
2, 75360, Control_c, 0, 64, 127
2, 75360, Note_on_c, 0, 74, 91
2, 75480, Note_on_c, 0, 74, 0
2, 75480, Note_on_c, 0, 76, 91
2, 75600, Note_on_c, 0, 76, 0
2, 75600, Note_on_c, 0, 77, 91
2, 75720, Note_on_c, 0, 77, 0
2, 75720, Control_c, 0, 64, 0
2, 75720, Note_on_c, 0, 79, 91
2, 75840, Note_on_c, 0, 79, 0
2, 75840, Control_c, 0, 64, 127
2, 75840, Note_on_c, 0, 81, 91
2, 75960, Note_on_c, 0, 81, 0
2, 75960, Note_on_c, 0, 79, 91
2, 76080, Note_on_c, 0, 79, 0
2, 76080, Note_on_c, 0, 75, 91
2, 76200, Note_on_c, 0, 75, 0
2, 76200, Control_c, 0, 64, 0
2, 76200, Note_on_c, 0, 76, 91
2, 76320, Note_on_c, 0, 76, 0
2, 76320, Control_c, 0, 64, 127
2, 76320, Note_on_c, 0, 87, 91
2, 76440, Note_on_c, 0, 87, 0
2, 76440, Note_on_c, 0, 88, 91
2, 76560, Note_on_c, 0, 88, 0
2, 76560, Note_on_c, 0, 89, 91
2, 76680, Note_on_c, 0, 89, 0
2, 76680, Control_c, 0, 64, 0
2, 76680, Note_on_c, 0, 91, 91
2, 76800, Note_on_c, 0, 91, 0
2, 76800, Control_c, 0, 64, 127
2, 76800, Note_on_c, 0, 93, 91
2, 76920, Note_on_c, 0, 93, 0
2, 76920, Note_on_c, 0, 89, 91
2, 77040, Note_on_c, 0, 89, 0
2, 77040, Note_on_c, 0, 85, 91
2, 77160, Note_on_c, 0, 85, 0
2, 77160, Control_c, 0, 64, 0
2, 77160, Note_on_c, 0, 86, 91
2, 77280, Note_on_c, 0, 86, 0
2, 77280, Control_c, 0, 64, 127
2, 77280, Note_on_c, 0, 74, 91
2, 77400, Note_on_c, 0, 74, 0
2, 77400, Note_on_c, 0, 76, 91
2, 77520, Note_on_c, 0, 76, 0
2, 77520, Note_on_c, 0, 77, 91
2, 77640, Note_on_c, 0, 77, 0
2, 77640, Control_c, 0, 64, 0
2, 77640, Note_on_c, 0, 79, 91
2, 77760, Note_on_c, 0, 79, 0
2, 77760, Control_c, 0, 64, 127
2, 77760, Note_on_c, 0, 81, 91
2, 77880, Note_on_c, 0, 81, 0
2, 77880, Note_on_c, 0, 77, 91
2, 78000, Note_on_c, 0, 77, 0
2, 78000, Note_on_c, 0, 79, 91
2, 78120, Note_on_c, 0, 79, 0
2, 78120, Note_on_c, 0, 81, 91
2, 78240, Note_on_c, 0, 81, 0
2, 78240, Control_c, 0, 64, 0
2, 78240, Note_on_c, 0, 82, 91
2, 78360, Note_on_c, 0, 82, 0
2, 78360, Note_on_c, 0, 79, 91
2, 78480, Note_on_c, 0, 79, 0
2, 78480, Note_on_c, 0, 81, 91
2, 78600, Note_on_c, 0, 81, 0
2, 78600, Note_on_c, 0, 82, 91
2, 78720, Note_on_c, 0, 82, 0
2, 78720, Note_on_c, 0, 83, 91
2, 78840, Note_on_c, 0, 83, 0
2, 78840, Control_c, 0, 64, 127
2, 78840, Note_on_c, 0, 80, 91
2, 78960, Note_on_c, 0, 80, 0
2, 78960, Note_on_c, 0, 81, 91
2, 79080, Note_on_c, 0, 81, 0
2, 79080, Note_on_c, 0, 83, 91
2, 79200, Note_on_c, 0, 83, 0
2, 79200, Control_c, 0, 64, 0
2, 79200, Note_on_c, 0, 84, 91
2, 79320, Note_on_c, 0, 84, 0
2, 79320, Control_c, 0, 64, 127
2, 79320, Note_on_c, 0, 81, 91
2, 79440, Note_on_c, 0, 81, 0
2, 79440, Note_on_c, 0, 82, 91
2, 79560, Note_on_c, 0, 82, 0
2, 79560, Note_on_c, 0, 84, 91
2, 79680, Note_on_c, 0, 84, 0
2, 79680, Control_c, 0, 64, 0
2, 79680, Note_on_c, 0, 86, 91
2, 79800, Note_on_c, 0, 86, 0
2, 79800, Control_c, 0, 64, 127
2, 79800, Note_on_c, 0, 82, 91
2, 79920, Note_on_c, 0, 82, 0
2, 79920, Note_on_c, 0, 84, 91
2, 80040, Note_on_c, 0, 84, 0
2, 80040, Note_on_c, 0, 86, 91
2, 80160, Note_on_c, 0, 86, 0
2, 80160, Control_c, 0, 64, 0
2, 80160, Note_on_c, 0, 88, 91
2, 80280, Note_on_c, 0, 88, 0
2, 80280, Control_c, 0, 64, 127
2, 80280, Note_on_c, 0, 84, 91
2, 80400, Note_on_c, 0, 84, 0
2, 80400, Note_on_c, 0, 86, 91
2, 80520, Note_on_c, 0, 86, 0
2, 80520, Note_on_c, 0, 88, 91
2, 80640, Note_on_c, 0, 88, 0
2, 80640, Control_c, 0, 64, 0
2, 80640, Note_on_c, 0, 89, 91
2, 80760, Note_on_c, 0, 89, 0
2, 80760, Control_c, 0, 64, 127
2, 80760, Note_on_c, 0, 81, 91
2, 80760, Note_on_c, 0, 84, 91
2, 80880, Note_on_c, 0, 84, 0
2, 80880, Note_on_c, 0, 81, 0
2, 80880, Note_on_c, 0, 80, 91
2, 80880, Note_on_c, 0, 86, 91
2, 81000, Note_on_c, 0, 86, 0
2, 81000, Note_on_c, 0, 80, 0
2, 81000, Note_on_c, 0, 81, 91
2, 81000, Note_on_c, 0, 84, 91
2, 81120, Note_on_c, 0, 84, 0
2, 81120, Note_on_c, 0, 81, 0
2, 81120, Note_on_c, 0, 80, 91
2, 81120, Note_on_c, 0, 86, 91
2, 81240, Note_on_c, 0, 86, 0
2, 81240, Note_on_c, 0, 80, 0
2, 81240, Note_on_c, 0, 81, 91
2, 81240, Note_on_c, 0, 84, 91
2, 81360, Note_on_c, 0, 84, 0
2, 81360, Note_on_c, 0, 81, 0
2, 81360, Note_on_c, 0, 79, 91
2, 81360, Note_on_c, 0, 88, 91
2, 81480, Note_on_c, 0, 88, 0
2, 81480, Note_on_c, 0, 79, 0
2, 81480, Control_c, 0, 64, 0
2, 81480, Note_on_c, 0, 80, 91
2, 81480, Note_on_c, 0, 86, 91
2, 81600, Note_on_c, 0, 86, 0
2, 81600, Note_on_c, 0, 80, 0
2, 81600, Control_c, 0, 64, 127
2, 81600, Note_on_c, 0, 80, 91
2, 81600, Note_on_c, 0, 89, 91
2, 81720, Note_on_c, 0, 89, 0
2, 81720, Note_on_c, 0, 80, 0
2, 81720, Note_on_c, 0, 81, 91
2, 81720, Note_on_c, 0, 84, 91
2, 81840, Note_on_c, 0, 84, 0
2, 81840, Note_on_c, 0, 81, 0
2, 81840, Note_on_c, 0, 80, 91
2, 81840, Note_on_c, 0, 86, 91
2, 81960, Note_on_c, 0, 86, 0
2, 81960, Note_on_c, 0, 80, 0
2, 81960, Note_on_c, 0, 81, 91
2, 81960, Note_on_c, 0, 84, 91
2, 82080, Note_on_c, 0, 84, 0
2, 82080, Note_on_c, 0, 81, 0
2, 82080, Note_on_c, 0, 80, 91
2, 82080, Note_on_c, 0, 86, 91
2, 82200, Note_on_c, 0, 86, 0
2, 82200, Note_on_c, 0, 80, 0
2, 82200, Note_on_c, 0, 81, 91
2, 82200, Note_on_c, 0, 84, 91
2, 82320, Note_on_c, 0, 84, 0
2, 82320, Note_on_c, 0, 81, 0
2, 82320, Note_on_c, 0, 79, 91
2, 82320, Note_on_c, 0, 88, 91
2, 82440, Note_on_c, 0, 88, 0
2, 82440, Note_on_c, 0, 79, 0
2, 82440, Control_c, 0, 64, 0
2, 82440, Note_on_c, 0, 80, 91
2, 82440, Note_on_c, 0, 86, 91
2, 82560, Note_on_c, 0, 86, 0
2, 82560, Note_on_c, 0, 80, 0
2, 82560, Control_c, 0, 64, 127
2, 82560, Note_on_c, 0, 80, 91
2, 82560, Note_on_c, 0, 89, 91
2, 82680, Note_on_c, 0, 89, 0
2, 82680, Note_on_c, 0, 80, 0
2, 82680, Note_on_c, 0, 81, 91
2, 82680, Note_on_c, 0, 84, 91
2, 82800, Note_on_c, 0, 84, 0
2, 82800, Note_on_c, 0, 81, 0
2, 82800, Note_on_c, 0, 79, 91
2, 82800, Note_on_c, 0, 88, 91
2, 82920, Note_on_c, 0, 88, 0
2, 82920, Note_on_c, 0, 79, 0
2, 82920, Note_on_c, 0, 80, 91
2, 82920, Note_on_c, 0, 86, 91
2, 83040, Note_on_c, 0, 86, 0
2, 83040, Note_on_c, 0, 80, 0
2, 83040, Note_on_c, 0, 80, 91
2, 83040, Note_on_c, 0, 89, 91
2, 83160, Note_on_c, 0, 89, 0
2, 83160, Note_on_c, 0, 80, 0
2, 83160, Note_on_c, 0, 81, 91
2, 83160, Note_on_c, 0, 84, 91
2, 83280, Note_on_c, 0, 84, 0
2, 83280, Note_on_c, 0, 81, 0
2, 83280, Note_on_c, 0, 79, 91
2, 83280, Note_on_c, 0, 88, 91
2, 83400, Note_on_c, 0, 88, 0
2, 83400, Note_on_c, 0, 79, 0
2, 83400, Control_c, 0, 64, 0
2, 83400, Note_on_c, 0, 80, 91
2, 83400, Note_on_c, 0, 86, 91
2, 83520, Note_on_c, 0, 86, 0
2, 83520, Note_on_c, 0, 80, 0
2, 83520, Control_c, 0, 64, 127
2, 83520, Note_on_c, 0, 80, 91
2, 83520, Note_on_c, 0, 89, 91
2, 83640, Note_on_c, 0, 89, 0
2, 83640, Note_on_c, 0, 80, 0
2, 83640, Note_on_c, 0, 81, 91
2, 83640, Note_on_c, 0, 84, 91
2, 83760, Note_on_c, 0, 84, 0
2, 83760, Note_on_c, 0, 81, 0
2, 83760, Note_on_c, 0, 79, 91
2, 83760, Note_on_c, 0, 88, 91
2, 83880, Note_on_c, 0, 88, 0
2, 83880, Note_on_c, 0, 79, 0
2, 83880, Note_on_c, 0, 80, 91
2, 83880, Note_on_c, 0, 86, 91
2, 84000, Note_on_c, 0, 86, 0
2, 84000, Note_on_c, 0, 80, 0
2, 84000, Note_on_c, 0, 80, 91
2, 84000, Note_on_c, 0, 89, 91
2, 84120, Note_on_c, 0, 89, 0
2, 84120, Note_on_c, 0, 80, 0
2, 84120, Note_on_c, 0, 81, 91
2, 84120, Note_on_c, 0, 84, 91
2, 84240, Note_on_c, 0, 84, 0
2, 84240, Note_on_c, 0, 81, 0
2, 84240, Note_on_c, 0, 79, 91
2, 84240, Note_on_c, 0, 88, 91
2, 84360, Note_on_c, 0, 88, 0
2, 84360, Note_on_c, 0, 79, 0
2, 84360, Control_c, 0, 64, 0
2, 84360, Note_on_c, 0, 80, 91
2, 84360, Note_on_c, 0, 86, 91
2, 84480, Note_on_c, 0, 86, 0
2, 84480, Note_on_c, 0, 80, 0
2, 84480, Note_on_c, 0, 81, 91
2, 84480, Note_on_c, 0, 89, 91
2, 84720, Note_on_c, 0, 89, 0
2, 84720, Note_on_c, 0, 81, 0
2, 84720, Note_on_c, 0, 77, 91
2, 84840, Note_on_c, 0, 77, 0
2, 84840, Note_on_c, 0, 77, 91
2, 84960, Note_on_c, 0, 77, 0
2, 84960, Note_on_c, 0, 77, 91
2, 85200, Note_on_c, 0, 77, 0
2, 85200, Note_on_c, 0, 69, 91
2, 85200, Note_on_c, 0, 72, 91
2, 85200, Note_on_c, 0, 77, 91
2, 85200, Note_on_c, 0, 81, 91
2, 85440, Note_on_c, 0, 81, 0
2, 85440, Note_on_c, 0, 69, 0
2, 85440, Note_on_c, 0, 72, 0
2, 85440, Note_on_c, 0, 77, 0
2, 85440, Note_on_c, 0, 65, 117
2, 85920, Note_on_c, 0, 65, 0
2, 85920, Control_c, 0, 64, 127
2, 88800, Control_c, 0, 64, 0
2, 88800, End_track
3, 0, Start_track
3, 0, Title_t, "Grand Piano"
3, 0, Program_c, 0, 0
3, 0, Control_c, 0, 7, 115
3, 0, Control_c, 0, 10, 79
3, 36960, Note_on_c, 0, 65, 49
3, 37200, Note_on_c, 0, 65, 0
3, 37200, Note_on_c, 0, 63, 49
3, 37200, Note_on_c, 0, 66, 49
3, 37440, Note_on_c, 0, 66, 0
3, 37440, Note_on_c, 0, 63, 0
3, 37440, Note_on_c, 0, 62, 49
3, 37440, Note_on_c, 0, 67, 49
3, 37680, Note_on_c, 0, 67, 0
3, 37680, Note_on_c, 0, 62, 0
3, 37920, Note_on_c, 0, 55, 49
3, 37920, Note_on_c, 0, 59, 49
3, 37920, Note_on_c, 0, 65, 49
3, 38400, Note_on_c, 0, 65, 0
3, 38400, Note_on_c, 0, 59, 0
3, 38400, Note_on_c, 0, 55, 0
3, 38400, Note_on_c, 0, 60, 49
3, 38400, Note_on_c, 0, 64, 49
3, 38640, Note_on_c, 0, 64, 0
3, 38640, Note_on_c, 0, 60, 0
3, 43200, Control_c, 0, 64, 127
3, 43200, Note_on_c, 0, 58, 62
3, 43320, Note_on_c, 0, 58, 0
3, 43320, Note_on_c, 0, 57, 62
3, 43440, Note_on_c, 0, 57, 0
3, 43440, Note_on_c, 0, 56, 62
3, 43560, Note_on_c, 0, 56, 0
3, 43560, Control_c, 0, 64, 0
3, 43560, Note_on_c, 0, 57, 62
3, 43680, Note_on_c, 0, 57, 0
3, 44160, Control_c, 0, 64, 127
3, 44160, Note_on_c, 0, 60, 62
3, 44280, Note_on_c, 0, 60, 0
3, 44280, Note_on_c, 0, 59, 62
3, 44400, Note_on_c, 0, 59, 0
3, 44400, Note_on_c, 0, 58, 62
3, 44520, Note_on_c, 0, 58, 0
3, 44520, Control_c, 0, 64, 0
3, 44520, Note_on_c, 0, 59, 62
3, 44640, Note_on_c, 0, 59, 0
3, 44640, End_track
4, 0, Start_track
4, 0, Title_t, "Grand Piano"
4, 0, Program_c, 0, 0
4, 0, Control_c, 0, 7, 115
4, 0, Control_c, 0, 10, 41
4, 480, Note_on_c, 0, 48, 96
4, 527, Note_on_c, 0, 48, 0
4, 720, Note_on_c, 0, 60, 96
4, 767, Note_on_c, 0, 60, 0
4, 1440, Note_on_c, 0, 48, 83
4, 1487, Note_on_c, 0, 48, 0
4, 1680, Note_on_c, 0, 60, 83
4, 1727, Note_on_c, 0, 60, 0
4, 2400, Note_on_c, 0, 48, 70
4, 2447, Note_on_c, 0, 48, 0
4, 2640, Note_on_c, 0, 60, 70
4, 2687, Note_on_c, 0, 60, 0
4, 3360, Note_on_c, 0, 48, 57
4, 3407, Note_on_c, 0, 48, 0
4, 3600, Note_on_c, 0, 60, 57
4, 3647, Note_on_c, 0, 60, 0
4, 4320, Note_on_c, 0, 48, 57
4, 4367, Note_on_c, 0, 48, 0
4, 4560, Note_on_c, 0, 60, 57
4, 4607, Note_on_c, 0, 60, 0
4, 4800, Note_on_c, 0, 60, 57
4, 4847, Note_on_c, 0, 60, 0
4, 5040, Note_on_c, 0, 48, 57
4, 5087, Note_on_c, 0, 48, 0
4, 5280, Note_on_c, 0, 48, 57
4, 5327, Note_on_c, 0, 48, 0
4, 5520, Note_on_c, 0, 60, 57
4, 5567, Note_on_c, 0, 60, 0
4, 5760, Note_on_c, 0, 60, 57
4, 5807, Note_on_c, 0, 60, 0
4, 6000, Note_on_c, 0, 48, 57
4, 6047, Note_on_c, 0, 48, 0
4, 6240, Note_on_c, 0, 41, 57
4, 6240, Note_on_c, 0, 48, 57
4, 6287, Note_on_c, 0, 48, 0
4, 6287, Note_on_c, 0, 41, 0
4, 6480, Note_on_c, 0, 60, 57
4, 6527, Note_on_c, 0, 60, 0
4, 6720, Note_on_c, 0, 60, 57
4, 6767, Note_on_c, 0, 60, 0
4, 6960, Note_on_c, 0, 48, 57
4, 7007, Note_on_c, 0, 48, 0
4, 7200, Note_on_c, 0, 48, 57
4, 7247, Note_on_c, 0, 48, 0
4, 7440, Note_on_c, 0, 60, 57
4, 7487, Note_on_c, 0, 60, 0
4, 7680, Note_on_c, 0, 60, 57
4, 7727, Note_on_c, 0, 60, 0
4, 7920, Note_on_c, 0, 48, 57
4, 7967, Note_on_c, 0, 48, 0
4, 8160, Note_on_c, 0, 41, 57
4, 8160, Note_on_c, 0, 48, 57
4, 8207, Note_on_c, 0, 48, 0
4, 8207, Note_on_c, 0, 41, 0
4, 8400, Note_on_c, 0, 60, 57
4, 8447, Note_on_c, 0, 60, 0
4, 8640, Note_on_c, 0, 60, 57
4, 8687, Note_on_c, 0, 60, 0
4, 8880, Note_on_c, 0, 48, 57
4, 8927, Note_on_c, 0, 48, 0
4, 9120, Note_on_c, 0, 48, 57
4, 9167, Note_on_c, 0, 48, 0
4, 9360, Note_on_c, 0, 60, 57
4, 9407, Note_on_c, 0, 60, 0
4, 9600, Note_on_c, 0, 60, 57
4, 9647, Note_on_c, 0, 60, 0
4, 9840, Note_on_c, 0, 48, 57
4, 9887, Note_on_c, 0, 48, 0
4, 10080, Note_on_c, 0, 41, 57
4, 10080, Note_on_c, 0, 48, 57
4, 10127, Note_on_c, 0, 48, 0
4, 10127, Note_on_c, 0, 41, 0
4, 10320, Note_on_c, 0, 60, 57
4, 10367, Note_on_c, 0, 60, 0
4, 10560, Note_on_c, 0, 60, 57
4, 10607, Note_on_c, 0, 60, 0
4, 10800, Note_on_c, 0, 48, 57
4, 10847, Note_on_c, 0, 48, 0
4, 11040, Note_on_c, 0, 48, 57
4, 11087, Note_on_c, 0, 48, 0
4, 11280, Note_on_c, 0, 60, 57
4, 11327, Note_on_c, 0, 60, 0
4, 11520, Note_on_c, 0, 60, 57
4, 11567, Note_on_c, 0, 60, 0
4, 11760, Note_on_c, 0, 48, 57
4, 11807, Note_on_c, 0, 48, 0
4, 12000, Note_on_c, 0, 52, 57
4, 12000, Note_on_c, 0, 60, 57
4, 12240, Note_on_c, 0, 60, 0
4, 12240, Note_on_c, 0, 52, 0
4, 12240, Note_on_c, 0, 50, 57
4, 12240, Note_on_c, 0, 55, 57
4, 12480, Note_on_c, 0, 55, 0
4, 12480, Note_on_c, 0, 50, 0
4, 12480, Note_on_c, 0, 49, 57
4, 12480, Note_on_c, 0, 55, 57
4, 12480, Note_on_c, 0, 57, 57
4, 12720, Note_on_c, 0, 57, 0
4, 12720, Note_on_c, 0, 55, 0
4, 12720, Note_on_c, 0, 49, 0
4, 12960, Note_on_c, 0, 45, 57
4, 12960, Note_on_c, 0, 49, 57
4, 12960, Note_on_c, 0, 55, 57
4, 13200, Note_on_c, 0, 55, 0
4, 13200, Note_on_c, 0, 49, 0
4, 13200, Note_on_c, 0, 45, 0
4, 13440, Note_on_c, 0, 50, 57
4, 13440, Note_on_c, 0, 53, 57
4, 13680, Note_on_c, 0, 53, 0
4, 13680, Note_on_c, 0, 50, 0
4, 13920, Note_on_c, 0, 50, 57
4, 13920, Note_on_c, 0, 53, 57
4, 13920, Note_on_c, 0, 56, 57
4, 13920, Note_on_c, 0, 59, 57
4, 14160, Note_on_c, 0, 59, 0
4, 14160, Note_on_c, 0, 50, 0
4, 14160, Note_on_c, 0, 53, 0
4, 14160, Note_on_c, 0, 56, 0
4, 14160, Note_on_c, 0, 48, 57
4, 14160, Note_on_c, 0, 53, 57
4, 14160, Note_on_c, 0, 56, 57
4, 14160, Note_on_c, 0, 60, 57
4, 14400, Note_on_c, 0, 60, 0
4, 14400, Note_on_c, 0, 48, 0
4, 14400, Note_on_c, 0, 53, 0
4, 14400, Note_on_c, 0, 56, 0
4, 14400, Note_on_c, 0, 47, 57
4, 14400, Note_on_c, 0, 53, 57
4, 14400, Note_on_c, 0, 55, 57
4, 14640, Note_on_c, 0, 55, 0
4, 14640, Note_on_c, 0, 53, 0
4, 14640, Note_on_c, 0, 47, 0
4, 14880, Note_on_c, 0, 43, 57
4, 14880, Note_on_c, 0, 47, 57
4, 14880, Note_on_c, 0, 53, 57
4, 15120, Note_on_c, 0, 53, 0
4, 15120, Note_on_c, 0, 47, 0
4, 15120, Note_on_c, 0, 43, 0
4, 15360, Note_on_c, 0, 48, 57
4, 15360, Note_on_c, 0, 52, 57
4, 15600, Note_on_c, 0, 52, 0
4, 15600, Note_on_c, 0, 48, 0
4, 15840, Note_on_c, 0, 52, 57
4, 16080, Note_on_c, 0, 52, 0
4, 16080, Note_on_c, 0, 55, 57
4, 16080, Note_on_c, 0, 60, 57
4, 16320, Note_on_c, 0, 60, 0
4, 16320, Note_on_c, 0, 55, 0
4, 16320, Note_on_c, 0, 53, 57
4, 16560, Note_on_c, 0, 53, 0
4, 16560, Note_on_c, 0, 57, 57
4, 16560, Note_on_c, 0, 60, 57
4, 16800, Note_on_c, 0, 60, 0
4, 16800, Note_on_c, 0, 57, 0
4, 16800, Note_on_c, 0, 54, 57
4, 17040, Note_on_c, 0, 54, 0
4, 17040, Note_on_c, 0, 60, 57
4, 17040, Note_on_c, 0, 63, 57
4, 17280, Note_on_c, 0, 63, 0
4, 17280, Note_on_c, 0, 60, 0
4, 17280, Note_on_c, 0, 55, 57
4, 17520, Note_on_c, 0, 55, 0
4, 17520, Note_on_c, 0, 60, 57
4, 17520, Note_on_c, 0, 64, 57
4, 17760, Note_on_c, 0, 64, 0
4, 17760, Note_on_c, 0, 60, 0
4, 17760, Note_on_c, 0, 57, 57
4, 18000, Note_on_c, 0, 57, 0
4, 18000, Note_on_c, 0, 63, 57
4, 18000, Note_on_c, 0, 66, 57
4, 18240, Note_on_c, 0, 66, 0
4, 18240, Note_on_c, 0, 63, 0
4, 18240, Note_on_c, 0, 58, 83
4, 18480, Note_on_c, 0, 58, 0
4, 18480, Note_on_c, 0, 64, 83
4, 18480, Note_on_c, 0, 67, 83
4, 18720, Note_on_c, 0, 67, 0
4, 18720, Note_on_c, 0, 64, 0
4, 18720, Note_on_c, 0, 59, 83
4, 18960, Note_on_c, 0, 59, 0
4, 18960, Note_on_c, 0, 55, 83
4, 18960, Note_on_c, 0, 62, 83
4, 18960, Note_on_c, 0, 65, 83
4, 18960, Note_on_c, 0, 67, 83
4, 19200, Note_on_c, 0, 67, 0
4, 19200, Note_on_c, 0, 55, 0
4, 19200, Note_on_c, 0, 62, 0
4, 19200, Note_on_c, 0, 65, 0
4, 19200, Note_on_c, 0, 48, 83
4, 19200, Note_on_c, 0, 55, 83
4, 19200, Note_on_c, 0, 64, 83
4, 19440, Note_on_c, 0, 64, 0
4, 19440, Note_on_c, 0, 55, 0
4, 19440, Note_on_c, 0, 48, 0
4, 19680, Note_on_c, 0, 48, 57
4, 19727, Note_on_c, 0, 48, 0
4, 19920, Note_on_c, 0, 60, 57
4, 19967, Note_on_c, 0, 60, 0
4, 20160, Note_on_c, 0, 60, 57
4, 20207, Note_on_c, 0, 60, 0
4, 20400, Note_on_c, 0, 48, 57
4, 20447, Note_on_c, 0, 48, 0
4, 20640, Note_on_c, 0, 48, 57
4, 20687, Note_on_c, 0, 48, 0
4, 20880, Note_on_c, 0, 60, 57
4, 20927, Note_on_c, 0, 60, 0
4, 21120, Note_on_c, 0, 60, 57
4, 21167, Note_on_c, 0, 60, 0
4, 21360, Note_on_c, 0, 48, 57
4, 21407, Note_on_c, 0, 48, 0
4, 21600, Note_on_c, 0, 41, 57
4, 21600, Note_on_c, 0, 48, 57
4, 21647, Note_on_c, 0, 48, 0
4, 21647, Note_on_c, 0, 41, 0
4, 21840, Note_on_c, 0, 60, 57
4, 21887, Note_on_c, 0, 60, 0
4, 22080, Note_on_c, 0, 60, 57
4, 22127, Note_on_c, 0, 60, 0
4, 22320, Note_on_c, 0, 48, 57
4, 22367, Note_on_c, 0, 48, 0
4, 22560, Note_on_c, 0, 48, 57
4, 22607, Note_on_c, 0, 48, 0
4, 22800, Note_on_c, 0, 60, 57
4, 22847, Note_on_c, 0, 60, 0
4, 23040, Note_on_c, 0, 60, 57
4, 23087, Note_on_c, 0, 60, 0
4, 23280, Note_on_c, 0, 48, 57
4, 23327, Note_on_c, 0, 48, 0
4, 23520, Note_on_c, 0, 41, 57
4, 23520, Note_on_c, 0, 48, 57
4, 23567, Note_on_c, 0, 48, 0
4, 23567, Note_on_c, 0, 41, 0
4, 23760, Note_on_c, 0, 60, 57
4, 23807, Note_on_c, 0, 60, 0
4, 24000, Note_on_c, 0, 60, 57
4, 24047, Note_on_c, 0, 60, 0
4, 24240, Note_on_c, 0, 48, 57
4, 24287, Note_on_c, 0, 48, 0
4, 24480, Note_on_c, 0, 48, 57
4, 24527, Note_on_c, 0, 48, 0
4, 24720, Note_on_c, 0, 60, 57
4, 24767, Note_on_c, 0, 60, 0
4, 24960, Note_on_c, 0, 60, 57
4, 25007, Note_on_c, 0, 60, 0
4, 25200, Note_on_c, 0, 48, 57
4, 25247, Note_on_c, 0, 48, 0
4, 25440, Note_on_c, 0, 41, 57
4, 25440, Note_on_c, 0, 48, 57
4, 25487, Note_on_c, 0, 48, 0
4, 25487, Note_on_c, 0, 41, 0
4, 25680, Note_on_c, 0, 60, 57
4, 25727, Note_on_c, 0, 60, 0
4, 25920, Note_on_c, 0, 60, 57
4, 25967, Note_on_c, 0, 60, 0
4, 26160, Note_on_c, 0, 48, 57
4, 26207, Note_on_c, 0, 48, 0
4, 26400, Note_on_c, 0, 48, 57
4, 26447, Note_on_c, 0, 48, 0
4, 26640, Note_on_c, 0, 60, 57
4, 26687, Note_on_c, 0, 60, 0
4, 26880, Note_on_c, 0, 60, 57
4, 26927, Note_on_c, 0, 60, 0
4, 27120, Note_on_c, 0, 48, 57
4, 27167, Note_on_c, 0, 48, 0
4, 27360, Note_on_c, 0, 52, 57
4, 27360, Note_on_c, 0, 60, 57
4, 27600, Note_on_c, 0, 60, 0
4, 27600, Note_on_c, 0, 52, 0
4, 27600, Note_on_c, 0, 50, 57
4, 27600, Note_on_c, 0, 55, 57
4, 27840, Note_on_c, 0, 55, 0
4, 27840, Note_on_c, 0, 50, 0
4, 27840, Note_on_c, 0, 49, 57
4, 27840, Note_on_c, 0, 55, 57
4, 27840, Note_on_c, 0, 57, 57
4, 28080, Note_on_c, 0, 57, 0
4, 28080, Note_on_c, 0, 55, 0
4, 28080, Note_on_c, 0, 49, 0
4, 28320, Note_on_c, 0, 45, 57
4, 28320, Note_on_c, 0, 49, 57
4, 28320, Note_on_c, 0, 55, 57
4, 28560, Note_on_c, 0, 55, 0
4, 28560, Note_on_c, 0, 49, 0
4, 28560, Note_on_c, 0, 45, 0
4, 28800, Note_on_c, 0, 50, 57
4, 28800, Note_on_c, 0, 53, 57
4, 29040, Note_on_c, 0, 53, 0
4, 29040, Note_on_c, 0, 50, 0
4, 29280, Note_on_c, 0, 50, 57
4, 29280, Note_on_c, 0, 53, 57
4, 29280, Note_on_c, 0, 56, 57
4, 29280, Note_on_c, 0, 59, 57
4, 29520, Note_on_c, 0, 59, 0
4, 29520, Note_on_c, 0, 50, 0
4, 29520, Note_on_c, 0, 53, 0
4, 29520, Note_on_c, 0, 56, 0
4, 29520, Note_on_c, 0, 48, 57
4, 29520, Note_on_c, 0, 53, 57
4, 29520, Note_on_c, 0, 56, 57
4, 29520, Note_on_c, 0, 60, 57
4, 29760, Note_on_c, 0, 60, 0
4, 29760, Note_on_c, 0, 48, 0
4, 29760, Note_on_c, 0, 53, 0
4, 29760, Note_on_c, 0, 56, 0
4, 29760, Note_on_c, 0, 47, 57
4, 29760, Note_on_c, 0, 53, 57
4, 29760, Note_on_c, 0, 55, 57
4, 30000, Note_on_c, 0, 55, 0
4, 30000, Note_on_c, 0, 53, 0
4, 30000, Note_on_c, 0, 47, 0
4, 30240, Note_on_c, 0, 43, 57
4, 30240, Note_on_c, 0, 47, 57
4, 30240, Note_on_c, 0, 53, 57
4, 30480, Note_on_c, 0, 53, 0
4, 30480, Note_on_c, 0, 47, 0
4, 30480, Note_on_c, 0, 43, 0
4, 30720, Note_on_c, 0, 48, 57
4, 30720, Note_on_c, 0, 52, 57
4, 30960, Note_on_c, 0, 52, 0
4, 30960, Note_on_c, 0, 48, 0
4, 31200, Note_on_c, 0, 52, 57
4, 31440, Note_on_c, 0, 52, 0
4, 31440, Note_on_c, 0, 55, 57
4, 31440, Note_on_c, 0, 60, 57
4, 31680, Note_on_c, 0, 60, 0
4, 31680, Note_on_c, 0, 55, 0
4, 31680, Note_on_c, 0, 53, 57
4, 31920, Note_on_c, 0, 53, 0
4, 31920, Note_on_c, 0, 57, 57
4, 31920, Note_on_c, 0, 60, 57
4, 32160, Note_on_c, 0, 60, 0
4, 32160, Note_on_c, 0, 57, 0
4, 32160, Note_on_c, 0, 54, 57
4, 32400, Note_on_c, 0, 54, 0
4, 32400, Note_on_c, 0, 60, 57
4, 32400, Note_on_c, 0, 63, 57
4, 32640, Note_on_c, 0, 63, 0
4, 32640, Note_on_c, 0, 60, 0
4, 32640, Note_on_c, 0, 55, 57
4, 32880, Note_on_c, 0, 55, 0
4, 32880, Note_on_c, 0, 60, 57
4, 32880, Note_on_c, 0, 64, 57
4, 33120, Note_on_c, 0, 64, 0
4, 33120, Note_on_c, 0, 60, 0
4, 33120, Note_on_c, 0, 57, 57
4, 33360, Note_on_c, 0, 57, 0
4, 33360, Note_on_c, 0, 63, 57
4, 33360, Note_on_c, 0, 66, 57
4, 33600, Note_on_c, 0, 66, 0
4, 33600, Note_on_c, 0, 63, 0
4, 33600, Note_on_c, 0, 58, 83
4, 33840, Note_on_c, 0, 58, 0
4, 33840, Note_on_c, 0, 64, 83
4, 33840, Note_on_c, 0, 67, 83
4, 34080, Note_on_c, 0, 67, 0
4, 34080, Note_on_c, 0, 64, 0
4, 34080, Note_on_c, 0, 59, 83
4, 34320, Note_on_c, 0, 59, 0
4, 34320, Note_on_c, 0, 55, 83
4, 34320, Note_on_c, 0, 62, 83
4, 34320, Note_on_c, 0, 65, 83
4, 34320, Note_on_c, 0, 67, 83
4, 34560, Note_on_c, 0, 67, 0
4, 34560, Note_on_c, 0, 55, 0
4, 34560, Note_on_c, 0, 62, 0
4, 34560, Note_on_c, 0, 65, 0
4, 34560, Note_on_c, 0, 48, 83
4, 34560, Note_on_c, 0, 55, 83
4, 34560, Note_on_c, 0, 64, 83
4, 34800, Note_on_c, 0, 64, 0
4, 34800, Note_on_c, 0, 55, 0
4, 34800, Note_on_c, 0, 48, 0
4, 35040, Note_on_c, 0, 53, 44
4, 35280, Note_on_c, 0, 53, 0
4, 35280, Note_on_c, 0, 51, 44
4, 35280, Note_on_c, 0, 54, 44
4, 35520, Note_on_c, 0, 54, 0
4, 35520, Note_on_c, 0, 51, 0
4, 35520, Note_on_c, 0, 50, 44
4, 35520, Note_on_c, 0, 55, 44
4, 35760, Note_on_c, 0, 55, 0
4, 35760, Note_on_c, 0, 50, 0
4, 36000, Note_on_c, 0, 47, 44
4, 36000, Note_on_c, 0, 53, 44
4, 36480, Note_on_c, 0, 53, 0
4, 36480, Note_on_c, 0, 47, 0
4, 36480, Note_on_c, 0, 52, 44
4, 36720, Note_on_c, 0, 52, 0
4, 36960, Note_on_c, 0, 60, 44
4, 37680, Note_on_c, 0, 60, 0
4, 38880, Note_on_c, 0, 43, 44
4, 38880, Note_on_c, 0, 47, 44
4, 38880, Note_on_c, 0, 53, 44
4, 39360, Note_on_c, 0, 53, 0
4, 39360, Note_on_c, 0, 47, 0
4, 39360, Note_on_c, 0, 43, 0
4, 39360, Note_on_c, 0, 48, 44
4, 39360, Note_on_c, 0, 52, 44
4, 39600, Note_on_c, 0, 52, 0
4, 39600, Note_on_c, 0, 48, 0
4, 39840, Note_on_c, 0, 55, 44
4, 39840, Note_on_c, 0, 59, 44
4, 39840, Note_on_c, 0, 65, 44
4, 40320, Note_on_c, 0, 65, 0
4, 40320, Note_on_c, 0, 59, 0
4, 40320, Note_on_c, 0, 55, 0
4, 40320, Note_on_c, 0, 60, 44
4, 40320, Note_on_c, 0, 64, 44
4, 40560, Note_on_c, 0, 64, 0
4, 40560, Note_on_c, 0, 60, 0
4, 40800, Note_on_c, 0, 43, 44
4, 40800, Note_on_c, 0, 47, 44
4, 40800, Note_on_c, 0, 53, 44
4, 41280, Note_on_c, 0, 53, 0
4, 41280, Note_on_c, 0, 47, 0
4, 41280, Note_on_c, 0, 43, 0
4, 41280, Note_on_c, 0, 48, 44
4, 41280, Note_on_c, 0, 52, 44
4, 41520, Note_on_c, 0, 52, 0
4, 41520, Note_on_c, 0, 48, 0
4, 41760, Note_on_c, 0, 55, 44
4, 41760, Note_on_c, 0, 59, 44
4, 41760, Note_on_c, 0, 65, 44
4, 42240, Note_on_c, 0, 65, 0
4, 42240, Note_on_c, 0, 59, 0
4, 42240, Note_on_c, 0, 55, 0
4, 42240, Note_on_c, 0, 60, 44
4, 42240, Note_on_c, 0, 64, 44
4, 42480, Note_on_c, 0, 64, 0
4, 42480, Note_on_c, 0, 60, 0
4, 42480, Note_on_c, 0, 48, 44
4, 42720, Note_on_c, 0, 48, 0
4, 42720, Control_c, 0, 64, 127
4, 42720, Note_on_c, 0, 52, 44
4, 42840, Note_on_c, 0, 52, 0
4, 42840, Note_on_c, 0, 53, 44
4, 42960, Note_on_c, 0, 53, 0
4, 42960, Note_on_c, 0, 52, 44
4, 43080, Note_on_c, 0, 52, 0
4, 43080, Control_c, 0, 64, 0
4, 43080, Note_on_c, 0, 53, 44
4, 43200, Note_on_c, 0, 53, 0
4, 43200, Note_on_c, 0, 54, 44
4, 43680, Note_on_c, 0, 54, 0
4, 43680, Control_c, 0, 64, 127
4, 43680, Note_on_c, 0, 54, 44
4, 43800, Note_on_c, 0, 54, 0
4, 43800, Note_on_c, 0, 55, 44
4, 43920, Note_on_c, 0, 55, 0
4, 43920, Note_on_c, 0, 54, 44
4, 44040, Note_on_c, 0, 54, 0
4, 44040, Control_c, 0, 64, 0
4, 44040, Note_on_c, 0, 55, 44
4, 44160, Note_on_c, 0, 55, 0
4, 44160, Note_on_c, 0, 56, 44
4, 44640, Note_on_c, 0, 56, 0
4, 44640, Control_c, 0, 64, 127
4, 44640, Note_on_c, 0, 56, 44
4, 44760, Note_on_c, 0, 56, 0
4, 44760, Note_on_c, 0, 57, 44
4, 44880, Note_on_c, 0, 57, 0
4, 44880, Note_on_c, 0, 56, 44
4, 45000, Note_on_c, 0, 56, 0
4, 45000, Control_c, 0, 64, 0
4, 45000, Note_on_c, 0, 57, 44
4, 45120, Note_on_c, 0, 57, 0
4, 45120, Control_c, 0, 64, 127
4, 45120, Note_on_c, 0, 56, 44
4, 45240, Note_on_c, 0, 56, 0
4, 45240, Note_on_c, 0, 57, 44
4, 45360, Note_on_c, 0, 57, 0
4, 45360, Note_on_c, 0, 56, 44
4, 45480, Note_on_c, 0, 56, 0
4, 45480, Control_c, 0, 64, 0
4, 45480, Note_on_c, 0, 57, 44
4, 45600, Note_on_c, 0, 57, 0
4, 45600, Control_c, 0, 64, 127
4, 45600, Note_on_c, 0, 57, 44
4, 45720, Note_on_c, 0, 57, 0
4, 45720, Note_on_c, 0, 58, 44
4, 45840, Note_on_c, 0, 58, 0
4, 45840, Note_on_c, 0, 57, 44
4, 45960, Note_on_c, 0, 57, 0
4, 45960, Control_c, 0, 64, 0
4, 45960, Note_on_c, 0, 58, 44
4, 46080, Note_on_c, 0, 58, 0
4, 46080, Control_c, 0, 64, 127
4, 46080, Note_on_c, 0, 59, 44
4, 46200, Note_on_c, 0, 59, 0
4, 46200, Note_on_c, 0, 60, 44
4, 46320, Note_on_c, 0, 60, 0
4, 46320, Note_on_c, 0, 59, 44
4, 46440, Note_on_c, 0, 59, 0
4, 46440, Control_c, 0, 64, 0
4, 46440, Note_on_c, 0, 60, 44
4, 46560, Note_on_c, 0, 60, 0
4, 46560, Note_on_c, 0, 48, 57
4, 47040, Note_on_c, 0, 48, 0
4, 47040, Control_c, 0, 64, 127
4, 47040, Note_on_c, 0, 58, 57
4, 47160, Note_on_c, 0, 58, 0
4, 47160, Note_on_c, 0, 57, 57
4, 47280, Note_on_c, 0, 57, 0
4, 47280, Note_on_c, 0, 56, 57
4, 47400, Note_on_c, 0, 56, 0
4, 47400, Control_c, 0, 64, 0
4, 47400, Note_on_c, 0, 57, 57
4, 47520, Note_on_c, 0, 57, 0
4, 47520, Note_on_c, 0, 48, 70
4, 48000, Note_on_c, 0, 48, 0
4, 48000, Control_c, 0, 64, 127
4, 48000, Note_on_c, 0, 60, 70
4, 48120, Note_on_c, 0, 60, 0
4, 48120, Note_on_c, 0, 59, 70
4, 48240, Note_on_c, 0, 59, 0
4, 48240, Note_on_c, 0, 58, 70
4, 48360, Note_on_c, 0, 58, 0
4, 48360, Control_c, 0, 64, 0
4, 48360, Note_on_c, 0, 59, 70
4, 48480, Note_on_c, 0, 59, 0
4, 48480, Note_on_c, 0, 48, 70
4, 48960, Note_on_c, 0, 48, 0
4, 48960, Control_c, 0, 64, 127
4, 48960, Note_on_c, 0, 56, 70
4, 49080, Note_on_c, 0, 56, 0
4, 49080, Note_on_c, 0, 57, 70
4, 49200, Note_on_c, 0, 57, 0
4, 49200, Note_on_c, 0, 56, 70
4, 49320, Note_on_c, 0, 56, 0
4, 49320, Control_c, 0, 64, 0
4, 49320, Note_on_c, 0, 57, 70
4, 49440, Note_on_c, 0, 57, 0
4, 49440, Control_c, 0, 64, 127
4, 49440, Note_on_c, 0, 57, 70
4, 49560, Note_on_c, 0, 57, 0
4, 49560, Note_on_c, 0, 58, 70
4, 49680, Note_on_c, 0, 58, 0
4, 49680, Note_on_c, 0, 57, 70
4, 49800, Note_on_c, 0, 57, 0
4, 49800, Control_c, 0, 64, 0
4, 49800, Note_on_c, 0, 58, 70
4, 49920, Note_on_c, 0, 58, 0
4, 49920, Control_c, 0, 64, 127
4, 49920, Note_on_c, 0, 59, 83
4, 50040, Note_on_c, 0, 59, 0
4, 50040, Note_on_c, 0, 60, 83
4, 50160, Note_on_c, 0, 60, 0
4, 50160, Note_on_c, 0, 59, 83
4, 50280, Note_on_c, 0, 59, 0
4, 50280, Control_c, 0, 64, 0
4, 50280, Note_on_c, 0, 60, 83
4, 50400, Note_on_c, 0, 60, 0
4, 50400, Note_on_c, 0, 41, 57
4, 50400, Note_on_c, 0, 48, 57
4, 50447, Note_on_c, 0, 48, 0
4, 50447, Note_on_c, 0, 41, 0
4, 50640, Note_on_c, 0, 60, 57
4, 50687, Note_on_c, 0, 60, 0
4, 50880, Note_on_c, 0, 60, 57
4, 50927, Note_on_c, 0, 60, 0
4, 51120, Note_on_c, 0, 48, 57
4, 51167, Note_on_c, 0, 48, 0
4, 51360, Note_on_c, 0, 36, 57
4, 51407, Note_on_c, 0, 36, 0
4, 51600, Note_on_c, 0, 60, 57
4, 51647, Note_on_c, 0, 60, 0
4, 51840, Note_on_c, 0, 60, 57
4, 51887, Note_on_c, 0, 60, 0
4, 52080, Note_on_c, 0, 48, 57
4, 52127, Note_on_c, 0, 48, 0
4, 52320, Note_on_c, 0, 41, 57
4, 52320, Note_on_c, 0, 48, 57
4, 52367, Note_on_c, 0, 48, 0
4, 52367, Note_on_c, 0, 41, 0
4, 52560, Note_on_c, 0, 60, 57
4, 52607, Note_on_c, 0, 60, 0
4, 52800, Note_on_c, 0, 60, 57
4, 52847, Note_on_c, 0, 60, 0
4, 53040, Note_on_c, 0, 48, 57
4, 53087, Note_on_c, 0, 48, 0
4, 53280, Note_on_c, 0, 36, 57
4, 53327, Note_on_c, 0, 36, 0
4, 53520, Note_on_c, 0, 60, 57
4, 53567, Note_on_c, 0, 60, 0
4, 53760, Note_on_c, 0, 60, 57
4, 53807, Note_on_c, 0, 60, 0
4, 54000, Note_on_c, 0, 48, 57
4, 54047, Note_on_c, 0, 48, 0
4, 54240, Note_on_c, 0, 41, 57
4, 54240, Note_on_c, 0, 48, 57
4, 54287, Note_on_c, 0, 48, 0
4, 54287, Note_on_c, 0, 41, 0
4, 54480, Note_on_c, 0, 60, 57
4, 54527, Note_on_c, 0, 60, 0
4, 54720, Note_on_c, 0, 60, 57
4, 54767, Note_on_c, 0, 60, 0
4, 54960, Note_on_c, 0, 48, 57
4, 55007, Note_on_c, 0, 48, 0
4, 55200, Note_on_c, 0, 36, 57
4, 55247, Note_on_c, 0, 36, 0
4, 55440, Note_on_c, 0, 60, 57
4, 55487, Note_on_c, 0, 60, 0
4, 55680, Note_on_c, 0, 60, 57
4, 55727, Note_on_c, 0, 60, 0
4, 55920, Note_on_c, 0, 48, 57
4, 55967, Note_on_c, 0, 48, 0
4, 56160, Note_on_c, 0, 41, 57
4, 56160, Note_on_c, 0, 48, 57
4, 56207, Note_on_c, 0, 48, 0
4, 56207, Note_on_c, 0, 41, 0
4, 56400, Note_on_c, 0, 60, 57
4, 56447, Note_on_c, 0, 60, 0
4, 56640, Note_on_c, 0, 60, 57
4, 56687, Note_on_c, 0, 60, 0
4, 56880, Note_on_c, 0, 48, 57
4, 56927, Note_on_c, 0, 48, 0
4, 57120, Note_on_c, 0, 36, 57
4, 57167, Note_on_c, 0, 36, 0
4, 57360, Note_on_c, 0, 60, 57
4, 57407, Note_on_c, 0, 60, 0
4, 57600, Note_on_c, 0, 60, 70
4, 57647, Note_on_c, 0, 60, 0
4, 57840, Note_on_c, 0, 48, 70
4, 57887, Note_on_c, 0, 48, 0
4, 58080, Note_on_c, 0, 52, 70
4, 58080, Note_on_c, 0, 55, 70
4, 58080, Note_on_c, 0, 60, 70
4, 58320, Note_on_c, 0, 60, 0
4, 58320, Note_on_c, 0, 55, 0
4, 58320, Note_on_c, 0, 52, 0
4, 58320, Note_on_c, 0, 50, 70
4, 58320, Note_on_c, 0, 55, 70
4, 58320, Note_on_c, 0, 58, 70
4, 58560, Note_on_c, 0, 58, 0
4, 58560, Note_on_c, 0, 55, 0
4, 58560, Note_on_c, 0, 50, 0
4, 58560, Note_on_c, 0, 49, 70
4, 58560, Note_on_c, 0, 55, 70
4, 58560, Note_on_c, 0, 57, 70
4, 58800, Note_on_c, 0, 57, 0
4, 58800, Note_on_c, 0, 55, 0
4, 58800, Note_on_c, 0, 49, 0
4, 59040, Note_on_c, 0, 57, 70
4, 59040, Note_on_c, 0, 61, 70
4, 59040, Note_on_c, 0, 67, 70
4, 59280, Note_on_c, 0, 67, 0
4, 59280, Note_on_c, 0, 61, 0
4, 59280, Note_on_c, 0, 57, 0
4, 59520, Note_on_c, 0, 62, 70
4, 59520, Note_on_c, 0, 65, 70
4, 59760, Note_on_c, 0, 65, 0
4, 59760, Note_on_c, 0, 62, 0
4, 60000, Note_on_c, 0, 50, 70
4, 60000, Note_on_c, 0, 53, 70
4, 60000, Note_on_c, 0, 56, 70
4, 60000, Note_on_c, 0, 59, 70
4, 60240, Note_on_c, 0, 59, 0
4, 60240, Note_on_c, 0, 50, 0
4, 60240, Note_on_c, 0, 53, 0
4, 60240, Note_on_c, 0, 56, 0
4, 60240, Note_on_c, 0, 48, 70
4, 60240, Note_on_c, 0, 53, 70
4, 60240, Note_on_c, 0, 56, 70
4, 60240, Note_on_c, 0, 60, 70
4, 60480, Note_on_c, 0, 60, 0
4, 60480, Note_on_c, 0, 48, 0
4, 60480, Note_on_c, 0, 53, 0
4, 60480, Note_on_c, 0, 56, 0
4, 60480, Note_on_c, 0, 47, 70
4, 60480, Note_on_c, 0, 53, 70
4, 60480, Note_on_c, 0, 55, 70
4, 60720, Note_on_c, 0, 55, 0
4, 60720, Note_on_c, 0, 53, 0
4, 60720, Note_on_c, 0, 47, 0
4, 60960, Note_on_c, 0, 55, 83
4, 60960, Note_on_c, 0, 59, 83
4, 60960, Note_on_c, 0, 65, 83
4, 61200, Note_on_c, 0, 65, 0
4, 61200, Note_on_c, 0, 59, 0
4, 61200, Note_on_c, 0, 55, 0
4, 61440, Note_on_c, 0, 60, 83
4, 61440, Note_on_c, 0, 64, 83
4, 61680, Note_on_c, 0, 64, 0
4, 61680, Note_on_c, 0, 60, 0
4, 61920, Note_on_c, 0, 52, 83
4, 62160, Note_on_c, 0, 52, 0
4, 62160, Note_on_c, 0, 55, 83
4, 62160, Note_on_c, 0, 60, 83
4, 62160, Note_on_c, 0, 64, 83
4, 62400, Note_on_c, 0, 64, 0
4, 62400, Note_on_c, 0, 60, 0
4, 62400, Note_on_c, 0, 55, 0
4, 62400, Note_on_c, 0, 53, 83
4, 62640, Note_on_c, 0, 53, 0
4, 62640, Note_on_c, 0, 57, 83
4, 62640, Note_on_c, 0, 60, 83
4, 62640, Note_on_c, 0, 65, 83
4, 62880, Note_on_c, 0, 65, 0
4, 62880, Note_on_c, 0, 60, 0
4, 62880, Note_on_c, 0, 57, 0
4, 62880, Note_on_c, 0, 54, 83
4, 63120, Note_on_c, 0, 54, 0
4, 63120, Note_on_c, 0, 60, 83
4, 63120, Note_on_c, 0, 63, 83
4, 63120, Note_on_c, 0, 66, 83
4, 63360, Note_on_c, 0, 66, 0
4, 63360, Note_on_c, 0, 63, 0
4, 63360, Note_on_c, 0, 60, 0
4, 63360, Note_on_c, 0, 55, 83
4, 63600, Note_on_c, 0, 55, 0
4, 63600, Note_on_c, 0, 60, 83
4, 63600, Note_on_c, 0, 64, 83
4, 63600, Note_on_c, 0, 67, 83
4, 63840, Note_on_c, 0, 67, 0
4, 63840, Note_on_c, 0, 64, 0
4, 63840, Note_on_c, 0, 60, 0
4, 63840, Note_on_c, 0, 57, 83
4, 64080, Note_on_c, 0, 57, 0
4, 64080, Note_on_c, 0, 63, 83
4, 64080, Note_on_c, 0, 66, 83
4, 64320, Note_on_c, 0, 66, 0
4, 64320, Note_on_c, 0, 63, 0
4, 64320, Note_on_c, 0, 58, 83
4, 64560, Note_on_c, 0, 58, 0
4, 64560, Note_on_c, 0, 60, 83
4, 64560, Note_on_c, 0, 64, 83
4, 64560, Note_on_c, 0, 67, 83
4, 64800, Note_on_c, 0, 67, 0
4, 64800, Note_on_c, 0, 64, 0
4, 64800, Note_on_c, 0, 60, 0
4, 64800, Note_on_c, 0, 59, 83
4, 65040, Note_on_c, 0, 59, 0
4, 65040, Note_on_c, 0, 55, 83
4, 65040, Note_on_c, 0, 62, 83
4, 65040, Note_on_c, 0, 65, 83
4, 65280, Note_on_c, 0, 65, 0
4, 65280, Note_on_c, 0, 62, 0
4, 65280, Note_on_c, 0, 55, 0
4, 65280, Note_on_c, 0, 60, 83
4, 65280, Note_on_c, 0, 64, 83
4, 65520, Note_on_c, 0, 64, 0
4, 65520, Note_on_c, 0, 60, 0
4, 65760, Note_on_c, 0, 41, 70
4, 65760, Note_on_c, 0, 48, 70
4, 65807, Note_on_c, 0, 48, 0
4, 65807, Note_on_c, 0, 41, 0
4, 66000, Note_on_c, 0, 60, 70
4, 66047, Note_on_c, 0, 60, 0
4, 66240, Note_on_c, 0, 60, 70
4, 66287, Note_on_c, 0, 60, 0
4, 66480, Note_on_c, 0, 48, 70
4, 66527, Note_on_c, 0, 48, 0
4, 66720, Note_on_c, 0, 36, 70
4, 66767, Note_on_c, 0, 36, 0
4, 66960, Note_on_c, 0, 60, 70
4, 67007, Note_on_c, 0, 60, 0
4, 67200, Note_on_c, 0, 60, 70
4, 67247, Note_on_c, 0, 60, 0
4, 67440, Note_on_c, 0, 48, 70
4, 67487, Note_on_c, 0, 48, 0
4, 67680, Note_on_c, 0, 41, 70
4, 67680, Note_on_c, 0, 48, 70
4, 67727, Note_on_c, 0, 48, 0
4, 67727, Note_on_c, 0, 41, 0
4, 67920, Note_on_c, 0, 60, 70
4, 67967, Note_on_c, 0, 60, 0
4, 68160, Note_on_c, 0, 60, 70
4, 68207, Note_on_c, 0, 60, 0
4, 68400, Note_on_c, 0, 48, 70
4, 68447, Note_on_c, 0, 48, 0
4, 68640, Note_on_c, 0, 36, 70
4, 68687, Note_on_c, 0, 36, 0
4, 68880, Note_on_c, 0, 60, 70
4, 68927, Note_on_c, 0, 60, 0
4, 69120, Note_on_c, 0, 60, 70
4, 69167, Note_on_c, 0, 60, 0
4, 69360, Note_on_c, 0, 48, 70
4, 69407, Note_on_c, 0, 48, 0
4, 69600, Note_on_c, 0, 41, 83
4, 69600, Note_on_c, 0, 48, 83
4, 69647, Note_on_c, 0, 48, 0
4, 69647, Note_on_c, 0, 41, 0
4, 69840, Note_on_c, 0, 60, 83
4, 69887, Note_on_c, 0, 60, 0
4, 70080, Note_on_c, 0, 60, 83
4, 70127, Note_on_c, 0, 60, 0
4, 70320, Note_on_c, 0, 48, 83
4, 70367, Note_on_c, 0, 48, 0
4, 70560, Note_on_c, 0, 36, 83
4, 70607, Note_on_c, 0, 36, 0
4, 70800, Note_on_c, 0, 60, 83
4, 70847, Note_on_c, 0, 60, 0
4, 71040, Note_on_c, 0, 60, 83
4, 71087, Note_on_c, 0, 60, 0
4, 71280, Note_on_c, 0, 48, 83
4, 71327, Note_on_c, 0, 48, 0
4, 71520, Note_on_c, 0, 41, 83
4, 71520, Note_on_c, 0, 48, 83
4, 71567, Note_on_c, 0, 48, 0
4, 71567, Note_on_c, 0, 41, 0
4, 71760, Note_on_c, 0, 60, 83
4, 71807, Note_on_c, 0, 60, 0
4, 72000, Note_on_c, 0, 60, 83
4, 72047, Note_on_c, 0, 60, 0
4, 72240, Note_on_c, 0, 48, 83
4, 72287, Note_on_c, 0, 48, 0
4, 72480, Note_on_c, 0, 36, 83
4, 72527, Note_on_c, 0, 36, 0
4, 72720, Note_on_c, 0, 48, 83
4, 72767, Note_on_c, 0, 48, 0
4, 72960, Note_on_c, 0, 46, 83
4, 73007, Note_on_c, 0, 46, 0
4, 73200, Note_on_c, 0, 58, 83
4, 73247, Note_on_c, 0, 58, 0
4, 73680, Note_on_c, 0, 46, 83
4, 73680, Note_on_c, 0, 50, 83
4, 73680, Note_on_c, 0, 53, 83
4, 73680, Note_on_c, 0, 55, 83
4, 73920, Note_on_c, 0, 55, 0
4, 73920, Note_on_c, 0, 46, 0
4, 73920, Note_on_c, 0, 50, 0
4, 73920, Note_on_c, 0, 53, 0
4, 73920, Note_on_c, 0, 47, 83
4, 73920, Note_on_c, 0, 53, 83
4, 73920, Note_on_c, 0, 56, 83
4, 74160, Note_on_c, 0, 56, 0
4, 74160, Note_on_c, 0, 53, 0
4, 74160, Note_on_c, 0, 47, 0
4, 74160, Note_on_c, 0, 47, 83
4, 74160, Note_on_c, 0, 53, 83
4, 74160, Note_on_c, 0, 56, 83
4, 74400, Note_on_c, 0, 56, 0
4, 74400, Note_on_c, 0, 53, 0
4, 74400, Note_on_c, 0, 47, 0
4, 74640, Note_on_c, 0, 47, 83
4, 74640, Note_on_c, 0, 53, 83
4, 74640, Note_on_c, 0, 56, 83
4, 74880, Note_on_c, 0, 56, 0
4, 74880, Note_on_c, 0, 53, 0
4, 74880, Note_on_c, 0, 47, 0
4, 74880, Note_on_c, 0, 48, 83
4, 74880, Note_on_c, 0, 53, 83
4, 74880, Note_on_c, 0, 57, 83
4, 75120, Note_on_c, 0, 57, 0
4, 75120, Note_on_c, 0, 53, 0
4, 75120, Note_on_c, 0, 48, 0
4, 75120, Note_on_c, 0, 48, 83
4, 75120, Note_on_c, 0, 53, 83
4, 75120, Note_on_c, 0, 57, 83
4, 75360, Note_on_c, 0, 57, 0
4, 75360, Note_on_c, 0, 53, 0
4, 75360, Note_on_c, 0, 48, 0
4, 75600, Note_on_c, 0, 48, 83
4, 75600, Note_on_c, 0, 53, 83
4, 75600, Note_on_c, 0, 57, 83
4, 75840, Note_on_c, 0, 57, 0
4, 75840, Note_on_c, 0, 53, 0
4, 75840, Note_on_c, 0, 48, 0
4, 75840, Note_on_c, 0, 49, 83
4, 75840, Note_on_c, 0, 55, 83
4, 75840, Note_on_c, 0, 57, 83
4, 76080, Note_on_c, 0, 57, 0
4, 76080, Note_on_c, 0, 55, 0
4, 76080, Note_on_c, 0, 49, 0
4, 76080, Note_on_c, 0, 49, 83
4, 76080, Note_on_c, 0, 55, 83
4, 76080, Note_on_c, 0, 57, 83
4, 76320, Note_on_c, 0, 57, 0
4, 76320, Note_on_c, 0, 55, 0
4, 76320, Note_on_c, 0, 49, 0
4, 76560, Note_on_c, 0, 49, 83
4, 76560, Note_on_c, 0, 55, 83
4, 76560, Note_on_c, 0, 57, 83
4, 76800, Note_on_c, 0, 57, 0
4, 76800, Note_on_c, 0, 55, 0
4, 76800, Note_on_c, 0, 49, 0
4, 76800, Note_on_c, 0, 50, 83
4, 76800, Note_on_c, 0, 53, 83
4, 76800, Note_on_c, 0, 57, 83
4, 77040, Note_on_c, 0, 57, 0
4, 77040, Note_on_c, 0, 53, 0
4, 77040, Note_on_c, 0, 50, 0
4, 77040, Note_on_c, 0, 50, 83
4, 77040, Note_on_c, 0, 53, 83
4, 77040, Note_on_c, 0, 57, 83
4, 77280, Note_on_c, 0, 57, 0
4, 77280, Note_on_c, 0, 53, 0
4, 77280, Note_on_c, 0, 50, 0
4, 77520, Note_on_c, 0, 50, 83
4, 77520, Note_on_c, 0, 53, 83
4, 77520, Note_on_c, 0, 57, 83
4, 77760, Note_on_c, 0, 57, 0
4, 77760, Note_on_c, 0, 53, 0
4, 77760, Note_on_c, 0, 50, 0
4, 77760, Note_on_c, 0, 51, 83
4, 77760, Note_on_c, 0, 53, 83
4, 77760, Note_on_c, 0, 60, 83
4, 78240, Note_on_c, 0, 60, 0
4, 78240, Note_on_c, 0, 53, 0
4, 78240, Note_on_c, 0, 51, 0
4, 78240, Note_on_c, 0, 50, 83
4, 78240, Note_on_c, 0, 53, 83
4, 78240, Note_on_c, 0, 58, 83
4, 78720, Note_on_c, 0, 58, 0
4, 78720, Note_on_c, 0, 53, 0
4, 78720, Note_on_c, 0, 50, 0
4, 78720, Note_on_c, 0, 49, 83
4, 78720, Note_on_c, 0, 53, 83
4, 78720, Note_on_c, 0, 56, 83
4, 79200, Note_on_c, 0, 56, 0
4, 79200, Note_on_c, 0, 53, 0
4, 79200, Note_on_c, 0, 49, 0
4, 79200, Note_on_c, 0, 48, 83
4, 79200, Note_on_c, 0, 53, 83
4, 79200, Note_on_c, 0, 57, 83
4, 79680, Note_on_c, 0, 57, 0
4, 79680, Note_on_c, 0, 53, 0
4, 79680, Note_on_c, 0, 48, 0
4, 79680, Note_on_c, 0, 48, 83
4, 79680, Note_on_c, 0, 54, 83
4, 79680, Note_on_c, 0, 57, 83
4, 79680, Note_on_c, 0, 60, 83
4, 80160, Note_on_c, 0, 60, 0
4, 80160, Note_on_c, 0, 48, 0
4, 80160, Note_on_c, 0, 54, 0
4, 80160, Note_on_c, 0, 57, 0
4, 80160, Note_on_c, 0, 48, 83
4, 80160, Note_on_c, 0, 55, 83
4, 80160, Note_on_c, 0, 58, 83
4, 80160, Note_on_c, 0, 60, 83
4, 80640, Note_on_c, 0, 60, 0
4, 80640, Note_on_c, 0, 48, 0
4, 80640, Note_on_c, 0, 55, 0
4, 80640, Note_on_c, 0, 58, 0
4, 80640, Note_on_c, 0, 53, 96
4, 80640, Note_on_c, 0, 57, 96
4, 80640, Note_on_c, 0, 60, 96
4, 80880, Note_on_c, 0, 60, 0
4, 80880, Note_on_c, 0, 57, 0
4, 80880, Note_on_c, 0, 53, 0
4, 80880, Note_on_c, 0, 65, 96
4, 81000, Note_on_c, 0, 65, 0
4, 81000, Note_on_c, 0, 65, 96
4, 81120, Note_on_c, 0, 65, 0
4, 81120, Note_on_c, 0, 65, 96
4, 81360, Note_on_c, 0, 65, 0
4, 81360, Note_on_c, 0, 47, 96
4, 81600, Note_on_c, 0, 47, 0
4, 81600, Note_on_c, 0, 41, 96
4, 81600, Note_on_c, 0, 48, 96
4, 81840, Note_on_c, 0, 48, 0
4, 81840, Note_on_c, 0, 41, 0
4, 81840, Note_on_c, 0, 65, 96
4, 81960, Note_on_c, 0, 65, 0
4, 81960, Note_on_c, 0, 65, 96
4, 82080, Note_on_c, 0, 65, 0
4, 82080, Note_on_c, 0, 65, 96
4, 82320, Note_on_c, 0, 65, 0
4, 82320, Note_on_c, 0, 47, 96
4, 82560, Note_on_c, 0, 47, 0
4, 82560, Note_on_c, 0, 41, 96
4, 82560, Note_on_c, 0, 48, 96
4, 82800, Note_on_c, 0, 48, 0
4, 82800, Note_on_c, 0, 41, 0
4, 82800, Note_on_c, 0, 47, 96
4, 83040, Note_on_c, 0, 47, 0
4, 83040, Note_on_c, 0, 41, 96
4, 83040, Note_on_c, 0, 48, 96
4, 83280, Note_on_c, 0, 48, 0
4, 83280, Note_on_c, 0, 41, 0
4, 83280, Note_on_c, 0, 47, 96
4, 83520, Note_on_c, 0, 47, 0
4, 83520, Note_on_c, 0, 41, 96
4, 83520, Note_on_c, 0, 48, 96
4, 83760, Note_on_c, 0, 48, 0
4, 83760, Note_on_c, 0, 41, 0
4, 83760, Note_on_c, 0, 47, 96
4, 84000, Note_on_c, 0, 47, 0
4, 84000, Note_on_c, 0, 41, 96
4, 84000, Note_on_c, 0, 48, 96
4, 84240, Note_on_c, 0, 48, 0
4, 84240, Note_on_c, 0, 41, 0
4, 84240, Note_on_c, 0, 47, 96
4, 84480, Note_on_c, 0, 47, 0
4, 84480, Note_on_c, 0, 41, 96
4, 84480, Note_on_c, 0, 48, 96
4, 84720, Note_on_c, 0, 48, 0
4, 84720, Note_on_c, 0, 41, 0
4, 84720, Note_on_c, 0, 65, 96
4, 84840, Note_on_c, 0, 65, 0
4, 84840, Note_on_c, 0, 65, 96
4, 84960, Note_on_c, 0, 65, 0
4, 84960, Note_on_c, 0, 65, 96
4, 85200, Note_on_c, 0, 65, 0
4, 85200, Note_on_c, 0, 53, 96
4, 85200, Note_on_c, 0, 57, 96
4, 85200, Note_on_c, 0, 60, 96
4, 85440, Note_on_c, 0, 60, 0
4, 85440, Note_on_c, 0, 57, 0
4, 85440, Note_on_c, 0, 53, 0
4, 85440, Note_on_c, 0, 41, 122
4, 85440, Note_on_c, 0, 53, 122
4, 85920, Note_on_c, 0, 53, 0
4, 85920, Note_on_c, 0, 41, 0
4, 85920, End_track
5, 0, Start_track
5, 0, Title_t, "Grand Piano"
5, 0, Program_c, 0, 0
5, 0, Control_c, 0, 7, 115
5, 0, Control_c, 0, 10, 48
5, 35040, Note_on_c, 0, 48, 49
5, 35760, Note_on_c, 0, 48, 0
5, 36000, Note_on_c, 0, 43, 49
5, 36480, Note_on_c, 0, 43, 0
5, 36480, Note_on_c, 0, 48, 49
5, 36720, Note_on_c, 0, 48, 0
5, 42720, Note_on_c, 0, 48, 49
5, 43200, Note_on_c, 0, 48, 0
5, 43200, Note_on_c, 0, 48, 49
5, 43680, Note_on_c, 0, 48, 0
5, 43680, Note_on_c, 0, 48, 49
5, 44160, Note_on_c, 0, 48, 0
5, 44160, Note_on_c, 0, 48, 49
5, 44640, Note_on_c, 0, 48, 0
5, 44640, Note_on_c, 0, 48, 49
5, 45120, Note_on_c, 0, 48, 0
5, 45120, Note_on_c, 0, 48, 49
5, 45600, Note_on_c, 0, 48, 0
5, 45600, Note_on_c, 0, 48, 49
5, 46080, Note_on_c, 0, 48, 0
5, 46080, Note_on_c, 0, 48, 49
5, 46560, Note_on_c, 0, 48, 0
5, 47040, Note_on_c, 0, 48, 62
5, 47520, Note_on_c, 0, 48, 0
5, 48000, Note_on_c, 0, 48, 75
5, 48480, Note_on_c, 0, 48, 0
5, 48960, Note_on_c, 0, 48, 75
5, 49440, Note_on_c, 0, 48, 0
5, 49440, Note_on_c, 0, 48, 75
5, 49920, Note_on_c, 0, 48, 0
5, 49920, Note_on_c, 0, 48, 88
5, 50160, Note_on_c, 0, 48, 0
5, 50160, End_track
0, 0, End_of_file
