0, 0, Header, 1, 5, 480
1, 0, Start_track
1, 0, Title_t, "tchaikovsky sleeping beauty act3 28a pas de deux"
1, 0, Copyright_t, "Adaptation for Disklavier pianos, by: Robert C. Kuhmann (c) 2012."
1, 0, Text_t, "Seq. (c) by: Segundo G. Yogore,  2007\012"
1, 0, Time_signature, 6, 3, 12, 8
1, 0, Key_signature, 1, "major"
1, 0, Tempo, 600000
1, 66240, Time_signature, 8, 2, 24, 8
1, 66240, End_track
2, 0, Start_track
2, 0, Title_t, "Grand Piano"
2, 0, Program_c, 0, 0
2, 0, Control_c, 0, 7, 115
2, 0, Control_c, 0, 10, 86
2, 0, Note_on_c, 0, 69, 91
2, 0, Note_on_c, 0, 73, 91
2, 0, Note_on_c, 0, 76, 91
2, 0, Note_on_c, 0, 81, 91
2, 240, Note_on_c, 0, 81, 0
2, 240, Note_on_c, 0, 69, 0
2, 240, Note_on_c, 0, 73, 0
2, 240, Note_on_c, 0, 76, 0
2, 240, Control_c, 0, 64, 127
2, 240, Note_on_c, 0, 67, 65
2, 360, Note_on_c, 0, 67, 0
2, 360, Note_on_c, 0, 65, 65
2, 360, Note_on_c, 0, 68, 65
2, 480, Note_on_c, 0, 68, 0
2, 480, Note_on_c, 0, 65, 0
2, 480, Note_on_c, 0, 66, 65
2, 480, Note_on_c, 0, 69, 65
2, 600, Note_on_c, 0, 69, 0
2, 600, Note_on_c, 0, 66, 0
2, 600, Control_c, 0, 64, 0
2, 600, Note_on_c, 0, 68, 65
2, 600, Note_on_c, 0, 71, 65
2, 720, Note_on_c, 0, 71, 0
2, 720, Note_on_c, 0, 68, 0
2, 720, Control_c, 0, 64, 127
2, 720, Note_on_c, 0, 69, 65
2, 720, Note_on_c, 0, 73, 65
2, 840, Note_on_c, 0, 73, 0
2, 840, Note_on_c, 0, 69, 0
2, 840, Note_on_c, 0, 71, 65
2, 840, Note_on_c, 0, 74, 65
2, 960, Note_on_c, 0, 74, 0
2, 960, Note_on_c, 0, 71, 0
2, 960, Note_on_c, 0, 73, 78
2, 960, Note_on_c, 0, 76, 78
2, 1080, Note_on_c, 0, 76, 0
2, 1080, Note_on_c, 0, 73, 0
2, 1080, Note_on_c, 0, 74, 78
2, 1080, Note_on_c, 0, 78, 78
2, 1200, Note_on_c, 0, 78, 0
2, 1200, Note_on_c, 0, 74, 0
2, 1200, Note_on_c, 0, 76, 78
2, 1200, Note_on_c, 0, 79, 78
2, 1320, Note_on_c, 0, 79, 0
2, 1320, Note_on_c, 0, 76, 0
2, 1320, Control_c, 0, 64, 0
2, 1320, Note_on_c, 0, 78, 78
2, 1320, Note_on_c, 0, 81, 78
2, 1440, Note_on_c, 0, 81, 0
2, 1440, Note_on_c, 0, 78, 0
2, 1440, Control_c, 0, 64, 127
2, 1440, Note_on_c, 0, 79, 78
2, 1440, Note_on_c, 0, 83, 78
2, 1560, Note_on_c, 0, 83, 0
2, 1560, Note_on_c, 0, 79, 0
2, 1560, Note_on_c, 0, 78, 78
2, 1560, Note_on_c, 0, 81, 78
2, 1680, Note_on_c, 0, 81, 0
2, 1680, Note_on_c, 0, 78, 0
2, 1680, Note_on_c, 0, 76, 78
2, 1680, Note_on_c, 0, 79, 78
2, 1800, Note_on_c, 0, 79, 0
2, 1800, Note_on_c, 0, 76, 0
2, 1800, Note_on_c, 0, 74, 65
2, 1800, Note_on_c, 0, 78, 65
2, 1920, Note_on_c, 0, 78, 0
2, 1920, Note_on_c, 0, 74, 0
2, 1920, Note_on_c, 0, 73, 65
2, 1920, Note_on_c, 0, 76, 65
2, 2040, Note_on_c, 0, 76, 0
2, 2040, Note_on_c, 0, 73, 0
2, 2040, Note_on_c, 0, 71, 65
2, 2040, Note_on_c, 0, 74, 65
2, 2160, Note_on_c, 0, 74, 0
2, 2160, Note_on_c, 0, 71, 0
2, 2160, Control_c, 0, 64, 0
2, 2160, Note_on_c, 0, 69, 65
2, 2160, Note_on_c, 0, 73, 65
2, 2400, Note_on_c, 0, 73, 0
2, 2400, Note_on_c, 0, 69, 0
2, 2400, Note_on_c, 0, 69, 65
2, 2400, Note_on_c, 0, 73, 65
2, 2400, Note_on_c, 0, 81, 65
2, 2640, Note_on_c, 0, 81, 0
2, 2640, Note_on_c, 0, 73, 0
2, 2640, Note_on_c, 0, 69, 0
2, 2880, Note_on_c, 0, 74, 91
2, 2880, Note_on_c, 0, 78, 91
2, 2880, Note_on_c, 0, 81, 91
2, 2880, Note_on_c, 0, 86, 91
2, 3120, Note_on_c, 0, 86, 0
2, 3120, Note_on_c, 0, 74, 0
2, 3120, Note_on_c, 0, 78, 0
2, 3120, Note_on_c, 0, 81, 0
2, 3120, Control_c, 0, 64, 127
2, 3120, Note_on_c, 0, 69, 65
2, 3120, Note_on_c, 0, 72, 65
2, 3240, Note_on_c, 0, 72, 0
2, 3240, Note_on_c, 0, 69, 0
2, 3240, Note_on_c, 0, 70, 65
2, 3240, Note_on_c, 0, 73, 65
2, 3360, Note_on_c, 0, 73, 0
2, 3360, Note_on_c, 0, 70, 0
2, 3360, Note_on_c, 0, 71, 65
2, 3360, Note_on_c, 0, 74, 65
2, 3480, Note_on_c, 0, 74, 0
2, 3480, Note_on_c, 0, 71, 0
2, 3480, Control_c, 0, 64, 0
2, 3480, Note_on_c, 0, 73, 65
2, 3480, Note_on_c, 0, 76, 65
2, 3600, Note_on_c, 0, 76, 0
2, 3600, Note_on_c, 0, 73, 0
2, 3600, Control_c, 0, 64, 127
2, 3600, Note_on_c, 0, 74, 65
2, 3600, Note_on_c, 0, 78, 65
2, 3720, Note_on_c, 0, 78, 0
2, 3720, Note_on_c, 0, 74, 0
2, 3720, Note_on_c, 0, 76, 65
2, 3720, Note_on_c, 0, 79, 65
2, 3840, Note_on_c, 0, 79, 0
2, 3840, Note_on_c, 0, 76, 0
2, 3840, Note_on_c, 0, 78, 65
2, 3840, Note_on_c, 0, 81, 65
2, 3960, Note_on_c, 0, 81, 0
2, 3960, Note_on_c, 0, 78, 0
2, 3960, Note_on_c, 0, 79, 78
2, 3960, Note_on_c, 0, 83, 78
2, 4080, Note_on_c, 0, 83, 0
2, 4080, Note_on_c, 0, 79, 0
2, 4080, Note_on_c, 0, 81, 78
2, 4080, Note_on_c, 0, 84, 78
2, 4200, Note_on_c, 0, 84, 0
2, 4200, Note_on_c, 0, 81, 0
2, 4200, Control_c, 0, 64, 0
2, 4200, Note_on_c, 0, 83, 78
2, 4200, Note_on_c, 0, 86, 78
2, 4320, Note_on_c, 0, 86, 0
2, 4320, Note_on_c, 0, 83, 0
2, 4320, Control_c, 0, 64, 127
2, 4320, Note_on_c, 0, 84, 78
2, 4320, Note_on_c, 0, 88, 78
2, 4440, Note_on_c, 0, 88, 0
2, 4440, Note_on_c, 0, 84, 0
2, 4440, Note_on_c, 0, 83, 78
2, 4440, Note_on_c, 0, 86, 78
2, 4560, Note_on_c, 0, 86, 0
2, 4560, Note_on_c, 0, 83, 0
2, 4560, Note_on_c, 0, 81, 78
2, 4560, Note_on_c, 0, 84, 78
2, 4680, Note_on_c, 0, 84, 0
2, 4680, Note_on_c, 0, 81, 0
2, 4680, Note_on_c, 0, 79, 65
2, 4680, Note_on_c, 0, 83, 65
2, 4800, Note_on_c, 0, 83, 0
2, 4800, Note_on_c, 0, 79, 0
2, 4800, Note_on_c, 0, 78, 65
2, 4800, Note_on_c, 0, 81, 65
2, 4920, Note_on_c, 0, 81, 0
2, 4920, Note_on_c, 0, 78, 0
2, 4920, Note_on_c, 0, 76, 65
2, 4920, Note_on_c, 0, 79, 65
2, 5040, Note_on_c, 0, 79, 0
2, 5040, Note_on_c, 0, 76, 0
2, 5040, Control_c, 0, 64, 0
2, 5040, Note_on_c, 0, 74, 65
2, 5040, Note_on_c, 0, 78, 65
2, 5280, Note_on_c, 0, 78, 0
2, 5280, Note_on_c, 0, 74, 0
2, 5280, Note_on_c, 0, 74, 65
2, 5280, Note_on_c, 0, 78, 65
2, 5280, Note_on_c, 0, 86, 65
2, 5520, Note_on_c, 0, 86, 0
2, 5520, Note_on_c, 0, 78, 0
2, 5520, Note_on_c, 0, 74, 0
2, 5520, Note_on_c, 0, 62, 65
2, 5760, Note_on_c, 0, 62, 0
2, 7920, Note_on_c, 0, 60, 65
2, 8640, Note_on_c, 0, 60, 0
2, 8640, Note_on_c, 0, 59, 65
2, 9360, Note_on_c, 0, 59, 0
2, 9360, Note_on_c, 0, 57, 65
2, 9600, Note_on_c, 0, 57, 0
2, 9600, Note_on_c, 0, 59, 91
2, 9600, Note_on_c, 0, 71, 91
2, 9840, Note_on_c, 0, 71, 0
2, 9840, Note_on_c, 0, 59, 0
2, 9840, Note_on_c, 0, 60, 91
2, 9840, Note_on_c, 0, 72, 91
2, 10080, Note_on_c, 0, 72, 0
2, 10080, Note_on_c, 0, 60, 0
2, 10080, Note_on_c, 0, 62, 65
2, 10080, Note_on_c, 0, 74, 65
2, 10560, Note_on_c, 0, 74, 0
2, 10560, Note_on_c, 0, 62, 0
2, 10560, Note_on_c, 0, 64, 65
2, 10560, Note_on_c, 0, 76, 65
2, 10800, Note_on_c, 0, 76, 0
2, 10800, Note_on_c, 0, 64, 0
2, 10800, Note_on_c, 0, 66, 78
2, 10800, Note_on_c, 0, 78, 78
2, 11280, Note_on_c, 0, 78, 0
2, 11280, Note_on_c, 0, 66, 0
2, 11280, Note_on_c, 0, 67, 78
2, 11280, Note_on_c, 0, 79, 78
2, 11520, Note_on_c, 0, 79, 0
2, 11520, Note_on_c, 0, 67, 0
2, 11520, Note_on_c, 0, 67, 78
2, 11520, Note_on_c, 0, 79, 78
2, 12000, Note_on_c, 0, 79, 0
2, 12000, Note_on_c, 0, 67, 0
2, 12000, Note_on_c, 0, 66, 78
2, 12000, Note_on_c, 0, 78, 78
2, 12240, Note_on_c, 0, 78, 0
2, 12240, Note_on_c, 0, 66, 0
2, 12480, Note_on_c, 0, 66, 91
2, 12480, Note_on_c, 0, 78, 91
2, 12720, Note_on_c, 0, 78, 0
2, 12720, Note_on_c, 0, 66, 0
2, 12720, Note_on_c, 0, 67, 91
2, 12720, Note_on_c, 0, 79, 91
2, 12960, Note_on_c, 0, 79, 0
2, 12960, Note_on_c, 0, 67, 0
2, 12960, Note_on_c, 0, 66, 91
2, 12960, Note_on_c, 0, 78, 91
2, 13440, Note_on_c, 0, 78, 0
2, 13440, Note_on_c, 0, 66, 0
2, 13440, Note_on_c, 0, 64, 65
2, 13440, Note_on_c, 0, 76, 65
2, 13680, Note_on_c, 0, 76, 0
2, 13680, Note_on_c, 0, 64, 0
2, 13920, Note_on_c, 0, 64, 91
2, 13920, Note_on_c, 0, 76, 91
2, 14160, Note_on_c, 0, 76, 0
2, 14160, Note_on_c, 0, 64, 0
2, 14160, Note_on_c, 0, 66, 91
2, 14160, Note_on_c, 0, 78, 91
2, 14400, Note_on_c, 0, 78, 0
2, 14400, Note_on_c, 0, 66, 0
2, 14400, Note_on_c, 0, 64, 65
2, 14400, Note_on_c, 0, 76, 65
2, 14880, Note_on_c, 0, 76, 0
2, 14880, Note_on_c, 0, 64, 0
2, 14880, Note_on_c, 0, 62, 65
2, 14880, Note_on_c, 0, 74, 65
2, 15120, Note_on_c, 0, 74, 0
2, 15120, Note_on_c, 0, 62, 0
2, 15360, Note_on_c, 0, 59, 91
2, 15360, Note_on_c, 0, 71, 91
2, 15600, Note_on_c, 0, 71, 0
2, 15600, Note_on_c, 0, 59, 0
2, 15600, Note_on_c, 0, 60, 91
2, 15600, Note_on_c, 0, 72, 91
2, 15840, Note_on_c, 0, 72, 0
2, 15840, Note_on_c, 0, 60, 0
2, 15840, Note_on_c, 0, 62, 65
2, 15840, Note_on_c, 0, 74, 65
2, 16320, Note_on_c, 0, 74, 0
2, 16320, Note_on_c, 0, 62, 0
2, 16320, Note_on_c, 0, 64, 65
2, 16320, Note_on_c, 0, 76, 65
2, 16560, Note_on_c, 0, 76, 0
2, 16560, Note_on_c, 0, 64, 0
2, 16560, Note_on_c, 0, 66, 78
2, 16560, Note_on_c, 0, 78, 78
2, 17040, Note_on_c, 0, 78, 0
2, 17040, Note_on_c, 0, 66, 0
2, 17040, Note_on_c, 0, 67, 78
2, 17040, Note_on_c, 0, 79, 78
2, 17280, Note_on_c, 0, 79, 0
2, 17280, Note_on_c, 0, 67, 0
2, 17280, Note_on_c, 0, 67, 78
2, 17280, Note_on_c, 0, 79, 78
2, 17760, Note_on_c, 0, 79, 0
2, 17760, Note_on_c, 0, 67, 0
2, 17760, Note_on_c, 0, 66, 78
2, 17760, Note_on_c, 0, 78, 78
2, 18000, Note_on_c, 0, 78, 0
2, 18000, Note_on_c, 0, 66, 0
2, 18240, Note_on_c, 0, 66, 91
2, 18240, Note_on_c, 0, 78, 91
2, 18480, Note_on_c, 0, 78, 0
2, 18480, Note_on_c, 0, 66, 0
2, 18480, Note_on_c, 0, 67, 91
2, 18480, Note_on_c, 0, 79, 91
2, 18720, Note_on_c, 0, 79, 0
2, 18720, Note_on_c, 0, 67, 0
2, 18720, Note_on_c, 0, 66, 91
2, 18720, Note_on_c, 0, 78, 91
2, 19200, Note_on_c, 0, 78, 0
2, 19200, Note_on_c, 0, 66, 0
2, 19200, Note_on_c, 0, 64, 65
2, 19200, Note_on_c, 0, 76, 65
2, 19440, Note_on_c, 0, 76, 0
2, 19440, Note_on_c, 0, 64, 0
2, 19680, Note_on_c, 0, 64, 91
2, 19680, Note_on_c, 0, 76, 91
2, 19920, Note_on_c, 0, 76, 0
2, 19920, Note_on_c, 0, 64, 0
2, 19920, Note_on_c, 0, 66, 91
2, 19920, Note_on_c, 0, 78, 91
2, 20160, Note_on_c, 0, 78, 0
2, 20160, Note_on_c, 0, 66, 0
2, 20160, Note_on_c, 0, 64, 91
2, 20160, Note_on_c, 0, 76, 91
2, 20640, Note_on_c, 0, 76, 0
2, 20640, Note_on_c, 0, 64, 0
2, 20640, Note_on_c, 0, 62, 65
2, 20640, Note_on_c, 0, 74, 65
2, 20880, Note_on_c, 0, 74, 0
2, 20880, Note_on_c, 0, 62, 0
2, 21120, Note_on_c, 0, 71, 104
2, 21120, Note_on_c, 0, 83, 104
2, 21360, Note_on_c, 0, 83, 0
2, 21360, Note_on_c, 0, 71, 0
2, 21360, Note_on_c, 0, 72, 104
2, 21360, Note_on_c, 0, 84, 104
2, 21600, Note_on_c, 0, 84, 0
2, 21600, Note_on_c, 0, 72, 0
2, 21600, Note_on_c, 0, 74, 78
2, 21600, Note_on_c, 0, 86, 78
2, 22080, Note_on_c, 0, 86, 0
2, 22080, Note_on_c, 0, 74, 0
2, 22080, Note_on_c, 0, 76, 78
2, 22080, Note_on_c, 0, 88, 78
2, 22320, Note_on_c, 0, 88, 0
2, 22320, Note_on_c, 0, 76, 0
2, 22320, Note_on_c, 0, 78, 78
2, 22320, Note_on_c, 0, 90, 78
2, 22800, Note_on_c, 0, 90, 0
2, 22800, Note_on_c, 0, 78, 0
2, 22800, Note_on_c, 0, 79, 78
2, 22800, Note_on_c, 0, 91, 78
2, 23040, Note_on_c, 0, 91, 0
2, 23040, Note_on_c, 0, 79, 0
2, 23040, Note_on_c, 0, 79, 78
2, 23040, Note_on_c, 0, 91, 78
2, 23520, Note_on_c, 0, 91, 0
2, 23520, Note_on_c, 0, 79, 0
2, 23520, Note_on_c, 0, 78, 78
2, 23520, Note_on_c, 0, 90, 78
2, 23760, Note_on_c, 0, 90, 0
2, 23760, Note_on_c, 0, 78, 0
2, 24000, Note_on_c, 0, 78, 91
2, 24000, Note_on_c, 0, 90, 91
2, 24240, Note_on_c, 0, 90, 0
2, 24240, Note_on_c, 0, 78, 0
2, 24240, Note_on_c, 0, 79, 91
2, 24240, Note_on_c, 0, 91, 91
2, 24480, Note_on_c, 0, 91, 0
2, 24480, Note_on_c, 0, 79, 0
2, 24480, Note_on_c, 0, 78, 91
2, 24480, Note_on_c, 0, 90, 91
2, 24960, Note_on_c, 0, 90, 0
2, 24960, Note_on_c, 0, 78, 0
2, 24960, Note_on_c, 0, 76, 65
2, 24960, Note_on_c, 0, 88, 65
2, 25200, Note_on_c, 0, 88, 0
2, 25200, Note_on_c, 0, 76, 0
2, 25440, Note_on_c, 0, 76, 91
2, 25440, Note_on_c, 0, 88, 91
2, 25680, Note_on_c, 0, 88, 0
2, 25680, Note_on_c, 0, 76, 0
2, 25680, Note_on_c, 0, 78, 91
2, 25680, Note_on_c, 0, 90, 91
2, 25920, Note_on_c, 0, 90, 0
2, 25920, Note_on_c, 0, 78, 0
2, 25920, Note_on_c, 0, 76, 65
2, 25920, Note_on_c, 0, 88, 65
2, 26400, Note_on_c, 0, 88, 0
2, 26400, Note_on_c, 0, 76, 0
2, 26400, Note_on_c, 0, 74, 65
2, 26400, Note_on_c, 0, 86, 65
2, 26640, Note_on_c, 0, 86, 0
2, 26640, Note_on_c, 0, 74, 0
2, 26880, Note_on_c, 0, 71, 91
2, 26880, Note_on_c, 0, 83, 91
2, 27120, Note_on_c, 0, 83, 0
2, 27120, Note_on_c, 0, 71, 0
2, 27120, Note_on_c, 0, 72, 91
2, 27120, Note_on_c, 0, 84, 91
2, 27360, Note_on_c, 0, 84, 0
2, 27360, Note_on_c, 0, 72, 0
2, 27360, Note_on_c, 0, 74, 65
2, 27360, Note_on_c, 0, 86, 65
2, 27840, Note_on_c, 0, 86, 0
2, 27840, Note_on_c, 0, 74, 0
2, 27840, Note_on_c, 0, 76, 65
2, 27840, Note_on_c, 0, 88, 65
2, 28080, Note_on_c, 0, 88, 0
2, 28080, Note_on_c, 0, 76, 0
2, 28080, Note_on_c, 0, 78, 78
2, 28080, Note_on_c, 0, 90, 78
2, 28560, Note_on_c, 0, 90, 0
2, 28560, Note_on_c, 0, 78, 0
2, 28560, Note_on_c, 0, 79, 78
2, 28560, Note_on_c, 0, 91, 78
2, 28800, Note_on_c, 0, 91, 0
2, 28800, Note_on_c, 0, 79, 0
2, 28800, Note_on_c, 0, 79, 78
2, 28800, Note_on_c, 0, 91, 78
2, 29280, Note_on_c, 0, 91, 0
2, 29280, Note_on_c, 0, 79, 0
2, 29280, Note_on_c, 0, 78, 78
2, 29280, Note_on_c, 0, 90, 78
2, 29520, Note_on_c, 0, 90, 0
2, 29520, Note_on_c, 0, 78, 0
2, 29760, Note_on_c, 0, 78, 91
2, 29760, Note_on_c, 0, 90, 91
2, 30000, Note_on_c, 0, 90, 0
2, 30000, Note_on_c, 0, 78, 0
2, 30000, Note_on_c, 0, 79, 91
2, 30000, Note_on_c, 0, 91, 91
2, 30240, Note_on_c, 0, 91, 0
2, 30240, Note_on_c, 0, 79, 0
2, 30240, Note_on_c, 0, 78, 91
2, 30240, Note_on_c, 0, 90, 91
2, 30720, Note_on_c, 0, 90, 0
2, 30720, Note_on_c, 0, 78, 0
2, 30720, Note_on_c, 0, 76, 65
2, 30720, Note_on_c, 0, 88, 65
2, 30960, Note_on_c, 0, 88, 0
2, 30960, Note_on_c, 0, 76, 0
2, 31200, Note_on_c, 0, 76, 91
2, 31200, Note_on_c, 0, 88, 91
2, 31440, Note_on_c, 0, 88, 0
2, 31440, Note_on_c, 0, 76, 0
2, 31440, Note_on_c, 0, 78, 91
2, 31440, Note_on_c, 0, 90, 91
2, 31680, Note_on_c, 0, 90, 0
2, 31680, Note_on_c, 0, 78, 0
2, 31680, Note_on_c, 0, 76, 91
2, 31680, Note_on_c, 0, 88, 91
2, 32160, Note_on_c, 0, 88, 0
2, 32160, Note_on_c, 0, 76, 0
2, 32160, Note_on_c, 0, 74, 65
2, 32160, Note_on_c, 0, 86, 65
2, 32400, Note_on_c, 0, 86, 0
2, 32400, Note_on_c, 0, 74, 0
2, 32640, Note_on_c, 0, 71, 78
2, 32640, Note_on_c, 0, 74, 78
2, 32880, Note_on_c, 0, 74, 0
2, 32880, Note_on_c, 0, 71, 0
2, 32880, Note_on_c, 0, 69, 78
2, 32880, Note_on_c, 0, 72, 78
2, 33120, Note_on_c, 0, 72, 0
2, 33120, Note_on_c, 0, 69, 0
2, 33120, Control_c, 0, 64, 127
2, 33120, Note_on_c, 0, 67, 78
2, 33120, Note_on_c, 0, 71, 78
2, 33360, Note_on_c, 0, 71, 0
2, 33360, Note_on_c, 0, 67, 0
2, 33360, Note_on_c, 0, 66, 78
2, 33360, Note_on_c, 0, 69, 78
2, 33600, Note_on_c, 0, 69, 0
2, 33600, Note_on_c, 0, 66, 0
2, 33600, Note_on_c, 0, 65, 78
2, 33600, Note_on_c, 0, 68, 78
2, 33840, Note_on_c, 0, 68, 0
2, 33840, Note_on_c, 0, 65, 0
2, 33840, Control_c, 0, 64, 0
2, 33840, Note_on_c, 0, 66, 78
2, 33840, Note_on_c, 0, 69, 78
2, 34080, Note_on_c, 0, 69, 0
2, 34080, Note_on_c, 0, 66, 0
2, 34080, Note_on_c, 0, 67, 104
2, 34080, Note_on_c, 0, 71, 104
2, 34320, Note_on_c, 0, 71, 0
2, 34320, Note_on_c, 0, 67, 0
2, 34320, Note_on_c, 0, 69, 104
2, 34320, Note_on_c, 0, 72, 104
2, 34560, Note_on_c, 0, 72, 0
2, 34560, Note_on_c, 0, 69, 0
2, 34560, Note_on_c, 0, 65, 78
2, 34560, Note_on_c, 0, 68, 78
2, 34560, Note_on_c, 0, 74, 78
2, 34800, Note_on_c, 0, 74, 0
2, 34800, Note_on_c, 0, 68, 0
2, 34800, Note_on_c, 0, 65, 0
2, 34800, Note_on_c, 0, 64, 78
2, 34800, Note_on_c, 0, 67, 78
2, 34800, Note_on_c, 0, 76, 78
2, 35040, Note_on_c, 0, 76, 0
2, 35040, Note_on_c, 0, 67, 0
2, 35040, Note_on_c, 0, 64, 0
2, 35040, Note_on_c, 0, 66, 104
2, 35040, Note_on_c, 0, 75, 104
2, 35040, Note_on_c, 0, 78, 104
2, 35280, Note_on_c, 0, 78, 0
2, 35280, Note_on_c, 0, 75, 0
2, 35280, Note_on_c, 0, 66, 0
2, 35280, Note_on_c, 0, 67, 104
2, 35280, Note_on_c, 0, 74, 104
2, 35280, Note_on_c, 0, 79, 104
2, 35520, Note_on_c, 0, 79, 0
2, 35520, Note_on_c, 0, 74, 0
2, 35520, Note_on_c, 0, 67, 0
2, 35520, Note_on_c, 0, 71, 78
2, 35520, Note_on_c, 0, 74, 78
2, 35760, Note_on_c, 0, 74, 0
2, 35760, Note_on_c, 0, 71, 0
2, 35760, Note_on_c, 0, 69, 78
2, 35760, Note_on_c, 0, 72, 78
2, 36000, Note_on_c, 0, 72, 0
2, 36000, Note_on_c, 0, 69, 0
2, 36000, Control_c, 0, 64, 127
2, 36000, Note_on_c, 0, 67, 78
2, 36000, Note_on_c, 0, 71, 78
2, 36240, Note_on_c, 0, 71, 0
2, 36240, Note_on_c, 0, 67, 0
2, 36240, Note_on_c, 0, 66, 78
2, 36240, Note_on_c, 0, 69, 78
2, 36480, Note_on_c, 0, 69, 0
2, 36480, Note_on_c, 0, 66, 0
2, 36480, Note_on_c, 0, 65, 78
2, 36480, Note_on_c, 0, 68, 78
2, 36720, Note_on_c, 0, 68, 0
2, 36720, Note_on_c, 0, 65, 0
2, 36720, Control_c, 0, 64, 0
2, 36720, Note_on_c, 0, 66, 78
2, 36720, Note_on_c, 0, 69, 78
2, 36960, Note_on_c, 0, 69, 0
2, 36960, Note_on_c, 0, 66, 0
2, 36960, Note_on_c, 0, 67, 104
2, 36960, Note_on_c, 0, 71, 104
2, 37200, Note_on_c, 0, 71, 0
2, 37200, Note_on_c, 0, 67, 0
2, 37200, Note_on_c, 0, 69, 104
2, 37200, Note_on_c, 0, 72, 104
2, 37440, Note_on_c, 0, 72, 0
2, 37440, Note_on_c, 0, 69, 0
2, 37440, Note_on_c, 0, 65, 78
2, 37440, Note_on_c, 0, 68, 78
2, 37440, Note_on_c, 0, 74, 78
2, 37680, Note_on_c, 0, 74, 0
2, 37680, Note_on_c, 0, 68, 0
2, 37680, Note_on_c, 0, 65, 0
2, 37680, Note_on_c, 0, 64, 78
2, 37680, Note_on_c, 0, 67, 78
2, 37680, Note_on_c, 0, 76, 78
2, 37920, Note_on_c, 0, 76, 0
2, 37920, Note_on_c, 0, 67, 0
2, 37920, Note_on_c, 0, 64, 0
2, 37920, Note_on_c, 0, 66, 104
2, 37920, Note_on_c, 0, 75, 104
2, 37920, Note_on_c, 0, 78, 104
2, 38160, Note_on_c, 0, 78, 0
2, 38160, Note_on_c, 0, 75, 0
2, 38160, Note_on_c, 0, 66, 0
2, 38160, Note_on_c, 0, 67, 104
2, 38160, Note_on_c, 0, 74, 104
2, 38160, Note_on_c, 0, 79, 104
2, 38400, Note_on_c, 0, 79, 0
2, 38400, Note_on_c, 0, 74, 0
2, 38400, Note_on_c, 0, 67, 0
2, 38400, Note_on_c, 0, 71, 117
2, 38400, Note_on_c, 0, 79, 117
2, 38400, Note_on_c, 0, 83, 117
2, 38640, Note_on_c, 0, 83, 0
2, 38640, Note_on_c, 0, 79, 0
2, 38640, Note_on_c, 0, 71, 0
2, 38640, Note_on_c, 0, 69, 117
2, 38640, Note_on_c, 0, 78, 117
2, 38640, Note_on_c, 0, 81, 117
2, 38880, Note_on_c, 0, 81, 0
2, 38880, Note_on_c, 0, 78, 0
2, 38880, Note_on_c, 0, 69, 0
2, 38880, Note_on_c, 0, 69, 117
2, 38880, Note_on_c, 0, 78, 117
2, 38880, Note_on_c, 0, 81, 117
2, 39360, Note_on_c, 0, 81, 0
2, 39360, Note_on_c, 0, 78, 0
2, 39360, Note_on_c, 0, 69, 0
2, 39360, Note_on_c, 0, 67, 91
2, 39360, Note_on_c, 0, 76, 91
2, 39360, Note_on_c, 0, 79, 91
2, 39840, Note_on_c, 0, 79, 0
2, 39840, Note_on_c, 0, 76, 0
2, 39840, Note_on_c, 0, 67, 0
2, 39840, Note_on_c, 0, 67, 104
2, 39840, Note_on_c, 0, 76, 104
2, 39840, Note_on_c, 0, 79, 104
2, 40080, Note_on_c, 0, 79, 0
2, 40080, Note_on_c, 0, 76, 0
2, 40080, Note_on_c, 0, 67, 0
2, 40080, Note_on_c, 0, 66, 104
2, 40080, Note_on_c, 0, 74, 104
2, 40080, Note_on_c, 0, 78, 104
2, 40320, Note_on_c, 0, 78, 0
2, 40320, Note_on_c, 0, 74, 0
2, 40320, Note_on_c, 0, 66, 0
2, 40320, Note_on_c, 0, 66, 104
2, 40320, Note_on_c, 0, 74, 104
2, 40320, Note_on_c, 0, 78, 104
2, 40800, Note_on_c, 0, 78, 0
2, 40800, Note_on_c, 0, 74, 0
2, 40800, Note_on_c, 0, 66, 0
2, 40800, Note_on_c, 0, 64, 78
2, 40800, Note_on_c, 0, 72, 78
2, 40800, Note_on_c, 0, 76, 78
2, 41280, Note_on_c, 0, 76, 0
2, 41280, Note_on_c, 0, 72, 0
2, 41280, Note_on_c, 0, 64, 0
2, 41280, Note_on_c, 0, 64, 91
2, 41280, Note_on_c, 0, 72, 91
2, 41280, Note_on_c, 0, 76, 91
2, 41520, Note_on_c, 0, 76, 0
2, 41520, Note_on_c, 0, 72, 0
2, 41520, Note_on_c, 0, 64, 0
2, 41520, Note_on_c, 0, 62, 91
2, 41520, Note_on_c, 0, 71, 91
2, 41520, Note_on_c, 0, 74, 91
2, 41760, Note_on_c, 0, 74, 0
2, 41760, Note_on_c, 0, 71, 0
2, 41760, Note_on_c, 0, 62, 0
2, 41760, Note_on_c, 0, 62, 65
2, 41760, Note_on_c, 0, 71, 65
2, 41760, Note_on_c, 0, 74, 65
2, 42000, Note_on_c, 0, 74, 0
2, 42000, Note_on_c, 0, 71, 0
2, 42000, Note_on_c, 0, 62, 0
2, 42000, Note_on_c, 0, 60, 65
2, 42000, Note_on_c, 0, 69, 65
2, 42000, Note_on_c, 0, 72, 65
2, 42240, Note_on_c, 0, 72, 0
2, 42240, Note_on_c, 0, 69, 0
2, 42240, Note_on_c, 0, 60, 0
2, 42240, Note_on_c, 0, 59, 65
2, 42240, Note_on_c, 0, 68, 65
2, 42240, Note_on_c, 0, 71, 65
2, 42480, Note_on_c, 0, 71, 0
2, 42480, Note_on_c, 0, 68, 0
2, 42480, Note_on_c, 0, 59, 0
2, 42480, Note_on_c, 0, 57, 65
2, 42480, Note_on_c, 0, 69, 65
2, 42720, Note_on_c, 0, 69, 0
2, 42720, Note_on_c, 0, 57, 0
2, 42720, Note_on_c, 0, 59, 65
2, 42720, Note_on_c, 0, 68, 65
2, 42720, Note_on_c, 0, 71, 65
2, 42960, Note_on_c, 0, 71, 0
2, 42960, Note_on_c, 0, 68, 0
2, 42960, Note_on_c, 0, 59, 0
2, 42960, Note_on_c, 0, 57, 65
2, 42960, Note_on_c, 0, 69, 65
2, 43200, Note_on_c, 0, 69, 0
2, 43200, Note_on_c, 0, 57, 0
2, 43200, Note_on_c, 0, 62, 52
2, 43200, Note_on_c, 0, 74, 52
2, 43440, Note_on_c, 0, 74, 0
2, 43440, Note_on_c, 0, 62, 0
2, 43440, Note_on_c, 0, 71, 52
2, 43680, Note_on_c, 0, 71, 0
2, 43680, Note_on_c, 0, 69, 52
2, 43920, Note_on_c, 0, 69, 0
2, 43920, Note_on_c, 0, 62, 52
2, 43920, Note_on_c, 0, 67, 52
2, 44160, Note_on_c, 0, 67, 0
2, 44160, Note_on_c, 0, 62, 0
2, 44160, Note_on_c, 0, 71, 78
2, 44160, Note_on_c, 0, 79, 78
2, 44160, Note_on_c, 0, 83, 78
2, 44400, Note_on_c, 0, 83, 0
2, 44400, Note_on_c, 0, 79, 0
2, 44400, Note_on_c, 0, 71, 0
2, 44400, Note_on_c, 0, 69, 78
2, 44400, Note_on_c, 0, 78, 78
2, 44400, Note_on_c, 0, 81, 78
2, 44640, Note_on_c, 0, 81, 0
2, 44640, Note_on_c, 0, 78, 0
2, 44640, Note_on_c, 0, 69, 0
2, 44640, Note_on_c, 0, 69, 78
2, 44640, Note_on_c, 0, 78, 78
2, 44640, Note_on_c, 0, 81, 78
2, 45120, Note_on_c, 0, 81, 0
2, 45120, Note_on_c, 0, 78, 0
2, 45120, Note_on_c, 0, 69, 0
2, 45120, Note_on_c, 0, 67, 52
2, 45120, Note_on_c, 0, 76, 52
2, 45120, Note_on_c, 0, 79, 52
2, 45600, Note_on_c, 0, 79, 0
2, 45600, Note_on_c, 0, 76, 0
2, 45600, Note_on_c, 0, 67, 0
2, 45600, Note_on_c, 0, 67, 104
2, 45600, Note_on_c, 0, 76, 104
2, 45600, Note_on_c, 0, 79, 104
2, 45840, Note_on_c, 0, 79, 0
2, 45840, Note_on_c, 0, 76, 0
2, 45840, Note_on_c, 0, 67, 0
2, 45840, Note_on_c, 0, 66, 104
2, 45840, Note_on_c, 0, 74, 104
2, 45840, Note_on_c, 0, 78, 104
2, 46080, Note_on_c, 0, 78, 0
2, 46080, Note_on_c, 0, 74, 0
2, 46080, Note_on_c, 0, 66, 0
2, 46080, Note_on_c, 0, 66, 104
2, 46080, Note_on_c, 0, 74, 104
2, 46080, Note_on_c, 0, 78, 104
2, 46560, Note_on_c, 0, 78, 0
2, 46560, Note_on_c, 0, 74, 0
2, 46560, Note_on_c, 0, 66, 0
2, 46560, Note_on_c, 0, 64, 78
2, 46560, Note_on_c, 0, 72, 78
2, 46560, Note_on_c, 0, 76, 78
2, 47040, Note_on_c, 0, 76, 0
2, 47040, Note_on_c, 0, 72, 0
2, 47040, Note_on_c, 0, 64, 0
2, 47040, Note_on_c, 0, 64, 91
2, 47040, Note_on_c, 0, 72, 91
2, 47040, Note_on_c, 0, 76, 91
2, 47280, Note_on_c, 0, 76, 0
2, 47280, Note_on_c, 0, 72, 0
2, 47280, Note_on_c, 0, 64, 0
2, 47280, Note_on_c, 0, 62, 91
2, 47280, Note_on_c, 0, 71, 91
2, 47280, Note_on_c, 0, 74, 91
2, 47520, Note_on_c, 0, 74, 0
2, 47520, Note_on_c, 0, 71, 0
2, 47520, Note_on_c, 0, 62, 0
2, 47520, Note_on_c, 0, 62, 65
2, 47520, Note_on_c, 0, 71, 65
2, 47520, Note_on_c, 0, 74, 65
2, 47760, Note_on_c, 0, 74, 0
2, 47760, Note_on_c, 0, 71, 0
2, 47760, Note_on_c, 0, 62, 0
2, 47760, Note_on_c, 0, 60, 65
2, 47760, Note_on_c, 0, 69, 65
2, 47760, Note_on_c, 0, 72, 65
2, 48000, Note_on_c, 0, 72, 0
2, 48000, Note_on_c, 0, 69, 0
2, 48000, Note_on_c, 0, 60, 0
2, 48000, Note_on_c, 0, 59, 65
2, 48000, Note_on_c, 0, 68, 65
2, 48000, Note_on_c, 0, 71, 65
2, 48240, Note_on_c, 0, 71, 0
2, 48240, Note_on_c, 0, 68, 0
2, 48240, Note_on_c, 0, 59, 0
2, 48240, Note_on_c, 0, 57, 65
2, 48240, Note_on_c, 0, 69, 65
2, 48480, Note_on_c, 0, 69, 0
2, 48480, Note_on_c, 0, 57, 0
2, 48480, Note_on_c, 0, 59, 65
2, 48480, Note_on_c, 0, 68, 65
2, 48480, Note_on_c, 0, 71, 65
2, 48720, Note_on_c, 0, 71, 0
2, 48720, Note_on_c, 0, 68, 0
2, 48720, Note_on_c, 0, 59, 0
2, 48720, Note_on_c, 0, 57, 65
2, 48720, Note_on_c, 0, 69, 65
2, 48960, Note_on_c, 0, 69, 0
2, 48960, Note_on_c, 0, 57, 0
2, 48960, Note_on_c, 0, 62, 52
2, 48960, Note_on_c, 0, 74, 52
2, 49200, Note_on_c, 0, 74, 0
2, 49200, Note_on_c, 0, 62, 0
2, 49200, Note_on_c, 0, 71, 52
2, 49440, Note_on_c, 0, 71, 0
2, 49440, Note_on_c, 0, 69, 52
2, 49680, Note_on_c, 0, 69, 0
2, 49680, Note_on_c, 0, 62, 52
2, 49680, Note_on_c, 0, 67, 52
2, 49920, Note_on_c, 0, 67, 0
2, 49920, Note_on_c, 0, 62, 0
2, 49920, Note_on_c, 0, 59, 91
2, 49920, Note_on_c, 0, 71, 91
2, 50160, Note_on_c, 0, 71, 0
2, 50160, Note_on_c, 0, 59, 0
2, 50160, Note_on_c, 0, 60, 91
2, 50160, Note_on_c, 0, 72, 91
2, 50400, Note_on_c, 0, 72, 0
2, 50400, Note_on_c, 0, 60, 0
2, 50400, Note_on_c, 0, 62, 65
2, 50400, Note_on_c, 0, 74, 65
2, 50880, Note_on_c, 0, 74, 0
2, 50880, Note_on_c, 0, 62, 0
2, 50880, Note_on_c, 0, 63, 65
2, 50880, Note_on_c, 0, 75, 65
2, 51120, Note_on_c, 0, 75, 0
2, 51120, Note_on_c, 0, 63, 0
2, 51120, Note_on_c, 0, 64, 65
2, 51120, Note_on_c, 0, 76, 65
2, 51600, Note_on_c, 0, 76, 0
2, 51600, Note_on_c, 0, 64, 0
2, 51600, Note_on_c, 0, 66, 65
2, 51600, Note_on_c, 0, 78, 65
2, 51840, Note_on_c, 0, 78, 0
2, 51840, Note_on_c, 0, 66, 0
2, 51840, Note_on_c, 0, 66, 65
2, 51840, Note_on_c, 0, 78, 65
2, 52320, Note_on_c, 0, 78, 0
2, 52320, Note_on_c, 0, 66, 0
2, 52320, Note_on_c, 0, 67, 65
2, 52320, Note_on_c, 0, 79, 65
2, 52560, Note_on_c, 0, 79, 0
2, 52560, Note_on_c, 0, 67, 0
2, 52800, Note_on_c, 0, 67, 104
2, 52800, Note_on_c, 0, 79, 104
2, 53040, Note_on_c, 0, 79, 0
2, 53040, Note_on_c, 0, 67, 0
2, 53040, Note_on_c, 0, 64, 104
2, 53040, Note_on_c, 0, 76, 104
2, 53280, Note_on_c, 0, 76, 0
2, 53280, Note_on_c, 0, 64, 0
2, 53280, Note_on_c, 0, 67, 104
2, 53280, Note_on_c, 0, 79, 104
2, 53760, Note_on_c, 0, 79, 0
2, 53760, Note_on_c, 0, 67, 0
2, 53760, Note_on_c, 0, 66, 78
2, 53760, Note_on_c, 0, 78, 78
2, 54000, Note_on_c, 0, 78, 0
2, 54000, Note_on_c, 0, 66, 0
2, 54240, Note_on_c, 0, 69, 104
2, 54240, Note_on_c, 0, 81, 104
2, 54480, Note_on_c, 0, 81, 0
2, 54480, Note_on_c, 0, 69, 0
2, 54480, Note_on_c, 0, 66, 104
2, 54480, Note_on_c, 0, 78, 104
2, 54720, Note_on_c, 0, 78, 0
2, 54720, Note_on_c, 0, 66, 0
2, 54720, Note_on_c, 0, 69, 104
2, 54720, Note_on_c, 0, 81, 104
2, 55200, Note_on_c, 0, 81, 0
2, 55200, Note_on_c, 0, 69, 0
2, 55200, Note_on_c, 0, 67, 78
2, 55200, Note_on_c, 0, 79, 78
2, 55440, Note_on_c, 0, 79, 0
2, 55440, Note_on_c, 0, 67, 0
2, 55680, Note_on_c, 0, 71, 104
2, 55680, Note_on_c, 0, 83, 104
2, 55920, Note_on_c, 0, 83, 0
2, 55920, Note_on_c, 0, 71, 0
2, 55920, Note_on_c, 0, 72, 104
2, 55920, Note_on_c, 0, 84, 104
2, 56160, Note_on_c, 0, 84, 0
2, 56160, Note_on_c, 0, 72, 0
2, 56160, Note_on_c, 0, 74, 78
2, 56160, Note_on_c, 0, 86, 78
2, 56640, Note_on_c, 0, 86, 0
2, 56640, Note_on_c, 0, 74, 0
2, 56640, Note_on_c, 0, 75, 78
2, 56640, Note_on_c, 0, 87, 78
2, 56880, Note_on_c, 0, 87, 0
2, 56880, Note_on_c, 0, 75, 0
2, 56880, Note_on_c, 0, 76, 78
2, 56880, Note_on_c, 0, 88, 78
2, 57360, Note_on_c, 0, 88, 0
2, 57360, Note_on_c, 0, 76, 0
2, 57360, Note_on_c, 0, 78, 78
2, 57360, Note_on_c, 0, 90, 78
2, 57600, Note_on_c, 0, 90, 0
2, 57600, Note_on_c, 0, 78, 0
2, 57600, Note_on_c, 0, 78, 78
2, 57600, Note_on_c, 0, 90, 78
2, 58080, Note_on_c, 0, 90, 0
2, 58080, Note_on_c, 0, 78, 0
2, 58080, Note_on_c, 0, 79, 78
2, 58080, Note_on_c, 0, 91, 78
2, 58320, Note_on_c, 0, 91, 0
2, 58320, Note_on_c, 0, 79, 0
2, 58560, Note_on_c, 0, 79, 104
2, 58560, Note_on_c, 0, 91, 104
2, 58800, Note_on_c, 0, 91, 0
2, 58800, Note_on_c, 0, 79, 0
2, 58800, Note_on_c, 0, 76, 104
2, 58800, Note_on_c, 0, 88, 104
2, 59040, Note_on_c, 0, 88, 0
2, 59040, Note_on_c, 0, 76, 0
2, 59040, Note_on_c, 0, 79, 104
2, 59040, Note_on_c, 0, 91, 104
2, 59520, Note_on_c, 0, 91, 0
2, 59520, Note_on_c, 0, 79, 0
2, 59520, Note_on_c, 0, 78, 78
2, 59520, Note_on_c, 0, 90, 78
2, 59760, Note_on_c, 0, 90, 0
2, 59760, Note_on_c, 0, 78, 0
2, 60000, Note_on_c, 0, 81, 104
2, 60000, Note_on_c, 0, 93, 104
2, 60240, Note_on_c, 0, 93, 0
2, 60240, Note_on_c, 0, 81, 0
2, 60240, Note_on_c, 0, 78, 104
2, 60240, Note_on_c, 0, 90, 104
2, 60480, Note_on_c, 0, 90, 0
2, 60480, Note_on_c, 0, 78, 0
2, 60480, Note_on_c, 0, 81, 91
2, 60480, Note_on_c, 0, 93, 91
2, 60960, Note_on_c, 0, 93, 0
2, 60960, Note_on_c, 0, 81, 0
2, 60960, Note_on_c, 0, 79, 91
2, 60960, Note_on_c, 0, 91, 91
2, 61200, Note_on_c, 0, 91, 0
2, 61200, Note_on_c, 0, 79, 0
2, 61440, Note_on_c, 0, 73, 104
2, 61440, Note_on_c, 0, 85, 104
2, 61680, Note_on_c, 0, 85, 0
2, 61680, Note_on_c, 0, 73, 0
2, 61680, Note_on_c, 0, 74, 104
2, 61680, Note_on_c, 0, 86, 104
2, 61920, Note_on_c, 0, 86, 0
2, 61920, Note_on_c, 0, 74, 0
2, 61920, Note_on_c, 0, 76, 104
2, 61920, Note_on_c, 0, 88, 104
2, 62400, Note_on_c, 0, 88, 0
2, 62400, Note_on_c, 0, 76, 0
2, 62400, Note_on_c, 0, 74, 78
2, 62400, Note_on_c, 0, 86, 78
2, 62640, Note_on_c, 0, 86, 0
2, 62640, Note_on_c, 0, 74, 0
2, 62880, Note_on_c, 0, 70, 91
2, 62880, Note_on_c, 0, 82, 91
2, 63120, Note_on_c, 0, 82, 0
2, 63120, Note_on_c, 0, 70, 0
2, 63120, Note_on_c, 0, 71, 91
2, 63120, Note_on_c, 0, 83, 91
2, 63360, Note_on_c, 0, 83, 0
2, 63360, Note_on_c, 0, 71, 0
2, 63360, Note_on_c, 0, 72, 91
2, 63360, Note_on_c, 0, 84, 91
2, 63840, Note_on_c, 0, 84, 0
2, 63840, Note_on_c, 0, 72, 0
2, 63840, Note_on_c, 0, 71, 65
2, 63840, Note_on_c, 0, 83, 65
2, 64080, Note_on_c, 0, 83, 0
2, 64080, Note_on_c, 0, 71, 0
2, 64320, Note_on_c, 0, 66, 78
2, 64320, Note_on_c, 0, 78, 78
2, 64560, Note_on_c, 0, 78, 0
2, 64560, Note_on_c, 0, 66, 0
2, 64560, Note_on_c, 0, 67, 78
2, 64560, Note_on_c, 0, 79, 78
2, 64800, Note_on_c, 0, 79, 0
2, 64800, Note_on_c, 0, 67, 0
2, 64800, Note_on_c, 0, 69, 78
2, 64800, Note_on_c, 0, 81, 78
2, 65280, Note_on_c, 0, 81, 0
2, 65280, Note_on_c, 0, 69, 0
2, 65280, Note_on_c, 0, 67, 65
2, 65280, Note_on_c, 0, 79, 65
2, 65520, Note_on_c, 0, 79, 0
2, 65520, Note_on_c, 0, 67, 0
2, 65520, Note_on_c, 0, 69, 91
2, 65520, Note_on_c, 0, 81, 91
2, 66000, Note_on_c, 0, 81, 0
2, 66000, Note_on_c, 0, 69, 0
2, 66000, Note_on_c, 0, 67, 78
2, 66000, Note_on_c, 0, 79, 78
2, 66240, Note_on_c, 0, 79, 0
2, 66240, Note_on_c, 0, 67, 0
2, 66480, Note_on_c, 0, 67, 91
2, 66480, Note_on_c, 0, 72, 91
2, 66480, Note_on_c, 0, 75, 91
2, 66480, Note_on_c, 0, 79, 91
2, 66720, Note_on_c, 0, 79, 0
2, 66720, Note_on_c, 0, 67, 0
2, 66720, Note_on_c, 0, 72, 0
2, 66720, Note_on_c, 0, 75, 0
2, 66720, Note_on_c, 0, 69, 91
2, 66720, Note_on_c, 0, 72, 91
2, 66720, Note_on_c, 0, 75, 91
2, 66720, Note_on_c, 0, 81, 91
2, 66960, Note_on_c, 0, 81, 0
2, 66960, Note_on_c, 0, 69, 0
2, 66960, Note_on_c, 0, 72, 0
2, 66960, Note_on_c, 0, 75, 0
2, 66960, Note_on_c, 0, 71, 117
2, 66960, Note_on_c, 0, 74, 117
2, 66960, Note_on_c, 0, 79, 117
2, 66960, Note_on_c, 0, 83, 117
2, 67440, Note_on_c, 0, 83, 0
2, 67440, Note_on_c, 0, 71, 0
2, 67440, Note_on_c, 0, 74, 0
2, 67440, Note_on_c, 0, 79, 0
2, 67440, Control_c, 0, 64, 127
2, 69840, Control_c, 0, 64, 0
2, 69840, End_track
3, 0, Start_track
3, 0, Title_t, "Grand Piano"
3, 0, Program_c, 0, 0
3, 0, Control_c, 0, 7, 115
3, 0, Control_c, 0, 10, 79
3, 10080, Note_on_c, 0, 71, 75
3, 10800, Note_on_c, 0, 71, 0
3, 11520, Note_on_c, 0, 69, 75
3, 11520, Note_on_c, 0, 72, 75
3, 12240, Note_on_c, 0, 72, 0
3, 12240, Note_on_c, 0, 69, 0
3, 12240, Note_on_c, 0, 72, 75
3, 12240, Note_on_c, 0, 74, 75
3, 12480, Note_on_c, 0, 74, 0
3, 12480, Note_on_c, 0, 72, 0
3, 12960, Note_on_c, 0, 67, 75
3, 12960, Note_on_c, 0, 71, 75
3, 14400, Note_on_c, 0, 71, 0
3, 14400, Note_on_c, 0, 67, 0
3, 14400, Note_on_c, 0, 69, 75
3, 14400, Note_on_c, 0, 72, 75
3, 15840, Note_on_c, 0, 72, 0
3, 15840, Note_on_c, 0, 69, 0
3, 15840, Note_on_c, 0, 71, 75
3, 16560, Note_on_c, 0, 71, 0
3, 16560, Note_on_c, 0, 74, 75
3, 17280, Note_on_c, 0, 74, 0
3, 17280, Note_on_c, 0, 69, 75
3, 17280, Note_on_c, 0, 74, 75
3, 18720, Note_on_c, 0, 74, 0
3, 18720, Note_on_c, 0, 69, 0
3, 18720, Note_on_c, 0, 67, 75
3, 20160, Note_on_c, 0, 67, 0
3, 20160, Note_on_c, 0, 66, 75
3, 20160, Note_on_c, 0, 69, 75
3, 20880, Note_on_c, 0, 69, 0
3, 20880, Note_on_c, 0, 66, 0
3, 21600, Note_on_c, 0, 83, 75
3, 22320, Note_on_c, 0, 83, 0
3, 22320, Note_on_c, 0, 86, 75
3, 23040, Note_on_c, 0, 86, 0
3, 23040, Note_on_c, 0, 81, 75
3, 23040, Note_on_c, 0, 84, 75
3, 23760, Note_on_c, 0, 84, 0
3, 23760, Note_on_c, 0, 81, 0
3, 23760, Note_on_c, 0, 84, 75
3, 23760, Note_on_c, 0, 86, 75
3, 24000, Note_on_c, 0, 86, 0
3, 24000, Note_on_c, 0, 84, 0
3, 24480, Note_on_c, 0, 79, 75
3, 24480, Note_on_c, 0, 83, 75
3, 25920, Note_on_c, 0, 83, 0
3, 25920, Note_on_c, 0, 79, 0
3, 25920, Note_on_c, 0, 81, 75
3, 25920, Note_on_c, 0, 84, 75
3, 26880, Note_on_c, 0, 84, 0
3, 26880, Note_on_c, 0, 81, 0
3, 27360, Note_on_c, 0, 83, 75
3, 28080, Note_on_c, 0, 83, 0
3, 28080, Note_on_c, 0, 86, 75
3, 28800, Note_on_c, 0, 86, 0
3, 28800, Note_on_c, 0, 81, 75
3, 28800, Note_on_c, 0, 86, 75
3, 30240, Note_on_c, 0, 86, 0
3, 30240, Note_on_c, 0, 81, 0
3, 30240, Note_on_c, 0, 79, 75
3, 31680, Note_on_c, 0, 79, 0
3, 31680, Note_on_c, 0, 78, 75
3, 31680, Note_on_c, 0, 81, 75
3, 32400, Note_on_c, 0, 81, 0
3, 32400, Note_on_c, 0, 78, 0
3, 43200, Note_on_c, 0, 71, 62
3, 43440, Note_on_c, 0, 71, 0
3, 43440, Note_on_c, 0, 62, 62
3, 43560, Note_on_c, 0, 62, 0
3, 43560, Note_on_c, 0, 63, 62
3, 43680, Note_on_c, 0, 63, 0
3, 43680, Note_on_c, 0, 64, 62
3, 43800, Note_on_c, 0, 64, 0
3, 43800, Note_on_c, 0, 66, 62
3, 43920, Note_on_c, 0, 66, 0
3, 48960, Note_on_c, 0, 71, 62
3, 49200, Note_on_c, 0, 71, 0
3, 49200, Note_on_c, 0, 62, 62
3, 49320, Note_on_c, 0, 62, 0
3, 49320, Note_on_c, 0, 63, 62
3, 49440, Note_on_c, 0, 63, 0
3, 49440, Note_on_c, 0, 64, 62
3, 49560, Note_on_c, 0, 64, 0
3, 49560, Note_on_c, 0, 66, 62
3, 49680, Note_on_c, 0, 66, 0
3, 49920, Note_on_c, 0, 67, 62
3, 49920, Note_on_c, 0, 71, 62
3, 50400, Note_on_c, 0, 71, 0
3, 50400, Note_on_c, 0, 67, 0
3, 50400, Note_on_c, 0, 66, 62
3, 50400, Note_on_c, 0, 72, 62
3, 51120, Note_on_c, 0, 72, 0
3, 51120, Note_on_c, 0, 66, 0
3, 51120, Note_on_c, 0, 69, 62
3, 51120, Note_on_c, 0, 72, 62
3, 51840, Note_on_c, 0, 72, 0
3, 51840, Note_on_c, 0, 69, 0
3, 51840, Note_on_c, 0, 71, 62
3, 51840, Note_on_c, 0, 74, 62
3, 53280, Note_on_c, 0, 74, 0
3, 53280, Note_on_c, 0, 71, 0
3, 53280, Note_on_c, 0, 69, 75
3, 53280, Note_on_c, 0, 72, 75
3, 54720, Note_on_c, 0, 72, 0
3, 54720, Note_on_c, 0, 69, 0
3, 54720, Note_on_c, 0, 71, 75
3, 54720, Note_on_c, 0, 74, 75
3, 55440, Note_on_c, 0, 74, 0
3, 55440, Note_on_c, 0, 71, 0
3, 55440, Note_on_c, 0, 79, 75
3, 55440, Note_on_c, 0, 83, 75
3, 55680, Note_on_c, 0, 83, 0
3, 55680, Note_on_c, 0, 79, 0
3, 55680, Note_on_c, 0, 78, 75
3, 55680, Note_on_c, 0, 81, 75
3, 55920, Note_on_c, 0, 81, 0
3, 55920, Note_on_c, 0, 78, 0
3, 55920, Note_on_c, 0, 76, 75
3, 55920, Note_on_c, 0, 79, 75
3, 56160, Note_on_c, 0, 79, 0
3, 56160, Note_on_c, 0, 76, 0
3, 56160, Note_on_c, 0, 78, 75
3, 56160, Note_on_c, 0, 84, 75
3, 56880, Note_on_c, 0, 84, 0
3, 56880, Note_on_c, 0, 78, 0
3, 56880, Note_on_c, 0, 81, 75
3, 56880, Note_on_c, 0, 84, 75
3, 57600, Note_on_c, 0, 84, 0
3, 57600, Note_on_c, 0, 81, 0
3, 57600, Note_on_c, 0, 83, 75
3, 57600, Note_on_c, 0, 86, 75
3, 59040, Note_on_c, 0, 86, 0
3, 59040, Note_on_c, 0, 83, 0
3, 59040, Note_on_c, 0, 81, 75
3, 59040, Note_on_c, 0, 84, 75
3, 60480, Note_on_c, 0, 84, 0
3, 60480, Note_on_c, 0, 81, 0
3, 60480, Note_on_c, 0, 83, 88
3, 60480, Note_on_c, 0, 86, 88
3, 61200, Note_on_c, 0, 86, 0
3, 61200, Note_on_c, 0, 83, 0
3, 61200, Note_on_c, 0, 79, 75
3, 61200, Note_on_c, 0, 83, 75
3, 62640, Note_on_c, 0, 83, 0
3, 62640, Note_on_c, 0, 79, 0
3, 62640, Note_on_c, 0, 74, 62
3, 62640, Note_on_c, 0, 79, 62
3, 64080, Note_on_c, 0, 79, 0
3, 64080, Note_on_c, 0, 74, 0
3, 64080, Note_on_c, 0, 71, 62
3, 64080, Note_on_c, 0, 74, 62
3, 66240, Note_on_c, 0, 74, 0
3, 66240, Note_on_c, 0, 71, 0
3, 66240, End_track
4, 0, Start_track
4, 0, Title_t, "Grand Piano"
4, 0, Program_c, 0, 0
4, 0, Control_c, 0, 7, 115
4, 0, Control_c, 0, 10, 41
4, 0, Note_on_c, 0, 45, 78
4, 0, Note_on_c, 0, 49, 78
4, 0, Note_on_c, 0, 52, 78
4, 0, Note_on_c, 0, 57, 78
4, 240, Note_on_c, 0, 57, 0
4, 240, Note_on_c, 0, 45, 0
4, 240, Note_on_c, 0, 49, 0
4, 240, Note_on_c, 0, 52, 0
4, 240, Control_c, 0, 64, 127
4, 240, Note_on_c, 0, 64, 65
4, 360, Note_on_c, 0, 64, 0
4, 360, Note_on_c, 0, 62, 65
4, 480, Note_on_c, 0, 62, 0
4, 480, Note_on_c, 0, 61, 65
4, 480, Note_on_c, 0, 64, 65
4, 600, Note_on_c, 0, 64, 0
4, 600, Note_on_c, 0, 61, 0
4, 600, Control_c, 0, 64, 0
4, 600, Note_on_c, 0, 59, 65
4, 600, Note_on_c, 0, 62, 65
4, 720, Note_on_c, 0, 62, 0
4, 720, Note_on_c, 0, 59, 0
4, 720, Control_c, 0, 64, 127
4, 720, Note_on_c, 0, 57, 65
4, 720, Note_on_c, 0, 61, 65
4, 840, Note_on_c, 0, 61, 0
4, 840, Note_on_c, 0, 57, 0
4, 840, Note_on_c, 0, 56, 65
4, 840, Note_on_c, 0, 59, 65
4, 960, Note_on_c, 0, 59, 0
4, 960, Note_on_c, 0, 56, 0
4, 960, Note_on_c, 0, 55, 78
4, 960, Note_on_c, 0, 58, 78
4, 1080, Note_on_c, 0, 58, 0
4, 1080, Note_on_c, 0, 55, 0
4, 1080, Note_on_c, 0, 54, 78
4, 1080, Note_on_c, 0, 57, 78
4, 1200, Note_on_c, 0, 57, 0
4, 1200, Note_on_c, 0, 54, 0
4, 1200, Note_on_c, 0, 52, 78
4, 1200, Note_on_c, 0, 55, 78
4, 1320, Note_on_c, 0, 55, 0
4, 1320, Note_on_c, 0, 52, 0
4, 1320, Control_c, 0, 64, 0
4, 1320, Note_on_c, 0, 50, 78
4, 1320, Note_on_c, 0, 54, 78
4, 1440, Note_on_c, 0, 54, 0
4, 1440, Note_on_c, 0, 50, 0
4, 1440, Control_c, 0, 64, 127
4, 1440, Note_on_c, 0, 49, 78
4, 1440, Note_on_c, 0, 52, 78
4, 1560, Note_on_c, 0, 52, 0
4, 1560, Note_on_c, 0, 49, 0
4, 1560, Note_on_c, 0, 50, 78
4, 1560, Note_on_c, 0, 54, 78
4, 1680, Note_on_c, 0, 54, 0
4, 1680, Note_on_c, 0, 50, 0
4, 1680, Note_on_c, 0, 52, 78
4, 1680, Note_on_c, 0, 55, 78
4, 1800, Note_on_c, 0, 55, 0
4, 1800, Note_on_c, 0, 52, 0
4, 1800, Note_on_c, 0, 54, 78
4, 1800, Note_on_c, 0, 57, 78
4, 1920, Note_on_c, 0, 57, 0
4, 1920, Note_on_c, 0, 54, 0
4, 1920, Note_on_c, 0, 55, 65
4, 1920, Note_on_c, 0, 58, 65
4, 2040, Note_on_c, 0, 58, 0
4, 2040, Note_on_c, 0, 55, 0
4, 2040, Note_on_c, 0, 56, 65
4, 2040, Note_on_c, 0, 59, 65
4, 2160, Note_on_c, 0, 59, 0
4, 2160, Note_on_c, 0, 56, 0
4, 2160, Control_c, 0, 64, 0
4, 2160, Note_on_c, 0, 57, 65
4, 2160, Note_on_c, 0, 61, 65
4, 2400, Note_on_c, 0, 61, 0
4, 2400, Note_on_c, 0, 57, 0
4, 2400, Note_on_c, 0, 57, 65
4, 2400, Note_on_c, 0, 61, 65
4, 2400, Note_on_c, 0, 64, 65
4, 2640, Note_on_c, 0, 64, 0
4, 2640, Note_on_c, 0, 61, 0
4, 2640, Note_on_c, 0, 57, 0
4, 2640, Note_on_c, 0, 45, 65
4, 2640, Note_on_c, 0, 57, 65
4, 2880, Note_on_c, 0, 57, 0
4, 2880, Note_on_c, 0, 45, 0
4, 2880, Note_on_c, 0, 50, 78
4, 2880, Note_on_c, 0, 54, 78
4, 2880, Note_on_c, 0, 57, 78
4, 2880, Note_on_c, 0, 62, 78
4, 3120, Note_on_c, 0, 62, 0
4, 3120, Note_on_c, 0, 50, 0
4, 3120, Note_on_c, 0, 54, 0
4, 3120, Note_on_c, 0, 57, 0
4, 3240, Note_on_c, 0, 67, 65
4, 3360, Note_on_c, 0, 67, 0
4, 3360, Note_on_c, 0, 66, 65
4, 3360, Note_on_c, 0, 69, 65
4, 3480, Note_on_c, 0, 69, 0
4, 3480, Note_on_c, 0, 66, 0
4, 3480, Note_on_c, 0, 64, 65
4, 3480, Note_on_c, 0, 67, 65
4, 3600, Note_on_c, 0, 67, 0
4, 3600, Note_on_c, 0, 64, 0
4, 3600, Control_c, 0, 64, 127
4, 3600, Note_on_c, 0, 62, 65
4, 3600, Note_on_c, 0, 66, 65
4, 3720, Note_on_c, 0, 66, 0
4, 3720, Note_on_c, 0, 62, 0
4, 3720, Note_on_c, 0, 61, 65
4, 3720, Note_on_c, 0, 64, 65
4, 3840, Note_on_c, 0, 64, 0
4, 3840, Note_on_c, 0, 61, 0
4, 3840, Note_on_c, 0, 60, 65
4, 3840, Note_on_c, 0, 63, 65
4, 3960, Note_on_c, 0, 63, 0
4, 3960, Note_on_c, 0, 60, 0
4, 3960, Note_on_c, 0, 59, 78
4, 3960, Note_on_c, 0, 62, 78
4, 4080, Note_on_c, 0, 62, 0
4, 4080, Note_on_c, 0, 59, 0
4, 4080, Note_on_c, 0, 57, 78
4, 4080, Note_on_c, 0, 60, 78
4, 4200, Note_on_c, 0, 60, 0
4, 4200, Note_on_c, 0, 57, 0
4, 4200, Control_c, 0, 64, 0
4, 4200, Note_on_c, 0, 55, 78
4, 4200, Note_on_c, 0, 59, 78
4, 4320, Note_on_c, 0, 59, 0
4, 4320, Note_on_c, 0, 55, 0
4, 4320, Control_c, 0, 64, 127
4, 4320, Note_on_c, 0, 54, 78
4, 4320, Note_on_c, 0, 57, 78
4, 4440, Note_on_c, 0, 57, 0
4, 4440, Note_on_c, 0, 54, 0
4, 4440, Note_on_c, 0, 55, 78
4, 4440, Note_on_c, 0, 59, 78
4, 4560, Note_on_c, 0, 59, 0
4, 4560, Note_on_c, 0, 55, 0
4, 4560, Note_on_c, 0, 57, 78
4, 4560, Note_on_c, 0, 60, 78
4, 4680, Note_on_c, 0, 60, 0
4, 4680, Note_on_c, 0, 57, 0
4, 4680, Note_on_c, 0, 59, 78
4, 4680, Note_on_c, 0, 62, 78
4, 4800, Note_on_c, 0, 62, 0
4, 4800, Note_on_c, 0, 59, 0
4, 4800, Note_on_c, 0, 60, 65
4, 4800, Note_on_c, 0, 63, 65
4, 4920, Note_on_c, 0, 63, 0
4, 4920, Note_on_c, 0, 60, 0
4, 4920, Note_on_c, 0, 61, 65
4, 4920, Note_on_c, 0, 64, 65
4, 5040, Note_on_c, 0, 64, 0
4, 5040, Note_on_c, 0, 61, 0
4, 5040, Control_c, 0, 64, 0
4, 5040, Note_on_c, 0, 62, 65
4, 5040, Note_on_c, 0, 66, 65
4, 5280, Note_on_c, 0, 66, 0
4, 5280, Note_on_c, 0, 62, 0
4, 5280, Note_on_c, 0, 50, 65
4, 5280, Note_on_c, 0, 57, 65
4, 5280, Note_on_c, 0, 62, 65
4, 5520, Note_on_c, 0, 62, 0
4, 5520, Note_on_c, 0, 57, 0
4, 5520, Note_on_c, 0, 50, 0
4, 5520, Note_on_c, 0, 38, 65
4, 5520, Note_on_c, 0, 50, 65
4, 5760, Note_on_c, 0, 50, 0
4, 5760, Note_on_c, 0, 38, 0
4, 7320, Control_c, 0, 64, 127
4, 7320, Note_on_c, 0, 50, 52
4, 7440, Note_on_c, 0, 50, 0
4, 7440, Note_on_c, 0, 49, 52
4, 7560, Note_on_c, 0, 49, 0
4, 7560, Note_on_c, 0, 50, 52
4, 7680, Note_on_c, 0, 50, 0
4, 7680, Note_on_c, 0, 52, 52
4, 7800, Note_on_c, 0, 52, 0
4, 7800, Control_c, 0, 64, 0
4, 7800, Note_on_c, 0, 50, 52
4, 7920, Note_on_c, 0, 50, 0
4, 8040, Control_c, 0, 64, 127
4, 8040, Note_on_c, 0, 50, 52
4, 8160, Note_on_c, 0, 50, 0
4, 8160, Note_on_c, 0, 49, 52
4, 8280, Note_on_c, 0, 49, 0
4, 8280, Note_on_c, 0, 50, 52
4, 8400, Note_on_c, 0, 50, 0
4, 8400, Note_on_c, 0, 52, 52
4, 8520, Note_on_c, 0, 52, 0
4, 8520, Control_c, 0, 64, 0
4, 8520, Note_on_c, 0, 50, 52
4, 8640, Note_on_c, 0, 50, 0
4, 8760, Control_c, 0, 64, 127
4, 8760, Note_on_c, 0, 50, 52
4, 8880, Note_on_c, 0, 50, 0
4, 8880, Note_on_c, 0, 49, 52
4, 9000, Note_on_c, 0, 49, 0
4, 9000, Note_on_c, 0, 50, 52
4, 9120, Note_on_c, 0, 50, 0
4, 9120, Note_on_c, 0, 52, 52
4, 9240, Note_on_c, 0, 52, 0
4, 9240, Control_c, 0, 64, 0
4, 9240, Note_on_c, 0, 50, 52
4, 9360, Note_on_c, 0, 50, 0
4, 9480, Control_c, 0, 64, 127
4, 9480, Note_on_c, 0, 50, 52
4, 9600, Note_on_c, 0, 50, 0
4, 9600, Note_on_c, 0, 49, 52
4, 9720, Note_on_c, 0, 49, 0
4, 9720, Note_on_c, 0, 50, 52
4, 9840, Note_on_c, 0, 50, 0
4, 9840, Note_on_c, 0, 52, 52
4, 9960, Note_on_c, 0, 52, 0
4, 9960, Control_c, 0, 64, 0
4, 9960, Note_on_c, 0, 50, 52
4, 10080, Note_on_c, 0, 50, 0
4, 10200, Control_c, 0, 64, 127
4, 10200, Note_on_c, 0, 50, 52
4, 10320, Note_on_c, 0, 50, 0
4, 10320, Note_on_c, 0, 49, 52
4, 10440, Note_on_c, 0, 49, 0
4, 10440, Note_on_c, 0, 50, 52
4, 10560, Note_on_c, 0, 50, 0
4, 10560, Note_on_c, 0, 52, 52
4, 10680, Note_on_c, 0, 52, 0
4, 10680, Control_c, 0, 64, 0
4, 10680, Note_on_c, 0, 50, 52
4, 10800, Note_on_c, 0, 50, 0
4, 10920, Control_c, 0, 64, 127
4, 10920, Note_on_c, 0, 50, 52
4, 11040, Note_on_c, 0, 50, 0
4, 11040, Note_on_c, 0, 49, 52
4, 11160, Note_on_c, 0, 49, 0
4, 11160, Note_on_c, 0, 50, 52
4, 11280, Note_on_c, 0, 50, 0
4, 11280, Note_on_c, 0, 52, 52
4, 11400, Note_on_c, 0, 52, 0
4, 11400, Control_c, 0, 64, 0
4, 11400, Note_on_c, 0, 50, 52
4, 11520, Note_on_c, 0, 50, 0
4, 11640, Control_c, 0, 64, 127
4, 11640, Note_on_c, 0, 50, 52
4, 11760, Note_on_c, 0, 50, 0
4, 11760, Note_on_c, 0, 49, 52
4, 11880, Note_on_c, 0, 49, 0
4, 11880, Note_on_c, 0, 50, 52
4, 12000, Note_on_c, 0, 50, 0
4, 12000, Note_on_c, 0, 52, 52
4, 12120, Note_on_c, 0, 52, 0
4, 12120, Control_c, 0, 64, 0
4, 12120, Note_on_c, 0, 50, 52
4, 12240, Note_on_c, 0, 50, 0
4, 12360, Control_c, 0, 64, 127
4, 12360, Note_on_c, 0, 50, 52
4, 12480, Note_on_c, 0, 50, 0
4, 12480, Note_on_c, 0, 49, 52
4, 12600, Note_on_c, 0, 49, 0
4, 12600, Note_on_c, 0, 50, 52
4, 12720, Note_on_c, 0, 50, 0
4, 12720, Note_on_c, 0, 52, 52
4, 12840, Note_on_c, 0, 52, 0
4, 12840, Control_c, 0, 64, 0
4, 12840, Note_on_c, 0, 50, 52
4, 12960, Note_on_c, 0, 50, 0
4, 13080, Control_c, 0, 64, 127
4, 13080, Note_on_c, 0, 50, 52
4, 13200, Note_on_c, 0, 50, 0
4, 13200, Note_on_c, 0, 49, 52
4, 13320, Note_on_c, 0, 49, 0
4, 13320, Note_on_c, 0, 50, 52
4, 13440, Note_on_c, 0, 50, 0
4, 13440, Note_on_c, 0, 52, 52
4, 13560, Note_on_c, 0, 52, 0
4, 13560, Control_c, 0, 64, 0
4, 13560, Note_on_c, 0, 50, 52
4, 13680, Note_on_c, 0, 50, 0
4, 13800, Control_c, 0, 64, 127
4, 13800, Note_on_c, 0, 50, 52
4, 13920, Note_on_c, 0, 50, 0
4, 13920, Note_on_c, 0, 49, 52
4, 14040, Note_on_c, 0, 49, 0
4, 14040, Note_on_c, 0, 50, 52
4, 14160, Note_on_c, 0, 50, 0
4, 14160, Note_on_c, 0, 52, 52
4, 14280, Note_on_c, 0, 52, 0
4, 14280, Control_c, 0, 64, 0
4, 14280, Note_on_c, 0, 50, 52
4, 14400, Note_on_c, 0, 50, 0
4, 14520, Control_c, 0, 64, 127
4, 14520, Note_on_c, 0, 50, 52
4, 14640, Note_on_c, 0, 50, 0
4, 14640, Note_on_c, 0, 49, 52
4, 14760, Note_on_c, 0, 49, 0
4, 14760, Note_on_c, 0, 50, 52
4, 14880, Note_on_c, 0, 50, 0
4, 14880, Note_on_c, 0, 52, 52
4, 15000, Note_on_c, 0, 52, 0
4, 15000, Control_c, 0, 64, 0
4, 15000, Note_on_c, 0, 50, 52
4, 15120, Note_on_c, 0, 50, 0
4, 15240, Control_c, 0, 64, 127
4, 15240, Note_on_c, 0, 50, 52
4, 15360, Note_on_c, 0, 50, 0
4, 15360, Note_on_c, 0, 49, 52
4, 15480, Note_on_c, 0, 49, 0
4, 15480, Note_on_c, 0, 50, 52
4, 15600, Note_on_c, 0, 50, 0
4, 15600, Note_on_c, 0, 52, 52
4, 15720, Note_on_c, 0, 52, 0
4, 15720, Control_c, 0, 64, 0
4, 15720, Note_on_c, 0, 50, 52
4, 15840, Note_on_c, 0, 50, 0
4, 15960, Control_c, 0, 64, 127
4, 15960, Note_on_c, 0, 50, 52
4, 16080, Note_on_c, 0, 50, 0
4, 16080, Note_on_c, 0, 49, 52
4, 16200, Note_on_c, 0, 49, 0
4, 16200, Note_on_c, 0, 50, 52
4, 16320, Note_on_c, 0, 50, 0
4, 16320, Note_on_c, 0, 52, 52
4, 16440, Note_on_c, 0, 52, 0
4, 16440, Control_c, 0, 64, 0
4, 16440, Note_on_c, 0, 50, 52
4, 16560, Note_on_c, 0, 50, 0
4, 16680, Control_c, 0, 64, 127
4, 16680, Note_on_c, 0, 50, 52
4, 16800, Note_on_c, 0, 50, 0
4, 16800, Note_on_c, 0, 49, 52
4, 16920, Note_on_c, 0, 49, 0
4, 16920, Note_on_c, 0, 50, 52
4, 17040, Note_on_c, 0, 50, 0
4, 17040, Note_on_c, 0, 52, 52
4, 17160, Note_on_c, 0, 52, 0
4, 17160, Control_c, 0, 64, 0
4, 17160, Note_on_c, 0, 50, 52
4, 17280, Note_on_c, 0, 50, 0
4, 17400, Control_c, 0, 64, 127
4, 17400, Note_on_c, 0, 50, 52
4, 17520, Note_on_c, 0, 50, 0
4, 17520, Note_on_c, 0, 49, 52
4, 17640, Note_on_c, 0, 49, 0
4, 17640, Note_on_c, 0, 50, 52
4, 17760, Note_on_c, 0, 50, 0
4, 17760, Note_on_c, 0, 52, 52
4, 17880, Note_on_c, 0, 52, 0
4, 17880, Control_c, 0, 64, 0
4, 17880, Note_on_c, 0, 50, 52
4, 18000, Note_on_c, 0, 50, 0
4, 18120, Control_c, 0, 64, 127
4, 18120, Note_on_c, 0, 50, 52
4, 18240, Note_on_c, 0, 50, 0
4, 18240, Note_on_c, 0, 49, 52
4, 18360, Note_on_c, 0, 49, 0
4, 18360, Note_on_c, 0, 50, 52
4, 18480, Note_on_c, 0, 50, 0
4, 18480, Note_on_c, 0, 52, 52
4, 18600, Note_on_c, 0, 52, 0
4, 18600, Control_c, 0, 64, 0
4, 18600, Note_on_c, 0, 50, 52
4, 18720, Note_on_c, 0, 50, 0
4, 18840, Control_c, 0, 64, 127
4, 18840, Note_on_c, 0, 49, 52
4, 18960, Note_on_c, 0, 49, 0
4, 18960, Note_on_c, 0, 48, 52
4, 19080, Note_on_c, 0, 48, 0
4, 19080, Note_on_c, 0, 49, 52
4, 19200, Note_on_c, 0, 49, 0
4, 19200, Note_on_c, 0, 50, 52
4, 19320, Note_on_c, 0, 50, 0
4, 19320, Control_c, 0, 64, 0
4, 19320, Note_on_c, 0, 49, 52
4, 19440, Note_on_c, 0, 49, 0
4, 19560, Control_c, 0, 64, 127
4, 19560, Note_on_c, 0, 49, 52
4, 19680, Note_on_c, 0, 49, 0
4, 19680, Note_on_c, 0, 48, 52
4, 19800, Note_on_c, 0, 48, 0
4, 19800, Note_on_c, 0, 49, 52
4, 19920, Note_on_c, 0, 49, 0
4, 19920, Note_on_c, 0, 50, 52
4, 20040, Note_on_c, 0, 50, 0
4, 20040, Control_c, 0, 64, 0
4, 20040, Note_on_c, 0, 49, 52
4, 20160, Note_on_c, 0, 49, 0
4, 20280, Control_c, 0, 64, 127
4, 20280, Note_on_c, 0, 50, 52
4, 20400, Note_on_c, 0, 50, 0
4, 20400, Note_on_c, 0, 49, 52
4, 20520, Note_on_c, 0, 49, 0
4, 20520, Note_on_c, 0, 50, 52
4, 20640, Note_on_c, 0, 50, 0
4, 20640, Note_on_c, 0, 52, 52
4, 20760, Note_on_c, 0, 52, 0
4, 20760, Control_c, 0, 64, 0
4, 20760, Note_on_c, 0, 50, 52
4, 20880, Note_on_c, 0, 50, 0
4, 21000, Control_c, 0, 64, 127
4, 21000, Note_on_c, 0, 62, 65
4, 21120, Note_on_c, 0, 62, 0
4, 21120, Note_on_c, 0, 61, 65
4, 21240, Note_on_c, 0, 61, 0
4, 21240, Note_on_c, 0, 62, 65
4, 21360, Note_on_c, 0, 62, 0
4, 21360, Note_on_c, 0, 64, 65
4, 21480, Note_on_c, 0, 64, 0
4, 21480, Control_c, 0, 64, 0
4, 21480, Note_on_c, 0, 62, 65
4, 21600, Note_on_c, 0, 62, 0
4, 21720, Control_c, 0, 64, 127
4, 21720, Note_on_c, 0, 62, 65
4, 21840, Note_on_c, 0, 62, 0
4, 21840, Note_on_c, 0, 61, 65
4, 21960, Note_on_c, 0, 61, 0
4, 21960, Note_on_c, 0, 62, 65
4, 22080, Note_on_c, 0, 62, 0
4, 22080, Note_on_c, 0, 64, 65
4, 22200, Note_on_c, 0, 64, 0
4, 22200, Control_c, 0, 64, 0
4, 22200, Note_on_c, 0, 62, 65
4, 22320, Note_on_c, 0, 62, 0
4, 22440, Control_c, 0, 64, 127
4, 22440, Note_on_c, 0, 62, 65
4, 22560, Note_on_c, 0, 62, 0
4, 22560, Note_on_c, 0, 61, 65
4, 22680, Note_on_c, 0, 61, 0
4, 22680, Note_on_c, 0, 62, 65
4, 22800, Note_on_c, 0, 62, 0
4, 22800, Note_on_c, 0, 64, 65
4, 22920, Note_on_c, 0, 64, 0
4, 22920, Control_c, 0, 64, 0
4, 22920, Note_on_c, 0, 62, 65
4, 23040, Note_on_c, 0, 62, 0
4, 23160, Control_c, 0, 64, 127
4, 23160, Note_on_c, 0, 62, 65
4, 23280, Note_on_c, 0, 62, 0
4, 23280, Note_on_c, 0, 61, 65
4, 23400, Note_on_c, 0, 61, 0
4, 23400, Note_on_c, 0, 62, 65
4, 23520, Note_on_c, 0, 62, 0
4, 23520, Note_on_c, 0, 64, 65
4, 23640, Note_on_c, 0, 64, 0
4, 23640, Control_c, 0, 64, 0
4, 23640, Note_on_c, 0, 62, 65
4, 23760, Note_on_c, 0, 62, 0
4, 23880, Control_c, 0, 64, 127
4, 23880, Note_on_c, 0, 62, 65
4, 24000, Note_on_c, 0, 62, 0
4, 24000, Note_on_c, 0, 61, 65
4, 24120, Note_on_c, 0, 61, 0
4, 24120, Note_on_c, 0, 62, 65
4, 24240, Note_on_c, 0, 62, 0
4, 24240, Note_on_c, 0, 64, 65
4, 24360, Note_on_c, 0, 64, 0
4, 24360, Control_c, 0, 64, 0
4, 24360, Note_on_c, 0, 62, 65
4, 24480, Note_on_c, 0, 62, 0
4, 24600, Control_c, 0, 64, 127
4, 24600, Note_on_c, 0, 62, 65
4, 24720, Note_on_c, 0, 62, 0
4, 24720, Note_on_c, 0, 61, 65
4, 24840, Note_on_c, 0, 61, 0
4, 24840, Note_on_c, 0, 62, 65
4, 24960, Note_on_c, 0, 62, 0
4, 24960, Note_on_c, 0, 64, 65
4, 25080, Note_on_c, 0, 64, 0
4, 25080, Control_c, 0, 64, 0
4, 25080, Note_on_c, 0, 62, 65
4, 25200, Note_on_c, 0, 62, 0
4, 25320, Control_c, 0, 64, 127
4, 25320, Note_on_c, 0, 62, 65
4, 25440, Note_on_c, 0, 62, 0
4, 25440, Note_on_c, 0, 61, 65
4, 25560, Note_on_c, 0, 61, 0
4, 25560, Note_on_c, 0, 62, 65
4, 25680, Note_on_c, 0, 62, 0
4, 25680, Note_on_c, 0, 64, 65
4, 25800, Note_on_c, 0, 64, 0
4, 25800, Control_c, 0, 64, 0
4, 25800, Note_on_c, 0, 62, 65
4, 25920, Note_on_c, 0, 62, 0
4, 26040, Control_c, 0, 64, 127
4, 26040, Note_on_c, 0, 62, 65
4, 26160, Note_on_c, 0, 62, 0
4, 26160, Note_on_c, 0, 61, 65
4, 26280, Note_on_c, 0, 61, 0
4, 26280, Note_on_c, 0, 62, 65
4, 26400, Note_on_c, 0, 62, 0
4, 26400, Note_on_c, 0, 64, 65
4, 26520, Note_on_c, 0, 64, 0
4, 26520, Control_c, 0, 64, 0
4, 26520, Note_on_c, 0, 62, 65
4, 26640, Note_on_c, 0, 62, 0
4, 26760, Control_c, 0, 64, 127
4, 26760, Note_on_c, 0, 62, 65
4, 26880, Note_on_c, 0, 62, 0
4, 26880, Note_on_c, 0, 61, 65
4, 27000, Note_on_c, 0, 61, 0
4, 27000, Note_on_c, 0, 62, 65
4, 27120, Note_on_c, 0, 62, 0
4, 27120, Note_on_c, 0, 64, 65
4, 27240, Note_on_c, 0, 64, 0
4, 27240, Control_c, 0, 64, 0
4, 27240, Note_on_c, 0, 62, 65
4, 27360, Note_on_c, 0, 62, 0
4, 27480, Control_c, 0, 64, 127
4, 27480, Note_on_c, 0, 62, 65
4, 27600, Note_on_c, 0, 62, 0
4, 27600, Note_on_c, 0, 61, 65
4, 27720, Note_on_c, 0, 61, 0
4, 27720, Note_on_c, 0, 62, 65
4, 27840, Note_on_c, 0, 62, 0
4, 27840, Note_on_c, 0, 64, 65
4, 27960, Note_on_c, 0, 64, 0
4, 27960, Control_c, 0, 64, 0
4, 27960, Note_on_c, 0, 62, 65
4, 28080, Note_on_c, 0, 62, 0
4, 28200, Control_c, 0, 64, 127
4, 28200, Note_on_c, 0, 62, 65
4, 28320, Note_on_c, 0, 62, 0
4, 28320, Note_on_c, 0, 61, 65
4, 28440, Note_on_c, 0, 61, 0
4, 28440, Note_on_c, 0, 62, 65
4, 28560, Note_on_c, 0, 62, 0
4, 28560, Note_on_c, 0, 64, 65
4, 28680, Note_on_c, 0, 64, 0
4, 28680, Control_c, 0, 64, 0
4, 28680, Note_on_c, 0, 62, 65
4, 28800, Note_on_c, 0, 62, 0
4, 28920, Control_c, 0, 64, 127
4, 28920, Note_on_c, 0, 62, 65
4, 29040, Note_on_c, 0, 62, 0
4, 29040, Note_on_c, 0, 61, 65
4, 29160, Note_on_c, 0, 61, 0
4, 29160, Note_on_c, 0, 62, 65
4, 29280, Note_on_c, 0, 62, 0
4, 29280, Note_on_c, 0, 64, 65
4, 29400, Note_on_c, 0, 64, 0
4, 29400, Control_c, 0, 64, 0
4, 29400, Note_on_c, 0, 62, 65
4, 29520, Note_on_c, 0, 62, 0
4, 29640, Control_c, 0, 64, 127
4, 29640, Note_on_c, 0, 62, 65
4, 29760, Note_on_c, 0, 62, 0
4, 29760, Note_on_c, 0, 61, 65
4, 29880, Note_on_c, 0, 61, 0
4, 29880, Note_on_c, 0, 62, 65
4, 30000, Note_on_c, 0, 62, 0
4, 30000, Note_on_c, 0, 64, 65
4, 30120, Note_on_c, 0, 64, 0
4, 30120, Control_c, 0, 64, 0
4, 30120, Note_on_c, 0, 62, 65
4, 30240, Note_on_c, 0, 62, 0
4, 30360, Control_c, 0, 64, 127
4, 30360, Note_on_c, 0, 61, 65
4, 30480, Note_on_c, 0, 61, 0
4, 30480, Note_on_c, 0, 60, 65
4, 30600, Note_on_c, 0, 60, 0
4, 30600, Note_on_c, 0, 61, 65
4, 30720, Note_on_c, 0, 61, 0
4, 30720, Note_on_c, 0, 62, 65
4, 30840, Note_on_c, 0, 62, 0
4, 30840, Control_c, 0, 64, 0
4, 30840, Note_on_c, 0, 61, 65
4, 30960, Note_on_c, 0, 61, 0
4, 31080, Control_c, 0, 64, 127
4, 31080, Note_on_c, 0, 61, 65
4, 31200, Note_on_c, 0, 61, 0
4, 31200, Note_on_c, 0, 60, 65
4, 31320, Note_on_c, 0, 60, 0
4, 31320, Note_on_c, 0, 61, 65
4, 31440, Note_on_c, 0, 61, 0
4, 31440, Note_on_c, 0, 62, 65
4, 31560, Note_on_c, 0, 62, 0
4, 31560, Control_c, 0, 64, 0
4, 31560, Note_on_c, 0, 61, 65
4, 31680, Note_on_c, 0, 61, 0
4, 31800, Control_c, 0, 64, 127
4, 31800, Note_on_c, 0, 50, 65
4, 31920, Note_on_c, 0, 50, 0
4, 31920, Note_on_c, 0, 49, 65
4, 32040, Note_on_c, 0, 49, 0
4, 32040, Note_on_c, 0, 50, 65
4, 32160, Note_on_c, 0, 50, 0
4, 32160, Note_on_c, 0, 54, 65
4, 32280, Note_on_c, 0, 54, 0
4, 32280, Control_c, 0, 64, 0
4, 32280, Note_on_c, 0, 57, 65
4, 32400, Note_on_c, 0, 57, 0
4, 32400, Note_on_c, 0, 62, 65
4, 32640, Note_on_c, 0, 62, 0
4, 32640, Note_on_c, 0, 53, 65
4, 32640, Note_on_c, 0, 56, 65
4, 32880, Note_on_c, 0, 56, 0
4, 32880, Note_on_c, 0, 53, 0
4, 32880, Note_on_c, 0, 54, 65
4, 32880, Note_on_c, 0, 57, 65
4, 33120, Note_on_c, 0, 57, 0
4, 33120, Note_on_c, 0, 54, 0
4, 33120, Control_c, 0, 64, 127
4, 33120, Note_on_c, 0, 55, 65
4, 33120, Note_on_c, 0, 59, 65
4, 33360, Note_on_c, 0, 59, 0
4, 33360, Note_on_c, 0, 55, 0
4, 33360, Note_on_c, 0, 57, 65
4, 33360, Note_on_c, 0, 60, 65
4, 33600, Note_on_c, 0, 60, 0
4, 33600, Note_on_c, 0, 57, 0
4, 33600, Note_on_c, 0, 59, 65
4, 33600, Note_on_c, 0, 62, 65
4, 33840, Note_on_c, 0, 62, 0
4, 33840, Note_on_c, 0, 59, 0
4, 33840, Control_c, 0, 64, 0
4, 33840, Note_on_c, 0, 57, 65
4, 33840, Note_on_c, 0, 60, 65
4, 34080, Note_on_c, 0, 60, 0
4, 34080, Note_on_c, 0, 57, 0
4, 34080, Note_on_c, 0, 55, 91
4, 34080, Note_on_c, 0, 59, 91
4, 34320, Note_on_c, 0, 59, 0
4, 34320, Note_on_c, 0, 55, 0
4, 34320, Note_on_c, 0, 54, 91
4, 34320, Note_on_c, 0, 57, 91
4, 34560, Note_on_c, 0, 57, 0
4, 34560, Note_on_c, 0, 54, 0
4, 34560, Note_on_c, 0, 59, 65
4, 34560, Note_on_c, 0, 62, 65
4, 34800, Note_on_c, 0, 62, 0
4, 34800, Note_on_c, 0, 59, 0
4, 34800, Note_on_c, 0, 58, 65
4, 34800, Note_on_c, 0, 61, 65
4, 35040, Note_on_c, 0, 61, 0
4, 35040, Note_on_c, 0, 58, 0
4, 35040, Note_on_c, 0, 57, 91
4, 35040, Note_on_c, 0, 60, 91
4, 35280, Note_on_c, 0, 60, 0
4, 35280, Note_on_c, 0, 57, 0
4, 35280, Note_on_c, 0, 55, 91
4, 35280, Note_on_c, 0, 59, 91
4, 35520, Note_on_c, 0, 59, 0
4, 35520, Note_on_c, 0, 55, 0
4, 35520, Note_on_c, 0, 53, 65
4, 35520, Note_on_c, 0, 56, 65
4, 35760, Note_on_c, 0, 56, 0
4, 35760, Note_on_c, 0, 53, 0
4, 35760, Note_on_c, 0, 54, 65
4, 35760, Note_on_c, 0, 57, 65
4, 36000, Note_on_c, 0, 57, 0
4, 36000, Note_on_c, 0, 54, 0
4, 36000, Control_c, 0, 64, 127
4, 36000, Note_on_c, 0, 55, 65
4, 36000, Note_on_c, 0, 59, 65
4, 36240, Note_on_c, 0, 59, 0
4, 36240, Note_on_c, 0, 55, 0
4, 36240, Note_on_c, 0, 57, 65
4, 36240, Note_on_c, 0, 60, 65
4, 36480, Note_on_c, 0, 60, 0
4, 36480, Note_on_c, 0, 57, 0
4, 36480, Note_on_c, 0, 59, 65
4, 36480, Note_on_c, 0, 62, 65
4, 36720, Note_on_c, 0, 62, 0
4, 36720, Note_on_c, 0, 59, 0
4, 36720, Control_c, 0, 64, 0
4, 36720, Note_on_c, 0, 57, 65
4, 36720, Note_on_c, 0, 60, 65
4, 36960, Note_on_c, 0, 60, 0
4, 36960, Note_on_c, 0, 57, 0
4, 36960, Note_on_c, 0, 55, 91
4, 36960, Note_on_c, 0, 59, 91
4, 37200, Note_on_c, 0, 59, 0
4, 37200, Note_on_c, 0, 55, 0
4, 37200, Note_on_c, 0, 54, 91
4, 37200, Note_on_c, 0, 57, 91
4, 37440, Note_on_c, 0, 57, 0
4, 37440, Note_on_c, 0, 54, 0
4, 37440, Note_on_c, 0, 59, 65
4, 37440, Note_on_c, 0, 62, 65
4, 37680, Note_on_c, 0, 62, 0
4, 37680, Note_on_c, 0, 59, 0
4, 37680, Note_on_c, 0, 58, 65
4, 37680, Note_on_c, 0, 61, 65
4, 37920, Note_on_c, 0, 61, 0
4, 37920, Note_on_c, 0, 58, 0
4, 37920, Note_on_c, 0, 57, 91
4, 37920, Note_on_c, 0, 60, 91
4, 38160, Note_on_c, 0, 60, 0
4, 38160, Note_on_c, 0, 57, 0
4, 38160, Note_on_c, 0, 55, 91
4, 38400, Note_on_c, 0, 55, 0
4, 38400, Note_on_c, 0, 59, 117
4, 39000, Note_on_c, 0, 59, 0
4, 39000, Note_on_c, 0, 59, 91
4, 39120, Note_on_c, 0, 59, 0
4, 39120, Note_on_c, 0, 60, 91
4, 39240, Note_on_c, 0, 60, 0
4, 39240, Note_on_c, 0, 59, 91
4, 39360, Note_on_c, 0, 59, 0
4, 39360, Note_on_c, 0, 58, 91
4, 39480, Note_on_c, 0, 58, 0
4, 39480, Note_on_c, 0, 60, 91
4, 39600, Note_on_c, 0, 60, 0
4, 39600, Note_on_c, 0, 59, 91
4, 39840, Note_on_c, 0, 59, 0
4, 39840, Note_on_c, 0, 55, 104
4, 40440, Note_on_c, 0, 55, 0
4, 40440, Note_on_c, 0, 55, 78
4, 40560, Note_on_c, 0, 55, 0
4, 40560, Note_on_c, 0, 57, 78
4, 40680, Note_on_c, 0, 57, 0
4, 40680, Note_on_c, 0, 55, 78
4, 40800, Note_on_c, 0, 55, 0
4, 40800, Note_on_c, 0, 54, 78
4, 40920, Note_on_c, 0, 54, 0
4, 40920, Note_on_c, 0, 57, 78
4, 41040, Note_on_c, 0, 57, 0
4, 41040, Note_on_c, 0, 55, 78
4, 41280, Note_on_c, 0, 55, 0
4, 41280, Note_on_c, 0, 52, 65
4, 41880, Note_on_c, 0, 52, 0
4, 41880, Control_c, 0, 64, 127
4, 41880, Note_on_c, 0, 52, 65
4, 42000, Note_on_c, 0, 52, 0
4, 42000, Note_on_c, 0, 51, 65
4, 42120, Note_on_c, 0, 51, 0
4, 42120, Note_on_c, 0, 52, 65
4, 42240, Note_on_c, 0, 52, 0
4, 42240, Note_on_c, 0, 51, 65
4, 42360, Note_on_c, 0, 51, 0
4, 42360, Control_c, 0, 64, 0
4, 42360, Note_on_c, 0, 52, 65
4, 42480, Note_on_c, 0, 52, 0
4, 42480, Control_c, 0, 64, 127
4, 42480, Note_on_c, 0, 51, 65
4, 42600, Note_on_c, 0, 51, 0
4, 42600, Note_on_c, 0, 52, 65
4, 42720, Note_on_c, 0, 52, 0
4, 42720, Note_on_c, 0, 51, 65
4, 42840, Note_on_c, 0, 51, 0
4, 42840, Note_on_c, 0, 52, 65
4, 42960, Note_on_c, 0, 52, 0
4, 42960, Note_on_c, 0, 51, 65
4, 43080, Note_on_c, 0, 51, 0
4, 43080, Control_c, 0, 64, 0
4, 43080, Note_on_c, 0, 52, 65
4, 43200, Note_on_c, 0, 52, 0
4, 43200, Control_c, 0, 64, 127
4, 43200, Note_on_c, 0, 54, 39
4, 43320, Note_on_c, 0, 54, 0
4, 43320, Note_on_c, 0, 55, 39
4, 43440, Note_on_c, 0, 55, 0
4, 43440, Note_on_c, 0, 54, 39
4, 43440, Note_on_c, 0, 60, 39
4, 43680, Note_on_c, 0, 60, 0
4, 43680, Note_on_c, 0, 54, 0
4, 43680, Note_on_c, 0, 55, 39
4, 43680, Note_on_c, 0, 60, 39
4, 43800, Note_on_c, 0, 60, 0
4, 43800, Note_on_c, 0, 55, 0
4, 43800, Control_c, 0, 64, 0
4, 43800, Note_on_c, 0, 57, 39
4, 43920, Note_on_c, 0, 57, 0
4, 43920, Note_on_c, 0, 59, 39
4, 44160, Note_on_c, 0, 59, 0
4, 44160, Note_on_c, 0, 59, 117
4, 44760, Note_on_c, 0, 59, 0
4, 44760, Control_c, 0, 64, 127
4, 44760, Note_on_c, 0, 59, 91
4, 44880, Note_on_c, 0, 59, 0
4, 44880, Note_on_c, 0, 60, 91
4, 45000, Note_on_c, 0, 60, 0
4, 45000, Note_on_c, 0, 59, 91
4, 45120, Note_on_c, 0, 59, 0
4, 45120, Note_on_c, 0, 58, 91
4, 45240, Note_on_c, 0, 58, 0
4, 45240, Note_on_c, 0, 60, 91
4, 45360, Note_on_c, 0, 60, 0
4, 45360, Control_c, 0, 64, 0
4, 45360, Note_on_c, 0, 59, 91
4, 45600, Note_on_c, 0, 59, 0
4, 45600, Note_on_c, 0, 55, 104
4, 46200, Note_on_c, 0, 55, 0
4, 46200, Note_on_c, 0, 55, 78
4, 46320, Note_on_c, 0, 55, 0
4, 46320, Note_on_c, 0, 57, 78
4, 46440, Note_on_c, 0, 57, 0
4, 46440, Note_on_c, 0, 55, 78
4, 46560, Note_on_c, 0, 55, 0
4, 46560, Note_on_c, 0, 54, 78
4, 46680, Note_on_c, 0, 54, 0
4, 46680, Note_on_c, 0, 57, 78
4, 46800, Note_on_c, 0, 57, 0
4, 46800, Note_on_c, 0, 55, 78
4, 47040, Note_on_c, 0, 55, 0
4, 47040, Note_on_c, 0, 52, 65
4, 47640, Note_on_c, 0, 52, 0
4, 47640, Control_c, 0, 64, 127
4, 47640, Note_on_c, 0, 52, 65
4, 47760, Note_on_c, 0, 52, 0
4, 47760, Note_on_c, 0, 51, 65
4, 47880, Note_on_c, 0, 51, 0
4, 47880, Note_on_c, 0, 52, 65
4, 48000, Note_on_c, 0, 52, 0
4, 48000, Note_on_c, 0, 51, 65
4, 48120, Note_on_c, 0, 51, 0
4, 48120, Control_c, 0, 64, 0
4, 48120, Note_on_c, 0, 52, 65
4, 48240, Note_on_c, 0, 52, 0
4, 48240, Control_c, 0, 64, 127
4, 48240, Note_on_c, 0, 51, 65
4, 48360, Note_on_c, 0, 51, 0
4, 48360, Note_on_c, 0, 52, 65
4, 48480, Note_on_c, 0, 52, 0
4, 48480, Note_on_c, 0, 51, 65
4, 48600, Note_on_c, 0, 51, 0
4, 48600, Note_on_c, 0, 52, 65
4, 48720, Note_on_c, 0, 52, 0
4, 48720, Note_on_c, 0, 51, 65
4, 48840, Note_on_c, 0, 51, 0
4, 48840, Control_c, 0, 64, 0
4, 48840, Note_on_c, 0, 52, 65
4, 48960, Note_on_c, 0, 52, 0
4, 48960, Control_c, 0, 64, 127
4, 48960, Note_on_c, 0, 54, 39
4, 49080, Note_on_c, 0, 54, 0
4, 49080, Note_on_c, 0, 55, 39
4, 49200, Note_on_c, 0, 55, 0
4, 49200, Note_on_c, 0, 54, 39
4, 49200, Note_on_c, 0, 60, 39
4, 49440, Note_on_c, 0, 60, 0
4, 49440, Note_on_c, 0, 54, 0
4, 49440, Note_on_c, 0, 55, 39
4, 49440, Note_on_c, 0, 60, 39
4, 49560, Note_on_c, 0, 60, 0
4, 49560, Note_on_c, 0, 55, 0
4, 49560, Control_c, 0, 64, 0
4, 49560, Note_on_c, 0, 57, 39
4, 49680, Note_on_c, 0, 57, 0
4, 49680, Note_on_c, 0, 55, 39
4, 49680, Note_on_c, 0, 59, 39
4, 49800, Note_on_c, 0, 59, 0
4, 49800, Note_on_c, 0, 55, 0
4, 49800, Control_c, 0, 64, 127
4, 49800, Note_on_c, 0, 50, 52
4, 49920, Note_on_c, 0, 50, 0
4, 49920, Note_on_c, 0, 55, 52
4, 50040, Note_on_c, 0, 55, 0
4, 50040, Note_on_c, 0, 62, 52
4, 50160, Note_on_c, 0, 62, 0
4, 50160, Note_on_c, 0, 55, 52
4, 50280, Note_on_c, 0, 55, 0
4, 50280, Control_c, 0, 64, 0
4, 50280, Note_on_c, 0, 50, 52
4, 50400, Note_on_c, 0, 50, 0
4, 50400, Control_c, 0, 64, 127
4, 50400, Note_on_c, 0, 43, 52
4, 50520, Note_on_c, 0, 43, 0
4, 50520, Note_on_c, 0, 50, 52
4, 50640, Note_on_c, 0, 50, 0
4, 50640, Note_on_c, 0, 57, 52
4, 50760, Note_on_c, 0, 57, 0
4, 50760, Note_on_c, 0, 62, 52
4, 50880, Note_on_c, 0, 62, 0
4, 50880, Note_on_c, 0, 57, 52
4, 51000, Note_on_c, 0, 57, 0
4, 51000, Control_c, 0, 64, 0
4, 51000, Note_on_c, 0, 50, 52
4, 51120, Note_on_c, 0, 50, 0
4, 51120, Control_c, 0, 64, 127
4, 51120, Note_on_c, 0, 43, 52
4, 51240, Note_on_c, 0, 43, 0
4, 51240, Note_on_c, 0, 50, 52
4, 51360, Note_on_c, 0, 50, 0
4, 51360, Note_on_c, 0, 57, 52
4, 51480, Note_on_c, 0, 57, 0
4, 51480, Note_on_c, 0, 62, 52
4, 51600, Note_on_c, 0, 62, 0
4, 51600, Note_on_c, 0, 57, 52
4, 51720, Note_on_c, 0, 57, 0
4, 51720, Control_c, 0, 64, 0
4, 51720, Note_on_c, 0, 50, 52
4, 51840, Note_on_c, 0, 50, 0
4, 51840, Control_c, 0, 64, 127
4, 51840, Note_on_c, 0, 43, 52
4, 51960, Note_on_c, 0, 43, 0
4, 51960, Note_on_c, 0, 50, 52
4, 52080, Note_on_c, 0, 50, 0
4, 52080, Note_on_c, 0, 55, 52
4, 52200, Note_on_c, 0, 55, 0
4, 52200, Note_on_c, 0, 62, 52
4, 52320, Note_on_c, 0, 62, 0
4, 52320, Note_on_c, 0, 55, 52
4, 52440, Note_on_c, 0, 55, 0
4, 52440, Control_c, 0, 64, 0
4, 52440, Note_on_c, 0, 50, 52
4, 52560, Note_on_c, 0, 50, 0
4, 52560, Control_c, 0, 64, 127
4, 52560, Note_on_c, 0, 43, 52
4, 52680, Note_on_c, 0, 43, 0
4, 52680, Note_on_c, 0, 50, 52
4, 52800, Note_on_c, 0, 50, 0
4, 52800, Note_on_c, 0, 55, 52
4, 52920, Note_on_c, 0, 55, 0
4, 52920, Note_on_c, 0, 62, 52
4, 53040, Note_on_c, 0, 62, 0
4, 53040, Note_on_c, 0, 55, 52
4, 53160, Note_on_c, 0, 55, 0
4, 53160, Control_c, 0, 64, 0
4, 53160, Note_on_c, 0, 50, 52
4, 53280, Note_on_c, 0, 50, 0
4, 53280, Control_c, 0, 64, 127
4, 53280, Note_on_c, 0, 43, 65
4, 53400, Note_on_c, 0, 43, 0
4, 53400, Note_on_c, 0, 50, 65
4, 53520, Note_on_c, 0, 50, 0
4, 53520, Note_on_c, 0, 57, 65
4, 53640, Note_on_c, 0, 57, 0
4, 53640, Note_on_c, 0, 62, 65
4, 53760, Note_on_c, 0, 62, 0
4, 53760, Note_on_c, 0, 57, 65
4, 53880, Note_on_c, 0, 57, 0
4, 53880, Control_c, 0, 64, 0
4, 53880, Note_on_c, 0, 50, 65
4, 54000, Note_on_c, 0, 50, 0
4, 54000, Control_c, 0, 64, 127
4, 54000, Note_on_c, 0, 43, 65
4, 54120, Note_on_c, 0, 43, 0
4, 54120, Note_on_c, 0, 50, 65
4, 54240, Note_on_c, 0, 50, 0
4, 54240, Note_on_c, 0, 57, 65
4, 54360, Note_on_c, 0, 57, 0
4, 54360, Note_on_c, 0, 62, 65
4, 54480, Note_on_c, 0, 62, 0
4, 54480, Note_on_c, 0, 57, 65
4, 54600, Note_on_c, 0, 57, 0
4, 54600, Control_c, 0, 64, 0
4, 54600, Note_on_c, 0, 50, 65
4, 54720, Note_on_c, 0, 50, 0
4, 54720, Control_c, 0, 64, 127
4, 54720, Note_on_c, 0, 43, 65
4, 54840, Note_on_c, 0, 43, 0
4, 54840, Note_on_c, 0, 50, 65
4, 54960, Note_on_c, 0, 50, 0
4, 54960, Note_on_c, 0, 55, 65
4, 55080, Note_on_c, 0, 55, 0
4, 55080, Note_on_c, 0, 62, 65
4, 55200, Note_on_c, 0, 62, 0
4, 55200, Note_on_c, 0, 55, 65
4, 55320, Note_on_c, 0, 55, 0
4, 55320, Control_c, 0, 64, 0
4, 55320, Note_on_c, 0, 50, 65
4, 55440, Note_on_c, 0, 50, 0
4, 55440, Control_c, 0, 64, 127
4, 55440, Note_on_c, 0, 43, 65
4, 55560, Note_on_c, 0, 43, 0
4, 55560, Note_on_c, 0, 50, 65
4, 55680, Note_on_c, 0, 50, 0
4, 55680, Note_on_c, 0, 55, 65
4, 55800, Note_on_c, 0, 55, 0
4, 55800, Note_on_c, 0, 62, 65
4, 55920, Note_on_c, 0, 62, 0
4, 55920, Note_on_c, 0, 55, 65
4, 56040, Note_on_c, 0, 55, 0
4, 56040, Control_c, 0, 64, 0
4, 56040, Note_on_c, 0, 50, 65
4, 56160, Note_on_c, 0, 50, 0
4, 56160, Control_c, 0, 64, 127
4, 56160, Note_on_c, 0, 43, 65
4, 56280, Note_on_c, 0, 43, 0
4, 56280, Note_on_c, 0, 50, 65
4, 56400, Note_on_c, 0, 50, 0
4, 56400, Note_on_c, 0, 57, 65
4, 56520, Note_on_c, 0, 57, 0
4, 56520, Note_on_c, 0, 62, 65
4, 56640, Note_on_c, 0, 62, 0
4, 56640, Note_on_c, 0, 57, 65
4, 56760, Note_on_c, 0, 57, 0
4, 56760, Control_c, 0, 64, 0
4, 56760, Note_on_c, 0, 50, 65
4, 56880, Note_on_c, 0, 50, 0
4, 56880, Control_c, 0, 64, 127
4, 56880, Note_on_c, 0, 43, 65
4, 57000, Note_on_c, 0, 43, 0
4, 57000, Note_on_c, 0, 50, 65
4, 57120, Note_on_c, 0, 50, 0
4, 57120, Note_on_c, 0, 57, 65
4, 57240, Note_on_c, 0, 57, 0
4, 57240, Note_on_c, 0, 62, 65
4, 57360, Note_on_c, 0, 62, 0
4, 57360, Note_on_c, 0, 57, 65
4, 57480, Note_on_c, 0, 57, 0
4, 57480, Control_c, 0, 64, 0
4, 57480, Note_on_c, 0, 50, 65
4, 57600, Note_on_c, 0, 50, 0
4, 57600, Control_c, 0, 64, 127
4, 57600, Note_on_c, 0, 43, 65
4, 57720, Note_on_c, 0, 43, 0
4, 57720, Note_on_c, 0, 50, 65
4, 57840, Note_on_c, 0, 50, 0
4, 57840, Note_on_c, 0, 55, 65
4, 57960, Note_on_c, 0, 55, 0
4, 57960, Note_on_c, 0, 62, 65
4, 58080, Note_on_c, 0, 62, 0
4, 58080, Note_on_c, 0, 55, 65
4, 58200, Note_on_c, 0, 55, 0
4, 58200, Control_c, 0, 64, 0
4, 58200, Note_on_c, 0, 50, 65
4, 58320, Note_on_c, 0, 50, 0
4, 58320, Control_c, 0, 64, 127
4, 58320, Note_on_c, 0, 43, 65
4, 58440, Note_on_c, 0, 43, 0
4, 58440, Note_on_c, 0, 50, 65
4, 58560, Note_on_c, 0, 50, 0
4, 58560, Note_on_c, 0, 55, 65
4, 58680, Note_on_c, 0, 55, 0
4, 58680, Note_on_c, 0, 62, 65
4, 58800, Note_on_c, 0, 62, 0
4, 58800, Note_on_c, 0, 55, 65
4, 58920, Note_on_c, 0, 55, 0
4, 58920, Control_c, 0, 64, 0
4, 58920, Note_on_c, 0, 50, 65
4, 59040, Note_on_c, 0, 50, 0
4, 59040, Control_c, 0, 64, 127
4, 59040, Note_on_c, 0, 43, 65
4, 59160, Note_on_c, 0, 43, 0
4, 59160, Note_on_c, 0, 50, 65
4, 59280, Note_on_c, 0, 50, 0
4, 59280, Note_on_c, 0, 57, 65
4, 59400, Note_on_c, 0, 57, 0
4, 59400, Note_on_c, 0, 62, 65
4, 59520, Note_on_c, 0, 62, 0
4, 59520, Note_on_c, 0, 57, 65
4, 59640, Note_on_c, 0, 57, 0
4, 59640, Control_c, 0, 64, 0
4, 59640, Note_on_c, 0, 50, 65
4, 59760, Note_on_c, 0, 50, 0
4, 59760, Control_c, 0, 64, 127
4, 59760, Note_on_c, 0, 43, 65
4, 59880, Note_on_c, 0, 43, 0
4, 59880, Note_on_c, 0, 50, 65
4, 60000, Note_on_c, 0, 50, 0
4, 60000, Note_on_c, 0, 57, 65
4, 60120, Note_on_c, 0, 57, 0
4, 60120, Note_on_c, 0, 62, 65
4, 60240, Note_on_c, 0, 62, 0
4, 60240, Note_on_c, 0, 57, 65
4, 60360, Note_on_c, 0, 57, 0
4, 60360, Control_c, 0, 64, 0
4, 60360, Note_on_c, 0, 50, 65
4, 60480, Note_on_c, 0, 50, 0
4, 60480, Control_c, 0, 64, 127
4, 60480, Note_on_c, 0, 43, 78
4, 60600, Note_on_c, 0, 43, 0
4, 60600, Note_on_c, 0, 50, 78
4, 60720, Note_on_c, 0, 50, 0
4, 60720, Note_on_c, 0, 55, 78
4, 60840, Note_on_c, 0, 55, 0
4, 60840, Note_on_c, 0, 62, 78
4, 60960, Note_on_c, 0, 62, 0
4, 60960, Note_on_c, 0, 55, 78
4, 61080, Note_on_c, 0, 55, 0
4, 61080, Control_c, 0, 64, 0
4, 61080, Note_on_c, 0, 50, 78
4, 61200, Note_on_c, 0, 50, 0
4, 61200, Control_c, 0, 64, 127
4, 61200, Note_on_c, 0, 43, 65
4, 61320, Note_on_c, 0, 43, 0
4, 61320, Note_on_c, 0, 50, 65
4, 61440, Note_on_c, 0, 50, 0
4, 61440, Note_on_c, 0, 55, 65
4, 61560, Note_on_c, 0, 55, 0
4, 61560, Note_on_c, 0, 59, 65
4, 61680, Note_on_c, 0, 59, 0
4, 61680, Note_on_c, 0, 55, 65
4, 61800, Note_on_c, 0, 55, 0
4, 61800, Control_c, 0, 64, 0
4, 61800, Note_on_c, 0, 50, 65
4, 61920, Note_on_c, 0, 50, 0
4, 61920, Control_c, 0, 64, 127
4, 61920, Note_on_c, 0, 43, 65
4, 62040, Note_on_c, 0, 43, 0
4, 62040, Note_on_c, 0, 50, 65
4, 62160, Note_on_c, 0, 50, 0
4, 62160, Note_on_c, 0, 55, 65
4, 62280, Note_on_c, 0, 55, 0
4, 62280, Note_on_c, 0, 59, 65
4, 62400, Note_on_c, 0, 59, 0
4, 62400, Note_on_c, 0, 55, 65
4, 62520, Note_on_c, 0, 55, 0
4, 62520, Control_c, 0, 64, 0
4, 62520, Note_on_c, 0, 50, 65
4, 62640, Note_on_c, 0, 50, 0
4, 62640, Control_c, 0, 64, 127
4, 62640, Note_on_c, 0, 31, 52
4, 62760, Note_on_c, 0, 31, 0
4, 62760, Note_on_c, 0, 43, 52
4, 62880, Note_on_c, 0, 43, 0
4, 62880, Note_on_c, 0, 50, 52
4, 63000, Note_on_c, 0, 50, 0
4, 63000, Note_on_c, 0, 55, 52
4, 63120, Note_on_c, 0, 55, 0
4, 63120, Note_on_c, 0, 50, 52
4, 63240, Note_on_c, 0, 50, 0
4, 63240, Control_c, 0, 64, 0
4, 63240, Note_on_c, 0, 43, 52
4, 63360, Note_on_c, 0, 43, 0
4, 63360, Control_c, 0, 64, 127
4, 63360, Note_on_c, 0, 31, 52
4, 63480, Note_on_c, 0, 31, 0
4, 63480, Note_on_c, 0, 43, 52
4, 63600, Note_on_c, 0, 43, 0
4, 63600, Note_on_c, 0, 50, 52
4, 63720, Note_on_c, 0, 50, 0
4, 63720, Note_on_c, 0, 55, 52
4, 63840, Note_on_c, 0, 55, 0
4, 63840, Note_on_c, 0, 50, 52
4, 63960, Note_on_c, 0, 50, 0
4, 63960, Control_c, 0, 64, 0
4, 63960, Note_on_c, 0, 43, 52
4, 64080, Note_on_c, 0, 43, 0
4, 64080, Control_c, 0, 64, 127
4, 64080, Note_on_c, 0, 31, 52
4, 64200, Note_on_c, 0, 31, 0
4, 64200, Note_on_c, 0, 43, 52
4, 64320, Note_on_c, 0, 43, 0
4, 64320, Note_on_c, 0, 50, 52
4, 64440, Note_on_c, 0, 50, 0
4, 64440, Note_on_c, 0, 59, 52
4, 64560, Note_on_c, 0, 59, 0
4, 64560, Note_on_c, 0, 50, 52
4, 64680, Note_on_c, 0, 50, 0
4, 64680, Control_c, 0, 64, 0
4, 64680, Note_on_c, 0, 43, 52
4, 64800, Note_on_c, 0, 43, 0
4, 64800, Control_c, 0, 64, 127
4, 64800, Note_on_c, 0, 31, 65
4, 64920, Note_on_c, 0, 31, 0
4, 64920, Note_on_c, 0, 43, 65
4, 65040, Note_on_c, 0, 43, 0
4, 65040, Note_on_c, 0, 50, 65
4, 65160, Note_on_c, 0, 50, 0
4, 65160, Note_on_c, 0, 59, 65
4, 65280, Note_on_c, 0, 59, 0
4, 65280, Note_on_c, 0, 50, 65
4, 65400, Note_on_c, 0, 50, 0
4, 65400, Control_c, 0, 64, 0
4, 65400, Note_on_c, 0, 43, 65
4, 65520, Note_on_c, 0, 43, 0
4, 65520, Control_c, 0, 64, 127
4, 65520, Note_on_c, 0, 31, 78
4, 65640, Note_on_c, 0, 31, 0
4, 65640, Note_on_c, 0, 43, 78
4, 65760, Note_on_c, 0, 43, 0
4, 65760, Note_on_c, 0, 50, 78
4, 65880, Note_on_c, 0, 50, 0
4, 65880, Note_on_c, 0, 59, 78
4, 66000, Note_on_c, 0, 59, 0
4, 66000, Note_on_c, 0, 50, 78
4, 66120, Note_on_c, 0, 50, 0
4, 66120, Control_c, 0, 64, 0
4, 66120, Note_on_c, 0, 43, 78
4, 66240, Note_on_c, 0, 43, 0
4, 66480, Note_on_c, 0, 43, 91
4, 66480, Note_on_c, 0, 48, 91
4, 66480, Note_on_c, 0, 51, 91
4, 66480, Note_on_c, 0, 55, 91
4, 66720, Note_on_c, 0, 55, 0
4, 66720, Note_on_c, 0, 43, 0
4, 66720, Note_on_c, 0, 48, 0
4, 66720, Note_on_c, 0, 51, 0
4, 66720, Note_on_c, 0, 43, 91
4, 66720, Note_on_c, 0, 48, 91
4, 66720, Note_on_c, 0, 51, 91
4, 66720, Note_on_c, 0, 55, 91
4, 66960, Note_on_c, 0, 55, 0
4, 66960, Note_on_c, 0, 43, 0
4, 66960, Note_on_c, 0, 48, 0
4, 66960, Note_on_c, 0, 51, 0
4, 66960, Note_on_c, 0, 43, 117
4, 66960, Note_on_c, 0, 47, 117
4, 66960, Note_on_c, 0, 50, 117
4, 66960, Note_on_c, 0, 55, 117
4, 67440, Note_on_c, 0, 55, 0
4, 67440, Note_on_c, 0, 43, 0
4, 67440, Note_on_c, 0, 47, 0
4, 67440, Note_on_c, 0, 50, 0
4, 67440, End_track
5, 0, Start_track
5, 0, Title_t, "Grand Piano"
5, 0, Program_c, 0, 0
5, 0, Control_c, 0, 7, 115
5, 0, Control_c, 0, 10, 47
5, 7200, Note_on_c, 0, 42, 75
5, 7920, Note_on_c, 0, 42, 0
5, 7920, Note_on_c, 0, 45, 75
5, 8640, Note_on_c, 0, 45, 0
5, 8640, Note_on_c, 0, 43, 75
5, 9360, Note_on_c, 0, 43, 0
5, 9360, Note_on_c, 0, 42, 75
5, 10080, Note_on_c, 0, 42, 0
5, 10080, Note_on_c, 0, 43, 75
5, 10800, Note_on_c, 0, 43, 0
5, 10800, Note_on_c, 0, 47, 75
5, 11520, Note_on_c, 0, 47, 0
5, 11520, Note_on_c, 0, 45, 75
5, 12240, Note_on_c, 0, 57, 75
5, 12960, Note_on_c, 0, 57, 0
5, 12960, Note_on_c, 0, 45, 0
5, 12960, Note_on_c, 0, 43, 75
5, 13680, Note_on_c, 0, 55, 75
5, 13920, Note_on_c, 0, 55, 0
5, 13920, Note_on_c, 0, 43, 0
5, 14400, Note_on_c, 0, 42, 75
5, 15120, Note_on_c, 0, 54, 75
5, 15360, Note_on_c, 0, 54, 0
5, 15360, Note_on_c, 0, 42, 0
5, 15840, Note_on_c, 0, 43, 75
5, 16560, Note_on_c, 0, 43, 0
5, 16560, Note_on_c, 0, 47, 75
5, 17280, Note_on_c, 0, 47, 0
5, 17280, Note_on_c, 0, 45, 75
5, 18000, Note_on_c, 0, 45, 0
5, 18000, Note_on_c, 0, 57, 75
5, 18720, Note_on_c, 0, 57, 0
5, 18720, Note_on_c, 0, 45, 75
5, 19440, Note_on_c, 0, 45, 0
5, 19440, Note_on_c, 0, 57, 75
5, 20160, Note_on_c, 0, 57, 0
5, 20160, Note_on_c, 0, 38, 75
5, 20400, Note_on_c, 0, 38, 0
5, 20880, Note_on_c, 0, 50, 88
5, 21120, Note_on_c, 0, 50, 0
5, 21600, Note_on_c, 0, 43, 88
5, 21840, Note_on_c, 0, 43, 0
5, 22080, Note_on_c, 0, 55, 88
5, 22320, Note_on_c, 0, 55, 0
5, 22320, Note_on_c, 0, 47, 88
5, 22560, Note_on_c, 0, 47, 0
5, 22800, Note_on_c, 0, 59, 88
5, 23040, Note_on_c, 0, 59, 0
5, 23040, Note_on_c, 0, 45, 88
5, 23280, Note_on_c, 0, 45, 0
5, 23520, Note_on_c, 0, 57, 88
5, 23760, Note_on_c, 0, 57, 0
5, 23760, Note_on_c, 0, 57, 88
5, 24000, Note_on_c, 0, 57, 0
5, 24480, Note_on_c, 0, 43, 88
5, 24720, Note_on_c, 0, 43, 0
5, 24960, Note_on_c, 0, 55, 88
5, 25200, Note_on_c, 0, 55, 0
5, 25200, Note_on_c, 0, 55, 88
5, 25440, Note_on_c, 0, 55, 0
5, 25920, Note_on_c, 0, 42, 88
5, 26160, Note_on_c, 0, 42, 0
5, 26400, Note_on_c, 0, 54, 88
5, 26640, Note_on_c, 0, 54, 0
5, 26640, Note_on_c, 0, 54, 88
5, 26880, Note_on_c, 0, 54, 0
5, 27360, Note_on_c, 0, 43, 88
5, 27600, Note_on_c, 0, 43, 0
5, 27840, Note_on_c, 0, 55, 88
5, 28080, Note_on_c, 0, 55, 0
5, 28080, Note_on_c, 0, 47, 88
5, 28320, Note_on_c, 0, 47, 0
5, 28560, Note_on_c, 0, 59, 88
5, 28800, Note_on_c, 0, 59, 0
5, 28800, Note_on_c, 0, 45, 88
5, 29040, Note_on_c, 0, 45, 0
5, 29280, Note_on_c, 0, 57, 88
5, 29520, Note_on_c, 0, 57, 0
5, 29520, Note_on_c, 0, 57, 88
5, 29760, Note_on_c, 0, 57, 0
5, 30240, Note_on_c, 0, 45, 88
5, 30480, Note_on_c, 0, 45, 0
5, 30720, Note_on_c, 0, 57, 88
5, 30960, Note_on_c, 0, 57, 0
5, 30960, Note_on_c, 0, 57, 88
5, 31200, Note_on_c, 0, 57, 0
5, 31680, Note_on_c, 0, 38, 88
5, 31920, Note_on_c, 0, 38, 0
5, 32400, Note_on_c, 0, 50, 88
5, 32423, Note_on_c, 0, 50, 0
5, 32520, Note_on_c, 0, 50, 88
5, 32543, Note_on_c, 0, 50, 0
5, 32640, Note_on_c, 0, 50, 88
5, 32663, Note_on_c, 0, 50, 0
5, 32760, Note_on_c, 0, 50, 88
5, 32783, Note_on_c, 0, 50, 0
5, 32880, Note_on_c, 0, 50, 88
5, 32903, Note_on_c, 0, 50, 0
5, 33000, Note_on_c, 0, 50, 88
5, 33023, Note_on_c, 0, 50, 0
5, 33120, Note_on_c, 0, 50, 88
5, 33143, Note_on_c, 0, 50, 0
5, 33240, Note_on_c, 0, 50, 88
5, 33263, Note_on_c, 0, 50, 0
5, 33360, Note_on_c, 0, 50, 88
5, 33383, Note_on_c, 0, 50, 0
5, 33480, Note_on_c, 0, 50, 88
5, 33503, Note_on_c, 0, 50, 0
5, 33600, Note_on_c, 0, 50, 88
5, 33623, Note_on_c, 0, 50, 0
5, 33720, Note_on_c, 0, 50, 88
5, 33743, Note_on_c, 0, 50, 0
5, 33840, Note_on_c, 0, 50, 88
5, 33863, Note_on_c, 0, 50, 0
5, 33960, Note_on_c, 0, 50, 88
5, 33983, Note_on_c, 0, 50, 0
5, 34080, Note_on_c, 0, 50, 88
5, 34103, Note_on_c, 0, 50, 0
5, 34200, Note_on_c, 0, 50, 88
5, 34223, Note_on_c, 0, 50, 0
5, 34320, Note_on_c, 0, 50, 88
5, 34343, Note_on_c, 0, 50, 0
5, 34440, Note_on_c, 0, 50, 88
5, 34463, Note_on_c, 0, 50, 0
5, 34560, Note_on_c, 0, 50, 88
5, 34583, Note_on_c, 0, 50, 0
5, 34680, Note_on_c, 0, 50, 88
5, 34703, Note_on_c, 0, 50, 0
5, 34800, Note_on_c, 0, 50, 88
5, 34823, Note_on_c, 0, 50, 0
5, 34920, Note_on_c, 0, 50, 88
5, 34943, Note_on_c, 0, 50, 0
5, 35040, Note_on_c, 0, 50, 88
5, 35063, Note_on_c, 0, 50, 0
5, 35160, Note_on_c, 0, 50, 88
5, 35183, Note_on_c, 0, 50, 0
5, 35280, Note_on_c, 0, 50, 88
5, 35303, Note_on_c, 0, 50, 0
5, 35400, Note_on_c, 0, 50, 88
5, 35423, Note_on_c, 0, 50, 0
5, 35520, Note_on_c, 0, 50, 88
5, 35543, Note_on_c, 0, 50, 0
5, 35640, Note_on_c, 0, 50, 88
5, 35663, Note_on_c, 0, 50, 0
5, 35760, Note_on_c, 0, 50, 88
5, 35783, Note_on_c, 0, 50, 0
5, 35880, Note_on_c, 0, 50, 88
5, 35903, Note_on_c, 0, 50, 0
5, 36000, Note_on_c, 0, 50, 88
5, 36023, Note_on_c, 0, 50, 0
5, 36120, Note_on_c, 0, 50, 88
5, 36143, Note_on_c, 0, 50, 0
5, 36240, Note_on_c, 0, 50, 88
5, 36263, Note_on_c, 0, 50, 0
5, 36360, Note_on_c, 0, 50, 88
5, 36383, Note_on_c, 0, 50, 0
5, 36480, Note_on_c, 0, 50, 88
5, 36503, Note_on_c, 0, 50, 0
5, 36600, Note_on_c, 0, 50, 88
5, 36623, Note_on_c, 0, 50, 0
5, 36720, Note_on_c, 0, 50, 88
5, 36743, Note_on_c, 0, 50, 0
5, 36840, Note_on_c, 0, 50, 88
5, 36863, Note_on_c, 0, 50, 0
5, 36960, Note_on_c, 0, 50, 88
5, 36983, Note_on_c, 0, 50, 0
5, 37080, Note_on_c, 0, 50, 88
5, 37103, Note_on_c, 0, 50, 0
5, 37200, Note_on_c, 0, 50, 88
5, 37223, Note_on_c, 0, 50, 0
5, 37320, Note_on_c, 0, 50, 88
5, 37343, Note_on_c, 0, 50, 0
5, 37440, Note_on_c, 0, 50, 88
5, 37463, Note_on_c, 0, 50, 0
5, 37560, Note_on_c, 0, 50, 88
5, 37583, Note_on_c, 0, 50, 0
5, 37680, Note_on_c, 0, 50, 88
5, 37703, Note_on_c, 0, 50, 0
5, 37800, Note_on_c, 0, 50, 88
5, 37823, Note_on_c, 0, 50, 0
5, 37920, Note_on_c, 0, 50, 88
5, 37943, Note_on_c, 0, 50, 0
5, 38040, Note_on_c, 0, 50, 88
5, 38063, Note_on_c, 0, 50, 0
5, 38160, Note_on_c, 0, 50, 101
5, 38160, Note_on_c, 0, 59, 101
5, 38183, Note_on_c, 0, 59, 0
5, 38183, Note_on_c, 0, 50, 0
5, 38280, Note_on_c, 0, 50, 101
5, 38303, Note_on_c, 0, 50, 0
5, 38400, Note_on_c, 0, 49, 101
5, 38423, Note_on_c, 0, 49, 0
5, 38520, Note_on_c, 0, 47, 101
5, 38543, Note_on_c, 0, 47, 0
5, 38640, Note_on_c, 0, 49, 101
5, 38663, Note_on_c, 0, 49, 0
5, 38760, Note_on_c, 0, 51, 101
5, 38783, Note_on_c, 0, 51, 0
5, 38880, Note_on_c, 0, 52, 101
5, 39120, Note_on_c, 0, 52, 0
5, 39120, Note_on_c, 0, 52, 101
5, 39360, Note_on_c, 0, 52, 0
5, 39360, Note_on_c, 0, 52, 101
5, 39600, Note_on_c, 0, 52, 0
5, 39600, Note_on_c, 0, 52, 88
5, 39623, Note_on_c, 0, 52, 0
5, 39720, Note_on_c, 0, 43, 88
5, 39743, Note_on_c, 0, 43, 0
5, 39840, Note_on_c, 0, 45, 88
5, 39863, Note_on_c, 0, 45, 0
5, 39960, Note_on_c, 0, 43, 88
5, 39983, Note_on_c, 0, 43, 0
5, 40080, Note_on_c, 0, 45, 88
5, 40103, Note_on_c, 0, 45, 0
5, 40200, Note_on_c, 0, 47, 88
5, 40223, Note_on_c, 0, 47, 0
5, 40320, Note_on_c, 0, 48, 88
5, 40560, Note_on_c, 0, 48, 0
5, 40560, Note_on_c, 0, 48, 88
5, 40800, Note_on_c, 0, 48, 0
5, 40800, Note_on_c, 0, 48, 88
5, 41040, Note_on_c, 0, 48, 0
5, 41040, Note_on_c, 0, 48, 75
5, 41063, Note_on_c, 0, 48, 0
5, 41160, Note_on_c, 0, 40, 75
5, 41183, Note_on_c, 0, 40, 0
5, 41280, Note_on_c, 0, 41, 75
5, 41303, Note_on_c, 0, 41, 0
5, 41400, Note_on_c, 0, 42, 75
5, 41423, Note_on_c, 0, 42, 0
5, 41520, Note_on_c, 0, 43, 75
5, 41543, Note_on_c, 0, 43, 0
5, 41640, Note_on_c, 0, 44, 75
5, 41663, Note_on_c, 0, 44, 0
5, 41760, Note_on_c, 0, 45, 75
5, 42240, Note_on_c, 0, 45, 0
5, 42240, Note_on_c, 0, 47, 75
5, 42480, Note_on_c, 0, 47, 0
5, 42480, Note_on_c, 0, 48, 75
5, 43200, Note_on_c, 0, 48, 0
5, 43200, Note_on_c, 0, 50, 49
5, 43920, Note_on_c, 0, 50, 0
5, 43920, Note_on_c, 0, 55, 49
5, 44040, Note_on_c, 0, 55, 0
5, 44040, Note_on_c, 0, 50, 49
5, 44063, Note_on_c, 0, 50, 0
5, 44160, Note_on_c, 0, 49, 101
5, 44183, Note_on_c, 0, 49, 0
5, 44280, Note_on_c, 0, 47, 101
5, 44303, Note_on_c, 0, 47, 0
5, 44400, Note_on_c, 0, 49, 101
5, 44423, Note_on_c, 0, 49, 0
5, 44520, Note_on_c, 0, 51, 101
5, 44543, Note_on_c, 0, 51, 0
5, 44640, Note_on_c, 0, 52, 101
5, 44880, Note_on_c, 0, 52, 0
5, 44880, Note_on_c, 0, 52, 101
5, 45120, Note_on_c, 0, 52, 0
5, 45120, Note_on_c, 0, 52, 101
5, 45360, Note_on_c, 0, 52, 0
5, 45360, Note_on_c, 0, 52, 88
5, 45383, Note_on_c, 0, 52, 0
5, 45480, Note_on_c, 0, 43, 88
5, 45503, Note_on_c, 0, 43, 0
5, 45600, Note_on_c, 0, 45, 88
5, 45623, Note_on_c, 0, 45, 0
5, 45720, Note_on_c, 0, 43, 88
5, 45743, Note_on_c, 0, 43, 0
5, 45840, Note_on_c, 0, 45, 88
5, 45863, Note_on_c, 0, 45, 0
5, 45960, Note_on_c, 0, 47, 88
5, 45983, Note_on_c, 0, 47, 0
5, 46080, Note_on_c, 0, 48, 88
5, 46320, Note_on_c, 0, 48, 0
5, 46320, Note_on_c, 0, 48, 88
5, 46560, Note_on_c, 0, 48, 0
5, 46560, Note_on_c, 0, 48, 88
5, 46800, Note_on_c, 0, 48, 0
5, 46800, Note_on_c, 0, 48, 75
5, 46823, Note_on_c, 0, 48, 0
5, 46920, Note_on_c, 0, 40, 75
5, 46943, Note_on_c, 0, 40, 0
5, 47040, Note_on_c, 0, 41, 75
5, 47063, Note_on_c, 0, 41, 0
5, 47160, Note_on_c, 0, 42, 75
5, 47183, Note_on_c, 0, 42, 0
5, 47280, Note_on_c, 0, 43, 75
5, 47303, Note_on_c, 0, 43, 0
5, 47400, Note_on_c, 0, 44, 75
5, 47423, Note_on_c, 0, 44, 0
5, 47520, Note_on_c, 0, 45, 75
5, 48000, Note_on_c, 0, 45, 0
5, 48000, Note_on_c, 0, 47, 75
5, 48240, Note_on_c, 0, 47, 0
5, 48240, Note_on_c, 0, 48, 75
5, 48960, Note_on_c, 0, 48, 0
5, 48960, Note_on_c, 0, 50, 49
5, 49680, Note_on_c, 0, 50, 0
5, 49680, End_track
0, 0, End_of_file
