0, 0, Header, 1, 5, 480
1, 0, Start_track
1, 0, Title_t, "tchaikovsky sleeping beauty act3 29 sarabande"
1, 0, Copyright_t, "Adaptation for Disklavier pianos, by: Robert C. Kuhmann (c) 2012."
1, 0, Text_t, "Seq. (c) by: Segundo G. Yogore,  2007\012"
1, 0, Time_signature, 3, 2, 24, 8
1, 0, Key_signature, 0, "major"
1, 0, Tempo, 800000
1, 67680, Time_signature, 8, 2, 24, 8
1, 67680, End_track
2, 0, Start_track
2, 0, Title_t, "Grand Piano"
2, 0, Program_c, 0, 0
2, 0, Control_c, 0, 7, 115
2, 0, Control_c, 0, 10, 86
2, 0, Note_on_c, 0, 64, 61
2, 0, Note_on_c, 0, 69, 61
2, 480, Note_on_c, 0, 69, 0
2, 480, Note_on_c, 0, 64, 0
2, 480, Note_on_c, 0, 76, 61
2, 720, Note_on_c, 0, 76, 0
2, 720, Note_on_c, 0, 69, 61
2, 960, Note_on_c, 0, 69, 0
2, 960, Note_on_c, 0, 68, 61
2, 1200, Note_on_c, 0, 68, 0
2, 1200, Note_on_c, 0, 71, 61
2, 1320, Note_on_c, 0, 69, 61
2, 1380, Note_on_c, 0, 69, 0
2, 1380, Note_on_c, 0, 71, 61
2, 1440, Note_on_c, 0, 71, 0
2, 1440, Note_on_c, 0, 71, 0
2, 1440, Note_on_c, 0, 69, 87
2, 1800, Note_on_c, 0, 69, 0
2, 1800, Note_on_c, 0, 68, 61
2, 1920, Note_on_c, 0, 68, 0
2, 1920, Note_on_c, 0, 69, 61
2, 2400, Note_on_c, 0, 69, 0
2, 2400, Note_on_c, 0, 77, 87
2, 2880, Note_on_c, 0, 77, 0
2, 2880, Note_on_c, 0, 76, 87
2, 3240, Note_on_c, 0, 76, 0
2, 3240, Note_on_c, 0, 74, 61
2, 3360, Note_on_c, 0, 74, 0
2, 3360, Note_on_c, 0, 72, 87
2, 3600, Note_on_c, 0, 72, 0
2, 3600, Note_on_c, 0, 71, 87
2, 3840, Note_on_c, 0, 71, 0
2, 3840, Control_c, 0, 64, 127
2, 3840, Note_on_c, 0, 69, 61
2, 3960, Note_on_c, 0, 69, 0
2, 3960, Note_on_c, 0, 71, 61
2, 4080, Note_on_c, 0, 71, 0
2, 4080, Note_on_c, 0, 72, 61
2, 4200, Note_on_c, 0, 72, 0
2, 4200, Control_c, 0, 64, 0
2, 4200, Note_on_c, 0, 69, 61
2, 4320, Note_on_c, 0, 69, 0
2, 4320, Note_on_c, 0, 71, 87
2, 5040, Note_on_c, 0, 71, 0
2, 5040, Note_on_c, 0, 76, 61
2, 5087, Note_on_c, 0, 76, 0
2, 5280, Note_on_c, 0, 69, 61
2, 5400, Note_on_c, 0, 69, 0
2, 5400, Note_on_c, 0, 68, 61
2, 5520, Note_on_c, 0, 68, 0
2, 5520, Note_on_c, 0, 69, 61
2, 5543, Note_on_c, 0, 69, 0
2, 5640, Note_on_c, 0, 67, 61
2, 5663, Note_on_c, 0, 67, 0
2, 5760, Note_on_c, 0, 65, 87
2, 6480, Note_on_c, 0, 65, 0
2, 6480, Note_on_c, 0, 74, 61
2, 6527, Note_on_c, 0, 74, 0
2, 6720, Note_on_c, 0, 67, 61
2, 6840, Note_on_c, 0, 67, 0
2, 6840, Note_on_c, 0, 66, 61
2, 6960, Note_on_c, 0, 66, 0
2, 6960, Note_on_c, 0, 67, 61
2, 6983, Note_on_c, 0, 67, 0
2, 7080, Note_on_c, 0, 65, 61
2, 7103, Note_on_c, 0, 65, 0
2, 7200, Note_on_c, 0, 64, 87
2, 7920, Note_on_c, 0, 64, 0
2, 7920, Note_on_c, 0, 72, 61
2, 7967, Note_on_c, 0, 72, 0
2, 8160, Note_on_c, 0, 65, 61
2, 8280, Note_on_c, 0, 65, 0
2, 8280, Note_on_c, 0, 64, 61
2, 8400, Note_on_c, 0, 64, 0
2, 8400, Note_on_c, 0, 65, 61
2, 8423, Note_on_c, 0, 65, 0
2, 8520, Note_on_c, 0, 64, 61
2, 8543, Note_on_c, 0, 64, 0
2, 8640, Note_on_c, 0, 62, 61
2, 8880, Note_on_c, 0, 62, 0
2, 8880, Note_on_c, 0, 65, 61
2, 9120, Note_on_c, 0, 65, 0
2, 9120, Note_on_c, 0, 64, 61
2, 9360, Note_on_c, 0, 64, 0
2, 9360, Note_on_c, 0, 74, 61
2, 9720, Note_on_c, 0, 74, 0
2, 9720, Note_on_c, 0, 72, 61
2, 9840, Note_on_c, 0, 72, 0
2, 9840, Note_on_c, 0, 71, 61
2, 9863, Note_on_c, 0, 71, 0
2, 9960, Note_on_c, 0, 69, 61
2, 9983, Note_on_c, 0, 69, 0
2, 10080, Note_on_c, 0, 71, 87
2, 10560, Note_on_c, 0, 71, 0
2, 10560, Note_on_c, 0, 59, 61
2, 10560, Note_on_c, 0, 64, 61
2, 10800, Note_on_c, 0, 64, 0
2, 10800, Note_on_c, 0, 59, 0
2, 10800, Note_on_c, 0, 57, 61
2, 10823, Note_on_c, 0, 57, 0
2, 10920, Note_on_c, 0, 59, 61
2, 10943, Note_on_c, 0, 59, 0
2, 11040, Note_on_c, 0, 60, 61
2, 11160, Note_on_c, 0, 60, 0
2, 11160, Note_on_c, 0, 59, 61
2, 11280, Note_on_c, 0, 59, 0
2, 11280, Note_on_c, 0, 60, 61
2, 11303, Note_on_c, 0, 60, 0
2, 11400, Note_on_c, 0, 62, 61
2, 11423, Note_on_c, 0, 62, 0
2, 11520, Note_on_c, 0, 64, 61
2, 11520, Note_on_c, 0, 69, 61
2, 12000, Note_on_c, 0, 69, 0
2, 12000, Note_on_c, 0, 64, 0
2, 12000, Note_on_c, 0, 76, 61
2, 12240, Note_on_c, 0, 76, 0
2, 12240, Note_on_c, 0, 69, 61
2, 12480, Note_on_c, 0, 69, 0
2, 12480, Note_on_c, 0, 68, 61
2, 12720, Note_on_c, 0, 68, 0
2, 12720, Note_on_c, 0, 71, 61
2, 12840, Note_on_c, 0, 69, 61
2, 12900, Note_on_c, 0, 69, 0
2, 12900, Note_on_c, 0, 71, 61
2, 12960, Note_on_c, 0, 71, 0
2, 12960, Note_on_c, 0, 71, 0
2, 12960, Note_on_c, 0, 69, 87
2, 13320, Note_on_c, 0, 69, 0
2, 13320, Note_on_c, 0, 68, 61
2, 13440, Note_on_c, 0, 68, 0
2, 13440, Note_on_c, 0, 69, 61
2, 13920, Note_on_c, 0, 69, 0
2, 13920, Note_on_c, 0, 77, 87
2, 14400, Note_on_c, 0, 77, 0
2, 14400, Note_on_c, 0, 76, 87
2, 14760, Note_on_c, 0, 76, 0
2, 14760, Note_on_c, 0, 74, 61
2, 14880, Note_on_c, 0, 74, 0
2, 14880, Note_on_c, 0, 72, 87
2, 15120, Note_on_c, 0, 72, 0
2, 15120, Note_on_c, 0, 71, 87
2, 15360, Note_on_c, 0, 71, 0
2, 15360, Control_c, 0, 64, 127
2, 15360, Note_on_c, 0, 69, 61
2, 15480, Note_on_c, 0, 69, 0
2, 15480, Note_on_c, 0, 71, 61
2, 15600, Note_on_c, 0, 71, 0
2, 15600, Note_on_c, 0, 72, 61
2, 15720, Note_on_c, 0, 72, 0
2, 15720, Control_c, 0, 64, 0
2, 15720, Note_on_c, 0, 69, 61
2, 15840, Note_on_c, 0, 69, 0
2, 15840, Note_on_c, 0, 71, 87
2, 16560, Note_on_c, 0, 71, 0
2, 16560, Note_on_c, 0, 76, 61
2, 16607, Note_on_c, 0, 76, 0
2, 16800, Note_on_c, 0, 69, 61
2, 16920, Note_on_c, 0, 69, 0
2, 16920, Note_on_c, 0, 68, 61
2, 17040, Note_on_c, 0, 68, 0
2, 17040, Note_on_c, 0, 69, 61
2, 17063, Note_on_c, 0, 69, 0
2, 17160, Note_on_c, 0, 67, 61
2, 17183, Note_on_c, 0, 67, 0
2, 17280, Note_on_c, 0, 65, 87
2, 18000, Note_on_c, 0, 65, 0
2, 18000, Note_on_c, 0, 74, 61
2, 18047, Note_on_c, 0, 74, 0
2, 18240, Note_on_c, 0, 67, 61
2, 18360, Note_on_c, 0, 67, 0
2, 18360, Note_on_c, 0, 66, 61
2, 18480, Note_on_c, 0, 66, 0
2, 18480, Note_on_c, 0, 67, 61
2, 18503, Note_on_c, 0, 67, 0
2, 18600, Note_on_c, 0, 65, 61
2, 18623, Note_on_c, 0, 65, 0
2, 18720, Note_on_c, 0, 64, 87
2, 19440, Note_on_c, 0, 64, 0
2, 19440, Note_on_c, 0, 72, 61
2, 19487, Note_on_c, 0, 72, 0
2, 19680, Note_on_c, 0, 65, 61
2, 19800, Note_on_c, 0, 65, 0
2, 19800, Note_on_c, 0, 64, 61
2, 19920, Note_on_c, 0, 64, 0
2, 19920, Note_on_c, 0, 65, 61
2, 19943, Note_on_c, 0, 65, 0
2, 20040, Note_on_c, 0, 64, 61
2, 20063, Note_on_c, 0, 64, 0
2, 20160, Note_on_c, 0, 62, 61
2, 20400, Note_on_c, 0, 62, 0
2, 20400, Note_on_c, 0, 65, 61
2, 20640, Note_on_c, 0, 65, 0
2, 20640, Note_on_c, 0, 64, 61
2, 20687, Note_on_c, 0, 64, 0
2, 20880, Note_on_c, 0, 74, 61
2, 21240, Note_on_c, 0, 74, 0
2, 21240, Note_on_c, 0, 72, 61
2, 21360, Note_on_c, 0, 72, 0
2, 21360, Note_on_c, 0, 71, 61
2, 21383, Note_on_c, 0, 71, 0
2, 21480, Note_on_c, 0, 69, 61
2, 21503, Note_on_c, 0, 69, 0
2, 21600, Note_on_c, 0, 71, 87
2, 22080, Note_on_c, 0, 71, 0
2, 22080, Note_on_c, 0, 59, 61
2, 22080, Note_on_c, 0, 64, 61
2, 22320, Note_on_c, 0, 64, 0
2, 22320, Note_on_c, 0, 59, 0
2, 22320, Note_on_c, 0, 66, 61
2, 22440, Note_on_c, 0, 66, 0
2, 22440, Note_on_c, 0, 68, 61
2, 22560, Note_on_c, 0, 68, 0
2, 22560, Note_on_c, 0, 60, 61
2, 22560, Note_on_c, 0, 69, 61
2, 22583, Note_on_c, 0, 69, 0
2, 22583, Note_on_c, 0, 60, 0
2, 22680, Note_on_c, 0, 62, 61
2, 22680, Note_on_c, 0, 71, 61
2, 22703, Note_on_c, 0, 71, 0
2, 22703, Note_on_c, 0, 62, 0
2, 22800, Note_on_c, 0, 64, 61
2, 22800, Note_on_c, 0, 72, 61
2, 22823, Note_on_c, 0, 72, 0
2, 22823, Note_on_c, 0, 64, 0
2, 22920, Note_on_c, 0, 66, 61
2, 22920, Note_on_c, 0, 74, 61
2, 22943, Note_on_c, 0, 74, 0
2, 22943, Note_on_c, 0, 66, 0
2, 22980, Note_on_c, 0, 77, 87
2, 22980, Note_on_c, 0, 81, 87
2, 23040, Note_on_c, 0, 81, 0
2, 23040, Note_on_c, 0, 77, 0
2, 23040, Note_on_c, 0, 67, 87
2, 23040, Note_on_c, 0, 72, 87
2, 23040, Note_on_c, 0, 76, 87
2, 23040, Note_on_c, 0, 79, 87
2, 23400, Note_on_c, 0, 79, 0
2, 23400, Note_on_c, 0, 67, 0
2, 23400, Note_on_c, 0, 72, 0
2, 23400, Note_on_c, 0, 76, 0
2, 23400, Note_on_c, 0, 77, 87
2, 23400, Note_on_c, 0, 81, 87
2, 23439, Note_on_c, 0, 81, 0
2, 23439, Note_on_c, 0, 77, 0
2, 23439, Note_on_c, 0, 76, 87
2, 23439, Note_on_c, 0, 79, 87
2, 23480, Note_on_c, 0, 79, 0
2, 23480, Note_on_c, 0, 76, 0
2, 23480, Note_on_c, 0, 75, 87
2, 23480, Note_on_c, 0, 78, 87
2, 23520, Note_on_c, 0, 78, 0
2, 23520, Note_on_c, 0, 75, 0
2, 23520, Note_on_c, 0, 76, 87
2, 23520, Note_on_c, 0, 79, 87
2, 23760, Note_on_c, 0, 79, 0
2, 23760, Note_on_c, 0, 76, 0
2, 23760, Note_on_c, 0, 67, 87
2, 23760, Note_on_c, 0, 72, 87
2, 23760, Note_on_c, 0, 76, 87
2, 23807, Note_on_c, 0, 76, 0
2, 23807, Note_on_c, 0, 72, 0
2, 23807, Note_on_c, 0, 67, 0
2, 24000, Note_on_c, 0, 67, 87
2, 24000, Note_on_c, 0, 71, 87
2, 24000, Note_on_c, 0, 74, 87
2, 24120, Note_on_c, 0, 74, 0
2, 24120, Note_on_c, 0, 71, 0
2, 24120, Note_on_c, 0, 67, 0
2, 24120, Note_on_c, 0, 72, 87
2, 24120, Note_on_c, 0, 76, 87
2, 24240, Note_on_c, 0, 76, 0
2, 24240, Note_on_c, 0, 72, 0
2, 24240, Note_on_c, 0, 74, 87
2, 24240, Note_on_c, 0, 77, 87
2, 24263, Note_on_c, 0, 77, 0
2, 24263, Note_on_c, 0, 74, 0
2, 24360, Note_on_c, 0, 76, 87
2, 24360, Note_on_c, 0, 79, 87
2, 24383, Note_on_c, 0, 79, 0
2, 24383, Note_on_c, 0, 76, 0
2, 24480, Note_on_c, 0, 67, 87
2, 24480, Note_on_c, 0, 72, 87
2, 24480, Note_on_c, 0, 76, 87
2, 24720, Note_on_c, 0, 76, 0
2, 24720, Note_on_c, 0, 72, 0
2, 24720, Note_on_c, 0, 67, 0
2, 24720, Note_on_c, 0, 71, 87
2, 24720, Note_on_c, 0, 72, 87
2, 24720, Note_on_c, 0, 79, 87
2, 24960, Note_on_c, 0, 79, 0
2, 24960, Note_on_c, 0, 72, 0
2, 24960, Note_on_c, 0, 71, 0
2, 24960, Note_on_c, 0, 69, 87
2, 24960, Note_on_c, 0, 72, 87
2, 24960, Note_on_c, 0, 77, 87
2, 25200, Note_on_c, 0, 77, 0
2, 25200, Note_on_c, 0, 72, 0
2, 25200, Note_on_c, 0, 69, 0
2, 25200, Note_on_c, 0, 67, 87
2, 25200, Note_on_c, 0, 73, 87
2, 25200, Note_on_c, 0, 76, 87
2, 25440, Note_on_c, 0, 76, 0
2, 25440, Note_on_c, 0, 73, 0
2, 25440, Note_on_c, 0, 67, 0
2, 25440, Note_on_c, 0, 65, 87
2, 25440, Note_on_c, 0, 74, 87
2, 25680, Note_on_c, 0, 74, 0
2, 25680, Note_on_c, 0, 65, 0
2, 25680, Note_on_c, 0, 73, 87
2, 25680, Note_on_c, 0, 76, 87
2, 25680, Note_on_c, 0, 82, 87
2, 25920, Note_on_c, 0, 82, 0
2, 25920, Note_on_c, 0, 76, 0
2, 25920, Note_on_c, 0, 73, 0
2, 25920, Note_on_c, 0, 74, 87
2, 25920, Note_on_c, 0, 77, 87
2, 25920, Note_on_c, 0, 81, 87
2, 26520, Note_on_c, 0, 81, 0
2, 26520, Note_on_c, 0, 77, 0
2, 26520, Note_on_c, 0, 74, 0
2, 26520, Note_on_c, 0, 70, 87
2, 26520, Note_on_c, 0, 76, 87
2, 26520, Note_on_c, 0, 79, 87
2, 26640, Note_on_c, 0, 79, 0
2, 26640, Note_on_c, 0, 76, 0
2, 26640, Note_on_c, 0, 70, 0
2, 26640, Note_on_c, 0, 69, 87
2, 26640, Note_on_c, 0, 74, 87
2, 26640, Note_on_c, 0, 77, 87
2, 26663, Note_on_c, 0, 77, 0
2, 26663, Note_on_c, 0, 74, 0
2, 26663, Note_on_c, 0, 69, 0
2, 26760, Note_on_c, 0, 67, 87
2, 26760, Note_on_c, 0, 73, 87
2, 26760, Note_on_c, 0, 76, 87
2, 26783, Note_on_c, 0, 76, 0
2, 26783, Note_on_c, 0, 73, 0
2, 26783, Note_on_c, 0, 67, 0
2, 26880, Note_on_c, 0, 65, 113
2, 26880, Note_on_c, 0, 69, 113
2, 26880, Note_on_c, 0, 74, 113
2, 27360, Note_on_c, 0, 69, 0
2, 27360, Note_on_c, 0, 65, 0
2, 27480, Note_on_c, 0, 74, 0
2, 27480, Note_on_c, 0, 76, 87
2, 27600, Note_on_c, 0, 76, 0
2, 27600, Note_on_c, 0, 74, 87
2, 27623, Note_on_c, 0, 74, 0
2, 27720, Note_on_c, 0, 72, 87
2, 27743, Note_on_c, 0, 72, 0
2, 27840, Note_on_c, 0, 71, 87
2, 27960, Note_on_c, 0, 71, 0
2, 27960, Note_on_c, 0, 72, 87
2, 28080, Note_on_c, 0, 72, 0
2, 28080, Note_on_c, 0, 71, 87
2, 28103, Note_on_c, 0, 71, 0
2, 28200, Note_on_c, 0, 69, 87
2, 28223, Note_on_c, 0, 69, 0
2, 28320, Note_on_c, 0, 68, 87
2, 28367, Note_on_c, 0, 68, 0
2, 29040, Note_on_c, 0, 71, 61
2, 29087, Note_on_c, 0, 71, 0
2, 29280, Note_on_c, 0, 76, 61
2, 29400, Note_on_c, 0, 76, 0
2, 29400, Note_on_c, 0, 75, 61
2, 29520, Note_on_c, 0, 75, 0
2, 29520, Note_on_c, 0, 76, 61
2, 29543, Note_on_c, 0, 76, 0
2, 29640, Note_on_c, 0, 74, 61
2, 29663, Note_on_c, 0, 74, 0
2, 29760, Note_on_c, 0, 81, 74
2, 29880, Note_on_c, 0, 81, 0
2, 29880, Note_on_c, 0, 80, 74
2, 30000, Note_on_c, 0, 80, 0
2, 30000, Note_on_c, 0, 81, 74
2, 30023, Note_on_c, 0, 81, 0
2, 30120, Note_on_c, 0, 79, 74
2, 30143, Note_on_c, 0, 79, 0
2, 30240, Note_on_c, 0, 77, 87
2, 30480, Note_on_c, 0, 77, 0
2, 30480, Note_on_c, 0, 76, 87
2, 30720, Note_on_c, 0, 76, 0
2, 30720, Note_on_c, 0, 81, 87
2, 30840, Note_on_c, 0, 81, 0
2, 30840, Note_on_c, 0, 80, 87
2, 30960, Note_on_c, 0, 80, 0
2, 30960, Note_on_c, 0, 81, 74
2, 30983, Note_on_c, 0, 81, 0
2, 31080, Note_on_c, 0, 79, 74
2, 31103, Note_on_c, 0, 79, 0
2, 31200, Note_on_c, 0, 74, 74
2, 31200, Note_on_c, 0, 77, 74
2, 31200, Note_on_c, 0, 86, 74
2, 31320, Note_on_c, 0, 86, 0
2, 31320, Note_on_c, 0, 77, 0
2, 31320, Note_on_c, 0, 74, 0
2, 31320, Note_on_c, 0, 73, 74
2, 31320, Note_on_c, 0, 85, 74
2, 31440, Note_on_c, 0, 85, 0
2, 31440, Note_on_c, 0, 73, 0
2, 31440, Note_on_c, 0, 74, 87
2, 31440, Note_on_c, 0, 86, 87
2, 31463, Note_on_c, 0, 86, 0
2, 31463, Note_on_c, 0, 74, 0
2, 31560, Note_on_c, 0, 72, 87
2, 31560, Note_on_c, 0, 84, 87
2, 31583, Note_on_c, 0, 84, 0
2, 31583, Note_on_c, 0, 72, 0
2, 31680, Note_on_c, 0, 71, 87
2, 31680, Note_on_c, 0, 74, 87
2, 31680, Note_on_c, 0, 79, 87
2, 31680, Note_on_c, 0, 83, 87
2, 32040, Note_on_c, 0, 83, 0
2, 32040, Note_on_c, 0, 71, 0
2, 32040, Note_on_c, 0, 74, 0
2, 32040, Note_on_c, 0, 79, 0
2, 32040, Control_c, 0, 64, 127
2, 32040, Note_on_c, 0, 81, 87
2, 32040, Note_on_c, 0, 84, 87
2, 32079, Note_on_c, 0, 84, 0
2, 32079, Note_on_c, 0, 81, 0
2, 32079, Note_on_c, 0, 79, 87
2, 32079, Note_on_c, 0, 83, 87
2, 32120, Note_on_c, 0, 83, 0
2, 32120, Note_on_c, 0, 79, 0
2, 32120, Note_on_c, 0, 78, 87
2, 32120, Note_on_c, 0, 82, 87
2, 32160, Note_on_c, 0, 82, 0
2, 32160, Note_on_c, 0, 78, 0
2, 32160, Control_c, 0, 64, 0
2, 32160, Note_on_c, 0, 74, 87
2, 32160, Note_on_c, 0, 79, 87
2, 32160, Note_on_c, 0, 83, 87
2, 32400, Note_on_c, 0, 83, 0
2, 32400, Note_on_c, 0, 79, 0
2, 32400, Note_on_c, 0, 74, 0
2, 32400, Note_on_c, 0, 74, 87
2, 32400, Note_on_c, 0, 76, 87
2, 32400, Note_on_c, 0, 79, 87
2, 32447, Note_on_c, 0, 79, 0
2, 32447, Note_on_c, 0, 76, 0
2, 32447, Note_on_c, 0, 74, 0
2, 32640, Note_on_c, 0, 74, 87
2, 32640, Note_on_c, 0, 78, 87
2, 32640, Note_on_c, 0, 81, 87
2, 32760, Note_on_c, 0, 81, 0
2, 32760, Note_on_c, 0, 78, 0
2, 32760, Note_on_c, 0, 74, 0
2, 32760, Note_on_c, 0, 79, 87
2, 32760, Note_on_c, 0, 83, 87
2, 32880, Note_on_c, 0, 83, 0
2, 32880, Note_on_c, 0, 79, 0
2, 32880, Note_on_c, 0, 81, 113
2, 32880, Note_on_c, 0, 84, 113
2, 33000, Note_on_c, 0, 84, 0
2, 33000, Note_on_c, 0, 81, 0
2, 33000, Note_on_c, 0, 83, 113
2, 33000, Note_on_c, 0, 86, 113
2, 33120, Note_on_c, 0, 86, 0
2, 33120, Note_on_c, 0, 83, 0
2, 33120, Note_on_c, 0, 71, 87
2, 33120, Note_on_c, 0, 79, 87
2, 33240, Note_on_c, 0, 79, 0
2, 33240, Note_on_c, 0, 71, 0
2, 33240, Note_on_c, 0, 72, 87
2, 33240, Note_on_c, 0, 81, 87
2, 33360, Note_on_c, 0, 81, 0
2, 33360, Note_on_c, 0, 72, 0
2, 33360, Note_on_c, 0, 71, 87
2, 33360, Note_on_c, 0, 79, 87
2, 33383, Note_on_c, 0, 79, 0
2, 33383, Note_on_c, 0, 71, 0
2, 33480, Note_on_c, 0, 69, 87
2, 33480, Note_on_c, 0, 77, 87
2, 33503, Note_on_c, 0, 77, 0
2, 33503, Note_on_c, 0, 69, 0
2, 33600, Note_on_c, 0, 67, 87
2, 33600, Note_on_c, 0, 76, 87
2, 33623, Note_on_c, 0, 76, 0
2, 33623, Note_on_c, 0, 67, 0
2, 33720, Note_on_c, 0, 67, 87
2, 33720, Note_on_c, 0, 71, 87
2, 33743, Note_on_c, 0, 71, 0
2, 33743, Note_on_c, 0, 67, 0
2, 33840, Note_on_c, 0, 69, 87
2, 33840, Note_on_c, 0, 72, 87
2, 33863, Note_on_c, 0, 72, 0
2, 33863, Note_on_c, 0, 69, 0
2, 33960, Note_on_c, 0, 71, 87
2, 33960, Note_on_c, 0, 74, 87
2, 33983, Note_on_c, 0, 74, 0
2, 33983, Note_on_c, 0, 71, 0
2, 34080, Note_on_c, 0, 72, 87
2, 34080, Note_on_c, 0, 76, 87
2, 34103, Note_on_c, 0, 76, 0
2, 34103, Note_on_c, 0, 72, 0
2, 34200, Note_on_c, 0, 74, 87
2, 34200, Note_on_c, 0, 77, 87
2, 34223, Note_on_c, 0, 77, 0
2, 34223, Note_on_c, 0, 74, 0
2, 34320, Note_on_c, 0, 76, 87
2, 34320, Note_on_c, 0, 79, 87
2, 34343, Note_on_c, 0, 79, 0
2, 34343, Note_on_c, 0, 76, 0
2, 34440, Note_on_c, 0, 77, 87
2, 34440, Note_on_c, 0, 81, 87
2, 34463, Note_on_c, 0, 81, 0
2, 34463, Note_on_c, 0, 77, 0
2, 34560, Note_on_c, 0, 67, 87
2, 34560, Note_on_c, 0, 72, 87
2, 34560, Note_on_c, 0, 76, 87
2, 34560, Note_on_c, 0, 79, 87
2, 34920, Note_on_c, 0, 79, 0
2, 34920, Note_on_c, 0, 67, 0
2, 34920, Note_on_c, 0, 72, 0
2, 34920, Note_on_c, 0, 76, 0
2, 34920, Control_c, 0, 64, 127
2, 34920, Note_on_c, 0, 77, 87
2, 34920, Note_on_c, 0, 81, 87
2, 34959, Note_on_c, 0, 81, 0
2, 34959, Note_on_c, 0, 77, 0
2, 34959, Note_on_c, 0, 76, 87
2, 34959, Note_on_c, 0, 79, 87
2, 35000, Note_on_c, 0, 79, 0
2, 35000, Note_on_c, 0, 76, 0
2, 35000, Note_on_c, 0, 75, 87
2, 35000, Note_on_c, 0, 78, 87
2, 35040, Note_on_c, 0, 78, 0
2, 35040, Note_on_c, 0, 75, 0
2, 35040, Control_c, 0, 64, 0
2, 35040, Note_on_c, 0, 72, 87
2, 35040, Note_on_c, 0, 76, 87
2, 35040, Note_on_c, 0, 79, 87
2, 35280, Note_on_c, 0, 79, 0
2, 35280, Note_on_c, 0, 76, 0
2, 35280, Note_on_c, 0, 72, 0
2, 35280, Note_on_c, 0, 67, 87
2, 35280, Note_on_c, 0, 72, 87
2, 35280, Note_on_c, 0, 76, 87
2, 35327, Note_on_c, 0, 76, 0
2, 35327, Note_on_c, 0, 72, 0
2, 35327, Note_on_c, 0, 67, 0
2, 35520, Note_on_c, 0, 67, 87
2, 35520, Note_on_c, 0, 71, 87
2, 35520, Note_on_c, 0, 74, 87
2, 35640, Note_on_c, 0, 74, 0
2, 35640, Note_on_c, 0, 71, 0
2, 35640, Note_on_c, 0, 67, 0
2, 35640, Note_on_c, 0, 72, 87
2, 35640, Note_on_c, 0, 76, 87
2, 35760, Note_on_c, 0, 76, 0
2, 35760, Note_on_c, 0, 72, 0
2, 35760, Note_on_c, 0, 74, 87
2, 35760, Note_on_c, 0, 77, 87
2, 35783, Note_on_c, 0, 77, 0
2, 35783, Note_on_c, 0, 74, 0
2, 35880, Note_on_c, 0, 76, 87
2, 35880, Note_on_c, 0, 79, 87
2, 35903, Note_on_c, 0, 79, 0
2, 35903, Note_on_c, 0, 76, 0
2, 36000, Note_on_c, 0, 67, 87
2, 36000, Note_on_c, 0, 72, 87
2, 36000, Note_on_c, 0, 76, 87
2, 36240, Note_on_c, 0, 76, 0
2, 36240, Note_on_c, 0, 72, 0
2, 36240, Note_on_c, 0, 67, 0
2, 36240, Note_on_c, 0, 71, 87
2, 36240, Note_on_c, 0, 72, 87
2, 36240, Note_on_c, 0, 79, 87
2, 36480, Note_on_c, 0, 79, 0
2, 36480, Note_on_c, 0, 72, 0
2, 36480, Note_on_c, 0, 71, 0
2, 36480, Note_on_c, 0, 69, 87
2, 36480, Note_on_c, 0, 72, 87
2, 36480, Note_on_c, 0, 77, 87
2, 36720, Note_on_c, 0, 77, 0
2, 36720, Note_on_c, 0, 72, 0
2, 36720, Note_on_c, 0, 69, 0
2, 36720, Note_on_c, 0, 67, 87
2, 36720, Note_on_c, 0, 73, 87
2, 36720, Note_on_c, 0, 76, 87
2, 36960, Note_on_c, 0, 76, 0
2, 36960, Note_on_c, 0, 73, 0
2, 36960, Note_on_c, 0, 67, 0
2, 36960, Note_on_c, 0, 65, 87
2, 36960, Note_on_c, 0, 74, 87
2, 37200, Note_on_c, 0, 74, 0
2, 37200, Note_on_c, 0, 65, 0
2, 37200, Note_on_c, 0, 73, 87
2, 37200, Note_on_c, 0, 76, 87
2, 37200, Note_on_c, 0, 82, 87
2, 37440, Note_on_c, 0, 82, 0
2, 37440, Note_on_c, 0, 76, 0
2, 37440, Note_on_c, 0, 73, 0
2, 37440, Note_on_c, 0, 74, 87
2, 37440, Note_on_c, 0, 77, 87
2, 37440, Note_on_c, 0, 81, 87
2, 37680, Note_on_c, 0, 81, 0
2, 37680, Note_on_c, 0, 77, 0
2, 37680, Note_on_c, 0, 74, 0
2, 37680, Note_on_c, 0, 69, 87
2, 37680, Note_on_c, 0, 72, 87
2, 37680, Note_on_c, 0, 79, 87
2, 37920, Note_on_c, 0, 79, 0
2, 37920, Note_on_c, 0, 72, 0
2, 37920, Note_on_c, 0, 69, 0
2, 37920, Note_on_c, 0, 69, 87
2, 37920, Note_on_c, 0, 74, 87
2, 37920, Note_on_c, 0, 78, 87
2, 38160, Note_on_c, 0, 78, 0
2, 38160, Note_on_c, 0, 74, 0
2, 38160, Note_on_c, 0, 69, 0
2, 38160, Note_on_c, 0, 78, 100
2, 38160, Note_on_c, 0, 81, 100
2, 38160, Note_on_c, 0, 87, 100
2, 38400, Note_on_c, 0, 87, 0
2, 38400, Note_on_c, 0, 81, 0
2, 38400, Note_on_c, 0, 78, 0
2, 38400, Note_on_c, 0, 79, 100
2, 38400, Note_on_c, 0, 82, 100
2, 38400, Note_on_c, 0, 86, 100
2, 38640, Note_on_c, 0, 86, 0
2, 38640, Note_on_c, 0, 82, 0
2, 38640, Note_on_c, 0, 79, 0
2, 38640, Note_on_c, 0, 74, 100
2, 38640, Note_on_c, 0, 77, 100
2, 38640, Note_on_c, 0, 84, 100
2, 38880, Note_on_c, 0, 84, 0
2, 38880, Note_on_c, 0, 77, 0
2, 38880, Note_on_c, 0, 74, 0
2, 38880, Note_on_c, 0, 74, 100
2, 38880, Note_on_c, 0, 77, 100
2, 38880, Note_on_c, 0, 83, 100
2, 39120, Note_on_c, 0, 83, 0
2, 39120, Note_on_c, 0, 77, 0
2, 39120, Note_on_c, 0, 74, 0
2, 39120, Note_on_c, 0, 71, 100
2, 39120, Note_on_c, 0, 74, 100
2, 39120, Note_on_c, 0, 81, 100
2, 39360, Note_on_c, 0, 81, 0
2, 39360, Note_on_c, 0, 74, 0
2, 39360, Note_on_c, 0, 71, 0
2, 39360, Note_on_c, 0, 71, 100
2, 39360, Note_on_c, 0, 76, 100
2, 39360, Note_on_c, 0, 80, 100
2, 39600, Note_on_c, 0, 80, 0
2, 39600, Note_on_c, 0, 76, 0
2, 39600, Note_on_c, 0, 71, 0
2, 39720, Note_on_c, 0, 64, 61
2, 39743, Note_on_c, 0, 64, 0
2, 39780, Note_on_c, 0, 68, 61
2, 39840, Note_on_c, 0, 68, 0
2, 39840, Note_on_c, 0, 66, 61
2, 39960, Note_on_c, 0, 66, 0
2, 39960, Note_on_c, 0, 64, 61
2, 40080, Note_on_c, 0, 64, 0
2, 40080, Note_on_c, 0, 66, 61
2, 40103, Note_on_c, 0, 66, 0
2, 40200, Note_on_c, 0, 68, 61
2, 40223, Note_on_c, 0, 68, 0
2, 40320, Note_on_c, 0, 64, 61
2, 40320, Note_on_c, 0, 69, 61
2, 40800, Note_on_c, 0, 69, 0
2, 40800, Note_on_c, 0, 64, 0
2, 40800, Note_on_c, 0, 76, 61
2, 41040, Note_on_c, 0, 76, 0
2, 41040, Note_on_c, 0, 69, 61
2, 41280, Note_on_c, 0, 69, 0
2, 41280, Note_on_c, 0, 68, 61
2, 41520, Note_on_c, 0, 68, 0
2, 41520, Note_on_c, 0, 71, 61
2, 41640, Note_on_c, 0, 69, 61
2, 41700, Note_on_c, 0, 69, 0
2, 41700, Note_on_c, 0, 71, 61
2, 41760, Note_on_c, 0, 71, 0
2, 41760, Note_on_c, 0, 71, 0
2, 41760, Note_on_c, 0, 69, 87
2, 42120, Note_on_c, 0, 69, 0
2, 42120, Note_on_c, 0, 68, 61
2, 42240, Note_on_c, 0, 68, 0
2, 42240, Note_on_c, 0, 69, 61
2, 42720, Note_on_c, 0, 69, 0
2, 42720, Note_on_c, 0, 77, 87
2, 43200, Note_on_c, 0, 77, 0
2, 43200, Note_on_c, 0, 68, 61
2, 43560, Note_on_c, 0, 68, 0
2, 43560, Note_on_c, 0, 66, 61
2, 43680, Note_on_c, 0, 66, 0
2, 43680, Note_on_c, 0, 68, 61
2, 43920, Note_on_c, 0, 68, 0
2, 43920, Note_on_c, 0, 69, 61
2, 44160, Note_on_c, 0, 69, 0
2, 44160, Control_c, 0, 64, 127
2, 44160, Note_on_c, 0, 71, 61
2, 44280, Note_on_c, 0, 71, 0
2, 44280, Note_on_c, 0, 72, 61
2, 44400, Note_on_c, 0, 72, 0
2, 44400, Note_on_c, 0, 74, 61
2, 44520, Note_on_c, 0, 74, 0
2, 44520, Control_c, 0, 64, 0
2, 44520, Note_on_c, 0, 71, 61
2, 44640, Note_on_c, 0, 71, 0
2, 44640, Note_on_c, 0, 68, 87
2, 45000, Note_on_c, 0, 68, 0
2, 45000, Note_on_c, 0, 67, 61
2, 45060, Note_on_c, 0, 67, 0
2, 45060, Note_on_c, 0, 68, 61
2, 45120, Note_on_c, 0, 68, 0
2, 45120, Note_on_c, 0, 69, 61
2, 45360, Note_on_c, 0, 69, 0
2, 45600, Note_on_c, 0, 69, 87
2, 45600, Note_on_c, 0, 72, 87
2, 45600, Note_on_c, 0, 76, 87
2, 45600, Note_on_c, 0, 81, 87
2, 45840, Note_on_c, 0, 81, 0
2, 45840, Note_on_c, 0, 69, 0
2, 45840, Note_on_c, 0, 72, 0
2, 45840, Note_on_c, 0, 76, 0
2, 46020, Note_on_c, 0, 77, 87
2, 46020, Note_on_c, 0, 81, 87
2, 46080, Note_on_c, 0, 81, 0
2, 46080, Note_on_c, 0, 77, 0
2, 46080, Note_on_c, 0, 67, 87
2, 46080, Note_on_c, 0, 72, 87
2, 46080, Note_on_c, 0, 76, 87
2, 46080, Note_on_c, 0, 79, 87
2, 46440, Note_on_c, 0, 79, 0
2, 46440, Note_on_c, 0, 67, 0
2, 46440, Note_on_c, 0, 72, 0
2, 46440, Note_on_c, 0, 76, 0
2, 46440, Note_on_c, 0, 77, 87
2, 46440, Note_on_c, 0, 81, 87
2, 46479, Note_on_c, 0, 81, 0
2, 46479, Note_on_c, 0, 77, 0
2, 46479, Note_on_c, 0, 76, 87
2, 46479, Note_on_c, 0, 79, 87
2, 46520, Note_on_c, 0, 79, 0
2, 46520, Note_on_c, 0, 76, 0
2, 46520, Note_on_c, 0, 75, 87
2, 46520, Note_on_c, 0, 78, 87
2, 46560, Note_on_c, 0, 78, 0
2, 46560, Note_on_c, 0, 75, 0
2, 46560, Note_on_c, 0, 76, 87
2, 46560, Note_on_c, 0, 79, 87
2, 46800, Note_on_c, 0, 79, 0
2, 46800, Note_on_c, 0, 76, 0
2, 46800, Note_on_c, 0, 72, 87
2, 46800, Note_on_c, 0, 76, 87
2, 46847, Note_on_c, 0, 76, 0
2, 46847, Note_on_c, 0, 72, 0
2, 47040, Note_on_c, 0, 67, 87
2, 47040, Note_on_c, 0, 71, 87
2, 47040, Note_on_c, 0, 74, 87
2, 47160, Note_on_c, 0, 74, 0
2, 47160, Note_on_c, 0, 71, 0
2, 47160, Note_on_c, 0, 67, 0
2, 47160, Note_on_c, 0, 72, 87
2, 47160, Note_on_c, 0, 76, 87
2, 47280, Note_on_c, 0, 76, 0
2, 47280, Note_on_c, 0, 72, 0
2, 47280, Note_on_c, 0, 74, 87
2, 47280, Note_on_c, 0, 77, 87
2, 47303, Note_on_c, 0, 77, 0
2, 47303, Note_on_c, 0, 74, 0
2, 47400, Note_on_c, 0, 76, 87
2, 47400, Note_on_c, 0, 79, 87
2, 47423, Note_on_c, 0, 79, 0
2, 47423, Note_on_c, 0, 76, 0
2, 47520, Note_on_c, 0, 67, 87
2, 47520, Note_on_c, 0, 72, 87
2, 47520, Note_on_c, 0, 76, 87
2, 47760, Note_on_c, 0, 76, 0
2, 47760, Note_on_c, 0, 72, 0
2, 47760, Note_on_c, 0, 67, 0
2, 47760, Note_on_c, 0, 71, 87
2, 47760, Note_on_c, 0, 72, 87
2, 47760, Note_on_c, 0, 79, 87
2, 48000, Note_on_c, 0, 79, 0
2, 48000, Note_on_c, 0, 72, 0
2, 48000, Note_on_c, 0, 71, 0
2, 48000, Note_on_c, 0, 69, 87
2, 48000, Note_on_c, 0, 72, 87
2, 48000, Note_on_c, 0, 77, 87
2, 48240, Note_on_c, 0, 77, 0
2, 48240, Note_on_c, 0, 72, 0
2, 48240, Note_on_c, 0, 69, 0
2, 48240, Note_on_c, 0, 67, 87
2, 48240, Note_on_c, 0, 73, 87
2, 48240, Note_on_c, 0, 76, 87
2, 48480, Note_on_c, 0, 76, 0
2, 48480, Note_on_c, 0, 73, 0
2, 48480, Note_on_c, 0, 67, 0
2, 48480, Note_on_c, 0, 65, 87
2, 48480, Note_on_c, 0, 74, 87
2, 48720, Note_on_c, 0, 74, 0
2, 48720, Note_on_c, 0, 65, 0
2, 48720, Note_on_c, 0, 73, 87
2, 48720, Note_on_c, 0, 76, 87
2, 48720, Note_on_c, 0, 82, 87
2, 48960, Note_on_c, 0, 82, 0
2, 48960, Note_on_c, 0, 76, 0
2, 48960, Note_on_c, 0, 73, 0
2, 48960, Note_on_c, 0, 74, 87
2, 48960, Note_on_c, 0, 77, 87
2, 48960, Note_on_c, 0, 81, 87
2, 49560, Note_on_c, 0, 81, 0
2, 49560, Note_on_c, 0, 77, 0
2, 49560, Note_on_c, 0, 74, 0
2, 49560, Note_on_c, 0, 70, 87
2, 49560, Note_on_c, 0, 76, 87
2, 49560, Note_on_c, 0, 79, 87
2, 49680, Note_on_c, 0, 79, 0
2, 49680, Note_on_c, 0, 76, 0
2, 49680, Note_on_c, 0, 70, 0
2, 49680, Note_on_c, 0, 69, 87
2, 49680, Note_on_c, 0, 74, 87
2, 49680, Note_on_c, 0, 77, 87
2, 49703, Note_on_c, 0, 77, 0
2, 49703, Note_on_c, 0, 74, 0
2, 49703, Note_on_c, 0, 69, 0
2, 49800, Note_on_c, 0, 67, 87
2, 49800, Note_on_c, 0, 73, 87
2, 49800, Note_on_c, 0, 76, 87
2, 49823, Note_on_c, 0, 76, 0
2, 49823, Note_on_c, 0, 73, 0
2, 49823, Note_on_c, 0, 67, 0
2, 49920, Note_on_c, 0, 65, 113
2, 49920, Note_on_c, 0, 69, 113
2, 49920, Note_on_c, 0, 74, 113
2, 50400, Note_on_c, 0, 69, 0
2, 50400, Note_on_c, 0, 65, 0
2, 50520, Note_on_c, 0, 74, 0
2, 50520, Note_on_c, 0, 76, 87
2, 50640, Note_on_c, 0, 76, 0
2, 50640, Note_on_c, 0, 74, 87
2, 50663, Note_on_c, 0, 74, 0
2, 50760, Note_on_c, 0, 72, 87
2, 50783, Note_on_c, 0, 72, 0
2, 50880, Note_on_c, 0, 71, 87
2, 51000, Note_on_c, 0, 71, 0
2, 51000, Note_on_c, 0, 72, 87
2, 51120, Note_on_c, 0, 72, 0
2, 51120, Note_on_c, 0, 71, 87
2, 51143, Note_on_c, 0, 71, 0
2, 51240, Note_on_c, 0, 69, 87
2, 51263, Note_on_c, 0, 69, 0
2, 51360, Note_on_c, 0, 68, 87
2, 51407, Note_on_c, 0, 68, 0
2, 52080, Note_on_c, 0, 71, 61
2, 52127, Note_on_c, 0, 71, 0
2, 52320, Note_on_c, 0, 76, 61
2, 52440, Note_on_c, 0, 76, 0
2, 52440, Note_on_c, 0, 75, 61
2, 52560, Note_on_c, 0, 75, 0
2, 52560, Note_on_c, 0, 76, 61
2, 52583, Note_on_c, 0, 76, 0
2, 52680, Note_on_c, 0, 74, 61
2, 52703, Note_on_c, 0, 74, 0
2, 52800, Note_on_c, 0, 81, 74
2, 52920, Note_on_c, 0, 81, 0
2, 52920, Note_on_c, 0, 80, 74
2, 53040, Note_on_c, 0, 80, 0
2, 53040, Note_on_c, 0, 81, 74
2, 53063, Note_on_c, 0, 81, 0
2, 53160, Note_on_c, 0, 79, 74
2, 53183, Note_on_c, 0, 79, 0
2, 53280, Note_on_c, 0, 77, 87
2, 53520, Note_on_c, 0, 77, 0
2, 53520, Note_on_c, 0, 76, 87
2, 53760, Note_on_c, 0, 76, 0
2, 53760, Note_on_c, 0, 81, 87
2, 53880, Note_on_c, 0, 81, 0
2, 53880, Note_on_c, 0, 80, 87
2, 54000, Note_on_c, 0, 80, 0
2, 54000, Note_on_c, 0, 81, 74
2, 54023, Note_on_c, 0, 81, 0
2, 54120, Note_on_c, 0, 79, 74
2, 54143, Note_on_c, 0, 79, 0
2, 54240, Note_on_c, 0, 74, 74
2, 54240, Note_on_c, 0, 86, 74
2, 54360, Note_on_c, 0, 86, 0
2, 54360, Note_on_c, 0, 74, 0
2, 54360, Note_on_c, 0, 73, 74
2, 54360, Note_on_c, 0, 85, 74
2, 54480, Note_on_c, 0, 85, 0
2, 54480, Note_on_c, 0, 73, 0
2, 54480, Note_on_c, 0, 74, 87
2, 54480, Note_on_c, 0, 86, 87
2, 54503, Note_on_c, 0, 86, 0
2, 54503, Note_on_c, 0, 74, 0
2, 54600, Note_on_c, 0, 72, 87
2, 54600, Note_on_c, 0, 84, 87
2, 54623, Note_on_c, 0, 84, 0
2, 54623, Note_on_c, 0, 72, 0
2, 54720, Note_on_c, 0, 71, 87
2, 54720, Note_on_c, 0, 74, 87
2, 54720, Note_on_c, 0, 79, 87
2, 54720, Note_on_c, 0, 83, 87
2, 55080, Note_on_c, 0, 83, 0
2, 55080, Note_on_c, 0, 71, 0
2, 55080, Note_on_c, 0, 74, 0
2, 55080, Note_on_c, 0, 79, 0
2, 55080, Control_c, 0, 64, 127
2, 55080, Note_on_c, 0, 81, 87
2, 55080, Note_on_c, 0, 84, 87
2, 55119, Note_on_c, 0, 84, 0
2, 55119, Note_on_c, 0, 81, 0
2, 55119, Note_on_c, 0, 79, 87
2, 55119, Note_on_c, 0, 83, 87
2, 55160, Note_on_c, 0, 83, 0
2, 55160, Note_on_c, 0, 79, 0
2, 55160, Note_on_c, 0, 78, 87
2, 55160, Note_on_c, 0, 82, 87
2, 55200, Note_on_c, 0, 82, 0
2, 55200, Note_on_c, 0, 78, 0
2, 55200, Control_c, 0, 64, 0
2, 55200, Note_on_c, 0, 74, 87
2, 55200, Note_on_c, 0, 79, 87
2, 55200, Note_on_c, 0, 83, 87
2, 55440, Note_on_c, 0, 83, 0
2, 55440, Note_on_c, 0, 79, 0
2, 55440, Note_on_c, 0, 74, 0
2, 55440, Note_on_c, 0, 74, 87
2, 55440, Note_on_c, 0, 76, 87
2, 55440, Note_on_c, 0, 79, 87
2, 55487, Note_on_c, 0, 79, 0
2, 55487, Note_on_c, 0, 76, 0
2, 55487, Note_on_c, 0, 74, 0
2, 55680, Note_on_c, 0, 74, 87
2, 55680, Note_on_c, 0, 78, 87
2, 55680, Note_on_c, 0, 81, 87
2, 55800, Note_on_c, 0, 81, 0
2, 55800, Note_on_c, 0, 78, 0
2, 55800, Note_on_c, 0, 74, 0
2, 55800, Note_on_c, 0, 79, 87
2, 55800, Note_on_c, 0, 83, 87
2, 55920, Note_on_c, 0, 83, 0
2, 55920, Note_on_c, 0, 79, 0
2, 55920, Note_on_c, 0, 81, 113
2, 55920, Note_on_c, 0, 84, 113
2, 56040, Note_on_c, 0, 84, 0
2, 56040, Note_on_c, 0, 81, 0
2, 56040, Note_on_c, 0, 83, 113
2, 56040, Note_on_c, 0, 86, 113
2, 56160, Note_on_c, 0, 86, 0
2, 56160, Note_on_c, 0, 83, 0
2, 56160, Note_on_c, 0, 71, 87
2, 56160, Note_on_c, 0, 79, 87
2, 56280, Note_on_c, 0, 79, 0
2, 56280, Note_on_c, 0, 71, 0
2, 56280, Note_on_c, 0, 72, 87
2, 56280, Note_on_c, 0, 81, 87
2, 56400, Note_on_c, 0, 81, 0
2, 56400, Note_on_c, 0, 72, 0
2, 56400, Note_on_c, 0, 71, 87
2, 56400, Note_on_c, 0, 79, 87
2, 56423, Note_on_c, 0, 79, 0
2, 56423, Note_on_c, 0, 71, 0
2, 56520, Note_on_c, 0, 69, 87
2, 56520, Note_on_c, 0, 77, 87
2, 56543, Note_on_c, 0, 77, 0
2, 56543, Note_on_c, 0, 69, 0
2, 56640, Note_on_c, 0, 67, 87
2, 56640, Note_on_c, 0, 76, 87
2, 56663, Note_on_c, 0, 76, 0
2, 56663, Note_on_c, 0, 67, 0
2, 56760, Note_on_c, 0, 67, 87
2, 56760, Note_on_c, 0, 71, 87
2, 56783, Note_on_c, 0, 71, 0
2, 56783, Note_on_c, 0, 67, 0
2, 56880, Note_on_c, 0, 69, 87
2, 56880, Note_on_c, 0, 72, 87
2, 56903, Note_on_c, 0, 72, 0
2, 56903, Note_on_c, 0, 69, 0
2, 57000, Note_on_c, 0, 71, 87
2, 57000, Note_on_c, 0, 74, 87
2, 57023, Note_on_c, 0, 74, 0
2, 57023, Note_on_c, 0, 71, 0
2, 57120, Note_on_c, 0, 72, 87
2, 57120, Note_on_c, 0, 76, 87
2, 57143, Note_on_c, 0, 76, 0
2, 57143, Note_on_c, 0, 72, 0
2, 57240, Note_on_c, 0, 74, 87
2, 57240, Note_on_c, 0, 77, 87
2, 57263, Note_on_c, 0, 77, 0
2, 57263, Note_on_c, 0, 74, 0
2, 57360, Note_on_c, 0, 76, 87
2, 57360, Note_on_c, 0, 79, 87
2, 57383, Note_on_c, 0, 79, 0
2, 57383, Note_on_c, 0, 76, 0
2, 57480, Note_on_c, 0, 77, 87
2, 57480, Note_on_c, 0, 81, 87
2, 57503, Note_on_c, 0, 81, 0
2, 57503, Note_on_c, 0, 77, 0
2, 57600, Note_on_c, 0, 67, 87
2, 57600, Note_on_c, 0, 72, 87
2, 57600, Note_on_c, 0, 76, 87
2, 57600, Note_on_c, 0, 79, 87
2, 57960, Note_on_c, 0, 79, 0
2, 57960, Note_on_c, 0, 67, 0
2, 57960, Note_on_c, 0, 72, 0
2, 57960, Note_on_c, 0, 76, 0
2, 57960, Control_c, 0, 64, 127
2, 57960, Note_on_c, 0, 77, 87
2, 57960, Note_on_c, 0, 81, 87
2, 57999, Note_on_c, 0, 81, 0
2, 57999, Note_on_c, 0, 77, 0
2, 57999, Note_on_c, 0, 76, 87
2, 57999, Note_on_c, 0, 79, 87
2, 58040, Note_on_c, 0, 79, 0
2, 58040, Note_on_c, 0, 76, 0
2, 58040, Note_on_c, 0, 75, 87
2, 58040, Note_on_c, 0, 78, 87
2, 58080, Note_on_c, 0, 78, 0
2, 58080, Note_on_c, 0, 75, 0
2, 58080, Control_c, 0, 64, 0
2, 58080, Note_on_c, 0, 72, 87
2, 58080, Note_on_c, 0, 76, 87
2, 58080, Note_on_c, 0, 79, 87
2, 58320, Note_on_c, 0, 79, 0
2, 58320, Note_on_c, 0, 76, 0
2, 58320, Note_on_c, 0, 72, 0
2, 58320, Note_on_c, 0, 67, 87
2, 58320, Note_on_c, 0, 72, 87
2, 58320, Note_on_c, 0, 76, 87
2, 58367, Note_on_c, 0, 76, 0
2, 58367, Note_on_c, 0, 72, 0
2, 58367, Note_on_c, 0, 67, 0
2, 58560, Note_on_c, 0, 67, 87
2, 58560, Note_on_c, 0, 71, 87
2, 58560, Note_on_c, 0, 74, 87
2, 58680, Note_on_c, 0, 74, 0
2, 58680, Note_on_c, 0, 71, 0
2, 58680, Note_on_c, 0, 67, 0
2, 58680, Note_on_c, 0, 72, 87
2, 58680, Note_on_c, 0, 76, 87
2, 58800, Note_on_c, 0, 76, 0
2, 58800, Note_on_c, 0, 72, 0
2, 58800, Note_on_c, 0, 74, 87
2, 58800, Note_on_c, 0, 77, 87
2, 58823, Note_on_c, 0, 77, 0
2, 58823, Note_on_c, 0, 74, 0
2, 58920, Note_on_c, 0, 76, 87
2, 58920, Note_on_c, 0, 79, 87
2, 58943, Note_on_c, 0, 79, 0
2, 58943, Note_on_c, 0, 76, 0
2, 59040, Note_on_c, 0, 67, 87
2, 59040, Note_on_c, 0, 72, 87
2, 59040, Note_on_c, 0, 76, 87
2, 59280, Note_on_c, 0, 76, 0
2, 59280, Note_on_c, 0, 72, 0
2, 59280, Note_on_c, 0, 67, 0
2, 59280, Note_on_c, 0, 71, 87
2, 59280, Note_on_c, 0, 72, 87
2, 59280, Note_on_c, 0, 79, 87
2, 59520, Note_on_c, 0, 79, 0
2, 59520, Note_on_c, 0, 72, 0
2, 59520, Note_on_c, 0, 71, 0
2, 59520, Note_on_c, 0, 69, 87
2, 59520, Note_on_c, 0, 72, 87
2, 59520, Note_on_c, 0, 77, 87
2, 59760, Note_on_c, 0, 77, 0
2, 59760, Note_on_c, 0, 72, 0
2, 59760, Note_on_c, 0, 69, 0
2, 59760, Note_on_c, 0, 67, 87
2, 59760, Note_on_c, 0, 73, 87
2, 59760, Note_on_c, 0, 76, 87
2, 60000, Note_on_c, 0, 76, 0
2, 60000, Note_on_c, 0, 73, 0
2, 60000, Note_on_c, 0, 67, 0
2, 60000, Note_on_c, 0, 65, 87
2, 60000, Note_on_c, 0, 74, 87
2, 60240, Note_on_c, 0, 74, 0
2, 60240, Note_on_c, 0, 65, 0
2, 60240, Note_on_c, 0, 73, 87
2, 60240, Note_on_c, 0, 76, 87
2, 60240, Note_on_c, 0, 82, 87
2, 60480, Note_on_c, 0, 82, 0
2, 60480, Note_on_c, 0, 76, 0
2, 60480, Note_on_c, 0, 73, 0
2, 60480, Note_on_c, 0, 74, 87
2, 60480, Note_on_c, 0, 77, 87
2, 60480, Note_on_c, 0, 81, 87
2, 60720, Note_on_c, 0, 81, 0
2, 60720, Note_on_c, 0, 77, 0
2, 60720, Note_on_c, 0, 74, 0
2, 60720, Note_on_c, 0, 69, 87
2, 60720, Note_on_c, 0, 72, 87
2, 60720, Note_on_c, 0, 79, 87
2, 60960, Note_on_c, 0, 79, 0
2, 60960, Note_on_c, 0, 72, 0
2, 60960, Note_on_c, 0, 69, 0
2, 60960, Note_on_c, 0, 69, 87
2, 60960, Note_on_c, 0, 74, 87
2, 60960, Note_on_c, 0, 78, 87
2, 61200, Note_on_c, 0, 78, 0
2, 61200, Note_on_c, 0, 74, 0
2, 61200, Note_on_c, 0, 69, 0
2, 61200, Note_on_c, 0, 78, 100
2, 61200, Note_on_c, 0, 81, 100
2, 61200, Note_on_c, 0, 87, 100
2, 61440, Note_on_c, 0, 87, 0
2, 61440, Note_on_c, 0, 81, 0
2, 61440, Note_on_c, 0, 78, 0
2, 61440, Note_on_c, 0, 79, 100
2, 61440, Note_on_c, 0, 82, 100
2, 61440, Note_on_c, 0, 86, 100
2, 61680, Note_on_c, 0, 86, 0
2, 61680, Note_on_c, 0, 82, 0
2, 61680, Note_on_c, 0, 79, 0
2, 61680, Note_on_c, 0, 74, 100
2, 61680, Note_on_c, 0, 77, 100
2, 61680, Note_on_c, 0, 84, 100
2, 61920, Note_on_c, 0, 84, 0
2, 61920, Note_on_c, 0, 77, 0
2, 61920, Note_on_c, 0, 74, 0
2, 61920, Note_on_c, 0, 74, 100
2, 61920, Note_on_c, 0, 77, 100
2, 61920, Note_on_c, 0, 83, 100
2, 62160, Note_on_c, 0, 83, 0
2, 62160, Note_on_c, 0, 77, 0
2, 62160, Note_on_c, 0, 74, 0
2, 62160, Note_on_c, 0, 71, 100
2, 62160, Note_on_c, 0, 74, 100
2, 62160, Note_on_c, 0, 81, 100
2, 62400, Note_on_c, 0, 81, 0
2, 62400, Note_on_c, 0, 74, 0
2, 62400, Note_on_c, 0, 71, 0
2, 62400, Note_on_c, 0, 71, 100
2, 62400, Note_on_c, 0, 76, 100
2, 62400, Note_on_c, 0, 80, 100
2, 62640, Note_on_c, 0, 80, 0
2, 62640, Note_on_c, 0, 76, 0
2, 62640, Note_on_c, 0, 71, 0
2, 62760, Note_on_c, 0, 64, 61
2, 62783, Note_on_c, 0, 64, 0
2, 62820, Note_on_c, 0, 68, 61
2, 62880, Note_on_c, 0, 68, 0
2, 62880, Note_on_c, 0, 66, 61
2, 63000, Note_on_c, 0, 66, 0
2, 63000, Note_on_c, 0, 64, 61
2, 63120, Note_on_c, 0, 64, 0
2, 63120, Note_on_c, 0, 66, 61
2, 63143, Note_on_c, 0, 66, 0
2, 63240, Note_on_c, 0, 68, 61
2, 63263, Note_on_c, 0, 68, 0
2, 63360, Note_on_c, 0, 64, 61
2, 63360, Note_on_c, 0, 69, 61
2, 63840, Note_on_c, 0, 69, 0
2, 63840, Note_on_c, 0, 64, 0
2, 63840, Note_on_c, 0, 76, 61
2, 64080, Note_on_c, 0, 76, 0
2, 64080, Note_on_c, 0, 69, 61
2, 64320, Note_on_c, 0, 69, 0
2, 64320, Note_on_c, 0, 68, 61
2, 64560, Note_on_c, 0, 68, 0
2, 64560, Note_on_c, 0, 71, 61
2, 64680, Note_on_c, 0, 69, 61
2, 64740, Note_on_c, 0, 69, 0
2, 64740, Note_on_c, 0, 71, 61
2, 64800, Note_on_c, 0, 71, 0
2, 64800, Note_on_c, 0, 71, 0
2, 64800, Note_on_c, 0, 69, 87
2, 65160, Note_on_c, 0, 69, 0
2, 65160, Note_on_c, 0, 68, 61
2, 65280, Note_on_c, 0, 68, 0
2, 65280, Note_on_c, 0, 69, 61
2, 65760, Note_on_c, 0, 69, 0
2, 65760, Note_on_c, 0, 77, 87
2, 66240, Note_on_c, 0, 77, 0
2, 66240, Note_on_c, 0, 68, 61
2, 66600, Note_on_c, 0, 68, 0
2, 66600, Note_on_c, 0, 66, 61
2, 66720, Note_on_c, 0, 66, 0
2, 66720, Note_on_c, 0, 68, 61
2, 66960, Note_on_c, 0, 68, 0
2, 66960, Note_on_c, 0, 69, 61
2, 67200, Note_on_c, 0, 69, 0
2, 67200, Control_c, 0, 64, 127
2, 67200, Note_on_c, 0, 71, 61
2, 67320, Note_on_c, 0, 71, 0
2, 67320, Note_on_c, 0, 72, 61
2, 67440, Note_on_c, 0, 72, 0
2, 67440, Note_on_c, 0, 74, 61
2, 67560, Note_on_c, 0, 74, 0
2, 67560, Control_c, 0, 64, 0
2, 67560, Note_on_c, 0, 71, 61
2, 67680, Note_on_c, 0, 71, 0
2, 67680, Note_on_c, 0, 68, 87
2, 68040, Note_on_c, 0, 68, 0
2, 68040, Note_on_c, 0, 67, 61
2, 68100, Note_on_c, 0, 67, 0
2, 68100, Note_on_c, 0, 68, 61
2, 68160, Note_on_c, 0, 68, 0
2, 68160, Note_on_c, 0, 69, 61
2, 68400, Note_on_c, 0, 69, 0
2, 68640, Note_on_c, 0, 69, 113
2, 68640, Note_on_c, 0, 72, 113
2, 68640, Note_on_c, 0, 76, 113
2, 68640, Note_on_c, 0, 81, 113
2, 68880, Note_on_c, 0, 81, 0
2, 68880, Note_on_c, 0, 69, 0
2, 68880, Note_on_c, 0, 72, 0
2, 68880, Note_on_c, 0, 76, 0
2, 68880, Control_c, 0, 64, 127
2, 71040, Control_c, 0, 64, 0
2, 71040, End_track
3, 0, Start_track
3, 0, Title_t, "Grand Piano"
3, 0, Program_c, 0, 0
3, 0, Control_c, 0, 7, 115
3, 0, Control_c, 0, 10, 80
3, 0, Note_on_c, 0, 60, 54
3, 240, Note_on_c, 0, 60, 0
3, 240, Note_on_c, 0, 59, 54
3, 480, Note_on_c, 0, 59, 0
3, 480, Note_on_c, 0, 64, 54
3, 960, Note_on_c, 0, 64, 0
3, 960, Note_on_c, 0, 62, 54
3, 1440, Note_on_c, 0, 62, 0
3, 1440, Note_on_c, 0, 60, 54
3, 2400, Note_on_c, 0, 60, 0
3, 2400, Note_on_c, 0, 69, 54
3, 2880, Note_on_c, 0, 69, 0
3, 2880, Note_on_c, 0, 62, 54
3, 2880, Note_on_c, 0, 71, 54
3, 3360, Note_on_c, 0, 71, 0
3, 3360, Note_on_c, 0, 62, 0
3, 3360, Note_on_c, 0, 62, 54
3, 3360, Note_on_c, 0, 64, 54
3, 3840, Note_on_c, 0, 64, 0
3, 3840, Note_on_c, 0, 62, 0
3, 3840, Note_on_c, 0, 60, 54
3, 4080, Note_on_c, 0, 60, 0
3, 4080, Note_on_c, 0, 57, 54
3, 4320, Note_on_c, 0, 57, 0
3, 4320, Note_on_c, 0, 65, 54
3, 4680, Note_on_c, 0, 65, 0
3, 4680, Note_on_c, 0, 67, 54
3, 4740, Note_on_c, 0, 67, 0
3, 4740, Note_on_c, 0, 65, 54
3, 4800, Note_on_c, 0, 65, 0
3, 4800, Note_on_c, 0, 64, 54
3, 5280, Note_on_c, 0, 64, 0
3, 5280, Note_on_c, 0, 64, 54
3, 5760, Note_on_c, 0, 64, 0
3, 5760, Note_on_c, 0, 64, 80
3, 6120, Note_on_c, 0, 64, 0
3, 6120, Note_on_c, 0, 65, 54
3, 6180, Note_on_c, 0, 65, 0
3, 6180, Note_on_c, 0, 64, 54
3, 6240, Note_on_c, 0, 64, 0
3, 6240, Note_on_c, 0, 62, 54
3, 6480, Note_on_c, 0, 62, 0
3, 6480, Note_on_c, 0, 62, 54
3, 6720, Note_on_c, 0, 62, 0
3, 6720, Note_on_c, 0, 62, 54
3, 7200, Note_on_c, 0, 62, 0
3, 7200, Note_on_c, 0, 62, 80
3, 7560, Note_on_c, 0, 62, 0
3, 7560, Note_on_c, 0, 64, 54
3, 7620, Note_on_c, 0, 64, 0
3, 7620, Note_on_c, 0, 62, 54
3, 7680, Note_on_c, 0, 62, 0
3, 7680, Note_on_c, 0, 60, 54
3, 7920, Note_on_c, 0, 60, 0
3, 7920, Note_on_c, 0, 60, 54
3, 7967, Note_on_c, 0, 60, 0
3, 8160, Note_on_c, 0, 60, 54
3, 8880, Note_on_c, 0, 60, 0
3, 8880, Note_on_c, 0, 59, 54
3, 8976, Note_on_c, 0, 59, 0
3, 9360, Note_on_c, 0, 65, 54
3, 9360, Note_on_c, 0, 68, 54
3, 9720, Note_on_c, 0, 68, 0
3, 9720, Note_on_c, 0, 65, 0
3, 9720, Note_on_c, 0, 64, 54
3, 9720, Note_on_c, 0, 69, 54
3, 9840, Note_on_c, 0, 69, 0
3, 9840, Note_on_c, 0, 64, 0
3, 9840, Note_on_c, 0, 62, 54
3, 9840, Note_on_c, 0, 65, 54
3, 9863, Note_on_c, 0, 65, 0
3, 9863, Note_on_c, 0, 62, 0
3, 9960, Note_on_c, 0, 60, 54
3, 9960, Note_on_c, 0, 64, 54
3, 9983, Note_on_c, 0, 64, 0
3, 9983, Note_on_c, 0, 60, 0
3, 10080, Note_on_c, 0, 65, 80
3, 10500, Note_on_c, 0, 65, 0
3, 10500, Note_on_c, 0, 67, 54
3, 10530, Note_on_c, 0, 67, 0
3, 10530, Note_on_c, 0, 65, 54
3, 10560, Note_on_c, 0, 65, 0
3, 11520, Note_on_c, 0, 60, 54
3, 11760, Note_on_c, 0, 60, 0
3, 11760, Note_on_c, 0, 59, 54
3, 12000, Note_on_c, 0, 59, 0
3, 12000, Note_on_c, 0, 64, 54
3, 12480, Note_on_c, 0, 64, 0
3, 12480, Note_on_c, 0, 62, 54
3, 12960, Note_on_c, 0, 62, 0
3, 12960, Note_on_c, 0, 60, 54
3, 13920, Note_on_c, 0, 60, 0
3, 13920, Note_on_c, 0, 69, 80
3, 14400, Note_on_c, 0, 69, 0
3, 14400, Note_on_c, 0, 62, 80
3, 14400, Note_on_c, 0, 71, 80
3, 14880, Note_on_c, 0, 71, 0
3, 14880, Note_on_c, 0, 62, 0
3, 14880, Note_on_c, 0, 62, 54
3, 14880, Note_on_c, 0, 64, 54
3, 15360, Note_on_c, 0, 64, 0
3, 15360, Note_on_c, 0, 62, 0
3, 15360, Note_on_c, 0, 60, 54
3, 15600, Note_on_c, 0, 60, 0
3, 15600, Note_on_c, 0, 57, 54
3, 15840, Note_on_c, 0, 57, 0
3, 15840, Note_on_c, 0, 65, 80
3, 16200, Note_on_c, 0, 65, 0
3, 16200, Note_on_c, 0, 67, 54
3, 16260, Note_on_c, 0, 67, 0
3, 16260, Note_on_c, 0, 65, 54
3, 16320, Note_on_c, 0, 65, 0
3, 16320, Note_on_c, 0, 64, 54
3, 16800, Note_on_c, 0, 64, 0
3, 16800, Note_on_c, 0, 64, 54
3, 17280, Note_on_c, 0, 64, 0
3, 17280, Note_on_c, 0, 64, 80
3, 17640, Note_on_c, 0, 64, 0
3, 17640, Note_on_c, 0, 65, 54
3, 17700, Note_on_c, 0, 65, 0
3, 17700, Note_on_c, 0, 64, 54
3, 17760, Note_on_c, 0, 64, 0
3, 17760, Note_on_c, 0, 62, 54
3, 18000, Note_on_c, 0, 62, 0
3, 18000, Note_on_c, 0, 62, 54
3, 18047, Note_on_c, 0, 62, 0
3, 18240, Note_on_c, 0, 62, 54
3, 18720, Note_on_c, 0, 62, 0
3, 18720, Note_on_c, 0, 62, 80
3, 19080, Note_on_c, 0, 62, 0
3, 19080, Note_on_c, 0, 64, 54
3, 19140, Note_on_c, 0, 64, 0
3, 19140, Note_on_c, 0, 62, 54
3, 19200, Note_on_c, 0, 62, 0
3, 19200, Note_on_c, 0, 60, 54
3, 19440, Note_on_c, 0, 60, 0
3, 19440, Note_on_c, 0, 60, 54
3, 19680, Note_on_c, 0, 60, 0
3, 19680, Note_on_c, 0, 60, 54
3, 20400, Note_on_c, 0, 60, 0
3, 20400, Note_on_c, 0, 59, 54
3, 20880, Note_on_c, 0, 59, 0
3, 20880, Note_on_c, 0, 65, 54
3, 20880, Note_on_c, 0, 68, 54
3, 21240, Note_on_c, 0, 68, 0
3, 21240, Note_on_c, 0, 65, 0
3, 21240, Note_on_c, 0, 64, 54
3, 21360, Note_on_c, 0, 64, 0
3, 21360, Note_on_c, 0, 62, 54
3, 21360, Note_on_c, 0, 65, 54
3, 21383, Note_on_c, 0, 65, 0
3, 21383, Note_on_c, 0, 62, 0
3, 21480, Note_on_c, 0, 60, 54
3, 21480, Note_on_c, 0, 64, 54
3, 21503, Note_on_c, 0, 64, 0
3, 21503, Note_on_c, 0, 60, 0
3, 21600, Note_on_c, 0, 65, 80
3, 22020, Note_on_c, 0, 65, 0
3, 22020, Note_on_c, 0, 67, 54
3, 22050, Note_on_c, 0, 67, 0
3, 22050, Note_on_c, 0, 65, 54
3, 22080, Note_on_c, 0, 65, 0
3, 27600, Note_on_c, 0, 64, 54
3, 27600, Note_on_c, 0, 69, 54
3, 27840, Note_on_c, 0, 69, 0
3, 27840, Note_on_c, 0, 64, 0
3, 27840, Note_on_c, 0, 59, 54
3, 27840, Note_on_c, 0, 65, 54
3, 28080, Note_on_c, 0, 65, 0
3, 28080, Note_on_c, 0, 59, 0
3, 28080, Note_on_c, 0, 59, 54
3, 28080, Note_on_c, 0, 66, 54
3, 28320, Note_on_c, 0, 66, 0
3, 28320, Note_on_c, 0, 59, 0
3, 28320, Note_on_c, 0, 59, 54
3, 28320, Note_on_c, 0, 64, 54
3, 28560, Note_on_c, 0, 64, 0
3, 28560, Note_on_c, 0, 59, 0
3, 28560, Note_on_c, 0, 59, 54
3, 28800, Note_on_c, 0, 59, 0
3, 28800, Note_on_c, 0, 64, 54
3, 28920, Note_on_c, 0, 64, 0
3, 28920, Note_on_c, 0, 63, 54
3, 29040, Note_on_c, 0, 63, 0
3, 29040, Note_on_c, 0, 64, 54
3, 29063, Note_on_c, 0, 64, 0
3, 29160, Note_on_c, 0, 62, 54
3, 29183, Note_on_c, 0, 62, 0
3, 29280, Note_on_c, 0, 69, 54
3, 29520, Note_on_c, 0, 69, 0
3, 29520, Note_on_c, 0, 68, 54
3, 29760, Note_on_c, 0, 68, 0
3, 29760, Note_on_c, 0, 69, 67
3, 29760, Note_on_c, 0, 72, 67
3, 29760, Note_on_c, 0, 76, 67
3, 30000, Note_on_c, 0, 76, 0
3, 30000, Note_on_c, 0, 72, 0
3, 30000, Note_on_c, 0, 69, 0
3, 30240, Note_on_c, 0, 69, 80
3, 30360, Note_on_c, 0, 69, 0
3, 30360, Note_on_c, 0, 68, 80
3, 30480, Note_on_c, 0, 68, 0
3, 30480, Note_on_c, 0, 69, 80
3, 30503, Note_on_c, 0, 69, 0
3, 30600, Note_on_c, 0, 67, 80
3, 30623, Note_on_c, 0, 67, 0
3, 30720, Note_on_c, 0, 74, 80
3, 30960, Note_on_c, 0, 74, 0
3, 30960, Note_on_c, 0, 73, 80
3, 31200, Note_on_c, 0, 73, 0
3, 39840, Note_on_c, 0, 64, 54
3, 40080, Note_on_c, 0, 64, 0
3, 40080, Note_on_c, 0, 62, 54
3, 40320, Note_on_c, 0, 62, 0
3, 40320, Note_on_c, 0, 60, 54
3, 40560, Note_on_c, 0, 60, 0
3, 40560, Note_on_c, 0, 59, 54
3, 40800, Note_on_c, 0, 59, 0
3, 40800, Note_on_c, 0, 64, 54
3, 41280, Note_on_c, 0, 64, 0
3, 41280, Note_on_c, 0, 62, 54
3, 41760, Note_on_c, 0, 62, 0
3, 41760, Note_on_c, 0, 60, 80
3, 42120, Note_on_c, 0, 60, 0
3, 42120, Note_on_c, 0, 62, 54
3, 42240, Note_on_c, 0, 62, 0
3, 42240, Note_on_c, 0, 60, 54
3, 42720, Note_on_c, 0, 60, 0
3, 42720, Note_on_c, 0, 65, 80
3, 42720, Note_on_c, 0, 70, 80
3, 43200, Note_on_c, 0, 70, 0
3, 43200, Note_on_c, 0, 65, 0
3, 43200, Note_on_c, 0, 62, 54
3, 43200, Note_on_c, 0, 64, 54
3, 43920, Note_on_c, 0, 64, 0
3, 43920, Note_on_c, 0, 62, 0
3, 43920, Note_on_c, 0, 60, 54
3, 43920, Note_on_c, 0, 64, 54
3, 44160, Note_on_c, 0, 64, 0
3, 44160, Note_on_c, 0, 60, 0
3, 44160, Note_on_c, 0, 65, 54
3, 44160, Note_on_c, 0, 71, 54
3, 44640, Note_on_c, 0, 71, 0
3, 44640, Note_on_c, 0, 65, 0
3, 44640, Note_on_c, 0, 62, 80
3, 45120, Note_on_c, 0, 62, 0
3, 45120, Note_on_c, 0, 60, 54
3, 45120, Note_on_c, 0, 64, 54
3, 45360, Note_on_c, 0, 64, 0
3, 45360, Note_on_c, 0, 60, 0
3, 50640, Note_on_c, 0, 64, 54
3, 50640, Note_on_c, 0, 69, 54
3, 50880, Note_on_c, 0, 69, 0
3, 50880, Note_on_c, 0, 64, 0
3, 50880, Note_on_c, 0, 59, 54
3, 50880, Note_on_c, 0, 65, 54
3, 51120, Note_on_c, 0, 65, 0
3, 51120, Note_on_c, 0, 59, 0
3, 51120, Note_on_c, 0, 59, 54
3, 51120, Note_on_c, 0, 66, 54
3, 51360, Note_on_c, 0, 66, 0
3, 51360, Note_on_c, 0, 59, 0
3, 51360, Note_on_c, 0, 59, 54
3, 51360, Note_on_c, 0, 64, 54
3, 51600, Note_on_c, 0, 64, 0
3, 51600, Note_on_c, 0, 59, 0
3, 51600, Note_on_c, 0, 59, 54
3, 51840, Note_on_c, 0, 59, 0
3, 51840, Note_on_c, 0, 64, 54
3, 51960, Note_on_c, 0, 64, 0
3, 51960, Note_on_c, 0, 63, 54
3, 52080, Note_on_c, 0, 63, 0
3, 52080, Note_on_c, 0, 64, 54
3, 52103, Note_on_c, 0, 64, 0
3, 52200, Note_on_c, 0, 62, 54
3, 52223, Note_on_c, 0, 62, 0
3, 52320, Note_on_c, 0, 69, 54
3, 52560, Note_on_c, 0, 69, 0
3, 52560, Note_on_c, 0, 68, 54
3, 52800, Note_on_c, 0, 68, 0
3, 52800, Note_on_c, 0, 69, 67
3, 52800, Note_on_c, 0, 76, 67
3, 53040, Note_on_c, 0, 76, 0
3, 53040, Note_on_c, 0, 69, 0
3, 53280, Note_on_c, 0, 69, 80
3, 53400, Note_on_c, 0, 69, 0
3, 53400, Note_on_c, 0, 68, 80
3, 53520, Note_on_c, 0, 68, 0
3, 53520, Note_on_c, 0, 69, 80
3, 53543, Note_on_c, 0, 69, 0
3, 53640, Note_on_c, 0, 67, 80
3, 53663, Note_on_c, 0, 67, 0
3, 53760, Note_on_c, 0, 74, 80
3, 54000, Note_on_c, 0, 74, 0
3, 54000, Note_on_c, 0, 73, 80
3, 54240, Note_on_c, 0, 73, 0
3, 62880, Note_on_c, 0, 64, 54
3, 63120, Note_on_c, 0, 64, 0
3, 63120, Note_on_c, 0, 62, 54
3, 63360, Note_on_c, 0, 62, 0
3, 63360, Note_on_c, 0, 60, 54
3, 63600, Note_on_c, 0, 60, 0
3, 63600, Note_on_c, 0, 59, 54
3, 63840, Note_on_c, 0, 59, 0
3, 63840, Note_on_c, 0, 64, 54
3, 64320, Note_on_c, 0, 64, 0
3, 64320, Note_on_c, 0, 62, 54
3, 64800, Note_on_c, 0, 62, 0
3, 64800, Note_on_c, 0, 60, 80
3, 65160, Note_on_c, 0, 60, 0
3, 65160, Note_on_c, 0, 62, 54
3, 65280, Note_on_c, 0, 62, 0
3, 65280, Note_on_c, 0, 60, 54
3, 65760, Note_on_c, 0, 60, 0
3, 65760, Note_on_c, 0, 65, 80
3, 65760, Note_on_c, 0, 70, 80
3, 66240, Note_on_c, 0, 70, 0
3, 66240, Note_on_c, 0, 65, 0
3, 66240, Note_on_c, 0, 62, 54
3, 66240, Note_on_c, 0, 64, 54
3, 66960, Note_on_c, 0, 64, 0
3, 66960, Note_on_c, 0, 62, 0
3, 66960, Note_on_c, 0, 60, 54
3, 66960, Note_on_c, 0, 64, 54
3, 67200, Note_on_c, 0, 64, 0
3, 67200, Note_on_c, 0, 60, 0
3, 67200, Note_on_c, 0, 65, 54
3, 67200, Note_on_c, 0, 71, 54
3, 67680, Note_on_c, 0, 71, 0
3, 67680, Note_on_c, 0, 65, 0
3, 67680, Note_on_c, 0, 62, 80
3, 68160, Note_on_c, 0, 62, 0
3, 68160, Note_on_c, 0, 60, 54
3, 68160, Note_on_c, 0, 64, 54
3, 68400, Note_on_c, 0, 64, 0
3, 68400, Note_on_c, 0, 60, 0
3, 68400, End_track
4, 0, Start_track
4, 0, Title_t, "Grand Piano"
4, 0, Program_c, 0, 0
4, 0, Control_c, 0, 7, 115
4, 0, Control_c, 0, 10, 41
4, 480, Note_on_c, 0, 57, 49
4, 960, Note_on_c, 0, 57, 0
4, 960, Note_on_c, 0, 59, 49
4, 1200, Note_on_c, 0, 59, 0
4, 1200, Note_on_c, 0, 56, 49
4, 1440, Note_on_c, 0, 56, 0
4, 1440, Note_on_c, 0, 57, 49
4, 2400, Note_on_c, 0, 57, 0
4, 2400, Note_on_c, 0, 57, 49
4, 2400, Note_on_c, 0, 62, 49
4, 2880, Note_on_c, 0, 62, 0
4, 2880, Note_on_c, 0, 57, 0
4, 2880, Note_on_c, 0, 52, 49
4, 4320, Note_on_c, 0, 52, 0
4, 4320, Note_on_c, 0, 57, 75
4, 4800, Note_on_c, 0, 57, 0
4, 4800, Note_on_c, 0, 56, 49
4, 5040, Note_on_c, 0, 56, 0
4, 5040, Note_on_c, 0, 56, 49
4, 5280, Note_on_c, 0, 56, 0
4, 5280, Note_on_c, 0, 57, 49
4, 5760, Note_on_c, 0, 57, 0
4, 5760, Note_on_c, 0, 57, 75
4, 6360, Note_on_c, 0, 57, 0
4, 6360, Note_on_c, 0, 56, 49
4, 6480, Note_on_c, 0, 56, 0
4, 6480, Note_on_c, 0, 57, 49
4, 6503, Note_on_c, 0, 57, 0
4, 6600, Note_on_c, 0, 56, 49
4, 6623, Note_on_c, 0, 56, 0
4, 6720, Note_on_c, 0, 55, 49
4, 7200, Note_on_c, 0, 55, 0
4, 7200, Note_on_c, 0, 55, 75
4, 7800, Note_on_c, 0, 55, 0
4, 7800, Note_on_c, 0, 54, 49
4, 7920, Note_on_c, 0, 54, 0
4, 7920, Note_on_c, 0, 55, 49
4, 7943, Note_on_c, 0, 55, 0
4, 8040, Note_on_c, 0, 54, 49
4, 8063, Note_on_c, 0, 54, 0
4, 8160, Note_on_c, 0, 53, 49
4, 8760, Note_on_c, 0, 53, 0
4, 8760, Note_on_c, 0, 52, 49
4, 8880, Note_on_c, 0, 52, 0
4, 8880, Note_on_c, 0, 50, 49
4, 8903, Note_on_c, 0, 50, 0
4, 9000, Note_on_c, 0, 51, 49
4, 9023, Note_on_c, 0, 51, 0
4, 9120, Note_on_c, 0, 52, 49
4, 10080, Note_on_c, 0, 52, 0
4, 10080, Control_c, 0, 64, 127
4, 10080, Note_on_c, 0, 59, 75
4, 10320, Note_on_c, 0, 59, 0
4, 10320, Note_on_c, 0, 57, 49
4, 10500, Note_on_c, 0, 57, 0
4, 10500, Note_on_c, 0, 59, 49
4, 10530, Note_on_c, 0, 59, 0
4, 10530, Note_on_c, 0, 57, 49
4, 10560, Note_on_c, 0, 57, 0
4, 10560, Control_c, 0, 64, 0
4, 10560, Note_on_c, 0, 56, 49
4, 10800, Note_on_c, 0, 56, 0
4, 10800, Note_on_c, 0, 54, 49
4, 10823, Note_on_c, 0, 54, 0
4, 10920, Note_on_c, 0, 56, 49
4, 10943, Note_on_c, 0, 56, 0
4, 11040, Note_on_c, 0, 57, 49
4, 11160, Note_on_c, 0, 57, 0
4, 11160, Note_on_c, 0, 56, 49
4, 11280, Note_on_c, 0, 56, 0
4, 11280, Note_on_c, 0, 57, 49
4, 11303, Note_on_c, 0, 57, 0
4, 11400, Note_on_c, 0, 59, 49
4, 11423, Note_on_c, 0, 59, 0
4, 12000, Note_on_c, 0, 57, 49
4, 12480, Note_on_c, 0, 57, 0
4, 12480, Note_on_c, 0, 59, 49
4, 12720, Note_on_c, 0, 59, 0
4, 12720, Note_on_c, 0, 56, 49
4, 12960, Note_on_c, 0, 56, 0
4, 12960, Note_on_c, 0, 57, 49
4, 13920, Note_on_c, 0, 57, 0
4, 13920, Note_on_c, 0, 57, 75
4, 13920, Note_on_c, 0, 62, 75
4, 14400, Note_on_c, 0, 62, 0
4, 14400, Note_on_c, 0, 57, 0
4, 14400, Note_on_c, 0, 52, 49
4, 15840, Note_on_c, 0, 52, 0
4, 15840, Note_on_c, 0, 57, 75
4, 16320, Note_on_c, 0, 57, 0
4, 16320, Note_on_c, 0, 56, 49
4, 16560, Note_on_c, 0, 56, 0
4, 16560, Note_on_c, 0, 56, 75
4, 16800, Note_on_c, 0, 56, 0
4, 16800, Note_on_c, 0, 57, 49
4, 17280, Note_on_c, 0, 57, 0
4, 17280, Note_on_c, 0, 57, 75
4, 17880, Note_on_c, 0, 57, 0
4, 17880, Note_on_c, 0, 56, 49
4, 18000, Note_on_c, 0, 56, 0
4, 18000, Note_on_c, 0, 57, 49
4, 18023, Note_on_c, 0, 57, 0
4, 18120, Note_on_c, 0, 56, 49
4, 18143, Note_on_c, 0, 56, 0
4, 18240, Note_on_c, 0, 55, 49
4, 18720, Note_on_c, 0, 55, 0
4, 18720, Note_on_c, 0, 55, 75
4, 19320, Note_on_c, 0, 55, 0
4, 19320, Note_on_c, 0, 54, 49
4, 19440, Note_on_c, 0, 54, 0
4, 19440, Note_on_c, 0, 55, 49
4, 19463, Note_on_c, 0, 55, 0
4, 19560, Note_on_c, 0, 54, 49
4, 19583, Note_on_c, 0, 54, 0
4, 19680, Note_on_c, 0, 53, 49
4, 20280, Note_on_c, 0, 53, 0
4, 20280, Note_on_c, 0, 52, 49
4, 20400, Note_on_c, 0, 52, 0
4, 20400, Note_on_c, 0, 50, 49
4, 20423, Note_on_c, 0, 50, 0
4, 20520, Note_on_c, 0, 51, 49
4, 20543, Note_on_c, 0, 51, 0
4, 20640, Note_on_c, 0, 52, 49
4, 21600, Note_on_c, 0, 52, 0
4, 21600, Control_c, 0, 64, 127
4, 21600, Note_on_c, 0, 59, 75
4, 21840, Note_on_c, 0, 59, 0
4, 21840, Note_on_c, 0, 57, 49
4, 22020, Note_on_c, 0, 57, 0
4, 22020, Note_on_c, 0, 59, 49
4, 22050, Note_on_c, 0, 59, 0
4, 22050, Control_c, 0, 64, 0
4, 22050, Note_on_c, 0, 57, 49
4, 22080, Note_on_c, 0, 57, 0
4, 22080, Note_on_c, 0, 56, 49
4, 22320, Note_on_c, 0, 56, 0
4, 22320, Note_on_c, 0, 57, 49
4, 22343, Note_on_c, 0, 57, 0
4, 22440, Note_on_c, 0, 59, 49
4, 22463, Note_on_c, 0, 59, 0
4, 23040, Note_on_c, 0, 36, 75
4, 23040, Note_on_c, 0, 48, 75
4, 23760, Note_on_c, 0, 48, 0
4, 23760, Note_on_c, 0, 36, 0
4, 23760, Note_on_c, 0, 40, 75
4, 23760, Note_on_c, 0, 52, 75
4, 24000, Note_on_c, 0, 52, 0
4, 24000, Note_on_c, 0, 40, 0
4, 24000, Note_on_c, 0, 43, 75
4, 24000, Note_on_c, 0, 55, 75
4, 24480, Note_on_c, 0, 55, 0
4, 24480, Note_on_c, 0, 43, 0
4, 24480, Note_on_c, 0, 40, 75
4, 24480, Note_on_c, 0, 52, 75
4, 24720, Note_on_c, 0, 52, 0
4, 24720, Note_on_c, 0, 40, 0
4, 25200, Note_on_c, 0, 46, 75
4, 25200, Note_on_c, 0, 58, 75
4, 25440, Note_on_c, 0, 58, 0
4, 25440, Note_on_c, 0, 46, 0
4, 25440, Note_on_c, 0, 45, 75
4, 25440, Note_on_c, 0, 57, 75
4, 25680, Note_on_c, 0, 57, 0
4, 25680, Note_on_c, 0, 45, 0
4, 25680, Note_on_c, 0, 43, 75
4, 25680, Note_on_c, 0, 55, 75
4, 25920, Note_on_c, 0, 55, 0
4, 25920, Note_on_c, 0, 43, 0
4, 25920, Note_on_c, 0, 41, 75
4, 25920, Note_on_c, 0, 53, 75
4, 26040, Note_on_c, 0, 53, 0
4, 26040, Note_on_c, 0, 41, 0
4, 26040, Note_on_c, 0, 43, 75
4, 26040, Note_on_c, 0, 55, 75
4, 26160, Note_on_c, 0, 55, 0
4, 26160, Note_on_c, 0, 43, 0
4, 26160, Note_on_c, 0, 41, 75
4, 26160, Note_on_c, 0, 53, 75
4, 26183, Note_on_c, 0, 53, 0
4, 26183, Note_on_c, 0, 41, 0
4, 26280, Note_on_c, 0, 40, 75
4, 26280, Note_on_c, 0, 52, 75
4, 26303, Note_on_c, 0, 52, 0
4, 26303, Note_on_c, 0, 40, 0
4, 26400, Note_on_c, 0, 38, 101
4, 26400, Note_on_c, 0, 50, 101
4, 27000, Note_on_c, 0, 50, 0
4, 27000, Note_on_c, 0, 38, 0
4, 27000, Note_on_c, 0, 40, 75
4, 27000, Note_on_c, 0, 52, 75
4, 27120, Note_on_c, 0, 52, 0
4, 27120, Note_on_c, 0, 40, 0
4, 27120, Note_on_c, 0, 38, 75
4, 27120, Note_on_c, 0, 50, 75
4, 27240, Note_on_c, 0, 50, 0
4, 27240, Note_on_c, 0, 38, 0
4, 27240, Note_on_c, 0, 36, 75
4, 27240, Note_on_c, 0, 48, 75
4, 27360, Note_on_c, 0, 48, 0
4, 27360, Note_on_c, 0, 36, 0
4, 27360, Note_on_c, 0, 35, 75
4, 27360, Note_on_c, 0, 47, 75
4, 27600, Note_on_c, 0, 47, 0
4, 27600, Note_on_c, 0, 35, 0
4, 27600, Note_on_c, 0, 36, 75
4, 27600, Note_on_c, 0, 48, 75
4, 27840, Note_on_c, 0, 48, 0
4, 27840, Note_on_c, 0, 36, 0
4, 27840, Note_on_c, 0, 38, 75
4, 27840, Note_on_c, 0, 50, 75
4, 28080, Note_on_c, 0, 50, 0
4, 28080, Note_on_c, 0, 38, 0
4, 28080, Note_on_c, 0, 39, 75
4, 28080, Note_on_c, 0, 51, 75
4, 28320, Note_on_c, 0, 51, 0
4, 28320, Note_on_c, 0, 39, 0
4, 28320, Note_on_c, 0, 40, 75
4, 28320, Note_on_c, 0, 52, 75
4, 28560, Note_on_c, 0, 52, 0
4, 28560, Note_on_c, 0, 40, 0
4, 28800, Note_on_c, 0, 57, 49
4, 29040, Note_on_c, 0, 57, 0
4, 29040, Note_on_c, 0, 59, 49
4, 29280, Note_on_c, 0, 59, 0
4, 29280, Note_on_c, 0, 60, 49
4, 29520, Note_on_c, 0, 60, 0
4, 29520, Note_on_c, 0, 59, 49
4, 29760, Note_on_c, 0, 59, 0
4, 29760, Note_on_c, 0, 52, 62
4, 29760, Note_on_c, 0, 57, 62
4, 30000, Note_on_c, 0, 57, 0
4, 30000, Note_on_c, 0, 52, 0
4, 30000, Note_on_c, 0, 64, 62
4, 30240, Note_on_c, 0, 64, 0
4, 30240, Note_on_c, 0, 62, 75
4, 30480, Note_on_c, 0, 62, 0
4, 30480, Note_on_c, 0, 64, 75
4, 30720, Note_on_c, 0, 64, 0
4, 30720, Note_on_c, 0, 65, 75
4, 30960, Note_on_c, 0, 65, 0
4, 30960, Note_on_c, 0, 64, 62
4, 31200, Note_on_c, 0, 64, 0
4, 31200, Note_on_c, 0, 57, 62
4, 31200, Note_on_c, 0, 62, 62
4, 31440, Note_on_c, 0, 62, 0
4, 31440, Note_on_c, 0, 57, 0
4, 31680, Note_on_c, 0, 43, 75
4, 31680, Note_on_c, 0, 55, 75
4, 32160, Note_on_c, 0, 55, 0
4, 32160, Note_on_c, 0, 43, 0
4, 32160, Note_on_c, 0, 31, 75
4, 32160, Note_on_c, 0, 43, 75
4, 32400, Note_on_c, 0, 43, 0
4, 32400, Note_on_c, 0, 31, 0
4, 32400, Note_on_c, 0, 35, 75
4, 32400, Note_on_c, 0, 47, 75
4, 32640, Note_on_c, 0, 47, 0
4, 32640, Note_on_c, 0, 35, 0
4, 32640, Note_on_c, 0, 38, 75
4, 32640, Note_on_c, 0, 50, 75
4, 33120, Note_on_c, 0, 50, 0
4, 33120, Note_on_c, 0, 38, 0
4, 33120, Note_on_c, 0, 31, 75
4, 33120, Note_on_c, 0, 43, 75
4, 33360, Note_on_c, 0, 43, 0
4, 33360, Note_on_c, 0, 31, 0
4, 33360, Note_on_c, 0, 55, 75
4, 33360, Note_on_c, 0, 67, 75
4, 33480, Note_on_c, 0, 67, 0
4, 33480, Note_on_c, 0, 55, 0
4, 33480, Note_on_c, 0, 55, 75
4, 33480, Note_on_c, 0, 67, 75
4, 33600, Note_on_c, 0, 67, 0
4, 33600, Note_on_c, 0, 55, 0
4, 33600, Note_on_c, 0, 55, 75
4, 33600, Note_on_c, 0, 67, 75
4, 33840, Note_on_c, 0, 67, 0
4, 33840, Note_on_c, 0, 55, 0
4, 34560, Note_on_c, 0, 36, 75
4, 34560, Note_on_c, 0, 48, 75
4, 35280, Note_on_c, 0, 48, 0
4, 35280, Note_on_c, 0, 36, 0
4, 35280, Note_on_c, 0, 40, 75
4, 35280, Note_on_c, 0, 52, 75
4, 35520, Note_on_c, 0, 52, 0
4, 35520, Note_on_c, 0, 40, 0
4, 35520, Note_on_c, 0, 43, 75
4, 35520, Note_on_c, 0, 55, 75
4, 36000, Note_on_c, 0, 55, 0
4, 36000, Note_on_c, 0, 43, 0
4, 36000, Note_on_c, 0, 36, 75
4, 36000, Note_on_c, 0, 48, 75
4, 36240, Note_on_c, 0, 48, 0
4, 36240, Note_on_c, 0, 36, 0
4, 36720, Note_on_c, 0, 46, 75
4, 36720, Note_on_c, 0, 58, 75
4, 36960, Note_on_c, 0, 58, 0
4, 36960, Note_on_c, 0, 46, 0
4, 36960, Note_on_c, 0, 45, 75
4, 36960, Note_on_c, 0, 57, 75
4, 37200, Note_on_c, 0, 57, 0
4, 37200, Note_on_c, 0, 45, 0
4, 37200, Note_on_c, 0, 43, 75
4, 37200, Note_on_c, 0, 55, 75
4, 37440, Note_on_c, 0, 55, 0
4, 37440, Note_on_c, 0, 43, 0
4, 37440, Note_on_c, 0, 41, 75
4, 37440, Note_on_c, 0, 53, 75
4, 37680, Note_on_c, 0, 53, 0
4, 37680, Note_on_c, 0, 41, 0
4, 37680, Note_on_c, 0, 51, 75
4, 37680, Note_on_c, 0, 63, 75
4, 37920, Note_on_c, 0, 63, 0
4, 37920, Note_on_c, 0, 51, 0
4, 37920, Note_on_c, 0, 50, 75
4, 37920, Note_on_c, 0, 62, 75
4, 38160, Note_on_c, 0, 62, 0
4, 38160, Note_on_c, 0, 50, 0
4, 38160, Note_on_c, 0, 48, 88
4, 38160, Note_on_c, 0, 60, 88
4, 38400, Note_on_c, 0, 60, 0
4, 38400, Note_on_c, 0, 48, 0
4, 38400, Note_on_c, 0, 46, 88
4, 38400, Note_on_c, 0, 58, 88
4, 38640, Note_on_c, 0, 58, 0
4, 38640, Note_on_c, 0, 46, 0
4, 38640, Note_on_c, 0, 57, 88
4, 38640, Note_on_c, 0, 69, 88
4, 38880, Note_on_c, 0, 69, 0
4, 38880, Note_on_c, 0, 57, 0
4, 38880, Note_on_c, 0, 56, 88
4, 38880, Note_on_c, 0, 68, 88
4, 39120, Note_on_c, 0, 68, 0
4, 39120, Note_on_c, 0, 56, 0
4, 39120, Note_on_c, 0, 53, 88
4, 39120, Note_on_c, 0, 65, 88
4, 39360, Note_on_c, 0, 65, 0
4, 39360, Note_on_c, 0, 53, 0
4, 39360, Note_on_c, 0, 52, 88
4, 39360, Note_on_c, 0, 64, 88
4, 39600, Note_on_c, 0, 64, 0
4, 39600, Note_on_c, 0, 52, 0
4, 39600, Note_on_c, 0, 50, 88
4, 39840, Note_on_c, 0, 50, 0
4, 39840, Note_on_c, 0, 48, 49
4, 40080, Note_on_c, 0, 48, 0
4, 40080, Note_on_c, 0, 47, 49
4, 40320, Note_on_c, 0, 47, 0
4, 40320, Note_on_c, 0, 45, 49
4, 40560, Note_on_c, 0, 45, 0
4, 40560, Note_on_c, 0, 47, 49
4, 40800, Note_on_c, 0, 47, 0
4, 40800, Note_on_c, 0, 48, 49
4, 41280, Note_on_c, 0, 48, 0
4, 41280, Note_on_c, 0, 59, 49
4, 41520, Note_on_c, 0, 59, 0
4, 41520, Note_on_c, 0, 56, 49
4, 41760, Note_on_c, 0, 56, 0
4, 41760, Note_on_c, 0, 57, 49
4, 42120, Note_on_c, 0, 57, 0
4, 42120, Note_on_c, 0, 59, 49
4, 42240, Note_on_c, 0, 59, 0
4, 42240, Note_on_c, 0, 57, 49
4, 42720, Note_on_c, 0, 57, 0
4, 42720, Note_on_c, 0, 58, 49
4, 42960, Note_on_c, 0, 58, 0
4, 42960, Note_on_c, 0, 62, 49
4, 43200, Note_on_c, 0, 62, 0
4, 43200, Note_on_c, 0, 52, 49
4, 43920, Note_on_c, 0, 52, 0
4, 43920, Note_on_c, 0, 52, 49
4, 44160, Note_on_c, 0, 52, 0
4, 44160, Note_on_c, 0, 53, 49
4, 44640, Note_on_c, 0, 53, 0
4, 44640, Note_on_c, 0, 59, 49
4, 45120, Note_on_c, 0, 59, 0
4, 45120, Note_on_c, 0, 45, 49
4, 45120, Note_on_c, 0, 57, 49
4, 45360, Note_on_c, 0, 57, 0
4, 45360, Note_on_c, 0, 45, 0
4, 45600, Note_on_c, 0, 57, 62
4, 45600, Note_on_c, 0, 60, 62
4, 45600, Note_on_c, 0, 64, 62
4, 45840, Note_on_c, 0, 64, 0
4, 45840, Note_on_c, 0, 60, 0
4, 45840, Note_on_c, 0, 57, 0
4, 46080, Note_on_c, 0, 36, 75
4, 46080, Note_on_c, 0, 48, 75
4, 46800, Note_on_c, 0, 48, 0
4, 46800, Note_on_c, 0, 36, 0
4, 46800, Note_on_c, 0, 40, 75
4, 46800, Note_on_c, 0, 52, 75
4, 47040, Note_on_c, 0, 52, 0
4, 47040, Note_on_c, 0, 40, 0
4, 47040, Note_on_c, 0, 43, 75
4, 47040, Note_on_c, 0, 55, 75
4, 47520, Note_on_c, 0, 55, 0
4, 47520, Note_on_c, 0, 43, 0
4, 47520, Note_on_c, 0, 40, 75
4, 47520, Note_on_c, 0, 52, 75
4, 47760, Note_on_c, 0, 52, 0
4, 47760, Note_on_c, 0, 40, 0
4, 48240, Note_on_c, 0, 46, 75
4, 48240, Note_on_c, 0, 58, 75
4, 48480, Note_on_c, 0, 58, 0
4, 48480, Note_on_c, 0, 46, 0
4, 48480, Note_on_c, 0, 45, 75
4, 48480, Note_on_c, 0, 57, 75
4, 48720, Note_on_c, 0, 57, 0
4, 48720, Note_on_c, 0, 45, 0
4, 48720, Note_on_c, 0, 43, 75
4, 48720, Note_on_c, 0, 55, 75
4, 48960, Note_on_c, 0, 55, 0
4, 48960, Note_on_c, 0, 43, 0
4, 48960, Note_on_c, 0, 41, 75
4, 48960, Note_on_c, 0, 53, 75
4, 49080, Note_on_c, 0, 53, 0
4, 49080, Note_on_c, 0, 41, 0
4, 49080, Note_on_c, 0, 43, 75
4, 49080, Note_on_c, 0, 55, 75
4, 49200, Note_on_c, 0, 55, 0
4, 49200, Note_on_c, 0, 43, 0
4, 49200, Note_on_c, 0, 41, 75
4, 49200, Note_on_c, 0, 53, 75
4, 49223, Note_on_c, 0, 53, 0
4, 49223, Note_on_c, 0, 41, 0
4, 49320, Note_on_c, 0, 40, 75
4, 49320, Note_on_c, 0, 52, 75
4, 49343, Note_on_c, 0, 52, 0
4, 49343, Note_on_c, 0, 40, 0
4, 49440, Note_on_c, 0, 38, 101
4, 49440, Note_on_c, 0, 50, 101
4, 50040, Note_on_c, 0, 50, 0
4, 50040, Note_on_c, 0, 38, 0
4, 50040, Note_on_c, 0, 40, 75
4, 50040, Note_on_c, 0, 52, 75
4, 50160, Note_on_c, 0, 52, 0
4, 50160, Note_on_c, 0, 40, 0
4, 50160, Note_on_c, 0, 38, 75
4, 50160, Note_on_c, 0, 50, 75
4, 50280, Note_on_c, 0, 50, 0
4, 50280, Note_on_c, 0, 38, 0
4, 50280, Note_on_c, 0, 36, 75
4, 50280, Note_on_c, 0, 48, 75
4, 50400, Note_on_c, 0, 48, 0
4, 50400, Note_on_c, 0, 36, 0
4, 50400, Note_on_c, 0, 35, 75
4, 50400, Note_on_c, 0, 47, 75
4, 50640, Note_on_c, 0, 47, 0
4, 50640, Note_on_c, 0, 35, 0
4, 50640, Note_on_c, 0, 36, 75
4, 50640, Note_on_c, 0, 48, 75
4, 50880, Note_on_c, 0, 48, 0
4, 50880, Note_on_c, 0, 36, 0
4, 50880, Note_on_c, 0, 38, 75
4, 50880, Note_on_c, 0, 50, 75
4, 51120, Note_on_c, 0, 50, 0
4, 51120, Note_on_c, 0, 38, 0
4, 51120, Note_on_c, 0, 39, 75
4, 51120, Note_on_c, 0, 51, 75
4, 51360, Note_on_c, 0, 51, 0
4, 51360, Note_on_c, 0, 39, 0
4, 51360, Note_on_c, 0, 40, 75
4, 51360, Note_on_c, 0, 52, 75
4, 51600, Note_on_c, 0, 52, 0
4, 51600, Note_on_c, 0, 40, 0
4, 51840, Note_on_c, 0, 57, 49
4, 52080, Note_on_c, 0, 57, 0
4, 52080, Note_on_c, 0, 59, 49
4, 52320, Note_on_c, 0, 59, 0
4, 52320, Note_on_c, 0, 60, 49
4, 52560, Note_on_c, 0, 60, 0
4, 52560, Note_on_c, 0, 59, 49
4, 52800, Note_on_c, 0, 59, 0
4, 52800, Note_on_c, 0, 52, 62
4, 52800, Note_on_c, 0, 57, 62
4, 53040, Note_on_c, 0, 57, 0
4, 53040, Note_on_c, 0, 52, 0
4, 53040, Note_on_c, 0, 64, 62
4, 53280, Note_on_c, 0, 64, 0
4, 53280, Note_on_c, 0, 62, 75
4, 53520, Note_on_c, 0, 62, 0
4, 53520, Note_on_c, 0, 64, 75
4, 53760, Note_on_c, 0, 64, 0
4, 53760, Note_on_c, 0, 65, 75
4, 54000, Note_on_c, 0, 65, 0
4, 54000, Note_on_c, 0, 64, 62
4, 54240, Note_on_c, 0, 64, 0
4, 54240, Note_on_c, 0, 57, 62
4, 54240, Note_on_c, 0, 62, 62
4, 54480, Note_on_c, 0, 62, 0
4, 54480, Note_on_c, 0, 57, 0
4, 54720, Note_on_c, 0, 43, 75
4, 54720, Note_on_c, 0, 55, 75
4, 55200, Note_on_c, 0, 55, 0
4, 55200, Note_on_c, 0, 43, 0
4, 55200, Note_on_c, 0, 31, 75
4, 55200, Note_on_c, 0, 43, 75
4, 55440, Note_on_c, 0, 43, 0
4, 55440, Note_on_c, 0, 31, 0
4, 55440, Note_on_c, 0, 35, 75
4, 55440, Note_on_c, 0, 47, 75
4, 55680, Note_on_c, 0, 47, 0
4, 55680, Note_on_c, 0, 35, 0
4, 55680, Note_on_c, 0, 38, 75
4, 55680, Note_on_c, 0, 50, 75
4, 56160, Note_on_c, 0, 50, 0
4, 56160, Note_on_c, 0, 38, 0
4, 56160, Note_on_c, 0, 31, 75
4, 56160, Note_on_c, 0, 43, 75
4, 56400, Note_on_c, 0, 43, 0
4, 56400, Note_on_c, 0, 31, 0
4, 56400, Note_on_c, 0, 55, 75
4, 56400, Note_on_c, 0, 67, 75
4, 56520, Note_on_c, 0, 67, 0
4, 56520, Note_on_c, 0, 55, 0
4, 56520, Note_on_c, 0, 55, 75
4, 56520, Note_on_c, 0, 67, 75
4, 56640, Note_on_c, 0, 67, 0
4, 56640, Note_on_c, 0, 55, 0
4, 56640, Note_on_c, 0, 55, 75
4, 56640, Note_on_c, 0, 67, 75
4, 56880, Note_on_c, 0, 67, 0
4, 56880, Note_on_c, 0, 55, 0
4, 57600, Note_on_c, 0, 36, 75
4, 57600, Note_on_c, 0, 48, 75
4, 58320, Note_on_c, 0, 48, 0
4, 58320, Note_on_c, 0, 36, 0
4, 58320, Note_on_c, 0, 40, 75
4, 58320, Note_on_c, 0, 52, 75
4, 58560, Note_on_c, 0, 52, 0
4, 58560, Note_on_c, 0, 40, 0
4, 58560, Note_on_c, 0, 43, 75
4, 58560, Note_on_c, 0, 55, 75
4, 59040, Note_on_c, 0, 55, 0
4, 59040, Note_on_c, 0, 43, 0
4, 59040, Note_on_c, 0, 36, 75
4, 59040, Note_on_c, 0, 48, 75
4, 59280, Note_on_c, 0, 48, 0
4, 59280, Note_on_c, 0, 36, 0
4, 59760, Note_on_c, 0, 46, 75
4, 59760, Note_on_c, 0, 58, 75
4, 60000, Note_on_c, 0, 58, 0
4, 60000, Note_on_c, 0, 46, 0
4, 60000, Note_on_c, 0, 45, 75
4, 60000, Note_on_c, 0, 57, 75
4, 60240, Note_on_c, 0, 57, 0
4, 60240, Note_on_c, 0, 45, 0
4, 60240, Note_on_c, 0, 43, 75
4, 60240, Note_on_c, 0, 55, 75
4, 60480, Note_on_c, 0, 55, 0
4, 60480, Note_on_c, 0, 43, 0
4, 60480, Note_on_c, 0, 41, 75
4, 60480, Note_on_c, 0, 53, 75
4, 60720, Note_on_c, 0, 53, 0
4, 60720, Note_on_c, 0, 41, 0
4, 60720, Note_on_c, 0, 51, 75
4, 60720, Note_on_c, 0, 63, 75
4, 60960, Note_on_c, 0, 63, 0
4, 60960, Note_on_c, 0, 51, 0
4, 60960, Note_on_c, 0, 50, 75
4, 60960, Note_on_c, 0, 62, 75
4, 61200, Note_on_c, 0, 62, 0
4, 61200, Note_on_c, 0, 50, 0
4, 61200, Note_on_c, 0, 48, 88
4, 61200, Note_on_c, 0, 60, 88
4, 61440, Note_on_c, 0, 60, 0
4, 61440, Note_on_c, 0, 48, 0
4, 61440, Note_on_c, 0, 46, 88
4, 61440, Note_on_c, 0, 58, 88
4, 61680, Note_on_c, 0, 58, 0
4, 61680, Note_on_c, 0, 46, 0
4, 61680, Note_on_c, 0, 57, 88
4, 61680, Note_on_c, 0, 69, 88
4, 61920, Note_on_c, 0, 69, 0
4, 61920, Note_on_c, 0, 57, 0
4, 61920, Note_on_c, 0, 56, 88
4, 61920, Note_on_c, 0, 68, 88
4, 62160, Note_on_c, 0, 68, 0
4, 62160, Note_on_c, 0, 56, 0
4, 62160, Note_on_c, 0, 53, 88
4, 62160, Note_on_c, 0, 65, 88
4, 62400, Note_on_c, 0, 65, 0
4, 62400, Note_on_c, 0, 53, 0
4, 62400, Note_on_c, 0, 52, 88
4, 62400, Note_on_c, 0, 64, 88
4, 62640, Note_on_c, 0, 64, 0
4, 62640, Note_on_c, 0, 52, 0
4, 62640, Note_on_c, 0, 50, 88
4, 62880, Note_on_c, 0, 50, 0
4, 62880, Note_on_c, 0, 48, 49
4, 63120, Note_on_c, 0, 48, 0
4, 63120, Note_on_c, 0, 47, 49
4, 63360, Note_on_c, 0, 47, 0
4, 63360, Note_on_c, 0, 45, 49
4, 63600, Note_on_c, 0, 45, 0
4, 63600, Note_on_c, 0, 47, 49
4, 63840, Note_on_c, 0, 47, 0
4, 63840, Note_on_c, 0, 48, 49
4, 64320, Note_on_c, 0, 48, 0
4, 64320, Note_on_c, 0, 59, 49
4, 64560, Note_on_c, 0, 59, 0
4, 64560, Note_on_c, 0, 56, 49
4, 64800, Note_on_c, 0, 56, 0
4, 64800, Note_on_c, 0, 57, 49
4, 65160, Note_on_c, 0, 57, 0
4, 65160, Note_on_c, 0, 59, 49
4, 65280, Note_on_c, 0, 59, 0
4, 65280, Note_on_c, 0, 57, 49
4, 65760, Note_on_c, 0, 57, 0
4, 65760, Note_on_c, 0, 58, 49
4, 66000, Note_on_c, 0, 58, 0
4, 66000, Note_on_c, 0, 62, 49
4, 66240, Note_on_c, 0, 62, 0
4, 66240, Note_on_c, 0, 52, 49
4, 66960, Note_on_c, 0, 52, 0
4, 66960, Note_on_c, 0, 52, 49
4, 67200, Note_on_c, 0, 52, 0
4, 67200, Note_on_c, 0, 53, 49
4, 67680, Note_on_c, 0, 53, 0
4, 67680, Note_on_c, 0, 59, 49
4, 68160, Note_on_c, 0, 59, 0
4, 68160, Note_on_c, 0, 45, 49
4, 68160, Note_on_c, 0, 57, 49
4, 68400, Note_on_c, 0, 57, 0
4, 68400, Note_on_c, 0, 45, 0
4, 68640, Note_on_c, 0, 57, 88
4, 68640, Note_on_c, 0, 60, 88
4, 68640, Note_on_c, 0, 64, 88
4, 68880, Note_on_c, 0, 64, 0
4, 68880, Note_on_c, 0, 60, 0
4, 68880, Note_on_c, 0, 57, 0
4, 68880, End_track
5, 0, Start_track
5, 0, Title_t, "Grand Piano"
5, 0, Program_c, 0, 0
5, 0, Control_c, 0, 7, 115
5, 0, Control_c, 0, 10, 48
5, 0, Note_on_c, 0, 45, 67
5, 240, Note_on_c, 0, 45, 0
5, 240, Note_on_c, 0, 47, 67
5, 480, Note_on_c, 0, 47, 0
5, 480, Note_on_c, 0, 48, 67
5, 960, Note_on_c, 0, 48, 0
5, 960, Note_on_c, 0, 52, 67
5, 1440, Note_on_c, 0, 52, 0
5, 1440, Note_on_c, 0, 53, 67
5, 2160, Note_on_c, 0, 53, 0
5, 2160, Note_on_c, 0, 52, 67
5, 2400, Note_on_c, 0, 52, 0
5, 2400, Note_on_c, 0, 50, 67
5, 2640, Note_on_c, 0, 50, 0
5, 2640, Note_on_c, 0, 48, 67
5, 2880, Note_on_c, 0, 48, 0
5, 2880, Note_on_c, 0, 47, 93
5, 2880, Note_on_c, 0, 56, 93
5, 3360, Note_on_c, 0, 56, 0
5, 3360, Note_on_c, 0, 47, 0
5, 3360, Note_on_c, 0, 44, 93
5, 3840, Note_on_c, 0, 44, 0
5, 3840, Note_on_c, 0, 45, 67
5, 4200, Note_on_c, 0, 45, 0
5, 4200, Note_on_c, 0, 48, 67
5, 4320, Note_on_c, 0, 48, 0
5, 4320, Note_on_c, 0, 50, 93
5, 4800, Note_on_c, 0, 50, 0
5, 4800, Note_on_c, 0, 52, 67
5, 5040, Note_on_c, 0, 52, 0
5, 5040, Note_on_c, 0, 50, 67
5, 5280, Note_on_c, 0, 50, 0
5, 5280, Note_on_c, 0, 49, 67
5, 5760, Note_on_c, 0, 49, 0
5, 5760, Note_on_c, 0, 50, 67
5, 5880, Note_on_c, 0, 50, 0
5, 5880, Note_on_c, 0, 49, 67
5, 6000, Note_on_c, 0, 49, 0
5, 6000, Note_on_c, 0, 50, 67
5, 6023, Note_on_c, 0, 50, 0
5, 6120, Note_on_c, 0, 48, 67
5, 6143, Note_on_c, 0, 48, 0
5, 6240, Note_on_c, 0, 47, 67
5, 7080, Note_on_c, 0, 47, 0
5, 7080, Note_on_c, 0, 47, 67
5, 7200, Note_on_c, 0, 47, 0
5, 7200, Note_on_c, 0, 48, 67
5, 7320, Note_on_c, 0, 48, 0
5, 7320, Note_on_c, 0, 47, 67
5, 7440, Note_on_c, 0, 47, 0
5, 7440, Note_on_c, 0, 48, 67
5, 7463, Note_on_c, 0, 48, 0
5, 7560, Note_on_c, 0, 46, 67
5, 7583, Note_on_c, 0, 46, 0
5, 7680, Note_on_c, 0, 45, 67
5, 9120, Note_on_c, 0, 45, 0
5, 9120, Note_on_c, 0, 44, 67
5, 9360, Note_on_c, 0, 44, 0
5, 9360, Note_on_c, 0, 40, 67
5, 9600, Note_on_c, 0, 40, 0
5, 9600, Note_on_c, 0, 45, 67
5, 10080, Note_on_c, 0, 45, 0
5, 10080, Note_on_c, 0, 50, 67
5, 10560, Note_on_c, 0, 50, 0
5, 10560, Note_on_c, 0, 52, 67
5, 10800, Note_on_c, 0, 52, 0
5, 11520, Note_on_c, 0, 45, 67
5, 11760, Note_on_c, 0, 45, 0
5, 11760, Note_on_c, 0, 47, 67
5, 12000, Note_on_c, 0, 47, 0
5, 12000, Note_on_c, 0, 48, 67
5, 12480, Note_on_c, 0, 48, 0
5, 12480, Note_on_c, 0, 52, 67
5, 12960, Note_on_c, 0, 52, 0
5, 12960, Note_on_c, 0, 53, 67
5, 13680, Note_on_c, 0, 53, 0
5, 13680, Note_on_c, 0, 52, 67
5, 13920, Note_on_c, 0, 52, 0
5, 13920, Note_on_c, 0, 50, 67
5, 14160, Note_on_c, 0, 50, 0
5, 14160, Note_on_c, 0, 48, 67
5, 14400, Note_on_c, 0, 48, 0
5, 14400, Note_on_c, 0, 47, 93
5, 14400, Note_on_c, 0, 56, 93
5, 14880, Note_on_c, 0, 56, 0
5, 14880, Note_on_c, 0, 47, 0
5, 14880, Note_on_c, 0, 44, 67
5, 15360, Note_on_c, 0, 44, 0
5, 15360, Note_on_c, 0, 45, 67
5, 15720, Note_on_c, 0, 45, 0
5, 15720, Note_on_c, 0, 48, 67
5, 15840, Note_on_c, 0, 48, 0
5, 15840, Note_on_c, 0, 50, 93
5, 16320, Note_on_c, 0, 50, 0
5, 16320, Note_on_c, 0, 52, 67
5, 16560, Note_on_c, 0, 52, 0
5, 16560, Note_on_c, 0, 50, 67
5, 16607, Note_on_c, 0, 50, 0
5, 16800, Note_on_c, 0, 49, 67
5, 17280, Note_on_c, 0, 49, 0
5, 17280, Note_on_c, 0, 50, 67
5, 17400, Note_on_c, 0, 50, 0
5, 17400, Note_on_c, 0, 49, 67
5, 17520, Note_on_c, 0, 49, 0
5, 17520, Note_on_c, 0, 50, 67
5, 17543, Note_on_c, 0, 50, 0
5, 17640, Note_on_c, 0, 48, 67
5, 17663, Note_on_c, 0, 48, 0
5, 17760, Note_on_c, 0, 47, 67
5, 18600, Note_on_c, 0, 47, 0
5, 18600, Note_on_c, 0, 47, 67
5, 18720, Note_on_c, 0, 47, 0
5, 18720, Note_on_c, 0, 48, 67
5, 18840, Note_on_c, 0, 48, 0
5, 18840, Note_on_c, 0, 47, 67
5, 18960, Note_on_c, 0, 47, 0
5, 18960, Note_on_c, 0, 48, 67
5, 18983, Note_on_c, 0, 48, 0
5, 19080, Note_on_c, 0, 46, 67
5, 19103, Note_on_c, 0, 46, 0
5, 19200, Note_on_c, 0, 45, 67
5, 20640, Note_on_c, 0, 45, 0
5, 20640, Note_on_c, 0, 44, 67
5, 20687, Note_on_c, 0, 44, 0
5, 20880, Note_on_c, 0, 40, 67
5, 21120, Note_on_c, 0, 40, 0
5, 21120, Note_on_c, 0, 45, 67
5, 21600, Note_on_c, 0, 45, 0
5, 21600, Note_on_c, 0, 50, 93
5, 22080, Note_on_c, 0, 50, 0
5, 22080, Note_on_c, 0, 52, 67
5, 22320, Note_on_c, 0, 52, 0
5, 28800, Note_on_c, 0, 42, 67
5, 29040, Note_on_c, 0, 42, 0
5, 29040, Note_on_c, 0, 44, 67
5, 29280, Note_on_c, 0, 44, 0
5, 29280, Note_on_c, 0, 45, 67
5, 29280, Note_on_c, 0, 52, 67
5, 29520, Note_on_c, 0, 52, 0
5, 29520, Note_on_c, 0, 45, 0
5, 29520, Note_on_c, 0, 47, 67
5, 29760, Note_on_c, 0, 47, 0
5, 29760, Note_on_c, 0, 48, 80
5, 30240, Note_on_c, 0, 48, 0
5, 30240, Note_on_c, 0, 47, 80
5, 30480, Note_on_c, 0, 47, 0
5, 30480, Note_on_c, 0, 49, 80
5, 30720, Note_on_c, 0, 49, 0
5, 30720, Note_on_c, 0, 50, 80
5, 30960, Note_on_c, 0, 50, 0
5, 30960, Note_on_c, 0, 52, 80
5, 30960, Note_on_c, 0, 57, 80
5, 31200, Note_on_c, 0, 57, 0
5, 31200, Note_on_c, 0, 52, 0
5, 31200, Note_on_c, 0, 53, 80
5, 31680, Note_on_c, 0, 53, 0
5, 41280, Note_on_c, 0, 52, 54
5, 41760, Note_on_c, 0, 52, 0
5, 41760, Note_on_c, 0, 53, 54
5, 42480, Note_on_c, 0, 53, 0
5, 42480, Note_on_c, 0, 51, 54
5, 42720, Note_on_c, 0, 51, 0
5, 42720, Note_on_c, 0, 50, 54
5, 42720, Note_on_c, 0, 53, 54
5, 42960, Note_on_c, 0, 53, 0
5, 42960, Note_on_c, 0, 50, 0
5, 42960, Note_on_c, 0, 46, 54
5, 43200, Note_on_c, 0, 46, 0
5, 43200, Note_on_c, 0, 47, 54
5, 43920, Note_on_c, 0, 47, 0
5, 43920, Note_on_c, 0, 48, 54
5, 44160, Note_on_c, 0, 48, 0
5, 44160, Control_c, 0, 64, 127
5, 44160, Note_on_c, 0, 50, 54
5, 44160, Note_on_c, 0, 59, 54
5, 44280, Note_on_c, 0, 59, 0
5, 44280, Note_on_c, 0, 50, 0
5, 44280, Note_on_c, 0, 48, 54
5, 44280, Note_on_c, 0, 57, 54
5, 44400, Note_on_c, 0, 57, 0
5, 44400, Note_on_c, 0, 48, 0
5, 44400, Note_on_c, 0, 47, 54
5, 44400, Note_on_c, 0, 56, 54
5, 44520, Note_on_c, 0, 56, 0
5, 44520, Note_on_c, 0, 47, 0
5, 44520, Control_c, 0, 64, 0
5, 44520, Note_on_c, 0, 50, 54
5, 44520, Note_on_c, 0, 59, 54
5, 44640, Note_on_c, 0, 59, 0
5, 44640, Note_on_c, 0, 50, 0
5, 44640, Note_on_c, 0, 53, 80
5, 44880, Note_on_c, 0, 53, 0
5, 44880, Note_on_c, 0, 52, 54
5, 45120, Note_on_c, 0, 52, 0
5, 51840, Note_on_c, 0, 42, 67
5, 52080, Note_on_c, 0, 42, 0
5, 52080, Note_on_c, 0, 44, 67
5, 52320, Note_on_c, 0, 44, 0
5, 52320, Note_on_c, 0, 45, 67
5, 52320, Note_on_c, 0, 52, 67
5, 52560, Note_on_c, 0, 52, 0
5, 52560, Note_on_c, 0, 45, 0
5, 52560, Note_on_c, 0, 47, 67
5, 52800, Note_on_c, 0, 47, 0
5, 52800, Note_on_c, 0, 48, 80
5, 53280, Note_on_c, 0, 48, 0
5, 53280, Note_on_c, 0, 47, 80
5, 53520, Note_on_c, 0, 47, 0
5, 53520, Note_on_c, 0, 49, 80
5, 53760, Note_on_c, 0, 49, 0
5, 53760, Note_on_c, 0, 50, 80
5, 53760, Note_on_c, 0, 57, 80
5, 54000, Note_on_c, 0, 57, 0
5, 54000, Note_on_c, 0, 50, 0
5, 54000, Note_on_c, 0, 52, 80
5, 54240, Note_on_c, 0, 52, 0
5, 54240, Note_on_c, 0, 53, 80
5, 54720, Note_on_c, 0, 53, 0
5, 64320, Note_on_c, 0, 52, 54
5, 64800, Note_on_c, 0, 52, 0
5, 64800, Note_on_c, 0, 53, 54
5, 65520, Note_on_c, 0, 53, 0
5, 65520, Note_on_c, 0, 51, 54
5, 65760, Note_on_c, 0, 51, 0
5, 65760, Note_on_c, 0, 50, 54
5, 65760, Note_on_c, 0, 53, 54
5, 66000, Note_on_c, 0, 53, 0
5, 66000, Note_on_c, 0, 50, 0
5, 66000, Note_on_c, 0, 46, 54
5, 66240, Note_on_c, 0, 46, 0
5, 66240, Note_on_c, 0, 47, 54
5, 66960, Note_on_c, 0, 47, 0
5, 66960, Note_on_c, 0, 48, 54
5, 67200, Note_on_c, 0, 48, 0
5, 67200, Control_c, 0, 64, 127
5, 67200, Note_on_c, 0, 50, 54
5, 67200, Note_on_c, 0, 59, 54
5, 67320, Note_on_c, 0, 59, 0
5, 67320, Note_on_c, 0, 50, 0
5, 67320, Note_on_c, 0, 48, 54
5, 67320, Note_on_c, 0, 57, 54
5, 67440, Note_on_c, 0, 57, 0
5, 67440, Note_on_c, 0, 48, 0
5, 67440, Note_on_c, 0, 47, 54
5, 67440, Note_on_c, 0, 56, 54
5, 67560, Note_on_c, 0, 56, 0
5, 67560, Note_on_c, 0, 47, 0
5, 67560, Control_c, 0, 64, 0
5, 67560, Note_on_c, 0, 50, 54
5, 67560, Note_on_c, 0, 59, 54
5, 67680, Note_on_c, 0, 59, 0
5, 67680, Note_on_c, 0, 50, 0
5, 67680, Note_on_c, 0, 53, 80
5, 67920, Note_on_c, 0, 53, 0
5, 67920, Note_on_c, 0, 52, 54
5, 68160, Note_on_c, 0, 52, 0
5, 68160, End_track
0, 0, End_of_file
