0, 0, Header, 1, 5, 480
1, 0, Start_track
1, 0, Title_t, "tchaikovsky swan lake act1 2 valse"
1, 0, Copyright_t, "Adaptation for Disklavier pianos, by: Robert C. Kuhmann (c) 2012."
1, 0, Text_t, "Seq. (c) by: Segundo G. Yogore,  2007\012"
1, 0, Time_signature, 3, 2, 24, 8
1, 0, Key_signature, 3, "major"
1, 0, Tempo, 342857
1, 334080, Key_signature, -1, "major"
1, 590400, Key_signature, 3, "major"
1, 590400, Tempo, 315789
1, 600480, Tempo, 315789
1, 676800, Tempo, 285714
1, 694080, Tempo, 285714
1, 701280, Tempo, 342857
1, 702720, Time_signature, 8, 2, 24, 8
1, 702720, End_track
2, 0, Start_track
2, 0, Title_t, "Grand Piano"
2, 0, Program_c, 0, 0
2, 0, Control_c, 0, 7, 115
2, 0, Control_c, 0, 10, 86
2, 0, Note_on_c, 0, 78, 78
2, 0, Note_on_c, 0, 90, 78
2, 96, Note_on_c, 0, 90, 0
2, 96, Note_on_c, 0, 78, 0
2, 480, Note_on_c, 0, 76, 78
2, 480, Note_on_c, 0, 88, 78
2, 576, Note_on_c, 0, 88, 0
2, 576, Note_on_c, 0, 76, 0
2, 960, Note_on_c, 0, 74, 78
2, 960, Note_on_c, 0, 86, 78
2, 1056, Note_on_c, 0, 86, 0
2, 1056, Note_on_c, 0, 74, 0
2, 1440, Note_on_c, 0, 73, 78
2, 1440, Note_on_c, 0, 85, 78
2, 1536, Note_on_c, 0, 85, 0
2, 1536, Note_on_c, 0, 73, 0
2, 1920, Note_on_c, 0, 71, 78
2, 1920, Note_on_c, 0, 83, 78
2, 2016, Note_on_c, 0, 83, 0
2, 2016, Note_on_c, 0, 71, 0
2, 2400, Note_on_c, 0, 69, 78
2, 2400, Note_on_c, 0, 81, 78
2, 2496, Note_on_c, 0, 81, 0
2, 2496, Note_on_c, 0, 69, 0
2, 2880, Note_on_c, 0, 68, 78
2, 2880, Note_on_c, 0, 80, 78
2, 2976, Note_on_c, 0, 80, 0
2, 2976, Note_on_c, 0, 68, 0
2, 3360, Note_on_c, 0, 66, 78
2, 3360, Note_on_c, 0, 78, 78
2, 3456, Note_on_c, 0, 78, 0
2, 3456, Note_on_c, 0, 66, 0
2, 3840, Note_on_c, 0, 64, 78
2, 3840, Note_on_c, 0, 76, 78
2, 3936, Note_on_c, 0, 76, 0
2, 3936, Note_on_c, 0, 64, 0
2, 4320, Note_on_c, 0, 74, 78
2, 4416, Note_on_c, 0, 74, 0
2, 4800, Note_on_c, 0, 73, 78
2, 4896, Note_on_c, 0, 73, 0
2, 5280, Note_on_c, 0, 71, 78
2, 5376, Note_on_c, 0, 71, 0
2, 5760, Note_on_c, 0, 69, 78
2, 5856, Note_on_c, 0, 69, 0
2, 6240, Note_on_c, 0, 68, 78
2, 6336, Note_on_c, 0, 68, 0
2, 6720, Note_on_c, 0, 66, 78
2, 6816, Note_on_c, 0, 66, 0
2, 7200, Note_on_c, 0, 64, 78
2, 7296, Note_on_c, 0, 64, 0
2, 7680, Note_on_c, 0, 68, 78
2, 7776, Note_on_c, 0, 68, 0
2, 8160, Note_on_c, 0, 71, 78
2, 8256, Note_on_c, 0, 71, 0
2, 8640, Note_on_c, 0, 76, 78
2, 8736, Note_on_c, 0, 76, 0
2, 9120, Note_on_c, 0, 71, 78
2, 9120, Note_on_c, 0, 76, 78
2, 9120, Note_on_c, 0, 80, 78
2, 9600, Note_on_c, 0, 80, 0
2, 9600, Note_on_c, 0, 76, 0
2, 9600, Note_on_c, 0, 71, 0
2, 9600, Note_on_c, 0, 71, 78
2, 9600, Note_on_c, 0, 76, 78
2, 9600, Note_on_c, 0, 80, 78
2, 9600, Note_on_c, 0, 83, 78
2, 10080, Note_on_c, 0, 83, 0
2, 10080, Note_on_c, 0, 71, 0
2, 10080, Note_on_c, 0, 76, 0
2, 10080, Note_on_c, 0, 80, 0
2, 10080, Note_on_c, 0, 76, 78
2, 10080, Note_on_c, 0, 80, 78
2, 10080, Note_on_c, 0, 83, 78
2, 10080, Note_on_c, 0, 88, 78
2, 10560, Note_on_c, 0, 88, 0
2, 10560, Note_on_c, 0, 76, 0
2, 10560, Note_on_c, 0, 80, 0
2, 10560, Note_on_c, 0, 83, 0
2, 12000, Note_on_c, 0, 52, 39
2, 12000, Note_on_c, 0, 64, 39
2, 12480, Note_on_c, 0, 64, 0
2, 12480, Note_on_c, 0, 52, 0
2, 12480, Note_on_c, 0, 52, 39
2, 12480, Note_on_c, 0, 64, 39
2, 12960, Note_on_c, 0, 64, 0
2, 12960, Note_on_c, 0, 52, 0
2, 13440, Note_on_c, 0, 52, 39
2, 13440, Note_on_c, 0, 64, 39
2, 13920, Note_on_c, 0, 64, 0
2, 13920, Note_on_c, 0, 52, 0
2, 13920, Note_on_c, 0, 52, 39
2, 13920, Note_on_c, 0, 64, 39
2, 14400, Note_on_c, 0, 64, 0
2, 14400, Note_on_c, 0, 52, 0
2, 14880, Note_on_c, 0, 52, 39
2, 14880, Note_on_c, 0, 64, 39
2, 15360, Note_on_c, 0, 64, 0
2, 15360, Note_on_c, 0, 52, 0
2, 15360, Note_on_c, 0, 52, 39
2, 15360, Note_on_c, 0, 64, 39
2, 15840, Note_on_c, 0, 64, 0
2, 15840, Note_on_c, 0, 52, 0
2, 16320, Note_on_c, 0, 52, 39
2, 16320, Note_on_c, 0, 64, 39
2, 16800, Note_on_c, 0, 64, 0
2, 16800, Note_on_c, 0, 52, 0
2, 16800, Note_on_c, 0, 52, 39
2, 16800, Note_on_c, 0, 64, 39
2, 17280, Note_on_c, 0, 64, 0
2, 17280, Note_on_c, 0, 52, 0
2, 17760, Note_on_c, 0, 52, 39
2, 17760, Note_on_c, 0, 64, 39
2, 18240, Note_on_c, 0, 64, 0
2, 18240, Note_on_c, 0, 52, 0
2, 18240, Note_on_c, 0, 52, 39
2, 18240, Note_on_c, 0, 64, 39
2, 18720, Note_on_c, 0, 64, 0
2, 18720, Note_on_c, 0, 52, 0
2, 19200, Note_on_c, 0, 52, 39
2, 19200, Note_on_c, 0, 64, 39
2, 19680, Note_on_c, 0, 64, 0
2, 19680, Note_on_c, 0, 52, 0
2, 19680, Note_on_c, 0, 52, 39
2, 19680, Note_on_c, 0, 64, 39
2, 20160, Note_on_c, 0, 64, 0
2, 20160, Note_on_c, 0, 52, 0
2, 20640, Note_on_c, 0, 57, 39
2, 20640, Note_on_c, 0, 64, 39
2, 21120, Note_on_c, 0, 64, 0
2, 21120, Note_on_c, 0, 57, 0
2, 21120, Note_on_c, 0, 57, 39
2, 21120, Note_on_c, 0, 64, 39
2, 21600, Note_on_c, 0, 64, 0
2, 21600, Note_on_c, 0, 57, 0
2, 22080, Note_on_c, 0, 57, 39
2, 22080, Note_on_c, 0, 64, 39
2, 22560, Note_on_c, 0, 64, 0
2, 22560, Note_on_c, 0, 57, 0
2, 22560, Note_on_c, 0, 57, 39
2, 22560, Note_on_c, 0, 64, 39
2, 23040, Note_on_c, 0, 64, 0
2, 23040, Note_on_c, 0, 57, 0
2, 23520, Note_on_c, 0, 57, 39
2, 23520, Note_on_c, 0, 64, 39
2, 24000, Note_on_c, 0, 64, 0
2, 24000, Note_on_c, 0, 57, 0
2, 24000, Note_on_c, 0, 57, 39
2, 24000, Note_on_c, 0, 64, 39
2, 24480, Note_on_c, 0, 64, 0
2, 24480, Note_on_c, 0, 57, 0
2, 24960, Note_on_c, 0, 57, 39
2, 24960, Note_on_c, 0, 64, 39
2, 25440, Note_on_c, 0, 64, 0
2, 25440, Note_on_c, 0, 57, 0
2, 25440, Note_on_c, 0, 57, 39
2, 25440, Note_on_c, 0, 64, 39
2, 25920, Note_on_c, 0, 64, 0
2, 25920, Note_on_c, 0, 57, 0
2, 26400, Control_c, 0, 64, 127
2, 26400, Note_on_c, 0, 61, 52
2, 27120, Note_on_c, 0, 61, 0
2, 27120, Note_on_c, 0, 59, 52
2, 27360, Note_on_c, 0, 59, 0
2, 27360, Note_on_c, 0, 62, 52
2, 28320, Note_on_c, 0, 62, 0
2, 28320, Control_c, 0, 64, 0
2, 28320, Note_on_c, 0, 61, 52
2, 28800, Note_on_c, 0, 61, 0
2, 29280, Control_c, 0, 64, 127
2, 29280, Note_on_c, 0, 61, 52
2, 30000, Note_on_c, 0, 61, 0
2, 30000, Note_on_c, 0, 59, 52
2, 30240, Note_on_c, 0, 59, 0
2, 30240, Note_on_c, 0, 62, 52
2, 31200, Note_on_c, 0, 62, 0
2, 31200, Control_c, 0, 64, 0
2, 31200, Note_on_c, 0, 61, 52
2, 31680, Note_on_c, 0, 61, 0
2, 32160, Control_c, 0, 64, 127
2, 32160, Note_on_c, 0, 59, 52
2, 32880, Note_on_c, 0, 59, 0
2, 32880, Note_on_c, 0, 58, 52
2, 33120, Note_on_c, 0, 58, 0
2, 33120, Note_on_c, 0, 61, 52
2, 34080, Note_on_c, 0, 61, 0
2, 34080, Control_c, 0, 64, 0
2, 34080, Note_on_c, 0, 59, 52
2, 34560, Note_on_c, 0, 59, 0
2, 35040, Note_on_c, 0, 58, 52
2, 35520, Note_on_c, 0, 58, 0
2, 35520, Note_on_c, 0, 59, 52
2, 36000, Note_on_c, 0, 59, 0
2, 36000, Note_on_c, 0, 64, 52
2, 36720, Note_on_c, 0, 64, 0
2, 37920, Control_c, 0, 64, 127
2, 37920, Note_on_c, 0, 61, 52
2, 38640, Note_on_c, 0, 61, 0
2, 38640, Note_on_c, 0, 59, 52
2, 38880, Note_on_c, 0, 59, 0
2, 38880, Note_on_c, 0, 62, 52
2, 39840, Note_on_c, 0, 62, 0
2, 39840, Control_c, 0, 64, 0
2, 39840, Note_on_c, 0, 61, 52
2, 40320, Note_on_c, 0, 61, 0
2, 40800, Control_c, 0, 64, 127
2, 40800, Note_on_c, 0, 61, 52
2, 41520, Note_on_c, 0, 61, 0
2, 41520, Note_on_c, 0, 59, 52
2, 41760, Note_on_c, 0, 59, 0
2, 41760, Note_on_c, 0, 62, 52
2, 42720, Note_on_c, 0, 62, 0
2, 42720, Control_c, 0, 64, 0
2, 42720, Note_on_c, 0, 61, 52
2, 43200, Note_on_c, 0, 61, 0
2, 43680, Note_on_c, 0, 59, 52
2, 44400, Note_on_c, 0, 59, 0
2, 44400, Note_on_c, 0, 61, 52
2, 44640, Note_on_c, 0, 61, 0
2, 44640, Note_on_c, 0, 57, 52
2, 44880, Note_on_c, 0, 57, 0
2, 45120, Note_on_c, 0, 61, 52
2, 45840, Note_on_c, 0, 61, 0
2, 45840, Note_on_c, 0, 59, 52
2, 46080, Note_on_c, 0, 59, 0
2, 46080, Note_on_c, 0, 57, 52
2, 46320, Note_on_c, 0, 57, 0
2, 46560, Note_on_c, 0, 56, 52
2, 47280, Note_on_c, 0, 56, 0
2, 47280, Note_on_c, 0, 55, 52
2, 47520, Note_on_c, 0, 55, 0
2, 47520, Note_on_c, 0, 56, 52
2, 48000, Note_on_c, 0, 56, 0
2, 48960, Note_on_c, 0, 61, 52
2, 49007, Note_on_c, 0, 61, 0
2, 49440, Note_on_c, 0, 73, 52
2, 50160, Note_on_c, 0, 73, 0
2, 50160, Note_on_c, 0, 71, 52
2, 50400, Note_on_c, 0, 71, 0
2, 50400, Note_on_c, 0, 74, 52
2, 51360, Note_on_c, 0, 74, 0
2, 51360, Note_on_c, 0, 73, 52
2, 51840, Note_on_c, 0, 73, 0
2, 52320, Note_on_c, 0, 73, 52
2, 53040, Note_on_c, 0, 73, 0
2, 53040, Note_on_c, 0, 71, 52
2, 53280, Note_on_c, 0, 71, 0
2, 53280, Note_on_c, 0, 74, 52
2, 54240, Note_on_c, 0, 74, 0
2, 54240, Note_on_c, 0, 73, 52
2, 54720, Note_on_c, 0, 73, 0
2, 55200, Note_on_c, 0, 71, 52
2, 55920, Note_on_c, 0, 71, 0
2, 55920, Note_on_c, 0, 70, 52
2, 56160, Note_on_c, 0, 70, 0
2, 56160, Note_on_c, 0, 73, 52
2, 57120, Note_on_c, 0, 73, 0
2, 57120, Note_on_c, 0, 71, 52
2, 57600, Note_on_c, 0, 71, 0
2, 58080, Note_on_c, 0, 70, 52
2, 58560, Note_on_c, 0, 70, 0
2, 58560, Note_on_c, 0, 71, 52
2, 59040, Note_on_c, 0, 71, 0
2, 59040, Note_on_c, 0, 76, 52
2, 60480, Note_on_c, 0, 76, 0
2, 60960, Note_on_c, 0, 73, 52
2, 61680, Note_on_c, 0, 73, 0
2, 61680, Note_on_c, 0, 71, 52
2, 61920, Note_on_c, 0, 71, 0
2, 61920, Note_on_c, 0, 74, 52
2, 62880, Note_on_c, 0, 74, 0
2, 62880, Note_on_c, 0, 73, 52
2, 63360, Note_on_c, 0, 73, 0
2, 63840, Note_on_c, 0, 73, 52
2, 64560, Note_on_c, 0, 73, 0
2, 64560, Note_on_c, 0, 71, 52
2, 64800, Note_on_c, 0, 71, 0
2, 64800, Note_on_c, 0, 74, 52
2, 65760, Note_on_c, 0, 74, 0
2, 65760, Note_on_c, 0, 73, 52
2, 66240, Note_on_c, 0, 73, 0
2, 66720, Note_on_c, 0, 71, 52
2, 67440, Note_on_c, 0, 71, 0
2, 67440, Note_on_c, 0, 73, 52
2, 67680, Note_on_c, 0, 73, 0
2, 67680, Note_on_c, 0, 69, 52
2, 67920, Note_on_c, 0, 69, 0
2, 68160, Note_on_c, 0, 73, 52
2, 68880, Note_on_c, 0, 73, 0
2, 68880, Note_on_c, 0, 71, 52
2, 69120, Note_on_c, 0, 71, 0
2, 69120, Note_on_c, 0, 69, 52
2, 69360, Note_on_c, 0, 69, 0
2, 69600, Note_on_c, 0, 68, 78
2, 70320, Note_on_c, 0, 68, 0
2, 70320, Note_on_c, 0, 66, 52
2, 70560, Note_on_c, 0, 66, 0
2, 70560, Note_on_c, 0, 64, 52
2, 71040, Note_on_c, 0, 64, 0
2, 72000, Note_on_c, 0, 78, 91
2, 72000, Note_on_c, 0, 80, 91
2, 72000, Note_on_c, 0, 83, 91
2, 72000, Note_on_c, 0, 88, 91
2, 72000, Note_on_c, 0, 90, 91
2, 73920, Note_on_c, 0, 90, 0
2, 73920, Note_on_c, 0, 83, 0
2, 73920, Note_on_c, 0, 78, 0
2, 73920, Note_on_c, 0, 80, 0
2, 73920, Note_on_c, 0, 88, 0
2, 73920, Note_on_c, 0, 80, 117
2, 73920, Note_on_c, 0, 92, 117
2, 74640, Note_on_c, 0, 92, 0
2, 74640, Note_on_c, 0, 80, 0
2, 74640, Note_on_c, 0, 76, 91
2, 74640, Note_on_c, 0, 88, 91
2, 74880, Note_on_c, 0, 88, 0
2, 74880, Note_on_c, 0, 76, 0
2, 74880, Note_on_c, 0, 76, 91
2, 74880, Note_on_c, 0, 80, 91
2, 74880, Note_on_c, 0, 85, 91
2, 74880, Note_on_c, 0, 88, 91
2, 75120, Note_on_c, 0, 88, 0
2, 75120, Note_on_c, 0, 76, 0
2, 75120, Note_on_c, 0, 80, 0
2, 75120, Note_on_c, 0, 85, 0
2, 75360, Note_on_c, 0, 68, 117
2, 75360, Note_on_c, 0, 80, 117
2, 76080, Note_on_c, 0, 80, 0
2, 76080, Note_on_c, 0, 68, 0
2, 76080, Note_on_c, 0, 76, 91
2, 76320, Note_on_c, 0, 76, 0
2, 76320, Note_on_c, 0, 64, 91
2, 76320, Note_on_c, 0, 68, 91
2, 76320, Note_on_c, 0, 73, 91
2, 76320, Note_on_c, 0, 76, 91
2, 76560, Note_on_c, 0, 76, 0
2, 76560, Note_on_c, 0, 64, 0
2, 76560, Note_on_c, 0, 68, 0
2, 76560, Note_on_c, 0, 73, 0
2, 76800, Note_on_c, 0, 68, 117
2, 76800, Note_on_c, 0, 80, 117
2, 77520, Note_on_c, 0, 80, 0
2, 77520, Note_on_c, 0, 68, 0
2, 77520, Note_on_c, 0, 76, 91
2, 77760, Note_on_c, 0, 76, 0
2, 77760, Note_on_c, 0, 64, 91
2, 77760, Note_on_c, 0, 68, 91
2, 77760, Note_on_c, 0, 74, 91
2, 77760, Note_on_c, 0, 76, 91
2, 78000, Note_on_c, 0, 76, 0
2, 78000, Note_on_c, 0, 64, 0
2, 78000, Note_on_c, 0, 68, 0
2, 78000, Note_on_c, 0, 74, 0
2, 78240, Note_on_c, 0, 68, 117
2, 78240, Note_on_c, 0, 80, 117
2, 78960, Note_on_c, 0, 80, 0
2, 78960, Note_on_c, 0, 68, 0
2, 78960, Note_on_c, 0, 76, 91
2, 79200, Note_on_c, 0, 76, 0
2, 79200, Note_on_c, 0, 64, 91
2, 79200, Note_on_c, 0, 68, 91
2, 79200, Note_on_c, 0, 74, 91
2, 79200, Note_on_c, 0, 76, 91
2, 79440, Note_on_c, 0, 76, 0
2, 79440, Note_on_c, 0, 64, 0
2, 79440, Note_on_c, 0, 68, 0
2, 79440, Note_on_c, 0, 74, 0
2, 79680, Note_on_c, 0, 66, 117
2, 79680, Note_on_c, 0, 78, 117
2, 80400, Note_on_c, 0, 78, 0
2, 80400, Note_on_c, 0, 66, 0
2, 80400, Note_on_c, 0, 68, 91
2, 80400, Note_on_c, 0, 80, 91
2, 80640, Note_on_c, 0, 80, 0
2, 80640, Note_on_c, 0, 68, 0
2, 80640, Note_on_c, 0, 69, 91
2, 80640, Note_on_c, 0, 73, 91
2, 80640, Note_on_c, 0, 76, 91
2, 80640, Note_on_c, 0, 81, 91
2, 80880, Note_on_c, 0, 81, 0
2, 80880, Note_on_c, 0, 69, 0
2, 80880, Note_on_c, 0, 73, 0
2, 80880, Note_on_c, 0, 76, 0
2, 81120, Note_on_c, 0, 71, 117
2, 81120, Note_on_c, 0, 83, 117
2, 81840, Note_on_c, 0, 83, 0
2, 81840, Note_on_c, 0, 71, 0
2, 81840, Note_on_c, 0, 73, 91
2, 81840, Note_on_c, 0, 85, 91
2, 82080, Note_on_c, 0, 85, 0
2, 82080, Note_on_c, 0, 73, 0
2, 82080, Note_on_c, 0, 68, 117
2, 82080, Note_on_c, 0, 73, 117
2, 82080, Note_on_c, 0, 76, 117
2, 82080, Note_on_c, 0, 80, 117
2, 83040, Note_on_c, 0, 80, 0
2, 83040, Note_on_c, 0, 68, 0
2, 83040, Note_on_c, 0, 69, 91
2, 83040, Note_on_c, 0, 81, 91
2, 83520, Note_on_c, 0, 81, 0
2, 83520, Note_on_c, 0, 73, 0
2, 83520, Note_on_c, 0, 76, 0
2, 83520, Note_on_c, 0, 69, 0
2, 83520, Note_on_c, 0, 71, 91
2, 83520, Note_on_c, 0, 78, 91
2, 83520, Note_on_c, 0, 83, 91
2, 83760, Note_on_c, 0, 83, 0
2, 83760, Note_on_c, 0, 78, 0
2, 83760, Note_on_c, 0, 71, 0
2, 84000, Note_on_c, 0, 73, 117
2, 84000, Note_on_c, 0, 85, 117
2, 84720, Note_on_c, 0, 85, 0
2, 84720, Note_on_c, 0, 73, 0
2, 84720, Note_on_c, 0, 74, 91
2, 84720, Note_on_c, 0, 86, 91
2, 84960, Note_on_c, 0, 86, 0
2, 84960, Note_on_c, 0, 74, 0
2, 84960, Note_on_c, 0, 70, 117
2, 84960, Note_on_c, 0, 74, 117
2, 84960, Note_on_c, 0, 78, 117
2, 84960, Note_on_c, 0, 82, 117
2, 85920, Note_on_c, 0, 82, 0
2, 85920, Note_on_c, 0, 70, 0
2, 85920, Note_on_c, 0, 71, 91
2, 85920, Note_on_c, 0, 83, 91
2, 86400, Note_on_c, 0, 83, 0
2, 86400, Note_on_c, 0, 74, 0
2, 86400, Note_on_c, 0, 78, 0
2, 86400, Note_on_c, 0, 71, 0
2, 86400, Note_on_c, 0, 72, 91
2, 86400, Note_on_c, 0, 84, 91
2, 86880, Note_on_c, 0, 84, 0
2, 86880, Note_on_c, 0, 72, 0
2, 86880, Note_on_c, 0, 73, 91
2, 86880, Note_on_c, 0, 85, 91
2, 87360, Note_on_c, 0, 85, 0
2, 87360, Note_on_c, 0, 73, 0
2, 87360, Note_on_c, 0, 78, 91
2, 87360, Note_on_c, 0, 90, 91
2, 87840, Note_on_c, 0, 90, 0
2, 87840, Note_on_c, 0, 78, 0
2, 87840, Note_on_c, 0, 72, 91
2, 87840, Note_on_c, 0, 84, 91
2, 88320, Note_on_c, 0, 84, 0
2, 88320, Note_on_c, 0, 72, 0
2, 88320, Note_on_c, 0, 73, 91
2, 88320, Note_on_c, 0, 85, 91
2, 88800, Note_on_c, 0, 85, 0
2, 88800, Note_on_c, 0, 73, 0
2, 88800, Note_on_c, 0, 78, 91
2, 88800, Note_on_c, 0, 90, 91
2, 89280, Note_on_c, 0, 90, 0
2, 89280, Note_on_c, 0, 78, 0
2, 89280, Note_on_c, 0, 73, 91
2, 89280, Note_on_c, 0, 85, 91
2, 89760, Note_on_c, 0, 85, 0
2, 89760, Note_on_c, 0, 73, 0
2, 89760, Note_on_c, 0, 74, 91
2, 89760, Note_on_c, 0, 86, 91
2, 90240, Note_on_c, 0, 86, 0
2, 90240, Note_on_c, 0, 74, 0
2, 90240, Note_on_c, 0, 79, 91
2, 90240, Note_on_c, 0, 91, 91
2, 90720, Note_on_c, 0, 91, 0
2, 90720, Note_on_c, 0, 79, 0
2, 90720, Note_on_c, 0, 73, 91
2, 90720, Note_on_c, 0, 85, 91
2, 91200, Note_on_c, 0, 85, 0
2, 91200, Note_on_c, 0, 73, 0
2, 91200, Note_on_c, 0, 74, 91
2, 91200, Note_on_c, 0, 86, 91
2, 91680, Note_on_c, 0, 86, 0
2, 91680, Note_on_c, 0, 74, 0
2, 91680, Note_on_c, 0, 80, 91
2, 91680, Note_on_c, 0, 92, 91
2, 92160, Note_on_c, 0, 92, 0
2, 92160, Note_on_c, 0, 80, 0
2, 92160, Note_on_c, 0, 81, 91
2, 92160, Note_on_c, 0, 85, 91
2, 92160, Note_on_c, 0, 88, 91
2, 92160, Note_on_c, 0, 93, 91
2, 92400, Note_on_c, 0, 93, 0
2, 92400, Note_on_c, 0, 81, 0
2, 92400, Note_on_c, 0, 85, 0
2, 92400, Note_on_c, 0, 88, 0
2, 92640, Note_on_c, 0, 80, 91
2, 92640, Note_on_c, 0, 92, 91
2, 93360, Note_on_c, 0, 92, 0
2, 93360, Note_on_c, 0, 80, 0
2, 93360, Note_on_c, 0, 78, 91
2, 93360, Note_on_c, 0, 90, 91
2, 93600, Note_on_c, 0, 90, 0
2, 93600, Note_on_c, 0, 78, 0
2, 93600, Note_on_c, 0, 78, 91
2, 93600, Note_on_c, 0, 90, 91
2, 94560, Note_on_c, 0, 90, 0
2, 94560, Note_on_c, 0, 78, 0
2, 94560, Note_on_c, 0, 76, 91
2, 94560, Note_on_c, 0, 88, 91
2, 95040, Note_on_c, 0, 88, 0
2, 95040, Note_on_c, 0, 76, 0
2, 95040, Note_on_c, 0, 78, 91
2, 95040, Note_on_c, 0, 80, 91
2, 95040, Note_on_c, 0, 83, 91
2, 95040, Note_on_c, 0, 88, 91
2, 95040, Note_on_c, 0, 90, 91
2, 96960, Note_on_c, 0, 90, 0
2, 96960, Note_on_c, 0, 83, 0
2, 96960, Note_on_c, 0, 78, 0
2, 96960, Note_on_c, 0, 80, 0
2, 96960, Note_on_c, 0, 88, 0
2, 96960, Note_on_c, 0, 80, 117
2, 96960, Note_on_c, 0, 92, 117
2, 97680, Note_on_c, 0, 92, 0
2, 97680, Note_on_c, 0, 80, 0
2, 97680, Note_on_c, 0, 76, 91
2, 97680, Note_on_c, 0, 88, 91
2, 97920, Note_on_c, 0, 88, 0
2, 97920, Note_on_c, 0, 76, 0
2, 97920, Note_on_c, 0, 76, 91
2, 97920, Note_on_c, 0, 80, 91
2, 97920, Note_on_c, 0, 85, 91
2, 97920, Note_on_c, 0, 88, 91
2, 98160, Note_on_c, 0, 88, 0
2, 98160, Note_on_c, 0, 76, 0
2, 98160, Note_on_c, 0, 80, 0
2, 98160, Note_on_c, 0, 85, 0
2, 98400, Note_on_c, 0, 68, 117
2, 98400, Note_on_c, 0, 80, 117
2, 99120, Note_on_c, 0, 80, 0
2, 99120, Note_on_c, 0, 68, 0
2, 99120, Note_on_c, 0, 76, 91
2, 99360, Note_on_c, 0, 76, 0
2, 99360, Note_on_c, 0, 64, 91
2, 99360, Note_on_c, 0, 68, 91
2, 99360, Note_on_c, 0, 73, 91
2, 99360, Note_on_c, 0, 76, 91
2, 99600, Note_on_c, 0, 76, 0
2, 99600, Note_on_c, 0, 64, 0
2, 99600, Note_on_c, 0, 68, 0
2, 99600, Note_on_c, 0, 73, 0
2, 99840, Note_on_c, 0, 68, 117
2, 99840, Note_on_c, 0, 80, 117
2, 100560, Note_on_c, 0, 80, 0
2, 100560, Note_on_c, 0, 68, 0
2, 100560, Note_on_c, 0, 76, 91
2, 100800, Note_on_c, 0, 76, 0
2, 100800, Note_on_c, 0, 64, 91
2, 100800, Note_on_c, 0, 68, 91
2, 100800, Note_on_c, 0, 74, 91
2, 100800, Note_on_c, 0, 76, 91
2, 101040, Note_on_c, 0, 76, 0
2, 101040, Note_on_c, 0, 64, 0
2, 101040, Note_on_c, 0, 68, 0
2, 101040, Note_on_c, 0, 74, 0
2, 101280, Note_on_c, 0, 68, 117
2, 101280, Note_on_c, 0, 80, 117
2, 102000, Note_on_c, 0, 80, 0
2, 102000, Note_on_c, 0, 68, 0
2, 102000, Note_on_c, 0, 76, 91
2, 102240, Note_on_c, 0, 76, 0
2, 102240, Note_on_c, 0, 64, 91
2, 102240, Note_on_c, 0, 68, 91
2, 102240, Note_on_c, 0, 74, 91
2, 102240, Note_on_c, 0, 76, 91
2, 102480, Note_on_c, 0, 76, 0
2, 102480, Note_on_c, 0, 64, 0
2, 102480, Note_on_c, 0, 68, 0
2, 102480, Note_on_c, 0, 74, 0
2, 102720, Note_on_c, 0, 66, 117
2, 102720, Note_on_c, 0, 78, 117
2, 103440, Note_on_c, 0, 78, 0
2, 103440, Note_on_c, 0, 66, 0
2, 103440, Note_on_c, 0, 68, 91
2, 103440, Note_on_c, 0, 80, 91
2, 103680, Note_on_c, 0, 80, 0
2, 103680, Note_on_c, 0, 68, 0
2, 103680, Note_on_c, 0, 69, 91
2, 103680, Note_on_c, 0, 73, 91
2, 103680, Note_on_c, 0, 76, 91
2, 103680, Note_on_c, 0, 81, 91
2, 103920, Note_on_c, 0, 81, 0
2, 103920, Note_on_c, 0, 69, 0
2, 103920, Note_on_c, 0, 73, 0
2, 103920, Note_on_c, 0, 76, 0
2, 104160, Note_on_c, 0, 71, 117
2, 104160, Note_on_c, 0, 83, 117
2, 104880, Note_on_c, 0, 83, 0
2, 104880, Note_on_c, 0, 71, 0
2, 104880, Note_on_c, 0, 73, 91
2, 104880, Note_on_c, 0, 85, 91
2, 105120, Note_on_c, 0, 85, 0
2, 105120, Note_on_c, 0, 73, 0
2, 105120, Note_on_c, 0, 68, 117
2, 105120, Note_on_c, 0, 73, 117
2, 105120, Note_on_c, 0, 76, 117
2, 105120, Note_on_c, 0, 80, 117
2, 106080, Note_on_c, 0, 80, 0
2, 106080, Note_on_c, 0, 68, 0
2, 106080, Note_on_c, 0, 69, 91
2, 106080, Note_on_c, 0, 81, 91
2, 106560, Note_on_c, 0, 81, 0
2, 106560, Note_on_c, 0, 73, 0
2, 106560, Note_on_c, 0, 76, 0
2, 106560, Note_on_c, 0, 69, 0
2, 106560, Note_on_c, 0, 71, 91
2, 106560, Note_on_c, 0, 78, 91
2, 106560, Note_on_c, 0, 83, 91
2, 106800, Note_on_c, 0, 83, 0
2, 106800, Note_on_c, 0, 78, 0
2, 106800, Note_on_c, 0, 71, 0
2, 107040, Note_on_c, 0, 73, 117
2, 107040, Note_on_c, 0, 85, 117
2, 107760, Note_on_c, 0, 85, 0
2, 107760, Note_on_c, 0, 73, 0
2, 107760, Note_on_c, 0, 74, 91
2, 107760, Note_on_c, 0, 86, 91
2, 108000, Note_on_c, 0, 86, 0
2, 108000, Note_on_c, 0, 74, 0
2, 108000, Note_on_c, 0, 70, 117
2, 108000, Note_on_c, 0, 74, 117
2, 108000, Note_on_c, 0, 78, 117
2, 108000, Note_on_c, 0, 82, 117
2, 108960, Note_on_c, 0, 82, 0
2, 108960, Note_on_c, 0, 70, 0
2, 108960, Note_on_c, 0, 71, 91
2, 108960, Note_on_c, 0, 83, 91
2, 109440, Note_on_c, 0, 83, 0
2, 109440, Note_on_c, 0, 74, 0
2, 109440, Note_on_c, 0, 78, 0
2, 109440, Note_on_c, 0, 71, 0
2, 109440, Note_on_c, 0, 72, 91
2, 109440, Note_on_c, 0, 84, 91
2, 109920, Note_on_c, 0, 84, 0
2, 109920, Note_on_c, 0, 72, 0
2, 109920, Note_on_c, 0, 73, 91
2, 109920, Note_on_c, 0, 85, 91
2, 110400, Note_on_c, 0, 85, 0
2, 110400, Note_on_c, 0, 73, 0
2, 110400, Note_on_c, 0, 78, 91
2, 110400, Note_on_c, 0, 90, 91
2, 110880, Note_on_c, 0, 90, 0
2, 110880, Note_on_c, 0, 78, 0
2, 110880, Note_on_c, 0, 72, 91
2, 110880, Note_on_c, 0, 84, 91
2, 111360, Note_on_c, 0, 84, 0
2, 111360, Note_on_c, 0, 72, 0
2, 111360, Note_on_c, 0, 73, 91
2, 111360, Note_on_c, 0, 85, 91
2, 111840, Note_on_c, 0, 85, 0
2, 111840, Note_on_c, 0, 73, 0
2, 111840, Note_on_c, 0, 78, 91
2, 111840, Note_on_c, 0, 90, 91
2, 112320, Note_on_c, 0, 90, 0
2, 112320, Note_on_c, 0, 78, 0
2, 112320, Note_on_c, 0, 73, 91
2, 112320, Note_on_c, 0, 85, 91
2, 112800, Note_on_c, 0, 85, 0
2, 112800, Note_on_c, 0, 73, 0
2, 112800, Note_on_c, 0, 74, 91
2, 112800, Note_on_c, 0, 86, 91
2, 113280, Note_on_c, 0, 86, 0
2, 113280, Note_on_c, 0, 74, 0
2, 113280, Note_on_c, 0, 79, 91
2, 113280, Note_on_c, 0, 91, 91
2, 113760, Note_on_c, 0, 91, 0
2, 113760, Note_on_c, 0, 79, 0
2, 113760, Note_on_c, 0, 73, 91
2, 113760, Note_on_c, 0, 85, 91
2, 114240, Note_on_c, 0, 85, 0
2, 114240, Note_on_c, 0, 73, 0
2, 114240, Note_on_c, 0, 74, 91
2, 114240, Note_on_c, 0, 86, 91
2, 114720, Note_on_c, 0, 86, 0
2, 114720, Note_on_c, 0, 74, 0
2, 114720, Note_on_c, 0, 80, 91
2, 114720, Note_on_c, 0, 92, 91
2, 115200, Note_on_c, 0, 92, 0
2, 115200, Note_on_c, 0, 80, 0
2, 115200, Note_on_c, 0, 81, 91
2, 115200, Note_on_c, 0, 85, 91
2, 115200, Note_on_c, 0, 88, 91
2, 115200, Note_on_c, 0, 93, 91
2, 115680, Note_on_c, 0, 93, 0
2, 115680, Note_on_c, 0, 81, 0
2, 115680, Note_on_c, 0, 85, 0
2, 115680, Note_on_c, 0, 88, 0
2, 115680, Note_on_c, 0, 69, 91
2, 115680, Note_on_c, 0, 73, 91
2, 115680, Note_on_c, 0, 76, 91
2, 115680, Note_on_c, 0, 81, 91
2, 116400, Note_on_c, 0, 81, 0
2, 116400, Note_on_c, 0, 69, 0
2, 116400, Note_on_c, 0, 73, 0
2, 116400, Note_on_c, 0, 76, 0
2, 116400, Note_on_c, 0, 69, 91
2, 116400, Note_on_c, 0, 73, 91
2, 116400, Note_on_c, 0, 76, 91
2, 116400, Note_on_c, 0, 81, 91
2, 116640, Note_on_c, 0, 81, 0
2, 116640, Note_on_c, 0, 69, 0
2, 116640, Note_on_c, 0, 73, 0
2, 116640, Note_on_c, 0, 76, 0
2, 116640, Note_on_c, 0, 69, 91
2, 116640, Note_on_c, 0, 73, 91
2, 116640, Note_on_c, 0, 76, 91
2, 116640, Note_on_c, 0, 81, 91
2, 117120, Note_on_c, 0, 81, 0
2, 117120, Note_on_c, 0, 69, 0
2, 117120, Note_on_c, 0, 73, 0
2, 117120, Note_on_c, 0, 76, 0
2, 118560, Note_on_c, 0, 73, 52
2, 118560, Note_on_c, 0, 78, 52
2, 118560, Note_on_c, 0, 81, 52
2, 118560, Note_on_c, 0, 85, 52
2, 119520, Note_on_c, 0, 85, 0
2, 119520, Note_on_c, 0, 73, 0
2, 119520, Note_on_c, 0, 78, 0
2, 119520, Note_on_c, 0, 81, 0
2, 119520, Note_on_c, 0, 73, 52
2, 119520, Note_on_c, 0, 78, 52
2, 119520, Note_on_c, 0, 81, 52
2, 119520, Note_on_c, 0, 85, 52
2, 120480, Note_on_c, 0, 85, 0
2, 120480, Note_on_c, 0, 73, 0
2, 120480, Note_on_c, 0, 78, 0
2, 120480, Note_on_c, 0, 81, 0
2, 120480, Note_on_c, 0, 73, 52
2, 120480, Note_on_c, 0, 78, 52
2, 120480, Note_on_c, 0, 81, 52
2, 120480, Note_on_c, 0, 85, 52
2, 121440, Note_on_c, 0, 85, 0
2, 121440, Note_on_c, 0, 73, 0
2, 121440, Note_on_c, 0, 78, 0
2, 121440, Note_on_c, 0, 81, 0
2, 121440, Note_on_c, 0, 73, 52
2, 121440, Note_on_c, 0, 78, 52
2, 121440, Note_on_c, 0, 81, 52
2, 121440, Note_on_c, 0, 85, 52
2, 122400, Note_on_c, 0, 85, 0
2, 122400, Note_on_c, 0, 73, 0
2, 122400, Note_on_c, 0, 78, 0
2, 122400, Note_on_c, 0, 81, 0
2, 122400, Note_on_c, 0, 69, 52
2, 122400, Note_on_c, 0, 73, 52
2, 122400, Note_on_c, 0, 78, 52
2, 122880, Note_on_c, 0, 78, 0
2, 122880, Note_on_c, 0, 73, 0
2, 122880, Note_on_c, 0, 69, 0
2, 122880, Note_on_c, 0, 71, 78
2, 122880, Note_on_c, 0, 73, 78
2, 122880, Note_on_c, 0, 77, 78
2, 122880, Note_on_c, 0, 81, 78
2, 123600, Note_on_c, 0, 81, 0
2, 123600, Note_on_c, 0, 71, 0
2, 123600, Note_on_c, 0, 73, 0
2, 123600, Note_on_c, 0, 77, 0
2, 123600, Note_on_c, 0, 71, 52
2, 123600, Note_on_c, 0, 73, 52
2, 123600, Note_on_c, 0, 77, 52
2, 123600, Note_on_c, 0, 80, 52
2, 123840, Note_on_c, 0, 80, 0
2, 123840, Note_on_c, 0, 71, 0
2, 123840, Note_on_c, 0, 73, 0
2, 123840, Note_on_c, 0, 77, 0
2, 123840, Note_on_c, 0, 69, 52
2, 123840, Note_on_c, 0, 73, 52
2, 123840, Note_on_c, 0, 78, 52
2, 124320, Note_on_c, 0, 78, 0
2, 124320, Note_on_c, 0, 73, 0
2, 124320, Note_on_c, 0, 69, 0
2, 124320, Note_on_c, 0, 73, 52
2, 124320, Note_on_c, 0, 78, 52
2, 124320, Note_on_c, 0, 81, 52
2, 124320, Note_on_c, 0, 85, 52
2, 125280, Note_on_c, 0, 85, 0
2, 125280, Note_on_c, 0, 73, 0
2, 125280, Note_on_c, 0, 78, 0
2, 125280, Note_on_c, 0, 81, 0
2, 125280, Note_on_c, 0, 73, 52
2, 125280, Note_on_c, 0, 78, 52
2, 125280, Note_on_c, 0, 81, 52
2, 125280, Note_on_c, 0, 85, 52
2, 126240, Note_on_c, 0, 85, 0
2, 126240, Note_on_c, 0, 73, 0
2, 126240, Note_on_c, 0, 78, 0
2, 126240, Note_on_c, 0, 81, 0
2, 126240, Note_on_c, 0, 73, 52
2, 126240, Note_on_c, 0, 78, 52
2, 126240, Note_on_c, 0, 81, 52
2, 126240, Note_on_c, 0, 85, 52
2, 126720, Note_on_c, 0, 85, 0
2, 126720, Note_on_c, 0, 73, 0
2, 126720, Note_on_c, 0, 78, 0
2, 126720, Note_on_c, 0, 81, 0
2, 126720, Note_on_c, 0, 69, 52
2, 126720, Note_on_c, 0, 73, 52
2, 126720, Note_on_c, 0, 78, 52
2, 127200, Note_on_c, 0, 78, 0
2, 127200, Note_on_c, 0, 73, 0
2, 127200, Note_on_c, 0, 69, 0
2, 127200, Note_on_c, 0, 71, 78
2, 127200, Note_on_c, 0, 73, 78
2, 127200, Note_on_c, 0, 77, 78
2, 127200, Note_on_c, 0, 81, 78
2, 127920, Note_on_c, 0, 81, 0
2, 127920, Note_on_c, 0, 71, 0
2, 127920, Note_on_c, 0, 73, 0
2, 127920, Note_on_c, 0, 77, 0
2, 127920, Note_on_c, 0, 71, 52
2, 127920, Note_on_c, 0, 73, 52
2, 127920, Note_on_c, 0, 77, 52
2, 127920, Note_on_c, 0, 80, 52
2, 128160, Note_on_c, 0, 80, 0
2, 128160, Note_on_c, 0, 71, 0
2, 128160, Note_on_c, 0, 73, 0
2, 128160, Note_on_c, 0, 77, 0
2, 128160, Note_on_c, 0, 69, 52
2, 128160, Note_on_c, 0, 73, 52
2, 128160, Note_on_c, 0, 78, 52
2, 128640, Note_on_c, 0, 78, 0
2, 128640, Note_on_c, 0, 73, 0
2, 128640, Note_on_c, 0, 69, 0
2, 130080, Note_on_c, 0, 73, 52
2, 130080, Note_on_c, 0, 78, 52
2, 130080, Note_on_c, 0, 81, 52
2, 130080, Note_on_c, 0, 85, 52
2, 131040, Note_on_c, 0, 85, 0
2, 131040, Note_on_c, 0, 73, 0
2, 131040, Note_on_c, 0, 78, 0
2, 131040, Note_on_c, 0, 81, 0
2, 131040, Note_on_c, 0, 73, 52
2, 131040, Note_on_c, 0, 78, 52
2, 131040, Note_on_c, 0, 81, 52
2, 131040, Note_on_c, 0, 85, 52
2, 132000, Note_on_c, 0, 85, 0
2, 132000, Note_on_c, 0, 73, 0
2, 132000, Note_on_c, 0, 78, 0
2, 132000, Note_on_c, 0, 81, 0
2, 132000, Note_on_c, 0, 73, 52
2, 132000, Note_on_c, 0, 78, 52
2, 132000, Note_on_c, 0, 81, 52
2, 132000, Note_on_c, 0, 85, 52
2, 132960, Note_on_c, 0, 85, 0
2, 132960, Note_on_c, 0, 73, 0
2, 132960, Note_on_c, 0, 78, 0
2, 132960, Note_on_c, 0, 81, 0
2, 132960, Note_on_c, 0, 73, 52
2, 132960, Note_on_c, 0, 78, 52
2, 132960, Note_on_c, 0, 81, 52
2, 132960, Note_on_c, 0, 85, 52
2, 133920, Note_on_c, 0, 85, 0
2, 133920, Note_on_c, 0, 73, 0
2, 133920, Note_on_c, 0, 78, 0
2, 133920, Note_on_c, 0, 81, 0
2, 133920, Note_on_c, 0, 69, 52
2, 133920, Note_on_c, 0, 73, 52
2, 133920, Note_on_c, 0, 78, 52
2, 134400, Note_on_c, 0, 78, 0
2, 134400, Note_on_c, 0, 73, 0
2, 134400, Note_on_c, 0, 69, 0
2, 134400, Note_on_c, 0, 71, 78
2, 134400, Note_on_c, 0, 73, 78
2, 134400, Note_on_c, 0, 77, 78
2, 134400, Note_on_c, 0, 81, 78
2, 135120, Note_on_c, 0, 81, 0
2, 135120, Note_on_c, 0, 71, 0
2, 135120, Note_on_c, 0, 73, 0
2, 135120, Note_on_c, 0, 77, 0
2, 135120, Note_on_c, 0, 71, 52
2, 135120, Note_on_c, 0, 73, 52
2, 135120, Note_on_c, 0, 77, 52
2, 135120, Note_on_c, 0, 80, 52
2, 135360, Note_on_c, 0, 80, 0
2, 135360, Note_on_c, 0, 71, 0
2, 135360, Note_on_c, 0, 73, 0
2, 135360, Note_on_c, 0, 77, 0
2, 135360, Note_on_c, 0, 69, 52
2, 135360, Note_on_c, 0, 73, 52
2, 135360, Note_on_c, 0, 78, 52
2, 135840, Note_on_c, 0, 78, 0
2, 135840, Note_on_c, 0, 73, 0
2, 135840, Note_on_c, 0, 69, 0
2, 135840, Note_on_c, 0, 73, 52
2, 135840, Note_on_c, 0, 78, 52
2, 135840, Note_on_c, 0, 81, 52
2, 135840, Note_on_c, 0, 85, 52
2, 136800, Note_on_c, 0, 85, 0
2, 136800, Note_on_c, 0, 73, 0
2, 136800, Note_on_c, 0, 78, 0
2, 136800, Note_on_c, 0, 81, 0
2, 136800, Note_on_c, 0, 73, 52
2, 136800, Note_on_c, 0, 78, 52
2, 136800, Note_on_c, 0, 81, 52
2, 136800, Note_on_c, 0, 85, 52
2, 137760, Note_on_c, 0, 85, 0
2, 137760, Note_on_c, 0, 73, 0
2, 137760, Note_on_c, 0, 78, 0
2, 137760, Note_on_c, 0, 81, 0
2, 137760, Note_on_c, 0, 73, 52
2, 137760, Note_on_c, 0, 78, 52
2, 137760, Note_on_c, 0, 81, 52
2, 137760, Note_on_c, 0, 85, 52
2, 138240, Note_on_c, 0, 85, 0
2, 138240, Note_on_c, 0, 73, 0
2, 138240, Note_on_c, 0, 78, 0
2, 138240, Note_on_c, 0, 81, 0
2, 138240, Note_on_c, 0, 69, 52
2, 138240, Note_on_c, 0, 73, 52
2, 138240, Note_on_c, 0, 78, 52
2, 138720, Note_on_c, 0, 78, 0
2, 138720, Note_on_c, 0, 73, 0
2, 138720, Note_on_c, 0, 69, 0
2, 138720, Note_on_c, 0, 71, 78
2, 138720, Note_on_c, 0, 73, 78
2, 138720, Note_on_c, 0, 77, 78
2, 138720, Note_on_c, 0, 81, 78
2, 139440, Note_on_c, 0, 81, 0
2, 139440, Note_on_c, 0, 71, 0
2, 139440, Note_on_c, 0, 73, 0
2, 139440, Note_on_c, 0, 77, 0
2, 139440, Note_on_c, 0, 71, 52
2, 139440, Note_on_c, 0, 73, 52
2, 139440, Note_on_c, 0, 77, 52
2, 139440, Note_on_c, 0, 80, 52
2, 139680, Note_on_c, 0, 80, 0
2, 139680, Note_on_c, 0, 71, 0
2, 139680, Note_on_c, 0, 73, 0
2, 139680, Note_on_c, 0, 77, 0
2, 139680, Note_on_c, 0, 69, 52
2, 139680, Note_on_c, 0, 73, 52
2, 139680, Note_on_c, 0, 78, 52
2, 140160, Note_on_c, 0, 78, 0
2, 140160, Note_on_c, 0, 73, 0
2, 140160, Note_on_c, 0, 69, 0
2, 141600, Note_on_c, 0, 73, 65
2, 141600, Note_on_c, 0, 78, 65
2, 141600, Note_on_c, 0, 81, 65
2, 141600, Note_on_c, 0, 85, 65
2, 142560, Note_on_c, 0, 85, 0
2, 142560, Note_on_c, 0, 73, 0
2, 142560, Note_on_c, 0, 78, 0
2, 142560, Note_on_c, 0, 81, 0
2, 142560, Note_on_c, 0, 73, 65
2, 142560, Note_on_c, 0, 78, 65
2, 142560, Note_on_c, 0, 81, 65
2, 142560, Note_on_c, 0, 85, 65
2, 143520, Note_on_c, 0, 85, 0
2, 143520, Note_on_c, 0, 73, 0
2, 143520, Note_on_c, 0, 78, 0
2, 143520, Note_on_c, 0, 81, 0
2, 143520, Note_on_c, 0, 73, 65
2, 143520, Note_on_c, 0, 78, 65
2, 143520, Note_on_c, 0, 81, 65
2, 143520, Note_on_c, 0, 85, 65
2, 144480, Note_on_c, 0, 85, 0
2, 144480, Note_on_c, 0, 73, 0
2, 144480, Note_on_c, 0, 78, 0
2, 144480, Note_on_c, 0, 81, 0
2, 144480, Note_on_c, 0, 73, 65
2, 144480, Note_on_c, 0, 78, 65
2, 144480, Note_on_c, 0, 81, 65
2, 144480, Note_on_c, 0, 85, 65
2, 145440, Note_on_c, 0, 85, 0
2, 145440, Note_on_c, 0, 73, 0
2, 145440, Note_on_c, 0, 78, 0
2, 145440, Note_on_c, 0, 81, 0
2, 145440, Note_on_c, 0, 69, 65
2, 145440, Note_on_c, 0, 73, 65
2, 145440, Note_on_c, 0, 78, 65
2, 145920, Note_on_c, 0, 78, 0
2, 145920, Note_on_c, 0, 73, 0
2, 145920, Note_on_c, 0, 69, 0
2, 145920, Note_on_c, 0, 71, 91
2, 145920, Note_on_c, 0, 73, 91
2, 145920, Note_on_c, 0, 77, 91
2, 145920, Note_on_c, 0, 81, 91
2, 146640, Note_on_c, 0, 81, 0
2, 146640, Note_on_c, 0, 71, 0
2, 146640, Note_on_c, 0, 73, 0
2, 146640, Note_on_c, 0, 77, 0
2, 146640, Note_on_c, 0, 71, 65
2, 146640, Note_on_c, 0, 73, 65
2, 146640, Note_on_c, 0, 77, 65
2, 146640, Note_on_c, 0, 80, 65
2, 146880, Note_on_c, 0, 80, 0
2, 146880, Note_on_c, 0, 71, 0
2, 146880, Note_on_c, 0, 73, 0
2, 146880, Note_on_c, 0, 77, 0
2, 146880, Note_on_c, 0, 69, 65
2, 146880, Note_on_c, 0, 73, 65
2, 146880, Note_on_c, 0, 78, 65
2, 147360, Note_on_c, 0, 78, 0
2, 147360, Note_on_c, 0, 73, 0
2, 147360, Note_on_c, 0, 69, 0
2, 147360, Note_on_c, 0, 73, 65
2, 147360, Note_on_c, 0, 78, 65
2, 147360, Note_on_c, 0, 81, 65
2, 147360, Note_on_c, 0, 85, 65
2, 148320, Note_on_c, 0, 85, 0
2, 148320, Note_on_c, 0, 73, 0
2, 148320, Note_on_c, 0, 78, 0
2, 148320, Note_on_c, 0, 81, 0
2, 148320, Note_on_c, 0, 73, 65
2, 148320, Note_on_c, 0, 78, 65
2, 148320, Note_on_c, 0, 81, 65
2, 148320, Note_on_c, 0, 85, 65
2, 149280, Note_on_c, 0, 85, 0
2, 149280, Note_on_c, 0, 73, 0
2, 149280, Note_on_c, 0, 78, 0
2, 149280, Note_on_c, 0, 81, 0
2, 149280, Note_on_c, 0, 73, 65
2, 149280, Note_on_c, 0, 78, 65
2, 149280, Note_on_c, 0, 81, 65
2, 149280, Note_on_c, 0, 85, 65
2, 149760, Note_on_c, 0, 85, 0
2, 149760, Note_on_c, 0, 73, 0
2, 149760, Note_on_c, 0, 78, 0
2, 149760, Note_on_c, 0, 81, 0
2, 149760, Note_on_c, 0, 69, 65
2, 149760, Note_on_c, 0, 73, 65
2, 149760, Note_on_c, 0, 78, 65
2, 150240, Note_on_c, 0, 78, 0
2, 150240, Note_on_c, 0, 73, 0
2, 150240, Note_on_c, 0, 69, 0
2, 150240, Note_on_c, 0, 71, 91
2, 150240, Note_on_c, 0, 73, 91
2, 150240, Note_on_c, 0, 77, 91
2, 150240, Note_on_c, 0, 81, 91
2, 150960, Note_on_c, 0, 81, 0
2, 150960, Note_on_c, 0, 71, 0
2, 150960, Note_on_c, 0, 73, 0
2, 150960, Note_on_c, 0, 77, 0
2, 150960, Note_on_c, 0, 71, 65
2, 150960, Note_on_c, 0, 73, 65
2, 150960, Note_on_c, 0, 77, 65
2, 150960, Note_on_c, 0, 80, 65
2, 151200, Note_on_c, 0, 80, 0
2, 151200, Note_on_c, 0, 71, 0
2, 151200, Note_on_c, 0, 73, 0
2, 151200, Note_on_c, 0, 77, 0
2, 151200, Note_on_c, 0, 69, 65
2, 151200, Note_on_c, 0, 73, 65
2, 151200, Note_on_c, 0, 78, 65
2, 151680, Note_on_c, 0, 78, 0
2, 151680, Note_on_c, 0, 73, 0
2, 151680, Note_on_c, 0, 69, 0
2, 153120, Note_on_c, 0, 73, 65
2, 153120, Note_on_c, 0, 78, 65
2, 153120, Note_on_c, 0, 81, 65
2, 153120, Note_on_c, 0, 85, 65
2, 154080, Note_on_c, 0, 85, 0
2, 154080, Note_on_c, 0, 73, 0
2, 154080, Note_on_c, 0, 78, 0
2, 154080, Note_on_c, 0, 81, 0
2, 154080, Note_on_c, 0, 73, 65
2, 154080, Note_on_c, 0, 78, 65
2, 154080, Note_on_c, 0, 81, 65
2, 154080, Note_on_c, 0, 85, 65
2, 155040, Note_on_c, 0, 85, 0
2, 155040, Note_on_c, 0, 73, 0
2, 155040, Note_on_c, 0, 78, 0
2, 155040, Note_on_c, 0, 81, 0
2, 155040, Note_on_c, 0, 73, 65
2, 155040, Note_on_c, 0, 78, 65
2, 155040, Note_on_c, 0, 81, 65
2, 155040, Note_on_c, 0, 85, 65
2, 156000, Note_on_c, 0, 85, 0
2, 156000, Note_on_c, 0, 73, 0
2, 156000, Note_on_c, 0, 78, 0
2, 156000, Note_on_c, 0, 81, 0
2, 156000, Note_on_c, 0, 73, 65
2, 156000, Note_on_c, 0, 78, 65
2, 156000, Note_on_c, 0, 81, 65
2, 156000, Note_on_c, 0, 85, 65
2, 156960, Note_on_c, 0, 85, 0
2, 156960, Note_on_c, 0, 73, 0
2, 156960, Note_on_c, 0, 78, 0
2, 156960, Note_on_c, 0, 81, 0
2, 156960, Note_on_c, 0, 69, 65
2, 156960, Note_on_c, 0, 73, 65
2, 156960, Note_on_c, 0, 78, 65
2, 157440, Note_on_c, 0, 78, 0
2, 157440, Note_on_c, 0, 73, 0
2, 157440, Note_on_c, 0, 69, 0
2, 157440, Note_on_c, 0, 71, 91
2, 157440, Note_on_c, 0, 73, 91
2, 157440, Note_on_c, 0, 77, 91
2, 157440, Note_on_c, 0, 81, 91
2, 158160, Note_on_c, 0, 81, 0
2, 158160, Note_on_c, 0, 71, 0
2, 158160, Note_on_c, 0, 73, 0
2, 158160, Note_on_c, 0, 77, 0
2, 158160, Note_on_c, 0, 71, 65
2, 158160, Note_on_c, 0, 73, 65
2, 158160, Note_on_c, 0, 77, 65
2, 158160, Note_on_c, 0, 80, 65
2, 158400, Note_on_c, 0, 80, 0
2, 158400, Note_on_c, 0, 71, 0
2, 158400, Note_on_c, 0, 73, 0
2, 158400, Note_on_c, 0, 77, 0
2, 158400, Note_on_c, 0, 69, 65
2, 158400, Note_on_c, 0, 73, 65
2, 158400, Note_on_c, 0, 78, 65
2, 158880, Note_on_c, 0, 78, 0
2, 158880, Note_on_c, 0, 73, 0
2, 158880, Note_on_c, 0, 69, 0
2, 158880, Note_on_c, 0, 73, 65
2, 158880, Note_on_c, 0, 78, 65
2, 158880, Note_on_c, 0, 81, 65
2, 158880, Note_on_c, 0, 85, 65
2, 159840, Note_on_c, 0, 85, 0
2, 159840, Note_on_c, 0, 73, 0
2, 159840, Note_on_c, 0, 78, 0
2, 159840, Note_on_c, 0, 81, 0
2, 159840, Note_on_c, 0, 73, 65
2, 159840, Note_on_c, 0, 78, 65
2, 159840, Note_on_c, 0, 81, 65
2, 159840, Note_on_c, 0, 85, 65
2, 160800, Note_on_c, 0, 85, 0
2, 160800, Note_on_c, 0, 73, 0
2, 160800, Note_on_c, 0, 78, 0
2, 160800, Note_on_c, 0, 81, 0
2, 160800, Note_on_c, 0, 73, 65
2, 160800, Note_on_c, 0, 78, 65
2, 160800, Note_on_c, 0, 81, 65
2, 160800, Note_on_c, 0, 85, 65
2, 161280, Note_on_c, 0, 85, 0
2, 161280, Note_on_c, 0, 73, 0
2, 161280, Note_on_c, 0, 78, 0
2, 161280, Note_on_c, 0, 81, 0
2, 161280, Note_on_c, 0, 69, 65
2, 161280, Note_on_c, 0, 73, 65
2, 161280, Note_on_c, 0, 78, 65
2, 161760, Note_on_c, 0, 78, 0
2, 161760, Note_on_c, 0, 73, 0
2, 161760, Note_on_c, 0, 69, 0
2, 161760, Note_on_c, 0, 71, 91
2, 161760, Note_on_c, 0, 73, 91
2, 161760, Note_on_c, 0, 77, 91
2, 161760, Note_on_c, 0, 81, 91
2, 162480, Note_on_c, 0, 81, 0
2, 162480, Note_on_c, 0, 71, 0
2, 162480, Note_on_c, 0, 73, 0
2, 162480, Note_on_c, 0, 77, 0
2, 162480, Note_on_c, 0, 71, 65
2, 162480, Note_on_c, 0, 73, 65
2, 162480, Note_on_c, 0, 77, 65
2, 162480, Note_on_c, 0, 80, 65
2, 162720, Note_on_c, 0, 80, 0
2, 162720, Note_on_c, 0, 71, 0
2, 162720, Note_on_c, 0, 73, 0
2, 162720, Note_on_c, 0, 77, 0
2, 162720, Note_on_c, 0, 69, 65
2, 162720, Note_on_c, 0, 73, 65
2, 162720, Note_on_c, 0, 78, 65
2, 163200, Note_on_c, 0, 78, 0
2, 163200, Note_on_c, 0, 73, 0
2, 163200, Note_on_c, 0, 69, 0
2, 164160, Control_c, 0, 64, 127
2, 164160, Note_on_c, 0, 64, 65
2, 164400, Note_on_c, 0, 64, 0
2, 164400, Note_on_c, 0, 66, 65
2, 164640, Note_on_c, 0, 66, 0
2, 164640, Note_on_c, 0, 68, 65
2, 164880, Note_on_c, 0, 68, 0
2, 164880, Note_on_c, 0, 69, 65
2, 165120, Note_on_c, 0, 69, 0
2, 165120, Note_on_c, 0, 70, 65
2, 165360, Note_on_c, 0, 70, 0
2, 165360, Control_c, 0, 64, 0
2, 165360, Note_on_c, 0, 71, 65
2, 165600, Note_on_c, 0, 71, 0
2, 165600, Control_c, 0, 64, 127
2, 165600, Note_on_c, 0, 73, 65
2, 165840, Note_on_c, 0, 73, 0
2, 165840, Note_on_c, 0, 71, 65
2, 166080, Note_on_c, 0, 71, 0
2, 166080, Note_on_c, 0, 70, 65
2, 166320, Note_on_c, 0, 70, 0
2, 166320, Note_on_c, 0, 71, 65
2, 166560, Note_on_c, 0, 71, 0
2, 166560, Note_on_c, 0, 73, 65
2, 166800, Note_on_c, 0, 73, 0
2, 166800, Control_c, 0, 64, 0
2, 166800, Note_on_c, 0, 71, 65
2, 167040, Note_on_c, 0, 71, 0
2, 167040, Control_c, 0, 64, 127
2, 167040, Note_on_c, 0, 70, 65
2, 167280, Note_on_c, 0, 70, 0
2, 167280, Note_on_c, 0, 71, 65
2, 167520, Note_on_c, 0, 71, 0
2, 167520, Note_on_c, 0, 73, 65
2, 167760, Note_on_c, 0, 73, 0
2, 167760, Note_on_c, 0, 71, 65
2, 168000, Note_on_c, 0, 71, 0
2, 168000, Note_on_c, 0, 70, 65
2, 168240, Note_on_c, 0, 70, 0
2, 168240, Control_c, 0, 64, 0
2, 168240, Note_on_c, 0, 71, 65
2, 168480, Note_on_c, 0, 71, 0
2, 168480, Control_c, 0, 64, 127
2, 168480, Note_on_c, 0, 69, 65
2, 168720, Note_on_c, 0, 69, 0
2, 168720, Note_on_c, 0, 73, 65
2, 168960, Note_on_c, 0, 73, 0
2, 168960, Note_on_c, 0, 75, 65
2, 169200, Note_on_c, 0, 75, 0
2, 169200, Note_on_c, 0, 76, 65
2, 169440, Note_on_c, 0, 76, 0
2, 169440, Note_on_c, 0, 78, 65
2, 169680, Note_on_c, 0, 78, 0
2, 169680, Control_c, 0, 64, 0
2, 169680, Note_on_c, 0, 76, 65
2, 169920, Note_on_c, 0, 76, 0
2, 169920, Control_c, 0, 64, 127
2, 169920, Note_on_c, 0, 64, 65
2, 170160, Note_on_c, 0, 64, 0
2, 170160, Note_on_c, 0, 66, 65
2, 170400, Note_on_c, 0, 66, 0
2, 170400, Note_on_c, 0, 68, 65
2, 170640, Note_on_c, 0, 68, 0
2, 170640, Note_on_c, 0, 69, 65
2, 170880, Note_on_c, 0, 69, 0
2, 170880, Note_on_c, 0, 70, 65
2, 171120, Note_on_c, 0, 70, 0
2, 171120, Control_c, 0, 64, 0
2, 171120, Note_on_c, 0, 71, 65
2, 171360, Note_on_c, 0, 71, 0
2, 171360, Control_c, 0, 64, 127
2, 171360, Note_on_c, 0, 73, 65
2, 171600, Note_on_c, 0, 73, 0
2, 171600, Note_on_c, 0, 71, 65
2, 171840, Note_on_c, 0, 71, 0
2, 171840, Note_on_c, 0, 70, 65
2, 172080, Note_on_c, 0, 70, 0
2, 172080, Note_on_c, 0, 71, 65
2, 172320, Note_on_c, 0, 71, 0
2, 172320, Note_on_c, 0, 73, 65
2, 172560, Note_on_c, 0, 73, 0
2, 172560, Control_c, 0, 64, 0
2, 172560, Note_on_c, 0, 71, 65
2, 172800, Note_on_c, 0, 71, 0
2, 172800, Control_c, 0, 64, 127
2, 172800, Note_on_c, 0, 70, 65
2, 173040, Note_on_c, 0, 70, 0
2, 173040, Note_on_c, 0, 71, 65
2, 173280, Note_on_c, 0, 71, 0
2, 173280, Note_on_c, 0, 73, 65
2, 173520, Note_on_c, 0, 73, 0
2, 173520, Note_on_c, 0, 71, 65
2, 173760, Note_on_c, 0, 71, 0
2, 173760, Note_on_c, 0, 70, 65
2, 174000, Note_on_c, 0, 70, 0
2, 174000, Control_c, 0, 64, 0
2, 174000, Note_on_c, 0, 71, 65
2, 174240, Note_on_c, 0, 71, 0
2, 174240, Control_c, 0, 64, 127
2, 174240, Note_on_c, 0, 69, 65
2, 174480, Note_on_c, 0, 69, 0
2, 174480, Note_on_c, 0, 73, 65
2, 174720, Note_on_c, 0, 73, 0
2, 174720, Note_on_c, 0, 76, 65
2, 174960, Note_on_c, 0, 76, 0
2, 174960, Note_on_c, 0, 80, 65
2, 175200, Note_on_c, 0, 80, 0
2, 175200, Control_c, 0, 64, 0
2, 175200, Note_on_c, 0, 81, 65
2, 175680, Note_on_c, 0, 81, 0
2, 175680, Control_c, 0, 64, 127
2, 175680, Note_on_c, 0, 64, 65
2, 175920, Note_on_c, 0, 64, 0
2, 175920, Note_on_c, 0, 66, 65
2, 176160, Note_on_c, 0, 66, 0
2, 176160, Note_on_c, 0, 68, 65
2, 176400, Note_on_c, 0, 68, 0
2, 176400, Note_on_c, 0, 69, 65
2, 176640, Note_on_c, 0, 69, 0
2, 176640, Note_on_c, 0, 70, 65
2, 176880, Note_on_c, 0, 70, 0
2, 176880, Control_c, 0, 64, 0
2, 176880, Note_on_c, 0, 71, 65
2, 177120, Note_on_c, 0, 71, 0
2, 177120, Control_c, 0, 64, 127
2, 177120, Note_on_c, 0, 73, 65
2, 177360, Note_on_c, 0, 73, 0
2, 177360, Note_on_c, 0, 71, 65
2, 177600, Note_on_c, 0, 71, 0
2, 177600, Note_on_c, 0, 70, 65
2, 177840, Note_on_c, 0, 70, 0
2, 177840, Note_on_c, 0, 71, 65
2, 178080, Note_on_c, 0, 71, 0
2, 178080, Note_on_c, 0, 73, 65
2, 178320, Note_on_c, 0, 73, 0
2, 178320, Control_c, 0, 64, 0
2, 178320, Note_on_c, 0, 71, 65
2, 178560, Note_on_c, 0, 71, 0
2, 178560, Control_c, 0, 64, 127
2, 178560, Note_on_c, 0, 70, 65
2, 178800, Note_on_c, 0, 70, 0
2, 178800, Note_on_c, 0, 71, 65
2, 179040, Note_on_c, 0, 71, 0
2, 179040, Note_on_c, 0, 73, 65
2, 179280, Note_on_c, 0, 73, 0
2, 179280, Note_on_c, 0, 71, 65
2, 179520, Note_on_c, 0, 71, 0
2, 179520, Note_on_c, 0, 70, 65
2, 179760, Note_on_c, 0, 70, 0
2, 179760, Control_c, 0, 64, 0
2, 179760, Note_on_c, 0, 71, 65
2, 180000, Note_on_c, 0, 71, 0
2, 180000, Control_c, 0, 64, 127
2, 180000, Note_on_c, 0, 69, 65
2, 180240, Note_on_c, 0, 69, 0
2, 180240, Note_on_c, 0, 73, 65
2, 180480, Note_on_c, 0, 73, 0
2, 180480, Note_on_c, 0, 75, 65
2, 180720, Note_on_c, 0, 75, 0
2, 180720, Note_on_c, 0, 76, 65
2, 180960, Note_on_c, 0, 76, 0
2, 180960, Note_on_c, 0, 78, 65
2, 181200, Note_on_c, 0, 78, 0
2, 181200, Control_c, 0, 64, 0
2, 181200, Note_on_c, 0, 76, 65
2, 181440, Note_on_c, 0, 76, 0
2, 181440, Control_c, 0, 64, 127
2, 181440, Note_on_c, 0, 64, 65
2, 181680, Note_on_c, 0, 64, 0
2, 181680, Note_on_c, 0, 66, 65
2, 181920, Note_on_c, 0, 66, 0
2, 181920, Note_on_c, 0, 68, 65
2, 182160, Note_on_c, 0, 68, 0
2, 182160, Note_on_c, 0, 69, 65
2, 182400, Note_on_c, 0, 69, 0
2, 182400, Note_on_c, 0, 70, 65
2, 182640, Note_on_c, 0, 70, 0
2, 182640, Control_c, 0, 64, 0
2, 182640, Note_on_c, 0, 71, 65
2, 182880, Note_on_c, 0, 71, 0
2, 182880, Control_c, 0, 64, 127
2, 182880, Note_on_c, 0, 73, 65
2, 183120, Note_on_c, 0, 73, 0
2, 183120, Note_on_c, 0, 71, 65
2, 183360, Note_on_c, 0, 71, 0
2, 183360, Note_on_c, 0, 70, 65
2, 183600, Note_on_c, 0, 70, 0
2, 183600, Note_on_c, 0, 71, 65
2, 183840, Note_on_c, 0, 71, 0
2, 183840, Note_on_c, 0, 73, 65
2, 184080, Note_on_c, 0, 73, 0
2, 184080, Control_c, 0, 64, 0
2, 184080, Note_on_c, 0, 71, 65
2, 184320, Note_on_c, 0, 71, 0
2, 184320, Control_c, 0, 64, 127
2, 184320, Note_on_c, 0, 70, 65
2, 184560, Note_on_c, 0, 70, 0
2, 184560, Note_on_c, 0, 71, 65
2, 184800, Note_on_c, 0, 71, 0
2, 184800, Note_on_c, 0, 73, 65
2, 185040, Note_on_c, 0, 73, 0
2, 185040, Note_on_c, 0, 71, 65
2, 185280, Note_on_c, 0, 71, 0
2, 185280, Note_on_c, 0, 70, 65
2, 185520, Note_on_c, 0, 70, 0
2, 185520, Control_c, 0, 64, 0
2, 185520, Note_on_c, 0, 71, 65
2, 185760, Note_on_c, 0, 71, 0
2, 185760, Control_c, 0, 64, 127
2, 185760, Note_on_c, 0, 69, 65
2, 186000, Note_on_c, 0, 69, 0
2, 186000, Note_on_c, 0, 73, 65
2, 186240, Note_on_c, 0, 73, 0
2, 186240, Note_on_c, 0, 76, 65
2, 186480, Note_on_c, 0, 76, 0
2, 186480, Note_on_c, 0, 80, 65
2, 186720, Note_on_c, 0, 80, 0
2, 186720, Control_c, 0, 64, 0
2, 186720, Note_on_c, 0, 81, 65
2, 187200, Note_on_c, 0, 81, 0
2, 187200, Control_c, 0, 64, 127
2, 187200, Note_on_c, 0, 81, 52
2, 187440, Note_on_c, 0, 81, 0
2, 187440, Note_on_c, 0, 83, 52
2, 187680, Note_on_c, 0, 83, 0
2, 187680, Note_on_c, 0, 85, 52
2, 187920, Note_on_c, 0, 85, 0
2, 187920, Note_on_c, 0, 86, 52
2, 188160, Note_on_c, 0, 86, 0
2, 188160, Note_on_c, 0, 87, 52
2, 188400, Note_on_c, 0, 87, 0
2, 188400, Control_c, 0, 64, 0
2, 188400, Note_on_c, 0, 88, 52
2, 188640, Note_on_c, 0, 88, 0
2, 188640, Control_c, 0, 64, 127
2, 188640, Note_on_c, 0, 90, 52
2, 188880, Note_on_c, 0, 90, 0
2, 188880, Note_on_c, 0, 88, 52
2, 189120, Note_on_c, 0, 88, 0
2, 189120, Note_on_c, 0, 87, 52
2, 189360, Note_on_c, 0, 87, 0
2, 189360, Note_on_c, 0, 88, 52
2, 189600, Note_on_c, 0, 88, 0
2, 189600, Note_on_c, 0, 90, 52
2, 189840, Note_on_c, 0, 90, 0
2, 189840, Control_c, 0, 64, 0
2, 189840, Note_on_c, 0, 88, 52
2, 190080, Note_on_c, 0, 88, 0
2, 190080, Control_c, 0, 64, 127
2, 190080, Note_on_c, 0, 87, 52
2, 190320, Note_on_c, 0, 87, 0
2, 190320, Note_on_c, 0, 88, 52
2, 190560, Note_on_c, 0, 88, 0
2, 190560, Note_on_c, 0, 90, 52
2, 190800, Note_on_c, 0, 90, 0
2, 190800, Note_on_c, 0, 88, 52
2, 191040, Note_on_c, 0, 88, 0
2, 191040, Note_on_c, 0, 87, 52
2, 191280, Note_on_c, 0, 87, 0
2, 191280, Control_c, 0, 64, 0
2, 191280, Note_on_c, 0, 88, 52
2, 191520, Note_on_c, 0, 88, 0
2, 191520, Control_c, 0, 64, 127
2, 191520, Note_on_c, 0, 86, 52
2, 191760, Note_on_c, 0, 86, 0
2, 191760, Note_on_c, 0, 88, 52
2, 192000, Note_on_c, 0, 88, 0
2, 192000, Note_on_c, 0, 90, 52
2, 192240, Note_on_c, 0, 90, 0
2, 192240, Note_on_c, 0, 91, 52
2, 192480, Note_on_c, 0, 91, 0
2, 192480, Note_on_c, 0, 93, 52
2, 192720, Note_on_c, 0, 93, 0
2, 192720, Control_c, 0, 64, 0
2, 192720, Note_on_c, 0, 90, 52
2, 192960, Note_on_c, 0, 90, 0
2, 192960, Control_c, 0, 64, 127
2, 192960, Note_on_c, 0, 81, 52
2, 193200, Note_on_c, 0, 81, 0
2, 193200, Note_on_c, 0, 83, 52
2, 193440, Note_on_c, 0, 83, 0
2, 193440, Note_on_c, 0, 85, 52
2, 193680, Note_on_c, 0, 85, 0
2, 193680, Note_on_c, 0, 86, 52
2, 193920, Note_on_c, 0, 86, 0
2, 193920, Note_on_c, 0, 87, 52
2, 194160, Note_on_c, 0, 87, 0
2, 194160, Control_c, 0, 64, 0
2, 194160, Note_on_c, 0, 88, 52
2, 194400, Note_on_c, 0, 88, 0
2, 194400, Control_c, 0, 64, 127
2, 194400, Note_on_c, 0, 90, 52
2, 194640, Note_on_c, 0, 90, 0
2, 194640, Note_on_c, 0, 88, 52
2, 194880, Note_on_c, 0, 88, 0
2, 194880, Note_on_c, 0, 87, 52
2, 195120, Note_on_c, 0, 87, 0
2, 195120, Note_on_c, 0, 88, 52
2, 195360, Note_on_c, 0, 88, 0
2, 195360, Note_on_c, 0, 90, 52
2, 195600, Note_on_c, 0, 90, 0
2, 195600, Control_c, 0, 64, 0
2, 195600, Note_on_c, 0, 88, 52
2, 195840, Note_on_c, 0, 88, 0
2, 195840, Control_c, 0, 64, 127
2, 195840, Note_on_c, 0, 87, 52
2, 196080, Note_on_c, 0, 87, 0
2, 196080, Note_on_c, 0, 88, 52
2, 196320, Note_on_c, 0, 88, 0
2, 196320, Note_on_c, 0, 90, 52
2, 196560, Note_on_c, 0, 90, 0
2, 196560, Note_on_c, 0, 88, 52
2, 196800, Note_on_c, 0, 88, 0
2, 196800, Note_on_c, 0, 87, 52
2, 197040, Note_on_c, 0, 87, 0
2, 197040, Control_c, 0, 64, 0
2, 197040, Note_on_c, 0, 88, 52
2, 197280, Note_on_c, 0, 88, 0
2, 197280, Control_c, 0, 64, 127
2, 197280, Note_on_c, 0, 86, 52
2, 197520, Note_on_c, 0, 86, 0
2, 197520, Note_on_c, 0, 90, 52
2, 197760, Note_on_c, 0, 90, 0
2, 197760, Note_on_c, 0, 93, 52
2, 198000, Note_on_c, 0, 93, 0
2, 198000, Note_on_c, 0, 97, 52
2, 198240, Note_on_c, 0, 97, 0
2, 198240, Control_c, 0, 64, 0
2, 198240, Note_on_c, 0, 98, 52
2, 198720, Note_on_c, 0, 98, 0
2, 198720, Control_c, 0, 64, 127
2, 198720, Note_on_c, 0, 81, 52
2, 198960, Note_on_c, 0, 81, 0
2, 198960, Note_on_c, 0, 83, 52
2, 199200, Note_on_c, 0, 83, 0
2, 199200, Note_on_c, 0, 85, 52
2, 199440, Note_on_c, 0, 85, 0
2, 199440, Note_on_c, 0, 86, 52
2, 199680, Note_on_c, 0, 86, 0
2, 199680, Note_on_c, 0, 87, 52
2, 199920, Note_on_c, 0, 87, 0
2, 199920, Control_c, 0, 64, 0
2, 199920, Note_on_c, 0, 88, 52
2, 200160, Note_on_c, 0, 88, 0
2, 200160, Control_c, 0, 64, 127
2, 200160, Note_on_c, 0, 90, 52
2, 200400, Note_on_c, 0, 90, 0
2, 200400, Note_on_c, 0, 88, 52
2, 200640, Note_on_c, 0, 88, 0
2, 200640, Note_on_c, 0, 87, 52
2, 200880, Note_on_c, 0, 87, 0
2, 200880, Note_on_c, 0, 88, 52
2, 201120, Note_on_c, 0, 88, 0
2, 201120, Note_on_c, 0, 90, 52
2, 201360, Note_on_c, 0, 90, 0
2, 201360, Control_c, 0, 64, 0
2, 201360, Note_on_c, 0, 88, 52
2, 201600, Note_on_c, 0, 88, 0
2, 201600, Control_c, 0, 64, 127
2, 201600, Note_on_c, 0, 87, 52
2, 201840, Note_on_c, 0, 87, 0
2, 201840, Note_on_c, 0, 88, 52
2, 202080, Note_on_c, 0, 88, 0
2, 202080, Note_on_c, 0, 90, 52
2, 202320, Note_on_c, 0, 90, 0
2, 202320, Note_on_c, 0, 88, 52
2, 202560, Note_on_c, 0, 88, 0
2, 202560, Note_on_c, 0, 87, 52
2, 202800, Note_on_c, 0, 87, 0
2, 202800, Control_c, 0, 64, 0
2, 202800, Note_on_c, 0, 88, 52
2, 203040, Note_on_c, 0, 88, 0
2, 203040, Control_c, 0, 64, 127
2, 203040, Note_on_c, 0, 86, 52
2, 203280, Note_on_c, 0, 86, 0
2, 203280, Note_on_c, 0, 88, 52
2, 203520, Note_on_c, 0, 88, 0
2, 203520, Note_on_c, 0, 90, 52
2, 203760, Note_on_c, 0, 90, 0
2, 203760, Note_on_c, 0, 91, 52
2, 204000, Note_on_c, 0, 91, 0
2, 204000, Note_on_c, 0, 93, 52
2, 204240, Note_on_c, 0, 93, 0
2, 204240, Control_c, 0, 64, 0
2, 204240, Note_on_c, 0, 90, 52
2, 204480, Note_on_c, 0, 90, 0
2, 204480, Control_c, 0, 64, 127
2, 204480, Note_on_c, 0, 81, 52
2, 204720, Note_on_c, 0, 81, 0
2, 204720, Note_on_c, 0, 83, 52
2, 204960, Note_on_c, 0, 83, 0
2, 204960, Note_on_c, 0, 85, 52
2, 205200, Note_on_c, 0, 85, 0
2, 205200, Note_on_c, 0, 86, 52
2, 205440, Note_on_c, 0, 86, 0
2, 205440, Note_on_c, 0, 87, 52
2, 205680, Note_on_c, 0, 87, 0
2, 205680, Control_c, 0, 64, 0
2, 205680, Note_on_c, 0, 88, 52
2, 205920, Note_on_c, 0, 88, 0
2, 205920, Control_c, 0, 64, 127
2, 205920, Note_on_c, 0, 90, 52
2, 206160, Note_on_c, 0, 90, 0
2, 206160, Note_on_c, 0, 88, 52
2, 206400, Note_on_c, 0, 88, 0
2, 206400, Note_on_c, 0, 87, 52
2, 206640, Note_on_c, 0, 87, 0
2, 206640, Note_on_c, 0, 88, 52
2, 206880, Note_on_c, 0, 88, 0
2, 206880, Note_on_c, 0, 90, 52
2, 207120, Note_on_c, 0, 90, 0
2, 207120, Control_c, 0, 64, 0
2, 207120, Note_on_c, 0, 88, 52
2, 207360, Note_on_c, 0, 88, 0
2, 207360, Control_c, 0, 64, 127
2, 207360, Note_on_c, 0, 87, 52
2, 207600, Note_on_c, 0, 87, 0
2, 207600, Note_on_c, 0, 88, 52
2, 207840, Note_on_c, 0, 88, 0
2, 207840, Note_on_c, 0, 90, 52
2, 208080, Note_on_c, 0, 90, 0
2, 208080, Note_on_c, 0, 88, 52
2, 208320, Note_on_c, 0, 88, 0
2, 208320, Note_on_c, 0, 87, 52
2, 208560, Note_on_c, 0, 87, 0
2, 208560, Control_c, 0, 64, 0
2, 208560, Note_on_c, 0, 88, 52
2, 208800, Note_on_c, 0, 88, 0
2, 208800, Control_c, 0, 64, 127
2, 208800, Note_on_c, 0, 86, 52
2, 209040, Note_on_c, 0, 86, 0
2, 209040, Note_on_c, 0, 90, 52
2, 209280, Note_on_c, 0, 90, 0
2, 209280, Note_on_c, 0, 93, 52
2, 209520, Note_on_c, 0, 93, 0
2, 209520, Note_on_c, 0, 97, 52
2, 209760, Note_on_c, 0, 97, 0
2, 209760, Control_c, 0, 64, 0
2, 209760, Note_on_c, 0, 98, 52
2, 210240, Note_on_c, 0, 98, 0
2, 210240, Control_c, 0, 64, 127
2, 210240, Note_on_c, 0, 86, 52
2, 210480, Note_on_c, 0, 86, 0
2, 210480, Note_on_c, 0, 90, 52
2, 210720, Note_on_c, 0, 90, 0
2, 210720, Note_on_c, 0, 93, 52
2, 210960, Note_on_c, 0, 93, 0
2, 210960, Control_c, 0, 64, 0
2, 210960, Note_on_c, 0, 97, 52
2, 211200, Note_on_c, 0, 97, 0
2, 211200, Note_on_c, 0, 98, 52
2, 211680, Note_on_c, 0, 98, 0
2, 211680, Control_c, 0, 64, 127
2, 211680, Note_on_c, 0, 86, 52
2, 211920, Note_on_c, 0, 86, 0
2, 211920, Note_on_c, 0, 90, 52
2, 212160, Note_on_c, 0, 90, 0
2, 212160, Note_on_c, 0, 93, 52
2, 212400, Note_on_c, 0, 93, 0
2, 212400, Control_c, 0, 64, 0
2, 212400, Note_on_c, 0, 97, 52
2, 212640, Note_on_c, 0, 97, 0
2, 212640, Note_on_c, 0, 98, 52
2, 213120, Note_on_c, 0, 98, 0
2, 213120, Control_c, 0, 64, 127
2, 213120, Note_on_c, 0, 74, 52
2, 213360, Note_on_c, 0, 74, 0
2, 213360, Note_on_c, 0, 78, 52
2, 213600, Note_on_c, 0, 78, 0
2, 213600, Note_on_c, 0, 81, 52
2, 213840, Note_on_c, 0, 81, 0
2, 213840, Control_c, 0, 64, 0
2, 213840, Note_on_c, 0, 85, 52
2, 214080, Note_on_c, 0, 85, 0
2, 214080, Note_on_c, 0, 86, 52
2, 214560, Note_on_c, 0, 86, 0
2, 214560, Control_c, 0, 64, 127
2, 214560, Note_on_c, 0, 74, 52
2, 214800, Note_on_c, 0, 74, 0
2, 214800, Note_on_c, 0, 78, 52
2, 215040, Note_on_c, 0, 78, 0
2, 215040, Note_on_c, 0, 81, 52
2, 215280, Note_on_c, 0, 81, 0
2, 215280, Control_c, 0, 64, 0
2, 215280, Note_on_c, 0, 85, 52
2, 215520, Note_on_c, 0, 85, 0
2, 215520, Note_on_c, 0, 86, 52
2, 216000, Note_on_c, 0, 86, 0
2, 216000, Control_c, 0, 64, 127
2, 216000, Note_on_c, 0, 61, 52
2, 216240, Note_on_c, 0, 61, 0
2, 216240, Note_on_c, 0, 65, 52
2, 216480, Note_on_c, 0, 65, 0
2, 216480, Note_on_c, 0, 68, 52
2, 216720, Note_on_c, 0, 68, 0
2, 216720, Note_on_c, 0, 72, 52
2, 216960, Note_on_c, 0, 72, 0
2, 216960, Control_c, 0, 64, 0
2, 216960, Note_on_c, 0, 73, 52
2, 217440, Note_on_c, 0, 73, 0
2, 217440, Control_c, 0, 64, 127
2, 217440, Note_on_c, 0, 61, 52
2, 217680, Note_on_c, 0, 61, 0
2, 217680, Note_on_c, 0, 65, 52
2, 217920, Note_on_c, 0, 65, 0
2, 217920, Note_on_c, 0, 68, 52
2, 218160, Note_on_c, 0, 68, 0
2, 218160, Note_on_c, 0, 72, 52
2, 218400, Note_on_c, 0, 72, 0
2, 218400, Control_c, 0, 64, 0
2, 218400, Note_on_c, 0, 73, 52
2, 218880, Note_on_c, 0, 73, 0
2, 218880, Control_c, 0, 64, 127
2, 218880, Note_on_c, 0, 78, 91
2, 219120, Note_on_c, 0, 78, 0
2, 219120, Note_on_c, 0, 80, 91
2, 219360, Note_on_c, 0, 80, 0
2, 219360, Note_on_c, 0, 81, 91
2, 219600, Note_on_c, 0, 81, 0
2, 219600, Note_on_c, 0, 85, 91
2, 219840, Note_on_c, 0, 85, 0
2, 219840, Note_on_c, 0, 87, 91
2, 220080, Note_on_c, 0, 87, 0
2, 220080, Control_c, 0, 64, 0
2, 220080, Note_on_c, 0, 89, 91
2, 220320, Note_on_c, 0, 89, 0
2, 220320, Control_c, 0, 64, 127
2, 220320, Note_on_c, 0, 90, 91
2, 220560, Note_on_c, 0, 90, 0
2, 220560, Note_on_c, 0, 89, 91
2, 220800, Note_on_c, 0, 89, 0
2, 220800, Note_on_c, 0, 90, 91
2, 221040, Note_on_c, 0, 90, 0
2, 221040, Note_on_c, 0, 86, 91
2, 221280, Note_on_c, 0, 86, 0
2, 221280, Note_on_c, 0, 85, 91
2, 221520, Note_on_c, 0, 85, 0
2, 221520, Control_c, 0, 64, 0
2, 221520, Note_on_c, 0, 83, 91
2, 221760, Note_on_c, 0, 83, 0
2, 221760, Control_c, 0, 64, 127
2, 221760, Note_on_c, 0, 81, 91
2, 222000, Note_on_c, 0, 81, 0
2, 222000, Note_on_c, 0, 80, 91
2, 222240, Note_on_c, 0, 80, 0
2, 222240, Note_on_c, 0, 78, 91
2, 222480, Note_on_c, 0, 78, 0
2, 222480, Note_on_c, 0, 74, 91
2, 222720, Note_on_c, 0, 74, 0
2, 222720, Note_on_c, 0, 73, 91
2, 222960, Note_on_c, 0, 73, 0
2, 222960, Control_c, 0, 64, 0
2, 222960, Note_on_c, 0, 69, 91
2, 223200, Note_on_c, 0, 69, 0
2, 223200, Note_on_c, 0, 66, 91
2, 223680, Note_on_c, 0, 66, 0
2, 223680, Note_on_c, 0, 71, 91
2, 223680, Note_on_c, 0, 73, 91
2, 223680, Note_on_c, 0, 77, 91
2, 223680, Note_on_c, 0, 81, 91
2, 224400, Note_on_c, 0, 81, 0
2, 224400, Note_on_c, 0, 71, 0
2, 224400, Note_on_c, 0, 73, 0
2, 224400, Note_on_c, 0, 77, 0
2, 224400, Note_on_c, 0, 71, 91
2, 224400, Note_on_c, 0, 73, 91
2, 224400, Note_on_c, 0, 77, 91
2, 224400, Note_on_c, 0, 80, 91
2, 224640, Note_on_c, 0, 80, 0
2, 224640, Note_on_c, 0, 71, 0
2, 224640, Note_on_c, 0, 73, 0
2, 224640, Note_on_c, 0, 77, 0
2, 224640, Control_c, 0, 64, 127
2, 224640, Note_on_c, 0, 69, 91
2, 224640, Note_on_c, 0, 73, 91
2, 224640, Note_on_c, 0, 78, 91
2, 224880, Note_on_c, 0, 78, 0
2, 224880, Note_on_c, 0, 73, 0
2, 224880, Note_on_c, 0, 69, 0
2, 224880, Note_on_c, 0, 80, 91
2, 225120, Note_on_c, 0, 80, 0
2, 225120, Note_on_c, 0, 81, 91
2, 225360, Note_on_c, 0, 81, 0
2, 225360, Note_on_c, 0, 85, 91
2, 225600, Note_on_c, 0, 85, 0
2, 225600, Note_on_c, 0, 87, 91
2, 225840, Note_on_c, 0, 87, 0
2, 225840, Control_c, 0, 64, 0
2, 225840, Note_on_c, 0, 89, 91
2, 226080, Note_on_c, 0, 89, 0
2, 226080, Control_c, 0, 64, 127
2, 226080, Note_on_c, 0, 90, 91
2, 226320, Note_on_c, 0, 90, 0
2, 226320, Note_on_c, 0, 89, 91
2, 226560, Note_on_c, 0, 89, 0
2, 226560, Note_on_c, 0, 90, 91
2, 226800, Note_on_c, 0, 90, 0
2, 226800, Note_on_c, 0, 86, 91
2, 227040, Note_on_c, 0, 86, 0
2, 227040, Note_on_c, 0, 85, 91
2, 227280, Note_on_c, 0, 85, 0
2, 227280, Control_c, 0, 64, 0
2, 227280, Note_on_c, 0, 83, 91
2, 227520, Note_on_c, 0, 83, 0
2, 227520, Note_on_c, 0, 78, 91
2, 228000, Note_on_c, 0, 78, 0
2, 228000, Note_on_c, 0, 81, 117
2, 228720, Note_on_c, 0, 81, 0
2, 228720, Note_on_c, 0, 80, 117
2, 228960, Note_on_c, 0, 80, 0
2, 228960, Control_c, 0, 64, 127
2, 228960, Note_on_c, 0, 78, 91
2, 229200, Note_on_c, 0, 78, 0
2, 229200, Note_on_c, 0, 80, 91
2, 229440, Note_on_c, 0, 80, 0
2, 229440, Note_on_c, 0, 81, 91
2, 229680, Note_on_c, 0, 81, 0
2, 229680, Note_on_c, 0, 85, 91
2, 229920, Note_on_c, 0, 85, 0
2, 229920, Control_c, 0, 64, 0
2, 229920, Note_on_c, 0, 90, 91
2, 230400, Note_on_c, 0, 90, 0
2, 230400, Control_c, 0, 64, 127
2, 230400, Note_on_c, 0, 78, 91
2, 230640, Note_on_c, 0, 78, 0
2, 230640, Note_on_c, 0, 80, 91
2, 230880, Note_on_c, 0, 80, 0
2, 230880, Note_on_c, 0, 81, 91
2, 231120, Note_on_c, 0, 81, 0
2, 231120, Note_on_c, 0, 85, 91
2, 231360, Note_on_c, 0, 85, 0
2, 231360, Note_on_c, 0, 87, 91
2, 231600, Note_on_c, 0, 87, 0
2, 231600, Control_c, 0, 64, 0
2, 231600, Note_on_c, 0, 89, 91
2, 231840, Note_on_c, 0, 89, 0
2, 231840, Control_c, 0, 64, 127
2, 231840, Note_on_c, 0, 90, 91
2, 232080, Note_on_c, 0, 90, 0
2, 232080, Note_on_c, 0, 89, 91
2, 232320, Note_on_c, 0, 89, 0
2, 232320, Note_on_c, 0, 90, 91
2, 232560, Note_on_c, 0, 90, 0
2, 232560, Note_on_c, 0, 86, 91
2, 232800, Note_on_c, 0, 86, 0
2, 232800, Note_on_c, 0, 85, 91
2, 233040, Note_on_c, 0, 85, 0
2, 233040, Control_c, 0, 64, 0
2, 233040, Note_on_c, 0, 83, 91
2, 233280, Note_on_c, 0, 83, 0
2, 233280, Control_c, 0, 64, 127
2, 233280, Note_on_c, 0, 81, 91
2, 233520, Note_on_c, 0, 81, 0
2, 233520, Note_on_c, 0, 80, 91
2, 233760, Note_on_c, 0, 80, 0
2, 233760, Note_on_c, 0, 78, 91
2, 234000, Note_on_c, 0, 78, 0
2, 234000, Note_on_c, 0, 74, 91
2, 234240, Note_on_c, 0, 74, 0
2, 234240, Note_on_c, 0, 73, 91
2, 234480, Note_on_c, 0, 73, 0
2, 234480, Control_c, 0, 64, 0
2, 234480, Note_on_c, 0, 69, 91
2, 234720, Note_on_c, 0, 69, 0
2, 234720, Note_on_c, 0, 66, 91
2, 235200, Note_on_c, 0, 66, 0
2, 235200, Note_on_c, 0, 71, 91
2, 235200, Note_on_c, 0, 73, 91
2, 235200, Note_on_c, 0, 77, 91
2, 235200, Note_on_c, 0, 81, 91
2, 235920, Note_on_c, 0, 81, 0
2, 235920, Note_on_c, 0, 71, 0
2, 235920, Note_on_c, 0, 73, 0
2, 235920, Note_on_c, 0, 77, 0
2, 235920, Note_on_c, 0, 71, 91
2, 235920, Note_on_c, 0, 73, 91
2, 235920, Note_on_c, 0, 77, 91
2, 235920, Note_on_c, 0, 80, 91
2, 236160, Note_on_c, 0, 80, 0
2, 236160, Note_on_c, 0, 71, 0
2, 236160, Note_on_c, 0, 73, 0
2, 236160, Note_on_c, 0, 77, 0
2, 236160, Control_c, 0, 64, 127
2, 236160, Note_on_c, 0, 69, 91
2, 236160, Note_on_c, 0, 73, 91
2, 236160, Note_on_c, 0, 78, 91
2, 236400, Note_on_c, 0, 78, 0
2, 236400, Note_on_c, 0, 73, 0
2, 236400, Note_on_c, 0, 69, 0
2, 236400, Note_on_c, 0, 80, 91
2, 236640, Note_on_c, 0, 80, 0
2, 236640, Note_on_c, 0, 81, 91
2, 236880, Note_on_c, 0, 81, 0
2, 236880, Note_on_c, 0, 85, 91
2, 237120, Note_on_c, 0, 85, 0
2, 237120, Note_on_c, 0, 87, 91
2, 237360, Note_on_c, 0, 87, 0
2, 237360, Control_c, 0, 64, 0
2, 237360, Note_on_c, 0, 89, 91
2, 237600, Note_on_c, 0, 89, 0
2, 237600, Control_c, 0, 64, 127
2, 237600, Note_on_c, 0, 90, 91
2, 237840, Note_on_c, 0, 90, 0
2, 237840, Note_on_c, 0, 89, 91
2, 238080, Note_on_c, 0, 89, 0
2, 238080, Note_on_c, 0, 90, 91
2, 238320, Note_on_c, 0, 90, 0
2, 238320, Note_on_c, 0, 86, 91
2, 238560, Note_on_c, 0, 86, 0
2, 238560, Note_on_c, 0, 85, 91
2, 238800, Note_on_c, 0, 85, 0
2, 238800, Control_c, 0, 64, 0
2, 238800, Note_on_c, 0, 83, 91
2, 239040, Note_on_c, 0, 83, 0
2, 239040, Note_on_c, 0, 78, 91
2, 239520, Note_on_c, 0, 78, 0
2, 239520, Note_on_c, 0, 81, 117
2, 240240, Note_on_c, 0, 81, 0
2, 240240, Note_on_c, 0, 80, 117
2, 240480, Note_on_c, 0, 80, 0
2, 240480, Control_c, 0, 64, 127
2, 240480, Note_on_c, 0, 78, 91
2, 240720, Note_on_c, 0, 78, 0
2, 240720, Note_on_c, 0, 80, 91
2, 240960, Note_on_c, 0, 80, 0
2, 240960, Note_on_c, 0, 81, 91
2, 241200, Note_on_c, 0, 81, 0
2, 241200, Note_on_c, 0, 85, 91
2, 241440, Note_on_c, 0, 85, 0
2, 241440, Control_c, 0, 64, 0
2, 241440, Note_on_c, 0, 90, 91
2, 241920, Note_on_c, 0, 90, 0
2, 242400, Control_c, 0, 64, 127
2, 242400, Note_on_c, 0, 61, 52
2, 243120, Note_on_c, 0, 61, 0
2, 243120, Note_on_c, 0, 59, 52
2, 243360, Note_on_c, 0, 59, 0
2, 243360, Note_on_c, 0, 62, 52
2, 244320, Note_on_c, 0, 62, 0
2, 244320, Control_c, 0, 64, 0
2, 244320, Note_on_c, 0, 61, 52
2, 244800, Note_on_c, 0, 61, 0
2, 245280, Control_c, 0, 64, 127
2, 245280, Note_on_c, 0, 61, 52
2, 246000, Note_on_c, 0, 61, 0
2, 246000, Note_on_c, 0, 59, 52
2, 246240, Note_on_c, 0, 59, 0
2, 246240, Note_on_c, 0, 62, 52
2, 247200, Note_on_c, 0, 62, 0
2, 247200, Control_c, 0, 64, 0
2, 247200, Note_on_c, 0, 61, 52
2, 247680, Note_on_c, 0, 61, 0
2, 248160, Control_c, 0, 64, 127
2, 248160, Note_on_c, 0, 59, 52
2, 248880, Note_on_c, 0, 59, 0
2, 248880, Note_on_c, 0, 58, 52
2, 249120, Note_on_c, 0, 58, 0
2, 249120, Note_on_c, 0, 61, 52
2, 250080, Note_on_c, 0, 61, 0
2, 250080, Control_c, 0, 64, 0
2, 250080, Note_on_c, 0, 59, 52
2, 250560, Note_on_c, 0, 59, 0
2, 251040, Note_on_c, 0, 58, 52
2, 251520, Note_on_c, 0, 58, 0
2, 251520, Note_on_c, 0, 59, 52
2, 252000, Note_on_c, 0, 59, 0
2, 252000, Note_on_c, 0, 64, 52
2, 252720, Note_on_c, 0, 64, 0
2, 253920, Control_c, 0, 64, 127
2, 253920, Note_on_c, 0, 61, 52
2, 254640, Note_on_c, 0, 61, 0
2, 254640, Note_on_c, 0, 59, 52
2, 254880, Note_on_c, 0, 59, 0
2, 254880, Note_on_c, 0, 62, 52
2, 255840, Note_on_c, 0, 62, 0
2, 255840, Control_c, 0, 64, 0
2, 255840, Note_on_c, 0, 61, 52
2, 256320, Note_on_c, 0, 61, 0
2, 256800, Control_c, 0, 64, 127
2, 256800, Note_on_c, 0, 61, 52
2, 257520, Note_on_c, 0, 61, 0
2, 257520, Note_on_c, 0, 59, 52
2, 257760, Note_on_c, 0, 59, 0
2, 257760, Note_on_c, 0, 62, 52
2, 258720, Note_on_c, 0, 62, 0
2, 258720, Control_c, 0, 64, 0
2, 258720, Note_on_c, 0, 61, 52
2, 259200, Note_on_c, 0, 61, 0
2, 259680, Note_on_c, 0, 59, 52
2, 260400, Note_on_c, 0, 59, 0
2, 260400, Note_on_c, 0, 61, 52
2, 260640, Note_on_c, 0, 61, 0
2, 260640, Note_on_c, 0, 57, 52
2, 260880, Note_on_c, 0, 57, 0
2, 261120, Note_on_c, 0, 61, 52
2, 261840, Note_on_c, 0, 61, 0
2, 261840, Note_on_c, 0, 59, 52
2, 262080, Note_on_c, 0, 59, 0
2, 262080, Note_on_c, 0, 57, 52
2, 262320, Note_on_c, 0, 57, 0
2, 262560, Note_on_c, 0, 56, 52
2, 263280, Note_on_c, 0, 56, 0
2, 263280, Note_on_c, 0, 55, 52
2, 263520, Note_on_c, 0, 55, 0
2, 263520, Note_on_c, 0, 56, 52
2, 264000, Note_on_c, 0, 56, 0
2, 264960, Note_on_c, 0, 61, 52
2, 265007, Note_on_c, 0, 61, 0
2, 265440, Note_on_c, 0, 73, 52
2, 266160, Note_on_c, 0, 73, 0
2, 266160, Note_on_c, 0, 71, 52
2, 266400, Note_on_c, 0, 71, 0
2, 266400, Note_on_c, 0, 74, 52
2, 267360, Note_on_c, 0, 74, 0
2, 267360, Note_on_c, 0, 73, 52
2, 267840, Note_on_c, 0, 73, 0
2, 268320, Note_on_c, 0, 73, 52
2, 269040, Note_on_c, 0, 73, 0
2, 269040, Note_on_c, 0, 71, 52
2, 269280, Note_on_c, 0, 71, 0
2, 269280, Note_on_c, 0, 74, 52
2, 270240, Note_on_c, 0, 74, 0
2, 270240, Note_on_c, 0, 73, 52
2, 270720, Note_on_c, 0, 73, 0
2, 271200, Note_on_c, 0, 71, 52
2, 271920, Note_on_c, 0, 71, 0
2, 271920, Note_on_c, 0, 70, 52
2, 272160, Note_on_c, 0, 70, 0
2, 272160, Note_on_c, 0, 73, 52
2, 273120, Note_on_c, 0, 73, 0
2, 273120, Note_on_c, 0, 71, 52
2, 273600, Note_on_c, 0, 71, 0
2, 274080, Note_on_c, 0, 70, 52
2, 274560, Note_on_c, 0, 70, 0
2, 274560, Note_on_c, 0, 71, 52
2, 275040, Note_on_c, 0, 71, 0
2, 275040, Note_on_c, 0, 76, 52
2, 276480, Note_on_c, 0, 76, 0
2, 276960, Note_on_c, 0, 73, 52
2, 277680, Note_on_c, 0, 73, 0
2, 277680, Note_on_c, 0, 71, 52
2, 277920, Note_on_c, 0, 71, 0
2, 277920, Note_on_c, 0, 74, 52
2, 278880, Note_on_c, 0, 74, 0
2, 278880, Note_on_c, 0, 73, 52
2, 279360, Note_on_c, 0, 73, 0
2, 279840, Note_on_c, 0, 73, 52
2, 280560, Note_on_c, 0, 73, 0
2, 280560, Note_on_c, 0, 71, 52
2, 280800, Note_on_c, 0, 71, 0
2, 280800, Note_on_c, 0, 74, 52
2, 281760, Note_on_c, 0, 74, 0
2, 281760, Note_on_c, 0, 73, 52
2, 282240, Note_on_c, 0, 73, 0
2, 282720, Note_on_c, 0, 71, 52
2, 283440, Note_on_c, 0, 71, 0
2, 283440, Note_on_c, 0, 73, 52
2, 283680, Note_on_c, 0, 73, 0
2, 283680, Note_on_c, 0, 69, 52
2, 283920, Note_on_c, 0, 69, 0
2, 284160, Note_on_c, 0, 73, 52
2, 284880, Note_on_c, 0, 73, 0
2, 284880, Note_on_c, 0, 71, 52
2, 285120, Note_on_c, 0, 71, 0
2, 285120, Note_on_c, 0, 69, 52
2, 285360, Note_on_c, 0, 69, 0
2, 285600, Note_on_c, 0, 68, 78
2, 286320, Note_on_c, 0, 68, 0
2, 286320, Note_on_c, 0, 66, 52
2, 286560, Note_on_c, 0, 66, 0
2, 286560, Note_on_c, 0, 64, 52
2, 287040, Note_on_c, 0, 64, 0
2, 288000, Note_on_c, 0, 78, 91
2, 288000, Note_on_c, 0, 80, 91
2, 288000, Note_on_c, 0, 83, 91
2, 288000, Note_on_c, 0, 88, 91
2, 288000, Note_on_c, 0, 90, 91
2, 289920, Note_on_c, 0, 90, 0
2, 289920, Note_on_c, 0, 83, 0
2, 289920, Note_on_c, 0, 78, 0
2, 289920, Note_on_c, 0, 80, 0
2, 289920, Note_on_c, 0, 88, 0
2, 289920, Note_on_c, 0, 80, 117
2, 289920, Note_on_c, 0, 92, 117
2, 290640, Note_on_c, 0, 92, 0
2, 290640, Note_on_c, 0, 80, 0
2, 290640, Note_on_c, 0, 76, 91
2, 290640, Note_on_c, 0, 88, 91
2, 290880, Note_on_c, 0, 88, 0
2, 290880, Note_on_c, 0, 76, 0
2, 290880, Note_on_c, 0, 76, 91
2, 290880, Note_on_c, 0, 80, 91
2, 290880, Note_on_c, 0, 85, 91
2, 290880, Note_on_c, 0, 88, 91
2, 291120, Note_on_c, 0, 88, 0
2, 291120, Note_on_c, 0, 76, 0
2, 291120, Note_on_c, 0, 80, 0
2, 291120, Note_on_c, 0, 85, 0
2, 291360, Note_on_c, 0, 68, 117
2, 291360, Note_on_c, 0, 80, 117
2, 292080, Note_on_c, 0, 80, 0
2, 292080, Note_on_c, 0, 68, 0
2, 292080, Note_on_c, 0, 76, 91
2, 292320, Note_on_c, 0, 76, 0
2, 292320, Note_on_c, 0, 64, 91
2, 292320, Note_on_c, 0, 68, 91
2, 292320, Note_on_c, 0, 73, 91
2, 292320, Note_on_c, 0, 76, 91
2, 292560, Note_on_c, 0, 76, 0
2, 292560, Note_on_c, 0, 64, 0
2, 292560, Note_on_c, 0, 68, 0
2, 292560, Note_on_c, 0, 73, 0
2, 292800, Note_on_c, 0, 68, 117
2, 292800, Note_on_c, 0, 80, 117
2, 293520, Note_on_c, 0, 80, 0
2, 293520, Note_on_c, 0, 68, 0
2, 293520, Note_on_c, 0, 76, 91
2, 293760, Note_on_c, 0, 76, 0
2, 293760, Note_on_c, 0, 64, 91
2, 293760, Note_on_c, 0, 68, 91
2, 293760, Note_on_c, 0, 74, 91
2, 293760, Note_on_c, 0, 76, 91
2, 294000, Note_on_c, 0, 76, 0
2, 294000, Note_on_c, 0, 64, 0
2, 294000, Note_on_c, 0, 68, 0
2, 294000, Note_on_c, 0, 74, 0
2, 294240, Note_on_c, 0, 68, 117
2, 294240, Note_on_c, 0, 80, 117
2, 294960, Note_on_c, 0, 80, 0
2, 294960, Note_on_c, 0, 68, 0
2, 294960, Note_on_c, 0, 76, 91
2, 295200, Note_on_c, 0, 76, 0
2, 295200, Note_on_c, 0, 64, 91
2, 295200, Note_on_c, 0, 68, 91
2, 295200, Note_on_c, 0, 74, 91
2, 295200, Note_on_c, 0, 76, 91
2, 295440, Note_on_c, 0, 76, 0
2, 295440, Note_on_c, 0, 64, 0
2, 295440, Note_on_c, 0, 68, 0
2, 295440, Note_on_c, 0, 74, 0
2, 295680, Note_on_c, 0, 66, 117
2, 295680, Note_on_c, 0, 78, 117
2, 296400, Note_on_c, 0, 78, 0
2, 296400, Note_on_c, 0, 66, 0
2, 296400, Note_on_c, 0, 68, 91
2, 296400, Note_on_c, 0, 80, 91
2, 296640, Note_on_c, 0, 80, 0
2, 296640, Note_on_c, 0, 68, 0
2, 296640, Note_on_c, 0, 69, 91
2, 296640, Note_on_c, 0, 73, 91
2, 296640, Note_on_c, 0, 76, 91
2, 296640, Note_on_c, 0, 81, 91
2, 296880, Note_on_c, 0, 81, 0
2, 296880, Note_on_c, 0, 69, 0
2, 296880, Note_on_c, 0, 73, 0
2, 296880, Note_on_c, 0, 76, 0
2, 297120, Note_on_c, 0, 71, 117
2, 297120, Note_on_c, 0, 83, 117
2, 297840, Note_on_c, 0, 83, 0
2, 297840, Note_on_c, 0, 71, 0
2, 297840, Note_on_c, 0, 73, 91
2, 297840, Note_on_c, 0, 85, 91
2, 298080, Note_on_c, 0, 85, 0
2, 298080, Note_on_c, 0, 73, 0
2, 298080, Note_on_c, 0, 68, 117
2, 298080, Note_on_c, 0, 73, 117
2, 298080, Note_on_c, 0, 76, 117
2, 298080, Note_on_c, 0, 80, 117
2, 299040, Note_on_c, 0, 80, 0
2, 299040, Note_on_c, 0, 68, 0
2, 299040, Note_on_c, 0, 69, 91
2, 299040, Note_on_c, 0, 81, 91
2, 299520, Note_on_c, 0, 81, 0
2, 299520, Note_on_c, 0, 73, 0
2, 299520, Note_on_c, 0, 76, 0
2, 299520, Note_on_c, 0, 69, 0
2, 299520, Note_on_c, 0, 71, 91
2, 299520, Note_on_c, 0, 78, 91
2, 299520, Note_on_c, 0, 83, 91
2, 299760, Note_on_c, 0, 83, 0
2, 299760, Note_on_c, 0, 78, 0
2, 299760, Note_on_c, 0, 71, 0
2, 300000, Note_on_c, 0, 73, 117
2, 300000, Note_on_c, 0, 85, 117
2, 300720, Note_on_c, 0, 85, 0
2, 300720, Note_on_c, 0, 73, 0
2, 300720, Note_on_c, 0, 74, 91
2, 300720, Note_on_c, 0, 86, 91
2, 300960, Note_on_c, 0, 86, 0
2, 300960, Note_on_c, 0, 74, 0
2, 300960, Note_on_c, 0, 70, 117
2, 300960, Note_on_c, 0, 74, 117
2, 300960, Note_on_c, 0, 78, 117
2, 300960, Note_on_c, 0, 82, 117
2, 301920, Note_on_c, 0, 82, 0
2, 301920, Note_on_c, 0, 70, 0
2, 301920, Note_on_c, 0, 71, 91
2, 301920, Note_on_c, 0, 83, 91
2, 302400, Note_on_c, 0, 83, 0
2, 302400, Note_on_c, 0, 74, 0
2, 302400, Note_on_c, 0, 78, 0
2, 302400, Note_on_c, 0, 71, 0
2, 302400, Note_on_c, 0, 72, 91
2, 302400, Note_on_c, 0, 84, 91
2, 302880, Note_on_c, 0, 84, 0
2, 302880, Note_on_c, 0, 72, 0
2, 302880, Note_on_c, 0, 73, 91
2, 302880, Note_on_c, 0, 85, 91
2, 303360, Note_on_c, 0, 85, 0
2, 303360, Note_on_c, 0, 73, 0
2, 303360, Note_on_c, 0, 78, 91
2, 303360, Note_on_c, 0, 90, 91
2, 303840, Note_on_c, 0, 90, 0
2, 303840, Note_on_c, 0, 78, 0
2, 303840, Note_on_c, 0, 72, 91
2, 303840, Note_on_c, 0, 84, 91
2, 304320, Note_on_c, 0, 84, 0
2, 304320, Note_on_c, 0, 72, 0
2, 304320, Note_on_c, 0, 73, 91
2, 304320, Note_on_c, 0, 85, 91
2, 304800, Note_on_c, 0, 85, 0
2, 304800, Note_on_c, 0, 73, 0
2, 304800, Note_on_c, 0, 78, 91
2, 304800, Note_on_c, 0, 90, 91
2, 305280, Note_on_c, 0, 90, 0
2, 305280, Note_on_c, 0, 78, 0
2, 305280, Note_on_c, 0, 73, 91
2, 305280, Note_on_c, 0, 85, 91
2, 305760, Note_on_c, 0, 85, 0
2, 305760, Note_on_c, 0, 73, 0
2, 305760, Note_on_c, 0, 74, 91
2, 305760, Note_on_c, 0, 86, 91
2, 306240, Note_on_c, 0, 86, 0
2, 306240, Note_on_c, 0, 74, 0
2, 306240, Note_on_c, 0, 79, 91
2, 306240, Note_on_c, 0, 91, 91
2, 306720, Note_on_c, 0, 91, 0
2, 306720, Note_on_c, 0, 79, 0
2, 306720, Note_on_c, 0, 73, 91
2, 306720, Note_on_c, 0, 85, 91
2, 307200, Note_on_c, 0, 85, 0
2, 307200, Note_on_c, 0, 73, 0
2, 307200, Note_on_c, 0, 74, 91
2, 307200, Note_on_c, 0, 86, 91
2, 307680, Note_on_c, 0, 86, 0
2, 307680, Note_on_c, 0, 74, 0
2, 307680, Note_on_c, 0, 80, 91
2, 307680, Note_on_c, 0, 92, 91
2, 308160, Note_on_c, 0, 92, 0
2, 308160, Note_on_c, 0, 80, 0
2, 308160, Note_on_c, 0, 81, 91
2, 308160, Note_on_c, 0, 85, 91
2, 308160, Note_on_c, 0, 88, 91
2, 308160, Note_on_c, 0, 93, 91
2, 308400, Note_on_c, 0, 93, 0
2, 308400, Note_on_c, 0, 81, 0
2, 308400, Note_on_c, 0, 85, 0
2, 308400, Note_on_c, 0, 88, 0
2, 308640, Note_on_c, 0, 80, 91
2, 308640, Note_on_c, 0, 92, 91
2, 309360, Note_on_c, 0, 92, 0
2, 309360, Note_on_c, 0, 80, 0
2, 309360, Note_on_c, 0, 78, 91
2, 309360, Note_on_c, 0, 90, 91
2, 309600, Note_on_c, 0, 90, 0
2, 309600, Note_on_c, 0, 78, 0
2, 309600, Note_on_c, 0, 78, 91
2, 309600, Note_on_c, 0, 90, 91
2, 310560, Note_on_c, 0, 90, 0
2, 310560, Note_on_c, 0, 78, 0
2, 310560, Note_on_c, 0, 76, 91
2, 310560, Note_on_c, 0, 88, 91
2, 311040, Note_on_c, 0, 88, 0
2, 311040, Note_on_c, 0, 76, 0
2, 311040, Note_on_c, 0, 78, 91
2, 311040, Note_on_c, 0, 80, 91
2, 311040, Note_on_c, 0, 83, 91
2, 311040, Note_on_c, 0, 88, 91
2, 311040, Note_on_c, 0, 90, 91
2, 312960, Note_on_c, 0, 90, 0
2, 312960, Note_on_c, 0, 83, 0
2, 312960, Note_on_c, 0, 78, 0
2, 312960, Note_on_c, 0, 80, 0
2, 312960, Note_on_c, 0, 88, 0
2, 312960, Note_on_c, 0, 80, 117
2, 312960, Note_on_c, 0, 92, 117
2, 313680, Note_on_c, 0, 92, 0
2, 313680, Note_on_c, 0, 80, 0
2, 313680, Note_on_c, 0, 76, 91
2, 313680, Note_on_c, 0, 88, 91
2, 313920, Note_on_c, 0, 88, 0
2, 313920, Note_on_c, 0, 76, 0
2, 313920, Note_on_c, 0, 76, 91
2, 313920, Note_on_c, 0, 80, 91
2, 313920, Note_on_c, 0, 85, 91
2, 313920, Note_on_c, 0, 88, 91
2, 314160, Note_on_c, 0, 88, 0
2, 314160, Note_on_c, 0, 76, 0
2, 314160, Note_on_c, 0, 80, 0
2, 314160, Note_on_c, 0, 85, 0
2, 314400, Note_on_c, 0, 68, 117
2, 314400, Note_on_c, 0, 80, 117
2, 315120, Note_on_c, 0, 80, 0
2, 315120, Note_on_c, 0, 68, 0
2, 315120, Note_on_c, 0, 76, 91
2, 315360, Note_on_c, 0, 76, 0
2, 315360, Note_on_c, 0, 64, 91
2, 315360, Note_on_c, 0, 68, 91
2, 315360, Note_on_c, 0, 73, 91
2, 315360, Note_on_c, 0, 76, 91
2, 315600, Note_on_c, 0, 76, 0
2, 315600, Note_on_c, 0, 64, 0
2, 315600, Note_on_c, 0, 68, 0
2, 315600, Note_on_c, 0, 73, 0
2, 315840, Note_on_c, 0, 68, 117
2, 315840, Note_on_c, 0, 80, 117
2, 316560, Note_on_c, 0, 80, 0
2, 316560, Note_on_c, 0, 68, 0
2, 316560, Note_on_c, 0, 76, 91
2, 316800, Note_on_c, 0, 76, 0
2, 316800, Note_on_c, 0, 64, 91
2, 316800, Note_on_c, 0, 68, 91
2, 316800, Note_on_c, 0, 74, 91
2, 316800, Note_on_c, 0, 76, 91
2, 317040, Note_on_c, 0, 76, 0
2, 317040, Note_on_c, 0, 64, 0
2, 317040, Note_on_c, 0, 68, 0
2, 317040, Note_on_c, 0, 74, 0
2, 317280, Note_on_c, 0, 68, 117
2, 317280, Note_on_c, 0, 80, 117
2, 318000, Note_on_c, 0, 80, 0
2, 318000, Note_on_c, 0, 68, 0
2, 318000, Note_on_c, 0, 76, 91
2, 318240, Note_on_c, 0, 76, 0
2, 318240, Note_on_c, 0, 64, 91
2, 318240, Note_on_c, 0, 68, 91
2, 318240, Note_on_c, 0, 74, 91
2, 318240, Note_on_c, 0, 76, 91
2, 318480, Note_on_c, 0, 76, 0
2, 318480, Note_on_c, 0, 64, 0
2, 318480, Note_on_c, 0, 68, 0
2, 318480, Note_on_c, 0, 74, 0
2, 318720, Note_on_c, 0, 66, 117
2, 318720, Note_on_c, 0, 78, 117
2, 319440, Note_on_c, 0, 78, 0
2, 319440, Note_on_c, 0, 66, 0
2, 319440, Note_on_c, 0, 68, 91
2, 319440, Note_on_c, 0, 80, 91
2, 319680, Note_on_c, 0, 80, 0
2, 319680, Note_on_c, 0, 68, 0
2, 319680, Note_on_c, 0, 69, 91
2, 319680, Note_on_c, 0, 73, 91
2, 319680, Note_on_c, 0, 76, 91
2, 319680, Note_on_c, 0, 81, 91
2, 319920, Note_on_c, 0, 81, 0
2, 319920, Note_on_c, 0, 69, 0
2, 319920, Note_on_c, 0, 73, 0
2, 319920, Note_on_c, 0, 76, 0
2, 320160, Note_on_c, 0, 71, 117
2, 320160, Note_on_c, 0, 83, 117
2, 320880, Note_on_c, 0, 83, 0
2, 320880, Note_on_c, 0, 71, 0
2, 320880, Note_on_c, 0, 73, 91
2, 320880, Note_on_c, 0, 85, 91
2, 321120, Note_on_c, 0, 85, 0
2, 321120, Note_on_c, 0, 73, 0
2, 321120, Note_on_c, 0, 68, 117
2, 321120, Note_on_c, 0, 73, 117
2, 321120, Note_on_c, 0, 76, 117
2, 321120, Note_on_c, 0, 80, 117
2, 322080, Note_on_c, 0, 80, 0
2, 322080, Note_on_c, 0, 68, 0
2, 322080, Note_on_c, 0, 69, 91
2, 322080, Note_on_c, 0, 81, 91
2, 322560, Note_on_c, 0, 81, 0
2, 322560, Note_on_c, 0, 73, 0
2, 322560, Note_on_c, 0, 76, 0
2, 322560, Note_on_c, 0, 69, 0
2, 322560, Note_on_c, 0, 71, 91
2, 322560, Note_on_c, 0, 78, 91
2, 322560, Note_on_c, 0, 83, 91
2, 322800, Note_on_c, 0, 83, 0
2, 322800, Note_on_c, 0, 78, 0
2, 322800, Note_on_c, 0, 71, 0
2, 323040, Note_on_c, 0, 73, 117
2, 323040, Note_on_c, 0, 85, 117
2, 323760, Note_on_c, 0, 85, 0
2, 323760, Note_on_c, 0, 73, 0
2, 323760, Note_on_c, 0, 74, 91
2, 323760, Note_on_c, 0, 86, 91
2, 324000, Note_on_c, 0, 86, 0
2, 324000, Note_on_c, 0, 74, 0
2, 324000, Note_on_c, 0, 70, 117
2, 324000, Note_on_c, 0, 74, 117
2, 324000, Note_on_c, 0, 78, 117
2, 324000, Note_on_c, 0, 82, 117
2, 324960, Note_on_c, 0, 82, 0
2, 324960, Note_on_c, 0, 70, 0
2, 324960, Note_on_c, 0, 71, 91
2, 324960, Note_on_c, 0, 83, 91
2, 325440, Note_on_c, 0, 83, 0
2, 325440, Note_on_c, 0, 74, 0
2, 325440, Note_on_c, 0, 78, 0
2, 325440, Note_on_c, 0, 71, 0
2, 325440, Note_on_c, 0, 72, 91
2, 325440, Note_on_c, 0, 84, 91
2, 325920, Note_on_c, 0, 84, 0
2, 325920, Note_on_c, 0, 72, 0
2, 325920, Note_on_c, 0, 73, 91
2, 325920, Note_on_c, 0, 85, 91
2, 326400, Note_on_c, 0, 85, 0
2, 326400, Note_on_c, 0, 73, 0
2, 326400, Note_on_c, 0, 78, 91
2, 326400, Note_on_c, 0, 90, 91
2, 326880, Note_on_c, 0, 90, 0
2, 326880, Note_on_c, 0, 78, 0
2, 326880, Note_on_c, 0, 72, 91
2, 326880, Note_on_c, 0, 84, 91
2, 327360, Note_on_c, 0, 84, 0
2, 327360, Note_on_c, 0, 72, 0
2, 327360, Note_on_c, 0, 73, 91
2, 327360, Note_on_c, 0, 85, 91
2, 327840, Note_on_c, 0, 85, 0
2, 327840, Note_on_c, 0, 73, 0
2, 327840, Note_on_c, 0, 78, 91
2, 327840, Note_on_c, 0, 90, 91
2, 328320, Note_on_c, 0, 90, 0
2, 328320, Note_on_c, 0, 78, 0
2, 328320, Note_on_c, 0, 73, 91
2, 328320, Note_on_c, 0, 85, 91
2, 328800, Note_on_c, 0, 85, 0
2, 328800, Note_on_c, 0, 73, 0
2, 328800, Note_on_c, 0, 74, 91
2, 328800, Note_on_c, 0, 86, 91
2, 329280, Note_on_c, 0, 86, 0
2, 329280, Note_on_c, 0, 74, 0
2, 329280, Note_on_c, 0, 79, 91
2, 329280, Note_on_c, 0, 91, 91
2, 329760, Note_on_c, 0, 91, 0
2, 329760, Note_on_c, 0, 79, 0
2, 329760, Note_on_c, 0, 73, 91
2, 329760, Note_on_c, 0, 85, 91
2, 330240, Note_on_c, 0, 85, 0
2, 330240, Note_on_c, 0, 73, 0
2, 330240, Note_on_c, 0, 74, 91
2, 330240, Note_on_c, 0, 86, 91
2, 330720, Note_on_c, 0, 86, 0
2, 330720, Note_on_c, 0, 74, 0
2, 330720, Note_on_c, 0, 80, 91
2, 330720, Note_on_c, 0, 92, 91
2, 331200, Note_on_c, 0, 92, 0
2, 331200, Note_on_c, 0, 80, 0
2, 331200, Note_on_c, 0, 81, 91
2, 331200, Note_on_c, 0, 85, 91
2, 331200, Note_on_c, 0, 88, 91
2, 331200, Note_on_c, 0, 93, 91
2, 331680, Note_on_c, 0, 93, 0
2, 331680, Note_on_c, 0, 81, 0
2, 331680, Note_on_c, 0, 85, 0
2, 331680, Note_on_c, 0, 88, 0
2, 331680, Note_on_c, 0, 69, 91
2, 331680, Note_on_c, 0, 73, 91
2, 331680, Note_on_c, 0, 76, 91
2, 331680, Note_on_c, 0, 81, 91
2, 332400, Note_on_c, 0, 81, 0
2, 332400, Note_on_c, 0, 69, 0
2, 332400, Note_on_c, 0, 73, 0
2, 332400, Note_on_c, 0, 76, 0
2, 332400, Note_on_c, 0, 69, 91
2, 332400, Note_on_c, 0, 73, 91
2, 332400, Note_on_c, 0, 76, 91
2, 332400, Note_on_c, 0, 81, 91
2, 332640, Note_on_c, 0, 81, 0
2, 332640, Note_on_c, 0, 69, 0
2, 332640, Note_on_c, 0, 73, 0
2, 332640, Note_on_c, 0, 76, 0
2, 332640, Note_on_c, 0, 69, 91
2, 332640, Note_on_c, 0, 73, 91
2, 332640, Note_on_c, 0, 76, 91
2, 332640, Note_on_c, 0, 81, 91
2, 333120, Note_on_c, 0, 81, 0
2, 333120, Note_on_c, 0, 69, 0
2, 333120, Note_on_c, 0, 73, 0
2, 333120, Note_on_c, 0, 76, 0
2, 334560, Note_on_c, 0, 69, 78
2, 334560, Note_on_c, 0, 72, 78
2, 334560, Note_on_c, 0, 77, 78
2, 334560, Note_on_c, 0, 81, 78
2, 335520, Note_on_c, 0, 81, 0
2, 335520, Note_on_c, 0, 69, 0
2, 335520, Note_on_c, 0, 72, 0
2, 335520, Note_on_c, 0, 77, 0
2, 335520, Note_on_c, 0, 67, 52
2, 335520, Note_on_c, 0, 79, 52
2, 336480, Note_on_c, 0, 79, 0
2, 336480, Note_on_c, 0, 67, 0
2, 336480, Note_on_c, 0, 65, 52
2, 336480, Note_on_c, 0, 77, 52
2, 336960, Note_on_c, 0, 77, 0
2, 336960, Note_on_c, 0, 65, 0
2, 337440, Note_on_c, 0, 70, 78
2, 337440, Note_on_c, 0, 72, 78
2, 337440, Note_on_c, 0, 77, 78
2, 337440, Note_on_c, 0, 82, 78
2, 338160, Note_on_c, 0, 82, 0
2, 338160, Note_on_c, 0, 70, 0
2, 338160, Note_on_c, 0, 72, 0
2, 338160, Note_on_c, 0, 77, 0
2, 338160, Note_on_c, 0, 69, 52
2, 338160, Note_on_c, 0, 81, 52
2, 338400, Note_on_c, 0, 81, 0
2, 338400, Note_on_c, 0, 69, 0
2, 338400, Note_on_c, 0, 67, 52
2, 338400, Note_on_c, 0, 79, 52
2, 339360, Note_on_c, 0, 79, 0
2, 339360, Note_on_c, 0, 67, 0
2, 339360, Note_on_c, 0, 65, 52
2, 339360, Note_on_c, 0, 77, 52
2, 339840, Note_on_c, 0, 77, 0
2, 339840, Note_on_c, 0, 65, 0
2, 339840, Control_c, 0, 64, 127
2, 339840, Note_on_c, 0, 79, 39
2, 339840, Note_on_c, 0, 84, 39
2, 340080, Note_on_c, 0, 84, 0
2, 340080, Note_on_c, 0, 79, 0
2, 340080, Note_on_c, 0, 72, 39
2, 340320, Note_on_c, 0, 72, 0
2, 340320, Note_on_c, 0, 79, 39
2, 340320, Note_on_c, 0, 84, 39
2, 340560, Note_on_c, 0, 84, 0
2, 340560, Note_on_c, 0, 79, 0
2, 340560, Note_on_c, 0, 72, 39
2, 340800, Note_on_c, 0, 72, 0
2, 340800, Note_on_c, 0, 79, 39
2, 340800, Note_on_c, 0, 84, 39
2, 341040, Note_on_c, 0, 84, 0
2, 341040, Note_on_c, 0, 79, 0
2, 341040, Control_c, 0, 64, 0
2, 341040, Note_on_c, 0, 72, 39
2, 341280, Note_on_c, 0, 72, 0
2, 341280, Control_c, 0, 64, 127
2, 341280, Note_on_c, 0, 80, 52
2, 341280, Note_on_c, 0, 85, 52
2, 341520, Note_on_c, 0, 85, 0
2, 341520, Note_on_c, 0, 80, 0
2, 341520, Note_on_c, 0, 73, 52
2, 341760, Note_on_c, 0, 73, 0
2, 341760, Note_on_c, 0, 80, 52
2, 341760, Note_on_c, 0, 85, 52
2, 342000, Note_on_c, 0, 85, 0
2, 342000, Note_on_c, 0, 80, 0
2, 342000, Note_on_c, 0, 73, 52
2, 342240, Note_on_c, 0, 73, 0
2, 342240, Note_on_c, 0, 80, 52
2, 342240, Note_on_c, 0, 85, 52
2, 342480, Note_on_c, 0, 85, 0
2, 342480, Note_on_c, 0, 80, 0
2, 342480, Control_c, 0, 64, 0
2, 342480, Note_on_c, 0, 73, 52
2, 342720, Note_on_c, 0, 73, 0
2, 342720, Control_c, 0, 64, 127
2, 342720, Note_on_c, 0, 81, 65
2, 342720, Note_on_c, 0, 86, 65
2, 342960, Note_on_c, 0, 86, 0
2, 342960, Note_on_c, 0, 81, 0
2, 342960, Note_on_c, 0, 74, 65
2, 343200, Note_on_c, 0, 74, 0
2, 343200, Note_on_c, 0, 81, 65
2, 343200, Note_on_c, 0, 86, 65
2, 343440, Note_on_c, 0, 86, 0
2, 343440, Note_on_c, 0, 81, 0
2, 343440, Note_on_c, 0, 74, 65
2, 343680, Note_on_c, 0, 74, 0
2, 343680, Note_on_c, 0, 81, 65
2, 343680, Note_on_c, 0, 86, 65
2, 343920, Note_on_c, 0, 86, 0
2, 343920, Note_on_c, 0, 81, 0
2, 343920, Control_c, 0, 64, 0
2, 343920, Note_on_c, 0, 74, 65
2, 344160, Note_on_c, 0, 74, 0
2, 344160, Control_c, 0, 64, 127
2, 344160, Note_on_c, 0, 80, 52
2, 344160, Note_on_c, 0, 85, 52
2, 344400, Note_on_c, 0, 85, 0
2, 344400, Note_on_c, 0, 80, 0
2, 344400, Note_on_c, 0, 73, 52
2, 344640, Note_on_c, 0, 73, 0
2, 344640, Note_on_c, 0, 80, 52
2, 344640, Note_on_c, 0, 85, 52
2, 344880, Note_on_c, 0, 85, 0
2, 344880, Note_on_c, 0, 80, 0
2, 344880, Note_on_c, 0, 73, 52
2, 345120, Note_on_c, 0, 73, 0
2, 345120, Note_on_c, 0, 79, 52
2, 345120, Note_on_c, 0, 84, 52
2, 345360, Note_on_c, 0, 84, 0
2, 345360, Note_on_c, 0, 79, 0
2, 345360, Control_c, 0, 64, 0
2, 345360, Note_on_c, 0, 72, 52
2, 345600, Note_on_c, 0, 72, 0
2, 346080, Note_on_c, 0, 69, 78
2, 346080, Note_on_c, 0, 72, 78
2, 346080, Note_on_c, 0, 77, 78
2, 346080, Note_on_c, 0, 81, 78
2, 347040, Note_on_c, 0, 81, 0
2, 347040, Note_on_c, 0, 69, 0
2, 347040, Note_on_c, 0, 72, 0
2, 347040, Note_on_c, 0, 77, 0
2, 347040, Note_on_c, 0, 67, 52
2, 347040, Note_on_c, 0, 79, 52
2, 348000, Note_on_c, 0, 79, 0
2, 348000, Note_on_c, 0, 67, 0
2, 348000, Note_on_c, 0, 65, 52
2, 348000, Note_on_c, 0, 77, 52
2, 348480, Note_on_c, 0, 77, 0
2, 348480, Note_on_c, 0, 65, 0
2, 348960, Note_on_c, 0, 70, 78
2, 348960, Note_on_c, 0, 72, 78
2, 348960, Note_on_c, 0, 77, 78
2, 348960, Note_on_c, 0, 82, 78
2, 349680, Note_on_c, 0, 82, 0
2, 349680, Note_on_c, 0, 70, 0
2, 349680, Note_on_c, 0, 72, 0
2, 349680, Note_on_c, 0, 77, 0
2, 349680, Note_on_c, 0, 69, 52
2, 349680, Note_on_c, 0, 81, 52
2, 349920, Note_on_c, 0, 81, 0
2, 349920, Note_on_c, 0, 69, 0
2, 349920, Note_on_c, 0, 67, 52
2, 349920, Note_on_c, 0, 79, 52
2, 350880, Note_on_c, 0, 79, 0
2, 350880, Note_on_c, 0, 67, 0
2, 350880, Note_on_c, 0, 65, 52
2, 350880, Note_on_c, 0, 77, 52
2, 351360, Note_on_c, 0, 77, 0
2, 351360, Note_on_c, 0, 65, 0
2, 351360, Control_c, 0, 64, 127
2, 351360, Note_on_c, 0, 79, 39
2, 351360, Note_on_c, 0, 84, 39
2, 351600, Note_on_c, 0, 84, 0
2, 351600, Note_on_c, 0, 79, 0
2, 351600, Note_on_c, 0, 72, 39
2, 351840, Note_on_c, 0, 72, 0
2, 351840, Note_on_c, 0, 79, 39
2, 351840, Note_on_c, 0, 84, 39
2, 352080, Note_on_c, 0, 84, 0
2, 352080, Note_on_c, 0, 79, 0
2, 352080, Note_on_c, 0, 72, 39
2, 352320, Note_on_c, 0, 72, 0
2, 352320, Note_on_c, 0, 79, 39
2, 352320, Note_on_c, 0, 84, 39
2, 352560, Note_on_c, 0, 84, 0
2, 352560, Note_on_c, 0, 79, 0
2, 352560, Control_c, 0, 64, 0
2, 352560, Note_on_c, 0, 72, 39
2, 352800, Note_on_c, 0, 72, 0
2, 352800, Control_c, 0, 64, 127
2, 352800, Note_on_c, 0, 80, 52
2, 352800, Note_on_c, 0, 85, 52
2, 353040, Note_on_c, 0, 85, 0
2, 353040, Note_on_c, 0, 80, 0
2, 353040, Note_on_c, 0, 73, 52
2, 353280, Note_on_c, 0, 73, 0
2, 353280, Note_on_c, 0, 80, 52
2, 353280, Note_on_c, 0, 85, 52
2, 353520, Note_on_c, 0, 85, 0
2, 353520, Note_on_c, 0, 80, 0
2, 353520, Note_on_c, 0, 73, 52
2, 353760, Note_on_c, 0, 73, 0
2, 353760, Note_on_c, 0, 80, 52
2, 353760, Note_on_c, 0, 85, 52
2, 354000, Note_on_c, 0, 85, 0
2, 354000, Note_on_c, 0, 80, 0
2, 354000, Control_c, 0, 64, 0
2, 354000, Note_on_c, 0, 73, 52
2, 354240, Note_on_c, 0, 73, 0
2, 354240, Control_c, 0, 64, 127
2, 354240, Note_on_c, 0, 81, 52
2, 354240, Note_on_c, 0, 86, 52
2, 354480, Note_on_c, 0, 86, 0
2, 354480, Note_on_c, 0, 81, 0
2, 354480, Note_on_c, 0, 74, 52
2, 354720, Note_on_c, 0, 74, 0
2, 354720, Note_on_c, 0, 80, 65
2, 354720, Note_on_c, 0, 85, 65
2, 354960, Note_on_c, 0, 85, 0
2, 354960, Note_on_c, 0, 80, 0
2, 354960, Note_on_c, 0, 73, 65
2, 355200, Note_on_c, 0, 73, 0
2, 355200, Note_on_c, 0, 79, 65
2, 355200, Note_on_c, 0, 84, 65
2, 355440, Note_on_c, 0, 84, 0
2, 355440, Note_on_c, 0, 79, 0
2, 355440, Control_c, 0, 64, 0
2, 355440, Note_on_c, 0, 72, 65
2, 355680, Note_on_c, 0, 72, 0
2, 355680, Note_on_c, 0, 72, 65
2, 355680, Note_on_c, 0, 77, 65
2, 355680, Note_on_c, 0, 81, 65
2, 356160, Note_on_c, 0, 81, 0
2, 356160, Note_on_c, 0, 77, 0
2, 356160, Note_on_c, 0, 72, 0
2, 357600, Note_on_c, 0, 69, 78
2, 357600, Note_on_c, 0, 72, 78
2, 357600, Note_on_c, 0, 77, 78
2, 357600, Note_on_c, 0, 81, 78
2, 358560, Note_on_c, 0, 81, 0
2, 358560, Note_on_c, 0, 69, 0
2, 358560, Note_on_c, 0, 72, 0
2, 358560, Note_on_c, 0, 77, 0
2, 358560, Note_on_c, 0, 67, 52
2, 358560, Note_on_c, 0, 79, 52
2, 359520, Note_on_c, 0, 79, 0
2, 359520, Note_on_c, 0, 67, 0
2, 359520, Note_on_c, 0, 65, 52
2, 359520, Note_on_c, 0, 77, 52
2, 360000, Note_on_c, 0, 77, 0
2, 360000, Note_on_c, 0, 65, 0
2, 360480, Note_on_c, 0, 70, 78
2, 360480, Note_on_c, 0, 72, 78
2, 360480, Note_on_c, 0, 77, 78
2, 360480, Note_on_c, 0, 82, 78
2, 361200, Note_on_c, 0, 82, 0
2, 361200, Note_on_c, 0, 70, 0
2, 361200, Note_on_c, 0, 72, 0
2, 361200, Note_on_c, 0, 77, 0
2, 361200, Note_on_c, 0, 69, 52
2, 361200, Note_on_c, 0, 81, 52
2, 361440, Note_on_c, 0, 81, 0
2, 361440, Note_on_c, 0, 69, 0
2, 361440, Note_on_c, 0, 67, 52
2, 361440, Note_on_c, 0, 79, 52
2, 362400, Note_on_c, 0, 79, 0
2, 362400, Note_on_c, 0, 67, 0
2, 362400, Note_on_c, 0, 65, 52
2, 362400, Note_on_c, 0, 77, 52
2, 362880, Note_on_c, 0, 77, 0
2, 362880, Note_on_c, 0, 65, 0
2, 362880, Control_c, 0, 64, 127
2, 362880, Note_on_c, 0, 79, 39
2, 362880, Note_on_c, 0, 84, 39
2, 363120, Note_on_c, 0, 84, 0
2, 363120, Note_on_c, 0, 79, 0
2, 363120, Note_on_c, 0, 72, 39
2, 363360, Note_on_c, 0, 72, 0
2, 363360, Note_on_c, 0, 79, 39
2, 363360, Note_on_c, 0, 84, 39
2, 363600, Note_on_c, 0, 84, 0
2, 363600, Note_on_c, 0, 79, 0
2, 363600, Note_on_c, 0, 72, 39
2, 363840, Note_on_c, 0, 72, 0
2, 363840, Note_on_c, 0, 79, 39
2, 363840, Note_on_c, 0, 84, 39
2, 364080, Note_on_c, 0, 84, 0
2, 364080, Note_on_c, 0, 79, 0
2, 364080, Control_c, 0, 64, 0
2, 364080, Note_on_c, 0, 72, 39
2, 364320, Note_on_c, 0, 72, 0
2, 364320, Control_c, 0, 64, 127
2, 364320, Note_on_c, 0, 80, 52
2, 364320, Note_on_c, 0, 85, 52
2, 364560, Note_on_c, 0, 85, 0
2, 364560, Note_on_c, 0, 80, 0
2, 364560, Note_on_c, 0, 73, 52
2, 364800, Note_on_c, 0, 73, 0
2, 364800, Note_on_c, 0, 80, 52
2, 364800, Note_on_c, 0, 85, 52
2, 365040, Note_on_c, 0, 85, 0
2, 365040, Note_on_c, 0, 80, 0
2, 365040, Note_on_c, 0, 73, 52
2, 365280, Note_on_c, 0, 73, 0
2, 365280, Note_on_c, 0, 80, 52
2, 365280, Note_on_c, 0, 85, 52
2, 365520, Note_on_c, 0, 85, 0
2, 365520, Note_on_c, 0, 80, 0
2, 365520, Control_c, 0, 64, 0
2, 365520, Note_on_c, 0, 73, 52
2, 365760, Note_on_c, 0, 73, 0
2, 365760, Control_c, 0, 64, 127
2, 365760, Note_on_c, 0, 81, 65
2, 365760, Note_on_c, 0, 86, 65
2, 366000, Note_on_c, 0, 86, 0
2, 366000, Note_on_c, 0, 81, 0
2, 366000, Note_on_c, 0, 74, 65
2, 366240, Note_on_c, 0, 74, 0
2, 366240, Note_on_c, 0, 81, 65
2, 366240, Note_on_c, 0, 86, 65
2, 366480, Note_on_c, 0, 86, 0
2, 366480, Note_on_c, 0, 81, 0
2, 366480, Note_on_c, 0, 74, 65
2, 366720, Note_on_c, 0, 74, 0
2, 366720, Note_on_c, 0, 81, 65
2, 366720, Note_on_c, 0, 86, 65
2, 366960, Note_on_c, 0, 86, 0
2, 366960, Note_on_c, 0, 81, 0
2, 366960, Control_c, 0, 64, 0
2, 366960, Note_on_c, 0, 74, 65
2, 367200, Note_on_c, 0, 74, 0
2, 367200, Control_c, 0, 64, 127
2, 367200, Note_on_c, 0, 80, 52
2, 367200, Note_on_c, 0, 85, 52
2, 367440, Note_on_c, 0, 85, 0
2, 367440, Note_on_c, 0, 80, 0
2, 367440, Note_on_c, 0, 73, 52
2, 367680, Note_on_c, 0, 73, 0
2, 367680, Note_on_c, 0, 80, 52
2, 367680, Note_on_c, 0, 85, 52
2, 367920, Note_on_c, 0, 85, 0
2, 367920, Note_on_c, 0, 80, 0
2, 367920, Note_on_c, 0, 73, 52
2, 368160, Note_on_c, 0, 73, 0
2, 368160, Note_on_c, 0, 79, 52
2, 368160, Note_on_c, 0, 84, 52
2, 368400, Note_on_c, 0, 84, 0
2, 368400, Note_on_c, 0, 79, 0
2, 368400, Control_c, 0, 64, 0
2, 368400, Note_on_c, 0, 72, 52
2, 368640, Note_on_c, 0, 72, 0
2, 369120, Note_on_c, 0, 69, 78
2, 369120, Note_on_c, 0, 72, 78
2, 369120, Note_on_c, 0, 77, 78
2, 369120, Note_on_c, 0, 81, 78
2, 370080, Note_on_c, 0, 81, 0
2, 370080, Note_on_c, 0, 69, 0
2, 370080, Note_on_c, 0, 72, 0
2, 370080, Note_on_c, 0, 77, 0
2, 370080, Note_on_c, 0, 67, 52
2, 370080, Note_on_c, 0, 79, 52
2, 371040, Note_on_c, 0, 79, 0
2, 371040, Note_on_c, 0, 67, 0
2, 371040, Note_on_c, 0, 65, 52
2, 371040, Note_on_c, 0, 77, 52
2, 371520, Note_on_c, 0, 77, 0
2, 371520, Note_on_c, 0, 65, 0
2, 372000, Note_on_c, 0, 70, 78
2, 372000, Note_on_c, 0, 72, 78
2, 372000, Note_on_c, 0, 77, 78
2, 372000, Note_on_c, 0, 82, 78
2, 372720, Note_on_c, 0, 82, 0
2, 372720, Note_on_c, 0, 70, 0
2, 372720, Note_on_c, 0, 72, 0
2, 372720, Note_on_c, 0, 77, 0
2, 372720, Note_on_c, 0, 69, 52
2, 372720, Note_on_c, 0, 81, 52
2, 372960, Note_on_c, 0, 81, 0
2, 372960, Note_on_c, 0, 69, 0
2, 372960, Note_on_c, 0, 67, 52
2, 372960, Note_on_c, 0, 79, 52
2, 373920, Note_on_c, 0, 79, 0
2, 373920, Note_on_c, 0, 67, 0
2, 373920, Note_on_c, 0, 65, 52
2, 373920, Note_on_c, 0, 77, 52
2, 374400, Note_on_c, 0, 77, 0
2, 374400, Note_on_c, 0, 65, 0
2, 374400, Control_c, 0, 64, 127
2, 374400, Note_on_c, 0, 79, 39
2, 374400, Note_on_c, 0, 84, 39
2, 374640, Note_on_c, 0, 84, 0
2, 374640, Note_on_c, 0, 79, 0
2, 374640, Note_on_c, 0, 72, 39
2, 374880, Note_on_c, 0, 72, 0
2, 374880, Note_on_c, 0, 79, 39
2, 374880, Note_on_c, 0, 84, 39
2, 375120, Note_on_c, 0, 84, 0
2, 375120, Note_on_c, 0, 79, 0
2, 375120, Note_on_c, 0, 72, 39
2, 375360, Note_on_c, 0, 72, 0
2, 375360, Note_on_c, 0, 79, 39
2, 375360, Note_on_c, 0, 84, 39
2, 375600, Note_on_c, 0, 84, 0
2, 375600, Note_on_c, 0, 79, 0
2, 375600, Control_c, 0, 64, 0
2, 375600, Note_on_c, 0, 72, 39
2, 375840, Note_on_c, 0, 72, 0
2, 375840, Control_c, 0, 64, 127
2, 375840, Note_on_c, 0, 80, 52
2, 375840, Note_on_c, 0, 85, 52
2, 376080, Note_on_c, 0, 85, 0
2, 376080, Note_on_c, 0, 80, 0
2, 376080, Note_on_c, 0, 73, 52
2, 376320, Note_on_c, 0, 73, 0
2, 376320, Note_on_c, 0, 80, 52
2, 376320, Note_on_c, 0, 85, 52
2, 376560, Note_on_c, 0, 85, 0
2, 376560, Note_on_c, 0, 80, 0
2, 376560, Note_on_c, 0, 73, 52
2, 376800, Note_on_c, 0, 73, 0
2, 376800, Note_on_c, 0, 80, 52
2, 376800, Note_on_c, 0, 85, 52
2, 377040, Note_on_c, 0, 85, 0
2, 377040, Note_on_c, 0, 80, 0
2, 377040, Control_c, 0, 64, 0
2, 377040, Note_on_c, 0, 73, 52
2, 377280, Note_on_c, 0, 73, 0
2, 377280, Control_c, 0, 64, 127
2, 377280, Note_on_c, 0, 81, 52
2, 377280, Note_on_c, 0, 86, 52
2, 377520, Note_on_c, 0, 86, 0
2, 377520, Note_on_c, 0, 81, 0
2, 377520, Note_on_c, 0, 74, 52
2, 377760, Note_on_c, 0, 74, 0
2, 377760, Note_on_c, 0, 80, 65
2, 377760, Note_on_c, 0, 85, 65
2, 378000, Note_on_c, 0, 85, 0
2, 378000, Note_on_c, 0, 80, 0
2, 378000, Note_on_c, 0, 73, 65
2, 378240, Note_on_c, 0, 73, 0
2, 378240, Note_on_c, 0, 79, 65
2, 378240, Note_on_c, 0, 84, 65
2, 378480, Note_on_c, 0, 84, 0
2, 378480, Note_on_c, 0, 79, 0
2, 378480, Control_c, 0, 64, 0
2, 378480, Note_on_c, 0, 72, 65
2, 378720, Note_on_c, 0, 72, 0
2, 378720, Note_on_c, 0, 72, 52
2, 378720, Note_on_c, 0, 77, 52
2, 378720, Note_on_c, 0, 81, 52
2, 379200, Note_on_c, 0, 81, 0
2, 379200, Note_on_c, 0, 77, 0
2, 379200, Note_on_c, 0, 72, 0
2, 380160, Note_on_c, 0, 65, 65
2, 381600, Note_on_c, 0, 65, 0
2, 381600, Note_on_c, 0, 75, 65
2, 383040, Note_on_c, 0, 75, 0
2, 383040, Note_on_c, 0, 74, 65
2, 384960, Note_on_c, 0, 74, 0
2, 384960, Note_on_c, 0, 72, 65
2, 385440, Note_on_c, 0, 72, 0
2, 385440, Note_on_c, 0, 70, 65
2, 385920, Note_on_c, 0, 70, 0
2, 385920, Note_on_c, 0, 77, 65
2, 387840, Note_on_c, 0, 77, 0
2, 387840, Note_on_c, 0, 76, 65
2, 388320, Note_on_c, 0, 76, 0
2, 388320, Note_on_c, 0, 75, 65
2, 388800, Note_on_c, 0, 75, 0
2, 388800, Note_on_c, 0, 74, 65
2, 390720, Note_on_c, 0, 74, 0
2, 390720, Note_on_c, 0, 76, 65
2, 391200, Note_on_c, 0, 76, 0
2, 391200, Note_on_c, 0, 77, 65
2, 391680, Note_on_c, 0, 77, 0
2, 391680, Note_on_c, 0, 65, 65
2, 391680, Note_on_c, 0, 77, 65
2, 393120, Note_on_c, 0, 77, 0
2, 393120, Note_on_c, 0, 65, 0
2, 393120, Note_on_c, 0, 75, 65
2, 393120, Note_on_c, 0, 87, 65
2, 394560, Note_on_c, 0, 87, 0
2, 394560, Note_on_c, 0, 75, 0
2, 394560, Note_on_c, 0, 74, 65
2, 394560, Note_on_c, 0, 86, 65
2, 396480, Note_on_c, 0, 86, 0
2, 396480, Note_on_c, 0, 74, 0
2, 396480, Note_on_c, 0, 72, 65
2, 396480, Note_on_c, 0, 84, 65
2, 396960, Note_on_c, 0, 84, 0
2, 396960, Note_on_c, 0, 72, 0
2, 396960, Note_on_c, 0, 70, 65
2, 396960, Note_on_c, 0, 82, 65
2, 397440, Note_on_c, 0, 82, 0
2, 397440, Note_on_c, 0, 70, 0
2, 397440, Note_on_c, 0, 77, 65
2, 399360, Note_on_c, 0, 77, 0
2, 399360, Note_on_c, 0, 76, 65
2, 399840, Note_on_c, 0, 76, 0
2, 399840, Note_on_c, 0, 75, 65
2, 400320, Note_on_c, 0, 75, 0
2, 400320, Control_c, 0, 64, 127
2, 400320, Note_on_c, 0, 74, 65
2, 400560, Note_on_c, 0, 74, 0
2, 400560, Note_on_c, 0, 73, 65
2, 400800, Note_on_c, 0, 73, 0
2, 400800, Note_on_c, 0, 74, 65
2, 401040, Note_on_c, 0, 74, 0
2, 401040, Control_c, 0, 64, 0
2, 401040, Note_on_c, 0, 77, 65
2, 401280, Note_on_c, 0, 77, 0
2, 401280, Note_on_c, 0, 69, 91
2, 401520, Note_on_c, 0, 69, 0
2, 401520, Note_on_c, 0, 70, 65
2, 401760, Note_on_c, 0, 70, 0
2, 401760, Note_on_c, 0, 74, 65
2, 402000, Note_on_c, 0, 74, 0
2, 402000, Note_on_c, 0, 64, 91
2, 402240, Note_on_c, 0, 64, 0
2, 402240, Note_on_c, 0, 65, 65
2, 402480, Note_on_c, 0, 65, 0
2, 402480, Note_on_c, 0, 70, 65
2, 402720, Note_on_c, 0, 70, 0
2, 402720, Note_on_c, 0, 61, 91
2, 402960, Note_on_c, 0, 61, 0
2, 402960, Note_on_c, 0, 62, 65
2, 403200, Note_on_c, 0, 62, 0
2, 403200, Note_on_c, 0, 65, 65
2, 404640, Note_on_c, 0, 65, 0
2, 404640, Note_on_c, 0, 75, 65
2, 406080, Note_on_c, 0, 75, 0
2, 406080, Note_on_c, 0, 74, 65
2, 408000, Note_on_c, 0, 74, 0
2, 408000, Note_on_c, 0, 72, 65
2, 408480, Note_on_c, 0, 72, 0
2, 408480, Note_on_c, 0, 70, 65
2, 408960, Note_on_c, 0, 70, 0
2, 408960, Note_on_c, 0, 77, 65
2, 410880, Note_on_c, 0, 77, 0
2, 410880, Note_on_c, 0, 76, 65
2, 411360, Note_on_c, 0, 76, 0
2, 411360, Note_on_c, 0, 75, 65
2, 411840, Note_on_c, 0, 75, 0
2, 411840, Note_on_c, 0, 74, 65
2, 413760, Note_on_c, 0, 74, 0
2, 413760, Note_on_c, 0, 76, 65
2, 414240, Note_on_c, 0, 76, 0
2, 414240, Note_on_c, 0, 77, 65
2, 414720, Note_on_c, 0, 77, 0
2, 414720, Note_on_c, 0, 65, 65
2, 414720, Note_on_c, 0, 77, 65
2, 416160, Note_on_c, 0, 77, 0
2, 416160, Note_on_c, 0, 65, 0
2, 416160, Note_on_c, 0, 75, 65
2, 416160, Note_on_c, 0, 87, 65
2, 417600, Note_on_c, 0, 87, 0
2, 417600, Note_on_c, 0, 75, 0
2, 417600, Note_on_c, 0, 74, 65
2, 417600, Note_on_c, 0, 86, 65
2, 419520, Note_on_c, 0, 86, 0
2, 419520, Note_on_c, 0, 74, 0
2, 419520, Note_on_c, 0, 72, 65
2, 419520, Note_on_c, 0, 84, 65
2, 420000, Note_on_c, 0, 84, 0
2, 420000, Note_on_c, 0, 72, 0
2, 420000, Note_on_c, 0, 70, 65
2, 420000, Note_on_c, 0, 82, 65
2, 420480, Note_on_c, 0, 82, 0
2, 420480, Note_on_c, 0, 70, 0
2, 420480, Note_on_c, 0, 77, 65
2, 422400, Note_on_c, 0, 77, 0
2, 422400, Note_on_c, 0, 76, 65
2, 422880, Note_on_c, 0, 76, 0
2, 422880, Note_on_c, 0, 75, 65
2, 423360, Note_on_c, 0, 75, 0
2, 423360, Control_c, 0, 64, 127
2, 423360, Note_on_c, 0, 74, 65
2, 423600, Note_on_c, 0, 74, 0
2, 423600, Note_on_c, 0, 73, 65
2, 423840, Note_on_c, 0, 73, 0
2, 423840, Note_on_c, 0, 74, 65
2, 424080, Note_on_c, 0, 74, 0
2, 424080, Control_c, 0, 64, 0
2, 424080, Note_on_c, 0, 77, 65
2, 424320, Note_on_c, 0, 77, 0
2, 424320, Note_on_c, 0, 73, 91
2, 424560, Note_on_c, 0, 73, 0
2, 424560, Note_on_c, 0, 74, 65
2, 424800, Note_on_c, 0, 74, 0
2, 424800, Note_on_c, 0, 77, 65
2, 425040, Note_on_c, 0, 77, 0
2, 425040, Note_on_c, 0, 73, 91
2, 425280, Note_on_c, 0, 73, 0
2, 425280, Note_on_c, 0, 74, 65
2, 425520, Note_on_c, 0, 74, 0
2, 425520, Note_on_c, 0, 77, 65
2, 425760, Note_on_c, 0, 77, 0
2, 425760, Note_on_c, 0, 73, 91
2, 426000, Note_on_c, 0, 73, 0
2, 426000, Note_on_c, 0, 74, 65
2, 426240, Note_on_c, 0, 74, 0
2, 426240, Note_on_c, 0, 77, 52
2, 426480, Note_on_c, 0, 77, 0
2, 426720, Note_on_c, 0, 69, 78
2, 426720, Note_on_c, 0, 72, 78
2, 426720, Note_on_c, 0, 77, 78
2, 426720, Note_on_c, 0, 81, 78
2, 427680, Note_on_c, 0, 81, 0
2, 427680, Note_on_c, 0, 69, 0
2, 427680, Note_on_c, 0, 72, 0
2, 427680, Note_on_c, 0, 77, 0
2, 427680, Note_on_c, 0, 67, 52
2, 427680, Note_on_c, 0, 79, 52
2, 428640, Note_on_c, 0, 79, 0
2, 428640, Note_on_c, 0, 67, 0
2, 428640, Note_on_c, 0, 65, 52
2, 428640, Note_on_c, 0, 77, 52
2, 429120, Note_on_c, 0, 77, 0
2, 429120, Note_on_c, 0, 65, 0
2, 429600, Note_on_c, 0, 70, 78
2, 429600, Note_on_c, 0, 72, 78
2, 429600, Note_on_c, 0, 77, 78
2, 429600, Note_on_c, 0, 82, 78
2, 430320, Note_on_c, 0, 82, 0
2, 430320, Note_on_c, 0, 70, 0
2, 430320, Note_on_c, 0, 72, 0
2, 430320, Note_on_c, 0, 77, 0
2, 430320, Note_on_c, 0, 69, 52
2, 430320, Note_on_c, 0, 81, 52
2, 430560, Note_on_c, 0, 81, 0
2, 430560, Note_on_c, 0, 69, 0
2, 430560, Note_on_c, 0, 67, 52
2, 430560, Note_on_c, 0, 79, 52
2, 431520, Note_on_c, 0, 79, 0
2, 431520, Note_on_c, 0, 67, 0
2, 431520, Note_on_c, 0, 65, 52
2, 431520, Note_on_c, 0, 77, 52
2, 432000, Note_on_c, 0, 77, 0
2, 432000, Note_on_c, 0, 65, 0
2, 432000, Control_c, 0, 64, 127
2, 432000, Note_on_c, 0, 79, 39
2, 432000, Note_on_c, 0, 84, 39
2, 432240, Note_on_c, 0, 84, 0
2, 432240, Note_on_c, 0, 79, 0
2, 432240, Note_on_c, 0, 72, 39
2, 432480, Note_on_c, 0, 72, 0
2, 432480, Note_on_c, 0, 79, 39
2, 432480, Note_on_c, 0, 84, 39
2, 432720, Note_on_c, 0, 84, 0
2, 432720, Note_on_c, 0, 79, 0
2, 432720, Note_on_c, 0, 72, 39
2, 432960, Note_on_c, 0, 72, 0
2, 432960, Note_on_c, 0, 79, 39
2, 432960, Note_on_c, 0, 84, 39
2, 433200, Note_on_c, 0, 84, 0
2, 433200, Note_on_c, 0, 79, 0
2, 433200, Control_c, 0, 64, 0
2, 433200, Note_on_c, 0, 72, 39
2, 433440, Note_on_c, 0, 72, 0
2, 433440, Control_c, 0, 64, 127
2, 433440, Note_on_c, 0, 80, 52
2, 433440, Note_on_c, 0, 85, 52
2, 433680, Note_on_c, 0, 85, 0
2, 433680, Note_on_c, 0, 80, 0
2, 433680, Note_on_c, 0, 73, 52
2, 433920, Note_on_c, 0, 73, 0
2, 433920, Note_on_c, 0, 80, 52
2, 433920, Note_on_c, 0, 85, 52
2, 434160, Note_on_c, 0, 85, 0
2, 434160, Note_on_c, 0, 80, 0
2, 434160, Note_on_c, 0, 73, 52
2, 434400, Note_on_c, 0, 73, 0
2, 434400, Note_on_c, 0, 80, 52
2, 434400, Note_on_c, 0, 85, 52
2, 434640, Note_on_c, 0, 85, 0
2, 434640, Note_on_c, 0, 80, 0
2, 434640, Control_c, 0, 64, 0
2, 434640, Note_on_c, 0, 73, 52
2, 434880, Note_on_c, 0, 73, 0
2, 434880, Control_c, 0, 64, 127
2, 434880, Note_on_c, 0, 81, 65
2, 434880, Note_on_c, 0, 86, 65
2, 435120, Note_on_c, 0, 86, 0
2, 435120, Note_on_c, 0, 81, 0
2, 435120, Note_on_c, 0, 74, 65
2, 435360, Note_on_c, 0, 74, 0
2, 435360, Note_on_c, 0, 81, 65
2, 435360, Note_on_c, 0, 86, 65
2, 435600, Note_on_c, 0, 86, 0
2, 435600, Note_on_c, 0, 81, 0
2, 435600, Note_on_c, 0, 74, 65
2, 435840, Note_on_c, 0, 74, 0
2, 435840, Note_on_c, 0, 81, 65
2, 435840, Note_on_c, 0, 86, 65
2, 436080, Note_on_c, 0, 86, 0
2, 436080, Note_on_c, 0, 81, 0
2, 436080, Control_c, 0, 64, 0
2, 436080, Note_on_c, 0, 74, 65
2, 436320, Note_on_c, 0, 74, 0
2, 436320, Control_c, 0, 64, 127
2, 436320, Note_on_c, 0, 80, 52
2, 436320, Note_on_c, 0, 85, 52
2, 436560, Note_on_c, 0, 85, 0
2, 436560, Note_on_c, 0, 80, 0
2, 436560, Note_on_c, 0, 73, 52
2, 436800, Note_on_c, 0, 73, 0
2, 436800, Note_on_c, 0, 80, 52
2, 436800, Note_on_c, 0, 85, 52
2, 437040, Note_on_c, 0, 85, 0
2, 437040, Note_on_c, 0, 80, 0
2, 437040, Note_on_c, 0, 73, 52
2, 437280, Note_on_c, 0, 73, 0
2, 437280, Note_on_c, 0, 79, 52
2, 437280, Note_on_c, 0, 84, 52
2, 437520, Note_on_c, 0, 84, 0
2, 437520, Note_on_c, 0, 79, 0
2, 437520, Control_c, 0, 64, 0
2, 437520, Note_on_c, 0, 72, 52
2, 437760, Note_on_c, 0, 72, 0
2, 438240, Note_on_c, 0, 69, 78
2, 438240, Note_on_c, 0, 72, 78
2, 438240, Note_on_c, 0, 77, 78
2, 438240, Note_on_c, 0, 81, 78
2, 439200, Note_on_c, 0, 81, 0
2, 439200, Note_on_c, 0, 69, 0
2, 439200, Note_on_c, 0, 72, 0
2, 439200, Note_on_c, 0, 77, 0
2, 439200, Note_on_c, 0, 67, 52
2, 439200, Note_on_c, 0, 79, 52
2, 440160, Note_on_c, 0, 79, 0
2, 440160, Note_on_c, 0, 67, 0
2, 440160, Note_on_c, 0, 65, 52
2, 440160, Note_on_c, 0, 77, 52
2, 440640, Note_on_c, 0, 77, 0
2, 440640, Note_on_c, 0, 65, 0
2, 441120, Note_on_c, 0, 70, 78
2, 441120, Note_on_c, 0, 72, 78
2, 441120, Note_on_c, 0, 77, 78
2, 441120, Note_on_c, 0, 82, 78
2, 441840, Note_on_c, 0, 82, 0
2, 441840, Note_on_c, 0, 70, 0
2, 441840, Note_on_c, 0, 72, 0
2, 441840, Note_on_c, 0, 77, 0
2, 441840, Note_on_c, 0, 69, 52
2, 441840, Note_on_c, 0, 81, 52
2, 442080, Note_on_c, 0, 81, 0
2, 442080, Note_on_c, 0, 69, 0
2, 442080, Note_on_c, 0, 67, 52
2, 442080, Note_on_c, 0, 79, 52
2, 443040, Note_on_c, 0, 79, 0
2, 443040, Note_on_c, 0, 67, 0
2, 443040, Note_on_c, 0, 65, 52
2, 443040, Note_on_c, 0, 77, 52
2, 443520, Note_on_c, 0, 77, 0
2, 443520, Note_on_c, 0, 65, 0
2, 443520, Control_c, 0, 64, 127
2, 443520, Note_on_c, 0, 79, 39
2, 443520, Note_on_c, 0, 84, 39
2, 443760, Note_on_c, 0, 84, 0
2, 443760, Note_on_c, 0, 79, 0
2, 443760, Note_on_c, 0, 72, 39
2, 444000, Note_on_c, 0, 72, 0
2, 444000, Note_on_c, 0, 79, 39
2, 444000, Note_on_c, 0, 84, 39
2, 444240, Note_on_c, 0, 84, 0
2, 444240, Note_on_c, 0, 79, 0
2, 444240, Note_on_c, 0, 72, 39
2, 444480, Note_on_c, 0, 72, 0
2, 444480, Note_on_c, 0, 79, 39
2, 444480, Note_on_c, 0, 84, 39
2, 444720, Note_on_c, 0, 84, 0
2, 444720, Note_on_c, 0, 79, 0
2, 444720, Control_c, 0, 64, 0
2, 444720, Note_on_c, 0, 72, 39
2, 444960, Note_on_c, 0, 72, 0
2, 444960, Control_c, 0, 64, 127
2, 444960, Note_on_c, 0, 80, 52
2, 444960, Note_on_c, 0, 85, 52
2, 445200, Note_on_c, 0, 85, 0
2, 445200, Note_on_c, 0, 80, 0
2, 445200, Note_on_c, 0, 73, 52
2, 445440, Note_on_c, 0, 73, 0
2, 445440, Note_on_c, 0, 80, 52
2, 445440, Note_on_c, 0, 85, 52
2, 445680, Note_on_c, 0, 85, 0
2, 445680, Note_on_c, 0, 80, 0
2, 445680, Note_on_c, 0, 73, 52
2, 445920, Note_on_c, 0, 73, 0
2, 445920, Note_on_c, 0, 80, 52
2, 445920, Note_on_c, 0, 85, 52
2, 446160, Note_on_c, 0, 85, 0
2, 446160, Note_on_c, 0, 80, 0
2, 446160, Control_c, 0, 64, 0
2, 446160, Note_on_c, 0, 73, 52
2, 446400, Note_on_c, 0, 73, 0
2, 446400, Control_c, 0, 64, 127
2, 446400, Note_on_c, 0, 81, 52
2, 446400, Note_on_c, 0, 86, 52
2, 446640, Note_on_c, 0, 86, 0
2, 446640, Note_on_c, 0, 81, 0
2, 446640, Note_on_c, 0, 74, 52
2, 446880, Note_on_c, 0, 74, 0
2, 446880, Note_on_c, 0, 80, 65
2, 446880, Note_on_c, 0, 85, 65
2, 447120, Note_on_c, 0, 85, 0
2, 447120, Note_on_c, 0, 80, 0
2, 447120, Note_on_c, 0, 73, 65
2, 447360, Note_on_c, 0, 73, 0
2, 447360, Note_on_c, 0, 79, 65
2, 447360, Note_on_c, 0, 84, 65
2, 447600, Note_on_c, 0, 84, 0
2, 447600, Note_on_c, 0, 79, 0
2, 447600, Control_c, 0, 64, 0
2, 447600, Note_on_c, 0, 72, 65
2, 447840, Note_on_c, 0, 72, 0
2, 447840, Note_on_c, 0, 72, 65
2, 447840, Note_on_c, 0, 77, 65
2, 447840, Note_on_c, 0, 81, 65
2, 448320, Note_on_c, 0, 81, 0
2, 448320, Note_on_c, 0, 77, 0
2, 448320, Note_on_c, 0, 72, 0
2, 449280, Note_on_c, 0, 77, 39
2, 449280, Note_on_c, 0, 81, 39
2, 449520, Note_on_c, 0, 81, 0
2, 449520, Note_on_c, 0, 77, 0
2, 449520, Note_on_c, 0, 77, 39
2, 449520, Note_on_c, 0, 81, 39
2, 449760, Note_on_c, 0, 81, 0
2, 449760, Note_on_c, 0, 77, 0
2, 450240, Note_on_c, 0, 74, 39
2, 450240, Note_on_c, 0, 77, 39
2, 450240, Note_on_c, 0, 81, 39
2, 450480, Note_on_c, 0, 81, 0
2, 450480, Note_on_c, 0, 77, 0
2, 450480, Note_on_c, 0, 74, 0
2, 450480, Note_on_c, 0, 74, 39
2, 450480, Note_on_c, 0, 77, 39
2, 450480, Note_on_c, 0, 81, 39
2, 450720, Note_on_c, 0, 81, 0
2, 450720, Note_on_c, 0, 77, 0
2, 450720, Note_on_c, 0, 74, 0
2, 451200, Note_on_c, 0, 77, 39
2, 451200, Note_on_c, 0, 81, 39
2, 451200, Note_on_c, 0, 86, 39
2, 451440, Note_on_c, 0, 86, 0
2, 451440, Note_on_c, 0, 81, 0
2, 451440, Note_on_c, 0, 77, 0
2, 451440, Note_on_c, 0, 77, 39
2, 451440, Note_on_c, 0, 81, 39
2, 451440, Note_on_c, 0, 86, 39
2, 451680, Note_on_c, 0, 86, 0
2, 451680, Note_on_c, 0, 81, 0
2, 451680, Note_on_c, 0, 77, 0
2, 452160, Note_on_c, 0, 77, 39
2, 452160, Note_on_c, 0, 81, 39
2, 452400, Note_on_c, 0, 81, 0
2, 452400, Note_on_c, 0, 77, 0
2, 452400, Note_on_c, 0, 77, 39
2, 452400, Note_on_c, 0, 81, 39
2, 452640, Note_on_c, 0, 81, 0
2, 452640, Note_on_c, 0, 77, 0
2, 453120, Note_on_c, 0, 77, 39
2, 453120, Note_on_c, 0, 81, 39
2, 453360, Note_on_c, 0, 81, 0
2, 453360, Note_on_c, 0, 77, 0
2, 453360, Note_on_c, 0, 77, 39
2, 453360, Note_on_c, 0, 81, 39
2, 453600, Note_on_c, 0, 81, 0
2, 453600, Note_on_c, 0, 77, 0
2, 454080, Note_on_c, 0, 81, 39
2, 454080, Note_on_c, 0, 86, 39
2, 454080, Note_on_c, 0, 89, 39
2, 454320, Note_on_c, 0, 89, 0
2, 454320, Note_on_c, 0, 86, 0
2, 454320, Note_on_c, 0, 81, 0
2, 454320, Note_on_c, 0, 81, 39
2, 454320, Note_on_c, 0, 86, 39
2, 454320, Note_on_c, 0, 89, 39
2, 454560, Note_on_c, 0, 89, 0
2, 454560, Note_on_c, 0, 86, 0
2, 454560, Note_on_c, 0, 81, 0
2, 455040, Note_on_c, 0, 82, 39
2, 455040, Note_on_c, 0, 86, 39
2, 455040, Note_on_c, 0, 88, 39
2, 455280, Note_on_c, 0, 88, 0
2, 455280, Note_on_c, 0, 86, 0
2, 455280, Note_on_c, 0, 82, 0
2, 455280, Note_on_c, 0, 82, 39
2, 455280, Note_on_c, 0, 86, 39
2, 455280, Note_on_c, 0, 88, 39
2, 455520, Note_on_c, 0, 88, 0
2, 455520, Note_on_c, 0, 86, 0
2, 455520, Note_on_c, 0, 82, 0
2, 456000, Note_on_c, 0, 74, 39
2, 456000, Note_on_c, 0, 76, 39
2, 456000, Note_on_c, 0, 79, 39
2, 456240, Note_on_c, 0, 79, 0
2, 456240, Note_on_c, 0, 76, 0
2, 456240, Note_on_c, 0, 74, 0
2, 456240, Note_on_c, 0, 74, 39
2, 456240, Note_on_c, 0, 76, 39
2, 456240, Note_on_c, 0, 79, 39
2, 456480, Note_on_c, 0, 79, 0
2, 456480, Note_on_c, 0, 76, 0
2, 456480, Note_on_c, 0, 74, 0
2, 456960, Note_on_c, 0, 82, 39
2, 456960, Note_on_c, 0, 86, 39
2, 456960, Note_on_c, 0, 88, 39
2, 457200, Note_on_c, 0, 88, 0
2, 457200, Note_on_c, 0, 86, 0
2, 457200, Note_on_c, 0, 82, 0
2, 457200, Note_on_c, 0, 82, 39
2, 457200, Note_on_c, 0, 86, 39
2, 457200, Note_on_c, 0, 88, 39
2, 457440, Note_on_c, 0, 88, 0
2, 457440, Note_on_c, 0, 86, 0
2, 457440, Note_on_c, 0, 82, 0
2, 457920, Note_on_c, 0, 81, 39
2, 457920, Note_on_c, 0, 88, 39
2, 457920, Note_on_c, 0, 93, 39
2, 458160, Note_on_c, 0, 93, 0
2, 458160, Note_on_c, 0, 88, 0
2, 458160, Note_on_c, 0, 81, 0
2, 458160, Note_on_c, 0, 81, 39
2, 458160, Note_on_c, 0, 88, 39
2, 458160, Note_on_c, 0, 93, 39
2, 458400, Note_on_c, 0, 93, 0
2, 458400, Note_on_c, 0, 88, 0
2, 458400, Note_on_c, 0, 81, 0
2, 458880, Note_on_c, 0, 79, 39
2, 458880, Note_on_c, 0, 85, 39
2, 458880, Note_on_c, 0, 88, 39
2, 459120, Note_on_c, 0, 88, 0
2, 459120, Note_on_c, 0, 85, 0
2, 459120, Note_on_c, 0, 79, 0
2, 459120, Note_on_c, 0, 79, 39
2, 459120, Note_on_c, 0, 85, 39
2, 459120, Note_on_c, 0, 88, 39
2, 459360, Note_on_c, 0, 88, 0
2, 459360, Note_on_c, 0, 85, 0
2, 459360, Note_on_c, 0, 79, 0
2, 459840, Note_on_c, 0, 81, 39
2, 459840, Note_on_c, 0, 86, 39
2, 459840, Note_on_c, 0, 89, 39
2, 460080, Note_on_c, 0, 89, 0
2, 460080, Note_on_c, 0, 86, 0
2, 460080, Note_on_c, 0, 81, 0
2, 460080, Note_on_c, 0, 81, 39
2, 460080, Note_on_c, 0, 86, 39
2, 460080, Note_on_c, 0, 89, 39
2, 460320, Note_on_c, 0, 89, 0
2, 460320, Note_on_c, 0, 86, 0
2, 460320, Note_on_c, 0, 81, 0
2, 460800, Note_on_c, 0, 77, 39
2, 460800, Note_on_c, 0, 81, 39
2, 461040, Note_on_c, 0, 81, 0
2, 461040, Note_on_c, 0, 77, 0
2, 461040, Note_on_c, 0, 77, 39
2, 461040, Note_on_c, 0, 81, 39
2, 461280, Note_on_c, 0, 81, 0
2, 461280, Note_on_c, 0, 77, 0
2, 461760, Note_on_c, 0, 74, 39
2, 461760, Note_on_c, 0, 77, 39
2, 461760, Note_on_c, 0, 81, 39
2, 462000, Note_on_c, 0, 81, 0
2, 462000, Note_on_c, 0, 77, 0
2, 462000, Note_on_c, 0, 74, 0
2, 462000, Note_on_c, 0, 74, 39
2, 462000, Note_on_c, 0, 77, 39
2, 462000, Note_on_c, 0, 81, 39
2, 462240, Note_on_c, 0, 81, 0
2, 462240, Note_on_c, 0, 77, 0
2, 462240, Note_on_c, 0, 74, 0
2, 462720, Note_on_c, 0, 77, 39
2, 462720, Note_on_c, 0, 81, 39
2, 462720, Note_on_c, 0, 86, 39
2, 462960, Note_on_c, 0, 86, 0
2, 462960, Note_on_c, 0, 81, 0
2, 462960, Note_on_c, 0, 77, 0
2, 462960, Note_on_c, 0, 77, 39
2, 462960, Note_on_c, 0, 81, 39
2, 462960, Note_on_c, 0, 86, 39
2, 463200, Note_on_c, 0, 86, 0
2, 463200, Note_on_c, 0, 81, 0
2, 463200, Note_on_c, 0, 77, 0
2, 463680, Note_on_c, 0, 77, 39
2, 463680, Note_on_c, 0, 81, 39
2, 463920, Note_on_c, 0, 81, 0
2, 463920, Note_on_c, 0, 77, 0
2, 463920, Note_on_c, 0, 77, 39
2, 463920, Note_on_c, 0, 81, 39
2, 464160, Note_on_c, 0, 81, 0
2, 464160, Note_on_c, 0, 77, 0
2, 464640, Note_on_c, 0, 77, 39
2, 464640, Note_on_c, 0, 81, 39
2, 464880, Note_on_c, 0, 81, 0
2, 464880, Note_on_c, 0, 77, 0
2, 464880, Note_on_c, 0, 77, 39
2, 464880, Note_on_c, 0, 81, 39
2, 465120, Note_on_c, 0, 81, 0
2, 465120, Note_on_c, 0, 77, 0
2, 465600, Note_on_c, 0, 81, 39
2, 465600, Note_on_c, 0, 86, 39
2, 465600, Note_on_c, 0, 89, 39
2, 465840, Note_on_c, 0, 89, 0
2, 465840, Note_on_c, 0, 86, 0
2, 465840, Note_on_c, 0, 81, 0
2, 465840, Note_on_c, 0, 81, 39
2, 465840, Note_on_c, 0, 86, 39
2, 465840, Note_on_c, 0, 89, 39
2, 466080, Note_on_c, 0, 89, 0
2, 466080, Note_on_c, 0, 86, 0
2, 466080, Note_on_c, 0, 81, 0
2, 466560, Note_on_c, 0, 82, 39
2, 466560, Note_on_c, 0, 86, 39
2, 466560, Note_on_c, 0, 88, 39
2, 466800, Note_on_c, 0, 88, 0
2, 466800, Note_on_c, 0, 86, 0
2, 466800, Note_on_c, 0, 82, 0
2, 466800, Note_on_c, 0, 82, 39
2, 466800, Note_on_c, 0, 86, 39
2, 466800, Note_on_c, 0, 88, 39
2, 467040, Note_on_c, 0, 88, 0
2, 467040, Note_on_c, 0, 86, 0
2, 467040, Note_on_c, 0, 82, 0
2, 467520, Note_on_c, 0, 74, 39
2, 467520, Note_on_c, 0, 76, 39
2, 467520, Note_on_c, 0, 79, 39
2, 467760, Note_on_c, 0, 79, 0
2, 467760, Note_on_c, 0, 76, 0
2, 467760, Note_on_c, 0, 74, 0
2, 467760, Note_on_c, 0, 74, 39
2, 467760, Note_on_c, 0, 76, 39
2, 467760, Note_on_c, 0, 79, 39
2, 468000, Note_on_c, 0, 79, 0
2, 468000, Note_on_c, 0, 76, 0
2, 468000, Note_on_c, 0, 74, 0
2, 468480, Note_on_c, 0, 82, 39
2, 468480, Note_on_c, 0, 86, 39
2, 468480, Note_on_c, 0, 88, 39
2, 468720, Note_on_c, 0, 88, 0
2, 468720, Note_on_c, 0, 86, 0
2, 468720, Note_on_c, 0, 82, 0
2, 468720, Note_on_c, 0, 82, 39
2, 468720, Note_on_c, 0, 86, 39
2, 468720, Note_on_c, 0, 88, 39
2, 468960, Note_on_c, 0, 88, 0
2, 468960, Note_on_c, 0, 86, 0
2, 468960, Note_on_c, 0, 82, 0
2, 469440, Note_on_c, 0, 81, 39
2, 469440, Note_on_c, 0, 88, 39
2, 469440, Note_on_c, 0, 93, 39
2, 469680, Note_on_c, 0, 93, 0
2, 469680, Note_on_c, 0, 88, 0
2, 469680, Note_on_c, 0, 81, 0
2, 469680, Note_on_c, 0, 81, 39
2, 469680, Note_on_c, 0, 88, 39
2, 469680, Note_on_c, 0, 93, 39
2, 469920, Note_on_c, 0, 93, 0
2, 469920, Note_on_c, 0, 88, 0
2, 469920, Note_on_c, 0, 81, 0
2, 470400, Note_on_c, 0, 79, 39
2, 470400, Note_on_c, 0, 85, 39
2, 470400, Note_on_c, 0, 88, 39
2, 470640, Note_on_c, 0, 88, 0
2, 470640, Note_on_c, 0, 85, 0
2, 470640, Note_on_c, 0, 79, 0
2, 470640, Note_on_c, 0, 79, 39
2, 470640, Note_on_c, 0, 85, 39
2, 470640, Note_on_c, 0, 88, 39
2, 470880, Note_on_c, 0, 88, 0
2, 470880, Note_on_c, 0, 85, 0
2, 470880, Note_on_c, 0, 79, 0
2, 470880, Note_on_c, 0, 62, 39
2, 471360, Note_on_c, 0, 62, 0
2, 472320, Note_on_c, 0, 77, 39
2, 472320, Note_on_c, 0, 81, 39
2, 472560, Note_on_c, 0, 81, 0
2, 472560, Note_on_c, 0, 77, 0
2, 472560, Note_on_c, 0, 77, 39
2, 472560, Note_on_c, 0, 81, 39
2, 472800, Note_on_c, 0, 81, 0
2, 472800, Note_on_c, 0, 77, 0
2, 473280, Note_on_c, 0, 74, 39
2, 473280, Note_on_c, 0, 77, 39
2, 473280, Note_on_c, 0, 81, 39
2, 473520, Note_on_c, 0, 81, 0
2, 473520, Note_on_c, 0, 77, 0
2, 473520, Note_on_c, 0, 74, 0
2, 473520, Note_on_c, 0, 74, 39
2, 473520, Note_on_c, 0, 77, 39
2, 473520, Note_on_c, 0, 81, 39
2, 473760, Note_on_c, 0, 81, 0
2, 473760, Note_on_c, 0, 77, 0
2, 473760, Note_on_c, 0, 74, 0
2, 474240, Note_on_c, 0, 77, 39
2, 474240, Note_on_c, 0, 81, 39
2, 474240, Note_on_c, 0, 86, 39
2, 474480, Note_on_c, 0, 86, 0
2, 474480, Note_on_c, 0, 81, 0
2, 474480, Note_on_c, 0, 77, 0
2, 474480, Note_on_c, 0, 77, 39
2, 474480, Note_on_c, 0, 81, 39
2, 474480, Note_on_c, 0, 86, 39
2, 474720, Note_on_c, 0, 86, 0
2, 474720, Note_on_c, 0, 81, 0
2, 474720, Note_on_c, 0, 77, 0
2, 475200, Note_on_c, 0, 77, 39
2, 475200, Note_on_c, 0, 81, 39
2, 475440, Note_on_c, 0, 81, 0
2, 475440, Note_on_c, 0, 77, 0
2, 475440, Note_on_c, 0, 77, 39
2, 475440, Note_on_c, 0, 81, 39
2, 475680, Note_on_c, 0, 81, 0
2, 475680, Note_on_c, 0, 77, 0
2, 476160, Note_on_c, 0, 77, 39
2, 476160, Note_on_c, 0, 81, 39
2, 476400, Note_on_c, 0, 81, 0
2, 476400, Note_on_c, 0, 77, 0
2, 476400, Note_on_c, 0, 77, 39
2, 476400, Note_on_c, 0, 81, 39
2, 476640, Note_on_c, 0, 81, 0
2, 476640, Note_on_c, 0, 77, 0
2, 477120, Note_on_c, 0, 81, 39
2, 477120, Note_on_c, 0, 86, 39
2, 477120, Note_on_c, 0, 89, 39
2, 477360, Note_on_c, 0, 89, 0
2, 477360, Note_on_c, 0, 86, 0
2, 477360, Note_on_c, 0, 81, 0
2, 477360, Note_on_c, 0, 81, 39
2, 477360, Note_on_c, 0, 86, 39
2, 477360, Note_on_c, 0, 89, 39
2, 477600, Note_on_c, 0, 89, 0
2, 477600, Note_on_c, 0, 86, 0
2, 477600, Note_on_c, 0, 81, 0
2, 478080, Note_on_c, 0, 82, 39
2, 478080, Note_on_c, 0, 86, 39
2, 478080, Note_on_c, 0, 88, 39
2, 478320, Note_on_c, 0, 88, 0
2, 478320, Note_on_c, 0, 86, 0
2, 478320, Note_on_c, 0, 82, 0
2, 478320, Note_on_c, 0, 82, 39
2, 478320, Note_on_c, 0, 86, 39
2, 478320, Note_on_c, 0, 88, 39
2, 478560, Note_on_c, 0, 88, 0
2, 478560, Note_on_c, 0, 86, 0
2, 478560, Note_on_c, 0, 82, 0
2, 479040, Note_on_c, 0, 74, 39
2, 479040, Note_on_c, 0, 76, 39
2, 479040, Note_on_c, 0, 79, 39
2, 479280, Note_on_c, 0, 79, 0
2, 479280, Note_on_c, 0, 76, 0
2, 479280, Note_on_c, 0, 74, 0
2, 479280, Note_on_c, 0, 74, 39
2, 479280, Note_on_c, 0, 76, 39
2, 479280, Note_on_c, 0, 79, 39
2, 479520, Note_on_c, 0, 79, 0
2, 479520, Note_on_c, 0, 76, 0
2, 479520, Note_on_c, 0, 74, 0
2, 480000, Note_on_c, 0, 82, 39
2, 480000, Note_on_c, 0, 86, 39
2, 480000, Note_on_c, 0, 88, 39
2, 480240, Note_on_c, 0, 88, 0
2, 480240, Note_on_c, 0, 86, 0
2, 480240, Note_on_c, 0, 82, 0
2, 480240, Note_on_c, 0, 82, 39
2, 480240, Note_on_c, 0, 86, 39
2, 480240, Note_on_c, 0, 88, 39
2, 480480, Note_on_c, 0, 88, 0
2, 480480, Note_on_c, 0, 86, 0
2, 480480, Note_on_c, 0, 82, 0
2, 480960, Note_on_c, 0, 81, 39
2, 480960, Note_on_c, 0, 88, 39
2, 480960, Note_on_c, 0, 93, 39
2, 481200, Note_on_c, 0, 93, 0
2, 481200, Note_on_c, 0, 88, 0
2, 481200, Note_on_c, 0, 81, 0
2, 481200, Note_on_c, 0, 81, 39
2, 481200, Note_on_c, 0, 88, 39
2, 481200, Note_on_c, 0, 93, 39
2, 481440, Note_on_c, 0, 93, 0
2, 481440, Note_on_c, 0, 88, 0
2, 481440, Note_on_c, 0, 81, 0
2, 481920, Note_on_c, 0, 79, 39
2, 481920, Note_on_c, 0, 85, 39
2, 481920, Note_on_c, 0, 88, 39
2, 482160, Note_on_c, 0, 88, 0
2, 482160, Note_on_c, 0, 85, 0
2, 482160, Note_on_c, 0, 79, 0
2, 482160, Note_on_c, 0, 79, 39
2, 482160, Note_on_c, 0, 85, 39
2, 482160, Note_on_c, 0, 88, 39
2, 482400, Note_on_c, 0, 88, 0
2, 482400, Note_on_c, 0, 85, 0
2, 482400, Note_on_c, 0, 79, 0
2, 482880, Note_on_c, 0, 81, 39
2, 482880, Note_on_c, 0, 86, 39
2, 482880, Note_on_c, 0, 89, 39
2, 483120, Note_on_c, 0, 89, 0
2, 483120, Note_on_c, 0, 86, 0
2, 483120, Note_on_c, 0, 81, 0
2, 483120, Note_on_c, 0, 81, 39
2, 483120, Note_on_c, 0, 86, 39
2, 483120, Note_on_c, 0, 89, 39
2, 483360, Note_on_c, 0, 89, 0
2, 483360, Note_on_c, 0, 86, 0
2, 483360, Note_on_c, 0, 81, 0
2, 483840, Note_on_c, 0, 77, 39
2, 483840, Note_on_c, 0, 81, 39
2, 484080, Note_on_c, 0, 81, 0
2, 484080, Note_on_c, 0, 77, 0
2, 484080, Note_on_c, 0, 77, 39
2, 484080, Note_on_c, 0, 81, 39
2, 484320, Note_on_c, 0, 81, 0
2, 484320, Note_on_c, 0, 77, 0
2, 484800, Note_on_c, 0, 74, 39
2, 484800, Note_on_c, 0, 77, 39
2, 484800, Note_on_c, 0, 81, 39
2, 485040, Note_on_c, 0, 81, 0
2, 485040, Note_on_c, 0, 77, 0
2, 485040, Note_on_c, 0, 74, 0
2, 485040, Note_on_c, 0, 74, 39
2, 485040, Note_on_c, 0, 77, 39
2, 485040, Note_on_c, 0, 81, 39
2, 485280, Note_on_c, 0, 81, 0
2, 485280, Note_on_c, 0, 77, 0
2, 485280, Note_on_c, 0, 74, 0
2, 485760, Note_on_c, 0, 77, 39
2, 485760, Note_on_c, 0, 81, 39
2, 485760, Note_on_c, 0, 86, 39
2, 486000, Note_on_c, 0, 86, 0
2, 486000, Note_on_c, 0, 81, 0
2, 486000, Note_on_c, 0, 77, 0
2, 486000, Note_on_c, 0, 77, 39
2, 486000, Note_on_c, 0, 81, 39
2, 486000, Note_on_c, 0, 86, 39
2, 486240, Note_on_c, 0, 86, 0
2, 486240, Note_on_c, 0, 81, 0
2, 486240, Note_on_c, 0, 77, 0
2, 486720, Note_on_c, 0, 77, 39
2, 486720, Note_on_c, 0, 81, 39
2, 486960, Note_on_c, 0, 81, 0
2, 486960, Note_on_c, 0, 77, 0
2, 486960, Note_on_c, 0, 77, 39
2, 486960, Note_on_c, 0, 81, 39
2, 487200, Note_on_c, 0, 81, 0
2, 487200, Note_on_c, 0, 77, 0
2, 487680, Note_on_c, 0, 77, 39
2, 487680, Note_on_c, 0, 81, 39
2, 487920, Note_on_c, 0, 81, 0
2, 487920, Note_on_c, 0, 77, 0
2, 487920, Note_on_c, 0, 77, 39
2, 487920, Note_on_c, 0, 81, 39
2, 488160, Note_on_c, 0, 81, 0
2, 488160, Note_on_c, 0, 77, 0
2, 488640, Note_on_c, 0, 81, 39
2, 488640, Note_on_c, 0, 86, 39
2, 488640, Note_on_c, 0, 89, 39
2, 488880, Note_on_c, 0, 89, 0
2, 488880, Note_on_c, 0, 86, 0
2, 488880, Note_on_c, 0, 81, 0
2, 488880, Note_on_c, 0, 81, 39
2, 488880, Note_on_c, 0, 86, 39
2, 488880, Note_on_c, 0, 89, 39
2, 489120, Note_on_c, 0, 89, 0
2, 489120, Note_on_c, 0, 86, 0
2, 489120, Note_on_c, 0, 81, 0
2, 489600, Note_on_c, 0, 82, 39
2, 489600, Note_on_c, 0, 86, 39
2, 489600, Note_on_c, 0, 88, 39
2, 489840, Note_on_c, 0, 88, 0
2, 489840, Note_on_c, 0, 86, 0
2, 489840, Note_on_c, 0, 82, 0
2, 489840, Note_on_c, 0, 82, 39
2, 489840, Note_on_c, 0, 86, 39
2, 489840, Note_on_c, 0, 88, 39
2, 490080, Note_on_c, 0, 88, 0
2, 490080, Note_on_c, 0, 86, 0
2, 490080, Note_on_c, 0, 82, 0
2, 490560, Note_on_c, 0, 74, 39
2, 490560, Note_on_c, 0, 76, 39
2, 490560, Note_on_c, 0, 79, 39
2, 490800, Note_on_c, 0, 79, 0
2, 490800, Note_on_c, 0, 76, 0
2, 490800, Note_on_c, 0, 74, 0
2, 490800, Note_on_c, 0, 74, 39
2, 490800, Note_on_c, 0, 76, 39
2, 490800, Note_on_c, 0, 79, 39
2, 491040, Note_on_c, 0, 79, 0
2, 491040, Note_on_c, 0, 76, 0
2, 491040, Note_on_c, 0, 74, 0
2, 491520, Note_on_c, 0, 82, 39
2, 491520, Note_on_c, 0, 86, 39
2, 491520, Note_on_c, 0, 88, 39
2, 491760, Note_on_c, 0, 88, 0
2, 491760, Note_on_c, 0, 86, 0
2, 491760, Note_on_c, 0, 82, 0
2, 491760, Note_on_c, 0, 82, 39
2, 491760, Note_on_c, 0, 86, 39
2, 491760, Note_on_c, 0, 88, 39
2, 492000, Note_on_c, 0, 88, 0
2, 492000, Note_on_c, 0, 86, 0
2, 492000, Note_on_c, 0, 82, 0
2, 492480, Note_on_c, 0, 81, 39
2, 492480, Note_on_c, 0, 88, 39
2, 492480, Note_on_c, 0, 93, 39
2, 492720, Note_on_c, 0, 93, 0
2, 492720, Note_on_c, 0, 88, 0
2, 492720, Note_on_c, 0, 81, 0
2, 492720, Note_on_c, 0, 81, 39
2, 492720, Note_on_c, 0, 88, 39
2, 492720, Note_on_c, 0, 93, 39
2, 492960, Note_on_c, 0, 93, 0
2, 492960, Note_on_c, 0, 88, 0
2, 492960, Note_on_c, 0, 81, 0
2, 493440, Note_on_c, 0, 79, 39
2, 493440, Note_on_c, 0, 85, 39
2, 493440, Note_on_c, 0, 88, 39
2, 493680, Note_on_c, 0, 88, 0
2, 493680, Note_on_c, 0, 85, 0
2, 493680, Note_on_c, 0, 79, 0
2, 493680, Note_on_c, 0, 79, 39
2, 493680, Note_on_c, 0, 85, 39
2, 493680, Note_on_c, 0, 88, 39
2, 493920, Note_on_c, 0, 88, 0
2, 493920, Note_on_c, 0, 85, 0
2, 493920, Note_on_c, 0, 79, 0
2, 493920, Control_c, 0, 64, 127
2, 493920, Note_on_c, 0, 62, 39
2, 494160, Note_on_c, 0, 62, 0
2, 494160, Note_on_c, 0, 61, 39
2, 494400, Note_on_c, 0, 61, 0
2, 494400, Note_on_c, 0, 62, 39
2, 494640, Note_on_c, 0, 62, 0
2, 494640, Note_on_c, 0, 61, 78
2, 494880, Note_on_c, 0, 61, 0
2, 494880, Note_on_c, 0, 62, 78
2, 495120, Note_on_c, 0, 62, 0
2, 495120, Control_c, 0, 64, 0
2, 495120, Note_on_c, 0, 61, 78
2, 495360, Note_on_c, 0, 61, 0
2, 495360, Note_on_c, 0, 62, 104
2, 496800, Note_on_c, 0, 62, 0
2, 496800, Note_on_c, 0, 65, 78
2, 497040, Note_on_c, 0, 65, 0
2, 497280, Note_on_c, 0, 65, 78
2, 498000, Note_on_c, 0, 65, 0
2, 498000, Note_on_c, 0, 63, 78
2, 498240, Note_on_c, 0, 63, 0
2, 498240, Note_on_c, 0, 62, 78
2, 499680, Note_on_c, 0, 62, 0
2, 499680, Note_on_c, 0, 65, 78
2, 499920, Note_on_c, 0, 65, 0
2, 500160, Note_on_c, 0, 67, 78
2, 500640, Note_on_c, 0, 67, 0
2, 500640, Note_on_c, 0, 69, 78
2, 501120, Note_on_c, 0, 69, 0
2, 501120, Note_on_c, 0, 70, 78
2, 502560, Note_on_c, 0, 70, 0
2, 502560, Note_on_c, 0, 69, 78
2, 502800, Note_on_c, 0, 69, 0
2, 503040, Note_on_c, 0, 69, 78
2, 503760, Note_on_c, 0, 69, 0
2, 503760, Note_on_c, 0, 70, 78
2, 504000, Note_on_c, 0, 70, 0
2, 504000, Note_on_c, 0, 67, 78
2, 504240, Note_on_c, 0, 67, 0
2, 504480, Note_on_c, 0, 72, 78
2, 505440, Note_on_c, 0, 72, 0
2, 505440, Note_on_c, 0, 67, 78
2, 505680, Note_on_c, 0, 67, 0
2, 505920, Note_on_c, 0, 72, 78
2, 506640, Note_on_c, 0, 72, 0
2, 506640, Note_on_c, 0, 75, 78
2, 506880, Note_on_c, 0, 75, 0
2, 506880, Note_on_c, 0, 67, 78
2, 507120, Note_on_c, 0, 67, 0
2, 507360, Note_on_c, 0, 72, 78
2, 508320, Note_on_c, 0, 72, 0
2, 508320, Note_on_c, 0, 67, 78
2, 508560, Note_on_c, 0, 67, 0
2, 508800, Note_on_c, 0, 72, 78
2, 509520, Note_on_c, 0, 72, 0
2, 509520, Note_on_c, 0, 75, 78
2, 509760, Note_on_c, 0, 75, 0
2, 509760, Note_on_c, 0, 62, 78
2, 509760, Note_on_c, 0, 70, 78
2, 509760, Note_on_c, 0, 74, 78
2, 510240, Note_on_c, 0, 74, 0
2, 510240, Note_on_c, 0, 70, 0
2, 510240, Note_on_c, 0, 62, 0
2, 510240, Note_on_c, 0, 63, 78
2, 510240, Note_on_c, 0, 72, 78
2, 510240, Note_on_c, 0, 75, 78
2, 510720, Note_on_c, 0, 75, 0
2, 510720, Note_on_c, 0, 72, 0
2, 510720, Note_on_c, 0, 63, 0
2, 510720, Note_on_c, 0, 65, 78
2, 510720, Note_on_c, 0, 74, 78
2, 510720, Note_on_c, 0, 77, 78
2, 511200, Note_on_c, 0, 77, 0
2, 511200, Note_on_c, 0, 74, 0
2, 511200, Note_on_c, 0, 65, 0
2, 511200, Note_on_c, 0, 75, 78
2, 511200, Note_on_c, 0, 79, 78
2, 511200, Note_on_c, 0, 87, 78
2, 512160, Note_on_c, 0, 87, 0
2, 512160, Note_on_c, 0, 79, 0
2, 512160, Note_on_c, 0, 75, 0
2, 512160, Note_on_c, 0, 74, 78
2, 512160, Note_on_c, 0, 77, 78
2, 512160, Note_on_c, 0, 86, 78
2, 512640, Note_on_c, 0, 86, 0
2, 512640, Note_on_c, 0, 77, 0
2, 512640, Note_on_c, 0, 74, 0
2, 512640, Note_on_c, 0, 75, 104
2, 512640, Note_on_c, 0, 79, 104
2, 512640, Note_on_c, 0, 87, 104
2, 513120, Note_on_c, 0, 87, 0
2, 513120, Note_on_c, 0, 79, 0
2, 513120, Note_on_c, 0, 75, 0
2, 513120, Note_on_c, 0, 74, 78
2, 513120, Note_on_c, 0, 77, 78
2, 513120, Note_on_c, 0, 86, 78
2, 513840, Note_on_c, 0, 86, 0
2, 513840, Note_on_c, 0, 77, 0
2, 513840, Note_on_c, 0, 74, 0
2, 513840, Note_on_c, 0, 77, 78
2, 513840, Note_on_c, 0, 81, 78
2, 513840, Note_on_c, 0, 89, 78
2, 514080, Note_on_c, 0, 89, 0
2, 514080, Note_on_c, 0, 81, 0
2, 514080, Note_on_c, 0, 77, 0
2, 514080, Note_on_c, 0, 75, 78
2, 514080, Note_on_c, 0, 79, 78
2, 514080, Note_on_c, 0, 87, 78
2, 514560, Note_on_c, 0, 87, 0
2, 514560, Note_on_c, 0, 79, 0
2, 514560, Note_on_c, 0, 75, 0
2, 514560, Note_on_c, 0, 74, 78
2, 514560, Note_on_c, 0, 77, 78
2, 514560, Note_on_c, 0, 86, 78
2, 515040, Note_on_c, 0, 86, 0
2, 515040, Note_on_c, 0, 77, 0
2, 515040, Note_on_c, 0, 74, 0
2, 515040, Note_on_c, 0, 72, 78
2, 515040, Note_on_c, 0, 75, 78
2, 515040, Note_on_c, 0, 84, 78
2, 515520, Note_on_c, 0, 84, 0
2, 515520, Note_on_c, 0, 75, 0
2, 515520, Note_on_c, 0, 72, 0
2, 515520, Note_on_c, 0, 70, 78
2, 515520, Note_on_c, 0, 74, 78
2, 515520, Note_on_c, 0, 82, 78
2, 516000, Note_on_c, 0, 82, 0
2, 516000, Note_on_c, 0, 74, 0
2, 516000, Note_on_c, 0, 70, 0
2, 516000, Note_on_c, 0, 69, 104
2, 516480, Note_on_c, 0, 69, 0
2, 516480, Note_on_c, 0, 67, 78
2, 516960, Note_on_c, 0, 67, 0
2, 516960, Note_on_c, 0, 58, 78
2, 516960, Note_on_c, 0, 61, 78
2, 516960, Note_on_c, 0, 67, 78
2, 517440, Note_on_c, 0, 67, 0
2, 517440, Note_on_c, 0, 61, 0
2, 517440, Note_on_c, 0, 58, 0
2, 517440, Note_on_c, 0, 57, 78
2, 517440, Note_on_c, 0, 60, 78
2, 517440, Note_on_c, 0, 65, 78
2, 517920, Note_on_c, 0, 65, 0
2, 517920, Note_on_c, 0, 60, 0
2, 517920, Note_on_c, 0, 57, 0
2, 517920, Note_on_c, 0, 53, 78
2, 517920, Note_on_c, 0, 60, 78
2, 517920, Note_on_c, 0, 63, 78
2, 518400, Note_on_c, 0, 63, 0
2, 518400, Note_on_c, 0, 60, 0
2, 518400, Note_on_c, 0, 53, 0
2, 518400, Note_on_c, 0, 62, 104
2, 519840, Note_on_c, 0, 62, 0
2, 519840, Note_on_c, 0, 65, 78
2, 520080, Note_on_c, 0, 65, 0
2, 520320, Note_on_c, 0, 65, 78
2, 521040, Note_on_c, 0, 65, 0
2, 521040, Note_on_c, 0, 63, 78
2, 521280, Note_on_c, 0, 63, 0
2, 521280, Note_on_c, 0, 62, 78
2, 522720, Note_on_c, 0, 62, 0
2, 522720, Note_on_c, 0, 65, 78
2, 522960, Note_on_c, 0, 65, 0
2, 523200, Note_on_c, 0, 67, 78
2, 523680, Note_on_c, 0, 67, 0
2, 523680, Note_on_c, 0, 69, 78
2, 524160, Note_on_c, 0, 69, 0
2, 524160, Note_on_c, 0, 70, 78
2, 525600, Note_on_c, 0, 70, 0
2, 525600, Note_on_c, 0, 69, 78
2, 525840, Note_on_c, 0, 69, 0
2, 526080, Note_on_c, 0, 69, 78
2, 526800, Note_on_c, 0, 69, 0
2, 526800, Note_on_c, 0, 70, 78
2, 527040, Note_on_c, 0, 70, 0
2, 527040, Note_on_c, 0, 67, 78
2, 527280, Note_on_c, 0, 67, 0
2, 527520, Note_on_c, 0, 72, 78
2, 528480, Note_on_c, 0, 72, 0
2, 528480, Note_on_c, 0, 67, 78
2, 528720, Note_on_c, 0, 67, 0
2, 528960, Note_on_c, 0, 72, 78
2, 529680, Note_on_c, 0, 72, 0
2, 529680, Note_on_c, 0, 75, 78
2, 529920, Note_on_c, 0, 75, 0
2, 529920, Note_on_c, 0, 67, 78
2, 530160, Note_on_c, 0, 67, 0
2, 530400, Note_on_c, 0, 72, 78
2, 531360, Note_on_c, 0, 72, 0
2, 531360, Note_on_c, 0, 67, 78
2, 531600, Note_on_c, 0, 67, 0
2, 531840, Note_on_c, 0, 72, 78
2, 532560, Note_on_c, 0, 72, 0
2, 532560, Note_on_c, 0, 75, 78
2, 532800, Note_on_c, 0, 75, 0
2, 532800, Note_on_c, 0, 62, 78
2, 532800, Note_on_c, 0, 70, 78
2, 532800, Note_on_c, 0, 74, 78
2, 533280, Note_on_c, 0, 74, 0
2, 533280, Note_on_c, 0, 70, 0
2, 533280, Note_on_c, 0, 62, 0
2, 533280, Note_on_c, 0, 63, 78
2, 533280, Note_on_c, 0, 72, 78
2, 533280, Note_on_c, 0, 75, 78
2, 533760, Note_on_c, 0, 75, 0
2, 533760, Note_on_c, 0, 72, 0
2, 533760, Note_on_c, 0, 63, 0
2, 533760, Note_on_c, 0, 65, 78
2, 533760, Note_on_c, 0, 74, 78
2, 533760, Note_on_c, 0, 77, 78
2, 534240, Note_on_c, 0, 77, 0
2, 534240, Note_on_c, 0, 74, 0
2, 534240, Note_on_c, 0, 65, 0
2, 534240, Note_on_c, 0, 75, 78
2, 534240, Note_on_c, 0, 79, 78
2, 534240, Note_on_c, 0, 87, 78
2, 535200, Note_on_c, 0, 87, 0
2, 535200, Note_on_c, 0, 79, 0
2, 535200, Note_on_c, 0, 75, 0
2, 535200, Note_on_c, 0, 74, 78
2, 535200, Note_on_c, 0, 77, 78
2, 535200, Note_on_c, 0, 86, 78
2, 535680, Note_on_c, 0, 86, 0
2, 535680, Note_on_c, 0, 77, 0
2, 535680, Note_on_c, 0, 74, 0
2, 535680, Note_on_c, 0, 75, 104
2, 535680, Note_on_c, 0, 79, 104
2, 535680, Note_on_c, 0, 87, 104
2, 536160, Note_on_c, 0, 87, 0
2, 536160, Note_on_c, 0, 79, 0
2, 536160, Note_on_c, 0, 75, 0
2, 536160, Note_on_c, 0, 74, 78
2, 536160, Note_on_c, 0, 77, 78
2, 536160, Note_on_c, 0, 86, 78
2, 536880, Note_on_c, 0, 86, 0
2, 536880, Note_on_c, 0, 77, 0
2, 536880, Note_on_c, 0, 74, 0
2, 536880, Note_on_c, 0, 77, 78
2, 536880, Note_on_c, 0, 81, 78
2, 536880, Note_on_c, 0, 89, 78
2, 537120, Note_on_c, 0, 89, 0
2, 537120, Note_on_c, 0, 81, 0
2, 537120, Note_on_c, 0, 77, 0
2, 537120, Note_on_c, 0, 75, 78
2, 537120, Note_on_c, 0, 79, 78
2, 537120, Note_on_c, 0, 87, 78
2, 537600, Note_on_c, 0, 87, 0
2, 537600, Note_on_c, 0, 79, 0
2, 537600, Note_on_c, 0, 75, 0
2, 537600, Note_on_c, 0, 74, 78
2, 537600, Note_on_c, 0, 77, 78
2, 537600, Note_on_c, 0, 86, 78
2, 538080, Note_on_c, 0, 86, 0
2, 538080, Note_on_c, 0, 77, 0
2, 538080, Note_on_c, 0, 74, 0
2, 538080, Note_on_c, 0, 72, 78
2, 538080, Note_on_c, 0, 75, 78
2, 538080, Note_on_c, 0, 84, 78
2, 538560, Note_on_c, 0, 84, 0
2, 538560, Note_on_c, 0, 75, 0
2, 538560, Note_on_c, 0, 72, 0
2, 538560, Note_on_c, 0, 70, 78
2, 538560, Note_on_c, 0, 74, 78
2, 538560, Note_on_c, 0, 82, 78
2, 539040, Note_on_c, 0, 82, 0
2, 539040, Note_on_c, 0, 74, 0
2, 539040, Note_on_c, 0, 70, 0
2, 539040, Note_on_c, 0, 77, 104
2, 539520, Note_on_c, 0, 77, 0
2, 539520, Note_on_c, 0, 76, 78
2, 540000, Note_on_c, 0, 76, 0
2, 540000, Note_on_c, 0, 67, 65
2, 540000, Note_on_c, 0, 74, 65
2, 540480, Note_on_c, 0, 74, 0
2, 540480, Note_on_c, 0, 67, 0
2, 540480, Note_on_c, 0, 69, 65
2, 540480, Note_on_c, 0, 73, 65
2, 540960, Note_on_c, 0, 73, 0
2, 540960, Note_on_c, 0, 69, 0
2, 540960, Note_on_c, 0, 69, 65
2, 541440, Note_on_c, 0, 69, 0
2, 541440, Note_on_c, 0, 77, 39
2, 541440, Note_on_c, 0, 81, 39
2, 541680, Note_on_c, 0, 81, 0
2, 541680, Note_on_c, 0, 77, 0
2, 541680, Note_on_c, 0, 77, 39
2, 541680, Note_on_c, 0, 81, 39
2, 541920, Note_on_c, 0, 81, 0
2, 541920, Note_on_c, 0, 77, 0
2, 542400, Note_on_c, 0, 74, 39
2, 542400, Note_on_c, 0, 77, 39
2, 542400, Note_on_c, 0, 81, 39
2, 542640, Note_on_c, 0, 81, 0
2, 542640, Note_on_c, 0, 77, 0
2, 542640, Note_on_c, 0, 74, 0
2, 542640, Note_on_c, 0, 74, 39
2, 542640, Note_on_c, 0, 77, 39
2, 542640, Note_on_c, 0, 81, 39
2, 542880, Note_on_c, 0, 81, 0
2, 542880, Note_on_c, 0, 77, 0
2, 542880, Note_on_c, 0, 74, 0
2, 543360, Note_on_c, 0, 77, 39
2, 543360, Note_on_c, 0, 81, 39
2, 543360, Note_on_c, 0, 86, 39
2, 543600, Note_on_c, 0, 86, 0
2, 543600, Note_on_c, 0, 81, 0
2, 543600, Note_on_c, 0, 77, 0
2, 543600, Note_on_c, 0, 77, 39
2, 543600, Note_on_c, 0, 81, 39
2, 543600, Note_on_c, 0, 86, 39
2, 543840, Note_on_c, 0, 86, 0
2, 543840, Note_on_c, 0, 81, 0
2, 543840, Note_on_c, 0, 77, 0
2, 544320, Note_on_c, 0, 77, 39
2, 544320, Note_on_c, 0, 81, 39
2, 544560, Note_on_c, 0, 81, 0
2, 544560, Note_on_c, 0, 77, 0
2, 544560, Note_on_c, 0, 77, 39
2, 544560, Note_on_c, 0, 81, 39
2, 544800, Note_on_c, 0, 81, 0
2, 544800, Note_on_c, 0, 77, 0
2, 545280, Note_on_c, 0, 77, 39
2, 545280, Note_on_c, 0, 81, 39
2, 545520, Note_on_c, 0, 81, 0
2, 545520, Note_on_c, 0, 77, 0
2, 545520, Note_on_c, 0, 77, 39
2, 545520, Note_on_c, 0, 81, 39
2, 545760, Note_on_c, 0, 81, 0
2, 545760, Note_on_c, 0, 77, 0
2, 546240, Note_on_c, 0, 81, 39
2, 546240, Note_on_c, 0, 86, 39
2, 546240, Note_on_c, 0, 89, 39
2, 546480, Note_on_c, 0, 89, 0
2, 546480, Note_on_c, 0, 86, 0
2, 546480, Note_on_c, 0, 81, 0
2, 546480, Note_on_c, 0, 81, 39
2, 546480, Note_on_c, 0, 86, 39
2, 546480, Note_on_c, 0, 89, 39
2, 546720, Note_on_c, 0, 89, 0
2, 546720, Note_on_c, 0, 86, 0
2, 546720, Note_on_c, 0, 81, 0
2, 547200, Note_on_c, 0, 82, 39
2, 547200, Note_on_c, 0, 86, 39
2, 547200, Note_on_c, 0, 88, 39
2, 547440, Note_on_c, 0, 88, 0
2, 547440, Note_on_c, 0, 86, 0
2, 547440, Note_on_c, 0, 82, 0
2, 547440, Note_on_c, 0, 82, 39
2, 547440, Note_on_c, 0, 86, 39
2, 547440, Note_on_c, 0, 88, 39
2, 547680, Note_on_c, 0, 88, 0
2, 547680, Note_on_c, 0, 86, 0
2, 547680, Note_on_c, 0, 82, 0
2, 548160, Note_on_c, 0, 74, 39
2, 548160, Note_on_c, 0, 76, 39
2, 548160, Note_on_c, 0, 79, 39
2, 548400, Note_on_c, 0, 79, 0
2, 548400, Note_on_c, 0, 76, 0
2, 548400, Note_on_c, 0, 74, 0
2, 548400, Note_on_c, 0, 74, 39
2, 548400, Note_on_c, 0, 76, 39
2, 548400, Note_on_c, 0, 79, 39
2, 548640, Note_on_c, 0, 79, 0
2, 548640, Note_on_c, 0, 76, 0
2, 548640, Note_on_c, 0, 74, 0
2, 549120, Note_on_c, 0, 82, 39
2, 549120, Note_on_c, 0, 86, 39
2, 549120, Note_on_c, 0, 88, 39
2, 549360, Note_on_c, 0, 88, 0
2, 549360, Note_on_c, 0, 86, 0
2, 549360, Note_on_c, 0, 82, 0
2, 549360, Note_on_c, 0, 82, 39
2, 549360, Note_on_c, 0, 86, 39
2, 549360, Note_on_c, 0, 88, 39
2, 549600, Note_on_c, 0, 88, 0
2, 549600, Note_on_c, 0, 86, 0
2, 549600, Note_on_c, 0, 82, 0
2, 550080, Note_on_c, 0, 81, 39
2, 550080, Note_on_c, 0, 88, 39
2, 550080, Note_on_c, 0, 93, 39
2, 550320, Note_on_c, 0, 93, 0
2, 550320, Note_on_c, 0, 88, 0
2, 550320, Note_on_c, 0, 81, 0
2, 550320, Note_on_c, 0, 81, 39
2, 550320, Note_on_c, 0, 88, 39
2, 550320, Note_on_c, 0, 93, 39
2, 550560, Note_on_c, 0, 93, 0
2, 550560, Note_on_c, 0, 88, 0
2, 550560, Note_on_c, 0, 81, 0
2, 551040, Note_on_c, 0, 79, 39
2, 551040, Note_on_c, 0, 85, 39
2, 551040, Note_on_c, 0, 88, 39
2, 551280, Note_on_c, 0, 88, 0
2, 551280, Note_on_c, 0, 85, 0
2, 551280, Note_on_c, 0, 79, 0
2, 551280, Note_on_c, 0, 79, 39
2, 551280, Note_on_c, 0, 85, 39
2, 551280, Note_on_c, 0, 88, 39
2, 551520, Note_on_c, 0, 88, 0
2, 551520, Note_on_c, 0, 85, 0
2, 551520, Note_on_c, 0, 79, 0
2, 552000, Note_on_c, 0, 81, 39
2, 552000, Note_on_c, 0, 86, 39
2, 552000, Note_on_c, 0, 89, 39
2, 552240, Note_on_c, 0, 89, 0
2, 552240, Note_on_c, 0, 86, 0
2, 552240, Note_on_c, 0, 81, 0
2, 552240, Note_on_c, 0, 81, 39
2, 552240, Note_on_c, 0, 86, 39
2, 552240, Note_on_c, 0, 89, 39
2, 552480, Note_on_c, 0, 89, 0
2, 552480, Note_on_c, 0, 86, 0
2, 552480, Note_on_c, 0, 81, 0
2, 552960, Note_on_c, 0, 77, 39
2, 552960, Note_on_c, 0, 81, 39
2, 553200, Note_on_c, 0, 81, 0
2, 553200, Note_on_c, 0, 77, 0
2, 553200, Note_on_c, 0, 77, 39
2, 553200, Note_on_c, 0, 81, 39
2, 553440, Note_on_c, 0, 81, 0
2, 553440, Note_on_c, 0, 77, 0
2, 553920, Note_on_c, 0, 74, 39
2, 553920, Note_on_c, 0, 77, 39
2, 553920, Note_on_c, 0, 81, 39
2, 554160, Note_on_c, 0, 81, 0
2, 554160, Note_on_c, 0, 77, 0
2, 554160, Note_on_c, 0, 74, 0
2, 554160, Note_on_c, 0, 74, 39
2, 554160, Note_on_c, 0, 77, 39
2, 554160, Note_on_c, 0, 81, 39
2, 554400, Note_on_c, 0, 81, 0
2, 554400, Note_on_c, 0, 77, 0
2, 554400, Note_on_c, 0, 74, 0
2, 554880, Note_on_c, 0, 77, 39
2, 554880, Note_on_c, 0, 81, 39
2, 554880, Note_on_c, 0, 86, 39
2, 555120, Note_on_c, 0, 86, 0
2, 555120, Note_on_c, 0, 81, 0
2, 555120, Note_on_c, 0, 77, 0
2, 555120, Note_on_c, 0, 77, 39
2, 555120, Note_on_c, 0, 81, 39
2, 555120, Note_on_c, 0, 86, 39
2, 555360, Note_on_c, 0, 86, 0
2, 555360, Note_on_c, 0, 81, 0
2, 555360, Note_on_c, 0, 77, 0
2, 555840, Note_on_c, 0, 77, 39
2, 555840, Note_on_c, 0, 81, 39
2, 556080, Note_on_c, 0, 81, 0
2, 556080, Note_on_c, 0, 77, 0
2, 556080, Note_on_c, 0, 77, 39
2, 556080, Note_on_c, 0, 81, 39
2, 556320, Note_on_c, 0, 81, 0
2, 556320, Note_on_c, 0, 77, 0
2, 556800, Note_on_c, 0, 77, 39
2, 556800, Note_on_c, 0, 81, 39
2, 557040, Note_on_c, 0, 81, 0
2, 557040, Note_on_c, 0, 77, 0
2, 557040, Note_on_c, 0, 77, 39
2, 557040, Note_on_c, 0, 81, 39
2, 557280, Note_on_c, 0, 81, 0
2, 557280, Note_on_c, 0, 77, 0
2, 557760, Note_on_c, 0, 81, 39
2, 557760, Note_on_c, 0, 86, 39
2, 557760, Note_on_c, 0, 89, 39
2, 558000, Note_on_c, 0, 89, 0
2, 558000, Note_on_c, 0, 86, 0
2, 558000, Note_on_c, 0, 81, 0
2, 558000, Note_on_c, 0, 81, 39
2, 558000, Note_on_c, 0, 86, 39
2, 558000, Note_on_c, 0, 89, 39
2, 558240, Note_on_c, 0, 89, 0
2, 558240, Note_on_c, 0, 86, 0
2, 558240, Note_on_c, 0, 81, 0
2, 558720, Note_on_c, 0, 82, 39
2, 558720, Note_on_c, 0, 86, 39
2, 558720, Note_on_c, 0, 88, 39
2, 558960, Note_on_c, 0, 88, 0
2, 558960, Note_on_c, 0, 86, 0
2, 558960, Note_on_c, 0, 82, 0
2, 558960, Note_on_c, 0, 82, 39
2, 558960, Note_on_c, 0, 86, 39
2, 558960, Note_on_c, 0, 88, 39
2, 559200, Note_on_c, 0, 88, 0
2, 559200, Note_on_c, 0, 86, 0
2, 559200, Note_on_c, 0, 82, 0
2, 559680, Note_on_c, 0, 74, 39
2, 559680, Note_on_c, 0, 76, 39
2, 559680, Note_on_c, 0, 79, 39
2, 559920, Note_on_c, 0, 79, 0
2, 559920, Note_on_c, 0, 76, 0
2, 559920, Note_on_c, 0, 74, 0
2, 559920, Note_on_c, 0, 74, 39
2, 559920, Note_on_c, 0, 76, 39
2, 559920, Note_on_c, 0, 79, 39
2, 560160, Note_on_c, 0, 79, 0
2, 560160, Note_on_c, 0, 76, 0
2, 560160, Note_on_c, 0, 74, 0
2, 560640, Note_on_c, 0, 82, 39
2, 560640, Note_on_c, 0, 86, 39
2, 560640, Note_on_c, 0, 88, 39
2, 560880, Note_on_c, 0, 88, 0
2, 560880, Note_on_c, 0, 86, 0
2, 560880, Note_on_c, 0, 82, 0
2, 560880, Note_on_c, 0, 82, 39
2, 560880, Note_on_c, 0, 86, 39
2, 560880, Note_on_c, 0, 88, 39
2, 561120, Note_on_c, 0, 88, 0
2, 561120, Note_on_c, 0, 86, 0
2, 561120, Note_on_c, 0, 82, 0
2, 561600, Note_on_c, 0, 81, 39
2, 561600, Note_on_c, 0, 88, 39
2, 561600, Note_on_c, 0, 93, 39
2, 561840, Note_on_c, 0, 93, 0
2, 561840, Note_on_c, 0, 88, 0
2, 561840, Note_on_c, 0, 81, 0
2, 561840, Note_on_c, 0, 81, 39
2, 561840, Note_on_c, 0, 88, 39
2, 561840, Note_on_c, 0, 93, 39
2, 562080, Note_on_c, 0, 93, 0
2, 562080, Note_on_c, 0, 88, 0
2, 562080, Note_on_c, 0, 81, 0
2, 562560, Note_on_c, 0, 79, 39
2, 562560, Note_on_c, 0, 85, 39
2, 562560, Note_on_c, 0, 88, 39
2, 562800, Note_on_c, 0, 88, 0
2, 562800, Note_on_c, 0, 85, 0
2, 562800, Note_on_c, 0, 79, 0
2, 562800, Note_on_c, 0, 79, 39
2, 562800, Note_on_c, 0, 85, 39
2, 562800, Note_on_c, 0, 88, 39
2, 563040, Note_on_c, 0, 88, 0
2, 563040, Note_on_c, 0, 85, 0
2, 563040, Note_on_c, 0, 79, 0
2, 563040, Control_c, 0, 64, 127
2, 563040, Note_on_c, 0, 62, 52
2, 563280, Note_on_c, 0, 62, 0
2, 563280, Note_on_c, 0, 64, 52
2, 563520, Note_on_c, 0, 64, 0
2, 563520, Note_on_c, 0, 65, 52
2, 563760, Note_on_c, 0, 65, 0
2, 563760, Note_on_c, 0, 67, 52
2, 564000, Note_on_c, 0, 67, 0
2, 564000, Note_on_c, 0, 69, 52
2, 564240, Note_on_c, 0, 69, 0
2, 564240, Control_c, 0, 64, 0
2, 564240, Note_on_c, 0, 65, 52
2, 564480, Note_on_c, 0, 65, 0
2, 564480, Control_c, 0, 64, 127
2, 564480, Note_on_c, 0, 62, 65
2, 564720, Note_on_c, 0, 62, 0
2, 564720, Note_on_c, 0, 64, 65
2, 564960, Note_on_c, 0, 64, 0
2, 564960, Note_on_c, 0, 66, 65
2, 565200, Note_on_c, 0, 66, 0
2, 565200, Note_on_c, 0, 67, 65
2, 565440, Note_on_c, 0, 67, 0
2, 565440, Note_on_c, 0, 69, 65
2, 565680, Note_on_c, 0, 69, 0
2, 565680, Control_c, 0, 64, 0
2, 565680, Note_on_c, 0, 66, 65
2, 565920, Note_on_c, 0, 66, 0
2, 565920, Control_c, 0, 64, 127
2, 565920, Note_on_c, 0, 67, 65
2, 566160, Note_on_c, 0, 67, 0
2, 566160, Note_on_c, 0, 69, 65
2, 566400, Note_on_c, 0, 69, 0
2, 566400, Note_on_c, 0, 70, 65
2, 566640, Note_on_c, 0, 70, 0
2, 566640, Note_on_c, 0, 72, 65
2, 566880, Note_on_c, 0, 72, 0
2, 566880, Note_on_c, 0, 74, 65
2, 567120, Note_on_c, 0, 74, 0
2, 567120, Control_c, 0, 64, 0
2, 567120, Note_on_c, 0, 62, 65
2, 567360, Note_on_c, 0, 62, 0
2, 567360, Control_c, 0, 64, 127
2, 567360, Note_on_c, 0, 64, 65
2, 567600, Note_on_c, 0, 64, 0
2, 567600, Note_on_c, 0, 66, 65
2, 567840, Note_on_c, 0, 66, 0
2, 567840, Note_on_c, 0, 68, 65
2, 568080, Note_on_c, 0, 68, 0
2, 568080, Note_on_c, 0, 69, 65
2, 568320, Note_on_c, 0, 69, 0
2, 568320, Note_on_c, 0, 71, 65
2, 568560, Note_on_c, 0, 71, 0
2, 568560, Control_c, 0, 64, 0
2, 568560, Note_on_c, 0, 68, 65
2, 568800, Note_on_c, 0, 68, 0
2, 568800, Control_c, 0, 64, 127
2, 568800, Note_on_c, 0, 69, 65
2, 569040, Note_on_c, 0, 69, 0
2, 569040, Note_on_c, 0, 71, 65
2, 569280, Note_on_c, 0, 71, 0
2, 569280, Note_on_c, 0, 72, 65
2, 569520, Note_on_c, 0, 72, 0
2, 569520, Note_on_c, 0, 74, 65
2, 569760, Note_on_c, 0, 74, 0
2, 569760, Note_on_c, 0, 76, 65
2, 570000, Note_on_c, 0, 76, 0
2, 570000, Control_c, 0, 64, 0
2, 570000, Note_on_c, 0, 64, 65
2, 570240, Note_on_c, 0, 64, 0
2, 570240, Control_c, 0, 64, 127
2, 570240, Note_on_c, 0, 66, 65
2, 570480, Note_on_c, 0, 66, 0
2, 570480, Note_on_c, 0, 68, 65
2, 570720, Note_on_c, 0, 68, 0
2, 570720, Note_on_c, 0, 70, 65
2, 570960, Note_on_c, 0, 70, 0
2, 570960, Note_on_c, 0, 71, 65
2, 571200, Note_on_c, 0, 71, 0
2, 571200, Note_on_c, 0, 73, 65
2, 571440, Note_on_c, 0, 73, 0
2, 571440, Control_c, 0, 64, 0
2, 571440, Note_on_c, 0, 66, 65
2, 571680, Note_on_c, 0, 66, 0
2, 571680, Control_c, 0, 64, 127
2, 571680, Note_on_c, 0, 71, 65
2, 571920, Note_on_c, 0, 71, 0
2, 571920, Note_on_c, 0, 73, 65
2, 572160, Note_on_c, 0, 73, 0
2, 572160, Note_on_c, 0, 74, 65
2, 572400, Note_on_c, 0, 74, 0
2, 572400, Note_on_c, 0, 76, 65
2, 572640, Note_on_c, 0, 76, 0
2, 572640, Note_on_c, 0, 78, 65
2, 572880, Note_on_c, 0, 78, 0
2, 572880, Control_c, 0, 64, 0
2, 572880, Note_on_c, 0, 66, 65
2, 573120, Note_on_c, 0, 66, 0
2, 573120, Control_c, 0, 64, 127
2, 573120, Note_on_c, 0, 71, 65
2, 573360, Note_on_c, 0, 71, 0
2, 573360, Note_on_c, 0, 73, 65
2, 573600, Note_on_c, 0, 73, 0
2, 573600, Note_on_c, 0, 74, 65
2, 573840, Note_on_c, 0, 74, 0
2, 573840, Note_on_c, 0, 76, 65
2, 574080, Note_on_c, 0, 76, 0
2, 574080, Note_on_c, 0, 78, 65
2, 574320, Note_on_c, 0, 78, 0
2, 574320, Control_c, 0, 64, 0
2, 574320, Note_on_c, 0, 66, 65
2, 574560, Note_on_c, 0, 66, 0
2, 574560, Control_c, 0, 64, 127
2, 574560, Note_on_c, 0, 72, 65
2, 574800, Note_on_c, 0, 72, 0
2, 574800, Note_on_c, 0, 74, 65
2, 575040, Note_on_c, 0, 74, 0
2, 575040, Note_on_c, 0, 76, 65
2, 575280, Note_on_c, 0, 76, 0
2, 575280, Note_on_c, 0, 78, 65
2, 575520, Note_on_c, 0, 78, 0
2, 575520, Note_on_c, 0, 79, 65
2, 575760, Note_on_c, 0, 79, 0
2, 575760, Control_c, 0, 64, 0
2, 575760, Note_on_c, 0, 67, 65
2, 576000, Note_on_c, 0, 67, 0
2, 576000, Control_c, 0, 64, 127
2, 576000, Note_on_c, 0, 73, 65
2, 576240, Note_on_c, 0, 73, 0
2, 576240, Note_on_c, 0, 74, 65
2, 576480, Note_on_c, 0, 74, 0
2, 576480, Note_on_c, 0, 76, 65
2, 576720, Note_on_c, 0, 76, 0
2, 576720, Note_on_c, 0, 80, 65
2, 576960, Note_on_c, 0, 80, 0
2, 576960, Note_on_c, 0, 81, 65
2, 577200, Note_on_c, 0, 81, 0
2, 577200, Control_c, 0, 64, 0
2, 577200, Note_on_c, 0, 69, 65
2, 577440, Note_on_c, 0, 69, 0
2, 577440, Control_c, 0, 64, 127
2, 577440, Note_on_c, 0, 74, 65
2, 577680, Note_on_c, 0, 74, 0
2, 577680, Note_on_c, 0, 76, 65
2, 577920, Note_on_c, 0, 76, 0
2, 577920, Note_on_c, 0, 77, 65
2, 578160, Note_on_c, 0, 77, 0
2, 578160, Note_on_c, 0, 80, 65
2, 578400, Note_on_c, 0, 80, 0
2, 578400, Note_on_c, 0, 81, 65
2, 578640, Note_on_c, 0, 81, 0
2, 578640, Control_c, 0, 64, 0
2, 578640, Note_on_c, 0, 69, 65
2, 578880, Note_on_c, 0, 69, 0
2, 578880, Control_c, 0, 64, 127
2, 578880, Note_on_c, 0, 75, 65
2, 579120, Note_on_c, 0, 75, 0
2, 579120, Note_on_c, 0, 76, 65
2, 579360, Note_on_c, 0, 76, 0
2, 579360, Note_on_c, 0, 78, 65
2, 579600, Note_on_c, 0, 78, 0
2, 579600, Note_on_c, 0, 82, 65
2, 579840, Note_on_c, 0, 82, 0
2, 579840, Note_on_c, 0, 83, 65
2, 580080, Note_on_c, 0, 83, 0
2, 580080, Control_c, 0, 64, 0
2, 580080, Note_on_c, 0, 71, 65
2, 580320, Note_on_c, 0, 71, 0
2, 580320, Control_c, 0, 64, 127
2, 580320, Note_on_c, 0, 76, 65
2, 580560, Note_on_c, 0, 76, 0
2, 580560, Note_on_c, 0, 78, 65
2, 580800, Note_on_c, 0, 78, 0
2, 580800, Note_on_c, 0, 79, 65
2, 581040, Note_on_c, 0, 79, 0
2, 581040, Note_on_c, 0, 82, 65
2, 581280, Note_on_c, 0, 82, 0
2, 581280, Note_on_c, 0, 83, 65
2, 581520, Note_on_c, 0, 83, 0
2, 581520, Control_c, 0, 64, 0
2, 581520, Note_on_c, 0, 71, 65
2, 581760, Note_on_c, 0, 71, 0
2, 581760, Control_c, 0, 64, 127
2, 581760, Note_on_c, 0, 76, 65
2, 582000, Note_on_c, 0, 76, 0
2, 582000, Note_on_c, 0, 78, 65
2, 582240, Note_on_c, 0, 78, 0
2, 582240, Note_on_c, 0, 79, 65
2, 582480, Note_on_c, 0, 79, 0
2, 582480, Note_on_c, 0, 83, 65
2, 582720, Note_on_c, 0, 83, 0
2, 582720, Note_on_c, 0, 84, 65
2, 582960, Note_on_c, 0, 84, 0
2, 582960, Control_c, 0, 64, 0
2, 582960, Note_on_c, 0, 72, 65
2, 583200, Note_on_c, 0, 72, 0
2, 583200, Control_c, 0, 64, 127
2, 583200, Note_on_c, 0, 77, 65
2, 583440, Note_on_c, 0, 77, 0
2, 583440, Note_on_c, 0, 80, 65
2, 583680, Note_on_c, 0, 80, 0
2, 583680, Note_on_c, 0, 81, 65
2, 583920, Note_on_c, 0, 81, 0
2, 583920, Note_on_c, 0, 83, 65
2, 584160, Note_on_c, 0, 83, 0
2, 584160, Note_on_c, 0, 84, 65
2, 584400, Note_on_c, 0, 84, 0
2, 584400, Control_c, 0, 64, 0
2, 584400, Note_on_c, 0, 72, 65
2, 584640, Note_on_c, 0, 72, 0
2, 584640, Control_c, 0, 64, 127
2, 584640, Note_on_c, 0, 81, 65
2, 584880, Note_on_c, 0, 81, 0
2, 584880, Note_on_c, 0, 83, 65
2, 585120, Note_on_c, 0, 83, 0
2, 585120, Note_on_c, 0, 84, 65
2, 585360, Note_on_c, 0, 84, 0
2, 585360, Note_on_c, 0, 86, 65
2, 585600, Note_on_c, 0, 86, 0
2, 585600, Note_on_c, 0, 87, 65
2, 585840, Note_on_c, 0, 87, 0
2, 585840, Control_c, 0, 64, 0
2, 585840, Note_on_c, 0, 81, 65
2, 586080, Note_on_c, 0, 81, 0
2, 586080, Control_c, 0, 64, 127
2, 586080, Note_on_c, 0, 81, 65
2, 586320, Note_on_c, 0, 81, 0
2, 586320, Note_on_c, 0, 83, 65
2, 586560, Note_on_c, 0, 83, 0
2, 586560, Note_on_c, 0, 84, 65
2, 586800, Note_on_c, 0, 84, 0
2, 586800, Note_on_c, 0, 86, 65
2, 587040, Note_on_c, 0, 86, 0
2, 587040, Note_on_c, 0, 87, 65
2, 587280, Note_on_c, 0, 87, 0
2, 587280, Control_c, 0, 64, 0
2, 587280, Note_on_c, 0, 81, 65
2, 587520, Note_on_c, 0, 81, 0
2, 587520, Control_c, 0, 64, 127
2, 587520, Note_on_c, 0, 81, 78
2, 587760, Note_on_c, 0, 81, 0
2, 587760, Note_on_c, 0, 83, 78
2, 588000, Note_on_c, 0, 83, 0
2, 588000, Note_on_c, 0, 84, 78
2, 588240, Note_on_c, 0, 84, 0
2, 588240, Note_on_c, 0, 86, 78
2, 588480, Note_on_c, 0, 86, 0
2, 588480, Note_on_c, 0, 87, 78
2, 588720, Note_on_c, 0, 87, 0
2, 588720, Control_c, 0, 64, 0
2, 588720, Note_on_c, 0, 81, 78
2, 588960, Note_on_c, 0, 81, 0
2, 588960, Control_c, 0, 64, 127
2, 588960, Note_on_c, 0, 81, 78
2, 589200, Note_on_c, 0, 81, 0
2, 589200, Note_on_c, 0, 83, 78
2, 589440, Note_on_c, 0, 83, 0
2, 589440, Note_on_c, 0, 84, 78
2, 589680, Note_on_c, 0, 84, 0
2, 589680, Note_on_c, 0, 86, 78
2, 589920, Note_on_c, 0, 86, 0
2, 589920, Note_on_c, 0, 87, 78
2, 590160, Note_on_c, 0, 87, 0
2, 590160, Control_c, 0, 64, 0
2, 590160, Note_on_c, 0, 81, 78
2, 590400, Note_on_c, 0, 81, 0
2, 590400, Note_on_c, 0, 76, 91
2, 590400, Note_on_c, 0, 81, 91
2, 590400, Note_on_c, 0, 85, 91
2, 590400, Note_on_c, 0, 88, 91
2, 591360, Note_on_c, 0, 88, 0
2, 591360, Note_on_c, 0, 76, 0
2, 591360, Note_on_c, 0, 81, 0
2, 591360, Note_on_c, 0, 85, 0
2, 591360, Note_on_c, 0, 76, 91
2, 591360, Note_on_c, 0, 81, 91
2, 591360, Note_on_c, 0, 85, 91
2, 591360, Note_on_c, 0, 88, 91
2, 592320, Note_on_c, 0, 88, 0
2, 592320, Note_on_c, 0, 76, 0
2, 592320, Note_on_c, 0, 81, 0
2, 592320, Note_on_c, 0, 85, 0
2, 592320, Note_on_c, 0, 76, 91
2, 592320, Note_on_c, 0, 81, 91
2, 592320, Note_on_c, 0, 85, 91
2, 592320, Note_on_c, 0, 88, 91
2, 593280, Note_on_c, 0, 88, 0
2, 593280, Note_on_c, 0, 76, 0
2, 593280, Note_on_c, 0, 81, 0
2, 593280, Note_on_c, 0, 85, 0
2, 593280, Note_on_c, 0, 76, 91
2, 593280, Note_on_c, 0, 81, 91
2, 593280, Note_on_c, 0, 85, 91
2, 593280, Note_on_c, 0, 88, 91
2, 594240, Note_on_c, 0, 88, 0
2, 594240, Note_on_c, 0, 76, 0
2, 594240, Note_on_c, 0, 81, 0
2, 594240, Note_on_c, 0, 85, 0
2, 594240, Note_on_c, 0, 76, 91
2, 594240, Note_on_c, 0, 81, 91
2, 594240, Note_on_c, 0, 85, 91
2, 594240, Note_on_c, 0, 88, 91
2, 594720, Note_on_c, 0, 88, 0
2, 594720, Note_on_c, 0, 76, 0
2, 594720, Note_on_c, 0, 81, 0
2, 594720, Note_on_c, 0, 85, 0
2, 594720, Note_on_c, 0, 69, 91
2, 594720, Note_on_c, 0, 73, 91
2, 594720, Note_on_c, 0, 76, 91
2, 594720, Note_on_c, 0, 81, 91
2, 595200, Note_on_c, 0, 81, 0
2, 595200, Note_on_c, 0, 69, 0
2, 595200, Note_on_c, 0, 73, 0
2, 595200, Note_on_c, 0, 76, 0
2, 595200, Note_on_c, 0, 73, 91
2, 595200, Note_on_c, 0, 76, 91
2, 595200, Note_on_c, 0, 80, 91
2, 595200, Note_on_c, 0, 85, 91
2, 595920, Note_on_c, 0, 85, 0
2, 595920, Note_on_c, 0, 73, 0
2, 595920, Note_on_c, 0, 76, 0
2, 595920, Note_on_c, 0, 80, 0
2, 595920, Note_on_c, 0, 71, 91
2, 595920, Note_on_c, 0, 76, 91
2, 595920, Note_on_c, 0, 80, 91
2, 595920, Note_on_c, 0, 83, 91
2, 596160, Note_on_c, 0, 83, 0
2, 596160, Note_on_c, 0, 71, 0
2, 596160, Note_on_c, 0, 76, 0
2, 596160, Note_on_c, 0, 80, 0
2, 596160, Note_on_c, 0, 76, 91
2, 596160, Note_on_c, 0, 81, 91
2, 596160, Note_on_c, 0, 85, 91
2, 596160, Note_on_c, 0, 88, 91
2, 597120, Note_on_c, 0, 88, 0
2, 597120, Note_on_c, 0, 76, 0
2, 597120, Note_on_c, 0, 81, 0
2, 597120, Note_on_c, 0, 85, 0
2, 597120, Note_on_c, 0, 76, 91
2, 597120, Note_on_c, 0, 81, 91
2, 597120, Note_on_c, 0, 85, 91
2, 597120, Note_on_c, 0, 88, 91
2, 598080, Note_on_c, 0, 88, 0
2, 598080, Note_on_c, 0, 76, 0
2, 598080, Note_on_c, 0, 81, 0
2, 598080, Note_on_c, 0, 85, 0
2, 598080, Note_on_c, 0, 76, 91
2, 598080, Note_on_c, 0, 81, 91
2, 598080, Note_on_c, 0, 85, 91
2, 598080, Note_on_c, 0, 88, 91
2, 599040, Note_on_c, 0, 88, 0
2, 599040, Note_on_c, 0, 76, 0
2, 599040, Note_on_c, 0, 81, 0
2, 599040, Note_on_c, 0, 85, 0
2, 599040, Note_on_c, 0, 69, 91
2, 599040, Note_on_c, 0, 73, 91
2, 599040, Note_on_c, 0, 76, 91
2, 599040, Note_on_c, 0, 81, 91
2, 599520, Note_on_c, 0, 81, 0
2, 599520, Note_on_c, 0, 69, 0
2, 599520, Note_on_c, 0, 73, 0
2, 599520, Note_on_c, 0, 76, 0
2, 599520, Note_on_c, 0, 73, 91
2, 599520, Note_on_c, 0, 76, 91
2, 599520, Note_on_c, 0, 80, 91
2, 599520, Note_on_c, 0, 85, 91
2, 600240, Note_on_c, 0, 85, 0
2, 600240, Note_on_c, 0, 73, 0
2, 600240, Note_on_c, 0, 76, 0
2, 600240, Note_on_c, 0, 80, 0
2, 600240, Note_on_c, 0, 71, 91
2, 600240, Note_on_c, 0, 76, 91
2, 600240, Note_on_c, 0, 80, 91
2, 600240, Note_on_c, 0, 83, 91
2, 600480, Note_on_c, 0, 83, 0
2, 600480, Note_on_c, 0, 71, 0
2, 600480, Note_on_c, 0, 76, 0
2, 600480, Note_on_c, 0, 80, 0
2, 600480, Note_on_c, 0, 69, 91
2, 600480, Note_on_c, 0, 81, 91
2, 600720, Note_on_c, 0, 81, 0
2, 600720, Note_on_c, 0, 69, 0
2, 600720, Note_on_c, 0, 75, 91
2, 600960, Note_on_c, 0, 75, 0
2, 600960, Note_on_c, 0, 76, 91
2, 601200, Note_on_c, 0, 76, 0
2, 601200, Note_on_c, 0, 80, 91
2, 601440, Note_on_c, 0, 80, 0
2, 601440, Note_on_c, 0, 81, 91
2, 601680, Note_on_c, 0, 81, 0
2, 601680, Note_on_c, 0, 85, 91
2, 601920, Note_on_c, 0, 85, 0
2, 601920, Note_on_c, 0, 76, 91
2, 601920, Note_on_c, 0, 81, 91
2, 601920, Note_on_c, 0, 85, 91
2, 601920, Note_on_c, 0, 88, 91
2, 602880, Note_on_c, 0, 88, 0
2, 602880, Note_on_c, 0, 76, 0
2, 602880, Note_on_c, 0, 81, 0
2, 602880, Note_on_c, 0, 85, 0
2, 602880, Note_on_c, 0, 76, 91
2, 602880, Note_on_c, 0, 81, 91
2, 602880, Note_on_c, 0, 85, 91
2, 602880, Note_on_c, 0, 88, 91
2, 603840, Note_on_c, 0, 88, 0
2, 603840, Note_on_c, 0, 76, 0
2, 603840, Note_on_c, 0, 81, 0
2, 603840, Note_on_c, 0, 85, 0
2, 603840, Note_on_c, 0, 76, 91
2, 603840, Note_on_c, 0, 81, 91
2, 603840, Note_on_c, 0, 85, 91
2, 603840, Note_on_c, 0, 88, 91
2, 604800, Note_on_c, 0, 88, 0
2, 604800, Note_on_c, 0, 76, 0
2, 604800, Note_on_c, 0, 81, 0
2, 604800, Note_on_c, 0, 85, 0
2, 604800, Note_on_c, 0, 76, 91
2, 604800, Note_on_c, 0, 81, 91
2, 604800, Note_on_c, 0, 85, 91
2, 604800, Note_on_c, 0, 88, 91
2, 605760, Note_on_c, 0, 88, 0
2, 605760, Note_on_c, 0, 76, 0
2, 605760, Note_on_c, 0, 81, 0
2, 605760, Note_on_c, 0, 85, 0
2, 605760, Note_on_c, 0, 76, 91
2, 605760, Note_on_c, 0, 81, 91
2, 605760, Note_on_c, 0, 85, 91
2, 605760, Note_on_c, 0, 88, 91
2, 606240, Note_on_c, 0, 88, 0
2, 606240, Note_on_c, 0, 76, 0
2, 606240, Note_on_c, 0, 81, 0
2, 606240, Note_on_c, 0, 85, 0
2, 606240, Note_on_c, 0, 69, 91
2, 606240, Note_on_c, 0, 73, 91
2, 606240, Note_on_c, 0, 76, 91
2, 606240, Note_on_c, 0, 81, 91
2, 606720, Note_on_c, 0, 81, 0
2, 606720, Note_on_c, 0, 69, 0
2, 606720, Note_on_c, 0, 73, 0
2, 606720, Note_on_c, 0, 76, 0
2, 606720, Note_on_c, 0, 73, 91
2, 606720, Note_on_c, 0, 76, 91
2, 606720, Note_on_c, 0, 80, 91
2, 606720, Note_on_c, 0, 85, 91
2, 607440, Note_on_c, 0, 85, 0
2, 607440, Note_on_c, 0, 73, 0
2, 607440, Note_on_c, 0, 76, 0
2, 607440, Note_on_c, 0, 80, 0
2, 607440, Note_on_c, 0, 71, 91
2, 607440, Note_on_c, 0, 76, 91
2, 607440, Note_on_c, 0, 80, 91
2, 607440, Note_on_c, 0, 83, 91
2, 607680, Note_on_c, 0, 83, 0
2, 607680, Note_on_c, 0, 71, 0
2, 607680, Note_on_c, 0, 76, 0
2, 607680, Note_on_c, 0, 80, 0
2, 607680, Note_on_c, 0, 76, 91
2, 607680, Note_on_c, 0, 81, 91
2, 607680, Note_on_c, 0, 85, 91
2, 607680, Note_on_c, 0, 88, 91
2, 608640, Note_on_c, 0, 88, 0
2, 608640, Note_on_c, 0, 76, 0
2, 608640, Note_on_c, 0, 81, 0
2, 608640, Note_on_c, 0, 85, 0
2, 608640, Note_on_c, 0, 76, 91
2, 608640, Note_on_c, 0, 81, 91
2, 608640, Note_on_c, 0, 85, 91
2, 608640, Note_on_c, 0, 88, 91
2, 609120, Note_on_c, 0, 88, 0
2, 609120, Note_on_c, 0, 76, 0
2, 609120, Note_on_c, 0, 81, 0
2, 609120, Note_on_c, 0, 85, 0
2, 609360, Control_c, 0, 64, 127
2, 609360, Note_on_c, 0, 75, 91
2, 609600, Note_on_c, 0, 75, 0
2, 609600, Note_on_c, 0, 76, 91
2, 609840, Note_on_c, 0, 76, 0
2, 609840, Note_on_c, 0, 80, 91
2, 610080, Note_on_c, 0, 80, 0
2, 610080, Note_on_c, 0, 81, 91
2, 610320, Note_on_c, 0, 81, 0
2, 610320, Control_c, 0, 64, 0
2, 610320, Note_on_c, 0, 85, 91
2, 610560, Note_on_c, 0, 85, 0
2, 610560, Note_on_c, 0, 78, 91
2, 610560, Note_on_c, 0, 82, 91
2, 610560, Note_on_c, 0, 85, 91
2, 610560, Note_on_c, 0, 90, 91
2, 611520, Note_on_c, 0, 90, 0
2, 611520, Note_on_c, 0, 78, 0
2, 611520, Note_on_c, 0, 82, 0
2, 611520, Note_on_c, 0, 85, 0
2, 611520, Note_on_c, 0, 78, 91
2, 611520, Note_on_c, 0, 82, 91
2, 611520, Note_on_c, 0, 85, 91
2, 611520, Note_on_c, 0, 90, 91
2, 612000, Note_on_c, 0, 90, 0
2, 612000, Note_on_c, 0, 78, 0
2, 612000, Note_on_c, 0, 82, 0
2, 612000, Note_on_c, 0, 85, 0
2, 612240, Control_c, 0, 64, 127
2, 612240, Note_on_c, 0, 77, 91
2, 612480, Note_on_c, 0, 77, 0
2, 612480, Note_on_c, 0, 78, 91
2, 612720, Note_on_c, 0, 78, 0
2, 612720, Note_on_c, 0, 81, 91
2, 612960, Note_on_c, 0, 81, 0
2, 612960, Note_on_c, 0, 82, 91
2, 613200, Note_on_c, 0, 82, 0
2, 613200, Control_c, 0, 64, 0
2, 613200, Note_on_c, 0, 85, 91
2, 613440, Note_on_c, 0, 85, 0
2, 613440, Note_on_c, 0, 79, 91
2, 613440, Note_on_c, 0, 83, 91
2, 613440, Note_on_c, 0, 86, 91
2, 613440, Note_on_c, 0, 91, 91
2, 614400, Note_on_c, 0, 91, 0
2, 614400, Note_on_c, 0, 79, 0
2, 614400, Note_on_c, 0, 83, 0
2, 614400, Note_on_c, 0, 86, 0
2, 614400, Note_on_c, 0, 79, 91
2, 614400, Note_on_c, 0, 83, 91
2, 614400, Note_on_c, 0, 86, 91
2, 614400, Note_on_c, 0, 91, 91
2, 614880, Note_on_c, 0, 91, 0
2, 614880, Note_on_c, 0, 79, 0
2, 614880, Note_on_c, 0, 83, 0
2, 614880, Note_on_c, 0, 86, 0
2, 615120, Control_c, 0, 64, 127
2, 615120, Note_on_c, 0, 78, 91
2, 615360, Note_on_c, 0, 78, 0
2, 615360, Note_on_c, 0, 79, 91
2, 615600, Note_on_c, 0, 79, 0
2, 615600, Note_on_c, 0, 82, 91
2, 615840, Note_on_c, 0, 82, 0
2, 615840, Note_on_c, 0, 83, 91
2, 616080, Note_on_c, 0, 83, 0
2, 616080, Control_c, 0, 64, 0
2, 616080, Note_on_c, 0, 86, 91
2, 616320, Note_on_c, 0, 86, 0
2, 616320, Note_on_c, 0, 80, 91
2, 616320, Note_on_c, 0, 83, 91
2, 616320, Note_on_c, 0, 86, 91
2, 616320, Note_on_c, 0, 92, 91
2, 617280, Note_on_c, 0, 92, 0
2, 617280, Note_on_c, 0, 80, 0
2, 617280, Note_on_c, 0, 83, 0
2, 617280, Note_on_c, 0, 86, 0
2, 617280, Note_on_c, 0, 80, 91
2, 617280, Note_on_c, 0, 83, 91
2, 617280, Note_on_c, 0, 86, 91
2, 617280, Note_on_c, 0, 92, 91
2, 617760, Note_on_c, 0, 92, 0
2, 617760, Note_on_c, 0, 80, 0
2, 617760, Note_on_c, 0, 83, 0
2, 617760, Note_on_c, 0, 86, 0
2, 618240, Note_on_c, 0, 80, 91
2, 618240, Note_on_c, 0, 83, 91
2, 618240, Note_on_c, 0, 88, 91
2, 618240, Note_on_c, 0, 92, 91
2, 618720, Note_on_c, 0, 92, 0
2, 618720, Note_on_c, 0, 80, 0
2, 618720, Note_on_c, 0, 83, 0
2, 618720, Note_on_c, 0, 88, 0
2, 618720, Note_on_c, 0, 81, 91
2, 618720, Note_on_c, 0, 84, 91
2, 618720, Note_on_c, 0, 89, 91
2, 618720, Note_on_c, 0, 93, 91
2, 619200, Note_on_c, 0, 93, 0
2, 619200, Note_on_c, 0, 81, 0
2, 619200, Note_on_c, 0, 84, 0
2, 619200, Note_on_c, 0, 89, 0
2, 619200, Control_c, 0, 64, 127
2, 619200, Note_on_c, 0, 89, 91
2, 619200, Note_on_c, 0, 94, 91
2, 619440, Note_on_c, 0, 94, 0
2, 619440, Note_on_c, 0, 89, 0
2, 619440, Note_on_c, 0, 82, 91
2, 619680, Note_on_c, 0, 82, 0
2, 619680, Note_on_c, 0, 89, 91
2, 619920, Note_on_c, 0, 89, 0
2, 619920, Note_on_c, 0, 82, 91
2, 620160, Note_on_c, 0, 82, 0
2, 620160, Note_on_c, 0, 89, 91
2, 620160, Note_on_c, 0, 94, 91
2, 620400, Note_on_c, 0, 94, 0
2, 620400, Note_on_c, 0, 89, 0
2, 620400, Control_c, 0, 64, 0
2, 620400, Note_on_c, 0, 82, 91
2, 620640, Note_on_c, 0, 82, 0
2, 620640, Control_c, 0, 64, 127
2, 620640, Note_on_c, 0, 88, 91
2, 620640, Note_on_c, 0, 92, 91
2, 620880, Note_on_c, 0, 92, 0
2, 620880, Note_on_c, 0, 88, 0
2, 620880, Note_on_c, 0, 80, 91
2, 621120, Note_on_c, 0, 80, 0
2, 621120, Note_on_c, 0, 88, 91
2, 621360, Note_on_c, 0, 88, 0
2, 621360, Note_on_c, 0, 80, 91
2, 621600, Note_on_c, 0, 80, 0
2, 621600, Note_on_c, 0, 88, 91
2, 621600, Note_on_c, 0, 92, 91
2, 621840, Note_on_c, 0, 92, 0
2, 621840, Note_on_c, 0, 88, 0
2, 621840, Control_c, 0, 64, 0
2, 621840, Note_on_c, 0, 80, 91
2, 622080, Note_on_c, 0, 80, 0
2, 622080, Control_c, 0, 64, 127
2, 622080, Note_on_c, 0, 88, 91
2, 622080, Note_on_c, 0, 93, 91
2, 622320, Note_on_c, 0, 93, 0
2, 622320, Note_on_c, 0, 88, 0
2, 622320, Note_on_c, 0, 81, 91
2, 622560, Note_on_c, 0, 81, 0
2, 622560, Note_on_c, 0, 88, 91
2, 622800, Note_on_c, 0, 88, 0
2, 622800, Note_on_c, 0, 81, 91
2, 623040, Note_on_c, 0, 81, 0
2, 623040, Note_on_c, 0, 88, 91
2, 623040, Note_on_c, 0, 93, 91
2, 623280, Note_on_c, 0, 93, 0
2, 623280, Note_on_c, 0, 88, 0
2, 623280, Control_c, 0, 64, 0
2, 623280, Note_on_c, 0, 81, 91
2, 623520, Note_on_c, 0, 81, 0
2, 623520, Control_c, 0, 64, 127
2, 623520, Note_on_c, 0, 87, 91
2, 623520, Note_on_c, 0, 91, 91
2, 623760, Note_on_c, 0, 91, 0
2, 623760, Note_on_c, 0, 87, 0
2, 623760, Note_on_c, 0, 79, 91
2, 624000, Note_on_c, 0, 79, 0
2, 624000, Note_on_c, 0, 87, 91
2, 624240, Note_on_c, 0, 87, 0
2, 624240, Note_on_c, 0, 79, 91
2, 624480, Note_on_c, 0, 79, 0
2, 624480, Note_on_c, 0, 87, 91
2, 624480, Note_on_c, 0, 91, 91
2, 624720, Note_on_c, 0, 91, 0
2, 624720, Note_on_c, 0, 87, 0
2, 624720, Control_c, 0, 64, 0
2, 624720, Note_on_c, 0, 79, 91
2, 624960, Note_on_c, 0, 79, 0
2, 624960, Control_c, 0, 64, 127
2, 624960, Note_on_c, 0, 87, 91
2, 624960, Note_on_c, 0, 92, 91
2, 625200, Note_on_c, 0, 92, 0
2, 625200, Note_on_c, 0, 87, 0
2, 625200, Note_on_c, 0, 80, 91
2, 625440, Note_on_c, 0, 80, 0
2, 625440, Note_on_c, 0, 87, 91
2, 625680, Note_on_c, 0, 87, 0
2, 625680, Note_on_c, 0, 80, 91
2, 625920, Note_on_c, 0, 80, 0
2, 625920, Note_on_c, 0, 87, 91
2, 625920, Note_on_c, 0, 92, 91
2, 626160, Note_on_c, 0, 92, 0
2, 626160, Note_on_c, 0, 87, 0
2, 626160, Control_c, 0, 64, 0
2, 626160, Note_on_c, 0, 80, 91
2, 626400, Note_on_c, 0, 80, 0
2, 626400, Control_c, 0, 64, 127
2, 626400, Note_on_c, 0, 85, 91
2, 626400, Note_on_c, 0, 89, 91
2, 626640, Note_on_c, 0, 89, 0
2, 626640, Note_on_c, 0, 85, 0
2, 626640, Note_on_c, 0, 77, 91
2, 626880, Note_on_c, 0, 77, 0
2, 626880, Note_on_c, 0, 85, 91
2, 627120, Note_on_c, 0, 85, 0
2, 627120, Note_on_c, 0, 77, 91
2, 627360, Note_on_c, 0, 77, 0
2, 627360, Note_on_c, 0, 85, 91
2, 627360, Note_on_c, 0, 89, 91
2, 627600, Note_on_c, 0, 89, 0
2, 627600, Note_on_c, 0, 85, 0
2, 627600, Control_c, 0, 64, 0
2, 627600, Note_on_c, 0, 77, 91
2, 627840, Note_on_c, 0, 77, 0
2, 627840, Control_c, 0, 64, 127
2, 627840, Note_on_c, 0, 85, 91
2, 627840, Note_on_c, 0, 90, 91
2, 628080, Note_on_c, 0, 90, 0
2, 628080, Note_on_c, 0, 85, 0
2, 628080, Note_on_c, 0, 78, 91
2, 628320, Note_on_c, 0, 78, 0
2, 628320, Note_on_c, 0, 85, 91
2, 628560, Note_on_c, 0, 85, 0
2, 628560, Note_on_c, 0, 78, 91
2, 628800, Note_on_c, 0, 78, 0
2, 628800, Note_on_c, 0, 85, 91
2, 628800, Note_on_c, 0, 90, 91
2, 629040, Note_on_c, 0, 90, 0
2, 629040, Note_on_c, 0, 85, 0
2, 629040, Control_c, 0, 64, 0
2, 629040, Note_on_c, 0, 78, 91
2, 629280, Note_on_c, 0, 78, 0
2, 629280, Control_c, 0, 64, 127
2, 629280, Note_on_c, 0, 83, 91
2, 629280, Note_on_c, 0, 87, 91
2, 629520, Note_on_c, 0, 87, 0
2, 629520, Note_on_c, 0, 83, 0
2, 629520, Note_on_c, 0, 75, 91
2, 629760, Note_on_c, 0, 75, 0
2, 629760, Note_on_c, 0, 83, 91
2, 630000, Note_on_c, 0, 83, 0
2, 630000, Note_on_c, 0, 75, 91
2, 630240, Note_on_c, 0, 75, 0
2, 630240, Note_on_c, 0, 83, 91
2, 630240, Note_on_c, 0, 87, 91
2, 630480, Note_on_c, 0, 87, 0
2, 630480, Note_on_c, 0, 83, 0
2, 630480, Control_c, 0, 64, 0
2, 630480, Note_on_c, 0, 75, 91
2, 630720, Note_on_c, 0, 75, 0
2, 630720, Control_c, 0, 64, 127
2, 630720, Note_on_c, 0, 83, 91
2, 630720, Note_on_c, 0, 88, 91
2, 630960, Note_on_c, 0, 88, 0
2, 630960, Note_on_c, 0, 83, 0
2, 630960, Note_on_c, 0, 76, 91
2, 631200, Note_on_c, 0, 76, 0
2, 631200, Note_on_c, 0, 83, 91
2, 631440, Note_on_c, 0, 83, 0
2, 631440, Note_on_c, 0, 76, 91
2, 631680, Note_on_c, 0, 76, 0
2, 631680, Note_on_c, 0, 83, 91
2, 631680, Note_on_c, 0, 88, 91
2, 631920, Note_on_c, 0, 88, 0
2, 631920, Note_on_c, 0, 83, 0
2, 631920, Control_c, 0, 64, 0
2, 631920, Note_on_c, 0, 76, 91
2, 632160, Note_on_c, 0, 76, 0
2, 632160, Control_c, 0, 64, 127
2, 632160, Note_on_c, 0, 81, 91
2, 632160, Note_on_c, 0, 85, 91
2, 632400, Note_on_c, 0, 85, 0
2, 632400, Note_on_c, 0, 81, 0
2, 632400, Note_on_c, 0, 73, 91
2, 632640, Note_on_c, 0, 73, 0
2, 632640, Note_on_c, 0, 81, 91
2, 632880, Note_on_c, 0, 81, 0
2, 632880, Note_on_c, 0, 73, 91
2, 633120, Note_on_c, 0, 73, 0
2, 633120, Note_on_c, 0, 81, 91
2, 633120, Note_on_c, 0, 85, 91
2, 633360, Note_on_c, 0, 85, 0
2, 633360, Note_on_c, 0, 81, 0
2, 633360, Control_c, 0, 64, 0
2, 633360, Note_on_c, 0, 73, 91
2, 633600, Note_on_c, 0, 73, 0
2, 633600, Control_c, 0, 64, 127
2, 633600, Note_on_c, 0, 81, 91
2, 633600, Note_on_c, 0, 86, 91
2, 633840, Note_on_c, 0, 86, 0
2, 633840, Note_on_c, 0, 81, 0
2, 633840, Note_on_c, 0, 74, 91
2, 634080, Note_on_c, 0, 74, 0
2, 634080, Note_on_c, 0, 81, 91
2, 634320, Note_on_c, 0, 81, 0
2, 634320, Note_on_c, 0, 74, 91
2, 634560, Note_on_c, 0, 74, 0
2, 634560, Note_on_c, 0, 81, 91
2, 634560, Note_on_c, 0, 86, 91
2, 634800, Note_on_c, 0, 86, 0
2, 634800, Note_on_c, 0, 81, 0
2, 634800, Control_c, 0, 64, 0
2, 634800, Note_on_c, 0, 74, 91
2, 635040, Note_on_c, 0, 74, 0
2, 635040, Control_c, 0, 64, 127
2, 635040, Note_on_c, 0, 81, 91
2, 635280, Note_on_c, 0, 81, 0
2, 635280, Note_on_c, 0, 74, 91
2, 635520, Note_on_c, 0, 74, 0
2, 635520, Note_on_c, 0, 81, 91
2, 635520, Note_on_c, 0, 86, 91
2, 635760, Note_on_c, 0, 86, 0
2, 635760, Note_on_c, 0, 81, 0
2, 635760, Note_on_c, 0, 74, 91
2, 636000, Note_on_c, 0, 74, 0
2, 636000, Note_on_c, 0, 81, 91
2, 636240, Note_on_c, 0, 81, 0
2, 636240, Control_c, 0, 64, 0
2, 636240, Note_on_c, 0, 74, 91
2, 636480, Note_on_c, 0, 74, 0
2, 636480, Control_c, 0, 64, 127
2, 636480, Note_on_c, 0, 81, 91
2, 636480, Note_on_c, 0, 87, 91
2, 636720, Note_on_c, 0, 87, 0
2, 636720, Note_on_c, 0, 81, 0
2, 636720, Note_on_c, 0, 75, 91
2, 636960, Note_on_c, 0, 75, 0
2, 636960, Note_on_c, 0, 81, 91
2, 637200, Note_on_c, 0, 81, 0
2, 637200, Note_on_c, 0, 75, 91
2, 637440, Note_on_c, 0, 75, 0
2, 637440, Note_on_c, 0, 81, 91
2, 637440, Note_on_c, 0, 87, 91
2, 637680, Note_on_c, 0, 87, 0
2, 637680, Note_on_c, 0, 81, 0
2, 637680, Note_on_c, 0, 75, 91
2, 637920, Note_on_c, 0, 75, 0
2, 637920, Note_on_c, 0, 81, 91
2, 638160, Note_on_c, 0, 81, 0
2, 638160, Note_on_c, 0, 75, 91
2, 638400, Note_on_c, 0, 75, 0
2, 638400, Note_on_c, 0, 81, 91
2, 638400, Note_on_c, 0, 87, 91
2, 638640, Note_on_c, 0, 87, 0
2, 638640, Note_on_c, 0, 81, 0
2, 638640, Note_on_c, 0, 75, 91
2, 638880, Note_on_c, 0, 75, 0
2, 638880, Note_on_c, 0, 81, 91
2, 639120, Note_on_c, 0, 81, 0
2, 639120, Control_c, 0, 64, 0
2, 639120, Note_on_c, 0, 75, 91
2, 639360, Note_on_c, 0, 75, 0
2, 639360, Control_c, 0, 64, 127
2, 639360, Note_on_c, 0, 81, 78
2, 639360, Note_on_c, 0, 88, 78
2, 639600, Note_on_c, 0, 88, 0
2, 639600, Note_on_c, 0, 81, 0
2, 639600, Note_on_c, 0, 76, 78
2, 639840, Note_on_c, 0, 76, 0
2, 639840, Note_on_c, 0, 81, 78
2, 639840, Note_on_c, 0, 88, 78
2, 640080, Note_on_c, 0, 88, 0
2, 640080, Note_on_c, 0, 81, 0
2, 640080, Note_on_c, 0, 76, 78
2, 640320, Note_on_c, 0, 76, 0
2, 640320, Note_on_c, 0, 81, 78
2, 640320, Note_on_c, 0, 88, 78
2, 640560, Note_on_c, 0, 88, 0
2, 640560, Note_on_c, 0, 81, 0
2, 640560, Note_on_c, 0, 76, 78
2, 640800, Note_on_c, 0, 76, 0
2, 640800, Note_on_c, 0, 81, 78
2, 640800, Note_on_c, 0, 88, 78
2, 641040, Note_on_c, 0, 88, 0
2, 641040, Note_on_c, 0, 81, 0
2, 641040, Note_on_c, 0, 76, 78
2, 641280, Note_on_c, 0, 76, 0
2, 641280, Note_on_c, 0, 81, 78
2, 641280, Note_on_c, 0, 88, 78
2, 641520, Note_on_c, 0, 88, 0
2, 641520, Note_on_c, 0, 81, 0
2, 641520, Note_on_c, 0, 76, 78
2, 641760, Note_on_c, 0, 76, 0
2, 641760, Note_on_c, 0, 81, 78
2, 641760, Note_on_c, 0, 88, 78
2, 642000, Note_on_c, 0, 88, 0
2, 642000, Note_on_c, 0, 81, 0
2, 642000, Control_c, 0, 64, 0
2, 642000, Note_on_c, 0, 76, 78
2, 642240, Note_on_c, 0, 76, 0
2, 642240, Control_c, 0, 64, 127
2, 642240, Note_on_c, 0, 80, 78
2, 642240, Note_on_c, 0, 88, 78
2, 642480, Note_on_c, 0, 88, 0
2, 642480, Note_on_c, 0, 80, 0
2, 642480, Note_on_c, 0, 76, 78
2, 642720, Note_on_c, 0, 76, 0
2, 642720, Note_on_c, 0, 80, 78
2, 642720, Note_on_c, 0, 88, 78
2, 642960, Note_on_c, 0, 88, 0
2, 642960, Note_on_c, 0, 80, 0
2, 642960, Note_on_c, 0, 76, 78
2, 643200, Note_on_c, 0, 76, 0
2, 643200, Note_on_c, 0, 80, 78
2, 643200, Note_on_c, 0, 88, 78
2, 643440, Note_on_c, 0, 88, 0
2, 643440, Note_on_c, 0, 80, 0
2, 643440, Note_on_c, 0, 76, 78
2, 643680, Note_on_c, 0, 76, 0
2, 643680, Note_on_c, 0, 80, 78
2, 643680, Note_on_c, 0, 88, 78
2, 643920, Note_on_c, 0, 88, 0
2, 643920, Note_on_c, 0, 80, 0
2, 643920, Note_on_c, 0, 76, 78
2, 644160, Note_on_c, 0, 76, 0
2, 644160, Note_on_c, 0, 80, 78
2, 644160, Note_on_c, 0, 88, 78
2, 644400, Note_on_c, 0, 88, 0
2, 644400, Note_on_c, 0, 80, 0
2, 644400, Note_on_c, 0, 76, 78
2, 644640, Note_on_c, 0, 76, 0
2, 644640, Note_on_c, 0, 80, 78
2, 644640, Note_on_c, 0, 88, 78
2, 644880, Note_on_c, 0, 88, 0
2, 644880, Note_on_c, 0, 80, 0
2, 644880, Control_c, 0, 64, 0
2, 644880, Note_on_c, 0, 76, 78
2, 645120, Note_on_c, 0, 76, 0
2, 645120, Control_c, 0, 64, 127
2, 645120, Note_on_c, 0, 83, 78
2, 645120, Note_on_c, 0, 90, 78
2, 645360, Note_on_c, 0, 90, 0
2, 645360, Note_on_c, 0, 83, 0
2, 645360, Note_on_c, 0, 78, 78
2, 645600, Note_on_c, 0, 78, 0
2, 645600, Note_on_c, 0, 83, 78
2, 645600, Note_on_c, 0, 90, 78
2, 645840, Note_on_c, 0, 90, 0
2, 645840, Note_on_c, 0, 83, 0
2, 645840, Note_on_c, 0, 78, 78
2, 646080, Note_on_c, 0, 78, 0
2, 646080, Note_on_c, 0, 83, 78
2, 646080, Note_on_c, 0, 90, 78
2, 646320, Note_on_c, 0, 90, 0
2, 646320, Note_on_c, 0, 83, 0
2, 646320, Note_on_c, 0, 78, 78
2, 646560, Note_on_c, 0, 78, 0
2, 646560, Note_on_c, 0, 83, 78
2, 646560, Note_on_c, 0, 90, 78
2, 646800, Note_on_c, 0, 90, 0
2, 646800, Note_on_c, 0, 83, 0
2, 646800, Note_on_c, 0, 78, 78
2, 647040, Note_on_c, 0, 78, 0
2, 647040, Note_on_c, 0, 83, 78
2, 647040, Note_on_c, 0, 90, 78
2, 647280, Note_on_c, 0, 90, 0
2, 647280, Note_on_c, 0, 83, 0
2, 647280, Note_on_c, 0, 78, 78
2, 647520, Note_on_c, 0, 78, 0
2, 647520, Note_on_c, 0, 83, 78
2, 647520, Note_on_c, 0, 90, 78
2, 647760, Note_on_c, 0, 90, 0
2, 647760, Note_on_c, 0, 83, 0
2, 647760, Control_c, 0, 64, 0
2, 647760, Note_on_c, 0, 78, 78
2, 648000, Note_on_c, 0, 78, 0
2, 648000, Control_c, 0, 64, 127
2, 648000, Note_on_c, 0, 82, 78
2, 648000, Note_on_c, 0, 90, 78
2, 648240, Note_on_c, 0, 90, 0
2, 648240, Note_on_c, 0, 82, 0
2, 648240, Note_on_c, 0, 78, 78
2, 648480, Note_on_c, 0, 78, 0
2, 648480, Note_on_c, 0, 82, 78
2, 648480, Note_on_c, 0, 90, 78
2, 648720, Note_on_c, 0, 90, 0
2, 648720, Note_on_c, 0, 82, 0
2, 648720, Note_on_c, 0, 78, 78
2, 648960, Note_on_c, 0, 78, 0
2, 648960, Note_on_c, 0, 82, 78
2, 648960, Note_on_c, 0, 90, 78
2, 649200, Note_on_c, 0, 90, 0
2, 649200, Note_on_c, 0, 82, 0
2, 649200, Control_c, 0, 64, 0
2, 649200, Note_on_c, 0, 78, 78
2, 649440, Note_on_c, 0, 78, 0
2, 649440, Control_c, 0, 64, 127
2, 649440, Note_on_c, 0, 82, 78
2, 649440, Note_on_c, 0, 90, 78
2, 649680, Note_on_c, 0, 90, 0
2, 649680, Note_on_c, 0, 82, 0
2, 649680, Note_on_c, 0, 78, 78
2, 649920, Note_on_c, 0, 78, 0
2, 649920, Note_on_c, 0, 82, 78
2, 649920, Note_on_c, 0, 90, 78
2, 650160, Note_on_c, 0, 90, 0
2, 650160, Note_on_c, 0, 82, 0
2, 650160, Note_on_c, 0, 78, 78
2, 650400, Note_on_c, 0, 78, 0
2, 650400, Note_on_c, 0, 82, 78
2, 650400, Note_on_c, 0, 90, 78
2, 650640, Note_on_c, 0, 90, 0
2, 650640, Note_on_c, 0, 82, 0
2, 650640, Control_c, 0, 64, 0
2, 650640, Note_on_c, 0, 78, 78
2, 650880, Note_on_c, 0, 78, 0
2, 650880, Control_c, 0, 64, 127
2, 650880, Note_on_c, 0, 85, 78
2, 650880, Note_on_c, 0, 92, 78
2, 651120, Note_on_c, 0, 92, 0
2, 651120, Note_on_c, 0, 85, 0
2, 651120, Note_on_c, 0, 80, 78
2, 651360, Note_on_c, 0, 80, 0
2, 651360, Note_on_c, 0, 85, 78
2, 651360, Note_on_c, 0, 92, 78
2, 651600, Note_on_c, 0, 92, 0
2, 651600, Note_on_c, 0, 85, 0
2, 651600, Note_on_c, 0, 80, 78
2, 651840, Note_on_c, 0, 80, 0
2, 651840, Note_on_c, 0, 85, 78
2, 651840, Note_on_c, 0, 92, 78
2, 652080, Note_on_c, 0, 92, 0
2, 652080, Note_on_c, 0, 85, 0
2, 652080, Note_on_c, 0, 80, 78
2, 652320, Note_on_c, 0, 80, 0
2, 652320, Note_on_c, 0, 85, 78
2, 652320, Note_on_c, 0, 92, 78
2, 652560, Note_on_c, 0, 92, 0
2, 652560, Note_on_c, 0, 85, 0
2, 652560, Note_on_c, 0, 80, 78
2, 652800, Note_on_c, 0, 80, 0
2, 652800, Note_on_c, 0, 85, 78
2, 652800, Note_on_c, 0, 92, 78
2, 653040, Note_on_c, 0, 92, 0
2, 653040, Note_on_c, 0, 85, 0
2, 653040, Note_on_c, 0, 80, 78
2, 653280, Note_on_c, 0, 80, 0
2, 653280, Note_on_c, 0, 85, 78
2, 653280, Note_on_c, 0, 92, 78
2, 653520, Note_on_c, 0, 92, 0
2, 653520, Note_on_c, 0, 85, 0
2, 653520, Control_c, 0, 64, 0
2, 653520, Note_on_c, 0, 80, 78
2, 653760, Note_on_c, 0, 80, 0
2, 653760, Control_c, 0, 64, 127
2, 653760, Note_on_c, 0, 83, 78
2, 653760, Note_on_c, 0, 92, 78
2, 654000, Note_on_c, 0, 92, 0
2, 654000, Note_on_c, 0, 83, 0
2, 654000, Note_on_c, 0, 80, 78
2, 654240, Note_on_c, 0, 80, 0
2, 654240, Note_on_c, 0, 83, 78
2, 654240, Note_on_c, 0, 92, 78
2, 654480, Note_on_c, 0, 92, 0
2, 654480, Note_on_c, 0, 83, 0
2, 654480, Note_on_c, 0, 80, 78
2, 654720, Note_on_c, 0, 80, 0
2, 654720, Note_on_c, 0, 83, 78
2, 654720, Note_on_c, 0, 92, 78
2, 654960, Note_on_c, 0, 92, 0
2, 654960, Note_on_c, 0, 83, 0
2, 654960, Note_on_c, 0, 80, 78
2, 655200, Note_on_c, 0, 80, 0
2, 655200, Note_on_c, 0, 83, 78
2, 655200, Note_on_c, 0, 92, 78
2, 655440, Note_on_c, 0, 92, 0
2, 655440, Note_on_c, 0, 83, 0
2, 655440, Note_on_c, 0, 80, 78
2, 655680, Note_on_c, 0, 80, 0
2, 655680, Note_on_c, 0, 83, 78
2, 655680, Note_on_c, 0, 92, 78
2, 655920, Note_on_c, 0, 92, 0
2, 655920, Note_on_c, 0, 83, 0
2, 655920, Note_on_c, 0, 80, 78
2, 656160, Note_on_c, 0, 80, 0
2, 656160, Note_on_c, 0, 83, 78
2, 656160, Note_on_c, 0, 92, 78
2, 656400, Note_on_c, 0, 92, 0
2, 656400, Note_on_c, 0, 83, 0
2, 656400, Control_c, 0, 64, 0
2, 656400, Note_on_c, 0, 80, 78
2, 656640, Note_on_c, 0, 80, 0
2, 656640, Control_c, 0, 64, 127
2, 656640, Note_on_c, 0, 85, 78
2, 656640, Note_on_c, 0, 88, 78
2, 656640, Note_on_c, 0, 93, 78
2, 656880, Note_on_c, 0, 93, 0
2, 656880, Note_on_c, 0, 88, 0
2, 656880, Note_on_c, 0, 85, 0
2, 656880, Note_on_c, 0, 81, 78
2, 657120, Note_on_c, 0, 81, 0
2, 657120, Note_on_c, 0, 85, 78
2, 657120, Note_on_c, 0, 88, 78
2, 657120, Note_on_c, 0, 93, 78
2, 657360, Note_on_c, 0, 93, 0
2, 657360, Note_on_c, 0, 88, 0
2, 657360, Note_on_c, 0, 85, 0
2, 657360, Note_on_c, 0, 81, 78
2, 657600, Note_on_c, 0, 81, 0
2, 657600, Note_on_c, 0, 85, 78
2, 657600, Note_on_c, 0, 88, 78
2, 657600, Note_on_c, 0, 93, 78
2, 657840, Note_on_c, 0, 93, 0
2, 657840, Note_on_c, 0, 88, 0
2, 657840, Note_on_c, 0, 85, 0
2, 657840, Note_on_c, 0, 81, 78
2, 658080, Note_on_c, 0, 81, 0
2, 658080, Note_on_c, 0, 88, 78
2, 658080, Note_on_c, 0, 93, 78
2, 658320, Note_on_c, 0, 93, 0
2, 658320, Note_on_c, 0, 88, 0
2, 658320, Note_on_c, 0, 81, 78
2, 658560, Note_on_c, 0, 81, 0
2, 658560, Note_on_c, 0, 88, 78
2, 658560, Note_on_c, 0, 93, 78
2, 658800, Note_on_c, 0, 93, 0
2, 658800, Note_on_c, 0, 88, 0
2, 658800, Note_on_c, 0, 81, 78
2, 659040, Note_on_c, 0, 81, 0
2, 659040, Note_on_c, 0, 88, 78
2, 659040, Note_on_c, 0, 93, 78
2, 659280, Note_on_c, 0, 93, 0
2, 659280, Note_on_c, 0, 88, 0
2, 659280, Control_c, 0, 64, 0
2, 659280, Note_on_c, 0, 81, 78
2, 659520, Note_on_c, 0, 81, 0
2, 659520, Control_c, 0, 64, 127
2, 659520, Note_on_c, 0, 89, 78
2, 659520, Note_on_c, 0, 93, 78
2, 659760, Note_on_c, 0, 93, 0
2, 659760, Note_on_c, 0, 89, 0
2, 659760, Note_on_c, 0, 81, 78
2, 660000, Note_on_c, 0, 81, 0
2, 660000, Note_on_c, 0, 89, 78
2, 660000, Note_on_c, 0, 93, 78
2, 660240, Note_on_c, 0, 93, 0
2, 660240, Note_on_c, 0, 89, 0
2, 660240, Note_on_c, 0, 81, 78
2, 660480, Note_on_c, 0, 81, 0
2, 660480, Note_on_c, 0, 89, 78
2, 660480, Note_on_c, 0, 93, 78
2, 660720, Note_on_c, 0, 93, 0
2, 660720, Note_on_c, 0, 89, 0
2, 660720, Note_on_c, 0, 81, 78
2, 660960, Note_on_c, 0, 81, 0
2, 660960, Note_on_c, 0, 89, 78
2, 660960, Note_on_c, 0, 93, 78
2, 661200, Note_on_c, 0, 93, 0
2, 661200, Note_on_c, 0, 89, 0
2, 661200, Note_on_c, 0, 81, 78
2, 661440, Note_on_c, 0, 81, 0
2, 661440, Note_on_c, 0, 89, 78
2, 661440, Note_on_c, 0, 93, 78
2, 661680, Note_on_c, 0, 93, 0
2, 661680, Note_on_c, 0, 89, 0
2, 661680, Note_on_c, 0, 81, 78
2, 661920, Note_on_c, 0, 81, 0
2, 661920, Note_on_c, 0, 89, 78
2, 661920, Note_on_c, 0, 93, 78
2, 662160, Note_on_c, 0, 93, 0
2, 662160, Note_on_c, 0, 89, 0
2, 662160, Control_c, 0, 64, 0
2, 662160, Note_on_c, 0, 81, 78
2, 662400, Note_on_c, 0, 81, 0
2, 662400, Control_c, 0, 64, 127
2, 662400, Note_on_c, 0, 89, 78
2, 662400, Note_on_c, 0, 94, 78
2, 662640, Note_on_c, 0, 94, 0
2, 662640, Note_on_c, 0, 89, 0
2, 662640, Note_on_c, 0, 82, 78
2, 662880, Note_on_c, 0, 82, 0
2, 662880, Note_on_c, 0, 89, 78
2, 662880, Note_on_c, 0, 94, 78
2, 663120, Note_on_c, 0, 94, 0
2, 663120, Note_on_c, 0, 89, 0
2, 663120, Note_on_c, 0, 82, 78
2, 663360, Note_on_c, 0, 82, 0
2, 663360, Note_on_c, 0, 89, 78
2, 663360, Note_on_c, 0, 94, 78
2, 663600, Note_on_c, 0, 94, 0
2, 663600, Note_on_c, 0, 89, 0
2, 663600, Control_c, 0, 64, 0
2, 663600, Note_on_c, 0, 82, 78
2, 663840, Note_on_c, 0, 82, 0
2, 663840, Control_c, 0, 64, 127
2, 663840, Note_on_c, 0, 83, 91
2, 663840, Note_on_c, 0, 88, 91
2, 663840, Note_on_c, 0, 92, 91
2, 664080, Note_on_c, 0, 92, 0
2, 664080, Note_on_c, 0, 88, 0
2, 664080, Note_on_c, 0, 83, 0
2, 664080, Note_on_c, 0, 80, 91
2, 664320, Note_on_c, 0, 80, 0
2, 664320, Note_on_c, 0, 83, 91
2, 664320, Note_on_c, 0, 88, 91
2, 664320, Note_on_c, 0, 92, 91
2, 664560, Note_on_c, 0, 92, 0
2, 664560, Note_on_c, 0, 88, 0
2, 664560, Note_on_c, 0, 83, 0
2, 664560, Note_on_c, 0, 80, 91
2, 664800, Note_on_c, 0, 80, 0
2, 664800, Note_on_c, 0, 83, 91
2, 664800, Note_on_c, 0, 88, 91
2, 664800, Note_on_c, 0, 92, 91
2, 665040, Note_on_c, 0, 92, 0
2, 665040, Note_on_c, 0, 88, 0
2, 665040, Note_on_c, 0, 83, 0
2, 665040, Control_c, 0, 64, 0
2, 665040, Note_on_c, 0, 80, 91
2, 665280, Note_on_c, 0, 80, 0
2, 665280, Control_c, 0, 64, 127
2, 665280, Note_on_c, 0, 85, 91
2, 665280, Note_on_c, 0, 88, 91
2, 665280, Note_on_c, 0, 93, 91
2, 665520, Note_on_c, 0, 93, 0
2, 665520, Note_on_c, 0, 88, 0
2, 665520, Note_on_c, 0, 85, 0
2, 665520, Note_on_c, 0, 81, 91
2, 665760, Note_on_c, 0, 81, 0
2, 665760, Note_on_c, 0, 85, 91
2, 665760, Note_on_c, 0, 88, 91
2, 665760, Note_on_c, 0, 93, 91
2, 666000, Note_on_c, 0, 93, 0
2, 666000, Note_on_c, 0, 88, 0
2, 666000, Note_on_c, 0, 85, 0
2, 666000, Note_on_c, 0, 81, 91
2, 666240, Note_on_c, 0, 81, 0
2, 666240, Note_on_c, 0, 85, 91
2, 666240, Note_on_c, 0, 88, 91
2, 666240, Note_on_c, 0, 93, 91
2, 666480, Note_on_c, 0, 93, 0
2, 666480, Note_on_c, 0, 88, 0
2, 666480, Note_on_c, 0, 85, 0
2, 666480, Control_c, 0, 64, 0
2, 666480, Note_on_c, 0, 81, 91
2, 666720, Note_on_c, 0, 81, 0
2, 666720, Note_on_c, 0, 78, 91
2, 666720, Note_on_c, 0, 83, 91
2, 666720, Note_on_c, 0, 86, 91
2, 666960, Note_on_c, 0, 86, 0
2, 666960, Note_on_c, 0, 83, 0
2, 666960, Note_on_c, 0, 78, 0
2, 666960, Note_on_c, 0, 74, 91
2, 667200, Note_on_c, 0, 74, 0
2, 667200, Note_on_c, 0, 78, 91
2, 667200, Note_on_c, 0, 82, 91
2, 667200, Note_on_c, 0, 85, 91
2, 667440, Note_on_c, 0, 85, 0
2, 667440, Note_on_c, 0, 82, 0
2, 667440, Note_on_c, 0, 78, 0
2, 667440, Note_on_c, 0, 73, 91
2, 667680, Note_on_c, 0, 73, 0
2, 667680, Note_on_c, 0, 78, 91
2, 667680, Note_on_c, 0, 83, 91
2, 667920, Note_on_c, 0, 83, 0
2, 667920, Note_on_c, 0, 78, 0
2, 667920, Note_on_c, 0, 71, 91
2, 668160, Note_on_c, 0, 71, 0
2, 668160, Control_c, 0, 64, 127
2, 668160, Note_on_c, 0, 81, 91
2, 668160, Note_on_c, 0, 85, 91
2, 668160, Note_on_c, 0, 88, 91
2, 668400, Note_on_c, 0, 88, 0
2, 668400, Note_on_c, 0, 85, 0
2, 668400, Note_on_c, 0, 81, 0
2, 668400, Note_on_c, 0, 76, 91
2, 668640, Note_on_c, 0, 76, 0
2, 668640, Note_on_c, 0, 81, 91
2, 668640, Note_on_c, 0, 85, 91
2, 668640, Note_on_c, 0, 88, 91
2, 668880, Note_on_c, 0, 88, 0
2, 668880, Note_on_c, 0, 85, 0
2, 668880, Note_on_c, 0, 81, 0
2, 668880, Note_on_c, 0, 76, 91
2, 669120, Note_on_c, 0, 76, 0
2, 669120, Note_on_c, 0, 81, 91
2, 669120, Note_on_c, 0, 85, 91
2, 669120, Note_on_c, 0, 88, 91
2, 669360, Note_on_c, 0, 88, 0
2, 669360, Note_on_c, 0, 85, 0
2, 669360, Note_on_c, 0, 81, 0
2, 669360, Control_c, 0, 64, 0
2, 669360, Note_on_c, 0, 76, 91
2, 669600, Note_on_c, 0, 76, 0
2, 669600, Control_c, 0, 64, 127
2, 669600, Note_on_c, 0, 80, 91
2, 669600, Note_on_c, 0, 83, 91
2, 669600, Note_on_c, 0, 88, 91
2, 669840, Note_on_c, 0, 88, 0
2, 669840, Note_on_c, 0, 83, 0
2, 669840, Note_on_c, 0, 80, 0
2, 669840, Note_on_c, 0, 76, 91
2, 670080, Note_on_c, 0, 76, 0
2, 670080, Note_on_c, 0, 80, 91
2, 670080, Note_on_c, 0, 83, 91
2, 670080, Note_on_c, 0, 88, 91
2, 670320, Note_on_c, 0, 88, 0
2, 670320, Note_on_c, 0, 83, 0
2, 670320, Note_on_c, 0, 80, 0
2, 670320, Note_on_c, 0, 76, 91
2, 670560, Note_on_c, 0, 76, 0
2, 670560, Note_on_c, 0, 80, 91
2, 670560, Note_on_c, 0, 83, 91
2, 670560, Note_on_c, 0, 88, 91
2, 670800, Note_on_c, 0, 88, 0
2, 670800, Note_on_c, 0, 83, 0
2, 670800, Note_on_c, 0, 80, 0
2, 670800, Control_c, 0, 64, 0
2, 670800, Note_on_c, 0, 76, 91
2, 671040, Note_on_c, 0, 76, 0
2, 671040, Note_on_c, 0, 81, 91
2, 671040, Note_on_c, 0, 85, 91
2, 671040, Note_on_c, 0, 88, 91
2, 671280, Note_on_c, 0, 88, 0
2, 671280, Note_on_c, 0, 85, 0
2, 671280, Note_on_c, 0, 81, 0
2, 671280, Note_on_c, 0, 76, 91
2, 671520, Note_on_c, 0, 76, 0
2, 671520, Note_on_c, 0, 81, 91
2, 671520, Note_on_c, 0, 85, 91
2, 671520, Note_on_c, 0, 88, 91
2, 671760, Note_on_c, 0, 88, 0
2, 671760, Note_on_c, 0, 85, 0
2, 671760, Note_on_c, 0, 81, 0
2, 671760, Note_on_c, 0, 76, 91
2, 672000, Note_on_c, 0, 76, 0
2, 672000, Note_on_c, 0, 80, 91
2, 672000, Note_on_c, 0, 83, 91
2, 672000, Note_on_c, 0, 88, 91
2, 672240, Note_on_c, 0, 88, 0
2, 672240, Note_on_c, 0, 83, 0
2, 672240, Note_on_c, 0, 80, 0
2, 672240, Note_on_c, 0, 76, 91
2, 672480, Note_on_c, 0, 76, 0
2, 672480, Note_on_c, 0, 81, 91
2, 672480, Note_on_c, 0, 85, 91
2, 672480, Note_on_c, 0, 88, 91
2, 672720, Note_on_c, 0, 88, 0
2, 672720, Note_on_c, 0, 85, 0
2, 672720, Note_on_c, 0, 81, 0
2, 672720, Note_on_c, 0, 76, 91
2, 672960, Note_on_c, 0, 76, 0
2, 672960, Note_on_c, 0, 81, 91
2, 672960, Note_on_c, 0, 85, 91
2, 672960, Note_on_c, 0, 88, 91
2, 673200, Note_on_c, 0, 88, 0
2, 673200, Note_on_c, 0, 85, 0
2, 673200, Note_on_c, 0, 81, 0
2, 673200, Note_on_c, 0, 76, 91
2, 673440, Note_on_c, 0, 76, 0
2, 673440, Note_on_c, 0, 80, 91
2, 673440, Note_on_c, 0, 83, 91
2, 673440, Note_on_c, 0, 88, 91
2, 673680, Note_on_c, 0, 88, 0
2, 673680, Note_on_c, 0, 83, 0
2, 673680, Note_on_c, 0, 80, 0
2, 673680, Note_on_c, 0, 76, 91
2, 673920, Note_on_c, 0, 76, 0
2, 673920, Note_on_c, 0, 81, 91
2, 673920, Note_on_c, 0, 85, 91
2, 673920, Note_on_c, 0, 88, 91
2, 674160, Note_on_c, 0, 88, 0
2, 674160, Note_on_c, 0, 85, 0
2, 674160, Note_on_c, 0, 81, 0
2, 674160, Note_on_c, 0, 76, 91
2, 674400, Note_on_c, 0, 76, 0
2, 674400, Note_on_c, 0, 81, 91
2, 674400, Note_on_c, 0, 85, 91
2, 674400, Note_on_c, 0, 88, 91
2, 674640, Note_on_c, 0, 88, 0
2, 674640, Note_on_c, 0, 85, 0
2, 674640, Note_on_c, 0, 81, 0
2, 674640, Note_on_c, 0, 76, 91
2, 674880, Note_on_c, 0, 76, 0
2, 674880, Note_on_c, 0, 80, 91
2, 674880, Note_on_c, 0, 83, 91
2, 674880, Note_on_c, 0, 88, 91
2, 675120, Note_on_c, 0, 88, 0
2, 675120, Note_on_c, 0, 83, 0
2, 675120, Note_on_c, 0, 80, 0
2, 675120, Note_on_c, 0, 76, 91
2, 675360, Note_on_c, 0, 76, 0
2, 675360, Note_on_c, 0, 81, 91
2, 675360, Note_on_c, 0, 85, 91
2, 675360, Note_on_c, 0, 88, 91
2, 675600, Note_on_c, 0, 88, 0
2, 675600, Note_on_c, 0, 85, 0
2, 675600, Note_on_c, 0, 81, 0
2, 675600, Note_on_c, 0, 76, 91
2, 675840, Note_on_c, 0, 76, 0
2, 675840, Note_on_c, 0, 81, 91
2, 675840, Note_on_c, 0, 85, 91
2, 675840, Note_on_c, 0, 88, 91
2, 676080, Note_on_c, 0, 88, 0
2, 676080, Note_on_c, 0, 85, 0
2, 676080, Note_on_c, 0, 81, 0
2, 676080, Note_on_c, 0, 76, 91
2, 676320, Note_on_c, 0, 76, 0
2, 676320, Note_on_c, 0, 80, 91
2, 676320, Note_on_c, 0, 83, 91
2, 676320, Note_on_c, 0, 88, 91
2, 676560, Note_on_c, 0, 88, 0
2, 676560, Note_on_c, 0, 83, 0
2, 676560, Note_on_c, 0, 80, 0
2, 676560, Note_on_c, 0, 76, 91
2, 676800, Note_on_c, 0, 76, 0
2, 676800, Note_on_c, 0, 81, 91
2, 676800, Note_on_c, 0, 85, 91
2, 676800, Note_on_c, 0, 88, 91
2, 677040, Note_on_c, 0, 88, 0
2, 677040, Note_on_c, 0, 85, 0
2, 677040, Note_on_c, 0, 81, 0
2, 677040, Note_on_c, 0, 76, 91
2, 677280, Note_on_c, 0, 76, 0
2, 677280, Note_on_c, 0, 81, 91
2, 677280, Note_on_c, 0, 85, 91
2, 677280, Note_on_c, 0, 88, 91
2, 677520, Note_on_c, 0, 88, 0
2, 677520, Note_on_c, 0, 85, 0
2, 677520, Note_on_c, 0, 81, 0
2, 677520, Note_on_c, 0, 76, 91
2, 677760, Note_on_c, 0, 76, 0
2, 677760, Note_on_c, 0, 80, 91
2, 677760, Note_on_c, 0, 83, 91
2, 677760, Note_on_c, 0, 88, 91
2, 678000, Note_on_c, 0, 88, 0
2, 678000, Note_on_c, 0, 83, 0
2, 678000, Note_on_c, 0, 80, 0
2, 678000, Note_on_c, 0, 76, 91
2, 678240, Note_on_c, 0, 76, 0
2, 678240, Note_on_c, 0, 81, 91
2, 678240, Note_on_c, 0, 85, 91
2, 678240, Note_on_c, 0, 88, 91
2, 678480, Note_on_c, 0, 88, 0
2, 678480, Note_on_c, 0, 85, 0
2, 678480, Note_on_c, 0, 81, 0
2, 678480, Note_on_c, 0, 76, 91
2, 678720, Note_on_c, 0, 76, 0
2, 678720, Note_on_c, 0, 81, 91
2, 678720, Note_on_c, 0, 85, 91
2, 678720, Note_on_c, 0, 88, 91
2, 678960, Note_on_c, 0, 88, 0
2, 678960, Note_on_c, 0, 85, 0
2, 678960, Note_on_c, 0, 81, 0
2, 678960, Note_on_c, 0, 76, 91
2, 679200, Note_on_c, 0, 76, 0
2, 679200, Note_on_c, 0, 80, 91
2, 679200, Note_on_c, 0, 83, 91
2, 679200, Note_on_c, 0, 88, 91
2, 679440, Note_on_c, 0, 88, 0
2, 679440, Note_on_c, 0, 83, 0
2, 679440, Note_on_c, 0, 80, 0
2, 679440, Note_on_c, 0, 76, 91
2, 679680, Note_on_c, 0, 76, 0
2, 679680, Note_on_c, 0, 81, 91
2, 679680, Note_on_c, 0, 85, 91
2, 679680, Note_on_c, 0, 88, 91
2, 679920, Note_on_c, 0, 88, 0
2, 679920, Note_on_c, 0, 85, 0
2, 679920, Note_on_c, 0, 81, 0
2, 679920, Note_on_c, 0, 76, 91
2, 680160, Note_on_c, 0, 76, 0
2, 680160, Note_on_c, 0, 81, 91
2, 680160, Note_on_c, 0, 85, 91
2, 680160, Note_on_c, 0, 88, 91
2, 680400, Note_on_c, 0, 88, 0
2, 680400, Note_on_c, 0, 85, 0
2, 680400, Note_on_c, 0, 81, 0
2, 680400, Note_on_c, 0, 76, 91
2, 680640, Note_on_c, 0, 76, 0
2, 680640, Note_on_c, 0, 80, 91
2, 680640, Note_on_c, 0, 83, 91
2, 680640, Note_on_c, 0, 88, 91
2, 680880, Note_on_c, 0, 88, 0
2, 680880, Note_on_c, 0, 83, 0
2, 680880, Note_on_c, 0, 80, 0
2, 680880, Note_on_c, 0, 76, 91
2, 681120, Note_on_c, 0, 76, 0
2, 681120, Note_on_c, 0, 81, 91
2, 681120, Note_on_c, 0, 85, 91
2, 681120, Note_on_c, 0, 88, 91
2, 681360, Note_on_c, 0, 88, 0
2, 681360, Note_on_c, 0, 85, 0
2, 681360, Note_on_c, 0, 81, 0
2, 681360, Note_on_c, 0, 76, 91
2, 681600, Note_on_c, 0, 76, 0
2, 681600, Note_on_c, 0, 81, 91
2, 681600, Note_on_c, 0, 85, 91
2, 681600, Note_on_c, 0, 88, 91
2, 681840, Note_on_c, 0, 88, 0
2, 681840, Note_on_c, 0, 85, 0
2, 681840, Note_on_c, 0, 81, 0
2, 681840, Note_on_c, 0, 76, 91
2, 682080, Note_on_c, 0, 76, 0
2, 682080, Note_on_c, 0, 80, 91
2, 682080, Note_on_c, 0, 83, 91
2, 682080, Note_on_c, 0, 88, 91
2, 682320, Note_on_c, 0, 88, 0
2, 682320, Note_on_c, 0, 83, 0
2, 682320, Note_on_c, 0, 80, 0
2, 682320, Note_on_c, 0, 76, 91
2, 682560, Note_on_c, 0, 76, 0
2, 682560, Control_c, 0, 64, 127
2, 682560, Note_on_c, 0, 85, 78
2, 682560, Note_on_c, 0, 88, 78
2, 682560, Note_on_c, 0, 93, 78
2, 682800, Note_on_c, 0, 93, 0
2, 682800, Note_on_c, 0, 88, 0
2, 682800, Note_on_c, 0, 85, 0
2, 682800, Note_on_c, 0, 81, 78
2, 683040, Note_on_c, 0, 81, 0
2, 683040, Note_on_c, 0, 85, 78
2, 683040, Note_on_c, 0, 88, 78
2, 683040, Note_on_c, 0, 93, 78
2, 683280, Note_on_c, 0, 93, 0
2, 683280, Note_on_c, 0, 88, 0
2, 683280, Note_on_c, 0, 85, 0
2, 683280, Note_on_c, 0, 81, 78
2, 683520, Note_on_c, 0, 81, 0
2, 683520, Note_on_c, 0, 85, 78
2, 683520, Note_on_c, 0, 88, 78
2, 683520, Note_on_c, 0, 93, 78
2, 683760, Note_on_c, 0, 93, 0
2, 683760, Note_on_c, 0, 88, 0
2, 683760, Note_on_c, 0, 85, 0
2, 683760, Note_on_c, 0, 81, 78
2, 684000, Note_on_c, 0, 81, 0
2, 684000, Note_on_c, 0, 85, 78
2, 684000, Note_on_c, 0, 88, 78
2, 684000, Note_on_c, 0, 93, 78
2, 684240, Note_on_c, 0, 93, 0
2, 684240, Note_on_c, 0, 88, 0
2, 684240, Note_on_c, 0, 85, 0
2, 684240, Note_on_c, 0, 81, 78
2, 684480, Note_on_c, 0, 81, 0
2, 684480, Note_on_c, 0, 85, 78
2, 684480, Note_on_c, 0, 88, 78
2, 684480, Note_on_c, 0, 93, 78
2, 684720, Note_on_c, 0, 93, 0
2, 684720, Note_on_c, 0, 88, 0
2, 684720, Note_on_c, 0, 85, 0
2, 684720, Note_on_c, 0, 81, 78
2, 684960, Note_on_c, 0, 81, 0
2, 684960, Note_on_c, 0, 85, 78
2, 684960, Note_on_c, 0, 88, 78
2, 684960, Note_on_c, 0, 93, 78
2, 685200, Note_on_c, 0, 93, 0
2, 685200, Note_on_c, 0, 88, 0
2, 685200, Note_on_c, 0, 85, 0
2, 685200, Note_on_c, 0, 81, 78
2, 685440, Note_on_c, 0, 81, 0
2, 685440, Note_on_c, 0, 85, 78
2, 685440, Note_on_c, 0, 88, 78
2, 685440, Note_on_c, 0, 93, 78
2, 685680, Note_on_c, 0, 93, 0
2, 685680, Note_on_c, 0, 88, 0
2, 685680, Note_on_c, 0, 85, 0
2, 685680, Note_on_c, 0, 81, 78
2, 685920, Note_on_c, 0, 81, 0
2, 685920, Note_on_c, 0, 85, 78
2, 685920, Note_on_c, 0, 88, 78
2, 685920, Note_on_c, 0, 93, 78
2, 686160, Note_on_c, 0, 93, 0
2, 686160, Note_on_c, 0, 88, 0
2, 686160, Note_on_c, 0, 85, 0
2, 686160, Note_on_c, 0, 81, 78
2, 686400, Note_on_c, 0, 81, 0
2, 686400, Note_on_c, 0, 85, 78
2, 686400, Note_on_c, 0, 88, 78
2, 686400, Note_on_c, 0, 93, 78
2, 686640, Note_on_c, 0, 93, 0
2, 686640, Note_on_c, 0, 88, 0
2, 686640, Note_on_c, 0, 85, 0
2, 686640, Note_on_c, 0, 81, 78
2, 686880, Note_on_c, 0, 81, 0
2, 686880, Note_on_c, 0, 85, 78
2, 686880, Note_on_c, 0, 88, 78
2, 686880, Note_on_c, 0, 93, 78
2, 687120, Note_on_c, 0, 93, 0
2, 687120, Note_on_c, 0, 88, 0
2, 687120, Note_on_c, 0, 85, 0
2, 687120, Note_on_c, 0, 81, 78
2, 687360, Note_on_c, 0, 81, 0
2, 687360, Note_on_c, 0, 85, 78
2, 687360, Note_on_c, 0, 88, 78
2, 687360, Note_on_c, 0, 93, 78
2, 687600, Note_on_c, 0, 93, 0
2, 687600, Note_on_c, 0, 88, 0
2, 687600, Note_on_c, 0, 85, 0
2, 687600, Note_on_c, 0, 81, 78
2, 687840, Note_on_c, 0, 81, 0
2, 687840, Note_on_c, 0, 85, 78
2, 687840, Note_on_c, 0, 88, 78
2, 687840, Note_on_c, 0, 93, 78
2, 688080, Note_on_c, 0, 93, 0
2, 688080, Note_on_c, 0, 88, 0
2, 688080, Note_on_c, 0, 85, 0
2, 688080, Control_c, 0, 64, 0
2, 688080, Note_on_c, 0, 81, 78
2, 688320, Note_on_c, 0, 81, 0
2, 688320, Control_c, 0, 64, 127
2, 688320, Note_on_c, 0, 85, 78
2, 688320, Note_on_c, 0, 88, 78
2, 688320, Note_on_c, 0, 93, 78
2, 688560, Note_on_c, 0, 93, 0
2, 688560, Note_on_c, 0, 88, 0
2, 688560, Note_on_c, 0, 85, 0
2, 688560, Note_on_c, 0, 81, 78
2, 688800, Note_on_c, 0, 81, 0
2, 688800, Note_on_c, 0, 85, 78
2, 688800, Note_on_c, 0, 88, 78
2, 688800, Note_on_c, 0, 93, 78
2, 689040, Note_on_c, 0, 93, 0
2, 689040, Note_on_c, 0, 88, 0
2, 689040, Note_on_c, 0, 85, 0
2, 689040, Note_on_c, 0, 81, 78
2, 689280, Note_on_c, 0, 81, 0
2, 689280, Note_on_c, 0, 85, 78
2, 689280, Note_on_c, 0, 88, 78
2, 689280, Note_on_c, 0, 93, 78
2, 689520, Note_on_c, 0, 93, 0
2, 689520, Note_on_c, 0, 88, 0
2, 689520, Note_on_c, 0, 85, 0
2, 689520, Note_on_c, 0, 81, 78
2, 689760, Note_on_c, 0, 81, 0
2, 689760, Note_on_c, 0, 85, 78
2, 689760, Note_on_c, 0, 88, 78
2, 689760, Note_on_c, 0, 93, 78
2, 690000, Note_on_c, 0, 93, 0
2, 690000, Note_on_c, 0, 88, 0
2, 690000, Note_on_c, 0, 85, 0
2, 690000, Note_on_c, 0, 81, 78
2, 690240, Note_on_c, 0, 81, 0
2, 690240, Note_on_c, 0, 85, 78
2, 690240, Note_on_c, 0, 88, 78
2, 690240, Note_on_c, 0, 93, 78
2, 690480, Note_on_c, 0, 93, 0
2, 690480, Note_on_c, 0, 88, 0
2, 690480, Note_on_c, 0, 85, 0
2, 690480, Note_on_c, 0, 81, 78
2, 690720, Note_on_c, 0, 81, 0
2, 690720, Note_on_c, 0, 85, 78
2, 690720, Note_on_c, 0, 88, 78
2, 690720, Note_on_c, 0, 93, 78
2, 690960, Note_on_c, 0, 93, 0
2, 690960, Note_on_c, 0, 88, 0
2, 690960, Note_on_c, 0, 85, 0
2, 690960, Note_on_c, 0, 81, 78
2, 691200, Note_on_c, 0, 81, 0
2, 691200, Note_on_c, 0, 85, 78
2, 691200, Note_on_c, 0, 88, 78
2, 691200, Note_on_c, 0, 93, 78
2, 691440, Note_on_c, 0, 93, 0
2, 691440, Note_on_c, 0, 88, 0
2, 691440, Note_on_c, 0, 85, 0
2, 691440, Note_on_c, 0, 81, 78
2, 691680, Note_on_c, 0, 81, 0
2, 691680, Note_on_c, 0, 85, 78
2, 691680, Note_on_c, 0, 88, 78
2, 691680, Note_on_c, 0, 93, 78
2, 691920, Note_on_c, 0, 93, 0
2, 691920, Note_on_c, 0, 88, 0
2, 691920, Note_on_c, 0, 85, 0
2, 691920, Note_on_c, 0, 81, 78
2, 692160, Note_on_c, 0, 81, 0
2, 692160, Note_on_c, 0, 85, 78
2, 692160, Note_on_c, 0, 88, 78
2, 692160, Note_on_c, 0, 93, 78
2, 692400, Note_on_c, 0, 93, 0
2, 692400, Note_on_c, 0, 88, 0
2, 692400, Note_on_c, 0, 85, 0
2, 692400, Note_on_c, 0, 81, 78
2, 692640, Note_on_c, 0, 81, 0
2, 692640, Note_on_c, 0, 85, 78
2, 692640, Note_on_c, 0, 88, 78
2, 692640, Note_on_c, 0, 93, 78
2, 692880, Note_on_c, 0, 93, 0
2, 692880, Note_on_c, 0, 88, 0
2, 692880, Note_on_c, 0, 85, 0
2, 692880, Note_on_c, 0, 81, 78
2, 693120, Note_on_c, 0, 81, 0
2, 693120, Note_on_c, 0, 85, 78
2, 693120, Note_on_c, 0, 88, 78
2, 693120, Note_on_c, 0, 93, 78
2, 693360, Note_on_c, 0, 93, 0
2, 693360, Note_on_c, 0, 88, 0
2, 693360, Note_on_c, 0, 85, 0
2, 693360, Note_on_c, 0, 81, 78
2, 693600, Note_on_c, 0, 81, 0
2, 693600, Note_on_c, 0, 85, 78
2, 693600, Note_on_c, 0, 88, 78
2, 693600, Note_on_c, 0, 93, 78
2, 693840, Note_on_c, 0, 93, 0
2, 693840, Note_on_c, 0, 88, 0
2, 693840, Note_on_c, 0, 85, 0
2, 693840, Control_c, 0, 64, 0
2, 693840, Note_on_c, 0, 81, 78
2, 694080, Note_on_c, 0, 81, 0
2, 694080, Note_on_c, 0, 81, 91
2, 694080, Note_on_c, 0, 85, 91
2, 694080, Note_on_c, 0, 88, 91
2, 694080, Note_on_c, 0, 93, 91
2, 694560, Note_on_c, 0, 93, 0
2, 694560, Note_on_c, 0, 81, 0
2, 694560, Note_on_c, 0, 85, 0
2, 694560, Note_on_c, 0, 88, 0
2, 695520, Note_on_c, 0, 80, 91
2, 695520, Note_on_c, 0, 83, 91
2, 695520, Note_on_c, 0, 88, 91
2, 695520, Note_on_c, 0, 92, 91
2, 696000, Note_on_c, 0, 92, 0
2, 696000, Note_on_c, 0, 80, 0
2, 696000, Note_on_c, 0, 83, 0
2, 696000, Note_on_c, 0, 88, 0
2, 696960, Note_on_c, 0, 81, 91
2, 696960, Note_on_c, 0, 85, 91
2, 696960, Note_on_c, 0, 88, 91
2, 696960, Note_on_c, 0, 93, 91
2, 697440, Note_on_c, 0, 93, 0
2, 697440, Note_on_c, 0, 81, 0
2, 697440, Note_on_c, 0, 85, 0
2, 697440, Note_on_c, 0, 88, 0
2, 698400, Note_on_c, 0, 80, 91
2, 698400, Note_on_c, 0, 83, 91
2, 698400, Note_on_c, 0, 88, 91
2, 698400, Note_on_c, 0, 92, 91
2, 698880, Note_on_c, 0, 92, 0
2, 698880, Note_on_c, 0, 80, 0
2, 698880, Note_on_c, 0, 83, 0
2, 698880, Note_on_c, 0, 88, 0
2, 699840, Note_on_c, 0, 81, 91
2, 699840, Note_on_c, 0, 85, 91
2, 699840, Note_on_c, 0, 88, 91
2, 699840, Note_on_c, 0, 93, 91
2, 700320, Note_on_c, 0, 93, 0
2, 700320, Note_on_c, 0, 81, 0
2, 700320, Note_on_c, 0, 85, 0
2, 700320, Note_on_c, 0, 88, 0
2, 701280, Note_on_c, 0, 81, 91
2, 701280, Note_on_c, 0, 85, 91
2, 701280, Note_on_c, 0, 88, 91
2, 701280, Note_on_c, 0, 93, 91
2, 701760, Note_on_c, 0, 93, 0
2, 701760, Note_on_c, 0, 81, 0
2, 701760, Note_on_c, 0, 85, 0
2, 701760, Note_on_c, 0, 88, 0
2, 702720, Note_on_c, 0, 57, 117
2, 702720, Note_on_c, 0, 69, 117
2, 706560, Note_on_c, 0, 69, 0
2, 706560, Note_on_c, 0, 57, 0
2, 706560, End_track
3, 0, Start_track
3, 0, Title_t, "Grand Piano"
3, 50640, Note_on_c, 1, 76, 49
3, 50880, Note_on_c, 1, 76, 0
3, 50880, Note_on_c, 1, 69, 49
3, 51120, Note_on_c, 1, 69, 0
3, 51120, Note_on_c, 1, 64, 49
3, 51360, Note_on_c, 1, 64, 0
3, 53520, Note_on_c, 1, 76, 49
3, 53760, Note_on_c, 1, 76, 0
3, 53760, Note_on_c, 1, 69, 49
3, 54000, Note_on_c, 1, 69, 0
3, 54000, Note_on_c, 1, 64, 49
3, 54240, Note_on_c, 1, 64, 0
3, 56400, Note_on_c, 1, 76, 49
3, 56640, Note_on_c, 1, 76, 0
3, 56640, Note_on_c, 1, 71, 49
3, 56880, Note_on_c, 1, 71, 0
3, 56880, Note_on_c, 1, 64, 49
3, 57120, Note_on_c, 1, 64, 0
3, 59280, Control_c, 1, 64, 127
3, 59280, Note_on_c, 1, 88, 49
3, 59520, Note_on_c, 1, 88, 0
3, 59520, Note_on_c, 1, 83, 49
3, 59760, Note_on_c, 1, 83, 0
3, 59760, Note_on_c, 1, 76, 49
3, 60000, Note_on_c, 1, 76, 0
3, 60000, Note_on_c, 1, 71, 49
3, 60240, Note_on_c, 1, 71, 0
3, 60240, Control_c, 1, 64, 0
3, 60240, Note_on_c, 1, 64, 49
3, 60480, Note_on_c, 1, 64, 0
3, 62160, Note_on_c, 1, 76, 49
3, 62400, Note_on_c, 1, 76, 0
3, 62400, Note_on_c, 1, 69, 49
3, 62640, Note_on_c, 1, 69, 0
3, 62640, Note_on_c, 1, 64, 49
3, 62880, Note_on_c, 1, 64, 0
3, 65040, Note_on_c, 1, 76, 49
3, 65280, Note_on_c, 1, 76, 0
3, 65280, Note_on_c, 1, 69, 49
3, 65520, Note_on_c, 1, 69, 0
3, 65520, Note_on_c, 1, 64, 49
3, 65760, Note_on_c, 1, 64, 0
3, 66480, Note_on_c, 1, 64, 49
3, 66720, Note_on_c, 1, 64, 0
3, 66720, Note_on_c, 1, 71, 49
3, 66960, Note_on_c, 1, 71, 0
3, 66960, Note_on_c, 1, 64, 49
3, 67200, Note_on_c, 1, 64, 0
3, 67200, Note_on_c, 1, 71, 49
3, 67440, Note_on_c, 1, 71, 0
3, 67920, Note_on_c, 1, 66, 49
3, 68160, Note_on_c, 1, 66, 0
3, 68160, Note_on_c, 1, 73, 49
3, 68400, Note_on_c, 1, 73, 0
3, 68400, Note_on_c, 1, 63, 49
3, 68640, Note_on_c, 1, 63, 0
3, 68640, Note_on_c, 1, 66, 49
3, 68880, Note_on_c, 1, 66, 0
3, 69360, Note_on_c, 1, 59, 49
3, 69600, Note_on_c, 1, 59, 0
3, 69600, Note_on_c, 1, 64, 49
3, 69840, Note_on_c, 1, 64, 0
3, 69840, Note_on_c, 1, 59, 49
3, 70080, Note_on_c, 1, 59, 0
3, 70080, Note_on_c, 1, 64, 49
3, 70320, Note_on_c, 1, 64, 0
3, 86880, Note_on_c, 1, 81, 88
3, 87840, Note_on_c, 1, 81, 0
3, 88320, Note_on_c, 1, 82, 88
3, 89280, Note_on_c, 1, 82, 0
3, 89760, Note_on_c, 1, 83, 88
3, 90720, Note_on_c, 1, 83, 0
3, 91200, Note_on_c, 1, 83, 88
3, 92160, Note_on_c, 1, 83, 0
3, 109920, Note_on_c, 1, 81, 88
3, 110880, Note_on_c, 1, 81, 0
3, 111360, Note_on_c, 1, 82, 88
3, 112320, Note_on_c, 1, 82, 0
3, 112800, Note_on_c, 1, 83, 88
3, 113760, Note_on_c, 1, 83, 0
3, 114240, Note_on_c, 1, 83, 88
3, 115200, Note_on_c, 1, 83, 0
3, 164640, Note_on_c, 1, 64, 62
3, 165600, Note_on_c, 1, 64, 0
3, 165600, Note_on_c, 1, 64, 62
3, 166560, Note_on_c, 1, 64, 0
3, 166560, Note_on_c, 1, 64, 62
3, 167520, Note_on_c, 1, 64, 0
3, 167520, Note_on_c, 1, 64, 62
3, 168240, Note_on_c, 1, 64, 0
3, 168240, Note_on_c, 1, 64, 62
3, 168480, Note_on_c, 1, 64, 0
3, 168480, Note_on_c, 1, 69, 62
3, 168960, Note_on_c, 1, 69, 0
3, 168960, Note_on_c, 1, 69, 62
3, 169440, Note_on_c, 1, 69, 0
3, 170400, Note_on_c, 1, 64, 62
3, 171360, Note_on_c, 1, 64, 0
3, 171360, Note_on_c, 1, 64, 62
3, 172320, Note_on_c, 1, 64, 0
3, 172320, Note_on_c, 1, 64, 62
3, 173280, Note_on_c, 1, 64, 0
3, 173280, Note_on_c, 1, 64, 62
3, 174240, Note_on_c, 1, 64, 0
3, 174240, Note_on_c, 1, 69, 62
3, 174720, Note_on_c, 1, 69, 0
3, 174720, Note_on_c, 1, 69, 62
3, 175200, Note_on_c, 1, 69, 0
3, 176160, Note_on_c, 1, 64, 62
3, 177120, Note_on_c, 1, 64, 0
3, 177120, Note_on_c, 1, 64, 62
3, 178080, Note_on_c, 1, 64, 0
3, 178080, Note_on_c, 1, 64, 62
3, 179040, Note_on_c, 1, 64, 0
3, 179040, Note_on_c, 1, 64, 62
3, 179760, Note_on_c, 1, 64, 0
3, 179760, Note_on_c, 1, 64, 62
3, 180000, Note_on_c, 1, 64, 0
3, 180000, Note_on_c, 1, 69, 62
3, 180480, Note_on_c, 1, 69, 0
3, 180480, Note_on_c, 1, 69, 62
3, 180960, Note_on_c, 1, 69, 0
3, 181920, Note_on_c, 1, 64, 62
3, 182880, Note_on_c, 1, 64, 0
3, 182880, Note_on_c, 1, 64, 62
3, 183840, Note_on_c, 1, 64, 0
3, 183840, Note_on_c, 1, 64, 62
3, 184800, Note_on_c, 1, 64, 0
3, 184800, Note_on_c, 1, 64, 62
3, 185760, Note_on_c, 1, 64, 0
3, 185760, Note_on_c, 1, 69, 62
3, 186240, Note_on_c, 1, 69, 0
3, 186240, Note_on_c, 1, 69, 62
3, 186720, Note_on_c, 1, 69, 0
3, 187680, Note_on_c, 1, 81, 49
3, 188160, Note_on_c, 1, 81, 0
3, 188640, Note_on_c, 1, 81, 49
3, 189120, Note_on_c, 1, 81, 0
3, 189600, Note_on_c, 1, 81, 49
3, 190080, Note_on_c, 1, 81, 0
3, 190560, Note_on_c, 1, 81, 49
3, 191040, Note_on_c, 1, 81, 0
3, 191520, Note_on_c, 1, 81, 49
3, 192000, Note_on_c, 1, 81, 0
3, 192000, Note_on_c, 1, 81, 49
3, 192480, Note_on_c, 1, 81, 0
3, 193440, Note_on_c, 1, 81, 49
3, 193920, Note_on_c, 1, 81, 0
3, 194400, Note_on_c, 1, 81, 49
3, 194880, Note_on_c, 1, 81, 0
3, 195360, Note_on_c, 1, 81, 49
3, 195840, Note_on_c, 1, 81, 0
3, 196320, Note_on_c, 1, 81, 49
3, 196800, Note_on_c, 1, 81, 0
3, 197280, Note_on_c, 1, 81, 49
3, 197760, Note_on_c, 1, 81, 0
3, 197760, Note_on_c, 1, 81, 49
3, 198240, Note_on_c, 1, 81, 0
3, 199200, Note_on_c, 1, 81, 49
3, 199680, Note_on_c, 1, 81, 0
3, 200160, Note_on_c, 1, 81, 49
3, 200640, Note_on_c, 1, 81, 0
3, 201120, Note_on_c, 1, 81, 49
3, 201600, Note_on_c, 1, 81, 0
3, 202080, Note_on_c, 1, 81, 49
3, 202560, Note_on_c, 1, 81, 0
3, 203040, Note_on_c, 1, 81, 49
3, 203520, Note_on_c, 1, 81, 0
3, 203520, Note_on_c, 1, 81, 49
3, 204000, Note_on_c, 1, 81, 0
3, 204960, Note_on_c, 1, 81, 49
3, 205440, Note_on_c, 1, 81, 0
3, 205920, Note_on_c, 1, 81, 49
3, 206400, Note_on_c, 1, 81, 0
3, 206880, Note_on_c, 1, 81, 49
3, 207360, Note_on_c, 1, 81, 0
3, 207840, Note_on_c, 1, 81, 49
3, 208320, Note_on_c, 1, 81, 0
3, 208800, Note_on_c, 1, 81, 49
3, 209280, Note_on_c, 1, 81, 0
3, 209280, Note_on_c, 1, 81, 49
3, 209760, Note_on_c, 1, 81, 0
3, 227520, Control_c, 1, 64, 127
3, 227520, Note_on_c, 1, 78, 101
3, 227760, Note_on_c, 1, 78, 0
3, 227760, Note_on_c, 1, 74, 101
3, 228000, Note_on_c, 1, 74, 0
3, 228000, Note_on_c, 1, 73, 101
3, 228240, Note_on_c, 1, 73, 0
3, 228240, Note_on_c, 1, 74, 101
3, 228480, Note_on_c, 1, 74, 0
3, 228480, Note_on_c, 1, 75, 101
3, 228720, Note_on_c, 1, 75, 0
3, 228720, Control_c, 1, 64, 0
3, 228720, Note_on_c, 1, 77, 101
3, 228960, Note_on_c, 1, 77, 0
3, 239040, Control_c, 1, 64, 127
3, 239040, Note_on_c, 1, 78, 101
3, 239280, Note_on_c, 1, 78, 0
3, 239280, Note_on_c, 1, 74, 101
3, 239520, Note_on_c, 1, 74, 0
3, 239520, Note_on_c, 1, 73, 101
3, 239760, Note_on_c, 1, 73, 0
3, 239760, Note_on_c, 1, 74, 101
3, 240000, Note_on_c, 1, 74, 0
3, 240000, Note_on_c, 1, 75, 101
3, 240240, Note_on_c, 1, 75, 0
3, 240240, Control_c, 1, 64, 0
3, 240240, Note_on_c, 1, 77, 101
3, 240480, Note_on_c, 1, 77, 0
3, 266640, Note_on_c, 1, 76, 49
3, 266880, Note_on_c, 1, 76, 0
3, 266880, Note_on_c, 1, 69, 49
3, 267120, Note_on_c, 1, 69, 0
3, 267120, Note_on_c, 1, 64, 49
3, 267360, Note_on_c, 1, 64, 0
3, 269520, Note_on_c, 1, 76, 49
3, 269760, Note_on_c, 1, 76, 0
3, 269760, Note_on_c, 1, 69, 49
3, 270000, Note_on_c, 1, 69, 0
3, 270000, Note_on_c, 1, 64, 49
3, 270240, Note_on_c, 1, 64, 0
3, 272400, Note_on_c, 1, 76, 49
3, 272640, Note_on_c, 1, 76, 0
3, 272640, Note_on_c, 1, 71, 49
3, 272880, Note_on_c, 1, 71, 0
3, 272880, Note_on_c, 1, 64, 49
3, 273120, Note_on_c, 1, 64, 0
3, 275280, Control_c, 1, 64, 127
3, 275280, Note_on_c, 1, 88, 49
3, 275520, Note_on_c, 1, 88, 0
3, 275520, Note_on_c, 1, 83, 49
3, 275760, Note_on_c, 1, 83, 0
3, 275760, Note_on_c, 1, 76, 49
3, 276000, Note_on_c, 1, 76, 0
3, 276000, Note_on_c, 1, 71, 49
3, 276240, Note_on_c, 1, 71, 0
3, 276240, Control_c, 1, 64, 0
3, 276240, Note_on_c, 1, 64, 49
3, 276480, Note_on_c, 1, 64, 0
3, 278160, Note_on_c, 1, 76, 49
3, 278400, Note_on_c, 1, 76, 0
3, 278400, Note_on_c, 1, 69, 49
3, 278640, Note_on_c, 1, 69, 0
3, 278640, Note_on_c, 1, 64, 49
3, 278880, Note_on_c, 1, 64, 0
3, 281040, Note_on_c, 1, 76, 49
3, 281280, Note_on_c, 1, 76, 0
3, 281280, Note_on_c, 1, 69, 49
3, 281520, Note_on_c, 1, 69, 0
3, 281520, Note_on_c, 1, 64, 49
3, 281760, Note_on_c, 1, 64, 0
3, 282480, Note_on_c, 1, 64, 49
3, 282720, Note_on_c, 1, 64, 0
3, 282720, Note_on_c, 1, 71, 49
3, 282960, Note_on_c, 1, 71, 0
3, 282960, Note_on_c, 1, 64, 49
3, 283200, Note_on_c, 1, 64, 0
3, 283200, Note_on_c, 1, 71, 49
3, 283440, Note_on_c, 1, 71, 0
3, 283920, Note_on_c, 1, 66, 49
3, 284160, Note_on_c, 1, 66, 0
3, 284160, Note_on_c, 1, 73, 49
3, 284400, Note_on_c, 1, 73, 0
3, 284400, Note_on_c, 1, 63, 49
3, 284640, Note_on_c, 1, 63, 0
3, 284640, Note_on_c, 1, 66, 49
3, 284880, Note_on_c, 1, 66, 0
3, 285360, Note_on_c, 1, 59, 49
3, 285600, Note_on_c, 1, 59, 0
3, 285600, Note_on_c, 1, 64, 49
3, 285840, Note_on_c, 1, 64, 0
3, 285840, Note_on_c, 1, 59, 49
3, 286080, Note_on_c, 1, 59, 0
3, 286080, Note_on_c, 1, 64, 49
3, 286320, Note_on_c, 1, 64, 0
3, 302880, Note_on_c, 1, 81, 88
3, 303840, Note_on_c, 1, 81, 0
3, 304320, Note_on_c, 1, 82, 88
3, 305280, Note_on_c, 1, 82, 0
3, 305760, Note_on_c, 1, 83, 88
3, 306720, Note_on_c, 1, 83, 0
3, 307200, Note_on_c, 1, 83, 88
3, 308160, Note_on_c, 1, 83, 0
3, 325920, Note_on_c, 1, 81, 88
3, 326880, Note_on_c, 1, 81, 0
3, 327360, Note_on_c, 1, 82, 88
3, 328320, Note_on_c, 1, 82, 0
3, 328800, Note_on_c, 1, 83, 88
3, 329760, Note_on_c, 1, 83, 0
3, 330240, Note_on_c, 1, 83, 88
3, 331200, Note_on_c, 1, 83, 0
3, 380160, Note_on_c, 1, 65, 75
3, 382080, Note_on_c, 1, 65, 0
3, 382080, Note_on_c, 1, 67, 75
3, 382176, Note_on_c, 1, 67, 0
3, 382560, Note_on_c, 1, 64, 75
3, 382656, Note_on_c, 1, 64, 0
3, 383040, Note_on_c, 1, 65, 75
3, 383520, Note_on_c, 1, 65, 0
3, 383520, Note_on_c, 1, 62, 75
3, 384240, Note_on_c, 1, 62, 0
3, 384240, Note_on_c, 1, 63, 75
3, 384480, Note_on_c, 1, 63, 0
3, 384480, Note_on_c, 1, 65, 75
3, 384960, Note_on_c, 1, 65, 0
3, 384960, Note_on_c, 1, 69, 75
3, 385056, Note_on_c, 1, 69, 0
3, 385440, Note_on_c, 1, 70, 75
3, 385536, Note_on_c, 1, 70, 0
3, 385920, Note_on_c, 1, 72, 75
3, 386400, Note_on_c, 1, 72, 0
3, 386400, Note_on_c, 1, 64, 75
3, 387120, Note_on_c, 1, 64, 0
3, 387120, Note_on_c, 1, 65, 75
3, 387360, Note_on_c, 1, 65, 0
3, 387360, Note_on_c, 1, 72, 75
3, 387840, Note_on_c, 1, 72, 0
3, 387840, Note_on_c, 1, 64, 75
3, 388560, Note_on_c, 1, 64, 0
3, 388560, Note_on_c, 1, 65, 75
3, 388800, Note_on_c, 1, 65, 0
3, 388800, Note_on_c, 1, 72, 75
3, 389280, Note_on_c, 1, 72, 0
3, 389280, Note_on_c, 1, 62, 75
3, 390000, Note_on_c, 1, 62, 0
3, 390000, Note_on_c, 1, 65, 75
3, 390240, Note_on_c, 1, 65, 0
3, 390240, Note_on_c, 1, 70, 75
3, 390720, Note_on_c, 1, 70, 0
3, 390720, Note_on_c, 1, 73, 75
3, 391200, Note_on_c, 1, 73, 0
3, 391200, Note_on_c, 1, 74, 75
3, 391680, Note_on_c, 1, 74, 0
3, 391680, Note_on_c, 1, 77, 75
3, 393600, Note_on_c, 1, 77, 0
3, 393600, Note_on_c, 1, 79, 75
3, 394080, Note_on_c, 1, 79, 0
3, 394080, Note_on_c, 1, 76, 75
3, 394560, Note_on_c, 1, 76, 0
3, 394560, Note_on_c, 1, 77, 75
3, 395040, Note_on_c, 1, 77, 0
3, 395040, Note_on_c, 1, 74, 75
3, 395760, Note_on_c, 1, 74, 0
3, 395760, Note_on_c, 1, 75, 75
3, 396000, Note_on_c, 1, 75, 0
3, 396000, Note_on_c, 1, 77, 75
3, 396480, Note_on_c, 1, 77, 0
3, 396480, Note_on_c, 1, 81, 75
3, 396960, Note_on_c, 1, 81, 0
3, 396960, Note_on_c, 1, 82, 75
3, 397440, Note_on_c, 1, 82, 0
3, 397440, Note_on_c, 1, 72, 75
3, 397920, Note_on_c, 1, 72, 0
3, 397920, Note_on_c, 1, 64, 75
3, 398400, Note_on_c, 1, 64, 0
3, 398400, Note_on_c, 1, 65, 75
3, 398880, Note_on_c, 1, 65, 0
3, 398880, Note_on_c, 1, 72, 75
3, 399360, Note_on_c, 1, 72, 0
3, 399360, Note_on_c, 1, 64, 75
3, 400080, Note_on_c, 1, 64, 0
3, 400080, Note_on_c, 1, 65, 75
3, 400320, Note_on_c, 1, 65, 0
3, 400320, Note_on_c, 1, 70, 75
3, 400800, Note_on_c, 1, 70, 0
3, 403200, Note_on_c, 1, 65, 75
3, 405120, Note_on_c, 1, 65, 0
3, 405120, Note_on_c, 1, 67, 75
3, 405216, Note_on_c, 1, 67, 0
3, 405600, Note_on_c, 1, 64, 75
3, 405696, Note_on_c, 1, 64, 0
3, 406080, Note_on_c, 1, 65, 75
3, 406560, Note_on_c, 1, 65, 0
3, 406560, Note_on_c, 1, 62, 75
3, 407280, Note_on_c, 1, 62, 0
3, 407280, Note_on_c, 1, 63, 75
3, 407520, Note_on_c, 1, 63, 0
3, 407520, Note_on_c, 1, 65, 75
3, 408000, Note_on_c, 1, 65, 0
3, 408000, Note_on_c, 1, 69, 75
3, 408096, Note_on_c, 1, 69, 0
3, 408480, Note_on_c, 1, 70, 75
3, 408576, Note_on_c, 1, 70, 0
3, 408960, Note_on_c, 1, 72, 75
3, 409440, Note_on_c, 1, 72, 0
3, 409440, Note_on_c, 1, 64, 75
3, 410160, Note_on_c, 1, 64, 0
3, 410160, Note_on_c, 1, 65, 75
3, 410400, Note_on_c, 1, 65, 0
3, 410400, Note_on_c, 1, 72, 75
3, 410880, Note_on_c, 1, 72, 0
3, 410880, Note_on_c, 1, 64, 75
3, 411600, Note_on_c, 1, 64, 0
3, 411600, Note_on_c, 1, 65, 75
3, 411840, Note_on_c, 1, 65, 0
3, 411840, Note_on_c, 1, 72, 75
3, 412320, Note_on_c, 1, 72, 0
3, 412320, Note_on_c, 1, 62, 75
3, 413040, Note_on_c, 1, 62, 0
3, 413040, Note_on_c, 1, 65, 75
3, 413280, Note_on_c, 1, 65, 0
3, 413280, Note_on_c, 1, 70, 75
3, 413760, Note_on_c, 1, 70, 0
3, 413760, Note_on_c, 1, 73, 75
3, 414240, Note_on_c, 1, 73, 0
3, 414240, Note_on_c, 1, 74, 75
3, 414720, Note_on_c, 1, 74, 0
3, 414720, Note_on_c, 1, 77, 75
3, 416640, Note_on_c, 1, 77, 0
3, 416640, Note_on_c, 1, 79, 75
3, 417120, Note_on_c, 1, 79, 0
3, 417120, Note_on_c, 1, 76, 75
3, 417600, Note_on_c, 1, 76, 0
3, 417600, Note_on_c, 1, 77, 75
3, 418080, Note_on_c, 1, 77, 0
3, 418080, Note_on_c, 1, 74, 75
3, 418800, Note_on_c, 1, 74, 0
3, 418800, Note_on_c, 1, 75, 75
3, 419040, Note_on_c, 1, 75, 0
3, 419040, Note_on_c, 1, 77, 75
3, 419520, Note_on_c, 1, 77, 0
3, 419520, Note_on_c, 1, 81, 75
3, 420000, Note_on_c, 1, 81, 0
3, 420000, Note_on_c, 1, 82, 75
3, 420480, Note_on_c, 1, 82, 0
3, 420480, Note_on_c, 1, 72, 75
3, 420960, Note_on_c, 1, 72, 0
3, 420960, Note_on_c, 1, 64, 75
3, 421440, Note_on_c, 1, 64, 0
3, 421440, Note_on_c, 1, 65, 75
3, 421920, Note_on_c, 1, 65, 0
3, 421920, Note_on_c, 1, 72, 75
3, 422400, Note_on_c, 1, 72, 0
3, 422400, Note_on_c, 1, 64, 75
3, 423120, Note_on_c, 1, 64, 0
3, 423120, Note_on_c, 1, 65, 75
3, 423360, Note_on_c, 1, 65, 0
3, 423360, Note_on_c, 1, 70, 62
3, 423840, Note_on_c, 1, 70, 0
3, 449280, Note_on_c, 1, 74, 88
3, 450240, Note_on_c, 1, 74, 0
3, 450240, Note_on_c, 1, 69, 62
3, 450720, Note_on_c, 1, 69, 0
3, 450720, Note_on_c, 1, 74, 62
3, 451680, Note_on_c, 1, 74, 0
3, 451680, Note_on_c, 1, 69, 62
3, 452160, Note_on_c, 1, 69, 0
3, 452160, Control_c, 1, 64, 127
3, 452160, Note_on_c, 1, 77, 62
3, 452400, Note_on_c, 1, 77, 0
3, 452400, Note_on_c, 1, 76, 62
3, 452640, Note_on_c, 1, 76, 0
3, 452640, Note_on_c, 1, 74, 62
3, 452880, Note_on_c, 1, 74, 0
3, 452880, Note_on_c, 1, 76, 62
3, 453120, Note_on_c, 1, 76, 0
3, 453120, Note_on_c, 1, 74, 62
3, 453360, Note_on_c, 1, 74, 0
3, 453360, Control_c, 1, 64, 0
3, 453360, Note_on_c, 1, 73, 62
3, 453600, Note_on_c, 1, 73, 0
3, 453600, Note_on_c, 1, 74, 62
3, 454560, Note_on_c, 1, 74, 0
3, 454560, Note_on_c, 1, 69, 62
3, 455040, Note_on_c, 1, 69, 0
3, 455040, Note_on_c, 1, 67, 62
3, 456000, Note_on_c, 1, 67, 0
3, 456000, Note_on_c, 1, 70, 62
3, 456480, Note_on_c, 1, 70, 0
3, 456480, Note_on_c, 1, 67, 62
3, 457440, Note_on_c, 1, 67, 0
3, 457440, Note_on_c, 1, 70, 62
3, 457920, Note_on_c, 1, 70, 0
3, 457920, Control_c, 1, 64, 127
3, 457920, Note_on_c, 1, 61, 62
3, 458160, Note_on_c, 1, 61, 0
3, 458160, Note_on_c, 1, 62, 62
3, 458400, Note_on_c, 1, 62, 0
3, 458400, Note_on_c, 1, 64, 62
3, 458640, Note_on_c, 1, 64, 0
3, 458640, Note_on_c, 1, 65, 62
3, 458880, Note_on_c, 1, 65, 0
3, 458880, Note_on_c, 1, 67, 62
3, 459120, Note_on_c, 1, 67, 0
3, 459120, Control_c, 1, 64, 0
3, 459120, Note_on_c, 1, 70, 62
3, 459360, Note_on_c, 1, 70, 0
3, 459360, Note_on_c, 1, 69, 62
3, 460080, Note_on_c, 1, 69, 0
3, 460080, Note_on_c, 1, 65, 62
3, 460320, Note_on_c, 1, 65, 0
3, 460320, Note_on_c, 1, 62, 62
3, 460800, Note_on_c, 1, 62, 0
3, 460800, Note_on_c, 1, 74, 88
3, 461760, Note_on_c, 1, 74, 0
3, 461760, Note_on_c, 1, 69, 62
3, 462240, Note_on_c, 1, 69, 0
3, 462240, Note_on_c, 1, 74, 62
3, 463200, Note_on_c, 1, 74, 0
3, 463200, Note_on_c, 1, 69, 62
3, 463680, Note_on_c, 1, 69, 0
3, 463680, Control_c, 1, 64, 127
3, 463680, Note_on_c, 1, 77, 62
3, 463920, Note_on_c, 1, 77, 0
3, 463920, Note_on_c, 1, 76, 62
3, 464160, Note_on_c, 1, 76, 0
3, 464160, Note_on_c, 1, 74, 62
3, 464400, Note_on_c, 1, 74, 0
3, 464400, Note_on_c, 1, 76, 62
3, 464640, Note_on_c, 1, 76, 0
3, 464640, Note_on_c, 1, 74, 62
3, 464880, Note_on_c, 1, 74, 0
3, 464880, Control_c, 1, 64, 0
3, 464880, Note_on_c, 1, 73, 62
3, 465120, Note_on_c, 1, 73, 0
3, 465120, Note_on_c, 1, 74, 62
3, 466080, Note_on_c, 1, 74, 0
3, 466080, Note_on_c, 1, 69, 62
3, 466560, Note_on_c, 1, 69, 0
3, 466560, Note_on_c, 1, 67, 62
3, 467520, Note_on_c, 1, 67, 0
3, 467520, Note_on_c, 1, 70, 62
3, 468000, Note_on_c, 1, 70, 0
3, 468000, Note_on_c, 1, 67, 62
3, 468960, Note_on_c, 1, 67, 0
3, 468960, Note_on_c, 1, 70, 62
3, 469440, Note_on_c, 1, 70, 0
3, 469440, Control_c, 1, 64, 127
3, 469440, Note_on_c, 1, 61, 62
3, 469680, Note_on_c, 1, 61, 0
3, 469680, Note_on_c, 1, 62, 62
3, 469920, Note_on_c, 1, 62, 0
3, 469920, Note_on_c, 1, 64, 62
3, 470160, Note_on_c, 1, 64, 0
3, 470160, Note_on_c, 1, 65, 62
3, 470400, Note_on_c, 1, 65, 0
3, 470400, Note_on_c, 1, 67, 62
3, 470640, Note_on_c, 1, 67, 0
3, 470640, Control_c, 1, 64, 0
3, 470640, Note_on_c, 1, 69, 62
3, 470880, Note_on_c, 1, 69, 0
3, 472320, Note_on_c, 1, 74, 88
3, 473280, Note_on_c, 1, 74, 0
3, 473280, Note_on_c, 1, 69, 62
3, 473760, Note_on_c, 1, 69, 0
3, 473760, Note_on_c, 1, 74, 62
3, 474720, Note_on_c, 1, 74, 0
3, 474720, Note_on_c, 1, 69, 62
3, 475200, Note_on_c, 1, 69, 0
3, 475200, Control_c, 1, 64, 127
3, 475200, Note_on_c, 1, 77, 62
3, 475440, Note_on_c, 1, 77, 0
3, 475440, Note_on_c, 1, 76, 62
3, 475680, Note_on_c, 1, 76, 0
3, 475680, Note_on_c, 1, 74, 62
3, 475920, Note_on_c, 1, 74, 0
3, 475920, Note_on_c, 1, 76, 62
3, 476160, Note_on_c, 1, 76, 0
3, 476160, Note_on_c, 1, 74, 62
3, 476400, Note_on_c, 1, 74, 0
3, 476400, Control_c, 1, 64, 0
3, 476400, Note_on_c, 1, 73, 62
3, 476640, Note_on_c, 1, 73, 0
3, 476640, Note_on_c, 1, 74, 62
3, 477600, Note_on_c, 1, 74, 0
3, 477600, Note_on_c, 1, 69, 62
3, 478080, Note_on_c, 1, 69, 0
3, 478080, Note_on_c, 1, 67, 62
3, 479040, Note_on_c, 1, 67, 0
3, 479040, Note_on_c, 1, 70, 62
3, 479520, Note_on_c, 1, 70, 0
3, 479520, Note_on_c, 1, 67, 62
3, 480480, Note_on_c, 1, 67, 0
3, 480480, Note_on_c, 1, 70, 62
3, 480960, Note_on_c, 1, 70, 0
3, 480960, Control_c, 1, 64, 127
3, 480960, Note_on_c, 1, 61, 62
3, 481200, Note_on_c, 1, 61, 0
3, 481200, Note_on_c, 1, 62, 62
3, 481440, Note_on_c, 1, 62, 0
3, 481440, Note_on_c, 1, 64, 62
3, 481680, Note_on_c, 1, 64, 0
3, 481680, Note_on_c, 1, 65, 62
3, 481920, Note_on_c, 1, 65, 0
3, 481920, Note_on_c, 1, 67, 62
3, 482160, Note_on_c, 1, 67, 0
3, 482160, Control_c, 1, 64, 0
3, 482160, Note_on_c, 1, 70, 62
3, 482400, Note_on_c, 1, 70, 0
3, 482400, Note_on_c, 1, 69, 62
3, 483120, Note_on_c, 1, 69, 0
3, 483120, Note_on_c, 1, 65, 62
3, 483360, Note_on_c, 1, 65, 0
3, 483360, Note_on_c, 1, 62, 62
3, 483840, Note_on_c, 1, 62, 0
3, 483840, Note_on_c, 1, 74, 88
3, 484800, Note_on_c, 1, 74, 0
3, 484800, Note_on_c, 1, 69, 62
3, 485280, Note_on_c, 1, 69, 0
3, 485280, Note_on_c, 1, 74, 62
3, 486240, Note_on_c, 1, 74, 0
3, 486240, Note_on_c, 1, 69, 62
3, 486720, Note_on_c, 1, 69, 0
3, 486720, Control_c, 1, 64, 127
3, 486720, Note_on_c, 1, 77, 62
3, 486960, Note_on_c, 1, 77, 0
3, 486960, Note_on_c, 1, 76, 62
3, 487200, Note_on_c, 1, 76, 0
3, 487200, Note_on_c, 1, 74, 62
3, 487440, Note_on_c, 1, 74, 0
3, 487440, Note_on_c, 1, 76, 62
3, 487680, Note_on_c, 1, 76, 0
3, 487680, Note_on_c, 1, 74, 62
3, 487920, Note_on_c, 1, 74, 0
3, 487920, Control_c, 1, 64, 0
3, 487920, Note_on_c, 1, 73, 62
3, 488160, Note_on_c, 1, 73, 0
3, 488160, Note_on_c, 1, 74, 62
3, 489120, Note_on_c, 1, 74, 0
3, 489120, Note_on_c, 1, 69, 62
3, 489600, Note_on_c, 1, 69, 0
3, 489600, Note_on_c, 1, 67, 62
3, 490560, Note_on_c, 1, 67, 0
3, 490560, Note_on_c, 1, 70, 62
3, 491040, Note_on_c, 1, 70, 0
3, 491040, Note_on_c, 1, 67, 62
3, 492000, Note_on_c, 1, 67, 0
3, 492000, Note_on_c, 1, 70, 62
3, 492480, Note_on_c, 1, 70, 0
3, 492480, Control_c, 1, 64, 127
3, 492480, Note_on_c, 1, 61, 62
3, 492720, Note_on_c, 1, 61, 0
3, 492720, Note_on_c, 1, 62, 62
3, 492960, Note_on_c, 1, 62, 0
3, 492960, Note_on_c, 1, 64, 62
3, 493200, Note_on_c, 1, 64, 0
3, 493200, Note_on_c, 1, 65, 62
3, 493440, Note_on_c, 1, 65, 0
3, 493440, Note_on_c, 1, 67, 62
3, 493680, Note_on_c, 1, 67, 0
3, 493680, Control_c, 1, 64, 0
3, 493680, Note_on_c, 1, 69, 62
3, 493920, Note_on_c, 1, 69, 0
3, 495840, Note_on_c, 1, 53, 62
3, 495840, Note_on_c, 1, 58, 62
3, 496320, Note_on_c, 1, 58, 0
3, 496320, Note_on_c, 1, 53, 0
3, 496320, Note_on_c, 1, 53, 62
3, 496320, Note_on_c, 1, 58, 62
3, 496800, Note_on_c, 1, 58, 0
3, 496800, Note_on_c, 1, 53, 0
3, 497280, Note_on_c, 1, 53, 62
3, 497280, Note_on_c, 1, 60, 62
3, 497760, Note_on_c, 1, 60, 0
3, 497760, Note_on_c, 1, 53, 0
3, 497760, Note_on_c, 1, 53, 62
3, 497760, Note_on_c, 1, 60, 62
3, 498240, Note_on_c, 1, 60, 0
3, 498240, Note_on_c, 1, 53, 0
3, 498720, Note_on_c, 1, 53, 62
3, 498720, Note_on_c, 1, 58, 62
3, 499200, Note_on_c, 1, 58, 0
3, 499200, Note_on_c, 1, 53, 0
3, 499200, Note_on_c, 1, 53, 62
3, 499200, Note_on_c, 1, 58, 62
3, 499680, Note_on_c, 1, 58, 0
3, 499680, Note_on_c, 1, 53, 0
3, 518880, Note_on_c, 1, 53, 62
3, 518880, Note_on_c, 1, 58, 62
3, 519360, Note_on_c, 1, 58, 0
3, 519360, Note_on_c, 1, 53, 0
3, 519360, Note_on_c, 1, 53, 62
3, 519360, Note_on_c, 1, 58, 62
3, 519840, Note_on_c, 1, 58, 0
3, 519840, Note_on_c, 1, 53, 0
3, 520320, Note_on_c, 1, 53, 62
3, 520320, Note_on_c, 1, 60, 62
3, 520800, Note_on_c, 1, 60, 0
3, 520800, Note_on_c, 1, 53, 0
3, 520800, Note_on_c, 1, 53, 62
3, 520800, Note_on_c, 1, 60, 62
3, 521280, Note_on_c, 1, 60, 0
3, 521280, Note_on_c, 1, 53, 0
3, 521760, Note_on_c, 1, 53, 62
3, 521760, Note_on_c, 1, 58, 62
3, 522240, Note_on_c, 1, 58, 0
3, 522240, Note_on_c, 1, 53, 0
3, 522240, Note_on_c, 1, 53, 62
3, 522240, Note_on_c, 1, 58, 62
3, 522720, Note_on_c, 1, 58, 0
3, 522720, Note_on_c, 1, 53, 0
3, 541440, Note_on_c, 1, 74, 88
3, 542400, Note_on_c, 1, 74, 0
3, 542400, Note_on_c, 1, 69, 62
3, 542880, Note_on_c, 1, 69, 0
3, 542880, Note_on_c, 1, 74, 62
3, 543840, Note_on_c, 1, 74, 0
3, 543840, Note_on_c, 1, 69, 62
3, 544320, Note_on_c, 1, 69, 0
3, 544320, Control_c, 1, 64, 127
3, 544320, Note_on_c, 1, 77, 62
3, 544560, Note_on_c, 1, 77, 0
3, 544560, Note_on_c, 1, 76, 62
3, 544800, Note_on_c, 1, 76, 0
3, 544800, Note_on_c, 1, 74, 62
3, 545040, Note_on_c, 1, 74, 0
3, 545040, Note_on_c, 1, 76, 62
3, 545280, Note_on_c, 1, 76, 0
3, 545280, Note_on_c, 1, 74, 62
3, 545520, Note_on_c, 1, 74, 0
3, 545520, Control_c, 1, 64, 0
3, 545520, Note_on_c, 1, 73, 62
3, 545760, Note_on_c, 1, 73, 0
3, 545760, Note_on_c, 1, 74, 62
3, 546720, Note_on_c, 1, 74, 0
3, 546720, Note_on_c, 1, 69, 62
3, 547200, Note_on_c, 1, 69, 0
3, 547200, Note_on_c, 1, 67, 62
3, 548160, Note_on_c, 1, 67, 0
3, 548160, Note_on_c, 1, 70, 62
3, 548640, Note_on_c, 1, 70, 0
3, 548640, Note_on_c, 1, 67, 62
3, 549600, Note_on_c, 1, 67, 0
3, 549600, Note_on_c, 1, 70, 62
3, 550080, Note_on_c, 1, 70, 0
3, 550080, Control_c, 1, 64, 127
3, 550080, Note_on_c, 1, 61, 62
3, 550320, Note_on_c, 1, 61, 0
3, 550320, Note_on_c, 1, 62, 62
3, 550560, Note_on_c, 1, 62, 0
3, 550560, Note_on_c, 1, 64, 62
3, 550800, Note_on_c, 1, 64, 0
3, 550800, Note_on_c, 1, 65, 62
3, 551040, Note_on_c, 1, 65, 0
3, 551040, Note_on_c, 1, 67, 62
3, 551280, Note_on_c, 1, 67, 0
3, 551280, Control_c, 1, 64, 0
3, 551280, Note_on_c, 1, 70, 62
3, 551520, Note_on_c, 1, 70, 0
3, 551520, Note_on_c, 1, 69, 62
3, 552240, Note_on_c, 1, 69, 0
3, 552240, Note_on_c, 1, 65, 62
3, 552480, Note_on_c, 1, 65, 0
3, 552480, Note_on_c, 1, 62, 62
3, 552960, Note_on_c, 1, 62, 0
3, 552960, Note_on_c, 1, 74, 88
3, 553920, Note_on_c, 1, 74, 0
3, 553920, Note_on_c, 1, 69, 62
3, 554400, Note_on_c, 1, 69, 0
3, 554400, Note_on_c, 1, 74, 62
3, 555360, Note_on_c, 1, 74, 0
3, 555360, Note_on_c, 1, 69, 62
3, 555840, Note_on_c, 1, 69, 0
3, 555840, Control_c, 1, 64, 127
3, 555840, Note_on_c, 1, 77, 62
3, 556080, Note_on_c, 1, 77, 0
3, 556080, Note_on_c, 1, 76, 62
3, 556320, Note_on_c, 1, 76, 0
3, 556320, Note_on_c, 1, 74, 62
3, 556560, Note_on_c, 1, 74, 0
3, 556560, Note_on_c, 1, 76, 62
3, 556800, Note_on_c, 1, 76, 0
3, 556800, Note_on_c, 1, 74, 62
3, 557040, Note_on_c, 1, 74, 0
3, 557040, Control_c, 1, 64, 0
3, 557040, Note_on_c, 1, 73, 62
3, 557280, Note_on_c, 1, 73, 0
3, 557280, Note_on_c, 1, 74, 62
3, 558240, Note_on_c, 1, 74, 0
3, 558240, Note_on_c, 1, 69, 62
3, 558720, Note_on_c, 1, 69, 0
3, 558720, Note_on_c, 1, 67, 62
3, 559680, Note_on_c, 1, 67, 0
3, 559680, Note_on_c, 1, 70, 62
3, 560160, Note_on_c, 1, 70, 0
3, 560160, Note_on_c, 1, 67, 62
3, 561120, Note_on_c, 1, 67, 0
3, 561120, Note_on_c, 1, 70, 62
3, 561600, Note_on_c, 1, 70, 0
3, 561600, Control_c, 1, 64, 127
3, 561600, Note_on_c, 1, 61, 62
3, 561840, Note_on_c, 1, 61, 0
3, 561840, Note_on_c, 1, 62, 62
3, 562080, Note_on_c, 1, 62, 0
3, 562080, Note_on_c, 1, 64, 62
3, 562320, Note_on_c, 1, 64, 0
3, 562320, Note_on_c, 1, 65, 62
3, 562560, Note_on_c, 1, 65, 0
3, 562560, Note_on_c, 1, 67, 62
3, 562800, Note_on_c, 1, 67, 0
3, 562800, Control_c, 1, 64, 0
3, 562800, Note_on_c, 1, 69, 62
3, 563040, Note_on_c, 1, 69, 0
3, 563040, End_track
4, 0, Start_track
4, 0, Title_t, "Grand Piano"
4, 0, Program_c, 0, 0
4, 0, Control_c, 0, 7, 115
4, 0, Control_c, 0, 10, 41
4, 0, Note_on_c, 0, 54, 83
4, 0, Note_on_c, 0, 66, 83
4, 96, Note_on_c, 0, 66, 0
4, 96, Note_on_c, 0, 54, 0
4, 480, Note_on_c, 0, 52, 83
4, 480, Note_on_c, 0, 64, 83
4, 576, Note_on_c, 0, 64, 0
4, 576, Note_on_c, 0, 52, 0
4, 960, Note_on_c, 0, 50, 83
4, 960, Note_on_c, 0, 62, 83
4, 1056, Note_on_c, 0, 62, 0
4, 1056, Note_on_c, 0, 50, 0
4, 1440, Note_on_c, 0, 49, 83
4, 1440, Note_on_c, 0, 61, 83
4, 1536, Note_on_c, 0, 61, 0
4, 1536, Note_on_c, 0, 49, 0
4, 1920, Note_on_c, 0, 47, 83
4, 1920, Note_on_c, 0, 59, 83
4, 2016, Note_on_c, 0, 59, 0
4, 2016, Note_on_c, 0, 47, 0
4, 2400, Note_on_c, 0, 45, 83
4, 2400, Note_on_c, 0, 57, 83
4, 2496, Note_on_c, 0, 57, 0
4, 2496, Note_on_c, 0, 45, 0
4, 2880, Note_on_c, 0, 44, 83
4, 2880, Note_on_c, 0, 56, 83
4, 2976, Note_on_c, 0, 56, 0
4, 2976, Note_on_c, 0, 44, 0
4, 3360, Note_on_c, 0, 42, 83
4, 3360, Note_on_c, 0, 54, 83
4, 3456, Note_on_c, 0, 54, 0
4, 3456, Note_on_c, 0, 42, 0
4, 3840, Note_on_c, 0, 40, 83
4, 3840, Note_on_c, 0, 52, 83
4, 3936, Note_on_c, 0, 52, 0
4, 3936, Note_on_c, 0, 40, 0
4, 4320, Note_on_c, 0, 50, 83
4, 4320, Note_on_c, 0, 62, 83
4, 4416, Note_on_c, 0, 62, 0
4, 4416, Note_on_c, 0, 50, 0
4, 4800, Note_on_c, 0, 49, 83
4, 4800, Note_on_c, 0, 61, 83
4, 4896, Note_on_c, 0, 61, 0
4, 4896, Note_on_c, 0, 49, 0
4, 5280, Note_on_c, 0, 47, 83
4, 5280, Note_on_c, 0, 59, 83
4, 5376, Note_on_c, 0, 59, 0
4, 5376, Note_on_c, 0, 47, 0
4, 5760, Note_on_c, 0, 45, 83
4, 5760, Note_on_c, 0, 57, 83
4, 5856, Note_on_c, 0, 57, 0
4, 5856, Note_on_c, 0, 45, 0
4, 6240, Note_on_c, 0, 44, 83
4, 6240, Note_on_c, 0, 56, 83
4, 6336, Note_on_c, 0, 56, 0
4, 6336, Note_on_c, 0, 44, 0
4, 6720, Note_on_c, 0, 42, 83
4, 6720, Note_on_c, 0, 54, 83
4, 6816, Note_on_c, 0, 54, 0
4, 6816, Note_on_c, 0, 42, 0
4, 7200, Note_on_c, 0, 40, 83
4, 7200, Note_on_c, 0, 52, 83
4, 7296, Note_on_c, 0, 52, 0
4, 7296, Note_on_c, 0, 40, 0
4, 7680, Note_on_c, 0, 44, 83
4, 7680, Note_on_c, 0, 56, 83
4, 7776, Note_on_c, 0, 56, 0
4, 7776, Note_on_c, 0, 44, 0
4, 8160, Note_on_c, 0, 47, 83
4, 8160, Note_on_c, 0, 59, 83
4, 8256, Note_on_c, 0, 59, 0
4, 8256, Note_on_c, 0, 47, 0
4, 8640, Note_on_c, 0, 52, 83
4, 8640, Note_on_c, 0, 64, 83
4, 8736, Note_on_c, 0, 64, 0
4, 8736, Note_on_c, 0, 52, 0
4, 9120, Note_on_c, 0, 40, 83
4, 9120, Note_on_c, 0, 52, 83
4, 9600, Note_on_c, 0, 52, 0
4, 9600, Note_on_c, 0, 40, 0
4, 9600, Note_on_c, 0, 40, 83
4, 9600, Note_on_c, 0, 52, 83
4, 10080, Note_on_c, 0, 52, 0
4, 10080, Note_on_c, 0, 40, 0
4, 10080, Note_on_c, 0, 40, 83
4, 10080, Note_on_c, 0, 52, 83
4, 10560, Note_on_c, 0, 52, 0
4, 10560, Note_on_c, 0, 40, 0
4, 11520, Note_on_c, 0, 38, 44
4, 11520, Note_on_c, 0, 50, 44
4, 12480, Note_on_c, 0, 50, 0
4, 12480, Note_on_c, 0, 38, 0
4, 12960, Note_on_c, 0, 35, 44
4, 12960, Note_on_c, 0, 47, 44
4, 13920, Note_on_c, 0, 47, 0
4, 13920, Note_on_c, 0, 35, 0
4, 14400, Note_on_c, 0, 37, 44
4, 14400, Note_on_c, 0, 49, 44
4, 15360, Note_on_c, 0, 49, 0
4, 15360, Note_on_c, 0, 37, 0
4, 15840, Note_on_c, 0, 33, 44
4, 15840, Note_on_c, 0, 45, 44
4, 16800, Note_on_c, 0, 45, 0
4, 16800, Note_on_c, 0, 33, 0
4, 17280, Note_on_c, 0, 35, 44
4, 17280, Note_on_c, 0, 47, 44
4, 18240, Note_on_c, 0, 47, 0
4, 18240, Note_on_c, 0, 35, 0
4, 18720, Note_on_c, 0, 30, 44
4, 18720, Note_on_c, 0, 42, 44
4, 19680, Note_on_c, 0, 42, 0
4, 19680, Note_on_c, 0, 30, 0
4, 19680, Note_on_c, 0, 32, 44
4, 19680, Note_on_c, 0, 44, 44
4, 20160, Note_on_c, 0, 44, 0
4, 20160, Note_on_c, 0, 32, 0
4, 20160, Note_on_c, 0, 33, 44
4, 20160, Note_on_c, 0, 45, 44
4, 20640, Note_on_c, 0, 45, 0
4, 20640, Note_on_c, 0, 33, 0
4, 21600, Note_on_c, 0, 40, 44
4, 22080, Note_on_c, 0, 40, 0
4, 23040, Note_on_c, 0, 33, 44
4, 23040, Note_on_c, 0, 45, 44
4, 23520, Note_on_c, 0, 45, 0
4, 23520, Note_on_c, 0, 33, 0
4, 24480, Note_on_c, 0, 40, 44
4, 24960, Note_on_c, 0, 40, 0
4, 25920, Note_on_c, 0, 45, 44
4, 26400, Note_on_c, 0, 45, 0
4, 26400, Note_on_c, 0, 52, 44
4, 26400, Note_on_c, 0, 57, 44
4, 26880, Note_on_c, 0, 57, 0
4, 26880, Note_on_c, 0, 52, 0
4, 26880, Note_on_c, 0, 52, 44
4, 26880, Note_on_c, 0, 57, 44
4, 27360, Note_on_c, 0, 57, 0
4, 27360, Note_on_c, 0, 52, 0
4, 27360, Note_on_c, 0, 40, 44
4, 27840, Note_on_c, 0, 40, 0
4, 27840, Note_on_c, 0, 52, 44
4, 27840, Note_on_c, 0, 57, 44
4, 28320, Note_on_c, 0, 57, 0
4, 28320, Note_on_c, 0, 52, 0
4, 28320, Note_on_c, 0, 52, 44
4, 28320, Note_on_c, 0, 57, 44
4, 28800, Note_on_c, 0, 57, 0
4, 28800, Note_on_c, 0, 52, 0
4, 28800, Note_on_c, 0, 45, 44
4, 29280, Note_on_c, 0, 45, 0
4, 29280, Note_on_c, 0, 52, 44
4, 29280, Note_on_c, 0, 57, 44
4, 29760, Note_on_c, 0, 57, 0
4, 29760, Note_on_c, 0, 52, 0
4, 29760, Note_on_c, 0, 52, 44
4, 29760, Note_on_c, 0, 57, 44
4, 30240, Note_on_c, 0, 57, 0
4, 30240, Note_on_c, 0, 52, 0
4, 30240, Note_on_c, 0, 40, 44
4, 30720, Note_on_c, 0, 40, 0
4, 30720, Note_on_c, 0, 52, 44
4, 30720, Note_on_c, 0, 57, 44
4, 31200, Note_on_c, 0, 57, 0
4, 31200, Note_on_c, 0, 52, 0
4, 31200, Note_on_c, 0, 52, 44
4, 31200, Note_on_c, 0, 57, 44
4, 31680, Note_on_c, 0, 57, 0
4, 31680, Note_on_c, 0, 52, 0
4, 31680, Note_on_c, 0, 44, 44
4, 32160, Note_on_c, 0, 44, 0
4, 32160, Note_on_c, 0, 50, 44
4, 32160, Note_on_c, 0, 52, 44
4, 32640, Note_on_c, 0, 52, 0
4, 32640, Note_on_c, 0, 50, 0
4, 32640, Note_on_c, 0, 50, 44
4, 32640, Note_on_c, 0, 52, 44
4, 33120, Note_on_c, 0, 52, 0
4, 33120, Note_on_c, 0, 50, 0
4, 33120, Note_on_c, 0, 40, 44
4, 33600, Note_on_c, 0, 40, 0
4, 33600, Note_on_c, 0, 50, 44
4, 33600, Note_on_c, 0, 52, 44
4, 34080, Note_on_c, 0, 52, 0
4, 34080, Note_on_c, 0, 50, 0
4, 34080, Note_on_c, 0, 50, 44
4, 34080, Note_on_c, 0, 52, 44
4, 34560, Note_on_c, 0, 52, 0
4, 34560, Note_on_c, 0, 50, 0
4, 34560, Note_on_c, 0, 44, 44
4, 35040, Note_on_c, 0, 44, 0
4, 35040, Note_on_c, 0, 50, 44
4, 35040, Note_on_c, 0, 52, 44
4, 35520, Note_on_c, 0, 52, 0
4, 35520, Note_on_c, 0, 50, 0
4, 35520, Note_on_c, 0, 50, 44
4, 35520, Note_on_c, 0, 52, 44
4, 36000, Note_on_c, 0, 52, 0
4, 36000, Note_on_c, 0, 50, 0
4, 36000, Note_on_c, 0, 40, 44
4, 36480, Note_on_c, 0, 40, 0
4, 36480, Note_on_c, 0, 50, 44
4, 36480, Note_on_c, 0, 52, 44
4, 36960, Note_on_c, 0, 52, 0
4, 36960, Note_on_c, 0, 50, 0
4, 36960, Note_on_c, 0, 50, 44
4, 36960, Note_on_c, 0, 52, 44
4, 37440, Note_on_c, 0, 52, 0
4, 37440, Note_on_c, 0, 50, 0
4, 37440, Note_on_c, 0, 45, 44
4, 37920, Note_on_c, 0, 45, 0
4, 37920, Note_on_c, 0, 52, 44
4, 37920, Note_on_c, 0, 57, 44
4, 38400, Note_on_c, 0, 57, 0
4, 38400, Note_on_c, 0, 52, 0
4, 38400, Note_on_c, 0, 52, 44
4, 38400, Note_on_c, 0, 57, 44
4, 38880, Note_on_c, 0, 57, 0
4, 38880, Note_on_c, 0, 52, 0
4, 38880, Note_on_c, 0, 40, 44
4, 39360, Note_on_c, 0, 40, 0
4, 39360, Note_on_c, 0, 52, 44
4, 39360, Note_on_c, 0, 57, 44
4, 39840, Note_on_c, 0, 57, 0
4, 39840, Note_on_c, 0, 52, 0
4, 39840, Note_on_c, 0, 52, 44
4, 39840, Note_on_c, 0, 57, 44
4, 40320, Note_on_c, 0, 57, 0
4, 40320, Note_on_c, 0, 52, 0
4, 40320, Note_on_c, 0, 45, 44
4, 40800, Note_on_c, 0, 45, 0
4, 40800, Note_on_c, 0, 52, 44
4, 40800, Note_on_c, 0, 57, 44
4, 41280, Note_on_c, 0, 57, 0
4, 41280, Note_on_c, 0, 52, 0
4, 41280, Note_on_c, 0, 52, 44
4, 41280, Note_on_c, 0, 57, 44
4, 41760, Note_on_c, 0, 57, 0
4, 41760, Note_on_c, 0, 52, 0
4, 41760, Note_on_c, 0, 40, 44
4, 42240, Note_on_c, 0, 40, 0
4, 42240, Note_on_c, 0, 52, 44
4, 42240, Note_on_c, 0, 57, 44
4, 42720, Note_on_c, 0, 57, 0
4, 42720, Note_on_c, 0, 52, 0
4, 42720, Note_on_c, 0, 52, 44
4, 42720, Note_on_c, 0, 57, 44
4, 43200, Note_on_c, 0, 57, 0
4, 43200, Note_on_c, 0, 52, 0
4, 43200, Note_on_c, 0, 44, 44
4, 43680, Note_on_c, 0, 44, 0
4, 43680, Note_on_c, 0, 47, 44
4, 43680, Note_on_c, 0, 52, 44
4, 44160, Note_on_c, 0, 52, 0
4, 44160, Note_on_c, 0, 47, 0
4, 44160, Note_on_c, 0, 47, 44
4, 44160, Note_on_c, 0, 52, 44
4, 44640, Note_on_c, 0, 52, 0
4, 44640, Note_on_c, 0, 47, 0
4, 44640, Note_on_c, 0, 42, 44
4, 45120, Note_on_c, 0, 42, 0
4, 45120, Note_on_c, 0, 47, 44
4, 45120, Note_on_c, 0, 51, 44
4, 45600, Note_on_c, 0, 51, 0
4, 45600, Note_on_c, 0, 47, 0
4, 45600, Note_on_c, 0, 47, 44
4, 45600, Note_on_c, 0, 51, 44
4, 46080, Note_on_c, 0, 51, 0
4, 46080, Note_on_c, 0, 47, 0
4, 46080, Note_on_c, 0, 40, 44
4, 46560, Note_on_c, 0, 40, 0
4, 46560, Note_on_c, 0, 47, 44
4, 46560, Note_on_c, 0, 52, 44
4, 47040, Note_on_c, 0, 52, 0
4, 47040, Note_on_c, 0, 47, 0
4, 47040, Note_on_c, 0, 47, 44
4, 47040, Note_on_c, 0, 52, 44
4, 47520, Note_on_c, 0, 52, 0
4, 47520, Note_on_c, 0, 47, 0
4, 47520, Note_on_c, 0, 40, 57
4, 47567, Note_on_c, 0, 40, 0
4, 47760, Note_on_c, 0, 52, 57
4, 47807, Note_on_c, 0, 52, 0
4, 48000, Note_on_c, 0, 54, 57
4, 48047, Note_on_c, 0, 54, 0
4, 48240, Note_on_c, 0, 56, 57
4, 48287, Note_on_c, 0, 56, 0
4, 48480, Note_on_c, 0, 57, 57
4, 48527, Note_on_c, 0, 57, 0
4, 48720, Note_on_c, 0, 59, 57
4, 48767, Note_on_c, 0, 59, 0
4, 48960, Note_on_c, 0, 45, 44
4, 49440, Note_on_c, 0, 45, 0
4, 49440, Note_on_c, 0, 52, 44
4, 49440, Note_on_c, 0, 57, 44
4, 49920, Note_on_c, 0, 57, 0
4, 49920, Note_on_c, 0, 52, 0
4, 49920, Note_on_c, 0, 52, 44
4, 49920, Note_on_c, 0, 57, 44
4, 50400, Note_on_c, 0, 57, 0
4, 50400, Note_on_c, 0, 52, 0
4, 50400, Note_on_c, 0, 40, 44
4, 50880, Note_on_c, 0, 40, 0
4, 50880, Note_on_c, 0, 52, 44
4, 50880, Note_on_c, 0, 57, 44
4, 51360, Note_on_c, 0, 57, 0
4, 51360, Note_on_c, 0, 52, 0
4, 51360, Note_on_c, 0, 57, 44
4, 51600, Note_on_c, 0, 57, 0
4, 51600, Note_on_c, 0, 52, 44
4, 51840, Note_on_c, 0, 52, 0
4, 51840, Note_on_c, 0, 45, 44
4, 52320, Note_on_c, 0, 45, 0
4, 52320, Note_on_c, 0, 52, 44
4, 52320, Note_on_c, 0, 57, 44
4, 52800, Note_on_c, 0, 57, 0
4, 52800, Note_on_c, 0, 52, 0
4, 52800, Note_on_c, 0, 52, 44
4, 52800, Note_on_c, 0, 57, 44
4, 53280, Note_on_c, 0, 57, 0
4, 53280, Note_on_c, 0, 52, 0
4, 53280, Note_on_c, 0, 40, 44
4, 53760, Note_on_c, 0, 40, 0
4, 53760, Note_on_c, 0, 52, 44
4, 53760, Note_on_c, 0, 57, 44
4, 54240, Note_on_c, 0, 57, 0
4, 54240, Note_on_c, 0, 52, 0
4, 54240, Note_on_c, 0, 57, 44
4, 54480, Note_on_c, 0, 57, 0
4, 54480, Note_on_c, 0, 52, 44
4, 54720, Note_on_c, 0, 52, 0
4, 54720, Note_on_c, 0, 44, 44
4, 55200, Note_on_c, 0, 44, 0
4, 55200, Note_on_c, 0, 50, 44
4, 55200, Note_on_c, 0, 52, 44
4, 55680, Note_on_c, 0, 52, 0
4, 55680, Note_on_c, 0, 50, 0
4, 55680, Note_on_c, 0, 50, 44
4, 55680, Note_on_c, 0, 52, 44
4, 56160, Note_on_c, 0, 52, 0
4, 56160, Note_on_c, 0, 50, 0
4, 56160, Note_on_c, 0, 40, 44
4, 56640, Note_on_c, 0, 40, 0
4, 56640, Note_on_c, 0, 50, 44
4, 56640, Note_on_c, 0, 52, 44
4, 57120, Note_on_c, 0, 52, 0
4, 57120, Note_on_c, 0, 50, 0
4, 57120, Note_on_c, 0, 59, 44
4, 57360, Note_on_c, 0, 59, 0
4, 57360, Note_on_c, 0, 52, 44
4, 57600, Note_on_c, 0, 52, 0
4, 57600, Note_on_c, 0, 44, 44
4, 58080, Note_on_c, 0, 44, 0
4, 58080, Note_on_c, 0, 50, 44
4, 58080, Note_on_c, 0, 52, 44
4, 58560, Note_on_c, 0, 52, 0
4, 58560, Note_on_c, 0, 50, 0
4, 58560, Note_on_c, 0, 50, 44
4, 58560, Note_on_c, 0, 52, 44
4, 59040, Note_on_c, 0, 52, 0
4, 59040, Note_on_c, 0, 50, 0
4, 59040, Note_on_c, 0, 40, 44
4, 59520, Note_on_c, 0, 40, 0
4, 59520, Note_on_c, 0, 50, 44
4, 59520, Note_on_c, 0, 52, 44
4, 60000, Note_on_c, 0, 52, 0
4, 60000, Note_on_c, 0, 50, 0
4, 60000, Note_on_c, 0, 50, 44
4, 60000, Note_on_c, 0, 52, 44
4, 60480, Note_on_c, 0, 52, 0
4, 60480, Note_on_c, 0, 50, 0
4, 60480, Note_on_c, 0, 45, 44
4, 60960, Note_on_c, 0, 45, 0
4, 60960, Note_on_c, 0, 52, 44
4, 60960, Note_on_c, 0, 57, 44
4, 61440, Note_on_c, 0, 57, 0
4, 61440, Note_on_c, 0, 52, 0
4, 61440, Note_on_c, 0, 52, 44
4, 61440, Note_on_c, 0, 57, 44
4, 61920, Note_on_c, 0, 57, 0
4, 61920, Note_on_c, 0, 52, 0
4, 61920, Note_on_c, 0, 40, 44
4, 62400, Note_on_c, 0, 40, 0
4, 62400, Note_on_c, 0, 52, 44
4, 62400, Note_on_c, 0, 57, 44
4, 62880, Note_on_c, 0, 57, 0
4, 62880, Note_on_c, 0, 52, 0
4, 62880, Note_on_c, 0, 57, 44
4, 63120, Note_on_c, 0, 57, 0
4, 63120, Note_on_c, 0, 52, 44
4, 63360, Note_on_c, 0, 52, 0
4, 63360, Note_on_c, 0, 45, 44
4, 63840, Note_on_c, 0, 45, 0
4, 63840, Note_on_c, 0, 52, 44
4, 63840, Note_on_c, 0, 57, 44
4, 64320, Note_on_c, 0, 57, 0
4, 64320, Note_on_c, 0, 52, 0
4, 64320, Note_on_c, 0, 52, 44
4, 64320, Note_on_c, 0, 57, 44
4, 64800, Note_on_c, 0, 57, 0
4, 64800, Note_on_c, 0, 52, 0
4, 64800, Note_on_c, 0, 40, 44
4, 65280, Note_on_c, 0, 40, 0
4, 65280, Note_on_c, 0, 52, 44
4, 65280, Note_on_c, 0, 57, 44
4, 65760, Note_on_c, 0, 57, 0
4, 65760, Note_on_c, 0, 52, 0
4, 65760, Note_on_c, 0, 57, 44
4, 66000, Note_on_c, 0, 57, 0
4, 66000, Note_on_c, 0, 52, 44
4, 66240, Note_on_c, 0, 52, 0
4, 66720, Note_on_c, 0, 52, 44
4, 66720, Note_on_c, 0, 59, 44
4, 67200, Note_on_c, 0, 59, 0
4, 67200, Note_on_c, 0, 52, 0
4, 67200, Note_on_c, 0, 52, 44
4, 67200, Note_on_c, 0, 59, 44
4, 67680, Note_on_c, 0, 59, 0
4, 67680, Note_on_c, 0, 52, 0
4, 68160, Note_on_c, 0, 51, 44
4, 68160, Note_on_c, 0, 54, 44
4, 68160, Note_on_c, 0, 59, 44
4, 68640, Note_on_c, 0, 59, 0
4, 68640, Note_on_c, 0, 54, 0
4, 68640, Note_on_c, 0, 51, 0
4, 68640, Note_on_c, 0, 51, 44
4, 68640, Note_on_c, 0, 54, 44
4, 68640, Note_on_c, 0, 59, 44
4, 69120, Note_on_c, 0, 59, 0
4, 69120, Note_on_c, 0, 54, 0
4, 69120, Note_on_c, 0, 51, 0
4, 69600, Note_on_c, 0, 56, 44
4, 69600, Note_on_c, 0, 59, 44
4, 70080, Note_on_c, 0, 59, 0
4, 70080, Note_on_c, 0, 56, 0
4, 70080, Note_on_c, 0, 56, 44
4, 70080, Note_on_c, 0, 59, 44
4, 70560, Note_on_c, 0, 59, 0
4, 70560, Note_on_c, 0, 56, 0
4, 70560, Note_on_c, 0, 52, 44
4, 70560, Note_on_c, 0, 56, 44
4, 70560, Note_on_c, 0, 59, 44
4, 71040, Note_on_c, 0, 59, 0
4, 71040, Note_on_c, 0, 56, 0
4, 71040, Note_on_c, 0, 52, 0
4, 72000, Control_c, 0, 64, 127
4, 72000, Note_on_c, 0, 38, 96
4, 72120, Note_on_c, 0, 38, 0
4, 72120, Note_on_c, 0, 50, 70
4, 72240, Note_on_c, 0, 50, 0
4, 72240, Note_on_c, 0, 38, 70
4, 72360, Note_on_c, 0, 38, 0
4, 72360, Note_on_c, 0, 50, 70
4, 72480, Note_on_c, 0, 50, 0
4, 72480, Note_on_c, 0, 38, 70
4, 72600, Note_on_c, 0, 38, 0
4, 72600, Note_on_c, 0, 50, 70
4, 72720, Note_on_c, 0, 50, 0
4, 72720, Note_on_c, 0, 38, 70
4, 72840, Note_on_c, 0, 38, 0
4, 72840, Note_on_c, 0, 50, 70
4, 72960, Note_on_c, 0, 50, 0
4, 72960, Note_on_c, 0, 38, 70
4, 73080, Note_on_c, 0, 38, 0
4, 73080, Note_on_c, 0, 50, 70
4, 73200, Note_on_c, 0, 50, 0
4, 73200, Note_on_c, 0, 38, 70
4, 73320, Note_on_c, 0, 38, 0
4, 73320, Note_on_c, 0, 50, 70
4, 73440, Note_on_c, 0, 50, 0
4, 73440, Note_on_c, 0, 38, 70
4, 73560, Note_on_c, 0, 38, 0
4, 73560, Note_on_c, 0, 50, 70
4, 73680, Note_on_c, 0, 50, 0
4, 73680, Note_on_c, 0, 38, 70
4, 73800, Note_on_c, 0, 38, 0
4, 73800, Note_on_c, 0, 50, 70
4, 73920, Note_on_c, 0, 50, 0
4, 73920, Note_on_c, 0, 38, 70
4, 74040, Note_on_c, 0, 38, 0
4, 74040, Note_on_c, 0, 50, 70
4, 74160, Note_on_c, 0, 50, 0
4, 74160, Note_on_c, 0, 38, 70
4, 74280, Note_on_c, 0, 38, 0
4, 74280, Note_on_c, 0, 50, 70
4, 74400, Note_on_c, 0, 50, 0
4, 74400, Note_on_c, 0, 38, 70
4, 74520, Note_on_c, 0, 38, 0
4, 74520, Note_on_c, 0, 50, 70
4, 74640, Note_on_c, 0, 50, 0
4, 74640, Note_on_c, 0, 38, 70
4, 74760, Note_on_c, 0, 38, 0
4, 74760, Control_c, 0, 64, 0
4, 74760, Note_on_c, 0, 50, 70
4, 74880, Note_on_c, 0, 50, 0
4, 75360, Note_on_c, 0, 56, 83
4, 75360, Note_on_c, 0, 61, 83
4, 75360, Note_on_c, 0, 64, 83
4, 75840, Note_on_c, 0, 64, 0
4, 75840, Note_on_c, 0, 61, 0
4, 75840, Note_on_c, 0, 56, 0
4, 75840, Note_on_c, 0, 56, 83
4, 75840, Note_on_c, 0, 61, 83
4, 75840, Note_on_c, 0, 64, 83
4, 76320, Note_on_c, 0, 64, 0
4, 76320, Note_on_c, 0, 61, 0
4, 76320, Note_on_c, 0, 56, 0
4, 76800, Note_on_c, 0, 56, 83
4, 76800, Note_on_c, 0, 61, 83
4, 76800, Note_on_c, 0, 64, 83
4, 77280, Note_on_c, 0, 64, 0
4, 77280, Note_on_c, 0, 61, 0
4, 77280, Note_on_c, 0, 56, 0
4, 77280, Note_on_c, 0, 56, 83
4, 77280, Note_on_c, 0, 61, 83
4, 77280, Note_on_c, 0, 64, 83
4, 77760, Note_on_c, 0, 64, 0
4, 77760, Note_on_c, 0, 61, 0
4, 77760, Note_on_c, 0, 56, 0
4, 78240, Note_on_c, 0, 56, 83
4, 78240, Note_on_c, 0, 62, 83
4, 78240, Note_on_c, 0, 64, 83
4, 78720, Note_on_c, 0, 64, 0
4, 78720, Note_on_c, 0, 62, 0
4, 78720, Note_on_c, 0, 56, 0
4, 78720, Note_on_c, 0, 56, 83
4, 78720, Note_on_c, 0, 62, 83
4, 78720, Note_on_c, 0, 64, 83
4, 79200, Note_on_c, 0, 64, 0
4, 79200, Note_on_c, 0, 62, 0
4, 79200, Note_on_c, 0, 56, 0
4, 79680, Note_on_c, 0, 56, 83
4, 79680, Note_on_c, 0, 62, 83
4, 79680, Note_on_c, 0, 64, 83
4, 80160, Note_on_c, 0, 64, 0
4, 80160, Note_on_c, 0, 62, 0
4, 80160, Note_on_c, 0, 56, 0
4, 80160, Note_on_c, 0, 56, 83
4, 80160, Note_on_c, 0, 62, 83
4, 80160, Note_on_c, 0, 64, 83
4, 80640, Note_on_c, 0, 64, 0
4, 80640, Note_on_c, 0, 62, 0
4, 80640, Note_on_c, 0, 56, 0
4, 81120, Note_on_c, 0, 57, 83
4, 81120, Note_on_c, 0, 61, 83
4, 81120, Note_on_c, 0, 64, 83
4, 81600, Note_on_c, 0, 64, 0
4, 81600, Note_on_c, 0, 61, 0
4, 81600, Note_on_c, 0, 57, 0
4, 81600, Note_on_c, 0, 57, 83
4, 81600, Note_on_c, 0, 61, 83
4, 81600, Note_on_c, 0, 64, 83
4, 82080, Note_on_c, 0, 64, 0
4, 82080, Note_on_c, 0, 61, 0
4, 82080, Note_on_c, 0, 57, 0
4, 82560, Note_on_c, 0, 52, 83
4, 82560, Note_on_c, 0, 57, 83
4, 82560, Note_on_c, 0, 61, 83
4, 82560, Note_on_c, 0, 64, 83
4, 83040, Note_on_c, 0, 64, 0
4, 83040, Note_on_c, 0, 52, 0
4, 83040, Note_on_c, 0, 57, 0
4, 83040, Note_on_c, 0, 61, 0
4, 83040, Note_on_c, 0, 52, 83
4, 83040, Note_on_c, 0, 57, 83
4, 83040, Note_on_c, 0, 61, 83
4, 83040, Note_on_c, 0, 64, 83
4, 83520, Note_on_c, 0, 64, 0
4, 83520, Note_on_c, 0, 52, 0
4, 83520, Note_on_c, 0, 57, 0
4, 83520, Note_on_c, 0, 61, 0
4, 84000, Note_on_c, 0, 54, 83
4, 84000, Note_on_c, 0, 59, 83
4, 84000, Note_on_c, 0, 62, 83
4, 84480, Note_on_c, 0, 62, 0
4, 84480, Note_on_c, 0, 59, 0
4, 84480, Note_on_c, 0, 54, 0
4, 84480, Note_on_c, 0, 54, 83
4, 84480, Note_on_c, 0, 59, 83
4, 84480, Note_on_c, 0, 62, 83
4, 84960, Note_on_c, 0, 62, 0
4, 84960, Note_on_c, 0, 59, 0
4, 84960, Note_on_c, 0, 54, 0
4, 85440, Note_on_c, 0, 54, 83
4, 85440, Note_on_c, 0, 59, 83
4, 85440, Note_on_c, 0, 62, 83
4, 85920, Note_on_c, 0, 62, 0
4, 85920, Note_on_c, 0, 59, 0
4, 85920, Note_on_c, 0, 54, 0
4, 85920, Note_on_c, 0, 54, 83
4, 85920, Note_on_c, 0, 59, 83
4, 85920, Note_on_c, 0, 62, 83
4, 86400, Note_on_c, 0, 62, 0
4, 86400, Note_on_c, 0, 59, 0
4, 86400, Note_on_c, 0, 54, 0
4, 86880, Note_on_c, 0, 52, 83
4, 86880, Note_on_c, 0, 57, 83
4, 86880, Note_on_c, 0, 61, 83
4, 86880, Note_on_c, 0, 64, 83
4, 87840, Note_on_c, 0, 64, 0
4, 87840, Note_on_c, 0, 52, 0
4, 87840, Note_on_c, 0, 57, 0
4, 87840, Note_on_c, 0, 61, 0
4, 88320, Note_on_c, 0, 54, 83
4, 88320, Note_on_c, 0, 58, 83
4, 88320, Note_on_c, 0, 61, 83
4, 88320, Note_on_c, 0, 66, 83
4, 89280, Note_on_c, 0, 66, 0
4, 89280, Note_on_c, 0, 54, 0
4, 89280, Note_on_c, 0, 58, 0
4, 89280, Note_on_c, 0, 61, 0
4, 89760, Note_on_c, 0, 54, 83
4, 89760, Note_on_c, 0, 59, 83
4, 89760, Note_on_c, 0, 62, 83
4, 89760, Note_on_c, 0, 66, 83
4, 90720, Note_on_c, 0, 66, 0
4, 90720, Note_on_c, 0, 54, 0
4, 90720, Note_on_c, 0, 59, 0
4, 90720, Note_on_c, 0, 62, 0
4, 91200, Note_on_c, 0, 56, 83
4, 91200, Note_on_c, 0, 59, 83
4, 91200, Note_on_c, 0, 64, 83
4, 92160, Note_on_c, 0, 64, 0
4, 92160, Note_on_c, 0, 59, 0
4, 92160, Note_on_c, 0, 56, 0
4, 92160, Note_on_c, 0, 45, 83
4, 92160, Note_on_c, 0, 52, 83
4, 92160, Note_on_c, 0, 61, 83
4, 92640, Note_on_c, 0, 61, 0
4, 92640, Note_on_c, 0, 52, 0
4, 92640, Note_on_c, 0, 45, 0
4, 92640, Note_on_c, 0, 68, 109
4, 93360, Note_on_c, 0, 68, 0
4, 93360, Note_on_c, 0, 66, 83
4, 93600, Note_on_c, 0, 66, 0
4, 93600, Note_on_c, 0, 66, 83
4, 94560, Note_on_c, 0, 66, 0
4, 94560, Note_on_c, 0, 64, 83
4, 95040, Note_on_c, 0, 64, 0
4, 95040, Control_c, 0, 64, 127
4, 95040, Note_on_c, 0, 38, 96
4, 95160, Note_on_c, 0, 38, 0
4, 95160, Note_on_c, 0, 50, 70
4, 95280, Note_on_c, 0, 50, 0
4, 95280, Note_on_c, 0, 38, 70
4, 95400, Note_on_c, 0, 38, 0
4, 95400, Note_on_c, 0, 50, 70
4, 95520, Note_on_c, 0, 50, 0
4, 95520, Note_on_c, 0, 38, 70
4, 95640, Note_on_c, 0, 38, 0
4, 95640, Note_on_c, 0, 50, 70
4, 95760, Note_on_c, 0, 50, 0
4, 95760, Note_on_c, 0, 38, 70
4, 95880, Note_on_c, 0, 38, 0
4, 95880, Note_on_c, 0, 50, 70
4, 96000, Note_on_c, 0, 50, 0
4, 96000, Note_on_c, 0, 38, 70
4, 96120, Note_on_c, 0, 38, 0
4, 96120, Note_on_c, 0, 50, 70
4, 96240, Note_on_c, 0, 50, 0
4, 96240, Note_on_c, 0, 38, 70
4, 96360, Note_on_c, 0, 38, 0
4, 96360, Note_on_c, 0, 50, 70
4, 96480, Note_on_c, 0, 50, 0
4, 96480, Note_on_c, 0, 38, 70
4, 96600, Note_on_c, 0, 38, 0
4, 96600, Note_on_c, 0, 50, 70
4, 96720, Note_on_c, 0, 50, 0
4, 96720, Note_on_c, 0, 38, 70
4, 96840, Note_on_c, 0, 38, 0
4, 96840, Note_on_c, 0, 50, 70
4, 96960, Note_on_c, 0, 50, 0
4, 96960, Note_on_c, 0, 38, 70
4, 97080, Note_on_c, 0, 38, 0
4, 97080, Note_on_c, 0, 50, 70
4, 97200, Note_on_c, 0, 50, 0
4, 97200, Note_on_c, 0, 38, 70
4, 97320, Note_on_c, 0, 38, 0
4, 97320, Note_on_c, 0, 50, 70
4, 97440, Note_on_c, 0, 50, 0
4, 97440, Note_on_c, 0, 38, 70
4, 97560, Note_on_c, 0, 38, 0
4, 97560, Note_on_c, 0, 50, 70
4, 97680, Note_on_c, 0, 50, 0
4, 97680, Note_on_c, 0, 38, 70
4, 97800, Note_on_c, 0, 38, 0
4, 97800, Control_c, 0, 64, 0
4, 97800, Note_on_c, 0, 50, 70
4, 97920, Note_on_c, 0, 50, 0
4, 98400, Note_on_c, 0, 56, 83
4, 98400, Note_on_c, 0, 61, 83
4, 98400, Note_on_c, 0, 64, 83
4, 98880, Note_on_c, 0, 64, 0
4, 98880, Note_on_c, 0, 61, 0
4, 98880, Note_on_c, 0, 56, 0
4, 98880, Note_on_c, 0, 56, 83
4, 98880, Note_on_c, 0, 61, 83
4, 98880, Note_on_c, 0, 64, 83
4, 99360, Note_on_c, 0, 64, 0
4, 99360, Note_on_c, 0, 61, 0
4, 99360, Note_on_c, 0, 56, 0
4, 99840, Note_on_c, 0, 56, 83
4, 99840, Note_on_c, 0, 61, 83
4, 99840, Note_on_c, 0, 64, 83
4, 100320, Note_on_c, 0, 64, 0
4, 100320, Note_on_c, 0, 61, 0
4, 100320, Note_on_c, 0, 56, 0
4, 100320, Note_on_c, 0, 56, 83
4, 100320, Note_on_c, 0, 61, 83
4, 100320, Note_on_c, 0, 64, 83
4, 100800, Note_on_c, 0, 64, 0
4, 100800, Note_on_c, 0, 61, 0
4, 100800, Note_on_c, 0, 56, 0
4, 101280, Note_on_c, 0, 56, 83
4, 101280, Note_on_c, 0, 62, 83
4, 101280, Note_on_c, 0, 64, 83
4, 101760, Note_on_c, 0, 64, 0
4, 101760, Note_on_c, 0, 62, 0
4, 101760, Note_on_c, 0, 56, 0
4, 101760, Note_on_c, 0, 56, 83
4, 101760, Note_on_c, 0, 62, 83
4, 101760, Note_on_c, 0, 64, 83
4, 102240, Note_on_c, 0, 64, 0
4, 102240, Note_on_c, 0, 62, 0
4, 102240, Note_on_c, 0, 56, 0
4, 102720, Note_on_c, 0, 56, 83
4, 102720, Note_on_c, 0, 62, 83
4, 102720, Note_on_c, 0, 64, 83
4, 103200, Note_on_c, 0, 64, 0
4, 103200, Note_on_c, 0, 62, 0
4, 103200, Note_on_c, 0, 56, 0
4, 103200, Note_on_c, 0, 56, 83
4, 103200, Note_on_c, 0, 62, 83
4, 103200, Note_on_c, 0, 64, 83
4, 103680, Note_on_c, 0, 64, 0
4, 103680, Note_on_c, 0, 62, 0
4, 103680, Note_on_c, 0, 56, 0
4, 104160, Note_on_c, 0, 57, 83
4, 104160, Note_on_c, 0, 61, 83
4, 104160, Note_on_c, 0, 64, 83
4, 104640, Note_on_c, 0, 64, 0
4, 104640, Note_on_c, 0, 61, 0
4, 104640, Note_on_c, 0, 57, 0
4, 104640, Note_on_c, 0, 57, 83
4, 104640, Note_on_c, 0, 61, 83
4, 104640, Note_on_c, 0, 64, 83
4, 105120, Note_on_c, 0, 64, 0
4, 105120, Note_on_c, 0, 61, 0
4, 105120, Note_on_c, 0, 57, 0
4, 105600, Note_on_c, 0, 52, 83
4, 105600, Note_on_c, 0, 57, 83
4, 105600, Note_on_c, 0, 61, 83
4, 105600, Note_on_c, 0, 64, 83
4, 106080, Note_on_c, 0, 64, 0
4, 106080, Note_on_c, 0, 52, 0
4, 106080, Note_on_c, 0, 57, 0
4, 106080, Note_on_c, 0, 61, 0
4, 106080, Note_on_c, 0, 52, 83
4, 106080, Note_on_c, 0, 57, 83
4, 106080, Note_on_c, 0, 61, 83
4, 106080, Note_on_c, 0, 64, 83
4, 106560, Note_on_c, 0, 64, 0
4, 106560, Note_on_c, 0, 52, 0
4, 106560, Note_on_c, 0, 57, 0
4, 106560, Note_on_c, 0, 61, 0
4, 107040, Note_on_c, 0, 54, 83
4, 107040, Note_on_c, 0, 59, 83
4, 107040, Note_on_c, 0, 62, 83
4, 107520, Note_on_c, 0, 62, 0
4, 107520, Note_on_c, 0, 59, 0
4, 107520, Note_on_c, 0, 54, 0
4, 107520, Note_on_c, 0, 54, 83
4, 107520, Note_on_c, 0, 59, 83
4, 107520, Note_on_c, 0, 62, 83
4, 108000, Note_on_c, 0, 62, 0
4, 108000, Note_on_c, 0, 59, 0
4, 108000, Note_on_c, 0, 54, 0
4, 108480, Note_on_c, 0, 54, 83
4, 108480, Note_on_c, 0, 59, 83
4, 108480, Note_on_c, 0, 62, 83
4, 108960, Note_on_c, 0, 62, 0
4, 108960, Note_on_c, 0, 59, 0
4, 108960, Note_on_c, 0, 54, 0
4, 108960, Note_on_c, 0, 54, 83
4, 108960, Note_on_c, 0, 59, 83
4, 108960, Note_on_c, 0, 62, 83
4, 109440, Note_on_c, 0, 62, 0
4, 109440, Note_on_c, 0, 59, 0
4, 109440, Note_on_c, 0, 54, 0
4, 109920, Note_on_c, 0, 52, 83
4, 109920, Note_on_c, 0, 57, 83
4, 109920, Note_on_c, 0, 61, 83
4, 109920, Note_on_c, 0, 64, 83
4, 110880, Note_on_c, 0, 64, 0
4, 110880, Note_on_c, 0, 52, 0
4, 110880, Note_on_c, 0, 57, 0
4, 110880, Note_on_c, 0, 61, 0
4, 111360, Note_on_c, 0, 54, 83
4, 111360, Note_on_c, 0, 58, 83
4, 111360, Note_on_c, 0, 61, 83
4, 111360, Note_on_c, 0, 66, 83
4, 112320, Note_on_c, 0, 66, 0
4, 112320, Note_on_c, 0, 54, 0
4, 112320, Note_on_c, 0, 58, 0
4, 112320, Note_on_c, 0, 61, 0
4, 112800, Note_on_c, 0, 54, 83
4, 112800, Note_on_c, 0, 59, 83
4, 112800, Note_on_c, 0, 62, 83
4, 112800, Note_on_c, 0, 66, 83
4, 113760, Note_on_c, 0, 66, 0
4, 113760, Note_on_c, 0, 54, 0
4, 113760, Note_on_c, 0, 59, 0
4, 113760, Note_on_c, 0, 62, 0
4, 114240, Note_on_c, 0, 56, 83
4, 114240, Note_on_c, 0, 59, 83
4, 114240, Note_on_c, 0, 64, 83
4, 115200, Note_on_c, 0, 64, 0
4, 115200, Note_on_c, 0, 59, 0
4, 115200, Note_on_c, 0, 56, 0
4, 115200, Note_on_c, 0, 45, 83
4, 115200, Note_on_c, 0, 52, 83
4, 115200, Note_on_c, 0, 61, 83
4, 115680, Note_on_c, 0, 61, 0
4, 115680, Note_on_c, 0, 52, 0
4, 115680, Note_on_c, 0, 45, 0
4, 115680, Note_on_c, 0, 57, 83
4, 115680, Note_on_c, 0, 61, 83
4, 115680, Note_on_c, 0, 64, 83
4, 116400, Note_on_c, 0, 64, 0
4, 116400, Note_on_c, 0, 61, 0
4, 116400, Note_on_c, 0, 57, 0
4, 116400, Note_on_c, 0, 57, 83
4, 116400, Note_on_c, 0, 61, 83
4, 116400, Note_on_c, 0, 64, 83
4, 116640, Note_on_c, 0, 64, 0
4, 116640, Note_on_c, 0, 61, 0
4, 116640, Note_on_c, 0, 57, 0
4, 116640, Note_on_c, 0, 57, 83
4, 116640, Note_on_c, 0, 61, 83
4, 116640, Note_on_c, 0, 64, 83
4, 117120, Note_on_c, 0, 64, 0
4, 117120, Note_on_c, 0, 61, 0
4, 117120, Note_on_c, 0, 57, 0
4, 118560, Note_on_c, 0, 54, 44
4, 118560, Note_on_c, 0, 57, 44
4, 118560, Note_on_c, 0, 61, 44
4, 118560, Note_on_c, 0, 66, 44
4, 119520, Note_on_c, 0, 66, 0
4, 119520, Note_on_c, 0, 54, 0
4, 119520, Note_on_c, 0, 57, 0
4, 119520, Note_on_c, 0, 61, 0
4, 119520, Note_on_c, 0, 54, 44
4, 119520, Note_on_c, 0, 57, 44
4, 119520, Note_on_c, 0, 61, 44
4, 119520, Note_on_c, 0, 66, 44
4, 120480, Note_on_c, 0, 66, 0
4, 120480, Note_on_c, 0, 54, 0
4, 120480, Note_on_c, 0, 57, 0
4, 120480, Note_on_c, 0, 61, 0
4, 120480, Note_on_c, 0, 54, 44
4, 120480, Note_on_c, 0, 57, 44
4, 120480, Note_on_c, 0, 61, 44
4, 120480, Note_on_c, 0, 66, 44
4, 121440, Note_on_c, 0, 66, 0
4, 121440, Note_on_c, 0, 54, 0
4, 121440, Note_on_c, 0, 57, 0
4, 121440, Note_on_c, 0, 61, 0
4, 121440, Note_on_c, 0, 54, 44
4, 121440, Note_on_c, 0, 57, 44
4, 121440, Note_on_c, 0, 61, 44
4, 121440, Note_on_c, 0, 66, 44
4, 122400, Note_on_c, 0, 66, 0
4, 122400, Note_on_c, 0, 54, 0
4, 122400, Note_on_c, 0, 57, 0
4, 122400, Note_on_c, 0, 61, 0
4, 122400, Note_on_c, 0, 54, 44
4, 122400, Note_on_c, 0, 57, 44
4, 122400, Note_on_c, 0, 61, 44
4, 122400, Note_on_c, 0, 66, 44
4, 122880, Note_on_c, 0, 66, 0
4, 122880, Note_on_c, 0, 54, 0
4, 122880, Note_on_c, 0, 57, 0
4, 122880, Note_on_c, 0, 61, 0
4, 122880, Note_on_c, 0, 54, 70
4, 122880, Note_on_c, 0, 59, 70
4, 122880, Note_on_c, 0, 61, 70
4, 122880, Note_on_c, 0, 65, 70
4, 123600, Note_on_c, 0, 65, 0
4, 123600, Note_on_c, 0, 54, 0
4, 123600, Note_on_c, 0, 59, 0
4, 123600, Note_on_c, 0, 61, 0
4, 123600, Note_on_c, 0, 54, 44
4, 123600, Note_on_c, 0, 59, 44
4, 123600, Note_on_c, 0, 61, 44
4, 123600, Note_on_c, 0, 65, 44
4, 123840, Note_on_c, 0, 65, 0
4, 123840, Note_on_c, 0, 54, 0
4, 123840, Note_on_c, 0, 59, 0
4, 123840, Note_on_c, 0, 61, 0
4, 123840, Note_on_c, 0, 54, 44
4, 123840, Note_on_c, 0, 57, 44
4, 123840, Note_on_c, 0, 61, 44
4, 123840, Note_on_c, 0, 66, 44
4, 124320, Note_on_c, 0, 66, 0
4, 124320, Note_on_c, 0, 54, 0
4, 124320, Note_on_c, 0, 57, 0
4, 124320, Note_on_c, 0, 61, 0
4, 124320, Note_on_c, 0, 54, 44
4, 124320, Note_on_c, 0, 57, 44
4, 124320, Note_on_c, 0, 61, 44
4, 124320, Note_on_c, 0, 66, 44
4, 125280, Note_on_c, 0, 66, 0
4, 125280, Note_on_c, 0, 54, 0
4, 125280, Note_on_c, 0, 57, 0
4, 125280, Note_on_c, 0, 61, 0
4, 125280, Note_on_c, 0, 54, 44
4, 125280, Note_on_c, 0, 57, 44
4, 125280, Note_on_c, 0, 61, 44
4, 125280, Note_on_c, 0, 66, 44
4, 126240, Note_on_c, 0, 66, 0
4, 126240, Note_on_c, 0, 54, 0
4, 126240, Note_on_c, 0, 57, 0
4, 126240, Note_on_c, 0, 61, 0
4, 126240, Note_on_c, 0, 54, 44
4, 126240, Note_on_c, 0, 57, 44
4, 126240, Note_on_c, 0, 61, 44
4, 126240, Note_on_c, 0, 66, 44
4, 126720, Note_on_c, 0, 66, 0
4, 126720, Note_on_c, 0, 54, 0
4, 126720, Note_on_c, 0, 57, 0
4, 126720, Note_on_c, 0, 61, 0
4, 126720, Note_on_c, 0, 54, 44
4, 126720, Note_on_c, 0, 57, 44
4, 126720, Note_on_c, 0, 61, 44
4, 126720, Note_on_c, 0, 66, 44
4, 127200, Note_on_c, 0, 66, 0
4, 127200, Note_on_c, 0, 54, 0
4, 127200, Note_on_c, 0, 57, 0
4, 127200, Note_on_c, 0, 61, 0
4, 127200, Note_on_c, 0, 54, 70
4, 127200, Note_on_c, 0, 59, 70
4, 127200, Note_on_c, 0, 61, 70
4, 127200, Note_on_c, 0, 65, 70
4, 127920, Note_on_c, 0, 65, 0
4, 127920, Note_on_c, 0, 54, 0
4, 127920, Note_on_c, 0, 59, 0
4, 127920, Note_on_c, 0, 61, 0
4, 127920, Note_on_c, 0, 54, 44
4, 127920, Note_on_c, 0, 59, 44
4, 127920, Note_on_c, 0, 61, 44
4, 127920, Note_on_c, 0, 65, 44
4, 128160, Note_on_c, 0, 65, 0
4, 128160, Note_on_c, 0, 54, 0
4, 128160, Note_on_c, 0, 59, 0
4, 128160, Note_on_c, 0, 61, 0
4, 128160, Note_on_c, 0, 54, 44
4, 128160, Note_on_c, 0, 57, 44
4, 128160, Note_on_c, 0, 61, 44
4, 128160, Note_on_c, 0, 66, 44
4, 128640, Note_on_c, 0, 66, 0
4, 128640, Note_on_c, 0, 54, 0
4, 128640, Note_on_c, 0, 57, 0
4, 128640, Note_on_c, 0, 61, 0
4, 130080, Note_on_c, 0, 54, 44
4, 130080, Note_on_c, 0, 57, 44
4, 130080, Note_on_c, 0, 61, 44
4, 130080, Note_on_c, 0, 66, 44
4, 131040, Note_on_c, 0, 66, 0
4, 131040, Note_on_c, 0, 54, 0
4, 131040, Note_on_c, 0, 57, 0
4, 131040, Note_on_c, 0, 61, 0
4, 131040, Note_on_c, 0, 54, 44
4, 131040, Note_on_c, 0, 57, 44
4, 131040, Note_on_c, 0, 61, 44
4, 131040, Note_on_c, 0, 66, 44
4, 132000, Note_on_c, 0, 66, 0
4, 132000, Note_on_c, 0, 54, 0
4, 132000, Note_on_c, 0, 57, 0
4, 132000, Note_on_c, 0, 61, 0
4, 132000, Note_on_c, 0, 54, 44
4, 132000, Note_on_c, 0, 57, 44
4, 132000, Note_on_c, 0, 61, 44
4, 132000, Note_on_c, 0, 66, 44
4, 132960, Note_on_c, 0, 66, 0
4, 132960, Note_on_c, 0, 54, 0
4, 132960, Note_on_c, 0, 57, 0
4, 132960, Note_on_c, 0, 61, 0
4, 132960, Note_on_c, 0, 54, 44
4, 132960, Note_on_c, 0, 57, 44
4, 132960, Note_on_c, 0, 61, 44
4, 132960, Note_on_c, 0, 66, 44
4, 133920, Note_on_c, 0, 66, 0
4, 133920, Note_on_c, 0, 54, 0
4, 133920, Note_on_c, 0, 57, 0
4, 133920, Note_on_c, 0, 61, 0
4, 133920, Note_on_c, 0, 54, 44
4, 133920, Note_on_c, 0, 57, 44
4, 133920, Note_on_c, 0, 61, 44
4, 133920, Note_on_c, 0, 66, 44
4, 134400, Note_on_c, 0, 66, 0
4, 134400, Note_on_c, 0, 54, 0
4, 134400, Note_on_c, 0, 57, 0
4, 134400, Note_on_c, 0, 61, 0
4, 134400, Note_on_c, 0, 54, 70
4, 134400, Note_on_c, 0, 59, 70
4, 134400, Note_on_c, 0, 61, 70
4, 134400, Note_on_c, 0, 65, 70
4, 135120, Note_on_c, 0, 65, 0
4, 135120, Note_on_c, 0, 54, 0
4, 135120, Note_on_c, 0, 59, 0
4, 135120, Note_on_c, 0, 61, 0
4, 135120, Note_on_c, 0, 54, 44
4, 135120, Note_on_c, 0, 59, 44
4, 135120, Note_on_c, 0, 61, 44
4, 135120, Note_on_c, 0, 65, 44
4, 135360, Note_on_c, 0, 65, 0
4, 135360, Note_on_c, 0, 54, 0
4, 135360, Note_on_c, 0, 59, 0
4, 135360, Note_on_c, 0, 61, 0
4, 135360, Note_on_c, 0, 54, 44
4, 135360, Note_on_c, 0, 57, 44
4, 135360, Note_on_c, 0, 61, 44
4, 135360, Note_on_c, 0, 66, 44
4, 135840, Note_on_c, 0, 66, 0
4, 135840, Note_on_c, 0, 54, 0
4, 135840, Note_on_c, 0, 57, 0
4, 135840, Note_on_c, 0, 61, 0
4, 135840, Note_on_c, 0, 54, 44
4, 135840, Note_on_c, 0, 57, 44
4, 135840, Note_on_c, 0, 61, 44
4, 135840, Note_on_c, 0, 66, 44
4, 136800, Note_on_c, 0, 66, 0
4, 136800, Note_on_c, 0, 54, 0
4, 136800, Note_on_c, 0, 57, 0
4, 136800, Note_on_c, 0, 61, 0
4, 136800, Note_on_c, 0, 54, 44
4, 136800, Note_on_c, 0, 57, 44
4, 136800, Note_on_c, 0, 61, 44
4, 136800, Note_on_c, 0, 66, 44
4, 137760, Note_on_c, 0, 66, 0
4, 137760, Note_on_c, 0, 54, 0
4, 137760, Note_on_c, 0, 57, 0
4, 137760, Note_on_c, 0, 61, 0
4, 137760, Note_on_c, 0, 54, 44
4, 137760, Note_on_c, 0, 57, 44
4, 137760, Note_on_c, 0, 61, 44
4, 137760, Note_on_c, 0, 66, 44
4, 138240, Note_on_c, 0, 66, 0
4, 138240, Note_on_c, 0, 54, 0
4, 138240, Note_on_c, 0, 57, 0
4, 138240, Note_on_c, 0, 61, 0
4, 138240, Note_on_c, 0, 54, 44
4, 138240, Note_on_c, 0, 57, 44
4, 138240, Note_on_c, 0, 61, 44
4, 138240, Note_on_c, 0, 66, 44
4, 138720, Note_on_c, 0, 66, 0
4, 138720, Note_on_c, 0, 54, 0
4, 138720, Note_on_c, 0, 57, 0
4, 138720, Note_on_c, 0, 61, 0
4, 138720, Note_on_c, 0, 54, 70
4, 138720, Note_on_c, 0, 59, 70
4, 138720, Note_on_c, 0, 61, 70
4, 138720, Note_on_c, 0, 65, 70
4, 139440, Note_on_c, 0, 65, 0
4, 139440, Note_on_c, 0, 54, 0
4, 139440, Note_on_c, 0, 59, 0
4, 139440, Note_on_c, 0, 61, 0
4, 139440, Note_on_c, 0, 54, 44
4, 139440, Note_on_c, 0, 59, 44
4, 139440, Note_on_c, 0, 61, 44
4, 139440, Note_on_c, 0, 65, 44
4, 139680, Note_on_c, 0, 65, 0
4, 139680, Note_on_c, 0, 54, 0
4, 139680, Note_on_c, 0, 59, 0
4, 139680, Note_on_c, 0, 61, 0
4, 139680, Note_on_c, 0, 54, 44
4, 139680, Note_on_c, 0, 57, 44
4, 139680, Note_on_c, 0, 61, 44
4, 139680, Note_on_c, 0, 66, 44
4, 140160, Note_on_c, 0, 66, 0
4, 140160, Note_on_c, 0, 54, 0
4, 140160, Note_on_c, 0, 57, 0
4, 140160, Note_on_c, 0, 61, 0
4, 141120, Control_c, 0, 64, 127
4, 141120, Note_on_c, 0, 42, 70
4, 141120, Note_on_c, 0, 54, 70
4, 141360, Note_on_c, 0, 54, 0
4, 141360, Note_on_c, 0, 42, 0
4, 141360, Note_on_c, 0, 56, 70
4, 141600, Note_on_c, 0, 56, 0
4, 141600, Note_on_c, 0, 57, 70
4, 141840, Note_on_c, 0, 57, 0
4, 141840, Note_on_c, 0, 61, 70
4, 142080, Note_on_c, 0, 61, 0
4, 142080, Note_on_c, 0, 63, 70
4, 142320, Note_on_c, 0, 63, 0
4, 142320, Control_c, 0, 64, 0
4, 142320, Note_on_c, 0, 65, 70
4, 142560, Note_on_c, 0, 65, 0
4, 142560, Control_c, 0, 64, 127
4, 142560, Note_on_c, 0, 66, 70
4, 142800, Note_on_c, 0, 66, 0
4, 142800, Note_on_c, 0, 65, 70
4, 143040, Note_on_c, 0, 65, 0
4, 143040, Note_on_c, 0, 66, 70
4, 143280, Note_on_c, 0, 66, 0
4, 143280, Note_on_c, 0, 62, 70
4, 143520, Note_on_c, 0, 62, 0
4, 143520, Note_on_c, 0, 61, 70
4, 143760, Note_on_c, 0, 61, 0
4, 143760, Control_c, 0, 64, 0
4, 143760, Note_on_c, 0, 59, 70
4, 144000, Note_on_c, 0, 59, 0
4, 144000, Control_c, 0, 64, 127
4, 144000, Note_on_c, 0, 57, 70
4, 144240, Note_on_c, 0, 57, 0
4, 144240, Note_on_c, 0, 56, 70
4, 144480, Note_on_c, 0, 56, 0
4, 144480, Note_on_c, 0, 54, 70
4, 144720, Note_on_c, 0, 54, 0
4, 144720, Note_on_c, 0, 50, 70
4, 144960, Note_on_c, 0, 50, 0
4, 144960, Note_on_c, 0, 49, 70
4, 145200, Note_on_c, 0, 49, 0
4, 145200, Control_c, 0, 64, 0
4, 145200, Note_on_c, 0, 45, 70
4, 145440, Note_on_c, 0, 45, 0
4, 145440, Note_on_c, 0, 42, 70
4, 145680, Note_on_c, 0, 42, 0
4, 145920, Note_on_c, 0, 54, 83
4, 145920, Note_on_c, 0, 59, 83
4, 145920, Note_on_c, 0, 61, 83
4, 145920, Note_on_c, 0, 65, 83
4, 146640, Note_on_c, 0, 65, 0
4, 146640, Note_on_c, 0, 54, 0
4, 146640, Note_on_c, 0, 59, 0
4, 146640, Note_on_c, 0, 61, 0
4, 146640, Note_on_c, 0, 54, 57
4, 146640, Note_on_c, 0, 59, 57
4, 146640, Note_on_c, 0, 61, 57
4, 146640, Note_on_c, 0, 65, 57
4, 146880, Note_on_c, 0, 65, 0
4, 146880, Note_on_c, 0, 54, 0
4, 146880, Note_on_c, 0, 59, 0
4, 146880, Note_on_c, 0, 61, 0
4, 146880, Control_c, 0, 64, 127
4, 146880, Note_on_c, 0, 42, 70
4, 146880, Note_on_c, 0, 54, 70
4, 147120, Note_on_c, 0, 54, 0
4, 147120, Note_on_c, 0, 42, 0
4, 147120, Note_on_c, 0, 56, 70
4, 147360, Note_on_c, 0, 56, 0
4, 147360, Note_on_c, 0, 57, 70
4, 147600, Note_on_c, 0, 57, 0
4, 147600, Note_on_c, 0, 61, 70
4, 147840, Note_on_c, 0, 61, 0
4, 147840, Note_on_c, 0, 63, 70
4, 148080, Note_on_c, 0, 63, 0
4, 148080, Control_c, 0, 64, 0
4, 148080, Note_on_c, 0, 65, 70
4, 148320, Note_on_c, 0, 65, 0
4, 148320, Control_c, 0, 64, 127
4, 148320, Note_on_c, 0, 66, 70
4, 148560, Note_on_c, 0, 66, 0
4, 148560, Note_on_c, 0, 65, 70
4, 148800, Note_on_c, 0, 65, 0
4, 148800, Note_on_c, 0, 66, 70
4, 149040, Note_on_c, 0, 66, 0
4, 149040, Note_on_c, 0, 62, 70
4, 149280, Note_on_c, 0, 62, 0
4, 149280, Note_on_c, 0, 61, 70
4, 149520, Note_on_c, 0, 61, 0
4, 149520, Control_c, 0, 64, 0
4, 149520, Note_on_c, 0, 57, 70
4, 149760, Note_on_c, 0, 57, 0
4, 149760, Control_c, 0, 64, 127
4, 149760, Note_on_c, 0, 54, 70
4, 150000, Note_on_c, 0, 54, 0
4, 150000, Note_on_c, 0, 50, 70
4, 150240, Note_on_c, 0, 50, 0
4, 150240, Note_on_c, 0, 49, 70
4, 150480, Note_on_c, 0, 49, 0
4, 150480, Note_on_c, 0, 50, 70
4, 150720, Note_on_c, 0, 50, 0
4, 150720, Note_on_c, 0, 51, 70
4, 150960, Note_on_c, 0, 51, 0
4, 150960, Control_c, 0, 64, 0
4, 150960, Note_on_c, 0, 53, 70
4, 151200, Note_on_c, 0, 53, 0
4, 151200, Control_c, 0, 64, 127
4, 151200, Note_on_c, 0, 54, 70
4, 151440, Note_on_c, 0, 54, 0
4, 151440, Note_on_c, 0, 56, 70
4, 151680, Note_on_c, 0, 56, 0
4, 151680, Note_on_c, 0, 57, 70
4, 151920, Note_on_c, 0, 57, 0
4, 151920, Note_on_c, 0, 61, 70
4, 152160, Note_on_c, 0, 61, 0
4, 152160, Control_c, 0, 64, 0
4, 152160, Note_on_c, 0, 66, 70
4, 152400, Note_on_c, 0, 66, 0
4, 152640, Control_c, 0, 64, 127
4, 152640, Note_on_c, 0, 42, 70
4, 152640, Note_on_c, 0, 54, 70
4, 152880, Note_on_c, 0, 54, 0
4, 152880, Note_on_c, 0, 42, 0
4, 152880, Note_on_c, 0, 56, 70
4, 153120, Note_on_c, 0, 56, 0
4, 153120, Note_on_c, 0, 57, 70
4, 153360, Note_on_c, 0, 57, 0
4, 153360, Note_on_c, 0, 61, 70
4, 153600, Note_on_c, 0, 61, 0
4, 153600, Note_on_c, 0, 63, 70
4, 153840, Note_on_c, 0, 63, 0
4, 153840, Control_c, 0, 64, 0
4, 153840, Note_on_c, 0, 65, 70
4, 154080, Note_on_c, 0, 65, 0
4, 154080, Control_c, 0, 64, 127
4, 154080, Note_on_c, 0, 66, 70
4, 154320, Note_on_c, 0, 66, 0
4, 154320, Note_on_c, 0, 65, 70
4, 154560, Note_on_c, 0, 65, 0
4, 154560, Note_on_c, 0, 66, 70
4, 154800, Note_on_c, 0, 66, 0
4, 154800, Note_on_c, 0, 62, 70
4, 155040, Note_on_c, 0, 62, 0
4, 155040, Note_on_c, 0, 61, 70
4, 155280, Note_on_c, 0, 61, 0
4, 155280, Control_c, 0, 64, 0
4, 155280, Note_on_c, 0, 59, 70
4, 155520, Note_on_c, 0, 59, 0
4, 155520, Control_c, 0, 64, 127
4, 155520, Note_on_c, 0, 57, 70
4, 155760, Note_on_c, 0, 57, 0
4, 155760, Note_on_c, 0, 56, 70
4, 156000, Note_on_c, 0, 56, 0
4, 156000, Note_on_c, 0, 54, 70
4, 156240, Note_on_c, 0, 54, 0
4, 156240, Note_on_c, 0, 50, 70
4, 156480, Note_on_c, 0, 50, 0
4, 156480, Note_on_c, 0, 49, 70
4, 156720, Note_on_c, 0, 49, 0
4, 156720, Control_c, 0, 64, 0
4, 156720, Note_on_c, 0, 45, 70
4, 156960, Note_on_c, 0, 45, 0
4, 156960, Note_on_c, 0, 42, 70
4, 157200, Note_on_c, 0, 42, 0
4, 157440, Note_on_c, 0, 54, 83
4, 157440, Note_on_c, 0, 59, 83
4, 157440, Note_on_c, 0, 61, 83
4, 157440, Note_on_c, 0, 65, 83
4, 158160, Note_on_c, 0, 65, 0
4, 158160, Note_on_c, 0, 54, 0
4, 158160, Note_on_c, 0, 59, 0
4, 158160, Note_on_c, 0, 61, 0
4, 158160, Note_on_c, 0, 54, 57
4, 158160, Note_on_c, 0, 59, 57
4, 158160, Note_on_c, 0, 61, 57
4, 158160, Note_on_c, 0, 65, 57
4, 158400, Note_on_c, 0, 65, 0
4, 158400, Note_on_c, 0, 54, 0
4, 158400, Note_on_c, 0, 59, 0
4, 158400, Note_on_c, 0, 61, 0
4, 158400, Control_c, 0, 64, 127
4, 158400, Note_on_c, 0, 42, 70
4, 158400, Note_on_c, 0, 54, 70
4, 158640, Note_on_c, 0, 54, 0
4, 158640, Note_on_c, 0, 42, 0
4, 158640, Note_on_c, 0, 56, 70
4, 158880, Note_on_c, 0, 56, 0
4, 158880, Note_on_c, 0, 57, 70
4, 159120, Note_on_c, 0, 57, 0
4, 159120, Note_on_c, 0, 61, 70
4, 159360, Note_on_c, 0, 61, 0
4, 159360, Note_on_c, 0, 63, 70
4, 159600, Note_on_c, 0, 63, 0
4, 159600, Control_c, 0, 64, 0
4, 159600, Note_on_c, 0, 65, 70
4, 159840, Note_on_c, 0, 65, 0
4, 159840, Control_c, 0, 64, 127
4, 159840, Note_on_c, 0, 66, 70
4, 160080, Note_on_c, 0, 66, 0
4, 160080, Note_on_c, 0, 65, 70
4, 160320, Note_on_c, 0, 65, 0
4, 160320, Note_on_c, 0, 66, 70
4, 160560, Note_on_c, 0, 66, 0
4, 160560, Note_on_c, 0, 62, 70
4, 160800, Note_on_c, 0, 62, 0
4, 160800, Note_on_c, 0, 61, 70
4, 161040, Note_on_c, 0, 61, 0
4, 161040, Control_c, 0, 64, 0
4, 161040, Note_on_c, 0, 57, 70
4, 161280, Note_on_c, 0, 57, 0
4, 161280, Control_c, 0, 64, 127
4, 161280, Note_on_c, 0, 54, 70
4, 161520, Note_on_c, 0, 54, 0
4, 161520, Note_on_c, 0, 50, 70
4, 161760, Note_on_c, 0, 50, 0
4, 161760, Note_on_c, 0, 49, 70
4, 162000, Note_on_c, 0, 49, 0
4, 162000, Note_on_c, 0, 50, 70
4, 162240, Note_on_c, 0, 50, 0
4, 162240, Note_on_c, 0, 51, 70
4, 162480, Note_on_c, 0, 51, 0
4, 162480, Control_c, 0, 64, 0
4, 162480, Note_on_c, 0, 53, 70
4, 162720, Note_on_c, 0, 53, 0
4, 162720, Control_c, 0, 64, 127
4, 162720, Note_on_c, 0, 54, 70
4, 162960, Note_on_c, 0, 54, 0
4, 162960, Note_on_c, 0, 56, 70
4, 163200, Note_on_c, 0, 56, 0
4, 163200, Note_on_c, 0, 57, 70
4, 163440, Note_on_c, 0, 57, 0
4, 163440, Note_on_c, 0, 61, 70
4, 163680, Note_on_c, 0, 61, 0
4, 163680, Control_c, 0, 64, 0
4, 163680, Note_on_c, 0, 66, 70
4, 163920, Note_on_c, 0, 66, 0
4, 164640, Note_on_c, 0, 50, 57
4, 164640, Note_on_c, 0, 56, 57
4, 164640, Note_on_c, 0, 59, 57
4, 165600, Note_on_c, 0, 59, 0
4, 165600, Note_on_c, 0, 56, 0
4, 165600, Note_on_c, 0, 50, 0
4, 165600, Note_on_c, 0, 50, 57
4, 165600, Note_on_c, 0, 56, 57
4, 165600, Note_on_c, 0, 59, 57
4, 166560, Note_on_c, 0, 59, 0
4, 166560, Note_on_c, 0, 56, 0
4, 166560, Note_on_c, 0, 50, 0
4, 166560, Note_on_c, 0, 50, 57
4, 166560, Note_on_c, 0, 56, 57
4, 166560, Note_on_c, 0, 59, 57
4, 167520, Note_on_c, 0, 59, 0
4, 167520, Note_on_c, 0, 56, 0
4, 167520, Note_on_c, 0, 50, 0
4, 167520, Note_on_c, 0, 50, 57
4, 167520, Note_on_c, 0, 56, 57
4, 167520, Note_on_c, 0, 59, 57
4, 168240, Note_on_c, 0, 59, 0
4, 168240, Note_on_c, 0, 56, 0
4, 168240, Note_on_c, 0, 50, 0
4, 168240, Note_on_c, 0, 50, 57
4, 168240, Note_on_c, 0, 56, 57
4, 168240, Note_on_c, 0, 59, 57
4, 168480, Note_on_c, 0, 59, 0
4, 168480, Note_on_c, 0, 56, 0
4, 168480, Note_on_c, 0, 50, 0
4, 168480, Note_on_c, 0, 49, 57
4, 168480, Note_on_c, 0, 52, 57
4, 168480, Note_on_c, 0, 57, 57
4, 168960, Note_on_c, 0, 57, 0
4, 168960, Note_on_c, 0, 52, 0
4, 168960, Note_on_c, 0, 49, 0
4, 168960, Note_on_c, 0, 49, 57
4, 168960, Note_on_c, 0, 52, 57
4, 168960, Note_on_c, 0, 57, 57
4, 169440, Note_on_c, 0, 57, 0
4, 169440, Note_on_c, 0, 52, 0
4, 169440, Note_on_c, 0, 49, 0
4, 170400, Note_on_c, 0, 50, 57
4, 170400, Note_on_c, 0, 56, 57
4, 170400, Note_on_c, 0, 59, 57
4, 171360, Note_on_c, 0, 59, 0
4, 171360, Note_on_c, 0, 56, 0
4, 171360, Note_on_c, 0, 50, 0
4, 171360, Note_on_c, 0, 50, 57
4, 171360, Note_on_c, 0, 56, 57
4, 171360, Note_on_c, 0, 59, 57
4, 172320, Note_on_c, 0, 59, 0
4, 172320, Note_on_c, 0, 56, 0
4, 172320, Note_on_c, 0, 50, 0
4, 172320, Note_on_c, 0, 50, 57
4, 172320, Note_on_c, 0, 56, 57
4, 172320, Note_on_c, 0, 59, 57
4, 173280, Note_on_c, 0, 59, 0
4, 173280, Note_on_c, 0, 56, 0
4, 173280, Note_on_c, 0, 50, 0
4, 173280, Note_on_c, 0, 50, 57
4, 173280, Note_on_c, 0, 56, 57
4, 173280, Note_on_c, 0, 59, 57
4, 174240, Note_on_c, 0, 59, 0
4, 174240, Note_on_c, 0, 56, 0
4, 174240, Note_on_c, 0, 50, 0
4, 174240, Note_on_c, 0, 49, 57
4, 174240, Note_on_c, 0, 57, 57
4, 174720, Note_on_c, 0, 57, 0
4, 174720, Note_on_c, 0, 49, 0
4, 174720, Note_on_c, 0, 49, 57
4, 174720, Note_on_c, 0, 57, 57
4, 175200, Note_on_c, 0, 57, 0
4, 175200, Note_on_c, 0, 49, 0
4, 176160, Note_on_c, 0, 50, 57
4, 176160, Note_on_c, 0, 56, 57
4, 176160, Note_on_c, 0, 59, 57
4, 177120, Note_on_c, 0, 59, 0
4, 177120, Note_on_c, 0, 56, 0
4, 177120, Note_on_c, 0, 50, 0
4, 177120, Note_on_c, 0, 50, 57
4, 177120, Note_on_c, 0, 56, 57
4, 177120, Note_on_c, 0, 59, 57
4, 178080, Note_on_c, 0, 59, 0
4, 178080, Note_on_c, 0, 56, 0
4, 178080, Note_on_c, 0, 50, 0
4, 178080, Note_on_c, 0, 50, 57
4, 178080, Note_on_c, 0, 56, 57
4, 178080, Note_on_c, 0, 59, 57
4, 179040, Note_on_c, 0, 59, 0
4, 179040, Note_on_c, 0, 56, 0
4, 179040, Note_on_c, 0, 50, 0
4, 179040, Note_on_c, 0, 50, 57
4, 179040, Note_on_c, 0, 56, 57
4, 179040, Note_on_c, 0, 59, 57
4, 179760, Note_on_c, 0, 59, 0
4, 179760, Note_on_c, 0, 56, 0
4, 179760, Note_on_c, 0, 50, 0
4, 179760, Note_on_c, 0, 50, 57
4, 179760, Note_on_c, 0, 56, 57
4, 179760, Note_on_c, 0, 59, 57
4, 180000, Note_on_c, 0, 59, 0
4, 180000, Note_on_c, 0, 56, 0
4, 180000, Note_on_c, 0, 50, 0
4, 180000, Note_on_c, 0, 49, 57
4, 180000, Note_on_c, 0, 52, 57
4, 180000, Note_on_c, 0, 57, 57
4, 180480, Note_on_c, 0, 57, 0
4, 180480, Note_on_c, 0, 52, 0
4, 180480, Note_on_c, 0, 49, 0
4, 180480, Note_on_c, 0, 49, 57
4, 180480, Note_on_c, 0, 52, 57
4, 180480, Note_on_c, 0, 57, 57
4, 180960, Note_on_c, 0, 57, 0
4, 180960, Note_on_c, 0, 52, 0
4, 180960, Note_on_c, 0, 49, 0
4, 181920, Note_on_c, 0, 50, 57
4, 181920, Note_on_c, 0, 56, 57
4, 181920, Note_on_c, 0, 59, 57
4, 182880, Note_on_c, 0, 59, 0
4, 182880, Note_on_c, 0, 56, 0
4, 182880, Note_on_c, 0, 50, 0
4, 182880, Note_on_c, 0, 50, 57
4, 182880, Note_on_c, 0, 56, 57
4, 182880, Note_on_c, 0, 59, 57
4, 183840, Note_on_c, 0, 59, 0
4, 183840, Note_on_c, 0, 56, 0
4, 183840, Note_on_c, 0, 50, 0
4, 183840, Note_on_c, 0, 50, 57
4, 183840, Note_on_c, 0, 56, 57
4, 183840, Note_on_c, 0, 59, 57
4, 184800, Note_on_c, 0, 59, 0
4, 184800, Note_on_c, 0, 56, 0
4, 184800, Note_on_c, 0, 50, 0
4, 184800, Note_on_c, 0, 50, 57
4, 184800, Note_on_c, 0, 56, 57
4, 184800, Note_on_c, 0, 59, 57
4, 185760, Note_on_c, 0, 59, 0
4, 185760, Note_on_c, 0, 56, 0
4, 185760, Note_on_c, 0, 50, 0
4, 185760, Note_on_c, 0, 49, 57
4, 185760, Note_on_c, 0, 57, 57
4, 186240, Note_on_c, 0, 57, 0
4, 186240, Note_on_c, 0, 49, 0
4, 186240, Note_on_c, 0, 49, 57
4, 186240, Note_on_c, 0, 57, 57
4, 186720, Note_on_c, 0, 57, 0
4, 186720, Note_on_c, 0, 49, 0
4, 187680, Note_on_c, 0, 67, 44
4, 187680, Note_on_c, 0, 69, 44
4, 187680, Note_on_c, 0, 73, 44
4, 187680, Note_on_c, 0, 76, 44
4, 188160, Note_on_c, 0, 76, 0
4, 188160, Note_on_c, 0, 67, 0
4, 188160, Note_on_c, 0, 69, 0
4, 188160, Note_on_c, 0, 73, 0
4, 188640, Note_on_c, 0, 67, 44
4, 188640, Note_on_c, 0, 69, 44
4, 188640, Note_on_c, 0, 73, 44
4, 188640, Note_on_c, 0, 76, 44
4, 189120, Note_on_c, 0, 76, 0
4, 189120, Note_on_c, 0, 67, 0
4, 189120, Note_on_c, 0, 69, 0
4, 189120, Note_on_c, 0, 73, 0
4, 189600, Note_on_c, 0, 67, 44
4, 189600, Note_on_c, 0, 69, 44
4, 189600, Note_on_c, 0, 73, 44
4, 189600, Note_on_c, 0, 76, 44
4, 190080, Note_on_c, 0, 76, 0
4, 190080, Note_on_c, 0, 67, 0
4, 190080, Note_on_c, 0, 69, 0
4, 190080, Note_on_c, 0, 73, 0
4, 190560, Note_on_c, 0, 67, 44
4, 190560, Note_on_c, 0, 69, 44
4, 190560, Note_on_c, 0, 73, 44
4, 190560, Note_on_c, 0, 76, 44
4, 191040, Note_on_c, 0, 76, 0
4, 191040, Note_on_c, 0, 67, 0
4, 191040, Note_on_c, 0, 69, 0
4, 191040, Note_on_c, 0, 73, 0
4, 191520, Note_on_c, 0, 66, 44
4, 191520, Note_on_c, 0, 69, 44
4, 191520, Note_on_c, 0, 74, 44
4, 192000, Note_on_c, 0, 74, 0
4, 192000, Note_on_c, 0, 69, 0
4, 192000, Note_on_c, 0, 66, 0
4, 192000, Note_on_c, 0, 66, 44
4, 192000, Note_on_c, 0, 69, 44
4, 192000, Note_on_c, 0, 74, 44
4, 192480, Note_on_c, 0, 74, 0
4, 192480, Note_on_c, 0, 69, 0
4, 192480, Note_on_c, 0, 66, 0
4, 193440, Note_on_c, 0, 67, 44
4, 193440, Note_on_c, 0, 69, 44
4, 193440, Note_on_c, 0, 73, 44
4, 193440, Note_on_c, 0, 76, 44
4, 193920, Note_on_c, 0, 76, 0
4, 193920, Note_on_c, 0, 67, 0
4, 193920, Note_on_c, 0, 69, 0
4, 193920, Note_on_c, 0, 73, 0
4, 194400, Note_on_c, 0, 67, 44
4, 194400, Note_on_c, 0, 69, 44
4, 194400, Note_on_c, 0, 73, 44
4, 194400, Note_on_c, 0, 76, 44
4, 194880, Note_on_c, 0, 76, 0
4, 194880, Note_on_c, 0, 67, 0
4, 194880, Note_on_c, 0, 69, 0
4, 194880, Note_on_c, 0, 73, 0
4, 195360, Note_on_c, 0, 67, 44
4, 195360, Note_on_c, 0, 69, 44
4, 195360, Note_on_c, 0, 73, 44
4, 195360, Note_on_c, 0, 76, 44
4, 195840, Note_on_c, 0, 76, 0
4, 195840, Note_on_c, 0, 67, 0
4, 195840, Note_on_c, 0, 69, 0
4, 195840, Note_on_c, 0, 73, 0
4, 196320, Note_on_c, 0, 67, 44
4, 196320, Note_on_c, 0, 69, 44
4, 196320, Note_on_c, 0, 73, 44
4, 196320, Note_on_c, 0, 76, 44
4, 196800, Note_on_c, 0, 76, 0
4, 196800, Note_on_c, 0, 67, 0
4, 196800, Note_on_c, 0, 69, 0
4, 196800, Note_on_c, 0, 73, 0
4, 197280, Note_on_c, 0, 66, 44
4, 197280, Note_on_c, 0, 69, 44
4, 197280, Note_on_c, 0, 74, 44
4, 197760, Note_on_c, 0, 74, 0
4, 197760, Note_on_c, 0, 69, 0
4, 197760, Note_on_c, 0, 66, 0
4, 197760, Note_on_c, 0, 66, 44
4, 197760, Note_on_c, 0, 69, 44
4, 197760, Note_on_c, 0, 74, 44
4, 198240, Note_on_c, 0, 74, 0
4, 198240, Note_on_c, 0, 69, 0
4, 198240, Note_on_c, 0, 66, 0
4, 199200, Note_on_c, 0, 67, 44
4, 199200, Note_on_c, 0, 69, 44
4, 199200, Note_on_c, 0, 73, 44
4, 199200, Note_on_c, 0, 76, 44
4, 199680, Note_on_c, 0, 76, 0
4, 199680, Note_on_c, 0, 67, 0
4, 199680, Note_on_c, 0, 69, 0
4, 199680, Note_on_c, 0, 73, 0
4, 200160, Note_on_c, 0, 67, 44
4, 200160, Note_on_c, 0, 69, 44
4, 200160, Note_on_c, 0, 73, 44
4, 200160, Note_on_c, 0, 76, 44
4, 200640, Note_on_c, 0, 76, 0
4, 200640, Note_on_c, 0, 67, 0
4, 200640, Note_on_c, 0, 69, 0
4, 200640, Note_on_c, 0, 73, 0
4, 201120, Note_on_c, 0, 67, 44
4, 201120, Note_on_c, 0, 69, 44
4, 201120, Note_on_c, 0, 73, 44
4, 201120, Note_on_c, 0, 76, 44
4, 201600, Note_on_c, 0, 76, 0
4, 201600, Note_on_c, 0, 67, 0
4, 201600, Note_on_c, 0, 69, 0
4, 201600, Note_on_c, 0, 73, 0
4, 202080, Note_on_c, 0, 67, 44
4, 202080, Note_on_c, 0, 69, 44
4, 202080, Note_on_c, 0, 73, 44
4, 202080, Note_on_c, 0, 76, 44
4, 202560, Note_on_c, 0, 76, 0
4, 202560, Note_on_c, 0, 67, 0
4, 202560, Note_on_c, 0, 69, 0
4, 202560, Note_on_c, 0, 73, 0
4, 203040, Note_on_c, 0, 66, 44
4, 203040, Note_on_c, 0, 69, 44
4, 203040, Note_on_c, 0, 74, 44
4, 203520, Note_on_c, 0, 74, 0
4, 203520, Note_on_c, 0, 69, 0
4, 203520, Note_on_c, 0, 66, 0
4, 203520, Note_on_c, 0, 66, 44
4, 203520, Note_on_c, 0, 69, 44
4, 203520, Note_on_c, 0, 74, 44
4, 204000, Note_on_c, 0, 74, 0
4, 204000, Note_on_c, 0, 69, 0
4, 204000, Note_on_c, 0, 66, 0
4, 204960, Note_on_c, 0, 67, 44
4, 204960, Note_on_c, 0, 69, 44
4, 204960, Note_on_c, 0, 73, 44
4, 204960, Note_on_c, 0, 76, 44
4, 205440, Note_on_c, 0, 76, 0
4, 205440, Note_on_c, 0, 67, 0
4, 205440, Note_on_c, 0, 69, 0
4, 205440, Note_on_c, 0, 73, 0
4, 205920, Note_on_c, 0, 67, 44
4, 205920, Note_on_c, 0, 69, 44
4, 205920, Note_on_c, 0, 73, 44
4, 205920, Note_on_c, 0, 76, 44
4, 206400, Note_on_c, 0, 76, 0
4, 206400, Note_on_c, 0, 67, 0
4, 206400, Note_on_c, 0, 69, 0
4, 206400, Note_on_c, 0, 73, 0
4, 206880, Note_on_c, 0, 67, 44
4, 206880, Note_on_c, 0, 69, 44
4, 206880, Note_on_c, 0, 73, 44
4, 206880, Note_on_c, 0, 76, 44
4, 207360, Note_on_c, 0, 76, 0
4, 207360, Note_on_c, 0, 67, 0
4, 207360, Note_on_c, 0, 69, 0
4, 207360, Note_on_c, 0, 73, 0
4, 207840, Note_on_c, 0, 67, 44
4, 207840, Note_on_c, 0, 69, 44
4, 207840, Note_on_c, 0, 73, 44
4, 207840, Note_on_c, 0, 76, 44
4, 208320, Note_on_c, 0, 76, 0
4, 208320, Note_on_c, 0, 67, 0
4, 208320, Note_on_c, 0, 69, 0
4, 208320, Note_on_c, 0, 73, 0
4, 208800, Note_on_c, 0, 66, 44
4, 208800, Note_on_c, 0, 69, 44
4, 208800, Note_on_c, 0, 74, 44
4, 209280, Note_on_c, 0, 74, 0
4, 209280, Note_on_c, 0, 69, 0
4, 209280, Note_on_c, 0, 66, 0
4, 209280, Note_on_c, 0, 66, 44
4, 209280, Note_on_c, 0, 69, 44
4, 209280, Note_on_c, 0, 74, 44
4, 209760, Note_on_c, 0, 74, 0
4, 209760, Note_on_c, 0, 69, 0
4, 209760, Note_on_c, 0, 66, 0
4, 210240, Note_on_c, 0, 66, 44
4, 210240, Note_on_c, 0, 69, 44
4, 210240, Note_on_c, 0, 74, 44
4, 210720, Note_on_c, 0, 74, 0
4, 210720, Note_on_c, 0, 69, 0
4, 210720, Note_on_c, 0, 66, 0
4, 211680, Note_on_c, 0, 66, 44
4, 211680, Note_on_c, 0, 69, 44
4, 211680, Note_on_c, 0, 74, 44
4, 212160, Note_on_c, 0, 74, 0
4, 212160, Note_on_c, 0, 69, 0
4, 212160, Note_on_c, 0, 66, 0
4, 213120, Note_on_c, 0, 54, 44
4, 213120, Note_on_c, 0, 57, 44
4, 213120, Note_on_c, 0, 62, 44
4, 214080, Note_on_c, 0, 62, 0
4, 214080, Note_on_c, 0, 57, 0
4, 214080, Note_on_c, 0, 54, 0
4, 214560, Note_on_c, 0, 54, 44
4, 214560, Note_on_c, 0, 57, 44
4, 214560, Note_on_c, 0, 62, 44
4, 215520, Note_on_c, 0, 62, 0
4, 215520, Note_on_c, 0, 57, 0
4, 215520, Note_on_c, 0, 54, 0
4, 216480, Note_on_c, 0, 42, 44
4, 216480, Note_on_c, 0, 47, 44
4, 216480, Note_on_c, 0, 49, 44
4, 216480, Note_on_c, 0, 53, 44
4, 216960, Note_on_c, 0, 53, 0
4, 216960, Note_on_c, 0, 42, 0
4, 216960, Note_on_c, 0, 47, 0
4, 216960, Note_on_c, 0, 49, 0
4, 217920, Note_on_c, 0, 42, 44
4, 217920, Note_on_c, 0, 47, 44
4, 217920, Note_on_c, 0, 49, 44
4, 217920, Note_on_c, 0, 53, 44
4, 218400, Note_on_c, 0, 53, 0
4, 218400, Note_on_c, 0, 42, 0
4, 218400, Note_on_c, 0, 47, 0
4, 218400, Note_on_c, 0, 49, 0
4, 218880, Note_on_c, 0, 42, 96
4, 219360, Note_on_c, 0, 42, 0
4, 219360, Note_on_c, 0, 54, 83
4, 219360, Note_on_c, 0, 57, 83
4, 219360, Note_on_c, 0, 61, 83
4, 219360, Note_on_c, 0, 66, 83
4, 220320, Note_on_c, 0, 66, 0
4, 220320, Note_on_c, 0, 54, 0
4, 220320, Note_on_c, 0, 57, 0
4, 220320, Note_on_c, 0, 61, 0
4, 220320, Note_on_c, 0, 54, 83
4, 220320, Note_on_c, 0, 57, 83
4, 220320, Note_on_c, 0, 61, 83
4, 220320, Note_on_c, 0, 66, 83
4, 221280, Note_on_c, 0, 66, 0
4, 221280, Note_on_c, 0, 54, 0
4, 221280, Note_on_c, 0, 57, 0
4, 221280, Note_on_c, 0, 61, 0
4, 221280, Note_on_c, 0, 54, 83
4, 221280, Note_on_c, 0, 57, 83
4, 221280, Note_on_c, 0, 61, 83
4, 221280, Note_on_c, 0, 66, 83
4, 222240, Note_on_c, 0, 66, 0
4, 222240, Note_on_c, 0, 54, 0
4, 222240, Note_on_c, 0, 57, 0
4, 222240, Note_on_c, 0, 61, 0
4, 222240, Note_on_c, 0, 54, 83
4, 222240, Note_on_c, 0, 57, 83
4, 222240, Note_on_c, 0, 61, 83
4, 222240, Note_on_c, 0, 66, 83
4, 223200, Note_on_c, 0, 66, 0
4, 223200, Note_on_c, 0, 54, 0
4, 223200, Note_on_c, 0, 57, 0
4, 223200, Note_on_c, 0, 61, 0
4, 223200, Note_on_c, 0, 54, 83
4, 223200, Note_on_c, 0, 57, 83
4, 223200, Note_on_c, 0, 61, 83
4, 223680, Note_on_c, 0, 61, 0
4, 223680, Note_on_c, 0, 57, 0
4, 223680, Note_on_c, 0, 54, 0
4, 223680, Note_on_c, 0, 54, 83
4, 223680, Note_on_c, 0, 59, 83
4, 223680, Note_on_c, 0, 61, 83
4, 223680, Note_on_c, 0, 65, 83
4, 224400, Note_on_c, 0, 65, 0
4, 224400, Note_on_c, 0, 54, 0
4, 224400, Note_on_c, 0, 59, 0
4, 224400, Note_on_c, 0, 61, 0
4, 224400, Note_on_c, 0, 54, 83
4, 224400, Note_on_c, 0, 59, 83
4, 224400, Note_on_c, 0, 61, 83
4, 224400, Note_on_c, 0, 65, 83
4, 224640, Note_on_c, 0, 65, 0
4, 224640, Note_on_c, 0, 54, 0
4, 224640, Note_on_c, 0, 59, 0
4, 224640, Note_on_c, 0, 61, 0
4, 224640, Note_on_c, 0, 54, 83
4, 224640, Note_on_c, 0, 57, 83
4, 224640, Note_on_c, 0, 61, 83
4, 224640, Note_on_c, 0, 66, 83
4, 225120, Note_on_c, 0, 66, 0
4, 225120, Note_on_c, 0, 54, 0
4, 225120, Note_on_c, 0, 57, 0
4, 225120, Note_on_c, 0, 61, 0
4, 225120, Note_on_c, 0, 54, 83
4, 225120, Note_on_c, 0, 57, 83
4, 225120, Note_on_c, 0, 61, 83
4, 225120, Note_on_c, 0, 66, 83
4, 226080, Note_on_c, 0, 66, 0
4, 226080, Note_on_c, 0, 54, 0
4, 226080, Note_on_c, 0, 57, 0
4, 226080, Note_on_c, 0, 61, 0
4, 226080, Note_on_c, 0, 54, 83
4, 226080, Note_on_c, 0, 57, 83
4, 226080, Note_on_c, 0, 61, 83
4, 226080, Note_on_c, 0, 66, 83
4, 227040, Note_on_c, 0, 66, 0
4, 227040, Note_on_c, 0, 54, 0
4, 227040, Note_on_c, 0, 57, 0
4, 227040, Note_on_c, 0, 61, 0
4, 227040, Note_on_c, 0, 54, 83
4, 227040, Note_on_c, 0, 57, 83
4, 227040, Note_on_c, 0, 61, 83
4, 227040, Note_on_c, 0, 66, 83
4, 227520, Note_on_c, 0, 66, 0
4, 227520, Note_on_c, 0, 54, 0
4, 227520, Note_on_c, 0, 57, 0
4, 227520, Note_on_c, 0, 61, 0
4, 227520, Note_on_c, 0, 54, 83
4, 227520, Note_on_c, 0, 57, 83
4, 227520, Note_on_c, 0, 61, 83
4, 227520, Note_on_c, 0, 66, 83
4, 228000, Note_on_c, 0, 66, 0
4, 228000, Note_on_c, 0, 54, 0
4, 228000, Note_on_c, 0, 57, 0
4, 228000, Note_on_c, 0, 61, 0
4, 228000, Note_on_c, 0, 54, 83
4, 228000, Note_on_c, 0, 59, 83
4, 228000, Note_on_c, 0, 61, 83
4, 228000, Note_on_c, 0, 65, 83
4, 228720, Note_on_c, 0, 65, 0
4, 228720, Note_on_c, 0, 54, 0
4, 228720, Note_on_c, 0, 59, 0
4, 228720, Note_on_c, 0, 61, 0
4, 228720, Note_on_c, 0, 54, 83
4, 228720, Note_on_c, 0, 59, 83
4, 228720, Note_on_c, 0, 61, 83
4, 228720, Note_on_c, 0, 65, 83
4, 228960, Note_on_c, 0, 65, 0
4, 228960, Note_on_c, 0, 54, 0
4, 228960, Note_on_c, 0, 59, 0
4, 228960, Note_on_c, 0, 61, 0
4, 228960, Note_on_c, 0, 54, 83
4, 228960, Note_on_c, 0, 57, 83
4, 228960, Note_on_c, 0, 61, 83
4, 228960, Note_on_c, 0, 66, 83
4, 229440, Note_on_c, 0, 66, 0
4, 229440, Note_on_c, 0, 54, 0
4, 229440, Note_on_c, 0, 57, 0
4, 229440, Note_on_c, 0, 61, 0
4, 230400, Note_on_c, 0, 42, 96
4, 230880, Note_on_c, 0, 42, 0
4, 230880, Note_on_c, 0, 54, 83
4, 230880, Note_on_c, 0, 57, 83
4, 230880, Note_on_c, 0, 61, 83
4, 230880, Note_on_c, 0, 66, 83
4, 231840, Note_on_c, 0, 66, 0
4, 231840, Note_on_c, 0, 54, 0
4, 231840, Note_on_c, 0, 57, 0
4, 231840, Note_on_c, 0, 61, 0
4, 231840, Note_on_c, 0, 54, 83
4, 231840, Note_on_c, 0, 57, 83
4, 231840, Note_on_c, 0, 61, 83
4, 231840, Note_on_c, 0, 66, 83
4, 232800, Note_on_c, 0, 66, 0
4, 232800, Note_on_c, 0, 54, 0
4, 232800, Note_on_c, 0, 57, 0
4, 232800, Note_on_c, 0, 61, 0
4, 232800, Note_on_c, 0, 54, 83
4, 232800, Note_on_c, 0, 57, 83
4, 232800, Note_on_c, 0, 61, 83
4, 232800, Note_on_c, 0, 66, 83
4, 233760, Note_on_c, 0, 66, 0
4, 233760, Note_on_c, 0, 54, 0
4, 233760, Note_on_c, 0, 57, 0
4, 233760, Note_on_c, 0, 61, 0
4, 233760, Note_on_c, 0, 54, 83
4, 233760, Note_on_c, 0, 57, 83
4, 233760, Note_on_c, 0, 61, 83
4, 233760, Note_on_c, 0, 66, 83
4, 234720, Note_on_c, 0, 66, 0
4, 234720, Note_on_c, 0, 54, 0
4, 234720, Note_on_c, 0, 57, 0
4, 234720, Note_on_c, 0, 61, 0
4, 234720, Note_on_c, 0, 54, 83
4, 234720, Note_on_c, 0, 57, 83
4, 234720, Note_on_c, 0, 61, 83
4, 235200, Note_on_c, 0, 61, 0
4, 235200, Note_on_c, 0, 57, 0
4, 235200, Note_on_c, 0, 54, 0
4, 235200, Note_on_c, 0, 54, 83
4, 235200, Note_on_c, 0, 59, 83
4, 235200, Note_on_c, 0, 61, 83
4, 235200, Note_on_c, 0, 65, 83
4, 235920, Note_on_c, 0, 65, 0
4, 235920, Note_on_c, 0, 54, 0
4, 235920, Note_on_c, 0, 59, 0
4, 235920, Note_on_c, 0, 61, 0
4, 235920, Note_on_c, 0, 54, 83
4, 235920, Note_on_c, 0, 59, 83
4, 235920, Note_on_c, 0, 61, 83
4, 235920, Note_on_c, 0, 65, 83
4, 236160, Note_on_c, 0, 65, 0
4, 236160, Note_on_c, 0, 54, 0
4, 236160, Note_on_c, 0, 59, 0
4, 236160, Note_on_c, 0, 61, 0
4, 236160, Note_on_c, 0, 54, 83
4, 236160, Note_on_c, 0, 57, 83
4, 236160, Note_on_c, 0, 61, 83
4, 236160, Note_on_c, 0, 66, 83
4, 236640, Note_on_c, 0, 66, 0
4, 236640, Note_on_c, 0, 54, 0
4, 236640, Note_on_c, 0, 57, 0
4, 236640, Note_on_c, 0, 61, 0
4, 236640, Note_on_c, 0, 54, 83
4, 236640, Note_on_c, 0, 57, 83
4, 236640, Note_on_c, 0, 61, 83
4, 236640, Note_on_c, 0, 66, 83
4, 237600, Note_on_c, 0, 66, 0
4, 237600, Note_on_c, 0, 54, 0
4, 237600, Note_on_c, 0, 57, 0
4, 237600, Note_on_c, 0, 61, 0
4, 237600, Note_on_c, 0, 54, 83
4, 237600, Note_on_c, 0, 57, 83
4, 237600, Note_on_c, 0, 61, 83
4, 237600, Note_on_c, 0, 66, 83
4, 238560, Note_on_c, 0, 66, 0
4, 238560, Note_on_c, 0, 54, 0
4, 238560, Note_on_c, 0, 57, 0
4, 238560, Note_on_c, 0, 61, 0
4, 238560, Note_on_c, 0, 54, 83
4, 238560, Note_on_c, 0, 57, 83
4, 238560, Note_on_c, 0, 61, 83
4, 238560, Note_on_c, 0, 66, 83
4, 239040, Note_on_c, 0, 66, 0
4, 239040, Note_on_c, 0, 54, 0
4, 239040, Note_on_c, 0, 57, 0
4, 239040, Note_on_c, 0, 61, 0
4, 239040, Note_on_c, 0, 54, 83
4, 239040, Note_on_c, 0, 57, 83
4, 239040, Note_on_c, 0, 61, 83
4, 239040, Note_on_c, 0, 66, 83
4, 239520, Note_on_c, 0, 66, 0
4, 239520, Note_on_c, 0, 54, 0
4, 239520, Note_on_c, 0, 57, 0
4, 239520, Note_on_c, 0, 61, 0
4, 239520, Note_on_c, 0, 54, 83
4, 239520, Note_on_c, 0, 59, 83
4, 239520, Note_on_c, 0, 61, 83
4, 239520, Note_on_c, 0, 65, 83
4, 240240, Note_on_c, 0, 65, 0
4, 240240, Note_on_c, 0, 54, 0
4, 240240, Note_on_c, 0, 59, 0
4, 240240, Note_on_c, 0, 61, 0
4, 240240, Note_on_c, 0, 54, 83
4, 240240, Note_on_c, 0, 59, 83
4, 240240, Note_on_c, 0, 61, 83
4, 240240, Note_on_c, 0, 65, 83
4, 240480, Note_on_c, 0, 65, 0
4, 240480, Note_on_c, 0, 54, 0
4, 240480, Note_on_c, 0, 59, 0
4, 240480, Note_on_c, 0, 61, 0
4, 240480, Note_on_c, 0, 54, 83
4, 240480, Note_on_c, 0, 57, 83
4, 240480, Note_on_c, 0, 61, 83
4, 240480, Note_on_c, 0, 66, 83
4, 240960, Note_on_c, 0, 66, 0
4, 240960, Note_on_c, 0, 54, 0
4, 240960, Note_on_c, 0, 57, 0
4, 240960, Note_on_c, 0, 61, 0
4, 241920, Note_on_c, 0, 45, 44
4, 242400, Note_on_c, 0, 45, 0
4, 242400, Note_on_c, 0, 52, 44
4, 242400, Note_on_c, 0, 57, 44
4, 242880, Note_on_c, 0, 57, 0
4, 242880, Note_on_c, 0, 52, 0
4, 242880, Note_on_c, 0, 52, 44
4, 242880, Note_on_c, 0, 57, 44
4, 243360, Note_on_c, 0, 57, 0
4, 243360, Note_on_c, 0, 52, 0
4, 243360, Note_on_c, 0, 40, 44
4, 243840, Note_on_c, 0, 40, 0
4, 243840, Note_on_c, 0, 52, 44
4, 243840, Note_on_c, 0, 57, 44
4, 244320, Note_on_c, 0, 57, 0
4, 244320, Note_on_c, 0, 52, 0
4, 244320, Note_on_c, 0, 52, 44
4, 244320, Note_on_c, 0, 57, 44
4, 244800, Note_on_c, 0, 57, 0
4, 244800, Note_on_c, 0, 52, 0
4, 244800, Note_on_c, 0, 45, 44
4, 245280, Note_on_c, 0, 45, 0
4, 245280, Note_on_c, 0, 52, 44
4, 245280, Note_on_c, 0, 57, 44
4, 245760, Note_on_c, 0, 57, 0
4, 245760, Note_on_c, 0, 52, 0
4, 245760, Note_on_c, 0, 52, 44
4, 245760, Note_on_c, 0, 57, 44
4, 246240, Note_on_c, 0, 57, 0
4, 246240, Note_on_c, 0, 52, 0
4, 246240, Note_on_c, 0, 40, 44
4, 246720, Note_on_c, 0, 40, 0
4, 246720, Note_on_c, 0, 52, 44
4, 246720, Note_on_c, 0, 57, 44
4, 247200, Note_on_c, 0, 57, 0
4, 247200, Note_on_c, 0, 52, 0
4, 247200, Note_on_c, 0, 52, 44
4, 247200, Note_on_c, 0, 57, 44
4, 247680, Note_on_c, 0, 57, 0
4, 247680, Note_on_c, 0, 52, 0
4, 247680, Note_on_c, 0, 44, 44
4, 248160, Note_on_c, 0, 44, 0
4, 248160, Note_on_c, 0, 50, 44
4, 248160, Note_on_c, 0, 52, 44
4, 248640, Note_on_c, 0, 52, 0
4, 248640, Note_on_c, 0, 50, 0
4, 248640, Note_on_c, 0, 50, 44
4, 248640, Note_on_c, 0, 52, 44
4, 249120, Note_on_c, 0, 52, 0
4, 249120, Note_on_c, 0, 50, 0
4, 249120, Note_on_c, 0, 40, 44
4, 249600, Note_on_c, 0, 40, 0
4, 249600, Note_on_c, 0, 50, 44
4, 249600, Note_on_c, 0, 52, 44
4, 250080, Note_on_c, 0, 52, 0
4, 250080, Note_on_c, 0, 50, 0
4, 250080, Note_on_c, 0, 50, 44
4, 250080, Note_on_c, 0, 52, 44
4, 250560, Note_on_c, 0, 52, 0
4, 250560, Note_on_c, 0, 50, 0
4, 250560, Note_on_c, 0, 44, 44
4, 251040, Note_on_c, 0, 44, 0
4, 251040, Note_on_c, 0, 50, 44
4, 251040, Note_on_c, 0, 52, 44
4, 251520, Note_on_c, 0, 52, 0
4, 251520, Note_on_c, 0, 50, 0
4, 251520, Note_on_c, 0, 50, 44
4, 251520, Note_on_c, 0, 52, 44
4, 252000, Note_on_c, 0, 52, 0
4, 252000, Note_on_c, 0, 50, 0
4, 252000, Note_on_c, 0, 40, 44
4, 252480, Note_on_c, 0, 40, 0
4, 252480, Note_on_c, 0, 50, 44
4, 252480, Note_on_c, 0, 52, 44
4, 252960, Note_on_c, 0, 52, 0
4, 252960, Note_on_c, 0, 50, 0
4, 252960, Note_on_c, 0, 50, 44
4, 252960, Note_on_c, 0, 52, 44
4, 253440, Note_on_c, 0, 52, 0
4, 253440, Note_on_c, 0, 50, 0
4, 253440, Note_on_c, 0, 45, 44
4, 253920, Note_on_c, 0, 45, 0
4, 253920, Note_on_c, 0, 52, 44
4, 253920, Note_on_c, 0, 57, 44
4, 254400, Note_on_c, 0, 57, 0
4, 254400, Note_on_c, 0, 52, 0
4, 254400, Note_on_c, 0, 52, 44
4, 254400, Note_on_c, 0, 57, 44
4, 254880, Note_on_c, 0, 57, 0
4, 254880, Note_on_c, 0, 52, 0
4, 254880, Note_on_c, 0, 40, 44
4, 255360, Note_on_c, 0, 40, 0
4, 255360, Note_on_c, 0, 52, 44
4, 255360, Note_on_c, 0, 57, 44
4, 255840, Note_on_c, 0, 57, 0
4, 255840, Note_on_c, 0, 52, 0
4, 255840, Note_on_c, 0, 52, 44
4, 255840, Note_on_c, 0, 57, 44
4, 256320, Note_on_c, 0, 57, 0
4, 256320, Note_on_c, 0, 52, 0
4, 256320, Note_on_c, 0, 45, 44
4, 256800, Note_on_c, 0, 45, 0
4, 256800, Note_on_c, 0, 52, 44
4, 256800, Note_on_c, 0, 57, 44
4, 257280, Note_on_c, 0, 57, 0
4, 257280, Note_on_c, 0, 52, 0
4, 257280, Note_on_c, 0, 52, 44
4, 257280, Note_on_c, 0, 57, 44
4, 257760, Note_on_c, 0, 57, 0
4, 257760, Note_on_c, 0, 52, 0
4, 257760, Note_on_c, 0, 40, 44
4, 258240, Note_on_c, 0, 40, 0
4, 258240, Note_on_c, 0, 52, 44
4, 258240, Note_on_c, 0, 57, 44
4, 258720, Note_on_c, 0, 57, 0
4, 258720, Note_on_c, 0, 52, 0
4, 258720, Note_on_c, 0, 52, 44
4, 258720, Note_on_c, 0, 57, 44
4, 259200, Note_on_c, 0, 57, 0
4, 259200, Note_on_c, 0, 52, 0
4, 259200, Note_on_c, 0, 44, 44
4, 259680, Note_on_c, 0, 44, 0
4, 259680, Note_on_c, 0, 47, 44
4, 259680, Note_on_c, 0, 52, 44
4, 260160, Note_on_c, 0, 52, 0
4, 260160, Note_on_c, 0, 47, 0
4, 260160, Note_on_c, 0, 47, 44
4, 260160, Note_on_c, 0, 52, 44
4, 260640, Note_on_c, 0, 52, 0
4, 260640, Note_on_c, 0, 47, 0
4, 260640, Note_on_c, 0, 42, 44
4, 261120, Note_on_c, 0, 42, 0
4, 261120, Note_on_c, 0, 47, 44
4, 261120, Note_on_c, 0, 51, 44
4, 261600, Note_on_c, 0, 51, 0
4, 261600, Note_on_c, 0, 47, 0
4, 261600, Note_on_c, 0, 47, 44
4, 261600, Note_on_c, 0, 51, 44
4, 262080, Note_on_c, 0, 51, 0
4, 262080, Note_on_c, 0, 47, 0
4, 262080, Note_on_c, 0, 40, 44
4, 262560, Note_on_c, 0, 40, 0
4, 262560, Note_on_c, 0, 47, 44
4, 262560, Note_on_c, 0, 52, 44
4, 263040, Note_on_c, 0, 52, 0
4, 263040, Note_on_c, 0, 47, 0
4, 263040, Note_on_c, 0, 47, 44
4, 263040, Note_on_c, 0, 52, 44
4, 263520, Note_on_c, 0, 52, 0
4, 263520, Note_on_c, 0, 47, 0
4, 263520, Note_on_c, 0, 40, 57
4, 263567, Note_on_c, 0, 40, 0
4, 263760, Note_on_c, 0, 52, 57
4, 263807, Note_on_c, 0, 52, 0
4, 264000, Note_on_c, 0, 54, 57
4, 264047, Note_on_c, 0, 54, 0
4, 264240, Note_on_c, 0, 56, 57
4, 264287, Note_on_c, 0, 56, 0
4, 264480, Note_on_c, 0, 57, 57
4, 264527, Note_on_c, 0, 57, 0
4, 264720, Note_on_c, 0, 59, 57
4, 264767, Note_on_c, 0, 59, 0
4, 264960, Note_on_c, 0, 45, 44
4, 265440, Note_on_c, 0, 45, 0
4, 265440, Note_on_c, 0, 52, 44
4, 265440, Note_on_c, 0, 57, 44
4, 265920, Note_on_c, 0, 57, 0
4, 265920, Note_on_c, 0, 52, 0
4, 265920, Note_on_c, 0, 52, 44
4, 265920, Note_on_c, 0, 57, 44
4, 266400, Note_on_c, 0, 57, 0
4, 266400, Note_on_c, 0, 52, 0
4, 266400, Note_on_c, 0, 40, 44
4, 266880, Note_on_c, 0, 40, 0
4, 266880, Note_on_c, 0, 52, 44
4, 266880, Note_on_c, 0, 57, 44
4, 267360, Note_on_c, 0, 57, 0
4, 267360, Note_on_c, 0, 52, 0
4, 267360, Note_on_c, 0, 57, 44
4, 267600, Note_on_c, 0, 57, 0
4, 267600, Note_on_c, 0, 52, 44
4, 267840, Note_on_c, 0, 52, 0
4, 267840, Note_on_c, 0, 45, 44
4, 268320, Note_on_c, 0, 45, 0
4, 268320, Note_on_c, 0, 52, 44
4, 268320, Note_on_c, 0, 57, 44
4, 268800, Note_on_c, 0, 57, 0
4, 268800, Note_on_c, 0, 52, 0
4, 268800, Note_on_c, 0, 52, 44
4, 268800, Note_on_c, 0, 57, 44
4, 269280, Note_on_c, 0, 57, 0
4, 269280, Note_on_c, 0, 52, 0
4, 269280, Note_on_c, 0, 40, 44
4, 269760, Note_on_c, 0, 40, 0
4, 269760, Note_on_c, 0, 52, 44
4, 269760, Note_on_c, 0, 57, 44
4, 270240, Note_on_c, 0, 57, 0
4, 270240, Note_on_c, 0, 52, 0
4, 270240, Note_on_c, 0, 57, 44
4, 270480, Note_on_c, 0, 57, 0
4, 270480, Note_on_c, 0, 52, 44
4, 270720, Note_on_c, 0, 52, 0
4, 270720, Note_on_c, 0, 44, 44
4, 271200, Note_on_c, 0, 44, 0
4, 271200, Note_on_c, 0, 50, 44
4, 271200, Note_on_c, 0, 52, 44
4, 271680, Note_on_c, 0, 52, 0
4, 271680, Note_on_c, 0, 50, 0
4, 271680, Note_on_c, 0, 50, 44
4, 271680, Note_on_c, 0, 52, 44
4, 272160, Note_on_c, 0, 52, 0
4, 272160, Note_on_c, 0, 50, 0
4, 272160, Note_on_c, 0, 40, 44
4, 272640, Note_on_c, 0, 40, 0
4, 272640, Note_on_c, 0, 50, 44
4, 272640, Note_on_c, 0, 52, 44
4, 273120, Note_on_c, 0, 52, 0
4, 273120, Note_on_c, 0, 50, 0
4, 273120, Note_on_c, 0, 59, 44
4, 273360, Note_on_c, 0, 59, 0
4, 273360, Note_on_c, 0, 52, 44
4, 273600, Note_on_c, 0, 52, 0
4, 273600, Note_on_c, 0, 44, 44
4, 274080, Note_on_c, 0, 44, 0
4, 274080, Note_on_c, 0, 50, 44
4, 274080, Note_on_c, 0, 52, 44
4, 274560, Note_on_c, 0, 52, 0
4, 274560, Note_on_c, 0, 50, 0
4, 274560, Note_on_c, 0, 50, 44
4, 274560, Note_on_c, 0, 52, 44
4, 275040, Note_on_c, 0, 52, 0
4, 275040, Note_on_c, 0, 50, 0
4, 275040, Note_on_c, 0, 40, 44
4, 275520, Note_on_c, 0, 40, 0
4, 275520, Note_on_c, 0, 50, 44
4, 275520, Note_on_c, 0, 52, 44
4, 276000, Note_on_c, 0, 52, 0
4, 276000, Note_on_c, 0, 50, 0
4, 276000, Note_on_c, 0, 50, 44
4, 276000, Note_on_c, 0, 52, 44
4, 276480, Note_on_c, 0, 52, 0
4, 276480, Note_on_c, 0, 50, 0
4, 276480, Note_on_c, 0, 45, 44
4, 276960, Note_on_c, 0, 45, 0
4, 276960, Note_on_c, 0, 52, 44
4, 276960, Note_on_c, 0, 57, 44
4, 277440, Note_on_c, 0, 57, 0
4, 277440, Note_on_c, 0, 52, 0
4, 277440, Note_on_c, 0, 52, 44
4, 277440, Note_on_c, 0, 57, 44
4, 277920, Note_on_c, 0, 57, 0
4, 277920, Note_on_c, 0, 52, 0
4, 277920, Note_on_c, 0, 40, 44
4, 278400, Note_on_c, 0, 40, 0
4, 278400, Note_on_c, 0, 52, 44
4, 278400, Note_on_c, 0, 57, 44
4, 278880, Note_on_c, 0, 57, 0
4, 278880, Note_on_c, 0, 52, 0
4, 278880, Note_on_c, 0, 57, 44
4, 279120, Note_on_c, 0, 57, 0
4, 279120, Note_on_c, 0, 52, 44
4, 279360, Note_on_c, 0, 52, 0
4, 279360, Note_on_c, 0, 45, 44
4, 279840, Note_on_c, 0, 45, 0
4, 279840, Note_on_c, 0, 52, 44
4, 279840, Note_on_c, 0, 57, 44
4, 280320, Note_on_c, 0, 57, 0
4, 280320, Note_on_c, 0, 52, 0
4, 280320, Note_on_c, 0, 52, 44
4, 280320, Note_on_c, 0, 57, 44
4, 280800, Note_on_c, 0, 57, 0
4, 280800, Note_on_c, 0, 52, 0
4, 280800, Note_on_c, 0, 40, 44
4, 281280, Note_on_c, 0, 40, 0
4, 281280, Note_on_c, 0, 52, 44
4, 281280, Note_on_c, 0, 57, 44
4, 281760, Note_on_c, 0, 57, 0
4, 281760, Note_on_c, 0, 52, 0
4, 281760, Note_on_c, 0, 57, 44
4, 282000, Note_on_c, 0, 57, 0
4, 282000, Note_on_c, 0, 52, 44
4, 282240, Note_on_c, 0, 52, 0
4, 282720, Note_on_c, 0, 52, 44
4, 282720, Note_on_c, 0, 59, 44
4, 283200, Note_on_c, 0, 59, 0
4, 283200, Note_on_c, 0, 52, 0
4, 283200, Note_on_c, 0, 52, 44
4, 283200, Note_on_c, 0, 59, 44
4, 283680, Note_on_c, 0, 59, 0
4, 283680, Note_on_c, 0, 52, 0
4, 284160, Note_on_c, 0, 51, 44
4, 284160, Note_on_c, 0, 54, 44
4, 284160, Note_on_c, 0, 59, 44
4, 284640, Note_on_c, 0, 59, 0
4, 284640, Note_on_c, 0, 54, 0
4, 284640, Note_on_c, 0, 51, 0
4, 284640, Note_on_c, 0, 51, 44
4, 284640, Note_on_c, 0, 54, 44
4, 284640, Note_on_c, 0, 59, 44
4, 285120, Note_on_c, 0, 59, 0
4, 285120, Note_on_c, 0, 54, 0
4, 285120, Note_on_c, 0, 51, 0
4, 285600, Note_on_c, 0, 56, 44
4, 285600, Note_on_c, 0, 59, 44
4, 286080, Note_on_c, 0, 59, 0
4, 286080, Note_on_c, 0, 56, 0
4, 286080, Note_on_c, 0, 56, 44
4, 286080, Note_on_c, 0, 59, 44
4, 286560, Note_on_c, 0, 59, 0
4, 286560, Note_on_c, 0, 56, 0
4, 286560, Note_on_c, 0, 52, 44
4, 286560, Note_on_c, 0, 56, 44
4, 286560, Note_on_c, 0, 59, 44
4, 287040, Note_on_c, 0, 59, 0
4, 287040, Note_on_c, 0, 56, 0
4, 287040, Note_on_c, 0, 52, 0
4, 288000, Control_c, 0, 64, 127
4, 288000, Note_on_c, 0, 38, 96
4, 288120, Note_on_c, 0, 38, 0
4, 288120, Note_on_c, 0, 50, 70
4, 288240, Note_on_c, 0, 50, 0
4, 288240, Note_on_c, 0, 38, 70
4, 288360, Note_on_c, 0, 38, 0
4, 288360, Note_on_c, 0, 50, 70
4, 288480, Note_on_c, 0, 50, 0
4, 288480, Note_on_c, 0, 38, 70
4, 288600, Note_on_c, 0, 38, 0
4, 288600, Note_on_c, 0, 50, 70
4, 288720, Note_on_c, 0, 50, 0
4, 288720, Note_on_c, 0, 38, 70
4, 288840, Note_on_c, 0, 38, 0
4, 288840, Note_on_c, 0, 50, 70
4, 288960, Note_on_c, 0, 50, 0
4, 288960, Note_on_c, 0, 38, 70
4, 289080, Note_on_c, 0, 38, 0
4, 289080, Note_on_c, 0, 50, 70
4, 289200, Note_on_c, 0, 50, 0
4, 289200, Note_on_c, 0, 38, 70
4, 289320, Note_on_c, 0, 38, 0
4, 289320, Note_on_c, 0, 50, 70
4, 289440, Note_on_c, 0, 50, 0
4, 289440, Note_on_c, 0, 38, 70
4, 289560, Note_on_c, 0, 38, 0
4, 289560, Note_on_c, 0, 50, 70
4, 289680, Note_on_c, 0, 50, 0
4, 289680, Note_on_c, 0, 38, 70
4, 289800, Note_on_c, 0, 38, 0
4, 289800, Note_on_c, 0, 50, 70
4, 289920, Note_on_c, 0, 50, 0
4, 289920, Note_on_c, 0, 38, 70
4, 290040, Note_on_c, 0, 38, 0
4, 290040, Note_on_c, 0, 50, 70
4, 290160, Note_on_c, 0, 50, 0
4, 290160, Note_on_c, 0, 38, 70
4, 290280, Note_on_c, 0, 38, 0
4, 290280, Note_on_c, 0, 50, 70
4, 290400, Note_on_c, 0, 50, 0
4, 290400, Note_on_c, 0, 38, 70
4, 290520, Note_on_c, 0, 38, 0
4, 290520, Note_on_c, 0, 50, 70
4, 290640, Note_on_c, 0, 50, 0
4, 290640, Note_on_c, 0, 38, 70
4, 290760, Note_on_c, 0, 38, 0
4, 290760, Control_c, 0, 64, 0
4, 290760, Note_on_c, 0, 50, 70
4, 290880, Note_on_c, 0, 50, 0
4, 291360, Note_on_c, 0, 56, 83
4, 291360, Note_on_c, 0, 61, 83
4, 291360, Note_on_c, 0, 64, 83
4, 291840, Note_on_c, 0, 64, 0
4, 291840, Note_on_c, 0, 61, 0
4, 291840, Note_on_c, 0, 56, 0
4, 291840, Note_on_c, 0, 56, 83
4, 291840, Note_on_c, 0, 61, 83
4, 291840, Note_on_c, 0, 64, 83
4, 292320, Note_on_c, 0, 64, 0
4, 292320, Note_on_c, 0, 61, 0
4, 292320, Note_on_c, 0, 56, 0
4, 292800, Note_on_c, 0, 56, 83
4, 292800, Note_on_c, 0, 61, 83
4, 292800, Note_on_c, 0, 64, 83
4, 293280, Note_on_c, 0, 64, 0
4, 293280, Note_on_c, 0, 61, 0
4, 293280, Note_on_c, 0, 56, 0
4, 293280, Note_on_c, 0, 56, 83
4, 293280, Note_on_c, 0, 61, 83
4, 293280, Note_on_c, 0, 64, 83
4, 293760, Note_on_c, 0, 64, 0
4, 293760, Note_on_c, 0, 61, 0
4, 293760, Note_on_c, 0, 56, 0
4, 294240, Note_on_c, 0, 56, 83
4, 294240, Note_on_c, 0, 62, 83
4, 294240, Note_on_c, 0, 64, 83
4, 294720, Note_on_c, 0, 64, 0
4, 294720, Note_on_c, 0, 62, 0
4, 294720, Note_on_c, 0, 56, 0
4, 294720, Note_on_c, 0, 56, 83
4, 294720, Note_on_c, 0, 62, 83
4, 294720, Note_on_c, 0, 64, 83
4, 295200, Note_on_c, 0, 64, 0
4, 295200, Note_on_c, 0, 62, 0
4, 295200, Note_on_c, 0, 56, 0
4, 295680, Note_on_c, 0, 56, 83
4, 295680, Note_on_c, 0, 62, 83
4, 295680, Note_on_c, 0, 64, 83
4, 296160, Note_on_c, 0, 64, 0
4, 296160, Note_on_c, 0, 62, 0
4, 296160, Note_on_c, 0, 56, 0
4, 296160, Note_on_c, 0, 56, 83
4, 296160, Note_on_c, 0, 62, 83
4, 296160, Note_on_c, 0, 64, 83
4, 296640, Note_on_c, 0, 64, 0
4, 296640, Note_on_c, 0, 62, 0
4, 296640, Note_on_c, 0, 56, 0
4, 297120, Note_on_c, 0, 57, 83
4, 297120, Note_on_c, 0, 61, 83
4, 297120, Note_on_c, 0, 64, 83
4, 297600, Note_on_c, 0, 64, 0
4, 297600, Note_on_c, 0, 61, 0
4, 297600, Note_on_c, 0, 57, 0
4, 297600, Note_on_c, 0, 57, 83
4, 297600, Note_on_c, 0, 61, 83
4, 297600, Note_on_c, 0, 64, 83
4, 298080, Note_on_c, 0, 64, 0
4, 298080, Note_on_c, 0, 61, 0
4, 298080, Note_on_c, 0, 57, 0
4, 298560, Note_on_c, 0, 52, 83
4, 298560, Note_on_c, 0, 57, 83
4, 298560, Note_on_c, 0, 61, 83
4, 298560, Note_on_c, 0, 64, 83
4, 299040, Note_on_c, 0, 64, 0
4, 299040, Note_on_c, 0, 52, 0
4, 299040, Note_on_c, 0, 57, 0
4, 299040, Note_on_c, 0, 61, 0
4, 299040, Note_on_c, 0, 52, 83
4, 299040, Note_on_c, 0, 57, 83
4, 299040, Note_on_c, 0, 61, 83
4, 299040, Note_on_c, 0, 64, 83
4, 299520, Note_on_c, 0, 64, 0
4, 299520, Note_on_c, 0, 52, 0
4, 299520, Note_on_c, 0, 57, 0
4, 299520, Note_on_c, 0, 61, 0
4, 300000, Note_on_c, 0, 54, 83
4, 300000, Note_on_c, 0, 59, 83
4, 300000, Note_on_c, 0, 62, 83
4, 300480, Note_on_c, 0, 62, 0
4, 300480, Note_on_c, 0, 59, 0
4, 300480, Note_on_c, 0, 54, 0
4, 300480, Note_on_c, 0, 54, 83
4, 300480, Note_on_c, 0, 59, 83
4, 300480, Note_on_c, 0, 62, 83
4, 300960, Note_on_c, 0, 62, 0
4, 300960, Note_on_c, 0, 59, 0
4, 300960, Note_on_c, 0, 54, 0
4, 301440, Note_on_c, 0, 54, 83
4, 301440, Note_on_c, 0, 59, 83
4, 301440, Note_on_c, 0, 62, 83
4, 301920, Note_on_c, 0, 62, 0
4, 301920, Note_on_c, 0, 59, 0
4, 301920, Note_on_c, 0, 54, 0
4, 301920, Note_on_c, 0, 54, 83
4, 301920, Note_on_c, 0, 59, 83
4, 301920, Note_on_c, 0, 62, 83
4, 302400, Note_on_c, 0, 62, 0
4, 302400, Note_on_c, 0, 59, 0
4, 302400, Note_on_c, 0, 54, 0
4, 302880, Note_on_c, 0, 52, 83
4, 302880, Note_on_c, 0, 57, 83
4, 302880, Note_on_c, 0, 61, 83
4, 302880, Note_on_c, 0, 64, 83
4, 303840, Note_on_c, 0, 64, 0
4, 303840, Note_on_c, 0, 52, 0
4, 303840, Note_on_c, 0, 57, 0
4, 303840, Note_on_c, 0, 61, 0
4, 304320, Note_on_c, 0, 54, 83
4, 304320, Note_on_c, 0, 58, 83
4, 304320, Note_on_c, 0, 61, 83
4, 304320, Note_on_c, 0, 66, 83
4, 305280, Note_on_c, 0, 66, 0
4, 305280, Note_on_c, 0, 54, 0
4, 305280, Note_on_c, 0, 58, 0
4, 305280, Note_on_c, 0, 61, 0
4, 305760, Note_on_c, 0, 54, 83
4, 305760, Note_on_c, 0, 59, 83
4, 305760, Note_on_c, 0, 62, 83
4, 305760, Note_on_c, 0, 66, 83
4, 306720, Note_on_c, 0, 66, 0
4, 306720, Note_on_c, 0, 54, 0
4, 306720, Note_on_c, 0, 59, 0
4, 306720, Note_on_c, 0, 62, 0
4, 307200, Note_on_c, 0, 56, 83
4, 307200, Note_on_c, 0, 59, 83
4, 307200, Note_on_c, 0, 64, 83
4, 308160, Note_on_c, 0, 64, 0
4, 308160, Note_on_c, 0, 59, 0
4, 308160, Note_on_c, 0, 56, 0
4, 308160, Note_on_c, 0, 45, 83
4, 308160, Note_on_c, 0, 52, 83
4, 308160, Note_on_c, 0, 61, 83
4, 308640, Note_on_c, 0, 61, 0
4, 308640, Note_on_c, 0, 52, 0
4, 308640, Note_on_c, 0, 45, 0
4, 308640, Note_on_c, 0, 68, 109
4, 309360, Note_on_c, 0, 68, 0
4, 309360, Note_on_c, 0, 66, 83
4, 309600, Note_on_c, 0, 66, 0
4, 309600, Note_on_c, 0, 66, 83
4, 310560, Note_on_c, 0, 66, 0
4, 310560, Note_on_c, 0, 64, 83
4, 311040, Note_on_c, 0, 64, 0
4, 311040, Control_c, 0, 64, 127
4, 311040, Note_on_c, 0, 38, 96
4, 311160, Note_on_c, 0, 38, 0
4, 311160, Note_on_c, 0, 50, 70
4, 311280, Note_on_c, 0, 50, 0
4, 311280, Note_on_c, 0, 38, 70
4, 311400, Note_on_c, 0, 38, 0
4, 311400, Note_on_c, 0, 50, 70
4, 311520, Note_on_c, 0, 50, 0
4, 311520, Note_on_c, 0, 38, 70
4, 311640, Note_on_c, 0, 38, 0
4, 311640, Note_on_c, 0, 50, 70
4, 311760, Note_on_c, 0, 50, 0
4, 311760, Note_on_c, 0, 38, 70
4, 311880, Note_on_c, 0, 38, 0
4, 311880, Note_on_c, 0, 50, 70
4, 312000, Note_on_c, 0, 50, 0
4, 312000, Note_on_c, 0, 38, 70
4, 312120, Note_on_c, 0, 38, 0
4, 312120, Note_on_c, 0, 50, 70
4, 312240, Note_on_c, 0, 50, 0
4, 312240, Note_on_c, 0, 38, 70
4, 312360, Note_on_c, 0, 38, 0
4, 312360, Note_on_c, 0, 50, 70
4, 312480, Note_on_c, 0, 50, 0
4, 312480, Note_on_c, 0, 38, 70
4, 312600, Note_on_c, 0, 38, 0
4, 312600, Note_on_c, 0, 50, 70
4, 312720, Note_on_c, 0, 50, 0
4, 312720, Note_on_c, 0, 38, 70
4, 312840, Note_on_c, 0, 38, 0
4, 312840, Note_on_c, 0, 50, 70
4, 312960, Note_on_c, 0, 50, 0
4, 312960, Note_on_c, 0, 38, 70
4, 313080, Note_on_c, 0, 38, 0
4, 313080, Note_on_c, 0, 50, 70
4, 313200, Note_on_c, 0, 50, 0
4, 313200, Note_on_c, 0, 38, 70
4, 313320, Note_on_c, 0, 38, 0
4, 313320, Note_on_c, 0, 50, 70
4, 313440, Note_on_c, 0, 50, 0
4, 313440, Note_on_c, 0, 38, 70
4, 313560, Note_on_c, 0, 38, 0
4, 313560, Note_on_c, 0, 50, 70
4, 313680, Note_on_c, 0, 50, 0
4, 313680, Note_on_c, 0, 38, 70
4, 313800, Note_on_c, 0, 38, 0
4, 313800, Control_c, 0, 64, 0
4, 313800, Note_on_c, 0, 50, 70
4, 313920, Note_on_c, 0, 50, 0
4, 314400, Note_on_c, 0, 56, 83
4, 314400, Note_on_c, 0, 61, 83
4, 314400, Note_on_c, 0, 64, 83
4, 314880, Note_on_c, 0, 64, 0
4, 314880, Note_on_c, 0, 61, 0
4, 314880, Note_on_c, 0, 56, 0
4, 314880, Note_on_c, 0, 56, 83
4, 314880, Note_on_c, 0, 61, 83
4, 314880, Note_on_c, 0, 64, 83
4, 315360, Note_on_c, 0, 64, 0
4, 315360, Note_on_c, 0, 61, 0
4, 315360, Note_on_c, 0, 56, 0
4, 315840, Note_on_c, 0, 56, 83
4, 315840, Note_on_c, 0, 61, 83
4, 315840, Note_on_c, 0, 64, 83
4, 316320, Note_on_c, 0, 64, 0
4, 316320, Note_on_c, 0, 61, 0
4, 316320, Note_on_c, 0, 56, 0
4, 316320, Note_on_c, 0, 56, 83
4, 316320, Note_on_c, 0, 61, 83
4, 316320, Note_on_c, 0, 64, 83
4, 316800, Note_on_c, 0, 64, 0
4, 316800, Note_on_c, 0, 61, 0
4, 316800, Note_on_c, 0, 56, 0
4, 317280, Note_on_c, 0, 56, 83
4, 317280, Note_on_c, 0, 62, 83
4, 317280, Note_on_c, 0, 64, 83
4, 317760, Note_on_c, 0, 64, 0
4, 317760, Note_on_c, 0, 62, 0
4, 317760, Note_on_c, 0, 56, 0
4, 317760, Note_on_c, 0, 56, 83
4, 317760, Note_on_c, 0, 62, 83
4, 317760, Note_on_c, 0, 64, 83
4, 318240, Note_on_c, 0, 64, 0
4, 318240, Note_on_c, 0, 62, 0
4, 318240, Note_on_c, 0, 56, 0
4, 318720, Note_on_c, 0, 56, 83
4, 318720, Note_on_c, 0, 62, 83
4, 318720, Note_on_c, 0, 64, 83
4, 319200, Note_on_c, 0, 64, 0
4, 319200, Note_on_c, 0, 62, 0
4, 319200, Note_on_c, 0, 56, 0
4, 319200, Note_on_c, 0, 56, 83
4, 319200, Note_on_c, 0, 62, 83
4, 319200, Note_on_c, 0, 64, 83
4, 319680, Note_on_c, 0, 64, 0
4, 319680, Note_on_c, 0, 62, 0
4, 319680, Note_on_c, 0, 56, 0
4, 320160, Note_on_c, 0, 57, 83
4, 320160, Note_on_c, 0, 61, 83
4, 320160, Note_on_c, 0, 64, 83
4, 320640, Note_on_c, 0, 64, 0
4, 320640, Note_on_c, 0, 61, 0
4, 320640, Note_on_c, 0, 57, 0
4, 320640, Note_on_c, 0, 57, 83
4, 320640, Note_on_c, 0, 61, 83
4, 320640, Note_on_c, 0, 64, 83
4, 321120, Note_on_c, 0, 64, 0
4, 321120, Note_on_c, 0, 61, 0
4, 321120, Note_on_c, 0, 57, 0
4, 321600, Note_on_c, 0, 52, 83
4, 321600, Note_on_c, 0, 57, 83
4, 321600, Note_on_c, 0, 61, 83
4, 321600, Note_on_c, 0, 64, 83
4, 322080, Note_on_c, 0, 64, 0
4, 322080, Note_on_c, 0, 52, 0
4, 322080, Note_on_c, 0, 57, 0
4, 322080, Note_on_c, 0, 61, 0
4, 322080, Note_on_c, 0, 52, 83
4, 322080, Note_on_c, 0, 57, 83
4, 322080, Note_on_c, 0, 61, 83
4, 322080, Note_on_c, 0, 64, 83
4, 322560, Note_on_c, 0, 64, 0
4, 322560, Note_on_c, 0, 52, 0
4, 322560, Note_on_c, 0, 57, 0
4, 322560, Note_on_c, 0, 61, 0
4, 323040, Note_on_c, 0, 54, 83
4, 323040, Note_on_c, 0, 59, 83
4, 323040, Note_on_c, 0, 62, 83
4, 323520, Note_on_c, 0, 62, 0
4, 323520, Note_on_c, 0, 59, 0
4, 323520, Note_on_c, 0, 54, 0
4, 323520, Note_on_c, 0, 54, 83
4, 323520, Note_on_c, 0, 59, 83
4, 323520, Note_on_c, 0, 62, 83
4, 324000, Note_on_c, 0, 62, 0
4, 324000, Note_on_c, 0, 59, 0
4, 324000, Note_on_c, 0, 54, 0
4, 324480, Note_on_c, 0, 54, 83
4, 324480, Note_on_c, 0, 59, 83
4, 324480, Note_on_c, 0, 62, 83
4, 324960, Note_on_c, 0, 62, 0
4, 324960, Note_on_c, 0, 59, 0
4, 324960, Note_on_c, 0, 54, 0
4, 324960, Note_on_c, 0, 54, 83
4, 324960, Note_on_c, 0, 59, 83
4, 324960, Note_on_c, 0, 62, 83
4, 325440, Note_on_c, 0, 62, 0
4, 325440, Note_on_c, 0, 59, 0
4, 325440, Note_on_c, 0, 54, 0
4, 325920, Note_on_c, 0, 52, 83
4, 325920, Note_on_c, 0, 57, 83
4, 325920, Note_on_c, 0, 61, 83
4, 325920, Note_on_c, 0, 64, 83
4, 326880, Note_on_c, 0, 64, 0
4, 326880, Note_on_c, 0, 52, 0
4, 326880, Note_on_c, 0, 57, 0
4, 326880, Note_on_c, 0, 61, 0
4, 327360, Note_on_c, 0, 54, 83
4, 327360, Note_on_c, 0, 58, 83
4, 327360, Note_on_c, 0, 61, 83
4, 327360, Note_on_c, 0, 66, 83
4, 328320, Note_on_c, 0, 66, 0
4, 328320, Note_on_c, 0, 54, 0
4, 328320, Note_on_c, 0, 58, 0
4, 328320, Note_on_c, 0, 61, 0
4, 328800, Note_on_c, 0, 54, 83
4, 328800, Note_on_c, 0, 59, 83
4, 328800, Note_on_c, 0, 62, 83
4, 328800, Note_on_c, 0, 66, 83
4, 329760, Note_on_c, 0, 66, 0
4, 329760, Note_on_c, 0, 54, 0
4, 329760, Note_on_c, 0, 59, 0
4, 329760, Note_on_c, 0, 62, 0
4, 330240, Note_on_c, 0, 56, 83
4, 330240, Note_on_c, 0, 59, 83
4, 330240, Note_on_c, 0, 64, 83
4, 331200, Note_on_c, 0, 64, 0
4, 331200, Note_on_c, 0, 59, 0
4, 331200, Note_on_c, 0, 56, 0
4, 331200, Note_on_c, 0, 45, 83
4, 331200, Note_on_c, 0, 52, 83
4, 331200, Note_on_c, 0, 61, 83
4, 331680, Note_on_c, 0, 61, 0
4, 331680, Note_on_c, 0, 52, 0
4, 331680, Note_on_c, 0, 45, 0
4, 331680, Note_on_c, 0, 57, 83
4, 331680, Note_on_c, 0, 61, 83
4, 331680, Note_on_c, 0, 64, 83
4, 332400, Note_on_c, 0, 64, 0
4, 332400, Note_on_c, 0, 61, 0
4, 332400, Note_on_c, 0, 57, 0
4, 332400, Note_on_c, 0, 57, 83
4, 332400, Note_on_c, 0, 61, 83
4, 332400, Note_on_c, 0, 64, 83
4, 332640, Note_on_c, 0, 64, 0
4, 332640, Note_on_c, 0, 61, 0
4, 332640, Note_on_c, 0, 57, 0
4, 332640, Note_on_c, 0, 57, 83
4, 332640, Note_on_c, 0, 61, 83
4, 332640, Note_on_c, 0, 64, 83
4, 333120, Note_on_c, 0, 64, 0
4, 333120, Note_on_c, 0, 61, 0
4, 333120, Note_on_c, 0, 57, 0
4, 334080, Note_on_c, 0, 41, 57
4, 334080, Note_on_c, 0, 53, 57
4, 334560, Note_on_c, 0, 53, 0
4, 334560, Note_on_c, 0, 41, 0
4, 334560, Note_on_c, 0, 57, 44
4, 334560, Note_on_c, 0, 60, 44
4, 334560, Note_on_c, 0, 65, 44
4, 335040, Note_on_c, 0, 65, 0
4, 335040, Note_on_c, 0, 60, 0
4, 335040, Note_on_c, 0, 57, 0
4, 335040, Note_on_c, 0, 57, 44
4, 335040, Note_on_c, 0, 60, 44
4, 335040, Note_on_c, 0, 65, 44
4, 335520, Note_on_c, 0, 65, 0
4, 335520, Note_on_c, 0, 60, 0
4, 335520, Note_on_c, 0, 57, 0
4, 335520, Note_on_c, 0, 36, 57
4, 335520, Note_on_c, 0, 48, 57
4, 336000, Note_on_c, 0, 48, 0
4, 336000, Note_on_c, 0, 36, 0
4, 336000, Note_on_c, 0, 57, 44
4, 336000, Note_on_c, 0, 60, 44
4, 336000, Note_on_c, 0, 65, 44
4, 336480, Note_on_c, 0, 65, 0
4, 336480, Note_on_c, 0, 60, 0
4, 336480, Note_on_c, 0, 57, 0
4, 336480, Note_on_c, 0, 57, 44
4, 336480, Note_on_c, 0, 60, 44
4, 336960, Note_on_c, 0, 60, 0
4, 336960, Note_on_c, 0, 57, 0
4, 336960, Note_on_c, 0, 41, 57
4, 336960, Note_on_c, 0, 53, 57
4, 337440, Note_on_c, 0, 53, 0
4, 337440, Note_on_c, 0, 41, 0
4, 337440, Note_on_c, 0, 57, 44
4, 337440, Note_on_c, 0, 60, 44
4, 337440, Note_on_c, 0, 65, 44
4, 337920, Note_on_c, 0, 65, 0
4, 337920, Note_on_c, 0, 60, 0
4, 337920, Note_on_c, 0, 57, 0
4, 337920, Note_on_c, 0, 57, 44
4, 337920, Note_on_c, 0, 60, 44
4, 337920, Note_on_c, 0, 65, 44
4, 338400, Note_on_c, 0, 65, 0
4, 338400, Note_on_c, 0, 60, 0
4, 338400, Note_on_c, 0, 57, 0
4, 338400, Note_on_c, 0, 36, 57
4, 338400, Note_on_c, 0, 48, 57
4, 338880, Note_on_c, 0, 48, 0
4, 338880, Note_on_c, 0, 36, 0
4, 338880, Note_on_c, 0, 57, 44
4, 338880, Note_on_c, 0, 60, 44
4, 338880, Note_on_c, 0, 65, 44
4, 339360, Note_on_c, 0, 65, 0
4, 339360, Note_on_c, 0, 60, 0
4, 339360, Note_on_c, 0, 57, 0
4, 339360, Note_on_c, 0, 57, 44
4, 339360, Note_on_c, 0, 60, 44
4, 339840, Note_on_c, 0, 60, 0
4, 339840, Note_on_c, 0, 57, 0
4, 339840, Control_c, 0, 64, 127
4, 339840, Note_on_c, 0, 55, 44
4, 340080, Note_on_c, 0, 55, 0
4, 340080, Note_on_c, 0, 60, 44
4, 340320, Note_on_c, 0, 60, 0
4, 340320, Note_on_c, 0, 55, 44
4, 340560, Note_on_c, 0, 55, 0
4, 340560, Note_on_c, 0, 60, 44
4, 340800, Note_on_c, 0, 60, 0
4, 340800, Note_on_c, 0, 55, 44
4, 341040, Note_on_c, 0, 55, 0
4, 341040, Control_c, 0, 64, 0
4, 341040, Note_on_c, 0, 60, 44
4, 341280, Note_on_c, 0, 60, 0
4, 341280, Control_c, 0, 64, 127
4, 341280, Note_on_c, 0, 56, 57
4, 341520, Note_on_c, 0, 56, 0
4, 341520, Note_on_c, 0, 61, 57
4, 341760, Note_on_c, 0, 61, 0
4, 341760, Note_on_c, 0, 56, 57
4, 342000, Note_on_c, 0, 56, 0
4, 342000, Note_on_c, 0, 61, 57
4, 342240, Note_on_c, 0, 61, 0
4, 342240, Note_on_c, 0, 56, 57
4, 342480, Note_on_c, 0, 56, 0
4, 342480, Control_c, 0, 64, 0
4, 342480, Note_on_c, 0, 61, 57
4, 342720, Note_on_c, 0, 61, 0
4, 342720, Control_c, 0, 64, 127
4, 342720, Note_on_c, 0, 57, 70
4, 342960, Note_on_c, 0, 57, 0
4, 342960, Note_on_c, 0, 62, 70
4, 343200, Note_on_c, 0, 62, 0
4, 343200, Note_on_c, 0, 57, 70
4, 343440, Note_on_c, 0, 57, 0
4, 343440, Note_on_c, 0, 62, 70
4, 343680, Note_on_c, 0, 62, 0
4, 343680, Note_on_c, 0, 57, 70
4, 343920, Note_on_c, 0, 57, 0
4, 343920, Control_c, 0, 64, 0
4, 343920, Note_on_c, 0, 62, 70
4, 344160, Note_on_c, 0, 62, 0
4, 344160, Control_c, 0, 64, 127
4, 344160, Note_on_c, 0, 56, 57
4, 344400, Note_on_c, 0, 56, 0
4, 344400, Note_on_c, 0, 61, 57
4, 344640, Note_on_c, 0, 61, 0
4, 344640, Note_on_c, 0, 56, 57
4, 344880, Note_on_c, 0, 56, 0
4, 344880, Note_on_c, 0, 61, 57
4, 345120, Note_on_c, 0, 61, 0
4, 345120, Note_on_c, 0, 55, 57
4, 345360, Note_on_c, 0, 55, 0
4, 345360, Control_c, 0, 64, 0
4, 345360, Note_on_c, 0, 60, 57
4, 345600, Note_on_c, 0, 60, 0
4, 345600, Note_on_c, 0, 41, 57
4, 345600, Note_on_c, 0, 53, 57
4, 346080, Note_on_c, 0, 53, 0
4, 346080, Note_on_c, 0, 41, 0
4, 346080, Note_on_c, 0, 57, 44
4, 346080, Note_on_c, 0, 60, 44
4, 346080, Note_on_c, 0, 65, 44
4, 346560, Note_on_c, 0, 65, 0
4, 346560, Note_on_c, 0, 60, 0
4, 346560, Note_on_c, 0, 57, 0
4, 346560, Note_on_c, 0, 57, 44
4, 346560, Note_on_c, 0, 60, 44
4, 346560, Note_on_c, 0, 65, 44
4, 347040, Note_on_c, 0, 65, 0
4, 347040, Note_on_c, 0, 60, 0
4, 347040, Note_on_c, 0, 57, 0
4, 347040, Note_on_c, 0, 36, 57
4, 347040, Note_on_c, 0, 48, 57
4, 347520, Note_on_c, 0, 48, 0
4, 347520, Note_on_c, 0, 36, 0
4, 347520, Note_on_c, 0, 57, 44
4, 347520, Note_on_c, 0, 60, 44
4, 347520, Note_on_c, 0, 65, 44
4, 348000, Note_on_c, 0, 65, 0
4, 348000, Note_on_c, 0, 60, 0
4, 348000, Note_on_c, 0, 57, 0
4, 348000, Note_on_c, 0, 57, 44
4, 348000, Note_on_c, 0, 60, 44
4, 348480, Note_on_c, 0, 60, 0
4, 348480, Note_on_c, 0, 57, 0
4, 348480, Note_on_c, 0, 41, 57
4, 348480, Note_on_c, 0, 53, 57
4, 348960, Note_on_c, 0, 53, 0
4, 348960, Note_on_c, 0, 41, 0
4, 348960, Note_on_c, 0, 57, 44
4, 348960, Note_on_c, 0, 60, 44
4, 348960, Note_on_c, 0, 65, 44
4, 349440, Note_on_c, 0, 65, 0
4, 349440, Note_on_c, 0, 60, 0
4, 349440, Note_on_c, 0, 57, 0
4, 349440, Note_on_c, 0, 57, 44
4, 349440, Note_on_c, 0, 60, 44
4, 349440, Note_on_c, 0, 65, 44
4, 349920, Note_on_c, 0, 65, 0
4, 349920, Note_on_c, 0, 60, 0
4, 349920, Note_on_c, 0, 57, 0
4, 349920, Note_on_c, 0, 36, 57
4, 349920, Note_on_c, 0, 48, 57
4, 350400, Note_on_c, 0, 48, 0
4, 350400, Note_on_c, 0, 36, 0
4, 350400, Note_on_c, 0, 57, 44
4, 350400, Note_on_c, 0, 60, 44
4, 350400, Note_on_c, 0, 65, 44
4, 350880, Note_on_c, 0, 65, 0
4, 350880, Note_on_c, 0, 60, 0
4, 350880, Note_on_c, 0, 57, 0
4, 350880, Note_on_c, 0, 57, 44
4, 350880, Note_on_c, 0, 60, 44
4, 351360, Note_on_c, 0, 60, 0
4, 351360, Note_on_c, 0, 57, 0
4, 351360, Control_c, 0, 64, 127
4, 351360, Note_on_c, 0, 55, 44
4, 351600, Note_on_c, 0, 55, 0
4, 351600, Note_on_c, 0, 60, 44
4, 351840, Note_on_c, 0, 60, 0
4, 351840, Note_on_c, 0, 55, 44
4, 352080, Note_on_c, 0, 55, 0
4, 352080, Note_on_c, 0, 60, 44
4, 352320, Note_on_c, 0, 60, 0
4, 352320, Note_on_c, 0, 55, 44
4, 352560, Note_on_c, 0, 55, 0
4, 352560, Control_c, 0, 64, 0
4, 352560, Note_on_c, 0, 60, 44
4, 352800, Note_on_c, 0, 60, 0
4, 352800, Control_c, 0, 64, 127
4, 352800, Note_on_c, 0, 56, 57
4, 353040, Note_on_c, 0, 56, 0
4, 353040, Note_on_c, 0, 61, 57
4, 353280, Note_on_c, 0, 61, 0
4, 353280, Note_on_c, 0, 56, 57
4, 353520, Note_on_c, 0, 56, 0
4, 353520, Note_on_c, 0, 61, 57
4, 353760, Note_on_c, 0, 61, 0
4, 353760, Note_on_c, 0, 56, 57
4, 354000, Note_on_c, 0, 56, 0
4, 354000, Control_c, 0, 64, 0
4, 354000, Note_on_c, 0, 61, 57
4, 354240, Note_on_c, 0, 61, 0
4, 354240, Control_c, 0, 64, 127
4, 354240, Note_on_c, 0, 57, 57
4, 354480, Note_on_c, 0, 57, 0
4, 354480, Note_on_c, 0, 62, 57
4, 354720, Note_on_c, 0, 62, 0
4, 354720, Note_on_c, 0, 56, 70
4, 354960, Note_on_c, 0, 56, 0
4, 354960, Note_on_c, 0, 61, 70
4, 355200, Note_on_c, 0, 61, 0
4, 355200, Note_on_c, 0, 55, 70
4, 355440, Note_on_c, 0, 55, 0
4, 355440, Control_c, 0, 64, 0
4, 355440, Note_on_c, 0, 60, 70
4, 355680, Note_on_c, 0, 60, 0
4, 355680, Note_on_c, 0, 53, 70
4, 355680, Note_on_c, 0, 57, 70
4, 355680, Note_on_c, 0, 60, 70
4, 356160, Note_on_c, 0, 60, 0
4, 356160, Note_on_c, 0, 57, 0
4, 356160, Note_on_c, 0, 53, 0
4, 356160, Note_on_c, 0, 57, 70
4, 356160, Note_on_c, 0, 60, 70
4, 356160, Note_on_c, 0, 65, 70
4, 356640, Note_on_c, 0, 65, 0
4, 356640, Note_on_c, 0, 60, 0
4, 356640, Note_on_c, 0, 57, 0
4, 356640, Note_on_c, 0, 53, 70
4, 356640, Note_on_c, 0, 57, 70
4, 356640, Note_on_c, 0, 60, 70
4, 357120, Note_on_c, 0, 60, 0
4, 357120, Note_on_c, 0, 57, 0
4, 357120, Note_on_c, 0, 53, 0
4, 357120, Note_on_c, 0, 41, 57
4, 357120, Note_on_c, 0, 53, 57
4, 357600, Note_on_c, 0, 53, 0
4, 357600, Note_on_c, 0, 41, 0
4, 357600, Note_on_c, 0, 57, 44
4, 357600, Note_on_c, 0, 60, 44
4, 357600, Note_on_c, 0, 65, 44
4, 358080, Note_on_c, 0, 65, 0
4, 358080, Note_on_c, 0, 60, 0
4, 358080, Note_on_c, 0, 57, 0
4, 358080, Note_on_c, 0, 57, 44
4, 358080, Note_on_c, 0, 60, 44
4, 358080, Note_on_c, 0, 65, 44
4, 358560, Note_on_c, 0, 65, 0
4, 358560, Note_on_c, 0, 60, 0
4, 358560, Note_on_c, 0, 57, 0
4, 358560, Note_on_c, 0, 36, 57
4, 358560, Note_on_c, 0, 48, 57
4, 359040, Note_on_c, 0, 48, 0
4, 359040, Note_on_c, 0, 36, 0
4, 359040, Note_on_c, 0, 57, 44
4, 359040, Note_on_c, 0, 60, 44
4, 359040, Note_on_c, 0, 65, 44
4, 359520, Note_on_c, 0, 65, 0
4, 359520, Note_on_c, 0, 60, 0
4, 359520, Note_on_c, 0, 57, 0
4, 359520, Note_on_c, 0, 57, 44
4, 359520, Note_on_c, 0, 60, 44
4, 360000, Note_on_c, 0, 60, 0
4, 360000, Note_on_c, 0, 57, 0
4, 360000, Note_on_c, 0, 41, 57
4, 360000, Note_on_c, 0, 53, 57
4, 360480, Note_on_c, 0, 53, 0
4, 360480, Note_on_c, 0, 41, 0
4, 360480, Note_on_c, 0, 57, 44
4, 360480, Note_on_c, 0, 60, 44
4, 360480, Note_on_c, 0, 65, 44
4, 360960, Note_on_c, 0, 65, 0
4, 360960, Note_on_c, 0, 60, 0
4, 360960, Note_on_c, 0, 57, 0
4, 360960, Note_on_c, 0, 57, 44
4, 360960, Note_on_c, 0, 60, 44
4, 360960, Note_on_c, 0, 65, 44
4, 361440, Note_on_c, 0, 65, 0
4, 361440, Note_on_c, 0, 60, 0
4, 361440, Note_on_c, 0, 57, 0
4, 361440, Note_on_c, 0, 36, 57
4, 361440, Note_on_c, 0, 48, 57
4, 361920, Note_on_c, 0, 48, 0
4, 361920, Note_on_c, 0, 36, 0
4, 361920, Note_on_c, 0, 57, 44
4, 361920, Note_on_c, 0, 60, 44
4, 361920, Note_on_c, 0, 65, 44
4, 362400, Note_on_c, 0, 65, 0
4, 362400, Note_on_c, 0, 60, 0
4, 362400, Note_on_c, 0, 57, 0
4, 362400, Note_on_c, 0, 57, 44
4, 362400, Note_on_c, 0, 60, 44
4, 362880, Note_on_c, 0, 60, 0
4, 362880, Note_on_c, 0, 57, 0
4, 362880, Control_c, 0, 64, 127
4, 362880, Note_on_c, 0, 55, 44
4, 363120, Note_on_c, 0, 55, 0
4, 363120, Note_on_c, 0, 60, 44
4, 363360, Note_on_c, 0, 60, 0
4, 363360, Note_on_c, 0, 55, 44
4, 363600, Note_on_c, 0, 55, 0
4, 363600, Note_on_c, 0, 60, 44
4, 363840, Note_on_c, 0, 60, 0
4, 363840, Note_on_c, 0, 55, 44
4, 364080, Note_on_c, 0, 55, 0
4, 364080, Control_c, 0, 64, 0
4, 364080, Note_on_c, 0, 60, 44
4, 364320, Note_on_c, 0, 60, 0
4, 364320, Control_c, 0, 64, 127
4, 364320, Note_on_c, 0, 56, 57
4, 364560, Note_on_c, 0, 56, 0
4, 364560, Note_on_c, 0, 61, 57
4, 364800, Note_on_c, 0, 61, 0
4, 364800, Note_on_c, 0, 56, 57
4, 365040, Note_on_c, 0, 56, 0
4, 365040, Note_on_c, 0, 61, 57
4, 365280, Note_on_c, 0, 61, 0
4, 365280, Note_on_c, 0, 56, 57
4, 365520, Note_on_c, 0, 56, 0
4, 365520, Control_c, 0, 64, 0
4, 365520, Note_on_c, 0, 61, 57
4, 365760, Note_on_c, 0, 61, 0
4, 365760, Control_c, 0, 64, 127
4, 365760, Note_on_c, 0, 57, 70
4, 366000, Note_on_c, 0, 57, 0
4, 366000, Note_on_c, 0, 62, 70
4, 366240, Note_on_c, 0, 62, 0
4, 366240, Note_on_c, 0, 57, 70
4, 366480, Note_on_c, 0, 57, 0
4, 366480, Note_on_c, 0, 62, 70
4, 366720, Note_on_c, 0, 62, 0
4, 366720, Note_on_c, 0, 57, 70
4, 366960, Note_on_c, 0, 57, 0
4, 366960, Control_c, 0, 64, 0
4, 366960, Note_on_c, 0, 62, 70
4, 367200, Note_on_c, 0, 62, 0
4, 367200, Control_c, 0, 64, 127
4, 367200, Note_on_c, 0, 56, 57
4, 367440, Note_on_c, 0, 56, 0
4, 367440, Note_on_c, 0, 61, 57
4, 367680, Note_on_c, 0, 61, 0
4, 367680, Note_on_c, 0, 56, 57
4, 367920, Note_on_c, 0, 56, 0
4, 367920, Note_on_c, 0, 61, 57
4, 368160, Note_on_c, 0, 61, 0
4, 368160, Note_on_c, 0, 55, 57
4, 368400, Note_on_c, 0, 55, 0
4, 368400, Control_c, 0, 64, 0
4, 368400, Note_on_c, 0, 60, 57
4, 368640, Note_on_c, 0, 60, 0
4, 368640, Note_on_c, 0, 41, 57
4, 368640, Note_on_c, 0, 53, 57
4, 369120, Note_on_c, 0, 53, 0
4, 369120, Note_on_c, 0, 41, 0
4, 369120, Note_on_c, 0, 57, 44
4, 369120, Note_on_c, 0, 60, 44
4, 369120, Note_on_c, 0, 65, 44
4, 369600, Note_on_c, 0, 65, 0
4, 369600, Note_on_c, 0, 60, 0
4, 369600, Note_on_c, 0, 57, 0
4, 369600, Note_on_c, 0, 57, 44
4, 369600, Note_on_c, 0, 60, 44
4, 369600, Note_on_c, 0, 65, 44
4, 370080, Note_on_c, 0, 65, 0
4, 370080, Note_on_c, 0, 60, 0
4, 370080, Note_on_c, 0, 57, 0
4, 370080, Note_on_c, 0, 36, 57
4, 370080, Note_on_c, 0, 48, 57
4, 370560, Note_on_c, 0, 48, 0
4, 370560, Note_on_c, 0, 36, 0
4, 370560, Note_on_c, 0, 57, 44
4, 370560, Note_on_c, 0, 60, 44
4, 370560, Note_on_c, 0, 65, 44
4, 371040, Note_on_c, 0, 65, 0
4, 371040, Note_on_c, 0, 60, 0
4, 371040, Note_on_c, 0, 57, 0
4, 371040, Note_on_c, 0, 57, 44
4, 371040, Note_on_c, 0, 60, 44
4, 371520, Note_on_c, 0, 60, 0
4, 371520, Note_on_c, 0, 57, 0
4, 371520, Note_on_c, 0, 41, 57
4, 371520, Note_on_c, 0, 53, 57
4, 372000, Note_on_c, 0, 53, 0
4, 372000, Note_on_c, 0, 41, 0
4, 372000, Note_on_c, 0, 57, 44
4, 372000, Note_on_c, 0, 60, 44
4, 372000, Note_on_c, 0, 65, 44
4, 372480, Note_on_c, 0, 65, 0
4, 372480, Note_on_c, 0, 60, 0
4, 372480, Note_on_c, 0, 57, 0
4, 372480, Note_on_c, 0, 57, 44
4, 372480, Note_on_c, 0, 60, 44
4, 372480, Note_on_c, 0, 65, 44
4, 372960, Note_on_c, 0, 65, 0
4, 372960, Note_on_c, 0, 60, 0
4, 372960, Note_on_c, 0, 57, 0
4, 372960, Note_on_c, 0, 36, 57
4, 372960, Note_on_c, 0, 48, 57
4, 373440, Note_on_c, 0, 48, 0
4, 373440, Note_on_c, 0, 36, 0
4, 373440, Note_on_c, 0, 57, 44
4, 373440, Note_on_c, 0, 60, 44
4, 373440, Note_on_c, 0, 65, 44
4, 373920, Note_on_c, 0, 65, 0
4, 373920, Note_on_c, 0, 60, 0
4, 373920, Note_on_c, 0, 57, 0
4, 373920, Note_on_c, 0, 57, 44
4, 373920, Note_on_c, 0, 60, 44
4, 374400, Note_on_c, 0, 60, 0
4, 374400, Note_on_c, 0, 57, 0
4, 374400, Control_c, 0, 64, 127
4, 374400, Note_on_c, 0, 55, 44
4, 374640, Note_on_c, 0, 55, 0
4, 374640, Note_on_c, 0, 60, 44
4, 374880, Note_on_c, 0, 60, 0
4, 374880, Note_on_c, 0, 55, 44
4, 375120, Note_on_c, 0, 55, 0
4, 375120, Note_on_c, 0, 60, 44
4, 375360, Note_on_c, 0, 60, 0
4, 375360, Note_on_c, 0, 55, 44
4, 375600, Note_on_c, 0, 55, 0
4, 375600, Control_c, 0, 64, 0
4, 375600, Note_on_c, 0, 60, 44
4, 375840, Note_on_c, 0, 60, 0
4, 375840, Control_c, 0, 64, 127
4, 375840, Note_on_c, 0, 56, 57
4, 376080, Note_on_c, 0, 56, 0
4, 376080, Note_on_c, 0, 61, 57
4, 376320, Note_on_c, 0, 61, 0
4, 376320, Note_on_c, 0, 56, 57
4, 376560, Note_on_c, 0, 56, 0
4, 376560, Note_on_c, 0, 61, 57
4, 376800, Note_on_c, 0, 61, 0
4, 376800, Note_on_c, 0, 56, 57
4, 377040, Note_on_c, 0, 56, 0
4, 377040, Control_c, 0, 64, 0
4, 377040, Note_on_c, 0, 61, 57
4, 377280, Note_on_c, 0, 61, 0
4, 377280, Control_c, 0, 64, 127
4, 377280, Note_on_c, 0, 57, 57
4, 377520, Note_on_c, 0, 57, 0
4, 377520, Note_on_c, 0, 62, 57
4, 377760, Note_on_c, 0, 62, 0
4, 377760, Note_on_c, 0, 56, 70
4, 378000, Note_on_c, 0, 56, 0
4, 378000, Note_on_c, 0, 61, 70
4, 378240, Note_on_c, 0, 61, 0
4, 378240, Note_on_c, 0, 55, 70
4, 378480, Note_on_c, 0, 55, 0
4, 378480, Control_c, 0, 64, 0
4, 378480, Note_on_c, 0, 60, 70
4, 378720, Note_on_c, 0, 60, 0
4, 378720, Note_on_c, 0, 53, 44
4, 378720, Note_on_c, 0, 57, 44
4, 378720, Note_on_c, 0, 60, 44
4, 379200, Note_on_c, 0, 60, 0
4, 379200, Note_on_c, 0, 57, 0
4, 379200, Note_on_c, 0, 53, 0
4, 380160, Note_on_c, 0, 45, 70
4, 380640, Note_on_c, 0, 45, 0
4, 380640, Note_on_c, 0, 53, 44
4, 380640, Note_on_c, 0, 60, 44
4, 380640, Note_on_c, 0, 63, 44
4, 381120, Note_on_c, 0, 63, 0
4, 381120, Note_on_c, 0, 60, 0
4, 381120, Note_on_c, 0, 53, 0
4, 381120, Note_on_c, 0, 53, 44
4, 381120, Note_on_c, 0, 60, 44
4, 381120, Note_on_c, 0, 63, 44
4, 381600, Note_on_c, 0, 63, 0
4, 381600, Note_on_c, 0, 60, 0
4, 381600, Note_on_c, 0, 53, 0
4, 381600, Note_on_c, 0, 41, 70
4, 382080, Note_on_c, 0, 41, 0
4, 382080, Note_on_c, 0, 53, 44
4, 382080, Note_on_c, 0, 60, 44
4, 382080, Note_on_c, 0, 63, 44
4, 382560, Note_on_c, 0, 63, 0
4, 382560, Note_on_c, 0, 60, 0
4, 382560, Note_on_c, 0, 53, 0
4, 382560, Note_on_c, 0, 53, 44
4, 382560, Note_on_c, 0, 60, 44
4, 382560, Note_on_c, 0, 63, 44
4, 383040, Note_on_c, 0, 63, 0
4, 383040, Note_on_c, 0, 60, 0
4, 383040, Note_on_c, 0, 53, 0
4, 383040, Note_on_c, 0, 46, 70
4, 383520, Note_on_c, 0, 46, 0
4, 383520, Note_on_c, 0, 53, 44
4, 383520, Note_on_c, 0, 58, 44
4, 384000, Note_on_c, 0, 58, 0
4, 384000, Note_on_c, 0, 53, 0
4, 384000, Note_on_c, 0, 53, 44
4, 384000, Note_on_c, 0, 58, 44
4, 384000, Note_on_c, 0, 62, 44
4, 384480, Note_on_c, 0, 62, 0
4, 384480, Note_on_c, 0, 58, 0
4, 384480, Note_on_c, 0, 53, 0
4, 384480, Note_on_c, 0, 41, 70
4, 384960, Note_on_c, 0, 41, 0
4, 384960, Note_on_c, 0, 53, 44
4, 384960, Note_on_c, 0, 58, 44
4, 384960, Note_on_c, 0, 62, 44
4, 385440, Note_on_c, 0, 62, 0
4, 385440, Note_on_c, 0, 58, 0
4, 385440, Note_on_c, 0, 53, 0
4, 385440, Note_on_c, 0, 53, 44
4, 385440, Note_on_c, 0, 58, 44
4, 385440, Note_on_c, 0, 62, 44
4, 385920, Note_on_c, 0, 62, 0
4, 385920, Note_on_c, 0, 58, 0
4, 385920, Note_on_c, 0, 53, 0
4, 385920, Note_on_c, 0, 45, 70
4, 386400, Note_on_c, 0, 45, 0
4, 386400, Note_on_c, 0, 53, 44
4, 386400, Note_on_c, 0, 60, 44
4, 386400, Note_on_c, 0, 63, 44
4, 386880, Note_on_c, 0, 63, 0
4, 386880, Note_on_c, 0, 60, 0
4, 386880, Note_on_c, 0, 53, 0
4, 386880, Note_on_c, 0, 53, 44
4, 386880, Note_on_c, 0, 60, 44
4, 386880, Note_on_c, 0, 63, 44
4, 387360, Note_on_c, 0, 63, 0
4, 387360, Note_on_c, 0, 60, 0
4, 387360, Note_on_c, 0, 53, 0
4, 387840, Note_on_c, 0, 53, 44
4, 387840, Note_on_c, 0, 60, 44
4, 387840, Note_on_c, 0, 63, 44
4, 388320, Note_on_c, 0, 63, 0
4, 388320, Note_on_c, 0, 60, 0
4, 388320, Note_on_c, 0, 53, 0
4, 388320, Note_on_c, 0, 53, 44
4, 388320, Note_on_c, 0, 60, 44
4, 388320, Note_on_c, 0, 63, 44
4, 388800, Note_on_c, 0, 63, 0
4, 388800, Note_on_c, 0, 60, 0
4, 388800, Note_on_c, 0, 53, 0
4, 389280, Note_on_c, 0, 53, 44
4, 389280, Note_on_c, 0, 58, 44
4, 389760, Note_on_c, 0, 58, 0
4, 389760, Note_on_c, 0, 53, 0
4, 389760, Note_on_c, 0, 53, 44
4, 389760, Note_on_c, 0, 58, 44
4, 389760, Note_on_c, 0, 62, 44
4, 390240, Note_on_c, 0, 62, 0
4, 390240, Note_on_c, 0, 58, 0
4, 390240, Note_on_c, 0, 53, 0
4, 390720, Note_on_c, 0, 53, 44
4, 390720, Note_on_c, 0, 58, 44
4, 390720, Note_on_c, 0, 62, 44
4, 391200, Note_on_c, 0, 62, 0
4, 391200, Note_on_c, 0, 58, 0
4, 391200, Note_on_c, 0, 53, 0
4, 391200, Note_on_c, 0, 53, 44
4, 391200, Note_on_c, 0, 58, 44
4, 391200, Note_on_c, 0, 62, 44
4, 391680, Note_on_c, 0, 62, 0
4, 391680, Note_on_c, 0, 58, 0
4, 391680, Note_on_c, 0, 53, 0
4, 392160, Note_on_c, 0, 53, 44
4, 392160, Note_on_c, 0, 60, 44
4, 392160, Note_on_c, 0, 63, 44
4, 392640, Note_on_c, 0, 63, 0
4, 392640, Note_on_c, 0, 60, 0
4, 392640, Note_on_c, 0, 53, 0
4, 392640, Note_on_c, 0, 53, 44
4, 392640, Note_on_c, 0, 60, 44
4, 392640, Note_on_c, 0, 63, 44
4, 393120, Note_on_c, 0, 63, 0
4, 393120, Note_on_c, 0, 60, 0
4, 393120, Note_on_c, 0, 53, 0
4, 393600, Note_on_c, 0, 53, 44
4, 393600, Note_on_c, 0, 60, 44
4, 393600, Note_on_c, 0, 63, 44
4, 394080, Note_on_c, 0, 63, 0
4, 394080, Note_on_c, 0, 60, 0
4, 394080, Note_on_c, 0, 53, 0
4, 394080, Note_on_c, 0, 53, 44
4, 394080, Note_on_c, 0, 60, 44
4, 394080, Note_on_c, 0, 63, 44
4, 394560, Note_on_c, 0, 63, 0
4, 394560, Note_on_c, 0, 60, 0
4, 394560, Note_on_c, 0, 53, 0
4, 395040, Note_on_c, 0, 53, 44
4, 395040, Note_on_c, 0, 58, 44
4, 395040, Note_on_c, 0, 62, 44
4, 395520, Note_on_c, 0, 62, 0
4, 395520, Note_on_c, 0, 58, 0
4, 395520, Note_on_c, 0, 53, 0
4, 395520, Note_on_c, 0, 53, 44
4, 395520, Note_on_c, 0, 58, 44
4, 395520, Note_on_c, 0, 62, 44
4, 396000, Note_on_c, 0, 62, 0
4, 396000, Note_on_c, 0, 58, 0
4, 396000, Note_on_c, 0, 53, 0
4, 396480, Note_on_c, 0, 53, 44
4, 396480, Note_on_c, 0, 58, 44
4, 396480, Note_on_c, 0, 62, 44
4, 396960, Note_on_c, 0, 62, 0
4, 396960, Note_on_c, 0, 58, 0
4, 396960, Note_on_c, 0, 53, 0
4, 396960, Note_on_c, 0, 53, 44
4, 396960, Note_on_c, 0, 58, 44
4, 396960, Note_on_c, 0, 62, 44
4, 397440, Note_on_c, 0, 62, 0
4, 397440, Note_on_c, 0, 58, 0
4, 397440, Note_on_c, 0, 53, 0
4, 397920, Note_on_c, 0, 53, 44
4, 397920, Note_on_c, 0, 60, 44
4, 397920, Note_on_c, 0, 63, 44
4, 398400, Note_on_c, 0, 63, 0
4, 398400, Note_on_c, 0, 60, 0
4, 398400, Note_on_c, 0, 53, 0
4, 398400, Note_on_c, 0, 53, 44
4, 398400, Note_on_c, 0, 60, 44
4, 398400, Note_on_c, 0, 63, 44
4, 398880, Note_on_c, 0, 63, 0
4, 398880, Note_on_c, 0, 60, 0
4, 398880, Note_on_c, 0, 53, 0
4, 399360, Note_on_c, 0, 53, 44
4, 399360, Note_on_c, 0, 60, 44
4, 399360, Note_on_c, 0, 63, 44
4, 399840, Note_on_c, 0, 63, 0
4, 399840, Note_on_c, 0, 60, 0
4, 399840, Note_on_c, 0, 53, 0
4, 399840, Note_on_c, 0, 53, 44
4, 399840, Note_on_c, 0, 60, 44
4, 399840, Note_on_c, 0, 63, 44
4, 400320, Note_on_c, 0, 63, 0
4, 400320, Note_on_c, 0, 60, 0
4, 400320, Note_on_c, 0, 53, 0
4, 400320, Note_on_c, 0, 46, 44
4, 400320, Note_on_c, 0, 53, 44
4, 400320, Note_on_c, 0, 62, 44
4, 400800, Note_on_c, 0, 62, 0
4, 400800, Note_on_c, 0, 53, 0
4, 400800, Note_on_c, 0, 46, 0
4, 403200, Note_on_c, 0, 45, 70
4, 403680, Note_on_c, 0, 45, 0
4, 403680, Note_on_c, 0, 53, 44
4, 403680, Note_on_c, 0, 60, 44
4, 403680, Note_on_c, 0, 63, 44
4, 404160, Note_on_c, 0, 63, 0
4, 404160, Note_on_c, 0, 60, 0
4, 404160, Note_on_c, 0, 53, 0
4, 404160, Note_on_c, 0, 53, 44
4, 404160, Note_on_c, 0, 60, 44
4, 404160, Note_on_c, 0, 63, 44
4, 404640, Note_on_c, 0, 63, 0
4, 404640, Note_on_c, 0, 60, 0
4, 404640, Note_on_c, 0, 53, 0
4, 404640, Note_on_c, 0, 41, 70
4, 405120, Note_on_c, 0, 41, 0
4, 405120, Note_on_c, 0, 53, 44
4, 405120, Note_on_c, 0, 60, 44
4, 405120, Note_on_c, 0, 63, 44
4, 405600, Note_on_c, 0, 63, 0
4, 405600, Note_on_c, 0, 60, 0
4, 405600, Note_on_c, 0, 53, 0
4, 405600, Note_on_c, 0, 53, 44
4, 405600, Note_on_c, 0, 60, 44
4, 405600, Note_on_c, 0, 63, 44
4, 406080, Note_on_c, 0, 63, 0
4, 406080, Note_on_c, 0, 60, 0
4, 406080, Note_on_c, 0, 53, 0
4, 406080, Note_on_c, 0, 46, 70
4, 406560, Note_on_c, 0, 46, 0
4, 406560, Note_on_c, 0, 53, 44
4, 406560, Note_on_c, 0, 58, 44
4, 407040, Note_on_c, 0, 58, 0
4, 407040, Note_on_c, 0, 53, 0
4, 407040, Note_on_c, 0, 53, 44
4, 407040, Note_on_c, 0, 58, 44
4, 407040, Note_on_c, 0, 62, 44
4, 407520, Note_on_c, 0, 62, 0
4, 407520, Note_on_c, 0, 58, 0
4, 407520, Note_on_c, 0, 53, 0
4, 407520, Note_on_c, 0, 41, 70
4, 408000, Note_on_c, 0, 41, 0
4, 408000, Note_on_c, 0, 53, 44
4, 408000, Note_on_c, 0, 58, 44
4, 408000, Note_on_c, 0, 62, 44
4, 408480, Note_on_c, 0, 62, 0
4, 408480, Note_on_c, 0, 58, 0
4, 408480, Note_on_c, 0, 53, 0
4, 408480, Note_on_c, 0, 53, 44
4, 408480, Note_on_c, 0, 58, 44
4, 408480, Note_on_c, 0, 62, 44
4, 408960, Note_on_c, 0, 62, 0
4, 408960, Note_on_c, 0, 58, 0
4, 408960, Note_on_c, 0, 53, 0
4, 408960, Note_on_c, 0, 45, 70
4, 409440, Note_on_c, 0, 45, 0
4, 409440, Note_on_c, 0, 53, 44
4, 409440, Note_on_c, 0, 60, 44
4, 409440, Note_on_c, 0, 63, 44
4, 409920, Note_on_c, 0, 63, 0
4, 409920, Note_on_c, 0, 60, 0
4, 409920, Note_on_c, 0, 53, 0
4, 409920, Note_on_c, 0, 53, 44
4, 409920, Note_on_c, 0, 60, 44
4, 409920, Note_on_c, 0, 63, 44
4, 410400, Note_on_c, 0, 63, 0
4, 410400, Note_on_c, 0, 60, 0
4, 410400, Note_on_c, 0, 53, 0
4, 410880, Note_on_c, 0, 53, 44
4, 410880, Note_on_c, 0, 60, 44
4, 410880, Note_on_c, 0, 63, 44
4, 411360, Note_on_c, 0, 63, 0
4, 411360, Note_on_c, 0, 60, 0
4, 411360, Note_on_c, 0, 53, 0
4, 411360, Note_on_c, 0, 53, 44
4, 411360, Note_on_c, 0, 60, 44
4, 411360, Note_on_c, 0, 63, 44
4, 411840, Note_on_c, 0, 63, 0
4, 411840, Note_on_c, 0, 60, 0
4, 411840, Note_on_c, 0, 53, 0
4, 412320, Note_on_c, 0, 53, 44
4, 412320, Note_on_c, 0, 58, 44
4, 412800, Note_on_c, 0, 58, 0
4, 412800, Note_on_c, 0, 53, 0
4, 412800, Note_on_c, 0, 53, 44
4, 412800, Note_on_c, 0, 58, 44
4, 412800, Note_on_c, 0, 62, 44
4, 413280, Note_on_c, 0, 62, 0
4, 413280, Note_on_c, 0, 58, 0
4, 413280, Note_on_c, 0, 53, 0
4, 413760, Note_on_c, 0, 53, 44
4, 413760, Note_on_c, 0, 58, 44
4, 413760, Note_on_c, 0, 62, 44
4, 414240, Note_on_c, 0, 62, 0
4, 414240, Note_on_c, 0, 58, 0
4, 414240, Note_on_c, 0, 53, 0
4, 414240, Note_on_c, 0, 53, 44
4, 414240, Note_on_c, 0, 58, 44
4, 414240, Note_on_c, 0, 62, 44
4, 414720, Note_on_c, 0, 62, 0
4, 414720, Note_on_c, 0, 58, 0
4, 414720, Note_on_c, 0, 53, 0
4, 415200, Note_on_c, 0, 53, 44
4, 415200, Note_on_c, 0, 60, 44
4, 415200, Note_on_c, 0, 63, 44
4, 415680, Note_on_c, 0, 63, 0
4, 415680, Note_on_c, 0, 60, 0
4, 415680, Note_on_c, 0, 53, 0
4, 415680, Note_on_c, 0, 53, 44
4, 415680, Note_on_c, 0, 60, 44
4, 415680, Note_on_c, 0, 63, 44
4, 416160, Note_on_c, 0, 63, 0
4, 416160, Note_on_c, 0, 60, 0
4, 416160, Note_on_c, 0, 53, 0
4, 416640, Note_on_c, 0, 53, 44
4, 416640, Note_on_c, 0, 60, 44
4, 416640, Note_on_c, 0, 63, 44
4, 417120, Note_on_c, 0, 63, 0
4, 417120, Note_on_c, 0, 60, 0
4, 417120, Note_on_c, 0, 53, 0
4, 417120, Note_on_c, 0, 53, 44
4, 417120, Note_on_c, 0, 60, 44
4, 417120, Note_on_c, 0, 63, 44
4, 417600, Note_on_c, 0, 63, 0
4, 417600, Note_on_c, 0, 60, 0
4, 417600, Note_on_c, 0, 53, 0
4, 418080, Note_on_c, 0, 53, 44
4, 418080, Note_on_c, 0, 58, 44
4, 418080, Note_on_c, 0, 62, 44
4, 418560, Note_on_c, 0, 62, 0
4, 418560, Note_on_c, 0, 58, 0
4, 418560, Note_on_c, 0, 53, 0
4, 418560, Note_on_c, 0, 53, 44
4, 418560, Note_on_c, 0, 58, 44
4, 418560, Note_on_c, 0, 62, 44
4, 419040, Note_on_c, 0, 62, 0
4, 419040, Note_on_c, 0, 58, 0
4, 419040, Note_on_c, 0, 53, 0
4, 419520, Note_on_c, 0, 53, 44
4, 419520, Note_on_c, 0, 58, 44
4, 419520, Note_on_c, 0, 62, 44
4, 420000, Note_on_c, 0, 62, 0
4, 420000, Note_on_c, 0, 58, 0
4, 420000, Note_on_c, 0, 53, 0
4, 420000, Note_on_c, 0, 53, 44
4, 420000, Note_on_c, 0, 58, 44
4, 420000, Note_on_c, 0, 62, 44
4, 420480, Note_on_c, 0, 62, 0
4, 420480, Note_on_c, 0, 58, 0
4, 420480, Note_on_c, 0, 53, 0
4, 420960, Note_on_c, 0, 53, 44
4, 420960, Note_on_c, 0, 60, 44
4, 420960, Note_on_c, 0, 63, 44
4, 421440, Note_on_c, 0, 63, 0
4, 421440, Note_on_c, 0, 60, 0
4, 421440, Note_on_c, 0, 53, 0
4, 421440, Note_on_c, 0, 53, 44
4, 421440, Note_on_c, 0, 60, 44
4, 421440, Note_on_c, 0, 63, 44
4, 421920, Note_on_c, 0, 63, 0
4, 421920, Note_on_c, 0, 60, 0
4, 421920, Note_on_c, 0, 53, 0
4, 422400, Note_on_c, 0, 53, 44
4, 422400, Note_on_c, 0, 60, 44
4, 422400, Note_on_c, 0, 63, 44
4, 422880, Note_on_c, 0, 63, 0
4, 422880, Note_on_c, 0, 60, 0
4, 422880, Note_on_c, 0, 53, 0
4, 422880, Note_on_c, 0, 53, 44
4, 422880, Note_on_c, 0, 60, 44
4, 422880, Note_on_c, 0, 63, 44
4, 423360, Note_on_c, 0, 63, 0
4, 423360, Note_on_c, 0, 60, 0
4, 423360, Note_on_c, 0, 53, 0
4, 423360, Note_on_c, 0, 46, 57
4, 423360, Note_on_c, 0, 53, 57
4, 423360, Note_on_c, 0, 62, 57
4, 423840, Note_on_c, 0, 62, 0
4, 423840, Note_on_c, 0, 53, 0
4, 423840, Note_on_c, 0, 46, 0
4, 426240, Note_on_c, 0, 41, 57
4, 426240, Note_on_c, 0, 53, 57
4, 426720, Note_on_c, 0, 53, 0
4, 426720, Note_on_c, 0, 41, 0
4, 426720, Note_on_c, 0, 57, 44
4, 426720, Note_on_c, 0, 60, 44
4, 426720, Note_on_c, 0, 65, 44
4, 427200, Note_on_c, 0, 65, 0
4, 427200, Note_on_c, 0, 60, 0
4, 427200, Note_on_c, 0, 57, 0
4, 427200, Note_on_c, 0, 57, 44
4, 427200, Note_on_c, 0, 60, 44
4, 427200, Note_on_c, 0, 65, 44
4, 427680, Note_on_c, 0, 65, 0
4, 427680, Note_on_c, 0, 60, 0
4, 427680, Note_on_c, 0, 57, 0
4, 427680, Note_on_c, 0, 36, 57
4, 427680, Note_on_c, 0, 48, 57
4, 428160, Note_on_c, 0, 48, 0
4, 428160, Note_on_c, 0, 36, 0
4, 428160, Note_on_c, 0, 57, 44
4, 428160, Note_on_c, 0, 60, 44
4, 428160, Note_on_c, 0, 65, 44
4, 428640, Note_on_c, 0, 65, 0
4, 428640, Note_on_c, 0, 60, 0
4, 428640, Note_on_c, 0, 57, 0
4, 428640, Note_on_c, 0, 57, 44
4, 428640, Note_on_c, 0, 60, 44
4, 429120, Note_on_c, 0, 60, 0
4, 429120, Note_on_c, 0, 57, 0
4, 429120, Note_on_c, 0, 41, 57
4, 429120, Note_on_c, 0, 53, 57
4, 429600, Note_on_c, 0, 53, 0
4, 429600, Note_on_c, 0, 41, 0
4, 429600, Note_on_c, 0, 57, 44
4, 429600, Note_on_c, 0, 60, 44
4, 429600, Note_on_c, 0, 65, 44
4, 430080, Note_on_c, 0, 65, 0
4, 430080, Note_on_c, 0, 60, 0
4, 430080, Note_on_c, 0, 57, 0
4, 430080, Note_on_c, 0, 57, 44
4, 430080, Note_on_c, 0, 60, 44
4, 430080, Note_on_c, 0, 65, 44
4, 430560, Note_on_c, 0, 65, 0
4, 430560, Note_on_c, 0, 60, 0
4, 430560, Note_on_c, 0, 57, 0
4, 430560, Note_on_c, 0, 36, 57
4, 430560, Note_on_c, 0, 48, 57
4, 431040, Note_on_c, 0, 48, 0
4, 431040, Note_on_c, 0, 36, 0
4, 431040, Note_on_c, 0, 57, 44
4, 431040, Note_on_c, 0, 60, 44
4, 431040, Note_on_c, 0, 65, 44
4, 431520, Note_on_c, 0, 65, 0
4, 431520, Note_on_c, 0, 60, 0
4, 431520, Note_on_c, 0, 57, 0
4, 431520, Note_on_c, 0, 57, 44
4, 431520, Note_on_c, 0, 60, 44
4, 432000, Note_on_c, 0, 60, 0
4, 432000, Note_on_c, 0, 57, 0
4, 432000, Control_c, 0, 64, 127
4, 432000, Note_on_c, 0, 55, 44
4, 432240, Note_on_c, 0, 55, 0
4, 432240, Note_on_c, 0, 60, 44
4, 432480, Note_on_c, 0, 60, 0
4, 432480, Note_on_c, 0, 55, 44
4, 432720, Note_on_c, 0, 55, 0
4, 432720, Note_on_c, 0, 60, 44
4, 432960, Note_on_c, 0, 60, 0
4, 432960, Note_on_c, 0, 55, 44
4, 433200, Note_on_c, 0, 55, 0
4, 433200, Control_c, 0, 64, 0
4, 433200, Note_on_c, 0, 60, 44
4, 433440, Note_on_c, 0, 60, 0
4, 433440, Control_c, 0, 64, 127
4, 433440, Note_on_c, 0, 56, 57
4, 433680, Note_on_c, 0, 56, 0
4, 433680, Note_on_c, 0, 61, 57
4, 433920, Note_on_c, 0, 61, 0
4, 433920, Note_on_c, 0, 56, 57
4, 434160, Note_on_c, 0, 56, 0
4, 434160, Note_on_c, 0, 61, 57
4, 434400, Note_on_c, 0, 61, 0
4, 434400, Note_on_c, 0, 56, 57
4, 434640, Note_on_c, 0, 56, 0
4, 434640, Control_c, 0, 64, 0
4, 434640, Note_on_c, 0, 61, 57
4, 434880, Note_on_c, 0, 61, 0
4, 434880, Control_c, 0, 64, 127
4, 434880, Note_on_c, 0, 57, 70
4, 435120, Note_on_c, 0, 57, 0
4, 435120, Note_on_c, 0, 62, 70
4, 435360, Note_on_c, 0, 62, 0
4, 435360, Note_on_c, 0, 57, 70
4, 435600, Note_on_c, 0, 57, 0
4, 435600, Note_on_c, 0, 62, 70
4, 435840, Note_on_c, 0, 62, 0
4, 435840, Note_on_c, 0, 57, 70
4, 436080, Note_on_c, 0, 57, 0
4, 436080, Control_c, 0, 64, 0
4, 436080, Note_on_c, 0, 62, 70
4, 436320, Note_on_c, 0, 62, 0
4, 436320, Control_c, 0, 64, 127
4, 436320, Note_on_c, 0, 56, 57
4, 436560, Note_on_c, 0, 56, 0
4, 436560, Note_on_c, 0, 61, 57
4, 436800, Note_on_c, 0, 61, 0
4, 436800, Note_on_c, 0, 56, 57
4, 437040, Note_on_c, 0, 56, 0
4, 437040, Note_on_c, 0, 61, 57
4, 437280, Note_on_c, 0, 61, 0
4, 437280, Note_on_c, 0, 55, 57
4, 437520, Note_on_c, 0, 55, 0
4, 437520, Control_c, 0, 64, 0
4, 437520, Note_on_c, 0, 60, 57
4, 437760, Note_on_c, 0, 60, 0
4, 437760, Note_on_c, 0, 41, 57
4, 437760, Note_on_c, 0, 53, 57
4, 438240, Note_on_c, 0, 53, 0
4, 438240, Note_on_c, 0, 41, 0
4, 438240, Note_on_c, 0, 57, 44
4, 438240, Note_on_c, 0, 60, 44
4, 438240, Note_on_c, 0, 65, 44
4, 438720, Note_on_c, 0, 65, 0
4, 438720, Note_on_c, 0, 60, 0
4, 438720, Note_on_c, 0, 57, 0
4, 438720, Note_on_c, 0, 57, 44
4, 438720, Note_on_c, 0, 60, 44
4, 438720, Note_on_c, 0, 65, 44
4, 439200, Note_on_c, 0, 65, 0
4, 439200, Note_on_c, 0, 60, 0
4, 439200, Note_on_c, 0, 57, 0
4, 439200, Note_on_c, 0, 36, 57
4, 439200, Note_on_c, 0, 48, 57
4, 439680, Note_on_c, 0, 48, 0
4, 439680, Note_on_c, 0, 36, 0
4, 439680, Note_on_c, 0, 57, 44
4, 439680, Note_on_c, 0, 60, 44
4, 439680, Note_on_c, 0, 65, 44
4, 440160, Note_on_c, 0, 65, 0
4, 440160, Note_on_c, 0, 60, 0
4, 440160, Note_on_c, 0, 57, 0
4, 440160, Note_on_c, 0, 57, 44
4, 440160, Note_on_c, 0, 60, 44
4, 440640, Note_on_c, 0, 60, 0
4, 440640, Note_on_c, 0, 57, 0
4, 440640, Note_on_c, 0, 41, 57
4, 440640, Note_on_c, 0, 53, 57
4, 441120, Note_on_c, 0, 53, 0
4, 441120, Note_on_c, 0, 41, 0
4, 441120, Note_on_c, 0, 57, 44
4, 441120, Note_on_c, 0, 60, 44
4, 441120, Note_on_c, 0, 65, 44
4, 441600, Note_on_c, 0, 65, 0
4, 441600, Note_on_c, 0, 60, 0
4, 441600, Note_on_c, 0, 57, 0
4, 441600, Note_on_c, 0, 57, 44
4, 441600, Note_on_c, 0, 60, 44
4, 441600, Note_on_c, 0, 65, 44
4, 442080, Note_on_c, 0, 65, 0
4, 442080, Note_on_c, 0, 60, 0
4, 442080, Note_on_c, 0, 57, 0
4, 442080, Note_on_c, 0, 36, 57
4, 442080, Note_on_c, 0, 48, 57
4, 442560, Note_on_c, 0, 48, 0
4, 442560, Note_on_c, 0, 36, 0
4, 442560, Note_on_c, 0, 57, 44
4, 442560, Note_on_c, 0, 60, 44
4, 442560, Note_on_c, 0, 65, 44
4, 443040, Note_on_c, 0, 65, 0
4, 443040, Note_on_c, 0, 60, 0
4, 443040, Note_on_c, 0, 57, 0
4, 443040, Note_on_c, 0, 57, 44
4, 443040, Note_on_c, 0, 60, 44
4, 443520, Note_on_c, 0, 60, 0
4, 443520, Note_on_c, 0, 57, 0
4, 443520, Control_c, 0, 64, 127
4, 443520, Note_on_c, 0, 55, 44
4, 443760, Note_on_c, 0, 55, 0
4, 443760, Note_on_c, 0, 60, 44
4, 444000, Note_on_c, 0, 60, 0
4, 444000, Note_on_c, 0, 55, 44
4, 444240, Note_on_c, 0, 55, 0
4, 444240, Note_on_c, 0, 60, 44
4, 444480, Note_on_c, 0, 60, 0
4, 444480, Note_on_c, 0, 55, 44
4, 444720, Note_on_c, 0, 55, 0
4, 444720, Control_c, 0, 64, 0
4, 444720, Note_on_c, 0, 60, 44
4, 444960, Note_on_c, 0, 60, 0
4, 444960, Control_c, 0, 64, 127
4, 444960, Note_on_c, 0, 56, 57
4, 445200, Note_on_c, 0, 56, 0
4, 445200, Note_on_c, 0, 61, 57
4, 445440, Note_on_c, 0, 61, 0
4, 445440, Note_on_c, 0, 56, 57
4, 445680, Note_on_c, 0, 56, 0
4, 445680, Note_on_c, 0, 61, 57
4, 445920, Note_on_c, 0, 61, 0
4, 445920, Note_on_c, 0, 56, 57
4, 446160, Note_on_c, 0, 56, 0
4, 446160, Control_c, 0, 64, 0
4, 446160, Note_on_c, 0, 61, 57
4, 446400, Note_on_c, 0, 61, 0
4, 446400, Control_c, 0, 64, 127
4, 446400, Note_on_c, 0, 57, 57
4, 446640, Note_on_c, 0, 57, 0
4, 446640, Note_on_c, 0, 62, 57
4, 446880, Note_on_c, 0, 62, 0
4, 446880, Note_on_c, 0, 56, 70
4, 447120, Note_on_c, 0, 56, 0
4, 447120, Note_on_c, 0, 61, 70
4, 447360, Note_on_c, 0, 61, 0
4, 447360, Note_on_c, 0, 55, 70
4, 447600, Note_on_c, 0, 55, 0
4, 447600, Control_c, 0, 64, 0
4, 447600, Note_on_c, 0, 60, 70
4, 447840, Note_on_c, 0, 60, 0
4, 447840, Note_on_c, 0, 53, 70
4, 447840, Note_on_c, 0, 57, 70
4, 447840, Note_on_c, 0, 60, 70
4, 448320, Note_on_c, 0, 60, 0
4, 448320, Note_on_c, 0, 57, 0
4, 448320, Note_on_c, 0, 53, 0
4, 449760, Note_on_c, 0, 50, 44
4, 449760, Note_on_c, 0, 53, 44
4, 449760, Note_on_c, 0, 57, 44
4, 450240, Note_on_c, 0, 57, 0
4, 450240, Note_on_c, 0, 53, 0
4, 450240, Note_on_c, 0, 50, 0
4, 450240, Note_on_c, 0, 57, 44
4, 450240, Note_on_c, 0, 62, 44
4, 450240, Note_on_c, 0, 65, 44
4, 450720, Note_on_c, 0, 65, 0
4, 450720, Note_on_c, 0, 62, 0
4, 450720, Note_on_c, 0, 57, 0
4, 451200, Note_on_c, 0, 50, 44
4, 451200, Note_on_c, 0, 53, 44
4, 451200, Note_on_c, 0, 57, 44
4, 451680, Note_on_c, 0, 57, 0
4, 451680, Note_on_c, 0, 53, 0
4, 451680, Note_on_c, 0, 50, 0
4, 451680, Note_on_c, 0, 57, 44
4, 451680, Note_on_c, 0, 62, 44
4, 451680, Note_on_c, 0, 65, 44
4, 452160, Note_on_c, 0, 65, 0
4, 452160, Note_on_c, 0, 62, 0
4, 452160, Note_on_c, 0, 57, 0
4, 452640, Note_on_c, 0, 50, 44
4, 452640, Note_on_c, 0, 53, 44
4, 452640, Note_on_c, 0, 57, 44
4, 453120, Note_on_c, 0, 57, 0
4, 453120, Note_on_c, 0, 53, 0
4, 453120, Note_on_c, 0, 50, 0
4, 453120, Note_on_c, 0, 57, 44
4, 453120, Note_on_c, 0, 62, 44
4, 453120, Note_on_c, 0, 65, 44
4, 453600, Note_on_c, 0, 65, 0
4, 453600, Note_on_c, 0, 62, 0
4, 453600, Note_on_c, 0, 57, 0
4, 454080, Note_on_c, 0, 50, 44
4, 454080, Note_on_c, 0, 53, 44
4, 454080, Note_on_c, 0, 57, 44
4, 454560, Note_on_c, 0, 57, 0
4, 454560, Note_on_c, 0, 53, 0
4, 454560, Note_on_c, 0, 50, 0
4, 454560, Note_on_c, 0, 57, 44
4, 454560, Note_on_c, 0, 62, 44
4, 454560, Note_on_c, 0, 65, 44
4, 455040, Note_on_c, 0, 65, 0
4, 455040, Note_on_c, 0, 62, 0
4, 455040, Note_on_c, 0, 57, 0
4, 455520, Note_on_c, 0, 50, 44
4, 455520, Note_on_c, 0, 52, 44
4, 455520, Note_on_c, 0, 55, 44
4, 455520, Note_on_c, 0, 58, 44
4, 456000, Note_on_c, 0, 58, 0
4, 456000, Note_on_c, 0, 50, 0
4, 456000, Note_on_c, 0, 52, 0
4, 456000, Note_on_c, 0, 55, 0
4, 456000, Note_on_c, 0, 58, 44
4, 456000, Note_on_c, 0, 62, 44
4, 456000, Note_on_c, 0, 64, 44
4, 456480, Note_on_c, 0, 64, 0
4, 456480, Note_on_c, 0, 62, 0
4, 456480, Note_on_c, 0, 58, 0
4, 456960, Note_on_c, 0, 50, 44
4, 456960, Note_on_c, 0, 52, 44
4, 456960, Note_on_c, 0, 55, 44
4, 456960, Note_on_c, 0, 58, 44
4, 457440, Note_on_c, 0, 58, 0
4, 457440, Note_on_c, 0, 50, 0
4, 457440, Note_on_c, 0, 52, 0
4, 457440, Note_on_c, 0, 55, 0
4, 457440, Note_on_c, 0, 58, 44
4, 457440, Note_on_c, 0, 62, 44
4, 457440, Note_on_c, 0, 64, 44
4, 457920, Note_on_c, 0, 64, 0
4, 457920, Note_on_c, 0, 62, 0
4, 457920, Note_on_c, 0, 58, 0
4, 458400, Note_on_c, 0, 50, 44
4, 458400, Note_on_c, 0, 57, 44
4, 458400, Note_on_c, 0, 61, 44
4, 458880, Note_on_c, 0, 61, 0
4, 458880, Note_on_c, 0, 57, 0
4, 458880, Note_on_c, 0, 50, 0
4, 458880, Note_on_c, 0, 57, 44
4, 458880, Note_on_c, 0, 61, 44
4, 458880, Note_on_c, 0, 64, 44
4, 459360, Note_on_c, 0, 64, 0
4, 459360, Note_on_c, 0, 61, 0
4, 459360, Note_on_c, 0, 57, 0
4, 459840, Note_on_c, 0, 50, 44
4, 459840, Note_on_c, 0, 53, 44
4, 459840, Note_on_c, 0, 57, 44
4, 460320, Note_on_c, 0, 57, 0
4, 460320, Note_on_c, 0, 53, 0
4, 460320, Note_on_c, 0, 50, 0
4, 461280, Note_on_c, 0, 50, 44
4, 461280, Note_on_c, 0, 53, 44
4, 461280, Note_on_c, 0, 57, 44
4, 461760, Note_on_c, 0, 57, 0
4, 461760, Note_on_c, 0, 53, 0
4, 461760, Note_on_c, 0, 50, 0
4, 461760, Note_on_c, 0, 57, 44
4, 461760, Note_on_c, 0, 62, 44
4, 461760, Note_on_c, 0, 65, 44
4, 462240, Note_on_c, 0, 65, 0
4, 462240, Note_on_c, 0, 62, 0
4, 462240, Note_on_c, 0, 57, 0
4, 462720, Note_on_c, 0, 50, 44
4, 462720, Note_on_c, 0, 53, 44
4, 462720, Note_on_c, 0, 57, 44
4, 463200, Note_on_c, 0, 57, 0
4, 463200, Note_on_c, 0, 53, 0
4, 463200, Note_on_c, 0, 50, 0
4, 463200, Note_on_c, 0, 57, 44
4, 463200, Note_on_c, 0, 62, 44
4, 463200, Note_on_c, 0, 65, 44
4, 463680, Note_on_c, 0, 65, 0
4, 463680, Note_on_c, 0, 62, 0
4, 463680, Note_on_c, 0, 57, 0
4, 464160, Note_on_c, 0, 50, 44
4, 464160, Note_on_c, 0, 53, 44
4, 464160, Note_on_c, 0, 57, 44
4, 464640, Note_on_c, 0, 57, 0
4, 464640, Note_on_c, 0, 53, 0
4, 464640, Note_on_c, 0, 50, 0
4, 464640, Note_on_c, 0, 57, 44
4, 464640, Note_on_c, 0, 62, 44
4, 464640, Note_on_c, 0, 65, 44
4, 465120, Note_on_c, 0, 65, 0
4, 465120, Note_on_c, 0, 62, 0
4, 465120, Note_on_c, 0, 57, 0
4, 465600, Note_on_c, 0, 50, 44
4, 465600, Note_on_c, 0, 53, 44
4, 465600, Note_on_c, 0, 57, 44
4, 466080, Note_on_c, 0, 57, 0
4, 466080, Note_on_c, 0, 53, 0
4, 466080, Note_on_c, 0, 50, 0
4, 466080, Note_on_c, 0, 57, 44
4, 466080, Note_on_c, 0, 62, 44
4, 466080, Note_on_c, 0, 65, 44
4, 466560, Note_on_c, 0, 65, 0
4, 466560, Note_on_c, 0, 62, 0
4, 466560, Note_on_c, 0, 57, 0
4, 467040, Note_on_c, 0, 50, 44
4, 467040, Note_on_c, 0, 52, 44
4, 467040, Note_on_c, 0, 55, 44
4, 467040, Note_on_c, 0, 58, 44
4, 467520, Note_on_c, 0, 58, 0
4, 467520, Note_on_c, 0, 50, 0
4, 467520, Note_on_c, 0, 52, 0
4, 467520, Note_on_c, 0, 55, 0
4, 467520, Note_on_c, 0, 58, 44
4, 467520, Note_on_c, 0, 62, 44
4, 467520, Note_on_c, 0, 64, 44
4, 468000, Note_on_c, 0, 64, 0
4, 468000, Note_on_c, 0, 62, 0
4, 468000, Note_on_c, 0, 58, 0
4, 468480, Note_on_c, 0, 50, 44
4, 468480, Note_on_c, 0, 52, 44
4, 468480, Note_on_c, 0, 55, 44
4, 468480, Note_on_c, 0, 58, 44
4, 468960, Note_on_c, 0, 58, 0
4, 468960, Note_on_c, 0, 50, 0
4, 468960, Note_on_c, 0, 52, 0
4, 468960, Note_on_c, 0, 55, 0
4, 468960, Note_on_c, 0, 58, 44
4, 468960, Note_on_c, 0, 62, 44
4, 468960, Note_on_c, 0, 64, 44
4, 469440, Note_on_c, 0, 64, 0
4, 469440, Note_on_c, 0, 62, 0
4, 469440, Note_on_c, 0, 58, 0
4, 469920, Note_on_c, 0, 50, 44
4, 469920, Note_on_c, 0, 57, 44
4, 469920, Note_on_c, 0, 61, 44
4, 470400, Note_on_c, 0, 61, 0
4, 470400, Note_on_c, 0, 57, 0
4, 470400, Note_on_c, 0, 50, 0
4, 470400, Note_on_c, 0, 57, 44
4, 470400, Note_on_c, 0, 61, 44
4, 470400, Note_on_c, 0, 64, 44
4, 470880, Note_on_c, 0, 64, 0
4, 470880, Note_on_c, 0, 61, 0
4, 470880, Note_on_c, 0, 57, 0
4, 470880, Note_on_c, 0, 50, 44
4, 470880, Note_on_c, 0, 53, 44
4, 470880, Note_on_c, 0, 57, 44
4, 471360, Note_on_c, 0, 57, 0
4, 471360, Note_on_c, 0, 53, 0
4, 471360, Note_on_c, 0, 50, 0
4, 472800, Note_on_c, 0, 50, 44
4, 472800, Note_on_c, 0, 53, 44
4, 472800, Note_on_c, 0, 57, 44
4, 473280, Note_on_c, 0, 57, 0
4, 473280, Note_on_c, 0, 53, 0
4, 473280, Note_on_c, 0, 50, 0
4, 473280, Note_on_c, 0, 57, 44
4, 473280, Note_on_c, 0, 62, 44
4, 473280, Note_on_c, 0, 65, 44
4, 473760, Note_on_c, 0, 65, 0
4, 473760, Note_on_c, 0, 62, 0
4, 473760, Note_on_c, 0, 57, 0
4, 474240, Note_on_c, 0, 50, 44
4, 474240, Note_on_c, 0, 53, 44
4, 474240, Note_on_c, 0, 57, 44
4, 474720, Note_on_c, 0, 57, 0
4, 474720, Note_on_c, 0, 53, 0
4, 474720, Note_on_c, 0, 50, 0
4, 474720, Note_on_c, 0, 57, 44
4, 474720, Note_on_c, 0, 62, 44
4, 474720, Note_on_c, 0, 65, 44
4, 475200, Note_on_c, 0, 65, 0
4, 475200, Note_on_c, 0, 62, 0
4, 475200, Note_on_c, 0, 57, 0
4, 475680, Note_on_c, 0, 50, 44
4, 475680, Note_on_c, 0, 53, 44
4, 475680, Note_on_c, 0, 57, 44
4, 476160, Note_on_c, 0, 57, 0
4, 476160, Note_on_c, 0, 53, 0
4, 476160, Note_on_c, 0, 50, 0
4, 476160, Note_on_c, 0, 57, 44
4, 476160, Note_on_c, 0, 62, 44
4, 476160, Note_on_c, 0, 65, 44
4, 476640, Note_on_c, 0, 65, 0
4, 476640, Note_on_c, 0, 62, 0
4, 476640, Note_on_c, 0, 57, 0
4, 477120, Note_on_c, 0, 50, 44
4, 477120, Note_on_c, 0, 53, 44
4, 477120, Note_on_c, 0, 57, 44
4, 477600, Note_on_c, 0, 57, 0
4, 477600, Note_on_c, 0, 53, 0
4, 477600, Note_on_c, 0, 50, 0
4, 477600, Note_on_c, 0, 57, 44
4, 477600, Note_on_c, 0, 62, 44
4, 477600, Note_on_c, 0, 65, 44
4, 478080, Note_on_c, 0, 65, 0
4, 478080, Note_on_c, 0, 62, 0
4, 478080, Note_on_c, 0, 57, 0
4, 478560, Note_on_c, 0, 50, 44
4, 478560, Note_on_c, 0, 52, 44
4, 478560, Note_on_c, 0, 55, 44
4, 478560, Note_on_c, 0, 58, 44
4, 479040, Note_on_c, 0, 58, 0
4, 479040, Note_on_c, 0, 50, 0
4, 479040, Note_on_c, 0, 52, 0
4, 479040, Note_on_c, 0, 55, 0
4, 479040, Note_on_c, 0, 58, 44
4, 479040, Note_on_c, 0, 62, 44
4, 479040, Note_on_c, 0, 64, 44
4, 479520, Note_on_c, 0, 64, 0
4, 479520, Note_on_c, 0, 62, 0
4, 479520, Note_on_c, 0, 58, 0
4, 480000, Note_on_c, 0, 50, 44
4, 480000, Note_on_c, 0, 52, 44
4, 480000, Note_on_c, 0, 55, 44
4, 480000, Note_on_c, 0, 58, 44
4, 480480, Note_on_c, 0, 58, 0
4, 480480, Note_on_c, 0, 50, 0
4, 480480, Note_on_c, 0, 52, 0
4, 480480, Note_on_c, 0, 55, 0
4, 480480, Note_on_c, 0, 58, 44
4, 480480, Note_on_c, 0, 62, 44
4, 480480, Note_on_c, 0, 64, 44
4, 480960, Note_on_c, 0, 64, 0
4, 480960, Note_on_c, 0, 62, 0
4, 480960, Note_on_c, 0, 58, 0
4, 481440, Note_on_c, 0, 50, 44
4, 481440, Note_on_c, 0, 57, 44
4, 481440, Note_on_c, 0, 61, 44
4, 481920, Note_on_c, 0, 61, 0
4, 481920, Note_on_c, 0, 57, 0
4, 481920, Note_on_c, 0, 50, 0
4, 481920, Note_on_c, 0, 57, 44
4, 481920, Note_on_c, 0, 61, 44
4, 481920, Note_on_c, 0, 64, 44
4, 482400, Note_on_c, 0, 64, 0
4, 482400, Note_on_c, 0, 61, 0
4, 482400, Note_on_c, 0, 57, 0
4, 482880, Note_on_c, 0, 50, 44
4, 482880, Note_on_c, 0, 53, 44
4, 482880, Note_on_c, 0, 57, 44
4, 483360, Note_on_c, 0, 57, 0
4, 483360, Note_on_c, 0, 53, 0
4, 483360, Note_on_c, 0, 50, 0
4, 484320, Note_on_c, 0, 50, 44
4, 484320, Note_on_c, 0, 53, 44
4, 484320, Note_on_c, 0, 57, 44
4, 484800, Note_on_c, 0, 57, 0
4, 484800, Note_on_c, 0, 53, 0
4, 484800, Note_on_c, 0, 50, 0
4, 484800, Note_on_c, 0, 57, 44
4, 484800, Note_on_c, 0, 62, 44
4, 484800, Note_on_c, 0, 65, 44
4, 485280, Note_on_c, 0, 65, 0
4, 485280, Note_on_c, 0, 62, 0
4, 485280, Note_on_c, 0, 57, 0
4, 485760, Note_on_c, 0, 50, 44
4, 485760, Note_on_c, 0, 53, 44
4, 485760, Note_on_c, 0, 57, 44
4, 486240, Note_on_c, 0, 57, 0
4, 486240, Note_on_c, 0, 53, 0
4, 486240, Note_on_c, 0, 50, 0
4, 486240, Note_on_c, 0, 57, 44
4, 486240, Note_on_c, 0, 62, 44
4, 486240, Note_on_c, 0, 65, 44
4, 486720, Note_on_c, 0, 65, 0
4, 486720, Note_on_c, 0, 62, 0
4, 486720, Note_on_c, 0, 57, 0
4, 487200, Note_on_c, 0, 50, 44
4, 487200, Note_on_c, 0, 53, 44
4, 487200, Note_on_c, 0, 57, 44
4, 487680, Note_on_c, 0, 57, 0
4, 487680, Note_on_c, 0, 53, 0
4, 487680, Note_on_c, 0, 50, 0
4, 487680, Note_on_c, 0, 57, 44
4, 487680, Note_on_c, 0, 62, 44
4, 487680, Note_on_c, 0, 65, 44
4, 488160, Note_on_c, 0, 65, 0
4, 488160, Note_on_c, 0, 62, 0
4, 488160, Note_on_c, 0, 57, 0
4, 488640, Note_on_c, 0, 50, 44
4, 488640, Note_on_c, 0, 53, 44
4, 488640, Note_on_c, 0, 57, 44
4, 489120, Note_on_c, 0, 57, 0
4, 489120, Note_on_c, 0, 53, 0
4, 489120, Note_on_c, 0, 50, 0
4, 489120, Note_on_c, 0, 57, 44
4, 489120, Note_on_c, 0, 62, 44
4, 489120, Note_on_c, 0, 65, 44
4, 489600, Note_on_c, 0, 65, 0
4, 489600, Note_on_c, 0, 62, 0
4, 489600, Note_on_c, 0, 57, 0
4, 490080, Note_on_c, 0, 50, 44
4, 490080, Note_on_c, 0, 52, 44
4, 490080, Note_on_c, 0, 55, 44
4, 490080, Note_on_c, 0, 58, 44
4, 490560, Note_on_c, 0, 58, 0
4, 490560, Note_on_c, 0, 50, 0
4, 490560, Note_on_c, 0, 52, 0
4, 490560, Note_on_c, 0, 55, 0
4, 490560, Note_on_c, 0, 58, 44
4, 490560, Note_on_c, 0, 62, 44
4, 490560, Note_on_c, 0, 64, 44
4, 491040, Note_on_c, 0, 64, 0
4, 491040, Note_on_c, 0, 62, 0
4, 491040, Note_on_c, 0, 58, 0
4, 491520, Note_on_c, 0, 50, 44
4, 491520, Note_on_c, 0, 52, 44
4, 491520, Note_on_c, 0, 55, 44
4, 491520, Note_on_c, 0, 58, 44
4, 492000, Note_on_c, 0, 58, 0
4, 492000, Note_on_c, 0, 50, 0
4, 492000, Note_on_c, 0, 52, 0
4, 492000, Note_on_c, 0, 55, 0
4, 492000, Note_on_c, 0, 58, 44
4, 492000, Note_on_c, 0, 62, 44
4, 492000, Note_on_c, 0, 64, 44
4, 492480, Note_on_c, 0, 64, 0
4, 492480, Note_on_c, 0, 62, 0
4, 492480, Note_on_c, 0, 58, 0
4, 492960, Note_on_c, 0, 50, 44
4, 492960, Note_on_c, 0, 57, 44
4, 492960, Note_on_c, 0, 61, 44
4, 493440, Note_on_c, 0, 61, 0
4, 493440, Note_on_c, 0, 57, 0
4, 493440, Note_on_c, 0, 50, 0
4, 493440, Note_on_c, 0, 57, 44
4, 493440, Note_on_c, 0, 61, 44
4, 493440, Note_on_c, 0, 64, 44
4, 493920, Note_on_c, 0, 64, 0
4, 493920, Note_on_c, 0, 61, 0
4, 493920, Note_on_c, 0, 57, 0
4, 493920, Note_on_c, 0, 50, 44
4, 493920, Note_on_c, 0, 53, 44
4, 493920, Note_on_c, 0, 57, 44
4, 494400, Note_on_c, 0, 57, 0
4, 494400, Note_on_c, 0, 53, 0
4, 494400, Note_on_c, 0, 50, 0
4, 495360, Note_on_c, 0, 34, 70
4, 495360, Note_on_c, 0, 46, 70
4, 496320, Note_on_c, 0, 46, 0
4, 496320, Note_on_c, 0, 34, 0
4, 496800, Note_on_c, 0, 33, 70
4, 496800, Note_on_c, 0, 45, 70
4, 497760, Note_on_c, 0, 45, 0
4, 497760, Note_on_c, 0, 33, 0
4, 498240, Note_on_c, 0, 34, 70
4, 498240, Note_on_c, 0, 46, 70
4, 499200, Note_on_c, 0, 46, 0
4, 499200, Note_on_c, 0, 34, 0
4, 500160, Note_on_c, 0, 53, 70
4, 500160, Note_on_c, 0, 60, 70
4, 500640, Note_on_c, 0, 60, 0
4, 500640, Note_on_c, 0, 53, 0
4, 500640, Note_on_c, 0, 53, 70
4, 500640, Note_on_c, 0, 60, 70
4, 501120, Note_on_c, 0, 60, 0
4, 501120, Note_on_c, 0, 53, 0
4, 501600, Note_on_c, 0, 55, 70
4, 501600, Note_on_c, 0, 58, 70
4, 501600, Note_on_c, 0, 62, 70
4, 502080, Note_on_c, 0, 62, 0
4, 502080, Note_on_c, 0, 58, 0
4, 502080, Note_on_c, 0, 55, 0
4, 502080, Note_on_c, 0, 55, 70
4, 502080, Note_on_c, 0, 58, 70
4, 502080, Note_on_c, 0, 62, 70
4, 502560, Note_on_c, 0, 62, 0
4, 502560, Note_on_c, 0, 58, 0
4, 502560, Note_on_c, 0, 55, 0
4, 503040, Note_on_c, 0, 57, 70
4, 503040, Note_on_c, 0, 62, 70
4, 503040, Note_on_c, 0, 65, 70
4, 503520, Note_on_c, 0, 65, 0
4, 503520, Note_on_c, 0, 62, 0
4, 503520, Note_on_c, 0, 57, 0
4, 503520, Note_on_c, 0, 57, 70
4, 503520, Note_on_c, 0, 62, 70
4, 503520, Note_on_c, 0, 65, 70
4, 504000, Note_on_c, 0, 65, 0
4, 504000, Note_on_c, 0, 62, 0
4, 504000, Note_on_c, 0, 57, 0
4, 504480, Note_on_c, 0, 55, 70
4, 504480, Note_on_c, 0, 60, 70
4, 504480, Note_on_c, 0, 63, 70
4, 504960, Note_on_c, 0, 63, 0
4, 504960, Note_on_c, 0, 60, 0
4, 504960, Note_on_c, 0, 55, 0
4, 504960, Note_on_c, 0, 55, 70
4, 504960, Note_on_c, 0, 60, 70
4, 504960, Note_on_c, 0, 63, 70
4, 505440, Note_on_c, 0, 63, 0
4, 505440, Note_on_c, 0, 60, 0
4, 505440, Note_on_c, 0, 55, 0
4, 505920, Note_on_c, 0, 55, 70
4, 505920, Note_on_c, 0, 60, 70
4, 505920, Note_on_c, 0, 63, 70
4, 506400, Note_on_c, 0, 63, 0
4, 506400, Note_on_c, 0, 60, 0
4, 506400, Note_on_c, 0, 55, 0
4, 506400, Note_on_c, 0, 55, 70
4, 506400, Note_on_c, 0, 60, 70
4, 506400, Note_on_c, 0, 63, 70
4, 506880, Note_on_c, 0, 63, 0
4, 506880, Note_on_c, 0, 60, 0
4, 506880, Note_on_c, 0, 55, 0
4, 507360, Note_on_c, 0, 55, 70
4, 507360, Note_on_c, 0, 60, 70
4, 507360, Note_on_c, 0, 63, 70
4, 507840, Note_on_c, 0, 63, 0
4, 507840, Note_on_c, 0, 60, 0
4, 507840, Note_on_c, 0, 55, 0
4, 507840, Note_on_c, 0, 55, 70
4, 507840, Note_on_c, 0, 60, 70
4, 507840, Note_on_c, 0, 63, 70
4, 508320, Note_on_c, 0, 63, 0
4, 508320, Note_on_c, 0, 60, 0
4, 508320, Note_on_c, 0, 55, 0
4, 508800, Note_on_c, 0, 55, 70
4, 508800, Note_on_c, 0, 60, 70
4, 508800, Note_on_c, 0, 63, 70
4, 509280, Note_on_c, 0, 63, 0
4, 509280, Note_on_c, 0, 60, 0
4, 509280, Note_on_c, 0, 55, 0
4, 509280, Note_on_c, 0, 55, 70
4, 509280, Note_on_c, 0, 60, 70
4, 509280, Note_on_c, 0, 63, 70
4, 509760, Note_on_c, 0, 63, 0
4, 509760, Note_on_c, 0, 60, 0
4, 509760, Note_on_c, 0, 55, 0
4, 509760, Note_on_c, 0, 41, 70
4, 509760, Note_on_c, 0, 53, 70
4, 510240, Note_on_c, 0, 53, 0
4, 510240, Note_on_c, 0, 41, 0
4, 510240, Note_on_c, 0, 48, 70
4, 510240, Note_on_c, 0, 51, 70
4, 510240, Note_on_c, 0, 60, 70
4, 510720, Note_on_c, 0, 60, 0
4, 510720, Note_on_c, 0, 51, 0
4, 510720, Note_on_c, 0, 48, 0
4, 510720, Note_on_c, 0, 50, 70
4, 510720, Note_on_c, 0, 53, 70
4, 510720, Note_on_c, 0, 62, 70
4, 511200, Note_on_c, 0, 62, 0
4, 511200, Note_on_c, 0, 53, 0
4, 511200, Note_on_c, 0, 50, 0
4, 511200, Note_on_c, 0, 55, 70
4, 511200, Note_on_c, 0, 58, 70
4, 511200, Note_on_c, 0, 67, 70
4, 512160, Note_on_c, 0, 67, 0
4, 512160, Note_on_c, 0, 58, 0
4, 512160, Note_on_c, 0, 55, 0
4, 512160, Note_on_c, 0, 53, 70
4, 512160, Note_on_c, 0, 57, 70
4, 512160, Note_on_c, 0, 65, 70
4, 512640, Note_on_c, 0, 65, 0
4, 512640, Note_on_c, 0, 57, 0
4, 512640, Note_on_c, 0, 53, 0
4, 512640, Note_on_c, 0, 55, 70
4, 512640, Note_on_c, 0, 58, 70
4, 512640, Note_on_c, 0, 67, 70
4, 513120, Note_on_c, 0, 67, 0
4, 513120, Note_on_c, 0, 58, 0
4, 513120, Note_on_c, 0, 55, 0
4, 513120, Note_on_c, 0, 53, 70
4, 513120, Note_on_c, 0, 57, 70
4, 513120, Note_on_c, 0, 65, 70
4, 513840, Note_on_c, 0, 65, 0
4, 513840, Note_on_c, 0, 57, 0
4, 513840, Note_on_c, 0, 53, 0
4, 513840, Note_on_c, 0, 57, 70
4, 513840, Note_on_c, 0, 60, 70
4, 513840, Note_on_c, 0, 69, 70
4, 514080, Note_on_c, 0, 69, 0
4, 514080, Note_on_c, 0, 60, 0
4, 514080, Note_on_c, 0, 57, 0
4, 514080, Note_on_c, 0, 55, 70
4, 514080, Note_on_c, 0, 58, 70
4, 514080, Note_on_c, 0, 67, 70
4, 514560, Note_on_c, 0, 67, 0
4, 514560, Note_on_c, 0, 58, 0
4, 514560, Note_on_c, 0, 55, 0
4, 514560, Note_on_c, 0, 53, 70
4, 514560, Note_on_c, 0, 57, 70
4, 514560, Note_on_c, 0, 65, 70
4, 515040, Note_on_c, 0, 65, 0
4, 515040, Note_on_c, 0, 57, 0
4, 515040, Note_on_c, 0, 53, 0
4, 515040, Note_on_c, 0, 51, 70
4, 515040, Note_on_c, 0, 55, 70
4, 515040, Note_on_c, 0, 63, 70
4, 515520, Note_on_c, 0, 63, 0
4, 515520, Note_on_c, 0, 55, 0
4, 515520, Note_on_c, 0, 51, 0
4, 515520, Note_on_c, 0, 46, 70
4, 515520, Note_on_c, 0, 53, 70
4, 515520, Note_on_c, 0, 62, 70
4, 516000, Note_on_c, 0, 62, 0
4, 516000, Note_on_c, 0, 53, 0
4, 516000, Note_on_c, 0, 46, 0
4, 516960, Note_on_c, 0, 40, 83
4, 517440, Note_on_c, 0, 40, 0
4, 517440, Note_on_c, 0, 41, 83
4, 517920, Note_on_c, 0, 41, 0
4, 517920, Note_on_c, 0, 45, 83
4, 518400, Note_on_c, 0, 45, 0
4, 518400, Note_on_c, 0, 34, 70
4, 518400, Note_on_c, 0, 46, 70
4, 519360, Note_on_c, 0, 46, 0
4, 519360, Note_on_c, 0, 34, 0
4, 519840, Note_on_c, 0, 33, 70
4, 519840, Note_on_c, 0, 45, 70
4, 520800, Note_on_c, 0, 45, 0
4, 520800, Note_on_c, 0, 33, 0
4, 521280, Note_on_c, 0, 34, 70
4, 521280, Note_on_c, 0, 46, 70
4, 522240, Note_on_c, 0, 46, 0
4, 522240, Note_on_c, 0, 34, 0
4, 523200, Note_on_c, 0, 53, 70
4, 523200, Note_on_c, 0, 60, 70
4, 523680, Note_on_c, 0, 60, 0
4, 523680, Note_on_c, 0, 53, 0
4, 523680, Note_on_c, 0, 53, 70
4, 523680, Note_on_c, 0, 60, 70
4, 524160, Note_on_c, 0, 60, 0
4, 524160, Note_on_c, 0, 53, 0
4, 524640, Note_on_c, 0, 55, 70
4, 524640, Note_on_c, 0, 58, 70
4, 524640, Note_on_c, 0, 62, 70
4, 525120, Note_on_c, 0, 62, 0
4, 525120, Note_on_c, 0, 58, 0
4, 525120, Note_on_c, 0, 55, 0
4, 525120, Note_on_c, 0, 55, 70
4, 525120, Note_on_c, 0, 58, 70
4, 525120, Note_on_c, 0, 62, 70
4, 525600, Note_on_c, 0, 62, 0
4, 525600, Note_on_c, 0, 58, 0
4, 525600, Note_on_c, 0, 55, 0
4, 526080, Note_on_c, 0, 57, 70
4, 526080, Note_on_c, 0, 62, 70
4, 526080, Note_on_c, 0, 65, 70
4, 526560, Note_on_c, 0, 65, 0
4, 526560, Note_on_c, 0, 62, 0
4, 526560, Note_on_c, 0, 57, 0
4, 526560, Note_on_c, 0, 57, 70
4, 526560, Note_on_c, 0, 62, 70
4, 526560, Note_on_c, 0, 65, 70
4, 527040, Note_on_c, 0, 65, 0
4, 527040, Note_on_c, 0, 62, 0
4, 527040, Note_on_c, 0, 57, 0
4, 527520, Note_on_c, 0, 55, 70
4, 527520, Note_on_c, 0, 60, 70
4, 527520, Note_on_c, 0, 63, 70
4, 528000, Note_on_c, 0, 63, 0
4, 528000, Note_on_c, 0, 60, 0
4, 528000, Note_on_c, 0, 55, 0
4, 528000, Note_on_c, 0, 55, 70
4, 528000, Note_on_c, 0, 60, 70
4, 528000, Note_on_c, 0, 63, 70
4, 528480, Note_on_c, 0, 63, 0
4, 528480, Note_on_c, 0, 60, 0
4, 528480, Note_on_c, 0, 55, 0
4, 528960, Note_on_c, 0, 55, 70
4, 528960, Note_on_c, 0, 60, 70
4, 528960, Note_on_c, 0, 63, 70
4, 529440, Note_on_c, 0, 63, 0
4, 529440, Note_on_c, 0, 60, 0
4, 529440, Note_on_c, 0, 55, 0
4, 529440, Note_on_c, 0, 55, 70
4, 529440, Note_on_c, 0, 60, 70
4, 529440, Note_on_c, 0, 63, 70
4, 529920, Note_on_c, 0, 63, 0
4, 529920, Note_on_c, 0, 60, 0
4, 529920, Note_on_c, 0, 55, 0
4, 530400, Note_on_c, 0, 55, 70
4, 530400, Note_on_c, 0, 60, 70
4, 530400, Note_on_c, 0, 63, 70
4, 530880, Note_on_c, 0, 63, 0
4, 530880, Note_on_c, 0, 60, 0
4, 530880, Note_on_c, 0, 55, 0
4, 530880, Note_on_c, 0, 55, 70
4, 530880, Note_on_c, 0, 60, 70
4, 530880, Note_on_c, 0, 63, 70
4, 531360, Note_on_c, 0, 63, 0
4, 531360, Note_on_c, 0, 60, 0
4, 531360, Note_on_c, 0, 55, 0
4, 531840, Note_on_c, 0, 55, 70
4, 531840, Note_on_c, 0, 60, 70
4, 531840, Note_on_c, 0, 63, 70
4, 532320, Note_on_c, 0, 63, 0
4, 532320, Note_on_c, 0, 60, 0
4, 532320, Note_on_c, 0, 55, 0
4, 532320, Note_on_c, 0, 55, 70
4, 532320, Note_on_c, 0, 60, 70
4, 532320, Note_on_c, 0, 63, 70
4, 532800, Note_on_c, 0, 63, 0
4, 532800, Note_on_c, 0, 60, 0
4, 532800, Note_on_c, 0, 55, 0
4, 532800, Note_on_c, 0, 41, 70
4, 532800, Note_on_c, 0, 53, 70
4, 533280, Note_on_c, 0, 53, 0
4, 533280, Note_on_c, 0, 41, 0
4, 533280, Note_on_c, 0, 48, 70
4, 533280, Note_on_c, 0, 51, 70
4, 533280, Note_on_c, 0, 60, 70
4, 533760, Note_on_c, 0, 60, 0
4, 533760, Note_on_c, 0, 51, 0
4, 533760, Note_on_c, 0, 48, 0
4, 533760, Note_on_c, 0, 50, 70
4, 533760, Note_on_c, 0, 53, 70
4, 533760, Note_on_c, 0, 62, 70
4, 534240, Note_on_c, 0, 62, 0
4, 534240, Note_on_c, 0, 53, 0
4, 534240, Note_on_c, 0, 50, 0
4, 534240, Note_on_c, 0, 55, 70
4, 534240, Note_on_c, 0, 58, 70
4, 534240, Note_on_c, 0, 67, 70
4, 535200, Note_on_c, 0, 67, 0
4, 535200, Note_on_c, 0, 58, 0
4, 535200, Note_on_c, 0, 55, 0
4, 535200, Note_on_c, 0, 53, 70
4, 535200, Note_on_c, 0, 57, 70
4, 535200, Note_on_c, 0, 65, 70
4, 535680, Note_on_c, 0, 65, 0
4, 535680, Note_on_c, 0, 57, 0
4, 535680, Note_on_c, 0, 53, 0
4, 535680, Note_on_c, 0, 55, 70
4, 535680, Note_on_c, 0, 58, 70
4, 535680, Note_on_c, 0, 67, 70
4, 536160, Note_on_c, 0, 67, 0
4, 536160, Note_on_c, 0, 58, 0
4, 536160, Note_on_c, 0, 55, 0
4, 536160, Note_on_c, 0, 53, 70
4, 536160, Note_on_c, 0, 57, 70
4, 536160, Note_on_c, 0, 65, 70
4, 536880, Note_on_c, 0, 65, 0
4, 536880, Note_on_c, 0, 57, 0
4, 536880, Note_on_c, 0, 53, 0
4, 536880, Note_on_c, 0, 57, 70
4, 536880, Note_on_c, 0, 60, 70
4, 536880, Note_on_c, 0, 69, 70
4, 537120, Note_on_c, 0, 69, 0
4, 537120, Note_on_c, 0, 60, 0
4, 537120, Note_on_c, 0, 57, 0
4, 537120, Note_on_c, 0, 55, 70
4, 537120, Note_on_c, 0, 58, 70
4, 537120, Note_on_c, 0, 67, 70
4, 537600, Note_on_c, 0, 67, 0
4, 537600, Note_on_c, 0, 58, 0
4, 537600, Note_on_c, 0, 55, 0
4, 537600, Note_on_c, 0, 53, 70
4, 537600, Note_on_c, 0, 57, 70
4, 537600, Note_on_c, 0, 65, 70
4, 538080, Note_on_c, 0, 65, 0
4, 538080, Note_on_c, 0, 57, 0
4, 538080, Note_on_c, 0, 53, 0
4, 538080, Note_on_c, 0, 51, 70
4, 538080, Note_on_c, 0, 55, 70
4, 538080, Note_on_c, 0, 63, 70
4, 538560, Note_on_c, 0, 63, 0
4, 538560, Note_on_c, 0, 55, 0
4, 538560, Note_on_c, 0, 51, 0
4, 538560, Note_on_c, 0, 46, 70
4, 538560, Note_on_c, 0, 53, 70
4, 538560, Note_on_c, 0, 62, 70
4, 539040, Note_on_c, 0, 62, 0
4, 539040, Note_on_c, 0, 53, 0
4, 539040, Note_on_c, 0, 46, 0
4, 540000, Note_on_c, 0, 46, 70
4, 540000, Note_on_c, 0, 58, 70
4, 540480, Note_on_c, 0, 58, 0
4, 540480, Note_on_c, 0, 46, 0
4, 540480, Note_on_c, 0, 45, 57
4, 540480, Note_on_c, 0, 57, 57
4, 540960, Note_on_c, 0, 57, 0
4, 540960, Note_on_c, 0, 45, 0
4, 541920, Note_on_c, 0, 50, 44
4, 541920, Note_on_c, 0, 53, 44
4, 541920, Note_on_c, 0, 57, 44
4, 542400, Note_on_c, 0, 57, 0
4, 542400, Note_on_c, 0, 53, 0
4, 542400, Note_on_c, 0, 50, 0
4, 542400, Note_on_c, 0, 57, 44
4, 542400, Note_on_c, 0, 62, 44
4, 542400, Note_on_c, 0, 65, 44
4, 542880, Note_on_c, 0, 65, 0
4, 542880, Note_on_c, 0, 62, 0
4, 542880, Note_on_c, 0, 57, 0
4, 543360, Note_on_c, 0, 50, 44
4, 543360, Note_on_c, 0, 53, 44
4, 543360, Note_on_c, 0, 57, 44
4, 543840, Note_on_c, 0, 57, 0
4, 543840, Note_on_c, 0, 53, 0
4, 543840, Note_on_c, 0, 50, 0
4, 543840, Note_on_c, 0, 57, 44
4, 543840, Note_on_c, 0, 62, 44
4, 543840, Note_on_c, 0, 65, 44
4, 544320, Note_on_c, 0, 65, 0
4, 544320, Note_on_c, 0, 62, 0
4, 544320, Note_on_c, 0, 57, 0
4, 544800, Note_on_c, 0, 50, 44
4, 544800, Note_on_c, 0, 53, 44
4, 544800, Note_on_c, 0, 57, 44
4, 545280, Note_on_c, 0, 57, 0
4, 545280, Note_on_c, 0, 53, 0
4, 545280, Note_on_c, 0, 50, 0
4, 545280, Note_on_c, 0, 57, 44
4, 545280, Note_on_c, 0, 62, 44
4, 545280, Note_on_c, 0, 65, 44
4, 545760, Note_on_c, 0, 65, 0
4, 545760, Note_on_c, 0, 62, 0
4, 545760, Note_on_c, 0, 57, 0
4, 546240, Note_on_c, 0, 50, 44
4, 546240, Note_on_c, 0, 53, 44
4, 546240, Note_on_c, 0, 57, 44
4, 546720, Note_on_c, 0, 57, 0
4, 546720, Note_on_c, 0, 53, 0
4, 546720, Note_on_c, 0, 50, 0
4, 546720, Note_on_c, 0, 57, 44
4, 546720, Note_on_c, 0, 62, 44
4, 546720, Note_on_c, 0, 65, 44
4, 547200, Note_on_c, 0, 65, 0
4, 547200, Note_on_c, 0, 62, 0
4, 547200, Note_on_c, 0, 57, 0
4, 547680, Note_on_c, 0, 50, 44
4, 547680, Note_on_c, 0, 52, 44
4, 547680, Note_on_c, 0, 55, 44
4, 547680, Note_on_c, 0, 58, 44
4, 548160, Note_on_c, 0, 58, 0
4, 548160, Note_on_c, 0, 50, 0
4, 548160, Note_on_c, 0, 52, 0
4, 548160, Note_on_c, 0, 55, 0
4, 548160, Note_on_c, 0, 58, 44
4, 548160, Note_on_c, 0, 62, 44
4, 548160, Note_on_c, 0, 64, 44
4, 548640, Note_on_c, 0, 64, 0
4, 548640, Note_on_c, 0, 62, 0
4, 548640, Note_on_c, 0, 58, 0
4, 549120, Note_on_c, 0, 50, 44
4, 549120, Note_on_c, 0, 52, 44
4, 549120, Note_on_c, 0, 55, 44
4, 549120, Note_on_c, 0, 58, 44
4, 549600, Note_on_c, 0, 58, 0
4, 549600, Note_on_c, 0, 50, 0
4, 549600, Note_on_c, 0, 52, 0
4, 549600, Note_on_c, 0, 55, 0
4, 549600, Note_on_c, 0, 58, 44
4, 549600, Note_on_c, 0, 62, 44
4, 549600, Note_on_c, 0, 64, 44
4, 550080, Note_on_c, 0, 64, 0
4, 550080, Note_on_c, 0, 62, 0
4, 550080, Note_on_c, 0, 58, 0
4, 550560, Note_on_c, 0, 50, 44
4, 550560, Note_on_c, 0, 57, 44
4, 550560, Note_on_c, 0, 61, 44
4, 551040, Note_on_c, 0, 61, 0
4, 551040, Note_on_c, 0, 57, 0
4, 551040, Note_on_c, 0, 50, 0
4, 551040, Note_on_c, 0, 57, 44
4, 551040, Note_on_c, 0, 61, 44
4, 551040, Note_on_c, 0, 64, 44
4, 551520, Note_on_c, 0, 64, 0
4, 551520, Note_on_c, 0, 61, 0
4, 551520, Note_on_c, 0, 57, 0
4, 552000, Note_on_c, 0, 50, 44
4, 552000, Note_on_c, 0, 53, 44
4, 552000, Note_on_c, 0, 57, 44
4, 552480, Note_on_c, 0, 57, 0
4, 552480, Note_on_c, 0, 53, 0
4, 552480, Note_on_c, 0, 50, 0
4, 553440, Note_on_c, 0, 50, 44
4, 553440, Note_on_c, 0, 53, 44
4, 553440, Note_on_c, 0, 57, 44
4, 553920, Note_on_c, 0, 57, 0
4, 553920, Note_on_c, 0, 53, 0
4, 553920, Note_on_c, 0, 50, 0
4, 553920, Note_on_c, 0, 57, 44
4, 553920, Note_on_c, 0, 62, 44
4, 553920, Note_on_c, 0, 65, 44
4, 554400, Note_on_c, 0, 65, 0
4, 554400, Note_on_c, 0, 62, 0
4, 554400, Note_on_c, 0, 57, 0
4, 554880, Note_on_c, 0, 50, 44
4, 554880, Note_on_c, 0, 53, 44
4, 554880, Note_on_c, 0, 57, 44
4, 555360, Note_on_c, 0, 57, 0
4, 555360, Note_on_c, 0, 53, 0
4, 555360, Note_on_c, 0, 50, 0
4, 555360, Note_on_c, 0, 57, 44
4, 555360, Note_on_c, 0, 62, 44
4, 555360, Note_on_c, 0, 65, 44
4, 555840, Note_on_c, 0, 65, 0
4, 555840, Note_on_c, 0, 62, 0
4, 555840, Note_on_c, 0, 57, 0
4, 556320, Note_on_c, 0, 50, 44
4, 556320, Note_on_c, 0, 53, 44
4, 556320, Note_on_c, 0, 57, 44
4, 556800, Note_on_c, 0, 57, 0
4, 556800, Note_on_c, 0, 53, 0
4, 556800, Note_on_c, 0, 50, 0
4, 556800, Note_on_c, 0, 57, 44
4, 556800, Note_on_c, 0, 62, 44
4, 556800, Note_on_c, 0, 65, 44
4, 557280, Note_on_c, 0, 65, 0
4, 557280, Note_on_c, 0, 62, 0
4, 557280, Note_on_c, 0, 57, 0
4, 557760, Note_on_c, 0, 50, 44
4, 557760, Note_on_c, 0, 53, 44
4, 557760, Note_on_c, 0, 57, 44
4, 558240, Note_on_c, 0, 57, 0
4, 558240, Note_on_c, 0, 53, 0
4, 558240, Note_on_c, 0, 50, 0
4, 558240, Note_on_c, 0, 57, 44
4, 558240, Note_on_c, 0, 62, 44
4, 558240, Note_on_c, 0, 65, 44
4, 558720, Note_on_c, 0, 65, 0
4, 558720, Note_on_c, 0, 62, 0
4, 558720, Note_on_c, 0, 57, 0
4, 559200, Note_on_c, 0, 50, 44
4, 559200, Note_on_c, 0, 52, 44
4, 559200, Note_on_c, 0, 55, 44
4, 559200, Note_on_c, 0, 58, 44
4, 559680, Note_on_c, 0, 58, 0
4, 559680, Note_on_c, 0, 50, 0
4, 559680, Note_on_c, 0, 52, 0
4, 559680, Note_on_c, 0, 55, 0
4, 559680, Note_on_c, 0, 58, 44
4, 559680, Note_on_c, 0, 62, 44
4, 559680, Note_on_c, 0, 64, 44
4, 560160, Note_on_c, 0, 64, 0
4, 560160, Note_on_c, 0, 62, 0
4, 560160, Note_on_c, 0, 58, 0
4, 560640, Note_on_c, 0, 50, 44
4, 560640, Note_on_c, 0, 52, 44
4, 560640, Note_on_c, 0, 55, 44
4, 560640, Note_on_c, 0, 58, 44
4, 561120, Note_on_c, 0, 58, 0
4, 561120, Note_on_c, 0, 50, 0
4, 561120, Note_on_c, 0, 52, 0
4, 561120, Note_on_c, 0, 55, 0
4, 561120, Note_on_c, 0, 58, 44
4, 561120, Note_on_c, 0, 62, 44
4, 561120, Note_on_c, 0, 64, 44
4, 561600, Note_on_c, 0, 64, 0
4, 561600, Note_on_c, 0, 62, 0
4, 561600, Note_on_c, 0, 58, 0
4, 562080, Note_on_c, 0, 50, 44
4, 562080, Note_on_c, 0, 57, 44
4, 562080, Note_on_c, 0, 61, 44
4, 562560, Note_on_c, 0, 61, 0
4, 562560, Note_on_c, 0, 57, 0
4, 562560, Note_on_c, 0, 50, 0
4, 562560, Note_on_c, 0, 57, 44
4, 562560, Note_on_c, 0, 61, 44
4, 562560, Note_on_c, 0, 64, 44
4, 563040, Note_on_c, 0, 64, 0
4, 563040, Note_on_c, 0, 61, 0
4, 563040, Note_on_c, 0, 57, 0
4, 563040, Note_on_c, 0, 50, 44
4, 563040, Note_on_c, 0, 53, 44
4, 563040, Note_on_c, 0, 57, 44
4, 563520, Note_on_c, 0, 57, 0
4, 563520, Note_on_c, 0, 53, 0
4, 563520, Note_on_c, 0, 50, 0
4, 563520, Note_on_c, 0, 50, 44
4, 563520, Note_on_c, 0, 53, 44
4, 563520, Note_on_c, 0, 57, 44
4, 564000, Note_on_c, 0, 57, 0
4, 564000, Note_on_c, 0, 53, 0
4, 564000, Note_on_c, 0, 50, 0
4, 564480, Note_on_c, 0, 48, 57
4, 564480, Note_on_c, 0, 50, 57
4, 564480, Note_on_c, 0, 54, 57
4, 564480, Note_on_c, 0, 57, 57
4, 564960, Note_on_c, 0, 57, 0
4, 564960, Note_on_c, 0, 48, 0
4, 564960, Note_on_c, 0, 50, 0
4, 564960, Note_on_c, 0, 54, 0
4, 564960, Note_on_c, 0, 48, 57
4, 564960, Note_on_c, 0, 50, 57
4, 564960, Note_on_c, 0, 54, 57
4, 564960, Note_on_c, 0, 57, 57
4, 565440, Note_on_c, 0, 57, 0
4, 565440, Note_on_c, 0, 48, 0
4, 565440, Note_on_c, 0, 50, 0
4, 565440, Note_on_c, 0, 54, 0
4, 565440, Note_on_c, 0, 54, 57
4, 565440, Note_on_c, 0, 57, 57
4, 565440, Note_on_c, 0, 62, 57
4, 565920, Note_on_c, 0, 62, 0
4, 565920, Note_on_c, 0, 57, 0
4, 565920, Note_on_c, 0, 54, 0
4, 565920, Note_on_c, 0, 46, 57
4, 565920, Note_on_c, 0, 50, 57
4, 565920, Note_on_c, 0, 55, 57
4, 566400, Note_on_c, 0, 55, 0
4, 566400, Note_on_c, 0, 50, 0
4, 566400, Note_on_c, 0, 46, 0
4, 566400, Note_on_c, 0, 46, 57
4, 566400, Note_on_c, 0, 50, 57
4, 566400, Note_on_c, 0, 55, 57
4, 566880, Note_on_c, 0, 55, 0
4, 566880, Note_on_c, 0, 50, 0
4, 566880, Note_on_c, 0, 46, 0
4, 566880, Note_on_c, 0, 50, 57
4, 566880, Note_on_c, 0, 55, 57
4, 567360, Note_on_c, 0, 55, 0
4, 567360, Note_on_c, 0, 50, 0
4, 567360, Note_on_c, 0, 50, 57
4, 567360, Note_on_c, 0, 52, 57
4, 567360, Note_on_c, 0, 56, 57
4, 567360, Note_on_c, 0, 59, 57
4, 567840, Note_on_c, 0, 59, 0
4, 567840, Note_on_c, 0, 50, 0
4, 567840, Note_on_c, 0, 52, 0
4, 567840, Note_on_c, 0, 56, 0
4, 567840, Note_on_c, 0, 50, 57
4, 567840, Note_on_c, 0, 52, 57
4, 567840, Note_on_c, 0, 56, 57
4, 567840, Note_on_c, 0, 59, 57
4, 568320, Note_on_c, 0, 59, 0
4, 568320, Note_on_c, 0, 50, 0
4, 568320, Note_on_c, 0, 52, 0
4, 568320, Note_on_c, 0, 56, 0
4, 568320, Note_on_c, 0, 56, 57
4, 568320, Note_on_c, 0, 59, 57
4, 568320, Note_on_c, 0, 64, 57
4, 568800, Note_on_c, 0, 64, 0
4, 568800, Note_on_c, 0, 59, 0
4, 568800, Note_on_c, 0, 56, 0
4, 568800, Note_on_c, 0, 48, 57
4, 568800, Note_on_c, 0, 52, 57
4, 568800, Note_on_c, 0, 57, 57
4, 569280, Note_on_c, 0, 57, 0
4, 569280, Note_on_c, 0, 52, 0
4, 569280, Note_on_c, 0, 48, 0
4, 569280, Note_on_c, 0, 48, 57
4, 569280, Note_on_c, 0, 52, 57
4, 569280, Note_on_c, 0, 57, 57
4, 569760, Note_on_c, 0, 57, 0
4, 569760, Note_on_c, 0, 52, 0
4, 569760, Note_on_c, 0, 48, 0
4, 569760, Note_on_c, 0, 52, 57
4, 569760, Note_on_c, 0, 57, 57
4, 570240, Note_on_c, 0, 57, 0
4, 570240, Note_on_c, 0, 52, 0
4, 570240, Note_on_c, 0, 52, 57
4, 570240, Note_on_c, 0, 54, 57
4, 570240, Note_on_c, 0, 58, 57
4, 570240, Note_on_c, 0, 61, 57
4, 570720, Note_on_c, 0, 61, 0
4, 570720, Note_on_c, 0, 52, 0
4, 570720, Note_on_c, 0, 54, 0
4, 570720, Note_on_c, 0, 58, 0
4, 570720, Note_on_c, 0, 52, 57
4, 570720, Note_on_c, 0, 54, 57
4, 570720, Note_on_c, 0, 58, 57
4, 570720, Note_on_c, 0, 61, 57
4, 571200, Note_on_c, 0, 61, 0
4, 571200, Note_on_c, 0, 52, 0
4, 571200, Note_on_c, 0, 54, 0
4, 571200, Note_on_c, 0, 58, 0
4, 571200, Note_on_c, 0, 58, 57
4, 571200, Note_on_c, 0, 61, 57
4, 571200, Note_on_c, 0, 66, 57
4, 571680, Note_on_c, 0, 66, 0
4, 571680, Note_on_c, 0, 61, 0
4, 571680, Note_on_c, 0, 58, 0
4, 571680, Note_on_c, 0, 50, 57
4, 571680, Note_on_c, 0, 54, 57
4, 571680, Note_on_c, 0, 59, 57
4, 572160, Note_on_c, 0, 59, 0
4, 572160, Note_on_c, 0, 54, 0
4, 572160, Note_on_c, 0, 50, 0
4, 572160, Note_on_c, 0, 50, 57
4, 572160, Note_on_c, 0, 54, 57
4, 572160, Note_on_c, 0, 59, 57
4, 572640, Note_on_c, 0, 59, 0
4, 572640, Note_on_c, 0, 54, 0
4, 572640, Note_on_c, 0, 50, 0
4, 572640, Note_on_c, 0, 54, 57
4, 572640, Note_on_c, 0, 59, 57
4, 573120, Note_on_c, 0, 59, 0
4, 573120, Note_on_c, 0, 54, 0
4, 573120, Note_on_c, 0, 53, 57
4, 573120, Note_on_c, 0, 55, 57
4, 573120, Note_on_c, 0, 59, 57
4, 573120, Note_on_c, 0, 62, 57
4, 573600, Note_on_c, 0, 62, 0
4, 573600, Note_on_c, 0, 53, 0
4, 573600, Note_on_c, 0, 55, 0
4, 573600, Note_on_c, 0, 59, 0
4, 573600, Note_on_c, 0, 53, 57
4, 573600, Note_on_c, 0, 55, 57
4, 573600, Note_on_c, 0, 59, 57
4, 573600, Note_on_c, 0, 62, 57
4, 574080, Note_on_c, 0, 62, 0
4, 574080, Note_on_c, 0, 53, 0
4, 574080, Note_on_c, 0, 55, 0
4, 574080, Note_on_c, 0, 59, 0
4, 574560, Note_on_c, 0, 52, 57
4, 574560, Note_on_c, 0, 55, 57
4, 574560, Note_on_c, 0, 60, 57
4, 575040, Note_on_c, 0, 60, 0
4, 575040, Note_on_c, 0, 55, 0
4, 575040, Note_on_c, 0, 52, 0
4, 575040, Note_on_c, 0, 52, 57
4, 575040, Note_on_c, 0, 55, 57
4, 575040, Note_on_c, 0, 60, 57
4, 575520, Note_on_c, 0, 60, 0
4, 575520, Note_on_c, 0, 55, 0
4, 575520, Note_on_c, 0, 52, 0
4, 576000, Note_on_c, 0, 55, 57
4, 576000, Note_on_c, 0, 57, 57
4, 576000, Note_on_c, 0, 61, 57
4, 576000, Note_on_c, 0, 64, 57
4, 576480, Note_on_c, 0, 64, 0
4, 576480, Note_on_c, 0, 55, 0
4, 576480, Note_on_c, 0, 57, 0
4, 576480, Note_on_c, 0, 61, 0
4, 576480, Note_on_c, 0, 55, 57
4, 576480, Note_on_c, 0, 57, 57
4, 576480, Note_on_c, 0, 61, 57
4, 576480, Note_on_c, 0, 64, 57
4, 576960, Note_on_c, 0, 64, 0
4, 576960, Note_on_c, 0, 55, 0
4, 576960, Note_on_c, 0, 57, 0
4, 576960, Note_on_c, 0, 61, 0
4, 577440, Note_on_c, 0, 53, 57
4, 577440, Note_on_c, 0, 57, 57
4, 577440, Note_on_c, 0, 62, 57
4, 577920, Note_on_c, 0, 62, 0
4, 577920, Note_on_c, 0, 57, 0
4, 577920, Note_on_c, 0, 53, 0
4, 577920, Note_on_c, 0, 53, 57
4, 577920, Note_on_c, 0, 57, 57
4, 577920, Note_on_c, 0, 62, 57
4, 578400, Note_on_c, 0, 62, 0
4, 578400, Note_on_c, 0, 57, 0
4, 578400, Note_on_c, 0, 53, 0
4, 578880, Note_on_c, 0, 57, 57
4, 578880, Note_on_c, 0, 59, 57
4, 578880, Note_on_c, 0, 63, 57
4, 578880, Note_on_c, 0, 66, 57
4, 579360, Note_on_c, 0, 66, 0
4, 579360, Note_on_c, 0, 57, 0
4, 579360, Note_on_c, 0, 59, 0
4, 579360, Note_on_c, 0, 63, 0
4, 579360, Note_on_c, 0, 57, 57
4, 579360, Note_on_c, 0, 59, 57
4, 579360, Note_on_c, 0, 63, 57
4, 579360, Note_on_c, 0, 66, 57
4, 579840, Note_on_c, 0, 66, 0
4, 579840, Note_on_c, 0, 57, 0
4, 579840, Note_on_c, 0, 59, 0
4, 579840, Note_on_c, 0, 63, 0
4, 580320, Note_on_c, 0, 55, 57
4, 580320, Note_on_c, 0, 59, 57
4, 580320, Note_on_c, 0, 64, 57
4, 580800, Note_on_c, 0, 64, 0
4, 580800, Note_on_c, 0, 59, 0
4, 580800, Note_on_c, 0, 55, 0
4, 580800, Note_on_c, 0, 55, 57
4, 580800, Note_on_c, 0, 59, 57
4, 580800, Note_on_c, 0, 64, 57
4, 581280, Note_on_c, 0, 64, 0
4, 581280, Note_on_c, 0, 59, 0
4, 581280, Note_on_c, 0, 55, 0
4, 581760, Note_on_c, 0, 58, 57
4, 581760, Note_on_c, 0, 60, 57
4, 581760, Note_on_c, 0, 64, 57
4, 581760, Note_on_c, 0, 67, 57
4, 582240, Note_on_c, 0, 67, 0
4, 582240, Note_on_c, 0, 58, 0
4, 582240, Note_on_c, 0, 60, 0
4, 582240, Note_on_c, 0, 64, 0
4, 582240, Note_on_c, 0, 58, 57
4, 582240, Note_on_c, 0, 60, 57
4, 582240, Note_on_c, 0, 64, 57
4, 582240, Note_on_c, 0, 67, 57
4, 582720, Note_on_c, 0, 67, 0
4, 582720, Note_on_c, 0, 58, 0
4, 582720, Note_on_c, 0, 60, 0
4, 582720, Note_on_c, 0, 64, 0
4, 583200, Note_on_c, 0, 57, 57
4, 583200, Note_on_c, 0, 60, 57
4, 583200, Note_on_c, 0, 65, 57
4, 583680, Note_on_c, 0, 65, 0
4, 583680, Note_on_c, 0, 60, 0
4, 583680, Note_on_c, 0, 57, 0
4, 583680, Note_on_c, 0, 57, 57
4, 583680, Note_on_c, 0, 60, 57
4, 583680, Note_on_c, 0, 65, 57
4, 584160, Note_on_c, 0, 65, 0
4, 584160, Note_on_c, 0, 60, 0
4, 584160, Note_on_c, 0, 57, 0
4, 584640, Note_on_c, 0, 53, 57
4, 584640, Note_on_c, 0, 57, 57
4, 584640, Note_on_c, 0, 60, 57
4, 584640, Note_on_c, 0, 63, 57
4, 585120, Note_on_c, 0, 63, 0
4, 585120, Note_on_c, 0, 53, 0
4, 585120, Note_on_c, 0, 57, 0
4, 585120, Note_on_c, 0, 60, 0
4, 585120, Note_on_c, 0, 53, 57
4, 585120, Note_on_c, 0, 57, 57
4, 585120, Note_on_c, 0, 60, 57
4, 585120, Note_on_c, 0, 63, 57
4, 585600, Note_on_c, 0, 63, 0
4, 585600, Note_on_c, 0, 53, 0
4, 585600, Note_on_c, 0, 57, 0
4, 585600, Note_on_c, 0, 60, 0
4, 586080, Note_on_c, 0, 53, 57
4, 586080, Note_on_c, 0, 57, 57
4, 586080, Note_on_c, 0, 60, 57
4, 586080, Note_on_c, 0, 63, 57
4, 586560, Note_on_c, 0, 63, 0
4, 586560, Note_on_c, 0, 53, 0
4, 586560, Note_on_c, 0, 57, 0
4, 586560, Note_on_c, 0, 60, 0
4, 586560, Note_on_c, 0, 53, 57
4, 586560, Note_on_c, 0, 57, 57
4, 586560, Note_on_c, 0, 60, 57
4, 586560, Note_on_c, 0, 63, 57
4, 587040, Note_on_c, 0, 63, 0
4, 587040, Note_on_c, 0, 53, 0
4, 587040, Note_on_c, 0, 57, 0
4, 587040, Note_on_c, 0, 60, 0
4, 587520, Note_on_c, 0, 53, 70
4, 587520, Note_on_c, 0, 57, 70
4, 587520, Note_on_c, 0, 60, 70
4, 587520, Note_on_c, 0, 63, 70
4, 588000, Note_on_c, 0, 63, 0
4, 588000, Note_on_c, 0, 53, 0
4, 588000, Note_on_c, 0, 57, 0
4, 588000, Note_on_c, 0, 60, 0
4, 588000, Note_on_c, 0, 53, 70
4, 588000, Note_on_c, 0, 57, 70
4, 588000, Note_on_c, 0, 60, 70
4, 588000, Note_on_c, 0, 63, 70
4, 588480, Note_on_c, 0, 63, 0
4, 588480, Note_on_c, 0, 53, 0
4, 588480, Note_on_c, 0, 57, 0
4, 588480, Note_on_c, 0, 60, 0
4, 588960, Note_on_c, 0, 53, 70
4, 588960, Note_on_c, 0, 57, 70
4, 588960, Note_on_c, 0, 60, 70
4, 588960, Note_on_c, 0, 63, 70
4, 589440, Note_on_c, 0, 63, 0
4, 589440, Note_on_c, 0, 53, 0
4, 589440, Note_on_c, 0, 57, 0
4, 589440, Note_on_c, 0, 60, 0
4, 589440, Note_on_c, 0, 53, 70
4, 589440, Note_on_c, 0, 57, 70
4, 589440, Note_on_c, 0, 60, 70
4, 589440, Note_on_c, 0, 63, 70
4, 589920, Note_on_c, 0, 63, 0
4, 589920, Note_on_c, 0, 53, 0
4, 589920, Note_on_c, 0, 57, 0
4, 589920, Note_on_c, 0, 60, 0
4, 590400, Note_on_c, 0, 40, 96
4, 590400, Note_on_c, 0, 45, 96
4, 590400, Note_on_c, 0, 49, 96
4, 590400, Note_on_c, 0, 52, 96
4, 591360, Note_on_c, 0, 52, 0
4, 591360, Note_on_c, 0, 40, 0
4, 591360, Note_on_c, 0, 45, 0
4, 591360, Note_on_c, 0, 49, 0
4, 591360, Note_on_c, 0, 40, 96
4, 591360, Note_on_c, 0, 45, 96
4, 591360, Note_on_c, 0, 49, 96
4, 591360, Note_on_c, 0, 52, 96
4, 592320, Note_on_c, 0, 52, 0
4, 592320, Note_on_c, 0, 40, 0
4, 592320, Note_on_c, 0, 45, 0
4, 592320, Note_on_c, 0, 49, 0
4, 592320, Note_on_c, 0, 40, 96
4, 592320, Note_on_c, 0, 45, 96
4, 592320, Note_on_c, 0, 49, 96
4, 592320, Note_on_c, 0, 52, 96
4, 593280, Note_on_c, 0, 52, 0
4, 593280, Note_on_c, 0, 40, 0
4, 593280, Note_on_c, 0, 45, 0
4, 593280, Note_on_c, 0, 49, 0
4, 593280, Note_on_c, 0, 40, 96
4, 593280, Note_on_c, 0, 45, 96
4, 593280, Note_on_c, 0, 49, 96
4, 593280, Note_on_c, 0, 52, 96
4, 594240, Note_on_c, 0, 52, 0
4, 594240, Note_on_c, 0, 40, 0
4, 594240, Note_on_c, 0, 45, 0
4, 594240, Note_on_c, 0, 49, 0
4, 594240, Note_on_c, 0, 40, 96
4, 594240, Note_on_c, 0, 45, 96
4, 594240, Note_on_c, 0, 49, 96
4, 594240, Note_on_c, 0, 52, 96
4, 594720, Note_on_c, 0, 52, 0
4, 594720, Note_on_c, 0, 40, 0
4, 594720, Note_on_c, 0, 45, 0
4, 594720, Note_on_c, 0, 49, 0
4, 594720, Note_on_c, 0, 40, 96
4, 594720, Note_on_c, 0, 45, 96
4, 594720, Note_on_c, 0, 49, 96
4, 594720, Note_on_c, 0, 52, 96
4, 595200, Note_on_c, 0, 52, 0
4, 595200, Note_on_c, 0, 40, 0
4, 595200, Note_on_c, 0, 45, 0
4, 595200, Note_on_c, 0, 49, 0
4, 595200, Note_on_c, 0, 40, 96
4, 595200, Note_on_c, 0, 50, 96
4, 595200, Note_on_c, 0, 52, 96
4, 595920, Note_on_c, 0, 52, 0
4, 595920, Note_on_c, 0, 50, 0
4, 595920, Note_on_c, 0, 40, 0
4, 595920, Note_on_c, 0, 40, 96
4, 595920, Note_on_c, 0, 50, 96
4, 595920, Note_on_c, 0, 52, 96
4, 596160, Note_on_c, 0, 52, 0
4, 596160, Note_on_c, 0, 50, 0
4, 596160, Note_on_c, 0, 40, 0
4, 596160, Note_on_c, 0, 40, 96
4, 596160, Note_on_c, 0, 45, 96
4, 596160, Note_on_c, 0, 49, 96
4, 596160, Note_on_c, 0, 52, 96
4, 597120, Note_on_c, 0, 52, 0
4, 597120, Note_on_c, 0, 40, 0
4, 597120, Note_on_c, 0, 45, 0
4, 597120, Note_on_c, 0, 49, 0
4, 597120, Note_on_c, 0, 40, 96
4, 597120, Note_on_c, 0, 45, 96
4, 597120, Note_on_c, 0, 49, 96
4, 597120, Note_on_c, 0, 52, 96
4, 598080, Note_on_c, 0, 52, 0
4, 598080, Note_on_c, 0, 40, 0
4, 598080, Note_on_c, 0, 45, 0
4, 598080, Note_on_c, 0, 49, 0
4, 598080, Note_on_c, 0, 40, 96
4, 598080, Note_on_c, 0, 45, 96
4, 598080, Note_on_c, 0, 49, 96
4, 598080, Note_on_c, 0, 52, 96
4, 599040, Note_on_c, 0, 52, 0
4, 599040, Note_on_c, 0, 40, 0
4, 599040, Note_on_c, 0, 45, 0
4, 599040, Note_on_c, 0, 49, 0
4, 599040, Note_on_c, 0, 40, 96
4, 599040, Note_on_c, 0, 45, 96
4, 599040, Note_on_c, 0, 49, 96
4, 599040, Note_on_c, 0, 52, 96
4, 599520, Note_on_c, 0, 52, 0
4, 599520, Note_on_c, 0, 40, 0
4, 599520, Note_on_c, 0, 45, 0
4, 599520, Note_on_c, 0, 49, 0
4, 599520, Note_on_c, 0, 40, 96
4, 599520, Note_on_c, 0, 50, 96
4, 599520, Note_on_c, 0, 52, 96
4, 600240, Note_on_c, 0, 52, 0
4, 600240, Note_on_c, 0, 50, 0
4, 600240, Note_on_c, 0, 40, 0
4, 600240, Note_on_c, 0, 40, 96
4, 600240, Note_on_c, 0, 50, 96
4, 600240, Note_on_c, 0, 52, 96
4, 600480, Note_on_c, 0, 52, 0
4, 600480, Note_on_c, 0, 50, 0
4, 600480, Note_on_c, 0, 40, 0
4, 600480, Note_on_c, 0, 40, 96
4, 600480, Note_on_c, 0, 45, 96
4, 600480, Note_on_c, 0, 49, 96
4, 600480, Note_on_c, 0, 52, 96
4, 600720, Note_on_c, 0, 52, 0
4, 600720, Note_on_c, 0, 40, 0
4, 600720, Note_on_c, 0, 45, 0
4, 600720, Note_on_c, 0, 49, 0
4, 600720, Note_on_c, 0, 51, 96
4, 600960, Note_on_c, 0, 51, 0
4, 600960, Note_on_c, 0, 52, 96
4, 601200, Note_on_c, 0, 52, 0
4, 601200, Note_on_c, 0, 56, 96
4, 601440, Note_on_c, 0, 56, 0
4, 601440, Note_on_c, 0, 57, 96
4, 601680, Note_on_c, 0, 57, 0
4, 601680, Note_on_c, 0, 61, 96
4, 601920, Note_on_c, 0, 61, 0
4, 601920, Note_on_c, 0, 40, 96
4, 601920, Note_on_c, 0, 45, 96
4, 601920, Note_on_c, 0, 49, 96
4, 601920, Note_on_c, 0, 52, 96
4, 602880, Note_on_c, 0, 52, 0
4, 602880, Note_on_c, 0, 40, 0
4, 602880, Note_on_c, 0, 45, 0
4, 602880, Note_on_c, 0, 49, 0
4, 602880, Note_on_c, 0, 40, 96
4, 602880, Note_on_c, 0, 45, 96
4, 602880, Note_on_c, 0, 49, 96
4, 602880, Note_on_c, 0, 52, 96
4, 603840, Note_on_c, 0, 52, 0
4, 603840, Note_on_c, 0, 40, 0
4, 603840, Note_on_c, 0, 45, 0
4, 603840, Note_on_c, 0, 49, 0
4, 603840, Note_on_c, 0, 40, 96
4, 603840, Note_on_c, 0, 45, 96
4, 603840, Note_on_c, 0, 49, 96
4, 603840, Note_on_c, 0, 52, 96
4, 604800, Note_on_c, 0, 52, 0
4, 604800, Note_on_c, 0, 40, 0
4, 604800, Note_on_c, 0, 45, 0
4, 604800, Note_on_c, 0, 49, 0
4, 604800, Note_on_c, 0, 40, 96
4, 604800, Note_on_c, 0, 45, 96
4, 604800, Note_on_c, 0, 49, 96
4, 604800, Note_on_c, 0, 52, 96
4, 605760, Note_on_c, 0, 52, 0
4, 605760, Note_on_c, 0, 40, 0
4, 605760, Note_on_c, 0, 45, 0
4, 605760, Note_on_c, 0, 49, 0
4, 605760, Note_on_c, 0, 40, 96
4, 605760, Note_on_c, 0, 45, 96
4, 605760, Note_on_c, 0, 49, 96
4, 605760, Note_on_c, 0, 52, 96
4, 606240, Note_on_c, 0, 52, 0
4, 606240, Note_on_c, 0, 40, 0
4, 606240, Note_on_c, 0, 45, 0
4, 606240, Note_on_c, 0, 49, 0
4, 606240, Note_on_c, 0, 40, 96
4, 606240, Note_on_c, 0, 45, 96
4, 606240, Note_on_c, 0, 49, 96
4, 606240, Note_on_c, 0, 52, 96
4, 606720, Note_on_c, 0, 52, 0
4, 606720, Note_on_c, 0, 40, 0
4, 606720, Note_on_c, 0, 45, 0
4, 606720, Note_on_c, 0, 49, 0
4, 606720, Note_on_c, 0, 40, 96
4, 606720, Note_on_c, 0, 50, 96
4, 606720, Note_on_c, 0, 52, 96
4, 607440, Note_on_c, 0, 52, 0
4, 607440, Note_on_c, 0, 50, 0
4, 607440, Note_on_c, 0, 40, 0
4, 607440, Note_on_c, 0, 40, 96
4, 607440, Note_on_c, 0, 50, 96
4, 607440, Note_on_c, 0, 52, 96
4, 607680, Note_on_c, 0, 52, 0
4, 607680, Note_on_c, 0, 50, 0
4, 607680, Note_on_c, 0, 40, 0
4, 607680, Note_on_c, 0, 40, 96
4, 607680, Note_on_c, 0, 45, 96
4, 607680, Note_on_c, 0, 49, 96
4, 607680, Note_on_c, 0, 52, 96
4, 608640, Note_on_c, 0, 52, 0
4, 608640, Note_on_c, 0, 40, 0
4, 608640, Note_on_c, 0, 45, 0
4, 608640, Note_on_c, 0, 49, 0
4, 608640, Note_on_c, 0, 52, 96
4, 608640, Note_on_c, 0, 57, 96
4, 608640, Note_on_c, 0, 61, 96
4, 608640, Note_on_c, 0, 64, 96
4, 609120, Note_on_c, 0, 64, 0
4, 609120, Note_on_c, 0, 52, 0
4, 609120, Note_on_c, 0, 57, 0
4, 609120, Note_on_c, 0, 61, 0
4, 609600, Note_on_c, 0, 52, 83
4, 609600, Note_on_c, 0, 57, 83
4, 609600, Note_on_c, 0, 61, 83
4, 609600, Note_on_c, 0, 64, 83
4, 610080, Note_on_c, 0, 64, 0
4, 610080, Note_on_c, 0, 52, 0
4, 610080, Note_on_c, 0, 57, 0
4, 610080, Note_on_c, 0, 61, 0
4, 610080, Note_on_c, 0, 52, 83
4, 610080, Note_on_c, 0, 57, 83
4, 610080, Note_on_c, 0, 61, 83
4, 610080, Note_on_c, 0, 64, 83
4, 610560, Note_on_c, 0, 64, 0
4, 610560, Note_on_c, 0, 52, 0
4, 610560, Note_on_c, 0, 57, 0
4, 610560, Note_on_c, 0, 61, 0
4, 610560, Note_on_c, 0, 40, 83
4, 610560, Note_on_c, 0, 42, 83
4, 610560, Note_on_c, 0, 46, 83
4, 610560, Note_on_c, 0, 49, 83
4, 611520, Note_on_c, 0, 49, 0
4, 611520, Note_on_c, 0, 40, 0
4, 611520, Note_on_c, 0, 42, 0
4, 611520, Note_on_c, 0, 46, 0
4, 611520, Note_on_c, 0, 52, 83
4, 611520, Note_on_c, 0, 54, 83
4, 611520, Note_on_c, 0, 58, 83
4, 611520, Note_on_c, 0, 61, 83
4, 612000, Note_on_c, 0, 61, 0
4, 612000, Note_on_c, 0, 52, 0
4, 612000, Note_on_c, 0, 54, 0
4, 612000, Note_on_c, 0, 58, 0
4, 612480, Note_on_c, 0, 52, 83
4, 612480, Note_on_c, 0, 54, 83
4, 612480, Note_on_c, 0, 58, 83
4, 612480, Note_on_c, 0, 61, 83
4, 612960, Note_on_c, 0, 61, 0
4, 612960, Note_on_c, 0, 52, 0
4, 612960, Note_on_c, 0, 54, 0
4, 612960, Note_on_c, 0, 58, 0
4, 612960, Note_on_c, 0, 52, 83
4, 612960, Note_on_c, 0, 54, 83
4, 612960, Note_on_c, 0, 58, 83
4, 612960, Note_on_c, 0, 61, 83
4, 613440, Note_on_c, 0, 61, 0
4, 613440, Note_on_c, 0, 52, 0
4, 613440, Note_on_c, 0, 54, 0
4, 613440, Note_on_c, 0, 58, 0
4, 613440, Note_on_c, 0, 40, 83
4, 613440, Note_on_c, 0, 47, 83
4, 613440, Note_on_c, 0, 50, 83
4, 614400, Note_on_c, 0, 50, 0
4, 614400, Note_on_c, 0, 47, 0
4, 614400, Note_on_c, 0, 40, 0
4, 614400, Note_on_c, 0, 52, 83
4, 614400, Note_on_c, 0, 55, 83
4, 614400, Note_on_c, 0, 59, 83
4, 614400, Note_on_c, 0, 62, 83
4, 614880, Note_on_c, 0, 62, 0
4, 614880, Note_on_c, 0, 52, 0
4, 614880, Note_on_c, 0, 55, 0
4, 614880, Note_on_c, 0, 59, 0
4, 615360, Note_on_c, 0, 52, 83
4, 615360, Note_on_c, 0, 55, 83
4, 615360, Note_on_c, 0, 59, 83
4, 615360, Note_on_c, 0, 62, 83
4, 615840, Note_on_c, 0, 62, 0
4, 615840, Note_on_c, 0, 52, 0
4, 615840, Note_on_c, 0, 55, 0
4, 615840, Note_on_c, 0, 59, 0
4, 615840, Note_on_c, 0, 52, 83
4, 615840, Note_on_c, 0, 55, 83
4, 615840, Note_on_c, 0, 59, 83
4, 615840, Note_on_c, 0, 62, 83
4, 616320, Note_on_c, 0, 62, 0
4, 616320, Note_on_c, 0, 52, 0
4, 616320, Note_on_c, 0, 55, 0
4, 616320, Note_on_c, 0, 59, 0
4, 616320, Note_on_c, 0, 40, 83
4, 616320, Note_on_c, 0, 47, 83
4, 616320, Note_on_c, 0, 52, 83
4, 617280, Note_on_c, 0, 52, 0
4, 617280, Note_on_c, 0, 47, 0
4, 617280, Note_on_c, 0, 40, 0
4, 617280, Note_on_c, 0, 52, 83
4, 617280, Note_on_c, 0, 56, 83
4, 617280, Note_on_c, 0, 59, 83
4, 617280, Note_on_c, 0, 62, 83
4, 617760, Note_on_c, 0, 62, 0
4, 617760, Note_on_c, 0, 52, 0
4, 617760, Note_on_c, 0, 56, 0
4, 617760, Note_on_c, 0, 59, 0
4, 618240, Note_on_c, 0, 40, 83
4, 618240, Note_on_c, 0, 52, 83
4, 618720, Note_on_c, 0, 52, 0
4, 618720, Note_on_c, 0, 40, 0
4, 618720, Note_on_c, 0, 39, 83
4, 618720, Note_on_c, 0, 51, 83
4, 619200, Note_on_c, 0, 51, 0
4, 619200, Note_on_c, 0, 39, 0
4, 619200, Note_on_c, 0, 38, 83
4, 619200, Note_on_c, 0, 41, 83
4, 619200, Note_on_c, 0, 46, 83
4, 619200, Note_on_c, 0, 50, 83
4, 620160, Note_on_c, 0, 50, 0
4, 620160, Note_on_c, 0, 38, 0
4, 620160, Note_on_c, 0, 41, 0
4, 620160, Note_on_c, 0, 46, 0
4, 620160, Note_on_c, 0, 50, 83
4, 620160, Note_on_c, 0, 53, 83
4, 620160, Note_on_c, 0, 58, 83
4, 620160, Note_on_c, 0, 62, 83
4, 620640, Note_on_c, 0, 62, 0
4, 620640, Note_on_c, 0, 50, 0
4, 620640, Note_on_c, 0, 53, 0
4, 620640, Note_on_c, 0, 58, 0
4, 620640, Note_on_c, 0, 50, 83
4, 620640, Note_on_c, 0, 52, 83
4, 620640, Note_on_c, 0, 56, 83
4, 620640, Note_on_c, 0, 59, 83
4, 621600, Note_on_c, 0, 59, 0
4, 621600, Note_on_c, 0, 50, 0
4, 621600, Note_on_c, 0, 52, 0
4, 621600, Note_on_c, 0, 56, 0
4, 621600, Note_on_c, 0, 50, 83
4, 621600, Note_on_c, 0, 52, 83
4, 621600, Note_on_c, 0, 56, 83
4, 621600, Note_on_c, 0, 59, 83
4, 622080, Note_on_c, 0, 59, 0
4, 622080, Note_on_c, 0, 50, 0
4, 622080, Note_on_c, 0, 52, 0
4, 622080, Note_on_c, 0, 56, 0
4, 622080, Note_on_c, 0, 49, 83
4, 622080, Note_on_c, 0, 52, 83
4, 622080, Note_on_c, 0, 57, 83
4, 623040, Note_on_c, 0, 57, 0
4, 623040, Note_on_c, 0, 52, 0
4, 623040, Note_on_c, 0, 49, 0
4, 623040, Note_on_c, 0, 49, 83
4, 623040, Note_on_c, 0, 52, 83
4, 623040, Note_on_c, 0, 57, 83
4, 623520, Note_on_c, 0, 57, 0
4, 623520, Note_on_c, 0, 52, 0
4, 623520, Note_on_c, 0, 49, 0
4, 623520, Note_on_c, 0, 49, 83
4, 623520, Note_on_c, 0, 51, 83
4, 623520, Note_on_c, 0, 55, 83
4, 623520, Note_on_c, 0, 58, 83
4, 624480, Note_on_c, 0, 58, 0
4, 624480, Note_on_c, 0, 49, 0
4, 624480, Note_on_c, 0, 51, 0
4, 624480, Note_on_c, 0, 55, 0
4, 624480, Note_on_c, 0, 49, 83
4, 624480, Note_on_c, 0, 51, 83
4, 624480, Note_on_c, 0, 55, 83
4, 624480, Note_on_c, 0, 58, 83
4, 624960, Note_on_c, 0, 58, 0
4, 624960, Note_on_c, 0, 49, 0
4, 624960, Note_on_c, 0, 51, 0
4, 624960, Note_on_c, 0, 55, 0
4, 624960, Note_on_c, 0, 47, 83
4, 624960, Note_on_c, 0, 51, 83
4, 624960, Note_on_c, 0, 56, 83
4, 625920, Note_on_c, 0, 56, 0
4, 625920, Note_on_c, 0, 51, 0
4, 625920, Note_on_c, 0, 47, 0
4, 625920, Note_on_c, 0, 47, 83
4, 625920, Note_on_c, 0, 51, 83
4, 625920, Note_on_c, 0, 56, 83
4, 626400, Note_on_c, 0, 56, 0
4, 626400, Note_on_c, 0, 51, 0
4, 626400, Note_on_c, 0, 47, 0
4, 626400, Note_on_c, 0, 47, 83
4, 626400, Note_on_c, 0, 49, 83
4, 626400, Note_on_c, 0, 53, 83
4, 626400, Note_on_c, 0, 56, 83
4, 627360, Note_on_c, 0, 56, 0
4, 627360, Note_on_c, 0, 47, 0
4, 627360, Note_on_c, 0, 49, 0
4, 627360, Note_on_c, 0, 53, 0
4, 627360, Note_on_c, 0, 47, 83
4, 627360, Note_on_c, 0, 49, 83
4, 627360, Note_on_c, 0, 53, 83
4, 627360, Note_on_c, 0, 56, 83
4, 627840, Note_on_c, 0, 56, 0
4, 627840, Note_on_c, 0, 47, 0
4, 627840, Note_on_c, 0, 49, 0
4, 627840, Note_on_c, 0, 53, 0
4, 627840, Note_on_c, 0, 45, 83
4, 627840, Note_on_c, 0, 49, 83
4, 627840, Note_on_c, 0, 54, 83
4, 628800, Note_on_c, 0, 54, 0
4, 628800, Note_on_c, 0, 49, 0
4, 628800, Note_on_c, 0, 45, 0
4, 628800, Note_on_c, 0, 45, 83
4, 628800, Note_on_c, 0, 49, 83
4, 628800, Note_on_c, 0, 54, 83
4, 629280, Note_on_c, 0, 54, 0
4, 629280, Note_on_c, 0, 49, 0
4, 629280, Note_on_c, 0, 45, 0
4, 629280, Note_on_c, 0, 45, 83
4, 629280, Note_on_c, 0, 47, 83
4, 629280, Note_on_c, 0, 51, 83
4, 629280, Note_on_c, 0, 54, 83
4, 630240, Note_on_c, 0, 54, 0
4, 630240, Note_on_c, 0, 45, 0
4, 630240, Note_on_c, 0, 47, 0
4, 630240, Note_on_c, 0, 51, 0
4, 630240, Note_on_c, 0, 45, 83
4, 630240, Note_on_c, 0, 47, 83
4, 630240, Note_on_c, 0, 51, 83
4, 630240, Note_on_c, 0, 54, 83
4, 630720, Note_on_c, 0, 54, 0
4, 630720, Note_on_c, 0, 45, 0
4, 630720, Note_on_c, 0, 47, 0
4, 630720, Note_on_c, 0, 51, 0
4, 630720, Note_on_c, 0, 44, 83
4, 630720, Note_on_c, 0, 47, 83
4, 630720, Note_on_c, 0, 52, 83
4, 631680, Note_on_c, 0, 52, 0
4, 631680, Note_on_c, 0, 47, 0
4, 631680, Note_on_c, 0, 44, 0
4, 631680, Note_on_c, 0, 44, 83
4, 631680, Note_on_c, 0, 47, 83
4, 631680, Note_on_c, 0, 52, 83
4, 632160, Note_on_c, 0, 52, 0
4, 632160, Note_on_c, 0, 47, 0
4, 632160, Note_on_c, 0, 44, 0
4, 632160, Note_on_c, 0, 43, 83
4, 632160, Note_on_c, 0, 45, 83
4, 632160, Note_on_c, 0, 49, 83
4, 632160, Note_on_c, 0, 52, 83
4, 633120, Note_on_c, 0, 52, 0
4, 633120, Note_on_c, 0, 43, 0
4, 633120, Note_on_c, 0, 45, 0
4, 633120, Note_on_c, 0, 49, 0
4, 633120, Note_on_c, 0, 43, 83
4, 633120, Note_on_c, 0, 45, 83
4, 633120, Note_on_c, 0, 49, 83
4, 633120, Note_on_c, 0, 52, 83
4, 633600, Note_on_c, 0, 52, 0
4, 633600, Note_on_c, 0, 43, 0
4, 633600, Note_on_c, 0, 45, 0
4, 633600, Note_on_c, 0, 49, 0
4, 633600, Note_on_c, 0, 42, 83
4, 633600, Note_on_c, 0, 45, 83
4, 633600, Note_on_c, 0, 50, 83
4, 634560, Note_on_c, 0, 50, 0
4, 634560, Note_on_c, 0, 45, 0
4, 634560, Note_on_c, 0, 42, 0
4, 634560, Note_on_c, 0, 42, 83
4, 634560, Note_on_c, 0, 45, 83
4, 634560, Note_on_c, 0, 50, 83
4, 635520, Note_on_c, 0, 50, 0
4, 635520, Note_on_c, 0, 45, 0
4, 635520, Note_on_c, 0, 42, 0
4, 635520, Note_on_c, 0, 42, 83
4, 635520, Note_on_c, 0, 45, 83
4, 635520, Note_on_c, 0, 50, 83
4, 636000, Note_on_c, 0, 50, 0
4, 636000, Note_on_c, 0, 45, 0
4, 636000, Note_on_c, 0, 42, 0
4, 636000, Note_on_c, 0, 42, 83
4, 636000, Note_on_c, 0, 45, 83
4, 636000, Note_on_c, 0, 50, 83
4, 636480, Note_on_c, 0, 50, 0
4, 636480, Note_on_c, 0, 45, 0
4, 636480, Note_on_c, 0, 42, 0
4, 636480, Note_on_c, 0, 41, 83
4, 636480, Note_on_c, 0, 48, 83
4, 636480, Note_on_c, 0, 51, 83
4, 637440, Note_on_c, 0, 51, 0
4, 637440, Note_on_c, 0, 48, 0
4, 637440, Note_on_c, 0, 41, 0
4, 637440, Note_on_c, 0, 41, 83
4, 637440, Note_on_c, 0, 48, 83
4, 637440, Note_on_c, 0, 51, 83
4, 638400, Note_on_c, 0, 51, 0
4, 638400, Note_on_c, 0, 48, 0
4, 638400, Note_on_c, 0, 41, 0
4, 638400, Note_on_c, 0, 41, 83
4, 638400, Note_on_c, 0, 48, 83
4, 638400, Note_on_c, 0, 51, 83
4, 638880, Note_on_c, 0, 51, 0
4, 638880, Note_on_c, 0, 48, 0
4, 638880, Note_on_c, 0, 41, 0
4, 638880, Note_on_c, 0, 41, 83
4, 638880, Note_on_c, 0, 48, 83
4, 638880, Note_on_c, 0, 51, 83
4, 639360, Note_on_c, 0, 51, 0
4, 639360, Note_on_c, 0, 48, 0
4, 639360, Note_on_c, 0, 41, 0
4, 639360, Note_on_c, 0, 40, 83
4, 639360, Note_on_c, 0, 45, 83
4, 639360, Note_on_c, 0, 49, 83
4, 639360, Note_on_c, 0, 52, 83
4, 639840, Note_on_c, 0, 52, 0
4, 639840, Note_on_c, 0, 40, 0
4, 639840, Note_on_c, 0, 45, 0
4, 639840, Note_on_c, 0, 49, 0
4, 639840, Note_on_c, 0, 49, 96
4, 639840, Note_on_c, 0, 61, 96
4, 640560, Note_on_c, 0, 61, 0
4, 640560, Note_on_c, 0, 49, 0
4, 640560, Note_on_c, 0, 47, 96
4, 640560, Note_on_c, 0, 59, 96
4, 640800, Note_on_c, 0, 59, 0
4, 640800, Note_on_c, 0, 47, 0
4, 640800, Note_on_c, 0, 50, 96
4, 640800, Note_on_c, 0, 62, 96
4, 641760, Note_on_c, 0, 62, 0
4, 641760, Note_on_c, 0, 50, 0
4, 641760, Note_on_c, 0, 49, 96
4, 641760, Note_on_c, 0, 61, 96
4, 642240, Note_on_c, 0, 61, 0
4, 642240, Note_on_c, 0, 49, 0
4, 642240, Note_on_c, 0, 40, 96
4, 642240, Note_on_c, 0, 52, 96
4, 642720, Note_on_c, 0, 52, 0
4, 642720, Note_on_c, 0, 40, 0
4, 642720, Note_on_c, 0, 47, 96
4, 642720, Note_on_c, 0, 59, 96
4, 643440, Note_on_c, 0, 59, 0
4, 643440, Note_on_c, 0, 47, 0
4, 643440, Note_on_c, 0, 46, 96
4, 643440, Note_on_c, 0, 58, 96
4, 643680, Note_on_c, 0, 58, 0
4, 643680, Note_on_c, 0, 46, 0
4, 643680, Note_on_c, 0, 49, 96
4, 643680, Note_on_c, 0, 61, 96
4, 644640, Note_on_c, 0, 61, 0
4, 644640, Note_on_c, 0, 49, 0
4, 644640, Note_on_c, 0, 47, 96
4, 644640, Note_on_c, 0, 59, 96
4, 645120, Note_on_c, 0, 59, 0
4, 645120, Note_on_c, 0, 47, 0
4, 645120, Note_on_c, 0, 40, 96
4, 645120, Note_on_c, 0, 52, 96
4, 645600, Note_on_c, 0, 52, 0
4, 645600, Note_on_c, 0, 40, 0
4, 645600, Note_on_c, 0, 50, 96
4, 645600, Note_on_c, 0, 62, 96
4, 646320, Note_on_c, 0, 62, 0
4, 646320, Note_on_c, 0, 50, 0
4, 646320, Note_on_c, 0, 49, 96
4, 646320, Note_on_c, 0, 61, 96
4, 646560, Note_on_c, 0, 61, 0
4, 646560, Note_on_c, 0, 49, 0
4, 646560, Note_on_c, 0, 52, 96
4, 646560, Note_on_c, 0, 64, 96
4, 647520, Note_on_c, 0, 64, 0
4, 647520, Note_on_c, 0, 52, 0
4, 647520, Note_on_c, 0, 50, 96
4, 647520, Note_on_c, 0, 62, 96
4, 648000, Note_on_c, 0, 62, 0
4, 648000, Note_on_c, 0, 50, 0
4, 648000, Note_on_c, 0, 40, 96
4, 648000, Note_on_c, 0, 52, 96
4, 648480, Note_on_c, 0, 52, 0
4, 648480, Note_on_c, 0, 40, 0
4, 648480, Note_on_c, 0, 49, 96
4, 648480, Note_on_c, 0, 61, 96
4, 649200, Note_on_c, 0, 61, 0
4, 649200, Note_on_c, 0, 49, 0
4, 649200, Note_on_c, 0, 48, 96
4, 649200, Note_on_c, 0, 60, 96
4, 649440, Note_on_c, 0, 60, 0
4, 649440, Note_on_c, 0, 48, 0
4, 649440, Note_on_c, 0, 50, 96
4, 649440, Note_on_c, 0, 62, 96
4, 650400, Note_on_c, 0, 62, 0
4, 650400, Note_on_c, 0, 50, 0
4, 650400, Note_on_c, 0, 49, 96
4, 650400, Note_on_c, 0, 61, 96
4, 650880, Note_on_c, 0, 61, 0
4, 650880, Note_on_c, 0, 49, 0
4, 650880, Note_on_c, 0, 40, 96
4, 650880, Note_on_c, 0, 52, 96
4, 651360, Note_on_c, 0, 52, 0
4, 651360, Note_on_c, 0, 40, 0
4, 651360, Note_on_c, 0, 52, 96
4, 651360, Note_on_c, 0, 64, 96
4, 652080, Note_on_c, 0, 64, 0
4, 652080, Note_on_c, 0, 52, 0
4, 652080, Note_on_c, 0, 51, 96
4, 652080, Note_on_c, 0, 63, 96
4, 652320, Note_on_c, 0, 63, 0
4, 652320, Note_on_c, 0, 51, 0
4, 652320, Note_on_c, 0, 54, 96
4, 652320, Note_on_c, 0, 66, 96
4, 653280, Note_on_c, 0, 66, 0
4, 653280, Note_on_c, 0, 54, 0
4, 653280, Note_on_c, 0, 52, 96
4, 653280, Note_on_c, 0, 64, 96
4, 653760, Note_on_c, 0, 64, 0
4, 653760, Note_on_c, 0, 52, 0
4, 653760, Note_on_c, 0, 40, 96
4, 653760, Note_on_c, 0, 52, 96
4, 654240, Note_on_c, 0, 52, 0
4, 654240, Note_on_c, 0, 40, 0
4, 654240, Note_on_c, 0, 50, 96
4, 654240, Note_on_c, 0, 62, 96
4, 654960, Note_on_c, 0, 62, 0
4, 654960, Note_on_c, 0, 50, 0
4, 654960, Note_on_c, 0, 49, 96
4, 654960, Note_on_c, 0, 61, 96
4, 655200, Note_on_c, 0, 61, 0
4, 655200, Note_on_c, 0, 49, 0
4, 655200, Note_on_c, 0, 52, 96
4, 655200, Note_on_c, 0, 64, 96
4, 656160, Note_on_c, 0, 64, 0
4, 656160, Note_on_c, 0, 52, 0
4, 656160, Note_on_c, 0, 50, 96
4, 656160, Note_on_c, 0, 62, 96
4, 656640, Note_on_c, 0, 62, 0
4, 656640, Note_on_c, 0, 50, 0
4, 656640, Note_on_c, 0, 40, 96
4, 656640, Note_on_c, 0, 52, 96
4, 657120, Note_on_c, 0, 52, 0
4, 657120, Note_on_c, 0, 40, 0
4, 657120, Note_on_c, 0, 49, 96
4, 657120, Note_on_c, 0, 61, 96
4, 657840, Note_on_c, 0, 61, 0
4, 657840, Note_on_c, 0, 49, 0
4, 657840, Note_on_c, 0, 47, 96
4, 657840, Note_on_c, 0, 59, 96
4, 658080, Note_on_c, 0, 59, 0
4, 658080, Note_on_c, 0, 47, 0
4, 658080, Note_on_c, 0, 50, 96
4, 658080, Note_on_c, 0, 62, 96
4, 659040, Note_on_c, 0, 62, 0
4, 659040, Note_on_c, 0, 50, 0
4, 659040, Note_on_c, 0, 49, 96
4, 659040, Note_on_c, 0, 61, 96
4, 659520, Note_on_c, 0, 61, 0
4, 659520, Note_on_c, 0, 49, 0
4, 659520, Note_on_c, 0, 39, 96
4, 659520, Note_on_c, 0, 51, 96
4, 660000, Note_on_c, 0, 51, 0
4, 660000, Note_on_c, 0, 39, 0
4, 660000, Note_on_c, 0, 48, 96
4, 660000, Note_on_c, 0, 60, 96
4, 660720, Note_on_c, 0, 60, 0
4, 660720, Note_on_c, 0, 48, 0
4, 660720, Note_on_c, 0, 47, 96
4, 660720, Note_on_c, 0, 59, 96
4, 660960, Note_on_c, 0, 59, 0
4, 660960, Note_on_c, 0, 47, 0
4, 660960, Note_on_c, 0, 50, 96
4, 660960, Note_on_c, 0, 62, 96
4, 661920, Note_on_c, 0, 62, 0
4, 661920, Note_on_c, 0, 50, 0
4, 661920, Note_on_c, 0, 48, 96
4, 661920, Note_on_c, 0, 60, 96
4, 662400, Note_on_c, 0, 60, 0
4, 662400, Note_on_c, 0, 48, 0
4, 662400, Note_on_c, 0, 38, 96
4, 662400, Note_on_c, 0, 41, 96
4, 662400, Note_on_c, 0, 46, 96
4, 662400, Note_on_c, 0, 50, 96
4, 663840, Note_on_c, 0, 50, 0
4, 663840, Note_on_c, 0, 38, 0
4, 663840, Note_on_c, 0, 41, 0
4, 663840, Note_on_c, 0, 46, 0
4, 663840, Note_on_c, 0, 40, 96
4, 663840, Note_on_c, 0, 44, 96
4, 663840, Note_on_c, 0, 47, 96
4, 663840, Note_on_c, 0, 52, 96
4, 665280, Note_on_c, 0, 52, 0
4, 665280, Note_on_c, 0, 40, 0
4, 665280, Note_on_c, 0, 44, 0
4, 665280, Note_on_c, 0, 47, 0
4, 665280, Note_on_c, 0, 37, 96
4, 665280, Note_on_c, 0, 40, 96
4, 665280, Note_on_c, 0, 45, 96
4, 665280, Note_on_c, 0, 49, 96
4, 666720, Note_on_c, 0, 49, 0
4, 666720, Note_on_c, 0, 37, 0
4, 666720, Note_on_c, 0, 40, 0
4, 666720, Note_on_c, 0, 45, 0
4, 666720, Note_on_c, 0, 35, 96
4, 666720, Note_on_c, 0, 47, 96
4, 667200, Note_on_c, 0, 47, 0
4, 667200, Note_on_c, 0, 35, 0
4, 667200, Note_on_c, 0, 37, 96
4, 667200, Note_on_c, 0, 49, 96
4, 667680, Note_on_c, 0, 49, 0
4, 667680, Note_on_c, 0, 37, 0
4, 667680, Note_on_c, 0, 38, 96
4, 667680, Note_on_c, 0, 50, 96
4, 668160, Note_on_c, 0, 50, 0
4, 668160, Note_on_c, 0, 38, 0
4, 668160, Note_on_c, 0, 40, 96
4, 668160, Note_on_c, 0, 45, 96
4, 668160, Note_on_c, 0, 49, 96
4, 668160, Note_on_c, 0, 52, 96
4, 669600, Note_on_c, 0, 52, 0
4, 669600, Note_on_c, 0, 40, 0
4, 669600, Note_on_c, 0, 45, 0
4, 669600, Note_on_c, 0, 49, 0
4, 669600, Note_on_c, 0, 40, 96
4, 669600, Note_on_c, 0, 44, 96
4, 669600, Note_on_c, 0, 47, 96
4, 669600, Note_on_c, 0, 52, 96
4, 671040, Note_on_c, 0, 52, 0
4, 671040, Note_on_c, 0, 40, 0
4, 671040, Note_on_c, 0, 44, 0
4, 671040, Note_on_c, 0, 47, 0
4, 671040, Note_on_c, 0, 45, 96
4, 671040, Note_on_c, 0, 57, 96
4, 672000, Note_on_c, 0, 57, 0
4, 672000, Note_on_c, 0, 45, 0
4, 672000, Note_on_c, 0, 40, 96
4, 672000, Note_on_c, 0, 52, 96
4, 672480, Note_on_c, 0, 52, 0
4, 672480, Note_on_c, 0, 40, 0
4, 672480, Note_on_c, 0, 45, 96
4, 672480, Note_on_c, 0, 57, 96
4, 673440, Note_on_c, 0, 57, 0
4, 673440, Note_on_c, 0, 45, 0
4, 673440, Note_on_c, 0, 40, 96
4, 673440, Note_on_c, 0, 52, 96
4, 673920, Note_on_c, 0, 52, 0
4, 673920, Note_on_c, 0, 40, 0
4, 673920, Note_on_c, 0, 45, 96
4, 673920, Note_on_c, 0, 57, 96
4, 674880, Note_on_c, 0, 57, 0
4, 674880, Note_on_c, 0, 45, 0
4, 674880, Note_on_c, 0, 40, 96
4, 674880, Note_on_c, 0, 52, 96
4, 675360, Note_on_c, 0, 52, 0
4, 675360, Note_on_c, 0, 40, 0
4, 675360, Note_on_c, 0, 45, 96
4, 675360, Note_on_c, 0, 57, 96
4, 676320, Note_on_c, 0, 57, 0
4, 676320, Note_on_c, 0, 45, 0
4, 676320, Note_on_c, 0, 40, 96
4, 676320, Note_on_c, 0, 52, 96
4, 676800, Note_on_c, 0, 52, 0
4, 676800, Note_on_c, 0, 40, 0
4, 676800, Note_on_c, 0, 45, 96
4, 676800, Note_on_c, 0, 57, 96
4, 677760, Note_on_c, 0, 57, 0
4, 677760, Note_on_c, 0, 45, 0
4, 677760, Note_on_c, 0, 40, 96
4, 677760, Note_on_c, 0, 52, 96
4, 678240, Note_on_c, 0, 52, 0
4, 678240, Note_on_c, 0, 40, 0
4, 678240, Note_on_c, 0, 45, 96
4, 678240, Note_on_c, 0, 57, 96
4, 679200, Note_on_c, 0, 57, 0
4, 679200, Note_on_c, 0, 45, 0
4, 679200, Note_on_c, 0, 40, 96
4, 679200, Note_on_c, 0, 52, 96
4, 679680, Note_on_c, 0, 52, 0
4, 679680, Note_on_c, 0, 40, 0
4, 679680, Note_on_c, 0, 45, 96
4, 679680, Note_on_c, 0, 57, 96
4, 680640, Note_on_c, 0, 57, 0
4, 680640, Note_on_c, 0, 45, 0
4, 680640, Note_on_c, 0, 40, 96
4, 680640, Note_on_c, 0, 52, 96
4, 681120, Note_on_c, 0, 52, 0
4, 681120, Note_on_c, 0, 40, 0
4, 681120, Note_on_c, 0, 45, 96
4, 681120, Note_on_c, 0, 57, 96
4, 682080, Note_on_c, 0, 57, 0
4, 682080, Note_on_c, 0, 45, 0
4, 682080, Note_on_c, 0, 40, 96
4, 682080, Note_on_c, 0, 52, 96
4, 682560, Note_on_c, 0, 52, 0
4, 682560, Note_on_c, 0, 40, 0
4, 682560, Note_on_c, 0, 45, 96
4, 682560, Note_on_c, 0, 57, 96
4, 683040, Note_on_c, 0, 57, 0
4, 683040, Note_on_c, 0, 45, 0
4, 683040, Note_on_c, 0, 49, 96
4, 683040, Note_on_c, 0, 61, 96
4, 683760, Note_on_c, 0, 61, 0
4, 683760, Note_on_c, 0, 49, 0
4, 683760, Note_on_c, 0, 45, 96
4, 683760, Note_on_c, 0, 57, 96
4, 684000, Note_on_c, 0, 57, 0
4, 684000, Note_on_c, 0, 45, 0
4, 684000, Note_on_c, 0, 52, 96
4, 684000, Note_on_c, 0, 64, 96
4, 684960, Note_on_c, 0, 64, 0
4, 684960, Note_on_c, 0, 52, 0
4, 684960, Note_on_c, 0, 49, 96
4, 684960, Note_on_c, 0, 61, 96
4, 685440, Note_on_c, 0, 61, 0
4, 685440, Note_on_c, 0, 49, 0
4, 685440, Note_on_c, 0, 45, 96
4, 685440, Note_on_c, 0, 57, 96
4, 685920, Note_on_c, 0, 57, 0
4, 685920, Note_on_c, 0, 45, 0
4, 685920, Note_on_c, 0, 45, 96
4, 685920, Note_on_c, 0, 57, 96
4, 686640, Note_on_c, 0, 57, 0
4, 686640, Note_on_c, 0, 45, 0
4, 686640, Note_on_c, 0, 40, 96
4, 686640, Note_on_c, 0, 52, 96
4, 686880, Note_on_c, 0, 52, 0
4, 686880, Note_on_c, 0, 40, 0
4, 686880, Note_on_c, 0, 49, 96
4, 686880, Note_on_c, 0, 61, 96
4, 687840, Note_on_c, 0, 61, 0
4, 687840, Note_on_c, 0, 49, 0
4, 687840, Note_on_c, 0, 45, 96
4, 687840, Note_on_c, 0, 57, 96
4, 688320, Note_on_c, 0, 57, 0
4, 688320, Note_on_c, 0, 45, 0
4, 688320, Note_on_c, 0, 40, 96
4, 688320, Note_on_c, 0, 52, 96
4, 688800, Note_on_c, 0, 52, 0
4, 688800, Note_on_c, 0, 40, 0
4, 688800, Note_on_c, 0, 40, 96
4, 688800, Note_on_c, 0, 52, 96
4, 689520, Note_on_c, 0, 52, 0
4, 689520, Note_on_c, 0, 40, 0
4, 689520, Note_on_c, 0, 37, 96
4, 689520, Note_on_c, 0, 49, 96
4, 689760, Note_on_c, 0, 49, 0
4, 689760, Note_on_c, 0, 37, 0
4, 689760, Note_on_c, 0, 45, 96
4, 689760, Note_on_c, 0, 57, 96
4, 690720, Note_on_c, 0, 57, 0
4, 690720, Note_on_c, 0, 45, 0
4, 690720, Note_on_c, 0, 40, 96
4, 690720, Note_on_c, 0, 52, 96
4, 691200, Note_on_c, 0, 52, 0
4, 691200, Note_on_c, 0, 40, 0
4, 691200, Note_on_c, 0, 37, 96
4, 691200, Note_on_c, 0, 49, 96
4, 691680, Note_on_c, 0, 49, 0
4, 691680, Note_on_c, 0, 37, 0
4, 691680, Note_on_c, 0, 37, 96
4, 691680, Note_on_c, 0, 49, 96
4, 692400, Note_on_c, 0, 49, 0
4, 692400, Note_on_c, 0, 37, 0
4, 692400, Note_on_c, 0, 33, 96
4, 692400, Note_on_c, 0, 45, 96
4, 692640, Note_on_c, 0, 45, 0
4, 692640, Note_on_c, 0, 33, 0
4, 692640, Note_on_c, 0, 40, 96
4, 692640, Note_on_c, 0, 52, 96
4, 693600, Note_on_c, 0, 52, 0
4, 693600, Note_on_c, 0, 40, 0
4, 693600, Note_on_c, 0, 37, 96
4, 693600, Note_on_c, 0, 49, 96
4, 694080, Note_on_c, 0, 49, 0
4, 694080, Note_on_c, 0, 37, 0
4, 694080, Note_on_c, 0, 33, 122
4, 694080, Note_on_c, 0, 45, 122
4, 694560, Note_on_c, 0, 45, 0
4, 694560, Note_on_c, 0, 33, 0
4, 695520, Note_on_c, 0, 40, 96
4, 695520, Note_on_c, 0, 44, 96
4, 695520, Note_on_c, 0, 47, 96
4, 695520, Note_on_c, 0, 52, 96
4, 696000, Note_on_c, 0, 52, 0
4, 696000, Note_on_c, 0, 40, 0
4, 696000, Note_on_c, 0, 44, 0
4, 696000, Note_on_c, 0, 47, 0
4, 696960, Note_on_c, 0, 45, 96
4, 696960, Note_on_c, 0, 49, 96
4, 696960, Note_on_c, 0, 52, 96
4, 696960, Note_on_c, 0, 57, 96
4, 697440, Note_on_c, 0, 57, 0
4, 697440, Note_on_c, 0, 45, 0
4, 697440, Note_on_c, 0, 49, 0
4, 697440, Note_on_c, 0, 52, 0
4, 698400, Note_on_c, 0, 40, 96
4, 698400, Note_on_c, 0, 44, 96
4, 698400, Note_on_c, 0, 47, 96
4, 698400, Note_on_c, 0, 52, 96
4, 698880, Note_on_c, 0, 52, 0
4, 698880, Note_on_c, 0, 40, 0
4, 698880, Note_on_c, 0, 44, 0
4, 698880, Note_on_c, 0, 47, 0
4, 699840, Note_on_c, 0, 45, 96
4, 699840, Note_on_c, 0, 49, 96
4, 699840, Note_on_c, 0, 52, 96
4, 699840, Note_on_c, 0, 57, 96
4, 700320, Note_on_c, 0, 57, 0
4, 700320, Note_on_c, 0, 45, 0
4, 700320, Note_on_c, 0, 49, 0
4, 700320, Note_on_c, 0, 52, 0
4, 701280, Note_on_c, 0, 45, 96
4, 701280, Note_on_c, 0, 49, 96
4, 701280, Note_on_c, 0, 52, 96
4, 701280, Note_on_c, 0, 57, 96
4, 701760, Note_on_c, 0, 57, 0
4, 701760, Note_on_c, 0, 45, 0
4, 701760, Note_on_c, 0, 49, 0
4, 701760, Note_on_c, 0, 52, 0
4, 702720, Note_on_c, 0, 33, 122
4, 702720, Note_on_c, 0, 45, 122
4, 706560, Note_on_c, 0, 45, 0
4, 706560, Note_on_c, 0, 33, 0
4, 706560, End_track
5, 0, Start_track
5, 0, Title_t, "Grand Piano"
5, 0, Program_c, 0, 0
5, 0, Control_c, 0, 7, 115
5, 0, Control_c, 0, 10, 47
5, 66240, Note_on_c, 0, 44, 49
5, 67680, Note_on_c, 0, 44, 0
5, 67680, Note_on_c, 0, 42, 49
5, 69120, Note_on_c, 0, 42, 0
5, 69120, Note_on_c, 0, 40, 49
5, 70560, Note_on_c, 0, 40, 0
5, 74880, Note_on_c, 0, 37, 101
5, 74880, Note_on_c, 0, 49, 101
5, 75840, Note_on_c, 0, 49, 0
5, 75840, Note_on_c, 0, 37, 0
5, 76320, Note_on_c, 0, 37, 101
5, 76320, Note_on_c, 0, 49, 101
5, 77280, Note_on_c, 0, 49, 0
5, 77280, Note_on_c, 0, 37, 0
5, 77760, Note_on_c, 0, 35, 101
5, 77760, Note_on_c, 0, 47, 101
5, 78720, Note_on_c, 0, 47, 0
5, 78720, Note_on_c, 0, 35, 0
5, 79200, Note_on_c, 0, 35, 101
5, 79200, Note_on_c, 0, 47, 101
5, 80160, Note_on_c, 0, 47, 0
5, 80160, Note_on_c, 0, 35, 0
5, 80640, Note_on_c, 0, 33, 101
5, 80640, Note_on_c, 0, 45, 101
5, 81600, Note_on_c, 0, 45, 0
5, 81600, Note_on_c, 0, 33, 0
5, 82080, Note_on_c, 0, 45, 101
5, 83040, Note_on_c, 0, 45, 0
5, 83520, Note_on_c, 0, 38, 101
5, 83520, Note_on_c, 0, 50, 101
5, 84480, Note_on_c, 0, 50, 0
5, 84480, Note_on_c, 0, 38, 0
5, 84960, Note_on_c, 0, 38, 101
5, 84960, Note_on_c, 0, 50, 101
5, 85920, Note_on_c, 0, 50, 0
5, 85920, Note_on_c, 0, 38, 0
5, 86400, Note_on_c, 0, 40, 101
5, 86400, Note_on_c, 0, 52, 101
5, 87840, Note_on_c, 0, 52, 0
5, 87840, Note_on_c, 0, 40, 0
5, 87840, Note_on_c, 0, 40, 101
5, 87840, Note_on_c, 0, 52, 101
5, 89280, Note_on_c, 0, 52, 0
5, 89280, Note_on_c, 0, 40, 0
5, 89280, Note_on_c, 0, 40, 101
5, 89280, Note_on_c, 0, 52, 101
5, 90720, Note_on_c, 0, 52, 0
5, 90720, Note_on_c, 0, 40, 0
5, 90720, Note_on_c, 0, 40, 101
5, 90720, Note_on_c, 0, 52, 101
5, 92160, Note_on_c, 0, 52, 0
5, 92160, Note_on_c, 0, 40, 0
5, 97920, Note_on_c, 0, 37, 101
5, 97920, Note_on_c, 0, 49, 101
5, 98880, Note_on_c, 0, 49, 0
5, 98880, Note_on_c, 0, 37, 0
5, 99360, Note_on_c, 0, 37, 101
5, 99360, Note_on_c, 0, 49, 101
5, 100320, Note_on_c, 0, 49, 0
5, 100320, Note_on_c, 0, 37, 0
5, 100800, Note_on_c, 0, 35, 101
5, 100800, Note_on_c, 0, 47, 101
5, 101760, Note_on_c, 0, 47, 0
5, 101760, Note_on_c, 0, 35, 0
5, 102240, Note_on_c, 0, 35, 101
5, 102240, Note_on_c, 0, 47, 101
5, 103200, Note_on_c, 0, 47, 0
5, 103200, Note_on_c, 0, 35, 0
5, 103680, Note_on_c, 0, 33, 101
5, 103680, Note_on_c, 0, 45, 101
5, 104640, Note_on_c, 0, 45, 0
5, 104640, Note_on_c, 0, 33, 0
5, 105120, Note_on_c, 0, 45, 101
5, 106080, Note_on_c, 0, 45, 0
5, 106560, Note_on_c, 0, 38, 101
5, 106560, Note_on_c, 0, 50, 101
5, 107520, Note_on_c, 0, 50, 0
5, 107520, Note_on_c, 0, 38, 0
5, 108000, Note_on_c, 0, 38, 101
5, 108000, Note_on_c, 0, 50, 101
5, 108960, Note_on_c, 0, 50, 0
5, 108960, Note_on_c, 0, 38, 0
5, 109440, Note_on_c, 0, 40, 101
5, 109440, Note_on_c, 0, 52, 101
5, 110880, Note_on_c, 0, 52, 0
5, 110880, Note_on_c, 0, 40, 0
5, 110880, Note_on_c, 0, 40, 101
5, 110880, Note_on_c, 0, 52, 101
5, 112320, Note_on_c, 0, 52, 0
5, 112320, Note_on_c, 0, 40, 0
5, 112320, Note_on_c, 0, 40, 101
5, 112320, Note_on_c, 0, 52, 101
5, 113760, Note_on_c, 0, 52, 0
5, 113760, Note_on_c, 0, 40, 0
5, 113760, Note_on_c, 0, 40, 101
5, 113760, Note_on_c, 0, 52, 101
5, 115200, Note_on_c, 0, 52, 0
5, 115200, Note_on_c, 0, 40, 0
5, 282240, Note_on_c, 0, 44, 49
5, 283680, Note_on_c, 0, 44, 0
5, 283680, Note_on_c, 0, 42, 49
5, 285120, Note_on_c, 0, 42, 0
5, 285120, Note_on_c, 0, 40, 49
5, 286560, Note_on_c, 0, 40, 0
5, 290880, Note_on_c, 0, 37, 101
5, 290880, Note_on_c, 0, 49, 101
5, 291840, Note_on_c, 0, 49, 0
5, 291840, Note_on_c, 0, 37, 0
5, 292320, Note_on_c, 0, 37, 101
5, 292320, Note_on_c, 0, 49, 101
5, 293280, Note_on_c, 0, 49, 0
5, 293280, Note_on_c, 0, 37, 0
5, 293760, Note_on_c, 0, 35, 101
5, 293760, Note_on_c, 0, 47, 101
5, 294720, Note_on_c, 0, 47, 0
5, 294720, Note_on_c, 0, 35, 0
5, 295200, Note_on_c, 0, 35, 101
5, 295200, Note_on_c, 0, 47, 101
5, 296160, Note_on_c, 0, 47, 0
5, 296160, Note_on_c, 0, 35, 0
5, 296640, Note_on_c, 0, 33, 101
5, 296640, Note_on_c, 0, 45, 101
5, 297600, Note_on_c, 0, 45, 0
5, 297600, Note_on_c, 0, 33, 0
5, 298080, Note_on_c, 0, 45, 101
5, 299040, Note_on_c, 0, 45, 0
5, 299520, Note_on_c, 0, 38, 101
5, 299520, Note_on_c, 0, 50, 101
5, 300480, Note_on_c, 0, 50, 0
5, 300480, Note_on_c, 0, 38, 0
5, 300960, Note_on_c, 0, 38, 101
5, 300960, Note_on_c, 0, 50, 101
5, 301920, Note_on_c, 0, 50, 0
5, 301920, Note_on_c, 0, 38, 0
5, 302400, Note_on_c, 0, 40, 101
5, 302400, Note_on_c, 0, 52, 101
5, 303840, Note_on_c, 0, 52, 0
5, 303840, Note_on_c, 0, 40, 0
5, 303840, Note_on_c, 0, 40, 101
5, 303840, Note_on_c, 0, 52, 101
5, 305280, Note_on_c, 0, 52, 0
5, 305280, Note_on_c, 0, 40, 0
5, 305280, Note_on_c, 0, 40, 101
5, 305280, Note_on_c, 0, 52, 101
5, 306720, Note_on_c, 0, 52, 0
5, 306720, Note_on_c, 0, 40, 0
5, 306720, Note_on_c, 0, 40, 101
5, 306720, Note_on_c, 0, 52, 101
5, 308160, Note_on_c, 0, 52, 0
5, 308160, Note_on_c, 0, 40, 0
5, 313920, Note_on_c, 0, 37, 101
5, 313920, Note_on_c, 0, 49, 101
5, 314880, Note_on_c, 0, 49, 0
5, 314880, Note_on_c, 0, 37, 0
5, 315360, Note_on_c, 0, 37, 101
5, 315360, Note_on_c, 0, 49, 101
5, 316320, Note_on_c, 0, 49, 0
5, 316320, Note_on_c, 0, 37, 0
5, 316800, Note_on_c, 0, 35, 101
5, 316800, Note_on_c, 0, 47, 101
5, 317760, Note_on_c, 0, 47, 0
5, 317760, Note_on_c, 0, 35, 0
5, 318240, Note_on_c, 0, 35, 101
5, 318240, Note_on_c, 0, 47, 101
5, 319200, Note_on_c, 0, 47, 0
5, 319200, Note_on_c, 0, 35, 0
5, 319680, Note_on_c, 0, 33, 101
5, 319680, Note_on_c, 0, 45, 101
5, 320640, Note_on_c, 0, 45, 0
5, 320640, Note_on_c, 0, 33, 0
5, 321120, Note_on_c, 0, 45, 101
5, 322080, Note_on_c, 0, 45, 0
5, 322560, Note_on_c, 0, 38, 101
5, 322560, Note_on_c, 0, 50, 101
5, 323520, Note_on_c, 0, 50, 0
5, 323520, Note_on_c, 0, 38, 0
5, 324000, Note_on_c, 0, 38, 101
5, 324000, Note_on_c, 0, 50, 101
5, 324960, Note_on_c, 0, 50, 0
5, 324960, Note_on_c, 0, 38, 0
5, 325440, Note_on_c, 0, 40, 101
5, 325440, Note_on_c, 0, 52, 101
5, 326880, Note_on_c, 0, 52, 0
5, 326880, Note_on_c, 0, 40, 0
5, 326880, Note_on_c, 0, 40, 101
5, 326880, Note_on_c, 0, 52, 101
5, 328320, Note_on_c, 0, 52, 0
5, 328320, Note_on_c, 0, 40, 0
5, 328320, Note_on_c, 0, 40, 101
5, 328320, Note_on_c, 0, 52, 101
5, 329760, Note_on_c, 0, 52, 0
5, 329760, Note_on_c, 0, 40, 0
5, 329760, Note_on_c, 0, 40, 101
5, 329760, Note_on_c, 0, 52, 101
5, 331200, Note_on_c, 0, 52, 0
5, 331200, Note_on_c, 0, 40, 0
5, 339840, Note_on_c, 0, 52, 49
5, 340800, Note_on_c, 0, 52, 0
5, 340800, Note_on_c, 0, 52, 49
5, 341280, Note_on_c, 0, 52, 0
5, 341280, Note_on_c, 0, 53, 62
5, 342240, Note_on_c, 0, 53, 0
5, 342240, Note_on_c, 0, 53, 62
5, 342720, Note_on_c, 0, 53, 0
5, 342720, Note_on_c, 0, 54, 75
5, 343680, Note_on_c, 0, 54, 0
5, 343680, Note_on_c, 0, 54, 75
5, 344160, Note_on_c, 0, 54, 0
5, 344160, Note_on_c, 0, 53, 62
5, 345120, Note_on_c, 0, 53, 0
5, 345120, Note_on_c, 0, 52, 62
5, 345600, Note_on_c, 0, 52, 0
5, 351360, Note_on_c, 0, 52, 49
5, 352320, Note_on_c, 0, 52, 0
5, 352320, Note_on_c, 0, 52, 49
5, 352800, Note_on_c, 0, 52, 0
5, 352800, Note_on_c, 0, 53, 62
5, 353760, Note_on_c, 0, 53, 0
5, 353760, Note_on_c, 0, 53, 62
5, 354240, Note_on_c, 0, 53, 0
5, 354240, Note_on_c, 0, 54, 62
5, 354720, Note_on_c, 0, 54, 0
5, 354720, Note_on_c, 0, 53, 75
5, 355200, Note_on_c, 0, 53, 0
5, 355200, Note_on_c, 0, 52, 75
5, 355680, Note_on_c, 0, 52, 0
5, 362880, Note_on_c, 0, 52, 49
5, 363840, Note_on_c, 0, 52, 0
5, 363840, Note_on_c, 0, 52, 49
5, 364320, Note_on_c, 0, 52, 0
5, 364320, Note_on_c, 0, 53, 62
5, 365280, Note_on_c, 0, 53, 0
5, 365280, Note_on_c, 0, 53, 62
5, 365760, Note_on_c, 0, 53, 0
5, 365760, Note_on_c, 0, 54, 75
5, 366720, Note_on_c, 0, 54, 0
5, 366720, Note_on_c, 0, 54, 75
5, 367200, Note_on_c, 0, 54, 0
5, 367200, Note_on_c, 0, 53, 62
5, 368160, Note_on_c, 0, 53, 0
5, 368160, Note_on_c, 0, 52, 62
5, 368640, Note_on_c, 0, 52, 0
5, 374400, Note_on_c, 0, 52, 49
5, 375360, Note_on_c, 0, 52, 0
5, 375360, Note_on_c, 0, 52, 49
5, 375840, Note_on_c, 0, 52, 0
5, 375840, Note_on_c, 0, 53, 62
5, 376800, Note_on_c, 0, 53, 0
5, 376800, Note_on_c, 0, 53, 62
5, 377280, Note_on_c, 0, 53, 0
5, 377280, Note_on_c, 0, 54, 62
5, 377760, Note_on_c, 0, 54, 0
5, 377760, Note_on_c, 0, 53, 75
5, 378240, Note_on_c, 0, 53, 0
5, 378240, Note_on_c, 0, 52, 75
5, 378720, Note_on_c, 0, 52, 0
5, 387360, Note_on_c, 0, 41, 75
5, 387840, Note_on_c, 0, 41, 0
5, 388800, Note_on_c, 0, 46, 75
5, 389280, Note_on_c, 0, 46, 0
5, 390240, Note_on_c, 0, 41, 75
5, 390720, Note_on_c, 0, 41, 0
5, 391680, Note_on_c, 0, 45, 75
5, 392160, Note_on_c, 0, 45, 0
5, 393120, Note_on_c, 0, 41, 75
5, 393600, Note_on_c, 0, 41, 0
5, 394560, Note_on_c, 0, 46, 75
5, 395040, Note_on_c, 0, 46, 0
5, 396000, Note_on_c, 0, 41, 75
5, 396480, Note_on_c, 0, 41, 0
5, 397440, Note_on_c, 0, 45, 75
5, 397920, Note_on_c, 0, 45, 0
5, 398880, Note_on_c, 0, 41, 75
5, 399360, Note_on_c, 0, 41, 0
5, 410400, Note_on_c, 0, 41, 75
5, 410880, Note_on_c, 0, 41, 0
5, 411840, Note_on_c, 0, 46, 75
5, 412320, Note_on_c, 0, 46, 0
5, 413280, Note_on_c, 0, 41, 75
5, 413760, Note_on_c, 0, 41, 0
5, 414720, Note_on_c, 0, 45, 75
5, 415200, Note_on_c, 0, 45, 0
5, 416160, Note_on_c, 0, 41, 75
5, 416640, Note_on_c, 0, 41, 0
5, 417600, Note_on_c, 0, 46, 75
5, 418080, Note_on_c, 0, 46, 0
5, 419040, Note_on_c, 0, 41, 75
5, 419520, Note_on_c, 0, 41, 0
5, 420480, Note_on_c, 0, 45, 75
5, 420960, Note_on_c, 0, 45, 0
5, 421920, Note_on_c, 0, 41, 75
5, 422400, Note_on_c, 0, 41, 0
5, 432000, Note_on_c, 0, 52, 49
5, 432960, Note_on_c, 0, 52, 0
5, 432960, Note_on_c, 0, 52, 49
5, 433440, Note_on_c, 0, 52, 0
5, 433440, Note_on_c, 0, 53, 62
5, 434400, Note_on_c, 0, 53, 0
5, 434400, Note_on_c, 0, 53, 62
5, 434880, Note_on_c, 0, 53, 0
5, 434880, Note_on_c, 0, 54, 75
5, 435840, Note_on_c, 0, 54, 0
5, 435840, Note_on_c, 0, 54, 75
5, 436320, Note_on_c, 0, 54, 0
5, 436320, Note_on_c, 0, 53, 62
5, 437280, Note_on_c, 0, 53, 0
5, 437280, Note_on_c, 0, 52, 62
5, 437760, Note_on_c, 0, 52, 0
5, 443520, Note_on_c, 0, 52, 49
5, 444480, Note_on_c, 0, 52, 0
5, 444480, Note_on_c, 0, 52, 49
5, 444960, Note_on_c, 0, 52, 0
5, 444960, Note_on_c, 0, 53, 62
5, 445920, Note_on_c, 0, 53, 0
5, 445920, Note_on_c, 0, 53, 62
5, 446400, Note_on_c, 0, 53, 0
5, 446400, Note_on_c, 0, 54, 62
5, 446880, Note_on_c, 0, 54, 0
5, 446880, Note_on_c, 0, 53, 75
5, 447360, Note_on_c, 0, 53, 0
5, 447360, Note_on_c, 0, 52, 75
5, 447840, Note_on_c, 0, 52, 0
5, 449280, Note_on_c, 0, 50, 62
5, 449760, Note_on_c, 0, 50, 0
5, 450720, Note_on_c, 0, 50, 62
5, 451200, Note_on_c, 0, 50, 0
5, 452160, Note_on_c, 0, 50, 62
5, 452640, Note_on_c, 0, 50, 0
5, 453600, Note_on_c, 0, 50, 62
5, 454080, Note_on_c, 0, 50, 0
5, 455040, Note_on_c, 0, 50, 62
5, 455520, Note_on_c, 0, 50, 0
5, 456480, Note_on_c, 0, 50, 62
5, 456960, Note_on_c, 0, 50, 0
5, 457920, Note_on_c, 0, 50, 62
5, 458400, Note_on_c, 0, 50, 0
5, 459360, Note_on_c, 0, 50, 62
5, 459840, Note_on_c, 0, 50, 0
5, 460800, Note_on_c, 0, 50, 62
5, 461280, Note_on_c, 0, 50, 0
5, 462240, Note_on_c, 0, 50, 62
5, 462720, Note_on_c, 0, 50, 0
5, 463680, Note_on_c, 0, 50, 62
5, 464160, Note_on_c, 0, 50, 0
5, 465120, Note_on_c, 0, 50, 62
5, 465600, Note_on_c, 0, 50, 0
5, 466560, Note_on_c, 0, 50, 62
5, 467040, Note_on_c, 0, 50, 0
5, 468000, Note_on_c, 0, 50, 62
5, 468480, Note_on_c, 0, 50, 0
5, 469440, Note_on_c, 0, 50, 62
5, 469920, Note_on_c, 0, 50, 0
5, 472320, Note_on_c, 0, 50, 62
5, 472800, Note_on_c, 0, 50, 0
5, 473760, Note_on_c, 0, 50, 62
5, 474240, Note_on_c, 0, 50, 0
5, 475200, Note_on_c, 0, 50, 62
5, 475680, Note_on_c, 0, 50, 0
5, 476640, Note_on_c, 0, 50, 62
5, 477120, Note_on_c, 0, 50, 0
5, 478080, Note_on_c, 0, 50, 62
5, 478560, Note_on_c, 0, 50, 0
5, 479520, Note_on_c, 0, 50, 62
5, 480000, Note_on_c, 0, 50, 0
5, 480960, Note_on_c, 0, 50, 62
5, 481440, Note_on_c, 0, 50, 0
5, 482400, Note_on_c, 0, 50, 62
5, 482880, Note_on_c, 0, 50, 0
5, 483840, Note_on_c, 0, 50, 62
5, 484320, Note_on_c, 0, 50, 0
5, 485280, Note_on_c, 0, 50, 62
5, 485760, Note_on_c, 0, 50, 0
5, 486720, Note_on_c, 0, 50, 62
5, 487200, Note_on_c, 0, 50, 0
5, 488160, Note_on_c, 0, 50, 62
5, 488640, Note_on_c, 0, 50, 0
5, 489600, Note_on_c, 0, 50, 62
5, 490080, Note_on_c, 0, 50, 0
5, 491040, Note_on_c, 0, 50, 62
5, 491520, Note_on_c, 0, 50, 0
5, 492480, Note_on_c, 0, 50, 62
5, 492960, Note_on_c, 0, 50, 0
5, 499680, Note_on_c, 0, 33, 75
5, 499680, Note_on_c, 0, 45, 75
5, 500640, Note_on_c, 0, 45, 0
5, 500640, Note_on_c, 0, 33, 0
5, 501120, Note_on_c, 0, 43, 75
5, 502560, Note_on_c, 0, 43, 0
5, 502560, Note_on_c, 0, 38, 75
5, 502560, Note_on_c, 0, 50, 75
5, 503520, Note_on_c, 0, 50, 0
5, 503520, Note_on_c, 0, 38, 0
5, 504000, Note_on_c, 0, 39, 75
5, 504000, Note_on_c, 0, 51, 75
5, 504960, Note_on_c, 0, 51, 0
5, 504960, Note_on_c, 0, 39, 0
5, 505440, Note_on_c, 0, 39, 75
5, 505440, Note_on_c, 0, 51, 75
5, 506400, Note_on_c, 0, 51, 0
5, 506400, Note_on_c, 0, 39, 0
5, 506880, Note_on_c, 0, 39, 75
5, 506880, Note_on_c, 0, 51, 75
5, 507840, Note_on_c, 0, 51, 0
5, 507840, Note_on_c, 0, 39, 0
5, 508320, Note_on_c, 0, 39, 75
5, 508320, Note_on_c, 0, 51, 75
5, 509280, Note_on_c, 0, 51, 0
5, 509280, Note_on_c, 0, 39, 0
5, 522720, Note_on_c, 0, 33, 75
5, 522720, Note_on_c, 0, 45, 75
5, 523680, Note_on_c, 0, 45, 0
5, 523680, Note_on_c, 0, 33, 0
5, 524160, Note_on_c, 0, 43, 75
5, 525600, Note_on_c, 0, 43, 0
5, 525600, Note_on_c, 0, 38, 75
5, 525600, Note_on_c, 0, 50, 75
5, 526560, Note_on_c, 0, 50, 0
5, 526560, Note_on_c, 0, 38, 0
5, 527040, Note_on_c, 0, 39, 75
5, 527040, Note_on_c, 0, 51, 75
5, 528000, Note_on_c, 0, 51, 0
5, 528000, Note_on_c, 0, 39, 0
5, 528480, Note_on_c, 0, 39, 75
5, 528480, Note_on_c, 0, 51, 75
5, 529440, Note_on_c, 0, 51, 0
5, 529440, Note_on_c, 0, 39, 0
5, 529920, Note_on_c, 0, 39, 75
5, 529920, Note_on_c, 0, 51, 75
5, 530880, Note_on_c, 0, 51, 0
5, 530880, Note_on_c, 0, 39, 0
5, 531360, Note_on_c, 0, 39, 75
5, 531360, Note_on_c, 0, 51, 75
5, 532320, Note_on_c, 0, 51, 0
5, 532320, Note_on_c, 0, 39, 0
5, 541440, Note_on_c, 0, 50, 62
5, 541920, Note_on_c, 0, 50, 0
5, 542880, Note_on_c, 0, 50, 62
5, 543360, Note_on_c, 0, 50, 0
5, 544320, Note_on_c, 0, 50, 62
5, 544800, Note_on_c, 0, 50, 0
5, 545760, Note_on_c, 0, 50, 62
5, 546240, Note_on_c, 0, 50, 0
5, 547200, Note_on_c, 0, 50, 62
5, 547680, Note_on_c, 0, 50, 0
5, 548640, Note_on_c, 0, 50, 62
5, 549120, Note_on_c, 0, 50, 0
5, 550080, Note_on_c, 0, 50, 62
5, 550560, Note_on_c, 0, 50, 0
5, 551520, Note_on_c, 0, 50, 62
5, 552000, Note_on_c, 0, 50, 0
5, 552960, Note_on_c, 0, 50, 62
5, 553440, Note_on_c, 0, 50, 0
5, 554400, Note_on_c, 0, 50, 62
5, 554880, Note_on_c, 0, 50, 0
5, 555840, Note_on_c, 0, 50, 62
5, 556320, Note_on_c, 0, 50, 0
5, 557280, Note_on_c, 0, 50, 62
5, 557760, Note_on_c, 0, 50, 0
5, 558720, Note_on_c, 0, 50, 62
5, 559200, Note_on_c, 0, 50, 0
5, 560160, Note_on_c, 0, 50, 62
5, 560640, Note_on_c, 0, 50, 0
5, 561600, Note_on_c, 0, 50, 62
5, 562080, Note_on_c, 0, 50, 0
5, 640800, Note_on_c, 0, 52, 88
5, 640800, Note_on_c, 0, 57, 88
5, 642240, Note_on_c, 0, 57, 0
5, 642240, Note_on_c, 0, 52, 0
5, 643680, Note_on_c, 0, 52, 88
5, 643680, Note_on_c, 0, 56, 88
5, 645120, Note_on_c, 0, 56, 0
5, 645120, Note_on_c, 0, 52, 0
5, 646560, Note_on_c, 0, 54, 88
5, 646560, Note_on_c, 0, 59, 88
5, 648000, Note_on_c, 0, 59, 0
5, 648000, Note_on_c, 0, 54, 0
5, 649440, Note_on_c, 0, 54, 88
5, 649440, Note_on_c, 0, 58, 88
5, 650880, Note_on_c, 0, 58, 0
5, 650880, Note_on_c, 0, 54, 0
5, 652320, Note_on_c, 0, 56, 88
5, 652320, Note_on_c, 0, 61, 88
5, 653760, Note_on_c, 0, 61, 0
5, 653760, Note_on_c, 0, 56, 0
5, 655200, Note_on_c, 0, 56, 88
5, 655200, Note_on_c, 0, 59, 88
5, 656640, Note_on_c, 0, 59, 0
5, 656640, Note_on_c, 0, 56, 0
5, 658080, Note_on_c, 0, 52, 88
5, 658080, Note_on_c, 0, 57, 88
5, 659520, Note_on_c, 0, 57, 0
5, 659520, Note_on_c, 0, 52, 0
5, 660960, Note_on_c, 0, 53, 88
5, 660960, Note_on_c, 0, 57, 88
5, 662400, Note_on_c, 0, 57, 0
5, 662400, Note_on_c, 0, 53, 0
5, 662400, End_track
0, 0, End_of_file
