0, 0, Header, 1, 5, 480
1, 0, Start_track
1, 0, Title_t, "tchaikovsky swan lake act1 3 scene"
1, 0, Copyright_t, "Adaptation for Disklavier pianos, by: Robert C. Kuhmann (c) 2012."
1, 0, Text_t, "Seq. (c) by: Segundo G. Yogore,  2007\012"
1, 0, Time_signature, 4, 2, 24, 8
1, 0, Key_signature, 0, "major"
1, 0, Tempo, 500000
1, 7680, Tempo, 500000
1, 15360, Tempo, 500000
1, 67200, Tempo, 500000
1, 74880, Tempo, 500000
1, 201600, Tempo, 416667
1, 205440, Key_signature, 2, "major"
1, 238080, Time_signature, 8, 2, 24, 8
1, 238080, End_track
2, 0, Start_track
2, 0, Title_t, "Grand Piano"
2, 0, Program_c, 0, 0
2, 0, Control_c, 0, 7, 115
2, 0, Control_c, 0, 10, 86
2, 0, Note_on_c, 0, 57, 78
2, 639, Note_on_c, 0, 57, 0
2, 639, Note_on_c, 0, 59, 78
2, 800, Note_on_c, 0, 59, 0
2, 800, Note_on_c, 0, 61, 78
2, 960, Note_on_c, 0, 61, 0
2, 960, Note_on_c, 0, 62, 78
2, 1119, Note_on_c, 0, 62, 0
2, 1119, Note_on_c, 0, 61, 78
2, 1280, Note_on_c, 0, 61, 0
2, 1280, Note_on_c, 0, 59, 78
2, 1440, Note_on_c, 0, 59, 0
2, 1440, Note_on_c, 0, 61, 78
2, 1920, Note_on_c, 0, 61, 0
2, 1920, Note_on_c, 0, 61, 78
2, 2559, Note_on_c, 0, 61, 0
2, 2559, Note_on_c, 0, 62, 78
2, 2720, Note_on_c, 0, 62, 0
2, 2720, Note_on_c, 0, 64, 78
2, 2880, Note_on_c, 0, 64, 0
2, 2880, Note_on_c, 0, 66, 78
2, 3039, Note_on_c, 0, 66, 0
2, 3039, Note_on_c, 0, 64, 78
2, 3200, Note_on_c, 0, 64, 0
2, 3200, Note_on_c, 0, 62, 78
2, 3360, Note_on_c, 0, 62, 0
2, 3360, Note_on_c, 0, 64, 78
2, 3840, Note_on_c, 0, 64, 0
2, 3840, Note_on_c, 0, 64, 78
2, 4320, Note_on_c, 0, 64, 0
2, 4320, Note_on_c, 0, 66, 104
2, 4680, Note_on_c, 0, 66, 0
2, 4680, Note_on_c, 0, 64, 78
2, 4800, Note_on_c, 0, 64, 0
2, 4800, Note_on_c, 0, 62, 78
2, 5280, Note_on_c, 0, 62, 0
2, 5280, Note_on_c, 0, 64, 104
2, 5640, Note_on_c, 0, 64, 0
2, 5640, Note_on_c, 0, 62, 78
2, 5760, Note_on_c, 0, 62, 0
2, 5760, Note_on_c, 0, 61, 78
2, 6240, Note_on_c, 0, 61, 0
2, 6240, Note_on_c, 0, 69, 78
2, 6399, Note_on_c, 0, 69, 0
2, 6399, Note_on_c, 0, 68, 78
2, 6560, Note_on_c, 0, 68, 0
2, 6560, Note_on_c, 0, 66, 78
2, 6720, Note_on_c, 0, 66, 0
2, 6720, Note_on_c, 0, 64, 78
2, 6879, Note_on_c, 0, 64, 0
2, 6879, Note_on_c, 0, 63, 78
2, 7040, Note_on_c, 0, 63, 0
2, 7040, Note_on_c, 0, 66, 78
2, 7200, Note_on_c, 0, 66, 0
2, 7200, Note_on_c, 0, 64, 78
2, 7359, Note_on_c, 0, 64, 0
2, 7359, Note_on_c, 0, 61, 78
2, 7520, Note_on_c, 0, 61, 0
2, 7520, Note_on_c, 0, 59, 78
2, 7680, Note_on_c, 0, 59, 0
2, 7680, Note_on_c, 0, 57, 78
2, 8319, Note_on_c, 0, 57, 0
2, 8319, Note_on_c, 0, 59, 78
2, 8480, Note_on_c, 0, 59, 0
2, 8480, Note_on_c, 0, 61, 78
2, 8640, Note_on_c, 0, 61, 0
2, 8640, Note_on_c, 0, 62, 78
2, 8799, Note_on_c, 0, 62, 0
2, 8799, Note_on_c, 0, 61, 78
2, 8960, Note_on_c, 0, 61, 0
2, 8960, Note_on_c, 0, 59, 78
2, 9120, Note_on_c, 0, 59, 0
2, 9120, Note_on_c, 0, 61, 78
2, 9600, Note_on_c, 0, 61, 0
2, 9600, Note_on_c, 0, 61, 78
2, 10239, Note_on_c, 0, 61, 0
2, 10239, Note_on_c, 0, 62, 78
2, 10400, Note_on_c, 0, 62, 0
2, 10400, Note_on_c, 0, 64, 78
2, 10560, Note_on_c, 0, 64, 0
2, 10560, Note_on_c, 0, 66, 78
2, 10719, Note_on_c, 0, 66, 0
2, 10719, Note_on_c, 0, 64, 78
2, 10880, Note_on_c, 0, 64, 0
2, 10880, Note_on_c, 0, 62, 78
2, 11040, Note_on_c, 0, 62, 0
2, 11040, Note_on_c, 0, 64, 78
2, 11520, Note_on_c, 0, 64, 0
2, 11520, Note_on_c, 0, 64, 78
2, 12000, Note_on_c, 0, 64, 0
2, 12000, Note_on_c, 0, 69, 104
2, 12360, Note_on_c, 0, 69, 0
2, 12360, Note_on_c, 0, 68, 78
2, 12480, Note_on_c, 0, 68, 0
2, 12480, Note_on_c, 0, 66, 78
2, 12960, Note_on_c, 0, 66, 0
2, 12960, Note_on_c, 0, 68, 104
2, 13320, Note_on_c, 0, 68, 0
2, 13320, Note_on_c, 0, 66, 78
2, 13440, Note_on_c, 0, 66, 0
2, 13440, Note_on_c, 0, 64, 78
2, 13920, Note_on_c, 0, 64, 0
2, 13920, Note_on_c, 0, 69, 104
2, 14280, Note_on_c, 0, 69, 0
2, 14280, Note_on_c, 0, 68, 78
2, 14400, Note_on_c, 0, 68, 0
2, 14400, Note_on_c, 0, 66, 78
2, 14559, Note_on_c, 0, 66, 0
2, 14559, Note_on_c, 0, 68, 78
2, 14720, Note_on_c, 0, 68, 0
2, 14720, Note_on_c, 0, 66, 78
2, 14880, Note_on_c, 0, 66, 0
2, 14880, Note_on_c, 0, 64, 78
2, 15120, Note_on_c, 0, 64, 0
2, 15360, Note_on_c, 0, 57, 78
2, 15999, Note_on_c, 0, 57, 0
2, 15999, Note_on_c, 0, 59, 78
2, 16160, Note_on_c, 0, 59, 0
2, 16160, Note_on_c, 0, 61, 78
2, 16320, Note_on_c, 0, 61, 0
2, 16320, Note_on_c, 0, 62, 78
2, 16479, Note_on_c, 0, 62, 0
2, 16479, Note_on_c, 0, 61, 78
2, 16640, Note_on_c, 0, 61, 0
2, 16640, Note_on_c, 0, 59, 78
2, 16800, Note_on_c, 0, 59, 0
2, 16800, Note_on_c, 0, 61, 78
2, 17280, Note_on_c, 0, 61, 0
2, 17280, Note_on_c, 0, 61, 78
2, 17919, Note_on_c, 0, 61, 0
2, 17919, Note_on_c, 0, 62, 78
2, 18080, Note_on_c, 0, 62, 0
2, 18080, Note_on_c, 0, 64, 78
2, 18240, Note_on_c, 0, 64, 0
2, 18240, Note_on_c, 0, 66, 78
2, 18399, Note_on_c, 0, 66, 0
2, 18399, Note_on_c, 0, 64, 78
2, 18560, Note_on_c, 0, 64, 0
2, 18560, Note_on_c, 0, 62, 78
2, 18720, Note_on_c, 0, 62, 0
2, 18720, Note_on_c, 0, 64, 78
2, 19200, Note_on_c, 0, 64, 0
2, 19200, Note_on_c, 0, 64, 78
2, 19680, Note_on_c, 0, 64, 0
2, 19680, Note_on_c, 0, 66, 104
2, 20040, Note_on_c, 0, 66, 0
2, 20040, Note_on_c, 0, 64, 78
2, 20160, Note_on_c, 0, 64, 0
2, 20160, Note_on_c, 0, 62, 78
2, 20640, Note_on_c, 0, 62, 0
2, 20640, Note_on_c, 0, 64, 104
2, 21000, Note_on_c, 0, 64, 0
2, 21000, Note_on_c, 0, 62, 78
2, 21120, Note_on_c, 0, 62, 0
2, 21120, Note_on_c, 0, 61, 78
2, 21600, Note_on_c, 0, 61, 0
2, 21600, Note_on_c, 0, 69, 78
2, 21759, Note_on_c, 0, 69, 0
2, 21759, Note_on_c, 0, 68, 78
2, 21920, Note_on_c, 0, 68, 0
2, 21920, Note_on_c, 0, 66, 78
2, 22080, Note_on_c, 0, 66, 0
2, 22080, Note_on_c, 0, 64, 78
2, 22239, Note_on_c, 0, 64, 0
2, 22239, Note_on_c, 0, 63, 78
2, 22400, Note_on_c, 0, 63, 0
2, 22400, Note_on_c, 0, 66, 78
2, 22560, Note_on_c, 0, 66, 0
2, 23040, Note_on_c, 0, 75, 52
2, 23199, Note_on_c, 0, 75, 0
2, 23199, Note_on_c, 0, 76, 52
2, 23360, Note_on_c, 0, 76, 0
2, 23360, Note_on_c, 0, 78, 52
2, 23392, Note_on_c, 0, 78, 0
2, 23520, Note_on_c, 0, 80, 52
2, 23679, Note_on_c, 0, 80, 0
2, 23679, Note_on_c, 0, 78, 52
2, 23840, Note_on_c, 0, 78, 0
2, 23840, Note_on_c, 0, 76, 52
2, 23872, Note_on_c, 0, 76, 0
2, 24000, Note_on_c, 0, 75, 52
2, 24159, Note_on_c, 0, 75, 0
2, 24159, Note_on_c, 0, 76, 52
2, 24320, Note_on_c, 0, 76, 0
2, 24320, Note_on_c, 0, 78, 52
2, 24352, Note_on_c, 0, 78, 0
2, 24480, Note_on_c, 0, 76, 52
2, 24639, Note_on_c, 0, 76, 0
2, 24639, Note_on_c, 0, 75, 52
2, 24800, Note_on_c, 0, 75, 0
2, 24800, Note_on_c, 0, 73, 52
2, 24832, Note_on_c, 0, 73, 0
2, 24960, Note_on_c, 0, 69, 52
2, 24960, Note_on_c, 0, 75, 52
2, 24991, Note_on_c, 0, 75, 0
2, 24991, Note_on_c, 0, 69, 0
2, 25119, Note_on_c, 0, 76, 52
2, 25151, Note_on_c, 0, 76, 0
2, 25280, Note_on_c, 0, 78, 52
2, 25312, Note_on_c, 0, 78, 0
2, 25440, Note_on_c, 0, 68, 52
2, 25440, Note_on_c, 0, 73, 52
2, 25471, Note_on_c, 0, 73, 0
2, 25471, Note_on_c, 0, 68, 0
2, 25599, Note_on_c, 0, 75, 52
2, 25631, Note_on_c, 0, 75, 0
2, 25760, Note_on_c, 0, 76, 52
2, 25792, Note_on_c, 0, 76, 0
2, 25920, Note_on_c, 0, 68, 52
2, 25920, Note_on_c, 0, 72, 52
2, 25951, Note_on_c, 0, 72, 0
2, 25951, Note_on_c, 0, 68, 0
2, 26079, Note_on_c, 0, 73, 52
2, 26111, Note_on_c, 0, 73, 0
2, 26240, Note_on_c, 0, 75, 52
2, 26272, Note_on_c, 0, 75, 0
2, 26400, Note_on_c, 0, 68, 52
2, 26559, Note_on_c, 0, 68, 0
2, 26559, Note_on_c, 0, 72, 52
2, 26720, Note_on_c, 0, 72, 0
2, 26720, Note_on_c, 0, 73, 52
2, 26752, Note_on_c, 0, 73, 0
2, 26880, Note_on_c, 0, 76, 52
2, 26880, Note_on_c, 0, 83, 52
2, 27039, Note_on_c, 0, 83, 0
2, 27039, Note_on_c, 0, 76, 0
2, 27039, Note_on_c, 0, 85, 52
2, 27200, Note_on_c, 0, 85, 0
2, 27200, Note_on_c, 0, 86, 52
2, 27232, Note_on_c, 0, 86, 0
2, 27360, Note_on_c, 0, 76, 52
2, 27360, Note_on_c, 0, 88, 52
2, 27519, Note_on_c, 0, 88, 0
2, 27519, Note_on_c, 0, 76, 0
2, 27519, Note_on_c, 0, 86, 52
2, 27680, Note_on_c, 0, 86, 0
2, 27680, Note_on_c, 0, 85, 52
2, 27712, Note_on_c, 0, 85, 0
2, 27840, Note_on_c, 0, 76, 52
2, 27840, Note_on_c, 0, 83, 52
2, 27999, Note_on_c, 0, 83, 0
2, 27999, Note_on_c, 0, 76, 0
2, 27999, Note_on_c, 0, 85, 52
2, 28160, Note_on_c, 0, 85, 0
2, 28160, Note_on_c, 0, 86, 52
2, 28192, Note_on_c, 0, 86, 0
2, 28320, Note_on_c, 0, 76, 52
2, 28320, Note_on_c, 0, 85, 52
2, 28479, Note_on_c, 0, 85, 0
2, 28479, Note_on_c, 0, 76, 0
2, 28479, Note_on_c, 0, 83, 52
2, 28640, Note_on_c, 0, 83, 0
2, 28640, Note_on_c, 0, 81, 52
2, 28672, Note_on_c, 0, 81, 0
2, 28800, Note_on_c, 0, 74, 52
2, 28800, Note_on_c, 0, 80, 52
2, 28831, Note_on_c, 0, 80, 0
2, 28831, Note_on_c, 0, 74, 0
2, 28959, Note_on_c, 0, 81, 52
2, 28991, Note_on_c, 0, 81, 0
2, 29120, Note_on_c, 0, 83, 52
2, 29152, Note_on_c, 0, 83, 0
2, 29280, Note_on_c, 0, 73, 52
2, 29280, Note_on_c, 0, 78, 52
2, 29311, Note_on_c, 0, 78, 0
2, 29311, Note_on_c, 0, 73, 0
2, 29439, Note_on_c, 0, 80, 52
2, 29471, Note_on_c, 0, 80, 0
2, 29600, Note_on_c, 0, 81, 52
2, 29632, Note_on_c, 0, 81, 0
2, 29760, Note_on_c, 0, 71, 52
2, 29760, Note_on_c, 0, 73, 52
2, 29760, Note_on_c, 0, 77, 52
2, 29791, Note_on_c, 0, 77, 0
2, 29791, Note_on_c, 0, 73, 0
2, 29791, Note_on_c, 0, 71, 0
2, 29919, Note_on_c, 0, 78, 52
2, 29951, Note_on_c, 0, 78, 0
2, 30080, Note_on_c, 0, 80, 52
2, 30112, Note_on_c, 0, 80, 0
2, 30240, Note_on_c, 0, 69, 52
2, 30240, Note_on_c, 0, 73, 52
2, 30399, Note_on_c, 0, 73, 0
2, 30399, Note_on_c, 0, 69, 0
2, 30399, Note_on_c, 0, 77, 52
2, 30560, Note_on_c, 0, 77, 0
2, 30560, Note_on_c, 0, 78, 52
2, 30592, Note_on_c, 0, 78, 0
2, 30720, Note_on_c, 0, 64, 52
2, 30879, Note_on_c, 0, 64, 0
2, 30879, Note_on_c, 0, 66, 52
2, 31040, Note_on_c, 0, 66, 0
2, 31040, Note_on_c, 0, 67, 52
2, 31072, Note_on_c, 0, 67, 0
2, 31200, Note_on_c, 0, 69, 52
2, 31359, Note_on_c, 0, 69, 0
2, 31359, Note_on_c, 0, 67, 52
2, 31520, Note_on_c, 0, 67, 0
2, 31520, Note_on_c, 0, 66, 52
2, 31552, Note_on_c, 0, 66, 0
2, 31680, Note_on_c, 0, 64, 52
2, 31839, Note_on_c, 0, 64, 0
2, 31839, Note_on_c, 0, 66, 52
2, 32000, Note_on_c, 0, 66, 0
2, 32000, Note_on_c, 0, 67, 52
2, 32032, Note_on_c, 0, 67, 0
2, 32160, Note_on_c, 0, 66, 52
2, 32319, Note_on_c, 0, 66, 0
2, 32319, Note_on_c, 0, 64, 52
2, 32480, Note_on_c, 0, 64, 0
2, 32480, Note_on_c, 0, 62, 52
2, 32512, Note_on_c, 0, 62, 0
2, 32640, Note_on_c, 0, 64, 52
2, 32671, Note_on_c, 0, 64, 0
2, 32799, Note_on_c, 0, 66, 52
2, 32831, Note_on_c, 0, 66, 0
2, 32960, Note_on_c, 0, 67, 52
2, 32992, Note_on_c, 0, 67, 0
2, 33120, Note_on_c, 0, 62, 52
2, 33151, Note_on_c, 0, 62, 0
2, 33279, Note_on_c, 0, 64, 52
2, 33311, Note_on_c, 0, 64, 0
2, 33440, Note_on_c, 0, 66, 52
2, 33472, Note_on_c, 0, 66, 0
2, 33600, Note_on_c, 0, 61, 52
2, 33631, Note_on_c, 0, 61, 0
2, 33759, Note_on_c, 0, 62, 52
2, 33791, Note_on_c, 0, 62, 0
2, 33920, Note_on_c, 0, 64, 52
2, 33952, Note_on_c, 0, 64, 0
2, 34080, Note_on_c, 0, 57, 52
2, 34239, Note_on_c, 0, 57, 0
2, 34239, Note_on_c, 0, 59, 52
2, 34400, Note_on_c, 0, 59, 0
2, 34400, Note_on_c, 0, 61, 52
2, 34432, Note_on_c, 0, 61, 0
2, 34560, Note_on_c, 0, 62, 52
2, 34591, Note_on_c, 0, 62, 0
2, 34719, Note_on_c, 0, 64, 52
2, 34751, Note_on_c, 0, 64, 0
2, 34880, Note_on_c, 0, 66, 52
2, 34912, Note_on_c, 0, 66, 0
2, 35040, Note_on_c, 0, 57, 52
2, 35071, Note_on_c, 0, 57, 0
2, 35199, Note_on_c, 0, 59, 52
2, 35231, Note_on_c, 0, 59, 0
2, 35360, Note_on_c, 0, 61, 52
2, 35392, Note_on_c, 0, 61, 0
2, 35520, Note_on_c, 0, 62, 52
2, 35551, Note_on_c, 0, 62, 0
2, 35679, Note_on_c, 0, 64, 52
2, 35711, Note_on_c, 0, 64, 0
2, 35840, Note_on_c, 0, 66, 52
2, 35872, Note_on_c, 0, 66, 0
2, 36000, Note_on_c, 0, 59, 52
2, 36031, Note_on_c, 0, 59, 0
2, 36159, Note_on_c, 0, 61, 52
2, 36191, Note_on_c, 0, 61, 0
2, 36320, Note_on_c, 0, 63, 52
2, 36352, Note_on_c, 0, 63, 0
2, 36480, Note_on_c, 0, 59, 52
2, 36480, Note_on_c, 0, 71, 52
2, 37440, Note_on_c, 0, 71, 0
2, 37440, Note_on_c, 0, 59, 0
2, 37440, Note_on_c, 0, 67, 52
2, 37920, Note_on_c, 0, 67, 0
2, 37920, Note_on_c, 0, 66, 52
2, 38280, Note_on_c, 0, 66, 0
2, 38280, Note_on_c, 0, 67, 52
2, 38400, Note_on_c, 0, 67, 0
2, 38400, Note_on_c, 0, 64, 52
2, 38640, Note_on_c, 0, 64, 0
2, 39840, Note_on_c, 0, 61, 52
2, 40320, Note_on_c, 0, 61, 0
2, 40320, Note_on_c, 0, 61, 65
2, 40320, Note_on_c, 0, 73, 65
2, 41280, Note_on_c, 0, 73, 0
2, 41280, Note_on_c, 0, 61, 0
2, 41280, Note_on_c, 0, 69, 65
2, 41760, Note_on_c, 0, 69, 0
2, 41760, Note_on_c, 0, 68, 65
2, 42120, Note_on_c, 0, 68, 0
2, 42120, Note_on_c, 0, 69, 65
2, 42240, Note_on_c, 0, 69, 0
2, 42240, Note_on_c, 0, 66, 65
2, 42480, Note_on_c, 0, 66, 0
2, 43680, Note_on_c, 0, 62, 65
2, 44160, Note_on_c, 0, 62, 0
2, 44160, Note_on_c, 0, 74, 65
2, 44160, Note_on_c, 0, 86, 65
2, 44640, Note_on_c, 0, 86, 0
2, 44640, Note_on_c, 0, 74, 0
2, 44640, Note_on_c, 0, 71, 65
2, 44640, Note_on_c, 0, 83, 65
2, 45000, Note_on_c, 0, 83, 0
2, 45000, Note_on_c, 0, 71, 0
2, 45000, Note_on_c, 0, 67, 65
2, 45000, Note_on_c, 0, 79, 65
2, 45120, Note_on_c, 0, 79, 0
2, 45120, Note_on_c, 0, 67, 0
2, 45120, Note_on_c, 0, 74, 65
2, 45360, Note_on_c, 0, 74, 0
2, 46080, Note_on_c, 0, 76, 65
2, 46080, Note_on_c, 0, 88, 65
2, 46560, Note_on_c, 0, 88, 0
2, 46560, Note_on_c, 0, 76, 0
2, 46560, Note_on_c, 0, 73, 65
2, 46560, Note_on_c, 0, 85, 65
2, 46920, Note_on_c, 0, 85, 0
2, 46920, Note_on_c, 0, 73, 0
2, 46920, Note_on_c, 0, 69, 65
2, 46920, Note_on_c, 0, 81, 65
2, 47040, Note_on_c, 0, 81, 0
2, 47040, Note_on_c, 0, 69, 0
2, 47040, Note_on_c, 0, 64, 65
2, 47040, Note_on_c, 0, 76, 65
2, 47280, Note_on_c, 0, 76, 0
2, 47280, Note_on_c, 0, 64, 0
2, 47520, Note_on_c, 0, 66, 65
2, 48000, Note_on_c, 0, 66, 0
2, 48000, Note_on_c, 0, 78, 78
2, 48000, Note_on_c, 0, 90, 78
2, 48480, Note_on_c, 0, 90, 0
2, 48480, Note_on_c, 0, 78, 0
2, 48480, Note_on_c, 0, 74, 78
2, 48480, Note_on_c, 0, 86, 78
2, 48840, Note_on_c, 0, 86, 0
2, 48840, Note_on_c, 0, 74, 0
2, 48840, Note_on_c, 0, 71, 78
2, 48840, Note_on_c, 0, 83, 78
2, 48960, Note_on_c, 0, 83, 0
2, 48960, Note_on_c, 0, 71, 0
2, 48960, Note_on_c, 0, 67, 78
2, 48960, Note_on_c, 0, 79, 78
2, 49200, Note_on_c, 0, 79, 0
2, 49200, Note_on_c, 0, 67, 0
2, 49440, Note_on_c, 0, 69, 78
2, 49920, Note_on_c, 0, 69, 0
2, 49920, Note_on_c, 0, 69, 78
2, 49920, Note_on_c, 0, 74, 78
2, 50400, Note_on_c, 0, 74, 0
2, 50400, Note_on_c, 0, 69, 0
2, 50400, Note_on_c, 0, 71, 78
2, 50400, Note_on_c, 0, 75, 78
2, 50880, Note_on_c, 0, 75, 0
2, 50880, Note_on_c, 0, 71, 0
2, 50880, Note_on_c, 0, 71, 78
2, 50880, Note_on_c, 0, 76, 78
2, 51360, Note_on_c, 0, 76, 0
2, 51360, Note_on_c, 0, 71, 0
2, 51360, Note_on_c, 0, 68, 78
2, 51360, Note_on_c, 0, 73, 78
2, 51360, Note_on_c, 0, 77, 78
2, 51840, Note_on_c, 0, 77, 0
2, 51840, Note_on_c, 0, 73, 0
2, 51840, Note_on_c, 0, 68, 0
2, 51840, Note_on_c, 0, 69, 78
2, 51840, Note_on_c, 0, 73, 78
2, 51840, Note_on_c, 0, 78, 78
2, 52320, Note_on_c, 0, 78, 0
2, 52320, Note_on_c, 0, 73, 0
2, 52320, Note_on_c, 0, 69, 0
2, 52320, Note_on_c, 0, 68, 78
2, 52320, Note_on_c, 0, 73, 78
2, 52320, Note_on_c, 0, 77, 78
2, 52800, Note_on_c, 0, 77, 0
2, 52800, Note_on_c, 0, 73, 0
2, 52800, Note_on_c, 0, 68, 0
2, 52800, Note_on_c, 0, 69, 78
2, 52800, Note_on_c, 0, 73, 78
2, 52800, Note_on_c, 0, 78, 78
2, 53280, Note_on_c, 0, 78, 0
2, 53280, Note_on_c, 0, 73, 0
2, 53280, Note_on_c, 0, 69, 0
2, 53280, Note_on_c, 0, 68, 78
2, 53280, Note_on_c, 0, 73, 78
2, 53280, Note_on_c, 0, 77, 78
2, 53760, Note_on_c, 0, 77, 0
2, 53760, Note_on_c, 0, 73, 0
2, 53760, Note_on_c, 0, 68, 0
2, 53760, Note_on_c, 0, 73, 78
2, 53760, Note_on_c, 0, 78, 78
2, 54720, Note_on_c, 0, 78, 0
2, 54720, Note_on_c, 0, 73, 0
2, 54720, Note_on_c, 0, 76, 78
2, 55680, Note_on_c, 0, 76, 0
2, 55680, Note_on_c, 0, 76, 91
2, 55680, Note_on_c, 0, 81, 91
2, 55680, Note_on_c, 0, 85, 91
2, 55680, Note_on_c, 0, 88, 91
2, 55839, Note_on_c, 0, 88, 0
2, 55839, Note_on_c, 0, 76, 0
2, 55839, Note_on_c, 0, 81, 0
2, 55839, Note_on_c, 0, 85, 0
2, 55839, Note_on_c, 0, 61, 91
2, 55839, Note_on_c, 0, 69, 91
2, 56000, Note_on_c, 0, 69, 0
2, 56000, Note_on_c, 0, 61, 0
2, 56000, Note_on_c, 0, 64, 91
2, 56000, Note_on_c, 0, 71, 91
2, 56160, Note_on_c, 0, 71, 0
2, 56160, Note_on_c, 0, 64, 0
2, 56160, Note_on_c, 0, 69, 91
2, 56160, Note_on_c, 0, 73, 91
2, 56480, Note_on_c, 0, 73, 0
2, 56480, Note_on_c, 0, 69, 0
2, 56480, Note_on_c, 0, 71, 91
2, 56480, Note_on_c, 0, 74, 91
2, 56640, Note_on_c, 0, 74, 0
2, 56640, Note_on_c, 0, 71, 0
2, 56640, Note_on_c, 0, 73, 91
2, 56640, Note_on_c, 0, 76, 91
2, 56960, Note_on_c, 0, 76, 0
2, 56960, Note_on_c, 0, 73, 0
2, 56960, Note_on_c, 0, 69, 91
2, 56960, Note_on_c, 0, 73, 91
2, 57120, Note_on_c, 0, 73, 0
2, 57120, Note_on_c, 0, 69, 0
2, 57120, Note_on_c, 0, 73, 91
2, 57120, Note_on_c, 0, 76, 91
2, 58080, Note_on_c, 0, 76, 0
2, 58080, Note_on_c, 0, 73, 0
2, 58239, Note_on_c, 0, 64, 91
2, 58239, Note_on_c, 0, 76, 91
2, 58400, Note_on_c, 0, 76, 0
2, 58400, Note_on_c, 0, 64, 0
2, 58400, Note_on_c, 0, 66, 91
2, 58400, Note_on_c, 0, 78, 91
2, 58560, Note_on_c, 0, 78, 0
2, 58560, Note_on_c, 0, 66, 0
2, 58560, Note_on_c, 0, 67, 91
2, 58560, Note_on_c, 0, 73, 91
2, 58560, Note_on_c, 0, 76, 91
2, 58560, Note_on_c, 0, 79, 91
2, 58719, Note_on_c, 0, 79, 0
2, 58719, Note_on_c, 0, 67, 0
2, 58719, Note_on_c, 0, 73, 0
2, 58719, Note_on_c, 0, 76, 0
2, 58719, Note_on_c, 0, 66, 91
2, 58719, Note_on_c, 0, 78, 91
2, 58880, Note_on_c, 0, 78, 0
2, 58880, Note_on_c, 0, 66, 0
2, 58880, Note_on_c, 0, 67, 91
2, 58880, Note_on_c, 0, 79, 91
2, 59040, Note_on_c, 0, 79, 0
2, 59040, Note_on_c, 0, 67, 0
2, 59040, Note_on_c, 0, 68, 91
2, 59040, Note_on_c, 0, 74, 91
2, 59040, Note_on_c, 0, 76, 91
2, 59040, Note_on_c, 0, 80, 91
2, 59199, Note_on_c, 0, 80, 0
2, 59199, Note_on_c, 0, 68, 0
2, 59199, Note_on_c, 0, 74, 0
2, 59199, Note_on_c, 0, 76, 0
2, 59199, Note_on_c, 0, 67, 91
2, 59199, Note_on_c, 0, 79, 91
2, 59360, Note_on_c, 0, 79, 0
2, 59360, Note_on_c, 0, 67, 0
2, 59360, Note_on_c, 0, 68, 91
2, 59360, Note_on_c, 0, 80, 91
2, 59520, Note_on_c, 0, 80, 0
2, 59520, Note_on_c, 0, 68, 0
2, 59520, Note_on_c, 0, 69, 91
2, 59520, Note_on_c, 0, 73, 91
2, 59520, Note_on_c, 0, 76, 91
2, 59520, Note_on_c, 0, 81, 91
2, 59679, Note_on_c, 0, 81, 0
2, 59679, Note_on_c, 0, 69, 0
2, 59679, Note_on_c, 0, 73, 0
2, 59679, Note_on_c, 0, 76, 0
2, 59679, Note_on_c, 0, 61, 91
2, 59679, Note_on_c, 0, 69, 91
2, 59840, Note_on_c, 0, 69, 0
2, 59840, Note_on_c, 0, 61, 0
2, 59840, Note_on_c, 0, 64, 91
2, 59840, Note_on_c, 0, 71, 91
2, 60000, Note_on_c, 0, 71, 0
2, 60000, Note_on_c, 0, 64, 0
2, 60000, Note_on_c, 0, 69, 91
2, 60000, Note_on_c, 0, 73, 91
2, 60320, Note_on_c, 0, 73, 0
2, 60320, Note_on_c, 0, 69, 0
2, 60320, Note_on_c, 0, 71, 91
2, 60320, Note_on_c, 0, 74, 91
2, 60480, Note_on_c, 0, 74, 0
2, 60480, Note_on_c, 0, 71, 0
2, 60480, Note_on_c, 0, 73, 91
2, 60480, Note_on_c, 0, 76, 91
2, 60800, Note_on_c, 0, 76, 0
2, 60800, Note_on_c, 0, 73, 0
2, 60800, Note_on_c, 0, 69, 91
2, 60800, Note_on_c, 0, 73, 91
2, 60960, Note_on_c, 0, 73, 0
2, 60960, Note_on_c, 0, 69, 0
2, 60960, Note_on_c, 0, 73, 91
2, 60960, Note_on_c, 0, 76, 91
2, 61920, Note_on_c, 0, 76, 0
2, 61920, Note_on_c, 0, 73, 0
2, 62079, Note_on_c, 0, 64, 91
2, 62079, Note_on_c, 0, 76, 91
2, 62240, Note_on_c, 0, 76, 0
2, 62240, Note_on_c, 0, 64, 0
2, 62240, Note_on_c, 0, 66, 91
2, 62240, Note_on_c, 0, 78, 91
2, 62400, Note_on_c, 0, 78, 0
2, 62400, Note_on_c, 0, 66, 0
2, 62400, Note_on_c, 0, 67, 91
2, 62400, Note_on_c, 0, 73, 91
2, 62400, Note_on_c, 0, 76, 91
2, 62400, Note_on_c, 0, 79, 91
2, 62559, Note_on_c, 0, 79, 0
2, 62559, Note_on_c, 0, 67, 0
2, 62559, Note_on_c, 0, 73, 0
2, 62559, Note_on_c, 0, 76, 0
2, 62559, Note_on_c, 0, 66, 91
2, 62559, Note_on_c, 0, 78, 91
2, 62720, Note_on_c, 0, 78, 0
2, 62720, Note_on_c, 0, 66, 0
2, 62720, Note_on_c, 0, 67, 91
2, 62720, Note_on_c, 0, 79, 91
2, 62880, Note_on_c, 0, 79, 0
2, 62880, Note_on_c, 0, 67, 0
2, 62880, Note_on_c, 0, 68, 91
2, 62880, Note_on_c, 0, 74, 91
2, 62880, Note_on_c, 0, 76, 91
2, 62880, Note_on_c, 0, 80, 91
2, 63039, Note_on_c, 0, 80, 0
2, 63039, Note_on_c, 0, 68, 0
2, 63039, Note_on_c, 0, 74, 0
2, 63039, Note_on_c, 0, 76, 0
2, 63039, Note_on_c, 0, 67, 91
2, 63039, Note_on_c, 0, 79, 91
2, 63200, Note_on_c, 0, 79, 0
2, 63200, Note_on_c, 0, 67, 0
2, 63200, Note_on_c, 0, 68, 91
2, 63200, Note_on_c, 0, 80, 91
2, 63360, Note_on_c, 0, 80, 0
2, 63360, Note_on_c, 0, 68, 0
2, 63360, Note_on_c, 0, 69, 91
2, 63360, Note_on_c, 0, 73, 91
2, 63360, Note_on_c, 0, 76, 91
2, 63360, Note_on_c, 0, 81, 91
2, 63519, Note_on_c, 0, 81, 0
2, 63519, Note_on_c, 0, 69, 0
2, 63519, Note_on_c, 0, 73, 0
2, 63519, Note_on_c, 0, 76, 0
2, 63519, Note_on_c, 0, 61, 91
2, 63519, Note_on_c, 0, 69, 91
2, 63680, Note_on_c, 0, 69, 0
2, 63680, Note_on_c, 0, 61, 0
2, 63680, Note_on_c, 0, 64, 91
2, 63680, Note_on_c, 0, 71, 91
2, 63840, Note_on_c, 0, 71, 0
2, 63840, Note_on_c, 0, 64, 0
2, 63840, Note_on_c, 0, 69, 91
2, 63840, Note_on_c, 0, 73, 91
2, 64160, Note_on_c, 0, 73, 0
2, 64160, Note_on_c, 0, 69, 0
2, 64160, Note_on_c, 0, 71, 91
2, 64160, Note_on_c, 0, 74, 91
2, 64320, Note_on_c, 0, 74, 0
2, 64320, Note_on_c, 0, 71, 0
2, 64320, Note_on_c, 0, 73, 91
2, 64320, Note_on_c, 0, 76, 91
2, 64479, Note_on_c, 0, 76, 0
2, 64479, Note_on_c, 0, 73, 0
2, 64479, Note_on_c, 0, 69, 91
2, 64479, Note_on_c, 0, 73, 91
2, 64640, Note_on_c, 0, 73, 0
2, 64640, Note_on_c, 0, 69, 0
2, 64640, Note_on_c, 0, 69, 91
2, 64640, Note_on_c, 0, 73, 91
2, 64800, Note_on_c, 0, 73, 0
2, 64800, Note_on_c, 0, 69, 0
2, 64800, Note_on_c, 0, 73, 91
2, 64800, Note_on_c, 0, 76, 91
2, 64959, Note_on_c, 0, 76, 0
2, 64959, Note_on_c, 0, 73, 0
2, 64959, Note_on_c, 0, 69, 91
2, 64959, Note_on_c, 0, 73, 91
2, 65120, Note_on_c, 0, 73, 0
2, 65120, Note_on_c, 0, 69, 0
2, 65120, Note_on_c, 0, 69, 91
2, 65120, Note_on_c, 0, 73, 91
2, 65280, Note_on_c, 0, 73, 0
2, 65280, Note_on_c, 0, 69, 0
2, 65280, Note_on_c, 0, 73, 91
2, 65280, Note_on_c, 0, 76, 91
2, 65439, Note_on_c, 0, 76, 0
2, 65439, Note_on_c, 0, 73, 0
2, 65439, Note_on_c, 0, 69, 91
2, 65439, Note_on_c, 0, 73, 91
2, 65600, Note_on_c, 0, 73, 0
2, 65600, Note_on_c, 0, 69, 0
2, 65600, Note_on_c, 0, 69, 91
2, 65600, Note_on_c, 0, 73, 91
2, 65760, Note_on_c, 0, 73, 0
2, 65760, Note_on_c, 0, 69, 0
2, 65760, Note_on_c, 0, 73, 91
2, 65760, Note_on_c, 0, 76, 91
2, 65919, Note_on_c, 0, 76, 0
2, 65919, Note_on_c, 0, 73, 0
2, 65919, Note_on_c, 0, 69, 91
2, 65919, Note_on_c, 0, 73, 91
2, 66080, Note_on_c, 0, 73, 0
2, 66080, Note_on_c, 0, 69, 0
2, 66080, Note_on_c, 0, 69, 91
2, 66080, Note_on_c, 0, 73, 91
2, 66240, Note_on_c, 0, 73, 0
2, 66240, Note_on_c, 0, 69, 0
2, 66240, Note_on_c, 0, 73, 91
2, 66240, Note_on_c, 0, 76, 91
2, 66399, Note_on_c, 0, 76, 0
2, 66399, Note_on_c, 0, 73, 0
2, 66399, Note_on_c, 0, 69, 91
2, 66399, Note_on_c, 0, 73, 91
2, 66560, Note_on_c, 0, 73, 0
2, 66560, Note_on_c, 0, 69, 0
2, 66560, Note_on_c, 0, 69, 91
2, 66560, Note_on_c, 0, 73, 91
2, 66720, Note_on_c, 0, 73, 0
2, 66720, Note_on_c, 0, 69, 0
2, 66720, Note_on_c, 0, 73, 91
2, 66720, Note_on_c, 0, 76, 91
2, 66879, Note_on_c, 0, 76, 0
2, 66879, Note_on_c, 0, 73, 0
2, 66879, Note_on_c, 0, 69, 91
2, 66879, Note_on_c, 0, 73, 91
2, 67040, Note_on_c, 0, 73, 0
2, 67040, Note_on_c, 0, 69, 0
2, 67040, Note_on_c, 0, 69, 91
2, 67040, Note_on_c, 0, 73, 91
2, 67200, Note_on_c, 0, 73, 0
2, 67200, Note_on_c, 0, 69, 0
2, 67200, Note_on_c, 0, 57, 78
2, 67839, Note_on_c, 0, 57, 0
2, 67839, Note_on_c, 0, 59, 78
2, 68000, Note_on_c, 0, 59, 0
2, 68000, Note_on_c, 0, 61, 78
2, 68160, Note_on_c, 0, 61, 0
2, 68160, Note_on_c, 0, 62, 78
2, 68319, Note_on_c, 0, 62, 0
2, 68319, Note_on_c, 0, 61, 78
2, 68480, Note_on_c, 0, 61, 0
2, 68480, Note_on_c, 0, 59, 78
2, 68640, Note_on_c, 0, 59, 0
2, 68640, Note_on_c, 0, 61, 78
2, 69120, Note_on_c, 0, 61, 0
2, 69120, Note_on_c, 0, 61, 78
2, 69759, Note_on_c, 0, 61, 0
2, 69759, Note_on_c, 0, 62, 78
2, 69920, Note_on_c, 0, 62, 0
2, 69920, Note_on_c, 0, 64, 78
2, 70080, Note_on_c, 0, 64, 0
2, 70080, Note_on_c, 0, 66, 78
2, 70239, Note_on_c, 0, 66, 0
2, 70239, Note_on_c, 0, 64, 78
2, 70400, Note_on_c, 0, 64, 0
2, 70400, Note_on_c, 0, 62, 78
2, 70560, Note_on_c, 0, 62, 0
2, 70560, Note_on_c, 0, 64, 78
2, 71040, Note_on_c, 0, 64, 0
2, 71040, Note_on_c, 0, 64, 78
2, 71520, Note_on_c, 0, 64, 0
2, 71520, Note_on_c, 0, 66, 104
2, 71880, Note_on_c, 0, 66, 0
2, 71880, Note_on_c, 0, 64, 78
2, 72000, Note_on_c, 0, 64, 0
2, 72000, Note_on_c, 0, 62, 78
2, 72480, Note_on_c, 0, 62, 0
2, 72480, Note_on_c, 0, 64, 104
2, 72840, Note_on_c, 0, 64, 0
2, 72840, Note_on_c, 0, 62, 78
2, 72960, Note_on_c, 0, 62, 0
2, 72960, Note_on_c, 0, 61, 78
2, 73440, Note_on_c, 0, 61, 0
2, 73440, Note_on_c, 0, 69, 78
2, 73599, Note_on_c, 0, 69, 0
2, 73599, Note_on_c, 0, 68, 78
2, 73760, Note_on_c, 0, 68, 0
2, 73760, Note_on_c, 0, 66, 78
2, 73920, Note_on_c, 0, 66, 0
2, 73920, Note_on_c, 0, 64, 78
2, 74079, Note_on_c, 0, 64, 0
2, 74079, Note_on_c, 0, 63, 78
2, 74240, Note_on_c, 0, 63, 0
2, 74240, Note_on_c, 0, 66, 78
2, 74400, Note_on_c, 0, 66, 0
2, 74400, Note_on_c, 0, 64, 78
2, 74559, Note_on_c, 0, 64, 0
2, 74559, Note_on_c, 0, 61, 78
2, 74720, Note_on_c, 0, 61, 0
2, 74720, Note_on_c, 0, 59, 78
2, 74880, Note_on_c, 0, 59, 0
2, 74880, Note_on_c, 0, 57, 78
2, 75519, Note_on_c, 0, 57, 0
2, 75519, Note_on_c, 0, 59, 78
2, 75680, Note_on_c, 0, 59, 0
2, 75680, Note_on_c, 0, 61, 78
2, 75840, Note_on_c, 0, 61, 0
2, 75840, Note_on_c, 0, 62, 78
2, 75999, Note_on_c, 0, 62, 0
2, 75999, Note_on_c, 0, 61, 78
2, 76160, Note_on_c, 0, 61, 0
2, 76160, Note_on_c, 0, 59, 78
2, 76320, Note_on_c, 0, 59, 0
2, 76320, Note_on_c, 0, 61, 78
2, 76800, Note_on_c, 0, 61, 0
2, 76800, Note_on_c, 0, 61, 78
2, 77439, Note_on_c, 0, 61, 0
2, 77439, Note_on_c, 0, 62, 78
2, 77600, Note_on_c, 0, 62, 0
2, 77600, Note_on_c, 0, 64, 78
2, 77760, Note_on_c, 0, 64, 0
2, 77760, Note_on_c, 0, 66, 78
2, 77919, Note_on_c, 0, 66, 0
2, 77919, Note_on_c, 0, 64, 78
2, 78080, Note_on_c, 0, 64, 0
2, 78080, Note_on_c, 0, 62, 78
2, 78240, Note_on_c, 0, 62, 0
2, 78240, Note_on_c, 0, 64, 78
2, 78720, Note_on_c, 0, 64, 0
2, 78720, Note_on_c, 0, 64, 78
2, 79200, Note_on_c, 0, 64, 0
2, 79200, Note_on_c, 0, 69, 104
2, 79560, Note_on_c, 0, 69, 0
2, 79560, Note_on_c, 0, 68, 78
2, 79680, Note_on_c, 0, 68, 0
2, 79680, Note_on_c, 0, 66, 78
2, 80160, Note_on_c, 0, 66, 0
2, 80160, Note_on_c, 0, 68, 104
2, 80520, Note_on_c, 0, 68, 0
2, 80520, Note_on_c, 0, 66, 78
2, 80640, Note_on_c, 0, 66, 0
2, 80640, Note_on_c, 0, 64, 78
2, 81120, Note_on_c, 0, 64, 0
2, 81120, Note_on_c, 0, 69, 104
2, 81480, Note_on_c, 0, 69, 0
2, 81480, Note_on_c, 0, 68, 78
2, 81600, Note_on_c, 0, 68, 0
2, 81600, Note_on_c, 0, 66, 78
2, 81759, Note_on_c, 0, 66, 0
2, 81759, Note_on_c, 0, 68, 78
2, 81920, Note_on_c, 0, 68, 0
2, 81920, Note_on_c, 0, 66, 78
2, 82080, Note_on_c, 0, 66, 0
2, 82080, Note_on_c, 0, 64, 78
2, 82320, Note_on_c, 0, 64, 0
2, 82560, Note_on_c, 0, 64, 52
2, 82560, Note_on_c, 0, 76, 52
2, 83040, Note_on_c, 0, 76, 0
2, 83040, Note_on_c, 0, 64, 0
2, 83040, Note_on_c, 0, 65, 52
2, 83040, Note_on_c, 0, 77, 52
2, 83520, Note_on_c, 0, 77, 0
2, 83520, Note_on_c, 0, 65, 0
2, 83520, Note_on_c, 0, 67, 52
2, 83520, Note_on_c, 0, 71, 52
2, 83520, Note_on_c, 0, 74, 52
2, 83520, Note_on_c, 0, 79, 52
2, 84480, Note_on_c, 0, 79, 0
2, 84480, Note_on_c, 0, 67, 0
2, 84480, Note_on_c, 0, 71, 0
2, 84480, Note_on_c, 0, 74, 0
2, 84480, Note_on_c, 0, 62, 52
2, 84480, Note_on_c, 0, 74, 52
2, 84960, Note_on_c, 0, 74, 0
2, 84960, Note_on_c, 0, 62, 0
2, 84960, Note_on_c, 0, 64, 52
2, 84960, Note_on_c, 0, 76, 52
2, 85440, Note_on_c, 0, 76, 0
2, 85440, Note_on_c, 0, 64, 0
2, 85440, Note_on_c, 0, 60, 52
2, 85440, Note_on_c, 0, 64, 52
2, 85440, Note_on_c, 0, 72, 52
2, 86400, Note_on_c, 0, 72, 0
2, 86400, Note_on_c, 0, 64, 0
2, 86400, Note_on_c, 0, 60, 0
2, 86400, Control_c, 0, 64, 127
2, 86400, Note_on_c, 0, 67, 52
2, 86400, Note_on_c, 0, 79, 52
2, 86880, Note_on_c, 0, 79, 0
2, 86880, Note_on_c, 0, 67, 0
2, 86880, Note_on_c, 0, 72, 52
2, 86880, Note_on_c, 0, 84, 52
2, 87360, Note_on_c, 0, 84, 0
2, 87360, Note_on_c, 0, 72, 0
2, 87360, Note_on_c, 0, 71, 52
2, 87360, Note_on_c, 0, 72, 52
2, 87360, Note_on_c, 0, 83, 52
2, 87840, Note_on_c, 0, 83, 0
2, 87840, Note_on_c, 0, 71, 0
2, 87840, Control_c, 0, 64, 0
2, 87840, Note_on_c, 0, 69, 52
2, 87840, Note_on_c, 0, 81, 52
2, 88320, Note_on_c, 0, 81, 0
2, 88320, Note_on_c, 0, 69, 0
2, 88320, Note_on_c, 0, 72, 0
2, 88320, Note_on_c, 0, 68, 78
2, 88320, Note_on_c, 0, 80, 78
2, 88800, Note_on_c, 0, 80, 0
2, 88800, Note_on_c, 0, 68, 0
2, 88800, Note_on_c, 0, 69, 52
2, 88800, Note_on_c, 0, 81, 52
2, 89280, Note_on_c, 0, 81, 0
2, 89280, Note_on_c, 0, 69, 0
2, 89280, Note_on_c, 0, 62, 52
2, 89280, Note_on_c, 0, 71, 52
2, 89280, Note_on_c, 0, 74, 52
2, 89760, Note_on_c, 0, 74, 0
2, 89760, Note_on_c, 0, 62, 0
2, 89760, Note_on_c, 0, 67, 52
2, 89760, Note_on_c, 0, 79, 52
2, 90240, Note_on_c, 0, 79, 0
2, 90240, Note_on_c, 0, 67, 0
2, 90240, Note_on_c, 0, 71, 0
2, 90240, Note_on_c, 0, 64, 52
2, 90240, Note_on_c, 0, 76, 52
2, 90720, Note_on_c, 0, 76, 0
2, 90720, Note_on_c, 0, 64, 0
2, 90720, Note_on_c, 0, 65, 52
2, 90720, Note_on_c, 0, 77, 52
2, 91200, Note_on_c, 0, 77, 0
2, 91200, Note_on_c, 0, 65, 0
2, 91200, Note_on_c, 0, 67, 52
2, 91200, Note_on_c, 0, 71, 52
2, 91200, Note_on_c, 0, 74, 52
2, 91200, Note_on_c, 0, 79, 52
2, 92160, Note_on_c, 0, 79, 0
2, 92160, Note_on_c, 0, 67, 0
2, 92160, Note_on_c, 0, 71, 0
2, 92160, Note_on_c, 0, 74, 0
2, 92160, Note_on_c, 0, 62, 52
2, 92160, Note_on_c, 0, 74, 52
2, 92640, Note_on_c, 0, 74, 0
2, 92640, Note_on_c, 0, 62, 0
2, 92640, Note_on_c, 0, 64, 52
2, 92640, Note_on_c, 0, 76, 52
2, 93120, Note_on_c, 0, 76, 0
2, 93120, Note_on_c, 0, 64, 0
2, 93120, Note_on_c, 0, 60, 52
2, 93120, Note_on_c, 0, 64, 52
2, 93120, Note_on_c, 0, 72, 52
2, 94080, Note_on_c, 0, 72, 0
2, 94080, Note_on_c, 0, 64, 0
2, 94080, Note_on_c, 0, 60, 0
2, 94080, Control_c, 0, 64, 127
2, 94080, Note_on_c, 0, 67, 52
2, 94080, Note_on_c, 0, 79, 52
2, 94560, Note_on_c, 0, 79, 0
2, 94560, Note_on_c, 0, 67, 0
2, 94560, Note_on_c, 0, 72, 52
2, 94560, Note_on_c, 0, 84, 52
2, 95040, Note_on_c, 0, 84, 0
2, 95040, Note_on_c, 0, 72, 0
2, 95040, Note_on_c, 0, 71, 52
2, 95040, Note_on_c, 0, 72, 52
2, 95040, Note_on_c, 0, 83, 52
2, 95520, Note_on_c, 0, 83, 0
2, 95520, Note_on_c, 0, 71, 0
2, 95520, Control_c, 0, 64, 0
2, 95520, Note_on_c, 0, 69, 52
2, 95520, Note_on_c, 0, 81, 52
2, 96000, Note_on_c, 0, 81, 0
2, 96000, Note_on_c, 0, 69, 0
2, 96000, Note_on_c, 0, 72, 0
2, 96000, Note_on_c, 0, 64, 52
2, 96000, Note_on_c, 0, 72, 52
2, 96000, Note_on_c, 0, 76, 52
2, 96480, Note_on_c, 0, 76, 0
2, 96480, Note_on_c, 0, 64, 0
2, 96480, Note_on_c, 0, 66, 52
2, 96480, Note_on_c, 0, 78, 52
2, 96960, Note_on_c, 0, 78, 0
2, 96960, Note_on_c, 0, 66, 0
2, 96960, Note_on_c, 0, 72, 0
2, 96960, Note_on_c, 0, 67, 52
2, 96960, Note_on_c, 0, 71, 52
2, 96960, Note_on_c, 0, 74, 52
2, 96960, Note_on_c, 0, 79, 52
2, 97920, Note_on_c, 0, 79, 0
2, 97920, Note_on_c, 0, 67, 0
2, 97920, Note_on_c, 0, 71, 0
2, 97920, Note_on_c, 0, 74, 0
2, 97920, Note_on_c, 0, 71, 52
2, 97920, Note_on_c, 0, 83, 52
2, 98400, Note_on_c, 0, 83, 0
2, 98400, Note_on_c, 0, 71, 0
2, 98400, Note_on_c, 0, 72, 52
2, 98400, Note_on_c, 0, 84, 52
2, 98880, Note_on_c, 0, 84, 0
2, 98880, Note_on_c, 0, 72, 0
2, 98880, Note_on_c, 0, 74, 52
2, 98880, Note_on_c, 0, 78, 52
2, 98880, Note_on_c, 0, 86, 52
2, 99840, Note_on_c, 0, 86, 0
2, 99840, Note_on_c, 0, 78, 0
2, 99840, Note_on_c, 0, 74, 0
2, 99840, Note_on_c, 0, 78, 52
2, 99840, Note_on_c, 0, 82, 52
2, 99840, Note_on_c, 0, 90, 52
2, 100320, Note_on_c, 0, 90, 0
2, 100320, Note_on_c, 0, 78, 0
2, 100320, Note_on_c, 0, 76, 52
2, 100320, Note_on_c, 0, 88, 52
2, 100800, Note_on_c, 0, 88, 0
2, 100800, Note_on_c, 0, 76, 0
2, 100800, Note_on_c, 0, 82, 0
2, 100800, Note_on_c, 0, 74, 52
2, 100800, Note_on_c, 0, 79, 52
2, 100800, Note_on_c, 0, 83, 52
2, 100800, Note_on_c, 0, 86, 52
2, 101760, Note_on_c, 0, 86, 0
2, 101760, Note_on_c, 0, 74, 0
2, 101760, Note_on_c, 0, 79, 0
2, 101760, Note_on_c, 0, 83, 0
2, 101760, Note_on_c, 0, 76, 78
2, 101760, Note_on_c, 0, 88, 78
2, 102240, Note_on_c, 0, 88, 0
2, 102240, Note_on_c, 0, 76, 0
2, 102240, Note_on_c, 0, 71, 52
2, 102240, Note_on_c, 0, 83, 52
2, 102720, Note_on_c, 0, 83, 0
2, 102720, Note_on_c, 0, 71, 0
2, 102720, Note_on_c, 0, 76, 52
2, 102720, Note_on_c, 0, 84, 52
2, 102720, Note_on_c, 0, 88, 52
2, 103200, Note_on_c, 0, 88, 0
2, 103200, Note_on_c, 0, 84, 0
2, 103200, Note_on_c, 0, 76, 0
2, 103200, Note_on_c, 0, 69, 52
2, 103200, Note_on_c, 0, 81, 52
2, 103680, Note_on_c, 0, 81, 0
2, 103680, Note_on_c, 0, 69, 0
2, 103680, Note_on_c, 0, 76, 52
2, 103680, Note_on_c, 0, 81, 52
2, 103680, Note_on_c, 0, 88, 52
2, 104160, Note_on_c, 0, 88, 0
2, 104160, Note_on_c, 0, 81, 0
2, 104160, Note_on_c, 0, 76, 0
2, 104160, Note_on_c, 0, 72, 52
2, 104160, Note_on_c, 0, 81, 52
2, 104160, Note_on_c, 0, 84, 52
2, 104640, Note_on_c, 0, 84, 0
2, 104640, Note_on_c, 0, 81, 0
2, 104640, Note_on_c, 0, 72, 0
2, 104640, Note_on_c, 0, 76, 52
2, 104640, Note_on_c, 0, 83, 52
2, 104640, Note_on_c, 0, 88, 52
2, 105120, Note_on_c, 0, 88, 0
2, 105120, Note_on_c, 0, 83, 0
2, 105120, Note_on_c, 0, 76, 0
2, 105120, Note_on_c, 0, 67, 52
2, 105120, Note_on_c, 0, 79, 52
2, 105600, Note_on_c, 0, 79, 0
2, 105600, Note_on_c, 0, 67, 0
2, 105600, Note_on_c, 0, 71, 52
2, 105600, Note_on_c, 0, 83, 52
2, 106080, Note_on_c, 0, 83, 0
2, 106080, Note_on_c, 0, 71, 0
2, 106080, Note_on_c, 0, 72, 52
2, 106080, Note_on_c, 0, 84, 52
2, 106560, Note_on_c, 0, 84, 0
2, 106560, Note_on_c, 0, 72, 0
2, 106560, Note_on_c, 0, 74, 52
2, 106560, Note_on_c, 0, 78, 52
2, 106560, Note_on_c, 0, 86, 52
2, 107520, Note_on_c, 0, 86, 0
2, 107520, Note_on_c, 0, 78, 0
2, 107520, Note_on_c, 0, 74, 0
2, 107520, Note_on_c, 0, 78, 52
2, 107520, Note_on_c, 0, 82, 52
2, 107520, Note_on_c, 0, 90, 52
2, 108000, Note_on_c, 0, 90, 0
2, 108000, Note_on_c, 0, 78, 0
2, 108000, Note_on_c, 0, 76, 52
2, 108000, Note_on_c, 0, 88, 52
2, 108480, Note_on_c, 0, 88, 0
2, 108480, Note_on_c, 0, 76, 0
2, 108480, Note_on_c, 0, 82, 0
2, 108480, Note_on_c, 0, 74, 52
2, 108480, Note_on_c, 0, 79, 52
2, 108480, Note_on_c, 0, 83, 52
2, 108480, Note_on_c, 0, 86, 52
2, 109440, Note_on_c, 0, 86, 0
2, 109440, Note_on_c, 0, 74, 0
2, 109440, Note_on_c, 0, 79, 0
2, 109440, Note_on_c, 0, 83, 0
2, 109440, Note_on_c, 0, 76, 78
2, 109440, Note_on_c, 0, 88, 78
2, 109920, Note_on_c, 0, 88, 0
2, 109920, Note_on_c, 0, 76, 0
2, 109920, Note_on_c, 0, 71, 52
2, 109920, Note_on_c, 0, 83, 52
2, 110400, Note_on_c, 0, 83, 0
2, 110400, Note_on_c, 0, 71, 0
2, 110400, Note_on_c, 0, 76, 52
2, 110400, Note_on_c, 0, 84, 52
2, 110400, Note_on_c, 0, 88, 52
2, 110880, Note_on_c, 0, 88, 0
2, 110880, Note_on_c, 0, 84, 0
2, 110880, Note_on_c, 0, 76, 0
2, 110880, Note_on_c, 0, 69, 52
2, 110880, Note_on_c, 0, 81, 52
2, 111360, Note_on_c, 0, 81, 0
2, 111360, Note_on_c, 0, 69, 0
2, 111360, Note_on_c, 0, 76, 52
2, 111360, Note_on_c, 0, 81, 52
2, 111360, Note_on_c, 0, 88, 52
2, 111840, Note_on_c, 0, 88, 0
2, 111840, Note_on_c, 0, 81, 0
2, 111840, Note_on_c, 0, 76, 0
2, 111840, Note_on_c, 0, 72, 52
2, 111840, Note_on_c, 0, 81, 52
2, 111840, Note_on_c, 0, 84, 52
2, 112320, Note_on_c, 0, 84, 0
2, 112320, Note_on_c, 0, 81, 0
2, 112320, Note_on_c, 0, 72, 0
2, 112320, Note_on_c, 0, 76, 52
2, 112320, Note_on_c, 0, 83, 52
2, 112320, Note_on_c, 0, 88, 52
2, 112800, Note_on_c, 0, 88, 0
2, 112800, Note_on_c, 0, 83, 0
2, 112800, Note_on_c, 0, 76, 0
2, 112800, Note_on_c, 0, 67, 52
2, 112800, Note_on_c, 0, 79, 52
2, 113280, Note_on_c, 0, 79, 0
2, 113280, Note_on_c, 0, 67, 0
2, 113280, Note_on_c, 0, 86, 52
2, 113760, Note_on_c, 0, 86, 0
2, 113760, Note_on_c, 0, 84, 52
2, 114240, Note_on_c, 0, 84, 0
2, 114240, Note_on_c, 0, 84, 52
2, 114720, Note_on_c, 0, 84, 0
2, 114720, Note_on_c, 0, 83, 52
2, 115200, Note_on_c, 0, 83, 0
2, 115200, Note_on_c, 0, 84, 52
2, 115680, Note_on_c, 0, 84, 0
2, 115680, Note_on_c, 0, 83, 52
2, 116160, Note_on_c, 0, 83, 0
2, 116160, Note_on_c, 0, 83, 52
2, 116640, Note_on_c, 0, 83, 0
2, 116640, Note_on_c, 0, 81, 52
2, 117120, Note_on_c, 0, 81, 0
2, 117120, Note_on_c, 0, 81, 52
2, 117600, Note_on_c, 0, 81, 0
2, 117600, Note_on_c, 0, 79, 52
2, 118080, Note_on_c, 0, 79, 0
2, 118080, Note_on_c, 0, 79, 52
2, 118560, Note_on_c, 0, 79, 0
2, 118560, Note_on_c, 0, 78, 52
2, 119040, Note_on_c, 0, 78, 0
2, 119040, Note_on_c, 0, 79, 52
2, 119520, Note_on_c, 0, 79, 0
2, 119520, Note_on_c, 0, 78, 52
2, 120000, Note_on_c, 0, 78, 0
2, 120000, Note_on_c, 0, 79, 52
2, 120480, Note_on_c, 0, 79, 0
2, 120480, Note_on_c, 0, 77, 52
2, 120960, Note_on_c, 0, 77, 0
2, 120960, Note_on_c, 0, 64, 52
2, 120960, Note_on_c, 0, 76, 52
2, 121440, Note_on_c, 0, 76, 0
2, 121440, Note_on_c, 0, 64, 0
2, 121440, Note_on_c, 0, 65, 52
2, 121440, Note_on_c, 0, 77, 52
2, 121920, Note_on_c, 0, 77, 0
2, 121920, Note_on_c, 0, 65, 0
2, 121920, Note_on_c, 0, 67, 52
2, 121920, Note_on_c, 0, 71, 52
2, 121920, Note_on_c, 0, 74, 52
2, 121920, Note_on_c, 0, 79, 52
2, 122880, Note_on_c, 0, 79, 0
2, 122880, Note_on_c, 0, 67, 0
2, 122880, Note_on_c, 0, 71, 0
2, 122880, Note_on_c, 0, 74, 0
2, 122880, Note_on_c, 0, 62, 52
2, 122880, Note_on_c, 0, 74, 52
2, 123360, Note_on_c, 0, 74, 0
2, 123360, Note_on_c, 0, 62, 0
2, 123360, Note_on_c, 0, 64, 52
2, 123360, Note_on_c, 0, 76, 52
2, 123840, Note_on_c, 0, 76, 0
2, 123840, Note_on_c, 0, 64, 0
2, 123840, Note_on_c, 0, 60, 52
2, 123840, Note_on_c, 0, 64, 52
2, 123840, Note_on_c, 0, 72, 52
2, 124800, Note_on_c, 0, 72, 0
2, 124800, Note_on_c, 0, 64, 0
2, 124800, Note_on_c, 0, 60, 0
2, 124800, Control_c, 0, 64, 127
2, 124800, Note_on_c, 0, 67, 52
2, 124800, Note_on_c, 0, 79, 52
2, 125280, Note_on_c, 0, 79, 0
2, 125280, Note_on_c, 0, 67, 0
2, 125280, Note_on_c, 0, 72, 52
2, 125280, Note_on_c, 0, 84, 52
2, 125760, Note_on_c, 0, 84, 0
2, 125760, Note_on_c, 0, 72, 0
2, 125760, Note_on_c, 0, 71, 52
2, 125760, Note_on_c, 0, 72, 52
2, 125760, Note_on_c, 0, 83, 52
2, 126240, Note_on_c, 0, 83, 0
2, 126240, Note_on_c, 0, 71, 0
2, 126240, Control_c, 0, 64, 0
2, 126240, Note_on_c, 0, 69, 52
2, 126240, Note_on_c, 0, 81, 52
2, 126720, Note_on_c, 0, 81, 0
2, 126720, Note_on_c, 0, 69, 0
2, 126720, Note_on_c, 0, 72, 0
2, 126720, Note_on_c, 0, 68, 78
2, 126720, Note_on_c, 0, 80, 78
2, 127200, Note_on_c, 0, 80, 0
2, 127200, Note_on_c, 0, 68, 0
2, 127200, Note_on_c, 0, 69, 52
2, 127200, Note_on_c, 0, 81, 52
2, 127680, Note_on_c, 0, 81, 0
2, 127680, Note_on_c, 0, 69, 0
2, 127680, Note_on_c, 0, 62, 52
2, 127680, Note_on_c, 0, 71, 52
2, 127680, Note_on_c, 0, 74, 52
2, 128160, Note_on_c, 0, 74, 0
2, 128160, Note_on_c, 0, 62, 0
2, 128160, Note_on_c, 0, 67, 52
2, 128160, Note_on_c, 0, 79, 52
2, 128640, Note_on_c, 0, 79, 0
2, 128640, Note_on_c, 0, 67, 0
2, 128640, Note_on_c, 0, 71, 0
2, 128640, Note_on_c, 0, 64, 52
2, 128640, Note_on_c, 0, 76, 52
2, 129120, Note_on_c, 0, 76, 0
2, 129120, Note_on_c, 0, 64, 0
2, 129120, Note_on_c, 0, 65, 52
2, 129120, Note_on_c, 0, 77, 52
2, 129600, Note_on_c, 0, 77, 0
2, 129600, Note_on_c, 0, 65, 0
2, 129600, Note_on_c, 0, 67, 52
2, 129600, Note_on_c, 0, 71, 52
2, 129600, Note_on_c, 0, 74, 52
2, 129600, Note_on_c, 0, 79, 52
2, 130560, Note_on_c, 0, 79, 0
2, 130560, Note_on_c, 0, 67, 0
2, 130560, Note_on_c, 0, 71, 0
2, 130560, Note_on_c, 0, 74, 0
2, 130560, Note_on_c, 0, 62, 52
2, 130560, Note_on_c, 0, 74, 52
2, 131040, Note_on_c, 0, 74, 0
2, 131040, Note_on_c, 0, 62, 0
2, 131040, Note_on_c, 0, 64, 52
2, 131040, Note_on_c, 0, 76, 52
2, 131520, Note_on_c, 0, 76, 0
2, 131520, Note_on_c, 0, 64, 0
2, 131520, Note_on_c, 0, 60, 52
2, 131520, Note_on_c, 0, 64, 52
2, 131520, Note_on_c, 0, 72, 52
2, 132480, Note_on_c, 0, 72, 0
2, 132480, Note_on_c, 0, 64, 0
2, 132480, Note_on_c, 0, 60, 0
2, 132480, Control_c, 0, 64, 127
2, 132480, Note_on_c, 0, 60, 52
2, 132480, Note_on_c, 0, 72, 52
2, 132960, Note_on_c, 0, 72, 0
2, 132960, Note_on_c, 0, 60, 0
2, 132960, Note_on_c, 0, 65, 52
2, 132960, Note_on_c, 0, 77, 52
2, 133440, Note_on_c, 0, 77, 0
2, 133440, Note_on_c, 0, 65, 0
2, 133440, Note_on_c, 0, 64, 52
2, 133440, Note_on_c, 0, 76, 52
2, 133920, Note_on_c, 0, 76, 0
2, 133920, Note_on_c, 0, 64, 0
2, 133920, Control_c, 0, 64, 0
2, 133920, Note_on_c, 0, 62, 52
2, 133920, Note_on_c, 0, 74, 52
2, 134400, Note_on_c, 0, 74, 0
2, 134400, Note_on_c, 0, 62, 0
2, 134400, Note_on_c, 0, 57, 52
2, 134400, Note_on_c, 0, 69, 52
2, 134880, Note_on_c, 0, 69, 0
2, 134880, Note_on_c, 0, 57, 0
2, 134880, Note_on_c, 0, 59, 52
2, 134880, Note_on_c, 0, 67, 52
2, 134880, Note_on_c, 0, 71, 52
2, 135360, Note_on_c, 0, 71, 0
2, 135360, Note_on_c, 0, 67, 0
2, 135360, Note_on_c, 0, 59, 0
2, 135360, Note_on_c, 0, 60, 52
2, 135360, Note_on_c, 0, 67, 52
2, 135360, Note_on_c, 0, 72, 52
2, 136320, Note_on_c, 0, 72, 0
2, 136320, Note_on_c, 0, 67, 0
2, 136320, Note_on_c, 0, 60, 0
2, 136320, Control_c, 0, 64, 127
2, 136320, Note_on_c, 0, 67, 52
2, 136320, Note_on_c, 0, 73, 52
2, 136320, Note_on_c, 0, 79, 52
2, 136800, Note_on_c, 0, 79, 0
2, 136800, Note_on_c, 0, 73, 0
2, 136800, Note_on_c, 0, 67, 0
2, 136800, Note_on_c, 0, 65, 52
2, 136800, Note_on_c, 0, 74, 52
2, 136800, Note_on_c, 0, 77, 52
2, 137280, Note_on_c, 0, 77, 0
2, 137280, Note_on_c, 0, 74, 0
2, 137280, Note_on_c, 0, 65, 0
2, 137280, Note_on_c, 0, 64, 52
2, 137280, Note_on_c, 0, 72, 52
2, 137280, Note_on_c, 0, 76, 52
2, 137760, Note_on_c, 0, 76, 0
2, 137760, Note_on_c, 0, 64, 0
2, 137760, Control_c, 0, 64, 0
2, 137760, Note_on_c, 0, 62, 52
2, 137760, Note_on_c, 0, 74, 52
2, 138240, Note_on_c, 0, 74, 0
2, 138240, Note_on_c, 0, 62, 0
2, 138240, Note_on_c, 0, 72, 0
2, 138240, Note_on_c, 0, 57, 52
2, 138240, Note_on_c, 0, 69, 52
2, 138720, Note_on_c, 0, 69, 0
2, 138720, Note_on_c, 0, 57, 0
2, 138720, Note_on_c, 0, 59, 52
2, 138720, Note_on_c, 0, 67, 52
2, 138720, Note_on_c, 0, 71, 52
2, 139200, Note_on_c, 0, 71, 0
2, 139200, Note_on_c, 0, 67, 0
2, 139200, Note_on_c, 0, 59, 0
2, 139200, Note_on_c, 0, 60, 52
2, 139200, Note_on_c, 0, 67, 52
2, 139200, Note_on_c, 0, 72, 52
2, 140160, Note_on_c, 0, 72, 0
2, 140160, Note_on_c, 0, 67, 0
2, 140160, Note_on_c, 0, 60, 0
2, 140160, Note_on_c, 0, 62, 52
2, 140160, Note_on_c, 0, 74, 52
2, 141120, Note_on_c, 0, 74, 0
2, 141120, Note_on_c, 0, 62, 0
2, 141120, Note_on_c, 0, 64, 52
2, 141120, Note_on_c, 0, 76, 52
2, 141600, Note_on_c, 0, 76, 0
2, 141600, Note_on_c, 0, 64, 0
2, 141600, Note_on_c, 0, 60, 52
2, 141600, Note_on_c, 0, 72, 52
2, 142080, Note_on_c, 0, 72, 0
2, 142080, Note_on_c, 0, 60, 0
2, 142080, Note_on_c, 0, 62, 52
2, 142080, Note_on_c, 0, 74, 52
2, 142560, Note_on_c, 0, 74, 0
2, 142560, Note_on_c, 0, 62, 0
2, 142560, Note_on_c, 0, 67, 52
2, 142560, Note_on_c, 0, 79, 52
2, 143040, Note_on_c, 0, 79, 0
2, 143040, Note_on_c, 0, 67, 0
2, 143040, Note_on_c, 0, 64, 52
2, 143040, Note_on_c, 0, 76, 52
2, 144000, Note_on_c, 0, 76, 0
2, 144000, Note_on_c, 0, 64, 0
2, 144000, Note_on_c, 0, 62, 52
2, 144000, Note_on_c, 0, 74, 52
2, 144960, Note_on_c, 0, 74, 0
2, 144960, Note_on_c, 0, 62, 0
2, 144960, Note_on_c, 0, 64, 52
2, 144960, Note_on_c, 0, 76, 52
2, 145440, Note_on_c, 0, 76, 0
2, 145440, Note_on_c, 0, 64, 0
2, 145440, Note_on_c, 0, 60, 52
2, 145440, Note_on_c, 0, 72, 52
2, 145920, Note_on_c, 0, 72, 0
2, 145920, Note_on_c, 0, 60, 0
2, 145920, Note_on_c, 0, 62, 52
2, 145920, Note_on_c, 0, 74, 52
2, 146400, Note_on_c, 0, 74, 0
2, 146400, Note_on_c, 0, 62, 0
2, 146400, Note_on_c, 0, 67, 52
2, 146400, Note_on_c, 0, 79, 52
2, 146880, Note_on_c, 0, 79, 0
2, 146880, Note_on_c, 0, 67, 0
2, 146880, Note_on_c, 0, 64, 52
2, 146880, Note_on_c, 0, 76, 52
2, 147360, Note_on_c, 0, 76, 0
2, 147360, Note_on_c, 0, 64, 0
2, 150720, Note_on_c, 0, 76, 78
2, 151359, Note_on_c, 0, 76, 0
2, 151359, Note_on_c, 0, 71, 78
2, 151520, Note_on_c, 0, 71, 0
2, 151520, Note_on_c, 0, 72, 78
2, 151680, Note_on_c, 0, 72, 0
2, 151680, Note_on_c, 0, 73, 78
2, 151839, Note_on_c, 0, 73, 0
2, 151839, Note_on_c, 0, 75, 78
2, 152000, Note_on_c, 0, 75, 0
2, 152000, Note_on_c, 0, 76, 78
2, 152160, Note_on_c, 0, 76, 0
2, 152160, Note_on_c, 0, 66, 78
2, 152160, Note_on_c, 0, 78, 78
2, 152319, Note_on_c, 0, 78, 0
2, 152319, Note_on_c, 0, 66, 0
2, 152319, Note_on_c, 0, 68, 78
2, 152319, Note_on_c, 0, 80, 78
2, 152480, Note_on_c, 0, 80, 0
2, 152480, Note_on_c, 0, 68, 0
2, 152480, Note_on_c, 0, 69, 78
2, 152480, Note_on_c, 0, 81, 78
2, 152640, Note_on_c, 0, 81, 0
2, 152640, Note_on_c, 0, 69, 0
2, 152640, Note_on_c, 0, 71, 78
2, 152640, Note_on_c, 0, 83, 78
2, 153279, Note_on_c, 0, 83, 0
2, 153279, Note_on_c, 0, 71, 0
2, 153279, Note_on_c, 0, 73, 78
2, 153440, Note_on_c, 0, 73, 0
2, 153440, Note_on_c, 0, 63, 78
2, 153440, Note_on_c, 0, 75, 78
2, 153600, Note_on_c, 0, 75, 0
2, 153600, Note_on_c, 0, 63, 0
2, 153600, Note_on_c, 0, 64, 78
2, 153600, Note_on_c, 0, 76, 78
2, 153759, Note_on_c, 0, 76, 0
2, 153759, Note_on_c, 0, 64, 0
2, 153759, Note_on_c, 0, 66, 78
2, 153759, Note_on_c, 0, 78, 78
2, 153920, Note_on_c, 0, 78, 0
2, 153920, Note_on_c, 0, 66, 0
2, 153920, Note_on_c, 0, 68, 78
2, 153920, Note_on_c, 0, 80, 78
2, 154080, Note_on_c, 0, 80, 0
2, 154080, Note_on_c, 0, 68, 0
2, 154080, Note_on_c, 0, 71, 78
2, 154239, Note_on_c, 0, 71, 0
2, 154239, Note_on_c, 0, 73, 78
2, 154400, Note_on_c, 0, 73, 0
2, 154400, Note_on_c, 0, 75, 78
2, 154560, Note_on_c, 0, 75, 0
2, 154560, Note_on_c, 0, 64, 78
2, 154560, Note_on_c, 0, 76, 78
2, 155040, Note_on_c, 0, 76, 0
2, 155040, Note_on_c, 0, 64, 0
2, 155520, Note_on_c, 0, 57, 78
2, 155679, Note_on_c, 0, 57, 0
2, 155679, Note_on_c, 0, 56, 78
2, 155840, Note_on_c, 0, 56, 0
2, 155840, Note_on_c, 0, 55, 78
2, 156000, Note_on_c, 0, 55, 0
2, 156000, Note_on_c, 0, 56, 78
2, 156480, Note_on_c, 0, 56, 0
2, 156480, Note_on_c, 0, 56, 78
2, 157119, Note_on_c, 0, 56, 0
2, 157119, Note_on_c, 0, 58, 78
2, 157280, Note_on_c, 0, 58, 0
2, 157280, Note_on_c, 0, 60, 78
2, 157440, Note_on_c, 0, 60, 0
2, 157440, Note_on_c, 0, 61, 78
2, 157599, Note_on_c, 0, 61, 0
2, 157599, Note_on_c, 0, 60, 78
2, 157760, Note_on_c, 0, 60, 0
2, 157760, Note_on_c, 0, 59, 78
2, 157920, Note_on_c, 0, 59, 0
2, 157920, Note_on_c, 0, 60, 78
2, 158400, Note_on_c, 0, 60, 0
2, 158400, Note_on_c, 0, 68, 78
2, 158400, Note_on_c, 0, 80, 78
2, 159039, Note_on_c, 0, 80, 0
2, 159039, Note_on_c, 0, 68, 0
2, 159039, Note_on_c, 0, 63, 78
2, 159039, Note_on_c, 0, 75, 78
2, 159200, Note_on_c, 0, 75, 0
2, 159200, Note_on_c, 0, 63, 0
2, 159200, Note_on_c, 0, 64, 78
2, 159200, Note_on_c, 0, 76, 78
2, 159360, Note_on_c, 0, 76, 0
2, 159360, Note_on_c, 0, 64, 0
2, 159360, Note_on_c, 0, 65, 78
2, 159360, Note_on_c, 0, 77, 78
2, 159519, Note_on_c, 0, 77, 0
2, 159519, Note_on_c, 0, 65, 0
2, 159519, Note_on_c, 0, 67, 78
2, 159519, Note_on_c, 0, 79, 78
2, 159680, Note_on_c, 0, 79, 0
2, 159680, Note_on_c, 0, 67, 0
2, 159680, Note_on_c, 0, 68, 78
2, 159680, Note_on_c, 0, 80, 78
2, 159840, Note_on_c, 0, 80, 0
2, 159840, Note_on_c, 0, 68, 0
2, 159840, Note_on_c, 0, 70, 78
2, 159840, Note_on_c, 0, 82, 78
2, 159999, Note_on_c, 0, 82, 0
2, 159999, Note_on_c, 0, 70, 0
2, 159999, Note_on_c, 0, 72, 78
2, 159999, Note_on_c, 0, 84, 78
2, 160160, Note_on_c, 0, 84, 0
2, 160160, Note_on_c, 0, 72, 0
2, 160160, Note_on_c, 0, 73, 78
2, 160160, Note_on_c, 0, 85, 78
2, 160320, Note_on_c, 0, 85, 0
2, 160320, Note_on_c, 0, 73, 0
2, 160320, Note_on_c, 0, 75, 78
2, 160320, Note_on_c, 0, 87, 78
2, 160959, Note_on_c, 0, 87, 0
2, 160959, Note_on_c, 0, 75, 0
2, 160959, Note_on_c, 0, 77, 78
2, 161120, Note_on_c, 0, 77, 0
2, 161120, Note_on_c, 0, 67, 78
2, 161120, Note_on_c, 0, 79, 78
2, 161280, Note_on_c, 0, 79, 0
2, 161280, Note_on_c, 0, 67, 0
2, 161280, Note_on_c, 0, 68, 78
2, 161280, Note_on_c, 0, 80, 78
2, 161439, Note_on_c, 0, 80, 0
2, 161439, Note_on_c, 0, 68, 0
2, 161439, Note_on_c, 0, 70, 78
2, 161439, Note_on_c, 0, 82, 78
2, 161600, Note_on_c, 0, 82, 0
2, 161600, Note_on_c, 0, 70, 0
2, 161600, Note_on_c, 0, 72, 78
2, 161600, Note_on_c, 0, 84, 78
2, 161760, Note_on_c, 0, 84, 0
2, 161760, Note_on_c, 0, 72, 0
2, 161760, Note_on_c, 0, 75, 78
2, 161919, Note_on_c, 0, 75, 0
2, 161919, Note_on_c, 0, 77, 78
2, 162080, Note_on_c, 0, 77, 0
2, 162080, Note_on_c, 0, 79, 78
2, 162240, Note_on_c, 0, 79, 0
2, 162240, Note_on_c, 0, 72, 65
2, 162720, Note_on_c, 0, 72, 0
2, 162720, Note_on_c, 0, 73, 65
2, 163200, Note_on_c, 0, 73, 0
2, 163200, Note_on_c, 0, 75, 65
2, 164160, Note_on_c, 0, 75, 0
2, 164160, Note_on_c, 0, 70, 65
2, 164640, Note_on_c, 0, 70, 0
2, 164640, Note_on_c, 0, 72, 65
2, 165120, Note_on_c, 0, 72, 0
2, 165120, Note_on_c, 0, 68, 65
2, 166080, Note_on_c, 0, 68, 0
2, 166080, Note_on_c, 0, 75, 65
2, 166560, Note_on_c, 0, 75, 0
2, 166560, Note_on_c, 0, 80, 65
2, 167040, Note_on_c, 0, 80, 0
2, 167040, Note_on_c, 0, 79, 65
2, 167520, Note_on_c, 0, 79, 0
2, 167520, Note_on_c, 0, 77, 65
2, 168000, Note_on_c, 0, 77, 0
2, 168000, Note_on_c, 0, 76, 65
2, 168480, Note_on_c, 0, 76, 0
2, 168480, Note_on_c, 0, 77, 65
2, 168960, Note_on_c, 0, 77, 0
2, 168960, Note_on_c, 0, 70, 65
2, 169440, Note_on_c, 0, 70, 0
2, 169440, Note_on_c, 0, 75, 65
2, 169920, Note_on_c, 0, 75, 0
2, 169920, Note_on_c, 0, 72, 65
2, 170400, Note_on_c, 0, 72, 0
2, 170400, Note_on_c, 0, 73, 65
2, 170880, Note_on_c, 0, 73, 0
2, 170880, Note_on_c, 0, 75, 65
2, 171840, Note_on_c, 0, 75, 0
2, 171840, Note_on_c, 0, 70, 65
2, 172320, Note_on_c, 0, 70, 0
2, 172320, Note_on_c, 0, 72, 65
2, 172800, Note_on_c, 0, 72, 0
2, 172800, Note_on_c, 0, 68, 65
2, 173760, Note_on_c, 0, 68, 0
2, 173760, Note_on_c, 0, 75, 65
2, 174240, Note_on_c, 0, 75, 0
2, 174240, Note_on_c, 0, 80, 65
2, 174720, Note_on_c, 0, 80, 0
2, 174720, Note_on_c, 0, 79, 65
2, 175200, Note_on_c, 0, 79, 0
2, 175200, Note_on_c, 0, 77, 65
2, 175680, Note_on_c, 0, 77, 0
2, 175680, Note_on_c, 0, 75, 65
2, 176160, Note_on_c, 0, 75, 0
2, 176160, Note_on_c, 0, 73, 65
2, 176640, Note_on_c, 0, 73, 0
2, 176640, Note_on_c, 0, 71, 65
2, 177120, Note_on_c, 0, 71, 0
2, 177120, Note_on_c, 0, 72, 65
2, 177600, Note_on_c, 0, 72, 0
2, 177600, Note_on_c, 0, 56, 104
2, 178080, Note_on_c, 0, 56, 0
2, 178080, Note_on_c, 0, 58, 104
2, 178560, Note_on_c, 0, 58, 0
2, 178560, Note_on_c, 0, 60, 78
2, 178719, Note_on_c, 0, 60, 0
2, 178719, Note_on_c, 0, 59, 78
2, 178880, Note_on_c, 0, 59, 0
2, 178880, Note_on_c, 0, 60, 78
2, 179040, Note_on_c, 0, 60, 0
2, 179040, Note_on_c, 0, 62, 78
2, 179199, Note_on_c, 0, 62, 0
2, 179199, Note_on_c, 0, 60, 78
2, 179360, Note_on_c, 0, 60, 0
2, 179360, Note_on_c, 0, 62, 78
2, 179520, Note_on_c, 0, 62, 0
2, 179520, Note_on_c, 0, 63, 78
2, 179679, Note_on_c, 0, 63, 0
2, 179679, Note_on_c, 0, 62, 78
2, 179840, Note_on_c, 0, 62, 0
2, 179840, Note_on_c, 0, 63, 78
2, 180000, Note_on_c, 0, 63, 0
2, 180000, Note_on_c, 0, 65, 78
2, 180159, Note_on_c, 0, 65, 0
2, 180159, Note_on_c, 0, 63, 78
2, 180320, Note_on_c, 0, 63, 0
2, 180320, Note_on_c, 0, 65, 78
2, 180480, Note_on_c, 0, 65, 0
2, 180480, Note_on_c, 0, 67, 78
2, 180720, Note_on_c, 0, 67, 0
2, 180720, Note_on_c, 0, 65, 78
2, 180960, Note_on_c, 0, 65, 0
2, 180960, Note_on_c, 0, 63, 78
2, 181200, Note_on_c, 0, 63, 0
2, 181200, Note_on_c, 0, 62, 78
2, 181440, Note_on_c, 0, 62, 0
2, 181440, Note_on_c, 0, 63, 104
2, 181920, Note_on_c, 0, 63, 0
2, 181920, Note_on_c, 0, 65, 104
2, 182400, Note_on_c, 0, 65, 0
2, 182400, Note_on_c, 0, 67, 78
2, 182559, Note_on_c, 0, 67, 0
2, 182559, Note_on_c, 0, 66, 78
2, 182720, Note_on_c, 0, 66, 0
2, 182720, Note_on_c, 0, 67, 78
2, 182880, Note_on_c, 0, 67, 0
2, 182880, Note_on_c, 0, 69, 78
2, 183039, Note_on_c, 0, 69, 0
2, 183039, Note_on_c, 0, 67, 78
2, 183200, Note_on_c, 0, 67, 0
2, 183200, Note_on_c, 0, 69, 78
2, 183360, Note_on_c, 0, 69, 0
2, 183360, Note_on_c, 0, 74, 104
2, 183840, Note_on_c, 0, 74, 0
2, 183840, Note_on_c, 0, 75, 104
2, 184320, Note_on_c, 0, 75, 0
2, 184320, Note_on_c, 0, 76, 78
2, 184479, Note_on_c, 0, 76, 0
2, 184479, Note_on_c, 0, 74, 78
2, 184640, Note_on_c, 0, 74, 0
2, 184640, Note_on_c, 0, 76, 78
2, 184800, Note_on_c, 0, 76, 0
2, 184800, Note_on_c, 0, 78, 78
2, 184959, Note_on_c, 0, 78, 0
2, 184959, Note_on_c, 0, 76, 78
2, 185120, Note_on_c, 0, 76, 0
2, 185120, Note_on_c, 0, 78, 78
2, 185280, Note_on_c, 0, 78, 0
2, 185280, Note_on_c, 0, 79, 78
2, 185520, Note_on_c, 0, 79, 0
2, 186240, Note_on_c, 0, 58, 78
2, 186399, Note_on_c, 0, 58, 0
2, 186399, Note_on_c, 0, 57, 78
2, 186560, Note_on_c, 0, 57, 0
2, 186560, Note_on_c, 0, 58, 78
2, 186720, Note_on_c, 0, 58, 0
2, 186720, Note_on_c, 0, 60, 78
2, 186879, Note_on_c, 0, 60, 0
2, 186879, Note_on_c, 0, 58, 78
2, 187040, Note_on_c, 0, 58, 0
2, 187040, Note_on_c, 0, 60, 78
2, 187200, Note_on_c, 0, 60, 0
2, 187200, Note_on_c, 0, 62, 78
2, 187359, Note_on_c, 0, 62, 0
2, 187359, Note_on_c, 0, 61, 78
2, 187520, Note_on_c, 0, 61, 0
2, 187520, Note_on_c, 0, 62, 78
2, 187680, Note_on_c, 0, 62, 0
2, 187680, Note_on_c, 0, 63, 78
2, 187839, Note_on_c, 0, 63, 0
2, 187839, Note_on_c, 0, 62, 78
2, 188000, Note_on_c, 0, 62, 0
2, 188000, Note_on_c, 0, 63, 78
2, 188160, Note_on_c, 0, 63, 0
2, 188160, Note_on_c, 0, 65, 78
2, 188400, Note_on_c, 0, 65, 0
2, 188400, Note_on_c, 0, 63, 78
2, 188640, Note_on_c, 0, 63, 0
2, 188640, Note_on_c, 0, 62, 78
2, 188880, Note_on_c, 0, 62, 0
2, 188880, Note_on_c, 0, 60, 78
2, 189120, Note_on_c, 0, 60, 0
2, 189120, Note_on_c, 0, 62, 104
2, 189600, Note_on_c, 0, 62, 0
2, 189600, Note_on_c, 0, 64, 104
2, 190080, Note_on_c, 0, 64, 0
2, 190080, Note_on_c, 0, 65, 78
2, 190239, Note_on_c, 0, 65, 0
2, 190239, Note_on_c, 0, 64, 78
2, 190400, Note_on_c, 0, 64, 0
2, 190400, Note_on_c, 0, 65, 78
2, 190560, Note_on_c, 0, 65, 0
2, 190560, Note_on_c, 0, 67, 78
2, 190719, Note_on_c, 0, 67, 0
2, 190719, Note_on_c, 0, 66, 78
2, 190880, Note_on_c, 0, 66, 0
2, 190880, Note_on_c, 0, 67, 78
2, 191040, Note_on_c, 0, 67, 0
2, 191040, Note_on_c, 0, 72, 104
2, 191520, Note_on_c, 0, 72, 0
2, 191520, Note_on_c, 0, 73, 104
2, 192000, Note_on_c, 0, 73, 0
2, 192000, Note_on_c, 0, 74, 78
2, 192159, Note_on_c, 0, 74, 0
2, 192159, Note_on_c, 0, 73, 78
2, 192320, Note_on_c, 0, 73, 0
2, 192320, Note_on_c, 0, 74, 78
2, 192480, Note_on_c, 0, 74, 0
2, 192480, Note_on_c, 0, 76, 78
2, 192639, Note_on_c, 0, 76, 0
2, 192639, Note_on_c, 0, 74, 78
2, 192800, Note_on_c, 0, 74, 0
2, 192800, Note_on_c, 0, 76, 78
2, 192960, Note_on_c, 0, 76, 0
2, 192960, Note_on_c, 0, 77, 78
2, 193119, Note_on_c, 0, 77, 0
2, 193119, Note_on_c, 0, 79, 78
2, 193280, Note_on_c, 0, 79, 0
2, 193280, Note_on_c, 0, 81, 78
2, 193440, Note_on_c, 0, 81, 0
2, 193440, Note_on_c, 0, 77, 78
2, 193599, Note_on_c, 0, 77, 0
2, 193599, Note_on_c, 0, 79, 78
2, 193760, Note_on_c, 0, 79, 0
2, 193760, Note_on_c, 0, 81, 78
2, 193920, Note_on_c, 0, 81, 0
2, 193920, Note_on_c, 0, 77, 78
2, 194079, Note_on_c, 0, 77, 0
2, 194079, Note_on_c, 0, 79, 78
2, 194240, Note_on_c, 0, 79, 0
2, 194240, Note_on_c, 0, 81, 78
2, 194400, Note_on_c, 0, 81, 0
2, 194400, Note_on_c, 0, 77, 78
2, 194559, Note_on_c, 0, 77, 0
2, 194559, Note_on_c, 0, 79, 78
2, 194720, Note_on_c, 0, 79, 0
2, 194720, Note_on_c, 0, 81, 78
2, 194880, Note_on_c, 0, 81, 0
2, 194880, Note_on_c, 0, 77, 78
2, 194880, Note_on_c, 0, 80, 78
2, 194880, Note_on_c, 0, 86, 78
2, 195039, Note_on_c, 0, 86, 0
2, 195039, Note_on_c, 0, 80, 0
2, 195039, Note_on_c, 0, 77, 0
2, 195039, Note_on_c, 0, 88, 78
2, 195200, Note_on_c, 0, 88, 0
2, 195200, Note_on_c, 0, 89, 78
2, 195360, Note_on_c, 0, 89, 0
2, 195360, Note_on_c, 0, 86, 78
2, 195519, Note_on_c, 0, 86, 0
2, 195519, Note_on_c, 0, 88, 78
2, 195680, Note_on_c, 0, 88, 0
2, 195680, Note_on_c, 0, 89, 78
2, 195840, Note_on_c, 0, 89, 0
2, 195840, Note_on_c, 0, 77, 78
2, 195840, Note_on_c, 0, 86, 78
2, 195999, Note_on_c, 0, 86, 0
2, 195999, Note_on_c, 0, 77, 0
2, 195999, Note_on_c, 0, 88, 78
2, 196160, Note_on_c, 0, 88, 0
2, 196160, Note_on_c, 0, 89, 78
2, 196320, Note_on_c, 0, 89, 0
2, 196320, Note_on_c, 0, 86, 78
2, 196479, Note_on_c, 0, 86, 0
2, 196479, Note_on_c, 0, 88, 78
2, 196640, Note_on_c, 0, 88, 0
2, 196640, Note_on_c, 0, 89, 78
2, 196800, Note_on_c, 0, 89, 0
2, 196800, Note_on_c, 0, 81, 78
2, 196800, Note_on_c, 0, 90, 78
2, 196959, Note_on_c, 0, 90, 0
2, 196959, Note_on_c, 0, 81, 0
2, 196959, Note_on_c, 0, 91, 78
2, 197120, Note_on_c, 0, 91, 0
2, 197120, Note_on_c, 0, 93, 78
2, 197280, Note_on_c, 0, 93, 0
2, 197280, Note_on_c, 0, 78, 78
2, 197439, Note_on_c, 0, 78, 0
2, 197439, Note_on_c, 0, 79, 78
2, 197600, Note_on_c, 0, 79, 0
2, 197600, Note_on_c, 0, 81, 78
2, 197760, Note_on_c, 0, 81, 0
2, 197760, Note_on_c, 0, 80, 78
2, 197919, Note_on_c, 0, 80, 0
2, 197919, Note_on_c, 0, 81, 78
2, 198080, Note_on_c, 0, 81, 0
2, 198080, Note_on_c, 0, 83, 78
2, 198240, Note_on_c, 0, 83, 0
2, 198240, Note_on_c, 0, 80, 78
2, 198399, Note_on_c, 0, 80, 0
2, 198399, Note_on_c, 0, 81, 78
2, 198560, Note_on_c, 0, 81, 0
2, 198560, Note_on_c, 0, 83, 78
2, 198720, Note_on_c, 0, 83, 0
2, 198720, Note_on_c, 0, 81, 78
2, 198879, Note_on_c, 0, 81, 0
2, 198879, Note_on_c, 0, 79, 78
2, 199040, Note_on_c, 0, 79, 0
2, 199040, Note_on_c, 0, 78, 78
2, 199200, Note_on_c, 0, 78, 0
2, 199200, Note_on_c, 0, 76, 78
2, 199359, Note_on_c, 0, 76, 0
2, 199359, Note_on_c, 0, 74, 78
2, 199520, Note_on_c, 0, 74, 0
2, 199520, Note_on_c, 0, 73, 78
2, 199680, Note_on_c, 0, 73, 0
2, 199680, Note_on_c, 0, 71, 78
2, 199839, Note_on_c, 0, 71, 0
2, 199839, Note_on_c, 0, 73, 78
2, 200000, Note_on_c, 0, 73, 0
2, 200000, Note_on_c, 0, 74, 78
2, 200160, Note_on_c, 0, 74, 0
2, 200160, Note_on_c, 0, 69, 78
2, 200319, Note_on_c, 0, 69, 0
2, 200319, Note_on_c, 0, 71, 78
2, 200480, Note_on_c, 0, 71, 0
2, 200480, Note_on_c, 0, 73, 78
2, 200640, Note_on_c, 0, 73, 0
2, 200640, Note_on_c, 0, 67, 78
2, 200799, Note_on_c, 0, 67, 0
2, 200799, Note_on_c, 0, 69, 78
2, 200960, Note_on_c, 0, 69, 0
2, 200960, Note_on_c, 0, 71, 78
2, 201120, Note_on_c, 0, 71, 0
2, 201120, Note_on_c, 0, 66, 78
2, 201279, Note_on_c, 0, 66, 0
2, 201279, Note_on_c, 0, 67, 78
2, 201440, Note_on_c, 0, 67, 0
2, 201440, Note_on_c, 0, 69, 78
2, 201600, Note_on_c, 0, 69, 0
2, 201600, Note_on_c, 0, 64, 78
2, 201720, Note_on_c, 0, 64, 0
2, 201720, Note_on_c, 0, 63, 78
2, 201840, Note_on_c, 0, 63, 0
2, 201840, Note_on_c, 0, 64, 78
2, 201960, Note_on_c, 0, 64, 0
2, 201960, Note_on_c, 0, 66, 78
2, 202080, Note_on_c, 0, 66, 0
2, 202080, Note_on_c, 0, 67, 78
2, 202200, Note_on_c, 0, 67, 0
2, 202200, Note_on_c, 0, 66, 78
2, 202320, Note_on_c, 0, 66, 0
2, 202320, Note_on_c, 0, 67, 78
2, 202440, Note_on_c, 0, 67, 0
2, 202440, Note_on_c, 0, 68, 78
2, 202560, Note_on_c, 0, 68, 0
2, 202560, Note_on_c, 0, 69, 78
2, 202680, Note_on_c, 0, 69, 0
2, 202680, Note_on_c, 0, 68, 78
2, 202800, Note_on_c, 0, 68, 0
2, 202800, Note_on_c, 0, 69, 78
2, 202920, Note_on_c, 0, 69, 0
2, 202920, Note_on_c, 0, 71, 78
2, 203040, Note_on_c, 0, 71, 0
2, 203040, Note_on_c, 0, 73, 78
2, 203160, Note_on_c, 0, 73, 0
2, 203160, Note_on_c, 0, 71, 78
2, 203280, Note_on_c, 0, 71, 0
2, 203280, Note_on_c, 0, 73, 78
2, 203400, Note_on_c, 0, 73, 0
2, 203400, Note_on_c, 0, 74, 78
2, 203520, Note_on_c, 0, 74, 0
2, 203520, Note_on_c, 0, 76, 78
2, 203640, Note_on_c, 0, 76, 0
2, 203640, Note_on_c, 0, 75, 78
2, 203760, Note_on_c, 0, 75, 0
2, 203760, Note_on_c, 0, 76, 78
2, 203880, Note_on_c, 0, 76, 0
2, 203880, Note_on_c, 0, 78, 78
2, 204000, Note_on_c, 0, 78, 0
2, 204000, Note_on_c, 0, 79, 78
2, 204120, Note_on_c, 0, 79, 0
2, 204120, Note_on_c, 0, 78, 78
2, 204240, Note_on_c, 0, 78, 0
2, 204240, Note_on_c, 0, 79, 78
2, 204360, Note_on_c, 0, 79, 0
2, 204360, Note_on_c, 0, 80, 78
2, 204480, Note_on_c, 0, 80, 0
2, 204480, Note_on_c, 0, 81, 78
2, 204600, Note_on_c, 0, 81, 0
2, 204600, Note_on_c, 0, 80, 78
2, 204720, Note_on_c, 0, 80, 0
2, 204720, Note_on_c, 0, 81, 78
2, 204840, Note_on_c, 0, 81, 0
2, 204840, Note_on_c, 0, 82, 78
2, 204960, Note_on_c, 0, 82, 0
2, 204960, Note_on_c, 0, 83, 78
2, 205080, Note_on_c, 0, 83, 0
2, 205080, Note_on_c, 0, 82, 78
2, 205200, Note_on_c, 0, 82, 0
2, 205200, Note_on_c, 0, 83, 78
2, 205320, Note_on_c, 0, 83, 0
2, 205320, Note_on_c, 0, 85, 78
2, 205440, Note_on_c, 0, 85, 0
2, 205440, Note_on_c, 0, 74, 91
2, 205440, Note_on_c, 0, 78, 91
2, 205440, Note_on_c, 0, 86, 91
2, 205920, Note_on_c, 0, 86, 0
2, 205920, Note_on_c, 0, 78, 0
2, 205920, Note_on_c, 0, 74, 0
2, 205920, Note_on_c, 0, 74, 91
2, 205920, Note_on_c, 0, 79, 91
2, 205920, Note_on_c, 0, 86, 91
2, 206400, Note_on_c, 0, 86, 0
2, 206400, Note_on_c, 0, 79, 0
2, 206400, Note_on_c, 0, 74, 0
2, 206400, Note_on_c, 0, 74, 91
2, 206400, Note_on_c, 0, 80, 91
2, 206400, Note_on_c, 0, 86, 91
2, 206880, Note_on_c, 0, 86, 0
2, 206880, Note_on_c, 0, 80, 0
2, 206880, Note_on_c, 0, 74, 0
2, 206880, Note_on_c, 0, 74, 91
2, 206880, Note_on_c, 0, 81, 91
2, 206880, Note_on_c, 0, 86, 91
2, 207360, Note_on_c, 0, 86, 0
2, 207360, Note_on_c, 0, 81, 0
2, 207360, Note_on_c, 0, 74, 0
2, 207360, Note_on_c, 0, 74, 91
2, 207360, Note_on_c, 0, 79, 91
2, 207360, Note_on_c, 0, 82, 91
2, 207360, Note_on_c, 0, 86, 91
2, 207840, Note_on_c, 0, 86, 0
2, 207840, Note_on_c, 0, 74, 0
2, 207840, Note_on_c, 0, 79, 0
2, 207840, Note_on_c, 0, 82, 0
2, 207840, Note_on_c, 0, 77, 91
2, 207840, Note_on_c, 0, 83, 91
2, 207840, Note_on_c, 0, 86, 91
2, 207960, Note_on_c, 0, 86, 0
2, 207960, Note_on_c, 0, 83, 0
2, 207960, Note_on_c, 0, 77, 0
2, 207960, Note_on_c, 0, 85, 91
2, 208080, Note_on_c, 0, 85, 0
2, 208080, Note_on_c, 0, 86, 91
2, 208200, Note_on_c, 0, 86, 0
2, 208200, Note_on_c, 0, 88, 91
2, 208320, Note_on_c, 0, 88, 0
2, 208320, Note_on_c, 0, 78, 91
2, 208320, Note_on_c, 0, 86, 91
2, 208320, Note_on_c, 0, 90, 91
2, 208560, Note_on_c, 0, 90, 0
2, 208560, Note_on_c, 0, 86, 0
2, 208560, Note_on_c, 0, 78, 0
2, 208560, Note_on_c, 0, 76, 91
2, 208560, Note_on_c, 0, 81, 91
2, 208560, Note_on_c, 0, 85, 91
2, 208560, Note_on_c, 0, 88, 91
2, 208800, Note_on_c, 0, 88, 0
2, 208800, Note_on_c, 0, 76, 0
2, 208800, Note_on_c, 0, 81, 0
2, 208800, Note_on_c, 0, 85, 0
2, 208800, Note_on_c, 0, 74, 91
2, 208800, Note_on_c, 0, 78, 91
2, 208800, Note_on_c, 0, 81, 91
2, 208800, Note_on_c, 0, 86, 91
2, 209040, Note_on_c, 0, 86, 0
2, 209040, Note_on_c, 0, 74, 0
2, 209040, Note_on_c, 0, 78, 0
2, 209040, Note_on_c, 0, 81, 0
2, 209040, Note_on_c, 0, 81, 91
2, 209280, Note_on_c, 0, 81, 0
2, 209280, Note_on_c, 0, 74, 91
2, 209280, Note_on_c, 0, 78, 91
2, 209280, Note_on_c, 0, 81, 91
2, 209280, Note_on_c, 0, 86, 91
2, 209520, Note_on_c, 0, 86, 0
2, 209520, Note_on_c, 0, 74, 0
2, 209520, Note_on_c, 0, 78, 0
2, 209520, Note_on_c, 0, 81, 0
2, 209520, Note_on_c, 0, 85, 91
2, 209640, Note_on_c, 0, 85, 0
2, 209640, Note_on_c, 0, 83, 91
2, 209760, Note_on_c, 0, 83, 0
2, 209760, Note_on_c, 0, 81, 91
2, 209880, Note_on_c, 0, 81, 0
2, 209880, Note_on_c, 0, 83, 91
2, 210000, Note_on_c, 0, 83, 0
2, 210000, Note_on_c, 0, 81, 91
2, 210120, Note_on_c, 0, 81, 0
2, 210120, Note_on_c, 0, 79, 91
2, 210240, Note_on_c, 0, 79, 0
2, 210240, Note_on_c, 0, 78, 91
2, 210360, Note_on_c, 0, 78, 0
2, 210360, Note_on_c, 0, 76, 91
2, 210480, Note_on_c, 0, 76, 0
2, 210480, Note_on_c, 0, 74, 91
2, 210600, Note_on_c, 0, 74, 0
2, 210600, Note_on_c, 0, 76, 91
2, 210720, Note_on_c, 0, 76, 0
2, 210720, Note_on_c, 0, 78, 91
2, 210840, Note_on_c, 0, 78, 0
2, 210840, Note_on_c, 0, 76, 91
2, 210960, Note_on_c, 0, 76, 0
2, 210960, Note_on_c, 0, 78, 91
2, 211080, Note_on_c, 0, 78, 0
2, 211080, Note_on_c, 0, 79, 91
2, 211200, Note_on_c, 0, 79, 0
2, 211200, Note_on_c, 0, 81, 91
2, 211320, Note_on_c, 0, 81, 0
2, 211320, Note_on_c, 0, 79, 91
2, 211440, Note_on_c, 0, 79, 0
2, 211440, Note_on_c, 0, 78, 91
2, 211560, Note_on_c, 0, 78, 0
2, 211560, Note_on_c, 0, 79, 91
2, 211680, Note_on_c, 0, 79, 0
2, 211680, Note_on_c, 0, 81, 91
2, 211800, Note_on_c, 0, 81, 0
2, 211800, Note_on_c, 0, 83, 91
2, 211920, Note_on_c, 0, 83, 0
2, 211920, Note_on_c, 0, 81, 91
2, 211920, Note_on_c, 0, 85, 91
2, 212040, Note_on_c, 0, 85, 0
2, 212040, Note_on_c, 0, 81, 0
2, 212040, Note_on_c, 0, 83, 91
2, 212040, Note_on_c, 0, 86, 91
2, 212160, Note_on_c, 0, 86, 0
2, 212160, Note_on_c, 0, 83, 0
2, 212160, Note_on_c, 0, 76, 91
2, 212160, Note_on_c, 0, 81, 91
2, 212160, Note_on_c, 0, 85, 91
2, 212160, Note_on_c, 0, 88, 91
2, 212400, Note_on_c, 0, 88, 0
2, 212400, Note_on_c, 0, 76, 0
2, 212400, Note_on_c, 0, 81, 0
2, 212400, Note_on_c, 0, 85, 0
2, 212400, Note_on_c, 0, 78, 91
2, 212400, Note_on_c, 0, 81, 91
2, 212400, Note_on_c, 0, 86, 91
2, 212400, Note_on_c, 0, 90, 91
2, 212640, Note_on_c, 0, 90, 0
2, 212640, Note_on_c, 0, 78, 0
2, 212640, Note_on_c, 0, 81, 0
2, 212640, Note_on_c, 0, 86, 0
2, 212640, Note_on_c, 0, 76, 91
2, 212640, Note_on_c, 0, 81, 91
2, 212640, Note_on_c, 0, 85, 91
2, 212640, Note_on_c, 0, 88, 91
2, 212880, Note_on_c, 0, 88, 0
2, 212880, Note_on_c, 0, 76, 0
2, 212880, Note_on_c, 0, 81, 0
2, 212880, Note_on_c, 0, 85, 0
2, 212880, Note_on_c, 0, 81, 91
2, 213120, Note_on_c, 0, 81, 0
2, 213120, Note_on_c, 0, 74, 91
2, 213120, Note_on_c, 0, 78, 91
2, 213120, Note_on_c, 0, 86, 91
2, 213600, Note_on_c, 0, 86, 0
2, 213600, Note_on_c, 0, 78, 0
2, 213600, Note_on_c, 0, 74, 0
2, 213600, Note_on_c, 0, 74, 91
2, 213600, Note_on_c, 0, 79, 91
2, 213600, Note_on_c, 0, 86, 91
2, 214080, Note_on_c, 0, 86, 0
2, 214080, Note_on_c, 0, 79, 0
2, 214080, Note_on_c, 0, 74, 0
2, 214080, Note_on_c, 0, 74, 91
2, 214080, Note_on_c, 0, 80, 91
2, 214080, Note_on_c, 0, 86, 91
2, 214560, Note_on_c, 0, 86, 0
2, 214560, Note_on_c, 0, 80, 0
2, 214560, Note_on_c, 0, 74, 0
2, 214560, Note_on_c, 0, 74, 91
2, 214560, Note_on_c, 0, 81, 91
2, 214560, Note_on_c, 0, 86, 91
2, 215040, Note_on_c, 0, 86, 0
2, 215040, Note_on_c, 0, 81, 0
2, 215040, Note_on_c, 0, 74, 0
2, 215040, Note_on_c, 0, 74, 91
2, 215040, Note_on_c, 0, 79, 91
2, 215040, Note_on_c, 0, 82, 91
2, 215040, Note_on_c, 0, 86, 91
2, 215520, Note_on_c, 0, 86, 0
2, 215520, Note_on_c, 0, 74, 0
2, 215520, Note_on_c, 0, 79, 0
2, 215520, Note_on_c, 0, 82, 0
2, 215520, Note_on_c, 0, 77, 91
2, 215520, Note_on_c, 0, 83, 91
2, 215520, Note_on_c, 0, 86, 91
2, 215640, Note_on_c, 0, 86, 0
2, 215640, Note_on_c, 0, 83, 0
2, 215640, Note_on_c, 0, 77, 0
2, 215640, Note_on_c, 0, 85, 91
2, 215760, Note_on_c, 0, 85, 0
2, 215760, Note_on_c, 0, 86, 91
2, 215880, Note_on_c, 0, 86, 0
2, 215880, Note_on_c, 0, 88, 91
2, 216000, Note_on_c, 0, 88, 0
2, 216000, Note_on_c, 0, 78, 91
2, 216000, Note_on_c, 0, 81, 91
2, 216000, Note_on_c, 0, 86, 91
2, 216000, Note_on_c, 0, 90, 91
2, 216240, Note_on_c, 0, 90, 0
2, 216240, Note_on_c, 0, 78, 0
2, 216240, Note_on_c, 0, 81, 0
2, 216240, Note_on_c, 0, 86, 0
2, 216240, Note_on_c, 0, 76, 91
2, 216240, Note_on_c, 0, 81, 91
2, 216240, Note_on_c, 0, 85, 91
2, 216240, Note_on_c, 0, 88, 91
2, 216480, Note_on_c, 0, 88, 0
2, 216480, Note_on_c, 0, 76, 0
2, 216480, Note_on_c, 0, 81, 0
2, 216480, Note_on_c, 0, 85, 0
2, 216480, Note_on_c, 0, 74, 91
2, 216480, Note_on_c, 0, 78, 91
2, 216480, Note_on_c, 0, 81, 91
2, 216480, Note_on_c, 0, 86, 91
2, 216720, Note_on_c, 0, 86, 0
2, 216720, Note_on_c, 0, 74, 0
2, 216720, Note_on_c, 0, 78, 0
2, 216720, Note_on_c, 0, 81, 0
2, 216720, Note_on_c, 0, 81, 91
2, 216960, Note_on_c, 0, 81, 0
2, 216960, Note_on_c, 0, 74, 91
2, 216960, Note_on_c, 0, 78, 91
2, 216960, Note_on_c, 0, 81, 91
2, 216960, Note_on_c, 0, 86, 91
2, 217200, Note_on_c, 0, 86, 0
2, 217200, Note_on_c, 0, 74, 0
2, 217200, Note_on_c, 0, 78, 0
2, 217200, Note_on_c, 0, 81, 0
2, 217200, Note_on_c, 0, 85, 91
2, 217320, Note_on_c, 0, 85, 0
2, 217320, Note_on_c, 0, 83, 91
2, 217440, Note_on_c, 0, 83, 0
2, 217440, Note_on_c, 0, 81, 91
2, 217560, Note_on_c, 0, 81, 0
2, 217560, Note_on_c, 0, 83, 91
2, 217680, Note_on_c, 0, 83, 0
2, 217680, Note_on_c, 0, 81, 91
2, 217800, Note_on_c, 0, 81, 0
2, 217800, Note_on_c, 0, 79, 91
2, 217920, Note_on_c, 0, 79, 0
2, 217920, Note_on_c, 0, 78, 91
2, 218040, Note_on_c, 0, 78, 0
2, 218040, Note_on_c, 0, 76, 91
2, 218160, Note_on_c, 0, 76, 0
2, 218160, Note_on_c, 0, 74, 91
2, 218280, Note_on_c, 0, 74, 0
2, 218280, Note_on_c, 0, 76, 91
2, 218400, Note_on_c, 0, 76, 0
2, 218400, Note_on_c, 0, 78, 91
2, 218520, Note_on_c, 0, 78, 0
2, 218520, Note_on_c, 0, 76, 91
2, 218640, Note_on_c, 0, 76, 0
2, 218640, Note_on_c, 0, 78, 91
2, 218760, Note_on_c, 0, 78, 0
2, 218760, Note_on_c, 0, 79, 91
2, 218880, Note_on_c, 0, 79, 0
2, 218880, Note_on_c, 0, 81, 91
2, 219000, Note_on_c, 0, 81, 0
2, 219000, Note_on_c, 0, 79, 91
2, 219120, Note_on_c, 0, 79, 0
2, 219120, Note_on_c, 0, 78, 91
2, 219240, Note_on_c, 0, 78, 0
2, 219240, Note_on_c, 0, 79, 91
2, 219360, Note_on_c, 0, 79, 0
2, 219360, Note_on_c, 0, 81, 91
2, 219480, Note_on_c, 0, 81, 0
2, 219480, Note_on_c, 0, 83, 91
2, 219600, Note_on_c, 0, 83, 0
2, 219600, Note_on_c, 0, 81, 91
2, 219600, Note_on_c, 0, 85, 91
2, 219720, Note_on_c, 0, 85, 0
2, 219720, Note_on_c, 0, 81, 0
2, 219720, Note_on_c, 0, 83, 91
2, 219720, Note_on_c, 0, 86, 91
2, 219840, Note_on_c, 0, 86, 0
2, 219840, Note_on_c, 0, 83, 0
2, 219840, Note_on_c, 0, 81, 91
2, 219840, Note_on_c, 0, 85, 91
2, 219840, Note_on_c, 0, 88, 91
2, 220080, Note_on_c, 0, 88, 0
2, 220080, Note_on_c, 0, 85, 0
2, 220080, Note_on_c, 0, 81, 0
2, 220080, Note_on_c, 0, 79, 91
2, 220080, Note_on_c, 0, 81, 91
2, 220080, Note_on_c, 0, 85, 91
2, 220080, Note_on_c, 0, 90, 91
2, 220320, Note_on_c, 0, 90, 0
2, 220320, Note_on_c, 0, 79, 0
2, 220320, Note_on_c, 0, 81, 0
2, 220320, Note_on_c, 0, 85, 0
2, 220320, Note_on_c, 0, 78, 91
2, 220320, Note_on_c, 0, 81, 91
2, 220320, Note_on_c, 0, 86, 91
2, 220560, Note_on_c, 0, 86, 0
2, 220560, Note_on_c, 0, 81, 0
2, 220560, Note_on_c, 0, 78, 0
2, 222720, Note_on_c, 0, 61, 91
2, 222720, Note_on_c, 0, 64, 91
2, 222720, Note_on_c, 0, 69, 91
2, 222840, Note_on_c, 0, 69, 0
2, 222840, Note_on_c, 0, 64, 0
2, 222840, Note_on_c, 0, 61, 0
2, 222840, Note_on_c, 0, 64, 91
2, 222960, Note_on_c, 0, 64, 0
2, 222960, Note_on_c, 0, 61, 91
2, 223080, Note_on_c, 0, 61, 0
2, 223080, Note_on_c, 0, 64, 91
2, 223200, Note_on_c, 0, 64, 0
2, 223200, Note_on_c, 0, 69, 91
2, 223320, Note_on_c, 0, 69, 0
2, 223320, Note_on_c, 0, 64, 91
2, 223440, Note_on_c, 0, 64, 0
2, 223440, Note_on_c, 0, 69, 91
2, 223560, Note_on_c, 0, 69, 0
2, 223560, Note_on_c, 0, 71, 91
2, 223680, Note_on_c, 0, 71, 0
2, 223680, Note_on_c, 0, 73, 91
2, 223800, Note_on_c, 0, 73, 0
2, 223800, Note_on_c, 0, 71, 91
2, 223920, Note_on_c, 0, 71, 0
2, 223920, Note_on_c, 0, 73, 91
2, 224040, Note_on_c, 0, 73, 0
2, 224040, Note_on_c, 0, 74, 91
2, 224160, Note_on_c, 0, 74, 0
2, 224160, Note_on_c, 0, 76, 91
2, 224400, Note_on_c, 0, 76, 0
2, 226560, Note_on_c, 0, 61, 91
2, 226560, Note_on_c, 0, 69, 91
2, 226680, Note_on_c, 0, 69, 0
2, 226680, Note_on_c, 0, 61, 0
2, 226680, Note_on_c, 0, 64, 91
2, 226800, Note_on_c, 0, 64, 0
2, 226800, Note_on_c, 0, 61, 91
2, 226920, Note_on_c, 0, 61, 0
2, 226920, Note_on_c, 0, 64, 91
2, 227040, Note_on_c, 0, 64, 0
2, 227040, Note_on_c, 0, 69, 91
2, 227160, Note_on_c, 0, 69, 0
2, 227160, Note_on_c, 0, 64, 91
2, 227280, Note_on_c, 0, 64, 0
2, 227280, Note_on_c, 0, 69, 91
2, 227400, Note_on_c, 0, 69, 0
2, 227400, Note_on_c, 0, 71, 91
2, 227520, Note_on_c, 0, 71, 0
2, 227520, Note_on_c, 0, 73, 91
2, 227640, Note_on_c, 0, 73, 0
2, 227640, Note_on_c, 0, 71, 91
2, 227760, Note_on_c, 0, 71, 0
2, 227760, Note_on_c, 0, 73, 91
2, 227880, Note_on_c, 0, 73, 0
2, 227880, Note_on_c, 0, 74, 91
2, 228000, Note_on_c, 0, 74, 0
2, 228000, Note_on_c, 0, 76, 91
2, 228120, Note_on_c, 0, 76, 0
2, 228120, Note_on_c, 0, 72, 91
2, 228120, Note_on_c, 0, 75, 91
2, 228240, Note_on_c, 0, 75, 0
2, 228240, Note_on_c, 0, 72, 0
2, 228240, Note_on_c, 0, 73, 91
2, 228240, Note_on_c, 0, 76, 91
2, 228480, Note_on_c, 0, 76, 0
2, 228480, Note_on_c, 0, 73, 0
2, 228480, Note_on_c, 0, 85, 91
2, 228480, Note_on_c, 0, 88, 91
2, 228600, Note_on_c, 0, 88, 0
2, 228600, Note_on_c, 0, 85, 0
2, 228600, Note_on_c, 0, 84, 91
2, 228600, Note_on_c, 0, 87, 91
2, 228720, Note_on_c, 0, 87, 0
2, 228720, Note_on_c, 0, 84, 0
2, 228720, Note_on_c, 0, 85, 91
2, 228720, Note_on_c, 0, 88, 91
2, 228960, Note_on_c, 0, 88, 0
2, 228960, Note_on_c, 0, 85, 0
2, 228960, Note_on_c, 0, 85, 91
2, 228960, Note_on_c, 0, 88, 91
2, 229080, Note_on_c, 0, 88, 0
2, 229080, Note_on_c, 0, 85, 0
2, 229080, Note_on_c, 0, 84, 91
2, 229080, Note_on_c, 0, 87, 91
2, 229200, Note_on_c, 0, 87, 0
2, 229200, Note_on_c, 0, 84, 0
2, 229200, Note_on_c, 0, 85, 91
2, 229200, Note_on_c, 0, 88, 91
2, 229440, Note_on_c, 0, 88, 0
2, 229440, Note_on_c, 0, 85, 0
2, 229440, Note_on_c, 0, 83, 91
2, 229440, Note_on_c, 0, 86, 91
2, 229560, Note_on_c, 0, 86, 0
2, 229560, Note_on_c, 0, 83, 0
2, 229560, Note_on_c, 0, 82, 91
2, 229560, Note_on_c, 0, 85, 91
2, 229680, Note_on_c, 0, 85, 0
2, 229680, Note_on_c, 0, 82, 0
2, 229680, Note_on_c, 0, 83, 91
2, 229680, Note_on_c, 0, 86, 91
2, 229920, Note_on_c, 0, 86, 0
2, 229920, Note_on_c, 0, 83, 0
2, 229920, Note_on_c, 0, 83, 91
2, 229920, Note_on_c, 0, 86, 91
2, 230040, Note_on_c, 0, 86, 0
2, 230040, Note_on_c, 0, 83, 0
2, 230040, Note_on_c, 0, 82, 91
2, 230040, Note_on_c, 0, 85, 91
2, 230160, Note_on_c, 0, 85, 0
2, 230160, Note_on_c, 0, 82, 0
2, 230160, Note_on_c, 0, 83, 91
2, 230160, Note_on_c, 0, 86, 91
2, 230400, Note_on_c, 0, 86, 0
2, 230400, Note_on_c, 0, 83, 0
2, 230400, Note_on_c, 0, 83, 91
2, 230400, Note_on_c, 0, 86, 91
2, 230520, Note_on_c, 0, 86, 0
2, 230520, Note_on_c, 0, 83, 0
2, 230520, Note_on_c, 0, 82, 91
2, 230520, Note_on_c, 0, 85, 91
2, 230640, Note_on_c, 0, 85, 0
2, 230640, Note_on_c, 0, 82, 0
2, 230640, Note_on_c, 0, 83, 91
2, 230640, Note_on_c, 0, 86, 91
2, 230880, Note_on_c, 0, 86, 0
2, 230880, Note_on_c, 0, 83, 0
2, 230880, Note_on_c, 0, 83, 91
2, 230880, Note_on_c, 0, 86, 91
2, 231000, Note_on_c, 0, 86, 0
2, 231000, Note_on_c, 0, 83, 0
2, 231000, Note_on_c, 0, 82, 91
2, 231000, Note_on_c, 0, 85, 91
2, 231120, Note_on_c, 0, 85, 0
2, 231120, Note_on_c, 0, 82, 0
2, 231120, Note_on_c, 0, 83, 91
2, 231120, Note_on_c, 0, 86, 91
2, 231360, Note_on_c, 0, 86, 0
2, 231360, Note_on_c, 0, 83, 0
2, 231360, Note_on_c, 0, 81, 91
2, 231360, Note_on_c, 0, 85, 91
2, 231480, Note_on_c, 0, 85, 0
2, 231480, Note_on_c, 0, 81, 0
2, 231480, Note_on_c, 0, 80, 91
2, 231480, Note_on_c, 0, 84, 91
2, 231600, Note_on_c, 0, 84, 0
2, 231600, Note_on_c, 0, 80, 0
2, 231600, Note_on_c, 0, 81, 91
2, 231600, Note_on_c, 0, 85, 91
2, 231840, Note_on_c, 0, 85, 0
2, 231840, Note_on_c, 0, 81, 0
2, 231840, Note_on_c, 0, 85, 91
2, 231960, Note_on_c, 0, 85, 0
2, 231960, Note_on_c, 0, 81, 91
2, 232080, Note_on_c, 0, 81, 0
2, 232080, Note_on_c, 0, 83, 91
2, 232200, Note_on_c, 0, 83, 0
2, 232200, Note_on_c, 0, 85, 91
2, 232320, Note_on_c, 0, 85, 0
2, 232320, Note_on_c, 0, 74, 91
2, 232320, Note_on_c, 0, 81, 91
2, 232320, Note_on_c, 0, 86, 91
2, 232560, Note_on_c, 0, 86, 0
2, 232560, Note_on_c, 0, 81, 0
2, 232560, Note_on_c, 0, 74, 0
2, 232560, Note_on_c, 0, 73, 91
2, 232560, Note_on_c, 0, 85, 91
2, 232800, Note_on_c, 0, 85, 0
2, 232800, Note_on_c, 0, 73, 0
2, 232800, Note_on_c, 0, 71, 91
2, 232800, Note_on_c, 0, 83, 91
2, 233040, Note_on_c, 0, 83, 0
2, 233040, Note_on_c, 0, 71, 0
2, 233040, Note_on_c, 0, 69, 91
2, 233040, Note_on_c, 0, 74, 91
2, 233040, Note_on_c, 0, 81, 91
2, 233280, Note_on_c, 0, 81, 0
2, 233280, Note_on_c, 0, 74, 0
2, 233280, Note_on_c, 0, 69, 0
2, 233280, Note_on_c, 0, 67, 91
2, 233280, Note_on_c, 0, 74, 91
2, 233280, Note_on_c, 0, 79, 91
2, 233520, Note_on_c, 0, 79, 0
2, 233520, Note_on_c, 0, 74, 0
2, 233520, Note_on_c, 0, 67, 0
2, 233520, Note_on_c, 0, 66, 91
2, 233520, Note_on_c, 0, 74, 91
2, 233520, Note_on_c, 0, 78, 91
2, 233760, Note_on_c, 0, 78, 0
2, 233760, Note_on_c, 0, 74, 0
2, 233760, Note_on_c, 0, 66, 0
2, 233760, Note_on_c, 0, 71, 91
2, 233760, Note_on_c, 0, 76, 91
2, 233760, Note_on_c, 0, 83, 91
2, 234000, Note_on_c, 0, 83, 0
2, 234000, Note_on_c, 0, 76, 0
2, 234000, Note_on_c, 0, 71, 0
2, 234000, Note_on_c, 0, 69, 91
2, 234000, Note_on_c, 0, 73, 91
2, 234000, Note_on_c, 0, 81, 91
2, 234240, Note_on_c, 0, 81, 0
2, 234240, Note_on_c, 0, 73, 0
2, 234240, Note_on_c, 0, 69, 0
2, 234240, Note_on_c, 0, 74, 91
2, 234240, Note_on_c, 0, 81, 91
2, 234240, Note_on_c, 0, 86, 91
2, 234480, Note_on_c, 0, 86, 0
2, 234480, Note_on_c, 0, 81, 0
2, 234480, Note_on_c, 0, 74, 0
2, 234480, Note_on_c, 0, 73, 91
2, 234480, Note_on_c, 0, 85, 91
2, 234720, Note_on_c, 0, 85, 0
2, 234720, Note_on_c, 0, 73, 0
2, 234720, Note_on_c, 0, 71, 91
2, 234720, Note_on_c, 0, 83, 91
2, 234960, Note_on_c, 0, 83, 0
2, 234960, Note_on_c, 0, 71, 0
2, 234960, Note_on_c, 0, 69, 91
2, 234960, Note_on_c, 0, 74, 91
2, 234960, Note_on_c, 0, 81, 91
2, 235200, Note_on_c, 0, 81, 0
2, 235200, Note_on_c, 0, 74, 0
2, 235200, Note_on_c, 0, 69, 0
2, 235200, Note_on_c, 0, 67, 91
2, 235200, Note_on_c, 0, 74, 91
2, 235200, Note_on_c, 0, 79, 91
2, 235440, Note_on_c, 0, 79, 0
2, 235440, Note_on_c, 0, 74, 0
2, 235440, Note_on_c, 0, 67, 0
2, 235440, Note_on_c, 0, 66, 91
2, 235440, Note_on_c, 0, 74, 91
2, 235440, Note_on_c, 0, 78, 91
2, 235680, Note_on_c, 0, 78, 0
2, 235680, Note_on_c, 0, 74, 0
2, 235680, Note_on_c, 0, 66, 0
2, 235680, Note_on_c, 0, 71, 91
2, 235680, Note_on_c, 0, 76, 91
2, 235680, Note_on_c, 0, 83, 91
2, 235920, Note_on_c, 0, 83, 0
2, 235920, Note_on_c, 0, 76, 0
2, 235920, Note_on_c, 0, 71, 0
2, 235920, Note_on_c, 0, 69, 91
2, 235920, Note_on_c, 0, 73, 91
2, 235920, Note_on_c, 0, 81, 91
2, 236160, Note_on_c, 0, 81, 0
2, 236160, Note_on_c, 0, 73, 0
2, 236160, Note_on_c, 0, 69, 0
2, 236160, Note_on_c, 0, 74, 91
2, 236160, Note_on_c, 0, 81, 91
2, 236160, Note_on_c, 0, 86, 91
2, 236400, Note_on_c, 0, 86, 0
2, 236400, Note_on_c, 0, 81, 0
2, 236400, Note_on_c, 0, 74, 0
2, 236400, Note_on_c, 0, 73, 91
2, 236400, Note_on_c, 0, 85, 91
2, 236640, Note_on_c, 0, 85, 0
2, 236640, Note_on_c, 0, 73, 0
2, 236640, Note_on_c, 0, 71, 91
2, 236640, Note_on_c, 0, 83, 91
2, 236880, Note_on_c, 0, 83, 0
2, 236880, Note_on_c, 0, 71, 0
2, 236880, Note_on_c, 0, 69, 91
2, 236880, Note_on_c, 0, 74, 91
2, 236880, Note_on_c, 0, 81, 91
2, 237120, Note_on_c, 0, 81, 0
2, 237120, Note_on_c, 0, 74, 0
2, 237120, Note_on_c, 0, 69, 0
2, 237120, Note_on_c, 0, 74, 91
2, 237120, Note_on_c, 0, 82, 91
2, 237120, Note_on_c, 0, 86, 91
2, 237360, Note_on_c, 0, 86, 0
2, 237360, Note_on_c, 0, 82, 0
2, 237360, Note_on_c, 0, 74, 0
2, 237360, Note_on_c, 0, 73, 91
2, 237360, Note_on_c, 0, 85, 91
2, 237600, Note_on_c, 0, 85, 0
2, 237600, Note_on_c, 0, 73, 0
2, 237600, Note_on_c, 0, 74, 91
2, 237600, Note_on_c, 0, 82, 91
2, 237600, Note_on_c, 0, 86, 91
2, 237840, Note_on_c, 0, 86, 0
2, 237840, Note_on_c, 0, 82, 0
2, 237840, Note_on_c, 0, 74, 0
2, 237840, Note_on_c, 0, 76, 91
2, 237840, Note_on_c, 0, 88, 91
2, 238080, Note_on_c, 0, 88, 0
2, 238080, Note_on_c, 0, 76, 0
2, 238080, Note_on_c, 0, 78, 91
2, 238080, Note_on_c, 0, 81, 91
2, 238080, Note_on_c, 0, 86, 91
2, 238080, Note_on_c, 0, 90, 91
2, 238560, Note_on_c, 0, 90, 0
2, 238560, Note_on_c, 0, 78, 0
2, 238560, Note_on_c, 0, 81, 0
2, 238560, Note_on_c, 0, 86, 0
2, 238560, Note_on_c, 0, 79, 91
2, 238560, Note_on_c, 0, 81, 91
2, 238560, Note_on_c, 0, 85, 91
2, 238560, Note_on_c, 0, 88, 91
2, 238800, Note_on_c, 0, 88, 0
2, 238800, Note_on_c, 0, 79, 0
2, 238800, Note_on_c, 0, 81, 0
2, 238800, Note_on_c, 0, 85, 0
2, 238800, Note_on_c, 0, 78, 91
2, 238800, Note_on_c, 0, 90, 91
2, 239040, Note_on_c, 0, 90, 0
2, 239040, Note_on_c, 0, 78, 0
2, 239040, Note_on_c, 0, 74, 117
2, 239040, Note_on_c, 0, 78, 117
2, 239040, Note_on_c, 0, 81, 117
2, 239040, Note_on_c, 0, 86, 117
2, 239520, Note_on_c, 0, 86, 0
2, 239520, Note_on_c, 0, 74, 0
2, 239520, Note_on_c, 0, 78, 0
2, 239520, Note_on_c, 0, 81, 0
2, 239520, Control_c, 0, 64, 127
2, 241440, Control_c, 0, 64, 0
2, 241440, End_track
3, 0, Start_track
3, 0, Title_t, "Grand Piano"
3, 0, Program_c, 0, 0
3, 0, Control_c, 0, 7, 115
3, 0, Control_c, 0, 10, 80
3, 3840, Note_on_c, 0, 59, 70
3, 3840, Note_on_c, 0, 61, 70
3, 4320, Note_on_c, 0, 61, 0
3, 4320, Note_on_c, 0, 59, 0
3, 4320, Note_on_c, 0, 58, 70
3, 4320, Note_on_c, 0, 61, 70
3, 4800, Note_on_c, 0, 61, 0
3, 4800, Note_on_c, 0, 58, 0
3, 4800, Note_on_c, 0, 57, 70
3, 4800, Note_on_c, 0, 59, 70
3, 5280, Note_on_c, 0, 59, 0
3, 5280, Note_on_c, 0, 57, 0
3, 5280, Note_on_c, 0, 56, 70
3, 5280, Note_on_c, 0, 59, 70
3, 5760, Note_on_c, 0, 59, 0
3, 5760, Note_on_c, 0, 56, 0
3, 5760, Note_on_c, 0, 57, 70
3, 6240, Note_on_c, 0, 57, 0
3, 6240, Note_on_c, 0, 61, 70
3, 6240, Note_on_c, 0, 63, 70
3, 6720, Note_on_c, 0, 63, 0
3, 6720, Note_on_c, 0, 61, 0
3, 6720, Note_on_c, 0, 56, 70
3, 6720, Note_on_c, 0, 61, 70
3, 7200, Note_on_c, 0, 61, 0
3, 7200, Note_on_c, 0, 56, 0
3, 11520, Note_on_c, 0, 59, 70
3, 12000, Note_on_c, 0, 59, 0
3, 12000, Note_on_c, 0, 57, 70
3, 12000, Note_on_c, 0, 61, 70
3, 12480, Note_on_c, 0, 61, 0
3, 12480, Note_on_c, 0, 57, 0
3, 12480, Note_on_c, 0, 57, 70
3, 12480, Note_on_c, 0, 63, 70
3, 12960, Note_on_c, 0, 63, 0
3, 12960, Note_on_c, 0, 57, 0
3, 12960, Note_on_c, 0, 57, 70
3, 12960, Note_on_c, 0, 63, 70
3, 13440, Note_on_c, 0, 63, 0
3, 13440, Note_on_c, 0, 57, 0
3, 13440, Note_on_c, 0, 56, 70
3, 13440, Note_on_c, 0, 61, 70
3, 13920, Note_on_c, 0, 61, 0
3, 13920, Note_on_c, 0, 56, 0
3, 13920, Note_on_c, 0, 57, 70
3, 13920, Note_on_c, 0, 61, 70
3, 13920, Note_on_c, 0, 64, 70
3, 14400, Note_on_c, 0, 64, 0
3, 14400, Note_on_c, 0, 61, 0
3, 14400, Note_on_c, 0, 57, 0
3, 14400, Note_on_c, 0, 57, 70
3, 14400, Note_on_c, 0, 63, 70
3, 14880, Note_on_c, 0, 63, 0
3, 14880, Note_on_c, 0, 57, 0
3, 14880, Note_on_c, 0, 56, 70
3, 14880, Note_on_c, 0, 59, 70
3, 15120, Note_on_c, 0, 59, 0
3, 15120, Note_on_c, 0, 56, 0
3, 19200, Note_on_c, 0, 59, 70
3, 19200, Note_on_c, 0, 61, 70
3, 19680, Note_on_c, 0, 61, 0
3, 19680, Note_on_c, 0, 59, 0
3, 19680, Note_on_c, 0, 58, 70
3, 19680, Note_on_c, 0, 61, 70
3, 20160, Note_on_c, 0, 61, 0
3, 20160, Note_on_c, 0, 58, 0
3, 20160, Note_on_c, 0, 57, 70
3, 20160, Note_on_c, 0, 59, 70
3, 20640, Note_on_c, 0, 59, 0
3, 20640, Note_on_c, 0, 57, 0
3, 20640, Note_on_c, 0, 56, 70
3, 20640, Note_on_c, 0, 59, 70
3, 21120, Note_on_c, 0, 59, 0
3, 21120, Note_on_c, 0, 56, 0
3, 21120, Note_on_c, 0, 57, 70
3, 21600, Note_on_c, 0, 57, 0
3, 21600, Note_on_c, 0, 61, 70
3, 21600, Note_on_c, 0, 63, 70
3, 22080, Note_on_c, 0, 63, 0
3, 22080, Note_on_c, 0, 61, 0
3, 22080, Note_on_c, 0, 56, 70
3, 22080, Note_on_c, 0, 61, 70
3, 22560, Note_on_c, 0, 61, 0
3, 22560, Note_on_c, 0, 56, 0
3, 32640, Note_on_c, 0, 59, 70
3, 32880, Note_on_c, 0, 59, 0
3, 33120, Note_on_c, 0, 57, 70
3, 33360, Note_on_c, 0, 57, 0
3, 33600, Note_on_c, 0, 57, 70
3, 33840, Note_on_c, 0, 57, 0
3, 34560, Note_on_c, 0, 54, 70
3, 34560, Note_on_c, 0, 57, 70
3, 36480, Note_on_c, 0, 57, 0
3, 36480, Note_on_c, 0, 54, 0
3, 36480, Note_on_c, 0, 64, 57
3, 36511, Note_on_c, 0, 64, 0
3, 36639, Note_on_c, 0, 66, 57
3, 36671, Note_on_c, 0, 66, 0
3, 36800, Note_on_c, 0, 67, 57
3, 36832, Note_on_c, 0, 67, 0
3, 36960, Note_on_c, 0, 59, 57
3, 36991, Note_on_c, 0, 59, 0
3, 37119, Note_on_c, 0, 61, 57
3, 37151, Note_on_c, 0, 61, 0
3, 37280, Note_on_c, 0, 63, 57
3, 37312, Note_on_c, 0, 63, 0
3, 37440, Note_on_c, 0, 64, 57
3, 37471, Note_on_c, 0, 64, 0
3, 37599, Note_on_c, 0, 66, 57
3, 37631, Note_on_c, 0, 66, 0
3, 37760, Note_on_c, 0, 67, 57
3, 37792, Note_on_c, 0, 67, 0
3, 37920, Note_on_c, 0, 59, 57
3, 37951, Note_on_c, 0, 59, 0
3, 38079, Note_on_c, 0, 61, 57
3, 38111, Note_on_c, 0, 61, 0
3, 38240, Note_on_c, 0, 63, 57
3, 38272, Note_on_c, 0, 63, 0
3, 38400, Note_on_c, 0, 59, 57
3, 38431, Note_on_c, 0, 59, 0
3, 38559, Note_on_c, 0, 66, 57
3, 38591, Note_on_c, 0, 66, 0
3, 38720, Note_on_c, 0, 67, 57
3, 38752, Note_on_c, 0, 67, 0
3, 38880, Note_on_c, 0, 59, 57
3, 38911, Note_on_c, 0, 59, 0
3, 39039, Note_on_c, 0, 61, 57
3, 39071, Note_on_c, 0, 61, 0
3, 39200, Note_on_c, 0, 63, 57
3, 39232, Note_on_c, 0, 63, 0
3, 39360, Note_on_c, 0, 64, 57
3, 39391, Note_on_c, 0, 64, 0
3, 39519, Note_on_c, 0, 66, 57
3, 39551, Note_on_c, 0, 66, 0
3, 39680, Note_on_c, 0, 68, 57
3, 39712, Note_on_c, 0, 68, 0
3, 39840, Note_on_c, 0, 61, 57
3, 39871, Note_on_c, 0, 61, 0
3, 39999, Note_on_c, 0, 63, 57
3, 40031, Note_on_c, 0, 63, 0
3, 40160, Note_on_c, 0, 65, 57
3, 40192, Note_on_c, 0, 65, 0
3, 40320, Note_on_c, 0, 66, 70
3, 40351, Note_on_c, 0, 66, 0
3, 40479, Note_on_c, 0, 68, 70
3, 40511, Note_on_c, 0, 68, 0
3, 40640, Note_on_c, 0, 69, 70
3, 40672, Note_on_c, 0, 69, 0
3, 40800, Note_on_c, 0, 61, 70
3, 40831, Note_on_c, 0, 61, 0
3, 40959, Note_on_c, 0, 63, 70
3, 40991, Note_on_c, 0, 63, 0
3, 41120, Note_on_c, 0, 65, 70
3, 41152, Note_on_c, 0, 65, 0
3, 41280, Note_on_c, 0, 66, 70
3, 41311, Note_on_c, 0, 66, 0
3, 41439, Note_on_c, 0, 68, 70
3, 41471, Note_on_c, 0, 68, 0
3, 41600, Note_on_c, 0, 69, 70
3, 41632, Note_on_c, 0, 69, 0
3, 41760, Note_on_c, 0, 61, 70
3, 41791, Note_on_c, 0, 61, 0
3, 41919, Note_on_c, 0, 63, 70
3, 41951, Note_on_c, 0, 63, 0
3, 42080, Note_on_c, 0, 65, 70
3, 42112, Note_on_c, 0, 65, 0
3, 42240, Note_on_c, 0, 61, 70
3, 42271, Note_on_c, 0, 61, 0
3, 42399, Note_on_c, 0, 68, 70
3, 42431, Note_on_c, 0, 68, 0
3, 42560, Note_on_c, 0, 69, 70
3, 42592, Note_on_c, 0, 69, 0
3, 42720, Note_on_c, 0, 61, 70
3, 42751, Note_on_c, 0, 61, 0
3, 42879, Note_on_c, 0, 63, 70
3, 42911, Note_on_c, 0, 63, 0
3, 43040, Note_on_c, 0, 65, 70
3, 43072, Note_on_c, 0, 65, 0
3, 43200, Note_on_c, 0, 66, 70
3, 43231, Note_on_c, 0, 66, 0
3, 43359, Note_on_c, 0, 67, 70
3, 43391, Note_on_c, 0, 67, 0
3, 43520, Note_on_c, 0, 69, 70
3, 43552, Note_on_c, 0, 69, 0
3, 43680, Note_on_c, 0, 62, 70
3, 43711, Note_on_c, 0, 62, 0
3, 43839, Note_on_c, 0, 64, 70
3, 43871, Note_on_c, 0, 64, 0
3, 44000, Note_on_c, 0, 66, 70
3, 44032, Note_on_c, 0, 66, 0
3, 44160, Note_on_c, 0, 79, 70
3, 44191, Note_on_c, 0, 79, 0
3, 44319, Note_on_c, 0, 81, 70
3, 44351, Note_on_c, 0, 81, 0
3, 44480, Note_on_c, 0, 83, 70
3, 44512, Note_on_c, 0, 83, 0
3, 44640, Note_on_c, 0, 74, 70
3, 44671, Note_on_c, 0, 74, 0
3, 44799, Note_on_c, 0, 78, 70
3, 44831, Note_on_c, 0, 78, 0
3, 44960, Note_on_c, 0, 79, 70
3, 44992, Note_on_c, 0, 79, 0
3, 45120, Note_on_c, 0, 68, 70
3, 45151, Note_on_c, 0, 68, 0
3, 45279, Note_on_c, 0, 69, 70
3, 45311, Note_on_c, 0, 69, 0
3, 45440, Note_on_c, 0, 71, 70
3, 45472, Note_on_c, 0, 71, 0
3, 45600, Note_on_c, 0, 64, 70
3, 45631, Note_on_c, 0, 64, 0
3, 45759, Note_on_c, 0, 66, 70
3, 45791, Note_on_c, 0, 66, 0
3, 45920, Note_on_c, 0, 68, 70
3, 45952, Note_on_c, 0, 68, 0
3, 46080, Note_on_c, 0, 81, 70
3, 46111, Note_on_c, 0, 81, 0
3, 46239, Note_on_c, 0, 83, 70
3, 46271, Note_on_c, 0, 83, 0
3, 46400, Note_on_c, 0, 85, 70
3, 46432, Note_on_c, 0, 85, 0
3, 46560, Note_on_c, 0, 76, 70
3, 46591, Note_on_c, 0, 76, 0
3, 46719, Note_on_c, 0, 80, 70
3, 46751, Note_on_c, 0, 80, 0
3, 46880, Note_on_c, 0, 81, 70
3, 46912, Note_on_c, 0, 81, 0
3, 47040, Note_on_c, 0, 70, 70
3, 47071, Note_on_c, 0, 70, 0
3, 47199, Note_on_c, 0, 71, 70
3, 47231, Note_on_c, 0, 71, 0
3, 47360, Note_on_c, 0, 73, 70
3, 47392, Note_on_c, 0, 73, 0
3, 47520, Note_on_c, 0, 66, 70
3, 47551, Note_on_c, 0, 66, 0
3, 47679, Note_on_c, 0, 68, 70
3, 47711, Note_on_c, 0, 68, 0
3, 47840, Note_on_c, 0, 70, 70
3, 47872, Note_on_c, 0, 70, 0
3, 48000, Note_on_c, 0, 83, 83
3, 48031, Note_on_c, 0, 83, 0
3, 48159, Note_on_c, 0, 85, 83
3, 48191, Note_on_c, 0, 85, 0
3, 48320, Note_on_c, 0, 86, 83
3, 48352, Note_on_c, 0, 86, 0
3, 48480, Note_on_c, 0, 79, 83
3, 48511, Note_on_c, 0, 79, 0
3, 48639, Note_on_c, 0, 81, 83
3, 48671, Note_on_c, 0, 81, 0
3, 48800, Note_on_c, 0, 83, 83
3, 48832, Note_on_c, 0, 83, 0
3, 48960, Note_on_c, 0, 72, 83
3, 48991, Note_on_c, 0, 72, 0
3, 49119, Note_on_c, 0, 74, 83
3, 49151, Note_on_c, 0, 74, 0
3, 49280, Note_on_c, 0, 76, 83
3, 49312, Note_on_c, 0, 76, 0
3, 49440, Note_on_c, 0, 69, 83
3, 49471, Note_on_c, 0, 69, 0
3, 49599, Note_on_c, 0, 71, 83
3, 49631, Note_on_c, 0, 71, 0
3, 49760, Note_on_c, 0, 73, 83
3, 49792, Note_on_c, 0, 73, 0
3, 49920, Note_on_c, 0, 74, 83
3, 49951, Note_on_c, 0, 74, 0
3, 50079, Note_on_c, 0, 76, 83
3, 50111, Note_on_c, 0, 76, 0
3, 50240, Note_on_c, 0, 78, 83
3, 50272, Note_on_c, 0, 78, 0
3, 50400, Note_on_c, 0, 71, 83
3, 50431, Note_on_c, 0, 71, 0
3, 50559, Note_on_c, 0, 73, 83
3, 50591, Note_on_c, 0, 73, 0
3, 50720, Note_on_c, 0, 74, 83
3, 50752, Note_on_c, 0, 74, 0
3, 50880, Note_on_c, 0, 76, 83
3, 50911, Note_on_c, 0, 76, 0
3, 51039, Note_on_c, 0, 78, 83
3, 51071, Note_on_c, 0, 78, 0
3, 51200, Note_on_c, 0, 79, 83
3, 51232, Note_on_c, 0, 79, 0
3, 51360, Note_on_c, 0, 73, 83
3, 51391, Note_on_c, 0, 73, 0
3, 51519, Note_on_c, 0, 74, 83
3, 51551, Note_on_c, 0, 74, 0
3, 51680, Note_on_c, 0, 76, 83
3, 51712, Note_on_c, 0, 76, 0
3, 51840, Note_on_c, 0, 78, 83
3, 51871, Note_on_c, 0, 78, 0
3, 51999, Note_on_c, 0, 80, 83
3, 52031, Note_on_c, 0, 80, 0
3, 52160, Note_on_c, 0, 81, 83
3, 52192, Note_on_c, 0, 81, 0
3, 52320, Note_on_c, 0, 73, 83
3, 52351, Note_on_c, 0, 73, 0
3, 52479, Note_on_c, 0, 75, 83
3, 52511, Note_on_c, 0, 75, 0
3, 52640, Note_on_c, 0, 77, 83
3, 52672, Note_on_c, 0, 77, 0
3, 52800, Note_on_c, 0, 78, 83
3, 52831, Note_on_c, 0, 78, 0
3, 52959, Note_on_c, 0, 80, 83
3, 52991, Note_on_c, 0, 80, 0
3, 53120, Note_on_c, 0, 81, 83
3, 53152, Note_on_c, 0, 81, 0
3, 53280, Note_on_c, 0, 73, 83
3, 53311, Note_on_c, 0, 73, 0
3, 53439, Note_on_c, 0, 75, 83
3, 53471, Note_on_c, 0, 75, 0
3, 53600, Note_on_c, 0, 77, 83
3, 53632, Note_on_c, 0, 77, 0
3, 53760, Note_on_c, 0, 78, 83
3, 53791, Note_on_c, 0, 78, 0
3, 53919, Note_on_c, 0, 80, 83
3, 53951, Note_on_c, 0, 80, 0
3, 54080, Note_on_c, 0, 81, 83
3, 54112, Note_on_c, 0, 81, 0
3, 54240, Note_on_c, 0, 78, 83
3, 54271, Note_on_c, 0, 78, 0
3, 54399, Note_on_c, 0, 80, 83
3, 54431, Note_on_c, 0, 80, 0
3, 54560, Note_on_c, 0, 81, 83
3, 54592, Note_on_c, 0, 81, 0
3, 54720, Note_on_c, 0, 83, 83
3, 54751, Note_on_c, 0, 83, 0
3, 54879, Note_on_c, 0, 85, 83
3, 54911, Note_on_c, 0, 85, 0
3, 55040, Note_on_c, 0, 86, 83
3, 55072, Note_on_c, 0, 86, 0
3, 55200, Note_on_c, 0, 83, 83
3, 55231, Note_on_c, 0, 83, 0
3, 55359, Note_on_c, 0, 85, 83
3, 55391, Note_on_c, 0, 85, 0
3, 55520, Note_on_c, 0, 86, 83
3, 55552, Note_on_c, 0, 86, 0
3, 57600, Note_on_c, 0, 61, 83
3, 57600, Note_on_c, 0, 64, 83
3, 58080, Note_on_c, 0, 64, 0
3, 58080, Note_on_c, 0, 61, 0
3, 61440, Note_on_c, 0, 61, 83
3, 61440, Note_on_c, 0, 64, 83
3, 61920, Note_on_c, 0, 64, 0
3, 61920, Note_on_c, 0, 61, 0
3, 67200, Note_on_c, 0, 73, 96
3, 67200, Note_on_c, 0, 76, 96
3, 67440, Note_on_c, 0, 76, 0
3, 67440, Note_on_c, 0, 73, 0
3, 71040, Note_on_c, 0, 59, 70
3, 71040, Note_on_c, 0, 61, 70
3, 71520, Note_on_c, 0, 61, 0
3, 71520, Note_on_c, 0, 59, 0
3, 71520, Note_on_c, 0, 58, 70
3, 71520, Note_on_c, 0, 61, 70
3, 72000, Note_on_c, 0, 61, 0
3, 72000, Note_on_c, 0, 58, 0
3, 72000, Note_on_c, 0, 57, 70
3, 72000, Note_on_c, 0, 59, 70
3, 72480, Note_on_c, 0, 59, 0
3, 72480, Note_on_c, 0, 57, 0
3, 72480, Note_on_c, 0, 56, 70
3, 72480, Note_on_c, 0, 59, 70
3, 72960, Note_on_c, 0, 59, 0
3, 72960, Note_on_c, 0, 56, 0
3, 72960, Note_on_c, 0, 57, 70
3, 73440, Note_on_c, 0, 57, 0
3, 73440, Note_on_c, 0, 61, 70
3, 73440, Note_on_c, 0, 63, 70
3, 73920, Note_on_c, 0, 63, 0
3, 73920, Note_on_c, 0, 61, 0
3, 73920, Note_on_c, 0, 56, 70
3, 73920, Note_on_c, 0, 61, 70
3, 74400, Note_on_c, 0, 61, 0
3, 74400, Note_on_c, 0, 56, 0
3, 78720, Note_on_c, 0, 59, 70
3, 79200, Note_on_c, 0, 59, 0
3, 79200, Note_on_c, 0, 57, 70
3, 79200, Note_on_c, 0, 61, 70
3, 79680, Note_on_c, 0, 61, 0
3, 79680, Note_on_c, 0, 57, 0
3, 79680, Note_on_c, 0, 57, 70
3, 79680, Note_on_c, 0, 63, 70
3, 80160, Note_on_c, 0, 63, 0
3, 80160, Note_on_c, 0, 57, 0
3, 80160, Note_on_c, 0, 57, 70
3, 80160, Note_on_c, 0, 63, 70
3, 80640, Note_on_c, 0, 63, 0
3, 80640, Note_on_c, 0, 57, 0
3, 80640, Note_on_c, 0, 56, 70
3, 80640, Note_on_c, 0, 61, 70
3, 81120, Note_on_c, 0, 61, 0
3, 81120, Note_on_c, 0, 56, 0
3, 81120, Note_on_c, 0, 57, 70
3, 81120, Note_on_c, 0, 61, 70
3, 81120, Note_on_c, 0, 64, 70
3, 81600, Note_on_c, 0, 64, 0
3, 81600, Note_on_c, 0, 61, 0
3, 81600, Note_on_c, 0, 57, 0
3, 81600, Note_on_c, 0, 57, 70
3, 81600, Note_on_c, 0, 63, 70
3, 82080, Note_on_c, 0, 63, 0
3, 82080, Note_on_c, 0, 57, 0
3, 82080, Note_on_c, 0, 56, 70
3, 82080, Note_on_c, 0, 59, 70
3, 82320, Note_on_c, 0, 59, 0
3, 82320, Note_on_c, 0, 56, 0
3, 113520, Control_c, 0, 64, 127
3, 113520, Note_on_c, 0, 77, 44
3, 113760, Note_on_c, 0, 77, 0
3, 113760, Note_on_c, 0, 78, 44
3, 114000, Note_on_c, 0, 78, 0
3, 114000, Note_on_c, 0, 81, 44
3, 114480, Note_on_c, 0, 81, 0
3, 114480, Note_on_c, 0, 74, 44
3, 114720, Note_on_c, 0, 74, 0
3, 114720, Note_on_c, 0, 81, 44
3, 114960, Note_on_c, 0, 81, 0
3, 114960, Control_c, 0, 64, 0
3, 114960, Note_on_c, 0, 79, 44
3, 115200, Note_on_c, 0, 79, 0
3, 115440, Control_c, 0, 64, 127
3, 115440, Note_on_c, 0, 79, 44
3, 115680, Note_on_c, 0, 79, 0
3, 115680, Note_on_c, 0, 72, 44
3, 115920, Note_on_c, 0, 72, 0
3, 115920, Note_on_c, 0, 79, 44
3, 116400, Note_on_c, 0, 79, 0
3, 116400, Note_on_c, 0, 72, 44
3, 116640, Note_on_c, 0, 72, 0
3, 116640, Note_on_c, 0, 79, 44
3, 116880, Note_on_c, 0, 79, 0
3, 116880, Control_c, 0, 64, 0
3, 116880, Note_on_c, 0, 77, 44
3, 117120, Note_on_c, 0, 77, 0
3, 117120, Control_c, 0, 64, 127
3, 117120, Note_on_c, 0, 77, 44
3, 117360, Note_on_c, 0, 77, 0
3, 117360, Note_on_c, 0, 69, 44
3, 117600, Note_on_c, 0, 69, 0
3, 117600, Note_on_c, 0, 77, 44
3, 117840, Note_on_c, 0, 77, 0
3, 117840, Note_on_c, 0, 76, 44
3, 118320, Note_on_c, 0, 76, 0
3, 118320, Note_on_c, 0, 69, 44
3, 118560, Note_on_c, 0, 69, 0
3, 118560, Note_on_c, 0, 76, 44
3, 118800, Note_on_c, 0, 76, 0
3, 118800, Control_c, 0, 64, 0
3, 118800, Note_on_c, 0, 74, 44
3, 119040, Note_on_c, 0, 74, 0
3, 119040, Control_c, 0, 64, 127
3, 119040, Note_on_c, 0, 75, 44
3, 119280, Note_on_c, 0, 75, 0
3, 119280, Note_on_c, 0, 69, 44
3, 119520, Note_on_c, 0, 69, 0
3, 119520, Note_on_c, 0, 75, 44
3, 119760, Note_on_c, 0, 75, 0
3, 119760, Note_on_c, 0, 74, 44
3, 120000, Note_on_c, 0, 74, 0
3, 120000, Note_on_c, 0, 73, 44
3, 120240, Note_on_c, 0, 73, 0
3, 120240, Note_on_c, 0, 67, 44
3, 120480, Note_on_c, 0, 67, 0
3, 120480, Note_on_c, 0, 73, 44
3, 120720, Note_on_c, 0, 73, 0
3, 120720, Control_c, 0, 64, 0
3, 120720, Note_on_c, 0, 74, 44
3, 120960, Note_on_c, 0, 74, 0
3, 146880, Note_on_c, 0, 48, 57
3, 146880, Note_on_c, 0, 52, 57
3, 147360, Note_on_c, 0, 52, 0
3, 147360, Note_on_c, 0, 48, 0
3, 147519, Note_on_c, 0, 50, 57
3, 147680, Note_on_c, 0, 50, 0
3, 147680, Note_on_c, 0, 52, 57
3, 147840, Note_on_c, 0, 52, 0
3, 147840, Note_on_c, 0, 53, 57
3, 147999, Note_on_c, 0, 53, 0
3, 147999, Note_on_c, 0, 52, 57
3, 148160, Note_on_c, 0, 52, 0
3, 148160, Note_on_c, 0, 50, 57
3, 148320, Note_on_c, 0, 50, 0
3, 148320, Note_on_c, 0, 52, 57
3, 148800, Note_on_c, 0, 52, 0
3, 148800, Note_on_c, 0, 52, 57
3, 149439, Note_on_c, 0, 52, 0
3, 149439, Note_on_c, 0, 54, 57
3, 149600, Note_on_c, 0, 54, 0
3, 149600, Note_on_c, 0, 56, 57
3, 149760, Note_on_c, 0, 56, 0
3, 149760, Note_on_c, 0, 57, 57
3, 149919, Note_on_c, 0, 57, 0
3, 149919, Note_on_c, 0, 56, 57
3, 150080, Note_on_c, 0, 56, 0
3, 150080, Note_on_c, 0, 54, 57
3, 150240, Note_on_c, 0, 54, 0
3, 150240, Note_on_c, 0, 56, 57
3, 150720, Note_on_c, 0, 56, 0
3, 152640, Note_on_c, 0, 80, 83
3, 153120, Note_on_c, 0, 80, 0
3, 153120, Note_on_c, 0, 78, 83
3, 153600, Note_on_c, 0, 78, 0
3, 153600, Note_on_c, 0, 76, 83
3, 154080, Note_on_c, 0, 76, 0
3, 160320, Note_on_c, 0, 84, 83
3, 160800, Note_on_c, 0, 84, 0
3, 160800, Note_on_c, 0, 82, 83
3, 161280, Note_on_c, 0, 82, 0
3, 161280, Note_on_c, 0, 80, 83
3, 161760, Note_on_c, 0, 80, 0
3, 162240, Control_c, 0, 64, 127
3, 162240, Note_on_c, 0, 68, 57
3, 162399, Note_on_c, 0, 68, 0
3, 162399, Note_on_c, 0, 70, 57
3, 162560, Note_on_c, 0, 70, 0
3, 162560, Note_on_c, 0, 72, 57
3, 162720, Note_on_c, 0, 72, 0
3, 162720, Note_on_c, 0, 68, 57
3, 162879, Note_on_c, 0, 68, 0
3, 162879, Note_on_c, 0, 67, 57
3, 163040, Note_on_c, 0, 67, 0
3, 163040, Control_c, 0, 64, 0
3, 163040, Note_on_c, 0, 65, 57
3, 163200, Note_on_c, 0, 65, 0
3, 163200, Note_on_c, 0, 63, 57
3, 163231, Note_on_c, 0, 63, 0
3, 163359, Note_on_c, 0, 69, 57
3, 163391, Note_on_c, 0, 69, 0
3, 163520, Note_on_c, 0, 70, 57
3, 163552, Note_on_c, 0, 70, 0
3, 163680, Note_on_c, 0, 63, 57
3, 163711, Note_on_c, 0, 63, 0
3, 163839, Note_on_c, 0, 65, 57
3, 163871, Note_on_c, 0, 65, 0
3, 164000, Note_on_c, 0, 67, 57
3, 164032, Note_on_c, 0, 67, 0
3, 164160, Note_on_c, 0, 67, 57
3, 164191, Note_on_c, 0, 67, 0
3, 164319, Note_on_c, 0, 68, 57
3, 164351, Note_on_c, 0, 68, 0
3, 164480, Note_on_c, 0, 70, 57
3, 164512, Note_on_c, 0, 70, 0
3, 164640, Note_on_c, 0, 63, 57
3, 164671, Note_on_c, 0, 63, 0
3, 164799, Note_on_c, 0, 65, 57
3, 164831, Note_on_c, 0, 65, 0
3, 164960, Note_on_c, 0, 67, 57
3, 164992, Note_on_c, 0, 67, 0
3, 165120, Note_on_c, 0, 68, 57
3, 165151, Note_on_c, 0, 68, 0
3, 165279, Note_on_c, 0, 70, 57
3, 165311, Note_on_c, 0, 70, 0
3, 165440, Note_on_c, 0, 72, 57
3, 165472, Note_on_c, 0, 72, 0
3, 165600, Note_on_c, 0, 63, 57
3, 165631, Note_on_c, 0, 63, 0
3, 165759, Note_on_c, 0, 65, 57
3, 165791, Note_on_c, 0, 65, 0
3, 165920, Note_on_c, 0, 67, 57
3, 165952, Note_on_c, 0, 67, 0
3, 166080, Note_on_c, 0, 68, 57
3, 166111, Note_on_c, 0, 68, 0
3, 166239, Note_on_c, 0, 70, 57
3, 166271, Note_on_c, 0, 70, 0
3, 166400, Note_on_c, 0, 72, 57
3, 166432, Note_on_c, 0, 72, 0
3, 166560, Note_on_c, 0, 72, 57
3, 166591, Note_on_c, 0, 72, 0
3, 166719, Note_on_c, 0, 73, 57
3, 166751, Note_on_c, 0, 73, 0
3, 166880, Note_on_c, 0, 76, 57
3, 166912, Note_on_c, 0, 76, 0
3, 167040, Note_on_c, 0, 70, 57
3, 167071, Note_on_c, 0, 70, 0
3, 167199, Note_on_c, 0, 69, 57
3, 167231, Note_on_c, 0, 69, 0
3, 167360, Note_on_c, 0, 70, 57
3, 167392, Note_on_c, 0, 70, 0
3, 167520, Note_on_c, 0, 73, 57
3, 167551, Note_on_c, 0, 73, 0
3, 167679, Note_on_c, 0, 72, 57
3, 167711, Note_on_c, 0, 72, 0
3, 167840, Note_on_c, 0, 73, 57
3, 167872, Note_on_c, 0, 73, 0
3, 168000, Note_on_c, 0, 70, 57
3, 168031, Note_on_c, 0, 70, 0
3, 168159, Note_on_c, 0, 69, 57
3, 168191, Note_on_c, 0, 69, 0
3, 168320, Note_on_c, 0, 70, 57
3, 168352, Note_on_c, 0, 70, 0
3, 168480, Note_on_c, 0, 73, 57
3, 168511, Note_on_c, 0, 73, 0
3, 168639, Note_on_c, 0, 72, 57
3, 168671, Note_on_c, 0, 72, 0
3, 168800, Note_on_c, 0, 70, 57
3, 168832, Note_on_c, 0, 70, 0
3, 168960, Note_on_c, 0, 63, 57
3, 168991, Note_on_c, 0, 63, 0
3, 169119, Note_on_c, 0, 62, 57
3, 169151, Note_on_c, 0, 62, 0
3, 169280, Note_on_c, 0, 63, 57
3, 169312, Note_on_c, 0, 63, 0
3, 169440, Note_on_c, 0, 73, 57
3, 169471, Note_on_c, 0, 73, 0
3, 169599, Note_on_c, 0, 72, 57
3, 169631, Note_on_c, 0, 72, 0
3, 169760, Note_on_c, 0, 73, 57
3, 169792, Note_on_c, 0, 73, 0
3, 169920, Note_on_c, 0, 72, 57
3, 169951, Note_on_c, 0, 72, 0
3, 170079, Note_on_c, 0, 70, 57
3, 170111, Note_on_c, 0, 70, 0
3, 170240, Note_on_c, 0, 68, 57
3, 170272, Note_on_c, 0, 68, 0
3, 170400, Note_on_c, 0, 68, 57
3, 170431, Note_on_c, 0, 68, 0
3, 170559, Note_on_c, 0, 67, 57
3, 170591, Note_on_c, 0, 67, 0
3, 170720, Note_on_c, 0, 65, 57
3, 170752, Note_on_c, 0, 65, 0
3, 170880, Note_on_c, 0, 63, 57
3, 170911, Note_on_c, 0, 63, 0
3, 171039, Note_on_c, 0, 69, 57
3, 171071, Note_on_c, 0, 69, 0
3, 171200, Note_on_c, 0, 70, 57
3, 171232, Note_on_c, 0, 70, 0
3, 171360, Note_on_c, 0, 63, 57
3, 171391, Note_on_c, 0, 63, 0
3, 171519, Note_on_c, 0, 65, 57
3, 171551, Note_on_c, 0, 65, 0
3, 171680, Note_on_c, 0, 67, 57
3, 171712, Note_on_c, 0, 67, 0
3, 171840, Note_on_c, 0, 67, 57
3, 171871, Note_on_c, 0, 67, 0
3, 171999, Note_on_c, 0, 68, 57
3, 172031, Note_on_c, 0, 68, 0
3, 172160, Note_on_c, 0, 70, 57
3, 172192, Note_on_c, 0, 70, 0
3, 172320, Note_on_c, 0, 63, 57
3, 172351, Note_on_c, 0, 63, 0
3, 172479, Note_on_c, 0, 65, 57
3, 172511, Note_on_c, 0, 65, 0
3, 172640, Note_on_c, 0, 67, 57
3, 172672, Note_on_c, 0, 67, 0
3, 172800, Note_on_c, 0, 68, 57
3, 172831, Note_on_c, 0, 68, 0
3, 172959, Note_on_c, 0, 71, 57
3, 172991, Note_on_c, 0, 71, 0
3, 173120, Note_on_c, 0, 72, 57
3, 173152, Note_on_c, 0, 72, 0
3, 173280, Note_on_c, 0, 63, 57
3, 173311, Note_on_c, 0, 63, 0
3, 173439, Note_on_c, 0, 65, 57
3, 173471, Note_on_c, 0, 65, 0
3, 173600, Note_on_c, 0, 67, 57
3, 173632, Note_on_c, 0, 67, 0
3, 173760, Note_on_c, 0, 68, 57
3, 173791, Note_on_c, 0, 68, 0
3, 173919, Note_on_c, 0, 71, 57
3, 173951, Note_on_c, 0, 71, 0
3, 174080, Note_on_c, 0, 72, 57
3, 174112, Note_on_c, 0, 72, 0
3, 174240, Note_on_c, 0, 72, 57
3, 174271, Note_on_c, 0, 72, 0
3, 174399, Note_on_c, 0, 73, 57
3, 174431, Note_on_c, 0, 73, 0
3, 174560, Note_on_c, 0, 75, 57
3, 174592, Note_on_c, 0, 75, 0
3, 174720, Note_on_c, 0, 70, 57
3, 174751, Note_on_c, 0, 70, 0
3, 174879, Note_on_c, 0, 69, 57
3, 174911, Note_on_c, 0, 69, 0
3, 175040, Note_on_c, 0, 70, 57
3, 175072, Note_on_c, 0, 70, 0
3, 175200, Note_on_c, 0, 73, 57
3, 175231, Note_on_c, 0, 73, 0
3, 175359, Note_on_c, 0, 72, 57
3, 175391, Note_on_c, 0, 72, 0
3, 175520, Note_on_c, 0, 73, 57
3, 175552, Note_on_c, 0, 73, 0
3, 175680, Note_on_c, 0, 70, 57
3, 175711, Note_on_c, 0, 70, 0
3, 175839, Note_on_c, 0, 69, 57
3, 175871, Note_on_c, 0, 69, 0
3, 176000, Note_on_c, 0, 70, 57
3, 176032, Note_on_c, 0, 70, 0
3, 176160, Note_on_c, 0, 75, 57
3, 176191, Note_on_c, 0, 75, 0
3, 176319, Note_on_c, 0, 74, 57
3, 176351, Note_on_c, 0, 74, 0
3, 176480, Note_on_c, 0, 75, 57
3, 176512, Note_on_c, 0, 75, 0
3, 176640, Note_on_c, 0, 75, 57
3, 176671, Note_on_c, 0, 75, 0
3, 176799, Note_on_c, 0, 74, 57
3, 176831, Note_on_c, 0, 74, 0
3, 176960, Note_on_c, 0, 75, 57
3, 176992, Note_on_c, 0, 75, 0
3, 177120, Note_on_c, 0, 75, 57
3, 177151, Note_on_c, 0, 75, 0
3, 177279, Note_on_c, 0, 74, 57
3, 177311, Note_on_c, 0, 74, 0
3, 177440, Note_on_c, 0, 75, 57
3, 177472, Note_on_c, 0, 75, 0
3, 181440, Note_on_c, 0, 60, 83
3, 181599, Note_on_c, 0, 60, 0
3, 181599, Note_on_c, 0, 62, 83
3, 181760, Note_on_c, 0, 62, 0
3, 181760, Note_on_c, 0, 60, 83
3, 181920, Note_on_c, 0, 60, 0
3, 181920, Note_on_c, 0, 59, 83
3, 182079, Note_on_c, 0, 59, 0
3, 182079, Note_on_c, 0, 60, 83
3, 182240, Note_on_c, 0, 60, 0
3, 182240, Note_on_c, 0, 59, 83
3, 182400, Note_on_c, 0, 59, 0
3, 183360, Note_on_c, 0, 70, 83
3, 183519, Note_on_c, 0, 70, 0
3, 183519, Note_on_c, 0, 72, 83
3, 183680, Note_on_c, 0, 72, 0
3, 183680, Note_on_c, 0, 70, 83
3, 183840, Note_on_c, 0, 70, 0
3, 183840, Note_on_c, 0, 69, 83
3, 183999, Note_on_c, 0, 69, 0
3, 183999, Note_on_c, 0, 70, 83
3, 184160, Note_on_c, 0, 70, 0
3, 184160, Note_on_c, 0, 69, 83
3, 184320, Note_on_c, 0, 69, 0
3, 184320, Note_on_c, 0, 67, 83
3, 184479, Note_on_c, 0, 67, 0
3, 184479, Note_on_c, 0, 69, 83
3, 184640, Note_on_c, 0, 69, 0
3, 184640, Note_on_c, 0, 67, 83
3, 184800, Note_on_c, 0, 67, 0
3, 184800, Note_on_c, 0, 72, 83
3, 184959, Note_on_c, 0, 72, 0
3, 184959, Note_on_c, 0, 74, 83
3, 185120, Note_on_c, 0, 74, 0
3, 185120, Note_on_c, 0, 72, 83
3, 185280, Note_on_c, 0, 72, 0
3, 185280, Note_on_c, 0, 70, 83
3, 185520, Note_on_c, 0, 70, 0
3, 189120, Note_on_c, 0, 58, 83
3, 189279, Note_on_c, 0, 58, 0
3, 189279, Note_on_c, 0, 60, 83
3, 189440, Note_on_c, 0, 60, 0
3, 189440, Note_on_c, 0, 58, 83
3, 189600, Note_on_c, 0, 58, 0
3, 189600, Note_on_c, 0, 58, 83
3, 189759, Note_on_c, 0, 58, 0
3, 189759, Note_on_c, 0, 57, 83
3, 189920, Note_on_c, 0, 57, 0
3, 189920, Note_on_c, 0, 58, 83
3, 190080, Note_on_c, 0, 58, 0
3, 191040, Note_on_c, 0, 69, 83
3, 191199, Note_on_c, 0, 69, 0
3, 191199, Note_on_c, 0, 70, 83
3, 191360, Note_on_c, 0, 70, 0
3, 191360, Note_on_c, 0, 69, 83
3, 191520, Note_on_c, 0, 69, 0
3, 191520, Note_on_c, 0, 67, 83
3, 191679, Note_on_c, 0, 67, 0
3, 191679, Note_on_c, 0, 69, 83
3, 191840, Note_on_c, 0, 69, 0
3, 191840, Note_on_c, 0, 67, 83
3, 192000, Note_on_c, 0, 67, 0
3, 192000, Note_on_c, 0, 65, 83
3, 192159, Note_on_c, 0, 65, 0
3, 192159, Note_on_c, 0, 67, 83
3, 192320, Note_on_c, 0, 67, 0
3, 192320, Note_on_c, 0, 65, 83
3, 192480, Note_on_c, 0, 65, 0
3, 192480, Note_on_c, 0, 70, 83
3, 192639, Note_on_c, 0, 70, 0
3, 192639, Note_on_c, 0, 72, 83
3, 192800, Note_on_c, 0, 72, 0
3, 192800, Note_on_c, 0, 70, 83
3, 192960, Note_on_c, 0, 70, 0
3, 192960, Note_on_c, 0, 69, 83
3, 193200, Note_on_c, 0, 69, 0
3, 193920, Note_on_c, 0, 74, 83
3, 194880, Note_on_c, 0, 74, 0
3, 194880, End_track
4, 0, Start_track
4, 0, Title_t, "Grand Piano"
4, 0, Program_c, 0, 0
4, 0, Control_c, 0, 7, 115
4, 0, Control_c, 0, 10, 41
4, 0, Note_on_c, 0, 45, 78
4, 639, Note_on_c, 0, 45, 0
4, 639, Note_on_c, 0, 47, 78
4, 800, Note_on_c, 0, 47, 0
4, 800, Note_on_c, 0, 49, 78
4, 960, Note_on_c, 0, 49, 0
4, 960, Note_on_c, 0, 50, 78
4, 1119, Note_on_c, 0, 50, 0
4, 1119, Note_on_c, 0, 49, 78
4, 1280, Note_on_c, 0, 49, 0
4, 1280, Note_on_c, 0, 47, 78
4, 1440, Note_on_c, 0, 47, 0
4, 1440, Note_on_c, 0, 49, 78
4, 1920, Note_on_c, 0, 49, 0
4, 1920, Note_on_c, 0, 49, 78
4, 2559, Note_on_c, 0, 49, 0
4, 2559, Note_on_c, 0, 50, 78
4, 2720, Note_on_c, 0, 50, 0
4, 2720, Note_on_c, 0, 52, 78
4, 2880, Note_on_c, 0, 52, 0
4, 2880, Note_on_c, 0, 54, 78
4, 3039, Note_on_c, 0, 54, 0
4, 3039, Note_on_c, 0, 52, 78
4, 3200, Note_on_c, 0, 52, 0
4, 3200, Note_on_c, 0, 50, 78
4, 3360, Note_on_c, 0, 50, 0
4, 3360, Note_on_c, 0, 52, 78
4, 3840, Note_on_c, 0, 52, 0
4, 3840, Note_on_c, 0, 43, 78
4, 4320, Note_on_c, 0, 43, 0
4, 4320, Note_on_c, 0, 42, 78
4, 4800, Note_on_c, 0, 42, 0
4, 4800, Note_on_c, 0, 47, 78
4, 5280, Note_on_c, 0, 47, 0
4, 5280, Note_on_c, 0, 40, 78
4, 5760, Note_on_c, 0, 40, 0
4, 5760, Note_on_c, 0, 45, 78
4, 6240, Note_on_c, 0, 45, 0
4, 6240, Note_on_c, 0, 42, 78
4, 6720, Note_on_c, 0, 42, 0
4, 6720, Note_on_c, 0, 49, 78
4, 7200, Note_on_c, 0, 49, 0
4, 7680, Note_on_c, 0, 45, 78
4, 8319, Note_on_c, 0, 45, 0
4, 8319, Note_on_c, 0, 47, 78
4, 8480, Note_on_c, 0, 47, 0
4, 8480, Note_on_c, 0, 49, 78
4, 8640, Note_on_c, 0, 49, 0
4, 8640, Note_on_c, 0, 50, 78
4, 8799, Note_on_c, 0, 50, 0
4, 8799, Note_on_c, 0, 49, 78
4, 8960, Note_on_c, 0, 49, 0
4, 8960, Note_on_c, 0, 47, 78
4, 9120, Note_on_c, 0, 47, 0
4, 9120, Note_on_c, 0, 49, 78
4, 9600, Note_on_c, 0, 49, 0
4, 9600, Note_on_c, 0, 49, 78
4, 10239, Note_on_c, 0, 49, 0
4, 10239, Note_on_c, 0, 50, 78
4, 10400, Note_on_c, 0, 50, 0
4, 10400, Note_on_c, 0, 52, 78
4, 10560, Note_on_c, 0, 52, 0
4, 10560, Note_on_c, 0, 54, 78
4, 10719, Note_on_c, 0, 54, 0
4, 10719, Note_on_c, 0, 52, 78
4, 10880, Note_on_c, 0, 52, 0
4, 10880, Note_on_c, 0, 50, 78
4, 11040, Note_on_c, 0, 50, 0
4, 11040, Note_on_c, 0, 52, 78
4, 11520, Note_on_c, 0, 52, 0
4, 11520, Note_on_c, 0, 44, 78
4, 12000, Note_on_c, 0, 44, 0
4, 12000, Note_on_c, 0, 42, 78
4, 12480, Note_on_c, 0, 42, 0
4, 12480, Note_on_c, 0, 47, 78
4, 12960, Note_on_c, 0, 47, 0
4, 12960, Note_on_c, 0, 48, 78
4, 13440, Note_on_c, 0, 48, 0
4, 13440, Note_on_c, 0, 49, 78
4, 13920, Note_on_c, 0, 49, 0
4, 13920, Note_on_c, 0, 42, 78
4, 14400, Note_on_c, 0, 42, 0
4, 14400, Note_on_c, 0, 47, 78
4, 14880, Note_on_c, 0, 47, 0
4, 14880, Note_on_c, 0, 52, 78
4, 15039, Note_on_c, 0, 52, 0
4, 15039, Note_on_c, 0, 50, 78
4, 15200, Note_on_c, 0, 50, 0
4, 15200, Note_on_c, 0, 47, 78
4, 15360, Note_on_c, 0, 47, 0
4, 15360, Note_on_c, 0, 45, 78
4, 15999, Note_on_c, 0, 45, 0
4, 15999, Note_on_c, 0, 47, 78
4, 16160, Note_on_c, 0, 47, 0
4, 16160, Note_on_c, 0, 49, 78
4, 16320, Note_on_c, 0, 49, 0
4, 16320, Note_on_c, 0, 50, 78
4, 16479, Note_on_c, 0, 50, 0
4, 16479, Note_on_c, 0, 49, 78
4, 16640, Note_on_c, 0, 49, 0
4, 16640, Note_on_c, 0, 47, 78
4, 16800, Note_on_c, 0, 47, 0
4, 16800, Note_on_c, 0, 49, 78
4, 17280, Note_on_c, 0, 49, 0
4, 17280, Note_on_c, 0, 49, 78
4, 17919, Note_on_c, 0, 49, 0
4, 17919, Note_on_c, 0, 50, 78
4, 18080, Note_on_c, 0, 50, 0
4, 18080, Note_on_c, 0, 52, 78
4, 18240, Note_on_c, 0, 52, 0
4, 18240, Note_on_c, 0, 54, 78
4, 18399, Note_on_c, 0, 54, 0
4, 18399, Note_on_c, 0, 52, 78
4, 18560, Note_on_c, 0, 52, 0
4, 18560, Note_on_c, 0, 50, 78
4, 18720, Note_on_c, 0, 50, 0
4, 18720, Note_on_c, 0, 52, 78
4, 19200, Note_on_c, 0, 52, 0
4, 19200, Note_on_c, 0, 43, 78
4, 19680, Note_on_c, 0, 43, 0
4, 19680, Note_on_c, 0, 42, 78
4, 20160, Note_on_c, 0, 42, 0
4, 20160, Note_on_c, 0, 47, 78
4, 20640, Note_on_c, 0, 47, 0
4, 20640, Note_on_c, 0, 40, 78
4, 21120, Note_on_c, 0, 40, 0
4, 21120, Note_on_c, 0, 45, 78
4, 21600, Note_on_c, 0, 45, 0
4, 21600, Note_on_c, 0, 42, 78
4, 22080, Note_on_c, 0, 42, 0
4, 22080, Note_on_c, 0, 49, 78
4, 22560, Note_on_c, 0, 49, 0
4, 22560, Note_on_c, 0, 64, 78
4, 22719, Note_on_c, 0, 64, 0
4, 22719, Note_on_c, 0, 63, 78
4, 22880, Note_on_c, 0, 63, 0
4, 22880, Note_on_c, 0, 61, 78
4, 23040, Note_on_c, 0, 61, 0
4, 23040, Note_on_c, 0, 54, 39
4, 23040, Note_on_c, 0, 57, 39
4, 23040, Note_on_c, 0, 61, 39
4, 23040, Note_on_c, 0, 63, 39
4, 23280, Note_on_c, 0, 63, 0
4, 23280, Note_on_c, 0, 54, 0
4, 23280, Note_on_c, 0, 57, 0
4, 23280, Note_on_c, 0, 61, 0
4, 23430, Note_on_c, 0, 49, 39
4, 23460, Note_on_c, 0, 56, 39
4, 23490, Note_on_c, 0, 61, 39
4, 23520, Note_on_c, 0, 64, 39
4, 23760, Note_on_c, 0, 64, 0
4, 23760, Note_on_c, 0, 49, 0
4, 23760, Note_on_c, 0, 56, 0
4, 23760, Note_on_c, 0, 61, 0
4, 24000, Note_on_c, 0, 54, 39
4, 24000, Note_on_c, 0, 57, 39
4, 24000, Note_on_c, 0, 61, 39
4, 24000, Note_on_c, 0, 63, 39
4, 24240, Note_on_c, 0, 63, 0
4, 24240, Note_on_c, 0, 54, 0
4, 24240, Note_on_c, 0, 57, 0
4, 24240, Note_on_c, 0, 61, 0
4, 24390, Note_on_c, 0, 49, 39
4, 24420, Note_on_c, 0, 56, 39
4, 24450, Note_on_c, 0, 61, 39
4, 24480, Note_on_c, 0, 64, 39
4, 24720, Note_on_c, 0, 64, 0
4, 24720, Note_on_c, 0, 49, 0
4, 24720, Note_on_c, 0, 56, 0
4, 24720, Note_on_c, 0, 61, 0
4, 24960, Note_on_c, 0, 54, 39
4, 24960, Note_on_c, 0, 61, 39
4, 24960, Note_on_c, 0, 63, 39
4, 25200, Note_on_c, 0, 63, 0
4, 25200, Note_on_c, 0, 61, 0
4, 25200, Note_on_c, 0, 54, 0
4, 25440, Note_on_c, 0, 56, 39
4, 25440, Note_on_c, 0, 61, 39
4, 25440, Note_on_c, 0, 64, 39
4, 25680, Note_on_c, 0, 64, 0
4, 25680, Note_on_c, 0, 61, 0
4, 25680, Note_on_c, 0, 56, 0
4, 25920, Note_on_c, 0, 56, 39
4, 25920, Note_on_c, 0, 63, 39
4, 25920, Note_on_c, 0, 66, 39
4, 26160, Note_on_c, 0, 66, 0
4, 26160, Note_on_c, 0, 63, 0
4, 26160, Note_on_c, 0, 56, 0
4, 26400, Note_on_c, 0, 61, 39
4, 26400, Note_on_c, 0, 64, 39
4, 26640, Note_on_c, 0, 64, 0
4, 26640, Note_on_c, 0, 61, 0
4, 26880, Note_on_c, 0, 62, 39
4, 26880, Note_on_c, 0, 64, 39
4, 26880, Note_on_c, 0, 68, 39
4, 27120, Note_on_c, 0, 68, 0
4, 27120, Note_on_c, 0, 64, 0
4, 27120, Note_on_c, 0, 62, 0
4, 27360, Note_on_c, 0, 61, 39
4, 27360, Note_on_c, 0, 64, 39
4, 27360, Note_on_c, 0, 69, 39
4, 27600, Note_on_c, 0, 69, 0
4, 27600, Note_on_c, 0, 64, 0
4, 27600, Note_on_c, 0, 61, 0
4, 27840, Note_on_c, 0, 56, 39
4, 27840, Note_on_c, 0, 59, 39
4, 27840, Note_on_c, 0, 64, 39
4, 28080, Note_on_c, 0, 64, 0
4, 28080, Note_on_c, 0, 59, 0
4, 28080, Note_on_c, 0, 56, 0
4, 28320, Note_on_c, 0, 57, 39
4, 28320, Note_on_c, 0, 61, 39
4, 28320, Note_on_c, 0, 64, 39
4, 28560, Note_on_c, 0, 64, 0
4, 28560, Note_on_c, 0, 61, 0
4, 28560, Note_on_c, 0, 57, 0
4, 28800, Note_on_c, 0, 59, 39
4, 28800, Note_on_c, 0, 66, 39
4, 28800, Note_on_c, 0, 68, 39
4, 29040, Note_on_c, 0, 68, 0
4, 29040, Note_on_c, 0, 66, 0
4, 29040, Note_on_c, 0, 59, 0
4, 29280, Note_on_c, 0, 61, 39
4, 29280, Note_on_c, 0, 66, 39
4, 29280, Note_on_c, 0, 69, 39
4, 29520, Note_on_c, 0, 69, 0
4, 29520, Note_on_c, 0, 66, 0
4, 29520, Note_on_c, 0, 61, 0
4, 29760, Note_on_c, 0, 61, 39
4, 29760, Note_on_c, 0, 68, 39
4, 30000, Note_on_c, 0, 68, 0
4, 30000, Note_on_c, 0, 61, 0
4, 30240, Note_on_c, 0, 54, 39
4, 30240, Note_on_c, 0, 66, 39
4, 30480, Note_on_c, 0, 66, 0
4, 30480, Note_on_c, 0, 54, 0
4, 30720, Note_on_c, 0, 55, 39
4, 30720, Note_on_c, 0, 57, 39
4, 30720, Note_on_c, 0, 61, 39
4, 30960, Note_on_c, 0, 61, 0
4, 30960, Note_on_c, 0, 57, 0
4, 30960, Note_on_c, 0, 55, 0
4, 31200, Note_on_c, 0, 54, 39
4, 31200, Note_on_c, 0, 57, 39
4, 31200, Note_on_c, 0, 62, 39
4, 31440, Note_on_c, 0, 62, 0
4, 31440, Note_on_c, 0, 57, 0
4, 31440, Note_on_c, 0, 54, 0
4, 31680, Note_on_c, 0, 49, 39
4, 31680, Note_on_c, 0, 52, 39
4, 31680, Note_on_c, 0, 57, 39
4, 31920, Note_on_c, 0, 57, 0
4, 31920, Note_on_c, 0, 52, 0
4, 31920, Note_on_c, 0, 49, 0
4, 32160, Note_on_c, 0, 50, 39
4, 32160, Note_on_c, 0, 54, 39
4, 32160, Note_on_c, 0, 57, 39
4, 32400, Note_on_c, 0, 57, 0
4, 32400, Note_on_c, 0, 54, 0
4, 32400, Note_on_c, 0, 50, 0
4, 32640, Note_on_c, 0, 43, 39
4, 32640, Note_on_c, 0, 47, 39
4, 32640, Note_on_c, 0, 52, 39
4, 32880, Note_on_c, 0, 52, 0
4, 32880, Note_on_c, 0, 47, 0
4, 32880, Note_on_c, 0, 43, 0
4, 33120, Note_on_c, 0, 45, 39
4, 33120, Note_on_c, 0, 50, 39
4, 33120, Note_on_c, 0, 54, 39
4, 33360, Note_on_c, 0, 54, 0
4, 33360, Note_on_c, 0, 50, 0
4, 33360, Note_on_c, 0, 45, 0
4, 33600, Note_on_c, 0, 45, 39
4, 33600, Note_on_c, 0, 49, 39
4, 33600, Note_on_c, 0, 52, 39
4, 33840, Note_on_c, 0, 52, 0
4, 33840, Note_on_c, 0, 49, 0
4, 33840, Note_on_c, 0, 45, 0
4, 34560, Note_on_c, 0, 50, 65
4, 35520, Note_on_c, 0, 50, 0
4, 35520, Note_on_c, 0, 48, 65
4, 36000, Note_on_c, 0, 48, 0
4, 36000, Note_on_c, 0, 47, 39
4, 36360, Note_on_c, 0, 47, 0
4, 36360, Note_on_c, 0, 45, 39
4, 36480, Note_on_c, 0, 45, 0
4, 36480, Note_on_c, 0, 52, 39
4, 37440, Note_on_c, 0, 52, 0
4, 37440, Note_on_c, 0, 47, 39
4, 37920, Note_on_c, 0, 47, 0
4, 37920, Note_on_c, 0, 57, 39
4, 38400, Note_on_c, 0, 57, 0
4, 38400, Note_on_c, 0, 52, 39
4, 38400, Note_on_c, 0, 55, 39
4, 38400, Note_on_c, 0, 59, 39
4, 39360, Note_on_c, 0, 59, 0
4, 39360, Note_on_c, 0, 55, 0
4, 39360, Note_on_c, 0, 52, 0
4, 39360, Note_on_c, 0, 50, 65
4, 39360, Note_on_c, 0, 56, 65
4, 39840, Note_on_c, 0, 56, 0
4, 39840, Note_on_c, 0, 50, 0
4, 39840, Note_on_c, 0, 48, 39
4, 40200, Note_on_c, 0, 48, 0
4, 40200, Note_on_c, 0, 47, 39
4, 40320, Note_on_c, 0, 47, 0
4, 40320, Note_on_c, 0, 45, 65
4, 40320, Note_on_c, 0, 54, 65
4, 41280, Note_on_c, 0, 54, 0
4, 41280, Note_on_c, 0, 45, 0
4, 41280, Note_on_c, 0, 49, 65
4, 41760, Note_on_c, 0, 49, 0
4, 41760, Note_on_c, 0, 59, 65
4, 42240, Note_on_c, 0, 59, 0
4, 42240, Note_on_c, 0, 54, 65
4, 42240, Note_on_c, 0, 57, 65
4, 43680, Note_on_c, 0, 57, 0
4, 43680, Note_on_c, 0, 54, 0
4, 43680, Note_on_c, 0, 57, 65
4, 44160, Note_on_c, 0, 57, 0
4, 44160, Note_on_c, 0, 47, 52
4, 44640, Note_on_c, 0, 47, 0
4, 44640, Note_on_c, 0, 55, 52
4, 45120, Note_on_c, 0, 55, 0
4, 45120, Note_on_c, 0, 53, 78
4, 45600, Note_on_c, 0, 53, 0
4, 45600, Note_on_c, 0, 52, 52
4, 45960, Note_on_c, 0, 52, 0
4, 45960, Note_on_c, 0, 50, 52
4, 46080, Note_on_c, 0, 50, 0
4, 46080, Note_on_c, 0, 49, 52
4, 46560, Note_on_c, 0, 49, 0
4, 46560, Note_on_c, 0, 57, 52
4, 47040, Note_on_c, 0, 57, 0
4, 47040, Note_on_c, 0, 55, 78
4, 47520, Note_on_c, 0, 55, 0
4, 47520, Note_on_c, 0, 54, 52
4, 47880, Note_on_c, 0, 54, 0
4, 47880, Note_on_c, 0, 52, 52
4, 48000, Note_on_c, 0, 52, 0
4, 48000, Note_on_c, 0, 50, 78
4, 48240, Note_on_c, 0, 50, 0
4, 48240, Note_on_c, 0, 47, 78
4, 48480, Note_on_c, 0, 47, 0
4, 48480, Note_on_c, 0, 55, 78
4, 48720, Note_on_c, 0, 55, 0
4, 48720, Note_on_c, 0, 53, 78
4, 48960, Note_on_c, 0, 53, 0
4, 48960, Note_on_c, 0, 52, 78
4, 49200, Note_on_c, 0, 52, 0
4, 49200, Note_on_c, 0, 48, 78
4, 49440, Note_on_c, 0, 48, 0
4, 49440, Note_on_c, 0, 57, 78
4, 49680, Note_on_c, 0, 57, 0
4, 49680, Note_on_c, 0, 55, 78
4, 49920, Note_on_c, 0, 55, 0
4, 49920, Note_on_c, 0, 54, 78
4, 50160, Note_on_c, 0, 54, 0
4, 50160, Note_on_c, 0, 50, 78
4, 50400, Note_on_c, 0, 50, 0
4, 50400, Note_on_c, 0, 59, 78
4, 50640, Note_on_c, 0, 59, 0
4, 50640, Note_on_c, 0, 57, 78
4, 50880, Note_on_c, 0, 57, 0
4, 50880, Note_on_c, 0, 55, 78
4, 51120, Note_on_c, 0, 55, 0
4, 51120, Note_on_c, 0, 52, 78
4, 51360, Note_on_c, 0, 52, 0
4, 51360, Note_on_c, 0, 61, 78
4, 51600, Note_on_c, 0, 61, 0
4, 51600, Note_on_c, 0, 59, 78
4, 51840, Note_on_c, 0, 59, 0
4, 51840, Note_on_c, 0, 57, 78
4, 52080, Note_on_c, 0, 57, 0
4, 52080, Note_on_c, 0, 54, 78
4, 52320, Note_on_c, 0, 54, 0
4, 52320, Note_on_c, 0, 61, 78
4, 52560, Note_on_c, 0, 61, 0
4, 52560, Note_on_c, 0, 59, 78
4, 52800, Note_on_c, 0, 59, 0
4, 52800, Note_on_c, 0, 57, 78
4, 53040, Note_on_c, 0, 57, 0
4, 53040, Note_on_c, 0, 54, 78
4, 53280, Note_on_c, 0, 54, 0
4, 53280, Note_on_c, 0, 61, 78
4, 53520, Note_on_c, 0, 61, 0
4, 53520, Note_on_c, 0, 59, 78
4, 53760, Note_on_c, 0, 59, 0
4, 53760, Note_on_c, 0, 45, 78
4, 53760, Note_on_c, 0, 49, 78
4, 53760, Note_on_c, 0, 54, 78
4, 53760, Note_on_c, 0, 57, 78
4, 54720, Note_on_c, 0, 57, 0
4, 54720, Note_on_c, 0, 45, 0
4, 54720, Note_on_c, 0, 49, 0
4, 54720, Note_on_c, 0, 54, 0
4, 54720, Note_on_c, 0, 45, 78
4, 54720, Note_on_c, 0, 52, 78
4, 54720, Note_on_c, 0, 56, 78
4, 55680, Note_on_c, 0, 56, 0
4, 55680, Note_on_c, 0, 52, 0
4, 55680, Note_on_c, 0, 45, 0
4, 55680, Note_on_c, 0, 33, 91
4, 55680, Note_on_c, 0, 45, 91
4, 55839, Note_on_c, 0, 45, 0
4, 55839, Note_on_c, 0, 33, 0
4, 55839, Note_on_c, 0, 49, 91
4, 55839, Note_on_c, 0, 57, 91
4, 56000, Note_on_c, 0, 57, 0
4, 56000, Note_on_c, 0, 49, 0
4, 56000, Note_on_c, 0, 52, 91
4, 56000, Note_on_c, 0, 59, 91
4, 56160, Note_on_c, 0, 59, 0
4, 56160, Note_on_c, 0, 52, 0
4, 56160, Note_on_c, 0, 57, 91
4, 56160, Note_on_c, 0, 61, 91
4, 56480, Note_on_c, 0, 61, 0
4, 56480, Note_on_c, 0, 57, 0
4, 56480, Note_on_c, 0, 59, 91
4, 56480, Note_on_c, 0, 62, 91
4, 56640, Note_on_c, 0, 62, 0
4, 56640, Note_on_c, 0, 59, 0
4, 56640, Note_on_c, 0, 61, 91
4, 56640, Note_on_c, 0, 64, 91
4, 56960, Note_on_c, 0, 64, 0
4, 56960, Note_on_c, 0, 61, 0
4, 56960, Note_on_c, 0, 57, 91
4, 56960, Note_on_c, 0, 61, 91
4, 57120, Note_on_c, 0, 61, 0
4, 57120, Note_on_c, 0, 57, 0
4, 57120, Note_on_c, 0, 61, 91
4, 57120, Note_on_c, 0, 64, 91
4, 57600, Note_on_c, 0, 64, 0
4, 57600, Note_on_c, 0, 61, 0
4, 57600, Note_on_c, 0, 46, 91
4, 57600, Note_on_c, 0, 58, 91
4, 58080, Note_on_c, 0, 58, 0
4, 58080, Note_on_c, 0, 46, 0
4, 58080, Note_on_c, 0, 43, 91
4, 58080, Note_on_c, 0, 55, 91
4, 58560, Note_on_c, 0, 55, 0
4, 58560, Note_on_c, 0, 43, 0
4, 58560, Note_on_c, 0, 40, 91
4, 58560, Note_on_c, 0, 52, 91
4, 59040, Note_on_c, 0, 52, 0
4, 59040, Note_on_c, 0, 40, 0
4, 59040, Note_on_c, 0, 34, 91
4, 59040, Note_on_c, 0, 46, 91
4, 59520, Note_on_c, 0, 46, 0
4, 59520, Note_on_c, 0, 34, 0
4, 59520, Note_on_c, 0, 33, 91
4, 59520, Note_on_c, 0, 45, 91
4, 59679, Note_on_c, 0, 45, 0
4, 59679, Note_on_c, 0, 33, 0
4, 59679, Note_on_c, 0, 49, 91
4, 59679, Note_on_c, 0, 57, 91
4, 59840, Note_on_c, 0, 57, 0
4, 59840, Note_on_c, 0, 49, 0
4, 59840, Note_on_c, 0, 52, 91
4, 59840, Note_on_c, 0, 59, 91
4, 60000, Note_on_c, 0, 59, 0
4, 60000, Note_on_c, 0, 52, 0
4, 60000, Note_on_c, 0, 57, 91
4, 60000, Note_on_c, 0, 61, 91
4, 60320, Note_on_c, 0, 61, 0
4, 60320, Note_on_c, 0, 57, 0
4, 60320, Note_on_c, 0, 59, 91
4, 60320, Note_on_c, 0, 62, 91
4, 60480, Note_on_c, 0, 62, 0
4, 60480, Note_on_c, 0, 59, 0
4, 60480, Note_on_c, 0, 61, 91
4, 60480, Note_on_c, 0, 64, 91
4, 60800, Note_on_c, 0, 64, 0
4, 60800, Note_on_c, 0, 61, 0
4, 60800, Note_on_c, 0, 57, 91
4, 60800, Note_on_c, 0, 61, 91
4, 60960, Note_on_c, 0, 61, 0
4, 60960, Note_on_c, 0, 57, 0
4, 60960, Note_on_c, 0, 61, 91
4, 60960, Note_on_c, 0, 64, 91
4, 61440, Note_on_c, 0, 64, 0
4, 61440, Note_on_c, 0, 61, 0
4, 61440, Note_on_c, 0, 46, 91
4, 61440, Note_on_c, 0, 58, 91
4, 61920, Note_on_c, 0, 58, 0
4, 61920, Note_on_c, 0, 46, 0
4, 61920, Note_on_c, 0, 43, 91
4, 61920, Note_on_c, 0, 55, 91
4, 62400, Note_on_c, 0, 55, 0
4, 62400, Note_on_c, 0, 43, 0
4, 62400, Note_on_c, 0, 40, 91
4, 62400, Note_on_c, 0, 52, 91
4, 62880, Note_on_c, 0, 52, 0
4, 62880, Note_on_c, 0, 40, 0
4, 62880, Note_on_c, 0, 34, 91
4, 62880, Note_on_c, 0, 46, 91
4, 63360, Note_on_c, 0, 46, 0
4, 63360, Note_on_c, 0, 34, 0
4, 63360, Note_on_c, 0, 33, 91
4, 63360, Note_on_c, 0, 45, 91
4, 63519, Note_on_c, 0, 45, 0
4, 63519, Note_on_c, 0, 33, 0
4, 63519, Note_on_c, 0, 49, 91
4, 63519, Note_on_c, 0, 57, 91
4, 63680, Note_on_c, 0, 57, 0
4, 63680, Note_on_c, 0, 49, 0
4, 63680, Note_on_c, 0, 52, 91
4, 63680, Note_on_c, 0, 59, 91
4, 63840, Note_on_c, 0, 59, 0
4, 63840, Note_on_c, 0, 52, 0
4, 63840, Note_on_c, 0, 57, 91
4, 63840, Note_on_c, 0, 61, 91
4, 64160, Note_on_c, 0, 61, 0
4, 64160, Note_on_c, 0, 57, 0
4, 64160, Note_on_c, 0, 59, 91
4, 64160, Note_on_c, 0, 62, 91
4, 64320, Note_on_c, 0, 62, 0
4, 64320, Note_on_c, 0, 59, 0
4, 64320, Note_on_c, 0, 61, 91
4, 64320, Note_on_c, 0, 64, 91
4, 64479, Note_on_c, 0, 64, 0
4, 64479, Note_on_c, 0, 61, 0
4, 64479, Note_on_c, 0, 57, 91
4, 64479, Note_on_c, 0, 61, 91
4, 64640, Note_on_c, 0, 61, 0
4, 64640, Note_on_c, 0, 57, 0
4, 64640, Note_on_c, 0, 57, 91
4, 64640, Note_on_c, 0, 61, 91
4, 64800, Note_on_c, 0, 61, 0
4, 64800, Note_on_c, 0, 57, 0
4, 64800, Note_on_c, 0, 61, 91
4, 64800, Note_on_c, 0, 64, 91
4, 64959, Note_on_c, 0, 64, 0
4, 64959, Note_on_c, 0, 61, 0
4, 64959, Note_on_c, 0, 57, 91
4, 64959, Note_on_c, 0, 61, 91
4, 65120, Note_on_c, 0, 61, 0
4, 65120, Note_on_c, 0, 57, 0
4, 65120, Note_on_c, 0, 57, 91
4, 65120, Note_on_c, 0, 61, 91
4, 65280, Note_on_c, 0, 61, 0
4, 65280, Note_on_c, 0, 57, 0
4, 65280, Note_on_c, 0, 61, 91
4, 65280, Note_on_c, 0, 64, 91
4, 65439, Note_on_c, 0, 64, 0
4, 65439, Note_on_c, 0, 61, 0
4, 65439, Note_on_c, 0, 57, 91
4, 65439, Note_on_c, 0, 61, 91
4, 65600, Note_on_c, 0, 61, 0
4, 65600, Note_on_c, 0, 57, 0
4, 65600, Note_on_c, 0, 57, 91
4, 65600, Note_on_c, 0, 61, 91
4, 65760, Note_on_c, 0, 61, 0
4, 65760, Note_on_c, 0, 57, 0
4, 65760, Note_on_c, 0, 61, 91
4, 65760, Note_on_c, 0, 64, 91
4, 65919, Note_on_c, 0, 64, 0
4, 65919, Note_on_c, 0, 61, 0
4, 65919, Note_on_c, 0, 57, 91
4, 65919, Note_on_c, 0, 61, 91
4, 66080, Note_on_c, 0, 61, 0
4, 66080, Note_on_c, 0, 57, 0
4, 66080, Note_on_c, 0, 57, 91
4, 66080, Note_on_c, 0, 61, 91
4, 66240, Note_on_c, 0, 61, 0
4, 66240, Note_on_c, 0, 57, 0
4, 66240, Note_on_c, 0, 61, 91
4, 66240, Note_on_c, 0, 64, 91
4, 66399, Note_on_c, 0, 64, 0
4, 66399, Note_on_c, 0, 61, 0
4, 66399, Note_on_c, 0, 57, 91
4, 66399, Note_on_c, 0, 61, 91
4, 66560, Note_on_c, 0, 61, 0
4, 66560, Note_on_c, 0, 57, 0
4, 66560, Note_on_c, 0, 57, 91
4, 66560, Note_on_c, 0, 61, 91
4, 66720, Note_on_c, 0, 61, 0
4, 66720, Note_on_c, 0, 57, 0
4, 66720, Note_on_c, 0, 61, 91
4, 66720, Note_on_c, 0, 64, 91
4, 66879, Note_on_c, 0, 64, 0
4, 66879, Note_on_c, 0, 61, 0
4, 66879, Note_on_c, 0, 57, 91
4, 66879, Note_on_c, 0, 61, 91
4, 67040, Note_on_c, 0, 61, 0
4, 67040, Note_on_c, 0, 57, 0
4, 67040, Note_on_c, 0, 57, 91
4, 67040, Note_on_c, 0, 61, 91
4, 67200, Note_on_c, 0, 61, 0
4, 67200, Note_on_c, 0, 57, 0
4, 67200, Note_on_c, 0, 45, 78
4, 67839, Note_on_c, 0, 45, 0
4, 67839, Note_on_c, 0, 47, 78
4, 68000, Note_on_c, 0, 47, 0
4, 68000, Note_on_c, 0, 49, 78
4, 68160, Note_on_c, 0, 49, 0
4, 68160, Note_on_c, 0, 50, 78
4, 68319, Note_on_c, 0, 50, 0
4, 68319, Note_on_c, 0, 49, 78
4, 68480, Note_on_c, 0, 49, 0
4, 68480, Note_on_c, 0, 47, 78
4, 68640, Note_on_c, 0, 47, 0
4, 68640, Note_on_c, 0, 49, 78
4, 69120, Note_on_c, 0, 49, 0
4, 69120, Note_on_c, 0, 49, 78
4, 69759, Note_on_c, 0, 49, 0
4, 69759, Note_on_c, 0, 50, 78
4, 69920, Note_on_c, 0, 50, 0
4, 69920, Note_on_c, 0, 52, 78
4, 70080, Note_on_c, 0, 52, 0
4, 70080, Note_on_c, 0, 54, 78
4, 70239, Note_on_c, 0, 54, 0
4, 70239, Note_on_c, 0, 52, 78
4, 70400, Note_on_c, 0, 52, 0
4, 70400, Note_on_c, 0, 50, 78
4, 70560, Note_on_c, 0, 50, 0
4, 70560, Note_on_c, 0, 52, 78
4, 71040, Note_on_c, 0, 52, 0
4, 71040, Note_on_c, 0, 43, 78
4, 71520, Note_on_c, 0, 43, 0
4, 71520, Note_on_c, 0, 42, 78
4, 72000, Note_on_c, 0, 42, 0
4, 72000, Note_on_c, 0, 47, 78
4, 72480, Note_on_c, 0, 47, 0
4, 72480, Note_on_c, 0, 40, 78
4, 72960, Note_on_c, 0, 40, 0
4, 72960, Note_on_c, 0, 45, 78
4, 73440, Note_on_c, 0, 45, 0
4, 73440, Note_on_c, 0, 42, 78
4, 73920, Note_on_c, 0, 42, 0
4, 73920, Note_on_c, 0, 49, 78
4, 74400, Note_on_c, 0, 49, 0
4, 74880, Note_on_c, 0, 45, 78
4, 75519, Note_on_c, 0, 45, 0
4, 75519, Note_on_c, 0, 47, 78
4, 75680, Note_on_c, 0, 47, 0
4, 75680, Note_on_c, 0, 49, 78
4, 75840, Note_on_c, 0, 49, 0
4, 75840, Note_on_c, 0, 50, 78
4, 75999, Note_on_c, 0, 50, 0
4, 75999, Note_on_c, 0, 49, 78
4, 76160, Note_on_c, 0, 49, 0
4, 76160, Note_on_c, 0, 47, 78
4, 76320, Note_on_c, 0, 47, 0
4, 76320, Note_on_c, 0, 49, 78
4, 76800, Note_on_c, 0, 49, 0
4, 76800, Note_on_c, 0, 49, 78
4, 77439, Note_on_c, 0, 49, 0
4, 77439, Note_on_c, 0, 50, 78
4, 77600, Note_on_c, 0, 50, 0
4, 77600, Note_on_c, 0, 52, 78
4, 77760, Note_on_c, 0, 52, 0
4, 77760, Note_on_c, 0, 54, 78
4, 77919, Note_on_c, 0, 54, 0
4, 77919, Note_on_c, 0, 52, 78
4, 78080, Note_on_c, 0, 52, 0
4, 78080, Note_on_c, 0, 50, 78
4, 78240, Note_on_c, 0, 50, 0
4, 78240, Note_on_c, 0, 52, 78
4, 78720, Note_on_c, 0, 52, 0
4, 78720, Note_on_c, 0, 44, 78
4, 79200, Note_on_c, 0, 44, 0
4, 79200, Note_on_c, 0, 42, 78
4, 79680, Note_on_c, 0, 42, 0
4, 79680, Note_on_c, 0, 47, 78
4, 80160, Note_on_c, 0, 47, 0
4, 80160, Note_on_c, 0, 48, 78
4, 80640, Note_on_c, 0, 48, 0
4, 80640, Note_on_c, 0, 49, 78
4, 81120, Note_on_c, 0, 49, 0
4, 81120, Note_on_c, 0, 42, 78
4, 81600, Note_on_c, 0, 42, 0
4, 81600, Note_on_c, 0, 47, 78
4, 82080, Note_on_c, 0, 47, 0
4, 82080, Note_on_c, 0, 52, 78
4, 82320, Note_on_c, 0, 52, 0
4, 82560, Control_c, 0, 64, 127
4, 82560, Note_on_c, 0, 48, 39
4, 82560, Note_on_c, 0, 55, 39
4, 82560, Note_on_c, 0, 60, 39
4, 83520, Note_on_c, 0, 60, 0
4, 83520, Note_on_c, 0, 55, 0
4, 83520, Note_on_c, 0, 48, 0
4, 83520, Note_on_c, 0, 36, 39
4, 83520, Note_on_c, 0, 48, 39
4, 83760, Note_on_c, 0, 48, 0
4, 83760, Note_on_c, 0, 36, 0
4, 83760, Note_on_c, 0, 55, 39
4, 84000, Note_on_c, 0, 55, 0
4, 84000, Note_on_c, 0, 59, 39
4, 84240, Note_on_c, 0, 59, 0
4, 84240, Control_c, 0, 64, 0
4, 84240, Note_on_c, 0, 55, 39
4, 84480, Note_on_c, 0, 55, 0
4, 84480, Control_c, 0, 64, 127
4, 84480, Note_on_c, 0, 48, 39
4, 84480, Note_on_c, 0, 55, 39
4, 84480, Note_on_c, 0, 59, 39
4, 85440, Note_on_c, 0, 59, 0
4, 85440, Note_on_c, 0, 55, 0
4, 85440, Note_on_c, 0, 48, 0
4, 85440, Note_on_c, 0, 36, 39
4, 85440, Note_on_c, 0, 48, 39
4, 85680, Note_on_c, 0, 48, 0
4, 85680, Note_on_c, 0, 36, 0
4, 85680, Note_on_c, 0, 52, 39
4, 85920, Note_on_c, 0, 52, 0
4, 85920, Note_on_c, 0, 55, 39
4, 86160, Note_on_c, 0, 55, 0
4, 86160, Control_c, 0, 64, 0
4, 86160, Note_on_c, 0, 60, 39
4, 86320, Note_on_c, 0, 48, 39
4, 86360, Note_on_c, 0, 55, 39
4, 86400, Note_on_c, 0, 60, 0
4, 86400, Control_c, 0, 64, 127
4, 86400, Note_on_c, 0, 64, 39
4, 87360, Note_on_c, 0, 64, 0
4, 87360, Note_on_c, 0, 55, 0
4, 87360, Note_on_c, 0, 48, 0
4, 87360, Note_on_c, 0, 40, 39
4, 87360, Note_on_c, 0, 52, 39
4, 87600, Note_on_c, 0, 52, 0
4, 87600, Note_on_c, 0, 40, 0
4, 87600, Note_on_c, 0, 55, 39
4, 87840, Note_on_c, 0, 55, 0
4, 87840, Note_on_c, 0, 60, 39
4, 88080, Note_on_c, 0, 60, 0
4, 88080, Control_c, 0, 64, 0
4, 88080, Note_on_c, 0, 64, 39
4, 88240, Note_on_c, 0, 41, 39
4, 88280, Note_on_c, 0, 50, 39
4, 88320, Note_on_c, 0, 64, 0
4, 88320, Control_c, 0, 64, 127
4, 88320, Note_on_c, 0, 57, 39
4, 88560, Note_on_c, 0, 57, 0
4, 88560, Note_on_c, 0, 50, 0
4, 88560, Note_on_c, 0, 41, 0
4, 88560, Note_on_c, 0, 57, 39
4, 88800, Note_on_c, 0, 57, 0
4, 88800, Note_on_c, 0, 62, 39
4, 89040, Note_on_c, 0, 62, 0
4, 89040, Control_c, 0, 64, 0
4, 89040, Note_on_c, 0, 65, 39
4, 89280, Note_on_c, 0, 65, 0
4, 89280, Control_c, 0, 64, 127
4, 89280, Note_on_c, 0, 43, 39
4, 89280, Note_on_c, 0, 55, 39
4, 89520, Note_on_c, 0, 55, 0
4, 89520, Note_on_c, 0, 43, 0
4, 89520, Note_on_c, 0, 55, 39
4, 89760, Note_on_c, 0, 55, 0
4, 89760, Note_on_c, 0, 59, 39
4, 90000, Note_on_c, 0, 59, 0
4, 90000, Control_c, 0, 64, 0
4, 90000, Note_on_c, 0, 62, 39
4, 90240, Note_on_c, 0, 62, 0
4, 90240, Control_c, 0, 64, 127
4, 90240, Note_on_c, 0, 48, 39
4, 90240, Note_on_c, 0, 55, 39
4, 90240, Note_on_c, 0, 60, 39
4, 91200, Note_on_c, 0, 60, 0
4, 91200, Note_on_c, 0, 55, 0
4, 91200, Note_on_c, 0, 48, 0
4, 91200, Note_on_c, 0, 36, 39
4, 91200, Note_on_c, 0, 48, 39
4, 91440, Note_on_c, 0, 48, 0
4, 91440, Note_on_c, 0, 36, 0
4, 91440, Note_on_c, 0, 55, 39
4, 91680, Note_on_c, 0, 55, 0
4, 91680, Note_on_c, 0, 59, 39
4, 91920, Note_on_c, 0, 59, 0
4, 91920, Control_c, 0, 64, 0
4, 91920, Note_on_c, 0, 55, 39
4, 92160, Note_on_c, 0, 55, 0
4, 92160, Control_c, 0, 64, 127
4, 92160, Note_on_c, 0, 48, 39
4, 92160, Note_on_c, 0, 55, 39
4, 92160, Note_on_c, 0, 59, 39
4, 93120, Note_on_c, 0, 59, 0
4, 93120, Note_on_c, 0, 55, 0
4, 93120, Note_on_c, 0, 48, 0
4, 93120, Note_on_c, 0, 36, 39
4, 93120, Note_on_c, 0, 48, 39
4, 93360, Note_on_c, 0, 48, 0
4, 93360, Note_on_c, 0, 36, 0
4, 93360, Note_on_c, 0, 52, 39
4, 93600, Note_on_c, 0, 52, 0
4, 93600, Note_on_c, 0, 55, 39
4, 93840, Note_on_c, 0, 55, 0
4, 93840, Control_c, 0, 64, 0
4, 93840, Note_on_c, 0, 60, 39
4, 94000, Note_on_c, 0, 48, 39
4, 94040, Note_on_c, 0, 55, 39
4, 94080, Note_on_c, 0, 60, 0
4, 94080, Control_c, 0, 64, 127
4, 94080, Note_on_c, 0, 64, 39
4, 95040, Note_on_c, 0, 64, 0
4, 95040, Note_on_c, 0, 55, 0
4, 95040, Note_on_c, 0, 48, 0
4, 95040, Note_on_c, 0, 40, 39
4, 95040, Note_on_c, 0, 52, 39
4, 95280, Note_on_c, 0, 52, 0
4, 95280, Note_on_c, 0, 40, 0
4, 95280, Note_on_c, 0, 55, 39
4, 95520, Note_on_c, 0, 55, 0
4, 95520, Note_on_c, 0, 60, 39
4, 95760, Note_on_c, 0, 60, 0
4, 95760, Control_c, 0, 64, 0
4, 95760, Note_on_c, 0, 64, 39
4, 96000, Note_on_c, 0, 64, 0
4, 96000, Control_c, 0, 64, 127
4, 96000, Note_on_c, 0, 38, 39
4, 96000, Note_on_c, 0, 50, 39
4, 96240, Note_on_c, 0, 50, 0
4, 96240, Note_on_c, 0, 38, 0
4, 96240, Note_on_c, 0, 57, 39
4, 96480, Note_on_c, 0, 57, 0
4, 96480, Note_on_c, 0, 60, 39
4, 96720, Note_on_c, 0, 60, 0
4, 96720, Control_c, 0, 64, 0
4, 96720, Note_on_c, 0, 66, 39
4, 96960, Note_on_c, 0, 66, 0
4, 96960, Control_c, 0, 64, 127
4, 96960, Note_on_c, 0, 43, 39
4, 96960, Note_on_c, 0, 55, 39
4, 97200, Note_on_c, 0, 55, 0
4, 97200, Note_on_c, 0, 43, 0
4, 97200, Note_on_c, 0, 59, 39
4, 97440, Note_on_c, 0, 59, 0
4, 97440, Note_on_c, 0, 62, 39
4, 97680, Note_on_c, 0, 62, 0
4, 97680, Control_c, 0, 64, 0
4, 97680, Note_on_c, 0, 67, 39
4, 97920, Note_on_c, 0, 67, 0
4, 97920, Control_c, 0, 64, 127
4, 97920, Note_on_c, 0, 55, 39
4, 97920, Note_on_c, 0, 62, 39
4, 97920, Note_on_c, 0, 67, 39
4, 98880, Note_on_c, 0, 67, 0
4, 98880, Note_on_c, 0, 62, 0
4, 98880, Note_on_c, 0, 55, 0
4, 98880, Note_on_c, 0, 43, 39
4, 98880, Note_on_c, 0, 55, 39
4, 99120, Note_on_c, 0, 55, 0
4, 99120, Note_on_c, 0, 43, 0
4, 99120, Note_on_c, 0, 57, 39
4, 99360, Note_on_c, 0, 57, 0
4, 99360, Note_on_c, 0, 60, 39
4, 99600, Note_on_c, 0, 60, 0
4, 99600, Control_c, 0, 64, 0
4, 99600, Note_on_c, 0, 66, 39
4, 99840, Note_on_c, 0, 66, 0
4, 99840, Control_c, 0, 64, 127
4, 99840, Note_on_c, 0, 43, 39
4, 99840, Note_on_c, 0, 55, 39
4, 100080, Note_on_c, 0, 55, 0
4, 100080, Note_on_c, 0, 43, 0
4, 100080, Note_on_c, 0, 58, 39
4, 100320, Note_on_c, 0, 58, 0
4, 100320, Note_on_c, 0, 61, 39
4, 100560, Note_on_c, 0, 61, 0
4, 100560, Control_c, 0, 64, 0
4, 100560, Note_on_c, 0, 66, 39
4, 100800, Note_on_c, 0, 66, 0
4, 100800, Control_c, 0, 64, 127
4, 100800, Note_on_c, 0, 43, 39
4, 100800, Note_on_c, 0, 55, 39
4, 101040, Note_on_c, 0, 55, 0
4, 101040, Note_on_c, 0, 43, 0
4, 101040, Note_on_c, 0, 59, 39
4, 101280, Note_on_c, 0, 59, 0
4, 101280, Note_on_c, 0, 62, 39
4, 101520, Note_on_c, 0, 62, 0
4, 101520, Control_c, 0, 64, 0
4, 101520, Note_on_c, 0, 67, 39
4, 101760, Note_on_c, 0, 67, 0
4, 101760, Control_c, 0, 64, 127
4, 101760, Note_on_c, 0, 44, 39
4, 101760, Note_on_c, 0, 56, 39
4, 102000, Note_on_c, 0, 56, 0
4, 102000, Note_on_c, 0, 44, 0
4, 102000, Note_on_c, 0, 59, 39
4, 102240, Note_on_c, 0, 59, 0
4, 102240, Note_on_c, 0, 62, 39
4, 102480, Note_on_c, 0, 62, 0
4, 102480, Control_c, 0, 64, 0
4, 102480, Note_on_c, 0, 65, 39
4, 102720, Note_on_c, 0, 65, 0
4, 102720, Control_c, 0, 64, 127
4, 102720, Note_on_c, 0, 45, 39
4, 102720, Note_on_c, 0, 57, 39
4, 102960, Note_on_c, 0, 57, 0
4, 102960, Note_on_c, 0, 45, 0
4, 102960, Note_on_c, 0, 60, 39
4, 103200, Note_on_c, 0, 60, 0
4, 103200, Note_on_c, 0, 64, 39
4, 103440, Note_on_c, 0, 64, 0
4, 103440, Control_c, 0, 64, 0
4, 103440, Note_on_c, 0, 60, 39
4, 103680, Note_on_c, 0, 60, 0
4, 103680, Control_c, 0, 64, 127
4, 103680, Note_on_c, 0, 38, 39
4, 103680, Note_on_c, 0, 50, 39
4, 103920, Note_on_c, 0, 50, 0
4, 103920, Note_on_c, 0, 38, 0
4, 103920, Note_on_c, 0, 60, 39
4, 104160, Note_on_c, 0, 60, 0
4, 104160, Note_on_c, 0, 66, 39
4, 104400, Note_on_c, 0, 66, 0
4, 104400, Control_c, 0, 64, 0
4, 104400, Note_on_c, 0, 60, 39
4, 104640, Note_on_c, 0, 60, 0
4, 104640, Control_c, 0, 64, 127
4, 104640, Note_on_c, 0, 43, 39
4, 104640, Note_on_c, 0, 55, 39
4, 104880, Note_on_c, 0, 55, 0
4, 104880, Note_on_c, 0, 43, 0
4, 104880, Note_on_c, 0, 59, 39
4, 105120, Note_on_c, 0, 59, 0
4, 105120, Note_on_c, 0, 67, 39
4, 105360, Note_on_c, 0, 67, 0
4, 105360, Control_c, 0, 64, 0
4, 105360, Note_on_c, 0, 59, 39
4, 105600, Note_on_c, 0, 59, 0
4, 105600, Control_c, 0, 64, 127
4, 105600, Note_on_c, 0, 55, 39
4, 105600, Note_on_c, 0, 62, 39
4, 105600, Note_on_c, 0, 67, 39
4, 106560, Note_on_c, 0, 67, 0
4, 106560, Note_on_c, 0, 62, 0
4, 106560, Note_on_c, 0, 55, 0
4, 106560, Note_on_c, 0, 43, 39
4, 106560, Note_on_c, 0, 55, 39
4, 106800, Note_on_c, 0, 55, 0
4, 106800, Note_on_c, 0, 43, 0
4, 106800, Note_on_c, 0, 57, 39
4, 107040, Note_on_c, 0, 57, 0
4, 107040, Note_on_c, 0, 60, 39
4, 107280, Note_on_c, 0, 60, 0
4, 107280, Control_c, 0, 64, 0
4, 107280, Note_on_c, 0, 66, 39
4, 107520, Note_on_c, 0, 66, 0
4, 107520, Control_c, 0, 64, 127
4, 107520, Note_on_c, 0, 43, 39
4, 107520, Note_on_c, 0, 55, 39
4, 107760, Note_on_c, 0, 55, 0
4, 107760, Note_on_c, 0, 43, 0
4, 107760, Note_on_c, 0, 58, 39
4, 108000, Note_on_c, 0, 58, 0
4, 108000, Note_on_c, 0, 61, 39
4, 108240, Note_on_c, 0, 61, 0
4, 108240, Control_c, 0, 64, 0
4, 108240, Note_on_c, 0, 66, 39
4, 108480, Note_on_c, 0, 66, 0
4, 108480, Control_c, 0, 64, 127
4, 108480, Note_on_c, 0, 43, 39
4, 108480, Note_on_c, 0, 55, 39
4, 108720, Note_on_c, 0, 55, 0
4, 108720, Note_on_c, 0, 43, 0
4, 108720, Note_on_c, 0, 59, 39
4, 108960, Note_on_c, 0, 59, 0
4, 108960, Note_on_c, 0, 62, 39
4, 109200, Note_on_c, 0, 62, 0
4, 109200, Control_c, 0, 64, 0
4, 109200, Note_on_c, 0, 67, 39
4, 109440, Note_on_c, 0, 67, 0
4, 109440, Control_c, 0, 64, 127
4, 109440, Note_on_c, 0, 44, 39
4, 109440, Note_on_c, 0, 56, 39
4, 109680, Note_on_c, 0, 56, 0
4, 109680, Note_on_c, 0, 44, 0
4, 109680, Note_on_c, 0, 59, 39
4, 109920, Note_on_c, 0, 59, 0
4, 109920, Note_on_c, 0, 62, 39
4, 110160, Note_on_c, 0, 62, 0
4, 110160, Control_c, 0, 64, 0
4, 110160, Note_on_c, 0, 65, 39
4, 110400, Note_on_c, 0, 65, 0
4, 110400, Control_c, 0, 64, 127
4, 110400, Note_on_c, 0, 45, 39
4, 110400, Note_on_c, 0, 57, 39
4, 110640, Note_on_c, 0, 57, 0
4, 110640, Note_on_c, 0, 45, 0
4, 110640, Note_on_c, 0, 60, 39
4, 110880, Note_on_c, 0, 60, 0
4, 110880, Note_on_c, 0, 64, 39
4, 111120, Note_on_c, 0, 64, 0
4, 111120, Control_c, 0, 64, 0
4, 111120, Note_on_c, 0, 60, 39
4, 111360, Note_on_c, 0, 60, 0
4, 111360, Control_c, 0, 64, 127
4, 111360, Note_on_c, 0, 38, 39
4, 111360, Note_on_c, 0, 50, 39
4, 111600, Note_on_c, 0, 50, 0
4, 111600, Note_on_c, 0, 38, 0
4, 111600, Note_on_c, 0, 60, 39
4, 111840, Note_on_c, 0, 60, 0
4, 111840, Note_on_c, 0, 66, 39
4, 112080, Note_on_c, 0, 66, 0
4, 112080, Control_c, 0, 64, 0
4, 112080, Note_on_c, 0, 60, 39
4, 112320, Note_on_c, 0, 60, 0
4, 112320, Control_c, 0, 64, 127
4, 112320, Note_on_c, 0, 43, 39
4, 112320, Note_on_c, 0, 55, 39
4, 112560, Note_on_c, 0, 55, 0
4, 112560, Note_on_c, 0, 43, 0
4, 112560, Note_on_c, 0, 59, 39
4, 112800, Note_on_c, 0, 59, 0
4, 112800, Note_on_c, 0, 67, 39
4, 113040, Note_on_c, 0, 67, 0
4, 113040, Control_c, 0, 64, 0
4, 113040, Note_on_c, 0, 59, 39
4, 113280, Note_on_c, 0, 59, 0
4, 113280, Note_on_c, 0, 55, 39
4, 113280, Note_on_c, 0, 62, 39
4, 115200, Note_on_c, 0, 62, 0
4, 115200, Note_on_c, 0, 55, 0
4, 115200, Note_on_c, 0, 63, 39
4, 115680, Note_on_c, 0, 63, 0
4, 115680, Note_on_c, 0, 64, 39
4, 116160, Note_on_c, 0, 64, 0
4, 116160, Note_on_c, 0, 60, 39
4, 117120, Note_on_c, 0, 60, 0
4, 117120, Note_on_c, 0, 61, 39
4, 118080, Note_on_c, 0, 61, 0
4, 118080, Note_on_c, 0, 62, 39
4, 119040, Note_on_c, 0, 62, 0
4, 119040, Note_on_c, 0, 57, 39
4, 120000, Note_on_c, 0, 57, 0
4, 120000, Note_on_c, 0, 58, 39
4, 120480, Note_on_c, 0, 58, 0
4, 120480, Note_on_c, 0, 59, 39
4, 120960, Note_on_c, 0, 59, 0
4, 120960, Control_c, 0, 64, 127
4, 120960, Note_on_c, 0, 48, 39
4, 120960, Note_on_c, 0, 55, 39
4, 120960, Note_on_c, 0, 60, 39
4, 121920, Note_on_c, 0, 60, 0
4, 121920, Note_on_c, 0, 55, 0
4, 121920, Note_on_c, 0, 48, 0
4, 121920, Note_on_c, 0, 36, 39
4, 121920, Note_on_c, 0, 48, 39
4, 122160, Note_on_c, 0, 48, 0
4, 122160, Note_on_c, 0, 36, 0
4, 122160, Note_on_c, 0, 55, 39
4, 122400, Note_on_c, 0, 55, 0
4, 122400, Note_on_c, 0, 59, 39
4, 122640, Note_on_c, 0, 59, 0
4, 122640, Control_c, 0, 64, 0
4, 122640, Note_on_c, 0, 55, 39
4, 122880, Note_on_c, 0, 55, 0
4, 122880, Control_c, 0, 64, 127
4, 122880, Note_on_c, 0, 48, 39
4, 122880, Note_on_c, 0, 55, 39
4, 122880, Note_on_c, 0, 59, 39
4, 123840, Note_on_c, 0, 59, 0
4, 123840, Note_on_c, 0, 55, 0
4, 123840, Note_on_c, 0, 48, 0
4, 123840, Note_on_c, 0, 36, 39
4, 123840, Note_on_c, 0, 48, 39
4, 124080, Note_on_c, 0, 48, 0
4, 124080, Note_on_c, 0, 36, 0
4, 124080, Note_on_c, 0, 52, 39
4, 124320, Note_on_c, 0, 52, 0
4, 124320, Note_on_c, 0, 55, 39
4, 124560, Note_on_c, 0, 55, 0
4, 124560, Control_c, 0, 64, 0
4, 124560, Note_on_c, 0, 60, 39
4, 124720, Note_on_c, 0, 48, 39
4, 124760, Note_on_c, 0, 55, 39
4, 124800, Note_on_c, 0, 60, 0
4, 124800, Control_c, 0, 64, 127
4, 124800, Note_on_c, 0, 64, 39
4, 125760, Note_on_c, 0, 64, 0
4, 125760, Note_on_c, 0, 55, 0
4, 125760, Note_on_c, 0, 48, 0
4, 125760, Note_on_c, 0, 40, 39
4, 125760, Note_on_c, 0, 52, 39
4, 126000, Note_on_c, 0, 52, 0
4, 126000, Note_on_c, 0, 40, 0
4, 126000, Note_on_c, 0, 55, 39
4, 126240, Note_on_c, 0, 55, 0
4, 126240, Note_on_c, 0, 60, 39
4, 126480, Note_on_c, 0, 60, 0
4, 126480, Control_c, 0, 64, 0
4, 126480, Note_on_c, 0, 64, 39
4, 126640, Note_on_c, 0, 41, 39
4, 126680, Note_on_c, 0, 50, 39
4, 126720, Note_on_c, 0, 64, 0
4, 126720, Control_c, 0, 64, 127
4, 126720, Note_on_c, 0, 57, 39
4, 126960, Note_on_c, 0, 57, 0
4, 126960, Note_on_c, 0, 50, 0
4, 126960, Note_on_c, 0, 41, 0
4, 126960, Note_on_c, 0, 57, 39
4, 127200, Note_on_c, 0, 57, 0
4, 127200, Note_on_c, 0, 62, 39
4, 127440, Note_on_c, 0, 62, 0
4, 127440, Control_c, 0, 64, 0
4, 127440, Note_on_c, 0, 65, 39
4, 127680, Note_on_c, 0, 65, 0
4, 127680, Control_c, 0, 64, 127
4, 127680, Note_on_c, 0, 43, 39
4, 127680, Note_on_c, 0, 55, 39
4, 127920, Note_on_c, 0, 55, 0
4, 127920, Note_on_c, 0, 43, 0
4, 127920, Note_on_c, 0, 55, 39
4, 128160, Note_on_c, 0, 55, 0
4, 128160, Note_on_c, 0, 59, 39
4, 128400, Note_on_c, 0, 59, 0
4, 128400, Control_c, 0, 64, 0
4, 128400, Note_on_c, 0, 62, 39
4, 128640, Note_on_c, 0, 62, 0
4, 128640, Control_c, 0, 64, 127
4, 128640, Note_on_c, 0, 48, 39
4, 128640, Note_on_c, 0, 55, 39
4, 128640, Note_on_c, 0, 60, 39
4, 129600, Note_on_c, 0, 60, 0
4, 129600, Note_on_c, 0, 55, 0
4, 129600, Note_on_c, 0, 48, 0
4, 129600, Note_on_c, 0, 36, 39
4, 129600, Note_on_c, 0, 48, 39
4, 129840, Note_on_c, 0, 48, 0
4, 129840, Note_on_c, 0, 36, 0
4, 129840, Note_on_c, 0, 55, 39
4, 130080, Note_on_c, 0, 55, 0
4, 130080, Note_on_c, 0, 59, 39
4, 130320, Note_on_c, 0, 59, 0
4, 130320, Control_c, 0, 64, 0
4, 130320, Note_on_c, 0, 55, 39
4, 130560, Note_on_c, 0, 55, 0
4, 130560, Control_c, 0, 64, 127
4, 130560, Note_on_c, 0, 48, 39
4, 130560, Note_on_c, 0, 55, 39
4, 130560, Note_on_c, 0, 59, 39
4, 131520, Note_on_c, 0, 59, 0
4, 131520, Note_on_c, 0, 55, 0
4, 131520, Note_on_c, 0, 48, 0
4, 131520, Note_on_c, 0, 36, 39
4, 131520, Note_on_c, 0, 48, 39
4, 131760, Note_on_c, 0, 48, 0
4, 131760, Note_on_c, 0, 36, 0
4, 131760, Note_on_c, 0, 52, 39
4, 132000, Note_on_c, 0, 52, 0
4, 132000, Note_on_c, 0, 55, 39
4, 132240, Note_on_c, 0, 55, 0
4, 132240, Control_c, 0, 64, 0
4, 132240, Note_on_c, 0, 60, 39
4, 132480, Note_on_c, 0, 60, 0
4, 132480, Note_on_c, 0, 57, 39
4, 133440, Note_on_c, 0, 57, 0
4, 133440, Note_on_c, 0, 56, 39
4, 134400, Note_on_c, 0, 56, 0
4, 134400, Note_on_c, 0, 55, 39
4, 134880, Note_on_c, 0, 55, 0
4, 134880, Note_on_c, 0, 53, 39
4, 135360, Note_on_c, 0, 53, 0
4, 135360, Note_on_c, 0, 51, 39
4, 135840, Note_on_c, 0, 51, 0
4, 135840, Note_on_c, 0, 52, 39
4, 136320, Note_on_c, 0, 52, 0
4, 136320, Note_on_c, 0, 57, 39
4, 137280, Note_on_c, 0, 57, 0
4, 137280, Note_on_c, 0, 56, 39
4, 138240, Note_on_c, 0, 56, 0
4, 138240, Note_on_c, 0, 55, 39
4, 138720, Note_on_c, 0, 55, 0
4, 138720, Note_on_c, 0, 53, 39
4, 139200, Note_on_c, 0, 53, 0
4, 139200, Note_on_c, 0, 51, 39
4, 139680, Note_on_c, 0, 51, 0
4, 139680, Note_on_c, 0, 52, 39
4, 140160, Note_on_c, 0, 52, 0
4, 140160, Note_on_c, 0, 56, 39
4, 140640, Note_on_c, 0, 56, 0
4, 140640, Note_on_c, 0, 59, 39
4, 141120, Note_on_c, 0, 59, 0
4, 141120, Note_on_c, 0, 55, 39
4, 141600, Note_on_c, 0, 55, 0
4, 141600, Note_on_c, 0, 52, 39
4, 142080, Note_on_c, 0, 52, 0
4, 142080, Note_on_c, 0, 56, 39
4, 142560, Note_on_c, 0, 56, 0
4, 142560, Note_on_c, 0, 59, 39
4, 143040, Note_on_c, 0, 59, 0
4, 143040, Note_on_c, 0, 55, 39
4, 143520, Note_on_c, 0, 55, 0
4, 143520, Note_on_c, 0, 60, 39
4, 144000, Note_on_c, 0, 60, 0
4, 144000, Note_on_c, 0, 56, 39
4, 144480, Note_on_c, 0, 56, 0
4, 144480, Note_on_c, 0, 59, 39
4, 144960, Note_on_c, 0, 59, 0
4, 144960, Note_on_c, 0, 55, 39
4, 145440, Note_on_c, 0, 55, 0
4, 145440, Note_on_c, 0, 52, 39
4, 145920, Note_on_c, 0, 52, 0
4, 145920, Note_on_c, 0, 56, 39
4, 146400, Note_on_c, 0, 56, 0
4, 146400, Note_on_c, 0, 59, 39
4, 146880, Note_on_c, 0, 59, 0
4, 146880, Note_on_c, 0, 48, 104
4, 147519, Note_on_c, 0, 48, 0
4, 147519, Note_on_c, 0, 38, 78
4, 147680, Note_on_c, 0, 38, 0
4, 147680, Note_on_c, 0, 40, 78
4, 147840, Note_on_c, 0, 40, 0
4, 147840, Note_on_c, 0, 41, 78
4, 147999, Note_on_c, 0, 41, 0
4, 147999, Note_on_c, 0, 40, 78
4, 148160, Note_on_c, 0, 40, 0
4, 148160, Note_on_c, 0, 38, 78
4, 148320, Note_on_c, 0, 38, 0
4, 148320, Note_on_c, 0, 40, 78
4, 148800, Note_on_c, 0, 40, 0
4, 148800, Note_on_c, 0, 40, 78
4, 149439, Note_on_c, 0, 40, 0
4, 149439, Note_on_c, 0, 42, 78
4, 149600, Note_on_c, 0, 42, 0
4, 149600, Note_on_c, 0, 44, 78
4, 149760, Note_on_c, 0, 44, 0
4, 149760, Note_on_c, 0, 45, 78
4, 149919, Note_on_c, 0, 45, 0
4, 149919, Note_on_c, 0, 44, 78
4, 150080, Note_on_c, 0, 44, 0
4, 150080, Note_on_c, 0, 42, 78
4, 150240, Note_on_c, 0, 42, 0
4, 150240, Note_on_c, 0, 44, 78
4, 150720, Note_on_c, 0, 44, 0
4, 150720, Note_on_c, 0, 64, 104
4, 151200, Note_on_c, 0, 64, 0
4, 151200, Note_on_c, 0, 62, 104
4, 151680, Note_on_c, 0, 62, 0
4, 151680, Note_on_c, 0, 61, 104
4, 152160, Note_on_c, 0, 61, 0
4, 152160, Note_on_c, 0, 60, 104
4, 152640, Note_on_c, 0, 60, 0
4, 152640, Note_on_c, 0, 59, 104
4, 153120, Note_on_c, 0, 59, 0
4, 153120, Note_on_c, 0, 57, 104
4, 153600, Note_on_c, 0, 57, 0
4, 153600, Note_on_c, 0, 56, 104
4, 154080, Note_on_c, 0, 56, 0
4, 154080, Note_on_c, 0, 59, 78
4, 154239, Note_on_c, 0, 59, 0
4, 154239, Note_on_c, 0, 61, 78
4, 154400, Note_on_c, 0, 61, 0
4, 154400, Note_on_c, 0, 63, 78
4, 154560, Note_on_c, 0, 63, 0
4, 154560, Note_on_c, 0, 40, 78
4, 154560, Note_on_c, 0, 52, 78
4, 155199, Note_on_c, 0, 52, 0
4, 155199, Note_on_c, 0, 40, 0
4, 155199, Note_on_c, 0, 42, 78
4, 155199, Note_on_c, 0, 54, 78
4, 155360, Note_on_c, 0, 54, 0
4, 155360, Note_on_c, 0, 42, 0
4, 155360, Note_on_c, 0, 44, 78
4, 155360, Note_on_c, 0, 56, 78
4, 155520, Note_on_c, 0, 56, 0
4, 155520, Note_on_c, 0, 44, 0
4, 155520, Note_on_c, 0, 45, 78
4, 155679, Note_on_c, 0, 45, 0
4, 155679, Note_on_c, 0, 44, 78
4, 155840, Note_on_c, 0, 44, 0
4, 155840, Note_on_c, 0, 43, 78
4, 156000, Note_on_c, 0, 43, 0
4, 156000, Note_on_c, 0, 44, 78
4, 156480, Note_on_c, 0, 44, 0
4, 156480, Note_on_c, 0, 44, 78
4, 157119, Note_on_c, 0, 44, 0
4, 157119, Note_on_c, 0, 46, 78
4, 157280, Note_on_c, 0, 46, 0
4, 157280, Note_on_c, 0, 48, 78
4, 157440, Note_on_c, 0, 48, 0
4, 157440, Note_on_c, 0, 49, 78
4, 157599, Note_on_c, 0, 49, 0
4, 157599, Note_on_c, 0, 48, 78
4, 157760, Note_on_c, 0, 48, 0
4, 157760, Note_on_c, 0, 47, 78
4, 157920, Note_on_c, 0, 47, 0
4, 157920, Note_on_c, 0, 48, 78
4, 158400, Note_on_c, 0, 48, 0
4, 158400, Note_on_c, 0, 56, 104
4, 158880, Note_on_c, 0, 56, 0
4, 158880, Note_on_c, 0, 54, 104
4, 159360, Note_on_c, 0, 54, 0
4, 159360, Note_on_c, 0, 53, 104
4, 159840, Note_on_c, 0, 53, 0
4, 159840, Note_on_c, 0, 52, 104
4, 160320, Note_on_c, 0, 52, 0
4, 160320, Note_on_c, 0, 63, 104
4, 160800, Note_on_c, 0, 63, 0
4, 160800, Note_on_c, 0, 61, 104
4, 161280, Note_on_c, 0, 61, 0
4, 161280, Note_on_c, 0, 56, 78
4, 161280, Note_on_c, 0, 60, 78
4, 161520, Note_on_c, 0, 60, 0
4, 161520, Note_on_c, 0, 56, 0
4, 161760, Note_on_c, 0, 63, 78
4, 161919, Note_on_c, 0, 63, 0
4, 161919, Note_on_c, 0, 65, 78
4, 162080, Note_on_c, 0, 65, 0
4, 162080, Note_on_c, 0, 67, 78
4, 162240, Note_on_c, 0, 67, 0
4, 162240, Note_on_c, 0, 51, 52
4, 162720, Note_on_c, 0, 51, 0
4, 162720, Note_on_c, 0, 53, 52
4, 163200, Note_on_c, 0, 53, 0
4, 163200, Note_on_c, 0, 55, 52
4, 164160, Note_on_c, 0, 55, 0
4, 164160, Note_on_c, 0, 49, 52
4, 164640, Note_on_c, 0, 49, 0
4, 164640, Note_on_c, 0, 51, 52
4, 165120, Note_on_c, 0, 51, 0
4, 165120, Note_on_c, 0, 48, 52
4, 166080, Note_on_c, 0, 48, 0
4, 166080, Note_on_c, 0, 51, 52
4, 167040, Note_on_c, 0, 51, 0
4, 167040, Note_on_c, 0, 52, 52
4, 167520, Note_on_c, 0, 52, 0
4, 167520, Note_on_c, 0, 53, 52
4, 168000, Note_on_c, 0, 53, 0
4, 168000, Note_on_c, 0, 55, 52
4, 168960, Note_on_c, 0, 55, 0
4, 168960, Note_on_c, 0, 55, 52
4, 169920, Note_on_c, 0, 55, 0
4, 169920, Note_on_c, 0, 51, 52
4, 170400, Note_on_c, 0, 51, 0
4, 170400, Note_on_c, 0, 53, 52
4, 170880, Note_on_c, 0, 53, 0
4, 170880, Note_on_c, 0, 55, 52
4, 171840, Note_on_c, 0, 55, 0
4, 171840, Note_on_c, 0, 49, 52
4, 172320, Note_on_c, 0, 49, 0
4, 172320, Note_on_c, 0, 51, 52
4, 172800, Note_on_c, 0, 51, 0
4, 172800, Note_on_c, 0, 48, 52
4, 173760, Note_on_c, 0, 48, 0
4, 173760, Note_on_c, 0, 51, 52
4, 174720, Note_on_c, 0, 51, 0
4, 174720, Control_c, 0, 64, 127
4, 174720, Note_on_c, 0, 52, 52
4, 175200, Note_on_c, 0, 52, 0
4, 175200, Note_on_c, 0, 53, 52
4, 175680, Note_on_c, 0, 53, 0
4, 175680, Note_on_c, 0, 54, 52
4, 176160, Note_on_c, 0, 54, 0
4, 176160, Control_c, 0, 64, 0
4, 176160, Note_on_c, 0, 55, 52
4, 176640, Note_on_c, 0, 55, 0
4, 176640, Note_on_c, 0, 56, 52
4, 177600, Note_on_c, 0, 56, 0
4, 179520, Note_on_c, 0, 43, 104
4, 180000, Note_on_c, 0, 43, 0
4, 180000, Note_on_c, 0, 45, 104
4, 180480, Note_on_c, 0, 45, 0
4, 180480, Note_on_c, 0, 46, 78
4, 180639, Note_on_c, 0, 46, 0
4, 180639, Note_on_c, 0, 45, 78
4, 180800, Note_on_c, 0, 45, 0
4, 180800, Note_on_c, 0, 46, 78
4, 180960, Note_on_c, 0, 46, 0
4, 180960, Note_on_c, 0, 47, 78
4, 181119, Note_on_c, 0, 47, 0
4, 181119, Note_on_c, 0, 46, 78
4, 181280, Note_on_c, 0, 46, 0
4, 181280, Note_on_c, 0, 47, 78
4, 181440, Note_on_c, 0, 47, 0
4, 181440, Note_on_c, 0, 48, 78
4, 181599, Note_on_c, 0, 48, 0
4, 181599, Note_on_c, 0, 47, 78
4, 181760, Note_on_c, 0, 47, 0
4, 181760, Note_on_c, 0, 48, 78
4, 181920, Note_on_c, 0, 48, 0
4, 181920, Note_on_c, 0, 50, 78
4, 182079, Note_on_c, 0, 50, 0
4, 182079, Note_on_c, 0, 48, 78
4, 182240, Note_on_c, 0, 48, 0
4, 182240, Note_on_c, 0, 50, 78
4, 182400, Note_on_c, 0, 50, 0
4, 182400, Note_on_c, 0, 58, 78
4, 182559, Note_on_c, 0, 58, 0
4, 182559, Note_on_c, 0, 57, 78
4, 182720, Note_on_c, 0, 57, 0
4, 182720, Note_on_c, 0, 58, 78
4, 182880, Note_on_c, 0, 58, 0
4, 182880, Note_on_c, 0, 60, 78
4, 183039, Note_on_c, 0, 60, 0
4, 183039, Note_on_c, 0, 58, 78
4, 183200, Note_on_c, 0, 58, 0
4, 183200, Note_on_c, 0, 60, 78
4, 183360, Note_on_c, 0, 60, 0
4, 183360, Note_on_c, 0, 62, 78
4, 183519, Note_on_c, 0, 62, 0
4, 183519, Note_on_c, 0, 63, 78
4, 183680, Note_on_c, 0, 63, 0
4, 183680, Note_on_c, 0, 62, 78
4, 183840, Note_on_c, 0, 62, 0
4, 183840, Note_on_c, 0, 60, 78
4, 183999, Note_on_c, 0, 60, 0
4, 183999, Note_on_c, 0, 62, 78
4, 184160, Note_on_c, 0, 62, 0
4, 184160, Note_on_c, 0, 60, 78
4, 184320, Note_on_c, 0, 60, 0
4, 184320, Note_on_c, 0, 58, 78
4, 184479, Note_on_c, 0, 58, 0
4, 184479, Note_on_c, 0, 60, 78
4, 184640, Note_on_c, 0, 60, 0
4, 184640, Note_on_c, 0, 58, 78
4, 184800, Note_on_c, 0, 58, 0
4, 184800, Note_on_c, 0, 57, 78
4, 184959, Note_on_c, 0, 57, 0
4, 184959, Note_on_c, 0, 58, 78
4, 185120, Note_on_c, 0, 58, 0
4, 185120, Note_on_c, 0, 57, 78
4, 185280, Note_on_c, 0, 57, 0
4, 185280, Note_on_c, 0, 55, 104
4, 185760, Note_on_c, 0, 55, 0
4, 185760, Note_on_c, 0, 57, 104
4, 186240, Note_on_c, 0, 57, 0
4, 187200, Note_on_c, 0, 41, 104
4, 187680, Note_on_c, 0, 41, 0
4, 187680, Note_on_c, 0, 43, 104
4, 188160, Note_on_c, 0, 43, 0
4, 188160, Note_on_c, 0, 44, 78
4, 188319, Note_on_c, 0, 44, 0
4, 188319, Note_on_c, 0, 43, 78
4, 188480, Note_on_c, 0, 43, 0
4, 188480, Note_on_c, 0, 44, 78
4, 188640, Note_on_c, 0, 44, 0
4, 188640, Note_on_c, 0, 45, 78
4, 188799, Note_on_c, 0, 45, 0
4, 188799, Note_on_c, 0, 44, 78
4, 188960, Note_on_c, 0, 44, 0
4, 188960, Note_on_c, 0, 45, 78
4, 189120, Note_on_c, 0, 45, 0
4, 189120, Note_on_c, 0, 46, 78
4, 189279, Note_on_c, 0, 46, 0
4, 189279, Note_on_c, 0, 45, 78
4, 189440, Note_on_c, 0, 45, 0
4, 189440, Note_on_c, 0, 46, 78
4, 189600, Note_on_c, 0, 46, 0
4, 189600, Note_on_c, 0, 49, 78
4, 189759, Note_on_c, 0, 49, 0
4, 189759, Note_on_c, 0, 48, 78
4, 189920, Note_on_c, 0, 48, 0
4, 189920, Note_on_c, 0, 49, 78
4, 190080, Note_on_c, 0, 49, 0
4, 190080, Note_on_c, 0, 57, 78
4, 190239, Note_on_c, 0, 57, 0
4, 190239, Note_on_c, 0, 56, 78
4, 190400, Note_on_c, 0, 56, 0
4, 190400, Note_on_c, 0, 57, 78
4, 190560, Note_on_c, 0, 57, 0
4, 190560, Note_on_c, 0, 58, 78
4, 190719, Note_on_c, 0, 58, 0
4, 190719, Note_on_c, 0, 57, 78
4, 190880, Note_on_c, 0, 57, 0
4, 190880, Note_on_c, 0, 58, 78
4, 191040, Note_on_c, 0, 58, 0
4, 191040, Note_on_c, 0, 60, 78
4, 191199, Note_on_c, 0, 60, 0
4, 191199, Note_on_c, 0, 62, 78
4, 191360, Note_on_c, 0, 62, 0
4, 191360, Note_on_c, 0, 60, 78
4, 191520, Note_on_c, 0, 60, 0
4, 191520, Note_on_c, 0, 58, 78
4, 191679, Note_on_c, 0, 58, 0
4, 191679, Note_on_c, 0, 60, 78
4, 191840, Note_on_c, 0, 60, 0
4, 191840, Note_on_c, 0, 58, 78
4, 192000, Note_on_c, 0, 58, 0
4, 192000, Note_on_c, 0, 57, 78
4, 192159, Note_on_c, 0, 57, 0
4, 192159, Note_on_c, 0, 58, 78
4, 192320, Note_on_c, 0, 58, 0
4, 192320, Note_on_c, 0, 57, 78
4, 192480, Note_on_c, 0, 57, 0
4, 192480, Note_on_c, 0, 55, 78
4, 192639, Note_on_c, 0, 55, 0
4, 192639, Note_on_c, 0, 57, 78
4, 192800, Note_on_c, 0, 57, 0
4, 192800, Note_on_c, 0, 55, 78
4, 192960, Note_on_c, 0, 55, 0
4, 192960, Note_on_c, 0, 53, 78
4, 193200, Note_on_c, 0, 53, 0
4, 193920, Note_on_c, 0, 50, 78
4, 193920, Note_on_c, 0, 62, 78
4, 194400, Note_on_c, 0, 62, 0
4, 194400, Note_on_c, 0, 50, 0
4, 194400, Note_on_c, 0, 48, 78
4, 194400, Note_on_c, 0, 60, 78
4, 194880, Note_on_c, 0, 60, 0
4, 194880, Note_on_c, 0, 48, 0
4, 194880, Note_on_c, 0, 47, 78
4, 194880, Note_on_c, 0, 50, 78
4, 194880, Note_on_c, 0, 56, 78
4, 194880, Note_on_c, 0, 59, 78
4, 195120, Note_on_c, 0, 59, 0
4, 195120, Note_on_c, 0, 47, 0
4, 195120, Note_on_c, 0, 50, 0
4, 195120, Note_on_c, 0, 56, 0
4, 195840, Note_on_c, 0, 47, 78
4, 195840, Note_on_c, 0, 59, 78
4, 196320, Note_on_c, 0, 59, 0
4, 196320, Note_on_c, 0, 47, 0
4, 196320, Note_on_c, 0, 46, 78
4, 196320, Note_on_c, 0, 58, 78
4, 196800, Note_on_c, 0, 58, 0
4, 196800, Note_on_c, 0, 46, 0
4, 196800, Note_on_c, 0, 45, 78
4, 196800, Note_on_c, 0, 50, 78
4, 196800, Note_on_c, 0, 54, 78
4, 196800, Note_on_c, 0, 57, 78
4, 197040, Note_on_c, 0, 57, 0
4, 197040, Note_on_c, 0, 45, 0
4, 197040, Note_on_c, 0, 50, 0
4, 197040, Note_on_c, 0, 54, 0
4, 197760, Note_on_c, 0, 45, 78
4, 197760, Note_on_c, 0, 50, 78
4, 197760, Note_on_c, 0, 53, 78
4, 197760, Note_on_c, 0, 59, 78
4, 198240, Note_on_c, 0, 59, 0
4, 198240, Note_on_c, 0, 45, 0
4, 198240, Note_on_c, 0, 50, 0
4, 198240, Note_on_c, 0, 53, 0
4, 198720, Note_on_c, 0, 45, 78
4, 198720, Note_on_c, 0, 52, 78
4, 198720, Note_on_c, 0, 61, 78
4, 199200, Note_on_c, 0, 61, 0
4, 199200, Note_on_c, 0, 52, 0
4, 199200, Note_on_c, 0, 45, 0
4, 205440, Note_on_c, 0, 38, 78
4, 205440, Note_on_c, 0, 50, 78
4, 205920, Note_on_c, 0, 50, 0
4, 205920, Note_on_c, 0, 38, 0
4, 205920, Note_on_c, 0, 40, 78
4, 205920, Note_on_c, 0, 52, 78
4, 206400, Note_on_c, 0, 52, 0
4, 206400, Note_on_c, 0, 40, 0
4, 206400, Note_on_c, 0, 41, 78
4, 206400, Note_on_c, 0, 53, 78
4, 206880, Note_on_c, 0, 53, 0
4, 206880, Note_on_c, 0, 41, 0
4, 206880, Note_on_c, 0, 42, 78
4, 206880, Note_on_c, 0, 54, 78
4, 207360, Note_on_c, 0, 54, 0
4, 207360, Note_on_c, 0, 42, 0
4, 207360, Note_on_c, 0, 43, 78
4, 207360, Note_on_c, 0, 55, 78
4, 207840, Note_on_c, 0, 55, 0
4, 207840, Note_on_c, 0, 43, 0
4, 207840, Note_on_c, 0, 44, 78
4, 207840, Note_on_c, 0, 56, 78
4, 208320, Note_on_c, 0, 56, 0
4, 208320, Note_on_c, 0, 44, 0
4, 208320, Note_on_c, 0, 45, 78
4, 208320, Note_on_c, 0, 57, 78
4, 208560, Note_on_c, 0, 57, 0
4, 208560, Note_on_c, 0, 45, 0
4, 208560, Note_on_c, 0, 45, 78
4, 208560, Note_on_c, 0, 57, 78
4, 208800, Note_on_c, 0, 57, 0
4, 208800, Note_on_c, 0, 45, 0
4, 208800, Note_on_c, 0, 38, 78
4, 208800, Note_on_c, 0, 50, 78
4, 209040, Note_on_c, 0, 50, 0
4, 209040, Note_on_c, 0, 38, 0
4, 209280, Note_on_c, 0, 38, 78
4, 209280, Note_on_c, 0, 50, 78
4, 209520, Note_on_c, 0, 50, 0
4, 209520, Note_on_c, 0, 38, 0
4, 209520, Note_on_c, 0, 57, 78
4, 209640, Note_on_c, 0, 57, 0
4, 209640, Note_on_c, 0, 55, 78
4, 209760, Note_on_c, 0, 55, 0
4, 209760, Note_on_c, 0, 54, 78
4, 209880, Note_on_c, 0, 54, 0
4, 209880, Note_on_c, 0, 55, 78
4, 210000, Note_on_c, 0, 55, 0
4, 210000, Note_on_c, 0, 54, 78
4, 210120, Note_on_c, 0, 54, 0
4, 210120, Note_on_c, 0, 52, 78
4, 210240, Note_on_c, 0, 52, 0
4, 210240, Note_on_c, 0, 50, 78
4, 210360, Note_on_c, 0, 50, 0
4, 210360, Note_on_c, 0, 49, 78
4, 210480, Note_on_c, 0, 49, 0
4, 210480, Note_on_c, 0, 47, 78
4, 210600, Note_on_c, 0, 47, 0
4, 210600, Note_on_c, 0, 49, 78
4, 210720, Note_on_c, 0, 49, 0
4, 210720, Note_on_c, 0, 50, 78
4, 210840, Note_on_c, 0, 50, 0
4, 210840, Note_on_c, 0, 49, 78
4, 210960, Note_on_c, 0, 49, 0
4, 210960, Note_on_c, 0, 50, 78
4, 211080, Note_on_c, 0, 50, 0
4, 211080, Note_on_c, 0, 52, 78
4, 211200, Note_on_c, 0, 52, 0
4, 211200, Note_on_c, 0, 54, 78
4, 211320, Note_on_c, 0, 54, 0
4, 211320, Note_on_c, 0, 52, 78
4, 211440, Note_on_c, 0, 52, 0
4, 211440, Note_on_c, 0, 50, 78
4, 211560, Note_on_c, 0, 50, 0
4, 211560, Note_on_c, 0, 52, 78
4, 211680, Note_on_c, 0, 52, 0
4, 211680, Note_on_c, 0, 54, 78
4, 211920, Note_on_c, 0, 54, 0
4, 212160, Note_on_c, 0, 33, 78
4, 212160, Note_on_c, 0, 45, 78
4, 212400, Note_on_c, 0, 45, 0
4, 212400, Note_on_c, 0, 33, 0
4, 212400, Note_on_c, 0, 38, 78
4, 212400, Note_on_c, 0, 50, 78
4, 212640, Note_on_c, 0, 50, 0
4, 212640, Note_on_c, 0, 38, 0
4, 212640, Note_on_c, 0, 33, 78
4, 212640, Note_on_c, 0, 45, 78
4, 212880, Note_on_c, 0, 45, 0
4, 212880, Note_on_c, 0, 33, 0
4, 213120, Note_on_c, 0, 38, 78
4, 213120, Note_on_c, 0, 50, 78
4, 213600, Note_on_c, 0, 50, 0
4, 213600, Note_on_c, 0, 38, 0
4, 213600, Note_on_c, 0, 40, 78
4, 213600, Note_on_c, 0, 52, 78
4, 214080, Note_on_c, 0, 52, 0
4, 214080, Note_on_c, 0, 40, 0
4, 214080, Note_on_c, 0, 41, 78
4, 214080, Note_on_c, 0, 53, 78
4, 214560, Note_on_c, 0, 53, 0
4, 214560, Note_on_c, 0, 41, 0
4, 214560, Note_on_c, 0, 42, 78
4, 214560, Note_on_c, 0, 54, 78
4, 215040, Note_on_c, 0, 54, 0
4, 215040, Note_on_c, 0, 42, 0
4, 215040, Note_on_c, 0, 43, 78
4, 215040, Note_on_c, 0, 55, 78
4, 215520, Note_on_c, 0, 55, 0
4, 215520, Note_on_c, 0, 43, 0
4, 215520, Note_on_c, 0, 44, 78
4, 215520, Note_on_c, 0, 56, 78
4, 216000, Note_on_c, 0, 56, 0
4, 216000, Note_on_c, 0, 44, 0
4, 216000, Note_on_c, 0, 45, 78
4, 216000, Note_on_c, 0, 57, 78
4, 216240, Note_on_c, 0, 57, 0
4, 216240, Note_on_c, 0, 45, 0
4, 216240, Note_on_c, 0, 45, 78
4, 216240, Note_on_c, 0, 57, 78
4, 216480, Note_on_c, 0, 57, 0
4, 216480, Note_on_c, 0, 45, 0
4, 216480, Note_on_c, 0, 38, 78
4, 216480, Note_on_c, 0, 50, 78
4, 216720, Note_on_c, 0, 50, 0
4, 216720, Note_on_c, 0, 38, 0
4, 216960, Note_on_c, 0, 38, 78
4, 216960, Note_on_c, 0, 50, 78
4, 217200, Note_on_c, 0, 50, 0
4, 217200, Note_on_c, 0, 38, 0
4, 217200, Note_on_c, 0, 57, 78
4, 217320, Note_on_c, 0, 57, 0
4, 217320, Note_on_c, 0, 55, 78
4, 217440, Note_on_c, 0, 55, 0
4, 217440, Note_on_c, 0, 54, 78
4, 217560, Note_on_c, 0, 54, 0
4, 217560, Note_on_c, 0, 55, 78
4, 217680, Note_on_c, 0, 55, 0
4, 217680, Note_on_c, 0, 54, 78
4, 217800, Note_on_c, 0, 54, 0
4, 217800, Note_on_c, 0, 52, 78
4, 217920, Note_on_c, 0, 52, 0
4, 217920, Note_on_c, 0, 50, 78
4, 218040, Note_on_c, 0, 50, 0
4, 218040, Note_on_c, 0, 49, 78
4, 218160, Note_on_c, 0, 49, 0
4, 218160, Note_on_c, 0, 47, 78
4, 218280, Note_on_c, 0, 47, 0
4, 218280, Note_on_c, 0, 49, 78
4, 218400, Note_on_c, 0, 49, 0
4, 218400, Note_on_c, 0, 50, 78
4, 218520, Note_on_c, 0, 50, 0
4, 218520, Note_on_c, 0, 49, 78
4, 218640, Note_on_c, 0, 49, 0
4, 218640, Note_on_c, 0, 50, 78
4, 218760, Note_on_c, 0, 50, 0
4, 218760, Note_on_c, 0, 52, 78
4, 218880, Note_on_c, 0, 52, 0
4, 218880, Note_on_c, 0, 54, 78
4, 219000, Note_on_c, 0, 54, 0
4, 219000, Note_on_c, 0, 52, 78
4, 219120, Note_on_c, 0, 52, 0
4, 219120, Note_on_c, 0, 50, 78
4, 219240, Note_on_c, 0, 50, 0
4, 219240, Note_on_c, 0, 52, 78
4, 219360, Note_on_c, 0, 52, 0
4, 219360, Note_on_c, 0, 54, 78
4, 219480, Note_on_c, 0, 54, 0
4, 219480, Note_on_c, 0, 55, 78
4, 219600, Note_on_c, 0, 55, 0
4, 219600, Note_on_c, 0, 57, 78
4, 219720, Note_on_c, 0, 57, 0
4, 219720, Note_on_c, 0, 59, 78
4, 219840, Note_on_c, 0, 59, 0
4, 219840, Note_on_c, 0, 45, 78
4, 219840, Note_on_c, 0, 57, 78
4, 220080, Note_on_c, 0, 57, 0
4, 220080, Note_on_c, 0, 45, 0
4, 220080, Note_on_c, 0, 33, 78
4, 220080, Note_on_c, 0, 45, 78
4, 220320, Note_on_c, 0, 45, 0
4, 220320, Note_on_c, 0, 33, 0
4, 220320, Note_on_c, 0, 38, 78
4, 220320, Note_on_c, 0, 50, 78
4, 220560, Note_on_c, 0, 50, 0
4, 220560, Note_on_c, 0, 38, 0
4, 220560, Note_on_c, 0, 45, 91
4, 220560, Note_on_c, 0, 57, 91
4, 220800, Note_on_c, 0, 57, 0
4, 220800, Note_on_c, 0, 45, 0
4, 220800, Note_on_c, 0, 47, 91
4, 220800, Note_on_c, 0, 59, 91
4, 221280, Note_on_c, 0, 59, 0
4, 221280, Note_on_c, 0, 47, 0
4, 221280, Note_on_c, 0, 47, 91
4, 221280, Note_on_c, 0, 59, 91
4, 221760, Note_on_c, 0, 59, 0
4, 221760, Note_on_c, 0, 47, 0
4, 221760, Note_on_c, 0, 47, 91
4, 221760, Note_on_c, 0, 59, 91
4, 222240, Note_on_c, 0, 59, 0
4, 222240, Note_on_c, 0, 47, 0
4, 222240, Note_on_c, 0, 47, 91
4, 222240, Note_on_c, 0, 59, 91
4, 222480, Note_on_c, 0, 59, 0
4, 222480, Note_on_c, 0, 47, 0
4, 222480, Note_on_c, 0, 49, 91
4, 222480, Note_on_c, 0, 61, 91
4, 222720, Note_on_c, 0, 61, 0
4, 222720, Note_on_c, 0, 49, 0
4, 222720, Note_on_c, 0, 45, 91
4, 222720, Note_on_c, 0, 57, 91
4, 222840, Note_on_c, 0, 57, 0
4, 222840, Note_on_c, 0, 45, 0
4, 222840, Note_on_c, 0, 59, 78
4, 222960, Note_on_c, 0, 59, 0
4, 222960, Note_on_c, 0, 57, 78
4, 223080, Note_on_c, 0, 57, 0
4, 223080, Note_on_c, 0, 59, 78
4, 223200, Note_on_c, 0, 59, 0
4, 223200, Note_on_c, 0, 61, 78
4, 223320, Note_on_c, 0, 61, 0
4, 223320, Note_on_c, 0, 59, 78
4, 223440, Note_on_c, 0, 59, 0
4, 223440, Note_on_c, 0, 61, 78
4, 223560, Note_on_c, 0, 61, 0
4, 223560, Note_on_c, 0, 64, 78
4, 223680, Note_on_c, 0, 64, 0
4, 223680, Note_on_c, 0, 69, 78
4, 223800, Note_on_c, 0, 69, 0
4, 223800, Note_on_c, 0, 68, 78
4, 223920, Note_on_c, 0, 68, 0
4, 223920, Note_on_c, 0, 69, 78
4, 224040, Note_on_c, 0, 69, 0
4, 224040, Note_on_c, 0, 71, 78
4, 224160, Note_on_c, 0, 71, 0
4, 224160, Note_on_c, 0, 73, 78
4, 224400, Note_on_c, 0, 73, 0
4, 224400, Note_on_c, 0, 45, 91
4, 224400, Note_on_c, 0, 57, 91
4, 224640, Note_on_c, 0, 57, 0
4, 224640, Note_on_c, 0, 45, 0
4, 224640, Note_on_c, 0, 47, 91
4, 224640, Note_on_c, 0, 59, 91
4, 225120, Note_on_c, 0, 59, 0
4, 225120, Note_on_c, 0, 47, 0
4, 225120, Note_on_c, 0, 47, 91
4, 225120, Note_on_c, 0, 59, 91
4, 225600, Note_on_c, 0, 59, 0
4, 225600, Note_on_c, 0, 47, 0
4, 225600, Note_on_c, 0, 47, 91
4, 225600, Note_on_c, 0, 59, 91
4, 226080, Note_on_c, 0, 59, 0
4, 226080, Note_on_c, 0, 47, 0
4, 226080, Note_on_c, 0, 47, 91
4, 226080, Note_on_c, 0, 59, 91
4, 226320, Note_on_c, 0, 59, 0
4, 226320, Note_on_c, 0, 47, 0
4, 226320, Note_on_c, 0, 49, 91
4, 226320, Note_on_c, 0, 61, 91
4, 226560, Note_on_c, 0, 61, 0
4, 226560, Note_on_c, 0, 49, 0
4, 226560, Note_on_c, 0, 45, 91
4, 226560, Note_on_c, 0, 57, 91
4, 226680, Note_on_c, 0, 57, 0
4, 226680, Note_on_c, 0, 45, 0
4, 226680, Note_on_c, 0, 59, 78
4, 226800, Note_on_c, 0, 59, 0
4, 226800, Note_on_c, 0, 57, 78
4, 226920, Note_on_c, 0, 57, 0
4, 226920, Note_on_c, 0, 59, 78
4, 227040, Note_on_c, 0, 59, 0
4, 227040, Note_on_c, 0, 61, 78
4, 227160, Note_on_c, 0, 61, 0
4, 227160, Note_on_c, 0, 59, 78
4, 227280, Note_on_c, 0, 59, 0
4, 227280, Note_on_c, 0, 61, 78
4, 227400, Note_on_c, 0, 61, 0
4, 227400, Note_on_c, 0, 64, 78
4, 227520, Note_on_c, 0, 64, 0
4, 227520, Note_on_c, 0, 69, 78
4, 227640, Note_on_c, 0, 69, 0
4, 227640, Note_on_c, 0, 68, 78
4, 227760, Note_on_c, 0, 68, 0
4, 227760, Note_on_c, 0, 69, 78
4, 227880, Note_on_c, 0, 69, 0
4, 227880, Note_on_c, 0, 71, 78
4, 228000, Note_on_c, 0, 71, 0
4, 228000, Note_on_c, 0, 73, 78
4, 228240, Note_on_c, 0, 73, 0
4, 228480, Note_on_c, 0, 42, 91
4, 228480, Note_on_c, 0, 54, 91
4, 228960, Note_on_c, 0, 54, 0
4, 228960, Note_on_c, 0, 42, 0
4, 228960, Note_on_c, 0, 44, 91
4, 228960, Note_on_c, 0, 56, 91
4, 229200, Note_on_c, 0, 56, 0
4, 229200, Note_on_c, 0, 44, 0
4, 229200, Note_on_c, 0, 46, 91
4, 229200, Note_on_c, 0, 58, 91
4, 229440, Note_on_c, 0, 58, 0
4, 229440, Note_on_c, 0, 46, 0
4, 229440, Note_on_c, 0, 47, 91
4, 229440, Note_on_c, 0, 59, 91
4, 229680, Note_on_c, 0, 59, 0
4, 229680, Note_on_c, 0, 47, 0
4, 229680, Note_on_c, 0, 54, 91
4, 229920, Note_on_c, 0, 54, 0
4, 229920, Note_on_c, 0, 59, 91
4, 229920, Note_on_c, 0, 62, 91
4, 230160, Note_on_c, 0, 62, 0
4, 230160, Note_on_c, 0, 59, 0
4, 230400, Note_on_c, 0, 40, 91
4, 230400, Note_on_c, 0, 52, 91
4, 230880, Note_on_c, 0, 52, 0
4, 230880, Note_on_c, 0, 40, 0
4, 230880, Note_on_c, 0, 42, 91
4, 230880, Note_on_c, 0, 54, 91
4, 231120, Note_on_c, 0, 54, 0
4, 231120, Note_on_c, 0, 42, 0
4, 231120, Note_on_c, 0, 44, 91
4, 231120, Note_on_c, 0, 56, 91
4, 231360, Note_on_c, 0, 56, 0
4, 231360, Note_on_c, 0, 44, 0
4, 231360, Note_on_c, 0, 45, 91
4, 231360, Note_on_c, 0, 57, 91
4, 231600, Note_on_c, 0, 57, 0
4, 231600, Note_on_c, 0, 45, 0
4, 231600, Note_on_c, 0, 52, 91
4, 231840, Note_on_c, 0, 52, 0
4, 231840, Note_on_c, 0, 57, 91
4, 231840, Note_on_c, 0, 61, 91
4, 232080, Note_on_c, 0, 61, 0
4, 232080, Note_on_c, 0, 57, 0
4, 232320, Note_on_c, 0, 42, 91
4, 232320, Note_on_c, 0, 54, 91
4, 232560, Note_on_c, 0, 54, 0
4, 232560, Note_on_c, 0, 42, 0
4, 233040, Note_on_c, 0, 42, 91
4, 233040, Note_on_c, 0, 54, 91
4, 233280, Note_on_c, 0, 54, 0
4, 233280, Note_on_c, 0, 42, 0
4, 233280, Note_on_c, 0, 47, 91
4, 233280, Note_on_c, 0, 59, 91
4, 233520, Note_on_c, 0, 59, 0
4, 233520, Note_on_c, 0, 47, 0
4, 233520, Note_on_c, 0, 45, 91
4, 233520, Note_on_c, 0, 57, 91
4, 233760, Note_on_c, 0, 57, 0
4, 233760, Note_on_c, 0, 45, 0
4, 233760, Note_on_c, 0, 44, 91
4, 233760, Note_on_c, 0, 56, 91
4, 234000, Note_on_c, 0, 56, 0
4, 234000, Note_on_c, 0, 44, 0
4, 234000, Note_on_c, 0, 43, 91
4, 234000, Note_on_c, 0, 55, 91
4, 234240, Note_on_c, 0, 55, 0
4, 234240, Note_on_c, 0, 43, 0
4, 234240, Note_on_c, 0, 42, 91
4, 234240, Note_on_c, 0, 54, 91
4, 234480, Note_on_c, 0, 54, 0
4, 234480, Note_on_c, 0, 42, 0
4, 234960, Note_on_c, 0, 42, 91
4, 234960, Note_on_c, 0, 54, 91
4, 235200, Note_on_c, 0, 54, 0
4, 235200, Note_on_c, 0, 42, 0
4, 235200, Note_on_c, 0, 47, 91
4, 235200, Note_on_c, 0, 59, 91
4, 235440, Note_on_c, 0, 59, 0
4, 235440, Note_on_c, 0, 47, 0
4, 235440, Note_on_c, 0, 45, 91
4, 235440, Note_on_c, 0, 57, 91
4, 235680, Note_on_c, 0, 57, 0
4, 235680, Note_on_c, 0, 45, 0
4, 235680, Note_on_c, 0, 44, 91
4, 235680, Note_on_c, 0, 56, 91
4, 235920, Note_on_c, 0, 56, 0
4, 235920, Note_on_c, 0, 44, 0
4, 235920, Note_on_c, 0, 43, 91
4, 235920, Note_on_c, 0, 55, 91
4, 236160, Note_on_c, 0, 55, 0
4, 236160, Note_on_c, 0, 43, 0
4, 236160, Note_on_c, 0, 42, 91
4, 236160, Note_on_c, 0, 54, 91
4, 237120, Note_on_c, 0, 54, 0
4, 237120, Note_on_c, 0, 42, 0
4, 237120, Note_on_c, 0, 43, 91
4, 237120, Note_on_c, 0, 55, 91
4, 237600, Note_on_c, 0, 55, 0
4, 237600, Note_on_c, 0, 43, 0
4, 237600, Note_on_c, 0, 44, 91
4, 237600, Note_on_c, 0, 56, 91
4, 238080, Note_on_c, 0, 56, 0
4, 238080, Note_on_c, 0, 44, 0
4, 238080, Note_on_c, 0, 45, 91
4, 238080, Note_on_c, 0, 57, 91
4, 238560, Note_on_c, 0, 57, 0
4, 238560, Note_on_c, 0, 45, 0
4, 238560, Note_on_c, 0, 33, 91
4, 238560, Note_on_c, 0, 45, 91
4, 239040, Note_on_c, 0, 45, 0
4, 239040, Note_on_c, 0, 33, 0
4, 239040, Note_on_c, 0, 38, 117
4, 239040, Note_on_c, 0, 50, 117
4, 239520, Note_on_c, 0, 50, 0
4, 239520, Note_on_c, 0, 38, 0
4, 239520, End_track
5, 0, Start_track
5, 0, Title_t, "Grand Piano"
5, 0, Program_c, 0, 0
5, 0, Control_c, 0, 7, 115
5, 0, Control_c, 0, 10, 47
5, 34560, Note_on_c, 0, 33, 62
5, 36480, Note_on_c, 0, 33, 0
5, 36960, Note_on_c, 0, 33, 62
5, 38400, Note_on_c, 0, 33, 0
5, 38880, Note_on_c, 0, 33, 62
5, 40320, Note_on_c, 0, 33, 0
5, 40800, Note_on_c, 0, 33, 75
5, 42240, Note_on_c, 0, 33, 0
5, 42720, Note_on_c, 0, 33, 62
5, 43200, Note_on_c, 0, 33, 0
5, 43200, Note_on_c, 0, 52, 88
5, 43680, Note_on_c, 0, 52, 0
5, 43680, Note_on_c, 0, 50, 62
5, 44040, Note_on_c, 0, 50, 0
5, 44040, Note_on_c, 0, 48, 62
5, 44160, Note_on_c, 0, 48, 0
5, 44160, Note_on_c, 0, 45, 62
5, 44160, Note_on_c, 0, 50, 62
5, 46080, Note_on_c, 0, 50, 0
5, 46080, Note_on_c, 0, 45, 0
5, 46080, Note_on_c, 0, 45, 62
5, 46080, Note_on_c, 0, 52, 62
5, 48000, Note_on_c, 0, 52, 0
5, 48000, Note_on_c, 0, 45, 0
5, 48000, Note_on_c, 0, 45, 88
5, 49920, Note_on_c, 0, 45, 0
5, 49920, Note_on_c, 0, 45, 88
5, 51840, Note_on_c, 0, 45, 0
5, 51840, Note_on_c, 0, 45, 88
5, 53760, Note_on_c, 0, 45, 0
5, 115200, Note_on_c, 0, 55, 49
5, 117120, Note_on_c, 0, 55, 0
5, 117120, Note_on_c, 0, 55, 49
5, 119040, Note_on_c, 0, 55, 0
5, 119040, Note_on_c, 0, 55, 49
5, 120960, Note_on_c, 0, 55, 0
5, 132480, Note_on_c, 0, 41, 49
5, 132480, Note_on_c, 0, 48, 49
5, 134400, Note_on_c, 0, 48, 0
5, 134400, Note_on_c, 0, 41, 0
5, 134400, Note_on_c, 0, 43, 49
5, 134400, Note_on_c, 0, 55, 49
5, 135360, Note_on_c, 0, 55, 0
5, 135360, Note_on_c, 0, 43, 0
5, 135360, Note_on_c, 0, 48, 49
5, 135360, Note_on_c, 0, 55, 49
5, 136320, Note_on_c, 0, 55, 0
5, 136320, Note_on_c, 0, 48, 0
5, 136320, Note_on_c, 0, 41, 49
5, 138240, Note_on_c, 0, 41, 0
5, 138240, Note_on_c, 0, 43, 49
5, 138240, Note_on_c, 0, 55, 49
5, 139200, Note_on_c, 0, 55, 0
5, 139200, Note_on_c, 0, 43, 0
5, 139200, Note_on_c, 0, 48, 49
5, 140160, Note_on_c, 0, 48, 0
5, 140160, Note_on_c, 0, 48, 49
5, 140160, Note_on_c, 0, 53, 49
5, 141120, Note_on_c, 0, 53, 0
5, 142080, Note_on_c, 0, 48, 0
5, 142080, Note_on_c, 0, 48, 49
5, 142080, Note_on_c, 0, 53, 49
5, 143040, Note_on_c, 0, 53, 0
5, 144000, Note_on_c, 0, 48, 0
5, 144000, Note_on_c, 0, 48, 49
5, 144000, Note_on_c, 0, 53, 49
5, 144960, Note_on_c, 0, 53, 0
5, 145920, Note_on_c, 0, 48, 0
5, 145920, Note_on_c, 0, 48, 49
5, 145920, Note_on_c, 0, 53, 49
5, 146880, Note_on_c, 0, 53, 0
5, 146880, Note_on_c, 0, 48, 0
5, 150720, Note_on_c, 0, 56, 88
5, 151680, Note_on_c, 0, 56, 0
5, 151680, Note_on_c, 0, 57, 88
5, 152640, Note_on_c, 0, 57, 0
5, 152640, Note_on_c, 0, 47, 88
5, 153600, Note_on_c, 0, 47, 0
5, 153600, Note_on_c, 0, 52, 88
5, 154080, Note_on_c, 0, 52, 0
5, 158400, Note_on_c, 0, 48, 88
5, 159360, Note_on_c, 0, 48, 0
5, 159360, Note_on_c, 0, 49, 88
5, 160320, Note_on_c, 0, 49, 0
5, 160320, Note_on_c, 0, 51, 88
5, 161280, Note_on_c, 0, 51, 0
5, 162240, Note_on_c, 0, 44, 62
5, 162240, Note_on_c, 0, 51, 62
5, 164160, Note_on_c, 0, 51, 0
5, 164160, Note_on_c, 0, 44, 0
5, 164160, Note_on_c, 0, 44, 62
5, 166080, Note_on_c, 0, 44, 0
5, 166080, Note_on_c, 0, 48, 62
5, 166560, Note_on_c, 0, 48, 0
5, 166560, Note_on_c, 0, 32, 62
5, 166560, Note_on_c, 0, 44, 62
5, 167040, Note_on_c, 0, 44, 0
5, 167040, Note_on_c, 0, 32, 0
5, 167040, Note_on_c, 0, 49, 62
5, 167520, Note_on_c, 0, 49, 0
5, 167520, Note_on_c, 0, 44, 62
5, 168000, Note_on_c, 0, 44, 0
5, 168000, Note_on_c, 0, 49, 62
5, 168480, Note_on_c, 0, 49, 0
5, 168480, Note_on_c, 0, 32, 62
5, 168480, Note_on_c, 0, 44, 62
5, 168960, Note_on_c, 0, 44, 0
5, 168960, Note_on_c, 0, 32, 0
5, 168960, Note_on_c, 0, 51, 62
5, 169440, Note_on_c, 0, 51, 0
5, 169440, Note_on_c, 0, 32, 62
5, 169440, Note_on_c, 0, 44, 62
5, 169920, Note_on_c, 0, 44, 0
5, 169920, Note_on_c, 0, 32, 0
5, 169920, Note_on_c, 0, 44, 62
5, 169920, Note_on_c, 0, 51, 62
5, 171840, Note_on_c, 0, 51, 0
5, 171840, Note_on_c, 0, 44, 0
5, 171840, Note_on_c, 0, 44, 62
5, 173760, Note_on_c, 0, 44, 0
5, 173760, Note_on_c, 0, 48, 62
5, 174240, Note_on_c, 0, 48, 0
5, 174240, Note_on_c, 0, 32, 62
5, 174240, Note_on_c, 0, 44, 62
5, 174720, Note_on_c, 0, 44, 0
5, 174720, Note_on_c, 0, 32, 0
5, 174720, Note_on_c, 0, 49, 62
5, 175200, Note_on_c, 0, 49, 0
5, 175200, Note_on_c, 0, 44, 62
5, 175680, Note_on_c, 0, 44, 0
5, 175680, Note_on_c, 0, 51, 62
5, 176160, Note_on_c, 0, 51, 0
5, 176160, Note_on_c, 0, 44, 62
5, 176640, Note_on_c, 0, 44, 0
5, 176640, Note_on_c, 0, 51, 62
5, 177120, Note_on_c, 0, 51, 0
5, 177120, Note_on_c, 0, 32, 62
5, 177120, Note_on_c, 0, 44, 62
5, 177600, Note_on_c, 0, 44, 0
5, 177600, Note_on_c, 0, 32, 0
5, 182400, Note_on_c, 0, 51, 88
5, 183360, Note_on_c, 0, 51, 0
5, 183360, Note_on_c, 0, 50, 88
5, 185280, Note_on_c, 0, 50, 0
5, 185280, Note_on_c, 0, 43, 88
5, 185520, Note_on_c, 0, 43, 0
5, 190080, Note_on_c, 0, 50, 88
5, 191040, Note_on_c, 0, 50, 0
5, 191040, Note_on_c, 0, 48, 88
5, 192480, Note_on_c, 0, 48, 0
5, 192480, Note_on_c, 0, 49, 88
5, 192960, Note_on_c, 0, 49, 0
5, 192960, Note_on_c, 0, 50, 88
5, 193200, Note_on_c, 0, 50, 0
5, 193920, Note_on_c, 0, 53, 88
5, 194880, Note_on_c, 0, 53, 0
5, 195840, Note_on_c, 0, 50, 88
5, 195840, Note_on_c, 0, 55, 88
5, 196800, Note_on_c, 0, 55, 0
5, 196800, Note_on_c, 0, 50, 0
5, 196800, End_track
0, 0, End_of_file
