0, 0, Header, 1, 5, 480
1, 0, Start_track
1, 0, Title_t, "tchaikovsky swan lake act1 4d moderato"
1, 0, Copyright_t, "Adaptation for Disklavier pianos, by: Robert C. Kuhmann (c) 2012."
1, 0, Text_t, "Seq. (c) by: Segundo G. Yogore,  2007\012"
1, 0, Time_signature, 6, 3, 12, 8
1, 0, Key_signature, -3, "major"
1, 0, Tempo, 600000
1, 5760, Tempo, 600000
1, 11520, Tempo, 600000
1, 17280, Tempo, 600000
1, 46080, Tempo, 600000
1, 51840, Tempo, 600000
1, 56160, Time_signature, 8, 2, 24, 8
1, 56160, End_track
2, 0, Start_track
2, 0, Title_t, "Grand Piano"
2, 0, Program_c, 0, 0
2, 0, Control_c, 0, 7, 115
2, 0, Control_c, 0, 10, 86
2, 0, Note_on_c, 0, 75, 86
2, 0, Note_on_c, 0, 79, 86
2, 0, Note_on_c, 0, 87, 86
2, 360, Note_on_c, 0, 87, 0
2, 360, Note_on_c, 0, 79, 0
2, 360, Note_on_c, 0, 75, 0
2, 360, Note_on_c, 0, 74, 86
2, 360, Note_on_c, 0, 86, 86
2, 480, Note_on_c, 0, 86, 0
2, 480, Note_on_c, 0, 74, 0
2, 480, Note_on_c, 0, 72, 86
2, 480, Note_on_c, 0, 84, 86
2, 720, Note_on_c, 0, 84, 0
2, 720, Note_on_c, 0, 72, 0
2, 720, Note_on_c, 0, 71, 86
2, 720, Note_on_c, 0, 77, 86
2, 720, Note_on_c, 0, 79, 86
2, 720, Note_on_c, 0, 83, 86
2, 1080, Note_on_c, 0, 83, 0
2, 1080, Note_on_c, 0, 71, 0
2, 1080, Note_on_c, 0, 77, 0
2, 1080, Note_on_c, 0, 79, 0
2, 1080, Note_on_c, 0, 68, 86
2, 1080, Note_on_c, 0, 80, 86
2, 1200, Note_on_c, 0, 80, 0
2, 1200, Note_on_c, 0, 68, 0
2, 1200, Note_on_c, 0, 67, 86
2, 1200, Note_on_c, 0, 79, 86
2, 1440, Note_on_c, 0, 79, 0
2, 1440, Note_on_c, 0, 67, 0
2, 1440, Note_on_c, 0, 72, 86
2, 1440, Note_on_c, 0, 75, 86
2, 1440, Note_on_c, 0, 79, 86
2, 1440, Note_on_c, 0, 84, 86
2, 1800, Note_on_c, 0, 84, 0
2, 1800, Note_on_c, 0, 72, 0
2, 1800, Note_on_c, 0, 75, 0
2, 1800, Note_on_c, 0, 79, 0
2, 1800, Note_on_c, 0, 74, 86
2, 1800, Note_on_c, 0, 86, 86
2, 1920, Note_on_c, 0, 86, 0
2, 1920, Note_on_c, 0, 74, 0
2, 1920, Note_on_c, 0, 75, 86
2, 1920, Note_on_c, 0, 87, 86
2, 2160, Note_on_c, 0, 87, 0
2, 2160, Note_on_c, 0, 75, 0
2, 2160, Note_on_c, 0, 74, 86
2, 2160, Note_on_c, 0, 77, 86
2, 2160, Note_on_c, 0, 79, 86
2, 2160, Note_on_c, 0, 86, 86
2, 2400, Note_on_c, 0, 86, 0
2, 2400, Note_on_c, 0, 74, 0
2, 2400, Note_on_c, 0, 77, 0
2, 2400, Note_on_c, 0, 79, 0
2, 2400, Note_on_c, 0, 79, 86
2, 2400, Note_on_c, 0, 91, 86
2, 2640, Note_on_c, 0, 91, 0
2, 2640, Note_on_c, 0, 79, 0
2, 2640, Note_on_c, 0, 79, 86
2, 2640, Note_on_c, 0, 91, 86
2, 2687, Note_on_c, 0, 91, 0
2, 2687, Note_on_c, 0, 79, 0
2, 2880, Note_on_c, 0, 75, 86
2, 2880, Note_on_c, 0, 79, 86
2, 2880, Note_on_c, 0, 87, 86
2, 3240, Note_on_c, 0, 87, 0
2, 3240, Note_on_c, 0, 79, 0
2, 3240, Note_on_c, 0, 75, 0
2, 3240, Note_on_c, 0, 74, 86
2, 3240, Note_on_c, 0, 86, 86
2, 3360, Note_on_c, 0, 86, 0
2, 3360, Note_on_c, 0, 74, 0
2, 3360, Note_on_c, 0, 72, 86
2, 3360, Note_on_c, 0, 84, 86
2, 3600, Note_on_c, 0, 84, 0
2, 3600, Note_on_c, 0, 72, 0
2, 3600, Note_on_c, 0, 71, 86
2, 3600, Note_on_c, 0, 77, 86
2, 3600, Note_on_c, 0, 79, 86
2, 3600, Note_on_c, 0, 83, 86
2, 3960, Note_on_c, 0, 83, 0
2, 3960, Note_on_c, 0, 71, 0
2, 3960, Note_on_c, 0, 77, 0
2, 3960, Note_on_c, 0, 79, 0
2, 3960, Note_on_c, 0, 68, 86
2, 3960, Note_on_c, 0, 80, 86
2, 4080, Note_on_c, 0, 80, 0
2, 4080, Note_on_c, 0, 68, 0
2, 4080, Note_on_c, 0, 67, 86
2, 4080, Note_on_c, 0, 79, 86
2, 4320, Note_on_c, 0, 79, 0
2, 4320, Note_on_c, 0, 67, 0
2, 4320, Note_on_c, 0, 72, 86
2, 4320, Note_on_c, 0, 75, 86
2, 4320, Note_on_c, 0, 79, 86
2, 4320, Note_on_c, 0, 84, 86
2, 4680, Note_on_c, 0, 84, 0
2, 4680, Note_on_c, 0, 72, 0
2, 4680, Note_on_c, 0, 75, 0
2, 4680, Note_on_c, 0, 79, 0
2, 4680, Note_on_c, 0, 74, 86
2, 4680, Note_on_c, 0, 86, 86
2, 4800, Note_on_c, 0, 86, 0
2, 4800, Note_on_c, 0, 74, 0
2, 4800, Note_on_c, 0, 72, 86
2, 4800, Note_on_c, 0, 78, 86
2, 4800, Note_on_c, 0, 84, 86
2, 5040, Note_on_c, 0, 84, 0
2, 5040, Note_on_c, 0, 78, 0
2, 5040, Note_on_c, 0, 72, 0
2, 5040, Note_on_c, 0, 71, 86
2, 5040, Note_on_c, 0, 74, 86
2, 5040, Note_on_c, 0, 83, 86
2, 5280, Note_on_c, 0, 83, 0
2, 5280, Note_on_c, 0, 74, 0
2, 5280, Note_on_c, 0, 71, 0
2, 5280, Note_on_c, 0, 67, 86
2, 5280, Note_on_c, 0, 79, 86
2, 5520, Note_on_c, 0, 79, 0
2, 5520, Note_on_c, 0, 67, 0
2, 5520, Note_on_c, 0, 67, 86
2, 5520, Note_on_c, 0, 79, 86
2, 5567, Note_on_c, 0, 79, 0
2, 5567, Note_on_c, 0, 67, 0
2, 5760, Note_on_c, 0, 75, 86
2, 5760, Note_on_c, 0, 79, 86
2, 5760, Note_on_c, 0, 87, 86
2, 6120, Note_on_c, 0, 87, 0
2, 6120, Note_on_c, 0, 79, 0
2, 6120, Note_on_c, 0, 75, 0
2, 6120, Note_on_c, 0, 74, 86
2, 6120, Note_on_c, 0, 86, 86
2, 6240, Note_on_c, 0, 86, 0
2, 6240, Note_on_c, 0, 74, 0
2, 6240, Note_on_c, 0, 72, 86
2, 6240, Note_on_c, 0, 84, 86
2, 6480, Note_on_c, 0, 84, 0
2, 6480, Note_on_c, 0, 72, 0
2, 6480, Note_on_c, 0, 71, 86
2, 6480, Note_on_c, 0, 77, 86
2, 6480, Note_on_c, 0, 79, 86
2, 6480, Note_on_c, 0, 83, 86
2, 6840, Note_on_c, 0, 83, 0
2, 6840, Note_on_c, 0, 71, 0
2, 6840, Note_on_c, 0, 77, 0
2, 6840, Note_on_c, 0, 79, 0
2, 6840, Note_on_c, 0, 68, 86
2, 6840, Note_on_c, 0, 80, 86
2, 6960, Note_on_c, 0, 80, 0
2, 6960, Note_on_c, 0, 68, 0
2, 6960, Note_on_c, 0, 67, 86
2, 6960, Note_on_c, 0, 79, 86
2, 7200, Note_on_c, 0, 79, 0
2, 7200, Note_on_c, 0, 67, 0
2, 7200, Note_on_c, 0, 72, 86
2, 7200, Note_on_c, 0, 75, 86
2, 7200, Note_on_c, 0, 79, 86
2, 7200, Note_on_c, 0, 84, 86
2, 7560, Note_on_c, 0, 84, 0
2, 7560, Note_on_c, 0, 72, 0
2, 7560, Note_on_c, 0, 75, 0
2, 7560, Note_on_c, 0, 79, 0
2, 7560, Note_on_c, 0, 74, 86
2, 7560, Note_on_c, 0, 86, 86
2, 7680, Note_on_c, 0, 86, 0
2, 7680, Note_on_c, 0, 74, 0
2, 7680, Note_on_c, 0, 75, 86
2, 7680, Note_on_c, 0, 87, 86
2, 7920, Note_on_c, 0, 87, 0
2, 7920, Note_on_c, 0, 75, 0
2, 7920, Note_on_c, 0, 74, 86
2, 7920, Note_on_c, 0, 77, 86
2, 7920, Note_on_c, 0, 79, 86
2, 7920, Note_on_c, 0, 86, 86
2, 8160, Note_on_c, 0, 86, 0
2, 8160, Note_on_c, 0, 74, 0
2, 8160, Note_on_c, 0, 77, 0
2, 8160, Note_on_c, 0, 91, 86
2, 8400, Note_on_c, 0, 91, 0
2, 8400, Note_on_c, 0, 79, 0
2, 8400, Note_on_c, 0, 79, 86
2, 8400, Note_on_c, 0, 91, 86
2, 8447, Note_on_c, 0, 91, 0
2, 8447, Note_on_c, 0, 79, 0
2, 8640, Note_on_c, 0, 75, 86
2, 8640, Note_on_c, 0, 79, 86
2, 8640, Note_on_c, 0, 87, 86
2, 9000, Note_on_c, 0, 87, 0
2, 9000, Note_on_c, 0, 79, 0
2, 9000, Note_on_c, 0, 75, 0
2, 9000, Note_on_c, 0, 74, 86
2, 9000, Note_on_c, 0, 86, 86
2, 9120, Note_on_c, 0, 86, 0
2, 9120, Note_on_c, 0, 74, 0
2, 9120, Note_on_c, 0, 72, 86
2, 9120, Note_on_c, 0, 84, 86
2, 9360, Note_on_c, 0, 84, 0
2, 9360, Note_on_c, 0, 72, 0
2, 9360, Note_on_c, 0, 71, 86
2, 9360, Note_on_c, 0, 77, 86
2, 9360, Note_on_c, 0, 79, 86
2, 9360, Note_on_c, 0, 83, 86
2, 9720, Note_on_c, 0, 83, 0
2, 9720, Note_on_c, 0, 71, 0
2, 9720, Note_on_c, 0, 77, 0
2, 9720, Note_on_c, 0, 79, 0
2, 9720, Note_on_c, 0, 68, 86
2, 9720, Note_on_c, 0, 80, 86
2, 9840, Note_on_c, 0, 80, 0
2, 9840, Note_on_c, 0, 68, 0
2, 9840, Note_on_c, 0, 67, 86
2, 9840, Note_on_c, 0, 79, 86
2, 10080, Note_on_c, 0, 79, 0
2, 10080, Note_on_c, 0, 67, 0
2, 10080, Note_on_c, 0, 72, 86
2, 10080, Note_on_c, 0, 75, 86
2, 10080, Note_on_c, 0, 79, 86
2, 10080, Note_on_c, 0, 84, 86
2, 10320, Note_on_c, 0, 84, 0
2, 10320, Note_on_c, 0, 72, 0
2, 10320, Note_on_c, 0, 75, 0
2, 10320, Note_on_c, 0, 79, 0
2, 10320, Note_on_c, 0, 67, 86
2, 10320, Note_on_c, 0, 79, 86
2, 10560, Note_on_c, 0, 79, 0
2, 10560, Note_on_c, 0, 67, 0
2, 10560, Note_on_c, 0, 71, 86
2, 10560, Note_on_c, 0, 77, 86
2, 10560, Note_on_c, 0, 79, 86
2, 10560, Note_on_c, 0, 83, 86
2, 10607, Note_on_c, 0, 83, 0
2, 10607, Note_on_c, 0, 71, 0
2, 10607, Note_on_c, 0, 77, 0
2, 10607, Note_on_c, 0, 79, 0
2, 10800, Note_on_c, 0, 72, 86
2, 10800, Note_on_c, 0, 75, 86
2, 10800, Note_on_c, 0, 79, 86
2, 10800, Note_on_c, 0, 84, 86
2, 10920, Note_on_c, 0, 84, 0
2, 10920, Note_on_c, 0, 72, 0
2, 10920, Note_on_c, 0, 75, 0
2, 10920, Note_on_c, 0, 79, 0
2, 10920, Note_on_c, 0, 67, 86
2, 10920, Note_on_c, 0, 79, 86
2, 11040, Note_on_c, 0, 79, 0
2, 11040, Note_on_c, 0, 67, 0
2, 11040, Note_on_c, 0, 69, 86
2, 11040, Note_on_c, 0, 81, 86
2, 11160, Note_on_c, 0, 81, 0
2, 11160, Note_on_c, 0, 69, 0
2, 11160, Note_on_c, 0, 71, 86
2, 11160, Note_on_c, 0, 83, 86
2, 11280, Note_on_c, 0, 83, 0
2, 11280, Note_on_c, 0, 71, 0
2, 11280, Note_on_c, 0, 72, 86
2, 11280, Note_on_c, 0, 84, 86
2, 11400, Note_on_c, 0, 84, 0
2, 11400, Note_on_c, 0, 72, 0
2, 11400, Note_on_c, 0, 74, 86
2, 11400, Note_on_c, 0, 86, 86
2, 11520, Note_on_c, 0, 86, 0
2, 11520, Note_on_c, 0, 74, 0
2, 11520, Note_on_c, 0, 75, 86
2, 11520, Note_on_c, 0, 79, 86
2, 11520, Note_on_c, 0, 87, 86
2, 11880, Note_on_c, 0, 87, 0
2, 11880, Note_on_c, 0, 79, 0
2, 11880, Note_on_c, 0, 75, 0
2, 11880, Note_on_c, 0, 74, 86
2, 11880, Note_on_c, 0, 86, 86
2, 12000, Note_on_c, 0, 86, 0
2, 12000, Note_on_c, 0, 74, 0
2, 12000, Note_on_c, 0, 72, 86
2, 12000, Note_on_c, 0, 84, 86
2, 12240, Note_on_c, 0, 84, 0
2, 12240, Note_on_c, 0, 72, 0
2, 12240, Note_on_c, 0, 71, 86
2, 12240, Note_on_c, 0, 77, 86
2, 12240, Note_on_c, 0, 79, 86
2, 12240, Note_on_c, 0, 83, 86
2, 12600, Note_on_c, 0, 83, 0
2, 12600, Note_on_c, 0, 71, 0
2, 12600, Note_on_c, 0, 77, 0
2, 12600, Note_on_c, 0, 79, 0
2, 12600, Note_on_c, 0, 68, 86
2, 12600, Note_on_c, 0, 80, 86
2, 12720, Note_on_c, 0, 80, 0
2, 12720, Note_on_c, 0, 68, 0
2, 12720, Note_on_c, 0, 67, 86
2, 12720, Note_on_c, 0, 79, 86
2, 12960, Note_on_c, 0, 79, 0
2, 12960, Note_on_c, 0, 67, 0
2, 12960, Note_on_c, 0, 72, 86
2, 12960, Note_on_c, 0, 75, 86
2, 12960, Note_on_c, 0, 79, 86
2, 12960, Note_on_c, 0, 84, 86
2, 13320, Note_on_c, 0, 84, 0
2, 13320, Note_on_c, 0, 72, 0
2, 13320, Note_on_c, 0, 75, 0
2, 13320, Note_on_c, 0, 79, 0
2, 13320, Note_on_c, 0, 74, 86
2, 13320, Note_on_c, 0, 86, 86
2, 13440, Note_on_c, 0, 86, 0
2, 13440, Note_on_c, 0, 74, 0
2, 13440, Note_on_c, 0, 75, 86
2, 13440, Note_on_c, 0, 87, 86
2, 13680, Note_on_c, 0, 87, 0
2, 13680, Note_on_c, 0, 75, 0
2, 13680, Note_on_c, 0, 74, 86
2, 13680, Note_on_c, 0, 77, 86
2, 13680, Note_on_c, 0, 79, 86
2, 13680, Note_on_c, 0, 86, 86
2, 13920, Note_on_c, 0, 86, 0
2, 13920, Note_on_c, 0, 74, 0
2, 13920, Note_on_c, 0, 77, 0
2, 13920, Note_on_c, 0, 91, 86
2, 14160, Note_on_c, 0, 91, 0
2, 14160, Note_on_c, 0, 79, 0
2, 14160, Note_on_c, 0, 79, 86
2, 14160, Note_on_c, 0, 91, 86
2, 14207, Note_on_c, 0, 91, 0
2, 14207, Note_on_c, 0, 79, 0
2, 14400, Note_on_c, 0, 75, 86
2, 14400, Note_on_c, 0, 79, 86
2, 14400, Note_on_c, 0, 87, 86
2, 14760, Note_on_c, 0, 87, 0
2, 14760, Note_on_c, 0, 79, 0
2, 14760, Note_on_c, 0, 75, 0
2, 14760, Note_on_c, 0, 74, 86
2, 14760, Note_on_c, 0, 86, 86
2, 14880, Note_on_c, 0, 86, 0
2, 14880, Note_on_c, 0, 74, 0
2, 14880, Note_on_c, 0, 72, 86
2, 14880, Note_on_c, 0, 84, 86
2, 15120, Note_on_c, 0, 84, 0
2, 15120, Note_on_c, 0, 72, 0
2, 15120, Note_on_c, 0, 71, 86
2, 15120, Note_on_c, 0, 77, 86
2, 15120, Note_on_c, 0, 79, 86
2, 15120, Note_on_c, 0, 83, 86
2, 15480, Note_on_c, 0, 83, 0
2, 15480, Note_on_c, 0, 71, 0
2, 15480, Note_on_c, 0, 77, 0
2, 15480, Note_on_c, 0, 79, 0
2, 15480, Note_on_c, 0, 68, 86
2, 15480, Note_on_c, 0, 80, 86
2, 15600, Note_on_c, 0, 80, 0
2, 15600, Note_on_c, 0, 68, 0
2, 15600, Note_on_c, 0, 67, 86
2, 15600, Note_on_c, 0, 79, 86
2, 15840, Note_on_c, 0, 79, 0
2, 15840, Note_on_c, 0, 67, 0
2, 15840, Note_on_c, 0, 72, 86
2, 15840, Note_on_c, 0, 75, 86
2, 15840, Note_on_c, 0, 79, 86
2, 15840, Note_on_c, 0, 84, 86
2, 16200, Note_on_c, 0, 84, 0
2, 16200, Note_on_c, 0, 72, 0
2, 16200, Note_on_c, 0, 75, 0
2, 16200, Note_on_c, 0, 79, 0
2, 16200, Note_on_c, 0, 74, 86
2, 16200, Note_on_c, 0, 86, 86
2, 16320, Note_on_c, 0, 86, 0
2, 16320, Note_on_c, 0, 74, 0
2, 16320, Note_on_c, 0, 72, 86
2, 16320, Note_on_c, 0, 78, 86
2, 16320, Note_on_c, 0, 84, 86
2, 16560, Note_on_c, 0, 84, 0
2, 16560, Note_on_c, 0, 78, 0
2, 16560, Note_on_c, 0, 72, 0
2, 16560, Note_on_c, 0, 71, 86
2, 16560, Note_on_c, 0, 74, 86
2, 16560, Note_on_c, 0, 83, 86
2, 16800, Note_on_c, 0, 83, 0
2, 16800, Note_on_c, 0, 74, 0
2, 16800, Note_on_c, 0, 71, 0
2, 16800, Note_on_c, 0, 67, 86
2, 16800, Note_on_c, 0, 79, 86
2, 17040, Note_on_c, 0, 79, 0
2, 17040, Note_on_c, 0, 67, 0
2, 17040, Note_on_c, 0, 67, 86
2, 17040, Note_on_c, 0, 79, 86
2, 17087, Note_on_c, 0, 79, 0
2, 17087, Note_on_c, 0, 67, 0
2, 17280, Note_on_c, 0, 75, 86
2, 17280, Note_on_c, 0, 79, 86
2, 17280, Note_on_c, 0, 87, 86
2, 17640, Note_on_c, 0, 87, 0
2, 17640, Note_on_c, 0, 79, 0
2, 17640, Note_on_c, 0, 75, 0
2, 17640, Note_on_c, 0, 74, 86
2, 17640, Note_on_c, 0, 86, 86
2, 17760, Note_on_c, 0, 86, 0
2, 17760, Note_on_c, 0, 74, 0
2, 17760, Note_on_c, 0, 72, 86
2, 17760, Note_on_c, 0, 84, 86
2, 18000, Note_on_c, 0, 84, 0
2, 18000, Note_on_c, 0, 72, 0
2, 18000, Note_on_c, 0, 71, 86
2, 18000, Note_on_c, 0, 77, 86
2, 18000, Note_on_c, 0, 79, 86
2, 18000, Note_on_c, 0, 83, 86
2, 18360, Note_on_c, 0, 83, 0
2, 18360, Note_on_c, 0, 71, 0
2, 18360, Note_on_c, 0, 77, 0
2, 18360, Note_on_c, 0, 79, 0
2, 18360, Note_on_c, 0, 68, 86
2, 18360, Note_on_c, 0, 80, 86
2, 18480, Note_on_c, 0, 80, 0
2, 18480, Note_on_c, 0, 68, 0
2, 18480, Note_on_c, 0, 67, 86
2, 18480, Note_on_c, 0, 79, 86
2, 18720, Note_on_c, 0, 79, 0
2, 18720, Note_on_c, 0, 67, 0
2, 18720, Note_on_c, 0, 72, 86
2, 18720, Note_on_c, 0, 75, 86
2, 18720, Note_on_c, 0, 79, 86
2, 18720, Note_on_c, 0, 84, 86
2, 19080, Note_on_c, 0, 84, 0
2, 19080, Note_on_c, 0, 72, 0
2, 19080, Note_on_c, 0, 75, 0
2, 19080, Note_on_c, 0, 79, 0
2, 19080, Note_on_c, 0, 74, 86
2, 19080, Note_on_c, 0, 86, 86
2, 19200, Note_on_c, 0, 86, 0
2, 19200, Note_on_c, 0, 74, 0
2, 19200, Note_on_c, 0, 75, 86
2, 19200, Note_on_c, 0, 87, 86
2, 19440, Note_on_c, 0, 87, 0
2, 19440, Note_on_c, 0, 75, 0
2, 19440, Note_on_c, 0, 74, 86
2, 19440, Note_on_c, 0, 77, 86
2, 19440, Note_on_c, 0, 79, 86
2, 19440, Note_on_c, 0, 86, 86
2, 19680, Note_on_c, 0, 86, 0
2, 19680, Note_on_c, 0, 74, 0
2, 19680, Note_on_c, 0, 77, 0
2, 19680, Note_on_c, 0, 91, 86
2, 19920, Note_on_c, 0, 91, 0
2, 19920, Note_on_c, 0, 79, 0
2, 19920, Note_on_c, 0, 79, 86
2, 19920, Note_on_c, 0, 91, 86
2, 19967, Note_on_c, 0, 91, 0
2, 19967, Note_on_c, 0, 79, 0
2, 20160, Note_on_c, 0, 75, 86
2, 20160, Note_on_c, 0, 79, 86
2, 20160, Note_on_c, 0, 87, 86
2, 20520, Note_on_c, 0, 87, 0
2, 20520, Note_on_c, 0, 79, 0
2, 20520, Note_on_c, 0, 75, 0
2, 20520, Note_on_c, 0, 74, 86
2, 20520, Note_on_c, 0, 86, 86
2, 20640, Note_on_c, 0, 86, 0
2, 20640, Note_on_c, 0, 74, 0
2, 20640, Note_on_c, 0, 72, 86
2, 20640, Note_on_c, 0, 84, 86
2, 20880, Note_on_c, 0, 84, 0
2, 20880, Note_on_c, 0, 72, 0
2, 20880, Note_on_c, 0, 71, 86
2, 20880, Note_on_c, 0, 77, 86
2, 20880, Note_on_c, 0, 79, 86
2, 20880, Note_on_c, 0, 83, 86
2, 21240, Note_on_c, 0, 83, 0
2, 21240, Note_on_c, 0, 71, 0
2, 21240, Note_on_c, 0, 77, 0
2, 21240, Note_on_c, 0, 79, 0
2, 21240, Note_on_c, 0, 68, 86
2, 21240, Note_on_c, 0, 80, 86
2, 21360, Note_on_c, 0, 80, 0
2, 21360, Note_on_c, 0, 68, 0
2, 21360, Note_on_c, 0, 67, 86
2, 21360, Note_on_c, 0, 79, 86
2, 21600, Note_on_c, 0, 79, 0
2, 21600, Note_on_c, 0, 67, 0
2, 21600, Note_on_c, 0, 72, 86
2, 21600, Note_on_c, 0, 75, 86
2, 21600, Note_on_c, 0, 79, 86
2, 21600, Note_on_c, 0, 84, 86
2, 21840, Note_on_c, 0, 84, 0
2, 21840, Note_on_c, 0, 72, 0
2, 21840, Note_on_c, 0, 75, 0
2, 21840, Note_on_c, 0, 79, 0
2, 21840, Note_on_c, 0, 67, 86
2, 21840, Note_on_c, 0, 79, 86
2, 22080, Note_on_c, 0, 79, 0
2, 22080, Note_on_c, 0, 67, 0
2, 22080, Note_on_c, 0, 71, 86
2, 22080, Note_on_c, 0, 77, 86
2, 22080, Note_on_c, 0, 79, 86
2, 22080, Note_on_c, 0, 83, 86
2, 22127, Note_on_c, 0, 83, 0
2, 22127, Note_on_c, 0, 71, 0
2, 22127, Note_on_c, 0, 77, 0
2, 22127, Note_on_c, 0, 79, 0
2, 22320, Note_on_c, 0, 72, 86
2, 22320, Note_on_c, 0, 75, 86
2, 22320, Note_on_c, 0, 79, 86
2, 22320, Note_on_c, 0, 84, 86
2, 22560, Note_on_c, 0, 84, 0
2, 22560, Note_on_c, 0, 72, 0
2, 22560, Note_on_c, 0, 75, 0
2, 22560, Note_on_c, 0, 79, 0
2, 22560, Note_on_c, 0, 71, 86
2, 22560, Note_on_c, 0, 83, 86
2, 22680, Note_on_c, 0, 83, 0
2, 22680, Note_on_c, 0, 71, 0
2, 22680, Note_on_c, 0, 72, 86
2, 22680, Note_on_c, 0, 84, 86
2, 22800, Note_on_c, 0, 84, 0
2, 22800, Note_on_c, 0, 72, 0
2, 22800, Note_on_c, 0, 74, 86
2, 22800, Note_on_c, 0, 86, 86
2, 22920, Note_on_c, 0, 86, 0
2, 22920, Note_on_c, 0, 74, 0
2, 22920, Note_on_c, 0, 75, 86
2, 22920, Note_on_c, 0, 87, 86
2, 23040, Note_on_c, 0, 87, 0
2, 23040, Note_on_c, 0, 75, 0
2, 23040, Note_on_c, 0, 77, 86
2, 23040, Note_on_c, 0, 89, 86
2, 23400, Note_on_c, 0, 89, 0
2, 23400, Note_on_c, 0, 77, 0
2, 23400, Note_on_c, 0, 79, 86
2, 23400, Note_on_c, 0, 91, 86
2, 23520, Note_on_c, 0, 91, 0
2, 23520, Note_on_c, 0, 79, 0
2, 23520, Note_on_c, 0, 77, 86
2, 23520, Note_on_c, 0, 89, 86
2, 23760, Note_on_c, 0, 89, 0
2, 23760, Note_on_c, 0, 77, 0
2, 23760, Note_on_c, 0, 53, 86
2, 23760, Note_on_c, 0, 58, 86
2, 23760, Note_on_c, 0, 62, 86
2, 23760, Note_on_c, 0, 65, 86
2, 24480, Note_on_c, 0, 65, 0
2, 24480, Note_on_c, 0, 53, 0
2, 24480, Note_on_c, 0, 58, 0
2, 24480, Note_on_c, 0, 62, 0
2, 24480, Note_on_c, 0, 69, 86
2, 24840, Note_on_c, 0, 69, 0
2, 24840, Note_on_c, 0, 68, 86
2, 24960, Note_on_c, 0, 68, 0
2, 24960, Note_on_c, 0, 69, 86
2, 25200, Note_on_c, 0, 69, 0
2, 25200, Note_on_c, 0, 70, 86
2, 25200, Note_on_c, 0, 74, 86
2, 25200, Note_on_c, 0, 77, 86
2, 25200, Note_on_c, 0, 82, 86
2, 25560, Note_on_c, 0, 82, 0
2, 25560, Note_on_c, 0, 70, 0
2, 25560, Note_on_c, 0, 74, 0
2, 25560, Note_on_c, 0, 77, 0
2, 25560, Note_on_c, 0, 69, 86
2, 25560, Note_on_c, 0, 72, 86
2, 25560, Note_on_c, 0, 77, 86
2, 25560, Note_on_c, 0, 81, 86
2, 25680, Note_on_c, 0, 81, 0
2, 25680, Note_on_c, 0, 69, 0
2, 25680, Note_on_c, 0, 72, 0
2, 25680, Note_on_c, 0, 77, 0
2, 25680, Note_on_c, 0, 70, 86
2, 25680, Note_on_c, 0, 74, 86
2, 25680, Note_on_c, 0, 77, 86
2, 25680, Note_on_c, 0, 82, 86
2, 25920, Note_on_c, 0, 82, 0
2, 25920, Note_on_c, 0, 70, 0
2, 25920, Note_on_c, 0, 74, 0
2, 25920, Note_on_c, 0, 77, 0
2, 25920, Note_on_c, 0, 77, 86
2, 25920, Note_on_c, 0, 89, 86
2, 26280, Note_on_c, 0, 89, 0
2, 26280, Note_on_c, 0, 77, 0
2, 26280, Note_on_c, 0, 79, 86
2, 26280, Note_on_c, 0, 91, 86
2, 26400, Note_on_c, 0, 91, 0
2, 26400, Note_on_c, 0, 79, 0
2, 26400, Note_on_c, 0, 77, 86
2, 26400, Note_on_c, 0, 89, 86
2, 26640, Note_on_c, 0, 89, 0
2, 26640, Note_on_c, 0, 77, 0
2, 26640, Note_on_c, 0, 53, 86
2, 26640, Note_on_c, 0, 58, 86
2, 26640, Note_on_c, 0, 62, 86
2, 26640, Note_on_c, 0, 65, 86
2, 27360, Note_on_c, 0, 65, 0
2, 27360, Note_on_c, 0, 53, 0
2, 27360, Note_on_c, 0, 58, 0
2, 27360, Note_on_c, 0, 62, 0
2, 27360, Note_on_c, 0, 69, 86
2, 27720, Note_on_c, 0, 69, 0
2, 27720, Note_on_c, 0, 68, 86
2, 27840, Note_on_c, 0, 68, 0
2, 27840, Note_on_c, 0, 69, 86
2, 28080, Note_on_c, 0, 69, 0
2, 28080, Note_on_c, 0, 70, 86
2, 28080, Note_on_c, 0, 74, 86
2, 28080, Note_on_c, 0, 77, 86
2, 28080, Note_on_c, 0, 82, 86
2, 28320, Note_on_c, 0, 82, 0
2, 28320, Note_on_c, 0, 70, 0
2, 28320, Note_on_c, 0, 74, 0
2, 28320, Note_on_c, 0, 77, 0
2, 28320, Note_on_c, 0, 70, 86
2, 28320, Note_on_c, 0, 82, 86
2, 28440, Note_on_c, 0, 82, 0
2, 28440, Note_on_c, 0, 70, 0
2, 28440, Note_on_c, 0, 72, 86
2, 28440, Note_on_c, 0, 84, 86
2, 28560, Note_on_c, 0, 84, 0
2, 28560, Note_on_c, 0, 72, 0
2, 28560, Note_on_c, 0, 74, 86
2, 28560, Note_on_c, 0, 86, 86
2, 28680, Note_on_c, 0, 86, 0
2, 28680, Note_on_c, 0, 74, 0
2, 28680, Note_on_c, 0, 75, 86
2, 28680, Note_on_c, 0, 87, 86
2, 28800, Note_on_c, 0, 87, 0
2, 28800, Note_on_c, 0, 75, 0
2, 28800, Note_on_c, 0, 77, 86
2, 28800, Note_on_c, 0, 89, 86
2, 29160, Note_on_c, 0, 89, 0
2, 29160, Note_on_c, 0, 77, 0
2, 29160, Note_on_c, 0, 79, 86
2, 29160, Note_on_c, 0, 91, 86
2, 29280, Note_on_c, 0, 91, 0
2, 29280, Note_on_c, 0, 79, 0
2, 29280, Note_on_c, 0, 77, 86
2, 29280, Note_on_c, 0, 89, 86
2, 29520, Note_on_c, 0, 89, 0
2, 29520, Note_on_c, 0, 77, 0
2, 29520, Note_on_c, 0, 53, 86
2, 29520, Note_on_c, 0, 58, 86
2, 29520, Note_on_c, 0, 62, 86
2, 29520, Note_on_c, 0, 65, 86
2, 30240, Note_on_c, 0, 65, 0
2, 30240, Note_on_c, 0, 53, 0
2, 30240, Note_on_c, 0, 58, 0
2, 30240, Note_on_c, 0, 62, 0
2, 30240, Note_on_c, 0, 69, 86
2, 30600, Note_on_c, 0, 69, 0
2, 30600, Note_on_c, 0, 68, 86
2, 30720, Note_on_c, 0, 68, 0
2, 30720, Note_on_c, 0, 69, 86
2, 30960, Note_on_c, 0, 69, 0
2, 30960, Note_on_c, 0, 70, 86
2, 30960, Note_on_c, 0, 74, 86
2, 30960, Note_on_c, 0, 77, 86
2, 30960, Note_on_c, 0, 82, 86
2, 31320, Note_on_c, 0, 82, 0
2, 31320, Note_on_c, 0, 70, 0
2, 31320, Note_on_c, 0, 74, 0
2, 31320, Note_on_c, 0, 77, 0
2, 31320, Note_on_c, 0, 69, 86
2, 31320, Note_on_c, 0, 72, 86
2, 31320, Note_on_c, 0, 77, 86
2, 31320, Note_on_c, 0, 81, 86
2, 31440, Note_on_c, 0, 81, 0
2, 31440, Note_on_c, 0, 69, 0
2, 31440, Note_on_c, 0, 72, 0
2, 31440, Note_on_c, 0, 77, 0
2, 31440, Note_on_c, 0, 70, 86
2, 31440, Note_on_c, 0, 74, 86
2, 31440, Note_on_c, 0, 77, 86
2, 31440, Note_on_c, 0, 82, 86
2, 31680, Note_on_c, 0, 82, 0
2, 31680, Note_on_c, 0, 70, 0
2, 31680, Note_on_c, 0, 74, 0
2, 31680, Note_on_c, 0, 77, 0
2, 31680, Note_on_c, 0, 77, 86
2, 31680, Note_on_c, 0, 89, 86
2, 32040, Note_on_c, 0, 89, 0
2, 32040, Note_on_c, 0, 77, 0
2, 32040, Note_on_c, 0, 79, 86
2, 32040, Note_on_c, 0, 91, 86
2, 32160, Note_on_c, 0, 91, 0
2, 32160, Note_on_c, 0, 79, 0
2, 32160, Note_on_c, 0, 77, 86
2, 32160, Note_on_c, 0, 89, 86
2, 32400, Note_on_c, 0, 89, 0
2, 32400, Note_on_c, 0, 77, 0
2, 32400, Note_on_c, 0, 53, 86
2, 32400, Note_on_c, 0, 58, 86
2, 32400, Note_on_c, 0, 62, 86
2, 32400, Note_on_c, 0, 65, 86
2, 33120, Note_on_c, 0, 65, 0
2, 33120, Note_on_c, 0, 53, 0
2, 33120, Note_on_c, 0, 58, 0
2, 33120, Note_on_c, 0, 62, 0
2, 33120, Note_on_c, 0, 69, 86
2, 33480, Note_on_c, 0, 69, 0
2, 33480, Note_on_c, 0, 68, 86
2, 33600, Note_on_c, 0, 68, 0
2, 33600, Note_on_c, 0, 69, 86
2, 33840, Note_on_c, 0, 69, 0
2, 33840, Note_on_c, 0, 70, 86
2, 33840, Note_on_c, 0, 74, 86
2, 33840, Note_on_c, 0, 77, 86
2, 33840, Note_on_c, 0, 82, 86
2, 34080, Note_on_c, 0, 82, 0
2, 34080, Note_on_c, 0, 70, 0
2, 34080, Note_on_c, 0, 74, 0
2, 34080, Note_on_c, 0, 77, 0
2, 34080, Note_on_c, 0, 65, 86
2, 34200, Note_on_c, 0, 65, 0
2, 34200, Note_on_c, 0, 69, 86
2, 34320, Note_on_c, 0, 69, 0
2, 34320, Note_on_c, 0, 70, 86
2, 34440, Note_on_c, 0, 70, 0
2, 34440, Note_on_c, 0, 72, 86
2, 34560, Note_on_c, 0, 72, 0
2, 34560, Note_on_c, 0, 74, 73
2, 34920, Note_on_c, 0, 74, 0
2, 34920, Note_on_c, 0, 75, 47
2, 35040, Note_on_c, 0, 75, 0
2, 35040, Note_on_c, 0, 74, 47
2, 35280, Note_on_c, 0, 74, 0
2, 35280, Note_on_c, 0, 67, 73
2, 35640, Note_on_c, 0, 67, 0
2, 35640, Note_on_c, 0, 68, 47
2, 35760, Note_on_c, 0, 68, 0
2, 35760, Note_on_c, 0, 67, 47
2, 36000, Note_on_c, 0, 67, 0
2, 36000, Note_on_c, 0, 79, 73
2, 36360, Note_on_c, 0, 79, 0
2, 36360, Note_on_c, 0, 80, 47
2, 36480, Note_on_c, 0, 80, 0
2, 36480, Note_on_c, 0, 79, 47
2, 36720, Note_on_c, 0, 79, 0
2, 36720, Note_on_c, 0, 72, 73
2, 37080, Note_on_c, 0, 72, 0
2, 37080, Note_on_c, 0, 73, 47
2, 37200, Note_on_c, 0, 73, 0
2, 37200, Note_on_c, 0, 72, 47
2, 37440, Note_on_c, 0, 72, 0
2, 37440, Note_on_c, 0, 72, 73
2, 37800, Note_on_c, 0, 72, 0
2, 37800, Note_on_c, 0, 74, 47
2, 37920, Note_on_c, 0, 74, 0
2, 37920, Note_on_c, 0, 72, 47
2, 38160, Note_on_c, 0, 72, 0
2, 38160, Note_on_c, 0, 65, 73
2, 38520, Note_on_c, 0, 65, 0
2, 38520, Note_on_c, 0, 67, 47
2, 38640, Note_on_c, 0, 67, 0
2, 38640, Note_on_c, 0, 65, 47
2, 38880, Note_on_c, 0, 65, 0
2, 38880, Note_on_c, 0, 77, 73
2, 39240, Note_on_c, 0, 77, 0
2, 39240, Note_on_c, 0, 79, 47
2, 39360, Note_on_c, 0, 79, 0
2, 39360, Note_on_c, 0, 77, 47
2, 39600, Note_on_c, 0, 77, 0
2, 39600, Note_on_c, 0, 70, 73
2, 39960, Note_on_c, 0, 70, 0
2, 39960, Note_on_c, 0, 72, 47
2, 40080, Note_on_c, 0, 72, 0
2, 40080, Note_on_c, 0, 70, 47
2, 40320, Note_on_c, 0, 70, 0
2, 40560, Note_on_c, 0, 58, 47
2, 40560, Note_on_c, 0, 64, 47
2, 40607, Note_on_c, 0, 64, 0
2, 40607, Note_on_c, 0, 58, 0
2, 40800, Note_on_c, 0, 64, 47
2, 40800, Note_on_c, 0, 70, 47
2, 40847, Note_on_c, 0, 70, 0
2, 40847, Note_on_c, 0, 64, 0
2, 41040, Note_on_c, 0, 69, 73
2, 41400, Note_on_c, 0, 69, 0
2, 41400, Note_on_c, 0, 68, 47
2, 41520, Note_on_c, 0, 68, 0
2, 41520, Note_on_c, 0, 69, 47
2, 41760, Note_on_c, 0, 69, 0
2, 41760, Note_on_c, 0, 79, 73
2, 42120, Note_on_c, 0, 79, 0
2, 42120, Note_on_c, 0, 78, 47
2, 42240, Note_on_c, 0, 78, 0
2, 42240, Note_on_c, 0, 79, 47
2, 42480, Note_on_c, 0, 79, 0
2, 42480, Note_on_c, 0, 86, 73
2, 42840, Note_on_c, 0, 86, 0
2, 42840, Note_on_c, 0, 85, 47
2, 42960, Note_on_c, 0, 85, 0
2, 42960, Note_on_c, 0, 86, 47
2, 43200, Note_on_c, 0, 86, 0
2, 43200, Note_on_c, 0, 62, 86
2, 43200, Note_on_c, 0, 66, 86
2, 43200, Note_on_c, 0, 69, 86
2, 43200, Note_on_c, 0, 74, 86
2, 43560, Note_on_c, 0, 74, 0
2, 43560, Note_on_c, 0, 62, 0
2, 43560, Note_on_c, 0, 66, 0
2, 43560, Note_on_c, 0, 69, 0
2, 43560, Note_on_c, 0, 61, 60
2, 43560, Note_on_c, 0, 73, 60
2, 43680, Note_on_c, 0, 73, 0
2, 43680, Note_on_c, 0, 61, 0
2, 43680, Note_on_c, 0, 62, 60
2, 43680, Note_on_c, 0, 74, 60
2, 43920, Note_on_c, 0, 74, 0
2, 43920, Note_on_c, 0, 62, 0
2, 43920, Note_on_c, 0, 67, 86
2, 43920, Note_on_c, 0, 74, 86
2, 43920, Note_on_c, 0, 79, 86
2, 44280, Note_on_c, 0, 79, 0
2, 44280, Note_on_c, 0, 74, 0
2, 44280, Note_on_c, 0, 67, 0
2, 44280, Note_on_c, 0, 66, 60
2, 44280, Note_on_c, 0, 78, 60
2, 44400, Note_on_c, 0, 78, 0
2, 44400, Note_on_c, 0, 66, 0
2, 44400, Note_on_c, 0, 67, 60
2, 44400, Note_on_c, 0, 79, 60
2, 44640, Note_on_c, 0, 79, 0
2, 44640, Note_on_c, 0, 67, 0
2, 44640, Note_on_c, 0, 62, 60
2, 45000, Note_on_c, 0, 62, 0
2, 45000, Note_on_c, 0, 61, 60
2, 45120, Note_on_c, 0, 61, 0
2, 45120, Note_on_c, 0, 62, 60
2, 45360, Note_on_c, 0, 62, 0
2, 45360, Note_on_c, 0, 59, 60
2, 45360, Note_on_c, 0, 67, 60
2, 45480, Note_on_c, 0, 67, 0
2, 45480, Note_on_c, 0, 59, 0
2, 45480, Note_on_c, 0, 67, 86
2, 45480, Note_on_c, 0, 79, 86
2, 45600, Note_on_c, 0, 79, 0
2, 45600, Note_on_c, 0, 67, 0
2, 45600, Note_on_c, 0, 69, 86
2, 45600, Note_on_c, 0, 81, 86
2, 45720, Note_on_c, 0, 81, 0
2, 45720, Note_on_c, 0, 69, 0
2, 45720, Note_on_c, 0, 71, 86
2, 45720, Note_on_c, 0, 83, 86
2, 45840, Note_on_c, 0, 83, 0
2, 45840, Note_on_c, 0, 71, 0
2, 45840, Note_on_c, 0, 72, 86
2, 45840, Note_on_c, 0, 84, 86
2, 45960, Note_on_c, 0, 84, 0
2, 45960, Note_on_c, 0, 72, 0
2, 45960, Note_on_c, 0, 74, 86
2, 45960, Note_on_c, 0, 86, 86
2, 46080, Note_on_c, 0, 86, 0
2, 46080, Note_on_c, 0, 74, 0
2, 46080, Note_on_c, 0, 75, 86
2, 46080, Note_on_c, 0, 79, 86
2, 46080, Note_on_c, 0, 87, 86
2, 46440, Note_on_c, 0, 87, 0
2, 46440, Note_on_c, 0, 79, 0
2, 46440, Note_on_c, 0, 75, 0
2, 46440, Note_on_c, 0, 74, 86
2, 46440, Note_on_c, 0, 86, 86
2, 46560, Note_on_c, 0, 86, 0
2, 46560, Note_on_c, 0, 74, 0
2, 46560, Note_on_c, 0, 72, 86
2, 46560, Note_on_c, 0, 84, 86
2, 46800, Note_on_c, 0, 84, 0
2, 46800, Note_on_c, 0, 72, 0
2, 46800, Note_on_c, 0, 71, 86
2, 46800, Note_on_c, 0, 77, 86
2, 46800, Note_on_c, 0, 79, 86
2, 46800, Note_on_c, 0, 83, 86
2, 47160, Note_on_c, 0, 83, 0
2, 47160, Note_on_c, 0, 71, 0
2, 47160, Note_on_c, 0, 77, 0
2, 47160, Note_on_c, 0, 79, 0
2, 47160, Note_on_c, 0, 68, 86
2, 47160, Note_on_c, 0, 80, 86
2, 47280, Note_on_c, 0, 80, 0
2, 47280, Note_on_c, 0, 68, 0
2, 47280, Note_on_c, 0, 67, 86
2, 47280, Note_on_c, 0, 79, 86
2, 47520, Note_on_c, 0, 79, 0
2, 47520, Note_on_c, 0, 67, 0
2, 47520, Note_on_c, 0, 72, 86
2, 47520, Note_on_c, 0, 75, 86
2, 47520, Note_on_c, 0, 79, 86
2, 47520, Note_on_c, 0, 84, 86
2, 47880, Note_on_c, 0, 84, 0
2, 47880, Note_on_c, 0, 72, 0
2, 47880, Note_on_c, 0, 75, 0
2, 47880, Note_on_c, 0, 79, 0
2, 47880, Note_on_c, 0, 74, 86
2, 47880, Note_on_c, 0, 86, 86
2, 48000, Note_on_c, 0, 86, 0
2, 48000, Note_on_c, 0, 74, 0
2, 48000, Note_on_c, 0, 75, 86
2, 48000, Note_on_c, 0, 87, 86
2, 48240, Note_on_c, 0, 87, 0
2, 48240, Note_on_c, 0, 75, 0
2, 48240, Note_on_c, 0, 74, 86
2, 48240, Note_on_c, 0, 77, 86
2, 48240, Note_on_c, 0, 79, 86
2, 48240, Note_on_c, 0, 86, 86
2, 48480, Note_on_c, 0, 86, 0
2, 48480, Note_on_c, 0, 74, 0
2, 48480, Note_on_c, 0, 77, 0
2, 48480, Note_on_c, 0, 91, 86
2, 48720, Note_on_c, 0, 91, 0
2, 48720, Note_on_c, 0, 79, 0
2, 48720, Note_on_c, 0, 79, 86
2, 48720, Note_on_c, 0, 91, 86
2, 48767, Note_on_c, 0, 91, 0
2, 48767, Note_on_c, 0, 79, 0
2, 48960, Note_on_c, 0, 75, 86
2, 48960, Note_on_c, 0, 79, 86
2, 48960, Note_on_c, 0, 87, 86
2, 49320, Note_on_c, 0, 87, 0
2, 49320, Note_on_c, 0, 79, 0
2, 49320, Note_on_c, 0, 75, 0
2, 49320, Note_on_c, 0, 74, 86
2, 49320, Note_on_c, 0, 86, 86
2, 49440, Note_on_c, 0, 86, 0
2, 49440, Note_on_c, 0, 74, 0
2, 49440, Note_on_c, 0, 72, 86
2, 49440, Note_on_c, 0, 84, 86
2, 49680, Note_on_c, 0, 84, 0
2, 49680, Note_on_c, 0, 72, 0
2, 49680, Note_on_c, 0, 71, 86
2, 49680, Note_on_c, 0, 77, 86
2, 49680, Note_on_c, 0, 79, 86
2, 49680, Note_on_c, 0, 83, 86
2, 50040, Note_on_c, 0, 83, 0
2, 50040, Note_on_c, 0, 71, 0
2, 50040, Note_on_c, 0, 77, 0
2, 50040, Note_on_c, 0, 79, 0
2, 50040, Note_on_c, 0, 68, 86
2, 50040, Note_on_c, 0, 80, 86
2, 50160, Note_on_c, 0, 80, 0
2, 50160, Note_on_c, 0, 68, 0
2, 50160, Note_on_c, 0, 67, 86
2, 50160, Note_on_c, 0, 79, 86
2, 50400, Note_on_c, 0, 79, 0
2, 50400, Note_on_c, 0, 67, 0
2, 50400, Note_on_c, 0, 72, 86
2, 50400, Note_on_c, 0, 75, 86
2, 50400, Note_on_c, 0, 79, 86
2, 50400, Note_on_c, 0, 84, 86
2, 50760, Note_on_c, 0, 84, 0
2, 50760, Note_on_c, 0, 72, 0
2, 50760, Note_on_c, 0, 75, 0
2, 50760, Note_on_c, 0, 79, 0
2, 50760, Note_on_c, 0, 74, 86
2, 50760, Note_on_c, 0, 86, 86
2, 50880, Note_on_c, 0, 86, 0
2, 50880, Note_on_c, 0, 74, 0
2, 50880, Note_on_c, 0, 72, 86
2, 50880, Note_on_c, 0, 78, 86
2, 50880, Note_on_c, 0, 84, 86
2, 51120, Note_on_c, 0, 84, 0
2, 51120, Note_on_c, 0, 78, 0
2, 51120, Note_on_c, 0, 72, 0
2, 51120, Note_on_c, 0, 71, 86
2, 51120, Note_on_c, 0, 74, 86
2, 51120, Note_on_c, 0, 83, 86
2, 51360, Note_on_c, 0, 83, 0
2, 51360, Note_on_c, 0, 74, 0
2, 51360, Note_on_c, 0, 71, 0
2, 51360, Note_on_c, 0, 67, 86
2, 51360, Note_on_c, 0, 79, 86
2, 51600, Note_on_c, 0, 79, 0
2, 51600, Note_on_c, 0, 67, 0
2, 51600, Note_on_c, 0, 67, 86
2, 51600, Note_on_c, 0, 79, 86
2, 51647, Note_on_c, 0, 79, 0
2, 51647, Note_on_c, 0, 67, 0
2, 51840, Note_on_c, 0, 75, 86
2, 51840, Note_on_c, 0, 79, 86
2, 51840, Note_on_c, 0, 87, 86
2, 52200, Note_on_c, 0, 87, 0
2, 52200, Note_on_c, 0, 79, 0
2, 52200, Note_on_c, 0, 75, 0
2, 52200, Note_on_c, 0, 74, 86
2, 52200, Note_on_c, 0, 86, 86
2, 52320, Note_on_c, 0, 86, 0
2, 52320, Note_on_c, 0, 74, 0
2, 52320, Note_on_c, 0, 72, 86
2, 52320, Note_on_c, 0, 84, 86
2, 52560, Note_on_c, 0, 84, 0
2, 52560, Note_on_c, 0, 72, 0
2, 52560, Note_on_c, 0, 71, 86
2, 52560, Note_on_c, 0, 77, 86
2, 52560, Note_on_c, 0, 79, 86
2, 52560, Note_on_c, 0, 83, 86
2, 52920, Note_on_c, 0, 83, 0
2, 52920, Note_on_c, 0, 71, 0
2, 52920, Note_on_c, 0, 77, 0
2, 52920, Note_on_c, 0, 79, 0
2, 52920, Note_on_c, 0, 68, 86
2, 52920, Note_on_c, 0, 80, 86
2, 53040, Note_on_c, 0, 80, 0
2, 53040, Note_on_c, 0, 68, 0
2, 53040, Note_on_c, 0, 67, 86
2, 53040, Note_on_c, 0, 79, 86
2, 53280, Note_on_c, 0, 79, 0
2, 53280, Note_on_c, 0, 67, 0
2, 53280, Note_on_c, 0, 72, 86
2, 53280, Note_on_c, 0, 75, 86
2, 53280, Note_on_c, 0, 79, 86
2, 53280, Note_on_c, 0, 84, 86
2, 53640, Note_on_c, 0, 84, 0
2, 53640, Note_on_c, 0, 72, 0
2, 53640, Note_on_c, 0, 75, 0
2, 53640, Note_on_c, 0, 79, 0
2, 53640, Note_on_c, 0, 74, 86
2, 53640, Note_on_c, 0, 86, 86
2, 53760, Note_on_c, 0, 86, 0
2, 53760, Note_on_c, 0, 74, 0
2, 53760, Note_on_c, 0, 75, 86
2, 53760, Note_on_c, 0, 87, 86
2, 54000, Note_on_c, 0, 87, 0
2, 54000, Note_on_c, 0, 75, 0
2, 54000, Note_on_c, 0, 74, 86
2, 54000, Note_on_c, 0, 77, 86
2, 54000, Note_on_c, 0, 79, 86
2, 54000, Note_on_c, 0, 86, 86
2, 54240, Note_on_c, 0, 86, 0
2, 54240, Note_on_c, 0, 74, 0
2, 54240, Note_on_c, 0, 77, 0
2, 54240, Note_on_c, 0, 91, 86
2, 54480, Note_on_c, 0, 91, 0
2, 54480, Note_on_c, 0, 79, 0
2, 54480, Note_on_c, 0, 79, 86
2, 54480, Note_on_c, 0, 91, 86
2, 54527, Note_on_c, 0, 91, 0
2, 54527, Note_on_c, 0, 79, 0
2, 54720, Note_on_c, 0, 75, 86
2, 54720, Note_on_c, 0, 79, 86
2, 54720, Note_on_c, 0, 87, 86
2, 55080, Note_on_c, 0, 87, 0
2, 55080, Note_on_c, 0, 79, 0
2, 55080, Note_on_c, 0, 75, 0
2, 55080, Note_on_c, 0, 74, 86
2, 55080, Note_on_c, 0, 86, 86
2, 55200, Note_on_c, 0, 86, 0
2, 55200, Note_on_c, 0, 74, 0
2, 55200, Note_on_c, 0, 72, 86
2, 55200, Note_on_c, 0, 84, 86
2, 55440, Note_on_c, 0, 84, 0
2, 55440, Note_on_c, 0, 72, 0
2, 55440, Note_on_c, 0, 71, 86
2, 55440, Note_on_c, 0, 77, 86
2, 55440, Note_on_c, 0, 79, 86
2, 55440, Note_on_c, 0, 83, 86
2, 55800, Note_on_c, 0, 83, 0
2, 55800, Note_on_c, 0, 71, 0
2, 55800, Note_on_c, 0, 77, 0
2, 55800, Note_on_c, 0, 79, 0
2, 55800, Note_on_c, 0, 68, 86
2, 55800, Note_on_c, 0, 80, 86
2, 55920, Note_on_c, 0, 80, 0
2, 55920, Note_on_c, 0, 68, 0
2, 55920, Note_on_c, 0, 67, 86
2, 55920, Note_on_c, 0, 79, 86
2, 56160, Note_on_c, 0, 79, 0
2, 56160, Note_on_c, 0, 67, 0
2, 56160, Note_on_c, 0, 72, 86
2, 56160, Note_on_c, 0, 75, 86
2, 56160, Note_on_c, 0, 79, 86
2, 56160, Note_on_c, 0, 84, 86
2, 56400, Note_on_c, 0, 84, 0
2, 56400, Note_on_c, 0, 72, 0
2, 56400, Note_on_c, 0, 75, 0
2, 56400, Note_on_c, 0, 79, 0
2, 56400, Note_on_c, 0, 67, 86
2, 56400, Note_on_c, 0, 79, 86
2, 56640, Note_on_c, 0, 79, 0
2, 56640, Note_on_c, 0, 67, 0
2, 56640, Note_on_c, 0, 71, 86
2, 56640, Note_on_c, 0, 77, 86
2, 56640, Note_on_c, 0, 79, 86
2, 56640, Note_on_c, 0, 83, 86
2, 56687, Note_on_c, 0, 83, 0
2, 56687, Note_on_c, 0, 71, 0
2, 56687, Note_on_c, 0, 77, 0
2, 56687, Note_on_c, 0, 79, 0
2, 56880, Note_on_c, 0, 72, 112
2, 56880, Note_on_c, 0, 75, 112
2, 56880, Note_on_c, 0, 79, 112
2, 56880, Note_on_c, 0, 84, 112
2, 57360, Note_on_c, 0, 84, 0
2, 57360, Note_on_c, 0, 72, 0
2, 57360, Note_on_c, 0, 75, 0
2, 57360, Note_on_c, 0, 79, 0
2, 57360, Control_c, 0, 64, 127
2, 59760, Control_c, 0, 64, 0
2, 59760, End_track
3, 0, Start_track
3, 0, Title_t, "Grand Piano"
3, 0, Program_c, 0, 0
3, 0, Control_c, 0, 7, 115
3, 0, Control_c, 0, 10, 80
3, 24480, Note_on_c, 0, 63, 88
3, 25200, Note_on_c, 0, 63, 0
3, 27360, Note_on_c, 0, 63, 88
3, 28080, Note_on_c, 0, 63, 0
3, 30240, Note_on_c, 0, 63, 88
3, 30960, Note_on_c, 0, 63, 0
3, 33120, Note_on_c, 0, 63, 88
3, 33840, Note_on_c, 0, 63, 0
3, 40320, Note_on_c, 0, 60, 114
3, 40680, Note_on_c, 0, 60, 0
3, 40680, Note_on_c, 0, 59, 88
3, 40800, Note_on_c, 0, 59, 0
3, 40800, Note_on_c, 0, 60, 88
3, 41040, Note_on_c, 0, 60, 0
3, 44640, Note_on_c, 0, 60, 62
3, 45360, Note_on_c, 0, 60, 0
3, 45360, End_track
4, 0, Start_track
4, 0, Title_t, "Grand Piano"
4, 0, Program_c, 0, 0
4, 0, Control_c, 0, 7, 115
4, 0, Control_c, 0, 10, 41
4, 0, Note_on_c, 0, 36, 73
4, 0, Note_on_c, 0, 43, 73
4, 0, Note_on_c, 0, 48, 73
4, 720, Note_on_c, 0, 48, 0
4, 720, Note_on_c, 0, 43, 0
4, 720, Note_on_c, 0, 36, 0
4, 720, Note_on_c, 0, 36, 73
4, 720, Note_on_c, 0, 43, 73
4, 720, Note_on_c, 0, 50, 73
4, 1440, Note_on_c, 0, 50, 0
4, 1440, Note_on_c, 0, 43, 0
4, 1440, Note_on_c, 0, 36, 0
4, 1440, Note_on_c, 0, 36, 73
4, 1440, Note_on_c, 0, 43, 73
4, 1440, Note_on_c, 0, 48, 73
4, 2160, Note_on_c, 0, 48, 0
4, 2160, Note_on_c, 0, 43, 0
4, 2160, Note_on_c, 0, 36, 0
4, 2160, Note_on_c, 0, 36, 73
4, 2160, Note_on_c, 0, 43, 73
4, 2160, Note_on_c, 0, 47, 73
4, 2880, Note_on_c, 0, 47, 0
4, 2880, Note_on_c, 0, 43, 0
4, 2880, Note_on_c, 0, 36, 0
4, 2880, Note_on_c, 0, 36, 73
4, 2880, Note_on_c, 0, 43, 73
4, 2880, Note_on_c, 0, 48, 73
4, 3600, Note_on_c, 0, 48, 0
4, 3600, Note_on_c, 0, 43, 0
4, 3600, Note_on_c, 0, 36, 0
4, 3600, Note_on_c, 0, 36, 73
4, 3600, Note_on_c, 0, 43, 73
4, 3600, Note_on_c, 0, 50, 73
4, 4320, Note_on_c, 0, 50, 0
4, 4320, Note_on_c, 0, 43, 0
4, 4320, Note_on_c, 0, 36, 0
4, 4320, Note_on_c, 0, 36, 73
4, 4320, Note_on_c, 0, 43, 73
4, 4320, Note_on_c, 0, 48, 73
4, 4800, Note_on_c, 0, 48, 0
4, 4800, Note_on_c, 0, 43, 0
4, 4800, Note_on_c, 0, 36, 0
4, 4800, Note_on_c, 0, 32, 73
4, 4800, Note_on_c, 0, 44, 73
4, 5040, Note_on_c, 0, 44, 0
4, 5040, Note_on_c, 0, 32, 0
4, 5040, Note_on_c, 0, 31, 73
4, 5040, Note_on_c, 0, 43, 73
4, 5760, Note_on_c, 0, 43, 0
4, 5760, Note_on_c, 0, 31, 0
4, 5760, Note_on_c, 0, 36, 73
4, 5760, Note_on_c, 0, 43, 73
4, 5760, Note_on_c, 0, 48, 73
4, 6480, Note_on_c, 0, 48, 0
4, 6480, Note_on_c, 0, 43, 0
4, 6480, Note_on_c, 0, 36, 0
4, 6480, Note_on_c, 0, 36, 73
4, 6480, Note_on_c, 0, 43, 73
4, 6480, Note_on_c, 0, 50, 73
4, 7200, Note_on_c, 0, 50, 0
4, 7200, Note_on_c, 0, 43, 0
4, 7200, Note_on_c, 0, 36, 0
4, 7200, Note_on_c, 0, 36, 73
4, 7200, Note_on_c, 0, 43, 73
4, 7200, Note_on_c, 0, 48, 73
4, 7920, Note_on_c, 0, 48, 0
4, 7920, Note_on_c, 0, 43, 0
4, 7920, Note_on_c, 0, 36, 0
4, 7920, Note_on_c, 0, 36, 73
4, 7920, Note_on_c, 0, 43, 73
4, 7920, Note_on_c, 0, 47, 73
4, 8640, Note_on_c, 0, 47, 0
4, 8640, Note_on_c, 0, 43, 0
4, 8640, Note_on_c, 0, 36, 0
4, 8640, Note_on_c, 0, 36, 73
4, 8640, Note_on_c, 0, 43, 73
4, 8640, Note_on_c, 0, 48, 73
4, 9360, Note_on_c, 0, 48, 0
4, 9360, Note_on_c, 0, 43, 0
4, 9360, Note_on_c, 0, 36, 0
4, 9360, Note_on_c, 0, 36, 73
4, 9360, Note_on_c, 0, 43, 73
4, 9360, Note_on_c, 0, 50, 73
4, 10080, Note_on_c, 0, 50, 0
4, 10080, Note_on_c, 0, 43, 0
4, 10080, Note_on_c, 0, 36, 0
4, 10080, Note_on_c, 0, 36, 73
4, 10080, Note_on_c, 0, 43, 73
4, 10080, Note_on_c, 0, 48, 73
4, 10560, Note_on_c, 0, 48, 0
4, 10560, Note_on_c, 0, 43, 0
4, 10560, Note_on_c, 0, 36, 0
4, 10560, Note_on_c, 0, 43, 73
4, 10560, Note_on_c, 0, 50, 73
4, 10800, Note_on_c, 0, 50, 0
4, 10800, Note_on_c, 0, 43, 0
4, 10800, Note_on_c, 0, 36, 73
4, 10800, Note_on_c, 0, 43, 73
4, 10800, Note_on_c, 0, 48, 73
4, 11040, Note_on_c, 0, 48, 0
4, 11040, Note_on_c, 0, 43, 0
4, 11040, Note_on_c, 0, 36, 0
4, 11520, Note_on_c, 0, 36, 73
4, 11520, Note_on_c, 0, 43, 73
4, 11520, Note_on_c, 0, 48, 73
4, 12240, Note_on_c, 0, 48, 0
4, 12240, Note_on_c, 0, 43, 0
4, 12240, Note_on_c, 0, 36, 0
4, 12240, Note_on_c, 0, 36, 73
4, 12240, Note_on_c, 0, 43, 73
4, 12240, Note_on_c, 0, 50, 73
4, 12960, Note_on_c, 0, 50, 0
4, 12960, Note_on_c, 0, 43, 0
4, 12960, Note_on_c, 0, 36, 0
4, 12960, Note_on_c, 0, 36, 73
4, 12960, Note_on_c, 0, 43, 73
4, 12960, Note_on_c, 0, 48, 73
4, 13680, Note_on_c, 0, 48, 0
4, 13680, Note_on_c, 0, 43, 0
4, 13680, Note_on_c, 0, 36, 0
4, 13680, Note_on_c, 0, 36, 73
4, 13680, Note_on_c, 0, 43, 73
4, 13680, Note_on_c, 0, 47, 73
4, 14400, Note_on_c, 0, 47, 0
4, 14400, Note_on_c, 0, 43, 0
4, 14400, Note_on_c, 0, 36, 0
4, 14400, Note_on_c, 0, 36, 73
4, 14400, Note_on_c, 0, 43, 73
4, 14400, Note_on_c, 0, 48, 73
4, 15120, Note_on_c, 0, 48, 0
4, 15120, Note_on_c, 0, 43, 0
4, 15120, Note_on_c, 0, 36, 0
4, 15120, Note_on_c, 0, 36, 73
4, 15120, Note_on_c, 0, 43, 73
4, 15120, Note_on_c, 0, 50, 73
4, 15840, Note_on_c, 0, 50, 0
4, 15840, Note_on_c, 0, 43, 0
4, 15840, Note_on_c, 0, 36, 0
4, 15840, Note_on_c, 0, 36, 73
4, 15840, Note_on_c, 0, 43, 73
4, 15840, Note_on_c, 0, 48, 73
4, 16320, Note_on_c, 0, 48, 0
4, 16320, Note_on_c, 0, 43, 0
4, 16320, Note_on_c, 0, 36, 0
4, 16320, Note_on_c, 0, 32, 73
4, 16320, Note_on_c, 0, 44, 73
4, 16560, Note_on_c, 0, 44, 0
4, 16560, Note_on_c, 0, 32, 0
4, 16560, Note_on_c, 0, 31, 73
4, 16560, Note_on_c, 0, 43, 73
4, 17280, Note_on_c, 0, 43, 0
4, 17280, Note_on_c, 0, 31, 0
4, 17280, Note_on_c, 0, 36, 73
4, 17280, Note_on_c, 0, 43, 73
4, 17280, Note_on_c, 0, 48, 73
4, 18000, Note_on_c, 0, 48, 0
4, 18000, Note_on_c, 0, 43, 0
4, 18000, Note_on_c, 0, 36, 0
4, 18000, Note_on_c, 0, 36, 73
4, 18000, Note_on_c, 0, 43, 73
4, 18000, Note_on_c, 0, 50, 73
4, 18720, Note_on_c, 0, 50, 0
4, 18720, Note_on_c, 0, 43, 0
4, 18720, Note_on_c, 0, 36, 0
4, 18720, Note_on_c, 0, 36, 73
4, 18720, Note_on_c, 0, 43, 73
4, 18720, Note_on_c, 0, 48, 73
4, 19440, Note_on_c, 0, 48, 0
4, 19440, Note_on_c, 0, 43, 0
4, 19440, Note_on_c, 0, 36, 0
4, 19440, Note_on_c, 0, 36, 73
4, 19440, Note_on_c, 0, 43, 73
4, 19440, Note_on_c, 0, 47, 73
4, 20160, Note_on_c, 0, 47, 0
4, 20160, Note_on_c, 0, 43, 0
4, 20160, Note_on_c, 0, 36, 0
4, 20160, Note_on_c, 0, 36, 73
4, 20160, Note_on_c, 0, 43, 73
4, 20160, Note_on_c, 0, 48, 73
4, 20880, Note_on_c, 0, 48, 0
4, 20880, Note_on_c, 0, 43, 0
4, 20880, Note_on_c, 0, 36, 0
4, 20880, Note_on_c, 0, 36, 73
4, 20880, Note_on_c, 0, 43, 73
4, 20880, Note_on_c, 0, 50, 73
4, 21600, Note_on_c, 0, 50, 0
4, 21600, Note_on_c, 0, 43, 0
4, 21600, Note_on_c, 0, 36, 0
4, 21600, Note_on_c, 0, 36, 73
4, 21600, Note_on_c, 0, 43, 73
4, 21600, Note_on_c, 0, 48, 73
4, 22080, Note_on_c, 0, 48, 0
4, 22080, Note_on_c, 0, 43, 0
4, 22080, Note_on_c, 0, 36, 0
4, 22080, Note_on_c, 0, 43, 73
4, 22080, Note_on_c, 0, 50, 73
4, 22320, Note_on_c, 0, 50, 0
4, 22320, Note_on_c, 0, 43, 0
4, 22320, Note_on_c, 0, 36, 73
4, 22320, Note_on_c, 0, 43, 73
4, 22320, Note_on_c, 0, 48, 73
4, 22560, Note_on_c, 0, 48, 0
4, 22560, Note_on_c, 0, 43, 0
4, 22560, Note_on_c, 0, 36, 0
4, 23040, Note_on_c, 0, 60, 73
4, 23040, Note_on_c, 0, 63, 73
4, 23040, Note_on_c, 0, 65, 73
4, 23040, Note_on_c, 0, 69, 73
4, 23760, Note_on_c, 0, 69, 0
4, 23760, Note_on_c, 0, 60, 0
4, 23760, Note_on_c, 0, 63, 0
4, 23760, Note_on_c, 0, 65, 0
4, 23760, Note_on_c, 0, 34, 73
4, 23760, Note_on_c, 0, 46, 73
4, 24120, Note_on_c, 0, 46, 0
4, 24120, Note_on_c, 0, 34, 0
4, 24120, Note_on_c, 0, 36, 73
4, 24120, Note_on_c, 0, 48, 73
4, 24240, Note_on_c, 0, 48, 0
4, 24240, Note_on_c, 0, 36, 0
4, 24240, Note_on_c, 0, 34, 73
4, 24240, Note_on_c, 0, 46, 73
4, 24480, Note_on_c, 0, 46, 0
4, 24480, Note_on_c, 0, 34, 0
4, 24480, Note_on_c, 0, 54, 73
4, 24480, Note_on_c, 0, 60, 73
4, 25200, Note_on_c, 0, 60, 0
4, 25200, Note_on_c, 0, 54, 0
4, 25200, Note_on_c, 0, 46, 73
4, 25200, Note_on_c, 0, 53, 73
4, 25200, Note_on_c, 0, 58, 73
4, 25560, Note_on_c, 0, 58, 0
4, 25560, Note_on_c, 0, 53, 0
4, 25560, Note_on_c, 0, 46, 0
4, 25560, Note_on_c, 0, 53, 73
4, 25560, Note_on_c, 0, 57, 73
4, 25560, Note_on_c, 0, 60, 73
4, 25680, Note_on_c, 0, 60, 0
4, 25680, Note_on_c, 0, 57, 0
4, 25680, Note_on_c, 0, 53, 0
4, 25680, Note_on_c, 0, 46, 73
4, 25680, Note_on_c, 0, 53, 73
4, 25680, Note_on_c, 0, 58, 73
4, 25920, Note_on_c, 0, 58, 0
4, 25920, Note_on_c, 0, 53, 0
4, 25920, Note_on_c, 0, 46, 0
4, 25920, Note_on_c, 0, 60, 73
4, 25920, Note_on_c, 0, 63, 73
4, 25920, Note_on_c, 0, 65, 73
4, 25920, Note_on_c, 0, 69, 73
4, 26640, Note_on_c, 0, 69, 0
4, 26640, Note_on_c, 0, 60, 0
4, 26640, Note_on_c, 0, 63, 0
4, 26640, Note_on_c, 0, 65, 0
4, 26640, Note_on_c, 0, 34, 73
4, 26640, Note_on_c, 0, 46, 73
4, 27000, Note_on_c, 0, 46, 0
4, 27000, Note_on_c, 0, 34, 0
4, 27000, Note_on_c, 0, 36, 73
4, 27000, Note_on_c, 0, 48, 73
4, 27120, Note_on_c, 0, 48, 0
4, 27120, Note_on_c, 0, 36, 0
4, 27120, Note_on_c, 0, 34, 73
4, 27120, Note_on_c, 0, 46, 73
4, 27360, Note_on_c, 0, 46, 0
4, 27360, Note_on_c, 0, 34, 0
4, 27360, Note_on_c, 0, 54, 73
4, 27360, Note_on_c, 0, 60, 73
4, 28000, Note_on_c, 0, 46, 73
4, 28040, Note_on_c, 0, 53, 73
4, 28080, Note_on_c, 0, 60, 0
4, 28080, Note_on_c, 0, 54, 0
4, 28080, Note_on_c, 0, 62, 73
4, 28320, Note_on_c, 0, 62, 0
4, 28320, Note_on_c, 0, 46, 0
4, 28320, Note_on_c, 0, 53, 0
4, 28800, Note_on_c, 0, 60, 73
4, 28800, Note_on_c, 0, 63, 73
4, 28800, Note_on_c, 0, 65, 73
4, 28800, Note_on_c, 0, 69, 73
4, 29520, Note_on_c, 0, 69, 0
4, 29520, Note_on_c, 0, 60, 0
4, 29520, Note_on_c, 0, 63, 0
4, 29520, Note_on_c, 0, 65, 0
4, 29520, Note_on_c, 0, 34, 73
4, 29520, Note_on_c, 0, 46, 73
4, 29880, Note_on_c, 0, 46, 0
4, 29880, Note_on_c, 0, 34, 0
4, 29880, Note_on_c, 0, 36, 73
4, 29880, Note_on_c, 0, 48, 73
4, 30000, Note_on_c, 0, 48, 0
4, 30000, Note_on_c, 0, 36, 0
4, 30000, Note_on_c, 0, 34, 73
4, 30000, Note_on_c, 0, 46, 73
4, 30240, Note_on_c, 0, 46, 0
4, 30240, Note_on_c, 0, 34, 0
4, 30240, Note_on_c, 0, 54, 73
4, 30240, Note_on_c, 0, 60, 73
4, 30960, Note_on_c, 0, 60, 0
4, 30960, Note_on_c, 0, 54, 0
4, 30960, Note_on_c, 0, 46, 73
4, 30960, Note_on_c, 0, 53, 73
4, 30960, Note_on_c, 0, 58, 73
4, 31320, Note_on_c, 0, 58, 0
4, 31320, Note_on_c, 0, 53, 0
4, 31320, Note_on_c, 0, 46, 0
4, 31320, Note_on_c, 0, 53, 73
4, 31320, Note_on_c, 0, 57, 73
4, 31320, Note_on_c, 0, 60, 73
4, 31440, Note_on_c, 0, 60, 0
4, 31440, Note_on_c, 0, 57, 0
4, 31440, Note_on_c, 0, 53, 0
4, 31440, Note_on_c, 0, 46, 73
4, 31440, Note_on_c, 0, 53, 73
4, 31440, Note_on_c, 0, 58, 73
4, 31680, Note_on_c, 0, 58, 0
4, 31680, Note_on_c, 0, 53, 0
4, 31680, Note_on_c, 0, 46, 0
4, 31680, Note_on_c, 0, 60, 73
4, 31680, Note_on_c, 0, 63, 73
4, 31680, Note_on_c, 0, 65, 73
4, 31680, Note_on_c, 0, 69, 73
4, 32400, Note_on_c, 0, 69, 0
4, 32400, Note_on_c, 0, 60, 0
4, 32400, Note_on_c, 0, 63, 0
4, 32400, Note_on_c, 0, 65, 0
4, 32400, Note_on_c, 0, 34, 73
4, 32400, Note_on_c, 0, 46, 73
4, 32760, Note_on_c, 0, 46, 0
4, 32760, Note_on_c, 0, 34, 0
4, 32760, Note_on_c, 0, 36, 73
4, 32760, Note_on_c, 0, 48, 73
4, 32880, Note_on_c, 0, 48, 0
4, 32880, Note_on_c, 0, 36, 0
4, 32880, Note_on_c, 0, 34, 73
4, 32880, Note_on_c, 0, 46, 73
4, 33120, Note_on_c, 0, 46, 0
4, 33120, Note_on_c, 0, 34, 0
4, 33120, Note_on_c, 0, 54, 73
4, 33120, Note_on_c, 0, 60, 73
4, 33760, Note_on_c, 0, 46, 73
4, 33800, Note_on_c, 0, 53, 73
4, 33840, Note_on_c, 0, 60, 0
4, 33840, Note_on_c, 0, 54, 0
4, 33840, Note_on_c, 0, 62, 73
4, 34080, Note_on_c, 0, 62, 0
4, 34080, Note_on_c, 0, 46, 0
4, 34080, Note_on_c, 0, 53, 0
4, 34560, Note_on_c, 0, 48, 34
4, 34607, Note_on_c, 0, 48, 0
4, 34800, Note_on_c, 0, 56, 34
4, 34800, Note_on_c, 0, 62, 34
4, 34800, Note_on_c, 0, 65, 34
4, 34847, Note_on_c, 0, 65, 0
4, 34847, Note_on_c, 0, 62, 0
4, 34847, Note_on_c, 0, 56, 0
4, 35040, Note_on_c, 0, 62, 34
4, 35040, Note_on_c, 0, 65, 34
4, 35040, Note_on_c, 0, 68, 34
4, 35087, Note_on_c, 0, 68, 0
4, 35087, Note_on_c, 0, 65, 0
4, 35087, Note_on_c, 0, 62, 0
4, 35280, Note_on_c, 0, 47, 34
4, 35327, Note_on_c, 0, 47, 0
4, 35520, Note_on_c, 0, 55, 34
4, 35520, Note_on_c, 0, 62, 34
4, 35520, Note_on_c, 0, 65, 34
4, 35567, Note_on_c, 0, 65, 0
4, 35567, Note_on_c, 0, 62, 0
4, 35567, Note_on_c, 0, 55, 0
4, 35760, Note_on_c, 0, 62, 34
4, 35760, Note_on_c, 0, 65, 34
4, 35807, Note_on_c, 0, 65, 0
4, 35807, Note_on_c, 0, 62, 0
4, 36000, Note_on_c, 0, 46, 34
4, 36047, Note_on_c, 0, 46, 0
4, 36240, Note_on_c, 0, 55, 34
4, 36240, Note_on_c, 0, 60, 34
4, 36240, Note_on_c, 0, 64, 34
4, 36287, Note_on_c, 0, 64, 0
4, 36287, Note_on_c, 0, 60, 0
4, 36287, Note_on_c, 0, 55, 0
4, 36480, Note_on_c, 0, 60, 34
4, 36480, Note_on_c, 0, 64, 34
4, 36480, Note_on_c, 0, 67, 34
4, 36527, Note_on_c, 0, 67, 0
4, 36527, Note_on_c, 0, 64, 0
4, 36527, Note_on_c, 0, 60, 0
4, 36720, Note_on_c, 0, 44, 34
4, 36767, Note_on_c, 0, 44, 0
4, 36960, Note_on_c, 0, 56, 34
4, 36960, Note_on_c, 0, 60, 34
4, 36960, Note_on_c, 0, 65, 34
4, 37007, Note_on_c, 0, 65, 0
4, 37007, Note_on_c, 0, 60, 0
4, 37007, Note_on_c, 0, 56, 0
4, 37200, Note_on_c, 0, 60, 34
4, 37200, Note_on_c, 0, 65, 34
4, 37200, Note_on_c, 0, 68, 34
4, 37247, Note_on_c, 0, 68, 0
4, 37247, Note_on_c, 0, 65, 0
4, 37247, Note_on_c, 0, 60, 0
4, 37440, Note_on_c, 0, 46, 34
4, 37487, Note_on_c, 0, 46, 0
4, 37680, Note_on_c, 0, 55, 34
4, 37680, Note_on_c, 0, 60, 34
4, 37680, Note_on_c, 0, 64, 34
4, 37727, Note_on_c, 0, 64, 0
4, 37727, Note_on_c, 0, 60, 0
4, 37727, Note_on_c, 0, 55, 0
4, 37920, Note_on_c, 0, 60, 34
4, 37920, Note_on_c, 0, 64, 34
4, 37920, Note_on_c, 0, 67, 34
4, 37967, Note_on_c, 0, 67, 0
4, 37967, Note_on_c, 0, 64, 0
4, 37967, Note_on_c, 0, 60, 0
4, 38160, Note_on_c, 0, 45, 34
4, 38207, Note_on_c, 0, 45, 0
4, 38400, Note_on_c, 0, 53, 34
4, 38400, Note_on_c, 0, 60, 34
4, 38447, Note_on_c, 0, 60, 0
4, 38447, Note_on_c, 0, 53, 0
4, 38640, Note_on_c, 0, 57, 34
4, 38640, Note_on_c, 0, 60, 34
4, 38687, Note_on_c, 0, 60, 0
4, 38687, Note_on_c, 0, 57, 0
4, 38880, Note_on_c, 0, 44, 34
4, 38927, Note_on_c, 0, 44, 0
4, 39120, Note_on_c, 0, 58, 34
4, 39120, Note_on_c, 0, 62, 34
4, 39120, Note_on_c, 0, 65, 34
4, 39167, Note_on_c, 0, 65, 0
4, 39167, Note_on_c, 0, 62, 0
4, 39167, Note_on_c, 0, 58, 0
4, 39360, Note_on_c, 0, 62, 34
4, 39360, Note_on_c, 0, 65, 34
4, 39407, Note_on_c, 0, 65, 0
4, 39407, Note_on_c, 0, 62, 0
4, 39600, Note_on_c, 0, 43, 34
4, 39647, Note_on_c, 0, 43, 0
4, 39840, Note_on_c, 0, 58, 34
4, 39840, Note_on_c, 0, 60, 34
4, 39840, Note_on_c, 0, 63, 34
4, 39887, Note_on_c, 0, 63, 0
4, 39887, Note_on_c, 0, 60, 0
4, 39887, Note_on_c, 0, 58, 0
4, 40080, Note_on_c, 0, 60, 34
4, 40080, Note_on_c, 0, 63, 34
4, 40127, Note_on_c, 0, 63, 0
4, 40127, Note_on_c, 0, 60, 0
4, 40320, Note_on_c, 0, 42, 34
4, 40320, Note_on_c, 0, 54, 34
4, 40800, Note_on_c, 0, 54, 0
4, 40800, Note_on_c, 0, 42, 0
4, 41040, Note_on_c, 0, 41, 34
4, 41040, Note_on_c, 0, 53, 34
4, 41087, Note_on_c, 0, 53, 0
4, 41087, Note_on_c, 0, 41, 0
4, 41280, Note_on_c, 0, 57, 34
4, 41280, Note_on_c, 0, 60, 34
4, 41327, Note_on_c, 0, 60, 0
4, 41327, Note_on_c, 0, 57, 0
4, 41520, Note_on_c, 0, 60, 34
4, 41520, Note_on_c, 0, 65, 34
4, 41567, Note_on_c, 0, 65, 0
4, 41567, Note_on_c, 0, 60, 0
4, 41760, Note_on_c, 0, 51, 34
4, 41807, Note_on_c, 0, 51, 0
4, 42000, Note_on_c, 0, 57, 34
4, 42000, Note_on_c, 0, 61, 34
4, 42000, Note_on_c, 0, 67, 34
4, 42047, Note_on_c, 0, 67, 0
4, 42047, Note_on_c, 0, 61, 0
4, 42047, Note_on_c, 0, 57, 0
4, 42240, Note_on_c, 0, 61, 34
4, 42240, Note_on_c, 0, 67, 34
4, 42240, Note_on_c, 0, 69, 34
4, 42287, Note_on_c, 0, 69, 0
4, 42287, Note_on_c, 0, 67, 0
4, 42287, Note_on_c, 0, 61, 0
4, 42480, Note_on_c, 0, 50, 34
4, 42527, Note_on_c, 0, 50, 0
4, 42720, Note_on_c, 0, 57, 34
4, 42720, Note_on_c, 0, 62, 34
4, 42720, Note_on_c, 0, 66, 34
4, 42767, Note_on_c, 0, 66, 0
4, 42767, Note_on_c, 0, 62, 0
4, 42767, Note_on_c, 0, 57, 0
4, 42960, Note_on_c, 0, 62, 34
4, 42960, Note_on_c, 0, 66, 34
4, 42960, Note_on_c, 0, 69, 34
4, 43007, Note_on_c, 0, 69, 0
4, 43007, Note_on_c, 0, 66, 0
4, 43007, Note_on_c, 0, 62, 0
4, 43200, Note_on_c, 0, 48, 47
4, 43200, Note_on_c, 0, 54, 47
4, 43200, Note_on_c, 0, 57, 47
4, 43920, Note_on_c, 0, 57, 0
4, 43920, Note_on_c, 0, 54, 0
4, 43920, Note_on_c, 0, 48, 0
4, 43920, Note_on_c, 0, 47, 47
4, 43920, Note_on_c, 0, 55, 47
4, 43920, Note_on_c, 0, 62, 47
4, 44640, Note_on_c, 0, 62, 0
4, 44640, Note_on_c, 0, 55, 0
4, 44640, Note_on_c, 0, 47, 0
4, 44640, Note_on_c, 0, 44, 47
4, 44640, Note_on_c, 0, 50, 47
4, 44640, Note_on_c, 0, 54, 47
4, 45360, Note_on_c, 0, 54, 0
4, 45360, Note_on_c, 0, 50, 0
4, 45360, Note_on_c, 0, 44, 0
4, 45360, Note_on_c, 0, 43, 47
4, 45360, Note_on_c, 0, 50, 47
4, 45360, Note_on_c, 0, 55, 47
4, 45600, Note_on_c, 0, 55, 0
4, 45600, Note_on_c, 0, 50, 0
4, 45600, Note_on_c, 0, 43, 0
4, 46080, Note_on_c, 0, 36, 73
4, 46080, Note_on_c, 0, 43, 73
4, 46080, Note_on_c, 0, 48, 73
4, 46800, Note_on_c, 0, 48, 0
4, 46800, Note_on_c, 0, 43, 0
4, 46800, Note_on_c, 0, 36, 0
4, 46800, Note_on_c, 0, 36, 73
4, 46800, Note_on_c, 0, 43, 73
4, 46800, Note_on_c, 0, 50, 73
4, 47520, Note_on_c, 0, 50, 0
4, 47520, Note_on_c, 0, 43, 0
4, 47520, Note_on_c, 0, 36, 0
4, 47520, Note_on_c, 0, 36, 73
4, 47520, Note_on_c, 0, 43, 73
4, 47520, Note_on_c, 0, 48, 73
4, 48240, Note_on_c, 0, 48, 0
4, 48240, Note_on_c, 0, 43, 0
4, 48240, Note_on_c, 0, 36, 0
4, 48240, Note_on_c, 0, 36, 73
4, 48240, Note_on_c, 0, 43, 73
4, 48240, Note_on_c, 0, 47, 73
4, 48960, Note_on_c, 0, 47, 0
4, 48960, Note_on_c, 0, 43, 0
4, 48960, Note_on_c, 0, 36, 0
4, 48960, Note_on_c, 0, 36, 73
4, 48960, Note_on_c, 0, 43, 73
4, 48960, Note_on_c, 0, 48, 73
4, 49680, Note_on_c, 0, 48, 0
4, 49680, Note_on_c, 0, 43, 0
4, 49680, Note_on_c, 0, 36, 0
4, 49680, Note_on_c, 0, 36, 73
4, 49680, Note_on_c, 0, 43, 73
4, 49680, Note_on_c, 0, 50, 73
4, 50400, Note_on_c, 0, 50, 0
4, 50400, Note_on_c, 0, 43, 0
4, 50400, Note_on_c, 0, 36, 0
4, 50400, Note_on_c, 0, 36, 73
4, 50400, Note_on_c, 0, 43, 73
4, 50400, Note_on_c, 0, 48, 73
4, 50880, Note_on_c, 0, 48, 0
4, 50880, Note_on_c, 0, 43, 0
4, 50880, Note_on_c, 0, 36, 0
4, 50880, Note_on_c, 0, 32, 73
4, 50880, Note_on_c, 0, 44, 73
4, 51120, Note_on_c, 0, 44, 0
4, 51120, Note_on_c, 0, 32, 0
4, 51120, Note_on_c, 0, 31, 73
4, 51120, Note_on_c, 0, 43, 73
4, 51840, Note_on_c, 0, 43, 0
4, 51840, Note_on_c, 0, 31, 0
4, 51840, Note_on_c, 0, 36, 73
4, 51840, Note_on_c, 0, 43, 73
4, 51840, Note_on_c, 0, 48, 73
4, 52560, Note_on_c, 0, 48, 0
4, 52560, Note_on_c, 0, 43, 0
4, 52560, Note_on_c, 0, 36, 0
4, 52560, Note_on_c, 0, 36, 73
4, 52560, Note_on_c, 0, 43, 73
4, 52560, Note_on_c, 0, 50, 73
4, 53280, Note_on_c, 0, 50, 0
4, 53280, Note_on_c, 0, 43, 0
4, 53280, Note_on_c, 0, 36, 0
4, 53280, Note_on_c, 0, 36, 73
4, 53280, Note_on_c, 0, 43, 73
4, 53280, Note_on_c, 0, 48, 73
4, 54000, Note_on_c, 0, 48, 0
4, 54000, Note_on_c, 0, 43, 0
4, 54000, Note_on_c, 0, 36, 0
4, 54000, Note_on_c, 0, 36, 73
4, 54000, Note_on_c, 0, 43, 73
4, 54000, Note_on_c, 0, 47, 73
4, 54720, Note_on_c, 0, 47, 0
4, 54720, Note_on_c, 0, 43, 0
4, 54720, Note_on_c, 0, 36, 0
4, 54720, Note_on_c, 0, 36, 73
4, 54720, Note_on_c, 0, 43, 73
4, 54720, Note_on_c, 0, 48, 73
4, 55440, Note_on_c, 0, 48, 0
4, 55440, Note_on_c, 0, 43, 0
4, 55440, Note_on_c, 0, 36, 0
4, 55440, Note_on_c, 0, 36, 73
4, 55440, Note_on_c, 0, 43, 73
4, 55440, Note_on_c, 0, 50, 73
4, 56160, Note_on_c, 0, 50, 0
4, 56160, Note_on_c, 0, 43, 0
4, 56160, Note_on_c, 0, 36, 0
4, 56160, Note_on_c, 0, 36, 73
4, 56160, Note_on_c, 0, 43, 73
4, 56160, Note_on_c, 0, 48, 73
4, 56640, Note_on_c, 0, 48, 0
4, 56640, Note_on_c, 0, 43, 0
4, 56640, Note_on_c, 0, 36, 0
4, 56640, Note_on_c, 0, 43, 73
4, 56640, Note_on_c, 0, 50, 73
4, 56880, Note_on_c, 0, 50, 0
4, 56880, Note_on_c, 0, 43, 0
4, 56880, Note_on_c, 0, 36, 99
4, 56880, Note_on_c, 0, 43, 99
4, 56880, Note_on_c, 0, 48, 99
4, 57360, Note_on_c, 0, 48, 0
4, 57360, Note_on_c, 0, 43, 0
4, 57360, Note_on_c, 0, 36, 0
4, 57360, End_track
5, 0, Start_track
5, 0, Title_t, "Grand Piano"
5, 0, Program_c, 0, 0
5, 0, Control_c, 0, 7, 115
5, 0, Control_c, 0, 10, 47
5, 56160, Control_c, 0, 64, 127
5, 59520, Control_c, 0, 64, 0
5, 59520, End_track
0, 0, End_of_file
