0, 0, Header, 1, 5, 480
1, 0, Start_track
1, 0, Title_t, "tchaikovsky swan lake act2 13e pas d'action"
1, 0, Copyright_t, "Adaptation for Disklavier pianos, by: Robert C. Kuhmann (c) 2012."
1, 0, Text_t, "Seq. (c) by: Segundo G. Yogore,  2007\012"
1, 0, Time_signature, 4, 2, 24, 8
1, 0, Key_signature, 0, "major"
1, 0, Tempo, 800000
1, 15360, Key_signature, -6, "major"
1, 36480, Time_signature, 8, 2, 24, 8
1, 40320, Time_signature, 6, 3, 12, 8
1, 76320, Tempo, 750000
1, 135360, Time_signature, 7, 3, 12, 8
1, 136560, Tempo, 857143
1, 137040, Time_signature, 6, 3, 12, 8
1, 137280, Tempo, 895522
1, 137520, Tempo, 937500
1, 137760, Tempo, 983607
1, 138000, Tempo, 1052632
1, 138240, Tempo, 1111111
1, 138480, Time_signature, 7, 3, 12, 8
1, 138480, Tempo, 1276596
1, 138720, Tempo, 1363636
1, 138960, Tempo, 1500000
1, 140160, Time_signature, 6, 3, 12, 8
1, 140160, Tempo, 800000
1, 171840, Tempo, 1000000
1, 173280, Time_signature, 2, 2, 24, 8
1, 173280, Key_signature, -3, "major"
1, 173280, Tempo, 521739
1, 174720, Tempo, 454545
1, 196320, Tempo, 422535
1, 216480, Time_signature, 8, 2, 24, 8
1, 216480, End_track
2, 0, Start_track
2, 0, Title_t, "Grand Piano"
2, 0, Program_c, 0, 0
2, 0, Control_c, 0, 7, 115
2, 0, Control_c, 0, 10, 86
2, 240, Note_on_c, 0, 73, 62
2, 240, Note_on_c, 0, 78, 62
2, 720, Note_on_c, 0, 78, 0
2, 720, Note_on_c, 0, 73, 0
2, 720, Note_on_c, 0, 73, 62
2, 720, Note_on_c, 0, 78, 62
2, 1200, Note_on_c, 0, 78, 0
2, 1200, Note_on_c, 0, 73, 0
2, 1200, Note_on_c, 0, 73, 62
2, 1200, Note_on_c, 0, 78, 62
2, 1680, Note_on_c, 0, 78, 0
2, 1680, Note_on_c, 0, 73, 0
2, 1680, Note_on_c, 0, 73, 62
2, 1680, Note_on_c, 0, 78, 62
2, 1920, Note_on_c, 0, 78, 0
2, 1920, Note_on_c, 0, 73, 0
2, 1920, Note_on_c, 0, 71, 62
2, 1920, Note_on_c, 0, 76, 62
2, 1920, Note_on_c, 0, 79, 62
2, 3840, Note_on_c, 0, 79, 0
2, 3840, Note_on_c, 0, 76, 0
2, 3840, Note_on_c, 0, 71, 0
2, 4080, Note_on_c, 0, 71, 62
2, 4080, Note_on_c, 0, 76, 62
2, 4080, Note_on_c, 0, 79, 62
2, 4560, Note_on_c, 0, 79, 0
2, 4560, Note_on_c, 0, 76, 0
2, 4560, Note_on_c, 0, 71, 0
2, 4560, Note_on_c, 0, 71, 62
2, 4560, Note_on_c, 0, 76, 62
2, 4560, Note_on_c, 0, 79, 62
2, 5040, Note_on_c, 0, 79, 0
2, 5040, Note_on_c, 0, 76, 0
2, 5040, Note_on_c, 0, 71, 0
2, 5040, Note_on_c, 0, 71, 75
2, 5040, Note_on_c, 0, 76, 75
2, 5040, Note_on_c, 0, 79, 75
2, 5520, Note_on_c, 0, 79, 0
2, 5520, Note_on_c, 0, 76, 0
2, 5520, Note_on_c, 0, 71, 0
2, 5520, Note_on_c, 0, 71, 75
2, 5520, Note_on_c, 0, 76, 75
2, 5520, Note_on_c, 0, 79, 75
2, 5760, Note_on_c, 0, 79, 0
2, 5760, Note_on_c, 0, 76, 0
2, 5760, Note_on_c, 0, 71, 0
2, 5760, Note_on_c, 0, 71, 75
2, 5760, Note_on_c, 0, 78, 75
2, 5760, Note_on_c, 0, 80, 75
2, 7680, Note_on_c, 0, 80, 0
2, 7680, Note_on_c, 0, 78, 0
2, 7680, Note_on_c, 0, 71, 0
2, 9840, Note_on_c, 0, 71, 75
2, 9840, Note_on_c, 0, 78, 75
2, 9840, Note_on_c, 0, 80, 75
2, 10320, Note_on_c, 0, 80, 0
2, 10320, Note_on_c, 0, 78, 0
2, 10320, Note_on_c, 0, 71, 0
2, 10320, Note_on_c, 0, 71, 75
2, 10320, Note_on_c, 0, 78, 75
2, 10320, Note_on_c, 0, 80, 75
2, 10800, Note_on_c, 0, 80, 0
2, 10800, Note_on_c, 0, 78, 0
2, 10800, Note_on_c, 0, 71, 0
2, 10800, Note_on_c, 0, 71, 75
2, 10800, Note_on_c, 0, 78, 75
2, 10800, Note_on_c, 0, 80, 75
2, 11280, Note_on_c, 0, 80, 0
2, 11280, Note_on_c, 0, 78, 0
2, 11280, Note_on_c, 0, 71, 0
2, 11280, Note_on_c, 0, 71, 75
2, 11280, Note_on_c, 0, 78, 75
2, 11280, Note_on_c, 0, 80, 75
2, 11520, Note_on_c, 0, 80, 0
2, 11520, Note_on_c, 0, 78, 0
2, 11520, Note_on_c, 0, 71, 0
2, 11520, Note_on_c, 0, 73, 88
2, 11520, Note_on_c, 0, 77, 88
2, 11520, Note_on_c, 0, 80, 88
2, 11520, Note_on_c, 0, 85, 88
2, 13440, Note_on_c, 0, 85, 0
2, 13440, Note_on_c, 0, 73, 0
2, 13440, Note_on_c, 0, 77, 0
2, 13440, Note_on_c, 0, 80, 0
2, 24960, Control_c, 0, 64, 127
2, 25120, Note_on_c, 0, 49, 75
2, 25160, Note_on_c, 0, 53, 75
2, 25200, Note_on_c, 0, 56, 75
2, 25360, Note_on_c, 0, 53, 75
2, 25400, Note_on_c, 0, 56, 75
2, 25440, Note_on_c, 0, 56, 0
2, 25440, Note_on_c, 0, 49, 0
2, 25440, Note_on_c, 0, 53, 0
2, 25440, Note_on_c, 0, 61, 75
2, 25600, Note_on_c, 0, 56, 75
2, 25640, Note_on_c, 0, 61, 75
2, 25680, Note_on_c, 0, 61, 0
2, 25680, Note_on_c, 0, 56, 0
2, 25680, Note_on_c, 0, 53, 0
2, 25680, Note_on_c, 0, 65, 75
2, 25840, Note_on_c, 0, 61, 75
2, 25880, Note_on_c, 0, 65, 75
2, 25920, Note_on_c, 0, 65, 0
2, 25920, Note_on_c, 0, 61, 0
2, 25920, Note_on_c, 0, 56, 0
2, 25920, Note_on_c, 0, 68, 75
2, 26080, Note_on_c, 0, 65, 75
2, 26120, Note_on_c, 0, 68, 75
2, 26160, Note_on_c, 0, 68, 0
2, 26160, Note_on_c, 0, 65, 0
2, 26160, Note_on_c, 0, 61, 0
2, 26160, Note_on_c, 0, 73, 75
2, 26320, Note_on_c, 0, 68, 75
2, 26360, Note_on_c, 0, 73, 75
2, 26400, Note_on_c, 0, 73, 0
2, 26400, Note_on_c, 0, 68, 0
2, 26400, Note_on_c, 0, 65, 0
2, 26400, Note_on_c, 0, 77, 75
2, 26560, Note_on_c, 0, 73, 75
2, 26600, Note_on_c, 0, 77, 75
2, 26640, Note_on_c, 0, 77, 0
2, 26640, Note_on_c, 0, 73, 0
2, 26640, Note_on_c, 0, 68, 0
2, 26640, Note_on_c, 0, 80, 75
2, 26800, Note_on_c, 0, 77, 75
2, 26840, Note_on_c, 0, 80, 75
2, 26880, Note_on_c, 0, 80, 0
2, 26880, Note_on_c, 0, 77, 0
2, 26880, Note_on_c, 0, 73, 0
2, 26880, Control_c, 0, 64, 0
2, 26880, Note_on_c, 0, 85, 75
2, 27040, Note_on_c, 0, 53, 75
2, 27080, Note_on_c, 0, 56, 75
2, 27120, Note_on_c, 0, 85, 0
2, 27120, Note_on_c, 0, 80, 0
2, 27120, Note_on_c, 0, 77, 0
2, 27120, Control_c, 0, 64, 127
2, 27120, Note_on_c, 0, 61, 75
2, 27280, Note_on_c, 0, 56, 75
2, 27320, Note_on_c, 0, 61, 75
2, 27360, Note_on_c, 0, 61, 0
2, 27360, Note_on_c, 0, 56, 0
2, 27360, Note_on_c, 0, 53, 0
2, 27360, Note_on_c, 0, 65, 75
2, 27520, Note_on_c, 0, 61, 75
2, 27560, Note_on_c, 0, 65, 75
2, 27600, Note_on_c, 0, 65, 0
2, 27600, Note_on_c, 0, 61, 0
2, 27600, Note_on_c, 0, 56, 0
2, 27600, Note_on_c, 0, 68, 75
2, 27760, Note_on_c, 0, 65, 75
2, 27800, Note_on_c, 0, 68, 75
2, 27840, Note_on_c, 0, 68, 0
2, 27840, Note_on_c, 0, 65, 0
2, 27840, Note_on_c, 0, 61, 0
2, 27840, Note_on_c, 0, 73, 75
2, 28000, Note_on_c, 0, 68, 75
2, 28040, Note_on_c, 0, 73, 75
2, 28080, Note_on_c, 0, 73, 0
2, 28080, Note_on_c, 0, 68, 0
2, 28080, Note_on_c, 0, 65, 0
2, 28080, Note_on_c, 0, 77, 75
2, 28240, Note_on_c, 0, 73, 75
2, 28280, Note_on_c, 0, 77, 75
2, 28320, Note_on_c, 0, 77, 0
2, 28320, Note_on_c, 0, 73, 0
2, 28320, Note_on_c, 0, 68, 0
2, 28320, Note_on_c, 0, 80, 75
2, 28480, Note_on_c, 0, 77, 75
2, 28520, Note_on_c, 0, 80, 75
2, 28560, Note_on_c, 0, 80, 0
2, 28560, Note_on_c, 0, 77, 0
2, 28560, Note_on_c, 0, 73, 0
2, 28560, Note_on_c, 0, 85, 75
2, 28720, Note_on_c, 0, 80, 75
2, 28760, Note_on_c, 0, 85, 75
2, 28800, Note_on_c, 0, 85, 0
2, 28800, Note_on_c, 0, 80, 0
2, 28800, Note_on_c, 0, 77, 0
2, 28800, Control_c, 0, 64, 0
2, 28800, Note_on_c, 0, 89, 75
2, 28960, Note_on_c, 0, 56, 75
2, 29000, Note_on_c, 0, 61, 75
2, 29040, Note_on_c, 0, 89, 0
2, 29040, Note_on_c, 0, 85, 0
2, 29040, Note_on_c, 0, 80, 0
2, 29040, Control_c, 0, 64, 127
2, 29040, Note_on_c, 0, 65, 75
2, 29200, Note_on_c, 0, 61, 75
2, 29240, Note_on_c, 0, 65, 75
2, 29280, Note_on_c, 0, 65, 0
2, 29280, Note_on_c, 0, 61, 0
2, 29280, Note_on_c, 0, 56, 0
2, 29280, Note_on_c, 0, 68, 75
2, 29440, Note_on_c, 0, 65, 75
2, 29480, Note_on_c, 0, 68, 75
2, 29520, Note_on_c, 0, 68, 0
2, 29520, Note_on_c, 0, 65, 0
2, 29520, Note_on_c, 0, 61, 0
2, 29520, Note_on_c, 0, 73, 75
2, 29680, Note_on_c, 0, 68, 75
2, 29720, Note_on_c, 0, 73, 75
2, 29760, Note_on_c, 0, 73, 0
2, 29760, Note_on_c, 0, 68, 0
2, 29760, Note_on_c, 0, 65, 0
2, 29760, Note_on_c, 0, 77, 75
2, 29920, Note_on_c, 0, 73, 75
2, 29960, Note_on_c, 0, 77, 75
2, 30000, Note_on_c, 0, 77, 0
2, 30000, Note_on_c, 0, 73, 0
2, 30000, Note_on_c, 0, 68, 0
2, 30000, Note_on_c, 0, 80, 75
2, 30160, Note_on_c, 0, 77, 75
2, 30200, Note_on_c, 0, 80, 75
2, 30240, Note_on_c, 0, 80, 0
2, 30240, Note_on_c, 0, 77, 0
2, 30240, Note_on_c, 0, 73, 0
2, 30240, Note_on_c, 0, 85, 75
2, 30400, Note_on_c, 0, 80, 75
2, 30440, Note_on_c, 0, 85, 75
2, 30480, Note_on_c, 0, 85, 0
2, 30480, Note_on_c, 0, 80, 0
2, 30480, Note_on_c, 0, 77, 0
2, 30480, Note_on_c, 0, 89, 75
2, 30640, Note_on_c, 0, 85, 75
2, 30680, Note_on_c, 0, 89, 75
2, 30720, Note_on_c, 0, 89, 0
2, 30720, Note_on_c, 0, 85, 0
2, 30720, Note_on_c, 0, 80, 0
2, 30720, Note_on_c, 0, 92, 75
2, 30880, Note_on_c, 0, 77, 75
2, 30920, Note_on_c, 0, 80, 75
2, 30960, Note_on_c, 0, 92, 0
2, 30960, Note_on_c, 0, 89, 0
2, 30960, Note_on_c, 0, 85, 0
2, 30960, Note_on_c, 0, 85, 75
2, 31120, Note_on_c, 0, 80, 75
2, 31160, Note_on_c, 0, 85, 75
2, 31200, Note_on_c, 0, 85, 0
2, 31200, Note_on_c, 0, 80, 0
2, 31200, Note_on_c, 0, 77, 0
2, 31200, Note_on_c, 0, 89, 75
2, 31360, Note_on_c, 0, 85, 75
2, 31400, Note_on_c, 0, 89, 75
2, 31440, Note_on_c, 0, 89, 0
2, 31440, Note_on_c, 0, 85, 0
2, 31440, Note_on_c, 0, 80, 0
2, 31440, Note_on_c, 0, 92, 75
2, 31590, Note_on_c, 0, 85, 75
2, 31620, Note_on_c, 0, 89, 75
2, 31650, Note_on_c, 0, 92, 75
2, 31680, Note_on_c, 0, 92, 0
2, 31680, Note_on_c, 0, 89, 0
2, 31680, Note_on_c, 0, 85, 0
2, 31680, Note_on_c, 0, 97, 75
2, 31920, Note_on_c, 0, 97, 0
2, 31920, Note_on_c, 0, 92, 0
2, 31920, Note_on_c, 0, 89, 0
2, 31920, Note_on_c, 0, 85, 0
2, 31920, Control_c, 0, 64, 0
2, 40950, Note_on_c, 0, 58, 49
2, 40980, Note_on_c, 0, 61, 49
2, 41010, Note_on_c, 0, 66, 49
2, 41040, Note_on_c, 0, 70, 49
2, 41520, Note_on_c, 0, 70, 0
2, 41520, Note_on_c, 0, 58, 0
2, 41520, Note_on_c, 0, 61, 0
2, 41520, Note_on_c, 0, 66, 0
2, 42960, Note_on_c, 0, 70, 62
2, 43200, Note_on_c, 0, 70, 0
2, 43200, Note_on_c, 0, 75, 62
2, 43920, Note_on_c, 0, 75, 0
2, 43920, Note_on_c, 0, 73, 62
2, 44400, Note_on_c, 0, 73, 0
2, 44400, Note_on_c, 0, 66, 62
2, 44640, Note_on_c, 0, 66, 0
2, 44640, Note_on_c, 0, 67, 62
2, 45840, Note_on_c, 0, 67, 0
2, 45840, Note_on_c, 0, 68, 62
2, 46080, Note_on_c, 0, 68, 0
2, 46080, Note_on_c, 0, 69, 62
2, 46440, Note_on_c, 0, 69, 0
2, 46440, Note_on_c, 0, 70, 62
2, 46800, Note_on_c, 0, 70, 0
2, 46800, Note_on_c, 0, 75, 62
2, 47280, Note_on_c, 0, 75, 0
2, 47280, Note_on_c, 0, 73, 62
2, 47520, Note_on_c, 0, 73, 0
2, 47520, Note_on_c, 0, 73, 62
2, 48240, Note_on_c, 0, 73, 0
2, 48240, Note_on_c, 0, 75, 62
2, 48720, Note_on_c, 0, 75, 0
2, 48720, Note_on_c, 0, 77, 62
2, 48960, Note_on_c, 0, 77, 0
2, 48960, Note_on_c, 0, 78, 62
2, 49200, Note_on_c, 0, 78, 0
2, 49200, Note_on_c, 0, 77, 62
2, 49440, Note_on_c, 0, 77, 0
2, 49440, Note_on_c, 0, 75, 62
2, 49680, Note_on_c, 0, 75, 0
2, 49680, Note_on_c, 0, 70, 62
2, 50160, Note_on_c, 0, 70, 0
2, 50160, Note_on_c, 0, 71, 62
2, 50400, Note_on_c, 0, 71, 0
2, 50400, Note_on_c, 0, 70, 62
2, 51600, Note_on_c, 0, 70, 0
2, 51600, Note_on_c, 0, 63, 62
2, 51840, Note_on_c, 0, 63, 0
2, 51840, Note_on_c, 0, 68, 62
2, 52320, Note_on_c, 0, 68, 0
2, 52320, Note_on_c, 0, 70, 62
2, 52560, Note_on_c, 0, 70, 0
2, 52560, Note_on_c, 0, 71, 62
2, 53040, Note_on_c, 0, 71, 0
2, 53040, Note_on_c, 0, 68, 62
2, 53280, Note_on_c, 0, 68, 0
2, 53280, Note_on_c, 0, 70, 62
2, 54480, Note_on_c, 0, 70, 0
2, 54480, Note_on_c, 0, 75, 62
2, 54720, Note_on_c, 0, 75, 0
2, 54720, Note_on_c, 0, 68, 62
2, 55440, Note_on_c, 0, 68, 0
2, 55440, Note_on_c, 0, 70, 62
2, 55920, Note_on_c, 0, 70, 0
2, 55920, Note_on_c, 0, 71, 62
2, 56160, Note_on_c, 0, 71, 0
2, 56160, Note_on_c, 0, 73, 62
2, 57360, Note_on_c, 0, 73, 0
2, 57360, Note_on_c, 0, 76, 62
2, 57600, Note_on_c, 0, 76, 0
2, 57600, Note_on_c, 0, 70, 62
2, 58320, Note_on_c, 0, 70, 0
2, 58320, Note_on_c, 0, 71, 62
2, 58800, Note_on_c, 0, 71, 0
2, 58800, Note_on_c, 0, 73, 62
2, 59040, Note_on_c, 0, 73, 0
2, 59040, Note_on_c, 0, 75, 62
2, 60240, Note_on_c, 0, 75, 0
2, 60240, Note_on_c, 0, 78, 62
2, 60480, Note_on_c, 0, 78, 0
2, 60480, Note_on_c, 0, 72, 62
2, 61200, Note_on_c, 0, 72, 0
2, 61200, Note_on_c, 0, 73, 62
2, 61680, Note_on_c, 0, 73, 0
2, 61680, Note_on_c, 0, 75, 62
2, 61920, Note_on_c, 0, 75, 0
2, 61920, Note_on_c, 0, 77, 62
2, 62640, Note_on_c, 0, 77, 0
2, 62640, Note_on_c, 0, 79, 62
2, 63120, Note_on_c, 0, 79, 0
2, 63120, Note_on_c, 0, 81, 75
2, 63360, Note_on_c, 0, 81, 0
2, 63360, Note_on_c, 0, 82, 75
2, 64560, Note_on_c, 0, 82, 0
2, 64560, Note_on_c, 0, 70, 75
2, 64800, Note_on_c, 0, 70, 0
2, 64800, Note_on_c, 0, 78, 75
2, 65280, Note_on_c, 0, 78, 0
2, 65280, Note_on_c, 0, 77, 75
2, 65520, Note_on_c, 0, 77, 0
2, 65520, Note_on_c, 0, 75, 75
2, 66000, Note_on_c, 0, 75, 0
2, 66000, Note_on_c, 0, 75, 75
2, 66240, Note_on_c, 0, 75, 0
2, 66240, Control_c, 0, 64, 127
2, 66240, Note_on_c, 0, 80, 75
2, 66480, Note_on_c, 0, 80, 0
2, 66480, Note_on_c, 0, 78, 75
2, 66720, Note_on_c, 0, 78, 0
2, 66720, Note_on_c, 0, 77, 75
2, 66960, Note_on_c, 0, 77, 0
2, 66960, Control_c, 0, 64, 0
2, 66960, Note_on_c, 0, 75, 75
2, 67440, Note_on_c, 0, 75, 0
2, 67440, Note_on_c, 0, 75, 75
2, 67680, Note_on_c, 0, 75, 0
2, 67680, Control_c, 0, 64, 127
2, 67680, Note_on_c, 0, 80, 75
2, 67920, Note_on_c, 0, 80, 0
2, 67920, Note_on_c, 0, 78, 75
2, 68160, Note_on_c, 0, 78, 0
2, 68160, Note_on_c, 0, 77, 75
2, 68400, Note_on_c, 0, 77, 0
2, 68400, Control_c, 0, 64, 0
2, 68400, Note_on_c, 0, 75, 75
2, 68640, Note_on_c, 0, 75, 0
2, 68640, Note_on_c, 0, 74, 75
2, 68880, Note_on_c, 0, 74, 0
2, 68880, Note_on_c, 0, 75, 75
2, 69120, Note_on_c, 0, 75, 0
2, 69120, Note_on_c, 0, 80, 75
2, 69840, Note_on_c, 0, 80, 0
2, 69840, Note_on_c, 0, 78, 75
2, 70320, Note_on_c, 0, 78, 0
2, 70320, Note_on_c, 0, 77, 75
2, 70560, Note_on_c, 0, 77, 0
2, 70560, Note_on_c, 0, 75, 75
2, 71760, Note_on_c, 0, 75, 0
2, 71760, Note_on_c, 0, 75, 75
2, 72000, Note_on_c, 0, 75, 0
2, 72000, Control_c, 0, 64, 127
2, 72000, Note_on_c, 0, 75, 75
2, 72240, Note_on_c, 0, 75, 0
2, 72240, Note_on_c, 0, 71, 75
2, 72480, Note_on_c, 0, 71, 0
2, 72480, Note_on_c, 0, 70, 75
2, 72720, Note_on_c, 0, 70, 0
2, 72720, Control_c, 0, 64, 0
2, 72720, Note_on_c, 0, 68, 75
2, 73200, Note_on_c, 0, 68, 0
2, 73200, Note_on_c, 0, 75, 75
2, 73440, Note_on_c, 0, 75, 0
2, 73440, Note_on_c, 0, 75, 75
2, 73680, Note_on_c, 0, 75, 0
2, 73680, Control_c, 0, 64, 127
2, 73680, Note_on_c, 0, 63, 75
2, 73920, Note_on_c, 0, 63, 0
2, 73920, Note_on_c, 0, 65, 75
2, 74160, Note_on_c, 0, 65, 0
2, 74160, Note_on_c, 0, 66, 75
2, 74400, Note_on_c, 0, 66, 0
2, 74400, Note_on_c, 0, 68, 75
2, 74640, Note_on_c, 0, 68, 0
2, 74640, Control_c, 0, 64, 0
2, 74640, Note_on_c, 0, 70, 75
2, 74880, Note_on_c, 0, 70, 0
2, 74880, Note_on_c, 0, 71, 75
2, 76080, Note_on_c, 0, 71, 0
2, 76080, Note_on_c, 0, 70, 75
2, 76320, Note_on_c, 0, 70, 0
2, 76320, Note_on_c, 0, 67, 49
2, 76320, Note_on_c, 0, 70, 49
2, 76320, Note_on_c, 0, 75, 49
2, 76440, Note_on_c, 0, 75, 0
2, 76440, Note_on_c, 0, 70, 0
2, 76440, Note_on_c, 0, 67, 0
2, 76440, Note_on_c, 0, 67, 49
2, 76440, Note_on_c, 0, 70, 49
2, 76440, Note_on_c, 0, 75, 49
2, 76560, Note_on_c, 0, 75, 0
2, 76560, Note_on_c, 0, 70, 0
2, 76560, Note_on_c, 0, 67, 0
2, 76680, Note_on_c, 0, 67, 49
2, 76680, Note_on_c, 0, 70, 49
2, 76680, Note_on_c, 0, 75, 49
2, 76800, Note_on_c, 0, 75, 0
2, 76800, Note_on_c, 0, 70, 0
2, 76800, Note_on_c, 0, 67, 0
2, 76800, Note_on_c, 0, 67, 49
2, 76800, Note_on_c, 0, 70, 49
2, 76800, Note_on_c, 0, 75, 49
2, 76920, Note_on_c, 0, 75, 0
2, 76920, Note_on_c, 0, 70, 0
2, 76920, Note_on_c, 0, 67, 0
2, 76920, Note_on_c, 0, 67, 49
2, 76920, Note_on_c, 0, 70, 49
2, 76920, Note_on_c, 0, 75, 49
2, 77040, Note_on_c, 0, 75, 0
2, 77040, Note_on_c, 0, 70, 0
2, 77040, Note_on_c, 0, 67, 0
2, 77040, Note_on_c, 0, 67, 49
2, 77040, Note_on_c, 0, 70, 49
2, 77040, Note_on_c, 0, 75, 49
2, 77160, Note_on_c, 0, 75, 0
2, 77160, Note_on_c, 0, 70, 0
2, 77160, Note_on_c, 0, 67, 0
2, 77160, Note_on_c, 0, 67, 49
2, 77160, Note_on_c, 0, 70, 49
2, 77160, Note_on_c, 0, 75, 49
2, 77280, Note_on_c, 0, 75, 0
2, 77280, Note_on_c, 0, 70, 0
2, 77280, Note_on_c, 0, 67, 0
2, 77400, Note_on_c, 0, 67, 49
2, 77400, Note_on_c, 0, 70, 49
2, 77400, Note_on_c, 0, 75, 49
2, 77520, Note_on_c, 0, 75, 0
2, 77520, Note_on_c, 0, 70, 0
2, 77520, Note_on_c, 0, 67, 0
2, 77520, Note_on_c, 0, 67, 49
2, 77520, Note_on_c, 0, 70, 49
2, 77520, Note_on_c, 0, 75, 49
2, 77640, Note_on_c, 0, 75, 0
2, 77640, Note_on_c, 0, 70, 0
2, 77640, Note_on_c, 0, 67, 0
2, 77640, Note_on_c, 0, 67, 49
2, 77640, Note_on_c, 0, 70, 49
2, 77640, Note_on_c, 0, 75, 49
2, 77760, Note_on_c, 0, 75, 0
2, 77760, Note_on_c, 0, 70, 0
2, 77760, Note_on_c, 0, 67, 0
2, 77760, Note_on_c, 0, 68, 49
2, 77760, Note_on_c, 0, 75, 49
2, 77760, Note_on_c, 0, 77, 49
2, 77880, Note_on_c, 0, 77, 0
2, 77880, Note_on_c, 0, 75, 0
2, 77880, Note_on_c, 0, 68, 0
2, 77880, Note_on_c, 0, 68, 49
2, 77880, Note_on_c, 0, 75, 49
2, 77880, Note_on_c, 0, 77, 49
2, 78000, Note_on_c, 0, 77, 0
2, 78000, Note_on_c, 0, 75, 0
2, 78000, Note_on_c, 0, 68, 0
2, 78120, Note_on_c, 0, 68, 49
2, 78120, Note_on_c, 0, 75, 49
2, 78120, Note_on_c, 0, 77, 49
2, 78240, Note_on_c, 0, 77, 0
2, 78240, Note_on_c, 0, 75, 0
2, 78240, Note_on_c, 0, 68, 0
2, 78240, Note_on_c, 0, 68, 49
2, 78240, Note_on_c, 0, 75, 49
2, 78240, Note_on_c, 0, 77, 49
2, 78360, Note_on_c, 0, 77, 0
2, 78360, Note_on_c, 0, 75, 0
2, 78360, Note_on_c, 0, 68, 0
2, 78360, Note_on_c, 0, 68, 49
2, 78360, Note_on_c, 0, 75, 49
2, 78360, Note_on_c, 0, 77, 49
2, 78480, Note_on_c, 0, 77, 0
2, 78480, Note_on_c, 0, 75, 0
2, 78480, Note_on_c, 0, 68, 0
2, 78480, Note_on_c, 0, 69, 49
2, 78480, Note_on_c, 0, 75, 49
2, 78480, Note_on_c, 0, 78, 49
2, 78600, Note_on_c, 0, 78, 0
2, 78600, Note_on_c, 0, 75, 0
2, 78600, Note_on_c, 0, 69, 0
2, 78600, Note_on_c, 0, 69, 49
2, 78600, Note_on_c, 0, 75, 49
2, 78600, Note_on_c, 0, 78, 49
2, 78720, Note_on_c, 0, 78, 0
2, 78720, Note_on_c, 0, 75, 0
2, 78720, Note_on_c, 0, 69, 0
2, 78840, Note_on_c, 0, 69, 49
2, 78840, Note_on_c, 0, 75, 49
2, 78840, Note_on_c, 0, 78, 49
2, 78960, Note_on_c, 0, 78, 0
2, 78960, Note_on_c, 0, 75, 0
2, 78960, Note_on_c, 0, 69, 0
2, 78960, Note_on_c, 0, 69, 49
2, 78960, Note_on_c, 0, 75, 49
2, 78960, Note_on_c, 0, 78, 49
2, 79080, Note_on_c, 0, 78, 0
2, 79080, Note_on_c, 0, 75, 0
2, 79080, Note_on_c, 0, 69, 0
2, 79080, Note_on_c, 0, 69, 49
2, 79080, Note_on_c, 0, 75, 49
2, 79080, Note_on_c, 0, 78, 49
2, 79200, Note_on_c, 0, 78, 0
2, 79200, Note_on_c, 0, 75, 0
2, 79200, Note_on_c, 0, 69, 0
2, 79200, Note_on_c, 0, 70, 49
2, 79200, Note_on_c, 0, 75, 49
2, 79200, Note_on_c, 0, 79, 49
2, 79320, Note_on_c, 0, 79, 0
2, 79320, Note_on_c, 0, 75, 0
2, 79320, Note_on_c, 0, 70, 0
2, 79320, Note_on_c, 0, 70, 49
2, 79320, Note_on_c, 0, 75, 49
2, 79320, Note_on_c, 0, 79, 49
2, 79440, Note_on_c, 0, 79, 0
2, 79440, Note_on_c, 0, 75, 0
2, 79440, Note_on_c, 0, 70, 0
2, 79560, Note_on_c, 0, 70, 49
2, 79560, Note_on_c, 0, 75, 49
2, 79560, Note_on_c, 0, 79, 49
2, 79680, Note_on_c, 0, 79, 0
2, 79680, Note_on_c, 0, 75, 0
2, 79680, Note_on_c, 0, 70, 0
2, 79680, Note_on_c, 0, 70, 49
2, 79680, Note_on_c, 0, 75, 49
2, 79680, Note_on_c, 0, 79, 49
2, 79800, Note_on_c, 0, 79, 0
2, 79800, Note_on_c, 0, 75, 0
2, 79800, Note_on_c, 0, 70, 0
2, 79800, Note_on_c, 0, 70, 49
2, 79800, Note_on_c, 0, 75, 49
2, 79800, Note_on_c, 0, 79, 49
2, 79920, Note_on_c, 0, 79, 0
2, 79920, Note_on_c, 0, 75, 0
2, 79920, Note_on_c, 0, 70, 0
2, 79920, Note_on_c, 0, 67, 49
2, 79920, Note_on_c, 0, 70, 49
2, 79920, Note_on_c, 0, 75, 49
2, 80040, Note_on_c, 0, 75, 0
2, 80040, Note_on_c, 0, 70, 0
2, 80040, Note_on_c, 0, 67, 0
2, 80040, Note_on_c, 0, 67, 49
2, 80040, Note_on_c, 0, 70, 49
2, 80040, Note_on_c, 0, 75, 49
2, 80160, Note_on_c, 0, 75, 0
2, 80160, Note_on_c, 0, 70, 0
2, 80160, Note_on_c, 0, 67, 0
2, 80280, Note_on_c, 0, 67, 49
2, 80280, Note_on_c, 0, 70, 49
2, 80280, Note_on_c, 0, 75, 49
2, 80400, Note_on_c, 0, 75, 0
2, 80400, Note_on_c, 0, 70, 0
2, 80400, Note_on_c, 0, 67, 0
2, 80400, Note_on_c, 0, 67, 49
2, 80400, Note_on_c, 0, 70, 49
2, 80400, Note_on_c, 0, 75, 49
2, 80520, Note_on_c, 0, 75, 0
2, 80520, Note_on_c, 0, 70, 0
2, 80520, Note_on_c, 0, 67, 0
2, 80520, Note_on_c, 0, 67, 49
2, 80520, Note_on_c, 0, 70, 49
2, 80520, Note_on_c, 0, 75, 49
2, 80640, Note_on_c, 0, 75, 0
2, 80640, Note_on_c, 0, 70, 0
2, 80640, Note_on_c, 0, 67, 0
2, 80640, Note_on_c, 0, 68, 49
2, 80640, Note_on_c, 0, 75, 49
2, 80640, Note_on_c, 0, 77, 49
2, 80760, Note_on_c, 0, 77, 0
2, 80760, Note_on_c, 0, 75, 0
2, 80760, Note_on_c, 0, 68, 0
2, 80760, Note_on_c, 0, 68, 49
2, 80760, Note_on_c, 0, 75, 49
2, 80760, Note_on_c, 0, 77, 49
2, 80880, Note_on_c, 0, 77, 0
2, 80880, Note_on_c, 0, 75, 0
2, 80880, Note_on_c, 0, 68, 0
2, 81000, Note_on_c, 0, 68, 49
2, 81000, Note_on_c, 0, 75, 49
2, 81000, Note_on_c, 0, 77, 49
2, 81120, Note_on_c, 0, 77, 0
2, 81120, Note_on_c, 0, 75, 0
2, 81120, Note_on_c, 0, 68, 0
2, 81120, Note_on_c, 0, 68, 49
2, 81120, Note_on_c, 0, 75, 49
2, 81120, Note_on_c, 0, 77, 49
2, 81240, Note_on_c, 0, 77, 0
2, 81240, Note_on_c, 0, 75, 0
2, 81240, Note_on_c, 0, 68, 0
2, 81240, Note_on_c, 0, 68, 49
2, 81240, Note_on_c, 0, 75, 49
2, 81240, Note_on_c, 0, 77, 49
2, 81360, Note_on_c, 0, 77, 0
2, 81360, Note_on_c, 0, 75, 0
2, 81360, Note_on_c, 0, 68, 0
2, 81360, Note_on_c, 0, 69, 49
2, 81360, Note_on_c, 0, 75, 49
2, 81360, Note_on_c, 0, 78, 49
2, 81480, Note_on_c, 0, 78, 0
2, 81480, Note_on_c, 0, 75, 0
2, 81480, Note_on_c, 0, 69, 0
2, 81480, Note_on_c, 0, 69, 49
2, 81480, Note_on_c, 0, 75, 49
2, 81480, Note_on_c, 0, 78, 49
2, 81600, Note_on_c, 0, 78, 0
2, 81600, Note_on_c, 0, 75, 0
2, 81600, Note_on_c, 0, 69, 0
2, 81720, Note_on_c, 0, 69, 49
2, 81720, Note_on_c, 0, 75, 49
2, 81720, Note_on_c, 0, 78, 49
2, 81840, Note_on_c, 0, 78, 0
2, 81840, Note_on_c, 0, 75, 0
2, 81840, Note_on_c, 0, 69, 0
2, 81840, Note_on_c, 0, 69, 49
2, 81840, Note_on_c, 0, 75, 49
2, 81840, Note_on_c, 0, 78, 49
2, 81960, Note_on_c, 0, 78, 0
2, 81960, Note_on_c, 0, 75, 0
2, 81960, Note_on_c, 0, 69, 0
2, 81960, Note_on_c, 0, 69, 49
2, 81960, Note_on_c, 0, 75, 49
2, 81960, Note_on_c, 0, 78, 49
2, 82080, Note_on_c, 0, 78, 0
2, 82080, Note_on_c, 0, 75, 0
2, 82080, Note_on_c, 0, 69, 0
2, 82080, Note_on_c, 0, 70, 49
2, 82080, Note_on_c, 0, 75, 49
2, 82080, Note_on_c, 0, 79, 49
2, 82200, Note_on_c, 0, 79, 0
2, 82200, Note_on_c, 0, 75, 0
2, 82200, Note_on_c, 0, 70, 0
2, 82200, Note_on_c, 0, 70, 49
2, 82200, Note_on_c, 0, 75, 49
2, 82200, Note_on_c, 0, 79, 49
2, 82320, Note_on_c, 0, 79, 0
2, 82320, Note_on_c, 0, 75, 0
2, 82320, Note_on_c, 0, 70, 0
2, 82440, Note_on_c, 0, 70, 49
2, 82440, Note_on_c, 0, 75, 49
2, 82440, Note_on_c, 0, 79, 49
2, 82560, Note_on_c, 0, 79, 0
2, 82560, Note_on_c, 0, 75, 0
2, 82560, Note_on_c, 0, 70, 0
2, 82560, Note_on_c, 0, 70, 49
2, 82560, Note_on_c, 0, 75, 49
2, 82560, Note_on_c, 0, 79, 49
2, 82680, Note_on_c, 0, 79, 0
2, 82680, Note_on_c, 0, 75, 0
2, 82680, Note_on_c, 0, 70, 0
2, 82680, Note_on_c, 0, 70, 49
2, 82680, Note_on_c, 0, 75, 49
2, 82680, Note_on_c, 0, 79, 49
2, 82800, Note_on_c, 0, 79, 0
2, 82800, Note_on_c, 0, 75, 0
2, 82800, Note_on_c, 0, 70, 0
2, 82800, Note_on_c, 0, 67, 49
2, 82800, Note_on_c, 0, 70, 49
2, 82800, Note_on_c, 0, 75, 49
2, 82920, Note_on_c, 0, 75, 0
2, 82920, Note_on_c, 0, 70, 0
2, 82920, Note_on_c, 0, 67, 0
2, 82920, Note_on_c, 0, 67, 49
2, 82920, Note_on_c, 0, 70, 49
2, 82920, Note_on_c, 0, 75, 49
2, 83040, Note_on_c, 0, 75, 0
2, 83040, Note_on_c, 0, 70, 0
2, 83040, Note_on_c, 0, 67, 0
2, 83160, Note_on_c, 0, 67, 49
2, 83160, Note_on_c, 0, 70, 49
2, 83160, Note_on_c, 0, 75, 49
2, 83280, Note_on_c, 0, 75, 0
2, 83280, Note_on_c, 0, 70, 0
2, 83280, Note_on_c, 0, 67, 0
2, 83280, Note_on_c, 0, 67, 49
2, 83280, Note_on_c, 0, 70, 49
2, 83280, Note_on_c, 0, 75, 49
2, 83400, Note_on_c, 0, 75, 0
2, 83400, Note_on_c, 0, 70, 0
2, 83400, Note_on_c, 0, 67, 0
2, 83400, Note_on_c, 0, 67, 49
2, 83400, Note_on_c, 0, 70, 49
2, 83400, Note_on_c, 0, 75, 49
2, 83520, Note_on_c, 0, 75, 0
2, 83520, Note_on_c, 0, 70, 0
2, 83520, Note_on_c, 0, 67, 0
2, 83520, Note_on_c, 0, 68, 49
2, 83520, Note_on_c, 0, 75, 49
2, 83520, Note_on_c, 0, 77, 49
2, 83640, Note_on_c, 0, 77, 0
2, 83640, Note_on_c, 0, 75, 0
2, 83640, Note_on_c, 0, 68, 0
2, 83640, Note_on_c, 0, 68, 49
2, 83640, Note_on_c, 0, 75, 49
2, 83640, Note_on_c, 0, 77, 49
2, 83760, Note_on_c, 0, 77, 0
2, 83760, Note_on_c, 0, 75, 0
2, 83760, Note_on_c, 0, 68, 0
2, 83880, Note_on_c, 0, 68, 49
2, 83880, Note_on_c, 0, 75, 49
2, 83880, Note_on_c, 0, 77, 49
2, 84000, Note_on_c, 0, 77, 0
2, 84000, Note_on_c, 0, 75, 0
2, 84000, Note_on_c, 0, 68, 0
2, 84000, Note_on_c, 0, 68, 49
2, 84000, Note_on_c, 0, 75, 49
2, 84000, Note_on_c, 0, 77, 49
2, 84120, Note_on_c, 0, 77, 0
2, 84120, Note_on_c, 0, 75, 0
2, 84120, Note_on_c, 0, 68, 0
2, 84120, Note_on_c, 0, 68, 49
2, 84120, Note_on_c, 0, 75, 49
2, 84120, Note_on_c, 0, 77, 49
2, 84240, Note_on_c, 0, 77, 0
2, 84240, Note_on_c, 0, 75, 0
2, 84240, Note_on_c, 0, 68, 0
2, 84240, Note_on_c, 0, 69, 62
2, 84240, Note_on_c, 0, 75, 62
2, 84240, Note_on_c, 0, 78, 62
2, 84360, Note_on_c, 0, 78, 0
2, 84360, Note_on_c, 0, 75, 0
2, 84360, Note_on_c, 0, 69, 0
2, 84360, Note_on_c, 0, 69, 62
2, 84360, Note_on_c, 0, 75, 62
2, 84360, Note_on_c, 0, 78, 62
2, 84480, Note_on_c, 0, 78, 0
2, 84480, Note_on_c, 0, 75, 0
2, 84480, Note_on_c, 0, 69, 0
2, 84600, Note_on_c, 0, 69, 62
2, 84600, Note_on_c, 0, 75, 62
2, 84600, Note_on_c, 0, 78, 62
2, 84720, Note_on_c, 0, 78, 0
2, 84720, Note_on_c, 0, 75, 0
2, 84720, Note_on_c, 0, 69, 0
2, 84720, Note_on_c, 0, 69, 62
2, 84720, Note_on_c, 0, 75, 62
2, 84720, Note_on_c, 0, 78, 62
2, 84840, Note_on_c, 0, 78, 0
2, 84840, Note_on_c, 0, 75, 0
2, 84840, Note_on_c, 0, 69, 0
2, 84840, Note_on_c, 0, 69, 62
2, 84840, Note_on_c, 0, 75, 62
2, 84840, Note_on_c, 0, 78, 62
2, 84960, Note_on_c, 0, 78, 0
2, 84960, Note_on_c, 0, 75, 0
2, 84960, Note_on_c, 0, 69, 0
2, 84960, Note_on_c, 0, 70, 62
2, 84960, Note_on_c, 0, 75, 62
2, 84960, Note_on_c, 0, 79, 62
2, 85080, Note_on_c, 0, 79, 0
2, 85080, Note_on_c, 0, 75, 0
2, 85080, Note_on_c, 0, 70, 0
2, 85080, Note_on_c, 0, 70, 62
2, 85080, Note_on_c, 0, 75, 62
2, 85080, Note_on_c, 0, 79, 62
2, 85200, Note_on_c, 0, 79, 0
2, 85200, Note_on_c, 0, 75, 0
2, 85200, Note_on_c, 0, 70, 0
2, 85320, Note_on_c, 0, 70, 62
2, 85320, Note_on_c, 0, 75, 62
2, 85320, Note_on_c, 0, 79, 62
2, 85440, Note_on_c, 0, 79, 0
2, 85440, Note_on_c, 0, 75, 0
2, 85440, Note_on_c, 0, 70, 0
2, 85440, Note_on_c, 0, 70, 62
2, 85440, Note_on_c, 0, 75, 62
2, 85440, Note_on_c, 0, 79, 62
2, 85560, Note_on_c, 0, 79, 0
2, 85560, Note_on_c, 0, 75, 0
2, 85560, Note_on_c, 0, 70, 0
2, 85560, Note_on_c, 0, 70, 62
2, 85560, Note_on_c, 0, 75, 62
2, 85560, Note_on_c, 0, 79, 62
2, 85680, Note_on_c, 0, 79, 0
2, 85680, Note_on_c, 0, 75, 0
2, 85680, Note_on_c, 0, 70, 0
2, 85680, Note_on_c, 0, 71, 62
2, 85680, Note_on_c, 0, 75, 62
2, 85680, Note_on_c, 0, 80, 62
2, 85800, Note_on_c, 0, 80, 0
2, 85800, Note_on_c, 0, 75, 0
2, 85800, Note_on_c, 0, 71, 0
2, 85800, Note_on_c, 0, 71, 62
2, 85800, Note_on_c, 0, 75, 62
2, 85800, Note_on_c, 0, 80, 62
2, 85920, Note_on_c, 0, 80, 0
2, 85920, Note_on_c, 0, 75, 0
2, 85920, Note_on_c, 0, 71, 0
2, 86040, Note_on_c, 0, 71, 62
2, 86040, Note_on_c, 0, 75, 62
2, 86040, Note_on_c, 0, 80, 62
2, 86160, Note_on_c, 0, 80, 0
2, 86160, Note_on_c, 0, 75, 0
2, 86160, Note_on_c, 0, 71, 0
2, 86160, Note_on_c, 0, 71, 62
2, 86160, Note_on_c, 0, 75, 62
2, 86160, Note_on_c, 0, 80, 62
2, 86280, Note_on_c, 0, 80, 0
2, 86280, Note_on_c, 0, 75, 0
2, 86280, Note_on_c, 0, 71, 0
2, 86280, Note_on_c, 0, 71, 62
2, 86280, Note_on_c, 0, 75, 62
2, 86280, Note_on_c, 0, 80, 62
2, 86400, Note_on_c, 0, 80, 0
2, 86400, Note_on_c, 0, 75, 0
2, 86400, Note_on_c, 0, 71, 0
2, 86400, Note_on_c, 0, 73, 62
2, 86400, Note_on_c, 0, 75, 62
2, 86400, Note_on_c, 0, 82, 62
2, 86520, Note_on_c, 0, 82, 0
2, 86520, Note_on_c, 0, 75, 0
2, 86520, Note_on_c, 0, 73, 0
2, 86520, Note_on_c, 0, 73, 62
2, 86520, Note_on_c, 0, 75, 62
2, 86520, Note_on_c, 0, 82, 62
2, 86640, Note_on_c, 0, 82, 0
2, 86640, Note_on_c, 0, 75, 0
2, 86640, Note_on_c, 0, 73, 0
2, 86760, Note_on_c, 0, 73, 62
2, 86760, Note_on_c, 0, 75, 62
2, 86760, Note_on_c, 0, 82, 62
2, 86880, Note_on_c, 0, 82, 0
2, 86880, Note_on_c, 0, 75, 0
2, 86880, Note_on_c, 0, 73, 0
2, 86880, Note_on_c, 0, 73, 62
2, 86880, Note_on_c, 0, 75, 62
2, 86880, Note_on_c, 0, 82, 62
2, 87000, Note_on_c, 0, 82, 0
2, 87000, Note_on_c, 0, 75, 0
2, 87000, Note_on_c, 0, 73, 0
2, 87000, Note_on_c, 0, 73, 62
2, 87000, Note_on_c, 0, 75, 62
2, 87000, Note_on_c, 0, 82, 62
2, 87120, Note_on_c, 0, 82, 0
2, 87120, Note_on_c, 0, 75, 0
2, 87120, Note_on_c, 0, 73, 0
2, 87120, Note_on_c, 0, 73, 62
2, 87120, Note_on_c, 0, 75, 62
2, 87120, Note_on_c, 0, 82, 62
2, 87240, Note_on_c, 0, 82, 0
2, 87240, Note_on_c, 0, 75, 0
2, 87240, Note_on_c, 0, 73, 0
2, 87240, Note_on_c, 0, 73, 62
2, 87240, Note_on_c, 0, 75, 62
2, 87240, Note_on_c, 0, 82, 62
2, 87360, Note_on_c, 0, 82, 0
2, 87360, Note_on_c, 0, 75, 0
2, 87360, Note_on_c, 0, 73, 0
2, 87480, Note_on_c, 0, 73, 62
2, 87480, Note_on_c, 0, 75, 62
2, 87480, Note_on_c, 0, 82, 62
2, 87600, Note_on_c, 0, 82, 0
2, 87600, Note_on_c, 0, 75, 0
2, 87600, Note_on_c, 0, 73, 0
2, 87600, Note_on_c, 0, 73, 62
2, 87600, Note_on_c, 0, 75, 62
2, 87600, Note_on_c, 0, 82, 62
2, 87720, Note_on_c, 0, 82, 0
2, 87720, Note_on_c, 0, 75, 0
2, 87720, Note_on_c, 0, 73, 0
2, 87720, Note_on_c, 0, 73, 62
2, 87720, Note_on_c, 0, 75, 62
2, 87720, Note_on_c, 0, 82, 62
2, 87840, Note_on_c, 0, 82, 0
2, 87840, Note_on_c, 0, 75, 0
2, 87840, Note_on_c, 0, 73, 0
2, 87840, Note_on_c, 0, 71, 62
2, 87840, Note_on_c, 0, 75, 62
2, 87840, Note_on_c, 0, 81, 62
2, 87840, Note_on_c, 0, 83, 62
2, 87960, Note_on_c, 0, 83, 0
2, 87960, Note_on_c, 0, 71, 0
2, 87960, Note_on_c, 0, 75, 0
2, 87960, Note_on_c, 0, 81, 0
2, 87960, Note_on_c, 0, 71, 62
2, 87960, Note_on_c, 0, 75, 62
2, 87960, Note_on_c, 0, 81, 62
2, 87960, Note_on_c, 0, 83, 62
2, 88080, Note_on_c, 0, 83, 0
2, 88080, Note_on_c, 0, 71, 0
2, 88080, Note_on_c, 0, 75, 0
2, 88080, Note_on_c, 0, 81, 0
2, 88200, Note_on_c, 0, 71, 62
2, 88200, Note_on_c, 0, 75, 62
2, 88200, Note_on_c, 0, 81, 62
2, 88200, Note_on_c, 0, 83, 62
2, 88320, Note_on_c, 0, 83, 0
2, 88320, Note_on_c, 0, 71, 0
2, 88320, Note_on_c, 0, 75, 0
2, 88320, Note_on_c, 0, 81, 0
2, 88320, Note_on_c, 0, 71, 62
2, 88320, Note_on_c, 0, 75, 62
2, 88320, Note_on_c, 0, 81, 62
2, 88320, Note_on_c, 0, 83, 62
2, 88440, Note_on_c, 0, 83, 0
2, 88440, Note_on_c, 0, 71, 0
2, 88440, Note_on_c, 0, 75, 0
2, 88440, Note_on_c, 0, 81, 0
2, 88440, Note_on_c, 0, 71, 62
2, 88440, Note_on_c, 0, 75, 62
2, 88440, Note_on_c, 0, 81, 62
2, 88440, Note_on_c, 0, 83, 62
2, 88560, Note_on_c, 0, 83, 0
2, 88560, Note_on_c, 0, 71, 0
2, 88560, Note_on_c, 0, 75, 0
2, 88560, Note_on_c, 0, 81, 0
2, 88560, Note_on_c, 0, 71, 62
2, 88560, Note_on_c, 0, 75, 62
2, 88560, Note_on_c, 0, 81, 62
2, 88560, Note_on_c, 0, 83, 62
2, 88680, Note_on_c, 0, 83, 0
2, 88680, Note_on_c, 0, 71, 0
2, 88680, Note_on_c, 0, 75, 0
2, 88680, Note_on_c, 0, 81, 0
2, 88680, Note_on_c, 0, 71, 62
2, 88680, Note_on_c, 0, 75, 62
2, 88680, Note_on_c, 0, 81, 62
2, 88680, Note_on_c, 0, 83, 62
2, 88800, Note_on_c, 0, 83, 0
2, 88800, Note_on_c, 0, 71, 0
2, 88800, Note_on_c, 0, 75, 0
2, 88800, Note_on_c, 0, 81, 0
2, 89040, Note_on_c, 0, 83, 88
2, 89280, Note_on_c, 0, 83, 0
2, 89280, Note_on_c, 0, 88, 88
2, 89327, Note_on_c, 0, 88, 0
2, 89760, Note_on_c, 0, 83, 88
2, 90000, Note_on_c, 0, 83, 0
2, 90000, Note_on_c, 0, 85, 88
2, 90047, Note_on_c, 0, 85, 0
2, 90360, Note_on_c, 0, 80, 88
2, 90383, Note_on_c, 0, 80, 0
2, 90480, Note_on_c, 0, 83, 88
2, 90720, Note_on_c, 0, 83, 0
2, 90720, Note_on_c, 0, 85, 88
2, 90960, Note_on_c, 0, 85, 0
2, 90960, Control_c, 0, 64, 127
2, 90960, Note_on_c, 0, 71, 88
2, 91040, Note_on_c, 0, 71, 0
2, 91040, Note_on_c, 0, 73, 88
2, 91119, Note_on_c, 0, 73, 0
2, 91119, Note_on_c, 0, 75, 88
2, 91200, Note_on_c, 0, 75, 0
2, 91200, Note_on_c, 0, 76, 88
2, 91260, Note_on_c, 0, 76, 0
2, 91260, Note_on_c, 0, 78, 88
2, 91320, Note_on_c, 0, 78, 0
2, 91320, Note_on_c, 0, 80, 88
2, 91380, Note_on_c, 0, 80, 0
2, 91380, Note_on_c, 0, 81, 88
2, 91440, Note_on_c, 0, 81, 0
2, 91440, Control_c, 0, 64, 0
2, 91440, Note_on_c, 0, 83, 88
2, 91487, Note_on_c, 0, 83, 0
2, 91680, Control_c, 0, 64, 127
2, 91680, Note_on_c, 0, 76, 88
2, 91760, Note_on_c, 0, 76, 0
2, 91760, Note_on_c, 0, 78, 88
2, 91839, Note_on_c, 0, 78, 0
2, 91839, Note_on_c, 0, 80, 88
2, 91920, Note_on_c, 0, 80, 0
2, 91920, Note_on_c, 0, 81, 88
2, 91980, Note_on_c, 0, 81, 0
2, 91980, Note_on_c, 0, 83, 88
2, 92040, Note_on_c, 0, 83, 0
2, 92040, Note_on_c, 0, 85, 88
2, 92100, Note_on_c, 0, 85, 0
2, 92100, Note_on_c, 0, 87, 88
2, 92160, Note_on_c, 0, 87, 0
2, 92160, Control_c, 0, 64, 0
2, 92160, Note_on_c, 0, 88, 88
2, 92207, Note_on_c, 0, 88, 0
2, 92640, Note_on_c, 0, 83, 88
2, 92880, Note_on_c, 0, 83, 0
2, 92880, Note_on_c, 0, 85, 88
2, 92927, Note_on_c, 0, 85, 0
2, 93240, Note_on_c, 0, 80, 88
2, 93263, Note_on_c, 0, 80, 0
2, 93360, Note_on_c, 0, 83, 88
2, 93600, Note_on_c, 0, 83, 0
2, 93600, Note_on_c, 0, 85, 88
2, 93840, Note_on_c, 0, 85, 0
2, 93840, Control_c, 0, 64, 127
2, 93840, Note_on_c, 0, 71, 88
2, 93920, Note_on_c, 0, 71, 0
2, 93920, Note_on_c, 0, 73, 88
2, 93999, Note_on_c, 0, 73, 0
2, 93999, Note_on_c, 0, 75, 88
2, 94080, Note_on_c, 0, 75, 0
2, 94080, Note_on_c, 0, 76, 88
2, 94140, Note_on_c, 0, 76, 0
2, 94140, Note_on_c, 0, 78, 88
2, 94200, Note_on_c, 0, 78, 0
2, 94200, Note_on_c, 0, 80, 88
2, 94260, Note_on_c, 0, 80, 0
2, 94260, Note_on_c, 0, 81, 88
2, 94320, Note_on_c, 0, 81, 0
2, 94320, Control_c, 0, 64, 0
2, 94320, Note_on_c, 0, 83, 88
2, 94367, Note_on_c, 0, 83, 0
2, 94560, Control_c, 0, 64, 127
2, 94560, Note_on_c, 0, 76, 88
2, 94640, Note_on_c, 0, 76, 0
2, 94640, Note_on_c, 0, 78, 88
2, 94719, Note_on_c, 0, 78, 0
2, 94719, Note_on_c, 0, 80, 88
2, 94800, Note_on_c, 0, 80, 0
2, 94800, Note_on_c, 0, 81, 88
2, 94860, Note_on_c, 0, 81, 0
2, 94860, Note_on_c, 0, 83, 88
2, 94920, Note_on_c, 0, 83, 0
2, 94920, Note_on_c, 0, 85, 88
2, 94980, Note_on_c, 0, 85, 0
2, 94980, Note_on_c, 0, 87, 88
2, 95040, Note_on_c, 0, 87, 0
2, 95040, Control_c, 0, 64, 0
2, 95040, Note_on_c, 0, 88, 88
2, 95087, Note_on_c, 0, 88, 0
2, 95280, Note_on_c, 0, 87, 88
2, 95400, Note_on_c, 0, 87, 0
2, 95400, Note_on_c, 0, 90, 88
2, 95520, Note_on_c, 0, 90, 0
2, 95520, Note_on_c, 0, 88, 88
2, 95543, Note_on_c, 0, 88, 0
2, 95640, Note_on_c, 0, 85, 88
2, 95663, Note_on_c, 0, 85, 0
2, 95760, Note_on_c, 0, 83, 88
2, 95807, Note_on_c, 0, 83, 0
2, 96000, Note_on_c, 0, 82, 88
2, 96120, Note_on_c, 0, 82, 0
2, 96120, Note_on_c, 0, 85, 88
2, 96240, Note_on_c, 0, 85, 0
2, 96240, Note_on_c, 0, 83, 88
2, 96263, Note_on_c, 0, 83, 0
2, 96360, Note_on_c, 0, 81, 88
2, 96383, Note_on_c, 0, 81, 0
2, 96480, Note_on_c, 0, 80, 88
2, 96527, Note_on_c, 0, 80, 0
2, 96720, Note_on_c, 0, 79, 88
2, 96840, Note_on_c, 0, 79, 0
2, 96840, Note_on_c, 0, 81, 88
2, 96960, Note_on_c, 0, 81, 0
2, 96960, Note_on_c, 0, 80, 88
2, 96983, Note_on_c, 0, 80, 0
2, 97080, Note_on_c, 0, 78, 88
2, 97103, Note_on_c, 0, 78, 0
2, 97200, Note_on_c, 0, 77, 88
2, 97247, Note_on_c, 0, 77, 0
2, 97440, Control_c, 0, 64, 127
2, 97440, Note_on_c, 0, 73, 88
2, 97487, Note_on_c, 0, 73, 0
2, 97487, Note_on_c, 0, 75, 88
2, 97536, Note_on_c, 0, 75, 0
2, 97536, Note_on_c, 0, 77, 88
2, 97583, Note_on_c, 0, 77, 0
2, 97583, Note_on_c, 0, 78, 88
2, 97632, Note_on_c, 0, 78, 0
2, 97632, Note_on_c, 0, 80, 88
2, 97680, Note_on_c, 0, 80, 0
2, 97680, Note_on_c, 0, 81, 88
2, 97727, Note_on_c, 0, 81, 0
2, 97727, Note_on_c, 0, 83, 88
2, 97776, Note_on_c, 0, 83, 0
2, 97776, Note_on_c, 0, 85, 88
2, 97823, Note_on_c, 0, 85, 0
2, 97823, Note_on_c, 0, 87, 88
2, 97872, Note_on_c, 0, 87, 0
2, 97872, Note_on_c, 0, 89, 88
2, 97920, Note_on_c, 0, 89, 0
2, 97920, Control_c, 0, 64, 0
2, 97920, Note_on_c, 0, 90, 88
2, 97967, Note_on_c, 0, 90, 0
2, 98400, Note_on_c, 0, 85, 88
2, 98640, Note_on_c, 0, 85, 0
2, 98640, Note_on_c, 0, 86, 88
2, 98687, Note_on_c, 0, 86, 0
2, 99000, Note_on_c, 0, 81, 88
2, 99023, Note_on_c, 0, 81, 0
2, 99120, Note_on_c, 0, 85, 88
2, 99360, Note_on_c, 0, 85, 0
2, 99360, Note_on_c, 0, 86, 88
2, 99407, Note_on_c, 0, 86, 0
2, 99600, Control_c, 0, 64, 127
2, 99600, Note_on_c, 0, 73, 88
2, 99680, Note_on_c, 0, 73, 0
2, 99680, Note_on_c, 0, 75, 88
2, 99759, Note_on_c, 0, 75, 0
2, 99759, Note_on_c, 0, 77, 88
2, 99840, Note_on_c, 0, 77, 0
2, 99840, Note_on_c, 0, 78, 88
2, 99900, Note_on_c, 0, 78, 0
2, 99900, Note_on_c, 0, 80, 88
2, 99960, Note_on_c, 0, 80, 0
2, 99960, Note_on_c, 0, 81, 88
2, 100020, Note_on_c, 0, 81, 0
2, 100020, Note_on_c, 0, 83, 88
2, 100080, Note_on_c, 0, 83, 0
2, 100080, Control_c, 0, 64, 0
2, 100080, Note_on_c, 0, 85, 88
2, 100127, Note_on_c, 0, 85, 0
2, 100320, Control_c, 0, 64, 127
2, 100320, Note_on_c, 0, 78, 88
2, 100400, Note_on_c, 0, 78, 0
2, 100400, Note_on_c, 0, 80, 88
2, 100479, Note_on_c, 0, 80, 0
2, 100479, Note_on_c, 0, 81, 88
2, 100560, Note_on_c, 0, 81, 0
2, 100560, Note_on_c, 0, 83, 88
2, 100620, Note_on_c, 0, 83, 0
2, 100620, Note_on_c, 0, 85, 88
2, 100680, Note_on_c, 0, 85, 0
2, 100680, Note_on_c, 0, 87, 88
2, 100740, Note_on_c, 0, 87, 0
2, 100740, Note_on_c, 0, 89, 88
2, 100800, Note_on_c, 0, 89, 0
2, 100800, Control_c, 0, 64, 0
2, 100800, Note_on_c, 0, 90, 88
2, 100847, Note_on_c, 0, 90, 0
2, 101280, Note_on_c, 0, 85, 88
2, 101520, Note_on_c, 0, 85, 0
2, 101520, Note_on_c, 0, 86, 88
2, 101567, Note_on_c, 0, 86, 0
2, 101880, Note_on_c, 0, 81, 88
2, 101903, Note_on_c, 0, 81, 0
2, 102000, Note_on_c, 0, 85, 88
2, 102240, Note_on_c, 0, 85, 0
2, 102240, Note_on_c, 0, 86, 88
2, 102287, Note_on_c, 0, 86, 0
2, 102480, Control_c, 0, 64, 127
2, 102480, Note_on_c, 0, 73, 88
2, 102560, Note_on_c, 0, 73, 0
2, 102560, Note_on_c, 0, 75, 88
2, 102639, Note_on_c, 0, 75, 0
2, 102639, Note_on_c, 0, 77, 88
2, 102720, Note_on_c, 0, 77, 0
2, 102720, Note_on_c, 0, 78, 88
2, 102780, Note_on_c, 0, 78, 0
2, 102780, Note_on_c, 0, 80, 88
2, 102840, Note_on_c, 0, 80, 0
2, 102840, Note_on_c, 0, 81, 88
2, 102900, Note_on_c, 0, 81, 0
2, 102900, Note_on_c, 0, 83, 88
2, 102960, Note_on_c, 0, 83, 0
2, 102960, Control_c, 0, 64, 0
2, 102960, Note_on_c, 0, 85, 88
2, 103007, Note_on_c, 0, 85, 0
2, 103200, Control_c, 0, 64, 127
2, 103200, Note_on_c, 0, 78, 88
2, 103280, Note_on_c, 0, 78, 0
2, 103280, Note_on_c, 0, 80, 88
2, 103359, Note_on_c, 0, 80, 0
2, 103359, Note_on_c, 0, 81, 88
2, 103440, Note_on_c, 0, 81, 0
2, 103440, Note_on_c, 0, 83, 88
2, 103500, Note_on_c, 0, 83, 0
2, 103500, Note_on_c, 0, 85, 88
2, 103560, Note_on_c, 0, 85, 0
2, 103560, Note_on_c, 0, 87, 88
2, 103620, Note_on_c, 0, 87, 0
2, 103620, Note_on_c, 0, 89, 88
2, 103680, Note_on_c, 0, 89, 0
2, 103680, Control_c, 0, 64, 0
2, 103680, Note_on_c, 0, 90, 88
2, 103727, Note_on_c, 0, 90, 0
2, 103920, Note_on_c, 0, 89, 88
2, 104040, Note_on_c, 0, 89, 0
2, 104040, Note_on_c, 0, 92, 88
2, 104160, Note_on_c, 0, 92, 0
2, 104160, Note_on_c, 0, 90, 88
2, 104183, Note_on_c, 0, 90, 0
2, 104280, Note_on_c, 0, 86, 88
2, 104303, Note_on_c, 0, 86, 0
2, 104400, Note_on_c, 0, 85, 88
2, 104447, Note_on_c, 0, 85, 0
2, 104640, Note_on_c, 0, 84, 88
2, 104760, Note_on_c, 0, 84, 0
2, 104760, Note_on_c, 0, 86, 88
2, 104880, Note_on_c, 0, 86, 0
2, 104880, Note_on_c, 0, 85, 88
2, 104903, Note_on_c, 0, 85, 0
2, 105000, Note_on_c, 0, 81, 88
2, 105023, Note_on_c, 0, 81, 0
2, 105120, Note_on_c, 0, 78, 88
2, 105167, Note_on_c, 0, 78, 0
2, 105360, Control_c, 0, 64, 127
2, 105360, Note_on_c, 0, 75, 88
2, 105413, Note_on_c, 0, 75, 0
2, 105413, Note_on_c, 0, 77, 88
2, 105466, Note_on_c, 0, 77, 0
2, 105466, Note_on_c, 0, 78, 88
2, 105519, Note_on_c, 0, 78, 0
2, 105519, Note_on_c, 0, 80, 88
2, 105573, Note_on_c, 0, 80, 0
2, 105573, Note_on_c, 0, 81, 88
2, 105626, Note_on_c, 0, 81, 0
2, 105626, Note_on_c, 0, 83, 88
2, 105680, Note_on_c, 0, 83, 0
2, 105680, Note_on_c, 0, 85, 88
2, 105733, Note_on_c, 0, 85, 0
2, 105733, Note_on_c, 0, 87, 88
2, 105786, Note_on_c, 0, 87, 0
2, 105786, Note_on_c, 0, 89, 88
2, 105840, Note_on_c, 0, 89, 0
2, 105840, Control_c, 0, 64, 0
2, 105840, Note_on_c, 0, 90, 88
2, 105887, Note_on_c, 0, 90, 0
2, 106080, Note_on_c, 0, 87, 88
2, 106160, Note_on_c, 0, 87, 0
2, 106160, Note_on_c, 0, 88, 88
2, 106239, Note_on_c, 0, 88, 0
2, 106239, Note_on_c, 0, 90, 88
2, 106320, Note_on_c, 0, 90, 0
2, 106320, Note_on_c, 0, 90, 88
2, 106400, Note_on_c, 0, 90, 0
2, 106400, Note_on_c, 0, 90, 88
2, 106479, Note_on_c, 0, 90, 0
2, 106479, Note_on_c, 0, 92, 88
2, 106560, Note_on_c, 0, 92, 0
2, 106560, Note_on_c, 0, 95, 88
2, 106607, Note_on_c, 0, 95, 0
2, 106800, Note_on_c, 0, 94, 88
2, 106920, Note_on_c, 0, 94, 0
2, 106920, Note_on_c, 0, 97, 88
2, 107040, Note_on_c, 0, 97, 0
2, 107040, Note_on_c, 0, 95, 88
2, 107063, Note_on_c, 0, 95, 0
2, 107160, Note_on_c, 0, 92, 88
2, 107183, Note_on_c, 0, 92, 0
2, 107280, Note_on_c, 0, 88, 88
2, 107327, Note_on_c, 0, 88, 0
2, 107520, Note_on_c, 0, 91, 88
2, 107640, Note_on_c, 0, 91, 0
2, 107640, Note_on_c, 0, 93, 88
2, 107760, Note_on_c, 0, 93, 0
2, 107760, Note_on_c, 0, 92, 88
2, 107783, Note_on_c, 0, 92, 0
2, 107880, Note_on_c, 0, 88, 88
2, 107903, Note_on_c, 0, 88, 0
2, 108000, Note_on_c, 0, 83, 88
2, 108047, Note_on_c, 0, 83, 0
2, 108240, Note_on_c, 0, 82, 88
2, 108360, Note_on_c, 0, 82, 0
2, 108360, Note_on_c, 0, 85, 88
2, 108480, Note_on_c, 0, 85, 0
2, 108480, Note_on_c, 0, 83, 88
2, 108503, Note_on_c, 0, 83, 0
2, 108600, Note_on_c, 0, 78, 88
2, 108623, Note_on_c, 0, 78, 0
2, 108720, Control_c, 0, 64, 127
2, 108720, Note_on_c, 0, 75, 88
2, 108840, Note_on_c, 0, 75, 0
2, 108840, Note_on_c, 0, 78, 88
2, 108960, Note_on_c, 0, 78, 0
2, 108960, Note_on_c, 0, 75, 88
2, 109080, Note_on_c, 0, 75, 0
2, 109080, Control_c, 0, 64, 0
2, 109080, Note_on_c, 0, 71, 88
2, 109200, Note_on_c, 0, 71, 0
2, 109200, Note_on_c, 0, 66, 88
2, 109223, Note_on_c, 0, 66, 0
2, 109320, Note_on_c, 0, 63, 88
2, 109343, Note_on_c, 0, 63, 0
2, 109440, Note_on_c, 0, 74, 62
2, 109440, Note_on_c, 0, 77, 62
2, 109440, Note_on_c, 0, 82, 62
2, 109560, Note_on_c, 0, 82, 0
2, 109560, Note_on_c, 0, 77, 0
2, 109560, Note_on_c, 0, 74, 0
2, 109560, Note_on_c, 0, 74, 62
2, 109560, Note_on_c, 0, 77, 62
2, 109560, Note_on_c, 0, 82, 62
2, 109680, Note_on_c, 0, 82, 0
2, 109680, Note_on_c, 0, 77, 0
2, 109680, Note_on_c, 0, 74, 0
2, 109800, Note_on_c, 0, 74, 62
2, 109800, Note_on_c, 0, 77, 62
2, 109800, Note_on_c, 0, 82, 62
2, 109920, Note_on_c, 0, 82, 0
2, 109920, Note_on_c, 0, 77, 0
2, 109920, Note_on_c, 0, 74, 0
2, 109920, Note_on_c, 0, 74, 62
2, 109920, Note_on_c, 0, 77, 62
2, 109920, Note_on_c, 0, 82, 62
2, 110040, Note_on_c, 0, 82, 0
2, 110040, Note_on_c, 0, 77, 0
2, 110040, Note_on_c, 0, 74, 0
2, 110040, Note_on_c, 0, 74, 62
2, 110040, Note_on_c, 0, 77, 62
2, 110040, Note_on_c, 0, 82, 62
2, 110160, Note_on_c, 0, 82, 0
2, 110160, Note_on_c, 0, 77, 0
2, 110160, Note_on_c, 0, 74, 0
2, 110160, Note_on_c, 0, 74, 62
2, 110160, Note_on_c, 0, 77, 62
2, 110160, Note_on_c, 0, 82, 62
2, 110280, Note_on_c, 0, 82, 0
2, 110280, Note_on_c, 0, 77, 0
2, 110280, Note_on_c, 0, 74, 0
2, 110280, Note_on_c, 0, 74, 62
2, 110280, Note_on_c, 0, 77, 62
2, 110280, Note_on_c, 0, 82, 62
2, 110400, Note_on_c, 0, 82, 0
2, 110400, Note_on_c, 0, 77, 0
2, 110400, Note_on_c, 0, 74, 0
2, 110520, Note_on_c, 0, 74, 62
2, 110520, Note_on_c, 0, 77, 62
2, 110520, Note_on_c, 0, 82, 62
2, 110640, Note_on_c, 0, 82, 0
2, 110640, Note_on_c, 0, 77, 0
2, 110640, Note_on_c, 0, 74, 0
2, 110640, Note_on_c, 0, 74, 62
2, 110640, Note_on_c, 0, 77, 62
2, 110640, Note_on_c, 0, 82, 62
2, 110760, Note_on_c, 0, 82, 0
2, 110760, Note_on_c, 0, 77, 0
2, 110760, Note_on_c, 0, 74, 0
2, 110760, Note_on_c, 0, 74, 62
2, 110760, Note_on_c, 0, 77, 62
2, 110760, Note_on_c, 0, 82, 62
2, 110880, Note_on_c, 0, 82, 0
2, 110880, Note_on_c, 0, 77, 0
2, 110880, Note_on_c, 0, 74, 0
2, 110880, Note_on_c, 0, 75, 62
2, 110880, Note_on_c, 0, 82, 62
2, 110880, Note_on_c, 0, 84, 62
2, 111000, Note_on_c, 0, 84, 0
2, 111000, Note_on_c, 0, 82, 0
2, 111000, Note_on_c, 0, 75, 0
2, 111000, Note_on_c, 0, 75, 62
2, 111000, Note_on_c, 0, 82, 62
2, 111000, Note_on_c, 0, 84, 62
2, 111120, Note_on_c, 0, 84, 0
2, 111120, Note_on_c, 0, 82, 0
2, 111120, Note_on_c, 0, 75, 0
2, 111240, Note_on_c, 0, 75, 62
2, 111240, Note_on_c, 0, 82, 62
2, 111240, Note_on_c, 0, 84, 62
2, 111360, Note_on_c, 0, 84, 0
2, 111360, Note_on_c, 0, 82, 0
2, 111360, Note_on_c, 0, 75, 0
2, 111360, Note_on_c, 0, 75, 62
2, 111360, Note_on_c, 0, 82, 62
2, 111360, Note_on_c, 0, 84, 62
2, 111480, Note_on_c, 0, 84, 0
2, 111480, Note_on_c, 0, 82, 0
2, 111480, Note_on_c, 0, 75, 0
2, 111480, Note_on_c, 0, 75, 62
2, 111480, Note_on_c, 0, 82, 62
2, 111480, Note_on_c, 0, 84, 62
2, 111600, Note_on_c, 0, 84, 0
2, 111600, Note_on_c, 0, 82, 0
2, 111600, Note_on_c, 0, 75, 0
2, 111600, Note_on_c, 0, 76, 62
2, 111600, Note_on_c, 0, 82, 62
2, 111600, Note_on_c, 0, 85, 62
2, 111720, Note_on_c, 0, 85, 0
2, 111720, Note_on_c, 0, 82, 0
2, 111720, Note_on_c, 0, 76, 0
2, 111720, Note_on_c, 0, 76, 62
2, 111720, Note_on_c, 0, 82, 62
2, 111720, Note_on_c, 0, 85, 62
2, 111840, Note_on_c, 0, 85, 0
2, 111840, Note_on_c, 0, 82, 0
2, 111840, Note_on_c, 0, 76, 0
2, 111960, Note_on_c, 0, 76, 62
2, 111960, Note_on_c, 0, 82, 62
2, 111960, Note_on_c, 0, 85, 62
2, 112080, Note_on_c, 0, 85, 0
2, 112080, Note_on_c, 0, 82, 0
2, 112080, Note_on_c, 0, 76, 0
2, 112080, Note_on_c, 0, 76, 62
2, 112080, Note_on_c, 0, 82, 62
2, 112080, Note_on_c, 0, 85, 62
2, 112200, Note_on_c, 0, 85, 0
2, 112200, Note_on_c, 0, 82, 0
2, 112200, Note_on_c, 0, 76, 0
2, 112200, Note_on_c, 0, 76, 62
2, 112200, Note_on_c, 0, 82, 62
2, 112200, Note_on_c, 0, 85, 62
2, 112320, Note_on_c, 0, 85, 0
2, 112320, Note_on_c, 0, 82, 0
2, 112320, Note_on_c, 0, 76, 0
2, 112320, Note_on_c, 0, 77, 62
2, 112320, Note_on_c, 0, 82, 62
2, 112320, Note_on_c, 0, 86, 62
2, 112440, Note_on_c, 0, 86, 0
2, 112440, Note_on_c, 0, 82, 0
2, 112440, Note_on_c, 0, 77, 0
2, 112440, Note_on_c, 0, 77, 62
2, 112440, Note_on_c, 0, 82, 62
2, 112440, Note_on_c, 0, 86, 62
2, 112560, Note_on_c, 0, 86, 0
2, 112560, Note_on_c, 0, 82, 0
2, 112560, Note_on_c, 0, 77, 0
2, 112680, Note_on_c, 0, 77, 62
2, 112680, Note_on_c, 0, 82, 62
2, 112680, Note_on_c, 0, 86, 62
2, 112800, Note_on_c, 0, 86, 0
2, 112800, Note_on_c, 0, 82, 0
2, 112800, Note_on_c, 0, 77, 0
2, 112800, Note_on_c, 0, 77, 62
2, 112800, Note_on_c, 0, 82, 62
2, 112800, Note_on_c, 0, 86, 62
2, 112920, Note_on_c, 0, 86, 0
2, 112920, Note_on_c, 0, 82, 0
2, 112920, Note_on_c, 0, 77, 0
2, 112920, Note_on_c, 0, 77, 62
2, 112920, Note_on_c, 0, 82, 62
2, 112920, Note_on_c, 0, 86, 62
2, 113040, Note_on_c, 0, 86, 0
2, 113040, Note_on_c, 0, 82, 0
2, 113040, Note_on_c, 0, 77, 0
2, 113040, Note_on_c, 0, 74, 62
2, 113040, Note_on_c, 0, 77, 62
2, 113040, Note_on_c, 0, 82, 62
2, 113160, Note_on_c, 0, 82, 0
2, 113160, Note_on_c, 0, 77, 0
2, 113160, Note_on_c, 0, 74, 0
2, 113160, Note_on_c, 0, 74, 62
2, 113160, Note_on_c, 0, 77, 62
2, 113160, Note_on_c, 0, 82, 62
2, 113280, Note_on_c, 0, 82, 0
2, 113280, Note_on_c, 0, 77, 0
2, 113280, Note_on_c, 0, 74, 0
2, 113400, Note_on_c, 0, 74, 62
2, 113400, Note_on_c, 0, 77, 62
2, 113400, Note_on_c, 0, 82, 62
2, 113520, Note_on_c, 0, 82, 0
2, 113520, Note_on_c, 0, 77, 0
2, 113520, Note_on_c, 0, 74, 0
2, 113520, Note_on_c, 0, 74, 62
2, 113520, Note_on_c, 0, 77, 62
2, 113520, Note_on_c, 0, 82, 62
2, 113640, Note_on_c, 0, 82, 0
2, 113640, Note_on_c, 0, 77, 0
2, 113640, Note_on_c, 0, 74, 0
2, 113640, Note_on_c, 0, 74, 62
2, 113640, Note_on_c, 0, 77, 62
2, 113640, Note_on_c, 0, 82, 62
2, 113760, Note_on_c, 0, 82, 0
2, 113760, Note_on_c, 0, 77, 0
2, 113760, Note_on_c, 0, 74, 0
2, 113760, Note_on_c, 0, 75, 62
2, 113760, Note_on_c, 0, 82, 62
2, 113760, Note_on_c, 0, 84, 62
2, 113880, Note_on_c, 0, 84, 0
2, 113880, Note_on_c, 0, 82, 0
2, 113880, Note_on_c, 0, 75, 0
2, 113880, Note_on_c, 0, 75, 62
2, 113880, Note_on_c, 0, 82, 62
2, 113880, Note_on_c, 0, 84, 62
2, 114000, Note_on_c, 0, 84, 0
2, 114000, Note_on_c, 0, 82, 0
2, 114000, Note_on_c, 0, 75, 0
2, 114120, Note_on_c, 0, 75, 62
2, 114120, Note_on_c, 0, 82, 62
2, 114120, Note_on_c, 0, 84, 62
2, 114240, Note_on_c, 0, 84, 0
2, 114240, Note_on_c, 0, 82, 0
2, 114240, Note_on_c, 0, 75, 0
2, 114240, Note_on_c, 0, 75, 62
2, 114240, Note_on_c, 0, 82, 62
2, 114240, Note_on_c, 0, 84, 62
2, 114360, Note_on_c, 0, 84, 0
2, 114360, Note_on_c, 0, 82, 0
2, 114360, Note_on_c, 0, 75, 0
2, 114360, Note_on_c, 0, 75, 62
2, 114360, Note_on_c, 0, 82, 62
2, 114360, Note_on_c, 0, 84, 62
2, 114480, Note_on_c, 0, 84, 0
2, 114480, Note_on_c, 0, 82, 0
2, 114480, Note_on_c, 0, 75, 0
2, 114480, Note_on_c, 0, 76, 62
2, 114480, Note_on_c, 0, 82, 62
2, 114480, Note_on_c, 0, 85, 62
2, 114600, Note_on_c, 0, 85, 0
2, 114600, Note_on_c, 0, 82, 0
2, 114600, Note_on_c, 0, 76, 0
2, 114600, Note_on_c, 0, 76, 62
2, 114600, Note_on_c, 0, 82, 62
2, 114600, Note_on_c, 0, 85, 62
2, 114720, Note_on_c, 0, 85, 0
2, 114720, Note_on_c, 0, 82, 0
2, 114720, Note_on_c, 0, 76, 0
2, 114840, Note_on_c, 0, 76, 62
2, 114840, Note_on_c, 0, 82, 62
2, 114840, Note_on_c, 0, 85, 62
2, 114960, Note_on_c, 0, 85, 0
2, 114960, Note_on_c, 0, 82, 0
2, 114960, Note_on_c, 0, 76, 0
2, 114960, Note_on_c, 0, 76, 62
2, 114960, Note_on_c, 0, 82, 62
2, 114960, Note_on_c, 0, 85, 62
2, 115080, Note_on_c, 0, 85, 0
2, 115080, Note_on_c, 0, 82, 0
2, 115080, Note_on_c, 0, 76, 0
2, 115080, Note_on_c, 0, 76, 62
2, 115080, Note_on_c, 0, 82, 62
2, 115080, Note_on_c, 0, 85, 62
2, 115200, Note_on_c, 0, 85, 0
2, 115200, Note_on_c, 0, 82, 0
2, 115200, Note_on_c, 0, 76, 0
2, 115200, Note_on_c, 0, 77, 62
2, 115200, Note_on_c, 0, 82, 62
2, 115200, Note_on_c, 0, 86, 62
2, 115320, Note_on_c, 0, 86, 0
2, 115320, Note_on_c, 0, 82, 0
2, 115320, Note_on_c, 0, 77, 0
2, 115320, Note_on_c, 0, 77, 62
2, 115320, Note_on_c, 0, 82, 62
2, 115320, Note_on_c, 0, 86, 62
2, 115440, Note_on_c, 0, 86, 0
2, 115440, Note_on_c, 0, 82, 0
2, 115440, Note_on_c, 0, 77, 0
2, 115560, Note_on_c, 0, 77, 62
2, 115560, Note_on_c, 0, 82, 62
2, 115560, Note_on_c, 0, 86, 62
2, 115680, Note_on_c, 0, 86, 0
2, 115680, Note_on_c, 0, 82, 0
2, 115680, Note_on_c, 0, 77, 0
2, 115680, Note_on_c, 0, 77, 62
2, 115680, Note_on_c, 0, 82, 62
2, 115680, Note_on_c, 0, 86, 62
2, 115800, Note_on_c, 0, 86, 0
2, 115800, Note_on_c, 0, 82, 0
2, 115800, Note_on_c, 0, 77, 0
2, 115800, Note_on_c, 0, 77, 62
2, 115800, Note_on_c, 0, 82, 62
2, 115800, Note_on_c, 0, 86, 62
2, 115920, Note_on_c, 0, 86, 0
2, 115920, Note_on_c, 0, 82, 0
2, 115920, Note_on_c, 0, 77, 0
2, 115920, Note_on_c, 0, 74, 62
2, 115920, Note_on_c, 0, 77, 62
2, 115920, Note_on_c, 0, 82, 62
2, 116040, Note_on_c, 0, 82, 0
2, 116040, Note_on_c, 0, 77, 0
2, 116040, Note_on_c, 0, 74, 0
2, 116040, Note_on_c, 0, 74, 62
2, 116040, Note_on_c, 0, 77, 62
2, 116040, Note_on_c, 0, 82, 62
2, 116160, Note_on_c, 0, 82, 0
2, 116160, Note_on_c, 0, 77, 0
2, 116160, Note_on_c, 0, 74, 0
2, 116280, Note_on_c, 0, 74, 62
2, 116280, Note_on_c, 0, 77, 62
2, 116280, Note_on_c, 0, 82, 62
2, 116400, Note_on_c, 0, 82, 0
2, 116400, Note_on_c, 0, 77, 0
2, 116400, Note_on_c, 0, 74, 0
2, 116400, Note_on_c, 0, 74, 62
2, 116400, Note_on_c, 0, 77, 62
2, 116400, Note_on_c, 0, 82, 62
2, 116520, Note_on_c, 0, 82, 0
2, 116520, Note_on_c, 0, 77, 0
2, 116520, Note_on_c, 0, 74, 0
2, 116520, Note_on_c, 0, 74, 62
2, 116520, Note_on_c, 0, 77, 62
2, 116520, Note_on_c, 0, 82, 62
2, 116640, Note_on_c, 0, 82, 0
2, 116640, Note_on_c, 0, 77, 0
2, 116640, Note_on_c, 0, 74, 0
2, 116640, Note_on_c, 0, 75, 62
2, 116640, Note_on_c, 0, 82, 62
2, 116640, Note_on_c, 0, 84, 62
2, 116760, Note_on_c, 0, 84, 0
2, 116760, Note_on_c, 0, 82, 0
2, 116760, Note_on_c, 0, 75, 0
2, 116760, Note_on_c, 0, 75, 62
2, 116760, Note_on_c, 0, 82, 62
2, 116760, Note_on_c, 0, 84, 62
2, 116880, Note_on_c, 0, 84, 0
2, 116880, Note_on_c, 0, 82, 0
2, 116880, Note_on_c, 0, 75, 0
2, 117000, Note_on_c, 0, 75, 62
2, 117000, Note_on_c, 0, 82, 62
2, 117000, Note_on_c, 0, 84, 62
2, 117120, Note_on_c, 0, 84, 0
2, 117120, Note_on_c, 0, 82, 0
2, 117120, Note_on_c, 0, 75, 0
2, 117120, Note_on_c, 0, 75, 62
2, 117120, Note_on_c, 0, 82, 62
2, 117120, Note_on_c, 0, 84, 62
2, 117240, Note_on_c, 0, 84, 0
2, 117240, Note_on_c, 0, 82, 0
2, 117240, Note_on_c, 0, 75, 0
2, 117240, Note_on_c, 0, 75, 62
2, 117240, Note_on_c, 0, 82, 62
2, 117240, Note_on_c, 0, 84, 62
2, 117360, Note_on_c, 0, 84, 0
2, 117360, Note_on_c, 0, 82, 0
2, 117360, Note_on_c, 0, 75, 0
2, 117360, Note_on_c, 0, 76, 62
2, 117360, Note_on_c, 0, 82, 62
2, 117360, Note_on_c, 0, 85, 62
2, 117480, Note_on_c, 0, 85, 0
2, 117480, Note_on_c, 0, 82, 0
2, 117480, Note_on_c, 0, 76, 0
2, 117480, Note_on_c, 0, 76, 62
2, 117480, Note_on_c, 0, 82, 62
2, 117480, Note_on_c, 0, 85, 62
2, 117600, Note_on_c, 0, 85, 0
2, 117600, Note_on_c, 0, 82, 0
2, 117600, Note_on_c, 0, 76, 0
2, 117720, Note_on_c, 0, 76, 62
2, 117720, Note_on_c, 0, 82, 62
2, 117720, Note_on_c, 0, 85, 62
2, 117840, Note_on_c, 0, 85, 0
2, 117840, Note_on_c, 0, 82, 0
2, 117840, Note_on_c, 0, 76, 0
2, 117840, Note_on_c, 0, 76, 62
2, 117840, Note_on_c, 0, 82, 62
2, 117840, Note_on_c, 0, 85, 62
2, 117960, Note_on_c, 0, 85, 0
2, 117960, Note_on_c, 0, 82, 0
2, 117960, Note_on_c, 0, 76, 0
2, 117960, Note_on_c, 0, 76, 62
2, 117960, Note_on_c, 0, 82, 62
2, 117960, Note_on_c, 0, 85, 62
2, 118080, Note_on_c, 0, 85, 0
2, 118080, Note_on_c, 0, 82, 0
2, 118080, Note_on_c, 0, 76, 0
2, 118080, Note_on_c, 0, 77, 62
2, 118080, Note_on_c, 0, 82, 62
2, 118080, Note_on_c, 0, 86, 62
2, 118200, Note_on_c, 0, 86, 0
2, 118200, Note_on_c, 0, 82, 0
2, 118200, Note_on_c, 0, 77, 0
2, 118200, Note_on_c, 0, 77, 62
2, 118200, Note_on_c, 0, 82, 62
2, 118200, Note_on_c, 0, 86, 62
2, 118320, Note_on_c, 0, 86, 0
2, 118320, Note_on_c, 0, 82, 0
2, 118320, Note_on_c, 0, 77, 0
2, 118440, Note_on_c, 0, 77, 62
2, 118440, Note_on_c, 0, 82, 62
2, 118440, Note_on_c, 0, 86, 62
2, 118560, Note_on_c, 0, 86, 0
2, 118560, Note_on_c, 0, 82, 0
2, 118560, Note_on_c, 0, 77, 0
2, 118560, Note_on_c, 0, 77, 62
2, 118560, Note_on_c, 0, 82, 62
2, 118560, Note_on_c, 0, 86, 62
2, 118680, Note_on_c, 0, 86, 0
2, 118680, Note_on_c, 0, 82, 0
2, 118680, Note_on_c, 0, 77, 0
2, 118680, Note_on_c, 0, 77, 62
2, 118680, Note_on_c, 0, 82, 62
2, 118680, Note_on_c, 0, 86, 62
2, 118800, Note_on_c, 0, 86, 0
2, 118800, Note_on_c, 0, 82, 0
2, 118800, Note_on_c, 0, 77, 0
2, 118800, Note_on_c, 0, 78, 62
2, 118800, Note_on_c, 0, 82, 62
2, 118800, Note_on_c, 0, 87, 62
2, 118920, Note_on_c, 0, 87, 0
2, 118920, Note_on_c, 0, 82, 0
2, 118920, Note_on_c, 0, 78, 0
2, 118920, Note_on_c, 0, 78, 62
2, 118920, Note_on_c, 0, 82, 62
2, 118920, Note_on_c, 0, 87, 62
2, 119040, Note_on_c, 0, 87, 0
2, 119040, Note_on_c, 0, 82, 0
2, 119040, Note_on_c, 0, 78, 0
2, 119160, Note_on_c, 0, 78, 62
2, 119160, Note_on_c, 0, 82, 62
2, 119160, Note_on_c, 0, 87, 62
2, 119280, Note_on_c, 0, 87, 0
2, 119280, Note_on_c, 0, 82, 0
2, 119280, Note_on_c, 0, 78, 0
2, 119280, Note_on_c, 0, 78, 62
2, 119280, Note_on_c, 0, 82, 62
2, 119280, Note_on_c, 0, 87, 62
2, 119400, Note_on_c, 0, 87, 0
2, 119400, Note_on_c, 0, 82, 0
2, 119400, Note_on_c, 0, 78, 0
2, 119400, Note_on_c, 0, 78, 62
2, 119400, Note_on_c, 0, 82, 62
2, 119400, Note_on_c, 0, 87, 62
2, 119520, Note_on_c, 0, 87, 0
2, 119520, Note_on_c, 0, 82, 0
2, 119520, Note_on_c, 0, 78, 0
2, 119520, Note_on_c, 0, 80, 62
2, 119520, Note_on_c, 0, 82, 62
2, 119520, Note_on_c, 0, 89, 62
2, 119640, Note_on_c, 0, 89, 0
2, 119640, Note_on_c, 0, 82, 0
2, 119640, Note_on_c, 0, 80, 0
2, 119640, Note_on_c, 0, 80, 62
2, 119640, Note_on_c, 0, 82, 62
2, 119640, Note_on_c, 0, 89, 62
2, 119760, Note_on_c, 0, 89, 0
2, 119760, Note_on_c, 0, 82, 0
2, 119760, Note_on_c, 0, 80, 0
2, 119880, Note_on_c, 0, 80, 62
2, 119880, Note_on_c, 0, 82, 62
2, 119880, Note_on_c, 0, 89, 62
2, 120000, Note_on_c, 0, 89, 0
2, 120000, Note_on_c, 0, 82, 0
2, 120000, Note_on_c, 0, 80, 0
2, 120000, Note_on_c, 0, 80, 62
2, 120000, Note_on_c, 0, 82, 62
2, 120000, Note_on_c, 0, 89, 62
2, 120120, Note_on_c, 0, 89, 0
2, 120120, Note_on_c, 0, 82, 0
2, 120120, Note_on_c, 0, 80, 0
2, 120120, Note_on_c, 0, 80, 62
2, 120120, Note_on_c, 0, 82, 62
2, 120120, Note_on_c, 0, 89, 62
2, 120240, Note_on_c, 0, 89, 0
2, 120240, Note_on_c, 0, 82, 0
2, 120240, Note_on_c, 0, 80, 0
2, 120240, Note_on_c, 0, 80, 62
2, 120240, Note_on_c, 0, 82, 62
2, 120240, Note_on_c, 0, 89, 62
2, 120360, Note_on_c, 0, 89, 0
2, 120360, Note_on_c, 0, 82, 0
2, 120360, Note_on_c, 0, 80, 0
2, 120360, Note_on_c, 0, 80, 62
2, 120360, Note_on_c, 0, 82, 62
2, 120360, Note_on_c, 0, 89, 62
2, 120480, Note_on_c, 0, 89, 0
2, 120480, Note_on_c, 0, 82, 0
2, 120480, Note_on_c, 0, 80, 0
2, 120600, Note_on_c, 0, 80, 62
2, 120600, Note_on_c, 0, 82, 62
2, 120600, Note_on_c, 0, 89, 62
2, 120720, Note_on_c, 0, 89, 0
2, 120720, Note_on_c, 0, 82, 0
2, 120720, Note_on_c, 0, 80, 0
2, 120720, Note_on_c, 0, 80, 62
2, 120720, Note_on_c, 0, 82, 62
2, 120720, Note_on_c, 0, 89, 62
2, 120840, Note_on_c, 0, 89, 0
2, 120840, Note_on_c, 0, 82, 0
2, 120840, Note_on_c, 0, 80, 0
2, 120840, Note_on_c, 0, 80, 62
2, 120840, Note_on_c, 0, 82, 62
2, 120840, Note_on_c, 0, 89, 62
2, 120960, Note_on_c, 0, 89, 0
2, 120960, Note_on_c, 0, 82, 0
2, 120960, Note_on_c, 0, 80, 0
2, 120960, Note_on_c, 0, 78, 75
2, 120960, Note_on_c, 0, 82, 75
2, 120960, Note_on_c, 0, 88, 75
2, 120960, Note_on_c, 0, 90, 75
2, 121080, Note_on_c, 0, 90, 0
2, 121080, Note_on_c, 0, 78, 0
2, 121080, Note_on_c, 0, 82, 0
2, 121080, Note_on_c, 0, 88, 0
2, 121080, Note_on_c, 0, 78, 75
2, 121080, Note_on_c, 0, 82, 75
2, 121080, Note_on_c, 0, 88, 75
2, 121080, Note_on_c, 0, 90, 75
2, 121200, Note_on_c, 0, 90, 0
2, 121200, Note_on_c, 0, 78, 0
2, 121200, Note_on_c, 0, 82, 0
2, 121200, Note_on_c, 0, 88, 0
2, 121320, Note_on_c, 0, 78, 75
2, 121320, Note_on_c, 0, 82, 75
2, 121320, Note_on_c, 0, 88, 75
2, 121320, Note_on_c, 0, 90, 75
2, 121440, Note_on_c, 0, 90, 0
2, 121440, Note_on_c, 0, 78, 0
2, 121440, Note_on_c, 0, 82, 0
2, 121440, Note_on_c, 0, 88, 0
2, 121440, Note_on_c, 0, 78, 75
2, 121440, Note_on_c, 0, 82, 75
2, 121440, Note_on_c, 0, 88, 75
2, 121440, Note_on_c, 0, 90, 75
2, 121560, Note_on_c, 0, 90, 0
2, 121560, Note_on_c, 0, 78, 0
2, 121560, Note_on_c, 0, 82, 0
2, 121560, Note_on_c, 0, 88, 0
2, 121560, Note_on_c, 0, 78, 75
2, 121560, Note_on_c, 0, 82, 75
2, 121560, Note_on_c, 0, 88, 75
2, 121560, Note_on_c, 0, 90, 75
2, 121680, Note_on_c, 0, 90, 0
2, 121680, Note_on_c, 0, 78, 0
2, 121680, Note_on_c, 0, 82, 0
2, 121680, Note_on_c, 0, 88, 0
2, 121680, Note_on_c, 0, 78, 75
2, 121680, Note_on_c, 0, 82, 75
2, 121680, Note_on_c, 0, 88, 75
2, 121680, Note_on_c, 0, 90, 75
2, 121800, Note_on_c, 0, 90, 0
2, 121800, Note_on_c, 0, 78, 0
2, 121800, Note_on_c, 0, 82, 0
2, 121800, Note_on_c, 0, 88, 0
2, 121800, Note_on_c, 0, 78, 75
2, 121800, Note_on_c, 0, 82, 75
2, 121800, Note_on_c, 0, 88, 75
2, 121800, Note_on_c, 0, 90, 75
2, 121920, Note_on_c, 0, 90, 0
2, 121920, Note_on_c, 0, 78, 0
2, 121920, Note_on_c, 0, 82, 0
2, 121920, Note_on_c, 0, 88, 0
2, 122160, Note_on_c, 0, 78, 88
2, 122400, Note_on_c, 0, 78, 0
2, 122400, Note_on_c, 0, 83, 88
2, 122447, Note_on_c, 0, 83, 0
2, 122880, Note_on_c, 0, 78, 88
2, 123120, Note_on_c, 0, 78, 0
2, 123120, Note_on_c, 0, 80, 88
2, 123167, Note_on_c, 0, 80, 0
2, 123480, Note_on_c, 0, 75, 88
2, 123503, Note_on_c, 0, 75, 0
2, 123600, Note_on_c, 0, 78, 88
2, 123840, Note_on_c, 0, 78, 0
2, 123840, Note_on_c, 0, 80, 88
2, 123887, Note_on_c, 0, 80, 0
2, 124080, Control_c, 0, 64, 127
2, 124080, Note_on_c, 0, 66, 88
2, 124160, Note_on_c, 0, 66, 0
2, 124160, Note_on_c, 0, 68, 88
2, 124239, Note_on_c, 0, 68, 0
2, 124239, Note_on_c, 0, 70, 88
2, 124320, Note_on_c, 0, 70, 0
2, 124320, Note_on_c, 0, 71, 88
2, 124380, Note_on_c, 0, 71, 0
2, 124380, Note_on_c, 0, 73, 88
2, 124440, Note_on_c, 0, 73, 0
2, 124440, Note_on_c, 0, 75, 88
2, 124500, Note_on_c, 0, 75, 0
2, 124500, Note_on_c, 0, 76, 88
2, 124560, Note_on_c, 0, 76, 0
2, 124560, Control_c, 0, 64, 0
2, 124560, Note_on_c, 0, 78, 88
2, 124607, Note_on_c, 0, 78, 0
2, 124800, Control_c, 0, 64, 127
2, 124800, Note_on_c, 0, 71, 88
2, 124880, Note_on_c, 0, 71, 0
2, 124880, Note_on_c, 0, 73, 88
2, 124959, Note_on_c, 0, 73, 0
2, 124959, Note_on_c, 0, 75, 88
2, 125040, Note_on_c, 0, 75, 0
2, 125040, Note_on_c, 0, 76, 88
2, 125100, Note_on_c, 0, 76, 0
2, 125100, Note_on_c, 0, 78, 88
2, 125160, Note_on_c, 0, 78, 0
2, 125160, Note_on_c, 0, 80, 88
2, 125220, Note_on_c, 0, 80, 0
2, 125220, Note_on_c, 0, 82, 88
2, 125280, Note_on_c, 0, 82, 0
2, 125280, Control_c, 0, 64, 0
2, 125280, Note_on_c, 0, 83, 88
2, 125327, Note_on_c, 0, 83, 0
2, 125760, Note_on_c, 0, 78, 88
2, 126000, Note_on_c, 0, 78, 0
2, 126000, Note_on_c, 0, 80, 88
2, 126047, Note_on_c, 0, 80, 0
2, 126360, Note_on_c, 0, 75, 88
2, 126383, Note_on_c, 0, 75, 0
2, 126480, Note_on_c, 0, 78, 88
2, 126720, Note_on_c, 0, 78, 0
2, 126720, Note_on_c, 0, 80, 88
2, 126767, Note_on_c, 0, 80, 0
2, 126960, Control_c, 0, 64, 127
2, 126960, Note_on_c, 0, 66, 88
2, 127040, Note_on_c, 0, 66, 0
2, 127040, Note_on_c, 0, 68, 88
2, 127119, Note_on_c, 0, 68, 0
2, 127119, Note_on_c, 0, 70, 88
2, 127200, Note_on_c, 0, 70, 0
2, 127200, Note_on_c, 0, 71, 88
2, 127260, Note_on_c, 0, 71, 0
2, 127260, Note_on_c, 0, 73, 88
2, 127320, Note_on_c, 0, 73, 0
2, 127320, Note_on_c, 0, 75, 88
2, 127380, Note_on_c, 0, 75, 0
2, 127380, Note_on_c, 0, 76, 88
2, 127440, Note_on_c, 0, 76, 0
2, 127440, Control_c, 0, 64, 0
2, 127440, Note_on_c, 0, 78, 88
2, 127487, Note_on_c, 0, 78, 0
2, 127680, Control_c, 0, 64, 127
2, 127680, Note_on_c, 0, 71, 88
2, 127760, Note_on_c, 0, 71, 0
2, 127760, Note_on_c, 0, 73, 88
2, 127839, Note_on_c, 0, 73, 0
2, 127839, Note_on_c, 0, 75, 88
2, 127920, Note_on_c, 0, 75, 0
2, 127920, Note_on_c, 0, 76, 88
2, 127980, Note_on_c, 0, 76, 0
2, 127980, Note_on_c, 0, 78, 88
2, 128040, Note_on_c, 0, 78, 0
2, 128040, Note_on_c, 0, 80, 88
2, 128100, Note_on_c, 0, 80, 0
2, 128100, Note_on_c, 0, 82, 88
2, 128160, Note_on_c, 0, 82, 0
2, 128160, Control_c, 0, 64, 0
2, 128160, Note_on_c, 0, 83, 88
2, 128207, Note_on_c, 0, 83, 0
2, 128400, Control_c, 0, 64, 127
2, 128400, Note_on_c, 0, 71, 88
2, 128453, Note_on_c, 0, 71, 0
2, 128453, Note_on_c, 0, 73, 88
2, 128506, Note_on_c, 0, 73, 0
2, 128506, Note_on_c, 0, 75, 88
2, 128559, Note_on_c, 0, 75, 0
2, 128559, Note_on_c, 0, 76, 88
2, 128613, Note_on_c, 0, 76, 0
2, 128613, Note_on_c, 0, 78, 88
2, 128666, Note_on_c, 0, 78, 0
2, 128666, Note_on_c, 0, 80, 88
2, 128720, Note_on_c, 0, 80, 0
2, 128720, Note_on_c, 0, 82, 88
2, 128773, Note_on_c, 0, 82, 0
2, 128773, Note_on_c, 0, 83, 88
2, 128826, Note_on_c, 0, 83, 0
2, 128826, Note_on_c, 0, 85, 88
2, 128880, Note_on_c, 0, 85, 0
2, 128880, Control_c, 0, 64, 0
2, 128880, Note_on_c, 0, 87, 88
2, 128927, Note_on_c, 0, 87, 0
2, 129120, Control_c, 0, 64, 127
2, 129120, Note_on_c, 0, 75, 88
2, 129173, Note_on_c, 0, 75, 0
2, 129173, Note_on_c, 0, 76, 88
2, 129226, Note_on_c, 0, 76, 0
2, 129226, Note_on_c, 0, 78, 88
2, 129279, Note_on_c, 0, 78, 0
2, 129279, Note_on_c, 0, 80, 88
2, 129333, Note_on_c, 0, 80, 0
2, 129333, Note_on_c, 0, 82, 88
2, 129386, Note_on_c, 0, 82, 0
2, 129386, Note_on_c, 0, 83, 88
2, 129440, Note_on_c, 0, 83, 0
2, 129440, Note_on_c, 0, 85, 88
2, 129493, Note_on_c, 0, 85, 0
2, 129493, Note_on_c, 0, 87, 88
2, 129546, Note_on_c, 0, 87, 0
2, 129546, Note_on_c, 0, 88, 88
2, 129600, Note_on_c, 0, 88, 0
2, 129600, Control_c, 0, 64, 0
2, 129600, Note_on_c, 0, 90, 88
2, 129647, Note_on_c, 0, 90, 0
2, 129840, Note_on_c, 0, 87, 88
2, 129920, Note_on_c, 0, 87, 0
2, 129920, Note_on_c, 0, 89, 88
2, 129999, Note_on_c, 0, 89, 0
2, 129999, Note_on_c, 0, 90, 88
2, 130080, Note_on_c, 0, 90, 0
2, 130080, Note_on_c, 0, 90, 88
2, 130160, Note_on_c, 0, 90, 0
2, 130160, Note_on_c, 0, 92, 88
2, 130239, Note_on_c, 0, 92, 0
2, 130239, Note_on_c, 0, 93, 88
2, 130320, Note_on_c, 0, 93, 0
2, 130320, Note_on_c, 0, 93, 88
2, 130367, Note_on_c, 0, 93, 0
2, 130560, Note_on_c, 0, 93, 88
2, 130640, Note_on_c, 0, 93, 0
2, 130640, Note_on_c, 0, 92, 88
2, 130719, Note_on_c, 0, 92, 0
2, 130719, Note_on_c, 0, 90, 88
2, 130800, Note_on_c, 0, 90, 0
2, 130800, Note_on_c, 0, 90, 88
2, 130880, Note_on_c, 0, 90, 0
2, 130880, Note_on_c, 0, 88, 88
2, 130959, Note_on_c, 0, 88, 0
2, 130959, Note_on_c, 0, 87, 88
2, 131040, Note_on_c, 0, 87, 0
2, 131040, Note_on_c, 0, 65, 62
2, 131040, Note_on_c, 0, 68, 62
2, 131040, Note_on_c, 0, 73, 62
2, 131160, Note_on_c, 0, 73, 0
2, 131160, Note_on_c, 0, 68, 0
2, 131160, Note_on_c, 0, 65, 0
2, 131160, Note_on_c, 0, 65, 62
2, 131160, Note_on_c, 0, 68, 62
2, 131160, Note_on_c, 0, 73, 62
2, 131280, Note_on_c, 0, 73, 0
2, 131280, Note_on_c, 0, 68, 0
2, 131280, Note_on_c, 0, 65, 0
2, 131400, Note_on_c, 0, 65, 62
2, 131400, Note_on_c, 0, 68, 62
2, 131400, Note_on_c, 0, 73, 62
2, 131520, Note_on_c, 0, 73, 0
2, 131520, Note_on_c, 0, 68, 0
2, 131520, Note_on_c, 0, 65, 0
2, 131520, Note_on_c, 0, 65, 62
2, 131520, Note_on_c, 0, 68, 62
2, 131520, Note_on_c, 0, 73, 62
2, 131640, Note_on_c, 0, 73, 0
2, 131640, Note_on_c, 0, 68, 0
2, 131640, Note_on_c, 0, 65, 0
2, 131640, Note_on_c, 0, 65, 75
2, 131640, Note_on_c, 0, 68, 75
2, 131640, Note_on_c, 0, 73, 75
2, 131760, Note_on_c, 0, 73, 0
2, 131760, Note_on_c, 0, 68, 0
2, 131760, Note_on_c, 0, 65, 0
2, 131760, Note_on_c, 0, 66, 75
2, 131760, Note_on_c, 0, 68, 75
2, 131760, Note_on_c, 0, 75, 75
2, 131880, Note_on_c, 0, 75, 0
2, 131880, Note_on_c, 0, 68, 0
2, 131880, Note_on_c, 0, 66, 0
2, 131880, Note_on_c, 0, 66, 75
2, 131880, Note_on_c, 0, 68, 75
2, 131880, Note_on_c, 0, 75, 75
2, 132000, Note_on_c, 0, 75, 0
2, 132000, Note_on_c, 0, 68, 0
2, 132000, Note_on_c, 0, 66, 0
2, 132120, Note_on_c, 0, 66, 75
2, 132120, Note_on_c, 0, 68, 75
2, 132120, Note_on_c, 0, 75, 75
2, 132240, Note_on_c, 0, 75, 0
2, 132240, Note_on_c, 0, 68, 0
2, 132240, Note_on_c, 0, 66, 0
2, 132240, Note_on_c, 0, 66, 75
2, 132240, Note_on_c, 0, 68, 75
2, 132240, Note_on_c, 0, 75, 75
2, 132360, Note_on_c, 0, 75, 0
2, 132360, Note_on_c, 0, 68, 0
2, 132360, Note_on_c, 0, 66, 0
2, 132360, Note_on_c, 0, 66, 75
2, 132360, Note_on_c, 0, 68, 75
2, 132360, Note_on_c, 0, 75, 75
2, 132480, Note_on_c, 0, 75, 0
2, 132480, Note_on_c, 0, 68, 0
2, 132480, Note_on_c, 0, 66, 0
2, 132480, Note_on_c, 0, 68, 75
2, 132480, Note_on_c, 0, 73, 75
2, 132480, Note_on_c, 0, 77, 75
2, 132600, Note_on_c, 0, 77, 0
2, 132600, Note_on_c, 0, 73, 0
2, 132600, Note_on_c, 0, 68, 0
2, 132600, Note_on_c, 0, 68, 75
2, 132600, Note_on_c, 0, 73, 75
2, 132600, Note_on_c, 0, 77, 75
2, 132720, Note_on_c, 0, 77, 0
2, 132720, Note_on_c, 0, 73, 0
2, 132720, Note_on_c, 0, 68, 0
2, 132840, Note_on_c, 0, 68, 75
2, 132840, Note_on_c, 0, 73, 75
2, 132840, Note_on_c, 0, 77, 75
2, 132960, Note_on_c, 0, 77, 0
2, 132960, Note_on_c, 0, 73, 0
2, 132960, Note_on_c, 0, 68, 0
2, 132960, Note_on_c, 0, 68, 75
2, 132960, Note_on_c, 0, 73, 75
2, 132960, Note_on_c, 0, 77, 75
2, 133080, Note_on_c, 0, 77, 0
2, 133080, Note_on_c, 0, 73, 0
2, 133080, Note_on_c, 0, 68, 0
2, 133080, Note_on_c, 0, 68, 75
2, 133080, Note_on_c, 0, 73, 75
2, 133080, Note_on_c, 0, 77, 75
2, 133200, Note_on_c, 0, 77, 0
2, 133200, Note_on_c, 0, 73, 0
2, 133200, Note_on_c, 0, 68, 0
2, 133200, Note_on_c, 0, 66, 75
2, 133200, Note_on_c, 0, 73, 75
2, 133200, Note_on_c, 0, 75, 75
2, 133200, Note_on_c, 0, 78, 75
2, 133320, Note_on_c, 0, 78, 0
2, 133320, Note_on_c, 0, 66, 0
2, 133320, Note_on_c, 0, 73, 0
2, 133320, Note_on_c, 0, 75, 0
2, 133320, Note_on_c, 0, 66, 75
2, 133320, Note_on_c, 0, 73, 75
2, 133320, Note_on_c, 0, 75, 75
2, 133320, Note_on_c, 0, 78, 75
2, 133440, Note_on_c, 0, 78, 0
2, 133440, Note_on_c, 0, 66, 0
2, 133440, Note_on_c, 0, 73, 0
2, 133440, Note_on_c, 0, 75, 0
2, 133560, Note_on_c, 0, 66, 75
2, 133560, Note_on_c, 0, 73, 75
2, 133560, Note_on_c, 0, 75, 75
2, 133560, Note_on_c, 0, 78, 75
2, 133680, Note_on_c, 0, 78, 0
2, 133680, Note_on_c, 0, 66, 0
2, 133680, Note_on_c, 0, 73, 0
2, 133680, Note_on_c, 0, 75, 0
2, 133680, Note_on_c, 0, 66, 75
2, 133680, Note_on_c, 0, 73, 75
2, 133680, Note_on_c, 0, 75, 75
2, 133680, Note_on_c, 0, 78, 75
2, 133800, Note_on_c, 0, 78, 0
2, 133800, Note_on_c, 0, 66, 0
2, 133800, Note_on_c, 0, 73, 0
2, 133800, Note_on_c, 0, 75, 0
2, 133800, Note_on_c, 0, 66, 75
2, 133800, Note_on_c, 0, 73, 75
2, 133800, Note_on_c, 0, 75, 75
2, 133800, Note_on_c, 0, 78, 75
2, 133920, Note_on_c, 0, 78, 0
2, 133920, Note_on_c, 0, 66, 0
2, 133920, Note_on_c, 0, 73, 0
2, 133920, Note_on_c, 0, 75, 0
2, 133920, Note_on_c, 0, 68, 75
2, 133920, Note_on_c, 0, 73, 75
2, 133920, Note_on_c, 0, 77, 75
2, 133920, Note_on_c, 0, 80, 75
2, 134040, Note_on_c, 0, 80, 0
2, 134040, Note_on_c, 0, 68, 0
2, 134040, Note_on_c, 0, 73, 0
2, 134040, Note_on_c, 0, 77, 0
2, 134040, Note_on_c, 0, 68, 75
2, 134040, Note_on_c, 0, 73, 75
2, 134040, Note_on_c, 0, 77, 75
2, 134040, Note_on_c, 0, 80, 75
2, 134160, Note_on_c, 0, 80, 0
2, 134160, Note_on_c, 0, 68, 0
2, 134160, Note_on_c, 0, 73, 0
2, 134160, Note_on_c, 0, 77, 0
2, 134280, Note_on_c, 0, 68, 75
2, 134280, Note_on_c, 0, 73, 75
2, 134280, Note_on_c, 0, 77, 75
2, 134280, Note_on_c, 0, 80, 75
2, 134400, Note_on_c, 0, 80, 0
2, 134400, Note_on_c, 0, 68, 0
2, 134400, Note_on_c, 0, 73, 0
2, 134400, Note_on_c, 0, 77, 0
2, 134400, Note_on_c, 0, 68, 75
2, 134400, Note_on_c, 0, 73, 75
2, 134400, Note_on_c, 0, 77, 75
2, 134400, Note_on_c, 0, 80, 75
2, 134520, Note_on_c, 0, 80, 0
2, 134520, Note_on_c, 0, 68, 0
2, 134520, Note_on_c, 0, 73, 0
2, 134520, Note_on_c, 0, 77, 0
2, 134520, Note_on_c, 0, 68, 75
2, 134520, Note_on_c, 0, 73, 75
2, 134520, Note_on_c, 0, 77, 75
2, 134520, Note_on_c, 0, 80, 75
2, 134640, Note_on_c, 0, 80, 0
2, 134640, Note_on_c, 0, 68, 0
2, 134640, Note_on_c, 0, 73, 0
2, 134640, Note_on_c, 0, 77, 0
2, 134640, Note_on_c, 0, 70, 75
2, 134640, Note_on_c, 0, 73, 75
2, 134640, Note_on_c, 0, 78, 75
2, 134640, Note_on_c, 0, 82, 75
2, 134760, Note_on_c, 0, 82, 0
2, 134760, Note_on_c, 0, 70, 0
2, 134760, Note_on_c, 0, 73, 0
2, 134760, Note_on_c, 0, 78, 0
2, 134760, Note_on_c, 0, 70, 75
2, 134760, Note_on_c, 0, 73, 75
2, 134760, Note_on_c, 0, 78, 75
2, 134760, Note_on_c, 0, 82, 75
2, 134880, Note_on_c, 0, 82, 0
2, 134880, Note_on_c, 0, 70, 0
2, 134880, Note_on_c, 0, 73, 0
2, 134880, Note_on_c, 0, 78, 0
2, 135000, Note_on_c, 0, 70, 75
2, 135000, Note_on_c, 0, 73, 75
2, 135000, Note_on_c, 0, 78, 75
2, 135000, Note_on_c, 0, 82, 75
2, 135120, Note_on_c, 0, 82, 0
2, 135120, Note_on_c, 0, 70, 0
2, 135120, Note_on_c, 0, 73, 0
2, 135120, Note_on_c, 0, 78, 0
2, 135120, Note_on_c, 0, 70, 75
2, 135120, Note_on_c, 0, 73, 75
2, 135120, Note_on_c, 0, 78, 75
2, 135120, Note_on_c, 0, 82, 75
2, 135240, Note_on_c, 0, 82, 0
2, 135240, Note_on_c, 0, 70, 0
2, 135240, Note_on_c, 0, 73, 0
2, 135240, Note_on_c, 0, 78, 0
2, 135240, Note_on_c, 0, 70, 75
2, 135240, Note_on_c, 0, 73, 75
2, 135240, Note_on_c, 0, 78, 75
2, 135240, Note_on_c, 0, 82, 75
2, 135360, Note_on_c, 0, 82, 0
2, 135360, Note_on_c, 0, 70, 0
2, 135360, Note_on_c, 0, 73, 0
2, 135360, Note_on_c, 0, 78, 0
2, 135360, Note_on_c, 0, 71, 75
2, 135360, Note_on_c, 0, 75, 75
2, 135360, Note_on_c, 0, 80, 75
2, 135360, Note_on_c, 0, 83, 75
2, 135480, Note_on_c, 0, 83, 0
2, 135480, Note_on_c, 0, 71, 0
2, 135480, Note_on_c, 0, 75, 0
2, 135480, Note_on_c, 0, 80, 0
2, 135480, Note_on_c, 0, 71, 75
2, 135480, Note_on_c, 0, 75, 75
2, 135480, Note_on_c, 0, 80, 75
2, 135480, Note_on_c, 0, 83, 75
2, 135600, Note_on_c, 0, 83, 0
2, 135600, Note_on_c, 0, 71, 0
2, 135600, Note_on_c, 0, 75, 0
2, 135600, Note_on_c, 0, 80, 0
2, 135720, Note_on_c, 0, 71, 75
2, 135720, Note_on_c, 0, 75, 75
2, 135720, Note_on_c, 0, 80, 75
2, 135720, Note_on_c, 0, 83, 75
2, 135840, Note_on_c, 0, 83, 0
2, 135840, Note_on_c, 0, 71, 0
2, 135840, Note_on_c, 0, 75, 0
2, 135840, Note_on_c, 0, 80, 0
2, 135840, Note_on_c, 0, 72, 75
2, 135840, Note_on_c, 0, 78, 75
2, 135840, Note_on_c, 0, 80, 75
2, 135840, Note_on_c, 0, 84, 75
2, 135960, Note_on_c, 0, 84, 0
2, 135960, Note_on_c, 0, 72, 0
2, 135960, Note_on_c, 0, 78, 0
2, 135960, Note_on_c, 0, 80, 0
2, 135960, Note_on_c, 0, 72, 75
2, 135960, Note_on_c, 0, 78, 75
2, 135960, Note_on_c, 0, 80, 75
2, 135960, Note_on_c, 0, 84, 75
2, 136080, Note_on_c, 0, 84, 0
2, 136080, Note_on_c, 0, 72, 0
2, 136080, Note_on_c, 0, 78, 0
2, 136080, Note_on_c, 0, 80, 0
2, 136080, Note_on_c, 0, 73, 75
2, 136080, Note_on_c, 0, 77, 75
2, 136080, Note_on_c, 0, 80, 75
2, 136080, Note_on_c, 0, 85, 75
2, 136320, Note_on_c, 0, 85, 0
2, 136320, Note_on_c, 0, 73, 0
2, 136320, Note_on_c, 0, 77, 0
2, 136320, Note_on_c, 0, 80, 0
2, 136560, Note_on_c, 0, 63, 62
2, 136800, Note_on_c, 0, 63, 0
2, 136800, Note_on_c, 0, 61, 62
2, 137040, Note_on_c, 0, 61, 0
2, 137040, Note_on_c, 0, 71, 62
2, 137280, Note_on_c, 0, 71, 0
2, 137280, Note_on_c, 0, 68, 62
2, 137520, Note_on_c, 0, 68, 0
2, 137520, Note_on_c, 0, 65, 62
2, 137760, Note_on_c, 0, 65, 0
2, 137760, Note_on_c, 0, 61, 62
2, 138000, Note_on_c, 0, 61, 0
2, 138000, Note_on_c, 0, 59, 62
2, 138240, Note_on_c, 0, 59, 0
2, 138240, Note_on_c, 0, 56, 62
2, 138480, Note_on_c, 0, 56, 0
2, 138480, Control_c, 0, 64, 127
2, 138480, Note_on_c, 0, 53, 62
2, 138720, Note_on_c, 0, 53, 0
2, 138720, Note_on_c, 0, 54, 62
2, 138960, Note_on_c, 0, 54, 0
2, 138960, Note_on_c, 0, 55, 62
2, 139200, Note_on_c, 0, 55, 0
2, 139200, Note_on_c, 0, 56, 62
2, 139440, Note_on_c, 0, 56, 0
2, 139440, Control_c, 0, 64, 0
2, 139440, Note_on_c, 0, 56, 62
2, 139680, Note_on_c, 0, 56, 0
2, 140880, Note_on_c, 0, 82, 75
2, 141600, Note_on_c, 0, 82, 0
2, 141600, Note_on_c, 0, 83, 75
2, 142800, Note_on_c, 0, 83, 0
2, 142800, Note_on_c, 0, 83, 75
2, 143040, Note_on_c, 0, 83, 0
2, 143040, Note_on_c, 0, 84, 75
2, 143400, Note_on_c, 0, 84, 0
2, 143400, Note_on_c, 0, 85, 75
2, 143760, Note_on_c, 0, 85, 0
2, 143760, Note_on_c, 0, 73, 75
2, 143760, Note_on_c, 0, 83, 75
2, 144240, Note_on_c, 0, 83, 0
2, 144240, Note_on_c, 0, 73, 0
2, 144240, Note_on_c, 0, 82, 75
2, 144480, Note_on_c, 0, 82, 0
2, 144480, Note_on_c, 0, 82, 75
2, 145200, Note_on_c, 0, 82, 0
2, 145200, Note_on_c, 0, 80, 75
2, 145920, Note_on_c, 0, 80, 0
2, 145920, Note_on_c, 0, 78, 75
2, 146400, Note_on_c, 0, 78, 0
2, 148560, Note_on_c, 0, 87, 75
2, 148800, Note_on_c, 0, 87, 0
2, 148800, Note_on_c, 0, 87, 75
2, 149280, Note_on_c, 0, 87, 0
2, 149280, Note_on_c, 0, 85, 75
2, 149520, Note_on_c, 0, 85, 0
2, 149520, Note_on_c, 0, 83, 75
2, 150000, Note_on_c, 0, 83, 0
2, 150000, Note_on_c, 0, 77, 75
2, 150240, Note_on_c, 0, 77, 0
2, 150240, Note_on_c, 0, 79, 75
2, 151200, Note_on_c, 0, 79, 0
2, 151920, Note_on_c, 0, 87, 75
2, 152400, Note_on_c, 0, 87, 0
2, 152400, Note_on_c, 0, 87, 75
2, 152880, Note_on_c, 0, 87, 0
2, 152880, Note_on_c, 0, 87, 75
2, 153120, Note_on_c, 0, 87, 0
2, 153120, Note_on_c, 0, 85, 75
2, 153360, Note_on_c, 0, 85, 0
2, 153360, Note_on_c, 0, 83, 75
2, 153600, Note_on_c, 0, 83, 0
2, 153600, Note_on_c, 0, 82, 75
2, 153840, Note_on_c, 0, 82, 0
2, 153840, Note_on_c, 0, 82, 75
2, 154080, Note_on_c, 0, 82, 0
2, 154080, Note_on_c, 0, 80, 75
2, 154320, Note_on_c, 0, 80, 0
2, 154320, Note_on_c, 0, 79, 75
2, 154560, Note_on_c, 0, 79, 0
2, 154800, Note_on_c, 0, 88, 101
2, 155280, Note_on_c, 0, 88, 0
2, 155280, Note_on_c, 0, 88, 101
2, 155760, Note_on_c, 0, 88, 0
2, 155760, Note_on_c, 0, 88, 101
2, 156000, Note_on_c, 0, 88, 0
2, 156000, Note_on_c, 0, 87, 75
2, 156240, Note_on_c, 0, 87, 0
2, 156240, Note_on_c, 0, 85, 75
2, 156480, Note_on_c, 0, 85, 0
2, 156480, Note_on_c, 0, 84, 75
2, 156720, Note_on_c, 0, 84, 0
2, 156720, Note_on_c, 0, 84, 75
2, 156960, Note_on_c, 0, 84, 0
2, 156960, Note_on_c, 0, 82, 75
2, 157200, Note_on_c, 0, 82, 0
2, 157200, Note_on_c, 0, 81, 75
2, 157440, Note_on_c, 0, 81, 0
2, 157680, Note_on_c, 0, 90, 101
2, 158160, Note_on_c, 0, 90, 0
2, 158160, Note_on_c, 0, 90, 101
2, 158640, Note_on_c, 0, 90, 0
2, 158640, Note_on_c, 0, 90, 101
2, 158880, Note_on_c, 0, 90, 0
2, 158880, Note_on_c, 0, 89, 75
2, 159120, Note_on_c, 0, 89, 0
2, 159120, Note_on_c, 0, 77, 75
2, 159360, Note_on_c, 0, 77, 0
2, 159360, Note_on_c, 0, 89, 75
2, 159600, Note_on_c, 0, 89, 0
2, 159600, Note_on_c, 0, 87, 75
2, 159840, Note_on_c, 0, 87, 0
2, 159840, Note_on_c, 0, 75, 75
2, 160080, Note_on_c, 0, 75, 0
2, 160080, Note_on_c, 0, 87, 75
2, 160320, Note_on_c, 0, 87, 0
2, 160320, Note_on_c, 0, 86, 75
2, 160560, Note_on_c, 0, 86, 0
2, 160560, Note_on_c, 0, 82, 75
2, 160800, Note_on_c, 0, 82, 0
2, 160800, Note_on_c, 0, 86, 75
2, 160847, Note_on_c, 0, 86, 0
2, 161040, Note_on_c, 0, 86, 75
2, 161280, Note_on_c, 0, 86, 0
2, 161280, Note_on_c, 0, 85, 75
2, 161520, Note_on_c, 0, 85, 0
2, 161520, Note_on_c, 0, 86, 75
2, 161760, Note_on_c, 0, 86, 0
2, 161760, Note_on_c, 0, 90, 75
2, 162000, Note_on_c, 0, 90, 0
2, 162000, Control_c, 0, 64, 127
2, 162000, Note_on_c, 0, 63, 75
2, 162240, Note_on_c, 0, 63, 0
2, 162240, Note_on_c, 0, 65, 75
2, 162480, Note_on_c, 0, 65, 0
2, 162480, Note_on_c, 0, 66, 75
2, 162720, Note_on_c, 0, 66, 0
2, 162720, Note_on_c, 0, 68, 75
2, 162960, Note_on_c, 0, 68, 0
2, 162960, Note_on_c, 0, 70, 75
2, 163200, Note_on_c, 0, 70, 0
2, 163200, Control_c, 0, 64, 0
2, 163200, Note_on_c, 0, 71, 75
2, 163440, Note_on_c, 0, 71, 0
2, 163680, Note_on_c, 0, 75, 75
2, 163920, Note_on_c, 0, 75, 0
2, 163920, Note_on_c, 0, 80, 75
2, 164160, Note_on_c, 0, 80, 0
2, 164160, Note_on_c, 0, 78, 75
2, 164400, Note_on_c, 0, 78, 0
2, 164400, Note_on_c, 0, 77, 75
2, 164640, Note_on_c, 0, 77, 0
2, 164640, Note_on_c, 0, 75, 75
2, 165120, Note_on_c, 0, 75, 0
2, 165120, Note_on_c, 0, 77, 75
2, 165360, Note_on_c, 0, 77, 0
2, 165360, Note_on_c, 0, 78, 75
2, 165600, Note_on_c, 0, 78, 0
2, 165840, Note_on_c, 0, 75, 75
2, 166080, Note_on_c, 0, 75, 0
2, 166080, Note_on_c, 0, 82, 75
2, 166320, Note_on_c, 0, 82, 0
2, 166320, Control_c, 0, 64, 127
2, 166320, Note_on_c, 0, 82, 75
2, 166560, Note_on_c, 0, 82, 0
2, 166560, Note_on_c, 0, 83, 75
2, 166800, Note_on_c, 0, 83, 0
2, 166800, Note_on_c, 0, 84, 75
2, 167040, Note_on_c, 0, 84, 0
2, 167040, Note_on_c, 0, 85, 75
2, 167280, Note_on_c, 0, 85, 0
2, 167280, Control_c, 0, 64, 0
2, 167280, Note_on_c, 0, 86, 75
2, 167520, Note_on_c, 0, 86, 0
2, 167520, Note_on_c, 0, 87, 75
2, 167760, Note_on_c, 0, 87, 0
2, 167760, Note_on_c, 0, 75, 75
2, 168000, Note_on_c, 0, 75, 0
2, 168000, Note_on_c, 0, 77, 75
2, 168240, Note_on_c, 0, 77, 0
2, 168240, Note_on_c, 0, 78, 75
2, 168480, Note_on_c, 0, 78, 0
2, 168960, Control_c, 0, 64, 127
2, 168960, Note_on_c, 0, 87, 62
2, 169020, Note_on_c, 0, 87, 0
2, 169020, Note_on_c, 0, 89, 62
2, 169080, Note_on_c, 0, 89, 0
2, 169080, Note_on_c, 0, 87, 62
2, 169140, Note_on_c, 0, 87, 0
2, 169140, Note_on_c, 0, 89, 62
2, 169200, Note_on_c, 0, 89, 0
2, 169200, Note_on_c, 0, 87, 62
2, 169260, Note_on_c, 0, 87, 0
2, 169260, Note_on_c, 0, 89, 62
2, 169320, Note_on_c, 0, 89, 0
2, 169320, Note_on_c, 0, 87, 62
2, 169380, Note_on_c, 0, 87, 0
2, 169380, Note_on_c, 0, 89, 62
2, 169440, Note_on_c, 0, 89, 0
2, 169440, Note_on_c, 0, 87, 62
2, 169500, Note_on_c, 0, 87, 0
2, 169500, Note_on_c, 0, 89, 62
2, 169560, Note_on_c, 0, 89, 0
2, 169560, Note_on_c, 0, 87, 62
2, 169620, Note_on_c, 0, 87, 0
2, 169620, Note_on_c, 0, 89, 62
2, 169680, Note_on_c, 0, 89, 0
2, 169680, Note_on_c, 0, 87, 62
2, 169740, Note_on_c, 0, 87, 0
2, 169740, Note_on_c, 0, 89, 62
2, 169800, Note_on_c, 0, 89, 0
2, 169800, Note_on_c, 0, 87, 62
2, 169860, Note_on_c, 0, 87, 0
2, 169860, Note_on_c, 0, 89, 62
2, 169920, Note_on_c, 0, 89, 0
2, 169920, Note_on_c, 0, 87, 62
2, 169980, Note_on_c, 0, 87, 0
2, 169980, Note_on_c, 0, 89, 62
2, 170040, Note_on_c, 0, 89, 0
2, 170040, Note_on_c, 0, 87, 62
2, 170100, Note_on_c, 0, 87, 0
2, 170100, Note_on_c, 0, 89, 62
2, 170160, Note_on_c, 0, 89, 0
2, 170160, Note_on_c, 0, 87, 62
2, 170220, Note_on_c, 0, 87, 0
2, 170220, Note_on_c, 0, 89, 62
2, 170280, Note_on_c, 0, 89, 0
2, 170280, Note_on_c, 0, 87, 62
2, 170340, Note_on_c, 0, 87, 0
2, 170340, Note_on_c, 0, 89, 62
2, 170400, Note_on_c, 0, 89, 0
2, 170400, Note_on_c, 0, 87, 62
2, 170460, Note_on_c, 0, 87, 0
2, 170460, Note_on_c, 0, 89, 62
2, 170520, Note_on_c, 0, 89, 0
2, 170520, Note_on_c, 0, 87, 62
2, 170580, Note_on_c, 0, 87, 0
2, 170580, Note_on_c, 0, 89, 62
2, 170640, Note_on_c, 0, 89, 0
2, 170640, Note_on_c, 0, 87, 62
2, 170700, Note_on_c, 0, 87, 0
2, 170700, Note_on_c, 0, 89, 62
2, 170760, Note_on_c, 0, 89, 0
2, 170760, Note_on_c, 0, 87, 62
2, 170820, Note_on_c, 0, 87, 0
2, 170820, Note_on_c, 0, 89, 62
2, 170880, Note_on_c, 0, 89, 0
2, 170880, Note_on_c, 0, 87, 62
2, 170940, Note_on_c, 0, 87, 0
2, 170940, Note_on_c, 0, 89, 62
2, 171000, Note_on_c, 0, 89, 0
2, 171000, Note_on_c, 0, 87, 62
2, 171060, Note_on_c, 0, 87, 0
2, 171060, Note_on_c, 0, 89, 62
2, 171120, Note_on_c, 0, 89, 0
2, 171120, Note_on_c, 0, 87, 62
2, 171180, Note_on_c, 0, 87, 0
2, 171180, Note_on_c, 0, 89, 62
2, 171240, Note_on_c, 0, 89, 0
2, 171240, Note_on_c, 0, 87, 62
2, 171300, Note_on_c, 0, 87, 0
2, 171300, Note_on_c, 0, 89, 62
2, 171360, Note_on_c, 0, 89, 0
2, 171360, Note_on_c, 0, 87, 62
2, 171420, Note_on_c, 0, 87, 0
2, 171420, Note_on_c, 0, 89, 62
2, 171480, Note_on_c, 0, 89, 0
2, 171480, Note_on_c, 0, 87, 62
2, 171540, Note_on_c, 0, 87, 0
2, 171540, Note_on_c, 0, 89, 62
2, 171600, Note_on_c, 0, 89, 0
2, 171600, Note_on_c, 0, 87, 62
2, 171660, Note_on_c, 0, 87, 0
2, 171660, Note_on_c, 0, 89, 62
2, 171720, Note_on_c, 0, 89, 0
2, 171720, Note_on_c, 0, 86, 62
2, 171780, Note_on_c, 0, 86, 0
2, 171780, Control_c, 0, 64, 0
2, 171780, Note_on_c, 0, 87, 62
2, 171840, Note_on_c, 0, 87, 0
2, 171840, Control_c, 0, 64, 127
2, 171840, Note_on_c, 0, 86, 62
2, 171960, Note_on_c, 0, 86, 0
2, 171960, Note_on_c, 0, 89, 62
2, 172080, Note_on_c, 0, 89, 0
2, 172080, Note_on_c, 0, 86, 62
2, 172200, Note_on_c, 0, 86, 0
2, 172200, Note_on_c, 0, 83, 62
2, 172320, Note_on_c, 0, 83, 0
2, 172320, Note_on_c, 0, 80, 62
2, 172440, Note_on_c, 0, 80, 0
2, 172440, Control_c, 0, 64, 0
2, 172440, Note_on_c, 0, 77, 62
2, 172560, Note_on_c, 0, 77, 0
2, 172560, Control_c, 0, 64, 127
2, 172560, Note_on_c, 0, 74, 62
2, 172680, Note_on_c, 0, 74, 0
2, 172680, Note_on_c, 0, 80, 62
2, 172800, Note_on_c, 0, 80, 0
2, 172800, Note_on_c, 0, 77, 62
2, 172920, Note_on_c, 0, 77, 0
2, 172920, Note_on_c, 0, 74, 62
2, 173160, Note_on_c, 0, 74, 0
2, 173160, Control_c, 0, 64, 0
2, 173160, Note_on_c, 0, 74, 62
2, 173280, Note_on_c, 0, 74, 0
2, 173280, Note_on_c, 0, 75, 62
2, 173520, Note_on_c, 0, 75, 0
2, 173520, Note_on_c, 0, 67, 62
2, 173760, Note_on_c, 0, 67, 0
2, 173760, Note_on_c, 0, 68, 62
2, 174000, Note_on_c, 0, 68, 0
2, 174000, Note_on_c, 0, 70, 62
2, 174047, Note_on_c, 0, 70, 0
2, 174240, Note_on_c, 0, 72, 62
2, 174287, Note_on_c, 0, 72, 0
2, 174480, Note_on_c, 0, 67, 62
2, 174720, Note_on_c, 0, 67, 0
2, 174720, Note_on_c, 0, 70, 62
2, 174840, Note_on_c, 0, 70, 0
2, 174840, Note_on_c, 0, 68, 62
2, 174960, Note_on_c, 0, 68, 0
2, 174960, Note_on_c, 0, 67, 62
2, 174983, Note_on_c, 0, 67, 0
2, 175080, Note_on_c, 0, 68, 62
2, 175103, Note_on_c, 0, 68, 0
2, 175200, Note_on_c, 0, 67, 62
2, 175247, Note_on_c, 0, 67, 0
2, 175440, Note_on_c, 0, 65, 62
2, 175680, Note_on_c, 0, 65, 0
2, 175680, Note_on_c, 0, 67, 62
2, 175920, Note_on_c, 0, 67, 0
2, 175920, Note_on_c, 0, 65, 62
2, 176160, Note_on_c, 0, 65, 0
2, 176160, Note_on_c, 0, 67, 62
2, 176400, Note_on_c, 0, 67, 0
2, 176400, Note_on_c, 0, 65, 62
2, 176640, Note_on_c, 0, 65, 0
2, 176640, Note_on_c, 0, 67, 62
2, 176760, Note_on_c, 0, 67, 0
2, 176760, Note_on_c, 0, 60, 62
2, 176880, Note_on_c, 0, 60, 0
2, 176880, Note_on_c, 0, 61, 62
2, 176903, Note_on_c, 0, 61, 0
2, 177000, Note_on_c, 0, 62, 62
2, 177023, Note_on_c, 0, 62, 0
2, 177120, Note_on_c, 0, 65, 62
2, 177360, Note_on_c, 0, 65, 0
2, 177360, Note_on_c, 0, 79, 62
2, 177600, Note_on_c, 0, 79, 0
2, 177600, Note_on_c, 0, 80, 62
2, 177840, Note_on_c, 0, 80, 0
2, 177840, Note_on_c, 0, 82, 62
2, 177887, Note_on_c, 0, 82, 0
2, 178080, Note_on_c, 0, 84, 62
2, 178127, Note_on_c, 0, 84, 0
2, 178320, Note_on_c, 0, 79, 62
2, 178367, Note_on_c, 0, 79, 0
2, 178560, Note_on_c, 0, 82, 62
2, 178680, Note_on_c, 0, 82, 0
2, 178680, Note_on_c, 0, 80, 62
2, 178800, Note_on_c, 0, 80, 0
2, 178800, Note_on_c, 0, 79, 62
2, 178823, Note_on_c, 0, 79, 0
2, 178920, Note_on_c, 0, 80, 62
2, 178943, Note_on_c, 0, 80, 0
2, 179040, Note_on_c, 0, 79, 62
2, 179087, Note_on_c, 0, 79, 0
2, 179280, Note_on_c, 0, 77, 62
2, 179520, Note_on_c, 0, 77, 0
2, 179520, Note_on_c, 0, 79, 62
2, 179760, Note_on_c, 0, 79, 0
2, 179760, Note_on_c, 0, 77, 62
2, 180000, Note_on_c, 0, 77, 0
2, 180000, Note_on_c, 0, 79, 62
2, 180240, Note_on_c, 0, 79, 0
2, 180240, Note_on_c, 0, 77, 62
2, 180480, Note_on_c, 0, 77, 0
2, 180480, Note_on_c, 0, 79, 62
2, 180600, Note_on_c, 0, 79, 0
2, 180600, Note_on_c, 0, 72, 62
2, 180623, Note_on_c, 0, 72, 0
2, 180720, Note_on_c, 0, 73, 62
2, 180743, Note_on_c, 0, 73, 0
2, 180840, Note_on_c, 0, 74, 62
2, 180863, Note_on_c, 0, 74, 0
2, 180960, Note_on_c, 0, 77, 62
2, 181200, Note_on_c, 0, 77, 0
2, 181200, Note_on_c, 0, 67, 62
2, 181200, Note_on_c, 0, 75, 62
2, 181440, Note_on_c, 0, 75, 0
2, 181440, Note_on_c, 0, 67, 0
2, 181440, Note_on_c, 0, 68, 62
2, 181680, Note_on_c, 0, 68, 0
2, 181680, Note_on_c, 0, 70, 62
2, 181727, Note_on_c, 0, 70, 0
2, 181920, Note_on_c, 0, 73, 62
2, 182160, Note_on_c, 0, 73, 0
2, 182160, Note_on_c, 0, 67, 62
2, 182207, Note_on_c, 0, 67, 0
2, 182400, Note_on_c, 0, 73, 62
2, 182520, Note_on_c, 0, 73, 0
2, 182520, Note_on_c, 0, 72, 62
2, 182640, Note_on_c, 0, 72, 0
2, 182640, Note_on_c, 0, 70, 62
2, 182663, Note_on_c, 0, 70, 0
2, 182760, Note_on_c, 0, 72, 62
2, 182783, Note_on_c, 0, 72, 0
2, 182880, Note_on_c, 0, 70, 62
2, 182927, Note_on_c, 0, 70, 0
2, 183120, Note_on_c, 0, 68, 62
2, 183360, Note_on_c, 0, 68, 0
2, 183360, Note_on_c, 0, 70, 62
2, 183600, Note_on_c, 0, 70, 0
2, 183600, Note_on_c, 0, 68, 62
2, 183840, Note_on_c, 0, 68, 0
2, 183840, Note_on_c, 0, 70, 62
2, 184080, Note_on_c, 0, 70, 0
2, 184080, Note_on_c, 0, 68, 62
2, 184320, Note_on_c, 0, 68, 0
2, 184320, Note_on_c, 0, 70, 62
2, 184440, Note_on_c, 0, 70, 0
2, 184440, Note_on_c, 0, 62, 62
2, 184463, Note_on_c, 0, 62, 0
2, 184560, Note_on_c, 0, 63, 62
2, 184583, Note_on_c, 0, 63, 0
2, 184680, Note_on_c, 0, 64, 62
2, 184703, Note_on_c, 0, 64, 0
2, 184800, Note_on_c, 0, 67, 62
2, 185040, Note_on_c, 0, 67, 0
2, 185040, Note_on_c, 0, 80, 62
2, 185280, Note_on_c, 0, 80, 0
2, 185280, Note_on_c, 0, 82, 62
2, 185520, Note_on_c, 0, 82, 0
2, 185520, Note_on_c, 0, 84, 62
2, 185567, Note_on_c, 0, 84, 0
2, 185760, Note_on_c, 0, 85, 62
2, 186000, Note_on_c, 0, 85, 0
2, 186000, Note_on_c, 0, 79, 62
2, 186047, Note_on_c, 0, 79, 0
2, 186240, Note_on_c, 0, 85, 62
2, 186360, Note_on_c, 0, 85, 0
2, 186360, Note_on_c, 0, 84, 62
2, 186480, Note_on_c, 0, 84, 0
2, 186480, Note_on_c, 0, 82, 62
2, 186503, Note_on_c, 0, 82, 0
2, 186600, Note_on_c, 0, 84, 62
2, 186623, Note_on_c, 0, 84, 0
2, 186720, Note_on_c, 0, 82, 62
2, 186767, Note_on_c, 0, 82, 0
2, 186960, Note_on_c, 0, 80, 62
2, 187200, Note_on_c, 0, 80, 0
2, 187200, Note_on_c, 0, 82, 62
2, 187440, Note_on_c, 0, 82, 0
2, 187440, Note_on_c, 0, 80, 62
2, 187680, Note_on_c, 0, 80, 0
2, 187680, Note_on_c, 0, 82, 62
2, 187920, Note_on_c, 0, 82, 0
2, 187920, Note_on_c, 0, 80, 62
2, 188160, Note_on_c, 0, 80, 0
2, 188160, Note_on_c, 0, 82, 62
2, 188280, Note_on_c, 0, 82, 0
2, 188280, Note_on_c, 0, 74, 62
2, 188303, Note_on_c, 0, 74, 0
2, 188400, Note_on_c, 0, 75, 62
2, 188423, Note_on_c, 0, 75, 0
2, 188520, Note_on_c, 0, 76, 62
2, 188543, Note_on_c, 0, 76, 0
2, 188640, Note_on_c, 0, 77, 62
2, 188687, Note_on_c, 0, 77, 0
2, 188880, Note_on_c, 0, 68, 75
2, 189120, Note_on_c, 0, 68, 0
2, 189120, Note_on_c, 0, 70, 75
2, 189360, Note_on_c, 0, 70, 0
2, 189360, Note_on_c, 0, 72, 75
2, 189600, Note_on_c, 0, 72, 0
2, 189600, Note_on_c, 0, 75, 75
2, 189840, Note_on_c, 0, 75, 0
2, 189840, Note_on_c, 0, 69, 75
2, 190080, Note_on_c, 0, 69, 0
2, 190080, Note_on_c, 0, 74, 75
2, 190200, Note_on_c, 0, 74, 0
2, 190200, Note_on_c, 0, 72, 75
2, 190320, Note_on_c, 0, 72, 0
2, 190320, Note_on_c, 0, 70, 75
2, 190343, Note_on_c, 0, 70, 0
2, 190440, Note_on_c, 0, 69, 75
2, 190463, Note_on_c, 0, 69, 0
2, 190560, Note_on_c, 0, 67, 88
2, 190800, Note_on_c, 0, 67, 0
2, 190800, Note_on_c, 0, 82, 88
2, 191040, Note_on_c, 0, 82, 0
2, 191040, Note_on_c, 0, 85, 88
2, 191280, Note_on_c, 0, 85, 0
2, 191280, Note_on_c, 0, 86, 88
2, 191520, Note_on_c, 0, 86, 0
2, 191520, Note_on_c, 0, 89, 88
2, 191567, Note_on_c, 0, 89, 0
2, 191760, Note_on_c, 0, 83, 88
2, 191807, Note_on_c, 0, 83, 0
2, 192000, Note_on_c, 0, 88, 88
2, 192120, Note_on_c, 0, 88, 0
2, 192120, Note_on_c, 0, 86, 88
2, 192240, Note_on_c, 0, 86, 0
2, 192240, Note_on_c, 0, 84, 88
2, 192263, Note_on_c, 0, 84, 0
2, 192360, Note_on_c, 0, 83, 88
2, 192383, Note_on_c, 0, 83, 0
2, 192480, Note_on_c, 0, 81, 88
2, 192527, Note_on_c, 0, 81, 0
2, 192720, Note_on_c, 0, 72, 88
2, 192767, Note_on_c, 0, 72, 0
2, 192960, Note_on_c, 0, 77, 88
2, 193080, Note_on_c, 0, 77, 0
2, 193080, Note_on_c, 0, 75, 88
2, 193200, Note_on_c, 0, 75, 0
2, 193200, Note_on_c, 0, 74, 88
2, 193223, Note_on_c, 0, 74, 0
2, 193320, Note_on_c, 0, 72, 88
2, 193343, Note_on_c, 0, 72, 0
2, 193440, Note_on_c, 0, 70, 88
2, 193487, Note_on_c, 0, 70, 0
2, 193680, Note_on_c, 0, 86, 88
2, 193727, Note_on_c, 0, 86, 0
2, 193920, Note_on_c, 0, 91, 88
2, 194040, Note_on_c, 0, 91, 0
2, 194040, Note_on_c, 0, 89, 88
2, 194160, Note_on_c, 0, 89, 0
2, 194160, Note_on_c, 0, 88, 88
2, 194183, Note_on_c, 0, 88, 0
2, 194280, Note_on_c, 0, 86, 88
2, 194303, Note_on_c, 0, 86, 0
2, 194400, Note_on_c, 0, 84, 88
2, 194447, Note_on_c, 0, 84, 0
2, 194640, Note_on_c, 0, 76, 88
2, 194687, Note_on_c, 0, 76, 0
2, 194880, Note_on_c, 0, 81, 88
2, 195000, Note_on_c, 0, 81, 0
2, 195000, Note_on_c, 0, 79, 88
2, 195120, Note_on_c, 0, 79, 0
2, 195120, Note_on_c, 0, 77, 88
2, 195143, Note_on_c, 0, 77, 0
2, 195240, Note_on_c, 0, 76, 88
2, 195263, Note_on_c, 0, 76, 0
2, 195360, Note_on_c, 0, 74, 88
2, 195407, Note_on_c, 0, 74, 0
2, 195600, Note_on_c, 0, 89, 88
2, 195647, Note_on_c, 0, 89, 0
2, 195840, Note_on_c, 0, 94, 88
2, 195960, Note_on_c, 0, 94, 0
2, 195960, Note_on_c, 0, 92, 88
2, 196080, Note_on_c, 0, 92, 0
2, 196080, Note_on_c, 0, 91, 88
2, 196103, Note_on_c, 0, 91, 0
2, 196200, Note_on_c, 0, 89, 88
2, 196223, Note_on_c, 0, 89, 0
2, 196320, Note_on_c, 0, 87, 101
2, 196367, Note_on_c, 0, 87, 0
2, 196560, Note_on_c, 0, 67, 101
2, 196560, Note_on_c, 0, 79, 101
2, 196800, Note_on_c, 0, 79, 0
2, 196800, Note_on_c, 0, 67, 0
2, 196800, Note_on_c, 0, 68, 101
2, 196800, Note_on_c, 0, 80, 101
2, 197040, Note_on_c, 0, 80, 0
2, 197040, Note_on_c, 0, 68, 0
2, 197040, Note_on_c, 0, 70, 101
2, 197040, Note_on_c, 0, 82, 101
2, 197087, Note_on_c, 0, 82, 0
2, 197087, Note_on_c, 0, 70, 0
2, 197280, Note_on_c, 0, 72, 101
2, 197280, Note_on_c, 0, 84, 101
2, 197327, Note_on_c, 0, 84, 0
2, 197327, Note_on_c, 0, 72, 0
2, 197520, Note_on_c, 0, 79, 101
2, 197567, Note_on_c, 0, 79, 0
2, 197760, Note_on_c, 0, 82, 101
2, 197880, Note_on_c, 0, 82, 0
2, 197880, Note_on_c, 0, 80, 101
2, 198000, Note_on_c, 0, 80, 0
2, 198000, Note_on_c, 0, 79, 101
2, 198023, Note_on_c, 0, 79, 0
2, 198120, Note_on_c, 0, 80, 101
2, 198143, Note_on_c, 0, 80, 0
2, 198240, Note_on_c, 0, 79, 101
2, 198287, Note_on_c, 0, 79, 0
2, 198480, Note_on_c, 0, 77, 101
2, 198720, Note_on_c, 0, 77, 0
2, 198720, Note_on_c, 0, 79, 101
2, 198960, Note_on_c, 0, 79, 0
2, 198960, Note_on_c, 0, 77, 101
2, 199200, Note_on_c, 0, 77, 0
2, 199200, Note_on_c, 0, 79, 101
2, 199440, Note_on_c, 0, 79, 0
2, 199440, Note_on_c, 0, 77, 101
2, 199680, Note_on_c, 0, 77, 0
2, 199680, Note_on_c, 0, 79, 101
2, 199800, Note_on_c, 0, 79, 0
2, 199800, Note_on_c, 0, 72, 101
2, 199823, Note_on_c, 0, 72, 0
2, 199920, Note_on_c, 0, 73, 101
2, 199943, Note_on_c, 0, 73, 0
2, 200040, Note_on_c, 0, 74, 101
2, 200063, Note_on_c, 0, 74, 0
2, 200160, Note_on_c, 0, 75, 101
2, 200207, Note_on_c, 0, 75, 0
2, 200400, Note_on_c, 0, 67, 101
2, 200400, Note_on_c, 0, 79, 101
2, 200640, Note_on_c, 0, 79, 0
2, 200640, Note_on_c, 0, 67, 0
2, 200640, Note_on_c, 0, 68, 101
2, 200640, Note_on_c, 0, 80, 101
2, 200880, Note_on_c, 0, 80, 0
2, 200880, Note_on_c, 0, 68, 0
2, 200880, Note_on_c, 0, 70, 101
2, 200880, Note_on_c, 0, 82, 101
2, 200927, Note_on_c, 0, 82, 0
2, 200927, Note_on_c, 0, 70, 0
2, 201120, Note_on_c, 0, 72, 101
2, 201120, Note_on_c, 0, 84, 101
2, 201167, Note_on_c, 0, 84, 0
2, 201167, Note_on_c, 0, 72, 0
2, 201360, Note_on_c, 0, 79, 101
2, 201407, Note_on_c, 0, 79, 0
2, 201600, Note_on_c, 0, 82, 101
2, 201720, Note_on_c, 0, 82, 0
2, 201720, Note_on_c, 0, 80, 101
2, 201840, Note_on_c, 0, 80, 0
2, 201840, Note_on_c, 0, 79, 101
2, 201863, Note_on_c, 0, 79, 0
2, 201960, Note_on_c, 0, 80, 101
2, 201983, Note_on_c, 0, 80, 0
2, 202080, Note_on_c, 0, 79, 101
2, 202127, Note_on_c, 0, 79, 0
2, 202320, Note_on_c, 0, 77, 101
2, 202560, Note_on_c, 0, 77, 0
2, 202560, Note_on_c, 0, 79, 101
2, 202800, Note_on_c, 0, 79, 0
2, 202800, Note_on_c, 0, 77, 101
2, 203040, Note_on_c, 0, 77, 0
2, 203040, Note_on_c, 0, 79, 101
2, 203280, Note_on_c, 0, 79, 0
2, 203280, Note_on_c, 0, 77, 101
2, 203520, Note_on_c, 0, 77, 0
2, 203520, Note_on_c, 0, 79, 101
2, 203640, Note_on_c, 0, 79, 0
2, 203640, Note_on_c, 0, 72, 101
2, 203663, Note_on_c, 0, 72, 0
2, 203760, Note_on_c, 0, 73, 101
2, 203783, Note_on_c, 0, 73, 0
2, 203880, Note_on_c, 0, 74, 101
2, 203903, Note_on_c, 0, 74, 0
2, 204000, Note_on_c, 0, 75, 101
2, 204047, Note_on_c, 0, 75, 0
2, 204240, Note_on_c, 0, 79, 101
2, 204287, Note_on_c, 0, 79, 0
2, 204480, Note_on_c, 0, 70, 101
2, 204480, Note_on_c, 0, 82, 101
2, 204720, Note_on_c, 0, 82, 0
2, 204720, Note_on_c, 0, 70, 0
2, 204960, Note_on_c, 0, 76, 101
2, 205200, Note_on_c, 0, 76, 0
2, 205200, Note_on_c, 0, 79, 101
2, 205440, Note_on_c, 0, 79, 0
2, 205440, Note_on_c, 0, 72, 101
2, 205440, Note_on_c, 0, 84, 101
2, 205680, Note_on_c, 0, 84, 0
2, 205680, Note_on_c, 0, 72, 0
2, 205920, Note_on_c, 0, 77, 101
2, 206160, Note_on_c, 0, 77, 0
2, 206160, Note_on_c, 0, 77, 101
2, 206400, Note_on_c, 0, 77, 0
2, 206400, Note_on_c, 0, 68, 101
2, 206400, Note_on_c, 0, 80, 101
2, 206640, Note_on_c, 0, 80, 0
2, 206640, Note_on_c, 0, 68, 0
2, 206880, Note_on_c, 0, 74, 101
2, 207120, Note_on_c, 0, 74, 0
2, 207120, Note_on_c, 0, 77, 101
2, 207360, Note_on_c, 0, 77, 0
2, 207360, Note_on_c, 0, 70, 101
2, 207360, Note_on_c, 0, 82, 101
2, 207600, Note_on_c, 0, 82, 0
2, 207600, Note_on_c, 0, 70, 0
2, 207840, Note_on_c, 0, 75, 101
2, 208080, Note_on_c, 0, 75, 0
2, 208080, Note_on_c, 0, 79, 101
2, 208320, Note_on_c, 0, 79, 0
2, 208320, Note_on_c, 0, 70, 101
2, 208320, Note_on_c, 0, 82, 101
2, 208560, Note_on_c, 0, 82, 0
2, 208560, Note_on_c, 0, 70, 0
2, 208800, Note_on_c, 0, 76, 101
2, 209040, Note_on_c, 0, 76, 0
2, 209040, Note_on_c, 0, 79, 101
2, 209280, Note_on_c, 0, 79, 0
2, 209280, Note_on_c, 0, 72, 101
2, 209280, Note_on_c, 0, 84, 101
2, 209520, Note_on_c, 0, 84, 0
2, 209520, Note_on_c, 0, 72, 0
2, 209760, Note_on_c, 0, 77, 101
2, 210000, Note_on_c, 0, 77, 0
2, 210000, Note_on_c, 0, 77, 101
2, 210240, Note_on_c, 0, 77, 0
2, 210240, Note_on_c, 0, 68, 101
2, 210240, Note_on_c, 0, 80, 101
2, 210480, Note_on_c, 0, 80, 0
2, 210480, Note_on_c, 0, 68, 0
2, 210720, Note_on_c, 0, 74, 101
2, 210960, Note_on_c, 0, 74, 0
2, 210960, Note_on_c, 0, 77, 101
2, 211200, Note_on_c, 0, 77, 0
2, 211200, Note_on_c, 0, 70, 101
2, 211200, Note_on_c, 0, 82, 101
2, 211440, Note_on_c, 0, 82, 0
2, 211440, Note_on_c, 0, 70, 0
2, 211680, Note_on_c, 0, 75, 101
2, 211680, Note_on_c, 0, 79, 101
2, 211680, Note_on_c, 0, 82, 101
2, 211680, Note_on_c, 0, 87, 101
2, 211920, Note_on_c, 0, 87, 0
2, 211920, Note_on_c, 0, 75, 0
2, 211920, Note_on_c, 0, 79, 0
2, 211920, Note_on_c, 0, 82, 0
2, 211920, Note_on_c, 0, 70, 101
2, 212160, Note_on_c, 0, 70, 0
2, 212160, Note_on_c, 0, 75, 101
2, 212400, Note_on_c, 0, 75, 0
2, 212400, Note_on_c, 0, 77, 101
2, 212400, Note_on_c, 0, 83, 101
2, 212400, Note_on_c, 0, 87, 101
2, 212400, Note_on_c, 0, 89, 101
2, 212640, Note_on_c, 0, 89, 0
2, 212640, Note_on_c, 0, 77, 0
2, 212640, Note_on_c, 0, 83, 0
2, 212640, Note_on_c, 0, 87, 0
2, 212640, Note_on_c, 0, 79, 101
2, 212640, Note_on_c, 0, 82, 101
2, 212640, Note_on_c, 0, 87, 101
2, 212640, Note_on_c, 0, 91, 101
2, 212880, Note_on_c, 0, 91, 0
2, 212880, Note_on_c, 0, 79, 0
2, 212880, Note_on_c, 0, 82, 0
2, 212880, Note_on_c, 0, 87, 0
2, 212880, Note_on_c, 0, 70, 101
2, 213120, Note_on_c, 0, 70, 0
2, 213120, Note_on_c, 0, 75, 101
2, 213360, Note_on_c, 0, 75, 0
2, 213360, Note_on_c, 0, 77, 101
2, 213360, Note_on_c, 0, 83, 101
2, 213360, Note_on_c, 0, 87, 101
2, 213360, Note_on_c, 0, 89, 101
2, 213600, Note_on_c, 0, 89, 0
2, 213600, Note_on_c, 0, 77, 0
2, 213600, Note_on_c, 0, 83, 0
2, 213600, Note_on_c, 0, 87, 0
2, 213600, Note_on_c, 0, 79, 101
2, 213600, Note_on_c, 0, 82, 101
2, 213600, Note_on_c, 0, 87, 101
2, 213600, Note_on_c, 0, 91, 101
2, 213840, Note_on_c, 0, 91, 0
2, 213840, Note_on_c, 0, 79, 0
2, 213840, Note_on_c, 0, 82, 0
2, 213840, Note_on_c, 0, 87, 0
2, 213840, Note_on_c, 0, 70, 101
2, 214080, Note_on_c, 0, 70, 0
2, 214080, Note_on_c, 0, 75, 101
2, 214320, Note_on_c, 0, 75, 0
2, 214320, Note_on_c, 0, 77, 101
2, 214320, Note_on_c, 0, 83, 101
2, 214320, Note_on_c, 0, 87, 101
2, 214320, Note_on_c, 0, 89, 101
2, 214560, Note_on_c, 0, 89, 0
2, 214560, Note_on_c, 0, 77, 0
2, 214560, Note_on_c, 0, 83, 0
2, 214560, Note_on_c, 0, 87, 0
2, 214560, Note_on_c, 0, 79, 101
2, 214560, Note_on_c, 0, 82, 101
2, 214560, Note_on_c, 0, 87, 101
2, 214560, Note_on_c, 0, 91, 101
2, 214800, Note_on_c, 0, 91, 0
2, 214800, Note_on_c, 0, 79, 0
2, 214800, Note_on_c, 0, 82, 0
2, 214800, Note_on_c, 0, 87, 0
2, 214800, Note_on_c, 0, 70, 101
2, 215040, Note_on_c, 0, 70, 0
2, 215040, Note_on_c, 0, 75, 101
2, 215280, Note_on_c, 0, 75, 0
2, 215280, Note_on_c, 0, 77, 101
2, 215280, Note_on_c, 0, 83, 101
2, 215280, Note_on_c, 0, 87, 101
2, 215280, Note_on_c, 0, 89, 101
2, 215520, Note_on_c, 0, 89, 0
2, 215520, Note_on_c, 0, 77, 0
2, 215520, Note_on_c, 0, 83, 0
2, 215520, Note_on_c, 0, 87, 0
2, 215520, Note_on_c, 0, 79, 101
2, 215520, Note_on_c, 0, 82, 101
2, 215520, Note_on_c, 0, 87, 101
2, 215520, Note_on_c, 0, 91, 101
2, 215760, Note_on_c, 0, 91, 0
2, 215760, Note_on_c, 0, 79, 0
2, 215760, Note_on_c, 0, 82, 0
2, 215760, Note_on_c, 0, 87, 0
2, 215760, Note_on_c, 0, 82, 101
2, 215760, Note_on_c, 0, 94, 101
2, 216000, Note_on_c, 0, 94, 0
2, 216000, Note_on_c, 0, 82, 0
2, 216000, Note_on_c, 0, 87, 101
2, 216000, Note_on_c, 0, 99, 101
2, 216240, Note_on_c, 0, 99, 0
2, 216240, Note_on_c, 0, 87, 0
2, 216240, Note_on_c, 0, 70, 101
2, 216480, Note_on_c, 0, 70, 0
2, 216480, Note_on_c, 0, 63, 127
2, 216480, Note_on_c, 0, 67, 127
2, 216480, Note_on_c, 0, 70, 127
2, 216480, Note_on_c, 0, 75, 127
2, 216960, Note_on_c, 0, 75, 0
2, 216960, Note_on_c, 0, 63, 0
2, 216960, Note_on_c, 0, 67, 0
2, 216960, Note_on_c, 0, 70, 0
2, 216960, Control_c, 0, 64, 127
2, 219840, Control_c, 0, 64, 0
2, 219840, End_track
3, 0, Start_track
3, 0, Title_t, "Grand Piano"
3, 0, Program_c, 0, 0
3, 0, Control_c, 0, 7, 115
3, 0, Control_c, 0, 10, 80
3, 1963, Control_c, 0, 64, 127
3, 1963, Note_on_c, 0, 40, 75
3, 2007, Note_on_c, 0, 40, 0
3, 2007, Note_on_c, 0, 43, 75
3, 2050, Note_on_c, 0, 43, 0
3, 2050, Note_on_c, 0, 47, 75
3, 2094, Note_on_c, 0, 47, 0
3, 2094, Note_on_c, 0, 52, 75
3, 2137, Note_on_c, 0, 52, 0
3, 2137, Note_on_c, 0, 55, 75
3, 2182, Note_on_c, 0, 55, 0
3, 2182, Note_on_c, 0, 59, 75
3, 2225, Note_on_c, 0, 59, 0
3, 2225, Note_on_c, 0, 64, 75
3, 2269, Note_on_c, 0, 64, 0
3, 2269, Note_on_c, 0, 67, 75
3, 2312, Note_on_c, 0, 67, 0
3, 2312, Note_on_c, 0, 71, 75
3, 2356, Note_on_c, 0, 71, 0
3, 2356, Note_on_c, 0, 76, 75
3, 2400, Note_on_c, 0, 76, 0
3, 2400, Note_on_c, 0, 79, 75
3, 2447, Note_on_c, 0, 79, 0
3, 2447, Note_on_c, 0, 76, 75
3, 2496, Note_on_c, 0, 76, 0
3, 2496, Note_on_c, 0, 71, 75
3, 2543, Note_on_c, 0, 71, 0
3, 2543, Note_on_c, 0, 67, 75
3, 2592, Note_on_c, 0, 67, 0
3, 2592, Note_on_c, 0, 64, 75
3, 2640, Note_on_c, 0, 64, 0
3, 2640, Note_on_c, 0, 59, 75
3, 2687, Note_on_c, 0, 59, 0
3, 2687, Note_on_c, 0, 55, 75
3, 2736, Note_on_c, 0, 55, 0
3, 2736, Note_on_c, 0, 52, 75
3, 2783, Note_on_c, 0, 52, 0
3, 2783, Note_on_c, 0, 47, 75
3, 2832, Note_on_c, 0, 47, 0
3, 2832, Note_on_c, 0, 43, 75
3, 2880, Note_on_c, 0, 43, 0
3, 2880, Note_on_c, 0, 40, 75
3, 2923, Note_on_c, 0, 40, 0
3, 2923, Note_on_c, 0, 43, 75
3, 2967, Note_on_c, 0, 43, 0
3, 2967, Note_on_c, 0, 47, 75
3, 3010, Note_on_c, 0, 47, 0
3, 3010, Note_on_c, 0, 52, 75
3, 3054, Note_on_c, 0, 52, 0
3, 3054, Note_on_c, 0, 55, 75
3, 3097, Note_on_c, 0, 55, 0
3, 3097, Note_on_c, 0, 59, 75
3, 3142, Note_on_c, 0, 59, 0
3, 3142, Note_on_c, 0, 64, 75
3, 3185, Note_on_c, 0, 64, 0
3, 3185, Note_on_c, 0, 67, 75
3, 3229, Note_on_c, 0, 67, 0
3, 3229, Note_on_c, 0, 71, 75
3, 3272, Note_on_c, 0, 71, 0
3, 3272, Note_on_c, 0, 76, 75
3, 3316, Note_on_c, 0, 76, 0
3, 3316, Note_on_c, 0, 79, 75
3, 3360, Note_on_c, 0, 79, 0
3, 3360, Note_on_c, 0, 83, 75
3, 3403, Note_on_c, 0, 83, 0
3, 3403, Note_on_c, 0, 79, 75
3, 3447, Note_on_c, 0, 79, 0
3, 3447, Note_on_c, 0, 76, 75
3, 3490, Note_on_c, 0, 76, 0
3, 3490, Note_on_c, 0, 71, 75
3, 3534, Note_on_c, 0, 71, 0
3, 3534, Note_on_c, 0, 67, 75
3, 3577, Note_on_c, 0, 67, 0
3, 3577, Note_on_c, 0, 64, 75
3, 3622, Note_on_c, 0, 64, 0
3, 3622, Note_on_c, 0, 59, 75
3, 3665, Note_on_c, 0, 59, 0
3, 3665, Note_on_c, 0, 55, 75
3, 3709, Note_on_c, 0, 55, 0
3, 3709, Note_on_c, 0, 52, 75
3, 3752, Note_on_c, 0, 52, 0
3, 3752, Note_on_c, 0, 47, 75
3, 3796, Note_on_c, 0, 47, 0
3, 3796, Note_on_c, 0, 43, 75
3, 3840, Note_on_c, 0, 43, 0
3, 3840, Control_c, 0, 64, 0
3, 4320, Control_c, 0, 64, 0
3, 5820, Control_c, 0, 64, 127
3, 5820, Note_on_c, 0, 38, 75
3, 5880, Note_on_c, 0, 38, 0
3, 5880, Note_on_c, 0, 42, 75
3, 5940, Note_on_c, 0, 42, 0
3, 5940, Note_on_c, 0, 44, 75
3, 6000, Note_on_c, 0, 44, 0
3, 6000, Note_on_c, 0, 47, 75
3, 6060, Note_on_c, 0, 47, 0
3, 6060, Note_on_c, 0, 50, 75
3, 6120, Note_on_c, 0, 50, 0
3, 6120, Note_on_c, 0, 54, 75
3, 6180, Note_on_c, 0, 54, 0
3, 6180, Note_on_c, 0, 56, 75
3, 6240, Note_on_c, 0, 56, 0
3, 6240, Note_on_c, 0, 59, 75
3, 6308, Note_on_c, 0, 59, 0
3, 6308, Note_on_c, 0, 62, 75
3, 6377, Note_on_c, 0, 62, 0
3, 6377, Note_on_c, 0, 66, 75
3, 6445, Note_on_c, 0, 66, 0
3, 6445, Note_on_c, 0, 68, 75
3, 6514, Note_on_c, 0, 68, 0
3, 6514, Note_on_c, 0, 71, 75
3, 6582, Note_on_c, 0, 71, 0
3, 6582, Note_on_c, 0, 74, 75
3, 6651, Note_on_c, 0, 74, 0
3, 6651, Note_on_c, 0, 78, 75
3, 6720, Note_on_c, 0, 78, 0
3, 6720, Note_on_c, 0, 80, 75
3, 6788, Note_on_c, 0, 80, 0
3, 6788, Note_on_c, 0, 78, 75
3, 6857, Note_on_c, 0, 78, 0
3, 6857, Note_on_c, 0, 74, 75
3, 6925, Note_on_c, 0, 74, 0
3, 6925, Note_on_c, 0, 71, 75
3, 6994, Note_on_c, 0, 71, 0
3, 6994, Note_on_c, 0, 68, 75
3, 7062, Note_on_c, 0, 68, 0
3, 7062, Note_on_c, 0, 66, 75
3, 7131, Note_on_c, 0, 66, 0
3, 7131, Note_on_c, 0, 62, 75
3, 7200, Note_on_c, 0, 62, 0
3, 7200, Note_on_c, 0, 59, 75
3, 7268, Note_on_c, 0, 59, 0
3, 7268, Note_on_c, 0, 56, 75
3, 7337, Note_on_c, 0, 56, 0
3, 7337, Note_on_c, 0, 54, 75
3, 7405, Note_on_c, 0, 54, 0
3, 7405, Note_on_c, 0, 50, 75
3, 7474, Note_on_c, 0, 50, 0
3, 7474, Note_on_c, 0, 47, 75
3, 7542, Note_on_c, 0, 47, 0
3, 7542, Note_on_c, 0, 44, 75
3, 7611, Note_on_c, 0, 44, 0
3, 7611, Control_c, 0, 64, 0
3, 7611, Note_on_c, 0, 42, 75
3, 7680, Note_on_c, 0, 42, 0
3, 7680, Control_c, 0, 64, 127
3, 7680, Note_on_c, 0, 38, 75
3, 7748, Note_on_c, 0, 38, 0
3, 7748, Note_on_c, 0, 42, 75
3, 7817, Note_on_c, 0, 42, 0
3, 7817, Note_on_c, 0, 44, 75
3, 7885, Note_on_c, 0, 44, 0
3, 7885, Note_on_c, 0, 47, 75
3, 7954, Note_on_c, 0, 47, 0
3, 7954, Note_on_c, 0, 50, 75
3, 8022, Note_on_c, 0, 50, 0
3, 8022, Note_on_c, 0, 54, 75
3, 8091, Note_on_c, 0, 54, 0
3, 8091, Note_on_c, 0, 56, 75
3, 8160, Note_on_c, 0, 56, 0
3, 8160, Note_on_c, 0, 59, 75
3, 8220, Note_on_c, 0, 59, 0
3, 8220, Note_on_c, 0, 62, 75
3, 8280, Note_on_c, 0, 62, 0
3, 8280, Note_on_c, 0, 66, 75
3, 8340, Note_on_c, 0, 66, 0
3, 8340, Note_on_c, 0, 68, 75
3, 8400, Note_on_c, 0, 68, 0
3, 8400, Note_on_c, 0, 71, 75
3, 8460, Note_on_c, 0, 71, 0
3, 8460, Note_on_c, 0, 74, 75
3, 8520, Note_on_c, 0, 74, 0
3, 8520, Note_on_c, 0, 78, 75
3, 8580, Note_on_c, 0, 78, 0
3, 8580, Note_on_c, 0, 80, 75
3, 8640, Note_on_c, 0, 80, 0
3, 8640, Note_on_c, 0, 83, 75
3, 8700, Note_on_c, 0, 83, 0
3, 8700, Note_on_c, 0, 80, 75
3, 8760, Note_on_c, 0, 80, 0
3, 8760, Note_on_c, 0, 78, 75
3, 8820, Note_on_c, 0, 78, 0
3, 8820, Note_on_c, 0, 74, 75
3, 8880, Note_on_c, 0, 74, 0
3, 8880, Note_on_c, 0, 71, 75
3, 8940, Note_on_c, 0, 71, 0
3, 8940, Note_on_c, 0, 68, 75
3, 9000, Note_on_c, 0, 68, 0
3, 9000, Note_on_c, 0, 66, 75
3, 9060, Note_on_c, 0, 66, 0
3, 9060, Note_on_c, 0, 62, 75
3, 9120, Note_on_c, 0, 62, 0
3, 9120, Note_on_c, 0, 59, 75
3, 9188, Note_on_c, 0, 59, 0
3, 9188, Note_on_c, 0, 56, 75
3, 9257, Note_on_c, 0, 56, 0
3, 9257, Note_on_c, 0, 54, 75
3, 9325, Note_on_c, 0, 54, 0
3, 9325, Note_on_c, 0, 50, 75
3, 9394, Note_on_c, 0, 50, 0
3, 9394, Note_on_c, 0, 47, 75
3, 9462, Note_on_c, 0, 47, 0
3, 9462, Note_on_c, 0, 44, 75
3, 9531, Note_on_c, 0, 44, 0
3, 9531, Note_on_c, 0, 42, 75
3, 9600, Note_on_c, 0, 42, 0
3, 9600, Note_on_c, 0, 41, 75
3, 9840, Note_on_c, 0, 41, 0
3, 9840, Control_c, 0, 64, 0
3, 11600, Control_c, 0, 64, 127
3, 11600, Note_on_c, 0, 37, 75
3, 11679, Note_on_c, 0, 37, 0
3, 11679, Note_on_c, 0, 41, 75
3, 11760, Note_on_c, 0, 41, 0
3, 11760, Note_on_c, 0, 44, 75
3, 11840, Note_on_c, 0, 44, 0
3, 11840, Note_on_c, 0, 49, 75
3, 11919, Note_on_c, 0, 49, 0
3, 11919, Note_on_c, 0, 53, 75
3, 12000, Note_on_c, 0, 53, 0
3, 12000, Note_on_c, 0, 56, 75
3, 12068, Note_on_c, 0, 56, 0
3, 12068, Note_on_c, 0, 61, 75
3, 12137, Note_on_c, 0, 61, 0
3, 12137, Note_on_c, 0, 65, 75
3, 12205, Note_on_c, 0, 65, 0
3, 12205, Note_on_c, 0, 68, 75
3, 12274, Note_on_c, 0, 68, 0
3, 12274, Note_on_c, 0, 73, 75
3, 12342, Note_on_c, 0, 73, 0
3, 12342, Note_on_c, 0, 77, 75
3, 12411, Note_on_c, 0, 77, 0
3, 12411, Note_on_c, 0, 80, 75
3, 12480, Note_on_c, 0, 80, 0
3, 12480, Note_on_c, 0, 85, 75
3, 12560, Note_on_c, 0, 85, 0
3, 12560, Note_on_c, 0, 80, 75
3, 12639, Note_on_c, 0, 80, 0
3, 12639, Note_on_c, 0, 77, 75
3, 12720, Note_on_c, 0, 77, 0
3, 12720, Note_on_c, 0, 73, 75
3, 12800, Note_on_c, 0, 73, 0
3, 12800, Note_on_c, 0, 68, 75
3, 12879, Note_on_c, 0, 68, 0
3, 12879, Note_on_c, 0, 65, 75
3, 12960, Note_on_c, 0, 65, 0
3, 12960, Note_on_c, 0, 61, 75
3, 13040, Note_on_c, 0, 61, 0
3, 13040, Note_on_c, 0, 56, 75
3, 13119, Note_on_c, 0, 56, 0
3, 13119, Note_on_c, 0, 53, 75
3, 13200, Note_on_c, 0, 53, 0
3, 13200, Note_on_c, 0, 49, 75
3, 13280, Note_on_c, 0, 49, 0
3, 13280, Note_on_c, 0, 44, 75
3, 13359, Note_on_c, 0, 44, 0
3, 13359, Control_c, 0, 64, 0
3, 13359, Note_on_c, 0, 41, 75
3, 13440, Note_on_c, 0, 41, 0
3, 13440, Control_c, 0, 64, 127
3, 13440, Note_on_c, 0, 37, 75
3, 13508, Note_on_c, 0, 37, 0
3, 13508, Note_on_c, 0, 41, 75
3, 13577, Note_on_c, 0, 41, 0
3, 13577, Note_on_c, 0, 44, 75
3, 13645, Note_on_c, 0, 44, 0
3, 13645, Note_on_c, 0, 49, 75
3, 13714, Note_on_c, 0, 49, 0
3, 13714, Note_on_c, 0, 53, 75
3, 13782, Note_on_c, 0, 53, 0
3, 13782, Note_on_c, 0, 56, 75
3, 13851, Note_on_c, 0, 56, 0
3, 13851, Note_on_c, 0, 61, 75
3, 13920, Note_on_c, 0, 61, 0
3, 13920, Note_on_c, 0, 65, 75
3, 14000, Note_on_c, 0, 65, 0
3, 14000, Note_on_c, 0, 68, 75
3, 14079, Note_on_c, 0, 68, 0
3, 14079, Note_on_c, 0, 73, 75
3, 14160, Note_on_c, 0, 73, 0
3, 14160, Note_on_c, 0, 77, 75
3, 14240, Note_on_c, 0, 77, 0
3, 14240, Note_on_c, 0, 80, 75
3, 14319, Note_on_c, 0, 80, 0
3, 14319, Note_on_c, 0, 85, 75
3, 14400, Note_on_c, 0, 85, 0
3, 14400, Note_on_c, 0, 89, 75
3, 14480, Note_on_c, 0, 89, 0
3, 14480, Note_on_c, 0, 85, 75
3, 14559, Note_on_c, 0, 85, 0
3, 14559, Note_on_c, 0, 80, 75
3, 14640, Note_on_c, 0, 80, 0
3, 14640, Note_on_c, 0, 77, 75
3, 14720, Note_on_c, 0, 77, 0
3, 14720, Note_on_c, 0, 73, 75
3, 14799, Note_on_c, 0, 73, 0
3, 14799, Note_on_c, 0, 68, 75
3, 14880, Note_on_c, 0, 68, 0
3, 14880, Note_on_c, 0, 65, 75
3, 14948, Note_on_c, 0, 65, 0
3, 14948, Note_on_c, 0, 61, 75
3, 15017, Note_on_c, 0, 61, 0
3, 15017, Note_on_c, 0, 56, 75
3, 15085, Note_on_c, 0, 56, 0
3, 15085, Note_on_c, 0, 53, 75
3, 15154, Note_on_c, 0, 53, 0
3, 15154, Note_on_c, 0, 49, 75
3, 15222, Note_on_c, 0, 49, 0
3, 15222, Note_on_c, 0, 44, 75
3, 15291, Note_on_c, 0, 44, 0
3, 15291, Control_c, 0, 64, 0
3, 15291, Note_on_c, 0, 41, 75
3, 15360, Note_on_c, 0, 41, 0
3, 15360, Control_c, 0, 64, 127
3, 15360, Note_on_c, 0, 37, 75
3, 15428, Note_on_c, 0, 37, 0
3, 15428, Note_on_c, 0, 41, 75
3, 15497, Note_on_c, 0, 41, 0
3, 15497, Note_on_c, 0, 44, 75
3, 15565, Note_on_c, 0, 44, 0
3, 15565, Note_on_c, 0, 49, 75
3, 15634, Note_on_c, 0, 49, 0
3, 15634, Note_on_c, 0, 53, 75
3, 15702, Note_on_c, 0, 53, 0
3, 15702, Note_on_c, 0, 56, 75
3, 15771, Note_on_c, 0, 56, 0
3, 15771, Note_on_c, 0, 61, 75
3, 15840, Note_on_c, 0, 61, 0
3, 15840, Note_on_c, 0, 65, 75
3, 15908, Note_on_c, 0, 65, 0
3, 15908, Note_on_c, 0, 68, 75
3, 15977, Note_on_c, 0, 68, 0
3, 15977, Note_on_c, 0, 73, 75
3, 16045, Note_on_c, 0, 73, 0
3, 16045, Note_on_c, 0, 77, 75
3, 16114, Note_on_c, 0, 77, 0
3, 16114, Note_on_c, 0, 80, 75
3, 16182, Note_on_c, 0, 80, 0
3, 16182, Note_on_c, 0, 85, 75
3, 16251, Note_on_c, 0, 85, 0
3, 16251, Note_on_c, 0, 89, 75
3, 16320, Note_on_c, 0, 89, 0
3, 16320, Note_on_c, 0, 92, 75
3, 16388, Note_on_c, 0, 92, 0
3, 16388, Note_on_c, 0, 89, 75
3, 16457, Note_on_c, 0, 89, 0
3, 16457, Note_on_c, 0, 85, 75
3, 16525, Note_on_c, 0, 85, 0
3, 16525, Note_on_c, 0, 80, 75
3, 16594, Note_on_c, 0, 80, 0
3, 16594, Note_on_c, 0, 77, 75
3, 16662, Note_on_c, 0, 77, 0
3, 16662, Note_on_c, 0, 73, 75
3, 16731, Note_on_c, 0, 73, 0
3, 16731, Note_on_c, 0, 68, 75
3, 16800, Note_on_c, 0, 68, 0
3, 16800, Note_on_c, 0, 65, 75
3, 16868, Note_on_c, 0, 65, 0
3, 16868, Note_on_c, 0, 61, 75
3, 16937, Note_on_c, 0, 61, 0
3, 16937, Note_on_c, 0, 56, 75
3, 17005, Note_on_c, 0, 56, 0
3, 17005, Note_on_c, 0, 53, 75
3, 17074, Note_on_c, 0, 53, 0
3, 17074, Note_on_c, 0, 49, 75
3, 17142, Note_on_c, 0, 49, 0
3, 17142, Note_on_c, 0, 44, 75
3, 17211, Note_on_c, 0, 44, 0
3, 17211, Control_c, 0, 64, 0
3, 17211, Note_on_c, 0, 41, 75
3, 17280, Note_on_c, 0, 41, 0
3, 17280, Control_c, 0, 64, 127
3, 17280, Note_on_c, 0, 37, 75
3, 17348, Note_on_c, 0, 37, 0
3, 17348, Note_on_c, 0, 41, 75
3, 17417, Note_on_c, 0, 41, 0
3, 17417, Note_on_c, 0, 44, 75
3, 17485, Note_on_c, 0, 44, 0
3, 17485, Note_on_c, 0, 49, 75
3, 17554, Note_on_c, 0, 49, 0
3, 17554, Note_on_c, 0, 53, 75
3, 17622, Note_on_c, 0, 53, 0
3, 17622, Note_on_c, 0, 56, 75
3, 17691, Note_on_c, 0, 56, 0
3, 17691, Note_on_c, 0, 61, 75
3, 17760, Note_on_c, 0, 61, 0
3, 17760, Note_on_c, 0, 65, 75
3, 17820, Note_on_c, 0, 65, 0
3, 17820, Note_on_c, 0, 68, 75
3, 17880, Note_on_c, 0, 68, 0
3, 17880, Note_on_c, 0, 73, 75
3, 17940, Note_on_c, 0, 73, 0
3, 17940, Note_on_c, 0, 77, 75
3, 18000, Note_on_c, 0, 77, 0
3, 18000, Note_on_c, 0, 80, 75
3, 18060, Note_on_c, 0, 80, 0
3, 18060, Note_on_c, 0, 85, 75
3, 18120, Note_on_c, 0, 85, 0
3, 18120, Note_on_c, 0, 89, 75
3, 18180, Note_on_c, 0, 89, 0
3, 18180, Note_on_c, 0, 92, 75
3, 18240, Note_on_c, 0, 92, 0
3, 18240, Note_on_c, 0, 97, 75
3, 18300, Note_on_c, 0, 97, 0
3, 18300, Note_on_c, 0, 92, 75
3, 18360, Note_on_c, 0, 92, 0
3, 18360, Note_on_c, 0, 89, 75
3, 18420, Note_on_c, 0, 89, 0
3, 18420, Note_on_c, 0, 85, 75
3, 18480, Note_on_c, 0, 85, 0
3, 18480, Note_on_c, 0, 80, 75
3, 18540, Note_on_c, 0, 80, 0
3, 18540, Note_on_c, 0, 77, 75
3, 18600, Note_on_c, 0, 77, 0
3, 18600, Note_on_c, 0, 73, 75
3, 18660, Note_on_c, 0, 73, 0
3, 18660, Note_on_c, 0, 68, 75
3, 18720, Note_on_c, 0, 68, 0
3, 18720, Note_on_c, 0, 65, 75
3, 18788, Note_on_c, 0, 65, 0
3, 18788, Note_on_c, 0, 61, 75
3, 18857, Note_on_c, 0, 61, 0
3, 18857, Note_on_c, 0, 56, 75
3, 18925, Note_on_c, 0, 56, 0
3, 18925, Note_on_c, 0, 53, 75
3, 18994, Note_on_c, 0, 53, 0
3, 18994, Note_on_c, 0, 49, 75
3, 19062, Note_on_c, 0, 49, 0
3, 19062, Note_on_c, 0, 44, 75
3, 19131, Note_on_c, 0, 44, 0
3, 19131, Control_c, 0, 64, 0
3, 19131, Note_on_c, 0, 41, 75
3, 19200, Note_on_c, 0, 41, 0
3, 19200, Control_c, 0, 64, 127
3, 19200, Note_on_c, 0, 87, 62
3, 19260, Note_on_c, 0, 87, 0
3, 19260, Note_on_c, 0, 83, 62
3, 19320, Note_on_c, 0, 83, 0
3, 19320, Note_on_c, 0, 80, 62
3, 19380, Note_on_c, 0, 80, 0
3, 19380, Note_on_c, 0, 77, 62
3, 19440, Note_on_c, 0, 77, 0
3, 19440, Note_on_c, 0, 75, 62
3, 19500, Note_on_c, 0, 75, 0
3, 19500, Note_on_c, 0, 71, 62
3, 19560, Note_on_c, 0, 71, 0
3, 19560, Note_on_c, 0, 68, 62
3, 19620, Note_on_c, 0, 68, 0
3, 19620, Control_c, 0, 64, 0
3, 19620, Note_on_c, 0, 65, 62
3, 19680, Note_on_c, 0, 65, 0
3, 19680, Control_c, 0, 64, 127
3, 19680, Note_on_c, 0, 85, 62
3, 19740, Note_on_c, 0, 85, 0
3, 19740, Note_on_c, 0, 83, 62
3, 19800, Note_on_c, 0, 83, 0
3, 19800, Note_on_c, 0, 80, 62
3, 19860, Note_on_c, 0, 80, 0
3, 19860, Note_on_c, 0, 77, 62
3, 19920, Note_on_c, 0, 77, 0
3, 19920, Note_on_c, 0, 73, 62
3, 19980, Note_on_c, 0, 73, 0
3, 19980, Note_on_c, 0, 71, 62
3, 20040, Note_on_c, 0, 71, 0
3, 20040, Note_on_c, 0, 68, 62
3, 20100, Note_on_c, 0, 68, 0
3, 20100, Control_c, 0, 64, 0
3, 20100, Note_on_c, 0, 65, 62
3, 20160, Note_on_c, 0, 65, 0
3, 20160, Control_c, 0, 64, 127
3, 20160, Note_on_c, 0, 83, 62
3, 20220, Note_on_c, 0, 83, 0
3, 20220, Note_on_c, 0, 80, 62
3, 20280, Note_on_c, 0, 80, 0
3, 20280, Note_on_c, 0, 77, 62
3, 20340, Note_on_c, 0, 77, 0
3, 20340, Note_on_c, 0, 75, 62
3, 20400, Note_on_c, 0, 75, 0
3, 20400, Note_on_c, 0, 71, 62
3, 20460, Note_on_c, 0, 71, 0
3, 20460, Note_on_c, 0, 68, 62
3, 20520, Note_on_c, 0, 68, 0
3, 20520, Note_on_c, 0, 65, 62
3, 20580, Note_on_c, 0, 65, 0
3, 20580, Control_c, 0, 64, 0
3, 20580, Note_on_c, 0, 63, 62
3, 20640, Note_on_c, 0, 63, 0
3, 20640, Control_c, 0, 64, 127
3, 20640, Note_on_c, 0, 80, 62
3, 20700, Note_on_c, 0, 80, 0
3, 20700, Note_on_c, 0, 77, 62
3, 20760, Note_on_c, 0, 77, 0
3, 20760, Note_on_c, 0, 75, 62
3, 20820, Note_on_c, 0, 75, 0
3, 20820, Note_on_c, 0, 71, 62
3, 20880, Note_on_c, 0, 71, 0
3, 20880, Note_on_c, 0, 68, 62
3, 20940, Note_on_c, 0, 68, 0
3, 20940, Note_on_c, 0, 65, 62
3, 21000, Note_on_c, 0, 65, 0
3, 21000, Note_on_c, 0, 63, 62
3, 21060, Note_on_c, 0, 63, 0
3, 21060, Control_c, 0, 64, 0
3, 21060, Note_on_c, 0, 59, 62
3, 21120, Note_on_c, 0, 59, 0
3, 21120, Control_c, 0, 64, 127
3, 21120, Note_on_c, 0, 77, 62
3, 21180, Note_on_c, 0, 77, 0
3, 21180, Note_on_c, 0, 75, 62
3, 21240, Note_on_c, 0, 75, 0
3, 21240, Note_on_c, 0, 71, 62
3, 21300, Note_on_c, 0, 71, 0
3, 21300, Note_on_c, 0, 68, 62
3, 21360, Note_on_c, 0, 68, 0
3, 21360, Note_on_c, 0, 65, 62
3, 21420, Note_on_c, 0, 65, 0
3, 21420, Note_on_c, 0, 63, 62
3, 21480, Note_on_c, 0, 63, 0
3, 21480, Note_on_c, 0, 59, 62
3, 21540, Note_on_c, 0, 59, 0
3, 21540, Control_c, 0, 64, 0
3, 21540, Note_on_c, 0, 56, 62
3, 21600, Note_on_c, 0, 56, 0
3, 21600, Control_c, 0, 64, 127
3, 21600, Note_on_c, 0, 75, 62
3, 21660, Note_on_c, 0, 75, 0
3, 21660, Note_on_c, 0, 71, 62
3, 21720, Note_on_c, 0, 71, 0
3, 21720, Note_on_c, 0, 68, 62
3, 21780, Note_on_c, 0, 68, 0
3, 21780, Note_on_c, 0, 65, 62
3, 21840, Note_on_c, 0, 65, 0
3, 21840, Note_on_c, 0, 63, 62
3, 21900, Note_on_c, 0, 63, 0
3, 21900, Note_on_c, 0, 59, 62
3, 21960, Note_on_c, 0, 59, 0
3, 21960, Note_on_c, 0, 56, 62
3, 22020, Note_on_c, 0, 56, 0
3, 22020, Control_c, 0, 64, 0
3, 22020, Note_on_c, 0, 53, 62
3, 22080, Note_on_c, 0, 53, 0
3, 22080, Control_c, 0, 64, 127
3, 22080, Note_on_c, 0, 71, 62
3, 22140, Note_on_c, 0, 71, 0
3, 22140, Note_on_c, 0, 68, 62
3, 22200, Note_on_c, 0, 68, 0
3, 22200, Note_on_c, 0, 65, 62
3, 22260, Note_on_c, 0, 65, 0
3, 22260, Note_on_c, 0, 63, 62
3, 22320, Note_on_c, 0, 63, 0
3, 22320, Note_on_c, 0, 59, 62
3, 22380, Note_on_c, 0, 59, 0
3, 22380, Note_on_c, 0, 56, 62
3, 22440, Note_on_c, 0, 56, 0
3, 22440, Note_on_c, 0, 53, 62
3, 22500, Note_on_c, 0, 53, 0
3, 22500, Control_c, 0, 64, 0
3, 22500, Note_on_c, 0, 51, 62
3, 22560, Note_on_c, 0, 51, 0
3, 22560, Control_c, 0, 64, 127
3, 22560, Note_on_c, 0, 68, 62
3, 22620, Note_on_c, 0, 68, 0
3, 22620, Note_on_c, 0, 65, 62
3, 22680, Note_on_c, 0, 65, 0
3, 22680, Note_on_c, 0, 63, 62
3, 22740, Note_on_c, 0, 63, 0
3, 22740, Note_on_c, 0, 59, 62
3, 22800, Note_on_c, 0, 59, 0
3, 22800, Note_on_c, 0, 56, 62
3, 22860, Note_on_c, 0, 56, 0
3, 22860, Note_on_c, 0, 53, 62
3, 22920, Note_on_c, 0, 53, 0
3, 22920, Note_on_c, 0, 51, 62
3, 22980, Note_on_c, 0, 51, 0
3, 22980, Control_c, 0, 64, 0
3, 22980, Note_on_c, 0, 47, 62
3, 23040, Note_on_c, 0, 47, 0
3, 23040, Control_c, 0, 64, 127
3, 23040, Note_on_c, 0, 65, 62
3, 23100, Note_on_c, 0, 65, 0
3, 23100, Note_on_c, 0, 63, 62
3, 23160, Note_on_c, 0, 63, 0
3, 23160, Note_on_c, 0, 59, 62
3, 23220, Note_on_c, 0, 59, 0
3, 23220, Note_on_c, 0, 56, 62
3, 23280, Note_on_c, 0, 56, 0
3, 23280, Note_on_c, 0, 53, 62
3, 23340, Note_on_c, 0, 53, 0
3, 23340, Note_on_c, 0, 51, 62
3, 23400, Note_on_c, 0, 51, 0
3, 23400, Note_on_c, 0, 47, 62
3, 23460, Note_on_c, 0, 47, 0
3, 23460, Control_c, 0, 64, 0
3, 23460, Note_on_c, 0, 44, 62
3, 23520, Note_on_c, 0, 44, 0
3, 23520, Control_c, 0, 64, 127
3, 23520, Note_on_c, 0, 63, 62
3, 23580, Note_on_c, 0, 63, 0
3, 23580, Note_on_c, 0, 59, 62
3, 23640, Note_on_c, 0, 59, 0
3, 23640, Note_on_c, 0, 56, 62
3, 23700, Note_on_c, 0, 56, 0
3, 23700, Note_on_c, 0, 53, 62
3, 23760, Note_on_c, 0, 53, 0
3, 23760, Note_on_c, 0, 51, 62
3, 23820, Note_on_c, 0, 51, 0
3, 23820, Note_on_c, 0, 47, 62
3, 23880, Note_on_c, 0, 47, 0
3, 23880, Note_on_c, 0, 44, 62
3, 23940, Note_on_c, 0, 44, 0
3, 23940, Control_c, 0, 64, 0
3, 23940, Note_on_c, 0, 41, 62
3, 24000, Note_on_c, 0, 41, 0
3, 24000, Control_c, 0, 64, 127
3, 24000, Note_on_c, 0, 59, 62
3, 24060, Note_on_c, 0, 59, 0
3, 24060, Note_on_c, 0, 56, 62
3, 24120, Note_on_c, 0, 56, 0
3, 24120, Note_on_c, 0, 53, 62
3, 24180, Note_on_c, 0, 53, 0
3, 24180, Note_on_c, 0, 51, 62
3, 24240, Note_on_c, 0, 51, 0
3, 24240, Note_on_c, 0, 47, 62
3, 24300, Note_on_c, 0, 47, 0
3, 24300, Note_on_c, 0, 44, 62
3, 24360, Note_on_c, 0, 44, 0
3, 24360, Note_on_c, 0, 41, 62
3, 24420, Note_on_c, 0, 41, 0
3, 24420, Control_c, 0, 64, 0
3, 24420, Note_on_c, 0, 39, 62
3, 24480, Note_on_c, 0, 39, 0
3, 24480, Control_c, 0, 64, 127
3, 24480, Note_on_c, 0, 56, 62
3, 24560, Note_on_c, 0, 56, 0
3, 24560, Note_on_c, 0, 53, 62
3, 24639, Note_on_c, 0, 53, 0
3, 24639, Note_on_c, 0, 51, 62
3, 24720, Note_on_c, 0, 51, 0
3, 24720, Note_on_c, 0, 47, 62
3, 24780, Note_on_c, 0, 47, 0
3, 24780, Note_on_c, 0, 44, 62
3, 24840, Note_on_c, 0, 44, 0
3, 24840, Note_on_c, 0, 41, 62
3, 24900, Note_on_c, 0, 41, 0
3, 24900, Control_c, 0, 64, 0
3, 24900, Note_on_c, 0, 39, 62
3, 24960, Note_on_c, 0, 39, 0
3, 24960, Control_c, 0, 64, 127
3, 24960, Note_on_c, 0, 37, 75
3, 25120, Note_on_c, 0, 37, 75
3, 25160, Note_on_c, 0, 41, 75
3, 25200, Note_on_c, 0, 37, 0
3, 25200, Note_on_c, 0, 44, 75
3, 25360, Note_on_c, 0, 41, 75
3, 25400, Note_on_c, 0, 44, 75
3, 25440, Note_on_c, 0, 44, 0
3, 25440, Note_on_c, 0, 37, 0
3, 25440, Note_on_c, 0, 41, 0
3, 25440, Note_on_c, 0, 49, 75
3, 25600, Note_on_c, 0, 44, 75
3, 25640, Note_on_c, 0, 49, 75
3, 25680, Note_on_c, 0, 49, 0
3, 25680, Note_on_c, 0, 44, 0
3, 25680, Note_on_c, 0, 41, 0
3, 25680, Note_on_c, 0, 53, 75
3, 25840, Note_on_c, 0, 49, 75
3, 25880, Note_on_c, 0, 53, 75
3, 25920, Note_on_c, 0, 53, 0
3, 25920, Note_on_c, 0, 49, 0
3, 25920, Note_on_c, 0, 44, 0
3, 25920, Note_on_c, 0, 56, 75
3, 26080, Note_on_c, 0, 53, 75
3, 26120, Note_on_c, 0, 56, 75
3, 26160, Note_on_c, 0, 56, 0
3, 26160, Note_on_c, 0, 53, 0
3, 26160, Note_on_c, 0, 49, 0
3, 26160, Note_on_c, 0, 61, 75
3, 26320, Note_on_c, 0, 56, 75
3, 26360, Note_on_c, 0, 61, 75
3, 26400, Note_on_c, 0, 61, 0
3, 26400, Note_on_c, 0, 56, 0
3, 26400, Note_on_c, 0, 53, 0
3, 26400, Note_on_c, 0, 65, 75
3, 26560, Note_on_c, 0, 61, 75
3, 26600, Note_on_c, 0, 65, 75
3, 26640, Note_on_c, 0, 65, 0
3, 26640, Note_on_c, 0, 61, 0
3, 26640, Note_on_c, 0, 56, 0
3, 26640, Note_on_c, 0, 68, 75
3, 26800, Note_on_c, 0, 65, 75
3, 26840, Note_on_c, 0, 68, 75
3, 26880, Note_on_c, 0, 68, 0
3, 26880, Note_on_c, 0, 65, 0
3, 26880, Note_on_c, 0, 61, 0
3, 26880, Control_c, 0, 64, 0
3, 26880, Note_on_c, 0, 73, 75
3, 27040, Note_on_c, 0, 41, 75
3, 27080, Note_on_c, 0, 44, 75
3, 27120, Note_on_c, 0, 73, 0
3, 27120, Note_on_c, 0, 68, 0
3, 27120, Note_on_c, 0, 65, 0
3, 27120, Control_c, 0, 64, 127
3, 27120, Note_on_c, 0, 49, 75
3, 27280, Note_on_c, 0, 44, 75
3, 27320, Note_on_c, 0, 49, 75
3, 27360, Note_on_c, 0, 49, 0
3, 27360, Note_on_c, 0, 44, 0
3, 27360, Note_on_c, 0, 41, 0
3, 27360, Note_on_c, 0, 53, 75
3, 27520, Note_on_c, 0, 49, 75
3, 27560, Note_on_c, 0, 53, 75
3, 27600, Note_on_c, 0, 53, 0
3, 27600, Note_on_c, 0, 49, 0
3, 27600, Note_on_c, 0, 44, 0
3, 27600, Note_on_c, 0, 56, 75
3, 27760, Note_on_c, 0, 53, 75
3, 27800, Note_on_c, 0, 56, 75
3, 27840, Note_on_c, 0, 56, 0
3, 27840, Note_on_c, 0, 53, 0
3, 27840, Note_on_c, 0, 49, 0
3, 27840, Note_on_c, 0, 61, 75
3, 28000, Note_on_c, 0, 56, 75
3, 28040, Note_on_c, 0, 61, 75
3, 28080, Note_on_c, 0, 61, 0
3, 28080, Note_on_c, 0, 56, 0
3, 28080, Note_on_c, 0, 53, 0
3, 28080, Note_on_c, 0, 65, 75
3, 28240, Note_on_c, 0, 61, 75
3, 28280, Note_on_c, 0, 65, 75
3, 28320, Note_on_c, 0, 65, 0
3, 28320, Note_on_c, 0, 61, 0
3, 28320, Note_on_c, 0, 56, 0
3, 28320, Note_on_c, 0, 68, 75
3, 28480, Note_on_c, 0, 65, 75
3, 28520, Note_on_c, 0, 68, 75
3, 28560, Note_on_c, 0, 68, 0
3, 28560, Note_on_c, 0, 65, 0
3, 28560, Note_on_c, 0, 61, 0
3, 28560, Note_on_c, 0, 73, 75
3, 28720, Note_on_c, 0, 68, 75
3, 28760, Note_on_c, 0, 73, 75
3, 28800, Note_on_c, 0, 73, 0
3, 28800, Note_on_c, 0, 68, 0
3, 28800, Note_on_c, 0, 65, 0
3, 28800, Control_c, 0, 64, 0
3, 28800, Note_on_c, 0, 77, 75
3, 28960, Note_on_c, 0, 44, 75
3, 29000, Note_on_c, 0, 49, 75
3, 29040, Note_on_c, 0, 77, 0
3, 29040, Note_on_c, 0, 73, 0
3, 29040, Note_on_c, 0, 68, 0
3, 29040, Control_c, 0, 64, 127
3, 29040, Note_on_c, 0, 53, 75
3, 29200, Note_on_c, 0, 49, 75
3, 29240, Note_on_c, 0, 53, 75
3, 29280, Note_on_c, 0, 53, 0
3, 29280, Note_on_c, 0, 49, 0
3, 29280, Note_on_c, 0, 44, 0
3, 29280, Note_on_c, 0, 56, 75
3, 29440, Note_on_c, 0, 53, 75
3, 29480, Note_on_c, 0, 56, 75
3, 29520, Note_on_c, 0, 56, 0
3, 29520, Note_on_c, 0, 53, 0
3, 29520, Note_on_c, 0, 49, 0
3, 29520, Note_on_c, 0, 61, 75
3, 29680, Note_on_c, 0, 56, 75
3, 29720, Note_on_c, 0, 61, 75
3, 29760, Note_on_c, 0, 61, 0
3, 29760, Note_on_c, 0, 56, 0
3, 29760, Note_on_c, 0, 53, 0
3, 29760, Note_on_c, 0, 65, 75
3, 29920, Note_on_c, 0, 61, 75
3, 29960, Note_on_c, 0, 65, 75
3, 30000, Note_on_c, 0, 65, 0
3, 30000, Note_on_c, 0, 61, 0
3, 30000, Note_on_c, 0, 56, 0
3, 30000, Note_on_c, 0, 68, 75
3, 30160, Note_on_c, 0, 65, 75
3, 30200, Note_on_c, 0, 68, 75
3, 30240, Note_on_c, 0, 68, 0
3, 30240, Note_on_c, 0, 65, 0
3, 30240, Note_on_c, 0, 61, 0
3, 30240, Note_on_c, 0, 73, 75
3, 30400, Note_on_c, 0, 68, 75
3, 30440, Note_on_c, 0, 73, 75
3, 30480, Note_on_c, 0, 73, 0
3, 30480, Note_on_c, 0, 68, 0
3, 30480, Note_on_c, 0, 65, 0
3, 30480, Note_on_c, 0, 77, 75
3, 30640, Note_on_c, 0, 73, 75
3, 30680, Note_on_c, 0, 77, 75
3, 30720, Note_on_c, 0, 77, 0
3, 30720, Note_on_c, 0, 73, 0
3, 30720, Note_on_c, 0, 68, 0
3, 30720, Note_on_c, 0, 80, 75
3, 30880, Note_on_c, 0, 65, 75
3, 30920, Note_on_c, 0, 68, 75
3, 30960, Note_on_c, 0, 80, 0
3, 30960, Note_on_c, 0, 77, 0
3, 30960, Note_on_c, 0, 73, 0
3, 30960, Note_on_c, 0, 73, 75
3, 31120, Note_on_c, 0, 68, 75
3, 31160, Note_on_c, 0, 73, 75
3, 31200, Note_on_c, 0, 73, 0
3, 31200, Note_on_c, 0, 68, 0
3, 31200, Note_on_c, 0, 65, 0
3, 31200, Note_on_c, 0, 77, 75
3, 31360, Note_on_c, 0, 73, 75
3, 31400, Note_on_c, 0, 77, 75
3, 31440, Note_on_c, 0, 77, 0
3, 31440, Note_on_c, 0, 73, 0
3, 31440, Note_on_c, 0, 68, 0
3, 31440, Note_on_c, 0, 80, 75
3, 31600, Note_on_c, 0, 73, 75
3, 31640, Note_on_c, 0, 77, 75
3, 31680, Note_on_c, 0, 80, 0
3, 31680, Note_on_c, 0, 77, 0
3, 31680, Note_on_c, 0, 73, 0
3, 31680, Note_on_c, 0, 80, 75
3, 31920, Note_on_c, 0, 80, 0
3, 31920, Note_on_c, 0, 73, 0
3, 31920, Note_on_c, 0, 77, 0
3, 31920, Control_c, 0, 64, 0
3, 32160, Control_c, 0, 64, 127
3, 32160, Note_on_c, 0, 61, 75
3, 32194, Note_on_c, 0, 61, 0
3, 32194, Note_on_c, 0, 68, 75
3, 32228, Note_on_c, 0, 68, 0
3, 32228, Note_on_c, 0, 71, 75
3, 32262, Note_on_c, 0, 71, 0
3, 32262, Note_on_c, 0, 73, 75
3, 32297, Note_on_c, 0, 73, 0
3, 32297, Note_on_c, 0, 77, 75
3, 32331, Note_on_c, 0, 77, 0
3, 32331, Note_on_c, 0, 80, 75
3, 32365, Note_on_c, 0, 80, 0
3, 32365, Control_c, 0, 64, 0
3, 32365, Note_on_c, 0, 83, 75
3, 32400, Note_on_c, 0, 83, 0
3, 32400, Note_on_c, 0, 85, 114
3, 32640, Note_on_c, 0, 85, 0
3, 32640, Control_c, 0, 64, 127
3, 32640, Note_on_c, 0, 61, 75
3, 32674, Note_on_c, 0, 61, 0
3, 32674, Note_on_c, 0, 68, 75
3, 32708, Note_on_c, 0, 68, 0
3, 32708, Note_on_c, 0, 71, 75
3, 32742, Note_on_c, 0, 71, 0
3, 32742, Note_on_c, 0, 73, 75
3, 32777, Note_on_c, 0, 73, 0
3, 32777, Note_on_c, 0, 77, 75
3, 32811, Note_on_c, 0, 77, 0
3, 32811, Note_on_c, 0, 80, 75
3, 32845, Note_on_c, 0, 80, 0
3, 32845, Control_c, 0, 64, 0
3, 32845, Note_on_c, 0, 83, 75
3, 32880, Note_on_c, 0, 83, 0
3, 32880, Note_on_c, 0, 87, 114
3, 33120, Note_on_c, 0, 87, 0
3, 33120, Control_c, 0, 64, 127
3, 33120, Note_on_c, 0, 61, 75
3, 33154, Note_on_c, 0, 61, 0
3, 33154, Note_on_c, 0, 68, 75
3, 33188, Note_on_c, 0, 68, 0
3, 33188, Note_on_c, 0, 71, 75
3, 33222, Note_on_c, 0, 71, 0
3, 33222, Note_on_c, 0, 73, 75
3, 33257, Note_on_c, 0, 73, 0
3, 33257, Note_on_c, 0, 77, 75
3, 33291, Note_on_c, 0, 77, 0
3, 33291, Note_on_c, 0, 80, 75
3, 33325, Note_on_c, 0, 80, 0
3, 33325, Control_c, 0, 64, 0
3, 33325, Note_on_c, 0, 83, 75
3, 33360, Note_on_c, 0, 83, 0
3, 33360, Note_on_c, 0, 88, 114
3, 33600, Note_on_c, 0, 88, 0
3, 33600, Control_c, 0, 64, 127
3, 33600, Note_on_c, 0, 61, 75
3, 33634, Note_on_c, 0, 61, 0
3, 33634, Note_on_c, 0, 68, 75
3, 33668, Note_on_c, 0, 68, 0
3, 33668, Note_on_c, 0, 71, 75
3, 33702, Note_on_c, 0, 71, 0
3, 33702, Note_on_c, 0, 73, 75
3, 33737, Note_on_c, 0, 73, 0
3, 33737, Note_on_c, 0, 77, 75
3, 33771, Note_on_c, 0, 77, 0
3, 33771, Note_on_c, 0, 80, 75
3, 33805, Note_on_c, 0, 80, 0
3, 33805, Control_c, 0, 64, 0
3, 33805, Note_on_c, 0, 85, 75
3, 33840, Note_on_c, 0, 85, 0
3, 33840, Note_on_c, 0, 89, 114
3, 34080, Note_on_c, 0, 89, 0
3, 34080, Control_c, 0, 64, 127
3, 34080, Note_on_c, 0, 73, 75
3, 34114, Note_on_c, 0, 73, 0
3, 34114, Note_on_c, 0, 77, 75
3, 34148, Note_on_c, 0, 77, 0
3, 34148, Note_on_c, 0, 80, 75
3, 34182, Note_on_c, 0, 80, 0
3, 34182, Note_on_c, 0, 83, 75
3, 34217, Note_on_c, 0, 83, 0
3, 34217, Note_on_c, 0, 85, 75
3, 34251, Note_on_c, 0, 85, 0
3, 34251, Note_on_c, 0, 89, 75
3, 34285, Note_on_c, 0, 89, 0
3, 34285, Control_c, 0, 64, 0
3, 34285, Note_on_c, 0, 92, 75
3, 34320, Note_on_c, 0, 92, 0
3, 34320, Control_c, 0, 64, 127
3, 34320, Note_on_c, 0, 95, 114
3, 35520, Note_on_c, 0, 95, 0
3, 35520, Control_c, 0, 64, 127
3, 35520, Note_on_c, 0, 95, 88
3, 35567, Note_on_c, 0, 95, 0
3, 35567, Note_on_c, 0, 92, 88
3, 35616, Note_on_c, 0, 92, 0
3, 35616, Note_on_c, 0, 89, 88
3, 35663, Note_on_c, 0, 89, 0
3, 35663, Note_on_c, 0, 85, 88
3, 35712, Note_on_c, 0, 85, 0
3, 35712, Note_on_c, 0, 83, 88
3, 35760, Note_on_c, 0, 83, 0
3, 35760, Note_on_c, 0, 80, 88
3, 35807, Note_on_c, 0, 80, 0
3, 35807, Note_on_c, 0, 77, 88
3, 35856, Note_on_c, 0, 77, 0
3, 35856, Note_on_c, 0, 73, 88
3, 35903, Note_on_c, 0, 73, 0
3, 35903, Note_on_c, 0, 71, 88
3, 35952, Note_on_c, 0, 71, 0
3, 35952, Note_on_c, 0, 68, 88
3, 36000, Note_on_c, 0, 68, 0
3, 36000, Note_on_c, 0, 65, 75
3, 36053, Note_on_c, 0, 65, 0
3, 36053, Note_on_c, 0, 61, 75
3, 36106, Note_on_c, 0, 61, 0
3, 36106, Note_on_c, 0, 59, 75
3, 36159, Note_on_c, 0, 59, 0
3, 36159, Note_on_c, 0, 56, 75
3, 36213, Note_on_c, 0, 56, 0
3, 36213, Note_on_c, 0, 53, 75
3, 36266, Note_on_c, 0, 53, 0
3, 36266, Note_on_c, 0, 49, 75
3, 36320, Note_on_c, 0, 49, 0
3, 36320, Note_on_c, 0, 47, 75
3, 36373, Note_on_c, 0, 47, 0
3, 36373, Note_on_c, 0, 44, 75
3, 36426, Note_on_c, 0, 44, 0
3, 36426, Control_c, 0, 64, 0
3, 36426, Note_on_c, 0, 41, 75
3, 36480, Note_on_c, 0, 41, 0
3, 145920, Note_on_c, 0, 66, 62
3, 146160, Note_on_c, 0, 66, 0
3, 146160, Note_on_c, 0, 65, 62
3, 146400, Note_on_c, 0, 65, 0
3, 146400, Note_on_c, 0, 63, 62
3, 146640, Note_on_c, 0, 63, 0
3, 146640, Note_on_c, 0, 58, 62
3, 147120, Note_on_c, 0, 58, 0
3, 147120, Note_on_c, 0, 59, 62
3, 147360, Note_on_c, 0, 59, 0
3, 147360, Note_on_c, 0, 58, 62
3, 148560, Note_on_c, 0, 58, 0
3, 153840, Note_on_c, 0, 61, 62
3, 153840, Note_on_c, 0, 64, 62
3, 153840, Note_on_c, 0, 73, 62
3, 154320, Note_on_c, 0, 73, 0
3, 154320, Note_on_c, 0, 64, 0
3, 154320, Note_on_c, 0, 61, 0
3, 156720, Note_on_c, 0, 63, 62
3, 156720, Note_on_c, 0, 66, 62
3, 156720, Note_on_c, 0, 75, 62
3, 157200, Note_on_c, 0, 75, 0
3, 157200, Note_on_c, 0, 66, 0
3, 157200, Note_on_c, 0, 63, 0
3, 173520, Note_on_c, 0, 63, 49
3, 173760, Note_on_c, 0, 63, 0
3, 174000, Note_on_c, 0, 65, 49
3, 174240, Note_on_c, 0, 65, 0
3, 174480, Note_on_c, 0, 64, 49
3, 174720, Note_on_c, 0, 64, 0
3, 174720, End_track
4, 0, Start_track
4, 0, Title_t, "Grand Piano"
4, 0, Program_c, 0, 0
4, 0, Control_c, 0, 7, 115
4, 0, Control_c, 0, 10, 41
4, 240, Note_on_c, 0, 66, 49
4, 240, Note_on_c, 0, 69, 49
4, 720, Note_on_c, 0, 69, 0
4, 720, Note_on_c, 0, 66, 0
4, 720, Note_on_c, 0, 66, 49
4, 720, Note_on_c, 0, 69, 49
4, 1200, Note_on_c, 0, 69, 0
4, 1200, Note_on_c, 0, 66, 0
4, 1200, Note_on_c, 0, 66, 49
4, 1200, Note_on_c, 0, 69, 49
4, 1680, Note_on_c, 0, 69, 0
4, 1680, Note_on_c, 0, 66, 0
4, 1680, Note_on_c, 0, 66, 49
4, 1680, Note_on_c, 0, 69, 49
4, 1920, Note_on_c, 0, 69, 0
4, 1920, Note_on_c, 0, 66, 0
4, 1920, Note_on_c, 0, 64, 49
4, 1920, Note_on_c, 0, 67, 49
4, 1920, Note_on_c, 0, 69, 49
4, 3840, Note_on_c, 0, 69, 0
4, 3840, Note_on_c, 0, 67, 0
4, 3840, Note_on_c, 0, 64, 0
4, 3840, Note_on_c, 0, 40, 62
4, 4080, Note_on_c, 0, 40, 0
4, 4080, Note_on_c, 0, 64, 49
4, 4080, Note_on_c, 0, 67, 49
4, 4560, Note_on_c, 0, 67, 0
4, 4560, Note_on_c, 0, 64, 0
4, 4560, Note_on_c, 0, 64, 49
4, 4560, Note_on_c, 0, 67, 49
4, 5040, Note_on_c, 0, 67, 0
4, 5040, Note_on_c, 0, 64, 0
4, 5040, Note_on_c, 0, 64, 62
4, 5040, Note_on_c, 0, 67, 62
4, 5520, Note_on_c, 0, 67, 0
4, 5520, Note_on_c, 0, 64, 0
4, 5520, Note_on_c, 0, 64, 62
4, 5520, Note_on_c, 0, 67, 62
4, 5760, Note_on_c, 0, 67, 0
4, 5760, Note_on_c, 0, 64, 0
4, 5760, Note_on_c, 0, 62, 62
4, 5760, Note_on_c, 0, 68, 62
4, 7680, Note_on_c, 0, 68, 0
4, 7680, Note_on_c, 0, 62, 0
4, 9840, Note_on_c, 0, 62, 62
4, 9840, Note_on_c, 0, 68, 62
4, 10320, Note_on_c, 0, 68, 0
4, 10320, Note_on_c, 0, 62, 0
4, 10320, Note_on_c, 0, 62, 62
4, 10320, Note_on_c, 0, 68, 62
4, 10800, Note_on_c, 0, 68, 0
4, 10800, Note_on_c, 0, 62, 0
4, 10800, Note_on_c, 0, 62, 62
4, 10800, Note_on_c, 0, 68, 62
4, 11280, Note_on_c, 0, 68, 0
4, 11280, Note_on_c, 0, 62, 0
4, 11280, Note_on_c, 0, 62, 62
4, 11280, Note_on_c, 0, 68, 62
4, 11520, Note_on_c, 0, 68, 0
4, 11520, Note_on_c, 0, 62, 0
4, 11520, Note_on_c, 0, 61, 75
4, 11520, Note_on_c, 0, 68, 75
4, 13440, Note_on_c, 0, 68, 0
4, 13440, Note_on_c, 0, 61, 0
4, 19200, Note_on_c, 0, 37, 62
4, 19680, Note_on_c, 0, 37, 0
4, 36480, Note_on_c, 0, 37, 88
4, 36900, Note_on_c, 0, 39, 88
4, 36960, Note_on_c, 0, 37, 0
4, 36960, Note_on_c, 0, 51, 88
4, 37440, Note_on_c, 0, 51, 0
4, 37440, Note_on_c, 0, 39, 0
4, 37860, Note_on_c, 0, 40, 75
4, 37920, Note_on_c, 0, 52, 75
4, 38400, Note_on_c, 0, 52, 0
4, 38400, Note_on_c, 0, 40, 0
4, 38820, Note_on_c, 0, 41, 62
4, 38880, Note_on_c, 0, 53, 62
4, 39360, Note_on_c, 0, 53, 0
4, 39360, Note_on_c, 0, 41, 0
4, 40320, Note_on_c, 0, 42, 49
4, 40320, Note_on_c, 0, 54, 49
4, 41040, Note_on_c, 0, 54, 0
4, 41040, Note_on_c, 0, 42, 0
4, 41760, Note_on_c, 0, 42, 49
4, 41760, Note_on_c, 0, 54, 49
4, 42240, Note_on_c, 0, 54, 0
4, 42240, Note_on_c, 0, 42, 0
4, 42390, Note_on_c, 0, 58, 49
4, 42420, Note_on_c, 0, 61, 49
4, 42450, Note_on_c, 0, 66, 49
4, 42480, Note_on_c, 0, 70, 49
4, 42960, Note_on_c, 0, 70, 0
4, 42960, Note_on_c, 0, 58, 0
4, 42960, Note_on_c, 0, 61, 0
4, 42960, Note_on_c, 0, 66, 0
4, 43200, Note_on_c, 0, 42, 49
4, 43200, Note_on_c, 0, 54, 49
4, 43680, Note_on_c, 0, 54, 0
4, 43680, Note_on_c, 0, 42, 0
4, 43840, Note_on_c, 0, 58, 49
4, 43880, Note_on_c, 0, 61, 49
4, 43920, Note_on_c, 0, 66, 49
4, 44400, Note_on_c, 0, 66, 0
4, 44400, Note_on_c, 0, 61, 0
4, 44400, Note_on_c, 0, 58, 0
4, 44640, Note_on_c, 0, 42, 49
4, 44640, Note_on_c, 0, 54, 49
4, 45120, Note_on_c, 0, 54, 0
4, 45120, Note_on_c, 0, 42, 0
4, 45280, Note_on_c, 0, 59, 49
4, 45320, Note_on_c, 0, 61, 49
4, 45360, Note_on_c, 0, 65, 49
4, 45840, Note_on_c, 0, 65, 0
4, 45840, Note_on_c, 0, 61, 0
4, 45840, Note_on_c, 0, 59, 0
4, 46080, Note_on_c, 0, 42, 49
4, 46080, Note_on_c, 0, 54, 49
4, 46560, Note_on_c, 0, 54, 0
4, 46560, Note_on_c, 0, 42, 0
4, 46720, Note_on_c, 0, 58, 49
4, 46760, Note_on_c, 0, 61, 49
4, 46800, Note_on_c, 0, 66, 49
4, 47280, Note_on_c, 0, 66, 0
4, 47280, Note_on_c, 0, 61, 0
4, 47280, Note_on_c, 0, 58, 0
4, 47520, Note_on_c, 0, 41, 49
4, 47520, Note_on_c, 0, 53, 49
4, 48000, Note_on_c, 0, 53, 0
4, 48000, Note_on_c, 0, 41, 0
4, 48160, Note_on_c, 0, 56, 49
4, 48200, Note_on_c, 0, 61, 49
4, 48240, Note_on_c, 0, 68, 49
4, 48720, Note_on_c, 0, 68, 0
4, 48720, Note_on_c, 0, 61, 0
4, 48720, Note_on_c, 0, 56, 0
4, 48960, Note_on_c, 0, 39, 49
4, 48960, Note_on_c, 0, 51, 49
4, 49440, Note_on_c, 0, 51, 0
4, 49440, Note_on_c, 0, 39, 0
4, 49600, Note_on_c, 0, 58, 49
4, 49640, Note_on_c, 0, 63, 49
4, 49680, Note_on_c, 0, 66, 49
4, 50160, Note_on_c, 0, 66, 0
4, 50160, Note_on_c, 0, 63, 0
4, 50160, Note_on_c, 0, 58, 0
4, 50400, Note_on_c, 0, 37, 49
4, 50400, Note_on_c, 0, 49, 49
4, 50880, Note_on_c, 0, 49, 0
4, 50880, Note_on_c, 0, 37, 0
4, 51030, Note_on_c, 0, 49, 49
4, 51060, Note_on_c, 0, 58, 49
4, 51090, Note_on_c, 0, 61, 49
4, 51120, Note_on_c, 0, 67, 49
4, 51600, Note_on_c, 0, 67, 0
4, 51600, Note_on_c, 0, 49, 0
4, 51600, Note_on_c, 0, 58, 0
4, 51600, Note_on_c, 0, 61, 0
4, 51760, Note_on_c, 0, 47, 49
4, 51800, Note_on_c, 0, 56, 49
4, 51840, Note_on_c, 0, 63, 49
4, 52320, Note_on_c, 0, 63, 0
4, 52320, Note_on_c, 0, 56, 0
4, 52320, Note_on_c, 0, 47, 0
4, 52470, Note_on_c, 0, 44, 49
4, 52500, Note_on_c, 0, 56, 49
4, 52530, Note_on_c, 0, 59, 49
4, 52560, Note_on_c, 0, 63, 49
4, 53040, Note_on_c, 0, 63, 0
4, 53040, Note_on_c, 0, 44, 0
4, 53040, Note_on_c, 0, 56, 0
4, 53040, Note_on_c, 0, 59, 0
4, 53280, Note_on_c, 0, 39, 49
4, 53280, Note_on_c, 0, 51, 49
4, 53760, Note_on_c, 0, 51, 0
4, 53760, Note_on_c, 0, 39, 0
4, 53920, Note_on_c, 0, 58, 49
4, 53960, Note_on_c, 0, 63, 49
4, 54000, Note_on_c, 0, 67, 49
4, 54480, Note_on_c, 0, 67, 0
4, 54480, Note_on_c, 0, 63, 0
4, 54480, Note_on_c, 0, 58, 0
4, 54720, Note_on_c, 0, 47, 49
4, 54720, Note_on_c, 0, 59, 49
4, 55200, Note_on_c, 0, 59, 0
4, 55200, Note_on_c, 0, 47, 0
4, 55380, Note_on_c, 0, 63, 49
4, 55440, Note_on_c, 0, 68, 49
4, 55920, Note_on_c, 0, 68, 0
4, 55920, Note_on_c, 0, 63, 0
4, 56160, Note_on_c, 0, 34, 49
4, 56160, Note_on_c, 0, 46, 49
4, 56640, Note_on_c, 0, 46, 0
4, 56640, Note_on_c, 0, 34, 0
4, 56800, Note_on_c, 0, 61, 49
4, 56840, Note_on_c, 0, 64, 49
4, 56880, Note_on_c, 0, 68, 49
4, 57360, Note_on_c, 0, 68, 0
4, 57360, Note_on_c, 0, 64, 0
4, 57360, Note_on_c, 0, 61, 0
4, 57600, Note_on_c, 0, 49, 49
4, 57600, Note_on_c, 0, 61, 49
4, 58080, Note_on_c, 0, 61, 0
4, 58080, Note_on_c, 0, 49, 0
4, 58260, Note_on_c, 0, 64, 49
4, 58320, Note_on_c, 0, 70, 49
4, 58800, Note_on_c, 0, 70, 0
4, 58800, Note_on_c, 0, 64, 0
4, 59040, Note_on_c, 0, 48, 49
4, 59040, Note_on_c, 0, 60, 49
4, 59520, Note_on_c, 0, 60, 0
4, 59520, Note_on_c, 0, 48, 0
4, 59700, Note_on_c, 0, 63, 49
4, 59760, Note_on_c, 0, 69, 49
4, 60240, Note_on_c, 0, 69, 0
4, 60240, Note_on_c, 0, 63, 0
4, 60480, Note_on_c, 0, 39, 49
4, 60480, Note_on_c, 0, 51, 49
4, 60960, Note_on_c, 0, 51, 0
4, 60960, Note_on_c, 0, 39, 0
4, 61110, Note_on_c, 0, 54, 49
4, 61140, Note_on_c, 0, 57, 49
4, 61170, Note_on_c, 0, 60, 49
4, 61200, Note_on_c, 0, 66, 49
4, 61680, Note_on_c, 0, 66, 0
4, 61680, Note_on_c, 0, 54, 0
4, 61680, Note_on_c, 0, 57, 0
4, 61680, Note_on_c, 0, 60, 0
4, 61824, Note_on_c, 0, 49, 49
4, 61848, Note_on_c, 0, 53, 49
4, 61872, Note_on_c, 0, 61, 49
4, 61896, Note_on_c, 0, 65, 49
4, 61920, Note_on_c, 0, 70, 49
4, 62400, Note_on_c, 0, 70, 0
4, 62400, Note_on_c, 0, 61, 0
4, 62400, Note_on_c, 0, 49, 0
4, 62400, Note_on_c, 0, 53, 0
4, 62400, Note_on_c, 0, 65, 0
4, 62544, Note_on_c, 0, 48, 49
4, 62568, Note_on_c, 0, 53, 49
4, 62592, Note_on_c, 0, 60, 49
4, 62616, Note_on_c, 0, 69, 49
4, 62640, Note_on_c, 0, 75, 49
4, 63120, Note_on_c, 0, 75, 0
4, 63120, Note_on_c, 0, 60, 0
4, 63120, Note_on_c, 0, 48, 0
4, 63120, Note_on_c, 0, 53, 0
4, 63120, Note_on_c, 0, 69, 0
4, 63270, Note_on_c, 0, 46, 49
4, 63300, Note_on_c, 0, 50, 49
4, 63330, Note_on_c, 0, 53, 49
4, 63360, Note_on_c, 0, 58, 49
4, 63840, Note_on_c, 0, 58, 0
4, 63840, Note_on_c, 0, 46, 0
4, 63840, Note_on_c, 0, 50, 0
4, 63840, Note_on_c, 0, 53, 0
4, 63990, Note_on_c, 0, 62, 49
4, 64020, Note_on_c, 0, 65, 49
4, 64050, Note_on_c, 0, 70, 49
4, 64080, Note_on_c, 0, 74, 49
4, 64560, Note_on_c, 0, 74, 0
4, 64560, Note_on_c, 0, 62, 0
4, 64560, Note_on_c, 0, 65, 0
4, 64560, Note_on_c, 0, 70, 0
4, 64701, Note_on_c, 0, 51, 49
4, 64721, Note_on_c, 0, 54, 49
4, 64740, Note_on_c, 0, 58, 49
4, 64760, Note_on_c, 0, 66, 49
4, 64780, Note_on_c, 0, 70, 49
4, 64800, Note_on_c, 0, 75, 49
4, 65280, Note_on_c, 0, 75, 0
4, 65280, Note_on_c, 0, 54, 0
4, 65280, Note_on_c, 0, 58, 0
4, 65280, Note_on_c, 0, 51, 0
4, 65280, Note_on_c, 0, 70, 0
4, 65280, Note_on_c, 0, 66, 0
4, 65430, Note_on_c, 0, 42, 49
4, 65460, Note_on_c, 0, 54, 49
4, 65490, Note_on_c, 0, 63, 49
4, 65520, Note_on_c, 0, 70, 49
4, 66000, Note_on_c, 0, 70, 0
4, 66000, Note_on_c, 0, 42, 0
4, 66000, Note_on_c, 0, 54, 0
4, 66000, Note_on_c, 0, 63, 0
4, 66240, Note_on_c, 0, 44, 49
4, 66240, Note_on_c, 0, 56, 49
4, 66720, Note_on_c, 0, 56, 0
4, 66720, Note_on_c, 0, 44, 0
4, 66880, Note_on_c, 0, 59, 49
4, 66920, Note_on_c, 0, 63, 49
4, 66960, Note_on_c, 0, 68, 49
4, 67440, Note_on_c, 0, 68, 0
4, 67440, Note_on_c, 0, 63, 0
4, 67440, Note_on_c, 0, 59, 0
4, 67680, Note_on_c, 0, 46, 49
4, 67680, Note_on_c, 0, 58, 49
4, 68160, Note_on_c, 0, 58, 0
4, 68160, Note_on_c, 0, 46, 0
4, 68320, Note_on_c, 0, 58, 49
4, 68360, Note_on_c, 0, 63, 49
4, 68400, Note_on_c, 0, 66, 49
4, 68880, Note_on_c, 0, 66, 0
4, 68880, Note_on_c, 0, 63, 0
4, 68880, Note_on_c, 0, 58, 0
4, 69120, Note_on_c, 0, 46, 49
4, 69120, Note_on_c, 0, 58, 49
4, 69600, Note_on_c, 0, 58, 0
4, 69600, Note_on_c, 0, 46, 0
4, 69840, Note_on_c, 0, 62, 49
4, 69840, Note_on_c, 0, 68, 49
4, 69840, Note_on_c, 0, 74, 49
4, 70320, Note_on_c, 0, 74, 0
4, 70320, Note_on_c, 0, 68, 0
4, 70320, Note_on_c, 0, 62, 0
4, 70560, Note_on_c, 0, 47, 49
4, 70560, Note_on_c, 0, 59, 49
4, 71040, Note_on_c, 0, 59, 0
4, 71040, Note_on_c, 0, 47, 0
4, 71200, Note_on_c, 0, 59, 49
4, 71240, Note_on_c, 0, 63, 49
4, 71280, Note_on_c, 0, 66, 49
4, 71760, Note_on_c, 0, 66, 0
4, 71760, Note_on_c, 0, 63, 0
4, 71760, Note_on_c, 0, 59, 0
4, 72000, Note_on_c, 0, 44, 49
4, 72000, Note_on_c, 0, 56, 49
4, 72480, Note_on_c, 0, 56, 0
4, 72480, Note_on_c, 0, 44, 0
4, 72640, Note_on_c, 0, 59, 49
4, 72680, Note_on_c, 0, 63, 49
4, 72720, Note_on_c, 0, 65, 49
4, 73200, Note_on_c, 0, 65, 0
4, 73200, Note_on_c, 0, 63, 0
4, 73200, Note_on_c, 0, 59, 0
4, 73440, Note_on_c, 0, 46, 49
4, 73440, Note_on_c, 0, 58, 49
4, 73920, Note_on_c, 0, 58, 0
4, 73920, Note_on_c, 0, 46, 0
4, 74100, Note_on_c, 0, 58, 49
4, 74160, Note_on_c, 0, 63, 49
4, 74640, Note_on_c, 0, 63, 0
4, 74640, Note_on_c, 0, 58, 0
4, 74784, Note_on_c, 0, 46, 49
4, 74808, Note_on_c, 0, 53, 49
4, 74832, Note_on_c, 0, 56, 49
4, 74856, Note_on_c, 0, 62, 49
4, 74880, Note_on_c, 0, 65, 49
4, 75360, Note_on_c, 0, 65, 0
4, 75360, Note_on_c, 0, 56, 0
4, 75360, Note_on_c, 0, 46, 0
4, 75360, Note_on_c, 0, 53, 0
4, 75360, Note_on_c, 0, 62, 0
4, 75501, Note_on_c, 0, 46, 49
4, 75521, Note_on_c, 0, 58, 49
4, 75540, Note_on_c, 0, 65, 49
4, 75560, Note_on_c, 0, 68, 49
4, 75580, Note_on_c, 0, 74, 49
4, 75600, Note_on_c, 0, 77, 49
4, 76080, Note_on_c, 0, 77, 0
4, 76080, Note_on_c, 0, 58, 0
4, 76080, Note_on_c, 0, 65, 0
4, 76080, Note_on_c, 0, 46, 0
4, 76080, Note_on_c, 0, 74, 0
4, 76080, Note_on_c, 0, 68, 0
4, 76320, Note_on_c, 0, 63, 49
4, 76560, Note_on_c, 0, 63, 0
4, 76560, Note_on_c, 0, 51, 49
4, 76800, Note_on_c, 0, 51, 0
4, 76800, Note_on_c, 0, 63, 49
4, 77040, Note_on_c, 0, 63, 0
4, 77040, Note_on_c, 0, 61, 49
4, 77040, Note_on_c, 0, 63, 49
4, 77280, Note_on_c, 0, 63, 0
4, 77280, Note_on_c, 0, 61, 0
4, 77280, Note_on_c, 0, 51, 49
4, 77520, Note_on_c, 0, 51, 0
4, 77520, Note_on_c, 0, 61, 49
4, 77520, Note_on_c, 0, 63, 49
4, 77760, Note_on_c, 0, 63, 0
4, 77760, Note_on_c, 0, 61, 0
4, 77760, Note_on_c, 0, 60, 49
4, 77760, Note_on_c, 0, 63, 49
4, 78000, Note_on_c, 0, 63, 0
4, 78000, Note_on_c, 0, 60, 0
4, 78000, Note_on_c, 0, 51, 49
4, 78240, Note_on_c, 0, 51, 0
4, 78240, Note_on_c, 0, 60, 49
4, 78240, Note_on_c, 0, 63, 49
4, 78480, Note_on_c, 0, 63, 0
4, 78480, Note_on_c, 0, 60, 0
4, 78480, Note_on_c, 0, 59, 49
4, 78480, Note_on_c, 0, 63, 49
4, 78720, Note_on_c, 0, 63, 0
4, 78720, Note_on_c, 0, 59, 0
4, 78720, Note_on_c, 0, 51, 49
4, 78960, Note_on_c, 0, 51, 0
4, 78960, Note_on_c, 0, 59, 49
4, 78960, Note_on_c, 0, 63, 49
4, 79200, Note_on_c, 0, 63, 0
4, 79200, Note_on_c, 0, 59, 0
4, 79200, Note_on_c, 0, 58, 49
4, 79200, Note_on_c, 0, 63, 49
4, 79440, Note_on_c, 0, 63, 0
4, 79440, Note_on_c, 0, 58, 0
4, 79440, Note_on_c, 0, 51, 49
4, 79680, Note_on_c, 0, 51, 0
4, 79680, Note_on_c, 0, 58, 49
4, 79680, Note_on_c, 0, 63, 49
4, 79920, Note_on_c, 0, 63, 0
4, 79920, Note_on_c, 0, 58, 0
4, 79920, Note_on_c, 0, 61, 49
4, 79920, Note_on_c, 0, 63, 49
4, 80160, Note_on_c, 0, 63, 0
4, 80160, Note_on_c, 0, 61, 0
4, 80160, Note_on_c, 0, 51, 49
4, 80400, Note_on_c, 0, 51, 0
4, 80400, Note_on_c, 0, 61, 49
4, 80400, Note_on_c, 0, 63, 49
4, 80640, Note_on_c, 0, 63, 0
4, 80640, Note_on_c, 0, 61, 0
4, 80640, Note_on_c, 0, 60, 49
4, 80640, Note_on_c, 0, 63, 49
4, 80880, Note_on_c, 0, 63, 0
4, 80880, Note_on_c, 0, 60, 0
4, 80880, Note_on_c, 0, 51, 49
4, 81120, Note_on_c, 0, 51, 0
4, 81120, Note_on_c, 0, 60, 49
4, 81120, Note_on_c, 0, 63, 49
4, 81360, Note_on_c, 0, 63, 0
4, 81360, Note_on_c, 0, 60, 0
4, 81360, Note_on_c, 0, 59, 49
4, 81360, Note_on_c, 0, 63, 49
4, 81600, Note_on_c, 0, 63, 0
4, 81600, Note_on_c, 0, 59, 0
4, 81600, Note_on_c, 0, 51, 49
4, 81840, Note_on_c, 0, 51, 0
4, 81840, Note_on_c, 0, 59, 49
4, 81840, Note_on_c, 0, 63, 49
4, 82080, Note_on_c, 0, 63, 0
4, 82080, Note_on_c, 0, 59, 0
4, 82080, Note_on_c, 0, 58, 49
4, 82080, Note_on_c, 0, 63, 49
4, 82320, Note_on_c, 0, 63, 0
4, 82320, Note_on_c, 0, 58, 0
4, 82320, Note_on_c, 0, 51, 49
4, 82560, Note_on_c, 0, 51, 0
4, 82560, Note_on_c, 0, 58, 49
4, 82560, Note_on_c, 0, 63, 49
4, 82800, Note_on_c, 0, 63, 0
4, 82800, Note_on_c, 0, 58, 0
4, 82800, Note_on_c, 0, 61, 49
4, 82800, Note_on_c, 0, 63, 49
4, 83040, Note_on_c, 0, 63, 0
4, 83040, Note_on_c, 0, 61, 0
4, 83040, Note_on_c, 0, 51, 49
4, 83280, Note_on_c, 0, 51, 0
4, 83280, Note_on_c, 0, 61, 49
4, 83280, Note_on_c, 0, 63, 49
4, 83520, Note_on_c, 0, 63, 0
4, 83520, Note_on_c, 0, 61, 0
4, 83520, Note_on_c, 0, 60, 49
4, 83520, Note_on_c, 0, 63, 49
4, 83760, Note_on_c, 0, 63, 0
4, 83760, Note_on_c, 0, 60, 0
4, 83760, Note_on_c, 0, 51, 49
4, 84000, Note_on_c, 0, 51, 0
4, 84000, Note_on_c, 0, 60, 49
4, 84000, Note_on_c, 0, 63, 49
4, 84240, Note_on_c, 0, 63, 0
4, 84240, Note_on_c, 0, 60, 0
4, 84240, Note_on_c, 0, 59, 62
4, 84240, Note_on_c, 0, 63, 62
4, 84480, Note_on_c, 0, 63, 0
4, 84480, Note_on_c, 0, 59, 0
4, 84480, Note_on_c, 0, 51, 62
4, 84720, Note_on_c, 0, 51, 0
4, 84720, Note_on_c, 0, 59, 62
4, 84720, Note_on_c, 0, 63, 62
4, 84960, Note_on_c, 0, 63, 0
4, 84960, Note_on_c, 0, 59, 0
4, 84960, Note_on_c, 0, 58, 62
4, 84960, Note_on_c, 0, 63, 62
4, 85200, Note_on_c, 0, 63, 0
4, 85200, Note_on_c, 0, 58, 0
4, 85200, Note_on_c, 0, 51, 62
4, 85440, Note_on_c, 0, 51, 0
4, 85440, Note_on_c, 0, 58, 62
4, 85440, Note_on_c, 0, 63, 62
4, 85680, Note_on_c, 0, 63, 0
4, 85680, Note_on_c, 0, 58, 0
4, 85680, Note_on_c, 0, 56, 62
4, 85680, Note_on_c, 0, 63, 62
4, 85920, Note_on_c, 0, 63, 0
4, 85920, Note_on_c, 0, 56, 0
4, 85920, Note_on_c, 0, 51, 62
4, 86160, Note_on_c, 0, 51, 0
4, 86160, Note_on_c, 0, 56, 62
4, 86160, Note_on_c, 0, 63, 62
4, 86400, Note_on_c, 0, 63, 0
4, 86400, Note_on_c, 0, 56, 0
4, 86400, Note_on_c, 0, 55, 62
4, 86400, Note_on_c, 0, 63, 62
4, 86640, Note_on_c, 0, 63, 0
4, 86640, Note_on_c, 0, 55, 0
4, 86640, Note_on_c, 0, 51, 62
4, 86880, Note_on_c, 0, 51, 0
4, 86880, Note_on_c, 0, 55, 62
4, 86880, Note_on_c, 0, 63, 62
4, 87120, Note_on_c, 0, 63, 0
4, 87120, Note_on_c, 0, 55, 0
4, 87120, Note_on_c, 0, 55, 62
4, 87120, Note_on_c, 0, 63, 62
4, 87360, Note_on_c, 0, 63, 0
4, 87360, Note_on_c, 0, 55, 0
4, 87360, Note_on_c, 0, 51, 62
4, 87600, Note_on_c, 0, 51, 0
4, 87600, Note_on_c, 0, 55, 62
4, 87600, Note_on_c, 0, 63, 62
4, 87840, Note_on_c, 0, 63, 0
4, 87840, Note_on_c, 0, 55, 0
4, 87840, Note_on_c, 0, 54, 62
4, 87840, Note_on_c, 0, 63, 62
4, 88080, Note_on_c, 0, 63, 0
4, 88080, Note_on_c, 0, 54, 0
4, 88080, Note_on_c, 0, 51, 62
4, 88320, Note_on_c, 0, 51, 0
4, 88320, Note_on_c, 0, 54, 62
4, 88320, Note_on_c, 0, 63, 62
4, 88560, Note_on_c, 0, 63, 0
4, 88560, Note_on_c, 0, 54, 0
4, 88560, Note_on_c, 0, 54, 62
4, 88560, Note_on_c, 0, 63, 62
4, 88800, Note_on_c, 0, 63, 0
4, 88800, Note_on_c, 0, 54, 0
4, 88800, Note_on_c, 0, 51, 62
4, 89040, Note_on_c, 0, 51, 0
4, 89040, Note_on_c, 0, 54, 62
4, 89040, Note_on_c, 0, 63, 62
4, 89280, Note_on_c, 0, 63, 0
4, 89280, Note_on_c, 0, 54, 0
4, 89280, Note_on_c, 0, 40, 49
4, 89520, Note_on_c, 0, 40, 0
4, 89520, Note_on_c, 0, 59, 49
4, 89520, Note_on_c, 0, 64, 49
4, 89520, Note_on_c, 0, 68, 49
4, 89760, Note_on_c, 0, 68, 0
4, 89760, Note_on_c, 0, 64, 0
4, 89760, Note_on_c, 0, 59, 0
4, 89760, Note_on_c, 0, 64, 49
4, 89760, Note_on_c, 0, 68, 49
4, 89760, Note_on_c, 0, 71, 49
4, 90000, Note_on_c, 0, 71, 0
4, 90000, Note_on_c, 0, 68, 0
4, 90000, Note_on_c, 0, 64, 0
4, 90000, Note_on_c, 0, 35, 49
4, 90000, Note_on_c, 0, 47, 49
4, 90240, Note_on_c, 0, 47, 0
4, 90240, Note_on_c, 0, 35, 0
4, 90240, Note_on_c, 0, 59, 49
4, 90240, Note_on_c, 0, 64, 49
4, 90240, Note_on_c, 0, 68, 49
4, 90480, Note_on_c, 0, 68, 0
4, 90480, Note_on_c, 0, 64, 0
4, 90480, Note_on_c, 0, 59, 0
4, 90480, Note_on_c, 0, 64, 49
4, 90480, Note_on_c, 0, 68, 49
4, 90480, Note_on_c, 0, 71, 49
4, 90720, Note_on_c, 0, 71, 0
4, 90720, Note_on_c, 0, 68, 0
4, 90720, Note_on_c, 0, 64, 0
4, 90720, Note_on_c, 0, 40, 49
4, 90960, Note_on_c, 0, 40, 0
4, 90960, Note_on_c, 0, 59, 49
4, 90960, Note_on_c, 0, 64, 49
4, 90960, Note_on_c, 0, 68, 49
4, 91200, Note_on_c, 0, 68, 0
4, 91200, Note_on_c, 0, 64, 0
4, 91200, Note_on_c, 0, 59, 0
4, 91200, Note_on_c, 0, 64, 49
4, 91200, Note_on_c, 0, 68, 49
4, 91200, Note_on_c, 0, 71, 49
4, 91440, Note_on_c, 0, 71, 0
4, 91440, Note_on_c, 0, 68, 0
4, 91440, Note_on_c, 0, 64, 0
4, 91440, Note_on_c, 0, 35, 49
4, 91680, Note_on_c, 0, 35, 0
4, 91680, Note_on_c, 0, 59, 49
4, 91680, Note_on_c, 0, 64, 49
4, 91680, Note_on_c, 0, 68, 49
4, 91920, Note_on_c, 0, 68, 0
4, 91920, Note_on_c, 0, 64, 0
4, 91920, Note_on_c, 0, 59, 0
4, 91920, Note_on_c, 0, 64, 49
4, 91920, Note_on_c, 0, 68, 49
4, 91920, Note_on_c, 0, 71, 49
4, 92160, Note_on_c, 0, 71, 0
4, 92160, Note_on_c, 0, 68, 0
4, 92160, Note_on_c, 0, 64, 0
4, 92160, Note_on_c, 0, 40, 49
4, 92400, Note_on_c, 0, 40, 0
4, 92400, Note_on_c, 0, 59, 49
4, 92400, Note_on_c, 0, 64, 49
4, 92400, Note_on_c, 0, 68, 49
4, 92640, Note_on_c, 0, 68, 0
4, 92640, Note_on_c, 0, 64, 0
4, 92640, Note_on_c, 0, 59, 0
4, 92640, Note_on_c, 0, 64, 49
4, 92640, Note_on_c, 0, 68, 49
4, 92640, Note_on_c, 0, 71, 49
4, 92880, Note_on_c, 0, 71, 0
4, 92880, Note_on_c, 0, 68, 0
4, 92880, Note_on_c, 0, 64, 0
4, 92880, Note_on_c, 0, 35, 49
4, 93120, Note_on_c, 0, 35, 0
4, 93120, Note_on_c, 0, 59, 49
4, 93120, Note_on_c, 0, 64, 49
4, 93120, Note_on_c, 0, 68, 49
4, 93360, Note_on_c, 0, 68, 0
4, 93360, Note_on_c, 0, 64, 0
4, 93360, Note_on_c, 0, 59, 0
4, 93360, Note_on_c, 0, 64, 49
4, 93360, Note_on_c, 0, 68, 49
4, 93360, Note_on_c, 0, 71, 49
4, 93600, Note_on_c, 0, 71, 0
4, 93600, Note_on_c, 0, 68, 0
4, 93600, Note_on_c, 0, 64, 0
4, 93600, Note_on_c, 0, 40, 49
4, 93840, Note_on_c, 0, 40, 0
4, 93840, Note_on_c, 0, 59, 49
4, 93840, Note_on_c, 0, 64, 49
4, 93840, Note_on_c, 0, 68, 49
4, 94080, Note_on_c, 0, 68, 0
4, 94080, Note_on_c, 0, 64, 0
4, 94080, Note_on_c, 0, 59, 0
4, 94080, Note_on_c, 0, 64, 49
4, 94080, Note_on_c, 0, 68, 49
4, 94080, Note_on_c, 0, 71, 49
4, 94320, Note_on_c, 0, 71, 0
4, 94320, Note_on_c, 0, 68, 0
4, 94320, Note_on_c, 0, 64, 0
4, 94320, Note_on_c, 0, 35, 49
4, 94560, Note_on_c, 0, 35, 0
4, 94560, Note_on_c, 0, 59, 49
4, 94560, Note_on_c, 0, 64, 49
4, 94560, Note_on_c, 0, 68, 49
4, 94800, Note_on_c, 0, 68, 0
4, 94800, Note_on_c, 0, 64, 0
4, 94800, Note_on_c, 0, 59, 0
4, 94800, Note_on_c, 0, 64, 49
4, 94800, Note_on_c, 0, 68, 49
4, 94800, Note_on_c, 0, 71, 49
4, 95040, Note_on_c, 0, 71, 0
4, 95040, Note_on_c, 0, 68, 0
4, 95040, Note_on_c, 0, 64, 0
4, 95040, Note_on_c, 0, 40, 49
4, 95280, Note_on_c, 0, 40, 0
4, 95280, Note_on_c, 0, 59, 49
4, 95280, Note_on_c, 0, 64, 49
4, 95280, Note_on_c, 0, 68, 49
4, 95520, Note_on_c, 0, 68, 0
4, 95520, Note_on_c, 0, 64, 0
4, 95520, Note_on_c, 0, 59, 0
4, 95520, Note_on_c, 0, 64, 49
4, 95520, Note_on_c, 0, 68, 49
4, 95520, Note_on_c, 0, 71, 49
4, 95760, Note_on_c, 0, 71, 0
4, 95760, Note_on_c, 0, 68, 0
4, 95760, Note_on_c, 0, 64, 0
4, 95760, Note_on_c, 0, 35, 49
4, 96000, Note_on_c, 0, 35, 0
4, 96000, Note_on_c, 0, 59, 49
4, 96000, Note_on_c, 0, 64, 49
4, 96000, Note_on_c, 0, 68, 49
4, 96240, Note_on_c, 0, 68, 0
4, 96240, Note_on_c, 0, 64, 0
4, 96240, Note_on_c, 0, 59, 0
4, 96240, Note_on_c, 0, 64, 49
4, 96240, Note_on_c, 0, 68, 49
4, 96240, Note_on_c, 0, 71, 49
4, 96480, Note_on_c, 0, 71, 0
4, 96480, Note_on_c, 0, 68, 0
4, 96480, Note_on_c, 0, 64, 0
4, 96480, Note_on_c, 0, 41, 49
4, 96720, Note_on_c, 0, 41, 0
4, 96720, Note_on_c, 0, 59, 49
4, 96720, Note_on_c, 0, 61, 49
4, 96960, Note_on_c, 0, 61, 0
4, 96960, Note_on_c, 0, 59, 0
4, 96960, Note_on_c, 0, 59, 49
4, 96960, Note_on_c, 0, 61, 49
4, 96960, Note_on_c, 0, 68, 49
4, 97200, Note_on_c, 0, 68, 0
4, 97200, Note_on_c, 0, 61, 0
4, 97200, Note_on_c, 0, 59, 0
4, 97200, Note_on_c, 0, 49, 49
4, 97440, Note_on_c, 0, 49, 0
4, 97440, Note_on_c, 0, 56, 49
4, 97440, Note_on_c, 0, 61, 49
4, 97440, Note_on_c, 0, 65, 49
4, 97680, Note_on_c, 0, 65, 0
4, 97680, Note_on_c, 0, 61, 0
4, 97680, Note_on_c, 0, 56, 0
4, 97680, Note_on_c, 0, 61, 49
4, 97680, Note_on_c, 0, 65, 49
4, 97680, Note_on_c, 0, 68, 49
4, 97920, Note_on_c, 0, 68, 0
4, 97920, Note_on_c, 0, 65, 0
4, 97920, Note_on_c, 0, 61, 0
4, 97920, Note_on_c, 0, 42, 49
4, 98160, Note_on_c, 0, 42, 0
4, 98160, Note_on_c, 0, 57, 49
4, 98160, Note_on_c, 0, 61, 49
4, 98160, Note_on_c, 0, 66, 49
4, 98400, Note_on_c, 0, 66, 0
4, 98400, Note_on_c, 0, 61, 0
4, 98400, Note_on_c, 0, 57, 0
4, 98400, Note_on_c, 0, 61, 49
4, 98400, Note_on_c, 0, 66, 49
4, 98400, Note_on_c, 0, 69, 49
4, 98640, Note_on_c, 0, 69, 0
4, 98640, Note_on_c, 0, 66, 0
4, 98640, Note_on_c, 0, 61, 0
4, 98640, Note_on_c, 0, 37, 49
4, 98880, Note_on_c, 0, 37, 0
4, 98880, Note_on_c, 0, 57, 49
4, 98880, Note_on_c, 0, 61, 49
4, 98880, Note_on_c, 0, 66, 49
4, 99120, Note_on_c, 0, 66, 0
4, 99120, Note_on_c, 0, 61, 0
4, 99120, Note_on_c, 0, 57, 0
4, 99120, Note_on_c, 0, 61, 49
4, 99120, Note_on_c, 0, 66, 49
4, 99120, Note_on_c, 0, 69, 49
4, 99360, Note_on_c, 0, 69, 0
4, 99360, Note_on_c, 0, 66, 0
4, 99360, Note_on_c, 0, 61, 0
4, 99360, Note_on_c, 0, 42, 49
4, 99600, Note_on_c, 0, 42, 0
4, 99600, Note_on_c, 0, 57, 49
4, 99600, Note_on_c, 0, 61, 49
4, 99600, Note_on_c, 0, 66, 49
4, 99840, Note_on_c, 0, 66, 0
4, 99840, Note_on_c, 0, 61, 0
4, 99840, Note_on_c, 0, 57, 0
4, 99840, Note_on_c, 0, 61, 49
4, 99840, Note_on_c, 0, 66, 49
4, 99840, Note_on_c, 0, 69, 49
4, 100080, Note_on_c, 0, 69, 0
4, 100080, Note_on_c, 0, 66, 0
4, 100080, Note_on_c, 0, 61, 0
4, 100080, Note_on_c, 0, 37, 49
4, 100320, Note_on_c, 0, 37, 0
4, 100320, Note_on_c, 0, 57, 49
4, 100320, Note_on_c, 0, 61, 49
4, 100320, Note_on_c, 0, 66, 49
4, 100560, Note_on_c, 0, 66, 0
4, 100560, Note_on_c, 0, 61, 0
4, 100560, Note_on_c, 0, 57, 0
4, 100560, Note_on_c, 0, 61, 49
4, 100560, Note_on_c, 0, 66, 49
4, 100560, Note_on_c, 0, 69, 49
4, 100800, Note_on_c, 0, 69, 0
4, 100800, Note_on_c, 0, 66, 0
4, 100800, Note_on_c, 0, 61, 0
4, 100800, Note_on_c, 0, 42, 49
4, 101040, Note_on_c, 0, 42, 0
4, 101040, Note_on_c, 0, 57, 49
4, 101040, Note_on_c, 0, 61, 49
4, 101040, Note_on_c, 0, 66, 49
4, 101280, Note_on_c, 0, 66, 0
4, 101280, Note_on_c, 0, 61, 0
4, 101280, Note_on_c, 0, 57, 0
4, 101280, Note_on_c, 0, 61, 49
4, 101280, Note_on_c, 0, 66, 49
4, 101280, Note_on_c, 0, 69, 49
4, 101520, Note_on_c, 0, 69, 0
4, 101520, Note_on_c, 0, 66, 0
4, 101520, Note_on_c, 0, 61, 0
4, 101520, Note_on_c, 0, 37, 49
4, 101760, Note_on_c, 0, 37, 0
4, 101760, Note_on_c, 0, 57, 49
4, 101760, Note_on_c, 0, 61, 49
4, 101760, Note_on_c, 0, 66, 49
4, 102000, Note_on_c, 0, 66, 0
4, 102000, Note_on_c, 0, 61, 0
4, 102000, Note_on_c, 0, 57, 0
4, 102000, Note_on_c, 0, 61, 49
4, 102000, Note_on_c, 0, 66, 49
4, 102000, Note_on_c, 0, 69, 49
4, 102240, Note_on_c, 0, 69, 0
4, 102240, Note_on_c, 0, 66, 0
4, 102240, Note_on_c, 0, 61, 0
4, 102240, Note_on_c, 0, 42, 49
4, 102480, Note_on_c, 0, 42, 0
4, 102480, Note_on_c, 0, 57, 49
4, 102480, Note_on_c, 0, 61, 49
4, 102480, Note_on_c, 0, 66, 49
4, 102720, Note_on_c, 0, 66, 0
4, 102720, Note_on_c, 0, 61, 0
4, 102720, Note_on_c, 0, 57, 0
4, 102720, Note_on_c, 0, 61, 49
4, 102720, Note_on_c, 0, 66, 49
4, 102720, Note_on_c, 0, 69, 49
4, 102960, Note_on_c, 0, 69, 0
4, 102960, Note_on_c, 0, 66, 0
4, 102960, Note_on_c, 0, 61, 0
4, 102960, Note_on_c, 0, 37, 49
4, 103200, Note_on_c, 0, 37, 0
4, 103200, Note_on_c, 0, 57, 49
4, 103200, Note_on_c, 0, 61, 49
4, 103200, Note_on_c, 0, 66, 49
4, 103440, Note_on_c, 0, 66, 0
4, 103440, Note_on_c, 0, 61, 0
4, 103440, Note_on_c, 0, 57, 0
4, 103440, Note_on_c, 0, 61, 49
4, 103440, Note_on_c, 0, 66, 49
4, 103440, Note_on_c, 0, 69, 49
4, 103680, Note_on_c, 0, 69, 0
4, 103680, Note_on_c, 0, 66, 0
4, 103680, Note_on_c, 0, 61, 0
4, 103680, Note_on_c, 0, 42, 49
4, 103920, Note_on_c, 0, 42, 0
4, 103920, Note_on_c, 0, 57, 49
4, 103920, Note_on_c, 0, 61, 49
4, 103920, Note_on_c, 0, 66, 49
4, 104160, Note_on_c, 0, 66, 0
4, 104160, Note_on_c, 0, 61, 0
4, 104160, Note_on_c, 0, 57, 0
4, 104160, Note_on_c, 0, 61, 49
4, 104160, Note_on_c, 0, 66, 49
4, 104160, Note_on_c, 0, 69, 49
4, 104400, Note_on_c, 0, 69, 0
4, 104400, Note_on_c, 0, 66, 0
4, 104400, Note_on_c, 0, 61, 0
4, 104400, Note_on_c, 0, 37, 49
4, 104640, Note_on_c, 0, 37, 0
4, 104640, Note_on_c, 0, 57, 49
4, 104640, Note_on_c, 0, 61, 49
4, 104640, Note_on_c, 0, 66, 49
4, 104880, Note_on_c, 0, 66, 0
4, 104880, Note_on_c, 0, 61, 0
4, 104880, Note_on_c, 0, 57, 0
4, 104880, Note_on_c, 0, 61, 49
4, 104880, Note_on_c, 0, 66, 49
4, 104880, Note_on_c, 0, 69, 49
4, 105120, Note_on_c, 0, 69, 0
4, 105120, Note_on_c, 0, 66, 0
4, 105120, Note_on_c, 0, 61, 0
4, 105120, Note_on_c, 0, 42, 49
4, 105360, Note_on_c, 0, 42, 0
4, 105360, Note_on_c, 0, 57, 49
4, 105360, Note_on_c, 0, 63, 49
4, 105360, Note_on_c, 0, 66, 49
4, 105600, Note_on_c, 0, 66, 0
4, 105600, Note_on_c, 0, 63, 0
4, 105600, Note_on_c, 0, 57, 0
4, 105600, Note_on_c, 0, 63, 49
4, 105600, Note_on_c, 0, 66, 49
4, 105600, Note_on_c, 0, 69, 49
4, 105840, Note_on_c, 0, 69, 0
4, 105840, Note_on_c, 0, 66, 0
4, 105840, Note_on_c, 0, 63, 0
4, 105840, Note_on_c, 0, 48, 49
4, 106080, Note_on_c, 0, 48, 0
4, 106080, Note_on_c, 0, 57, 49
4, 106080, Note_on_c, 0, 63, 49
4, 106080, Note_on_c, 0, 66, 49
4, 106320, Note_on_c, 0, 66, 0
4, 106320, Note_on_c, 0, 63, 0
4, 106320, Note_on_c, 0, 57, 0
4, 106320, Note_on_c, 0, 63, 49
4, 106320, Note_on_c, 0, 66, 49
4, 106320, Note_on_c, 0, 69, 49
4, 106560, Note_on_c, 0, 69, 0
4, 106560, Note_on_c, 0, 66, 0
4, 106560, Note_on_c, 0, 63, 0
4, 106560, Note_on_c, 0, 47, 49
4, 106800, Note_on_c, 0, 47, 0
4, 106800, Note_on_c, 0, 59, 49
4, 106800, Note_on_c, 0, 64, 49
4, 106800, Note_on_c, 0, 68, 49
4, 107040, Note_on_c, 0, 68, 0
4, 107040, Note_on_c, 0, 64, 0
4, 107040, Note_on_c, 0, 59, 0
4, 107040, Note_on_c, 0, 64, 49
4, 107040, Note_on_c, 0, 68, 49
4, 107040, Note_on_c, 0, 71, 49
4, 107280, Note_on_c, 0, 71, 0
4, 107280, Note_on_c, 0, 68, 0
4, 107280, Note_on_c, 0, 64, 0
4, 107280, Note_on_c, 0, 47, 49
4, 107520, Note_on_c, 0, 47, 0
4, 107520, Note_on_c, 0, 59, 49
4, 107520, Note_on_c, 0, 64, 49
4, 107520, Note_on_c, 0, 68, 49
4, 107760, Note_on_c, 0, 68, 0
4, 107760, Note_on_c, 0, 64, 0
4, 107760, Note_on_c, 0, 59, 0
4, 107760, Note_on_c, 0, 64, 49
4, 107760, Note_on_c, 0, 68, 49
4, 107760, Note_on_c, 0, 71, 49
4, 108000, Note_on_c, 0, 71, 0
4, 108000, Note_on_c, 0, 68, 0
4, 108000, Note_on_c, 0, 64, 0
4, 108000, Note_on_c, 0, 45, 49
4, 108240, Note_on_c, 0, 45, 0
4, 108240, Note_on_c, 0, 59, 49
4, 108240, Note_on_c, 0, 63, 49
4, 108240, Note_on_c, 0, 66, 49
4, 108480, Note_on_c, 0, 66, 0
4, 108480, Note_on_c, 0, 63, 0
4, 108480, Note_on_c, 0, 59, 0
4, 108480, Note_on_c, 0, 63, 49
4, 108480, Note_on_c, 0, 66, 49
4, 108480, Note_on_c, 0, 71, 49
4, 108720, Note_on_c, 0, 71, 0
4, 108720, Note_on_c, 0, 66, 0
4, 108720, Note_on_c, 0, 63, 0
4, 108720, Note_on_c, 0, 45, 49
4, 108960, Note_on_c, 0, 45, 0
4, 108960, Note_on_c, 0, 54, 49
4, 108960, Note_on_c, 0, 59, 49
4, 108960, Note_on_c, 0, 63, 49
4, 108960, Note_on_c, 0, 66, 49
4, 109200, Note_on_c, 0, 66, 0
4, 109200, Note_on_c, 0, 54, 0
4, 109200, Note_on_c, 0, 59, 0
4, 109200, Note_on_c, 0, 63, 0
4, 109200, Note_on_c, 0, 59, 49
4, 109200, Note_on_c, 0, 63, 49
4, 109440, Note_on_c, 0, 63, 0
4, 109440, Note_on_c, 0, 59, 0
4, 109440, Note_on_c, 0, 58, 49
4, 109680, Note_on_c, 0, 58, 0
4, 109680, Note_on_c, 0, 46, 49
4, 109920, Note_on_c, 0, 46, 0
4, 109920, Note_on_c, 0, 58, 49
4, 110160, Note_on_c, 0, 58, 0
4, 110160, Note_on_c, 0, 56, 49
4, 110400, Note_on_c, 0, 56, 0
4, 110400, Note_on_c, 0, 46, 49
4, 110640, Note_on_c, 0, 46, 0
4, 110640, Note_on_c, 0, 56, 49
4, 110880, Note_on_c, 0, 56, 0
4, 110880, Note_on_c, 0, 55, 49
4, 111120, Note_on_c, 0, 55, 0
4, 111120, Note_on_c, 0, 46, 49
4, 111360, Note_on_c, 0, 46, 0
4, 111360, Note_on_c, 0, 55, 49
4, 111600, Note_on_c, 0, 55, 0
4, 111600, Note_on_c, 0, 54, 49
4, 111840, Note_on_c, 0, 54, 0
4, 111840, Note_on_c, 0, 46, 49
4, 112080, Note_on_c, 0, 46, 0
4, 112080, Note_on_c, 0, 54, 49
4, 112320, Note_on_c, 0, 54, 0
4, 112320, Note_on_c, 0, 53, 49
4, 112560, Note_on_c, 0, 53, 0
4, 112560, Note_on_c, 0, 46, 49
4, 112800, Note_on_c, 0, 46, 0
4, 112800, Note_on_c, 0, 53, 49
4, 113040, Note_on_c, 0, 53, 0
4, 113040, Note_on_c, 0, 56, 49
4, 113280, Note_on_c, 0, 56, 0
4, 113280, Note_on_c, 0, 46, 49
4, 113520, Note_on_c, 0, 46, 0
4, 113520, Note_on_c, 0, 56, 49
4, 113760, Note_on_c, 0, 56, 0
4, 113760, Note_on_c, 0, 55, 49
4, 114000, Note_on_c, 0, 55, 0
4, 114000, Note_on_c, 0, 46, 49
4, 114240, Note_on_c, 0, 46, 0
4, 114240, Note_on_c, 0, 55, 49
4, 114480, Note_on_c, 0, 55, 0
4, 114480, Note_on_c, 0, 54, 49
4, 114720, Note_on_c, 0, 54, 0
4, 114720, Note_on_c, 0, 46, 49
4, 114960, Note_on_c, 0, 46, 0
4, 114960, Note_on_c, 0, 54, 49
4, 115200, Note_on_c, 0, 54, 0
4, 115200, Note_on_c, 0, 53, 49
4, 115440, Note_on_c, 0, 53, 0
4, 115440, Note_on_c, 0, 46, 49
4, 115680, Note_on_c, 0, 46, 0
4, 115680, Note_on_c, 0, 53, 49
4, 115920, Note_on_c, 0, 53, 0
4, 115920, Note_on_c, 0, 56, 49
4, 116160, Note_on_c, 0, 56, 0
4, 116160, Note_on_c, 0, 46, 49
4, 116400, Note_on_c, 0, 46, 0
4, 116400, Note_on_c, 0, 56, 49
4, 116640, Note_on_c, 0, 56, 0
4, 116640, Note_on_c, 0, 55, 49
4, 116880, Note_on_c, 0, 55, 0
4, 116880, Note_on_c, 0, 46, 49
4, 117120, Note_on_c, 0, 46, 0
4, 117120, Note_on_c, 0, 55, 49
4, 117360, Note_on_c, 0, 55, 0
4, 117360, Note_on_c, 0, 54, 49
4, 117600, Note_on_c, 0, 54, 0
4, 117600, Note_on_c, 0, 46, 49
4, 117840, Note_on_c, 0, 46, 0
4, 117840, Note_on_c, 0, 54, 49
4, 118080, Note_on_c, 0, 54, 0
4, 118080, Note_on_c, 0, 53, 49
4, 118320, Note_on_c, 0, 53, 0
4, 118320, Note_on_c, 0, 46, 49
4, 118560, Note_on_c, 0, 46, 0
4, 118560, Note_on_c, 0, 53, 49
4, 118800, Note_on_c, 0, 53, 0
4, 118800, Note_on_c, 0, 51, 49
4, 119040, Note_on_c, 0, 51, 0
4, 119040, Note_on_c, 0, 46, 49
4, 119280, Note_on_c, 0, 46, 0
4, 119280, Note_on_c, 0, 51, 49
4, 119520, Note_on_c, 0, 51, 0
4, 119520, Note_on_c, 0, 50, 49
4, 119760, Note_on_c, 0, 50, 0
4, 119760, Note_on_c, 0, 46, 49
4, 120000, Note_on_c, 0, 46, 0
4, 120000, Note_on_c, 0, 50, 49
4, 120240, Note_on_c, 0, 50, 0
4, 120240, Note_on_c, 0, 50, 49
4, 120480, Note_on_c, 0, 50, 0
4, 120480, Note_on_c, 0, 46, 49
4, 120720, Note_on_c, 0, 46, 0
4, 120720, Note_on_c, 0, 50, 49
4, 120960, Note_on_c, 0, 50, 0
4, 120960, Note_on_c, 0, 49, 62
4, 121200, Note_on_c, 0, 49, 0
4, 121200, Note_on_c, 0, 46, 62
4, 121440, Note_on_c, 0, 46, 0
4, 121440, Note_on_c, 0, 49, 62
4, 121680, Note_on_c, 0, 49, 0
4, 121680, Note_on_c, 0, 49, 62
4, 121920, Note_on_c, 0, 49, 0
4, 121920, Note_on_c, 0, 46, 62
4, 122160, Note_on_c, 0, 46, 0
4, 122160, Note_on_c, 0, 49, 62
4, 122400, Note_on_c, 0, 49, 0
4, 122400, Note_on_c, 0, 47, 62
4, 122640, Note_on_c, 0, 47, 0
4, 122640, Note_on_c, 0, 54, 62
4, 122640, Note_on_c, 0, 59, 62
4, 122640, Note_on_c, 0, 63, 62
4, 122880, Note_on_c, 0, 63, 0
4, 122880, Note_on_c, 0, 59, 0
4, 122880, Note_on_c, 0, 54, 0
4, 122880, Note_on_c, 0, 59, 62
4, 122880, Note_on_c, 0, 63, 62
4, 122880, Note_on_c, 0, 66, 62
4, 123120, Note_on_c, 0, 66, 0
4, 123120, Note_on_c, 0, 63, 0
4, 123120, Note_on_c, 0, 59, 0
4, 123120, Note_on_c, 0, 42, 62
4, 123360, Note_on_c, 0, 42, 0
4, 123360, Note_on_c, 0, 54, 62
4, 123360, Note_on_c, 0, 59, 62
4, 123360, Note_on_c, 0, 63, 62
4, 123600, Note_on_c, 0, 63, 0
4, 123600, Note_on_c, 0, 59, 0
4, 123600, Note_on_c, 0, 54, 0
4, 123600, Note_on_c, 0, 59, 62
4, 123600, Note_on_c, 0, 63, 62
4, 123600, Note_on_c, 0, 66, 62
4, 123840, Note_on_c, 0, 66, 0
4, 123840, Note_on_c, 0, 63, 0
4, 123840, Note_on_c, 0, 59, 0
4, 123840, Note_on_c, 0, 47, 62
4, 124080, Note_on_c, 0, 47, 0
4, 124080, Note_on_c, 0, 54, 62
4, 124080, Note_on_c, 0, 59, 62
4, 124080, Note_on_c, 0, 63, 62
4, 124320, Note_on_c, 0, 63, 0
4, 124320, Note_on_c, 0, 59, 0
4, 124320, Note_on_c, 0, 54, 0
4, 124320, Note_on_c, 0, 59, 62
4, 124320, Note_on_c, 0, 63, 62
4, 124320, Note_on_c, 0, 66, 62
4, 124560, Note_on_c, 0, 66, 0
4, 124560, Note_on_c, 0, 63, 0
4, 124560, Note_on_c, 0, 59, 0
4, 124560, Note_on_c, 0, 42, 62
4, 124800, Note_on_c, 0, 42, 0
4, 124800, Note_on_c, 0, 54, 62
4, 124800, Note_on_c, 0, 59, 62
4, 124800, Note_on_c, 0, 63, 62
4, 125040, Note_on_c, 0, 63, 0
4, 125040, Note_on_c, 0, 59, 0
4, 125040, Note_on_c, 0, 54, 0
4, 125040, Note_on_c, 0, 59, 62
4, 125040, Note_on_c, 0, 63, 62
4, 125040, Note_on_c, 0, 66, 62
4, 125280, Note_on_c, 0, 66, 0
4, 125280, Note_on_c, 0, 63, 0
4, 125280, Note_on_c, 0, 59, 0
4, 125280, Note_on_c, 0, 47, 62
4, 125520, Note_on_c, 0, 47, 0
4, 125520, Note_on_c, 0, 54, 62
4, 125520, Note_on_c, 0, 59, 62
4, 125520, Note_on_c, 0, 63, 62
4, 125760, Note_on_c, 0, 63, 0
4, 125760, Note_on_c, 0, 59, 0
4, 125760, Note_on_c, 0, 54, 0
4, 125760, Note_on_c, 0, 59, 62
4, 125760, Note_on_c, 0, 63, 62
4, 125760, Note_on_c, 0, 66, 62
4, 126000, Note_on_c, 0, 66, 0
4, 126000, Note_on_c, 0, 63, 0
4, 126000, Note_on_c, 0, 59, 0
4, 126000, Note_on_c, 0, 42, 62
4, 126240, Note_on_c, 0, 42, 0
4, 126240, Note_on_c, 0, 54, 62
4, 126240, Note_on_c, 0, 59, 62
4, 126240, Note_on_c, 0, 63, 62
4, 126480, Note_on_c, 0, 63, 0
4, 126480, Note_on_c, 0, 59, 0
4, 126480, Note_on_c, 0, 54, 0
4, 126480, Note_on_c, 0, 59, 62
4, 126480, Note_on_c, 0, 63, 62
4, 126480, Note_on_c, 0, 66, 62
4, 126720, Note_on_c, 0, 66, 0
4, 126720, Note_on_c, 0, 63, 0
4, 126720, Note_on_c, 0, 59, 0
4, 126720, Note_on_c, 0, 47, 62
4, 126960, Note_on_c, 0, 47, 0
4, 126960, Note_on_c, 0, 54, 62
4, 126960, Note_on_c, 0, 59, 62
4, 126960, Note_on_c, 0, 63, 62
4, 127200, Note_on_c, 0, 63, 0
4, 127200, Note_on_c, 0, 59, 0
4, 127200, Note_on_c, 0, 54, 0
4, 127200, Note_on_c, 0, 59, 62
4, 127200, Note_on_c, 0, 63, 62
4, 127200, Note_on_c, 0, 66, 62
4, 127440, Note_on_c, 0, 66, 0
4, 127440, Note_on_c, 0, 63, 0
4, 127440, Note_on_c, 0, 59, 0
4, 127440, Note_on_c, 0, 42, 62
4, 127680, Note_on_c, 0, 42, 0
4, 127680, Note_on_c, 0, 54, 62
4, 127680, Note_on_c, 0, 59, 62
4, 127680, Note_on_c, 0, 63, 62
4, 127920, Note_on_c, 0, 63, 0
4, 127920, Note_on_c, 0, 59, 0
4, 127920, Note_on_c, 0, 54, 0
4, 127920, Note_on_c, 0, 59, 62
4, 127920, Note_on_c, 0, 63, 62
4, 127920, Note_on_c, 0, 66, 62
4, 128160, Note_on_c, 0, 66, 0
4, 128160, Note_on_c, 0, 63, 0
4, 128160, Note_on_c, 0, 59, 0
4, 128160, Note_on_c, 0, 35, 62
4, 128160, Note_on_c, 0, 47, 62
4, 128400, Note_on_c, 0, 47, 0
4, 128400, Note_on_c, 0, 35, 0
4, 128400, Note_on_c, 0, 54, 62
4, 128400, Note_on_c, 0, 59, 62
4, 128400, Note_on_c, 0, 63, 62
4, 128640, Note_on_c, 0, 63, 0
4, 128640, Note_on_c, 0, 59, 0
4, 128640, Note_on_c, 0, 54, 0
4, 128640, Note_on_c, 0, 59, 62
4, 128640, Note_on_c, 0, 63, 62
4, 128640, Note_on_c, 0, 66, 62
4, 128880, Note_on_c, 0, 66, 0
4, 128880, Note_on_c, 0, 63, 0
4, 128880, Note_on_c, 0, 59, 0
4, 128880, Note_on_c, 0, 47, 62
4, 128880, Note_on_c, 0, 59, 62
4, 129120, Note_on_c, 0, 59, 0
4, 129120, Note_on_c, 0, 47, 0
4, 129120, Note_on_c, 0, 54, 62
4, 129120, Note_on_c, 0, 59, 62
4, 129120, Note_on_c, 0, 63, 62
4, 129360, Note_on_c, 0, 63, 0
4, 129360, Note_on_c, 0, 59, 0
4, 129360, Note_on_c, 0, 54, 0
4, 129360, Note_on_c, 0, 59, 62
4, 129360, Note_on_c, 0, 63, 62
4, 129360, Note_on_c, 0, 66, 62
4, 129600, Note_on_c, 0, 66, 0
4, 129600, Note_on_c, 0, 63, 0
4, 129600, Note_on_c, 0, 59, 0
4, 129600, Note_on_c, 0, 36, 62
4, 129600, Note_on_c, 0, 48, 62
4, 129840, Note_on_c, 0, 48, 0
4, 129840, Note_on_c, 0, 36, 0
4, 129840, Note_on_c, 0, 54, 62
4, 129840, Note_on_c, 0, 57, 62
4, 129840, Note_on_c, 0, 63, 62
4, 130080, Note_on_c, 0, 63, 0
4, 130080, Note_on_c, 0, 57, 0
4, 130080, Note_on_c, 0, 54, 0
4, 130080, Note_on_c, 0, 57, 62
4, 130080, Note_on_c, 0, 63, 62
4, 130080, Note_on_c, 0, 66, 62
4, 130320, Note_on_c, 0, 66, 0
4, 130320, Note_on_c, 0, 63, 0
4, 130320, Note_on_c, 0, 57, 0
4, 130320, Note_on_c, 0, 48, 62
4, 130320, Note_on_c, 0, 60, 62
4, 130560, Note_on_c, 0, 60, 0
4, 130560, Note_on_c, 0, 48, 0
4, 130560, Note_on_c, 0, 57, 62
4, 130560, Note_on_c, 0, 63, 62
4, 130560, Note_on_c, 0, 66, 62
4, 130800, Note_on_c, 0, 66, 0
4, 130800, Note_on_c, 0, 63, 0
4, 130800, Note_on_c, 0, 57, 0
4, 130800, Note_on_c, 0, 63, 62
4, 130800, Note_on_c, 0, 66, 62
4, 130800, Note_on_c, 0, 69, 62
4, 131040, Note_on_c, 0, 69, 0
4, 131040, Note_on_c, 0, 66, 0
4, 131040, Note_on_c, 0, 63, 0
4, 131040, Note_on_c, 0, 61, 62
4, 131280, Note_on_c, 0, 61, 0
4, 131280, Note_on_c, 0, 49, 62
4, 131520, Note_on_c, 0, 49, 0
4, 131520, Note_on_c, 0, 61, 62
4, 131760, Note_on_c, 0, 61, 0
4, 131760, Note_on_c, 0, 60, 62
4, 132000, Note_on_c, 0, 60, 0
4, 132000, Note_on_c, 0, 49, 62
4, 132240, Note_on_c, 0, 49, 0
4, 132240, Note_on_c, 0, 60, 62
4, 132480, Note_on_c, 0, 60, 0
4, 132480, Note_on_c, 0, 59, 62
4, 132720, Note_on_c, 0, 59, 0
4, 132720, Note_on_c, 0, 49, 62
4, 132960, Note_on_c, 0, 49, 0
4, 132960, Note_on_c, 0, 59, 62
4, 133200, Note_on_c, 0, 59, 0
4, 133200, Note_on_c, 0, 58, 62
4, 133440, Note_on_c, 0, 58, 0
4, 133440, Note_on_c, 0, 49, 62
4, 133680, Note_on_c, 0, 49, 0
4, 133680, Note_on_c, 0, 58, 62
4, 133920, Note_on_c, 0, 58, 0
4, 133920, Note_on_c, 0, 56, 62
4, 134160, Note_on_c, 0, 56, 0
4, 134160, Note_on_c, 0, 49, 62
4, 134400, Note_on_c, 0, 49, 0
4, 134400, Note_on_c, 0, 56, 62
4, 134640, Note_on_c, 0, 56, 0
4, 134640, Note_on_c, 0, 54, 62
4, 134880, Note_on_c, 0, 54, 0
4, 134880, Note_on_c, 0, 49, 62
4, 135120, Note_on_c, 0, 49, 0
4, 135120, Note_on_c, 0, 54, 62
4, 135360, Note_on_c, 0, 54, 0
4, 135360, Note_on_c, 0, 53, 62
4, 135600, Note_on_c, 0, 53, 0
4, 135600, Note_on_c, 0, 56, 62
4, 135840, Note_on_c, 0, 56, 0
4, 135840, Note_on_c, 0, 51, 62
4, 136080, Note_on_c, 0, 51, 0
4, 136080, Note_on_c, 0, 49, 62
4, 136320, Note_on_c, 0, 49, 0
4, 139920, Note_on_c, 0, 58, 62
4, 140160, Note_on_c, 0, 58, 0
4, 140160, Note_on_c, 0, 63, 62
4, 140880, Note_on_c, 0, 63, 0
4, 140880, Note_on_c, 0, 61, 62
4, 141360, Note_on_c, 0, 61, 0
4, 141360, Note_on_c, 0, 54, 62
4, 141600, Note_on_c, 0, 54, 0
4, 141600, Note_on_c, 0, 55, 62
4, 142320, Note_on_c, 0, 61, 49
4, 142320, Note_on_c, 0, 65, 49
4, 142800, Note_on_c, 0, 65, 0
4, 142800, Note_on_c, 0, 61, 0
4, 142800, Note_on_c, 0, 55, 0
4, 142800, Note_on_c, 0, 56, 62
4, 143040, Note_on_c, 0, 56, 0
4, 143040, Note_on_c, 0, 57, 62
4, 143400, Note_on_c, 0, 57, 0
4, 143400, Note_on_c, 0, 58, 62
4, 143760, Note_on_c, 0, 58, 0
4, 143760, Note_on_c, 0, 63, 62
4, 144240, Note_on_c, 0, 63, 0
4, 144240, Note_on_c, 0, 61, 62
4, 144420, Note_on_c, 0, 41, 62
4, 144480, Note_on_c, 0, 61, 0
4, 144480, Note_on_c, 0, 61, 62
4, 145200, Note_on_c, 0, 61, 0
4, 145200, Note_on_c, 0, 41, 0
4, 145200, Note_on_c, 0, 63, 62
4, 145680, Note_on_c, 0, 63, 0
4, 145680, Note_on_c, 0, 65, 62
4, 145920, Note_on_c, 0, 65, 0
4, 145920, Note_on_c, 0, 39, 49
4, 145920, Note_on_c, 0, 51, 49
4, 146400, Note_on_c, 0, 51, 0
4, 146400, Note_on_c, 0, 39, 0
4, 146640, Note_on_c, 0, 63, 49
4, 146640, Note_on_c, 0, 66, 49
4, 147120, Note_on_c, 0, 66, 0
4, 147120, Note_on_c, 0, 63, 0
4, 148560, Note_on_c, 0, 51, 62
4, 148800, Note_on_c, 0, 51, 0
4, 148800, Note_on_c, 0, 56, 62
4, 149280, Note_on_c, 0, 56, 0
4, 149280, Note_on_c, 0, 58, 62
4, 149520, Note_on_c, 0, 58, 0
4, 149520, Note_on_c, 0, 59, 62
4, 150000, Note_on_c, 0, 59, 0
4, 150000, Note_on_c, 0, 56, 62
4, 150180, Note_on_c, 0, 39, 62
4, 150240, Note_on_c, 0, 56, 0
4, 150240, Note_on_c, 0, 58, 62
4, 150960, Note_on_c, 0, 58, 0
4, 150960, Note_on_c, 0, 39, 0
4, 150960, Note_on_c, 0, 58, 49
4, 150960, Note_on_c, 0, 63, 49
4, 150960, Note_on_c, 0, 67, 49
4, 151440, Note_on_c, 0, 67, 0
4, 151440, Note_on_c, 0, 63, 0
4, 151440, Note_on_c, 0, 58, 0
4, 151440, Note_on_c, 0, 63, 62
4, 151680, Note_on_c, 0, 63, 0
4, 151680, Note_on_c, 0, 56, 75
4, 152400, Note_on_c, 0, 56, 0
4, 152400, Note_on_c, 0, 58, 75
4, 152880, Note_on_c, 0, 58, 0
4, 152880, Note_on_c, 0, 59, 75
4, 153120, Note_on_c, 0, 59, 0
4, 153120, Note_on_c, 0, 61, 75
4, 154320, Note_on_c, 0, 61, 0
4, 154320, Note_on_c, 0, 64, 75
4, 154560, Note_on_c, 0, 64, 0
4, 154560, Note_on_c, 0, 58, 75
4, 155280, Note_on_c, 0, 58, 0
4, 155280, Note_on_c, 0, 59, 75
4, 155760, Note_on_c, 0, 59, 0
4, 155760, Note_on_c, 0, 61, 75
4, 156000, Note_on_c, 0, 61, 0
4, 156000, Note_on_c, 0, 63, 75
4, 157200, Note_on_c, 0, 63, 0
4, 157200, Note_on_c, 0, 66, 75
4, 157380, Note_on_c, 0, 51, 75
4, 157440, Note_on_c, 0, 66, 0
4, 157440, Note_on_c, 0, 60, 75
4, 158160, Note_on_c, 0, 60, 0
4, 158160, Note_on_c, 0, 51, 0
4, 158160, Note_on_c, 0, 61, 75
4, 158640, Note_on_c, 0, 61, 0
4, 158640, Note_on_c, 0, 63, 75
4, 158880, Note_on_c, 0, 63, 0
4, 158880, Note_on_c, 0, 65, 75
4, 159600, Note_on_c, 0, 65, 0
4, 159600, Note_on_c, 0, 67, 75
4, 160080, Note_on_c, 0, 67, 0
4, 160080, Note_on_c, 0, 69, 75
4, 160320, Note_on_c, 0, 69, 0
4, 160320, Note_on_c, 0, 70, 75
4, 161520, Note_on_c, 0, 70, 0
4, 161520, Control_c, 0, 64, 127
4, 161520, Note_on_c, 0, 58, 75
4, 161760, Note_on_c, 0, 58, 0
4, 161760, Note_on_c, 0, 66, 75
4, 162240, Note_on_c, 0, 66, 0
4, 162240, Note_on_c, 0, 66, 75
4, 162480, Note_on_c, 0, 66, 0
4, 162480, Control_c, 0, 64, 0
4, 162480, Note_on_c, 0, 63, 75
4, 162960, Note_on_c, 0, 63, 0
4, 162960, Note_on_c, 0, 63, 75
4, 163200, Note_on_c, 0, 63, 0
4, 163200, Control_c, 0, 64, 127
4, 163200, Note_on_c, 0, 68, 75
4, 163440, Note_on_c, 0, 68, 0
4, 163440, Note_on_c, 0, 66, 75
4, 163680, Note_on_c, 0, 66, 0
4, 163680, Note_on_c, 0, 65, 75
4, 163920, Note_on_c, 0, 65, 0
4, 163920, Control_c, 0, 64, 0
4, 163920, Note_on_c, 0, 63, 75
4, 164400, Note_on_c, 0, 63, 0
4, 164400, Note_on_c, 0, 63, 75
4, 164640, Note_on_c, 0, 63, 0
4, 164640, Note_on_c, 0, 68, 75
4, 164880, Note_on_c, 0, 68, 0
4, 164880, Note_on_c, 0, 66, 75
4, 165120, Note_on_c, 0, 66, 0
4, 165120, Note_on_c, 0, 65, 75
4, 165360, Note_on_c, 0, 65, 0
4, 165360, Note_on_c, 0, 63, 75
4, 165600, Note_on_c, 0, 63, 0
4, 165600, Note_on_c, 0, 62, 75
4, 165840, Note_on_c, 0, 62, 0
4, 165840, Note_on_c, 0, 63, 75
4, 166080, Note_on_c, 0, 63, 0
4, 166080, Note_on_c, 0, 68, 75
4, 166800, Note_on_c, 0, 68, 0
4, 166800, Note_on_c, 0, 66, 75
4, 167280, Note_on_c, 0, 66, 0
4, 167280, Note_on_c, 0, 65, 75
4, 167520, Note_on_c, 0, 65, 0
4, 167520, Note_on_c, 0, 63, 75
4, 168720, Note_on_c, 0, 63, 0
4, 168720, Note_on_c, 0, 63, 75
4, 168960, Note_on_c, 0, 63, 0
4, 168960, Control_c, 0, 64, 127
4, 168960, Note_on_c, 0, 63, 62
4, 169200, Note_on_c, 0, 63, 0
4, 169200, Note_on_c, 0, 59, 62
4, 169440, Note_on_c, 0, 59, 0
4, 169440, Note_on_c, 0, 58, 62
4, 169680, Note_on_c, 0, 58, 0
4, 169680, Control_c, 0, 64, 0
4, 169680, Note_on_c, 0, 56, 62
4, 170160, Note_on_c, 0, 56, 0
4, 170160, Note_on_c, 0, 56, 62
4, 170400, Note_on_c, 0, 56, 0
4, 170400, Note_on_c, 0, 63, 62
4, 170640, Note_on_c, 0, 63, 0
4, 170640, Control_c, 0, 64, 127
4, 170640, Note_on_c, 0, 51, 62
4, 170880, Note_on_c, 0, 51, 0
4, 170880, Note_on_c, 0, 53, 62
4, 171120, Note_on_c, 0, 53, 0
4, 171120, Note_on_c, 0, 54, 62
4, 171360, Note_on_c, 0, 54, 0
4, 171360, Note_on_c, 0, 56, 62
4, 171600, Note_on_c, 0, 56, 0
4, 171600, Control_c, 0, 64, 0
4, 171600, Note_on_c, 0, 58, 62
4, 171840, Note_on_c, 0, 58, 0
4, 171840, Note_on_c, 0, 59, 62
4, 173040, Note_on_c, 0, 59, 0
4, 173040, Note_on_c, 0, 58, 62
4, 173280, Note_on_c, 0, 58, 0
4, 173280, Note_on_c, 0, 51, 49
4, 173520, Note_on_c, 0, 51, 0
4, 173520, Note_on_c, 0, 55, 49
4, 173520, Note_on_c, 0, 58, 49
4, 173760, Note_on_c, 0, 58, 0
4, 173760, Note_on_c, 0, 55, 0
4, 173760, Note_on_c, 0, 49, 49
4, 174000, Note_on_c, 0, 49, 0
4, 174000, Note_on_c, 0, 55, 49
4, 174000, Note_on_c, 0, 58, 49
4, 174240, Note_on_c, 0, 58, 0
4, 174240, Note_on_c, 0, 55, 0
4, 174240, Note_on_c, 0, 48, 49
4, 174480, Note_on_c, 0, 48, 0
4, 174480, Note_on_c, 0, 55, 49
4, 174480, Note_on_c, 0, 60, 49
4, 174720, Note_on_c, 0, 60, 0
4, 174720, Note_on_c, 0, 55, 0
4, 174720, Note_on_c, 0, 52, 49
4, 174960, Note_on_c, 0, 52, 0
4, 174960, Note_on_c, 0, 55, 49
4, 174960, Note_on_c, 0, 58, 49
4, 174960, Note_on_c, 0, 60, 49
4, 175200, Note_on_c, 0, 60, 0
4, 175200, Note_on_c, 0, 58, 0
4, 175200, Note_on_c, 0, 55, 0
4, 175200, Note_on_c, 0, 53, 49
4, 175440, Note_on_c, 0, 53, 0
4, 175440, Note_on_c, 0, 56, 49
4, 175440, Note_on_c, 0, 60, 49
4, 175680, Note_on_c, 0, 60, 0
4, 175680, Note_on_c, 0, 56, 0
4, 175680, Note_on_c, 0, 51, 49
4, 175920, Note_on_c, 0, 51, 0
4, 175920, Note_on_c, 0, 53, 49
4, 175920, Note_on_c, 0, 56, 49
4, 175920, Note_on_c, 0, 60, 49
4, 176160, Note_on_c, 0, 60, 0
4, 176160, Note_on_c, 0, 56, 0
4, 176160, Note_on_c, 0, 53, 0
4, 176160, Note_on_c, 0, 50, 49
4, 176400, Note_on_c, 0, 50, 0
4, 176400, Note_on_c, 0, 53, 49
4, 176400, Note_on_c, 0, 56, 49
4, 176400, Note_on_c, 0, 59, 49
4, 176640, Note_on_c, 0, 59, 0
4, 176640, Note_on_c, 0, 56, 0
4, 176640, Note_on_c, 0, 53, 0
4, 176640, Note_on_c, 0, 46, 49
4, 176880, Note_on_c, 0, 46, 0
4, 176880, Note_on_c, 0, 53, 49
4, 176880, Note_on_c, 0, 56, 49
4, 176880, Note_on_c, 0, 58, 49
4, 177120, Note_on_c, 0, 58, 0
4, 177120, Note_on_c, 0, 56, 0
4, 177120, Note_on_c, 0, 53, 0
4, 177120, Note_on_c, 0, 51, 49
4, 177360, Note_on_c, 0, 51, 0
4, 177360, Note_on_c, 0, 55, 49
4, 177360, Note_on_c, 0, 58, 49
4, 177360, Note_on_c, 0, 63, 49
4, 177600, Note_on_c, 0, 63, 0
4, 177600, Note_on_c, 0, 58, 0
4, 177600, Note_on_c, 0, 55, 0
4, 177600, Note_on_c, 0, 49, 49
4, 177840, Note_on_c, 0, 49, 0
4, 177840, Note_on_c, 0, 53, 49
4, 177840, Note_on_c, 0, 55, 49
4, 177840, Note_on_c, 0, 58, 49
4, 178080, Note_on_c, 0, 58, 0
4, 178080, Note_on_c, 0, 55, 0
4, 178080, Note_on_c, 0, 53, 0
4, 178080, Note_on_c, 0, 48, 49
4, 178320, Note_on_c, 0, 48, 0
4, 178320, Note_on_c, 0, 52, 49
4, 178320, Note_on_c, 0, 55, 49
4, 178320, Note_on_c, 0, 60, 49
4, 178560, Note_on_c, 0, 60, 0
4, 178560, Note_on_c, 0, 55, 0
4, 178560, Note_on_c, 0, 52, 0
4, 178560, Note_on_c, 0, 52, 49
4, 178800, Note_on_c, 0, 52, 0
4, 178800, Note_on_c, 0, 55, 49
4, 178800, Note_on_c, 0, 58, 49
4, 178800, Note_on_c, 0, 60, 49
4, 179040, Note_on_c, 0, 60, 0
4, 179040, Note_on_c, 0, 58, 0
4, 179040, Note_on_c, 0, 55, 0
4, 179040, Note_on_c, 0, 53, 49
4, 179280, Note_on_c, 0, 53, 0
4, 179280, Note_on_c, 0, 56, 49
4, 179280, Note_on_c, 0, 60, 49
4, 179520, Note_on_c, 0, 60, 0
4, 179520, Note_on_c, 0, 56, 0
4, 179520, Note_on_c, 0, 51, 49
4, 179760, Note_on_c, 0, 51, 0
4, 179760, Note_on_c, 0, 53, 49
4, 179760, Note_on_c, 0, 56, 49
4, 179760, Note_on_c, 0, 60, 49
4, 180000, Note_on_c, 0, 60, 0
4, 180000, Note_on_c, 0, 56, 0
4, 180000, Note_on_c, 0, 53, 0
4, 180000, Note_on_c, 0, 50, 49
4, 180240, Note_on_c, 0, 50, 0
4, 180240, Note_on_c, 0, 53, 49
4, 180240, Note_on_c, 0, 56, 49
4, 180240, Note_on_c, 0, 59, 49
4, 180480, Note_on_c, 0, 59, 0
4, 180480, Note_on_c, 0, 56, 0
4, 180480, Note_on_c, 0, 53, 0
4, 180480, Note_on_c, 0, 46, 49
4, 180720, Note_on_c, 0, 46, 0
4, 180720, Note_on_c, 0, 53, 49
4, 180720, Note_on_c, 0, 56, 49
4, 180720, Note_on_c, 0, 58, 49
4, 180960, Note_on_c, 0, 58, 0
4, 180960, Note_on_c, 0, 56, 0
4, 180960, Note_on_c, 0, 53, 0
4, 180960, Note_on_c, 0, 51, 49
4, 181200, Note_on_c, 0, 51, 0
4, 181200, Note_on_c, 0, 55, 49
4, 181200, Note_on_c, 0, 58, 49
4, 181440, Note_on_c, 0, 58, 0
4, 181440, Note_on_c, 0, 55, 0
4, 181440, Note_on_c, 0, 53, 49
4, 181680, Note_on_c, 0, 53, 0
4, 181680, Note_on_c, 0, 55, 49
4, 181680, Note_on_c, 0, 58, 49
4, 181680, Note_on_c, 0, 61, 49
4, 181920, Note_on_c, 0, 61, 0
4, 181920, Note_on_c, 0, 58, 0
4, 181920, Note_on_c, 0, 55, 0
4, 181920, Note_on_c, 0, 52, 49
4, 182160, Note_on_c, 0, 52, 0
4, 182160, Note_on_c, 0, 55, 49
4, 182160, Note_on_c, 0, 58, 49
4, 182160, Note_on_c, 0, 60, 49
4, 182400, Note_on_c, 0, 60, 0
4, 182400, Note_on_c, 0, 58, 0
4, 182400, Note_on_c, 0, 55, 0
4, 182400, Note_on_c, 0, 51, 49
4, 182640, Note_on_c, 0, 51, 0
4, 182640, Note_on_c, 0, 52, 49
4, 182640, Note_on_c, 0, 55, 49
4, 182640, Note_on_c, 0, 58, 49
4, 182640, Note_on_c, 0, 60, 49
4, 182880, Note_on_c, 0, 60, 0
4, 182880, Note_on_c, 0, 52, 0
4, 182880, Note_on_c, 0, 55, 0
4, 182880, Note_on_c, 0, 58, 0
4, 182880, Note_on_c, 0, 53, 49
4, 183120, Note_on_c, 0, 53, 0
4, 183120, Note_on_c, 0, 56, 49
4, 183120, Note_on_c, 0, 60, 49
4, 183120, Note_on_c, 0, 65, 49
4, 183360, Note_on_c, 0, 65, 0
4, 183360, Note_on_c, 0, 60, 0
4, 183360, Note_on_c, 0, 56, 0
4, 183360, Note_on_c, 0, 51, 49
4, 183600, Note_on_c, 0, 51, 0
4, 183600, Note_on_c, 0, 56, 49
4, 183600, Note_on_c, 0, 60, 49
4, 183600, Note_on_c, 0, 65, 49
4, 183840, Note_on_c, 0, 65, 0
4, 183840, Note_on_c, 0, 60, 0
4, 183840, Note_on_c, 0, 56, 0
4, 183840, Note_on_c, 0, 50, 49
4, 184080, Note_on_c, 0, 50, 0
4, 184080, Note_on_c, 0, 49, 49
4, 184080, Note_on_c, 0, 53, 49
4, 184080, Note_on_c, 0, 56, 49
4, 184080, Note_on_c, 0, 59, 49
4, 184320, Note_on_c, 0, 59, 0
4, 184320, Note_on_c, 0, 49, 0
4, 184320, Note_on_c, 0, 53, 0
4, 184320, Note_on_c, 0, 56, 0
4, 184320, Note_on_c, 0, 48, 49
4, 184560, Note_on_c, 0, 48, 0
4, 184560, Note_on_c, 0, 55, 49
4, 184560, Note_on_c, 0, 58, 49
4, 184560, Note_on_c, 0, 60, 49
4, 184800, Note_on_c, 0, 60, 0
4, 184800, Note_on_c, 0, 58, 0
4, 184800, Note_on_c, 0, 55, 0
4, 184800, Note_on_c, 0, 53, 49
4, 185040, Note_on_c, 0, 53, 0
4, 185040, Note_on_c, 0, 56, 49
4, 185040, Note_on_c, 0, 60, 49
4, 185040, Note_on_c, 0, 65, 49
4, 185280, Note_on_c, 0, 65, 0
4, 185280, Note_on_c, 0, 60, 0
4, 185280, Note_on_c, 0, 56, 0
4, 185280, Note_on_c, 0, 53, 49
4, 185520, Note_on_c, 0, 53, 0
4, 185520, Note_on_c, 0, 55, 49
4, 185520, Note_on_c, 0, 58, 49
4, 185520, Note_on_c, 0, 62, 49
4, 185760, Note_on_c, 0, 62, 0
4, 185760, Note_on_c, 0, 58, 0
4, 185760, Note_on_c, 0, 55, 0
4, 185760, Note_on_c, 0, 52, 49
4, 186000, Note_on_c, 0, 52, 0
4, 186000, Note_on_c, 0, 55, 49
4, 186000, Note_on_c, 0, 58, 49
4, 186000, Note_on_c, 0, 60, 49
4, 186240, Note_on_c, 0, 60, 0
4, 186240, Note_on_c, 0, 58, 0
4, 186240, Note_on_c, 0, 55, 0
4, 186240, Note_on_c, 0, 51, 49
4, 186480, Note_on_c, 0, 51, 0
4, 186480, Note_on_c, 0, 52, 49
4, 186480, Note_on_c, 0, 55, 49
4, 186480, Note_on_c, 0, 58, 49
4, 186480, Note_on_c, 0, 60, 49
4, 186720, Note_on_c, 0, 60, 0
4, 186720, Note_on_c, 0, 52, 0
4, 186720, Note_on_c, 0, 55, 0
4, 186720, Note_on_c, 0, 58, 0
4, 186720, Note_on_c, 0, 53, 49
4, 186960, Note_on_c, 0, 53, 0
4, 186960, Note_on_c, 0, 56, 49
4, 186960, Note_on_c, 0, 60, 49
4, 186960, Note_on_c, 0, 65, 49
4, 187200, Note_on_c, 0, 65, 0
4, 187200, Note_on_c, 0, 60, 0
4, 187200, Note_on_c, 0, 56, 0
4, 187200, Note_on_c, 0, 51, 49
4, 187440, Note_on_c, 0, 51, 0
4, 187440, Note_on_c, 0, 56, 49
4, 187440, Note_on_c, 0, 60, 49
4, 187440, Note_on_c, 0, 65, 49
4, 187680, Note_on_c, 0, 65, 0
4, 187680, Note_on_c, 0, 60, 0
4, 187680, Note_on_c, 0, 56, 0
4, 187680, Note_on_c, 0, 50, 49
4, 187920, Note_on_c, 0, 50, 0
4, 187920, Note_on_c, 0, 49, 49
4, 187920, Note_on_c, 0, 53, 49
4, 187920, Note_on_c, 0, 56, 49
4, 187920, Note_on_c, 0, 59, 49
4, 188160, Note_on_c, 0, 59, 0
4, 188160, Note_on_c, 0, 49, 0
4, 188160, Note_on_c, 0, 53, 0
4, 188160, Note_on_c, 0, 56, 0
4, 188160, Note_on_c, 0, 48, 49
4, 188400, Note_on_c, 0, 48, 0
4, 188400, Note_on_c, 0, 55, 49
4, 188400, Note_on_c, 0, 58, 49
4, 188400, Note_on_c, 0, 60, 49
4, 188640, Note_on_c, 0, 60, 0
4, 188640, Note_on_c, 0, 58, 0
4, 188640, Note_on_c, 0, 55, 0
4, 188640, Note_on_c, 0, 53, 49
4, 188880, Note_on_c, 0, 53, 0
4, 188880, Note_on_c, 0, 56, 49
4, 188880, Note_on_c, 0, 60, 49
4, 188880, Note_on_c, 0, 65, 49
4, 189120, Note_on_c, 0, 65, 0
4, 189120, Note_on_c, 0, 60, 0
4, 189120, Note_on_c, 0, 56, 0
4, 189120, Note_on_c, 0, 53, 49
4, 189360, Note_on_c, 0, 53, 0
4, 189360, Note_on_c, 0, 56, 49
4, 189360, Note_on_c, 0, 60, 49
4, 189360, Note_on_c, 0, 63, 49
4, 189600, Note_on_c, 0, 63, 0
4, 189600, Note_on_c, 0, 60, 0
4, 189600, Note_on_c, 0, 56, 0
4, 189600, Note_on_c, 0, 54, 49
4, 189840, Note_on_c, 0, 54, 0
4, 189840, Note_on_c, 0, 57, 49
4, 189840, Note_on_c, 0, 60, 49
4, 189840, Note_on_c, 0, 62, 49
4, 190080, Note_on_c, 0, 62, 0
4, 190080, Note_on_c, 0, 60, 0
4, 190080, Note_on_c, 0, 57, 0
4, 190080, Note_on_c, 0, 50, 49
4, 190320, Note_on_c, 0, 50, 0
4, 190320, Note_on_c, 0, 54, 49
4, 190320, Note_on_c, 0, 60, 49
4, 190320, Note_on_c, 0, 62, 49
4, 190560, Note_on_c, 0, 62, 0
4, 190560, Note_on_c, 0, 60, 0
4, 190560, Note_on_c, 0, 54, 0
4, 190560, Note_on_c, 0, 55, 49
4, 190800, Note_on_c, 0, 55, 0
4, 190800, Note_on_c, 0, 58, 49
4, 190800, Note_on_c, 0, 62, 49
4, 190800, Note_on_c, 0, 67, 49
4, 191040, Note_on_c, 0, 67, 0
4, 191040, Note_on_c, 0, 62, 0
4, 191040, Note_on_c, 0, 58, 0
4, 191040, Note_on_c, 0, 55, 75
4, 191280, Note_on_c, 0, 55, 0
4, 191280, Note_on_c, 0, 58, 75
4, 191280, Note_on_c, 0, 62, 75
4, 191280, Note_on_c, 0, 65, 75
4, 191520, Note_on_c, 0, 65, 0
4, 191520, Note_on_c, 0, 62, 0
4, 191520, Note_on_c, 0, 58, 0
4, 191520, Note_on_c, 0, 56, 75
4, 191760, Note_on_c, 0, 56, 0
4, 191760, Note_on_c, 0, 59, 75
4, 191760, Note_on_c, 0, 62, 75
4, 191760, Note_on_c, 0, 64, 75
4, 192000, Note_on_c, 0, 64, 0
4, 192000, Note_on_c, 0, 62, 0
4, 192000, Note_on_c, 0, 59, 0
4, 192000, Note_on_c, 0, 52, 75
4, 192240, Note_on_c, 0, 52, 0
4, 192240, Note_on_c, 0, 59, 75
4, 192240, Note_on_c, 0, 62, 75
4, 192240, Note_on_c, 0, 68, 75
4, 192480, Note_on_c, 0, 68, 0
4, 192480, Note_on_c, 0, 62, 0
4, 192480, Note_on_c, 0, 59, 0
4, 192480, Note_on_c, 0, 57, 75
4, 192480, Note_on_c, 0, 60, 75
4, 192480, Note_on_c, 0, 64, 75
4, 192720, Note_on_c, 0, 64, 0
4, 192720, Note_on_c, 0, 60, 0
4, 192720, Note_on_c, 0, 57, 0
4, 192960, Note_on_c, 0, 53, 75
4, 192960, Note_on_c, 0, 60, 75
4, 192960, Note_on_c, 0, 63, 75
4, 193200, Note_on_c, 0, 63, 0
4, 193200, Note_on_c, 0, 60, 0
4, 193200, Note_on_c, 0, 53, 0
4, 193440, Note_on_c, 0, 58, 75
4, 193440, Note_on_c, 0, 62, 75
4, 193440, Note_on_c, 0, 65, 75
4, 193680, Note_on_c, 0, 65, 0
4, 193680, Note_on_c, 0, 62, 0
4, 193680, Note_on_c, 0, 58, 0
4, 193920, Note_on_c, 0, 55, 75
4, 193920, Note_on_c, 0, 59, 75
4, 193920, Note_on_c, 0, 62, 75
4, 193920, Note_on_c, 0, 65, 75
4, 194160, Note_on_c, 0, 65, 0
4, 194160, Note_on_c, 0, 55, 0
4, 194160, Note_on_c, 0, 59, 0
4, 194160, Note_on_c, 0, 62, 0
4, 194400, Note_on_c, 0, 60, 75
4, 194400, Note_on_c, 0, 64, 75
4, 194400, Note_on_c, 0, 67, 75
4, 194640, Note_on_c, 0, 67, 0
4, 194640, Note_on_c, 0, 64, 0
4, 194640, Note_on_c, 0, 60, 0
4, 194880, Note_on_c, 0, 57, 75
4, 194880, Note_on_c, 0, 61, 75
4, 194880, Note_on_c, 0, 64, 75
4, 194880, Note_on_c, 0, 67, 75
4, 195120, Note_on_c, 0, 67, 0
4, 195120, Note_on_c, 0, 57, 0
4, 195120, Note_on_c, 0, 61, 0
4, 195120, Note_on_c, 0, 64, 0
4, 195360, Note_on_c, 0, 62, 75
4, 195360, Note_on_c, 0, 65, 75
4, 195360, Note_on_c, 0, 69, 75
4, 195600, Note_on_c, 0, 69, 0
4, 195600, Note_on_c, 0, 65, 0
4, 195600, Note_on_c, 0, 62, 0
4, 195840, Note_on_c, 0, 58, 75
4, 195840, Note_on_c, 0, 62, 75
4, 195840, Note_on_c, 0, 65, 75
4, 195840, Note_on_c, 0, 68, 75
4, 196080, Note_on_c, 0, 68, 0
4, 196080, Note_on_c, 0, 58, 0
4, 196080, Note_on_c, 0, 62, 0
4, 196080, Note_on_c, 0, 65, 0
4, 196320, Note_on_c, 0, 51, 88
4, 196560, Note_on_c, 0, 51, 0
4, 196560, Note_on_c, 0, 55, 88
4, 196560, Note_on_c, 0, 58, 88
4, 196560, Note_on_c, 0, 63, 88
4, 196800, Note_on_c, 0, 63, 0
4, 196800, Note_on_c, 0, 58, 0
4, 196800, Note_on_c, 0, 55, 0
4, 196800, Note_on_c, 0, 49, 88
4, 197040, Note_on_c, 0, 49, 0
4, 197040, Note_on_c, 0, 55, 88
4, 197040, Note_on_c, 0, 58, 88
4, 197040, Note_on_c, 0, 65, 88
4, 197280, Note_on_c, 0, 65, 0
4, 197280, Note_on_c, 0, 58, 0
4, 197280, Note_on_c, 0, 55, 0
4, 197280, Note_on_c, 0, 48, 88
4, 197520, Note_on_c, 0, 48, 0
4, 197520, Note_on_c, 0, 55, 88
4, 197520, Note_on_c, 0, 60, 88
4, 197520, Note_on_c, 0, 64, 88
4, 197760, Note_on_c, 0, 64, 0
4, 197760, Note_on_c, 0, 60, 0
4, 197760, Note_on_c, 0, 55, 0
4, 197760, Note_on_c, 0, 52, 88
4, 198000, Note_on_c, 0, 52, 0
4, 198000, Note_on_c, 0, 55, 88
4, 198000, Note_on_c, 0, 58, 88
4, 198000, Note_on_c, 0, 60, 88
4, 198240, Note_on_c, 0, 60, 0
4, 198240, Note_on_c, 0, 58, 0
4, 198240, Note_on_c, 0, 55, 0
4, 198240, Note_on_c, 0, 53, 88
4, 198480, Note_on_c, 0, 53, 0
4, 198480, Note_on_c, 0, 56, 88
4, 198480, Note_on_c, 0, 60, 88
4, 198480, Note_on_c, 0, 65, 88
4, 198720, Note_on_c, 0, 65, 0
4, 198720, Note_on_c, 0, 60, 0
4, 198720, Note_on_c, 0, 56, 0
4, 198720, Note_on_c, 0, 51, 88
4, 198960, Note_on_c, 0, 51, 0
4, 198960, Note_on_c, 0, 56, 88
4, 198960, Note_on_c, 0, 60, 88
4, 198960, Note_on_c, 0, 65, 88
4, 199200, Note_on_c, 0, 65, 0
4, 199200, Note_on_c, 0, 60, 0
4, 199200, Note_on_c, 0, 56, 0
4, 199200, Note_on_c, 0, 50, 88
4, 199440, Note_on_c, 0, 50, 0
4, 199440, Note_on_c, 0, 53, 88
4, 199440, Note_on_c, 0, 56, 88
4, 199440, Note_on_c, 0, 59, 88
4, 199680, Note_on_c, 0, 59, 0
4, 199680, Note_on_c, 0, 56, 0
4, 199680, Note_on_c, 0, 53, 0
4, 199680, Note_on_c, 0, 46, 88
4, 199920, Note_on_c, 0, 46, 0
4, 199920, Note_on_c, 0, 53, 88
4, 199920, Note_on_c, 0, 56, 88
4, 199920, Note_on_c, 0, 58, 88
4, 200160, Note_on_c, 0, 58, 0
4, 200160, Note_on_c, 0, 56, 0
4, 200160, Note_on_c, 0, 53, 0
4, 200160, Note_on_c, 0, 51, 88
4, 200400, Note_on_c, 0, 51, 0
4, 200400, Note_on_c, 0, 55, 88
4, 200400, Note_on_c, 0, 58, 88
4, 200400, Note_on_c, 0, 63, 88
4, 200640, Note_on_c, 0, 63, 0
4, 200640, Note_on_c, 0, 58, 0
4, 200640, Note_on_c, 0, 55, 0
4, 200640, Note_on_c, 0, 49, 88
4, 200880, Note_on_c, 0, 49, 0
4, 200880, Note_on_c, 0, 55, 88
4, 200880, Note_on_c, 0, 58, 88
4, 200880, Note_on_c, 0, 65, 88
4, 201120, Note_on_c, 0, 65, 0
4, 201120, Note_on_c, 0, 58, 0
4, 201120, Note_on_c, 0, 55, 0
4, 201120, Note_on_c, 0, 48, 88
4, 201360, Note_on_c, 0, 48, 0
4, 201360, Note_on_c, 0, 55, 88
4, 201360, Note_on_c, 0, 60, 88
4, 201360, Note_on_c, 0, 64, 88
4, 201600, Note_on_c, 0, 64, 0
4, 201600, Note_on_c, 0, 60, 0
4, 201600, Note_on_c, 0, 55, 0
4, 201600, Note_on_c, 0, 52, 88
4, 201840, Note_on_c, 0, 52, 0
4, 201840, Note_on_c, 0, 55, 88
4, 201840, Note_on_c, 0, 58, 88
4, 201840, Note_on_c, 0, 60, 88
4, 202080, Note_on_c, 0, 60, 0
4, 202080, Note_on_c, 0, 58, 0
4, 202080, Note_on_c, 0, 55, 0
4, 202080, Note_on_c, 0, 53, 88
4, 202320, Note_on_c, 0, 53, 0
4, 202320, Note_on_c, 0, 56, 88
4, 202320, Note_on_c, 0, 60, 88
4, 202320, Note_on_c, 0, 65, 88
4, 202560, Note_on_c, 0, 65, 0
4, 202560, Note_on_c, 0, 60, 0
4, 202560, Note_on_c, 0, 56, 0
4, 202560, Note_on_c, 0, 51, 88
4, 202800, Note_on_c, 0, 51, 0
4, 202800, Note_on_c, 0, 56, 88
4, 202800, Note_on_c, 0, 60, 88
4, 202800, Note_on_c, 0, 65, 88
4, 203040, Note_on_c, 0, 65, 0
4, 203040, Note_on_c, 0, 60, 0
4, 203040, Note_on_c, 0, 56, 0
4, 203040, Note_on_c, 0, 50, 88
4, 203280, Note_on_c, 0, 50, 0
4, 203280, Note_on_c, 0, 53, 88
4, 203280, Note_on_c, 0, 56, 88
4, 203280, Note_on_c, 0, 59, 88
4, 203520, Note_on_c, 0, 59, 0
4, 203520, Note_on_c, 0, 56, 0
4, 203520, Note_on_c, 0, 53, 0
4, 203520, Note_on_c, 0, 46, 88
4, 203760, Note_on_c, 0, 46, 0
4, 203760, Note_on_c, 0, 53, 88
4, 203760, Note_on_c, 0, 56, 88
4, 203760, Note_on_c, 0, 58, 88
4, 204000, Note_on_c, 0, 58, 0
4, 204000, Note_on_c, 0, 56, 0
4, 204000, Note_on_c, 0, 53, 0
4, 204000, Note_on_c, 0, 51, 88
4, 204000, Note_on_c, 0, 55, 88
4, 204000, Note_on_c, 0, 58, 88
4, 204240, Note_on_c, 0, 58, 0
4, 204240, Note_on_c, 0, 55, 0
4, 204240, Note_on_c, 0, 51, 0
4, 204480, Note_on_c, 0, 49, 88
4, 204480, Note_on_c, 0, 55, 88
4, 204480, Note_on_c, 0, 58, 88
4, 204720, Note_on_c, 0, 58, 0
4, 204720, Note_on_c, 0, 55, 0
4, 204720, Note_on_c, 0, 49, 0
4, 204720, Note_on_c, 0, 65, 88
4, 204880, Note_on_c, 0, 48, 88
4, 204920, Note_on_c, 0, 55, 88
4, 204960, Note_on_c, 0, 65, 0
4, 204960, Note_on_c, 0, 64, 88
4, 205200, Note_on_c, 0, 64, 0
4, 205200, Note_on_c, 0, 55, 0
4, 205200, Note_on_c, 0, 48, 0
4, 205440, Note_on_c, 0, 52, 88
4, 205440, Note_on_c, 0, 55, 88
4, 205440, Note_on_c, 0, 60, 88
4, 205680, Note_on_c, 0, 60, 0
4, 205680, Note_on_c, 0, 55, 0
4, 205680, Note_on_c, 0, 52, 0
4, 205680, Note_on_c, 0, 67, 88
4, 205920, Note_on_c, 0, 67, 0
4, 205920, Note_on_c, 0, 53, 88
4, 205920, Note_on_c, 0, 56, 88
4, 205920, Note_on_c, 0, 60, 88
4, 205920, Note_on_c, 0, 65, 88
4, 206160, Note_on_c, 0, 65, 0
4, 206160, Note_on_c, 0, 53, 0
4, 206160, Note_on_c, 0, 56, 0
4, 206160, Note_on_c, 0, 60, 0
4, 206400, Note_on_c, 0, 47, 88
4, 206400, Note_on_c, 0, 53, 88
4, 206400, Note_on_c, 0, 56, 88
4, 206640, Note_on_c, 0, 56, 0
4, 206640, Note_on_c, 0, 53, 0
4, 206640, Note_on_c, 0, 47, 0
4, 206640, Note_on_c, 0, 63, 88
4, 206800, Note_on_c, 0, 46, 88
4, 206840, Note_on_c, 0, 53, 88
4, 206880, Note_on_c, 0, 63, 0
4, 206880, Note_on_c, 0, 62, 88
4, 207120, Note_on_c, 0, 62, 0
4, 207120, Note_on_c, 0, 53, 0
4, 207120, Note_on_c, 0, 46, 0
4, 207360, Note_on_c, 0, 50, 88
4, 207360, Note_on_c, 0, 53, 88
4, 207360, Note_on_c, 0, 58, 88
4, 207600, Note_on_c, 0, 58, 0
4, 207600, Note_on_c, 0, 53, 0
4, 207600, Note_on_c, 0, 50, 0
4, 207600, Note_on_c, 0, 65, 88
4, 207840, Note_on_c, 0, 65, 0
4, 207840, Note_on_c, 0, 51, 88
4, 207840, Note_on_c, 0, 55, 88
4, 207840, Note_on_c, 0, 58, 88
4, 207840, Note_on_c, 0, 63, 88
4, 208080, Note_on_c, 0, 63, 0
4, 208080, Note_on_c, 0, 51, 0
4, 208080, Note_on_c, 0, 55, 0
4, 208080, Note_on_c, 0, 58, 0
4, 208320, Note_on_c, 0, 49, 88
4, 208320, Note_on_c, 0, 55, 88
4, 208320, Note_on_c, 0, 58, 88
4, 208560, Note_on_c, 0, 58, 0
4, 208560, Note_on_c, 0, 55, 0
4, 208560, Note_on_c, 0, 49, 0
4, 208560, Note_on_c, 0, 65, 88
4, 208720, Note_on_c, 0, 48, 88
4, 208760, Note_on_c, 0, 55, 88
4, 208800, Note_on_c, 0, 65, 0
4, 208800, Note_on_c, 0, 64, 88
4, 209040, Note_on_c, 0, 64, 0
4, 209040, Note_on_c, 0, 55, 0
4, 209040, Note_on_c, 0, 48, 0
4, 209280, Note_on_c, 0, 52, 88
4, 209280, Note_on_c, 0, 55, 88
4, 209280, Note_on_c, 0, 60, 88
4, 209520, Note_on_c, 0, 60, 0
4, 209520, Note_on_c, 0, 55, 0
4, 209520, Note_on_c, 0, 52, 0
4, 209520, Note_on_c, 0, 67, 88
4, 209760, Note_on_c, 0, 67, 0
4, 209760, Note_on_c, 0, 53, 88
4, 209760, Note_on_c, 0, 56, 88
4, 209760, Note_on_c, 0, 60, 88
4, 209760, Note_on_c, 0, 65, 88
4, 210000, Note_on_c, 0, 65, 0
4, 210000, Note_on_c, 0, 53, 0
4, 210000, Note_on_c, 0, 56, 0
4, 210000, Note_on_c, 0, 60, 0
4, 210240, Note_on_c, 0, 47, 88
4, 210240, Note_on_c, 0, 53, 88
4, 210240, Note_on_c, 0, 56, 88
4, 210480, Note_on_c, 0, 56, 0
4, 210480, Note_on_c, 0, 53, 0
4, 210480, Note_on_c, 0, 47, 0
4, 210480, Note_on_c, 0, 63, 88
4, 210640, Note_on_c, 0, 46, 88
4, 210680, Note_on_c, 0, 53, 88
4, 210720, Note_on_c, 0, 63, 0
4, 210720, Note_on_c, 0, 62, 88
4, 210960, Note_on_c, 0, 62, 0
4, 210960, Note_on_c, 0, 53, 0
4, 210960, Note_on_c, 0, 46, 0
4, 211200, Note_on_c, 0, 50, 88
4, 211200, Note_on_c, 0, 53, 88
4, 211200, Note_on_c, 0, 58, 88
4, 211440, Note_on_c, 0, 58, 0
4, 211440, Note_on_c, 0, 53, 0
4, 211440, Note_on_c, 0, 50, 0
4, 211440, Note_on_c, 0, 65, 88
4, 211680, Note_on_c, 0, 65, 0
4, 211680, Note_on_c, 0, 51, 88
4, 211680, Note_on_c, 0, 55, 88
4, 211680, Note_on_c, 0, 58, 88
4, 211680, Note_on_c, 0, 63, 88
4, 211920, Note_on_c, 0, 63, 0
4, 211920, Note_on_c, 0, 51, 0
4, 211920, Note_on_c, 0, 55, 0
4, 211920, Note_on_c, 0, 58, 0
4, 212400, Note_on_c, 0, 32, 88
4, 212400, Note_on_c, 0, 44, 88
4, 212640, Note_on_c, 0, 44, 0
4, 212640, Note_on_c, 0, 32, 0
4, 212640, Note_on_c, 0, 39, 88
4, 212640, Note_on_c, 0, 51, 88
4, 212880, Note_on_c, 0, 51, 0
4, 212880, Note_on_c, 0, 39, 0
4, 213360, Note_on_c, 0, 32, 88
4, 213360, Note_on_c, 0, 44, 88
4, 213600, Note_on_c, 0, 44, 0
4, 213600, Note_on_c, 0, 32, 0
4, 213600, Note_on_c, 0, 39, 88
4, 213600, Note_on_c, 0, 51, 88
4, 213840, Note_on_c, 0, 51, 0
4, 213840, Note_on_c, 0, 39, 0
4, 214320, Note_on_c, 0, 32, 88
4, 214320, Note_on_c, 0, 44, 88
4, 214560, Note_on_c, 0, 44, 0
4, 214560, Note_on_c, 0, 32, 0
4, 214560, Note_on_c, 0, 39, 88
4, 214560, Note_on_c, 0, 51, 88
4, 214800, Note_on_c, 0, 51, 0
4, 214800, Note_on_c, 0, 39, 0
4, 215280, Note_on_c, 0, 32, 88
4, 215280, Note_on_c, 0, 44, 88
4, 215520, Note_on_c, 0, 44, 0
4, 215520, Note_on_c, 0, 32, 0
4, 215520, Note_on_c, 0, 39, 88
4, 215520, Note_on_c, 0, 51, 88
4, 215760, Note_on_c, 0, 51, 0
4, 215760, Note_on_c, 0, 39, 0
4, 216240, Note_on_c, 0, 58, 88
4, 216480, Note_on_c, 0, 58, 0
4, 216480, Note_on_c, 0, 39, 114
4, 216480, Note_on_c, 0, 51, 114
4, 216960, Note_on_c, 0, 51, 0
4, 216960, Note_on_c, 0, 39, 0
4, 216960, End_track
5, 0, Start_track
5, 0, Title_t, "Grand Piano"
5, 0, Program_c, 0, 0
5, 0, Control_c, 0, 7, 115
5, 0, Control_c, 0, 10, 48
5, 140160, Note_on_c, 0, 42, 49
5, 140640, Note_on_c, 0, 42, 0
5, 140880, Note_on_c, 0, 49, 49
5, 140880, Note_on_c, 0, 54, 49
5, 141360, Note_on_c, 0, 54, 0
5, 141360, Note_on_c, 0, 49, 0
5, 141600, Note_on_c, 0, 42, 49
5, 142080, Note_on_c, 0, 42, 0
5, 143040, Note_on_c, 0, 42, 49
5, 143520, Note_on_c, 0, 42, 0
5, 143760, Note_on_c, 0, 66, 49
5, 144240, Note_on_c, 0, 66, 0
5, 144480, Note_on_c, 0, 41, 49
5, 144960, Note_on_c, 0, 41, 0
5, 145120, Note_on_c, 0, 49, 49
5, 145160, Note_on_c, 0, 56, 49
5, 145200, Note_on_c, 0, 59, 49
5, 145680, Note_on_c, 0, 59, 0
5, 145680, Note_on_c, 0, 56, 0
5, 145680, Note_on_c, 0, 49, 0
5, 147360, Note_on_c, 0, 37, 49
5, 147360, Note_on_c, 0, 49, 49
5, 147840, Note_on_c, 0, 49, 0
5, 147840, Note_on_c, 0, 37, 0
5, 148080, Note_on_c, 0, 58, 49
5, 148080, Note_on_c, 0, 63, 49
5, 148080, Note_on_c, 0, 67, 49
5, 148560, Note_on_c, 0, 67, 0
5, 148560, Note_on_c, 0, 63, 0
5, 148560, Note_on_c, 0, 58, 0
5, 148800, Note_on_c, 0, 47, 49
5, 148800, Note_on_c, 0, 51, 49
5, 149280, Note_on_c, 0, 51, 0
5, 149280, Note_on_c, 0, 47, 0
5, 149520, Note_on_c, 0, 44, 49
5, 149520, Note_on_c, 0, 51, 49
5, 150000, Note_on_c, 0, 51, 0
5, 150000, Note_on_c, 0, 44, 0
5, 150240, Note_on_c, 0, 39, 49
5, 150720, Note_on_c, 0, 39, 0
5, 151680, Note_on_c, 0, 47, 62
5, 152160, Note_on_c, 0, 47, 0
5, 152400, Note_on_c, 0, 56, 62
5, 152400, Note_on_c, 0, 63, 62
5, 152880, Note_on_c, 0, 63, 0
5, 152880, Note_on_c, 0, 56, 0
5, 153040, Note_on_c, 0, 46, 62
5, 153080, Note_on_c, 0, 52, 62
5, 153120, Note_on_c, 0, 56, 62
5, 153600, Note_on_c, 0, 56, 0
5, 153600, Note_on_c, 0, 52, 0
5, 153600, Note_on_c, 0, 46, 0
5, 154560, Note_on_c, 0, 49, 62
5, 155040, Note_on_c, 0, 49, 0
5, 155280, Note_on_c, 0, 58, 62
5, 155280, Note_on_c, 0, 64, 62
5, 155760, Note_on_c, 0, 64, 0
5, 155760, Note_on_c, 0, 58, 0
5, 156000, Note_on_c, 0, 48, 62
5, 156000, Note_on_c, 0, 54, 62
5, 156000, Note_on_c, 0, 57, 62
5, 156480, Note_on_c, 0, 57, 0
5, 156480, Note_on_c, 0, 54, 0
5, 156480, Note_on_c, 0, 48, 0
5, 158160, Note_on_c, 0, 60, 62
5, 158160, Note_on_c, 0, 66, 62
5, 158640, Note_on_c, 0, 66, 0
5, 158640, Note_on_c, 0, 60, 0
5, 158820, Note_on_c, 0, 49, 62
5, 158880, Note_on_c, 0, 58, 62
5, 159360, Note_on_c, 0, 58, 0
5, 159360, Note_on_c, 0, 49, 0
5, 159600, Note_on_c, 0, 60, 62
5, 159600, Note_on_c, 0, 63, 62
5, 159600, Note_on_c, 0, 65, 62
5, 160080, Note_on_c, 0, 65, 0
5, 160080, Note_on_c, 0, 63, 0
5, 160080, Note_on_c, 0, 60, 0
5, 160320, Note_on_c, 0, 58, 62
5, 160320, Note_on_c, 0, 62, 62
5, 160320, Note_on_c, 0, 65, 62
5, 160800, Note_on_c, 0, 65, 0
5, 160800, Note_on_c, 0, 62, 0
5, 160800, Note_on_c, 0, 58, 0
5, 161040, Note_on_c, 0, 58, 62
5, 161040, Note_on_c, 0, 62, 62
5, 161040, Note_on_c, 0, 65, 62
5, 161520, Note_on_c, 0, 65, 0
5, 161520, Note_on_c, 0, 62, 0
5, 161520, Note_on_c, 0, 58, 0
5, 161700, Note_on_c, 0, 51, 62
5, 161760, Note_on_c, 0, 58, 62
5, 162240, Note_on_c, 0, 58, 0
5, 162240, Note_on_c, 0, 51, 0
5, 162480, Note_on_c, 0, 51, 62
5, 162480, Note_on_c, 0, 58, 62
5, 162960, Note_on_c, 0, 58, 0
5, 162960, Note_on_c, 0, 51, 0
5, 163200, Note_on_c, 0, 32, 62
5, 163200, Note_on_c, 0, 44, 62
5, 163680, Note_on_c, 0, 44, 0
5, 163680, Note_on_c, 0, 32, 0
5, 163920, Note_on_c, 0, 53, 62
5, 163920, Note_on_c, 0, 59, 62
5, 164400, Note_on_c, 0, 59, 0
5, 164400, Note_on_c, 0, 53, 0
5, 164640, Note_on_c, 0, 34, 62
5, 164640, Note_on_c, 0, 46, 62
5, 165120, Note_on_c, 0, 46, 0
5, 165120, Note_on_c, 0, 34, 0
5, 165360, Note_on_c, 0, 54, 62
5, 165360, Note_on_c, 0, 58, 62
5, 165840, Note_on_c, 0, 58, 0
5, 165840, Note_on_c, 0, 54, 0
5, 166080, Note_on_c, 0, 34, 62
5, 166080, Note_on_c, 0, 46, 62
5, 166560, Note_on_c, 0, 46, 0
5, 166560, Note_on_c, 0, 34, 0
5, 166800, Note_on_c, 0, 56, 62
5, 166800, Note_on_c, 0, 58, 62
5, 167280, Note_on_c, 0, 58, 0
5, 167280, Note_on_c, 0, 56, 0
5, 167520, Note_on_c, 0, 47, 62
5, 167520, Note_on_c, 0, 54, 62
5, 167520, Note_on_c, 0, 57, 62
5, 168000, Note_on_c, 0, 57, 0
5, 168000, Note_on_c, 0, 54, 0
5, 168000, Note_on_c, 0, 47, 0
5, 168240, Note_on_c, 0, 59, 62
5, 168240, Note_on_c, 0, 66, 62
5, 168240, Note_on_c, 0, 69, 62
5, 168720, Note_on_c, 0, 69, 0
5, 168720, Note_on_c, 0, 66, 0
5, 168720, Note_on_c, 0, 59, 0
5, 168900, Note_on_c, 0, 44, 49
5, 168960, Note_on_c, 0, 53, 49
5, 168960, Note_on_c, 0, 59, 49
5, 169440, Note_on_c, 0, 59, 0
5, 169440, Note_on_c, 0, 53, 0
5, 169440, Note_on_c, 0, 44, 0
5, 170340, Note_on_c, 0, 46, 49
5, 170400, Note_on_c, 0, 54, 49
5, 170400, Note_on_c, 0, 58, 49
5, 170880, Note_on_c, 0, 58, 0
5, 170880, Note_on_c, 0, 54, 0
5, 170880, Note_on_c, 0, 46, 0
5, 171840, Note_on_c, 0, 46, 49
5, 171840, Note_on_c, 0, 56, 49
5, 172320, Note_on_c, 0, 56, 0
5, 172320, Note_on_c, 0, 46, 0
5, 172320, End_track
0, 0, End_of_file
