0, 0, Header, 1, 5, 480
1, 0, Start_track
1, 0, Title_t, "tchaikovsky swan lake act3 23 mazurka"
1, 0, Copyright_t, "Adaptation for Disklavier pianos, by: Robert C. Kuhmann (c) 2012."
1, 0, Text_t, "Seq. (c) by: Segundo G. Yogore,  2007\012"
1, 0, Time_signature, 3, 2, 24, 8
1, 0, Key_signature, 1, "major"
1, 0, Tempo, 387097
1, 4320, Time_signature, 4, 2, 24, 8
1, 6240, Time_signature, 3, 2, 24, 8
1, 121440, Key_signature, 0, "major"
1, 121440, Tempo, 413793
1, 132960, Tempo, 413793
1, 156000, Tempo, 413793
1, 167520, Tempo, 413793
1, 179040, Key_signature, 1, "major"
1, 179040, Tempo, 387097
1, 190560, Tempo, 387097
1, 310080, Tempo, 342857
1, 331680, Time_signature, 8, 2, 24, 8
1, 331680, End_track
2, 0, Start_track
2, 0, Title_t, "Grand Piano"
2, 0, Program_c, 0, 0
2, 0, Control_c, 0, 7, 115
2, 0, Control_c, 0, 10, 86
2, 0, Note_on_c, 0, 76, 96
2, 0, Note_on_c, 0, 78, 96
2, 0, Note_on_c, 0, 81, 96
2, 0, Note_on_c, 0, 84, 96
2, 0, Note_on_c, 0, 88, 96
2, 480, Note_on_c, 0, 88, 0
2, 480, Note_on_c, 0, 81, 0
2, 480, Note_on_c, 0, 76, 0
2, 480, Note_on_c, 0, 78, 0
2, 480, Note_on_c, 0, 84, 0
2, 480, Note_on_c, 0, 76, 96
2, 480, Note_on_c, 0, 78, 96
2, 480, Note_on_c, 0, 81, 96
2, 480, Note_on_c, 0, 84, 96
2, 480, Note_on_c, 0, 88, 96
2, 960, Note_on_c, 0, 88, 0
2, 960, Note_on_c, 0, 81, 0
2, 960, Note_on_c, 0, 76, 0
2, 960, Note_on_c, 0, 78, 0
2, 960, Note_on_c, 0, 84, 0
2, 1440, Note_on_c, 0, 74, 96
2, 1440, Note_on_c, 0, 78, 96
2, 1440, Note_on_c, 0, 81, 96
2, 1440, Note_on_c, 0, 84, 96
2, 1440, Note_on_c, 0, 86, 96
2, 1920, Note_on_c, 0, 86, 0
2, 1920, Note_on_c, 0, 81, 0
2, 1920, Note_on_c, 0, 74, 0
2, 1920, Note_on_c, 0, 78, 0
2, 1920, Note_on_c, 0, 84, 0
2, 1920, Note_on_c, 0, 74, 96
2, 1920, Note_on_c, 0, 78, 96
2, 1920, Note_on_c, 0, 81, 96
2, 1920, Note_on_c, 0, 84, 96
2, 1920, Note_on_c, 0, 86, 96
2, 2400, Note_on_c, 0, 86, 0
2, 2400, Note_on_c, 0, 81, 0
2, 2400, Note_on_c, 0, 74, 0
2, 2400, Note_on_c, 0, 78, 0
2, 2400, Note_on_c, 0, 84, 0
2, 2880, Note_on_c, 0, 72, 96
2, 2880, Note_on_c, 0, 78, 96
2, 2880, Note_on_c, 0, 81, 96
2, 2880, Note_on_c, 0, 84, 96
2, 3360, Note_on_c, 0, 84, 0
2, 3360, Note_on_c, 0, 72, 0
2, 3360, Note_on_c, 0, 78, 0
2, 3360, Note_on_c, 0, 81, 0
2, 3360, Note_on_c, 0, 72, 96
2, 3360, Note_on_c, 0, 78, 96
2, 3360, Note_on_c, 0, 81, 96
2, 3840, Note_on_c, 0, 81, 0
2, 3840, Note_on_c, 0, 78, 0
2, 3840, Note_on_c, 0, 72, 0
2, 3840, Note_on_c, 0, 69, 96
2, 3840, Note_on_c, 0, 72, 96
2, 3840, Note_on_c, 0, 78, 96
2, 4320, Note_on_c, 0, 78, 0
2, 4320, Note_on_c, 0, 72, 0
2, 4320, Note_on_c, 0, 69, 0
2, 4320, Note_on_c, 0, 66, 96
2, 4320, Note_on_c, 0, 69, 96
2, 4320, Note_on_c, 0, 72, 96
2, 4320, Note_on_c, 0, 74, 96
2, 4800, Note_on_c, 0, 74, 0
2, 4800, Note_on_c, 0, 66, 0
2, 4800, Note_on_c, 0, 69, 0
2, 4800, Note_on_c, 0, 72, 0
2, 5760, Control_c, 0, 64, 127
2, 5760, Note_on_c, 0, 74, 96
2, 5828, Note_on_c, 0, 74, 0
2, 5828, Note_on_c, 0, 76, 96
2, 5897, Note_on_c, 0, 76, 0
2, 5897, Note_on_c, 0, 78, 96
2, 5965, Note_on_c, 0, 78, 0
2, 5965, Note_on_c, 0, 79, 96
2, 6034, Note_on_c, 0, 79, 0
2, 6034, Note_on_c, 0, 81, 96
2, 6102, Note_on_c, 0, 81, 0
2, 6102, Note_on_c, 0, 83, 96
2, 6171, Note_on_c, 0, 83, 0
2, 6171, Control_c, 0, 64, 0
2, 6171, Note_on_c, 0, 84, 96
2, 6240, Note_on_c, 0, 84, 0
2, 6240, Note_on_c, 0, 74, 96
2, 6240, Note_on_c, 0, 79, 96
2, 6240, Note_on_c, 0, 83, 96
2, 6240, Note_on_c, 0, 86, 96
2, 6600, Note_on_c, 0, 86, 0
2, 6600, Note_on_c, 0, 74, 0
2, 6600, Note_on_c, 0, 79, 0
2, 6600, Note_on_c, 0, 83, 0
2, 6600, Note_on_c, 0, 74, 96
2, 6600, Note_on_c, 0, 79, 96
2, 6600, Note_on_c, 0, 83, 96
2, 6600, Note_on_c, 0, 86, 96
2, 6720, Note_on_c, 0, 86, 0
2, 6720, Note_on_c, 0, 74, 0
2, 6720, Note_on_c, 0, 79, 0
2, 6720, Note_on_c, 0, 83, 0
2, 6720, Note_on_c, 0, 73, 96
2, 6720, Note_on_c, 0, 79, 96
2, 6720, Note_on_c, 0, 83, 96
2, 6720, Note_on_c, 0, 85, 96
2, 7680, Note_on_c, 0, 85, 0
2, 7680, Note_on_c, 0, 73, 0
2, 7680, Note_on_c, 0, 79, 0
2, 7680, Note_on_c, 0, 83, 0
2, 7680, Note_on_c, 0, 76, 96
2, 7680, Note_on_c, 0, 79, 96
2, 7680, Note_on_c, 0, 83, 96
2, 7680, Note_on_c, 0, 88, 96
2, 8160, Note_on_c, 0, 88, 0
2, 8160, Note_on_c, 0, 76, 0
2, 8160, Note_on_c, 0, 79, 0
2, 8160, Note_on_c, 0, 83, 0
2, 8160, Note_on_c, 0, 74, 96
2, 8160, Note_on_c, 0, 79, 96
2, 8160, Note_on_c, 0, 83, 96
2, 8160, Note_on_c, 0, 86, 96
2, 9120, Note_on_c, 0, 86, 0
2, 9120, Note_on_c, 0, 74, 0
2, 9120, Note_on_c, 0, 79, 0
2, 9120, Note_on_c, 0, 83, 0
2, 9120, Note_on_c, 0, 71, 96
2, 9120, Note_on_c, 0, 74, 96
2, 9120, Note_on_c, 0, 79, 96
2, 9120, Note_on_c, 0, 83, 96
2, 9480, Note_on_c, 0, 83, 0
2, 9480, Note_on_c, 0, 71, 0
2, 9480, Note_on_c, 0, 74, 0
2, 9480, Note_on_c, 0, 79, 0
2, 9480, Note_on_c, 0, 71, 96
2, 9480, Note_on_c, 0, 74, 96
2, 9480, Note_on_c, 0, 79, 96
2, 9480, Note_on_c, 0, 83, 96
2, 9600, Note_on_c, 0, 83, 0
2, 9600, Note_on_c, 0, 71, 0
2, 9600, Note_on_c, 0, 74, 0
2, 9600, Note_on_c, 0, 79, 0
2, 9600, Note_on_c, 0, 70, 96
2, 9600, Note_on_c, 0, 74, 96
2, 9600, Note_on_c, 0, 79, 96
2, 9600, Note_on_c, 0, 82, 96
2, 10560, Note_on_c, 0, 82, 0
2, 10560, Note_on_c, 0, 70, 0
2, 10560, Note_on_c, 0, 74, 0
2, 10560, Note_on_c, 0, 79, 0
2, 10560, Note_on_c, 0, 72, 96
2, 10560, Note_on_c, 0, 74, 96
2, 10560, Note_on_c, 0, 79, 96
2, 10560, Note_on_c, 0, 84, 96
2, 11040, Note_on_c, 0, 84, 0
2, 11040, Note_on_c, 0, 72, 0
2, 11040, Note_on_c, 0, 74, 0
2, 11040, Note_on_c, 0, 79, 0
2, 11040, Note_on_c, 0, 71, 96
2, 11040, Note_on_c, 0, 74, 96
2, 11040, Note_on_c, 0, 79, 96
2, 11040, Note_on_c, 0, 83, 96
2, 12000, Note_on_c, 0, 83, 0
2, 12000, Note_on_c, 0, 71, 0
2, 12000, Note_on_c, 0, 74, 0
2, 12000, Note_on_c, 0, 79, 0
2, 12000, Note_on_c, 0, 76, 96
2, 12360, Note_on_c, 0, 76, 0
2, 12360, Note_on_c, 0, 78, 96
2, 12480, Note_on_c, 0, 78, 0
2, 12480, Note_on_c, 0, 81, 96
2, 12840, Note_on_c, 0, 81, 0
2, 12840, Note_on_c, 0, 78, 96
2, 12960, Note_on_c, 0, 78, 0
2, 12960, Note_on_c, 0, 74, 96
2, 13440, Note_on_c, 0, 74, 0
2, 13440, Note_on_c, 0, 76, 96
2, 13800, Note_on_c, 0, 76, 0
2, 13800, Note_on_c, 0, 78, 96
2, 13920, Note_on_c, 0, 78, 0
2, 13920, Note_on_c, 0, 83, 96
2, 14079, Note_on_c, 0, 83, 0
2, 14079, Note_on_c, 0, 81, 96
2, 14240, Note_on_c, 0, 81, 0
2, 14240, Note_on_c, 0, 78, 96
2, 14400, Note_on_c, 0, 78, 0
2, 14400, Note_on_c, 0, 74, 96
2, 14760, Note_on_c, 0, 74, 0
2, 14760, Note_on_c, 0, 74, 96
2, 14880, Note_on_c, 0, 74, 0
2, 14880, Note_on_c, 0, 64, 96
2, 14880, Note_on_c, 0, 76, 96
2, 15240, Note_on_c, 0, 76, 0
2, 15240, Note_on_c, 0, 64, 0
2, 15240, Note_on_c, 0, 66, 96
2, 15240, Note_on_c, 0, 78, 96
2, 15360, Note_on_c, 0, 78, 0
2, 15360, Note_on_c, 0, 66, 0
2, 15360, Note_on_c, 0, 67, 96
2, 15360, Note_on_c, 0, 71, 96
2, 15360, Note_on_c, 0, 79, 96
2, 15720, Note_on_c, 0, 79, 0
2, 15720, Note_on_c, 0, 71, 0
2, 15720, Note_on_c, 0, 67, 0
2, 15720, Note_on_c, 0, 69, 96
2, 15720, Note_on_c, 0, 81, 96
2, 15840, Note_on_c, 0, 81, 0
2, 15840, Note_on_c, 0, 69, 0
2, 15840, Note_on_c, 0, 71, 96
2, 15840, Note_on_c, 0, 74, 96
2, 15840, Note_on_c, 0, 83, 96
2, 16200, Note_on_c, 0, 83, 0
2, 16200, Note_on_c, 0, 74, 0
2, 16200, Note_on_c, 0, 71, 0
2, 16200, Note_on_c, 0, 73, 96
2, 16200, Note_on_c, 0, 85, 96
2, 16320, Note_on_c, 0, 85, 0
2, 16320, Note_on_c, 0, 73, 0
2, 16320, Note_on_c, 0, 74, 96
2, 16320, Note_on_c, 0, 83, 96
2, 16320, Note_on_c, 0, 86, 96
2, 16680, Note_on_c, 0, 86, 0
2, 16680, Note_on_c, 0, 83, 0
2, 16680, Note_on_c, 0, 74, 0
2, 16680, Note_on_c, 0, 76, 96
2, 16680, Note_on_c, 0, 88, 96
2, 16800, Note_on_c, 0, 88, 0
2, 16800, Note_on_c, 0, 76, 0
2, 16800, Note_on_c, 0, 78, 96
2, 16800, Note_on_c, 0, 90, 96
2, 17520, Note_on_c, 0, 90, 0
2, 17520, Note_on_c, 0, 78, 0
2, 17520, Note_on_c, 0, 83, 96
2, 17760, Note_on_c, 0, 83, 0
2, 17760, Note_on_c, 0, 74, 96
2, 17760, Note_on_c, 0, 79, 96
2, 17760, Note_on_c, 0, 83, 96
2, 17760, Note_on_c, 0, 86, 96
2, 18120, Note_on_c, 0, 86, 0
2, 18120, Note_on_c, 0, 74, 0
2, 18120, Note_on_c, 0, 79, 0
2, 18120, Note_on_c, 0, 83, 0
2, 18120, Note_on_c, 0, 74, 96
2, 18120, Note_on_c, 0, 79, 96
2, 18120, Note_on_c, 0, 83, 96
2, 18120, Note_on_c, 0, 86, 96
2, 18240, Note_on_c, 0, 86, 0
2, 18240, Note_on_c, 0, 74, 0
2, 18240, Note_on_c, 0, 79, 0
2, 18240, Note_on_c, 0, 83, 0
2, 18240, Note_on_c, 0, 73, 96
2, 18240, Note_on_c, 0, 79, 96
2, 18240, Note_on_c, 0, 83, 96
2, 18240, Note_on_c, 0, 85, 96
2, 19200, Note_on_c, 0, 85, 0
2, 19200, Note_on_c, 0, 73, 0
2, 19200, Note_on_c, 0, 79, 0
2, 19200, Note_on_c, 0, 83, 0
2, 19200, Note_on_c, 0, 76, 96
2, 19200, Note_on_c, 0, 79, 96
2, 19200, Note_on_c, 0, 83, 96
2, 19200, Note_on_c, 0, 88, 96
2, 19680, Note_on_c, 0, 88, 0
2, 19680, Note_on_c, 0, 76, 0
2, 19680, Note_on_c, 0, 79, 0
2, 19680, Note_on_c, 0, 83, 0
2, 19680, Note_on_c, 0, 74, 96
2, 19680, Note_on_c, 0, 79, 96
2, 19680, Note_on_c, 0, 83, 96
2, 19680, Note_on_c, 0, 86, 96
2, 20640, Note_on_c, 0, 86, 0
2, 20640, Note_on_c, 0, 74, 0
2, 20640, Note_on_c, 0, 79, 0
2, 20640, Note_on_c, 0, 83, 0
2, 20640, Note_on_c, 0, 71, 96
2, 20640, Note_on_c, 0, 74, 96
2, 20640, Note_on_c, 0, 79, 96
2, 20640, Note_on_c, 0, 83, 96
2, 21000, Note_on_c, 0, 83, 0
2, 21000, Note_on_c, 0, 71, 0
2, 21000, Note_on_c, 0, 74, 0
2, 21000, Note_on_c, 0, 79, 0
2, 21000, Note_on_c, 0, 71, 96
2, 21000, Note_on_c, 0, 74, 96
2, 21000, Note_on_c, 0, 79, 96
2, 21000, Note_on_c, 0, 83, 96
2, 21120, Note_on_c, 0, 83, 0
2, 21120, Note_on_c, 0, 71, 0
2, 21120, Note_on_c, 0, 74, 0
2, 21120, Note_on_c, 0, 79, 0
2, 21120, Note_on_c, 0, 70, 96
2, 21120, Note_on_c, 0, 74, 96
2, 21120, Note_on_c, 0, 79, 96
2, 21120, Note_on_c, 0, 82, 96
2, 22080, Note_on_c, 0, 82, 0
2, 22080, Note_on_c, 0, 70, 0
2, 22080, Note_on_c, 0, 74, 0
2, 22080, Note_on_c, 0, 79, 0
2, 22080, Note_on_c, 0, 72, 96
2, 22080, Note_on_c, 0, 74, 96
2, 22080, Note_on_c, 0, 79, 96
2, 22080, Note_on_c, 0, 84, 96
2, 22560, Note_on_c, 0, 84, 0
2, 22560, Note_on_c, 0, 72, 0
2, 22560, Note_on_c, 0, 74, 0
2, 22560, Note_on_c, 0, 79, 0
2, 22560, Note_on_c, 0, 71, 96
2, 22560, Note_on_c, 0, 74, 96
2, 22560, Note_on_c, 0, 79, 96
2, 22560, Note_on_c, 0, 83, 96
2, 23520, Note_on_c, 0, 83, 0
2, 23520, Note_on_c, 0, 71, 0
2, 23520, Note_on_c, 0, 74, 0
2, 23520, Note_on_c, 0, 79, 0
2, 23520, Note_on_c, 0, 76, 96
2, 23880, Note_on_c, 0, 76, 0
2, 23880, Note_on_c, 0, 78, 96
2, 24000, Note_on_c, 0, 78, 0
2, 24000, Note_on_c, 0, 81, 96
2, 24360, Note_on_c, 0, 81, 0
2, 24360, Note_on_c, 0, 78, 96
2, 24480, Note_on_c, 0, 78, 0
2, 24480, Note_on_c, 0, 74, 96
2, 24960, Note_on_c, 0, 74, 0
2, 24960, Note_on_c, 0, 76, 96
2, 25320, Note_on_c, 0, 76, 0
2, 25320, Note_on_c, 0, 78, 96
2, 25440, Note_on_c, 0, 78, 0
2, 25440, Note_on_c, 0, 83, 96
2, 25599, Note_on_c, 0, 83, 0
2, 25599, Note_on_c, 0, 81, 96
2, 25760, Note_on_c, 0, 81, 0
2, 25760, Note_on_c, 0, 78, 96
2, 25920, Note_on_c, 0, 78, 0
2, 25920, Note_on_c, 0, 74, 96
2, 26280, Note_on_c, 0, 74, 0
2, 26280, Note_on_c, 0, 74, 96
2, 26400, Note_on_c, 0, 74, 0
2, 26400, Note_on_c, 0, 67, 96
2, 26400, Note_on_c, 0, 73, 96
2, 26400, Note_on_c, 0, 79, 96
2, 26760, Note_on_c, 0, 79, 0
2, 26760, Note_on_c, 0, 73, 0
2, 26760, Note_on_c, 0, 67, 0
2, 26760, Note_on_c, 0, 69, 96
2, 26760, Note_on_c, 0, 81, 96
2, 26880, Note_on_c, 0, 81, 0
2, 26880, Note_on_c, 0, 69, 0
2, 26880, Note_on_c, 0, 71, 96
2, 26880, Note_on_c, 0, 79, 96
2, 26880, Note_on_c, 0, 83, 96
2, 27240, Note_on_c, 0, 83, 0
2, 27240, Note_on_c, 0, 79, 0
2, 27240, Note_on_c, 0, 71, 0
2, 27240, Note_on_c, 0, 73, 96
2, 27240, Note_on_c, 0, 85, 96
2, 27360, Note_on_c, 0, 85, 0
2, 27360, Note_on_c, 0, 73, 0
2, 27360, Note_on_c, 0, 74, 96
2, 27360, Note_on_c, 0, 83, 96
2, 27360, Note_on_c, 0, 86, 96
2, 27720, Note_on_c, 0, 86, 0
2, 27720, Note_on_c, 0, 83, 0
2, 27720, Note_on_c, 0, 74, 0
2, 27720, Note_on_c, 0, 76, 96
2, 27720, Note_on_c, 0, 88, 96
2, 27840, Note_on_c, 0, 88, 0
2, 27840, Note_on_c, 0, 76, 0
2, 27840, Note_on_c, 0, 78, 96
2, 27840, Note_on_c, 0, 81, 96
2, 27840, Note_on_c, 0, 90, 96
2, 28200, Note_on_c, 0, 90, 0
2, 28200, Note_on_c, 0, 81, 0
2, 28200, Note_on_c, 0, 78, 0
2, 28200, Note_on_c, 0, 79, 96
2, 28200, Note_on_c, 0, 91, 96
2, 28320, Note_on_c, 0, 91, 0
2, 28320, Note_on_c, 0, 79, 0
2, 28320, Note_on_c, 0, 81, 96
2, 28320, Note_on_c, 0, 85, 96
2, 28320, Note_on_c, 0, 91, 96
2, 28320, Note_on_c, 0, 93, 96
2, 28800, Note_on_c, 0, 93, 0
2, 28800, Note_on_c, 0, 81, 0
2, 28800, Note_on_c, 0, 85, 0
2, 28800, Note_on_c, 0, 91, 0
2, 28800, Note_on_c, 0, 74, 96
2, 28800, Note_on_c, 0, 78, 96
2, 28800, Note_on_c, 0, 81, 96
2, 28800, Note_on_c, 0, 86, 96
2, 29280, Note_on_c, 0, 86, 0
2, 29280, Note_on_c, 0, 74, 0
2, 29280, Note_on_c, 0, 78, 0
2, 29280, Note_on_c, 0, 81, 0
2, 29280, Note_on_c, 0, 74, 96
2, 29280, Note_on_c, 0, 79, 96
2, 29280, Note_on_c, 0, 83, 96
2, 29280, Note_on_c, 0, 86, 96
2, 29640, Note_on_c, 0, 86, 0
2, 29640, Note_on_c, 0, 74, 0
2, 29640, Note_on_c, 0, 79, 0
2, 29640, Note_on_c, 0, 83, 0
2, 29640, Note_on_c, 0, 74, 96
2, 29640, Note_on_c, 0, 79, 96
2, 29640, Note_on_c, 0, 83, 96
2, 29640, Note_on_c, 0, 86, 96
2, 29760, Note_on_c, 0, 86, 0
2, 29760, Note_on_c, 0, 74, 0
2, 29760, Note_on_c, 0, 79, 0
2, 29760, Note_on_c, 0, 83, 0
2, 29760, Note_on_c, 0, 73, 96
2, 29760, Note_on_c, 0, 79, 96
2, 29760, Note_on_c, 0, 83, 96
2, 29760, Note_on_c, 0, 85, 96
2, 30720, Note_on_c, 0, 85, 0
2, 30720, Note_on_c, 0, 73, 0
2, 30720, Note_on_c, 0, 79, 0
2, 30720, Note_on_c, 0, 83, 0
2, 30720, Note_on_c, 0, 76, 96
2, 30720, Note_on_c, 0, 79, 96
2, 30720, Note_on_c, 0, 83, 96
2, 30720, Note_on_c, 0, 88, 96
2, 31200, Note_on_c, 0, 88, 0
2, 31200, Note_on_c, 0, 76, 0
2, 31200, Note_on_c, 0, 79, 0
2, 31200, Note_on_c, 0, 83, 0
2, 31200, Note_on_c, 0, 74, 96
2, 31200, Note_on_c, 0, 79, 96
2, 31200, Note_on_c, 0, 83, 96
2, 31200, Note_on_c, 0, 86, 96
2, 32160, Note_on_c, 0, 86, 0
2, 32160, Note_on_c, 0, 74, 0
2, 32160, Note_on_c, 0, 79, 0
2, 32160, Note_on_c, 0, 83, 0
2, 32160, Note_on_c, 0, 71, 96
2, 32160, Note_on_c, 0, 74, 96
2, 32160, Note_on_c, 0, 79, 96
2, 32160, Note_on_c, 0, 83, 96
2, 32520, Note_on_c, 0, 83, 0
2, 32520, Note_on_c, 0, 71, 0
2, 32520, Note_on_c, 0, 74, 0
2, 32520, Note_on_c, 0, 79, 0
2, 32520, Note_on_c, 0, 71, 96
2, 32520, Note_on_c, 0, 74, 96
2, 32520, Note_on_c, 0, 79, 96
2, 32520, Note_on_c, 0, 83, 96
2, 32640, Note_on_c, 0, 83, 0
2, 32640, Note_on_c, 0, 71, 0
2, 32640, Note_on_c, 0, 74, 0
2, 32640, Note_on_c, 0, 79, 0
2, 32640, Note_on_c, 0, 70, 96
2, 32640, Note_on_c, 0, 74, 96
2, 32640, Note_on_c, 0, 79, 96
2, 32640, Note_on_c, 0, 82, 96
2, 33600, Note_on_c, 0, 82, 0
2, 33600, Note_on_c, 0, 70, 0
2, 33600, Note_on_c, 0, 74, 0
2, 33600, Note_on_c, 0, 79, 0
2, 33600, Note_on_c, 0, 72, 96
2, 33600, Note_on_c, 0, 74, 96
2, 33600, Note_on_c, 0, 79, 96
2, 33600, Note_on_c, 0, 84, 96
2, 34080, Note_on_c, 0, 84, 0
2, 34080, Note_on_c, 0, 72, 0
2, 34080, Note_on_c, 0, 74, 0
2, 34080, Note_on_c, 0, 79, 0
2, 34080, Note_on_c, 0, 71, 96
2, 34080, Note_on_c, 0, 74, 96
2, 34080, Note_on_c, 0, 79, 96
2, 34080, Note_on_c, 0, 83, 96
2, 35040, Note_on_c, 0, 83, 0
2, 35040, Note_on_c, 0, 71, 0
2, 35040, Note_on_c, 0, 74, 0
2, 35040, Note_on_c, 0, 79, 0
2, 35040, Note_on_c, 0, 76, 96
2, 35400, Note_on_c, 0, 76, 0
2, 35400, Note_on_c, 0, 78, 96
2, 35520, Note_on_c, 0, 78, 0
2, 35520, Note_on_c, 0, 81, 96
2, 35880, Note_on_c, 0, 81, 0
2, 35880, Note_on_c, 0, 78, 96
2, 36000, Note_on_c, 0, 78, 0
2, 36000, Note_on_c, 0, 74, 96
2, 36480, Note_on_c, 0, 74, 0
2, 36480, Note_on_c, 0, 76, 96
2, 36840, Note_on_c, 0, 76, 0
2, 36840, Note_on_c, 0, 78, 96
2, 36960, Note_on_c, 0, 78, 0
2, 36960, Note_on_c, 0, 83, 96
2, 37119, Note_on_c, 0, 83, 0
2, 37119, Note_on_c, 0, 81, 96
2, 37280, Note_on_c, 0, 81, 0
2, 37280, Note_on_c, 0, 78, 96
2, 37440, Note_on_c, 0, 78, 0
2, 37440, Note_on_c, 0, 74, 96
2, 37800, Note_on_c, 0, 74, 0
2, 37800, Note_on_c, 0, 74, 96
2, 37920, Note_on_c, 0, 74, 0
2, 37920, Note_on_c, 0, 64, 96
2, 37920, Note_on_c, 0, 76, 96
2, 38280, Note_on_c, 0, 76, 0
2, 38280, Note_on_c, 0, 64, 0
2, 38280, Note_on_c, 0, 66, 96
2, 38280, Note_on_c, 0, 78, 96
2, 38400, Note_on_c, 0, 78, 0
2, 38400, Note_on_c, 0, 66, 0
2, 38400, Note_on_c, 0, 67, 96
2, 38400, Note_on_c, 0, 71, 96
2, 38400, Note_on_c, 0, 79, 96
2, 38760, Note_on_c, 0, 79, 0
2, 38760, Note_on_c, 0, 71, 0
2, 38760, Note_on_c, 0, 67, 0
2, 38760, Note_on_c, 0, 69, 96
2, 38760, Note_on_c, 0, 81, 96
2, 38880, Note_on_c, 0, 81, 0
2, 38880, Note_on_c, 0, 69, 0
2, 38880, Note_on_c, 0, 71, 96
2, 38880, Note_on_c, 0, 74, 96
2, 38880, Note_on_c, 0, 83, 96
2, 39240, Note_on_c, 0, 83, 0
2, 39240, Note_on_c, 0, 74, 0
2, 39240, Note_on_c, 0, 71, 0
2, 39240, Note_on_c, 0, 73, 96
2, 39240, Note_on_c, 0, 85, 96
2, 39360, Note_on_c, 0, 85, 0
2, 39360, Note_on_c, 0, 73, 0
2, 39360, Note_on_c, 0, 74, 96
2, 39360, Note_on_c, 0, 83, 96
2, 39360, Note_on_c, 0, 86, 96
2, 39720, Note_on_c, 0, 86, 0
2, 39720, Note_on_c, 0, 83, 0
2, 39720, Note_on_c, 0, 74, 0
2, 39720, Note_on_c, 0, 76, 96
2, 39720, Note_on_c, 0, 88, 96
2, 39840, Note_on_c, 0, 88, 0
2, 39840, Note_on_c, 0, 76, 0
2, 39840, Note_on_c, 0, 78, 96
2, 39840, Note_on_c, 0, 90, 96
2, 40560, Note_on_c, 0, 90, 0
2, 40560, Note_on_c, 0, 78, 0
2, 40560, Note_on_c, 0, 83, 96
2, 40800, Note_on_c, 0, 83, 0
2, 40800, Note_on_c, 0, 74, 96
2, 40800, Note_on_c, 0, 79, 96
2, 40800, Note_on_c, 0, 83, 96
2, 40800, Note_on_c, 0, 86, 96
2, 41160, Note_on_c, 0, 86, 0
2, 41160, Note_on_c, 0, 74, 0
2, 41160, Note_on_c, 0, 79, 0
2, 41160, Note_on_c, 0, 83, 0
2, 41160, Note_on_c, 0, 74, 96
2, 41160, Note_on_c, 0, 79, 96
2, 41160, Note_on_c, 0, 83, 96
2, 41160, Note_on_c, 0, 86, 96
2, 41280, Note_on_c, 0, 86, 0
2, 41280, Note_on_c, 0, 74, 0
2, 41280, Note_on_c, 0, 79, 0
2, 41280, Note_on_c, 0, 83, 0
2, 41280, Note_on_c, 0, 73, 96
2, 41280, Note_on_c, 0, 79, 96
2, 41280, Note_on_c, 0, 83, 96
2, 41280, Note_on_c, 0, 85, 96
2, 42240, Note_on_c, 0, 85, 0
2, 42240, Note_on_c, 0, 73, 0
2, 42240, Note_on_c, 0, 79, 0
2, 42240, Note_on_c, 0, 83, 0
2, 42240, Note_on_c, 0, 76, 96
2, 42240, Note_on_c, 0, 79, 96
2, 42240, Note_on_c, 0, 83, 96
2, 42240, Note_on_c, 0, 88, 96
2, 42720, Note_on_c, 0, 88, 0
2, 42720, Note_on_c, 0, 76, 0
2, 42720, Note_on_c, 0, 79, 0
2, 42720, Note_on_c, 0, 83, 0
2, 42720, Note_on_c, 0, 74, 96
2, 42720, Note_on_c, 0, 79, 96
2, 42720, Note_on_c, 0, 83, 96
2, 42720, Note_on_c, 0, 86, 96
2, 43680, Note_on_c, 0, 86, 0
2, 43680, Note_on_c, 0, 74, 0
2, 43680, Note_on_c, 0, 79, 0
2, 43680, Note_on_c, 0, 83, 0
2, 43680, Note_on_c, 0, 71, 96
2, 43680, Note_on_c, 0, 74, 96
2, 43680, Note_on_c, 0, 79, 96
2, 43680, Note_on_c, 0, 83, 96
2, 44040, Note_on_c, 0, 83, 0
2, 44040, Note_on_c, 0, 71, 0
2, 44040, Note_on_c, 0, 74, 0
2, 44040, Note_on_c, 0, 79, 0
2, 44040, Note_on_c, 0, 71, 96
2, 44040, Note_on_c, 0, 74, 96
2, 44040, Note_on_c, 0, 79, 96
2, 44040, Note_on_c, 0, 83, 96
2, 44160, Note_on_c, 0, 83, 0
2, 44160, Note_on_c, 0, 71, 0
2, 44160, Note_on_c, 0, 74, 0
2, 44160, Note_on_c, 0, 79, 0
2, 44160, Note_on_c, 0, 70, 96
2, 44160, Note_on_c, 0, 74, 96
2, 44160, Note_on_c, 0, 79, 96
2, 44160, Note_on_c, 0, 82, 96
2, 45120, Note_on_c, 0, 82, 0
2, 45120, Note_on_c, 0, 70, 0
2, 45120, Note_on_c, 0, 74, 0
2, 45120, Note_on_c, 0, 79, 0
2, 45120, Note_on_c, 0, 72, 96
2, 45120, Note_on_c, 0, 74, 96
2, 45120, Note_on_c, 0, 79, 96
2, 45120, Note_on_c, 0, 84, 96
2, 45600, Note_on_c, 0, 84, 0
2, 45600, Note_on_c, 0, 72, 0
2, 45600, Note_on_c, 0, 74, 0
2, 45600, Note_on_c, 0, 79, 0
2, 45600, Note_on_c, 0, 71, 96
2, 45600, Note_on_c, 0, 74, 96
2, 45600, Note_on_c, 0, 79, 96
2, 45600, Note_on_c, 0, 83, 96
2, 46560, Note_on_c, 0, 83, 0
2, 46560, Note_on_c, 0, 71, 0
2, 46560, Note_on_c, 0, 74, 0
2, 46560, Note_on_c, 0, 79, 0
2, 46560, Note_on_c, 0, 76, 96
2, 46920, Note_on_c, 0, 76, 0
2, 46920, Note_on_c, 0, 78, 96
2, 47040, Note_on_c, 0, 78, 0
2, 47040, Note_on_c, 0, 81, 96
2, 47400, Note_on_c, 0, 81, 0
2, 47400, Note_on_c, 0, 78, 96
2, 47520, Note_on_c, 0, 78, 0
2, 47520, Note_on_c, 0, 74, 96
2, 48000, Note_on_c, 0, 74, 0
2, 48000, Note_on_c, 0, 76, 96
2, 48360, Note_on_c, 0, 76, 0
2, 48360, Note_on_c, 0, 78, 96
2, 48480, Note_on_c, 0, 78, 0
2, 48480, Note_on_c, 0, 83, 96
2, 48639, Note_on_c, 0, 83, 0
2, 48639, Note_on_c, 0, 81, 96
2, 48800, Note_on_c, 0, 81, 0
2, 48800, Note_on_c, 0, 78, 96
2, 48960, Note_on_c, 0, 78, 0
2, 48960, Note_on_c, 0, 74, 96
2, 49320, Note_on_c, 0, 74, 0
2, 49320, Note_on_c, 0, 74, 96
2, 49440, Note_on_c, 0, 74, 0
2, 49440, Note_on_c, 0, 67, 96
2, 49440, Note_on_c, 0, 73, 96
2, 49440, Note_on_c, 0, 79, 96
2, 49800, Note_on_c, 0, 79, 0
2, 49800, Note_on_c, 0, 73, 0
2, 49800, Note_on_c, 0, 67, 0
2, 49800, Note_on_c, 0, 69, 96
2, 49800, Note_on_c, 0, 81, 96
2, 49920, Note_on_c, 0, 81, 0
2, 49920, Note_on_c, 0, 69, 0
2, 49920, Note_on_c, 0, 71, 96
2, 49920, Note_on_c, 0, 79, 96
2, 49920, Note_on_c, 0, 83, 96
2, 50280, Note_on_c, 0, 83, 0
2, 50280, Note_on_c, 0, 79, 0
2, 50280, Note_on_c, 0, 71, 0
2, 50280, Note_on_c, 0, 73, 96
2, 50280, Note_on_c, 0, 85, 96
2, 50400, Note_on_c, 0, 85, 0
2, 50400, Note_on_c, 0, 73, 0
2, 50400, Note_on_c, 0, 74, 96
2, 50400, Note_on_c, 0, 83, 96
2, 50400, Note_on_c, 0, 86, 96
2, 50760, Note_on_c, 0, 86, 0
2, 50760, Note_on_c, 0, 83, 0
2, 50760, Note_on_c, 0, 74, 0
2, 50760, Note_on_c, 0, 76, 96
2, 50760, Note_on_c, 0, 88, 96
2, 50880, Note_on_c, 0, 88, 0
2, 50880, Note_on_c, 0, 76, 0
2, 50880, Note_on_c, 0, 78, 96
2, 50880, Note_on_c, 0, 81, 96
2, 50880, Note_on_c, 0, 90, 96
2, 51240, Note_on_c, 0, 90, 0
2, 51240, Note_on_c, 0, 81, 0
2, 51240, Note_on_c, 0, 78, 0
2, 51240, Note_on_c, 0, 79, 96
2, 51240, Note_on_c, 0, 91, 96
2, 51360, Note_on_c, 0, 91, 0
2, 51360, Note_on_c, 0, 79, 0
2, 51360, Note_on_c, 0, 81, 96
2, 51360, Note_on_c, 0, 85, 96
2, 51360, Note_on_c, 0, 91, 96
2, 51360, Note_on_c, 0, 93, 96
2, 51840, Note_on_c, 0, 93, 0
2, 51840, Note_on_c, 0, 81, 0
2, 51840, Note_on_c, 0, 85, 0
2, 51840, Note_on_c, 0, 91, 0
2, 51840, Note_on_c, 0, 74, 96
2, 51840, Note_on_c, 0, 78, 96
2, 51840, Note_on_c, 0, 81, 96
2, 51840, Note_on_c, 0, 86, 96
2, 52320, Note_on_c, 0, 86, 0
2, 52320, Note_on_c, 0, 74, 0
2, 52320, Note_on_c, 0, 78, 0
2, 52320, Note_on_c, 0, 81, 0
2, 52320, Note_on_c, 0, 72, 96
2, 52320, Note_on_c, 0, 78, 96
2, 52320, Note_on_c, 0, 81, 96
2, 52320, Note_on_c, 0, 84, 96
2, 52680, Note_on_c, 0, 84, 0
2, 52680, Note_on_c, 0, 72, 0
2, 52680, Note_on_c, 0, 78, 0
2, 52680, Note_on_c, 0, 81, 0
2, 52680, Note_on_c, 0, 72, 96
2, 52680, Note_on_c, 0, 78, 96
2, 52680, Note_on_c, 0, 81, 96
2, 52680, Note_on_c, 0, 84, 96
2, 52800, Note_on_c, 0, 84, 0
2, 52800, Note_on_c, 0, 72, 0
2, 52800, Note_on_c, 0, 78, 0
2, 52800, Note_on_c, 0, 81, 0
2, 52800, Note_on_c, 0, 71, 96
2, 52800, Note_on_c, 0, 79, 96
2, 52800, Note_on_c, 0, 83, 96
2, 53760, Note_on_c, 0, 83, 0
2, 53760, Note_on_c, 0, 79, 0
2, 53760, Note_on_c, 0, 71, 0
2, 53760, Note_on_c, 0, 72, 96
2, 53760, Note_on_c, 0, 79, 96
2, 53760, Note_on_c, 0, 84, 96
2, 54240, Note_on_c, 0, 84, 0
2, 54240, Note_on_c, 0, 79, 0
2, 54240, Note_on_c, 0, 72, 0
2, 54240, Note_on_c, 0, 69, 96
2, 54240, Note_on_c, 0, 72, 96
2, 54240, Note_on_c, 0, 74, 96
2, 54240, Note_on_c, 0, 81, 96
2, 55200, Note_on_c, 0, 81, 0
2, 55200, Note_on_c, 0, 69, 0
2, 55200, Note_on_c, 0, 72, 0
2, 55200, Note_on_c, 0, 74, 0
2, 55200, Note_on_c, 0, 74, 96
2, 55200, Note_on_c, 0, 77, 96
2, 55200, Note_on_c, 0, 83, 96
2, 55200, Note_on_c, 0, 86, 96
2, 55560, Note_on_c, 0, 86, 0
2, 55560, Note_on_c, 0, 74, 0
2, 55560, Note_on_c, 0, 77, 0
2, 55560, Note_on_c, 0, 83, 0
2, 55560, Note_on_c, 0, 74, 96
2, 55560, Note_on_c, 0, 77, 96
2, 55560, Note_on_c, 0, 83, 96
2, 55560, Note_on_c, 0, 86, 96
2, 55680, Note_on_c, 0, 86, 0
2, 55680, Note_on_c, 0, 74, 0
2, 55680, Note_on_c, 0, 77, 0
2, 55680, Note_on_c, 0, 83, 0
2, 55680, Note_on_c, 0, 74, 96
2, 55680, Note_on_c, 0, 78, 96
2, 55680, Note_on_c, 0, 84, 96
2, 55680, Note_on_c, 0, 86, 96
2, 56160, Note_on_c, 0, 86, 0
2, 56160, Note_on_c, 0, 74, 0
2, 56160, Note_on_c, 0, 78, 0
2, 56160, Note_on_c, 0, 84, 0
2, 56160, Note_on_c, 0, 74, 96
2, 56160, Note_on_c, 0, 79, 96
2, 56160, Note_on_c, 0, 85, 96
2, 56160, Note_on_c, 0, 86, 96
2, 56520, Note_on_c, 0, 86, 0
2, 56520, Note_on_c, 0, 74, 0
2, 56520, Note_on_c, 0, 79, 0
2, 56520, Note_on_c, 0, 85, 0
2, 56520, Note_on_c, 0, 74, 96
2, 56520, Note_on_c, 0, 79, 96
2, 56520, Note_on_c, 0, 85, 96
2, 56520, Note_on_c, 0, 86, 96
2, 56640, Note_on_c, 0, 86, 0
2, 56640, Note_on_c, 0, 74, 0
2, 56640, Note_on_c, 0, 79, 0
2, 56640, Note_on_c, 0, 85, 0
2, 56640, Note_on_c, 0, 74, 96
2, 56640, Note_on_c, 0, 79, 96
2, 56640, Note_on_c, 0, 86, 96
2, 57120, Note_on_c, 0, 86, 0
2, 57120, Note_on_c, 0, 79, 0
2, 57120, Note_on_c, 0, 74, 0
2, 57120, Note_on_c, 0, 79, 96
2, 57120, Note_on_c, 0, 82, 96
2, 57120, Note_on_c, 0, 90, 96
2, 57480, Note_on_c, 0, 90, 0
2, 57480, Note_on_c, 0, 82, 0
2, 57480, Note_on_c, 0, 79, 0
2, 57480, Note_on_c, 0, 79, 96
2, 57480, Note_on_c, 0, 82, 96
2, 57480, Note_on_c, 0, 88, 96
2, 57600, Note_on_c, 0, 88, 0
2, 57600, Note_on_c, 0, 82, 0
2, 57600, Note_on_c, 0, 79, 0
2, 57600, Note_on_c, 0, 79, 96
2, 57600, Note_on_c, 0, 83, 96
2, 57600, Note_on_c, 0, 86, 96
2, 58080, Note_on_c, 0, 86, 0
2, 58080, Note_on_c, 0, 83, 0
2, 58080, Note_on_c, 0, 79, 0
2, 58080, Note_on_c, 0, 71, 57
2, 58440, Note_on_c, 0, 71, 0
2, 58440, Note_on_c, 0, 73, 57
2, 58560, Note_on_c, 0, 73, 0
2, 58560, Note_on_c, 0, 74, 57
2, 58719, Note_on_c, 0, 74, 0
2, 58719, Note_on_c, 0, 76, 57
2, 58880, Note_on_c, 0, 76, 0
2, 58880, Note_on_c, 0, 74, 57
2, 59040, Note_on_c, 0, 74, 0
2, 59040, Note_on_c, 0, 73, 57
2, 59280, Note_on_c, 0, 73, 0
2, 59280, Note_on_c, 0, 71, 57
2, 59520, Note_on_c, 0, 71, 0
2, 59520, Note_on_c, 0, 78, 57
2, 59880, Note_on_c, 0, 78, 0
2, 59880, Note_on_c, 0, 78, 57
2, 60000, Note_on_c, 0, 78, 0
2, 60000, Note_on_c, 0, 76, 57
2, 60240, Note_on_c, 0, 76, 0
2, 60240, Note_on_c, 0, 74, 57
2, 60480, Note_on_c, 0, 74, 0
2, 60480, Note_on_c, 0, 73, 57
2, 60720, Note_on_c, 0, 73, 0
2, 60720, Note_on_c, 0, 71, 57
2, 60960, Note_on_c, 0, 71, 0
2, 60960, Note_on_c, 0, 76, 57
2, 61320, Note_on_c, 0, 76, 0
2, 61320, Note_on_c, 0, 76, 57
2, 61440, Note_on_c, 0, 76, 0
2, 61440, Note_on_c, 0, 74, 57
2, 61680, Note_on_c, 0, 74, 0
2, 61680, Note_on_c, 0, 73, 57
2, 61920, Note_on_c, 0, 73, 0
2, 61920, Note_on_c, 0, 71, 57
2, 62160, Note_on_c, 0, 71, 0
2, 62160, Note_on_c, 0, 73, 57
2, 62400, Note_on_c, 0, 73, 0
2, 62400, Note_on_c, 0, 74, 57
2, 62559, Note_on_c, 0, 74, 0
2, 62559, Note_on_c, 0, 76, 57
2, 62720, Note_on_c, 0, 76, 0
2, 62720, Note_on_c, 0, 74, 57
2, 62880, Note_on_c, 0, 74, 0
2, 62880, Note_on_c, 0, 79, 57
2, 63039, Note_on_c, 0, 79, 0
2, 63039, Note_on_c, 0, 78, 57
2, 63200, Note_on_c, 0, 78, 0
2, 63200, Note_on_c, 0, 76, 57
2, 63360, Note_on_c, 0, 76, 0
2, 63360, Note_on_c, 0, 74, 57
2, 63840, Note_on_c, 0, 74, 0
2, 63840, Note_on_c, 0, 72, 96
2, 63840, Note_on_c, 0, 78, 96
2, 63840, Note_on_c, 0, 81, 96
2, 63840, Note_on_c, 0, 84, 96
2, 64200, Note_on_c, 0, 84, 0
2, 64200, Note_on_c, 0, 72, 0
2, 64200, Note_on_c, 0, 78, 0
2, 64200, Note_on_c, 0, 81, 0
2, 64200, Note_on_c, 0, 72, 96
2, 64200, Note_on_c, 0, 78, 96
2, 64200, Note_on_c, 0, 81, 96
2, 64200, Note_on_c, 0, 84, 96
2, 64320, Note_on_c, 0, 84, 0
2, 64320, Note_on_c, 0, 72, 0
2, 64320, Note_on_c, 0, 78, 0
2, 64320, Note_on_c, 0, 81, 0
2, 64320, Note_on_c, 0, 71, 96
2, 64320, Note_on_c, 0, 79, 96
2, 64320, Note_on_c, 0, 83, 96
2, 65280, Note_on_c, 0, 83, 0
2, 65280, Note_on_c, 0, 79, 0
2, 65280, Note_on_c, 0, 71, 0
2, 65280, Note_on_c, 0, 72, 96
2, 65280, Note_on_c, 0, 79, 96
2, 65280, Note_on_c, 0, 84, 96
2, 65760, Note_on_c, 0, 84, 0
2, 65760, Note_on_c, 0, 79, 0
2, 65760, Note_on_c, 0, 72, 0
2, 65760, Note_on_c, 0, 69, 96
2, 65760, Note_on_c, 0, 72, 96
2, 65760, Note_on_c, 0, 74, 96
2, 65760, Note_on_c, 0, 81, 96
2, 66720, Note_on_c, 0, 81, 0
2, 66720, Note_on_c, 0, 69, 0
2, 66720, Note_on_c, 0, 72, 0
2, 66720, Note_on_c, 0, 74, 0
2, 66720, Note_on_c, 0, 74, 96
2, 66720, Note_on_c, 0, 77, 96
2, 66720, Note_on_c, 0, 83, 96
2, 66720, Note_on_c, 0, 86, 96
2, 67080, Note_on_c, 0, 86, 0
2, 67080, Note_on_c, 0, 74, 0
2, 67080, Note_on_c, 0, 77, 0
2, 67080, Note_on_c, 0, 83, 0
2, 67080, Note_on_c, 0, 74, 96
2, 67080, Note_on_c, 0, 77, 96
2, 67080, Note_on_c, 0, 83, 96
2, 67080, Note_on_c, 0, 86, 96
2, 67200, Note_on_c, 0, 86, 0
2, 67200, Note_on_c, 0, 74, 0
2, 67200, Note_on_c, 0, 77, 0
2, 67200, Note_on_c, 0, 83, 0
2, 67200, Note_on_c, 0, 74, 96
2, 67200, Note_on_c, 0, 78, 96
2, 67200, Note_on_c, 0, 84, 96
2, 67200, Note_on_c, 0, 86, 96
2, 67680, Note_on_c, 0, 86, 0
2, 67680, Note_on_c, 0, 74, 0
2, 67680, Note_on_c, 0, 78, 0
2, 67680, Note_on_c, 0, 84, 0
2, 67680, Note_on_c, 0, 74, 96
2, 67680, Note_on_c, 0, 79, 96
2, 67680, Note_on_c, 0, 85, 96
2, 67680, Note_on_c, 0, 86, 96
2, 68040, Note_on_c, 0, 86, 0
2, 68040, Note_on_c, 0, 74, 0
2, 68040, Note_on_c, 0, 79, 0
2, 68040, Note_on_c, 0, 85, 0
2, 68040, Note_on_c, 0, 74, 96
2, 68040, Note_on_c, 0, 79, 96
2, 68040, Note_on_c, 0, 85, 96
2, 68040, Note_on_c, 0, 86, 96
2, 68160, Note_on_c, 0, 86, 0
2, 68160, Note_on_c, 0, 74, 0
2, 68160, Note_on_c, 0, 79, 0
2, 68160, Note_on_c, 0, 85, 0
2, 68160, Note_on_c, 0, 74, 96
2, 68160, Note_on_c, 0, 79, 96
2, 68160, Note_on_c, 0, 86, 96
2, 68640, Note_on_c, 0, 86, 0
2, 68640, Note_on_c, 0, 79, 0
2, 68640, Note_on_c, 0, 74, 0
2, 68640, Note_on_c, 0, 79, 96
2, 68640, Note_on_c, 0, 82, 96
2, 68640, Note_on_c, 0, 90, 96
2, 69000, Note_on_c, 0, 90, 0
2, 69000, Note_on_c, 0, 82, 0
2, 69000, Note_on_c, 0, 79, 0
2, 69000, Note_on_c, 0, 79, 96
2, 69000, Note_on_c, 0, 82, 96
2, 69000, Note_on_c, 0, 88, 96
2, 69120, Note_on_c, 0, 88, 0
2, 69120, Note_on_c, 0, 82, 0
2, 69120, Note_on_c, 0, 79, 0
2, 69120, Note_on_c, 0, 79, 96
2, 69120, Note_on_c, 0, 83, 96
2, 69120, Note_on_c, 0, 86, 96
2, 69600, Note_on_c, 0, 86, 0
2, 69600, Note_on_c, 0, 83, 0
2, 69600, Note_on_c, 0, 79, 0
2, 69600, Note_on_c, 0, 83, 57
2, 69960, Note_on_c, 0, 83, 0
2, 69960, Note_on_c, 0, 85, 57
2, 70080, Note_on_c, 0, 85, 0
2, 70080, Note_on_c, 0, 86, 57
2, 70239, Note_on_c, 0, 86, 0
2, 70239, Note_on_c, 0, 88, 57
2, 70400, Note_on_c, 0, 88, 0
2, 70400, Note_on_c, 0, 86, 57
2, 70560, Note_on_c, 0, 86, 0
2, 70560, Note_on_c, 0, 85, 57
2, 70800, Note_on_c, 0, 85, 0
2, 70800, Note_on_c, 0, 83, 57
2, 71040, Note_on_c, 0, 83, 0
2, 71040, Note_on_c, 0, 81, 57
2, 71400, Note_on_c, 0, 81, 0
2, 71400, Note_on_c, 0, 81, 57
2, 71520, Note_on_c, 0, 81, 0
2, 71520, Note_on_c, 0, 83, 57
2, 71880, Note_on_c, 0, 83, 0
2, 71880, Note_on_c, 0, 85, 57
2, 72000, Note_on_c, 0, 85, 0
2, 72000, Note_on_c, 0, 86, 57
2, 72360, Note_on_c, 0, 86, 0
2, 72360, Note_on_c, 0, 78, 57
2, 72480, Note_on_c, 0, 78, 0
2, 72480, Note_on_c, 0, 79, 57
2, 72840, Note_on_c, 0, 79, 0
2, 72840, Note_on_c, 0, 81, 57
2, 72960, Note_on_c, 0, 81, 0
2, 72960, Note_on_c, 0, 83, 57
2, 73320, Note_on_c, 0, 83, 0
2, 73320, Note_on_c, 0, 69, 57
2, 73440, Note_on_c, 0, 69, 0
2, 73440, Note_on_c, 0, 71, 57
2, 73800, Note_on_c, 0, 71, 0
2, 73800, Note_on_c, 0, 73, 57
2, 73920, Note_on_c, 0, 73, 0
2, 73920, Note_on_c, 0, 74, 57
2, 74280, Note_on_c, 0, 74, 0
2, 74280, Note_on_c, 0, 76, 57
2, 74400, Note_on_c, 0, 76, 0
2, 74400, Note_on_c, 0, 78, 57
2, 74760, Note_on_c, 0, 78, 0
2, 74760, Note_on_c, 0, 79, 57
2, 74880, Note_on_c, 0, 79, 0
2, 74880, Note_on_c, 0, 81, 57
2, 75240, Note_on_c, 0, 81, 0
2, 75240, Note_on_c, 0, 83, 57
2, 75360, Note_on_c, 0, 83, 0
2, 75360, Note_on_c, 0, 72, 96
2, 75360, Note_on_c, 0, 78, 96
2, 75360, Note_on_c, 0, 81, 96
2, 75360, Note_on_c, 0, 84, 96
2, 75720, Note_on_c, 0, 84, 0
2, 75720, Note_on_c, 0, 72, 0
2, 75720, Note_on_c, 0, 78, 0
2, 75720, Note_on_c, 0, 81, 0
2, 75720, Note_on_c, 0, 72, 96
2, 75720, Note_on_c, 0, 78, 96
2, 75720, Note_on_c, 0, 81, 96
2, 75720, Note_on_c, 0, 84, 96
2, 75840, Note_on_c, 0, 84, 0
2, 75840, Note_on_c, 0, 72, 0
2, 75840, Note_on_c, 0, 78, 0
2, 75840, Note_on_c, 0, 81, 0
2, 75840, Note_on_c, 0, 71, 96
2, 75840, Note_on_c, 0, 79, 96
2, 75840, Note_on_c, 0, 83, 96
2, 76800, Note_on_c, 0, 83, 0
2, 76800, Note_on_c, 0, 79, 0
2, 76800, Note_on_c, 0, 71, 0
2, 76800, Note_on_c, 0, 72, 96
2, 76800, Note_on_c, 0, 79, 96
2, 76800, Note_on_c, 0, 84, 96
2, 77280, Note_on_c, 0, 84, 0
2, 77280, Note_on_c, 0, 79, 0
2, 77280, Note_on_c, 0, 72, 0
2, 77280, Note_on_c, 0, 69, 96
2, 77280, Note_on_c, 0, 72, 96
2, 77280, Note_on_c, 0, 74, 96
2, 77280, Note_on_c, 0, 81, 96
2, 78240, Note_on_c, 0, 81, 0
2, 78240, Note_on_c, 0, 69, 0
2, 78240, Note_on_c, 0, 72, 0
2, 78240, Note_on_c, 0, 74, 0
2, 78240, Note_on_c, 0, 74, 96
2, 78240, Note_on_c, 0, 77, 96
2, 78240, Note_on_c, 0, 83, 96
2, 78240, Note_on_c, 0, 86, 96
2, 78600, Note_on_c, 0, 86, 0
2, 78600, Note_on_c, 0, 74, 0
2, 78600, Note_on_c, 0, 77, 0
2, 78600, Note_on_c, 0, 83, 0
2, 78600, Note_on_c, 0, 74, 96
2, 78600, Note_on_c, 0, 77, 96
2, 78600, Note_on_c, 0, 83, 96
2, 78600, Note_on_c, 0, 86, 96
2, 78720, Note_on_c, 0, 86, 0
2, 78720, Note_on_c, 0, 74, 0
2, 78720, Note_on_c, 0, 77, 0
2, 78720, Note_on_c, 0, 83, 0
2, 78720, Note_on_c, 0, 74, 96
2, 78720, Note_on_c, 0, 78, 96
2, 78720, Note_on_c, 0, 84, 96
2, 78720, Note_on_c, 0, 86, 96
2, 79200, Note_on_c, 0, 86, 0
2, 79200, Note_on_c, 0, 74, 0
2, 79200, Note_on_c, 0, 78, 0
2, 79200, Note_on_c, 0, 84, 0
2, 79200, Note_on_c, 0, 74, 96
2, 79200, Note_on_c, 0, 79, 96
2, 79200, Note_on_c, 0, 85, 96
2, 79200, Note_on_c, 0, 86, 96
2, 79560, Note_on_c, 0, 86, 0
2, 79560, Note_on_c, 0, 74, 0
2, 79560, Note_on_c, 0, 79, 0
2, 79560, Note_on_c, 0, 85, 0
2, 79560, Note_on_c, 0, 74, 96
2, 79560, Note_on_c, 0, 79, 96
2, 79560, Note_on_c, 0, 85, 96
2, 79560, Note_on_c, 0, 86, 96
2, 79680, Note_on_c, 0, 86, 0
2, 79680, Note_on_c, 0, 74, 0
2, 79680, Note_on_c, 0, 79, 0
2, 79680, Note_on_c, 0, 85, 0
2, 79680, Note_on_c, 0, 74, 96
2, 79680, Note_on_c, 0, 79, 96
2, 79680, Note_on_c, 0, 86, 96
2, 80160, Note_on_c, 0, 86, 0
2, 80160, Note_on_c, 0, 79, 0
2, 80160, Note_on_c, 0, 74, 0
2, 80160, Note_on_c, 0, 79, 96
2, 80160, Note_on_c, 0, 82, 96
2, 80160, Note_on_c, 0, 90, 96
2, 80520, Note_on_c, 0, 90, 0
2, 80520, Note_on_c, 0, 82, 0
2, 80520, Note_on_c, 0, 79, 0
2, 80520, Note_on_c, 0, 79, 96
2, 80520, Note_on_c, 0, 82, 96
2, 80520, Note_on_c, 0, 88, 96
2, 80640, Note_on_c, 0, 88, 0
2, 80640, Note_on_c, 0, 82, 0
2, 80640, Note_on_c, 0, 79, 0
2, 80640, Note_on_c, 0, 79, 96
2, 80640, Note_on_c, 0, 83, 96
2, 80640, Note_on_c, 0, 86, 96
2, 81120, Note_on_c, 0, 86, 0
2, 81120, Note_on_c, 0, 83, 0
2, 81120, Note_on_c, 0, 79, 0
2, 81120, Note_on_c, 0, 71, 57
2, 81480, Note_on_c, 0, 71, 0
2, 81480, Note_on_c, 0, 73, 57
2, 81600, Note_on_c, 0, 73, 0
2, 81600, Note_on_c, 0, 74, 57
2, 81759, Note_on_c, 0, 74, 0
2, 81759, Note_on_c, 0, 76, 57
2, 81920, Note_on_c, 0, 76, 0
2, 81920, Note_on_c, 0, 74, 57
2, 82080, Note_on_c, 0, 74, 0
2, 82080, Note_on_c, 0, 73, 57
2, 82320, Note_on_c, 0, 73, 0
2, 82320, Note_on_c, 0, 71, 57
2, 82560, Note_on_c, 0, 71, 0
2, 82560, Note_on_c, 0, 78, 57
2, 82920, Note_on_c, 0, 78, 0
2, 82920, Note_on_c, 0, 78, 57
2, 83040, Note_on_c, 0, 78, 0
2, 83040, Note_on_c, 0, 76, 57
2, 83280, Note_on_c, 0, 76, 0
2, 83280, Note_on_c, 0, 74, 57
2, 83520, Note_on_c, 0, 74, 0
2, 83520, Note_on_c, 0, 73, 57
2, 83760, Note_on_c, 0, 73, 0
2, 83760, Note_on_c, 0, 71, 57
2, 84000, Note_on_c, 0, 71, 0
2, 84000, Note_on_c, 0, 76, 57
2, 84360, Note_on_c, 0, 76, 0
2, 84360, Note_on_c, 0, 76, 57
2, 84480, Note_on_c, 0, 76, 0
2, 84480, Note_on_c, 0, 74, 57
2, 84720, Note_on_c, 0, 74, 0
2, 84720, Note_on_c, 0, 73, 57
2, 84960, Note_on_c, 0, 73, 0
2, 84960, Note_on_c, 0, 71, 57
2, 85200, Note_on_c, 0, 71, 0
2, 85200, Note_on_c, 0, 73, 57
2, 85440, Note_on_c, 0, 73, 0
2, 85440, Note_on_c, 0, 74, 57
2, 85599, Note_on_c, 0, 74, 0
2, 85599, Note_on_c, 0, 76, 57
2, 85760, Note_on_c, 0, 76, 0
2, 85760, Note_on_c, 0, 74, 57
2, 85920, Note_on_c, 0, 74, 0
2, 85920, Note_on_c, 0, 79, 57
2, 86079, Note_on_c, 0, 79, 0
2, 86079, Note_on_c, 0, 78, 57
2, 86240, Note_on_c, 0, 78, 0
2, 86240, Note_on_c, 0, 76, 57
2, 86400, Note_on_c, 0, 76, 0
2, 86400, Note_on_c, 0, 74, 57
2, 86880, Note_on_c, 0, 74, 0
2, 86880, Note_on_c, 0, 72, 96
2, 86880, Note_on_c, 0, 78, 96
2, 86880, Note_on_c, 0, 81, 96
2, 86880, Note_on_c, 0, 84, 96
2, 87240, Note_on_c, 0, 84, 0
2, 87240, Note_on_c, 0, 72, 0
2, 87240, Note_on_c, 0, 78, 0
2, 87240, Note_on_c, 0, 81, 0
2, 87240, Note_on_c, 0, 72, 96
2, 87240, Note_on_c, 0, 78, 96
2, 87240, Note_on_c, 0, 81, 96
2, 87240, Note_on_c, 0, 84, 96
2, 87360, Note_on_c, 0, 84, 0
2, 87360, Note_on_c, 0, 72, 0
2, 87360, Note_on_c, 0, 78, 0
2, 87360, Note_on_c, 0, 81, 0
2, 87360, Note_on_c, 0, 71, 96
2, 87360, Note_on_c, 0, 79, 96
2, 87360, Note_on_c, 0, 83, 96
2, 88320, Note_on_c, 0, 83, 0
2, 88320, Note_on_c, 0, 79, 0
2, 88320, Note_on_c, 0, 71, 0
2, 88320, Note_on_c, 0, 72, 96
2, 88320, Note_on_c, 0, 79, 96
2, 88320, Note_on_c, 0, 84, 96
2, 88800, Note_on_c, 0, 84, 0
2, 88800, Note_on_c, 0, 79, 0
2, 88800, Note_on_c, 0, 72, 0
2, 88800, Note_on_c, 0, 69, 96
2, 88800, Note_on_c, 0, 72, 96
2, 88800, Note_on_c, 0, 74, 96
2, 88800, Note_on_c, 0, 81, 96
2, 89760, Note_on_c, 0, 81, 0
2, 89760, Note_on_c, 0, 69, 0
2, 89760, Note_on_c, 0, 72, 0
2, 89760, Note_on_c, 0, 74, 0
2, 89760, Note_on_c, 0, 74, 96
2, 89760, Note_on_c, 0, 77, 96
2, 89760, Note_on_c, 0, 83, 96
2, 89760, Note_on_c, 0, 86, 96
2, 90120, Note_on_c, 0, 86, 0
2, 90120, Note_on_c, 0, 74, 0
2, 90120, Note_on_c, 0, 77, 0
2, 90120, Note_on_c, 0, 83, 0
2, 90120, Note_on_c, 0, 74, 96
2, 90120, Note_on_c, 0, 77, 96
2, 90120, Note_on_c, 0, 83, 96
2, 90120, Note_on_c, 0, 86, 96
2, 90240, Note_on_c, 0, 86, 0
2, 90240, Note_on_c, 0, 74, 0
2, 90240, Note_on_c, 0, 77, 0
2, 90240, Note_on_c, 0, 83, 0
2, 90240, Note_on_c, 0, 74, 96
2, 90240, Note_on_c, 0, 78, 96
2, 90240, Note_on_c, 0, 84, 96
2, 90240, Note_on_c, 0, 86, 96
2, 90720, Note_on_c, 0, 86, 0
2, 90720, Note_on_c, 0, 74, 0
2, 90720, Note_on_c, 0, 78, 0
2, 90720, Note_on_c, 0, 84, 0
2, 90720, Note_on_c, 0, 74, 96
2, 90720, Note_on_c, 0, 79, 96
2, 90720, Note_on_c, 0, 85, 96
2, 90720, Note_on_c, 0, 86, 96
2, 91080, Note_on_c, 0, 86, 0
2, 91080, Note_on_c, 0, 74, 0
2, 91080, Note_on_c, 0, 79, 0
2, 91080, Note_on_c, 0, 85, 0
2, 91080, Note_on_c, 0, 74, 96
2, 91080, Note_on_c, 0, 79, 96
2, 91080, Note_on_c, 0, 85, 96
2, 91080, Note_on_c, 0, 86, 96
2, 91200, Note_on_c, 0, 86, 0
2, 91200, Note_on_c, 0, 74, 0
2, 91200, Note_on_c, 0, 79, 0
2, 91200, Note_on_c, 0, 85, 0
2, 91200, Note_on_c, 0, 74, 96
2, 91200, Note_on_c, 0, 79, 96
2, 91200, Note_on_c, 0, 86, 96
2, 91680, Note_on_c, 0, 86, 0
2, 91680, Note_on_c, 0, 79, 0
2, 91680, Note_on_c, 0, 74, 0
2, 91680, Note_on_c, 0, 79, 96
2, 91680, Note_on_c, 0, 82, 96
2, 91680, Note_on_c, 0, 90, 96
2, 92040, Note_on_c, 0, 90, 0
2, 92040, Note_on_c, 0, 82, 0
2, 92040, Note_on_c, 0, 79, 0
2, 92040, Note_on_c, 0, 79, 96
2, 92040, Note_on_c, 0, 82, 96
2, 92040, Note_on_c, 0, 88, 96
2, 92160, Note_on_c, 0, 88, 0
2, 92160, Note_on_c, 0, 82, 0
2, 92160, Note_on_c, 0, 79, 0
2, 92160, Note_on_c, 0, 79, 96
2, 92160, Note_on_c, 0, 83, 96
2, 92160, Note_on_c, 0, 86, 96
2, 92640, Note_on_c, 0, 86, 0
2, 92640, Note_on_c, 0, 83, 0
2, 92640, Note_on_c, 0, 79, 0
2, 92640, Note_on_c, 0, 83, 57
2, 93000, Note_on_c, 0, 83, 0
2, 93000, Note_on_c, 0, 85, 57
2, 93120, Note_on_c, 0, 85, 0
2, 93120, Note_on_c, 0, 86, 57
2, 93279, Note_on_c, 0, 86, 0
2, 93279, Note_on_c, 0, 88, 57
2, 93440, Note_on_c, 0, 88, 0
2, 93440, Note_on_c, 0, 86, 57
2, 93600, Note_on_c, 0, 86, 0
2, 93600, Note_on_c, 0, 85, 57
2, 93840, Note_on_c, 0, 85, 0
2, 93840, Note_on_c, 0, 83, 57
2, 94080, Note_on_c, 0, 83, 0
2, 94080, Note_on_c, 0, 81, 57
2, 94440, Note_on_c, 0, 81, 0
2, 94440, Note_on_c, 0, 81, 57
2, 94560, Note_on_c, 0, 81, 0
2, 94560, Note_on_c, 0, 83, 57
2, 94920, Note_on_c, 0, 83, 0
2, 94920, Note_on_c, 0, 85, 57
2, 95040, Note_on_c, 0, 85, 0
2, 95040, Note_on_c, 0, 86, 57
2, 95400, Note_on_c, 0, 86, 0
2, 95400, Note_on_c, 0, 78, 57
2, 95520, Note_on_c, 0, 78, 0
2, 95520, Note_on_c, 0, 79, 57
2, 95880, Note_on_c, 0, 79, 0
2, 95880, Note_on_c, 0, 81, 57
2, 96000, Note_on_c, 0, 81, 0
2, 96000, Note_on_c, 0, 83, 57
2, 96360, Note_on_c, 0, 83, 0
2, 96360, Note_on_c, 0, 69, 57
2, 96480, Note_on_c, 0, 69, 0
2, 96480, Note_on_c, 0, 71, 57
2, 96840, Note_on_c, 0, 71, 0
2, 96840, Note_on_c, 0, 73, 57
2, 96960, Note_on_c, 0, 73, 0
2, 96960, Note_on_c, 0, 74, 57
2, 97119, Note_on_c, 0, 74, 0
2, 97119, Note_on_c, 0, 78, 57
2, 97280, Note_on_c, 0, 78, 0
2, 97280, Note_on_c, 0, 79, 57
2, 97440, Note_on_c, 0, 79, 0
2, 97440, Note_on_c, 0, 80, 70
2, 97599, Note_on_c, 0, 80, 0
2, 97599, Note_on_c, 0, 81, 70
2, 97760, Note_on_c, 0, 81, 0
2, 97760, Note_on_c, 0, 82, 70
2, 97920, Note_on_c, 0, 82, 0
2, 97920, Note_on_c, 0, 83, 83
2, 98079, Note_on_c, 0, 83, 0
2, 98079, Note_on_c, 0, 84, 83
2, 98240, Note_on_c, 0, 84, 0
2, 98240, Note_on_c, 0, 85, 83
2, 98400, Note_on_c, 0, 85, 0
2, 98400, Note_on_c, 0, 74, 96
2, 98400, Note_on_c, 0, 79, 96
2, 98400, Note_on_c, 0, 83, 96
2, 98400, Note_on_c, 0, 86, 96
2, 98760, Note_on_c, 0, 86, 0
2, 98760, Note_on_c, 0, 74, 0
2, 98760, Note_on_c, 0, 79, 0
2, 98760, Note_on_c, 0, 83, 0
2, 98760, Note_on_c, 0, 74, 96
2, 98760, Note_on_c, 0, 79, 96
2, 98760, Note_on_c, 0, 83, 96
2, 98760, Note_on_c, 0, 86, 96
2, 98880, Note_on_c, 0, 86, 0
2, 98880, Note_on_c, 0, 74, 0
2, 98880, Note_on_c, 0, 79, 0
2, 98880, Note_on_c, 0, 83, 0
2, 98880, Note_on_c, 0, 73, 96
2, 98880, Note_on_c, 0, 79, 96
2, 98880, Note_on_c, 0, 83, 96
2, 98880, Note_on_c, 0, 85, 96
2, 99840, Note_on_c, 0, 85, 0
2, 99840, Note_on_c, 0, 73, 0
2, 99840, Note_on_c, 0, 79, 0
2, 99840, Note_on_c, 0, 83, 0
2, 99840, Note_on_c, 0, 76, 96
2, 99840, Note_on_c, 0, 79, 96
2, 99840, Note_on_c, 0, 83, 96
2, 99840, Note_on_c, 0, 88, 96
2, 100320, Note_on_c, 0, 88, 0
2, 100320, Note_on_c, 0, 76, 0
2, 100320, Note_on_c, 0, 79, 0
2, 100320, Note_on_c, 0, 83, 0
2, 100320, Note_on_c, 0, 74, 96
2, 100320, Note_on_c, 0, 79, 96
2, 100320, Note_on_c, 0, 83, 96
2, 100320, Note_on_c, 0, 86, 96
2, 101280, Note_on_c, 0, 86, 0
2, 101280, Note_on_c, 0, 74, 0
2, 101280, Note_on_c, 0, 79, 0
2, 101280, Note_on_c, 0, 83, 0
2, 101280, Note_on_c, 0, 71, 96
2, 101280, Note_on_c, 0, 74, 96
2, 101280, Note_on_c, 0, 79, 96
2, 101280, Note_on_c, 0, 83, 96
2, 101640, Note_on_c, 0, 83, 0
2, 101640, Note_on_c, 0, 71, 0
2, 101640, Note_on_c, 0, 74, 0
2, 101640, Note_on_c, 0, 79, 0
2, 101640, Note_on_c, 0, 71, 96
2, 101640, Note_on_c, 0, 74, 96
2, 101640, Note_on_c, 0, 79, 96
2, 101640, Note_on_c, 0, 83, 96
2, 101760, Note_on_c, 0, 83, 0
2, 101760, Note_on_c, 0, 71, 0
2, 101760, Note_on_c, 0, 74, 0
2, 101760, Note_on_c, 0, 79, 0
2, 101760, Note_on_c, 0, 70, 96
2, 101760, Note_on_c, 0, 74, 96
2, 101760, Note_on_c, 0, 79, 96
2, 101760, Note_on_c, 0, 82, 96
2, 102720, Note_on_c, 0, 82, 0
2, 102720, Note_on_c, 0, 70, 0
2, 102720, Note_on_c, 0, 74, 0
2, 102720, Note_on_c, 0, 79, 0
2, 102720, Note_on_c, 0, 72, 96
2, 102720, Note_on_c, 0, 74, 96
2, 102720, Note_on_c, 0, 79, 96
2, 102720, Note_on_c, 0, 84, 96
2, 103200, Note_on_c, 0, 84, 0
2, 103200, Note_on_c, 0, 72, 0
2, 103200, Note_on_c, 0, 74, 0
2, 103200, Note_on_c, 0, 79, 0
2, 103200, Note_on_c, 0, 71, 96
2, 103200, Note_on_c, 0, 74, 96
2, 103200, Note_on_c, 0, 79, 96
2, 103200, Note_on_c, 0, 83, 96
2, 104160, Note_on_c, 0, 83, 0
2, 104160, Note_on_c, 0, 71, 0
2, 104160, Note_on_c, 0, 74, 0
2, 104160, Note_on_c, 0, 79, 0
2, 104160, Note_on_c, 0, 76, 96
2, 104520, Note_on_c, 0, 76, 0
2, 104520, Note_on_c, 0, 78, 96
2, 104640, Note_on_c, 0, 78, 0
2, 104640, Note_on_c, 0, 81, 96
2, 105000, Note_on_c, 0, 81, 0
2, 105000, Note_on_c, 0, 78, 96
2, 105120, Note_on_c, 0, 78, 0
2, 105120, Note_on_c, 0, 74, 96
2, 105600, Note_on_c, 0, 74, 0
2, 105600, Note_on_c, 0, 76, 96
2, 105960, Note_on_c, 0, 76, 0
2, 105960, Note_on_c, 0, 78, 96
2, 106080, Note_on_c, 0, 78, 0
2, 106080, Note_on_c, 0, 83, 96
2, 106239, Note_on_c, 0, 83, 0
2, 106239, Note_on_c, 0, 81, 96
2, 106400, Note_on_c, 0, 81, 0
2, 106400, Note_on_c, 0, 78, 96
2, 106560, Note_on_c, 0, 78, 0
2, 106560, Note_on_c, 0, 74, 96
2, 106920, Note_on_c, 0, 74, 0
2, 106920, Note_on_c, 0, 74, 96
2, 107040, Note_on_c, 0, 74, 0
2, 107040, Note_on_c, 0, 64, 96
2, 107040, Note_on_c, 0, 76, 96
2, 107400, Note_on_c, 0, 76, 0
2, 107400, Note_on_c, 0, 64, 0
2, 107400, Note_on_c, 0, 66, 96
2, 107400, Note_on_c, 0, 78, 96
2, 107520, Note_on_c, 0, 78, 0
2, 107520, Note_on_c, 0, 66, 0
2, 107520, Note_on_c, 0, 67, 96
2, 107520, Note_on_c, 0, 71, 96
2, 107520, Note_on_c, 0, 79, 96
2, 107880, Note_on_c, 0, 79, 0
2, 107880, Note_on_c, 0, 71, 0
2, 107880, Note_on_c, 0, 67, 0
2, 107880, Note_on_c, 0, 69, 96
2, 107880, Note_on_c, 0, 81, 96
2, 108000, Note_on_c, 0, 81, 0
2, 108000, Note_on_c, 0, 69, 0
2, 108000, Note_on_c, 0, 71, 96
2, 108000, Note_on_c, 0, 74, 96
2, 108000, Note_on_c, 0, 83, 96
2, 108360, Note_on_c, 0, 83, 0
2, 108360, Note_on_c, 0, 74, 0
2, 108360, Note_on_c, 0, 71, 0
2, 108360, Note_on_c, 0, 73, 96
2, 108360, Note_on_c, 0, 85, 96
2, 108480, Note_on_c, 0, 85, 0
2, 108480, Note_on_c, 0, 73, 0
2, 108480, Note_on_c, 0, 74, 96
2, 108480, Note_on_c, 0, 83, 96
2, 108480, Note_on_c, 0, 86, 96
2, 108840, Note_on_c, 0, 86, 0
2, 108840, Note_on_c, 0, 83, 0
2, 108840, Note_on_c, 0, 74, 0
2, 108840, Note_on_c, 0, 76, 96
2, 108840, Note_on_c, 0, 88, 96
2, 108960, Note_on_c, 0, 88, 0
2, 108960, Note_on_c, 0, 76, 0
2, 108960, Note_on_c, 0, 78, 96
2, 108960, Note_on_c, 0, 90, 96
2, 109680, Note_on_c, 0, 90, 0
2, 109680, Note_on_c, 0, 78, 0
2, 109680, Note_on_c, 0, 83, 96
2, 109920, Note_on_c, 0, 83, 0
2, 109920, Note_on_c, 0, 74, 96
2, 109920, Note_on_c, 0, 79, 96
2, 109920, Note_on_c, 0, 83, 96
2, 109920, Note_on_c, 0, 86, 96
2, 110280, Note_on_c, 0, 86, 0
2, 110280, Note_on_c, 0, 74, 0
2, 110280, Note_on_c, 0, 79, 0
2, 110280, Note_on_c, 0, 83, 0
2, 110280, Note_on_c, 0, 74, 96
2, 110280, Note_on_c, 0, 79, 96
2, 110280, Note_on_c, 0, 83, 96
2, 110280, Note_on_c, 0, 86, 96
2, 110400, Note_on_c, 0, 86, 0
2, 110400, Note_on_c, 0, 74, 0
2, 110400, Note_on_c, 0, 79, 0
2, 110400, Note_on_c, 0, 83, 0
2, 110400, Note_on_c, 0, 73, 96
2, 110400, Note_on_c, 0, 79, 96
2, 110400, Note_on_c, 0, 83, 96
2, 110400, Note_on_c, 0, 85, 96
2, 111360, Note_on_c, 0, 85, 0
2, 111360, Note_on_c, 0, 73, 0
2, 111360, Note_on_c, 0, 79, 0
2, 111360, Note_on_c, 0, 83, 0
2, 111360, Note_on_c, 0, 76, 96
2, 111360, Note_on_c, 0, 79, 96
2, 111360, Note_on_c, 0, 83, 96
2, 111360, Note_on_c, 0, 88, 96
2, 111840, Note_on_c, 0, 88, 0
2, 111840, Note_on_c, 0, 76, 0
2, 111840, Note_on_c, 0, 79, 0
2, 111840, Note_on_c, 0, 83, 0
2, 111840, Note_on_c, 0, 74, 96
2, 111840, Note_on_c, 0, 79, 96
2, 111840, Note_on_c, 0, 83, 96
2, 111840, Note_on_c, 0, 86, 96
2, 112800, Note_on_c, 0, 86, 0
2, 112800, Note_on_c, 0, 74, 0
2, 112800, Note_on_c, 0, 79, 0
2, 112800, Note_on_c, 0, 83, 0
2, 112800, Note_on_c, 0, 71, 96
2, 112800, Note_on_c, 0, 74, 96
2, 112800, Note_on_c, 0, 79, 96
2, 112800, Note_on_c, 0, 83, 96
2, 113160, Note_on_c, 0, 83, 0
2, 113160, Note_on_c, 0, 71, 0
2, 113160, Note_on_c, 0, 74, 0
2, 113160, Note_on_c, 0, 79, 0
2, 113160, Note_on_c, 0, 71, 96
2, 113160, Note_on_c, 0, 74, 96
2, 113160, Note_on_c, 0, 79, 96
2, 113160, Note_on_c, 0, 83, 96
2, 113280, Note_on_c, 0, 83, 0
2, 113280, Note_on_c, 0, 71, 0
2, 113280, Note_on_c, 0, 74, 0
2, 113280, Note_on_c, 0, 79, 0
2, 113280, Note_on_c, 0, 70, 96
2, 113280, Note_on_c, 0, 74, 96
2, 113280, Note_on_c, 0, 79, 96
2, 113280, Note_on_c, 0, 82, 96
2, 114240, Note_on_c, 0, 82, 0
2, 114240, Note_on_c, 0, 70, 0
2, 114240, Note_on_c, 0, 74, 0
2, 114240, Note_on_c, 0, 79, 0
2, 114240, Note_on_c, 0, 72, 96
2, 114240, Note_on_c, 0, 74, 96
2, 114240, Note_on_c, 0, 79, 96
2, 114240, Note_on_c, 0, 84, 96
2, 114720, Note_on_c, 0, 84, 0
2, 114720, Note_on_c, 0, 72, 0
2, 114720, Note_on_c, 0, 74, 0
2, 114720, Note_on_c, 0, 79, 0
2, 114720, Note_on_c, 0, 71, 96
2, 114720, Note_on_c, 0, 74, 96
2, 114720, Note_on_c, 0, 79, 96
2, 114720, Note_on_c, 0, 83, 96
2, 115680, Note_on_c, 0, 83, 0
2, 115680, Note_on_c, 0, 71, 0
2, 115680, Note_on_c, 0, 74, 0
2, 115680, Note_on_c, 0, 79, 0
2, 115680, Note_on_c, 0, 76, 96
2, 116040, Note_on_c, 0, 76, 0
2, 116040, Note_on_c, 0, 78, 96
2, 116160, Note_on_c, 0, 78, 0
2, 116160, Note_on_c, 0, 81, 96
2, 116520, Note_on_c, 0, 81, 0
2, 116520, Note_on_c, 0, 78, 96
2, 116640, Note_on_c, 0, 78, 0
2, 116640, Note_on_c, 0, 74, 96
2, 117120, Note_on_c, 0, 74, 0
2, 117120, Note_on_c, 0, 76, 96
2, 117480, Note_on_c, 0, 76, 0
2, 117480, Note_on_c, 0, 78, 96
2, 117600, Note_on_c, 0, 78, 0
2, 117600, Note_on_c, 0, 83, 96
2, 117759, Note_on_c, 0, 83, 0
2, 117759, Note_on_c, 0, 81, 96
2, 117920, Note_on_c, 0, 81, 0
2, 117920, Note_on_c, 0, 78, 96
2, 118080, Note_on_c, 0, 78, 0
2, 118080, Note_on_c, 0, 74, 96
2, 118440, Note_on_c, 0, 74, 0
2, 118440, Note_on_c, 0, 74, 96
2, 118560, Note_on_c, 0, 74, 0
2, 118560, Note_on_c, 0, 64, 96
2, 118560, Note_on_c, 0, 67, 96
2, 118560, Note_on_c, 0, 70, 96
2, 118560, Note_on_c, 0, 76, 96
2, 118920, Note_on_c, 0, 76, 0
2, 118920, Note_on_c, 0, 64, 0
2, 118920, Note_on_c, 0, 67, 0
2, 118920, Note_on_c, 0, 70, 0
2, 118920, Note_on_c, 0, 66, 96
2, 118920, Note_on_c, 0, 78, 96
2, 119040, Note_on_c, 0, 78, 0
2, 119040, Note_on_c, 0, 66, 0
2, 119040, Note_on_c, 0, 64, 96
2, 119040, Note_on_c, 0, 67, 96
2, 119040, Note_on_c, 0, 70, 96
2, 119040, Note_on_c, 0, 76, 96
2, 119400, Note_on_c, 0, 76, 0
2, 119400, Note_on_c, 0, 64, 0
2, 119400, Note_on_c, 0, 67, 0
2, 119400, Note_on_c, 0, 70, 0
2, 119400, Note_on_c, 0, 66, 96
2, 119400, Note_on_c, 0, 78, 96
2, 119520, Note_on_c, 0, 78, 0
2, 119520, Note_on_c, 0, 66, 0
2, 119520, Note_on_c, 0, 67, 96
2, 119520, Note_on_c, 0, 70, 96
2, 119520, Note_on_c, 0, 76, 96
2, 119520, Note_on_c, 0, 79, 96
2, 119880, Note_on_c, 0, 79, 0
2, 119880, Note_on_c, 0, 67, 0
2, 119880, Note_on_c, 0, 70, 0
2, 119880, Note_on_c, 0, 76, 0
2, 119880, Note_on_c, 0, 69, 96
2, 119880, Note_on_c, 0, 81, 96
2, 120000, Note_on_c, 0, 81, 0
2, 120000, Note_on_c, 0, 69, 0
2, 120000, Note_on_c, 0, 71, 96
2, 120000, Note_on_c, 0, 74, 96
2, 120000, Note_on_c, 0, 79, 96
2, 120000, Note_on_c, 0, 83, 96
2, 120360, Note_on_c, 0, 83, 0
2, 120360, Note_on_c, 0, 71, 0
2, 120360, Note_on_c, 0, 74, 0
2, 120360, Note_on_c, 0, 79, 0
2, 120360, Note_on_c, 0, 72, 96
2, 120360, Note_on_c, 0, 84, 96
2, 120480, Note_on_c, 0, 84, 0
2, 120480, Note_on_c, 0, 72, 0
2, 120480, Note_on_c, 0, 74, 96
2, 120480, Note_on_c, 0, 81, 96
2, 120480, Note_on_c, 0, 84, 96
2, 120480, Note_on_c, 0, 86, 96
2, 120960, Note_on_c, 0, 86, 0
2, 120960, Note_on_c, 0, 74, 0
2, 120960, Note_on_c, 0, 81, 0
2, 120960, Note_on_c, 0, 84, 0
2, 120960, Note_on_c, 0, 67, 96
2, 120960, Note_on_c, 0, 71, 96
2, 120960, Note_on_c, 0, 79, 96
2, 121440, Note_on_c, 0, 79, 0
2, 121440, Note_on_c, 0, 71, 0
2, 121440, Note_on_c, 0, 67, 0
2, 121440, Note_on_c, 0, 76, 57
2, 121440, Note_on_c, 0, 79, 57
2, 121800, Note_on_c, 0, 79, 0
2, 121800, Note_on_c, 0, 76, 0
2, 121800, Note_on_c, 0, 76, 57
2, 121800, Note_on_c, 0, 79, 57
2, 121920, Note_on_c, 0, 79, 0
2, 121920, Note_on_c, 0, 76, 0
2, 121920, Note_on_c, 0, 81, 57
2, 121920, Note_on_c, 0, 84, 57
2, 122079, Note_on_c, 0, 84, 0
2, 122079, Note_on_c, 0, 81, 0
2, 122079, Note_on_c, 0, 79, 57
2, 122079, Note_on_c, 0, 83, 57
2, 122240, Note_on_c, 0, 83, 0
2, 122240, Note_on_c, 0, 79, 0
2, 122240, Note_on_c, 0, 77, 57
2, 122240, Note_on_c, 0, 81, 57
2, 122400, Note_on_c, 0, 81, 0
2, 122400, Note_on_c, 0, 77, 0
2, 122400, Note_on_c, 0, 76, 57
2, 122400, Note_on_c, 0, 79, 57
2, 122760, Note_on_c, 0, 79, 0
2, 122760, Note_on_c, 0, 76, 0
2, 122760, Note_on_c, 0, 72, 57
2, 122760, Note_on_c, 0, 76, 57
2, 122880, Note_on_c, 0, 76, 0
2, 122880, Note_on_c, 0, 72, 0
2, 122880, Note_on_c, 0, 74, 57
2, 122880, Note_on_c, 0, 77, 57
2, 123240, Note_on_c, 0, 77, 0
2, 123240, Note_on_c, 0, 74, 0
2, 123240, Note_on_c, 0, 76, 57
2, 123240, Note_on_c, 0, 79, 57
2, 123360, Note_on_c, 0, 79, 0
2, 123360, Note_on_c, 0, 76, 0
2, 123360, Note_on_c, 0, 77, 57
2, 123360, Note_on_c, 0, 81, 57
2, 124680, Note_on_c, 0, 81, 0
2, 124680, Note_on_c, 0, 77, 0
2, 124680, Note_on_c, 0, 71, 57
2, 124680, Note_on_c, 0, 74, 57
2, 124800, Note_on_c, 0, 74, 0
2, 124800, Note_on_c, 0, 71, 0
2, 124800, Note_on_c, 0, 77, 57
2, 124800, Note_on_c, 0, 81, 57
2, 125160, Note_on_c, 0, 81, 0
2, 125160, Note_on_c, 0, 77, 0
2, 125160, Note_on_c, 0, 71, 57
2, 125160, Note_on_c, 0, 74, 57
2, 125280, Note_on_c, 0, 74, 0
2, 125280, Note_on_c, 0, 71, 0
2, 125280, Note_on_c, 0, 77, 57
2, 125280, Note_on_c, 0, 81, 57
2, 125640, Note_on_c, 0, 81, 0
2, 125640, Note_on_c, 0, 77, 0
2, 125640, Note_on_c, 0, 71, 57
2, 125640, Note_on_c, 0, 74, 57
2, 125760, Note_on_c, 0, 74, 0
2, 125760, Note_on_c, 0, 71, 0
2, 125760, Note_on_c, 0, 78, 57
2, 125760, Note_on_c, 0, 81, 57
2, 126120, Note_on_c, 0, 81, 0
2, 126120, Note_on_c, 0, 78, 0
2, 126120, Note_on_c, 0, 72, 57
2, 126120, Note_on_c, 0, 75, 57
2, 126240, Note_on_c, 0, 75, 0
2, 126240, Note_on_c, 0, 72, 0
2, 126240, Note_on_c, 0, 78, 57
2, 126240, Note_on_c, 0, 81, 57
2, 126720, Note_on_c, 0, 81, 0
2, 126720, Note_on_c, 0, 78, 0
2, 126720, Note_on_c, 0, 76, 57
2, 126720, Note_on_c, 0, 79, 57
2, 127200, Note_on_c, 0, 79, 0
2, 127200, Note_on_c, 0, 76, 0
2, 127200, Note_on_c, 0, 72, 57
2, 127200, Note_on_c, 0, 76, 57
2, 127560, Note_on_c, 0, 76, 0
2, 127560, Note_on_c, 0, 72, 0
2, 127560, Note_on_c, 0, 72, 57
2, 127560, Note_on_c, 0, 76, 57
2, 127680, Note_on_c, 0, 76, 0
2, 127680, Note_on_c, 0, 72, 0
2, 127680, Note_on_c, 0, 77, 57
2, 127680, Note_on_c, 0, 81, 57
2, 127839, Note_on_c, 0, 81, 0
2, 127839, Note_on_c, 0, 77, 0
2, 127839, Note_on_c, 0, 76, 57
2, 127839, Note_on_c, 0, 79, 57
2, 128000, Note_on_c, 0, 79, 0
2, 128000, Note_on_c, 0, 76, 0
2, 128000, Note_on_c, 0, 74, 57
2, 128000, Note_on_c, 0, 77, 57
2, 128160, Note_on_c, 0, 77, 0
2, 128160, Note_on_c, 0, 74, 0
2, 128160, Note_on_c, 0, 72, 57
2, 128160, Note_on_c, 0, 76, 57
2, 128520, Note_on_c, 0, 76, 0
2, 128520, Note_on_c, 0, 72, 0
2, 128520, Note_on_c, 0, 69, 57
2, 128520, Note_on_c, 0, 72, 57
2, 128640, Note_on_c, 0, 72, 0
2, 128640, Note_on_c, 0, 69, 0
2, 128640, Note_on_c, 0, 71, 57
2, 128640, Note_on_c, 0, 74, 57
2, 129000, Note_on_c, 0, 74, 0
2, 129000, Note_on_c, 0, 71, 0
2, 129000, Note_on_c, 0, 72, 57
2, 129000, Note_on_c, 0, 76, 57
2, 129120, Note_on_c, 0, 76, 0
2, 129120, Note_on_c, 0, 72, 0
2, 129120, Note_on_c, 0, 74, 57
2, 129120, Note_on_c, 0, 77, 57
2, 130440, Note_on_c, 0, 77, 0
2, 130440, Note_on_c, 0, 74, 0
2, 130440, Note_on_c, 0, 65, 57
2, 130440, Note_on_c, 0, 68, 57
2, 130560, Note_on_c, 0, 68, 0
2, 130560, Note_on_c, 0, 65, 0
2, 130560, Note_on_c, 0, 71, 57
2, 130560, Note_on_c, 0, 76, 57
2, 130920, Note_on_c, 0, 76, 0
2, 130920, Note_on_c, 0, 71, 0
2, 130920, Note_on_c, 0, 65, 57
2, 130920, Note_on_c, 0, 68, 57
2, 131040, Note_on_c, 0, 68, 0
2, 131040, Note_on_c, 0, 65, 0
2, 131040, Note_on_c, 0, 71, 57
2, 131040, Note_on_c, 0, 76, 57
2, 131400, Note_on_c, 0, 76, 0
2, 131400, Note_on_c, 0, 71, 0
2, 131400, Note_on_c, 0, 65, 57
2, 131400, Note_on_c, 0, 68, 57
2, 131520, Note_on_c, 0, 68, 0
2, 131520, Note_on_c, 0, 65, 0
2, 131520, Note_on_c, 0, 71, 57
2, 131520, Note_on_c, 0, 74, 57
2, 131880, Note_on_c, 0, 74, 0
2, 131880, Note_on_c, 0, 71, 0
2, 131880, Note_on_c, 0, 64, 57
2, 131880, Note_on_c, 0, 67, 57
2, 132000, Note_on_c, 0, 67, 0
2, 132000, Note_on_c, 0, 64, 0
2, 132000, Note_on_c, 0, 71, 57
2, 132000, Note_on_c, 0, 74, 57
2, 132480, Note_on_c, 0, 74, 0
2, 132480, Note_on_c, 0, 71, 0
2, 132480, Note_on_c, 0, 72, 57
2, 132720, Note_on_c, 0, 72, 0
2, 132960, Note_on_c, 0, 76, 57
2, 132960, Note_on_c, 0, 79, 57
2, 133320, Note_on_c, 0, 79, 0
2, 133320, Note_on_c, 0, 76, 0
2, 133320, Note_on_c, 0, 76, 57
2, 133320, Note_on_c, 0, 79, 57
2, 133440, Note_on_c, 0, 79, 0
2, 133440, Note_on_c, 0, 76, 0
2, 133440, Note_on_c, 0, 81, 57
2, 133440, Note_on_c, 0, 84, 57
2, 133599, Note_on_c, 0, 84, 0
2, 133599, Note_on_c, 0, 81, 0
2, 133599, Note_on_c, 0, 79, 57
2, 133599, Note_on_c, 0, 83, 57
2, 133760, Note_on_c, 0, 83, 0
2, 133760, Note_on_c, 0, 79, 0
2, 133760, Note_on_c, 0, 77, 57
2, 133760, Note_on_c, 0, 81, 57
2, 133920, Note_on_c, 0, 81, 0
2, 133920, Note_on_c, 0, 77, 0
2, 133920, Note_on_c, 0, 76, 57
2, 133920, Note_on_c, 0, 79, 57
2, 134280, Note_on_c, 0, 79, 0
2, 134280, Note_on_c, 0, 76, 0
2, 134280, Note_on_c, 0, 72, 57
2, 134280, Note_on_c, 0, 76, 57
2, 134400, Note_on_c, 0, 76, 0
2, 134400, Note_on_c, 0, 72, 0
2, 134400, Note_on_c, 0, 74, 57
2, 134400, Note_on_c, 0, 77, 57
2, 134760, Note_on_c, 0, 77, 0
2, 134760, Note_on_c, 0, 74, 0
2, 134760, Note_on_c, 0, 76, 57
2, 134760, Note_on_c, 0, 79, 57
2, 134880, Note_on_c, 0, 79, 0
2, 134880, Note_on_c, 0, 76, 0
2, 134880, Note_on_c, 0, 77, 57
2, 134880, Note_on_c, 0, 81, 57
2, 136200, Note_on_c, 0, 81, 0
2, 136200, Note_on_c, 0, 77, 0
2, 136200, Note_on_c, 0, 71, 57
2, 136200, Note_on_c, 0, 74, 57
2, 136320, Note_on_c, 0, 74, 0
2, 136320, Note_on_c, 0, 71, 0
2, 136320, Note_on_c, 0, 77, 57
2, 136320, Note_on_c, 0, 81, 57
2, 136680, Note_on_c, 0, 81, 0
2, 136680, Note_on_c, 0, 77, 0
2, 136680, Note_on_c, 0, 71, 57
2, 136680, Note_on_c, 0, 74, 57
2, 136800, Note_on_c, 0, 74, 0
2, 136800, Note_on_c, 0, 71, 0
2, 136800, Note_on_c, 0, 77, 57
2, 136800, Note_on_c, 0, 81, 57
2, 137160, Note_on_c, 0, 81, 0
2, 137160, Note_on_c, 0, 77, 0
2, 137160, Note_on_c, 0, 71, 57
2, 137160, Note_on_c, 0, 74, 57
2, 137280, Note_on_c, 0, 74, 0
2, 137280, Note_on_c, 0, 71, 0
2, 137280, Note_on_c, 0, 78, 57
2, 137280, Note_on_c, 0, 81, 57
2, 137640, Note_on_c, 0, 81, 0
2, 137640, Note_on_c, 0, 78, 0
2, 137640, Note_on_c, 0, 72, 57
2, 137640, Note_on_c, 0, 75, 57
2, 137760, Note_on_c, 0, 75, 0
2, 137760, Note_on_c, 0, 72, 0
2, 137760, Note_on_c, 0, 78, 57
2, 137760, Note_on_c, 0, 81, 57
2, 138240, Note_on_c, 0, 81, 0
2, 138240, Note_on_c, 0, 78, 0
2, 138240, Note_on_c, 0, 76, 57
2, 138240, Note_on_c, 0, 79, 57
2, 138720, Note_on_c, 0, 79, 0
2, 138720, Note_on_c, 0, 76, 0
2, 138720, Note_on_c, 0, 72, 57
2, 138720, Note_on_c, 0, 76, 57
2, 139080, Note_on_c, 0, 76, 0
2, 139080, Note_on_c, 0, 72, 0
2, 139080, Note_on_c, 0, 72, 57
2, 139080, Note_on_c, 0, 76, 57
2, 139200, Note_on_c, 0, 76, 0
2, 139200, Note_on_c, 0, 72, 0
2, 139200, Note_on_c, 0, 77, 57
2, 139200, Note_on_c, 0, 81, 57
2, 139359, Note_on_c, 0, 81, 0
2, 139359, Note_on_c, 0, 77, 0
2, 139359, Note_on_c, 0, 76, 57
2, 139359, Note_on_c, 0, 79, 57
2, 139520, Note_on_c, 0, 79, 0
2, 139520, Note_on_c, 0, 76, 0
2, 139520, Note_on_c, 0, 74, 57
2, 139520, Note_on_c, 0, 77, 57
2, 139680, Note_on_c, 0, 77, 0
2, 139680, Note_on_c, 0, 74, 0
2, 139680, Note_on_c, 0, 72, 57
2, 139680, Note_on_c, 0, 76, 57
2, 140040, Note_on_c, 0, 76, 0
2, 140040, Note_on_c, 0, 72, 0
2, 140040, Note_on_c, 0, 69, 57
2, 140040, Note_on_c, 0, 72, 57
2, 140160, Note_on_c, 0, 72, 0
2, 140160, Note_on_c, 0, 69, 0
2, 140160, Note_on_c, 0, 71, 57
2, 140160, Note_on_c, 0, 74, 57
2, 140520, Note_on_c, 0, 74, 0
2, 140520, Note_on_c, 0, 71, 0
2, 140520, Note_on_c, 0, 72, 57
2, 140520, Note_on_c, 0, 76, 57
2, 140640, Note_on_c, 0, 76, 0
2, 140640, Note_on_c, 0, 72, 0
2, 140640, Note_on_c, 0, 74, 57
2, 140640, Note_on_c, 0, 77, 57
2, 141960, Note_on_c, 0, 77, 0
2, 141960, Note_on_c, 0, 74, 0
2, 141960, Note_on_c, 0, 65, 57
2, 141960, Note_on_c, 0, 68, 57
2, 142080, Note_on_c, 0, 68, 0
2, 142080, Note_on_c, 0, 65, 0
2, 142080, Note_on_c, 0, 71, 57
2, 142080, Note_on_c, 0, 76, 57
2, 142440, Note_on_c, 0, 76, 0
2, 142440, Note_on_c, 0, 71, 0
2, 142440, Note_on_c, 0, 65, 57
2, 142440, Note_on_c, 0, 68, 57
2, 142560, Note_on_c, 0, 68, 0
2, 142560, Note_on_c, 0, 65, 0
2, 142560, Note_on_c, 0, 71, 57
2, 142560, Note_on_c, 0, 76, 57
2, 142920, Note_on_c, 0, 76, 0
2, 142920, Note_on_c, 0, 71, 0
2, 142920, Note_on_c, 0, 65, 57
2, 142920, Note_on_c, 0, 68, 57
2, 143040, Note_on_c, 0, 68, 0
2, 143040, Note_on_c, 0, 65, 0
2, 143040, Note_on_c, 0, 71, 57
2, 143040, Note_on_c, 0, 74, 57
2, 143400, Note_on_c, 0, 74, 0
2, 143400, Note_on_c, 0, 71, 0
2, 143400, Note_on_c, 0, 64, 57
2, 143400, Note_on_c, 0, 67, 57
2, 143520, Note_on_c, 0, 67, 0
2, 143520, Note_on_c, 0, 64, 0
2, 143520, Note_on_c, 0, 71, 57
2, 143520, Note_on_c, 0, 74, 57
2, 144000, Note_on_c, 0, 74, 0
2, 144000, Note_on_c, 0, 71, 0
2, 144000, Note_on_c, 0, 72, 57
2, 144240, Note_on_c, 0, 72, 0
2, 144480, Note_on_c, 0, 76, 57
2, 144840, Note_on_c, 0, 76, 0
2, 144840, Note_on_c, 0, 76, 57
2, 144960, Note_on_c, 0, 76, 0
2, 144960, Note_on_c, 0, 81, 57
2, 145119, Note_on_c, 0, 81, 0
2, 145119, Note_on_c, 0, 80, 57
2, 145280, Note_on_c, 0, 80, 0
2, 145280, Note_on_c, 0, 78, 57
2, 145440, Note_on_c, 0, 78, 0
2, 145440, Note_on_c, 0, 76, 57
2, 145800, Note_on_c, 0, 76, 0
2, 145800, Note_on_c, 0, 81, 57
2, 145920, Note_on_c, 0, 81, 0
2, 145920, Note_on_c, 0, 80, 57
2, 146280, Note_on_c, 0, 80, 0
2, 146280, Note_on_c, 0, 83, 57
2, 146400, Note_on_c, 0, 83, 0
2, 146400, Note_on_c, 0, 76, 57
2, 146559, Note_on_c, 0, 76, 0
2, 146559, Note_on_c, 0, 74, 57
2, 146720, Note_on_c, 0, 74, 0
2, 146720, Note_on_c, 0, 72, 57
2, 146880, Note_on_c, 0, 72, 0
2, 146880, Note_on_c, 0, 71, 57
2, 147240, Note_on_c, 0, 71, 0
2, 147240, Note_on_c, 0, 74, 57
2, 147360, Note_on_c, 0, 74, 0
2, 147360, Note_on_c, 0, 76, 57
2, 147519, Note_on_c, 0, 76, 0
2, 147519, Note_on_c, 0, 74, 57
2, 147680, Note_on_c, 0, 74, 0
2, 147680, Note_on_c, 0, 72, 57
2, 147840, Note_on_c, 0, 72, 0
2, 147840, Note_on_c, 0, 71, 57
2, 148200, Note_on_c, 0, 71, 0
2, 148200, Note_on_c, 0, 69, 57
2, 148320, Note_on_c, 0, 69, 0
2, 148320, Note_on_c, 0, 76, 57
2, 148479, Note_on_c, 0, 76, 0
2, 148479, Note_on_c, 0, 74, 57
2, 148640, Note_on_c, 0, 74, 0
2, 148640, Note_on_c, 0, 72, 57
2, 148800, Note_on_c, 0, 72, 0
2, 148800, Note_on_c, 0, 71, 57
2, 149160, Note_on_c, 0, 71, 0
2, 149160, Note_on_c, 0, 66, 57
2, 149280, Note_on_c, 0, 66, 0
2, 149280, Note_on_c, 0, 69, 57
2, 149439, Note_on_c, 0, 69, 0
2, 149439, Note_on_c, 0, 68, 57
2, 149600, Note_on_c, 0, 68, 0
2, 149600, Note_on_c, 0, 66, 57
2, 149760, Note_on_c, 0, 66, 0
2, 149760, Note_on_c, 0, 68, 57
2, 150120, Note_on_c, 0, 68, 0
2, 150120, Note_on_c, 0, 64, 57
2, 150240, Note_on_c, 0, 64, 0
2, 150240, Note_on_c, 0, 76, 57
2, 150600, Note_on_c, 0, 76, 0
2, 150600, Note_on_c, 0, 76, 57
2, 150720, Note_on_c, 0, 76, 0
2, 150720, Note_on_c, 0, 81, 57
2, 150879, Note_on_c, 0, 81, 0
2, 150879, Note_on_c, 0, 80, 57
2, 151040, Note_on_c, 0, 80, 0
2, 151040, Note_on_c, 0, 78, 57
2, 151200, Note_on_c, 0, 78, 0
2, 151200, Note_on_c, 0, 76, 57
2, 151560, Note_on_c, 0, 76, 0
2, 151560, Note_on_c, 0, 81, 57
2, 151680, Note_on_c, 0, 81, 0
2, 151680, Note_on_c, 0, 80, 57
2, 152040, Note_on_c, 0, 80, 0
2, 152040, Note_on_c, 0, 83, 57
2, 152160, Note_on_c, 0, 83, 0
2, 152160, Note_on_c, 0, 76, 57
2, 152319, Note_on_c, 0, 76, 0
2, 152319, Note_on_c, 0, 74, 57
2, 152480, Note_on_c, 0, 74, 0
2, 152480, Note_on_c, 0, 72, 57
2, 152640, Note_on_c, 0, 72, 0
2, 152640, Note_on_c, 0, 71, 57
2, 153000, Note_on_c, 0, 71, 0
2, 153000, Note_on_c, 0, 74, 57
2, 153120, Note_on_c, 0, 74, 0
2, 153120, Note_on_c, 0, 76, 57
2, 153279, Note_on_c, 0, 76, 0
2, 153279, Note_on_c, 0, 74, 57
2, 153440, Note_on_c, 0, 74, 0
2, 153440, Note_on_c, 0, 72, 57
2, 153600, Note_on_c, 0, 72, 0
2, 153600, Note_on_c, 0, 71, 57
2, 153960, Note_on_c, 0, 71, 0
2, 153960, Note_on_c, 0, 69, 57
2, 154080, Note_on_c, 0, 69, 0
2, 154080, Note_on_c, 0, 76, 57
2, 154239, Note_on_c, 0, 76, 0
2, 154239, Note_on_c, 0, 74, 57
2, 154400, Note_on_c, 0, 74, 0
2, 154400, Note_on_c, 0, 72, 57
2, 154560, Note_on_c, 0, 72, 0
2, 154560, Note_on_c, 0, 71, 57
2, 154719, Note_on_c, 0, 71, 0
2, 154719, Note_on_c, 0, 66, 57
2, 154880, Note_on_c, 0, 66, 0
2, 154880, Note_on_c, 0, 69, 57
2, 155040, Note_on_c, 0, 69, 0
2, 155040, Note_on_c, 0, 68, 57
2, 155520, Note_on_c, 0, 68, 0
2, 155520, Note_on_c, 0, 69, 57
2, 156000, Note_on_c, 0, 69, 0
2, 156000, Note_on_c, 0, 76, 57
2, 156000, Note_on_c, 0, 79, 57
2, 156360, Note_on_c, 0, 79, 0
2, 156360, Note_on_c, 0, 76, 0
2, 156360, Note_on_c, 0, 76, 57
2, 156360, Note_on_c, 0, 79, 57
2, 156480, Note_on_c, 0, 79, 0
2, 156480, Note_on_c, 0, 76, 0
2, 156480, Note_on_c, 0, 81, 57
2, 156480, Note_on_c, 0, 84, 57
2, 156639, Note_on_c, 0, 84, 0
2, 156639, Note_on_c, 0, 81, 0
2, 156639, Note_on_c, 0, 79, 57
2, 156639, Note_on_c, 0, 83, 57
2, 156800, Note_on_c, 0, 83, 0
2, 156800, Note_on_c, 0, 79, 0
2, 156800, Note_on_c, 0, 77, 57
2, 156800, Note_on_c, 0, 81, 57
2, 156960, Note_on_c, 0, 81, 0
2, 156960, Note_on_c, 0, 77, 0
2, 156960, Note_on_c, 0, 76, 57
2, 156960, Note_on_c, 0, 79, 57
2, 157320, Note_on_c, 0, 79, 0
2, 157320, Note_on_c, 0, 76, 0
2, 157320, Note_on_c, 0, 72, 57
2, 157320, Note_on_c, 0, 76, 57
2, 157440, Note_on_c, 0, 76, 0
2, 157440, Note_on_c, 0, 72, 0
2, 157440, Note_on_c, 0, 74, 57
2, 157440, Note_on_c, 0, 77, 57
2, 157800, Note_on_c, 0, 77, 0
2, 157800, Note_on_c, 0, 74, 0
2, 157800, Note_on_c, 0, 76, 57
2, 157800, Note_on_c, 0, 79, 57
2, 157920, Note_on_c, 0, 79, 0
2, 157920, Note_on_c, 0, 76, 0
2, 157920, Note_on_c, 0, 77, 57
2, 157920, Note_on_c, 0, 81, 57
2, 159240, Note_on_c, 0, 81, 0
2, 159240, Note_on_c, 0, 77, 0
2, 159240, Note_on_c, 0, 71, 57
2, 159240, Note_on_c, 0, 74, 57
2, 159360, Note_on_c, 0, 74, 0
2, 159360, Note_on_c, 0, 71, 0
2, 159360, Note_on_c, 0, 77, 57
2, 159360, Note_on_c, 0, 81, 57
2, 159720, Note_on_c, 0, 81, 0
2, 159720, Note_on_c, 0, 77, 0
2, 159720, Note_on_c, 0, 71, 57
2, 159720, Note_on_c, 0, 74, 57
2, 159840, Note_on_c, 0, 74, 0
2, 159840, Note_on_c, 0, 71, 0
2, 159840, Note_on_c, 0, 77, 57
2, 159840, Note_on_c, 0, 81, 57
2, 160200, Note_on_c, 0, 81, 0
2, 160200, Note_on_c, 0, 77, 0
2, 160200, Note_on_c, 0, 71, 57
2, 160200, Note_on_c, 0, 74, 57
2, 160320, Note_on_c, 0, 74, 0
2, 160320, Note_on_c, 0, 71, 0
2, 160320, Note_on_c, 0, 78, 57
2, 160320, Note_on_c, 0, 81, 57
2, 160680, Note_on_c, 0, 81, 0
2, 160680, Note_on_c, 0, 78, 0
2, 160680, Note_on_c, 0, 72, 57
2, 160680, Note_on_c, 0, 75, 57
2, 160800, Note_on_c, 0, 75, 0
2, 160800, Note_on_c, 0, 72, 0
2, 160800, Note_on_c, 0, 78, 57
2, 160800, Note_on_c, 0, 81, 57
2, 161280, Note_on_c, 0, 81, 0
2, 161280, Note_on_c, 0, 78, 0
2, 161280, Note_on_c, 0, 76, 57
2, 161280, Note_on_c, 0, 79, 57
2, 161760, Note_on_c, 0, 79, 0
2, 161760, Note_on_c, 0, 76, 0
2, 161760, Note_on_c, 0, 72, 57
2, 161760, Note_on_c, 0, 76, 57
2, 162120, Note_on_c, 0, 76, 0
2, 162120, Note_on_c, 0, 72, 0
2, 162120, Note_on_c, 0, 72, 57
2, 162120, Note_on_c, 0, 76, 57
2, 162240, Note_on_c, 0, 76, 0
2, 162240, Note_on_c, 0, 72, 0
2, 162240, Note_on_c, 0, 77, 57
2, 162240, Note_on_c, 0, 81, 57
2, 162399, Note_on_c, 0, 81, 0
2, 162399, Note_on_c, 0, 77, 0
2, 162399, Note_on_c, 0, 76, 57
2, 162399, Note_on_c, 0, 79, 57
2, 162560, Note_on_c, 0, 79, 0
2, 162560, Note_on_c, 0, 76, 0
2, 162560, Note_on_c, 0, 74, 57
2, 162560, Note_on_c, 0, 77, 57
2, 162720, Note_on_c, 0, 77, 0
2, 162720, Note_on_c, 0, 74, 0
2, 162720, Note_on_c, 0, 72, 57
2, 162720, Note_on_c, 0, 76, 57
2, 163080, Note_on_c, 0, 76, 0
2, 163080, Note_on_c, 0, 72, 0
2, 163080, Note_on_c, 0, 69, 57
2, 163080, Note_on_c, 0, 72, 57
2, 163200, Note_on_c, 0, 72, 0
2, 163200, Note_on_c, 0, 69, 0
2, 163200, Note_on_c, 0, 71, 57
2, 163200, Note_on_c, 0, 74, 57
2, 163560, Note_on_c, 0, 74, 0
2, 163560, Note_on_c, 0, 71, 0
2, 163560, Note_on_c, 0, 72, 57
2, 163560, Note_on_c, 0, 76, 57
2, 163680, Note_on_c, 0, 76, 0
2, 163680, Note_on_c, 0, 72, 0
2, 163680, Note_on_c, 0, 74, 57
2, 163680, Note_on_c, 0, 77, 57
2, 165000, Note_on_c, 0, 77, 0
2, 165000, Note_on_c, 0, 74, 0
2, 165000, Note_on_c, 0, 65, 57
2, 165000, Note_on_c, 0, 68, 57
2, 165120, Note_on_c, 0, 68, 0
2, 165120, Note_on_c, 0, 65, 0
2, 165120, Note_on_c, 0, 71, 57
2, 165120, Note_on_c, 0, 76, 57
2, 165480, Note_on_c, 0, 76, 0
2, 165480, Note_on_c, 0, 71, 0
2, 165480, Note_on_c, 0, 65, 57
2, 165480, Note_on_c, 0, 68, 57
2, 165600, Note_on_c, 0, 68, 0
2, 165600, Note_on_c, 0, 65, 0
2, 165600, Note_on_c, 0, 71, 57
2, 165600, Note_on_c, 0, 76, 57
2, 165960, Note_on_c, 0, 76, 0
2, 165960, Note_on_c, 0, 71, 0
2, 165960, Note_on_c, 0, 65, 57
2, 165960, Note_on_c, 0, 68, 57
2, 166080, Note_on_c, 0, 68, 0
2, 166080, Note_on_c, 0, 65, 0
2, 166080, Note_on_c, 0, 71, 57
2, 166080, Note_on_c, 0, 74, 57
2, 166440, Note_on_c, 0, 74, 0
2, 166440, Note_on_c, 0, 71, 0
2, 166440, Note_on_c, 0, 64, 57
2, 166440, Note_on_c, 0, 67, 57
2, 166560, Note_on_c, 0, 67, 0
2, 166560, Note_on_c, 0, 64, 0
2, 166560, Note_on_c, 0, 71, 57
2, 166560, Note_on_c, 0, 74, 57
2, 167040, Note_on_c, 0, 74, 0
2, 167040, Note_on_c, 0, 71, 0
2, 167040, Note_on_c, 0, 72, 57
2, 167280, Note_on_c, 0, 72, 0
2, 167520, Note_on_c, 0, 76, 57
2, 167520, Note_on_c, 0, 79, 57
2, 167880, Note_on_c, 0, 79, 0
2, 167880, Note_on_c, 0, 76, 0
2, 167880, Note_on_c, 0, 76, 57
2, 167880, Note_on_c, 0, 79, 57
2, 168000, Note_on_c, 0, 79, 0
2, 168000, Note_on_c, 0, 76, 0
2, 168000, Note_on_c, 0, 81, 57
2, 168000, Note_on_c, 0, 84, 57
2, 168159, Note_on_c, 0, 84, 0
2, 168159, Note_on_c, 0, 81, 0
2, 168159, Note_on_c, 0, 79, 57
2, 168159, Note_on_c, 0, 83, 57
2, 168320, Note_on_c, 0, 83, 0
2, 168320, Note_on_c, 0, 79, 0
2, 168320, Note_on_c, 0, 77, 57
2, 168320, Note_on_c, 0, 81, 57
2, 168480, Note_on_c, 0, 81, 0
2, 168480, Note_on_c, 0, 77, 0
2, 168480, Note_on_c, 0, 76, 57
2, 168480, Note_on_c, 0, 79, 57
2, 168840, Note_on_c, 0, 79, 0
2, 168840, Note_on_c, 0, 76, 0
2, 168840, Note_on_c, 0, 72, 57
2, 168840, Note_on_c, 0, 76, 57
2, 168960, Note_on_c, 0, 76, 0
2, 168960, Note_on_c, 0, 72, 0
2, 168960, Note_on_c, 0, 74, 57
2, 168960, Note_on_c, 0, 77, 57
2, 169320, Note_on_c, 0, 77, 0
2, 169320, Note_on_c, 0, 74, 0
2, 169320, Note_on_c, 0, 76, 57
2, 169320, Note_on_c, 0, 79, 57
2, 169440, Note_on_c, 0, 79, 0
2, 169440, Note_on_c, 0, 76, 0
2, 169440, Note_on_c, 0, 77, 57
2, 169440, Note_on_c, 0, 81, 57
2, 170760, Note_on_c, 0, 81, 0
2, 170760, Note_on_c, 0, 77, 0
2, 170760, Note_on_c, 0, 71, 57
2, 170760, Note_on_c, 0, 74, 57
2, 170880, Note_on_c, 0, 74, 0
2, 170880, Note_on_c, 0, 71, 0
2, 170880, Note_on_c, 0, 77, 57
2, 170880, Note_on_c, 0, 81, 57
2, 171240, Note_on_c, 0, 81, 0
2, 171240, Note_on_c, 0, 77, 0
2, 171240, Note_on_c, 0, 71, 57
2, 171240, Note_on_c, 0, 74, 57
2, 171360, Note_on_c, 0, 74, 0
2, 171360, Note_on_c, 0, 71, 0
2, 171360, Note_on_c, 0, 77, 57
2, 171360, Note_on_c, 0, 81, 57
2, 171720, Note_on_c, 0, 81, 0
2, 171720, Note_on_c, 0, 77, 0
2, 171720, Note_on_c, 0, 71, 57
2, 171720, Note_on_c, 0, 74, 57
2, 171840, Note_on_c, 0, 74, 0
2, 171840, Note_on_c, 0, 71, 0
2, 171840, Note_on_c, 0, 78, 57
2, 171840, Note_on_c, 0, 81, 57
2, 172200, Note_on_c, 0, 81, 0
2, 172200, Note_on_c, 0, 78, 0
2, 172200, Note_on_c, 0, 72, 57
2, 172200, Note_on_c, 0, 75, 57
2, 172320, Note_on_c, 0, 75, 0
2, 172320, Note_on_c, 0, 72, 0
2, 172320, Note_on_c, 0, 78, 57
2, 172320, Note_on_c, 0, 81, 57
2, 172800, Note_on_c, 0, 81, 0
2, 172800, Note_on_c, 0, 78, 0
2, 172800, Note_on_c, 0, 76, 57
2, 172800, Note_on_c, 0, 79, 57
2, 173280, Note_on_c, 0, 79, 0
2, 173280, Note_on_c, 0, 76, 0
2, 173280, Note_on_c, 0, 72, 57
2, 173280, Note_on_c, 0, 76, 57
2, 173640, Note_on_c, 0, 76, 0
2, 173640, Note_on_c, 0, 72, 0
2, 173640, Note_on_c, 0, 72, 57
2, 173640, Note_on_c, 0, 76, 57
2, 173760, Note_on_c, 0, 76, 0
2, 173760, Note_on_c, 0, 72, 0
2, 173760, Note_on_c, 0, 77, 57
2, 173760, Note_on_c, 0, 81, 57
2, 173919, Note_on_c, 0, 81, 0
2, 173919, Note_on_c, 0, 77, 0
2, 173919, Note_on_c, 0, 76, 57
2, 173919, Note_on_c, 0, 79, 57
2, 174080, Note_on_c, 0, 79, 0
2, 174080, Note_on_c, 0, 76, 0
2, 174080, Note_on_c, 0, 74, 57
2, 174080, Note_on_c, 0, 77, 57
2, 174240, Note_on_c, 0, 77, 0
2, 174240, Note_on_c, 0, 74, 0
2, 174240, Note_on_c, 0, 72, 57
2, 174240, Note_on_c, 0, 76, 57
2, 174600, Note_on_c, 0, 76, 0
2, 174600, Note_on_c, 0, 72, 0
2, 174600, Note_on_c, 0, 69, 57
2, 174600, Note_on_c, 0, 72, 57
2, 174720, Note_on_c, 0, 72, 0
2, 174720, Note_on_c, 0, 69, 0
2, 174720, Note_on_c, 0, 71, 57
2, 174720, Note_on_c, 0, 74, 57
2, 175080, Note_on_c, 0, 74, 0
2, 175080, Note_on_c, 0, 71, 0
2, 175080, Note_on_c, 0, 72, 57
2, 175080, Note_on_c, 0, 76, 57
2, 175200, Note_on_c, 0, 76, 0
2, 175200, Note_on_c, 0, 72, 0
2, 175200, Note_on_c, 0, 74, 57
2, 175200, Note_on_c, 0, 77, 57
2, 176520, Note_on_c, 0, 77, 0
2, 176520, Note_on_c, 0, 74, 0
2, 176520, Note_on_c, 0, 65, 57
2, 176520, Note_on_c, 0, 68, 57
2, 176640, Note_on_c, 0, 68, 0
2, 176640, Note_on_c, 0, 65, 0
2, 176640, Note_on_c, 0, 71, 57
2, 176640, Note_on_c, 0, 76, 57
2, 177000, Note_on_c, 0, 76, 0
2, 177000, Note_on_c, 0, 71, 0
2, 177000, Note_on_c, 0, 65, 57
2, 177000, Note_on_c, 0, 68, 57
2, 177120, Note_on_c, 0, 68, 0
2, 177120, Note_on_c, 0, 65, 0
2, 177120, Note_on_c, 0, 71, 57
2, 177120, Note_on_c, 0, 76, 57
2, 177480, Note_on_c, 0, 76, 0
2, 177480, Note_on_c, 0, 71, 0
2, 177480, Note_on_c, 0, 65, 57
2, 177480, Note_on_c, 0, 68, 57
2, 177600, Note_on_c, 0, 68, 0
2, 177600, Note_on_c, 0, 65, 0
2, 177600, Note_on_c, 0, 71, 57
2, 177600, Note_on_c, 0, 74, 57
2, 177960, Note_on_c, 0, 74, 0
2, 177960, Note_on_c, 0, 71, 0
2, 177960, Note_on_c, 0, 67, 57
2, 178080, Note_on_c, 0, 67, 0
2, 178080, Note_on_c, 0, 71, 57
2, 178080, Note_on_c, 0, 74, 57
2, 178560, Note_on_c, 0, 74, 0
2, 178560, Note_on_c, 0, 71, 0
2, 178560, Note_on_c, 0, 72, 57
2, 178800, Note_on_c, 0, 72, 0
2, 179040, Note_on_c, 0, 62, 83
2, 179520, Note_on_c, 0, 62, 0
2, 179520, Note_on_c, 0, 67, 83
2, 180000, Note_on_c, 0, 67, 0
2, 180000, Note_on_c, 0, 69, 83
2, 180480, Note_on_c, 0, 69, 0
2, 180480, Note_on_c, 0, 71, 83
2, 180960, Note_on_c, 0, 71, 0
2, 180960, Note_on_c, 0, 74, 83
2, 181200, Note_on_c, 0, 74, 0
2, 181200, Note_on_c, 0, 76, 83
2, 181440, Note_on_c, 0, 76, 0
2, 181440, Note_on_c, 0, 78, 83
2, 181920, Note_on_c, 0, 78, 0
2, 181920, Note_on_c, 0, 62, 83
2, 182400, Note_on_c, 0, 62, 0
2, 182400, Note_on_c, 0, 67, 83
2, 182880, Note_on_c, 0, 67, 0
2, 182880, Note_on_c, 0, 69, 83
2, 183360, Note_on_c, 0, 69, 0
2, 183360, Note_on_c, 0, 71, 83
2, 183840, Note_on_c, 0, 71, 0
2, 183840, Note_on_c, 0, 78, 83
2, 184080, Note_on_c, 0, 78, 0
2, 184080, Note_on_c, 0, 76, 83
2, 184320, Note_on_c, 0, 76, 0
2, 184320, Note_on_c, 0, 74, 83
2, 184800, Note_on_c, 0, 74, 0
2, 184800, Note_on_c, 0, 62, 83
2, 185280, Note_on_c, 0, 62, 0
2, 185280, Note_on_c, 0, 67, 83
2, 185760, Note_on_c, 0, 67, 0
2, 185760, Note_on_c, 0, 69, 83
2, 186240, Note_on_c, 0, 69, 0
2, 186240, Note_on_c, 0, 71, 83
2, 186720, Note_on_c, 0, 71, 0
2, 186720, Note_on_c, 0, 74, 83
2, 186960, Note_on_c, 0, 74, 0
2, 186960, Note_on_c, 0, 76, 83
2, 187200, Note_on_c, 0, 76, 0
2, 187200, Note_on_c, 0, 78, 83
2, 187680, Note_on_c, 0, 78, 0
2, 187680, Note_on_c, 0, 62, 83
2, 188160, Note_on_c, 0, 62, 0
2, 188160, Note_on_c, 0, 67, 83
2, 188640, Note_on_c, 0, 67, 0
2, 188640, Note_on_c, 0, 69, 83
2, 189120, Note_on_c, 0, 69, 0
2, 189120, Note_on_c, 0, 71, 83
2, 189360, Note_on_c, 0, 71, 0
2, 189360, Note_on_c, 0, 74, 83
2, 189600, Note_on_c, 0, 74, 0
2, 189600, Note_on_c, 0, 69, 83
2, 190080, Note_on_c, 0, 69, 0
2, 190080, Note_on_c, 0, 67, 83
2, 190560, Note_on_c, 0, 67, 0
2, 190560, Note_on_c, 0, 62, 83
2, 191040, Note_on_c, 0, 62, 0
2, 191040, Note_on_c, 0, 67, 83
2, 191520, Note_on_c, 0, 67, 0
2, 191520, Note_on_c, 0, 69, 83
2, 192000, Note_on_c, 0, 69, 0
2, 192000, Note_on_c, 0, 71, 83
2, 192480, Note_on_c, 0, 71, 0
2, 192480, Note_on_c, 0, 74, 83
2, 192720, Note_on_c, 0, 74, 0
2, 192720, Note_on_c, 0, 76, 83
2, 192960, Note_on_c, 0, 76, 0
2, 192960, Note_on_c, 0, 78, 83
2, 193440, Note_on_c, 0, 78, 0
2, 193440, Note_on_c, 0, 62, 83
2, 193920, Note_on_c, 0, 62, 0
2, 193920, Note_on_c, 0, 67, 83
2, 194400, Note_on_c, 0, 67, 0
2, 194400, Note_on_c, 0, 69, 83
2, 194880, Note_on_c, 0, 69, 0
2, 194880, Note_on_c, 0, 71, 83
2, 195360, Note_on_c, 0, 71, 0
2, 195360, Note_on_c, 0, 78, 83
2, 195600, Note_on_c, 0, 78, 0
2, 195600, Note_on_c, 0, 76, 83
2, 195840, Note_on_c, 0, 76, 0
2, 195840, Note_on_c, 0, 74, 83
2, 196320, Note_on_c, 0, 74, 0
2, 196320, Note_on_c, 0, 62, 83
2, 196800, Note_on_c, 0, 62, 0
2, 196800, Note_on_c, 0, 67, 83
2, 197280, Note_on_c, 0, 67, 0
2, 197280, Note_on_c, 0, 69, 83
2, 197760, Note_on_c, 0, 69, 0
2, 197760, Note_on_c, 0, 71, 83
2, 198240, Note_on_c, 0, 71, 0
2, 198240, Note_on_c, 0, 74, 83
2, 198480, Note_on_c, 0, 74, 0
2, 198480, Note_on_c, 0, 76, 83
2, 198720, Note_on_c, 0, 76, 0
2, 198720, Note_on_c, 0, 78, 83
2, 199200, Note_on_c, 0, 78, 0
2, 199200, Note_on_c, 0, 62, 83
2, 199680, Note_on_c, 0, 62, 0
2, 199680, Note_on_c, 0, 67, 83
2, 200160, Note_on_c, 0, 67, 0
2, 200160, Note_on_c, 0, 69, 83
2, 200640, Note_on_c, 0, 69, 0
2, 200640, Note_on_c, 0, 71, 83
2, 200880, Note_on_c, 0, 71, 0
2, 200880, Note_on_c, 0, 74, 83
2, 201120, Note_on_c, 0, 74, 0
2, 201120, Note_on_c, 0, 69, 83
2, 201600, Note_on_c, 0, 69, 0
2, 201600, Note_on_c, 0, 67, 83
2, 202080, Note_on_c, 0, 67, 0
2, 202080, Note_on_c, 0, 57, 83
2, 202080, Note_on_c, 0, 69, 83
2, 202560, Note_on_c, 0, 69, 0
2, 202560, Note_on_c, 0, 57, 0
2, 202560, Note_on_c, 0, 62, 83
2, 202560, Note_on_c, 0, 74, 83
2, 203040, Note_on_c, 0, 74, 0
2, 203040, Note_on_c, 0, 62, 0
2, 203040, Note_on_c, 0, 64, 83
2, 203040, Note_on_c, 0, 76, 83
2, 203520, Note_on_c, 0, 76, 0
2, 203520, Note_on_c, 0, 64, 0
2, 203520, Note_on_c, 0, 66, 83
2, 203520, Note_on_c, 0, 78, 83
2, 204000, Note_on_c, 0, 78, 0
2, 204000, Note_on_c, 0, 66, 0
2, 204000, Note_on_c, 0, 69, 83
2, 204000, Note_on_c, 0, 81, 83
2, 204240, Note_on_c, 0, 81, 0
2, 204240, Note_on_c, 0, 69, 0
2, 204240, Note_on_c, 0, 71, 83
2, 204240, Note_on_c, 0, 83, 83
2, 204480, Note_on_c, 0, 83, 0
2, 204480, Note_on_c, 0, 71, 0
2, 204480, Note_on_c, 0, 73, 83
2, 204480, Note_on_c, 0, 85, 83
2, 204960, Note_on_c, 0, 85, 0
2, 204960, Note_on_c, 0, 73, 0
2, 204960, Note_on_c, 0, 57, 83
2, 204960, Note_on_c, 0, 69, 83
2, 205440, Note_on_c, 0, 69, 0
2, 205440, Note_on_c, 0, 57, 0
2, 205440, Note_on_c, 0, 62, 83
2, 205440, Note_on_c, 0, 74, 83
2, 205920, Note_on_c, 0, 74, 0
2, 205920, Note_on_c, 0, 62, 0
2, 205920, Note_on_c, 0, 64, 83
2, 205920, Note_on_c, 0, 76, 83
2, 206400, Note_on_c, 0, 76, 0
2, 206400, Note_on_c, 0, 64, 0
2, 206400, Note_on_c, 0, 66, 83
2, 206400, Note_on_c, 0, 78, 83
2, 206880, Note_on_c, 0, 78, 0
2, 206880, Note_on_c, 0, 66, 0
2, 206880, Note_on_c, 0, 85, 83
2, 207120, Note_on_c, 0, 85, 0
2, 207120, Note_on_c, 0, 83, 83
2, 207360, Note_on_c, 0, 83, 0
2, 207360, Note_on_c, 0, 81, 83
2, 207840, Note_on_c, 0, 81, 0
2, 207840, Note_on_c, 0, 57, 83
2, 207840, Note_on_c, 0, 69, 83
2, 208320, Note_on_c, 0, 69, 0
2, 208320, Note_on_c, 0, 57, 0
2, 208320, Note_on_c, 0, 62, 83
2, 208320, Note_on_c, 0, 74, 83
2, 208800, Note_on_c, 0, 74, 0
2, 208800, Note_on_c, 0, 62, 0
2, 208800, Note_on_c, 0, 64, 83
2, 208800, Note_on_c, 0, 76, 83
2, 209280, Note_on_c, 0, 76, 0
2, 209280, Note_on_c, 0, 64, 0
2, 209280, Note_on_c, 0, 66, 83
2, 209280, Note_on_c, 0, 78, 83
2, 209760, Note_on_c, 0, 78, 0
2, 209760, Note_on_c, 0, 66, 0
2, 209760, Note_on_c, 0, 69, 83
2, 209760, Note_on_c, 0, 81, 83
2, 210000, Note_on_c, 0, 81, 0
2, 210000, Note_on_c, 0, 69, 0
2, 210000, Note_on_c, 0, 71, 83
2, 210000, Note_on_c, 0, 83, 83
2, 210240, Note_on_c, 0, 83, 0
2, 210240, Note_on_c, 0, 71, 0
2, 210240, Note_on_c, 0, 73, 83
2, 210240, Note_on_c, 0, 85, 83
2, 210720, Note_on_c, 0, 85, 0
2, 210720, Note_on_c, 0, 73, 0
2, 210720, Note_on_c, 0, 57, 83
2, 210720, Note_on_c, 0, 69, 83
2, 211200, Note_on_c, 0, 69, 0
2, 211200, Note_on_c, 0, 57, 0
2, 211200, Note_on_c, 0, 62, 83
2, 211200, Note_on_c, 0, 74, 83
2, 211680, Note_on_c, 0, 74, 0
2, 211680, Note_on_c, 0, 62, 0
2, 211680, Note_on_c, 0, 64, 83
2, 211680, Note_on_c, 0, 76, 83
2, 212160, Note_on_c, 0, 76, 0
2, 212160, Note_on_c, 0, 64, 0
2, 212160, Note_on_c, 0, 66, 83
2, 212160, Note_on_c, 0, 78, 83
2, 212400, Note_on_c, 0, 78, 0
2, 212400, Note_on_c, 0, 66, 0
2, 212400, Note_on_c, 0, 69, 83
2, 212400, Note_on_c, 0, 81, 83
2, 212640, Note_on_c, 0, 81, 0
2, 212640, Note_on_c, 0, 69, 0
2, 212640, Note_on_c, 0, 76, 83
2, 213120, Note_on_c, 0, 76, 0
2, 213120, Note_on_c, 0, 74, 83
2, 213600, Note_on_c, 0, 74, 0
2, 213600, Note_on_c, 0, 67, 57
2, 213600, Note_on_c, 0, 73, 57
2, 213600, Note_on_c, 0, 76, 57
2, 213840, Note_on_c, 0, 76, 0
2, 213840, Note_on_c, 0, 73, 0
2, 213840, Note_on_c, 0, 67, 0
2, 213840, Note_on_c, 0, 78, 57
2, 214080, Note_on_c, 0, 78, 0
2, 214080, Note_on_c, 0, 66, 57
2, 214080, Note_on_c, 0, 69, 57
2, 214080, Note_on_c, 0, 74, 57
2, 214560, Note_on_c, 0, 74, 0
2, 214560, Note_on_c, 0, 69, 0
2, 214560, Note_on_c, 0, 66, 0
2, 214560, Note_on_c, 0, 67, 57
2, 214560, Note_on_c, 0, 73, 57
2, 214560, Note_on_c, 0, 76, 57
2, 214800, Note_on_c, 0, 76, 0
2, 214800, Note_on_c, 0, 73, 0
2, 214800, Note_on_c, 0, 67, 0
2, 214800, Note_on_c, 0, 78, 57
2, 215040, Note_on_c, 0, 78, 0
2, 215040, Note_on_c, 0, 66, 57
2, 215040, Note_on_c, 0, 69, 57
2, 215040, Note_on_c, 0, 74, 57
2, 215520, Note_on_c, 0, 74, 0
2, 215520, Note_on_c, 0, 69, 0
2, 215520, Note_on_c, 0, 66, 0
2, 215520, Note_on_c, 0, 67, 57
2, 215520, Note_on_c, 0, 73, 57
2, 215520, Note_on_c, 0, 76, 57
2, 215760, Note_on_c, 0, 76, 0
2, 215760, Note_on_c, 0, 73, 0
2, 215760, Note_on_c, 0, 67, 0
2, 215760, Note_on_c, 0, 78, 57
2, 216000, Note_on_c, 0, 78, 0
2, 216000, Note_on_c, 0, 66, 57
2, 216000, Note_on_c, 0, 69, 57
2, 216000, Note_on_c, 0, 74, 57
2, 216480, Note_on_c, 0, 74, 0
2, 216480, Note_on_c, 0, 69, 0
2, 216480, Note_on_c, 0, 66, 0
2, 216480, Note_on_c, 0, 79, 70
2, 216720, Note_on_c, 0, 79, 0
2, 216720, Note_on_c, 0, 84, 70
2, 216960, Note_on_c, 0, 84, 0
2, 216960, Note_on_c, 0, 78, 70
2, 217440, Note_on_c, 0, 78, 0
2, 217440, Note_on_c, 0, 79, 70
2, 217680, Note_on_c, 0, 79, 0
2, 217680, Note_on_c, 0, 84, 70
2, 217920, Note_on_c, 0, 84, 0
2, 217920, Note_on_c, 0, 78, 70
2, 218400, Note_on_c, 0, 78, 0
2, 218400, Note_on_c, 0, 79, 70
2, 218640, Note_on_c, 0, 79, 0
2, 218640, Note_on_c, 0, 84, 70
2, 218880, Note_on_c, 0, 84, 0
2, 218880, Note_on_c, 0, 78, 70
2, 219360, Note_on_c, 0, 78, 0
2, 219360, Note_on_c, 0, 79, 70
2, 219360, Note_on_c, 0, 81, 70
2, 219600, Note_on_c, 0, 81, 0
2, 219600, Note_on_c, 0, 79, 0
2, 219600, Note_on_c, 0, 88, 70
2, 219840, Note_on_c, 0, 88, 0
2, 219840, Note_on_c, 0, 78, 70
2, 219840, Note_on_c, 0, 81, 70
2, 220320, Note_on_c, 0, 81, 0
2, 220320, Note_on_c, 0, 78, 0
2, 220320, Note_on_c, 0, 79, 70
2, 220320, Note_on_c, 0, 81, 70
2, 220560, Note_on_c, 0, 81, 0
2, 220560, Note_on_c, 0, 79, 0
2, 220560, Note_on_c, 0, 88, 70
2, 220800, Note_on_c, 0, 88, 0
2, 220800, Note_on_c, 0, 78, 70
2, 220800, Note_on_c, 0, 81, 70
2, 221280, Note_on_c, 0, 81, 0
2, 221280, Note_on_c, 0, 78, 0
2, 221280, Note_on_c, 0, 79, 70
2, 221280, Note_on_c, 0, 81, 70
2, 221520, Note_on_c, 0, 81, 0
2, 221520, Note_on_c, 0, 79, 0
2, 221520, Note_on_c, 0, 88, 70
2, 221760, Note_on_c, 0, 88, 0
2, 221760, Note_on_c, 0, 78, 70
2, 221760, Note_on_c, 0, 81, 70
2, 222240, Note_on_c, 0, 81, 0
2, 222240, Note_on_c, 0, 78, 0
2, 222240, Control_c, 0, 64, 127
2, 222240, Note_on_c, 0, 62, 83
2, 222240, Note_on_c, 0, 74, 83
2, 222480, Note_on_c, 0, 74, 0
2, 222480, Note_on_c, 0, 62, 0
2, 222480, Note_on_c, 0, 61, 83
2, 222480, Note_on_c, 0, 73, 83
2, 222720, Note_on_c, 0, 73, 0
2, 222720, Note_on_c, 0, 61, 0
2, 222720, Note_on_c, 0, 62, 83
2, 222720, Note_on_c, 0, 74, 83
2, 222960, Note_on_c, 0, 74, 0
2, 222960, Note_on_c, 0, 62, 0
2, 222960, Note_on_c, 0, 64, 83
2, 222960, Note_on_c, 0, 76, 83
2, 223200, Note_on_c, 0, 76, 0
2, 223200, Note_on_c, 0, 64, 0
2, 223200, Note_on_c, 0, 66, 83
2, 223200, Note_on_c, 0, 78, 83
2, 223440, Note_on_c, 0, 78, 0
2, 223440, Note_on_c, 0, 66, 0
2, 223440, Control_c, 0, 64, 0
2, 223440, Note_on_c, 0, 67, 83
2, 223440, Note_on_c, 0, 79, 83
2, 223680, Note_on_c, 0, 79, 0
2, 223680, Note_on_c, 0, 67, 0
2, 223680, Control_c, 0, 64, 127
2, 223680, Note_on_c, 0, 69, 83
2, 223680, Note_on_c, 0, 81, 83
2, 223920, Note_on_c, 0, 81, 0
2, 223920, Note_on_c, 0, 69, 0
2, 223920, Note_on_c, 0, 68, 83
2, 223920, Note_on_c, 0, 80, 83
2, 224160, Note_on_c, 0, 80, 0
2, 224160, Note_on_c, 0, 68, 0
2, 224160, Note_on_c, 0, 69, 83
2, 224160, Note_on_c, 0, 81, 83
2, 224400, Note_on_c, 0, 81, 0
2, 224400, Note_on_c, 0, 69, 0
2, 224400, Note_on_c, 0, 71, 96
2, 224400, Note_on_c, 0, 83, 96
2, 224640, Note_on_c, 0, 83, 0
2, 224640, Note_on_c, 0, 71, 0
2, 224640, Note_on_c, 0, 72, 96
2, 224640, Note_on_c, 0, 78, 96
2, 224640, Note_on_c, 0, 81, 96
2, 224640, Note_on_c, 0, 84, 96
2, 224880, Note_on_c, 0, 84, 0
2, 224880, Note_on_c, 0, 72, 0
2, 224880, Note_on_c, 0, 78, 0
2, 224880, Note_on_c, 0, 81, 0
2, 224880, Control_c, 0, 64, 0
2, 224880, Note_on_c, 0, 73, 96
2, 224880, Note_on_c, 0, 85, 96
2, 225120, Note_on_c, 0, 85, 0
2, 225120, Note_on_c, 0, 73, 0
2, 225120, Note_on_c, 0, 74, 96
2, 225120, Note_on_c, 0, 79, 96
2, 225120, Note_on_c, 0, 83, 96
2, 225120, Note_on_c, 0, 86, 96
2, 225480, Note_on_c, 0, 86, 0
2, 225480, Note_on_c, 0, 74, 0
2, 225480, Note_on_c, 0, 79, 0
2, 225480, Note_on_c, 0, 83, 0
2, 225480, Note_on_c, 0, 74, 96
2, 225480, Note_on_c, 0, 79, 96
2, 225480, Note_on_c, 0, 83, 96
2, 225480, Note_on_c, 0, 86, 96
2, 225600, Note_on_c, 0, 86, 0
2, 225600, Note_on_c, 0, 74, 0
2, 225600, Note_on_c, 0, 79, 0
2, 225600, Note_on_c, 0, 83, 0
2, 225600, Note_on_c, 0, 73, 96
2, 225600, Note_on_c, 0, 79, 96
2, 225600, Note_on_c, 0, 83, 96
2, 225600, Note_on_c, 0, 85, 96
2, 226560, Note_on_c, 0, 85, 0
2, 226560, Note_on_c, 0, 73, 0
2, 226560, Note_on_c, 0, 79, 0
2, 226560, Note_on_c, 0, 83, 0
2, 226560, Note_on_c, 0, 76, 96
2, 226560, Note_on_c, 0, 79, 96
2, 226560, Note_on_c, 0, 83, 96
2, 226560, Note_on_c, 0, 88, 96
2, 227040, Note_on_c, 0, 88, 0
2, 227040, Note_on_c, 0, 76, 0
2, 227040, Note_on_c, 0, 79, 0
2, 227040, Note_on_c, 0, 83, 0
2, 227040, Note_on_c, 0, 74, 96
2, 227040, Note_on_c, 0, 79, 96
2, 227040, Note_on_c, 0, 83, 96
2, 227040, Note_on_c, 0, 86, 96
2, 228000, Note_on_c, 0, 86, 0
2, 228000, Note_on_c, 0, 74, 0
2, 228000, Note_on_c, 0, 79, 0
2, 228000, Note_on_c, 0, 83, 0
2, 228000, Note_on_c, 0, 71, 96
2, 228000, Note_on_c, 0, 74, 96
2, 228000, Note_on_c, 0, 79, 96
2, 228000, Note_on_c, 0, 83, 96
2, 228360, Note_on_c, 0, 83, 0
2, 228360, Note_on_c, 0, 71, 0
2, 228360, Note_on_c, 0, 74, 0
2, 228360, Note_on_c, 0, 79, 0
2, 228360, Note_on_c, 0, 71, 96
2, 228360, Note_on_c, 0, 74, 96
2, 228360, Note_on_c, 0, 79, 96
2, 228360, Note_on_c, 0, 83, 96
2, 228480, Note_on_c, 0, 83, 0
2, 228480, Note_on_c, 0, 71, 0
2, 228480, Note_on_c, 0, 74, 0
2, 228480, Note_on_c, 0, 79, 0
2, 228480, Note_on_c, 0, 70, 96
2, 228480, Note_on_c, 0, 74, 96
2, 228480, Note_on_c, 0, 79, 96
2, 228480, Note_on_c, 0, 82, 96
2, 229440, Note_on_c, 0, 82, 0
2, 229440, Note_on_c, 0, 70, 0
2, 229440, Note_on_c, 0, 74, 0
2, 229440, Note_on_c, 0, 79, 0
2, 229440, Note_on_c, 0, 72, 96
2, 229440, Note_on_c, 0, 74, 96
2, 229440, Note_on_c, 0, 79, 96
2, 229440, Note_on_c, 0, 84, 96
2, 229920, Note_on_c, 0, 84, 0
2, 229920, Note_on_c, 0, 72, 0
2, 229920, Note_on_c, 0, 74, 0
2, 229920, Note_on_c, 0, 79, 0
2, 229920, Note_on_c, 0, 71, 96
2, 229920, Note_on_c, 0, 74, 96
2, 229920, Note_on_c, 0, 79, 96
2, 229920, Note_on_c, 0, 83, 96
2, 230880, Note_on_c, 0, 83, 0
2, 230880, Note_on_c, 0, 71, 0
2, 230880, Note_on_c, 0, 74, 0
2, 230880, Note_on_c, 0, 79, 0
2, 230880, Note_on_c, 0, 76, 96
2, 231240, Note_on_c, 0, 76, 0
2, 231240, Note_on_c, 0, 78, 96
2, 231360, Note_on_c, 0, 78, 0
2, 231360, Note_on_c, 0, 81, 96
2, 231720, Note_on_c, 0, 81, 0
2, 231720, Note_on_c, 0, 78, 96
2, 231840, Note_on_c, 0, 78, 0
2, 231840, Note_on_c, 0, 74, 96
2, 232320, Note_on_c, 0, 74, 0
2, 232320, Note_on_c, 0, 76, 96
2, 232680, Note_on_c, 0, 76, 0
2, 232680, Note_on_c, 0, 78, 96
2, 232800, Note_on_c, 0, 78, 0
2, 232800, Note_on_c, 0, 83, 96
2, 232959, Note_on_c, 0, 83, 0
2, 232959, Note_on_c, 0, 81, 96
2, 233120, Note_on_c, 0, 81, 0
2, 233120, Note_on_c, 0, 78, 96
2, 233280, Note_on_c, 0, 78, 0
2, 233280, Note_on_c, 0, 74, 96
2, 233640, Note_on_c, 0, 74, 0
2, 233640, Note_on_c, 0, 74, 96
2, 233760, Note_on_c, 0, 74, 0
2, 233760, Note_on_c, 0, 64, 96
2, 233760, Note_on_c, 0, 72, 96
2, 233760, Note_on_c, 0, 76, 96
2, 234120, Note_on_c, 0, 76, 0
2, 234120, Note_on_c, 0, 72, 0
2, 234120, Note_on_c, 0, 64, 0
2, 234120, Note_on_c, 0, 66, 96
2, 234120, Note_on_c, 0, 78, 96
2, 234240, Note_on_c, 0, 78, 0
2, 234240, Note_on_c, 0, 66, 0
2, 234240, Note_on_c, 0, 67, 96
2, 234240, Note_on_c, 0, 71, 96
2, 234240, Note_on_c, 0, 79, 96
2, 234600, Note_on_c, 0, 79, 0
2, 234600, Note_on_c, 0, 71, 0
2, 234600, Note_on_c, 0, 67, 0
2, 234600, Note_on_c, 0, 69, 96
2, 234600, Note_on_c, 0, 81, 96
2, 234720, Note_on_c, 0, 81, 0
2, 234720, Note_on_c, 0, 69, 0
2, 234720, Note_on_c, 0, 71, 96
2, 234720, Note_on_c, 0, 74, 96
2, 234720, Note_on_c, 0, 83, 96
2, 235080, Note_on_c, 0, 83, 0
2, 235080, Note_on_c, 0, 74, 0
2, 235080, Note_on_c, 0, 71, 0
2, 235080, Note_on_c, 0, 73, 96
2, 235080, Note_on_c, 0, 85, 96
2, 235200, Note_on_c, 0, 85, 0
2, 235200, Note_on_c, 0, 73, 0
2, 235200, Note_on_c, 0, 74, 96
2, 235200, Note_on_c, 0, 83, 96
2, 235200, Note_on_c, 0, 86, 96
2, 235560, Note_on_c, 0, 86, 0
2, 235560, Note_on_c, 0, 83, 0
2, 235560, Note_on_c, 0, 74, 0
2, 235560, Note_on_c, 0, 76, 96
2, 235560, Note_on_c, 0, 88, 96
2, 235680, Note_on_c, 0, 88, 0
2, 235680, Note_on_c, 0, 76, 0
2, 235680, Note_on_c, 0, 78, 96
2, 235680, Note_on_c, 0, 90, 96
2, 236400, Note_on_c, 0, 90, 0
2, 236400, Note_on_c, 0, 78, 0
2, 236400, Note_on_c, 0, 83, 96
2, 236640, Note_on_c, 0, 83, 0
2, 236640, Note_on_c, 0, 74, 96
2, 236640, Note_on_c, 0, 79, 96
2, 236640, Note_on_c, 0, 83, 96
2, 236640, Note_on_c, 0, 86, 96
2, 237000, Note_on_c, 0, 86, 0
2, 237000, Note_on_c, 0, 74, 0
2, 237000, Note_on_c, 0, 79, 0
2, 237000, Note_on_c, 0, 83, 0
2, 237000, Note_on_c, 0, 74, 96
2, 237000, Note_on_c, 0, 79, 96
2, 237000, Note_on_c, 0, 83, 96
2, 237000, Note_on_c, 0, 86, 96
2, 237120, Note_on_c, 0, 86, 0
2, 237120, Note_on_c, 0, 74, 0
2, 237120, Note_on_c, 0, 79, 0
2, 237120, Note_on_c, 0, 83, 0
2, 237120, Note_on_c, 0, 73, 96
2, 237120, Note_on_c, 0, 79, 96
2, 237120, Note_on_c, 0, 83, 96
2, 237120, Note_on_c, 0, 85, 96
2, 238080, Note_on_c, 0, 85, 0
2, 238080, Note_on_c, 0, 73, 0
2, 238080, Note_on_c, 0, 79, 0
2, 238080, Note_on_c, 0, 83, 0
2, 238080, Note_on_c, 0, 76, 96
2, 238080, Note_on_c, 0, 79, 96
2, 238080, Note_on_c, 0, 83, 96
2, 238080, Note_on_c, 0, 88, 96
2, 238560, Note_on_c, 0, 88, 0
2, 238560, Note_on_c, 0, 76, 0
2, 238560, Note_on_c, 0, 79, 0
2, 238560, Note_on_c, 0, 83, 0
2, 238560, Note_on_c, 0, 74, 96
2, 238560, Note_on_c, 0, 79, 96
2, 238560, Note_on_c, 0, 83, 96
2, 238560, Note_on_c, 0, 86, 96
2, 239520, Note_on_c, 0, 86, 0
2, 239520, Note_on_c, 0, 74, 0
2, 239520, Note_on_c, 0, 79, 0
2, 239520, Note_on_c, 0, 83, 0
2, 239520, Note_on_c, 0, 71, 96
2, 239520, Note_on_c, 0, 74, 96
2, 239520, Note_on_c, 0, 79, 96
2, 239520, Note_on_c, 0, 83, 96
2, 239880, Note_on_c, 0, 83, 0
2, 239880, Note_on_c, 0, 71, 0
2, 239880, Note_on_c, 0, 74, 0
2, 239880, Note_on_c, 0, 79, 0
2, 239880, Note_on_c, 0, 71, 96
2, 239880, Note_on_c, 0, 74, 96
2, 239880, Note_on_c, 0, 79, 96
2, 239880, Note_on_c, 0, 83, 96
2, 240000, Note_on_c, 0, 83, 0
2, 240000, Note_on_c, 0, 71, 0
2, 240000, Note_on_c, 0, 74, 0
2, 240000, Note_on_c, 0, 79, 0
2, 240000, Note_on_c, 0, 70, 96
2, 240000, Note_on_c, 0, 74, 96
2, 240000, Note_on_c, 0, 79, 96
2, 240000, Note_on_c, 0, 82, 96
2, 240960, Note_on_c, 0, 82, 0
2, 240960, Note_on_c, 0, 70, 0
2, 240960, Note_on_c, 0, 74, 0
2, 240960, Note_on_c, 0, 79, 0
2, 240960, Note_on_c, 0, 72, 96
2, 240960, Note_on_c, 0, 74, 96
2, 240960, Note_on_c, 0, 79, 96
2, 240960, Note_on_c, 0, 84, 96
2, 241440, Note_on_c, 0, 84, 0
2, 241440, Note_on_c, 0, 72, 0
2, 241440, Note_on_c, 0, 74, 0
2, 241440, Note_on_c, 0, 79, 0
2, 241440, Note_on_c, 0, 71, 96
2, 241440, Note_on_c, 0, 74, 96
2, 241440, Note_on_c, 0, 79, 96
2, 241440, Note_on_c, 0, 83, 96
2, 242400, Note_on_c, 0, 83, 0
2, 242400, Note_on_c, 0, 71, 0
2, 242400, Note_on_c, 0, 74, 0
2, 242400, Note_on_c, 0, 79, 0
2, 242400, Note_on_c, 0, 76, 57
2, 242760, Note_on_c, 0, 76, 0
2, 242760, Note_on_c, 0, 78, 57
2, 242880, Note_on_c, 0, 78, 0
2, 242880, Note_on_c, 0, 81, 57
2, 243240, Note_on_c, 0, 81, 0
2, 243240, Note_on_c, 0, 78, 57
2, 243360, Note_on_c, 0, 78, 0
2, 243360, Note_on_c, 0, 74, 57
2, 243840, Note_on_c, 0, 74, 0
2, 243840, Note_on_c, 0, 76, 57
2, 244200, Note_on_c, 0, 76, 0
2, 244200, Note_on_c, 0, 78, 57
2, 244320, Note_on_c, 0, 78, 0
2, 244320, Note_on_c, 0, 83, 57
2, 244479, Note_on_c, 0, 83, 0
2, 244479, Note_on_c, 0, 81, 57
2, 244640, Note_on_c, 0, 81, 0
2, 244640, Note_on_c, 0, 78, 57
2, 244800, Note_on_c, 0, 78, 0
2, 244800, Note_on_c, 0, 74, 57
2, 245160, Note_on_c, 0, 74, 0
2, 245160, Note_on_c, 0, 74, 57
2, 245280, Note_on_c, 0, 74, 0
2, 245280, Note_on_c, 0, 67, 83
2, 245280, Note_on_c, 0, 73, 83
2, 245280, Note_on_c, 0, 79, 83
2, 245640, Note_on_c, 0, 79, 0
2, 245640, Note_on_c, 0, 73, 0
2, 245640, Note_on_c, 0, 67, 0
2, 245640, Note_on_c, 0, 69, 83
2, 245640, Note_on_c, 0, 81, 83
2, 245760, Note_on_c, 0, 81, 0
2, 245760, Note_on_c, 0, 69, 0
2, 245760, Note_on_c, 0, 71, 83
2, 245760, Note_on_c, 0, 79, 83
2, 245760, Note_on_c, 0, 83, 83
2, 246120, Note_on_c, 0, 83, 0
2, 246120, Note_on_c, 0, 79, 0
2, 246120, Note_on_c, 0, 71, 0
2, 246120, Note_on_c, 0, 73, 83
2, 246120, Note_on_c, 0, 85, 83
2, 246240, Note_on_c, 0, 85, 0
2, 246240, Note_on_c, 0, 73, 0
2, 246240, Note_on_c, 0, 74, 83
2, 246240, Note_on_c, 0, 83, 83
2, 246240, Note_on_c, 0, 86, 83
2, 246600, Note_on_c, 0, 86, 0
2, 246600, Note_on_c, 0, 83, 0
2, 246600, Note_on_c, 0, 74, 0
2, 246600, Note_on_c, 0, 76, 83
2, 246600, Note_on_c, 0, 88, 83
2, 246720, Note_on_c, 0, 88, 0
2, 246720, Note_on_c, 0, 76, 0
2, 246720, Note_on_c, 0, 78, 83
2, 246720, Note_on_c, 0, 81, 83
2, 246720, Note_on_c, 0, 90, 83
2, 247080, Note_on_c, 0, 90, 0
2, 247080, Note_on_c, 0, 81, 0
2, 247080, Note_on_c, 0, 78, 0
2, 247080, Note_on_c, 0, 79, 83
2, 247080, Note_on_c, 0, 91, 83
2, 247200, Note_on_c, 0, 91, 0
2, 247200, Note_on_c, 0, 79, 0
2, 247200, Note_on_c, 0, 81, 83
2, 247200, Note_on_c, 0, 85, 83
2, 247200, Note_on_c, 0, 91, 83
2, 247200, Note_on_c, 0, 93, 83
2, 247680, Note_on_c, 0, 93, 0
2, 247680, Note_on_c, 0, 81, 0
2, 247680, Note_on_c, 0, 85, 0
2, 247680, Note_on_c, 0, 91, 0
2, 247680, Note_on_c, 0, 74, 83
2, 247680, Note_on_c, 0, 78, 83
2, 247680, Note_on_c, 0, 81, 83
2, 247680, Note_on_c, 0, 86, 83
2, 248160, Note_on_c, 0, 86, 0
2, 248160, Note_on_c, 0, 74, 0
2, 248160, Note_on_c, 0, 78, 0
2, 248160, Note_on_c, 0, 81, 0
2, 248160, Note_on_c, 0, 72, 96
2, 248160, Note_on_c, 0, 78, 96
2, 248160, Note_on_c, 0, 81, 96
2, 248160, Note_on_c, 0, 84, 96
2, 248520, Note_on_c, 0, 84, 0
2, 248520, Note_on_c, 0, 72, 0
2, 248520, Note_on_c, 0, 78, 0
2, 248520, Note_on_c, 0, 81, 0
2, 248520, Note_on_c, 0, 72, 96
2, 248520, Note_on_c, 0, 78, 96
2, 248520, Note_on_c, 0, 81, 96
2, 248520, Note_on_c, 0, 84, 96
2, 248640, Note_on_c, 0, 84, 0
2, 248640, Note_on_c, 0, 72, 0
2, 248640, Note_on_c, 0, 78, 0
2, 248640, Note_on_c, 0, 81, 0
2, 248640, Note_on_c, 0, 71, 96
2, 248640, Note_on_c, 0, 79, 96
2, 248640, Note_on_c, 0, 83, 96
2, 249600, Note_on_c, 0, 83, 0
2, 249600, Note_on_c, 0, 79, 0
2, 249600, Note_on_c, 0, 71, 0
2, 249600, Note_on_c, 0, 72, 96
2, 249600, Note_on_c, 0, 79, 96
2, 249600, Note_on_c, 0, 84, 96
2, 250080, Note_on_c, 0, 84, 0
2, 250080, Note_on_c, 0, 79, 0
2, 250080, Note_on_c, 0, 72, 0
2, 250080, Note_on_c, 0, 69, 96
2, 250080, Note_on_c, 0, 72, 96
2, 250080, Note_on_c, 0, 74, 96
2, 250080, Note_on_c, 0, 81, 96
2, 251040, Note_on_c, 0, 81, 0
2, 251040, Note_on_c, 0, 69, 0
2, 251040, Note_on_c, 0, 72, 0
2, 251040, Note_on_c, 0, 74, 0
2, 251040, Note_on_c, 0, 74, 96
2, 251040, Note_on_c, 0, 77, 96
2, 251040, Note_on_c, 0, 83, 96
2, 251040, Note_on_c, 0, 86, 96
2, 251400, Note_on_c, 0, 86, 0
2, 251400, Note_on_c, 0, 74, 0
2, 251400, Note_on_c, 0, 77, 0
2, 251400, Note_on_c, 0, 83, 0
2, 251400, Note_on_c, 0, 74, 96
2, 251400, Note_on_c, 0, 77, 96
2, 251400, Note_on_c, 0, 83, 96
2, 251400, Note_on_c, 0, 86, 96
2, 251520, Note_on_c, 0, 86, 0
2, 251520, Note_on_c, 0, 74, 0
2, 251520, Note_on_c, 0, 77, 0
2, 251520, Note_on_c, 0, 83, 0
2, 251520, Note_on_c, 0, 74, 96
2, 251520, Note_on_c, 0, 78, 96
2, 251520, Note_on_c, 0, 84, 96
2, 251520, Note_on_c, 0, 86, 96
2, 252000, Note_on_c, 0, 86, 0
2, 252000, Note_on_c, 0, 74, 0
2, 252000, Note_on_c, 0, 78, 0
2, 252000, Note_on_c, 0, 84, 0
2, 252000, Note_on_c, 0, 74, 96
2, 252000, Note_on_c, 0, 79, 96
2, 252000, Note_on_c, 0, 85, 96
2, 252000, Note_on_c, 0, 86, 96
2, 252360, Note_on_c, 0, 86, 0
2, 252360, Note_on_c, 0, 74, 0
2, 252360, Note_on_c, 0, 79, 0
2, 252360, Note_on_c, 0, 85, 0
2, 252360, Note_on_c, 0, 74, 96
2, 252360, Note_on_c, 0, 79, 96
2, 252360, Note_on_c, 0, 85, 96
2, 252360, Note_on_c, 0, 86, 96
2, 252480, Note_on_c, 0, 86, 0
2, 252480, Note_on_c, 0, 74, 0
2, 252480, Note_on_c, 0, 79, 0
2, 252480, Note_on_c, 0, 85, 0
2, 252480, Note_on_c, 0, 74, 96
2, 252480, Note_on_c, 0, 79, 96
2, 252480, Note_on_c, 0, 86, 96
2, 252960, Note_on_c, 0, 86, 0
2, 252960, Note_on_c, 0, 79, 0
2, 252960, Note_on_c, 0, 74, 0
2, 252960, Note_on_c, 0, 79, 96
2, 252960, Note_on_c, 0, 82, 96
2, 252960, Note_on_c, 0, 90, 96
2, 253320, Note_on_c, 0, 90, 0
2, 253320, Note_on_c, 0, 82, 0
2, 253320, Note_on_c, 0, 79, 0
2, 253320, Note_on_c, 0, 79, 96
2, 253320, Note_on_c, 0, 82, 96
2, 253320, Note_on_c, 0, 88, 96
2, 253440, Note_on_c, 0, 88, 0
2, 253440, Note_on_c, 0, 82, 0
2, 253440, Note_on_c, 0, 79, 0
2, 253440, Note_on_c, 0, 79, 96
2, 253440, Note_on_c, 0, 83, 96
2, 253440, Note_on_c, 0, 86, 96
2, 253920, Note_on_c, 0, 86, 0
2, 253920, Note_on_c, 0, 83, 0
2, 253920, Note_on_c, 0, 79, 0
2, 253920, Note_on_c, 0, 71, 57
2, 254280, Note_on_c, 0, 71, 0
2, 254280, Note_on_c, 0, 73, 57
2, 254400, Note_on_c, 0, 73, 0
2, 254400, Note_on_c, 0, 74, 57
2, 254559, Note_on_c, 0, 74, 0
2, 254559, Note_on_c, 0, 76, 57
2, 254720, Note_on_c, 0, 76, 0
2, 254720, Note_on_c, 0, 74, 57
2, 254880, Note_on_c, 0, 74, 0
2, 254880, Note_on_c, 0, 73, 57
2, 255120, Note_on_c, 0, 73, 0
2, 255120, Note_on_c, 0, 71, 57
2, 255360, Note_on_c, 0, 71, 0
2, 255360, Note_on_c, 0, 78, 57
2, 255720, Note_on_c, 0, 78, 0
2, 255720, Note_on_c, 0, 78, 57
2, 255840, Note_on_c, 0, 78, 0
2, 255840, Note_on_c, 0, 76, 57
2, 256080, Note_on_c, 0, 76, 0
2, 256080, Note_on_c, 0, 74, 57
2, 256320, Note_on_c, 0, 74, 0
2, 256320, Note_on_c, 0, 73, 57
2, 256560, Note_on_c, 0, 73, 0
2, 256560, Note_on_c, 0, 71, 57
2, 256800, Note_on_c, 0, 71, 0
2, 256800, Note_on_c, 0, 76, 57
2, 257160, Note_on_c, 0, 76, 0
2, 257160, Note_on_c, 0, 76, 57
2, 257280, Note_on_c, 0, 76, 0
2, 257280, Note_on_c, 0, 74, 57
2, 257520, Note_on_c, 0, 74, 0
2, 257520, Note_on_c, 0, 73, 57
2, 257760, Note_on_c, 0, 73, 0
2, 257760, Note_on_c, 0, 71, 57
2, 258000, Note_on_c, 0, 71, 0
2, 258000, Note_on_c, 0, 73, 57
2, 258240, Note_on_c, 0, 73, 0
2, 258240, Note_on_c, 0, 74, 57
2, 258399, Note_on_c, 0, 74, 0
2, 258399, Note_on_c, 0, 76, 57
2, 258560, Note_on_c, 0, 76, 0
2, 258560, Note_on_c, 0, 74, 57
2, 258720, Note_on_c, 0, 74, 0
2, 258720, Note_on_c, 0, 79, 57
2, 258879, Note_on_c, 0, 79, 0
2, 258879, Note_on_c, 0, 78, 57
2, 259040, Note_on_c, 0, 78, 0
2, 259040, Note_on_c, 0, 76, 57
2, 259200, Note_on_c, 0, 76, 0
2, 259200, Note_on_c, 0, 74, 57
2, 259680, Note_on_c, 0, 74, 0
2, 259680, Note_on_c, 0, 72, 96
2, 259680, Note_on_c, 0, 78, 96
2, 259680, Note_on_c, 0, 81, 96
2, 259680, Note_on_c, 0, 84, 96
2, 260040, Note_on_c, 0, 84, 0
2, 260040, Note_on_c, 0, 72, 0
2, 260040, Note_on_c, 0, 78, 0
2, 260040, Note_on_c, 0, 81, 0
2, 260040, Note_on_c, 0, 72, 96
2, 260040, Note_on_c, 0, 78, 96
2, 260040, Note_on_c, 0, 81, 96
2, 260040, Note_on_c, 0, 84, 96
2, 260160, Note_on_c, 0, 84, 0
2, 260160, Note_on_c, 0, 72, 0
2, 260160, Note_on_c, 0, 78, 0
2, 260160, Note_on_c, 0, 81, 0
2, 260160, Note_on_c, 0, 71, 96
2, 260160, Note_on_c, 0, 79, 96
2, 260160, Note_on_c, 0, 83, 96
2, 261120, Note_on_c, 0, 83, 0
2, 261120, Note_on_c, 0, 79, 0
2, 261120, Note_on_c, 0, 71, 0
2, 261120, Note_on_c, 0, 72, 96
2, 261120, Note_on_c, 0, 79, 96
2, 261120, Note_on_c, 0, 84, 96
2, 261600, Note_on_c, 0, 84, 0
2, 261600, Note_on_c, 0, 79, 0
2, 261600, Note_on_c, 0, 72, 0
2, 261600, Note_on_c, 0, 69, 96
2, 261600, Note_on_c, 0, 72, 96
2, 261600, Note_on_c, 0, 74, 96
2, 261600, Note_on_c, 0, 81, 96
2, 262560, Note_on_c, 0, 81, 0
2, 262560, Note_on_c, 0, 69, 0
2, 262560, Note_on_c, 0, 72, 0
2, 262560, Note_on_c, 0, 74, 0
2, 262560, Note_on_c, 0, 74, 96
2, 262560, Note_on_c, 0, 77, 96
2, 262560, Note_on_c, 0, 83, 96
2, 262560, Note_on_c, 0, 86, 96
2, 262920, Note_on_c, 0, 86, 0
2, 262920, Note_on_c, 0, 74, 0
2, 262920, Note_on_c, 0, 77, 0
2, 262920, Note_on_c, 0, 83, 0
2, 262920, Note_on_c, 0, 74, 96
2, 262920, Note_on_c, 0, 77, 96
2, 262920, Note_on_c, 0, 83, 96
2, 262920, Note_on_c, 0, 86, 96
2, 263040, Note_on_c, 0, 86, 0
2, 263040, Note_on_c, 0, 74, 0
2, 263040, Note_on_c, 0, 77, 0
2, 263040, Note_on_c, 0, 83, 0
2, 263040, Note_on_c, 0, 74, 96
2, 263040, Note_on_c, 0, 78, 96
2, 263040, Note_on_c, 0, 84, 96
2, 263040, Note_on_c, 0, 86, 96
2, 263520, Note_on_c, 0, 86, 0
2, 263520, Note_on_c, 0, 74, 0
2, 263520, Note_on_c, 0, 78, 0
2, 263520, Note_on_c, 0, 84, 0
2, 263520, Note_on_c, 0, 74, 96
2, 263520, Note_on_c, 0, 79, 96
2, 263520, Note_on_c, 0, 85, 96
2, 263520, Note_on_c, 0, 86, 96
2, 263880, Note_on_c, 0, 86, 0
2, 263880, Note_on_c, 0, 74, 0
2, 263880, Note_on_c, 0, 79, 0
2, 263880, Note_on_c, 0, 85, 0
2, 263880, Note_on_c, 0, 74, 96
2, 263880, Note_on_c, 0, 79, 96
2, 263880, Note_on_c, 0, 85, 96
2, 263880, Note_on_c, 0, 86, 96
2, 264000, Note_on_c, 0, 86, 0
2, 264000, Note_on_c, 0, 74, 0
2, 264000, Note_on_c, 0, 79, 0
2, 264000, Note_on_c, 0, 85, 0
2, 264000, Note_on_c, 0, 74, 96
2, 264000, Note_on_c, 0, 79, 96
2, 264000, Note_on_c, 0, 86, 96
2, 264480, Note_on_c, 0, 86, 0
2, 264480, Note_on_c, 0, 79, 0
2, 264480, Note_on_c, 0, 74, 0
2, 264480, Note_on_c, 0, 79, 96
2, 264480, Note_on_c, 0, 82, 96
2, 264480, Note_on_c, 0, 90, 96
2, 264840, Note_on_c, 0, 90, 0
2, 264840, Note_on_c, 0, 82, 0
2, 264840, Note_on_c, 0, 79, 0
2, 264840, Note_on_c, 0, 79, 96
2, 264840, Note_on_c, 0, 82, 96
2, 264840, Note_on_c, 0, 88, 96
2, 264960, Note_on_c, 0, 88, 0
2, 264960, Note_on_c, 0, 82, 0
2, 264960, Note_on_c, 0, 79, 0
2, 264960, Note_on_c, 0, 79, 96
2, 264960, Note_on_c, 0, 83, 96
2, 264960, Note_on_c, 0, 86, 96
2, 265440, Note_on_c, 0, 86, 0
2, 265440, Note_on_c, 0, 83, 0
2, 265440, Note_on_c, 0, 79, 0
2, 265440, Note_on_c, 0, 83, 57
2, 265800, Note_on_c, 0, 83, 0
2, 265800, Note_on_c, 0, 85, 57
2, 265920, Note_on_c, 0, 85, 0
2, 265920, Note_on_c, 0, 86, 57
2, 266079, Note_on_c, 0, 86, 0
2, 266079, Note_on_c, 0, 88, 57
2, 266240, Note_on_c, 0, 88, 0
2, 266240, Note_on_c, 0, 86, 57
2, 266400, Note_on_c, 0, 86, 0
2, 266400, Note_on_c, 0, 85, 57
2, 266640, Note_on_c, 0, 85, 0
2, 266640, Note_on_c, 0, 83, 57
2, 266880, Note_on_c, 0, 83, 0
2, 266880, Note_on_c, 0, 81, 57
2, 267240, Note_on_c, 0, 81, 0
2, 267240, Note_on_c, 0, 81, 57
2, 267360, Note_on_c, 0, 81, 0
2, 267360, Note_on_c, 0, 83, 57
2, 267720, Note_on_c, 0, 83, 0
2, 267720, Note_on_c, 0, 85, 57
2, 267840, Note_on_c, 0, 85, 0
2, 267840, Note_on_c, 0, 86, 57
2, 268200, Note_on_c, 0, 86, 0
2, 268200, Note_on_c, 0, 78, 57
2, 268320, Note_on_c, 0, 78, 0
2, 268320, Note_on_c, 0, 79, 57
2, 268680, Note_on_c, 0, 79, 0
2, 268680, Note_on_c, 0, 81, 57
2, 268800, Note_on_c, 0, 81, 0
2, 268800, Note_on_c, 0, 83, 57
2, 269160, Note_on_c, 0, 83, 0
2, 269160, Note_on_c, 0, 69, 57
2, 269280, Note_on_c, 0, 69, 0
2, 269280, Note_on_c, 0, 71, 57
2, 269640, Note_on_c, 0, 71, 0
2, 269640, Note_on_c, 0, 73, 57
2, 269760, Note_on_c, 0, 73, 0
2, 269760, Note_on_c, 0, 74, 57
2, 269919, Note_on_c, 0, 74, 0
2, 269919, Note_on_c, 0, 78, 57
2, 270080, Note_on_c, 0, 78, 0
2, 270080, Note_on_c, 0, 79, 57
2, 270240, Note_on_c, 0, 79, 0
2, 270240, Note_on_c, 0, 80, 70
2, 270399, Note_on_c, 0, 80, 0
2, 270399, Note_on_c, 0, 81, 70
2, 270560, Note_on_c, 0, 81, 0
2, 270560, Note_on_c, 0, 82, 70
2, 270720, Note_on_c, 0, 82, 0
2, 270720, Note_on_c, 0, 83, 83
2, 270879, Note_on_c, 0, 83, 0
2, 270879, Note_on_c, 0, 84, 83
2, 271040, Note_on_c, 0, 84, 0
2, 271040, Note_on_c, 0, 85, 83
2, 271200, Note_on_c, 0, 85, 0
2, 271200, Note_on_c, 0, 74, 96
2, 271200, Note_on_c, 0, 79, 96
2, 271200, Note_on_c, 0, 83, 96
2, 271200, Note_on_c, 0, 86, 96
2, 271560, Note_on_c, 0, 86, 0
2, 271560, Note_on_c, 0, 74, 0
2, 271560, Note_on_c, 0, 79, 0
2, 271560, Note_on_c, 0, 83, 0
2, 271560, Note_on_c, 0, 74, 96
2, 271560, Note_on_c, 0, 79, 96
2, 271560, Note_on_c, 0, 83, 96
2, 271560, Note_on_c, 0, 86, 96
2, 271680, Note_on_c, 0, 86, 0
2, 271680, Note_on_c, 0, 74, 0
2, 271680, Note_on_c, 0, 79, 0
2, 271680, Note_on_c, 0, 83, 0
2, 271680, Note_on_c, 0, 73, 96
2, 271680, Note_on_c, 0, 79, 96
2, 271680, Note_on_c, 0, 83, 96
2, 271680, Note_on_c, 0, 85, 96
2, 272640, Note_on_c, 0, 85, 0
2, 272640, Note_on_c, 0, 73, 0
2, 272640, Note_on_c, 0, 79, 0
2, 272640, Note_on_c, 0, 83, 0
2, 272640, Note_on_c, 0, 76, 96
2, 272640, Note_on_c, 0, 79, 96
2, 272640, Note_on_c, 0, 83, 96
2, 272640, Note_on_c, 0, 88, 96
2, 273120, Note_on_c, 0, 88, 0
2, 273120, Note_on_c, 0, 76, 0
2, 273120, Note_on_c, 0, 79, 0
2, 273120, Note_on_c, 0, 83, 0
2, 273120, Note_on_c, 0, 74, 96
2, 273120, Note_on_c, 0, 79, 96
2, 273120, Note_on_c, 0, 83, 96
2, 273120, Note_on_c, 0, 86, 96
2, 274080, Note_on_c, 0, 86, 0
2, 274080, Note_on_c, 0, 74, 0
2, 274080, Note_on_c, 0, 79, 0
2, 274080, Note_on_c, 0, 83, 0
2, 274080, Note_on_c, 0, 71, 96
2, 274080, Note_on_c, 0, 74, 96
2, 274080, Note_on_c, 0, 79, 96
2, 274080, Note_on_c, 0, 83, 96
2, 274440, Note_on_c, 0, 83, 0
2, 274440, Note_on_c, 0, 71, 0
2, 274440, Note_on_c, 0, 74, 0
2, 274440, Note_on_c, 0, 79, 0
2, 274440, Note_on_c, 0, 71, 96
2, 274440, Note_on_c, 0, 74, 96
2, 274440, Note_on_c, 0, 79, 96
2, 274440, Note_on_c, 0, 83, 96
2, 274560, Note_on_c, 0, 83, 0
2, 274560, Note_on_c, 0, 71, 0
2, 274560, Note_on_c, 0, 74, 0
2, 274560, Note_on_c, 0, 79, 0
2, 274560, Note_on_c, 0, 70, 96
2, 274560, Note_on_c, 0, 74, 96
2, 274560, Note_on_c, 0, 79, 96
2, 274560, Note_on_c, 0, 82, 96
2, 275520, Note_on_c, 0, 82, 0
2, 275520, Note_on_c, 0, 70, 0
2, 275520, Note_on_c, 0, 74, 0
2, 275520, Note_on_c, 0, 79, 0
2, 275520, Note_on_c, 0, 72, 96
2, 275520, Note_on_c, 0, 74, 96
2, 275520, Note_on_c, 0, 79, 96
2, 275520, Note_on_c, 0, 84, 96
2, 276000, Note_on_c, 0, 84, 0
2, 276000, Note_on_c, 0, 72, 0
2, 276000, Note_on_c, 0, 74, 0
2, 276000, Note_on_c, 0, 79, 0
2, 276000, Note_on_c, 0, 71, 96
2, 276000, Note_on_c, 0, 74, 96
2, 276000, Note_on_c, 0, 79, 96
2, 276000, Note_on_c, 0, 83, 96
2, 276960, Note_on_c, 0, 83, 0
2, 276960, Note_on_c, 0, 71, 0
2, 276960, Note_on_c, 0, 74, 0
2, 276960, Note_on_c, 0, 79, 0
2, 276960, Note_on_c, 0, 76, 96
2, 277320, Note_on_c, 0, 76, 0
2, 277320, Note_on_c, 0, 78, 96
2, 277440, Note_on_c, 0, 78, 0
2, 277440, Note_on_c, 0, 81, 96
2, 277800, Note_on_c, 0, 81, 0
2, 277800, Note_on_c, 0, 78, 96
2, 277920, Note_on_c, 0, 78, 0
2, 277920, Note_on_c, 0, 74, 96
2, 278400, Note_on_c, 0, 74, 0
2, 278400, Note_on_c, 0, 76, 96
2, 278760, Note_on_c, 0, 76, 0
2, 278760, Note_on_c, 0, 78, 96
2, 278880, Note_on_c, 0, 78, 0
2, 278880, Note_on_c, 0, 83, 96
2, 279039, Note_on_c, 0, 83, 0
2, 279039, Note_on_c, 0, 81, 96
2, 279200, Note_on_c, 0, 81, 0
2, 279200, Note_on_c, 0, 78, 96
2, 279360, Note_on_c, 0, 78, 0
2, 279360, Note_on_c, 0, 74, 96
2, 279720, Note_on_c, 0, 74, 0
2, 279720, Note_on_c, 0, 74, 96
2, 279840, Note_on_c, 0, 74, 0
2, 279840, Note_on_c, 0, 64, 96
2, 279840, Note_on_c, 0, 72, 96
2, 279840, Note_on_c, 0, 76, 96
2, 280200, Note_on_c, 0, 76, 0
2, 280200, Note_on_c, 0, 72, 0
2, 280200, Note_on_c, 0, 64, 0
2, 280200, Note_on_c, 0, 66, 96
2, 280200, Note_on_c, 0, 78, 96
2, 280320, Note_on_c, 0, 78, 0
2, 280320, Note_on_c, 0, 66, 0
2, 280320, Note_on_c, 0, 67, 96
2, 280320, Note_on_c, 0, 71, 96
2, 280320, Note_on_c, 0, 79, 96
2, 280680, Note_on_c, 0, 79, 0
2, 280680, Note_on_c, 0, 71, 0
2, 280680, Note_on_c, 0, 67, 0
2, 280680, Note_on_c, 0, 69, 96
2, 280680, Note_on_c, 0, 81, 96
2, 280800, Note_on_c, 0, 81, 0
2, 280800, Note_on_c, 0, 69, 0
2, 280800, Note_on_c, 0, 71, 96
2, 280800, Note_on_c, 0, 74, 96
2, 280800, Note_on_c, 0, 83, 96
2, 281160, Note_on_c, 0, 83, 0
2, 281160, Note_on_c, 0, 74, 0
2, 281160, Note_on_c, 0, 71, 0
2, 281160, Note_on_c, 0, 73, 96
2, 281160, Note_on_c, 0, 85, 96
2, 281280, Note_on_c, 0, 85, 0
2, 281280, Note_on_c, 0, 73, 0
2, 281280, Note_on_c, 0, 74, 96
2, 281280, Note_on_c, 0, 83, 96
2, 281280, Note_on_c, 0, 86, 96
2, 281640, Note_on_c, 0, 86, 0
2, 281640, Note_on_c, 0, 83, 0
2, 281640, Note_on_c, 0, 74, 0
2, 281640, Note_on_c, 0, 76, 96
2, 281640, Note_on_c, 0, 88, 96
2, 281760, Note_on_c, 0, 88, 0
2, 281760, Note_on_c, 0, 76, 0
2, 281760, Note_on_c, 0, 78, 96
2, 281760, Note_on_c, 0, 90, 96
2, 282480, Note_on_c, 0, 90, 0
2, 282480, Note_on_c, 0, 78, 0
2, 282480, Note_on_c, 0, 83, 96
2, 282720, Note_on_c, 0, 83, 0
2, 282720, Note_on_c, 0, 74, 96
2, 282720, Note_on_c, 0, 79, 96
2, 282720, Note_on_c, 0, 83, 96
2, 282720, Note_on_c, 0, 86, 96
2, 283080, Note_on_c, 0, 86, 0
2, 283080, Note_on_c, 0, 74, 0
2, 283080, Note_on_c, 0, 79, 0
2, 283080, Note_on_c, 0, 83, 0
2, 283080, Note_on_c, 0, 74, 96
2, 283080, Note_on_c, 0, 79, 96
2, 283080, Note_on_c, 0, 83, 96
2, 283080, Note_on_c, 0, 86, 96
2, 283200, Note_on_c, 0, 86, 0
2, 283200, Note_on_c, 0, 74, 0
2, 283200, Note_on_c, 0, 79, 0
2, 283200, Note_on_c, 0, 83, 0
2, 283200, Note_on_c, 0, 73, 96
2, 283200, Note_on_c, 0, 79, 96
2, 283200, Note_on_c, 0, 83, 96
2, 283200, Note_on_c, 0, 85, 96
2, 284160, Note_on_c, 0, 85, 0
2, 284160, Note_on_c, 0, 73, 0
2, 284160, Note_on_c, 0, 79, 0
2, 284160, Note_on_c, 0, 83, 0
2, 284160, Note_on_c, 0, 76, 96
2, 284160, Note_on_c, 0, 79, 96
2, 284160, Note_on_c, 0, 83, 96
2, 284160, Note_on_c, 0, 88, 96
2, 284640, Note_on_c, 0, 88, 0
2, 284640, Note_on_c, 0, 76, 0
2, 284640, Note_on_c, 0, 79, 0
2, 284640, Note_on_c, 0, 83, 0
2, 284640, Note_on_c, 0, 74, 96
2, 284640, Note_on_c, 0, 79, 96
2, 284640, Note_on_c, 0, 83, 96
2, 284640, Note_on_c, 0, 86, 96
2, 285600, Note_on_c, 0, 86, 0
2, 285600, Note_on_c, 0, 74, 0
2, 285600, Note_on_c, 0, 79, 0
2, 285600, Note_on_c, 0, 83, 0
2, 285600, Note_on_c, 0, 71, 96
2, 285600, Note_on_c, 0, 74, 96
2, 285600, Note_on_c, 0, 79, 96
2, 285600, Note_on_c, 0, 83, 96
2, 285960, Note_on_c, 0, 83, 0
2, 285960, Note_on_c, 0, 71, 0
2, 285960, Note_on_c, 0, 74, 0
2, 285960, Note_on_c, 0, 79, 0
2, 285960, Note_on_c, 0, 71, 96
2, 285960, Note_on_c, 0, 74, 96
2, 285960, Note_on_c, 0, 79, 96
2, 285960, Note_on_c, 0, 83, 96
2, 286080, Note_on_c, 0, 83, 0
2, 286080, Note_on_c, 0, 71, 0
2, 286080, Note_on_c, 0, 74, 0
2, 286080, Note_on_c, 0, 79, 0
2, 286080, Note_on_c, 0, 70, 96
2, 286080, Note_on_c, 0, 74, 96
2, 286080, Note_on_c, 0, 79, 96
2, 286080, Note_on_c, 0, 82, 96
2, 287040, Note_on_c, 0, 82, 0
2, 287040, Note_on_c, 0, 70, 0
2, 287040, Note_on_c, 0, 74, 0
2, 287040, Note_on_c, 0, 79, 0
2, 287040, Note_on_c, 0, 72, 96
2, 287040, Note_on_c, 0, 74, 96
2, 287040, Note_on_c, 0, 79, 96
2, 287040, Note_on_c, 0, 84, 96
2, 287520, Note_on_c, 0, 84, 0
2, 287520, Note_on_c, 0, 72, 0
2, 287520, Note_on_c, 0, 74, 0
2, 287520, Note_on_c, 0, 79, 0
2, 287520, Note_on_c, 0, 71, 96
2, 287520, Note_on_c, 0, 74, 96
2, 287520, Note_on_c, 0, 79, 96
2, 287520, Note_on_c, 0, 83, 96
2, 288480, Note_on_c, 0, 83, 0
2, 288480, Note_on_c, 0, 71, 0
2, 288480, Note_on_c, 0, 74, 0
2, 288480, Note_on_c, 0, 79, 0
2, 288480, Note_on_c, 0, 76, 96
2, 288840, Note_on_c, 0, 76, 0
2, 288840, Note_on_c, 0, 78, 96
2, 288960, Note_on_c, 0, 78, 0
2, 288960, Note_on_c, 0, 81, 96
2, 289320, Note_on_c, 0, 81, 0
2, 289320, Note_on_c, 0, 78, 96
2, 289440, Note_on_c, 0, 78, 0
2, 289440, Note_on_c, 0, 74, 96
2, 289920, Note_on_c, 0, 74, 0
2, 289920, Note_on_c, 0, 76, 96
2, 290280, Note_on_c, 0, 76, 0
2, 290280, Note_on_c, 0, 78, 96
2, 290400, Note_on_c, 0, 78, 0
2, 290400, Note_on_c, 0, 83, 96
2, 290559, Note_on_c, 0, 83, 0
2, 290559, Note_on_c, 0, 81, 96
2, 290720, Note_on_c, 0, 81, 0
2, 290720, Note_on_c, 0, 78, 96
2, 290880, Note_on_c, 0, 78, 0
2, 290880, Note_on_c, 0, 74, 96
2, 291240, Note_on_c, 0, 74, 0
2, 291240, Note_on_c, 0, 74, 96
2, 291360, Note_on_c, 0, 74, 0
2, 291360, Note_on_c, 0, 64, 96
2, 291360, Note_on_c, 0, 67, 96
2, 291360, Note_on_c, 0, 70, 96
2, 291360, Note_on_c, 0, 76, 96
2, 291720, Note_on_c, 0, 76, 0
2, 291720, Note_on_c, 0, 64, 0
2, 291720, Note_on_c, 0, 67, 0
2, 291720, Note_on_c, 0, 70, 0
2, 291720, Note_on_c, 0, 66, 96
2, 291720, Note_on_c, 0, 78, 96
2, 291840, Note_on_c, 0, 78, 0
2, 291840, Note_on_c, 0, 66, 0
2, 291840, Note_on_c, 0, 64, 96
2, 291840, Note_on_c, 0, 67, 96
2, 291840, Note_on_c, 0, 70, 96
2, 291840, Note_on_c, 0, 76, 96
2, 292200, Note_on_c, 0, 76, 0
2, 292200, Note_on_c, 0, 64, 0
2, 292200, Note_on_c, 0, 67, 0
2, 292200, Note_on_c, 0, 70, 0
2, 292200, Note_on_c, 0, 66, 96
2, 292200, Note_on_c, 0, 78, 96
2, 292320, Note_on_c, 0, 78, 0
2, 292320, Note_on_c, 0, 66, 0
2, 292320, Note_on_c, 0, 67, 96
2, 292320, Note_on_c, 0, 70, 96
2, 292320, Note_on_c, 0, 76, 96
2, 292320, Note_on_c, 0, 79, 96
2, 292680, Note_on_c, 0, 79, 0
2, 292680, Note_on_c, 0, 67, 0
2, 292680, Note_on_c, 0, 70, 0
2, 292680, Note_on_c, 0, 76, 0
2, 292680, Note_on_c, 0, 69, 96
2, 292680, Note_on_c, 0, 81, 96
2, 292800, Note_on_c, 0, 81, 0
2, 292800, Note_on_c, 0, 69, 0
2, 292800, Note_on_c, 0, 71, 96
2, 292800, Note_on_c, 0, 74, 96
2, 292800, Note_on_c, 0, 79, 96
2, 292800, Note_on_c, 0, 83, 96
2, 293160, Note_on_c, 0, 83, 0
2, 293160, Note_on_c, 0, 71, 0
2, 293160, Note_on_c, 0, 74, 0
2, 293160, Note_on_c, 0, 79, 0
2, 293160, Note_on_c, 0, 72, 96
2, 293160, Note_on_c, 0, 84, 96
2, 293280, Note_on_c, 0, 84, 0
2, 293280, Note_on_c, 0, 72, 0
2, 293280, Note_on_c, 0, 74, 96
2, 293280, Note_on_c, 0, 79, 96
2, 293280, Note_on_c, 0, 83, 96
2, 293280, Note_on_c, 0, 86, 96
2, 293760, Note_on_c, 0, 86, 0
2, 293760, Note_on_c, 0, 74, 0
2, 293760, Note_on_c, 0, 79, 0
2, 293760, Note_on_c, 0, 83, 0
2, 293760, Note_on_c, 0, 62, 96
2, 293760, Note_on_c, 0, 74, 96
2, 294240, Note_on_c, 0, 74, 0
2, 294240, Note_on_c, 0, 62, 0
2, 294240, Note_on_c, 0, 71, 96
2, 294240, Note_on_c, 0, 76, 96
2, 294240, Note_on_c, 0, 80, 96
2, 294240, Note_on_c, 0, 83, 96
2, 294600, Note_on_c, 0, 83, 0
2, 294600, Note_on_c, 0, 71, 0
2, 294600, Note_on_c, 0, 76, 0
2, 294600, Note_on_c, 0, 80, 0
2, 294600, Note_on_c, 0, 75, 96
2, 294600, Note_on_c, 0, 87, 96
2, 294720, Note_on_c, 0, 87, 0
2, 294720, Note_on_c, 0, 75, 0
2, 294720, Note_on_c, 0, 76, 96
2, 294720, Note_on_c, 0, 80, 96
2, 294720, Note_on_c, 0, 83, 96
2, 294720, Note_on_c, 0, 88, 96
2, 295200, Note_on_c, 0, 88, 0
2, 295200, Note_on_c, 0, 76, 0
2, 295200, Note_on_c, 0, 80, 0
2, 295200, Note_on_c, 0, 83, 0
2, 295200, Note_on_c, 0, 64, 96
2, 295200, Note_on_c, 0, 76, 96
2, 295680, Note_on_c, 0, 76, 0
2, 295680, Note_on_c, 0, 64, 0
2, 295680, Note_on_c, 0, 72, 96
2, 295680, Note_on_c, 0, 81, 96
2, 295680, Note_on_c, 0, 84, 96
2, 296040, Note_on_c, 0, 84, 0
2, 296040, Note_on_c, 0, 81, 0
2, 296040, Note_on_c, 0, 72, 0
2, 296040, Note_on_c, 0, 74, 96
2, 296040, Note_on_c, 0, 86, 96
2, 296160, Note_on_c, 0, 86, 0
2, 296160, Note_on_c, 0, 74, 0
2, 296160, Note_on_c, 0, 76, 96
2, 296160, Note_on_c, 0, 81, 96
2, 296160, Note_on_c, 0, 84, 96
2, 296160, Note_on_c, 0, 88, 96
2, 296640, Note_on_c, 0, 88, 0
2, 296640, Note_on_c, 0, 76, 0
2, 296640, Note_on_c, 0, 81, 0
2, 296640, Note_on_c, 0, 84, 0
2, 296640, Note_on_c, 0, 64, 96
2, 296640, Note_on_c, 0, 76, 96
2, 297120, Note_on_c, 0, 76, 0
2, 297120, Note_on_c, 0, 64, 0
2, 297120, Note_on_c, 0, 78, 96
2, 297120, Note_on_c, 0, 84, 96
2, 297120, Note_on_c, 0, 86, 96
2, 297120, Note_on_c, 0, 90, 96
2, 297600, Note_on_c, 0, 90, 0
2, 297600, Note_on_c, 0, 78, 0
2, 297600, Note_on_c, 0, 84, 0
2, 297600, Note_on_c, 0, 86, 0
2, 297600, Note_on_c, 0, 76, 96
2, 297600, Note_on_c, 0, 81, 96
2, 297600, Note_on_c, 0, 84, 96
2, 297600, Note_on_c, 0, 88, 96
2, 298080, Note_on_c, 0, 88, 0
2, 298080, Note_on_c, 0, 76, 0
2, 298080, Note_on_c, 0, 81, 0
2, 298080, Note_on_c, 0, 84, 0
2, 298080, Note_on_c, 0, 78, 96
2, 298080, Note_on_c, 0, 84, 96
2, 298080, Note_on_c, 0, 86, 96
2, 298080, Note_on_c, 0, 90, 96
2, 298560, Note_on_c, 0, 90, 0
2, 298560, Note_on_c, 0, 78, 0
2, 298560, Note_on_c, 0, 84, 0
2, 298560, Note_on_c, 0, 86, 0
2, 298560, Note_on_c, 0, 79, 96
2, 298560, Note_on_c, 0, 83, 96
2, 298560, Note_on_c, 0, 86, 96
2, 298560, Note_on_c, 0, 91, 96
2, 298920, Note_on_c, 0, 91, 0
2, 298920, Note_on_c, 0, 79, 0
2, 298920, Note_on_c, 0, 83, 0
2, 298920, Note_on_c, 0, 86, 0
2, 298920, Note_on_c, 0, 79, 96
2, 298920, Note_on_c, 0, 83, 96
2, 298920, Note_on_c, 0, 86, 96
2, 298920, Note_on_c, 0, 91, 96
2, 299040, Note_on_c, 0, 91, 0
2, 299040, Note_on_c, 0, 79, 0
2, 299040, Note_on_c, 0, 83, 0
2, 299040, Note_on_c, 0, 86, 0
2, 299040, Note_on_c, 0, 78, 96
2, 299040, Note_on_c, 0, 83, 96
2, 299040, Note_on_c, 0, 86, 96
2, 299040, Note_on_c, 0, 90, 96
2, 299520, Note_on_c, 0, 90, 0
2, 299520, Note_on_c, 0, 78, 0
2, 299520, Note_on_c, 0, 83, 0
2, 299520, Note_on_c, 0, 86, 0
2, 299520, Note_on_c, 0, 76, 96
2, 299520, Note_on_c, 0, 79, 96
2, 299520, Note_on_c, 0, 84, 96
2, 299520, Note_on_c, 0, 88, 96
2, 299880, Note_on_c, 0, 88, 0
2, 299880, Note_on_c, 0, 76, 0
2, 299880, Note_on_c, 0, 79, 0
2, 299880, Note_on_c, 0, 84, 0
2, 299880, Note_on_c, 0, 76, 96
2, 299880, Note_on_c, 0, 88, 96
2, 300000, Note_on_c, 0, 88, 0
2, 300000, Note_on_c, 0, 76, 0
2, 300000, Note_on_c, 0, 74, 96
2, 300000, Note_on_c, 0, 79, 96
2, 300000, Note_on_c, 0, 83, 96
2, 300000, Note_on_c, 0, 86, 96
2, 300480, Note_on_c, 0, 86, 0
2, 300480, Note_on_c, 0, 74, 0
2, 300480, Note_on_c, 0, 79, 0
2, 300480, Note_on_c, 0, 83, 0
2, 300480, Note_on_c, 0, 72, 96
2, 300480, Note_on_c, 0, 78, 96
2, 300480, Note_on_c, 0, 81, 96
2, 300480, Note_on_c, 0, 84, 96
2, 300840, Note_on_c, 0, 84, 0
2, 300840, Note_on_c, 0, 72, 0
2, 300840, Note_on_c, 0, 78, 0
2, 300840, Note_on_c, 0, 81, 0
2, 300840, Note_on_c, 0, 72, 96
2, 300840, Note_on_c, 0, 84, 96
2, 300960, Note_on_c, 0, 84, 0
2, 300960, Note_on_c, 0, 72, 0
2, 300960, Note_on_c, 0, 71, 96
2, 300960, Note_on_c, 0, 79, 96
2, 300960, Note_on_c, 0, 83, 96
2, 301440, Note_on_c, 0, 83, 0
2, 301440, Note_on_c, 0, 79, 0
2, 301440, Note_on_c, 0, 71, 0
2, 301440, Note_on_c, 0, 76, 96
2, 301440, Note_on_c, 0, 81, 96
2, 301440, Note_on_c, 0, 84, 96
2, 301440, Note_on_c, 0, 88, 96
2, 301800, Note_on_c, 0, 88, 0
2, 301800, Note_on_c, 0, 76, 0
2, 301800, Note_on_c, 0, 81, 0
2, 301800, Note_on_c, 0, 84, 0
2, 301800, Note_on_c, 0, 76, 96
2, 301800, Note_on_c, 0, 88, 96
2, 301920, Note_on_c, 0, 88, 0
2, 301920, Note_on_c, 0, 76, 0
2, 301920, Note_on_c, 0, 74, 96
2, 301920, Note_on_c, 0, 76, 96
2, 301920, Note_on_c, 0, 83, 96
2, 301920, Note_on_c, 0, 86, 96
2, 302400, Note_on_c, 0, 86, 0
2, 302400, Note_on_c, 0, 74, 0
2, 302400, Note_on_c, 0, 76, 0
2, 302400, Note_on_c, 0, 83, 0
2, 302400, Note_on_c, 0, 72, 96
2, 302400, Note_on_c, 0, 76, 96
2, 302400, Note_on_c, 0, 81, 96
2, 302400, Note_on_c, 0, 84, 96
2, 302760, Note_on_c, 0, 84, 0
2, 302760, Note_on_c, 0, 72, 0
2, 302760, Note_on_c, 0, 76, 0
2, 302760, Note_on_c, 0, 81, 0
2, 302760, Note_on_c, 0, 72, 96
2, 302760, Note_on_c, 0, 84, 96
2, 302880, Note_on_c, 0, 84, 0
2, 302880, Note_on_c, 0, 72, 0
2, 302880, Note_on_c, 0, 71, 96
2, 302880, Note_on_c, 0, 76, 96
2, 302880, Note_on_c, 0, 79, 96
2, 302880, Note_on_c, 0, 83, 96
2, 303360, Note_on_c, 0, 83, 0
2, 303360, Note_on_c, 0, 71, 0
2, 303360, Note_on_c, 0, 76, 0
2, 303360, Note_on_c, 0, 79, 0
2, 303360, Note_on_c, 0, 69, 96
2, 303360, Note_on_c, 0, 76, 96
2, 303360, Note_on_c, 0, 81, 96
2, 303720, Note_on_c, 0, 81, 0
2, 303720, Note_on_c, 0, 76, 0
2, 303720, Note_on_c, 0, 69, 0
2, 303720, Note_on_c, 0, 69, 96
2, 303720, Note_on_c, 0, 81, 96
2, 303840, Note_on_c, 0, 81, 0
2, 303840, Note_on_c, 0, 69, 0
2, 303840, Note_on_c, 0, 67, 96
2, 303840, Note_on_c, 0, 70, 96
2, 303840, Note_on_c, 0, 76, 96
2, 303840, Note_on_c, 0, 79, 96
2, 304320, Note_on_c, 0, 79, 0
2, 304320, Note_on_c, 0, 67, 0
2, 304320, Note_on_c, 0, 70, 0
2, 304320, Note_on_c, 0, 76, 0
2, 304320, Note_on_c, 0, 67, 96
2, 304320, Note_on_c, 0, 71, 96
2, 304320, Note_on_c, 0, 74, 96
2, 304800, Note_on_c, 0, 74, 0
2, 304800, Note_on_c, 0, 71, 0
2, 304800, Note_on_c, 0, 67, 0
2, 304800, Note_on_c, 0, 67, 96
2, 304800, Note_on_c, 0, 71, 96
2, 304800, Note_on_c, 0, 74, 96
2, 304800, Note_on_c, 0, 79, 96
2, 305280, Note_on_c, 0, 79, 0
2, 305280, Note_on_c, 0, 67, 0
2, 305280, Note_on_c, 0, 69, 96
2, 305280, Note_on_c, 0, 81, 96
2, 305760, Note_on_c, 0, 81, 0
2, 305760, Note_on_c, 0, 71, 0
2, 305760, Note_on_c, 0, 74, 0
2, 305760, Note_on_c, 0, 69, 0
2, 305760, Note_on_c, 0, 71, 96
2, 305760, Note_on_c, 0, 76, 96
2, 305760, Note_on_c, 0, 83, 96
2, 306240, Note_on_c, 0, 83, 0
2, 306240, Note_on_c, 0, 76, 0
2, 306240, Note_on_c, 0, 71, 0
2, 306240, Note_on_c, 0, 77, 96
2, 306240, Note_on_c, 0, 89, 96
2, 306480, Note_on_c, 0, 89, 0
2, 306480, Note_on_c, 0, 77, 0
2, 306480, Note_on_c, 0, 76, 96
2, 306480, Note_on_c, 0, 88, 96
2, 306720, Note_on_c, 0, 88, 0
2, 306720, Note_on_c, 0, 76, 0
2, 306720, Note_on_c, 0, 74, 96
2, 306720, Note_on_c, 0, 86, 96
2, 307200, Note_on_c, 0, 86, 0
2, 307200, Note_on_c, 0, 74, 0
2, 307200, Note_on_c, 0, 76, 96
2, 307200, Note_on_c, 0, 84, 96
2, 307200, Note_on_c, 0, 88, 96
2, 307440, Note_on_c, 0, 88, 0
2, 307440, Note_on_c, 0, 84, 0
2, 307440, Note_on_c, 0, 76, 0
2, 307440, Note_on_c, 0, 74, 96
2, 307440, Note_on_c, 0, 86, 96
2, 307680, Note_on_c, 0, 86, 0
2, 307680, Note_on_c, 0, 74, 0
2, 307680, Note_on_c, 0, 72, 96
2, 307680, Note_on_c, 0, 84, 96
2, 308160, Note_on_c, 0, 84, 0
2, 308160, Note_on_c, 0, 72, 0
2, 308160, Note_on_c, 0, 71, 96
2, 308160, Note_on_c, 0, 83, 96
2, 308400, Note_on_c, 0, 83, 0
2, 308400, Note_on_c, 0, 71, 0
2, 308400, Note_on_c, 0, 69, 96
2, 308400, Note_on_c, 0, 81, 96
2, 308640, Note_on_c, 0, 81, 0
2, 308640, Note_on_c, 0, 69, 0
2, 308640, Note_on_c, 0, 67, 96
2, 308640, Note_on_c, 0, 79, 96
2, 309120, Note_on_c, 0, 79, 0
2, 309120, Note_on_c, 0, 67, 0
2, 309120, Note_on_c, 0, 66, 96
2, 309120, Note_on_c, 0, 78, 96
2, 309360, Note_on_c, 0, 78, 0
2, 309360, Note_on_c, 0, 66, 0
2, 309360, Note_on_c, 0, 64, 96
2, 309360, Note_on_c, 0, 76, 96
2, 309600, Note_on_c, 0, 76, 0
2, 309600, Note_on_c, 0, 64, 0
2, 309600, Note_on_c, 0, 62, 96
2, 309600, Note_on_c, 0, 74, 96
2, 310080, Note_on_c, 0, 74, 0
2, 310080, Note_on_c, 0, 62, 0
2, 310080, Note_on_c, 0, 62, 96
2, 310080, Note_on_c, 0, 67, 96
2, 310080, Note_on_c, 0, 71, 96
2, 310080, Note_on_c, 0, 74, 96
2, 310560, Note_on_c, 0, 74, 0
2, 310560, Note_on_c, 0, 62, 0
2, 310560, Note_on_c, 0, 67, 0
2, 310560, Note_on_c, 0, 71, 0
2, 310560, Note_on_c, 0, 67, 96
2, 310560, Note_on_c, 0, 71, 96
2, 310560, Note_on_c, 0, 74, 96
2, 310560, Note_on_c, 0, 79, 96
2, 311040, Note_on_c, 0, 79, 0
2, 311040, Note_on_c, 0, 67, 0
2, 311040, Note_on_c, 0, 71, 0
2, 311040, Note_on_c, 0, 74, 0
2, 311040, Note_on_c, 0, 69, 96
2, 311040, Note_on_c, 0, 71, 96
2, 311040, Note_on_c, 0, 74, 96
2, 311040, Note_on_c, 0, 81, 96
2, 311520, Note_on_c, 0, 81, 0
2, 311520, Note_on_c, 0, 69, 0
2, 311520, Note_on_c, 0, 71, 0
2, 311520, Note_on_c, 0, 74, 0
2, 311520, Note_on_c, 0, 71, 96
2, 311520, Note_on_c, 0, 74, 96
2, 311520, Note_on_c, 0, 79, 96
2, 311520, Note_on_c, 0, 83, 96
2, 312000, Note_on_c, 0, 83, 0
2, 312000, Note_on_c, 0, 71, 0
2, 312000, Note_on_c, 0, 74, 0
2, 312000, Note_on_c, 0, 79, 0
2, 312000, Note_on_c, 0, 78, 96
2, 312000, Note_on_c, 0, 83, 96
2, 312000, Note_on_c, 0, 86, 96
2, 312000, Note_on_c, 0, 90, 96
2, 312240, Note_on_c, 0, 90, 0
2, 312240, Note_on_c, 0, 78, 0
2, 312240, Note_on_c, 0, 83, 0
2, 312240, Note_on_c, 0, 86, 0
2, 312240, Note_on_c, 0, 76, 96
2, 312240, Note_on_c, 0, 88, 96
2, 312480, Note_on_c, 0, 88, 0
2, 312480, Note_on_c, 0, 76, 0
2, 312480, Note_on_c, 0, 74, 96
2, 312480, Note_on_c, 0, 79, 96
2, 312480, Note_on_c, 0, 83, 96
2, 312480, Note_on_c, 0, 86, 96
2, 312960, Note_on_c, 0, 86, 0
2, 312960, Note_on_c, 0, 74, 0
2, 312960, Note_on_c, 0, 79, 0
2, 312960, Note_on_c, 0, 83, 0
2, 312960, Note_on_c, 0, 62, 96
2, 312960, Note_on_c, 0, 67, 96
2, 312960, Note_on_c, 0, 71, 96
2, 312960, Note_on_c, 0, 74, 96
2, 313440, Note_on_c, 0, 74, 0
2, 313440, Note_on_c, 0, 62, 0
2, 313440, Note_on_c, 0, 67, 0
2, 313440, Note_on_c, 0, 71, 0
2, 313440, Note_on_c, 0, 67, 96
2, 313440, Note_on_c, 0, 71, 96
2, 313440, Note_on_c, 0, 74, 96
2, 313440, Note_on_c, 0, 79, 96
2, 313920, Note_on_c, 0, 79, 0
2, 313920, Note_on_c, 0, 67, 0
2, 313920, Note_on_c, 0, 71, 0
2, 313920, Note_on_c, 0, 74, 0
2, 313920, Note_on_c, 0, 69, 96
2, 313920, Note_on_c, 0, 71, 96
2, 313920, Note_on_c, 0, 74, 96
2, 313920, Note_on_c, 0, 81, 96
2, 314400, Note_on_c, 0, 81, 0
2, 314400, Note_on_c, 0, 69, 0
2, 314400, Note_on_c, 0, 71, 0
2, 314400, Note_on_c, 0, 74, 0
2, 314400, Note_on_c, 0, 71, 96
2, 314400, Note_on_c, 0, 74, 96
2, 314400, Note_on_c, 0, 79, 96
2, 314400, Note_on_c, 0, 83, 96
2, 314880, Note_on_c, 0, 83, 0
2, 314880, Note_on_c, 0, 71, 0
2, 314880, Note_on_c, 0, 74, 0
2, 314880, Note_on_c, 0, 79, 0
2, 314880, Note_on_c, 0, 78, 96
2, 314880, Note_on_c, 0, 84, 96
2, 314880, Note_on_c, 0, 86, 96
2, 314880, Note_on_c, 0, 90, 96
2, 315120, Note_on_c, 0, 90, 0
2, 315120, Note_on_c, 0, 78, 0
2, 315120, Note_on_c, 0, 84, 0
2, 315120, Note_on_c, 0, 86, 0
2, 315120, Note_on_c, 0, 76, 96
2, 315120, Note_on_c, 0, 88, 96
2, 315360, Note_on_c, 0, 88, 0
2, 315360, Note_on_c, 0, 76, 0
2, 315360, Note_on_c, 0, 74, 96
2, 315360, Note_on_c, 0, 84, 96
2, 315360, Note_on_c, 0, 86, 96
2, 315840, Note_on_c, 0, 86, 0
2, 315840, Note_on_c, 0, 84, 0
2, 315840, Note_on_c, 0, 74, 0
2, 315840, Note_on_c, 0, 62, 96
2, 315840, Note_on_c, 0, 67, 96
2, 315840, Note_on_c, 0, 71, 96
2, 315840, Note_on_c, 0, 74, 96
2, 316320, Note_on_c, 0, 74, 0
2, 316320, Note_on_c, 0, 62, 0
2, 316320, Note_on_c, 0, 67, 0
2, 316320, Note_on_c, 0, 71, 0
2, 316320, Note_on_c, 0, 67, 96
2, 316320, Note_on_c, 0, 71, 96
2, 316320, Note_on_c, 0, 74, 96
2, 316320, Note_on_c, 0, 79, 96
2, 316800, Note_on_c, 0, 79, 0
2, 316800, Note_on_c, 0, 67, 0
2, 316800, Note_on_c, 0, 71, 0
2, 316800, Note_on_c, 0, 74, 0
2, 316800, Note_on_c, 0, 69, 96
2, 316800, Note_on_c, 0, 71, 96
2, 316800, Note_on_c, 0, 74, 96
2, 316800, Note_on_c, 0, 81, 96
2, 317280, Note_on_c, 0, 81, 0
2, 317280, Note_on_c, 0, 69, 0
2, 317280, Note_on_c, 0, 71, 0
2, 317280, Note_on_c, 0, 74, 0
2, 317280, Note_on_c, 0, 71, 96
2, 317280, Note_on_c, 0, 74, 96
2, 317280, Note_on_c, 0, 79, 96
2, 317280, Note_on_c, 0, 83, 96
2, 317760, Note_on_c, 0, 83, 0
2, 317760, Note_on_c, 0, 71, 0
2, 317760, Note_on_c, 0, 74, 0
2, 317760, Note_on_c, 0, 79, 0
2, 317760, Note_on_c, 0, 78, 96
2, 317760, Note_on_c, 0, 83, 96
2, 317760, Note_on_c, 0, 86, 96
2, 317760, Note_on_c, 0, 90, 96
2, 318000, Note_on_c, 0, 90, 0
2, 318000, Note_on_c, 0, 78, 0
2, 318000, Note_on_c, 0, 83, 0
2, 318000, Note_on_c, 0, 86, 0
2, 318000, Note_on_c, 0, 76, 96
2, 318000, Note_on_c, 0, 88, 96
2, 318240, Note_on_c, 0, 88, 0
2, 318240, Note_on_c, 0, 76, 0
2, 318240, Note_on_c, 0, 74, 96
2, 318240, Note_on_c, 0, 79, 96
2, 318240, Note_on_c, 0, 83, 96
2, 318240, Note_on_c, 0, 86, 96
2, 318720, Note_on_c, 0, 86, 0
2, 318720, Note_on_c, 0, 74, 0
2, 318720, Note_on_c, 0, 79, 0
2, 318720, Note_on_c, 0, 83, 0
2, 318720, Note_on_c, 0, 62, 96
2, 318720, Note_on_c, 0, 67, 96
2, 318720, Note_on_c, 0, 71, 96
2, 318720, Note_on_c, 0, 74, 96
2, 319200, Note_on_c, 0, 74, 0
2, 319200, Note_on_c, 0, 62, 0
2, 319200, Note_on_c, 0, 67, 0
2, 319200, Note_on_c, 0, 71, 0
2, 319200, Note_on_c, 0, 67, 96
2, 319200, Note_on_c, 0, 71, 96
2, 319200, Note_on_c, 0, 74, 96
2, 319200, Note_on_c, 0, 79, 96
2, 319680, Note_on_c, 0, 79, 0
2, 319680, Note_on_c, 0, 67, 0
2, 319680, Note_on_c, 0, 71, 0
2, 319680, Note_on_c, 0, 74, 0
2, 319680, Note_on_c, 0, 69, 96
2, 319680, Note_on_c, 0, 71, 96
2, 319680, Note_on_c, 0, 74, 96
2, 319680, Note_on_c, 0, 81, 96
2, 320160, Note_on_c, 0, 81, 0
2, 320160, Note_on_c, 0, 69, 0
2, 320160, Note_on_c, 0, 71, 0
2, 320160, Note_on_c, 0, 74, 0
2, 320160, Note_on_c, 0, 71, 96
2, 320160, Note_on_c, 0, 74, 96
2, 320160, Note_on_c, 0, 79, 96
2, 320160, Note_on_c, 0, 83, 96
2, 320640, Note_on_c, 0, 83, 0
2, 320640, Note_on_c, 0, 71, 0
2, 320640, Note_on_c, 0, 74, 0
2, 320640, Note_on_c, 0, 79, 0
2, 320640, Note_on_c, 0, 78, 96
2, 320640, Note_on_c, 0, 84, 96
2, 320640, Note_on_c, 0, 86, 96
2, 320640, Note_on_c, 0, 90, 96
2, 320880, Note_on_c, 0, 90, 0
2, 320880, Note_on_c, 0, 78, 0
2, 320880, Note_on_c, 0, 84, 0
2, 320880, Note_on_c, 0, 86, 0
2, 320880, Note_on_c, 0, 76, 96
2, 320880, Note_on_c, 0, 88, 96
2, 321120, Note_on_c, 0, 88, 0
2, 321120, Note_on_c, 0, 76, 0
2, 321120, Note_on_c, 0, 74, 96
2, 321120, Note_on_c, 0, 84, 96
2, 321120, Note_on_c, 0, 86, 96
2, 321600, Note_on_c, 0, 86, 0
2, 321600, Note_on_c, 0, 84, 0
2, 321600, Note_on_c, 0, 74, 0
2, 321600, Note_on_c, 0, 78, 96
2, 321600, Note_on_c, 0, 90, 96
2, 321840, Note_on_c, 0, 90, 0
2, 321840, Note_on_c, 0, 78, 0
2, 321840, Note_on_c, 0, 76, 96
2, 321840, Note_on_c, 0, 88, 96
2, 322080, Note_on_c, 0, 88, 0
2, 322080, Note_on_c, 0, 76, 0
2, 322080, Note_on_c, 0, 74, 96
2, 322080, Note_on_c, 0, 86, 96
2, 322560, Note_on_c, 0, 86, 0
2, 322560, Note_on_c, 0, 74, 0
2, 322560, Note_on_c, 0, 78, 96
2, 322560, Note_on_c, 0, 90, 96
2, 322800, Note_on_c, 0, 90, 0
2, 322800, Note_on_c, 0, 78, 0
2, 322800, Note_on_c, 0, 76, 96
2, 322800, Note_on_c, 0, 88, 96
2, 323040, Note_on_c, 0, 88, 0
2, 323040, Note_on_c, 0, 76, 0
2, 323040, Note_on_c, 0, 74, 96
2, 323040, Note_on_c, 0, 86, 96
2, 323520, Note_on_c, 0, 86, 0
2, 323520, Note_on_c, 0, 74, 0
2, 323520, Note_on_c, 0, 78, 96
2, 323520, Note_on_c, 0, 90, 96
2, 323760, Note_on_c, 0, 90, 0
2, 323760, Note_on_c, 0, 78, 0
2, 323760, Note_on_c, 0, 76, 96
2, 323760, Note_on_c, 0, 88, 96
2, 324000, Note_on_c, 0, 88, 0
2, 324000, Note_on_c, 0, 76, 0
2, 324000, Note_on_c, 0, 74, 96
2, 324000, Note_on_c, 0, 86, 96
2, 324480, Note_on_c, 0, 86, 0
2, 324480, Note_on_c, 0, 74, 0
2, 324480, Note_on_c, 0, 78, 96
2, 324480, Note_on_c, 0, 90, 96
2, 324720, Note_on_c, 0, 90, 0
2, 324720, Note_on_c, 0, 78, 0
2, 324720, Note_on_c, 0, 76, 96
2, 324720, Note_on_c, 0, 88, 96
2, 324960, Note_on_c, 0, 88, 0
2, 324960, Note_on_c, 0, 76, 0
2, 324960, Note_on_c, 0, 74, 96
2, 324960, Note_on_c, 0, 86, 96
2, 325440, Note_on_c, 0, 86, 0
2, 325440, Note_on_c, 0, 74, 0
2, 325440, Note_on_c, 0, 78, 96
2, 325440, Note_on_c, 0, 90, 96
2, 325680, Note_on_c, 0, 90, 0
2, 325680, Note_on_c, 0, 78, 0
2, 325680, Note_on_c, 0, 76, 96
2, 325680, Note_on_c, 0, 88, 96
2, 325920, Note_on_c, 0, 88, 0
2, 325920, Note_on_c, 0, 76, 0
2, 325920, Note_on_c, 0, 74, 96
2, 325920, Note_on_c, 0, 86, 96
2, 326400, Note_on_c, 0, 86, 0
2, 326400, Note_on_c, 0, 74, 0
2, 326400, Note_on_c, 0, 78, 96
2, 326400, Note_on_c, 0, 90, 96
2, 326640, Note_on_c, 0, 90, 0
2, 326640, Note_on_c, 0, 78, 0
2, 326640, Note_on_c, 0, 76, 96
2, 326640, Note_on_c, 0, 88, 96
2, 326880, Note_on_c, 0, 88, 0
2, 326880, Note_on_c, 0, 76, 0
2, 326880, Note_on_c, 0, 74, 96
2, 326880, Note_on_c, 0, 86, 96
2, 327360, Note_on_c, 0, 86, 0
2, 327360, Note_on_c, 0, 74, 0
2, 327360, Note_on_c, 0, 79, 96
2, 327360, Note_on_c, 0, 83, 96
2, 327360, Note_on_c, 0, 86, 96
2, 327360, Note_on_c, 0, 91, 96
2, 327840, Note_on_c, 0, 91, 0
2, 327840, Note_on_c, 0, 79, 0
2, 327840, Note_on_c, 0, 83, 0
2, 327840, Note_on_c, 0, 86, 0
2, 327840, Note_on_c, 0, 76, 96
2, 327840, Note_on_c, 0, 83, 96
2, 327840, Note_on_c, 0, 88, 96
2, 328320, Note_on_c, 0, 88, 0
2, 328320, Note_on_c, 0, 83, 0
2, 328320, Note_on_c, 0, 76, 0
2, 328320, Note_on_c, 0, 74, 96
2, 328320, Note_on_c, 0, 83, 96
2, 328320, Note_on_c, 0, 86, 96
2, 328800, Note_on_c, 0, 86, 0
2, 328800, Note_on_c, 0, 83, 0
2, 328800, Note_on_c, 0, 74, 0
2, 328800, Note_on_c, 0, 71, 96
2, 328800, Note_on_c, 0, 74, 96
2, 328800, Note_on_c, 0, 79, 96
2, 328800, Note_on_c, 0, 83, 96
2, 329280, Note_on_c, 0, 83, 0
2, 329280, Note_on_c, 0, 71, 0
2, 329280, Note_on_c, 0, 74, 0
2, 329280, Note_on_c, 0, 79, 0
2, 329280, Note_on_c, 0, 67, 96
2, 329280, Note_on_c, 0, 71, 96
2, 329280, Note_on_c, 0, 74, 96
2, 329280, Note_on_c, 0, 79, 96
2, 329760, Note_on_c, 0, 79, 0
2, 329760, Note_on_c, 0, 67, 0
2, 329760, Note_on_c, 0, 71, 0
2, 329760, Note_on_c, 0, 74, 0
2, 329760, Note_on_c, 0, 64, 96
2, 329760, Note_on_c, 0, 71, 96
2, 329760, Note_on_c, 0, 76, 96
2, 330240, Note_on_c, 0, 76, 0
2, 330240, Note_on_c, 0, 71, 0
2, 330240, Note_on_c, 0, 64, 0
2, 330240, Note_on_c, 0, 62, 96
2, 330240, Note_on_c, 0, 67, 96
2, 330240, Note_on_c, 0, 71, 96
2, 330240, Note_on_c, 0, 74, 96
2, 330720, Note_on_c, 0, 74, 0
2, 330720, Note_on_c, 0, 62, 0
2, 330720, Note_on_c, 0, 67, 0
2, 330720, Note_on_c, 0, 71, 0
2, 330720, Note_on_c, 0, 59, 96
2, 330720, Note_on_c, 0, 62, 96
2, 330720, Note_on_c, 0, 67, 96
2, 330720, Note_on_c, 0, 71, 96
2, 331200, Note_on_c, 0, 71, 0
2, 331200, Note_on_c, 0, 59, 0
2, 331200, Note_on_c, 0, 62, 0
2, 331200, Note_on_c, 0, 67, 0
2, 331200, Note_on_c, 0, 62, 96
2, 331200, Note_on_c, 0, 67, 96
2, 331200, Note_on_c, 0, 71, 96
2, 331200, Note_on_c, 0, 74, 96
2, 331680, Note_on_c, 0, 74, 0
2, 331680, Note_on_c, 0, 62, 0
2, 331680, Note_on_c, 0, 67, 0
2, 331680, Note_on_c, 0, 71, 0
2, 331680, Note_on_c, 0, 67, 122
2, 331680, Note_on_c, 0, 71, 122
2, 331680, Note_on_c, 0, 74, 122
2, 331680, Note_on_c, 0, 79, 122
2, 332160, Note_on_c, 0, 79, 0
2, 332160, Note_on_c, 0, 67, 0
2, 332160, Note_on_c, 0, 71, 0
2, 332160, Note_on_c, 0, 74, 0
2, 332160, Control_c, 0, 64, 127
2, 335040, Control_c, 0, 64, 0
2, 335040, End_track
3, 0, Start_track
3, 0, Title_t, "Grand Piano"
3, 0, Program_c, 0, 0
3, 0, Control_c, 0, 7, 115
3, 0, Control_c, 0, 10, 79
3, 16800, Note_on_c, 0, 82, 93
3, 17280, Note_on_c, 0, 82, 0
3, 17280, Note_on_c, 0, 83, 93
3, 17520, Note_on_c, 0, 83, 0
3, 39840, Note_on_c, 0, 82, 93
3, 40320, Note_on_c, 0, 82, 0
3, 40320, Note_on_c, 0, 83, 93
3, 40560, Note_on_c, 0, 83, 0
3, 108960, Note_on_c, 0, 82, 93
3, 109440, Note_on_c, 0, 82, 0
3, 109440, Note_on_c, 0, 83, 93
3, 109680, Note_on_c, 0, 83, 0
3, 135240, Control_c, 0, 64, 127
3, 135240, Note_on_c, 0, 74, 54
3, 135240, Note_on_c, 0, 77, 54
3, 135360, Note_on_c, 0, 77, 0
3, 135360, Note_on_c, 0, 74, 0
3, 135360, Note_on_c, 0, 71, 54
3, 135360, Note_on_c, 0, 74, 54
3, 135720, Note_on_c, 0, 74, 0
3, 135720, Note_on_c, 0, 71, 0
3, 135720, Note_on_c, 0, 69, 54
3, 135720, Note_on_c, 0, 72, 54
3, 135840, Note_on_c, 0, 72, 0
3, 135840, Note_on_c, 0, 69, 0
3, 135840, Control_c, 0, 64, 0
3, 135840, Note_on_c, 0, 67, 54
3, 135840, Note_on_c, 0, 71, 54
3, 136080, Note_on_c, 0, 71, 0
3, 136080, Note_on_c, 0, 67, 0
3, 137640, Note_on_c, 0, 69, 54
3, 137760, Note_on_c, 0, 69, 0
3, 141000, Control_c, 0, 64, 127
3, 141000, Note_on_c, 0, 71, 54
3, 141000, Note_on_c, 0, 74, 54
3, 141120, Note_on_c, 0, 74, 0
3, 141120, Note_on_c, 0, 71, 0
3, 141120, Note_on_c, 0, 68, 54
3, 141120, Note_on_c, 0, 71, 54
3, 141480, Note_on_c, 0, 71, 0
3, 141480, Note_on_c, 0, 68, 0
3, 141480, Note_on_c, 0, 65, 54
3, 141480, Note_on_c, 0, 69, 54
3, 141600, Note_on_c, 0, 69, 0
3, 141600, Note_on_c, 0, 65, 0
3, 141600, Control_c, 0, 64, 0
3, 141600, Note_on_c, 0, 62, 54
3, 141600, Note_on_c, 0, 65, 54
3, 141840, Note_on_c, 0, 65, 0
3, 141840, Note_on_c, 0, 62, 0
3, 143400, Control_c, 0, 64, 127
3, 143400, Note_on_c, 0, 64, 54
3, 143520, Note_on_c, 0, 64, 0
3, 143520, Note_on_c, 0, 65, 54
3, 143880, Note_on_c, 0, 65, 0
3, 143880, Note_on_c, 0, 64, 54
3, 143880, Note_on_c, 0, 67, 54
3, 144000, Note_on_c, 0, 67, 0
3, 144000, Note_on_c, 0, 64, 0
3, 144000, Note_on_c, 0, 65, 54
3, 144000, Note_on_c, 0, 68, 54
3, 144360, Note_on_c, 0, 68, 0
3, 144360, Note_on_c, 0, 65, 0
3, 144360, Control_c, 0, 64, 0
3, 144360, Note_on_c, 0, 64, 54
3, 144360, Note_on_c, 0, 67, 54
3, 144480, Note_on_c, 0, 67, 0
3, 144480, Note_on_c, 0, 64, 0
3, 147360, Note_on_c, 0, 64, 54
3, 147840, Note_on_c, 0, 64, 0
3, 148320, Note_on_c, 0, 64, 54
3, 148800, Note_on_c, 0, 64, 0
3, 148800, Note_on_c, 0, 63, 54
3, 149760, Note_on_c, 0, 63, 0
3, 149760, Note_on_c, 0, 62, 54
3, 150240, Note_on_c, 0, 62, 0
3, 153120, Note_on_c, 0, 64, 54
3, 153600, Note_on_c, 0, 64, 0
3, 154080, Note_on_c, 0, 64, 54
3, 154560, Note_on_c, 0, 64, 0
3, 154560, Note_on_c, 0, 63, 54
3, 155040, Note_on_c, 0, 63, 0
3, 155040, Note_on_c, 0, 62, 54
3, 155040, Note_on_c, 0, 64, 54
3, 155520, Note_on_c, 0, 62, 0
3, 155520, Note_on_c, 0, 60, 54
3, 156000, Note_on_c, 0, 60, 0
3, 156000, Note_on_c, 0, 64, 0
3, 169800, Control_c, 0, 64, 127
3, 169800, Note_on_c, 0, 74, 54
3, 169800, Note_on_c, 0, 77, 54
3, 169920, Note_on_c, 0, 77, 0
3, 169920, Note_on_c, 0, 74, 0
3, 169920, Note_on_c, 0, 71, 54
3, 169920, Note_on_c, 0, 74, 54
3, 170280, Note_on_c, 0, 74, 0
3, 170280, Note_on_c, 0, 71, 0
3, 170280, Note_on_c, 0, 69, 54
3, 170280, Note_on_c, 0, 72, 54
3, 170400, Note_on_c, 0, 72, 0
3, 170400, Note_on_c, 0, 69, 0
3, 170400, Control_c, 0, 64, 0
3, 170400, Note_on_c, 0, 67, 54
3, 170400, Note_on_c, 0, 71, 54
3, 170640, Note_on_c, 0, 71, 0
3, 170640, Note_on_c, 0, 67, 0
3, 172200, Note_on_c, 0, 69, 54
3, 172320, Note_on_c, 0, 69, 0
3, 175560, Control_c, 0, 64, 127
3, 175560, Note_on_c, 0, 71, 54
3, 175560, Note_on_c, 0, 74, 54
3, 175680, Note_on_c, 0, 74, 0
3, 175680, Note_on_c, 0, 71, 0
3, 175680, Note_on_c, 0, 68, 54
3, 175680, Note_on_c, 0, 71, 54
3, 176040, Note_on_c, 0, 71, 0
3, 176040, Note_on_c, 0, 68, 0
3, 176040, Note_on_c, 0, 65, 54
3, 176040, Note_on_c, 0, 69, 54
3, 176160, Note_on_c, 0, 69, 0
3, 176160, Note_on_c, 0, 65, 0
3, 176160, Control_c, 0, 64, 0
3, 176160, Note_on_c, 0, 62, 54
3, 176160, Note_on_c, 0, 65, 54
3, 176400, Note_on_c, 0, 65, 0
3, 176400, Note_on_c, 0, 62, 0
3, 177960, Control_c, 0, 64, 127
3, 177960, Note_on_c, 0, 64, 54
3, 178080, Note_on_c, 0, 64, 0
3, 178080, Note_on_c, 0, 65, 54
3, 178440, Note_on_c, 0, 65, 0
3, 178440, Note_on_c, 0, 64, 54
3, 178440, Note_on_c, 0, 67, 54
3, 178560, Note_on_c, 0, 67, 0
3, 178560, Note_on_c, 0, 64, 0
3, 178560, Note_on_c, 0, 65, 54
3, 178560, Note_on_c, 0, 68, 54
3, 178920, Note_on_c, 0, 68, 0
3, 178920, Note_on_c, 0, 65, 0
3, 178920, Control_c, 0, 64, 0
3, 178920, Note_on_c, 0, 64, 54
3, 178920, Note_on_c, 0, 67, 54
3, 179040, Note_on_c, 0, 67, 0
3, 179040, Note_on_c, 0, 64, 0
3, 179040, Note_on_c, 0, 59, 80
3, 179520, Note_on_c, 0, 59, 0
3, 179520, Note_on_c, 0, 60, 80
3, 180480, Note_on_c, 0, 60, 0
3, 180480, Note_on_c, 0, 62, 80
3, 180960, Note_on_c, 0, 62, 0
3, 180960, Note_on_c, 0, 70, 80
3, 181440, Note_on_c, 0, 70, 0
3, 181440, Note_on_c, 0, 69, 80
3, 181920, Note_on_c, 0, 69, 0
3, 181920, Note_on_c, 0, 62, 80
3, 182880, Note_on_c, 0, 62, 0
3, 182880, Note_on_c, 0, 63, 80
3, 183360, Note_on_c, 0, 63, 0
3, 183360, Note_on_c, 0, 62, 80
3, 183840, Note_on_c, 0, 62, 0
3, 183840, Note_on_c, 0, 67, 80
3, 184320, Note_on_c, 0, 67, 0
3, 184320, Note_on_c, 0, 66, 80
3, 184800, Note_on_c, 0, 66, 0
3, 184800, Note_on_c, 0, 59, 80
3, 185280, Note_on_c, 0, 59, 0
3, 185280, Note_on_c, 0, 60, 80
3, 186240, Note_on_c, 0, 60, 0
3, 186240, Note_on_c, 0, 62, 80
3, 186720, Note_on_c, 0, 62, 0
3, 186720, Note_on_c, 0, 70, 80
3, 187200, Note_on_c, 0, 70, 0
3, 187200, Note_on_c, 0, 69, 80
3, 187680, Note_on_c, 0, 69, 0
3, 187680, Note_on_c, 0, 62, 80
3, 188640, Note_on_c, 0, 62, 0
3, 188640, Note_on_c, 0, 63, 80
3, 189120, Note_on_c, 0, 63, 0
3, 189120, Note_on_c, 0, 62, 80
3, 189600, Note_on_c, 0, 62, 0
3, 189600, Note_on_c, 0, 60, 80
3, 190080, Note_on_c, 0, 60, 0
3, 190080, Note_on_c, 0, 59, 80
3, 190560, Note_on_c, 0, 59, 0
3, 190560, Note_on_c, 0, 59, 80
3, 191040, Note_on_c, 0, 59, 0
3, 191040, Note_on_c, 0, 60, 80
3, 192000, Note_on_c, 0, 60, 0
3, 192000, Note_on_c, 0, 62, 80
3, 192480, Note_on_c, 0, 62, 0
3, 192480, Note_on_c, 0, 70, 80
3, 192960, Note_on_c, 0, 70, 0
3, 192960, Note_on_c, 0, 69, 80
3, 193440, Note_on_c, 0, 69, 0
3, 193440, Note_on_c, 0, 62, 80
3, 194400, Note_on_c, 0, 62, 0
3, 194400, Note_on_c, 0, 63, 80
3, 194880, Note_on_c, 0, 63, 0
3, 194880, Note_on_c, 0, 62, 80
3, 195360, Note_on_c, 0, 62, 0
3, 195360, Note_on_c, 0, 67, 80
3, 195840, Note_on_c, 0, 67, 0
3, 195840, Note_on_c, 0, 66, 80
3, 196320, Note_on_c, 0, 66, 0
3, 196320, Note_on_c, 0, 59, 80
3, 196800, Note_on_c, 0, 59, 0
3, 196800, Note_on_c, 0, 60, 80
3, 197760, Note_on_c, 0, 60, 0
3, 197760, Note_on_c, 0, 62, 80
3, 198240, Note_on_c, 0, 62, 0
3, 198240, Note_on_c, 0, 70, 80
3, 198720, Note_on_c, 0, 70, 0
3, 198720, Note_on_c, 0, 69, 80
3, 199200, Note_on_c, 0, 69, 0
3, 199200, Note_on_c, 0, 62, 80
3, 200160, Note_on_c, 0, 62, 0
3, 200160, Note_on_c, 0, 63, 80
3, 200640, Note_on_c, 0, 63, 0
3, 200640, Note_on_c, 0, 62, 80
3, 201120, Note_on_c, 0, 62, 0
3, 201120, Note_on_c, 0, 60, 80
3, 201600, Note_on_c, 0, 60, 0
3, 201600, Note_on_c, 0, 59, 80
3, 202080, Note_on_c, 0, 59, 0
3, 202080, Note_on_c, 0, 66, 80
3, 202560, Note_on_c, 0, 66, 0
3, 202560, Note_on_c, 0, 67, 80
3, 203520, Note_on_c, 0, 67, 0
3, 203520, Note_on_c, 0, 74, 80
3, 204000, Note_on_c, 0, 74, 0
3, 204000, Note_on_c, 0, 78, 80
3, 204480, Note_on_c, 0, 78, 0
3, 204480, Note_on_c, 0, 76, 80
3, 204960, Note_on_c, 0, 76, 0
3, 204960, Note_on_c, 0, 69, 80
3, 205920, Note_on_c, 0, 69, 0
3, 205920, Note_on_c, 0, 70, 80
3, 206400, Note_on_c, 0, 70, 0
3, 206400, Note_on_c, 0, 69, 80
3, 206880, Note_on_c, 0, 69, 0
3, 206880, Note_on_c, 0, 74, 80
3, 207360, Note_on_c, 0, 74, 0
3, 207360, Note_on_c, 0, 73, 80
3, 207840, Note_on_c, 0, 73, 0
3, 207840, Note_on_c, 0, 66, 80
3, 208320, Note_on_c, 0, 66, 0
3, 208320, Note_on_c, 0, 67, 80
3, 209280, Note_on_c, 0, 67, 0
3, 209280, Note_on_c, 0, 74, 80
3, 209760, Note_on_c, 0, 74, 0
3, 209760, Note_on_c, 0, 77, 80
3, 210240, Note_on_c, 0, 77, 0
3, 210240, Note_on_c, 0, 76, 80
3, 210720, Note_on_c, 0, 76, 0
3, 210720, Note_on_c, 0, 69, 80
3, 211680, Note_on_c, 0, 69, 0
3, 211680, Note_on_c, 0, 70, 80
3, 212160, Note_on_c, 0, 70, 0
3, 212160, Note_on_c, 0, 66, 80
3, 212640, Note_on_c, 0, 66, 0
3, 212640, Note_on_c, 0, 67, 80
3, 213120, Note_on_c, 0, 67, 0
3, 213120, Note_on_c, 0, 66, 80
3, 213600, Note_on_c, 0, 66, 0
3, 216480, Note_on_c, 0, 69, 67
3, 216480, Note_on_c, 0, 76, 67
3, 216960, Note_on_c, 0, 76, 0
3, 216960, Note_on_c, 0, 74, 67
3, 217440, Note_on_c, 0, 74, 0
3, 217440, Note_on_c, 0, 69, 0
3, 217440, Note_on_c, 0, 69, 67
3, 217440, Note_on_c, 0, 76, 67
3, 217920, Note_on_c, 0, 76, 0
3, 217920, Note_on_c, 0, 74, 67
3, 218400, Note_on_c, 0, 74, 0
3, 218400, Note_on_c, 0, 69, 0
3, 218400, Note_on_c, 0, 69, 67
3, 218400, Note_on_c, 0, 76, 67
3, 218880, Note_on_c, 0, 76, 0
3, 218880, Note_on_c, 0, 74, 67
3, 219360, Note_on_c, 0, 74, 0
3, 219360, Note_on_c, 0, 69, 0
3, 219360, Note_on_c, 0, 72, 67
3, 220320, Note_on_c, 0, 72, 0
3, 220320, Note_on_c, 0, 72, 67
3, 221280, Note_on_c, 0, 72, 0
3, 221280, Note_on_c, 0, 72, 67
3, 222240, Note_on_c, 0, 72, 0
3, 235680, Note_on_c, 0, 82, 93
3, 236160, Note_on_c, 0, 82, 0
3, 236160, Note_on_c, 0, 83, 93
3, 236400, Note_on_c, 0, 83, 0
3, 281760, Note_on_c, 0, 82, 93
3, 282240, Note_on_c, 0, 82, 0
3, 282240, Note_on_c, 0, 83, 93
3, 282480, Note_on_c, 0, 83, 0
3, 308160, Note_on_c, 0, 73, 93
3, 308160, Note_on_c, 0, 76, 93
3, 309120, Note_on_c, 0, 76, 0
3, 309120, Note_on_c, 0, 73, 0
3, 309120, Note_on_c, 0, 72, 93
3, 309120, Note_on_c, 0, 74, 93
3, 310080, Note_on_c, 0, 74, 0
3, 310080, Note_on_c, 0, 72, 0
3, 321600, Note_on_c, 0, 83, 93
3, 321600, Note_on_c, 0, 86, 93
3, 322560, Note_on_c, 0, 86, 0
3, 322560, Note_on_c, 0, 83, 0
3, 322560, Note_on_c, 0, 83, 93
3, 322560, Note_on_c, 0, 86, 93
3, 323520, Note_on_c, 0, 86, 0
3, 323520, Note_on_c, 0, 83, 0
3, 323520, Note_on_c, 0, 83, 93
3, 323520, Note_on_c, 0, 86, 93
3, 324480, Note_on_c, 0, 86, 0
3, 324480, Note_on_c, 0, 83, 0
3, 324480, Note_on_c, 0, 83, 93
3, 324480, Note_on_c, 0, 86, 93
3, 325440, Note_on_c, 0, 86, 0
3, 325440, Note_on_c, 0, 83, 0
3, 325440, Note_on_c, 0, 83, 93
3, 325440, Note_on_c, 0, 86, 93
3, 326400, Note_on_c, 0, 86, 0
3, 326400, Note_on_c, 0, 83, 0
3, 326400, Note_on_c, 0, 83, 93
3, 326400, Note_on_c, 0, 86, 93
3, 327360, Note_on_c, 0, 86, 0
3, 327360, Note_on_c, 0, 83, 0
3, 327360, End_track
4, 0, Start_track
4, 0, Title_t, "Grand Piano"
4, 0, Program_c, 0, 0
4, 0, Control_c, 0, 7, 115
4, 0, Control_c, 0, 10, 41
4, 0, Note_on_c, 0, 38, 83
4, 0, Note_on_c, 0, 45, 83
4, 0, Note_on_c, 0, 50, 83
4, 480, Note_on_c, 0, 50, 0
4, 480, Note_on_c, 0, 45, 0
4, 480, Note_on_c, 0, 38, 0
4, 480, Note_on_c, 0, 38, 83
4, 480, Note_on_c, 0, 45, 83
4, 480, Note_on_c, 0, 50, 83
4, 960, Note_on_c, 0, 50, 0
4, 960, Note_on_c, 0, 45, 0
4, 960, Note_on_c, 0, 38, 0
4, 1440, Note_on_c, 0, 38, 83
4, 1440, Note_on_c, 0, 45, 83
4, 1440, Note_on_c, 0, 50, 83
4, 1920, Note_on_c, 0, 50, 0
4, 1920, Note_on_c, 0, 45, 0
4, 1920, Note_on_c, 0, 38, 0
4, 1920, Note_on_c, 0, 38, 83
4, 1920, Note_on_c, 0, 45, 83
4, 1920, Note_on_c, 0, 50, 83
4, 2400, Note_on_c, 0, 50, 0
4, 2400, Note_on_c, 0, 45, 0
4, 2400, Note_on_c, 0, 38, 0
4, 2880, Note_on_c, 0, 38, 83
4, 2880, Note_on_c, 0, 45, 83
4, 2880, Note_on_c, 0, 50, 83
4, 3360, Note_on_c, 0, 50, 0
4, 3360, Note_on_c, 0, 45, 0
4, 3360, Note_on_c, 0, 38, 0
4, 3360, Note_on_c, 0, 38, 83
4, 3360, Note_on_c, 0, 45, 83
4, 3360, Note_on_c, 0, 50, 83
4, 3840, Note_on_c, 0, 50, 0
4, 3840, Note_on_c, 0, 45, 0
4, 3840, Note_on_c, 0, 38, 0
4, 3840, Note_on_c, 0, 38, 83
4, 3840, Note_on_c, 0, 45, 83
4, 3840, Note_on_c, 0, 50, 83
4, 4320, Note_on_c, 0, 50, 0
4, 4320, Note_on_c, 0, 45, 0
4, 4320, Note_on_c, 0, 38, 0
4, 4320, Note_on_c, 0, 38, 83
4, 4320, Note_on_c, 0, 45, 83
4, 4320, Note_on_c, 0, 50, 83
4, 4800, Note_on_c, 0, 50, 0
4, 4800, Note_on_c, 0, 45, 0
4, 4800, Note_on_c, 0, 38, 0
4, 6240, Note_on_c, 0, 43, 83
4, 6240, Note_on_c, 0, 55, 83
4, 7200, Note_on_c, 0, 55, 0
4, 7200, Note_on_c, 0, 43, 0
4, 7200, Note_on_c, 0, 38, 83
4, 7200, Note_on_c, 0, 50, 83
4, 7680, Note_on_c, 0, 50, 0
4, 7680, Note_on_c, 0, 38, 0
4, 7680, Note_on_c, 0, 43, 83
4, 7680, Note_on_c, 0, 55, 83
4, 8640, Note_on_c, 0, 55, 0
4, 8640, Note_on_c, 0, 43, 0
4, 8640, Note_on_c, 0, 38, 83
4, 8640, Note_on_c, 0, 50, 83
4, 9120, Note_on_c, 0, 50, 0
4, 9120, Note_on_c, 0, 38, 0
4, 9120, Note_on_c, 0, 43, 83
4, 9120, Note_on_c, 0, 55, 83
4, 10080, Note_on_c, 0, 55, 0
4, 10080, Note_on_c, 0, 43, 0
4, 10080, Note_on_c, 0, 38, 83
4, 10080, Note_on_c, 0, 50, 83
4, 10560, Note_on_c, 0, 50, 0
4, 10560, Note_on_c, 0, 38, 0
4, 10560, Note_on_c, 0, 43, 83
4, 10560, Note_on_c, 0, 55, 83
4, 11520, Note_on_c, 0, 55, 0
4, 11520, Note_on_c, 0, 43, 0
4, 11520, Note_on_c, 0, 38, 83
4, 11520, Note_on_c, 0, 50, 83
4, 12000, Note_on_c, 0, 50, 0
4, 12000, Note_on_c, 0, 38, 0
4, 12000, Note_on_c, 0, 49, 83
4, 12000, Note_on_c, 0, 52, 83
4, 12000, Note_on_c, 0, 57, 83
4, 12480, Note_on_c, 0, 57, 0
4, 12480, Note_on_c, 0, 52, 0
4, 12480, Note_on_c, 0, 49, 0
4, 12480, Note_on_c, 0, 48, 83
4, 12480, Note_on_c, 0, 50, 83
4, 12480, Note_on_c, 0, 54, 83
4, 12480, Note_on_c, 0, 57, 83
4, 12960, Note_on_c, 0, 57, 0
4, 12960, Note_on_c, 0, 48, 0
4, 12960, Note_on_c, 0, 50, 0
4, 12960, Note_on_c, 0, 54, 0
4, 12960, Note_on_c, 0, 47, 83
4, 12960, Note_on_c, 0, 50, 83
4, 12960, Note_on_c, 0, 55, 83
4, 13440, Note_on_c, 0, 55, 0
4, 13440, Note_on_c, 0, 50, 0
4, 13440, Note_on_c, 0, 47, 0
4, 13440, Note_on_c, 0, 49, 83
4, 13440, Note_on_c, 0, 52, 83
4, 13440, Note_on_c, 0, 57, 83
4, 13920, Note_on_c, 0, 57, 0
4, 13920, Note_on_c, 0, 52, 0
4, 13920, Note_on_c, 0, 49, 0
4, 13920, Note_on_c, 0, 48, 83
4, 13920, Note_on_c, 0, 50, 83
4, 13920, Note_on_c, 0, 54, 83
4, 13920, Note_on_c, 0, 57, 83
4, 14400, Note_on_c, 0, 57, 0
4, 14400, Note_on_c, 0, 48, 0
4, 14400, Note_on_c, 0, 50, 0
4, 14400, Note_on_c, 0, 54, 0
4, 14400, Note_on_c, 0, 47, 83
4, 14400, Note_on_c, 0, 50, 83
4, 14400, Note_on_c, 0, 55, 83
4, 14880, Note_on_c, 0, 55, 0
4, 14880, Note_on_c, 0, 50, 0
4, 14880, Note_on_c, 0, 47, 0
4, 14880, Note_on_c, 0, 57, 83
4, 14880, Note_on_c, 0, 60, 83
4, 14880, Note_on_c, 0, 62, 83
4, 15240, Note_on_c, 0, 62, 0
4, 15240, Note_on_c, 0, 60, 0
4, 15240, Note_on_c, 0, 57, 0
4, 15240, Note_on_c, 0, 57, 83
4, 15240, Note_on_c, 0, 60, 83
4, 15240, Note_on_c, 0, 62, 83
4, 15360, Note_on_c, 0, 62, 0
4, 15360, Note_on_c, 0, 60, 0
4, 15360, Note_on_c, 0, 57, 0
4, 15360, Note_on_c, 0, 55, 83
4, 15360, Note_on_c, 0, 59, 83
4, 15360, Note_on_c, 0, 62, 83
4, 16320, Note_on_c, 0, 62, 0
4, 16320, Note_on_c, 0, 59, 0
4, 16320, Note_on_c, 0, 55, 0
4, 16320, Note_on_c, 0, 54, 83
4, 16320, Note_on_c, 0, 59, 83
4, 16320, Note_on_c, 0, 62, 83
4, 16800, Note_on_c, 0, 62, 0
4, 16800, Note_on_c, 0, 59, 0
4, 16800, Note_on_c, 0, 54, 0
4, 16800, Note_on_c, 0, 54, 83
4, 16800, Note_on_c, 0, 58, 83
4, 16800, Note_on_c, 0, 61, 83
4, 17280, Note_on_c, 0, 61, 0
4, 17280, Note_on_c, 0, 58, 0
4, 17280, Note_on_c, 0, 54, 0
4, 17280, Note_on_c, 0, 47, 83
4, 17280, Note_on_c, 0, 50, 83
4, 17280, Note_on_c, 0, 54, 83
4, 17280, Note_on_c, 0, 59, 83
4, 17760, Note_on_c, 0, 59, 0
4, 17760, Note_on_c, 0, 47, 0
4, 17760, Note_on_c, 0, 50, 0
4, 17760, Note_on_c, 0, 54, 0
4, 17760, Note_on_c, 0, 43, 83
4, 17760, Note_on_c, 0, 55, 83
4, 18720, Note_on_c, 0, 55, 0
4, 18720, Note_on_c, 0, 43, 0
4, 18720, Note_on_c, 0, 38, 83
4, 18720, Note_on_c, 0, 50, 83
4, 19200, Note_on_c, 0, 50, 0
4, 19200, Note_on_c, 0, 38, 0
4, 19200, Note_on_c, 0, 43, 83
4, 19200, Note_on_c, 0, 55, 83
4, 20160, Note_on_c, 0, 55, 0
4, 20160, Note_on_c, 0, 43, 0
4, 20160, Note_on_c, 0, 38, 83
4, 20160, Note_on_c, 0, 50, 83
4, 20640, Note_on_c, 0, 50, 0
4, 20640, Note_on_c, 0, 38, 0
4, 20640, Note_on_c, 0, 43, 83
4, 20640, Note_on_c, 0, 55, 83
4, 21600, Note_on_c, 0, 55, 0
4, 21600, Note_on_c, 0, 43, 0
4, 21600, Note_on_c, 0, 38, 83
4, 21600, Note_on_c, 0, 50, 83
4, 22080, Note_on_c, 0, 50, 0
4, 22080, Note_on_c, 0, 38, 0
4, 22080, Note_on_c, 0, 43, 83
4, 22080, Note_on_c, 0, 55, 83
4, 23040, Note_on_c, 0, 55, 0
4, 23040, Note_on_c, 0, 43, 0
4, 23040, Note_on_c, 0, 38, 83
4, 23040, Note_on_c, 0, 50, 83
4, 23520, Note_on_c, 0, 50, 0
4, 23520, Note_on_c, 0, 38, 0
4, 23520, Note_on_c, 0, 49, 83
4, 23520, Note_on_c, 0, 52, 83
4, 23520, Note_on_c, 0, 57, 83
4, 24000, Note_on_c, 0, 57, 0
4, 24000, Note_on_c, 0, 52, 0
4, 24000, Note_on_c, 0, 49, 0
4, 24000, Note_on_c, 0, 48, 83
4, 24000, Note_on_c, 0, 50, 83
4, 24000, Note_on_c, 0, 54, 83
4, 24000, Note_on_c, 0, 57, 83
4, 24480, Note_on_c, 0, 57, 0
4, 24480, Note_on_c, 0, 48, 0
4, 24480, Note_on_c, 0, 50, 0
4, 24480, Note_on_c, 0, 54, 0
4, 24480, Note_on_c, 0, 47, 83
4, 24480, Note_on_c, 0, 50, 83
4, 24480, Note_on_c, 0, 55, 83
4, 24960, Note_on_c, 0, 55, 0
4, 24960, Note_on_c, 0, 50, 0
4, 24960, Note_on_c, 0, 47, 0
4, 24960, Note_on_c, 0, 49, 83
4, 24960, Note_on_c, 0, 52, 83
4, 24960, Note_on_c, 0, 57, 83
4, 25440, Note_on_c, 0, 57, 0
4, 25440, Note_on_c, 0, 52, 0
4, 25440, Note_on_c, 0, 49, 0
4, 25440, Note_on_c, 0, 48, 83
4, 25440, Note_on_c, 0, 50, 83
4, 25440, Note_on_c, 0, 54, 83
4, 25440, Note_on_c, 0, 57, 83
4, 25920, Note_on_c, 0, 57, 0
4, 25920, Note_on_c, 0, 48, 0
4, 25920, Note_on_c, 0, 50, 0
4, 25920, Note_on_c, 0, 54, 0
4, 25920, Note_on_c, 0, 47, 83
4, 25920, Note_on_c, 0, 50, 83
4, 25920, Note_on_c, 0, 55, 83
4, 26400, Note_on_c, 0, 55, 0
4, 26400, Note_on_c, 0, 50, 0
4, 26400, Note_on_c, 0, 47, 0
4, 26400, Note_on_c, 0, 40, 83
4, 26400, Note_on_c, 0, 52, 83
4, 26880, Note_on_c, 0, 52, 0
4, 26880, Note_on_c, 0, 40, 0
4, 26880, Note_on_c, 0, 52, 83
4, 26880, Note_on_c, 0, 55, 83
4, 26880, Note_on_c, 0, 59, 83
4, 26880, Note_on_c, 0, 61, 83
4, 27360, Note_on_c, 0, 61, 0
4, 27360, Note_on_c, 0, 52, 0
4, 27360, Note_on_c, 0, 55, 0
4, 27360, Note_on_c, 0, 59, 0
4, 27360, Note_on_c, 0, 52, 83
4, 27360, Note_on_c, 0, 55, 83
4, 27360, Note_on_c, 0, 59, 83
4, 27360, Note_on_c, 0, 61, 83
4, 27840, Note_on_c, 0, 61, 0
4, 27840, Note_on_c, 0, 52, 0
4, 27840, Note_on_c, 0, 55, 0
4, 27840, Note_on_c, 0, 59, 0
4, 27840, Note_on_c, 0, 45, 83
4, 27840, Note_on_c, 0, 50, 83
4, 27840, Note_on_c, 0, 54, 83
4, 27840, Note_on_c, 0, 57, 83
4, 28320, Note_on_c, 0, 57, 0
4, 28320, Note_on_c, 0, 45, 0
4, 28320, Note_on_c, 0, 50, 0
4, 28320, Note_on_c, 0, 54, 0
4, 28320, Note_on_c, 0, 45, 83
4, 28320, Note_on_c, 0, 49, 83
4, 28320, Note_on_c, 0, 55, 83
4, 28320, Note_on_c, 0, 57, 83
4, 28800, Note_on_c, 0, 57, 0
4, 28800, Note_on_c, 0, 45, 0
4, 28800, Note_on_c, 0, 49, 0
4, 28800, Note_on_c, 0, 55, 0
4, 28800, Note_on_c, 0, 50, 83
4, 28800, Note_on_c, 0, 54, 83
4, 28800, Note_on_c, 0, 57, 83
4, 29280, Note_on_c, 0, 57, 0
4, 29280, Note_on_c, 0, 54, 0
4, 29280, Note_on_c, 0, 50, 0
4, 29280, Note_on_c, 0, 43, 83
4, 29280, Note_on_c, 0, 55, 83
4, 30240, Note_on_c, 0, 55, 0
4, 30240, Note_on_c, 0, 43, 0
4, 30240, Note_on_c, 0, 38, 83
4, 30240, Note_on_c, 0, 50, 83
4, 30720, Note_on_c, 0, 50, 0
4, 30720, Note_on_c, 0, 38, 0
4, 30720, Note_on_c, 0, 43, 83
4, 30720, Note_on_c, 0, 55, 83
4, 31680, Note_on_c, 0, 55, 0
4, 31680, Note_on_c, 0, 43, 0
4, 31680, Note_on_c, 0, 38, 83
4, 31680, Note_on_c, 0, 50, 83
4, 32160, Note_on_c, 0, 50, 0
4, 32160, Note_on_c, 0, 38, 0
4, 32160, Note_on_c, 0, 43, 83
4, 32160, Note_on_c, 0, 55, 83
4, 33120, Note_on_c, 0, 55, 0
4, 33120, Note_on_c, 0, 43, 0
4, 33120, Note_on_c, 0, 38, 83
4, 33120, Note_on_c, 0, 50, 83
4, 33600, Note_on_c, 0, 50, 0
4, 33600, Note_on_c, 0, 38, 0
4, 33600, Note_on_c, 0, 43, 83
4, 33600, Note_on_c, 0, 55, 83
4, 34560, Note_on_c, 0, 55, 0
4, 34560, Note_on_c, 0, 43, 0
4, 34560, Note_on_c, 0, 38, 83
4, 34560, Note_on_c, 0, 50, 83
4, 35040, Note_on_c, 0, 50, 0
4, 35040, Note_on_c, 0, 38, 0
4, 35040, Note_on_c, 0, 49, 83
4, 35040, Note_on_c, 0, 52, 83
4, 35040, Note_on_c, 0, 57, 83
4, 35520, Note_on_c, 0, 57, 0
4, 35520, Note_on_c, 0, 52, 0
4, 35520, Note_on_c, 0, 49, 0
4, 35520, Note_on_c, 0, 48, 83
4, 35520, Note_on_c, 0, 50, 83
4, 35520, Note_on_c, 0, 54, 83
4, 35520, Note_on_c, 0, 57, 83
4, 36000, Note_on_c, 0, 57, 0
4, 36000, Note_on_c, 0, 48, 0
4, 36000, Note_on_c, 0, 50, 0
4, 36000, Note_on_c, 0, 54, 0
4, 36000, Note_on_c, 0, 47, 83
4, 36000, Note_on_c, 0, 50, 83
4, 36000, Note_on_c, 0, 55, 83
4, 36480, Note_on_c, 0, 55, 0
4, 36480, Note_on_c, 0, 50, 0
4, 36480, Note_on_c, 0, 47, 0
4, 36480, Note_on_c, 0, 49, 83
4, 36480, Note_on_c, 0, 52, 83
4, 36480, Note_on_c, 0, 57, 83
4, 36960, Note_on_c, 0, 57, 0
4, 36960, Note_on_c, 0, 52, 0
4, 36960, Note_on_c, 0, 49, 0
4, 36960, Note_on_c, 0, 48, 83
4, 36960, Note_on_c, 0, 50, 83
4, 36960, Note_on_c, 0, 54, 83
4, 36960, Note_on_c, 0, 57, 83
4, 37440, Note_on_c, 0, 57, 0
4, 37440, Note_on_c, 0, 48, 0
4, 37440, Note_on_c, 0, 50, 0
4, 37440, Note_on_c, 0, 54, 0
4, 37440, Note_on_c, 0, 47, 83
4, 37440, Note_on_c, 0, 50, 83
4, 37440, Note_on_c, 0, 55, 83
4, 37920, Note_on_c, 0, 55, 0
4, 37920, Note_on_c, 0, 50, 0
4, 37920, Note_on_c, 0, 47, 0
4, 37920, Note_on_c, 0, 57, 83
4, 37920, Note_on_c, 0, 60, 83
4, 37920, Note_on_c, 0, 62, 83
4, 38280, Note_on_c, 0, 62, 0
4, 38280, Note_on_c, 0, 60, 0
4, 38280, Note_on_c, 0, 57, 0
4, 38280, Note_on_c, 0, 57, 83
4, 38280, Note_on_c, 0, 60, 83
4, 38280, Note_on_c, 0, 62, 83
4, 38400, Note_on_c, 0, 62, 0
4, 38400, Note_on_c, 0, 60, 0
4, 38400, Note_on_c, 0, 57, 0
4, 38400, Note_on_c, 0, 55, 83
4, 38400, Note_on_c, 0, 59, 83
4, 38400, Note_on_c, 0, 62, 83
4, 39360, Note_on_c, 0, 62, 0
4, 39360, Note_on_c, 0, 59, 0
4, 39360, Note_on_c, 0, 55, 0
4, 39360, Note_on_c, 0, 54, 83
4, 39360, Note_on_c, 0, 59, 83
4, 39360, Note_on_c, 0, 62, 83
4, 39840, Note_on_c, 0, 62, 0
4, 39840, Note_on_c, 0, 59, 0
4, 39840, Note_on_c, 0, 54, 0
4, 39840, Note_on_c, 0, 54, 83
4, 39840, Note_on_c, 0, 58, 83
4, 39840, Note_on_c, 0, 61, 83
4, 40320, Note_on_c, 0, 61, 0
4, 40320, Note_on_c, 0, 58, 0
4, 40320, Note_on_c, 0, 54, 0
4, 40320, Note_on_c, 0, 47, 83
4, 40320, Note_on_c, 0, 50, 83
4, 40320, Note_on_c, 0, 54, 83
4, 40320, Note_on_c, 0, 59, 83
4, 40800, Note_on_c, 0, 59, 0
4, 40800, Note_on_c, 0, 47, 0
4, 40800, Note_on_c, 0, 50, 0
4, 40800, Note_on_c, 0, 54, 0
4, 40800, Note_on_c, 0, 43, 83
4, 40800, Note_on_c, 0, 55, 83
4, 41760, Note_on_c, 0, 55, 0
4, 41760, Note_on_c, 0, 43, 0
4, 41760, Note_on_c, 0, 38, 83
4, 41760, Note_on_c, 0, 50, 83
4, 42240, Note_on_c, 0, 50, 0
4, 42240, Note_on_c, 0, 38, 0
4, 42240, Note_on_c, 0, 43, 83
4, 42240, Note_on_c, 0, 55, 83
4, 43200, Note_on_c, 0, 55, 0
4, 43200, Note_on_c, 0, 43, 0
4, 43200, Note_on_c, 0, 38, 83
4, 43200, Note_on_c, 0, 50, 83
4, 43680, Note_on_c, 0, 50, 0
4, 43680, Note_on_c, 0, 38, 0
4, 43680, Note_on_c, 0, 43, 83
4, 43680, Note_on_c, 0, 55, 83
4, 44640, Note_on_c, 0, 55, 0
4, 44640, Note_on_c, 0, 43, 0
4, 44640, Note_on_c, 0, 38, 83
4, 44640, Note_on_c, 0, 50, 83
4, 45120, Note_on_c, 0, 50, 0
4, 45120, Note_on_c, 0, 38, 0
4, 45120, Note_on_c, 0, 43, 83
4, 45120, Note_on_c, 0, 55, 83
4, 46080, Note_on_c, 0, 55, 0
4, 46080, Note_on_c, 0, 43, 0
4, 46080, Note_on_c, 0, 38, 83
4, 46080, Note_on_c, 0, 50, 83
4, 46560, Note_on_c, 0, 50, 0
4, 46560, Note_on_c, 0, 38, 0
4, 46560, Note_on_c, 0, 49, 83
4, 46560, Note_on_c, 0, 52, 83
4, 46560, Note_on_c, 0, 57, 83
4, 47040, Note_on_c, 0, 57, 0
4, 47040, Note_on_c, 0, 52, 0
4, 47040, Note_on_c, 0, 49, 0
4, 47040, Note_on_c, 0, 48, 83
4, 47040, Note_on_c, 0, 50, 83
4, 47040, Note_on_c, 0, 54, 83
4, 47040, Note_on_c, 0, 57, 83
4, 47520, Note_on_c, 0, 57, 0
4, 47520, Note_on_c, 0, 48, 0
4, 47520, Note_on_c, 0, 50, 0
4, 47520, Note_on_c, 0, 54, 0
4, 47520, Note_on_c, 0, 47, 83
4, 47520, Note_on_c, 0, 50, 83
4, 47520, Note_on_c, 0, 55, 83
4, 48000, Note_on_c, 0, 55, 0
4, 48000, Note_on_c, 0, 50, 0
4, 48000, Note_on_c, 0, 47, 0
4, 48000, Note_on_c, 0, 49, 83
4, 48000, Note_on_c, 0, 52, 83
4, 48000, Note_on_c, 0, 57, 83
4, 48480, Note_on_c, 0, 57, 0
4, 48480, Note_on_c, 0, 52, 0
4, 48480, Note_on_c, 0, 49, 0
4, 48480, Note_on_c, 0, 48, 83
4, 48480, Note_on_c, 0, 50, 83
4, 48480, Note_on_c, 0, 54, 83
4, 48480, Note_on_c, 0, 57, 83
4, 48960, Note_on_c, 0, 57, 0
4, 48960, Note_on_c, 0, 48, 0
4, 48960, Note_on_c, 0, 50, 0
4, 48960, Note_on_c, 0, 54, 0
4, 48960, Note_on_c, 0, 47, 83
4, 48960, Note_on_c, 0, 50, 83
4, 48960, Note_on_c, 0, 55, 83
4, 49440, Note_on_c, 0, 55, 0
4, 49440, Note_on_c, 0, 50, 0
4, 49440, Note_on_c, 0, 47, 0
4, 49440, Note_on_c, 0, 40, 83
4, 49440, Note_on_c, 0, 52, 83
4, 49920, Note_on_c, 0, 52, 0
4, 49920, Note_on_c, 0, 40, 0
4, 49920, Note_on_c, 0, 52, 83
4, 49920, Note_on_c, 0, 55, 83
4, 49920, Note_on_c, 0, 59, 83
4, 49920, Note_on_c, 0, 61, 83
4, 50400, Note_on_c, 0, 61, 0
4, 50400, Note_on_c, 0, 52, 0
4, 50400, Note_on_c, 0, 55, 0
4, 50400, Note_on_c, 0, 59, 0
4, 50400, Note_on_c, 0, 52, 83
4, 50400, Note_on_c, 0, 55, 83
4, 50400, Note_on_c, 0, 59, 83
4, 50400, Note_on_c, 0, 61, 83
4, 50880, Note_on_c, 0, 61, 0
4, 50880, Note_on_c, 0, 52, 0
4, 50880, Note_on_c, 0, 55, 0
4, 50880, Note_on_c, 0, 59, 0
4, 50880, Note_on_c, 0, 45, 83
4, 50880, Note_on_c, 0, 50, 83
4, 50880, Note_on_c, 0, 54, 83
4, 50880, Note_on_c, 0, 57, 83
4, 51360, Note_on_c, 0, 57, 0
4, 51360, Note_on_c, 0, 45, 0
4, 51360, Note_on_c, 0, 50, 0
4, 51360, Note_on_c, 0, 54, 0
4, 51360, Note_on_c, 0, 45, 83
4, 51360, Note_on_c, 0, 49, 83
4, 51360, Note_on_c, 0, 55, 83
4, 51360, Note_on_c, 0, 57, 83
4, 51840, Note_on_c, 0, 57, 0
4, 51840, Note_on_c, 0, 45, 0
4, 51840, Note_on_c, 0, 49, 0
4, 51840, Note_on_c, 0, 55, 0
4, 51840, Note_on_c, 0, 50, 83
4, 51840, Note_on_c, 0, 54, 83
4, 51840, Note_on_c, 0, 57, 83
4, 52320, Note_on_c, 0, 57, 0
4, 52320, Note_on_c, 0, 54, 0
4, 52320, Note_on_c, 0, 50, 0
4, 52320, Note_on_c, 0, 38, 83
4, 52320, Note_on_c, 0, 50, 83
4, 53280, Note_on_c, 0, 50, 0
4, 53280, Note_on_c, 0, 38, 0
4, 53280, Note_on_c, 0, 39, 83
4, 53280, Note_on_c, 0, 51, 83
4, 53760, Note_on_c, 0, 51, 0
4, 53760, Note_on_c, 0, 39, 0
4, 53760, Note_on_c, 0, 40, 83
4, 53760, Note_on_c, 0, 52, 83
4, 54240, Note_on_c, 0, 52, 0
4, 54240, Note_on_c, 0, 40, 0
4, 54240, Note_on_c, 0, 41, 83
4, 54240, Note_on_c, 0, 53, 83
4, 54720, Note_on_c, 0, 53, 0
4, 54720, Note_on_c, 0, 41, 0
4, 54720, Note_on_c, 0, 42, 83
4, 54720, Note_on_c, 0, 54, 83
4, 55200, Note_on_c, 0, 54, 0
4, 55200, Note_on_c, 0, 42, 0
4, 55200, Note_on_c, 0, 43, 83
4, 55200, Note_on_c, 0, 55, 83
4, 55680, Note_on_c, 0, 55, 0
4, 55680, Note_on_c, 0, 43, 0
4, 55680, Note_on_c, 0, 45, 83
4, 55680, Note_on_c, 0, 57, 83
4, 56160, Note_on_c, 0, 57, 0
4, 56160, Note_on_c, 0, 45, 0
4, 56160, Note_on_c, 0, 46, 83
4, 56160, Note_on_c, 0, 58, 83
4, 56640, Note_on_c, 0, 58, 0
4, 56640, Note_on_c, 0, 46, 0
4, 56640, Note_on_c, 0, 47, 83
4, 56640, Note_on_c, 0, 59, 83
4, 57120, Note_on_c, 0, 59, 0
4, 57120, Note_on_c, 0, 47, 0
4, 57120, Note_on_c, 0, 49, 83
4, 57120, Note_on_c, 0, 61, 83
4, 57600, Note_on_c, 0, 61, 0
4, 57600, Note_on_c, 0, 49, 0
4, 57600, Note_on_c, 0, 50, 83
4, 57600, Note_on_c, 0, 62, 83
4, 58080, Note_on_c, 0, 62, 0
4, 58080, Note_on_c, 0, 50, 0
4, 58080, Note_on_c, 0, 52, 44
4, 58080, Note_on_c, 0, 55, 44
4, 58080, Note_on_c, 0, 59, 44
4, 58080, Note_on_c, 0, 64, 44
4, 58560, Note_on_c, 0, 64, 0
4, 58560, Note_on_c, 0, 52, 0
4, 58560, Note_on_c, 0, 55, 0
4, 58560, Note_on_c, 0, 59, 0
4, 58560, Note_on_c, 0, 52, 44
4, 58560, Note_on_c, 0, 55, 44
4, 58560, Note_on_c, 0, 59, 44
4, 58560, Note_on_c, 0, 64, 44
4, 59040, Note_on_c, 0, 64, 0
4, 59040, Note_on_c, 0, 52, 0
4, 59040, Note_on_c, 0, 55, 0
4, 59040, Note_on_c, 0, 59, 0
4, 59040, Note_on_c, 0, 52, 44
4, 59040, Note_on_c, 0, 55, 44
4, 59040, Note_on_c, 0, 59, 44
4, 59040, Note_on_c, 0, 64, 44
4, 59520, Note_on_c, 0, 64, 0
4, 59520, Note_on_c, 0, 52, 0
4, 59520, Note_on_c, 0, 55, 0
4, 59520, Note_on_c, 0, 59, 0
4, 59520, Note_on_c, 0, 42, 44
4, 60000, Note_on_c, 0, 42, 0
4, 60000, Note_on_c, 0, 54, 44
4, 60000, Note_on_c, 0, 59, 44
4, 60000, Note_on_c, 0, 62, 44
4, 60000, Note_on_c, 0, 66, 44
4, 60480, Note_on_c, 0, 66, 0
4, 60480, Note_on_c, 0, 54, 0
4, 60480, Note_on_c, 0, 59, 0
4, 60480, Note_on_c, 0, 62, 0
4, 60480, Note_on_c, 0, 54, 44
4, 60480, Note_on_c, 0, 59, 44
4, 60480, Note_on_c, 0, 62, 44
4, 60480, Note_on_c, 0, 66, 44
4, 60960, Note_on_c, 0, 66, 0
4, 60960, Note_on_c, 0, 54, 0
4, 60960, Note_on_c, 0, 59, 0
4, 60960, Note_on_c, 0, 62, 0
4, 60960, Note_on_c, 0, 43, 44
4, 61440, Note_on_c, 0, 43, 0
4, 61440, Note_on_c, 0, 55, 44
4, 61440, Note_on_c, 0, 59, 44
4, 61440, Note_on_c, 0, 61, 44
4, 61440, Note_on_c, 0, 64, 44
4, 61920, Note_on_c, 0, 64, 0
4, 61920, Note_on_c, 0, 55, 0
4, 61920, Note_on_c, 0, 59, 0
4, 61920, Note_on_c, 0, 61, 0
4, 61920, Note_on_c, 0, 55, 44
4, 61920, Note_on_c, 0, 59, 44
4, 61920, Note_on_c, 0, 61, 44
4, 61920, Note_on_c, 0, 64, 44
4, 62400, Note_on_c, 0, 64, 0
4, 62400, Note_on_c, 0, 55, 0
4, 62400, Note_on_c, 0, 59, 0
4, 62400, Note_on_c, 0, 61, 0
4, 62400, Note_on_c, 0, 47, 44
4, 62400, Note_on_c, 0, 54, 44
4, 62400, Note_on_c, 0, 59, 44
4, 62880, Note_on_c, 0, 59, 0
4, 62880, Note_on_c, 0, 54, 0
4, 62880, Note_on_c, 0, 47, 0
4, 62880, Note_on_c, 0, 52, 44
4, 62880, Note_on_c, 0, 55, 44
4, 62880, Note_on_c, 0, 59, 44
4, 63360, Note_on_c, 0, 59, 0
4, 63360, Note_on_c, 0, 55, 0
4, 63360, Note_on_c, 0, 52, 0
4, 63360, Note_on_c, 0, 47, 44
4, 63360, Note_on_c, 0, 54, 44
4, 63360, Note_on_c, 0, 59, 44
4, 63840, Note_on_c, 0, 59, 0
4, 63840, Note_on_c, 0, 54, 0
4, 63840, Note_on_c, 0, 47, 0
4, 63840, Note_on_c, 0, 38, 83
4, 63840, Note_on_c, 0, 50, 83
4, 64800, Note_on_c, 0, 50, 0
4, 64800, Note_on_c, 0, 38, 0
4, 64800, Note_on_c, 0, 39, 83
4, 64800, Note_on_c, 0, 51, 83
4, 65280, Note_on_c, 0, 51, 0
4, 65280, Note_on_c, 0, 39, 0
4, 65280, Note_on_c, 0, 40, 83
4, 65280, Note_on_c, 0, 52, 83
4, 65760, Note_on_c, 0, 52, 0
4, 65760, Note_on_c, 0, 40, 0
4, 65760, Note_on_c, 0, 41, 83
4, 65760, Note_on_c, 0, 53, 83
4, 66240, Note_on_c, 0, 53, 0
4, 66240, Note_on_c, 0, 41, 0
4, 66240, Note_on_c, 0, 42, 83
4, 66240, Note_on_c, 0, 54, 83
4, 66720, Note_on_c, 0, 54, 0
4, 66720, Note_on_c, 0, 42, 0
4, 66720, Note_on_c, 0, 43, 83
4, 66720, Note_on_c, 0, 55, 83
4, 67200, Note_on_c, 0, 55, 0
4, 67200, Note_on_c, 0, 43, 0
4, 67200, Note_on_c, 0, 45, 83
4, 67200, Note_on_c, 0, 57, 83
4, 67680, Note_on_c, 0, 57, 0
4, 67680, Note_on_c, 0, 45, 0
4, 67680, Note_on_c, 0, 46, 83
4, 67680, Note_on_c, 0, 58, 83
4, 68160, Note_on_c, 0, 58, 0
4, 68160, Note_on_c, 0, 46, 0
4, 68160, Note_on_c, 0, 47, 83
4, 68160, Note_on_c, 0, 59, 83
4, 68640, Note_on_c, 0, 59, 0
4, 68640, Note_on_c, 0, 47, 0
4, 68640, Note_on_c, 0, 49, 83
4, 68640, Note_on_c, 0, 61, 83
4, 69120, Note_on_c, 0, 61, 0
4, 69120, Note_on_c, 0, 49, 0
4, 69120, Note_on_c, 0, 50, 83
4, 69120, Note_on_c, 0, 62, 83
4, 69600, Note_on_c, 0, 62, 0
4, 69600, Note_on_c, 0, 50, 0
4, 69600, Note_on_c, 0, 52, 44
4, 69600, Note_on_c, 0, 55, 44
4, 69600, Note_on_c, 0, 59, 44
4, 69600, Note_on_c, 0, 64, 44
4, 70080, Note_on_c, 0, 64, 0
4, 70080, Note_on_c, 0, 52, 0
4, 70080, Note_on_c, 0, 55, 0
4, 70080, Note_on_c, 0, 59, 0
4, 70080, Note_on_c, 0, 52, 44
4, 70080, Note_on_c, 0, 55, 44
4, 70080, Note_on_c, 0, 59, 44
4, 70080, Note_on_c, 0, 64, 44
4, 70560, Note_on_c, 0, 64, 0
4, 70560, Note_on_c, 0, 52, 0
4, 70560, Note_on_c, 0, 55, 0
4, 70560, Note_on_c, 0, 59, 0
4, 70560, Note_on_c, 0, 52, 44
4, 70560, Note_on_c, 0, 55, 44
4, 70560, Note_on_c, 0, 59, 44
4, 70560, Note_on_c, 0, 64, 44
4, 71040, Note_on_c, 0, 64, 0
4, 71040, Note_on_c, 0, 52, 0
4, 71040, Note_on_c, 0, 55, 0
4, 71040, Note_on_c, 0, 59, 0
4, 71040, Note_on_c, 0, 45, 44
4, 71520, Note_on_c, 0, 45, 0
4, 71520, Note_on_c, 0, 57, 44
4, 71520, Note_on_c, 0, 62, 44
4, 71520, Note_on_c, 0, 66, 44
4, 72000, Note_on_c, 0, 66, 0
4, 72000, Note_on_c, 0, 62, 0
4, 72000, Note_on_c, 0, 57, 0
4, 72000, Note_on_c, 0, 57, 44
4, 72000, Note_on_c, 0, 62, 44
4, 72000, Note_on_c, 0, 66, 44
4, 72480, Note_on_c, 0, 66, 0
4, 72480, Note_on_c, 0, 62, 0
4, 72480, Note_on_c, 0, 57, 0
4, 72480, Note_on_c, 0, 45, 44
4, 72960, Note_on_c, 0, 45, 0
4, 72960, Note_on_c, 0, 57, 44
4, 72960, Note_on_c, 0, 61, 44
4, 72960, Note_on_c, 0, 67, 44
4, 73440, Note_on_c, 0, 67, 0
4, 73440, Note_on_c, 0, 61, 0
4, 73440, Note_on_c, 0, 57, 0
4, 73440, Note_on_c, 0, 57, 44
4, 73440, Note_on_c, 0, 61, 44
4, 73440, Note_on_c, 0, 67, 44
4, 73840, Note_on_c, 0, 50, 44
4, 73880, Note_on_c, 0, 57, 44
4, 73920, Note_on_c, 0, 67, 0
4, 73920, Note_on_c, 0, 57, 0
4, 73920, Note_on_c, 0, 61, 0
4, 73920, Note_on_c, 0, 66, 44
4, 74400, Note_on_c, 0, 66, 0
4, 74400, Note_on_c, 0, 50, 0
4, 74400, Note_on_c, 0, 57, 0
4, 75360, Note_on_c, 0, 38, 83
4, 75360, Note_on_c, 0, 50, 83
4, 76320, Note_on_c, 0, 50, 0
4, 76320, Note_on_c, 0, 38, 0
4, 76320, Note_on_c, 0, 39, 83
4, 76320, Note_on_c, 0, 51, 83
4, 76800, Note_on_c, 0, 51, 0
4, 76800, Note_on_c, 0, 39, 0
4, 76800, Note_on_c, 0, 40, 83
4, 76800, Note_on_c, 0, 52, 83
4, 77280, Note_on_c, 0, 52, 0
4, 77280, Note_on_c, 0, 40, 0
4, 77280, Note_on_c, 0, 41, 83
4, 77280, Note_on_c, 0, 53, 83
4, 77760, Note_on_c, 0, 53, 0
4, 77760, Note_on_c, 0, 41, 0
4, 77760, Note_on_c, 0, 42, 83
4, 77760, Note_on_c, 0, 54, 83
4, 78240, Note_on_c, 0, 54, 0
4, 78240, Note_on_c, 0, 42, 0
4, 78240, Note_on_c, 0, 43, 83
4, 78240, Note_on_c, 0, 55, 83
4, 78720, Note_on_c, 0, 55, 0
4, 78720, Note_on_c, 0, 43, 0
4, 78720, Note_on_c, 0, 45, 83
4, 78720, Note_on_c, 0, 57, 83
4, 79200, Note_on_c, 0, 57, 0
4, 79200, Note_on_c, 0, 45, 0
4, 79200, Note_on_c, 0, 46, 83
4, 79200, Note_on_c, 0, 58, 83
4, 79680, Note_on_c, 0, 58, 0
4, 79680, Note_on_c, 0, 46, 0
4, 79680, Note_on_c, 0, 47, 83
4, 79680, Note_on_c, 0, 59, 83
4, 80160, Note_on_c, 0, 59, 0
4, 80160, Note_on_c, 0, 47, 0
4, 80160, Note_on_c, 0, 49, 83
4, 80160, Note_on_c, 0, 61, 83
4, 80640, Note_on_c, 0, 61, 0
4, 80640, Note_on_c, 0, 49, 0
4, 80640, Note_on_c, 0, 50, 83
4, 80640, Note_on_c, 0, 62, 83
4, 81120, Note_on_c, 0, 62, 0
4, 81120, Note_on_c, 0, 50, 0
4, 81120, Note_on_c, 0, 52, 44
4, 81120, Note_on_c, 0, 55, 44
4, 81120, Note_on_c, 0, 59, 44
4, 81120, Note_on_c, 0, 64, 44
4, 81600, Note_on_c, 0, 64, 0
4, 81600, Note_on_c, 0, 52, 0
4, 81600, Note_on_c, 0, 55, 0
4, 81600, Note_on_c, 0, 59, 0
4, 81600, Note_on_c, 0, 52, 44
4, 81600, Note_on_c, 0, 55, 44
4, 81600, Note_on_c, 0, 59, 44
4, 81600, Note_on_c, 0, 64, 44
4, 82080, Note_on_c, 0, 64, 0
4, 82080, Note_on_c, 0, 52, 0
4, 82080, Note_on_c, 0, 55, 0
4, 82080, Note_on_c, 0, 59, 0
4, 82080, Note_on_c, 0, 52, 44
4, 82080, Note_on_c, 0, 55, 44
4, 82080, Note_on_c, 0, 59, 44
4, 82080, Note_on_c, 0, 64, 44
4, 82560, Note_on_c, 0, 64, 0
4, 82560, Note_on_c, 0, 52, 0
4, 82560, Note_on_c, 0, 55, 0
4, 82560, Note_on_c, 0, 59, 0
4, 82560, Note_on_c, 0, 42, 44
4, 83040, Note_on_c, 0, 42, 0
4, 83040, Note_on_c, 0, 54, 44
4, 83040, Note_on_c, 0, 59, 44
4, 83040, Note_on_c, 0, 62, 44
4, 83040, Note_on_c, 0, 66, 44
4, 83520, Note_on_c, 0, 66, 0
4, 83520, Note_on_c, 0, 54, 0
4, 83520, Note_on_c, 0, 59, 0
4, 83520, Note_on_c, 0, 62, 0
4, 83520, Note_on_c, 0, 54, 44
4, 83520, Note_on_c, 0, 59, 44
4, 83520, Note_on_c, 0, 62, 44
4, 83520, Note_on_c, 0, 66, 44
4, 84000, Note_on_c, 0, 66, 0
4, 84000, Note_on_c, 0, 54, 0
4, 84000, Note_on_c, 0, 59, 0
4, 84000, Note_on_c, 0, 62, 0
4, 84000, Note_on_c, 0, 43, 44
4, 84480, Note_on_c, 0, 43, 0
4, 84480, Note_on_c, 0, 55, 44
4, 84480, Note_on_c, 0, 59, 44
4, 84480, Note_on_c, 0, 61, 44
4, 84480, Note_on_c, 0, 64, 44
4, 84960, Note_on_c, 0, 64, 0
4, 84960, Note_on_c, 0, 55, 0
4, 84960, Note_on_c, 0, 59, 0
4, 84960, Note_on_c, 0, 61, 0
4, 84960, Note_on_c, 0, 55, 44
4, 84960, Note_on_c, 0, 59, 44
4, 84960, Note_on_c, 0, 61, 44
4, 84960, Note_on_c, 0, 64, 44
4, 85440, Note_on_c, 0, 64, 0
4, 85440, Note_on_c, 0, 55, 0
4, 85440, Note_on_c, 0, 59, 0
4, 85440, Note_on_c, 0, 61, 0
4, 85440, Note_on_c, 0, 47, 44
4, 85440, Note_on_c, 0, 54, 44
4, 85440, Note_on_c, 0, 59, 44
4, 85920, Note_on_c, 0, 59, 0
4, 85920, Note_on_c, 0, 54, 0
4, 85920, Note_on_c, 0, 47, 0
4, 85920, Note_on_c, 0, 52, 44
4, 85920, Note_on_c, 0, 55, 44
4, 85920, Note_on_c, 0, 59, 44
4, 86400, Note_on_c, 0, 59, 0
4, 86400, Note_on_c, 0, 55, 0
4, 86400, Note_on_c, 0, 52, 0
4, 86400, Note_on_c, 0, 47, 44
4, 86400, Note_on_c, 0, 54, 44
4, 86400, Note_on_c, 0, 59, 44
4, 86880, Note_on_c, 0, 59, 0
4, 86880, Note_on_c, 0, 54, 0
4, 86880, Note_on_c, 0, 47, 0
4, 86880, Note_on_c, 0, 38, 83
4, 86880, Note_on_c, 0, 50, 83
4, 87840, Note_on_c, 0, 50, 0
4, 87840, Note_on_c, 0, 38, 0
4, 87840, Note_on_c, 0, 39, 83
4, 87840, Note_on_c, 0, 51, 83
4, 88320, Note_on_c, 0, 51, 0
4, 88320, Note_on_c, 0, 39, 0
4, 88320, Note_on_c, 0, 40, 83
4, 88320, Note_on_c, 0, 52, 83
4, 88800, Note_on_c, 0, 52, 0
4, 88800, Note_on_c, 0, 40, 0
4, 88800, Note_on_c, 0, 41, 83
4, 88800, Note_on_c, 0, 53, 83
4, 89280, Note_on_c, 0, 53, 0
4, 89280, Note_on_c, 0, 41, 0
4, 89280, Note_on_c, 0, 42, 83
4, 89280, Note_on_c, 0, 54, 83
4, 89760, Note_on_c, 0, 54, 0
4, 89760, Note_on_c, 0, 42, 0
4, 89760, Note_on_c, 0, 43, 83
4, 89760, Note_on_c, 0, 55, 83
4, 90240, Note_on_c, 0, 55, 0
4, 90240, Note_on_c, 0, 43, 0
4, 90240, Note_on_c, 0, 45, 83
4, 90240, Note_on_c, 0, 57, 83
4, 90720, Note_on_c, 0, 57, 0
4, 90720, Note_on_c, 0, 45, 0
4, 90720, Note_on_c, 0, 46, 83
4, 90720, Note_on_c, 0, 58, 83
4, 91200, Note_on_c, 0, 58, 0
4, 91200, Note_on_c, 0, 46, 0
4, 91200, Note_on_c, 0, 47, 83
4, 91200, Note_on_c, 0, 59, 83
4, 91680, Note_on_c, 0, 59, 0
4, 91680, Note_on_c, 0, 47, 0
4, 91680, Note_on_c, 0, 49, 83
4, 91680, Note_on_c, 0, 61, 83
4, 92160, Note_on_c, 0, 61, 0
4, 92160, Note_on_c, 0, 49, 0
4, 92160, Note_on_c, 0, 50, 83
4, 92160, Note_on_c, 0, 62, 83
4, 92640, Note_on_c, 0, 62, 0
4, 92640, Note_on_c, 0, 50, 0
4, 92640, Note_on_c, 0, 52, 44
4, 92640, Note_on_c, 0, 55, 44
4, 92640, Note_on_c, 0, 59, 44
4, 92640, Note_on_c, 0, 64, 44
4, 93120, Note_on_c, 0, 64, 0
4, 93120, Note_on_c, 0, 52, 0
4, 93120, Note_on_c, 0, 55, 0
4, 93120, Note_on_c, 0, 59, 0
4, 93120, Note_on_c, 0, 52, 44
4, 93120, Note_on_c, 0, 55, 44
4, 93120, Note_on_c, 0, 59, 44
4, 93120, Note_on_c, 0, 64, 44
4, 93600, Note_on_c, 0, 64, 0
4, 93600, Note_on_c, 0, 52, 0
4, 93600, Note_on_c, 0, 55, 0
4, 93600, Note_on_c, 0, 59, 0
4, 93600, Note_on_c, 0, 52, 44
4, 93600, Note_on_c, 0, 55, 44
4, 93600, Note_on_c, 0, 59, 44
4, 93600, Note_on_c, 0, 64, 44
4, 94080, Note_on_c, 0, 64, 0
4, 94080, Note_on_c, 0, 52, 0
4, 94080, Note_on_c, 0, 55, 0
4, 94080, Note_on_c, 0, 59, 0
4, 94080, Note_on_c, 0, 45, 44
4, 94560, Note_on_c, 0, 45, 0
4, 94560, Note_on_c, 0, 57, 44
4, 94560, Note_on_c, 0, 62, 44
4, 94560, Note_on_c, 0, 66, 44
4, 95040, Note_on_c, 0, 66, 0
4, 95040, Note_on_c, 0, 62, 0
4, 95040, Note_on_c, 0, 57, 0
4, 95040, Note_on_c, 0, 57, 44
4, 95040, Note_on_c, 0, 62, 44
4, 95040, Note_on_c, 0, 66, 44
4, 95520, Note_on_c, 0, 66, 0
4, 95520, Note_on_c, 0, 62, 0
4, 95520, Note_on_c, 0, 57, 0
4, 95520, Note_on_c, 0, 45, 44
4, 96000, Note_on_c, 0, 45, 0
4, 96000, Note_on_c, 0, 57, 44
4, 96000, Note_on_c, 0, 61, 44
4, 96000, Note_on_c, 0, 67, 44
4, 96480, Note_on_c, 0, 67, 0
4, 96480, Note_on_c, 0, 61, 0
4, 96480, Note_on_c, 0, 57, 0
4, 96480, Note_on_c, 0, 57, 44
4, 96480, Note_on_c, 0, 61, 44
4, 96480, Note_on_c, 0, 67, 44
4, 96880, Note_on_c, 0, 50, 44
4, 96920, Note_on_c, 0, 57, 44
4, 96960, Note_on_c, 0, 67, 0
4, 96960, Note_on_c, 0, 57, 0
4, 96960, Note_on_c, 0, 61, 0
4, 96960, Note_on_c, 0, 66, 44
4, 97440, Note_on_c, 0, 66, 0
4, 97440, Note_on_c, 0, 50, 0
4, 97440, Note_on_c, 0, 57, 0
4, 98400, Note_on_c, 0, 43, 83
4, 98400, Note_on_c, 0, 55, 83
4, 99360, Note_on_c, 0, 55, 0
4, 99360, Note_on_c, 0, 43, 0
4, 99360, Note_on_c, 0, 38, 83
4, 99360, Note_on_c, 0, 50, 83
4, 99840, Note_on_c, 0, 50, 0
4, 99840, Note_on_c, 0, 38, 0
4, 99840, Note_on_c, 0, 43, 83
4, 99840, Note_on_c, 0, 55, 83
4, 100800, Note_on_c, 0, 55, 0
4, 100800, Note_on_c, 0, 43, 0
4, 100800, Note_on_c, 0, 38, 83
4, 100800, Note_on_c, 0, 50, 83
4, 101280, Note_on_c, 0, 50, 0
4, 101280, Note_on_c, 0, 38, 0
4, 101280, Note_on_c, 0, 43, 83
4, 101280, Note_on_c, 0, 55, 83
4, 102240, Note_on_c, 0, 55, 0
4, 102240, Note_on_c, 0, 43, 0
4, 102240, Note_on_c, 0, 38, 83
4, 102240, Note_on_c, 0, 50, 83
4, 102720, Note_on_c, 0, 50, 0
4, 102720, Note_on_c, 0, 38, 0
4, 102720, Note_on_c, 0, 43, 83
4, 102720, Note_on_c, 0, 55, 83
4, 103680, Note_on_c, 0, 55, 0
4, 103680, Note_on_c, 0, 43, 0
4, 103680, Note_on_c, 0, 38, 83
4, 103680, Note_on_c, 0, 50, 83
4, 104160, Note_on_c, 0, 50, 0
4, 104160, Note_on_c, 0, 38, 0
4, 104160, Note_on_c, 0, 49, 83
4, 104160, Note_on_c, 0, 52, 83
4, 104160, Note_on_c, 0, 57, 83
4, 104640, Note_on_c, 0, 57, 0
4, 104640, Note_on_c, 0, 52, 0
4, 104640, Note_on_c, 0, 49, 0
4, 104640, Note_on_c, 0, 48, 83
4, 104640, Note_on_c, 0, 50, 83
4, 104640, Note_on_c, 0, 54, 83
4, 104640, Note_on_c, 0, 57, 83
4, 105120, Note_on_c, 0, 57, 0
4, 105120, Note_on_c, 0, 48, 0
4, 105120, Note_on_c, 0, 50, 0
4, 105120, Note_on_c, 0, 54, 0
4, 105120, Note_on_c, 0, 47, 83
4, 105120, Note_on_c, 0, 50, 83
4, 105120, Note_on_c, 0, 55, 83
4, 105600, Note_on_c, 0, 55, 0
4, 105600, Note_on_c, 0, 50, 0
4, 105600, Note_on_c, 0, 47, 0
4, 105600, Note_on_c, 0, 49, 83
4, 105600, Note_on_c, 0, 52, 83
4, 105600, Note_on_c, 0, 57, 83
4, 106080, Note_on_c, 0, 57, 0
4, 106080, Note_on_c, 0, 52, 0
4, 106080, Note_on_c, 0, 49, 0
4, 106080, Note_on_c, 0, 48, 83
4, 106080, Note_on_c, 0, 50, 83
4, 106080, Note_on_c, 0, 54, 83
4, 106080, Note_on_c, 0, 57, 83
4, 106560, Note_on_c, 0, 57, 0
4, 106560, Note_on_c, 0, 48, 0
4, 106560, Note_on_c, 0, 50, 0
4, 106560, Note_on_c, 0, 54, 0
4, 106560, Note_on_c, 0, 47, 83
4, 106560, Note_on_c, 0, 50, 83
4, 106560, Note_on_c, 0, 55, 83
4, 107040, Note_on_c, 0, 55, 0
4, 107040, Note_on_c, 0, 50, 0
4, 107040, Note_on_c, 0, 47, 0
4, 107040, Note_on_c, 0, 57, 83
4, 107040, Note_on_c, 0, 60, 83
4, 107040, Note_on_c, 0, 62, 83
4, 107400, Note_on_c, 0, 62, 0
4, 107400, Note_on_c, 0, 60, 0
4, 107400, Note_on_c, 0, 57, 0
4, 107400, Note_on_c, 0, 57, 83
4, 107400, Note_on_c, 0, 60, 83
4, 107400, Note_on_c, 0, 62, 83
4, 107520, Note_on_c, 0, 62, 0
4, 107520, Note_on_c, 0, 60, 0
4, 107520, Note_on_c, 0, 57, 0
4, 107520, Note_on_c, 0, 55, 83
4, 107520, Note_on_c, 0, 59, 83
4, 107520, Note_on_c, 0, 62, 83
4, 108480, Note_on_c, 0, 62, 0
4, 108480, Note_on_c, 0, 59, 0
4, 108480, Note_on_c, 0, 55, 0
4, 108480, Note_on_c, 0, 54, 83
4, 108480, Note_on_c, 0, 59, 83
4, 108480, Note_on_c, 0, 62, 83
4, 108960, Note_on_c, 0, 62, 0
4, 108960, Note_on_c, 0, 59, 0
4, 108960, Note_on_c, 0, 54, 0
4, 108960, Note_on_c, 0, 54, 83
4, 108960, Note_on_c, 0, 58, 83
4, 108960, Note_on_c, 0, 61, 83
4, 109440, Note_on_c, 0, 61, 0
4, 109440, Note_on_c, 0, 58, 0
4, 109440, Note_on_c, 0, 54, 0
4, 109440, Note_on_c, 0, 47, 83
4, 109440, Note_on_c, 0, 50, 83
4, 109440, Note_on_c, 0, 54, 83
4, 109440, Note_on_c, 0, 59, 83
4, 109920, Note_on_c, 0, 59, 0
4, 109920, Note_on_c, 0, 47, 0
4, 109920, Note_on_c, 0, 50, 0
4, 109920, Note_on_c, 0, 54, 0
4, 109920, Note_on_c, 0, 43, 83
4, 109920, Note_on_c, 0, 55, 83
4, 110880, Note_on_c, 0, 55, 0
4, 110880, Note_on_c, 0, 43, 0
4, 110880, Note_on_c, 0, 38, 83
4, 110880, Note_on_c, 0, 50, 83
4, 111360, Note_on_c, 0, 50, 0
4, 111360, Note_on_c, 0, 38, 0
4, 111360, Note_on_c, 0, 43, 83
4, 111360, Note_on_c, 0, 55, 83
4, 112320, Note_on_c, 0, 55, 0
4, 112320, Note_on_c, 0, 43, 0
4, 112320, Note_on_c, 0, 38, 83
4, 112320, Note_on_c, 0, 50, 83
4, 112800, Note_on_c, 0, 50, 0
4, 112800, Note_on_c, 0, 38, 0
4, 112800, Note_on_c, 0, 43, 83
4, 112800, Note_on_c, 0, 55, 83
4, 113760, Note_on_c, 0, 55, 0
4, 113760, Note_on_c, 0, 43, 0
4, 113760, Note_on_c, 0, 38, 83
4, 113760, Note_on_c, 0, 50, 83
4, 114240, Note_on_c, 0, 50, 0
4, 114240, Note_on_c, 0, 38, 0
4, 114240, Note_on_c, 0, 43, 83
4, 114240, Note_on_c, 0, 55, 83
4, 115200, Note_on_c, 0, 55, 0
4, 115200, Note_on_c, 0, 43, 0
4, 115200, Note_on_c, 0, 38, 83
4, 115200, Note_on_c, 0, 50, 83
4, 115680, Note_on_c, 0, 50, 0
4, 115680, Note_on_c, 0, 38, 0
4, 115680, Note_on_c, 0, 49, 83
4, 115680, Note_on_c, 0, 52, 83
4, 115680, Note_on_c, 0, 57, 83
4, 116160, Note_on_c, 0, 57, 0
4, 116160, Note_on_c, 0, 52, 0
4, 116160, Note_on_c, 0, 49, 0
4, 116160, Note_on_c, 0, 48, 83
4, 116160, Note_on_c, 0, 50, 83
4, 116160, Note_on_c, 0, 54, 83
4, 116160, Note_on_c, 0, 57, 83
4, 116640, Note_on_c, 0, 57, 0
4, 116640, Note_on_c, 0, 48, 0
4, 116640, Note_on_c, 0, 50, 0
4, 116640, Note_on_c, 0, 54, 0
4, 116640, Note_on_c, 0, 47, 83
4, 116640, Note_on_c, 0, 50, 83
4, 116640, Note_on_c, 0, 55, 83
4, 117120, Note_on_c, 0, 55, 0
4, 117120, Note_on_c, 0, 50, 0
4, 117120, Note_on_c, 0, 47, 0
4, 117120, Note_on_c, 0, 49, 83
4, 117120, Note_on_c, 0, 52, 83
4, 117120, Note_on_c, 0, 57, 83
4, 117600, Note_on_c, 0, 57, 0
4, 117600, Note_on_c, 0, 52, 0
4, 117600, Note_on_c, 0, 49, 0
4, 117600, Note_on_c, 0, 48, 83
4, 117600, Note_on_c, 0, 50, 83
4, 117600, Note_on_c, 0, 54, 83
4, 117600, Note_on_c, 0, 57, 83
4, 118080, Note_on_c, 0, 57, 0
4, 118080, Note_on_c, 0, 48, 0
4, 118080, Note_on_c, 0, 50, 0
4, 118080, Note_on_c, 0, 54, 0
4, 118080, Note_on_c, 0, 47, 83
4, 118080, Note_on_c, 0, 50, 83
4, 118080, Note_on_c, 0, 55, 83
4, 118560, Note_on_c, 0, 55, 0
4, 118560, Note_on_c, 0, 50, 0
4, 118560, Note_on_c, 0, 47, 0
4, 118560, Note_on_c, 0, 37, 83
4, 118560, Note_on_c, 0, 49, 83
4, 119040, Note_on_c, 0, 49, 0
4, 119040, Note_on_c, 0, 37, 0
4, 119040, Note_on_c, 0, 49, 83
4, 119040, Note_on_c, 0, 52, 83
4, 119040, Note_on_c, 0, 55, 83
4, 119040, Note_on_c, 0, 58, 83
4, 119520, Note_on_c, 0, 58, 0
4, 119520, Note_on_c, 0, 49, 0
4, 119520, Note_on_c, 0, 52, 0
4, 119520, Note_on_c, 0, 55, 0
4, 119520, Note_on_c, 0, 49, 83
4, 119520, Note_on_c, 0, 52, 83
4, 119520, Note_on_c, 0, 55, 83
4, 119520, Note_on_c, 0, 58, 83
4, 120000, Note_on_c, 0, 58, 0
4, 120000, Note_on_c, 0, 49, 0
4, 120000, Note_on_c, 0, 52, 0
4, 120000, Note_on_c, 0, 55, 0
4, 120000, Note_on_c, 0, 50, 83
4, 120000, Note_on_c, 0, 55, 83
4, 120000, Note_on_c, 0, 59, 83
4, 120000, Note_on_c, 0, 62, 83
4, 120480, Note_on_c, 0, 62, 0
4, 120480, Note_on_c, 0, 50, 0
4, 120480, Note_on_c, 0, 55, 0
4, 120480, Note_on_c, 0, 59, 0
4, 120480, Note_on_c, 0, 50, 83
4, 120480, Note_on_c, 0, 54, 83
4, 120480, Note_on_c, 0, 60, 83
4, 120480, Note_on_c, 0, 62, 83
4, 120960, Note_on_c, 0, 62, 0
4, 120960, Note_on_c, 0, 50, 0
4, 120960, Note_on_c, 0, 54, 0
4, 120960, Note_on_c, 0, 60, 0
4, 120960, Note_on_c, 0, 55, 83
4, 120960, Note_on_c, 0, 59, 83
4, 120960, Note_on_c, 0, 62, 83
4, 121440, Note_on_c, 0, 62, 0
4, 121440, Note_on_c, 0, 59, 0
4, 121440, Note_on_c, 0, 55, 0
4, 121440, Note_on_c, 0, 36, 44
4, 121440, Note_on_c, 0, 48, 44
4, 121536, Note_on_c, 0, 48, 0
4, 121536, Note_on_c, 0, 36, 0
4, 122400, Note_on_c, 0, 55, 44
4, 122400, Note_on_c, 0, 60, 44
4, 122400, Note_on_c, 0, 64, 44
4, 122496, Note_on_c, 0, 64, 0
4, 122496, Note_on_c, 0, 60, 0
4, 122496, Note_on_c, 0, 55, 0
4, 122880, Note_on_c, 0, 48, 44
4, 123360, Note_on_c, 0, 48, 0
4, 123840, Note_on_c, 0, 55, 44
4, 123840, Note_on_c, 0, 59, 44
4, 123840, Note_on_c, 0, 65, 44
4, 123936, Note_on_c, 0, 65, 0
4, 123936, Note_on_c, 0, 59, 0
4, 123936, Note_on_c, 0, 55, 0
4, 124320, Note_on_c, 0, 48, 44
4, 124416, Note_on_c, 0, 48, 0
4, 125280, Note_on_c, 0, 55, 44
4, 125280, Note_on_c, 0, 59, 44
4, 125280, Note_on_c, 0, 65, 44
4, 125376, Note_on_c, 0, 65, 0
4, 125376, Note_on_c, 0, 59, 0
4, 125376, Note_on_c, 0, 55, 0
4, 125760, Note_on_c, 0, 48, 44
4, 125856, Note_on_c, 0, 48, 0
4, 126240, Note_on_c, 0, 57, 44
4, 126240, Note_on_c, 0, 60, 44
4, 126240, Note_on_c, 0, 66, 44
4, 126336, Note_on_c, 0, 66, 0
4, 126336, Note_on_c, 0, 60, 0
4, 126336, Note_on_c, 0, 57, 0
4, 126720, Note_on_c, 0, 60, 44
4, 126720, Note_on_c, 0, 64, 44
4, 126816, Note_on_c, 0, 64, 0
4, 126816, Note_on_c, 0, 60, 0
4, 127200, Note_on_c, 0, 48, 44
4, 127296, Note_on_c, 0, 48, 0
4, 128160, Note_on_c, 0, 55, 44
4, 128160, Note_on_c, 0, 60, 44
4, 128160, Note_on_c, 0, 64, 44
4, 128256, Note_on_c, 0, 64, 0
4, 128256, Note_on_c, 0, 60, 0
4, 128256, Note_on_c, 0, 55, 0
4, 128640, Note_on_c, 0, 48, 44
4, 128736, Note_on_c, 0, 48, 0
4, 129600, Note_on_c, 0, 56, 44
4, 129600, Note_on_c, 0, 59, 44
4, 129600, Note_on_c, 0, 65, 44
4, 129696, Note_on_c, 0, 65, 0
4, 129696, Note_on_c, 0, 59, 0
4, 129696, Note_on_c, 0, 56, 0
4, 130080, Note_on_c, 0, 48, 44
4, 130176, Note_on_c, 0, 48, 0
4, 131040, Note_on_c, 0, 56, 44
4, 131040, Note_on_c, 0, 59, 44
4, 131040, Note_on_c, 0, 65, 44
4, 131136, Note_on_c, 0, 65, 0
4, 131136, Note_on_c, 0, 59, 0
4, 131136, Note_on_c, 0, 56, 0
4, 131520, Note_on_c, 0, 48, 44
4, 131616, Note_on_c, 0, 48, 0
4, 132480, Note_on_c, 0, 55, 44
4, 132480, Note_on_c, 0, 60, 44
4, 132480, Note_on_c, 0, 64, 44
4, 132576, Note_on_c, 0, 64, 0
4, 132576, Note_on_c, 0, 60, 0
4, 132576, Note_on_c, 0, 55, 0
4, 132960, Note_on_c, 0, 55, 44
4, 133056, Note_on_c, 0, 55, 0
4, 133440, Note_on_c, 0, 60, 44
4, 133536, Note_on_c, 0, 60, 0
4, 133920, Note_on_c, 0, 64, 44
4, 134016, Note_on_c, 0, 64, 0
4, 134400, Note_on_c, 0, 65, 44
4, 134496, Note_on_c, 0, 65, 0
4, 134880, Note_on_c, 0, 62, 44
4, 134976, Note_on_c, 0, 62, 0
4, 135360, Note_on_c, 0, 59, 44
4, 135456, Note_on_c, 0, 59, 0
4, 135840, Note_on_c, 0, 55, 44
4, 135936, Note_on_c, 0, 55, 0
4, 136320, Note_on_c, 0, 59, 44
4, 136416, Note_on_c, 0, 59, 0
4, 136800, Note_on_c, 0, 62, 44
4, 136896, Note_on_c, 0, 62, 0
4, 137280, Note_on_c, 0, 63, 44
4, 137376, Note_on_c, 0, 63, 0
4, 137760, Note_on_c, 0, 57, 44
4, 137760, Note_on_c, 0, 60, 44
4, 137760, Note_on_c, 0, 66, 44
4, 138120, Note_on_c, 0, 66, 0
4, 138120, Note_on_c, 0, 60, 0
4, 138120, Note_on_c, 0, 57, 0
4, 138120, Note_on_c, 0, 63, 44
4, 138240, Note_on_c, 0, 63, 0
4, 138240, Note_on_c, 0, 64, 44
4, 138336, Note_on_c, 0, 64, 0
4, 138720, Note_on_c, 0, 55, 44
4, 138816, Note_on_c, 0, 55, 0
4, 139200, Note_on_c, 0, 60, 44
4, 139296, Note_on_c, 0, 60, 0
4, 139680, Note_on_c, 0, 64, 44
4, 139776, Note_on_c, 0, 64, 0
4, 140160, Note_on_c, 0, 68, 44
4, 140256, Note_on_c, 0, 68, 0
4, 140640, Note_on_c, 0, 65, 44
4, 140736, Note_on_c, 0, 65, 0
4, 141120, Note_on_c, 0, 62, 44
4, 141216, Note_on_c, 0, 62, 0
4, 141600, Note_on_c, 0, 59, 44
4, 141696, Note_on_c, 0, 59, 0
4, 142080, Note_on_c, 0, 56, 44
4, 142176, Note_on_c, 0, 56, 0
4, 142560, Note_on_c, 0, 53, 44
4, 142656, Note_on_c, 0, 53, 0
4, 143040, Note_on_c, 0, 52, 44
4, 143136, Note_on_c, 0, 52, 0
4, 143520, Note_on_c, 0, 55, 44
4, 143616, Note_on_c, 0, 55, 0
4, 144000, Note_on_c, 0, 60, 44
4, 144096, Note_on_c, 0, 60, 0
4, 144480, Note_on_c, 0, 60, 44
4, 144480, Note_on_c, 0, 64, 44
4, 145920, Note_on_c, 0, 64, 0
4, 145920, Note_on_c, 0, 60, 0
4, 145920, Note_on_c, 0, 59, 44
4, 145920, Note_on_c, 0, 62, 44
4, 146400, Note_on_c, 0, 62, 0
4, 146400, Note_on_c, 0, 59, 0
4, 146400, Note_on_c, 0, 60, 44
4, 146400, Note_on_c, 0, 64, 44
4, 146880, Note_on_c, 0, 64, 0
4, 146880, Note_on_c, 0, 60, 0
4, 146880, Note_on_c, 0, 62, 44
4, 146880, Note_on_c, 0, 65, 44
4, 147360, Note_on_c, 0, 65, 0
4, 147360, Note_on_c, 0, 62, 0
4, 147360, Note_on_c, 0, 60, 44
4, 147840, Note_on_c, 0, 60, 0
4, 147840, Note_on_c, 0, 62, 44
4, 147840, Note_on_c, 0, 65, 44
4, 148320, Note_on_c, 0, 65, 0
4, 148320, Note_on_c, 0, 62, 0
4, 148320, Note_on_c, 0, 60, 44
4, 148800, Note_on_c, 0, 60, 0
4, 148800, Note_on_c, 0, 59, 44
4, 149760, Note_on_c, 0, 59, 0
4, 149760, Note_on_c, 0, 59, 44
4, 150240, Note_on_c, 0, 59, 0
4, 150240, Note_on_c, 0, 60, 44
4, 150240, Note_on_c, 0, 64, 44
4, 151680, Note_on_c, 0, 64, 0
4, 151680, Note_on_c, 0, 60, 0
4, 151680, Note_on_c, 0, 59, 44
4, 151680, Note_on_c, 0, 62, 44
4, 152160, Note_on_c, 0, 62, 0
4, 152160, Note_on_c, 0, 59, 0
4, 152160, Note_on_c, 0, 60, 44
4, 152160, Note_on_c, 0, 64, 44
4, 152640, Note_on_c, 0, 64, 0
4, 152640, Note_on_c, 0, 60, 0
4, 152640, Note_on_c, 0, 62, 44
4, 152640, Note_on_c, 0, 65, 44
4, 153120, Note_on_c, 0, 65, 0
4, 153120, Note_on_c, 0, 62, 0
4, 153120, Note_on_c, 0, 60, 44
4, 153600, Note_on_c, 0, 60, 0
4, 153600, Note_on_c, 0, 62, 44
4, 153600, Note_on_c, 0, 65, 44
4, 154080, Note_on_c, 0, 65, 0
4, 154080, Note_on_c, 0, 62, 0
4, 154080, Note_on_c, 0, 60, 44
4, 154560, Note_on_c, 0, 60, 0
4, 154560, Note_on_c, 0, 59, 44
4, 155040, Note_on_c, 0, 59, 0
4, 156000, Note_on_c, 0, 36, 44
4, 156000, Note_on_c, 0, 48, 44
4, 156096, Note_on_c, 0, 48, 0
4, 156096, Note_on_c, 0, 36, 0
4, 156960, Note_on_c, 0, 55, 44
4, 156960, Note_on_c, 0, 60, 44
4, 156960, Note_on_c, 0, 64, 44
4, 157056, Note_on_c, 0, 64, 0
4, 157056, Note_on_c, 0, 60, 0
4, 157056, Note_on_c, 0, 55, 0
4, 157440, Note_on_c, 0, 48, 44
4, 157920, Note_on_c, 0, 48, 0
4, 158400, Note_on_c, 0, 55, 44
4, 158400, Note_on_c, 0, 59, 44
4, 158400, Note_on_c, 0, 65, 44
4, 158496, Note_on_c, 0, 65, 0
4, 158496, Note_on_c, 0, 59, 0
4, 158496, Note_on_c, 0, 55, 0
4, 158880, Note_on_c, 0, 48, 44
4, 158976, Note_on_c, 0, 48, 0
4, 159840, Note_on_c, 0, 55, 44
4, 159840, Note_on_c, 0, 59, 44
4, 159840, Note_on_c, 0, 65, 44
4, 159936, Note_on_c, 0, 65, 0
4, 159936, Note_on_c, 0, 59, 0
4, 159936, Note_on_c, 0, 55, 0
4, 160320, Note_on_c, 0, 48, 44
4, 160416, Note_on_c, 0, 48, 0
4, 160800, Note_on_c, 0, 57, 44
4, 160800, Note_on_c, 0, 60, 44
4, 160800, Note_on_c, 0, 66, 44
4, 160896, Note_on_c, 0, 66, 0
4, 160896, Note_on_c, 0, 60, 0
4, 160896, Note_on_c, 0, 57, 0
4, 161280, Note_on_c, 0, 60, 44
4, 161280, Note_on_c, 0, 64, 44
4, 161376, Note_on_c, 0, 64, 0
4, 161376, Note_on_c, 0, 60, 0
4, 161760, Note_on_c, 0, 48, 44
4, 161856, Note_on_c, 0, 48, 0
4, 162720, Note_on_c, 0, 55, 44
4, 162720, Note_on_c, 0, 60, 44
4, 162720, Note_on_c, 0, 64, 44
4, 162816, Note_on_c, 0, 64, 0
4, 162816, Note_on_c, 0, 60, 0
4, 162816, Note_on_c, 0, 55, 0
4, 163200, Note_on_c, 0, 48, 44
4, 163296, Note_on_c, 0, 48, 0
4, 164160, Note_on_c, 0, 56, 44
4, 164160, Note_on_c, 0, 59, 44
4, 164160, Note_on_c, 0, 65, 44
4, 164256, Note_on_c, 0, 65, 0
4, 164256, Note_on_c, 0, 59, 0
4, 164256, Note_on_c, 0, 56, 0
4, 164640, Note_on_c, 0, 48, 44
4, 164736, Note_on_c, 0, 48, 0
4, 165600, Note_on_c, 0, 56, 44
4, 165600, Note_on_c, 0, 59, 44
4, 165600, Note_on_c, 0, 65, 44
4, 165696, Note_on_c, 0, 65, 0
4, 165696, Note_on_c, 0, 59, 0
4, 165696, Note_on_c, 0, 56, 0
4, 166080, Note_on_c, 0, 48, 44
4, 166176, Note_on_c, 0, 48, 0
4, 167040, Note_on_c, 0, 55, 44
4, 167040, Note_on_c, 0, 60, 44
4, 167040, Note_on_c, 0, 64, 44
4, 167136, Note_on_c, 0, 64, 0
4, 167136, Note_on_c, 0, 60, 0
4, 167136, Note_on_c, 0, 55, 0
4, 167520, Note_on_c, 0, 55, 44
4, 167616, Note_on_c, 0, 55, 0
4, 168000, Note_on_c, 0, 60, 44
4, 168096, Note_on_c, 0, 60, 0
4, 168480, Note_on_c, 0, 64, 44
4, 168576, Note_on_c, 0, 64, 0
4, 168960, Note_on_c, 0, 65, 44
4, 169056, Note_on_c, 0, 65, 0
4, 169440, Note_on_c, 0, 62, 44
4, 169536, Note_on_c, 0, 62, 0
4, 169920, Note_on_c, 0, 59, 44
4, 170016, Note_on_c, 0, 59, 0
4, 170400, Note_on_c, 0, 55, 44
4, 170496, Note_on_c, 0, 55, 0
4, 170880, Note_on_c, 0, 59, 44
4, 170976, Note_on_c, 0, 59, 0
4, 171360, Note_on_c, 0, 62, 44
4, 171456, Note_on_c, 0, 62, 0
4, 171840, Note_on_c, 0, 63, 44
4, 171936, Note_on_c, 0, 63, 0
4, 172320, Note_on_c, 0, 57, 44
4, 172320, Note_on_c, 0, 60, 44
4, 172320, Note_on_c, 0, 66, 44
4, 172680, Note_on_c, 0, 66, 0
4, 172680, Note_on_c, 0, 60, 0
4, 172680, Note_on_c, 0, 57, 0
4, 172680, Note_on_c, 0, 63, 44
4, 172800, Note_on_c, 0, 63, 0
4, 172800, Note_on_c, 0, 64, 44
4, 172896, Note_on_c, 0, 64, 0
4, 173280, Note_on_c, 0, 55, 44
4, 173376, Note_on_c, 0, 55, 0
4, 173760, Note_on_c, 0, 60, 44
4, 173856, Note_on_c, 0, 60, 0
4, 174240, Note_on_c, 0, 64, 44
4, 174336, Note_on_c, 0, 64, 0
4, 174720, Note_on_c, 0, 68, 44
4, 174816, Note_on_c, 0, 68, 0
4, 175200, Note_on_c, 0, 65, 44
4, 175296, Note_on_c, 0, 65, 0
4, 175680, Note_on_c, 0, 62, 44
4, 175776, Note_on_c, 0, 62, 0
4, 176160, Note_on_c, 0, 59, 44
4, 176256, Note_on_c, 0, 59, 0
4, 176640, Note_on_c, 0, 56, 44
4, 176736, Note_on_c, 0, 56, 0
4, 177120, Note_on_c, 0, 53, 44
4, 177216, Note_on_c, 0, 53, 0
4, 177600, Note_on_c, 0, 52, 44
4, 177696, Note_on_c, 0, 52, 0
4, 178080, Note_on_c, 0, 55, 44
4, 178176, Note_on_c, 0, 55, 0
4, 178560, Note_on_c, 0, 60, 44
4, 178656, Note_on_c, 0, 60, 0
4, 179040, Control_c, 0, 64, 127
4, 179040, Note_on_c, 0, 55, 70
4, 179280, Note_on_c, 0, 55, 0
4, 179280, Note_on_c, 0, 54, 70
4, 179520, Note_on_c, 0, 54, 0
4, 179520, Note_on_c, 0, 52, 70
4, 179760, Note_on_c, 0, 52, 0
4, 179760, Note_on_c, 0, 54, 70
4, 180000, Note_on_c, 0, 54, 0
4, 180000, Note_on_c, 0, 52, 70
4, 180240, Note_on_c, 0, 52, 0
4, 180240, Control_c, 0, 64, 0
4, 180240, Note_on_c, 0, 51, 70
4, 180480, Note_on_c, 0, 51, 0
4, 180480, Control_c, 0, 64, 127
4, 180480, Note_on_c, 0, 50, 70
4, 180720, Note_on_c, 0, 50, 0
4, 180720, Note_on_c, 0, 51, 70
4, 180960, Note_on_c, 0, 51, 0
4, 180960, Note_on_c, 0, 50, 70
4, 181200, Note_on_c, 0, 50, 0
4, 181200, Note_on_c, 0, 49, 70
4, 181440, Note_on_c, 0, 49, 0
4, 181440, Note_on_c, 0, 48, 70
4, 181680, Note_on_c, 0, 48, 0
4, 181680, Control_c, 0, 64, 0
4, 181680, Note_on_c, 0, 50, 70
4, 181920, Note_on_c, 0, 50, 0
4, 181920, Control_c, 0, 64, 127
4, 181920, Note_on_c, 0, 48, 70
4, 182160, Note_on_c, 0, 48, 0
4, 182160, Note_on_c, 0, 47, 70
4, 182400, Note_on_c, 0, 47, 0
4, 182400, Note_on_c, 0, 46, 70
4, 182640, Note_on_c, 0, 46, 0
4, 182640, Note_on_c, 0, 47, 70
4, 182880, Note_on_c, 0, 47, 0
4, 182880, Note_on_c, 0, 48, 70
4, 183120, Note_on_c, 0, 48, 0
4, 183120, Control_c, 0, 64, 0
4, 183120, Note_on_c, 0, 49, 70
4, 183360, Note_on_c, 0, 49, 0
4, 183360, Control_c, 0, 64, 127
4, 183360, Note_on_c, 0, 50, 70
4, 183600, Note_on_c, 0, 50, 0
4, 183600, Note_on_c, 0, 55, 70
4, 183840, Note_on_c, 0, 55, 0
4, 183840, Note_on_c, 0, 59, 70
4, 184080, Note_on_c, 0, 59, 0
4, 184080, Note_on_c, 0, 60, 70
4, 184320, Note_on_c, 0, 60, 0
4, 184320, Note_on_c, 0, 62, 70
4, 184560, Note_on_c, 0, 62, 0
4, 184560, Control_c, 0, 64, 0
4, 184560, Note_on_c, 0, 50, 70
4, 184800, Note_on_c, 0, 50, 0
4, 184800, Control_c, 0, 64, 127
4, 184800, Note_on_c, 0, 55, 70
4, 185040, Note_on_c, 0, 55, 0
4, 185040, Note_on_c, 0, 54, 70
4, 185280, Note_on_c, 0, 54, 0
4, 185280, Note_on_c, 0, 52, 70
4, 185520, Note_on_c, 0, 52, 0
4, 185520, Note_on_c, 0, 54, 70
4, 185760, Note_on_c, 0, 54, 0
4, 185760, Note_on_c, 0, 52, 70
4, 186000, Note_on_c, 0, 52, 0
4, 186000, Control_c, 0, 64, 0
4, 186000, Note_on_c, 0, 51, 70
4, 186240, Note_on_c, 0, 51, 0
4, 186240, Control_c, 0, 64, 127
4, 186240, Note_on_c, 0, 50, 70
4, 186480, Note_on_c, 0, 50, 0
4, 186480, Note_on_c, 0, 51, 70
4, 186720, Note_on_c, 0, 51, 0
4, 186720, Note_on_c, 0, 50, 70
4, 186960, Note_on_c, 0, 50, 0
4, 186960, Note_on_c, 0, 49, 70
4, 187200, Note_on_c, 0, 49, 0
4, 187200, Note_on_c, 0, 48, 70
4, 187440, Note_on_c, 0, 48, 0
4, 187440, Control_c, 0, 64, 0
4, 187440, Note_on_c, 0, 50, 70
4, 187680, Note_on_c, 0, 50, 0
4, 187680, Control_c, 0, 64, 127
4, 187680, Note_on_c, 0, 48, 70
4, 187920, Note_on_c, 0, 48, 0
4, 187920, Note_on_c, 0, 47, 70
4, 188160, Note_on_c, 0, 47, 0
4, 188160, Note_on_c, 0, 46, 70
4, 188400, Note_on_c, 0, 46, 0
4, 188400, Note_on_c, 0, 47, 70
4, 188640, Note_on_c, 0, 47, 0
4, 188640, Note_on_c, 0, 48, 70
4, 188880, Note_on_c, 0, 48, 0
4, 188880, Control_c, 0, 64, 0
4, 188880, Note_on_c, 0, 49, 70
4, 189120, Note_on_c, 0, 49, 0
4, 189120, Note_on_c, 0, 50, 70
4, 189360, Note_on_c, 0, 50, 0
4, 189360, Note_on_c, 0, 47, 70
4, 189600, Note_on_c, 0, 47, 0
4, 189600, Note_on_c, 0, 50, 70
4, 189840, Note_on_c, 0, 50, 0
4, 189840, Note_on_c, 0, 54, 70
4, 190080, Note_on_c, 0, 54, 0
4, 190080, Note_on_c, 0, 55, 70
4, 190560, Note_on_c, 0, 55, 0
4, 190560, Control_c, 0, 64, 127
4, 190560, Note_on_c, 0, 55, 70
4, 190800, Note_on_c, 0, 55, 0
4, 190800, Note_on_c, 0, 54, 70
4, 191040, Note_on_c, 0, 54, 0
4, 191040, Note_on_c, 0, 52, 70
4, 191280, Note_on_c, 0, 52, 0
4, 191280, Note_on_c, 0, 54, 70
4, 191520, Note_on_c, 0, 54, 0
4, 191520, Note_on_c, 0, 52, 70
4, 191760, Note_on_c, 0, 52, 0
4, 191760, Control_c, 0, 64, 0
4, 191760, Note_on_c, 0, 51, 70
4, 192000, Note_on_c, 0, 51, 0
4, 192000, Control_c, 0, 64, 127
4, 192000, Note_on_c, 0, 50, 70
4, 192240, Note_on_c, 0, 50, 0
4, 192240, Note_on_c, 0, 51, 70
4, 192480, Note_on_c, 0, 51, 0
4, 192480, Note_on_c, 0, 50, 70
4, 192720, Note_on_c, 0, 50, 0
4, 192720, Note_on_c, 0, 49, 70
4, 192960, Note_on_c, 0, 49, 0
4, 192960, Note_on_c, 0, 48, 70
4, 193200, Note_on_c, 0, 48, 0
4, 193200, Control_c, 0, 64, 0
4, 193200, Note_on_c, 0, 50, 70
4, 193440, Note_on_c, 0, 50, 0
4, 193440, Control_c, 0, 64, 127
4, 193440, Note_on_c, 0, 48, 70
4, 193680, Note_on_c, 0, 48, 0
4, 193680, Note_on_c, 0, 47, 70
4, 193920, Note_on_c, 0, 47, 0
4, 193920, Note_on_c, 0, 46, 70
4, 194160, Note_on_c, 0, 46, 0
4, 194160, Note_on_c, 0, 47, 70
4, 194400, Note_on_c, 0, 47, 0
4, 194400, Note_on_c, 0, 48, 70
4, 194640, Note_on_c, 0, 48, 0
4, 194640, Control_c, 0, 64, 0
4, 194640, Note_on_c, 0, 49, 70
4, 194880, Note_on_c, 0, 49, 0
4, 194880, Control_c, 0, 64, 127
4, 194880, Note_on_c, 0, 50, 70
4, 195120, Note_on_c, 0, 50, 0
4, 195120, Note_on_c, 0, 55, 70
4, 195360, Note_on_c, 0, 55, 0
4, 195360, Note_on_c, 0, 59, 70
4, 195600, Note_on_c, 0, 59, 0
4, 195600, Note_on_c, 0, 60, 70
4, 195840, Note_on_c, 0, 60, 0
4, 195840, Note_on_c, 0, 62, 70
4, 196080, Note_on_c, 0, 62, 0
4, 196080, Control_c, 0, 64, 0
4, 196080, Note_on_c, 0, 50, 70
4, 196320, Note_on_c, 0, 50, 0
4, 196320, Control_c, 0, 64, 127
4, 196320, Note_on_c, 0, 55, 70
4, 196560, Note_on_c, 0, 55, 0
4, 196560, Note_on_c, 0, 54, 70
4, 196800, Note_on_c, 0, 54, 0
4, 196800, Note_on_c, 0, 52, 70
4, 197040, Note_on_c, 0, 52, 0
4, 197040, Note_on_c, 0, 54, 70
4, 197280, Note_on_c, 0, 54, 0
4, 197280, Note_on_c, 0, 52, 70
4, 197520, Note_on_c, 0, 52, 0
4, 197520, Control_c, 0, 64, 0
4, 197520, Note_on_c, 0, 51, 70
4, 197760, Note_on_c, 0, 51, 0
4, 197760, Control_c, 0, 64, 127
4, 197760, Note_on_c, 0, 50, 70
4, 198000, Note_on_c, 0, 50, 0
4, 198000, Note_on_c, 0, 51, 70
4, 198240, Note_on_c, 0, 51, 0
4, 198240, Note_on_c, 0, 50, 70
4, 198480, Note_on_c, 0, 50, 0
4, 198480, Note_on_c, 0, 49, 70
4, 198720, Note_on_c, 0, 49, 0
4, 198720, Note_on_c, 0, 48, 70
4, 198960, Note_on_c, 0, 48, 0
4, 198960, Control_c, 0, 64, 0
4, 198960, Note_on_c, 0, 50, 70
4, 199200, Note_on_c, 0, 50, 0
4, 199200, Control_c, 0, 64, 127
4, 199200, Note_on_c, 0, 48, 70
4, 199440, Note_on_c, 0, 48, 0
4, 199440, Note_on_c, 0, 47, 70
4, 199680, Note_on_c, 0, 47, 0
4, 199680, Note_on_c, 0, 46, 70
4, 199920, Note_on_c, 0, 46, 0
4, 199920, Note_on_c, 0, 47, 70
4, 200160, Note_on_c, 0, 47, 0
4, 200160, Note_on_c, 0, 48, 70
4, 200400, Note_on_c, 0, 48, 0
4, 200400, Control_c, 0, 64, 0
4, 200400, Note_on_c, 0, 49, 70
4, 200640, Note_on_c, 0, 49, 0
4, 200640, Note_on_c, 0, 50, 70
4, 200880, Note_on_c, 0, 50, 0
4, 200880, Note_on_c, 0, 47, 70
4, 201120, Note_on_c, 0, 47, 0
4, 201120, Note_on_c, 0, 50, 70
4, 201360, Note_on_c, 0, 50, 0
4, 201360, Note_on_c, 0, 54, 70
4, 201600, Note_on_c, 0, 54, 0
4, 201600, Note_on_c, 0, 55, 70
4, 202080, Note_on_c, 0, 55, 0
4, 202080, Control_c, 0, 64, 127
4, 202080, Note_on_c, 0, 50, 70
4, 202320, Note_on_c, 0, 50, 0
4, 202320, Note_on_c, 0, 49, 70
4, 202560, Note_on_c, 0, 49, 0
4, 202560, Note_on_c, 0, 47, 70
4, 202800, Note_on_c, 0, 47, 0
4, 202800, Note_on_c, 0, 49, 70
4, 203040, Note_on_c, 0, 49, 0
4, 203040, Note_on_c, 0, 47, 70
4, 203280, Note_on_c, 0, 47, 0
4, 203280, Control_c, 0, 64, 0
4, 203280, Note_on_c, 0, 46, 70
4, 203520, Note_on_c, 0, 46, 0
4, 203520, Control_c, 0, 64, 127
4, 203520, Note_on_c, 0, 45, 70
4, 203760, Note_on_c, 0, 45, 0
4, 203760, Note_on_c, 0, 46, 70
4, 204000, Note_on_c, 0, 46, 0
4, 204000, Note_on_c, 0, 45, 70
4, 204240, Note_on_c, 0, 45, 0
4, 204240, Note_on_c, 0, 44, 70
4, 204480, Note_on_c, 0, 44, 0
4, 204480, Note_on_c, 0, 43, 70
4, 204720, Note_on_c, 0, 43, 0
4, 204720, Control_c, 0, 64, 0
4, 204720, Note_on_c, 0, 45, 70
4, 204960, Note_on_c, 0, 45, 0
4, 204960, Control_c, 0, 64, 127
4, 204960, Note_on_c, 0, 43, 70
4, 205200, Note_on_c, 0, 43, 0
4, 205200, Note_on_c, 0, 42, 70
4, 205440, Note_on_c, 0, 42, 0
4, 205440, Note_on_c, 0, 41, 70
4, 205680, Note_on_c, 0, 41, 0
4, 205680, Note_on_c, 0, 42, 70
4, 205920, Note_on_c, 0, 42, 0
4, 205920, Note_on_c, 0, 43, 70
4, 206160, Note_on_c, 0, 43, 0
4, 206160, Control_c, 0, 64, 0
4, 206160, Note_on_c, 0, 44, 70
4, 206400, Note_on_c, 0, 44, 0
4, 206400, Control_c, 0, 64, 127
4, 206400, Note_on_c, 0, 45, 70
4, 206640, Note_on_c, 0, 45, 0
4, 206640, Note_on_c, 0, 50, 70
4, 206880, Note_on_c, 0, 50, 0
4, 206880, Note_on_c, 0, 54, 70
4, 207120, Note_on_c, 0, 54, 0
4, 207120, Note_on_c, 0, 55, 70
4, 207360, Note_on_c, 0, 55, 0
4, 207360, Note_on_c, 0, 57, 70
4, 207600, Note_on_c, 0, 57, 0
4, 207600, Control_c, 0, 64, 0
4, 207600, Note_on_c, 0, 45, 70
4, 207840, Note_on_c, 0, 45, 0
4, 207840, Control_c, 0, 64, 127
4, 207840, Note_on_c, 0, 50, 70
4, 208080, Note_on_c, 0, 50, 0
4, 208080, Note_on_c, 0, 49, 70
4, 208320, Note_on_c, 0, 49, 0
4, 208320, Note_on_c, 0, 47, 70
4, 208560, Note_on_c, 0, 47, 0
4, 208560, Note_on_c, 0, 49, 70
4, 208800, Note_on_c, 0, 49, 0
4, 208800, Note_on_c, 0, 47, 70
4, 209040, Note_on_c, 0, 47, 0
4, 209040, Control_c, 0, 64, 0
4, 209040, Note_on_c, 0, 46, 70
4, 209280, Note_on_c, 0, 46, 0
4, 209280, Control_c, 0, 64, 127
4, 209280, Note_on_c, 0, 45, 70
4, 209520, Note_on_c, 0, 45, 0
4, 209520, Note_on_c, 0, 46, 70
4, 209760, Note_on_c, 0, 46, 0
4, 209760, Note_on_c, 0, 45, 70
4, 210000, Note_on_c, 0, 45, 0
4, 210000, Note_on_c, 0, 44, 70
4, 210240, Note_on_c, 0, 44, 0
4, 210240, Note_on_c, 0, 43, 70
4, 210480, Note_on_c, 0, 43, 0
4, 210480, Control_c, 0, 64, 0
4, 210480, Note_on_c, 0, 45, 70
4, 210720, Note_on_c, 0, 45, 0
4, 210720, Control_c, 0, 64, 127
4, 210720, Note_on_c, 0, 43, 70
4, 210960, Note_on_c, 0, 43, 0
4, 210960, Note_on_c, 0, 42, 70
4, 211200, Note_on_c, 0, 42, 0
4, 211200, Note_on_c, 0, 41, 70
4, 211440, Note_on_c, 0, 41, 0
4, 211440, Note_on_c, 0, 42, 70
4, 211680, Note_on_c, 0, 42, 0
4, 211680, Note_on_c, 0, 43, 70
4, 211920, Note_on_c, 0, 43, 0
4, 211920, Control_c, 0, 64, 0
4, 211920, Note_on_c, 0, 44, 70
4, 212160, Note_on_c, 0, 44, 0
4, 212160, Control_c, 0, 64, 127
4, 212160, Note_on_c, 0, 45, 70
4, 212400, Note_on_c, 0, 45, 0
4, 212400, Note_on_c, 0, 42, 70
4, 212640, Note_on_c, 0, 42, 0
4, 212640, Note_on_c, 0, 45, 70
4, 212880, Note_on_c, 0, 45, 0
4, 212880, Control_c, 0, 64, 0
4, 212880, Note_on_c, 0, 49, 70
4, 213120, Note_on_c, 0, 49, 0
4, 213120, Note_on_c, 0, 50, 70
4, 213600, Note_on_c, 0, 50, 0
4, 213600, Note_on_c, 0, 45, 57
4, 213600, Note_on_c, 0, 57, 57
4, 213696, Note_on_c, 0, 57, 0
4, 213696, Note_on_c, 0, 45, 0
4, 214080, Note_on_c, 0, 38, 57
4, 214080, Note_on_c, 0, 50, 57
4, 214176, Note_on_c, 0, 50, 0
4, 214176, Note_on_c, 0, 38, 0
4, 214560, Note_on_c, 0, 45, 57
4, 214560, Note_on_c, 0, 57, 57
4, 214656, Note_on_c, 0, 57, 0
4, 214656, Note_on_c, 0, 45, 0
4, 215040, Note_on_c, 0, 38, 57
4, 215040, Note_on_c, 0, 50, 57
4, 215136, Note_on_c, 0, 50, 0
4, 215136, Note_on_c, 0, 38, 0
4, 215520, Note_on_c, 0, 45, 57
4, 215520, Note_on_c, 0, 57, 57
4, 215616, Note_on_c, 0, 57, 0
4, 215616, Note_on_c, 0, 45, 0
4, 216000, Note_on_c, 0, 38, 57
4, 216000, Note_on_c, 0, 50, 57
4, 216096, Note_on_c, 0, 50, 0
4, 216096, Note_on_c, 0, 38, 0
4, 216480, Note_on_c, 0, 45, 70
4, 216480, Note_on_c, 0, 57, 70
4, 216576, Note_on_c, 0, 57, 0
4, 216576, Note_on_c, 0, 45, 0
4, 216960, Note_on_c, 0, 38, 70
4, 216960, Note_on_c, 0, 50, 70
4, 217056, Note_on_c, 0, 50, 0
4, 217056, Note_on_c, 0, 38, 0
4, 217440, Note_on_c, 0, 45, 70
4, 217440, Note_on_c, 0, 57, 70
4, 217536, Note_on_c, 0, 57, 0
4, 217536, Note_on_c, 0, 45, 0
4, 217920, Note_on_c, 0, 38, 70
4, 217920, Note_on_c, 0, 50, 70
4, 218016, Note_on_c, 0, 50, 0
4, 218016, Note_on_c, 0, 38, 0
4, 218400, Note_on_c, 0, 45, 70
4, 218400, Note_on_c, 0, 57, 70
4, 218496, Note_on_c, 0, 57, 0
4, 218496, Note_on_c, 0, 45, 0
4, 218880, Note_on_c, 0, 38, 70
4, 218880, Note_on_c, 0, 50, 70
4, 218976, Note_on_c, 0, 50, 0
4, 218976, Note_on_c, 0, 38, 0
4, 219360, Note_on_c, 0, 45, 70
4, 219360, Note_on_c, 0, 57, 70
4, 219456, Note_on_c, 0, 57, 0
4, 219456, Note_on_c, 0, 45, 0
4, 219840, Note_on_c, 0, 38, 70
4, 219840, Note_on_c, 0, 50, 70
4, 219936, Note_on_c, 0, 50, 0
4, 219936, Note_on_c, 0, 38, 0
4, 220320, Note_on_c, 0, 45, 70
4, 220320, Note_on_c, 0, 57, 70
4, 220416, Note_on_c, 0, 57, 0
4, 220416, Note_on_c, 0, 45, 0
4, 220800, Note_on_c, 0, 38, 70
4, 220800, Note_on_c, 0, 50, 70
4, 220896, Note_on_c, 0, 50, 0
4, 220896, Note_on_c, 0, 38, 0
4, 221280, Note_on_c, 0, 45, 70
4, 221280, Note_on_c, 0, 57, 70
4, 221376, Note_on_c, 0, 57, 0
4, 221376, Note_on_c, 0, 45, 0
4, 221760, Note_on_c, 0, 38, 70
4, 221760, Note_on_c, 0, 50, 70
4, 221856, Note_on_c, 0, 50, 0
4, 221856, Note_on_c, 0, 38, 0
4, 222720, Note_on_c, 0, 48, 70
4, 222720, Note_on_c, 0, 54, 70
4, 222720, Note_on_c, 0, 57, 70
4, 222720, Note_on_c, 0, 60, 70
4, 223680, Note_on_c, 0, 60, 0
4, 223680, Note_on_c, 0, 48, 0
4, 223680, Note_on_c, 0, 54, 0
4, 223680, Note_on_c, 0, 57, 0
4, 223680, Note_on_c, 0, 45, 70
4, 223680, Note_on_c, 0, 50, 70
4, 223680, Note_on_c, 0, 54, 70
4, 223680, Note_on_c, 0, 57, 70
4, 224160, Note_on_c, 0, 57, 0
4, 224160, Note_on_c, 0, 45, 0
4, 224160, Note_on_c, 0, 50, 0
4, 224160, Note_on_c, 0, 54, 0
4, 224160, Note_on_c, 0, 42, 70
4, 224160, Note_on_c, 0, 45, 70
4, 224160, Note_on_c, 0, 50, 70
4, 224160, Note_on_c, 0, 54, 70
4, 224640, Note_on_c, 0, 54, 0
4, 224640, Note_on_c, 0, 42, 0
4, 224640, Note_on_c, 0, 45, 0
4, 224640, Note_on_c, 0, 50, 0
4, 224640, Note_on_c, 0, 38, 83
4, 224640, Note_on_c, 0, 50, 83
4, 225120, Note_on_c, 0, 50, 0
4, 225120, Note_on_c, 0, 38, 0
4, 225120, Note_on_c, 0, 43, 83
4, 225120, Note_on_c, 0, 55, 83
4, 226080, Note_on_c, 0, 55, 0
4, 226080, Note_on_c, 0, 43, 0
4, 226080, Note_on_c, 0, 38, 83
4, 226080, Note_on_c, 0, 50, 83
4, 226560, Note_on_c, 0, 50, 0
4, 226560, Note_on_c, 0, 38, 0
4, 226560, Note_on_c, 0, 43, 83
4, 226560, Note_on_c, 0, 55, 83
4, 227520, Note_on_c, 0, 55, 0
4, 227520, Note_on_c, 0, 43, 0
4, 227520, Note_on_c, 0, 38, 83
4, 227520, Note_on_c, 0, 50, 83
4, 228000, Note_on_c, 0, 50, 0
4, 228000, Note_on_c, 0, 38, 0
4, 228000, Note_on_c, 0, 43, 83
4, 228000, Note_on_c, 0, 55, 83
4, 228960, Note_on_c, 0, 55, 0
4, 228960, Note_on_c, 0, 43, 0
4, 228960, Note_on_c, 0, 38, 83
4, 228960, Note_on_c, 0, 50, 83
4, 229440, Note_on_c, 0, 50, 0
4, 229440, Note_on_c, 0, 38, 0
4, 229440, Note_on_c, 0, 43, 83
4, 229440, Note_on_c, 0, 55, 83
4, 230400, Note_on_c, 0, 55, 0
4, 230400, Note_on_c, 0, 43, 0
4, 230400, Note_on_c, 0, 38, 83
4, 230400, Note_on_c, 0, 50, 83
4, 230880, Note_on_c, 0, 50, 0
4, 230880, Note_on_c, 0, 38, 0
4, 230880, Note_on_c, 0, 49, 83
4, 230880, Note_on_c, 0, 52, 83
4, 230880, Note_on_c, 0, 57, 83
4, 231360, Note_on_c, 0, 57, 0
4, 231360, Note_on_c, 0, 52, 0
4, 231360, Note_on_c, 0, 49, 0
4, 231360, Note_on_c, 0, 48, 83
4, 231360, Note_on_c, 0, 50, 83
4, 231360, Note_on_c, 0, 54, 83
4, 231360, Note_on_c, 0, 57, 83
4, 231840, Note_on_c, 0, 57, 0
4, 231840, Note_on_c, 0, 48, 0
4, 231840, Note_on_c, 0, 50, 0
4, 231840, Note_on_c, 0, 54, 0
4, 231840, Note_on_c, 0, 47, 83
4, 231840, Note_on_c, 0, 50, 83
4, 231840, Note_on_c, 0, 55, 83
4, 232320, Note_on_c, 0, 55, 0
4, 232320, Note_on_c, 0, 50, 0
4, 232320, Note_on_c, 0, 47, 0
4, 232320, Note_on_c, 0, 49, 83
4, 232320, Note_on_c, 0, 52, 83
4, 232320, Note_on_c, 0, 57, 83
4, 232800, Note_on_c, 0, 57, 0
4, 232800, Note_on_c, 0, 52, 0
4, 232800, Note_on_c, 0, 49, 0
4, 232800, Note_on_c, 0, 48, 83
4, 232800, Note_on_c, 0, 50, 83
4, 232800, Note_on_c, 0, 54, 83
4, 232800, Note_on_c, 0, 57, 83
4, 233280, Note_on_c, 0, 57, 0
4, 233280, Note_on_c, 0, 48, 0
4, 233280, Note_on_c, 0, 50, 0
4, 233280, Note_on_c, 0, 54, 0
4, 233280, Note_on_c, 0, 47, 83
4, 233280, Note_on_c, 0, 50, 83
4, 233280, Note_on_c, 0, 55, 83
4, 233760, Note_on_c, 0, 55, 0
4, 233760, Note_on_c, 0, 50, 0
4, 233760, Note_on_c, 0, 47, 0
4, 233760, Note_on_c, 0, 57, 83
4, 233760, Note_on_c, 0, 60, 83
4, 233760, Note_on_c, 0, 62, 83
4, 234120, Note_on_c, 0, 62, 0
4, 234120, Note_on_c, 0, 60, 0
4, 234120, Note_on_c, 0, 57, 0
4, 234120, Note_on_c, 0, 57, 83
4, 234120, Note_on_c, 0, 60, 83
4, 234120, Note_on_c, 0, 62, 83
4, 234240, Note_on_c, 0, 62, 0
4, 234240, Note_on_c, 0, 60, 0
4, 234240, Note_on_c, 0, 57, 0
4, 234240, Note_on_c, 0, 55, 83
4, 234240, Note_on_c, 0, 59, 83
4, 234240, Note_on_c, 0, 62, 83
4, 235200, Note_on_c, 0, 62, 0
4, 235200, Note_on_c, 0, 59, 0
4, 235200, Note_on_c, 0, 55, 0
4, 235200, Note_on_c, 0, 54, 83
4, 235200, Note_on_c, 0, 59, 83
4, 235200, Note_on_c, 0, 62, 83
4, 235680, Note_on_c, 0, 62, 0
4, 235680, Note_on_c, 0, 59, 0
4, 235680, Note_on_c, 0, 54, 0
4, 235680, Note_on_c, 0, 54, 83
4, 235680, Note_on_c, 0, 58, 83
4, 235680, Note_on_c, 0, 61, 83
4, 236160, Note_on_c, 0, 61, 0
4, 236160, Note_on_c, 0, 58, 0
4, 236160, Note_on_c, 0, 54, 0
4, 236160, Note_on_c, 0, 47, 83
4, 236160, Note_on_c, 0, 50, 83
4, 236160, Note_on_c, 0, 54, 83
4, 236160, Note_on_c, 0, 59, 83
4, 236640, Note_on_c, 0, 59, 0
4, 236640, Note_on_c, 0, 47, 0
4, 236640, Note_on_c, 0, 50, 0
4, 236640, Note_on_c, 0, 54, 0
4, 236640, Note_on_c, 0, 43, 83
4, 236640, Note_on_c, 0, 55, 83
4, 237600, Note_on_c, 0, 55, 0
4, 237600, Note_on_c, 0, 43, 0
4, 237600, Note_on_c, 0, 38, 83
4, 237600, Note_on_c, 0, 50, 83
4, 238080, Note_on_c, 0, 50, 0
4, 238080, Note_on_c, 0, 38, 0
4, 238080, Note_on_c, 0, 43, 83
4, 238080, Note_on_c, 0, 55, 83
4, 239040, Note_on_c, 0, 55, 0
4, 239040, Note_on_c, 0, 43, 0
4, 239040, Note_on_c, 0, 38, 83
4, 239040, Note_on_c, 0, 50, 83
4, 239520, Note_on_c, 0, 50, 0
4, 239520, Note_on_c, 0, 38, 0
4, 239520, Note_on_c, 0, 43, 83
4, 239520, Note_on_c, 0, 55, 83
4, 240480, Note_on_c, 0, 55, 0
4, 240480, Note_on_c, 0, 43, 0
4, 240480, Note_on_c, 0, 38, 83
4, 240480, Note_on_c, 0, 50, 83
4, 240960, Note_on_c, 0, 50, 0
4, 240960, Note_on_c, 0, 38, 0
4, 240960, Note_on_c, 0, 43, 83
4, 240960, Note_on_c, 0, 55, 83
4, 241920, Note_on_c, 0, 55, 0
4, 241920, Note_on_c, 0, 43, 0
4, 241920, Note_on_c, 0, 38, 83
4, 241920, Note_on_c, 0, 50, 83
4, 242400, Note_on_c, 0, 50, 0
4, 242400, Note_on_c, 0, 38, 0
4, 242400, Note_on_c, 0, 49, 44
4, 242400, Note_on_c, 0, 52, 44
4, 242400, Note_on_c, 0, 57, 44
4, 242880, Note_on_c, 0, 57, 0
4, 242880, Note_on_c, 0, 52, 0
4, 242880, Note_on_c, 0, 49, 0
4, 242880, Note_on_c, 0, 48, 44
4, 242880, Note_on_c, 0, 50, 44
4, 242880, Note_on_c, 0, 54, 44
4, 242880, Note_on_c, 0, 57, 44
4, 243360, Note_on_c, 0, 57, 0
4, 243360, Note_on_c, 0, 48, 0
4, 243360, Note_on_c, 0, 50, 0
4, 243360, Note_on_c, 0, 54, 0
4, 243360, Note_on_c, 0, 47, 44
4, 243360, Note_on_c, 0, 50, 44
4, 243360, Note_on_c, 0, 55, 44
4, 243840, Note_on_c, 0, 55, 0
4, 243840, Note_on_c, 0, 50, 0
4, 243840, Note_on_c, 0, 47, 0
4, 243840, Note_on_c, 0, 49, 44
4, 243840, Note_on_c, 0, 52, 44
4, 243840, Note_on_c, 0, 57, 44
4, 244320, Note_on_c, 0, 57, 0
4, 244320, Note_on_c, 0, 52, 0
4, 244320, Note_on_c, 0, 49, 0
4, 244320, Note_on_c, 0, 48, 44
4, 244320, Note_on_c, 0, 50, 44
4, 244320, Note_on_c, 0, 54, 44
4, 244320, Note_on_c, 0, 57, 44
4, 244800, Note_on_c, 0, 57, 0
4, 244800, Note_on_c, 0, 48, 0
4, 244800, Note_on_c, 0, 50, 0
4, 244800, Note_on_c, 0, 54, 0
4, 244800, Note_on_c, 0, 47, 44
4, 244800, Note_on_c, 0, 50, 44
4, 244800, Note_on_c, 0, 55, 44
4, 245280, Note_on_c, 0, 55, 0
4, 245280, Note_on_c, 0, 50, 0
4, 245280, Note_on_c, 0, 47, 0
4, 245280, Note_on_c, 0, 40, 70
4, 245280, Note_on_c, 0, 52, 70
4, 245760, Note_on_c, 0, 52, 0
4, 245760, Note_on_c, 0, 40, 0
4, 245760, Note_on_c, 0, 52, 70
4, 245760, Note_on_c, 0, 55, 70
4, 245760, Note_on_c, 0, 59, 70
4, 245760, Note_on_c, 0, 61, 70
4, 246240, Note_on_c, 0, 61, 0
4, 246240, Note_on_c, 0, 52, 0
4, 246240, Note_on_c, 0, 55, 0
4, 246240, Note_on_c, 0, 59, 0
4, 246240, Note_on_c, 0, 52, 70
4, 246240, Note_on_c, 0, 55, 70
4, 246240, Note_on_c, 0, 59, 70
4, 246240, Note_on_c, 0, 61, 70
4, 246720, Note_on_c, 0, 61, 0
4, 246720, Note_on_c, 0, 52, 0
4, 246720, Note_on_c, 0, 55, 0
4, 246720, Note_on_c, 0, 59, 0
4, 246720, Note_on_c, 0, 45, 70
4, 246720, Note_on_c, 0, 50, 70
4, 246720, Note_on_c, 0, 54, 70
4, 246720, Note_on_c, 0, 57, 70
4, 247200, Note_on_c, 0, 57, 0
4, 247200, Note_on_c, 0, 45, 0
4, 247200, Note_on_c, 0, 50, 0
4, 247200, Note_on_c, 0, 54, 0
4, 247200, Note_on_c, 0, 45, 70
4, 247200, Note_on_c, 0, 49, 70
4, 247200, Note_on_c, 0, 55, 70
4, 247200, Note_on_c, 0, 57, 70
4, 247680, Note_on_c, 0, 57, 0
4, 247680, Note_on_c, 0, 45, 0
4, 247680, Note_on_c, 0, 49, 0
4, 247680, Note_on_c, 0, 55, 0
4, 247680, Note_on_c, 0, 50, 70
4, 247680, Note_on_c, 0, 54, 70
4, 247680, Note_on_c, 0, 57, 70
4, 248160, Note_on_c, 0, 57, 0
4, 248160, Note_on_c, 0, 54, 0
4, 248160, Note_on_c, 0, 50, 0
4, 248160, Note_on_c, 0, 38, 83
4, 248160, Note_on_c, 0, 50, 83
4, 249120, Note_on_c, 0, 50, 0
4, 249120, Note_on_c, 0, 38, 0
4, 249120, Note_on_c, 0, 39, 83
4, 249120, Note_on_c, 0, 51, 83
4, 249600, Note_on_c, 0, 51, 0
4, 249600, Note_on_c, 0, 39, 0
4, 249600, Note_on_c, 0, 40, 83
4, 249600, Note_on_c, 0, 52, 83
4, 250080, Note_on_c, 0, 52, 0
4, 250080, Note_on_c, 0, 40, 0
4, 250080, Note_on_c, 0, 41, 83
4, 250080, Note_on_c, 0, 53, 83
4, 250560, Note_on_c, 0, 53, 0
4, 250560, Note_on_c, 0, 41, 0
4, 250560, Note_on_c, 0, 42, 83
4, 250560, Note_on_c, 0, 54, 83
4, 251040, Note_on_c, 0, 54, 0
4, 251040, Note_on_c, 0, 42, 0
4, 251040, Note_on_c, 0, 43, 83
4, 251040, Note_on_c, 0, 55, 83
4, 251520, Note_on_c, 0, 55, 0
4, 251520, Note_on_c, 0, 43, 0
4, 251520, Note_on_c, 0, 45, 83
4, 251520, Note_on_c, 0, 57, 83
4, 252000, Note_on_c, 0, 57, 0
4, 252000, Note_on_c, 0, 45, 0
4, 252000, Note_on_c, 0, 46, 83
4, 252000, Note_on_c, 0, 58, 83
4, 252480, Note_on_c, 0, 58, 0
4, 252480, Note_on_c, 0, 46, 0
4, 252480, Note_on_c, 0, 47, 83
4, 252480, Note_on_c, 0, 59, 83
4, 252960, Note_on_c, 0, 59, 0
4, 252960, Note_on_c, 0, 47, 0
4, 252960, Note_on_c, 0, 49, 83
4, 252960, Note_on_c, 0, 61, 83
4, 253440, Note_on_c, 0, 61, 0
4, 253440, Note_on_c, 0, 49, 0
4, 253440, Note_on_c, 0, 50, 83
4, 253440, Note_on_c, 0, 62, 83
4, 253920, Note_on_c, 0, 62, 0
4, 253920, Note_on_c, 0, 50, 0
4, 253920, Note_on_c, 0, 52, 44
4, 253920, Note_on_c, 0, 55, 44
4, 253920, Note_on_c, 0, 59, 44
4, 253920, Note_on_c, 0, 64, 44
4, 254400, Note_on_c, 0, 64, 0
4, 254400, Note_on_c, 0, 52, 0
4, 254400, Note_on_c, 0, 55, 0
4, 254400, Note_on_c, 0, 59, 0
4, 254400, Note_on_c, 0, 52, 44
4, 254400, Note_on_c, 0, 55, 44
4, 254400, Note_on_c, 0, 59, 44
4, 254400, Note_on_c, 0, 64, 44
4, 254880, Note_on_c, 0, 64, 0
4, 254880, Note_on_c, 0, 52, 0
4, 254880, Note_on_c, 0, 55, 0
4, 254880, Note_on_c, 0, 59, 0
4, 254880, Note_on_c, 0, 52, 44
4, 254880, Note_on_c, 0, 55, 44
4, 254880, Note_on_c, 0, 59, 44
4, 254880, Note_on_c, 0, 64, 44
4, 255360, Note_on_c, 0, 64, 0
4, 255360, Note_on_c, 0, 52, 0
4, 255360, Note_on_c, 0, 55, 0
4, 255360, Note_on_c, 0, 59, 0
4, 255360, Note_on_c, 0, 42, 44
4, 255840, Note_on_c, 0, 42, 0
4, 255840, Note_on_c, 0, 54, 44
4, 255840, Note_on_c, 0, 59, 44
4, 255840, Note_on_c, 0, 62, 44
4, 255840, Note_on_c, 0, 66, 44
4, 256320, Note_on_c, 0, 66, 0
4, 256320, Note_on_c, 0, 54, 0
4, 256320, Note_on_c, 0, 59, 0
4, 256320, Note_on_c, 0, 62, 0
4, 256320, Note_on_c, 0, 54, 44
4, 256320, Note_on_c, 0, 59, 44
4, 256320, Note_on_c, 0, 62, 44
4, 256320, Note_on_c, 0, 66, 44
4, 256800, Note_on_c, 0, 66, 0
4, 256800, Note_on_c, 0, 54, 0
4, 256800, Note_on_c, 0, 59, 0
4, 256800, Note_on_c, 0, 62, 0
4, 256800, Note_on_c, 0, 43, 44
4, 257280, Note_on_c, 0, 43, 0
4, 257280, Note_on_c, 0, 55, 44
4, 257280, Note_on_c, 0, 59, 44
4, 257280, Note_on_c, 0, 61, 44
4, 257280, Note_on_c, 0, 64, 44
4, 257760, Note_on_c, 0, 64, 0
4, 257760, Note_on_c, 0, 55, 0
4, 257760, Note_on_c, 0, 59, 0
4, 257760, Note_on_c, 0, 61, 0
4, 257760, Note_on_c, 0, 55, 44
4, 257760, Note_on_c, 0, 59, 44
4, 257760, Note_on_c, 0, 61, 44
4, 257760, Note_on_c, 0, 64, 44
4, 258240, Note_on_c, 0, 64, 0
4, 258240, Note_on_c, 0, 55, 0
4, 258240, Note_on_c, 0, 59, 0
4, 258240, Note_on_c, 0, 61, 0
4, 258240, Note_on_c, 0, 47, 44
4, 258240, Note_on_c, 0, 50, 44
4, 258240, Note_on_c, 0, 54, 44
4, 258240, Note_on_c, 0, 59, 44
4, 258720, Note_on_c, 0, 59, 0
4, 258720, Note_on_c, 0, 47, 0
4, 258720, Note_on_c, 0, 50, 0
4, 258720, Note_on_c, 0, 54, 0
4, 258720, Note_on_c, 0, 52, 44
4, 258720, Note_on_c, 0, 55, 44
4, 258720, Note_on_c, 0, 59, 44
4, 259200, Note_on_c, 0, 59, 0
4, 259200, Note_on_c, 0, 55, 0
4, 259200, Note_on_c, 0, 52, 0
4, 259200, Note_on_c, 0, 47, 44
4, 259200, Note_on_c, 0, 50, 44
4, 259200, Note_on_c, 0, 54, 44
4, 259200, Note_on_c, 0, 59, 44
4, 259680, Note_on_c, 0, 59, 0
4, 259680, Note_on_c, 0, 47, 0
4, 259680, Note_on_c, 0, 50, 0
4, 259680, Note_on_c, 0, 54, 0
4, 259680, Note_on_c, 0, 38, 83
4, 259680, Note_on_c, 0, 50, 83
4, 260640, Note_on_c, 0, 50, 0
4, 260640, Note_on_c, 0, 38, 0
4, 260640, Note_on_c, 0, 39, 83
4, 260640, Note_on_c, 0, 51, 83
4, 261120, Note_on_c, 0, 51, 0
4, 261120, Note_on_c, 0, 39, 0
4, 261120, Note_on_c, 0, 40, 83
4, 261120, Note_on_c, 0, 52, 83
4, 261600, Note_on_c, 0, 52, 0
4, 261600, Note_on_c, 0, 40, 0
4, 261600, Note_on_c, 0, 41, 83
4, 261600, Note_on_c, 0, 53, 83
4, 262080, Note_on_c, 0, 53, 0
4, 262080, Note_on_c, 0, 41, 0
4, 262080, Note_on_c, 0, 42, 83
4, 262080, Note_on_c, 0, 54, 83
4, 262560, Note_on_c, 0, 54, 0
4, 262560, Note_on_c, 0, 42, 0
4, 262560, Note_on_c, 0, 43, 83
4, 262560, Note_on_c, 0, 55, 83
4, 263040, Note_on_c, 0, 55, 0
4, 263040, Note_on_c, 0, 43, 0
4, 263040, Note_on_c, 0, 45, 83
4, 263040, Note_on_c, 0, 57, 83
4, 263520, Note_on_c, 0, 57, 0
4, 263520, Note_on_c, 0, 45, 0
4, 263520, Note_on_c, 0, 46, 83
4, 263520, Note_on_c, 0, 58, 83
4, 264000, Note_on_c, 0, 58, 0
4, 264000, Note_on_c, 0, 46, 0
4, 264000, Note_on_c, 0, 47, 83
4, 264000, Note_on_c, 0, 59, 83
4, 264480, Note_on_c, 0, 59, 0
4, 264480, Note_on_c, 0, 47, 0
4, 264480, Note_on_c, 0, 49, 83
4, 264480, Note_on_c, 0, 61, 83
4, 264960, Note_on_c, 0, 61, 0
4, 264960, Note_on_c, 0, 49, 0
4, 264960, Note_on_c, 0, 50, 83
4, 264960, Note_on_c, 0, 62, 83
4, 265440, Note_on_c, 0, 62, 0
4, 265440, Note_on_c, 0, 50, 0
4, 265440, Note_on_c, 0, 52, 44
4, 265440, Note_on_c, 0, 55, 44
4, 265440, Note_on_c, 0, 59, 44
4, 265440, Note_on_c, 0, 64, 44
4, 265536, Note_on_c, 0, 64, 0
4, 265536, Note_on_c, 0, 52, 0
4, 265536, Note_on_c, 0, 55, 0
4, 265536, Note_on_c, 0, 59, 0
4, 265920, Note_on_c, 0, 52, 44
4, 265920, Note_on_c, 0, 55, 44
4, 265920, Note_on_c, 0, 59, 44
4, 265920, Note_on_c, 0, 64, 44
4, 266016, Note_on_c, 0, 64, 0
4, 266016, Note_on_c, 0, 52, 0
4, 266016, Note_on_c, 0, 55, 0
4, 266016, Note_on_c, 0, 59, 0
4, 266400, Note_on_c, 0, 52, 44
4, 266400, Note_on_c, 0, 55, 44
4, 266400, Note_on_c, 0, 59, 44
4, 266400, Note_on_c, 0, 64, 44
4, 266496, Note_on_c, 0, 64, 0
4, 266496, Note_on_c, 0, 52, 0
4, 266496, Note_on_c, 0, 55, 0
4, 266496, Note_on_c, 0, 59, 0
4, 266880, Note_on_c, 0, 45, 44
4, 266976, Note_on_c, 0, 45, 0
4, 267360, Note_on_c, 0, 57, 44
4, 267360, Note_on_c, 0, 62, 44
4, 267360, Note_on_c, 0, 66, 44
4, 267456, Note_on_c, 0, 66, 0
4, 267456, Note_on_c, 0, 62, 0
4, 267456, Note_on_c, 0, 57, 0
4, 267840, Note_on_c, 0, 57, 44
4, 267840, Note_on_c, 0, 62, 44
4, 267840, Note_on_c, 0, 66, 44
4, 267936, Note_on_c, 0, 66, 0
4, 267936, Note_on_c, 0, 62, 0
4, 267936, Note_on_c, 0, 57, 0
4, 268320, Note_on_c, 0, 45, 44
4, 268416, Note_on_c, 0, 45, 0
4, 268800, Note_on_c, 0, 57, 44
4, 268800, Note_on_c, 0, 61, 44
4, 268800, Note_on_c, 0, 67, 44
4, 268896, Note_on_c, 0, 67, 0
4, 268896, Note_on_c, 0, 61, 0
4, 268896, Note_on_c, 0, 57, 0
4, 269280, Note_on_c, 0, 57, 44
4, 269280, Note_on_c, 0, 61, 44
4, 269280, Note_on_c, 0, 67, 44
4, 269376, Note_on_c, 0, 67, 0
4, 269376, Note_on_c, 0, 61, 0
4, 269376, Note_on_c, 0, 57, 0
4, 269680, Note_on_c, 0, 50, 44
4, 269720, Note_on_c, 0, 57, 44
4, 269760, Note_on_c, 0, 66, 44
4, 269792, Note_on_c, 0, 50, 0
4, 269824, Note_on_c, 0, 57, 0
4, 269856, Note_on_c, 0, 66, 0
4, 271200, Note_on_c, 0, 43, 83
4, 271200, Note_on_c, 0, 55, 83
4, 272160, Note_on_c, 0, 55, 0
4, 272160, Note_on_c, 0, 43, 0
4, 272160, Note_on_c, 0, 38, 83
4, 272160, Note_on_c, 0, 50, 83
4, 272640, Note_on_c, 0, 50, 0
4, 272640, Note_on_c, 0, 38, 0
4, 272640, Note_on_c, 0, 43, 83
4, 272640, Note_on_c, 0, 55, 83
4, 273600, Note_on_c, 0, 55, 0
4, 273600, Note_on_c, 0, 43, 0
4, 273600, Note_on_c, 0, 38, 83
4, 273600, Note_on_c, 0, 50, 83
4, 274080, Note_on_c, 0, 50, 0
4, 274080, Note_on_c, 0, 38, 0
4, 274080, Note_on_c, 0, 43, 83
4, 274080, Note_on_c, 0, 55, 83
4, 275040, Note_on_c, 0, 55, 0
4, 275040, Note_on_c, 0, 43, 0
4, 275040, Note_on_c, 0, 38, 83
4, 275040, Note_on_c, 0, 50, 83
4, 275520, Note_on_c, 0, 50, 0
4, 275520, Note_on_c, 0, 38, 0
4, 275520, Note_on_c, 0, 43, 83
4, 275520, Note_on_c, 0, 55, 83
4, 276480, Note_on_c, 0, 55, 0
4, 276480, Note_on_c, 0, 43, 0
4, 276480, Note_on_c, 0, 38, 83
4, 276480, Note_on_c, 0, 50, 83
4, 276960, Note_on_c, 0, 50, 0
4, 276960, Note_on_c, 0, 38, 0
4, 276960, Note_on_c, 0, 49, 83
4, 276960, Note_on_c, 0, 52, 83
4, 276960, Note_on_c, 0, 57, 83
4, 277440, Note_on_c, 0, 57, 0
4, 277440, Note_on_c, 0, 52, 0
4, 277440, Note_on_c, 0, 49, 0
4, 277440, Note_on_c, 0, 48, 83
4, 277440, Note_on_c, 0, 50, 83
4, 277440, Note_on_c, 0, 54, 83
4, 277440, Note_on_c, 0, 57, 83
4, 277920, Note_on_c, 0, 57, 0
4, 277920, Note_on_c, 0, 48, 0
4, 277920, Note_on_c, 0, 50, 0
4, 277920, Note_on_c, 0, 54, 0
4, 277920, Note_on_c, 0, 47, 83
4, 277920, Note_on_c, 0, 50, 83
4, 277920, Note_on_c, 0, 55, 83
4, 278400, Note_on_c, 0, 55, 0
4, 278400, Note_on_c, 0, 50, 0
4, 278400, Note_on_c, 0, 47, 0
4, 278400, Note_on_c, 0, 49, 83
4, 278400, Note_on_c, 0, 52, 83
4, 278400, Note_on_c, 0, 57, 83
4, 278880, Note_on_c, 0, 57, 0
4, 278880, Note_on_c, 0, 52, 0
4, 278880, Note_on_c, 0, 49, 0
4, 278880, Note_on_c, 0, 48, 83
4, 278880, Note_on_c, 0, 50, 83
4, 278880, Note_on_c, 0, 54, 83
4, 278880, Note_on_c, 0, 57, 83
4, 279360, Note_on_c, 0, 57, 0
4, 279360, Note_on_c, 0, 48, 0
4, 279360, Note_on_c, 0, 50, 0
4, 279360, Note_on_c, 0, 54, 0
4, 279360, Note_on_c, 0, 47, 83
4, 279360, Note_on_c, 0, 50, 83
4, 279360, Note_on_c, 0, 55, 83
4, 279840, Note_on_c, 0, 55, 0
4, 279840, Note_on_c, 0, 50, 0
4, 279840, Note_on_c, 0, 47, 0
4, 279840, Note_on_c, 0, 57, 83
4, 279840, Note_on_c, 0, 60, 83
4, 279840, Note_on_c, 0, 62, 83
4, 280200, Note_on_c, 0, 62, 0
4, 280200, Note_on_c, 0, 60, 0
4, 280200, Note_on_c, 0, 57, 0
4, 280200, Note_on_c, 0, 57, 83
4, 280200, Note_on_c, 0, 60, 83
4, 280200, Note_on_c, 0, 62, 83
4, 280320, Note_on_c, 0, 62, 0
4, 280320, Note_on_c, 0, 60, 0
4, 280320, Note_on_c, 0, 57, 0
4, 280320, Note_on_c, 0, 55, 83
4, 280320, Note_on_c, 0, 59, 83
4, 280320, Note_on_c, 0, 62, 83
4, 281280, Note_on_c, 0, 62, 0
4, 281280, Note_on_c, 0, 59, 0
4, 281280, Note_on_c, 0, 55, 0
4, 281280, Note_on_c, 0, 54, 83
4, 281280, Note_on_c, 0, 59, 83
4, 281280, Note_on_c, 0, 62, 83
4, 281760, Note_on_c, 0, 62, 0
4, 281760, Note_on_c, 0, 59, 0
4, 281760, Note_on_c, 0, 54, 0
4, 281760, Note_on_c, 0, 54, 83
4, 281760, Note_on_c, 0, 58, 83
4, 281760, Note_on_c, 0, 61, 83
4, 282240, Note_on_c, 0, 61, 0
4, 282240, Note_on_c, 0, 58, 0
4, 282240, Note_on_c, 0, 54, 0
4, 282240, Note_on_c, 0, 47, 83
4, 282240, Note_on_c, 0, 50, 83
4, 282240, Note_on_c, 0, 54, 83
4, 282240, Note_on_c, 0, 59, 83
4, 282720, Note_on_c, 0, 59, 0
4, 282720, Note_on_c, 0, 47, 0
4, 282720, Note_on_c, 0, 50, 0
4, 282720, Note_on_c, 0, 54, 0
4, 282720, Note_on_c, 0, 43, 83
4, 282720, Note_on_c, 0, 55, 83
4, 283680, Note_on_c, 0, 55, 0
4, 283680, Note_on_c, 0, 43, 0
4, 283680, Note_on_c, 0, 38, 83
4, 283680, Note_on_c, 0, 50, 83
4, 284160, Note_on_c, 0, 50, 0
4, 284160, Note_on_c, 0, 38, 0
4, 284160, Note_on_c, 0, 43, 83
4, 284160, Note_on_c, 0, 55, 83
4, 285120, Note_on_c, 0, 55, 0
4, 285120, Note_on_c, 0, 43, 0
4, 285120, Note_on_c, 0, 38, 83
4, 285120, Note_on_c, 0, 50, 83
4, 285600, Note_on_c, 0, 50, 0
4, 285600, Note_on_c, 0, 38, 0
4, 285600, Note_on_c, 0, 43, 83
4, 285600, Note_on_c, 0, 55, 83
4, 286560, Note_on_c, 0, 55, 0
4, 286560, Note_on_c, 0, 43, 0
4, 286560, Note_on_c, 0, 38, 83
4, 286560, Note_on_c, 0, 50, 83
4, 287040, Note_on_c, 0, 50, 0
4, 287040, Note_on_c, 0, 38, 0
4, 287040, Note_on_c, 0, 43, 83
4, 287040, Note_on_c, 0, 55, 83
4, 288000, Note_on_c, 0, 55, 0
4, 288000, Note_on_c, 0, 43, 0
4, 288000, Note_on_c, 0, 38, 83
4, 288000, Note_on_c, 0, 50, 83
4, 288480, Note_on_c, 0, 50, 0
4, 288480, Note_on_c, 0, 38, 0
4, 288480, Note_on_c, 0, 49, 83
4, 288480, Note_on_c, 0, 52, 83
4, 288480, Note_on_c, 0, 57, 83
4, 288960, Note_on_c, 0, 57, 0
4, 288960, Note_on_c, 0, 52, 0
4, 288960, Note_on_c, 0, 49, 0
4, 288960, Note_on_c, 0, 48, 83
4, 288960, Note_on_c, 0, 50, 83
4, 288960, Note_on_c, 0, 54, 83
4, 288960, Note_on_c, 0, 57, 83
4, 289440, Note_on_c, 0, 57, 0
4, 289440, Note_on_c, 0, 48, 0
4, 289440, Note_on_c, 0, 50, 0
4, 289440, Note_on_c, 0, 54, 0
4, 289440, Note_on_c, 0, 47, 83
4, 289440, Note_on_c, 0, 50, 83
4, 289440, Note_on_c, 0, 55, 83
4, 289920, Note_on_c, 0, 55, 0
4, 289920, Note_on_c, 0, 50, 0
4, 289920, Note_on_c, 0, 47, 0
4, 289920, Note_on_c, 0, 49, 83
4, 289920, Note_on_c, 0, 52, 83
4, 289920, Note_on_c, 0, 57, 83
4, 290400, Note_on_c, 0, 57, 0
4, 290400, Note_on_c, 0, 52, 0
4, 290400, Note_on_c, 0, 49, 0
4, 290400, Note_on_c, 0, 48, 83
4, 290400, Note_on_c, 0, 50, 83
4, 290400, Note_on_c, 0, 54, 83
4, 290400, Note_on_c, 0, 57, 83
4, 290880, Note_on_c, 0, 57, 0
4, 290880, Note_on_c, 0, 48, 0
4, 290880, Note_on_c, 0, 50, 0
4, 290880, Note_on_c, 0, 54, 0
4, 290880, Note_on_c, 0, 47, 83
4, 290880, Note_on_c, 0, 50, 83
4, 290880, Note_on_c, 0, 55, 83
4, 291360, Note_on_c, 0, 55, 0
4, 291360, Note_on_c, 0, 50, 0
4, 291360, Note_on_c, 0, 47, 0
4, 291360, Note_on_c, 0, 37, 83
4, 291360, Note_on_c, 0, 49, 83
4, 291840, Note_on_c, 0, 49, 0
4, 291840, Note_on_c, 0, 37, 0
4, 291840, Note_on_c, 0, 49, 83
4, 291840, Note_on_c, 0, 52, 83
4, 291840, Note_on_c, 0, 55, 83
4, 291840, Note_on_c, 0, 58, 83
4, 292320, Note_on_c, 0, 58, 0
4, 292320, Note_on_c, 0, 49, 0
4, 292320, Note_on_c, 0, 52, 0
4, 292320, Note_on_c, 0, 55, 0
4, 292320, Note_on_c, 0, 49, 83
4, 292320, Note_on_c, 0, 52, 83
4, 292320, Note_on_c, 0, 55, 83
4, 292320, Note_on_c, 0, 58, 83
4, 292800, Note_on_c, 0, 58, 0
4, 292800, Note_on_c, 0, 49, 0
4, 292800, Note_on_c, 0, 52, 0
4, 292800, Note_on_c, 0, 55, 0
4, 292800, Note_on_c, 0, 50, 83
4, 292800, Note_on_c, 0, 55, 83
4, 292800, Note_on_c, 0, 59, 83
4, 293280, Note_on_c, 0, 59, 0
4, 293280, Note_on_c, 0, 55, 0
4, 293280, Note_on_c, 0, 50, 0
4, 293280, Note_on_c, 0, 50, 83
4, 293280, Note_on_c, 0, 55, 83
4, 293280, Note_on_c, 0, 59, 83
4, 293280, Note_on_c, 0, 62, 83
4, 294240, Note_on_c, 0, 62, 0
4, 294240, Note_on_c, 0, 50, 0
4, 294240, Note_on_c, 0, 55, 0
4, 294240, Note_on_c, 0, 59, 0
4, 294240, Note_on_c, 0, 38, 83
4, 294240, Note_on_c, 0, 50, 83
4, 294720, Note_on_c, 0, 50, 0
4, 294720, Note_on_c, 0, 38, 0
4, 294720, Note_on_c, 0, 50, 83
4, 294720, Note_on_c, 0, 52, 83
4, 294720, Note_on_c, 0, 56, 83
4, 294720, Note_on_c, 0, 59, 83
4, 295680, Note_on_c, 0, 59, 0
4, 295680, Note_on_c, 0, 50, 0
4, 295680, Note_on_c, 0, 52, 0
4, 295680, Note_on_c, 0, 56, 0
4, 295680, Note_on_c, 0, 38, 83
4, 295680, Note_on_c, 0, 50, 83
4, 296160, Note_on_c, 0, 50, 0
4, 296160, Note_on_c, 0, 38, 0
4, 296160, Note_on_c, 0, 50, 83
4, 296160, Note_on_c, 0, 54, 83
4, 296160, Note_on_c, 0, 57, 83
4, 296160, Note_on_c, 0, 60, 83
4, 297120, Note_on_c, 0, 60, 0
4, 297120, Note_on_c, 0, 50, 0
4, 297120, Note_on_c, 0, 54, 0
4, 297120, Note_on_c, 0, 57, 0
4, 297120, Note_on_c, 0, 50, 83
4, 297120, Note_on_c, 0, 54, 83
4, 297120, Note_on_c, 0, 57, 83
4, 297120, Note_on_c, 0, 60, 83
4, 297600, Note_on_c, 0, 60, 0
4, 297600, Note_on_c, 0, 50, 0
4, 297600, Note_on_c, 0, 54, 0
4, 297600, Note_on_c, 0, 57, 0
4, 297600, Note_on_c, 0, 50, 83
4, 297600, Note_on_c, 0, 54, 83
4, 297600, Note_on_c, 0, 57, 83
4, 297600, Note_on_c, 0, 60, 83
4, 298080, Note_on_c, 0, 60, 0
4, 298080, Note_on_c, 0, 50, 0
4, 298080, Note_on_c, 0, 54, 0
4, 298080, Note_on_c, 0, 57, 0
4, 298080, Note_on_c, 0, 50, 83
4, 298080, Note_on_c, 0, 54, 83
4, 298080, Note_on_c, 0, 57, 83
4, 298080, Note_on_c, 0, 60, 83
4, 298560, Note_on_c, 0, 60, 0
4, 298560, Note_on_c, 0, 50, 0
4, 298560, Note_on_c, 0, 54, 0
4, 298560, Note_on_c, 0, 57, 0
4, 298560, Note_on_c, 0, 31, 83
4, 298560, Note_on_c, 0, 43, 83
4, 299040, Note_on_c, 0, 43, 0
4, 299040, Note_on_c, 0, 31, 0
4, 299040, Note_on_c, 0, 35, 83
4, 299040, Note_on_c, 0, 47, 83
4, 299520, Note_on_c, 0, 47, 0
4, 299520, Note_on_c, 0, 35, 0
4, 299520, Note_on_c, 0, 36, 83
4, 299520, Note_on_c, 0, 48, 83
4, 300000, Note_on_c, 0, 48, 0
4, 300000, Note_on_c, 0, 36, 0
4, 300000, Note_on_c, 0, 38, 83
4, 300000, Note_on_c, 0, 50, 83
4, 300480, Note_on_c, 0, 50, 0
4, 300480, Note_on_c, 0, 38, 0
4, 300480, Note_on_c, 0, 39, 83
4, 300480, Note_on_c, 0, 51, 83
4, 300960, Note_on_c, 0, 51, 0
4, 300960, Note_on_c, 0, 39, 0
4, 300960, Note_on_c, 0, 40, 83
4, 300960, Note_on_c, 0, 52, 83
4, 301440, Note_on_c, 0, 52, 0
4, 301440, Note_on_c, 0, 40, 0
4, 301440, Note_on_c, 0, 42, 83
4, 301440, Note_on_c, 0, 54, 83
4, 301920, Note_on_c, 0, 54, 0
4, 301920, Note_on_c, 0, 42, 0
4, 301920, Note_on_c, 0, 44, 83
4, 301920, Note_on_c, 0, 56, 83
4, 302400, Note_on_c, 0, 56, 0
4, 302400, Note_on_c, 0, 44, 0
4, 302400, Note_on_c, 0, 45, 83
4, 302400, Note_on_c, 0, 57, 83
4, 302880, Note_on_c, 0, 57, 0
4, 302880, Note_on_c, 0, 45, 0
4, 302880, Note_on_c, 0, 47, 83
4, 302880, Note_on_c, 0, 59, 83
4, 303360, Note_on_c, 0, 59, 0
4, 303360, Note_on_c, 0, 47, 0
4, 303360, Note_on_c, 0, 48, 83
4, 303360, Note_on_c, 0, 60, 83
4, 303840, Note_on_c, 0, 60, 0
4, 303840, Note_on_c, 0, 48, 0
4, 303840, Note_on_c, 0, 49, 83
4, 303840, Note_on_c, 0, 61, 83
4, 304320, Note_on_c, 0, 61, 0
4, 304320, Note_on_c, 0, 49, 0
4, 304320, Note_on_c, 0, 50, 83
4, 304320, Note_on_c, 0, 55, 83
4, 304320, Note_on_c, 0, 59, 83
4, 304320, Note_on_c, 0, 62, 83
4, 304800, Note_on_c, 0, 62, 0
4, 304800, Note_on_c, 0, 50, 0
4, 304800, Note_on_c, 0, 55, 0
4, 304800, Note_on_c, 0, 59, 0
4, 304800, Note_on_c, 0, 38, 83
4, 304800, Note_on_c, 0, 50, 83
4, 305760, Note_on_c, 0, 50, 0
4, 305760, Note_on_c, 0, 38, 0
4, 305760, Note_on_c, 0, 50, 83
4, 305760, Note_on_c, 0, 52, 83
4, 305760, Note_on_c, 0, 56, 83
4, 305760, Note_on_c, 0, 59, 83
4, 306240, Note_on_c, 0, 59, 0
4, 306240, Note_on_c, 0, 50, 0
4, 306240, Note_on_c, 0, 52, 0
4, 306240, Note_on_c, 0, 56, 0
4, 306240, Note_on_c, 0, 50, 83
4, 306240, Note_on_c, 0, 52, 83
4, 306240, Note_on_c, 0, 56, 83
4, 306240, Note_on_c, 0, 59, 83
4, 307200, Note_on_c, 0, 59, 0
4, 307200, Note_on_c, 0, 50, 0
4, 307200, Note_on_c, 0, 52, 0
4, 307200, Note_on_c, 0, 56, 0
4, 307200, Note_on_c, 0, 50, 83
4, 307200, Note_on_c, 0, 54, 83
4, 307200, Note_on_c, 0, 57, 83
4, 307200, Note_on_c, 0, 60, 83
4, 308160, Note_on_c, 0, 60, 0
4, 308160, Note_on_c, 0, 50, 0
4, 308160, Note_on_c, 0, 54, 0
4, 308160, Note_on_c, 0, 57, 0
4, 308160, Note_on_c, 0, 50, 83
4, 308160, Note_on_c, 0, 57, 83
4, 308160, Note_on_c, 0, 61, 83
4, 309120, Note_on_c, 0, 61, 0
4, 309120, Note_on_c, 0, 57, 0
4, 309120, Note_on_c, 0, 50, 0
4, 309120, Note_on_c, 0, 50, 83
4, 309120, Note_on_c, 0, 57, 83
4, 309120, Note_on_c, 0, 60, 83
4, 310080, Note_on_c, 0, 60, 0
4, 310080, Note_on_c, 0, 57, 0
4, 310080, Note_on_c, 0, 50, 0
4, 310080, Note_on_c, 0, 43, 83
4, 310080, Note_on_c, 0, 50, 83
4, 310560, Note_on_c, 0, 50, 0
4, 310560, Note_on_c, 0, 43, 0
4, 310560, Note_on_c, 0, 55, 83
4, 310560, Note_on_c, 0, 59, 83
4, 310560, Note_on_c, 0, 62, 83
4, 311040, Note_on_c, 0, 62, 0
4, 311040, Note_on_c, 0, 59, 0
4, 311040, Note_on_c, 0, 55, 0
4, 311040, Note_on_c, 0, 43, 83
4, 311040, Note_on_c, 0, 50, 83
4, 311520, Note_on_c, 0, 50, 0
4, 311520, Note_on_c, 0, 43, 0
4, 311520, Note_on_c, 0, 55, 83
4, 311520, Note_on_c, 0, 59, 83
4, 311520, Note_on_c, 0, 62, 83
4, 312000, Note_on_c, 0, 62, 0
4, 312000, Note_on_c, 0, 59, 0
4, 312000, Note_on_c, 0, 55, 0
4, 312000, Note_on_c, 0, 43, 83
4, 312000, Note_on_c, 0, 50, 83
4, 312480, Note_on_c, 0, 50, 0
4, 312480, Note_on_c, 0, 43, 0
4, 312480, Note_on_c, 0, 55, 83
4, 312480, Note_on_c, 0, 59, 83
4, 312480, Note_on_c, 0, 62, 83
4, 312960, Note_on_c, 0, 62, 0
4, 312960, Note_on_c, 0, 59, 0
4, 312960, Note_on_c, 0, 55, 0
4, 312960, Note_on_c, 0, 43, 83
4, 312960, Note_on_c, 0, 50, 83
4, 313440, Note_on_c, 0, 50, 0
4, 313440, Note_on_c, 0, 43, 0
4, 313440, Note_on_c, 0, 55, 83
4, 313440, Note_on_c, 0, 59, 83
4, 313440, Note_on_c, 0, 62, 83
4, 313920, Note_on_c, 0, 62, 0
4, 313920, Note_on_c, 0, 59, 0
4, 313920, Note_on_c, 0, 55, 0
4, 313920, Note_on_c, 0, 43, 83
4, 313920, Note_on_c, 0, 50, 83
4, 314400, Note_on_c, 0, 50, 0
4, 314400, Note_on_c, 0, 43, 0
4, 314400, Note_on_c, 0, 55, 83
4, 314400, Note_on_c, 0, 59, 83
4, 314400, Note_on_c, 0, 62, 83
4, 314880, Note_on_c, 0, 62, 0
4, 314880, Note_on_c, 0, 59, 0
4, 314880, Note_on_c, 0, 55, 0
4, 314880, Note_on_c, 0, 43, 83
4, 314880, Note_on_c, 0, 50, 83
4, 314880, Note_on_c, 0, 57, 83
4, 315360, Note_on_c, 0, 57, 0
4, 315360, Note_on_c, 0, 50, 0
4, 315360, Note_on_c, 0, 43, 0
4, 315360, Note_on_c, 0, 50, 83
4, 315360, Note_on_c, 0, 54, 83
4, 315360, Note_on_c, 0, 57, 83
4, 315360, Note_on_c, 0, 60, 83
4, 315840, Note_on_c, 0, 60, 0
4, 315840, Note_on_c, 0, 50, 0
4, 315840, Note_on_c, 0, 54, 0
4, 315840, Note_on_c, 0, 57, 0
4, 315840, Note_on_c, 0, 43, 83
4, 315840, Note_on_c, 0, 50, 83
4, 316320, Note_on_c, 0, 50, 0
4, 316320, Note_on_c, 0, 43, 0
4, 316320, Note_on_c, 0, 55, 83
4, 316320, Note_on_c, 0, 59, 83
4, 316320, Note_on_c, 0, 62, 83
4, 316800, Note_on_c, 0, 62, 0
4, 316800, Note_on_c, 0, 59, 0
4, 316800, Note_on_c, 0, 55, 0
4, 316800, Note_on_c, 0, 43, 83
4, 316800, Note_on_c, 0, 50, 83
4, 317280, Note_on_c, 0, 50, 0
4, 317280, Note_on_c, 0, 43, 0
4, 317280, Note_on_c, 0, 55, 83
4, 317280, Note_on_c, 0, 59, 83
4, 317280, Note_on_c, 0, 62, 83
4, 317760, Note_on_c, 0, 62, 0
4, 317760, Note_on_c, 0, 59, 0
4, 317760, Note_on_c, 0, 55, 0
4, 317760, Note_on_c, 0, 43, 83
4, 317760, Note_on_c, 0, 50, 83
4, 318240, Note_on_c, 0, 50, 0
4, 318240, Note_on_c, 0, 43, 0
4, 318240, Note_on_c, 0, 55, 83
4, 318240, Note_on_c, 0, 59, 83
4, 318240, Note_on_c, 0, 62, 83
4, 318720, Note_on_c, 0, 62, 0
4, 318720, Note_on_c, 0, 59, 0
4, 318720, Note_on_c, 0, 55, 0
4, 318720, Note_on_c, 0, 43, 83
4, 318720, Note_on_c, 0, 50, 83
4, 319200, Note_on_c, 0, 50, 0
4, 319200, Note_on_c, 0, 43, 0
4, 319200, Note_on_c, 0, 55, 83
4, 319200, Note_on_c, 0, 59, 83
4, 319200, Note_on_c, 0, 62, 83
4, 319680, Note_on_c, 0, 62, 0
4, 319680, Note_on_c, 0, 59, 0
4, 319680, Note_on_c, 0, 55, 0
4, 319680, Note_on_c, 0, 43, 83
4, 319680, Note_on_c, 0, 50, 83
4, 320160, Note_on_c, 0, 50, 0
4, 320160, Note_on_c, 0, 43, 0
4, 320160, Note_on_c, 0, 55, 83
4, 320160, Note_on_c, 0, 59, 83
4, 320160, Note_on_c, 0, 62, 83
4, 320640, Note_on_c, 0, 62, 0
4, 320640, Note_on_c, 0, 59, 0
4, 320640, Note_on_c, 0, 55, 0
4, 320640, Note_on_c, 0, 43, 83
4, 320640, Note_on_c, 0, 50, 83
4, 320640, Note_on_c, 0, 57, 83
4, 321120, Note_on_c, 0, 57, 0
4, 321120, Note_on_c, 0, 50, 0
4, 321120, Note_on_c, 0, 43, 0
4, 321120, Control_c, 0, 64, 127
4, 321120, Note_on_c, 0, 50, 83
4, 321120, Note_on_c, 0, 54, 83
4, 321120, Note_on_c, 0, 57, 83
4, 321120, Note_on_c, 0, 60, 83
4, 321520, Note_on_c, 0, 43, 83
4, 321560, Note_on_c, 0, 50, 83
4, 321600, Note_on_c, 0, 60, 0
4, 321600, Note_on_c, 0, 57, 0
4, 321600, Note_on_c, 0, 50, 0
4, 321600, Note_on_c, 0, 54, 0
4, 321600, Note_on_c, 0, 59, 83
4, 322480, Note_on_c, 0, 43, 83
4, 322520, Note_on_c, 0, 50, 83
4, 322560, Note_on_c, 0, 59, 0
4, 322560, Note_on_c, 0, 43, 0
4, 322560, Note_on_c, 0, 50, 0
4, 322560, Note_on_c, 0, 59, 83
4, 323440, Note_on_c, 0, 43, 83
4, 323480, Note_on_c, 0, 50, 83
4, 323520, Note_on_c, 0, 59, 0
4, 323520, Note_on_c, 0, 50, 0
4, 323520, Note_on_c, 0, 43, 0
4, 323520, Note_on_c, 0, 59, 83
4, 324400, Note_on_c, 0, 43, 83
4, 324440, Note_on_c, 0, 50, 83
4, 324480, Note_on_c, 0, 59, 0
4, 324480, Note_on_c, 0, 50, 0
4, 324480, Note_on_c, 0, 43, 0
4, 324480, Note_on_c, 0, 59, 83
4, 325360, Note_on_c, 0, 43, 83
4, 325400, Note_on_c, 0, 50, 83
4, 325440, Note_on_c, 0, 59, 0
4, 325440, Note_on_c, 0, 50, 0
4, 325440, Note_on_c, 0, 43, 0
4, 325440, Note_on_c, 0, 59, 83
4, 326320, Note_on_c, 0, 43, 83
4, 326360, Note_on_c, 0, 50, 83
4, 326400, Note_on_c, 0, 59, 0
4, 326400, Note_on_c, 0, 50, 0
4, 326400, Note_on_c, 0, 43, 0
4, 326400, Note_on_c, 0, 59, 83
4, 327360, Note_on_c, 0, 59, 0
4, 327360, Note_on_c, 0, 43, 0
4, 327360, Note_on_c, 0, 50, 0
4, 327360, Control_c, 0, 64, 0
4, 327360, Note_on_c, 0, 43, 83
4, 327360, Note_on_c, 0, 47, 83
4, 327360, Note_on_c, 0, 50, 83
4, 327360, Note_on_c, 0, 55, 83
4, 327840, Note_on_c, 0, 55, 0
4, 327840, Note_on_c, 0, 43, 0
4, 327840, Note_on_c, 0, 47, 0
4, 327840, Note_on_c, 0, 50, 0
4, 327840, Note_on_c, 0, 43, 83
4, 327840, Note_on_c, 0, 47, 83
4, 327840, Note_on_c, 0, 50, 83
4, 327840, Note_on_c, 0, 55, 83
4, 328320, Note_on_c, 0, 55, 0
4, 328320, Note_on_c, 0, 43, 0
4, 328320, Note_on_c, 0, 47, 0
4, 328320, Note_on_c, 0, 50, 0
4, 328320, Note_on_c, 0, 43, 83
4, 328320, Note_on_c, 0, 47, 83
4, 328320, Note_on_c, 0, 50, 83
4, 328320, Note_on_c, 0, 55, 83
4, 328800, Note_on_c, 0, 55, 0
4, 328800, Note_on_c, 0, 43, 0
4, 328800, Note_on_c, 0, 47, 0
4, 328800, Note_on_c, 0, 50, 0
4, 328800, Note_on_c, 0, 43, 83
4, 328800, Note_on_c, 0, 47, 83
4, 328800, Note_on_c, 0, 50, 83
4, 328800, Note_on_c, 0, 55, 83
4, 329280, Note_on_c, 0, 55, 0
4, 329280, Note_on_c, 0, 43, 0
4, 329280, Note_on_c, 0, 47, 0
4, 329280, Note_on_c, 0, 50, 0
4, 329280, Note_on_c, 0, 43, 83
4, 329280, Note_on_c, 0, 47, 83
4, 329280, Note_on_c, 0, 50, 83
4, 329280, Note_on_c, 0, 55, 83
4, 329760, Note_on_c, 0, 55, 0
4, 329760, Note_on_c, 0, 43, 0
4, 329760, Note_on_c, 0, 47, 0
4, 329760, Note_on_c, 0, 50, 0
4, 329760, Note_on_c, 0, 43, 83
4, 329760, Note_on_c, 0, 47, 83
4, 329760, Note_on_c, 0, 50, 83
4, 329760, Note_on_c, 0, 55, 83
4, 330240, Note_on_c, 0, 55, 0
4, 330240, Note_on_c, 0, 43, 0
4, 330240, Note_on_c, 0, 47, 0
4, 330240, Note_on_c, 0, 50, 0
4, 330240, Note_on_c, 0, 43, 83
4, 330240, Note_on_c, 0, 47, 83
4, 330240, Note_on_c, 0, 50, 83
4, 330240, Note_on_c, 0, 55, 83
4, 330720, Note_on_c, 0, 55, 0
4, 330720, Note_on_c, 0, 43, 0
4, 330720, Note_on_c, 0, 47, 0
4, 330720, Note_on_c, 0, 50, 0
4, 330720, Note_on_c, 0, 43, 83
4, 330720, Note_on_c, 0, 47, 83
4, 330720, Note_on_c, 0, 50, 83
4, 330720, Note_on_c, 0, 55, 83
4, 331200, Note_on_c, 0, 55, 0
4, 331200, Note_on_c, 0, 43, 0
4, 331200, Note_on_c, 0, 47, 0
4, 331200, Note_on_c, 0, 50, 0
4, 331200, Note_on_c, 0, 43, 83
4, 331200, Note_on_c, 0, 47, 83
4, 331200, Note_on_c, 0, 50, 83
4, 331200, Note_on_c, 0, 55, 83
4, 331680, Note_on_c, 0, 55, 0
4, 331680, Note_on_c, 0, 43, 0
4, 331680, Note_on_c, 0, 47, 0
4, 331680, Note_on_c, 0, 50, 0
4, 331680, Note_on_c, 0, 43, 109
4, 331680, Note_on_c, 0, 47, 109
4, 331680, Note_on_c, 0, 50, 109
4, 331680, Note_on_c, 0, 55, 109
4, 332160, Note_on_c, 0, 55, 0
4, 332160, Note_on_c, 0, 43, 0
4, 332160, Note_on_c, 0, 47, 0
4, 332160, Note_on_c, 0, 50, 0
4, 332160, End_track
5, 0, Start_track
5, 0, Title_t, "Grand Piano"
5, 0, Program_c, 0, 0
5, 0, Control_c, 0, 7, 115
5, 0, Control_c, 0, 10, 47
5, 132960, Note_on_c, 0, 48, 54
5, 133440, Note_on_c, 0, 48, 0
5, 133920, Note_on_c, 0, 55, 54
5, 133920, Note_on_c, 0, 60, 54
5, 134400, Note_on_c, 0, 60, 0
5, 134400, Note_on_c, 0, 55, 0
5, 134400, Note_on_c, 0, 60, 54
5, 134880, Note_on_c, 0, 60, 0
5, 135360, Note_on_c, 0, 55, 54
5, 135360, Note_on_c, 0, 65, 54
5, 135840, Note_on_c, 0, 65, 0
5, 135840, Note_on_c, 0, 55, 0
5, 135840, Note_on_c, 0, 48, 54
5, 136320, Note_on_c, 0, 48, 0
5, 136800, Note_on_c, 0, 55, 54
5, 136800, Note_on_c, 0, 59, 54
5, 136800, Note_on_c, 0, 65, 54
5, 137280, Note_on_c, 0, 65, 0
5, 137280, Note_on_c, 0, 59, 0
5, 137280, Note_on_c, 0, 55, 0
5, 137280, Note_on_c, 0, 48, 54
5, 137760, Note_on_c, 0, 48, 0
5, 138240, Note_on_c, 0, 55, 54
5, 138240, Note_on_c, 0, 60, 54
5, 138720, Note_on_c, 0, 60, 0
5, 138720, Note_on_c, 0, 55, 0
5, 138720, Note_on_c, 0, 48, 54
5, 139200, Note_on_c, 0, 48, 0
5, 139680, Note_on_c, 0, 55, 54
5, 139680, Note_on_c, 0, 60, 54
5, 140160, Note_on_c, 0, 60, 0
5, 140160, Note_on_c, 0, 55, 0
5, 140160, Note_on_c, 0, 60, 54
5, 140640, Note_on_c, 0, 60, 0
5, 141120, Note_on_c, 0, 56, 54
5, 141120, Note_on_c, 0, 59, 54
5, 141600, Note_on_c, 0, 59, 0
5, 141600, Note_on_c, 0, 56, 0
5, 141600, Note_on_c, 0, 48, 54
5, 142080, Note_on_c, 0, 48, 0
5, 142560, Note_on_c, 0, 56, 54
5, 142560, Note_on_c, 0, 59, 54
5, 143040, Note_on_c, 0, 59, 0
5, 143040, Note_on_c, 0, 56, 0
5, 143040, Note_on_c, 0, 48, 54
5, 143520, Note_on_c, 0, 48, 0
5, 144000, Note_on_c, 0, 55, 54
5, 144480, Note_on_c, 0, 55, 0
5, 144480, Note_on_c, 0, 57, 54
5, 144960, Note_on_c, 0, 57, 0
5, 144960, Note_on_c, 0, 45, 54
5, 144960, Note_on_c, 0, 52, 54
5, 145440, Note_on_c, 0, 52, 0
5, 145440, Note_on_c, 0, 45, 0
5, 145440, Note_on_c, 0, 45, 54
5, 145440, Note_on_c, 0, 52, 54
5, 145920, Note_on_c, 0, 52, 0
5, 145920, Note_on_c, 0, 45, 0
5, 145920, Note_on_c, 0, 57, 54
5, 146400, Note_on_c, 0, 57, 0
5, 146400, Note_on_c, 0, 57, 54
5, 146880, Note_on_c, 0, 57, 0
5, 146880, Note_on_c, 0, 57, 54
5, 147360, Note_on_c, 0, 57, 0
5, 147360, Note_on_c, 0, 45, 54
5, 147360, Note_on_c, 0, 52, 54
5, 147840, Note_on_c, 0, 52, 0
5, 147840, Note_on_c, 0, 45, 0
5, 147840, Note_on_c, 0, 57, 54
5, 148320, Note_on_c, 0, 57, 0
5, 148320, Note_on_c, 0, 57, 54
5, 148800, Note_on_c, 0, 57, 0
5, 148800, Note_on_c, 0, 45, 54
5, 148800, Note_on_c, 0, 52, 54
5, 149280, Note_on_c, 0, 52, 0
5, 149280, Note_on_c, 0, 45, 0
5, 149280, Note_on_c, 0, 45, 54
5, 149280, Note_on_c, 0, 52, 54
5, 149760, Note_on_c, 0, 52, 0
5, 149760, Note_on_c, 0, 45, 0
5, 149760, Note_on_c, 0, 45, 54
5, 149760, Note_on_c, 0, 52, 54
5, 150240, Note_on_c, 0, 52, 0
5, 150240, Note_on_c, 0, 45, 0
5, 150240, Note_on_c, 0, 57, 54
5, 150720, Note_on_c, 0, 57, 0
5, 150720, Note_on_c, 0, 45, 54
5, 150720, Note_on_c, 0, 52, 54
5, 151200, Note_on_c, 0, 52, 0
5, 151200, Note_on_c, 0, 45, 0
5, 151200, Note_on_c, 0, 45, 54
5, 151200, Note_on_c, 0, 52, 54
5, 151680, Note_on_c, 0, 52, 0
5, 151680, Note_on_c, 0, 45, 0
5, 151680, Note_on_c, 0, 57, 54
5, 152160, Note_on_c, 0, 57, 0
5, 152160, Note_on_c, 0, 57, 54
5, 152640, Note_on_c, 0, 57, 0
5, 152640, Note_on_c, 0, 57, 54
5, 153060, Note_on_c, 0, 45, 54
5, 153120, Note_on_c, 0, 57, 0
5, 153120, Note_on_c, 0, 52, 54
5, 153600, Note_on_c, 0, 52, 0
5, 153600, Note_on_c, 0, 45, 0
5, 153600, Note_on_c, 0, 57, 54
5, 154080, Note_on_c, 0, 57, 0
5, 154080, Note_on_c, 0, 57, 54
5, 154560, Note_on_c, 0, 57, 0
5, 154560, Note_on_c, 0, 45, 54
5, 154560, Note_on_c, 0, 52, 54
5, 155040, Note_on_c, 0, 52, 0
5, 155040, Note_on_c, 0, 45, 0
5, 155040, Note_on_c, 0, 45, 54
5, 155040, Note_on_c, 0, 52, 54
5, 155520, Note_on_c, 0, 52, 0
5, 155520, Note_on_c, 0, 45, 0
5, 155520, Note_on_c, 0, 45, 54
5, 155520, Note_on_c, 0, 52, 54
5, 156000, Note_on_c, 0, 52, 0
5, 156000, Note_on_c, 0, 45, 0
5, 167520, Note_on_c, 0, 48, 54
5, 168000, Note_on_c, 0, 48, 0
5, 168480, Note_on_c, 0, 55, 54
5, 168480, Note_on_c, 0, 60, 54
5, 168960, Note_on_c, 0, 60, 0
5, 168960, Note_on_c, 0, 55, 0
5, 168960, Note_on_c, 0, 60, 54
5, 169440, Note_on_c, 0, 60, 0
5, 169920, Note_on_c, 0, 55, 54
5, 169920, Note_on_c, 0, 65, 54
5, 170400, Note_on_c, 0, 65, 0
5, 170400, Note_on_c, 0, 55, 0
5, 170400, Note_on_c, 0, 48, 54
5, 170880, Note_on_c, 0, 48, 0
5, 171360, Note_on_c, 0, 55, 54
5, 171360, Note_on_c, 0, 59, 54
5, 171360, Note_on_c, 0, 65, 54
5, 171840, Note_on_c, 0, 65, 0
5, 171840, Note_on_c, 0, 59, 0
5, 171840, Note_on_c, 0, 55, 0
5, 171840, Note_on_c, 0, 48, 54
5, 172320, Note_on_c, 0, 48, 0
5, 172800, Note_on_c, 0, 55, 54
5, 172800, Note_on_c, 0, 60, 54
5, 173280, Note_on_c, 0, 60, 0
5, 173280, Note_on_c, 0, 55, 0
5, 173280, Note_on_c, 0, 48, 54
5, 173760, Note_on_c, 0, 48, 0
5, 174240, Note_on_c, 0, 55, 54
5, 174240, Note_on_c, 0, 60, 54
5, 174720, Note_on_c, 0, 60, 0
5, 174720, Note_on_c, 0, 55, 0
5, 174720, Note_on_c, 0, 60, 54
5, 175200, Note_on_c, 0, 60, 0
5, 175680, Note_on_c, 0, 56, 54
5, 175680, Note_on_c, 0, 59, 54
5, 176160, Note_on_c, 0, 59, 0
5, 176160, Note_on_c, 0, 56, 0
5, 176160, Note_on_c, 0, 48, 54
5, 176640, Note_on_c, 0, 48, 0
5, 177120, Note_on_c, 0, 56, 54
5, 177120, Note_on_c, 0, 59, 54
5, 177600, Note_on_c, 0, 59, 0
5, 177600, Note_on_c, 0, 56, 0
5, 177600, Note_on_c, 0, 48, 54
5, 178080, Note_on_c, 0, 48, 0
5, 178560, Note_on_c, 0, 55, 54
5, 179040, Note_on_c, 0, 55, 0
5, 179040, Note_on_c, 0, 43, 80
5, 181920, Note_on_c, 0, 43, 0
5, 181920, Note_on_c, 0, 43, 80
5, 184800, Note_on_c, 0, 43, 0
5, 184800, Note_on_c, 0, 43, 80
5, 187680, Note_on_c, 0, 43, 0
5, 187680, Note_on_c, 0, 43, 80
5, 190560, Note_on_c, 0, 43, 0
5, 190560, Note_on_c, 0, 43, 80
5, 193440, Note_on_c, 0, 43, 0
5, 193440, Note_on_c, 0, 43, 80
5, 196320, Note_on_c, 0, 43, 0
5, 196320, Note_on_c, 0, 43, 80
5, 199200, Note_on_c, 0, 43, 0
5, 199200, Note_on_c, 0, 43, 80
5, 202080, Note_on_c, 0, 43, 0
5, 202080, Note_on_c, 0, 38, 80
5, 204960, Note_on_c, 0, 38, 0
5, 204960, Note_on_c, 0, 38, 80
5, 207840, Note_on_c, 0, 38, 0
5, 207840, Note_on_c, 0, 38, 80
5, 210720, Note_on_c, 0, 38, 0
5, 210720, Note_on_c, 0, 38, 80
5, 213600, Note_on_c, 0, 38, 0
5, 213600, End_track
0, 0, End_of_file
