0, 0, Header, 1, 4, 480
1, 0, Start_track
1, 0, Title_t, "tchaikovsky swan lake act4 25 entracte"
1, 0, Copyright_t, "Adaptation for Disklavier pianos, by: Robert C. Kuhmann (c) 2012."
1, 0, Text_t, "Seq. (c) by: Segundo G. Yogore,  2007\012"
1, 0, Time_signature, 4, 2, 24, 8
1, 0, Key_signature, 0, "major"
1, 0, Tempo, 600000
1, 11520, Time_signature, 6, 2, 24, 8
1, 14400, Time_signature, 4, 2, 24, 8
1, 25920, Time_signature, 6, 2, 24, 8
1, 28800, Time_signature, 4, 2, 24, 8
1, 36480, Time_signature, 6, 2, 24, 8
1, 36480, Tempo, 750000
1, 39360, Time_signature, 4, 2, 24, 8
1, 39360, Tempo, 600000
1, 64320, Time_signature, 6, 2, 24, 8
1, 64320, End_track
2, 0, Start_track
2, 0, Title_t, "Grand Piano"
2, 0, Program_c, 0, 0
2, 0, Control_c, 0, 7, 115
2, 0, Control_c, 0, 10, 86
2, 0, Note_on_c, 0, 61, 57
2, 0, Note_on_c, 0, 64, 57
2, 0, Note_on_c, 0, 69, 57
2, 480, Note_on_c, 0, 69, 0
2, 480, Note_on_c, 0, 64, 0
2, 480, Note_on_c, 0, 61, 0
2, 480, Note_on_c, 0, 57, 57
2, 480, Note_on_c, 0, 64, 57
2, 720, Note_on_c, 0, 64, 0
2, 720, Note_on_c, 0, 57, 0
2, 840, Note_on_c, 0, 57, 57
2, 840, Note_on_c, 0, 64, 57
2, 840, Note_on_c, 0, 66, 57
2, 960, Note_on_c, 0, 66, 0
2, 960, Note_on_c, 0, 64, 0
2, 960, Note_on_c, 0, 57, 0
2, 960, Note_on_c, 0, 59, 57
2, 960, Note_on_c, 0, 64, 57
2, 960, Note_on_c, 0, 68, 57
2, 1007, Note_on_c, 0, 68, 0
2, 1007, Note_on_c, 0, 64, 0
2, 1007, Note_on_c, 0, 59, 0
2, 1200, Note_on_c, 0, 59, 57
2, 1200, Note_on_c, 0, 64, 57
2, 1200, Note_on_c, 0, 71, 57
2, 1247, Note_on_c, 0, 71, 0
2, 1247, Note_on_c, 0, 64, 0
2, 1247, Note_on_c, 0, 59, 0
2, 1440, Note_on_c, 0, 61, 57
2, 1440, Note_on_c, 0, 64, 57
2, 1440, Note_on_c, 0, 69, 57
2, 1536, Note_on_c, 0, 69, 0
2, 1536, Note_on_c, 0, 64, 0
2, 1536, Note_on_c, 0, 61, 0
2, 1920, Note_on_c, 0, 61, 57
2, 1920, Note_on_c, 0, 64, 57
2, 1920, Note_on_c, 0, 69, 57
2, 2400, Note_on_c, 0, 69, 0
2, 2400, Note_on_c, 0, 64, 0
2, 2400, Note_on_c, 0, 61, 0
2, 2400, Note_on_c, 0, 57, 57
2, 2400, Note_on_c, 0, 64, 57
2, 2640, Note_on_c, 0, 64, 0
2, 2640, Note_on_c, 0, 57, 0
2, 2760, Note_on_c, 0, 57, 57
2, 2760, Note_on_c, 0, 64, 57
2, 2760, Note_on_c, 0, 66, 57
2, 2880, Note_on_c, 0, 66, 0
2, 2880, Note_on_c, 0, 64, 0
2, 2880, Note_on_c, 0, 57, 0
2, 2880, Note_on_c, 0, 59, 57
2, 2880, Note_on_c, 0, 64, 57
2, 2880, Note_on_c, 0, 68, 57
2, 2927, Note_on_c, 0, 68, 0
2, 2927, Note_on_c, 0, 64, 0
2, 2927, Note_on_c, 0, 59, 0
2, 3120, Note_on_c, 0, 59, 57
2, 3120, Note_on_c, 0, 64, 57
2, 3120, Note_on_c, 0, 71, 57
2, 3167, Note_on_c, 0, 71, 0
2, 3167, Note_on_c, 0, 64, 0
2, 3167, Note_on_c, 0, 59, 0
2, 3360, Note_on_c, 0, 61, 57
2, 3360, Note_on_c, 0, 64, 57
2, 3360, Note_on_c, 0, 69, 57
2, 3407, Note_on_c, 0, 69, 0
2, 3407, Note_on_c, 0, 64, 0
2, 3407, Note_on_c, 0, 61, 0
2, 3600, Note_on_c, 0, 64, 57
2, 3600, Note_on_c, 0, 68, 57
2, 3600, Note_on_c, 0, 71, 57
2, 3840, Note_on_c, 0, 71, 0
2, 3840, Note_on_c, 0, 68, 0
2, 3840, Note_on_c, 0, 69, 57
2, 3840, Note_on_c, 0, 73, 57
2, 4080, Note_on_c, 0, 73, 0
2, 4080, Note_on_c, 0, 69, 0
2, 4080, Note_on_c, 0, 64, 0
2, 4080, Note_on_c, 0, 71, 57
2, 4080, Note_on_c, 0, 76, 57
2, 4320, Note_on_c, 0, 76, 0
2, 4320, Note_on_c, 0, 71, 0
2, 4320, Note_on_c, 0, 69, 57
2, 4320, Note_on_c, 0, 73, 57
2, 4320, Note_on_c, 0, 78, 57
2, 4560, Note_on_c, 0, 78, 0
2, 4560, Note_on_c, 0, 73, 0
2, 4560, Note_on_c, 0, 69, 0
2, 4560, Note_on_c, 0, 71, 57
2, 4560, Note_on_c, 0, 76, 57
2, 4800, Note_on_c, 0, 76, 0
2, 4800, Note_on_c, 0, 71, 0
2, 4800, Note_on_c, 0, 73, 57
2, 5280, Note_on_c, 0, 73, 0
2, 5280, Note_on_c, 0, 76, 70
2, 5520, Note_on_c, 0, 76, 0
2, 5520, Note_on_c, 0, 71, 70
2, 5760, Note_on_c, 0, 71, 0
2, 5760, Note_on_c, 0, 69, 70
2, 5760, Note_on_c, 0, 73, 70
2, 6000, Note_on_c, 0, 73, 0
2, 6000, Note_on_c, 0, 69, 0
2, 6000, Note_on_c, 0, 69, 70
2, 6000, Note_on_c, 0, 73, 70
2, 6240, Note_on_c, 0, 73, 0
2, 6240, Note_on_c, 0, 69, 0
2, 6240, Note_on_c, 0, 69, 57
2, 6240, Note_on_c, 0, 73, 57
2, 6420, Note_on_c, 0, 76, 57
2, 6480, Note_on_c, 0, 76, 0
2, 6480, Note_on_c, 0, 73, 0
2, 6480, Note_on_c, 0, 69, 0
2, 6480, Note_on_c, 0, 69, 57
2, 6480, Note_on_c, 0, 74, 57
2, 6720, Note_on_c, 0, 74, 0
2, 6720, Note_on_c, 0, 69, 0
2, 6720, Note_on_c, 0, 68, 57
2, 6720, Note_on_c, 0, 73, 57
2, 7680, Note_on_c, 0, 73, 0
2, 7680, Note_on_c, 0, 68, 0
2, 9600, Note_on_c, 0, 85, 57
2, 9840, Note_on_c, 0, 85, 0
2, 9840, Note_on_c, 0, 80, 57
2, 9840, Note_on_c, 0, 85, 57
2, 9840, Note_on_c, 0, 89, 57
2, 10080, Note_on_c, 0, 89, 0
2, 10080, Note_on_c, 0, 85, 0
2, 10080, Note_on_c, 0, 80, 0
2, 10080, Note_on_c, 0, 77, 57
2, 10080, Note_on_c, 0, 80, 57
2, 10080, Note_on_c, 0, 85, 57
2, 10320, Note_on_c, 0, 85, 0
2, 10320, Note_on_c, 0, 80, 0
2, 10320, Note_on_c, 0, 77, 0
2, 10320, Note_on_c, 0, 73, 57
2, 10320, Note_on_c, 0, 77, 57
2, 10320, Note_on_c, 0, 80, 57
2, 10560, Note_on_c, 0, 80, 0
2, 10560, Note_on_c, 0, 77, 0
2, 10560, Note_on_c, 0, 73, 0
2, 10560, Note_on_c, 0, 68, 57
2, 10560, Note_on_c, 0, 73, 57
2, 10560, Note_on_c, 0, 77, 57
2, 10800, Note_on_c, 0, 77, 0
2, 10800, Note_on_c, 0, 73, 0
2, 10800, Note_on_c, 0, 68, 0
2, 10800, Note_on_c, 0, 77, 57
2, 10800, Note_on_c, 0, 80, 57
2, 10800, Note_on_c, 0, 85, 57
2, 11040, Note_on_c, 0, 85, 0
2, 11040, Note_on_c, 0, 80, 0
2, 11040, Note_on_c, 0, 77, 0
2, 11040, Note_on_c, 0, 73, 57
2, 11040, Note_on_c, 0, 77, 57
2, 11040, Note_on_c, 0, 80, 57
2, 11280, Note_on_c, 0, 80, 0
2, 11280, Note_on_c, 0, 77, 0
2, 11280, Note_on_c, 0, 73, 0
2, 11280, Note_on_c, 0, 68, 57
2, 11280, Note_on_c, 0, 73, 57
2, 11280, Note_on_c, 0, 77, 57
2, 11520, Note_on_c, 0, 77, 0
2, 11520, Note_on_c, 0, 73, 0
2, 11520, Note_on_c, 0, 68, 0
2, 11520, Note_on_c, 0, 65, 57
2, 11520, Note_on_c, 0, 68, 57
2, 11520, Note_on_c, 0, 73, 57
2, 11760, Note_on_c, 0, 73, 0
2, 11760, Note_on_c, 0, 68, 0
2, 11760, Note_on_c, 0, 65, 0
2, 14400, Note_on_c, 0, 65, 57
2, 14400, Note_on_c, 0, 68, 57
2, 14400, Note_on_c, 0, 73, 57
2, 14880, Note_on_c, 0, 73, 0
2, 14880, Note_on_c, 0, 68, 0
2, 14880, Note_on_c, 0, 65, 0
2, 14880, Note_on_c, 0, 61, 57
2, 14880, Note_on_c, 0, 68, 57
2, 15120, Note_on_c, 0, 68, 0
2, 15120, Note_on_c, 0, 61, 0
2, 15240, Note_on_c, 0, 61, 57
2, 15240, Note_on_c, 0, 68, 57
2, 15240, Note_on_c, 0, 70, 57
2, 15360, Note_on_c, 0, 70, 0
2, 15360, Note_on_c, 0, 68, 0
2, 15360, Note_on_c, 0, 61, 0
2, 15360, Note_on_c, 0, 63, 57
2, 15360, Note_on_c, 0, 68, 57
2, 15360, Note_on_c, 0, 72, 57
2, 15600, Note_on_c, 0, 72, 0
2, 15600, Note_on_c, 0, 68, 0
2, 15600, Note_on_c, 0, 63, 0
2, 15600, Note_on_c, 0, 63, 57
2, 15600, Note_on_c, 0, 68, 57
2, 15600, Note_on_c, 0, 75, 57
2, 15840, Note_on_c, 0, 75, 0
2, 15840, Note_on_c, 0, 68, 0
2, 15840, Note_on_c, 0, 63, 0
2, 15840, Note_on_c, 0, 65, 57
2, 15840, Note_on_c, 0, 68, 57
2, 15840, Note_on_c, 0, 73, 57
2, 16320, Note_on_c, 0, 73, 0
2, 16320, Note_on_c, 0, 68, 0
2, 16320, Note_on_c, 0, 65, 0
2, 16320, Note_on_c, 0, 65, 57
2, 16320, Note_on_c, 0, 68, 57
2, 16320, Note_on_c, 0, 73, 57
2, 16800, Note_on_c, 0, 73, 0
2, 16800, Note_on_c, 0, 68, 0
2, 16800, Note_on_c, 0, 65, 0
2, 16800, Note_on_c, 0, 61, 57
2, 16800, Note_on_c, 0, 68, 57
2, 17040, Note_on_c, 0, 68, 0
2, 17040, Note_on_c, 0, 61, 0
2, 17160, Note_on_c, 0, 61, 57
2, 17160, Note_on_c, 0, 68, 57
2, 17160, Note_on_c, 0, 70, 57
2, 17280, Note_on_c, 0, 70, 0
2, 17280, Note_on_c, 0, 68, 0
2, 17280, Note_on_c, 0, 61, 0
2, 17280, Note_on_c, 0, 63, 57
2, 17280, Note_on_c, 0, 68, 57
2, 17280, Note_on_c, 0, 72, 57
2, 17520, Note_on_c, 0, 72, 0
2, 17520, Note_on_c, 0, 68, 0
2, 17520, Note_on_c, 0, 63, 0
2, 17520, Note_on_c, 0, 63, 57
2, 17520, Note_on_c, 0, 68, 57
2, 17520, Note_on_c, 0, 75, 57
2, 17760, Note_on_c, 0, 75, 0
2, 17760, Note_on_c, 0, 68, 0
2, 17760, Note_on_c, 0, 63, 0
2, 17760, Note_on_c, 0, 65, 57
2, 17760, Note_on_c, 0, 68, 57
2, 17760, Note_on_c, 0, 73, 57
2, 18000, Note_on_c, 0, 73, 0
2, 18000, Note_on_c, 0, 68, 0
2, 18000, Note_on_c, 0, 65, 0
2, 18000, Note_on_c, 0, 68, 57
2, 18000, Note_on_c, 0, 72, 57
2, 18000, Note_on_c, 0, 75, 57
2, 18240, Note_on_c, 0, 75, 0
2, 18240, Note_on_c, 0, 72, 0
2, 18240, Note_on_c, 0, 73, 57
2, 18240, Note_on_c, 0, 77, 57
2, 18480, Note_on_c, 0, 77, 0
2, 18480, Note_on_c, 0, 73, 0
2, 18480, Note_on_c, 0, 68, 0
2, 18480, Note_on_c, 0, 68, 57
2, 18480, Note_on_c, 0, 75, 57
2, 18480, Note_on_c, 0, 80, 57
2, 18720, Note_on_c, 0, 80, 0
2, 18720, Note_on_c, 0, 75, 0
2, 18720, Note_on_c, 0, 68, 0
2, 18720, Note_on_c, 0, 73, 57
2, 18720, Note_on_c, 0, 77, 57
2, 18720, Note_on_c, 0, 82, 57
2, 18960, Note_on_c, 0, 82, 0
2, 18960, Note_on_c, 0, 77, 0
2, 18960, Note_on_c, 0, 73, 0
2, 18960, Note_on_c, 0, 68, 57
2, 18960, Note_on_c, 0, 75, 57
2, 18960, Note_on_c, 0, 80, 57
2, 19200, Note_on_c, 0, 80, 0
2, 19200, Note_on_c, 0, 75, 0
2, 19200, Note_on_c, 0, 68, 0
2, 19200, Note_on_c, 0, 77, 57
2, 19680, Note_on_c, 0, 77, 0
2, 19680, Note_on_c, 0, 80, 70
2, 19920, Note_on_c, 0, 80, 0
2, 19920, Note_on_c, 0, 75, 70
2, 20160, Note_on_c, 0, 75, 0
2, 20160, Note_on_c, 0, 73, 70
2, 20160, Note_on_c, 0, 77, 70
2, 20400, Note_on_c, 0, 77, 0
2, 20400, Note_on_c, 0, 73, 0
2, 20400, Note_on_c, 0, 73, 57
2, 20400, Note_on_c, 0, 77, 57
2, 20640, Note_on_c, 0, 77, 0
2, 20640, Note_on_c, 0, 73, 0
2, 20640, Note_on_c, 0, 73, 57
2, 20640, Note_on_c, 0, 77, 57
2, 20820, Note_on_c, 0, 80, 57
2, 20880, Note_on_c, 0, 80, 0
2, 20880, Note_on_c, 0, 77, 0
2, 20880, Note_on_c, 0, 73, 0
2, 20880, Note_on_c, 0, 73, 57
2, 20880, Note_on_c, 0, 78, 57
2, 21120, Note_on_c, 0, 78, 0
2, 21120, Note_on_c, 0, 73, 0
2, 21120, Note_on_c, 0, 72, 57
2, 21120, Note_on_c, 0, 77, 57
2, 22080, Note_on_c, 0, 77, 0
2, 22080, Note_on_c, 0, 72, 0
2, 24000, Note_on_c, 0, 89, 57
2, 24240, Note_on_c, 0, 89, 0
2, 24240, Note_on_c, 0, 84, 57
2, 24240, Note_on_c, 0, 89, 57
2, 24240, Note_on_c, 0, 93, 57
2, 24480, Note_on_c, 0, 93, 0
2, 24480, Note_on_c, 0, 89, 0
2, 24480, Note_on_c, 0, 84, 0
2, 24480, Note_on_c, 0, 81, 57
2, 24480, Note_on_c, 0, 84, 57
2, 24480, Note_on_c, 0, 89, 57
2, 24720, Note_on_c, 0, 89, 0
2, 24720, Note_on_c, 0, 84, 0
2, 24720, Note_on_c, 0, 81, 0
2, 24720, Note_on_c, 0, 77, 57
2, 24720, Note_on_c, 0, 81, 57
2, 24720, Note_on_c, 0, 84, 57
2, 24960, Note_on_c, 0, 84, 0
2, 24960, Note_on_c, 0, 81, 0
2, 24960, Note_on_c, 0, 77, 0
2, 24960, Note_on_c, 0, 72, 57
2, 24960, Note_on_c, 0, 77, 57
2, 24960, Note_on_c, 0, 81, 57
2, 25200, Note_on_c, 0, 81, 0
2, 25200, Note_on_c, 0, 77, 0
2, 25200, Note_on_c, 0, 72, 0
2, 25200, Note_on_c, 0, 81, 57
2, 25200, Note_on_c, 0, 84, 57
2, 25200, Note_on_c, 0, 89, 57
2, 25440, Note_on_c, 0, 89, 0
2, 25440, Note_on_c, 0, 84, 0
2, 25440, Note_on_c, 0, 81, 0
2, 25440, Note_on_c, 0, 77, 57
2, 25440, Note_on_c, 0, 81, 57
2, 25440, Note_on_c, 0, 84, 57
2, 25680, Note_on_c, 0, 84, 0
2, 25680, Note_on_c, 0, 81, 0
2, 25680, Note_on_c, 0, 77, 0
2, 25680, Note_on_c, 0, 72, 57
2, 25680, Note_on_c, 0, 77, 57
2, 25680, Note_on_c, 0, 81, 57
2, 25920, Note_on_c, 0, 81, 0
2, 25920, Note_on_c, 0, 77, 0
2, 25920, Note_on_c, 0, 72, 0
2, 25920, Note_on_c, 0, 69, 57
2, 25920, Note_on_c, 0, 72, 57
2, 25920, Note_on_c, 0, 77, 57
2, 26160, Note_on_c, 0, 77, 0
2, 26160, Note_on_c, 0, 72, 0
2, 26160, Note_on_c, 0, 69, 0
2, 28800, Note_on_c, 0, 77, 109
2, 28800, Note_on_c, 0, 79, 109
2, 28800, Note_on_c, 0, 82, 109
2, 28800, Note_on_c, 0, 89, 109
2, 29280, Note_on_c, 0, 89, 0
2, 29280, Note_on_c, 0, 77, 0
2, 29280, Note_on_c, 0, 79, 0
2, 29280, Note_on_c, 0, 82, 0
2, 29280, Note_on_c, 0, 70, 109
2, 29280, Note_on_c, 0, 79, 109
2, 29280, Note_on_c, 0, 82, 109
2, 29640, Note_on_c, 0, 82, 0
2, 29640, Note_on_c, 0, 79, 0
2, 29640, Note_on_c, 0, 70, 0
2, 29640, Note_on_c, 0, 72, 109
2, 29640, Note_on_c, 0, 81, 109
2, 29640, Note_on_c, 0, 84, 109
2, 29760, Note_on_c, 0, 84, 0
2, 29760, Note_on_c, 0, 81, 0
2, 29760, Note_on_c, 0, 72, 0
2, 29760, Note_on_c, 0, 73, 109
2, 29760, Note_on_c, 0, 82, 109
2, 29760, Note_on_c, 0, 85, 109
2, 30000, Note_on_c, 0, 85, 0
2, 30000, Note_on_c, 0, 82, 0
2, 30000, Note_on_c, 0, 73, 0
2, 30000, Note_on_c, 0, 78, 109
2, 30000, Note_on_c, 0, 82, 109
2, 30000, Note_on_c, 0, 85, 109
2, 30000, Note_on_c, 0, 90, 109
2, 30240, Note_on_c, 0, 90, 0
2, 30240, Note_on_c, 0, 78, 0
2, 30240, Note_on_c, 0, 82, 0
2, 30240, Note_on_c, 0, 85, 0
2, 30240, Note_on_c, 0, 77, 109
2, 30240, Note_on_c, 0, 80, 109
2, 30240, Note_on_c, 0, 86, 109
2, 30240, Note_on_c, 0, 89, 109
2, 30480, Note_on_c, 0, 89, 0
2, 30480, Note_on_c, 0, 77, 0
2, 30480, Note_on_c, 0, 80, 0
2, 30480, Note_on_c, 0, 86, 0
2, 30720, Note_on_c, 0, 80, 96
2, 30720, Note_on_c, 0, 86, 96
2, 30720, Note_on_c, 0, 89, 96
2, 31920, Note_on_c, 0, 89, 0
2, 31920, Note_on_c, 0, 86, 0
2, 31920, Note_on_c, 0, 80, 0
2, 31920, Note_on_c, 0, 80, 57
2, 31920, Note_on_c, 0, 86, 57
2, 31920, Note_on_c, 0, 89, 57
2, 32040, Note_on_c, 0, 89, 0
2, 32040, Note_on_c, 0, 86, 0
2, 32040, Note_on_c, 0, 80, 0
2, 32040, Note_on_c, 0, 80, 57
2, 32040, Note_on_c, 0, 86, 57
2, 32040, Note_on_c, 0, 89, 57
2, 32160, Note_on_c, 0, 89, 0
2, 32160, Note_on_c, 0, 86, 0
2, 32160, Note_on_c, 0, 80, 0
2, 32160, Note_on_c, 0, 79, 57
2, 32160, Note_on_c, 0, 84, 57
2, 32160, Note_on_c, 0, 87, 57
2, 32280, Note_on_c, 0, 87, 0
2, 32280, Note_on_c, 0, 84, 0
2, 32280, Note_on_c, 0, 79, 0
2, 32280, Note_on_c, 0, 79, 57
2, 32280, Note_on_c, 0, 84, 57
2, 32280, Note_on_c, 0, 87, 57
2, 32400, Note_on_c, 0, 87, 0
2, 32400, Note_on_c, 0, 84, 0
2, 32400, Note_on_c, 0, 79, 0
2, 32400, Note_on_c, 0, 77, 57
2, 32400, Note_on_c, 0, 84, 57
2, 32400, Note_on_c, 0, 89, 57
2, 32520, Note_on_c, 0, 89, 0
2, 32520, Note_on_c, 0, 84, 0
2, 32520, Note_on_c, 0, 77, 0
2, 32520, Note_on_c, 0, 77, 57
2, 32520, Note_on_c, 0, 84, 57
2, 32520, Note_on_c, 0, 89, 57
2, 32640, Note_on_c, 0, 89, 0
2, 32640, Note_on_c, 0, 84, 0
2, 32640, Note_on_c, 0, 77, 0
2, 32640, Note_on_c, 0, 79, 57
2, 32640, Note_on_c, 0, 84, 57
2, 32760, Note_on_c, 0, 84, 0
2, 32760, Note_on_c, 0, 79, 0
2, 32760, Note_on_c, 0, 79, 57
2, 32760, Note_on_c, 0, 84, 57
2, 32880, Note_on_c, 0, 84, 0
2, 32880, Note_on_c, 0, 79, 0
2, 32880, Note_on_c, 0, 79, 57
2, 32880, Note_on_c, 0, 84, 57
2, 32927, Note_on_c, 0, 84, 0
2, 32927, Note_on_c, 0, 79, 0
2, 33120, Note_on_c, 0, 78, 57
2, 33120, Note_on_c, 0, 84, 57
2, 33240, Note_on_c, 0, 84, 0
2, 33240, Note_on_c, 0, 78, 0
2, 33240, Note_on_c, 0, 78, 57
2, 33240, Note_on_c, 0, 84, 57
2, 33360, Note_on_c, 0, 84, 0
2, 33360, Note_on_c, 0, 78, 0
2, 33360, Note_on_c, 0, 78, 57
2, 33360, Note_on_c, 0, 84, 57
2, 33407, Note_on_c, 0, 84, 0
2, 33407, Note_on_c, 0, 78, 0
2, 33600, Note_on_c, 0, 77, 57
2, 33600, Note_on_c, 0, 82, 57
2, 33840, Note_on_c, 0, 82, 0
2, 33840, Note_on_c, 0, 77, 0
2, 33840, Note_on_c, 0, 78, 57
2, 33840, Note_on_c, 0, 84, 57
2, 33840, Note_on_c, 0, 87, 57
2, 33960, Note_on_c, 0, 87, 0
2, 33960, Note_on_c, 0, 84, 0
2, 33960, Note_on_c, 0, 78, 0
2, 33960, Note_on_c, 0, 78, 57
2, 33960, Note_on_c, 0, 84, 57
2, 33960, Note_on_c, 0, 87, 57
2, 34080, Note_on_c, 0, 87, 0
2, 34080, Note_on_c, 0, 84, 0
2, 34080, Note_on_c, 0, 78, 0
2, 34080, Note_on_c, 0, 77, 57
2, 34080, Note_on_c, 0, 82, 57
2, 34080, Note_on_c, 0, 85, 57
2, 34200, Note_on_c, 0, 85, 0
2, 34200, Note_on_c, 0, 82, 0
2, 34200, Note_on_c, 0, 77, 0
2, 34200, Note_on_c, 0, 77, 57
2, 34200, Note_on_c, 0, 82, 57
2, 34200, Note_on_c, 0, 85, 57
2, 34320, Note_on_c, 0, 85, 0
2, 34320, Note_on_c, 0, 82, 0
2, 34320, Note_on_c, 0, 77, 0
2, 34320, Note_on_c, 0, 75, 57
2, 34320, Note_on_c, 0, 82, 57
2, 34320, Note_on_c, 0, 87, 57
2, 34440, Note_on_c, 0, 87, 0
2, 34440, Note_on_c, 0, 82, 0
2, 34440, Note_on_c, 0, 75, 0
2, 34440, Note_on_c, 0, 75, 57
2, 34440, Note_on_c, 0, 82, 57
2, 34440, Note_on_c, 0, 87, 57
2, 34560, Note_on_c, 0, 87, 0
2, 34560, Note_on_c, 0, 82, 0
2, 34560, Note_on_c, 0, 75, 0
2, 34560, Note_on_c, 0, 77, 57
2, 34560, Note_on_c, 0, 82, 57
2, 34680, Note_on_c, 0, 82, 0
2, 34680, Note_on_c, 0, 77, 0
2, 34680, Note_on_c, 0, 77, 57
2, 34680, Note_on_c, 0, 82, 57
2, 34800, Note_on_c, 0, 82, 0
2, 34800, Note_on_c, 0, 77, 0
2, 34800, Note_on_c, 0, 77, 57
2, 34800, Note_on_c, 0, 82, 57
2, 34847, Note_on_c, 0, 82, 0
2, 34847, Note_on_c, 0, 77, 0
2, 35040, Note_on_c, 0, 77, 57
2, 35040, Note_on_c, 0, 82, 57
2, 35160, Note_on_c, 0, 82, 0
2, 35160, Note_on_c, 0, 77, 0
2, 35160, Note_on_c, 0, 77, 57
2, 35160, Note_on_c, 0, 82, 57
2, 35280, Note_on_c, 0, 82, 0
2, 35280, Note_on_c, 0, 77, 0
2, 35280, Note_on_c, 0, 77, 57
2, 35280, Note_on_c, 0, 82, 57
2, 35327, Note_on_c, 0, 82, 0
2, 35327, Note_on_c, 0, 77, 0
2, 35760, Note_on_c, 0, 76, 57
2, 35760, Note_on_c, 0, 80, 57
2, 35807, Note_on_c, 0, 80, 0
2, 35807, Note_on_c, 0, 76, 0
2, 36240, Note_on_c, 0, 76, 57
2, 36240, Note_on_c, 0, 80, 57
2, 36287, Note_on_c, 0, 80, 0
2, 36287, Note_on_c, 0, 76, 0
2, 36480, Note_on_c, 0, 80, 57
2, 36960, Note_on_c, 0, 80, 0
2, 36960, Note_on_c, 0, 78, 57
2, 39360, Note_on_c, 0, 78, 0
2, 39360, Note_on_c, 0, 64, 57
2, 39360, Note_on_c, 0, 68, 57
2, 39360, Note_on_c, 0, 73, 57
2, 39840, Note_on_c, 0, 73, 0
2, 39840, Note_on_c, 0, 68, 0
2, 39840, Note_on_c, 0, 64, 0
2, 39840, Note_on_c, 0, 61, 57
2, 39840, Note_on_c, 0, 68, 57
2, 40200, Note_on_c, 0, 68, 0
2, 40200, Note_on_c, 0, 61, 0
2, 40200, Note_on_c, 0, 61, 57
2, 40200, Note_on_c, 0, 68, 57
2, 40200, Note_on_c, 0, 70, 57
2, 40320, Note_on_c, 0, 70, 0
2, 40320, Note_on_c, 0, 68, 0
2, 40320, Note_on_c, 0, 61, 0
2, 40320, Note_on_c, 0, 63, 57
2, 40320, Note_on_c, 0, 68, 57
2, 40320, Note_on_c, 0, 72, 57
2, 40560, Note_on_c, 0, 72, 0
2, 40560, Note_on_c, 0, 68, 0
2, 40560, Note_on_c, 0, 63, 0
2, 40560, Note_on_c, 0, 63, 57
2, 40560, Note_on_c, 0, 68, 57
2, 40560, Note_on_c, 0, 75, 57
2, 40800, Note_on_c, 0, 75, 0
2, 40800, Note_on_c, 0, 68, 0
2, 40800, Note_on_c, 0, 63, 0
2, 40800, Note_on_c, 0, 64, 57
2, 40800, Note_on_c, 0, 68, 57
2, 40800, Note_on_c, 0, 73, 57
2, 41280, Note_on_c, 0, 73, 0
2, 41280, Note_on_c, 0, 68, 0
2, 41280, Note_on_c, 0, 64, 0
2, 41280, Note_on_c, 0, 64, 57
2, 41280, Note_on_c, 0, 68, 57
2, 41280, Note_on_c, 0, 73, 57
2, 41760, Note_on_c, 0, 73, 0
2, 41760, Note_on_c, 0, 68, 0
2, 41760, Note_on_c, 0, 64, 0
2, 41760, Note_on_c, 0, 61, 57
2, 41760, Note_on_c, 0, 68, 57
2, 42120, Note_on_c, 0, 68, 0
2, 42120, Note_on_c, 0, 61, 0
2, 42120, Note_on_c, 0, 61, 57
2, 42120, Note_on_c, 0, 68, 57
2, 42120, Note_on_c, 0, 70, 57
2, 42240, Note_on_c, 0, 70, 0
2, 42240, Note_on_c, 0, 68, 0
2, 42240, Note_on_c, 0, 61, 0
2, 42240, Note_on_c, 0, 63, 57
2, 42240, Note_on_c, 0, 68, 57
2, 42240, Note_on_c, 0, 72, 57
2, 42480, Note_on_c, 0, 72, 0
2, 42480, Note_on_c, 0, 68, 0
2, 42480, Note_on_c, 0, 63, 0
2, 42480, Note_on_c, 0, 63, 57
2, 42480, Note_on_c, 0, 68, 57
2, 42480, Note_on_c, 0, 75, 57
2, 42720, Note_on_c, 0, 75, 0
2, 42720, Note_on_c, 0, 68, 0
2, 42720, Note_on_c, 0, 63, 0
2, 42720, Note_on_c, 0, 64, 57
2, 42720, Note_on_c, 0, 68, 57
2, 42720, Note_on_c, 0, 73, 57
2, 42960, Note_on_c, 0, 73, 0
2, 42960, Note_on_c, 0, 68, 0
2, 42960, Note_on_c, 0, 64, 0
2, 42960, Note_on_c, 0, 66, 57
2, 42960, Note_on_c, 0, 71, 57
2, 42960, Note_on_c, 0, 75, 57
2, 43200, Note_on_c, 0, 75, 0
2, 43200, Note_on_c, 0, 71, 0
2, 43200, Note_on_c, 0, 66, 0
2, 43200, Note_on_c, 0, 68, 70
2, 43200, Note_on_c, 0, 71, 70
2, 43200, Note_on_c, 0, 76, 70
2, 45120, Note_on_c, 0, 76, 0
2, 45120, Note_on_c, 0, 71, 0
2, 45120, Note_on_c, 0, 68, 0
2, 45120, Control_c, 0, 64, 127
2, 45120, Note_on_c, 0, 76, 70
2, 45159, Note_on_c, 0, 76, 0
2, 45159, Note_on_c, 0, 80, 70
2, 45200, Note_on_c, 0, 80, 0
2, 45200, Note_on_c, 0, 83, 70
2, 45240, Note_on_c, 0, 83, 0
2, 45240, Note_on_c, 0, 88, 70
2, 45279, Note_on_c, 0, 88, 0
2, 45279, Note_on_c, 0, 92, 70
2, 45320, Note_on_c, 0, 92, 0
2, 45320, Control_c, 0, 64, 0
2, 45320, Note_on_c, 0, 95, 70
2, 45360, Note_on_c, 0, 95, 0
2, 45360, Control_c, 0, 64, 127
2, 45360, Note_on_c, 0, 71, 70
2, 45399, Note_on_c, 0, 71, 0
2, 45399, Note_on_c, 0, 76, 70
2, 45440, Note_on_c, 0, 76, 0
2, 45440, Note_on_c, 0, 80, 70
2, 45480, Note_on_c, 0, 80, 0
2, 45480, Note_on_c, 0, 83, 70
2, 45519, Note_on_c, 0, 83, 0
2, 45519, Note_on_c, 0, 88, 70
2, 45560, Note_on_c, 0, 88, 0
2, 45560, Control_c, 0, 64, 0
2, 45560, Note_on_c, 0, 92, 70
2, 45600, Note_on_c, 0, 92, 0
2, 45600, Control_c, 0, 64, 127
2, 45600, Note_on_c, 0, 68, 70
2, 45639, Note_on_c, 0, 68, 0
2, 45639, Note_on_c, 0, 71, 70
2, 45680, Note_on_c, 0, 71, 0
2, 45680, Note_on_c, 0, 76, 70
2, 45720, Note_on_c, 0, 76, 0
2, 45720, Note_on_c, 0, 80, 70
2, 45759, Note_on_c, 0, 80, 0
2, 45759, Note_on_c, 0, 83, 70
2, 45800, Note_on_c, 0, 83, 0
2, 45800, Control_c, 0, 64, 0
2, 45800, Note_on_c, 0, 88, 70
2, 45840, Note_on_c, 0, 88, 0
2, 45840, Control_c, 0, 64, 127
2, 45840, Note_on_c, 0, 64, 70
2, 45879, Note_on_c, 0, 64, 0
2, 45879, Note_on_c, 0, 68, 70
2, 45920, Note_on_c, 0, 68, 0
2, 45920, Note_on_c, 0, 71, 70
2, 45960, Note_on_c, 0, 71, 0
2, 45960, Note_on_c, 0, 76, 70
2, 45999, Note_on_c, 0, 76, 0
2, 45999, Note_on_c, 0, 80, 70
2, 46040, Note_on_c, 0, 80, 0
2, 46040, Control_c, 0, 64, 0
2, 46040, Note_on_c, 0, 83, 70
2, 46080, Note_on_c, 0, 83, 0
2, 46080, Note_on_c, 0, 88, 70
2, 46320, Note_on_c, 0, 88, 0
2, 46320, Note_on_c, 0, 83, 70
2, 46320, Note_on_c, 0, 88, 70
2, 46320, Note_on_c, 0, 92, 70
2, 46560, Note_on_c, 0, 92, 0
2, 46560, Note_on_c, 0, 88, 0
2, 46560, Note_on_c, 0, 83, 0
2, 46560, Note_on_c, 0, 80, 70
2, 46560, Note_on_c, 0, 83, 70
2, 46560, Note_on_c, 0, 88, 70
2, 46800, Note_on_c, 0, 88, 0
2, 46800, Note_on_c, 0, 83, 0
2, 46800, Note_on_c, 0, 80, 0
2, 46800, Note_on_c, 0, 76, 70
2, 46800, Note_on_c, 0, 80, 70
2, 46800, Note_on_c, 0, 83, 70
2, 47040, Note_on_c, 0, 83, 0
2, 47040, Note_on_c, 0, 80, 0
2, 47040, Note_on_c, 0, 76, 0
2, 47040, Note_on_c, 0, 71, 70
2, 47040, Note_on_c, 0, 76, 70
2, 47040, Note_on_c, 0, 80, 70
2, 47280, Note_on_c, 0, 80, 0
2, 47280, Note_on_c, 0, 76, 0
2, 47280, Note_on_c, 0, 71, 0
2, 47280, Note_on_c, 0, 80, 70
2, 47280, Note_on_c, 0, 83, 70
2, 47280, Note_on_c, 0, 88, 70
2, 47520, Note_on_c, 0, 88, 0
2, 47520, Note_on_c, 0, 83, 0
2, 47520, Note_on_c, 0, 80, 0
2, 47520, Note_on_c, 0, 76, 70
2, 47520, Note_on_c, 0, 80, 70
2, 47520, Note_on_c, 0, 83, 70
2, 47760, Note_on_c, 0, 83, 0
2, 47760, Note_on_c, 0, 80, 0
2, 47760, Note_on_c, 0, 76, 0
2, 47760, Note_on_c, 0, 71, 70
2, 47760, Note_on_c, 0, 76, 70
2, 47760, Note_on_c, 0, 80, 70
2, 48000, Note_on_c, 0, 80, 0
2, 48000, Note_on_c, 0, 76, 0
2, 48000, Note_on_c, 0, 71, 0
2, 48000, Note_on_c, 0, 71, 70
2, 48000, Note_on_c, 0, 76, 70
2, 48480, Note_on_c, 0, 76, 0
2, 48480, Note_on_c, 0, 71, 0
2, 48960, Note_on_c, 0, 76, 109
2, 48960, Note_on_c, 0, 78, 109
2, 48960, Note_on_c, 0, 81, 109
2, 48960, Note_on_c, 0, 88, 109
2, 49440, Note_on_c, 0, 88, 0
2, 49440, Note_on_c, 0, 76, 0
2, 49440, Note_on_c, 0, 78, 0
2, 49440, Note_on_c, 0, 81, 0
2, 49440, Note_on_c, 0, 69, 109
2, 49440, Note_on_c, 0, 76, 109
2, 49440, Note_on_c, 0, 78, 109
2, 49440, Note_on_c, 0, 81, 109
2, 49800, Note_on_c, 0, 81, 0
2, 49800, Note_on_c, 0, 69, 0
2, 49800, Note_on_c, 0, 76, 0
2, 49800, Note_on_c, 0, 78, 0
2, 49800, Note_on_c, 0, 71, 109
2, 49800, Note_on_c, 0, 76, 109
2, 49800, Note_on_c, 0, 80, 109
2, 49800, Note_on_c, 0, 83, 109
2, 49920, Note_on_c, 0, 83, 0
2, 49920, Note_on_c, 0, 71, 0
2, 49920, Note_on_c, 0, 76, 0
2, 49920, Note_on_c, 0, 80, 0
2, 49920, Note_on_c, 0, 72, 109
2, 49920, Note_on_c, 0, 76, 109
2, 49920, Note_on_c, 0, 81, 109
2, 49920, Note_on_c, 0, 84, 109
2, 50160, Note_on_c, 0, 84, 0
2, 50160, Note_on_c, 0, 72, 0
2, 50160, Note_on_c, 0, 76, 0
2, 50160, Note_on_c, 0, 81, 0
2, 50160, Note_on_c, 0, 77, 109
2, 50160, Note_on_c, 0, 81, 109
2, 50160, Note_on_c, 0, 84, 109
2, 50160, Note_on_c, 0, 89, 109
2, 50400, Note_on_c, 0, 89, 0
2, 50400, Note_on_c, 0, 77, 0
2, 50400, Note_on_c, 0, 81, 0
2, 50400, Note_on_c, 0, 84, 0
2, 50400, Note_on_c, 0, 76, 109
2, 50400, Note_on_c, 0, 79, 109
2, 50400, Note_on_c, 0, 85, 109
2, 50400, Note_on_c, 0, 88, 109
2, 50640, Note_on_c, 0, 88, 0
2, 50640, Note_on_c, 0, 76, 0
2, 50640, Note_on_c, 0, 79, 0
2, 50640, Note_on_c, 0, 85, 0
2, 50880, Note_on_c, 0, 79, 96
2, 50880, Note_on_c, 0, 85, 96
2, 50880, Note_on_c, 0, 88, 96
2, 52080, Note_on_c, 0, 88, 0
2, 52080, Note_on_c, 0, 85, 0
2, 52080, Note_on_c, 0, 79, 0
2, 52080, Note_on_c, 0, 79, 57
2, 52080, Note_on_c, 0, 85, 57
2, 52080, Note_on_c, 0, 88, 57
2, 52200, Note_on_c, 0, 88, 0
2, 52200, Note_on_c, 0, 85, 0
2, 52200, Note_on_c, 0, 79, 0
2, 52200, Note_on_c, 0, 79, 57
2, 52200, Note_on_c, 0, 85, 57
2, 52200, Note_on_c, 0, 88, 57
2, 52320, Note_on_c, 0, 88, 0
2, 52320, Note_on_c, 0, 85, 0
2, 52320, Note_on_c, 0, 79, 0
2, 52320, Note_on_c, 0, 78, 57
2, 52320, Note_on_c, 0, 83, 57
2, 52320, Note_on_c, 0, 86, 57
2, 52440, Note_on_c, 0, 86, 0
2, 52440, Note_on_c, 0, 83, 0
2, 52440, Note_on_c, 0, 78, 0
2, 52440, Note_on_c, 0, 78, 57
2, 52440, Note_on_c, 0, 83, 57
2, 52440, Note_on_c, 0, 86, 57
2, 52560, Note_on_c, 0, 86, 0
2, 52560, Note_on_c, 0, 83, 0
2, 52560, Note_on_c, 0, 78, 0
2, 52560, Note_on_c, 0, 76, 57
2, 52560, Note_on_c, 0, 83, 57
2, 52560, Note_on_c, 0, 88, 57
2, 52680, Note_on_c, 0, 88, 0
2, 52680, Note_on_c, 0, 83, 0
2, 52680, Note_on_c, 0, 76, 0
2, 52680, Note_on_c, 0, 76, 57
2, 52680, Note_on_c, 0, 83, 57
2, 52680, Note_on_c, 0, 88, 57
2, 52800, Note_on_c, 0, 88, 0
2, 52800, Note_on_c, 0, 83, 0
2, 52800, Note_on_c, 0, 76, 0
2, 52800, Note_on_c, 0, 78, 57
2, 52800, Note_on_c, 0, 83, 57
2, 52920, Note_on_c, 0, 83, 0
2, 52920, Note_on_c, 0, 78, 0
2, 52920, Note_on_c, 0, 78, 57
2, 52920, Note_on_c, 0, 83, 57
2, 53040, Note_on_c, 0, 83, 0
2, 53040, Note_on_c, 0, 78, 0
2, 53040, Note_on_c, 0, 78, 57
2, 53040, Note_on_c, 0, 83, 57
2, 53087, Note_on_c, 0, 83, 0
2, 53087, Note_on_c, 0, 78, 0
2, 53280, Note_on_c, 0, 77, 57
2, 53280, Note_on_c, 0, 83, 57
2, 53400, Note_on_c, 0, 83, 0
2, 53400, Note_on_c, 0, 77, 0
2, 53400, Note_on_c, 0, 77, 57
2, 53400, Note_on_c, 0, 83, 57
2, 53520, Note_on_c, 0, 83, 0
2, 53520, Note_on_c, 0, 77, 0
2, 53520, Note_on_c, 0, 77, 57
2, 53520, Note_on_c, 0, 83, 57
2, 53567, Note_on_c, 0, 83, 0
2, 53567, Note_on_c, 0, 77, 0
2, 53760, Note_on_c, 0, 76, 57
2, 53760, Note_on_c, 0, 81, 57
2, 54000, Note_on_c, 0, 81, 0
2, 54000, Note_on_c, 0, 76, 0
2, 54000, Note_on_c, 0, 77, 57
2, 54000, Note_on_c, 0, 83, 57
2, 54000, Note_on_c, 0, 86, 57
2, 54120, Note_on_c, 0, 86, 0
2, 54120, Note_on_c, 0, 83, 0
2, 54120, Note_on_c, 0, 77, 0
2, 54120, Note_on_c, 0, 77, 57
2, 54120, Note_on_c, 0, 83, 57
2, 54120, Note_on_c, 0, 86, 57
2, 54240, Note_on_c, 0, 86, 0
2, 54240, Note_on_c, 0, 83, 0
2, 54240, Note_on_c, 0, 77, 0
2, 54240, Note_on_c, 0, 76, 57
2, 54240, Note_on_c, 0, 81, 57
2, 54240, Note_on_c, 0, 84, 57
2, 54360, Note_on_c, 0, 84, 0
2, 54360, Note_on_c, 0, 81, 0
2, 54360, Note_on_c, 0, 76, 0
2, 54360, Note_on_c, 0, 76, 57
2, 54360, Note_on_c, 0, 81, 57
2, 54360, Note_on_c, 0, 84, 57
2, 54480, Note_on_c, 0, 84, 0
2, 54480, Note_on_c, 0, 81, 0
2, 54480, Note_on_c, 0, 76, 0
2, 54480, Note_on_c, 0, 74, 57
2, 54480, Note_on_c, 0, 81, 57
2, 54480, Note_on_c, 0, 86, 57
2, 54600, Note_on_c, 0, 86, 0
2, 54600, Note_on_c, 0, 81, 0
2, 54600, Note_on_c, 0, 74, 0
2, 54600, Note_on_c, 0, 74, 57
2, 54600, Note_on_c, 0, 81, 57
2, 54600, Note_on_c, 0, 86, 57
2, 54720, Note_on_c, 0, 86, 0
2, 54720, Note_on_c, 0, 81, 0
2, 54720, Note_on_c, 0, 74, 0
2, 54720, Note_on_c, 0, 76, 57
2, 54720, Note_on_c, 0, 81, 57
2, 54840, Note_on_c, 0, 81, 0
2, 54840, Note_on_c, 0, 76, 0
2, 54840, Note_on_c, 0, 76, 57
2, 54840, Note_on_c, 0, 81, 57
2, 54960, Note_on_c, 0, 81, 0
2, 54960, Note_on_c, 0, 76, 0
2, 54960, Note_on_c, 0, 76, 57
2, 54960, Note_on_c, 0, 81, 57
2, 55007, Note_on_c, 0, 81, 0
2, 55007, Note_on_c, 0, 76, 0
2, 55200, Note_on_c, 0, 76, 57
2, 55200, Note_on_c, 0, 81, 57
2, 55320, Note_on_c, 0, 81, 0
2, 55320, Note_on_c, 0, 76, 0
2, 55320, Note_on_c, 0, 76, 57
2, 55320, Note_on_c, 0, 81, 57
2, 55440, Note_on_c, 0, 81, 0
2, 55440, Note_on_c, 0, 76, 0
2, 55440, Note_on_c, 0, 76, 57
2, 55440, Note_on_c, 0, 81, 57
2, 55487, Note_on_c, 0, 81, 0
2, 55487, Note_on_c, 0, 76, 0
2, 55680, Note_on_c, 0, 74, 57
2, 55680, Note_on_c, 0, 81, 57
2, 55800, Note_on_c, 0, 81, 0
2, 55800, Note_on_c, 0, 74, 0
2, 55800, Note_on_c, 0, 74, 57
2, 55800, Note_on_c, 0, 81, 57
2, 55920, Note_on_c, 0, 81, 0
2, 55920, Note_on_c, 0, 74, 0
2, 55920, Note_on_c, 0, 74, 57
2, 55920, Note_on_c, 0, 81, 57
2, 55967, Note_on_c, 0, 81, 0
2, 55967, Note_on_c, 0, 74, 0
2, 56160, Note_on_c, 0, 73, 57
2, 56160, Note_on_c, 0, 76, 57
2, 56160, Note_on_c, 0, 81, 57
2, 56280, Note_on_c, 0, 81, 0
2, 56280, Note_on_c, 0, 76, 0
2, 56280, Note_on_c, 0, 73, 0
2, 56280, Note_on_c, 0, 73, 57
2, 56280, Note_on_c, 0, 76, 57
2, 56280, Note_on_c, 0, 81, 57
2, 56400, Note_on_c, 0, 81, 0
2, 56400, Note_on_c, 0, 76, 0
2, 56400, Note_on_c, 0, 73, 0
2, 56400, Note_on_c, 0, 73, 57
2, 56400, Note_on_c, 0, 76, 57
2, 56400, Note_on_c, 0, 81, 57
2, 56447, Note_on_c, 0, 81, 0
2, 56447, Note_on_c, 0, 76, 0
2, 56447, Note_on_c, 0, 73, 0
2, 56640, Note_on_c, 0, 74, 57
2, 56640, Note_on_c, 0, 77, 57
2, 56640, Note_on_c, 0, 81, 57
2, 56760, Note_on_c, 0, 81, 0
2, 56760, Note_on_c, 0, 77, 0
2, 56760, Note_on_c, 0, 74, 0
2, 56760, Note_on_c, 0, 74, 57
2, 56760, Note_on_c, 0, 77, 57
2, 56760, Note_on_c, 0, 81, 57
2, 56880, Note_on_c, 0, 81, 0
2, 56880, Note_on_c, 0, 77, 0
2, 56880, Note_on_c, 0, 74, 0
2, 56880, Note_on_c, 0, 69, 57
2, 56880, Note_on_c, 0, 74, 57
2, 56880, Note_on_c, 0, 77, 57
2, 57000, Note_on_c, 0, 77, 0
2, 57000, Note_on_c, 0, 74, 0
2, 57000, Note_on_c, 0, 69, 0
2, 57000, Note_on_c, 0, 69, 57
2, 57000, Note_on_c, 0, 74, 57
2, 57000, Note_on_c, 0, 77, 57
2, 57120, Note_on_c, 0, 77, 0
2, 57120, Note_on_c, 0, 74, 0
2, 57120, Note_on_c, 0, 69, 0
2, 57120, Note_on_c, 0, 65, 57
2, 57120, Note_on_c, 0, 69, 57
2, 57120, Note_on_c, 0, 74, 57
2, 57240, Note_on_c, 0, 74, 0
2, 57240, Note_on_c, 0, 69, 0
2, 57240, Note_on_c, 0, 65, 0
2, 57240, Note_on_c, 0, 65, 57
2, 57240, Note_on_c, 0, 69, 57
2, 57240, Note_on_c, 0, 74, 57
2, 57360, Note_on_c, 0, 74, 0
2, 57360, Note_on_c, 0, 69, 0
2, 57360, Note_on_c, 0, 65, 0
2, 57360, Note_on_c, 0, 62, 44
2, 57360, Note_on_c, 0, 65, 44
2, 57360, Note_on_c, 0, 69, 44
2, 57480, Note_on_c, 0, 69, 0
2, 57480, Note_on_c, 0, 65, 0
2, 57480, Note_on_c, 0, 62, 0
2, 57480, Note_on_c, 0, 62, 44
2, 57480, Note_on_c, 0, 65, 44
2, 57480, Note_on_c, 0, 69, 44
2, 57600, Note_on_c, 0, 69, 0
2, 57600, Note_on_c, 0, 65, 0
2, 57600, Note_on_c, 0, 62, 0
2, 57600, Note_on_c, 0, 60, 44
2, 57600, Note_on_c, 0, 65, 44
2, 57600, Note_on_c, 0, 69, 44
2, 58560, Note_on_c, 0, 65, 0
2, 58560, Note_on_c, 0, 64, 44
2, 59520, Note_on_c, 0, 64, 0
2, 59520, Note_on_c, 0, 60, 0
2, 59520, Note_on_c, 0, 59, 44
2, 59520, Note_on_c, 0, 62, 44
2, 60480, Note_on_c, 0, 62, 0
2, 60480, Note_on_c, 0, 59, 0
2, 60480, Note_on_c, 0, 69, 0
2, 60480, Note_on_c, 0, 60, 44
2, 60480, Note_on_c, 0, 64, 44
2, 60480, Note_on_c, 0, 69, 44
2, 60576, Note_on_c, 0, 69, 0
2, 60576, Note_on_c, 0, 64, 0
2, 60576, Note_on_c, 0, 60, 0
2, 60960, Note_on_c, 0, 57, 44
2, 60960, Note_on_c, 0, 64, 44
2, 61007, Note_on_c, 0, 64, 0
2, 61007, Note_on_c, 0, 57, 0
2, 61320, Note_on_c, 0, 57, 44
2, 61320, Note_on_c, 0, 64, 44
2, 61320, Note_on_c, 0, 66, 44
2, 61343, Note_on_c, 0, 66, 0
2, 61343, Note_on_c, 0, 64, 0
2, 61343, Note_on_c, 0, 57, 0
2, 61440, Note_on_c, 0, 59, 44
2, 61440, Note_on_c, 0, 64, 44
2, 61440, Note_on_c, 0, 68, 44
2, 61487, Note_on_c, 0, 68, 0
2, 61487, Note_on_c, 0, 64, 0
2, 61487, Note_on_c, 0, 59, 0
2, 61680, Note_on_c, 0, 59, 44
2, 61680, Note_on_c, 0, 64, 44
2, 61680, Note_on_c, 0, 71, 44
2, 61727, Note_on_c, 0, 71, 0
2, 61727, Note_on_c, 0, 64, 0
2, 61727, Note_on_c, 0, 59, 0
2, 61920, Note_on_c, 0, 60, 44
2, 61920, Note_on_c, 0, 64, 44
2, 61920, Note_on_c, 0, 69, 44
2, 62016, Note_on_c, 0, 69, 0
2, 62016, Note_on_c, 0, 64, 0
2, 62016, Note_on_c, 0, 60, 0
2, 62400, Note_on_c, 0, 60, 44
2, 62400, Note_on_c, 0, 64, 44
2, 62400, Note_on_c, 0, 69, 44
2, 62496, Note_on_c, 0, 69, 0
2, 62496, Note_on_c, 0, 64, 0
2, 62496, Note_on_c, 0, 60, 0
2, 62880, Note_on_c, 0, 57, 44
2, 62880, Note_on_c, 0, 64, 44
2, 62927, Note_on_c, 0, 64, 0
2, 62927, Note_on_c, 0, 57, 0
2, 63240, Note_on_c, 0, 57, 44
2, 63240, Note_on_c, 0, 64, 44
2, 63240, Note_on_c, 0, 66, 44
2, 63263, Note_on_c, 0, 66, 0
2, 63263, Note_on_c, 0, 64, 0
2, 63263, Note_on_c, 0, 57, 0
2, 63360, Note_on_c, 0, 59, 44
2, 63360, Note_on_c, 0, 64, 44
2, 63360, Note_on_c, 0, 68, 44
2, 63407, Note_on_c, 0, 68, 0
2, 63407, Note_on_c, 0, 64, 0
2, 63407, Note_on_c, 0, 59, 0
2, 63600, Note_on_c, 0, 59, 44
2, 63600, Note_on_c, 0, 64, 44
2, 63600, Note_on_c, 0, 71, 44
2, 63647, Note_on_c, 0, 71, 0
2, 63647, Note_on_c, 0, 64, 0
2, 63647, Note_on_c, 0, 59, 0
2, 63840, Note_on_c, 0, 60, 44
2, 63840, Note_on_c, 0, 64, 44
2, 63840, Note_on_c, 0, 69, 44
2, 63936, Note_on_c, 0, 69, 0
2, 63936, Note_on_c, 0, 64, 0
2, 63936, Note_on_c, 0, 60, 0
2, 64800, Note_on_c, 0, 57, 44
2, 64800, Note_on_c, 0, 60, 44
2, 64800, Note_on_c, 0, 64, 44
2, 64896, Note_on_c, 0, 64, 0
2, 64896, Note_on_c, 0, 60, 0
2, 64896, Note_on_c, 0, 57, 0
2, 65760, Note_on_c, 0, 52, 44
2, 65760, Note_on_c, 0, 57, 44
2, 65760, Note_on_c, 0, 60, 44
2, 65856, Note_on_c, 0, 60, 0
2, 65856, Note_on_c, 0, 57, 0
2, 65856, Note_on_c, 0, 52, 0
2, 66240, Control_c, 0, 64, 127
2, 66720, Control_c, 0, 64, 0
2, 66720, End_track
3, 0, Start_track
3, 0, Title_t, "Grand Piano"
3, 0, Program_c, 0, 0
3, 0, Control_c, 0, 7, 115
3, 0, Control_c, 0, 10, 79
3, 4800, Note_on_c, 0, 64, 54
3, 4800, Note_on_c, 0, 69, 54
3, 5520, Note_on_c, 0, 69, 0
3, 5520, Note_on_c, 0, 64, 0
3, 5520, Note_on_c, 0, 68, 67
3, 5760, Note_on_c, 0, 68, 0
3, 7200, Control_c, 0, 64, 127
3, 7200, Note_on_c, 0, 37, 80
3, 7260, Note_on_c, 0, 37, 0
3, 7260, Note_on_c, 0, 41, 80
3, 7320, Note_on_c, 0, 41, 0
3, 7320, Note_on_c, 0, 44, 80
3, 7380, Note_on_c, 0, 44, 0
3, 7380, Note_on_c, 0, 49, 80
3, 7440, Note_on_c, 0, 49, 0
3, 7440, Note_on_c, 0, 53, 80
3, 7500, Note_on_c, 0, 53, 0
3, 7500, Note_on_c, 0, 56, 80
3, 7560, Note_on_c, 0, 56, 0
3, 7560, Note_on_c, 0, 61, 80
3, 7620, Note_on_c, 0, 61, 0
3, 7620, Control_c, 0, 64, 0
3, 7620, Note_on_c, 0, 65, 80
3, 7680, Note_on_c, 0, 65, 0
3, 7680, Control_c, 0, 64, 127
3, 7680, Note_on_c, 0, 49, 80
3, 7740, Note_on_c, 0, 49, 0
3, 7740, Note_on_c, 0, 53, 80
3, 7800, Note_on_c, 0, 53, 0
3, 7800, Note_on_c, 0, 56, 80
3, 7860, Note_on_c, 0, 56, 0
3, 7860, Note_on_c, 0, 61, 80
3, 7920, Note_on_c, 0, 61, 0
3, 7920, Note_on_c, 0, 65, 80
3, 7980, Note_on_c, 0, 65, 0
3, 7980, Note_on_c, 0, 68, 80
3, 8040, Note_on_c, 0, 68, 0
3, 8040, Note_on_c, 0, 73, 80
3, 8100, Note_on_c, 0, 73, 0
3, 8100, Control_c, 0, 64, 0
3, 8100, Note_on_c, 0, 77, 80
3, 8160, Note_on_c, 0, 77, 0
3, 8160, Control_c, 0, 64, 127
3, 8160, Note_on_c, 0, 61, 80
3, 8220, Note_on_c, 0, 61, 0
3, 8220, Note_on_c, 0, 65, 80
3, 8280, Note_on_c, 0, 65, 0
3, 8280, Note_on_c, 0, 68, 80
3, 8340, Note_on_c, 0, 68, 0
3, 8340, Note_on_c, 0, 73, 80
3, 8400, Note_on_c, 0, 73, 0
3, 8400, Note_on_c, 0, 77, 80
3, 8460, Note_on_c, 0, 77, 0
3, 8460, Note_on_c, 0, 80, 80
3, 8520, Note_on_c, 0, 80, 0
3, 8520, Note_on_c, 0, 85, 80
3, 8580, Note_on_c, 0, 85, 0
3, 8580, Control_c, 0, 64, 0
3, 8580, Note_on_c, 0, 89, 80
3, 8640, Note_on_c, 0, 89, 0
3, 8640, Control_c, 0, 64, 127
3, 8640, Note_on_c, 0, 73, 80
3, 8679, Note_on_c, 0, 73, 0
3, 8679, Note_on_c, 0, 77, 80
3, 8720, Note_on_c, 0, 77, 0
3, 8720, Note_on_c, 0, 80, 80
3, 8760, Note_on_c, 0, 80, 0
3, 8760, Note_on_c, 0, 85, 80
3, 8799, Note_on_c, 0, 85, 0
3, 8799, Note_on_c, 0, 89, 80
3, 8840, Note_on_c, 0, 89, 0
3, 8840, Control_c, 0, 64, 0
3, 8840, Note_on_c, 0, 92, 80
3, 8880, Note_on_c, 0, 92, 0
3, 8880, Control_c, 0, 64, 127
3, 8880, Note_on_c, 0, 68, 80
3, 8919, Note_on_c, 0, 68, 0
3, 8919, Note_on_c, 0, 73, 80
3, 8960, Note_on_c, 0, 73, 0
3, 8960, Note_on_c, 0, 77, 80
3, 9000, Note_on_c, 0, 77, 0
3, 9000, Note_on_c, 0, 80, 80
3, 9039, Note_on_c, 0, 80, 0
3, 9039, Note_on_c, 0, 85, 80
3, 9080, Note_on_c, 0, 85, 0
3, 9080, Control_c, 0, 64, 0
3, 9080, Note_on_c, 0, 89, 80
3, 9120, Note_on_c, 0, 89, 0
3, 9120, Control_c, 0, 64, 127
3, 9120, Note_on_c, 0, 65, 80
3, 9159, Note_on_c, 0, 65, 0
3, 9159, Note_on_c, 0, 68, 80
3, 9200, Note_on_c, 0, 68, 0
3, 9200, Note_on_c, 0, 73, 80
3, 9240, Note_on_c, 0, 73, 0
3, 9240, Note_on_c, 0, 77, 80
3, 9279, Note_on_c, 0, 77, 0
3, 9279, Note_on_c, 0, 80, 80
3, 9320, Note_on_c, 0, 80, 0
3, 9320, Control_c, 0, 64, 0
3, 9320, Note_on_c, 0, 85, 80
3, 9360, Note_on_c, 0, 85, 0
3, 9360, Control_c, 0, 64, 127
3, 9360, Note_on_c, 0, 61, 80
3, 9399, Note_on_c, 0, 61, 0
3, 9399, Note_on_c, 0, 65, 80
3, 9440, Note_on_c, 0, 65, 0
3, 9440, Note_on_c, 0, 68, 80
3, 9480, Note_on_c, 0, 68, 0
3, 9480, Note_on_c, 0, 73, 80
3, 9519, Note_on_c, 0, 73, 0
3, 9519, Note_on_c, 0, 77, 80
3, 9560, Note_on_c, 0, 77, 0
3, 9560, Control_c, 0, 64, 0
3, 9560, Note_on_c, 0, 80, 80
3, 9600, Note_on_c, 0, 80, 0
3, 11760, Control_c, 0, 64, 127
3, 11760, Note_on_c, 0, 37, 80
3, 11820, Note_on_c, 0, 37, 0
3, 11820, Note_on_c, 0, 41, 80
3, 11880, Note_on_c, 0, 41, 0
3, 11880, Note_on_c, 0, 44, 80
3, 11940, Note_on_c, 0, 44, 0
3, 11940, Note_on_c, 0, 49, 80
3, 12000, Note_on_c, 0, 49, 0
3, 12000, Note_on_c, 0, 53, 80
3, 12060, Note_on_c, 0, 53, 0
3, 12060, Note_on_c, 0, 56, 80
3, 12120, Note_on_c, 0, 56, 0
3, 12120, Note_on_c, 0, 61, 80
3, 12180, Note_on_c, 0, 61, 0
3, 12180, Note_on_c, 0, 65, 80
3, 12240, Note_on_c, 0, 65, 0
3, 12240, Note_on_c, 0, 68, 80
3, 12300, Note_on_c, 0, 68, 0
3, 12300, Note_on_c, 0, 73, 80
3, 12360, Note_on_c, 0, 73, 0
3, 12360, Note_on_c, 0, 77, 80
3, 12420, Note_on_c, 0, 77, 0
3, 12420, Note_on_c, 0, 80, 80
3, 12480, Note_on_c, 0, 80, 0
3, 12480, Note_on_c, 0, 85, 80
3, 12540, Note_on_c, 0, 85, 0
3, 12540, Note_on_c, 0, 89, 80
3, 12600, Note_on_c, 0, 89, 0
3, 12600, Note_on_c, 0, 92, 80
3, 12660, Note_on_c, 0, 92, 0
3, 12660, Note_on_c, 0, 97, 80
3, 13140, Note_on_c, 0, 97, 0
3, 13140, Control_c, 0, 64, 0
3, 19200, Note_on_c, 0, 68, 54
3, 19200, Note_on_c, 0, 73, 54
3, 19920, Note_on_c, 0, 73, 0
3, 19920, Note_on_c, 0, 68, 0
3, 19920, Note_on_c, 0, 68, 67
3, 19920, Note_on_c, 0, 72, 67
3, 20160, Note_on_c, 0, 72, 0
3, 20160, Note_on_c, 0, 68, 0
3, 21600, Control_c, 0, 64, 127
3, 21600, Note_on_c, 0, 41, 80
3, 21660, Note_on_c, 0, 41, 0
3, 21660, Note_on_c, 0, 45, 80
3, 21720, Note_on_c, 0, 45, 0
3, 21720, Note_on_c, 0, 48, 80
3, 21780, Note_on_c, 0, 48, 0
3, 21780, Note_on_c, 0, 53, 80
3, 21840, Note_on_c, 0, 53, 0
3, 21840, Note_on_c, 0, 57, 80
3, 21900, Note_on_c, 0, 57, 0
3, 21900, Note_on_c, 0, 60, 80
3, 21960, Note_on_c, 0, 60, 0
3, 21960, Note_on_c, 0, 65, 80
3, 22020, Note_on_c, 0, 65, 0
3, 22020, Note_on_c, 0, 69, 80
3, 22080, Note_on_c, 0, 69, 0
3, 22080, Control_c, 0, 64, 127
3, 22080, Note_on_c, 0, 53, 80
3, 22140, Note_on_c, 0, 53, 0
3, 22140, Note_on_c, 0, 57, 80
3, 22200, Note_on_c, 0, 57, 0
3, 22200, Note_on_c, 0, 60, 80
3, 22260, Note_on_c, 0, 60, 0
3, 22260, Note_on_c, 0, 65, 80
3, 22320, Note_on_c, 0, 65, 0
3, 22320, Note_on_c, 0, 69, 80
3, 22380, Note_on_c, 0, 69, 0
3, 22380, Note_on_c, 0, 72, 80
3, 22440, Note_on_c, 0, 72, 0
3, 22440, Note_on_c, 0, 77, 80
3, 22500, Note_on_c, 0, 77, 0
3, 22500, Control_c, 0, 64, 0
3, 22500, Note_on_c, 0, 81, 80
3, 22560, Note_on_c, 0, 81, 0
3, 22560, Control_c, 0, 64, 127
3, 22560, Note_on_c, 0, 65, 80
3, 22620, Note_on_c, 0, 65, 0
3, 22620, Note_on_c, 0, 69, 80
3, 22680, Note_on_c, 0, 69, 0
3, 22680, Note_on_c, 0, 72, 80
3, 22740, Note_on_c, 0, 72, 0
3, 22740, Note_on_c, 0, 77, 80
3, 22800, Note_on_c, 0, 77, 0
3, 22800, Note_on_c, 0, 81, 80
3, 22860, Note_on_c, 0, 81, 0
3, 22860, Note_on_c, 0, 84, 80
3, 22920, Note_on_c, 0, 84, 0
3, 22920, Note_on_c, 0, 89, 80
3, 22980, Note_on_c, 0, 89, 0
3, 22980, Control_c, 0, 64, 0
3, 22980, Note_on_c, 0, 93, 80
3, 23040, Note_on_c, 0, 93, 0
3, 23040, Control_c, 0, 64, 127
3, 23040, Note_on_c, 0, 77, 80
3, 23079, Note_on_c, 0, 77, 0
3, 23079, Note_on_c, 0, 81, 80
3, 23120, Note_on_c, 0, 81, 0
3, 23120, Note_on_c, 0, 84, 80
3, 23160, Note_on_c, 0, 84, 0
3, 23160, Note_on_c, 0, 89, 80
3, 23199, Note_on_c, 0, 89, 0
3, 23199, Note_on_c, 0, 93, 80
3, 23240, Note_on_c, 0, 93, 0
3, 23240, Control_c, 0, 64, 0
3, 23240, Note_on_c, 0, 96, 80
3, 23280, Note_on_c, 0, 96, 0
3, 23280, Control_c, 0, 64, 127
3, 23280, Note_on_c, 0, 72, 80
3, 23319, Note_on_c, 0, 72, 0
3, 23319, Note_on_c, 0, 77, 80
3, 23360, Note_on_c, 0, 77, 0
3, 23360, Note_on_c, 0, 81, 80
3, 23400, Note_on_c, 0, 81, 0
3, 23400, Note_on_c, 0, 84, 80
3, 23439, Note_on_c, 0, 84, 0
3, 23439, Note_on_c, 0, 89, 80
3, 23480, Note_on_c, 0, 89, 0
3, 23480, Control_c, 0, 64, 0
3, 23480, Note_on_c, 0, 93, 80
3, 23520, Note_on_c, 0, 93, 0
3, 23520, Control_c, 0, 64, 127
3, 23520, Note_on_c, 0, 69, 80
3, 23559, Note_on_c, 0, 69, 0
3, 23559, Note_on_c, 0, 72, 80
3, 23600, Note_on_c, 0, 72, 0
3, 23600, Note_on_c, 0, 77, 80
3, 23640, Note_on_c, 0, 77, 0
3, 23640, Note_on_c, 0, 81, 80
3, 23679, Note_on_c, 0, 81, 0
3, 23679, Note_on_c, 0, 84, 80
3, 23720, Note_on_c, 0, 84, 0
3, 23720, Control_c, 0, 64, 0
3, 23720, Note_on_c, 0, 89, 80
3, 23760, Note_on_c, 0, 89, 0
3, 23760, Control_c, 0, 64, 127
3, 23760, Note_on_c, 0, 65, 80
3, 23799, Note_on_c, 0, 65, 0
3, 23799, Note_on_c, 0, 69, 80
3, 23840, Note_on_c, 0, 69, 0
3, 23840, Note_on_c, 0, 72, 80
3, 23880, Note_on_c, 0, 72, 0
3, 23880, Note_on_c, 0, 77, 80
3, 23919, Note_on_c, 0, 77, 0
3, 23919, Note_on_c, 0, 81, 80
3, 23960, Note_on_c, 0, 81, 0
3, 23960, Control_c, 0, 64, 0
3, 23960, Note_on_c, 0, 84, 80
3, 24000, Note_on_c, 0, 84, 0
3, 26160, Control_c, 0, 64, 127
3, 26160, Note_on_c, 0, 29, 80
3, 26220, Note_on_c, 0, 29, 0
3, 26220, Note_on_c, 0, 33, 80
3, 26280, Note_on_c, 0, 33, 0
3, 26280, Note_on_c, 0, 36, 80
3, 26340, Note_on_c, 0, 36, 0
3, 26340, Note_on_c, 0, 41, 80
3, 26400, Note_on_c, 0, 41, 0
3, 26400, Note_on_c, 0, 45, 80
3, 26460, Note_on_c, 0, 45, 0
3, 26460, Note_on_c, 0, 48, 80
3, 26520, Note_on_c, 0, 48, 0
3, 26520, Note_on_c, 0, 53, 80
3, 26580, Note_on_c, 0, 53, 0
3, 26580, Note_on_c, 0, 57, 80
3, 26640, Note_on_c, 0, 57, 0
3, 26640, Note_on_c, 0, 60, 80
3, 26700, Note_on_c, 0, 60, 0
3, 26700, Note_on_c, 0, 65, 80
3, 26760, Note_on_c, 0, 65, 0
3, 26760, Note_on_c, 0, 69, 80
3, 26820, Note_on_c, 0, 69, 0
3, 26820, Note_on_c, 0, 72, 80
3, 26880, Note_on_c, 0, 72, 0
3, 26880, Note_on_c, 0, 77, 80
3, 26940, Note_on_c, 0, 77, 0
3, 26940, Note_on_c, 0, 81, 80
3, 27000, Note_on_c, 0, 81, 0
3, 27000, Note_on_c, 0, 84, 80
3, 27060, Note_on_c, 0, 84, 0
3, 27060, Note_on_c, 0, 89, 80
3, 27120, Note_on_c, 0, 89, 0
3, 27120, Note_on_c, 0, 93, 80
3, 27180, Note_on_c, 0, 93, 0
3, 27180, Note_on_c, 0, 96, 80
3, 27240, Note_on_c, 0, 96, 0
3, 27240, Note_on_c, 0, 101, 80
3, 27720, Note_on_c, 0, 101, 0
3, 35520, Note_on_c, 0, 76, 54
3, 35520, Note_on_c, 0, 80, 54
3, 35640, Note_on_c, 0, 80, 0
3, 35640, Note_on_c, 0, 76, 0
3, 35640, Note_on_c, 0, 76, 54
3, 35640, Note_on_c, 0, 80, 54
3, 35760, Note_on_c, 0, 80, 0
3, 35760, Note_on_c, 0, 76, 0
3, 35880, Note_on_c, 0, 76, 54
3, 35880, Note_on_c, 0, 80, 54
3, 36000, Note_on_c, 0, 80, 0
3, 36000, Note_on_c, 0, 76, 0
3, 36000, Note_on_c, 0, 76, 54
3, 36000, Note_on_c, 0, 80, 54
3, 36120, Note_on_c, 0, 80, 0
3, 36120, Note_on_c, 0, 76, 0
3, 36120, Note_on_c, 0, 76, 54
3, 36120, Note_on_c, 0, 80, 54
3, 36240, Note_on_c, 0, 80, 0
3, 36240, Note_on_c, 0, 76, 0
3, 36360, Note_on_c, 0, 76, 54
3, 36360, Note_on_c, 0, 80, 54
3, 36480, Note_on_c, 0, 80, 0
3, 36480, Note_on_c, 0, 76, 0
3, 36480, Note_on_c, 0, 69, 54
3, 36480, Note_on_c, 0, 73, 54
3, 37440, Note_on_c, 0, 73, 0
3, 37440, Note_on_c, 0, 69, 0
3, 37440, Note_on_c, 0, 68, 54
3, 37440, Note_on_c, 0, 75, 54
3, 39360, Note_on_c, 0, 75, 0
3, 39360, Note_on_c, 0, 68, 0
3, 43680, Control_c, 0, 64, 127
3, 43680, Note_on_c, 0, 40, 80
3, 43740, Note_on_c, 0, 40, 0
3, 43740, Note_on_c, 0, 44, 80
3, 43800, Note_on_c, 0, 44, 0
3, 43800, Note_on_c, 0, 47, 80
3, 43860, Note_on_c, 0, 47, 0
3, 43860, Note_on_c, 0, 52, 80
3, 43920, Note_on_c, 0, 52, 0
3, 43920, Note_on_c, 0, 56, 80
3, 43980, Note_on_c, 0, 56, 0
3, 43980, Note_on_c, 0, 59, 80
3, 44040, Note_on_c, 0, 59, 0
3, 44040, Note_on_c, 0, 64, 80
3, 44100, Note_on_c, 0, 64, 0
3, 44100, Control_c, 0, 64, 0
3, 44100, Note_on_c, 0, 68, 80
3, 44160, Note_on_c, 0, 68, 0
3, 44160, Control_c, 0, 64, 127
3, 44160, Note_on_c, 0, 52, 80
3, 44220, Note_on_c, 0, 52, 0
3, 44220, Note_on_c, 0, 56, 80
3, 44280, Note_on_c, 0, 56, 0
3, 44280, Note_on_c, 0, 59, 80
3, 44340, Note_on_c, 0, 59, 0
3, 44340, Note_on_c, 0, 64, 80
3, 44400, Note_on_c, 0, 64, 0
3, 44400, Note_on_c, 0, 68, 80
3, 44460, Note_on_c, 0, 68, 0
3, 44460, Note_on_c, 0, 71, 80
3, 44520, Note_on_c, 0, 71, 0
3, 44520, Note_on_c, 0, 76, 80
3, 44580, Note_on_c, 0, 76, 0
3, 44580, Control_c, 0, 64, 0
3, 44580, Note_on_c, 0, 80, 80
3, 44640, Note_on_c, 0, 80, 0
3, 44640, Control_c, 0, 64, 127
3, 44640, Note_on_c, 0, 64, 80
3, 44700, Note_on_c, 0, 64, 0
3, 44700, Note_on_c, 0, 68, 80
3, 44760, Note_on_c, 0, 68, 0
3, 44760, Note_on_c, 0, 71, 80
3, 44820, Note_on_c, 0, 71, 0
3, 44820, Note_on_c, 0, 76, 80
3, 44880, Note_on_c, 0, 76, 0
3, 44880, Note_on_c, 0, 80, 80
3, 44940, Note_on_c, 0, 80, 0
3, 44940, Note_on_c, 0, 83, 80
3, 45000, Note_on_c, 0, 83, 0
3, 45000, Note_on_c, 0, 88, 80
3, 45060, Note_on_c, 0, 88, 0
3, 45060, Control_c, 0, 64, 0
3, 45060, Note_on_c, 0, 92, 80
3, 45120, Note_on_c, 0, 92, 0
3, 48480, Control_c, 0, 64, 127
3, 48480, Note_on_c, 0, 40, 80
3, 48519, Note_on_c, 0, 40, 0
3, 48519, Note_on_c, 0, 44, 80
3, 48560, Note_on_c, 0, 44, 0
3, 48560, Note_on_c, 0, 47, 80
3, 48600, Note_on_c, 0, 47, 0
3, 48600, Note_on_c, 0, 52, 80
3, 48639, Note_on_c, 0, 52, 0
3, 48639, Note_on_c, 0, 56, 80
3, 48680, Note_on_c, 0, 56, 0
3, 48680, Note_on_c, 0, 59, 80
3, 48720, Note_on_c, 0, 59, 0
3, 48720, Note_on_c, 0, 64, 80
3, 48759, Note_on_c, 0, 64, 0
3, 48759, Note_on_c, 0, 68, 80
3, 48800, Note_on_c, 0, 68, 0
3, 48800, Note_on_c, 0, 71, 80
3, 48840, Note_on_c, 0, 71, 0
3, 48840, Note_on_c, 0, 76, 80
3, 48879, Note_on_c, 0, 76, 0
3, 48879, Note_on_c, 0, 80, 80
3, 48920, Note_on_c, 0, 80, 0
3, 48920, Control_c, 0, 64, 0
3, 48920, Note_on_c, 0, 83, 80
3, 48960, Note_on_c, 0, 83, 0
3, 48960, End_track
4, 0, Start_track
4, 0, Title_t, "Grand Piano"
4, 0, Program_c, 0, 0
4, 0, Control_c, 0, 7, 115
4, 0, Control_c, 0, 10, 41
4, 0, Note_on_c, 0, 45, 44
4, 480, Note_on_c, 0, 45, 0
4, 480, Note_on_c, 0, 49, 44
4, 720, Note_on_c, 0, 49, 0
4, 840, Note_on_c, 0, 49, 44
4, 960, Note_on_c, 0, 49, 0
4, 960, Note_on_c, 0, 52, 44
4, 1007, Note_on_c, 0, 52, 0
4, 1200, Note_on_c, 0, 56, 44
4, 1247, Note_on_c, 0, 56, 0
4, 1440, Note_on_c, 0, 57, 44
4, 1536, Note_on_c, 0, 57, 0
4, 1920, Note_on_c, 0, 45, 44
4, 2400, Note_on_c, 0, 45, 0
4, 2400, Note_on_c, 0, 49, 44
4, 2640, Note_on_c, 0, 49, 0
4, 2760, Note_on_c, 0, 49, 44
4, 2880, Note_on_c, 0, 49, 0
4, 2880, Note_on_c, 0, 52, 44
4, 2927, Note_on_c, 0, 52, 0
4, 3120, Note_on_c, 0, 56, 44
4, 3167, Note_on_c, 0, 56, 0
4, 3360, Note_on_c, 0, 57, 44
4, 3407, Note_on_c, 0, 57, 0
4, 3600, Note_on_c, 0, 52, 44
4, 3840, Note_on_c, 0, 52, 0
4, 3840, Note_on_c, 0, 57, 44
4, 4080, Note_on_c, 0, 57, 0
4, 4080, Note_on_c, 0, 56, 44
4, 4320, Note_on_c, 0, 56, 0
4, 4320, Note_on_c, 0, 54, 44
4, 4560, Note_on_c, 0, 54, 0
4, 4560, Note_on_c, 0, 56, 44
4, 4800, Note_on_c, 0, 56, 0
4, 4800, Note_on_c, 0, 57, 44
4, 5280, Note_on_c, 0, 57, 0
4, 5280, Note_on_c, 0, 61, 44
4, 5520, Note_on_c, 0, 61, 0
4, 5520, Note_on_c, 0, 64, 44
4, 5760, Note_on_c, 0, 64, 0
4, 5760, Note_on_c, 0, 69, 44
4, 6000, Note_on_c, 0, 69, 0
4, 6000, Note_on_c, 0, 68, 44
4, 6240, Note_on_c, 0, 68, 0
4, 6240, Note_on_c, 0, 66, 44
4, 6480, Note_on_c, 0, 66, 0
4, 6480, Note_on_c, 0, 59, 44
4, 6480, Note_on_c, 0, 66, 44
4, 6720, Note_on_c, 0, 66, 0
4, 6720, Note_on_c, 0, 59, 0
4, 6720, Note_on_c, 0, 61, 44
4, 6720, Note_on_c, 0, 65, 44
4, 7200, Note_on_c, 0, 65, 0
4, 7200, Note_on_c, 0, 61, 0
4, 9840, Note_on_c, 0, 49, 44
4, 9840, Note_on_c, 0, 53, 44
4, 9840, Note_on_c, 0, 56, 44
4, 10080, Note_on_c, 0, 56, 0
4, 10080, Note_on_c, 0, 53, 0
4, 10080, Note_on_c, 0, 49, 0
4, 10080, Note_on_c, 0, 53, 44
4, 10080, Note_on_c, 0, 56, 44
4, 10080, Note_on_c, 0, 61, 44
4, 10320, Note_on_c, 0, 61, 0
4, 10320, Note_on_c, 0, 56, 0
4, 10320, Note_on_c, 0, 53, 0
4, 10320, Note_on_c, 0, 56, 44
4, 10320, Note_on_c, 0, 61, 44
4, 10320, Note_on_c, 0, 65, 44
4, 10560, Note_on_c, 0, 65, 0
4, 10560, Note_on_c, 0, 61, 0
4, 10560, Note_on_c, 0, 56, 0
4, 10560, Note_on_c, 0, 61, 44
4, 10560, Note_on_c, 0, 65, 44
4, 10800, Note_on_c, 0, 65, 0
4, 10800, Note_on_c, 0, 61, 0
4, 10800, Note_on_c, 0, 44, 44
4, 10800, Note_on_c, 0, 49, 44
4, 10800, Note_on_c, 0, 53, 44
4, 11040, Note_on_c, 0, 53, 0
4, 11040, Note_on_c, 0, 49, 0
4, 11040, Note_on_c, 0, 44, 0
4, 11040, Note_on_c, 0, 49, 44
4, 11040, Note_on_c, 0, 53, 44
4, 11040, Note_on_c, 0, 56, 44
4, 11280, Note_on_c, 0, 56, 0
4, 11280, Note_on_c, 0, 53, 0
4, 11280, Note_on_c, 0, 49, 0
4, 11280, Note_on_c, 0, 53, 44
4, 11280, Note_on_c, 0, 56, 44
4, 11280, Note_on_c, 0, 61, 44
4, 11520, Note_on_c, 0, 61, 0
4, 11520, Note_on_c, 0, 56, 0
4, 11520, Note_on_c, 0, 53, 0
4, 14400, Note_on_c, 0, 49, 44
4, 14880, Note_on_c, 0, 49, 0
4, 14880, Note_on_c, 0, 53, 44
4, 15120, Note_on_c, 0, 53, 0
4, 15240, Note_on_c, 0, 53, 44
4, 15360, Note_on_c, 0, 53, 0
4, 15360, Note_on_c, 0, 56, 44
4, 15600, Note_on_c, 0, 56, 0
4, 15600, Note_on_c, 0, 60, 44
4, 15840, Note_on_c, 0, 60, 0
4, 15840, Note_on_c, 0, 61, 44
4, 16320, Note_on_c, 0, 61, 0
4, 16320, Note_on_c, 0, 49, 44
4, 16800, Note_on_c, 0, 49, 0
4, 16800, Note_on_c, 0, 53, 44
4, 17040, Note_on_c, 0, 53, 0
4, 17160, Note_on_c, 0, 53, 44
4, 17280, Note_on_c, 0, 53, 0
4, 17280, Note_on_c, 0, 56, 44
4, 17520, Note_on_c, 0, 56, 0
4, 17520, Note_on_c, 0, 60, 44
4, 17760, Note_on_c, 0, 60, 0
4, 17760, Note_on_c, 0, 61, 44
4, 18000, Note_on_c, 0, 61, 0
4, 18000, Note_on_c, 0, 56, 44
4, 18240, Note_on_c, 0, 56, 0
4, 18240, Note_on_c, 0, 61, 44
4, 18480, Note_on_c, 0, 61, 0
4, 18480, Note_on_c, 0, 60, 44
4, 18720, Note_on_c, 0, 60, 0
4, 18720, Note_on_c, 0, 58, 44
4, 18960, Note_on_c, 0, 58, 0
4, 18960, Note_on_c, 0, 60, 44
4, 19200, Note_on_c, 0, 60, 0
4, 19200, Note_on_c, 0, 61, 44
4, 19680, Note_on_c, 0, 61, 0
4, 19680, Note_on_c, 0, 65, 44
4, 19920, Note_on_c, 0, 65, 0
4, 19920, Note_on_c, 0, 68, 57
4, 20160, Note_on_c, 0, 68, 0
4, 20160, Note_on_c, 0, 73, 57
4, 20400, Note_on_c, 0, 73, 0
4, 20400, Note_on_c, 0, 72, 57
4, 20640, Note_on_c, 0, 72, 0
4, 20640, Note_on_c, 0, 70, 44
4, 20880, Note_on_c, 0, 70, 0
4, 20880, Note_on_c, 0, 63, 44
4, 20880, Note_on_c, 0, 70, 44
4, 21120, Note_on_c, 0, 70, 0
4, 21120, Note_on_c, 0, 63, 0
4, 21120, Note_on_c, 0, 65, 44
4, 21120, Note_on_c, 0, 69, 44
4, 21600, Note_on_c, 0, 69, 0
4, 21600, Note_on_c, 0, 65, 0
4, 24240, Note_on_c, 0, 53, 44
4, 24240, Note_on_c, 0, 57, 44
4, 24240, Note_on_c, 0, 60, 44
4, 24480, Note_on_c, 0, 60, 0
4, 24480, Note_on_c, 0, 57, 0
4, 24480, Note_on_c, 0, 53, 0
4, 24480, Note_on_c, 0, 57, 44
4, 24480, Note_on_c, 0, 60, 44
4, 24480, Note_on_c, 0, 65, 44
4, 24720, Note_on_c, 0, 65, 0
4, 24720, Note_on_c, 0, 60, 0
4, 24720, Note_on_c, 0, 57, 0
4, 24720, Note_on_c, 0, 60, 44
4, 24720, Note_on_c, 0, 65, 44
4, 24720, Note_on_c, 0, 69, 44
4, 24960, Note_on_c, 0, 69, 0
4, 24960, Note_on_c, 0, 65, 0
4, 24960, Note_on_c, 0, 60, 0
4, 24960, Note_on_c, 0, 65, 44
4, 24960, Note_on_c, 0, 69, 44
4, 25200, Note_on_c, 0, 69, 0
4, 25200, Note_on_c, 0, 65, 0
4, 25200, Note_on_c, 0, 48, 44
4, 25200, Note_on_c, 0, 53, 44
4, 25200, Note_on_c, 0, 57, 44
4, 25440, Note_on_c, 0, 57, 0
4, 25440, Note_on_c, 0, 53, 0
4, 25440, Note_on_c, 0, 48, 0
4, 25440, Note_on_c, 0, 53, 44
4, 25440, Note_on_c, 0, 57, 44
4, 25440, Note_on_c, 0, 60, 44
4, 25680, Note_on_c, 0, 60, 0
4, 25680, Note_on_c, 0, 57, 0
4, 25680, Note_on_c, 0, 53, 0
4, 25680, Note_on_c, 0, 57, 44
4, 25680, Note_on_c, 0, 60, 44
4, 25680, Note_on_c, 0, 65, 44
4, 25920, Note_on_c, 0, 65, 0
4, 25920, Note_on_c, 0, 60, 0
4, 25920, Note_on_c, 0, 57, 0
4, 25920, Note_on_c, 0, 60, 44
4, 25920, Note_on_c, 0, 65, 44
4, 26160, Note_on_c, 0, 65, 0
4, 26160, Note_on_c, 0, 60, 0
4, 28800, Note_on_c, 0, 37, 96
4, 28800, Note_on_c, 0, 49, 96
4, 29280, Note_on_c, 0, 49, 0
4, 29280, Note_on_c, 0, 37, 0
4, 29280, Note_on_c, 0, 37, 96
4, 29280, Note_on_c, 0, 49, 96
4, 29640, Note_on_c, 0, 49, 0
4, 29640, Note_on_c, 0, 37, 0
4, 29640, Note_on_c, 0, 36, 96
4, 29640, Note_on_c, 0, 48, 96
4, 29760, Note_on_c, 0, 48, 0
4, 29760, Note_on_c, 0, 36, 0
4, 29760, Note_on_c, 0, 34, 96
4, 29760, Note_on_c, 0, 46, 96
4, 30000, Note_on_c, 0, 46, 0
4, 30000, Note_on_c, 0, 34, 0
4, 30000, Note_on_c, 0, 34, 96
4, 30000, Note_on_c, 0, 46, 96
4, 30240, Note_on_c, 0, 46, 0
4, 30240, Note_on_c, 0, 34, 0
4, 30240, Note_on_c, 0, 35, 96
4, 30240, Note_on_c, 0, 47, 96
4, 30480, Note_on_c, 0, 47, 0
4, 30480, Note_on_c, 0, 35, 0
4, 30720, Note_on_c, 0, 71, 83
4, 30720, Note_on_c, 0, 74, 83
4, 30720, Note_on_c, 0, 77, 83
4, 31920, Note_on_c, 0, 77, 0
4, 31920, Note_on_c, 0, 74, 0
4, 31920, Note_on_c, 0, 71, 0
4, 31920, Note_on_c, 0, 71, 44
4, 31920, Note_on_c, 0, 74, 44
4, 31920, Note_on_c, 0, 77, 44
4, 32040, Note_on_c, 0, 77, 0
4, 32040, Note_on_c, 0, 74, 0
4, 32040, Note_on_c, 0, 71, 0
4, 32040, Note_on_c, 0, 71, 44
4, 32040, Note_on_c, 0, 74, 44
4, 32040, Note_on_c, 0, 77, 44
4, 32160, Note_on_c, 0, 77, 0
4, 32160, Note_on_c, 0, 74, 0
4, 32160, Note_on_c, 0, 71, 0
4, 32160, Note_on_c, 0, 72, 44
4, 32160, Note_on_c, 0, 75, 44
4, 32280, Note_on_c, 0, 75, 0
4, 32280, Note_on_c, 0, 72, 0
4, 32280, Note_on_c, 0, 72, 44
4, 32280, Note_on_c, 0, 75, 44
4, 32400, Note_on_c, 0, 75, 0
4, 32400, Note_on_c, 0, 72, 0
4, 32400, Note_on_c, 0, 68, 44
4, 32400, Note_on_c, 0, 72, 44
4, 32520, Note_on_c, 0, 72, 0
4, 32520, Note_on_c, 0, 68, 0
4, 32520, Note_on_c, 0, 68, 44
4, 32520, Note_on_c, 0, 72, 44
4, 32640, Note_on_c, 0, 72, 0
4, 32640, Note_on_c, 0, 68, 0
4, 32640, Note_on_c, 0, 72, 44
4, 32640, Note_on_c, 0, 75, 44
4, 32760, Note_on_c, 0, 75, 0
4, 32760, Note_on_c, 0, 72, 0
4, 32760, Note_on_c, 0, 72, 44
4, 32760, Note_on_c, 0, 75, 44
4, 32880, Note_on_c, 0, 75, 0
4, 32880, Note_on_c, 0, 72, 0
4, 32880, Note_on_c, 0, 72, 44
4, 32880, Note_on_c, 0, 75, 44
4, 32927, Note_on_c, 0, 75, 0
4, 32927, Note_on_c, 0, 72, 0
4, 33120, Note_on_c, 0, 69, 44
4, 33120, Note_on_c, 0, 75, 44
4, 33240, Note_on_c, 0, 75, 0
4, 33240, Note_on_c, 0, 69, 0
4, 33240, Note_on_c, 0, 69, 44
4, 33240, Note_on_c, 0, 75, 44
4, 33360, Note_on_c, 0, 75, 0
4, 33360, Note_on_c, 0, 69, 0
4, 33360, Note_on_c, 0, 69, 44
4, 33360, Note_on_c, 0, 75, 44
4, 33407, Note_on_c, 0, 75, 0
4, 33407, Note_on_c, 0, 69, 0
4, 33600, Note_on_c, 0, 70, 44
4, 33600, Note_on_c, 0, 73, 44
4, 33840, Note_on_c, 0, 73, 0
4, 33840, Note_on_c, 0, 70, 0
4, 33840, Note_on_c, 0, 69, 44
4, 33840, Note_on_c, 0, 72, 44
4, 33840, Note_on_c, 0, 75, 44
4, 33960, Note_on_c, 0, 75, 0
4, 33960, Note_on_c, 0, 72, 0
4, 33960, Note_on_c, 0, 69, 0
4, 33960, Note_on_c, 0, 69, 44
4, 33960, Note_on_c, 0, 72, 44
4, 33960, Note_on_c, 0, 75, 44
4, 34080, Note_on_c, 0, 75, 0
4, 34080, Note_on_c, 0, 72, 0
4, 34080, Note_on_c, 0, 69, 0
4, 34080, Note_on_c, 0, 70, 44
4, 34080, Note_on_c, 0, 73, 44
4, 34200, Note_on_c, 0, 73, 0
4, 34200, Note_on_c, 0, 70, 0
4, 34200, Note_on_c, 0, 70, 44
4, 34200, Note_on_c, 0, 73, 44
4, 34320, Note_on_c, 0, 73, 0
4, 34320, Note_on_c, 0, 70, 0
4, 34320, Note_on_c, 0, 66, 44
4, 34320, Note_on_c, 0, 70, 44
4, 34440, Note_on_c, 0, 70, 0
4, 34440, Note_on_c, 0, 66, 0
4, 34440, Note_on_c, 0, 66, 44
4, 34440, Note_on_c, 0, 70, 44
4, 34560, Note_on_c, 0, 70, 0
4, 34560, Note_on_c, 0, 66, 0
4, 34560, Note_on_c, 0, 70, 44
4, 34560, Note_on_c, 0, 73, 44
4, 34680, Note_on_c, 0, 73, 0
4, 34680, Note_on_c, 0, 70, 0
4, 34680, Note_on_c, 0, 70, 44
4, 34680, Note_on_c, 0, 73, 44
4, 34800, Note_on_c, 0, 73, 0
4, 34800, Note_on_c, 0, 70, 0
4, 34800, Note_on_c, 0, 70, 44
4, 34800, Note_on_c, 0, 73, 44
4, 34847, Note_on_c, 0, 73, 0
4, 34847, Note_on_c, 0, 70, 0
4, 35040, Note_on_c, 0, 67, 44
4, 35040, Note_on_c, 0, 73, 44
4, 35160, Note_on_c, 0, 73, 0
4, 35160, Note_on_c, 0, 67, 0
4, 35160, Note_on_c, 0, 67, 44
4, 35160, Note_on_c, 0, 73, 44
4, 35280, Note_on_c, 0, 73, 0
4, 35280, Note_on_c, 0, 67, 0
4, 35280, Note_on_c, 0, 67, 44
4, 35280, Note_on_c, 0, 73, 44
4, 35327, Note_on_c, 0, 73, 0
4, 35327, Note_on_c, 0, 67, 0
4, 35520, Note_on_c, 0, 68, 44
4, 35520, Note_on_c, 0, 71, 44
4, 35640, Note_on_c, 0, 71, 0
4, 35640, Note_on_c, 0, 68, 0
4, 35640, Note_on_c, 0, 68, 44
4, 35640, Note_on_c, 0, 71, 44
4, 35760, Note_on_c, 0, 71, 0
4, 35760, Note_on_c, 0, 68, 0
4, 35760, Note_on_c, 0, 68, 44
4, 35760, Note_on_c, 0, 71, 44
4, 35783, Note_on_c, 0, 71, 0
4, 35783, Note_on_c, 0, 68, 0
4, 35880, Note_on_c, 0, 68, 44
4, 35880, Note_on_c, 0, 71, 44
4, 36000, Note_on_c, 0, 71, 0
4, 36000, Note_on_c, 0, 68, 0
4, 36000, Note_on_c, 0, 66, 44
4, 36000, Note_on_c, 0, 71, 44
4, 36120, Note_on_c, 0, 71, 0
4, 36120, Note_on_c, 0, 66, 0
4, 36120, Note_on_c, 0, 66, 44
4, 36120, Note_on_c, 0, 71, 44
4, 36240, Note_on_c, 0, 71, 0
4, 36240, Note_on_c, 0, 66, 0
4, 36240, Note_on_c, 0, 66, 44
4, 36240, Note_on_c, 0, 71, 44
4, 36263, Note_on_c, 0, 71, 0
4, 36263, Note_on_c, 0, 66, 0
4, 36360, Note_on_c, 0, 66, 44
4, 36360, Note_on_c, 0, 71, 44
4, 36480, Note_on_c, 0, 71, 0
4, 36480, Note_on_c, 0, 66, 0
4, 36480, Note_on_c, 0, 64, 44
4, 36960, Note_on_c, 0, 64, 0
4, 36960, Note_on_c, 0, 63, 44
4, 37200, Note_on_c, 0, 63, 0
4, 37200, Note_on_c, 0, 61, 44
4, 37440, Note_on_c, 0, 61, 0
4, 37440, Note_on_c, 0, 60, 44
4, 39360, Note_on_c, 0, 60, 0
4, 39360, Note_on_c, 0, 49, 44
4, 39840, Note_on_c, 0, 49, 0
4, 39840, Note_on_c, 0, 52, 44
4, 40200, Note_on_c, 0, 52, 0
4, 40200, Note_on_c, 0, 52, 44
4, 40320, Note_on_c, 0, 52, 0
4, 40320, Note_on_c, 0, 56, 44
4, 40560, Note_on_c, 0, 56, 0
4, 40560, Note_on_c, 0, 60, 44
4, 40800, Note_on_c, 0, 60, 0
4, 40800, Note_on_c, 0, 61, 44
4, 41280, Note_on_c, 0, 61, 0
4, 41280, Note_on_c, 0, 49, 44
4, 41760, Note_on_c, 0, 49, 0
4, 41760, Note_on_c, 0, 52, 44
4, 42120, Note_on_c, 0, 52, 0
4, 42120, Note_on_c, 0, 52, 44
4, 42240, Note_on_c, 0, 52, 0
4, 42240, Note_on_c, 0, 56, 44
4, 42480, Note_on_c, 0, 56, 0
4, 42480, Note_on_c, 0, 60, 44
4, 42720, Note_on_c, 0, 60, 0
4, 42720, Note_on_c, 0, 61, 44
4, 42960, Note_on_c, 0, 61, 0
4, 42960, Note_on_c, 0, 59, 44
4, 43200, Note_on_c, 0, 59, 0
4, 43200, Note_on_c, 0, 52, 57
4, 43200, Note_on_c, 0, 64, 57
4, 45120, Note_on_c, 0, 64, 0
4, 45120, Note_on_c, 0, 52, 0
4, 46320, Note_on_c, 0, 52, 57
4, 46320, Note_on_c, 0, 56, 57
4, 46320, Note_on_c, 0, 59, 57
4, 46560, Note_on_c, 0, 59, 0
4, 46560, Note_on_c, 0, 56, 0
4, 46560, Note_on_c, 0, 52, 0
4, 46560, Note_on_c, 0, 56, 57
4, 46560, Note_on_c, 0, 59, 57
4, 46560, Note_on_c, 0, 64, 57
4, 46800, Note_on_c, 0, 64, 0
4, 46800, Note_on_c, 0, 59, 0
4, 46800, Note_on_c, 0, 56, 0
4, 46800, Note_on_c, 0, 59, 57
4, 46800, Note_on_c, 0, 64, 57
4, 46800, Note_on_c, 0, 68, 57
4, 47040, Note_on_c, 0, 68, 0
4, 47040, Note_on_c, 0, 64, 0
4, 47040, Note_on_c, 0, 59, 0
4, 47040, Note_on_c, 0, 64, 57
4, 47040, Note_on_c, 0, 68, 57
4, 47280, Note_on_c, 0, 68, 0
4, 47280, Note_on_c, 0, 64, 0
4, 47280, Note_on_c, 0, 52, 57
4, 47280, Note_on_c, 0, 56, 57
4, 47280, Note_on_c, 0, 59, 57
4, 47520, Note_on_c, 0, 59, 0
4, 47520, Note_on_c, 0, 56, 0
4, 47520, Note_on_c, 0, 52, 0
4, 47520, Note_on_c, 0, 56, 57
4, 47520, Note_on_c, 0, 59, 57
4, 47520, Note_on_c, 0, 64, 57
4, 47760, Note_on_c, 0, 64, 0
4, 47760, Note_on_c, 0, 59, 0
4, 47760, Note_on_c, 0, 56, 0
4, 47760, Note_on_c, 0, 59, 57
4, 47760, Note_on_c, 0, 64, 57
4, 47760, Note_on_c, 0, 68, 57
4, 48000, Note_on_c, 0, 68, 0
4, 48000, Note_on_c, 0, 64, 0
4, 48000, Note_on_c, 0, 59, 0
4, 48000, Note_on_c, 0, 64, 57
4, 48000, Note_on_c, 0, 68, 57
4, 48480, Note_on_c, 0, 68, 0
4, 48480, Note_on_c, 0, 64, 0
4, 48960, Note_on_c, 0, 36, 96
4, 48960, Note_on_c, 0, 48, 96
4, 49440, Note_on_c, 0, 48, 0
4, 49440, Note_on_c, 0, 36, 0
4, 49440, Note_on_c, 0, 48, 96
4, 49440, Note_on_c, 0, 52, 96
4, 49440, Note_on_c, 0, 57, 96
4, 49440, Note_on_c, 0, 60, 96
4, 49800, Note_on_c, 0, 60, 0
4, 49800, Note_on_c, 0, 48, 0
4, 49800, Note_on_c, 0, 52, 0
4, 49800, Note_on_c, 0, 57, 0
4, 49800, Note_on_c, 0, 47, 96
4, 49800, Note_on_c, 0, 52, 96
4, 49800, Note_on_c, 0, 56, 96
4, 49800, Note_on_c, 0, 59, 96
4, 49920, Note_on_c, 0, 59, 0
4, 49920, Note_on_c, 0, 47, 0
4, 49920, Note_on_c, 0, 52, 0
4, 49920, Note_on_c, 0, 56, 0
4, 49920, Note_on_c, 0, 45, 96
4, 49920, Note_on_c, 0, 52, 96
4, 49920, Note_on_c, 0, 57, 96
4, 50160, Note_on_c, 0, 57, 0
4, 50160, Note_on_c, 0, 52, 0
4, 50160, Note_on_c, 0, 45, 0
4, 50160, Note_on_c, 0, 45, 96
4, 50160, Note_on_c, 0, 48, 96
4, 50160, Note_on_c, 0, 53, 96
4, 50160, Note_on_c, 0, 57, 96
4, 50400, Note_on_c, 0, 57, 0
4, 50400, Note_on_c, 0, 45, 0
4, 50400, Note_on_c, 0, 48, 0
4, 50400, Note_on_c, 0, 53, 0
4, 50400, Note_on_c, 0, 46, 96
4, 50400, Note_on_c, 0, 52, 96
4, 50400, Note_on_c, 0, 55, 96
4, 50400, Note_on_c, 0, 58, 96
4, 50640, Note_on_c, 0, 58, 0
4, 50640, Note_on_c, 0, 46, 0
4, 50640, Note_on_c, 0, 52, 0
4, 50640, Note_on_c, 0, 55, 0
4, 50880, Note_on_c, 0, 70, 83
4, 50880, Note_on_c, 0, 73, 83
4, 50880, Note_on_c, 0, 76, 83
4, 52080, Note_on_c, 0, 76, 0
4, 52080, Note_on_c, 0, 73, 0
4, 52080, Note_on_c, 0, 70, 0
4, 52080, Note_on_c, 0, 70, 44
4, 52080, Note_on_c, 0, 73, 44
4, 52080, Note_on_c, 0, 76, 44
4, 52200, Note_on_c, 0, 76, 0
4, 52200, Note_on_c, 0, 73, 0
4, 52200, Note_on_c, 0, 70, 0
4, 52200, Note_on_c, 0, 70, 44
4, 52200, Note_on_c, 0, 73, 44
4, 52200, Note_on_c, 0, 76, 44
4, 52320, Note_on_c, 0, 76, 0
4, 52320, Note_on_c, 0, 73, 0
4, 52320, Note_on_c, 0, 70, 0
4, 52320, Note_on_c, 0, 71, 44
4, 52320, Note_on_c, 0, 74, 44
4, 52440, Note_on_c, 0, 74, 0
4, 52440, Note_on_c, 0, 71, 0
4, 52440, Note_on_c, 0, 71, 44
4, 52440, Note_on_c, 0, 74, 44
4, 52560, Note_on_c, 0, 74, 0
4, 52560, Note_on_c, 0, 71, 0
4, 52560, Note_on_c, 0, 67, 44
4, 52560, Note_on_c, 0, 71, 44
4, 52680, Note_on_c, 0, 71, 0
4, 52680, Note_on_c, 0, 67, 0
4, 52680, Note_on_c, 0, 67, 44
4, 52680, Note_on_c, 0, 71, 44
4, 52800, Note_on_c, 0, 71, 0
4, 52800, Note_on_c, 0, 67, 0
4, 52800, Note_on_c, 0, 71, 44
4, 52800, Note_on_c, 0, 74, 44
4, 52920, Note_on_c, 0, 74, 0
4, 52920, Note_on_c, 0, 71, 0
4, 52920, Note_on_c, 0, 71, 44
4, 52920, Note_on_c, 0, 74, 44
4, 53040, Note_on_c, 0, 74, 0
4, 53040, Note_on_c, 0, 71, 0
4, 53040, Note_on_c, 0, 71, 44
4, 53040, Note_on_c, 0, 74, 44
4, 53087, Note_on_c, 0, 74, 0
4, 53087, Note_on_c, 0, 71, 0
4, 53280, Note_on_c, 0, 68, 44
4, 53280, Note_on_c, 0, 74, 44
4, 53400, Note_on_c, 0, 74, 0
4, 53400, Note_on_c, 0, 68, 0
4, 53400, Note_on_c, 0, 68, 44
4, 53400, Note_on_c, 0, 74, 44
4, 53520, Note_on_c, 0, 74, 0
4, 53520, Note_on_c, 0, 68, 0
4, 53520, Note_on_c, 0, 68, 44
4, 53520, Note_on_c, 0, 74, 44
4, 53567, Note_on_c, 0, 74, 0
4, 53567, Note_on_c, 0, 68, 0
4, 53760, Note_on_c, 0, 69, 44
4, 53760, Note_on_c, 0, 72, 44
4, 54000, Note_on_c, 0, 72, 0
4, 54000, Note_on_c, 0, 69, 0
4, 54000, Note_on_c, 0, 68, 44
4, 54000, Note_on_c, 0, 71, 44
4, 54000, Note_on_c, 0, 74, 44
4, 54120, Note_on_c, 0, 74, 0
4, 54120, Note_on_c, 0, 71, 0
4, 54120, Note_on_c, 0, 68, 0
4, 54120, Note_on_c, 0, 68, 44
4, 54120, Note_on_c, 0, 71, 44
4, 54120, Note_on_c, 0, 74, 44
4, 54240, Note_on_c, 0, 74, 0
4, 54240, Note_on_c, 0, 71, 0
4, 54240, Note_on_c, 0, 68, 0
4, 54240, Note_on_c, 0, 69, 44
4, 54240, Note_on_c, 0, 72, 44
4, 54360, Note_on_c, 0, 72, 0
4, 54360, Note_on_c, 0, 69, 0
4, 54360, Note_on_c, 0, 69, 44
4, 54360, Note_on_c, 0, 72, 44
4, 54480, Note_on_c, 0, 72, 0
4, 54480, Note_on_c, 0, 69, 0
4, 54480, Note_on_c, 0, 65, 44
4, 54480, Note_on_c, 0, 69, 44
4, 54600, Note_on_c, 0, 69, 0
4, 54600, Note_on_c, 0, 65, 0
4, 54600, Note_on_c, 0, 65, 44
4, 54600, Note_on_c, 0, 69, 44
4, 54720, Note_on_c, 0, 69, 0
4, 54720, Note_on_c, 0, 65, 0
4, 54720, Note_on_c, 0, 69, 44
4, 54720, Note_on_c, 0, 72, 44
4, 54840, Note_on_c, 0, 72, 0
4, 54840, Note_on_c, 0, 69, 0
4, 54840, Note_on_c, 0, 69, 44
4, 54840, Note_on_c, 0, 72, 44
4, 54960, Note_on_c, 0, 72, 0
4, 54960, Note_on_c, 0, 69, 0
4, 54960, Note_on_c, 0, 69, 44
4, 54960, Note_on_c, 0, 72, 44
4, 55007, Note_on_c, 0, 72, 0
4, 55007, Note_on_c, 0, 69, 0
4, 55200, Note_on_c, 0, 67, 44
4, 55200, Note_on_c, 0, 73, 44
4, 55320, Note_on_c, 0, 73, 0
4, 55320, Note_on_c, 0, 67, 0
4, 55320, Note_on_c, 0, 67, 44
4, 55320, Note_on_c, 0, 73, 44
4, 55440, Note_on_c, 0, 73, 0
4, 55440, Note_on_c, 0, 67, 0
4, 55440, Note_on_c, 0, 67, 44
4, 55440, Note_on_c, 0, 73, 44
4, 55487, Note_on_c, 0, 73, 0
4, 55487, Note_on_c, 0, 67, 0
4, 55680, Note_on_c, 0, 65, 44
4, 55680, Note_on_c, 0, 71, 44
4, 55800, Note_on_c, 0, 71, 0
4, 55800, Note_on_c, 0, 65, 0
4, 55800, Note_on_c, 0, 65, 44
4, 55800, Note_on_c, 0, 71, 44
4, 55920, Note_on_c, 0, 71, 0
4, 55920, Note_on_c, 0, 65, 0
4, 55920, Note_on_c, 0, 65, 44
4, 55920, Note_on_c, 0, 71, 44
4, 55967, Note_on_c, 0, 71, 0
4, 55967, Note_on_c, 0, 65, 0
4, 56160, Note_on_c, 0, 64, 44
4, 56280, Note_on_c, 0, 64, 0
4, 56280, Note_on_c, 0, 64, 44
4, 56400, Note_on_c, 0, 64, 0
4, 56400, Note_on_c, 0, 64, 44
4, 56447, Note_on_c, 0, 64, 0
4, 56640, Note_on_c, 0, 62, 44
4, 56760, Note_on_c, 0, 62, 0
4, 56760, Note_on_c, 0, 62, 44
4, 56880, Note_on_c, 0, 62, 0
4, 56880, Note_on_c, 0, 62, 44
4, 57000, Note_on_c, 0, 62, 0
4, 57000, Note_on_c, 0, 62, 44
4, 57120, Note_on_c, 0, 62, 0
4, 57120, Note_on_c, 0, 50, 44
4, 57240, Note_on_c, 0, 50, 0
4, 57240, Note_on_c, 0, 50, 44
4, 57360, Note_on_c, 0, 50, 0
4, 57360, Note_on_c, 0, 50, 44
4, 57480, Note_on_c, 0, 50, 0
4, 57480, Note_on_c, 0, 50, 44
4, 57600, Note_on_c, 0, 50, 0
4, 57600, Note_on_c, 0, 51, 44
4, 58560, Note_on_c, 0, 51, 0
4, 58560, Note_on_c, 0, 52, 44
4, 59520, Note_on_c, 0, 52, 0
4, 59520, Note_on_c, 0, 53, 44
4, 60480, Note_on_c, 0, 53, 0
4, 60480, Note_on_c, 0, 52, 44
4, 60576, Note_on_c, 0, 52, 0
4, 60960, Note_on_c, 0, 48, 44
4, 61007, Note_on_c, 0, 48, 0
4, 61320, Note_on_c, 0, 45, 44
4, 61343, Note_on_c, 0, 45, 0
4, 61440, Note_on_c, 0, 52, 44
4, 61487, Note_on_c, 0, 52, 0
4, 61680, Note_on_c, 0, 56, 44
4, 61727, Note_on_c, 0, 56, 0
4, 61920, Note_on_c, 0, 57, 44
4, 62016, Note_on_c, 0, 57, 0
4, 62400, Note_on_c, 0, 52, 44
4, 62496, Note_on_c, 0, 52, 0
4, 62880, Note_on_c, 0, 48, 44
4, 62927, Note_on_c, 0, 48, 0
4, 63240, Note_on_c, 0, 45, 44
4, 63263, Note_on_c, 0, 45, 0
4, 63360, Note_on_c, 0, 52, 44
4, 63407, Note_on_c, 0, 52, 0
4, 63600, Note_on_c, 0, 56, 44
4, 63647, Note_on_c, 0, 56, 0
4, 63840, Note_on_c, 0, 57, 44
4, 63936, Note_on_c, 0, 57, 0
4, 64800, Note_on_c, 0, 33, 44
4, 64800, Note_on_c, 0, 45, 44
4, 64896, Note_on_c, 0, 45, 0
4, 64896, Note_on_c, 0, 33, 0
4, 65760, Note_on_c, 0, 33, 44
4, 65760, Note_on_c, 0, 45, 44
4, 65856, Note_on_c, 0, 45, 0
4, 65856, Note_on_c, 0, 33, 0
4, 65856, End_track
0, 0, End_of_file
