0, 0, Header, 1, 5, 480
1, 0, Start_track
1, 0, Title_t, "tchaikovsky swan lake act4 28 scene"
1, 0, Copyright_t, "Adaptation for Disklavier pianos, by: Robert C. Kuhmann (c) 2012."
1, 0, Text_t, "Seq. (c) by: Segundo G. Yogore,  2007\012"
1, 0, Time_signature, 4, 2, 24, 8
1, 0, Key_signature, -6, "major"
1, 0, Tempo, 422535
1, 72960, Tempo, 535714
1, 100080, Tempo, 550459
1, 100320, Tempo, 566038
1, 100560, Tempo, 582524
1, 100800, Tempo, 606061
1, 101040, Tempo, 625000
1, 101280, Tempo, 645161
1, 101520, Tempo, 666667
1, 101760, Key_signature, 0, "major"
1, 101760, Tempo, 434783
1, 182400, Time_signature, 5, 2, 24, 8
1, 184800, Time_signature, 3, 2, 24, 8
1, 184800, Key_signature, 4, "major"
1, 184800, Tempo, 750000
1, 220800, Time_signature, 8, 2, 24, 8
1, 220800, End_track
2, 0, Start_track
2, 0, Title_t, "Grand Piano"
2, 0, Program_c, 0, 0
2, 0, Control_c, 0, 7, 115
2, 0, Control_c, 0, 10, 86
2, 0, Note_on_c, 0, 65, 88
2, 120, Note_on_c, 0, 65, 0
2, 120, Note_on_c, 0, 64, 88
2, 240, Note_on_c, 0, 64, 0
2, 240, Note_on_c, 0, 65, 88
2, 360, Note_on_c, 0, 65, 0
2, 360, Note_on_c, 0, 64, 88
2, 480, Note_on_c, 0, 64, 0
2, 480, Note_on_c, 0, 65, 88
2, 600, Note_on_c, 0, 65, 0
2, 600, Note_on_c, 0, 62, 88
2, 720, Note_on_c, 0, 62, 0
2, 720, Note_on_c, 0, 59, 88
2, 840, Note_on_c, 0, 59, 0
2, 840, Note_on_c, 0, 58, 88
2, 960, Note_on_c, 0, 58, 0
2, 960, Note_on_c, 0, 68, 88
2, 1080, Note_on_c, 0, 68, 0
2, 1080, Note_on_c, 0, 67, 88
2, 1200, Note_on_c, 0, 67, 0
2, 1200, Note_on_c, 0, 68, 88
2, 1320, Note_on_c, 0, 68, 0
2, 1320, Note_on_c, 0, 67, 88
2, 1440, Note_on_c, 0, 67, 0
2, 1440, Note_on_c, 0, 68, 88
2, 1560, Note_on_c, 0, 68, 0
2, 1560, Note_on_c, 0, 65, 88
2, 1680, Note_on_c, 0, 65, 0
2, 1680, Note_on_c, 0, 63, 88
2, 1800, Note_on_c, 0, 63, 0
2, 1800, Note_on_c, 0, 62, 88
2, 1920, Note_on_c, 0, 62, 0
2, 1920, Note_on_c, 0, 71, 88
2, 2040, Note_on_c, 0, 71, 0
2, 2040, Note_on_c, 0, 70, 88
2, 2160, Note_on_c, 0, 70, 0
2, 2160, Note_on_c, 0, 71, 88
2, 2280, Note_on_c, 0, 71, 0
2, 2280, Note_on_c, 0, 70, 88
2, 2400, Note_on_c, 0, 70, 0
2, 2400, Note_on_c, 0, 71, 88
2, 2520, Note_on_c, 0, 71, 0
2, 2520, Note_on_c, 0, 68, 88
2, 2640, Note_on_c, 0, 68, 0
2, 2640, Note_on_c, 0, 66, 88
2, 2760, Note_on_c, 0, 66, 0
2, 2760, Note_on_c, 0, 65, 88
2, 2880, Note_on_c, 0, 65, 0
2, 2880, Note_on_c, 0, 74, 88
2, 3000, Note_on_c, 0, 74, 0
2, 3000, Note_on_c, 0, 73, 88
2, 3120, Note_on_c, 0, 73, 0
2, 3120, Note_on_c, 0, 74, 88
2, 3240, Note_on_c, 0, 74, 0
2, 3240, Note_on_c, 0, 73, 88
2, 3360, Note_on_c, 0, 73, 0
2, 3360, Note_on_c, 0, 74, 88
2, 3480, Note_on_c, 0, 74, 0
2, 3480, Note_on_c, 0, 71, 88
2, 3600, Note_on_c, 0, 71, 0
2, 3600, Note_on_c, 0, 70, 88
2, 3720, Note_on_c, 0, 70, 0
2, 3720, Note_on_c, 0, 68, 88
2, 3840, Note_on_c, 0, 68, 0
2, 3840, Note_on_c, 0, 77, 88
2, 3960, Note_on_c, 0, 77, 0
2, 3960, Note_on_c, 0, 74, 88
2, 4080, Note_on_c, 0, 74, 0
2, 4080, Note_on_c, 0, 71, 88
2, 4200, Note_on_c, 0, 71, 0
2, 4200, Note_on_c, 0, 70, 88
2, 4320, Note_on_c, 0, 70, 0
2, 4320, Note_on_c, 0, 80, 88
2, 4440, Note_on_c, 0, 80, 0
2, 4440, Note_on_c, 0, 77, 88
2, 4560, Note_on_c, 0, 77, 0
2, 4560, Note_on_c, 0, 75, 88
2, 4680, Note_on_c, 0, 75, 0
2, 4680, Note_on_c, 0, 74, 88
2, 4800, Note_on_c, 0, 74, 0
2, 4800, Note_on_c, 0, 83, 88
2, 4920, Note_on_c, 0, 83, 0
2, 4920, Note_on_c, 0, 80, 88
2, 5040, Note_on_c, 0, 80, 0
2, 5040, Note_on_c, 0, 78, 88
2, 5160, Note_on_c, 0, 78, 0
2, 5160, Note_on_c, 0, 77, 88
2, 5280, Note_on_c, 0, 77, 0
2, 5280, Note_on_c, 0, 86, 88
2, 5400, Note_on_c, 0, 86, 0
2, 5400, Note_on_c, 0, 83, 88
2, 5520, Note_on_c, 0, 83, 0
2, 5520, Note_on_c, 0, 82, 88
2, 5640, Note_on_c, 0, 82, 0
2, 5640, Note_on_c, 0, 80, 88
2, 5760, Note_on_c, 0, 80, 0
2, 5760, Note_on_c, 0, 89, 88
2, 5880, Note_on_c, 0, 89, 0
2, 5880, Note_on_c, 0, 77, 88
2, 6000, Note_on_c, 0, 77, 0
2, 6000, Note_on_c, 0, 86, 88
2, 6120, Note_on_c, 0, 86, 0
2, 6120, Note_on_c, 0, 74, 88
2, 6240, Note_on_c, 0, 74, 0
2, 6240, Note_on_c, 0, 83, 88
2, 6360, Note_on_c, 0, 83, 0
2, 6360, Note_on_c, 0, 71, 88
2, 6480, Note_on_c, 0, 71, 0
2, 6480, Note_on_c, 0, 80, 88
2, 6600, Note_on_c, 0, 80, 0
2, 6600, Note_on_c, 0, 68, 88
2, 6720, Note_on_c, 0, 68, 0
2, 6720, Note_on_c, 0, 77, 88
2, 6840, Note_on_c, 0, 77, 0
2, 6840, Note_on_c, 0, 65, 88
2, 6960, Note_on_c, 0, 65, 0
2, 6960, Note_on_c, 0, 74, 88
2, 7080, Note_on_c, 0, 74, 0
2, 7080, Note_on_c, 0, 62, 88
2, 7200, Note_on_c, 0, 62, 0
2, 7200, Note_on_c, 0, 71, 88
2, 7320, Note_on_c, 0, 71, 0
2, 7320, Note_on_c, 0, 59, 88
2, 7440, Note_on_c, 0, 59, 0
2, 7440, Note_on_c, 0, 70, 88
2, 7560, Note_on_c, 0, 70, 0
2, 7560, Note_on_c, 0, 58, 88
2, 7680, Note_on_c, 0, 58, 0
2, 7920, Note_on_c, 0, 70, 75
2, 8160, Note_on_c, 0, 70, 0
2, 8160, Note_on_c, 0, 69, 75
2, 8400, Note_on_c, 0, 69, 0
2, 8400, Note_on_c, 0, 70, 75
2, 8640, Note_on_c, 0, 70, 0
2, 8640, Note_on_c, 0, 73, 75
2, 8760, Note_on_c, 0, 73, 0
2, 8760, Note_on_c, 0, 71, 75
2, 8880, Note_on_c, 0, 71, 0
2, 8880, Note_on_c, 0, 71, 75
2, 9000, Note_on_c, 0, 71, 0
2, 9000, Note_on_c, 0, 70, 75
2, 9120, Note_on_c, 0, 70, 0
2, 9120, Note_on_c, 0, 70, 75
2, 9360, Note_on_c, 0, 70, 0
2, 9360, Note_on_c, 0, 68, 75
2, 9600, Note_on_c, 0, 68, 0
2, 9840, Note_on_c, 0, 68, 75
2, 10080, Note_on_c, 0, 68, 0
2, 10080, Note_on_c, 0, 67, 75
2, 10320, Note_on_c, 0, 67, 0
2, 10320, Note_on_c, 0, 68, 75
2, 10367, Note_on_c, 0, 68, 0
2, 10560, Note_on_c, 0, 71, 75
2, 10680, Note_on_c, 0, 71, 0
2, 10680, Note_on_c, 0, 70, 75
2, 10800, Note_on_c, 0, 70, 0
2, 10800, Note_on_c, 0, 70, 75
2, 10920, Note_on_c, 0, 70, 0
2, 10920, Note_on_c, 0, 68, 75
2, 11040, Note_on_c, 0, 68, 0
2, 11040, Note_on_c, 0, 68, 75
2, 11280, Note_on_c, 0, 68, 0
2, 11280, Note_on_c, 0, 66, 75
2, 11520, Note_on_c, 0, 66, 0
2, 11640, Note_on_c, 0, 66, 88
2, 11760, Note_on_c, 0, 66, 0
2, 11760, Note_on_c, 0, 65, 88
2, 11880, Note_on_c, 0, 65, 0
2, 11880, Note_on_c, 0, 63, 88
2, 12000, Note_on_c, 0, 63, 0
2, 12000, Note_on_c, 0, 63, 88
2, 12120, Note_on_c, 0, 63, 0
2, 12120, Note_on_c, 0, 62, 88
2, 12240, Note_on_c, 0, 62, 0
2, 12240, Note_on_c, 0, 62, 88
2, 12360, Note_on_c, 0, 62, 0
2, 12360, Note_on_c, 0, 65, 88
2, 12480, Note_on_c, 0, 65, 0
2, 12480, Note_on_c, 0, 65, 88
2, 12600, Note_on_c, 0, 65, 0
2, 12600, Note_on_c, 0, 63, 88
2, 12720, Note_on_c, 0, 63, 0
2, 12720, Note_on_c, 0, 63, 88
2, 12840, Note_on_c, 0, 63, 0
2, 12840, Note_on_c, 0, 66, 88
2, 12960, Note_on_c, 0, 66, 0
2, 12960, Note_on_c, 0, 66, 88
2, 13080, Note_on_c, 0, 66, 0
2, 13080, Note_on_c, 0, 65, 88
2, 13200, Note_on_c, 0, 65, 0
2, 13200, Note_on_c, 0, 65, 88
2, 13320, Note_on_c, 0, 65, 0
2, 13320, Note_on_c, 0, 70, 88
2, 13440, Note_on_c, 0, 70, 0
2, 13560, Note_on_c, 0, 78, 75
2, 13680, Note_on_c, 0, 78, 0
2, 13680, Note_on_c, 0, 77, 75
2, 13800, Note_on_c, 0, 77, 0
2, 13800, Note_on_c, 0, 77, 75
2, 13920, Note_on_c, 0, 77, 0
2, 13920, Note_on_c, 0, 75, 75
2, 14040, Note_on_c, 0, 75, 0
2, 14040, Note_on_c, 0, 74, 75
2, 14160, Note_on_c, 0, 74, 0
2, 14160, Note_on_c, 0, 74, 75
2, 14280, Note_on_c, 0, 74, 0
2, 14280, Note_on_c, 0, 77, 75
2, 14400, Note_on_c, 0, 77, 0
2, 14400, Note_on_c, 0, 77, 75
2, 14520, Note_on_c, 0, 77, 0
2, 14520, Note_on_c, 0, 75, 75
2, 14640, Note_on_c, 0, 75, 0
2, 14640, Note_on_c, 0, 75, 75
2, 14760, Note_on_c, 0, 75, 0
2, 14760, Note_on_c, 0, 78, 75
2, 14880, Note_on_c, 0, 78, 0
2, 14880, Note_on_c, 0, 78, 75
2, 15000, Note_on_c, 0, 78, 0
2, 15000, Note_on_c, 0, 77, 75
2, 15120, Note_on_c, 0, 77, 0
2, 15120, Note_on_c, 0, 77, 75
2, 15240, Note_on_c, 0, 77, 0
2, 15240, Note_on_c, 0, 82, 75
2, 15360, Note_on_c, 0, 82, 0
2, 15360, Note_on_c, 0, 82, 88
2, 15720, Note_on_c, 0, 82, 0
2, 15720, Note_on_c, 0, 75, 88
2, 15840, Note_on_c, 0, 75, 0
2, 15840, Note_on_c, 0, 75, 88
2, 16080, Note_on_c, 0, 75, 0
2, 17400, Note_on_c, 0, 83, 88
2, 17520, Note_on_c, 0, 83, 0
2, 17520, Note_on_c, 0, 82, 88
2, 17640, Note_on_c, 0, 82, 0
2, 17640, Note_on_c, 0, 80, 88
2, 17760, Note_on_c, 0, 80, 0
2, 17760, Note_on_c, 0, 80, 88
2, 17880, Note_on_c, 0, 80, 0
2, 17880, Note_on_c, 0, 79, 88
2, 18000, Note_on_c, 0, 79, 0
2, 18000, Note_on_c, 0, 79, 88
2, 18120, Note_on_c, 0, 79, 0
2, 18120, Note_on_c, 0, 82, 88
2, 18240, Note_on_c, 0, 82, 0
2, 18240, Note_on_c, 0, 82, 88
2, 18360, Note_on_c, 0, 82, 0
2, 18360, Note_on_c, 0, 80, 88
2, 18480, Note_on_c, 0, 80, 0
2, 18480, Note_on_c, 0, 80, 88
2, 18600, Note_on_c, 0, 80, 0
2, 18600, Note_on_c, 0, 83, 88
2, 18720, Note_on_c, 0, 83, 0
2, 18720, Note_on_c, 0, 83, 88
2, 18840, Note_on_c, 0, 83, 0
2, 18840, Note_on_c, 0, 82, 88
2, 18960, Note_on_c, 0, 82, 0
2, 18960, Note_on_c, 0, 82, 88
2, 19080, Note_on_c, 0, 82, 0
2, 19080, Note_on_c, 0, 87, 88
2, 19200, Note_on_c, 0, 87, 0
2, 19200, Note_on_c, 0, 87, 88
2, 19560, Note_on_c, 0, 87, 0
2, 19560, Note_on_c, 0, 80, 88
2, 19680, Note_on_c, 0, 80, 0
2, 19680, Note_on_c, 0, 80, 88
2, 19920, Note_on_c, 0, 80, 0
2, 21240, Note_on_c, 0, 75, 88
2, 21263, Note_on_c, 0, 75, 0
2, 21360, Note_on_c, 0, 75, 88
2, 21480, Note_on_c, 0, 75, 0
2, 21480, Note_on_c, 0, 80, 88
2, 21600, Note_on_c, 0, 80, 0
2, 21600, Note_on_c, 0, 80, 88
2, 21720, Note_on_c, 0, 80, 0
2, 21720, Note_on_c, 0, 78, 88
2, 21840, Note_on_c, 0, 78, 0
2, 21840, Note_on_c, 0, 78, 88
2, 21960, Note_on_c, 0, 78, 0
2, 21960, Note_on_c, 0, 77, 88
2, 22080, Note_on_c, 0, 77, 0
2, 22080, Note_on_c, 0, 77, 88
2, 22200, Note_on_c, 0, 77, 0
2, 22200, Note_on_c, 0, 75, 88
2, 22320, Note_on_c, 0, 75, 0
2, 22320, Note_on_c, 0, 75, 88
2, 22440, Note_on_c, 0, 75, 0
2, 22440, Note_on_c, 0, 74, 88
2, 22560, Note_on_c, 0, 74, 0
2, 22560, Note_on_c, 0, 74, 88
2, 22800, Note_on_c, 0, 74, 0
2, 22800, Note_on_c, 0, 75, 88
2, 23040, Note_on_c, 0, 75, 0
2, 23160, Note_on_c, 0, 68, 88
2, 23183, Note_on_c, 0, 68, 0
2, 23280, Note_on_c, 0, 68, 88
2, 23400, Note_on_c, 0, 68, 0
2, 23400, Note_on_c, 0, 75, 88
2, 23520, Note_on_c, 0, 75, 0
2, 23520, Note_on_c, 0, 75, 88
2, 23640, Note_on_c, 0, 75, 0
2, 23640, Note_on_c, 0, 73, 88
2, 23760, Note_on_c, 0, 73, 0
2, 23760, Note_on_c, 0, 73, 88
2, 23880, Note_on_c, 0, 73, 0
2, 23880, Note_on_c, 0, 71, 88
2, 24000, Note_on_c, 0, 71, 0
2, 24000, Note_on_c, 0, 71, 88
2, 24480, Note_on_c, 0, 71, 0
2, 24480, Note_on_c, 0, 70, 88
2, 24960, Note_on_c, 0, 70, 0
2, 25080, Note_on_c, 0, 66, 75
2, 25103, Note_on_c, 0, 66, 0
2, 25200, Note_on_c, 0, 66, 75
2, 25320, Note_on_c, 0, 66, 0
2, 25320, Note_on_c, 0, 69, 75
2, 25440, Note_on_c, 0, 69, 0
2, 25440, Note_on_c, 0, 69, 75
2, 25560, Note_on_c, 0, 69, 0
2, 25560, Note_on_c, 0, 70, 75
2, 25680, Note_on_c, 0, 70, 0
2, 25680, Note_on_c, 0, 70, 75
2, 25800, Note_on_c, 0, 70, 0
2, 25800, Note_on_c, 0, 71, 75
2, 25920, Note_on_c, 0, 71, 0
2, 25920, Note_on_c, 0, 71, 75
2, 26400, Note_on_c, 0, 71, 0
2, 26400, Note_on_c, 0, 66, 75
2, 26760, Note_on_c, 0, 66, 0
2, 26760, Note_on_c, 0, 65, 75
2, 26880, Note_on_c, 0, 65, 0
2, 27120, Note_on_c, 0, 70, 75
2, 27360, Note_on_c, 0, 70, 0
2, 27360, Note_on_c, 0, 69, 75
2, 27600, Note_on_c, 0, 69, 0
2, 27600, Note_on_c, 0, 70, 75
2, 27647, Note_on_c, 0, 70, 0
2, 27840, Note_on_c, 0, 73, 75
2, 27960, Note_on_c, 0, 73, 0
2, 27960, Note_on_c, 0, 71, 75
2, 28080, Note_on_c, 0, 71, 0
2, 28080, Note_on_c, 0, 71, 75
2, 28200, Note_on_c, 0, 71, 0
2, 28200, Note_on_c, 0, 70, 75
2, 28320, Note_on_c, 0, 70, 0
2, 28320, Note_on_c, 0, 70, 75
2, 28560, Note_on_c, 0, 70, 0
2, 28560, Note_on_c, 0, 68, 75
2, 28800, Note_on_c, 0, 68, 0
2, 29040, Note_on_c, 0, 68, 75
2, 29280, Note_on_c, 0, 68, 0
2, 29280, Note_on_c, 0, 67, 75
2, 29520, Note_on_c, 0, 67, 0
2, 29520, Note_on_c, 0, 68, 75
2, 29567, Note_on_c, 0, 68, 0
2, 29760, Note_on_c, 0, 71, 75
2, 29880, Note_on_c, 0, 71, 0
2, 29880, Note_on_c, 0, 70, 75
2, 30000, Note_on_c, 0, 70, 0
2, 30000, Note_on_c, 0, 70, 75
2, 30120, Note_on_c, 0, 70, 0
2, 30120, Note_on_c, 0, 68, 75
2, 30240, Note_on_c, 0, 68, 0
2, 30240, Note_on_c, 0, 68, 75
2, 30480, Note_on_c, 0, 68, 0
2, 30480, Note_on_c, 0, 66, 75
2, 30720, Note_on_c, 0, 66, 0
2, 30840, Note_on_c, 0, 66, 88
2, 30960, Note_on_c, 0, 66, 0
2, 30960, Note_on_c, 0, 65, 88
2, 31080, Note_on_c, 0, 65, 0
2, 31080, Note_on_c, 0, 63, 88
2, 31200, Note_on_c, 0, 63, 0
2, 31200, Note_on_c, 0, 63, 88
2, 31320, Note_on_c, 0, 63, 0
2, 31320, Note_on_c, 0, 62, 88
2, 31440, Note_on_c, 0, 62, 0
2, 31440, Note_on_c, 0, 62, 88
2, 31560, Note_on_c, 0, 62, 0
2, 31560, Note_on_c, 0, 65, 88
2, 31680, Note_on_c, 0, 65, 0
2, 31680, Note_on_c, 0, 65, 88
2, 31800, Note_on_c, 0, 65, 0
2, 31800, Note_on_c, 0, 63, 88
2, 31920, Note_on_c, 0, 63, 0
2, 31920, Note_on_c, 0, 63, 88
2, 32040, Note_on_c, 0, 63, 0
2, 32040, Note_on_c, 0, 66, 88
2, 32160, Note_on_c, 0, 66, 0
2, 32160, Note_on_c, 0, 66, 88
2, 32280, Note_on_c, 0, 66, 0
2, 32280, Note_on_c, 0, 65, 88
2, 32400, Note_on_c, 0, 65, 0
2, 32400, Note_on_c, 0, 65, 88
2, 32520, Note_on_c, 0, 65, 0
2, 32520, Note_on_c, 0, 70, 88
2, 32640, Note_on_c, 0, 70, 0
2, 32760, Note_on_c, 0, 78, 75
2, 32880, Note_on_c, 0, 78, 0
2, 32880, Note_on_c, 0, 77, 75
2, 33000, Note_on_c, 0, 77, 0
2, 33000, Note_on_c, 0, 77, 75
2, 33120, Note_on_c, 0, 77, 0
2, 33120, Note_on_c, 0, 75, 75
2, 33240, Note_on_c, 0, 75, 0
2, 33240, Note_on_c, 0, 74, 75
2, 33360, Note_on_c, 0, 74, 0
2, 33360, Note_on_c, 0, 74, 75
2, 33480, Note_on_c, 0, 74, 0
2, 33480, Note_on_c, 0, 77, 75
2, 33600, Note_on_c, 0, 77, 0
2, 33600, Note_on_c, 0, 77, 75
2, 33720, Note_on_c, 0, 77, 0
2, 33720, Note_on_c, 0, 75, 75
2, 33840, Note_on_c, 0, 75, 0
2, 33840, Note_on_c, 0, 75, 75
2, 33960, Note_on_c, 0, 75, 0
2, 33960, Note_on_c, 0, 78, 75
2, 34080, Note_on_c, 0, 78, 0
2, 34080, Note_on_c, 0, 78, 75
2, 34200, Note_on_c, 0, 78, 0
2, 34200, Note_on_c, 0, 77, 75
2, 34320, Note_on_c, 0, 77, 0
2, 34320, Note_on_c, 0, 77, 75
2, 34440, Note_on_c, 0, 77, 0
2, 34440, Note_on_c, 0, 82, 75
2, 34560, Note_on_c, 0, 82, 0
2, 34560, Note_on_c, 0, 82, 88
2, 34920, Note_on_c, 0, 82, 0
2, 34920, Note_on_c, 0, 75, 88
2, 35040, Note_on_c, 0, 75, 0
2, 35040, Note_on_c, 0, 75, 88
2, 35280, Note_on_c, 0, 75, 0
2, 36600, Note_on_c, 0, 83, 88
2, 36720, Note_on_c, 0, 83, 0
2, 36720, Note_on_c, 0, 82, 88
2, 36840, Note_on_c, 0, 82, 0
2, 36840, Note_on_c, 0, 80, 88
2, 36960, Note_on_c, 0, 80, 0
2, 36960, Note_on_c, 0, 80, 88
2, 37080, Note_on_c, 0, 80, 0
2, 37080, Note_on_c, 0, 79, 88
2, 37200, Note_on_c, 0, 79, 0
2, 37200, Note_on_c, 0, 79, 88
2, 37320, Note_on_c, 0, 79, 0
2, 37320, Note_on_c, 0, 82, 88
2, 37440, Note_on_c, 0, 82, 0
2, 37440, Note_on_c, 0, 82, 88
2, 37560, Note_on_c, 0, 82, 0
2, 37560, Note_on_c, 0, 80, 88
2, 37680, Note_on_c, 0, 80, 0
2, 37680, Note_on_c, 0, 80, 88
2, 37800, Note_on_c, 0, 80, 0
2, 37800, Note_on_c, 0, 83, 88
2, 37920, Note_on_c, 0, 83, 0
2, 37920, Note_on_c, 0, 83, 88
2, 38040, Note_on_c, 0, 83, 0
2, 38040, Note_on_c, 0, 82, 88
2, 38160, Note_on_c, 0, 82, 0
2, 38160, Note_on_c, 0, 82, 88
2, 38280, Note_on_c, 0, 82, 0
2, 38280, Note_on_c, 0, 87, 88
2, 38400, Note_on_c, 0, 87, 0
2, 38400, Note_on_c, 0, 87, 88
2, 38760, Note_on_c, 0, 87, 0
2, 38760, Note_on_c, 0, 80, 88
2, 38880, Note_on_c, 0, 80, 0
2, 38880, Note_on_c, 0, 80, 88
2, 39120, Note_on_c, 0, 80, 0
2, 40440, Note_on_c, 0, 75, 75
2, 40463, Note_on_c, 0, 75, 0
2, 40560, Note_on_c, 0, 75, 75
2, 40680, Note_on_c, 0, 75, 0
2, 40680, Note_on_c, 0, 80, 75
2, 40800, Note_on_c, 0, 80, 0
2, 40800, Note_on_c, 0, 80, 75
2, 40920, Note_on_c, 0, 80, 0
2, 40920, Note_on_c, 0, 78, 75
2, 41040, Note_on_c, 0, 78, 0
2, 41040, Note_on_c, 0, 78, 75
2, 41160, Note_on_c, 0, 78, 0
2, 41160, Note_on_c, 0, 77, 75
2, 41280, Note_on_c, 0, 77, 0
2, 41280, Note_on_c, 0, 77, 75
2, 41400, Note_on_c, 0, 77, 0
2, 41400, Note_on_c, 0, 75, 75
2, 41520, Note_on_c, 0, 75, 0
2, 41520, Note_on_c, 0, 75, 75
2, 41640, Note_on_c, 0, 75, 0
2, 41640, Note_on_c, 0, 74, 75
2, 41760, Note_on_c, 0, 74, 0
2, 41760, Note_on_c, 0, 74, 75
2, 42000, Note_on_c, 0, 74, 0
2, 42000, Note_on_c, 0, 75, 75
2, 42240, Note_on_c, 0, 75, 0
2, 42360, Note_on_c, 0, 68, 88
2, 42383, Note_on_c, 0, 68, 0
2, 42480, Note_on_c, 0, 68, 88
2, 42600, Note_on_c, 0, 68, 0
2, 42600, Note_on_c, 0, 75, 88
2, 42720, Note_on_c, 0, 75, 0
2, 42720, Note_on_c, 0, 75, 88
2, 42840, Note_on_c, 0, 75, 0
2, 42840, Note_on_c, 0, 73, 88
2, 42960, Note_on_c, 0, 73, 0
2, 42960, Note_on_c, 0, 73, 88
2, 43080, Note_on_c, 0, 73, 0
2, 43080, Note_on_c, 0, 71, 88
2, 43200, Note_on_c, 0, 71, 0
2, 43200, Note_on_c, 0, 71, 88
2, 43440, Note_on_c, 0, 71, 0
2, 44280, Note_on_c, 0, 70, 88
2, 44303, Note_on_c, 0, 70, 0
2, 44400, Note_on_c, 0, 70, 88
2, 44520, Note_on_c, 0, 70, 0
2, 44520, Note_on_c, 0, 77, 88
2, 44640, Note_on_c, 0, 77, 0
2, 44640, Note_on_c, 0, 77, 88
2, 44760, Note_on_c, 0, 77, 0
2, 44760, Note_on_c, 0, 75, 88
2, 44880, Note_on_c, 0, 75, 0
2, 44880, Note_on_c, 0, 75, 88
2, 45000, Note_on_c, 0, 75, 0
2, 45000, Note_on_c, 0, 73, 88
2, 45120, Note_on_c, 0, 73, 0
2, 45120, Note_on_c, 0, 73, 88
2, 45360, Note_on_c, 0, 73, 0
2, 46200, Note_on_c, 0, 75, 88
2, 46223, Note_on_c, 0, 75, 0
2, 46320, Note_on_c, 0, 75, 88
2, 46440, Note_on_c, 0, 75, 0
2, 46440, Note_on_c, 0, 82, 88
2, 46560, Note_on_c, 0, 82, 0
2, 46560, Note_on_c, 0, 82, 88
2, 46680, Note_on_c, 0, 82, 0
2, 46680, Note_on_c, 0, 80, 88
2, 46800, Note_on_c, 0, 80, 0
2, 46800, Note_on_c, 0, 80, 88
2, 46920, Note_on_c, 0, 80, 0
2, 46920, Note_on_c, 0, 78, 88
2, 47040, Note_on_c, 0, 78, 0
2, 47040, Note_on_c, 0, 78, 88
2, 47160, Note_on_c, 0, 78, 0
2, 47160, Note_on_c, 0, 77, 88
2, 47280, Note_on_c, 0, 77, 0
2, 47280, Note_on_c, 0, 77, 88
2, 47400, Note_on_c, 0, 77, 0
2, 47400, Note_on_c, 0, 75, 88
2, 47520, Note_on_c, 0, 75, 0
2, 47520, Note_on_c, 0, 75, 88
2, 47640, Note_on_c, 0, 75, 0
2, 47640, Note_on_c, 0, 74, 88
2, 47760, Note_on_c, 0, 74, 0
2, 47760, Note_on_c, 0, 74, 88
2, 47880, Note_on_c, 0, 74, 0
2, 47880, Note_on_c, 0, 75, 88
2, 48000, Note_on_c, 0, 75, 0
2, 48000, Note_on_c, 0, 75, 75
2, 48120, Note_on_c, 0, 75, 0
2, 48120, Note_on_c, 0, 68, 75
2, 48240, Note_on_c, 0, 68, 0
2, 48240, Note_on_c, 0, 68, 75
2, 48360, Note_on_c, 0, 68, 0
2, 48360, Note_on_c, 0, 75, 75
2, 48480, Note_on_c, 0, 75, 0
2, 48480, Note_on_c, 0, 75, 75
2, 48600, Note_on_c, 0, 75, 0
2, 48600, Note_on_c, 0, 73, 75
2, 48720, Note_on_c, 0, 73, 0
2, 48720, Note_on_c, 0, 73, 75
2, 48840, Note_on_c, 0, 73, 0
2, 48840, Note_on_c, 0, 71, 75
2, 48960, Note_on_c, 0, 71, 0
2, 48960, Note_on_c, 0, 71, 75
2, 49080, Note_on_c, 0, 71, 0
2, 49080, Note_on_c, 0, 65, 75
2, 49200, Note_on_c, 0, 65, 0
2, 49200, Note_on_c, 0, 65, 75
2, 49320, Note_on_c, 0, 65, 0
2, 49320, Note_on_c, 0, 71, 75
2, 49440, Note_on_c, 0, 71, 0
2, 49440, Note_on_c, 0, 71, 75
2, 49560, Note_on_c, 0, 71, 0
2, 49560, Note_on_c, 0, 70, 75
2, 49680, Note_on_c, 0, 70, 0
2, 49680, Note_on_c, 0, 70, 75
2, 49800, Note_on_c, 0, 70, 0
2, 49800, Note_on_c, 0, 68, 75
2, 49920, Note_on_c, 0, 68, 0
2, 49920, Note_on_c, 0, 68, 75
2, 50040, Note_on_c, 0, 68, 0
2, 50040, Note_on_c, 0, 63, 75
2, 50160, Note_on_c, 0, 63, 0
2, 50160, Note_on_c, 0, 63, 75
2, 50280, Note_on_c, 0, 63, 0
2, 50280, Note_on_c, 0, 68, 75
2, 50400, Note_on_c, 0, 68, 0
2, 50400, Note_on_c, 0, 68, 75
2, 50520, Note_on_c, 0, 68, 0
2, 50520, Note_on_c, 0, 63, 75
2, 50640, Note_on_c, 0, 63, 0
2, 50640, Note_on_c, 0, 63, 75
2, 50760, Note_on_c, 0, 63, 0
2, 50760, Note_on_c, 0, 66, 75
2, 50880, Note_on_c, 0, 66, 0
2, 50880, Note_on_c, 0, 59, 75
2, 50880, Note_on_c, 0, 66, 75
2, 51000, Note_on_c, 0, 66, 0
2, 51000, Note_on_c, 0, 59, 0
2, 51000, Note_on_c, 0, 62, 75
2, 51120, Note_on_c, 0, 62, 0
2, 51120, Note_on_c, 0, 62, 75
2, 51240, Note_on_c, 0, 62, 0
2, 51240, Note_on_c, 0, 66, 75
2, 51360, Note_on_c, 0, 66, 0
2, 51360, Note_on_c, 0, 58, 75
2, 51360, Note_on_c, 0, 66, 75
2, 51480, Note_on_c, 0, 66, 0
2, 51480, Note_on_c, 0, 58, 0
2, 51480, Note_on_c, 0, 62, 75
2, 51600, Note_on_c, 0, 62, 0
2, 51600, Note_on_c, 0, 62, 75
2, 51720, Note_on_c, 0, 62, 0
2, 51720, Note_on_c, 0, 65, 75
2, 51840, Note_on_c, 0, 65, 0
2, 51840, Note_on_c, 0, 55, 62
2, 51840, Note_on_c, 0, 58, 62
2, 51840, Note_on_c, 0, 63, 62
2, 52080, Note_on_c, 0, 63, 0
2, 52080, Note_on_c, 0, 58, 0
2, 52080, Note_on_c, 0, 55, 0
2, 53040, Note_on_c, 0, 61, 75
2, 53040, Note_on_c, 0, 63, 75
2, 53040, Note_on_c, 0, 67, 75
2, 53040, Note_on_c, 0, 71, 75
2, 53520, Note_on_c, 0, 71, 0
2, 53520, Note_on_c, 0, 61, 0
2, 53520, Note_on_c, 0, 63, 0
2, 53520, Note_on_c, 0, 67, 0
2, 53520, Note_on_c, 0, 61, 75
2, 53520, Note_on_c, 0, 63, 75
2, 53520, Note_on_c, 0, 67, 75
2, 53760, Note_on_c, 0, 67, 0
2, 53760, Note_on_c, 0, 63, 0
2, 53760, Note_on_c, 0, 61, 0
2, 53760, Note_on_c, 0, 59, 75
2, 53760, Note_on_c, 0, 63, 75
2, 53760, Note_on_c, 0, 68, 75
2, 54000, Note_on_c, 0, 68, 0
2, 54000, Note_on_c, 0, 63, 0
2, 54000, Note_on_c, 0, 59, 0
2, 54960, Note_on_c, 0, 68, 75
2, 54960, Note_on_c, 0, 70, 75
2, 54960, Note_on_c, 0, 78, 75
2, 55440, Note_on_c, 0, 78, 0
2, 55440, Note_on_c, 0, 70, 0
2, 55440, Note_on_c, 0, 68, 0
2, 55440, Note_on_c, 0, 68, 75
2, 55440, Note_on_c, 0, 70, 75
2, 55440, Note_on_c, 0, 74, 75
2, 55680, Note_on_c, 0, 74, 0
2, 55680, Note_on_c, 0, 70, 0
2, 55680, Note_on_c, 0, 68, 0
2, 55680, Note_on_c, 0, 66, 75
2, 55680, Note_on_c, 0, 70, 75
2, 55680, Note_on_c, 0, 75, 75
2, 55920, Note_on_c, 0, 75, 0
2, 55920, Note_on_c, 0, 70, 0
2, 55920, Note_on_c, 0, 66, 0
2, 56160, Note_on_c, 0, 63, 75
2, 56280, Note_on_c, 0, 63, 0
2, 56280, Note_on_c, 0, 62, 75
2, 56400, Note_on_c, 0, 62, 0
2, 56400, Note_on_c, 0, 62, 75
2, 56520, Note_on_c, 0, 62, 0
2, 56520, Note_on_c, 0, 63, 75
2, 56640, Note_on_c, 0, 63, 0
2, 56640, Note_on_c, 0, 63, 75
2, 56880, Note_on_c, 0, 63, 0
2, 56880, Note_on_c, 0, 73, 75
2, 56880, Note_on_c, 0, 75, 75
2, 56880, Note_on_c, 0, 83, 75
2, 57360, Note_on_c, 0, 83, 0
2, 57360, Note_on_c, 0, 75, 0
2, 57360, Note_on_c, 0, 73, 0
2, 57360, Note_on_c, 0, 73, 75
2, 57360, Note_on_c, 0, 75, 75
2, 57360, Note_on_c, 0, 79, 75
2, 57600, Note_on_c, 0, 79, 0
2, 57600, Note_on_c, 0, 75, 0
2, 57600, Note_on_c, 0, 73, 0
2, 57600, Note_on_c, 0, 71, 75
2, 57600, Note_on_c, 0, 75, 75
2, 57600, Note_on_c, 0, 80, 75
2, 57840, Note_on_c, 0, 80, 0
2, 57840, Note_on_c, 0, 75, 0
2, 57840, Note_on_c, 0, 71, 0
2, 58080, Note_on_c, 0, 63, 75
2, 58080, Note_on_c, 0, 75, 75
2, 58200, Note_on_c, 0, 75, 0
2, 58200, Note_on_c, 0, 63, 0
2, 58200, Note_on_c, 0, 62, 75
2, 58200, Note_on_c, 0, 74, 75
2, 58320, Note_on_c, 0, 74, 0
2, 58320, Note_on_c, 0, 62, 0
2, 58320, Note_on_c, 0, 62, 75
2, 58320, Note_on_c, 0, 74, 75
2, 58440, Note_on_c, 0, 74, 0
2, 58440, Note_on_c, 0, 62, 0
2, 58440, Note_on_c, 0, 63, 75
2, 58440, Note_on_c, 0, 75, 75
2, 58560, Note_on_c, 0, 75, 0
2, 58560, Note_on_c, 0, 63, 0
2, 58560, Note_on_c, 0, 63, 75
2, 58560, Note_on_c, 0, 75, 75
2, 58800, Note_on_c, 0, 75, 0
2, 58800, Note_on_c, 0, 63, 0
2, 58800, Note_on_c, 0, 80, 75
2, 58800, Note_on_c, 0, 82, 75
2, 58800, Note_on_c, 0, 90, 75
2, 59280, Note_on_c, 0, 90, 0
2, 59280, Note_on_c, 0, 82, 0
2, 59280, Note_on_c, 0, 80, 0
2, 59280, Note_on_c, 0, 80, 75
2, 59280, Note_on_c, 0, 82, 75
2, 59280, Note_on_c, 0, 86, 75
2, 59520, Note_on_c, 0, 86, 0
2, 59520, Note_on_c, 0, 82, 0
2, 59520, Note_on_c, 0, 80, 0
2, 59520, Note_on_c, 0, 75, 88
2, 59520, Note_on_c, 0, 79, 88
2, 59520, Note_on_c, 0, 82, 88
2, 59520, Note_on_c, 0, 87, 88
2, 59640, Note_on_c, 0, 87, 0
2, 59640, Note_on_c, 0, 75, 0
2, 59640, Note_on_c, 0, 79, 0
2, 59640, Note_on_c, 0, 82, 0
2, 59640, Note_on_c, 0, 74, 88
2, 59640, Note_on_c, 0, 86, 88
2, 59760, Note_on_c, 0, 86, 0
2, 59760, Note_on_c, 0, 74, 0
2, 59760, Note_on_c, 0, 74, 88
2, 59760, Note_on_c, 0, 86, 88
2, 59880, Note_on_c, 0, 86, 0
2, 59880, Note_on_c, 0, 74, 0
2, 59880, Note_on_c, 0, 75, 88
2, 59880, Note_on_c, 0, 87, 88
2, 60000, Note_on_c, 0, 87, 0
2, 60000, Note_on_c, 0, 75, 0
2, 60000, Note_on_c, 0, 75, 88
2, 60000, Note_on_c, 0, 87, 88
2, 60120, Note_on_c, 0, 87, 0
2, 60120, Note_on_c, 0, 75, 0
2, 60120, Note_on_c, 0, 74, 88
2, 60120, Note_on_c, 0, 86, 88
2, 60240, Note_on_c, 0, 86, 0
2, 60240, Note_on_c, 0, 74, 0
2, 60240, Note_on_c, 0, 74, 88
2, 60240, Note_on_c, 0, 86, 88
2, 60360, Note_on_c, 0, 86, 0
2, 60360, Note_on_c, 0, 74, 0
2, 60360, Note_on_c, 0, 75, 88
2, 60360, Note_on_c, 0, 87, 88
2, 60480, Note_on_c, 0, 87, 0
2, 60480, Note_on_c, 0, 75, 0
2, 60480, Note_on_c, 0, 75, 88
2, 60480, Note_on_c, 0, 87, 88
2, 60600, Note_on_c, 0, 87, 0
2, 60600, Note_on_c, 0, 75, 0
2, 60600, Note_on_c, 0, 74, 88
2, 60600, Note_on_c, 0, 86, 88
2, 60720, Note_on_c, 0, 86, 0
2, 60720, Note_on_c, 0, 74, 0
2, 60720, Note_on_c, 0, 74, 88
2, 60720, Note_on_c, 0, 86, 88
2, 60840, Note_on_c, 0, 86, 0
2, 60840, Note_on_c, 0, 74, 0
2, 60840, Note_on_c, 0, 75, 88
2, 60840, Note_on_c, 0, 87, 88
2, 60960, Note_on_c, 0, 87, 0
2, 60960, Note_on_c, 0, 75, 0
2, 60960, Note_on_c, 0, 75, 88
2, 60960, Note_on_c, 0, 87, 88
2, 61080, Note_on_c, 0, 87, 0
2, 61080, Note_on_c, 0, 75, 0
2, 61080, Note_on_c, 0, 74, 88
2, 61080, Note_on_c, 0, 86, 88
2, 61200, Note_on_c, 0, 86, 0
2, 61200, Note_on_c, 0, 74, 0
2, 61200, Note_on_c, 0, 74, 88
2, 61200, Note_on_c, 0, 86, 88
2, 61320, Note_on_c, 0, 86, 0
2, 61320, Note_on_c, 0, 74, 0
2, 61320, Note_on_c, 0, 75, 88
2, 61320, Note_on_c, 0, 87, 88
2, 61440, Note_on_c, 0, 87, 0
2, 61440, Note_on_c, 0, 75, 0
2, 61440, Control_c, 0, 64, 127
2, 61440, Note_on_c, 0, 76, 101
2, 61440, Note_on_c, 0, 80, 101
2, 61440, Note_on_c, 0, 83, 101
2, 61440, Note_on_c, 0, 88, 101
2, 61680, Note_on_c, 0, 88, 0
2, 61680, Note_on_c, 0, 76, 0
2, 61680, Note_on_c, 0, 80, 0
2, 61680, Note_on_c, 0, 83, 0
2, 61680, Note_on_c, 0, 59, 101
2, 61680, Note_on_c, 0, 64, 101
2, 61800, Note_on_c, 0, 64, 0
2, 61800, Note_on_c, 0, 59, 0
2, 61800, Note_on_c, 0, 56, 101
2, 61920, Note_on_c, 0, 56, 0
2, 61920, Note_on_c, 0, 64, 101
2, 61920, Note_on_c, 0, 68, 101
2, 62040, Note_on_c, 0, 68, 0
2, 62040, Note_on_c, 0, 64, 0
2, 62040, Note_on_c, 0, 59, 101
2, 62160, Note_on_c, 0, 59, 0
2, 62160, Note_on_c, 0, 68, 101
2, 62160, Note_on_c, 0, 71, 101
2, 62280, Note_on_c, 0, 71, 0
2, 62280, Note_on_c, 0, 68, 0
2, 62280, Note_on_c, 0, 64, 101
2, 62400, Note_on_c, 0, 64, 0
2, 62400, Note_on_c, 0, 71, 101
2, 62400, Note_on_c, 0, 76, 101
2, 62520, Note_on_c, 0, 76, 0
2, 62520, Note_on_c, 0, 71, 0
2, 62520, Note_on_c, 0, 68, 101
2, 62640, Note_on_c, 0, 68, 0
2, 62640, Note_on_c, 0, 76, 101
2, 62640, Note_on_c, 0, 80, 101
2, 62760, Note_on_c, 0, 80, 0
2, 62760, Note_on_c, 0, 76, 0
2, 62760, Note_on_c, 0, 71, 101
2, 62880, Note_on_c, 0, 71, 0
2, 62880, Note_on_c, 0, 80, 101
2, 62880, Note_on_c, 0, 83, 101
2, 63000, Note_on_c, 0, 83, 0
2, 63000, Note_on_c, 0, 80, 0
2, 63000, Note_on_c, 0, 76, 101
2, 63120, Note_on_c, 0, 76, 0
2, 63120, Note_on_c, 0, 83, 101
2, 63120, Note_on_c, 0, 88, 101
2, 63240, Note_on_c, 0, 88, 0
2, 63240, Note_on_c, 0, 83, 0
2, 63240, Control_c, 0, 64, 0
2, 63240, Note_on_c, 0, 80, 101
2, 63360, Note_on_c, 0, 80, 0
2, 63360, Note_on_c, 0, 76, 101
2, 63360, Note_on_c, 0, 80, 101
2, 63360, Note_on_c, 0, 83, 101
2, 63360, Note_on_c, 0, 88, 101
2, 63480, Note_on_c, 0, 88, 0
2, 63480, Note_on_c, 0, 76, 0
2, 63480, Note_on_c, 0, 80, 0
2, 63480, Note_on_c, 0, 83, 0
2, 63480, Note_on_c, 0, 75, 101
2, 63480, Note_on_c, 0, 87, 101
2, 63600, Note_on_c, 0, 87, 0
2, 63600, Note_on_c, 0, 75, 0
2, 63600, Note_on_c, 0, 75, 101
2, 63600, Note_on_c, 0, 87, 101
2, 63720, Note_on_c, 0, 87, 0
2, 63720, Note_on_c, 0, 75, 0
2, 63720, Note_on_c, 0, 76, 101
2, 63720, Note_on_c, 0, 88, 101
2, 63840, Note_on_c, 0, 88, 0
2, 63840, Note_on_c, 0, 76, 0
2, 63840, Note_on_c, 0, 76, 101
2, 63840, Note_on_c, 0, 88, 101
2, 63960, Note_on_c, 0, 88, 0
2, 63960, Note_on_c, 0, 76, 0
2, 63960, Note_on_c, 0, 75, 101
2, 63960, Note_on_c, 0, 87, 101
2, 64080, Note_on_c, 0, 87, 0
2, 64080, Note_on_c, 0, 75, 0
2, 64080, Note_on_c, 0, 75, 101
2, 64080, Note_on_c, 0, 87, 101
2, 64200, Note_on_c, 0, 87, 0
2, 64200, Note_on_c, 0, 75, 0
2, 64200, Note_on_c, 0, 76, 101
2, 64200, Note_on_c, 0, 88, 101
2, 64320, Note_on_c, 0, 88, 0
2, 64320, Note_on_c, 0, 76, 0
2, 64320, Note_on_c, 0, 76, 101
2, 64320, Note_on_c, 0, 88, 101
2, 64440, Note_on_c, 0, 88, 0
2, 64440, Note_on_c, 0, 76, 0
2, 64440, Note_on_c, 0, 75, 101
2, 64440, Note_on_c, 0, 87, 101
2, 64560, Note_on_c, 0, 87, 0
2, 64560, Note_on_c, 0, 75, 0
2, 64560, Note_on_c, 0, 75, 101
2, 64560, Note_on_c, 0, 87, 101
2, 64680, Note_on_c, 0, 87, 0
2, 64680, Note_on_c, 0, 75, 0
2, 64680, Note_on_c, 0, 76, 101
2, 64680, Note_on_c, 0, 88, 101
2, 64800, Note_on_c, 0, 88, 0
2, 64800, Note_on_c, 0, 76, 0
2, 64800, Note_on_c, 0, 76, 101
2, 64800, Note_on_c, 0, 88, 101
2, 64920, Note_on_c, 0, 88, 0
2, 64920, Note_on_c, 0, 76, 0
2, 64920, Note_on_c, 0, 75, 101
2, 64920, Note_on_c, 0, 87, 101
2, 65040, Note_on_c, 0, 87, 0
2, 65040, Note_on_c, 0, 75, 0
2, 65040, Note_on_c, 0, 75, 101
2, 65040, Note_on_c, 0, 87, 101
2, 65160, Note_on_c, 0, 87, 0
2, 65160, Note_on_c, 0, 75, 0
2, 65160, Note_on_c, 0, 76, 101
2, 65160, Note_on_c, 0, 88, 101
2, 65280, Note_on_c, 0, 88, 0
2, 65280, Note_on_c, 0, 76, 0
2, 65280, Control_c, 0, 64, 127
2, 65280, Note_on_c, 0, 77, 101
2, 65280, Note_on_c, 0, 81, 101
2, 65280, Note_on_c, 0, 84, 101
2, 65280, Note_on_c, 0, 89, 101
2, 65520, Note_on_c, 0, 89, 0
2, 65520, Note_on_c, 0, 77, 0
2, 65520, Note_on_c, 0, 81, 0
2, 65520, Note_on_c, 0, 84, 0
2, 65520, Note_on_c, 0, 60, 101
2, 65520, Note_on_c, 0, 65, 101
2, 65640, Note_on_c, 0, 65, 0
2, 65640, Note_on_c, 0, 60, 0
2, 65640, Note_on_c, 0, 57, 101
2, 65760, Note_on_c, 0, 57, 0
2, 65760, Note_on_c, 0, 65, 101
2, 65760, Note_on_c, 0, 69, 101
2, 65880, Note_on_c, 0, 69, 0
2, 65880, Note_on_c, 0, 65, 0
2, 65880, Note_on_c, 0, 60, 101
2, 66000, Note_on_c, 0, 60, 0
2, 66000, Note_on_c, 0, 69, 101
2, 66000, Note_on_c, 0, 72, 101
2, 66120, Note_on_c, 0, 72, 0
2, 66120, Note_on_c, 0, 69, 0
2, 66120, Note_on_c, 0, 65, 101
2, 66240, Note_on_c, 0, 65, 0
2, 66240, Note_on_c, 0, 72, 101
2, 66240, Note_on_c, 0, 77, 101
2, 66360, Note_on_c, 0, 77, 0
2, 66360, Note_on_c, 0, 72, 0
2, 66360, Note_on_c, 0, 69, 101
2, 66480, Note_on_c, 0, 69, 0
2, 66480, Note_on_c, 0, 77, 101
2, 66480, Note_on_c, 0, 81, 101
2, 66600, Note_on_c, 0, 81, 0
2, 66600, Note_on_c, 0, 77, 0
2, 66600, Note_on_c, 0, 72, 101
2, 66720, Note_on_c, 0, 72, 0
2, 66720, Note_on_c, 0, 81, 101
2, 66720, Note_on_c, 0, 84, 101
2, 66840, Note_on_c, 0, 84, 0
2, 66840, Note_on_c, 0, 81, 0
2, 66840, Note_on_c, 0, 77, 101
2, 66960, Note_on_c, 0, 77, 0
2, 66960, Note_on_c, 0, 84, 101
2, 66960, Note_on_c, 0, 89, 101
2, 67080, Note_on_c, 0, 89, 0
2, 67080, Note_on_c, 0, 84, 0
2, 67080, Control_c, 0, 64, 0
2, 67080, Note_on_c, 0, 81, 101
2, 67200, Note_on_c, 0, 81, 0
2, 67200, Note_on_c, 0, 77, 101
2, 67200, Note_on_c, 0, 81, 101
2, 67200, Note_on_c, 0, 84, 101
2, 67200, Note_on_c, 0, 89, 101
2, 67320, Note_on_c, 0, 89, 0
2, 67320, Note_on_c, 0, 77, 0
2, 67320, Note_on_c, 0, 81, 0
2, 67320, Note_on_c, 0, 84, 0
2, 67320, Note_on_c, 0, 76, 101
2, 67320, Note_on_c, 0, 88, 101
2, 67440, Note_on_c, 0, 88, 0
2, 67440, Note_on_c, 0, 76, 0
2, 67440, Note_on_c, 0, 76, 101
2, 67440, Note_on_c, 0, 88, 101
2, 67560, Note_on_c, 0, 88, 0
2, 67560, Note_on_c, 0, 76, 0
2, 67560, Note_on_c, 0, 77, 101
2, 67560, Note_on_c, 0, 89, 101
2, 67680, Note_on_c, 0, 89, 0
2, 67680, Note_on_c, 0, 77, 0
2, 67680, Note_on_c, 0, 77, 101
2, 67680, Note_on_c, 0, 89, 101
2, 67800, Note_on_c, 0, 89, 0
2, 67800, Note_on_c, 0, 77, 0
2, 67800, Note_on_c, 0, 76, 101
2, 67800, Note_on_c, 0, 88, 101
2, 67920, Note_on_c, 0, 88, 0
2, 67920, Note_on_c, 0, 76, 0
2, 67920, Note_on_c, 0, 76, 101
2, 67920, Note_on_c, 0, 88, 101
2, 68040, Note_on_c, 0, 88, 0
2, 68040, Note_on_c, 0, 76, 0
2, 68040, Note_on_c, 0, 77, 101
2, 68040, Note_on_c, 0, 89, 101
2, 68160, Note_on_c, 0, 89, 0
2, 68160, Note_on_c, 0, 77, 0
2, 68160, Note_on_c, 0, 77, 101
2, 68160, Note_on_c, 0, 89, 101
2, 68280, Note_on_c, 0, 89, 0
2, 68280, Note_on_c, 0, 77, 0
2, 68280, Note_on_c, 0, 76, 101
2, 68280, Note_on_c, 0, 88, 101
2, 68400, Note_on_c, 0, 88, 0
2, 68400, Note_on_c, 0, 76, 0
2, 68400, Note_on_c, 0, 76, 101
2, 68400, Note_on_c, 0, 88, 101
2, 68520, Note_on_c, 0, 88, 0
2, 68520, Note_on_c, 0, 76, 0
2, 68520, Note_on_c, 0, 77, 101
2, 68520, Note_on_c, 0, 89, 101
2, 68640, Note_on_c, 0, 89, 0
2, 68640, Note_on_c, 0, 77, 0
2, 68640, Note_on_c, 0, 77, 101
2, 68640, Note_on_c, 0, 89, 101
2, 68760, Note_on_c, 0, 89, 0
2, 68760, Note_on_c, 0, 77, 0
2, 68760, Note_on_c, 0, 76, 101
2, 68760, Note_on_c, 0, 88, 101
2, 68880, Note_on_c, 0, 88, 0
2, 68880, Note_on_c, 0, 76, 0
2, 68880, Note_on_c, 0, 76, 101
2, 68880, Note_on_c, 0, 88, 101
2, 69000, Note_on_c, 0, 88, 0
2, 69000, Note_on_c, 0, 76, 0
2, 69000, Note_on_c, 0, 77, 101
2, 69000, Note_on_c, 0, 89, 101
2, 69120, Note_on_c, 0, 89, 0
2, 69120, Note_on_c, 0, 77, 0
2, 69120, Control_c, 0, 64, 127
2, 69120, Note_on_c, 0, 78, 101
2, 69120, Note_on_c, 0, 82, 101
2, 69120, Note_on_c, 0, 87, 101
2, 69120, Note_on_c, 0, 90, 101
2, 69360, Note_on_c, 0, 90, 0
2, 69360, Note_on_c, 0, 78, 0
2, 69360, Note_on_c, 0, 82, 0
2, 69360, Note_on_c, 0, 87, 0
2, 69480, Note_on_c, 0, 57, 101
2, 69480, Note_on_c, 0, 69, 101
2, 69720, Note_on_c, 0, 69, 0
2, 69720, Note_on_c, 0, 57, 0
2, 69720, Note_on_c, 0, 58, 101
2, 69720, Note_on_c, 0, 70, 101
2, 69960, Note_on_c, 0, 70, 0
2, 69960, Note_on_c, 0, 58, 0
2, 69960, Note_on_c, 0, 62, 101
2, 69960, Note_on_c, 0, 74, 101
2, 70200, Note_on_c, 0, 74, 0
2, 70200, Note_on_c, 0, 62, 0
2, 70200, Note_on_c, 0, 63, 101
2, 70200, Note_on_c, 0, 75, 101
2, 70440, Note_on_c, 0, 75, 0
2, 70440, Note_on_c, 0, 63, 0
2, 70440, Note_on_c, 0, 65, 101
2, 70440, Note_on_c, 0, 77, 101
2, 70680, Note_on_c, 0, 77, 0
2, 70680, Note_on_c, 0, 65, 0
2, 70680, Note_on_c, 0, 66, 101
2, 70680, Note_on_c, 0, 78, 101
2, 70920, Note_on_c, 0, 78, 0
2, 70920, Note_on_c, 0, 66, 0
2, 70920, Note_on_c, 0, 70, 101
2, 70920, Note_on_c, 0, 82, 101
2, 71040, Note_on_c, 0, 82, 0
2, 71040, Note_on_c, 0, 70, 0
2, 71040, Note_on_c, 0, 75, 101
2, 71040, Note_on_c, 0, 87, 101
2, 71280, Note_on_c, 0, 87, 0
2, 71280, Note_on_c, 0, 75, 0
2, 71280, Note_on_c, 0, 78, 101
2, 71280, Note_on_c, 0, 90, 101
2, 71520, Note_on_c, 0, 90, 0
2, 71520, Note_on_c, 0, 78, 0
2, 71520, Control_c, 0, 64, 0
2, 71520, Note_on_c, 0, 82, 101
2, 71520, Note_on_c, 0, 87, 101
2, 71520, Note_on_c, 0, 90, 101
2, 71520, Note_on_c, 0, 94, 101
2, 72480, Note_on_c, 0, 94, 0
2, 72480, Note_on_c, 0, 82, 0
2, 72480, Note_on_c, 0, 87, 0
2, 72480, Note_on_c, 0, 90, 0
2, 72480, Note_on_c, 0, 70, 101
2, 72480, Note_on_c, 0, 74, 101
2, 72480, Note_on_c, 0, 77, 101
2, 72480, Note_on_c, 0, 82, 101
2, 72960, Note_on_c, 0, 82, 0
2, 72960, Note_on_c, 0, 70, 0
2, 72960, Note_on_c, 0, 74, 0
2, 72960, Note_on_c, 0, 77, 0
2, 72960, Note_on_c, 0, 63, 88
2, 72960, Note_on_c, 0, 66, 88
2, 72960, Note_on_c, 0, 70, 88
2, 72960, Note_on_c, 0, 75, 88
2, 73200, Note_on_c, 0, 75, 0
2, 73200, Note_on_c, 0, 63, 0
2, 73200, Note_on_c, 0, 66, 0
2, 73200, Note_on_c, 0, 70, 0
2, 73200, Note_on_c, 0, 58, 88
2, 73200, Note_on_c, 0, 63, 88
2, 73440, Note_on_c, 0, 63, 0
2, 73440, Note_on_c, 0, 58, 0
2, 73440, Note_on_c, 0, 61, 88
2, 73440, Note_on_c, 0, 64, 88
2, 73440, Note_on_c, 0, 66, 88
2, 74400, Note_on_c, 0, 66, 0
2, 74400, Note_on_c, 0, 64, 0
2, 74400, Note_on_c, 0, 61, 0
2, 74400, Note_on_c, 0, 61, 75
2, 74400, Note_on_c, 0, 64, 75
2, 74400, Note_on_c, 0, 66, 75
2, 74880, Note_on_c, 0, 66, 0
2, 74880, Note_on_c, 0, 64, 0
2, 74880, Note_on_c, 0, 61, 0
2, 75360, Note_on_c, 0, 75, 88
2, 75519, Note_on_c, 0, 75, 0
2, 75519, Note_on_c, 0, 73, 88
2, 75680, Note_on_c, 0, 73, 0
2, 75680, Note_on_c, 0, 71, 88
2, 75840, Note_on_c, 0, 71, 0
2, 75840, Note_on_c, 0, 71, 88
2, 76560, Note_on_c, 0, 71, 0
2, 76560, Note_on_c, 0, 70, 88
2, 76800, Note_on_c, 0, 70, 0
2, 76800, Note_on_c, 0, 68, 88
2, 77280, Note_on_c, 0, 68, 0
2, 77280, Note_on_c, 0, 80, 88
2, 77439, Note_on_c, 0, 80, 0
2, 77439, Note_on_c, 0, 78, 88
2, 77600, Note_on_c, 0, 78, 0
2, 77600, Note_on_c, 0, 76, 88
2, 77760, Note_on_c, 0, 76, 0
2, 77760, Note_on_c, 0, 76, 88
2, 78480, Note_on_c, 0, 76, 0
2, 78480, Note_on_c, 0, 75, 88
2, 78720, Note_on_c, 0, 75, 0
2, 78720, Note_on_c, 0, 73, 88
2, 79200, Note_on_c, 0, 73, 0
2, 79200, Note_on_c, 0, 64, 88
2, 79359, Note_on_c, 0, 64, 0
2, 79359, Note_on_c, 0, 63, 88
2, 79520, Note_on_c, 0, 63, 0
2, 79520, Note_on_c, 0, 61, 88
2, 79680, Note_on_c, 0, 61, 0
2, 79680, Note_on_c, 0, 61, 88
2, 80400, Note_on_c, 0, 61, 0
2, 80400, Note_on_c, 0, 60, 88
2, 80640, Note_on_c, 0, 60, 0
2, 80640, Note_on_c, 0, 61, 88
2, 81120, Note_on_c, 0, 61, 0
2, 81120, Note_on_c, 0, 73, 88
2, 81279, Note_on_c, 0, 73, 0
2, 81279, Note_on_c, 0, 71, 88
2, 81440, Note_on_c, 0, 71, 0
2, 81440, Note_on_c, 0, 69, 88
2, 81600, Note_on_c, 0, 69, 0
2, 81600, Note_on_c, 0, 69, 88
2, 82320, Note_on_c, 0, 69, 0
2, 82320, Note_on_c, 0, 68, 88
2, 82560, Note_on_c, 0, 68, 0
2, 82560, Note_on_c, 0, 57, 88
2, 82560, Note_on_c, 0, 61, 88
2, 82560, Note_on_c, 0, 66, 88
2, 82800, Note_on_c, 0, 66, 0
2, 82800, Note_on_c, 0, 61, 0
2, 82800, Note_on_c, 0, 57, 0
2, 83040, Note_on_c, 0, 66, 88
2, 83040, Note_on_c, 0, 78, 88
2, 83199, Note_on_c, 0, 78, 0
2, 83199, Note_on_c, 0, 66, 0
2, 83199, Note_on_c, 0, 68, 88
2, 83199, Note_on_c, 0, 80, 88
2, 83360, Note_on_c, 0, 80, 0
2, 83360, Note_on_c, 0, 68, 0
2, 83360, Note_on_c, 0, 69, 88
2, 83360, Note_on_c, 0, 81, 88
2, 83520, Note_on_c, 0, 81, 0
2, 83520, Note_on_c, 0, 69, 0
2, 83520, Note_on_c, 0, 71, 88
2, 83520, Note_on_c, 0, 83, 88
2, 84240, Note_on_c, 0, 83, 0
2, 84240, Note_on_c, 0, 71, 0
2, 84240, Note_on_c, 0, 68, 88
2, 84240, Note_on_c, 0, 80, 88
2, 84480, Note_on_c, 0, 80, 0
2, 84480, Note_on_c, 0, 68, 0
2, 84480, Note_on_c, 0, 69, 88
2, 84480, Note_on_c, 0, 81, 88
2, 84960, Note_on_c, 0, 81, 0
2, 84960, Note_on_c, 0, 69, 0
2, 84960, Note_on_c, 0, 69, 88
2, 84960, Note_on_c, 0, 81, 88
2, 85119, Note_on_c, 0, 81, 0
2, 85119, Note_on_c, 0, 69, 0
2, 85119, Note_on_c, 0, 71, 88
2, 85119, Note_on_c, 0, 83, 88
2, 85280, Note_on_c, 0, 83, 0
2, 85280, Note_on_c, 0, 71, 0
2, 85280, Note_on_c, 0, 73, 88
2, 85280, Note_on_c, 0, 85, 88
2, 85440, Note_on_c, 0, 85, 0
2, 85440, Note_on_c, 0, 73, 0
2, 85440, Note_on_c, 0, 74, 88
2, 85440, Note_on_c, 0, 86, 88
2, 86160, Note_on_c, 0, 86, 0
2, 86160, Note_on_c, 0, 74, 0
2, 86160, Note_on_c, 0, 71, 88
2, 86160, Note_on_c, 0, 83, 88
2, 86400, Note_on_c, 0, 83, 0
2, 86400, Note_on_c, 0, 71, 0
2, 86400, Note_on_c, 0, 73, 88
2, 86400, Note_on_c, 0, 85, 88
2, 86880, Note_on_c, 0, 85, 0
2, 86880, Note_on_c, 0, 73, 0
2, 86880, Note_on_c, 0, 66, 88
2, 86880, Note_on_c, 0, 78, 88
2, 87039, Note_on_c, 0, 78, 0
2, 87039, Note_on_c, 0, 66, 0
2, 87039, Note_on_c, 0, 68, 88
2, 87039, Note_on_c, 0, 80, 88
2, 87200, Note_on_c, 0, 80, 0
2, 87200, Note_on_c, 0, 68, 0
2, 87200, Note_on_c, 0, 69, 88
2, 87200, Note_on_c, 0, 81, 88
2, 87360, Note_on_c, 0, 81, 0
2, 87360, Note_on_c, 0, 69, 0
2, 87360, Note_on_c, 0, 71, 88
2, 87360, Note_on_c, 0, 83, 88
2, 88080, Note_on_c, 0, 83, 0
2, 88080, Note_on_c, 0, 71, 0
2, 88080, Note_on_c, 0, 68, 88
2, 88080, Note_on_c, 0, 80, 88
2, 88320, Note_on_c, 0, 80, 0
2, 88320, Note_on_c, 0, 68, 0
2, 88320, Note_on_c, 0, 69, 88
2, 88320, Note_on_c, 0, 81, 88
2, 88800, Note_on_c, 0, 81, 0
2, 88800, Note_on_c, 0, 69, 0
2, 88800, Note_on_c, 0, 69, 88
2, 88800, Note_on_c, 0, 81, 88
2, 88959, Note_on_c, 0, 81, 0
2, 88959, Note_on_c, 0, 69, 0
2, 88959, Note_on_c, 0, 71, 88
2, 88959, Note_on_c, 0, 83, 88
2, 89120, Note_on_c, 0, 83, 0
2, 89120, Note_on_c, 0, 71, 0
2, 89120, Note_on_c, 0, 73, 88
2, 89120, Note_on_c, 0, 85, 88
2, 89280, Note_on_c, 0, 85, 0
2, 89280, Note_on_c, 0, 73, 0
2, 89280, Note_on_c, 0, 74, 88
2, 89280, Note_on_c, 0, 86, 88
2, 90000, Note_on_c, 0, 86, 0
2, 90000, Note_on_c, 0, 74, 0
2, 90000, Note_on_c, 0, 71, 88
2, 90000, Note_on_c, 0, 83, 88
2, 90240, Note_on_c, 0, 83, 0
2, 90240, Note_on_c, 0, 71, 0
2, 90240, Note_on_c, 0, 73, 88
2, 90240, Note_on_c, 0, 85, 88
2, 90720, Note_on_c, 0, 85, 0
2, 90720, Note_on_c, 0, 73, 0
2, 90720, Note_on_c, 0, 73, 88
2, 90720, Note_on_c, 0, 85, 88
2, 90879, Note_on_c, 0, 85, 0
2, 90879, Note_on_c, 0, 73, 0
2, 90879, Note_on_c, 0, 74, 88
2, 90879, Note_on_c, 0, 86, 88
2, 91040, Note_on_c, 0, 86, 0
2, 91040, Note_on_c, 0, 74, 0
2, 91040, Note_on_c, 0, 76, 88
2, 91040, Note_on_c, 0, 88, 88
2, 91200, Note_on_c, 0, 88, 0
2, 91200, Note_on_c, 0, 76, 0
2, 91200, Note_on_c, 0, 78, 88
2, 91200, Note_on_c, 0, 90, 88
2, 91920, Note_on_c, 0, 90, 0
2, 91920, Note_on_c, 0, 78, 0
2, 91920, Note_on_c, 0, 74, 88
2, 91920, Note_on_c, 0, 86, 88
2, 92160, Note_on_c, 0, 86, 0
2, 92160, Note_on_c, 0, 74, 0
2, 92160, Note_on_c, 0, 76, 88
2, 92160, Note_on_c, 0, 88, 88
2, 92640, Note_on_c, 0, 88, 0
2, 92640, Note_on_c, 0, 76, 0
2, 92640, Note_on_c, 0, 73, 88
2, 92640, Note_on_c, 0, 85, 88
2, 92799, Note_on_c, 0, 85, 0
2, 92799, Note_on_c, 0, 73, 0
2, 92799, Note_on_c, 0, 74, 88
2, 92799, Note_on_c, 0, 86, 88
2, 92960, Note_on_c, 0, 86, 0
2, 92960, Note_on_c, 0, 74, 0
2, 92960, Note_on_c, 0, 76, 88
2, 92960, Note_on_c, 0, 88, 88
2, 93120, Note_on_c, 0, 88, 0
2, 93120, Note_on_c, 0, 76, 0
2, 93120, Note_on_c, 0, 78, 88
2, 93120, Note_on_c, 0, 90, 88
2, 93840, Note_on_c, 0, 90, 0
2, 93840, Note_on_c, 0, 78, 0
2, 93840, Note_on_c, 0, 74, 88
2, 93840, Note_on_c, 0, 86, 88
2, 94080, Note_on_c, 0, 86, 0
2, 94080, Note_on_c, 0, 74, 0
2, 94080, Note_on_c, 0, 76, 88
2, 94080, Note_on_c, 0, 88, 88
2, 94560, Note_on_c, 0, 88, 0
2, 94560, Note_on_c, 0, 76, 0
2, 94560, Note_on_c, 0, 73, 88
2, 94560, Note_on_c, 0, 85, 88
2, 94719, Note_on_c, 0, 85, 0
2, 94719, Note_on_c, 0, 73, 0
2, 94719, Note_on_c, 0, 74, 88
2, 94719, Note_on_c, 0, 86, 88
2, 94880, Note_on_c, 0, 86, 0
2, 94880, Note_on_c, 0, 74, 0
2, 94880, Note_on_c, 0, 76, 88
2, 94880, Note_on_c, 0, 88, 88
2, 95040, Note_on_c, 0, 88, 0
2, 95040, Note_on_c, 0, 76, 0
2, 95040, Note_on_c, 0, 78, 88
2, 95040, Note_on_c, 0, 90, 88
2, 95280, Note_on_c, 0, 90, 0
2, 95280, Note_on_c, 0, 78, 0
2, 95280, Note_on_c, 0, 66, 88
2, 95280, Note_on_c, 0, 69, 88
2, 95280, Note_on_c, 0, 78, 88
2, 95520, Note_on_c, 0, 78, 0
2, 95520, Note_on_c, 0, 69, 0
2, 95520, Note_on_c, 0, 66, 0
2, 95520, Note_on_c, 0, 65, 88
2, 95520, Note_on_c, 0, 68, 88
2, 95520, Note_on_c, 0, 77, 88
2, 96480, Note_on_c, 0, 77, 0
2, 96480, Note_on_c, 0, 68, 0
2, 96480, Note_on_c, 0, 65, 0
2, 96480, Note_on_c, 0, 65, 88
2, 96480, Note_on_c, 0, 68, 88
2, 96480, Note_on_c, 0, 74, 88
2, 96639, Note_on_c, 0, 74, 0
2, 96639, Note_on_c, 0, 68, 0
2, 96639, Note_on_c, 0, 65, 0
2, 96639, Note_on_c, 0, 65, 88
2, 96639, Note_on_c, 0, 68, 88
2, 96639, Note_on_c, 0, 73, 88
2, 96800, Note_on_c, 0, 73, 0
2, 96800, Note_on_c, 0, 68, 0
2, 96800, Note_on_c, 0, 65, 0
2, 96800, Note_on_c, 0, 65, 88
2, 96800, Note_on_c, 0, 68, 88
2, 96800, Note_on_c, 0, 74, 88
2, 96960, Note_on_c, 0, 74, 0
2, 96960, Note_on_c, 0, 68, 0
2, 96960, Note_on_c, 0, 65, 0
2, 96960, Note_on_c, 0, 66, 88
2, 96960, Note_on_c, 0, 69, 88
2, 96960, Note_on_c, 0, 74, 88
2, 96960, Note_on_c, 0, 78, 88
2, 97200, Note_on_c, 0, 78, 0
2, 97200, Note_on_c, 0, 66, 0
2, 97200, Note_on_c, 0, 69, 0
2, 97200, Note_on_c, 0, 74, 0
2, 97200, Note_on_c, 0, 54, 88
2, 97200, Note_on_c, 0, 57, 88
2, 97200, Note_on_c, 0, 66, 88
2, 97440, Note_on_c, 0, 66, 0
2, 97440, Note_on_c, 0, 57, 0
2, 97440, Note_on_c, 0, 54, 0
2, 97440, Note_on_c, 0, 53, 88
2, 97440, Note_on_c, 0, 56, 88
2, 97440, Note_on_c, 0, 59, 88
2, 97440, Note_on_c, 0, 65, 88
2, 98400, Note_on_c, 0, 65, 0
2, 98400, Note_on_c, 0, 53, 0
2, 98400, Note_on_c, 0, 56, 0
2, 98400, Note_on_c, 0, 59, 0
2, 98400, Note_on_c, 0, 53, 88
2, 98400, Note_on_c, 0, 56, 88
2, 98400, Note_on_c, 0, 59, 88
2, 98400, Note_on_c, 0, 62, 88
2, 98559, Note_on_c, 0, 62, 0
2, 98559, Note_on_c, 0, 53, 0
2, 98559, Note_on_c, 0, 56, 0
2, 98559, Note_on_c, 0, 59, 0
2, 98559, Note_on_c, 0, 53, 88
2, 98559, Note_on_c, 0, 56, 88
2, 98559, Note_on_c, 0, 59, 88
2, 98559, Note_on_c, 0, 61, 88
2, 98720, Note_on_c, 0, 61, 0
2, 98720, Note_on_c, 0, 53, 0
2, 98720, Note_on_c, 0, 56, 0
2, 98720, Note_on_c, 0, 59, 0
2, 98720, Note_on_c, 0, 53, 88
2, 98720, Note_on_c, 0, 56, 88
2, 98720, Note_on_c, 0, 59, 88
2, 98720, Note_on_c, 0, 62, 88
2, 98880, Note_on_c, 0, 62, 0
2, 98880, Note_on_c, 0, 53, 0
2, 98880, Note_on_c, 0, 56, 0
2, 98880, Note_on_c, 0, 59, 0
2, 98880, Note_on_c, 0, 54, 88
2, 98880, Note_on_c, 0, 57, 88
2, 98880, Note_on_c, 0, 66, 88
2, 99120, Note_on_c, 0, 66, 0
2, 99120, Note_on_c, 0, 57, 0
2, 99120, Note_on_c, 0, 54, 0
2, 99120, Note_on_c, 0, 54, 88
2, 99120, Note_on_c, 0, 57, 88
2, 99120, Note_on_c, 0, 62, 88
2, 99600, Note_on_c, 0, 62, 0
2, 99600, Note_on_c, 0, 57, 0
2, 99600, Note_on_c, 0, 54, 0
2, 99600, Note_on_c, 0, 54, 88
2, 99600, Note_on_c, 0, 57, 88
2, 99600, Note_on_c, 0, 66, 88
2, 100080, Note_on_c, 0, 66, 0
2, 100080, Note_on_c, 0, 57, 0
2, 100080, Note_on_c, 0, 54, 0
2, 100080, Note_on_c, 0, 54, 75
2, 100080, Note_on_c, 0, 57, 75
2, 100080, Note_on_c, 0, 62, 75
2, 100560, Note_on_c, 0, 62, 0
2, 100560, Note_on_c, 0, 57, 0
2, 100560, Note_on_c, 0, 54, 0
2, 100560, Note_on_c, 0, 54, 75
2, 100560, Note_on_c, 0, 57, 75
2, 100560, Note_on_c, 0, 66, 75
2, 101040, Note_on_c, 0, 66, 0
2, 101040, Note_on_c, 0, 57, 0
2, 101040, Note_on_c, 0, 54, 0
2, 101040, Note_on_c, 0, 54, 62
2, 101040, Note_on_c, 0, 57, 62
2, 101040, Note_on_c, 0, 62, 62
2, 101520, Note_on_c, 0, 62, 0
2, 101520, Note_on_c, 0, 57, 0
2, 101520, Note_on_c, 0, 54, 0
2, 101520, Note_on_c, 0, 54, 62
2, 101520, Note_on_c, 0, 57, 62
2, 101520, Note_on_c, 0, 66, 62
2, 101760, Note_on_c, 0, 66, 0
2, 101760, Note_on_c, 0, 57, 0
2, 101760, Note_on_c, 0, 54, 0
2, 103680, Note_on_c, 0, 58, 62
2, 104760, Note_on_c, 0, 58, 0
2, 104760, Control_c, 0, 64, 127
2, 104760, Note_on_c, 0, 58, 62
2, 104880, Note_on_c, 0, 58, 0
2, 104880, Note_on_c, 0, 59, 62
2, 105000, Note_on_c, 0, 59, 0
2, 105000, Note_on_c, 0, 60, 62
2, 105120, Note_on_c, 0, 60, 0
2, 105120, Note_on_c, 0, 61, 62
2, 105240, Note_on_c, 0, 61, 0
2, 105240, Note_on_c, 0, 62, 62
2, 105360, Note_on_c, 0, 62, 0
2, 105360, Note_on_c, 0, 63, 62
2, 105480, Note_on_c, 0, 63, 0
2, 105480, Control_c, 0, 64, 0
2, 105480, Note_on_c, 0, 64, 62
2, 105600, Note_on_c, 0, 64, 0
2, 105720, Control_c, 0, 64, 127
2, 105720, Note_on_c, 0, 67, 75
2, 105840, Note_on_c, 0, 67, 0
2, 105840, Note_on_c, 0, 68, 75
2, 105960, Note_on_c, 0, 68, 0
2, 105960, Note_on_c, 0, 69, 75
2, 106080, Note_on_c, 0, 69, 0
2, 106080, Note_on_c, 0, 70, 75
2, 106200, Note_on_c, 0, 70, 0
2, 106200, Note_on_c, 0, 71, 75
2, 106320, Note_on_c, 0, 71, 0
2, 106320, Note_on_c, 0, 72, 75
2, 106440, Note_on_c, 0, 72, 0
2, 106440, Control_c, 0, 64, 0
2, 106440, Note_on_c, 0, 73, 75
2, 106560, Note_on_c, 0, 73, 0
2, 106680, Control_c, 0, 64, 127
2, 106680, Note_on_c, 0, 76, 88
2, 106800, Note_on_c, 0, 76, 0
2, 106800, Note_on_c, 0, 77, 88
2, 106920, Note_on_c, 0, 77, 0
2, 106920, Note_on_c, 0, 78, 88
2, 107040, Note_on_c, 0, 78, 0
2, 107040, Note_on_c, 0, 79, 88
2, 107160, Note_on_c, 0, 79, 0
2, 107160, Note_on_c, 0, 80, 88
2, 107280, Note_on_c, 0, 80, 0
2, 107280, Note_on_c, 0, 81, 88
2, 107400, Note_on_c, 0, 81, 0
2, 107400, Control_c, 0, 64, 0
2, 107400, Note_on_c, 0, 82, 88
2, 107520, Note_on_c, 0, 82, 0
2, 107520, Note_on_c, 0, 74, 88
2, 107520, Note_on_c, 0, 83, 88
2, 107679, Note_on_c, 0, 83, 0
2, 107679, Note_on_c, 0, 74, 0
2, 107679, Note_on_c, 0, 71, 88
2, 107679, Note_on_c, 0, 80, 88
2, 107840, Note_on_c, 0, 80, 0
2, 107840, Note_on_c, 0, 71, 0
2, 107840, Note_on_c, 0, 74, 88
2, 107840, Note_on_c, 0, 83, 88
2, 108000, Note_on_c, 0, 83, 0
2, 108000, Note_on_c, 0, 74, 0
2, 108000, Note_on_c, 0, 74, 88
2, 108000, Note_on_c, 0, 83, 88
2, 108159, Note_on_c, 0, 83, 0
2, 108159, Note_on_c, 0, 74, 0
2, 108159, Note_on_c, 0, 71, 88
2, 108159, Note_on_c, 0, 80, 88
2, 108320, Note_on_c, 0, 80, 0
2, 108320, Note_on_c, 0, 71, 0
2, 108320, Note_on_c, 0, 74, 88
2, 108320, Note_on_c, 0, 83, 88
2, 108480, Note_on_c, 0, 83, 0
2, 108480, Note_on_c, 0, 74, 0
2, 108480, Note_on_c, 0, 74, 88
2, 108480, Note_on_c, 0, 80, 88
2, 108480, Note_on_c, 0, 83, 88
2, 109440, Note_on_c, 0, 83, 0
2, 109440, Note_on_c, 0, 80, 0
2, 109440, Note_on_c, 0, 74, 0
2, 109440, Control_c, 0, 64, 127
2, 109440, Note_on_c, 0, 74, 88
2, 109440, Note_on_c, 0, 83, 88
2, 109599, Note_on_c, 0, 83, 0
2, 109599, Note_on_c, 0, 74, 0
2, 109599, Note_on_c, 0, 73, 88
2, 109599, Note_on_c, 0, 82, 88
2, 109760, Note_on_c, 0, 82, 0
2, 109760, Note_on_c, 0, 73, 0
2, 109760, Note_on_c, 0, 72, 88
2, 109760, Note_on_c, 0, 81, 88
2, 109920, Note_on_c, 0, 81, 0
2, 109920, Note_on_c, 0, 72, 0
2, 109920, Note_on_c, 0, 71, 88
2, 109920, Note_on_c, 0, 80, 88
2, 110079, Note_on_c, 0, 80, 0
2, 110079, Note_on_c, 0, 71, 0
2, 110079, Note_on_c, 0, 70, 88
2, 110079, Note_on_c, 0, 79, 88
2, 110240, Note_on_c, 0, 79, 0
2, 110240, Note_on_c, 0, 70, 0
2, 110240, Control_c, 0, 64, 0
2, 110240, Note_on_c, 0, 71, 88
2, 110240, Note_on_c, 0, 80, 88
2, 110400, Note_on_c, 0, 80, 0
2, 110400, Note_on_c, 0, 71, 0
2, 110400, Control_c, 0, 64, 127
2, 110400, Note_on_c, 0, 77, 88
2, 110400, Note_on_c, 0, 86, 88
2, 110559, Note_on_c, 0, 86, 0
2, 110559, Note_on_c, 0, 77, 0
2, 110559, Note_on_c, 0, 76, 88
2, 110559, Note_on_c, 0, 85, 88
2, 110720, Note_on_c, 0, 85, 0
2, 110720, Note_on_c, 0, 76, 0
2, 110720, Note_on_c, 0, 75, 88
2, 110720, Note_on_c, 0, 84, 88
2, 110880, Note_on_c, 0, 84, 0
2, 110880, Note_on_c, 0, 75, 0
2, 110880, Note_on_c, 0, 74, 88
2, 110880, Note_on_c, 0, 83, 88
2, 111039, Note_on_c, 0, 83, 0
2, 111039, Note_on_c, 0, 74, 0
2, 111039, Note_on_c, 0, 73, 88
2, 111039, Note_on_c, 0, 82, 88
2, 111200, Note_on_c, 0, 82, 0
2, 111200, Note_on_c, 0, 73, 0
2, 111200, Control_c, 0, 64, 0
2, 111200, Note_on_c, 0, 74, 88
2, 111200, Note_on_c, 0, 83, 88
2, 111360, Note_on_c, 0, 83, 0
2, 111360, Note_on_c, 0, 74, 0
2, 111360, Control_c, 0, 64, 127
2, 111360, Note_on_c, 0, 80, 88
2, 111360, Note_on_c, 0, 89, 88
2, 111519, Note_on_c, 0, 89, 0
2, 111519, Note_on_c, 0, 80, 0
2, 111519, Note_on_c, 0, 79, 88
2, 111519, Note_on_c, 0, 88, 88
2, 111680, Note_on_c, 0, 88, 0
2, 111680, Note_on_c, 0, 79, 0
2, 111680, Note_on_c, 0, 78, 88
2, 111680, Note_on_c, 0, 87, 88
2, 111840, Note_on_c, 0, 87, 0
2, 111840, Note_on_c, 0, 78, 0
2, 111840, Note_on_c, 0, 77, 88
2, 111840, Note_on_c, 0, 86, 88
2, 111999, Note_on_c, 0, 86, 0
2, 111999, Note_on_c, 0, 77, 0
2, 111999, Note_on_c, 0, 76, 88
2, 111999, Note_on_c, 0, 85, 88
2, 112160, Note_on_c, 0, 85, 0
2, 112160, Note_on_c, 0, 76, 0
2, 112160, Control_c, 0, 64, 0
2, 112160, Note_on_c, 0, 77, 88
2, 112160, Note_on_c, 0, 86, 88
2, 112320, Note_on_c, 0, 86, 0
2, 112320, Note_on_c, 0, 77, 0
2, 112320, Control_c, 0, 64, 127
2, 112320, Note_on_c, 0, 83, 88
2, 112320, Note_on_c, 0, 92, 88
2, 112479, Note_on_c, 0, 92, 0
2, 112479, Note_on_c, 0, 83, 0
2, 112479, Note_on_c, 0, 82, 88
2, 112479, Note_on_c, 0, 91, 88
2, 112640, Note_on_c, 0, 91, 0
2, 112640, Note_on_c, 0, 82, 0
2, 112640, Note_on_c, 0, 81, 88
2, 112640, Note_on_c, 0, 90, 88
2, 112800, Note_on_c, 0, 90, 0
2, 112800, Note_on_c, 0, 81, 0
2, 112800, Note_on_c, 0, 80, 88
2, 112800, Note_on_c, 0, 89, 88
2, 112959, Note_on_c, 0, 89, 0
2, 112959, Note_on_c, 0, 80, 0
2, 112959, Note_on_c, 0, 79, 88
2, 112959, Note_on_c, 0, 88, 88
2, 113120, Note_on_c, 0, 88, 0
2, 113120, Note_on_c, 0, 79, 0
2, 113120, Control_c, 0, 64, 0
2, 113120, Note_on_c, 0, 80, 88
2, 113120, Note_on_c, 0, 89, 88
2, 113280, Note_on_c, 0, 89, 0
2, 113280, Note_on_c, 0, 80, 0
2, 113280, Note_on_c, 0, 86, 101
2, 113280, Note_on_c, 0, 95, 101
2, 113439, Note_on_c, 0, 95, 0
2, 113439, Note_on_c, 0, 86, 0
2, 113439, Note_on_c, 0, 83, 101
2, 113439, Note_on_c, 0, 92, 101
2, 113600, Note_on_c, 0, 92, 0
2, 113600, Note_on_c, 0, 83, 0
2, 113600, Note_on_c, 0, 86, 101
2, 113600, Note_on_c, 0, 95, 101
2, 113760, Note_on_c, 0, 95, 0
2, 113760, Note_on_c, 0, 86, 0
2, 113760, Note_on_c, 0, 86, 101
2, 113760, Note_on_c, 0, 95, 101
2, 113919, Note_on_c, 0, 95, 0
2, 113919, Note_on_c, 0, 86, 0
2, 113919, Note_on_c, 0, 83, 101
2, 113919, Note_on_c, 0, 92, 101
2, 114080, Note_on_c, 0, 92, 0
2, 114080, Note_on_c, 0, 83, 0
2, 114080, Note_on_c, 0, 86, 101
2, 114080, Note_on_c, 0, 95, 101
2, 114240, Note_on_c, 0, 95, 0
2, 114240, Note_on_c, 0, 86, 0
2, 114240, Note_on_c, 0, 86, 101
2, 114240, Note_on_c, 0, 95, 101
2, 114399, Note_on_c, 0, 95, 0
2, 114399, Note_on_c, 0, 86, 0
2, 114399, Note_on_c, 0, 83, 101
2, 114399, Note_on_c, 0, 92, 101
2, 114560, Note_on_c, 0, 92, 0
2, 114560, Note_on_c, 0, 83, 0
2, 114560, Note_on_c, 0, 86, 101
2, 114560, Note_on_c, 0, 95, 101
2, 114720, Note_on_c, 0, 95, 0
2, 114720, Note_on_c, 0, 86, 0
2, 114720, Note_on_c, 0, 86, 101
2, 114720, Note_on_c, 0, 95, 101
2, 114879, Note_on_c, 0, 95, 0
2, 114879, Note_on_c, 0, 86, 0
2, 114879, Note_on_c, 0, 83, 101
2, 114879, Note_on_c, 0, 92, 101
2, 115040, Note_on_c, 0, 92, 0
2, 115040, Note_on_c, 0, 83, 0
2, 115040, Note_on_c, 0, 86, 101
2, 115040, Note_on_c, 0, 95, 101
2, 115200, Note_on_c, 0, 95, 0
2, 115200, Note_on_c, 0, 86, 0
2, 115200, Note_on_c, 0, 83, 101
2, 115200, Note_on_c, 0, 86, 101
2, 115200, Note_on_c, 0, 89, 101
2, 115200, Note_on_c, 0, 92, 101
2, 115200, Note_on_c, 0, 95, 101
2, 115440, Note_on_c, 0, 95, 0
2, 115440, Note_on_c, 0, 89, 0
2, 115440, Note_on_c, 0, 83, 0
2, 115440, Note_on_c, 0, 86, 0
2, 115440, Note_on_c, 0, 92, 0
2, 115680, Note_on_c, 0, 68, 101
2, 115839, Note_on_c, 0, 68, 0
2, 115839, Note_on_c, 0, 59, 101
2, 115839, Note_on_c, 0, 65, 101
2, 116000, Note_on_c, 0, 65, 0
2, 116000, Note_on_c, 0, 59, 0
2, 116000, Note_on_c, 0, 68, 101
2, 116160, Note_on_c, 0, 68, 0
2, 116160, Note_on_c, 0, 71, 101
2, 116319, Note_on_c, 0, 71, 0
2, 116319, Note_on_c, 0, 65, 101
2, 116319, Note_on_c, 0, 68, 101
2, 116480, Note_on_c, 0, 68, 0
2, 116480, Note_on_c, 0, 65, 0
2, 116480, Note_on_c, 0, 71, 101
2, 116640, Note_on_c, 0, 71, 0
2, 116640, Note_on_c, 0, 77, 101
2, 116799, Note_on_c, 0, 77, 0
2, 116799, Note_on_c, 0, 68, 101
2, 116799, Note_on_c, 0, 71, 101
2, 116960, Note_on_c, 0, 71, 0
2, 116960, Note_on_c, 0, 68, 0
2, 116960, Note_on_c, 0, 77, 101
2, 117120, Note_on_c, 0, 77, 0
2, 117120, Note_on_c, 0, 77, 101
2, 117279, Note_on_c, 0, 77, 0
2, 117279, Note_on_c, 0, 68, 101
2, 117279, Note_on_c, 0, 71, 101
2, 117440, Note_on_c, 0, 71, 0
2, 117440, Note_on_c, 0, 68, 0
2, 117440, Note_on_c, 0, 77, 101
2, 117600, Note_on_c, 0, 77, 0
2, 117600, Note_on_c, 0, 80, 101
2, 117759, Note_on_c, 0, 80, 0
2, 117759, Note_on_c, 0, 71, 101
2, 117759, Note_on_c, 0, 77, 101
2, 117920, Note_on_c, 0, 77, 0
2, 117920, Note_on_c, 0, 71, 0
2, 117920, Note_on_c, 0, 80, 101
2, 118080, Note_on_c, 0, 80, 0
2, 118080, Note_on_c, 0, 83, 101
2, 118320, Note_on_c, 0, 83, 0
2, 118560, Control_c, 0, 64, 127
2, 118560, Note_on_c, 0, 83, 101
2, 118640, Note_on_c, 0, 83, 0
2, 118640, Note_on_c, 0, 84, 101
2, 118719, Note_on_c, 0, 84, 0
2, 118719, Note_on_c, 0, 85, 101
2, 118800, Note_on_c, 0, 85, 0
2, 118800, Note_on_c, 0, 86, 101
2, 118880, Note_on_c, 0, 86, 0
2, 118880, Note_on_c, 0, 87, 101
2, 118959, Note_on_c, 0, 87, 0
2, 118959, Control_c, 0, 64, 0
2, 118959, Note_on_c, 0, 88, 101
2, 119040, Note_on_c, 0, 88, 0
2, 119040, Note_on_c, 0, 89, 101
2, 119040, Note_on_c, 0, 95, 101
2, 119040, Note_on_c, 0, 98, 101
2, 119040, Note_on_c, 0, 101, 101
2, 119280, Note_on_c, 0, 101, 0
2, 119280, Note_on_c, 0, 89, 0
2, 119280, Note_on_c, 0, 95, 0
2, 119280, Note_on_c, 0, 98, 0
2, 119520, Note_on_c, 0, 68, 101
2, 119679, Note_on_c, 0, 68, 0
2, 119679, Note_on_c, 0, 59, 101
2, 119679, Note_on_c, 0, 65, 101
2, 119840, Note_on_c, 0, 65, 0
2, 119840, Note_on_c, 0, 59, 0
2, 119840, Note_on_c, 0, 68, 101
2, 120000, Note_on_c, 0, 68, 0
2, 120000, Note_on_c, 0, 71, 101
2, 120159, Note_on_c, 0, 71, 0
2, 120159, Note_on_c, 0, 65, 101
2, 120159, Note_on_c, 0, 68, 101
2, 120320, Note_on_c, 0, 68, 0
2, 120320, Note_on_c, 0, 65, 0
2, 120320, Note_on_c, 0, 71, 101
2, 120480, Note_on_c, 0, 71, 0
2, 120480, Note_on_c, 0, 77, 101
2, 120639, Note_on_c, 0, 77, 0
2, 120639, Note_on_c, 0, 68, 101
2, 120639, Note_on_c, 0, 71, 101
2, 120800, Note_on_c, 0, 71, 0
2, 120800, Note_on_c, 0, 68, 0
2, 120800, Note_on_c, 0, 77, 101
2, 120960, Note_on_c, 0, 77, 0
2, 120960, Note_on_c, 0, 77, 101
2, 121119, Note_on_c, 0, 77, 0
2, 121119, Note_on_c, 0, 68, 101
2, 121119, Note_on_c, 0, 71, 101
2, 121280, Note_on_c, 0, 71, 0
2, 121280, Note_on_c, 0, 68, 0
2, 121280, Note_on_c, 0, 77, 101
2, 121440, Note_on_c, 0, 77, 0
2, 121440, Note_on_c, 0, 80, 101
2, 121599, Note_on_c, 0, 80, 0
2, 121599, Note_on_c, 0, 71, 101
2, 121599, Note_on_c, 0, 77, 101
2, 121760, Note_on_c, 0, 77, 0
2, 121760, Note_on_c, 0, 71, 0
2, 121760, Note_on_c, 0, 80, 101
2, 121920, Note_on_c, 0, 80, 0
2, 121920, Note_on_c, 0, 83, 101
2, 122160, Note_on_c, 0, 83, 0
2, 122400, Control_c, 0, 64, 127
2, 122400, Note_on_c, 0, 95, 101
2, 122496, Note_on_c, 0, 95, 0
2, 122496, Note_on_c, 0, 96, 101
2, 122592, Note_on_c, 0, 96, 0
2, 122592, Note_on_c, 0, 97, 101
2, 122687, Note_on_c, 0, 97, 0
2, 122687, Note_on_c, 0, 98, 101
2, 122783, Note_on_c, 0, 98, 0
2, 122783, Control_c, 0, 64, 0
2, 122783, Note_on_c, 0, 99, 101
2, 122880, Note_on_c, 0, 99, 0
2, 122880, Note_on_c, 0, 88, 101
2, 122880, Note_on_c, 0, 94, 101
2, 122880, Note_on_c, 0, 100, 101
2, 123120, Note_on_c, 0, 100, 0
2, 123120, Note_on_c, 0, 94, 0
2, 123120, Note_on_c, 0, 88, 0
2, 123360, Note_on_c, 0, 67, 101
2, 123519, Note_on_c, 0, 67, 0
2, 123519, Note_on_c, 0, 58, 101
2, 123519, Note_on_c, 0, 64, 101
2, 123680, Note_on_c, 0, 64, 0
2, 123680, Note_on_c, 0, 58, 0
2, 123680, Note_on_c, 0, 67, 101
2, 123840, Note_on_c, 0, 67, 0
2, 123840, Note_on_c, 0, 70, 101
2, 123999, Note_on_c, 0, 70, 0
2, 123999, Note_on_c, 0, 64, 101
2, 123999, Note_on_c, 0, 67, 101
2, 124160, Note_on_c, 0, 67, 0
2, 124160, Note_on_c, 0, 64, 0
2, 124160, Note_on_c, 0, 70, 101
2, 124320, Note_on_c, 0, 70, 0
2, 124320, Note_on_c, 0, 76, 101
2, 124479, Note_on_c, 0, 76, 0
2, 124479, Note_on_c, 0, 67, 101
2, 124479, Note_on_c, 0, 70, 101
2, 124640, Note_on_c, 0, 70, 0
2, 124640, Note_on_c, 0, 67, 0
2, 124640, Note_on_c, 0, 76, 101
2, 124800, Note_on_c, 0, 76, 0
2, 124800, Note_on_c, 0, 76, 101
2, 124959, Note_on_c, 0, 76, 0
2, 124959, Note_on_c, 0, 67, 101
2, 124959, Note_on_c, 0, 70, 101
2, 125120, Note_on_c, 0, 70, 0
2, 125120, Note_on_c, 0, 67, 0
2, 125120, Note_on_c, 0, 76, 101
2, 125280, Note_on_c, 0, 76, 0
2, 125280, Note_on_c, 0, 79, 101
2, 125439, Note_on_c, 0, 79, 0
2, 125439, Note_on_c, 0, 70, 101
2, 125439, Note_on_c, 0, 76, 101
2, 125600, Note_on_c, 0, 76, 0
2, 125600, Note_on_c, 0, 70, 0
2, 125600, Note_on_c, 0, 79, 101
2, 125760, Note_on_c, 0, 79, 0
2, 125760, Note_on_c, 0, 82, 101
2, 126000, Note_on_c, 0, 82, 0
2, 126240, Control_c, 0, 64, 127
2, 126240, Note_on_c, 0, 88, 101
2, 126320, Note_on_c, 0, 88, 0
2, 126320, Note_on_c, 0, 89, 101
2, 126399, Note_on_c, 0, 89, 0
2, 126399, Note_on_c, 0, 90, 101
2, 126480, Note_on_c, 0, 90, 0
2, 126480, Note_on_c, 0, 91, 101
2, 126560, Note_on_c, 0, 91, 0
2, 126560, Note_on_c, 0, 92, 101
2, 126639, Note_on_c, 0, 92, 0
2, 126639, Control_c, 0, 64, 0
2, 126639, Note_on_c, 0, 93, 101
2, 126720, Note_on_c, 0, 93, 0
2, 126720, Note_on_c, 0, 94, 101
2, 126960, Note_on_c, 0, 94, 0
2, 127200, Note_on_c, 0, 67, 101
2, 127359, Note_on_c, 0, 67, 0
2, 127359, Note_on_c, 0, 58, 101
2, 127359, Note_on_c, 0, 64, 101
2, 127520, Note_on_c, 0, 64, 0
2, 127520, Note_on_c, 0, 58, 0
2, 127520, Note_on_c, 0, 67, 101
2, 127680, Note_on_c, 0, 67, 0
2, 127680, Note_on_c, 0, 70, 101
2, 127839, Note_on_c, 0, 70, 0
2, 127839, Note_on_c, 0, 64, 101
2, 127839, Note_on_c, 0, 67, 101
2, 128000, Note_on_c, 0, 67, 0
2, 128000, Note_on_c, 0, 64, 0
2, 128000, Note_on_c, 0, 70, 101
2, 128160, Note_on_c, 0, 70, 0
2, 128160, Note_on_c, 0, 76, 101
2, 128319, Note_on_c, 0, 76, 0
2, 128319, Note_on_c, 0, 67, 101
2, 128319, Note_on_c, 0, 70, 101
2, 128480, Note_on_c, 0, 70, 0
2, 128480, Note_on_c, 0, 67, 0
2, 128480, Note_on_c, 0, 76, 101
2, 128640, Note_on_c, 0, 76, 0
2, 128640, Note_on_c, 0, 76, 101
2, 128799, Note_on_c, 0, 76, 0
2, 128799, Note_on_c, 0, 67, 101
2, 128799, Note_on_c, 0, 70, 101
2, 128960, Note_on_c, 0, 70, 0
2, 128960, Note_on_c, 0, 67, 0
2, 128960, Note_on_c, 0, 76, 101
2, 129120, Note_on_c, 0, 76, 0
2, 129120, Note_on_c, 0, 79, 101
2, 129279, Note_on_c, 0, 79, 0
2, 129279, Note_on_c, 0, 70, 101
2, 129279, Note_on_c, 0, 76, 101
2, 129440, Note_on_c, 0, 76, 0
2, 129440, Note_on_c, 0, 70, 0
2, 129440, Note_on_c, 0, 79, 101
2, 129600, Note_on_c, 0, 79, 0
2, 129600, Note_on_c, 0, 82, 101
2, 129840, Note_on_c, 0, 82, 0
2, 130080, Note_on_c, 0, 88, 101
2, 130176, Note_on_c, 0, 88, 0
2, 130176, Note_on_c, 0, 89, 101
2, 130272, Note_on_c, 0, 89, 0
2, 130272, Note_on_c, 0, 90, 101
2, 130367, Note_on_c, 0, 90, 0
2, 130367, Note_on_c, 0, 91, 101
2, 130463, Note_on_c, 0, 91, 0
2, 130463, Note_on_c, 0, 92, 101
2, 130560, Note_on_c, 0, 92, 0
2, 130560, Note_on_c, 0, 81, 101
2, 130560, Note_on_c, 0, 88, 101
2, 130560, Note_on_c, 0, 93, 101
2, 130800, Note_on_c, 0, 93, 0
2, 130800, Note_on_c, 0, 88, 0
2, 130800, Note_on_c, 0, 81, 0
2, 132480, Note_on_c, 0, 57, 62
2, 133560, Note_on_c, 0, 57, 0
2, 133560, Control_c, 0, 64, 127
2, 133560, Note_on_c, 0, 57, 62
2, 133680, Note_on_c, 0, 57, 0
2, 133680, Note_on_c, 0, 58, 62
2, 133800, Note_on_c, 0, 58, 0
2, 133800, Note_on_c, 0, 59, 62
2, 133920, Note_on_c, 0, 59, 0
2, 133920, Note_on_c, 0, 60, 62
2, 134040, Note_on_c, 0, 60, 0
2, 134040, Note_on_c, 0, 61, 62
2, 134160, Note_on_c, 0, 61, 0
2, 134160, Note_on_c, 0, 62, 62
2, 134280, Note_on_c, 0, 62, 0
2, 134280, Control_c, 0, 64, 0
2, 134280, Note_on_c, 0, 63, 62
2, 134400, Note_on_c, 0, 63, 0
2, 134520, Control_c, 0, 64, 127
2, 134520, Note_on_c, 0, 66, 75
2, 134640, Note_on_c, 0, 66, 0
2, 134640, Note_on_c, 0, 67, 75
2, 134760, Note_on_c, 0, 67, 0
2, 134760, Note_on_c, 0, 68, 75
2, 134880, Note_on_c, 0, 68, 0
2, 134880, Note_on_c, 0, 69, 75
2, 135000, Note_on_c, 0, 69, 0
2, 135000, Note_on_c, 0, 70, 75
2, 135120, Note_on_c, 0, 70, 0
2, 135120, Note_on_c, 0, 71, 75
2, 135240, Note_on_c, 0, 71, 0
2, 135240, Control_c, 0, 64, 0
2, 135240, Note_on_c, 0, 72, 75
2, 135360, Note_on_c, 0, 72, 0
2, 135480, Control_c, 0, 64, 127
2, 135480, Note_on_c, 0, 75, 88
2, 135600, Note_on_c, 0, 75, 0
2, 135600, Note_on_c, 0, 76, 88
2, 135720, Note_on_c, 0, 76, 0
2, 135720, Note_on_c, 0, 77, 88
2, 135840, Note_on_c, 0, 77, 0
2, 135840, Note_on_c, 0, 78, 88
2, 135960, Note_on_c, 0, 78, 0
2, 135960, Note_on_c, 0, 79, 88
2, 136080, Note_on_c, 0, 79, 0
2, 136080, Note_on_c, 0, 80, 88
2, 136200, Note_on_c, 0, 80, 0
2, 136200, Control_c, 0, 64, 0
2, 136200, Note_on_c, 0, 81, 88
2, 136320, Note_on_c, 0, 81, 0
2, 136320, Note_on_c, 0, 73, 88
2, 136320, Note_on_c, 0, 82, 88
2, 136479, Note_on_c, 0, 82, 0
2, 136479, Note_on_c, 0, 73, 0
2, 136479, Note_on_c, 0, 70, 88
2, 136479, Note_on_c, 0, 79, 88
2, 136640, Note_on_c, 0, 79, 0
2, 136640, Note_on_c, 0, 70, 0
2, 136640, Note_on_c, 0, 73, 88
2, 136640, Note_on_c, 0, 82, 88
2, 136800, Note_on_c, 0, 82, 0
2, 136800, Note_on_c, 0, 73, 0
2, 136800, Note_on_c, 0, 73, 88
2, 136800, Note_on_c, 0, 82, 88
2, 136959, Note_on_c, 0, 82, 0
2, 136959, Note_on_c, 0, 73, 0
2, 136959, Note_on_c, 0, 70, 88
2, 136959, Note_on_c, 0, 79, 88
2, 137120, Note_on_c, 0, 79, 0
2, 137120, Note_on_c, 0, 70, 0
2, 137120, Note_on_c, 0, 73, 88
2, 137120, Note_on_c, 0, 82, 88
2, 137280, Note_on_c, 0, 82, 0
2, 137280, Note_on_c, 0, 73, 0
2, 137280, Note_on_c, 0, 73, 88
2, 137280, Note_on_c, 0, 76, 88
2, 137280, Note_on_c, 0, 82, 88
2, 138240, Note_on_c, 0, 82, 0
2, 138240, Note_on_c, 0, 76, 0
2, 138240, Note_on_c, 0, 73, 0
2, 138240, Control_c, 0, 64, 127
2, 138240, Note_on_c, 0, 73, 88
2, 138240, Note_on_c, 0, 82, 88
2, 138399, Note_on_c, 0, 82, 0
2, 138399, Note_on_c, 0, 73, 0
2, 138399, Note_on_c, 0, 72, 88
2, 138399, Note_on_c, 0, 81, 88
2, 138560, Note_on_c, 0, 81, 0
2, 138560, Note_on_c, 0, 72, 0
2, 138560, Note_on_c, 0, 71, 88
2, 138560, Note_on_c, 0, 80, 88
2, 138720, Note_on_c, 0, 80, 0
2, 138720, Note_on_c, 0, 71, 0
2, 138720, Note_on_c, 0, 70, 88
2, 138720, Note_on_c, 0, 79, 88
2, 138879, Note_on_c, 0, 79, 0
2, 138879, Note_on_c, 0, 70, 0
2, 138879, Note_on_c, 0, 69, 88
2, 138879, Note_on_c, 0, 78, 88
2, 139040, Note_on_c, 0, 78, 0
2, 139040, Note_on_c, 0, 69, 0
2, 139040, Control_c, 0, 64, 0
2, 139040, Note_on_c, 0, 70, 88
2, 139040, Note_on_c, 0, 79, 88
2, 139200, Note_on_c, 0, 79, 0
2, 139200, Note_on_c, 0, 70, 0
2, 139200, Control_c, 0, 64, 127
2, 139200, Note_on_c, 0, 76, 88
2, 139200, Note_on_c, 0, 85, 88
2, 139359, Note_on_c, 0, 85, 0
2, 139359, Note_on_c, 0, 76, 0
2, 139359, Note_on_c, 0, 75, 88
2, 139359, Note_on_c, 0, 84, 88
2, 139520, Note_on_c, 0, 84, 0
2, 139520, Note_on_c, 0, 75, 0
2, 139520, Note_on_c, 0, 74, 88
2, 139520, Note_on_c, 0, 83, 88
2, 139680, Note_on_c, 0, 83, 0
2, 139680, Note_on_c, 0, 74, 0
2, 139680, Note_on_c, 0, 73, 88
2, 139680, Note_on_c, 0, 82, 88
2, 139839, Note_on_c, 0, 82, 0
2, 139839, Note_on_c, 0, 73, 0
2, 139839, Note_on_c, 0, 72, 88
2, 139839, Note_on_c, 0, 81, 88
2, 140000, Note_on_c, 0, 81, 0
2, 140000, Note_on_c, 0, 72, 0
2, 140000, Control_c, 0, 64, 0
2, 140000, Note_on_c, 0, 73, 88
2, 140000, Note_on_c, 0, 82, 88
2, 140160, Note_on_c, 0, 82, 0
2, 140160, Note_on_c, 0, 73, 0
2, 140160, Control_c, 0, 64, 127
2, 140160, Note_on_c, 0, 79, 88
2, 140160, Note_on_c, 0, 88, 88
2, 140319, Note_on_c, 0, 88, 0
2, 140319, Note_on_c, 0, 79, 0
2, 140319, Note_on_c, 0, 78, 88
2, 140319, Note_on_c, 0, 87, 88
2, 140480, Note_on_c, 0, 87, 0
2, 140480, Note_on_c, 0, 78, 0
2, 140480, Note_on_c, 0, 77, 88
2, 140480, Note_on_c, 0, 86, 88
2, 140640, Note_on_c, 0, 86, 0
2, 140640, Note_on_c, 0, 77, 0
2, 140640, Note_on_c, 0, 76, 88
2, 140640, Note_on_c, 0, 85, 88
2, 140799, Note_on_c, 0, 85, 0
2, 140799, Note_on_c, 0, 76, 0
2, 140799, Note_on_c, 0, 75, 88
2, 140799, Note_on_c, 0, 84, 88
2, 140960, Note_on_c, 0, 84, 0
2, 140960, Note_on_c, 0, 75, 0
2, 140960, Control_c, 0, 64, 0
2, 140960, Note_on_c, 0, 76, 88
2, 140960, Note_on_c, 0, 85, 88
2, 141120, Note_on_c, 0, 85, 0
2, 141120, Note_on_c, 0, 76, 0
2, 141120, Control_c, 0, 64, 127
2, 141120, Note_on_c, 0, 82, 88
2, 141120, Note_on_c, 0, 91, 88
2, 141279, Note_on_c, 0, 91, 0
2, 141279, Note_on_c, 0, 82, 0
2, 141279, Note_on_c, 0, 81, 88
2, 141279, Note_on_c, 0, 90, 88
2, 141440, Note_on_c, 0, 90, 0
2, 141440, Note_on_c, 0, 81, 0
2, 141440, Note_on_c, 0, 80, 88
2, 141440, Note_on_c, 0, 89, 88
2, 141600, Note_on_c, 0, 89, 0
2, 141600, Note_on_c, 0, 80, 0
2, 141600, Note_on_c, 0, 79, 88
2, 141600, Note_on_c, 0, 88, 88
2, 141759, Note_on_c, 0, 88, 0
2, 141759, Note_on_c, 0, 79, 0
2, 141759, Note_on_c, 0, 78, 88
2, 141759, Note_on_c, 0, 87, 88
2, 141920, Note_on_c, 0, 87, 0
2, 141920, Note_on_c, 0, 78, 0
2, 141920, Control_c, 0, 64, 0
2, 141920, Note_on_c, 0, 79, 88
2, 141920, Note_on_c, 0, 88, 88
2, 142080, Note_on_c, 0, 88, 0
2, 142080, Note_on_c, 0, 79, 0
2, 142080, Note_on_c, 0, 85, 101
2, 142080, Note_on_c, 0, 94, 101
2, 142239, Note_on_c, 0, 94, 0
2, 142239, Note_on_c, 0, 85, 0
2, 142239, Note_on_c, 0, 82, 101
2, 142239, Note_on_c, 0, 91, 101
2, 142400, Note_on_c, 0, 91, 0
2, 142400, Note_on_c, 0, 82, 0
2, 142400, Note_on_c, 0, 85, 101
2, 142400, Note_on_c, 0, 94, 101
2, 142560, Note_on_c, 0, 94, 0
2, 142560, Note_on_c, 0, 85, 0
2, 142560, Note_on_c, 0, 85, 101
2, 142560, Note_on_c, 0, 94, 101
2, 142719, Note_on_c, 0, 94, 0
2, 142719, Note_on_c, 0, 85, 0
2, 142719, Note_on_c, 0, 82, 101
2, 142719, Note_on_c, 0, 91, 101
2, 142880, Note_on_c, 0, 91, 0
2, 142880, Note_on_c, 0, 82, 0
2, 142880, Note_on_c, 0, 85, 101
2, 142880, Note_on_c, 0, 94, 101
2, 143040, Note_on_c, 0, 94, 0
2, 143040, Note_on_c, 0, 85, 0
2, 143040, Note_on_c, 0, 85, 101
2, 143040, Note_on_c, 0, 94, 101
2, 143199, Note_on_c, 0, 94, 0
2, 143199, Note_on_c, 0, 85, 0
2, 143199, Note_on_c, 0, 82, 101
2, 143199, Note_on_c, 0, 91, 101
2, 143360, Note_on_c, 0, 91, 0
2, 143360, Note_on_c, 0, 82, 0
2, 143360, Note_on_c, 0, 85, 101
2, 143360, Note_on_c, 0, 94, 101
2, 143520, Note_on_c, 0, 94, 0
2, 143520, Note_on_c, 0, 85, 0
2, 143520, Note_on_c, 0, 85, 101
2, 143520, Note_on_c, 0, 94, 101
2, 143679, Note_on_c, 0, 94, 0
2, 143679, Note_on_c, 0, 85, 0
2, 143679, Note_on_c, 0, 82, 101
2, 143679, Note_on_c, 0, 91, 101
2, 143840, Note_on_c, 0, 91, 0
2, 143840, Note_on_c, 0, 82, 0
2, 143840, Note_on_c, 0, 85, 101
2, 143840, Note_on_c, 0, 94, 101
2, 144000, Note_on_c, 0, 94, 0
2, 144000, Note_on_c, 0, 85, 0
2, 144000, Note_on_c, 0, 82, 101
2, 144000, Note_on_c, 0, 85, 101
2, 144000, Note_on_c, 0, 88, 101
2, 144000, Note_on_c, 0, 91, 101
2, 144000, Note_on_c, 0, 94, 101
2, 144240, Note_on_c, 0, 94, 0
2, 144240, Note_on_c, 0, 88, 0
2, 144240, Note_on_c, 0, 82, 0
2, 144240, Note_on_c, 0, 85, 0
2, 144240, Note_on_c, 0, 91, 0
2, 144480, Note_on_c, 0, 79, 101
2, 144639, Note_on_c, 0, 79, 0
2, 144639, Note_on_c, 0, 70, 101
2, 144639, Note_on_c, 0, 76, 101
2, 144800, Note_on_c, 0, 76, 0
2, 144800, Note_on_c, 0, 70, 0
2, 144800, Note_on_c, 0, 79, 101
2, 144960, Note_on_c, 0, 79, 0
2, 144960, Note_on_c, 0, 82, 101
2, 145119, Note_on_c, 0, 82, 0
2, 145119, Note_on_c, 0, 76, 101
2, 145119, Note_on_c, 0, 79, 101
2, 145280, Note_on_c, 0, 79, 0
2, 145280, Note_on_c, 0, 76, 0
2, 145280, Note_on_c, 0, 82, 101
2, 145440, Note_on_c, 0, 82, 0
2, 145440, Note_on_c, 0, 88, 101
2, 145599, Note_on_c, 0, 88, 0
2, 145599, Note_on_c, 0, 79, 101
2, 145599, Note_on_c, 0, 82, 101
2, 145760, Note_on_c, 0, 82, 0
2, 145760, Note_on_c, 0, 79, 0
2, 145760, Note_on_c, 0, 88, 101
2, 145920, Note_on_c, 0, 88, 0
2, 145920, Note_on_c, 0, 88, 101
2, 146079, Note_on_c, 0, 88, 0
2, 146079, Note_on_c, 0, 79, 101
2, 146079, Note_on_c, 0, 82, 101
2, 146240, Note_on_c, 0, 82, 0
2, 146240, Note_on_c, 0, 79, 0
2, 146240, Note_on_c, 0, 88, 101
2, 146400, Note_on_c, 0, 88, 0
2, 146400, Note_on_c, 0, 91, 101
2, 146559, Note_on_c, 0, 91, 0
2, 146559, Note_on_c, 0, 82, 101
2, 146559, Note_on_c, 0, 88, 101
2, 146720, Note_on_c, 0, 88, 0
2, 146720, Note_on_c, 0, 82, 0
2, 146720, Note_on_c, 0, 91, 101
2, 146880, Note_on_c, 0, 91, 0
2, 146880, Note_on_c, 0, 94, 101
2, 147120, Note_on_c, 0, 94, 0
2, 147360, Control_c, 0, 64, 127
2, 147360, Note_on_c, 0, 94, 101
2, 147440, Note_on_c, 0, 94, 0
2, 147440, Note_on_c, 0, 95, 101
2, 147519, Note_on_c, 0, 95, 0
2, 147519, Note_on_c, 0, 96, 101
2, 147600, Note_on_c, 0, 96, 0
2, 147600, Note_on_c, 0, 97, 101
2, 147680, Note_on_c, 0, 97, 0
2, 147680, Note_on_c, 0, 98, 101
2, 147759, Note_on_c, 0, 98, 0
2, 147759, Control_c, 0, 64, 0
2, 147759, Note_on_c, 0, 99, 101
2, 147840, Note_on_c, 0, 99, 0
2, 147840, Note_on_c, 0, 88, 101
2, 147840, Note_on_c, 0, 91, 101
2, 147840, Note_on_c, 0, 94, 101
2, 147840, Note_on_c, 0, 100, 101
2, 148080, Note_on_c, 0, 100, 0
2, 148080, Note_on_c, 0, 88, 0
2, 148080, Note_on_c, 0, 91, 0
2, 148080, Note_on_c, 0, 94, 0
2, 148320, Note_on_c, 0, 67, 101
2, 148479, Note_on_c, 0, 67, 0
2, 148479, Note_on_c, 0, 58, 101
2, 148479, Note_on_c, 0, 64, 101
2, 148640, Note_on_c, 0, 64, 0
2, 148640, Note_on_c, 0, 58, 0
2, 148640, Note_on_c, 0, 67, 101
2, 148800, Note_on_c, 0, 67, 0
2, 148800, Note_on_c, 0, 70, 101
2, 148959, Note_on_c, 0, 70, 0
2, 148959, Note_on_c, 0, 64, 101
2, 148959, Note_on_c, 0, 67, 101
2, 149120, Note_on_c, 0, 67, 0
2, 149120, Note_on_c, 0, 64, 0
2, 149120, Note_on_c, 0, 70, 101
2, 149280, Note_on_c, 0, 70, 0
2, 149280, Note_on_c, 0, 76, 101
2, 149439, Note_on_c, 0, 76, 0
2, 149439, Note_on_c, 0, 67, 101
2, 149439, Note_on_c, 0, 70, 101
2, 149600, Note_on_c, 0, 70, 0
2, 149600, Note_on_c, 0, 67, 0
2, 149600, Note_on_c, 0, 76, 101
2, 149760, Note_on_c, 0, 76, 0
2, 149760, Note_on_c, 0, 76, 101
2, 149919, Note_on_c, 0, 76, 0
2, 149919, Note_on_c, 0, 67, 101
2, 149919, Note_on_c, 0, 70, 101
2, 150080, Note_on_c, 0, 70, 0
2, 150080, Note_on_c, 0, 67, 0
2, 150080, Note_on_c, 0, 76, 101
2, 150240, Note_on_c, 0, 76, 0
2, 150240, Note_on_c, 0, 79, 101
2, 150399, Note_on_c, 0, 79, 0
2, 150399, Note_on_c, 0, 70, 101
2, 150399, Note_on_c, 0, 76, 101
2, 150560, Note_on_c, 0, 76, 0
2, 150560, Note_on_c, 0, 70, 0
2, 150560, Note_on_c, 0, 79, 101
2, 150720, Note_on_c, 0, 79, 0
2, 150720, Note_on_c, 0, 82, 101
2, 150960, Note_on_c, 0, 82, 0
2, 151200, Control_c, 0, 64, 127
2, 151200, Note_on_c, 0, 82, 101
2, 151280, Note_on_c, 0, 82, 0
2, 151280, Note_on_c, 0, 83, 101
2, 151359, Note_on_c, 0, 83, 0
2, 151359, Note_on_c, 0, 84, 101
2, 151440, Note_on_c, 0, 84, 0
2, 151440, Note_on_c, 0, 85, 101
2, 151520, Note_on_c, 0, 85, 0
2, 151520, Note_on_c, 0, 86, 101
2, 151599, Note_on_c, 0, 86, 0
2, 151599, Control_c, 0, 64, 0
2, 151599, Note_on_c, 0, 87, 101
2, 151680, Note_on_c, 0, 87, 0
2, 151680, Note_on_c, 0, 88, 101
2, 151680, Note_on_c, 0, 94, 101
2, 151680, Note_on_c, 0, 100, 101
2, 151920, Note_on_c, 0, 100, 0
2, 151920, Note_on_c, 0, 94, 0
2, 151920, Note_on_c, 0, 88, 0
2, 152160, Note_on_c, 0, 66, 101
2, 152319, Note_on_c, 0, 66, 0
2, 152319, Note_on_c, 0, 58, 101
2, 152319, Note_on_c, 0, 64, 101
2, 152480, Note_on_c, 0, 64, 0
2, 152480, Note_on_c, 0, 58, 0
2, 152480, Note_on_c, 0, 66, 101
2, 152640, Note_on_c, 0, 66, 0
2, 152640, Note_on_c, 0, 70, 101
2, 152799, Note_on_c, 0, 70, 0
2, 152799, Note_on_c, 0, 64, 101
2, 152799, Note_on_c, 0, 66, 101
2, 152960, Note_on_c, 0, 66, 0
2, 152960, Note_on_c, 0, 64, 0
2, 152960, Note_on_c, 0, 70, 101
2, 153120, Note_on_c, 0, 70, 0
2, 153120, Note_on_c, 0, 76, 101
2, 153279, Note_on_c, 0, 76, 0
2, 153279, Note_on_c, 0, 66, 101
2, 153279, Note_on_c, 0, 70, 101
2, 153440, Note_on_c, 0, 70, 0
2, 153440, Note_on_c, 0, 66, 0
2, 153440, Note_on_c, 0, 76, 101
2, 153600, Note_on_c, 0, 76, 0
2, 153600, Note_on_c, 0, 76, 101
2, 153759, Note_on_c, 0, 76, 0
2, 153759, Note_on_c, 0, 66, 101
2, 153759, Note_on_c, 0, 70, 101
2, 153920, Note_on_c, 0, 70, 0
2, 153920, Note_on_c, 0, 66, 0
2, 153920, Note_on_c, 0, 76, 101
2, 154080, Note_on_c, 0, 76, 0
2, 154080, Note_on_c, 0, 78, 101
2, 154239, Note_on_c, 0, 78, 0
2, 154239, Note_on_c, 0, 70, 101
2, 154239, Note_on_c, 0, 76, 101
2, 154400, Note_on_c, 0, 76, 0
2, 154400, Note_on_c, 0, 70, 0
2, 154400, Note_on_c, 0, 78, 101
2, 154560, Note_on_c, 0, 78, 0
2, 154560, Note_on_c, 0, 82, 101
2, 154800, Note_on_c, 0, 82, 0
2, 155040, Control_c, 0, 64, 127
2, 155040, Note_on_c, 0, 94, 101
2, 155120, Note_on_c, 0, 94, 0
2, 155120, Note_on_c, 0, 95, 101
2, 155199, Note_on_c, 0, 95, 0
2, 155199, Note_on_c, 0, 96, 101
2, 155280, Note_on_c, 0, 96, 0
2, 155280, Note_on_c, 0, 97, 101
2, 155360, Note_on_c, 0, 97, 0
2, 155360, Note_on_c, 0, 98, 101
2, 155439, Note_on_c, 0, 98, 0
2, 155439, Control_c, 0, 64, 0
2, 155439, Note_on_c, 0, 99, 101
2, 155520, Note_on_c, 0, 99, 0
2, 155520, Note_on_c, 0, 88, 101
2, 155520, Note_on_c, 0, 94, 101
2, 155520, Note_on_c, 0, 100, 101
2, 155760, Note_on_c, 0, 100, 0
2, 155760, Note_on_c, 0, 94, 0
2, 155760, Note_on_c, 0, 88, 0
2, 156000, Note_on_c, 0, 66, 101
2, 156159, Note_on_c, 0, 66, 0
2, 156159, Note_on_c, 0, 58, 101
2, 156159, Note_on_c, 0, 64, 101
2, 156320, Note_on_c, 0, 64, 0
2, 156320, Note_on_c, 0, 58, 0
2, 156320, Note_on_c, 0, 66, 101
2, 156480, Note_on_c, 0, 66, 0
2, 156480, Note_on_c, 0, 70, 101
2, 156639, Note_on_c, 0, 70, 0
2, 156639, Note_on_c, 0, 64, 101
2, 156639, Note_on_c, 0, 66, 101
2, 156800, Note_on_c, 0, 66, 0
2, 156800, Note_on_c, 0, 64, 0
2, 156800, Note_on_c, 0, 70, 101
2, 156960, Note_on_c, 0, 70, 0
2, 156960, Note_on_c, 0, 76, 101
2, 157119, Note_on_c, 0, 76, 0
2, 157119, Note_on_c, 0, 66, 101
2, 157119, Note_on_c, 0, 70, 101
2, 157280, Note_on_c, 0, 70, 0
2, 157280, Note_on_c, 0, 66, 0
2, 157280, Note_on_c, 0, 76, 101
2, 157440, Note_on_c, 0, 76, 0
2, 157440, Note_on_c, 0, 76, 101
2, 157599, Note_on_c, 0, 76, 0
2, 157599, Note_on_c, 0, 66, 101
2, 157599, Note_on_c, 0, 70, 101
2, 157760, Note_on_c, 0, 70, 0
2, 157760, Note_on_c, 0, 66, 0
2, 157760, Note_on_c, 0, 76, 101
2, 157920, Note_on_c, 0, 76, 0
2, 157920, Note_on_c, 0, 78, 101
2, 158079, Note_on_c, 0, 78, 0
2, 158079, Note_on_c, 0, 70, 101
2, 158079, Note_on_c, 0, 76, 101
2, 158240, Note_on_c, 0, 76, 0
2, 158240, Note_on_c, 0, 70, 0
2, 158240, Note_on_c, 0, 78, 101
2, 158400, Note_on_c, 0, 78, 0
2, 158400, Note_on_c, 0, 82, 101
2, 158640, Note_on_c, 0, 82, 0
2, 158880, Control_c, 0, 64, 127
2, 158880, Note_on_c, 0, 82, 101
2, 158940, Note_on_c, 0, 82, 0
2, 158940, Note_on_c, 0, 83, 101
2, 159000, Note_on_c, 0, 83, 0
2, 159000, Note_on_c, 0, 84, 101
2, 159060, Note_on_c, 0, 84, 0
2, 159060, Note_on_c, 0, 85, 101
2, 159120, Note_on_c, 0, 85, 0
2, 159120, Note_on_c, 0, 86, 101
2, 159180, Note_on_c, 0, 86, 0
2, 159180, Note_on_c, 0, 87, 101
2, 159240, Note_on_c, 0, 87, 0
2, 159240, Note_on_c, 0, 88, 101
2, 159300, Note_on_c, 0, 88, 0
2, 159300, Control_c, 0, 64, 0
2, 159300, Note_on_c, 0, 89, 101
2, 159360, Note_on_c, 0, 89, 0
2, 159360, Note_on_c, 0, 90, 101
2, 159360, Note_on_c, 0, 95, 101
2, 159360, Note_on_c, 0, 102, 101
2, 159600, Note_on_c, 0, 102, 0
2, 159600, Note_on_c, 0, 95, 0
2, 159600, Note_on_c, 0, 90, 0
2, 160320, Note_on_c, 0, 59, 101
2, 161280, Note_on_c, 0, 59, 0
2, 161280, Note_on_c, 0, 59, 101
2, 162120, Note_on_c, 0, 59, 0
2, 162120, Note_on_c, 0, 59, 101
2, 162240, Note_on_c, 0, 59, 0
2, 162240, Note_on_c, 0, 59, 101
2, 163200, Note_on_c, 0, 59, 0
2, 164160, Note_on_c, 0, 71, 101
2, 165120, Note_on_c, 0, 71, 0
2, 165120, Note_on_c, 0, 71, 101
2, 165960, Note_on_c, 0, 71, 0
2, 165960, Note_on_c, 0, 71, 101
2, 166080, Note_on_c, 0, 71, 0
2, 166080, Note_on_c, 0, 71, 101
2, 167040, Note_on_c, 0, 71, 0
2, 167040, Note_on_c, 0, 71, 101
2, 167199, Note_on_c, 0, 71, 0
2, 167199, Note_on_c, 0, 70, 101
2, 167360, Note_on_c, 0, 70, 0
2, 167360, Note_on_c, 0, 71, 101
2, 167520, Note_on_c, 0, 71, 0
2, 167520, Note_on_c, 0, 63, 101
2, 167520, Note_on_c, 0, 72, 101
2, 167679, Note_on_c, 0, 72, 0
2, 167679, Note_on_c, 0, 63, 0
2, 167679, Note_on_c, 0, 62, 101
2, 167679, Note_on_c, 0, 71, 101
2, 167840, Note_on_c, 0, 71, 0
2, 167840, Note_on_c, 0, 62, 0
2, 167840, Note_on_c, 0, 63, 101
2, 167840, Note_on_c, 0, 72, 101
2, 168000, Note_on_c, 0, 72, 0
2, 168000, Note_on_c, 0, 63, 0
2, 168000, Note_on_c, 0, 64, 101
2, 168000, Note_on_c, 0, 73, 101
2, 168159, Note_on_c, 0, 73, 0
2, 168159, Note_on_c, 0, 64, 0
2, 168159, Note_on_c, 0, 63, 101
2, 168159, Note_on_c, 0, 72, 101
2, 168320, Note_on_c, 0, 72, 0
2, 168320, Note_on_c, 0, 63, 0
2, 168320, Note_on_c, 0, 64, 101
2, 168320, Note_on_c, 0, 73, 101
2, 168480, Note_on_c, 0, 73, 0
2, 168480, Note_on_c, 0, 64, 0
2, 168480, Note_on_c, 0, 65, 101
2, 168480, Note_on_c, 0, 74, 101
2, 168639, Note_on_c, 0, 74, 0
2, 168639, Note_on_c, 0, 65, 0
2, 168639, Note_on_c, 0, 64, 101
2, 168639, Note_on_c, 0, 73, 101
2, 168800, Note_on_c, 0, 73, 0
2, 168800, Note_on_c, 0, 64, 0
2, 168800, Note_on_c, 0, 65, 101
2, 168800, Note_on_c, 0, 74, 101
2, 168960, Note_on_c, 0, 74, 0
2, 168960, Note_on_c, 0, 65, 0
2, 168960, Note_on_c, 0, 66, 101
2, 168960, Note_on_c, 0, 75, 101
2, 169119, Note_on_c, 0, 75, 0
2, 169119, Note_on_c, 0, 66, 0
2, 169119, Note_on_c, 0, 65, 101
2, 169119, Note_on_c, 0, 74, 101
2, 169280, Note_on_c, 0, 74, 0
2, 169280, Note_on_c, 0, 65, 0
2, 169280, Note_on_c, 0, 66, 101
2, 169280, Note_on_c, 0, 75, 101
2, 169440, Note_on_c, 0, 75, 0
2, 169440, Note_on_c, 0, 66, 0
2, 169440, Note_on_c, 0, 67, 101
2, 169440, Note_on_c, 0, 76, 101
2, 169599, Note_on_c, 0, 76, 0
2, 169599, Note_on_c, 0, 67, 0
2, 169599, Note_on_c, 0, 66, 101
2, 169599, Note_on_c, 0, 75, 101
2, 169760, Note_on_c, 0, 75, 0
2, 169760, Note_on_c, 0, 66, 0
2, 169760, Note_on_c, 0, 67, 101
2, 169760, Note_on_c, 0, 76, 101
2, 169920, Note_on_c, 0, 76, 0
2, 169920, Note_on_c, 0, 67, 0
2, 169920, Note_on_c, 0, 68, 101
2, 169920, Note_on_c, 0, 77, 101
2, 170079, Note_on_c, 0, 77, 0
2, 170079, Note_on_c, 0, 68, 0
2, 170079, Note_on_c, 0, 67, 101
2, 170079, Note_on_c, 0, 76, 101
2, 170240, Note_on_c, 0, 76, 0
2, 170240, Note_on_c, 0, 67, 0
2, 170240, Note_on_c, 0, 68, 101
2, 170240, Note_on_c, 0, 77, 101
2, 170400, Note_on_c, 0, 77, 0
2, 170400, Note_on_c, 0, 68, 0
2, 170400, Note_on_c, 0, 69, 101
2, 170400, Note_on_c, 0, 78, 101
2, 170559, Note_on_c, 0, 78, 0
2, 170559, Note_on_c, 0, 69, 0
2, 170559, Note_on_c, 0, 68, 101
2, 170559, Note_on_c, 0, 77, 101
2, 170720, Note_on_c, 0, 77, 0
2, 170720, Note_on_c, 0, 68, 0
2, 170720, Note_on_c, 0, 69, 101
2, 170720, Note_on_c, 0, 78, 101
2, 170880, Note_on_c, 0, 78, 0
2, 170880, Note_on_c, 0, 69, 0
2, 170880, Note_on_c, 0, 83, 101
2, 171039, Note_on_c, 0, 83, 0
2, 171039, Note_on_c, 0, 82, 101
2, 171200, Note_on_c, 0, 82, 0
2, 171200, Note_on_c, 0, 83, 101
2, 171360, Note_on_c, 0, 83, 0
2, 171360, Note_on_c, 0, 75, 101
2, 171360, Note_on_c, 0, 84, 101
2, 171519, Note_on_c, 0, 84, 0
2, 171519, Note_on_c, 0, 75, 0
2, 171519, Note_on_c, 0, 74, 101
2, 171519, Note_on_c, 0, 83, 101
2, 171680, Note_on_c, 0, 83, 0
2, 171680, Note_on_c, 0, 74, 0
2, 171680, Note_on_c, 0, 75, 101
2, 171680, Note_on_c, 0, 84, 101
2, 171840, Note_on_c, 0, 84, 0
2, 171840, Note_on_c, 0, 75, 0
2, 171840, Note_on_c, 0, 76, 101
2, 171840, Note_on_c, 0, 85, 101
2, 171999, Note_on_c, 0, 85, 0
2, 171999, Note_on_c, 0, 76, 0
2, 171999, Note_on_c, 0, 75, 101
2, 171999, Note_on_c, 0, 84, 101
2, 172160, Note_on_c, 0, 84, 0
2, 172160, Note_on_c, 0, 75, 0
2, 172160, Note_on_c, 0, 76, 101
2, 172160, Note_on_c, 0, 85, 101
2, 172320, Note_on_c, 0, 85, 0
2, 172320, Note_on_c, 0, 76, 0
2, 172320, Note_on_c, 0, 77, 101
2, 172320, Note_on_c, 0, 86, 101
2, 172479, Note_on_c, 0, 86, 0
2, 172479, Note_on_c, 0, 77, 0
2, 172479, Note_on_c, 0, 76, 101
2, 172479, Note_on_c, 0, 85, 101
2, 172640, Note_on_c, 0, 85, 0
2, 172640, Note_on_c, 0, 76, 0
2, 172640, Note_on_c, 0, 77, 101
2, 172640, Note_on_c, 0, 86, 101
2, 172800, Note_on_c, 0, 86, 0
2, 172800, Note_on_c, 0, 77, 0
2, 172800, Note_on_c, 0, 78, 101
2, 172800, Note_on_c, 0, 87, 101
2, 172959, Note_on_c, 0, 87, 0
2, 172959, Note_on_c, 0, 78, 0
2, 172959, Note_on_c, 0, 77, 101
2, 172959, Note_on_c, 0, 86, 101
2, 173120, Note_on_c, 0, 86, 0
2, 173120, Note_on_c, 0, 77, 0
2, 173120, Note_on_c, 0, 78, 101
2, 173120, Note_on_c, 0, 87, 101
2, 173280, Note_on_c, 0, 87, 0
2, 173280, Note_on_c, 0, 78, 0
2, 173280, Note_on_c, 0, 79, 101
2, 173280, Note_on_c, 0, 88, 101
2, 173439, Note_on_c, 0, 88, 0
2, 173439, Note_on_c, 0, 79, 0
2, 173439, Note_on_c, 0, 78, 101
2, 173439, Note_on_c, 0, 87, 101
2, 173600, Note_on_c, 0, 87, 0
2, 173600, Note_on_c, 0, 78, 0
2, 173600, Note_on_c, 0, 79, 101
2, 173600, Note_on_c, 0, 88, 101
2, 173760, Note_on_c, 0, 88, 0
2, 173760, Note_on_c, 0, 79, 0
2, 173760, Note_on_c, 0, 80, 101
2, 173760, Note_on_c, 0, 89, 101
2, 173919, Note_on_c, 0, 89, 0
2, 173919, Note_on_c, 0, 80, 0
2, 173919, Note_on_c, 0, 79, 101
2, 173919, Note_on_c, 0, 88, 101
2, 174080, Note_on_c, 0, 88, 0
2, 174080, Note_on_c, 0, 79, 0
2, 174080, Note_on_c, 0, 80, 101
2, 174080, Note_on_c, 0, 89, 101
2, 174240, Note_on_c, 0, 89, 0
2, 174240, Note_on_c, 0, 80, 0
2, 174240, Note_on_c, 0, 81, 101
2, 174240, Note_on_c, 0, 90, 101
2, 174399, Note_on_c, 0, 90, 0
2, 174399, Note_on_c, 0, 81, 0
2, 174399, Note_on_c, 0, 80, 101
2, 174399, Note_on_c, 0, 89, 101
2, 174560, Note_on_c, 0, 89, 0
2, 174560, Note_on_c, 0, 80, 0
2, 174560, Note_on_c, 0, 81, 101
2, 174560, Note_on_c, 0, 90, 101
2, 174720, Note_on_c, 0, 90, 0
2, 174720, Note_on_c, 0, 81, 0
2, 174720, Note_on_c, 0, 81, 101
2, 174720, Note_on_c, 0, 90, 101
2, 174879, Note_on_c, 0, 90, 0
2, 174879, Note_on_c, 0, 81, 0
2, 174879, Note_on_c, 0, 80, 101
2, 174879, Note_on_c, 0, 89, 101
2, 175040, Note_on_c, 0, 89, 0
2, 175040, Note_on_c, 0, 80, 0
2, 175040, Note_on_c, 0, 81, 101
2, 175040, Note_on_c, 0, 90, 101
2, 175200, Note_on_c, 0, 90, 0
2, 175200, Note_on_c, 0, 81, 0
2, 175200, Note_on_c, 0, 81, 101
2, 175200, Note_on_c, 0, 90, 101
2, 175359, Note_on_c, 0, 90, 0
2, 175359, Note_on_c, 0, 81, 0
2, 175359, Note_on_c, 0, 80, 101
2, 175359, Note_on_c, 0, 89, 101
2, 175520, Note_on_c, 0, 89, 0
2, 175520, Note_on_c, 0, 80, 0
2, 175520, Note_on_c, 0, 81, 101
2, 175520, Note_on_c, 0, 90, 101
2, 175680, Note_on_c, 0, 90, 0
2, 175680, Note_on_c, 0, 81, 0
2, 175680, Note_on_c, 0, 81, 101
2, 175680, Note_on_c, 0, 90, 101
2, 175839, Note_on_c, 0, 90, 0
2, 175839, Note_on_c, 0, 81, 0
2, 175839, Note_on_c, 0, 80, 101
2, 175839, Note_on_c, 0, 89, 101
2, 176000, Note_on_c, 0, 89, 0
2, 176000, Note_on_c, 0, 80, 0
2, 176000, Note_on_c, 0, 81, 101
2, 176000, Note_on_c, 0, 90, 101
2, 176160, Note_on_c, 0, 90, 0
2, 176160, Note_on_c, 0, 81, 0
2, 176160, Note_on_c, 0, 81, 101
2, 176160, Note_on_c, 0, 90, 101
2, 176319, Note_on_c, 0, 90, 0
2, 176319, Note_on_c, 0, 81, 0
2, 176319, Note_on_c, 0, 80, 101
2, 176319, Note_on_c, 0, 89, 101
2, 176480, Note_on_c, 0, 89, 0
2, 176480, Note_on_c, 0, 80, 0
2, 176480, Note_on_c, 0, 81, 101
2, 176480, Note_on_c, 0, 90, 101
2, 176640, Note_on_c, 0, 90, 0
2, 176640, Note_on_c, 0, 81, 0
2, 176640, Note_on_c, 0, 81, 101
2, 176640, Note_on_c, 0, 90, 101
2, 176799, Note_on_c, 0, 90, 0
2, 176799, Note_on_c, 0, 81, 0
2, 176799, Note_on_c, 0, 80, 101
2, 176799, Note_on_c, 0, 89, 101
2, 176960, Note_on_c, 0, 89, 0
2, 176960, Note_on_c, 0, 80, 0
2, 176960, Note_on_c, 0, 81, 101
2, 176960, Note_on_c, 0, 90, 101
2, 177120, Note_on_c, 0, 90, 0
2, 177120, Note_on_c, 0, 81, 0
2, 177120, Note_on_c, 0, 81, 101
2, 177120, Note_on_c, 0, 90, 101
2, 177279, Note_on_c, 0, 90, 0
2, 177279, Note_on_c, 0, 81, 0
2, 177279, Note_on_c, 0, 80, 101
2, 177279, Note_on_c, 0, 89, 101
2, 177440, Note_on_c, 0, 89, 0
2, 177440, Note_on_c, 0, 80, 0
2, 177440, Note_on_c, 0, 81, 101
2, 177440, Note_on_c, 0, 90, 101
2, 177600, Note_on_c, 0, 90, 0
2, 177600, Note_on_c, 0, 81, 0
2, 177600, Note_on_c, 0, 81, 101
2, 177600, Note_on_c, 0, 90, 101
2, 177759, Note_on_c, 0, 90, 0
2, 177759, Note_on_c, 0, 81, 0
2, 177759, Note_on_c, 0, 80, 101
2, 177759, Note_on_c, 0, 89, 101
2, 177920, Note_on_c, 0, 89, 0
2, 177920, Note_on_c, 0, 80, 0
2, 177920, Note_on_c, 0, 81, 101
2, 177920, Note_on_c, 0, 90, 101
2, 178080, Note_on_c, 0, 90, 0
2, 178080, Note_on_c, 0, 81, 0
2, 178080, Note_on_c, 0, 81, 101
2, 178080, Note_on_c, 0, 90, 101
2, 178239, Note_on_c, 0, 90, 0
2, 178239, Note_on_c, 0, 81, 0
2, 178239, Note_on_c, 0, 80, 101
2, 178239, Note_on_c, 0, 89, 101
2, 178400, Note_on_c, 0, 89, 0
2, 178400, Note_on_c, 0, 80, 0
2, 178400, Note_on_c, 0, 81, 101
2, 178400, Note_on_c, 0, 90, 101
2, 178560, Note_on_c, 0, 90, 0
2, 178560, Note_on_c, 0, 81, 0
2, 178560, Note_on_c, 0, 83, 101
2, 178560, Note_on_c, 0, 95, 101
2, 178719, Note_on_c, 0, 95, 0
2, 178719, Note_on_c, 0, 83, 0
2, 178719, Note_on_c, 0, 82, 101
2, 178719, Note_on_c, 0, 94, 101
2, 178880, Note_on_c, 0, 94, 0
2, 178880, Note_on_c, 0, 82, 0
2, 178880, Note_on_c, 0, 83, 101
2, 178880, Note_on_c, 0, 95, 101
2, 179040, Note_on_c, 0, 95, 0
2, 179040, Note_on_c, 0, 83, 0
2, 179040, Note_on_c, 0, 83, 101
2, 179040, Note_on_c, 0, 95, 101
2, 179199, Note_on_c, 0, 95, 0
2, 179199, Note_on_c, 0, 83, 0
2, 179199, Note_on_c, 0, 82, 101
2, 179199, Note_on_c, 0, 94, 101
2, 179360, Note_on_c, 0, 94, 0
2, 179360, Note_on_c, 0, 82, 0
2, 179360, Note_on_c, 0, 83, 101
2, 179360, Note_on_c, 0, 95, 101
2, 179520, Note_on_c, 0, 95, 0
2, 179520, Note_on_c, 0, 83, 0
2, 179520, Note_on_c, 0, 83, 101
2, 179520, Note_on_c, 0, 95, 101
2, 179679, Note_on_c, 0, 95, 0
2, 179679, Note_on_c, 0, 83, 0
2, 179679, Note_on_c, 0, 82, 101
2, 179679, Note_on_c, 0, 94, 101
2, 179840, Note_on_c, 0, 94, 0
2, 179840, Note_on_c, 0, 82, 0
2, 179840, Note_on_c, 0, 83, 101
2, 179840, Note_on_c, 0, 95, 101
2, 180000, Note_on_c, 0, 95, 0
2, 180000, Note_on_c, 0, 83, 0
2, 180000, Note_on_c, 0, 83, 101
2, 180000, Note_on_c, 0, 95, 101
2, 180159, Note_on_c, 0, 95, 0
2, 180159, Note_on_c, 0, 83, 0
2, 180159, Note_on_c, 0, 82, 101
2, 180159, Note_on_c, 0, 94, 101
2, 180320, Note_on_c, 0, 94, 0
2, 180320, Note_on_c, 0, 82, 0
2, 180320, Note_on_c, 0, 83, 101
2, 180320, Note_on_c, 0, 95, 101
2, 180480, Note_on_c, 0, 95, 0
2, 180480, Note_on_c, 0, 83, 0
2, 180480, Note_on_c, 0, 83, 101
2, 180480, Note_on_c, 0, 95, 101
2, 180639, Note_on_c, 0, 95, 0
2, 180639, Note_on_c, 0, 83, 0
2, 180639, Note_on_c, 0, 82, 101
2, 180639, Note_on_c, 0, 94, 101
2, 180800, Note_on_c, 0, 94, 0
2, 180800, Note_on_c, 0, 82, 0
2, 180800, Note_on_c, 0, 83, 101
2, 180800, Note_on_c, 0, 95, 101
2, 180960, Note_on_c, 0, 95, 0
2, 180960, Note_on_c, 0, 83, 0
2, 180960, Note_on_c, 0, 83, 101
2, 180960, Note_on_c, 0, 95, 101
2, 181119, Note_on_c, 0, 95, 0
2, 181119, Note_on_c, 0, 83, 0
2, 181119, Note_on_c, 0, 82, 101
2, 181119, Note_on_c, 0, 94, 101
2, 181280, Note_on_c, 0, 94, 0
2, 181280, Note_on_c, 0, 82, 0
2, 181280, Note_on_c, 0, 83, 101
2, 181280, Note_on_c, 0, 95, 101
2, 181440, Note_on_c, 0, 95, 0
2, 181440, Note_on_c, 0, 83, 0
2, 181440, Note_on_c, 0, 83, 101
2, 181440, Note_on_c, 0, 95, 101
2, 181599, Note_on_c, 0, 95, 0
2, 181599, Note_on_c, 0, 83, 0
2, 181599, Note_on_c, 0, 82, 101
2, 181599, Note_on_c, 0, 94, 101
2, 181760, Note_on_c, 0, 94, 0
2, 181760, Note_on_c, 0, 82, 0
2, 181760, Note_on_c, 0, 83, 101
2, 181760, Note_on_c, 0, 95, 101
2, 181920, Note_on_c, 0, 95, 0
2, 181920, Note_on_c, 0, 83, 0
2, 181920, Note_on_c, 0, 83, 101
2, 181920, Note_on_c, 0, 95, 101
2, 182079, Note_on_c, 0, 95, 0
2, 182079, Note_on_c, 0, 83, 0
2, 182079, Note_on_c, 0, 82, 101
2, 182079, Note_on_c, 0, 94, 101
2, 182240, Note_on_c, 0, 94, 0
2, 182240, Note_on_c, 0, 82, 0
2, 182240, Note_on_c, 0, 83, 101
2, 182240, Note_on_c, 0, 95, 101
2, 182400, Note_on_c, 0, 95, 0
2, 182400, Note_on_c, 0, 83, 0
2, 184800, Note_on_c, 0, 71, 101
2, 184800, Note_on_c, 0, 76, 101
2, 184800, Note_on_c, 0, 80, 101
2, 184800, Note_on_c, 0, 83, 101
2, 185760, Note_on_c, 0, 83, 0
2, 185760, Note_on_c, 0, 71, 0
2, 185760, Note_on_c, 0, 76, 0
2, 185760, Note_on_c, 0, 80, 0
2, 185760, Note_on_c, 0, 73, 101
2, 185760, Note_on_c, 0, 76, 101
2, 185760, Note_on_c, 0, 80, 101
2, 185760, Note_on_c, 0, 85, 101
2, 186000, Note_on_c, 0, 85, 0
2, 186000, Note_on_c, 0, 73, 0
2, 186000, Note_on_c, 0, 76, 0
2, 186000, Note_on_c, 0, 80, 0
2, 186000, Note_on_c, 0, 75, 101
2, 186000, Note_on_c, 0, 87, 101
2, 186240, Note_on_c, 0, 87, 0
2, 186240, Note_on_c, 0, 75, 0
2, 186240, Note_on_c, 0, 75, 101
2, 186240, Note_on_c, 0, 80, 101
2, 186240, Note_on_c, 0, 83, 101
2, 186240, Note_on_c, 0, 87, 101
2, 186480, Note_on_c, 0, 87, 0
2, 186480, Note_on_c, 0, 75, 0
2, 186480, Note_on_c, 0, 80, 0
2, 186480, Note_on_c, 0, 83, 0
2, 186480, Note_on_c, 0, 68, 101
2, 186480, Note_on_c, 0, 80, 101
2, 186720, Note_on_c, 0, 80, 0
2, 186720, Note_on_c, 0, 68, 0
2, 186720, Note_on_c, 0, 75, 101
2, 186720, Note_on_c, 0, 80, 101
2, 186720, Note_on_c, 0, 83, 101
2, 186720, Note_on_c, 0, 87, 101
2, 186960, Note_on_c, 0, 87, 0
2, 186960, Note_on_c, 0, 75, 0
2, 186960, Note_on_c, 0, 80, 0
2, 186960, Note_on_c, 0, 83, 0
2, 186960, Note_on_c, 0, 76, 101
2, 186960, Note_on_c, 0, 88, 101
2, 187200, Note_on_c, 0, 88, 0
2, 187200, Note_on_c, 0, 76, 0
2, 187200, Note_on_c, 0, 78, 101
2, 187200, Note_on_c, 0, 80, 101
2, 187200, Note_on_c, 0, 83, 101
2, 187200, Note_on_c, 0, 90, 101
2, 187440, Note_on_c, 0, 90, 0
2, 187440, Note_on_c, 0, 78, 0
2, 187440, Note_on_c, 0, 80, 0
2, 187440, Note_on_c, 0, 83, 0
2, 187440, Note_on_c, 0, 80, 101
2, 187440, Note_on_c, 0, 92, 101
2, 187680, Note_on_c, 0, 92, 0
2, 187680, Note_on_c, 0, 80, 0
2, 187680, Note_on_c, 0, 80, 101
2, 187680, Note_on_c, 0, 83, 101
2, 187680, Note_on_c, 0, 88, 101
2, 187680, Note_on_c, 0, 92, 101
2, 187920, Note_on_c, 0, 92, 0
2, 187920, Note_on_c, 0, 80, 0
2, 187920, Note_on_c, 0, 83, 0
2, 187920, Note_on_c, 0, 88, 0
2, 187920, Note_on_c, 0, 68, 101
2, 187920, Note_on_c, 0, 80, 101
2, 188160, Note_on_c, 0, 80, 0
2, 188160, Note_on_c, 0, 68, 0
2, 188160, Note_on_c, 0, 73, 101
2, 188160, Note_on_c, 0, 80, 101
2, 188160, Note_on_c, 0, 83, 101
2, 188160, Note_on_c, 0, 85, 101
2, 188400, Note_on_c, 0, 85, 0
2, 188400, Note_on_c, 0, 73, 0
2, 188400, Note_on_c, 0, 80, 0
2, 188400, Note_on_c, 0, 83, 0
2, 188400, Note_on_c, 0, 76, 101
2, 188400, Note_on_c, 0, 88, 101
2, 188640, Note_on_c, 0, 88, 0
2, 188640, Note_on_c, 0, 76, 0
2, 188640, Note_on_c, 0, 80, 101
2, 188640, Note_on_c, 0, 83, 101
2, 188640, Note_on_c, 0, 88, 101
2, 188640, Note_on_c, 0, 92, 101
2, 188880, Note_on_c, 0, 92, 0
2, 188880, Note_on_c, 0, 80, 0
2, 188880, Note_on_c, 0, 83, 0
2, 188880, Note_on_c, 0, 88, 0
2, 188880, Note_on_c, 0, 83, 101
2, 188880, Note_on_c, 0, 95, 101
2, 189120, Note_on_c, 0, 95, 0
2, 189120, Note_on_c, 0, 83, 0
2, 189120, Note_on_c, 0, 84, 101
2, 189120, Note_on_c, 0, 88, 101
2, 189120, Note_on_c, 0, 92, 101
2, 189120, Note_on_c, 0, 96, 101
2, 190560, Note_on_c, 0, 96, 0
2, 190560, Note_on_c, 0, 84, 0
2, 190560, Note_on_c, 0, 88, 0
2, 190560, Note_on_c, 0, 92, 0
2, 190560, Note_on_c, 0, 84, 101
2, 190560, Note_on_c, 0, 89, 101
2, 190560, Note_on_c, 0, 93, 101
2, 190560, Note_on_c, 0, 96, 101
2, 191520, Note_on_c, 0, 96, 0
2, 191520, Note_on_c, 0, 84, 0
2, 191520, Note_on_c, 0, 89, 0
2, 191520, Note_on_c, 0, 93, 0
2, 191520, Note_on_c, 0, 81, 101
2, 191520, Note_on_c, 0, 84, 101
2, 191520, Note_on_c, 0, 89, 101
2, 191520, Note_on_c, 0, 93, 101
2, 191760, Note_on_c, 0, 93, 0
2, 191760, Note_on_c, 0, 81, 0
2, 191760, Note_on_c, 0, 84, 0
2, 191760, Note_on_c, 0, 89, 0
2, 191760, Note_on_c, 0, 83, 101
2, 191760, Note_on_c, 0, 95, 101
2, 192000, Note_on_c, 0, 95, 0
2, 192000, Note_on_c, 0, 83, 0
2, 192000, Note_on_c, 0, 83, 101
2, 192000, Note_on_c, 0, 89, 101
2, 192000, Note_on_c, 0, 93, 101
2, 192000, Note_on_c, 0, 95, 101
2, 192240, Note_on_c, 0, 95, 0
2, 192240, Note_on_c, 0, 83, 0
2, 192240, Note_on_c, 0, 89, 0
2, 192240, Note_on_c, 0, 93, 0
2, 192240, Note_on_c, 0, 75, 101
2, 192240, Note_on_c, 0, 87, 101
2, 192480, Note_on_c, 0, 87, 0
2, 192480, Note_on_c, 0, 75, 0
2, 192480, Note_on_c, 0, 75, 101
2, 192480, Note_on_c, 0, 77, 101
2, 192480, Note_on_c, 0, 81, 101
2, 192480, Note_on_c, 0, 87, 101
2, 192720, Note_on_c, 0, 87, 0
2, 192720, Note_on_c, 0, 75, 0
2, 192720, Note_on_c, 0, 77, 0
2, 192720, Note_on_c, 0, 81, 0
2, 192720, Note_on_c, 0, 81, 101
2, 192720, Note_on_c, 0, 93, 101
2, 192960, Note_on_c, 0, 93, 0
2, 192960, Note_on_c, 0, 81, 0
2, 192960, Note_on_c, 0, 81, 101
2, 192960, Note_on_c, 0, 89, 101
2, 192960, Note_on_c, 0, 93, 101
2, 193200, Note_on_c, 0, 93, 0
2, 193200, Note_on_c, 0, 89, 0
2, 193200, Note_on_c, 0, 81, 0
2, 193200, Note_on_c, 0, 72, 101
2, 193200, Note_on_c, 0, 84, 101
2, 193440, Note_on_c, 0, 84, 0
2, 193440, Note_on_c, 0, 72, 0
2, 193440, Note_on_c, 0, 72, 101
2, 193440, Note_on_c, 0, 77, 101
2, 193440, Note_on_c, 0, 81, 101
2, 193440, Note_on_c, 0, 84, 101
2, 193680, Note_on_c, 0, 84, 0
2, 193680, Note_on_c, 0, 72, 0
2, 193680, Note_on_c, 0, 77, 0
2, 193680, Note_on_c, 0, 81, 0
2, 193680, Note_on_c, 0, 75, 101
2, 193680, Note_on_c, 0, 87, 101
2, 193920, Note_on_c, 0, 87, 0
2, 193920, Note_on_c, 0, 75, 0
2, 193920, Note_on_c, 0, 75, 101
2, 193920, Note_on_c, 0, 77, 101
2, 193920, Note_on_c, 0, 81, 101
2, 193920, Note_on_c, 0, 87, 101
2, 194160, Note_on_c, 0, 87, 0
2, 194160, Note_on_c, 0, 75, 0
2, 194160, Note_on_c, 0, 77, 0
2, 194160, Note_on_c, 0, 81, 0
2, 194160, Note_on_c, 0, 69, 101
2, 194160, Note_on_c, 0, 81, 101
2, 194400, Note_on_c, 0, 81, 0
2, 194400, Note_on_c, 0, 69, 0
2, 194400, Note_on_c, 0, 69, 101
2, 194400, Note_on_c, 0, 77, 101
2, 194400, Note_on_c, 0, 81, 101
2, 194640, Note_on_c, 0, 81, 0
2, 194640, Note_on_c, 0, 77, 0
2, 194640, Note_on_c, 0, 69, 0
2, 194640, Note_on_c, 0, 71, 101
2, 194640, Note_on_c, 0, 83, 101
2, 194880, Note_on_c, 0, 83, 0
2, 194880, Note_on_c, 0, 71, 0
2, 194880, Control_c, 0, 64, 127
2, 194880, Note_on_c, 0, 76, 88
2, 194880, Note_on_c, 0, 80, 88
2, 194880, Note_on_c, 0, 83, 88
2, 194940, Note_on_c, 0, 83, 0
2, 194940, Note_on_c, 0, 80, 0
2, 194940, Note_on_c, 0, 76, 0
2, 194940, Note_on_c, 0, 71, 62
2, 195000, Note_on_c, 0, 71, 0
2, 195000, Note_on_c, 0, 76, 62
2, 195000, Note_on_c, 0, 80, 62
2, 195000, Note_on_c, 0, 83, 62
2, 195060, Note_on_c, 0, 83, 0
2, 195060, Note_on_c, 0, 80, 0
2, 195060, Note_on_c, 0, 76, 0
2, 195060, Note_on_c, 0, 71, 62
2, 195120, Note_on_c, 0, 71, 0
2, 195120, Note_on_c, 0, 76, 62
2, 195120, Note_on_c, 0, 80, 62
2, 195120, Note_on_c, 0, 83, 62
2, 195180, Note_on_c, 0, 83, 0
2, 195180, Note_on_c, 0, 80, 0
2, 195180, Note_on_c, 0, 76, 0
2, 195180, Note_on_c, 0, 71, 62
2, 195240, Note_on_c, 0, 71, 0
2, 195240, Note_on_c, 0, 76, 62
2, 195240, Note_on_c, 0, 80, 62
2, 195240, Note_on_c, 0, 83, 62
2, 195300, Note_on_c, 0, 83, 0
2, 195300, Note_on_c, 0, 80, 0
2, 195300, Note_on_c, 0, 76, 0
2, 195300, Note_on_c, 0, 71, 62
2, 195360, Note_on_c, 0, 71, 0
2, 195360, Note_on_c, 0, 76, 62
2, 195360, Note_on_c, 0, 80, 62
2, 195360, Note_on_c, 0, 83, 62
2, 195420, Note_on_c, 0, 83, 0
2, 195420, Note_on_c, 0, 80, 0
2, 195420, Note_on_c, 0, 76, 0
2, 195420, Note_on_c, 0, 71, 62
2, 195480, Note_on_c, 0, 71, 0
2, 195480, Note_on_c, 0, 76, 62
2, 195480, Note_on_c, 0, 80, 62
2, 195480, Note_on_c, 0, 83, 62
2, 195540, Note_on_c, 0, 83, 0
2, 195540, Note_on_c, 0, 80, 0
2, 195540, Note_on_c, 0, 76, 0
2, 195540, Note_on_c, 0, 71, 62
2, 195600, Note_on_c, 0, 71, 0
2, 195600, Note_on_c, 0, 76, 62
2, 195600, Note_on_c, 0, 80, 62
2, 195600, Note_on_c, 0, 83, 62
2, 195660, Note_on_c, 0, 83, 0
2, 195660, Note_on_c, 0, 80, 0
2, 195660, Note_on_c, 0, 76, 0
2, 195660, Note_on_c, 0, 71, 62
2, 195720, Note_on_c, 0, 71, 0
2, 195720, Note_on_c, 0, 76, 62
2, 195720, Note_on_c, 0, 80, 62
2, 195720, Note_on_c, 0, 83, 62
2, 195780, Note_on_c, 0, 83, 0
2, 195780, Note_on_c, 0, 80, 0
2, 195780, Note_on_c, 0, 76, 0
2, 195780, Note_on_c, 0, 71, 62
2, 195840, Note_on_c, 0, 71, 0
2, 195840, Note_on_c, 0, 76, 62
2, 195840, Note_on_c, 0, 80, 62
2, 195840, Note_on_c, 0, 83, 62
2, 195900, Note_on_c, 0, 83, 0
2, 195900, Note_on_c, 0, 80, 0
2, 195900, Note_on_c, 0, 76, 0
2, 195900, Note_on_c, 0, 71, 62
2, 195960, Note_on_c, 0, 71, 0
2, 195960, Note_on_c, 0, 76, 62
2, 195960, Note_on_c, 0, 80, 62
2, 195960, Note_on_c, 0, 83, 62
2, 196020, Note_on_c, 0, 83, 0
2, 196020, Note_on_c, 0, 80, 0
2, 196020, Note_on_c, 0, 76, 0
2, 196020, Note_on_c, 0, 71, 62
2, 196080, Note_on_c, 0, 71, 0
2, 196080, Note_on_c, 0, 76, 62
2, 196080, Note_on_c, 0, 80, 62
2, 196080, Note_on_c, 0, 83, 62
2, 196140, Note_on_c, 0, 83, 0
2, 196140, Note_on_c, 0, 80, 0
2, 196140, Note_on_c, 0, 76, 0
2, 196140, Note_on_c, 0, 71, 62
2, 196200, Note_on_c, 0, 71, 0
2, 196200, Note_on_c, 0, 76, 62
2, 196200, Note_on_c, 0, 80, 62
2, 196200, Note_on_c, 0, 83, 62
2, 196260, Note_on_c, 0, 83, 0
2, 196260, Note_on_c, 0, 80, 0
2, 196260, Note_on_c, 0, 76, 0
2, 196260, Note_on_c, 0, 71, 62
2, 196320, Note_on_c, 0, 71, 0
2, 196320, Note_on_c, 0, 76, 62
2, 196320, Note_on_c, 0, 80, 62
2, 196320, Note_on_c, 0, 83, 62
2, 196380, Note_on_c, 0, 83, 0
2, 196380, Note_on_c, 0, 80, 0
2, 196380, Note_on_c, 0, 76, 0
2, 196380, Note_on_c, 0, 71, 62
2, 196440, Note_on_c, 0, 71, 0
2, 196440, Note_on_c, 0, 76, 62
2, 196440, Note_on_c, 0, 80, 62
2, 196440, Note_on_c, 0, 83, 62
2, 196500, Note_on_c, 0, 83, 0
2, 196500, Note_on_c, 0, 80, 0
2, 196500, Note_on_c, 0, 76, 0
2, 196500, Note_on_c, 0, 71, 62
2, 196560, Note_on_c, 0, 71, 0
2, 196560, Note_on_c, 0, 76, 62
2, 196560, Note_on_c, 0, 80, 62
2, 196560, Note_on_c, 0, 83, 62
2, 196620, Note_on_c, 0, 83, 0
2, 196620, Note_on_c, 0, 80, 0
2, 196620, Note_on_c, 0, 76, 0
2, 196620, Note_on_c, 0, 71, 62
2, 196680, Note_on_c, 0, 71, 0
2, 196680, Note_on_c, 0, 76, 62
2, 196680, Note_on_c, 0, 80, 62
2, 196680, Note_on_c, 0, 83, 62
2, 196740, Note_on_c, 0, 83, 0
2, 196740, Note_on_c, 0, 80, 0
2, 196740, Note_on_c, 0, 76, 0
2, 196740, Note_on_c, 0, 71, 62
2, 196800, Note_on_c, 0, 71, 0
2, 196800, Note_on_c, 0, 76, 62
2, 196800, Note_on_c, 0, 80, 62
2, 196800, Note_on_c, 0, 83, 62
2, 196860, Note_on_c, 0, 83, 0
2, 196860, Note_on_c, 0, 80, 0
2, 196860, Note_on_c, 0, 76, 0
2, 196860, Note_on_c, 0, 71, 62
2, 196920, Note_on_c, 0, 71, 0
2, 196920, Note_on_c, 0, 76, 62
2, 196920, Note_on_c, 0, 80, 62
2, 196920, Note_on_c, 0, 83, 62
2, 196980, Note_on_c, 0, 83, 0
2, 196980, Note_on_c, 0, 80, 0
2, 196980, Note_on_c, 0, 76, 0
2, 196980, Note_on_c, 0, 71, 62
2, 197040, Note_on_c, 0, 71, 0
2, 197040, Note_on_c, 0, 76, 62
2, 197040, Note_on_c, 0, 80, 62
2, 197040, Note_on_c, 0, 83, 62
2, 197100, Note_on_c, 0, 83, 0
2, 197100, Note_on_c, 0, 80, 0
2, 197100, Note_on_c, 0, 76, 0
2, 197100, Note_on_c, 0, 71, 62
2, 197160, Note_on_c, 0, 71, 0
2, 197160, Note_on_c, 0, 76, 62
2, 197160, Note_on_c, 0, 80, 62
2, 197160, Note_on_c, 0, 83, 62
2, 197220, Note_on_c, 0, 83, 0
2, 197220, Note_on_c, 0, 80, 0
2, 197220, Note_on_c, 0, 76, 0
2, 197220, Note_on_c, 0, 71, 62
2, 197280, Note_on_c, 0, 71, 0
2, 197280, Note_on_c, 0, 76, 62
2, 197280, Note_on_c, 0, 80, 62
2, 197280, Note_on_c, 0, 83, 62
2, 197340, Note_on_c, 0, 83, 0
2, 197340, Note_on_c, 0, 80, 0
2, 197340, Note_on_c, 0, 76, 0
2, 197340, Note_on_c, 0, 71, 62
2, 197400, Note_on_c, 0, 71, 0
2, 197400, Note_on_c, 0, 76, 62
2, 197400, Note_on_c, 0, 80, 62
2, 197400, Note_on_c, 0, 83, 62
2, 197460, Note_on_c, 0, 83, 0
2, 197460, Note_on_c, 0, 80, 0
2, 197460, Note_on_c, 0, 76, 0
2, 197460, Note_on_c, 0, 71, 62
2, 197520, Note_on_c, 0, 71, 0
2, 197520, Note_on_c, 0, 76, 62
2, 197520, Note_on_c, 0, 80, 62
2, 197520, Note_on_c, 0, 83, 62
2, 197580, Note_on_c, 0, 83, 0
2, 197580, Note_on_c, 0, 80, 0
2, 197580, Note_on_c, 0, 76, 0
2, 197580, Note_on_c, 0, 71, 62
2, 197640, Note_on_c, 0, 71, 0
2, 197640, Note_on_c, 0, 76, 62
2, 197640, Note_on_c, 0, 80, 62
2, 197640, Note_on_c, 0, 83, 62
2, 197700, Note_on_c, 0, 83, 0
2, 197700, Note_on_c, 0, 80, 0
2, 197700, Note_on_c, 0, 76, 0
2, 197700, Note_on_c, 0, 71, 62
2, 197760, Note_on_c, 0, 71, 0
2, 197760, Note_on_c, 0, 76, 62
2, 197760, Note_on_c, 0, 80, 62
2, 197760, Note_on_c, 0, 83, 62
2, 197820, Note_on_c, 0, 83, 0
2, 197820, Note_on_c, 0, 80, 0
2, 197820, Note_on_c, 0, 76, 0
2, 197820, Note_on_c, 0, 71, 62
2, 197880, Note_on_c, 0, 71, 0
2, 197880, Note_on_c, 0, 76, 62
2, 197880, Note_on_c, 0, 80, 62
2, 197880, Note_on_c, 0, 83, 62
2, 197940, Note_on_c, 0, 83, 0
2, 197940, Note_on_c, 0, 80, 0
2, 197940, Note_on_c, 0, 76, 0
2, 197940, Note_on_c, 0, 71, 62
2, 198000, Note_on_c, 0, 71, 0
2, 198000, Note_on_c, 0, 76, 62
2, 198000, Note_on_c, 0, 80, 62
2, 198000, Note_on_c, 0, 83, 62
2, 198060, Note_on_c, 0, 83, 0
2, 198060, Note_on_c, 0, 80, 0
2, 198060, Note_on_c, 0, 76, 0
2, 198060, Note_on_c, 0, 71, 62
2, 198120, Note_on_c, 0, 71, 0
2, 198120, Note_on_c, 0, 76, 62
2, 198120, Note_on_c, 0, 80, 62
2, 198120, Note_on_c, 0, 83, 62
2, 198180, Note_on_c, 0, 83, 0
2, 198180, Note_on_c, 0, 80, 0
2, 198180, Note_on_c, 0, 76, 0
2, 198180, Note_on_c, 0, 71, 62
2, 198240, Note_on_c, 0, 71, 0
2, 198240, Note_on_c, 0, 76, 62
2, 198240, Note_on_c, 0, 80, 62
2, 198240, Note_on_c, 0, 83, 62
2, 198300, Note_on_c, 0, 83, 0
2, 198300, Note_on_c, 0, 80, 0
2, 198300, Note_on_c, 0, 76, 0
2, 198300, Note_on_c, 0, 71, 62
2, 198360, Note_on_c, 0, 71, 0
2, 198360, Note_on_c, 0, 76, 62
2, 198360, Note_on_c, 0, 80, 62
2, 198360, Note_on_c, 0, 83, 62
2, 198420, Note_on_c, 0, 83, 0
2, 198420, Note_on_c, 0, 80, 0
2, 198420, Note_on_c, 0, 76, 0
2, 198420, Note_on_c, 0, 71, 62
2, 198480, Note_on_c, 0, 71, 0
2, 198480, Note_on_c, 0, 76, 62
2, 198480, Note_on_c, 0, 80, 62
2, 198480, Note_on_c, 0, 83, 62
2, 198540, Note_on_c, 0, 83, 0
2, 198540, Note_on_c, 0, 80, 0
2, 198540, Note_on_c, 0, 76, 0
2, 198540, Note_on_c, 0, 71, 62
2, 198600, Note_on_c, 0, 71, 0
2, 198600, Note_on_c, 0, 76, 62
2, 198600, Note_on_c, 0, 80, 62
2, 198600, Note_on_c, 0, 83, 62
2, 198660, Note_on_c, 0, 83, 0
2, 198660, Note_on_c, 0, 80, 0
2, 198660, Note_on_c, 0, 76, 0
2, 198660, Note_on_c, 0, 71, 62
2, 198720, Note_on_c, 0, 71, 0
2, 198720, Note_on_c, 0, 76, 62
2, 198720, Note_on_c, 0, 80, 62
2, 198720, Note_on_c, 0, 83, 62
2, 198780, Note_on_c, 0, 83, 0
2, 198780, Note_on_c, 0, 80, 0
2, 198780, Note_on_c, 0, 76, 0
2, 198780, Note_on_c, 0, 71, 62
2, 198840, Note_on_c, 0, 71, 0
2, 198840, Note_on_c, 0, 76, 62
2, 198840, Note_on_c, 0, 80, 62
2, 198840, Note_on_c, 0, 83, 62
2, 198900, Note_on_c, 0, 83, 0
2, 198900, Note_on_c, 0, 80, 0
2, 198900, Note_on_c, 0, 76, 0
2, 198900, Note_on_c, 0, 71, 62
2, 198960, Note_on_c, 0, 71, 0
2, 198960, Note_on_c, 0, 76, 62
2, 198960, Note_on_c, 0, 80, 62
2, 198960, Note_on_c, 0, 83, 62
2, 199020, Note_on_c, 0, 83, 0
2, 199020, Note_on_c, 0, 80, 0
2, 199020, Note_on_c, 0, 76, 0
2, 199020, Note_on_c, 0, 71, 62
2, 199080, Note_on_c, 0, 71, 0
2, 199080, Control_c, 0, 64, 0
2, 199080, Note_on_c, 0, 76, 62
2, 199080, Note_on_c, 0, 80, 62
2, 199080, Note_on_c, 0, 83, 62
2, 199140, Note_on_c, 0, 83, 0
2, 199140, Note_on_c, 0, 80, 0
2, 199140, Note_on_c, 0, 76, 0
2, 199140, Note_on_c, 0, 71, 62
2, 199200, Note_on_c, 0, 71, 0
2, 199200, Control_c, 0, 64, 127
2, 199200, Note_on_c, 0, 76, 62
2, 199200, Note_on_c, 0, 80, 62
2, 199200, Note_on_c, 0, 84, 62
2, 199260, Note_on_c, 0, 84, 0
2, 199260, Note_on_c, 0, 80, 0
2, 199260, Note_on_c, 0, 76, 0
2, 199260, Note_on_c, 0, 72, 62
2, 199320, Note_on_c, 0, 72, 0
2, 199320, Note_on_c, 0, 76, 62
2, 199320, Note_on_c, 0, 80, 62
2, 199320, Note_on_c, 0, 84, 62
2, 199380, Note_on_c, 0, 84, 0
2, 199380, Note_on_c, 0, 80, 0
2, 199380, Note_on_c, 0, 76, 0
2, 199380, Note_on_c, 0, 72, 62
2, 199440, Note_on_c, 0, 72, 0
2, 199440, Note_on_c, 0, 76, 62
2, 199440, Note_on_c, 0, 80, 62
2, 199440, Note_on_c, 0, 84, 62
2, 199500, Note_on_c, 0, 84, 0
2, 199500, Note_on_c, 0, 80, 0
2, 199500, Note_on_c, 0, 76, 0
2, 199500, Note_on_c, 0, 72, 62
2, 199560, Note_on_c, 0, 72, 0
2, 199560, Note_on_c, 0, 76, 62
2, 199560, Note_on_c, 0, 80, 62
2, 199560, Note_on_c, 0, 84, 62
2, 199620, Note_on_c, 0, 84, 0
2, 199620, Note_on_c, 0, 80, 0
2, 199620, Note_on_c, 0, 76, 0
2, 199620, Note_on_c, 0, 72, 62
2, 199680, Note_on_c, 0, 72, 0
2, 199680, Note_on_c, 0, 76, 62
2, 199680, Note_on_c, 0, 80, 62
2, 199680, Note_on_c, 0, 84, 62
2, 199740, Note_on_c, 0, 84, 0
2, 199740, Note_on_c, 0, 80, 0
2, 199740, Note_on_c, 0, 76, 0
2, 199740, Note_on_c, 0, 72, 62
2, 199800, Note_on_c, 0, 72, 0
2, 199800, Note_on_c, 0, 76, 62
2, 199800, Note_on_c, 0, 80, 62
2, 199800, Note_on_c, 0, 84, 62
2, 199860, Note_on_c, 0, 84, 0
2, 199860, Note_on_c, 0, 80, 0
2, 199860, Note_on_c, 0, 76, 0
2, 199860, Note_on_c, 0, 72, 62
2, 199920, Note_on_c, 0, 72, 0
2, 199920, Note_on_c, 0, 76, 62
2, 199920, Note_on_c, 0, 80, 62
2, 199920, Note_on_c, 0, 84, 62
2, 199980, Note_on_c, 0, 84, 0
2, 199980, Note_on_c, 0, 80, 0
2, 199980, Note_on_c, 0, 76, 0
2, 199980, Note_on_c, 0, 72, 62
2, 200040, Note_on_c, 0, 72, 0
2, 200040, Note_on_c, 0, 76, 62
2, 200040, Note_on_c, 0, 80, 62
2, 200040, Note_on_c, 0, 84, 62
2, 200100, Note_on_c, 0, 84, 0
2, 200100, Note_on_c, 0, 80, 0
2, 200100, Note_on_c, 0, 76, 0
2, 200100, Note_on_c, 0, 72, 62
2, 200160, Note_on_c, 0, 72, 0
2, 200160, Note_on_c, 0, 76, 62
2, 200160, Note_on_c, 0, 80, 62
2, 200160, Note_on_c, 0, 84, 62
2, 200220, Note_on_c, 0, 84, 0
2, 200220, Note_on_c, 0, 80, 0
2, 200220, Note_on_c, 0, 76, 0
2, 200220, Note_on_c, 0, 72, 62
2, 200280, Note_on_c, 0, 72, 0
2, 200280, Note_on_c, 0, 76, 62
2, 200280, Note_on_c, 0, 80, 62
2, 200280, Note_on_c, 0, 84, 62
2, 200340, Note_on_c, 0, 84, 0
2, 200340, Note_on_c, 0, 80, 0
2, 200340, Note_on_c, 0, 76, 0
2, 200340, Note_on_c, 0, 72, 62
2, 200400, Note_on_c, 0, 72, 0
2, 200400, Note_on_c, 0, 76, 62
2, 200400, Note_on_c, 0, 80, 62
2, 200400, Note_on_c, 0, 84, 62
2, 200460, Note_on_c, 0, 84, 0
2, 200460, Note_on_c, 0, 80, 0
2, 200460, Note_on_c, 0, 76, 0
2, 200460, Note_on_c, 0, 72, 62
2, 200520, Note_on_c, 0, 72, 0
2, 200520, Control_c, 0, 64, 0
2, 200520, Note_on_c, 0, 76, 62
2, 200520, Note_on_c, 0, 80, 62
2, 200520, Note_on_c, 0, 84, 62
2, 200580, Note_on_c, 0, 84, 0
2, 200580, Note_on_c, 0, 80, 0
2, 200580, Note_on_c, 0, 76, 0
2, 200580, Note_on_c, 0, 72, 62
2, 200640, Note_on_c, 0, 72, 0
2, 200640, Control_c, 0, 64, 127
2, 200640, Note_on_c, 0, 77, 62
2, 200640, Note_on_c, 0, 81, 62
2, 200640, Note_on_c, 0, 84, 62
2, 200700, Note_on_c, 0, 84, 0
2, 200700, Note_on_c, 0, 81, 0
2, 200700, Note_on_c, 0, 77, 0
2, 200700, Note_on_c, 0, 72, 62
2, 200760, Note_on_c, 0, 72, 0
2, 200760, Note_on_c, 0, 77, 62
2, 200760, Note_on_c, 0, 81, 62
2, 200760, Note_on_c, 0, 84, 62
2, 200820, Note_on_c, 0, 84, 0
2, 200820, Note_on_c, 0, 81, 0
2, 200820, Note_on_c, 0, 77, 0
2, 200820, Note_on_c, 0, 72, 62
2, 200880, Note_on_c, 0, 72, 0
2, 200880, Note_on_c, 0, 77, 62
2, 200880, Note_on_c, 0, 81, 62
2, 200880, Note_on_c, 0, 84, 62
2, 200940, Note_on_c, 0, 84, 0
2, 200940, Note_on_c, 0, 81, 0
2, 200940, Note_on_c, 0, 77, 0
2, 200940, Note_on_c, 0, 72, 62
2, 201000, Note_on_c, 0, 72, 0
2, 201000, Note_on_c, 0, 77, 62
2, 201000, Note_on_c, 0, 81, 62
2, 201000, Note_on_c, 0, 84, 62
2, 201060, Note_on_c, 0, 84, 0
2, 201060, Note_on_c, 0, 81, 0
2, 201060, Note_on_c, 0, 77, 0
2, 201060, Note_on_c, 0, 72, 62
2, 201120, Note_on_c, 0, 72, 0
2, 201120, Note_on_c, 0, 77, 62
2, 201120, Note_on_c, 0, 81, 62
2, 201120, Note_on_c, 0, 84, 62
2, 201180, Note_on_c, 0, 84, 0
2, 201180, Note_on_c, 0, 81, 0
2, 201180, Note_on_c, 0, 77, 0
2, 201180, Note_on_c, 0, 72, 62
2, 201240, Note_on_c, 0, 72, 0
2, 201240, Note_on_c, 0, 77, 62
2, 201240, Note_on_c, 0, 81, 62
2, 201240, Note_on_c, 0, 84, 62
2, 201300, Note_on_c, 0, 84, 0
2, 201300, Note_on_c, 0, 81, 0
2, 201300, Note_on_c, 0, 77, 0
2, 201300, Note_on_c, 0, 72, 62
2, 201360, Note_on_c, 0, 72, 0
2, 201360, Note_on_c, 0, 77, 62
2, 201360, Note_on_c, 0, 81, 62
2, 201360, Note_on_c, 0, 84, 62
2, 201420, Note_on_c, 0, 84, 0
2, 201420, Note_on_c, 0, 81, 0
2, 201420, Note_on_c, 0, 77, 0
2, 201420, Note_on_c, 0, 72, 62
2, 201480, Note_on_c, 0, 72, 0
2, 201480, Note_on_c, 0, 77, 62
2, 201480, Note_on_c, 0, 81, 62
2, 201480, Note_on_c, 0, 84, 62
2, 201540, Note_on_c, 0, 84, 0
2, 201540, Note_on_c, 0, 81, 0
2, 201540, Note_on_c, 0, 77, 0
2, 201540, Note_on_c, 0, 72, 62
2, 201600, Note_on_c, 0, 72, 0
2, 201600, Note_on_c, 0, 77, 62
2, 201600, Note_on_c, 0, 81, 62
2, 201600, Note_on_c, 0, 84, 62
2, 201660, Note_on_c, 0, 84, 0
2, 201660, Note_on_c, 0, 81, 0
2, 201660, Note_on_c, 0, 77, 0
2, 201660, Note_on_c, 0, 72, 62
2, 201720, Note_on_c, 0, 72, 0
2, 201720, Note_on_c, 0, 77, 62
2, 201720, Note_on_c, 0, 81, 62
2, 201720, Note_on_c, 0, 84, 62
2, 201780, Note_on_c, 0, 84, 0
2, 201780, Note_on_c, 0, 81, 0
2, 201780, Note_on_c, 0, 77, 0
2, 201780, Note_on_c, 0, 72, 62
2, 201840, Note_on_c, 0, 72, 0
2, 201840, Note_on_c, 0, 77, 62
2, 201840, Note_on_c, 0, 81, 62
2, 201840, Note_on_c, 0, 84, 62
2, 201900, Note_on_c, 0, 84, 0
2, 201900, Note_on_c, 0, 81, 0
2, 201900, Note_on_c, 0, 77, 0
2, 201900, Note_on_c, 0, 72, 62
2, 201960, Note_on_c, 0, 72, 0
2, 201960, Note_on_c, 0, 77, 62
2, 201960, Note_on_c, 0, 81, 62
2, 201960, Note_on_c, 0, 84, 62
2, 202020, Note_on_c, 0, 84, 0
2, 202020, Note_on_c, 0, 81, 0
2, 202020, Note_on_c, 0, 77, 0
2, 202020, Note_on_c, 0, 72, 62
2, 202080, Note_on_c, 0, 72, 0
2, 202080, Note_on_c, 0, 77, 62
2, 202080, Note_on_c, 0, 81, 62
2, 202080, Note_on_c, 0, 84, 62
2, 202140, Note_on_c, 0, 84, 0
2, 202140, Note_on_c, 0, 81, 0
2, 202140, Note_on_c, 0, 77, 0
2, 202140, Note_on_c, 0, 72, 62
2, 202200, Note_on_c, 0, 72, 0
2, 202200, Note_on_c, 0, 77, 62
2, 202200, Note_on_c, 0, 81, 62
2, 202200, Note_on_c, 0, 84, 62
2, 202260, Note_on_c, 0, 84, 0
2, 202260, Note_on_c, 0, 81, 0
2, 202260, Note_on_c, 0, 77, 0
2, 202260, Note_on_c, 0, 72, 62
2, 202320, Note_on_c, 0, 72, 0
2, 202320, Note_on_c, 0, 77, 62
2, 202320, Note_on_c, 0, 81, 62
2, 202320, Note_on_c, 0, 84, 62
2, 202380, Note_on_c, 0, 84, 0
2, 202380, Note_on_c, 0, 81, 0
2, 202380, Note_on_c, 0, 77, 0
2, 202380, Note_on_c, 0, 72, 62
2, 202440, Note_on_c, 0, 72, 0
2, 202440, Note_on_c, 0, 77, 62
2, 202440, Note_on_c, 0, 81, 62
2, 202440, Note_on_c, 0, 84, 62
2, 202500, Note_on_c, 0, 84, 0
2, 202500, Note_on_c, 0, 81, 0
2, 202500, Note_on_c, 0, 77, 0
2, 202500, Note_on_c, 0, 72, 62
2, 202560, Note_on_c, 0, 72, 0
2, 202560, Note_on_c, 0, 77, 62
2, 202560, Note_on_c, 0, 81, 62
2, 202560, Note_on_c, 0, 84, 62
2, 202620, Note_on_c, 0, 84, 0
2, 202620, Note_on_c, 0, 81, 0
2, 202620, Note_on_c, 0, 77, 0
2, 202620, Note_on_c, 0, 72, 62
2, 202680, Note_on_c, 0, 72, 0
2, 202680, Note_on_c, 0, 77, 62
2, 202680, Note_on_c, 0, 81, 62
2, 202680, Note_on_c, 0, 84, 62
2, 202740, Note_on_c, 0, 84, 0
2, 202740, Note_on_c, 0, 81, 0
2, 202740, Note_on_c, 0, 77, 0
2, 202740, Note_on_c, 0, 72, 62
2, 202800, Note_on_c, 0, 72, 0
2, 202800, Note_on_c, 0, 77, 62
2, 202800, Note_on_c, 0, 81, 62
2, 202800, Note_on_c, 0, 84, 62
2, 202860, Note_on_c, 0, 84, 0
2, 202860, Note_on_c, 0, 81, 0
2, 202860, Note_on_c, 0, 77, 0
2, 202860, Note_on_c, 0, 72, 62
2, 202920, Note_on_c, 0, 72, 0
2, 202920, Note_on_c, 0, 77, 62
2, 202920, Note_on_c, 0, 81, 62
2, 202920, Note_on_c, 0, 84, 62
2, 202980, Note_on_c, 0, 84, 0
2, 202980, Note_on_c, 0, 81, 0
2, 202980, Note_on_c, 0, 77, 0
2, 202980, Note_on_c, 0, 72, 62
2, 203040, Note_on_c, 0, 72, 0
2, 203040, Note_on_c, 0, 77, 62
2, 203040, Note_on_c, 0, 81, 62
2, 203040, Note_on_c, 0, 84, 62
2, 203100, Note_on_c, 0, 84, 0
2, 203100, Note_on_c, 0, 81, 0
2, 203100, Note_on_c, 0, 77, 0
2, 203100, Note_on_c, 0, 72, 62
2, 203160, Note_on_c, 0, 72, 0
2, 203160, Note_on_c, 0, 77, 62
2, 203160, Note_on_c, 0, 81, 62
2, 203160, Note_on_c, 0, 84, 62
2, 203220, Note_on_c, 0, 84, 0
2, 203220, Note_on_c, 0, 81, 0
2, 203220, Note_on_c, 0, 77, 0
2, 203220, Note_on_c, 0, 72, 62
2, 203280, Note_on_c, 0, 72, 0
2, 203280, Note_on_c, 0, 77, 62
2, 203280, Note_on_c, 0, 81, 62
2, 203280, Note_on_c, 0, 84, 62
2, 203340, Note_on_c, 0, 84, 0
2, 203340, Note_on_c, 0, 81, 0
2, 203340, Note_on_c, 0, 77, 0
2, 203340, Note_on_c, 0, 72, 62
2, 203400, Note_on_c, 0, 72, 0
2, 203400, Note_on_c, 0, 77, 62
2, 203400, Note_on_c, 0, 81, 62
2, 203400, Note_on_c, 0, 84, 62
2, 203460, Note_on_c, 0, 84, 0
2, 203460, Note_on_c, 0, 81, 0
2, 203460, Note_on_c, 0, 77, 0
2, 203460, Note_on_c, 0, 72, 62
2, 203520, Note_on_c, 0, 72, 0
2, 203520, Note_on_c, 0, 77, 62
2, 203520, Note_on_c, 0, 81, 62
2, 203520, Note_on_c, 0, 84, 62
2, 203580, Note_on_c, 0, 84, 0
2, 203580, Note_on_c, 0, 81, 0
2, 203580, Note_on_c, 0, 77, 0
2, 203580, Note_on_c, 0, 72, 62
2, 203640, Note_on_c, 0, 72, 0
2, 203640, Note_on_c, 0, 77, 62
2, 203640, Note_on_c, 0, 81, 62
2, 203640, Note_on_c, 0, 84, 62
2, 203700, Note_on_c, 0, 84, 0
2, 203700, Note_on_c, 0, 81, 0
2, 203700, Note_on_c, 0, 77, 0
2, 203700, Note_on_c, 0, 72, 62
2, 203760, Note_on_c, 0, 72, 0
2, 203760, Note_on_c, 0, 77, 62
2, 203760, Note_on_c, 0, 81, 62
2, 203760, Note_on_c, 0, 84, 62
2, 203820, Note_on_c, 0, 84, 0
2, 203820, Note_on_c, 0, 81, 0
2, 203820, Note_on_c, 0, 77, 0
2, 203820, Note_on_c, 0, 72, 62
2, 203880, Note_on_c, 0, 72, 0
2, 203880, Note_on_c, 0, 77, 62
2, 203880, Note_on_c, 0, 81, 62
2, 203880, Note_on_c, 0, 84, 62
2, 203940, Note_on_c, 0, 84, 0
2, 203940, Note_on_c, 0, 81, 0
2, 203940, Note_on_c, 0, 77, 0
2, 203940, Note_on_c, 0, 72, 62
2, 204000, Note_on_c, 0, 72, 0
2, 204000, Note_on_c, 0, 77, 62
2, 204000, Note_on_c, 0, 81, 62
2, 204000, Note_on_c, 0, 84, 62
2, 204060, Note_on_c, 0, 84, 0
2, 204060, Note_on_c, 0, 81, 0
2, 204060, Note_on_c, 0, 77, 0
2, 204060, Note_on_c, 0, 72, 62
2, 204120, Note_on_c, 0, 72, 0
2, 204120, Note_on_c, 0, 77, 62
2, 204120, Note_on_c, 0, 81, 62
2, 204120, Note_on_c, 0, 84, 62
2, 204180, Note_on_c, 0, 84, 0
2, 204180, Note_on_c, 0, 81, 0
2, 204180, Note_on_c, 0, 77, 0
2, 204180, Note_on_c, 0, 72, 62
2, 204240, Note_on_c, 0, 72, 0
2, 204240, Note_on_c, 0, 77, 62
2, 204240, Note_on_c, 0, 81, 62
2, 204240, Note_on_c, 0, 84, 62
2, 204300, Note_on_c, 0, 84, 0
2, 204300, Note_on_c, 0, 81, 0
2, 204300, Note_on_c, 0, 77, 0
2, 204300, Note_on_c, 0, 72, 62
2, 204360, Note_on_c, 0, 72, 0
2, 204360, Note_on_c, 0, 77, 62
2, 204360, Note_on_c, 0, 81, 62
2, 204360, Note_on_c, 0, 84, 62
2, 204420, Note_on_c, 0, 84, 0
2, 204420, Note_on_c, 0, 81, 0
2, 204420, Note_on_c, 0, 77, 0
2, 204420, Note_on_c, 0, 72, 62
2, 204480, Note_on_c, 0, 72, 0
2, 204480, Note_on_c, 0, 77, 62
2, 204480, Note_on_c, 0, 81, 62
2, 204480, Note_on_c, 0, 84, 62
2, 204540, Note_on_c, 0, 84, 0
2, 204540, Note_on_c, 0, 81, 0
2, 204540, Note_on_c, 0, 77, 0
2, 204540, Note_on_c, 0, 72, 62
2, 204600, Note_on_c, 0, 72, 0
2, 204600, Note_on_c, 0, 77, 62
2, 204600, Note_on_c, 0, 81, 62
2, 204600, Note_on_c, 0, 84, 62
2, 204660, Note_on_c, 0, 84, 0
2, 204660, Note_on_c, 0, 81, 0
2, 204660, Note_on_c, 0, 77, 0
2, 204660, Note_on_c, 0, 72, 62
2, 204720, Note_on_c, 0, 72, 0
2, 204720, Note_on_c, 0, 77, 62
2, 204720, Note_on_c, 0, 81, 62
2, 204720, Note_on_c, 0, 84, 62
2, 204780, Note_on_c, 0, 84, 0
2, 204780, Note_on_c, 0, 81, 0
2, 204780, Note_on_c, 0, 77, 0
2, 204780, Note_on_c, 0, 72, 62
2, 204840, Note_on_c, 0, 72, 0
2, 204840, Control_c, 0, 64, 0
2, 204840, Note_on_c, 0, 77, 62
2, 204840, Note_on_c, 0, 81, 62
2, 204840, Note_on_c, 0, 84, 62
2, 204900, Note_on_c, 0, 84, 0
2, 204900, Note_on_c, 0, 81, 0
2, 204900, Note_on_c, 0, 77, 0
2, 204900, Note_on_c, 0, 72, 62
2, 204960, Note_on_c, 0, 72, 0
2, 204960, Control_c, 0, 64, 127
2, 204960, Note_on_c, 0, 76, 49
2, 204960, Note_on_c, 0, 80, 49
2, 204960, Note_on_c, 0, 83, 49
2, 205020, Note_on_c, 0, 83, 0
2, 205020, Note_on_c, 0, 80, 0
2, 205020, Note_on_c, 0, 76, 0
2, 205020, Note_on_c, 0, 71, 49
2, 205080, Note_on_c, 0, 71, 0
2, 205080, Note_on_c, 0, 76, 49
2, 205080, Note_on_c, 0, 80, 49
2, 205080, Note_on_c, 0, 83, 49
2, 205140, Note_on_c, 0, 83, 0
2, 205140, Note_on_c, 0, 80, 0
2, 205140, Note_on_c, 0, 76, 0
2, 205140, Note_on_c, 0, 71, 49
2, 205200, Note_on_c, 0, 71, 0
2, 205200, Note_on_c, 0, 76, 49
2, 205200, Note_on_c, 0, 80, 49
2, 205200, Note_on_c, 0, 83, 49
2, 205260, Note_on_c, 0, 83, 0
2, 205260, Note_on_c, 0, 80, 0
2, 205260, Note_on_c, 0, 76, 0
2, 205260, Note_on_c, 0, 71, 49
2, 205320, Note_on_c, 0, 71, 0
2, 205320, Note_on_c, 0, 76, 49
2, 205320, Note_on_c, 0, 80, 49
2, 205320, Note_on_c, 0, 83, 49
2, 205380, Note_on_c, 0, 83, 0
2, 205380, Note_on_c, 0, 80, 0
2, 205380, Note_on_c, 0, 76, 0
2, 205380, Note_on_c, 0, 71, 49
2, 205440, Note_on_c, 0, 71, 0
2, 205440, Note_on_c, 0, 76, 49
2, 205440, Note_on_c, 0, 80, 49
2, 205440, Note_on_c, 0, 83, 49
2, 205500, Note_on_c, 0, 83, 0
2, 205500, Note_on_c, 0, 80, 0
2, 205500, Note_on_c, 0, 76, 0
2, 205500, Note_on_c, 0, 71, 49
2, 205560, Note_on_c, 0, 71, 0
2, 205560, Note_on_c, 0, 76, 49
2, 205560, Note_on_c, 0, 80, 49
2, 205560, Note_on_c, 0, 83, 49
2, 205620, Note_on_c, 0, 83, 0
2, 205620, Note_on_c, 0, 80, 0
2, 205620, Note_on_c, 0, 76, 0
2, 205620, Note_on_c, 0, 71, 49
2, 205680, Note_on_c, 0, 71, 0
2, 205680, Note_on_c, 0, 76, 49
2, 205680, Note_on_c, 0, 80, 49
2, 205680, Note_on_c, 0, 83, 49
2, 205740, Note_on_c, 0, 83, 0
2, 205740, Note_on_c, 0, 80, 0
2, 205740, Note_on_c, 0, 76, 0
2, 205740, Note_on_c, 0, 71, 49
2, 205800, Note_on_c, 0, 71, 0
2, 205800, Note_on_c, 0, 76, 49
2, 205800, Note_on_c, 0, 80, 49
2, 205800, Note_on_c, 0, 83, 49
2, 205860, Note_on_c, 0, 83, 0
2, 205860, Note_on_c, 0, 80, 0
2, 205860, Note_on_c, 0, 76, 0
2, 205860, Note_on_c, 0, 71, 49
2, 205920, Note_on_c, 0, 71, 0
2, 205920, Note_on_c, 0, 76, 49
2, 205920, Note_on_c, 0, 80, 49
2, 205920, Note_on_c, 0, 83, 49
2, 205980, Note_on_c, 0, 83, 0
2, 205980, Note_on_c, 0, 80, 0
2, 205980, Note_on_c, 0, 76, 0
2, 205980, Note_on_c, 0, 71, 49
2, 206040, Note_on_c, 0, 71, 0
2, 206040, Note_on_c, 0, 76, 49
2, 206040, Note_on_c, 0, 80, 49
2, 206040, Note_on_c, 0, 83, 49
2, 206100, Note_on_c, 0, 83, 0
2, 206100, Note_on_c, 0, 80, 0
2, 206100, Note_on_c, 0, 76, 0
2, 206100, Note_on_c, 0, 71, 49
2, 206160, Note_on_c, 0, 71, 0
2, 206160, Note_on_c, 0, 76, 49
2, 206160, Note_on_c, 0, 80, 49
2, 206160, Note_on_c, 0, 83, 49
2, 206220, Note_on_c, 0, 83, 0
2, 206220, Note_on_c, 0, 80, 0
2, 206220, Note_on_c, 0, 76, 0
2, 206220, Note_on_c, 0, 71, 49
2, 206280, Note_on_c, 0, 71, 0
2, 206280, Note_on_c, 0, 76, 49
2, 206280, Note_on_c, 0, 80, 49
2, 206280, Note_on_c, 0, 83, 49
2, 206340, Note_on_c, 0, 83, 0
2, 206340, Note_on_c, 0, 80, 0
2, 206340, Note_on_c, 0, 76, 0
2, 206340, Control_c, 0, 64, 0
2, 206340, Note_on_c, 0, 71, 49
2, 206400, Note_on_c, 0, 71, 0
2, 206400, Control_c, 0, 64, 127
2, 206400, Note_on_c, 0, 75, 49
2, 206400, Note_on_c, 0, 81, 49
2, 206400, Note_on_c, 0, 83, 49
2, 206460, Note_on_c, 0, 83, 0
2, 206460, Note_on_c, 0, 81, 0
2, 206460, Note_on_c, 0, 75, 0
2, 206460, Note_on_c, 0, 71, 49
2, 206520, Note_on_c, 0, 71, 0
2, 206520, Note_on_c, 0, 75, 49
2, 206520, Note_on_c, 0, 81, 49
2, 206520, Note_on_c, 0, 83, 49
2, 206580, Note_on_c, 0, 83, 0
2, 206580, Note_on_c, 0, 81, 0
2, 206580, Note_on_c, 0, 75, 0
2, 206580, Note_on_c, 0, 71, 49
2, 206640, Note_on_c, 0, 71, 0
2, 206640, Note_on_c, 0, 75, 49
2, 206640, Note_on_c, 0, 81, 49
2, 206640, Note_on_c, 0, 83, 49
2, 206700, Note_on_c, 0, 83, 0
2, 206700, Note_on_c, 0, 81, 0
2, 206700, Note_on_c, 0, 75, 0
2, 206700, Note_on_c, 0, 71, 49
2, 206760, Note_on_c, 0, 71, 0
2, 206760, Note_on_c, 0, 75, 49
2, 206760, Note_on_c, 0, 81, 49
2, 206760, Note_on_c, 0, 83, 49
2, 206820, Note_on_c, 0, 83, 0
2, 206820, Note_on_c, 0, 81, 0
2, 206820, Note_on_c, 0, 75, 0
2, 206820, Note_on_c, 0, 71, 49
2, 206880, Note_on_c, 0, 71, 0
2, 206880, Note_on_c, 0, 75, 49
2, 206880, Note_on_c, 0, 81, 49
2, 206880, Note_on_c, 0, 83, 49
2, 206940, Note_on_c, 0, 83, 0
2, 206940, Note_on_c, 0, 81, 0
2, 206940, Note_on_c, 0, 75, 0
2, 206940, Note_on_c, 0, 71, 49
2, 207000, Note_on_c, 0, 71, 0
2, 207000, Note_on_c, 0, 75, 49
2, 207000, Note_on_c, 0, 81, 49
2, 207000, Note_on_c, 0, 83, 49
2, 207060, Note_on_c, 0, 83, 0
2, 207060, Note_on_c, 0, 81, 0
2, 207060, Note_on_c, 0, 75, 0
2, 207060, Note_on_c, 0, 71, 49
2, 207120, Note_on_c, 0, 71, 0
2, 207120, Note_on_c, 0, 75, 49
2, 207120, Note_on_c, 0, 81, 49
2, 207120, Note_on_c, 0, 83, 49
2, 207180, Note_on_c, 0, 83, 0
2, 207180, Note_on_c, 0, 81, 0
2, 207180, Note_on_c, 0, 75, 0
2, 207180, Note_on_c, 0, 71, 49
2, 207240, Note_on_c, 0, 71, 0
2, 207240, Note_on_c, 0, 75, 49
2, 207240, Note_on_c, 0, 81, 49
2, 207240, Note_on_c, 0, 83, 49
2, 207300, Note_on_c, 0, 83, 0
2, 207300, Note_on_c, 0, 81, 0
2, 207300, Note_on_c, 0, 75, 0
2, 207300, Note_on_c, 0, 71, 49
2, 207360, Note_on_c, 0, 71, 0
2, 207360, Note_on_c, 0, 75, 49
2, 207360, Note_on_c, 0, 81, 49
2, 207360, Note_on_c, 0, 83, 49
2, 207420, Note_on_c, 0, 83, 0
2, 207420, Note_on_c, 0, 81, 0
2, 207420, Note_on_c, 0, 75, 0
2, 207420, Note_on_c, 0, 71, 49
2, 207480, Note_on_c, 0, 71, 0
2, 207480, Note_on_c, 0, 75, 49
2, 207480, Note_on_c, 0, 81, 49
2, 207480, Note_on_c, 0, 83, 49
2, 207540, Note_on_c, 0, 83, 0
2, 207540, Note_on_c, 0, 81, 0
2, 207540, Note_on_c, 0, 75, 0
2, 207540, Note_on_c, 0, 71, 49
2, 207600, Note_on_c, 0, 71, 0
2, 207600, Note_on_c, 0, 75, 49
2, 207600, Note_on_c, 0, 81, 49
2, 207600, Note_on_c, 0, 83, 49
2, 207660, Note_on_c, 0, 83, 0
2, 207660, Note_on_c, 0, 81, 0
2, 207660, Note_on_c, 0, 75, 0
2, 207660, Note_on_c, 0, 71, 49
2, 207720, Note_on_c, 0, 71, 0
2, 207720, Note_on_c, 0, 75, 49
2, 207720, Note_on_c, 0, 81, 49
2, 207720, Note_on_c, 0, 83, 49
2, 207780, Note_on_c, 0, 83, 0
2, 207780, Note_on_c, 0, 81, 0
2, 207780, Note_on_c, 0, 75, 0
2, 207780, Control_c, 0, 64, 0
2, 207780, Note_on_c, 0, 71, 49
2, 207840, Note_on_c, 0, 71, 0
2, 207840, Control_c, 0, 64, 127
2, 207840, Note_on_c, 0, 76, 49
2, 207840, Note_on_c, 0, 80, 49
2, 207840, Note_on_c, 0, 83, 49
2, 207900, Note_on_c, 0, 83, 0
2, 207900, Note_on_c, 0, 80, 0
2, 207900, Note_on_c, 0, 76, 0
2, 207900, Note_on_c, 0, 71, 49
2, 207960, Note_on_c, 0, 71, 0
2, 207960, Note_on_c, 0, 76, 49
2, 207960, Note_on_c, 0, 80, 49
2, 207960, Note_on_c, 0, 83, 49
2, 208020, Note_on_c, 0, 83, 0
2, 208020, Note_on_c, 0, 80, 0
2, 208020, Note_on_c, 0, 76, 0
2, 208020, Note_on_c, 0, 71, 49
2, 208080, Note_on_c, 0, 71, 0
2, 208080, Note_on_c, 0, 76, 49
2, 208080, Note_on_c, 0, 80, 49
2, 208080, Note_on_c, 0, 83, 49
2, 208140, Note_on_c, 0, 83, 0
2, 208140, Note_on_c, 0, 80, 0
2, 208140, Note_on_c, 0, 76, 0
2, 208140, Note_on_c, 0, 71, 49
2, 208200, Note_on_c, 0, 71, 0
2, 208200, Note_on_c, 0, 76, 49
2, 208200, Note_on_c, 0, 80, 49
2, 208200, Note_on_c, 0, 83, 49
2, 208260, Note_on_c, 0, 83, 0
2, 208260, Note_on_c, 0, 80, 0
2, 208260, Note_on_c, 0, 76, 0
2, 208260, Note_on_c, 0, 71, 49
2, 208320, Note_on_c, 0, 71, 0
2, 208320, Note_on_c, 0, 76, 49
2, 208320, Note_on_c, 0, 80, 49
2, 208380, Note_on_c, 0, 80, 0
2, 208380, Note_on_c, 0, 76, 0
2, 208380, Note_on_c, 0, 71, 49
2, 208440, Note_on_c, 0, 71, 0
2, 208440, Note_on_c, 0, 76, 49
2, 208440, Note_on_c, 0, 80, 49
2, 208500, Note_on_c, 0, 80, 0
2, 208500, Note_on_c, 0, 76, 0
2, 208500, Note_on_c, 0, 71, 49
2, 208560, Note_on_c, 0, 71, 0
2, 208560, Note_on_c, 0, 76, 49
2, 208560, Note_on_c, 0, 80, 49
2, 208620, Note_on_c, 0, 80, 0
2, 208620, Note_on_c, 0, 76, 0
2, 208620, Note_on_c, 0, 71, 49
2, 208680, Note_on_c, 0, 71, 0
2, 208680, Note_on_c, 0, 76, 49
2, 208680, Note_on_c, 0, 80, 49
2, 208740, Note_on_c, 0, 80, 0
2, 208740, Note_on_c, 0, 76, 0
2, 208740, Note_on_c, 0, 71, 49
2, 208800, Note_on_c, 0, 71, 0
2, 208800, Note_on_c, 0, 71, 49
2, 208800, Note_on_c, 0, 76, 49
2, 208860, Note_on_c, 0, 76, 0
2, 208860, Note_on_c, 0, 71, 0
2, 208860, Note_on_c, 0, 68, 49
2, 208920, Note_on_c, 0, 68, 0
2, 208920, Note_on_c, 0, 71, 49
2, 208920, Note_on_c, 0, 76, 49
2, 208980, Note_on_c, 0, 76, 0
2, 208980, Note_on_c, 0, 71, 0
2, 208980, Note_on_c, 0, 68, 49
2, 209040, Note_on_c, 0, 68, 0
2, 209040, Note_on_c, 0, 71, 49
2, 209040, Note_on_c, 0, 76, 49
2, 209100, Note_on_c, 0, 76, 0
2, 209100, Note_on_c, 0, 71, 0
2, 209100, Note_on_c, 0, 68, 49
2, 209160, Note_on_c, 0, 68, 0
2, 209160, Control_c, 0, 64, 0
2, 209160, Note_on_c, 0, 71, 49
2, 209160, Note_on_c, 0, 76, 49
2, 209220, Note_on_c, 0, 76, 0
2, 209220, Note_on_c, 0, 71, 0
2, 209220, Note_on_c, 0, 68, 49
2, 209280, Note_on_c, 0, 68, 0
2, 209280, Control_c, 0, 64, 127
2, 209280, Note_on_c, 0, 69, 49
2, 209280, Note_on_c, 0, 71, 49
2, 209340, Note_on_c, 0, 71, 0
2, 209340, Note_on_c, 0, 69, 0
2, 209340, Note_on_c, 0, 66, 49
2, 209400, Note_on_c, 0, 66, 0
2, 209400, Note_on_c, 0, 69, 49
2, 209400, Note_on_c, 0, 71, 49
2, 209460, Note_on_c, 0, 71, 0
2, 209460, Note_on_c, 0, 69, 0
2, 209460, Note_on_c, 0, 66, 49
2, 209520, Note_on_c, 0, 66, 0
2, 209520, Note_on_c, 0, 69, 49
2, 209520, Note_on_c, 0, 71, 49
2, 209580, Note_on_c, 0, 71, 0
2, 209580, Note_on_c, 0, 69, 0
2, 209580, Note_on_c, 0, 66, 49
2, 209640, Note_on_c, 0, 66, 0
2, 209640, Note_on_c, 0, 69, 49
2, 209640, Note_on_c, 0, 71, 49
2, 209700, Note_on_c, 0, 71, 0
2, 209700, Note_on_c, 0, 69, 0
2, 209700, Note_on_c, 0, 66, 49
2, 209760, Note_on_c, 0, 66, 0
2, 209760, Note_on_c, 0, 69, 49
2, 209760, Note_on_c, 0, 71, 49
2, 209820, Note_on_c, 0, 71, 0
2, 209820, Note_on_c, 0, 69, 0
2, 209820, Note_on_c, 0, 66, 49
2, 209880, Note_on_c, 0, 66, 0
2, 209880, Note_on_c, 0, 69, 49
2, 209880, Note_on_c, 0, 71, 49
2, 209940, Note_on_c, 0, 71, 0
2, 209940, Note_on_c, 0, 69, 0
2, 209940, Note_on_c, 0, 66, 49
2, 210000, Note_on_c, 0, 66, 0
2, 210000, Note_on_c, 0, 69, 49
2, 210000, Note_on_c, 0, 71, 49
2, 210060, Note_on_c, 0, 71, 0
2, 210060, Note_on_c, 0, 69, 0
2, 210060, Note_on_c, 0, 66, 49
2, 210120, Note_on_c, 0, 66, 0
2, 210120, Note_on_c, 0, 69, 49
2, 210120, Note_on_c, 0, 71, 49
2, 210180, Note_on_c, 0, 71, 0
2, 210180, Note_on_c, 0, 69, 0
2, 210180, Note_on_c, 0, 66, 49
2, 210240, Note_on_c, 0, 66, 0
2, 210240, Note_on_c, 0, 69, 49
2, 210240, Note_on_c, 0, 71, 49
2, 210300, Note_on_c, 0, 71, 0
2, 210300, Note_on_c, 0, 69, 0
2, 210300, Note_on_c, 0, 66, 49
2, 210360, Note_on_c, 0, 66, 0
2, 210360, Note_on_c, 0, 69, 49
2, 210360, Note_on_c, 0, 71, 49
2, 210420, Note_on_c, 0, 71, 0
2, 210420, Note_on_c, 0, 69, 0
2, 210420, Note_on_c, 0, 66, 49
2, 210480, Note_on_c, 0, 66, 0
2, 210480, Note_on_c, 0, 69, 49
2, 210480, Note_on_c, 0, 71, 49
2, 210540, Note_on_c, 0, 71, 0
2, 210540, Note_on_c, 0, 69, 0
2, 210540, Note_on_c, 0, 66, 49
2, 210600, Note_on_c, 0, 66, 0
2, 210600, Note_on_c, 0, 69, 49
2, 210600, Note_on_c, 0, 71, 49
2, 210660, Note_on_c, 0, 71, 0
2, 210660, Note_on_c, 0, 69, 0
2, 210660, Control_c, 0, 64, 0
2, 210660, Note_on_c, 0, 66, 49
2, 210720, Note_on_c, 0, 66, 0
2, 210720, Control_c, 0, 64, 127
2, 210720, Note_on_c, 0, 68, 49
2, 210720, Note_on_c, 0, 71, 49
2, 210780, Note_on_c, 0, 71, 0
2, 210780, Note_on_c, 0, 68, 0
2, 210780, Note_on_c, 0, 64, 49
2, 210840, Note_on_c, 0, 64, 0
2, 210840, Note_on_c, 0, 68, 49
2, 210840, Note_on_c, 0, 71, 49
2, 210900, Note_on_c, 0, 71, 0
2, 210900, Note_on_c, 0, 68, 0
2, 210900, Note_on_c, 0, 64, 49
2, 210960, Note_on_c, 0, 64, 0
2, 210960, Note_on_c, 0, 68, 49
2, 210960, Note_on_c, 0, 71, 49
2, 211020, Note_on_c, 0, 71, 0
2, 211020, Note_on_c, 0, 68, 0
2, 211020, Note_on_c, 0, 64, 49
2, 211080, Note_on_c, 0, 64, 0
2, 211080, Note_on_c, 0, 68, 49
2, 211080, Note_on_c, 0, 71, 49
2, 211140, Note_on_c, 0, 71, 0
2, 211140, Note_on_c, 0, 68, 0
2, 211140, Note_on_c, 0, 64, 49
2, 211200, Note_on_c, 0, 64, 0
2, 211200, Note_on_c, 0, 68, 49
2, 211200, Note_on_c, 0, 71, 49
2, 211260, Note_on_c, 0, 71, 0
2, 211260, Note_on_c, 0, 68, 0
2, 211260, Note_on_c, 0, 64, 49
2, 211320, Note_on_c, 0, 64, 0
2, 211320, Note_on_c, 0, 68, 49
2, 211320, Note_on_c, 0, 71, 49
2, 211380, Note_on_c, 0, 71, 0
2, 211380, Note_on_c, 0, 68, 0
2, 211380, Note_on_c, 0, 64, 49
2, 211440, Note_on_c, 0, 64, 0
2, 211440, Note_on_c, 0, 68, 49
2, 211440, Note_on_c, 0, 71, 49
2, 211500, Note_on_c, 0, 71, 0
2, 211500, Note_on_c, 0, 68, 0
2, 211500, Note_on_c, 0, 64, 49
2, 211560, Note_on_c, 0, 64, 0
2, 211560, Note_on_c, 0, 68, 49
2, 211560, Note_on_c, 0, 71, 49
2, 211620, Note_on_c, 0, 71, 0
2, 211620, Note_on_c, 0, 68, 0
2, 211620, Note_on_c, 0, 64, 49
2, 211680, Note_on_c, 0, 64, 0
2, 211680, Note_on_c, 0, 68, 49
2, 211680, Note_on_c, 0, 71, 49
2, 211740, Note_on_c, 0, 71, 0
2, 211740, Note_on_c, 0, 68, 0
2, 211740, Note_on_c, 0, 64, 49
2, 211800, Note_on_c, 0, 64, 0
2, 211800, Note_on_c, 0, 68, 49
2, 211800, Note_on_c, 0, 71, 49
2, 211860, Note_on_c, 0, 71, 0
2, 211860, Note_on_c, 0, 68, 0
2, 211860, Note_on_c, 0, 64, 49
2, 211920, Note_on_c, 0, 64, 0
2, 211920, Note_on_c, 0, 68, 49
2, 211920, Note_on_c, 0, 71, 49
2, 211980, Note_on_c, 0, 71, 0
2, 211980, Note_on_c, 0, 68, 0
2, 211980, Note_on_c, 0, 64, 49
2, 212040, Note_on_c, 0, 64, 0
2, 212040, Note_on_c, 0, 68, 49
2, 212040, Note_on_c, 0, 71, 49
2, 212100, Note_on_c, 0, 71, 0
2, 212100, Note_on_c, 0, 68, 0
2, 212100, Control_c, 0, 64, 0
2, 212100, Note_on_c, 0, 64, 49
2, 212160, Note_on_c, 0, 64, 0
2, 212160, Control_c, 0, 64, 127
2, 212160, Note_on_c, 0, 66, 49
2, 212160, Note_on_c, 0, 69, 49
2, 212160, Note_on_c, 0, 71, 49
2, 212220, Note_on_c, 0, 71, 0
2, 212220, Note_on_c, 0, 69, 0
2, 212220, Note_on_c, 0, 66, 0
2, 212220, Note_on_c, 0, 59, 49
2, 212280, Note_on_c, 0, 59, 0
2, 212280, Note_on_c, 0, 66, 49
2, 212280, Note_on_c, 0, 69, 49
2, 212280, Note_on_c, 0, 71, 49
2, 212340, Note_on_c, 0, 71, 0
2, 212340, Note_on_c, 0, 69, 0
2, 212340, Note_on_c, 0, 66, 0
2, 212340, Note_on_c, 0, 59, 49
2, 212400, Note_on_c, 0, 59, 0
2, 212400, Note_on_c, 0, 66, 49
2, 212400, Note_on_c, 0, 69, 49
2, 212400, Note_on_c, 0, 71, 49
2, 212460, Note_on_c, 0, 71, 0
2, 212460, Note_on_c, 0, 69, 0
2, 212460, Note_on_c, 0, 66, 0
2, 212460, Note_on_c, 0, 59, 49
2, 212520, Note_on_c, 0, 59, 0
2, 212520, Note_on_c, 0, 66, 49
2, 212520, Note_on_c, 0, 69, 49
2, 212520, Note_on_c, 0, 71, 49
2, 212580, Note_on_c, 0, 71, 0
2, 212580, Note_on_c, 0, 69, 0
2, 212580, Note_on_c, 0, 66, 0
2, 212580, Note_on_c, 0, 59, 49
2, 212640, Note_on_c, 0, 59, 0
2, 212640, Note_on_c, 0, 66, 49
2, 212640, Note_on_c, 0, 69, 49
2, 212640, Note_on_c, 0, 71, 49
2, 212700, Note_on_c, 0, 71, 0
2, 212700, Note_on_c, 0, 69, 0
2, 212700, Note_on_c, 0, 66, 0
2, 212700, Note_on_c, 0, 59, 49
2, 212760, Note_on_c, 0, 59, 0
2, 212760, Note_on_c, 0, 66, 49
2, 212760, Note_on_c, 0, 69, 49
2, 212760, Note_on_c, 0, 71, 49
2, 212820, Note_on_c, 0, 71, 0
2, 212820, Note_on_c, 0, 69, 0
2, 212820, Note_on_c, 0, 66, 0
2, 212820, Note_on_c, 0, 59, 49
2, 212880, Note_on_c, 0, 59, 0
2, 212880, Note_on_c, 0, 66, 49
2, 212880, Note_on_c, 0, 69, 49
2, 212880, Note_on_c, 0, 71, 49
2, 212940, Note_on_c, 0, 71, 0
2, 212940, Note_on_c, 0, 69, 0
2, 212940, Note_on_c, 0, 66, 0
2, 212940, Note_on_c, 0, 59, 49
2, 213000, Note_on_c, 0, 59, 0
2, 213000, Note_on_c, 0, 66, 49
2, 213000, Note_on_c, 0, 69, 49
2, 213000, Note_on_c, 0, 71, 49
2, 213060, Note_on_c, 0, 71, 0
2, 213060, Note_on_c, 0, 69, 0
2, 213060, Note_on_c, 0, 66, 0
2, 213060, Note_on_c, 0, 59, 49
2, 213120, Note_on_c, 0, 59, 0
2, 213120, Note_on_c, 0, 66, 49
2, 213120, Note_on_c, 0, 69, 49
2, 213120, Note_on_c, 0, 71, 49
2, 213180, Note_on_c, 0, 71, 0
2, 213180, Note_on_c, 0, 69, 0
2, 213180, Note_on_c, 0, 66, 0
2, 213180, Note_on_c, 0, 59, 49
2, 213240, Note_on_c, 0, 59, 0
2, 213240, Note_on_c, 0, 66, 49
2, 213240, Note_on_c, 0, 69, 49
2, 213240, Note_on_c, 0, 71, 49
2, 213300, Note_on_c, 0, 71, 0
2, 213300, Note_on_c, 0, 69, 0
2, 213300, Note_on_c, 0, 66, 0
2, 213300, Note_on_c, 0, 59, 49
2, 213360, Note_on_c, 0, 59, 0
2, 213360, Note_on_c, 0, 66, 49
2, 213360, Note_on_c, 0, 69, 49
2, 213360, Note_on_c, 0, 71, 49
2, 213420, Note_on_c, 0, 71, 0
2, 213420, Note_on_c, 0, 69, 0
2, 213420, Note_on_c, 0, 66, 0
2, 213420, Note_on_c, 0, 59, 49
2, 213480, Note_on_c, 0, 59, 0
2, 213480, Note_on_c, 0, 66, 49
2, 213480, Note_on_c, 0, 69, 49
2, 213480, Note_on_c, 0, 71, 49
2, 213540, Note_on_c, 0, 71, 0
2, 213540, Note_on_c, 0, 69, 0
2, 213540, Note_on_c, 0, 66, 0
2, 213540, Control_c, 0, 64, 0
2, 213540, Note_on_c, 0, 59, 49
2, 213600, Note_on_c, 0, 59, 0
2, 213600, Control_c, 0, 64, 127
2, 213600, Note_on_c, 0, 64, 49
2, 213600, Note_on_c, 0, 68, 49
2, 213600, Note_on_c, 0, 71, 49
2, 213660, Note_on_c, 0, 71, 0
2, 213660, Note_on_c, 0, 68, 0
2, 213660, Note_on_c, 0, 64, 0
2, 213660, Note_on_c, 0, 59, 49
2, 213720, Note_on_c, 0, 59, 0
2, 213720, Note_on_c, 0, 64, 49
2, 213720, Note_on_c, 0, 68, 49
2, 213720, Note_on_c, 0, 71, 49
2, 213780, Note_on_c, 0, 71, 0
2, 213780, Note_on_c, 0, 68, 0
2, 213780, Note_on_c, 0, 64, 0
2, 213780, Note_on_c, 0, 59, 49
2, 213840, Note_on_c, 0, 59, 0
2, 213840, Note_on_c, 0, 64, 49
2, 213840, Note_on_c, 0, 68, 49
2, 213840, Note_on_c, 0, 71, 49
2, 213900, Note_on_c, 0, 71, 0
2, 213900, Note_on_c, 0, 68, 0
2, 213900, Note_on_c, 0, 64, 0
2, 213900, Note_on_c, 0, 59, 49
2, 213960, Note_on_c, 0, 59, 0
2, 213960, Note_on_c, 0, 64, 49
2, 213960, Note_on_c, 0, 68, 49
2, 213960, Note_on_c, 0, 71, 49
2, 214020, Note_on_c, 0, 71, 0
2, 214020, Note_on_c, 0, 68, 0
2, 214020, Note_on_c, 0, 64, 0
2, 214020, Note_on_c, 0, 59, 49
2, 214080, Note_on_c, 0, 59, 0
2, 214080, Note_on_c, 0, 64, 49
2, 214080, Note_on_c, 0, 68, 49
2, 214140, Note_on_c, 0, 68, 0
2, 214140, Note_on_c, 0, 64, 0
2, 214140, Note_on_c, 0, 59, 49
2, 214200, Note_on_c, 0, 59, 0
2, 214200, Note_on_c, 0, 64, 49
2, 214200, Note_on_c, 0, 68, 49
2, 214260, Note_on_c, 0, 68, 0
2, 214260, Note_on_c, 0, 64, 0
2, 214260, Note_on_c, 0, 59, 49
2, 214320, Note_on_c, 0, 59, 0
2, 214320, Note_on_c, 0, 64, 49
2, 214320, Note_on_c, 0, 68, 49
2, 214380, Note_on_c, 0, 68, 0
2, 214380, Note_on_c, 0, 64, 0
2, 214380, Note_on_c, 0, 59, 49
2, 214440, Note_on_c, 0, 59, 0
2, 214440, Note_on_c, 0, 64, 49
2, 214440, Note_on_c, 0, 68, 49
2, 214500, Note_on_c, 0, 68, 0
2, 214500, Note_on_c, 0, 64, 0
2, 214500, Note_on_c, 0, 59, 49
2, 214560, Note_on_c, 0, 59, 0
2, 214560, Note_on_c, 0, 59, 49
2, 214560, Note_on_c, 0, 64, 49
2, 214620, Note_on_c, 0, 64, 0
2, 214620, Note_on_c, 0, 59, 0
2, 214620, Note_on_c, 0, 56, 49
2, 214680, Note_on_c, 0, 56, 0
2, 214680, Note_on_c, 0, 59, 49
2, 214680, Note_on_c, 0, 64, 49
2, 214740, Note_on_c, 0, 64, 0
2, 214740, Note_on_c, 0, 59, 0
2, 214740, Note_on_c, 0, 56, 49
2, 214800, Note_on_c, 0, 56, 0
2, 214800, Note_on_c, 0, 59, 49
2, 214800, Note_on_c, 0, 64, 49
2, 214860, Note_on_c, 0, 64, 0
2, 214860, Note_on_c, 0, 59, 0
2, 214860, Note_on_c, 0, 56, 49
2, 214920, Note_on_c, 0, 56, 0
2, 214920, Control_c, 0, 64, 0
2, 214920, Note_on_c, 0, 59, 49
2, 214920, Note_on_c, 0, 64, 49
2, 214980, Note_on_c, 0, 64, 0
2, 214980, Note_on_c, 0, 59, 0
2, 214980, Note_on_c, 0, 56, 49
2, 215040, Note_on_c, 0, 56, 0
2, 215040, Control_c, 0, 64, 127
2, 215040, Note_on_c, 0, 57, 49
2, 215040, Note_on_c, 0, 59, 49
2, 215100, Note_on_c, 0, 59, 0
2, 215100, Note_on_c, 0, 57, 0
2, 215100, Note_on_c, 0, 54, 49
2, 215160, Note_on_c, 0, 54, 0
2, 215160, Note_on_c, 0, 57, 49
2, 215160, Note_on_c, 0, 59, 49
2, 215220, Note_on_c, 0, 59, 0
2, 215220, Note_on_c, 0, 57, 0
2, 215220, Note_on_c, 0, 54, 49
2, 215280, Note_on_c, 0, 54, 0
2, 215280, Note_on_c, 0, 57, 49
2, 215280, Note_on_c, 0, 59, 49
2, 215340, Note_on_c, 0, 59, 0
2, 215340, Note_on_c, 0, 57, 0
2, 215340, Note_on_c, 0, 54, 49
2, 215400, Note_on_c, 0, 54, 0
2, 215400, Note_on_c, 0, 57, 49
2, 215400, Note_on_c, 0, 59, 49
2, 215460, Note_on_c, 0, 59, 0
2, 215460, Note_on_c, 0, 57, 0
2, 215460, Note_on_c, 0, 54, 49
2, 215520, Note_on_c, 0, 54, 0
2, 215520, Note_on_c, 0, 57, 49
2, 215520, Note_on_c, 0, 59, 49
2, 215580, Note_on_c, 0, 59, 0
2, 215580, Note_on_c, 0, 57, 0
2, 215580, Note_on_c, 0, 54, 49
2, 215640, Note_on_c, 0, 54, 0
2, 215640, Note_on_c, 0, 57, 49
2, 215640, Note_on_c, 0, 59, 49
2, 215700, Note_on_c, 0, 59, 0
2, 215700, Note_on_c, 0, 57, 0
2, 215700, Note_on_c, 0, 54, 49
2, 215760, Note_on_c, 0, 54, 0
2, 215760, Note_on_c, 0, 57, 49
2, 215760, Note_on_c, 0, 59, 49
2, 215820, Note_on_c, 0, 59, 0
2, 215820, Note_on_c, 0, 57, 0
2, 215820, Note_on_c, 0, 54, 49
2, 215880, Note_on_c, 0, 54, 0
2, 215880, Note_on_c, 0, 57, 49
2, 215880, Note_on_c, 0, 59, 49
2, 215940, Note_on_c, 0, 59, 0
2, 215940, Note_on_c, 0, 57, 0
2, 215940, Note_on_c, 0, 54, 49
2, 216000, Note_on_c, 0, 54, 0
2, 216000, Note_on_c, 0, 57, 49
2, 216000, Note_on_c, 0, 59, 49
2, 216060, Note_on_c, 0, 59, 0
2, 216060, Note_on_c, 0, 57, 0
2, 216060, Note_on_c, 0, 54, 49
2, 216120, Note_on_c, 0, 54, 0
2, 216120, Note_on_c, 0, 57, 49
2, 216120, Note_on_c, 0, 59, 49
2, 216180, Note_on_c, 0, 59, 0
2, 216180, Note_on_c, 0, 57, 0
2, 216180, Note_on_c, 0, 54, 49
2, 216240, Note_on_c, 0, 54, 0
2, 216240, Note_on_c, 0, 57, 49
2, 216240, Note_on_c, 0, 59, 49
2, 216300, Note_on_c, 0, 59, 0
2, 216300, Note_on_c, 0, 57, 0
2, 216300, Note_on_c, 0, 54, 49
2, 216360, Note_on_c, 0, 54, 0
2, 216360, Note_on_c, 0, 57, 49
2, 216360, Note_on_c, 0, 59, 49
2, 216420, Note_on_c, 0, 59, 0
2, 216420, Note_on_c, 0, 57, 0
2, 216420, Control_c, 0, 64, 0
2, 216420, Note_on_c, 0, 54, 49
2, 216480, Note_on_c, 0, 54, 0
2, 216480, Control_c, 0, 64, 127
2, 216480, Note_on_c, 0, 52, 49
2, 216480, Note_on_c, 0, 56, 49
2, 216480, Note_on_c, 0, 59, 49
2, 216720, Note_on_c, 0, 59, 0
2, 216720, Note_on_c, 0, 56, 0
2, 216720, Note_on_c, 0, 52, 0
2, 216720, Note_on_c, 0, 52, 49
2, 216720, Note_on_c, 0, 56, 49
2, 216720, Note_on_c, 0, 59, 49
2, 216720, Note_on_c, 0, 64, 49
2, 216960, Note_on_c, 0, 64, 0
2, 216960, Note_on_c, 0, 52, 0
2, 216960, Note_on_c, 0, 56, 0
2, 216960, Note_on_c, 0, 59, 0
2, 216960, Note_on_c, 0, 56, 49
2, 216960, Note_on_c, 0, 59, 49
2, 216960, Note_on_c, 0, 64, 49
2, 216960, Note_on_c, 0, 68, 49
2, 217200, Note_on_c, 0, 68, 0
2, 217200, Note_on_c, 0, 56, 0
2, 217200, Note_on_c, 0, 59, 0
2, 217200, Note_on_c, 0, 64, 0
2, 217200, Note_on_c, 0, 59, 49
2, 217200, Note_on_c, 0, 64, 49
2, 217200, Note_on_c, 0, 68, 49
2, 217200, Note_on_c, 0, 71, 49
2, 217440, Note_on_c, 0, 71, 0
2, 217440, Note_on_c, 0, 59, 0
2, 217440, Note_on_c, 0, 64, 0
2, 217440, Note_on_c, 0, 68, 0
2, 217440, Note_on_c, 0, 64, 49
2, 217440, Note_on_c, 0, 68, 49
2, 217440, Note_on_c, 0, 71, 49
2, 217440, Note_on_c, 0, 76, 49
2, 217680, Note_on_c, 0, 76, 0
2, 217680, Note_on_c, 0, 64, 0
2, 217680, Note_on_c, 0, 68, 0
2, 217680, Note_on_c, 0, 71, 0
2, 217680, Note_on_c, 0, 68, 49
2, 217680, Note_on_c, 0, 71, 49
2, 217680, Note_on_c, 0, 76, 49
2, 217680, Note_on_c, 0, 80, 49
2, 217920, Note_on_c, 0, 80, 0
2, 217920, Note_on_c, 0, 68, 0
2, 217920, Note_on_c, 0, 71, 0
2, 217920, Note_on_c, 0, 76, 0
2, 217920, Note_on_c, 0, 71, 49
2, 217920, Note_on_c, 0, 76, 49
2, 217920, Note_on_c, 0, 80, 49
2, 217920, Note_on_c, 0, 83, 49
2, 218160, Note_on_c, 0, 83, 0
2, 218160, Note_on_c, 0, 71, 0
2, 218160, Note_on_c, 0, 76, 0
2, 218160, Note_on_c, 0, 80, 0
2, 218160, Note_on_c, 0, 56, 49
2, 218160, Note_on_c, 0, 59, 49
2, 218160, Note_on_c, 0, 64, 49
2, 218160, Note_on_c, 0, 68, 49
2, 218400, Note_on_c, 0, 68, 0
2, 218400, Note_on_c, 0, 56, 0
2, 218400, Note_on_c, 0, 59, 0
2, 218400, Note_on_c, 0, 64, 0
2, 218400, Note_on_c, 0, 59, 49
2, 218400, Note_on_c, 0, 64, 49
2, 218400, Note_on_c, 0, 68, 49
2, 218400, Note_on_c, 0, 71, 49
2, 218640, Note_on_c, 0, 71, 0
2, 218640, Note_on_c, 0, 59, 0
2, 218640, Note_on_c, 0, 64, 0
2, 218640, Note_on_c, 0, 68, 0
2, 218640, Note_on_c, 0, 64, 49
2, 218640, Note_on_c, 0, 68, 49
2, 218640, Note_on_c, 0, 71, 49
2, 218640, Note_on_c, 0, 76, 49
2, 218880, Note_on_c, 0, 76, 0
2, 218880, Note_on_c, 0, 64, 0
2, 218880, Note_on_c, 0, 68, 0
2, 218880, Note_on_c, 0, 71, 0
2, 218880, Note_on_c, 0, 68, 49
2, 218880, Note_on_c, 0, 71, 49
2, 218880, Note_on_c, 0, 76, 49
2, 218880, Note_on_c, 0, 80, 49
2, 219120, Note_on_c, 0, 80, 0
2, 219120, Note_on_c, 0, 68, 0
2, 219120, Note_on_c, 0, 71, 0
2, 219120, Note_on_c, 0, 76, 0
2, 219120, Note_on_c, 0, 71, 49
2, 219120, Note_on_c, 0, 76, 49
2, 219120, Note_on_c, 0, 80, 49
2, 219120, Note_on_c, 0, 83, 49
2, 219270, Note_on_c, 0, 76, 49
2, 219300, Note_on_c, 0, 80, 49
2, 219330, Note_on_c, 0, 83, 49
2, 219360, Note_on_c, 0, 83, 0
2, 219360, Note_on_c, 0, 80, 0
2, 219360, Note_on_c, 0, 71, 0
2, 219360, Note_on_c, 0, 76, 0
2, 219360, Note_on_c, 0, 88, 49
2, 219750, Note_on_c, 0, 80, 49
2, 219780, Note_on_c, 0, 83, 49
2, 219810, Note_on_c, 0, 88, 49
2, 219840, Note_on_c, 0, 88, 0
2, 219840, Note_on_c, 0, 83, 0
2, 219840, Note_on_c, 0, 80, 0
2, 219840, Note_on_c, 0, 76, 0
2, 219840, Note_on_c, 0, 92, 49
2, 220230, Note_on_c, 0, 71, 49
2, 220260, Note_on_c, 0, 76, 49
2, 220290, Note_on_c, 0, 80, 49
2, 220320, Note_on_c, 0, 92, 0
2, 220320, Note_on_c, 0, 88, 0
2, 220320, Note_on_c, 0, 83, 0
2, 220320, Note_on_c, 0, 80, 0
2, 220320, Note_on_c, 0, 95, 49
2, 220710, Note_on_c, 0, 88, 49
2, 220740, Note_on_c, 0, 92, 49
2, 220770, Note_on_c, 0, 95, 49
2, 220800, Note_on_c, 0, 92, 0
2, 220800, Note_on_c, 0, 76, 0
2, 220800, Note_on_c, 0, 71, 0
2, 220800, Note_on_c, 0, 95, 0
2, 220800, Note_on_c, 0, 100, 49
2, 221280, Note_on_c, 0, 100, 0
2, 221280, Note_on_c, 0, 95, 0
2, 221280, Note_on_c, 0, 88, 0
2, 221280, Note_on_c, 0, 80, 0
2, 221280, Control_c, 0, 64, 127
2, 224160, Control_c, 0, 64, 0
2, 224160, End_track
3, 0, Start_track
3, 0, Title_t, "Grand Piano"
3, 0, Program_c, 0, 0
3, 0, Control_c, 0, 7, 115
3, 0, Control_c, 0, 10, 80
3, 13440, Note_on_c, 0, 70, 90
3, 13800, Note_on_c, 0, 70, 0
3, 13800, Note_on_c, 0, 66, 64
3, 13920, Note_on_c, 0, 66, 0
3, 13920, Note_on_c, 0, 65, 64
3, 14160, Note_on_c, 0, 65, 0
3, 15480, Note_on_c, 0, 71, 75
3, 15600, Note_on_c, 0, 71, 0
3, 15600, Note_on_c, 0, 70, 75
3, 15720, Note_on_c, 0, 70, 0
3, 15720, Note_on_c, 0, 68, 75
3, 15840, Note_on_c, 0, 68, 0
3, 15840, Note_on_c, 0, 68, 75
3, 15960, Note_on_c, 0, 68, 0
3, 15960, Note_on_c, 0, 67, 75
3, 16080, Note_on_c, 0, 67, 0
3, 16080, Note_on_c, 0, 67, 75
3, 16200, Note_on_c, 0, 67, 0
3, 16200, Note_on_c, 0, 70, 75
3, 16320, Note_on_c, 0, 70, 0
3, 16320, Note_on_c, 0, 70, 75
3, 16440, Note_on_c, 0, 70, 0
3, 16440, Note_on_c, 0, 68, 75
3, 16560, Note_on_c, 0, 68, 0
3, 16560, Note_on_c, 0, 68, 75
3, 16680, Note_on_c, 0, 68, 0
3, 16680, Note_on_c, 0, 71, 75
3, 16800, Note_on_c, 0, 71, 0
3, 16800, Note_on_c, 0, 71, 75
3, 16920, Note_on_c, 0, 71, 0
3, 16920, Note_on_c, 0, 70, 75
3, 17040, Note_on_c, 0, 70, 0
3, 17040, Note_on_c, 0, 70, 75
3, 17160, Note_on_c, 0, 70, 0
3, 17160, Note_on_c, 0, 75, 75
3, 17280, Note_on_c, 0, 75, 0
3, 17280, Note_on_c, 0, 75, 101
3, 17640, Note_on_c, 0, 75, 0
3, 17640, Note_on_c, 0, 71, 75
3, 17760, Note_on_c, 0, 71, 0
3, 17760, Note_on_c, 0, 70, 75
3, 18000, Note_on_c, 0, 70, 0
3, 19320, Note_on_c, 0, 75, 75
3, 19343, Note_on_c, 0, 75, 0
3, 19440, Note_on_c, 0, 75, 75
3, 19560, Note_on_c, 0, 75, 0
3, 19560, Note_on_c, 0, 80, 75
3, 19680, Note_on_c, 0, 80, 0
3, 19680, Note_on_c, 0, 80, 75
3, 19800, Note_on_c, 0, 80, 0
3, 19800, Note_on_c, 0, 78, 75
3, 19920, Note_on_c, 0, 78, 0
3, 19920, Note_on_c, 0, 78, 75
3, 20040, Note_on_c, 0, 78, 0
3, 20040, Note_on_c, 0, 77, 75
3, 20160, Note_on_c, 0, 77, 0
3, 20160, Note_on_c, 0, 77, 75
3, 20280, Note_on_c, 0, 77, 0
3, 20280, Note_on_c, 0, 75, 75
3, 20400, Note_on_c, 0, 75, 0
3, 20400, Note_on_c, 0, 75, 75
3, 20520, Note_on_c, 0, 75, 0
3, 20520, Note_on_c, 0, 74, 75
3, 20640, Note_on_c, 0, 74, 0
3, 20640, Note_on_c, 0, 74, 75
3, 20880, Note_on_c, 0, 74, 0
3, 20880, Note_on_c, 0, 70, 75
3, 20880, Note_on_c, 0, 75, 75
3, 21120, Note_on_c, 0, 75, 0
3, 21120, Note_on_c, 0, 70, 0
3, 21120, Note_on_c, 0, 65, 75
3, 21600, Note_on_c, 0, 65, 0
3, 23040, Note_on_c, 0, 66, 75
3, 23520, Note_on_c, 0, 66, 0
3, 23520, Note_on_c, 0, 65, 75
3, 24000, Note_on_c, 0, 65, 0
3, 24960, Note_on_c, 0, 65, 62
3, 25440, Note_on_c, 0, 65, 0
3, 32640, Note_on_c, 0, 70, 88
3, 33000, Note_on_c, 0, 70, 0
3, 33000, Note_on_c, 0, 66, 62
3, 33120, Note_on_c, 0, 66, 0
3, 33120, Note_on_c, 0, 65, 62
3, 33360, Note_on_c, 0, 65, 0
3, 34680, Note_on_c, 0, 71, 75
3, 34800, Note_on_c, 0, 71, 0
3, 34800, Note_on_c, 0, 70, 75
3, 34920, Note_on_c, 0, 70, 0
3, 34920, Note_on_c, 0, 68, 75
3, 35040, Note_on_c, 0, 68, 0
3, 35040, Note_on_c, 0, 68, 75
3, 35160, Note_on_c, 0, 68, 0
3, 35160, Note_on_c, 0, 67, 75
3, 35280, Note_on_c, 0, 67, 0
3, 35280, Note_on_c, 0, 67, 75
3, 35400, Note_on_c, 0, 67, 0
3, 35400, Note_on_c, 0, 70, 75
3, 35520, Note_on_c, 0, 70, 0
3, 35520, Note_on_c, 0, 70, 75
3, 35640, Note_on_c, 0, 70, 0
3, 35640, Note_on_c, 0, 68, 75
3, 35760, Note_on_c, 0, 68, 0
3, 35760, Note_on_c, 0, 68, 75
3, 35880, Note_on_c, 0, 68, 0
3, 35880, Note_on_c, 0, 71, 75
3, 36000, Note_on_c, 0, 71, 0
3, 36000, Note_on_c, 0, 71, 75
3, 36120, Note_on_c, 0, 71, 0
3, 36120, Note_on_c, 0, 70, 75
3, 36240, Note_on_c, 0, 70, 0
3, 36240, Note_on_c, 0, 70, 75
3, 36360, Note_on_c, 0, 70, 0
3, 36360, Note_on_c, 0, 75, 75
3, 36480, Note_on_c, 0, 75, 0
3, 36480, Note_on_c, 0, 75, 101
3, 36840, Note_on_c, 0, 75, 0
3, 36840, Note_on_c, 0, 71, 75
3, 36960, Note_on_c, 0, 71, 0
3, 36960, Note_on_c, 0, 70, 75
3, 37200, Note_on_c, 0, 70, 0
3, 38520, Note_on_c, 0, 75, 75
3, 38640, Note_on_c, 0, 75, 0
3, 38640, Note_on_c, 0, 75, 75
3, 38760, Note_on_c, 0, 75, 0
3, 38760, Note_on_c, 0, 80, 75
3, 38880, Note_on_c, 0, 80, 0
3, 38880, Note_on_c, 0, 80, 75
3, 39000, Note_on_c, 0, 80, 0
3, 39000, Note_on_c, 0, 78, 75
3, 39120, Note_on_c, 0, 78, 0
3, 39120, Note_on_c, 0, 78, 75
3, 39240, Note_on_c, 0, 78, 0
3, 39240, Note_on_c, 0, 77, 75
3, 39360, Note_on_c, 0, 77, 0
3, 39360, Note_on_c, 0, 77, 75
3, 39480, Note_on_c, 0, 77, 0
3, 39480, Note_on_c, 0, 75, 75
3, 39600, Note_on_c, 0, 75, 0
3, 39600, Note_on_c, 0, 75, 75
3, 39720, Note_on_c, 0, 75, 0
3, 39720, Note_on_c, 0, 74, 75
3, 39840, Note_on_c, 0, 74, 0
3, 39840, Note_on_c, 0, 74, 75
3, 40080, Note_on_c, 0, 74, 0
3, 40080, Note_on_c, 0, 70, 75
3, 40080, Note_on_c, 0, 75, 75
3, 40320, Note_on_c, 0, 75, 0
3, 40320, Note_on_c, 0, 70, 0
3, 40320, Note_on_c, 0, 65, 62
3, 40800, Note_on_c, 0, 65, 0
3, 42240, Note_on_c, 0, 66, 75
3, 42720, Note_on_c, 0, 66, 0
3, 42720, Note_on_c, 0, 65, 75
3, 43200, Note_on_c, 0, 65, 0
3, 44160, Note_on_c, 0, 68, 75
3, 44640, Note_on_c, 0, 68, 0
3, 44640, Note_on_c, 0, 66, 75
3, 45120, Note_on_c, 0, 66, 0
3, 45240, Note_on_c, 0, 63, 75
3, 45263, Note_on_c, 0, 63, 0
3, 45360, Note_on_c, 0, 63, 75
3, 45480, Note_on_c, 0, 63, 0
3, 45480, Note_on_c, 0, 73, 75
3, 45600, Note_on_c, 0, 73, 0
3, 45600, Note_on_c, 0, 73, 75
3, 45720, Note_on_c, 0, 73, 0
3, 45720, Note_on_c, 0, 71, 75
3, 45840, Note_on_c, 0, 71, 0
3, 45840, Note_on_c, 0, 71, 75
3, 45960, Note_on_c, 0, 71, 0
3, 45960, Note_on_c, 0, 70, 75
3, 46080, Note_on_c, 0, 70, 0
3, 46080, Note_on_c, 0, 70, 75
3, 46560, Note_on_c, 0, 70, 0
3, 46560, Note_on_c, 0, 68, 75
3, 47040, Note_on_c, 0, 68, 0
3, 47040, Note_on_c, 0, 69, 75
3, 47280, Note_on_c, 0, 69, 0
3, 47280, Note_on_c, 0, 68, 75
3, 47520, Note_on_c, 0, 68, 0
3, 47520, Note_on_c, 0, 65, 75
3, 47520, Note_on_c, 0, 68, 75
3, 48000, Note_on_c, 0, 68, 0
3, 48000, Note_on_c, 0, 65, 0
3, 74880, Note_on_c, 0, 59, 75
3, 74880, Note_on_c, 0, 63, 75
3, 74880, Note_on_c, 0, 66, 75
3, 75360, Note_on_c, 0, 66, 0
3, 75360, Note_on_c, 0, 63, 0
3, 75360, Note_on_c, 0, 59, 0
3, 75360, Note_on_c, 0, 66, 75
3, 75600, Note_on_c, 0, 66, 0
3, 76320, Note_on_c, 0, 63, 75
3, 76320, Note_on_c, 0, 67, 75
3, 76560, Note_on_c, 0, 67, 0
3, 76560, Note_on_c, 0, 63, 0
3, 77280, Note_on_c, 0, 66, 75
3, 77520, Note_on_c, 0, 66, 0
3, 78240, Note_on_c, 0, 63, 75
3, 78240, Note_on_c, 0, 66, 75
3, 78480, Note_on_c, 0, 66, 0
3, 78480, Note_on_c, 0, 63, 0
3, 78720, Note_on_c, 0, 64, 75
3, 78720, Note_on_c, 0, 68, 75
3, 78960, Note_on_c, 0, 68, 0
3, 78960, Note_on_c, 0, 64, 0
3, 79200, Note_on_c, 0, 56, 75
3, 79200, Note_on_c, 0, 68, 75
3, 79440, Note_on_c, 0, 68, 0
3, 79440, Note_on_c, 0, 56, 0
3, 80160, Note_on_c, 0, 56, 75
3, 80160, Note_on_c, 0, 66, 75
3, 80160, Note_on_c, 0, 68, 75
3, 80400, Note_on_c, 0, 68, 0
3, 80400, Note_on_c, 0, 66, 0
3, 80400, Note_on_c, 0, 56, 0
3, 81120, Note_on_c, 0, 61, 75
3, 81120, Note_on_c, 0, 68, 75
3, 81360, Note_on_c, 0, 68, 0
3, 81360, Note_on_c, 0, 61, 0
3, 82080, Note_on_c, 0, 56, 75
3, 82080, Note_on_c, 0, 59, 75
3, 82080, Note_on_c, 0, 61, 75
3, 82320, Note_on_c, 0, 61, 0
3, 82320, Note_on_c, 0, 59, 0
3, 82320, Note_on_c, 0, 56, 0
3, 82560, Note_on_c, 0, 57, 49
3, 82560, Note_on_c, 0, 61, 49
3, 82560, Note_on_c, 0, 66, 49
3, 83520, Note_on_c, 0, 66, 0
3, 83520, Note_on_c, 0, 61, 0
3, 83520, Note_on_c, 0, 57, 0
3, 105600, Note_on_c, 0, 65, 75
3, 106560, Note_on_c, 0, 74, 88
3, 107520, Note_on_c, 0, 74, 0
3, 107520, Note_on_c, 0, 65, 0
3, 115200, Note_on_c, 0, 62, 101
3, 115359, Note_on_c, 0, 62, 0
3, 115359, Note_on_c, 0, 59, 101
3, 115520, Note_on_c, 0, 59, 0
3, 115520, Note_on_c, 0, 65, 101
3, 115680, Note_on_c, 0, 65, 0
3, 119040, Note_on_c, 0, 50, 101
3, 119040, Note_on_c, 0, 53, 101
3, 119040, Note_on_c, 0, 56, 101
3, 119040, Note_on_c, 0, 59, 101
3, 119199, Note_on_c, 0, 59, 0
3, 119199, Note_on_c, 0, 50, 0
3, 119199, Note_on_c, 0, 53, 0
3, 119199, Note_on_c, 0, 56, 0
3, 119199, Note_on_c, 0, 59, 101
3, 119360, Note_on_c, 0, 59, 0
3, 119360, Note_on_c, 0, 65, 101
3, 119520, Note_on_c, 0, 65, 0
3, 122880, Note_on_c, 0, 50, 101
3, 122880, Note_on_c, 0, 52, 101
3, 122880, Note_on_c, 0, 55, 101
3, 122880, Note_on_c, 0, 58, 101
3, 123039, Note_on_c, 0, 58, 0
3, 123039, Note_on_c, 0, 50, 0
3, 123039, Note_on_c, 0, 52, 0
3, 123039, Note_on_c, 0, 55, 0
3, 123039, Note_on_c, 0, 58, 101
3, 123200, Note_on_c, 0, 58, 0
3, 123200, Note_on_c, 0, 64, 101
3, 123360, Note_on_c, 0, 64, 0
3, 126720, Note_on_c, 0, 50, 101
3, 126720, Note_on_c, 0, 52, 101
3, 126720, Note_on_c, 0, 55, 101
3, 126720, Note_on_c, 0, 58, 101
3, 126879, Note_on_c, 0, 58, 0
3, 126879, Note_on_c, 0, 50, 0
3, 126879, Note_on_c, 0, 52, 0
3, 126879, Note_on_c, 0, 55, 0
3, 126879, Note_on_c, 0, 58, 101
3, 127040, Note_on_c, 0, 58, 0
3, 127040, Note_on_c, 0, 64, 101
3, 127200, Note_on_c, 0, 64, 0
3, 134400, Note_on_c, 0, 64, 75
3, 135360, Note_on_c, 0, 64, 0
3, 135360, Note_on_c, 0, 73, 88
3, 136320, Note_on_c, 0, 73, 0
3, 144000, Note_on_c, 0, 58, 88
3, 144000, Note_on_c, 0, 61, 88
3, 144000, Note_on_c, 0, 64, 88
3, 144000, Note_on_c, 0, 67, 88
3, 144159, Note_on_c, 0, 67, 0
3, 144159, Note_on_c, 0, 58, 0
3, 144159, Note_on_c, 0, 61, 0
3, 144159, Note_on_c, 0, 64, 0
3, 144159, Note_on_c, 0, 58, 88
3, 144320, Note_on_c, 0, 58, 0
3, 144320, Note_on_c, 0, 64, 88
3, 144480, Note_on_c, 0, 64, 0
3, 147840, Note_on_c, 0, 49, 88
3, 147840, Note_on_c, 0, 52, 88
3, 147840, Note_on_c, 0, 55, 88
3, 147840, Note_on_c, 0, 58, 88
3, 147999, Note_on_c, 0, 58, 0
3, 147999, Note_on_c, 0, 49, 0
3, 147999, Note_on_c, 0, 52, 0
3, 147999, Note_on_c, 0, 55, 0
3, 147999, Note_on_c, 0, 58, 88
3, 148160, Note_on_c, 0, 58, 0
3, 148160, Note_on_c, 0, 64, 88
3, 148320, Note_on_c, 0, 64, 0
3, 151680, Note_on_c, 0, 49, 88
3, 151680, Note_on_c, 0, 52, 88
3, 151680, Note_on_c, 0, 54, 88
3, 151680, Note_on_c, 0, 58, 88
3, 151839, Note_on_c, 0, 58, 0
3, 151839, Note_on_c, 0, 49, 0
3, 151839, Note_on_c, 0, 52, 0
3, 151839, Note_on_c, 0, 54, 0
3, 151839, Note_on_c, 0, 58, 88
3, 152000, Note_on_c, 0, 58, 0
3, 152000, Note_on_c, 0, 64, 88
3, 152160, Note_on_c, 0, 64, 0
3, 155520, Note_on_c, 0, 49, 88
3, 155520, Note_on_c, 0, 52, 88
3, 155520, Note_on_c, 0, 54, 88
3, 155520, Note_on_c, 0, 58, 88
3, 155679, Note_on_c, 0, 58, 0
3, 155679, Note_on_c, 0, 49, 0
3, 155679, Note_on_c, 0, 52, 0
3, 155679, Note_on_c, 0, 54, 0
3, 155679, Note_on_c, 0, 58, 88
3, 155840, Note_on_c, 0, 58, 0
3, 155840, Note_on_c, 0, 64, 88
3, 156000, Note_on_c, 0, 64, 0
3, 159840, Note_on_c, 0, 48, 88
3, 159999, Note_on_c, 0, 48, 0
3, 159999, Note_on_c, 0, 47, 88
3, 160160, Note_on_c, 0, 47, 0
3, 160160, Note_on_c, 0, 48, 88
3, 160320, Note_on_c, 0, 48, 0
3, 160320, Note_on_c, 0, 49, 88
3, 160479, Note_on_c, 0, 49, 0
3, 160479, Note_on_c, 0, 48, 88
3, 160640, Note_on_c, 0, 48, 0
3, 160640, Note_on_c, 0, 49, 88
3, 160800, Note_on_c, 0, 49, 0
3, 160800, Note_on_c, 0, 50, 88
3, 160959, Note_on_c, 0, 50, 0
3, 160959, Note_on_c, 0, 49, 88
3, 161120, Note_on_c, 0, 49, 0
3, 161120, Note_on_c, 0, 50, 88
3, 161280, Note_on_c, 0, 50, 0
3, 161280, Note_on_c, 0, 51, 88
3, 161439, Note_on_c, 0, 51, 0
3, 161439, Note_on_c, 0, 50, 88
3, 161600, Note_on_c, 0, 50, 0
3, 161600, Note_on_c, 0, 51, 88
3, 161760, Note_on_c, 0, 51, 0
3, 161760, Note_on_c, 0, 52, 88
3, 161919, Note_on_c, 0, 52, 0
3, 161919, Note_on_c, 0, 51, 88
3, 162080, Note_on_c, 0, 51, 0
3, 162080, Note_on_c, 0, 52, 88
3, 162240, Note_on_c, 0, 52, 0
3, 162240, Note_on_c, 0, 53, 88
3, 162399, Note_on_c, 0, 53, 0
3, 162399, Note_on_c, 0, 52, 88
3, 162560, Note_on_c, 0, 52, 0
3, 162560, Note_on_c, 0, 53, 88
3, 162720, Note_on_c, 0, 53, 0
3, 162720, Note_on_c, 0, 54, 88
3, 162879, Note_on_c, 0, 54, 0
3, 162879, Note_on_c, 0, 53, 88
3, 163040, Note_on_c, 0, 53, 0
3, 163040, Note_on_c, 0, 54, 88
3, 163200, Note_on_c, 0, 54, 0
3, 163200, Note_on_c, 0, 59, 88
3, 163359, Note_on_c, 0, 59, 0
3, 163359, Note_on_c, 0, 58, 88
3, 163520, Note_on_c, 0, 58, 0
3, 163520, Note_on_c, 0, 59, 88
3, 163680, Note_on_c, 0, 59, 0
3, 163680, Note_on_c, 0, 60, 88
3, 163839, Note_on_c, 0, 60, 0
3, 163839, Note_on_c, 0, 59, 88
3, 164000, Note_on_c, 0, 59, 0
3, 164000, Note_on_c, 0, 60, 88
3, 164160, Note_on_c, 0, 60, 0
3, 164160, Note_on_c, 0, 61, 88
3, 164319, Note_on_c, 0, 61, 0
3, 164319, Note_on_c, 0, 60, 88
3, 164480, Note_on_c, 0, 60, 0
3, 164480, Note_on_c, 0, 61, 88
3, 164640, Note_on_c, 0, 61, 0
3, 164640, Note_on_c, 0, 62, 88
3, 164799, Note_on_c, 0, 62, 0
3, 164799, Note_on_c, 0, 61, 88
3, 164960, Note_on_c, 0, 61, 0
3, 164960, Note_on_c, 0, 62, 88
3, 165120, Note_on_c, 0, 62, 0
3, 165120, Note_on_c, 0, 63, 88
3, 165279, Note_on_c, 0, 63, 0
3, 165279, Note_on_c, 0, 62, 88
3, 165440, Note_on_c, 0, 62, 0
3, 165440, Note_on_c, 0, 63, 88
3, 165600, Note_on_c, 0, 63, 0
3, 165600, Note_on_c, 0, 64, 88
3, 165759, Note_on_c, 0, 64, 0
3, 165759, Note_on_c, 0, 63, 88
3, 165920, Note_on_c, 0, 63, 0
3, 165920, Note_on_c, 0, 64, 88
3, 166080, Note_on_c, 0, 64, 0
3, 166080, Note_on_c, 0, 65, 88
3, 166239, Note_on_c, 0, 65, 0
3, 166239, Note_on_c, 0, 64, 88
3, 166400, Note_on_c, 0, 64, 0
3, 166400, Note_on_c, 0, 65, 88
3, 166560, Note_on_c, 0, 65, 0
3, 166560, Note_on_c, 0, 66, 88
3, 166719, Note_on_c, 0, 66, 0
3, 166719, Note_on_c, 0, 65, 88
3, 166880, Note_on_c, 0, 65, 0
3, 166880, Note_on_c, 0, 66, 88
3, 167040, Note_on_c, 0, 66, 0
3, 167040, Note_on_c, 0, 63, 88
3, 167360, Note_on_c, 0, 63, 0
3, 167360, Note_on_c, 0, 63, 88
3, 167520, Note_on_c, 0, 63, 0
3, 170880, Note_on_c, 0, 75, 88
3, 171200, Note_on_c, 0, 75, 0
3, 171200, Note_on_c, 0, 75, 88
3, 171360, Note_on_c, 0, 75, 0
3, 189600, Control_c, 0, 64, 127
3, 189600, Note_on_c, 0, 76, 75
3, 189600, Note_on_c, 0, 80, 75
3, 189680, Note_on_c, 0, 80, 0
3, 189680, Note_on_c, 0, 76, 0
3, 189680, Note_on_c, 0, 83, 75
3, 189759, Note_on_c, 0, 83, 0
3, 189759, Note_on_c, 0, 76, 75
3, 189759, Note_on_c, 0, 80, 75
3, 189840, Note_on_c, 0, 80, 0
3, 189840, Note_on_c, 0, 76, 0
3, 189840, Note_on_c, 0, 83, 75
3, 189920, Note_on_c, 0, 83, 0
3, 189920, Note_on_c, 0, 76, 75
3, 189920, Note_on_c, 0, 80, 75
3, 189999, Note_on_c, 0, 80, 0
3, 189999, Note_on_c, 0, 76, 0
3, 189999, Note_on_c, 0, 83, 75
3, 190080, Note_on_c, 0, 83, 0
3, 190080, Note_on_c, 0, 76, 75
3, 190080, Note_on_c, 0, 80, 75
3, 190160, Note_on_c, 0, 80, 0
3, 190160, Note_on_c, 0, 76, 0
3, 190160, Note_on_c, 0, 83, 75
3, 190239, Note_on_c, 0, 83, 0
3, 190239, Note_on_c, 0, 76, 75
3, 190239, Note_on_c, 0, 80, 75
3, 190320, Note_on_c, 0, 80, 0
3, 190320, Note_on_c, 0, 76, 0
3, 190320, Note_on_c, 0, 83, 75
3, 190400, Note_on_c, 0, 83, 0
3, 190400, Note_on_c, 0, 76, 75
3, 190400, Note_on_c, 0, 80, 75
3, 190479, Note_on_c, 0, 80, 0
3, 190479, Note_on_c, 0, 76, 0
3, 190479, Control_c, 0, 64, 0
3, 190479, Note_on_c, 0, 83, 75
3, 190560, Note_on_c, 0, 83, 0
3, 191040, Control_c, 0, 64, 127
3, 191040, Note_on_c, 0, 65, 75
3, 191040, Note_on_c, 0, 69, 75
3, 191120, Note_on_c, 0, 69, 0
3, 191120, Note_on_c, 0, 65, 0
3, 191120, Note_on_c, 0, 72, 75
3, 191199, Note_on_c, 0, 72, 0
3, 191199, Note_on_c, 0, 65, 75
3, 191199, Note_on_c, 0, 69, 75
3, 191280, Note_on_c, 0, 69, 0
3, 191280, Note_on_c, 0, 65, 0
3, 191280, Note_on_c, 0, 72, 75
3, 191360, Note_on_c, 0, 72, 0
3, 191360, Note_on_c, 0, 65, 75
3, 191360, Note_on_c, 0, 69, 75
3, 191439, Note_on_c, 0, 69, 0
3, 191439, Note_on_c, 0, 65, 0
3, 191439, Note_on_c, 0, 72, 75
3, 191520, Note_on_c, 0, 72, 0
3, 191520, Note_on_c, 0, 65, 75
3, 191520, Note_on_c, 0, 69, 75
3, 191600, Note_on_c, 0, 69, 0
3, 191600, Note_on_c, 0, 65, 0
3, 191600, Note_on_c, 0, 72, 75
3, 191679, Note_on_c, 0, 72, 0
3, 191679, Note_on_c, 0, 65, 75
3, 191679, Note_on_c, 0, 69, 75
3, 191760, Note_on_c, 0, 69, 0
3, 191760, Note_on_c, 0, 65, 0
3, 191760, Note_on_c, 0, 72, 75
3, 191840, Note_on_c, 0, 72, 0
3, 191840, Note_on_c, 0, 65, 75
3, 191840, Note_on_c, 0, 69, 75
3, 191919, Note_on_c, 0, 69, 0
3, 191919, Note_on_c, 0, 65, 0
3, 191919, Control_c, 0, 64, 0
3, 191919, Note_on_c, 0, 72, 75
3, 192000, Note_on_c, 0, 72, 0
3, 192480, Control_c, 0, 64, 127
3, 192480, Note_on_c, 0, 65, 75
3, 192480, Note_on_c, 0, 69, 75
3, 192560, Note_on_c, 0, 69, 0
3, 192560, Note_on_c, 0, 65, 0
3, 192560, Note_on_c, 0, 72, 75
3, 192639, Note_on_c, 0, 72, 0
3, 192639, Note_on_c, 0, 65, 75
3, 192639, Note_on_c, 0, 69, 75
3, 192720, Note_on_c, 0, 69, 0
3, 192720, Note_on_c, 0, 65, 0
3, 192720, Note_on_c, 0, 72, 75
3, 192800, Note_on_c, 0, 72, 0
3, 192800, Note_on_c, 0, 65, 75
3, 192800, Note_on_c, 0, 69, 75
3, 192879, Note_on_c, 0, 69, 0
3, 192879, Note_on_c, 0, 65, 0
3, 192879, Note_on_c, 0, 72, 75
3, 192960, Note_on_c, 0, 72, 0
3, 192960, Note_on_c, 0, 65, 75
3, 192960, Note_on_c, 0, 69, 75
3, 193040, Note_on_c, 0, 69, 0
3, 193040, Note_on_c, 0, 65, 0
3, 193040, Note_on_c, 0, 72, 75
3, 193119, Note_on_c, 0, 72, 0
3, 193119, Note_on_c, 0, 65, 75
3, 193119, Note_on_c, 0, 69, 75
3, 193200, Note_on_c, 0, 69, 0
3, 193200, Note_on_c, 0, 65, 0
3, 193200, Note_on_c, 0, 72, 75
3, 193280, Note_on_c, 0, 72, 0
3, 193280, Note_on_c, 0, 65, 75
3, 193280, Note_on_c, 0, 69, 75
3, 193359, Note_on_c, 0, 69, 0
3, 193359, Note_on_c, 0, 65, 0
3, 193359, Control_c, 0, 64, 0
3, 193359, Note_on_c, 0, 72, 75
3, 193440, Note_on_c, 0, 72, 0
3, 193920, Control_c, 0, 64, 127
3, 193920, Note_on_c, 0, 65, 75
3, 193920, Note_on_c, 0, 69, 75
3, 194000, Note_on_c, 0, 69, 0
3, 194000, Note_on_c, 0, 65, 0
3, 194000, Note_on_c, 0, 72, 75
3, 194079, Note_on_c, 0, 72, 0
3, 194079, Note_on_c, 0, 65, 75
3, 194079, Note_on_c, 0, 69, 75
3, 194160, Note_on_c, 0, 69, 0
3, 194160, Note_on_c, 0, 65, 0
3, 194160, Note_on_c, 0, 72, 75
3, 194240, Note_on_c, 0, 72, 0
3, 194240, Note_on_c, 0, 65, 75
3, 194240, Note_on_c, 0, 69, 75
3, 194319, Note_on_c, 0, 69, 0
3, 194319, Note_on_c, 0, 65, 0
3, 194319, Note_on_c, 0, 72, 75
3, 194400, Note_on_c, 0, 72, 0
3, 194400, Note_on_c, 0, 65, 75
3, 194400, Note_on_c, 0, 69, 75
3, 194480, Note_on_c, 0, 69, 0
3, 194480, Note_on_c, 0, 65, 0
3, 194480, Note_on_c, 0, 72, 75
3, 194559, Note_on_c, 0, 72, 0
3, 194559, Note_on_c, 0, 65, 75
3, 194559, Note_on_c, 0, 69, 75
3, 194640, Note_on_c, 0, 69, 0
3, 194640, Note_on_c, 0, 65, 0
3, 194640, Note_on_c, 0, 72, 75
3, 194720, Note_on_c, 0, 72, 0
3, 194720, Note_on_c, 0, 65, 75
3, 194720, Note_on_c, 0, 69, 75
3, 194799, Note_on_c, 0, 69, 0
3, 194799, Note_on_c, 0, 65, 0
3, 194799, Control_c, 0, 64, 0
3, 194799, Note_on_c, 0, 72, 75
3, 194880, Note_on_c, 0, 72, 0
3, 194880, End_track
4, 0, Start_track
4, 0, Title_t, "Grand Piano"
4, 0, Program_c, 0, 0
4, 0, Control_c, 0, 7, 115
4, 0, Control_c, 0, 10, 41
4, 7680, Note_on_c, 0, 51, 62
4, 7920, Note_on_c, 0, 51, 0
4, 7920, Note_on_c, 0, 58, 62
4, 7920, Note_on_c, 0, 63, 62
4, 7920, Note_on_c, 0, 66, 62
4, 8400, Note_on_c, 0, 66, 0
4, 8400, Note_on_c, 0, 63, 0
4, 8400, Note_on_c, 0, 58, 0
4, 8400, Note_on_c, 0, 58, 62
4, 8400, Note_on_c, 0, 63, 62
4, 8400, Note_on_c, 0, 66, 62
4, 8640, Note_on_c, 0, 66, 0
4, 8640, Note_on_c, 0, 63, 0
4, 8640, Note_on_c, 0, 58, 0
4, 8640, Note_on_c, 0, 51, 62
4, 8880, Note_on_c, 0, 51, 0
4, 8880, Note_on_c, 0, 59, 62
4, 8880, Note_on_c, 0, 63, 62
4, 8880, Note_on_c, 0, 68, 62
4, 9360, Note_on_c, 0, 68, 0
4, 9360, Note_on_c, 0, 63, 0
4, 9360, Note_on_c, 0, 59, 0
4, 9360, Note_on_c, 0, 59, 62
4, 9360, Note_on_c, 0, 63, 62
4, 9600, Note_on_c, 0, 63, 0
4, 9600, Note_on_c, 0, 59, 0
4, 9600, Note_on_c, 0, 51, 62
4, 9840, Note_on_c, 0, 51, 0
4, 9840, Note_on_c, 0, 59, 62
4, 9840, Note_on_c, 0, 62, 62
4, 9840, Note_on_c, 0, 65, 62
4, 10320, Note_on_c, 0, 65, 0
4, 10320, Note_on_c, 0, 62, 0
4, 10320, Note_on_c, 0, 59, 0
4, 10320, Note_on_c, 0, 59, 62
4, 10320, Note_on_c, 0, 62, 62
4, 10320, Note_on_c, 0, 65, 62
4, 10560, Note_on_c, 0, 65, 0
4, 10560, Note_on_c, 0, 62, 0
4, 10560, Note_on_c, 0, 59, 0
4, 10560, Note_on_c, 0, 51, 62
4, 10800, Note_on_c, 0, 51, 0
4, 10800, Note_on_c, 0, 58, 62
4, 10800, Note_on_c, 0, 63, 62
4, 10800, Note_on_c, 0, 66, 62
4, 11280, Note_on_c, 0, 66, 0
4, 11280, Note_on_c, 0, 63, 0
4, 11280, Note_on_c, 0, 58, 0
4, 11280, Note_on_c, 0, 58, 62
4, 11280, Note_on_c, 0, 63, 62
4, 11520, Note_on_c, 0, 63, 0
4, 11520, Note_on_c, 0, 58, 0
4, 11520, Note_on_c, 0, 57, 75
4, 11760, Note_on_c, 0, 57, 0
4, 11760, Note_on_c, 0, 60, 75
4, 12000, Note_on_c, 0, 60, 0
4, 12000, Note_on_c, 0, 56, 75
4, 12240, Note_on_c, 0, 56, 0
4, 12240, Note_on_c, 0, 58, 75
4, 12480, Note_on_c, 0, 58, 0
4, 12480, Note_on_c, 0, 54, 75
4, 12720, Note_on_c, 0, 54, 0
4, 12720, Note_on_c, 0, 58, 75
4, 12960, Note_on_c, 0, 58, 0
4, 12960, Note_on_c, 0, 50, 75
4, 13200, Note_on_c, 0, 50, 0
4, 13200, Note_on_c, 0, 56, 75
4, 13200, Note_on_c, 0, 58, 75
4, 13440, Note_on_c, 0, 58, 0
4, 13440, Note_on_c, 0, 56, 0
4, 13440, Note_on_c, 0, 51, 75
4, 13680, Note_on_c, 0, 51, 0
4, 13680, Note_on_c, 0, 54, 75
4, 13680, Note_on_c, 0, 58, 75
4, 13680, Note_on_c, 0, 63, 75
4, 13920, Note_on_c, 0, 63, 0
4, 13920, Note_on_c, 0, 58, 0
4, 13920, Note_on_c, 0, 54, 0
4, 13920, Note_on_c, 0, 56, 75
4, 14160, Note_on_c, 0, 56, 0
4, 14160, Note_on_c, 0, 58, 75
4, 14160, Note_on_c, 0, 62, 75
4, 14160, Note_on_c, 0, 65, 75
4, 14400, Note_on_c, 0, 65, 0
4, 14400, Note_on_c, 0, 62, 0
4, 14400, Note_on_c, 0, 58, 0
4, 14400, Note_on_c, 0, 54, 75
4, 14640, Note_on_c, 0, 54, 0
4, 14640, Note_on_c, 0, 58, 75
4, 14640, Note_on_c, 0, 63, 75
4, 14640, Note_on_c, 0, 66, 75
4, 14880, Note_on_c, 0, 66, 0
4, 14880, Note_on_c, 0, 63, 0
4, 14880, Note_on_c, 0, 58, 0
4, 14880, Note_on_c, 0, 53, 75
4, 15120, Note_on_c, 0, 53, 0
4, 15120, Note_on_c, 0, 58, 75
4, 15120, Note_on_c, 0, 62, 75
4, 15120, Note_on_c, 0, 68, 75
4, 15360, Note_on_c, 0, 68, 0
4, 15360, Note_on_c, 0, 62, 0
4, 15360, Note_on_c, 0, 58, 0
4, 15360, Note_on_c, 0, 51, 75
4, 15600, Note_on_c, 0, 51, 0
4, 15600, Note_on_c, 0, 58, 75
4, 15600, Note_on_c, 0, 63, 75
4, 15600, Note_on_c, 0, 67, 75
4, 15840, Note_on_c, 0, 67, 0
4, 15840, Note_on_c, 0, 63, 0
4, 15840, Note_on_c, 0, 58, 0
4, 15840, Note_on_c, 0, 49, 75
4, 16080, Note_on_c, 0, 49, 0
4, 16080, Note_on_c, 0, 55, 75
4, 16080, Note_on_c, 0, 58, 75
4, 16080, Note_on_c, 0, 63, 75
4, 16320, Note_on_c, 0, 63, 0
4, 16320, Note_on_c, 0, 58, 0
4, 16320, Note_on_c, 0, 55, 0
4, 16320, Note_on_c, 0, 47, 75
4, 16560, Note_on_c, 0, 47, 0
4, 16560, Note_on_c, 0, 56, 75
4, 16560, Note_on_c, 0, 59, 75
4, 16560, Note_on_c, 0, 63, 75
4, 16800, Note_on_c, 0, 63, 0
4, 16800, Note_on_c, 0, 59, 0
4, 16800, Note_on_c, 0, 56, 0
4, 16800, Note_on_c, 0, 46, 75
4, 17040, Note_on_c, 0, 46, 0
4, 17040, Note_on_c, 0, 55, 75
4, 17040, Note_on_c, 0, 61, 75
4, 17040, Note_on_c, 0, 63, 75
4, 17280, Note_on_c, 0, 63, 0
4, 17280, Note_on_c, 0, 61, 0
4, 17280, Note_on_c, 0, 55, 0
4, 17280, Note_on_c, 0, 44, 75
4, 17520, Note_on_c, 0, 44, 0
4, 17520, Note_on_c, 0, 56, 75
4, 17520, Note_on_c, 0, 59, 75
4, 17520, Note_on_c, 0, 63, 75
4, 17760, Note_on_c, 0, 63, 0
4, 17760, Note_on_c, 0, 59, 0
4, 17760, Note_on_c, 0, 56, 0
4, 17760, Note_on_c, 0, 49, 75
4, 18000, Note_on_c, 0, 49, 0
4, 18000, Note_on_c, 0, 58, 75
4, 18000, Note_on_c, 0, 63, 75
4, 18000, Note_on_c, 0, 67, 75
4, 18240, Note_on_c, 0, 67, 0
4, 18240, Note_on_c, 0, 63, 0
4, 18240, Note_on_c, 0, 58, 0
4, 18240, Note_on_c, 0, 47, 75
4, 18480, Note_on_c, 0, 47, 0
4, 18480, Note_on_c, 0, 59, 75
4, 18480, Note_on_c, 0, 63, 75
4, 18480, Note_on_c, 0, 68, 75
4, 18720, Note_on_c, 0, 68, 0
4, 18720, Note_on_c, 0, 63, 0
4, 18720, Note_on_c, 0, 59, 0
4, 18720, Note_on_c, 0, 58, 75
4, 18960, Note_on_c, 0, 58, 0
4, 18960, Note_on_c, 0, 61, 75
4, 18960, Note_on_c, 0, 63, 75
4, 18960, Note_on_c, 0, 70, 75
4, 19200, Note_on_c, 0, 70, 0
4, 19200, Note_on_c, 0, 63, 0
4, 19200, Note_on_c, 0, 61, 0
4, 19440, Note_on_c, 0, 59, 75
4, 19440, Note_on_c, 0, 63, 75
4, 19440, Note_on_c, 0, 68, 75
4, 19920, Note_on_c, 0, 68, 0
4, 19920, Note_on_c, 0, 63, 0
4, 19920, Note_on_c, 0, 59, 0
4, 19920, Note_on_c, 0, 59, 75
4, 19920, Note_on_c, 0, 63, 75
4, 19920, Note_on_c, 0, 68, 75
4, 20160, Note_on_c, 0, 68, 0
4, 20160, Note_on_c, 0, 63, 0
4, 20160, Note_on_c, 0, 59, 0
4, 20280, Note_on_c, 0, 66, 75
4, 20303, Note_on_c, 0, 66, 0
4, 20400, Note_on_c, 0, 66, 75
4, 20520, Note_on_c, 0, 66, 0
4, 20520, Note_on_c, 0, 68, 75
4, 20640, Note_on_c, 0, 68, 0
4, 20640, Note_on_c, 0, 68, 75
4, 20760, Note_on_c, 0, 68, 0
4, 20760, Note_on_c, 0, 66, 75
4, 20880, Note_on_c, 0, 66, 0
4, 20880, Note_on_c, 0, 66, 75
4, 21000, Note_on_c, 0, 66, 0
4, 21000, Note_on_c, 0, 65, 75
4, 21120, Note_on_c, 0, 65, 0
4, 21360, Note_on_c, 0, 56, 75
4, 21600, Note_on_c, 0, 56, 0
4, 21600, Note_on_c, 0, 63, 75
4, 21840, Note_on_c, 0, 63, 0
4, 21840, Note_on_c, 0, 56, 75
4, 22080, Note_on_c, 0, 56, 0
4, 22200, Note_on_c, 0, 63, 75
4, 22223, Note_on_c, 0, 63, 0
4, 22320, Note_on_c, 0, 63, 75
4, 22440, Note_on_c, 0, 63, 0
4, 22440, Note_on_c, 0, 65, 75
4, 22560, Note_on_c, 0, 65, 0
4, 22560, Note_on_c, 0, 65, 75
4, 22680, Note_on_c, 0, 65, 0
4, 22680, Note_on_c, 0, 66, 75
4, 22800, Note_on_c, 0, 66, 0
4, 22800, Note_on_c, 0, 66, 75
4, 22920, Note_on_c, 0, 66, 0
4, 22920, Note_on_c, 0, 57, 75
4, 23040, Note_on_c, 0, 57, 0
4, 23280, Note_on_c, 0, 56, 75
4, 23280, Note_on_c, 0, 61, 75
4, 23760, Note_on_c, 0, 61, 0
4, 23760, Note_on_c, 0, 56, 0
4, 23760, Note_on_c, 0, 56, 75
4, 23760, Note_on_c, 0, 61, 75
4, 24000, Note_on_c, 0, 61, 0
4, 24000, Note_on_c, 0, 56, 0
4, 24000, Note_on_c, 0, 65, 75
4, 24120, Note_on_c, 0, 65, 0
4, 24120, Note_on_c, 0, 58, 75
4, 24143, Note_on_c, 0, 58, 0
4, 24240, Note_on_c, 0, 58, 75
4, 24360, Note_on_c, 0, 58, 0
4, 24360, Note_on_c, 0, 68, 75
4, 24480, Note_on_c, 0, 68, 0
4, 24480, Note_on_c, 0, 68, 75
4, 24600, Note_on_c, 0, 68, 0
4, 24600, Note_on_c, 0, 66, 75
4, 24720, Note_on_c, 0, 66, 0
4, 24720, Note_on_c, 0, 66, 75
4, 24840, Note_on_c, 0, 66, 0
4, 24840, Note_on_c, 0, 65, 75
4, 24960, Note_on_c, 0, 65, 0
4, 25200, Note_on_c, 0, 54, 62
4, 25200, Note_on_c, 0, 58, 62
4, 25440, Note_on_c, 0, 58, 0
4, 25440, Note_on_c, 0, 54, 0
4, 25440, Note_on_c, 0, 63, 62
4, 25680, Note_on_c, 0, 63, 0
4, 25680, Note_on_c, 0, 54, 62
4, 25680, Note_on_c, 0, 58, 62
4, 25920, Note_on_c, 0, 58, 0
4, 25920, Note_on_c, 0, 54, 0
4, 26040, Note_on_c, 0, 56, 62
4, 26063, Note_on_c, 0, 56, 0
4, 26160, Note_on_c, 0, 56, 62
4, 26280, Note_on_c, 0, 56, 0
4, 26280, Note_on_c, 0, 63, 62
4, 26400, Note_on_c, 0, 63, 0
4, 26400, Note_on_c, 0, 63, 62
4, 26520, Note_on_c, 0, 63, 0
4, 26520, Note_on_c, 0, 62, 62
4, 26640, Note_on_c, 0, 62, 0
4, 26640, Note_on_c, 0, 62, 62
4, 26880, Note_on_c, 0, 62, 0
4, 26880, Note_on_c, 0, 51, 62
4, 27120, Note_on_c, 0, 51, 0
4, 27120, Note_on_c, 0, 58, 62
4, 27120, Note_on_c, 0, 63, 62
4, 27120, Note_on_c, 0, 66, 62
4, 27600, Note_on_c, 0, 66, 0
4, 27600, Note_on_c, 0, 63, 0
4, 27600, Note_on_c, 0, 58, 0
4, 27600, Note_on_c, 0, 58, 62
4, 27600, Note_on_c, 0, 63, 62
4, 27600, Note_on_c, 0, 66, 62
4, 27840, Note_on_c, 0, 66, 0
4, 27840, Note_on_c, 0, 63, 0
4, 27840, Note_on_c, 0, 58, 0
4, 27840, Note_on_c, 0, 51, 62
4, 28080, Note_on_c, 0, 51, 0
4, 28080, Note_on_c, 0, 59, 62
4, 28080, Note_on_c, 0, 63, 62
4, 28080, Note_on_c, 0, 68, 62
4, 28560, Note_on_c, 0, 68, 0
4, 28560, Note_on_c, 0, 63, 0
4, 28560, Note_on_c, 0, 59, 0
4, 28560, Note_on_c, 0, 59, 62
4, 28560, Note_on_c, 0, 63, 62
4, 28800, Note_on_c, 0, 63, 0
4, 28800, Note_on_c, 0, 59, 0
4, 28800, Note_on_c, 0, 51, 62
4, 29040, Note_on_c, 0, 51, 0
4, 29040, Note_on_c, 0, 59, 62
4, 29040, Note_on_c, 0, 62, 62
4, 29040, Note_on_c, 0, 65, 62
4, 29520, Note_on_c, 0, 65, 0
4, 29520, Note_on_c, 0, 62, 0
4, 29520, Note_on_c, 0, 59, 0
4, 29520, Note_on_c, 0, 59, 62
4, 29520, Note_on_c, 0, 62, 62
4, 29520, Note_on_c, 0, 65, 62
4, 29760, Note_on_c, 0, 65, 0
4, 29760, Note_on_c, 0, 62, 0
4, 29760, Note_on_c, 0, 59, 0
4, 29760, Note_on_c, 0, 51, 62
4, 30000, Note_on_c, 0, 51, 0
4, 30000, Note_on_c, 0, 58, 62
4, 30000, Note_on_c, 0, 63, 62
4, 30000, Note_on_c, 0, 66, 62
4, 30480, Note_on_c, 0, 66, 0
4, 30480, Note_on_c, 0, 63, 0
4, 30480, Note_on_c, 0, 58, 0
4, 30480, Note_on_c, 0, 58, 62
4, 30480, Note_on_c, 0, 63, 62
4, 30720, Note_on_c, 0, 63, 0
4, 30720, Note_on_c, 0, 58, 0
4, 30720, Note_on_c, 0, 57, 75
4, 30960, Note_on_c, 0, 57, 0
4, 30960, Note_on_c, 0, 60, 75
4, 31200, Note_on_c, 0, 60, 0
4, 31200, Note_on_c, 0, 56, 75
4, 31440, Note_on_c, 0, 56, 0
4, 31440, Note_on_c, 0, 58, 75
4, 31680, Note_on_c, 0, 58, 0
4, 31680, Note_on_c, 0, 54, 75
4, 31920, Note_on_c, 0, 54, 0
4, 31920, Note_on_c, 0, 58, 75
4, 32160, Note_on_c, 0, 58, 0
4, 32160, Note_on_c, 0, 50, 75
4, 32400, Note_on_c, 0, 50, 0
4, 32400, Note_on_c, 0, 56, 75
4, 32400, Note_on_c, 0, 58, 75
4, 32640, Note_on_c, 0, 58, 0
4, 32640, Note_on_c, 0, 56, 0
4, 32640, Note_on_c, 0, 51, 75
4, 32880, Note_on_c, 0, 51, 0
4, 32880, Note_on_c, 0, 54, 75
4, 32880, Note_on_c, 0, 58, 75
4, 32880, Note_on_c, 0, 63, 75
4, 33120, Note_on_c, 0, 63, 0
4, 33120, Note_on_c, 0, 58, 0
4, 33120, Note_on_c, 0, 54, 0
4, 33120, Note_on_c, 0, 56, 75
4, 33360, Note_on_c, 0, 56, 0
4, 33360, Note_on_c, 0, 58, 75
4, 33360, Note_on_c, 0, 62, 75
4, 33360, Note_on_c, 0, 65, 75
4, 33600, Note_on_c, 0, 65, 0
4, 33600, Note_on_c, 0, 62, 0
4, 33600, Note_on_c, 0, 58, 0
4, 33600, Note_on_c, 0, 54, 75
4, 33840, Note_on_c, 0, 54, 0
4, 33840, Note_on_c, 0, 58, 75
4, 33840, Note_on_c, 0, 63, 75
4, 33840, Note_on_c, 0, 66, 75
4, 34080, Note_on_c, 0, 66, 0
4, 34080, Note_on_c, 0, 63, 0
4, 34080, Note_on_c, 0, 58, 0
4, 34080, Note_on_c, 0, 53, 75
4, 34320, Note_on_c, 0, 53, 0
4, 34320, Note_on_c, 0, 58, 75
4, 34320, Note_on_c, 0, 65, 75
4, 34320, Note_on_c, 0, 68, 75
4, 34560, Note_on_c, 0, 68, 0
4, 34560, Note_on_c, 0, 65, 0
4, 34560, Note_on_c, 0, 58, 0
4, 34560, Note_on_c, 0, 51, 75
4, 34800, Note_on_c, 0, 51, 0
4, 34800, Note_on_c, 0, 58, 75
4, 34800, Note_on_c, 0, 63, 75
4, 34800, Note_on_c, 0, 67, 75
4, 35040, Note_on_c, 0, 67, 0
4, 35040, Note_on_c, 0, 63, 0
4, 35040, Note_on_c, 0, 58, 0
4, 35040, Note_on_c, 0, 49, 75
4, 35280, Note_on_c, 0, 49, 0
4, 35280, Note_on_c, 0, 55, 75
4, 35280, Note_on_c, 0, 58, 75
4, 35280, Note_on_c, 0, 63, 75
4, 35520, Note_on_c, 0, 63, 0
4, 35520, Note_on_c, 0, 58, 0
4, 35520, Note_on_c, 0, 55, 0
4, 35520, Note_on_c, 0, 47, 75
4, 35760, Note_on_c, 0, 47, 0
4, 35760, Note_on_c, 0, 56, 75
4, 35760, Note_on_c, 0, 59, 75
4, 35760, Note_on_c, 0, 63, 75
4, 36000, Note_on_c, 0, 63, 0
4, 36000, Note_on_c, 0, 59, 0
4, 36000, Note_on_c, 0, 56, 0
4, 36000, Note_on_c, 0, 46, 75
4, 36240, Note_on_c, 0, 46, 0
4, 36240, Note_on_c, 0, 55, 75
4, 36240, Note_on_c, 0, 61, 75
4, 36240, Note_on_c, 0, 63, 75
4, 36480, Note_on_c, 0, 63, 0
4, 36480, Note_on_c, 0, 61, 0
4, 36480, Note_on_c, 0, 55, 0
4, 36480, Note_on_c, 0, 44, 75
4, 36720, Note_on_c, 0, 44, 0
4, 36720, Note_on_c, 0, 56, 75
4, 36720, Note_on_c, 0, 59, 75
4, 36720, Note_on_c, 0, 63, 75
4, 36960, Note_on_c, 0, 63, 0
4, 36960, Note_on_c, 0, 59, 0
4, 36960, Note_on_c, 0, 56, 0
4, 36960, Note_on_c, 0, 49, 75
4, 37200, Note_on_c, 0, 49, 0
4, 37200, Note_on_c, 0, 58, 75
4, 37200, Note_on_c, 0, 63, 75
4, 37200, Note_on_c, 0, 67, 75
4, 37440, Note_on_c, 0, 67, 0
4, 37440, Note_on_c, 0, 63, 0
4, 37440, Note_on_c, 0, 58, 0
4, 37440, Note_on_c, 0, 47, 75
4, 37680, Note_on_c, 0, 47, 0
4, 37680, Note_on_c, 0, 59, 75
4, 37680, Note_on_c, 0, 63, 75
4, 37680, Note_on_c, 0, 68, 75
4, 37920, Note_on_c, 0, 68, 0
4, 37920, Note_on_c, 0, 63, 0
4, 37920, Note_on_c, 0, 59, 0
4, 37920, Note_on_c, 0, 58, 75
4, 38160, Note_on_c, 0, 58, 0
4, 38160, Note_on_c, 0, 61, 75
4, 38160, Note_on_c, 0, 63, 75
4, 38160, Note_on_c, 0, 70, 75
4, 38400, Note_on_c, 0, 70, 0
4, 38400, Note_on_c, 0, 63, 0
4, 38400, Note_on_c, 0, 61, 0
4, 38640, Note_on_c, 0, 59, 75
4, 38640, Note_on_c, 0, 63, 75
4, 38640, Note_on_c, 0, 68, 75
4, 39120, Note_on_c, 0, 68, 0
4, 39120, Note_on_c, 0, 63, 0
4, 39120, Note_on_c, 0, 59, 0
4, 39120, Note_on_c, 0, 59, 75
4, 39120, Note_on_c, 0, 63, 75
4, 39120, Note_on_c, 0, 68, 75
4, 39360, Note_on_c, 0, 68, 0
4, 39360, Note_on_c, 0, 63, 0
4, 39360, Note_on_c, 0, 59, 0
4, 39480, Note_on_c, 0, 66, 75
4, 39503, Note_on_c, 0, 66, 0
4, 39600, Note_on_c, 0, 66, 75
4, 39720, Note_on_c, 0, 66, 0
4, 39720, Note_on_c, 0, 68, 75
4, 39840, Note_on_c, 0, 68, 0
4, 39840, Note_on_c, 0, 68, 75
4, 39960, Note_on_c, 0, 68, 0
4, 39960, Note_on_c, 0, 66, 75
4, 40080, Note_on_c, 0, 66, 0
4, 40080, Note_on_c, 0, 66, 75
4, 40200, Note_on_c, 0, 66, 0
4, 40200, Note_on_c, 0, 65, 75
4, 40320, Note_on_c, 0, 65, 0
4, 40560, Note_on_c, 0, 56, 62
4, 40800, Note_on_c, 0, 56, 0
4, 40800, Note_on_c, 0, 63, 62
4, 41040, Note_on_c, 0, 63, 0
4, 41040, Note_on_c, 0, 56, 62
4, 41280, Note_on_c, 0, 56, 0
4, 41400, Note_on_c, 0, 63, 62
4, 41423, Note_on_c, 0, 63, 0
4, 41520, Note_on_c, 0, 63, 62
4, 41640, Note_on_c, 0, 63, 0
4, 41640, Note_on_c, 0, 65, 62
4, 41760, Note_on_c, 0, 65, 0
4, 41760, Note_on_c, 0, 65, 62
4, 41880, Note_on_c, 0, 65, 0
4, 41880, Note_on_c, 0, 66, 62
4, 42000, Note_on_c, 0, 66, 0
4, 42000, Note_on_c, 0, 66, 62
4, 42120, Note_on_c, 0, 66, 0
4, 42120, Note_on_c, 0, 57, 62
4, 42240, Note_on_c, 0, 57, 0
4, 42480, Note_on_c, 0, 56, 75
4, 42480, Note_on_c, 0, 61, 75
4, 42960, Note_on_c, 0, 61, 0
4, 42960, Note_on_c, 0, 56, 0
4, 42960, Note_on_c, 0, 56, 75
4, 42960, Note_on_c, 0, 61, 75
4, 43200, Note_on_c, 0, 61, 0
4, 43200, Note_on_c, 0, 56, 0
4, 43320, Note_on_c, 0, 61, 75
4, 43343, Note_on_c, 0, 61, 0
4, 43440, Note_on_c, 0, 61, 75
4, 43560, Note_on_c, 0, 61, 0
4, 43560, Note_on_c, 0, 71, 75
4, 43680, Note_on_c, 0, 71, 0
4, 43680, Note_on_c, 0, 71, 75
4, 43800, Note_on_c, 0, 71, 0
4, 43800, Note_on_c, 0, 70, 75
4, 43920, Note_on_c, 0, 70, 0
4, 43920, Note_on_c, 0, 70, 75
4, 44040, Note_on_c, 0, 70, 0
4, 44040, Note_on_c, 0, 68, 75
4, 44160, Note_on_c, 0, 68, 0
4, 44400, Note_on_c, 0, 61, 75
4, 44880, Note_on_c, 0, 61, 0
4, 44880, Note_on_c, 0, 58, 75
4, 45360, Note_on_c, 0, 58, 0
4, 45360, Note_on_c, 0, 55, 75
4, 45840, Note_on_c, 0, 55, 0
4, 45840, Note_on_c, 0, 51, 75
4, 46080, Note_on_c, 0, 51, 0
4, 46320, Note_on_c, 0, 51, 75
4, 46560, Note_on_c, 0, 51, 0
4, 46560, Note_on_c, 0, 56, 75
4, 46800, Note_on_c, 0, 56, 0
4, 46800, Note_on_c, 0, 59, 75
4, 47040, Note_on_c, 0, 59, 0
4, 47040, Note_on_c, 0, 60, 75
4, 47280, Note_on_c, 0, 60, 0
4, 47280, Note_on_c, 0, 61, 75
4, 47520, Note_on_c, 0, 61, 0
4, 47520, Note_on_c, 0, 47, 75
4, 47760, Note_on_c, 0, 47, 0
4, 47760, Note_on_c, 0, 46, 75
4, 48000, Note_on_c, 0, 46, 0
4, 48000, Note_on_c, 0, 47, 62
4, 48000, Note_on_c, 0, 54, 62
4, 48000, Note_on_c, 0, 56, 62
4, 48240, Note_on_c, 0, 56, 0
4, 48240, Note_on_c, 0, 54, 0
4, 48240, Note_on_c, 0, 47, 0
4, 48480, Note_on_c, 0, 49, 62
4, 48480, Note_on_c, 0, 53, 62
4, 48480, Note_on_c, 0, 56, 62
4, 48720, Note_on_c, 0, 56, 0
4, 48720, Note_on_c, 0, 53, 0
4, 48720, Note_on_c, 0, 49, 0
4, 48960, Note_on_c, 0, 50, 62
4, 48960, Note_on_c, 0, 53, 62
4, 48960, Note_on_c, 0, 56, 62
4, 49200, Note_on_c, 0, 56, 0
4, 49200, Note_on_c, 0, 53, 0
4, 49200, Note_on_c, 0, 50, 0
4, 49440, Note_on_c, 0, 51, 62
4, 49440, Note_on_c, 0, 54, 62
4, 49680, Note_on_c, 0, 54, 0
4, 49680, Note_on_c, 0, 51, 0
4, 49920, Note_on_c, 0, 47, 62
4, 49920, Note_on_c, 0, 51, 62
4, 49920, Note_on_c, 0, 56, 62
4, 50160, Note_on_c, 0, 56, 0
4, 50160, Note_on_c, 0, 51, 0
4, 50160, Note_on_c, 0, 47, 0
4, 50400, Note_on_c, 0, 46, 62
4, 50400, Note_on_c, 0, 51, 62
4, 50400, Note_on_c, 0, 58, 62
4, 50640, Note_on_c, 0, 58, 0
4, 50640, Note_on_c, 0, 51, 0
4, 50640, Note_on_c, 0, 46, 0
4, 50880, Note_on_c, 0, 46, 62
4, 50880, Note_on_c, 0, 56, 62
4, 51120, Note_on_c, 0, 56, 0
4, 51120, Note_on_c, 0, 46, 0
4, 51360, Note_on_c, 0, 46, 62
4, 51360, Note_on_c, 0, 56, 62
4, 51600, Note_on_c, 0, 56, 0
4, 51600, Note_on_c, 0, 46, 0
4, 51840, Note_on_c, 0, 39, 49
4, 51840, Note_on_c, 0, 51, 49
4, 51960, Note_on_c, 0, 51, 0
4, 51960, Note_on_c, 0, 39, 0
4, 51960, Note_on_c, 0, 38, 49
4, 51960, Note_on_c, 0, 50, 49
4, 52080, Note_on_c, 0, 50, 0
4, 52080, Note_on_c, 0, 38, 0
4, 52080, Note_on_c, 0, 38, 49
4, 52080, Note_on_c, 0, 50, 49
4, 52200, Note_on_c, 0, 50, 0
4, 52200, Note_on_c, 0, 38, 0
4, 52200, Note_on_c, 0, 39, 49
4, 52200, Note_on_c, 0, 51, 49
4, 52320, Note_on_c, 0, 51, 0
4, 52320, Note_on_c, 0, 39, 0
4, 52320, Note_on_c, 0, 39, 49
4, 52320, Note_on_c, 0, 51, 49
4, 52440, Note_on_c, 0, 51, 0
4, 52440, Note_on_c, 0, 39, 0
4, 52440, Note_on_c, 0, 38, 49
4, 52440, Note_on_c, 0, 50, 49
4, 52560, Note_on_c, 0, 50, 0
4, 52560, Note_on_c, 0, 38, 0
4, 52560, Note_on_c, 0, 38, 49
4, 52560, Note_on_c, 0, 50, 49
4, 52680, Note_on_c, 0, 50, 0
4, 52680, Note_on_c, 0, 38, 0
4, 52680, Note_on_c, 0, 39, 49
4, 52680, Note_on_c, 0, 51, 49
4, 52800, Note_on_c, 0, 51, 0
4, 52800, Note_on_c, 0, 39, 0
4, 53040, Note_on_c, 0, 51, 62
4, 53520, Note_on_c, 0, 51, 0
4, 53520, Note_on_c, 0, 51, 62
4, 53760, Note_on_c, 0, 51, 0
4, 53760, Note_on_c, 0, 51, 62
4, 54000, Note_on_c, 0, 51, 0
4, 54960, Note_on_c, 0, 51, 62
4, 54960, Note_on_c, 0, 58, 62
4, 54960, Note_on_c, 0, 62, 62
4, 55440, Note_on_c, 0, 62, 0
4, 55440, Note_on_c, 0, 58, 0
4, 55440, Note_on_c, 0, 51, 0
4, 55440, Note_on_c, 0, 51, 62
4, 55440, Note_on_c, 0, 58, 62
4, 55440, Note_on_c, 0, 62, 62
4, 55680, Note_on_c, 0, 62, 0
4, 55680, Note_on_c, 0, 58, 0
4, 55680, Note_on_c, 0, 51, 0
4, 55680, Note_on_c, 0, 51, 62
4, 55680, Note_on_c, 0, 58, 62
4, 55680, Note_on_c, 0, 63, 62
4, 55920, Note_on_c, 0, 63, 0
4, 55920, Note_on_c, 0, 58, 0
4, 55920, Note_on_c, 0, 51, 0
4, 56880, Note_on_c, 0, 55, 62
4, 56880, Note_on_c, 0, 61, 62
4, 56880, Note_on_c, 0, 63, 62
4, 56880, Note_on_c, 0, 67, 62
4, 57360, Note_on_c, 0, 67, 0
4, 57360, Note_on_c, 0, 55, 0
4, 57360, Note_on_c, 0, 61, 0
4, 57360, Note_on_c, 0, 63, 0
4, 57360, Note_on_c, 0, 55, 62
4, 57360, Note_on_c, 0, 61, 62
4, 57360, Note_on_c, 0, 63, 62
4, 57360, Note_on_c, 0, 67, 62
4, 57600, Note_on_c, 0, 67, 0
4, 57600, Note_on_c, 0, 55, 0
4, 57600, Note_on_c, 0, 61, 0
4, 57600, Note_on_c, 0, 63, 0
4, 57600, Note_on_c, 0, 56, 62
4, 57600, Note_on_c, 0, 59, 62
4, 57600, Note_on_c, 0, 63, 62
4, 57600, Note_on_c, 0, 68, 62
4, 57840, Note_on_c, 0, 68, 0
4, 57840, Note_on_c, 0, 56, 0
4, 57840, Note_on_c, 0, 59, 0
4, 57840, Note_on_c, 0, 63, 0
4, 58800, Note_on_c, 0, 56, 62
4, 58800, Note_on_c, 0, 58, 62
4, 58800, Note_on_c, 0, 66, 62
4, 59280, Note_on_c, 0, 66, 0
4, 59280, Note_on_c, 0, 58, 0
4, 59280, Note_on_c, 0, 56, 0
4, 59280, Note_on_c, 0, 56, 62
4, 59280, Note_on_c, 0, 58, 62
4, 59280, Note_on_c, 0, 62, 62
4, 59520, Note_on_c, 0, 62, 0
4, 59520, Note_on_c, 0, 58, 0
4, 59520, Note_on_c, 0, 56, 0
4, 59520, Note_on_c, 0, 51, 88
4, 59520, Note_on_c, 0, 55, 88
4, 59520, Note_on_c, 0, 58, 88
4, 59520, Note_on_c, 0, 63, 88
4, 59640, Note_on_c, 0, 63, 0
4, 59640, Note_on_c, 0, 51, 0
4, 59640, Note_on_c, 0, 55, 0
4, 59640, Note_on_c, 0, 58, 0
4, 59640, Note_on_c, 0, 50, 88
4, 59640, Note_on_c, 0, 62, 88
4, 59760, Note_on_c, 0, 62, 0
4, 59760, Note_on_c, 0, 50, 0
4, 59760, Note_on_c, 0, 50, 88
4, 59760, Note_on_c, 0, 62, 88
4, 59880, Note_on_c, 0, 62, 0
4, 59880, Note_on_c, 0, 50, 0
4, 59880, Note_on_c, 0, 51, 88
4, 59880, Note_on_c, 0, 63, 88
4, 60000, Note_on_c, 0, 63, 0
4, 60000, Note_on_c, 0, 51, 0
4, 60000, Note_on_c, 0, 51, 88
4, 60000, Note_on_c, 0, 63, 88
4, 60120, Note_on_c, 0, 63, 0
4, 60120, Note_on_c, 0, 51, 0
4, 60120, Note_on_c, 0, 50, 88
4, 60120, Note_on_c, 0, 62, 88
4, 60240, Note_on_c, 0, 62, 0
4, 60240, Note_on_c, 0, 50, 0
4, 60240, Note_on_c, 0, 50, 88
4, 60240, Note_on_c, 0, 62, 88
4, 60360, Note_on_c, 0, 62, 0
4, 60360, Note_on_c, 0, 50, 0
4, 60360, Note_on_c, 0, 51, 88
4, 60360, Note_on_c, 0, 63, 88
4, 60480, Note_on_c, 0, 63, 0
4, 60480, Note_on_c, 0, 51, 0
4, 60480, Note_on_c, 0, 51, 88
4, 60480, Note_on_c, 0, 63, 88
4, 60600, Note_on_c, 0, 63, 0
4, 60600, Note_on_c, 0, 51, 0
4, 60600, Note_on_c, 0, 50, 88
4, 60600, Note_on_c, 0, 62, 88
4, 60720, Note_on_c, 0, 62, 0
4, 60720, Note_on_c, 0, 50, 0
4, 60720, Note_on_c, 0, 50, 88
4, 60720, Note_on_c, 0, 62, 88
4, 60840, Note_on_c, 0, 62, 0
4, 60840, Note_on_c, 0, 50, 0
4, 60840, Note_on_c, 0, 51, 88
4, 60840, Note_on_c, 0, 63, 88
4, 60960, Note_on_c, 0, 63, 0
4, 60960, Note_on_c, 0, 51, 0
4, 60960, Note_on_c, 0, 51, 88
4, 60960, Note_on_c, 0, 63, 88
4, 61080, Note_on_c, 0, 63, 0
4, 61080, Note_on_c, 0, 51, 0
4, 61080, Note_on_c, 0, 50, 88
4, 61080, Note_on_c, 0, 62, 88
4, 61200, Note_on_c, 0, 62, 0
4, 61200, Note_on_c, 0, 50, 0
4, 61200, Note_on_c, 0, 50, 88
4, 61200, Note_on_c, 0, 62, 88
4, 61320, Note_on_c, 0, 62, 0
4, 61320, Note_on_c, 0, 50, 0
4, 61320, Note_on_c, 0, 51, 88
4, 61320, Note_on_c, 0, 63, 88
4, 61440, Note_on_c, 0, 63, 0
4, 61440, Note_on_c, 0, 51, 0
4, 61440, Note_on_c, 0, 44, 88
4, 61440, Note_on_c, 0, 47, 88
4, 61440, Note_on_c, 0, 52, 88
4, 61440, Note_on_c, 0, 56, 88
4, 61920, Note_on_c, 0, 56, 0
4, 61920, Note_on_c, 0, 44, 0
4, 61920, Note_on_c, 0, 47, 0
4, 61920, Note_on_c, 0, 52, 0
4, 61920, Note_on_c, 0, 44, 88
4, 61920, Note_on_c, 0, 47, 88
4, 61920, Note_on_c, 0, 52, 88
4, 61920, Note_on_c, 0, 56, 88
4, 62160, Note_on_c, 0, 56, 0
4, 62160, Note_on_c, 0, 44, 0
4, 62160, Note_on_c, 0, 47, 0
4, 62160, Note_on_c, 0, 52, 0
4, 62160, Note_on_c, 0, 44, 88
4, 62160, Note_on_c, 0, 47, 88
4, 62160, Note_on_c, 0, 52, 88
4, 62160, Note_on_c, 0, 56, 88
4, 62400, Note_on_c, 0, 56, 0
4, 62400, Note_on_c, 0, 44, 0
4, 62400, Note_on_c, 0, 47, 0
4, 62400, Note_on_c, 0, 52, 0
4, 62400, Note_on_c, 0, 44, 88
4, 62400, Note_on_c, 0, 47, 88
4, 62400, Note_on_c, 0, 52, 88
4, 62400, Note_on_c, 0, 56, 88
4, 62640, Note_on_c, 0, 56, 0
4, 62640, Note_on_c, 0, 44, 0
4, 62640, Note_on_c, 0, 47, 0
4, 62640, Note_on_c, 0, 52, 0
4, 62640, Note_on_c, 0, 44, 88
4, 62640, Note_on_c, 0, 47, 88
4, 62640, Note_on_c, 0, 52, 88
4, 62640, Note_on_c, 0, 56, 88
4, 62880, Note_on_c, 0, 56, 0
4, 62880, Note_on_c, 0, 44, 0
4, 62880, Note_on_c, 0, 47, 0
4, 62880, Note_on_c, 0, 52, 0
4, 62880, Note_on_c, 0, 44, 88
4, 62880, Note_on_c, 0, 47, 88
4, 62880, Note_on_c, 0, 52, 88
4, 62880, Note_on_c, 0, 56, 88
4, 63120, Note_on_c, 0, 56, 0
4, 63120, Note_on_c, 0, 44, 0
4, 63120, Note_on_c, 0, 47, 0
4, 63120, Note_on_c, 0, 52, 0
4, 63120, Note_on_c, 0, 44, 88
4, 63120, Note_on_c, 0, 47, 88
4, 63120, Note_on_c, 0, 52, 88
4, 63120, Note_on_c, 0, 56, 88
4, 63360, Note_on_c, 0, 56, 0
4, 63360, Note_on_c, 0, 44, 0
4, 63360, Note_on_c, 0, 47, 0
4, 63360, Note_on_c, 0, 52, 0
4, 63360, Note_on_c, 0, 44, 88
4, 63360, Note_on_c, 0, 47, 88
4, 63360, Note_on_c, 0, 52, 88
4, 63360, Note_on_c, 0, 56, 88
4, 63480, Note_on_c, 0, 56, 0
4, 63480, Note_on_c, 0, 44, 0
4, 63480, Note_on_c, 0, 47, 0
4, 63480, Note_on_c, 0, 52, 0
4, 63480, Note_on_c, 0, 51, 88
4, 63480, Note_on_c, 0, 63, 88
4, 63600, Note_on_c, 0, 63, 0
4, 63600, Note_on_c, 0, 51, 0
4, 63600, Note_on_c, 0, 51, 88
4, 63600, Note_on_c, 0, 63, 88
4, 63720, Note_on_c, 0, 63, 0
4, 63720, Note_on_c, 0, 51, 0
4, 63720, Note_on_c, 0, 52, 88
4, 63720, Note_on_c, 0, 64, 88
4, 63840, Note_on_c, 0, 64, 0
4, 63840, Note_on_c, 0, 52, 0
4, 63840, Note_on_c, 0, 52, 88
4, 63840, Note_on_c, 0, 64, 88
4, 63960, Note_on_c, 0, 64, 0
4, 63960, Note_on_c, 0, 52, 0
4, 63960, Note_on_c, 0, 51, 88
4, 63960, Note_on_c, 0, 63, 88
4, 64080, Note_on_c, 0, 63, 0
4, 64080, Note_on_c, 0, 51, 0
4, 64080, Note_on_c, 0, 51, 88
4, 64080, Note_on_c, 0, 63, 88
4, 64200, Note_on_c, 0, 63, 0
4, 64200, Note_on_c, 0, 51, 0
4, 64200, Note_on_c, 0, 52, 88
4, 64200, Note_on_c, 0, 64, 88
4, 64320, Note_on_c, 0, 64, 0
4, 64320, Note_on_c, 0, 52, 0
4, 64320, Note_on_c, 0, 52, 88
4, 64320, Note_on_c, 0, 64, 88
4, 64440, Note_on_c, 0, 64, 0
4, 64440, Note_on_c, 0, 52, 0
4, 64440, Note_on_c, 0, 51, 88
4, 64440, Note_on_c, 0, 63, 88
4, 64560, Note_on_c, 0, 63, 0
4, 64560, Note_on_c, 0, 51, 0
4, 64560, Note_on_c, 0, 51, 88
4, 64560, Note_on_c, 0, 63, 88
4, 64680, Note_on_c, 0, 63, 0
4, 64680, Note_on_c, 0, 51, 0
4, 64680, Note_on_c, 0, 52, 88
4, 64680, Note_on_c, 0, 64, 88
4, 64800, Note_on_c, 0, 64, 0
4, 64800, Note_on_c, 0, 52, 0
4, 64800, Note_on_c, 0, 52, 88
4, 64800, Note_on_c, 0, 64, 88
4, 64920, Note_on_c, 0, 64, 0
4, 64920, Note_on_c, 0, 52, 0
4, 64920, Note_on_c, 0, 51, 88
4, 64920, Note_on_c, 0, 63, 88
4, 65040, Note_on_c, 0, 63, 0
4, 65040, Note_on_c, 0, 51, 0
4, 65040, Note_on_c, 0, 51, 88
4, 65040, Note_on_c, 0, 63, 88
4, 65160, Note_on_c, 0, 63, 0
4, 65160, Note_on_c, 0, 51, 0
4, 65160, Note_on_c, 0, 52, 88
4, 65160, Note_on_c, 0, 64, 88
4, 65280, Note_on_c, 0, 64, 0
4, 65280, Note_on_c, 0, 52, 0
4, 65280, Note_on_c, 0, 45, 88
4, 65280, Note_on_c, 0, 48, 88
4, 65280, Note_on_c, 0, 53, 88
4, 65280, Note_on_c, 0, 57, 88
4, 65760, Note_on_c, 0, 57, 0
4, 65760, Note_on_c, 0, 45, 0
4, 65760, Note_on_c, 0, 48, 0
4, 65760, Note_on_c, 0, 53, 0
4, 65760, Note_on_c, 0, 45, 88
4, 65760, Note_on_c, 0, 48, 88
4, 65760, Note_on_c, 0, 53, 88
4, 65760, Note_on_c, 0, 57, 88
4, 66000, Note_on_c, 0, 57, 0
4, 66000, Note_on_c, 0, 45, 0
4, 66000, Note_on_c, 0, 48, 0
4, 66000, Note_on_c, 0, 53, 0
4, 66000, Note_on_c, 0, 45, 88
4, 66000, Note_on_c, 0, 48, 88
4, 66000, Note_on_c, 0, 53, 88
4, 66000, Note_on_c, 0, 57, 88
4, 66240, Note_on_c, 0, 57, 0
4, 66240, Note_on_c, 0, 45, 0
4, 66240, Note_on_c, 0, 48, 0
4, 66240, Note_on_c, 0, 53, 0
4, 66240, Note_on_c, 0, 45, 88
4, 66240, Note_on_c, 0, 48, 88
4, 66240, Note_on_c, 0, 53, 88
4, 66240, Note_on_c, 0, 57, 88
4, 66480, Note_on_c, 0, 57, 0
4, 66480, Note_on_c, 0, 45, 0
4, 66480, Note_on_c, 0, 48, 0
4, 66480, Note_on_c, 0, 53, 0
4, 66480, Note_on_c, 0, 45, 88
4, 66480, Note_on_c, 0, 48, 88
4, 66480, Note_on_c, 0, 53, 88
4, 66480, Note_on_c, 0, 57, 88
4, 66720, Note_on_c, 0, 57, 0
4, 66720, Note_on_c, 0, 45, 0
4, 66720, Note_on_c, 0, 48, 0
4, 66720, Note_on_c, 0, 53, 0
4, 66720, Note_on_c, 0, 45, 88
4, 66720, Note_on_c, 0, 48, 88
4, 66720, Note_on_c, 0, 53, 88
4, 66720, Note_on_c, 0, 57, 88
4, 66960, Note_on_c, 0, 57, 0
4, 66960, Note_on_c, 0, 45, 0
4, 66960, Note_on_c, 0, 48, 0
4, 66960, Note_on_c, 0, 53, 0
4, 66960, Note_on_c, 0, 45, 88
4, 66960, Note_on_c, 0, 48, 88
4, 66960, Note_on_c, 0, 53, 88
4, 66960, Note_on_c, 0, 57, 88
4, 67200, Note_on_c, 0, 57, 0
4, 67200, Note_on_c, 0, 45, 0
4, 67200, Note_on_c, 0, 48, 0
4, 67200, Note_on_c, 0, 53, 0
4, 67200, Note_on_c, 0, 45, 88
4, 67200, Note_on_c, 0, 48, 88
4, 67200, Note_on_c, 0, 53, 88
4, 67200, Note_on_c, 0, 57, 88
4, 67320, Note_on_c, 0, 57, 0
4, 67320, Note_on_c, 0, 45, 0
4, 67320, Note_on_c, 0, 48, 0
4, 67320, Note_on_c, 0, 53, 0
4, 67320, Note_on_c, 0, 52, 88
4, 67320, Note_on_c, 0, 64, 88
4, 67440, Note_on_c, 0, 64, 0
4, 67440, Note_on_c, 0, 52, 0
4, 67440, Note_on_c, 0, 52, 88
4, 67440, Note_on_c, 0, 64, 88
4, 67560, Note_on_c, 0, 64, 0
4, 67560, Note_on_c, 0, 52, 0
4, 67560, Note_on_c, 0, 53, 88
4, 67560, Note_on_c, 0, 65, 88
4, 67680, Note_on_c, 0, 65, 0
4, 67680, Note_on_c, 0, 53, 0
4, 67680, Note_on_c, 0, 53, 88
4, 67680, Note_on_c, 0, 65, 88
4, 67800, Note_on_c, 0, 65, 0
4, 67800, Note_on_c, 0, 53, 0
4, 67800, Note_on_c, 0, 52, 88
4, 67800, Note_on_c, 0, 64, 88
4, 67920, Note_on_c, 0, 64, 0
4, 67920, Note_on_c, 0, 52, 0
4, 67920, Note_on_c, 0, 52, 88
4, 67920, Note_on_c, 0, 64, 88
4, 68040, Note_on_c, 0, 64, 0
4, 68040, Note_on_c, 0, 52, 0
4, 68040, Note_on_c, 0, 53, 88
4, 68040, Note_on_c, 0, 65, 88
4, 68160, Note_on_c, 0, 65, 0
4, 68160, Note_on_c, 0, 53, 0
4, 68160, Note_on_c, 0, 53, 88
4, 68160, Note_on_c, 0, 65, 88
4, 68280, Note_on_c, 0, 65, 0
4, 68280, Note_on_c, 0, 53, 0
4, 68280, Note_on_c, 0, 52, 88
4, 68280, Note_on_c, 0, 64, 88
4, 68400, Note_on_c, 0, 64, 0
4, 68400, Note_on_c, 0, 52, 0
4, 68400, Note_on_c, 0, 52, 88
4, 68400, Note_on_c, 0, 64, 88
4, 68520, Note_on_c, 0, 64, 0
4, 68520, Note_on_c, 0, 52, 0
4, 68520, Note_on_c, 0, 53, 88
4, 68520, Note_on_c, 0, 65, 88
4, 68640, Note_on_c, 0, 65, 0
4, 68640, Note_on_c, 0, 53, 0
4, 68640, Note_on_c, 0, 53, 88
4, 68640, Note_on_c, 0, 65, 88
4, 68760, Note_on_c, 0, 65, 0
4, 68760, Note_on_c, 0, 53, 0
4, 68760, Note_on_c, 0, 52, 88
4, 68760, Note_on_c, 0, 64, 88
4, 68880, Note_on_c, 0, 64, 0
4, 68880, Note_on_c, 0, 52, 0
4, 68880, Note_on_c, 0, 52, 88
4, 68880, Note_on_c, 0, 64, 88
4, 69000, Note_on_c, 0, 64, 0
4, 69000, Note_on_c, 0, 52, 0
4, 69000, Note_on_c, 0, 53, 88
4, 69000, Note_on_c, 0, 65, 88
4, 69120, Note_on_c, 0, 65, 0
4, 69120, Note_on_c, 0, 53, 0
4, 69120, Control_c, 0, 64, 127
4, 69120, Note_on_c, 0, 46, 88
4, 69120, Note_on_c, 0, 51, 88
4, 69120, Note_on_c, 0, 54, 88
4, 69120, Note_on_c, 0, 58, 88
4, 69360, Note_on_c, 0, 58, 0
4, 69360, Note_on_c, 0, 46, 0
4, 69360, Note_on_c, 0, 51, 0
4, 69360, Note_on_c, 0, 54, 0
4, 69360, Note_on_c, 0, 51, 88
4, 69360, Note_on_c, 0, 54, 88
4, 69600, Note_on_c, 0, 54, 0
4, 69600, Note_on_c, 0, 51, 0
4, 69600, Note_on_c, 0, 51, 88
4, 69600, Note_on_c, 0, 54, 88
4, 69840, Note_on_c, 0, 54, 0
4, 69840, Note_on_c, 0, 51, 0
4, 69840, Note_on_c, 0, 54, 88
4, 69840, Note_on_c, 0, 58, 88
4, 70080, Note_on_c, 0, 58, 0
4, 70080, Note_on_c, 0, 54, 0
4, 70080, Note_on_c, 0, 54, 88
4, 70080, Note_on_c, 0, 58, 88
4, 70320, Note_on_c, 0, 58, 0
4, 70320, Note_on_c, 0, 54, 0
4, 70320, Note_on_c, 0, 53, 88
4, 70560, Note_on_c, 0, 53, 0
4, 70560, Note_on_c, 0, 54, 88
4, 70800, Note_on_c, 0, 54, 0
4, 70800, Note_on_c, 0, 58, 88
4, 71040, Note_on_c, 0, 58, 0
4, 71040, Note_on_c, 0, 63, 88
4, 71280, Note_on_c, 0, 63, 0
4, 71280, Note_on_c, 0, 66, 88
4, 71520, Note_on_c, 0, 66, 0
4, 71520, Control_c, 0, 64, 0
4, 71520, Note_on_c, 0, 58, 88
4, 71520, Note_on_c, 0, 63, 88
4, 71520, Note_on_c, 0, 66, 88
4, 71520, Note_on_c, 0, 70, 88
4, 72400, Note_on_c, 0, 46, 88
4, 72440, Note_on_c, 0, 53, 88
4, 72480, Note_on_c, 0, 70, 0
4, 72480, Note_on_c, 0, 66, 0
4, 72480, Note_on_c, 0, 58, 0
4, 72480, Note_on_c, 0, 63, 0
4, 72480, Note_on_c, 0, 62, 88
4, 72960, Note_on_c, 0, 62, 0
4, 72960, Note_on_c, 0, 53, 0
4, 72960, Note_on_c, 0, 46, 0
4, 72960, Note_on_c, 0, 51, 75
4, 72960, Note_on_c, 0, 54, 75
4, 72960, Note_on_c, 0, 58, 75
4, 73200, Note_on_c, 0, 58, 0
4, 73200, Note_on_c, 0, 54, 0
4, 73200, Note_on_c, 0, 51, 0
4, 73200, Note_on_c, 0, 51, 75
4, 73200, Note_on_c, 0, 54, 75
4, 73440, Note_on_c, 0, 54, 0
4, 73440, Note_on_c, 0, 51, 0
4, 73440, Note_on_c, 0, 46, 75
4, 73440, Note_on_c, 0, 54, 75
4, 74400, Note_on_c, 0, 54, 0
4, 74400, Note_on_c, 0, 46, 0
4, 74400, Note_on_c, 0, 46, 62
4, 74400, Note_on_c, 0, 54, 62
4, 74880, Note_on_c, 0, 54, 0
4, 74880, Note_on_c, 0, 46, 0
4, 74880, Note_on_c, 0, 47, 62
4, 74880, Note_on_c, 0, 54, 62
4, 75360, Note_on_c, 0, 54, 0
4, 75360, Note_on_c, 0, 47, 0
4, 75360, Note_on_c, 0, 47, 62
4, 75360, Note_on_c, 0, 54, 62
4, 75360, Note_on_c, 0, 59, 62
4, 75600, Note_on_c, 0, 59, 0
4, 75600, Note_on_c, 0, 54, 0
4, 75600, Note_on_c, 0, 47, 0
4, 76320, Note_on_c, 0, 47, 62
4, 76320, Note_on_c, 0, 55, 62
4, 76560, Note_on_c, 0, 55, 0
4, 76560, Note_on_c, 0, 47, 0
4, 77200, Note_on_c, 0, 47, 62
4, 77240, Note_on_c, 0, 56, 62
4, 77280, Note_on_c, 0, 63, 62
4, 77520, Note_on_c, 0, 63, 0
4, 77520, Note_on_c, 0, 56, 0
4, 77520, Note_on_c, 0, 47, 0
4, 78240, Note_on_c, 0, 48, 62
4, 78240, Note_on_c, 0, 54, 62
4, 78240, Note_on_c, 0, 56, 62
4, 78480, Note_on_c, 0, 56, 0
4, 78480, Note_on_c, 0, 54, 0
4, 78480, Note_on_c, 0, 48, 0
4, 78720, Note_on_c, 0, 49, 62
4, 78720, Note_on_c, 0, 52, 62
4, 78720, Note_on_c, 0, 56, 62
4, 78720, Note_on_c, 0, 61, 62
4, 78960, Note_on_c, 0, 61, 0
4, 78960, Note_on_c, 0, 49, 0
4, 78960, Note_on_c, 0, 52, 0
4, 78960, Note_on_c, 0, 56, 0
4, 79200, Note_on_c, 0, 37, 62
4, 79200, Note_on_c, 0, 49, 62
4, 79440, Note_on_c, 0, 49, 0
4, 79440, Note_on_c, 0, 37, 0
4, 80160, Note_on_c, 0, 39, 62
4, 80160, Note_on_c, 0, 51, 62
4, 80400, Note_on_c, 0, 51, 0
4, 80400, Note_on_c, 0, 39, 0
4, 81120, Note_on_c, 0, 40, 62
4, 81120, Note_on_c, 0, 52, 62
4, 81360, Note_on_c, 0, 52, 0
4, 81360, Note_on_c, 0, 40, 0
4, 82080, Note_on_c, 0, 41, 62
4, 82080, Note_on_c, 0, 53, 62
4, 82320, Note_on_c, 0, 53, 0
4, 82320, Note_on_c, 0, 41, 0
4, 82560, Note_on_c, 0, 42, 62
4, 82560, Note_on_c, 0, 49, 62
4, 82560, Note_on_c, 0, 54, 62
4, 82800, Note_on_c, 0, 54, 0
4, 82800, Note_on_c, 0, 49, 0
4, 82800, Note_on_c, 0, 42, 0
4, 83040, Note_on_c, 0, 30, 62
4, 83040, Note_on_c, 0, 42, 62
4, 83520, Note_on_c, 0, 42, 0
4, 83520, Note_on_c, 0, 30, 0
4, 83520, Note_on_c, 0, 54, 62
4, 83520, Note_on_c, 0, 59, 62
4, 83520, Note_on_c, 0, 62, 62
4, 83520, Note_on_c, 0, 66, 62
4, 84480, Note_on_c, 0, 66, 0
4, 84480, Note_on_c, 0, 54, 0
4, 84480, Note_on_c, 0, 59, 0
4, 84480, Note_on_c, 0, 62, 0
4, 84480, Note_on_c, 0, 54, 62
4, 84480, Note_on_c, 0, 57, 62
4, 84480, Note_on_c, 0, 61, 62
4, 84480, Note_on_c, 0, 66, 62
4, 85440, Note_on_c, 0, 66, 0
4, 85440, Note_on_c, 0, 54, 0
4, 85440, Note_on_c, 0, 57, 0
4, 85440, Note_on_c, 0, 61, 0
4, 85440, Note_on_c, 0, 54, 62
4, 85440, Note_on_c, 0, 59, 62
4, 85440, Note_on_c, 0, 62, 62
4, 85440, Note_on_c, 0, 66, 62
4, 86400, Note_on_c, 0, 66, 0
4, 86400, Note_on_c, 0, 54, 0
4, 86400, Note_on_c, 0, 59, 0
4, 86400, Note_on_c, 0, 62, 0
4, 86400, Note_on_c, 0, 54, 62
4, 86400, Note_on_c, 0, 57, 62
4, 86400, Note_on_c, 0, 61, 62
4, 87360, Note_on_c, 0, 61, 0
4, 87360, Note_on_c, 0, 57, 0
4, 87360, Note_on_c, 0, 54, 0
4, 87360, Note_on_c, 0, 54, 62
4, 87360, Note_on_c, 0, 59, 62
4, 87360, Note_on_c, 0, 62, 62
4, 87360, Note_on_c, 0, 65, 62
4, 88320, Note_on_c, 0, 65, 0
4, 88320, Note_on_c, 0, 54, 0
4, 88320, Note_on_c, 0, 59, 0
4, 88320, Note_on_c, 0, 62, 0
4, 88320, Note_on_c, 0, 54, 62
4, 88320, Note_on_c, 0, 57, 62
4, 88320, Note_on_c, 0, 61, 62
4, 88320, Note_on_c, 0, 66, 62
4, 89280, Note_on_c, 0, 66, 0
4, 89280, Note_on_c, 0, 54, 0
4, 89280, Note_on_c, 0, 57, 0
4, 89280, Note_on_c, 0, 61, 0
4, 89280, Note_on_c, 0, 54, 62
4, 89280, Note_on_c, 0, 59, 62
4, 89280, Note_on_c, 0, 62, 62
4, 89280, Note_on_c, 0, 66, 62
4, 90240, Note_on_c, 0, 66, 0
4, 90240, Note_on_c, 0, 54, 0
4, 90240, Note_on_c, 0, 59, 0
4, 90240, Note_on_c, 0, 62, 0
4, 90240, Note_on_c, 0, 52, 62
4, 90240, Note_on_c, 0, 55, 62
4, 90240, Note_on_c, 0, 57, 62
4, 91200, Note_on_c, 0, 57, 0
4, 91200, Note_on_c, 0, 55, 0
4, 91200, Note_on_c, 0, 52, 0
4, 91200, Note_on_c, 0, 50, 62
4, 91200, Note_on_c, 0, 54, 62
4, 91200, Note_on_c, 0, 57, 62
4, 91200, Note_on_c, 0, 62, 62
4, 92160, Note_on_c, 0, 62, 0
4, 92160, Note_on_c, 0, 50, 0
4, 92160, Note_on_c, 0, 54, 0
4, 92160, Note_on_c, 0, 57, 0
4, 92160, Note_on_c, 0, 52, 62
4, 92160, Note_on_c, 0, 55, 62
4, 92160, Note_on_c, 0, 57, 62
4, 92160, Note_on_c, 0, 61, 62
4, 93120, Note_on_c, 0, 61, 0
4, 93120, Note_on_c, 0, 52, 0
4, 93120, Note_on_c, 0, 55, 0
4, 93120, Note_on_c, 0, 57, 0
4, 93120, Note_on_c, 0, 54, 62
4, 93120, Note_on_c, 0, 57, 62
4, 93120, Note_on_c, 0, 62, 62
4, 93120, Note_on_c, 0, 66, 62
4, 94080, Note_on_c, 0, 66, 0
4, 94080, Note_on_c, 0, 54, 0
4, 94080, Note_on_c, 0, 57, 0
4, 94080, Note_on_c, 0, 62, 0
4, 94080, Note_on_c, 0, 52, 62
4, 94080, Note_on_c, 0, 55, 62
4, 94080, Note_on_c, 0, 57, 62
4, 94080, Note_on_c, 0, 61, 62
4, 95040, Note_on_c, 0, 61, 0
4, 95040, Note_on_c, 0, 52, 0
4, 95040, Note_on_c, 0, 55, 0
4, 95040, Note_on_c, 0, 57, 0
4, 96480, Note_on_c, 0, 50, 62
4, 96480, Note_on_c, 0, 58, 62
4, 96480, Note_on_c, 0, 62, 62
4, 96639, Note_on_c, 0, 62, 0
4, 96639, Note_on_c, 0, 58, 0
4, 96639, Note_on_c, 0, 50, 0
4, 96639, Note_on_c, 0, 50, 62
4, 96639, Note_on_c, 0, 58, 62
4, 96639, Note_on_c, 0, 62, 62
4, 96800, Note_on_c, 0, 62, 0
4, 96800, Note_on_c, 0, 58, 0
4, 96800, Note_on_c, 0, 50, 0
4, 96800, Note_on_c, 0, 50, 62
4, 96800, Note_on_c, 0, 58, 62
4, 96800, Note_on_c, 0, 62, 62
4, 96960, Note_on_c, 0, 62, 0
4, 96960, Note_on_c, 0, 58, 0
4, 96960, Note_on_c, 0, 50, 0
4, 96960, Note_on_c, 0, 50, 62
4, 96960, Note_on_c, 0, 57, 62
4, 96960, Note_on_c, 0, 62, 62
4, 97200, Note_on_c, 0, 62, 0
4, 97200, Note_on_c, 0, 57, 0
4, 97200, Note_on_c, 0, 50, 0
4, 97200, Note_on_c, 0, 38, 62
4, 97200, Note_on_c, 0, 50, 62
4, 97440, Note_on_c, 0, 50, 0
4, 97440, Note_on_c, 0, 38, 0
4, 97440, Note_on_c, 0, 38, 62
4, 97440, Note_on_c, 0, 50, 62
4, 98400, Note_on_c, 0, 50, 0
4, 98400, Note_on_c, 0, 38, 0
4, 98400, Note_on_c, 0, 38, 62
4, 98400, Note_on_c, 0, 50, 62
4, 98559, Note_on_c, 0, 50, 0
4, 98559, Note_on_c, 0, 38, 0
4, 98559, Note_on_c, 0, 38, 62
4, 98559, Note_on_c, 0, 50, 62
4, 98720, Note_on_c, 0, 50, 0
4, 98720, Note_on_c, 0, 38, 0
4, 98720, Note_on_c, 0, 38, 62
4, 98720, Note_on_c, 0, 50, 62
4, 98880, Note_on_c, 0, 50, 0
4, 98880, Note_on_c, 0, 38, 0
4, 98880, Note_on_c, 0, 38, 62
4, 98880, Note_on_c, 0, 50, 62
4, 99120, Note_on_c, 0, 50, 0
4, 99120, Note_on_c, 0, 38, 0
4, 99120, Note_on_c, 0, 38, 62
4, 99120, Note_on_c, 0, 50, 62
4, 99600, Note_on_c, 0, 50, 0
4, 99600, Note_on_c, 0, 38, 0
4, 99600, Note_on_c, 0, 38, 62
4, 99600, Note_on_c, 0, 50, 62
4, 100080, Note_on_c, 0, 50, 0
4, 100080, Note_on_c, 0, 38, 0
4, 100080, Note_on_c, 0, 38, 62
4, 100080, Note_on_c, 0, 50, 62
4, 100560, Note_on_c, 0, 50, 0
4, 100560, Note_on_c, 0, 38, 0
4, 100560, Note_on_c, 0, 38, 62
4, 100560, Note_on_c, 0, 50, 62
4, 101040, Note_on_c, 0, 50, 0
4, 101040, Note_on_c, 0, 38, 0
4, 101040, Note_on_c, 0, 38, 49
4, 101040, Note_on_c, 0, 50, 49
4, 101520, Note_on_c, 0, 50, 0
4, 101520, Note_on_c, 0, 38, 0
4, 101520, Note_on_c, 0, 38, 49
4, 101520, Note_on_c, 0, 50, 49
4, 101760, Note_on_c, 0, 50, 0
4, 101760, Note_on_c, 0, 38, 0
4, 101760, Control_c, 0, 64, 127
4, 101760, Note_on_c, 0, 38, 101
4, 101820, Note_on_c, 0, 38, 0
4, 101820, Note_on_c, 0, 50, 101
4, 101880, Note_on_c, 0, 50, 0
4, 101880, Note_on_c, 0, 38, 75
4, 101940, Note_on_c, 0, 38, 0
4, 101940, Note_on_c, 0, 50, 75
4, 102000, Note_on_c, 0, 50, 0
4, 102000, Note_on_c, 0, 38, 75
4, 102060, Note_on_c, 0, 38, 0
4, 102060, Note_on_c, 0, 50, 75
4, 102120, Note_on_c, 0, 50, 0
4, 102120, Note_on_c, 0, 38, 75
4, 102180, Note_on_c, 0, 38, 0
4, 102180, Note_on_c, 0, 50, 75
4, 102240, Note_on_c, 0, 50, 0
4, 102240, Note_on_c, 0, 38, 75
4, 102300, Note_on_c, 0, 38, 0
4, 102300, Note_on_c, 0, 50, 75
4, 102360, Note_on_c, 0, 50, 0
4, 102360, Note_on_c, 0, 38, 75
4, 102420, Note_on_c, 0, 38, 0
4, 102420, Note_on_c, 0, 50, 75
4, 102480, Note_on_c, 0, 50, 0
4, 102480, Note_on_c, 0, 38, 75
4, 102540, Note_on_c, 0, 38, 0
4, 102540, Note_on_c, 0, 50, 75
4, 102600, Note_on_c, 0, 50, 0
4, 102600, Note_on_c, 0, 38, 75
4, 102660, Note_on_c, 0, 38, 0
4, 102660, Note_on_c, 0, 50, 75
4, 102720, Note_on_c, 0, 50, 0
4, 102720, Note_on_c, 0, 38, 62
4, 102780, Note_on_c, 0, 38, 0
4, 102780, Note_on_c, 0, 50, 62
4, 102840, Note_on_c, 0, 50, 0
4, 102840, Note_on_c, 0, 38, 62
4, 102900, Note_on_c, 0, 38, 0
4, 102900, Note_on_c, 0, 50, 62
4, 102960, Note_on_c, 0, 50, 0
4, 102960, Note_on_c, 0, 38, 62
4, 103020, Note_on_c, 0, 38, 0
4, 103020, Note_on_c, 0, 50, 62
4, 103080, Note_on_c, 0, 50, 0
4, 103080, Note_on_c, 0, 38, 62
4, 103140, Note_on_c, 0, 38, 0
4, 103140, Note_on_c, 0, 50, 62
4, 103200, Note_on_c, 0, 50, 0
4, 103200, Note_on_c, 0, 38, 49
4, 103260, Note_on_c, 0, 38, 0
4, 103260, Note_on_c, 0, 50, 49
4, 103320, Note_on_c, 0, 50, 0
4, 103320, Note_on_c, 0, 38, 49
4, 103380, Note_on_c, 0, 38, 0
4, 103380, Note_on_c, 0, 50, 49
4, 103440, Note_on_c, 0, 50, 0
4, 103440, Note_on_c, 0, 38, 49
4, 103500, Note_on_c, 0, 38, 0
4, 103500, Note_on_c, 0, 50, 49
4, 103560, Note_on_c, 0, 50, 0
4, 103560, Note_on_c, 0, 38, 49
4, 103620, Note_on_c, 0, 38, 0
4, 103620, Note_on_c, 0, 50, 49
4, 103680, Note_on_c, 0, 50, 0
4, 103680, Note_on_c, 0, 38, 49
4, 103740, Note_on_c, 0, 38, 0
4, 103740, Note_on_c, 0, 50, 49
4, 103800, Note_on_c, 0, 50, 0
4, 103800, Note_on_c, 0, 38, 49
4, 103860, Note_on_c, 0, 38, 0
4, 103860, Note_on_c, 0, 50, 49
4, 103920, Note_on_c, 0, 50, 0
4, 103920, Note_on_c, 0, 38, 49
4, 103980, Note_on_c, 0, 38, 0
4, 103980, Note_on_c, 0, 50, 49
4, 104040, Note_on_c, 0, 50, 0
4, 104040, Note_on_c, 0, 38, 49
4, 104100, Note_on_c, 0, 38, 0
4, 104100, Note_on_c, 0, 50, 49
4, 104160, Note_on_c, 0, 50, 0
4, 104160, Note_on_c, 0, 38, 49
4, 104220, Note_on_c, 0, 38, 0
4, 104220, Note_on_c, 0, 50, 49
4, 104280, Note_on_c, 0, 50, 0
4, 104280, Note_on_c, 0, 38, 49
4, 104340, Note_on_c, 0, 38, 0
4, 104340, Note_on_c, 0, 50, 49
4, 104400, Note_on_c, 0, 50, 0
4, 104400, Note_on_c, 0, 38, 49
4, 104460, Note_on_c, 0, 38, 0
4, 104460, Note_on_c, 0, 50, 49
4, 104520, Note_on_c, 0, 50, 0
4, 104520, Note_on_c, 0, 38, 49
4, 104580, Note_on_c, 0, 38, 0
4, 104580, Note_on_c, 0, 50, 49
4, 104640, Note_on_c, 0, 50, 0
4, 104640, Note_on_c, 0, 38, 49
4, 104700, Note_on_c, 0, 38, 0
4, 104700, Note_on_c, 0, 50, 49
4, 104760, Note_on_c, 0, 50, 0
4, 104760, Note_on_c, 0, 38, 49
4, 104820, Note_on_c, 0, 38, 0
4, 104820, Note_on_c, 0, 50, 49
4, 104880, Note_on_c, 0, 50, 0
4, 104880, Note_on_c, 0, 38, 49
4, 104940, Note_on_c, 0, 38, 0
4, 104940, Note_on_c, 0, 50, 49
4, 105000, Note_on_c, 0, 50, 0
4, 105000, Note_on_c, 0, 38, 49
4, 105060, Note_on_c, 0, 38, 0
4, 105060, Note_on_c, 0, 50, 49
4, 105120, Note_on_c, 0, 50, 0
4, 105120, Note_on_c, 0, 38, 49
4, 105180, Note_on_c, 0, 38, 0
4, 105180, Note_on_c, 0, 50, 49
4, 105240, Note_on_c, 0, 50, 0
4, 105240, Note_on_c, 0, 38, 49
4, 105300, Note_on_c, 0, 38, 0
4, 105300, Note_on_c, 0, 50, 49
4, 105360, Note_on_c, 0, 50, 0
4, 105360, Note_on_c, 0, 38, 49
4, 105420, Note_on_c, 0, 38, 0
4, 105420, Note_on_c, 0, 50, 49
4, 105480, Note_on_c, 0, 50, 0
4, 105480, Note_on_c, 0, 38, 49
4, 105540, Note_on_c, 0, 38, 0
4, 105540, Note_on_c, 0, 50, 49
4, 105600, Note_on_c, 0, 50, 0
4, 105600, Note_on_c, 0, 38, 49
4, 105660, Note_on_c, 0, 38, 0
4, 105660, Note_on_c, 0, 50, 49
4, 105720, Note_on_c, 0, 50, 0
4, 105720, Note_on_c, 0, 38, 49
4, 105780, Note_on_c, 0, 38, 0
4, 105780, Note_on_c, 0, 50, 49
4, 105840, Note_on_c, 0, 50, 0
4, 105840, Note_on_c, 0, 38, 49
4, 105900, Note_on_c, 0, 38, 0
4, 105900, Note_on_c, 0, 50, 49
4, 105960, Note_on_c, 0, 50, 0
4, 105960, Note_on_c, 0, 38, 49
4, 106020, Note_on_c, 0, 38, 0
4, 106020, Note_on_c, 0, 50, 49
4, 106080, Note_on_c, 0, 50, 0
4, 106080, Note_on_c, 0, 38, 49
4, 106140, Note_on_c, 0, 38, 0
4, 106140, Note_on_c, 0, 50, 49
4, 106200, Note_on_c, 0, 50, 0
4, 106200, Note_on_c, 0, 38, 49
4, 106260, Note_on_c, 0, 38, 0
4, 106260, Note_on_c, 0, 50, 49
4, 106320, Note_on_c, 0, 50, 0
4, 106320, Note_on_c, 0, 38, 49
4, 106380, Note_on_c, 0, 38, 0
4, 106380, Note_on_c, 0, 50, 49
4, 106440, Note_on_c, 0, 50, 0
4, 106440, Note_on_c, 0, 38, 49
4, 106500, Note_on_c, 0, 38, 0
4, 106500, Note_on_c, 0, 50, 49
4, 106560, Note_on_c, 0, 50, 0
4, 106560, Note_on_c, 0, 38, 62
4, 106620, Note_on_c, 0, 38, 0
4, 106620, Note_on_c, 0, 50, 62
4, 106680, Note_on_c, 0, 50, 0
4, 106680, Note_on_c, 0, 38, 62
4, 106740, Note_on_c, 0, 38, 0
4, 106740, Note_on_c, 0, 50, 62
4, 106800, Note_on_c, 0, 50, 0
4, 106800, Note_on_c, 0, 38, 62
4, 106860, Note_on_c, 0, 38, 0
4, 106860, Note_on_c, 0, 50, 62
4, 106920, Note_on_c, 0, 50, 0
4, 106920, Note_on_c, 0, 38, 62
4, 106980, Note_on_c, 0, 38, 0
4, 106980, Note_on_c, 0, 50, 62
4, 107040, Note_on_c, 0, 50, 0
4, 107040, Note_on_c, 0, 38, 62
4, 107100, Note_on_c, 0, 38, 0
4, 107100, Note_on_c, 0, 50, 62
4, 107160, Note_on_c, 0, 50, 0
4, 107160, Note_on_c, 0, 38, 62
4, 107220, Note_on_c, 0, 38, 0
4, 107220, Note_on_c, 0, 50, 62
4, 107280, Note_on_c, 0, 50, 0
4, 107280, Note_on_c, 0, 38, 62
4, 107340, Note_on_c, 0, 38, 0
4, 107340, Note_on_c, 0, 50, 62
4, 107400, Note_on_c, 0, 50, 0
4, 107400, Note_on_c, 0, 38, 62
4, 107460, Note_on_c, 0, 38, 0
4, 107460, Note_on_c, 0, 50, 62
4, 107520, Note_on_c, 0, 50, 0
4, 107520, Note_on_c, 0, 38, 62
4, 107580, Note_on_c, 0, 38, 0
4, 107580, Note_on_c, 0, 50, 62
4, 107640, Note_on_c, 0, 50, 0
4, 107640, Note_on_c, 0, 38, 62
4, 107700, Note_on_c, 0, 38, 0
4, 107700, Note_on_c, 0, 50, 62
4, 107760, Note_on_c, 0, 50, 0
4, 107760, Note_on_c, 0, 38, 62
4, 107820, Note_on_c, 0, 38, 0
4, 107820, Note_on_c, 0, 50, 62
4, 107880, Note_on_c, 0, 50, 0
4, 107880, Note_on_c, 0, 38, 62
4, 107940, Note_on_c, 0, 38, 0
4, 107940, Note_on_c, 0, 50, 62
4, 108000, Note_on_c, 0, 50, 0
4, 108000, Note_on_c, 0, 38, 62
4, 108060, Note_on_c, 0, 38, 0
4, 108060, Note_on_c, 0, 50, 62
4, 108120, Note_on_c, 0, 50, 0
4, 108120, Note_on_c, 0, 38, 62
4, 108180, Note_on_c, 0, 38, 0
4, 108180, Note_on_c, 0, 50, 62
4, 108240, Note_on_c, 0, 50, 0
4, 108240, Note_on_c, 0, 38, 62
4, 108300, Note_on_c, 0, 38, 0
4, 108300, Note_on_c, 0, 50, 62
4, 108360, Note_on_c, 0, 50, 0
4, 108360, Note_on_c, 0, 38, 62
4, 108420, Note_on_c, 0, 38, 0
4, 108420, Control_c, 0, 64, 0
4, 108420, Note_on_c, 0, 50, 62
4, 108480, Note_on_c, 0, 50, 0
4, 108600, Control_c, 0, 64, 127
4, 108600, Note_on_c, 0, 49, 88
4, 108720, Note_on_c, 0, 49, 0
4, 108720, Note_on_c, 0, 50, 88
4, 108840, Note_on_c, 0, 50, 0
4, 108840, Note_on_c, 0, 51, 88
4, 108960, Note_on_c, 0, 51, 0
4, 108960, Note_on_c, 0, 52, 88
4, 109080, Note_on_c, 0, 52, 0
4, 109080, Note_on_c, 0, 53, 88
4, 109200, Note_on_c, 0, 53, 0
4, 109200, Note_on_c, 0, 54, 88
4, 109320, Note_on_c, 0, 54, 0
4, 109320, Control_c, 0, 64, 0
4, 109320, Note_on_c, 0, 55, 88
4, 109440, Note_on_c, 0, 55, 0
4, 109440, Control_c, 0, 64, 127
4, 109440, Note_on_c, 0, 56, 75
4, 109599, Note_on_c, 0, 56, 0
4, 109599, Note_on_c, 0, 55, 75
4, 109760, Note_on_c, 0, 55, 0
4, 109760, Note_on_c, 0, 54, 75
4, 109920, Note_on_c, 0, 54, 0
4, 109920, Note_on_c, 0, 53, 75
4, 110079, Note_on_c, 0, 53, 0
4, 110079, Note_on_c, 0, 52, 75
4, 110240, Note_on_c, 0, 52, 0
4, 110240, Control_c, 0, 64, 0
4, 110240, Note_on_c, 0, 53, 75
4, 110400, Note_on_c, 0, 53, 0
4, 110400, Control_c, 0, 64, 127
4, 110400, Note_on_c, 0, 59, 75
4, 110559, Note_on_c, 0, 59, 0
4, 110559, Note_on_c, 0, 58, 75
4, 110720, Note_on_c, 0, 58, 0
4, 110720, Note_on_c, 0, 57, 75
4, 110880, Note_on_c, 0, 57, 0
4, 110880, Note_on_c, 0, 56, 75
4, 111039, Note_on_c, 0, 56, 0
4, 111039, Note_on_c, 0, 55, 75
4, 111200, Note_on_c, 0, 55, 0
4, 111200, Control_c, 0, 64, 0
4, 111200, Note_on_c, 0, 56, 75
4, 111360, Note_on_c, 0, 56, 0
4, 111360, Control_c, 0, 64, 127
4, 111360, Note_on_c, 0, 62, 75
4, 111519, Note_on_c, 0, 62, 0
4, 111519, Note_on_c, 0, 61, 75
4, 111680, Note_on_c, 0, 61, 0
4, 111680, Note_on_c, 0, 60, 75
4, 111840, Note_on_c, 0, 60, 0
4, 111840, Note_on_c, 0, 59, 75
4, 111999, Note_on_c, 0, 59, 0
4, 111999, Note_on_c, 0, 58, 75
4, 112160, Note_on_c, 0, 58, 0
4, 112160, Control_c, 0, 64, 0
4, 112160, Note_on_c, 0, 59, 75
4, 112320, Note_on_c, 0, 59, 0
4, 112320, Control_c, 0, 64, 127
4, 112320, Note_on_c, 0, 65, 75
4, 112479, Note_on_c, 0, 65, 0
4, 112479, Note_on_c, 0, 64, 75
4, 112640, Note_on_c, 0, 64, 0
4, 112640, Note_on_c, 0, 63, 75
4, 112800, Note_on_c, 0, 63, 0
4, 112800, Note_on_c, 0, 62, 75
4, 112959, Note_on_c, 0, 62, 0
4, 112959, Note_on_c, 0, 61, 75
4, 113120, Note_on_c, 0, 61, 0
4, 113120, Control_c, 0, 64, 0
4, 113120, Note_on_c, 0, 62, 75
4, 113280, Note_on_c, 0, 62, 0
4, 113280, Note_on_c, 0, 68, 88
4, 113439, Note_on_c, 0, 68, 0
4, 113439, Note_on_c, 0, 65, 88
4, 113600, Note_on_c, 0, 65, 0
4, 113600, Note_on_c, 0, 68, 88
4, 113760, Note_on_c, 0, 68, 0
4, 113760, Note_on_c, 0, 68, 88
4, 113919, Note_on_c, 0, 68, 0
4, 113919, Note_on_c, 0, 65, 88
4, 114080, Note_on_c, 0, 65, 0
4, 114080, Note_on_c, 0, 68, 88
4, 114240, Note_on_c, 0, 68, 0
4, 114240, Note_on_c, 0, 68, 88
4, 114399, Note_on_c, 0, 68, 0
4, 114399, Note_on_c, 0, 65, 88
4, 114560, Note_on_c, 0, 65, 0
4, 114560, Note_on_c, 0, 68, 88
4, 114720, Note_on_c, 0, 68, 0
4, 114720, Note_on_c, 0, 68, 88
4, 114879, Note_on_c, 0, 68, 0
4, 114879, Note_on_c, 0, 65, 88
4, 115040, Note_on_c, 0, 65, 0
4, 115040, Note_on_c, 0, 68, 88
4, 115200, Note_on_c, 0, 68, 0
4, 115200, Note_on_c, 0, 53, 88
4, 115200, Note_on_c, 0, 56, 88
4, 115200, Note_on_c, 0, 59, 88
4, 115440, Note_on_c, 0, 59, 0
4, 115440, Note_on_c, 0, 56, 0
4, 115440, Note_on_c, 0, 53, 0
4, 116160, Note_on_c, 0, 56, 88
4, 116160, Note_on_c, 0, 59, 88
4, 116160, Note_on_c, 0, 62, 88
4, 117120, Note_on_c, 0, 62, 0
4, 117120, Note_on_c, 0, 59, 0
4, 117120, Note_on_c, 0, 56, 0
4, 117120, Note_on_c, 0, 59, 88
4, 117120, Note_on_c, 0, 62, 88
4, 117120, Note_on_c, 0, 65, 88
4, 117120, Note_on_c, 0, 68, 88
4, 118080, Note_on_c, 0, 68, 0
4, 118080, Note_on_c, 0, 59, 0
4, 118080, Note_on_c, 0, 62, 0
4, 118080, Note_on_c, 0, 65, 0
4, 118080, Note_on_c, 0, 65, 88
4, 118080, Note_on_c, 0, 68, 88
4, 118080, Note_on_c, 0, 71, 88
4, 118080, Note_on_c, 0, 77, 88
4, 118239, Note_on_c, 0, 77, 0
4, 118239, Note_on_c, 0, 65, 0
4, 118239, Note_on_c, 0, 68, 0
4, 118239, Note_on_c, 0, 71, 0
4, 118239, Note_on_c, 0, 65, 88
4, 118239, Note_on_c, 0, 68, 88
4, 118239, Note_on_c, 0, 71, 88
4, 118239, Note_on_c, 0, 77, 88
4, 118400, Note_on_c, 0, 77, 0
4, 118400, Note_on_c, 0, 65, 0
4, 118400, Note_on_c, 0, 68, 0
4, 118400, Note_on_c, 0, 71, 0
4, 118400, Note_on_c, 0, 65, 88
4, 118400, Note_on_c, 0, 68, 88
4, 118400, Note_on_c, 0, 71, 88
4, 118400, Note_on_c, 0, 77, 88
4, 118560, Note_on_c, 0, 77, 0
4, 118560, Note_on_c, 0, 65, 0
4, 118560, Note_on_c, 0, 68, 0
4, 118560, Note_on_c, 0, 71, 0
4, 118560, Note_on_c, 0, 65, 88
4, 118560, Note_on_c, 0, 68, 88
4, 118560, Note_on_c, 0, 71, 88
4, 118560, Note_on_c, 0, 77, 88
4, 118800, Note_on_c, 0, 77, 0
4, 118800, Note_on_c, 0, 65, 0
4, 118800, Note_on_c, 0, 68, 0
4, 118800, Note_on_c, 0, 71, 0
4, 120000, Note_on_c, 0, 56, 88
4, 120000, Note_on_c, 0, 59, 88
4, 120000, Note_on_c, 0, 62, 88
4, 120960, Note_on_c, 0, 62, 0
4, 120960, Note_on_c, 0, 59, 0
4, 120960, Note_on_c, 0, 56, 0
4, 120960, Note_on_c, 0, 59, 88
4, 120960, Note_on_c, 0, 62, 88
4, 120960, Note_on_c, 0, 65, 88
4, 120960, Note_on_c, 0, 68, 88
4, 121920, Note_on_c, 0, 68, 0
4, 121920, Note_on_c, 0, 59, 0
4, 121920, Note_on_c, 0, 62, 0
4, 121920, Note_on_c, 0, 65, 0
4, 121920, Note_on_c, 0, 65, 88
4, 121920, Note_on_c, 0, 68, 88
4, 121920, Note_on_c, 0, 71, 88
4, 121920, Note_on_c, 0, 77, 88
4, 122079, Note_on_c, 0, 77, 0
4, 122079, Note_on_c, 0, 65, 0
4, 122079, Note_on_c, 0, 68, 0
4, 122079, Note_on_c, 0, 71, 0
4, 122079, Note_on_c, 0, 65, 88
4, 122079, Note_on_c, 0, 68, 88
4, 122079, Note_on_c, 0, 71, 88
4, 122079, Note_on_c, 0, 77, 88
4, 122240, Note_on_c, 0, 77, 0
4, 122240, Note_on_c, 0, 65, 0
4, 122240, Note_on_c, 0, 68, 0
4, 122240, Note_on_c, 0, 71, 0
4, 122240, Note_on_c, 0, 65, 88
4, 122240, Note_on_c, 0, 68, 88
4, 122240, Note_on_c, 0, 71, 88
4, 122240, Note_on_c, 0, 77, 88
4, 122400, Note_on_c, 0, 77, 0
4, 122400, Note_on_c, 0, 65, 0
4, 122400, Note_on_c, 0, 68, 0
4, 122400, Note_on_c, 0, 71, 0
4, 122400, Note_on_c, 0, 65, 88
4, 122400, Note_on_c, 0, 68, 88
4, 122400, Note_on_c, 0, 71, 88
4, 122400, Note_on_c, 0, 77, 88
4, 122640, Note_on_c, 0, 77, 0
4, 122640, Note_on_c, 0, 65, 0
4, 122640, Note_on_c, 0, 68, 0
4, 122640, Note_on_c, 0, 71, 0
4, 123840, Note_on_c, 0, 55, 88
4, 123840, Note_on_c, 0, 58, 88
4, 123840, Note_on_c, 0, 64, 88
4, 124800, Note_on_c, 0, 64, 0
4, 124800, Note_on_c, 0, 58, 0
4, 124800, Note_on_c, 0, 55, 0
4, 124800, Note_on_c, 0, 58, 88
4, 124800, Note_on_c, 0, 64, 88
4, 124800, Note_on_c, 0, 67, 88
4, 125040, Note_on_c, 0, 67, 0
4, 125040, Note_on_c, 0, 64, 0
4, 125040, Note_on_c, 0, 58, 0
4, 125760, Note_on_c, 0, 64, 88
4, 125760, Note_on_c, 0, 67, 88
4, 125760, Note_on_c, 0, 70, 88
4, 125760, Note_on_c, 0, 76, 88
4, 125919, Note_on_c, 0, 76, 0
4, 125919, Note_on_c, 0, 64, 0
4, 125919, Note_on_c, 0, 67, 0
4, 125919, Note_on_c, 0, 70, 0
4, 125919, Note_on_c, 0, 64, 88
4, 125919, Note_on_c, 0, 67, 88
4, 125919, Note_on_c, 0, 70, 88
4, 125919, Note_on_c, 0, 76, 88
4, 126080, Note_on_c, 0, 76, 0
4, 126080, Note_on_c, 0, 64, 0
4, 126080, Note_on_c, 0, 67, 0
4, 126080, Note_on_c, 0, 70, 0
4, 126080, Note_on_c, 0, 64, 88
4, 126080, Note_on_c, 0, 67, 88
4, 126080, Note_on_c, 0, 70, 88
4, 126080, Note_on_c, 0, 76, 88
4, 126240, Note_on_c, 0, 76, 0
4, 126240, Note_on_c, 0, 64, 0
4, 126240, Note_on_c, 0, 67, 0
4, 126240, Note_on_c, 0, 70, 0
4, 126240, Note_on_c, 0, 64, 88
4, 126240, Note_on_c, 0, 67, 88
4, 126240, Note_on_c, 0, 70, 88
4, 126240, Note_on_c, 0, 76, 88
4, 126480, Note_on_c, 0, 76, 0
4, 126480, Note_on_c, 0, 64, 0
4, 126480, Note_on_c, 0, 67, 0
4, 126480, Note_on_c, 0, 70, 0
4, 127680, Note_on_c, 0, 55, 88
4, 127680, Note_on_c, 0, 58, 88
4, 127680, Note_on_c, 0, 64, 88
4, 128640, Note_on_c, 0, 64, 0
4, 128640, Note_on_c, 0, 58, 0
4, 128640, Note_on_c, 0, 55, 0
4, 128640, Note_on_c, 0, 58, 88
4, 128640, Note_on_c, 0, 64, 88
4, 128640, Note_on_c, 0, 67, 88
4, 129600, Note_on_c, 0, 67, 0
4, 129600, Note_on_c, 0, 64, 0
4, 129600, Note_on_c, 0, 58, 0
4, 129600, Note_on_c, 0, 64, 88
4, 129600, Note_on_c, 0, 67, 88
4, 129600, Note_on_c, 0, 70, 88
4, 129600, Note_on_c, 0, 76, 88
4, 129759, Note_on_c, 0, 76, 0
4, 129759, Note_on_c, 0, 64, 0
4, 129759, Note_on_c, 0, 67, 0
4, 129759, Note_on_c, 0, 70, 0
4, 129759, Note_on_c, 0, 64, 88
4, 129759, Note_on_c, 0, 67, 88
4, 129759, Note_on_c, 0, 70, 88
4, 129759, Note_on_c, 0, 76, 88
4, 129920, Note_on_c, 0, 76, 0
4, 129920, Note_on_c, 0, 64, 0
4, 129920, Note_on_c, 0, 67, 0
4, 129920, Note_on_c, 0, 70, 0
4, 129920, Note_on_c, 0, 64, 88
4, 129920, Note_on_c, 0, 67, 88
4, 129920, Note_on_c, 0, 70, 88
4, 129920, Note_on_c, 0, 76, 88
4, 130080, Note_on_c, 0, 76, 0
4, 130080, Note_on_c, 0, 64, 0
4, 130080, Note_on_c, 0, 67, 0
4, 130080, Note_on_c, 0, 70, 0
4, 130080, Note_on_c, 0, 64, 88
4, 130080, Note_on_c, 0, 67, 88
4, 130080, Note_on_c, 0, 70, 88
4, 130080, Note_on_c, 0, 76, 88
4, 130320, Note_on_c, 0, 76, 0
4, 130320, Note_on_c, 0, 64, 0
4, 130320, Note_on_c, 0, 67, 0
4, 130320, Note_on_c, 0, 70, 0
4, 130560, Control_c, 0, 64, 127
4, 130560, Note_on_c, 0, 37, 101
4, 130620, Note_on_c, 0, 37, 0
4, 130620, Note_on_c, 0, 49, 101
4, 130680, Note_on_c, 0, 49, 0
4, 130680, Note_on_c, 0, 37, 75
4, 130740, Note_on_c, 0, 37, 0
4, 130740, Note_on_c, 0, 49, 75
4, 130800, Note_on_c, 0, 49, 0
4, 130800, Note_on_c, 0, 37, 75
4, 130860, Note_on_c, 0, 37, 0
4, 130860, Note_on_c, 0, 49, 75
4, 130920, Note_on_c, 0, 49, 0
4, 130920, Note_on_c, 0, 37, 75
4, 130980, Note_on_c, 0, 37, 0
4, 130980, Note_on_c, 0, 49, 75
4, 131040, Note_on_c, 0, 49, 0
4, 131040, Note_on_c, 0, 37, 75
4, 131100, Note_on_c, 0, 37, 0
4, 131100, Note_on_c, 0, 49, 75
4, 131160, Note_on_c, 0, 49, 0
4, 131160, Note_on_c, 0, 37, 75
4, 131220, Note_on_c, 0, 37, 0
4, 131220, Note_on_c, 0, 49, 75
4, 131280, Note_on_c, 0, 49, 0
4, 131280, Note_on_c, 0, 37, 75
4, 131340, Note_on_c, 0, 37, 0
4, 131340, Note_on_c, 0, 49, 75
4, 131400, Note_on_c, 0, 49, 0
4, 131400, Note_on_c, 0, 37, 75
4, 131460, Note_on_c, 0, 37, 0
4, 131460, Note_on_c, 0, 49, 75
4, 131520, Note_on_c, 0, 49, 0
4, 131520, Note_on_c, 0, 37, 62
4, 131580, Note_on_c, 0, 37, 0
4, 131580, Note_on_c, 0, 49, 62
4, 131640, Note_on_c, 0, 49, 0
4, 131640, Note_on_c, 0, 37, 62
4, 131700, Note_on_c, 0, 37, 0
4, 131700, Note_on_c, 0, 49, 62
4, 131760, Note_on_c, 0, 49, 0
4, 131760, Note_on_c, 0, 37, 62
4, 131820, Note_on_c, 0, 37, 0
4, 131820, Note_on_c, 0, 49, 62
4, 131880, Note_on_c, 0, 49, 0
4, 131880, Note_on_c, 0, 37, 62
4, 131940, Note_on_c, 0, 37, 0
4, 131940, Note_on_c, 0, 49, 62
4, 132000, Note_on_c, 0, 49, 0
4, 132000, Note_on_c, 0, 37, 49
4, 132060, Note_on_c, 0, 37, 0
4, 132060, Note_on_c, 0, 49, 49
4, 132120, Note_on_c, 0, 49, 0
4, 132120, Note_on_c, 0, 37, 49
4, 132180, Note_on_c, 0, 37, 0
4, 132180, Note_on_c, 0, 49, 49
4, 132240, Note_on_c, 0, 49, 0
4, 132240, Note_on_c, 0, 37, 49
4, 132300, Note_on_c, 0, 37, 0
4, 132300, Note_on_c, 0, 49, 49
4, 132360, Note_on_c, 0, 49, 0
4, 132360, Note_on_c, 0, 37, 49
4, 132420, Note_on_c, 0, 37, 0
4, 132420, Note_on_c, 0, 49, 49
4, 132480, Note_on_c, 0, 49, 0
4, 132480, Note_on_c, 0, 37, 49
4, 132540, Note_on_c, 0, 37, 0
4, 132540, Note_on_c, 0, 49, 49
4, 132600, Note_on_c, 0, 49, 0
4, 132600, Note_on_c, 0, 37, 49
4, 132660, Note_on_c, 0, 37, 0
4, 132660, Note_on_c, 0, 49, 49
4, 132720, Note_on_c, 0, 49, 0
4, 132720, Note_on_c, 0, 37, 49
4, 132780, Note_on_c, 0, 37, 0
4, 132780, Note_on_c, 0, 49, 49
4, 132840, Note_on_c, 0, 49, 0
4, 132840, Note_on_c, 0, 37, 49
4, 132900, Note_on_c, 0, 37, 0
4, 132900, Note_on_c, 0, 49, 49
4, 132960, Note_on_c, 0, 49, 0
4, 132960, Note_on_c, 0, 37, 49
4, 133020, Note_on_c, 0, 37, 0
4, 133020, Note_on_c, 0, 49, 49
4, 133080, Note_on_c, 0, 49, 0
4, 133080, Note_on_c, 0, 37, 49
4, 133140, Note_on_c, 0, 37, 0
4, 133140, Note_on_c, 0, 49, 49
4, 133200, Note_on_c, 0, 49, 0
4, 133200, Note_on_c, 0, 37, 49
4, 133260, Note_on_c, 0, 37, 0
4, 133260, Note_on_c, 0, 49, 49
4, 133320, Note_on_c, 0, 49, 0
4, 133320, Note_on_c, 0, 37, 49
4, 133380, Note_on_c, 0, 37, 0
4, 133380, Note_on_c, 0, 49, 49
4, 133440, Note_on_c, 0, 49, 0
4, 133440, Note_on_c, 0, 37, 49
4, 133500, Note_on_c, 0, 37, 0
4, 133500, Note_on_c, 0, 49, 49
4, 133560, Note_on_c, 0, 49, 0
4, 133560, Note_on_c, 0, 37, 49
4, 133620, Note_on_c, 0, 37, 0
4, 133620, Note_on_c, 0, 49, 49
4, 133680, Note_on_c, 0, 49, 0
4, 133680, Note_on_c, 0, 37, 49
4, 133740, Note_on_c, 0, 37, 0
4, 133740, Note_on_c, 0, 49, 49
4, 133800, Note_on_c, 0, 49, 0
4, 133800, Note_on_c, 0, 37, 49
4, 133860, Note_on_c, 0, 37, 0
4, 133860, Note_on_c, 0, 49, 49
4, 133920, Note_on_c, 0, 49, 0
4, 133920, Note_on_c, 0, 37, 49
4, 133980, Note_on_c, 0, 37, 0
4, 133980, Note_on_c, 0, 49, 49
4, 134040, Note_on_c, 0, 49, 0
4, 134040, Note_on_c, 0, 37, 49
4, 134100, Note_on_c, 0, 37, 0
4, 134100, Note_on_c, 0, 49, 49
4, 134160, Note_on_c, 0, 49, 0
4, 134160, Note_on_c, 0, 37, 49
4, 134220, Note_on_c, 0, 37, 0
4, 134220, Note_on_c, 0, 49, 49
4, 134280, Note_on_c, 0, 49, 0
4, 134280, Note_on_c, 0, 37, 49
4, 134340, Note_on_c, 0, 37, 0
4, 134340, Note_on_c, 0, 49, 49
4, 134400, Note_on_c, 0, 49, 0
4, 134400, Note_on_c, 0, 37, 62
4, 134460, Note_on_c, 0, 37, 0
4, 134460, Note_on_c, 0, 49, 62
4, 134520, Note_on_c, 0, 49, 0
4, 134520, Note_on_c, 0, 37, 62
4, 134580, Note_on_c, 0, 37, 0
4, 134580, Note_on_c, 0, 49, 62
4, 134640, Note_on_c, 0, 49, 0
4, 134640, Note_on_c, 0, 37, 62
4, 134700, Note_on_c, 0, 37, 0
4, 134700, Note_on_c, 0, 49, 62
4, 134760, Note_on_c, 0, 49, 0
4, 134760, Note_on_c, 0, 37, 62
4, 134820, Note_on_c, 0, 37, 0
4, 134820, Note_on_c, 0, 49, 62
4, 134880, Note_on_c, 0, 49, 0
4, 134880, Note_on_c, 0, 37, 62
4, 134940, Note_on_c, 0, 37, 0
4, 134940, Note_on_c, 0, 49, 62
4, 135000, Note_on_c, 0, 49, 0
4, 135000, Note_on_c, 0, 37, 62
4, 135060, Note_on_c, 0, 37, 0
4, 135060, Note_on_c, 0, 49, 62
4, 135120, Note_on_c, 0, 49, 0
4, 135120, Note_on_c, 0, 37, 62
4, 135180, Note_on_c, 0, 37, 0
4, 135180, Note_on_c, 0, 49, 62
4, 135240, Note_on_c, 0, 49, 0
4, 135240, Note_on_c, 0, 37, 62
4, 135300, Note_on_c, 0, 37, 0
4, 135300, Note_on_c, 0, 49, 62
4, 135360, Note_on_c, 0, 49, 0
4, 135360, Note_on_c, 0, 37, 62
4, 135420, Note_on_c, 0, 37, 0
4, 135420, Note_on_c, 0, 49, 62
4, 135480, Note_on_c, 0, 49, 0
4, 135480, Note_on_c, 0, 37, 62
4, 135540, Note_on_c, 0, 37, 0
4, 135540, Note_on_c, 0, 49, 62
4, 135600, Note_on_c, 0, 49, 0
4, 135600, Note_on_c, 0, 37, 62
4, 135660, Note_on_c, 0, 37, 0
4, 135660, Note_on_c, 0, 49, 62
4, 135720, Note_on_c, 0, 49, 0
4, 135720, Note_on_c, 0, 37, 62
4, 135780, Note_on_c, 0, 37, 0
4, 135780, Note_on_c, 0, 49, 62
4, 135840, Note_on_c, 0, 49, 0
4, 135840, Note_on_c, 0, 37, 62
4, 135900, Note_on_c, 0, 37, 0
4, 135900, Note_on_c, 0, 49, 62
4, 135960, Note_on_c, 0, 49, 0
4, 135960, Note_on_c, 0, 37, 62
4, 136020, Note_on_c, 0, 37, 0
4, 136020, Note_on_c, 0, 49, 62
4, 136080, Note_on_c, 0, 49, 0
4, 136080, Note_on_c, 0, 37, 62
4, 136140, Note_on_c, 0, 37, 0
4, 136140, Note_on_c, 0, 49, 62
4, 136200, Note_on_c, 0, 49, 0
4, 136200, Note_on_c, 0, 37, 62
4, 136260, Note_on_c, 0, 37, 0
4, 136260, Control_c, 0, 64, 0
4, 136260, Note_on_c, 0, 49, 62
4, 136320, Note_on_c, 0, 49, 0
4, 136800, Note_on_c, 0, 64, 75
4, 136959, Note_on_c, 0, 64, 0
4, 136959, Note_on_c, 0, 61, 75
4, 137120, Note_on_c, 0, 61, 0
4, 137120, Note_on_c, 0, 64, 75
4, 137280, Note_on_c, 0, 64, 0
4, 137400, Control_c, 0, 64, 127
4, 137400, Note_on_c, 0, 48, 75
4, 137520, Note_on_c, 0, 48, 0
4, 137520, Note_on_c, 0, 49, 75
4, 137640, Note_on_c, 0, 49, 0
4, 137640, Note_on_c, 0, 50, 75
4, 137760, Note_on_c, 0, 50, 0
4, 137760, Note_on_c, 0, 51, 75
4, 137880, Note_on_c, 0, 51, 0
4, 137880, Note_on_c, 0, 52, 75
4, 138000, Note_on_c, 0, 52, 0
4, 138000, Note_on_c, 0, 53, 75
4, 138120, Note_on_c, 0, 53, 0
4, 138120, Control_c, 0, 64, 0
4, 138120, Note_on_c, 0, 54, 75
4, 138240, Note_on_c, 0, 54, 0
4, 138240, Control_c, 0, 64, 127
4, 138240, Note_on_c, 0, 55, 75
4, 138399, Note_on_c, 0, 55, 0
4, 138399, Note_on_c, 0, 54, 75
4, 138560, Note_on_c, 0, 54, 0
4, 138560, Note_on_c, 0, 53, 75
4, 138720, Note_on_c, 0, 53, 0
4, 138720, Note_on_c, 0, 52, 75
4, 138879, Note_on_c, 0, 52, 0
4, 138879, Note_on_c, 0, 51, 75
4, 139040, Note_on_c, 0, 51, 0
4, 139040, Control_c, 0, 64, 0
4, 139040, Note_on_c, 0, 52, 75
4, 139200, Note_on_c, 0, 52, 0
4, 139200, Control_c, 0, 64, 127
4, 139200, Note_on_c, 0, 58, 75
4, 139359, Note_on_c, 0, 58, 0
4, 139359, Note_on_c, 0, 57, 75
4, 139520, Note_on_c, 0, 57, 0
4, 139520, Note_on_c, 0, 56, 75
4, 139680, Note_on_c, 0, 56, 0
4, 139680, Note_on_c, 0, 55, 75
4, 139839, Note_on_c, 0, 55, 0
4, 139839, Note_on_c, 0, 54, 75
4, 140000, Note_on_c, 0, 54, 0
4, 140000, Control_c, 0, 64, 0
4, 140000, Note_on_c, 0, 55, 75
4, 140160, Note_on_c, 0, 55, 0
4, 140160, Control_c, 0, 64, 127
4, 140160, Note_on_c, 0, 61, 75
4, 140319, Note_on_c, 0, 61, 0
4, 140319, Note_on_c, 0, 60, 75
4, 140480, Note_on_c, 0, 60, 0
4, 140480, Note_on_c, 0, 59, 75
4, 140640, Note_on_c, 0, 59, 0
4, 140640, Note_on_c, 0, 58, 75
4, 140799, Note_on_c, 0, 58, 0
4, 140799, Note_on_c, 0, 57, 75
4, 140960, Note_on_c, 0, 57, 0
4, 140960, Control_c, 0, 64, 0
4, 140960, Note_on_c, 0, 58, 75
4, 141120, Note_on_c, 0, 58, 0
4, 141120, Control_c, 0, 64, 127
4, 141120, Note_on_c, 0, 64, 75
4, 141279, Note_on_c, 0, 64, 0
4, 141279, Note_on_c, 0, 63, 75
4, 141440, Note_on_c, 0, 63, 0
4, 141440, Note_on_c, 0, 62, 75
4, 141600, Note_on_c, 0, 62, 0
4, 141600, Note_on_c, 0, 61, 75
4, 141759, Note_on_c, 0, 61, 0
4, 141759, Note_on_c, 0, 60, 75
4, 141920, Note_on_c, 0, 60, 0
4, 141920, Control_c, 0, 64, 0
4, 141920, Note_on_c, 0, 61, 75
4, 142080, Note_on_c, 0, 61, 0
4, 142560, Note_on_c, 0, 67, 88
4, 142719, Note_on_c, 0, 67, 0
4, 142719, Note_on_c, 0, 64, 88
4, 142880, Note_on_c, 0, 64, 0
4, 142880, Note_on_c, 0, 67, 88
4, 143040, Note_on_c, 0, 67, 0
4, 143040, Note_on_c, 0, 67, 88
4, 143199, Note_on_c, 0, 67, 0
4, 143199, Note_on_c, 0, 64, 88
4, 143360, Note_on_c, 0, 64, 0
4, 143360, Note_on_c, 0, 67, 88
4, 143520, Note_on_c, 0, 67, 0
4, 143520, Note_on_c, 0, 67, 88
4, 143679, Note_on_c, 0, 67, 0
4, 143679, Note_on_c, 0, 64, 88
4, 143840, Note_on_c, 0, 64, 0
4, 143840, Note_on_c, 0, 67, 88
4, 144000, Note_on_c, 0, 67, 0
4, 144960, Note_on_c, 0, 55, 88
4, 144960, Note_on_c, 0, 58, 88
4, 144960, Note_on_c, 0, 64, 88
4, 145920, Note_on_c, 0, 64, 0
4, 145920, Note_on_c, 0, 58, 0
4, 145920, Note_on_c, 0, 55, 0
4, 145920, Note_on_c, 0, 58, 88
4, 145920, Note_on_c, 0, 64, 88
4, 145920, Note_on_c, 0, 67, 88
4, 146880, Note_on_c, 0, 67, 0
4, 146880, Note_on_c, 0, 64, 0
4, 146880, Note_on_c, 0, 58, 0
4, 146880, Note_on_c, 0, 64, 88
4, 146880, Note_on_c, 0, 67, 88
4, 146880, Note_on_c, 0, 70, 88
4, 146880, Note_on_c, 0, 76, 88
4, 147039, Note_on_c, 0, 76, 0
4, 147039, Note_on_c, 0, 64, 0
4, 147039, Note_on_c, 0, 67, 0
4, 147039, Note_on_c, 0, 70, 0
4, 147039, Note_on_c, 0, 64, 88
4, 147039, Note_on_c, 0, 67, 88
4, 147039, Note_on_c, 0, 70, 88
4, 147039, Note_on_c, 0, 76, 88
4, 147200, Note_on_c, 0, 76, 0
4, 147200, Note_on_c, 0, 64, 0
4, 147200, Note_on_c, 0, 67, 0
4, 147200, Note_on_c, 0, 70, 0
4, 147200, Note_on_c, 0, 64, 88
4, 147200, Note_on_c, 0, 67, 88
4, 147200, Note_on_c, 0, 70, 88
4, 147200, Note_on_c, 0, 76, 88
4, 147360, Note_on_c, 0, 76, 0
4, 147360, Note_on_c, 0, 64, 0
4, 147360, Note_on_c, 0, 67, 0
4, 147360, Note_on_c, 0, 70, 0
4, 147360, Note_on_c, 0, 64, 88
4, 147360, Note_on_c, 0, 67, 88
4, 147360, Note_on_c, 0, 70, 88
4, 147360, Note_on_c, 0, 76, 88
4, 147600, Note_on_c, 0, 76, 0
4, 147600, Note_on_c, 0, 64, 0
4, 147600, Note_on_c, 0, 67, 0
4, 147600, Note_on_c, 0, 70, 0
4, 148800, Note_on_c, 0, 55, 88
4, 148800, Note_on_c, 0, 58, 88
4, 148800, Note_on_c, 0, 64, 88
4, 149760, Note_on_c, 0, 64, 0
4, 149760, Note_on_c, 0, 58, 0
4, 149760, Note_on_c, 0, 55, 0
4, 149760, Note_on_c, 0, 55, 88
4, 149760, Note_on_c, 0, 58, 88
4, 149760, Note_on_c, 0, 64, 88
4, 149760, Note_on_c, 0, 67, 88
4, 150720, Note_on_c, 0, 67, 0
4, 150720, Note_on_c, 0, 55, 0
4, 150720, Note_on_c, 0, 58, 0
4, 150720, Note_on_c, 0, 64, 0
4, 150720, Note_on_c, 0, 64, 88
4, 150720, Note_on_c, 0, 67, 88
4, 150720, Note_on_c, 0, 70, 88
4, 150720, Note_on_c, 0, 76, 88
4, 150879, Note_on_c, 0, 76, 0
4, 150879, Note_on_c, 0, 64, 0
4, 150879, Note_on_c, 0, 67, 0
4, 150879, Note_on_c, 0, 70, 0
4, 150879, Note_on_c, 0, 64, 88
4, 150879, Note_on_c, 0, 67, 88
4, 150879, Note_on_c, 0, 70, 88
4, 150879, Note_on_c, 0, 76, 88
4, 151040, Note_on_c, 0, 76, 0
4, 151040, Note_on_c, 0, 64, 0
4, 151040, Note_on_c, 0, 67, 0
4, 151040, Note_on_c, 0, 70, 0
4, 151040, Note_on_c, 0, 64, 88
4, 151040, Note_on_c, 0, 67, 88
4, 151040, Note_on_c, 0, 70, 88
4, 151040, Note_on_c, 0, 76, 88
4, 151200, Note_on_c, 0, 76, 0
4, 151200, Note_on_c, 0, 64, 0
4, 151200, Note_on_c, 0, 67, 0
4, 151200, Note_on_c, 0, 70, 0
4, 151200, Note_on_c, 0, 64, 88
4, 151200, Note_on_c, 0, 67, 88
4, 151200, Note_on_c, 0, 70, 88
4, 151200, Note_on_c, 0, 76, 88
4, 151440, Note_on_c, 0, 76, 0
4, 151440, Note_on_c, 0, 64, 0
4, 151440, Note_on_c, 0, 67, 0
4, 151440, Note_on_c, 0, 70, 0
4, 152640, Note_on_c, 0, 54, 88
4, 152640, Note_on_c, 0, 58, 88
4, 152640, Note_on_c, 0, 64, 88
4, 153600, Note_on_c, 0, 64, 0
4, 153600, Note_on_c, 0, 58, 0
4, 153600, Note_on_c, 0, 54, 0
4, 153600, Note_on_c, 0, 58, 88
4, 153600, Note_on_c, 0, 64, 88
4, 153600, Note_on_c, 0, 66, 88
4, 154560, Note_on_c, 0, 66, 0
4, 154560, Note_on_c, 0, 64, 0
4, 154560, Note_on_c, 0, 58, 0
4, 154560, Note_on_c, 0, 64, 88
4, 154560, Note_on_c, 0, 66, 88
4, 154560, Note_on_c, 0, 70, 88
4, 154560, Note_on_c, 0, 76, 88
4, 154719, Note_on_c, 0, 76, 0
4, 154719, Note_on_c, 0, 64, 0
4, 154719, Note_on_c, 0, 66, 0
4, 154719, Note_on_c, 0, 70, 0
4, 154719, Note_on_c, 0, 64, 88
4, 154719, Note_on_c, 0, 66, 88
4, 154719, Note_on_c, 0, 70, 88
4, 154719, Note_on_c, 0, 76, 88
4, 154880, Note_on_c, 0, 76, 0
4, 154880, Note_on_c, 0, 64, 0
4, 154880, Note_on_c, 0, 66, 0
4, 154880, Note_on_c, 0, 70, 0
4, 154880, Note_on_c, 0, 64, 88
4, 154880, Note_on_c, 0, 66, 88
4, 154880, Note_on_c, 0, 70, 88
4, 154880, Note_on_c, 0, 76, 88
4, 155040, Note_on_c, 0, 76, 0
4, 155040, Note_on_c, 0, 64, 0
4, 155040, Note_on_c, 0, 66, 0
4, 155040, Note_on_c, 0, 70, 0
4, 155040, Note_on_c, 0, 64, 88
4, 155040, Note_on_c, 0, 66, 88
4, 155040, Note_on_c, 0, 70, 88
4, 155040, Note_on_c, 0, 76, 88
4, 155280, Note_on_c, 0, 76, 0
4, 155280, Note_on_c, 0, 64, 0
4, 155280, Note_on_c, 0, 66, 0
4, 155280, Note_on_c, 0, 70, 0
4, 156480, Note_on_c, 0, 54, 88
4, 156480, Note_on_c, 0, 58, 88
4, 156480, Note_on_c, 0, 64, 88
4, 157440, Note_on_c, 0, 64, 0
4, 157440, Note_on_c, 0, 58, 0
4, 157440, Note_on_c, 0, 54, 0
4, 157440, Note_on_c, 0, 58, 88
4, 157440, Note_on_c, 0, 64, 88
4, 157440, Note_on_c, 0, 66, 88
4, 158400, Note_on_c, 0, 66, 0
4, 158400, Note_on_c, 0, 64, 0
4, 158400, Note_on_c, 0, 58, 0
4, 158400, Note_on_c, 0, 64, 88
4, 158400, Note_on_c, 0, 66, 88
4, 158400, Note_on_c, 0, 70, 88
4, 158400, Note_on_c, 0, 76, 88
4, 158559, Note_on_c, 0, 76, 0
4, 158559, Note_on_c, 0, 64, 0
4, 158559, Note_on_c, 0, 66, 0
4, 158559, Note_on_c, 0, 70, 0
4, 158559, Note_on_c, 0, 64, 88
4, 158559, Note_on_c, 0, 66, 88
4, 158559, Note_on_c, 0, 70, 88
4, 158559, Note_on_c, 0, 76, 88
4, 158720, Note_on_c, 0, 76, 0
4, 158720, Note_on_c, 0, 64, 0
4, 158720, Note_on_c, 0, 66, 0
4, 158720, Note_on_c, 0, 70, 0
4, 158720, Note_on_c, 0, 64, 88
4, 158720, Note_on_c, 0, 66, 88
4, 158720, Note_on_c, 0, 70, 88
4, 158720, Note_on_c, 0, 76, 88
4, 158880, Note_on_c, 0, 76, 0
4, 158880, Note_on_c, 0, 64, 0
4, 158880, Note_on_c, 0, 66, 0
4, 158880, Note_on_c, 0, 70, 0
4, 158880, Note_on_c, 0, 64, 88
4, 158880, Note_on_c, 0, 66, 88
4, 158880, Note_on_c, 0, 70, 88
4, 158880, Note_on_c, 0, 76, 88
4, 159120, Note_on_c, 0, 76, 0
4, 159120, Note_on_c, 0, 64, 0
4, 159120, Note_on_c, 0, 66, 0
4, 159120, Note_on_c, 0, 70, 0
4, 159360, Note_on_c, 0, 47, 88
4, 159519, Note_on_c, 0, 47, 0
4, 159519, Note_on_c, 0, 46, 88
4, 159680, Note_on_c, 0, 46, 0
4, 159680, Note_on_c, 0, 38, 88
4, 159680, Note_on_c, 0, 47, 88
4, 159840, Note_on_c, 0, 47, 0
4, 159840, Note_on_c, 0, 38, 0
4, 159840, Note_on_c, 0, 39, 88
4, 159999, Note_on_c, 0, 39, 0
4, 159999, Note_on_c, 0, 38, 88
4, 160160, Note_on_c, 0, 38, 0
4, 160160, Note_on_c, 0, 39, 88
4, 160320, Note_on_c, 0, 39, 0
4, 160320, Note_on_c, 0, 40, 88
4, 160479, Note_on_c, 0, 40, 0
4, 160479, Note_on_c, 0, 39, 88
4, 160640, Note_on_c, 0, 39, 0
4, 160640, Note_on_c, 0, 40, 88
4, 160800, Note_on_c, 0, 40, 0
4, 160800, Note_on_c, 0, 41, 88
4, 160959, Note_on_c, 0, 41, 0
4, 160959, Note_on_c, 0, 40, 88
4, 161120, Note_on_c, 0, 40, 0
4, 161120, Note_on_c, 0, 41, 88
4, 161280, Note_on_c, 0, 41, 0
4, 161280, Note_on_c, 0, 42, 88
4, 161439, Note_on_c, 0, 42, 0
4, 161439, Note_on_c, 0, 41, 88
4, 161600, Note_on_c, 0, 41, 0
4, 161600, Note_on_c, 0, 42, 88
4, 161760, Note_on_c, 0, 42, 0
4, 161760, Note_on_c, 0, 43, 88
4, 161919, Note_on_c, 0, 43, 0
4, 161919, Note_on_c, 0, 42, 88
4, 162080, Note_on_c, 0, 42, 0
4, 162080, Note_on_c, 0, 43, 88
4, 162240, Note_on_c, 0, 43, 0
4, 162240, Note_on_c, 0, 44, 88
4, 162399, Note_on_c, 0, 44, 0
4, 162399, Note_on_c, 0, 43, 88
4, 162560, Note_on_c, 0, 43, 0
4, 162560, Note_on_c, 0, 44, 88
4, 162720, Note_on_c, 0, 44, 0
4, 162720, Note_on_c, 0, 45, 88
4, 162879, Note_on_c, 0, 45, 0
4, 162879, Note_on_c, 0, 44, 88
4, 163040, Note_on_c, 0, 44, 0
4, 163040, Note_on_c, 0, 45, 88
4, 163200, Note_on_c, 0, 45, 0
4, 163200, Note_on_c, 0, 51, 88
4, 163520, Note_on_c, 0, 51, 0
4, 163520, Note_on_c, 0, 51, 88
4, 163680, Note_on_c, 0, 51, 0
4, 163680, Note_on_c, 0, 51, 88
4, 163839, Note_on_c, 0, 51, 0
4, 163839, Note_on_c, 0, 50, 88
4, 164000, Note_on_c, 0, 50, 0
4, 164000, Note_on_c, 0, 51, 88
4, 164160, Note_on_c, 0, 51, 0
4, 164160, Note_on_c, 0, 59, 88
4, 165120, Note_on_c, 0, 59, 0
4, 165120, Note_on_c, 0, 59, 88
4, 165960, Note_on_c, 0, 59, 0
4, 165960, Note_on_c, 0, 59, 88
4, 166080, Note_on_c, 0, 59, 0
4, 166080, Note_on_c, 0, 59, 88
4, 167040, Note_on_c, 0, 59, 0
4, 167520, Note_on_c, 0, 47, 88
4, 167520, Note_on_c, 0, 59, 88
4, 168000, Note_on_c, 0, 59, 0
4, 168000, Note_on_c, 0, 47, 0
4, 168000, Note_on_c, 0, 47, 88
4, 168000, Note_on_c, 0, 59, 88
4, 168360, Note_on_c, 0, 59, 0
4, 168360, Note_on_c, 0, 47, 0
4, 168360, Note_on_c, 0, 47, 88
4, 168360, Note_on_c, 0, 59, 88
4, 168480, Note_on_c, 0, 59, 0
4, 168480, Note_on_c, 0, 47, 0
4, 168480, Note_on_c, 0, 47, 88
4, 168480, Note_on_c, 0, 59, 88
4, 168960, Note_on_c, 0, 59, 0
4, 168960, Note_on_c, 0, 47, 0
4, 169440, Note_on_c, 0, 47, 88
4, 169440, Note_on_c, 0, 59, 88
4, 169920, Note_on_c, 0, 59, 0
4, 169920, Note_on_c, 0, 47, 0
4, 169920, Note_on_c, 0, 47, 88
4, 169920, Note_on_c, 0, 59, 88
4, 170280, Note_on_c, 0, 59, 0
4, 170280, Note_on_c, 0, 47, 0
4, 170280, Note_on_c, 0, 47, 88
4, 170280, Note_on_c, 0, 59, 88
4, 170400, Note_on_c, 0, 59, 0
4, 170400, Note_on_c, 0, 47, 0
4, 170400, Note_on_c, 0, 47, 88
4, 170400, Note_on_c, 0, 59, 88
4, 170880, Note_on_c, 0, 59, 0
4, 170880, Note_on_c, 0, 47, 0
4, 171360, Note_on_c, 0, 47, 88
4, 171360, Note_on_c, 0, 59, 88
4, 171840, Note_on_c, 0, 59, 0
4, 171840, Note_on_c, 0, 47, 0
4, 171840, Note_on_c, 0, 59, 88
4, 171840, Note_on_c, 0, 71, 88
4, 172200, Note_on_c, 0, 71, 0
4, 172200, Note_on_c, 0, 59, 0
4, 172200, Note_on_c, 0, 59, 88
4, 172200, Note_on_c, 0, 71, 88
4, 172320, Note_on_c, 0, 71, 0
4, 172320, Note_on_c, 0, 59, 0
4, 172320, Note_on_c, 0, 59, 88
4, 172320, Note_on_c, 0, 71, 88
4, 172800, Note_on_c, 0, 71, 0
4, 172800, Note_on_c, 0, 59, 0
4, 173280, Note_on_c, 0, 47, 88
4, 173280, Note_on_c, 0, 59, 88
4, 173760, Note_on_c, 0, 59, 0
4, 173760, Note_on_c, 0, 47, 0
4, 173760, Note_on_c, 0, 59, 88
4, 173760, Note_on_c, 0, 71, 88
4, 174120, Note_on_c, 0, 71, 0
4, 174120, Note_on_c, 0, 59, 0
4, 174120, Note_on_c, 0, 59, 88
4, 174120, Note_on_c, 0, 71, 88
4, 174240, Note_on_c, 0, 71, 0
4, 174240, Note_on_c, 0, 59, 0
4, 174240, Note_on_c, 0, 59, 88
4, 174240, Note_on_c, 0, 71, 88
4, 174720, Note_on_c, 0, 71, 0
4, 174720, Note_on_c, 0, 59, 0
4, 174960, Note_on_c, 0, 35, 88
4, 174960, Note_on_c, 0, 47, 88
4, 175200, Note_on_c, 0, 47, 0
4, 175200, Note_on_c, 0, 35, 0
4, 175200, Note_on_c, 0, 35, 88
4, 175200, Note_on_c, 0, 47, 88
4, 175440, Note_on_c, 0, 47, 0
4, 175440, Note_on_c, 0, 35, 0
4, 175440, Note_on_c, 0, 35, 88
4, 175440, Note_on_c, 0, 47, 88
4, 175680, Note_on_c, 0, 47, 0
4, 175680, Note_on_c, 0, 35, 0
4, 175920, Note_on_c, 0, 35, 88
4, 175920, Note_on_c, 0, 47, 88
4, 176160, Note_on_c, 0, 47, 0
4, 176160, Note_on_c, 0, 35, 0
4, 176160, Note_on_c, 0, 35, 88
4, 176160, Note_on_c, 0, 47, 88
4, 176400, Note_on_c, 0, 47, 0
4, 176400, Note_on_c, 0, 35, 0
4, 176400, Note_on_c, 0, 35, 88
4, 176400, Note_on_c, 0, 47, 88
4, 176640, Note_on_c, 0, 47, 0
4, 176640, Note_on_c, 0, 35, 0
4, 176880, Note_on_c, 0, 35, 88
4, 176880, Note_on_c, 0, 47, 88
4, 177120, Note_on_c, 0, 47, 0
4, 177120, Note_on_c, 0, 35, 0
4, 177120, Note_on_c, 0, 35, 88
4, 177120, Note_on_c, 0, 47, 88
4, 177360, Note_on_c, 0, 47, 0
4, 177360, Note_on_c, 0, 35, 0
4, 177360, Note_on_c, 0, 35, 88
4, 177360, Note_on_c, 0, 47, 88
4, 177600, Note_on_c, 0, 47, 0
4, 177600, Note_on_c, 0, 35, 0
4, 177840, Note_on_c, 0, 35, 88
4, 177840, Note_on_c, 0, 47, 88
4, 178080, Note_on_c, 0, 47, 0
4, 178080, Note_on_c, 0, 35, 0
4, 178080, Note_on_c, 0, 35, 88
4, 178080, Note_on_c, 0, 47, 88
4, 178320, Note_on_c, 0, 47, 0
4, 178320, Note_on_c, 0, 35, 0
4, 178320, Note_on_c, 0, 35, 88
4, 178320, Note_on_c, 0, 47, 88
4, 178560, Note_on_c, 0, 47, 0
4, 178560, Note_on_c, 0, 35, 0
4, 179040, Note_on_c, 0, 54, 88
4, 179040, Note_on_c, 0, 57, 88
4, 179040, Note_on_c, 0, 63, 88
4, 179040, Note_on_c, 0, 66, 88
4, 179520, Note_on_c, 0, 66, 0
4, 179520, Note_on_c, 0, 54, 0
4, 179520, Note_on_c, 0, 57, 0
4, 179520, Note_on_c, 0, 63, 0
4, 179520, Note_on_c, 0, 54, 88
4, 179520, Note_on_c, 0, 57, 88
4, 179520, Note_on_c, 0, 63, 88
4, 179520, Note_on_c, 0, 66, 88
4, 179880, Note_on_c, 0, 66, 0
4, 179880, Note_on_c, 0, 54, 0
4, 179880, Note_on_c, 0, 57, 0
4, 179880, Note_on_c, 0, 63, 0
4, 179880, Note_on_c, 0, 54, 88
4, 179880, Note_on_c, 0, 57, 88
4, 179880, Note_on_c, 0, 63, 88
4, 179880, Note_on_c, 0, 66, 88
4, 180000, Note_on_c, 0, 66, 0
4, 180000, Note_on_c, 0, 54, 0
4, 180000, Note_on_c, 0, 57, 0
4, 180000, Note_on_c, 0, 63, 0
4, 180000, Note_on_c, 0, 54, 88
4, 180000, Note_on_c, 0, 57, 88
4, 180000, Note_on_c, 0, 63, 88
4, 180000, Note_on_c, 0, 66, 88
4, 180480, Note_on_c, 0, 66, 0
4, 180480, Note_on_c, 0, 54, 0
4, 180480, Note_on_c, 0, 57, 0
4, 180480, Note_on_c, 0, 63, 0
4, 180960, Note_on_c, 0, 54, 88
4, 180960, Note_on_c, 0, 57, 88
4, 180960, Note_on_c, 0, 63, 88
4, 180960, Note_on_c, 0, 66, 88
4, 181440, Note_on_c, 0, 66, 0
4, 181440, Note_on_c, 0, 54, 0
4, 181440, Note_on_c, 0, 57, 0
4, 181440, Note_on_c, 0, 63, 0
4, 181440, Note_on_c, 0, 54, 88
4, 181440, Note_on_c, 0, 57, 88
4, 181440, Note_on_c, 0, 63, 88
4, 181440, Note_on_c, 0, 66, 88
4, 181800, Note_on_c, 0, 66, 0
4, 181800, Note_on_c, 0, 54, 0
4, 181800, Note_on_c, 0, 57, 0
4, 181800, Note_on_c, 0, 63, 0
4, 181800, Note_on_c, 0, 54, 88
4, 181800, Note_on_c, 0, 57, 88
4, 181800, Note_on_c, 0, 63, 88
4, 181800, Note_on_c, 0, 66, 88
4, 181920, Note_on_c, 0, 66, 0
4, 181920, Note_on_c, 0, 54, 0
4, 181920, Note_on_c, 0, 57, 0
4, 181920, Note_on_c, 0, 63, 0
4, 181920, Note_on_c, 0, 54, 88
4, 181920, Note_on_c, 0, 57, 88
4, 181920, Note_on_c, 0, 63, 88
4, 181920, Note_on_c, 0, 66, 88
4, 182400, Note_on_c, 0, 66, 0
4, 182400, Note_on_c, 0, 54, 0
4, 182400, Note_on_c, 0, 57, 0
4, 182400, Note_on_c, 0, 63, 0
4, 182400, Control_c, 0, 64, 127
4, 182400, Note_on_c, 0, 35, 114
4, 182460, Note_on_c, 0, 35, 0
4, 182460, Note_on_c, 0, 47, 114
4, 182520, Note_on_c, 0, 47, 0
4, 182520, Note_on_c, 0, 35, 88
4, 182580, Note_on_c, 0, 35, 0
4, 182580, Note_on_c, 0, 47, 88
4, 182640, Note_on_c, 0, 47, 0
4, 182640, Note_on_c, 0, 35, 88
4, 182700, Note_on_c, 0, 35, 0
4, 182700, Note_on_c, 0, 47, 88
4, 182760, Note_on_c, 0, 47, 0
4, 182760, Note_on_c, 0, 35, 88
4, 182820, Note_on_c, 0, 35, 0
4, 182820, Note_on_c, 0, 47, 88
4, 182880, Note_on_c, 0, 47, 0
4, 182880, Note_on_c, 0, 35, 88
4, 182940, Note_on_c, 0, 35, 0
4, 182940, Note_on_c, 0, 47, 88
4, 183000, Note_on_c, 0, 47, 0
4, 183000, Note_on_c, 0, 35, 88
4, 183060, Note_on_c, 0, 35, 0
4, 183060, Note_on_c, 0, 47, 88
4, 183120, Note_on_c, 0, 47, 0
4, 183120, Note_on_c, 0, 35, 88
4, 183180, Note_on_c, 0, 35, 0
4, 183180, Note_on_c, 0, 47, 88
4, 183240, Note_on_c, 0, 47, 0
4, 183240, Note_on_c, 0, 35, 88
4, 183300, Note_on_c, 0, 35, 0
4, 183300, Note_on_c, 0, 47, 88
4, 183360, Note_on_c, 0, 47, 0
4, 183360, Note_on_c, 0, 35, 88
4, 183420, Note_on_c, 0, 35, 0
4, 183420, Note_on_c, 0, 47, 88
4, 183480, Note_on_c, 0, 47, 0
4, 183480, Note_on_c, 0, 35, 88
4, 183540, Note_on_c, 0, 35, 0
4, 183540, Note_on_c, 0, 47, 88
4, 183600, Note_on_c, 0, 47, 0
4, 183600, Note_on_c, 0, 35, 88
4, 183660, Note_on_c, 0, 35, 0
4, 183660, Note_on_c, 0, 47, 88
4, 183720, Note_on_c, 0, 47, 0
4, 183720, Note_on_c, 0, 35, 88
4, 183780, Note_on_c, 0, 35, 0
4, 183780, Note_on_c, 0, 47, 88
4, 183840, Note_on_c, 0, 47, 0
4, 183840, Note_on_c, 0, 35, 88
4, 183900, Note_on_c, 0, 35, 0
4, 183900, Note_on_c, 0, 47, 88
4, 183960, Note_on_c, 0, 47, 0
4, 183960, Note_on_c, 0, 35, 88
4, 184020, Note_on_c, 0, 35, 0
4, 184020, Note_on_c, 0, 47, 88
4, 184080, Note_on_c, 0, 47, 0
4, 184080, Note_on_c, 0, 35, 88
4, 184140, Note_on_c, 0, 35, 0
4, 184140, Note_on_c, 0, 47, 88
4, 184200, Note_on_c, 0, 47, 0
4, 184200, Note_on_c, 0, 35, 88
4, 184260, Note_on_c, 0, 35, 0
4, 184260, Note_on_c, 0, 47, 88
4, 184320, Note_on_c, 0, 47, 0
4, 184320, Note_on_c, 0, 35, 88
4, 184380, Note_on_c, 0, 35, 0
4, 184380, Note_on_c, 0, 47, 88
4, 184440, Note_on_c, 0, 47, 0
4, 184440, Note_on_c, 0, 35, 88
4, 184500, Note_on_c, 0, 35, 0
4, 184500, Note_on_c, 0, 47, 88
4, 184560, Note_on_c, 0, 47, 0
4, 184560, Note_on_c, 0, 35, 88
4, 184620, Note_on_c, 0, 35, 0
4, 184620, Note_on_c, 0, 47, 88
4, 184680, Note_on_c, 0, 47, 0
4, 184680, Note_on_c, 0, 35, 88
4, 184740, Note_on_c, 0, 35, 0
4, 184740, Control_c, 0, 64, 0
4, 184740, Note_on_c, 0, 47, 88
4, 184800, Note_on_c, 0, 47, 0
4, 184800, Control_c, 0, 64, 127
4, 184800, Note_on_c, 0, 40, 88
4, 184800, Note_on_c, 0, 44, 88
4, 184800, Note_on_c, 0, 47, 88
4, 184800, Note_on_c, 0, 52, 88
4, 185280, Note_on_c, 0, 52, 0
4, 185280, Note_on_c, 0, 40, 0
4, 185280, Note_on_c, 0, 44, 0
4, 185280, Note_on_c, 0, 47, 0
4, 185280, Note_on_c, 0, 64, 75
4, 185280, Note_on_c, 0, 68, 75
4, 185360, Note_on_c, 0, 68, 0
4, 185360, Note_on_c, 0, 64, 0
4, 185360, Note_on_c, 0, 71, 75
4, 185439, Note_on_c, 0, 71, 0
4, 185439, Note_on_c, 0, 64, 75
4, 185439, Note_on_c, 0, 68, 75
4, 185520, Note_on_c, 0, 68, 0
4, 185520, Note_on_c, 0, 64, 0
4, 185520, Note_on_c, 0, 71, 75
4, 185600, Note_on_c, 0, 71, 0
4, 185600, Note_on_c, 0, 64, 75
4, 185600, Note_on_c, 0, 68, 75
4, 185679, Note_on_c, 0, 68, 0
4, 185679, Note_on_c, 0, 64, 0
4, 185679, Note_on_c, 0, 71, 75
4, 185760, Note_on_c, 0, 71, 0
4, 185760, Note_on_c, 0, 64, 75
4, 185760, Note_on_c, 0, 68, 75
4, 185840, Note_on_c, 0, 68, 0
4, 185840, Note_on_c, 0, 64, 0
4, 185840, Note_on_c, 0, 71, 75
4, 185919, Note_on_c, 0, 71, 0
4, 185919, Note_on_c, 0, 64, 75
4, 185919, Note_on_c, 0, 68, 75
4, 186000, Note_on_c, 0, 68, 0
4, 186000, Note_on_c, 0, 64, 0
4, 186000, Note_on_c, 0, 71, 75
4, 186080, Note_on_c, 0, 71, 0
4, 186080, Note_on_c, 0, 64, 75
4, 186080, Note_on_c, 0, 68, 75
4, 186150, Note_on_c, 0, 40, 75
4, 186159, Note_on_c, 0, 68, 0
4, 186159, Note_on_c, 0, 64, 0
4, 186159, Control_c, 0, 64, 0
4, 186159, Note_on_c, 0, 71, 75
4, 186180, Note_on_c, 0, 44, 75
4, 186210, Note_on_c, 0, 47, 75
4, 186240, Note_on_c, 0, 71, 0
4, 186240, Control_c, 0, 64, 127
4, 186240, Note_on_c, 0, 52, 88
4, 186720, Note_on_c, 0, 52, 0
4, 186720, Note_on_c, 0, 47, 0
4, 186720, Note_on_c, 0, 44, 0
4, 186720, Note_on_c, 0, 40, 0
4, 186720, Note_on_c, 0, 64, 75
4, 186720, Note_on_c, 0, 68, 75
4, 186800, Note_on_c, 0, 68, 0
4, 186800, Note_on_c, 0, 64, 0
4, 186800, Note_on_c, 0, 71, 75
4, 186879, Note_on_c, 0, 71, 0
4, 186879, Note_on_c, 0, 64, 75
4, 186879, Note_on_c, 0, 68, 75
4, 186960, Note_on_c, 0, 68, 0
4, 186960, Note_on_c, 0, 64, 0
4, 186960, Note_on_c, 0, 71, 75
4, 187040, Note_on_c, 0, 71, 0
4, 187040, Note_on_c, 0, 64, 75
4, 187040, Note_on_c, 0, 68, 75
4, 187119, Note_on_c, 0, 68, 0
4, 187119, Note_on_c, 0, 64, 0
4, 187119, Note_on_c, 0, 71, 75
4, 187200, Note_on_c, 0, 71, 0
4, 187200, Note_on_c, 0, 64, 75
4, 187200, Note_on_c, 0, 68, 75
4, 187280, Note_on_c, 0, 68, 0
4, 187280, Note_on_c, 0, 64, 0
4, 187280, Note_on_c, 0, 71, 75
4, 187359, Note_on_c, 0, 71, 0
4, 187359, Note_on_c, 0, 64, 75
4, 187359, Note_on_c, 0, 68, 75
4, 187440, Note_on_c, 0, 68, 0
4, 187440, Note_on_c, 0, 64, 0
4, 187440, Note_on_c, 0, 71, 75
4, 187520, Note_on_c, 0, 71, 0
4, 187520, Note_on_c, 0, 64, 75
4, 187520, Note_on_c, 0, 68, 75
4, 187590, Note_on_c, 0, 40, 75
4, 187599, Note_on_c, 0, 68, 0
4, 187599, Note_on_c, 0, 64, 0
4, 187599, Control_c, 0, 64, 0
4, 187599, Note_on_c, 0, 71, 75
4, 187620, Note_on_c, 0, 44, 75
4, 187650, Note_on_c, 0, 47, 75
4, 187680, Note_on_c, 0, 71, 0
4, 187680, Control_c, 0, 64, 127
4, 187680, Note_on_c, 0, 52, 88
4, 188160, Note_on_c, 0, 52, 0
4, 188160, Note_on_c, 0, 47, 0
4, 188160, Note_on_c, 0, 44, 0
4, 188160, Note_on_c, 0, 40, 0
4, 188160, Note_on_c, 0, 64, 75
4, 188160, Note_on_c, 0, 68, 75
4, 188240, Note_on_c, 0, 68, 0
4, 188240, Note_on_c, 0, 64, 0
4, 188240, Note_on_c, 0, 71, 75
4, 188319, Note_on_c, 0, 71, 0
4, 188319, Note_on_c, 0, 64, 75
4, 188319, Note_on_c, 0, 68, 75
4, 188400, Note_on_c, 0, 68, 0
4, 188400, Note_on_c, 0, 64, 0
4, 188400, Note_on_c, 0, 71, 75
4, 188480, Note_on_c, 0, 71, 0
4, 188480, Note_on_c, 0, 64, 75
4, 188480, Note_on_c, 0, 68, 75
4, 188559, Note_on_c, 0, 68, 0
4, 188559, Note_on_c, 0, 64, 0
4, 188559, Note_on_c, 0, 71, 75
4, 188640, Note_on_c, 0, 71, 0
4, 188640, Note_on_c, 0, 64, 75
4, 188640, Note_on_c, 0, 68, 75
4, 188720, Note_on_c, 0, 68, 0
4, 188720, Note_on_c, 0, 64, 0
4, 188720, Note_on_c, 0, 71, 75
4, 188799, Note_on_c, 0, 71, 0
4, 188799, Note_on_c, 0, 64, 75
4, 188799, Note_on_c, 0, 68, 75
4, 188880, Note_on_c, 0, 68, 0
4, 188880, Note_on_c, 0, 64, 0
4, 188880, Note_on_c, 0, 71, 75
4, 188960, Note_on_c, 0, 71, 0
4, 188960, Note_on_c, 0, 64, 75
4, 188960, Note_on_c, 0, 68, 75
4, 189030, Note_on_c, 0, 40, 75
4, 189039, Note_on_c, 0, 68, 0
4, 189039, Note_on_c, 0, 64, 0
4, 189039, Control_c, 0, 64, 0
4, 189039, Note_on_c, 0, 71, 75
4, 189060, Note_on_c, 0, 44, 75
4, 189090, Note_on_c, 0, 48, 75
4, 189120, Note_on_c, 0, 71, 0
4, 189120, Control_c, 0, 64, 127
4, 189120, Note_on_c, 0, 52, 75
4, 189510, Note_on_c, 0, 52, 75
4, 189540, Note_on_c, 0, 56, 75
4, 189570, Note_on_c, 0, 60, 75
4, 189600, Note_on_c, 0, 52, 0
4, 189600, Note_on_c, 0, 40, 0
4, 189600, Note_on_c, 0, 48, 0
4, 189600, Note_on_c, 0, 44, 0
4, 189600, Note_on_c, 0, 64, 75
4, 189990, Note_on_c, 0, 52, 75
4, 190020, Note_on_c, 0, 56, 75
4, 190050, Note_on_c, 0, 60, 75
4, 190080, Note_on_c, 0, 64, 0
4, 190080, Note_on_c, 0, 60, 0
4, 190080, Note_on_c, 0, 56, 0
4, 190080, Note_on_c, 0, 52, 0
4, 190080, Note_on_c, 0, 64, 75
4, 190320, Control_c, 0, 64, 0
4, 190470, Note_on_c, 0, 40, 75
4, 190500, Note_on_c, 0, 45, 75
4, 190530, Note_on_c, 0, 48, 75
4, 190560, Note_on_c, 0, 64, 0
4, 190560, Note_on_c, 0, 60, 0
4, 190560, Note_on_c, 0, 56, 0
4, 190560, Note_on_c, 0, 52, 0
4, 190560, Note_on_c, 0, 53, 75
4, 191040, Note_on_c, 0, 53, 0
4, 191040, Note_on_c, 0, 45, 0
4, 191040, Note_on_c, 0, 40, 0
4, 191040, Note_on_c, 0, 48, 0
4, 191040, Note_on_c, 0, 64, 75
4, 191910, Note_on_c, 0, 40, 75
4, 191940, Note_on_c, 0, 45, 75
4, 191970, Note_on_c, 0, 48, 75
4, 192000, Note_on_c, 0, 64, 0
4, 192000, Note_on_c, 0, 53, 75
4, 192480, Note_on_c, 0, 53, 0
4, 192480, Note_on_c, 0, 48, 0
4, 192480, Note_on_c, 0, 45, 0
4, 192480, Note_on_c, 0, 40, 0
4, 192480, Note_on_c, 0, 64, 75
4, 193350, Note_on_c, 0, 40, 75
4, 193380, Note_on_c, 0, 45, 75
4, 193410, Note_on_c, 0, 48, 75
4, 193440, Note_on_c, 0, 64, 0
4, 193440, Note_on_c, 0, 53, 75
4, 193920, Note_on_c, 0, 53, 0
4, 193920, Note_on_c, 0, 48, 0
4, 193920, Note_on_c, 0, 45, 0
4, 193920, Note_on_c, 0, 40, 0
4, 193920, Note_on_c, 0, 64, 75
4, 194880, Note_on_c, 0, 64, 0
4, 194880, Note_on_c, 0, 59, 101
4, 195840, Note_on_c, 0, 59, 0
4, 195840, Note_on_c, 0, 61, 101
4, 196080, Note_on_c, 0, 61, 0
4, 196080, Note_on_c, 0, 63, 101
4, 196320, Note_on_c, 0, 63, 0
4, 196320, Note_on_c, 0, 63, 101
4, 196560, Note_on_c, 0, 63, 0
4, 196560, Note_on_c, 0, 56, 101
4, 196800, Note_on_c, 0, 56, 0
4, 196800, Note_on_c, 0, 63, 101
4, 197040, Note_on_c, 0, 63, 0
4, 197040, Note_on_c, 0, 64, 101
4, 197280, Note_on_c, 0, 64, 0
4, 197280, Note_on_c, 0, 66, 101
4, 197520, Note_on_c, 0, 66, 0
4, 197520, Note_on_c, 0, 68, 101
4, 197760, Note_on_c, 0, 68, 0
4, 197760, Note_on_c, 0, 68, 101
4, 198000, Note_on_c, 0, 68, 0
4, 198000, Note_on_c, 0, 59, 101
4, 198240, Note_on_c, 0, 59, 0
4, 198240, Note_on_c, 0, 61, 101
4, 198480, Note_on_c, 0, 61, 0
4, 198480, Note_on_c, 0, 64, 101
4, 198720, Note_on_c, 0, 64, 0
4, 198720, Note_on_c, 0, 68, 101
4, 198960, Note_on_c, 0, 68, 0
4, 198960, Note_on_c, 0, 71, 101
4, 199200, Note_on_c, 0, 71, 0
4, 199200, Note_on_c, 0, 64, 101
4, 199200, Note_on_c, 0, 68, 101
4, 199200, Note_on_c, 0, 72, 101
4, 200640, Note_on_c, 0, 72, 0
4, 200640, Note_on_c, 0, 68, 0
4, 200640, Note_on_c, 0, 64, 0
4, 200640, Note_on_c, 0, 64, 101
4, 200640, Note_on_c, 0, 65, 101
4, 200640, Note_on_c, 0, 69, 101
4, 200640, Note_on_c, 0, 72, 101
4, 201600, Note_on_c, 0, 72, 0
4, 201600, Note_on_c, 0, 64, 0
4, 201600, Note_on_c, 0, 65, 0
4, 201600, Note_on_c, 0, 69, 0
4, 201600, Note_on_c, 0, 69, 101
4, 201840, Note_on_c, 0, 69, 0
4, 201840, Note_on_c, 0, 71, 101
4, 202080, Note_on_c, 0, 71, 0
4, 202080, Note_on_c, 0, 71, 101
4, 202320, Note_on_c, 0, 71, 0
4, 202320, Note_on_c, 0, 63, 101
4, 202560, Note_on_c, 0, 63, 0
4, 202560, Note_on_c, 0, 63, 101
4, 202800, Note_on_c, 0, 63, 0
4, 202800, Note_on_c, 0, 69, 101
4, 203040, Note_on_c, 0, 69, 0
4, 203040, Note_on_c, 0, 69, 101
4, 203280, Note_on_c, 0, 69, 0
4, 203280, Note_on_c, 0, 60, 101
4, 203520, Note_on_c, 0, 60, 0
4, 203520, Note_on_c, 0, 60, 101
4, 203760, Note_on_c, 0, 60, 0
4, 203760, Note_on_c, 0, 63, 101
4, 204000, Note_on_c, 0, 63, 0
4, 204000, Note_on_c, 0, 63, 101
4, 204240, Note_on_c, 0, 63, 0
4, 204240, Note_on_c, 0, 57, 101
4, 204480, Note_on_c, 0, 57, 0
4, 204480, Note_on_c, 0, 57, 101
4, 204720, Note_on_c, 0, 57, 0
4, 204720, Note_on_c, 0, 59, 101
4, 204960, Note_on_c, 0, 59, 0
4, 204960, Note_on_c, 0, 52, 88
4, 204960, Note_on_c, 0, 56, 88
4, 204960, Note_on_c, 0, 59, 88
4, 205920, Note_on_c, 0, 59, 0
4, 205920, Note_on_c, 0, 56, 0
4, 205920, Note_on_c, 0, 52, 0
4, 205920, Note_on_c, 0, 64, 88
4, 206400, Note_on_c, 0, 64, 0
4, 206400, Note_on_c, 0, 63, 88
4, 206880, Note_on_c, 0, 63, 0
4, 206880, Note_on_c, 0, 59, 88
4, 207360, Note_on_c, 0, 59, 0
4, 207360, Note_on_c, 0, 61, 88
4, 207840, Note_on_c, 0, 61, 0
4, 207840, Note_on_c, 0, 56, 88
4, 208800, Note_on_c, 0, 56, 0
4, 208800, Note_on_c, 0, 59, 88
4, 209280, Note_on_c, 0, 59, 0
4, 209280, Note_on_c, 0, 59, 88
4, 210240, Note_on_c, 0, 59, 0
4, 210240, Note_on_c, 0, 54, 88
4, 210720, Note_on_c, 0, 54, 0
4, 210720, Note_on_c, 0, 59, 88
4, 211680, Note_on_c, 0, 59, 0
4, 211680, Note_on_c, 0, 52, 75
4, 212160, Note_on_c, 0, 52, 0
4, 212160, Note_on_c, 0, 51, 75
4, 212640, Note_on_c, 0, 51, 0
4, 212640, Note_on_c, 0, 47, 75
4, 213120, Note_on_c, 0, 47, 0
4, 213120, Note_on_c, 0, 49, 75
4, 213600, Note_on_c, 0, 49, 0
4, 213600, Note_on_c, 0, 44, 75
4, 214560, Note_on_c, 0, 44, 0
4, 214560, Note_on_c, 0, 47, 75
4, 215040, Note_on_c, 0, 47, 0
4, 215040, Note_on_c, 0, 47, 62
4, 216000, Note_on_c, 0, 47, 0
4, 216000, Note_on_c, 0, 42, 62
4, 216480, Note_on_c, 0, 42, 0
4, 216480, Note_on_c, 0, 47, 62
4, 217920, Note_on_c, 0, 47, 0
4, 217920, Note_on_c, 0, 40, 62
4, 217920, Note_on_c, 0, 52, 62
4, 218160, Note_on_c, 0, 52, 0
4, 218160, Note_on_c, 0, 40, 0
4, 218160, Note_on_c, 0, 52, 62
4, 218400, Note_on_c, 0, 52, 0
4, 218400, Note_on_c, 0, 40, 62
4, 218400, Note_on_c, 0, 52, 62
4, 218640, Note_on_c, 0, 52, 0
4, 218640, Note_on_c, 0, 40, 0
4, 218640, Note_on_c, 0, 52, 62
4, 218880, Note_on_c, 0, 52, 0
4, 218880, Note_on_c, 0, 40, 62
4, 218880, Note_on_c, 0, 52, 62
4, 219120, Note_on_c, 0, 52, 0
4, 219120, Note_on_c, 0, 40, 0
4, 219120, Note_on_c, 0, 52, 62
4, 219360, Note_on_c, 0, 52, 0
4, 219360, Control_c, 0, 64, 127
4, 219360, Note_on_c, 0, 40, 62
4, 219420, Note_on_c, 0, 40, 0
4, 219420, Note_on_c, 0, 52, 62
4, 219480, Note_on_c, 0, 52, 0
4, 219480, Note_on_c, 0, 40, 62
4, 219540, Note_on_c, 0, 40, 0
4, 219540, Note_on_c, 0, 52, 62
4, 219600, Note_on_c, 0, 52, 0
4, 219600, Note_on_c, 0, 40, 62
4, 219660, Note_on_c, 0, 40, 0
4, 219660, Note_on_c, 0, 52, 62
4, 219720, Note_on_c, 0, 52, 0
4, 219720, Note_on_c, 0, 40, 62
4, 219780, Note_on_c, 0, 40, 0
4, 219780, Note_on_c, 0, 52, 62
4, 219840, Note_on_c, 0, 52, 0
4, 219840, Note_on_c, 0, 40, 62
4, 219900, Note_on_c, 0, 40, 0
4, 219900, Note_on_c, 0, 52, 62
4, 219960, Note_on_c, 0, 52, 0
4, 219960, Note_on_c, 0, 40, 62
4, 220020, Note_on_c, 0, 40, 0
4, 220020, Note_on_c, 0, 52, 62
4, 220080, Note_on_c, 0, 52, 0
4, 220080, Note_on_c, 0, 40, 62
4, 220140, Note_on_c, 0, 40, 0
4, 220140, Note_on_c, 0, 52, 62
4, 220200, Note_on_c, 0, 52, 0
4, 220200, Note_on_c, 0, 40, 62
4, 220260, Note_on_c, 0, 40, 0
4, 220260, Note_on_c, 0, 52, 62
4, 220320, Note_on_c, 0, 52, 0
4, 220320, Note_on_c, 0, 40, 62
4, 220380, Note_on_c, 0, 40, 0
4, 220380, Note_on_c, 0, 52, 62
4, 220440, Note_on_c, 0, 52, 0
4, 220440, Note_on_c, 0, 40, 62
4, 220500, Note_on_c, 0, 40, 0
4, 220500, Note_on_c, 0, 52, 62
4, 220560, Note_on_c, 0, 52, 0
4, 220560, Note_on_c, 0, 40, 62
4, 220620, Note_on_c, 0, 40, 0
4, 220620, Note_on_c, 0, 52, 62
4, 220680, Note_on_c, 0, 52, 0
4, 220680, Note_on_c, 0, 40, 62
4, 220740, Note_on_c, 0, 40, 0
4, 220740, Control_c, 0, 64, 0
4, 220740, Note_on_c, 0, 52, 62
4, 220800, Note_on_c, 0, 52, 0
4, 220800, Note_on_c, 0, 40, 62
4, 221760, Note_on_c, 0, 40, 0
4, 221760, End_track
5, 0, Start_track
5, 0, Title_t, "Grand Piano"
5, 0, Program_c, 0, 0
5, 0, Control_c, 0, 7, 115
5, 0, Control_c, 0, 10, 47
5, 19200, Note_on_c, 0, 56, 75
5, 20160, Note_on_c, 0, 56, 0
5, 20160, Control_c, 0, 64, 127
5, 20160, Note_on_c, 0, 46, 75
5, 20400, Note_on_c, 0, 46, 0
5, 20400, Note_on_c, 0, 58, 75
5, 20880, Note_on_c, 0, 58, 0
5, 20880, Note_on_c, 0, 58, 75
5, 21120, Note_on_c, 0, 58, 0
5, 21120, Control_c, 0, 64, 0
5, 21120, Note_on_c, 0, 47, 75
5, 22080, Note_on_c, 0, 47, 0
5, 22080, Control_c, 0, 64, 127
5, 22080, Note_on_c, 0, 48, 75
5, 22320, Note_on_c, 0, 48, 0
5, 22320, Note_on_c, 0, 57, 75
5, 22800, Note_on_c, 0, 57, 0
5, 22800, Note_on_c, 0, 57, 75
5, 23040, Note_on_c, 0, 57, 0
5, 23040, Control_c, 0, 64, 0
5, 23040, Note_on_c, 0, 49, 75
5, 24000, Note_on_c, 0, 49, 0
5, 24000, Control_c, 0, 64, 127
5, 24000, Note_on_c, 0, 50, 75
5, 24240, Note_on_c, 0, 50, 0
5, 24240, Note_on_c, 0, 56, 75
5, 24720, Note_on_c, 0, 56, 0
5, 24720, Control_c, 0, 64, 0
5, 24720, Note_on_c, 0, 56, 75
5, 24720, Note_on_c, 0, 58, 75
5, 24960, Note_on_c, 0, 58, 0
5, 24960, Note_on_c, 0, 56, 0
5, 24960, Control_c, 0, 64, 0
5, 24960, Note_on_c, 0, 51, 62
5, 25920, Note_on_c, 0, 51, 0
5, 25920, Control_c, 0, 64, 127
5, 25920, Note_on_c, 0, 44, 62
5, 26160, Note_on_c, 0, 44, 0
5, 26160, Note_on_c, 0, 59, 62
5, 26400, Note_on_c, 0, 59, 0
5, 26400, Note_on_c, 0, 58, 62
5, 26640, Note_on_c, 0, 58, 0
5, 26640, Control_c, 0, 64, 0
5, 26640, Note_on_c, 0, 56, 62
5, 26640, Note_on_c, 0, 58, 62
5, 26880, Note_on_c, 0, 58, 0
5, 26880, Note_on_c, 0, 56, 0
5, 38400, Note_on_c, 0, 56, 75
5, 39360, Note_on_c, 0, 56, 0
5, 39360, Control_c, 0, 64, 127
5, 39360, Note_on_c, 0, 46, 75
5, 39600, Note_on_c, 0, 46, 0
5, 39600, Note_on_c, 0, 58, 75
5, 40080, Note_on_c, 0, 58, 0
5, 40080, Control_c, 0, 64, 0
5, 40080, Note_on_c, 0, 58, 75
5, 40320, Note_on_c, 0, 58, 0
5, 40320, Note_on_c, 0, 47, 62
5, 41280, Note_on_c, 0, 47, 0
5, 41280, Control_c, 0, 64, 127
5, 41280, Note_on_c, 0, 48, 62
5, 41520, Note_on_c, 0, 48, 0
5, 41520, Note_on_c, 0, 57, 62
5, 42000, Note_on_c, 0, 57, 0
5, 42000, Control_c, 0, 64, 0
5, 42000, Note_on_c, 0, 57, 62
5, 42240, Note_on_c, 0, 57, 0
5, 42240, Note_on_c, 0, 49, 75
5, 43200, Note_on_c, 0, 49, 0
5, 43440, Note_on_c, 0, 53, 75
5, 43920, Note_on_c, 0, 53, 0
5, 43920, Note_on_c, 0, 53, 75
5, 44160, Note_on_c, 0, 53, 0
5, 44160, Note_on_c, 0, 49, 75
5, 46080, Note_on_c, 0, 49, 0
5, 46080, Note_on_c, 0, 49, 75
5, 47040, Note_on_c, 0, 49, 0
5, 47040, Note_on_c, 0, 49, 75
5, 48000, Note_on_c, 0, 49, 0
5, 52800, Note_on_c, 0, 39, 62
5, 52800, Note_on_c, 0, 51, 62
5, 53880, Note_on_c, 0, 51, 0
5, 53880, Note_on_c, 0, 39, 0
5, 53880, Note_on_c, 0, 38, 62
5, 53880, Note_on_c, 0, 50, 62
5, 54000, Note_on_c, 0, 50, 0
5, 54000, Note_on_c, 0, 38, 0
5, 54000, Note_on_c, 0, 38, 62
5, 54000, Note_on_c, 0, 50, 62
5, 54120, Note_on_c, 0, 50, 0
5, 54120, Note_on_c, 0, 38, 0
5, 54120, Note_on_c, 0, 39, 62
5, 54120, Note_on_c, 0, 51, 62
5, 54240, Note_on_c, 0, 51, 0
5, 54240, Note_on_c, 0, 39, 0
5, 54240, Note_on_c, 0, 39, 62
5, 54240, Note_on_c, 0, 51, 62
5, 54360, Note_on_c, 0, 51, 0
5, 54360, Note_on_c, 0, 39, 0
5, 54360, Note_on_c, 0, 38, 62
5, 54360, Note_on_c, 0, 50, 62
5, 54480, Note_on_c, 0, 50, 0
5, 54480, Note_on_c, 0, 38, 0
5, 54480, Note_on_c, 0, 38, 62
5, 54480, Note_on_c, 0, 50, 62
5, 54600, Note_on_c, 0, 50, 0
5, 54600, Note_on_c, 0, 38, 0
5, 54600, Note_on_c, 0, 39, 62
5, 54600, Note_on_c, 0, 51, 62
5, 54720, Note_on_c, 0, 51, 0
5, 54720, Note_on_c, 0, 39, 0
5, 54720, Note_on_c, 0, 39, 62
5, 54720, Note_on_c, 0, 51, 62
5, 55800, Note_on_c, 0, 51, 0
5, 55800, Note_on_c, 0, 39, 0
5, 55800, Note_on_c, 0, 38, 62
5, 55800, Note_on_c, 0, 50, 62
5, 55920, Note_on_c, 0, 50, 0
5, 55920, Note_on_c, 0, 38, 0
5, 55920, Note_on_c, 0, 38, 62
5, 55920, Note_on_c, 0, 50, 62
5, 56040, Note_on_c, 0, 50, 0
5, 56040, Note_on_c, 0, 38, 0
5, 56040, Note_on_c, 0, 39, 62
5, 56040, Note_on_c, 0, 51, 62
5, 56160, Note_on_c, 0, 51, 0
5, 56160, Note_on_c, 0, 39, 0
5, 56160, Note_on_c, 0, 39, 62
5, 56160, Note_on_c, 0, 51, 62
5, 56280, Note_on_c, 0, 51, 0
5, 56280, Note_on_c, 0, 39, 0
5, 56280, Note_on_c, 0, 38, 62
5, 56280, Note_on_c, 0, 50, 62
5, 56400, Note_on_c, 0, 50, 0
5, 56400, Note_on_c, 0, 38, 0
5, 56400, Note_on_c, 0, 38, 62
5, 56400, Note_on_c, 0, 50, 62
5, 56520, Note_on_c, 0, 50, 0
5, 56520, Note_on_c, 0, 38, 0
5, 56520, Note_on_c, 0, 39, 62
5, 56520, Note_on_c, 0, 51, 62
5, 56640, Note_on_c, 0, 51, 0
5, 56640, Note_on_c, 0, 39, 0
5, 56640, Note_on_c, 0, 39, 62
5, 56640, Note_on_c, 0, 51, 62
5, 57720, Note_on_c, 0, 51, 0
5, 57720, Note_on_c, 0, 39, 0
5, 57720, Note_on_c, 0, 38, 62
5, 57720, Note_on_c, 0, 50, 62
5, 57840, Note_on_c, 0, 50, 0
5, 57840, Note_on_c, 0, 38, 0
5, 57840, Note_on_c, 0, 38, 62
5, 57840, Note_on_c, 0, 50, 62
5, 57960, Note_on_c, 0, 50, 0
5, 57960, Note_on_c, 0, 38, 0
5, 57960, Note_on_c, 0, 39, 62
5, 57960, Note_on_c, 0, 51, 62
5, 58080, Note_on_c, 0, 51, 0
5, 58080, Note_on_c, 0, 39, 0
5, 58080, Note_on_c, 0, 39, 62
5, 58080, Note_on_c, 0, 51, 62
5, 58200, Note_on_c, 0, 51, 0
5, 58200, Note_on_c, 0, 39, 0
5, 58200, Note_on_c, 0, 38, 62
5, 58200, Note_on_c, 0, 50, 62
5, 58320, Note_on_c, 0, 50, 0
5, 58320, Note_on_c, 0, 38, 0
5, 58320, Note_on_c, 0, 38, 62
5, 58320, Note_on_c, 0, 50, 62
5, 58440, Note_on_c, 0, 50, 0
5, 58440, Note_on_c, 0, 38, 0
5, 58440, Note_on_c, 0, 39, 62
5, 58440, Note_on_c, 0, 51, 62
5, 58560, Note_on_c, 0, 51, 0
5, 58560, Note_on_c, 0, 39, 0
5, 58560, Note_on_c, 0, 39, 62
5, 58560, Note_on_c, 0, 51, 62
5, 59520, Note_on_c, 0, 51, 0
5, 59520, Note_on_c, 0, 39, 0
5, 71760, Control_c, 0, 64, 127
5, 71760, Note_on_c, 0, 34, 75
5, 71820, Note_on_c, 0, 34, 0
5, 71820, Note_on_c, 0, 46, 75
5, 71880, Note_on_c, 0, 46, 0
5, 71880, Note_on_c, 0, 34, 75
5, 71940, Note_on_c, 0, 34, 0
5, 71940, Note_on_c, 0, 46, 75
5, 72000, Note_on_c, 0, 46, 0
5, 72000, Note_on_c, 0, 34, 75
5, 72060, Note_on_c, 0, 34, 0
5, 72060, Note_on_c, 0, 46, 75
5, 72120, Note_on_c, 0, 46, 0
5, 72120, Note_on_c, 0, 34, 75
5, 72180, Note_on_c, 0, 34, 0
5, 72180, Note_on_c, 0, 46, 75
5, 72240, Note_on_c, 0, 46, 0
5, 72240, Note_on_c, 0, 34, 75
5, 72300, Note_on_c, 0, 34, 0
5, 72300, Note_on_c, 0, 46, 75
5, 72360, Note_on_c, 0, 46, 0
5, 72360, Note_on_c, 0, 34, 75
5, 72420, Note_on_c, 0, 34, 0
5, 72420, Note_on_c, 0, 46, 75
5, 72480, Note_on_c, 0, 46, 0
5, 72480, Note_on_c, 0, 34, 75
5, 72540, Note_on_c, 0, 34, 0
5, 72540, Note_on_c, 0, 46, 75
5, 72600, Note_on_c, 0, 46, 0
5, 72600, Note_on_c, 0, 34, 75
5, 72660, Note_on_c, 0, 34, 0
5, 72660, Note_on_c, 0, 46, 75
5, 72720, Note_on_c, 0, 46, 0
5, 72720, Note_on_c, 0, 34, 75
5, 72780, Note_on_c, 0, 34, 0
5, 72780, Note_on_c, 0, 46, 75
5, 72840, Note_on_c, 0, 46, 0
5, 72840, Note_on_c, 0, 34, 75
5, 72900, Note_on_c, 0, 34, 0
5, 72900, Control_c, 0, 64, 0
5, 72900, Note_on_c, 0, 46, 75
5, 72960, Note_on_c, 0, 46, 0
5, 84000, Note_on_c, 0, 54, 75
5, 84000, Note_on_c, 0, 56, 75
5, 84159, Note_on_c, 0, 56, 0
5, 84159, Note_on_c, 0, 54, 0
5, 84159, Note_on_c, 0, 57, 75
5, 84320, Note_on_c, 0, 57, 0
5, 84320, Note_on_c, 0, 59, 75
5, 84480, Note_on_c, 0, 59, 0
5, 84480, Note_on_c, 0, 61, 75
5, 84720, Note_on_c, 0, 61, 0
5, 84960, Note_on_c, 0, 30, 75
5, 84960, Note_on_c, 0, 42, 75
5, 85440, Note_on_c, 0, 42, 0
5, 85440, Note_on_c, 0, 30, 0
5, 85920, Note_on_c, 0, 54, 75
5, 85920, Note_on_c, 0, 59, 75
5, 86079, Note_on_c, 0, 59, 0
5, 86079, Note_on_c, 0, 54, 0
5, 86079, Note_on_c, 0, 61, 75
5, 86240, Note_on_c, 0, 61, 0
5, 86240, Note_on_c, 0, 62, 75
5, 86400, Note_on_c, 0, 62, 0
5, 86400, Note_on_c, 0, 66, 75
5, 86640, Note_on_c, 0, 66, 0
5, 86880, Note_on_c, 0, 30, 75
5, 86880, Note_on_c, 0, 42, 75
5, 87360, Note_on_c, 0, 42, 0
5, 87360, Note_on_c, 0, 30, 0
5, 87840, Note_on_c, 0, 54, 75
5, 87840, Note_on_c, 0, 56, 75
5, 87999, Note_on_c, 0, 56, 0
5, 87999, Note_on_c, 0, 54, 0
5, 87999, Note_on_c, 0, 57, 75
5, 88160, Note_on_c, 0, 57, 0
5, 88160, Note_on_c, 0, 59, 75
5, 88320, Note_on_c, 0, 59, 0
5, 88320, Note_on_c, 0, 61, 75
5, 88560, Note_on_c, 0, 61, 0
5, 88800, Note_on_c, 0, 30, 75
5, 88800, Note_on_c, 0, 42, 75
5, 89280, Note_on_c, 0, 42, 0
5, 89280, Note_on_c, 0, 30, 0
5, 89760, Note_on_c, 0, 54, 75
5, 89760, Note_on_c, 0, 59, 75
5, 89919, Note_on_c, 0, 59, 0
5, 89919, Note_on_c, 0, 54, 0
5, 89919, Note_on_c, 0, 61, 75
5, 90080, Note_on_c, 0, 61, 0
5, 90080, Note_on_c, 0, 62, 75
5, 90240, Note_on_c, 0, 62, 0
5, 90240, Note_on_c, 0, 57, 75
5, 90480, Note_on_c, 0, 57, 0
5, 90720, Note_on_c, 0, 40, 75
5, 90720, Note_on_c, 0, 52, 75
5, 91200, Note_on_c, 0, 52, 0
5, 91200, Note_on_c, 0, 40, 0
5, 91440, Note_on_c, 0, 54, 75
5, 91680, Note_on_c, 0, 54, 0
5, 91680, Note_on_c, 0, 57, 75
5, 91920, Note_on_c, 0, 57, 0
5, 91920, Note_on_c, 0, 59, 75
5, 92160, Note_on_c, 0, 59, 0
5, 92160, Note_on_c, 0, 61, 75
5, 92400, Note_on_c, 0, 61, 0
5, 92400, Note_on_c, 0, 71, 75
5, 92640, Note_on_c, 0, 71, 0
5, 92640, Note_on_c, 0, 69, 75
5, 92880, Note_on_c, 0, 69, 0
5, 92880, Note_on_c, 0, 67, 75
5, 93120, Note_on_c, 0, 67, 0
5, 93120, Note_on_c, 0, 66, 75
5, 93360, Note_on_c, 0, 66, 0
5, 93360, Note_on_c, 0, 62, 75
5, 93600, Note_on_c, 0, 62, 0
5, 93600, Note_on_c, 0, 50, 75
5, 93600, Note_on_c, 0, 57, 75
5, 93840, Note_on_c, 0, 57, 0
5, 93840, Note_on_c, 0, 50, 0
5, 93840, Note_on_c, 0, 59, 75
5, 94080, Note_on_c, 0, 59, 0
5, 94080, Note_on_c, 0, 61, 75
5, 94320, Note_on_c, 0, 61, 0
5, 94320, Note_on_c, 0, 71, 75
5, 94560, Note_on_c, 0, 71, 0
5, 94560, Note_on_c, 0, 69, 75
5, 94800, Note_on_c, 0, 69, 0
5, 94800, Note_on_c, 0, 67, 75
5, 95040, Note_on_c, 0, 67, 0
5, 95040, Note_on_c, 0, 66, 75
5, 95280, Note_on_c, 0, 66, 0
5, 95280, Note_on_c, 0, 50, 75
5, 95280, Note_on_c, 0, 57, 75
5, 95280, Note_on_c, 0, 62, 75
5, 95520, Note_on_c, 0, 62, 0
5, 95520, Note_on_c, 0, 57, 0
5, 95520, Note_on_c, 0, 50, 0
5, 95520, Note_on_c, 0, 50, 75
5, 95520, Note_on_c, 0, 58, 75
5, 95520, Note_on_c, 0, 62, 75
5, 96480, Note_on_c, 0, 62, 0
5, 96480, Note_on_c, 0, 58, 0
5, 96480, Note_on_c, 0, 50, 0
5, 108480, Note_on_c, 0, 38, 88
5, 109440, Note_on_c, 0, 38, 0
5, 113280, Note_on_c, 0, 62, 88
5, 115200, Note_on_c, 0, 62, 0
5, 115680, Note_on_c, 0, 26, 88
5, 115680, Note_on_c, 0, 38, 88
5, 117600, Note_on_c, 0, 38, 0
5, 117600, Note_on_c, 0, 26, 0
5, 117600, Note_on_c, 0, 26, 88
5, 117600, Note_on_c, 0, 38, 88
5, 119520, Note_on_c, 0, 38, 0
5, 119520, Note_on_c, 0, 26, 0
5, 119520, Note_on_c, 0, 26, 88
5, 119520, Note_on_c, 0, 38, 88
5, 121440, Note_on_c, 0, 38, 0
5, 121440, Note_on_c, 0, 26, 0
5, 121440, Note_on_c, 0, 26, 88
5, 121440, Note_on_c, 0, 38, 88
5, 123360, Note_on_c, 0, 38, 0
5, 123360, Note_on_c, 0, 26, 0
5, 123360, Note_on_c, 0, 26, 88
5, 123360, Note_on_c, 0, 38, 88
5, 125280, Note_on_c, 0, 38, 0
5, 125280, Note_on_c, 0, 26, 0
5, 125280, Note_on_c, 0, 26, 88
5, 125280, Note_on_c, 0, 38, 88
5, 127200, Note_on_c, 0, 38, 0
5, 127200, Note_on_c, 0, 26, 0
5, 127200, Note_on_c, 0, 26, 88
5, 127200, Note_on_c, 0, 38, 88
5, 129120, Note_on_c, 0, 38, 0
5, 129120, Note_on_c, 0, 26, 0
5, 129120, Note_on_c, 0, 26, 88
5, 129120, Note_on_c, 0, 38, 88
5, 130560, Note_on_c, 0, 38, 0
5, 130560, Note_on_c, 0, 26, 0
5, 136320, Note_on_c, 0, 37, 75
5, 136320, Note_on_c, 0, 49, 75
5, 138240, Note_on_c, 0, 49, 0
5, 138240, Note_on_c, 0, 37, 0
5, 138240, Note_on_c, 0, 49, 75
5, 139200, Note_on_c, 0, 49, 0
5, 139200, Note_on_c, 0, 49, 75
5, 140160, Note_on_c, 0, 49, 0
5, 142080, Note_on_c, 0, 37, 88
5, 142080, Note_on_c, 0, 49, 88
5, 144480, Note_on_c, 0, 49, 0
5, 144480, Note_on_c, 0, 25, 88
5, 146400, Note_on_c, 0, 25, 0
5, 146400, Note_on_c, 0, 37, 0
5, 146400, Note_on_c, 0, 25, 88
5, 146400, Note_on_c, 0, 37, 88
5, 148320, Note_on_c, 0, 37, 0
5, 148320, Note_on_c, 0, 25, 0
5, 148320, Note_on_c, 0, 25, 88
5, 148320, Note_on_c, 0, 37, 88
5, 150240, Note_on_c, 0, 37, 0
5, 150240, Note_on_c, 0, 25, 0
5, 150240, Note_on_c, 0, 25, 88
5, 150240, Note_on_c, 0, 37, 88
5, 152160, Note_on_c, 0, 37, 0
5, 152160, Note_on_c, 0, 25, 0
5, 152160, Note_on_c, 0, 25, 88
5, 152160, Note_on_c, 0, 37, 88
5, 154080, Note_on_c, 0, 37, 0
5, 154080, Note_on_c, 0, 25, 0
5, 154080, Note_on_c, 0, 25, 88
5, 154080, Note_on_c, 0, 37, 88
5, 156000, Note_on_c, 0, 37, 0
5, 156000, Note_on_c, 0, 25, 0
5, 156000, Note_on_c, 0, 25, 88
5, 156000, Note_on_c, 0, 37, 88
5, 157920, Note_on_c, 0, 37, 0
5, 157920, Note_on_c, 0, 25, 0
5, 157920, Note_on_c, 0, 25, 88
5, 157920, Note_on_c, 0, 37, 88
5, 159360, Note_on_c, 0, 37, 0
5, 159360, Note_on_c, 0, 25, 0
5, 159360, Note_on_c, 0, 35, 88
5, 159360, Note_on_c, 0, 39, 88
5, 159840, Note_on_c, 0, 39, 0
5, 159840, Note_on_c, 0, 35, 0
5, 164160, Note_on_c, 0, 52, 88
5, 164319, Note_on_c, 0, 52, 0
5, 164319, Note_on_c, 0, 51, 88
5, 164480, Note_on_c, 0, 51, 0
5, 164480, Note_on_c, 0, 52, 88
5, 164640, Note_on_c, 0, 52, 0
5, 164640, Note_on_c, 0, 53, 88
5, 164799, Note_on_c, 0, 53, 0
5, 164799, Note_on_c, 0, 52, 88
5, 164960, Note_on_c, 0, 52, 0
5, 164960, Note_on_c, 0, 53, 88
5, 165120, Note_on_c, 0, 53, 0
5, 165120, Note_on_c, 0, 54, 88
5, 165279, Note_on_c, 0, 54, 0
5, 165279, Note_on_c, 0, 53, 88
5, 165440, Note_on_c, 0, 53, 0
5, 165440, Note_on_c, 0, 54, 88
5, 165600, Note_on_c, 0, 54, 0
5, 165600, Note_on_c, 0, 55, 88
5, 165759, Note_on_c, 0, 55, 0
5, 165759, Note_on_c, 0, 54, 88
5, 165920, Note_on_c, 0, 54, 0
5, 165920, Note_on_c, 0, 55, 88
5, 166080, Note_on_c, 0, 55, 0
5, 166080, Note_on_c, 0, 56, 88
5, 166239, Note_on_c, 0, 56, 0
5, 166239, Note_on_c, 0, 55, 88
5, 166400, Note_on_c, 0, 55, 0
5, 166400, Note_on_c, 0, 56, 88
5, 166560, Note_on_c, 0, 56, 0
5, 166560, Note_on_c, 0, 57, 88
5, 166719, Note_on_c, 0, 57, 0
5, 166719, Note_on_c, 0, 56, 88
5, 166880, Note_on_c, 0, 56, 0
5, 166880, Note_on_c, 0, 57, 88
5, 167040, Note_on_c, 0, 57, 0
5, 194880, Control_c, 0, 64, 127
5, 194880, Note_on_c, 0, 52, 88
5, 194880, Note_on_c, 0, 56, 88
5, 196320, Note_on_c, 0, 56, 0
5, 196320, Note_on_c, 0, 52, 0
5, 199680, Note_on_c, 0, 52, 75
5, 199680, Note_on_c, 0, 56, 75
5, 199680, Note_on_c, 0, 60, 75
5, 199680, Note_on_c, 0, 64, 75
5, 200160, Note_on_c, 0, 64, 0
5, 200160, Note_on_c, 0, 52, 0
5, 200160, Note_on_c, 0, 56, 0
5, 200160, Note_on_c, 0, 60, 0
5, 200160, Control_c, 0, 64, 0
5, 200160, Note_on_c, 0, 52, 75
5, 200160, Note_on_c, 0, 56, 75
5, 200160, Note_on_c, 0, 60, 75
5, 200160, Note_on_c, 0, 64, 75
5, 200640, Note_on_c, 0, 64, 0
5, 200640, Note_on_c, 0, 52, 0
5, 200640, Note_on_c, 0, 56, 0
5, 200640, Note_on_c, 0, 60, 0
5, 201120, Note_on_c, 0, 40, 88
5, 201120, Note_on_c, 0, 45, 88
5, 201120, Note_on_c, 0, 48, 88
5, 201120, Note_on_c, 0, 53, 88
5, 203520, Note_on_c, 0, 53, 0
5, 203520, Note_on_c, 0, 40, 0
5, 203520, Note_on_c, 0, 45, 0
5, 203520, Note_on_c, 0, 48, 0
5, 203520, Note_on_c, 0, 52, 88
5, 203520, Note_on_c, 0, 53, 88
5, 203520, Note_on_c, 0, 57, 88
5, 204960, Note_on_c, 0, 57, 0
5, 204960, Note_on_c, 0, 53, 0
5, 204960, Note_on_c, 0, 52, 0
5, 205440, Note_on_c, 0, 40, 75
5, 205440, Note_on_c, 0, 44, 75
5, 205440, Note_on_c, 0, 47, 75
5, 205440, Note_on_c, 0, 52, 75
5, 206400, Note_on_c, 0, 52, 0
5, 206400, Note_on_c, 0, 40, 0
5, 206400, Note_on_c, 0, 44, 0
5, 206400, Note_on_c, 0, 47, 0
5, 206400, Note_on_c, 0, 52, 75
5, 206400, Note_on_c, 0, 54, 75
5, 206400, Note_on_c, 0, 57, 75
5, 207840, Note_on_c, 0, 57, 0
5, 207840, Note_on_c, 0, 54, 0
5, 207840, Note_on_c, 0, 52, 0
5, 207840, Note_on_c, 0, 52, 75
5, 207840, Note_on_c, 0, 56, 75
5, 209280, Note_on_c, 0, 56, 0
5, 209280, Note_on_c, 0, 52, 0
5, 209280, Note_on_c, 0, 54, 75
5, 209280, Note_on_c, 0, 57, 75
5, 210720, Note_on_c, 0, 57, 0
5, 210720, Note_on_c, 0, 54, 0
5, 210720, Note_on_c, 0, 52, 75
5, 210720, Note_on_c, 0, 56, 75
5, 212160, Note_on_c, 0, 56, 0
5, 212160, Note_on_c, 0, 52, 0
5, 212160, Note_on_c, 0, 40, 75
5, 213600, Note_on_c, 0, 40, 0
5, 213600, Note_on_c, 0, 40, 75
5, 215040, Note_on_c, 0, 40, 0
5, 215040, Note_on_c, 0, 40, 62
5, 216480, Note_on_c, 0, 40, 0
5, 216480, Note_on_c, 0, 40, 62
5, 216639, Note_on_c, 0, 40, 0
5, 216639, Note_on_c, 0, 40, 62
5, 216800, Note_on_c, 0, 40, 0
5, 216800, Note_on_c, 0, 40, 62
5, 216960, Note_on_c, 0, 40, 0
5, 216960, Note_on_c, 0, 40, 62
5, 217119, Note_on_c, 0, 40, 0
5, 217119, Note_on_c, 0, 40, 62
5, 217280, Note_on_c, 0, 40, 0
5, 217280, Note_on_c, 0, 40, 62
5, 217440, Note_on_c, 0, 40, 0
5, 217440, Note_on_c, 0, 40, 62
5, 217599, Note_on_c, 0, 40, 0
5, 217599, Note_on_c, 0, 40, 62
5, 217760, Note_on_c, 0, 40, 0
5, 217760, Note_on_c, 0, 40, 62
5, 217920, Note_on_c, 0, 40, 0
5, 217920, End_track
0, 0, End_of_file
