0, 0, Header, 1, 5, 480
1, 0, Start_track
1, 0, Title_t, "tchaikovsky swan lake supplement 1c coda"
1, 0, Copyright_t, "Adaptation for Disklavier pianos, by: Robert C. Kuhmann (c) 2012."
1, 0, Text_t, "Seq. (c) by: Segundo G. Yogore,  2007\012"
1, 0, Time_signature, 2, 2, 24, 8
1, 0, Key_signature, 3, "major"
1, 0, Tempo, 363636
1, 174720, Time_signature, 8, 2, 24, 8
1, 174720, End_track
2, 0, Start_track
2, 0, Title_t, "Grand Piano"
2, 0, Program_c, 0, 0
2, 0, Control_c, 0, 7, 115
2, 0, Control_c, 0, 10, 86
2, 0, Note_on_c, 0, 57, 57
2, 0, Note_on_c, 0, 61, 57
2, 47, Note_on_c, 0, 61, 0
2, 47, Note_on_c, 0, 57, 0
2, 240, Note_on_c, 0, 61, 57
2, 240, Note_on_c, 0, 69, 57
2, 287, Note_on_c, 0, 69, 0
2, 287, Note_on_c, 0, 61, 0
2, 480, Note_on_c, 0, 57, 57
2, 480, Note_on_c, 0, 61, 57
2, 527, Note_on_c, 0, 61, 0
2, 527, Note_on_c, 0, 57, 0
2, 720, Note_on_c, 0, 61, 57
2, 720, Note_on_c, 0, 69, 57
2, 767, Note_on_c, 0, 69, 0
2, 767, Note_on_c, 0, 61, 0
2, 960, Note_on_c, 0, 57, 57
2, 960, Note_on_c, 0, 61, 57
2, 1007, Note_on_c, 0, 61, 0
2, 1007, Note_on_c, 0, 57, 0
2, 1200, Note_on_c, 0, 61, 57
2, 1200, Note_on_c, 0, 69, 57
2, 1247, Note_on_c, 0, 69, 0
2, 1247, Note_on_c, 0, 61, 0
2, 1440, Note_on_c, 0, 76, 70
2, 1800, Note_on_c, 0, 76, 0
2, 1800, Note_on_c, 0, 78, 70
2, 1860, Note_on_c, 0, 78, 0
2, 1860, Note_on_c, 0, 76, 70
2, 1920, Note_on_c, 0, 76, 0
2, 1920, Note_on_c, 0, 75, 70
2, 1967, Note_on_c, 0, 75, 0
2, 2160, Note_on_c, 0, 76, 70
2, 2207, Note_on_c, 0, 76, 0
2, 2400, Note_on_c, 0, 78, 70
2, 2447, Note_on_c, 0, 78, 0
2, 2640, Note_on_c, 0, 80, 70
2, 2687, Note_on_c, 0, 80, 0
2, 2880, Note_on_c, 0, 81, 70
2, 2927, Note_on_c, 0, 81, 0
2, 3360, Note_on_c, 0, 83, 70
2, 3407, Note_on_c, 0, 83, 0
2, 3840, Note_on_c, 0, 84, 70
2, 3887, Note_on_c, 0, 84, 0
2, 4320, Note_on_c, 0, 85, 96
2, 5280, Note_on_c, 0, 85, 0
2, 5280, Note_on_c, 0, 86, 70
2, 5640, Note_on_c, 0, 86, 0
2, 5640, Note_on_c, 0, 88, 70
2, 5700, Note_on_c, 0, 88, 0
2, 5700, Note_on_c, 0, 86, 70
2, 5760, Note_on_c, 0, 86, 0
2, 5760, Note_on_c, 0, 84, 70
2, 5807, Note_on_c, 0, 84, 0
2, 6240, Note_on_c, 0, 85, 96
2, 7200, Note_on_c, 0, 85, 0
2, 7200, Note_on_c, 0, 88, 70
2, 7560, Note_on_c, 0, 88, 0
2, 7560, Note_on_c, 0, 90, 70
2, 7620, Note_on_c, 0, 90, 0
2, 7620, Note_on_c, 0, 88, 70
2, 7680, Note_on_c, 0, 88, 0
2, 7680, Note_on_c, 0, 83, 70
2, 7727, Note_on_c, 0, 83, 0
2, 7920, Note_on_c, 0, 85, 70
2, 7967, Note_on_c, 0, 85, 0
2, 8160, Note_on_c, 0, 82, 70
2, 8207, Note_on_c, 0, 82, 0
2, 8400, Note_on_c, 0, 85, 70
2, 8447, Note_on_c, 0, 85, 0
2, 8640, Note_on_c, 0, 83, 70
2, 8736, Note_on_c, 0, 83, 0
2, 9120, Note_on_c, 0, 76, 70
2, 9480, Note_on_c, 0, 76, 0
2, 9480, Note_on_c, 0, 78, 70
2, 9540, Note_on_c, 0, 78, 0
2, 9540, Note_on_c, 0, 76, 70
2, 9600, Note_on_c, 0, 76, 0
2, 9600, Note_on_c, 0, 75, 70
2, 9647, Note_on_c, 0, 75, 0
2, 9840, Note_on_c, 0, 76, 70
2, 9887, Note_on_c, 0, 76, 0
2, 10080, Note_on_c, 0, 78, 70
2, 10127, Note_on_c, 0, 78, 0
2, 10320, Note_on_c, 0, 80, 70
2, 10367, Note_on_c, 0, 80, 0
2, 10560, Note_on_c, 0, 81, 70
2, 10607, Note_on_c, 0, 81, 0
2, 11040, Note_on_c, 0, 83, 70
2, 11087, Note_on_c, 0, 83, 0
2, 11520, Note_on_c, 0, 84, 70
2, 11567, Note_on_c, 0, 84, 0
2, 12000, Note_on_c, 0, 85, 96
2, 12960, Note_on_c, 0, 85, 0
2, 12960, Note_on_c, 0, 88, 70
2, 13320, Note_on_c, 0, 88, 0
2, 13320, Note_on_c, 0, 90, 70
2, 13380, Note_on_c, 0, 90, 0
2, 13380, Note_on_c, 0, 88, 70
2, 13440, Note_on_c, 0, 88, 0
2, 13440, Note_on_c, 0, 85, 70
2, 13680, Note_on_c, 0, 85, 0
2, 13920, Note_on_c, 0, 92, 96
2, 14640, Note_on_c, 0, 92, 0
2, 14640, Note_on_c, 0, 90, 70
2, 14760, Note_on_c, 0, 90, 0
2, 14760, Note_on_c, 0, 78, 70
2, 14880, Note_on_c, 0, 78, 0
2, 14880, Note_on_c, 0, 88, 70
2, 15000, Note_on_c, 0, 88, 0
2, 15000, Note_on_c, 0, 76, 70
2, 15120, Note_on_c, 0, 76, 0
2, 15120, Note_on_c, 0, 87, 70
2, 15240, Note_on_c, 0, 87, 0
2, 15240, Note_on_c, 0, 75, 70
2, 15360, Note_on_c, 0, 75, 0
2, 15360, Note_on_c, 0, 85, 70
2, 15480, Note_on_c, 0, 85, 0
2, 15480, Note_on_c, 0, 73, 70
2, 15600, Note_on_c, 0, 73, 0
2, 15600, Note_on_c, 0, 83, 70
2, 15720, Note_on_c, 0, 83, 0
2, 15720, Note_on_c, 0, 71, 70
2, 15840, Note_on_c, 0, 71, 0
2, 15840, Note_on_c, 0, 85, 83
2, 15960, Note_on_c, 0, 85, 0
2, 15960, Note_on_c, 0, 73, 83
2, 16080, Note_on_c, 0, 73, 0
2, 16080, Note_on_c, 0, 87, 83
2, 16200, Note_on_c, 0, 87, 0
2, 16200, Note_on_c, 0, 75, 83
2, 16320, Note_on_c, 0, 75, 0
2, 16320, Note_on_c, 0, 78, 109
2, 16320, Note_on_c, 0, 90, 109
2, 16560, Note_on_c, 0, 90, 0
2, 16560, Note_on_c, 0, 78, 0
2, 16560, Note_on_c, 0, 76, 83
2, 16560, Note_on_c, 0, 88, 83
2, 16800, Note_on_c, 0, 88, 0
2, 16800, Note_on_c, 0, 76, 0
2, 16800, Note_on_c, 0, 76, 70
2, 17160, Note_on_c, 0, 76, 0
2, 17160, Note_on_c, 0, 78, 70
2, 17220, Note_on_c, 0, 78, 0
2, 17220, Note_on_c, 0, 76, 70
2, 17280, Note_on_c, 0, 76, 0
2, 17280, Note_on_c, 0, 75, 70
2, 17520, Note_on_c, 0, 75, 0
2, 17520, Note_on_c, 0, 76, 70
2, 17567, Note_on_c, 0, 76, 0
2, 17760, Note_on_c, 0, 78, 70
2, 17807, Note_on_c, 0, 78, 0
2, 18000, Note_on_c, 0, 80, 70
2, 18047, Note_on_c, 0, 80, 0
2, 18240, Note_on_c, 0, 81, 70
2, 18287, Note_on_c, 0, 81, 0
2, 18720, Note_on_c, 0, 83, 70
2, 18767, Note_on_c, 0, 83, 0
2, 19200, Note_on_c, 0, 84, 70
2, 19247, Note_on_c, 0, 84, 0
2, 19680, Note_on_c, 0, 85, 96
2, 20640, Note_on_c, 0, 85, 0
2, 20640, Note_on_c, 0, 86, 70
2, 21000, Note_on_c, 0, 86, 0
2, 21000, Note_on_c, 0, 88, 70
2, 21060, Note_on_c, 0, 88, 0
2, 21060, Note_on_c, 0, 86, 70
2, 21120, Note_on_c, 0, 86, 0
2, 21120, Note_on_c, 0, 84, 70
2, 21167, Note_on_c, 0, 84, 0
2, 21600, Note_on_c, 0, 85, 96
2, 22560, Note_on_c, 0, 85, 0
2, 22560, Note_on_c, 0, 88, 70
2, 22920, Note_on_c, 0, 88, 0
2, 22920, Note_on_c, 0, 90, 70
2, 22980, Note_on_c, 0, 90, 0
2, 22980, Note_on_c, 0, 88, 70
2, 23040, Note_on_c, 0, 88, 0
2, 23040, Note_on_c, 0, 83, 70
2, 23087, Note_on_c, 0, 83, 0
2, 23280, Note_on_c, 0, 85, 70
2, 23327, Note_on_c, 0, 85, 0
2, 23520, Note_on_c, 0, 82, 70
2, 23567, Note_on_c, 0, 82, 0
2, 23760, Note_on_c, 0, 85, 70
2, 23807, Note_on_c, 0, 85, 0
2, 24000, Note_on_c, 0, 83, 70
2, 24096, Note_on_c, 0, 83, 0
2, 24480, Note_on_c, 0, 76, 70
2, 24840, Note_on_c, 0, 76, 0
2, 24840, Note_on_c, 0, 78, 70
2, 24900, Note_on_c, 0, 78, 0
2, 24900, Note_on_c, 0, 76, 70
2, 24960, Note_on_c, 0, 76, 0
2, 24960, Note_on_c, 0, 75, 70
2, 25007, Note_on_c, 0, 75, 0
2, 25200, Note_on_c, 0, 76, 70
2, 25247, Note_on_c, 0, 76, 0
2, 25440, Note_on_c, 0, 78, 70
2, 25487, Note_on_c, 0, 78, 0
2, 25680, Note_on_c, 0, 80, 70
2, 25727, Note_on_c, 0, 80, 0
2, 25920, Note_on_c, 0, 81, 70
2, 25967, Note_on_c, 0, 81, 0
2, 26400, Note_on_c, 0, 83, 70
2, 26447, Note_on_c, 0, 83, 0
2, 26880, Note_on_c, 0, 84, 70
2, 26927, Note_on_c, 0, 84, 0
2, 27360, Note_on_c, 0, 85, 96
2, 28320, Note_on_c, 0, 85, 0
2, 28320, Note_on_c, 0, 88, 70
2, 28680, Note_on_c, 0, 88, 0
2, 28680, Note_on_c, 0, 90, 70
2, 28740, Note_on_c, 0, 90, 0
2, 28740, Note_on_c, 0, 88, 70
2, 28800, Note_on_c, 0, 88, 0
2, 28800, Note_on_c, 0, 85, 70
2, 28847, Note_on_c, 0, 85, 0
2, 29280, Note_on_c, 0, 92, 96
2, 30000, Note_on_c, 0, 92, 0
2, 30000, Note_on_c, 0, 90, 70
2, 30120, Note_on_c, 0, 90, 0
2, 30120, Note_on_c, 0, 78, 70
2, 30240, Note_on_c, 0, 78, 0
2, 30240, Note_on_c, 0, 85, 70
2, 30360, Note_on_c, 0, 85, 0
2, 30360, Note_on_c, 0, 73, 70
2, 30480, Note_on_c, 0, 73, 0
2, 30480, Note_on_c, 0, 87, 70
2, 30600, Note_on_c, 0, 87, 0
2, 30600, Note_on_c, 0, 75, 70
2, 30720, Note_on_c, 0, 75, 0
2, 30720, Note_on_c, 0, 76, 70
2, 30720, Note_on_c, 0, 80, 70
2, 30720, Note_on_c, 0, 83, 70
2, 30720, Note_on_c, 0, 88, 70
2, 30960, Note_on_c, 0, 88, 0
2, 30960, Note_on_c, 0, 76, 0
2, 30960, Note_on_c, 0, 80, 0
2, 30960, Note_on_c, 0, 83, 0
2, 31200, Note_on_c, 0, 76, 96
2, 31200, Note_on_c, 0, 80, 96
2, 31200, Note_on_c, 0, 83, 96
2, 31200, Note_on_c, 0, 88, 96
2, 31440, Note_on_c, 0, 88, 0
2, 31440, Note_on_c, 0, 76, 0
2, 31440, Note_on_c, 0, 80, 0
2, 31440, Note_on_c, 0, 83, 0
2, 32160, Note_on_c, 0, 76, 70
2, 32520, Note_on_c, 0, 76, 0
2, 32520, Note_on_c, 0, 78, 70
2, 32580, Note_on_c, 0, 78, 0
2, 32580, Note_on_c, 0, 76, 70
2, 32640, Note_on_c, 0, 76, 0
2, 32640, Note_on_c, 0, 74, 70
2, 32687, Note_on_c, 0, 74, 0
2, 32880, Note_on_c, 0, 73, 70
2, 32927, Note_on_c, 0, 73, 0
2, 33120, Note_on_c, 0, 71, 70
2, 33167, Note_on_c, 0, 71, 0
2, 33360, Note_on_c, 0, 70, 70
2, 33407, Note_on_c, 0, 70, 0
2, 33600, Note_on_c, 0, 73, 70
2, 33647, Note_on_c, 0, 73, 0
2, 34080, Note_on_c, 0, 71, 70
2, 34127, Note_on_c, 0, 71, 0
2, 34320, Note_on_c, 0, 68, 70
2, 34320, Note_on_c, 0, 76, 70
2, 34560, Note_on_c, 0, 76, 0
2, 34560, Note_on_c, 0, 68, 0
2, 34560, Note_on_c, 0, 74, 70
2, 34607, Note_on_c, 0, 74, 0
2, 35040, Note_on_c, 0, 73, 96
2, 35760, Note_on_c, 0, 73, 0
2, 35760, Note_on_c, 0, 74, 70
2, 35807, Note_on_c, 0, 74, 0
2, 36000, Note_on_c, 0, 75, 70
2, 36047, Note_on_c, 0, 75, 0
2, 36240, Note_on_c, 0, 76, 70
2, 36287, Note_on_c, 0, 76, 0
2, 36480, Note_on_c, 0, 78, 70
2, 36527, Note_on_c, 0, 78, 0
2, 36960, Note_on_c, 0, 76, 96
2, 37680, Note_on_c, 0, 76, 0
2, 37680, Note_on_c, 0, 78, 70
2, 37920, Note_on_c, 0, 78, 0
2, 37920, Note_on_c, 0, 81, 70
2, 38160, Note_on_c, 0, 81, 0
2, 38160, Note_on_c, 0, 78, 70
2, 38207, Note_on_c, 0, 78, 0
2, 38400, Note_on_c, 0, 81, 70
2, 38447, Note_on_c, 0, 81, 0
2, 38640, Note_on_c, 0, 80, 70
2, 38880, Note_on_c, 0, 80, 0
2, 38880, Note_on_c, 0, 78, 70
2, 39120, Note_on_c, 0, 78, 0
2, 39120, Note_on_c, 0, 80, 70
2, 39167, Note_on_c, 0, 80, 0
2, 39360, Note_on_c, 0, 76, 70
2, 39456, Note_on_c, 0, 76, 0
2, 39840, Note_on_c, 0, 80, 83
2, 39840, Note_on_c, 0, 83, 83
2, 39840, Note_on_c, 0, 88, 83
2, 40200, Note_on_c, 0, 88, 0
2, 40200, Note_on_c, 0, 83, 0
2, 40200, Note_on_c, 0, 80, 0
2, 40200, Note_on_c, 0, 90, 83
2, 40260, Note_on_c, 0, 90, 0
2, 40260, Note_on_c, 0, 88, 83
2, 40320, Note_on_c, 0, 88, 0
2, 40320, Note_on_c, 0, 86, 83
2, 40367, Note_on_c, 0, 86, 0
2, 40560, Note_on_c, 0, 85, 83
2, 40607, Note_on_c, 0, 85, 0
2, 40800, Note_on_c, 0, 76, 83
2, 40800, Note_on_c, 0, 80, 83
2, 40800, Note_on_c, 0, 83, 83
2, 40847, Note_on_c, 0, 83, 0
2, 40847, Note_on_c, 0, 80, 0
2, 40847, Note_on_c, 0, 76, 0
2, 41040, Note_on_c, 0, 82, 83
2, 41087, Note_on_c, 0, 82, 0
2, 41280, Note_on_c, 0, 85, 83
2, 41327, Note_on_c, 0, 85, 0
2, 41760, Note_on_c, 0, 83, 83
2, 41807, Note_on_c, 0, 83, 0
2, 42000, Note_on_c, 0, 76, 83
2, 42000, Note_on_c, 0, 80, 83
2, 42000, Note_on_c, 0, 88, 83
2, 42240, Note_on_c, 0, 88, 0
2, 42240, Note_on_c, 0, 80, 0
2, 42240, Note_on_c, 0, 76, 0
2, 42240, Note_on_c, 0, 86, 83
2, 42287, Note_on_c, 0, 86, 0
2, 42720, Note_on_c, 0, 85, 109
2, 42960, Note_on_c, 0, 85, 0
2, 42960, Note_on_c, 0, 76, 83
2, 42960, Note_on_c, 0, 81, 83
2, 42960, Note_on_c, 0, 88, 83
2, 43200, Note_on_c, 0, 88, 0
2, 43200, Note_on_c, 0, 81, 0
2, 43200, Note_on_c, 0, 76, 0
2, 43200, Note_on_c, 0, 85, 83
2, 43440, Note_on_c, 0, 85, 0
2, 43440, Note_on_c, 0, 81, 83
2, 43440, Note_on_c, 0, 87, 83
2, 43560, Note_on_c, 0, 87, 0
2, 43560, Note_on_c, 0, 81, 0
2, 43560, Note_on_c, 0, 75, 83
2, 43680, Note_on_c, 0, 75, 0
2, 43680, Note_on_c, 0, 81, 83
2, 43680, Note_on_c, 0, 88, 83
2, 43800, Note_on_c, 0, 88, 0
2, 43800, Note_on_c, 0, 81, 0
2, 43800, Note_on_c, 0, 76, 83
2, 43920, Note_on_c, 0, 76, 0
2, 43920, Note_on_c, 0, 81, 83
2, 43920, Note_on_c, 0, 90, 83
2, 44040, Note_on_c, 0, 90, 0
2, 44040, Note_on_c, 0, 81, 0
2, 44040, Note_on_c, 0, 78, 83
2, 44160, Note_on_c, 0, 78, 0
2, 44160, Note_on_c, 0, 80, 83
2, 44160, Note_on_c, 0, 85, 83
2, 44160, Note_on_c, 0, 88, 83
2, 44160, Note_on_c, 0, 92, 83
2, 44400, Note_on_c, 0, 92, 0
2, 44400, Note_on_c, 0, 80, 0
2, 44400, Note_on_c, 0, 85, 0
2, 44400, Note_on_c, 0, 88, 0
2, 44640, Note_on_c, 0, 73, 109
2, 44640, Note_on_c, 0, 85, 109
2, 45360, Note_on_c, 0, 85, 0
2, 45360, Note_on_c, 0, 73, 0
2, 45360, Note_on_c, 0, 92, 83
2, 45480, Note_on_c, 0, 92, 0
2, 45480, Note_on_c, 0, 80, 83
2, 45600, Note_on_c, 0, 80, 0
2, 45600, Note_on_c, 0, 88, 83
2, 45720, Note_on_c, 0, 88, 0
2, 45720, Note_on_c, 0, 76, 83
2, 45840, Note_on_c, 0, 76, 0
2, 45840, Note_on_c, 0, 87, 83
2, 45960, Note_on_c, 0, 87, 0
2, 45960, Note_on_c, 0, 75, 83
2, 46080, Note_on_c, 0, 75, 0
2, 46080, Note_on_c, 0, 85, 83
2, 46200, Note_on_c, 0, 85, 0
2, 46200, Note_on_c, 0, 73, 83
2, 46320, Note_on_c, 0, 73, 0
2, 46320, Note_on_c, 0, 80, 83
2, 46440, Note_on_c, 0, 80, 0
2, 46440, Note_on_c, 0, 68, 83
2, 46560, Note_on_c, 0, 68, 0
2, 46560, Note_on_c, 0, 76, 83
2, 46680, Note_on_c, 0, 76, 0
2, 46680, Note_on_c, 0, 64, 83
2, 46800, Note_on_c, 0, 64, 0
2, 46800, Note_on_c, 0, 75, 83
2, 46920, Note_on_c, 0, 75, 0
2, 46920, Note_on_c, 0, 63, 83
2, 47040, Note_on_c, 0, 63, 0
2, 47040, Note_on_c, 0, 61, 83
2, 47040, Note_on_c, 0, 73, 83
2, 47280, Note_on_c, 0, 73, 0
2, 47280, Note_on_c, 0, 61, 0
2, 47520, Note_on_c, 0, 76, 70
2, 47880, Note_on_c, 0, 76, 0
2, 47880, Note_on_c, 0, 78, 70
2, 47940, Note_on_c, 0, 78, 0
2, 47940, Note_on_c, 0, 76, 70
2, 48000, Note_on_c, 0, 76, 0
2, 48000, Note_on_c, 0, 74, 70
2, 48047, Note_on_c, 0, 74, 0
2, 48240, Note_on_c, 0, 73, 70
2, 48287, Note_on_c, 0, 73, 0
2, 48480, Note_on_c, 0, 71, 70
2, 48527, Note_on_c, 0, 71, 0
2, 48720, Note_on_c, 0, 70, 70
2, 48767, Note_on_c, 0, 70, 0
2, 48960, Note_on_c, 0, 73, 70
2, 49007, Note_on_c, 0, 73, 0
2, 49440, Note_on_c, 0, 71, 70
2, 49487, Note_on_c, 0, 71, 0
2, 49680, Note_on_c, 0, 68, 70
2, 49680, Note_on_c, 0, 76, 70
2, 49920, Note_on_c, 0, 76, 0
2, 49920, Note_on_c, 0, 68, 0
2, 49920, Note_on_c, 0, 74, 70
2, 49967, Note_on_c, 0, 74, 0
2, 50400, Note_on_c, 0, 73, 96
2, 51120, Note_on_c, 0, 73, 0
2, 51120, Note_on_c, 0, 74, 70
2, 51167, Note_on_c, 0, 74, 0
2, 51360, Note_on_c, 0, 75, 70
2, 51407, Note_on_c, 0, 75, 0
2, 51600, Note_on_c, 0, 76, 70
2, 51647, Note_on_c, 0, 76, 0
2, 51840, Note_on_c, 0, 78, 70
2, 51887, Note_on_c, 0, 78, 0
2, 52320, Note_on_c, 0, 76, 96
2, 53040, Note_on_c, 0, 76, 0
2, 53040, Note_on_c, 0, 78, 70
2, 53280, Note_on_c, 0, 78, 0
2, 53280, Note_on_c, 0, 81, 70
2, 53520, Note_on_c, 0, 81, 0
2, 53520, Note_on_c, 0, 78, 70
2, 53567, Note_on_c, 0, 78, 0
2, 53760, Note_on_c, 0, 81, 70
2, 53807, Note_on_c, 0, 81, 0
2, 54000, Note_on_c, 0, 80, 70
2, 54240, Note_on_c, 0, 80, 0
2, 54240, Note_on_c, 0, 78, 70
2, 54480, Note_on_c, 0, 78, 0
2, 54480, Note_on_c, 0, 80, 70
2, 54527, Note_on_c, 0, 80, 0
2, 54720, Note_on_c, 0, 76, 70
2, 54816, Note_on_c, 0, 76, 0
2, 55200, Note_on_c, 0, 80, 83
2, 55200, Note_on_c, 0, 83, 83
2, 55200, Note_on_c, 0, 88, 83
2, 55560, Note_on_c, 0, 88, 0
2, 55560, Note_on_c, 0, 83, 0
2, 55560, Note_on_c, 0, 80, 0
2, 55560, Note_on_c, 0, 90, 83
2, 55620, Note_on_c, 0, 90, 0
2, 55620, Note_on_c, 0, 88, 83
2, 55680, Note_on_c, 0, 88, 0
2, 55680, Note_on_c, 0, 86, 83
2, 55727, Note_on_c, 0, 86, 0
2, 55920, Note_on_c, 0, 85, 83
2, 55967, Note_on_c, 0, 85, 0
2, 56160, Note_on_c, 0, 76, 83
2, 56160, Note_on_c, 0, 80, 83
2, 56160, Note_on_c, 0, 83, 83
2, 56207, Note_on_c, 0, 83, 0
2, 56207, Note_on_c, 0, 80, 0
2, 56207, Note_on_c, 0, 76, 0
2, 56400, Note_on_c, 0, 82, 83
2, 56447, Note_on_c, 0, 82, 0
2, 56640, Note_on_c, 0, 85, 83
2, 56687, Note_on_c, 0, 85, 0
2, 57120, Note_on_c, 0, 83, 83
2, 57167, Note_on_c, 0, 83, 0
2, 57360, Note_on_c, 0, 76, 83
2, 57360, Note_on_c, 0, 80, 83
2, 57360, Note_on_c, 0, 88, 83
2, 57600, Note_on_c, 0, 88, 0
2, 57600, Note_on_c, 0, 80, 0
2, 57600, Note_on_c, 0, 76, 0
2, 57600, Note_on_c, 0, 86, 83
2, 57647, Note_on_c, 0, 86, 0
2, 58080, Note_on_c, 0, 85, 109
2, 58320, Note_on_c, 0, 85, 0
2, 58320, Note_on_c, 0, 76, 83
2, 58320, Note_on_c, 0, 81, 83
2, 58320, Note_on_c, 0, 88, 83
2, 58560, Note_on_c, 0, 88, 0
2, 58560, Note_on_c, 0, 81, 0
2, 58560, Note_on_c, 0, 76, 0
2, 58560, Note_on_c, 0, 85, 83
2, 58800, Note_on_c, 0, 85, 0
2, 58800, Note_on_c, 0, 81, 83
2, 58800, Note_on_c, 0, 87, 83
2, 58920, Note_on_c, 0, 87, 0
2, 58920, Note_on_c, 0, 81, 0
2, 58920, Note_on_c, 0, 75, 83
2, 59040, Note_on_c, 0, 75, 0
2, 59040, Note_on_c, 0, 81, 83
2, 59040, Note_on_c, 0, 88, 83
2, 59160, Note_on_c, 0, 88, 0
2, 59160, Note_on_c, 0, 81, 0
2, 59160, Note_on_c, 0, 76, 83
2, 59280, Note_on_c, 0, 76, 0
2, 59280, Note_on_c, 0, 81, 83
2, 59280, Note_on_c, 0, 90, 83
2, 59400, Note_on_c, 0, 90, 0
2, 59400, Note_on_c, 0, 81, 0
2, 59400, Note_on_c, 0, 78, 83
2, 59520, Note_on_c, 0, 78, 0
2, 59520, Note_on_c, 0, 80, 83
2, 59520, Note_on_c, 0, 85, 83
2, 59520, Note_on_c, 0, 88, 83
2, 59520, Note_on_c, 0, 92, 83
2, 59760, Note_on_c, 0, 92, 0
2, 59760, Note_on_c, 0, 80, 0
2, 59760, Note_on_c, 0, 85, 0
2, 59760, Note_on_c, 0, 88, 0
2, 60000, Note_on_c, 0, 73, 109
2, 60000, Note_on_c, 0, 85, 109
2, 60720, Note_on_c, 0, 85, 0
2, 60720, Note_on_c, 0, 73, 0
2, 60720, Note_on_c, 0, 92, 83
2, 60840, Note_on_c, 0, 92, 0
2, 60840, Note_on_c, 0, 80, 83
2, 60960, Note_on_c, 0, 80, 0
2, 60960, Note_on_c, 0, 88, 83
2, 61080, Note_on_c, 0, 88, 0
2, 61080, Note_on_c, 0, 76, 83
2, 61200, Note_on_c, 0, 76, 0
2, 61200, Note_on_c, 0, 87, 83
2, 61320, Note_on_c, 0, 87, 0
2, 61320, Note_on_c, 0, 75, 83
2, 61440, Note_on_c, 0, 75, 0
2, 61440, Note_on_c, 0, 85, 83
2, 61560, Note_on_c, 0, 85, 0
2, 61560, Note_on_c, 0, 73, 83
2, 61680, Note_on_c, 0, 73, 0
2, 61680, Note_on_c, 0, 80, 83
2, 61800, Note_on_c, 0, 80, 0
2, 61800, Note_on_c, 0, 68, 83
2, 61920, Note_on_c, 0, 68, 0
2, 61920, Note_on_c, 0, 76, 83
2, 62040, Note_on_c, 0, 76, 0
2, 62040, Note_on_c, 0, 64, 83
2, 62160, Note_on_c, 0, 64, 0
2, 62160, Note_on_c, 0, 75, 83
2, 62280, Note_on_c, 0, 75, 0
2, 62280, Note_on_c, 0, 63, 83
2, 62400, Note_on_c, 0, 63, 0
2, 62400, Note_on_c, 0, 61, 83
2, 62400, Note_on_c, 0, 73, 83
2, 62640, Note_on_c, 0, 73, 0
2, 62640, Note_on_c, 0, 61, 0
2, 62880, Note_on_c, 0, 76, 83
2, 63240, Note_on_c, 0, 76, 0
2, 63240, Note_on_c, 0, 78, 83
2, 63300, Note_on_c, 0, 78, 0
2, 63300, Note_on_c, 0, 76, 83
2, 63360, Note_on_c, 0, 76, 0
2, 63360, Note_on_c, 0, 69, 83
2, 63360, Note_on_c, 0, 73, 83
2, 63360, Note_on_c, 0, 75, 83
2, 63407, Note_on_c, 0, 75, 0
2, 63407, Note_on_c, 0, 73, 0
2, 63407, Note_on_c, 0, 69, 0
2, 63600, Note_on_c, 0, 76, 83
2, 63647, Note_on_c, 0, 76, 0
2, 63840, Note_on_c, 0, 69, 83
2, 63840, Note_on_c, 0, 73, 83
2, 63840, Note_on_c, 0, 78, 83
2, 63887, Note_on_c, 0, 78, 0
2, 63887, Note_on_c, 0, 73, 0
2, 63887, Note_on_c, 0, 69, 0
2, 64080, Note_on_c, 0, 80, 83
2, 64127, Note_on_c, 0, 80, 0
2, 64320, Note_on_c, 0, 69, 83
2, 64320, Note_on_c, 0, 73, 83
2, 64320, Note_on_c, 0, 81, 83
2, 64367, Note_on_c, 0, 81, 0
2, 64367, Note_on_c, 0, 73, 0
2, 64367, Note_on_c, 0, 69, 0
2, 64560, Note_on_c, 0, 76, 83
2, 64607, Note_on_c, 0, 76, 0
2, 64800, Note_on_c, 0, 71, 83
2, 64800, Note_on_c, 0, 83, 83
2, 64847, Note_on_c, 0, 83, 0
2, 64847, Note_on_c, 0, 71, 0
2, 65040, Note_on_c, 0, 76, 83
2, 65087, Note_on_c, 0, 76, 0
2, 65280, Note_on_c, 0, 72, 83
2, 65280, Note_on_c, 0, 81, 83
2, 65280, Note_on_c, 0, 84, 83
2, 65327, Note_on_c, 0, 84, 0
2, 65327, Note_on_c, 0, 81, 0
2, 65327, Note_on_c, 0, 72, 0
2, 65520, Note_on_c, 0, 76, 83
2, 65760, Note_on_c, 0, 76, 0
2, 65760, Note_on_c, 0, 81, 109
2, 65760, Note_on_c, 0, 85, 109
2, 66720, Note_on_c, 0, 85, 0
2, 66720, Note_on_c, 0, 81, 0
2, 66720, Note_on_c, 0, 74, 83
2, 66720, Note_on_c, 0, 81, 83
2, 66720, Note_on_c, 0, 86, 83
2, 67080, Note_on_c, 0, 86, 0
2, 67080, Note_on_c, 0, 81, 0
2, 67080, Note_on_c, 0, 74, 0
2, 67080, Note_on_c, 0, 88, 83
2, 67140, Note_on_c, 0, 88, 0
2, 67140, Note_on_c, 0, 86, 83
2, 67200, Note_on_c, 0, 86, 0
2, 67200, Note_on_c, 0, 72, 83
2, 67200, Note_on_c, 0, 81, 83
2, 67200, Note_on_c, 0, 84, 83
2, 67247, Note_on_c, 0, 84, 0
2, 67247, Note_on_c, 0, 81, 0
2, 67247, Note_on_c, 0, 72, 0
2, 67440, Note_on_c, 0, 76, 83
2, 67680, Note_on_c, 0, 76, 0
2, 67680, Note_on_c, 0, 81, 109
2, 67680, Note_on_c, 0, 85, 109
2, 68640, Note_on_c, 0, 85, 0
2, 68640, Note_on_c, 0, 81, 0
2, 68640, Note_on_c, 0, 81, 83
2, 68640, Note_on_c, 0, 85, 83
2, 68640, Note_on_c, 0, 88, 83
2, 69000, Note_on_c, 0, 88, 0
2, 69000, Note_on_c, 0, 85, 0
2, 69000, Note_on_c, 0, 81, 0
2, 69000, Note_on_c, 0, 90, 83
2, 69060, Note_on_c, 0, 90, 0
2, 69060, Note_on_c, 0, 88, 83
2, 69120, Note_on_c, 0, 88, 0
2, 69120, Note_on_c, 0, 76, 83
2, 69120, Note_on_c, 0, 80, 83
2, 69120, Note_on_c, 0, 83, 83
2, 69167, Note_on_c, 0, 83, 0
2, 69167, Note_on_c, 0, 80, 0
2, 69167, Note_on_c, 0, 76, 0
2, 69360, Note_on_c, 0, 85, 83
2, 69407, Note_on_c, 0, 85, 0
2, 69600, Note_on_c, 0, 76, 83
2, 69600, Note_on_c, 0, 79, 83
2, 69600, Note_on_c, 0, 82, 83
2, 69647, Note_on_c, 0, 82, 0
2, 69647, Note_on_c, 0, 79, 0
2, 69647, Note_on_c, 0, 76, 0
2, 69840, Note_on_c, 0, 85, 83
2, 69887, Note_on_c, 0, 85, 0
2, 70080, Note_on_c, 0, 80, 83
2, 70080, Note_on_c, 0, 83, 83
2, 70127, Note_on_c, 0, 83, 0
2, 70127, Note_on_c, 0, 80, 0
2, 70320, Note_on_c, 0, 76, 83
2, 70367, Note_on_c, 0, 76, 0
2, 70560, Note_on_c, 0, 76, 83
2, 70920, Note_on_c, 0, 76, 0
2, 70920, Note_on_c, 0, 78, 83
2, 70980, Note_on_c, 0, 78, 0
2, 70980, Note_on_c, 0, 76, 83
2, 71040, Note_on_c, 0, 76, 0
2, 71040, Note_on_c, 0, 69, 83
2, 71040, Note_on_c, 0, 73, 83
2, 71040, Note_on_c, 0, 75, 83
2, 71087, Note_on_c, 0, 75, 0
2, 71087, Note_on_c, 0, 73, 0
2, 71087, Note_on_c, 0, 69, 0
2, 71280, Note_on_c, 0, 76, 83
2, 71327, Note_on_c, 0, 76, 0
2, 71520, Note_on_c, 0, 69, 83
2, 71520, Note_on_c, 0, 73, 83
2, 71520, Note_on_c, 0, 78, 83
2, 71567, Note_on_c, 0, 78, 0
2, 71567, Note_on_c, 0, 73, 0
2, 71567, Note_on_c, 0, 69, 0
2, 71760, Note_on_c, 0, 80, 83
2, 71807, Note_on_c, 0, 80, 0
2, 72000, Note_on_c, 0, 69, 83
2, 72000, Note_on_c, 0, 73, 83
2, 72000, Note_on_c, 0, 81, 83
2, 72047, Note_on_c, 0, 81, 0
2, 72047, Note_on_c, 0, 73, 0
2, 72047, Note_on_c, 0, 69, 0
2, 72240, Note_on_c, 0, 76, 83
2, 72287, Note_on_c, 0, 76, 0
2, 72480, Note_on_c, 0, 71, 83
2, 72480, Note_on_c, 0, 83, 83
2, 72527, Note_on_c, 0, 83, 0
2, 72527, Note_on_c, 0, 71, 0
2, 72720, Note_on_c, 0, 76, 83
2, 72767, Note_on_c, 0, 76, 0
2, 72960, Note_on_c, 0, 72, 83
2, 72960, Note_on_c, 0, 81, 83
2, 72960, Note_on_c, 0, 84, 83
2, 73007, Note_on_c, 0, 84, 0
2, 73007, Note_on_c, 0, 81, 0
2, 73007, Note_on_c, 0, 72, 0
2, 73200, Note_on_c, 0, 76, 83
2, 73440, Note_on_c, 0, 76, 0
2, 73440, Note_on_c, 0, 81, 109
2, 73440, Note_on_c, 0, 85, 109
2, 74400, Note_on_c, 0, 85, 0
2, 74400, Note_on_c, 0, 81, 0
2, 74400, Note_on_c, 0, 78, 83
2, 74400, Note_on_c, 0, 82, 83
2, 74400, Note_on_c, 0, 85, 83
2, 74760, Note_on_c, 0, 85, 0
2, 74760, Note_on_c, 0, 82, 0
2, 74760, Note_on_c, 0, 78, 0
2, 74760, Note_on_c, 0, 88, 83
2, 74820, Note_on_c, 0, 88, 0
2, 74820, Note_on_c, 0, 86, 83
2, 74880, Note_on_c, 0, 86, 0
2, 74880, Note_on_c, 0, 74, 83
2, 74880, Note_on_c, 0, 78, 83
2, 74880, Note_on_c, 0, 85, 83
2, 74927, Note_on_c, 0, 85, 0
2, 74927, Note_on_c, 0, 78, 0
2, 74927, Note_on_c, 0, 74, 0
2, 75120, Note_on_c, 0, 83, 83
2, 75167, Note_on_c, 0, 83, 0
2, 75360, Note_on_c, 0, 74, 83
2, 75360, Note_on_c, 0, 78, 83
2, 75360, Note_on_c, 0, 82, 83
2, 75407, Note_on_c, 0, 82, 0
2, 75407, Note_on_c, 0, 78, 0
2, 75407, Note_on_c, 0, 74, 0
2, 75600, Note_on_c, 0, 83, 83
2, 75647, Note_on_c, 0, 83, 0
2, 75840, Note_on_c, 0, 74, 83
2, 75840, Note_on_c, 0, 78, 83
2, 75840, Note_on_c, 0, 85, 83
2, 76080, Note_on_c, 0, 85, 0
2, 76080, Note_on_c, 0, 78, 0
2, 76080, Note_on_c, 0, 74, 0
2, 76080, Note_on_c, 0, 83, 83
2, 76320, Note_on_c, 0, 83, 0
2, 76320, Note_on_c, 0, 71, 83
2, 76320, Note_on_c, 0, 74, 83
2, 76320, Note_on_c, 0, 78, 83
2, 76367, Note_on_c, 0, 78, 0
2, 76367, Note_on_c, 0, 74, 0
2, 76367, Note_on_c, 0, 71, 0
2, 76560, Note_on_c, 0, 80, 83
2, 76607, Note_on_c, 0, 80, 0
2, 76800, Note_on_c, 0, 69, 83
2, 76800, Note_on_c, 0, 73, 83
2, 76800, Note_on_c, 0, 76, 83
2, 76800, Note_on_c, 0, 81, 83
2, 77040, Note_on_c, 0, 81, 0
2, 77040, Note_on_c, 0, 69, 0
2, 77040, Note_on_c, 0, 73, 0
2, 77040, Note_on_c, 0, 76, 0
2, 77100, Note_on_c, 0, 88, 83
2, 77160, Note_on_c, 0, 88, 0
2, 77160, Note_on_c, 0, 90, 83
2, 77220, Note_on_c, 0, 90, 0
2, 77220, Note_on_c, 0, 92, 83
2, 77280, Note_on_c, 0, 92, 0
2, 77280, Note_on_c, 0, 93, 83
2, 77520, Note_on_c, 0, 93, 0
2, 77760, Note_on_c, 0, 57, 83
2, 78000, Note_on_c, 0, 57, 0
2, 78240, Note_on_c, 0, 69, 70
2, 78600, Note_on_c, 0, 69, 0
2, 78600, Note_on_c, 0, 70, 70
2, 78720, Note_on_c, 0, 70, 0
2, 78720, Note_on_c, 0, 72, 70
2, 78960, Note_on_c, 0, 72, 0
2, 78960, Note_on_c, 0, 74, 70
2, 79200, Note_on_c, 0, 74, 0
2, 79200, Note_on_c, 0, 69, 83
2, 80160, Note_on_c, 0, 69, 0
2, 80160, Note_on_c, 0, 72, 57
2, 80520, Note_on_c, 0, 72, 0
2, 80520, Note_on_c, 0, 74, 57
2, 80640, Note_on_c, 0, 74, 0
2, 80640, Note_on_c, 0, 76, 57
2, 80880, Note_on_c, 0, 76, 0
2, 80880, Note_on_c, 0, 77, 83
2, 81120, Note_on_c, 0, 77, 0
2, 81120, Note_on_c, 0, 72, 83
2, 82080, Note_on_c, 0, 72, 0
2, 82080, Note_on_c, 0, 64, 57
2, 82080, Note_on_c, 0, 76, 57
2, 82440, Note_on_c, 0, 76, 0
2, 82440, Note_on_c, 0, 64, 0
2, 82440, Note_on_c, 0, 65, 57
2, 82440, Note_on_c, 0, 77, 57
2, 82560, Note_on_c, 0, 77, 0
2, 82560, Note_on_c, 0, 65, 0
2, 82560, Note_on_c, 0, 67, 83
2, 82560, Note_on_c, 0, 79, 83
2, 82800, Note_on_c, 0, 79, 0
2, 82800, Note_on_c, 0, 67, 0
2, 82800, Note_on_c, 0, 69, 83
2, 82800, Note_on_c, 0, 81, 83
2, 83040, Note_on_c, 0, 81, 0
2, 83040, Note_on_c, 0, 69, 0
2, 83040, Note_on_c, 0, 70, 83
2, 83040, Note_on_c, 0, 82, 83
2, 84000, Note_on_c, 0, 82, 0
2, 84000, Note_on_c, 0, 70, 0
2, 84000, Note_on_c, 0, 67, 83
2, 84000, Note_on_c, 0, 79, 83
2, 84360, Note_on_c, 0, 79, 0
2, 84360, Note_on_c, 0, 67, 0
2, 84360, Note_on_c, 0, 69, 83
2, 84360, Note_on_c, 0, 81, 83
2, 84480, Note_on_c, 0, 81, 0
2, 84480, Note_on_c, 0, 69, 0
2, 84480, Note_on_c, 0, 70, 83
2, 84480, Note_on_c, 0, 82, 83
2, 84960, Note_on_c, 0, 82, 0
2, 84960, Note_on_c, 0, 70, 0
2, 84960, Note_on_c, 0, 67, 83
2, 84960, Note_on_c, 0, 79, 83
2, 85320, Note_on_c, 0, 79, 0
2, 85320, Note_on_c, 0, 67, 0
2, 85320, Note_on_c, 0, 69, 83
2, 85320, Note_on_c, 0, 81, 83
2, 85440, Note_on_c, 0, 81, 0
2, 85440, Note_on_c, 0, 69, 0
2, 85440, Note_on_c, 0, 70, 83
2, 85440, Note_on_c, 0, 82, 83
2, 85920, Note_on_c, 0, 82, 0
2, 85920, Note_on_c, 0, 70, 0
2, 85920, Note_on_c, 0, 81, 70
2, 86160, Note_on_c, 0, 81, 0
2, 86400, Note_on_c, 0, 72, 70
2, 86640, Note_on_c, 0, 72, 0
2, 86640, Note_on_c, 0, 74, 70
2, 86880, Note_on_c, 0, 74, 0
2, 86880, Note_on_c, 0, 69, 83
2, 87840, Note_on_c, 0, 69, 0
2, 87840, Note_on_c, 0, 72, 83
2, 88200, Note_on_c, 0, 72, 0
2, 88200, Note_on_c, 0, 74, 83
2, 88320, Note_on_c, 0, 74, 0
2, 88320, Note_on_c, 0, 76, 83
2, 88560, Note_on_c, 0, 76, 0
2, 88560, Note_on_c, 0, 77, 83
2, 88800, Note_on_c, 0, 77, 0
2, 88800, Note_on_c, 0, 72, 83
2, 89760, Note_on_c, 0, 72, 0
2, 89760, Note_on_c, 0, 65, 83
2, 89760, Note_on_c, 0, 77, 83
2, 90120, Note_on_c, 0, 77, 0
2, 90120, Note_on_c, 0, 65, 0
2, 90120, Note_on_c, 0, 67, 83
2, 90120, Note_on_c, 0, 79, 83
2, 90240, Note_on_c, 0, 79, 0
2, 90240, Note_on_c, 0, 67, 0
2, 90240, Note_on_c, 0, 69, 96
2, 90240, Note_on_c, 0, 75, 96
2, 90240, Note_on_c, 0, 81, 96
2, 90480, Note_on_c, 0, 81, 0
2, 90480, Note_on_c, 0, 75, 0
2, 90480, Note_on_c, 0, 69, 0
2, 90480, Note_on_c, 0, 71, 96
2, 90480, Note_on_c, 0, 83, 96
2, 90720, Note_on_c, 0, 83, 0
2, 90720, Note_on_c, 0, 71, 0
2, 90720, Note_on_c, 0, 72, 96
2, 90720, Note_on_c, 0, 76, 96
2, 90720, Note_on_c, 0, 81, 96
2, 90720, Note_on_c, 0, 84, 96
2, 91200, Note_on_c, 0, 76, 0
2, 91200, Note_on_c, 0, 78, 96
2, 91680, Note_on_c, 0, 78, 0
2, 91680, Note_on_c, 0, 84, 0
2, 91680, Note_on_c, 0, 81, 0
2, 91680, Note_on_c, 0, 72, 0
2, 91680, Note_on_c, 0, 69, 96
2, 91680, Note_on_c, 0, 77, 96
2, 91680, Note_on_c, 0, 81, 96
2, 92040, Note_on_c, 0, 81, 0
2, 92040, Note_on_c, 0, 77, 0
2, 92040, Note_on_c, 0, 69, 0
2, 92040, Note_on_c, 0, 71, 96
2, 92040, Note_on_c, 0, 83, 96
2, 92160, Note_on_c, 0, 83, 0
2, 92160, Note_on_c, 0, 71, 0
2, 92160, Note_on_c, 0, 72, 96
2, 92160, Note_on_c, 0, 76, 96
2, 92160, Note_on_c, 0, 81, 96
2, 92160, Note_on_c, 0, 84, 96
2, 92400, Note_on_c, 0, 84, 0
2, 92400, Note_on_c, 0, 72, 0
2, 92400, Note_on_c, 0, 76, 0
2, 92400, Note_on_c, 0, 81, 0
2, 92400, Note_on_c, 0, 76, 96
2, 92640, Note_on_c, 0, 76, 0
2, 92640, Note_on_c, 0, 74, 83
2, 92640, Note_on_c, 0, 80, 83
2, 92640, Note_on_c, 0, 84, 83
2, 92880, Note_on_c, 0, 84, 0
2, 92880, Note_on_c, 0, 80, 0
2, 92880, Note_on_c, 0, 74, 0
2, 92880, Note_on_c, 0, 83, 83
2, 93120, Note_on_c, 0, 83, 0
2, 93120, Note_on_c, 0, 72, 83
2, 93120, Note_on_c, 0, 76, 83
2, 93120, Note_on_c, 0, 81, 83
2, 93360, Note_on_c, 0, 81, 0
2, 93360, Note_on_c, 0, 76, 0
2, 93360, Note_on_c, 0, 72, 0
2, 93360, Note_on_c, 0, 69, 83
2, 93600, Note_on_c, 0, 69, 0
2, 93600, Note_on_c, 0, 69, 70
2, 93960, Note_on_c, 0, 69, 0
2, 93960, Note_on_c, 0, 70, 70
2, 94080, Note_on_c, 0, 70, 0
2, 94080, Note_on_c, 0, 72, 70
2, 94320, Note_on_c, 0, 72, 0
2, 94320, Note_on_c, 0, 74, 70
2, 94560, Note_on_c, 0, 74, 0
2, 94560, Note_on_c, 0, 69, 83
2, 95520, Note_on_c, 0, 69, 0
2, 95520, Note_on_c, 0, 72, 57
2, 95880, Note_on_c, 0, 72, 0
2, 95880, Note_on_c, 0, 74, 57
2, 96000, Note_on_c, 0, 74, 0
2, 96000, Note_on_c, 0, 76, 57
2, 96240, Note_on_c, 0, 76, 0
2, 96240, Note_on_c, 0, 77, 83
2, 96480, Note_on_c, 0, 77, 0
2, 96480, Note_on_c, 0, 72, 83
2, 97440, Note_on_c, 0, 72, 0
2, 97440, Note_on_c, 0, 64, 57
2, 97440, Note_on_c, 0, 76, 57
2, 97800, Note_on_c, 0, 76, 0
2, 97800, Note_on_c, 0, 64, 0
2, 97800, Note_on_c, 0, 65, 57
2, 97800, Note_on_c, 0, 77, 57
2, 97920, Note_on_c, 0, 77, 0
2, 97920, Note_on_c, 0, 65, 0
2, 97920, Note_on_c, 0, 67, 83
2, 97920, Note_on_c, 0, 79, 83
2, 98160, Note_on_c, 0, 79, 0
2, 98160, Note_on_c, 0, 67, 0
2, 98160, Note_on_c, 0, 69, 83
2, 98160, Note_on_c, 0, 81, 83
2, 98400, Note_on_c, 0, 81, 0
2, 98400, Note_on_c, 0, 69, 0
2, 98400, Note_on_c, 0, 70, 83
2, 98400, Note_on_c, 0, 82, 83
2, 99360, Note_on_c, 0, 82, 0
2, 99360, Note_on_c, 0, 70, 0
2, 99360, Note_on_c, 0, 67, 83
2, 99360, Note_on_c, 0, 79, 83
2, 99720, Note_on_c, 0, 79, 0
2, 99720, Note_on_c, 0, 67, 0
2, 99720, Note_on_c, 0, 69, 83
2, 99720, Note_on_c, 0, 81, 83
2, 99840, Note_on_c, 0, 81, 0
2, 99840, Note_on_c, 0, 69, 0
2, 99840, Note_on_c, 0, 70, 83
2, 99840, Note_on_c, 0, 82, 83
2, 100320, Note_on_c, 0, 82, 0
2, 100320, Note_on_c, 0, 70, 0
2, 100320, Note_on_c, 0, 67, 83
2, 100320, Note_on_c, 0, 79, 83
2, 100680, Note_on_c, 0, 79, 0
2, 100680, Note_on_c, 0, 67, 0
2, 100680, Note_on_c, 0, 69, 83
2, 100680, Note_on_c, 0, 81, 83
2, 100800, Note_on_c, 0, 81, 0
2, 100800, Note_on_c, 0, 69, 0
2, 100800, Note_on_c, 0, 70, 83
2, 100800, Note_on_c, 0, 82, 83
2, 101280, Note_on_c, 0, 82, 0
2, 101280, Note_on_c, 0, 70, 0
2, 101280, Note_on_c, 0, 81, 70
2, 101520, Note_on_c, 0, 81, 0
2, 101760, Note_on_c, 0, 72, 70
2, 102000, Note_on_c, 0, 72, 0
2, 102000, Note_on_c, 0, 74, 70
2, 102240, Note_on_c, 0, 74, 0
2, 102240, Note_on_c, 0, 69, 83
2, 103200, Note_on_c, 0, 69, 0
2, 103200, Note_on_c, 0, 72, 83
2, 103560, Note_on_c, 0, 72, 0
2, 103560, Note_on_c, 0, 74, 83
2, 103680, Note_on_c, 0, 74, 0
2, 103680, Note_on_c, 0, 76, 83
2, 103920, Note_on_c, 0, 76, 0
2, 103920, Note_on_c, 0, 77, 83
2, 104160, Note_on_c, 0, 77, 0
2, 104160, Note_on_c, 0, 72, 83
2, 105120, Note_on_c, 0, 72, 0
2, 105120, Note_on_c, 0, 65, 83
2, 105120, Note_on_c, 0, 77, 83
2, 105480, Note_on_c, 0, 77, 0
2, 105480, Note_on_c, 0, 65, 0
2, 105480, Note_on_c, 0, 67, 83
2, 105480, Note_on_c, 0, 79, 83
2, 105600, Note_on_c, 0, 79, 0
2, 105600, Note_on_c, 0, 67, 0
2, 105600, Control_c, 0, 64, 127
2, 105600, Note_on_c, 0, 69, 96
2, 105600, Note_on_c, 0, 81, 96
2, 105840, Note_on_c, 0, 81, 0
2, 105840, Note_on_c, 0, 69, 0
2, 105840, Note_on_c, 0, 71, 96
2, 105840, Note_on_c, 0, 83, 96
2, 106080, Note_on_c, 0, 83, 0
2, 106080, Note_on_c, 0, 71, 0
2, 106080, Note_on_c, 0, 72, 96
2, 106080, Note_on_c, 0, 84, 96
2, 106320, Note_on_c, 0, 84, 0
2, 106320, Note_on_c, 0, 72, 0
2, 106320, Control_c, 0, 64, 0
2, 106320, Note_on_c, 0, 65, 96
2, 106320, Note_on_c, 0, 77, 96
2, 106560, Note_on_c, 0, 77, 0
2, 106560, Note_on_c, 0, 65, 0
2, 106560, Control_c, 0, 64, 127
2, 106560, Note_on_c, 0, 69, 96
2, 106560, Note_on_c, 0, 81, 96
2, 106800, Note_on_c, 0, 81, 0
2, 106800, Note_on_c, 0, 69, 0
2, 106800, Note_on_c, 0, 71, 96
2, 106800, Note_on_c, 0, 83, 96
2, 107040, Note_on_c, 0, 83, 0
2, 107040, Note_on_c, 0, 71, 0
2, 107040, Note_on_c, 0, 72, 96
2, 107040, Note_on_c, 0, 84, 96
2, 107280, Note_on_c, 0, 84, 0
2, 107280, Note_on_c, 0, 72, 0
2, 107280, Control_c, 0, 64, 0
2, 107280, Note_on_c, 0, 65, 96
2, 107280, Note_on_c, 0, 77, 96
2, 107520, Note_on_c, 0, 77, 0
2, 107520, Note_on_c, 0, 65, 0
2, 107520, Control_c, 0, 64, 127
2, 107520, Note_on_c, 0, 69, 96
2, 107520, Note_on_c, 0, 81, 96
2, 107760, Note_on_c, 0, 81, 0
2, 107760, Note_on_c, 0, 69, 0
2, 107760, Note_on_c, 0, 71, 96
2, 107760, Note_on_c, 0, 83, 96
2, 108000, Note_on_c, 0, 83, 0
2, 108000, Note_on_c, 0, 71, 0
2, 108000, Note_on_c, 0, 72, 96
2, 108000, Note_on_c, 0, 84, 96
2, 108240, Note_on_c, 0, 84, 0
2, 108240, Note_on_c, 0, 72, 0
2, 108240, Control_c, 0, 64, 0
2, 108240, Note_on_c, 0, 74, 96
2, 108240, Note_on_c, 0, 86, 96
2, 108480, Note_on_c, 0, 86, 0
2, 108480, Note_on_c, 0, 74, 0
2, 108480, Note_on_c, 0, 76, 96
2, 108480, Note_on_c, 0, 88, 96
2, 108720, Note_on_c, 0, 88, 0
2, 108720, Note_on_c, 0, 76, 0
2, 108720, Note_on_c, 0, 76, 96
2, 108960, Note_on_c, 0, 76, 0
2, 108960, Note_on_c, 0, 76, 83
2, 109320, Note_on_c, 0, 76, 0
2, 109320, Note_on_c, 0, 78, 83
2, 109380, Note_on_c, 0, 78, 0
2, 109380, Note_on_c, 0, 76, 83
2, 109440, Note_on_c, 0, 76, 0
2, 109440, Note_on_c, 0, 69, 83
2, 109440, Note_on_c, 0, 73, 83
2, 109440, Note_on_c, 0, 75, 83
2, 109487, Note_on_c, 0, 75, 0
2, 109487, Note_on_c, 0, 73, 0
2, 109487, Note_on_c, 0, 69, 0
2, 109680, Note_on_c, 0, 76, 83
2, 109727, Note_on_c, 0, 76, 0
2, 109920, Note_on_c, 0, 69, 83
2, 109920, Note_on_c, 0, 73, 83
2, 109920, Note_on_c, 0, 78, 83
2, 109967, Note_on_c, 0, 78, 0
2, 109967, Note_on_c, 0, 73, 0
2, 109967, Note_on_c, 0, 69, 0
2, 110160, Note_on_c, 0, 80, 83
2, 110207, Note_on_c, 0, 80, 0
2, 110400, Note_on_c, 0, 69, 83
2, 110400, Note_on_c, 0, 73, 83
2, 110400, Note_on_c, 0, 81, 83
2, 110447, Note_on_c, 0, 81, 0
2, 110447, Note_on_c, 0, 73, 0
2, 110447, Note_on_c, 0, 69, 0
2, 110640, Note_on_c, 0, 76, 83
2, 110687, Note_on_c, 0, 76, 0
2, 110880, Note_on_c, 0, 71, 83
2, 110880, Note_on_c, 0, 83, 83
2, 110927, Note_on_c, 0, 83, 0
2, 110927, Note_on_c, 0, 71, 0
2, 111120, Note_on_c, 0, 76, 83
2, 111167, Note_on_c, 0, 76, 0
2, 111360, Note_on_c, 0, 72, 83
2, 111360, Note_on_c, 0, 81, 83
2, 111360, Note_on_c, 0, 84, 83
2, 111407, Note_on_c, 0, 84, 0
2, 111407, Note_on_c, 0, 81, 0
2, 111407, Note_on_c, 0, 72, 0
2, 111600, Note_on_c, 0, 76, 83
2, 111840, Note_on_c, 0, 76, 0
2, 111840, Note_on_c, 0, 81, 109
2, 111840, Note_on_c, 0, 85, 109
2, 112800, Note_on_c, 0, 85, 0
2, 112800, Note_on_c, 0, 81, 0
2, 112800, Note_on_c, 0, 74, 83
2, 112800, Note_on_c, 0, 81, 83
2, 112800, Note_on_c, 0, 86, 83
2, 113160, Note_on_c, 0, 86, 0
2, 113160, Note_on_c, 0, 81, 0
2, 113160, Note_on_c, 0, 74, 0
2, 113160, Note_on_c, 0, 88, 83
2, 113220, Note_on_c, 0, 88, 0
2, 113220, Note_on_c, 0, 86, 83
2, 113280, Note_on_c, 0, 86, 0
2, 113280, Note_on_c, 0, 72, 83
2, 113280, Note_on_c, 0, 81, 83
2, 113280, Note_on_c, 0, 84, 83
2, 113327, Note_on_c, 0, 84, 0
2, 113327, Note_on_c, 0, 81, 0
2, 113327, Note_on_c, 0, 72, 0
2, 113520, Note_on_c, 0, 76, 83
2, 113760, Note_on_c, 0, 76, 0
2, 113760, Note_on_c, 0, 81, 109
2, 113760, Note_on_c, 0, 85, 109
2, 114720, Note_on_c, 0, 85, 0
2, 114720, Note_on_c, 0, 81, 0
2, 114720, Note_on_c, 0, 81, 83
2, 114720, Note_on_c, 0, 85, 83
2, 114720, Note_on_c, 0, 88, 83
2, 115080, Note_on_c, 0, 88, 0
2, 115080, Note_on_c, 0, 85, 0
2, 115080, Note_on_c, 0, 81, 0
2, 115080, Note_on_c, 0, 90, 83
2, 115140, Note_on_c, 0, 90, 0
2, 115140, Note_on_c, 0, 88, 83
2, 115200, Note_on_c, 0, 88, 0
2, 115200, Note_on_c, 0, 76, 83
2, 115200, Note_on_c, 0, 80, 83
2, 115200, Note_on_c, 0, 83, 83
2, 115247, Note_on_c, 0, 83, 0
2, 115247, Note_on_c, 0, 80, 0
2, 115247, Note_on_c, 0, 76, 0
2, 115440, Note_on_c, 0, 85, 83
2, 115487, Note_on_c, 0, 85, 0
2, 115680, Note_on_c, 0, 76, 83
2, 115680, Note_on_c, 0, 79, 83
2, 115680, Note_on_c, 0, 82, 83
2, 115727, Note_on_c, 0, 82, 0
2, 115727, Note_on_c, 0, 79, 0
2, 115727, Note_on_c, 0, 76, 0
2, 115920, Note_on_c, 0, 85, 83
2, 115967, Note_on_c, 0, 85, 0
2, 116160, Note_on_c, 0, 80, 83
2, 116160, Note_on_c, 0, 83, 83
2, 116207, Note_on_c, 0, 83, 0
2, 116207, Note_on_c, 0, 80, 0
2, 116400, Note_on_c, 0, 76, 83
2, 116447, Note_on_c, 0, 76, 0
2, 116640, Note_on_c, 0, 76, 83
2, 117000, Note_on_c, 0, 76, 0
2, 117000, Note_on_c, 0, 78, 83
2, 117060, Note_on_c, 0, 78, 0
2, 117060, Note_on_c, 0, 76, 83
2, 117120, Note_on_c, 0, 76, 0
2, 117120, Note_on_c, 0, 69, 83
2, 117120, Note_on_c, 0, 73, 83
2, 117120, Note_on_c, 0, 75, 83
2, 117167, Note_on_c, 0, 75, 0
2, 117167, Note_on_c, 0, 73, 0
2, 117167, Note_on_c, 0, 69, 0
2, 117360, Note_on_c, 0, 76, 83
2, 117407, Note_on_c, 0, 76, 0
2, 117600, Note_on_c, 0, 69, 83
2, 117600, Note_on_c, 0, 73, 83
2, 117600, Note_on_c, 0, 78, 83
2, 117647, Note_on_c, 0, 78, 0
2, 117647, Note_on_c, 0, 73, 0
2, 117647, Note_on_c, 0, 69, 0
2, 117840, Note_on_c, 0, 80, 83
2, 117887, Note_on_c, 0, 80, 0
2, 118080, Note_on_c, 0, 69, 83
2, 118080, Note_on_c, 0, 73, 83
2, 118080, Note_on_c, 0, 81, 83
2, 118127, Note_on_c, 0, 81, 0
2, 118127, Note_on_c, 0, 73, 0
2, 118127, Note_on_c, 0, 69, 0
2, 118320, Note_on_c, 0, 76, 83
2, 118367, Note_on_c, 0, 76, 0
2, 118560, Note_on_c, 0, 71, 83
2, 118560, Note_on_c, 0, 83, 83
2, 118607, Note_on_c, 0, 83, 0
2, 118607, Note_on_c, 0, 71, 0
2, 118800, Note_on_c, 0, 76, 83
2, 118847, Note_on_c, 0, 76, 0
2, 119040, Note_on_c, 0, 72, 83
2, 119040, Note_on_c, 0, 81, 83
2, 119040, Note_on_c, 0, 84, 83
2, 119087, Note_on_c, 0, 84, 0
2, 119087, Note_on_c, 0, 81, 0
2, 119087, Note_on_c, 0, 72, 0
2, 119280, Note_on_c, 0, 76, 83
2, 119520, Note_on_c, 0, 76, 0
2, 119520, Note_on_c, 0, 81, 109
2, 119520, Note_on_c, 0, 85, 109
2, 120480, Note_on_c, 0, 85, 0
2, 120480, Note_on_c, 0, 81, 0
2, 120480, Note_on_c, 0, 78, 83
2, 120480, Note_on_c, 0, 82, 83
2, 120480, Note_on_c, 0, 85, 83
2, 120840, Note_on_c, 0, 85, 0
2, 120840, Note_on_c, 0, 82, 0
2, 120840, Note_on_c, 0, 78, 0
2, 120840, Note_on_c, 0, 88, 83
2, 120900, Note_on_c, 0, 88, 0
2, 120900, Note_on_c, 0, 86, 83
2, 120960, Note_on_c, 0, 86, 0
2, 120960, Note_on_c, 0, 74, 83
2, 120960, Note_on_c, 0, 78, 83
2, 120960, Note_on_c, 0, 85, 83
2, 121007, Note_on_c, 0, 85, 0
2, 121007, Note_on_c, 0, 78, 0
2, 121007, Note_on_c, 0, 74, 0
2, 121200, Note_on_c, 0, 83, 83
2, 121247, Note_on_c, 0, 83, 0
2, 121440, Note_on_c, 0, 74, 83
2, 121440, Note_on_c, 0, 78, 83
2, 121440, Note_on_c, 0, 82, 83
2, 121487, Note_on_c, 0, 82, 0
2, 121487, Note_on_c, 0, 78, 0
2, 121487, Note_on_c, 0, 74, 0
2, 121680, Note_on_c, 0, 83, 83
2, 121727, Note_on_c, 0, 83, 0
2, 121920, Note_on_c, 0, 74, 83
2, 121920, Note_on_c, 0, 78, 83
2, 121920, Note_on_c, 0, 85, 83
2, 122160, Note_on_c, 0, 85, 0
2, 122160, Note_on_c, 0, 78, 0
2, 122160, Note_on_c, 0, 74, 0
2, 122160, Note_on_c, 0, 83, 83
2, 122400, Note_on_c, 0, 83, 0
2, 122400, Note_on_c, 0, 71, 83
2, 122400, Note_on_c, 0, 74, 83
2, 122400, Note_on_c, 0, 78, 83
2, 122447, Note_on_c, 0, 78, 0
2, 122447, Note_on_c, 0, 74, 0
2, 122447, Note_on_c, 0, 71, 0
2, 122640, Note_on_c, 0, 80, 83
2, 122687, Note_on_c, 0, 80, 0
2, 122880, Note_on_c, 0, 69, 83
2, 122880, Note_on_c, 0, 73, 83
2, 122880, Note_on_c, 0, 76, 83
2, 122880, Note_on_c, 0, 81, 83
2, 123120, Note_on_c, 0, 81, 0
2, 123120, Note_on_c, 0, 69, 0
2, 123120, Note_on_c, 0, 73, 0
2, 123120, Note_on_c, 0, 76, 0
2, 123180, Note_on_c, 0, 88, 83
2, 123240, Note_on_c, 0, 88, 0
2, 123240, Note_on_c, 0, 90, 83
2, 123300, Note_on_c, 0, 90, 0
2, 123300, Note_on_c, 0, 92, 83
2, 123360, Note_on_c, 0, 92, 0
2, 123360, Note_on_c, 0, 93, 83
2, 123600, Note_on_c, 0, 93, 0
2, 123840, Note_on_c, 0, 57, 96
2, 123887, Note_on_c, 0, 57, 0
2, 124800, Note_on_c, 0, 81, 57
2, 124847, Note_on_c, 0, 81, 0
2, 125280, Note_on_c, 0, 83, 57
2, 125327, Note_on_c, 0, 83, 0
2, 125760, Note_on_c, 0, 85, 57
2, 125807, Note_on_c, 0, 85, 0
2, 126240, Note_on_c, 0, 78, 57
2, 126287, Note_on_c, 0, 78, 0
2, 126720, Note_on_c, 0, 80, 57
2, 126767, Note_on_c, 0, 80, 0
2, 126960, Note_on_c, 0, 81, 57
2, 127007, Note_on_c, 0, 81, 0
2, 127200, Note_on_c, 0, 80, 57
2, 127247, Note_on_c, 0, 80, 0
2, 127440, Note_on_c, 0, 81, 57
2, 127487, Note_on_c, 0, 81, 0
2, 127680, Note_on_c, 0, 83, 57
2, 127727, Note_on_c, 0, 83, 0
2, 128160, Note_on_c, 0, 77, 57
2, 128207, Note_on_c, 0, 77, 0
2, 128640, Note_on_c, 0, 78, 57
2, 128687, Note_on_c, 0, 78, 0
2, 129120, Note_on_c, 0, 76, 57
2, 129167, Note_on_c, 0, 76, 0
2, 129360, Note_on_c, 0, 74, 57
2, 129407, Note_on_c, 0, 74, 0
2, 129600, Note_on_c, 0, 73, 57
2, 129647, Note_on_c, 0, 73, 0
2, 129840, Note_on_c, 0, 73, 57
2, 129887, Note_on_c, 0, 73, 0
2, 130080, Note_on_c, 0, 76, 57
2, 130127, Note_on_c, 0, 76, 0
2, 130320, Note_on_c, 0, 74, 57
2, 130367, Note_on_c, 0, 74, 0
2, 130560, Note_on_c, 0, 73, 57
2, 130607, Note_on_c, 0, 73, 0
2, 130800, Note_on_c, 0, 73, 57
2, 130847, Note_on_c, 0, 73, 0
2, 131040, Note_on_c, 0, 76, 57
2, 131087, Note_on_c, 0, 76, 0
2, 131280, Note_on_c, 0, 74, 57
2, 131327, Note_on_c, 0, 74, 0
2, 131520, Note_on_c, 0, 73, 57
2, 131567, Note_on_c, 0, 73, 0
2, 131760, Note_on_c, 0, 74, 57
2, 131807, Note_on_c, 0, 74, 0
2, 132000, Note_on_c, 0, 73, 57
2, 132047, Note_on_c, 0, 73, 0
2, 132240, Note_on_c, 0, 85, 57
2, 132287, Note_on_c, 0, 85, 0
2, 132480, Note_on_c, 0, 81, 57
2, 132527, Note_on_c, 0, 81, 0
2, 132960, Note_on_c, 0, 83, 57
2, 133007, Note_on_c, 0, 83, 0
2, 133440, Note_on_c, 0, 85, 57
2, 133487, Note_on_c, 0, 85, 0
2, 133920, Note_on_c, 0, 78, 57
2, 133967, Note_on_c, 0, 78, 0
2, 134400, Note_on_c, 0, 80, 57
2, 134447, Note_on_c, 0, 80, 0
2, 134640, Note_on_c, 0, 81, 57
2, 134687, Note_on_c, 0, 81, 0
2, 134880, Note_on_c, 0, 80, 57
2, 134927, Note_on_c, 0, 80, 0
2, 135120, Note_on_c, 0, 81, 57
2, 135167, Note_on_c, 0, 81, 0
2, 135360, Note_on_c, 0, 83, 57
2, 135407, Note_on_c, 0, 83, 0
2, 135840, Note_on_c, 0, 77, 57
2, 135887, Note_on_c, 0, 77, 0
2, 136320, Note_on_c, 0, 78, 57
2, 136367, Note_on_c, 0, 78, 0
2, 136800, Note_on_c, 0, 76, 57
2, 136847, Note_on_c, 0, 76, 0
2, 137040, Note_on_c, 0, 74, 57
2, 137087, Note_on_c, 0, 74, 0
2, 137280, Note_on_c, 0, 73, 57
2, 137327, Note_on_c, 0, 73, 0
2, 137520, Note_on_c, 0, 78, 57
2, 137567, Note_on_c, 0, 78, 0
2, 137760, Note_on_c, 0, 76, 57
2, 137807, Note_on_c, 0, 76, 0
2, 138000, Note_on_c, 0, 74, 57
2, 138047, Note_on_c, 0, 74, 0
2, 138240, Note_on_c, 0, 73, 57
2, 138287, Note_on_c, 0, 73, 0
2, 138480, Note_on_c, 0, 71, 57
2, 138527, Note_on_c, 0, 71, 0
2, 138720, Note_on_c, 0, 69, 57
2, 138767, Note_on_c, 0, 69, 0
2, 138960, Note_on_c, 0, 68, 57
2, 139007, Note_on_c, 0, 68, 0
2, 139200, Note_on_c, 0, 66, 57
2, 139247, Note_on_c, 0, 66, 0
2, 139440, Note_on_c, 0, 69, 57
2, 139487, Note_on_c, 0, 69, 0
2, 139680, Note_on_c, 0, 73, 57
2, 139727, Note_on_c, 0, 73, 0
2, 139920, Note_on_c, 0, 78, 57
2, 139967, Note_on_c, 0, 78, 0
2, 140160, Note_on_c, 0, 81, 57
2, 140207, Note_on_c, 0, 81, 0
2, 140640, Note_on_c, 0, 83, 57
2, 140687, Note_on_c, 0, 83, 0
2, 141120, Note_on_c, 0, 85, 57
2, 141167, Note_on_c, 0, 85, 0
2, 141600, Note_on_c, 0, 78, 57
2, 141647, Note_on_c, 0, 78, 0
2, 142080, Note_on_c, 0, 80, 57
2, 142127, Note_on_c, 0, 80, 0
2, 142320, Note_on_c, 0, 81, 57
2, 142367, Note_on_c, 0, 81, 0
2, 142560, Note_on_c, 0, 80, 57
2, 142607, Note_on_c, 0, 80, 0
2, 142800, Note_on_c, 0, 81, 57
2, 142847, Note_on_c, 0, 81, 0
2, 143040, Note_on_c, 0, 83, 57
2, 143087, Note_on_c, 0, 83, 0
2, 143520, Note_on_c, 0, 77, 57
2, 143567, Note_on_c, 0, 77, 0
2, 144000, Note_on_c, 0, 78, 57
2, 144047, Note_on_c, 0, 78, 0
2, 144480, Note_on_c, 0, 76, 57
2, 144527, Note_on_c, 0, 76, 0
2, 144720, Note_on_c, 0, 74, 57
2, 144767, Note_on_c, 0, 74, 0
2, 144960, Note_on_c, 0, 73, 57
2, 145007, Note_on_c, 0, 73, 0
2, 145200, Note_on_c, 0, 73, 57
2, 145247, Note_on_c, 0, 73, 0
2, 145440, Note_on_c, 0, 76, 57
2, 145487, Note_on_c, 0, 76, 0
2, 145680, Note_on_c, 0, 74, 57
2, 145727, Note_on_c, 0, 74, 0
2, 145920, Note_on_c, 0, 73, 57
2, 145967, Note_on_c, 0, 73, 0
2, 146160, Note_on_c, 0, 73, 57
2, 146207, Note_on_c, 0, 73, 0
2, 146400, Note_on_c, 0, 76, 57
2, 146447, Note_on_c, 0, 76, 0
2, 146640, Note_on_c, 0, 74, 57
2, 146687, Note_on_c, 0, 74, 0
2, 146880, Note_on_c, 0, 73, 57
2, 146927, Note_on_c, 0, 73, 0
2, 147120, Note_on_c, 0, 74, 57
2, 147167, Note_on_c, 0, 74, 0
2, 147360, Note_on_c, 0, 73, 57
2, 147407, Note_on_c, 0, 73, 0
2, 147600, Note_on_c, 0, 85, 57
2, 147647, Note_on_c, 0, 85, 0
2, 147840, Note_on_c, 0, 81, 57
2, 147887, Note_on_c, 0, 81, 0
2, 148320, Note_on_c, 0, 83, 57
2, 148367, Note_on_c, 0, 83, 0
2, 148800, Note_on_c, 0, 85, 57
2, 148847, Note_on_c, 0, 85, 0
2, 149280, Note_on_c, 0, 78, 57
2, 149327, Note_on_c, 0, 78, 0
2, 149760, Note_on_c, 0, 80, 57
2, 149807, Note_on_c, 0, 80, 0
2, 150000, Note_on_c, 0, 81, 57
2, 150047, Note_on_c, 0, 81, 0
2, 150240, Note_on_c, 0, 80, 57
2, 150287, Note_on_c, 0, 80, 0
2, 150480, Note_on_c, 0, 81, 57
2, 150527, Note_on_c, 0, 81, 0
2, 150720, Note_on_c, 0, 83, 57
2, 150767, Note_on_c, 0, 83, 0
2, 151200, Note_on_c, 0, 77, 57
2, 151247, Note_on_c, 0, 77, 0
2, 151680, Note_on_c, 0, 78, 57
2, 151727, Note_on_c, 0, 78, 0
2, 152160, Note_on_c, 0, 76, 57
2, 152207, Note_on_c, 0, 76, 0
2, 152400, Note_on_c, 0, 74, 57
2, 152447, Note_on_c, 0, 74, 0
2, 152640, Note_on_c, 0, 73, 57
2, 152687, Note_on_c, 0, 73, 0
2, 152880, Note_on_c, 0, 78, 57
2, 152927, Note_on_c, 0, 78, 0
2, 153120, Note_on_c, 0, 76, 57
2, 153167, Note_on_c, 0, 76, 0
2, 153360, Note_on_c, 0, 74, 57
2, 153407, Note_on_c, 0, 74, 0
2, 153600, Note_on_c, 0, 73, 57
2, 153647, Note_on_c, 0, 73, 0
2, 153840, Note_on_c, 0, 71, 57
2, 153887, Note_on_c, 0, 71, 0
2, 154080, Note_on_c, 0, 69, 57
2, 154127, Note_on_c, 0, 69, 0
2, 154320, Note_on_c, 0, 68, 57
2, 154367, Note_on_c, 0, 68, 0
2, 154560, Note_on_c, 0, 66, 57
2, 154800, Note_on_c, 0, 66, 0
2, 155040, Note_on_c, 0, 76, 96
2, 155400, Note_on_c, 0, 76, 0
2, 155400, Note_on_c, 0, 78, 96
2, 155460, Note_on_c, 0, 78, 0
2, 155460, Note_on_c, 0, 76, 96
2, 155520, Note_on_c, 0, 76, 0
2, 155520, Note_on_c, 0, 69, 96
2, 155520, Note_on_c, 0, 73, 96
2, 155520, Note_on_c, 0, 75, 96
2, 155567, Note_on_c, 0, 75, 0
2, 155567, Note_on_c, 0, 73, 0
2, 155567, Note_on_c, 0, 69, 0
2, 155760, Note_on_c, 0, 76, 96
2, 155807, Note_on_c, 0, 76, 0
2, 156000, Note_on_c, 0, 69, 96
2, 156000, Note_on_c, 0, 73, 96
2, 156000, Note_on_c, 0, 78, 96
2, 156047, Note_on_c, 0, 78, 0
2, 156047, Note_on_c, 0, 73, 0
2, 156047, Note_on_c, 0, 69, 0
2, 156240, Note_on_c, 0, 80, 96
2, 156287, Note_on_c, 0, 80, 0
2, 156480, Note_on_c, 0, 69, 96
2, 156480, Note_on_c, 0, 73, 96
2, 156480, Note_on_c, 0, 81, 96
2, 156527, Note_on_c, 0, 81, 0
2, 156527, Note_on_c, 0, 73, 0
2, 156527, Note_on_c, 0, 69, 0
2, 156720, Note_on_c, 0, 76, 96
2, 156767, Note_on_c, 0, 76, 0
2, 156960, Note_on_c, 0, 71, 96
2, 156960, Note_on_c, 0, 81, 96
2, 156960, Note_on_c, 0, 83, 96
2, 157007, Note_on_c, 0, 83, 0
2, 157007, Note_on_c, 0, 81, 0
2, 157007, Note_on_c, 0, 71, 0
2, 157200, Note_on_c, 0, 76, 96
2, 157247, Note_on_c, 0, 76, 0
2, 157440, Note_on_c, 0, 72, 96
2, 157440, Note_on_c, 0, 81, 96
2, 157440, Note_on_c, 0, 84, 96
2, 157487, Note_on_c, 0, 84, 0
2, 157487, Note_on_c, 0, 81, 0
2, 157487, Note_on_c, 0, 72, 0
2, 157680, Note_on_c, 0, 76, 96
2, 157920, Note_on_c, 0, 76, 0
2, 157920, Note_on_c, 0, 81, 122
2, 157920, Note_on_c, 0, 85, 122
2, 158880, Note_on_c, 0, 85, 0
2, 158880, Note_on_c, 0, 81, 0
2, 158880, Note_on_c, 0, 78, 96
2, 158880, Note_on_c, 0, 81, 96
2, 158880, Note_on_c, 0, 86, 96
2, 159240, Note_on_c, 0, 86, 0
2, 159240, Note_on_c, 0, 81, 0
2, 159240, Note_on_c, 0, 78, 0
2, 159240, Note_on_c, 0, 88, 96
2, 159300, Note_on_c, 0, 88, 0
2, 159300, Note_on_c, 0, 86, 96
2, 159360, Note_on_c, 0, 86, 0
2, 159360, Note_on_c, 0, 72, 96
2, 159360, Note_on_c, 0, 81, 96
2, 159360, Note_on_c, 0, 84, 96
2, 159407, Note_on_c, 0, 84, 0
2, 159407, Note_on_c, 0, 81, 0
2, 159407, Note_on_c, 0, 72, 0
2, 159600, Note_on_c, 0, 76, 96
2, 159840, Note_on_c, 0, 76, 0
2, 159840, Note_on_c, 0, 81, 122
2, 159840, Note_on_c, 0, 85, 122
2, 160800, Note_on_c, 0, 85, 0
2, 160800, Note_on_c, 0, 81, 0
2, 160800, Note_on_c, 0, 81, 96
2, 160800, Note_on_c, 0, 85, 96
2, 160800, Note_on_c, 0, 88, 96
2, 161160, Note_on_c, 0, 88, 0
2, 161160, Note_on_c, 0, 85, 0
2, 161160, Note_on_c, 0, 81, 0
2, 161160, Note_on_c, 0, 90, 96
2, 161220, Note_on_c, 0, 90, 0
2, 161220, Note_on_c, 0, 88, 96
2, 161280, Note_on_c, 0, 88, 0
2, 161280, Note_on_c, 0, 76, 96
2, 161280, Note_on_c, 0, 80, 96
2, 161280, Note_on_c, 0, 83, 96
2, 161327, Note_on_c, 0, 83, 0
2, 161327, Note_on_c, 0, 80, 0
2, 161327, Note_on_c, 0, 76, 0
2, 161520, Note_on_c, 0, 85, 96
2, 161567, Note_on_c, 0, 85, 0
2, 161760, Note_on_c, 0, 76, 96
2, 161760, Note_on_c, 0, 79, 96
2, 161760, Note_on_c, 0, 82, 96
2, 161807, Note_on_c, 0, 82, 0
2, 161807, Note_on_c, 0, 79, 0
2, 161807, Note_on_c, 0, 76, 0
2, 162000, Note_on_c, 0, 85, 96
2, 162047, Note_on_c, 0, 85, 0
2, 162240, Note_on_c, 0, 80, 96
2, 162240, Note_on_c, 0, 83, 96
2, 162287, Note_on_c, 0, 83, 0
2, 162287, Note_on_c, 0, 80, 0
2, 162480, Note_on_c, 0, 76, 96
2, 162527, Note_on_c, 0, 76, 0
2, 162720, Note_on_c, 0, 68, 96
2, 162720, Note_on_c, 0, 71, 96
2, 162720, Note_on_c, 0, 76, 96
2, 163080, Note_on_c, 0, 76, 0
2, 163080, Note_on_c, 0, 71, 0
2, 163080, Note_on_c, 0, 68, 0
2, 163080, Note_on_c, 0, 78, 96
2, 163140, Note_on_c, 0, 78, 0
2, 163140, Note_on_c, 0, 76, 96
2, 163200, Note_on_c, 0, 76, 0
2, 163200, Note_on_c, 0, 69, 96
2, 163200, Note_on_c, 0, 73, 96
2, 163200, Note_on_c, 0, 75, 96
2, 163247, Note_on_c, 0, 75, 0
2, 163247, Note_on_c, 0, 73, 0
2, 163247, Note_on_c, 0, 69, 0
2, 163440, Note_on_c, 0, 76, 96
2, 163487, Note_on_c, 0, 76, 0
2, 163680, Note_on_c, 0, 69, 96
2, 163680, Note_on_c, 0, 73, 96
2, 163680, Note_on_c, 0, 78, 96
2, 163727, Note_on_c, 0, 78, 0
2, 163727, Note_on_c, 0, 73, 0
2, 163727, Note_on_c, 0, 69, 0
2, 163920, Note_on_c, 0, 80, 96
2, 163967, Note_on_c, 0, 80, 0
2, 164160, Note_on_c, 0, 69, 96
2, 164160, Note_on_c, 0, 73, 96
2, 164160, Note_on_c, 0, 81, 96
2, 164207, Note_on_c, 0, 81, 0
2, 164207, Note_on_c, 0, 73, 0
2, 164207, Note_on_c, 0, 69, 0
2, 164400, Note_on_c, 0, 76, 96
2, 164447, Note_on_c, 0, 76, 0
2, 164640, Note_on_c, 0, 71, 96
2, 164640, Note_on_c, 0, 81, 96
2, 164640, Note_on_c, 0, 83, 96
2, 164687, Note_on_c, 0, 83, 0
2, 164687, Note_on_c, 0, 81, 0
2, 164687, Note_on_c, 0, 71, 0
2, 164880, Note_on_c, 0, 76, 96
2, 164927, Note_on_c, 0, 76, 0
2, 165120, Note_on_c, 0, 72, 96
2, 165120, Note_on_c, 0, 81, 96
2, 165120, Note_on_c, 0, 84, 96
2, 165167, Note_on_c, 0, 84, 0
2, 165167, Note_on_c, 0, 81, 0
2, 165167, Note_on_c, 0, 72, 0
2, 165360, Note_on_c, 0, 76, 96
2, 165600, Note_on_c, 0, 76, 0
2, 165600, Note_on_c, 0, 81, 122
2, 165600, Note_on_c, 0, 85, 122
2, 166560, Note_on_c, 0, 85, 0
2, 166560, Note_on_c, 0, 81, 0
2, 166560, Note_on_c, 0, 78, 96
2, 166560, Note_on_c, 0, 82, 96
2, 166560, Note_on_c, 0, 85, 96
2, 166920, Note_on_c, 0, 85, 0
2, 166920, Note_on_c, 0, 82, 0
2, 166920, Note_on_c, 0, 78, 0
2, 166920, Note_on_c, 0, 88, 96
2, 166980, Note_on_c, 0, 88, 0
2, 166980, Note_on_c, 0, 86, 96
2, 167040, Note_on_c, 0, 86, 0
2, 167040, Note_on_c, 0, 74, 96
2, 167040, Note_on_c, 0, 78, 96
2, 167040, Note_on_c, 0, 85, 96
2, 167087, Note_on_c, 0, 85, 0
2, 167087, Note_on_c, 0, 78, 0
2, 167087, Note_on_c, 0, 74, 0
2, 167280, Note_on_c, 0, 83, 96
2, 167327, Note_on_c, 0, 83, 0
2, 167520, Note_on_c, 0, 74, 96
2, 167520, Note_on_c, 0, 78, 96
2, 167520, Note_on_c, 0, 82, 96
2, 167567, Note_on_c, 0, 82, 0
2, 167567, Note_on_c, 0, 78, 0
2, 167567, Note_on_c, 0, 74, 0
2, 167760, Note_on_c, 0, 83, 96
2, 167807, Note_on_c, 0, 83, 0
2, 168000, Note_on_c, 0, 76, 96
2, 168000, Note_on_c, 0, 80, 96
2, 168000, Note_on_c, 0, 85, 96
2, 168240, Note_on_c, 0, 85, 0
2, 168240, Note_on_c, 0, 80, 0
2, 168240, Note_on_c, 0, 76, 0
2, 168240, Note_on_c, 0, 83, 96
2, 168480, Note_on_c, 0, 83, 0
2, 168480, Note_on_c, 0, 71, 96
2, 168480, Note_on_c, 0, 74, 96
2, 168480, Note_on_c, 0, 78, 96
2, 168527, Note_on_c, 0, 78, 0
2, 168527, Note_on_c, 0, 74, 0
2, 168527, Note_on_c, 0, 71, 0
2, 168720, Note_on_c, 0, 80, 96
2, 168767, Note_on_c, 0, 80, 0
2, 168960, Note_on_c, 0, 73, 96
2, 168960, Note_on_c, 0, 76, 96
2, 168960, Note_on_c, 0, 81, 96
2, 169007, Note_on_c, 0, 81, 0
2, 169007, Note_on_c, 0, 76, 0
2, 169007, Note_on_c, 0, 73, 0
2, 169200, Note_on_c, 0, 81, 96
2, 169247, Note_on_c, 0, 81, 0
2, 169440, Note_on_c, 0, 78, 96
2, 169440, Note_on_c, 0, 81, 96
2, 169440, Note_on_c, 0, 85, 96
2, 169487, Note_on_c, 0, 85, 0
2, 169487, Note_on_c, 0, 81, 0
2, 169487, Note_on_c, 0, 78, 0
2, 169680, Note_on_c, 0, 83, 96
2, 169727, Note_on_c, 0, 83, 0
2, 169920, Note_on_c, 0, 76, 96
2, 169920, Note_on_c, 0, 81, 96
2, 169920, Note_on_c, 0, 85, 96
2, 169967, Note_on_c, 0, 85, 0
2, 169967, Note_on_c, 0, 81, 0
2, 169967, Note_on_c, 0, 76, 0
2, 170160, Note_on_c, 0, 88, 96
2, 170207, Note_on_c, 0, 88, 0
2, 170400, Note_on_c, 0, 76, 96
2, 170400, Note_on_c, 0, 80, 96
2, 170400, Note_on_c, 0, 83, 96
2, 170447, Note_on_c, 0, 83, 0
2, 170447, Note_on_c, 0, 80, 0
2, 170447, Note_on_c, 0, 76, 0
2, 170640, Note_on_c, 0, 85, 96
2, 170687, Note_on_c, 0, 85, 0
2, 170880, Note_on_c, 0, 73, 96
2, 170880, Note_on_c, 0, 76, 96
2, 170880, Note_on_c, 0, 81, 96
2, 170927, Note_on_c, 0, 81, 0
2, 170927, Note_on_c, 0, 76, 0
2, 170927, Note_on_c, 0, 73, 0
2, 171120, Note_on_c, 0, 81, 96
2, 171167, Note_on_c, 0, 81, 0
2, 171360, Note_on_c, 0, 78, 96
2, 171360, Note_on_c, 0, 81, 96
2, 171360, Note_on_c, 0, 85, 96
2, 171407, Note_on_c, 0, 85, 0
2, 171407, Note_on_c, 0, 81, 0
2, 171407, Note_on_c, 0, 78, 0
2, 171600, Note_on_c, 0, 83, 96
2, 171647, Note_on_c, 0, 83, 0
2, 171840, Note_on_c, 0, 76, 96
2, 171840, Note_on_c, 0, 81, 96
2, 171840, Note_on_c, 0, 85, 96
2, 171887, Note_on_c, 0, 85, 0
2, 171887, Note_on_c, 0, 81, 0
2, 171887, Note_on_c, 0, 76, 0
2, 172080, Note_on_c, 0, 88, 96
2, 172127, Note_on_c, 0, 88, 0
2, 172320, Note_on_c, 0, 76, 96
2, 172320, Note_on_c, 0, 80, 96
2, 172320, Note_on_c, 0, 83, 96
2, 172367, Note_on_c, 0, 83, 0
2, 172367, Note_on_c, 0, 80, 0
2, 172367, Note_on_c, 0, 76, 0
2, 172560, Note_on_c, 0, 85, 96
2, 172607, Note_on_c, 0, 85, 0
2, 172800, Note_on_c, 0, 73, 96
2, 172800, Note_on_c, 0, 76, 96
2, 172800, Note_on_c, 0, 81, 96
2, 173040, Note_on_c, 0, 81, 0
2, 173040, Note_on_c, 0, 76, 0
2, 173040, Note_on_c, 0, 73, 0
2, 173100, Note_on_c, 0, 88, 96
2, 173160, Note_on_c, 0, 88, 0
2, 173160, Note_on_c, 0, 90, 96
2, 173220, Note_on_c, 0, 90, 0
2, 173220, Note_on_c, 0, 92, 96
2, 173280, Note_on_c, 0, 92, 0
2, 173280, Note_on_c, 0, 85, 96
2, 173280, Note_on_c, 0, 88, 96
2, 173280, Note_on_c, 0, 93, 96
2, 173520, Note_on_c, 0, 93, 0
2, 173520, Note_on_c, 0, 88, 0
2, 173520, Note_on_c, 0, 85, 0
2, 173580, Note_on_c, 0, 88, 96
2, 173640, Note_on_c, 0, 88, 0
2, 173640, Note_on_c, 0, 90, 96
2, 173700, Note_on_c, 0, 90, 0
2, 173700, Note_on_c, 0, 92, 96
2, 173760, Note_on_c, 0, 92, 0
2, 173760, Note_on_c, 0, 85, 96
2, 173760, Note_on_c, 0, 88, 96
2, 173760, Note_on_c, 0, 93, 96
2, 174000, Note_on_c, 0, 93, 0
2, 174000, Note_on_c, 0, 88, 0
2, 174000, Note_on_c, 0, 85, 0
2, 174060, Note_on_c, 0, 88, 96
2, 174120, Note_on_c, 0, 88, 0
2, 174120, Note_on_c, 0, 90, 96
2, 174180, Note_on_c, 0, 90, 0
2, 174180, Note_on_c, 0, 92, 96
2, 174240, Note_on_c, 0, 92, 0
2, 174240, Note_on_c, 0, 85, 96
2, 174240, Note_on_c, 0, 88, 96
2, 174240, Note_on_c, 0, 93, 96
2, 174480, Note_on_c, 0, 93, 0
2, 174480, Note_on_c, 0, 88, 0
2, 174480, Note_on_c, 0, 85, 0
2, 174720, Note_on_c, 0, 57, 122
2, 176640, Note_on_c, 0, 57, 0
2, 176640, Control_c, 0, 64, 127
2, 178080, Control_c, 0, 64, 0
2, 178080, End_track
3, 0, Start_track
3, 0, Title_t, "Grand Piano"
3, 0, Program_c, 0, 0
3, 0, Control_c, 0, 7, 115
3, 0, Control_c, 0, 10, 79
3, 33120, Note_on_c, 0, 76, 62
3, 33120, Note_on_c, 0, 80, 62
3, 33120, Note_on_c, 0, 88, 62
3, 33167, Note_on_c, 0, 88, 0
3, 33167, Note_on_c, 0, 80, 0
3, 33167, Note_on_c, 0, 76, 0
3, 33360, Note_on_c, 0, 76, 62
3, 33360, Note_on_c, 0, 80, 62
3, 33360, Note_on_c, 0, 88, 62
3, 33407, Note_on_c, 0, 88, 0
3, 33407, Note_on_c, 0, 80, 0
3, 33407, Note_on_c, 0, 76, 0
3, 34080, Note_on_c, 0, 76, 62
3, 34080, Note_on_c, 0, 80, 62
3, 34080, Note_on_c, 0, 88, 62
3, 34127, Note_on_c, 0, 88, 0
3, 34127, Note_on_c, 0, 80, 0
3, 34127, Note_on_c, 0, 76, 0
3, 34320, Note_on_c, 0, 76, 62
3, 34320, Note_on_c, 0, 80, 62
3, 34320, Note_on_c, 0, 88, 62
3, 34367, Note_on_c, 0, 88, 0
3, 34367, Note_on_c, 0, 80, 0
3, 34367, Note_on_c, 0, 76, 0
3, 35040, Note_on_c, 0, 73, 62
3, 35040, Note_on_c, 0, 81, 62
3, 35040, Note_on_c, 0, 85, 62
3, 35087, Note_on_c, 0, 85, 0
3, 35087, Note_on_c, 0, 81, 0
3, 35087, Note_on_c, 0, 73, 0
3, 35280, Note_on_c, 0, 73, 62
3, 35280, Note_on_c, 0, 81, 62
3, 35280, Note_on_c, 0, 85, 62
3, 35327, Note_on_c, 0, 85, 0
3, 35327, Note_on_c, 0, 81, 0
3, 35327, Note_on_c, 0, 73, 0
3, 36000, Note_on_c, 0, 73, 62
3, 36000, Note_on_c, 0, 81, 62
3, 36000, Note_on_c, 0, 85, 62
3, 36047, Note_on_c, 0, 85, 0
3, 36047, Note_on_c, 0, 81, 0
3, 36047, Note_on_c, 0, 73, 0
3, 36240, Note_on_c, 0, 73, 62
3, 36240, Note_on_c, 0, 81, 62
3, 36240, Note_on_c, 0, 85, 62
3, 36287, Note_on_c, 0, 85, 0
3, 36287, Note_on_c, 0, 81, 0
3, 36287, Note_on_c, 0, 73, 0
3, 36960, Note_on_c, 0, 76, 62
3, 36960, Note_on_c, 0, 81, 62
3, 36960, Note_on_c, 0, 88, 62
3, 37007, Note_on_c, 0, 88, 0
3, 37007, Note_on_c, 0, 81, 0
3, 37007, Note_on_c, 0, 76, 0
3, 37200, Note_on_c, 0, 76, 62
3, 37200, Note_on_c, 0, 81, 62
3, 37200, Note_on_c, 0, 88, 62
3, 37247, Note_on_c, 0, 88, 0
3, 37247, Note_on_c, 0, 81, 0
3, 37247, Note_on_c, 0, 76, 0
3, 37920, Note_on_c, 0, 76, 62
3, 37920, Note_on_c, 0, 81, 62
3, 37920, Note_on_c, 0, 88, 62
3, 37967, Note_on_c, 0, 88, 0
3, 37967, Note_on_c, 0, 81, 0
3, 37967, Note_on_c, 0, 76, 0
3, 38160, Note_on_c, 0, 76, 62
3, 38160, Note_on_c, 0, 81, 62
3, 38160, Note_on_c, 0, 88, 62
3, 38207, Note_on_c, 0, 88, 0
3, 38207, Note_on_c, 0, 81, 0
3, 38207, Note_on_c, 0, 76, 0
3, 38880, Note_on_c, 0, 76, 62
3, 38880, Note_on_c, 0, 83, 62
3, 38880, Note_on_c, 0, 88, 62
3, 38927, Note_on_c, 0, 88, 0
3, 38927, Note_on_c, 0, 83, 0
3, 38927, Note_on_c, 0, 76, 0
3, 39120, Note_on_c, 0, 76, 62
3, 39120, Note_on_c, 0, 83, 62
3, 39120, Note_on_c, 0, 88, 62
3, 39167, Note_on_c, 0, 88, 0
3, 39167, Note_on_c, 0, 83, 0
3, 39167, Note_on_c, 0, 76, 0
3, 45120, Note_on_c, 0, 76, 75
3, 45120, Note_on_c, 0, 80, 75
3, 45360, Note_on_c, 0, 80, 0
3, 45360, Note_on_c, 0, 76, 0
3, 48480, Note_on_c, 0, 76, 62
3, 48480, Note_on_c, 0, 80, 62
3, 48480, Note_on_c, 0, 88, 62
3, 48527, Note_on_c, 0, 88, 0
3, 48527, Note_on_c, 0, 80, 0
3, 48527, Note_on_c, 0, 76, 0
3, 48720, Note_on_c, 0, 76, 62
3, 48720, Note_on_c, 0, 80, 62
3, 48720, Note_on_c, 0, 88, 62
3, 48767, Note_on_c, 0, 88, 0
3, 48767, Note_on_c, 0, 80, 0
3, 48767, Note_on_c, 0, 76, 0
3, 49440, Note_on_c, 0, 76, 62
3, 49440, Note_on_c, 0, 80, 62
3, 49440, Note_on_c, 0, 88, 62
3, 49487, Note_on_c, 0, 88, 0
3, 49487, Note_on_c, 0, 80, 0
3, 49487, Note_on_c, 0, 76, 0
3, 49680, Note_on_c, 0, 76, 62
3, 49680, Note_on_c, 0, 80, 62
3, 49680, Note_on_c, 0, 88, 62
3, 49727, Note_on_c, 0, 88, 0
3, 49727, Note_on_c, 0, 80, 0
3, 49727, Note_on_c, 0, 76, 0
3, 50400, Note_on_c, 0, 73, 62
3, 50400, Note_on_c, 0, 81, 62
3, 50400, Note_on_c, 0, 85, 62
3, 50447, Note_on_c, 0, 85, 0
3, 50447, Note_on_c, 0, 81, 0
3, 50447, Note_on_c, 0, 73, 0
3, 50640, Note_on_c, 0, 73, 62
3, 50640, Note_on_c, 0, 81, 62
3, 50640, Note_on_c, 0, 85, 62
3, 50687, Note_on_c, 0, 85, 0
3, 50687, Note_on_c, 0, 81, 0
3, 50687, Note_on_c, 0, 73, 0
3, 51360, Note_on_c, 0, 73, 62
3, 51360, Note_on_c, 0, 81, 62
3, 51360, Note_on_c, 0, 85, 62
3, 51407, Note_on_c, 0, 85, 0
3, 51407, Note_on_c, 0, 81, 0
3, 51407, Note_on_c, 0, 73, 0
3, 51600, Note_on_c, 0, 73, 62
3, 51600, Note_on_c, 0, 81, 62
3, 51600, Note_on_c, 0, 85, 62
3, 51647, Note_on_c, 0, 85, 0
3, 51647, Note_on_c, 0, 81, 0
3, 51647, Note_on_c, 0, 73, 0
3, 52320, Note_on_c, 0, 76, 62
3, 52320, Note_on_c, 0, 81, 62
3, 52320, Note_on_c, 0, 88, 62
3, 52367, Note_on_c, 0, 88, 0
3, 52367, Note_on_c, 0, 81, 0
3, 52367, Note_on_c, 0, 76, 0
3, 52560, Note_on_c, 0, 76, 62
3, 52560, Note_on_c, 0, 81, 62
3, 52560, Note_on_c, 0, 88, 62
3, 52607, Note_on_c, 0, 88, 0
3, 52607, Note_on_c, 0, 81, 0
3, 52607, Note_on_c, 0, 76, 0
3, 53280, Note_on_c, 0, 76, 62
3, 53280, Note_on_c, 0, 81, 62
3, 53280, Note_on_c, 0, 88, 62
3, 53327, Note_on_c, 0, 88, 0
3, 53327, Note_on_c, 0, 81, 0
3, 53327, Note_on_c, 0, 76, 0
3, 53520, Note_on_c, 0, 76, 62
3, 53520, Note_on_c, 0, 81, 62
3, 53520, Note_on_c, 0, 88, 62
3, 53567, Note_on_c, 0, 88, 0
3, 53567, Note_on_c, 0, 81, 0
3, 53567, Note_on_c, 0, 76, 0
3, 54240, Note_on_c, 0, 76, 62
3, 54240, Note_on_c, 0, 83, 62
3, 54240, Note_on_c, 0, 88, 62
3, 54287, Note_on_c, 0, 88, 0
3, 54287, Note_on_c, 0, 83, 0
3, 54287, Note_on_c, 0, 76, 0
3, 54480, Note_on_c, 0, 76, 62
3, 54480, Note_on_c, 0, 83, 62
3, 54480, Note_on_c, 0, 88, 62
3, 54527, Note_on_c, 0, 88, 0
3, 54527, Note_on_c, 0, 83, 0
3, 54527, Note_on_c, 0, 76, 0
3, 60480, Note_on_c, 0, 76, 75
3, 60480, Note_on_c, 0, 80, 75
3, 60720, Note_on_c, 0, 80, 0
3, 60720, Note_on_c, 0, 76, 0
3, 65760, Note_on_c, 0, 73, 75
3, 66000, Note_on_c, 0, 73, 0
3, 66000, Note_on_c, 0, 76, 75
3, 66240, Note_on_c, 0, 76, 0
3, 66480, Note_on_c, 0, 76, 75
3, 66720, Note_on_c, 0, 76, 0
3, 67680, Note_on_c, 0, 73, 75
3, 67920, Note_on_c, 0, 73, 0
3, 67920, Note_on_c, 0, 76, 75
3, 68160, Note_on_c, 0, 76, 0
3, 68400, Note_on_c, 0, 76, 75
3, 68640, Note_on_c, 0, 76, 0
3, 73440, Note_on_c, 0, 73, 75
3, 73680, Note_on_c, 0, 73, 0
3, 73680, Note_on_c, 0, 76, 75
3, 73920, Note_on_c, 0, 76, 0
3, 74160, Note_on_c, 0, 76, 75
3, 74400, Note_on_c, 0, 76, 0
3, 85920, Note_on_c, 0, 69, 75
3, 86280, Note_on_c, 0, 69, 0
3, 86280, Note_on_c, 0, 71, 75
3, 86400, Note_on_c, 0, 71, 0
3, 101280, Note_on_c, 0, 69, 75
3, 101640, Note_on_c, 0, 69, 0
3, 101640, Note_on_c, 0, 71, 75
3, 101760, Note_on_c, 0, 71, 0
3, 111840, Note_on_c, 0, 73, 75
3, 112080, Note_on_c, 0, 73, 0
3, 112080, Note_on_c, 0, 76, 75
3, 112320, Note_on_c, 0, 76, 0
3, 112560, Note_on_c, 0, 76, 75
3, 112800, Note_on_c, 0, 76, 0
3, 113760, Note_on_c, 0, 73, 75
3, 114000, Note_on_c, 0, 73, 0
3, 114000, Note_on_c, 0, 76, 75
3, 114240, Note_on_c, 0, 76, 0
3, 114480, Note_on_c, 0, 76, 75
3, 114720, Note_on_c, 0, 76, 0
3, 119520, Note_on_c, 0, 73, 75
3, 119760, Note_on_c, 0, 73, 0
3, 119760, Note_on_c, 0, 76, 75
3, 120000, Note_on_c, 0, 76, 0
3, 120240, Note_on_c, 0, 76, 75
3, 120480, Note_on_c, 0, 76, 0
3, 157920, Note_on_c, 0, 73, 88
3, 158160, Note_on_c, 0, 73, 0
3, 158160, Note_on_c, 0, 76, 88
3, 158400, Note_on_c, 0, 76, 0
3, 158640, Note_on_c, 0, 76, 88
3, 158880, Note_on_c, 0, 76, 0
3, 159840, Note_on_c, 0, 73, 88
3, 160080, Note_on_c, 0, 73, 0
3, 160080, Note_on_c, 0, 76, 88
3, 160320, Note_on_c, 0, 76, 0
3, 160560, Note_on_c, 0, 76, 88
3, 160800, Note_on_c, 0, 76, 0
3, 165600, Note_on_c, 0, 73, 88
3, 165840, Note_on_c, 0, 73, 0
3, 165840, Note_on_c, 0, 76, 88
3, 166080, Note_on_c, 0, 76, 0
3, 166320, Note_on_c, 0, 76, 88
3, 166560, Note_on_c, 0, 76, 0
3, 166560, End_track
4, 0, Start_track
4, 0, Title_t, "Grand Piano"
4, 0, Program_c, 0, 0
4, 0, Control_c, 0, 7, 115
4, 0, Control_c, 0, 10, 41
4, 0, Note_on_c, 0, 52, 67
4, 1440, Note_on_c, 0, 52, 0
4, 1440, Note_on_c, 0, 57, 67
4, 1440, Note_on_c, 0, 61, 67
4, 1487, Note_on_c, 0, 61, 0
4, 1487, Note_on_c, 0, 57, 0
4, 1680, Note_on_c, 0, 61, 67
4, 1680, Note_on_c, 0, 69, 67
4, 1727, Note_on_c, 0, 69, 0
4, 1727, Note_on_c, 0, 61, 0
4, 1920, Note_on_c, 0, 64, 67
4, 3840, Note_on_c, 0, 64, 0
4, 3840, Note_on_c, 0, 64, 67
4, 5280, Note_on_c, 0, 64, 0
4, 5280, Note_on_c, 0, 66, 67
4, 5760, Note_on_c, 0, 66, 0
4, 5760, Note_on_c, 0, 64, 67
4, 7680, Note_on_c, 0, 64, 0
4, 7680, Note_on_c, 0, 56, 67
4, 7680, Note_on_c, 0, 59, 67
4, 7727, Note_on_c, 0, 59, 0
4, 7727, Note_on_c, 0, 56, 0
4, 7920, Note_on_c, 0, 64, 67
4, 7967, Note_on_c, 0, 64, 0
4, 8160, Note_on_c, 0, 55, 67
4, 8160, Note_on_c, 0, 61, 67
4, 8207, Note_on_c, 0, 61, 0
4, 8207, Note_on_c, 0, 55, 0
4, 8400, Note_on_c, 0, 58, 67
4, 8447, Note_on_c, 0, 58, 0
4, 8640, Note_on_c, 0, 56, 67
4, 8640, Note_on_c, 0, 59, 67
4, 8687, Note_on_c, 0, 59, 0
4, 8687, Note_on_c, 0, 56, 0
4, 8880, Note_on_c, 0, 64, 67
4, 8927, Note_on_c, 0, 64, 0
4, 9120, Note_on_c, 0, 56, 67
4, 9120, Note_on_c, 0, 59, 67
4, 9167, Note_on_c, 0, 59, 0
4, 9167, Note_on_c, 0, 56, 0
4, 9360, Note_on_c, 0, 52, 67
4, 9360, Note_on_c, 0, 56, 67
4, 9407, Note_on_c, 0, 56, 0
4, 9407, Note_on_c, 0, 52, 0
4, 9600, Note_on_c, 0, 52, 67
4, 9647, Note_on_c, 0, 52, 0
4, 9840, Note_on_c, 0, 52, 67
4, 9840, Note_on_c, 0, 57, 67
4, 9887, Note_on_c, 0, 57, 0
4, 9887, Note_on_c, 0, 52, 0
4, 10080, Note_on_c, 0, 57, 67
4, 10080, Note_on_c, 0, 61, 67
4, 10127, Note_on_c, 0, 61, 0
4, 10127, Note_on_c, 0, 57, 0
4, 10320, Note_on_c, 0, 52, 67
4, 10320, Note_on_c, 0, 57, 67
4, 10367, Note_on_c, 0, 57, 0
4, 10367, Note_on_c, 0, 52, 0
4, 10560, Note_on_c, 0, 64, 67
4, 12480, Note_on_c, 0, 64, 0
4, 12480, Note_on_c, 0, 64, 67
4, 13440, Note_on_c, 0, 64, 0
4, 13440, Note_on_c, 0, 49, 67
4, 13440, Note_on_c, 0, 54, 67
4, 14400, Note_on_c, 0, 54, 0
4, 14400, Note_on_c, 0, 49, 0
4, 14400, Note_on_c, 0, 46, 67
4, 14400, Note_on_c, 0, 54, 67
4, 14447, Note_on_c, 0, 54, 0
4, 14447, Note_on_c, 0, 46, 0
4, 14640, Note_on_c, 0, 54, 67
4, 14640, Note_on_c, 0, 61, 67
4, 14687, Note_on_c, 0, 61, 0
4, 14687, Note_on_c, 0, 54, 0
4, 14880, Note_on_c, 0, 46, 67
4, 14880, Note_on_c, 0, 54, 67
4, 14927, Note_on_c, 0, 54, 0
4, 14927, Note_on_c, 0, 46, 0
4, 15120, Note_on_c, 0, 54, 67
4, 15120, Note_on_c, 0, 61, 67
4, 15167, Note_on_c, 0, 61, 0
4, 15167, Note_on_c, 0, 54, 0
4, 15360, Note_on_c, 0, 47, 67
4, 15360, Note_on_c, 0, 51, 67
4, 15360, Note_on_c, 0, 54, 67
4, 15407, Note_on_c, 0, 54, 0
4, 15407, Note_on_c, 0, 51, 0
4, 15407, Note_on_c, 0, 47, 0
4, 15600, Note_on_c, 0, 59, 67
4, 15647, Note_on_c, 0, 59, 0
4, 15840, Note_on_c, 0, 47, 67
4, 15840, Note_on_c, 0, 51, 67
4, 15840, Note_on_c, 0, 54, 67
4, 15887, Note_on_c, 0, 54, 0
4, 15887, Note_on_c, 0, 51, 0
4, 15887, Note_on_c, 0, 47, 0
4, 16080, Note_on_c, 0, 59, 67
4, 16127, Note_on_c, 0, 59, 0
4, 16320, Note_on_c, 0, 52, 80
4, 16320, Note_on_c, 0, 56, 80
4, 16320, Note_on_c, 0, 59, 80
4, 16800, Note_on_c, 0, 59, 0
4, 16800, Note_on_c, 0, 56, 0
4, 16800, Note_on_c, 0, 52, 0
4, 17280, Note_on_c, 0, 64, 67
4, 19200, Note_on_c, 0, 64, 0
4, 19200, Note_on_c, 0, 64, 67
4, 20640, Note_on_c, 0, 64, 0
4, 20640, Note_on_c, 0, 66, 67
4, 21120, Note_on_c, 0, 66, 0
4, 21120, Note_on_c, 0, 64, 67
4, 23040, Note_on_c, 0, 64, 0
4, 23040, Note_on_c, 0, 56, 67
4, 23040, Note_on_c, 0, 59, 67
4, 23087, Note_on_c, 0, 59, 0
4, 23087, Note_on_c, 0, 56, 0
4, 23280, Note_on_c, 0, 64, 67
4, 23327, Note_on_c, 0, 64, 0
4, 23520, Note_on_c, 0, 55, 67
4, 23520, Note_on_c, 0, 61, 67
4, 23567, Note_on_c, 0, 61, 0
4, 23567, Note_on_c, 0, 55, 0
4, 23760, Note_on_c, 0, 58, 67
4, 23807, Note_on_c, 0, 58, 0
4, 24000, Note_on_c, 0, 56, 67
4, 24000, Note_on_c, 0, 59, 67
4, 24047, Note_on_c, 0, 59, 0
4, 24047, Note_on_c, 0, 56, 0
4, 24240, Note_on_c, 0, 64, 67
4, 24287, Note_on_c, 0, 64, 0
4, 24480, Note_on_c, 0, 56, 67
4, 24480, Note_on_c, 0, 59, 67
4, 24527, Note_on_c, 0, 59, 0
4, 24527, Note_on_c, 0, 56, 0
4, 24720, Note_on_c, 0, 52, 67
4, 24720, Note_on_c, 0, 56, 67
4, 24767, Note_on_c, 0, 56, 0
4, 24767, Note_on_c, 0, 52, 0
4, 24960, Note_on_c, 0, 52, 67
4, 25007, Note_on_c, 0, 52, 0
4, 25200, Note_on_c, 0, 52, 67
4, 25200, Note_on_c, 0, 57, 67
4, 25247, Note_on_c, 0, 57, 0
4, 25247, Note_on_c, 0, 52, 0
4, 25440, Note_on_c, 0, 57, 67
4, 25440, Note_on_c, 0, 61, 67
4, 25487, Note_on_c, 0, 61, 0
4, 25487, Note_on_c, 0, 57, 0
4, 25680, Note_on_c, 0, 52, 67
4, 25680, Note_on_c, 0, 57, 67
4, 25727, Note_on_c, 0, 57, 0
4, 25727, Note_on_c, 0, 52, 0
4, 25920, Note_on_c, 0, 64, 67
4, 27840, Note_on_c, 0, 64, 0
4, 27840, Note_on_c, 0, 64, 67
4, 28800, Note_on_c, 0, 64, 0
4, 28800, Note_on_c, 0, 49, 67
4, 28800, Note_on_c, 0, 54, 67
4, 29760, Note_on_c, 0, 54, 0
4, 29760, Note_on_c, 0, 49, 0
4, 29760, Note_on_c, 0, 47, 67
4, 29760, Note_on_c, 0, 51, 67
4, 29807, Note_on_c, 0, 51, 0
4, 29807, Note_on_c, 0, 47, 0
4, 30000, Note_on_c, 0, 57, 67
4, 30047, Note_on_c, 0, 57, 0
4, 30240, Note_on_c, 0, 47, 67
4, 30240, Note_on_c, 0, 51, 67
4, 30287, Note_on_c, 0, 51, 0
4, 30287, Note_on_c, 0, 47, 0
4, 30480, Note_on_c, 0, 57, 67
4, 30527, Note_on_c, 0, 57, 0
4, 30720, Note_on_c, 0, 52, 67
4, 30720, Note_on_c, 0, 56, 67
4, 30720, Note_on_c, 0, 59, 67
4, 30960, Note_on_c, 0, 59, 0
4, 30960, Note_on_c, 0, 56, 0
4, 30960, Note_on_c, 0, 52, 0
4, 31120, Note_on_c, 0, 40, 67
4, 31160, Note_on_c, 0, 47, 67
4, 31200, Note_on_c, 0, 56, 67
4, 31440, Note_on_c, 0, 56, 0
4, 31440, Note_on_c, 0, 47, 0
4, 31440, Note_on_c, 0, 40, 0
4, 32640, Note_on_c, 0, 56, 67
4, 32687, Note_on_c, 0, 56, 0
4, 32880, Note_on_c, 0, 59, 67
4, 32880, Note_on_c, 0, 62, 67
4, 32880, Note_on_c, 0, 64, 67
4, 32927, Note_on_c, 0, 64, 0
4, 32927, Note_on_c, 0, 62, 0
4, 32927, Note_on_c, 0, 59, 0
4, 33120, Note_on_c, 0, 52, 67
4, 33167, Note_on_c, 0, 52, 0
4, 33600, Note_on_c, 0, 56, 67
4, 33647, Note_on_c, 0, 56, 0
4, 33840, Note_on_c, 0, 59, 67
4, 33840, Note_on_c, 0, 62, 67
4, 33840, Note_on_c, 0, 64, 67
4, 33887, Note_on_c, 0, 64, 0
4, 33887, Note_on_c, 0, 62, 0
4, 33887, Note_on_c, 0, 59, 0
4, 34080, Note_on_c, 0, 52, 67
4, 34127, Note_on_c, 0, 52, 0
4, 34560, Note_on_c, 0, 57, 67
4, 34607, Note_on_c, 0, 57, 0
4, 34800, Note_on_c, 0, 64, 67
4, 34847, Note_on_c, 0, 64, 0
4, 35040, Note_on_c, 0, 52, 67
4, 35087, Note_on_c, 0, 52, 0
4, 35520, Note_on_c, 0, 57, 67
4, 35567, Note_on_c, 0, 57, 0
4, 35760, Note_on_c, 0, 64, 67
4, 35807, Note_on_c, 0, 64, 0
4, 36000, Note_on_c, 0, 52, 67
4, 36047, Note_on_c, 0, 52, 0
4, 36480, Note_on_c, 0, 57, 67
4, 36480, Note_on_c, 0, 61, 67
4, 36527, Note_on_c, 0, 61, 0
4, 36527, Note_on_c, 0, 57, 0
4, 36720, Note_on_c, 0, 64, 67
4, 36767, Note_on_c, 0, 64, 0
4, 36960, Note_on_c, 0, 49, 67
4, 36960, Note_on_c, 0, 61, 67
4, 37007, Note_on_c, 0, 61, 0
4, 37007, Note_on_c, 0, 49, 0
4, 37440, Note_on_c, 0, 57, 67
4, 37440, Note_on_c, 0, 61, 67
4, 37487, Note_on_c, 0, 61, 0
4, 37487, Note_on_c, 0, 57, 0
4, 37680, Note_on_c, 0, 64, 67
4, 37727, Note_on_c, 0, 64, 0
4, 37920, Note_on_c, 0, 49, 67
4, 37920, Note_on_c, 0, 61, 67
4, 37967, Note_on_c, 0, 61, 0
4, 37967, Note_on_c, 0, 49, 0
4, 38400, Note_on_c, 0, 52, 67
4, 38400, Note_on_c, 0, 59, 67
4, 38400, Note_on_c, 0, 62, 67
4, 38447, Note_on_c, 0, 62, 0
4, 38447, Note_on_c, 0, 59, 0
4, 38447, Note_on_c, 0, 52, 0
4, 38640, Note_on_c, 0, 64, 67
4, 38687, Note_on_c, 0, 64, 0
4, 38880, Note_on_c, 0, 52, 67
4, 38927, Note_on_c, 0, 52, 0
4, 39360, Note_on_c, 0, 52, 67
4, 39360, Note_on_c, 0, 59, 67
4, 39360, Note_on_c, 0, 62, 67
4, 39360, Note_on_c, 0, 64, 67
4, 39407, Note_on_c, 0, 64, 0
4, 39407, Note_on_c, 0, 52, 0
4, 39407, Note_on_c, 0, 59, 0
4, 39407, Note_on_c, 0, 62, 0
4, 39600, Note_on_c, 0, 47, 67
4, 39600, Note_on_c, 0, 59, 67
4, 39647, Note_on_c, 0, 59, 0
4, 39647, Note_on_c, 0, 47, 0
4, 39840, Note_on_c, 0, 50, 80
4, 39840, Note_on_c, 0, 62, 80
4, 39887, Note_on_c, 0, 62, 0
4, 39887, Note_on_c, 0, 50, 0
4, 40080, Note_on_c, 0, 52, 80
4, 40080, Note_on_c, 0, 64, 80
4, 40127, Note_on_c, 0, 64, 0
4, 40127, Note_on_c, 0, 52, 0
4, 40320, Note_on_c, 0, 56, 80
4, 40320, Note_on_c, 0, 59, 80
4, 40320, Note_on_c, 0, 62, 80
4, 40367, Note_on_c, 0, 62, 0
4, 40367, Note_on_c, 0, 59, 0
4, 40367, Note_on_c, 0, 56, 0
4, 40560, Note_on_c, 0, 64, 80
4, 40607, Note_on_c, 0, 64, 0
4, 40800, Note_on_c, 0, 52, 80
4, 40847, Note_on_c, 0, 52, 0
4, 41280, Note_on_c, 0, 56, 80
4, 41280, Note_on_c, 0, 59, 80
4, 41280, Note_on_c, 0, 62, 80
4, 41327, Note_on_c, 0, 62, 0
4, 41327, Note_on_c, 0, 59, 0
4, 41327, Note_on_c, 0, 56, 0
4, 41520, Note_on_c, 0, 64, 80
4, 41567, Note_on_c, 0, 64, 0
4, 41760, Note_on_c, 0, 52, 80
4, 41807, Note_on_c, 0, 52, 0
4, 42240, Note_on_c, 0, 57, 80
4, 42287, Note_on_c, 0, 57, 0
4, 42480, Note_on_c, 0, 64, 80
4, 42527, Note_on_c, 0, 64, 0
4, 42720, Note_on_c, 0, 52, 80
4, 42767, Note_on_c, 0, 52, 0
4, 43200, Note_on_c, 0, 57, 80
4, 43200, Note_on_c, 0, 61, 80
4, 43247, Note_on_c, 0, 61, 0
4, 43247, Note_on_c, 0, 57, 0
4, 43440, Note_on_c, 0, 61, 80
4, 43440, Note_on_c, 0, 64, 80
4, 43487, Note_on_c, 0, 64, 0
4, 43487, Note_on_c, 0, 61, 0
4, 43680, Note_on_c, 0, 49, 80
4, 43680, Note_on_c, 0, 61, 80
4, 43727, Note_on_c, 0, 61, 0
4, 43727, Note_on_c, 0, 49, 0
4, 44160, Note_on_c, 0, 56, 80
4, 44160, Note_on_c, 0, 61, 80
4, 44160, Note_on_c, 0, 64, 80
4, 44160, Note_on_c, 0, 68, 80
4, 45120, Note_on_c, 0, 68, 0
4, 45120, Note_on_c, 0, 56, 0
4, 45120, Note_on_c, 0, 61, 0
4, 45120, Note_on_c, 0, 64, 0
4, 45120, Note_on_c, 0, 56, 80
4, 45120, Note_on_c, 0, 61, 80
4, 45120, Note_on_c, 0, 64, 80
4, 45120, Note_on_c, 0, 68, 80
4, 45360, Note_on_c, 0, 68, 0
4, 45360, Note_on_c, 0, 56, 0
4, 45360, Note_on_c, 0, 61, 0
4, 45360, Note_on_c, 0, 64, 0
4, 45600, Note_on_c, 0, 56, 80
4, 45600, Note_on_c, 0, 60, 80
4, 45600, Note_on_c, 0, 66, 80
4, 45600, Note_on_c, 0, 68, 80
4, 45840, Note_on_c, 0, 68, 0
4, 45840, Note_on_c, 0, 56, 0
4, 45840, Note_on_c, 0, 60, 0
4, 45840, Note_on_c, 0, 66, 0
4, 46080, Note_on_c, 0, 49, 80
4, 46080, Note_on_c, 0, 52, 80
4, 46080, Note_on_c, 0, 56, 80
4, 46080, Note_on_c, 0, 61, 80
4, 46320, Note_on_c, 0, 61, 0
4, 46320, Note_on_c, 0, 49, 0
4, 46320, Note_on_c, 0, 52, 0
4, 46320, Note_on_c, 0, 56, 0
4, 48000, Note_on_c, 0, 56, 67
4, 48047, Note_on_c, 0, 56, 0
4, 48240, Note_on_c, 0, 59, 67
4, 48240, Note_on_c, 0, 62, 67
4, 48240, Note_on_c, 0, 64, 67
4, 48287, Note_on_c, 0, 64, 0
4, 48287, Note_on_c, 0, 62, 0
4, 48287, Note_on_c, 0, 59, 0
4, 48480, Note_on_c, 0, 52, 67
4, 48527, Note_on_c, 0, 52, 0
4, 48960, Note_on_c, 0, 56, 67
4, 49007, Note_on_c, 0, 56, 0
4, 49200, Note_on_c, 0, 59, 67
4, 49200, Note_on_c, 0, 62, 67
4, 49200, Note_on_c, 0, 64, 67
4, 49247, Note_on_c, 0, 64, 0
4, 49247, Note_on_c, 0, 62, 0
4, 49247, Note_on_c, 0, 59, 0
4, 49440, Note_on_c, 0, 52, 67
4, 49487, Note_on_c, 0, 52, 0
4, 49920, Note_on_c, 0, 57, 67
4, 49967, Note_on_c, 0, 57, 0
4, 50160, Note_on_c, 0, 64, 67
4, 50207, Note_on_c, 0, 64, 0
4, 50400, Note_on_c, 0, 52, 67
4, 50447, Note_on_c, 0, 52, 0
4, 50880, Note_on_c, 0, 57, 67
4, 50927, Note_on_c, 0, 57, 0
4, 51120, Note_on_c, 0, 64, 67
4, 51167, Note_on_c, 0, 64, 0
4, 51360, Note_on_c, 0, 52, 67
4, 51407, Note_on_c, 0, 52, 0
4, 51840, Note_on_c, 0, 57, 67
4, 51840, Note_on_c, 0, 61, 67
4, 51887, Note_on_c, 0, 61, 0
4, 51887, Note_on_c, 0, 57, 0
4, 52080, Note_on_c, 0, 64, 67
4, 52127, Note_on_c, 0, 64, 0
4, 52320, Note_on_c, 0, 49, 67
4, 52320, Note_on_c, 0, 61, 67
4, 52367, Note_on_c, 0, 61, 0
4, 52367, Note_on_c, 0, 49, 0
4, 52800, Note_on_c, 0, 57, 67
4, 52800, Note_on_c, 0, 61, 67
4, 52847, Note_on_c, 0, 61, 0
4, 52847, Note_on_c, 0, 57, 0
4, 53040, Note_on_c, 0, 64, 67
4, 53087, Note_on_c, 0, 64, 0
4, 53280, Note_on_c, 0, 49, 67
4, 53280, Note_on_c, 0, 61, 67
4, 53327, Note_on_c, 0, 61, 0
4, 53327, Note_on_c, 0, 49, 0
4, 53760, Note_on_c, 0, 52, 67
4, 53760, Note_on_c, 0, 59, 67
4, 53760, Note_on_c, 0, 62, 67
4, 53807, Note_on_c, 0, 62, 0
4, 53807, Note_on_c, 0, 59, 0
4, 53807, Note_on_c, 0, 52, 0
4, 54000, Note_on_c, 0, 64, 67
4, 54047, Note_on_c, 0, 64, 0
4, 54240, Note_on_c, 0, 52, 67
4, 54287, Note_on_c, 0, 52, 0
4, 54720, Note_on_c, 0, 52, 67
4, 54720, Note_on_c, 0, 59, 67
4, 54720, Note_on_c, 0, 62, 67
4, 54720, Note_on_c, 0, 64, 67
4, 54767, Note_on_c, 0, 64, 0
4, 54767, Note_on_c, 0, 52, 0
4, 54767, Note_on_c, 0, 59, 0
4, 54767, Note_on_c, 0, 62, 0
4, 54960, Note_on_c, 0, 47, 67
4, 54960, Note_on_c, 0, 59, 67
4, 55007, Note_on_c, 0, 59, 0
4, 55007, Note_on_c, 0, 47, 0
4, 55200, Note_on_c, 0, 50, 80
4, 55200, Note_on_c, 0, 62, 80
4, 55247, Note_on_c, 0, 62, 0
4, 55247, Note_on_c, 0, 50, 0
4, 55440, Note_on_c, 0, 52, 80
4, 55440, Note_on_c, 0, 64, 80
4, 55487, Note_on_c, 0, 64, 0
4, 55487, Note_on_c, 0, 52, 0
4, 55680, Note_on_c, 0, 56, 80
4, 55680, Note_on_c, 0, 59, 80
4, 55680, Note_on_c, 0, 62, 80
4, 55727, Note_on_c, 0, 62, 0
4, 55727, Note_on_c, 0, 59, 0
4, 55727, Note_on_c, 0, 56, 0
4, 55920, Note_on_c, 0, 64, 80
4, 55967, Note_on_c, 0, 64, 0
4, 56160, Note_on_c, 0, 52, 80
4, 56207, Note_on_c, 0, 52, 0
4, 56640, Note_on_c, 0, 56, 80
4, 56640, Note_on_c, 0, 59, 80
4, 56640, Note_on_c, 0, 62, 80
4, 56687, Note_on_c, 0, 62, 0
4, 56687, Note_on_c, 0, 59, 0
4, 56687, Note_on_c, 0, 56, 0
4, 56880, Note_on_c, 0, 64, 80
4, 56927, Note_on_c, 0, 64, 0
4, 57120, Note_on_c, 0, 52, 80
4, 57167, Note_on_c, 0, 52, 0
4, 57600, Note_on_c, 0, 57, 80
4, 57647, Note_on_c, 0, 57, 0
4, 57840, Note_on_c, 0, 64, 80
4, 57887, Note_on_c, 0, 64, 0
4, 58080, Note_on_c, 0, 52, 80
4, 58127, Note_on_c, 0, 52, 0
4, 58560, Note_on_c, 0, 57, 80
4, 58560, Note_on_c, 0, 61, 80
4, 58607, Note_on_c, 0, 61, 0
4, 58607, Note_on_c, 0, 57, 0
4, 58800, Note_on_c, 0, 61, 80
4, 58800, Note_on_c, 0, 64, 80
4, 58847, Note_on_c, 0, 64, 0
4, 58847, Note_on_c, 0, 61, 0
4, 59040, Note_on_c, 0, 49, 80
4, 59040, Note_on_c, 0, 61, 80
4, 59087, Note_on_c, 0, 61, 0
4, 59087, Note_on_c, 0, 49, 0
4, 59520, Note_on_c, 0, 56, 80
4, 59520, Note_on_c, 0, 61, 80
4, 59520, Note_on_c, 0, 64, 80
4, 59520, Note_on_c, 0, 68, 80
4, 60480, Note_on_c, 0, 68, 0
4, 60480, Note_on_c, 0, 56, 0
4, 60480, Note_on_c, 0, 61, 0
4, 60480, Note_on_c, 0, 64, 0
4, 60480, Note_on_c, 0, 56, 80
4, 60480, Note_on_c, 0, 61, 80
4, 60480, Note_on_c, 0, 64, 80
4, 60480, Note_on_c, 0, 68, 80
4, 60720, Note_on_c, 0, 68, 0
4, 60720, Note_on_c, 0, 56, 0
4, 60720, Note_on_c, 0, 61, 0
4, 60720, Note_on_c, 0, 64, 0
4, 60960, Note_on_c, 0, 56, 80
4, 60960, Note_on_c, 0, 60, 80
4, 60960, Note_on_c, 0, 66, 80
4, 60960, Note_on_c, 0, 68, 80
4, 61200, Note_on_c, 0, 68, 0
4, 61200, Note_on_c, 0, 56, 0
4, 61200, Note_on_c, 0, 60, 0
4, 61200, Note_on_c, 0, 66, 0
4, 61440, Note_on_c, 0, 49, 80
4, 61440, Note_on_c, 0, 52, 80
4, 61440, Note_on_c, 0, 56, 80
4, 61440, Note_on_c, 0, 61, 80
4, 61680, Note_on_c, 0, 61, 0
4, 61680, Note_on_c, 0, 49, 0
4, 61680, Note_on_c, 0, 52, 0
4, 61680, Note_on_c, 0, 56, 0
4, 63360, Note_on_c, 0, 45, 80
4, 63360, Note_on_c, 0, 49, 80
4, 63360, Note_on_c, 0, 52, 80
4, 63360, Note_on_c, 0, 57, 80
4, 63456, Note_on_c, 0, 57, 0
4, 63456, Note_on_c, 0, 45, 0
4, 63456, Note_on_c, 0, 49, 0
4, 63456, Note_on_c, 0, 52, 0
4, 63840, Note_on_c, 0, 45, 80
4, 63840, Note_on_c, 0, 49, 80
4, 63840, Note_on_c, 0, 52, 80
4, 63840, Note_on_c, 0, 57, 80
4, 63936, Note_on_c, 0, 57, 0
4, 63936, Note_on_c, 0, 45, 0
4, 63936, Note_on_c, 0, 49, 0
4, 63936, Note_on_c, 0, 52, 0
4, 64320, Note_on_c, 0, 45, 80
4, 64320, Note_on_c, 0, 49, 80
4, 64320, Note_on_c, 0, 52, 80
4, 64320, Note_on_c, 0, 57, 80
4, 64416, Note_on_c, 0, 57, 0
4, 64416, Note_on_c, 0, 45, 0
4, 64416, Note_on_c, 0, 49, 0
4, 64416, Note_on_c, 0, 52, 0
4, 64800, Note_on_c, 0, 45, 80
4, 64800, Note_on_c, 0, 52, 80
4, 64800, Note_on_c, 0, 59, 80
4, 64896, Note_on_c, 0, 59, 0
4, 64896, Note_on_c, 0, 52, 0
4, 64896, Note_on_c, 0, 45, 0
4, 65280, Note_on_c, 0, 45, 80
4, 65280, Note_on_c, 0, 48, 80
4, 65280, Note_on_c, 0, 52, 80
4, 65280, Note_on_c, 0, 57, 80
4, 65376, Note_on_c, 0, 57, 0
4, 65376, Note_on_c, 0, 45, 0
4, 65376, Note_on_c, 0, 48, 0
4, 65376, Note_on_c, 0, 52, 0
4, 65760, Note_on_c, 0, 45, 80
4, 65760, Note_on_c, 0, 49, 80
4, 65760, Note_on_c, 0, 52, 80
4, 65760, Note_on_c, 0, 57, 80
4, 65856, Note_on_c, 0, 57, 0
4, 65856, Note_on_c, 0, 45, 0
4, 65856, Note_on_c, 0, 49, 0
4, 65856, Note_on_c, 0, 52, 0
4, 66240, Note_on_c, 0, 45, 80
4, 66240, Note_on_c, 0, 49, 80
4, 66240, Note_on_c, 0, 52, 80
4, 66240, Note_on_c, 0, 57, 80
4, 66336, Note_on_c, 0, 57, 0
4, 66336, Note_on_c, 0, 45, 0
4, 66336, Note_on_c, 0, 49, 0
4, 66336, Note_on_c, 0, 52, 0
4, 66720, Note_on_c, 0, 45, 80
4, 66720, Note_on_c, 0, 50, 80
4, 66720, Note_on_c, 0, 52, 80
4, 66720, Note_on_c, 0, 57, 80
4, 66816, Note_on_c, 0, 57, 0
4, 66816, Note_on_c, 0, 45, 0
4, 66816, Note_on_c, 0, 50, 0
4, 66816, Note_on_c, 0, 52, 0
4, 67200, Note_on_c, 0, 45, 80
4, 67200, Note_on_c, 0, 48, 80
4, 67200, Note_on_c, 0, 52, 80
4, 67200, Note_on_c, 0, 57, 80
4, 67296, Note_on_c, 0, 57, 0
4, 67296, Note_on_c, 0, 45, 0
4, 67296, Note_on_c, 0, 48, 0
4, 67296, Note_on_c, 0, 52, 0
4, 67680, Note_on_c, 0, 45, 80
4, 67680, Note_on_c, 0, 49, 80
4, 67680, Note_on_c, 0, 52, 80
4, 67680, Note_on_c, 0, 57, 80
4, 67776, Note_on_c, 0, 57, 0
4, 67776, Note_on_c, 0, 45, 0
4, 67776, Note_on_c, 0, 49, 0
4, 67776, Note_on_c, 0, 52, 0
4, 68160, Note_on_c, 0, 45, 80
4, 68160, Note_on_c, 0, 49, 80
4, 68160, Note_on_c, 0, 52, 80
4, 68160, Note_on_c, 0, 57, 80
4, 68256, Note_on_c, 0, 57, 0
4, 68256, Note_on_c, 0, 45, 0
4, 68256, Note_on_c, 0, 49, 0
4, 68256, Note_on_c, 0, 52, 0
4, 68640, Note_on_c, 0, 45, 80
4, 68640, Note_on_c, 0, 49, 80
4, 68640, Note_on_c, 0, 52, 80
4, 68640, Note_on_c, 0, 57, 80
4, 68736, Note_on_c, 0, 57, 0
4, 68736, Note_on_c, 0, 45, 0
4, 68736, Note_on_c, 0, 49, 0
4, 68736, Note_on_c, 0, 52, 0
4, 69120, Note_on_c, 0, 52, 80
4, 69120, Note_on_c, 0, 56, 80
4, 69120, Note_on_c, 0, 59, 80
4, 69120, Note_on_c, 0, 64, 80
4, 69216, Note_on_c, 0, 64, 0
4, 69216, Note_on_c, 0, 52, 0
4, 69216, Note_on_c, 0, 56, 0
4, 69216, Note_on_c, 0, 59, 0
4, 69600, Note_on_c, 0, 52, 80
4, 69600, Note_on_c, 0, 55, 80
4, 69600, Note_on_c, 0, 61, 80
4, 69600, Note_on_c, 0, 64, 80
4, 69696, Note_on_c, 0, 64, 0
4, 69696, Note_on_c, 0, 52, 0
4, 69696, Note_on_c, 0, 55, 0
4, 69696, Note_on_c, 0, 61, 0
4, 70080, Note_on_c, 0, 52, 80
4, 70080, Note_on_c, 0, 56, 80
4, 70080, Note_on_c, 0, 59, 80
4, 70080, Note_on_c, 0, 64, 80
4, 70176, Note_on_c, 0, 64, 0
4, 70176, Note_on_c, 0, 52, 0
4, 70176, Note_on_c, 0, 56, 0
4, 70176, Note_on_c, 0, 59, 0
4, 70560, Note_on_c, 0, 52, 80
4, 70560, Note_on_c, 0, 56, 80
4, 70560, Note_on_c, 0, 59, 80
4, 70560, Note_on_c, 0, 64, 80
4, 70656, Note_on_c, 0, 64, 0
4, 70656, Note_on_c, 0, 52, 0
4, 70656, Note_on_c, 0, 56, 0
4, 70656, Note_on_c, 0, 59, 0
4, 71040, Note_on_c, 0, 45, 80
4, 71040, Note_on_c, 0, 49, 80
4, 71040, Note_on_c, 0, 52, 80
4, 71040, Note_on_c, 0, 57, 80
4, 71136, Note_on_c, 0, 57, 0
4, 71136, Note_on_c, 0, 45, 0
4, 71136, Note_on_c, 0, 49, 0
4, 71136, Note_on_c, 0, 52, 0
4, 71520, Note_on_c, 0, 45, 80
4, 71520, Note_on_c, 0, 49, 80
4, 71520, Note_on_c, 0, 52, 80
4, 71520, Note_on_c, 0, 57, 80
4, 71616, Note_on_c, 0, 57, 0
4, 71616, Note_on_c, 0, 45, 0
4, 71616, Note_on_c, 0, 49, 0
4, 71616, Note_on_c, 0, 52, 0
4, 72000, Note_on_c, 0, 45, 80
4, 72000, Note_on_c, 0, 49, 80
4, 72000, Note_on_c, 0, 52, 80
4, 72000, Note_on_c, 0, 57, 80
4, 72096, Note_on_c, 0, 57, 0
4, 72096, Note_on_c, 0, 45, 0
4, 72096, Note_on_c, 0, 49, 0
4, 72096, Note_on_c, 0, 52, 0
4, 72480, Note_on_c, 0, 45, 80
4, 72480, Note_on_c, 0, 52, 80
4, 72480, Note_on_c, 0, 59, 80
4, 72576, Note_on_c, 0, 59, 0
4, 72576, Note_on_c, 0, 52, 0
4, 72576, Note_on_c, 0, 45, 0
4, 72960, Note_on_c, 0, 45, 80
4, 72960, Note_on_c, 0, 48, 80
4, 72960, Note_on_c, 0, 52, 80
4, 72960, Note_on_c, 0, 57, 80
4, 73056, Note_on_c, 0, 57, 0
4, 73056, Note_on_c, 0, 45, 0
4, 73056, Note_on_c, 0, 48, 0
4, 73056, Note_on_c, 0, 52, 0
4, 73440, Note_on_c, 0, 43, 80
4, 73440, Note_on_c, 0, 45, 80
4, 73440, Note_on_c, 0, 49, 80
4, 73440, Note_on_c, 0, 52, 80
4, 73536, Note_on_c, 0, 52, 0
4, 73536, Note_on_c, 0, 43, 0
4, 73536, Note_on_c, 0, 45, 0
4, 73536, Note_on_c, 0, 49, 0
4, 73920, Note_on_c, 0, 42, 80
4, 73920, Note_on_c, 0, 46, 80
4, 73920, Note_on_c, 0, 49, 80
4, 73920, Note_on_c, 0, 54, 80
4, 74016, Note_on_c, 0, 54, 0
4, 74016, Note_on_c, 0, 42, 0
4, 74016, Note_on_c, 0, 46, 0
4, 74016, Note_on_c, 0, 49, 0
4, 74400, Note_on_c, 0, 42, 80
4, 74400, Note_on_c, 0, 46, 80
4, 74400, Note_on_c, 0, 49, 80
4, 74400, Note_on_c, 0, 54, 80
4, 74496, Note_on_c, 0, 54, 0
4, 74496, Note_on_c, 0, 42, 0
4, 74496, Note_on_c, 0, 46, 0
4, 74496, Note_on_c, 0, 49, 0
4, 74880, Note_on_c, 0, 47, 80
4, 74880, Note_on_c, 0, 50, 80
4, 74880, Note_on_c, 0, 54, 80
4, 74880, Note_on_c, 0, 59, 80
4, 74976, Note_on_c, 0, 59, 0
4, 74976, Note_on_c, 0, 47, 0
4, 74976, Note_on_c, 0, 50, 0
4, 74976, Note_on_c, 0, 54, 0
4, 75360, Note_on_c, 0, 47, 80
4, 75360, Note_on_c, 0, 50, 80
4, 75360, Note_on_c, 0, 54, 80
4, 75360, Note_on_c, 0, 59, 80
4, 75456, Note_on_c, 0, 59, 0
4, 75456, Note_on_c, 0, 47, 0
4, 75456, Note_on_c, 0, 50, 0
4, 75456, Note_on_c, 0, 54, 0
4, 75840, Note_on_c, 0, 47, 80
4, 75840, Note_on_c, 0, 54, 80
4, 75840, Note_on_c, 0, 59, 80
4, 75887, Note_on_c, 0, 59, 0
4, 75887, Note_on_c, 0, 54, 0
4, 75887, Note_on_c, 0, 47, 0
4, 76080, Note_on_c, 0, 50, 80
4, 76127, Note_on_c, 0, 50, 0
4, 76320, Note_on_c, 0, 52, 80
4, 76320, Note_on_c, 0, 59, 80
4, 76320, Note_on_c, 0, 62, 80
4, 76416, Note_on_c, 0, 62, 0
4, 76416, Note_on_c, 0, 59, 0
4, 76416, Note_on_c, 0, 52, 0
4, 76800, Note_on_c, 0, 45, 80
4, 76800, Note_on_c, 0, 49, 80
4, 76800, Note_on_c, 0, 52, 80
4, 76800, Note_on_c, 0, 57, 80
4, 77040, Note_on_c, 0, 57, 0
4, 77040, Note_on_c, 0, 45, 0
4, 77040, Note_on_c, 0, 49, 0
4, 77040, Note_on_c, 0, 52, 0
4, 77200, Note_on_c, 0, 45, 80
4, 77240, Note_on_c, 0, 52, 80
4, 77280, Note_on_c, 0, 61, 80
4, 77520, Note_on_c, 0, 61, 0
4, 77520, Note_on_c, 0, 52, 0
4, 77520, Note_on_c, 0, 45, 0
4, 77760, Note_on_c, 0, 33, 80
4, 77760, Note_on_c, 0, 45, 80
4, 78000, Note_on_c, 0, 45, 0
4, 78000, Note_on_c, 0, 33, 0
4, 78720, Note_on_c, 0, 57, 80
4, 78720, Note_on_c, 0, 60, 80
4, 78960, Note_on_c, 0, 60, 0
4, 78960, Note_on_c, 0, 57, 0
4, 78960, Note_on_c, 0, 60, 80
4, 78960, Note_on_c, 0, 65, 80
4, 79200, Note_on_c, 0, 65, 0
4, 79200, Note_on_c, 0, 60, 0
4, 79200, Note_on_c, 0, 57, 80
4, 79200, Note_on_c, 0, 60, 80
4, 79440, Note_on_c, 0, 60, 0
4, 79440, Note_on_c, 0, 57, 0
4, 79440, Note_on_c, 0, 60, 80
4, 79440, Note_on_c, 0, 65, 80
4, 79680, Note_on_c, 0, 65, 0
4, 79680, Note_on_c, 0, 60, 0
4, 79680, Note_on_c, 0, 57, 106
4, 79680, Note_on_c, 0, 60, 106
4, 79920, Note_on_c, 0, 60, 0
4, 79920, Note_on_c, 0, 57, 0
4, 79920, Note_on_c, 0, 60, 80
4, 79920, Note_on_c, 0, 65, 80
4, 80160, Note_on_c, 0, 65, 0
4, 80160, Note_on_c, 0, 60, 0
4, 80640, Note_on_c, 0, 57, 80
4, 80640, Note_on_c, 0, 60, 80
4, 80880, Note_on_c, 0, 60, 0
4, 80880, Note_on_c, 0, 57, 0
4, 80880, Note_on_c, 0, 60, 80
4, 80880, Note_on_c, 0, 65, 80
4, 81120, Note_on_c, 0, 65, 0
4, 81120, Note_on_c, 0, 60, 0
4, 81120, Note_on_c, 0, 57, 80
4, 81120, Note_on_c, 0, 60, 80
4, 81360, Note_on_c, 0, 60, 0
4, 81360, Note_on_c, 0, 57, 0
4, 81360, Note_on_c, 0, 60, 80
4, 81360, Note_on_c, 0, 65, 80
4, 81600, Note_on_c, 0, 65, 0
4, 81600, Note_on_c, 0, 60, 0
4, 81600, Note_on_c, 0, 57, 106
4, 81600, Note_on_c, 0, 60, 106
4, 81840, Note_on_c, 0, 60, 0
4, 81840, Note_on_c, 0, 57, 0
4, 81840, Note_on_c, 0, 60, 80
4, 81840, Note_on_c, 0, 65, 80
4, 82080, Note_on_c, 0, 65, 0
4, 82080, Note_on_c, 0, 60, 0
4, 82560, Note_on_c, 0, 67, 106
4, 83040, Note_on_c, 0, 67, 0
4, 83040, Note_on_c, 0, 65, 80
4, 83520, Note_on_c, 0, 65, 0
4, 83520, Note_on_c, 0, 64, 106
4, 84000, Note_on_c, 0, 64, 0
4, 84000, Note_on_c, 0, 63, 80
4, 84480, Note_on_c, 0, 63, 0
4, 84480, Note_on_c, 0, 50, 106
4, 84480, Note_on_c, 0, 53, 106
4, 84480, Note_on_c, 0, 58, 106
4, 84480, Note_on_c, 0, 62, 106
4, 84960, Note_on_c, 0, 62, 0
4, 84960, Note_on_c, 0, 50, 0
4, 84960, Note_on_c, 0, 53, 0
4, 84960, Note_on_c, 0, 58, 0
4, 84960, Note_on_c, 0, 49, 80
4, 84960, Note_on_c, 0, 53, 80
4, 84960, Note_on_c, 0, 58, 80
4, 84960, Note_on_c, 0, 61, 80
4, 85440, Note_on_c, 0, 61, 0
4, 85440, Note_on_c, 0, 49, 0
4, 85440, Note_on_c, 0, 53, 0
4, 85440, Note_on_c, 0, 58, 0
4, 85440, Note_on_c, 0, 48, 106
4, 85440, Note_on_c, 0, 52, 106
4, 85440, Note_on_c, 0, 58, 106
4, 85440, Note_on_c, 0, 60, 106
4, 85920, Note_on_c, 0, 58, 0
4, 85920, Note_on_c, 0, 52, 0
4, 85920, Note_on_c, 0, 53, 80
4, 85920, Note_on_c, 0, 57, 80
4, 86160, Note_on_c, 0, 57, 0
4, 86160, Note_on_c, 0, 60, 0
4, 86160, Note_on_c, 0, 48, 0
4, 86160, Note_on_c, 0, 53, 0
4, 86400, Note_on_c, 0, 57, 67
4, 86400, Note_on_c, 0, 60, 67
4, 86640, Note_on_c, 0, 60, 0
4, 86640, Note_on_c, 0, 57, 0
4, 86640, Note_on_c, 0, 60, 67
4, 86640, Note_on_c, 0, 65, 67
4, 86880, Note_on_c, 0, 65, 0
4, 86880, Note_on_c, 0, 60, 0
4, 86880, Note_on_c, 0, 57, 67
4, 86880, Note_on_c, 0, 60, 67
4, 87120, Note_on_c, 0, 60, 0
4, 87120, Note_on_c, 0, 57, 0
4, 87120, Note_on_c, 0, 60, 67
4, 87120, Note_on_c, 0, 65, 67
4, 87360, Note_on_c, 0, 65, 0
4, 87360, Note_on_c, 0, 60, 0
4, 87360, Note_on_c, 0, 57, 93
4, 87360, Note_on_c, 0, 60, 93
4, 87600, Note_on_c, 0, 60, 0
4, 87600, Note_on_c, 0, 57, 0
4, 87600, Note_on_c, 0, 60, 67
4, 87600, Note_on_c, 0, 65, 67
4, 87840, Note_on_c, 0, 65, 0
4, 87840, Note_on_c, 0, 60, 0
4, 88320, Note_on_c, 0, 57, 67
4, 88320, Note_on_c, 0, 60, 67
4, 88560, Note_on_c, 0, 60, 0
4, 88560, Note_on_c, 0, 57, 0
4, 88560, Note_on_c, 0, 60, 67
4, 88560, Note_on_c, 0, 65, 67
4, 88800, Note_on_c, 0, 65, 0
4, 88800, Note_on_c, 0, 60, 0
4, 88800, Note_on_c, 0, 57, 67
4, 88800, Note_on_c, 0, 60, 67
4, 89040, Note_on_c, 0, 60, 0
4, 89040, Note_on_c, 0, 57, 0
4, 89040, Note_on_c, 0, 60, 67
4, 89040, Note_on_c, 0, 65, 67
4, 89280, Note_on_c, 0, 65, 0
4, 89280, Note_on_c, 0, 60, 0
4, 89280, Note_on_c, 0, 57, 93
4, 89280, Note_on_c, 0, 60, 93
4, 89520, Note_on_c, 0, 60, 0
4, 89520, Note_on_c, 0, 57, 0
4, 89520, Note_on_c, 0, 60, 67
4, 89520, Note_on_c, 0, 65, 67
4, 89760, Note_on_c, 0, 65, 0
4, 89760, Note_on_c, 0, 60, 0
4, 90240, Note_on_c, 0, 53, 93
4, 90240, Note_on_c, 0, 57, 93
4, 90240, Note_on_c, 0, 63, 93
4, 90720, Note_on_c, 0, 63, 0
4, 90720, Note_on_c, 0, 57, 0
4, 90720, Note_on_c, 0, 53, 0
4, 90720, Note_on_c, 0, 52, 93
4, 90720, Note_on_c, 0, 57, 93
4, 90720, Note_on_c, 0, 60, 93
4, 90720, Note_on_c, 0, 64, 93
4, 91200, Note_on_c, 0, 64, 0
4, 91200, Note_on_c, 0, 52, 0
4, 91200, Note_on_c, 0, 57, 0
4, 91200, Note_on_c, 0, 60, 0
4, 91200, Note_on_c, 0, 50, 93
4, 91200, Note_on_c, 0, 54, 93
4, 91200, Note_on_c, 0, 57, 93
4, 91200, Note_on_c, 0, 60, 93
4, 91680, Note_on_c, 0, 60, 0
4, 91680, Note_on_c, 0, 50, 0
4, 91680, Note_on_c, 0, 54, 0
4, 91680, Note_on_c, 0, 57, 0
4, 91680, Note_on_c, 0, 51, 93
4, 91680, Note_on_c, 0, 53, 93
4, 91680, Note_on_c, 0, 57, 93
4, 91680, Note_on_c, 0, 60, 93
4, 92160, Note_on_c, 0, 60, 0
4, 92160, Note_on_c, 0, 51, 0
4, 92160, Note_on_c, 0, 53, 0
4, 92160, Note_on_c, 0, 57, 0
4, 92160, Note_on_c, 0, 52, 93
4, 92160, Note_on_c, 0, 57, 93
4, 92160, Note_on_c, 0, 60, 93
4, 92160, Note_on_c, 0, 64, 93
4, 92640, Note_on_c, 0, 64, 0
4, 92640, Note_on_c, 0, 52, 0
4, 92640, Note_on_c, 0, 57, 0
4, 92640, Note_on_c, 0, 60, 0
4, 92640, Note_on_c, 0, 52, 80
4, 92640, Note_on_c, 0, 56, 80
4, 92640, Note_on_c, 0, 62, 80
4, 92640, Note_on_c, 0, 64, 80
4, 93120, Note_on_c, 0, 64, 0
4, 93120, Note_on_c, 0, 52, 0
4, 93120, Note_on_c, 0, 56, 0
4, 93120, Note_on_c, 0, 62, 0
4, 93120, Note_on_c, 0, 57, 80
4, 93120, Note_on_c, 0, 60, 80
4, 93120, Note_on_c, 0, 64, 80
4, 93600, Note_on_c, 0, 64, 0
4, 93600, Note_on_c, 0, 60, 0
4, 93600, Note_on_c, 0, 57, 0
4, 94080, Note_on_c, 0, 57, 80
4, 94080, Note_on_c, 0, 60, 80
4, 94320, Note_on_c, 0, 60, 0
4, 94320, Note_on_c, 0, 57, 0
4, 94320, Note_on_c, 0, 60, 80
4, 94320, Note_on_c, 0, 65, 80
4, 94560, Note_on_c, 0, 65, 0
4, 94560, Note_on_c, 0, 57, 80
4, 94800, Note_on_c, 0, 57, 0
4, 94800, Note_on_c, 0, 60, 0
4, 94800, Note_on_c, 0, 60, 80
4, 94800, Note_on_c, 0, 65, 80
4, 95040, Note_on_c, 0, 65, 0
4, 95040, Note_on_c, 0, 60, 0
4, 95040, Note_on_c, 0, 57, 106
4, 95040, Note_on_c, 0, 60, 106
4, 95280, Note_on_c, 0, 60, 0
4, 95280, Note_on_c, 0, 57, 0
4, 95280, Note_on_c, 0, 60, 80
4, 95280, Note_on_c, 0, 65, 80
4, 95520, Note_on_c, 0, 65, 0
4, 95520, Note_on_c, 0, 60, 0
4, 96000, Note_on_c, 0, 57, 80
4, 96000, Note_on_c, 0, 60, 80
4, 96240, Note_on_c, 0, 60, 0
4, 96240, Note_on_c, 0, 57, 0
4, 96240, Note_on_c, 0, 60, 80
4, 96240, Note_on_c, 0, 65, 80
4, 96480, Note_on_c, 0, 65, 0
4, 96480, Note_on_c, 0, 60, 0
4, 96480, Note_on_c, 0, 57, 80
4, 96480, Note_on_c, 0, 60, 80
4, 96720, Note_on_c, 0, 60, 0
4, 96720, Note_on_c, 0, 57, 0
4, 96720, Note_on_c, 0, 60, 80
4, 96720, Note_on_c, 0, 65, 80
4, 96960, Note_on_c, 0, 65, 0
4, 96960, Note_on_c, 0, 60, 0
4, 96960, Note_on_c, 0, 57, 106
4, 96960, Note_on_c, 0, 60, 106
4, 97200, Note_on_c, 0, 60, 0
4, 97200, Note_on_c, 0, 57, 0
4, 97200, Note_on_c, 0, 60, 80
4, 97200, Note_on_c, 0, 65, 80
4, 97440, Note_on_c, 0, 65, 0
4, 97440, Note_on_c, 0, 60, 0
4, 97920, Note_on_c, 0, 67, 106
4, 98400, Note_on_c, 0, 67, 0
4, 98400, Note_on_c, 0, 65, 80
4, 98880, Note_on_c, 0, 65, 0
4, 98880, Note_on_c, 0, 64, 106
4, 99360, Note_on_c, 0, 64, 0
4, 99360, Note_on_c, 0, 63, 80
4, 99840, Note_on_c, 0, 63, 0
4, 99840, Note_on_c, 0, 50, 106
4, 99840, Note_on_c, 0, 53, 106
4, 99840, Note_on_c, 0, 58, 106
4, 99840, Note_on_c, 0, 62, 106
4, 100320, Note_on_c, 0, 62, 0
4, 100320, Note_on_c, 0, 50, 0
4, 100320, Note_on_c, 0, 53, 0
4, 100320, Note_on_c, 0, 49, 80
4, 100320, Note_on_c, 0, 53, 80
4, 100320, Note_on_c, 0, 61, 80
4, 100800, Note_on_c, 0, 61, 0
4, 100800, Note_on_c, 0, 58, 0
4, 100800, Note_on_c, 0, 49, 0
4, 100800, Note_on_c, 0, 53, 0
4, 100800, Note_on_c, 0, 48, 106
4, 100800, Note_on_c, 0, 52, 106
4, 100800, Note_on_c, 0, 58, 106
4, 100800, Note_on_c, 0, 60, 106
4, 101280, Note_on_c, 0, 58, 0
4, 101280, Note_on_c, 0, 52, 0
4, 101280, Note_on_c, 0, 53, 80
4, 101280, Note_on_c, 0, 57, 80
4, 101520, Note_on_c, 0, 57, 0
4, 101520, Note_on_c, 0, 60, 0
4, 101520, Note_on_c, 0, 48, 0
4, 101520, Note_on_c, 0, 53, 0
4, 101760, Note_on_c, 0, 57, 67
4, 101760, Note_on_c, 0, 60, 67
4, 102000, Note_on_c, 0, 60, 0
4, 102000, Note_on_c, 0, 57, 0
4, 102000, Note_on_c, 0, 60, 67
4, 102000, Note_on_c, 0, 65, 67
4, 102240, Note_on_c, 0, 65, 0
4, 102240, Note_on_c, 0, 60, 0
4, 102240, Note_on_c, 0, 57, 67
4, 102240, Note_on_c, 0, 60, 67
4, 102480, Note_on_c, 0, 60, 0
4, 102480, Note_on_c, 0, 57, 0
4, 102480, Note_on_c, 0, 60, 67
4, 102480, Note_on_c, 0, 65, 67
4, 102720, Note_on_c, 0, 65, 0
4, 102720, Note_on_c, 0, 60, 0
4, 102720, Note_on_c, 0, 57, 93
4, 102720, Note_on_c, 0, 60, 93
4, 102960, Note_on_c, 0, 60, 0
4, 102960, Note_on_c, 0, 57, 0
4, 102960, Note_on_c, 0, 60, 67
4, 102960, Note_on_c, 0, 65, 67
4, 103200, Note_on_c, 0, 65, 0
4, 103200, Note_on_c, 0, 60, 0
4, 103680, Note_on_c, 0, 57, 67
4, 103680, Note_on_c, 0, 60, 67
4, 103920, Note_on_c, 0, 60, 0
4, 103920, Note_on_c, 0, 57, 0
4, 103920, Note_on_c, 0, 60, 67
4, 103920, Note_on_c, 0, 65, 67
4, 104160, Note_on_c, 0, 65, 0
4, 104160, Note_on_c, 0, 60, 0
4, 104160, Note_on_c, 0, 57, 67
4, 104160, Note_on_c, 0, 60, 67
4, 104400, Note_on_c, 0, 60, 0
4, 104400, Note_on_c, 0, 57, 0
4, 104400, Note_on_c, 0, 60, 67
4, 104400, Note_on_c, 0, 65, 67
4, 104640, Note_on_c, 0, 65, 0
4, 104640, Note_on_c, 0, 60, 0
4, 104640, Note_on_c, 0, 57, 93
4, 104640, Note_on_c, 0, 60, 93
4, 104880, Note_on_c, 0, 60, 0
4, 104880, Note_on_c, 0, 57, 0
4, 104880, Note_on_c, 0, 60, 67
4, 104880, Note_on_c, 0, 65, 67
4, 105120, Note_on_c, 0, 65, 0
4, 105120, Note_on_c, 0, 60, 0
4, 105600, Note_on_c, 0, 53, 93
4, 105600, Note_on_c, 0, 57, 93
4, 105600, Note_on_c, 0, 60, 93
4, 106080, Note_on_c, 0, 60, 0
4, 106080, Note_on_c, 0, 57, 0
4, 106080, Note_on_c, 0, 53, 0
4, 106560, Note_on_c, 0, 53, 93
4, 106560, Note_on_c, 0, 57, 93
4, 106560, Note_on_c, 0, 60, 93
4, 107040, Note_on_c, 0, 60, 0
4, 107040, Note_on_c, 0, 57, 0
4, 107040, Note_on_c, 0, 53, 0
4, 107520, Note_on_c, 0, 53, 93
4, 107520, Note_on_c, 0, 57, 93
4, 107520, Note_on_c, 0, 60, 93
4, 108000, Note_on_c, 0, 60, 0
4, 108000, Note_on_c, 0, 57, 0
4, 108000, Note_on_c, 0, 53, 0
4, 108000, Note_on_c, 0, 53, 93
4, 108000, Note_on_c, 0, 57, 93
4, 108000, Note_on_c, 0, 60, 93
4, 108480, Note_on_c, 0, 60, 0
4, 108480, Note_on_c, 0, 57, 0
4, 108480, Note_on_c, 0, 53, 0
4, 108480, Note_on_c, 0, 52, 93
4, 108480, Note_on_c, 0, 56, 93
4, 108480, Note_on_c, 0, 59, 93
4, 108480, Note_on_c, 0, 64, 93
4, 108960, Note_on_c, 0, 64, 0
4, 108960, Note_on_c, 0, 52, 0
4, 108960, Note_on_c, 0, 56, 0
4, 108960, Note_on_c, 0, 59, 0
4, 109440, Note_on_c, 0, 45, 80
4, 109440, Note_on_c, 0, 49, 80
4, 109440, Note_on_c, 0, 52, 80
4, 109440, Note_on_c, 0, 57, 80
4, 109536, Note_on_c, 0, 57, 0
4, 109536, Note_on_c, 0, 45, 0
4, 109536, Note_on_c, 0, 49, 0
4, 109536, Note_on_c, 0, 52, 0
4, 109920, Note_on_c, 0, 45, 80
4, 109920, Note_on_c, 0, 49, 80
4, 109920, Note_on_c, 0, 52, 80
4, 109920, Note_on_c, 0, 57, 80
4, 110016, Note_on_c, 0, 57, 0
4, 110016, Note_on_c, 0, 45, 0
4, 110016, Note_on_c, 0, 49, 0
4, 110016, Note_on_c, 0, 52, 0
4, 110400, Note_on_c, 0, 45, 80
4, 110400, Note_on_c, 0, 49, 80
4, 110400, Note_on_c, 0, 52, 80
4, 110400, Note_on_c, 0, 57, 80
4, 110496, Note_on_c, 0, 57, 0
4, 110496, Note_on_c, 0, 45, 0
4, 110496, Note_on_c, 0, 49, 0
4, 110496, Note_on_c, 0, 52, 0
4, 110880, Note_on_c, 0, 45, 80
4, 110880, Note_on_c, 0, 52, 80
4, 110880, Note_on_c, 0, 59, 80
4, 110976, Note_on_c, 0, 59, 0
4, 110976, Note_on_c, 0, 52, 0
4, 110976, Note_on_c, 0, 45, 0
4, 111360, Note_on_c, 0, 45, 80
4, 111360, Note_on_c, 0, 48, 80
4, 111360, Note_on_c, 0, 52, 80
4, 111360, Note_on_c, 0, 57, 80
4, 111456, Note_on_c, 0, 57, 0
4, 111456, Note_on_c, 0, 45, 0
4, 111456, Note_on_c, 0, 48, 0
4, 111456, Note_on_c, 0, 52, 0
4, 111840, Note_on_c, 0, 45, 80
4, 111840, Note_on_c, 0, 49, 80
4, 111840, Note_on_c, 0, 52, 80
4, 111840, Note_on_c, 0, 57, 80
4, 111936, Note_on_c, 0, 57, 0
4, 111936, Note_on_c, 0, 45, 0
4, 111936, Note_on_c, 0, 49, 0
4, 111936, Note_on_c, 0, 52, 0
4, 112320, Note_on_c, 0, 45, 80
4, 112320, Note_on_c, 0, 49, 80
4, 112320, Note_on_c, 0, 52, 80
4, 112320, Note_on_c, 0, 57, 80
4, 112416, Note_on_c, 0, 57, 0
4, 112416, Note_on_c, 0, 45, 0
4, 112416, Note_on_c, 0, 49, 0
4, 112416, Note_on_c, 0, 52, 0
4, 112800, Note_on_c, 0, 45, 80
4, 112800, Note_on_c, 0, 50, 80
4, 112800, Note_on_c, 0, 52, 80
4, 112800, Note_on_c, 0, 57, 80
4, 112896, Note_on_c, 0, 57, 0
4, 112896, Note_on_c, 0, 45, 0
4, 112896, Note_on_c, 0, 50, 0
4, 112896, Note_on_c, 0, 52, 0
4, 113280, Note_on_c, 0, 45, 80
4, 113280, Note_on_c, 0, 48, 80
4, 113280, Note_on_c, 0, 52, 80
4, 113280, Note_on_c, 0, 57, 80
4, 113376, Note_on_c, 0, 57, 0
4, 113376, Note_on_c, 0, 45, 0
4, 113376, Note_on_c, 0, 48, 0
4, 113376, Note_on_c, 0, 52, 0
4, 113760, Note_on_c, 0, 45, 80
4, 113760, Note_on_c, 0, 49, 80
4, 113760, Note_on_c, 0, 52, 80
4, 113760, Note_on_c, 0, 57, 80
4, 113856, Note_on_c, 0, 57, 0
4, 113856, Note_on_c, 0, 45, 0
4, 113856, Note_on_c, 0, 49, 0
4, 113856, Note_on_c, 0, 52, 0
4, 114240, Note_on_c, 0, 45, 80
4, 114240, Note_on_c, 0, 49, 80
4, 114240, Note_on_c, 0, 52, 80
4, 114240, Note_on_c, 0, 57, 80
4, 114336, Note_on_c, 0, 57, 0
4, 114336, Note_on_c, 0, 45, 0
4, 114336, Note_on_c, 0, 49, 0
4, 114336, Note_on_c, 0, 52, 0
4, 114720, Note_on_c, 0, 45, 80
4, 114720, Note_on_c, 0, 49, 80
4, 114720, Note_on_c, 0, 52, 80
4, 114720, Note_on_c, 0, 57, 80
4, 114816, Note_on_c, 0, 57, 0
4, 114816, Note_on_c, 0, 45, 0
4, 114816, Note_on_c, 0, 49, 0
4, 114816, Note_on_c, 0, 52, 0
4, 115200, Note_on_c, 0, 52, 80
4, 115200, Note_on_c, 0, 56, 80
4, 115200, Note_on_c, 0, 59, 80
4, 115200, Note_on_c, 0, 64, 80
4, 115296, Note_on_c, 0, 64, 0
4, 115296, Note_on_c, 0, 52, 0
4, 115296, Note_on_c, 0, 56, 0
4, 115296, Note_on_c, 0, 59, 0
4, 115680, Note_on_c, 0, 52, 80
4, 115680, Note_on_c, 0, 55, 80
4, 115680, Note_on_c, 0, 61, 80
4, 115680, Note_on_c, 0, 64, 80
4, 115776, Note_on_c, 0, 64, 0
4, 115776, Note_on_c, 0, 52, 0
4, 115776, Note_on_c, 0, 55, 0
4, 115776, Note_on_c, 0, 61, 0
4, 116160, Note_on_c, 0, 52, 80
4, 116160, Note_on_c, 0, 56, 80
4, 116160, Note_on_c, 0, 59, 80
4, 116160, Note_on_c, 0, 64, 80
4, 116256, Note_on_c, 0, 64, 0
4, 116256, Note_on_c, 0, 52, 0
4, 116256, Note_on_c, 0, 56, 0
4, 116256, Note_on_c, 0, 59, 0
4, 116640, Note_on_c, 0, 52, 80
4, 116640, Note_on_c, 0, 56, 80
4, 116640, Note_on_c, 0, 59, 80
4, 116640, Note_on_c, 0, 64, 80
4, 116736, Note_on_c, 0, 64, 0
4, 116736, Note_on_c, 0, 52, 0
4, 116736, Note_on_c, 0, 56, 0
4, 116736, Note_on_c, 0, 59, 0
4, 117120, Note_on_c, 0, 45, 80
4, 117120, Note_on_c, 0, 49, 80
4, 117120, Note_on_c, 0, 52, 80
4, 117120, Note_on_c, 0, 57, 80
4, 117216, Note_on_c, 0, 57, 0
4, 117216, Note_on_c, 0, 45, 0
4, 117216, Note_on_c, 0, 49, 0
4, 117216, Note_on_c, 0, 52, 0
4, 117600, Note_on_c, 0, 45, 80
4, 117600, Note_on_c, 0, 49, 80
4, 117600, Note_on_c, 0, 52, 80
4, 117600, Note_on_c, 0, 57, 80
4, 117696, Note_on_c, 0, 57, 0
4, 117696, Note_on_c, 0, 45, 0
4, 117696, Note_on_c, 0, 49, 0
4, 117696, Note_on_c, 0, 52, 0
4, 118080, Note_on_c, 0, 45, 80
4, 118080, Note_on_c, 0, 49, 80
4, 118080, Note_on_c, 0, 52, 80
4, 118080, Note_on_c, 0, 57, 80
4, 118176, Note_on_c, 0, 57, 0
4, 118176, Note_on_c, 0, 45, 0
4, 118176, Note_on_c, 0, 49, 0
4, 118176, Note_on_c, 0, 52, 0
4, 118560, Note_on_c, 0, 45, 80
4, 118560, Note_on_c, 0, 52, 80
4, 118560, Note_on_c, 0, 59, 80
4, 118656, Note_on_c, 0, 59, 0
4, 118656, Note_on_c, 0, 52, 0
4, 118656, Note_on_c, 0, 45, 0
4, 119040, Note_on_c, 0, 45, 80
4, 119040, Note_on_c, 0, 48, 80
4, 119040, Note_on_c, 0, 52, 80
4, 119040, Note_on_c, 0, 57, 80
4, 119136, Note_on_c, 0, 57, 0
4, 119136, Note_on_c, 0, 45, 0
4, 119136, Note_on_c, 0, 48, 0
4, 119136, Note_on_c, 0, 52, 0
4, 119520, Note_on_c, 0, 43, 80
4, 119520, Note_on_c, 0, 45, 80
4, 119520, Note_on_c, 0, 49, 80
4, 119520, Note_on_c, 0, 52, 80
4, 119616, Note_on_c, 0, 52, 0
4, 119616, Note_on_c, 0, 43, 0
4, 119616, Note_on_c, 0, 45, 0
4, 119616, Note_on_c, 0, 49, 0
4, 120000, Note_on_c, 0, 42, 80
4, 120000, Note_on_c, 0, 46, 80
4, 120000, Note_on_c, 0, 49, 80
4, 120000, Note_on_c, 0, 54, 80
4, 120096, Note_on_c, 0, 54, 0
4, 120096, Note_on_c, 0, 42, 0
4, 120096, Note_on_c, 0, 46, 0
4, 120096, Note_on_c, 0, 49, 0
4, 120480, Note_on_c, 0, 42, 80
4, 120480, Note_on_c, 0, 46, 80
4, 120480, Note_on_c, 0, 49, 80
4, 120480, Note_on_c, 0, 54, 80
4, 120576, Note_on_c, 0, 54, 0
4, 120576, Note_on_c, 0, 42, 0
4, 120576, Note_on_c, 0, 46, 0
4, 120576, Note_on_c, 0, 49, 0
4, 120960, Note_on_c, 0, 47, 80
4, 120960, Note_on_c, 0, 50, 80
4, 120960, Note_on_c, 0, 54, 80
4, 120960, Note_on_c, 0, 59, 80
4, 121056, Note_on_c, 0, 59, 0
4, 121056, Note_on_c, 0, 47, 0
4, 121056, Note_on_c, 0, 50, 0
4, 121056, Note_on_c, 0, 54, 0
4, 121440, Note_on_c, 0, 47, 80
4, 121440, Note_on_c, 0, 50, 80
4, 121440, Note_on_c, 0, 54, 80
4, 121440, Note_on_c, 0, 59, 80
4, 121536, Note_on_c, 0, 59, 0
4, 121536, Note_on_c, 0, 47, 0
4, 121536, Note_on_c, 0, 50, 0
4, 121536, Note_on_c, 0, 54, 0
4, 121920, Note_on_c, 0, 47, 80
4, 121920, Note_on_c, 0, 54, 80
4, 121920, Note_on_c, 0, 59, 80
4, 121967, Note_on_c, 0, 59, 0
4, 121967, Note_on_c, 0, 54, 0
4, 121967, Note_on_c, 0, 47, 0
4, 122160, Note_on_c, 0, 50, 80
4, 122207, Note_on_c, 0, 50, 0
4, 122400, Note_on_c, 0, 52, 80
4, 122400, Note_on_c, 0, 59, 80
4, 122400, Note_on_c, 0, 62, 80
4, 122496, Note_on_c, 0, 62, 0
4, 122496, Note_on_c, 0, 59, 0
4, 122496, Note_on_c, 0, 52, 0
4, 122880, Note_on_c, 0, 45, 80
4, 122880, Note_on_c, 0, 49, 80
4, 122880, Note_on_c, 0, 52, 80
4, 122880, Note_on_c, 0, 57, 80
4, 123120, Note_on_c, 0, 57, 0
4, 123120, Note_on_c, 0, 45, 0
4, 123120, Note_on_c, 0, 49, 0
4, 123120, Note_on_c, 0, 52, 0
4, 123280, Note_on_c, 0, 45, 80
4, 123320, Note_on_c, 0, 52, 80
4, 123360, Note_on_c, 0, 61, 80
4, 123600, Note_on_c, 0, 61, 0
4, 123600, Note_on_c, 0, 52, 0
4, 123600, Note_on_c, 0, 45, 0
4, 123840, Note_on_c, 0, 33, 93
4, 123840, Note_on_c, 0, 45, 93
4, 124080, Note_on_c, 0, 45, 0
4, 124080, Note_on_c, 0, 33, 0
4, 124800, Note_on_c, 0, 54, 54
4, 124800, Note_on_c, 0, 57, 54
4, 124800, Note_on_c, 0, 61, 54
4, 124800, Note_on_c, 0, 66, 54
4, 124847, Note_on_c, 0, 66, 0
4, 124847, Note_on_c, 0, 54, 0
4, 124847, Note_on_c, 0, 57, 0
4, 124847, Note_on_c, 0, 61, 0
4, 125040, Note_on_c, 0, 66, 54
4, 125040, Note_on_c, 0, 69, 54
4, 125040, Note_on_c, 0, 73, 54
4, 125087, Note_on_c, 0, 73, 0
4, 125087, Note_on_c, 0, 69, 0
4, 125087, Note_on_c, 0, 66, 0
4, 125280, Note_on_c, 0, 66, 54
4, 125280, Note_on_c, 0, 69, 54
4, 125280, Note_on_c, 0, 73, 54
4, 125327, Note_on_c, 0, 73, 0
4, 125327, Note_on_c, 0, 69, 0
4, 125327, Note_on_c, 0, 66, 0
4, 125520, Note_on_c, 0, 66, 54
4, 125520, Note_on_c, 0, 69, 54
4, 125520, Note_on_c, 0, 73, 54
4, 125567, Note_on_c, 0, 73, 0
4, 125567, Note_on_c, 0, 69, 0
4, 125567, Note_on_c, 0, 66, 0
4, 125760, Note_on_c, 0, 66, 54
4, 125760, Note_on_c, 0, 69, 54
4, 125760, Note_on_c, 0, 73, 54
4, 125807, Note_on_c, 0, 73, 0
4, 125807, Note_on_c, 0, 69, 0
4, 125807, Note_on_c, 0, 66, 0
4, 126000, Note_on_c, 0, 66, 54
4, 126000, Note_on_c, 0, 69, 54
4, 126000, Note_on_c, 0, 73, 54
4, 126047, Note_on_c, 0, 73, 0
4, 126047, Note_on_c, 0, 69, 0
4, 126047, Note_on_c, 0, 66, 0
4, 126240, Note_on_c, 0, 66, 54
4, 126240, Note_on_c, 0, 69, 54
4, 126240, Note_on_c, 0, 73, 54
4, 126287, Note_on_c, 0, 73, 0
4, 126287, Note_on_c, 0, 69, 0
4, 126287, Note_on_c, 0, 66, 0
4, 126480, Note_on_c, 0, 66, 54
4, 126480, Note_on_c, 0, 69, 54
4, 126480, Note_on_c, 0, 73, 54
4, 126527, Note_on_c, 0, 73, 0
4, 126527, Note_on_c, 0, 69, 0
4, 126527, Note_on_c, 0, 66, 0
4, 126720, Note_on_c, 0, 54, 54
4, 126720, Note_on_c, 0, 59, 54
4, 126720, Note_on_c, 0, 62, 54
4, 126767, Note_on_c, 0, 62, 0
4, 126767, Note_on_c, 0, 59, 0
4, 126767, Note_on_c, 0, 54, 0
4, 126960, Note_on_c, 0, 66, 54
4, 126960, Note_on_c, 0, 71, 54
4, 126960, Note_on_c, 0, 74, 54
4, 127007, Note_on_c, 0, 74, 0
4, 127007, Note_on_c, 0, 71, 0
4, 127007, Note_on_c, 0, 66, 0
4, 127200, Note_on_c, 0, 66, 54
4, 127200, Note_on_c, 0, 71, 54
4, 127200, Note_on_c, 0, 74, 54
4, 127247, Note_on_c, 0, 74, 0
4, 127247, Note_on_c, 0, 71, 0
4, 127247, Note_on_c, 0, 66, 0
4, 127440, Note_on_c, 0, 66, 54
4, 127440, Note_on_c, 0, 71, 54
4, 127440, Note_on_c, 0, 74, 54
4, 127487, Note_on_c, 0, 74, 0
4, 127487, Note_on_c, 0, 71, 0
4, 127487, Note_on_c, 0, 66, 0
4, 127680, Note_on_c, 0, 66, 54
4, 127680, Note_on_c, 0, 71, 54
4, 127680, Note_on_c, 0, 74, 54
4, 127727, Note_on_c, 0, 74, 0
4, 127727, Note_on_c, 0, 71, 0
4, 127727, Note_on_c, 0, 66, 0
4, 127920, Note_on_c, 0, 66, 54
4, 127920, Note_on_c, 0, 71, 54
4, 127920, Note_on_c, 0, 74, 54
4, 127967, Note_on_c, 0, 74, 0
4, 127967, Note_on_c, 0, 71, 0
4, 127967, Note_on_c, 0, 66, 0
4, 128160, Note_on_c, 0, 66, 54
4, 128160, Note_on_c, 0, 71, 54
4, 128160, Note_on_c, 0, 74, 54
4, 128207, Note_on_c, 0, 74, 0
4, 128207, Note_on_c, 0, 71, 0
4, 128207, Note_on_c, 0, 66, 0
4, 128400, Note_on_c, 0, 66, 54
4, 128400, Note_on_c, 0, 71, 54
4, 128400, Note_on_c, 0, 74, 54
4, 128447, Note_on_c, 0, 74, 0
4, 128447, Note_on_c, 0, 71, 0
4, 128447, Note_on_c, 0, 66, 0
4, 128640, Note_on_c, 0, 54, 54
4, 128640, Note_on_c, 0, 57, 54
4, 128640, Note_on_c, 0, 61, 54
4, 128640, Note_on_c, 0, 66, 54
4, 128687, Note_on_c, 0, 66, 0
4, 128687, Note_on_c, 0, 54, 0
4, 128687, Note_on_c, 0, 57, 0
4, 128687, Note_on_c, 0, 61, 0
4, 128880, Note_on_c, 0, 66, 54
4, 128880, Note_on_c, 0, 69, 54
4, 128927, Note_on_c, 0, 69, 0
4, 128927, Note_on_c, 0, 66, 0
4, 129120, Note_on_c, 0, 66, 54
4, 129120, Note_on_c, 0, 69, 54
4, 129167, Note_on_c, 0, 69, 0
4, 129167, Note_on_c, 0, 66, 0
4, 129360, Note_on_c, 0, 66, 54
4, 129360, Note_on_c, 0, 69, 54
4, 129407, Note_on_c, 0, 69, 0
4, 129407, Note_on_c, 0, 66, 0
4, 129600, Note_on_c, 0, 66, 54
4, 129600, Note_on_c, 0, 69, 54
4, 129647, Note_on_c, 0, 69, 0
4, 129647, Note_on_c, 0, 66, 0
4, 129840, Note_on_c, 0, 66, 54
4, 129840, Note_on_c, 0, 69, 54
4, 129887, Note_on_c, 0, 69, 0
4, 129887, Note_on_c, 0, 66, 0
4, 130080, Note_on_c, 0, 66, 54
4, 130080, Note_on_c, 0, 69, 54
4, 130127, Note_on_c, 0, 69, 0
4, 130127, Note_on_c, 0, 66, 0
4, 130320, Note_on_c, 0, 66, 54
4, 130320, Note_on_c, 0, 69, 54
4, 130367, Note_on_c, 0, 69, 0
4, 130367, Note_on_c, 0, 66, 0
4, 130560, Note_on_c, 0, 65, 54
4, 130560, Note_on_c, 0, 71, 54
4, 130607, Note_on_c, 0, 71, 0
4, 130607, Note_on_c, 0, 65, 0
4, 130800, Note_on_c, 0, 65, 54
4, 130800, Note_on_c, 0, 71, 54
4, 130847, Note_on_c, 0, 71, 0
4, 130847, Note_on_c, 0, 65, 0
4, 131040, Note_on_c, 0, 66, 54
4, 131040, Note_on_c, 0, 69, 54
4, 131087, Note_on_c, 0, 69, 0
4, 131087, Note_on_c, 0, 66, 0
4, 131280, Note_on_c, 0, 66, 54
4, 131280, Note_on_c, 0, 69, 54
4, 131327, Note_on_c, 0, 69, 0
4, 131327, Note_on_c, 0, 66, 0
4, 131520, Note_on_c, 0, 68, 54
4, 131520, Note_on_c, 0, 71, 54
4, 131567, Note_on_c, 0, 71, 0
4, 131567, Note_on_c, 0, 68, 0
4, 131760, Note_on_c, 0, 68, 54
4, 131760, Note_on_c, 0, 71, 54
4, 131807, Note_on_c, 0, 71, 0
4, 131807, Note_on_c, 0, 68, 0
4, 132000, Note_on_c, 0, 65, 54
4, 132000, Note_on_c, 0, 71, 54
4, 132047, Note_on_c, 0, 71, 0
4, 132047, Note_on_c, 0, 65, 0
4, 132240, Note_on_c, 0, 65, 54
4, 132240, Note_on_c, 0, 71, 54
4, 132287, Note_on_c, 0, 71, 0
4, 132287, Note_on_c, 0, 65, 0
4, 132480, Note_on_c, 0, 54, 54
4, 132480, Note_on_c, 0, 57, 54
4, 132480, Note_on_c, 0, 61, 54
4, 132480, Note_on_c, 0, 66, 54
4, 132527, Note_on_c, 0, 66, 0
4, 132527, Note_on_c, 0, 54, 0
4, 132527, Note_on_c, 0, 57, 0
4, 132527, Note_on_c, 0, 61, 0
4, 132720, Note_on_c, 0, 66, 54
4, 132720, Note_on_c, 0, 69, 54
4, 132720, Note_on_c, 0, 73, 54
4, 132767, Note_on_c, 0, 73, 0
4, 132767, Note_on_c, 0, 69, 0
4, 132767, Note_on_c, 0, 66, 0
4, 132960, Note_on_c, 0, 66, 54
4, 132960, Note_on_c, 0, 69, 54
4, 132960, Note_on_c, 0, 73, 54
4, 133007, Note_on_c, 0, 73, 0
4, 133007, Note_on_c, 0, 69, 0
4, 133007, Note_on_c, 0, 66, 0
4, 133200, Note_on_c, 0, 66, 54
4, 133200, Note_on_c, 0, 69, 54
4, 133200, Note_on_c, 0, 73, 54
4, 133247, Note_on_c, 0, 73, 0
4, 133247, Note_on_c, 0, 69, 0
4, 133247, Note_on_c, 0, 66, 0
4, 133440, Note_on_c, 0, 66, 54
4, 133440, Note_on_c, 0, 69, 54
4, 133440, Note_on_c, 0, 73, 54
4, 133487, Note_on_c, 0, 73, 0
4, 133487, Note_on_c, 0, 69, 0
4, 133487, Note_on_c, 0, 66, 0
4, 133680, Note_on_c, 0, 66, 54
4, 133680, Note_on_c, 0, 69, 54
4, 133680, Note_on_c, 0, 73, 54
4, 133727, Note_on_c, 0, 73, 0
4, 133727, Note_on_c, 0, 69, 0
4, 133727, Note_on_c, 0, 66, 0
4, 133920, Note_on_c, 0, 66, 54
4, 133920, Note_on_c, 0, 69, 54
4, 133920, Note_on_c, 0, 73, 54
4, 133967, Note_on_c, 0, 73, 0
4, 133967, Note_on_c, 0, 69, 0
4, 133967, Note_on_c, 0, 66, 0
4, 134160, Note_on_c, 0, 66, 54
4, 134160, Note_on_c, 0, 69, 54
4, 134160, Note_on_c, 0, 73, 54
4, 134207, Note_on_c, 0, 73, 0
4, 134207, Note_on_c, 0, 69, 0
4, 134207, Note_on_c, 0, 66, 0
4, 134400, Note_on_c, 0, 54, 54
4, 134400, Note_on_c, 0, 59, 54
4, 134400, Note_on_c, 0, 62, 54
4, 134447, Note_on_c, 0, 62, 0
4, 134447, Note_on_c, 0, 59, 0
4, 134447, Note_on_c, 0, 54, 0
4, 134640, Note_on_c, 0, 66, 54
4, 134640, Note_on_c, 0, 71, 54
4, 134640, Note_on_c, 0, 74, 54
4, 134687, Note_on_c, 0, 74, 0
4, 134687, Note_on_c, 0, 71, 0
4, 134687, Note_on_c, 0, 66, 0
4, 134880, Note_on_c, 0, 66, 54
4, 134880, Note_on_c, 0, 71, 54
4, 134880, Note_on_c, 0, 74, 54
4, 134927, Note_on_c, 0, 74, 0
4, 134927, Note_on_c, 0, 71, 0
4, 134927, Note_on_c, 0, 66, 0
4, 135120, Note_on_c, 0, 66, 54
4, 135120, Note_on_c, 0, 71, 54
4, 135120, Note_on_c, 0, 74, 54
4, 135167, Note_on_c, 0, 74, 0
4, 135167, Note_on_c, 0, 71, 0
4, 135167, Note_on_c, 0, 66, 0
4, 135360, Note_on_c, 0, 66, 54
4, 135360, Note_on_c, 0, 71, 54
4, 135360, Note_on_c, 0, 74, 54
4, 135407, Note_on_c, 0, 74, 0
4, 135407, Note_on_c, 0, 71, 0
4, 135407, Note_on_c, 0, 66, 0
4, 135600, Note_on_c, 0, 66, 54
4, 135600, Note_on_c, 0, 71, 54
4, 135600, Note_on_c, 0, 74, 54
4, 135647, Note_on_c, 0, 74, 0
4, 135647, Note_on_c, 0, 71, 0
4, 135647, Note_on_c, 0, 66, 0
4, 135840, Note_on_c, 0, 66, 54
4, 135840, Note_on_c, 0, 71, 54
4, 135840, Note_on_c, 0, 74, 54
4, 135887, Note_on_c, 0, 74, 0
4, 135887, Note_on_c, 0, 71, 0
4, 135887, Note_on_c, 0, 66, 0
4, 136080, Note_on_c, 0, 66, 54
4, 136080, Note_on_c, 0, 71, 54
4, 136080, Note_on_c, 0, 74, 54
4, 136127, Note_on_c, 0, 74, 0
4, 136127, Note_on_c, 0, 71, 0
4, 136127, Note_on_c, 0, 66, 0
4, 136320, Note_on_c, 0, 54, 54
4, 136320, Note_on_c, 0, 57, 54
4, 136320, Note_on_c, 0, 61, 54
4, 136320, Note_on_c, 0, 66, 54
4, 136367, Note_on_c, 0, 66, 0
4, 136367, Note_on_c, 0, 54, 0
4, 136367, Note_on_c, 0, 57, 0
4, 136367, Note_on_c, 0, 61, 0
4, 136560, Note_on_c, 0, 66, 54
4, 136560, Note_on_c, 0, 69, 54
4, 136607, Note_on_c, 0, 69, 0
4, 136607, Note_on_c, 0, 66, 0
4, 136800, Note_on_c, 0, 66, 54
4, 136800, Note_on_c, 0, 69, 54
4, 136847, Note_on_c, 0, 69, 0
4, 136847, Note_on_c, 0, 66, 0
4, 137040, Note_on_c, 0, 66, 54
4, 137040, Note_on_c, 0, 69, 54
4, 137087, Note_on_c, 0, 69, 0
4, 137087, Note_on_c, 0, 66, 0
4, 137280, Note_on_c, 0, 66, 54
4, 137280, Note_on_c, 0, 69, 54
4, 137327, Note_on_c, 0, 69, 0
4, 137327, Note_on_c, 0, 66, 0
4, 137520, Note_on_c, 0, 66, 54
4, 137520, Note_on_c, 0, 69, 54
4, 137567, Note_on_c, 0, 69, 0
4, 137567, Note_on_c, 0, 66, 0
4, 137760, Note_on_c, 0, 66, 54
4, 137760, Note_on_c, 0, 69, 54
4, 137807, Note_on_c, 0, 69, 0
4, 137807, Note_on_c, 0, 66, 0
4, 138000, Note_on_c, 0, 66, 54
4, 138000, Note_on_c, 0, 69, 54
4, 138047, Note_on_c, 0, 69, 0
4, 138047, Note_on_c, 0, 66, 0
4, 138240, Note_on_c, 0, 49, 54
4, 138240, Note_on_c, 0, 53, 54
4, 138240, Note_on_c, 0, 59, 54
4, 138287, Note_on_c, 0, 59, 0
4, 138287, Note_on_c, 0, 53, 0
4, 138287, Note_on_c, 0, 49, 0
4, 138480, Note_on_c, 0, 61, 54
4, 138480, Note_on_c, 0, 65, 54
4, 138527, Note_on_c, 0, 65, 0
4, 138527, Note_on_c, 0, 61, 0
4, 138720, Note_on_c, 0, 61, 54
4, 138720, Note_on_c, 0, 65, 54
4, 138767, Note_on_c, 0, 65, 0
4, 138767, Note_on_c, 0, 61, 0
4, 138960, Note_on_c, 0, 61, 54
4, 138960, Note_on_c, 0, 65, 54
4, 139007, Note_on_c, 0, 65, 0
4, 139007, Note_on_c, 0, 61, 0
4, 139200, Note_on_c, 0, 54, 54
4, 139200, Note_on_c, 0, 57, 54
4, 139200, Note_on_c, 0, 61, 54
4, 139440, Note_on_c, 0, 61, 0
4, 139440, Note_on_c, 0, 57, 0
4, 139440, Note_on_c, 0, 54, 0
4, 140160, Note_on_c, 0, 54, 54
4, 140160, Note_on_c, 0, 57, 54
4, 140160, Note_on_c, 0, 61, 54
4, 140160, Note_on_c, 0, 66, 54
4, 140207, Note_on_c, 0, 66, 0
4, 140207, Note_on_c, 0, 54, 0
4, 140207, Note_on_c, 0, 57, 0
4, 140207, Note_on_c, 0, 61, 0
4, 140400, Note_on_c, 0, 66, 54
4, 140400, Note_on_c, 0, 69, 54
4, 140400, Note_on_c, 0, 73, 54
4, 140447, Note_on_c, 0, 73, 0
4, 140447, Note_on_c, 0, 69, 0
4, 140447, Note_on_c, 0, 66, 0
4, 140640, Note_on_c, 0, 66, 54
4, 140640, Note_on_c, 0, 69, 54
4, 140640, Note_on_c, 0, 73, 54
4, 140687, Note_on_c, 0, 73, 0
4, 140687, Note_on_c, 0, 69, 0
4, 140687, Note_on_c, 0, 66, 0
4, 140880, Note_on_c, 0, 66, 54
4, 140880, Note_on_c, 0, 69, 54
4, 140880, Note_on_c, 0, 73, 54
4, 140927, Note_on_c, 0, 73, 0
4, 140927, Note_on_c, 0, 69, 0
4, 140927, Note_on_c, 0, 66, 0
4, 141120, Note_on_c, 0, 66, 54
4, 141120, Note_on_c, 0, 69, 54
4, 141120, Note_on_c, 0, 73, 54
4, 141167, Note_on_c, 0, 73, 0
4, 141167, Note_on_c, 0, 69, 0
4, 141167, Note_on_c, 0, 66, 0
4, 141360, Note_on_c, 0, 66, 54
4, 141360, Note_on_c, 0, 69, 54
4, 141360, Note_on_c, 0, 73, 54
4, 141407, Note_on_c, 0, 73, 0
4, 141407, Note_on_c, 0, 69, 0
4, 141407, Note_on_c, 0, 66, 0
4, 141600, Note_on_c, 0, 66, 54
4, 141600, Note_on_c, 0, 69, 54
4, 141600, Note_on_c, 0, 73, 54
4, 141647, Note_on_c, 0, 73, 0
4, 141647, Note_on_c, 0, 69, 0
4, 141647, Note_on_c, 0, 66, 0
4, 141840, Note_on_c, 0, 66, 54
4, 141840, Note_on_c, 0, 69, 54
4, 141840, Note_on_c, 0, 73, 54
4, 141887, Note_on_c, 0, 73, 0
4, 141887, Note_on_c, 0, 69, 0
4, 141887, Note_on_c, 0, 66, 0
4, 142080, Note_on_c, 0, 54, 54
4, 142080, Note_on_c, 0, 59, 54
4, 142080, Note_on_c, 0, 62, 54
4, 142127, Note_on_c, 0, 62, 0
4, 142127, Note_on_c, 0, 59, 0
4, 142127, Note_on_c, 0, 54, 0
4, 142320, Note_on_c, 0, 66, 54
4, 142320, Note_on_c, 0, 71, 54
4, 142320, Note_on_c, 0, 74, 54
4, 142367, Note_on_c, 0, 74, 0
4, 142367, Note_on_c, 0, 71, 0
4, 142367, Note_on_c, 0, 66, 0
4, 142560, Note_on_c, 0, 66, 54
4, 142560, Note_on_c, 0, 71, 54
4, 142560, Note_on_c, 0, 74, 54
4, 142607, Note_on_c, 0, 74, 0
4, 142607, Note_on_c, 0, 71, 0
4, 142607, Note_on_c, 0, 66, 0
4, 142800, Note_on_c, 0, 66, 54
4, 142800, Note_on_c, 0, 71, 54
4, 142800, Note_on_c, 0, 74, 54
4, 142847, Note_on_c, 0, 74, 0
4, 142847, Note_on_c, 0, 71, 0
4, 142847, Note_on_c, 0, 66, 0
4, 143040, Note_on_c, 0, 66, 54
4, 143040, Note_on_c, 0, 71, 54
4, 143040, Note_on_c, 0, 74, 54
4, 143087, Note_on_c, 0, 74, 0
4, 143087, Note_on_c, 0, 71, 0
4, 143087, Note_on_c, 0, 66, 0
4, 143280, Note_on_c, 0, 66, 54
4, 143280, Note_on_c, 0, 71, 54
4, 143280, Note_on_c, 0, 74, 54
4, 143327, Note_on_c, 0, 74, 0
4, 143327, Note_on_c, 0, 71, 0
4, 143327, Note_on_c, 0, 66, 0
4, 143520, Note_on_c, 0, 66, 54
4, 143520, Note_on_c, 0, 71, 54
4, 143520, Note_on_c, 0, 74, 54
4, 143567, Note_on_c, 0, 74, 0
4, 143567, Note_on_c, 0, 71, 0
4, 143567, Note_on_c, 0, 66, 0
4, 143760, Note_on_c, 0, 66, 54
4, 143760, Note_on_c, 0, 71, 54
4, 143760, Note_on_c, 0, 74, 54
4, 143807, Note_on_c, 0, 74, 0
4, 143807, Note_on_c, 0, 71, 0
4, 143807, Note_on_c, 0, 66, 0
4, 144000, Note_on_c, 0, 54, 54
4, 144000, Note_on_c, 0, 57, 54
4, 144000, Note_on_c, 0, 61, 54
4, 144000, Note_on_c, 0, 66, 54
4, 144047, Note_on_c, 0, 66, 0
4, 144047, Note_on_c, 0, 54, 0
4, 144047, Note_on_c, 0, 57, 0
4, 144047, Note_on_c, 0, 61, 0
4, 144240, Note_on_c, 0, 66, 54
4, 144240, Note_on_c, 0, 69, 54
4, 144287, Note_on_c, 0, 69, 0
4, 144287, Note_on_c, 0, 66, 0
4, 144480, Note_on_c, 0, 66, 54
4, 144480, Note_on_c, 0, 69, 54
4, 144527, Note_on_c, 0, 69, 0
4, 144527, Note_on_c, 0, 66, 0
4, 144720, Note_on_c, 0, 66, 54
4, 144720, Note_on_c, 0, 69, 54
4, 144767, Note_on_c, 0, 69, 0
4, 144767, Note_on_c, 0, 66, 0
4, 144960, Note_on_c, 0, 66, 54
4, 144960, Note_on_c, 0, 69, 54
4, 145007, Note_on_c, 0, 69, 0
4, 145007, Note_on_c, 0, 66, 0
4, 145200, Note_on_c, 0, 66, 54
4, 145200, Note_on_c, 0, 69, 54
4, 145247, Note_on_c, 0, 69, 0
4, 145247, Note_on_c, 0, 66, 0
4, 145440, Note_on_c, 0, 66, 54
4, 145440, Note_on_c, 0, 69, 54
4, 145487, Note_on_c, 0, 69, 0
4, 145487, Note_on_c, 0, 66, 0
4, 145680, Note_on_c, 0, 66, 54
4, 145680, Note_on_c, 0, 69, 54
4, 145727, Note_on_c, 0, 69, 0
4, 145727, Note_on_c, 0, 66, 0
4, 145920, Note_on_c, 0, 65, 54
4, 145920, Note_on_c, 0, 71, 54
4, 145967, Note_on_c, 0, 71, 0
4, 145967, Note_on_c, 0, 65, 0
4, 146160, Note_on_c, 0, 65, 54
4, 146160, Note_on_c, 0, 71, 54
4, 146207, Note_on_c, 0, 71, 0
4, 146207, Note_on_c, 0, 65, 0
4, 146400, Note_on_c, 0, 66, 54
4, 146400, Note_on_c, 0, 69, 54
4, 146447, Note_on_c, 0, 69, 0
4, 146447, Note_on_c, 0, 66, 0
4, 146640, Note_on_c, 0, 66, 54
4, 146640, Note_on_c, 0, 69, 54
4, 146687, Note_on_c, 0, 69, 0
4, 146687, Note_on_c, 0, 66, 0
4, 146880, Note_on_c, 0, 68, 54
4, 146880, Note_on_c, 0, 71, 54
4, 146927, Note_on_c, 0, 71, 0
4, 146927, Note_on_c, 0, 68, 0
4, 147120, Note_on_c, 0, 68, 54
4, 147120, Note_on_c, 0, 71, 54
4, 147167, Note_on_c, 0, 71, 0
4, 147167, Note_on_c, 0, 68, 0
4, 147360, Note_on_c, 0, 65, 54
4, 147360, Note_on_c, 0, 71, 54
4, 147407, Note_on_c, 0, 71, 0
4, 147407, Note_on_c, 0, 65, 0
4, 147600, Note_on_c, 0, 65, 54
4, 147600, Note_on_c, 0, 71, 54
4, 147647, Note_on_c, 0, 71, 0
4, 147647, Note_on_c, 0, 65, 0
4, 147840, Note_on_c, 0, 54, 54
4, 147840, Note_on_c, 0, 57, 54
4, 147840, Note_on_c, 0, 61, 54
4, 147840, Note_on_c, 0, 66, 54
4, 147887, Note_on_c, 0, 66, 0
4, 147887, Note_on_c, 0, 54, 0
4, 147887, Note_on_c, 0, 57, 0
4, 147887, Note_on_c, 0, 61, 0
4, 148080, Note_on_c, 0, 66, 54
4, 148080, Note_on_c, 0, 69, 54
4, 148080, Note_on_c, 0, 73, 54
4, 148127, Note_on_c, 0, 73, 0
4, 148127, Note_on_c, 0, 69, 0
4, 148127, Note_on_c, 0, 66, 0
4, 148320, Note_on_c, 0, 66, 54
4, 148320, Note_on_c, 0, 69, 54
4, 148320, Note_on_c, 0, 73, 54
4, 148367, Note_on_c, 0, 73, 0
4, 148367, Note_on_c, 0, 69, 0
4, 148367, Note_on_c, 0, 66, 0
4, 148560, Note_on_c, 0, 66, 54
4, 148560, Note_on_c, 0, 69, 54
4, 148560, Note_on_c, 0, 73, 54
4, 148607, Note_on_c, 0, 73, 0
4, 148607, Note_on_c, 0, 69, 0
4, 148607, Note_on_c, 0, 66, 0
4, 148800, Note_on_c, 0, 66, 54
4, 148800, Note_on_c, 0, 69, 54
4, 148800, Note_on_c, 0, 73, 54
4, 148847, Note_on_c, 0, 73, 0
4, 148847, Note_on_c, 0, 69, 0
4, 148847, Note_on_c, 0, 66, 0
4, 149040, Note_on_c, 0, 66, 54
4, 149040, Note_on_c, 0, 69, 54
4, 149040, Note_on_c, 0, 73, 54
4, 149087, Note_on_c, 0, 73, 0
4, 149087, Note_on_c, 0, 69, 0
4, 149087, Note_on_c, 0, 66, 0
4, 149280, Note_on_c, 0, 66, 54
4, 149280, Note_on_c, 0, 69, 54
4, 149280, Note_on_c, 0, 73, 54
4, 149327, Note_on_c, 0, 73, 0
4, 149327, Note_on_c, 0, 69, 0
4, 149327, Note_on_c, 0, 66, 0
4, 149520, Note_on_c, 0, 66, 54
4, 149520, Note_on_c, 0, 69, 54
4, 149520, Note_on_c, 0, 73, 54
4, 149567, Note_on_c, 0, 73, 0
4, 149567, Note_on_c, 0, 69, 0
4, 149567, Note_on_c, 0, 66, 0
4, 149760, Note_on_c, 0, 54, 54
4, 149760, Note_on_c, 0, 59, 54
4, 149760, Note_on_c, 0, 62, 54
4, 149807, Note_on_c, 0, 62, 0
4, 149807, Note_on_c, 0, 59, 0
4, 149807, Note_on_c, 0, 54, 0
4, 150000, Note_on_c, 0, 66, 54
4, 150000, Note_on_c, 0, 71, 54
4, 150000, Note_on_c, 0, 74, 54
4, 150047, Note_on_c, 0, 74, 0
4, 150047, Note_on_c, 0, 71, 0
4, 150047, Note_on_c, 0, 66, 0
4, 150240, Note_on_c, 0, 66, 54
4, 150240, Note_on_c, 0, 71, 54
4, 150240, Note_on_c, 0, 74, 54
4, 150287, Note_on_c, 0, 74, 0
4, 150287, Note_on_c, 0, 71, 0
4, 150287, Note_on_c, 0, 66, 0
4, 150480, Note_on_c, 0, 66, 54
4, 150480, Note_on_c, 0, 71, 54
4, 150480, Note_on_c, 0, 74, 54
4, 150527, Note_on_c, 0, 74, 0
4, 150527, Note_on_c, 0, 71, 0
4, 150527, Note_on_c, 0, 66, 0
4, 150720, Note_on_c, 0, 66, 54
4, 150720, Note_on_c, 0, 71, 54
4, 150720, Note_on_c, 0, 74, 54
4, 150767, Note_on_c, 0, 74, 0
4, 150767, Note_on_c, 0, 71, 0
4, 150767, Note_on_c, 0, 66, 0
4, 150960, Note_on_c, 0, 66, 54
4, 150960, Note_on_c, 0, 71, 54
4, 150960, Note_on_c, 0, 74, 54
4, 151007, Note_on_c, 0, 74, 0
4, 151007, Note_on_c, 0, 71, 0
4, 151007, Note_on_c, 0, 66, 0
4, 151200, Note_on_c, 0, 66, 54
4, 151200, Note_on_c, 0, 71, 54
4, 151200, Note_on_c, 0, 74, 54
4, 151247, Note_on_c, 0, 74, 0
4, 151247, Note_on_c, 0, 71, 0
4, 151247, Note_on_c, 0, 66, 0
4, 151440, Note_on_c, 0, 66, 54
4, 151440, Note_on_c, 0, 71, 54
4, 151440, Note_on_c, 0, 74, 54
4, 151487, Note_on_c, 0, 74, 0
4, 151487, Note_on_c, 0, 71, 0
4, 151487, Note_on_c, 0, 66, 0
4, 151680, Note_on_c, 0, 54, 54
4, 151680, Note_on_c, 0, 57, 54
4, 151680, Note_on_c, 0, 61, 54
4, 151680, Note_on_c, 0, 66, 54
4, 151727, Note_on_c, 0, 66, 0
4, 151727, Note_on_c, 0, 54, 0
4, 151727, Note_on_c, 0, 57, 0
4, 151727, Note_on_c, 0, 61, 0
4, 151920, Note_on_c, 0, 66, 54
4, 151920, Note_on_c, 0, 69, 54
4, 151967, Note_on_c, 0, 69, 0
4, 151967, Note_on_c, 0, 66, 0
4, 152160, Note_on_c, 0, 66, 54
4, 152160, Note_on_c, 0, 69, 54
4, 152207, Note_on_c, 0, 69, 0
4, 152207, Note_on_c, 0, 66, 0
4, 152400, Note_on_c, 0, 66, 54
4, 152400, Note_on_c, 0, 69, 54
4, 152447, Note_on_c, 0, 69, 0
4, 152447, Note_on_c, 0, 66, 0
4, 152640, Note_on_c, 0, 66, 54
4, 152640, Note_on_c, 0, 69, 54
4, 152687, Note_on_c, 0, 69, 0
4, 152687, Note_on_c, 0, 66, 0
4, 152880, Note_on_c, 0, 66, 54
4, 152880, Note_on_c, 0, 69, 54
4, 152927, Note_on_c, 0, 69, 0
4, 152927, Note_on_c, 0, 66, 0
4, 153120, Note_on_c, 0, 66, 54
4, 153120, Note_on_c, 0, 69, 54
4, 153167, Note_on_c, 0, 69, 0
4, 153167, Note_on_c, 0, 66, 0
4, 153360, Note_on_c, 0, 66, 54
4, 153360, Note_on_c, 0, 69, 54
4, 153407, Note_on_c, 0, 69, 0
4, 153407, Note_on_c, 0, 66, 0
4, 153600, Note_on_c, 0, 49, 54
4, 153600, Note_on_c, 0, 53, 54
4, 153600, Note_on_c, 0, 59, 54
4, 153647, Note_on_c, 0, 59, 0
4, 153647, Note_on_c, 0, 53, 0
4, 153647, Note_on_c, 0, 49, 0
4, 153840, Note_on_c, 0, 61, 54
4, 153840, Note_on_c, 0, 65, 54
4, 153887, Note_on_c, 0, 65, 0
4, 153887, Note_on_c, 0, 61, 0
4, 154080, Note_on_c, 0, 61, 54
4, 154080, Note_on_c, 0, 65, 54
4, 154127, Note_on_c, 0, 65, 0
4, 154127, Note_on_c, 0, 61, 0
4, 154320, Note_on_c, 0, 61, 54
4, 154320, Note_on_c, 0, 65, 54
4, 154367, Note_on_c, 0, 65, 0
4, 154367, Note_on_c, 0, 61, 0
4, 154560, Note_on_c, 0, 54, 54
4, 154560, Note_on_c, 0, 57, 54
4, 154560, Note_on_c, 0, 61, 54
4, 154800, Note_on_c, 0, 61, 0
4, 154800, Note_on_c, 0, 57, 0
4, 154800, Note_on_c, 0, 54, 0
4, 155520, Note_on_c, 0, 45, 93
4, 155520, Note_on_c, 0, 49, 93
4, 155520, Note_on_c, 0, 52, 93
4, 155520, Note_on_c, 0, 57, 93
4, 155616, Note_on_c, 0, 57, 0
4, 155616, Note_on_c, 0, 45, 0
4, 155616, Note_on_c, 0, 49, 0
4, 155616, Note_on_c, 0, 52, 0
4, 156000, Note_on_c, 0, 45, 93
4, 156000, Note_on_c, 0, 49, 93
4, 156000, Note_on_c, 0, 52, 93
4, 156000, Note_on_c, 0, 57, 93
4, 156096, Note_on_c, 0, 57, 0
4, 156096, Note_on_c, 0, 45, 0
4, 156096, Note_on_c, 0, 49, 0
4, 156096, Note_on_c, 0, 52, 0
4, 156480, Note_on_c, 0, 45, 93
4, 156480, Note_on_c, 0, 49, 93
4, 156480, Note_on_c, 0, 52, 93
4, 156480, Note_on_c, 0, 57, 93
4, 156576, Note_on_c, 0, 57, 0
4, 156576, Note_on_c, 0, 45, 0
4, 156576, Note_on_c, 0, 49, 0
4, 156576, Note_on_c, 0, 52, 0
4, 156960, Note_on_c, 0, 45, 93
4, 156960, Note_on_c, 0, 52, 93
4, 156960, Note_on_c, 0, 59, 93
4, 157056, Note_on_c, 0, 59, 0
4, 157056, Note_on_c, 0, 52, 0
4, 157056, Note_on_c, 0, 45, 0
4, 157440, Note_on_c, 0, 45, 93
4, 157440, Note_on_c, 0, 48, 93
4, 157440, Note_on_c, 0, 52, 93
4, 157440, Note_on_c, 0, 57, 93
4, 157536, Note_on_c, 0, 57, 0
4, 157536, Note_on_c, 0, 45, 0
4, 157536, Note_on_c, 0, 48, 0
4, 157536, Note_on_c, 0, 52, 0
4, 157920, Note_on_c, 0, 45, 93
4, 157920, Note_on_c, 0, 49, 93
4, 157920, Note_on_c, 0, 52, 93
4, 157920, Note_on_c, 0, 57, 93
4, 158016, Note_on_c, 0, 57, 0
4, 158016, Note_on_c, 0, 45, 0
4, 158016, Note_on_c, 0, 49, 0
4, 158016, Note_on_c, 0, 52, 0
4, 158400, Note_on_c, 0, 45, 93
4, 158400, Note_on_c, 0, 49, 93
4, 158400, Note_on_c, 0, 52, 93
4, 158400, Note_on_c, 0, 57, 93
4, 158496, Note_on_c, 0, 57, 0
4, 158496, Note_on_c, 0, 45, 0
4, 158496, Note_on_c, 0, 49, 0
4, 158496, Note_on_c, 0, 52, 0
4, 158880, Note_on_c, 0, 45, 93
4, 158880, Note_on_c, 0, 50, 93
4, 158880, Note_on_c, 0, 54, 93
4, 158880, Note_on_c, 0, 57, 93
4, 158976, Note_on_c, 0, 57, 0
4, 158976, Note_on_c, 0, 45, 0
4, 158976, Note_on_c, 0, 50, 0
4, 158976, Note_on_c, 0, 54, 0
4, 159360, Note_on_c, 0, 45, 93
4, 159360, Note_on_c, 0, 48, 93
4, 159360, Note_on_c, 0, 52, 93
4, 159360, Note_on_c, 0, 57, 93
4, 159456, Note_on_c, 0, 57, 0
4, 159456, Note_on_c, 0, 45, 0
4, 159456, Note_on_c, 0, 48, 0
4, 159456, Note_on_c, 0, 52, 0
4, 159840, Note_on_c, 0, 45, 93
4, 159840, Note_on_c, 0, 49, 93
4, 159840, Note_on_c, 0, 52, 93
4, 159840, Note_on_c, 0, 57, 93
4, 159936, Note_on_c, 0, 57, 0
4, 159936, Note_on_c, 0, 45, 0
4, 159936, Note_on_c, 0, 49, 0
4, 159936, Note_on_c, 0, 52, 0
4, 160320, Note_on_c, 0, 45, 93
4, 160320, Note_on_c, 0, 49, 93
4, 160320, Note_on_c, 0, 52, 93
4, 160320, Note_on_c, 0, 57, 93
4, 160416, Note_on_c, 0, 57, 0
4, 160416, Note_on_c, 0, 45, 0
4, 160416, Note_on_c, 0, 49, 0
4, 160416, Note_on_c, 0, 52, 0
4, 160800, Note_on_c, 0, 45, 93
4, 160800, Note_on_c, 0, 49, 93
4, 160800, Note_on_c, 0, 52, 93
4, 160800, Note_on_c, 0, 57, 93
4, 160896, Note_on_c, 0, 57, 0
4, 160896, Note_on_c, 0, 45, 0
4, 160896, Note_on_c, 0, 49, 0
4, 160896, Note_on_c, 0, 52, 0
4, 161280, Note_on_c, 0, 52, 93
4, 161280, Note_on_c, 0, 56, 93
4, 161280, Note_on_c, 0, 59, 93
4, 161280, Note_on_c, 0, 64, 93
4, 161376, Note_on_c, 0, 64, 0
4, 161376, Note_on_c, 0, 52, 0
4, 161376, Note_on_c, 0, 56, 0
4, 161376, Note_on_c, 0, 59, 0
4, 161760, Note_on_c, 0, 52, 93
4, 161760, Note_on_c, 0, 55, 93
4, 161760, Note_on_c, 0, 61, 93
4, 161760, Note_on_c, 0, 64, 93
4, 161856, Note_on_c, 0, 64, 0
4, 161856, Note_on_c, 0, 52, 0
4, 161856, Note_on_c, 0, 55, 0
4, 161856, Note_on_c, 0, 61, 0
4, 162240, Note_on_c, 0, 52, 93
4, 162240, Note_on_c, 0, 56, 93
4, 162240, Note_on_c, 0, 59, 93
4, 162240, Note_on_c, 0, 64, 93
4, 162336, Note_on_c, 0, 64, 0
4, 162336, Note_on_c, 0, 52, 0
4, 162336, Note_on_c, 0, 56, 0
4, 162336, Note_on_c, 0, 59, 0
4, 162720, Note_on_c, 0, 52, 93
4, 162720, Note_on_c, 0, 56, 93
4, 162720, Note_on_c, 0, 59, 93
4, 162720, Note_on_c, 0, 64, 93
4, 162816, Note_on_c, 0, 64, 0
4, 162816, Note_on_c, 0, 52, 0
4, 162816, Note_on_c, 0, 56, 0
4, 162816, Note_on_c, 0, 59, 0
4, 163200, Note_on_c, 0, 45, 93
4, 163200, Note_on_c, 0, 49, 93
4, 163200, Note_on_c, 0, 52, 93
4, 163200, Note_on_c, 0, 57, 93
4, 163296, Note_on_c, 0, 57, 0
4, 163296, Note_on_c, 0, 45, 0
4, 163296, Note_on_c, 0, 49, 0
4, 163296, Note_on_c, 0, 52, 0
4, 163680, Note_on_c, 0, 45, 93
4, 163680, Note_on_c, 0, 49, 93
4, 163680, Note_on_c, 0, 52, 93
4, 163680, Note_on_c, 0, 57, 93
4, 163776, Note_on_c, 0, 57, 0
4, 163776, Note_on_c, 0, 45, 0
4, 163776, Note_on_c, 0, 49, 0
4, 163776, Note_on_c, 0, 52, 0
4, 164160, Note_on_c, 0, 45, 93
4, 164160, Note_on_c, 0, 49, 93
4, 164160, Note_on_c, 0, 52, 93
4, 164160, Note_on_c, 0, 57, 93
4, 164256, Note_on_c, 0, 57, 0
4, 164256, Note_on_c, 0, 45, 0
4, 164256, Note_on_c, 0, 49, 0
4, 164256, Note_on_c, 0, 52, 0
4, 164640, Note_on_c, 0, 45, 93
4, 164640, Note_on_c, 0, 52, 93
4, 164640, Note_on_c, 0, 59, 93
4, 164736, Note_on_c, 0, 59, 0
4, 164736, Note_on_c, 0, 52, 0
4, 164736, Note_on_c, 0, 45, 0
4, 165120, Note_on_c, 0, 45, 93
4, 165120, Note_on_c, 0, 52, 93
4, 165120, Note_on_c, 0, 57, 93
4, 165216, Note_on_c, 0, 57, 0
4, 165216, Note_on_c, 0, 52, 0
4, 165216, Note_on_c, 0, 45, 0
4, 165600, Note_on_c, 0, 43, 93
4, 165600, Note_on_c, 0, 45, 93
4, 165600, Note_on_c, 0, 49, 93
4, 165600, Note_on_c, 0, 52, 93
4, 165696, Note_on_c, 0, 52, 0
4, 165696, Note_on_c, 0, 43, 0
4, 165696, Note_on_c, 0, 45, 0
4, 165696, Note_on_c, 0, 49, 0
4, 166080, Note_on_c, 0, 42, 93
4, 166080, Note_on_c, 0, 46, 93
4, 166080, Note_on_c, 0, 49, 93
4, 166080, Note_on_c, 0, 54, 93
4, 166176, Note_on_c, 0, 54, 0
4, 166176, Note_on_c, 0, 42, 0
4, 166176, Note_on_c, 0, 46, 0
4, 166176, Note_on_c, 0, 49, 0
4, 166560, Note_on_c, 0, 54, 93
4, 166560, Note_on_c, 0, 58, 93
4, 166560, Note_on_c, 0, 61, 93
4, 166560, Note_on_c, 0, 66, 93
4, 166656, Note_on_c, 0, 66, 0
4, 166656, Note_on_c, 0, 54, 0
4, 166656, Note_on_c, 0, 58, 0
4, 166656, Note_on_c, 0, 61, 0
4, 167040, Note_on_c, 0, 47, 93
4, 167040, Note_on_c, 0, 50, 93
4, 167040, Note_on_c, 0, 54, 93
4, 167040, Note_on_c, 0, 59, 93
4, 167136, Note_on_c, 0, 59, 0
4, 167136, Note_on_c, 0, 47, 0
4, 167136, Note_on_c, 0, 50, 0
4, 167136, Note_on_c, 0, 54, 0
4, 167520, Note_on_c, 0, 47, 93
4, 167520, Note_on_c, 0, 50, 93
4, 167520, Note_on_c, 0, 54, 93
4, 167520, Note_on_c, 0, 59, 93
4, 167616, Note_on_c, 0, 59, 0
4, 167616, Note_on_c, 0, 47, 0
4, 167616, Note_on_c, 0, 50, 0
4, 167616, Note_on_c, 0, 54, 0
4, 168000, Note_on_c, 0, 52, 93
4, 168000, Note_on_c, 0, 56, 93
4, 168000, Note_on_c, 0, 59, 93
4, 168000, Note_on_c, 0, 64, 93
4, 168096, Note_on_c, 0, 64, 0
4, 168096, Note_on_c, 0, 52, 0
4, 168096, Note_on_c, 0, 56, 0
4, 168096, Note_on_c, 0, 59, 0
4, 168480, Note_on_c, 0, 52, 93
4, 168480, Note_on_c, 0, 56, 93
4, 168480, Note_on_c, 0, 59, 93
4, 168480, Note_on_c, 0, 64, 93
4, 168576, Note_on_c, 0, 64, 0
4, 168576, Note_on_c, 0, 52, 0
4, 168576, Note_on_c, 0, 56, 0
4, 168576, Note_on_c, 0, 59, 0
4, 168960, Note_on_c, 0, 45, 93
4, 168960, Note_on_c, 0, 49, 93
4, 168960, Note_on_c, 0, 52, 93
4, 168960, Note_on_c, 0, 57, 93
4, 169056, Note_on_c, 0, 57, 0
4, 169056, Note_on_c, 0, 45, 0
4, 169056, Note_on_c, 0, 49, 0
4, 169056, Note_on_c, 0, 52, 0
4, 169440, Note_on_c, 0, 42, 93
4, 169440, Note_on_c, 0, 45, 93
4, 169440, Note_on_c, 0, 49, 93
4, 169440, Note_on_c, 0, 54, 93
4, 169536, Note_on_c, 0, 54, 0
4, 169536, Note_on_c, 0, 42, 0
4, 169536, Note_on_c, 0, 45, 0
4, 169536, Note_on_c, 0, 49, 0
4, 169920, Note_on_c, 0, 40, 93
4, 169920, Note_on_c, 0, 45, 93
4, 169920, Note_on_c, 0, 49, 93
4, 169920, Note_on_c, 0, 52, 93
4, 170016, Note_on_c, 0, 52, 0
4, 170016, Note_on_c, 0, 40, 0
4, 170016, Note_on_c, 0, 45, 0
4, 170016, Note_on_c, 0, 49, 0
4, 170400, Note_on_c, 0, 40, 93
4, 170400, Note_on_c, 0, 44, 93
4, 170400, Note_on_c, 0, 47, 93
4, 170400, Note_on_c, 0, 52, 93
4, 170496, Note_on_c, 0, 52, 0
4, 170496, Note_on_c, 0, 40, 0
4, 170496, Note_on_c, 0, 44, 0
4, 170496, Note_on_c, 0, 47, 0
4, 170880, Note_on_c, 0, 45, 93
4, 170880, Note_on_c, 0, 49, 93
4, 170880, Note_on_c, 0, 52, 93
4, 170880, Note_on_c, 0, 57, 93
4, 170976, Note_on_c, 0, 57, 0
4, 170976, Note_on_c, 0, 45, 0
4, 170976, Note_on_c, 0, 49, 0
4, 170976, Note_on_c, 0, 52, 0
4, 171360, Note_on_c, 0, 42, 93
4, 171360, Note_on_c, 0, 45, 93
4, 171360, Note_on_c, 0, 49, 93
4, 171360, Note_on_c, 0, 54, 93
4, 171456, Note_on_c, 0, 54, 0
4, 171456, Note_on_c, 0, 42, 0
4, 171456, Note_on_c, 0, 45, 0
4, 171456, Note_on_c, 0, 49, 0
4, 171840, Note_on_c, 0, 40, 93
4, 171840, Note_on_c, 0, 45, 93
4, 171840, Note_on_c, 0, 49, 93
4, 171840, Note_on_c, 0, 52, 93
4, 171936, Note_on_c, 0, 52, 0
4, 171936, Note_on_c, 0, 40, 0
4, 171936, Note_on_c, 0, 45, 0
4, 171936, Note_on_c, 0, 49, 0
4, 172320, Note_on_c, 0, 40, 93
4, 172320, Note_on_c, 0, 44, 93
4, 172320, Note_on_c, 0, 47, 93
4, 172320, Note_on_c, 0, 52, 93
4, 172416, Note_on_c, 0, 52, 0
4, 172416, Note_on_c, 0, 40, 0
4, 172416, Note_on_c, 0, 44, 0
4, 172416, Note_on_c, 0, 47, 0
4, 172800, Note_on_c, 0, 45, 93
4, 172800, Note_on_c, 0, 49, 93
4, 172800, Note_on_c, 0, 52, 93
4, 172800, Note_on_c, 0, 57, 93
4, 173040, Note_on_c, 0, 57, 0
4, 173040, Note_on_c, 0, 45, 0
4, 173040, Note_on_c, 0, 49, 0
4, 173040, Note_on_c, 0, 52, 0
4, 173040, Control_c, 0, 64, 127
4, 173200, Note_on_c, 0, 45, 93
4, 173240, Note_on_c, 0, 52, 93
4, 173280, Note_on_c, 0, 61, 93
4, 173520, Note_on_c, 0, 61, 0
4, 173520, Note_on_c, 0, 52, 0
4, 173520, Note_on_c, 0, 45, 0
4, 173680, Note_on_c, 0, 45, 93
4, 173720, Note_on_c, 0, 52, 93
4, 173760, Note_on_c, 0, 61, 93
4, 174000, Note_on_c, 0, 61, 0
4, 174000, Note_on_c, 0, 52, 0
4, 174000, Note_on_c, 0, 45, 0
4, 174160, Note_on_c, 0, 45, 93
4, 174200, Note_on_c, 0, 52, 93
4, 174240, Note_on_c, 0, 61, 93
4, 174480, Note_on_c, 0, 61, 0
4, 174480, Note_on_c, 0, 52, 0
4, 174480, Note_on_c, 0, 45, 0
4, 174720, Note_on_c, 0, 33, 119
4, 174720, Note_on_c, 0, 45, 119
4, 176640, Note_on_c, 0, 45, 0
4, 176640, Note_on_c, 0, 33, 0
4, 176640, End_track
5, 0, Start_track
5, 0, Title_t, "Grand Piano"
5, 0, Program_c, 0, 0
5, 0, Control_c, 0, 7, 115
5, 0, Control_c, 0, 10, 47
5, 0, Note_on_c, 0, 45, 66
5, 96, Note_on_c, 0, 45, 0
5, 480, Note_on_c, 0, 45, 66
5, 576, Note_on_c, 0, 45, 0
5, 960, Note_on_c, 0, 45, 66
5, 1056, Note_on_c, 0, 45, 0
5, 1920, Note_on_c, 0, 57, 66
5, 1920, Note_on_c, 0, 61, 66
5, 1967, Note_on_c, 0, 61, 0
5, 1967, Note_on_c, 0, 57, 0
5, 2160, Note_on_c, 0, 61, 66
5, 2160, Note_on_c, 0, 69, 66
5, 2207, Note_on_c, 0, 69, 0
5, 2207, Note_on_c, 0, 61, 0
5, 2400, Note_on_c, 0, 57, 66
5, 2400, Note_on_c, 0, 61, 66
5, 2447, Note_on_c, 0, 61, 0
5, 2447, Note_on_c, 0, 57, 0
5, 2640, Note_on_c, 0, 61, 66
5, 2640, Note_on_c, 0, 69, 66
5, 2687, Note_on_c, 0, 69, 0
5, 2687, Note_on_c, 0, 61, 0
5, 2880, Note_on_c, 0, 57, 66
5, 2880, Note_on_c, 0, 61, 66
5, 2927, Note_on_c, 0, 61, 0
5, 2927, Note_on_c, 0, 57, 0
5, 3120, Note_on_c, 0, 61, 66
5, 3120, Note_on_c, 0, 69, 66
5, 3167, Note_on_c, 0, 69, 0
5, 3167, Note_on_c, 0, 61, 0
5, 3360, Note_on_c, 0, 57, 66
5, 3360, Note_on_c, 0, 61, 66
5, 3407, Note_on_c, 0, 61, 0
5, 3407, Note_on_c, 0, 57, 0
5, 3600, Note_on_c, 0, 64, 66
5, 3600, Note_on_c, 0, 69, 66
5, 3647, Note_on_c, 0, 69, 0
5, 3647, Note_on_c, 0, 64, 0
5, 3840, Note_on_c, 0, 57, 66
5, 3840, Note_on_c, 0, 64, 66
5, 3887, Note_on_c, 0, 64, 0
5, 3887, Note_on_c, 0, 57, 0
5, 4080, Note_on_c, 0, 64, 66
5, 4080, Note_on_c, 0, 69, 66
5, 4127, Note_on_c, 0, 69, 0
5, 4127, Note_on_c, 0, 64, 0
5, 4320, Note_on_c, 0, 57, 66
5, 4320, Note_on_c, 0, 64, 66
5, 4367, Note_on_c, 0, 64, 0
5, 4367, Note_on_c, 0, 57, 0
5, 4560, Note_on_c, 0, 64, 66
5, 4560, Note_on_c, 0, 69, 66
5, 4607, Note_on_c, 0, 69, 0
5, 4607, Note_on_c, 0, 64, 0
5, 4800, Note_on_c, 0, 57, 66
5, 4800, Note_on_c, 0, 64, 66
5, 4847, Note_on_c, 0, 64, 0
5, 4847, Note_on_c, 0, 57, 0
5, 5040, Note_on_c, 0, 64, 66
5, 5040, Note_on_c, 0, 69, 66
5, 5087, Note_on_c, 0, 69, 0
5, 5087, Note_on_c, 0, 64, 0
5, 5280, Note_on_c, 0, 57, 66
5, 5280, Note_on_c, 0, 62, 66
5, 5327, Note_on_c, 0, 62, 0
5, 5327, Note_on_c, 0, 57, 0
5, 5520, Note_on_c, 0, 62, 66
5, 5520, Note_on_c, 0, 69, 66
5, 5567, Note_on_c, 0, 69, 0
5, 5567, Note_on_c, 0, 62, 0
5, 5760, Note_on_c, 0, 57, 66
5, 5760, Note_on_c, 0, 64, 66
5, 5807, Note_on_c, 0, 64, 0
5, 5807, Note_on_c, 0, 57, 0
5, 6000, Note_on_c, 0, 64, 66
5, 6000, Note_on_c, 0, 69, 66
5, 6047, Note_on_c, 0, 69, 0
5, 6047, Note_on_c, 0, 64, 0
5, 6240, Note_on_c, 0, 57, 66
5, 6240, Note_on_c, 0, 64, 66
5, 6287, Note_on_c, 0, 64, 0
5, 6287, Note_on_c, 0, 57, 0
5, 6480, Note_on_c, 0, 64, 66
5, 6480, Note_on_c, 0, 69, 66
5, 6527, Note_on_c, 0, 69, 0
5, 6527, Note_on_c, 0, 64, 0
5, 6720, Note_on_c, 0, 57, 66
5, 6720, Note_on_c, 0, 64, 66
5, 6767, Note_on_c, 0, 64, 0
5, 6767, Note_on_c, 0, 57, 0
5, 6960, Note_on_c, 0, 64, 66
5, 6960, Note_on_c, 0, 69, 66
5, 7007, Note_on_c, 0, 69, 0
5, 7007, Note_on_c, 0, 64, 0
5, 7200, Note_on_c, 0, 57, 66
5, 7200, Note_on_c, 0, 64, 66
5, 7247, Note_on_c, 0, 64, 0
5, 7247, Note_on_c, 0, 57, 0
5, 7440, Note_on_c, 0, 64, 66
5, 7440, Note_on_c, 0, 69, 66
5, 7487, Note_on_c, 0, 69, 0
5, 7487, Note_on_c, 0, 64, 0
5, 7680, Note_on_c, 0, 52, 66
5, 8160, Note_on_c, 0, 52, 0
5, 8160, Note_on_c, 0, 52, 66
5, 8640, Note_on_c, 0, 52, 0
5, 8640, Note_on_c, 0, 52, 66
5, 9120, Note_on_c, 0, 52, 0
5, 9120, Note_on_c, 0, 52, 66
5, 9600, Note_on_c, 0, 52, 0
5, 9600, Note_on_c, 0, 45, 66
5, 10080, Note_on_c, 0, 45, 0
5, 10560, Note_on_c, 0, 57, 66
5, 10560, Note_on_c, 0, 61, 66
5, 10607, Note_on_c, 0, 61, 0
5, 10607, Note_on_c, 0, 57, 0
5, 10800, Note_on_c, 0, 52, 66
5, 10800, Note_on_c, 0, 57, 66
5, 10847, Note_on_c, 0, 57, 0
5, 10847, Note_on_c, 0, 52, 0
5, 11040, Note_on_c, 0, 57, 66
5, 11040, Note_on_c, 0, 64, 66
5, 11087, Note_on_c, 0, 64, 0
5, 11087, Note_on_c, 0, 57, 0
5, 11280, Note_on_c, 0, 52, 66
5, 11280, Note_on_c, 0, 57, 66
5, 11327, Note_on_c, 0, 57, 0
5, 11327, Note_on_c, 0, 52, 0
5, 11520, Note_on_c, 0, 57, 66
5, 11520, Note_on_c, 0, 64, 66
5, 11567, Note_on_c, 0, 64, 0
5, 11567, Note_on_c, 0, 57, 0
5, 11760, Note_on_c, 0, 52, 66
5, 11760, Note_on_c, 0, 57, 66
5, 11807, Note_on_c, 0, 57, 0
5, 11807, Note_on_c, 0, 52, 0
5, 12000, Note_on_c, 0, 57, 66
5, 12000, Note_on_c, 0, 64, 66
5, 12047, Note_on_c, 0, 64, 0
5, 12047, Note_on_c, 0, 57, 0
5, 12240, Note_on_c, 0, 52, 66
5, 12240, Note_on_c, 0, 57, 66
5, 12287, Note_on_c, 0, 57, 0
5, 12287, Note_on_c, 0, 52, 0
5, 12480, Note_on_c, 0, 57, 66
5, 12480, Note_on_c, 0, 64, 66
5, 12527, Note_on_c, 0, 64, 0
5, 12527, Note_on_c, 0, 57, 0
5, 12720, Note_on_c, 0, 52, 66
5, 12720, Note_on_c, 0, 57, 66
5, 12767, Note_on_c, 0, 57, 0
5, 12767, Note_on_c, 0, 52, 0
5, 12960, Note_on_c, 0, 57, 66
5, 12960, Note_on_c, 0, 61, 66
5, 13007, Note_on_c, 0, 61, 0
5, 13007, Note_on_c, 0, 57, 0
5, 13200, Note_on_c, 0, 52, 66
5, 13200, Note_on_c, 0, 57, 66
5, 13247, Note_on_c, 0, 57, 0
5, 13247, Note_on_c, 0, 52, 0
5, 13440, Note_on_c, 0, 45, 66
5, 13487, Note_on_c, 0, 45, 0
5, 13680, Note_on_c, 0, 54, 66
5, 13680, Note_on_c, 0, 61, 66
5, 13727, Note_on_c, 0, 61, 0
5, 13727, Note_on_c, 0, 54, 0
5, 13920, Note_on_c, 0, 57, 66
5, 13920, Note_on_c, 0, 61, 66
5, 13920, Note_on_c, 0, 68, 66
5, 13967, Note_on_c, 0, 68, 0
5, 13967, Note_on_c, 0, 61, 0
5, 13967, Note_on_c, 0, 57, 0
5, 14160, Note_on_c, 0, 54, 66
5, 14160, Note_on_c, 0, 61, 66
5, 14207, Note_on_c, 0, 61, 0
5, 14207, Note_on_c, 0, 54, 0
5, 17280, Note_on_c, 0, 57, 66
5, 17280, Note_on_c, 0, 61, 66
5, 17327, Note_on_c, 0, 61, 0
5, 17327, Note_on_c, 0, 57, 0
5, 17520, Note_on_c, 0, 61, 66
5, 17520, Note_on_c, 0, 69, 66
5, 17567, Note_on_c, 0, 69, 0
5, 17567, Note_on_c, 0, 61, 0
5, 17760, Note_on_c, 0, 57, 66
5, 17760, Note_on_c, 0, 61, 66
5, 17807, Note_on_c, 0, 61, 0
5, 17807, Note_on_c, 0, 57, 0
5, 18000, Note_on_c, 0, 61, 66
5, 18000, Note_on_c, 0, 69, 66
5, 18047, Note_on_c, 0, 69, 0
5, 18047, Note_on_c, 0, 61, 0
5, 18240, Note_on_c, 0, 57, 66
5, 18240, Note_on_c, 0, 61, 66
5, 18287, Note_on_c, 0, 61, 0
5, 18287, Note_on_c, 0, 57, 0
5, 18480, Note_on_c, 0, 61, 66
5, 18480, Note_on_c, 0, 69, 66
5, 18527, Note_on_c, 0, 69, 0
5, 18527, Note_on_c, 0, 61, 0
5, 18720, Note_on_c, 0, 57, 66
5, 18720, Note_on_c, 0, 64, 66
5, 18767, Note_on_c, 0, 64, 0
5, 18767, Note_on_c, 0, 57, 0
5, 18960, Note_on_c, 0, 64, 66
5, 18960, Note_on_c, 0, 69, 66
5, 19007, Note_on_c, 0, 69, 0
5, 19007, Note_on_c, 0, 64, 0
5, 19200, Note_on_c, 0, 57, 66
5, 19200, Note_on_c, 0, 64, 66
5, 19247, Note_on_c, 0, 64, 0
5, 19247, Note_on_c, 0, 57, 0
5, 19440, Note_on_c, 0, 64, 66
5, 19440, Note_on_c, 0, 69, 66
5, 19487, Note_on_c, 0, 69, 0
5, 19487, Note_on_c, 0, 64, 0
5, 19680, Note_on_c, 0, 57, 66
5, 19680, Note_on_c, 0, 64, 66
5, 19727, Note_on_c, 0, 64, 0
5, 19727, Note_on_c, 0, 57, 0
5, 19920, Note_on_c, 0, 64, 66
5, 19920, Note_on_c, 0, 69, 66
5, 19967, Note_on_c, 0, 69, 0
5, 19967, Note_on_c, 0, 64, 0
5, 20160, Note_on_c, 0, 57, 66
5, 20160, Note_on_c, 0, 64, 66
5, 20207, Note_on_c, 0, 64, 0
5, 20207, Note_on_c, 0, 57, 0
5, 20400, Note_on_c, 0, 64, 66
5, 20400, Note_on_c, 0, 69, 66
5, 20447, Note_on_c, 0, 69, 0
5, 20447, Note_on_c, 0, 64, 0
5, 20640, Note_on_c, 0, 57, 66
5, 20640, Note_on_c, 0, 62, 66
5, 20687, Note_on_c, 0, 62, 0
5, 20687, Note_on_c, 0, 57, 0
5, 20880, Note_on_c, 0, 62, 66
5, 20880, Note_on_c, 0, 69, 66
5, 20927, Note_on_c, 0, 69, 0
5, 20927, Note_on_c, 0, 62, 0
5, 21120, Note_on_c, 0, 57, 66
5, 21120, Note_on_c, 0, 64, 66
5, 21167, Note_on_c, 0, 64, 0
5, 21167, Note_on_c, 0, 57, 0
5, 21360, Note_on_c, 0, 64, 66
5, 21360, Note_on_c, 0, 69, 66
5, 21407, Note_on_c, 0, 69, 0
5, 21407, Note_on_c, 0, 64, 0
5, 21600, Note_on_c, 0, 57, 66
5, 21600, Note_on_c, 0, 64, 66
5, 21647, Note_on_c, 0, 64, 0
5, 21647, Note_on_c, 0, 57, 0
5, 21840, Note_on_c, 0, 64, 66
5, 21840, Note_on_c, 0, 69, 66
5, 21887, Note_on_c, 0, 69, 0
5, 21887, Note_on_c, 0, 64, 0
5, 22080, Note_on_c, 0, 57, 66
5, 22080, Note_on_c, 0, 64, 66
5, 22127, Note_on_c, 0, 64, 0
5, 22127, Note_on_c, 0, 57, 0
5, 22320, Note_on_c, 0, 64, 66
5, 22320, Note_on_c, 0, 69, 66
5, 22367, Note_on_c, 0, 69, 0
5, 22367, Note_on_c, 0, 64, 0
5, 22560, Note_on_c, 0, 57, 66
5, 22560, Note_on_c, 0, 61, 66
5, 22607, Note_on_c, 0, 61, 0
5, 22607, Note_on_c, 0, 57, 0
5, 22800, Note_on_c, 0, 61, 66
5, 22800, Note_on_c, 0, 69, 66
5, 22847, Note_on_c, 0, 69, 0
5, 22847, Note_on_c, 0, 61, 0
5, 23040, Note_on_c, 0, 52, 66
5, 23520, Note_on_c, 0, 52, 0
5, 23520, Note_on_c, 0, 52, 66
5, 24000, Note_on_c, 0, 52, 0
5, 24000, Note_on_c, 0, 52, 66
5, 24480, Note_on_c, 0, 52, 0
5, 24480, Note_on_c, 0, 52, 66
5, 24960, Note_on_c, 0, 52, 0
5, 24960, Note_on_c, 0, 45, 66
5, 25440, Note_on_c, 0, 45, 0
5, 25920, Note_on_c, 0, 57, 66
5, 25920, Note_on_c, 0, 61, 66
5, 25967, Note_on_c, 0, 61, 0
5, 25967, Note_on_c, 0, 57, 0
5, 26160, Note_on_c, 0, 52, 66
5, 26160, Note_on_c, 0, 57, 66
5, 26207, Note_on_c, 0, 57, 0
5, 26207, Note_on_c, 0, 52, 0
5, 26400, Note_on_c, 0, 57, 66
5, 26400, Note_on_c, 0, 64, 66
5, 26447, Note_on_c, 0, 64, 0
5, 26447, Note_on_c, 0, 57, 0
5, 26640, Note_on_c, 0, 52, 66
5, 26640, Note_on_c, 0, 57, 66
5, 26687, Note_on_c, 0, 57, 0
5, 26687, Note_on_c, 0, 52, 0
5, 26880, Note_on_c, 0, 57, 66
5, 26880, Note_on_c, 0, 64, 66
5, 26927, Note_on_c, 0, 64, 0
5, 26927, Note_on_c, 0, 57, 0
5, 27120, Note_on_c, 0, 52, 66
5, 27120, Note_on_c, 0, 57, 66
5, 27167, Note_on_c, 0, 57, 0
5, 27167, Note_on_c, 0, 52, 0
5, 27360, Note_on_c, 0, 57, 66
5, 27360, Note_on_c, 0, 64, 66
5, 27407, Note_on_c, 0, 64, 0
5, 27407, Note_on_c, 0, 57, 0
5, 27600, Note_on_c, 0, 52, 66
5, 27600, Note_on_c, 0, 57, 66
5, 27647, Note_on_c, 0, 57, 0
5, 27647, Note_on_c, 0, 52, 0
5, 27840, Note_on_c, 0, 57, 66
5, 27840, Note_on_c, 0, 64, 66
5, 27887, Note_on_c, 0, 64, 0
5, 27887, Note_on_c, 0, 57, 0
5, 28080, Note_on_c, 0, 52, 66
5, 28080, Note_on_c, 0, 57, 66
5, 28127, Note_on_c, 0, 57, 0
5, 28127, Note_on_c, 0, 52, 0
5, 28320, Note_on_c, 0, 57, 66
5, 28320, Note_on_c, 0, 61, 66
5, 28367, Note_on_c, 0, 61, 0
5, 28367, Note_on_c, 0, 57, 0
5, 28560, Note_on_c, 0, 52, 66
5, 28560, Note_on_c, 0, 57, 66
5, 28607, Note_on_c, 0, 57, 0
5, 28607, Note_on_c, 0, 52, 0
5, 28800, Note_on_c, 0, 45, 66
5, 28847, Note_on_c, 0, 45, 0
5, 29040, Note_on_c, 0, 54, 66
5, 29040, Note_on_c, 0, 61, 66
5, 29087, Note_on_c, 0, 61, 0
5, 29087, Note_on_c, 0, 54, 0
5, 29280, Note_on_c, 0, 57, 66
5, 29280, Note_on_c, 0, 61, 66
5, 29280, Note_on_c, 0, 68, 66
5, 29327, Note_on_c, 0, 68, 0
5, 29327, Note_on_c, 0, 61, 0
5, 29327, Note_on_c, 0, 57, 0
5, 29520, Note_on_c, 0, 54, 66
5, 29520, Note_on_c, 0, 61, 66
5, 29567, Note_on_c, 0, 61, 0
5, 29567, Note_on_c, 0, 54, 0
5, 82560, Note_on_c, 0, 58, 66
5, 82560, Note_on_c, 0, 62, 66
5, 83520, Note_on_c, 0, 62, 0
5, 83520, Note_on_c, 0, 58, 0
5, 83520, Note_on_c, 0, 55, 66
5, 83520, Note_on_c, 0, 58, 66
5, 84480, Note_on_c, 0, 58, 0
5, 84480, Note_on_c, 0, 55, 0
5, 97920, Note_on_c, 0, 58, 66
5, 97920, Note_on_c, 0, 62, 66
5, 98880, Note_on_c, 0, 62, 0
5, 98880, Note_on_c, 0, 58, 0
5, 98880, Note_on_c, 0, 55, 66
5, 98880, Note_on_c, 0, 58, 66
5, 99840, Note_on_c, 0, 58, 0
5, 99840, Note_on_c, 0, 55, 0
5, 99840, End_track
0, 0, End_of_file
