0, 0, Header, 0, 1, 384
1, 0, Start_track
1, 0, Title_t, "Die JahreszeitenJuni"
1, 0, Copyright_t, "Adaptation for Disklavier pianos, by: Robert C. Kuhmann (c) 2012."
1, 0, Time_signature, 4, 2, 24, 8
1, 0, Key_signature, 0, "major"
1, 0, Tempo, 512821
1, 0, Program_c, 0, 0
1, 0, Control_c, 0, 7, 115
1, 0, Control_c, 0, 91, 127
1, 3, Program_c, 0, 0
1, 3, Control_c, 0, 7, 100
1, 748, Note_on_c, 0, 43, 60
1, 748, Control_c, 0, 64, 0
1, 956, Control_c, 0, 64, 127
1, 1217, Note_on_c, 0, 43, 0
1, 1217, Note_on_c, 0, 50, 58
1, 1687, Note_on_c, 0, 50, 0
1, 1687, Note_on_c, 0, 58, 48
1, 1687, Note_on_c, 0, 55, 48
1, 1690, Note_on_c, 0, 62, 54
1, 2625, Note_on_c, 0, 62, 0
1, 2625, Note_on_c, 0, 55, 0
1, 2625, Note_on_c, 0, 58, 0
1, 2628, Note_on_c, 0, 43, 60
1, 2628, Control_c, 0, 64, 0
1, 2792, Control_c, 0, 64, 127
1, 3094, Note_on_c, 0, 43, 0
1, 3094, Note_on_c, 0, 50, 58
1, 3563, Note_on_c, 0, 50, 0
1, 3563, Note_on_c, 0, 62, 55
1, 3563, Note_on_c, 0, 55, 55
1, 3566, Note_on_c, 0, 58, 55
1, 3798, Note_on_c, 0, 62, 73
1, 4027, Note_on_c, 0, 62, 0
1, 4027, Note_on_c, 0, 64, 74
1, 4248, Note_on_c, 0, 64, 0
1, 4248, Note_on_c, 0, 66, 76
1, 4477, Note_on_c, 0, 66, 0
1, 4477, Note_on_c, 0, 58, 0
1, 4477, Note_on_c, 0, 67, 77
1, 4480, Note_on_c, 0, 55, 0
1, 4480, Note_on_c, 0, 62, 0
1, 4480, Note_on_c, 0, 43, 60
1, 4486, Control_c, 0, 64, 0
1, 4587, Control_c, 0, 64, 127
1, 4709, Note_on_c, 0, 67, 0
1, 4709, Note_on_c, 0, 69, 79
1, 4933, Note_on_c, 0, 69, 0
1, 4933, Note_on_c, 0, 43, 0
1, 4933, Note_on_c, 0, 70, 81
1, 4936, Note_on_c, 0, 50, 57
1, 5156, Note_on_c, 0, 70, 0
1, 5156, Note_on_c, 0, 72, 83
1, 5380, Note_on_c, 0, 72, 0
1, 5380, Note_on_c, 0, 50, 0
1, 5380, Note_on_c, 0, 74, 85
1, 5383, Note_on_c, 0, 58, 54
1, 5383, Note_on_c, 0, 62, 60
1, 5383, Note_on_c, 0, 55, 54
1, 5400, Control_c, 0, 64, 0
1, 5517, Control_c, 0, 64, 127
1, 5620, Note_on_c, 0, 74, 0
1, 5620, Note_on_c, 0, 79, 88
1, 5837, Note_on_c, 0, 79, 0
1, 5837, Note_on_c, 0, 55, 0
1, 5837, Note_on_c, 0, 78, 86
1, 5840, Note_on_c, 0, 62, 0
1, 5840, Note_on_c, 0, 58, 0
1, 5840, Note_on_c, 0, 45, 65
1, 6061, Note_on_c, 0, 78, 0
1, 6061, Note_on_c, 0, 79, 78
1, 6306, Note_on_c, 0, 79, 0
1, 6306, Note_on_c, 0, 45, 0
1, 6306, Note_on_c, 0, 74, 73
1, 6309, Note_on_c, 0, 46, 64
1, 6317, Control_c, 0, 64, 0
1, 6454, Control_c, 0, 64, 127
1, 6751, Note_on_c, 0, 46, 0
1, 6751, Note_on_c, 0, 55, 58
1, 7207, Note_on_c, 0, 55, 0
1, 7207, Note_on_c, 0, 74, 0
1, 7207, Note_on_c, 0, 62, 49
1, 7210, Note_on_c, 0, 67, 55
1, 7221, Control_c, 0, 64, 0
1, 7422, Control_c, 0, 64, 127
1, 7435, Note_on_c, 0, 74, 76
1, 7665, Note_on_c, 0, 74, 0
1, 7665, Note_on_c, 0, 67, 0
1, 7665, Note_on_c, 0, 62, 0
1, 7665, Note_on_c, 0, 63, 51
1, 7665, Note_on_c, 0, 69, 79
1, 7665, Note_on_c, 0, 67, 51
1, 7665, Note_on_c, 0, 48, 55
1, 7902, Note_on_c, 0, 69, 0
1, 7902, Note_on_c, 0, 72, 71
1, 8143, Note_on_c, 0, 72, 0
1, 8143, Note_on_c, 0, 63, 0
1, 8143, Note_on_c, 0, 67, 0
1, 8146, Note_on_c, 0, 62, 65
1, 8146, Note_on_c, 0, 67, 65
1, 8146, Note_on_c, 0, 70, 73
1, 8149, Note_on_c, 0, 48, 0
1, 8149, Note_on_c, 0, 50, 62
1, 8162, Control_c, 0, 64, 0
1, 8283, Control_c, 0, 64, 127
1, 8369, Note_on_c, 0, 62, 0
1, 8369, Note_on_c, 0, 70, 0
1, 8369, Note_on_c, 0, 67, 0
1, 8372, Note_on_c, 0, 50, 0
1, 8372, Note_on_c, 0, 63, 70
1, 8600, Note_on_c, 0, 63, 0
1, 8600, Note_on_c, 0, 55, 49
1, 8600, Note_on_c, 0, 58, 49
1, 8603, Note_on_c, 0, 61, 67
1, 8834, Note_on_c, 0, 61, 0
1, 8834, Note_on_c, 0, 58, 0
1, 8834, Note_on_c, 0, 55, 0
1, 8837, Note_on_c, 0, 63, 59
1, 9068, Note_on_c, 0, 63, 0
1, 9068, Note_on_c, 0, 55, 54
1, 9068, Note_on_c, 0, 58, 54
1, 9071, Note_on_c, 0, 62, 60
1, 9088, Control_c, 0, 64, 0
1, 9205, Control_c, 0, 64, 127
1, 9300, Note_on_c, 0, 62, 0
1, 9300, Note_on_c, 0, 58, 0
1, 9300, Note_on_c, 0, 70, 73
1, 9303, Note_on_c, 0, 55, 0
1, 9535, Note_on_c, 0, 70, 0
1, 9535, Note_on_c, 0, 60, 66
1, 9535, Note_on_c, 0, 66, 77
1, 9538, Note_on_c, 0, 50, 62
1, 9771, Note_on_c, 0, 66, 0
1, 9771, Note_on_c, 0, 69, 69
1, 10007, Note_on_c, 0, 69, 0
1, 10007, Note_on_c, 0, 60, 0
1, 10007, Note_on_c, 0, 58, 67
1, 10010, Note_on_c, 0, 50, 0
1, 10010, Note_on_c, 0, 67, 73
1, 10010, Note_on_c, 0, 43, 66
1, 10021, Control_c, 0, 64, 0
1, 10114, Control_c, 0, 64, 127
1, 10233, Note_on_c, 0, 51, 62
1, 10465, Note_on_c, 0, 51, 0
1, 10465, Note_on_c, 0, 49, 57
1, 10702, Note_on_c, 0, 49, 0
1, 10702, Note_on_c, 0, 51, 52
1, 10938, Note_on_c, 0, 51, 0
1, 10938, Note_on_c, 0, 58, 0
1, 10938, Note_on_c, 0, 67, 0
1, 10941, Note_on_c, 0, 50, 55
1, 10958, Control_c, 0, 64, 0
1, 11164, Control_c, 0, 64, 127
1, 11175, Note_on_c, 0, 62, 72
1, 11404, Note_on_c, 0, 62, 0
1, 11404, Note_on_c, 0, 64, 74
1, 11404, Note_on_c, 0, 60, 68
1, 11628, Note_on_c, 0, 64, 0
1, 11628, Note_on_c, 0, 66, 75
1, 11856, Note_on_c, 0, 66, 0
1, 11856, Note_on_c, 0, 60, 0
1, 11856, Note_on_c, 0, 67, 77
1, 11859, Note_on_c, 0, 50, 0
1, 11859, Note_on_c, 0, 43, 0
1, 11859, Note_on_c, 0, 58, 71
1, 11862, Note_on_c, 0, 43, 60
1, 11875, Control_c, 0, 64, 0
1, 12060, Control_c, 0, 64, 127
1, 12087, Note_on_c, 0, 58, 0
1, 12087, Note_on_c, 0, 67, 0
1, 12087, Note_on_c, 0, 69, 79
1, 12313, Note_on_c, 0, 69, 0
1, 12313, Note_on_c, 0, 43, 0
1, 12313, Note_on_c, 0, 70, 81
1, 12316, Note_on_c, 0, 50, 57
1, 12539, Note_on_c, 0, 70, 0
1, 12539, Note_on_c, 0, 72, 83
1, 12765, Note_on_c, 0, 72, 0
1, 12765, Note_on_c, 0, 50, 0
1, 12765, Note_on_c, 0, 74, 88
1, 12768, Note_on_c, 0, 58, 54
1, 12768, Note_on_c, 0, 62, 60
1, 12768, Note_on_c, 0, 55, 54
1, 12784, Control_c, 0, 64, 0
1, 12986, Control_c, 0, 64, 127
1, 13000, Note_on_c, 0, 74, 0
1, 13000, Note_on_c, 0, 79, 83
1, 13219, Note_on_c, 0, 79, 0
1, 13219, Note_on_c, 0, 75, 60
1, 13219, Note_on_c, 0, 77, 81
1, 13222, Note_on_c, 0, 55, 0
1, 13222, Note_on_c, 0, 72, 56
1, 13222, Note_on_c, 0, 65, 53
1, 13225, Note_on_c, 0, 58, 0
1, 13225, Note_on_c, 0, 62, 0
1, 13225, Note_on_c, 0, 45, 62
1, 13443, Note_on_c, 0, 77, 0
1, 13443, Note_on_c, 0, 79, 79
1, 13677, Note_on_c, 0, 79, 0
1, 13677, Note_on_c, 0, 72, 0
1, 13677, Note_on_c, 0, 65, 0
1, 13680, Note_on_c, 0, 75, 0
1, 13680, Note_on_c, 0, 70, 66
1, 13680, Note_on_c, 0, 74, 75
1, 13683, Note_on_c, 0, 45, 0
1, 13683, Note_on_c, 0, 65, 66
1, 13683, Note_on_c, 0, 46, 64
1, 13695, Control_c, 0, 64, 0
1, 13893, Control_c, 0, 64, 127
1, 14127, Note_on_c, 0, 46, 0
1, 14127, Note_on_c, 0, 53, 58
1, 14583, Note_on_c, 0, 53, 0
1, 14583, Note_on_c, 0, 65, 0
1, 14583, Note_on_c, 0, 74, 0
1, 14583, Note_on_c, 0, 70, 0
1, 14583, Note_on_c, 0, 58, 48
1, 14583, Note_on_c, 0, 62, 48
1, 14583, Note_on_c, 0, 65, 59
1, 14603, Control_c, 0, 64, 0
1, 14760, Control_c, 0, 64, 127
1, 14813, Note_on_c, 0, 77, 80
1, 15044, Note_on_c, 0, 77, 0
1, 15044, Note_on_c, 0, 70, 70
1, 15044, Note_on_c, 0, 63, 70
1, 15047, Note_on_c, 0, 65, 0
1, 15047, Note_on_c, 0, 74, 70
1, 15047, Note_on_c, 0, 75, 83
1, 15050, Note_on_c, 0, 58, 0
1, 15050, Note_on_c, 0, 62, 0
1, 15050, Note_on_c, 0, 43, 61
1, 15280, Note_on_c, 0, 75, 0
1, 15280, Note_on_c, 0, 77, 78
1, 15521, Note_on_c, 0, 77, 0
1, 15521, Note_on_c, 0, 74, 0
1, 15521, Note_on_c, 0, 63, 0
1, 15524, Note_on_c, 0, 70, 0
1, 15524, Note_on_c, 0, 72, 80
1, 15524, Note_on_c, 0, 63, 70
1, 15527, Note_on_c, 0, 43, 0
1, 15527, Note_on_c, 0, 69, 70
1, 15527, Note_on_c, 0, 45, 64
1, 15532, Control_c, 0, 64, 0
1, 15673, Control_c, 0, 64, 127
1, 15979, Note_on_c, 0, 45, 0
1, 15979, Note_on_c, 0, 57, 56
1, 16435, Note_on_c, 0, 57, 0
1, 16435, Note_on_c, 0, 69, 0
1, 16435, Note_on_c, 0, 63, 0
1, 16435, Note_on_c, 0, 72, 0
1, 16435, Note_on_c, 0, 60, 50
1, 16435, Note_on_c, 0, 63, 50
1, 16435, Note_on_c, 0, 67, 56
1, 16451, Control_c, 0, 64, 0
1, 16571, Control_c, 0, 64, 127
1, 16665, Note_on_c, 0, 75, 75
1, 16897, Note_on_c, 0, 75, 0
1, 16897, Note_on_c, 0, 72, 58
1, 16897, Note_on_c, 0, 74, 76
1, 16900, Note_on_c, 0, 67, 0
1, 16900, Note_on_c, 0, 69, 57
1, 16900, Note_on_c, 0, 62, 57
1, 16903, Note_on_c, 0, 60, 0
1, 16903, Note_on_c, 0, 63, 0
1, 16903, Note_on_c, 0, 42, 56
1, 17133, Note_on_c, 0, 74, 0
1, 17133, Note_on_c, 0, 75, 70
1, 17373, Note_on_c, 0, 75, 0
1, 17373, Note_on_c, 0, 69, 0
1, 17373, Note_on_c, 0, 62, 0
1, 17376, Note_on_c, 0, 72, 0
1, 17376, Note_on_c, 0, 67, 64
1, 17376, Note_on_c, 0, 62, 64
1, 17379, Note_on_c, 0, 42, 0
1, 17379, Note_on_c, 0, 70, 73
1, 17379, Note_on_c, 0, 43, 59
1, 17394, Control_c, 0, 64, 0
1, 17524, Control_c, 0, 64, 127
1, 17842, Note_on_c, 0, 70, 0
1, 17842, Note_on_c, 0, 67, 0
1, 17842, Note_on_c, 0, 62, 0
1, 17845, Note_on_c, 0, 43, 0
1, 17845, Note_on_c, 0, 50, 56
1, 18311, Note_on_c, 0, 50, 0
1, 18311, Note_on_c, 0, 58, 43
1, 18311, Note_on_c, 0, 55, 43
1, 18314, Note_on_c, 0, 62, 54
1, 18330, Control_c, 0, 64, 0
1, 18460, Control_c, 0, 64, 127
1, 18542, Note_on_c, 0, 74, 74
1, 18778, Note_on_c, 0, 74, 0
1, 18778, Note_on_c, 0, 63, 55
1, 18778, Note_on_c, 0, 69, 55
1, 18781, Note_on_c, 0, 62, 0
1, 18781, Note_on_c, 0, 55, 0
1, 18781, Note_on_c, 0, 72, 76
1, 18784, Note_on_c, 0, 58, 0
1, 18784, Note_on_c, 0, 48, 54
1, 19014, Note_on_c, 0, 72, 0
1, 19014, Note_on_c, 0, 74, 72
1, 19250, Note_on_c, 0, 74, 0
1, 19250, Note_on_c, 0, 63, 0
1, 19250, Note_on_c, 0, 69, 0
1, 19253, Note_on_c, 0, 72, 75
1, 19253, Note_on_c, 0, 62, 55
1, 19253, Note_on_c, 0, 67, 55
1, 19256, Note_on_c, 0, 48, 0
1, 19256, Note_on_c, 0, 50, 59
1, 19268, Control_c, 0, 64, 0
1, 19363, Control_c, 0, 64, 127
1, 19490, Note_on_c, 0, 72, 0
1, 19490, Note_on_c, 0, 70, 67
1, 19728, Note_on_c, 0, 70, 0
1, 19728, Note_on_c, 0, 67, 0
1, 19728, Note_on_c, 0, 62, 0
1, 19728, Note_on_c, 0, 58, 52
1, 19728, Note_on_c, 0, 69, 70
1, 19728, Note_on_c, 0, 62, 52
1, 19970, Note_on_c, 0, 69, 0
1, 19970, Note_on_c, 0, 67, 69
1, 20219, Note_on_c, 0, 67, 0
1, 20219, Note_on_c, 0, 58, 0
1, 20219, Note_on_c, 0, 64, 55
1, 20222, Note_on_c, 0, 62, 0
1, 20222, Note_on_c, 0, 70, 72
1, 20222, Note_on_c, 0, 61, 51
1, 20239, Control_c, 0, 64, 0
1, 20485, Control_c, 0, 64, 127
1, 20712, Note_on_c, 0, 64, 0
1, 20712, Note_on_c, 0, 63, 49
1, 20712, Note_on_c, 0, 66, 52
1, 20715, Note_on_c, 0, 61, 0
1, 20715, Note_on_c, 0, 60, 50
1, 20963, Note_on_c, 0, 70, 0
1, 20963, Note_on_c, 0, 69, 59
1, 21220, Note_on_c, 0, 69, 0
1, 21220, Note_on_c, 0, 66, 0
1, 21220, Note_on_c, 0, 63, 0
1, 21223, Note_on_c, 0, 50, 0
1, 21223, Note_on_c, 0, 62, 60
1, 21223, Note_on_c, 0, 67, 68
1, 21226, Note_on_c, 0, 55, 48
1, 21240, Control_c, 0, 64, 0
1, 21364, Control_c, 0, 64, 127
1, 21464, Note_on_c, 0, 60, 0
1, 21464, Note_on_c, 0, 58, 52
1, 21708, Note_on_c, 0, 58, 0
1, 21708, Note_on_c, 0, 62, 0
1, 21708, Note_on_c, 0, 67, 0
1, 21711, Note_on_c, 0, 55, 0
1, 21711, Note_on_c, 0, 55, 50
1, 21957, Note_on_c, 0, 55, 0
1, 21957, Note_on_c, 0, 50, 50
1, 22211, Note_on_c, 0, 50, 0
1, 22211, Note_on_c, 0, 43, 50
1, 22452, Note_on_c, 0, 67, 87
1, 22602, Control_c, 0, 64, 0
1, 22684, Note_on_c, 0, 67, 0
1, 22684, Note_on_c, 0, 43, 0
1, 22684, Note_on_c, 0, 69, 89
1, 22710, Control_c, 0, 64, 127
1, 22910, Note_on_c, 0, 69, 0
1, 22910, Note_on_c, 0, 70, 86
1, 23142, Note_on_c, 0, 70, 0
1, 23142, Note_on_c, 0, 72, 89
1, 23142, Note_on_c, 0, 51, 72
1, 23152, Control_c, 0, 64, 0
1, 23286, Control_c, 0, 64, 127
1, 23364, Note_on_c, 0, 72, 0
1, 23364, Note_on_c, 0, 74, 90
1, 23592, Note_on_c, 0, 74, 0
1, 23592, Note_on_c, 0, 51, 0
1, 23592, Note_on_c, 0, 75, 92
1, 23595, Note_on_c, 0, 65, 69
1, 23815, Note_on_c, 0, 75, 0
1, 23815, Note_on_c, 0, 77, 94
1, 24043, Note_on_c, 0, 77, 0
1, 24043, Note_on_c, 0, 65, 0
1, 24043, Note_on_c, 0, 79, 95
1, 24046, Note_on_c, 0, 57, 64
1, 24046, Note_on_c, 0, 53, 64
1, 24046, Note_on_c, 0, 60, 72
1, 24061, Control_c, 0, 64, 0
1, 24240, Control_c, 0, 64, 127
1, 24266, Note_on_c, 0, 79, 0
1, 24266, Note_on_c, 0, 81, 92
1, 24484, Note_on_c, 0, 81, 0
1, 24484, Note_on_c, 0, 82, 99
1, 24706, Note_on_c, 0, 82, 0
1, 24706, Note_on_c, 0, 84, 97
1, 24944, Note_on_c, 0, 84, 0
1, 24944, Note_on_c, 0, 60, 0
1, 24944, Note_on_c, 0, 77, 95
1, 24947, Note_on_c, 0, 53, 0
1, 24947, Note_on_c, 0, 57, 0
1, 24947, Note_on_c, 0, 50, 87
1, 24960, Control_c, 0, 64, 0
1, 25099, Control_c, 0, 64, 127
1, 25391, Note_on_c, 0, 50, 0
1, 25391, Note_on_c, 0, 65, 78
1, 25845, Note_on_c, 0, 65, 0
1, 25845, Note_on_c, 0, 77, 0
1, 25845, Note_on_c, 0, 53, 69
1, 25848, Note_on_c, 0, 62, 78
1, 25848, Note_on_c, 0, 58, 69
1, 25863, Control_c, 0, 64, 0
1, 26032, Control_c, 0, 64, 127
1, 26071, Note_on_c, 0, 77, 93
1, 26302, Note_on_c, 0, 77, 0
1, 26302, Note_on_c, 0, 79, 95
1, 26520, Note_on_c, 0, 79, 0
1, 26520, Note_on_c, 0, 82, 93
1, 26752, Note_on_c, 0, 82, 0
1, 26752, Note_on_c, 0, 58, 0
1, 26752, Note_on_c, 0, 75, 90
1, 26755, Note_on_c, 0, 62, 0
1, 26755, Note_on_c, 0, 53, 0
1, 26755, Note_on_c, 0, 48, 77
1, 26774, Control_c, 0, 64, 0
1, 26924, Control_c, 0, 64, 127
1, 27201, Note_on_c, 0, 48, 0
1, 27201, Note_on_c, 0, 65, 73
1, 27657, Note_on_c, 0, 65, 0
1, 27657, Note_on_c, 0, 75, 0
1, 27657, Note_on_c, 0, 57, 64
1, 27660, Note_on_c, 0, 53, 64
1, 27660, Note_on_c, 0, 63, 72
1, 27677, Control_c, 0, 64, 0
1, 27818, Control_c, 0, 64, 127
1, 27885, Note_on_c, 0, 75, 87
1, 28111, Note_on_c, 0, 75, 0
1, 28111, Note_on_c, 0, 77, 91
1, 28336, Note_on_c, 0, 77, 0
1, 28336, Note_on_c, 0, 81, 87
1, 28569, Note_on_c, 0, 81, 0
1, 28569, Note_on_c, 0, 63, 0
1, 28569, Note_on_c, 0, 74, 80
1, 28572, Note_on_c, 0, 53, 0
1, 28572, Note_on_c, 0, 57, 0
1, 28572, Note_on_c, 0, 46, 73
1, 28589, Control_c, 0, 64, 0
1, 28802, Control_c, 0, 64, 127
1, 29036, Note_on_c, 0, 46, 0
1, 29036, Note_on_c, 0, 65, 69
1, 29502, Note_on_c, 0, 65, 0
1, 29502, Note_on_c, 0, 74, 0
1, 29502, Note_on_c, 0, 62, 64
1, 29505, Note_on_c, 0, 58, 57
1, 29505, Note_on_c, 0, 53, 57
1, 29520, Control_c, 0, 64, 0
1, 29666, Control_c, 0, 64, 127
1, 29735, Note_on_c, 0, 67, 88
1, 29883, Control_c, 0, 64, 0
1, 29964, Note_on_c, 0, 67, 0
1, 29964, Note_on_c, 0, 69, 89
1, 29990, Control_c, 0, 64, 127
1, 30186, Note_on_c, 0, 69, 0
1, 30186, Note_on_c, 0, 70, 89
1, 30414, Note_on_c, 0, 70, 0
1, 30414, Note_on_c, 0, 53, 0
1, 30414, Note_on_c, 0, 72, 89
1, 30417, Note_on_c, 0, 58, 0
1, 30417, Note_on_c, 0, 62, 0
1, 30417, Note_on_c, 0, 51, 72
1, 30433, Control_c, 0, 64, 0
1, 30551, Control_c, 0, 64, 127
1, 30648, Note_on_c, 0, 72, 0
1, 30648, Note_on_c, 0, 74, 90
1, 30868, Note_on_c, 0, 74, 0
1, 30868, Note_on_c, 0, 51, 0
1, 30868, Note_on_c, 0, 75, 92
1, 30871, Note_on_c, 0, 65, 69
1, 31095, Note_on_c, 0, 75, 0
1, 31095, Note_on_c, 0, 77, 94
1, 31322, Note_on_c, 0, 77, 0
1, 31322, Note_on_c, 0, 65, 0
1, 31322, Note_on_c, 0, 79, 95
1, 31325, Note_on_c, 0, 60, 72
1, 31325, Note_on_c, 0, 57, 64
1, 31325, Note_on_c, 0, 53, 64
1, 31340, Control_c, 0, 64, 0
1, 31509, Control_c, 0, 64, 127
1, 31549, Note_on_c, 0, 79, 0
1, 31549, Note_on_c, 0, 81, 92
1, 31767, Note_on_c, 0, 81, 0
1, 31767, Note_on_c, 0, 82, 99
1, 31996, Note_on_c, 0, 82, 0
1, 31996, Note_on_c, 0, 84, 97
1, 32233, Note_on_c, 0, 84, 0
1, 32233, Note_on_c, 0, 53, 0
1, 32233, Note_on_c, 0, 74, 95
1, 32236, Note_on_c, 0, 57, 0
1, 32236, Note_on_c, 0, 60, 0
1, 32236, Note_on_c, 0, 50, 87
1, 32247, Control_c, 0, 64, 0
1, 32454, Control_c, 0, 64, 127
1, 32681, Note_on_c, 0, 50, 0
1, 32681, Note_on_c, 0, 66, 78
1, 33133, Note_on_c, 0, 66, 0
1, 33133, Note_on_c, 0, 74, 0
1, 33133, Note_on_c, 0, 57, 64
1, 33136, Note_on_c, 0, 62, 72
1, 33136, Note_on_c, 0, 54, 64
1, 33148, Control_c, 0, 64, 0
1, 33261, Control_c, 0, 64, 127
1, 33358, Note_on_c, 0, 74, 93
1, 33581, Note_on_c, 0, 74, 0
1, 33581, Note_on_c, 0, 76, 95
1, 33800, Note_on_c, 0, 76, 0
1, 33800, Note_on_c, 0, 78, 92
1, 34032, Note_on_c, 0, 78, 0
1, 34032, Note_on_c, 0, 54, 0
1, 34032, Note_on_c, 0, 79, 97
1, 34035, Note_on_c, 0, 62, 0
1, 34035, Note_on_c, 0, 57, 0
1, 34035, Note_on_c, 0, 50, 75
1, 34048, Control_c, 0, 64, 0
1, 34217, Control_c, 0, 64, 127
1, 34479, Note_on_c, 0, 50, 0
1, 34479, Note_on_c, 0, 62, 73
1, 34938, Note_on_c, 0, 62, 0
1, 34938, Note_on_c, 0, 79, 0
1, 34938, Note_on_c, 0, 58, 72
1, 34941, Note_on_c, 0, 55, 64
1, 34957, Control_c, 0, 64, 0
1, 35099, Control_c, 0, 64, 127
1, 35167, Note_on_c, 0, 74, 87
1, 35392, Note_on_c, 0, 74, 0
1, 35392, Note_on_c, 0, 72, 90
1, 35615, Note_on_c, 0, 72, 0
1, 35615, Note_on_c, 0, 70, 87
1, 35848, Note_on_c, 0, 70, 0
1, 35848, Note_on_c, 0, 55, 0
1, 35848, Note_on_c, 0, 78, 83
1, 35851, Note_on_c, 0, 58, 0
1, 35851, Note_on_c, 0, 50, 73
1, 35866, Control_c, 0, 64, 0
1, 36024, Control_c, 0, 64, 127
1, 36306, Note_on_c, 0, 50, 0
1, 36306, Note_on_c, 0, 62, 61
1, 36765, Note_on_c, 0, 62, 0
1, 36765, Note_on_c, 0, 78, 0
1, 36765, Note_on_c, 0, 60, 61
1, 36768, Note_on_c, 0, 57, 55
1, 36781, Control_c, 0, 64, 0
1, 36940, Control_c, 0, 64, 127
1, 36994, Note_on_c, 0, 72, 81
1, 37219, Note_on_c, 0, 72, 0
1, 37219, Note_on_c, 0, 70, 83
1, 37445, Note_on_c, 0, 70, 0
1, 37445, Note_on_c, 0, 69, 81
1, 37679, Note_on_c, 0, 69, 0
1, 37679, Note_on_c, 0, 57, 0
1, 37679, Note_on_c, 0, 79, 88
1, 37682, Note_on_c, 0, 60, 0
1, 37682, Note_on_c, 0, 50, 73
1, 37697, Control_c, 0, 64, 0
1, 37760, Control_c, 0, 64, 127
1, 37908, Note_on_c, 0, 79, 0
1, 37908, Note_on_c, 0, 74, 81
1, 38023, Note_on_c, 0, 74, 0
1, 38023, Note_on_c, 0, 75, 65
1, 38080, Note_on_c, 0, 75, 0
1, 38080, Note_on_c, 0, 74, 67
1, 38138, Note_on_c, 0, 74, 0
1, 38138, Note_on_c, 0, 50, 0
1, 38138, Note_on_c, 0, 73, 83
1, 38141, Note_on_c, 0, 62, 64
1, 38367, Note_on_c, 0, 73, 0
1, 38367, Note_on_c, 0, 74, 80
1, 38596, Note_on_c, 0, 74, 0
1, 38596, Note_on_c, 0, 62, 0
1, 38596, Note_on_c, 0, 75, 83
1, 38599, Note_on_c, 0, 55, 57
1, 38599, Note_on_c, 0, 58, 64
1, 38611, Control_c, 0, 64, 0
1, 38694, Control_c, 0, 64, 127
1, 38825, Note_on_c, 0, 75, 0
1, 38825, Note_on_c, 0, 74, 80
1, 39054, Note_on_c, 0, 74, 0
1, 39054, Note_on_c, 0, 70, 83
1, 39284, Note_on_c, 0, 70, 0
1, 39284, Note_on_c, 0, 67, 80
1, 39518, Note_on_c, 0, 58, 0
1, 39518, Note_on_c, 0, 55, 0
1, 39518, Note_on_c, 0, 74, 83
1, 39521, Control_c, 0, 64, 0
1, 39521, Note_on_c, 0, 57, 66
1, 39521, Note_on_c, 0, 50, 66
1, 39633, Note_on_c, 0, 50, 0
1, 39633, Note_on_c, 0, 57, 0
1, 39673, Control_c, 0, 64, 127
1, 39746, Note_on_c, 0, 74, 0
1, 39746, Note_on_c, 0, 67, 0
1, 39746, Note_on_c, 0, 67, 73
1, 39973, Note_on_c, 0, 67, 0
1, 39973, Note_on_c, 0, 74, 88
1, 39973, Note_on_c, 0, 66, 72
1, 40203, Note_on_c, 0, 66, 0
1, 40203, Note_on_c, 0, 63, 71
1, 40436, Note_on_c, 0, 63, 0
1, 40436, Note_on_c, 0, 62, 70
1, 40456, Control_c, 0, 64, 0
1, 40529, Control_c, 0, 64, 127
1, 40677, Note_on_c, 0, 62, 0
1, 40677, Note_on_c, 0, 74, 0
1, 40677, Note_on_c, 0, 62, 73
1, 40677, Note_on_c, 0, 60, 68
1, 40921, Note_on_c, 0, 60, 0
1, 40921, Note_on_c, 0, 62, 0
1, 40921, Note_on_c, 0, 64, 74
1, 40924, Note_on_c, 0, 58, 67
1, 41158, Note_on_c, 0, 58, 0
1, 41158, Note_on_c, 0, 64, 0
1, 41158, Note_on_c, 0, 66, 76
1, 41161, Note_on_c, 0, 57, 66
1, 41389, Note_on_c, 0, 57, 0
1, 41389, Note_on_c, 0, 66, 0
1, 41389, Note_on_c, 0, 67, 77
1, 41392, Note_on_c, 0, 43, 60
1, 41392, Note_on_c, 0, 55, 60
1, 41404, Control_c, 0, 64, 0
1, 41495, Control_c, 0, 64, 127
1, 41612, Note_on_c, 0, 67, 0
1, 41612, Note_on_c, 0, 69, 79
1, 41840, Note_on_c, 0, 69, 0
1, 41840, Note_on_c, 0, 55, 0
1, 41840, Note_on_c, 0, 70, 81
1, 41843, Note_on_c, 0, 43, 0
1, 41843, Note_on_c, 0, 50, 57
1, 42063, Note_on_c, 0, 70, 0
1, 42063, Note_on_c, 0, 72, 83
1, 42291, Note_on_c, 0, 72, 0
1, 42291, Note_on_c, 0, 50, 0
1, 42291, Note_on_c, 0, 74, 85
1, 42294, Note_on_c, 0, 58, 54
1, 42294, Note_on_c, 0, 62, 60
1, 42294, Note_on_c, 0, 55, 54
1, 42309, Control_c, 0, 64, 0
1, 42388, Control_c, 0, 64, 127
1, 42534, Note_on_c, 0, 74, 0
1, 42534, Note_on_c, 0, 79, 88
1, 42751, Note_on_c, 0, 79, 0
1, 42751, Note_on_c, 0, 55, 0
1, 42751, Note_on_c, 0, 78, 86
1, 42754, Note_on_c, 0, 62, 0
1, 42754, Note_on_c, 0, 58, 0
1, 42754, Note_on_c, 0, 45, 65
1, 42972, Note_on_c, 0, 78, 0
1, 42972, Note_on_c, 0, 79, 84
1, 43217, Note_on_c, 0, 79, 0
1, 43217, Note_on_c, 0, 45, 0
1, 43217, Note_on_c, 0, 74, 73
1, 43220, Note_on_c, 0, 46, 64
1, 43235, Control_c, 0, 64, 0
1, 43366, Control_c, 0, 64, 127
1, 43664, Note_on_c, 0, 46, 0
1, 43664, Note_on_c, 0, 55, 58
1, 44122, Note_on_c, 0, 55, 0
1, 44122, Note_on_c, 0, 74, 0
1, 44122, Note_on_c, 0, 62, 49
1, 44125, Note_on_c, 0, 67, 55
1, 44141, Control_c, 0, 64, 0
1, 44337, Control_c, 0, 64, 127
1, 44350, Note_on_c, 0, 74, 76
1, 44579, Note_on_c, 0, 74, 0
1, 44579, Note_on_c, 0, 67, 0
1, 44579, Note_on_c, 0, 62, 0
1, 44579, Note_on_c, 0, 69, 79
1, 44579, Note_on_c, 0, 63, 51
1, 44579, Note_on_c, 0, 67, 51
1, 44579, Note_on_c, 0, 48, 55
1, 44817, Note_on_c, 0, 69, 0
1, 44817, Note_on_c, 0, 72, 76
1, 45058, Note_on_c, 0, 72, 0
1, 45058, Note_on_c, 0, 63, 0
1, 45058, Note_on_c, 0, 67, 0
1, 45061, Note_on_c, 0, 70, 73
1, 45061, Note_on_c, 0, 62, 65
1, 45061, Note_on_c, 0, 67, 65
1, 45064, Note_on_c, 0, 48, 0
1, 45064, Note_on_c, 0, 50, 62
1, 45076, Control_c, 0, 64, 0
1, 45158, Control_c, 0, 64, 127
1, 45280, Note_on_c, 0, 70, 0
1, 45280, Note_on_c, 0, 67, 0
1, 45280, Note_on_c, 0, 62, 0
1, 45283, Note_on_c, 0, 50, 0
1, 45283, Note_on_c, 0, 63, 70
1, 45511, Note_on_c, 0, 63, 0
1, 45511, Note_on_c, 0, 58, 51
1, 45511, Note_on_c, 0, 61, 70
1, 45514, Note_on_c, 0, 55, 51
1, 45745, Note_on_c, 0, 55, 0
1, 45745, Note_on_c, 0, 61, 0
1, 45745, Note_on_c, 0, 58, 0
1, 45748, Note_on_c, 0, 63, 69
1, 45979, Note_on_c, 0, 63, 0
1, 45979, Note_on_c, 0, 55, 53
1, 45979, Note_on_c, 0, 58, 58
1, 45982, Note_on_c, 0, 62, 65
1, 45999, Control_c, 0, 64, 0
1, 46107, Control_c, 0, 64, 127
1, 46211, Note_on_c, 0, 62, 0
1, 46211, Note_on_c, 0, 58, 0
1, 46211, Note_on_c, 0, 70, 73
1, 46214, Note_on_c, 0, 55, 0
1, 46446, Note_on_c, 0, 70, 0
1, 46446, Note_on_c, 0, 66, 77
1, 46446, Note_on_c, 0, 60, 66
1, 46449, Note_on_c, 0, 50, 62
1, 46682, Note_on_c, 0, 66, 0
1, 46682, Note_on_c, 0, 69, 73
1, 46918, Note_on_c, 0, 69, 0
1, 46918, Note_on_c, 0, 60, 0
1, 46918, Note_on_c, 0, 67, 73
1, 46921, Note_on_c, 0, 50, 0
1, 46921, Note_on_c, 0, 58, 67
1, 46921, Note_on_c, 0, 43, 66
1, 46936, Control_c, 0, 64, 0
1, 47110, Control_c, 0, 64, 127
1, 47141, Note_on_c, 0, 51, 62
1, 47373, Note_on_c, 0, 51, 0
1, 47373, Note_on_c, 0, 49, 64
1, 47610, Note_on_c, 0, 49, 0
1, 47610, Note_on_c, 0, 51, 62
1, 47846, Note_on_c, 0, 51, 0
1, 47846, Note_on_c, 0, 67, 0
1, 47846, Note_on_c, 0, 58, 0
1, 47849, Note_on_c, 0, 50, 59
1, 47866, Control_c, 0, 64, 0
1, 48050, Control_c, 0, 64, 127
1, 48083, Note_on_c, 0, 62, 72
1, 48312, Note_on_c, 0, 62, 0
1, 48312, Note_on_c, 0, 60, 68
1, 48312, Note_on_c, 0, 64, 74
1, 48542, Note_on_c, 0, 64, 0
1, 48542, Note_on_c, 0, 66, 75
1, 48771, Note_on_c, 0, 66, 0
1, 48771, Note_on_c, 0, 60, 0
1, 48771, Note_on_c, 0, 58, 71
1, 48774, Note_on_c, 0, 50, 0
1, 48774, Note_on_c, 0, 43, 0
1, 48774, Note_on_c, 0, 67, 77
1, 48777, Note_on_c, 0, 43, 60
1, 48790, Control_c, 0, 64, 0
1, 48975, Control_c, 0, 64, 127
1, 49002, Note_on_c, 0, 67, 0
1, 49002, Note_on_c, 0, 58, 0
1, 49002, Note_on_c, 0, 69, 79
1, 49227, Note_on_c, 0, 69, 0
1, 49227, Note_on_c, 0, 43, 0
1, 49227, Note_on_c, 0, 70, 81
1, 49230, Note_on_c, 0, 50, 57
1, 49455, Note_on_c, 0, 70, 0
1, 49455, Note_on_c, 0, 72, 83
1, 49683, Note_on_c, 0, 72, 0
1, 49683, Note_on_c, 0, 50, 0
1, 49683, Note_on_c, 0, 74, 88
1, 49686, Note_on_c, 0, 58, 54
1, 49686, Note_on_c, 0, 62, 60
1, 49686, Note_on_c, 0, 55, 54
1, 49703, Control_c, 0, 64, 0
1, 49894, Control_c, 0, 64, 127
1, 49922, Note_on_c, 0, 74, 0
1, 49922, Note_on_c, 0, 79, 83
1, 50139, Note_on_c, 0, 79, 0
1, 50139, Note_on_c, 0, 65, 53
1, 50139, Note_on_c, 0, 75, 60
1, 50142, Note_on_c, 0, 55, 0
1, 50142, Note_on_c, 0, 72, 56
1, 50142, Note_on_c, 0, 77, 81
1, 50145, Note_on_c, 0, 58, 0
1, 50145, Note_on_c, 0, 62, 0
1, 50145, Note_on_c, 0, 45, 62
1, 50359, Note_on_c, 0, 77, 0
1, 50359, Note_on_c, 0, 79, 79
1, 50600, Note_on_c, 0, 79, 0
1, 50600, Note_on_c, 0, 72, 0
1, 50600, Note_on_c, 0, 75, 0
1, 50603, Note_on_c, 0, 65, 0
1, 50603, Note_on_c, 0, 70, 66
1, 50603, Note_on_c, 0, 65, 66
1, 50606, Note_on_c, 0, 45, 0
1, 50606, Note_on_c, 0, 74, 75
1, 50606, Note_on_c, 0, 46, 64
1, 50615, Control_c, 0, 64, 0
1, 50752, Control_c, 0, 64, 127
1, 51058, Note_on_c, 0, 46, 0
1, 51058, Note_on_c, 0, 53, 61
1, 51505, Note_on_c, 0, 53, 0
1, 51505, Note_on_c, 0, 74, 0
1, 51505, Note_on_c, 0, 65, 0
1, 51505, Note_on_c, 0, 70, 0
1, 51505, Note_on_c, 0, 65, 62
1, 51505, Note_on_c, 0, 58, 50
1, 51505, Note_on_c, 0, 62, 50
1, 51524, Control_c, 0, 64, 0
1, 51668, Control_c, 0, 64, 127
1, 51735, Note_on_c, 0, 77, 80
1, 51967, Note_on_c, 0, 77, 0
1, 51967, Note_on_c, 0, 63, 70
1, 51967, Note_on_c, 0, 75, 83
1, 51970, Note_on_c, 0, 62, 0
1, 51970, Note_on_c, 0, 70, 70
1, 51970, Note_on_c, 0, 74, 70
1, 51973, Note_on_c, 0, 65, 0
1, 51973, Note_on_c, 0, 58, 0
1, 51973, Note_on_c, 0, 43, 61
1, 52203, Note_on_c, 0, 75, 0
1, 52203, Note_on_c, 0, 77, 78
1, 52443, Note_on_c, 0, 77, 0
1, 52443, Note_on_c, 0, 70, 0
1, 52443, Note_on_c, 0, 74, 0
1, 52446, Note_on_c, 0, 63, 0
1, 52446, Note_on_c, 0, 69, 70
1, 52446, Note_on_c, 0, 63, 70
1, 52449, Note_on_c, 0, 43, 0
1, 52449, Note_on_c, 0, 72, 80
1, 52449, Note_on_c, 0, 45, 64
1, 52462, Control_c, 0, 64, 0
1, 52659, Control_c, 0, 64, 127
1, 52901, Note_on_c, 0, 45, 0
1, 52901, Note_on_c, 0, 57, 59
1, 53358, Note_on_c, 0, 57, 0
1, 53358, Note_on_c, 0, 72, 0
1, 53358, Note_on_c, 0, 63, 0
1, 53358, Note_on_c, 0, 69, 0
1, 53358, Note_on_c, 0, 60, 53
1, 53358, Note_on_c, 0, 63, 53
1, 53358, Note_on_c, 0, 67, 59
1, 53378, Control_c, 0, 64, 0
1, 53548, Control_c, 0, 64, 127
1, 53588, Note_on_c, 0, 75, 75
1, 53819, Note_on_c, 0, 75, 0
1, 53819, Note_on_c, 0, 69, 57
1, 53819, Note_on_c, 0, 72, 58
1, 53822, Note_on_c, 0, 67, 0
1, 53822, Note_on_c, 0, 62, 57
1, 53822, Note_on_c, 0, 74, 76
1, 53825, Note_on_c, 0, 60, 0
1, 53825, Note_on_c, 0, 63, 0
1, 53825, Note_on_c, 0, 42, 56
1, 54055, Note_on_c, 0, 74, 0
1, 54055, Note_on_c, 0, 75, 70
1, 54295, Note_on_c, 0, 75, 0
1, 54295, Note_on_c, 0, 62, 0
1, 54295, Note_on_c, 0, 72, 0
1, 54298, Note_on_c, 0, 69, 0
1, 54298, Note_on_c, 0, 62, 64
1, 54298, Note_on_c, 0, 67, 64
1, 54301, Note_on_c, 0, 42, 0
1, 54301, Note_on_c, 0, 70, 73
1, 54301, Note_on_c, 0, 43, 59
1, 54313, Control_c, 0, 64, 0
1, 54460, Control_c, 0, 64, 127
1, 54764, Note_on_c, 0, 70, 0
1, 54764, Note_on_c, 0, 62, 0
1, 54764, Note_on_c, 0, 67, 0
1, 54767, Note_on_c, 0, 43, 0
1, 54767, Note_on_c, 0, 50, 56
1, 55234, Note_on_c, 0, 50, 0
1, 55234, Note_on_c, 0, 58, 43
1, 55234, Note_on_c, 0, 55, 43
1, 55237, Note_on_c, 0, 62, 54
1, 55247, Control_c, 0, 64, 0
1, 55464, Note_on_c, 0, 74, 74
1, 55506, Control_c, 0, 64, 127
1, 55704, Note_on_c, 0, 74, 0
1, 55704, Note_on_c, 0, 72, 76
1, 55704, Note_on_c, 0, 63, 55
1, 55707, Note_on_c, 0, 62, 0
1, 55707, Note_on_c, 0, 55, 0
1, 55707, Note_on_c, 0, 69, 55
1, 55710, Note_on_c, 0, 58, 0
1, 55710, Note_on_c, 0, 48, 54
1, 55940, Note_on_c, 0, 72, 0
1, 55940, Note_on_c, 0, 74, 72
1, 56180, Note_on_c, 0, 74, 0
1, 56180, Note_on_c, 0, 69, 0
1, 56180, Note_on_c, 0, 63, 0
1, 56183, Note_on_c, 0, 67, 55
1, 56183, Note_on_c, 0, 72, 75
1, 56183, Note_on_c, 0, 62, 55
1, 56186, Note_on_c, 0, 48, 0
1, 56186, Note_on_c, 0, 50, 59
1, 56196, Control_c, 0, 64, 0
1, 56294, Control_c, 0, 64, 127
1, 56421, Note_on_c, 0, 72, 0
1, 56421, Note_on_c, 0, 70, 71
1, 56661, Note_on_c, 0, 70, 0
1, 56661, Note_on_c, 0, 62, 0
1, 56661, Note_on_c, 0, 67, 0
1, 56661, Note_on_c, 0, 69, 70
1, 56661, Note_on_c, 0, 58, 47
1, 56661, Note_on_c, 0, 62, 52
1, 56905, Note_on_c, 0, 69, 0
1, 56905, Note_on_c, 0, 67, 69
1, 57151, Note_on_c, 0, 67, 0
1, 57151, Note_on_c, 0, 58, 0
1, 57151, Note_on_c, 0, 70, 72
1, 57154, Note_on_c, 0, 62, 0
1, 57154, Note_on_c, 0, 64, 55
1, 57154, Note_on_c, 0, 61, 51
1, 57172, Control_c, 0, 64, 0
1, 57327, Control_c, 0, 64, 127
1, 57651, Note_on_c, 0, 64, 0
1, 57651, Note_on_c, 0, 63, 49
1, 57651, Note_on_c, 0, 66, 52
1, 57654, Note_on_c, 0, 61, 0
1, 57654, Note_on_c, 0, 60, 50
1, 57900, Note_on_c, 0, 70, 0
1, 57900, Note_on_c, 0, 69, 59
1, 58163, Note_on_c, 0, 69, 0
1, 58163, Note_on_c, 0, 66, 0
1, 58163, Note_on_c, 0, 63, 0
1, 58166, Note_on_c, 0, 60, 0
1, 58166, Note_on_c, 0, 62, 54
1, 58166, Note_on_c, 0, 67, 68
1, 58169, Note_on_c, 0, 59, 54
1, 58169, Control_c, 0, 64, 0
1, 58252, Control_c, 0, 64, 127
1, 58414, Note_on_c, 0, 59, 0
1, 58414, Note_on_c, 0, 67, 0
1, 58414, Note_on_c, 0, 62, 0
1, 58417, Note_on_c, 0, 50, 0
1, 58417, Note_on_c, 0, 43, 45
1, 58417, Note_on_c, 0, 50, 50
1, 58639, Note_on_c, 0, 71, 62
1, 58639, Note_on_c, 0, 74, 70
1, 58848, Note_on_c, 0, 50, 0
1, 58848, Note_on_c, 0, 43, 0
1, 58848, Note_on_c, 0, 50, 44
1, 58851, Note_on_c, 0, 62, 49
1, 58851, Note_on_c, 0, 55, 44
1, 59063, Note_on_c, 0, 71, 0
1, 59063, Note_on_c, 0, 74, 0
1, 59063, Note_on_c, 0, 71, 64
1, 59066, Note_on_c, 0, 67, 57
1, 59271, Note_on_c, 0, 62, 0
1, 59271, Note_on_c, 0, 55, 0
1, 59271, Note_on_c, 0, 50, 0
1, 59274, Note_on_c, 0, 43, 44
1, 59274, Note_on_c, 0, 50, 49
1, 59484, Note_on_c, 0, 71, 0
1, 59484, Note_on_c, 0, 67, 0
1, 59484, Note_on_c, 0, 71, 61
1, 59487, Note_on_c, 0, 74, 69
1, 59689, Note_on_c, 0, 43, 0
1, 59689, Note_on_c, 0, 50, 0
1, 59689, Note_on_c, 0, 50, 44
1, 59692, Note_on_c, 0, 54, 44
1, 59692, Note_on_c, 0, 62, 49
1, 59896, Note_on_c, 0, 71, 0
1, 59896, Note_on_c, 0, 74, 0
1, 59896, Note_on_c, 0, 72, 64
1, 59899, Note_on_c, 0, 76, 72
1, 59912, Control_c, 0, 64, 0
1, 60057, Control_c, 0, 64, 127
1, 60092, Note_on_c, 0, 54, 0
1, 60092, Note_on_c, 0, 62, 0
1, 60092, Note_on_c, 0, 50, 0
1, 60095, Note_on_c, 0, 43, 49
1, 60095, Note_on_c, 0, 50, 49
1, 60292, Note_on_c, 0, 72, 0
1, 60292, Note_on_c, 0, 76, 0
1, 60292, Note_on_c, 0, 69, 67
1, 60295, Note_on_c, 0, 66, 59
1, 60483, Note_on_c, 0, 66, 0
1, 60483, Note_on_c, 0, 69, 0
1, 60483, Note_on_c, 0, 67, 59
1, 60486, Note_on_c, 0, 43, 0
1, 60486, Note_on_c, 0, 50, 0
1, 60486, Note_on_c, 0, 71, 67
1, 60489, Note_on_c, 0, 50, 44
1, 60489, Note_on_c, 0, 54, 44
1, 60489, Note_on_c, 0, 62, 49
1, 60680, Note_on_c, 0, 71, 0
1, 60680, Note_on_c, 0, 67, 0
1, 60680, Note_on_c, 0, 69, 61
1, 60683, Note_on_c, 0, 72, 69
1, 60696, Control_c, 0, 64, 0
1, 60860, Control_c, 0, 64, 127
1, 60871, Note_on_c, 0, 54, 0
1, 60871, Note_on_c, 0, 62, 0
1, 60871, Note_on_c, 0, 50, 0
1, 60874, Note_on_c, 0, 43, 45
1, 60874, Note_on_c, 0, 50, 50
1, 61065, Note_on_c, 0, 69, 0
1, 61065, Note_on_c, 0, 72, 0
1, 61065, Note_on_c, 0, 72, 59
1, 61068, Note_on_c, 0, 76, 67
1, 61255, Note_on_c, 0, 43, 0
1, 61255, Note_on_c, 0, 50, 0
1, 61255, Note_on_c, 0, 50, 45
1, 61258, Note_on_c, 0, 55, 45
1, 61258, Note_on_c, 0, 62, 50
1, 61444, Note_on_c, 0, 72, 0
1, 61444, Note_on_c, 0, 76, 0
1, 61444, Note_on_c, 0, 71, 63
1, 61447, Note_on_c, 0, 74, 71
1, 61461, Control_c, 0, 64, 0
1, 61572, Control_c, 0, 64, 127
1, 61643, Note_on_c, 0, 55, 0
1, 61643, Note_on_c, 0, 62, 0
1, 61643, Note_on_c, 0, 50, 0
1, 61646, Note_on_c, 0, 43, 45
1, 61646, Note_on_c, 0, 50, 50
1, 61831, Note_on_c, 0, 71, 0
1, 61831, Note_on_c, 0, 74, 0
1, 61831, Note_on_c, 0, 79, 72
1, 61834, Note_on_c, 0, 76, 64
1, 61847, Control_c, 0, 64, 0
1, 62019, Note_on_c, 0, 43, 0
1, 62019, Note_on_c, 0, 50, 0
1, 62019, Note_on_c, 0, 50, 45
1, 62022, Note_on_c, 0, 62, 50
1, 62022, Note_on_c, 0, 55, 45
1, 62030, Control_c, 0, 64, 127
1, 62210, Note_on_c, 0, 79, 0
1, 62210, Note_on_c, 0, 76, 0
1, 62210, Note_on_c, 0, 74, 61
1, 62213, Note_on_c, 0, 78, 69
1, 62398, Note_on_c, 0, 62, 0
1, 62398, Note_on_c, 0, 55, 0
1, 62398, Note_on_c, 0, 50, 0
1, 62401, Note_on_c, 0, 43, 45
1, 62401, Note_on_c, 0, 50, 50
1, 62590, Note_on_c, 0, 74, 0
1, 62590, Note_on_c, 0, 78, 0
1, 62590, Note_on_c, 0, 72, 61
1, 62593, Note_on_c, 0, 76, 69
1, 62778, Note_on_c, 0, 43, 0
1, 62778, Note_on_c, 0, 50, 0
1, 62778, Note_on_c, 0, 50, 45
1, 62781, Note_on_c, 0, 54, 45
1, 62781, Note_on_c, 0, 62, 50
1, 62970, Note_on_c, 0, 72, 0
1, 62970, Note_on_c, 0, 76, 0
1, 62970, Note_on_c, 0, 71, 61
1, 62973, Note_on_c, 0, 74, 69
1, 62982, Control_c, 0, 64, 0
1, 63114, Control_c, 0, 64, 127
1, 63158, Note_on_c, 0, 54, 0
1, 63158, Note_on_c, 0, 62, 0
1, 63158, Note_on_c, 0, 50, 0
1, 63161, Note_on_c, 0, 43, 45
1, 63161, Note_on_c, 0, 50, 50
1, 63350, Note_on_c, 0, 71, 0
1, 63350, Note_on_c, 0, 74, 0
1, 63350, Note_on_c, 0, 66, 58
1, 63353, Note_on_c, 0, 69, 66
1, 63546, Note_on_c, 0, 69, 0
1, 63546, Note_on_c, 0, 66, 0
1, 63546, Note_on_c, 0, 71, 66
1, 63549, Note_on_c, 0, 43, 0
1, 63549, Note_on_c, 0, 50, 0
1, 63549, Note_on_c, 0, 67, 58
1, 63552, Note_on_c, 0, 50, 45
1, 63552, Note_on_c, 0, 54, 45
1, 63552, Note_on_c, 0, 62, 50
1, 63741, Note_on_c, 0, 67, 0
1, 63741, Note_on_c, 0, 71, 0
1, 63741, Note_on_c, 0, 69, 59
1, 63744, Note_on_c, 0, 72, 67
1, 63758, Control_c, 0, 64, 0
1, 63918, Control_c, 0, 64, 127
1, 63941, Note_on_c, 0, 54, 0
1, 63941, Note_on_c, 0, 62, 0
1, 63941, Note_on_c, 0, 50, 0
1, 63944, Note_on_c, 0, 43, 45
1, 63944, Note_on_c, 0, 50, 50
1, 64141, Note_on_c, 0, 69, 0
1, 64141, Note_on_c, 0, 72, 0
1, 64141, Note_on_c, 0, 70, 61
1, 64144, Note_on_c, 0, 73, 69
1, 64349, Note_on_c, 0, 43, 0
1, 64349, Note_on_c, 0, 50, 0
1, 64349, Note_on_c, 0, 50, 44
1, 64352, Note_on_c, 0, 55, 44
1, 64352, Note_on_c, 0, 62, 49
1, 64557, Note_on_c, 0, 70, 0
1, 64557, Note_on_c, 0, 73, 0
1, 64557, Note_on_c, 0, 71, 62
1, 64560, Note_on_c, 0, 74, 70
1, 64560, Control_c, 0, 64, 0
1, 64755, Note_on_c, 0, 74, 0
1, 64755, Note_on_c, 0, 62, 0
1, 64755, Note_on_c, 0, 71, 0
1, 64758, Note_on_c, 0, 50, 0
1, 64758, Note_on_c, 0, 55, 0
1, 64758, Note_on_c, 0, 43, 43
1, 64761, Note_on_c, 0, 50, 48
1, 64953, Note_on_c, 0, 62, 79
1, 64953, Note_on_c, 0, 71, 80
1, 64953, Note_on_c, 0, 74, 91
1, 64956, Note_on_c, 0, 50, 0
1, 64956, Note_on_c, 0, 43, 0
1, 65076, Control_c, 0, 64, 127
1, 65143, Note_on_c, 0, 52, 84
1, 65335, Note_on_c, 0, 71, 0
1, 65335, Note_on_c, 0, 74, 0
1, 65335, Note_on_c, 0, 62, 0
1, 65338, Note_on_c, 0, 59, 72
1, 65338, Note_on_c, 0, 71, 82
1, 65338, Note_on_c, 0, 67, 72
1, 65519, Note_on_c, 0, 52, 0
1, 65519, Note_on_c, 0, 43, 61
1, 65519, Note_on_c, 0, 50, 70
1, 65708, Note_on_c, 0, 59, 0
1, 65708, Note_on_c, 0, 67, 0
1, 65708, Note_on_c, 0, 71, 0
1, 65711, Note_on_c, 0, 62, 78
1, 65711, Note_on_c, 0, 71, 79
1, 65711, Note_on_c, 0, 74, 90
1, 65714, Note_on_c, 0, 43, 0
1, 65714, Note_on_c, 0, 50, 0
1, 65893, Note_on_c, 0, 55, 87
1, 66082, Note_on_c, 0, 71, 0
1, 66082, Note_on_c, 0, 74, 0
1, 66082, Note_on_c, 0, 62, 0
1, 66085, Note_on_c, 0, 64, 79
1, 66085, Note_on_c, 0, 72, 80
1, 66085, Note_on_c, 0, 76, 91
1, 66135, Control_c, 0, 64, 0
1, 66257, Control_c, 0, 64, 127
1, 66265, Note_on_c, 0, 55, 0
1, 66265, Note_on_c, 0, 50, 69
1, 66265, Note_on_c, 0, 43, 60
1, 66268, Note_on_c, 0, 54, 69
1, 66451, Note_on_c, 0, 64, 0
1, 66451, Note_on_c, 0, 76, 0
1, 66451, Note_on_c, 0, 72, 0
1, 66454, Note_on_c, 0, 54, 0
1, 66454, Note_on_c, 0, 69, 86
1, 66454, Note_on_c, 0, 66, 76
1, 66457, Note_on_c, 0, 43, 0
1, 66457, Note_on_c, 0, 50, 0
1, 66467, Control_c, 0, 64, 0
1, 66600, Control_c, 0, 64, 127
1, 66635, Note_on_c, 0, 67, 76
1, 66635, Note_on_c, 0, 71, 86
1, 66635, Note_on_c, 0, 63, 81
1, 66651, Note_on_c, 0, 69, 0
1, 66651, Note_on_c, 0, 66, 0
1, 66822, Note_on_c, 0, 69, 79
1, 66822, Note_on_c, 0, 72, 88
1, 66837, Note_on_c, 0, 71, 0
1, 66837, Note_on_c, 0, 67, 0
1, 67007, Note_on_c, 0, 63, 0
1, 67007, Note_on_c, 0, 55, 64
1, 67007, Note_on_c, 0, 57, 64
1, 67010, Note_on_c, 0, 62, 72
1, 67194, Note_on_c, 0, 72, 0
1, 67194, Note_on_c, 0, 69, 0
1, 67194, Note_on_c, 0, 64, 77
1, 67197, Note_on_c, 0, 62, 0
1, 67197, Note_on_c, 0, 72, 76
1, 67197, Note_on_c, 0, 76, 87
1, 67200, Note_on_c, 0, 57, 0
1, 67200, Note_on_c, 0, 55, 0
1, 67247, Control_c, 0, 64, 0
1, 67327, Control_c, 0, 64, 127
1, 67381, Note_on_c, 0, 66, 86
1, 67571, Note_on_c, 0, 62, 83
1, 67571, Note_on_c, 0, 71, 83
1, 67571, Note_on_c, 0, 74, 95
1, 67586, Note_on_c, 0, 64, 0
1, 67586, Note_on_c, 0, 76, 0
1, 67586, Note_on_c, 0, 72, 0
1, 67751, Note_on_c, 0, 66, 0
1, 67751, Note_on_c, 0, 67, 76
1, 67936, Note_on_c, 0, 67, 0
1, 67936, Note_on_c, 0, 62, 0
1, 67936, Note_on_c, 0, 71, 0
1, 67936, Note_on_c, 0, 74, 0
1, 67936, Note_on_c, 0, 67, 84
1, 67936, Note_on_c, 0, 79, 98
1, 67936, Note_on_c, 0, 76, 86
1, 67953, Control_c, 0, 64, 0
1, 68065, Control_c, 0, 64, 127
1, 68119, Note_on_c, 0, 58, 87
1, 68307, Note_on_c, 0, 66, 81
1, 68307, Note_on_c, 0, 74, 82
1, 68307, Note_on_c, 0, 78, 93
1, 68322, Note_on_c, 0, 76, 0
1, 68322, Note_on_c, 0, 67, 0
1, 68322, Note_on_c, 0, 79, 0
1, 68376, Control_c, 0, 64, 0
1, 68446, Control_c, 0, 64, 127
1, 68489, Note_on_c, 0, 58, 0
1, 68489, Note_on_c, 0, 59, 75
1, 68677, Note_on_c, 0, 64, 81
1, 68677, Note_on_c, 0, 72, 82
1, 68677, Note_on_c, 0, 76, 94
1, 68680, Note_on_c, 0, 59, 0
1, 68692, Note_on_c, 0, 78, 0
1, 68692, Note_on_c, 0, 66, 0
1, 68692, Note_on_c, 0, 74, 0
1, 68707, Control_c, 0, 64, 0
1, 68860, Control_c, 0, 64, 127
1, 68860, Note_on_c, 0, 56, 89
1, 69050, Note_on_c, 0, 62, 81
1, 69050, Note_on_c, 0, 71, 82
1, 69050, Note_on_c, 0, 74, 94
1, 69065, Note_on_c, 0, 76, 0
1, 69065, Note_on_c, 0, 72, 0
1, 69065, Note_on_c, 0, 64, 0
1, 69068, Control_c, 0, 64, 0
1, 69206, Control_c, 0, 64, 127
1, 69232, Note_on_c, 0, 56, 0
1, 69232, Note_on_c, 0, 57, 80
1, 69414, Note_on_c, 0, 74, 0
1, 69414, Note_on_c, 0, 62, 0
1, 69414, Note_on_c, 0, 71, 0
1, 69417, Note_on_c, 0, 57, 80
1, 69417, Note_on_c, 0, 66, 78
1, 69417, Note_on_c, 0, 69, 89
1, 69420, Note_on_c, 0, 57, 0
1, 69430, Control_c, 0, 64, 0
1, 69563, Control_c, 0, 64, 127
1, 69599, Note_on_c, 0, 59, 80
1, 69599, Note_on_c, 0, 71, 89
1, 69599, Note_on_c, 0, 67, 78
1, 69602, Note_on_c, 0, 51, 91
1, 69614, Note_on_c, 0, 57, 0
1, 69614, Note_on_c, 0, 69, 0
1, 69614, Note_on_c, 0, 66, 0
1, 69785, Note_on_c, 0, 60, 81
1, 69785, Note_on_c, 0, 69, 82
1, 69785, Note_on_c, 0, 72, 94
1, 69801, Note_on_c, 0, 71, 0
1, 69801, Note_on_c, 0, 59, 0
1, 69801, Note_on_c, 0, 67, 0
1, 69874, Control_c, 0, 64, 0
1, 69955, Control_c, 0, 64, 127
1, 69973, Note_on_c, 0, 51, 0
1, 69973, Note_on_c, 0, 50, 84
1, 70161, Note_on_c, 0, 72, 0
1, 70161, Note_on_c, 0, 60, 0
1, 70161, Note_on_c, 0, 69, 0
1, 70164, Note_on_c, 0, 64, 88
1, 70164, Note_on_c, 0, 72, 89
1, 70164, Note_on_c, 0, 76, 102
1, 70167, Note_on_c, 0, 50, 0
1, 70307, Control_c, 0, 64, 0
1, 70352, Note_on_c, 0, 42, 98
1, 70389, Control_c, 0, 64, 127
1, 70544, Note_on_c, 0, 64, 0
1, 70544, Note_on_c, 0, 76, 0
1, 70544, Note_on_c, 0, 72, 0
1, 70547, Note_on_c, 0, 62, 98
1, 70547, Note_on_c, 0, 71, 98
1, 70547, Note_on_c, 0, 74, 112
1, 70550, Control_c, 0, 64, 0
1, 70642, Note_on_c, 0, 74, 0
1, 70642, Note_on_c, 0, 71, 0
1, 70642, Note_on_c, 0, 62, 0
1, 70645, Note_on_c, 0, 42, 0
1, 70741, Note_on_c, 0, 67, 91
1, 70741, Note_on_c, 0, 71, 91
1, 70741, Note_on_c, 0, 74, 104
1, 70744, Note_on_c, 0, 43, 94
1, 70840, Note_on_c, 0, 74, 0
1, 70840, Note_on_c, 0, 67, 0
1, 70840, Note_on_c, 0, 71, 0
1, 70843, Note_on_c, 0, 43, 0
1, 70939, Note_on_c, 0, 67, 97
1, 70939, Note_on_c, 0, 71, 97
1, 70939, Note_on_c, 0, 79, 110
1, 70942, Note_on_c, 0, 64, 98
1, 70942, Note_on_c, 0, 59, 98
1, 70942, Note_on_c, 0, 52, 83
1, 70994, Control_c, 0, 64, 127
1, 71324, Note_on_c, 0, 52, 0
1, 71324, Note_on_c, 0, 55, 95
1, 71516, Note_on_c, 0, 79, 0
1, 71516, Note_on_c, 0, 76, 103
1, 71705, Note_on_c, 0, 76, 0
1, 71705, Note_on_c, 0, 71, 0
1, 71705, Note_on_c, 0, 67, 0
1, 71708, Note_on_c, 0, 66, 93
1, 71708, Note_on_c, 0, 71, 93
1, 71708, Note_on_c, 0, 78, 106
1, 71711, Note_on_c, 0, 64, 0
1, 71711, Note_on_c, 0, 55, 0
1, 71711, Note_on_c, 0, 59, 0
1, 71714, Control_c, 0, 64, 0
1, 71714, Note_on_c, 0, 62, 92
1, 71714, Note_on_c, 0, 59, 79
1, 71802, Note_on_c, 0, 66, 0
1, 71802, Note_on_c, 0, 78, 0
1, 71802, Note_on_c, 0, 71, 0
1, 71805, Note_on_c, 0, 62, 0
1, 71805, Note_on_c, 0, 59, 0
1, 71899, Note_on_c, 0, 66, 87
1, 71899, Note_on_c, 0, 71, 101
1, 71899, Note_on_c, 0, 50, 75
1, 71902, Note_on_c, 0, 54, 75
1, 71902, Note_on_c, 0, 59, 83
1, 71996, Note_on_c, 0, 59, 0
1, 71996, Note_on_c, 0, 66, 0
1, 71996, Note_on_c, 0, 71, 0
1, 71999, Note_on_c, 0, 50, 0
1, 71999, Note_on_c, 0, 54, 0
1, 72093, Note_on_c, 0, 64, 97
1, 72093, Note_on_c, 0, 67, 97
1, 72093, Note_on_c, 0, 76, 110
1, 72096, Note_on_c, 0, 60, 98
1, 72096, Note_on_c, 0, 55, 98
1, 72096, Note_on_c, 0, 48, 83
1, 72122, Control_c, 0, 64, 127
1, 72478, Note_on_c, 0, 48, 0
1, 72478, Note_on_c, 0, 52, 95
1, 72671, Note_on_c, 0, 76, 0
1, 72671, Note_on_c, 0, 72, 97
1, 72861, Note_on_c, 0, 72, 0
1, 72861, Note_on_c, 0, 67, 0
1, 72861, Note_on_c, 0, 64, 0
1, 72864, Note_on_c, 0, 62, 93
1, 72864, Note_on_c, 0, 67, 93
1, 72864, Note_on_c, 0, 74, 106
1, 72867, Note_on_c, 0, 60, 0
1, 72867, Note_on_c, 0, 52, 0
1, 72867, Note_on_c, 0, 55, 0
1, 72870, Control_c, 0, 64, 0
1, 72870, Note_on_c, 0, 59, 92
1, 72870, Note_on_c, 0, 55, 79
1, 72958, Note_on_c, 0, 62, 0
1, 72958, Note_on_c, 0, 74, 0
1, 72958, Note_on_c, 0, 67, 0
1, 72961, Note_on_c, 0, 59, 0
1, 72961, Note_on_c, 0, 55, 0
1, 73055, Note_on_c, 0, 67, 101
1, 73152, Note_on_c, 0, 67, 0
1, 73249, Note_on_c, 0, 67, 76
1, 73249, Note_on_c, 0, 62, 97
1, 73249, Note_on_c, 0, 74, 110
1, 73252, Note_on_c, 0, 50, 76
1, 73252, Note_on_c, 0, 47, 76
1, 73252, Note_on_c, 0, 59, 84
1, 73260, Control_c, 0, 64, 127
1, 73631, Note_on_c, 0, 59, 0
1, 73631, Note_on_c, 0, 47, 0
1, 73631, Note_on_c, 0, 46, 77
1, 73634, Note_on_c, 0, 58, 87
1, 73819, Note_on_c, 0, 74, 0
1, 73819, Note_on_c, 0, 62, 0
1, 73819, Note_on_c, 0, 61, 91
1, 73822, Note_on_c, 0, 73, 103
1, 74006, Note_on_c, 0, 73, 0
1, 74006, Note_on_c, 0, 67, 0
1, 74006, Note_on_c, 0, 61, 0
1, 74009, Note_on_c, 0, 60, 91
1, 74009, Note_on_c, 0, 66, 91
1, 74009, Note_on_c, 0, 72, 102
1, 74012, Note_on_c, 0, 50, 0
1, 74012, Note_on_c, 0, 58, 0
1, 74012, Note_on_c, 0, 46, 0
1, 74015, Note_on_c, 0, 45, 77
1, 74015, Note_on_c, 0, 51, 77
1, 74015, Note_on_c, 0, 57, 89
1, 74018, Control_c, 0, 64, 0
1, 74114, Control_c, 0, 64, 127
1, 74347, Control_c, 0, 64, 0
1, 74382, Note_on_c, 0, 60, 0
1, 74382, Note_on_c, 0, 72, 0
1, 74382, Note_on_c, 0, 66, 0
1, 74385, Note_on_c, 0, 59, 80
1, 74385, Note_on_c, 0, 65, 91
1, 74385, Note_on_c, 0, 71, 103
1, 74388, Note_on_c, 0, 45, 0
1, 74388, Note_on_c, 0, 57, 0
1, 74388, Note_on_c, 0, 51, 0
1, 74391, Note_on_c, 0, 44, 66
1, 74391, Note_on_c, 0, 50, 75
1, 74391, Note_on_c, 0, 56, 84
1, 74478, Note_on_c, 0, 59, 0
1, 74478, Note_on_c, 0, 71, 0
1, 74478, Note_on_c, 0, 65, 0
1, 74481, Note_on_c, 0, 44, 0
1, 74481, Note_on_c, 0, 50, 0
1, 74481, Note_on_c, 0, 56, 0
1, 74574, Note_on_c, 0, 68, 84
1, 74574, Note_on_c, 0, 65, 75
1, 74574, Note_on_c, 0, 71, 84
1, 74577, Note_on_c, 0, 77, 99
1, 74577, Note_on_c, 0, 50, 64
1, 74577, Note_on_c, 0, 59, 81
1, 74580, Note_on_c, 0, 56, 81
1, 74671, Note_on_c, 0, 77, 0
1, 74671, Note_on_c, 0, 65, 0
1, 74671, Note_on_c, 0, 68, 0
1, 74674, Note_on_c, 0, 71, 0
1, 74674, Note_on_c, 0, 59, 0
1, 74674, Note_on_c, 0, 56, 0
1, 74677, Note_on_c, 0, 50, 0
1, 74769, Note_on_c, 0, 64, 92
1, 74769, Note_on_c, 0, 69, 92
1, 74769, Note_on_c, 0, 76, 104
1, 74772, Note_on_c, 0, 48, 75
1, 74772, Note_on_c, 0, 60, 84
1, 74772, Note_on_c, 0, 57, 84
1, 74799, Control_c, 0, 64, 127
1, 74957, Note_on_c, 0, 76, 0
1, 74957, Note_on_c, 0, 64, 0
1, 74957, Note_on_c, 0, 69, 0
1, 74960, Note_on_c, 0, 69, 99
1, 75146, Note_on_c, 0, 69, 0
1, 75146, Note_on_c, 0, 62, 90
1, 75146, Note_on_c, 0, 67, 93
1, 75149, Note_on_c, 0, 57, 0
1, 75149, Note_on_c, 0, 60, 0
1, 75149, Note_on_c, 0, 74, 105
1, 75152, Note_on_c, 0, 48, 0
1, 75152, Control_c, 0, 64, 0
1, 75152, Note_on_c, 0, 50, 75
1, 75155, Note_on_c, 0, 55, 79
1, 75155, Note_on_c, 0, 59, 91
1, 75239, Note_on_c, 0, 62, 0
1, 75239, Note_on_c, 0, 74, 0
1, 75239, Note_on_c, 0, 67, 0
1, 75242, Note_on_c, 0, 50, 0
1, 75242, Note_on_c, 0, 55, 0
1, 75242, Note_on_c, 0, 59, 0
1, 75332, Note_on_c, 0, 55, 81
1, 75521, Note_on_c, 0, 55, 0
1, 75521, Note_on_c, 0, 62, 97
1, 75555, Control_c, 0, 64, 127
1, 75715, Note_on_c, 0, 71, 95
1, 75903, Note_on_c, 0, 71, 0
1, 75903, Note_on_c, 0, 60, 77
1, 75903, Note_on_c, 0, 66, 81
1, 75906, Note_on_c, 0, 69, 96
1, 75906, Note_on_c, 0, 50, 81
1, 76094, Note_on_c, 0, 69, 0
1, 76094, Note_on_c, 0, 71, 95
1, 76289, Note_on_c, 0, 71, 0
1, 76289, Note_on_c, 0, 66, 0
1, 76289, Note_on_c, 0, 60, 0
1, 76292, Note_on_c, 0, 50, 0
1, 76292, Note_on_c, 0, 59, 96
1, 76292, Note_on_c, 0, 67, 96
1, 76295, Control_c, 0, 64, 0
1, 76295, Note_on_c, 0, 55, 86
1, 76388, Note_on_c, 0, 55, 0
1, 76388, Note_on_c, 0, 67, 0
1, 76388, Note_on_c, 0, 59, 0
1, 76391, Note_on_c, 0, 62, 0
1, 76487, Note_on_c, 0, 67, 91
1, 76487, Note_on_c, 0, 71, 91
1, 76487, Note_on_c, 0, 74, 104
1, 76490, Note_on_c, 0, 55, 82
1, 76490, Note_on_c, 0, 59, 82
1, 76490, Note_on_c, 0, 62, 94
1, 76586, Note_on_c, 0, 74, 0
1, 76586, Note_on_c, 0, 67, 0
1, 76586, Note_on_c, 0, 71, 0
1, 76589, Note_on_c, 0, 55, 0
1, 76589, Note_on_c, 0, 59, 0
1, 76589, Note_on_c, 0, 62, 0
1, 76684, Note_on_c, 0, 67, 97
1, 76684, Note_on_c, 0, 71, 97
1, 76684, Note_on_c, 0, 79, 110
1, 76687, Note_on_c, 0, 64, 98
1, 76687, Note_on_c, 0, 59, 98
1, 76687, Note_on_c, 0, 52, 83
1, 76740, Control_c, 0, 64, 127
1, 77069, Note_on_c, 0, 52, 0
1, 77069, Note_on_c, 0, 55, 95
1, 77262, Note_on_c, 0, 79, 0
1, 77262, Note_on_c, 0, 76, 103
1, 77451, Note_on_c, 0, 76, 0
1, 77451, Note_on_c, 0, 71, 0
1, 77451, Note_on_c, 0, 67, 0
1, 77454, Note_on_c, 0, 66, 93
1, 77454, Note_on_c, 0, 71, 93
1, 77454, Note_on_c, 0, 78, 106
1, 77457, Note_on_c, 0, 64, 0
1, 77457, Note_on_c, 0, 55, 0
1, 77457, Note_on_c, 0, 59, 0
1, 77460, Note_on_c, 0, 62, 92
1, 77460, Note_on_c, 0, 59, 79
1, 77460, Control_c, 0, 64, 0
1, 77548, Note_on_c, 0, 66, 0
1, 77548, Note_on_c, 0, 78, 0
1, 77548, Note_on_c, 0, 71, 0
1, 77551, Note_on_c, 0, 62, 0
1, 77551, Note_on_c, 0, 59, 0
1, 77645, Note_on_c, 0, 66, 87
1, 77645, Note_on_c, 0, 71, 101
1, 77645, Note_on_c, 0, 50, 75
1, 77648, Note_on_c, 0, 54, 75
1, 77648, Note_on_c, 0, 59, 83
1, 77742, Note_on_c, 0, 59, 0
1, 77742, Note_on_c, 0, 66, 0
1, 77742, Note_on_c, 0, 71, 0
1, 77745, Note_on_c, 0, 50, 0
1, 77745, Note_on_c, 0, 54, 0
1, 77839, Note_on_c, 0, 64, 97
1, 77839, Note_on_c, 0, 67, 97
1, 77839, Note_on_c, 0, 76, 110
1, 77842, Note_on_c, 0, 60, 98
1, 77842, Note_on_c, 0, 55, 98
1, 77842, Note_on_c, 0, 48, 83
1, 77867, Control_c, 0, 64, 127
1, 78224, Note_on_c, 0, 48, 0
1, 78224, Note_on_c, 0, 52, 95
1, 78416, Note_on_c, 0, 76, 0
1, 78416, Note_on_c, 0, 72, 98
1, 78606, Note_on_c, 0, 72, 0
1, 78606, Note_on_c, 0, 67, 0
1, 78606, Note_on_c, 0, 64, 0
1, 78609, Note_on_c, 0, 62, 93
1, 78609, Note_on_c, 0, 67, 93
1, 78609, Note_on_c, 0, 74, 106
1, 78612, Note_on_c, 0, 60, 0
1, 78612, Note_on_c, 0, 52, 0
1, 78612, Note_on_c, 0, 55, 0
1, 78615, Note_on_c, 0, 59, 92
1, 78615, Note_on_c, 0, 55, 79
1, 78623, Control_c, 0, 64, 0
1, 78703, Note_on_c, 0, 62, 0
1, 78703, Note_on_c, 0, 74, 0
1, 78703, Note_on_c, 0, 67, 0
1, 78706, Note_on_c, 0, 59, 0
1, 78706, Note_on_c, 0, 55, 0
1, 78800, Note_on_c, 0, 67, 101
1, 78897, Note_on_c, 0, 67, 0
1, 78994, Note_on_c, 0, 67, 76
1, 78994, Note_on_c, 0, 62, 97
1, 78994, Note_on_c, 0, 74, 110
1, 78997, Note_on_c, 0, 50, 76
1, 78997, Note_on_c, 0, 47, 76
1, 78997, Note_on_c, 0, 59, 84
1, 79017, Control_c, 0, 64, 127
1, 79378, Note_on_c, 0, 59, 0
1, 79378, Note_on_c, 0, 47, 0
1, 79378, Note_on_c, 0, 46, 70
1, 79381, Note_on_c, 0, 58, 80
1, 79571, Note_on_c, 0, 74, 0
1, 79571, Note_on_c, 0, 62, 0
1, 79571, Note_on_c, 0, 61, 91
1, 79574, Note_on_c, 0, 73, 103
1, 79761, Note_on_c, 0, 73, 0
1, 79761, Note_on_c, 0, 67, 0
1, 79761, Note_on_c, 0, 61, 0
1, 79764, Note_on_c, 0, 70, 82
1, 79764, Note_on_c, 0, 64, 100
1, 79764, Note_on_c, 0, 76, 115
1, 79767, Note_on_c, 0, 50, 0
1, 79767, Note_on_c, 0, 58, 0
1, 79767, Note_on_c, 0, 46, 0
1, 79770, Note_on_c, 0, 55, 78
1, 79770, Note_on_c, 0, 49, 78
1, 79770, Note_on_c, 0, 61, 89
1, 79770, Control_c, 0, 64, 0
1, 79898, Control_c, 0, 64, 127
1, 80140, Note_on_c, 0, 61, 0
1, 80140, Note_on_c, 0, 70, 0
1, 80140, Note_on_c, 0, 69, 93
1, 80143, Note_on_c, 0, 55, 0
1, 80143, Note_on_c, 0, 49, 0
1, 80143, Note_on_c, 0, 54, 68
1, 80146, Note_on_c, 0, 48, 69
1, 80146, Note_on_c, 0, 60, 79
1, 80331, Note_on_c, 0, 76, 0
1, 80331, Note_on_c, 0, 64, 0
1, 80331, Note_on_c, 0, 63, 90
1, 80334, Note_on_c, 0, 75, 102
1, 80518, Note_on_c, 0, 75, 0
1, 80518, Note_on_c, 0, 69, 0
1, 80518, Note_on_c, 0, 63, 0
1, 80521, Note_on_c, 0, 72, 91
1, 80521, Note_on_c, 0, 66, 104
1, 80521, Note_on_c, 0, 78, 120
1, 80524, Note_on_c, 0, 54, 0
1, 80524, Note_on_c, 0, 60, 0
1, 80524, Note_on_c, 0, 48, 0
1, 80527, Note_on_c, 0, 57, 81
1, 80527, Note_on_c, 0, 51, 81
1, 80527, Note_on_c, 0, 63, 92
1, 80534, Control_c, 0, 64, 0
1, 80672, Control_c, 0, 64, 127
1, 80896, Note_on_c, 0, 63, 0
1, 80896, Note_on_c, 0, 72, 0
1, 80896, Note_on_c, 0, 69, 94
1, 80899, Note_on_c, 0, 57, 0
1, 80899, Note_on_c, 0, 51, 0
1, 80899, Note_on_c, 0, 56, 70
1, 80902, Note_on_c, 0, 50, 71
1, 80902, Note_on_c, 0, 62, 81
1, 81087, Note_on_c, 0, 78, 0
1, 81087, Note_on_c, 0, 66, 0
1, 81087, Note_on_c, 0, 65, 93
1, 81090, Note_on_c, 0, 77, 104
1, 81273, Note_on_c, 0, 77, 0
1, 81273, Note_on_c, 0, 69, 0
1, 81273, Note_on_c, 0, 65, 0
1, 81276, Note_on_c, 0, 74, 92
1, 81276, Note_on_c, 0, 68, 106
1, 81276, Note_on_c, 0, 80, 124
1, 81279, Note_on_c, 0, 56, 0
1, 81279, Note_on_c, 0, 62, 0
1, 81279, Note_on_c, 0, 50, 0
1, 81282, Note_on_c, 0, 59, 83
1, 81282, Note_on_c, 0, 53, 83
1, 81282, Note_on_c, 0, 65, 95
1, 81285, Control_c, 0, 64, 0
1, 81481, Control_c, 0, 64, 127
1, 81649, Note_on_c, 0, 65, 0
1, 81649, Note_on_c, 0, 74, 0
1, 81649, Note_on_c, 0, 73, 100
1, 81652, Note_on_c, 0, 59, 0
1, 81652, Note_on_c, 0, 53, 0
1, 81652, Note_on_c, 0, 58, 76
1, 81655, Note_on_c, 0, 52, 78
1, 81655, Note_on_c, 0, 64, 89
1, 81841, Note_on_c, 0, 80, 0
1, 81841, Note_on_c, 0, 68, 0
1, 81841, Note_on_c, 0, 67, 101
1, 81844, Note_on_c, 0, 79, 115
1, 81888, Control_c, 0, 64, 0
1, 81973, Note_on_c, 0, 79, 0
1, 81973, Note_on_c, 0, 64, 0
1, 81973, Note_on_c, 0, 67, 0
1, 81976, Note_on_c, 0, 58, 0
1, 81976, Note_on_c, 0, 52, 0
1, 81976, Note_on_c, 0, 55, 70
1, 81982, Note_on_c, 0, 58, 73
1, 81990, Note_on_c, 0, 61, 75
1, 81998, Note_on_c, 0, 64, 77
1, 82006, Note_on_c, 0, 67, 79
1, 82015, Note_on_c, 0, 70, 94
1, 82023, Note_on_c, 0, 73, 97
1, 82031, Note_on_c, 0, 76, 99
1, 82040, Note_on_c, 0, 73, 0
1, 82040, Note_on_c, 0, 82, 119
1, 82066, Control_c, 0, 64, 127
1, 82173, Note_on_c, 0, 82, 0
1, 82173, Note_on_c, 0, 76, 0
1, 82173, Note_on_c, 0, 73, 0
1, 82176, Note_on_c, 0, 67, 0
1, 82176, Note_on_c, 0, 61, 0
1, 82176, Note_on_c, 0, 70, 0
1, 82179, Note_on_c, 0, 55, 0
1, 82179, Note_on_c, 0, 64, 0
1, 82179, Note_on_c, 0, 58, 0
1, 82182, Note_on_c, 0, 58, 68
1, 82182, Note_on_c, 0, 61, 71
1, 82189, Note_on_c, 0, 64, 72
1, 82198, Note_on_c, 0, 67, 76
1, 82206, Note_on_c, 0, 70, 78
1, 82214, Note_on_c, 0, 73, 94
1, 82223, Note_on_c, 0, 76, 98
1, 82231, Note_on_c, 0, 79, 100
1, 82239, Note_on_c, 0, 85, 114
1, 82372, Note_on_c, 0, 85, 0
1, 82372, Note_on_c, 0, 76, 0
1, 82372, Note_on_c, 0, 73, 0
1, 82375, Note_on_c, 0, 64, 0
1, 82375, Note_on_c, 0, 79, 0
1, 82375, Note_on_c, 0, 70, 0
1, 82378, Note_on_c, 0, 58, 0
1, 82378, Note_on_c, 0, 67, 0
1, 82378, Note_on_c, 0, 61, 0
1, 82381, Note_on_c, 0, 61, 72
1, 82381, Note_on_c, 0, 64, 76
1, 82389, Note_on_c, 0, 67, 76
1, 82397, Note_on_c, 0, 70, 79
1, 82405, Note_on_c, 0, 73, 80
1, 82414, Note_on_c, 0, 76, 95
1, 82422, Note_on_c, 0, 79, 100
1, 82430, Note_on_c, 0, 82, 102
1, 82439, Note_on_c, 0, 88, 119
1, 82572, Note_on_c, 0, 88, 0
1, 82572, Note_on_c, 0, 79, 0
1, 82572, Note_on_c, 0, 76, 0
1, 82575, Note_on_c, 0, 67, 0
1, 82575, Note_on_c, 0, 82, 0
1, 82575, Note_on_c, 0, 73, 0
1, 82578, Note_on_c, 0, 61, 0
1, 82578, Note_on_c, 0, 70, 0
1, 82578, Note_on_c, 0, 64, 0
1, 82581, Note_on_c, 0, 64, 70
1, 82581, Note_on_c, 0, 67, 72
1, 82588, Note_on_c, 0, 70, 73
1, 82597, Note_on_c, 0, 73, 76
1, 82605, Note_on_c, 0, 76, 78
1, 82613, Note_on_c, 0, 79, 94
1, 82621, Note_on_c, 0, 82, 98
1, 82630, Note_on_c, 0, 85, 100
1, 82638, Note_on_c, 0, 91, 115
1, 82771, Note_on_c, 0, 91, 0
1, 82771, Note_on_c, 0, 82, 0
1, 82771, Note_on_c, 0, 79, 0
1, 82774, Note_on_c, 0, 70, 0
1, 82774, Note_on_c, 0, 85, 0
1, 82774, Note_on_c, 0, 76, 0
1, 82777, Note_on_c, 0, 64, 0
1, 82777, Note_on_c, 0, 73, 0
1, 82777, Note_on_c, 0, 67, 0
1, 82780, Note_on_c, 0, 67, 73
1, 82780, Note_on_c, 0, 70, 75
1, 82788, Note_on_c, 0, 73, 76
1, 82796, Note_on_c, 0, 76, 78
1, 82804, Note_on_c, 0, 79, 79
1, 82813, Note_on_c, 0, 82, 99
1, 82821, Note_on_c, 0, 85, 102
1, 82829, Note_on_c, 0, 88, 104
1, 82837, Note_on_c, 0, 94, 119
1, 82973, Note_on_c, 0, 94, 0
1, 82973, Note_on_c, 0, 85, 0
1, 82973, Note_on_c, 0, 82, 0
1, 82976, Note_on_c, 0, 73, 0
1, 82976, Note_on_c, 0, 88, 0
1, 82976, Note_on_c, 0, 79, 0
1, 82979, Note_on_c, 0, 67, 0
1, 82979, Note_on_c, 0, 76, 0
1, 82979, Note_on_c, 0, 70, 0
1, 82982, Note_on_c, 0, 70, 71
1, 82982, Note_on_c, 0, 73, 73
1, 82990, Note_on_c, 0, 76, 73
1, 82999, Note_on_c, 0, 79, 76
1, 83007, Note_on_c, 0, 82, 77
1, 83016, Note_on_c, 0, 85, 95
1, 83025, Note_on_c, 0, 88, 99
1, 83033, Note_on_c, 0, 91, 101
1, 83042, Note_on_c, 0, 97, 114
1, 83185, Note_on_c, 0, 97, 0
1, 83185, Note_on_c, 0, 88, 0
1, 83185, Note_on_c, 0, 85, 0
1, 83188, Note_on_c, 0, 76, 0
1, 83188, Note_on_c, 0, 91, 0
1, 83188, Note_on_c, 0, 82, 0
1, 83191, Note_on_c, 0, 70, 0
1, 83191, Note_on_c, 0, 79, 0
1, 83191, Note_on_c, 0, 73, 0
1, 83194, Note_on_c, 0, 73, 71
1, 83194, Note_on_c, 0, 76, 73
1, 83204, Note_on_c, 0, 79, 75
1, 83214, Note_on_c, 0, 82, 78
1, 83224, Note_on_c, 0, 85, 79
1, 83233, Note_on_c, 0, 88, 98
1, 83243, Note_on_c, 0, 91, 103
1, 83253, Note_on_c, 0, 94, 106
1, 83262, Note_on_c, 0, 100, 121
1, 83648, Note_on_c, 0, 100, 0
1, 83648, Note_on_c, 0, 91, 0
1, 83648, Note_on_c, 0, 88, 0
1, 83651, Note_on_c, 0, 79, 0
1, 83651, Note_on_c, 0, 94, 0
1, 83651, Note_on_c, 0, 85, 0
1, 83654, Note_on_c, 0, 73, 0
1, 83654, Note_on_c, 0, 82, 0
1, 83654, Note_on_c, 0, 76, 0
1, 83657, Note_on_c, 0, 76, 70
1, 83657, Note_on_c, 0, 79, 73
1, 83669, Note_on_c, 0, 82, 75
1, 83679, Note_on_c, 0, 85, 77
1, 83690, Note_on_c, 0, 88, 79
1, 83700, Note_on_c, 0, 91, 98
1, 83711, Note_on_c, 0, 94, 102
1, 83722, Note_on_c, 0, 97, 105
1, 83732, Note_on_c, 0, 103, 119
1, 84116, Control_c, 0, 64, 0
1, 84155, Note_on_c, 0, 103, 0
1, 84155, Note_on_c, 0, 94, 0
1, 84155, Note_on_c, 0, 91, 0
1, 84158, Note_on_c, 0, 82, 0
1, 84158, Note_on_c, 0, 97, 0
1, 84158, Note_on_c, 0, 88, 0
1, 84161, Note_on_c, 0, 76, 0
1, 84161, Note_on_c, 0, 85, 0
1, 84161, Note_on_c, 0, 79, 0
1, 84995, Note_on_c, 0, 52, 92
1, 85114, Note_on_c, 0, 52, 0
1, 85233, Note_on_c, 0, 49, 91
1, 85355, Note_on_c, 0, 49, 0
1, 85476, Note_on_c, 0, 46, 90
1, 85598, Note_on_c, 0, 46, 0
1, 85720, Note_on_c, 0, 45, 94
1, 86220, Note_on_c, 0, 45, 0
1, 86220, Note_on_c, 0, 43, 92
1, 86721, Note_on_c, 0, 43, 0
1, 86721, Note_on_c, 0, 42, 91
1, 86799, Control_c, 0, 64, 127
1, 87267, Note_on_c, 0, 74, 82
1, 87267, Note_on_c, 0, 72, 82
1, 87267, Note_on_c, 0, 69, 82
1, 87270, Note_on_c, 0, 62, 82
1, 87270, Note_on_c, 0, 57, 71
1, 87270, Note_on_c, 0, 50, 71
1, 87945, Control_c, 0, 64, 0
1, 88271, Note_on_c, 0, 62, 0
1, 88271, Note_on_c, 0, 72, 0
1, 88271, Note_on_c, 0, 74, 0
1, 88274, Note_on_c, 0, 69, 0
1, 88274, Note_on_c, 0, 50, 0
1, 88274, Note_on_c, 0, 62, 73
1, 88277, Note_on_c, 0, 57, 0
1, 88277, Note_on_c, 0, 42, 0
1, 88512, Note_on_c, 0, 62, 0
1, 88512, Note_on_c, 0, 64, 74
1, 88749, Note_on_c, 0, 64, 0
1, 88749, Note_on_c, 0, 66, 76
1, 88983, Note_on_c, 0, 66, 0
1, 88983, Note_on_c, 0, 67, 77
1, 88983, Control_c, 0, 64, 0
1, 88986, Note_on_c, 0, 43, 60
1, 89093, Control_c, 0, 64, 127
1, 89215, Note_on_c, 0, 67, 0
1, 89215, Note_on_c, 0, 69, 79
1, 89440, Note_on_c, 0, 69, 0
1, 89440, Note_on_c, 0, 43, 0
1, 89440, Note_on_c, 0, 70, 81
1, 89443, Note_on_c, 0, 50, 57
1, 89672, Note_on_c, 0, 70, 0
1, 89672, Note_on_c, 0, 72, 83
1, 89904, Note_on_c, 0, 72, 0
1, 89904, Note_on_c, 0, 50, 0
1, 89904, Note_on_c, 0, 74, 85
1, 89907, Note_on_c, 0, 62, 60
1, 89907, Note_on_c, 0, 58, 54
1, 89907, Note_on_c, 0, 55, 54
1, 89916, Control_c, 0, 64, 0
1, 89987, Control_c, 0, 64, 127
1, 90139, Note_on_c, 0, 55, 0
1, 90139, Note_on_c, 0, 74, 0
1, 90139, Note_on_c, 0, 79, 88
1, 90142, Note_on_c, 0, 58, 0
1, 90142, Note_on_c, 0, 62, 0
1, 90142, Note_on_c, 0, 58, 69
1, 90368, Note_on_c, 0, 58, 0
1, 90368, Note_on_c, 0, 79, 0
1, 90368, Note_on_c, 0, 78, 86
1, 90371, Note_on_c, 0, 57, 70
1, 90604, Note_on_c, 0, 57, 0
1, 90604, Note_on_c, 0, 78, 0
1, 90604, Note_on_c, 0, 79, 84
1, 90607, Note_on_c, 0, 55, 68
1, 90843, Note_on_c, 0, 55, 0
1, 90843, Note_on_c, 0, 79, 0
1, 90843, Note_on_c, 0, 74, 73
1, 90846, Note_on_c, 0, 54, 63
1, 90846, Note_on_c, 0, 50, 56
1, 90846, Note_on_c, 0, 46, 56
1, 90862, Control_c, 0, 64, 0
1, 91070, Note_on_c, 0, 54, 0
1, 91070, Control_c, 0, 64, 127
1, 91070, Note_on_c, 0, 55, 68
1, 91301, Note_on_c, 0, 55, 0
1, 91301, Note_on_c, 0, 46, 0
1, 91301, Note_on_c, 0, 50, 0
1, 91304, Note_on_c, 0, 58, 72
1, 91528, Note_on_c, 0, 58, 0
1, 91528, Note_on_c, 0, 60, 68
1, 91761, Note_on_c, 0, 60, 0
1, 91761, Note_on_c, 0, 74, 0
1, 91761, Note_on_c, 0, 62, 72
1, 91776, Control_c, 0, 64, 0
1, 91882, Control_c, 0, 64, 127
1, 91989, Note_on_c, 0, 62, 0
1, 91989, Note_on_c, 0, 74, 76
1, 92221, Note_on_c, 0, 74, 0
1, 92221, Note_on_c, 0, 63, 51
1, 92221, Note_on_c, 0, 67, 51
1, 92224, Note_on_c, 0, 69, 79
1, 92224, Note_on_c, 0, 48, 55
1, 92457, Note_on_c, 0, 69, 0
1, 92457, Note_on_c, 0, 72, 71
1, 92697, Note_on_c, 0, 72, 0
1, 92697, Note_on_c, 0, 63, 0
1, 92697, Note_on_c, 0, 67, 0
1, 92700, Note_on_c, 0, 62, 65
1, 92700, Note_on_c, 0, 67, 65
1, 92700, Note_on_c, 0, 70, 73
1, 92703, Note_on_c, 0, 48, 0
1, 92703, Note_on_c, 0, 50, 62
1, 92716, Control_c, 0, 64, 0
1, 92838, Control_c, 0, 64, 127
1, 92923, Note_on_c, 0, 62, 0
1, 92923, Note_on_c, 0, 70, 0
1, 92923, Note_on_c, 0, 67, 0
1, 92926, Note_on_c, 0, 50, 0
1, 92926, Note_on_c, 0, 63, 70
1, 93154, Note_on_c, 0, 63, 0
1, 93154, Note_on_c, 0, 58, 51
1, 93154, Note_on_c, 0, 55, 51
1, 93157, Note_on_c, 0, 61, 70
1, 93388, Note_on_c, 0, 61, 0
1, 93388, Note_on_c, 0, 55, 0
1, 93388, Note_on_c, 0, 58, 0
1, 93391, Note_on_c, 0, 63, 59
1, 93624, Note_on_c, 0, 63, 0
1, 93624, Note_on_c, 0, 55, 54
1, 93624, Note_on_c, 0, 58, 54
1, 93627, Note_on_c, 0, 62, 60
1, 93633, Control_c, 0, 64, 0
1, 93760, Control_c, 0, 64, 127
1, 93856, Note_on_c, 0, 62, 0
1, 93856, Note_on_c, 0, 58, 0
1, 93856, Note_on_c, 0, 70, 73
1, 93859, Note_on_c, 0, 55, 0
1, 94090, Note_on_c, 0, 70, 0
1, 94090, Note_on_c, 0, 60, 66
1, 94090, Note_on_c, 0, 66, 77
1, 94093, Note_on_c, 0, 50, 62
1, 94326, Note_on_c, 0, 66, 0
1, 94326, Note_on_c, 0, 69, 69
1, 94562, Note_on_c, 0, 69, 0
1, 94562, Note_on_c, 0, 60, 0
1, 94562, Note_on_c, 0, 58, 67
1, 94565, Note_on_c, 0, 50, 0
1, 94565, Note_on_c, 0, 67, 73
1, 94565, Note_on_c, 0, 43, 66
1, 94573, Control_c, 0, 64, 0
1, 94670, Control_c, 0, 64, 127
1, 94788, Note_on_c, 0, 51, 62
1, 95020, Note_on_c, 0, 51, 0
1, 95020, Note_on_c, 0, 49, 64
1, 95257, Note_on_c, 0, 49, 0
1, 95257, Note_on_c, 0, 51, 52
1, 95494, Note_on_c, 0, 51, 0
1, 95494, Note_on_c, 0, 58, 0
1, 95494, Note_on_c, 0, 67, 0
1, 95497, Note_on_c, 0, 50, 55
1, 95514, Control_c, 0, 64, 0
1, 95674, Control_c, 0, 64, 127
1, 95730, Note_on_c, 0, 62, 72
1, 95959, Note_on_c, 0, 62, 0
1, 95959, Note_on_c, 0, 60, 68
1, 95959, Note_on_c, 0, 64, 74
1, 96189, Note_on_c, 0, 64, 0
1, 96189, Note_on_c, 0, 66, 75
1, 96418, Note_on_c, 0, 66, 0
1, 96418, Note_on_c, 0, 60, 0
1, 96418, Note_on_c, 0, 58, 71
1, 96421, Note_on_c, 0, 50, 0
1, 96421, Note_on_c, 0, 43, 0
1, 96421, Note_on_c, 0, 67, 77
1, 96424, Note_on_c, 0, 43, 60
1, 96434, Control_c, 0, 64, 0
1, 96528, Control_c, 0, 64, 127
1, 96649, Note_on_c, 0, 67, 0
1, 96649, Note_on_c, 0, 58, 0
1, 96649, Note_on_c, 0, 69, 79
1, 96874, Note_on_c, 0, 69, 0
1, 96874, Note_on_c, 0, 43, 0
1, 96874, Note_on_c, 0, 70, 81
1, 96877, Note_on_c, 0, 50, 57
1, 97102, Note_on_c, 0, 70, 0
1, 97102, Note_on_c, 0, 72, 83
1, 97330, Note_on_c, 0, 72, 0
1, 97330, Note_on_c, 0, 50, 0
1, 97330, Note_on_c, 0, 74, 88
1, 97333, Note_on_c, 0, 62, 60
1, 97333, Note_on_c, 0, 58, 54
1, 97333, Note_on_c, 0, 55, 54
1, 97350, Control_c, 0, 64, 0
1, 97444, Control_c, 0, 64, 127
1, 97572, Note_on_c, 0, 55, 0
1, 97572, Note_on_c, 0, 74, 0
1, 97572, Note_on_c, 0, 79, 83
1, 97575, Note_on_c, 0, 58, 0
1, 97575, Note_on_c, 0, 62, 0
1, 97575, Note_on_c, 0, 58, 70
1, 97790, Note_on_c, 0, 79, 0
1, 97790, Note_on_c, 0, 75, 60
1, 97790, Note_on_c, 0, 72, 56
1, 97793, Note_on_c, 0, 58, 0
1, 97793, Note_on_c, 0, 65, 53
1, 97793, Note_on_c, 0, 77, 81
1, 97796, Note_on_c, 0, 57, 73
1, 98014, Note_on_c, 0, 57, 0
1, 98014, Note_on_c, 0, 77, 0
1, 98014, Note_on_c, 0, 79, 79
1, 98017, Note_on_c, 0, 55, 69
1, 98255, Note_on_c, 0, 79, 0
1, 98255, Note_on_c, 0, 65, 0
1, 98255, Note_on_c, 0, 72, 0
1, 98258, Note_on_c, 0, 75, 0
1, 98258, Note_on_c, 0, 65, 66
1, 98258, Note_on_c, 0, 70, 66
1, 98261, Note_on_c, 0, 55, 0
1, 98261, Note_on_c, 0, 74, 75
1, 98261, Note_on_c, 0, 53, 58
1, 98264, Note_on_c, 0, 46, 64
1, 98272, Control_c, 0, 64, 0
1, 98401, Control_c, 0, 64, 127
1, 98474, Note_on_c, 0, 53, 0
1, 98474, Note_on_c, 0, 55, 69
1, 98697, Note_on_c, 0, 55, 0
1, 98697, Note_on_c, 0, 46, 0
1, 98697, Note_on_c, 0, 58, 72
1, 98924, Note_on_c, 0, 58, 0
1, 98924, Note_on_c, 0, 62, 69
1, 99155, Note_on_c, 0, 62, 0
1, 99155, Note_on_c, 0, 65, 0
1, 99155, Note_on_c, 0, 70, 0
1, 99155, Note_on_c, 0, 74, 0
1, 99155, Note_on_c, 0, 65, 72
1, 99177, Control_c, 0, 64, 0
1, 99278, Control_c, 0, 64, 127
1, 99385, Note_on_c, 0, 65, 0
1, 99385, Note_on_c, 0, 77, 80
1, 99617, Note_on_c, 0, 77, 0
1, 99617, Note_on_c, 0, 63, 70
1, 99617, Note_on_c, 0, 70, 70
1, 99620, Note_on_c, 0, 74, 70
1, 99620, Note_on_c, 0, 75, 83
1, 99620, Note_on_c, 0, 43, 61
1, 99853, Note_on_c, 0, 75, 0
1, 99853, Note_on_c, 0, 77, 78
1, 100093, Note_on_c, 0, 77, 0
1, 100093, Note_on_c, 0, 74, 0
1, 100093, Note_on_c, 0, 70, 0
1, 100096, Note_on_c, 0, 63, 0
1, 100096, Note_on_c, 0, 63, 70
1, 100096, Note_on_c, 0, 69, 70
1, 100099, Note_on_c, 0, 43, 0
1, 100099, Note_on_c, 0, 72, 80
1, 100099, Note_on_c, 0, 45, 64
1, 100108, Control_c, 0, 64, 0
1, 100241, Control_c, 0, 64, 127
1, 100315, Note_on_c, 0, 55, 64
1, 100545, Note_on_c, 0, 55, 0
1, 100545, Note_on_c, 0, 45, 0
1, 100545, Note_on_c, 0, 57, 68
1, 100769, Note_on_c, 0, 57, 0
1, 100769, Note_on_c, 0, 60, 65
1, 101000, Note_on_c, 0, 60, 0
1, 101000, Note_on_c, 0, 63, 0
1, 101000, Note_on_c, 0, 69, 0
1, 101000, Note_on_c, 0, 72, 0
1, 101000, Note_on_c, 0, 63, 61
1, 101021, Control_c, 0, 64, 0
1, 101149, Control_c, 0, 64, 127
1, 101230, Note_on_c, 0, 63, 0
1, 101230, Note_on_c, 0, 75, 75
1, 101461, Note_on_c, 0, 75, 0
1, 101461, Note_on_c, 0, 62, 57
1, 101461, Note_on_c, 0, 69, 57
1, 101464, Note_on_c, 0, 72, 58
1, 101464, Note_on_c, 0, 74, 76
1, 101464, Note_on_c, 0, 42, 56
1, 101697, Note_on_c, 0, 74, 0
1, 101697, Note_on_c, 0, 75, 70
1, 101937, Note_on_c, 0, 75, 0
1, 101937, Note_on_c, 0, 72, 0
1, 101937, Note_on_c, 0, 69, 0
1, 101940, Note_on_c, 0, 62, 0
1, 101940, Note_on_c, 0, 62, 67
1, 101940, Note_on_c, 0, 67, 67
1, 101943, Note_on_c, 0, 42, 0
1, 101943, Note_on_c, 0, 70, 76
1, 101943, Note_on_c, 0, 43, 62
1, 101958, Control_c, 0, 64, 0
1, 102091, Control_c, 0, 64, 127
1, 102175, Note_on_c, 0, 50, 57
1, 102403, Note_on_c, 0, 70, 0
1, 102403, Note_on_c, 0, 62, 0
1, 102403, Note_on_c, 0, 67, 0
1, 102406, Note_on_c, 0, 43, 0
1, 102406, Note_on_c, 0, 50, 0
1, 102406, Note_on_c, 0, 55, 63
1, 102635, Note_on_c, 0, 55, 0
1, 102635, Note_on_c, 0, 58, 59
1, 102872, Note_on_c, 0, 58, 0
1, 102872, Note_on_c, 0, 62, 58
1, 102891, Control_c, 0, 64, 0
1, 103075, Control_c, 0, 64, 127
1, 103102, Note_on_c, 0, 62, 0
1, 103102, Note_on_c, 0, 74, 77
1, 103338, Note_on_c, 0, 74, 0
1, 103338, Note_on_c, 0, 63, 57
1, 103338, Note_on_c, 0, 69, 57
1, 103341, Note_on_c, 0, 72, 79
1, 103341, Note_on_c, 0, 48, 56
1, 103571, Note_on_c, 0, 72, 0
1, 103571, Note_on_c, 0, 74, 75
1, 103809, Note_on_c, 0, 74, 0
1, 103809, Note_on_c, 0, 63, 0
1, 103809, Note_on_c, 0, 69, 0
1, 103812, Note_on_c, 0, 62, 57
1, 103812, Note_on_c, 0, 67, 57
1, 103812, Note_on_c, 0, 72, 78
1, 103815, Note_on_c, 0, 48, 0
1, 103815, Note_on_c, 0, 50, 62
1, 103819, Control_c, 0, 64, 0
1, 103920, Control_c, 0, 64, 127
1, 104044, Note_on_c, 0, 72, 0
1, 104044, Note_on_c, 0, 70, 74
1, 104280, Note_on_c, 0, 70, 0
1, 104280, Note_on_c, 0, 62, 0
1, 104280, Note_on_c, 0, 67, 0
1, 104280, Note_on_c, 0, 58, 54
1, 104280, Note_on_c, 0, 69, 73
1, 104280, Note_on_c, 0, 62, 54
1, 104522, Note_on_c, 0, 69, 0
1, 104522, Note_on_c, 0, 67, 72
1, 104768, Note_on_c, 0, 67, 0
1, 104768, Note_on_c, 0, 58, 0
1, 104768, Note_on_c, 0, 64, 57
1, 104771, Note_on_c, 0, 62, 0
1, 104771, Note_on_c, 0, 70, 75
1, 104771, Note_on_c, 0, 61, 53
1, 104780, Control_c, 0, 64, 0
1, 104869, Control_c, 0, 64, 127
1, 105259, Note_on_c, 0, 64, 0
1, 105259, Note_on_c, 0, 63, 51
1, 105259, Note_on_c, 0, 66, 54
1, 105262, Note_on_c, 0, 61, 0
1, 105262, Note_on_c, 0, 60, 52
1, 105504, Note_on_c, 0, 70, 0
1, 105504, Note_on_c, 0, 69, 62
1, 105764, Note_on_c, 0, 69, 0
1, 105764, Note_on_c, 0, 66, 0
1, 105764, Note_on_c, 0, 63, 0
1, 105767, Note_on_c, 0, 50, 0
1, 105767, Note_on_c, 0, 62, 63
1, 105767, Note_on_c, 0, 67, 71
1, 105770, Note_on_c, 0, 55, 50
1, 105784, Control_c, 0, 64, 0
1, 105920, Control_c, 0, 64, 127
1, 106006, Note_on_c, 0, 60, 0
1, 106006, Note_on_c, 0, 58, 56
1, 106252, Note_on_c, 0, 58, 0
1, 106252, Note_on_c, 0, 62, 0
1, 106252, Note_on_c, 0, 67, 0
1, 106255, Note_on_c, 0, 55, 0
1, 106255, Note_on_c, 0, 55, 57
1, 106499, Note_on_c, 0, 55, 0
1, 106499, Note_on_c, 0, 50, 56
1, 106746, Note_on_c, 0, 50, 0
1, 106746, Note_on_c, 0, 43, 56
1, 106993, Note_on_c, 0, 67, 88
1, 107141, Control_c, 0, 64, 0
1, 107222, Note_on_c, 0, 67, 0
1, 107222, Note_on_c, 0, 43, 0
1, 107222, Note_on_c, 0, 69, 89
1, 107248, Control_c, 0, 64, 127
1, 107444, Note_on_c, 0, 69, 0
1, 107444, Note_on_c, 0, 70, 89
1, 107671, Note_on_c, 0, 70, 0
1, 107671, Note_on_c, 0, 72, 89
1, 107671, Note_on_c, 0, 51, 72
1, 107683, Control_c, 0, 64, 0
1, 107793, Control_c, 0, 64, 127
1, 107902, Note_on_c, 0, 72, 0
1, 107902, Note_on_c, 0, 74, 90
1, 108123, Note_on_c, 0, 74, 0
1, 108123, Note_on_c, 0, 51, 0
1, 108123, Note_on_c, 0, 75, 92
1, 108126, Note_on_c, 0, 65, 69
1, 108348, Note_on_c, 0, 75, 0
1, 108348, Note_on_c, 0, 77, 94
1, 108577, Note_on_c, 0, 77, 0
1, 108577, Note_on_c, 0, 65, 0
1, 108577, Note_on_c, 0, 79, 95
1, 108580, Note_on_c, 0, 60, 72
1, 108580, Note_on_c, 0, 57, 64
1, 108580, Note_on_c, 0, 53, 64
1, 108598, Control_c, 0, 64, 0
1, 108800, Note_on_c, 0, 79, 0
1, 108800, Note_on_c, 0, 81, 92
1, 108813, Control_c, 0, 64, 127
1, 109023, Note_on_c, 0, 81, 0
1, 109023, Note_on_c, 0, 82, 99
1, 109252, Note_on_c, 0, 82, 0
1, 109252, Note_on_c, 0, 84, 97
1, 109489, Note_on_c, 0, 84, 0
1, 109489, Note_on_c, 0, 53, 0
1, 109489, Note_on_c, 0, 77, 95
1, 109492, Note_on_c, 0, 57, 0
1, 109492, Note_on_c, 0, 60, 0
1, 109492, Note_on_c, 0, 50, 87
1, 109499, Control_c, 0, 64, 0
1, 109623, Control_c, 0, 64, 127
1, 109718, Note_on_c, 0, 53, 80
1, 109937, Note_on_c, 0, 53, 0
1, 109937, Note_on_c, 0, 50, 0
1, 109937, Note_on_c, 0, 58, 83
1, 110155, Note_on_c, 0, 58, 0
1, 110155, Note_on_c, 0, 62, 79
1, 110381, Note_on_c, 0, 62, 0
1, 110381, Note_on_c, 0, 77, 0
1, 110381, Note_on_c, 0, 65, 86
1, 110399, Control_c, 0, 64, 0
1, 110577, Control_c, 0, 64, 127
1, 110603, Note_on_c, 0, 77, 93
1, 110826, Note_on_c, 0, 77, 0
1, 110826, Note_on_c, 0, 79, 95
1, 110826, Note_on_c, 0, 53, 64
1, 110829, Note_on_c, 0, 62, 72
1, 110829, Note_on_c, 0, 58, 64
1, 111045, Note_on_c, 0, 79, 0
1, 111045, Note_on_c, 0, 82, 93
1, 111277, Note_on_c, 0, 82, 0
1, 111277, Note_on_c, 0, 58, 0
1, 111277, Note_on_c, 0, 75, 90
1, 111280, Note_on_c, 0, 65, 0
1, 111280, Note_on_c, 0, 62, 0
1, 111280, Note_on_c, 0, 53, 0
1, 111283, Note_on_c, 0, 48, 77
1, 111293, Control_c, 0, 64, 0
1, 111394, Control_c, 0, 64, 127
1, 111499, Note_on_c, 0, 53, 73
1, 111715, Note_on_c, 0, 53, 0
1, 111715, Note_on_c, 0, 48, 0
1, 111715, Note_on_c, 0, 57, 78
1, 111933, Note_on_c, 0, 57, 0
1, 111933, Note_on_c, 0, 63, 74
1, 112154, Note_on_c, 0, 63, 0
1, 112154, Note_on_c, 0, 75, 0
1, 112154, Note_on_c, 0, 65, 77
1, 112173, Control_c, 0, 64, 0
1, 112366, Control_c, 0, 64, 127
1, 112379, Note_on_c, 0, 75, 87
1, 112607, Note_on_c, 0, 75, 0
1, 112607, Note_on_c, 0, 77, 91
1, 112607, Note_on_c, 0, 63, 67
1, 112610, Note_on_c, 0, 53, 59
1, 112610, Note_on_c, 0, 57, 59
1, 112830, Note_on_c, 0, 77, 0
1, 112830, Note_on_c, 0, 81, 87
1, 113063, Note_on_c, 0, 81, 0
1, 113063, Note_on_c, 0, 57, 0
1, 113063, Note_on_c, 0, 74, 80
1, 113066, Note_on_c, 0, 65, 0
1, 113066, Note_on_c, 0, 53, 0
1, 113066, Note_on_c, 0, 63, 0
1, 113069, Note_on_c, 0, 46, 73
1, 113079, Control_c, 0, 64, 0
1, 113199, Control_c, 0, 64, 127
1, 113294, Note_on_c, 0, 53, 70
1, 113517, Note_on_c, 0, 53, 0
1, 113517, Note_on_c, 0, 46, 0
1, 113517, Note_on_c, 0, 58, 73
1, 113747, Note_on_c, 0, 58, 0
1, 113747, Note_on_c, 0, 62, 68
1, 113985, Note_on_c, 0, 62, 0
1, 113985, Note_on_c, 0, 74, 0
1, 113985, Note_on_c, 0, 65, 67
1, 113998, Control_c, 0, 64, 0
1, 114105, Control_c, 0, 64, 127
1, 114212, Note_on_c, 0, 67, 88
1, 114434, Note_on_c, 0, 67, 0
1, 114434, Note_on_c, 0, 69, 89
1, 114434, Note_on_c, 0, 53, 54
1, 114437, Note_on_c, 0, 62, 61
1, 114437, Note_on_c, 0, 58, 54
1, 114446, Control_c, 0, 64, 0
1, 114537, Control_c, 0, 64, 127
1, 114654, Note_on_c, 0, 69, 0
1, 114654, Note_on_c, 0, 70, 89
1, 114881, Note_on_c, 0, 70, 0
1, 114881, Note_on_c, 0, 58, 0
1, 114881, Note_on_c, 0, 72, 89
1, 114884, Note_on_c, 0, 65, 0
1, 114884, Note_on_c, 0, 62, 0
1, 114884, Note_on_c, 0, 53, 0
1, 114887, Note_on_c, 0, 51, 72
1, 114895, Control_c, 0, 64, 0
1, 114997, Control_c, 0, 64, 127
1, 115101, Note_on_c, 0, 72, 0
1, 115101, Note_on_c, 0, 74, 90
1, 115328, Note_on_c, 0, 74, 0
1, 115328, Note_on_c, 0, 51, 0
1, 115328, Note_on_c, 0, 75, 92
1, 115331, Note_on_c, 0, 65, 69
1, 115556, Note_on_c, 0, 75, 0
1, 115556, Note_on_c, 0, 77, 94
1, 115784, Note_on_c, 0, 77, 0
1, 115784, Note_on_c, 0, 65, 0
1, 115784, Note_on_c, 0, 79, 95
1, 115787, Note_on_c, 0, 60, 72
1, 115787, Note_on_c, 0, 57, 64
1, 115787, Note_on_c, 0, 53, 64
1, 115802, Control_c, 0, 64, 0
1, 115968, Control_c, 0, 64, 127
1, 116007, Note_on_c, 0, 79, 0
1, 116007, Note_on_c, 0, 81, 92
1, 116229, Note_on_c, 0, 81, 0
1, 116229, Note_on_c, 0, 82, 99
1, 116459, Note_on_c, 0, 82, 0
1, 116459, Note_on_c, 0, 84, 97
1, 116696, Note_on_c, 0, 84, 0
1, 116696, Note_on_c, 0, 53, 0
1, 116696, Note_on_c, 0, 74, 95
1, 116699, Note_on_c, 0, 57, 0
1, 116699, Note_on_c, 0, 60, 0
1, 116699, Note_on_c, 0, 50, 87
1, 116710, Control_c, 0, 64, 0
1, 116820, Control_c, 0, 64, 127
1, 116914, Note_on_c, 0, 54, 80
1, 117136, Note_on_c, 0, 54, 0
1, 117136, Note_on_c, 0, 50, 0
1, 117136, Note_on_c, 0, 57, 84
1, 117360, Note_on_c, 0, 57, 0
1, 117360, Note_on_c, 0, 62, 82
1, 117581, Note_on_c, 0, 62, 0
1, 117581, Note_on_c, 0, 74, 0
1, 117581, Note_on_c, 0, 66, 78
1, 117600, Control_c, 0, 64, 0
1, 117739, Control_c, 0, 64, 127
1, 117803, Note_on_c, 0, 74, 93
1, 118025, Note_on_c, 0, 74, 0
1, 118025, Note_on_c, 0, 66, 0
1, 118025, Note_on_c, 0, 76, 95
1, 118028, Note_on_c, 0, 57, 59
1, 118028, Note_on_c, 0, 62, 67
1, 118248, Note_on_c, 0, 76, 0
1, 118248, Note_on_c, 0, 78, 92
1, 118481, Note_on_c, 0, 78, 0
1, 118481, Note_on_c, 0, 62, 0
1, 118481, Note_on_c, 0, 79, 97
1, 118484, Note_on_c, 0, 57, 0
1, 118484, Note_on_c, 0, 50, 75
1, 118498, Control_c, 0, 64, 0
1, 118600, Control_c, 0, 64, 127
1, 118706, Note_on_c, 0, 55, 72
1, 118934, Note_on_c, 0, 55, 0
1, 118934, Note_on_c, 0, 50, 0
1, 118934, Note_on_c, 0, 58, 78
1, 119161, Note_on_c, 0, 58, 0
1, 119161, Note_on_c, 0, 62, 73
1, 119390, Note_on_c, 0, 62, 0
1, 119390, Note_on_c, 0, 79, 0
1, 119390, Note_on_c, 0, 67, 77
1, 119409, Control_c, 0, 64, 0
1, 119620, Note_on_c, 0, 74, 87
1, 119620, Control_c, 0, 64, 127
1, 119845, Note_on_c, 0, 74, 0
1, 119845, Note_on_c, 0, 67, 0
1, 119845, Note_on_c, 0, 72, 89
1, 119848, Note_on_c, 0, 62, 56
1, 119848, Note_on_c, 0, 55, 52
1, 120070, Note_on_c, 0, 72, 0
1, 120070, Note_on_c, 0, 70, 87
1, 120304, Note_on_c, 0, 70, 0
1, 120304, Note_on_c, 0, 55, 0
1, 120304, Note_on_c, 0, 78, 83
1, 120307, Note_on_c, 0, 62, 0
1, 120307, Note_on_c, 0, 50, 73
1, 120318, Control_c, 0, 64, 0
1, 120432, Control_c, 0, 64, 127
1, 120529, Note_on_c, 0, 54, 56
1, 120758, Note_on_c, 0, 54, 0
1, 120758, Note_on_c, 0, 50, 0
1, 120758, Note_on_c, 0, 57, 63
1, 120985, Note_on_c, 0, 57, 0
1, 120985, Note_on_c, 0, 62, 58
1, 121213, Note_on_c, 0, 62, 0
1, 121213, Note_on_c, 0, 78, 0
1, 121213, Note_on_c, 0, 66, 63
1, 121226, Control_c, 0, 64, 0
1, 121320, Control_c, 0, 64, 127
1, 121439, Note_on_c, 0, 72, 81
1, 121665, Note_on_c, 0, 72, 0
1, 121665, Note_on_c, 0, 66, 0
1, 121665, Note_on_c, 0, 70, 83
1, 121668, Note_on_c, 0, 57, 55
1, 121668, Note_on_c, 0, 60, 55
1, 121668, Note_on_c, 0, 62, 55
1, 121890, Note_on_c, 0, 70, 0
1, 121890, Note_on_c, 0, 69, 81
1, 122124, Note_on_c, 0, 69, 0
1, 122124, Note_on_c, 0, 62, 0
1, 122124, Note_on_c, 0, 79, 88
1, 122127, Note_on_c, 0, 60, 0
1, 122127, Note_on_c, 0, 57, 0
1, 122127, Note_on_c, 0, 50, 73
1, 122144, Control_c, 0, 64, 0
1, 122184, Control_c, 0, 64, 127
1, 122348, Note_on_c, 0, 79, 0
1, 122348, Note_on_c, 0, 74, 81
1, 122348, Note_on_c, 0, 55, 64
1, 122462, Note_on_c, 0, 74, 0
1, 122462, Note_on_c, 0, 75, 65
1, 122519, Note_on_c, 0, 75, 0
1, 122519, Note_on_c, 0, 74, 67
1, 122576, Note_on_c, 0, 74, 0
1, 122576, Note_on_c, 0, 55, 0
1, 122576, Note_on_c, 0, 73, 83
1, 122579, Note_on_c, 0, 50, 0
1, 122579, Note_on_c, 0, 58, 66
1, 122804, Note_on_c, 0, 58, 0
1, 122804, Note_on_c, 0, 73, 0
1, 122804, Note_on_c, 0, 74, 80
1, 122807, Note_on_c, 0, 62, 64
1, 123032, Note_on_c, 0, 62, 0
1, 123032, Note_on_c, 0, 74, 0
1, 123032, Note_on_c, 0, 75, 83
1, 123035, Note_on_c, 0, 67, 64
1, 123051, Control_c, 0, 64, 0
1, 123131, Control_c, 0, 64, 127
1, 123261, Note_on_c, 0, 75, 0
1, 123261, Note_on_c, 0, 74, 80
1, 123491, Note_on_c, 0, 74, 0
1, 123491, Note_on_c, 0, 67, 0
1, 123491, Note_on_c, 0, 70, 83
1, 123494, Note_on_c, 0, 62, 64
1, 123494, Note_on_c, 0, 58, 64
1, 123494, Note_on_c, 0, 55, 64
1, 123720, Note_on_c, 0, 70, 0
1, 123720, Note_on_c, 0, 67, 80
1, 123955, Note_on_c, 0, 55, 0
1, 123955, Note_on_c, 0, 58, 0
1, 123955, Note_on_c, 0, 74, 83
1, 123958, Note_on_c, 0, 62, 0
1, 123958, Control_c, 0, 64, 0
1, 123958, Note_on_c, 0, 50, 66
1, 123961, Note_on_c, 0, 57, 66
1, 124056, Control_c, 0, 64, 127
1, 124182, Note_on_c, 0, 57, 0
1, 124182, Note_on_c, 0, 67, 0
1, 124182, Note_on_c, 0, 74, 0
1, 124182, Note_on_c, 0, 50, 0
1, 124182, Note_on_c, 0, 67, 73
1, 124409, Note_on_c, 0, 67, 0
1, 124409, Note_on_c, 0, 74, 88
1, 124409, Note_on_c, 0, 66, 72
1, 124635, Note_on_c, 0, 66, 0
1, 124635, Note_on_c, 0, 63, 71
1, 124863, Note_on_c, 0, 63, 0
1, 124863, Note_on_c, 0, 62, 70
1, 124878, Control_c, 0, 64, 0
1, 124954, Control_c, 0, 64, 127
1, 125103, Note_on_c, 0, 62, 0
1, 125103, Note_on_c, 0, 74, 0
1, 125103, Note_on_c, 0, 62, 73
1, 125106, Note_on_c, 0, 60, 68
1, 125343, Note_on_c, 0, 60, 0
1, 125343, Note_on_c, 0, 62, 0
1, 125343, Note_on_c, 0, 64, 74
1, 125346, Note_on_c, 0, 58, 67
1, 125578, Note_on_c, 0, 58, 0
1, 125578, Note_on_c, 0, 64, 0
1, 125578, Note_on_c, 0, 66, 76
1, 125581, Note_on_c, 0, 57, 66
1, 125811, Note_on_c, 0, 57, 0
1, 125811, Note_on_c, 0, 66, 0
1, 125811, Note_on_c, 0, 67, 77
1, 125814, Note_on_c, 0, 43, 60
1, 125831, Control_c, 0, 64, 0
1, 125923, Control_c, 0, 64, 127
1, 126046, Note_on_c, 0, 67, 0
1, 126046, Note_on_c, 0, 69, 79
1, 126282, Note_on_c, 0, 69, 0
1, 126282, Note_on_c, 0, 43, 0
1, 126282, Note_on_c, 0, 70, 81
1, 126285, Note_on_c, 0, 50, 57
1, 126511, Note_on_c, 0, 70, 0
1, 126511, Note_on_c, 0, 72, 83
1, 126745, Note_on_c, 0, 72, 0
1, 126745, Note_on_c, 0, 50, 0
1, 126745, Note_on_c, 0, 74, 85
1, 126748, Note_on_c, 0, 62, 60
1, 126748, Note_on_c, 0, 58, 54
1, 126748, Note_on_c, 0, 55, 54
1, 126768, Control_c, 0, 64, 0
1, 126846, Control_c, 0, 64, 127
1, 126981, Note_on_c, 0, 55, 0
1, 126981, Note_on_c, 0, 74, 0
1, 126981, Note_on_c, 0, 79, 88
1, 126984, Note_on_c, 0, 58, 0
1, 126984, Note_on_c, 0, 62, 0
1, 126984, Note_on_c, 0, 58, 69
1, 127209, Note_on_c, 0, 58, 0
1, 127209, Note_on_c, 0, 79, 0
1, 127209, Note_on_c, 0, 78, 86
1, 127212, Note_on_c, 0, 57, 72
1, 127446, Note_on_c, 0, 57, 0
1, 127446, Note_on_c, 0, 78, 0
1, 127446, Note_on_c, 0, 79, 84
1, 127449, Note_on_c, 0, 55, 68
1, 127685, Note_on_c, 0, 55, 0
1, 127685, Note_on_c, 0, 79, 0
1, 127685, Note_on_c, 0, 74, 73
1, 127688, Note_on_c, 0, 54, 63
1, 127688, Note_on_c, 0, 50, 56
1, 127688, Note_on_c, 0, 46, 56
1, 127695, Control_c, 0, 64, 0
1, 127909, Note_on_c, 0, 54, 0
1, 127909, Control_c, 0, 64, 127
1, 127909, Note_on_c, 0, 55, 68
1, 128137, Note_on_c, 0, 55, 0
1, 128137, Note_on_c, 0, 46, 0
1, 128137, Note_on_c, 0, 50, 0
1, 128140, Note_on_c, 0, 58, 72
1, 128364, Note_on_c, 0, 58, 0
1, 128364, Note_on_c, 0, 60, 70
1, 128597, Note_on_c, 0, 60, 0
1, 128597, Note_on_c, 0, 74, 0
1, 128597, Note_on_c, 0, 62, 72
1, 128611, Control_c, 0, 64, 0
1, 128718, Control_c, 0, 64, 127
1, 128825, Note_on_c, 0, 62, 0
1, 128825, Note_on_c, 0, 74, 76
1, 129057, Note_on_c, 0, 74, 0
1, 129057, Note_on_c, 0, 63, 51
1, 129057, Note_on_c, 0, 67, 51
1, 129060, Note_on_c, 0, 69, 79
1, 129060, Note_on_c, 0, 48, 55
1, 129293, Note_on_c, 0, 69, 0
1, 129293, Note_on_c, 0, 72, 71
1, 129533, Note_on_c, 0, 72, 0
1, 129533, Note_on_c, 0, 63, 0
1, 129533, Note_on_c, 0, 67, 0
1, 129536, Note_on_c, 0, 62, 65
1, 129536, Note_on_c, 0, 67, 65
1, 129536, Note_on_c, 0, 70, 73
1, 129539, Note_on_c, 0, 48, 0
1, 129539, Note_on_c, 0, 50, 62
1, 129552, Control_c, 0, 64, 0
1, 129673, Control_c, 0, 64, 127
1, 129759, Note_on_c, 0, 62, 0
1, 129759, Note_on_c, 0, 70, 0
1, 129759, Note_on_c, 0, 67, 0
1, 129762, Note_on_c, 0, 50, 0
1, 129762, Note_on_c, 0, 63, 70
1, 129990, Note_on_c, 0, 63, 0
1, 129990, Note_on_c, 0, 58, 51
1, 129990, Note_on_c, 0, 55, 51
1, 129993, Note_on_c, 0, 61, 70
1, 130224, Note_on_c, 0, 61, 0
1, 130224, Note_on_c, 0, 55, 0
1, 130224, Note_on_c, 0, 58, 0
1, 130227, Note_on_c, 0, 63, 59
1, 130459, Note_on_c, 0, 63, 0
1, 130459, Note_on_c, 0, 55, 54
1, 130459, Note_on_c, 0, 58, 54
1, 130462, Note_on_c, 0, 62, 60
1, 130479, Control_c, 0, 64, 0
1, 130578, Control_c, 0, 64, 127
1, 130690, Note_on_c, 0, 62, 0
1, 130690, Note_on_c, 0, 58, 0
1, 130690, Note_on_c, 0, 70, 73
1, 130693, Note_on_c, 0, 55, 0
1, 130925, Note_on_c, 0, 70, 0
1, 130925, Note_on_c, 0, 60, 66
1, 130925, Note_on_c, 0, 66, 77
1, 130928, Note_on_c, 0, 50, 62
1, 131161, Note_on_c, 0, 66, 0
1, 131161, Note_on_c, 0, 69, 69
1, 131397, Note_on_c, 0, 69, 0
1, 131397, Note_on_c, 0, 60, 0
1, 131397, Note_on_c, 0, 58, 67
1, 131400, Note_on_c, 0, 50, 0
1, 131400, Note_on_c, 0, 67, 73
1, 131400, Note_on_c, 0, 43, 66
1, 131410, Control_c, 0, 64, 0
1, 131548, Control_c, 0, 64, 127
1, 131623, Note_on_c, 0, 51, 62
1, 131855, Note_on_c, 0, 51, 0
1, 131855, Note_on_c, 0, 49, 64
1, 132092, Note_on_c, 0, 49, 0
1, 132092, Note_on_c, 0, 51, 52
1, 132328, Note_on_c, 0, 51, 0
1, 132328, Note_on_c, 0, 58, 0
1, 132328, Note_on_c, 0, 67, 0
1, 132331, Note_on_c, 0, 50, 55
1, 132348, Control_c, 0, 64, 0
1, 132532, Control_c, 0, 64, 127
1, 132565, Note_on_c, 0, 62, 72
1, 132794, Note_on_c, 0, 62, 0
1, 132794, Note_on_c, 0, 60, 68
1, 132794, Note_on_c, 0, 64, 74
1, 133016, Note_on_c, 0, 64, 0
1, 133016, Note_on_c, 0, 66, 75
1, 133244, Note_on_c, 0, 66, 0
1, 133244, Note_on_c, 0, 60, 0
1, 133244, Note_on_c, 0, 58, 71
1, 133247, Note_on_c, 0, 50, 0
1, 133247, Note_on_c, 0, 43, 0
1, 133247, Note_on_c, 0, 67, 77
1, 133250, Note_on_c, 0, 43, 60
1, 133254, Control_c, 0, 64, 0
1, 133428, Control_c, 0, 64, 127
1, 133467, Note_on_c, 0, 67, 0
1, 133467, Note_on_c, 0, 58, 0
1, 133467, Note_on_c, 0, 69, 79
1, 133695, Note_on_c, 0, 69, 0
1, 133695, Note_on_c, 0, 43, 0
1, 133695, Note_on_c, 0, 70, 81
1, 133698, Note_on_c, 0, 50, 57
1, 133923, Note_on_c, 0, 70, 0
1, 133923, Note_on_c, 0, 72, 83
1, 134151, Note_on_c, 0, 72, 0
1, 134151, Note_on_c, 0, 50, 0
1, 134151, Note_on_c, 0, 74, 88
1, 134154, Note_on_c, 0, 62, 60
1, 134154, Note_on_c, 0, 58, 54
1, 134154, Note_on_c, 0, 55, 54
1, 134170, Control_c, 0, 64, 0
1, 134261, Control_c, 0, 64, 127
1, 134385, Note_on_c, 0, 55, 0
1, 134385, Note_on_c, 0, 74, 0
1, 134385, Note_on_c, 0, 79, 83
1, 134388, Note_on_c, 0, 58, 0
1, 134388, Note_on_c, 0, 62, 0
1, 134388, Note_on_c, 0, 58, 70
1, 134609, Note_on_c, 0, 79, 0
1, 134609, Note_on_c, 0, 75, 60
1, 134609, Note_on_c, 0, 72, 56
1, 134612, Note_on_c, 0, 58, 0
1, 134612, Note_on_c, 0, 65, 53
1, 134612, Note_on_c, 0, 77, 81
1, 134615, Note_on_c, 0, 45, 60
1, 134615, Note_on_c, 0, 57, 73
1, 134838, Note_on_c, 0, 57, 0
1, 134838, Note_on_c, 0, 77, 0
1, 134838, Note_on_c, 0, 79, 79
1, 134841, Note_on_c, 0, 55, 69
1, 135072, Note_on_c, 0, 79, 0
1, 135072, Note_on_c, 0, 65, 0
1, 135072, Note_on_c, 0, 72, 0
1, 135075, Note_on_c, 0, 75, 0
1, 135075, Note_on_c, 0, 65, 66
1, 135075, Note_on_c, 0, 70, 66
1, 135078, Note_on_c, 0, 55, 0
1, 135078, Note_on_c, 0, 45, 0
1, 135078, Note_on_c, 0, 74, 75
1, 135081, Note_on_c, 0, 53, 58
1, 135081, Note_on_c, 0, 46, 64
1, 135089, Control_c, 0, 64, 0
1, 135227, Control_c, 0, 64, 127
1, 135304, Note_on_c, 0, 53, 0
1, 135304, Note_on_c, 0, 55, 69
1, 135528, Note_on_c, 0, 55, 0
1, 135528, Note_on_c, 0, 46, 0
1, 135528, Note_on_c, 0, 58, 71
1, 135750, Note_on_c, 0, 58, 0
1, 135750, Note_on_c, 0, 62, 69
1, 135975, Note_on_c, 0, 62, 0
1, 135975, Note_on_c, 0, 70, 0
1, 135975, Note_on_c, 0, 65, 0
1, 135975, Note_on_c, 0, 74, 0
1, 135975, Note_on_c, 0, 65, 72
1, 135996, Control_c, 0, 64, 0
1, 136178, Control_c, 0, 64, 127
1, 136205, Note_on_c, 0, 65, 0
1, 136205, Note_on_c, 0, 77, 80
1, 136436, Note_on_c, 0, 77, 0
1, 136436, Note_on_c, 0, 63, 70
1, 136436, Note_on_c, 0, 70, 70
1, 136439, Note_on_c, 0, 74, 70
1, 136439, Note_on_c, 0, 75, 83
1, 136439, Note_on_c, 0, 43, 61
1, 136672, Note_on_c, 0, 75, 0
1, 136672, Note_on_c, 0, 77, 78
1, 136912, Note_on_c, 0, 77, 0
1, 136912, Note_on_c, 0, 74, 0
1, 136912, Note_on_c, 0, 70, 0
1, 136915, Note_on_c, 0, 63, 0
1, 136915, Note_on_c, 0, 63, 70
1, 136915, Note_on_c, 0, 69, 70
1, 136918, Note_on_c, 0, 43, 0
1, 136918, Note_on_c, 0, 72, 80
1, 136918, Note_on_c, 0, 45, 64
1, 136924, Control_c, 0, 64, 0
1, 137068, Control_c, 0, 64, 127
1, 137145, Note_on_c, 0, 55, 64
1, 137370, Note_on_c, 0, 55, 0
1, 137370, Note_on_c, 0, 45, 0
1, 137370, Note_on_c, 0, 57, 68
1, 137594, Note_on_c, 0, 57, 0
1, 137594, Note_on_c, 0, 60, 65
1, 137819, Note_on_c, 0, 60, 0
1, 137819, Note_on_c, 0, 63, 0
1, 137819, Note_on_c, 0, 69, 0
1, 137819, Note_on_c, 0, 72, 0
1, 137819, Note_on_c, 0, 63, 61
1, 137842, Control_c, 0, 64, 0
1, 137955, Control_c, 0, 64, 127
1, 138049, Note_on_c, 0, 63, 0
1, 138049, Note_on_c, 0, 75, 75
1, 138280, Note_on_c, 0, 75, 0
1, 138280, Note_on_c, 0, 62, 57
1, 138280, Note_on_c, 0, 69, 57
1, 138283, Note_on_c, 0, 72, 58
1, 138283, Note_on_c, 0, 74, 76
1, 138283, Note_on_c, 0, 42, 56
1, 138516, Note_on_c, 0, 74, 0
1, 138516, Note_on_c, 0, 75, 70
1, 138756, Note_on_c, 0, 75, 0
1, 138756, Note_on_c, 0, 72, 0
1, 138756, Note_on_c, 0, 69, 0
1, 138759, Note_on_c, 0, 62, 0
1, 138759, Note_on_c, 0, 62, 64
1, 138759, Note_on_c, 0, 67, 64
1, 138762, Note_on_c, 0, 42, 0
1, 138762, Note_on_c, 0, 70, 73
1, 138762, Note_on_c, 0, 43, 59
1, 138777, Control_c, 0, 64, 0
1, 138905, Control_c, 0, 64, 127
1, 138987, Note_on_c, 0, 50, 55
1, 139223, Note_on_c, 0, 70, 0
1, 139223, Note_on_c, 0, 62, 0
1, 139223, Note_on_c, 0, 67, 0
1, 139226, Note_on_c, 0, 43, 0
1, 139226, Note_on_c, 0, 50, 0
1, 139226, Note_on_c, 0, 55, 60
1, 139454, Note_on_c, 0, 55, 0
1, 139454, Note_on_c, 0, 58, 57
1, 139691, Note_on_c, 0, 58, 0
1, 139691, Note_on_c, 0, 62, 56
1, 139710, Control_c, 0, 64, 0
1, 139908, Control_c, 0, 64, 127
1, 139922, Note_on_c, 0, 62, 0
1, 139922, Note_on_c, 0, 74, 74
1, 140158, Note_on_c, 0, 74, 0
1, 140158, Note_on_c, 0, 63, 55
1, 140158, Note_on_c, 0, 69, 55
1, 140161, Note_on_c, 0, 72, 76
1, 140161, Note_on_c, 0, 48, 54
1, 140394, Note_on_c, 0, 72, 0
1, 140394, Note_on_c, 0, 74, 72
1, 140630, Note_on_c, 0, 74, 0
1, 140630, Note_on_c, 0, 63, 0
1, 140630, Note_on_c, 0, 69, 0
1, 140633, Note_on_c, 0, 62, 55
1, 140633, Note_on_c, 0, 67, 55
1, 140633, Note_on_c, 0, 72, 75
1, 140636, Note_on_c, 0, 48, 0
1, 140636, Note_on_c, 0, 50, 59
1, 140648, Control_c, 0, 64, 0
1, 140741, Control_c, 0, 64, 127
1, 140867, Note_on_c, 0, 72, 0
1, 140867, Note_on_c, 0, 70, 71
1, 141102, Note_on_c, 0, 70, 0
1, 141102, Note_on_c, 0, 62, 0
1, 141102, Note_on_c, 0, 67, 0
1, 141102, Note_on_c, 0, 58, 52
1, 141102, Note_on_c, 0, 69, 70
1, 141102, Note_on_c, 0, 62, 52
1, 141342, Note_on_c, 0, 69, 0
1, 141342, Note_on_c, 0, 67, 69
1, 141583, Note_on_c, 0, 67, 0
1, 141583, Note_on_c, 0, 58, 0
1, 141583, Note_on_c, 0, 64, 55
1, 141586, Note_on_c, 0, 62, 0
1, 141586, Note_on_c, 0, 70, 72
1, 141586, Note_on_c, 0, 61, 51
1, 141606, Control_c, 0, 64, 0
1, 141780, Control_c, 0, 64, 127
1, 142067, Note_on_c, 0, 64, 0
1, 142067, Note_on_c, 0, 63, 49
1, 142067, Note_on_c, 0, 66, 52
1, 142070, Note_on_c, 0, 61, 0
1, 142070, Note_on_c, 0, 60, 50
1, 142308, Note_on_c, 0, 70, 0
1, 142308, Note_on_c, 0, 69, 59
1, 142556, Note_on_c, 0, 69, 0
1, 142556, Note_on_c, 0, 66, 0
1, 142556, Note_on_c, 0, 63, 0
1, 142559, Note_on_c, 0, 50, 0
1, 142559, Note_on_c, 0, 62, 60
1, 142559, Note_on_c, 0, 67, 68
1, 142562, Note_on_c, 0, 55, 48
1, 142580, Control_c, 0, 64, 0
1, 142793, Note_on_c, 0, 60, 0
1, 142793, Control_c, 0, 64, 127
1, 142793, Note_on_c, 0, 58, 54
1, 143033, Note_on_c, 0, 58, 0
1, 143033, Note_on_c, 0, 62, 0
1, 143033, Note_on_c, 0, 67, 0
1, 143036, Note_on_c, 0, 55, 0
1, 143036, Note_on_c, 0, 55, 55
1, 143273, Note_on_c, 0, 55, 0
1, 143273, Note_on_c, 0, 50, 54
1, 143513, Note_on_c, 0, 50, 0
1, 143513, Note_on_c, 0, 43, 54
1, 143754, Note_on_c, 0, 82, 67
1, 143983, Note_on_c, 0, 91, 71
1, 143983, Note_on_c, 0, 86, 55
1, 143983, Note_on_c, 0, 50, 56
1, 143996, Control_c, 0, 64, 0
1, 144104, Control_c, 0, 64, 127
1, 144211, Note_on_c, 0, 86, 0
1, 144211, Note_on_c, 0, 91, 0
1, 144211, Note_on_c, 0, 82, 0
1, 144214, Note_on_c, 0, 81, 66
1, 144439, Note_on_c, 0, 90, 68
1, 144439, Note_on_c, 0, 86, 55
1, 144439, Note_on_c, 0, 84, 55
1, 144442, Note_on_c, 0, 43, 0
1, 144442, Note_on_c, 0, 43, 58
1, 144661, Note_on_c, 0, 81, 0
1, 144661, Note_on_c, 0, 90, 0
1, 144661, Note_on_c, 0, 84, 0
1, 144664, Note_on_c, 0, 86, 0
1, 144664, Note_on_c, 0, 79, 65
1, 144891, Note_on_c, 0, 87, 70
1, 144891, Note_on_c, 0, 84, 55
1, 144891, Note_on_c, 0, 81, 55
1, 144894, Note_on_c, 0, 50, 0
1, 144894, Note_on_c, 0, 50, 56
1, 144912, Control_c, 0, 64, 0
1, 145022, Control_c, 0, 64, 127
1, 145114, Note_on_c, 0, 79, 0
1, 145114, Note_on_c, 0, 87, 0
1, 145114, Note_on_c, 0, 81, 0
1, 145117, Note_on_c, 0, 84, 0
1, 145117, Note_on_c, 0, 78, 65
1, 145342, Note_on_c, 0, 86, 70
1, 145342, Note_on_c, 0, 84, 55
1, 145342, Note_on_c, 0, 81, 55
1, 145567, Note_on_c, 0, 81, 0
1, 145567, Note_on_c, 0, 78, 0
1, 145567, Note_on_c, 0, 86, 0
1, 145570, Note_on_c, 0, 84, 0
1, 145570, Note_on_c, 0, 75, 64
1, 145798, Note_on_c, 0, 84, 70
1, 145798, Note_on_c, 0, 81, 55
1, 145798, Note_on_c, 0, 78, 55
1, 145822, Control_c, 0, 64, 0
1, 145906, Control_c, 0, 64, 127
1, 146022, Note_on_c, 0, 78, 0
1, 146022, Note_on_c, 0, 75, 0
1, 146022, Note_on_c, 0, 84, 0
1, 146025, Note_on_c, 0, 81, 0
1, 146025, Note_on_c, 0, 74, 66
1, 146252, Note_on_c, 0, 82, 70
1, 146252, Note_on_c, 0, 79, 55
1, 146252, Note_on_c, 0, 76, 55
1, 146255, Note_on_c, 0, 43, 0
1, 146255, Note_on_c, 0, 43, 60
1, 146477, Note_on_c, 0, 74, 0
1, 146477, Note_on_c, 0, 82, 0
1, 146477, Note_on_c, 0, 76, 0
1, 146480, Note_on_c, 0, 79, 0
1, 146480, Note_on_c, 0, 72, 67
1, 146707, Note_on_c, 0, 81, 70
1, 146707, Note_on_c, 0, 78, 55
1, 146707, Note_on_c, 0, 75, 55
1, 146710, Note_on_c, 0, 50, 0
1, 146710, Note_on_c, 0, 50, 56
1, 146726, Control_c, 0, 64, 0
1, 146822, Control_c, 0, 64, 127
1, 146932, Note_on_c, 0, 72, 0
1, 146932, Note_on_c, 0, 81, 0
1, 146932, Note_on_c, 0, 75, 0
1, 146935, Note_on_c, 0, 78, 0
1, 146935, Note_on_c, 0, 70, 64
1, 147164, Note_on_c, 0, 79, 71
1, 147164, Note_on_c, 0, 74, 55
1, 147181, Control_c, 0, 64, 0
1, 147266, Control_c, 0, 64, 127
1, 147387, Note_on_c, 0, 74, 0
1, 147387, Note_on_c, 0, 70, 0
1, 147387, Note_on_c, 0, 79, 0
1, 147390, Note_on_c, 0, 70, 74
1, 147620, Note_on_c, 0, 70, 0
1, 147620, Note_on_c, 0, 74, 58
1, 147620, Note_on_c, 0, 72, 56
1, 147623, Note_on_c, 0, 50, 0
1, 147623, Note_on_c, 0, 43, 0
1, 147623, Note_on_c, 0, 69, 74
1, 147626, Note_on_c, 0, 55, 57
1, 147626, Note_on_c, 0, 62, 59
1, 147849, Note_on_c, 0, 69, 0
1, 147849, Note_on_c, 0, 67, 74
1, 148082, Note_on_c, 0, 67, 0
1, 148082, Note_on_c, 0, 66, 76
1, 148098, Control_c, 0, 64, 0
1, 148217, Control_c, 0, 64, 127
1, 148312, Note_on_c, 0, 66, 0
1, 148312, Note_on_c, 0, 72, 0
1, 148312, Note_on_c, 0, 74, 0
1, 148315, Note_on_c, 0, 55, 0
1, 148315, Note_on_c, 0, 62, 0
1, 148315, Note_on_c, 0, 67, 73
1, 148545, Note_on_c, 0, 67, 0
1, 148545, Note_on_c, 0, 68, 74
1, 148545, Note_on_c, 0, 62, 52
1, 148548, Note_on_c, 0, 60, 50
1, 148548, Note_on_c, 0, 43, 53
1, 148548, Note_on_c, 0, 50, 53
1, 148777, Note_on_c, 0, 68, 0
1, 148777, Note_on_c, 0, 69, 73
1, 149002, Note_on_c, 0, 69, 0
1, 149002, Note_on_c, 0, 50, 0
1, 149002, Note_on_c, 0, 62, 0
1, 149005, Note_on_c, 0, 60, 0
1, 149005, Note_on_c, 0, 43, 0
1, 149005, Note_on_c, 0, 54, 58
1, 149017, Control_c, 0, 64, 0
1, 149162, Control_c, 0, 64, 127
1, 149233, Note_on_c, 0, 58, 71
1, 149467, Note_on_c, 0, 58, 0
1, 149467, Note_on_c, 0, 62, 58
1, 149467, Note_on_c, 0, 60, 56
1, 149470, Note_on_c, 0, 57, 74
1, 149697, Note_on_c, 0, 57, 0
1, 149697, Note_on_c, 0, 55, 70
1, 149931, Note_on_c, 0, 55, 0
1, 149931, Note_on_c, 0, 54, 0
1, 149931, Note_on_c, 0, 54, 74
1, 149948, Control_c, 0, 64, 0
1, 150085, Control_c, 0, 64, 127
1, 150162, Note_on_c, 0, 54, 0
1, 150162, Note_on_c, 0, 52, 71
1, 150396, Note_on_c, 0, 60, 0
1, 150396, Note_on_c, 0, 62, 0
1, 150396, Note_on_c, 0, 58, 50
1, 150399, Note_on_c, 0, 52, 0
1, 150399, Note_on_c, 0, 62, 55
1, 150399, Note_on_c, 0, 54, 74
1, 150628, Note_on_c, 0, 54, 0
1, 150628, Note_on_c, 0, 55, 71
1, 150870, Note_on_c, 0, 55, 0
1, 150870, Note_on_c, 0, 62, 0
1, 150870, Note_on_c, 0, 58, 0
1, 150873, Note_on_c, 0, 50, 56
1, 150873, Note_on_c, 0, 43, 56
1, 150893, Control_c, 0, 64, 0
1, 151010, Control_c, 0, 64, 127
1, 151095, Note_on_c, 0, 70, 67
1, 151324, Note_on_c, 0, 79, 71
1, 151324, Note_on_c, 0, 74, 55
1, 151336, Control_c, 0, 64, 0
1, 151452, Control_c, 0, 64, 127
1, 151548, Note_on_c, 0, 74, 0
1, 151548, Note_on_c, 0, 70, 0
1, 151548, Note_on_c, 0, 79, 0
1, 151551, Note_on_c, 0, 69, 65
1, 151779, Note_on_c, 0, 78, 67
1, 151779, Note_on_c, 0, 74, 54
1, 151779, Note_on_c, 0, 72, 54
1, 151782, Note_on_c, 0, 43, 0
1, 151782, Note_on_c, 0, 50, 0
1, 151782, Note_on_c, 0, 31, 57
1, 152004, Note_on_c, 0, 69, 0
1, 152004, Note_on_c, 0, 78, 0
1, 152004, Note_on_c, 0, 72, 0
1, 152007, Note_on_c, 0, 74, 0
1, 152007, Note_on_c, 0, 67, 63
1, 152237, Note_on_c, 0, 75, 68
1, 152237, Note_on_c, 0, 72, 53
1, 152237, Note_on_c, 0, 69, 53
1, 152240, Note_on_c, 0, 38, 54
1, 152257, Control_c, 0, 64, 0
1, 152369, Control_c, 0, 64, 127
1, 152461, Note_on_c, 0, 69, 0
1, 152461, Note_on_c, 0, 75, 0
1, 152461, Note_on_c, 0, 67, 0
1, 152464, Note_on_c, 0, 72, 0
1, 152464, Note_on_c, 0, 66, 62
1, 152693, Note_on_c, 0, 74, 68
1, 152693, Note_on_c, 0, 72, 53
1, 152693, Note_on_c, 0, 69, 53
1, 152919, Note_on_c, 0, 69, 0
1, 152919, Note_on_c, 0, 66, 0
1, 152919, Note_on_c, 0, 74, 0
1, 152922, Note_on_c, 0, 72, 0
1, 152922, Note_on_c, 0, 63, 62
1, 153151, Note_on_c, 0, 72, 67
1, 153151, Note_on_c, 0, 69, 53
1, 153151, Note_on_c, 0, 66, 53
1, 153173, Control_c, 0, 64, 0
1, 153260, Control_c, 0, 64, 127
1, 153377, Note_on_c, 0, 66, 0
1, 153377, Note_on_c, 0, 63, 0
1, 153377, Note_on_c, 0, 72, 0
1, 153380, Note_on_c, 0, 69, 0
1, 153380, Note_on_c, 0, 62, 62
1, 153609, Note_on_c, 0, 70, 66
1, 153609, Note_on_c, 0, 67, 52
1, 153609, Note_on_c, 0, 64, 52
1, 153612, Note_on_c, 0, 31, 0
1, 153612, Note_on_c, 0, 31, 57
1, 153834, Note_on_c, 0, 62, 0
1, 153834, Note_on_c, 0, 70, 0
1, 153834, Note_on_c, 0, 64, 0
1, 153837, Note_on_c, 0, 67, 0
1, 153837, Note_on_c, 0, 60, 60
1, 154067, Note_on_c, 0, 69, 66
1, 154067, Note_on_c, 0, 66, 52
1, 154067, Note_on_c, 0, 63, 52
1, 154070, Note_on_c, 0, 38, 0
1, 154070, Note_on_c, 0, 38, 53
1, 154086, Control_c, 0, 64, 0
1, 154128, Control_c, 0, 64, 127
1, 154293, Note_on_c, 0, 60, 0
1, 154293, Note_on_c, 0, 69, 0
1, 154293, Note_on_c, 0, 63, 0
1, 154296, Note_on_c, 0, 66, 0
1, 154296, Note_on_c, 0, 58, 61
1, 154525, Note_on_c, 0, 67, 66
1, 154525, Note_on_c, 0, 62, 51
1, 154541, Control_c, 0, 64, 0
1, 154627, Control_c, 0, 64, 127
1, 154748, Note_on_c, 0, 62, 0
1, 154748, Note_on_c, 0, 58, 0
1, 154748, Note_on_c, 0, 67, 0
1, 154751, Note_on_c, 0, 58, 68
1, 154981, Note_on_c, 0, 58, 0
1, 154981, Note_on_c, 0, 62, 54
1, 154981, Note_on_c, 0, 60, 52
1, 154984, Note_on_c, 0, 38, 0
1, 154984, Note_on_c, 0, 31, 0
1, 154984, Note_on_c, 0, 57, 68
1, 154987, Note_on_c, 0, 43, 53
1, 154987, Note_on_c, 0, 50, 55
1, 155210, Note_on_c, 0, 57, 0
1, 155210, Note_on_c, 0, 55, 68
1, 155443, Note_on_c, 0, 55, 0
1, 155443, Note_on_c, 0, 54, 70
1, 155460, Control_c, 0, 64, 0
1, 155562, Control_c, 0, 64, 127
1, 155673, Note_on_c, 0, 54, 0
1, 155673, Note_on_c, 0, 60, 0
1, 155673, Note_on_c, 0, 62, 0
1, 155676, Note_on_c, 0, 43, 0
1, 155676, Note_on_c, 0, 50, 0
1, 155676, Note_on_c, 0, 55, 67
1, 155906, Note_on_c, 0, 55, 0
1, 155906, Note_on_c, 0, 56, 68
1, 155906, Note_on_c, 0, 50, 48
1, 155909, Note_on_c, 0, 48, 47
1, 155909, Note_on_c, 0, 31, 49
1, 155909, Note_on_c, 0, 38, 49
1, 156138, Note_on_c, 0, 56, 0
1, 156138, Note_on_c, 0, 57, 67
1, 156363, Note_on_c, 0, 57, 0
1, 156363, Note_on_c, 0, 38, 0
1, 156363, Note_on_c, 0, 50, 0
1, 156366, Note_on_c, 0, 48, 0
1, 156366, Note_on_c, 0, 31, 0
1, 156366, Note_on_c, 0, 42, 54
1, 156385, Control_c, 0, 64, 0
1, 156523, Control_c, 0, 64, 127
1, 156594, Note_on_c, 0, 46, 65
1, 156828, Note_on_c, 0, 46, 0
1, 156828, Note_on_c, 0, 50, 53
1, 156828, Note_on_c, 0, 48, 51
1, 156831, Note_on_c, 0, 45, 67
1, 157058, Note_on_c, 0, 45, 0
1, 157058, Note_on_c, 0, 43, 63
1, 157292, Note_on_c, 0, 43, 0
1, 157292, Note_on_c, 0, 42, 0
1, 157292, Note_on_c, 0, 42, 66
1, 157306, Control_c, 0, 64, 0
1, 157390, Control_c, 0, 64, 127
1, 157530, Note_on_c, 0, 42, 0
1, 157530, Note_on_c, 0, 40, 63
1, 157777, Note_on_c, 0, 48, 0
1, 157777, Note_on_c, 0, 50, 0
1, 157777, Note_on_c, 0, 46, 47
1, 157780, Note_on_c, 0, 40, 0
1, 157780, Note_on_c, 0, 50, 53
1, 157780, Note_on_c, 0, 42, 65
1, 158016, Note_on_c, 0, 42, 0
1, 158016, Note_on_c, 0, 43, 61
1, 158262, Note_on_c, 0, 43, 0
1, 158262, Note_on_c, 0, 50, 0
1, 158262, Note_on_c, 0, 46, 0
1, 158265, Control_c, 0, 64, 0
1, 158265, Note_on_c, 0, 31, 51
1, 158530, Note_on_c, 0, 31, 0
1, 158530, Note_on_c, 0, 38, 56
1, 158757, Note_on_c, 0, 42, 48
1, 158757, Note_on_c, 0, 50, 54
1, 158757, Note_on_c, 0, 48, 48
1, 158789, Control_c, 0, 64, 127
1, 158983, Note_on_c, 0, 48, 0
1, 158983, Note_on_c, 0, 50, 0
1, 158983, Note_on_c, 0, 42, 0
1, 158986, Note_on_c, 0, 38, 0
1, 158986, Note_on_c, 0, 31, 49
1, 159207, Note_on_c, 0, 43, 49
1, 159207, Note_on_c, 0, 46, 49
1, 159207, Note_on_c, 0, 50, 55
1, 159215, Control_c, 0, 64, 0
1, 159302, Control_c, 0, 64, 127
1, 159429, Note_on_c, 0, 50, 0
1, 159429, Note_on_c, 0, 46, 0
1, 159429, Note_on_c, 0, 43, 0
1, 159432, Note_on_c, 0, 31, 0
1, 159432, Note_on_c, 0, 38, 52
1, 159649, Note_on_c, 0, 45, 51
1, 159649, Note_on_c, 0, 50, 51
1, 159649, Note_on_c, 0, 54, 57
1, 159658, Control_c, 0, 64, 0
1, 159785, Control_c, 0, 64, 127
1, 159867, Note_on_c, 0, 54, 0
1, 159867, Note_on_c, 0, 50, 0
1, 159867, Note_on_c, 0, 45, 0
1, 159870, Note_on_c, 0, 38, 0
1, 159870, Note_on_c, 0, 31, 47
1, 160084, Note_on_c, 0, 46, 53
1, 160084, Note_on_c, 0, 50, 53
1, 160084, Note_on_c, 0, 55, 59
1, 160100, Control_c, 0, 64, 0
1, 160228, Control_c, 0, 64, 127
1, 160299, Note_on_c, 0, 55, 0
1, 160299, Note_on_c, 0, 50, 0
1, 160299, Note_on_c, 0, 46, 0
1, 160302, Note_on_c, 0, 31, 0
1, 160302, Note_on_c, 0, 38, 53
1, 160513, Note_on_c, 0, 50, 54
1, 160513, Note_on_c, 0, 54, 60
1, 160513, Note_on_c, 0, 57, 60
1, 160521, Control_c, 0, 64, 0
1, 160604, Control_c, 0, 64, 127
1, 160725, Note_on_c, 0, 57, 0
1, 160725, Note_on_c, 0, 54, 0
1, 160725, Note_on_c, 0, 50, 0
1, 160728, Note_on_c, 0, 38, 0
1, 160728, Note_on_c, 0, 31, 49
1, 160935, Note_on_c, 0, 50, 55
1, 160935, Note_on_c, 0, 55, 55
1, 160935, Note_on_c, 0, 58, 62
1, 160945, Control_c, 0, 64, 0
1, 161050, Control_c, 0, 64, 127
1, 161144, Note_on_c, 0, 58, 0
1, 161144, Note_on_c, 0, 55, 0
1, 161144, Note_on_c, 0, 50, 0
1, 161147, Note_on_c, 0, 31, 0
1, 161147, Note_on_c, 0, 38, 54
1, 161353, Note_on_c, 0, 54, 56
1, 161353, Note_on_c, 0, 62, 63
1, 161353, Note_on_c, 0, 60, 56
1, 161361, Control_c, 0, 64, 0
1, 161461, Control_c, 0, 64, 127
1, 161562, Note_on_c, 0, 60, 0
1, 161562, Note_on_c, 0, 62, 0
1, 161562, Note_on_c, 0, 54, 0
1, 161565, Note_on_c, 0, 38, 0
1, 161565, Note_on_c, 0, 31, 50
1, 161771, Note_on_c, 0, 67, 65
1, 161771, Note_on_c, 0, 62, 58
1, 161771, Note_on_c, 0, 58, 58
1, 161787, Control_c, 0, 64, 0
1, 161899, Control_c, 0, 64, 127
1, 161977, Note_on_c, 0, 58, 0
1, 161977, Note_on_c, 0, 62, 0
1, 161977, Note_on_c, 0, 67, 0
1, 161980, Note_on_c, 0, 31, 0
1, 161980, Note_on_c, 0, 50, 56
1, 162183, Note_on_c, 0, 54, 56
1, 162183, Note_on_c, 0, 62, 63
1, 162183, Note_on_c, 0, 60, 56
1, 162196, Control_c, 0, 64, 0
1, 162311, Control_c, 0, 64, 127
1, 162389, Note_on_c, 0, 60, 0
1, 162389, Note_on_c, 0, 62, 0
1, 162389, Note_on_c, 0, 54, 0
1, 162392, Note_on_c, 0, 50, 0
1, 162392, Note_on_c, 0, 43, 52
1, 162597, Note_on_c, 0, 62, 67
1, 162597, Note_on_c, 0, 58, 59
1, 162597, Note_on_c, 0, 55, 59
1, 162607, Control_c, 0, 64, 0
1, 162726, Control_c, 0, 64, 127
1, 162805, Note_on_c, 0, 55, 0
1, 162805, Note_on_c, 0, 58, 0
1, 162805, Note_on_c, 0, 62, 0
1, 162808, Note_on_c, 0, 43, 0
1, 162808, Note_on_c, 0, 50, 56
1, 163014, Note_on_c, 0, 57, 60
1, 163014, Note_on_c, 0, 62, 60
1, 163014, Note_on_c, 0, 66, 68
1, 163031, Control_c, 0, 64, 0
1, 163153, Control_c, 0, 64, 127
1, 163222, Note_on_c, 0, 66, 0
1, 163222, Note_on_c, 0, 62, 0
1, 163222, Note_on_c, 0, 57, 0
1, 163225, Note_on_c, 0, 50, 0
1, 163225, Note_on_c, 0, 43, 51
1, 163430, Note_on_c, 0, 58, 61
1, 163430, Note_on_c, 0, 62, 61
1, 163430, Note_on_c, 0, 67, 69
1, 163439, Control_c, 0, 64, 0
1, 163508, Control_c, 0, 64, 127
1, 163636, Note_on_c, 0, 67, 0
1, 163636, Note_on_c, 0, 62, 0
1, 163636, Note_on_c, 0, 58, 0
1, 163639, Note_on_c, 0, 43, 0
1, 163639, Note_on_c, 0, 50, 57
1, 163842, Note_on_c, 0, 62, 62
1, 163842, Note_on_c, 0, 66, 62
1, 163842, Note_on_c, 0, 69, 70
1, 163859, Control_c, 0, 64, 0
1, 164027, Control_c, 0, 64, 127
1, 164046, Note_on_c, 0, 69, 0
1, 164046, Note_on_c, 0, 66, 0
1, 164046, Note_on_c, 0, 62, 0
1, 164049, Note_on_c, 0, 50, 0
1, 164049, Note_on_c, 0, 43, 53
1, 164250, Note_on_c, 0, 62, 64
1, 164250, Note_on_c, 0, 67, 64
1, 164250, Note_on_c, 0, 70, 73
1, 164266, Control_c, 0, 64, 0
1, 164283, Control_c, 0, 64, 127
1, 164452, Note_on_c, 0, 70, 0
1, 164452, Note_on_c, 0, 67, 0
1, 164452, Note_on_c, 0, 62, 0
1, 164455, Note_on_c, 0, 43, 0
1, 164455, Note_on_c, 0, 50, 58
1, 164654, Note_on_c, 0, 66, 65
1, 164654, Note_on_c, 0, 72, 65
1, 164654, Note_on_c, 0, 74, 74
1, 164670, Control_c, 0, 64, 0
1, 164702, Control_c, 0, 64, 127
1, 164858, Note_on_c, 0, 74, 0
1, 164858, Note_on_c, 0, 72, 0
1, 164858, Note_on_c, 0, 66, 0
1, 164861, Note_on_c, 0, 50, 0
1, 164861, Note_on_c, 0, 43, 53
1, 165065, Note_on_c, 0, 70, 66
1, 165065, Note_on_c, 0, 74, 66
1, 165065, Note_on_c, 0, 79, 75
1, 165082, Control_c, 0, 64, 0
1, 165175, Control_c, 0, 64, 127
1, 165267, Note_on_c, 0, 79, 0
1, 165267, Note_on_c, 0, 74, 0
1, 165267, Note_on_c, 0, 70, 0
1, 165270, Note_on_c, 0, 43, 0
1, 165270, Note_on_c, 0, 50, 60
1, 165468, Note_on_c, 0, 74, 75
1, 165468, Note_on_c, 0, 72, 66
1, 165468, Note_on_c, 0, 66, 66
1, 165489, Control_c, 0, 64, 0
1, 165536, Control_c, 0, 64, 127
1, 165676, Note_on_c, 0, 66, 0
1, 165676, Note_on_c, 0, 72, 0
1, 165676, Note_on_c, 0, 74, 0
1, 165679, Note_on_c, 0, 50, 0
1, 165679, Note_on_c, 0, 43, 55
1, 165765, Control_c, 0, 64, 0
1, 165806, Note_on_c, 0, 67, 64
1, 165832, Note_on_c, 0, 70, 67
1, 165858, Note_on_c, 0, 74, 72
1, 165884, Note_on_c, 0, 79, 76
1, 165884, Control_c, 0, 64, 127
1, 166086, Note_on_c, 0, 79, 0
1, 166086, Note_on_c, 0, 70, 0
1, 166086, Note_on_c, 0, 67, 0
1, 166089, Note_on_c, 0, 43, 0
1, 166089, Note_on_c, 0, 74, 0
1, 166089, Note_on_c, 0, 50, 62
1, 166287, Note_on_c, 0, 74, 75
1, 166287, Note_on_c, 0, 72, 67
1, 166287, Note_on_c, 0, 66, 67
1, 166302, Control_c, 0, 64, 0
1, 166349, Control_c, 0, 64, 127
1, 166489, Note_on_c, 0, 66, 0
1, 166489, Note_on_c, 0, 72, 0
1, 166489, Note_on_c, 0, 74, 0
1, 166492, Note_on_c, 0, 50, 0
1, 166492, Note_on_c, 0, 43, 58
1, 166589, Control_c, 0, 64, 0
1, 166615, Note_on_c, 0, 67, 64
1, 166640, Note_on_c, 0, 70, 67
1, 166649, Control_c, 0, 64, 127
1, 166665, Note_on_c, 0, 74, 71
1, 166690, Note_on_c, 0, 79, 76
1, 166892, Note_on_c, 0, 79, 0
1, 166892, Note_on_c, 0, 70, 0
1, 166892, Note_on_c, 0, 67, 0
1, 166895, Note_on_c, 0, 43, 0
1, 166895, Note_on_c, 0, 74, 0
1, 166895, Note_on_c, 0, 62, 63
1, 167093, Note_on_c, 0, 86, 79
1, 167093, Note_on_c, 0, 84, 70
1, 167093, Note_on_c, 0, 78, 70
1, 167110, Control_c, 0, 64, 0
1, 167163, Control_c, 0, 64, 127
1, 167301, Note_on_c, 0, 78, 0
1, 167301, Note_on_c, 0, 84, 0
1, 167301, Note_on_c, 0, 86, 0
1, 167304, Note_on_c, 0, 62, 0
1, 167304, Note_on_c, 0, 55, 59
1, 167431, Note_on_c, 0, 79, 71
1, 167436, Control_c, 0, 64, 0
1, 167457, Note_on_c, 0, 82, 76
1, 167467, Control_c, 0, 64, 127
1, 167483, Note_on_c, 0, 86, 80
1, 167509, Note_on_c, 0, 91, 85
1, 167712, Note_on_c, 0, 91, 0
1, 167712, Note_on_c, 0, 82, 0
1, 167712, Note_on_c, 0, 79, 0
1, 167715, Note_on_c, 0, 55, 0
1, 167715, Note_on_c, 0, 86, 0
1, 167715, Note_on_c, 0, 62, 65
1, 167914, Note_on_c, 0, 86, 79
1, 167914, Note_on_c, 0, 84, 71
1, 167914, Note_on_c, 0, 78, 71
1, 167933, Control_c, 0, 64, 0
1, 167972, Control_c, 0, 64, 127
1, 168122, Note_on_c, 0, 78, 0
1, 168122, Note_on_c, 0, 84, 0
1, 168122, Note_on_c, 0, 86, 0
1, 168125, Note_on_c, 0, 62, 0
1, 168125, Note_on_c, 0, 55, 61
1, 168252, Note_on_c, 0, 79, 70
1, 168260, Control_c, 0, 64, 0
1, 168278, Note_on_c, 0, 82, 75
1, 168304, Note_on_c, 0, 86, 78
1, 168312, Control_c, 0, 64, 127
1, 168330, Note_on_c, 0, 91, 85
1, 168533, Note_on_c, 0, 91, 0
1, 168533, Note_on_c, 0, 82, 0
1, 168533, Note_on_c, 0, 79, 0
1, 168536, Note_on_c, 0, 55, 0
1, 168536, Note_on_c, 0, 86, 0
1, 168536, Note_on_c, 0, 67, 60
1, 168539, Note_on_c, 0, 74, 60
1, 168660, Note_on_c, 0, 79, 67
1, 168686, Note_on_c, 0, 82, 72
1, 168711, Note_on_c, 0, 86, 77
1, 168737, Note_on_c, 0, 91, 82
1, 168940, Note_on_c, 0, 91, 0
1, 168940, Note_on_c, 0, 79, 0
1, 168940, Note_on_c, 0, 82, 0
1, 168943, Note_on_c, 0, 67, 0
1, 168943, Note_on_c, 0, 86, 0
1, 168943, Note_on_c, 0, 74, 0
1, 168946, Note_on_c, 0, 67, 54
1, 168946, Note_on_c, 0, 74, 54
1, 169067, Note_on_c, 0, 79, 66
1, 169092, Note_on_c, 0, 82, 70
1, 169118, Note_on_c, 0, 86, 74
1, 169143, Note_on_c, 0, 91, 79
1, 169347, Note_on_c, 0, 91, 0
1, 169347, Note_on_c, 0, 79, 0
1, 169347, Note_on_c, 0, 82, 0
1, 169350, Note_on_c, 0, 67, 0
1, 169350, Note_on_c, 0, 86, 0
1, 169350, Note_on_c, 0, 74, 0
1, 169353, Note_on_c, 0, 67, 56
1, 169353, Note_on_c, 0, 74, 56
1, 169475, Note_on_c, 0, 79, 65
1, 169500, Note_on_c, 0, 82, 67
1, 169526, Note_on_c, 0, 86, 71
1, 169552, Note_on_c, 0, 91, 75
1, 169759, Note_on_c, 0, 91, 0
1, 169759, Note_on_c, 0, 79, 0
1, 169759, Note_on_c, 0, 82, 0
1, 169762, Note_on_c, 0, 67, 0
1, 169762, Note_on_c, 0, 86, 0
1, 169762, Note_on_c, 0, 74, 0
1, 169765, Note_on_c, 0, 67, 49
1, 169765, Note_on_c, 0, 74, 49
1, 169890, Note_on_c, 0, 79, 62
1, 169916, Note_on_c, 0, 82, 64
1, 169942, Note_on_c, 0, 86, 66
1, 169968, Note_on_c, 0, 91, 70
1, 170179, Note_on_c, 0, 91, 0
1, 170179, Note_on_c, 0, 79, 0
1, 170179, Note_on_c, 0, 82, 0
1, 170182, Note_on_c, 0, 67, 0
1, 170182, Note_on_c, 0, 86, 0
1, 170182, Note_on_c, 0, 74, 0
1, 170185, Note_on_c, 0, 67, 51
1, 170185, Note_on_c, 0, 74, 51
1, 170312, Note_on_c, 0, 79, 56
1, 170338, Note_on_c, 0, 82, 58
1, 170365, Note_on_c, 0, 86, 60
1, 170392, Note_on_c, 0, 91, 67
1, 170607, Note_on_c, 0, 91, 0
1, 170607, Note_on_c, 0, 79, 0
1, 170607, Note_on_c, 0, 82, 0
1, 170610, Note_on_c, 0, 67, 0
1, 170610, Note_on_c, 0, 86, 0
1, 170610, Note_on_c, 0, 74, 0
1, 170613, Note_on_c, 0, 67, 47
1, 170613, Note_on_c, 0, 74, 47
1, 170742, Note_on_c, 0, 79, 52
1, 170769, Note_on_c, 0, 82, 56
1, 170796, Note_on_c, 0, 86, 60
1, 170824, Note_on_c, 0, 91, 64
1, 171043, Note_on_c, 0, 91, 0
1, 171043, Note_on_c, 0, 79, 0
1, 171043, Note_on_c, 0, 82, 0
1, 171046, Note_on_c, 0, 67, 0
1, 171046, Note_on_c, 0, 86, 0
1, 171046, Note_on_c, 0, 74, 0
1, 171049, Note_on_c, 0, 67, 49
1, 171049, Note_on_c, 0, 74, 49
1, 171180, Note_on_c, 0, 79, 49
1, 171207, Note_on_c, 0, 82, 53
1, 171235, Note_on_c, 0, 86, 54
1, 171262, Note_on_c, 0, 91, 61
1, 171487, Note_on_c, 0, 91, 0
1, 171487, Note_on_c, 0, 79, 0
1, 171487, Note_on_c, 0, 82, 0
1, 171490, Note_on_c, 0, 67, 0
1, 171490, Note_on_c, 0, 86, 0
1, 171490, Note_on_c, 0, 74, 0
1, 171493, Note_on_c, 0, 67, 45
1, 171493, Note_on_c, 0, 74, 45
1, 171669, Note_on_c, 0, 79, 46
1, 171739, Note_on_c, 0, 82, 50
1, 171810, Note_on_c, 0, 86, 54
1, 171880, Note_on_c, 0, 91, 57
1, 172441, Note_on_c, 0, 91, 0
1, 172441, Note_on_c, 0, 79, 0
1, 172441, Note_on_c, 0, 82, 0
1, 172444, Note_on_c, 0, 86, 0
1, 174002, Control_c, 0, 64, 0
1, 174126, Note_on_c, 0, 74, 0
1, 174126, Note_on_c, 0, 67, 0
1, 174126, End_track
0, 0, End_of_file
