0, 0, Header, 0, 1, 384
1, 0, Start_track
1, 0, Title_t, "Die JahreszeitenDezember"
1, 0, Copyright_t, "Adaptation for Disklavier pianos, by: Robert C. Kuhmann (c) 2012."
1, 0, Time_signature, 4, 2, 24, 8
1, 0, Key_signature, 0, "major"
1, 0, Tempo, 512821
1, 0, Program_c, 0, 0
1, 0, Control_c, 0, 7, 115
1, 0, Control_c, 0, 91, 127
1, 3, Program_c, 0, 0
1, 3, Control_c, 0, 7, 100
1, 748, Control_c, 0, 64, 127
1, 748, Note_on_c, 0, 44, 59
1, 976, Note_on_c, 0, 44, 0
1, 976, Note_on_c, 0, 68, 84
1, 976, Note_on_c, 0, 56, 52
1, 979, Note_on_c, 0, 60, 58
1, 979, Note_on_c, 0, 51, 52
1, 1200, Note_on_c, 0, 51, 0
1, 1200, Note_on_c, 0, 60, 0
1, 1200, Note_on_c, 0, 63, 61
1, 1203, Note_on_c, 0, 56, 0
1, 1203, Note_on_c, 0, 51, 47
1, 1203, Note_on_c, 0, 60, 51
1, 1206, Note_on_c, 0, 56, 47
1, 1427, Note_on_c, 0, 63, 0
1, 1427, Note_on_c, 0, 68, 0
1, 1427, Note_on_c, 0, 70, 82
1, 1430, Note_on_c, 0, 60, 0
1, 1430, Note_on_c, 0, 56, 0
1, 1430, Note_on_c, 0, 51, 0
1, 1433, Note_on_c, 0, 39, 67
1, 1433, Control_c, 0, 64, 0
1, 1485, Control_c, 0, 64, 127
1, 1651, Note_on_c, 0, 39, 0
1, 1651, Note_on_c, 0, 63, 48
1, 1651, Note_on_c, 0, 68, 52
1, 1654, Note_on_c, 0, 51, 42
1, 1654, Note_on_c, 0, 60, 45
1, 1654, Note_on_c, 0, 56, 42
1, 1877, Note_on_c, 0, 68, 0
1, 1877, Note_on_c, 0, 70, 0
1, 1877, Note_on_c, 0, 63, 0
1, 1880, Note_on_c, 0, 56, 0
1, 1880, Note_on_c, 0, 60, 0
1, 1880, Note_on_c, 0, 72, 82
1, 1883, Note_on_c, 0, 51, 0
1, 1883, Note_on_c, 0, 51, 50
1, 1883, Note_on_c, 0, 60, 54
1, 1886, Note_on_c, 0, 56, 50
1, 2099, Note_on_c, 0, 56, 0
1, 2099, Note_on_c, 0, 60, 0
1, 2099, Note_on_c, 0, 72, 0
1, 2102, Note_on_c, 0, 51, 0
1, 2102, Control_c, 0, 64, 0
1, 2102, Note_on_c, 0, 46, 61
1, 2175, Control_c, 0, 64, 127
1, 2325, Note_on_c, 0, 46, 0
1, 2325, Note_on_c, 0, 73, 88
1, 2325, Note_on_c, 0, 61, 60
1, 2328, Note_on_c, 0, 55, 55
1, 2328, Note_on_c, 0, 51, 55
1, 2549, Note_on_c, 0, 51, 0
1, 2549, Note_on_c, 0, 63, 55
1, 2549, Note_on_c, 0, 67, 60
1, 2552, Note_on_c, 0, 55, 0
1, 2552, Note_on_c, 0, 61, 0
1, 2552, Note_on_c, 0, 61, 48
1, 2555, Note_on_c, 0, 55, 45
1, 2555, Note_on_c, 0, 51, 45
1, 2776, Note_on_c, 0, 73, 0
1, 2776, Note_on_c, 0, 67, 0
1, 2776, Note_on_c, 0, 63, 0
1, 2779, Note_on_c, 0, 51, 0
1, 2779, Note_on_c, 0, 55, 0
1, 2779, Note_on_c, 0, 72, 87
1, 2782, Note_on_c, 0, 61, 0
1, 2782, Note_on_c, 0, 39, 61
1, 2787, Control_c, 0, 64, 0
1, 2903, Control_c, 0, 64, 127
1, 3004, Note_on_c, 0, 39, 0
1, 3004, Note_on_c, 0, 67, 56
1, 3004, Note_on_c, 0, 63, 51
1, 3007, Note_on_c, 0, 61, 46
1, 3007, Note_on_c, 0, 55, 43
1, 3007, Note_on_c, 0, 51, 43
1, 3231, Note_on_c, 0, 63, 0
1, 3231, Note_on_c, 0, 72, 0
1, 3231, Note_on_c, 0, 67, 0
1, 3234, Note_on_c, 0, 51, 0
1, 3234, Note_on_c, 0, 55, 0
1, 3234, Note_on_c, 0, 70, 75
1, 3237, Note_on_c, 0, 61, 0
1, 3237, Note_on_c, 0, 51, 52
1, 3237, Note_on_c, 0, 55, 52
1, 3240, Note_on_c, 0, 61, 58
1, 3458, Note_on_c, 0, 61, 0
1, 3458, Note_on_c, 0, 55, 0
1, 3458, Note_on_c, 0, 70, 0
1, 3461, Note_on_c, 0, 51, 0
1, 3461, Control_c, 0, 64, 0
1, 3461, Note_on_c, 0, 44, 74
1, 3523, Control_c, 0, 64, 127
1, 3690, Note_on_c, 0, 44, 0
1, 3690, Note_on_c, 0, 72, 88
1, 3690, Note_on_c, 0, 56, 59
1, 3693, Note_on_c, 0, 60, 63
1, 3693, Note_on_c, 0, 51, 59
1, 3917, Note_on_c, 0, 51, 0
1, 3917, Note_on_c, 0, 68, 64
1, 3917, Note_on_c, 0, 63, 60
1, 3920, Note_on_c, 0, 60, 0
1, 3920, Note_on_c, 0, 56, 0
1, 3920, Note_on_c, 0, 60, 59
1, 3923, Note_on_c, 0, 56, 52
1, 3923, Note_on_c, 0, 51, 52
1, 4150, Note_on_c, 0, 72, 0
1, 4150, Note_on_c, 0, 63, 0
1, 4150, Note_on_c, 0, 68, 0
1, 4153, Note_on_c, 0, 51, 0
1, 4153, Note_on_c, 0, 56, 0
1, 4153, Note_on_c, 0, 73, 94
1, 4156, Note_on_c, 0, 60, 0
1, 4156, Note_on_c, 0, 39, 79
1, 4156, Control_c, 0, 64, 0
1, 4193, Control_c, 0, 64, 127
1, 4377, Note_on_c, 0, 39, 0
1, 4377, Note_on_c, 0, 63, 59
1, 4377, Note_on_c, 0, 68, 63
1, 4380, Note_on_c, 0, 56, 52
1, 4380, Note_on_c, 0, 60, 58
1, 4380, Note_on_c, 0, 54, 52
1, 4604, Note_on_c, 0, 68, 0
1, 4604, Note_on_c, 0, 73, 0
1, 4604, Note_on_c, 0, 63, 0
1, 4607, Note_on_c, 0, 54, 0
1, 4607, Note_on_c, 0, 60, 0
1, 4607, Note_on_c, 0, 75, 98
1, 4610, Note_on_c, 0, 56, 0
1, 4610, Note_on_c, 0, 56, 60
1, 4610, Note_on_c, 0, 60, 64
1, 4613, Note_on_c, 0, 54, 60
1, 4826, Note_on_c, 0, 54, 0
1, 4826, Note_on_c, 0, 75, 0
1, 4826, Note_on_c, 0, 77, 100
1, 4829, Note_on_c, 0, 60, 0
1, 4829, Note_on_c, 0, 56, 0
1, 4829, Control_c, 0, 64, 0
1, 4832, Note_on_c, 0, 44, 82
1, 4863, Control_c, 0, 64, 127
1, 4992, Note_on_c, 0, 44, 0
1, 4992, Note_on_c, 0, 77, 0
1, 4992, Note_on_c, 0, 53, 52
1, 5009, Note_on_c, 0, 56, 59
1, 5025, Note_on_c, 0, 59, 67
1, 5041, Note_on_c, 0, 68, 75
1, 5058, Note_on_c, 0, 74, 80
1, 5074, Note_on_c, 0, 79, 101
1, 5242, Note_on_c, 0, 79, 0
1, 5242, Note_on_c, 0, 68, 0
1, 5242, Note_on_c, 0, 74, 0
1, 5245, Note_on_c, 0, 53, 0
1, 5245, Note_on_c, 0, 59, 0
1, 5245, Note_on_c, 0, 56, 0
1, 5248, Note_on_c, 0, 53, 54
1, 5259, Note_on_c, 0, 56, 62
1, 5275, Note_on_c, 0, 59, 68
1, 5292, Note_on_c, 0, 68, 75
1, 5308, Note_on_c, 0, 74, 80
1, 5324, Note_on_c, 0, 80, 104
1, 5566, Note_on_c, 0, 80, 0
1, 5566, Note_on_c, 0, 68, 0
1, 5566, Note_on_c, 0, 74, 0
1, 5569, Note_on_c, 0, 56, 0
1, 5569, Note_on_c, 0, 59, 0
1, 5569, Note_on_c, 0, 75, 109
1, 5572, Note_on_c, 0, 53, 0
1, 5572, Control_c, 0, 64, 0
1, 5572, Note_on_c, 0, 44, 88
1, 5696, Control_c, 0, 64, 127
1, 5799, Note_on_c, 0, 72, 67
1, 5799, Note_on_c, 0, 68, 60
1, 5799, Note_on_c, 0, 63, 60
1, 5802, Note_on_c, 0, 44, 0
1, 5802, Note_on_c, 0, 56, 45
1, 5802, Note_on_c, 0, 60, 48
1, 5805, Note_on_c, 0, 51, 45
1, 6032, Note_on_c, 0, 68, 0
1, 6032, Note_on_c, 0, 63, 0
1, 6032, Note_on_c, 0, 72, 0
1, 6035, Note_on_c, 0, 72, 66
1, 6035, Note_on_c, 0, 68, 60
1, 6035, Note_on_c, 0, 63, 60
1, 6038, Note_on_c, 0, 56, 0
1, 6038, Note_on_c, 0, 51, 0
1, 6038, Note_on_c, 0, 60, 0
1, 6041, Note_on_c, 0, 56, 45
1, 6041, Note_on_c, 0, 60, 48
1, 6041, Note_on_c, 0, 51, 45
1, 6266, Note_on_c, 0, 72, 0
1, 6266, Note_on_c, 0, 63, 0
1, 6266, Note_on_c, 0, 75, 0
1, 6269, Note_on_c, 0, 68, 0
1, 6269, Note_on_c, 0, 60, 0
1, 6269, Note_on_c, 0, 51, 0
1, 6272, Note_on_c, 0, 56, 0
1, 6272, Control_c, 0, 64, 0
1, 6272, Note_on_c, 0, 45, 59
1, 6342, Control_c, 0, 64, 127
1, 6494, Note_on_c, 0, 45, 0
1, 6494, Note_on_c, 0, 78, 84
1, 6494, Note_on_c, 0, 53, 52
1, 6497, Note_on_c, 0, 63, 58
1, 6497, Note_on_c, 0, 60, 52
1, 6604, Note_on_c, 0, 78, 0
1, 6604, Note_on_c, 0, 77, 80
1, 6714, Note_on_c, 0, 77, 0
1, 6714, Note_on_c, 0, 60, 0
1, 6714, Note_on_c, 0, 75, 84
1, 6717, Note_on_c, 0, 63, 0
1, 6717, Note_on_c, 0, 53, 0
1, 6717, Note_on_c, 0, 63, 51
1, 6720, Note_on_c, 0, 60, 47
1, 6720, Note_on_c, 0, 53, 47
1, 6830, Note_on_c, 0, 75, 0
1, 6830, Note_on_c, 0, 78, 80
1, 6946, Note_on_c, 0, 78, 0
1, 6946, Note_on_c, 0, 53, 0
1, 6946, Note_on_c, 0, 77, 87
1, 6949, Note_on_c, 0, 60, 0
1, 6949, Note_on_c, 0, 63, 0
1, 6949, Note_on_c, 0, 46, 59
1, 6952, Control_c, 0, 64, 0
1, 7017, Control_c, 0, 64, 127
1, 7175, Note_on_c, 0, 46, 0
1, 7175, Note_on_c, 0, 58, 52
1, 7175, Note_on_c, 0, 61, 58
1, 7178, Note_on_c, 0, 53, 52
1, 7289, Note_on_c, 0, 77, 0
1, 7289, Note_on_c, 0, 73, 84
1, 7402, Note_on_c, 0, 73, 0
1, 7402, Note_on_c, 0, 53, 0
1, 7402, Note_on_c, 0, 70, 79
1, 7405, Note_on_c, 0, 61, 0
1, 7405, Note_on_c, 0, 58, 0
1, 7405, Control_c, 0, 64, 0
1, 7408, Note_on_c, 0, 61, 51
1, 7408, Note_on_c, 0, 58, 47
1, 7408, Note_on_c, 0, 53, 47
1, 7518, Note_on_c, 0, 70, 0
1, 7518, Note_on_c, 0, 65, 74
1, 7635, Note_on_c, 0, 65, 0
1, 7635, Note_on_c, 0, 53, 0
1, 7635, Note_on_c, 0, 58, 0
1, 7638, Note_on_c, 0, 61, 0
1, 7638, Note_on_c, 0, 43, 59
1, 7711, Control_c, 0, 64, 127
1, 7863, Note_on_c, 0, 43, 0
1, 7863, Note_on_c, 0, 76, 84
1, 7863, Note_on_c, 0, 58, 52
1, 7866, Note_on_c, 0, 61, 58
1, 7866, Note_on_c, 0, 51, 52
1, 7973, Note_on_c, 0, 76, 0
1, 7973, Note_on_c, 0, 75, 80
1, 8083, Note_on_c, 0, 75, 0
1, 8083, Note_on_c, 0, 51, 0
1, 8083, Note_on_c, 0, 73, 84
1, 8086, Note_on_c, 0, 61, 0
1, 8086, Note_on_c, 0, 58, 0
1, 8086, Note_on_c, 0, 61, 51
1, 8089, Note_on_c, 0, 58, 47
1, 8089, Note_on_c, 0, 51, 47
1, 8199, Note_on_c, 0, 73, 0
1, 8199, Note_on_c, 0, 76, 80
1, 8315, Note_on_c, 0, 76, 0
1, 8315, Note_on_c, 0, 51, 0
1, 8315, Note_on_c, 0, 75, 87
1, 8318, Note_on_c, 0, 58, 0
1, 8318, Note_on_c, 0, 61, 0
1, 8318, Note_on_c, 0, 44, 59
1, 8321, Control_c, 0, 64, 0
1, 8386, Control_c, 0, 64, 127
1, 8544, Note_on_c, 0, 44, 0
1, 8544, Note_on_c, 0, 51, 52
1, 8544, Note_on_c, 0, 60, 58
1, 8547, Note_on_c, 0, 56, 52
1, 8658, Note_on_c, 0, 75, 0
1, 8658, Note_on_c, 0, 72, 84
1, 8771, Note_on_c, 0, 72, 0
1, 8771, Note_on_c, 0, 56, 0
1, 8771, Note_on_c, 0, 68, 82
1, 8774, Note_on_c, 0, 60, 0
1, 8774, Note_on_c, 0, 51, 0
1, 8774, Control_c, 0, 64, 0
1, 8777, Note_on_c, 0, 60, 51
1, 8777, Note_on_c, 0, 56, 47
1, 8777, Note_on_c, 0, 51, 47
1, 8887, Note_on_c, 0, 68, 0
1, 8887, Note_on_c, 0, 63, 76
1, 9004, Note_on_c, 0, 63, 0
1, 9004, Note_on_c, 0, 51, 0
1, 9004, Note_on_c, 0, 56, 0
1, 9007, Note_on_c, 0, 60, 0
1, 9007, Note_on_c, 0, 42, 59
1, 9048, Control_c, 0, 64, 127
1, 9236, Note_on_c, 0, 60, 56
1, 9236, Note_on_c, 0, 63, 61
1, 9236, Note_on_c, 0, 68, 84
1, 9239, Note_on_c, 0, 42, 0
1, 9239, Note_on_c, 0, 56, 58
1, 9239, Note_on_c, 0, 54, 52
1, 9462, Note_on_c, 0, 60, 0
1, 9462, Note_on_c, 0, 63, 0
1, 9462, Note_on_c, 0, 60, 56
1, 9465, Note_on_c, 0, 54, 0
1, 9465, Note_on_c, 0, 56, 0
1, 9465, Note_on_c, 0, 63, 61
1, 9468, Note_on_c, 0, 54, 47
1, 9468, Note_on_c, 0, 56, 51
1, 9695, Note_on_c, 0, 63, 0
1, 9695, Note_on_c, 0, 60, 0
1, 9695, Note_on_c, 0, 68, 0
1, 9698, Note_on_c, 0, 54, 0
1, 9698, Note_on_c, 0, 56, 0
1, 9698, Note_on_c, 0, 67, 88
1, 9701, Note_on_c, 0, 41, 67
1, 9701, Control_c, 0, 64, 0
1, 9859, Control_c, 0, 64, 127
1, 9922, Note_on_c, 0, 41, 0
1, 9922, Note_on_c, 0, 60, 52
1, 9922, Note_on_c, 0, 65, 58
1, 9925, Note_on_c, 0, 56, 48
1, 9925, Note_on_c, 0, 53, 45
1, 10149, Note_on_c, 0, 65, 0
1, 10149, Note_on_c, 0, 67, 0
1, 10149, Note_on_c, 0, 60, 0
1, 10152, Note_on_c, 0, 60, 52
1, 10152, Note_on_c, 0, 65, 58
1, 10152, Note_on_c, 0, 68, 84
1, 10155, Note_on_c, 0, 56, 0
1, 10155, Note_on_c, 0, 53, 0
1, 10155, Note_on_c, 0, 53, 50
1, 10158, Note_on_c, 0, 56, 54
1, 10371, Note_on_c, 0, 65, 0
1, 10371, Note_on_c, 0, 68, 0
1, 10371, Note_on_c, 0, 60, 0
1, 10374, Note_on_c, 0, 53, 0
1, 10374, Note_on_c, 0, 56, 0
1, 10374, Note_on_c, 0, 70, 94
1, 10377, Control_c, 0, 64, 0
1, 10377, Note_on_c, 0, 40, 59
1, 10442, Control_c, 0, 64, 127
1, 10600, Note_on_c, 0, 40, 0
1, 10600, Note_on_c, 0, 62, 52
1, 10600, Note_on_c, 0, 68, 58
1, 10603, Note_on_c, 0, 52, 52
1, 10603, Note_on_c, 0, 56, 58
1, 10713, Note_on_c, 0, 70, 0
1, 10713, Note_on_c, 0, 71, 86
1, 10827, Note_on_c, 0, 71, 0
1, 10827, Note_on_c, 0, 62, 0
1, 10827, Note_on_c, 0, 68, 0
1, 10830, Note_on_c, 0, 62, 52
1, 10830, Note_on_c, 0, 68, 58
1, 10830, Note_on_c, 0, 70, 84
1, 10833, Note_on_c, 0, 52, 0
1, 10833, Note_on_c, 0, 56, 0
1, 10833, Note_on_c, 0, 52, 47
1, 10836, Note_on_c, 0, 56, 51
1, 10943, Note_on_c, 0, 70, 0
1, 10943, Note_on_c, 0, 71, 76
1, 11059, Note_on_c, 0, 71, 0
1, 11059, Note_on_c, 0, 68, 0
1, 11059, Note_on_c, 0, 62, 0
1, 11062, Note_on_c, 0, 52, 0
1, 11062, Note_on_c, 0, 56, 0
1, 11062, Note_on_c, 0, 67, 84
1, 11065, Note_on_c, 0, 39, 59
1, 11065, Control_c, 0, 64, 0
1, 11148, Control_c, 0, 64, 127
1, 11293, Note_on_c, 0, 39, 0
1, 11293, Note_on_c, 0, 61, 58
1, 11293, Note_on_c, 0, 63, 62
1, 11296, Note_on_c, 0, 51, 50
1, 11296, Note_on_c, 0, 58, 55
1, 11519, Note_on_c, 0, 63, 0
1, 11519, Note_on_c, 0, 61, 0
1, 11519, Note_on_c, 0, 61, 56
1, 11522, Note_on_c, 0, 58, 0
1, 11522, Note_on_c, 0, 51, 0
1, 11522, Note_on_c, 0, 63, 61
1, 11525, Note_on_c, 0, 58, 48
1, 11525, Note_on_c, 0, 51, 45
1, 11755, Note_on_c, 0, 63, 0
1, 11755, Note_on_c, 0, 61, 0
1, 11755, Note_on_c, 0, 67, 0
1, 11758, Note_on_c, 0, 58, 0
1, 11758, Note_on_c, 0, 51, 0
1, 11758, Control_c, 0, 64, 0
1, 11761, Note_on_c, 0, 44, 59
1, 11910, Control_c, 0, 64, 127
1, 11987, Note_on_c, 0, 44, 0
1, 11987, Note_on_c, 0, 68, 84
1, 11987, Note_on_c, 0, 56, 52
1, 11990, Note_on_c, 0, 60, 58
1, 11990, Note_on_c, 0, 51, 52
1, 12211, Note_on_c, 0, 51, 0
1, 12211, Note_on_c, 0, 60, 0
1, 12211, Note_on_c, 0, 63, 61
1, 12214, Note_on_c, 0, 56, 0
1, 12214, Note_on_c, 0, 51, 47
1, 12214, Note_on_c, 0, 60, 51
1, 12217, Note_on_c, 0, 56, 47
1, 12438, Note_on_c, 0, 63, 0
1, 12438, Note_on_c, 0, 68, 0
1, 12438, Note_on_c, 0, 70, 83
1, 12441, Note_on_c, 0, 60, 0
1, 12441, Note_on_c, 0, 56, 0
1, 12441, Note_on_c, 0, 51, 0
1, 12444, Note_on_c, 0, 39, 67
1, 12444, Control_c, 0, 64, 0
1, 12489, Control_c, 0, 64, 127
1, 12665, Note_on_c, 0, 39, 0
1, 12665, Note_on_c, 0, 63, 48
1, 12665, Note_on_c, 0, 68, 52
1, 12668, Note_on_c, 0, 51, 42
1, 12668, Note_on_c, 0, 60, 45
1, 12668, Note_on_c, 0, 56, 42
1, 12892, Note_on_c, 0, 68, 0
1, 12892, Note_on_c, 0, 70, 0
1, 12892, Note_on_c, 0, 63, 0
1, 12895, Note_on_c, 0, 56, 0
1, 12895, Note_on_c, 0, 60, 0
1, 12895, Note_on_c, 0, 72, 82
1, 12898, Note_on_c, 0, 51, 0
1, 12898, Note_on_c, 0, 51, 50
1, 12898, Note_on_c, 0, 60, 54
1, 12901, Note_on_c, 0, 56, 50
1, 13114, Note_on_c, 0, 56, 0
1, 13114, Note_on_c, 0, 60, 0
1, 13114, Note_on_c, 0, 72, 0
1, 13117, Note_on_c, 0, 51, 0
1, 13117, Control_c, 0, 64, 0
1, 13117, Note_on_c, 0, 46, 61
1, 13265, Control_c, 0, 64, 127
1, 13340, Note_on_c, 0, 46, 0
1, 13340, Note_on_c, 0, 73, 88
1, 13340, Note_on_c, 0, 61, 60
1, 13343, Note_on_c, 0, 55, 55
1, 13343, Note_on_c, 0, 51, 55
1, 13564, Note_on_c, 0, 51, 0
1, 13564, Note_on_c, 0, 63, 55
1, 13564, Note_on_c, 0, 67, 60
1, 13567, Note_on_c, 0, 55, 0
1, 13567, Note_on_c, 0, 61, 0
1, 13567, Note_on_c, 0, 61, 48
1, 13570, Note_on_c, 0, 55, 45
1, 13570, Note_on_c, 0, 51, 45
1, 13791, Note_on_c, 0, 73, 0
1, 13791, Note_on_c, 0, 67, 0
1, 13791, Note_on_c, 0, 63, 0
1, 13794, Note_on_c, 0, 51, 0
1, 13794, Note_on_c, 0, 55, 0
1, 13794, Note_on_c, 0, 72, 87
1, 13797, Note_on_c, 0, 61, 0
1, 13797, Note_on_c, 0, 39, 61
1, 13797, Control_c, 0, 64, 0
1, 13918, Control_c, 0, 64, 127
1, 14019, Note_on_c, 0, 39, 0
1, 14019, Note_on_c, 0, 67, 56
1, 14019, Note_on_c, 0, 63, 51
1, 14022, Note_on_c, 0, 61, 46
1, 14022, Note_on_c, 0, 55, 43
1, 14022, Note_on_c, 0, 51, 43
1, 14246, Note_on_c, 0, 63, 0
1, 14246, Note_on_c, 0, 72, 0
1, 14246, Note_on_c, 0, 67, 0
1, 14249, Note_on_c, 0, 51, 0
1, 14249, Note_on_c, 0, 55, 0
1, 14249, Note_on_c, 0, 70, 75
1, 14252, Note_on_c, 0, 61, 0
1, 14252, Note_on_c, 0, 51, 52
1, 14252, Note_on_c, 0, 55, 52
1, 14255, Note_on_c, 0, 61, 58
1, 14473, Note_on_c, 0, 61, 0
1, 14473, Note_on_c, 0, 55, 0
1, 14473, Note_on_c, 0, 70, 0
1, 14476, Note_on_c, 0, 51, 0
1, 14476, Control_c, 0, 64, 0
1, 14476, Note_on_c, 0, 44, 60
1, 14641, Control_c, 0, 64, 127
1, 14705, Note_on_c, 0, 44, 0
1, 14705, Note_on_c, 0, 72, 88
1, 14705, Note_on_c, 0, 56, 55
1, 14708, Note_on_c, 0, 60, 60
1, 14708, Note_on_c, 0, 51, 55
1, 14932, Note_on_c, 0, 51, 0
1, 14932, Note_on_c, 0, 68, 64
1, 14932, Note_on_c, 0, 63, 60
1, 14935, Note_on_c, 0, 60, 0
1, 14935, Note_on_c, 0, 56, 0
1, 14935, Note_on_c, 0, 60, 55
1, 14938, Note_on_c, 0, 56, 50
1, 14938, Note_on_c, 0, 51, 50
1, 15165, Note_on_c, 0, 72, 0
1, 15165, Note_on_c, 0, 63, 0
1, 15165, Note_on_c, 0, 68, 0
1, 15168, Note_on_c, 0, 51, 0
1, 15168, Note_on_c, 0, 56, 0
1, 15168, Note_on_c, 0, 73, 94
1, 15171, Note_on_c, 0, 60, 0
1, 15171, Note_on_c, 0, 39, 79
1, 15171, Control_c, 0, 64, 0
1, 15245, Control_c, 0, 64, 127
1, 15392, Note_on_c, 0, 39, 0
1, 15392, Note_on_c, 0, 63, 59
1, 15392, Note_on_c, 0, 68, 63
1, 15395, Note_on_c, 0, 56, 52
1, 15395, Note_on_c, 0, 60, 58
1, 15395, Note_on_c, 0, 54, 52
1, 15619, Note_on_c, 0, 68, 0
1, 15619, Note_on_c, 0, 73, 0
1, 15619, Note_on_c, 0, 63, 0
1, 15622, Note_on_c, 0, 54, 0
1, 15622, Note_on_c, 0, 60, 0
1, 15622, Note_on_c, 0, 75, 98
1, 15625, Note_on_c, 0, 56, 0
1, 15625, Note_on_c, 0, 56, 60
1, 15625, Note_on_c, 0, 60, 64
1, 15628, Note_on_c, 0, 54, 60
1, 15841, Note_on_c, 0, 54, 0
1, 15841, Note_on_c, 0, 75, 0
1, 15841, Note_on_c, 0, 77, 100
1, 15844, Note_on_c, 0, 60, 0
1, 15844, Note_on_c, 0, 56, 0
1, 15844, Note_on_c, 0, 44, 80
1, 15844, Control_c, 0, 64, 0
1, 15879, Control_c, 0, 64, 127
1, 16012, Note_on_c, 0, 44, 0
1, 16012, Note_on_c, 0, 77, 0
1, 16012, Note_on_c, 0, 53, 50
1, 16028, Note_on_c, 0, 56, 58
1, 16045, Note_on_c, 0, 59, 67
1, 16061, Note_on_c, 0, 68, 71
1, 16077, Note_on_c, 0, 74, 80
1, 16094, Note_on_c, 0, 79, 101
1, 16265, Note_on_c, 0, 79, 0
1, 16265, Note_on_c, 0, 68, 0
1, 16265, Note_on_c, 0, 74, 0
1, 16268, Note_on_c, 0, 53, 0
1, 16268, Note_on_c, 0, 59, 0
1, 16268, Note_on_c, 0, 56, 0
1, 16271, Note_on_c, 0, 53, 54
1, 16282, Note_on_c, 0, 56, 61
1, 16298, Note_on_c, 0, 59, 68
1, 16315, Note_on_c, 0, 68, 71
1, 16331, Note_on_c, 0, 74, 79
1, 16347, Note_on_c, 0, 80, 104
1, 16594, Note_on_c, 0, 80, 0
1, 16594, Note_on_c, 0, 68, 0
1, 16594, Note_on_c, 0, 74, 0
1, 16597, Note_on_c, 0, 56, 0
1, 16597, Note_on_c, 0, 59, 0
1, 16597, Note_on_c, 0, 75, 109
1, 16600, Note_on_c, 0, 53, 0
1, 16600, Note_on_c, 0, 44, 84
1, 16600, Control_c, 0, 64, 0
1, 16724, Control_c, 0, 64, 127
1, 16827, Note_on_c, 0, 63, 60
1, 16827, Note_on_c, 0, 68, 60
1, 16827, Note_on_c, 0, 72, 67
1, 16830, Note_on_c, 0, 44, 0
1, 16830, Note_on_c, 0, 56, 45
1, 16830, Note_on_c, 0, 60, 48
1, 16833, Note_on_c, 0, 51, 45
1, 17060, Note_on_c, 0, 68, 0
1, 17060, Note_on_c, 0, 72, 0
1, 17060, Note_on_c, 0, 63, 0
1, 17063, Note_on_c, 0, 63, 60
1, 17063, Note_on_c, 0, 68, 60
1, 17063, Note_on_c, 0, 72, 66
1, 17066, Note_on_c, 0, 56, 0
1, 17066, Note_on_c, 0, 51, 0
1, 17066, Note_on_c, 0, 60, 0
1, 17069, Note_on_c, 0, 56, 45
1, 17069, Note_on_c, 0, 60, 48
1, 17069, Note_on_c, 0, 51, 45
1, 17293, Note_on_c, 0, 63, 0
1, 17293, Note_on_c, 0, 72, 0
1, 17293, Note_on_c, 0, 75, 0
1, 17296, Note_on_c, 0, 68, 0
1, 17296, Note_on_c, 0, 60, 0
1, 17296, Note_on_c, 0, 51, 0
1, 17299, Note_on_c, 0, 56, 0
1, 17299, Control_c, 0, 64, 0
1, 17299, Note_on_c, 0, 45, 59
1, 17370, Control_c, 0, 64, 127
1, 17522, Note_on_c, 0, 45, 0
1, 17522, Note_on_c, 0, 78, 84
1, 17522, Note_on_c, 0, 53, 52
1, 17525, Note_on_c, 0, 63, 58
1, 17525, Note_on_c, 0, 60, 52
1, 17629, Note_on_c, 0, 78, 0
1, 17629, Note_on_c, 0, 77, 80
1, 17736, Note_on_c, 0, 77, 0
1, 17736, Note_on_c, 0, 60, 0
1, 17736, Note_on_c, 0, 75, 84
1, 17739, Note_on_c, 0, 63, 0
1, 17739, Note_on_c, 0, 53, 0
1, 17739, Note_on_c, 0, 63, 51
1, 17742, Note_on_c, 0, 60, 47
1, 17742, Note_on_c, 0, 53, 47
1, 17847, Note_on_c, 0, 75, 0
1, 17847, Note_on_c, 0, 78, 80
1, 17963, Note_on_c, 0, 78, 0
1, 17963, Note_on_c, 0, 53, 0
1, 17963, Note_on_c, 0, 77, 87
1, 17966, Note_on_c, 0, 60, 0
1, 17966, Note_on_c, 0, 63, 0
1, 17966, Note_on_c, 0, 46, 59
1, 17969, Control_c, 0, 64, 0
1, 18034, Control_c, 0, 64, 127
1, 18192, Note_on_c, 0, 46, 0
1, 18192, Note_on_c, 0, 58, 52
1, 18192, Note_on_c, 0, 61, 58
1, 18195, Note_on_c, 0, 53, 52
1, 18305, Note_on_c, 0, 77, 0
1, 18305, Note_on_c, 0, 73, 84
1, 18418, Note_on_c, 0, 73, 0
1, 18418, Note_on_c, 0, 53, 0
1, 18418, Note_on_c, 0, 70, 79
1, 18421, Note_on_c, 0, 61, 0
1, 18421, Note_on_c, 0, 58, 0
1, 18421, Control_c, 0, 64, 0
1, 18424, Note_on_c, 0, 61, 51
1, 18424, Note_on_c, 0, 58, 47
1, 18424, Note_on_c, 0, 53, 47
1, 18535, Note_on_c, 0, 70, 0
1, 18535, Note_on_c, 0, 65, 74
1, 18651, Note_on_c, 0, 65, 0
1, 18651, Note_on_c, 0, 53, 0
1, 18651, Note_on_c, 0, 58, 0
1, 18654, Note_on_c, 0, 61, 0
1, 18654, Note_on_c, 0, 47, 64
1, 18727, Control_c, 0, 64, 127
1, 18880, Note_on_c, 0, 47, 0
1, 18880, Note_on_c, 0, 80, 92
1, 18880, Note_on_c, 0, 55, 54
1, 18883, Note_on_c, 0, 62, 54
1, 18883, Note_on_c, 0, 65, 59
1, 18989, Note_on_c, 0, 80, 0
1, 18989, Note_on_c, 0, 79, 86
1, 19098, Note_on_c, 0, 79, 0
1, 19098, Note_on_c, 0, 65, 0
1, 19098, Note_on_c, 0, 77, 90
1, 19101, Note_on_c, 0, 62, 0
1, 19101, Note_on_c, 0, 55, 0
1, 19101, Note_on_c, 0, 65, 52
1, 19104, Note_on_c, 0, 62, 48
1, 19104, Note_on_c, 0, 55, 48
1, 19211, Note_on_c, 0, 77, 0
1, 19211, Note_on_c, 0, 80, 85
1, 19327, Note_on_c, 0, 80, 0
1, 19327, Note_on_c, 0, 55, 0
1, 19327, Note_on_c, 0, 79, 94
1, 19330, Note_on_c, 0, 62, 0
1, 19330, Note_on_c, 0, 65, 0
1, 19330, Note_on_c, 0, 48, 60
1, 19334, Control_c, 0, 64, 0
1, 19398, Control_c, 0, 64, 127
1, 19556, Note_on_c, 0, 48, 0
1, 19556, Note_on_c, 0, 55, 54
1, 19556, Note_on_c, 0, 64, 59
1, 19559, Note_on_c, 0, 60, 54
1, 19669, Note_on_c, 0, 79, 0
1, 19669, Note_on_c, 0, 76, 86
1, 19782, Note_on_c, 0, 76, 0
1, 19782, Note_on_c, 0, 60, 0
1, 19782, Note_on_c, 0, 72, 84
1, 19785, Note_on_c, 0, 64, 0
1, 19785, Note_on_c, 0, 55, 0
1, 19785, Control_c, 0, 64, 0
1, 19788, Note_on_c, 0, 64, 52
1, 19788, Note_on_c, 0, 60, 48
1, 19788, Note_on_c, 0, 55, 48
1, 19899, Note_on_c, 0, 72, 0
1, 19899, Note_on_c, 0, 67, 79
1, 20015, Note_on_c, 0, 67, 0
1, 20015, Note_on_c, 0, 55, 0
1, 20015, Note_on_c, 0, 60, 0
1, 20018, Note_on_c, 0, 64, 0
1, 20018, Note_on_c, 0, 48, 67
1, 20085, Control_c, 0, 64, 127
1, 20241, Note_on_c, 0, 48, 0
1, 20241, Note_on_c, 0, 74, 96
1, 20241, Note_on_c, 0, 56, 59
1, 20244, Note_on_c, 0, 62, 64
1, 20244, Note_on_c, 0, 60, 59
1, 20463, Note_on_c, 0, 60, 0
1, 20463, Note_on_c, 0, 66, 69
1, 20463, Note_on_c, 0, 72, 69
1, 20466, Note_on_c, 0, 62, 0
1, 20466, Note_on_c, 0, 56, 0
1, 20466, Note_on_c, 0, 62, 58
1, 20469, Note_on_c, 0, 60, 52
1, 20469, Note_on_c, 0, 56, 52
1, 20689, Note_on_c, 0, 74, 0
1, 20689, Note_on_c, 0, 72, 0
1, 20689, Note_on_c, 0, 66, 0
1, 20692, Note_on_c, 0, 56, 0
1, 20692, Note_on_c, 0, 60, 0
1, 20692, Note_on_c, 0, 76, 96
1, 20695, Note_on_c, 0, 62, 0
1, 20695, Note_on_c, 0, 48, 68
1, 20695, Control_c, 0, 64, 0
1, 20735, Control_c, 0, 64, 127
1, 20912, Note_on_c, 0, 48, 0
1, 20912, Note_on_c, 0, 67, 55
1, 20912, Note_on_c, 0, 72, 59
1, 20915, Note_on_c, 0, 55, 46
1, 20915, Note_on_c, 0, 60, 46
1, 20915, Note_on_c, 0, 64, 50
1, 21140, Note_on_c, 0, 72, 0
1, 21140, Note_on_c, 0, 76, 0
1, 21140, Note_on_c, 0, 67, 0
1, 21143, Note_on_c, 0, 64, 0
1, 21143, Note_on_c, 0, 60, 0
1, 21143, Note_on_c, 0, 79, 96
1, 21146, Note_on_c, 0, 55, 0
1, 21146, Note_on_c, 0, 60, 56
1, 21146, Note_on_c, 0, 64, 60
1, 21149, Note_on_c, 0, 55, 56
1, 21363, Note_on_c, 0, 55, 0
1, 21363, Note_on_c, 0, 64, 0
1, 21363, Note_on_c, 0, 79, 0
1, 21366, Note_on_c, 0, 60, 0
1, 21366, Control_c, 0, 64, 0
1, 21366, Note_on_c, 0, 48, 69
1, 21438, Control_c, 0, 64, 127
1, 21588, Note_on_c, 0, 48, 0
1, 21588, Note_on_c, 0, 74, 102
1, 21588, Note_on_c, 0, 53, 61
1, 21591, Note_on_c, 0, 56, 61
1, 21591, Note_on_c, 0, 62, 68
1, 21811, Note_on_c, 0, 62, 0
1, 21811, Note_on_c, 0, 65, 61
1, 21811, Note_on_c, 0, 71, 68
1, 21814, Note_on_c, 0, 56, 0
1, 21814, Note_on_c, 0, 53, 0
1, 21814, Note_on_c, 0, 53, 50
1, 21817, Note_on_c, 0, 62, 55
1, 21817, Note_on_c, 0, 56, 50
1, 22037, Note_on_c, 0, 74, 0
1, 22037, Note_on_c, 0, 71, 0
1, 22037, Note_on_c, 0, 65, 0
1, 22040, Note_on_c, 0, 56, 0
1, 22040, Note_on_c, 0, 62, 0
1, 22040, Note_on_c, 0, 76, 100
1, 22043, Note_on_c, 0, 53, 0
1, 22043, Note_on_c, 0, 48, 69
1, 22043, Control_c, 0, 64, 0
1, 22162, Control_c, 0, 64, 127
1, 22261, Note_on_c, 0, 48, 0
1, 22261, Note_on_c, 0, 67, 62
1, 22261, Note_on_c, 0, 64, 58
1, 22264, Note_on_c, 0, 55, 47
1, 22264, Note_on_c, 0, 60, 51
1, 22484, Note_on_c, 0, 60, 0
1, 22484, Note_on_c, 0, 76, 0
1, 22484, Note_on_c, 0, 72, 86
1, 22487, Note_on_c, 0, 55, 0
1, 22487, Note_on_c, 0, 60, 64
1, 22487, Note_on_c, 0, 55, 59
1, 22712, Note_on_c, 0, 67, 0
1, 22712, Note_on_c, 0, 72, 0
1, 22712, Note_on_c, 0, 64, 0
1, 22715, Note_on_c, 0, 60, 0
1, 22715, Note_on_c, 0, 55, 0
1, 22715, Control_c, 0, 64, 0
1, 22718, Note_on_c, 0, 48, 68
1, 22774, Control_c, 0, 64, 127
1, 22937, Note_on_c, 0, 48, 0
1, 22937, Note_on_c, 0, 74, 98
1, 22937, Note_on_c, 0, 60, 61
1, 22940, Note_on_c, 0, 62, 68
1, 22940, Note_on_c, 0, 56, 61
1, 23160, Note_on_c, 0, 56, 0
1, 23160, Note_on_c, 0, 72, 74
1, 23160, Note_on_c, 0, 66, 68
1, 23163, Note_on_c, 0, 62, 0
1, 23163, Note_on_c, 0, 60, 0
1, 23163, Note_on_c, 0, 62, 61
1, 23166, Note_on_c, 0, 60, 56
1, 23166, Note_on_c, 0, 56, 56
1, 23387, Note_on_c, 0, 74, 0
1, 23387, Note_on_c, 0, 66, 0
1, 23387, Note_on_c, 0, 72, 0
1, 23390, Note_on_c, 0, 56, 0
1, 23390, Note_on_c, 0, 60, 0
1, 23390, Note_on_c, 0, 76, 100
1, 23393, Note_on_c, 0, 62, 0
1, 23393, Note_on_c, 0, 48, 67
1, 23396, Control_c, 0, 64, 0
1, 23435, Control_c, 0, 64, 127
1, 23613, Note_on_c, 0, 48, 0
1, 23613, Note_on_c, 0, 67, 67
1, 23613, Note_on_c, 0, 72, 71
1, 23616, Note_on_c, 0, 60, 56
1, 23616, Note_on_c, 0, 64, 60
1, 23616, Note_on_c, 0, 55, 56
1, 23835, Note_on_c, 0, 72, 0
1, 23835, Note_on_c, 0, 76, 0
1, 23835, Note_on_c, 0, 67, 0
1, 23838, Note_on_c, 0, 55, 0
1, 23838, Note_on_c, 0, 64, 0
1, 23838, Note_on_c, 0, 79, 95
1, 23841, Note_on_c, 0, 60, 0
1, 23841, Note_on_c, 0, 60, 60
1, 23841, Note_on_c, 0, 64, 66
1, 23844, Note_on_c, 0, 55, 60
1, 24061, Note_on_c, 0, 55, 0
1, 24061, Note_on_c, 0, 79, 0
1, 24061, Note_on_c, 0, 74, 100
1, 24064, Note_on_c, 0, 64, 0
1, 24064, Note_on_c, 0, 60, 0
1, 24064, Note_on_c, 0, 48, 67
1, 24068, Control_c, 0, 64, 0
1, 24132, Control_c, 0, 64, 127
1, 24290, Note_on_c, 0, 48, 0
1, 24290, Note_on_c, 0, 65, 61
1, 24290, Note_on_c, 0, 71, 63
1, 24293, Note_on_c, 0, 53, 56
1, 24293, Note_on_c, 0, 62, 61
1, 24293, Note_on_c, 0, 56, 56
1, 24403, Note_on_c, 0, 74, 0
1, 24403, Note_on_c, 0, 76, 96
1, 24516, Note_on_c, 0, 76, 0
1, 24516, Note_on_c, 0, 71, 0
1, 24516, Note_on_c, 0, 65, 0
1, 24519, Note_on_c, 0, 65, 68
1, 24519, Note_on_c, 0, 71, 67
1, 24519, Note_on_c, 0, 74, 90
1, 24522, Note_on_c, 0, 53, 0
1, 24522, Note_on_c, 0, 56, 0
1, 24522, Note_on_c, 0, 62, 0
1, 24525, Note_on_c, 0, 62, 58
1, 24525, Note_on_c, 0, 56, 52
1, 24525, Note_on_c, 0, 53, 52
1, 24631, Note_on_c, 0, 74, 0
1, 24631, Note_on_c, 0, 76, 85
1, 24747, Note_on_c, 0, 76, 0
1, 24747, Note_on_c, 0, 71, 0
1, 24747, Note_on_c, 0, 65, 0
1, 24750, Note_on_c, 0, 53, 0
1, 24750, Note_on_c, 0, 56, 0
1, 24750, Note_on_c, 0, 72, 92
1, 24753, Note_on_c, 0, 62, 0
1, 24753, Note_on_c, 0, 48, 67
1, 24753, Control_c, 0, 64, 0
1, 24866, Control_c, 0, 64, 127
1, 24975, Note_on_c, 0, 48, 0
1, 24975, Note_on_c, 0, 60, 50
1, 24975, Note_on_c, 0, 64, 55
1, 24978, Note_on_c, 0, 55, 50
1, 25088, Note_on_c, 0, 72, 0
1, 25088, Note_on_c, 0, 76, 79
1, 25201, Note_on_c, 0, 76, 0
1, 25201, Note_on_c, 0, 55, 0
1, 25201, Note_on_c, 0, 75, 83
1, 25204, Note_on_c, 0, 64, 0
1, 25204, Note_on_c, 0, 60, 0
1, 25316, Note_on_c, 0, 75, 0
1, 25316, Note_on_c, 0, 76, 80
1, 25432, Note_on_c, 0, 76, 0
1, 25432, Note_on_c, 0, 72, 92
1, 25432, Note_on_c, 0, 48, 67
1, 25435, Control_c, 0, 64, 0
1, 25503, Control_c, 0, 64, 127
1, 25660, Note_on_c, 0, 48, 0
1, 25660, Note_on_c, 0, 55, 50
1, 25660, Note_on_c, 0, 64, 55
1, 25663, Note_on_c, 0, 60, 50
1, 25773, Note_on_c, 0, 72, 0
1, 25773, Note_on_c, 0, 76, 79
1, 25888, Note_on_c, 0, 76, 0
1, 25888, Note_on_c, 0, 60, 0
1, 25888, Note_on_c, 0, 75, 83
1, 25891, Note_on_c, 0, 64, 0
1, 25891, Note_on_c, 0, 55, 0
1, 26004, Note_on_c, 0, 75, 0
1, 26004, Note_on_c, 0, 76, 80
1, 26121, Note_on_c, 0, 76, 0
1, 26121, Note_on_c, 0, 72, 92
1, 26121, Note_on_c, 0, 48, 67
1, 26125, Control_c, 0, 64, 0
1, 26192, Control_c, 0, 64, 127
1, 26235, Note_on_c, 0, 72, 0
1, 26235, Note_on_c, 0, 76, 79
1, 26348, Note_on_c, 0, 76, 0
1, 26348, Note_on_c, 0, 48, 0
1, 26348, Note_on_c, 0, 75, 83
1, 26351, Note_on_c, 0, 60, 50
1, 26351, Note_on_c, 0, 64, 55
1, 26351, Note_on_c, 0, 55, 50
1, 26462, Note_on_c, 0, 75, 0
1, 26462, Note_on_c, 0, 76, 79
1, 26577, Note_on_c, 0, 76, 0
1, 26577, Note_on_c, 0, 55, 0
1, 26577, Note_on_c, 0, 72, 87
1, 26580, Note_on_c, 0, 64, 0
1, 26580, Note_on_c, 0, 60, 0
1, 26584, Control_c, 0, 64, 0
1, 26636, Control_c, 0, 64, 127
1, 26690, Note_on_c, 0, 72, 0
1, 26690, Note_on_c, 0, 76, 80
1, 26802, Note_on_c, 0, 76, 0
1, 26802, Note_on_c, 0, 75, 84
1, 26915, Note_on_c, 0, 75, 0
1, 26915, Note_on_c, 0, 76, 79
1, 27028, Note_on_c, 0, 76, 0
1, 27028, Note_on_c, 0, 72, 88
1, 27035, Control_c, 0, 64, 0
1, 27114, Control_c, 0, 64, 127
1, 27141, Note_on_c, 0, 72, 0
1, 27141, Note_on_c, 0, 76, 79
1, 27253, Note_on_c, 0, 76, 0
1, 27253, Note_on_c, 0, 75, 83
1, 27366, Note_on_c, 0, 75, 0
1, 27366, Note_on_c, 0, 76, 80
1, 27480, Note_on_c, 0, 76, 0
1, 27480, Note_on_c, 0, 73, 84
1, 27480, Control_c, 0, 64, 0
1, 27483, Note_on_c, 0, 58, 67
1, 27538, Control_c, 0, 64, 127
1, 27591, Note_on_c, 0, 73, 0
1, 27591, Note_on_c, 0, 77, 79
1, 27703, Note_on_c, 0, 77, 0
1, 27703, Note_on_c, 0, 58, 0
1, 27703, Note_on_c, 0, 76, 90
1, 27706, Note_on_c, 0, 61, 54
1, 27706, Note_on_c, 0, 65, 59
1, 27815, Note_on_c, 0, 76, 0
1, 27815, Note_on_c, 0, 77, 80
1, 27925, Note_on_c, 0, 77, 0
1, 27925, Note_on_c, 0, 65, 0
1, 27925, Note_on_c, 0, 73, 85
1, 27928, Note_on_c, 0, 61, 0
1, 27928, Note_on_c, 0, 61, 55
1, 27928, Note_on_c, 0, 65, 60
1, 28037, Note_on_c, 0, 73, 0
1, 28037, Note_on_c, 0, 77, 83
1, 28149, Note_on_c, 0, 77, 0
1, 28149, Note_on_c, 0, 65, 0
1, 28149, Note_on_c, 0, 76, 87
1, 28152, Note_on_c, 0, 61, 0
1, 28152, Control_c, 0, 64, 0
1, 28152, Note_on_c, 0, 56, 69
1, 28213, Control_c, 0, 64, 127
1, 28260, Note_on_c, 0, 76, 0
1, 28260, Note_on_c, 0, 77, 83
1, 28367, Note_on_c, 0, 73, 94
1, 28372, Note_on_c, 0, 77, 0
1, 28372, Note_on_c, 0, 56, 0
1, 28372, Note_on_c, 0, 65, 60
1, 28375, Note_on_c, 0, 61, 55
1, 28375, Note_on_c, 0, 58, 55
1, 28479, Note_on_c, 0, 73, 0
1, 28484, Note_on_c, 0, 77, 85
1, 28594, Note_on_c, 0, 77, 0
1, 28594, Note_on_c, 0, 58, 0
1, 28594, Note_on_c, 0, 76, 88
1, 28597, Note_on_c, 0, 61, 0
1, 28597, Note_on_c, 0, 65, 0
1, 28597, Note_on_c, 0, 65, 61
1, 28600, Note_on_c, 0, 61, 56
1, 28600, Note_on_c, 0, 58, 56
1, 28707, Note_on_c, 0, 76, 0
1, 28707, Note_on_c, 0, 77, 87
1, 28819, Note_on_c, 0, 77, 0
1, 28819, Note_on_c, 0, 58, 0
1, 28819, Note_on_c, 0, 71, 93
1, 28822, Note_on_c, 0, 61, 0
1, 28822, Note_on_c, 0, 65, 0
1, 28822, Note_on_c, 0, 55, 72
1, 28822, Control_c, 0, 64, 0
1, 28883, Control_c, 0, 64, 127
1, 28930, Note_on_c, 0, 77, 87
1, 29039, Note_on_c, 0, 76, 99
1, 29044, Note_on_c, 0, 77, 0
1, 29044, Note_on_c, 0, 55, 0
1, 29044, Note_on_c, 0, 62, 58
1, 29047, Note_on_c, 0, 59, 58
1, 29047, Note_on_c, 0, 65, 62
1, 29152, Note_on_c, 0, 76, 0
1, 29157, Note_on_c, 0, 77, 88
1, 29269, Note_on_c, 0, 77, 0
1, 29269, Note_on_c, 0, 65, 0
1, 29269, Note_on_c, 0, 80, 102
1, 29272, Note_on_c, 0, 59, 0
1, 29272, Note_on_c, 0, 62, 0
1, 29272, Note_on_c, 0, 65, 63
1, 29275, Note_on_c, 0, 62, 58
1, 29275, Note_on_c, 0, 59, 58
1, 29382, Note_on_c, 0, 80, 0
1, 29382, Note_on_c, 0, 79, 98
1, 29496, Note_on_c, 0, 79, 0
1, 29496, Note_on_c, 0, 71, 0
1, 29496, Note_on_c, 0, 75, 110
1, 29499, Note_on_c, 0, 62, 0
1, 29499, Note_on_c, 0, 59, 0
1, 29499, Note_on_c, 0, 65, 0
1, 29502, Control_c, 0, 64, 0
1, 29502, Note_on_c, 0, 48, 79
1, 29583, Control_c, 0, 64, 127
1, 29723, Note_on_c, 0, 48, 0
1, 29723, Note_on_c, 0, 67, 67
1, 29723, Note_on_c, 0, 60, 67
1, 29726, Note_on_c, 0, 55, 67
1, 29835, Note_on_c, 0, 75, 0
1, 29835, Note_on_c, 0, 76, 96
1, 29948, Note_on_c, 0, 76, 0
1, 29948, Note_on_c, 0, 55, 0
1, 29948, Note_on_c, 0, 79, 99
1, 29951, Note_on_c, 0, 60, 0
1, 29951, Note_on_c, 0, 67, 0
1, 29951, Note_on_c, 0, 60, 72
1, 29954, Note_on_c, 0, 55, 72
1, 29954, Note_on_c, 0, 67, 72
1, 30062, Note_on_c, 0, 79, 0
1, 30062, Note_on_c, 0, 84, 94
1, 30176, Note_on_c, 0, 84, 0
1, 30176, Note_on_c, 0, 67, 0
1, 30176, Note_on_c, 0, 69, 93
1, 30179, Note_on_c, 0, 55, 0
1, 30179, Note_on_c, 0, 60, 0
1, 30179, Note_on_c, 0, 53, 72
1, 30179, Control_c, 0, 64, 0
1, 30240, Control_c, 0, 64, 127
1, 30288, Note_on_c, 0, 75, 87
1, 30402, Note_on_c, 0, 75, 0
1, 30402, Note_on_c, 0, 53, 0
1, 30402, Note_on_c, 0, 74, 99
1, 30405, Note_on_c, 0, 65, 62
1, 30405, Note_on_c, 0, 60, 58
1, 30405, Note_on_c, 0, 57, 58
1, 30515, Note_on_c, 0, 74, 0
1, 30515, Note_on_c, 0, 75, 88
1, 30626, Note_on_c, 0, 75, 0
1, 30626, Note_on_c, 0, 57, 0
1, 30626, Note_on_c, 0, 78, 95
1, 30629, Note_on_c, 0, 60, 0
1, 30629, Note_on_c, 0, 65, 0
1, 30629, Note_on_c, 0, 65, 63
1, 30632, Note_on_c, 0, 60, 58
1, 30632, Note_on_c, 0, 57, 58
1, 30740, Note_on_c, 0, 78, 0
1, 30740, Note_on_c, 0, 77, 92
1, 30854, Note_on_c, 0, 77, 0
1, 30854, Note_on_c, 0, 69, 0
1, 30854, Note_on_c, 0, 72, 98
1, 30857, Note_on_c, 0, 60, 0
1, 30857, Note_on_c, 0, 57, 0
1, 30857, Note_on_c, 0, 65, 0
1, 30860, Note_on_c, 0, 46, 76
1, 30860, Control_c, 0, 64, 0
1, 30940, Control_c, 0, 64, 127
1, 31080, Note_on_c, 0, 46, 0
1, 31080, Note_on_c, 0, 61, 61
1, 31080, Note_on_c, 0, 58, 61
1, 31083, Note_on_c, 0, 65, 61
1, 31192, Note_on_c, 0, 72, 0
1, 31192, Note_on_c, 0, 73, 95
1, 31306, Note_on_c, 0, 73, 0
1, 31306, Note_on_c, 0, 65, 0
1, 31306, Note_on_c, 0, 77, 94
1, 31309, Note_on_c, 0, 58, 0
1, 31309, Note_on_c, 0, 61, 0
1, 31309, Note_on_c, 0, 61, 67
1, 31312, Note_on_c, 0, 58, 67
1, 31312, Note_on_c, 0, 65, 67
1, 31420, Note_on_c, 0, 77, 0
1, 31420, Note_on_c, 0, 82, 90
1, 31534, Note_on_c, 0, 82, 0
1, 31534, Note_on_c, 0, 65, 0
1, 31534, Note_on_c, 0, 69, 99
1, 31537, Note_on_c, 0, 58, 0
1, 31537, Note_on_c, 0, 61, 0
1, 31537, Note_on_c, 0, 49, 71
1, 31537, Control_c, 0, 64, 0
1, 31620, Control_c, 0, 64, 127
1, 31760, Note_on_c, 0, 49, 0
1, 31760, Note_on_c, 0, 65, 61
1, 31760, Note_on_c, 0, 58, 61
1, 31763, Note_on_c, 0, 61, 61
1, 31872, Note_on_c, 0, 69, 0
1, 31872, Note_on_c, 0, 70, 93
1, 31986, Note_on_c, 0, 70, 0
1, 31986, Note_on_c, 0, 61, 0
1, 31986, Note_on_c, 0, 73, 96
1, 31989, Note_on_c, 0, 58, 0
1, 31989, Note_on_c, 0, 65, 0
1, 31989, Note_on_c, 0, 65, 61
1, 31992, Note_on_c, 0, 58, 61
1, 31992, Note_on_c, 0, 61, 61
1, 32100, Note_on_c, 0, 73, 0
1, 32100, Note_on_c, 0, 80, 92
1, 32213, Note_on_c, 0, 80, 0
1, 32213, Note_on_c, 0, 61, 0
1, 32213, Note_on_c, 0, 79, 92
1, 32216, Note_on_c, 0, 58, 0
1, 32216, Note_on_c, 0, 65, 0
1, 32216, Note_on_c, 0, 51, 71
1, 32219, Control_c, 0, 64, 0
1, 32262, Control_c, 0, 64, 127
1, 32327, Note_on_c, 0, 79, 0
1, 32327, Note_on_c, 0, 77, 85
1, 32441, Note_on_c, 0, 77, 0
1, 32441, Note_on_c, 0, 51, 0
1, 32441, Note_on_c, 0, 75, 86
1, 32444, Note_on_c, 0, 61, 56
1, 32444, Note_on_c, 0, 63, 61
1, 32444, Note_on_c, 0, 58, 56
1, 32554, Note_on_c, 0, 75, 0
1, 32554, Note_on_c, 0, 74, 80
1, 32668, Note_on_c, 0, 74, 0
1, 32668, Note_on_c, 0, 58, 0
1, 32668, Note_on_c, 0, 77, 84
1, 32671, Note_on_c, 0, 63, 0
1, 32671, Note_on_c, 0, 61, 0
1, 32671, Note_on_c, 0, 61, 58
1, 32674, Note_on_c, 0, 63, 62
1, 32674, Note_on_c, 0, 58, 58
1, 32783, Note_on_c, 0, 77, 0
1, 32783, Note_on_c, 0, 75, 80
1, 32899, Note_on_c, 0, 75, 0
1, 32899, Note_on_c, 0, 58, 0
1, 32899, Note_on_c, 0, 73, 84
1, 32902, Note_on_c, 0, 63, 0
1, 32902, Note_on_c, 0, 61, 0
1, 32902, Note_on_c, 0, 58, 68
1, 32902, Control_c, 0, 64, 0
1, 32959, Control_c, 0, 64, 127
1, 33013, Note_on_c, 0, 73, 0
1, 33013, Note_on_c, 0, 77, 79
1, 33126, Note_on_c, 0, 77, 0
1, 33126, Note_on_c, 0, 58, 0
1, 33126, Note_on_c, 0, 76, 90
1, 33129, Note_on_c, 0, 65, 60
1, 33129, Note_on_c, 0, 61, 55
1, 33240, Note_on_c, 0, 76, 0
1, 33240, Note_on_c, 0, 77, 80
1, 33352, Note_on_c, 0, 77, 0
1, 33352, Note_on_c, 0, 61, 0
1, 33352, Note_on_c, 0, 73, 85
1, 33355, Note_on_c, 0, 65, 0
1, 33355, Note_on_c, 0, 61, 56
1, 33355, Note_on_c, 0, 65, 61
1, 33466, Note_on_c, 0, 73, 0
1, 33466, Note_on_c, 0, 77, 83
1, 33579, Note_on_c, 0, 77, 0
1, 33579, Note_on_c, 0, 65, 0
1, 33579, Note_on_c, 0, 76, 87
1, 33582, Note_on_c, 0, 61, 0
1, 33582, Note_on_c, 0, 56, 71
1, 33585, Control_c, 0, 64, 0
1, 33643, Control_c, 0, 64, 127
1, 33691, Note_on_c, 0, 76, 0
1, 33691, Note_on_c, 0, 77, 83
1, 33799, Note_on_c, 0, 73, 94
1, 33804, Note_on_c, 0, 77, 0
1, 33804, Note_on_c, 0, 56, 0
1, 33804, Note_on_c, 0, 61, 58
1, 33807, Note_on_c, 0, 58, 58
1, 33807, Note_on_c, 0, 65, 62
1, 33911, Note_on_c, 0, 73, 0
1, 33916, Note_on_c, 0, 77, 85
1, 34027, Note_on_c, 0, 77, 0
1, 34027, Note_on_c, 0, 65, 0
1, 34027, Note_on_c, 0, 76, 88
1, 34030, Note_on_c, 0, 58, 0
1, 34030, Note_on_c, 0, 61, 0
1, 34030, Note_on_c, 0, 61, 59
1, 34033, Note_on_c, 0, 58, 59
1, 34033, Note_on_c, 0, 65, 63
1, 34139, Note_on_c, 0, 76, 0
1, 34139, Note_on_c, 0, 77, 87
1, 34251, Note_on_c, 0, 77, 0
1, 34251, Note_on_c, 0, 65, 0
1, 34251, Note_on_c, 0, 71, 93
1, 34254, Note_on_c, 0, 58, 0
1, 34254, Note_on_c, 0, 61, 0
1, 34254, Note_on_c, 0, 55, 76
1, 34254, Control_c, 0, 64, 0
1, 34315, Control_c, 0, 64, 127
1, 34363, Note_on_c, 0, 77, 87
1, 34471, Note_on_c, 0, 76, 99
1, 34476, Note_on_c, 0, 77, 0
1, 34476, Note_on_c, 0, 55, 0
1, 34476, Note_on_c, 0, 65, 66
1, 34479, Note_on_c, 0, 59, 61
1, 34479, Note_on_c, 0, 62, 61
1, 34584, Note_on_c, 0, 76, 0
1, 34589, Note_on_c, 0, 77, 88
1, 34701, Note_on_c, 0, 77, 0
1, 34701, Note_on_c, 0, 62, 0
1, 34701, Note_on_c, 0, 80, 102
1, 34704, Note_on_c, 0, 59, 0
1, 34704, Note_on_c, 0, 65, 0
1, 34704, Note_on_c, 0, 62, 61
1, 34707, Note_on_c, 0, 59, 61
1, 34707, Note_on_c, 0, 65, 67
1, 34815, Note_on_c, 0, 80, 0
1, 34815, Note_on_c, 0, 79, 98
1, 34929, Note_on_c, 0, 79, 0
1, 34929, Note_on_c, 0, 71, 0
1, 34929, Note_on_c, 0, 75, 110
1, 34932, Note_on_c, 0, 59, 0
1, 34932, Note_on_c, 0, 65, 0
1, 34932, Note_on_c, 0, 62, 0
1, 34935, Note_on_c, 0, 48, 83
1, 34935, Control_c, 0, 64, 0
1, 35015, Control_c, 0, 64, 127
1, 35155, Note_on_c, 0, 48, 0
1, 35155, Note_on_c, 0, 60, 72
1, 35155, Note_on_c, 0, 55, 72
1, 35158, Note_on_c, 0, 67, 72
1, 35267, Note_on_c, 0, 75, 0
1, 35267, Note_on_c, 0, 76, 95
1, 35381, Note_on_c, 0, 76, 0
1, 35381, Note_on_c, 0, 67, 0
1, 35381, Note_on_c, 0, 79, 99
1, 35384, Note_on_c, 0, 55, 0
1, 35384, Note_on_c, 0, 60, 0
1, 35384, Note_on_c, 0, 67, 72
1, 35387, Note_on_c, 0, 60, 72
1, 35387, Note_on_c, 0, 55, 72
1, 35495, Note_on_c, 0, 79, 0
1, 35495, Note_on_c, 0, 84, 95
1, 35608, Note_on_c, 0, 84, 0
1, 35608, Note_on_c, 0, 55, 0
1, 35608, Note_on_c, 0, 69, 93
1, 35611, Note_on_c, 0, 60, 0
1, 35611, Note_on_c, 0, 67, 0
1, 35611, Note_on_c, 0, 53, 72
1, 35611, Control_c, 0, 64, 0
1, 35673, Control_c, 0, 64, 127
1, 35721, Note_on_c, 0, 75, 87
1, 35834, Note_on_c, 0, 75, 0
1, 35834, Note_on_c, 0, 53, 0
1, 35834, Note_on_c, 0, 74, 99
1, 35837, Note_on_c, 0, 60, 58
1, 35837, Note_on_c, 0, 57, 58
1, 35837, Note_on_c, 0, 65, 62
1, 35947, Note_on_c, 0, 74, 0
1, 35947, Note_on_c, 0, 75, 88
1, 36059, Note_on_c, 0, 75, 0
1, 36059, Note_on_c, 0, 65, 0
1, 36059, Note_on_c, 0, 78, 95
1, 36062, Note_on_c, 0, 57, 0
1, 36062, Note_on_c, 0, 60, 0
1, 36062, Note_on_c, 0, 65, 63
1, 36065, Note_on_c, 0, 60, 58
1, 36065, Note_on_c, 0, 57, 58
1, 36172, Note_on_c, 0, 78, 0
1, 36172, Note_on_c, 0, 77, 92
1, 36287, Note_on_c, 0, 77, 0
1, 36287, Note_on_c, 0, 69, 0
1, 36287, Note_on_c, 0, 72, 101
1, 36290, Note_on_c, 0, 60, 0
1, 36290, Note_on_c, 0, 57, 0
1, 36290, Note_on_c, 0, 65, 0
1, 36293, Note_on_c, 0, 46, 76
1, 36293, Control_c, 0, 64, 0
1, 36373, Control_c, 0, 64, 127
1, 36513, Note_on_c, 0, 46, 0
1, 36513, Note_on_c, 0, 61, 61
1, 36513, Note_on_c, 0, 58, 61
1, 36516, Note_on_c, 0, 65, 61
1, 36625, Note_on_c, 0, 72, 0
1, 36625, Note_on_c, 0, 73, 93
1, 36739, Note_on_c, 0, 73, 0
1, 36739, Note_on_c, 0, 65, 0
1, 36739, Note_on_c, 0, 77, 96
1, 36742, Note_on_c, 0, 58, 0
1, 36742, Note_on_c, 0, 61, 0
1, 36742, Note_on_c, 0, 61, 67
1, 36745, Note_on_c, 0, 58, 67
1, 36745, Note_on_c, 0, 65, 67
1, 36853, Note_on_c, 0, 77, 0
1, 36853, Note_on_c, 0, 82, 90
1, 36966, Note_on_c, 0, 82, 0
1, 36966, Note_on_c, 0, 65, 0
1, 36966, Note_on_c, 0, 69, 94
1, 36969, Note_on_c, 0, 58, 0
1, 36969, Note_on_c, 0, 61, 0
1, 36969, Note_on_c, 0, 49, 71
1, 36969, Control_c, 0, 64, 0
1, 37053, Control_c, 0, 64, 127
1, 37192, Note_on_c, 0, 49, 0
1, 37192, Note_on_c, 0, 65, 61
1, 37192, Note_on_c, 0, 58, 61
1, 37195, Note_on_c, 0, 61, 61
1, 37305, Note_on_c, 0, 69, 0
1, 37305, Note_on_c, 0, 70, 85
1, 37418, Note_on_c, 0, 70, 0
1, 37418, Note_on_c, 0, 61, 0
1, 37418, Note_on_c, 0, 72, 87
1, 37421, Note_on_c, 0, 58, 0
1, 37421, Note_on_c, 0, 65, 0
1, 37421, Note_on_c, 0, 61, 61
1, 37424, Note_on_c, 0, 58, 61
1, 37424, Note_on_c, 0, 65, 61
1, 37532, Note_on_c, 0, 72, 0
1, 37532, Note_on_c, 0, 73, 84
1, 37646, Note_on_c, 0, 73, 0
1, 37646, Note_on_c, 0, 65, 0
1, 37646, Note_on_c, 0, 66, 88
1, 37649, Note_on_c, 0, 58, 0
1, 37649, Note_on_c, 0, 61, 0
1, 37649, Note_on_c, 0, 51, 68
1, 37649, Control_c, 0, 64, 0
1, 37732, Control_c, 0, 64, 127
1, 37872, Note_on_c, 0, 51, 0
1, 37872, Note_on_c, 0, 61, 59
1, 37872, Note_on_c, 0, 58, 59
1, 37875, Note_on_c, 0, 63, 59
1, 37984, Note_on_c, 0, 66, 0
1, 37984, Note_on_c, 0, 67, 82
1, 38098, Note_on_c, 0, 67, 0
1, 38098, Note_on_c, 0, 63, 0
1, 38098, Note_on_c, 0, 69, 84
1, 38101, Note_on_c, 0, 58, 0
1, 38101, Note_on_c, 0, 61, 0
1, 38101, Note_on_c, 0, 63, 59
1, 38104, Note_on_c, 0, 58, 59
1, 38104, Note_on_c, 0, 61, 59
1, 38212, Note_on_c, 0, 69, 0
1, 38212, Note_on_c, 0, 70, 80
1, 38244, Control_c, 0, 64, 0
1, 38325, Note_on_c, 0, 70, 0
1, 38325, Note_on_c, 0, 61, 0
1, 38325, Note_on_c, 0, 58, 0
1, 38328, Note_on_c, 0, 63, 0
1, 38328, Note_on_c, 0, 44, 59
1, 38427, Control_c, 0, 64, 127
1, 38553, Note_on_c, 0, 44, 0
1, 38553, Note_on_c, 0, 68, 84
1, 38553, Note_on_c, 0, 51, 52
1, 38556, Note_on_c, 0, 56, 52
1, 38556, Note_on_c, 0, 60, 58
1, 38777, Note_on_c, 0, 60, 0
1, 38777, Note_on_c, 0, 56, 0
1, 38777, Note_on_c, 0, 63, 61
1, 38780, Note_on_c, 0, 51, 0
1, 38780, Note_on_c, 0, 51, 47
1, 38780, Note_on_c, 0, 60, 51
1, 38783, Note_on_c, 0, 56, 47
1, 39004, Note_on_c, 0, 63, 0
1, 39004, Note_on_c, 0, 68, 0
1, 39004, Note_on_c, 0, 70, 84
1, 39007, Note_on_c, 0, 60, 0
1, 39007, Note_on_c, 0, 56, 0
1, 39007, Note_on_c, 0, 51, 0
1, 39010, Note_on_c, 0, 39, 67
1, 39010, Control_c, 0, 64, 0
1, 39091, Control_c, 0, 64, 127
1, 39228, Note_on_c, 0, 39, 0
1, 39228, Note_on_c, 0, 63, 48
1, 39228, Note_on_c, 0, 68, 52
1, 39231, Note_on_c, 0, 51, 42
1, 39231, Note_on_c, 0, 56, 42
1, 39231, Note_on_c, 0, 60, 45
1, 39454, Note_on_c, 0, 68, 0
1, 39454, Note_on_c, 0, 70, 0
1, 39454, Note_on_c, 0, 63, 0
1, 39457, Note_on_c, 0, 60, 0
1, 39457, Note_on_c, 0, 56, 0
1, 39457, Note_on_c, 0, 72, 84
1, 39460, Note_on_c, 0, 51, 0
1, 39460, Note_on_c, 0, 51, 50
1, 39460, Note_on_c, 0, 56, 50
1, 39463, Note_on_c, 0, 60, 54
1, 39676, Note_on_c, 0, 60, 0
1, 39676, Note_on_c, 0, 56, 0
1, 39676, Note_on_c, 0, 72, 0
1, 39679, Note_on_c, 0, 51, 0
1, 39679, Control_c, 0, 64, 0
1, 39679, Note_on_c, 0, 46, 61
1, 39752, Control_c, 0, 64, 127
1, 39902, Note_on_c, 0, 46, 0
1, 39902, Note_on_c, 0, 73, 88
1, 39902, Note_on_c, 0, 51, 55
1, 39905, Note_on_c, 0, 61, 60
1, 39905, Note_on_c, 0, 55, 55
1, 40126, Note_on_c, 0, 55, 0
1, 40126, Note_on_c, 0, 63, 55
1, 40126, Note_on_c, 0, 67, 60
1, 40129, Note_on_c, 0, 61, 0
1, 40129, Note_on_c, 0, 51, 0
1, 40129, Note_on_c, 0, 51, 45
1, 40132, Note_on_c, 0, 61, 48
1, 40132, Note_on_c, 0, 55, 45
1, 40353, Note_on_c, 0, 73, 0
1, 40353, Note_on_c, 0, 67, 0
1, 40353, Note_on_c, 0, 63, 0
1, 40356, Note_on_c, 0, 55, 0
1, 40356, Note_on_c, 0, 61, 0
1, 40356, Note_on_c, 0, 72, 87
1, 40359, Note_on_c, 0, 51, 0
1, 40359, Note_on_c, 0, 39, 61
1, 40359, Control_c, 0, 64, 0
1, 40480, Control_c, 0, 64, 127
1, 40581, Note_on_c, 0, 39, 0
1, 40581, Note_on_c, 0, 67, 56
1, 40581, Note_on_c, 0, 63, 51
1, 40584, Note_on_c, 0, 61, 46
1, 40584, Note_on_c, 0, 51, 43
1, 40584, Note_on_c, 0, 55, 43
1, 40808, Note_on_c, 0, 63, 0
1, 40808, Note_on_c, 0, 72, 0
1, 40808, Note_on_c, 0, 67, 0
1, 40811, Note_on_c, 0, 55, 0
1, 40811, Note_on_c, 0, 51, 0
1, 40811, Note_on_c, 0, 70, 75
1, 40814, Note_on_c, 0, 61, 0
1, 40814, Note_on_c, 0, 61, 58
1, 40814, Note_on_c, 0, 51, 52
1, 40817, Note_on_c, 0, 55, 52
1, 41035, Note_on_c, 0, 55, 0
1, 41035, Note_on_c, 0, 51, 0
1, 41035, Note_on_c, 0, 70, 0
1, 41038, Note_on_c, 0, 61, 0
1, 41038, Note_on_c, 0, 44, 75
1, 41038, Control_c, 0, 64, 0
1, 41100, Control_c, 0, 64, 127
1, 41267, Note_on_c, 0, 44, 0
1, 41267, Note_on_c, 0, 72, 88
1, 41267, Note_on_c, 0, 51, 59
1, 41270, Note_on_c, 0, 56, 59
1, 41270, Note_on_c, 0, 60, 63
1, 41494, Note_on_c, 0, 60, 0
1, 41494, Note_on_c, 0, 68, 64
1, 41494, Note_on_c, 0, 63, 60
1, 41497, Note_on_c, 0, 56, 0
1, 41497, Note_on_c, 0, 51, 0
1, 41497, Note_on_c, 0, 51, 52
1, 41500, Note_on_c, 0, 60, 59
1, 41500, Note_on_c, 0, 56, 52
1, 41727, Note_on_c, 0, 72, 0
1, 41727, Note_on_c, 0, 63, 0
1, 41727, Note_on_c, 0, 68, 0
1, 41730, Note_on_c, 0, 56, 0
1, 41730, Note_on_c, 0, 60, 0
1, 41730, Note_on_c, 0, 73, 94
1, 41733, Note_on_c, 0, 51, 0
1, 41733, Note_on_c, 0, 39, 84
1, 41736, Control_c, 0, 64, 0
1, 41775, Control_c, 0, 64, 127
1, 41954, Note_on_c, 0, 39, 0
1, 41954, Note_on_c, 0, 63, 59
1, 41954, Note_on_c, 0, 68, 63
1, 41957, Note_on_c, 0, 54, 52
1, 41957, Note_on_c, 0, 56, 52
1, 41957, Note_on_c, 0, 60, 58
1, 42183, Note_on_c, 0, 68, 0
1, 42183, Note_on_c, 0, 73, 0
1, 42183, Note_on_c, 0, 63, 0
1, 42186, Note_on_c, 0, 60, 0
1, 42186, Note_on_c, 0, 56, 0
1, 42186, Note_on_c, 0, 75, 98
1, 42189, Note_on_c, 0, 54, 0
1, 42189, Note_on_c, 0, 54, 60
1, 42189, Note_on_c, 0, 56, 60
1, 42192, Note_on_c, 0, 60, 64
1, 42408, Note_on_c, 0, 60, 0
1, 42408, Note_on_c, 0, 75, 0
1, 42408, Note_on_c, 0, 77, 100
1, 42411, Note_on_c, 0, 56, 0
1, 42411, Note_on_c, 0, 54, 0
1, 42411, Note_on_c, 0, 44, 76
1, 42414, Control_c, 0, 64, 0
1, 42450, Control_c, 0, 64, 127
1, 42579, Note_on_c, 0, 44, 0
1, 42579, Note_on_c, 0, 77, 0
1, 42579, Note_on_c, 0, 53, 52
1, 42596, Note_on_c, 0, 56, 59
1, 42612, Note_on_c, 0, 59, 67
1, 42629, Note_on_c, 0, 68, 75
1, 42645, Note_on_c, 0, 74, 80
1, 42662, Note_on_c, 0, 79, 101
1, 42834, Note_on_c, 0, 79, 0
1, 42834, Note_on_c, 0, 68, 0
1, 42834, Note_on_c, 0, 74, 0
1, 42837, Note_on_c, 0, 53, 0
1, 42837, Note_on_c, 0, 59, 0
1, 42837, Note_on_c, 0, 56, 0
1, 42840, Note_on_c, 0, 53, 54
1, 42850, Note_on_c, 0, 56, 62
1, 42867, Note_on_c, 0, 59, 68
1, 42883, Note_on_c, 0, 68, 75
1, 42900, Note_on_c, 0, 74, 80
1, 42916, Note_on_c, 0, 80, 104
1, 43164, Note_on_c, 0, 80, 0
1, 43164, Note_on_c, 0, 68, 0
1, 43164, Note_on_c, 0, 74, 0
1, 43167, Note_on_c, 0, 56, 0
1, 43167, Note_on_c, 0, 59, 0
1, 43167, Note_on_c, 0, 75, 109
1, 43170, Note_on_c, 0, 53, 0
1, 43170, Note_on_c, 0, 44, 82
1, 43170, Control_c, 0, 64, 0
1, 43295, Control_c, 0, 64, 127
1, 43400, Note_on_c, 0, 63, 60
1, 43400, Note_on_c, 0, 68, 60
1, 43400, Note_on_c, 0, 72, 67
1, 43403, Note_on_c, 0, 44, 0
1, 43403, Note_on_c, 0, 51, 45
1, 43403, Note_on_c, 0, 56, 45
1, 43406, Note_on_c, 0, 60, 48
1, 43636, Note_on_c, 0, 68, 0
1, 43636, Note_on_c, 0, 72, 0
1, 43636, Note_on_c, 0, 63, 0
1, 43639, Note_on_c, 0, 63, 60
1, 43639, Note_on_c, 0, 68, 60
1, 43639, Note_on_c, 0, 72, 66
1, 43642, Note_on_c, 0, 51, 0
1, 43642, Note_on_c, 0, 60, 0
1, 43642, Note_on_c, 0, 56, 0
1, 43645, Note_on_c, 0, 51, 45
1, 43645, Note_on_c, 0, 56, 45
1, 43645, Note_on_c, 0, 60, 48
1, 43870, Note_on_c, 0, 63, 0
1, 43870, Note_on_c, 0, 72, 0
1, 43870, Note_on_c, 0, 75, 0
1, 43873, Note_on_c, 0, 68, 0
1, 43873, Note_on_c, 0, 56, 0
1, 43873, Note_on_c, 0, 60, 0
1, 43876, Note_on_c, 0, 51, 0
1, 43876, Control_c, 0, 64, 0
1, 43876, Note_on_c, 0, 45, 59
1, 43946, Control_c, 0, 64, 127
1, 44099, Note_on_c, 0, 45, 0
1, 44099, Note_on_c, 0, 78, 84
1, 44099, Note_on_c, 0, 53, 52
1, 44102, Note_on_c, 0, 60, 52
1, 44102, Note_on_c, 0, 63, 58
1, 44206, Note_on_c, 0, 78, 0
1, 44206, Note_on_c, 0, 77, 80
1, 44313, Note_on_c, 0, 77, 0
1, 44313, Note_on_c, 0, 63, 0
1, 44313, Note_on_c, 0, 75, 84
1, 44316, Note_on_c, 0, 60, 0
1, 44316, Note_on_c, 0, 53, 0
1, 44316, Note_on_c, 0, 53, 47
1, 44319, Note_on_c, 0, 63, 51
1, 44319, Note_on_c, 0, 60, 47
1, 44430, Note_on_c, 0, 75, 0
1, 44430, Note_on_c, 0, 78, 80
1, 44546, Note_on_c, 0, 78, 0
1, 44546, Note_on_c, 0, 60, 0
1, 44546, Note_on_c, 0, 77, 87
1, 44549, Note_on_c, 0, 63, 0
1, 44549, Note_on_c, 0, 53, 0
1, 44549, Note_on_c, 0, 46, 59
1, 44555, Control_c, 0, 64, 0
1, 44647, Control_c, 0, 64, 127
1, 44775, Note_on_c, 0, 46, 0
1, 44775, Note_on_c, 0, 53, 52
1, 44775, Note_on_c, 0, 58, 52
1, 44778, Note_on_c, 0, 61, 58
1, 44888, Note_on_c, 0, 77, 0
1, 44888, Note_on_c, 0, 73, 84
1, 45002, Note_on_c, 0, 73, 0
1, 45002, Note_on_c, 0, 61, 0
1, 45002, Note_on_c, 0, 70, 79
1, 45005, Note_on_c, 0, 58, 0
1, 45005, Note_on_c, 0, 53, 0
1, 45005, Note_on_c, 0, 53, 47
1, 45008, Note_on_c, 0, 61, 51
1, 45008, Note_on_c, 0, 58, 47
1, 45118, Note_on_c, 0, 70, 0
1, 45118, Note_on_c, 0, 65, 74
1, 45234, Note_on_c, 0, 65, 0
1, 45234, Note_on_c, 0, 58, 0
1, 45234, Note_on_c, 0, 61, 0
1, 45237, Note_on_c, 0, 53, 0
1, 45237, Note_on_c, 0, 43, 59
1, 45237, Control_c, 0, 64, 0
1, 45311, Control_c, 0, 64, 127
1, 45463, Note_on_c, 0, 43, 0
1, 45463, Note_on_c, 0, 76, 84
1, 45463, Note_on_c, 0, 51, 52
1, 45466, Note_on_c, 0, 58, 52
1, 45466, Note_on_c, 0, 61, 58
1, 45572, Note_on_c, 0, 76, 0
1, 45572, Note_on_c, 0, 75, 80
1, 45681, Note_on_c, 0, 75, 0
1, 45681, Note_on_c, 0, 61, 0
1, 45681, Note_on_c, 0, 73, 84
1, 45684, Note_on_c, 0, 58, 0
1, 45684, Note_on_c, 0, 51, 0
1, 45684, Note_on_c, 0, 51, 47
1, 45687, Note_on_c, 0, 61, 51
1, 45687, Note_on_c, 0, 58, 47
1, 45797, Note_on_c, 0, 73, 0
1, 45797, Note_on_c, 0, 76, 80
1, 45913, Note_on_c, 0, 76, 0
1, 45913, Note_on_c, 0, 58, 0
1, 45913, Note_on_c, 0, 75, 87
1, 45916, Note_on_c, 0, 61, 0
1, 45916, Note_on_c, 0, 51, 0
1, 45916, Note_on_c, 0, 44, 59
1, 45916, Control_c, 0, 64, 0
1, 46035, Control_c, 0, 64, 127
1, 46142, Note_on_c, 0, 44, 0
1, 46142, Note_on_c, 0, 51, 52
1, 46142, Note_on_c, 0, 56, 52
1, 46145, Note_on_c, 0, 60, 58
1, 46256, Note_on_c, 0, 75, 0
1, 46256, Note_on_c, 0, 72, 84
1, 46369, Note_on_c, 0, 72, 0
1, 46369, Note_on_c, 0, 60, 0
1, 46369, Note_on_c, 0, 68, 82
1, 46372, Note_on_c, 0, 56, 0
1, 46372, Note_on_c, 0, 51, 0
1, 46372, Note_on_c, 0, 51, 47
1, 46375, Note_on_c, 0, 60, 51
1, 46375, Note_on_c, 0, 56, 47
1, 46485, Note_on_c, 0, 68, 0
1, 46485, Note_on_c, 0, 63, 76
1, 46602, Note_on_c, 0, 63, 0
1, 46602, Note_on_c, 0, 56, 0
1, 46602, Note_on_c, 0, 60, 0
1, 46605, Note_on_c, 0, 51, 0
1, 46605, Note_on_c, 0, 42, 59
1, 46605, Control_c, 0, 64, 0
1, 46657, Control_c, 0, 64, 127
1, 46834, Note_on_c, 0, 60, 56
1, 46834, Note_on_c, 0, 63, 61
1, 46834, Note_on_c, 0, 68, 84
1, 46837, Note_on_c, 0, 42, 0
1, 46837, Note_on_c, 0, 54, 52
1, 46837, Note_on_c, 0, 56, 58
1, 47060, Note_on_c, 0, 60, 0
1, 47060, Note_on_c, 0, 63, 0
1, 47060, Note_on_c, 0, 60, 56
1, 47063, Note_on_c, 0, 56, 0
1, 47063, Note_on_c, 0, 54, 0
1, 47063, Note_on_c, 0, 63, 61
1, 47066, Note_on_c, 0, 56, 51
1, 47066, Note_on_c, 0, 54, 47
1, 47293, Note_on_c, 0, 63, 0
1, 47293, Note_on_c, 0, 60, 0
1, 47293, Note_on_c, 0, 68, 0
1, 47296, Note_on_c, 0, 56, 0
1, 47296, Note_on_c, 0, 54, 0
1, 47296, Note_on_c, 0, 67, 88
1, 47299, Note_on_c, 0, 41, 67
1, 47299, Control_c, 0, 64, 0
1, 47445, Control_c, 0, 64, 127
1, 47520, Note_on_c, 0, 41, 0
1, 47520, Note_on_c, 0, 60, 52
1, 47520, Note_on_c, 0, 65, 58
1, 47523, Note_on_c, 0, 53, 45
1, 47523, Note_on_c, 0, 56, 48
1, 47747, Note_on_c, 0, 65, 0
1, 47747, Note_on_c, 0, 67, 0
1, 47747, Note_on_c, 0, 60, 0
1, 47750, Note_on_c, 0, 60, 52
1, 47750, Note_on_c, 0, 65, 58
1, 47750, Note_on_c, 0, 68, 84
1, 47753, Note_on_c, 0, 53, 0
1, 47753, Note_on_c, 0, 56, 0
1, 47753, Note_on_c, 0, 53, 50
1, 47756, Note_on_c, 0, 56, 54
1, 47969, Note_on_c, 0, 65, 0
1, 47969, Note_on_c, 0, 68, 0
1, 47969, Note_on_c, 0, 60, 0
1, 47972, Note_on_c, 0, 53, 0
1, 47972, Note_on_c, 0, 56, 0
1, 47972, Note_on_c, 0, 70, 94
1, 47975, Note_on_c, 0, 40, 59
1, 47975, Control_c, 0, 64, 0
1, 48040, Control_c, 0, 64, 127
1, 48198, Note_on_c, 0, 40, 0
1, 48198, Note_on_c, 0, 62, 52
1, 48198, Note_on_c, 0, 68, 58
1, 48201, Note_on_c, 0, 52, 52
1, 48201, Note_on_c, 0, 56, 58
1, 48311, Note_on_c, 0, 70, 0
1, 48311, Note_on_c, 0, 71, 86
1, 48425, Note_on_c, 0, 71, 0
1, 48425, Note_on_c, 0, 62, 0
1, 48425, Note_on_c, 0, 68, 0
1, 48428, Note_on_c, 0, 62, 52
1, 48428, Note_on_c, 0, 68, 58
1, 48428, Note_on_c, 0, 70, 84
1, 48431, Note_on_c, 0, 52, 0
1, 48431, Note_on_c, 0, 56, 0
1, 48431, Note_on_c, 0, 52, 47
1, 48434, Note_on_c, 0, 56, 51
1, 48541, Note_on_c, 0, 70, 0
1, 48541, Note_on_c, 0, 71, 76
1, 48657, Note_on_c, 0, 71, 0
1, 48657, Note_on_c, 0, 68, 0
1, 48657, Note_on_c, 0, 62, 0
1, 48660, Note_on_c, 0, 52, 0
1, 48660, Note_on_c, 0, 56, 0
1, 48660, Note_on_c, 0, 67, 84
1, 48663, Note_on_c, 0, 39, 59
1, 48663, Control_c, 0, 64, 0
1, 48745, Control_c, 0, 64, 127
1, 48889, Note_on_c, 0, 39, 0
1, 48889, Note_on_c, 0, 61, 58
1, 48889, Note_on_c, 0, 63, 62
1, 48892, Note_on_c, 0, 51, 50
1, 48892, Note_on_c, 0, 58, 55
1, 49116, Note_on_c, 0, 63, 0
1, 49116, Note_on_c, 0, 61, 0
1, 49116, Note_on_c, 0, 61, 56
1, 49119, Note_on_c, 0, 58, 0
1, 49119, Note_on_c, 0, 51, 0
1, 49119, Note_on_c, 0, 63, 61
1, 49122, Note_on_c, 0, 58, 48
1, 49122, Note_on_c, 0, 51, 45
1, 49352, Note_on_c, 0, 63, 0
1, 49352, Note_on_c, 0, 61, 0
1, 49352, Note_on_c, 0, 67, 0
1, 49355, Note_on_c, 0, 58, 0
1, 49355, Note_on_c, 0, 51, 0
1, 49355, Control_c, 0, 64, 0
1, 49358, Note_on_c, 0, 44, 59
1, 49506, Control_c, 0, 64, 127
1, 49584, Note_on_c, 0, 44, 0
1, 49584, Note_on_c, 0, 68, 84
1, 49584, Note_on_c, 0, 51, 52
1, 49587, Note_on_c, 0, 56, 52
1, 49587, Note_on_c, 0, 60, 58
1, 49808, Note_on_c, 0, 60, 0
1, 49808, Note_on_c, 0, 56, 0
1, 49808, Note_on_c, 0, 63, 61
1, 49811, Note_on_c, 0, 51, 0
1, 49811, Note_on_c, 0, 51, 47
1, 49811, Note_on_c, 0, 60, 51
1, 49814, Note_on_c, 0, 56, 47
1, 50035, Note_on_c, 0, 63, 0
1, 50035, Note_on_c, 0, 68, 0
1, 50035, Note_on_c, 0, 70, 84
1, 50038, Note_on_c, 0, 60, 0
1, 50038, Note_on_c, 0, 56, 0
1, 50038, Note_on_c, 0, 51, 0
1, 50041, Note_on_c, 0, 39, 67
1, 50041, Control_c, 0, 64, 0
1, 50111, Control_c, 0, 64, 127
1, 50262, Note_on_c, 0, 39, 0
1, 50262, Note_on_c, 0, 63, 48
1, 50262, Note_on_c, 0, 68, 52
1, 50265, Note_on_c, 0, 51, 42
1, 50265, Note_on_c, 0, 56, 42
1, 50265, Note_on_c, 0, 60, 45
1, 50489, Note_on_c, 0, 68, 0
1, 50489, Note_on_c, 0, 70, 0
1, 50489, Note_on_c, 0, 63, 0
1, 50492, Note_on_c, 0, 60, 0
1, 50492, Note_on_c, 0, 56, 0
1, 50492, Note_on_c, 0, 72, 80
1, 50495, Note_on_c, 0, 51, 0
1, 50495, Note_on_c, 0, 51, 50
1, 50495, Note_on_c, 0, 56, 50
1, 50498, Note_on_c, 0, 60, 54
1, 50711, Note_on_c, 0, 60, 0
1, 50711, Note_on_c, 0, 56, 0
1, 50711, Note_on_c, 0, 72, 0
1, 50714, Note_on_c, 0, 51, 0
1, 50714, Note_on_c, 0, 46, 61
1, 50714, Control_c, 0, 64, 0
1, 50837, Control_c, 0, 64, 127
1, 50937, Note_on_c, 0, 46, 0
1, 50937, Note_on_c, 0, 73, 88
1, 50937, Note_on_c, 0, 51, 55
1, 50940, Note_on_c, 0, 61, 60
1, 50940, Note_on_c, 0, 55, 55
1, 51161, Note_on_c, 0, 55, 0
1, 51161, Note_on_c, 0, 63, 55
1, 51161, Note_on_c, 0, 67, 60
1, 51164, Note_on_c, 0, 61, 0
1, 51164, Note_on_c, 0, 51, 0
1, 51164, Note_on_c, 0, 51, 45
1, 51167, Note_on_c, 0, 61, 48
1, 51167, Note_on_c, 0, 55, 45
1, 51388, Note_on_c, 0, 73, 0
1, 51388, Note_on_c, 0, 67, 0
1, 51388, Note_on_c, 0, 63, 0
1, 51391, Note_on_c, 0, 55, 0
1, 51391, Note_on_c, 0, 61, 0
1, 51391, Note_on_c, 0, 72, 87
1, 51394, Note_on_c, 0, 51, 0
1, 51394, Note_on_c, 0, 39, 61
1, 51394, Control_c, 0, 64, 0
1, 51514, Control_c, 0, 64, 127
1, 51615, Note_on_c, 0, 39, 0
1, 51615, Note_on_c, 0, 67, 56
1, 51615, Note_on_c, 0, 63, 51
1, 51618, Note_on_c, 0, 61, 46
1, 51618, Note_on_c, 0, 51, 43
1, 51618, Note_on_c, 0, 55, 43
1, 51843, Note_on_c, 0, 63, 0
1, 51843, Note_on_c, 0, 72, 0
1, 51843, Note_on_c, 0, 67, 0
1, 51846, Note_on_c, 0, 55, 0
1, 51846, Note_on_c, 0, 51, 0
1, 51846, Note_on_c, 0, 70, 75
1, 51849, Note_on_c, 0, 61, 0
1, 51849, Note_on_c, 0, 61, 58
1, 51849, Note_on_c, 0, 51, 52
1, 51852, Note_on_c, 0, 55, 52
1, 52070, Note_on_c, 0, 55, 0
1, 52070, Note_on_c, 0, 51, 0
1, 52070, Note_on_c, 0, 70, 0
1, 52073, Note_on_c, 0, 61, 0
1, 52073, Note_on_c, 0, 44, 60
1, 52073, Control_c, 0, 64, 0
1, 52238, Control_c, 0, 64, 127
1, 52302, Note_on_c, 0, 44, 0
1, 52302, Note_on_c, 0, 72, 88
1, 52302, Note_on_c, 0, 51, 55
1, 52305, Note_on_c, 0, 56, 55
1, 52305, Note_on_c, 0, 60, 60
1, 52528, Note_on_c, 0, 60, 0
1, 52528, Note_on_c, 0, 68, 64
1, 52528, Note_on_c, 0, 63, 60
1, 52531, Note_on_c, 0, 56, 0
1, 52531, Note_on_c, 0, 51, 0
1, 52531, Note_on_c, 0, 51, 50
1, 52534, Note_on_c, 0, 60, 55
1, 52534, Note_on_c, 0, 56, 50
1, 52761, Note_on_c, 0, 72, 0
1, 52761, Note_on_c, 0, 63, 0
1, 52761, Note_on_c, 0, 68, 0
1, 52764, Note_on_c, 0, 56, 0
1, 52764, Note_on_c, 0, 60, 0
1, 52764, Note_on_c, 0, 73, 94
1, 52767, Note_on_c, 0, 51, 0
1, 52767, Note_on_c, 0, 39, 79
1, 52767, Control_c, 0, 64, 0
1, 52808, Control_c, 0, 64, 127
1, 52989, Note_on_c, 0, 39, 0
1, 52989, Note_on_c, 0, 63, 59
1, 52989, Note_on_c, 0, 68, 63
1, 52992, Note_on_c, 0, 54, 52
1, 52992, Note_on_c, 0, 56, 52
1, 52992, Note_on_c, 0, 60, 58
1, 53215, Note_on_c, 0, 68, 0
1, 53215, Note_on_c, 0, 73, 0
1, 53215, Note_on_c, 0, 63, 0
1, 53218, Note_on_c, 0, 60, 0
1, 53218, Note_on_c, 0, 56, 0
1, 53218, Note_on_c, 0, 75, 98
1, 53221, Note_on_c, 0, 54, 0
1, 53221, Note_on_c, 0, 54, 60
1, 53221, Note_on_c, 0, 56, 60
1, 53224, Note_on_c, 0, 60, 64
1, 53437, Note_on_c, 0, 60, 0
1, 53437, Note_on_c, 0, 75, 0
1, 53437, Note_on_c, 0, 77, 100
1, 53440, Note_on_c, 0, 56, 0
1, 53440, Note_on_c, 0, 54, 0
1, 53440, Note_on_c, 0, 44, 82
1, 53440, Control_c, 0, 64, 0
1, 53471, Control_c, 0, 64, 127
1, 53606, Note_on_c, 0, 44, 0
1, 53606, Note_on_c, 0, 77, 0
1, 53606, Note_on_c, 0, 53, 50
1, 53622, Note_on_c, 0, 56, 58
1, 53639, Note_on_c, 0, 59, 67
1, 53655, Note_on_c, 0, 68, 71
1, 53671, Note_on_c, 0, 74, 80
1, 53688, Note_on_c, 0, 79, 101
1, 53855, Note_on_c, 0, 79, 0
1, 53855, Note_on_c, 0, 68, 0
1, 53855, Note_on_c, 0, 74, 0
1, 53858, Note_on_c, 0, 53, 0
1, 53858, Note_on_c, 0, 59, 0
1, 53858, Note_on_c, 0, 56, 0
1, 53861, Note_on_c, 0, 53, 54
1, 53872, Note_on_c, 0, 56, 61
1, 53888, Note_on_c, 0, 59, 68
1, 53904, Note_on_c, 0, 68, 71
1, 53921, Note_on_c, 0, 74, 79
1, 53937, Note_on_c, 0, 80, 104
1, 54181, Note_on_c, 0, 80, 0
1, 54181, Note_on_c, 0, 68, 0
1, 54181, Note_on_c, 0, 74, 0
1, 54184, Note_on_c, 0, 56, 0
1, 54184, Note_on_c, 0, 59, 0
1, 54184, Note_on_c, 0, 75, 109
1, 54187, Note_on_c, 0, 53, 0
1, 54187, Note_on_c, 0, 44, 88
1, 54187, Control_c, 0, 64, 0
1, 54376, Control_c, 0, 64, 127
1, 54415, Note_on_c, 0, 63, 60
1, 54415, Note_on_c, 0, 68, 60
1, 54415, Note_on_c, 0, 72, 67
1, 54418, Note_on_c, 0, 44, 0
1, 54418, Note_on_c, 0, 51, 45
1, 54418, Note_on_c, 0, 56, 45
1, 54421, Note_on_c, 0, 60, 48
1, 54649, Note_on_c, 0, 68, 0
1, 54649, Note_on_c, 0, 72, 0
1, 54649, Note_on_c, 0, 63, 0
1, 54652, Note_on_c, 0, 63, 60
1, 54652, Note_on_c, 0, 68, 60
1, 54652, Note_on_c, 0, 72, 66
1, 54655, Note_on_c, 0, 51, 0
1, 54655, Note_on_c, 0, 60, 0
1, 54655, Note_on_c, 0, 56, 0
1, 54658, Note_on_c, 0, 51, 45
1, 54658, Note_on_c, 0, 56, 45
1, 54658, Note_on_c, 0, 60, 48
1, 54883, Note_on_c, 0, 63, 0
1, 54883, Note_on_c, 0, 72, 0
1, 54883, Note_on_c, 0, 75, 0
1, 54886, Note_on_c, 0, 68, 0
1, 54886, Note_on_c, 0, 56, 0
1, 54886, Note_on_c, 0, 60, 0
1, 54889, Note_on_c, 0, 51, 0
1, 54889, Note_on_c, 0, 45, 59
1, 54889, Control_c, 0, 64, 0
1, 54959, Control_c, 0, 64, 127
1, 55112, Note_on_c, 0, 45, 0
1, 55112, Note_on_c, 0, 78, 84
1, 55112, Note_on_c, 0, 53, 52
1, 55115, Note_on_c, 0, 60, 52
1, 55115, Note_on_c, 0, 63, 58
1, 55218, Note_on_c, 0, 78, 0
1, 55218, Note_on_c, 0, 77, 80
1, 55324, Note_on_c, 0, 77, 0
1, 55324, Note_on_c, 0, 63, 0
1, 55324, Note_on_c, 0, 75, 84
1, 55327, Note_on_c, 0, 60, 0
1, 55327, Note_on_c, 0, 53, 0
1, 55327, Note_on_c, 0, 53, 47
1, 55330, Note_on_c, 0, 63, 51
1, 55330, Note_on_c, 0, 60, 47
1, 55440, Note_on_c, 0, 75, 0
1, 55440, Note_on_c, 0, 78, 80
1, 55557, Note_on_c, 0, 78, 0
1, 55557, Note_on_c, 0, 60, 0
1, 55557, Note_on_c, 0, 77, 87
1, 55560, Note_on_c, 0, 63, 0
1, 55560, Note_on_c, 0, 53, 0
1, 55560, Note_on_c, 0, 46, 59
1, 55560, Control_c, 0, 64, 0
1, 55628, Control_c, 0, 64, 127
1, 55785, Note_on_c, 0, 46, 0
1, 55785, Note_on_c, 0, 53, 52
1, 55785, Note_on_c, 0, 58, 52
1, 55788, Note_on_c, 0, 61, 58
1, 55899, Note_on_c, 0, 77, 0
1, 55899, Note_on_c, 0, 73, 84
1, 56012, Note_on_c, 0, 73, 0
1, 56012, Note_on_c, 0, 61, 0
1, 56012, Note_on_c, 0, 70, 79
1, 56015, Note_on_c, 0, 58, 0
1, 56015, Note_on_c, 0, 53, 0
1, 56015, Control_c, 0, 64, 0
1, 56018, Note_on_c, 0, 53, 47
1, 56018, Note_on_c, 0, 61, 51
1, 56018, Note_on_c, 0, 58, 47
1, 56128, Note_on_c, 0, 70, 0
1, 56128, Note_on_c, 0, 65, 74
1, 56245, Note_on_c, 0, 65, 0
1, 56245, Note_on_c, 0, 58, 0
1, 56245, Note_on_c, 0, 61, 0
1, 56248, Note_on_c, 0, 53, 0
1, 56248, Note_on_c, 0, 47, 64
1, 56321, Control_c, 0, 64, 127
1, 56474, Note_on_c, 0, 47, 0
1, 56474, Note_on_c, 0, 80, 92
1, 56474, Note_on_c, 0, 65, 59
1, 56477, Note_on_c, 0, 55, 54
1, 56477, Note_on_c, 0, 62, 54
1, 56582, Note_on_c, 0, 80, 0
1, 56582, Note_on_c, 0, 79, 86
1, 56690, Note_on_c, 0, 79, 0
1, 56690, Note_on_c, 0, 62, 0
1, 56690, Note_on_c, 0, 77, 90
1, 56693, Note_on_c, 0, 55, 0
1, 56693, Note_on_c, 0, 65, 0
1, 56693, Note_on_c, 0, 55, 48
1, 56696, Note_on_c, 0, 65, 52
1, 56696, Note_on_c, 0, 62, 48
1, 56803, Note_on_c, 0, 77, 0
1, 56803, Note_on_c, 0, 80, 85
1, 56919, Note_on_c, 0, 80, 0
1, 56919, Note_on_c, 0, 62, 0
1, 56919, Note_on_c, 0, 79, 94
1, 56922, Note_on_c, 0, 65, 0
1, 56922, Note_on_c, 0, 55, 0
1, 56922, Note_on_c, 0, 48, 60
1, 56925, Control_c, 0, 64, 0
1, 56990, Control_c, 0, 64, 127
1, 57148, Note_on_c, 0, 48, 0
1, 57148, Note_on_c, 0, 55, 54
1, 57148, Note_on_c, 0, 60, 54
1, 57151, Note_on_c, 0, 64, 59
1, 57261, Note_on_c, 0, 79, 0
1, 57261, Note_on_c, 0, 76, 86
1, 57374, Note_on_c, 0, 76, 0
1, 57374, Note_on_c, 0, 64, 0
1, 57374, Note_on_c, 0, 72, 84
1, 57377, Note_on_c, 0, 60, 0
1, 57377, Note_on_c, 0, 55, 0
1, 57377, Control_c, 0, 64, 0
1, 57380, Note_on_c, 0, 55, 48
1, 57380, Note_on_c, 0, 64, 52
1, 57380, Note_on_c, 0, 60, 48
1, 57491, Note_on_c, 0, 72, 0
1, 57491, Note_on_c, 0, 67, 79
1, 57607, Note_on_c, 0, 67, 0
1, 57607, Note_on_c, 0, 60, 0
1, 57607, Note_on_c, 0, 64, 0
1, 57610, Note_on_c, 0, 55, 0
1, 57610, Note_on_c, 0, 49, 68
1, 57683, Control_c, 0, 64, 127
1, 57836, Note_on_c, 0, 49, 0
1, 57836, Note_on_c, 0, 82, 96
1, 57836, Note_on_c, 0, 65, 61
1, 57839, Note_on_c, 0, 58, 56
1, 57839, Note_on_c, 0, 61, 56
1, 57948, Note_on_c, 0, 82, 0
1, 57948, Note_on_c, 0, 80, 90
1, 58060, Note_on_c, 0, 80, 0
1, 58060, Note_on_c, 0, 61, 0
1, 58060, Note_on_c, 0, 79, 95
1, 58063, Note_on_c, 0, 58, 0
1, 58063, Note_on_c, 0, 65, 0
1, 58063, Note_on_c, 0, 58, 50
1, 58066, Note_on_c, 0, 65, 55
1, 58066, Note_on_c, 0, 61, 50
1, 58177, Note_on_c, 0, 79, 0
1, 58177, Note_on_c, 0, 82, 88
1, 58293, Note_on_c, 0, 82, 0
1, 58293, Note_on_c, 0, 61, 0
1, 58293, Note_on_c, 0, 80, 99
1, 58296, Note_on_c, 0, 65, 0
1, 58296, Note_on_c, 0, 58, 0
1, 58296, Note_on_c, 0, 50, 62
1, 58296, Control_c, 0, 64, 0
1, 58364, Control_c, 0, 64, 127
1, 58522, Note_on_c, 0, 50, 0
1, 58522, Note_on_c, 0, 56, 56
1, 58522, Note_on_c, 0, 59, 56
1, 58525, Note_on_c, 0, 65, 61
1, 58635, Note_on_c, 0, 80, 0
1, 58635, Note_on_c, 0, 77, 90
1, 58749, Note_on_c, 0, 77, 0
1, 58749, Note_on_c, 0, 65, 0
1, 58749, Note_on_c, 0, 71, 87
1, 58752, Note_on_c, 0, 59, 0
1, 58752, Note_on_c, 0, 56, 0
1, 58752, Control_c, 0, 64, 0
1, 58755, Note_on_c, 0, 56, 50
1, 58755, Note_on_c, 0, 65, 55
1, 58755, Note_on_c, 0, 59, 50
1, 58865, Note_on_c, 0, 71, 0
1, 58865, Note_on_c, 0, 68, 83
1, 58981, Note_on_c, 0, 68, 0
1, 58981, Note_on_c, 0, 59, 0
1, 58981, Note_on_c, 0, 77, 90
1, 58984, Note_on_c, 0, 65, 0
1, 58984, Note_on_c, 0, 56, 0
1, 58984, Note_on_c, 0, 51, 58
1, 59052, Control_c, 0, 64, 127
1, 59210, Note_on_c, 0, 51, 0
1, 59210, Note_on_c, 0, 55, 51
1, 59210, Note_on_c, 0, 61, 51
1, 59213, Note_on_c, 0, 63, 56
1, 59325, Note_on_c, 0, 77, 0
1, 59325, Note_on_c, 0, 73, 83
1, 59440, Note_on_c, 0, 73, 0
1, 59440, Note_on_c, 0, 63, 0
1, 59440, Note_on_c, 0, 70, 80
1, 59443, Note_on_c, 0, 61, 0
1, 59443, Note_on_c, 0, 55, 0
1, 59443, Note_on_c, 0, 55, 46
1, 59446, Note_on_c, 0, 63, 50
1, 59446, Note_on_c, 0, 61, 46
1, 59559, Note_on_c, 0, 70, 0
1, 59559, Note_on_c, 0, 67, 75
1, 59679, Note_on_c, 0, 67, 0
1, 59679, Note_on_c, 0, 61, 0
1, 59679, Note_on_c, 0, 70, 83
1, 59682, Note_on_c, 0, 63, 0
1, 59682, Note_on_c, 0, 55, 0
1, 59682, Note_on_c, 0, 44, 52
1, 59685, Control_c, 0, 64, 0
1, 59782, Control_c, 0, 64, 127
1, 59913, Note_on_c, 0, 44, 0
1, 59913, Note_on_c, 0, 51, 47
1, 59913, Note_on_c, 0, 56, 47
1, 59916, Note_on_c, 0, 60, 51
1, 60028, Note_on_c, 0, 70, 0
1, 60028, Note_on_c, 0, 68, 75
1, 60142, Note_on_c, 0, 68, 0
1, 60142, Note_on_c, 0, 60, 0
1, 60142, Note_on_c, 0, 63, 72
1, 60145, Note_on_c, 0, 56, 0
1, 60145, Note_on_c, 0, 51, 0
1, 60145, Control_c, 0, 64, 0
1, 60148, Note_on_c, 0, 51, 43
1, 60148, Note_on_c, 0, 60, 46
1, 60148, Note_on_c, 0, 56, 43
1, 60262, Note_on_c, 0, 63, 0
1, 60262, Note_on_c, 0, 60, 69
1, 60386, Note_on_c, 0, 60, 0
1, 60386, Note_on_c, 0, 56, 0
1, 60386, Note_on_c, 0, 60, 0
1, 60389, Note_on_c, 0, 51, 0
1, 60389, Note_on_c, 0, 59, 70
1, 60617, Note_on_c, 0, 68, 75
1, 60617, Note_on_c, 0, 52, 61
1, 60697, Control_c, 0, 64, 127
1, 60730, Note_on_c, 0, 59, 0
1, 60730, Note_on_c, 0, 58, 67
1, 60843, Note_on_c, 0, 58, 0
1, 60843, Note_on_c, 0, 61, 70
1, 60957, Note_on_c, 0, 61, 0
1, 60957, Note_on_c, 0, 58, 64
1, 61071, Note_on_c, 0, 58, 0
1, 61071, Note_on_c, 0, 59, 69
1, 61075, Control_c, 0, 64, 0
1, 61257, Control_c, 0, 64, 127
1, 61294, Note_on_c, 0, 52, 0
1, 61294, Note_on_c, 0, 51, 70
1, 61522, Note_on_c, 0, 68, 0
1, 61522, Note_on_c, 0, 66, 75
1, 61751, Note_on_c, 0, 59, 0
1, 61751, Note_on_c, 0, 59, 70
1, 61755, Control_c, 0, 64, 0
1, 61925, Control_c, 0, 64, 127
1, 61974, Note_on_c, 0, 51, 0
1, 61974, Note_on_c, 0, 49, 68
1, 62204, Note_on_c, 0, 66, 0
1, 62204, Note_on_c, 0, 64, 75
1, 62428, Note_on_c, 0, 59, 0
1, 62428, Note_on_c, 0, 59, 70
1, 62432, Control_c, 0, 64, 0
1, 62493, Control_c, 0, 64, 127
1, 62657, Note_on_c, 0, 49, 0
1, 62657, Note_on_c, 0, 47, 71
1, 62770, Note_on_c, 0, 64, 0
1, 62770, Note_on_c, 0, 63, 69
1, 62882, Note_on_c, 0, 63, 0
1, 62882, Note_on_c, 0, 62, 72
1, 62996, Note_on_c, 0, 62, 0
1, 62996, Note_on_c, 0, 63, 70
1, 63110, Note_on_c, 0, 63, 0
1, 63110, Note_on_c, 0, 47, 0
1, 63110, Note_on_c, 0, 59, 0
1, 63113, Note_on_c, 0, 59, 70
1, 63116, Control_c, 0, 64, 0
1, 63341, Note_on_c, 0, 68, 75
1, 63341, Note_on_c, 0, 52, 61
1, 63421, Control_c, 0, 64, 127
1, 63453, Note_on_c, 0, 59, 0
1, 63453, Note_on_c, 0, 58, 67
1, 63564, Note_on_c, 0, 58, 0
1, 63564, Note_on_c, 0, 61, 70
1, 63678, Note_on_c, 0, 61, 0
1, 63678, Note_on_c, 0, 58, 64
1, 63792, Note_on_c, 0, 58, 0
1, 63792, Note_on_c, 0, 59, 69
1, 63797, Control_c, 0, 64, 0
1, 63903, Control_c, 0, 64, 127
1, 64014, Note_on_c, 0, 52, 0
1, 64014, Note_on_c, 0, 51, 70
1, 64242, Note_on_c, 0, 68, 0
1, 64242, Note_on_c, 0, 66, 75
1, 64471, Note_on_c, 0, 59, 0
1, 64471, Note_on_c, 0, 59, 70
1, 64475, Control_c, 0, 64, 0
1, 64645, Control_c, 0, 64, 127
1, 64694, Note_on_c, 0, 51, 0
1, 64694, Note_on_c, 0, 49, 68
1, 64924, Note_on_c, 0, 76, 94
1, 65146, Note_on_c, 0, 59, 0
1, 65146, Note_on_c, 0, 59, 70
1, 65151, Control_c, 0, 64, 0
1, 65240, Control_c, 0, 64, 127
1, 65373, Note_on_c, 0, 49, 0
1, 65373, Note_on_c, 0, 47, 71
1, 65485, Note_on_c, 0, 76, 0
1, 65485, Note_on_c, 0, 75, 80
1, 65598, Note_on_c, 0, 75, 0
1, 65598, Note_on_c, 0, 71, 84
1, 65712, Note_on_c, 0, 71, 0
1, 65712, Note_on_c, 0, 66, 0
1, 65712, Note_on_c, 0, 66, 79
1, 65826, Note_on_c, 0, 66, 0
1, 65826, Note_on_c, 0, 59, 0
1, 65826, Note_on_c, 0, 47, 0
1, 65829, Control_c, 0, 64, 0
1, 65829, Note_on_c, 0, 59, 70
1, 66057, Note_on_c, 0, 68, 75
1, 66057, Note_on_c, 0, 52, 61
1, 66136, Control_c, 0, 64, 127
1, 66168, Note_on_c, 0, 59, 0
1, 66168, Note_on_c, 0, 58, 67
1, 66278, Note_on_c, 0, 58, 0
1, 66278, Note_on_c, 0, 61, 70
1, 66393, Note_on_c, 0, 61, 0
1, 66393, Note_on_c, 0, 58, 64
1, 66507, Note_on_c, 0, 58, 0
1, 66507, Note_on_c, 0, 59, 69
1, 66511, Control_c, 0, 64, 0
1, 66729, Note_on_c, 0, 52, 0
1, 66729, Control_c, 0, 64, 127
1, 66729, Note_on_c, 0, 51, 70
1, 66957, Note_on_c, 0, 68, 0
1, 66957, Note_on_c, 0, 66, 75
1, 67186, Note_on_c, 0, 59, 0
1, 67186, Note_on_c, 0, 59, 70
1, 67191, Control_c, 0, 64, 0
1, 67297, Control_c, 0, 64, 127
1, 67409, Note_on_c, 0, 51, 0
1, 67409, Note_on_c, 0, 49, 68
1, 67639, Note_on_c, 0, 66, 0
1, 67639, Note_on_c, 0, 64, 75
1, 67862, Note_on_c, 0, 59, 0
1, 67862, Note_on_c, 0, 59, 70
1, 67867, Control_c, 0, 64, 0
1, 67933, Control_c, 0, 64, 127
1, 68091, Note_on_c, 0, 49, 0
1, 68091, Note_on_c, 0, 47, 71
1, 68203, Note_on_c, 0, 64, 0
1, 68203, Note_on_c, 0, 63, 69
1, 68314, Note_on_c, 0, 63, 0
1, 68314, Note_on_c, 0, 62, 72
1, 68428, Note_on_c, 0, 62, 0
1, 68428, Note_on_c, 0, 63, 70
1, 68543, Note_on_c, 0, 63, 0
1, 68543, Note_on_c, 0, 47, 0
1, 68543, Note_on_c, 0, 59, 0
1, 68546, Control_c, 0, 64, 0
1, 68546, Note_on_c, 0, 59, 70
1, 68773, Note_on_c, 0, 68, 75
1, 68773, Note_on_c, 0, 52, 61
1, 68853, Control_c, 0, 64, 127
1, 68885, Note_on_c, 0, 59, 0
1, 68885, Note_on_c, 0, 58, 67
1, 68996, Note_on_c, 0, 58, 0
1, 68996, Note_on_c, 0, 61, 70
1, 69110, Note_on_c, 0, 61, 0
1, 69110, Note_on_c, 0, 58, 64
1, 69224, Note_on_c, 0, 58, 0
1, 69224, Note_on_c, 0, 59, 69
1, 69229, Control_c, 0, 64, 0
1, 69422, Control_c, 0, 64, 127
1, 69446, Note_on_c, 0, 52, 0
1, 69446, Note_on_c, 0, 51, 70
1, 69675, Note_on_c, 0, 68, 0
1, 69675, Note_on_c, 0, 66, 75
1, 69903, Note_on_c, 0, 59, 0
1, 69903, Note_on_c, 0, 58, 70
1, 69907, Control_c, 0, 64, 0
1, 70063, Control_c, 0, 64, 127
1, 70127, Note_on_c, 0, 51, 0
1, 70127, Note_on_c, 0, 51, 68
1, 70357, Note_on_c, 0, 66, 0
1, 70357, Note_on_c, 0, 67, 88
1, 70579, Note_on_c, 0, 51, 0
1, 70579, Note_on_c, 0, 58, 0
1, 70579, Note_on_c, 0, 44, 75
1, 70584, Control_c, 0, 64, 0
1, 70671, Control_c, 0, 64, 127
1, 70692, Note_on_c, 0, 67, 0
1, 70692, Note_on_c, 0, 75, 88
1, 70805, Note_on_c, 0, 75, 0
1, 70805, Note_on_c, 0, 44, 0
1, 70805, Note_on_c, 0, 71, 90
1, 70808, Note_on_c, 0, 51, 58
1, 70808, Note_on_c, 0, 56, 58
1, 70808, Note_on_c, 0, 59, 64
1, 70918, Note_on_c, 0, 71, 0
1, 70918, Note_on_c, 0, 70, 86
1, 71030, Note_on_c, 0, 70, 0
1, 71030, Note_on_c, 0, 59, 0
1, 71030, Note_on_c, 0, 68, 87
1, 71033, Note_on_c, 0, 56, 0
1, 71033, Note_on_c, 0, 51, 0
1, 71085, Control_c, 0, 64, 0
1, 71260, Note_on_c, 0, 68, 0
1, 71260, Note_on_c, 0, 69, 100
1, 71260, Note_on_c, 0, 54, 82
1, 71320, Control_c, 0, 64, 127
1, 71487, Note_on_c, 0, 54, 0
1, 71487, Note_on_c, 0, 61, 69
1, 71487, Note_on_c, 0, 57, 69
1, 71490, Note_on_c, 0, 66, 76
1, 71599, Note_on_c, 0, 69, 0
1, 71599, Note_on_c, 0, 73, 94
1, 71710, Note_on_c, 0, 73, 0
1, 71710, Note_on_c, 0, 78, 99
1, 71823, Note_on_c, 0, 78, 0
1, 71823, Note_on_c, 0, 81, 94
1, 71937, Note_on_c, 0, 81, 0
1, 71937, Note_on_c, 0, 73, 90
1, 71937, Note_on_c, 0, 68, 93
1, 71940, Note_on_c, 0, 66, 0
1, 71940, Note_on_c, 0, 57, 0
1, 71940, Note_on_c, 0, 80, 102
1, 71943, Note_on_c, 0, 61, 0
1, 71943, Note_on_c, 0, 52, 82
1, 71943, Control_c, 0, 64, 0
1, 72104, Control_c, 0, 64, 127
1, 72167, Note_on_c, 0, 52, 0
1, 72167, Note_on_c, 0, 57, 68
1, 72167, Note_on_c, 0, 61, 75
1, 72396, Note_on_c, 0, 80, 0
1, 72396, Note_on_c, 0, 68, 0
1, 72396, Note_on_c, 0, 66, 90
1, 72399, Note_on_c, 0, 78, 99
1, 72624, Note_on_c, 0, 78, 0
1, 72624, Note_on_c, 0, 73, 0
1, 72624, Note_on_c, 0, 66, 0
1, 72627, Note_on_c, 0, 61, 0
1, 72627, Note_on_c, 0, 57, 0
1, 72627, Note_on_c, 0, 51, 82
1, 72638, Control_c, 0, 64, 0
1, 72855, Note_on_c, 0, 59, 76
1, 72855, Note_on_c, 0, 66, 76
1, 72855, Note_on_c, 0, 69, 76
1, 72858, Note_on_c, 0, 71, 76
1, 72936, Control_c, 0, 64, 127
1, 72968, Note_on_c, 0, 51, 0
1, 72968, Note_on_c, 0, 49, 77
1, 73081, Note_on_c, 0, 49, 0
1, 73081, Note_on_c, 0, 52, 83
1, 73195, Note_on_c, 0, 52, 0
1, 73195, Note_on_c, 0, 51, 77
1, 73309, Note_on_c, 0, 59, 0
1, 73309, Note_on_c, 0, 71, 0
1, 73309, Note_on_c, 0, 66, 0
1, 73312, Note_on_c, 0, 69, 0
1, 73312, Note_on_c, 0, 61, 88
1, 73312, Note_on_c, 0, 66, 88
1, 73315, Note_on_c, 0, 51, 0
1, 73315, Note_on_c, 0, 69, 88
1, 73315, Note_on_c, 0, 73, 96
1, 73318, Control_c, 0, 64, 0
1, 73318, Note_on_c, 0, 49, 80
1, 73366, Note_on_c, 0, 73, 0
1, 73366, Note_on_c, 0, 66, 0
1, 73366, Note_on_c, 0, 61, 0
1, 73369, Note_on_c, 0, 69, 0
1, 73369, Note_on_c, 0, 49, 0
1, 73537, Note_on_c, 0, 63, 82
1, 73537, Note_on_c, 0, 66, 82
1, 73537, Note_on_c, 0, 69, 82
1, 73540, Note_on_c, 0, 75, 90
1, 73540, Note_on_c, 0, 48, 76
1, 73594, Note_on_c, 0, 75, 0
1, 73594, Note_on_c, 0, 66, 0
1, 73594, Note_on_c, 0, 63, 0
1, 73597, Note_on_c, 0, 69, 0
1, 73597, Note_on_c, 0, 48, 0
1, 73766, Note_on_c, 0, 64, 79
1, 73766, Note_on_c, 0, 68, 79
1, 73766, Note_on_c, 0, 76, 87
1, 73769, Note_on_c, 0, 47, 76
1, 73823, Note_on_c, 0, 76, 0
1, 73823, Note_on_c, 0, 64, 0
1, 73823, Note_on_c, 0, 68, 0
1, 73826, Note_on_c, 0, 47, 0
1, 73994, Note_on_c, 0, 66, 88
1, 73994, Note_on_c, 0, 46, 76
1, 74225, Note_on_c, 0, 46, 0
1, 74225, Note_on_c, 0, 61, 67
1, 74225, Note_on_c, 0, 52, 61
1, 74228, Note_on_c, 0, 54, 61
1, 74304, Control_c, 0, 64, 127
1, 74336, Note_on_c, 0, 66, 0
1, 74336, Note_on_c, 0, 65, 82
1, 74447, Note_on_c, 0, 65, 0
1, 74447, Note_on_c, 0, 68, 90
1, 74560, Note_on_c, 0, 68, 0
1, 74560, Note_on_c, 0, 66, 83
1, 74674, Note_on_c, 0, 66, 0
1, 74674, Note_on_c, 0, 54, 0
1, 74674, Note_on_c, 0, 75, 88
1, 74677, Note_on_c, 0, 52, 0
1, 74677, Note_on_c, 0, 61, 0
1, 74677, Note_on_c, 0, 45, 74
1, 74680, Control_c, 0, 64, 0
1, 74722, Control_c, 0, 64, 127
1, 74902, Note_on_c, 0, 45, 0
1, 74902, Note_on_c, 0, 75, 0
1, 74902, Note_on_c, 0, 73, 86
1, 74905, Note_on_c, 0, 51, 55
1, 74905, Note_on_c, 0, 54, 55
1, 74905, Note_on_c, 0, 59, 61
1, 75130, Note_on_c, 0, 73, 0
1, 75130, Note_on_c, 0, 71, 86
1, 75359, Note_on_c, 0, 71, 0
1, 75359, Note_on_c, 0, 59, 0
1, 75359, Note_on_c, 0, 54, 0
1, 75362, Note_on_c, 0, 51, 0
1, 75362, Control_c, 0, 64, 0
1, 75362, Note_on_c, 0, 44, 80
1, 75590, Note_on_c, 0, 59, 77
1, 75590, Note_on_c, 0, 64, 77
1, 75590, Note_on_c, 0, 71, 77
1, 75611, Control_c, 0, 64, 127
1, 75697, Note_on_c, 0, 43, 75
1, 75703, Note_on_c, 0, 44, 0
1, 75810, Note_on_c, 0, 43, 0
1, 75815, Note_on_c, 0, 45, 82
1, 75924, Note_on_c, 0, 44, 76
1, 75929, Note_on_c, 0, 45, 0
1, 76038, Note_on_c, 0, 44, 0
1, 76044, Note_on_c, 0, 71, 0
1, 76044, Note_on_c, 0, 64, 0
1, 76044, Note_on_c, 0, 59, 0
1, 76047, Note_on_c, 0, 49, 80
1, 76047, Control_c, 0, 64, 0
1, 76171, Control_c, 0, 64, 127
1, 76272, Note_on_c, 0, 56, 71
1, 76272, Note_on_c, 0, 64, 71
1, 76272, Note_on_c, 0, 68, 77
1, 76275, Note_on_c, 0, 49, 0
1, 76275, Note_on_c, 0, 47, 77
1, 76500, Note_on_c, 0, 47, 0
1, 76500, Note_on_c, 0, 40, 77
1, 76732, Note_on_c, 0, 68, 0
1, 76732, Note_on_c, 0, 56, 0
1, 76732, Note_on_c, 0, 64, 0
1, 76735, Note_on_c, 0, 40, 0
1, 76735, Note_on_c, 0, 69, 100
1, 76735, Control_c, 0, 64, 0
1, 76738, Note_on_c, 0, 54, 82
1, 76845, Control_c, 0, 64, 127
1, 76959, Note_on_c, 0, 54, 0
1, 76959, Note_on_c, 0, 61, 69
1, 76959, Note_on_c, 0, 57, 69
1, 76962, Note_on_c, 0, 66, 76
1, 77070, Note_on_c, 0, 69, 0
1, 77070, Note_on_c, 0, 73, 94
1, 77181, Note_on_c, 0, 73, 0
1, 77181, Note_on_c, 0, 78, 99
1, 77296, Note_on_c, 0, 78, 0
1, 77296, Note_on_c, 0, 81, 94
1, 77410, Note_on_c, 0, 81, 0
1, 77410, Note_on_c, 0, 73, 90
1, 77410, Note_on_c, 0, 68, 93
1, 77413, Note_on_c, 0, 66, 0
1, 77413, Note_on_c, 0, 57, 0
1, 77413, Note_on_c, 0, 80, 102
1, 77416, Note_on_c, 0, 61, 0
1, 77416, Note_on_c, 0, 52, 82
1, 77416, Control_c, 0, 64, 0
1, 77487, Control_c, 0, 64, 127
1, 77640, Note_on_c, 0, 52, 0
1, 77640, Note_on_c, 0, 57, 68
1, 77640, Note_on_c, 0, 61, 75
1, 77869, Note_on_c, 0, 80, 0
1, 77869, Note_on_c, 0, 68, 0
1, 77869, Note_on_c, 0, 66, 90
1, 77872, Note_on_c, 0, 78, 99
1, 78097, Note_on_c, 0, 78, 0
1, 78097, Note_on_c, 0, 73, 0
1, 78097, Note_on_c, 0, 66, 0
1, 78100, Note_on_c, 0, 61, 0
1, 78100, Note_on_c, 0, 57, 0
1, 78100, Control_c, 0, 64, 0
1, 78103, Note_on_c, 0, 51, 82
1, 78328, Note_on_c, 0, 59, 76
1, 78328, Note_on_c, 0, 66, 76
1, 78328, Note_on_c, 0, 69, 76
1, 78331, Note_on_c, 0, 71, 76
1, 78408, Control_c, 0, 64, 127
1, 78441, Note_on_c, 0, 51, 0
1, 78441, Note_on_c, 0, 49, 77
1, 78554, Note_on_c, 0, 49, 0
1, 78554, Note_on_c, 0, 52, 83
1, 78668, Note_on_c, 0, 52, 0
1, 78668, Note_on_c, 0, 51, 77
1, 78782, Note_on_c, 0, 59, 0
1, 78782, Note_on_c, 0, 71, 0
1, 78782, Note_on_c, 0, 66, 0
1, 78785, Note_on_c, 0, 69, 0
1, 78785, Note_on_c, 0, 61, 88
1, 78785, Note_on_c, 0, 66, 88
1, 78788, Note_on_c, 0, 51, 0
1, 78788, Note_on_c, 0, 69, 88
1, 78788, Note_on_c, 0, 73, 96
1, 78791, Control_c, 0, 64, 0
1, 78791, Note_on_c, 0, 49, 80
1, 78839, Note_on_c, 0, 73, 0
1, 78839, Note_on_c, 0, 66, 0
1, 78839, Note_on_c, 0, 61, 0
1, 78842, Note_on_c, 0, 69, 0
1, 78842, Note_on_c, 0, 49, 0
1, 79010, Note_on_c, 0, 63, 82
1, 79010, Note_on_c, 0, 66, 82
1, 79010, Note_on_c, 0, 69, 82
1, 79013, Note_on_c, 0, 75, 90
1, 79013, Note_on_c, 0, 48, 76
1, 79067, Note_on_c, 0, 75, 0
1, 79067, Note_on_c, 0, 66, 0
1, 79067, Note_on_c, 0, 63, 0
1, 79070, Note_on_c, 0, 69, 0
1, 79070, Note_on_c, 0, 48, 0
1, 79238, Note_on_c, 0, 64, 79
1, 79238, Note_on_c, 0, 68, 79
1, 79238, Note_on_c, 0, 76, 87
1, 79241, Note_on_c, 0, 47, 76
1, 79295, Note_on_c, 0, 76, 0
1, 79295, Note_on_c, 0, 64, 0
1, 79295, Note_on_c, 0, 68, 0
1, 79298, Note_on_c, 0, 47, 0
1, 79467, Note_on_c, 0, 66, 88
1, 79467, Note_on_c, 0, 46, 76
1, 79697, Note_on_c, 0, 46, 0
1, 79697, Note_on_c, 0, 61, 67
1, 79697, Note_on_c, 0, 52, 61
1, 79700, Note_on_c, 0, 54, 61
1, 79776, Control_c, 0, 64, 127
1, 79808, Note_on_c, 0, 66, 0
1, 79808, Note_on_c, 0, 65, 82
1, 79919, Note_on_c, 0, 65, 0
1, 79919, Note_on_c, 0, 68, 90
1, 80033, Note_on_c, 0, 68, 0
1, 80033, Note_on_c, 0, 66, 83
1, 80147, Note_on_c, 0, 66, 0
1, 80147, Note_on_c, 0, 54, 0
1, 80147, Note_on_c, 0, 75, 88
1, 80150, Note_on_c, 0, 52, 0
1, 80150, Note_on_c, 0, 61, 0
1, 80150, Note_on_c, 0, 45, 74
1, 80150, Control_c, 0, 64, 0
1, 80224, Control_c, 0, 64, 127
1, 80376, Note_on_c, 0, 45, 0
1, 80376, Note_on_c, 0, 75, 0
1, 80376, Note_on_c, 0, 73, 86
1, 80379, Note_on_c, 0, 51, 55
1, 80379, Note_on_c, 0, 54, 55
1, 80379, Note_on_c, 0, 59, 61
1, 80604, Note_on_c, 0, 73, 0
1, 80604, Note_on_c, 0, 71, 86
1, 80833, Note_on_c, 0, 71, 0
1, 80833, Note_on_c, 0, 59, 0
1, 80833, Note_on_c, 0, 54, 0
1, 80836, Note_on_c, 0, 51, 0
1, 80836, Control_c, 0, 64, 0
1, 80836, Note_on_c, 0, 44, 80
1, 81064, Note_on_c, 0, 59, 77
1, 81064, Note_on_c, 0, 64, 77
1, 81064, Note_on_c, 0, 71, 77
1, 81096, Control_c, 0, 64, 127
1, 81172, Note_on_c, 0, 43, 75
1, 81177, Note_on_c, 0, 44, 0
1, 81285, Note_on_c, 0, 43, 0
1, 81290, Note_on_c, 0, 45, 82
1, 81398, Note_on_c, 0, 44, 76
1, 81404, Note_on_c, 0, 45, 0
1, 81513, Note_on_c, 0, 44, 0
1, 81518, Note_on_c, 0, 71, 0
1, 81518, Note_on_c, 0, 64, 0
1, 81518, Note_on_c, 0, 59, 0
1, 81521, Control_c, 0, 64, 0
1, 81521, Note_on_c, 0, 51, 80
1, 81576, Note_on_c, 0, 51, 0
1, 81752, Note_on_c, 0, 64, 82
1, 81752, Note_on_c, 0, 66, 82
1, 81752, Note_on_c, 0, 70, 82
1, 81755, Note_on_c, 0, 49, 76
1, 81811, Note_on_c, 0, 70, 0
1, 81811, Note_on_c, 0, 64, 0
1, 81811, Note_on_c, 0, 66, 0
1, 81814, Note_on_c, 0, 49, 0
1, 81989, Note_on_c, 0, 63, 79
1, 81989, Note_on_c, 0, 66, 79
1, 81989, Note_on_c, 0, 71, 87
1, 81992, Note_on_c, 0, 47, 76
1, 82050, Note_on_c, 0, 71, 0
1, 82050, Note_on_c, 0, 63, 0
1, 82050, Note_on_c, 0, 66, 0
1, 82053, Note_on_c, 0, 47, 0
1, 82233, Note_on_c, 0, 59, 70
1, 82464, Note_on_c, 0, 68, 75
1, 82464, Note_on_c, 0, 52, 61
1, 82543, Control_c, 0, 64, 127
1, 82575, Note_on_c, 0, 59, 0
1, 82575, Note_on_c, 0, 58, 67
1, 82687, Note_on_c, 0, 58, 0
1, 82687, Note_on_c, 0, 61, 70
1, 82801, Note_on_c, 0, 61, 0
1, 82801, Note_on_c, 0, 58, 64
1, 82915, Note_on_c, 0, 58, 0
1, 82915, Note_on_c, 0, 59, 69
1, 82921, Control_c, 0, 64, 0
1, 83074, Control_c, 0, 64, 127
1, 83135, Note_on_c, 0, 52, 0
1, 83135, Note_on_c, 0, 51, 70
1, 83363, Note_on_c, 0, 68, 0
1, 83363, Note_on_c, 0, 66, 75
1, 83592, Note_on_c, 0, 59, 0
1, 83592, Note_on_c, 0, 59, 70
1, 83597, Control_c, 0, 64, 0
1, 83691, Control_c, 0, 64, 127
1, 83815, Note_on_c, 0, 51, 0
1, 83815, Note_on_c, 0, 49, 68
1, 84045, Note_on_c, 0, 66, 0
1, 84045, Note_on_c, 0, 64, 75
1, 84268, Note_on_c, 0, 59, 0
1, 84268, Note_on_c, 0, 59, 70
1, 84275, Control_c, 0, 64, 0
1, 84320, Control_c, 0, 64, 127
1, 84498, Note_on_c, 0, 49, 0
1, 84498, Note_on_c, 0, 47, 71
1, 84608, Note_on_c, 0, 64, 0
1, 84608, Note_on_c, 0, 63, 69
1, 84719, Note_on_c, 0, 63, 0
1, 84719, Note_on_c, 0, 62, 72
1, 84833, Note_on_c, 0, 62, 0
1, 84833, Note_on_c, 0, 63, 70
1, 84866, Control_c, 0, 64, 0
1, 84947, Note_on_c, 0, 63, 0
1, 84947, Note_on_c, 0, 47, 0
1, 84947, Note_on_c, 0, 59, 0
1, 84950, Note_on_c, 0, 59, 70
1, 85178, Note_on_c, 0, 68, 75
1, 85178, Note_on_c, 0, 52, 61
1, 85257, Control_c, 0, 64, 127
1, 85289, Note_on_c, 0, 59, 0
1, 85289, Note_on_c, 0, 58, 67
1, 85401, Note_on_c, 0, 58, 0
1, 85401, Note_on_c, 0, 61, 70
1, 85515, Note_on_c, 0, 61, 0
1, 85515, Note_on_c, 0, 58, 64
1, 85629, Note_on_c, 0, 58, 0
1, 85629, Note_on_c, 0, 59, 69
1, 85635, Control_c, 0, 64, 0
1, 85740, Control_c, 0, 64, 127
1, 85851, Note_on_c, 0, 52, 0
1, 85851, Note_on_c, 0, 51, 70
1, 86079, Note_on_c, 0, 68, 0
1, 86079, Note_on_c, 0, 66, 75
1, 86308, Note_on_c, 0, 59, 0
1, 86308, Note_on_c, 0, 59, 70
1, 86312, Control_c, 0, 64, 0
1, 86457, Control_c, 0, 64, 127
1, 86531, Note_on_c, 0, 51, 0
1, 86531, Note_on_c, 0, 49, 68
1, 86761, Note_on_c, 0, 76, 94
1, 86985, Note_on_c, 0, 59, 0
1, 86985, Note_on_c, 0, 59, 70
1, 86991, Control_c, 0, 64, 0
1, 87045, Control_c, 0, 64, 127
1, 87211, Note_on_c, 0, 49, 0
1, 87211, Note_on_c, 0, 47, 71
1, 87324, Note_on_c, 0, 76, 0
1, 87324, Note_on_c, 0, 75, 74
1, 87436, Note_on_c, 0, 75, 0
1, 87436, Note_on_c, 0, 71, 79
1, 87551, Note_on_c, 0, 71, 0
1, 87551, Note_on_c, 0, 66, 0
1, 87551, Note_on_c, 0, 66, 70
1, 87665, Note_on_c, 0, 66, 0
1, 87665, Note_on_c, 0, 59, 0
1, 87665, Note_on_c, 0, 47, 0
1, 87668, Control_c, 0, 64, 0
1, 87668, Note_on_c, 0, 59, 70
1, 87895, Note_on_c, 0, 68, 75
1, 87895, Note_on_c, 0, 52, 61
1, 87906, Control_c, 0, 64, 127
1, 88007, Note_on_c, 0, 59, 0
1, 88007, Note_on_c, 0, 58, 67
1, 88118, Note_on_c, 0, 58, 0
1, 88118, Note_on_c, 0, 61, 70
1, 88232, Note_on_c, 0, 61, 0
1, 88232, Note_on_c, 0, 58, 64
1, 88346, Note_on_c, 0, 58, 0
1, 88346, Note_on_c, 0, 59, 69
1, 88352, Control_c, 0, 64, 0
1, 88531, Control_c, 0, 64, 127
1, 88568, Note_on_c, 0, 52, 0
1, 88568, Note_on_c, 0, 51, 70
1, 88797, Note_on_c, 0, 68, 0
1, 88797, Note_on_c, 0, 66, 75
1, 89026, Note_on_c, 0, 59, 0
1, 89026, Note_on_c, 0, 59, 70
1, 89032, Control_c, 0, 64, 0
1, 89138, Control_c, 0, 64, 127
1, 89250, Note_on_c, 0, 51, 0
1, 89250, Note_on_c, 0, 49, 68
1, 89480, Note_on_c, 0, 66, 0
1, 89480, Note_on_c, 0, 64, 75
1, 89704, Note_on_c, 0, 59, 0
1, 89704, Note_on_c, 0, 59, 70
1, 89710, Control_c, 0, 64, 0
1, 89769, Control_c, 0, 64, 127
1, 89933, Note_on_c, 0, 49, 0
1, 89933, Note_on_c, 0, 47, 71
1, 90044, Note_on_c, 0, 64, 0
1, 90044, Note_on_c, 0, 63, 69
1, 90155, Note_on_c, 0, 63, 0
1, 90155, Note_on_c, 0, 62, 72
1, 90269, Note_on_c, 0, 62, 0
1, 90269, Note_on_c, 0, 63, 70
1, 90383, Note_on_c, 0, 63, 0
1, 90383, Note_on_c, 0, 47, 0
1, 90383, Note_on_c, 0, 59, 0
1, 90386, Control_c, 0, 64, 0
1, 90386, Note_on_c, 0, 59, 70
1, 90614, Note_on_c, 0, 68, 75
1, 90614, Note_on_c, 0, 52, 61
1, 90693, Control_c, 0, 64, 127
1, 90725, Note_on_c, 0, 59, 0
1, 90725, Note_on_c, 0, 58, 67
1, 90837, Note_on_c, 0, 58, 0
1, 90837, Note_on_c, 0, 61, 70
1, 90951, Note_on_c, 0, 61, 0
1, 90951, Note_on_c, 0, 58, 64
1, 91065, Note_on_c, 0, 58, 0
1, 91065, Note_on_c, 0, 59, 69
1, 91071, Control_c, 0, 64, 0
1, 91250, Control_c, 0, 64, 127
1, 91287, Note_on_c, 0, 52, 0
1, 91287, Note_on_c, 0, 51, 70
1, 91515, Note_on_c, 0, 68, 0
1, 91515, Note_on_c, 0, 66, 80
1, 91744, Note_on_c, 0, 59, 0
1, 91744, Note_on_c, 0, 58, 74
1, 91744, Note_on_c, 0, 61, 74
1, 91748, Control_c, 0, 64, 0
1, 91882, Control_c, 0, 64, 127
1, 91967, Note_on_c, 0, 51, 0
1, 91967, Note_on_c, 0, 51, 71
1, 92198, Note_on_c, 0, 66, 0
1, 92198, Note_on_c, 0, 67, 84
1, 92422, Note_on_c, 0, 61, 0
1, 92422, Note_on_c, 0, 58, 0
1, 92422, Note_on_c, 0, 59, 76
1, 92425, Note_on_c, 0, 63, 76
1, 92425, Control_c, 0, 64, 0
1, 92548, Control_c, 0, 64, 127
1, 92650, Note_on_c, 0, 51, 0
1, 92650, Note_on_c, 0, 51, 72
1, 92873, Note_on_c, 0, 67, 0
1, 92873, Note_on_c, 0, 68, 84
1, 93100, Note_on_c, 0, 68, 0
1, 93100, Note_on_c, 0, 63, 0
1, 93100, Note_on_c, 0, 59, 0
1, 93103, Control_c, 0, 64, 0
1, 93103, Note_on_c, 0, 55, 70
1, 93103, Note_on_c, 0, 61, 70
1, 93106, Note_on_c, 0, 63, 76
1, 93252, Control_c, 0, 64, 127
1, 93328, Note_on_c, 0, 51, 0
1, 93328, Note_on_c, 0, 51, 72
1, 93440, Note_on_c, 0, 70, 79
1, 93551, Note_on_c, 0, 70, 0
1, 93551, Note_on_c, 0, 71, 84
1, 93665, Note_on_c, 0, 71, 0
1, 93665, Note_on_c, 0, 70, 80
1, 93780, Note_on_c, 0, 70, 0
1, 93780, Note_on_c, 0, 55, 0
1, 93780, Note_on_c, 0, 73, 85
1, 93783, Note_on_c, 0, 63, 0
1, 93783, Note_on_c, 0, 61, 0
1, 93783, Note_on_c, 0, 56, 63
1, 93786, Note_on_c, 0, 59, 63
1, 93786, Note_on_c, 0, 63, 70
1, 93786, Control_c, 0, 64, 0
1, 93878, Control_c, 0, 64, 127
1, 94002, Note_on_c, 0, 51, 0
1, 94002, Note_on_c, 0, 51, 72
1, 94230, Note_on_c, 0, 73, 0
1, 94230, Note_on_c, 0, 71, 80
1, 94459, Note_on_c, 0, 71, 0
1, 94459, Note_on_c, 0, 51, 0
1, 94459, Note_on_c, 0, 63, 0
1, 94462, Note_on_c, 0, 56, 0
1, 94462, Note_on_c, 0, 59, 0
1, 94462, Control_c, 0, 64, 0
1, 94465, Note_on_c, 0, 59, 67
1, 94465, Note_on_c, 0, 63, 67
1, 94465, Note_on_c, 0, 68, 72
1, 94611, Control_c, 0, 64, 127
1, 94687, Note_on_c, 0, 51, 75
1, 94798, Note_on_c, 0, 74, 82
1, 94910, Note_on_c, 0, 74, 0
1, 94910, Note_on_c, 0, 76, 86
1, 95024, Note_on_c, 0, 76, 0
1, 95024, Note_on_c, 0, 74, 83
1, 95138, Note_on_c, 0, 74, 0
1, 95138, Note_on_c, 0, 51, 0
1, 95138, Note_on_c, 0, 76, 88
1, 95141, Note_on_c, 0, 59, 0
1, 95141, Note_on_c, 0, 68, 0
1, 95141, Note_on_c, 0, 63, 0
1, 95144, Note_on_c, 0, 58, 67
1, 95144, Note_on_c, 0, 61, 67
1, 95144, Note_on_c, 0, 67, 72
1, 95147, Control_c, 0, 64, 0
1, 95214, Control_c, 0, 64, 127
1, 95366, Note_on_c, 0, 51, 75
1, 95595, Note_on_c, 0, 76, 0
1, 95595, Note_on_c, 0, 75, 83
1, 95825, Note_on_c, 0, 75, 0
1, 95825, Note_on_c, 0, 51, 0
1, 95825, Note_on_c, 0, 58, 0
1, 95828, Note_on_c, 0, 61, 0
1, 95828, Note_on_c, 0, 67, 0
1, 95828, Control_c, 0, 64, 0
1, 95831, Note_on_c, 0, 55, 63
1, 95831, Note_on_c, 0, 61, 63
1, 95831, Note_on_c, 0, 63, 70
1, 95976, Control_c, 0, 64, 127
1, 96052, Note_on_c, 0, 51, 72
1, 96164, Note_on_c, 0, 70, 79
1, 96275, Note_on_c, 0, 70, 0
1, 96275, Note_on_c, 0, 71, 84
1, 96389, Note_on_c, 0, 71, 0
1, 96389, Note_on_c, 0, 70, 80
1, 96503, Note_on_c, 0, 70, 0
1, 96503, Note_on_c, 0, 63, 0
1, 96503, Note_on_c, 0, 73, 85
1, 96506, Note_on_c, 0, 55, 0
1, 96506, Note_on_c, 0, 61, 0
1, 96506, Note_on_c, 0, 56, 63
1, 96509, Note_on_c, 0, 59, 63
1, 96509, Note_on_c, 0, 63, 70
1, 96509, Control_c, 0, 64, 0
1, 96578, Control_c, 0, 64, 127
1, 96729, Note_on_c, 0, 51, 0
1, 96729, Note_on_c, 0, 51, 72
1, 96957, Note_on_c, 0, 73, 0
1, 96957, Note_on_c, 0, 71, 80
1, 97186, Note_on_c, 0, 71, 0
1, 97186, Note_on_c, 0, 51, 0
1, 97186, Note_on_c, 0, 63, 0
1, 97189, Note_on_c, 0, 56, 0
1, 97189, Note_on_c, 0, 59, 0
1, 97189, Control_c, 0, 64, 0
1, 97192, Note_on_c, 0, 59, 67
1, 97192, Note_on_c, 0, 63, 67
1, 97192, Note_on_c, 0, 68, 72
1, 97338, Control_c, 0, 64, 127
1, 97414, Note_on_c, 0, 51, 75
1, 97526, Note_on_c, 0, 74, 82
1, 97638, Note_on_c, 0, 74, 0
1, 97638, Note_on_c, 0, 76, 86
1, 97753, Note_on_c, 0, 76, 0
1, 97753, Note_on_c, 0, 74, 83
1, 97868, Note_on_c, 0, 74, 0
1, 97868, Note_on_c, 0, 51, 0
1, 97868, Note_on_c, 0, 76, 93
1, 97871, Note_on_c, 0, 59, 0
1, 97871, Note_on_c, 0, 68, 0
1, 97871, Note_on_c, 0, 63, 0
1, 97874, Note_on_c, 0, 58, 67
1, 97874, Note_on_c, 0, 61, 67
1, 97874, Note_on_c, 0, 67, 72
1, 97877, Control_c, 0, 64, 0
1, 97947, Control_c, 0, 64, 127
1, 98104, Note_on_c, 0, 51, 75
1, 98220, Note_on_c, 0, 76, 0
1, 98220, Note_on_c, 0, 75, 83
1, 98335, Note_on_c, 0, 75, 0
1, 98335, Note_on_c, 0, 74, 87
1, 98451, Note_on_c, 0, 74, 0
1, 98451, Note_on_c, 0, 75, 83
1, 98566, Note_on_c, 0, 75, 0
1, 98566, Note_on_c, 0, 51, 0
1, 98566, Note_on_c, 0, 76, 93
1, 98569, Note_on_c, 0, 58, 0
1, 98569, Note_on_c, 0, 67, 0
1, 98569, Note_on_c, 0, 61, 0
1, 98572, Note_on_c, 0, 58, 67
1, 98572, Note_on_c, 0, 61, 67
1, 98572, Note_on_c, 0, 67, 72
1, 98575, Control_c, 0, 64, 0
1, 98644, Control_c, 0, 64, 127
1, 98800, Note_on_c, 0, 51, 75
1, 98918, Note_on_c, 0, 76, 0
1, 98918, Note_on_c, 0, 75, 83
1, 99037, Note_on_c, 0, 75, 0
1, 99037, Note_on_c, 0, 74, 87
1, 99158, Note_on_c, 0, 74, 0
1, 99158, Note_on_c, 0, 75, 83
1, 99279, Note_on_c, 0, 75, 0
1, 99279, Note_on_c, 0, 51, 0
1, 99279, Note_on_c, 0, 82, 96
1, 99282, Note_on_c, 0, 58, 0
1, 99282, Note_on_c, 0, 67, 0
1, 99282, Note_on_c, 0, 61, 0
1, 99285, Control_c, 0, 64, 0
1, 99373, Control_c, 0, 64, 127
1, 99408, Note_on_c, 0, 82, 0
1, 99408, Note_on_c, 0, 80, 95
1, 99521, Note_on_c, 0, 80, 0
1, 99521, Note_on_c, 0, 79, 94
1, 99635, Note_on_c, 0, 79, 0
1, 99635, Note_on_c, 0, 76, 93
1, 99749, Note_on_c, 0, 76, 0
1, 99749, Note_on_c, 0, 75, 90
1, 99863, Note_on_c, 0, 75, 0
1, 99863, Note_on_c, 0, 73, 87
1, 99978, Note_on_c, 0, 73, 0
1, 99978, Note_on_c, 0, 76, 94
1, 99984, Control_c, 0, 64, 0
1, 100016, Control_c, 0, 64, 127
1, 100092, Note_on_c, 0, 76, 0
1, 100092, Note_on_c, 0, 75, 93
1, 100205, Note_on_c, 0, 75, 0
1, 100205, Note_on_c, 0, 73, 92
1, 100319, Note_on_c, 0, 73, 0
1, 100319, Note_on_c, 0, 71, 90
1, 100433, Note_on_c, 0, 71, 0
1, 100433, Note_on_c, 0, 70, 90
1, 100547, Note_on_c, 0, 70, 0
1, 100547, Note_on_c, 0, 68, 88
1, 100662, Note_on_c, 0, 68, 0
1, 100662, Note_on_c, 0, 67, 85
1, 100667, Control_c, 0, 64, 0
1, 100689, Control_c, 0, 64, 127
1, 100777, Note_on_c, 0, 67, 0
1, 100777, Note_on_c, 0, 68, 85
1, 100892, Note_on_c, 0, 68, 0
1, 100892, Note_on_c, 0, 69, 84
1, 101009, Note_on_c, 0, 69, 0
1, 101009, Note_on_c, 0, 70, 83
1, 101126, Note_on_c, 0, 70, 0
1, 101126, Note_on_c, 0, 71, 82
1, 101245, Note_on_c, 0, 71, 0
1, 101245, Note_on_c, 0, 72, 82
1, 101364, Note_on_c, 0, 72, 0
1, 101364, Note_on_c, 0, 73, 84
1, 101370, Control_c, 0, 64, 0
1, 101432, Control_c, 0, 64, 127
1, 101484, Note_on_c, 0, 73, 0
1, 101484, Note_on_c, 0, 72, 77
1, 101607, Note_on_c, 0, 72, 0
1, 101607, Note_on_c, 0, 75, 83
1, 101612, Control_c, 0, 64, 0
1, 101650, Control_c, 0, 64, 127
1, 101730, Note_on_c, 0, 75, 0
1, 101730, Note_on_c, 0, 73, 80
1, 101856, Note_on_c, 0, 73, 0
1, 101856, Note_on_c, 0, 72, 77
1, 101986, Note_on_c, 0, 72, 0
1, 101986, Note_on_c, 0, 70, 75
1, 102131, Note_on_c, 0, 70, 0
1, 102131, Control_c, 0, 64, 0
1, 102131, Note_on_c, 0, 44, 59
1, 102271, Control_c, 0, 64, 127
1, 102359, Note_on_c, 0, 44, 0
1, 102359, Note_on_c, 0, 68, 84
1, 102359, Note_on_c, 0, 51, 52
1, 102362, Note_on_c, 0, 56, 52
1, 102362, Note_on_c, 0, 60, 58
1, 102583, Note_on_c, 0, 60, 0
1, 102583, Note_on_c, 0, 56, 0
1, 102583, Note_on_c, 0, 63, 61
1, 102586, Note_on_c, 0, 51, 0
1, 102586, Note_on_c, 0, 51, 47
1, 102586, Note_on_c, 0, 60, 51
1, 102589, Note_on_c, 0, 56, 47
1, 102810, Note_on_c, 0, 63, 0
1, 102810, Note_on_c, 0, 68, 0
1, 102810, Note_on_c, 0, 70, 84
1, 102813, Note_on_c, 0, 60, 0
1, 102813, Note_on_c, 0, 56, 0
1, 102813, Note_on_c, 0, 51, 0
1, 102816, Note_on_c, 0, 39, 67
1, 102816, Control_c, 0, 64, 0
1, 102862, Control_c, 0, 64, 127
1, 103034, Note_on_c, 0, 39, 0
1, 103034, Note_on_c, 0, 63, 48
1, 103034, Note_on_c, 0, 68, 52
1, 103037, Note_on_c, 0, 51, 42
1, 103037, Note_on_c, 0, 56, 42
1, 103037, Note_on_c, 0, 60, 45
1, 103260, Note_on_c, 0, 68, 0
1, 103260, Note_on_c, 0, 70, 0
1, 103260, Note_on_c, 0, 63, 0
1, 103263, Note_on_c, 0, 60, 0
1, 103263, Note_on_c, 0, 56, 0
1, 103263, Note_on_c, 0, 72, 82
1, 103266, Note_on_c, 0, 51, 0
1, 103266, Note_on_c, 0, 51, 50
1, 103266, Note_on_c, 0, 56, 50
1, 103269, Note_on_c, 0, 60, 54
1, 103482, Note_on_c, 0, 60, 0
1, 103482, Note_on_c, 0, 56, 0
1, 103482, Note_on_c, 0, 72, 0
1, 103485, Note_on_c, 0, 51, 0
1, 103485, Control_c, 0, 64, 0
1, 103485, Note_on_c, 0, 46, 61
1, 103595, Control_c, 0, 64, 127
1, 103708, Note_on_c, 0, 46, 0
1, 103708, Note_on_c, 0, 73, 88
1, 103708, Note_on_c, 0, 51, 55
1, 103711, Note_on_c, 0, 61, 60
1, 103711, Note_on_c, 0, 55, 55
1, 103932, Note_on_c, 0, 55, 0
1, 103932, Note_on_c, 0, 63, 55
1, 103932, Note_on_c, 0, 67, 60
1, 103935, Note_on_c, 0, 61, 0
1, 103935, Note_on_c, 0, 51, 0
1, 103935, Note_on_c, 0, 51, 45
1, 103938, Note_on_c, 0, 61, 48
1, 103938, Note_on_c, 0, 55, 45
1, 104159, Note_on_c, 0, 73, 0
1, 104159, Note_on_c, 0, 67, 0
1, 104159, Note_on_c, 0, 63, 0
1, 104162, Note_on_c, 0, 55, 0
1, 104162, Note_on_c, 0, 61, 0
1, 104162, Note_on_c, 0, 72, 87
1, 104165, Note_on_c, 0, 51, 0
1, 104165, Note_on_c, 0, 39, 61
1, 104165, Control_c, 0, 64, 0
1, 104286, Control_c, 0, 64, 127
1, 104387, Note_on_c, 0, 39, 0
1, 104387, Note_on_c, 0, 67, 56
1, 104387, Note_on_c, 0, 63, 51
1, 104390, Note_on_c, 0, 61, 46
1, 104390, Note_on_c, 0, 51, 43
1, 104390, Note_on_c, 0, 55, 43
1, 104614, Note_on_c, 0, 63, 0
1, 104614, Note_on_c, 0, 72, 0
1, 104614, Note_on_c, 0, 67, 0
1, 104617, Note_on_c, 0, 55, 0
1, 104617, Note_on_c, 0, 51, 0
1, 104617, Note_on_c, 0, 70, 75
1, 104620, Note_on_c, 0, 61, 0
1, 104620, Note_on_c, 0, 61, 58
1, 104620, Note_on_c, 0, 51, 52
1, 104623, Note_on_c, 0, 55, 52
1, 104841, Note_on_c, 0, 55, 0
1, 104841, Note_on_c, 0, 51, 0
1, 104841, Note_on_c, 0, 70, 0
1, 104844, Note_on_c, 0, 61, 0
1, 104844, Control_c, 0, 64, 0
1, 104844, Note_on_c, 0, 44, 60
1, 104944, Control_c, 0, 64, 127
1, 105073, Note_on_c, 0, 44, 0
1, 105073, Note_on_c, 0, 72, 88
1, 105073, Note_on_c, 0, 51, 55
1, 105076, Note_on_c, 0, 56, 55
1, 105076, Note_on_c, 0, 60, 60
1, 105300, Note_on_c, 0, 60, 0
1, 105300, Note_on_c, 0, 68, 64
1, 105300, Note_on_c, 0, 63, 60
1, 105303, Note_on_c, 0, 56, 0
1, 105303, Note_on_c, 0, 51, 0
1, 105303, Note_on_c, 0, 51, 50
1, 105306, Note_on_c, 0, 60, 55
1, 105306, Note_on_c, 0, 56, 50
1, 105533, Note_on_c, 0, 72, 0
1, 105533, Note_on_c, 0, 63, 0
1, 105533, Note_on_c, 0, 68, 0
1, 105536, Note_on_c, 0, 56, 0
1, 105536, Note_on_c, 0, 60, 0
1, 105536, Note_on_c, 0, 73, 94
1, 105539, Note_on_c, 0, 51, 0
1, 105539, Note_on_c, 0, 39, 79
1, 105539, Control_c, 0, 64, 0
1, 105571, Control_c, 0, 64, 127
1, 105760, Note_on_c, 0, 39, 0
1, 105760, Note_on_c, 0, 63, 59
1, 105760, Note_on_c, 0, 68, 63
1, 105763, Note_on_c, 0, 54, 52
1, 105763, Note_on_c, 0, 56, 52
1, 105763, Note_on_c, 0, 60, 58
1, 105987, Note_on_c, 0, 68, 0
1, 105987, Note_on_c, 0, 73, 0
1, 105987, Note_on_c, 0, 63, 0
1, 105990, Note_on_c, 0, 60, 0
1, 105990, Note_on_c, 0, 56, 0
1, 105990, Note_on_c, 0, 75, 98
1, 105993, Note_on_c, 0, 54, 0
1, 105993, Note_on_c, 0, 54, 60
1, 105993, Note_on_c, 0, 56, 60
1, 105996, Note_on_c, 0, 60, 64
1, 106209, Note_on_c, 0, 60, 0
1, 106209, Note_on_c, 0, 75, 0
1, 106209, Note_on_c, 0, 77, 100
1, 106212, Note_on_c, 0, 56, 0
1, 106212, Note_on_c, 0, 54, 0
1, 106212, Control_c, 0, 64, 0
1, 106215, Note_on_c, 0, 44, 80
1, 106266, Control_c, 0, 64, 127
1, 106379, Note_on_c, 0, 44, 0
1, 106379, Note_on_c, 0, 77, 0
1, 106379, Note_on_c, 0, 53, 52
1, 106396, Note_on_c, 0, 56, 59
1, 106412, Note_on_c, 0, 59, 67
1, 106429, Note_on_c, 0, 68, 75
1, 106445, Note_on_c, 0, 74, 80
1, 106462, Note_on_c, 0, 79, 101
1, 106632, Note_on_c, 0, 79, 0
1, 106632, Note_on_c, 0, 68, 0
1, 106632, Note_on_c, 0, 74, 0
1, 106635, Note_on_c, 0, 53, 0
1, 106635, Note_on_c, 0, 59, 0
1, 106635, Note_on_c, 0, 56, 0
1, 106638, Note_on_c, 0, 53, 54
1, 106649, Note_on_c, 0, 56, 62
1, 106665, Note_on_c, 0, 59, 68
1, 106682, Note_on_c, 0, 68, 75
1, 106698, Note_on_c, 0, 74, 80
1, 106714, Note_on_c, 0, 80, 104
1, 106968, Note_on_c, 0, 80, 0
1, 106968, Note_on_c, 0, 68, 0
1, 106968, Note_on_c, 0, 74, 0
1, 106971, Note_on_c, 0, 56, 0
1, 106971, Note_on_c, 0, 59, 0
1, 106971, Note_on_c, 0, 75, 109
1, 106974, Note_on_c, 0, 53, 0
1, 106974, Note_on_c, 0, 44, 85
1, 106974, Control_c, 0, 64, 0
1, 107182, Control_c, 0, 64, 127
1, 107209, Note_on_c, 0, 63, 60
1, 107209, Note_on_c, 0, 68, 60
1, 107209, Note_on_c, 0, 72, 67
1, 107212, Note_on_c, 0, 44, 0
1, 107212, Note_on_c, 0, 51, 45
1, 107212, Note_on_c, 0, 56, 45
1, 107215, Note_on_c, 0, 60, 48
1, 107450, Note_on_c, 0, 68, 0
1, 107450, Note_on_c, 0, 72, 0
1, 107450, Note_on_c, 0, 63, 0
1, 107453, Note_on_c, 0, 63, 60
1, 107453, Note_on_c, 0, 68, 60
1, 107453, Note_on_c, 0, 72, 66
1, 107456, Note_on_c, 0, 51, 0
1, 107456, Note_on_c, 0, 60, 0
1, 107456, Note_on_c, 0, 56, 0
1, 107459, Note_on_c, 0, 51, 45
1, 107459, Note_on_c, 0, 56, 45
1, 107459, Note_on_c, 0, 60, 48
1, 107684, Note_on_c, 0, 63, 0
1, 107684, Note_on_c, 0, 72, 0
1, 107684, Note_on_c, 0, 75, 0
1, 107687, Note_on_c, 0, 68, 0
1, 107687, Note_on_c, 0, 56, 0
1, 107687, Note_on_c, 0, 60, 0
1, 107690, Note_on_c, 0, 51, 0
1, 107690, Control_c, 0, 64, 0
1, 107690, Note_on_c, 0, 45, 59
1, 107760, Control_c, 0, 64, 127
1, 107912, Note_on_c, 0, 45, 0
1, 107912, Note_on_c, 0, 78, 84
1, 107912, Note_on_c, 0, 53, 52
1, 107915, Note_on_c, 0, 60, 52
1, 107915, Note_on_c, 0, 63, 58
1, 108023, Note_on_c, 0, 78, 0
1, 108023, Note_on_c, 0, 77, 80
1, 108133, Note_on_c, 0, 77, 0
1, 108133, Note_on_c, 0, 63, 0
1, 108133, Note_on_c, 0, 75, 84
1, 108136, Note_on_c, 0, 60, 0
1, 108136, Note_on_c, 0, 53, 0
1, 108136, Note_on_c, 0, 53, 47
1, 108139, Note_on_c, 0, 63, 51
1, 108139, Note_on_c, 0, 60, 47
1, 108250, Note_on_c, 0, 75, 0
1, 108250, Note_on_c, 0, 78, 80
1, 108366, Note_on_c, 0, 78, 0
1, 108366, Note_on_c, 0, 60, 0
1, 108366, Note_on_c, 0, 77, 87
1, 108369, Note_on_c, 0, 63, 0
1, 108369, Note_on_c, 0, 53, 0
1, 108369, Note_on_c, 0, 46, 59
1, 108373, Control_c, 0, 64, 0
1, 108437, Control_c, 0, 64, 127
1, 108595, Note_on_c, 0, 46, 0
1, 108595, Note_on_c, 0, 53, 52
1, 108595, Note_on_c, 0, 58, 52
1, 108598, Note_on_c, 0, 61, 58
1, 108708, Note_on_c, 0, 77, 0
1, 108708, Note_on_c, 0, 73, 84
1, 108821, Note_on_c, 0, 73, 0
1, 108821, Note_on_c, 0, 61, 0
1, 108821, Note_on_c, 0, 70, 79
1, 108824, Note_on_c, 0, 58, 0
1, 108824, Note_on_c, 0, 53, 0
1, 108824, Note_on_c, 0, 53, 47
1, 108827, Note_on_c, 0, 61, 51
1, 108827, Note_on_c, 0, 58, 47
1, 108938, Note_on_c, 0, 70, 0
1, 108938, Note_on_c, 0, 65, 74
1, 109054, Note_on_c, 0, 65, 0
1, 109054, Note_on_c, 0, 58, 0
1, 109054, Note_on_c, 0, 61, 0
1, 109057, Note_on_c, 0, 53, 0
1, 109057, Control_c, 0, 64, 0
1, 109057, Note_on_c, 0, 43, 59
1, 109130, Control_c, 0, 64, 127
1, 109283, Note_on_c, 0, 43, 0
1, 109283, Note_on_c, 0, 76, 84
1, 109283, Note_on_c, 0, 51, 52
1, 109286, Note_on_c, 0, 58, 52
1, 109286, Note_on_c, 0, 61, 58
1, 109394, Note_on_c, 0, 76, 0
1, 109394, Note_on_c, 0, 75, 80
1, 109505, Note_on_c, 0, 75, 0
1, 109505, Note_on_c, 0, 61, 0
1, 109505, Note_on_c, 0, 73, 84
1, 109508, Note_on_c, 0, 58, 0
1, 109508, Note_on_c, 0, 51, 0
1, 109508, Note_on_c, 0, 51, 47
1, 109511, Note_on_c, 0, 61, 51
1, 109511, Note_on_c, 0, 58, 47
1, 109621, Note_on_c, 0, 73, 0
1, 109621, Note_on_c, 0, 76, 80
1, 109738, Note_on_c, 0, 76, 0
1, 109738, Note_on_c, 0, 58, 0
1, 109738, Note_on_c, 0, 75, 87
1, 109741, Note_on_c, 0, 61, 0
1, 109741, Note_on_c, 0, 51, 0
1, 109741, Note_on_c, 0, 44, 59
1, 109741, Control_c, 0, 64, 0
1, 109809, Control_c, 0, 64, 127
1, 109966, Note_on_c, 0, 44, 0
1, 109966, Note_on_c, 0, 51, 52
1, 109966, Note_on_c, 0, 56, 52
1, 109969, Note_on_c, 0, 60, 58
1, 110080, Note_on_c, 0, 75, 0
1, 110080, Note_on_c, 0, 72, 84
1, 110193, Note_on_c, 0, 72, 0
1, 110193, Note_on_c, 0, 60, 0
1, 110193, Note_on_c, 0, 68, 82
1, 110196, Note_on_c, 0, 56, 0
1, 110196, Note_on_c, 0, 51, 0
1, 110196, Note_on_c, 0, 51, 47
1, 110199, Note_on_c, 0, 60, 51
1, 110199, Note_on_c, 0, 56, 47
1, 110309, Note_on_c, 0, 68, 0
1, 110309, Note_on_c, 0, 63, 76
1, 110426, Note_on_c, 0, 63, 0
1, 110426, Note_on_c, 0, 56, 0
1, 110426, Note_on_c, 0, 60, 0
1, 110429, Note_on_c, 0, 51, 0
1, 110429, Control_c, 0, 64, 0
1, 110429, Note_on_c, 0, 42, 59
1, 110489, Control_c, 0, 64, 127
1, 110658, Note_on_c, 0, 60, 56
1, 110658, Note_on_c, 0, 63, 61
1, 110658, Note_on_c, 0, 68, 84
1, 110661, Note_on_c, 0, 42, 0
1, 110661, Note_on_c, 0, 54, 52
1, 110661, Note_on_c, 0, 56, 58
1, 110884, Note_on_c, 0, 60, 0
1, 110884, Note_on_c, 0, 63, 0
1, 110884, Note_on_c, 0, 60, 56
1, 110887, Note_on_c, 0, 56, 0
1, 110887, Note_on_c, 0, 54, 0
1, 110887, Note_on_c, 0, 63, 61
1, 110890, Note_on_c, 0, 56, 51
1, 110890, Note_on_c, 0, 54, 47
1, 111117, Note_on_c, 0, 63, 0
1, 111117, Note_on_c, 0, 60, 0
1, 111117, Note_on_c, 0, 68, 0
1, 111120, Note_on_c, 0, 56, 0
1, 111120, Note_on_c, 0, 54, 0
1, 111120, Note_on_c, 0, 67, 88
1, 111123, Note_on_c, 0, 41, 67
1, 111123, Control_c, 0, 64, 0
1, 111218, Control_c, 0, 64, 127
1, 111344, Note_on_c, 0, 41, 0
1, 111344, Note_on_c, 0, 60, 52
1, 111344, Note_on_c, 0, 65, 58
1, 111347, Note_on_c, 0, 53, 45
1, 111347, Note_on_c, 0, 56, 48
1, 111571, Note_on_c, 0, 65, 0
1, 111571, Note_on_c, 0, 67, 0
1, 111571, Note_on_c, 0, 60, 0
1, 111574, Note_on_c, 0, 60, 52
1, 111574, Note_on_c, 0, 65, 58
1, 111574, Note_on_c, 0, 68, 84
1, 111577, Note_on_c, 0, 53, 0
1, 111577, Note_on_c, 0, 56, 0
1, 111577, Note_on_c, 0, 53, 50
1, 111580, Note_on_c, 0, 56, 54
1, 111793, Note_on_c, 0, 65, 0
1, 111793, Note_on_c, 0, 68, 0
1, 111793, Note_on_c, 0, 60, 0
1, 111796, Note_on_c, 0, 53, 0
1, 111796, Note_on_c, 0, 56, 0
1, 111796, Note_on_c, 0, 70, 94
1, 111799, Note_on_c, 0, 40, 59
1, 111799, Control_c, 0, 64, 0
1, 111864, Control_c, 0, 64, 127
1, 112022, Note_on_c, 0, 40, 0
1, 112022, Note_on_c, 0, 62, 52
1, 112022, Note_on_c, 0, 68, 58
1, 112025, Note_on_c, 0, 52, 52
1, 112025, Note_on_c, 0, 56, 58
1, 112135, Note_on_c, 0, 70, 0
1, 112135, Note_on_c, 0, 71, 86
1, 112252, Note_on_c, 0, 71, 0
1, 112252, Note_on_c, 0, 62, 0
1, 112252, Note_on_c, 0, 68, 0
1, 112255, Note_on_c, 0, 62, 52
1, 112255, Note_on_c, 0, 68, 58
1, 112255, Note_on_c, 0, 70, 84
1, 112258, Note_on_c, 0, 52, 0
1, 112258, Note_on_c, 0, 56, 0
1, 112258, Note_on_c, 0, 52, 47
1, 112261, Note_on_c, 0, 56, 51
1, 112370, Note_on_c, 0, 70, 0
1, 112370, Note_on_c, 0, 71, 76
1, 112488, Note_on_c, 0, 71, 0
1, 112488, Note_on_c, 0, 68, 0
1, 112488, Note_on_c, 0, 62, 0
1, 112491, Note_on_c, 0, 52, 0
1, 112491, Note_on_c, 0, 56, 0
1, 112491, Note_on_c, 0, 67, 84
1, 112494, Note_on_c, 0, 39, 59
1, 112494, Control_c, 0, 64, 0
1, 112610, Control_c, 0, 64, 127
1, 112720, Note_on_c, 0, 39, 0
1, 112720, Note_on_c, 0, 61, 58
1, 112720, Note_on_c, 0, 63, 62
1, 112723, Note_on_c, 0, 51, 50
1, 112723, Note_on_c, 0, 58, 55
1, 112947, Note_on_c, 0, 63, 0
1, 112947, Note_on_c, 0, 61, 0
1, 112947, Note_on_c, 0, 61, 56
1, 112950, Note_on_c, 0, 58, 0
1, 112950, Note_on_c, 0, 51, 0
1, 112950, Note_on_c, 0, 63, 61
1, 112953, Note_on_c, 0, 58, 48
1, 112953, Note_on_c, 0, 51, 45
1, 113182, Note_on_c, 0, 63, 0
1, 113182, Note_on_c, 0, 61, 0
1, 113182, Note_on_c, 0, 67, 0
1, 113185, Note_on_c, 0, 58, 0
1, 113185, Note_on_c, 0, 51, 0
1, 113185, Control_c, 0, 64, 0
1, 113188, Note_on_c, 0, 44, 59
1, 113337, Control_c, 0, 64, 127
1, 113414, Note_on_c, 0, 44, 0
1, 113414, Note_on_c, 0, 68, 84
1, 113414, Note_on_c, 0, 51, 52
1, 113417, Note_on_c, 0, 56, 52
1, 113417, Note_on_c, 0, 60, 58
1, 113638, Note_on_c, 0, 60, 0
1, 113638, Note_on_c, 0, 56, 0
1, 113638, Note_on_c, 0, 63, 61
1, 113641, Note_on_c, 0, 51, 0
1, 113641, Note_on_c, 0, 51, 47
1, 113641, Note_on_c, 0, 60, 51
1, 113644, Note_on_c, 0, 56, 47
1, 113865, Note_on_c, 0, 63, 0
1, 113865, Note_on_c, 0, 68, 0
1, 113865, Note_on_c, 0, 70, 82
1, 113868, Note_on_c, 0, 60, 0
1, 113868, Note_on_c, 0, 56, 0
1, 113868, Note_on_c, 0, 51, 0
1, 113871, Note_on_c, 0, 39, 67
1, 113871, Control_c, 0, 64, 0
1, 113920, Control_c, 0, 64, 127
1, 114093, Note_on_c, 0, 39, 0
1, 114093, Note_on_c, 0, 63, 48
1, 114093, Note_on_c, 0, 68, 52
1, 114096, Note_on_c, 0, 51, 42
1, 114096, Note_on_c, 0, 56, 42
1, 114096, Note_on_c, 0, 60, 45
1, 114319, Note_on_c, 0, 68, 0
1, 114319, Note_on_c, 0, 70, 0
1, 114319, Note_on_c, 0, 63, 0
1, 114322, Note_on_c, 0, 60, 0
1, 114322, Note_on_c, 0, 56, 0
1, 114322, Note_on_c, 0, 72, 82
1, 114325, Note_on_c, 0, 51, 0
1, 114325, Note_on_c, 0, 51, 50
1, 114325, Note_on_c, 0, 56, 50
1, 114328, Note_on_c, 0, 60, 54
1, 114542, Note_on_c, 0, 60, 0
1, 114542, Note_on_c, 0, 56, 0
1, 114542, Note_on_c, 0, 72, 0
1, 114545, Note_on_c, 0, 51, 0
1, 114545, Control_c, 0, 64, 0
1, 114545, Note_on_c, 0, 46, 61
1, 114617, Control_c, 0, 64, 127
1, 114767, Note_on_c, 0, 46, 0
1, 114767, Note_on_c, 0, 73, 88
1, 114767, Note_on_c, 0, 51, 55
1, 114770, Note_on_c, 0, 61, 60
1, 114770, Note_on_c, 0, 55, 55
1, 114991, Note_on_c, 0, 55, 0
1, 114991, Note_on_c, 0, 63, 55
1, 114991, Note_on_c, 0, 67, 60
1, 114994, Note_on_c, 0, 61, 0
1, 114994, Note_on_c, 0, 51, 0
1, 114994, Note_on_c, 0, 51, 45
1, 114997, Note_on_c, 0, 61, 48
1, 114997, Note_on_c, 0, 55, 45
1, 115219, Note_on_c, 0, 73, 0
1, 115219, Note_on_c, 0, 67, 0
1, 115219, Note_on_c, 0, 63, 0
1, 115222, Note_on_c, 0, 55, 0
1, 115222, Note_on_c, 0, 61, 0
1, 115222, Note_on_c, 0, 72, 87
1, 115225, Note_on_c, 0, 51, 0
1, 115225, Note_on_c, 0, 39, 61
1, 115229, Control_c, 0, 64, 0
1, 115345, Control_c, 0, 64, 127
1, 115446, Note_on_c, 0, 39, 0
1, 115446, Note_on_c, 0, 67, 56
1, 115446, Note_on_c, 0, 63, 51
1, 115449, Note_on_c, 0, 61, 46
1, 115449, Note_on_c, 0, 51, 43
1, 115449, Note_on_c, 0, 55, 43
1, 115673, Note_on_c, 0, 63, 0
1, 115673, Note_on_c, 0, 72, 0
1, 115673, Note_on_c, 0, 67, 0
1, 115676, Note_on_c, 0, 55, 0
1, 115676, Note_on_c, 0, 51, 0
1, 115676, Note_on_c, 0, 70, 75
1, 115679, Note_on_c, 0, 61, 0
1, 115679, Note_on_c, 0, 61, 58
1, 115679, Note_on_c, 0, 51, 52
1, 115682, Note_on_c, 0, 55, 52
1, 115901, Note_on_c, 0, 55, 0
1, 115901, Note_on_c, 0, 51, 0
1, 115901, Note_on_c, 0, 70, 0
1, 115904, Note_on_c, 0, 61, 0
1, 115904, Control_c, 0, 64, 0
1, 115904, Note_on_c, 0, 44, 60
1, 116030, Control_c, 0, 64, 127
1, 116133, Note_on_c, 0, 44, 0
1, 116133, Note_on_c, 0, 72, 88
1, 116133, Note_on_c, 0, 51, 55
1, 116136, Note_on_c, 0, 56, 55
1, 116136, Note_on_c, 0, 60, 60
1, 116359, Note_on_c, 0, 60, 0
1, 116359, Note_on_c, 0, 68, 64
1, 116359, Note_on_c, 0, 63, 60
1, 116362, Note_on_c, 0, 56, 0
1, 116362, Note_on_c, 0, 51, 0
1, 116362, Note_on_c, 0, 51, 50
1, 116365, Note_on_c, 0, 60, 55
1, 116365, Note_on_c, 0, 56, 50
1, 116592, Note_on_c, 0, 72, 0
1, 116592, Note_on_c, 0, 63, 0
1, 116592, Note_on_c, 0, 68, 0
1, 116595, Note_on_c, 0, 56, 0
1, 116595, Note_on_c, 0, 60, 0
1, 116595, Note_on_c, 0, 73, 94
1, 116598, Note_on_c, 0, 51, 0
1, 116598, Note_on_c, 0, 39, 79
1, 116598, Control_c, 0, 64, 0
1, 116697, Control_c, 0, 64, 127
1, 116819, Note_on_c, 0, 39, 0
1, 116819, Note_on_c, 0, 63, 59
1, 116819, Note_on_c, 0, 68, 63
1, 116822, Note_on_c, 0, 54, 52
1, 116822, Note_on_c, 0, 56, 52
1, 116822, Note_on_c, 0, 60, 58
1, 117046, Note_on_c, 0, 68, 0
1, 117046, Note_on_c, 0, 73, 0
1, 117046, Note_on_c, 0, 63, 0
1, 117049, Note_on_c, 0, 60, 0
1, 117049, Note_on_c, 0, 56, 0
1, 117049, Note_on_c, 0, 75, 98
1, 117052, Note_on_c, 0, 54, 0
1, 117052, Note_on_c, 0, 54, 60
1, 117052, Note_on_c, 0, 56, 60
1, 117055, Note_on_c, 0, 60, 64
1, 117268, Note_on_c, 0, 60, 0
1, 117268, Note_on_c, 0, 75, 0
1, 117268, Note_on_c, 0, 77, 100
1, 117271, Note_on_c, 0, 56, 0
1, 117271, Note_on_c, 0, 54, 0
1, 117271, Note_on_c, 0, 44, 85
1, 117271, Control_c, 0, 64, 0
1, 117300, Control_c, 0, 64, 127
1, 117434, Note_on_c, 0, 44, 0
1, 117434, Note_on_c, 0, 77, 0
1, 117434, Note_on_c, 0, 53, 50
1, 117451, Note_on_c, 0, 56, 58
1, 117467, Note_on_c, 0, 59, 67
1, 117484, Note_on_c, 0, 68, 71
1, 117500, Note_on_c, 0, 74, 80
1, 117516, Note_on_c, 0, 79, 101
1, 117683, Note_on_c, 0, 79, 0
1, 117683, Note_on_c, 0, 68, 0
1, 117683, Note_on_c, 0, 74, 0
1, 117686, Note_on_c, 0, 53, 0
1, 117686, Note_on_c, 0, 59, 0
1, 117686, Note_on_c, 0, 56, 0
1, 117689, Note_on_c, 0, 53, 54
1, 117699, Note_on_c, 0, 56, 61
1, 117716, Note_on_c, 0, 59, 68
1, 117732, Note_on_c, 0, 68, 71
1, 117749, Note_on_c, 0, 74, 79
1, 117765, Note_on_c, 0, 80, 104
1, 118009, Note_on_c, 0, 80, 0
1, 118009, Note_on_c, 0, 68, 0
1, 118009, Note_on_c, 0, 74, 0
1, 118012, Note_on_c, 0, 56, 0
1, 118012, Note_on_c, 0, 59, 0
1, 118012, Note_on_c, 0, 75, 109
1, 118015, Note_on_c, 0, 53, 0
1, 118015, Note_on_c, 0, 44, 88
1, 118015, Control_c, 0, 64, 0
1, 118142, Control_c, 0, 64, 127
1, 118248, Note_on_c, 0, 63, 60
1, 118248, Note_on_c, 0, 68, 60
1, 118248, Note_on_c, 0, 72, 67
1, 118251, Note_on_c, 0, 44, 0
1, 118251, Note_on_c, 0, 51, 45
1, 118251, Note_on_c, 0, 56, 45
1, 118254, Note_on_c, 0, 60, 48
1, 118486, Note_on_c, 0, 68, 0
1, 118486, Note_on_c, 0, 72, 0
1, 118486, Note_on_c, 0, 63, 0
1, 118489, Note_on_c, 0, 63, 60
1, 118489, Note_on_c, 0, 68, 60
1, 118489, Note_on_c, 0, 72, 66
1, 118492, Note_on_c, 0, 51, 0
1, 118492, Note_on_c, 0, 60, 0
1, 118492, Note_on_c, 0, 56, 0
1, 118495, Note_on_c, 0, 51, 45
1, 118495, Note_on_c, 0, 56, 45
1, 118495, Note_on_c, 0, 60, 48
1, 118720, Note_on_c, 0, 63, 0
1, 118720, Note_on_c, 0, 72, 0
1, 118720, Note_on_c, 0, 75, 0
1, 118723, Note_on_c, 0, 68, 0
1, 118723, Note_on_c, 0, 56, 0
1, 118723, Note_on_c, 0, 60, 0
1, 118726, Note_on_c, 0, 51, 0
1, 118726, Control_c, 0, 64, 0
1, 118726, Note_on_c, 0, 45, 59
1, 118796, Control_c, 0, 64, 127
1, 118948, Note_on_c, 0, 45, 0
1, 118948, Note_on_c, 0, 78, 84
1, 118948, Note_on_c, 0, 53, 52
1, 118951, Note_on_c, 0, 60, 52
1, 118951, Note_on_c, 0, 63, 58
1, 119056, Note_on_c, 0, 78, 0
1, 119056, Note_on_c, 0, 77, 80
1, 119163, Note_on_c, 0, 77, 0
1, 119163, Note_on_c, 0, 63, 0
1, 119163, Note_on_c, 0, 75, 84
1, 119166, Note_on_c, 0, 60, 0
1, 119166, Note_on_c, 0, 53, 0
1, 119166, Note_on_c, 0, 53, 47
1, 119169, Note_on_c, 0, 63, 51
1, 119169, Note_on_c, 0, 60, 47
1, 119279, Note_on_c, 0, 75, 0
1, 119279, Note_on_c, 0, 78, 80
1, 119396, Note_on_c, 0, 78, 0
1, 119396, Note_on_c, 0, 60, 0
1, 119396, Note_on_c, 0, 77, 87
1, 119399, Note_on_c, 0, 63, 0
1, 119399, Note_on_c, 0, 53, 0
1, 119399, Note_on_c, 0, 46, 59
1, 119402, Control_c, 0, 64, 0
1, 119467, Control_c, 0, 64, 127
1, 119624, Note_on_c, 0, 46, 0
1, 119624, Note_on_c, 0, 53, 52
1, 119624, Note_on_c, 0, 58, 52
1, 119627, Note_on_c, 0, 61, 58
1, 119738, Note_on_c, 0, 77, 0
1, 119738, Note_on_c, 0, 73, 84
1, 119851, Note_on_c, 0, 73, 0
1, 119851, Note_on_c, 0, 61, 0
1, 119851, Note_on_c, 0, 70, 79
1, 119854, Note_on_c, 0, 58, 0
1, 119854, Note_on_c, 0, 53, 0
1, 119854, Control_c, 0, 64, 0
1, 119857, Note_on_c, 0, 53, 47
1, 119857, Note_on_c, 0, 61, 51
1, 119857, Note_on_c, 0, 58, 47
1, 119967, Note_on_c, 0, 70, 0
1, 119967, Note_on_c, 0, 65, 74
1, 120084, Note_on_c, 0, 65, 0
1, 120084, Note_on_c, 0, 58, 0
1, 120084, Note_on_c, 0, 61, 0
1, 120087, Note_on_c, 0, 53, 0
1, 120087, Note_on_c, 0, 47, 64
1, 120158, Control_c, 0, 64, 127
1, 120308, Note_on_c, 0, 47, 0
1, 120308, Note_on_c, 0, 80, 92
1, 120308, Note_on_c, 0, 65, 59
1, 120311, Note_on_c, 0, 55, 54
1, 120311, Note_on_c, 0, 62, 54
1, 120416, Note_on_c, 0, 80, 0
1, 120416, Note_on_c, 0, 79, 86
1, 120525, Note_on_c, 0, 79, 0
1, 120525, Note_on_c, 0, 62, 0
1, 120525, Note_on_c, 0, 77, 90
1, 120528, Note_on_c, 0, 55, 0
1, 120528, Note_on_c, 0, 65, 0
1, 120528, Note_on_c, 0, 55, 48
1, 120531, Note_on_c, 0, 65, 52
1, 120531, Note_on_c, 0, 62, 48
1, 120641, Note_on_c, 0, 77, 0
1, 120641, Note_on_c, 0, 80, 85
1, 120758, Note_on_c, 0, 80, 0
1, 120758, Note_on_c, 0, 62, 0
1, 120758, Note_on_c, 0, 79, 94
1, 120761, Note_on_c, 0, 65, 0
1, 120761, Note_on_c, 0, 55, 0
1, 120761, Note_on_c, 0, 48, 60
1, 120761, Control_c, 0, 64, 0
1, 120829, Control_c, 0, 64, 127
1, 120987, Note_on_c, 0, 48, 0
1, 120987, Note_on_c, 0, 55, 54
1, 120987, Note_on_c, 0, 60, 54
1, 120990, Note_on_c, 0, 64, 59
1, 121100, Note_on_c, 0, 79, 0
1, 121100, Note_on_c, 0, 76, 86
1, 121213, Note_on_c, 0, 76, 0
1, 121213, Note_on_c, 0, 64, 0
1, 121213, Note_on_c, 0, 72, 84
1, 121216, Note_on_c, 0, 60, 0
1, 121216, Note_on_c, 0, 55, 0
1, 121216, Control_c, 0, 64, 0
1, 121219, Note_on_c, 0, 55, 48
1, 121219, Note_on_c, 0, 64, 52
1, 121219, Note_on_c, 0, 60, 48
1, 121330, Note_on_c, 0, 72, 0
1, 121330, Note_on_c, 0, 67, 79
1, 121446, Note_on_c, 0, 67, 0
1, 121446, Note_on_c, 0, 60, 0
1, 121446, Note_on_c, 0, 64, 0
1, 121449, Note_on_c, 0, 55, 0
1, 121449, Note_on_c, 0, 48, 67
1, 121477, Control_c, 0, 64, 127
1, 121671, Note_on_c, 0, 48, 0
1, 121671, Note_on_c, 0, 74, 96
1, 121671, Note_on_c, 0, 56, 59
1, 121674, Note_on_c, 0, 60, 59
1, 121674, Note_on_c, 0, 62, 64
1, 121892, Note_on_c, 0, 62, 0
1, 121892, Note_on_c, 0, 66, 69
1, 121892, Note_on_c, 0, 72, 69
1, 121895, Note_on_c, 0, 60, 0
1, 121895, Note_on_c, 0, 56, 0
1, 121895, Note_on_c, 0, 56, 52
1, 121898, Note_on_c, 0, 62, 58
1, 121898, Note_on_c, 0, 60, 52
1, 122117, Note_on_c, 0, 74, 0
1, 122117, Note_on_c, 0, 72, 0
1, 122117, Note_on_c, 0, 66, 0
1, 122120, Note_on_c, 0, 60, 0
1, 122120, Note_on_c, 0, 62, 0
1, 122120, Note_on_c, 0, 76, 96
1, 122123, Note_on_c, 0, 56, 0
1, 122123, Note_on_c, 0, 48, 68
1, 122123, Control_c, 0, 64, 0
1, 122203, Control_c, 0, 64, 127
1, 122341, Note_on_c, 0, 48, 0
1, 122341, Note_on_c, 0, 67, 55
1, 122341, Note_on_c, 0, 72, 59
1, 122344, Note_on_c, 0, 55, 46
1, 122344, Note_on_c, 0, 60, 46
1, 122344, Note_on_c, 0, 64, 50
1, 122568, Note_on_c, 0, 72, 0
1, 122568, Note_on_c, 0, 76, 0
1, 122568, Note_on_c, 0, 67, 0
1, 122571, Note_on_c, 0, 64, 0
1, 122571, Note_on_c, 0, 60, 0
1, 122571, Note_on_c, 0, 79, 96
1, 122574, Note_on_c, 0, 55, 0
1, 122574, Note_on_c, 0, 55, 56
1, 122574, Note_on_c, 0, 60, 56
1, 122577, Note_on_c, 0, 64, 60
1, 122792, Note_on_c, 0, 64, 0
1, 122792, Note_on_c, 0, 60, 0
1, 122792, Note_on_c, 0, 79, 0
1, 122795, Note_on_c, 0, 55, 0
1, 122795, Control_c, 0, 64, 0
1, 122795, Note_on_c, 0, 48, 69
1, 122867, Control_c, 0, 64, 127
1, 123016, Note_on_c, 0, 48, 0
1, 123016, Note_on_c, 0, 74, 102
1, 123016, Note_on_c, 0, 53, 61
1, 123019, Note_on_c, 0, 62, 68
1, 123019, Note_on_c, 0, 56, 61
1, 123236, Note_on_c, 0, 56, 0
1, 123236, Note_on_c, 0, 65, 61
1, 123236, Note_on_c, 0, 71, 68
1, 123239, Note_on_c, 0, 62, 0
1, 123239, Note_on_c, 0, 53, 0
1, 123239, Note_on_c, 0, 53, 50
1, 123242, Note_on_c, 0, 62, 55
1, 123242, Note_on_c, 0, 56, 50
1, 123463, Note_on_c, 0, 74, 0
1, 123463, Note_on_c, 0, 71, 0
1, 123463, Note_on_c, 0, 65, 0
1, 123466, Note_on_c, 0, 56, 0
1, 123466, Note_on_c, 0, 62, 0
1, 123466, Note_on_c, 0, 76, 100
1, 123469, Note_on_c, 0, 53, 0
1, 123469, Note_on_c, 0, 48, 69
1, 123469, Control_c, 0, 64, 0
1, 123587, Control_c, 0, 64, 127
1, 123686, Note_on_c, 0, 48, 0
1, 123686, Note_on_c, 0, 67, 62
1, 123686, Note_on_c, 0, 64, 58
1, 123689, Note_on_c, 0, 60, 51
1, 123689, Note_on_c, 0, 55, 47
1, 123910, Note_on_c, 0, 55, 0
1, 123910, Note_on_c, 0, 76, 0
1, 123910, Note_on_c, 0, 72, 86
1, 123913, Note_on_c, 0, 60, 0
1, 123913, Note_on_c, 0, 60, 64
1, 123913, Note_on_c, 0, 55, 59
1, 124137, Note_on_c, 0, 67, 0
1, 124137, Note_on_c, 0, 72, 0
1, 124137, Note_on_c, 0, 64, 0
1, 124140, Note_on_c, 0, 60, 0
1, 124140, Note_on_c, 0, 55, 0
1, 124140, Control_c, 0, 64, 0
1, 124143, Note_on_c, 0, 48, 68
1, 124199, Control_c, 0, 64, 127
1, 124362, Note_on_c, 0, 48, 0
1, 124362, Note_on_c, 0, 74, 98
1, 124362, Note_on_c, 0, 56, 61
1, 124365, Note_on_c, 0, 60, 61
1, 124365, Note_on_c, 0, 62, 68
1, 124583, Note_on_c, 0, 62, 0
1, 124583, Note_on_c, 0, 72, 74
1, 124583, Note_on_c, 0, 66, 68
1, 124586, Note_on_c, 0, 60, 0
1, 124586, Note_on_c, 0, 56, 0
1, 124586, Note_on_c, 0, 56, 56
1, 124589, Note_on_c, 0, 62, 61
1, 124589, Note_on_c, 0, 60, 56
1, 124810, Note_on_c, 0, 74, 0
1, 124810, Note_on_c, 0, 66, 0
1, 124810, Note_on_c, 0, 72, 0
1, 124813, Note_on_c, 0, 60, 0
1, 124813, Note_on_c, 0, 62, 0
1, 124813, Note_on_c, 0, 76, 100
1, 124816, Note_on_c, 0, 56, 0
1, 124816, Note_on_c, 0, 48, 67
1, 124816, Control_c, 0, 64, 0
1, 124917, Control_c, 0, 64, 127
1, 125036, Note_on_c, 0, 48, 0
1, 125036, Note_on_c, 0, 67, 67
1, 125036, Note_on_c, 0, 72, 71
1, 125039, Note_on_c, 0, 55, 56
1, 125039, Note_on_c, 0, 60, 56
1, 125039, Note_on_c, 0, 64, 60
1, 125258, Note_on_c, 0, 72, 0
1, 125258, Note_on_c, 0, 76, 0
1, 125258, Note_on_c, 0, 67, 0
1, 125261, Note_on_c, 0, 64, 0
1, 125261, Note_on_c, 0, 60, 0
1, 125261, Note_on_c, 0, 79, 95
1, 125264, Note_on_c, 0, 55, 0
1, 125264, Note_on_c, 0, 55, 62
1, 125264, Note_on_c, 0, 60, 62
1, 125267, Note_on_c, 0, 64, 69
1, 125484, Note_on_c, 0, 64, 0
1, 125484, Note_on_c, 0, 79, 0
1, 125484, Note_on_c, 0, 74, 100
1, 125487, Note_on_c, 0, 60, 0
1, 125487, Note_on_c, 0, 55, 0
1, 125487, Control_c, 0, 64, 0
1, 125490, Note_on_c, 0, 48, 67
1, 125555, Control_c, 0, 64, 127
1, 125713, Note_on_c, 0, 48, 0
1, 125713, Note_on_c, 0, 65, 64
1, 125713, Note_on_c, 0, 71, 67
1, 125716, Note_on_c, 0, 53, 59
1, 125716, Note_on_c, 0, 56, 59
1, 125716, Note_on_c, 0, 62, 64
1, 125826, Note_on_c, 0, 74, 0
1, 125826, Note_on_c, 0, 76, 96
1, 125939, Note_on_c, 0, 76, 0
1, 125939, Note_on_c, 0, 71, 0
1, 125939, Note_on_c, 0, 65, 0
1, 125942, Note_on_c, 0, 65, 68
1, 125942, Note_on_c, 0, 71, 67
1, 125942, Note_on_c, 0, 74, 90
1, 125945, Note_on_c, 0, 53, 0
1, 125945, Note_on_c, 0, 62, 0
1, 125945, Note_on_c, 0, 56, 0
1, 125948, Note_on_c, 0, 53, 52
1, 125948, Note_on_c, 0, 62, 58
1, 125948, Note_on_c, 0, 56, 52
1, 126054, Note_on_c, 0, 74, 0
1, 126054, Note_on_c, 0, 76, 85
1, 126169, Note_on_c, 0, 76, 0
1, 126169, Note_on_c, 0, 71, 0
1, 126169, Note_on_c, 0, 65, 0
1, 126172, Note_on_c, 0, 56, 0
1, 126172, Note_on_c, 0, 62, 0
1, 126172, Note_on_c, 0, 72, 92
1, 126175, Note_on_c, 0, 53, 0
1, 126175, Note_on_c, 0, 48, 67
1, 126175, Control_c, 0, 64, 0
1, 126240, Control_c, 0, 64, 127
1, 126398, Note_on_c, 0, 48, 0
1, 126398, Note_on_c, 0, 55, 50
1, 126398, Note_on_c, 0, 60, 50
1, 126401, Note_on_c, 0, 64, 55
1, 126511, Note_on_c, 0, 72, 0
1, 126511, Note_on_c, 0, 76, 79
1, 126628, Note_on_c, 0, 76, 0
1, 126628, Note_on_c, 0, 64, 0
1, 126628, Note_on_c, 0, 75, 83
1, 126631, Note_on_c, 0, 60, 0
1, 126631, Note_on_c, 0, 55, 0
1, 126631, Control_c, 0, 64, 0
1, 126750, Note_on_c, 0, 75, 0
1, 126750, Note_on_c, 0, 76, 80
1, 126872, Note_on_c, 0, 76, 0
1, 126872, Note_on_c, 0, 72, 92
1, 126872, Note_on_c, 0, 48, 67
1, 126945, Control_c, 0, 64, 127
1, 127108, Note_on_c, 0, 48, 0
1, 127108, Note_on_c, 0, 55, 50
1, 127108, Note_on_c, 0, 60, 50
1, 127111, Note_on_c, 0, 64, 55
1, 127223, Note_on_c, 0, 72, 0
1, 127223, Note_on_c, 0, 76, 79
1, 127338, Note_on_c, 0, 76, 0
1, 127338, Note_on_c, 0, 64, 0
1, 127338, Note_on_c, 0, 75, 83
1, 127341, Note_on_c, 0, 60, 0
1, 127341, Note_on_c, 0, 55, 0
1, 127341, Control_c, 0, 64, 0
1, 127455, Note_on_c, 0, 75, 0
1, 127455, Note_on_c, 0, 76, 80
1, 127572, Note_on_c, 0, 76, 0
1, 127572, Note_on_c, 0, 72, 92
1, 127572, Note_on_c, 0, 48, 67
1, 127644, Control_c, 0, 64, 127
1, 127688, Note_on_c, 0, 72, 0
1, 127688, Note_on_c, 0, 76, 79
1, 127801, Note_on_c, 0, 76, 0
1, 127801, Note_on_c, 0, 48, 0
1, 127801, Note_on_c, 0, 75, 83
1, 127804, Note_on_c, 0, 55, 50
1, 127804, Note_on_c, 0, 60, 50
1, 127804, Note_on_c, 0, 64, 55
1, 127916, Note_on_c, 0, 75, 0
1, 127916, Note_on_c, 0, 76, 79
1, 128032, Note_on_c, 0, 76, 0
1, 128032, Note_on_c, 0, 64, 0
1, 128032, Note_on_c, 0, 72, 87
1, 128035, Note_on_c, 0, 60, 0
1, 128035, Note_on_c, 0, 55, 0
1, 128038, Control_c, 0, 64, 0
1, 128070, Control_c, 0, 64, 127
1, 128146, Note_on_c, 0, 72, 0
1, 128146, Note_on_c, 0, 76, 80
1, 128258, Note_on_c, 0, 76, 0
1, 128258, Note_on_c, 0, 75, 84
1, 128372, Note_on_c, 0, 75, 0
1, 128372, Note_on_c, 0, 76, 79
1, 128485, Note_on_c, 0, 76, 0
1, 128485, Note_on_c, 0, 72, 88
1, 128490, Control_c, 0, 64, 0
1, 128539, Control_c, 0, 64, 127
1, 128598, Note_on_c, 0, 72, 0
1, 128598, Note_on_c, 0, 76, 79
1, 128710, Note_on_c, 0, 76, 0
1, 128710, Note_on_c, 0, 75, 83
1, 128824, Note_on_c, 0, 75, 0
1, 128824, Note_on_c, 0, 76, 80
1, 128937, Note_on_c, 0, 76, 0
1, 128937, Note_on_c, 0, 73, 84
1, 128937, Note_on_c, 0, 58, 67
1, 128941, Control_c, 0, 64, 0
1, 129012, Control_c, 0, 64, 127
1, 129049, Note_on_c, 0, 73, 0
1, 129049, Note_on_c, 0, 77, 79
1, 129162, Note_on_c, 0, 77, 0
1, 129162, Note_on_c, 0, 58, 0
1, 129162, Note_on_c, 0, 76, 90
1, 129165, Note_on_c, 0, 65, 59
1, 129165, Note_on_c, 0, 61, 54
1, 129274, Note_on_c, 0, 76, 0
1, 129274, Note_on_c, 0, 77, 80
1, 129384, Note_on_c, 0, 77, 0
1, 129384, Note_on_c, 0, 61, 0
1, 129384, Note_on_c, 0, 73, 85
1, 129387, Note_on_c, 0, 65, 0
1, 129387, Note_on_c, 0, 65, 60
1, 129387, Note_on_c, 0, 61, 55
1, 129496, Note_on_c, 0, 73, 0
1, 129496, Note_on_c, 0, 77, 83
1, 129608, Note_on_c, 0, 77, 0
1, 129608, Note_on_c, 0, 61, 0
1, 129608, Note_on_c, 0, 76, 87
1, 129611, Note_on_c, 0, 65, 0
1, 129611, Note_on_c, 0, 56, 69
1, 129614, Control_c, 0, 64, 0
1, 129672, Control_c, 0, 64, 127
1, 129719, Note_on_c, 0, 76, 0
1, 129719, Note_on_c, 0, 77, 83
1, 129826, Note_on_c, 0, 73, 94
1, 129831, Note_on_c, 0, 77, 0
1, 129831, Note_on_c, 0, 56, 0
1, 129831, Note_on_c, 0, 65, 60
1, 129834, Note_on_c, 0, 61, 55
1, 129834, Note_on_c, 0, 58, 55
1, 129938, Note_on_c, 0, 73, 0
1, 129943, Note_on_c, 0, 77, 85
1, 130053, Note_on_c, 0, 77, 0
1, 130053, Note_on_c, 0, 58, 0
1, 130053, Note_on_c, 0, 76, 88
1, 130056, Note_on_c, 0, 61, 0
1, 130056, Note_on_c, 0, 65, 0
1, 130056, Note_on_c, 0, 65, 61
1, 130059, Note_on_c, 0, 61, 56
1, 130059, Note_on_c, 0, 58, 56
1, 130165, Note_on_c, 0, 76, 0
1, 130165, Note_on_c, 0, 77, 87
1, 130277, Note_on_c, 0, 77, 0
1, 130277, Note_on_c, 0, 58, 0
1, 130277, Note_on_c, 0, 71, 93
1, 130280, Note_on_c, 0, 61, 0
1, 130280, Note_on_c, 0, 65, 0
1, 130280, Note_on_c, 0, 55, 72
1, 130280, Control_c, 0, 64, 0
1, 130340, Control_c, 0, 64, 127
1, 130387, Note_on_c, 0, 77, 87
1, 130496, Note_on_c, 0, 76, 99
1, 130501, Note_on_c, 0, 77, 0
1, 130501, Note_on_c, 0, 55, 0
1, 130501, Note_on_c, 0, 65, 62
1, 130504, Note_on_c, 0, 62, 58
1, 130504, Note_on_c, 0, 59, 58
1, 130608, Note_on_c, 0, 76, 0
1, 130614, Note_on_c, 0, 77, 88
1, 130725, Note_on_c, 0, 77, 0
1, 130725, Note_on_c, 0, 59, 0
1, 130725, Note_on_c, 0, 80, 102
1, 130728, Note_on_c, 0, 62, 0
1, 130728, Note_on_c, 0, 65, 0
1, 130728, Note_on_c, 0, 65, 63
1, 130731, Note_on_c, 0, 62, 58
1, 130731, Note_on_c, 0, 59, 58
1, 130839, Note_on_c, 0, 80, 0
1, 130839, Note_on_c, 0, 79, 98
1, 130953, Note_on_c, 0, 79, 0
1, 130953, Note_on_c, 0, 71, 0
1, 130953, Note_on_c, 0, 75, 110
1, 130956, Note_on_c, 0, 62, 0
1, 130956, Note_on_c, 0, 59, 0
1, 130956, Note_on_c, 0, 65, 0
1, 130959, Control_c, 0, 64, 0
1, 130959, Note_on_c, 0, 48, 79
1, 131040, Control_c, 0, 64, 127
1, 131179, Note_on_c, 0, 48, 0
1, 131179, Note_on_c, 0, 67, 67
1, 131179, Note_on_c, 0, 60, 67
1, 131182, Note_on_c, 0, 55, 67
1, 131292, Note_on_c, 0, 75, 0
1, 131292, Note_on_c, 0, 76, 96
1, 131405, Note_on_c, 0, 76, 0
1, 131405, Note_on_c, 0, 55, 0
1, 131405, Note_on_c, 0, 79, 99
1, 131408, Note_on_c, 0, 60, 0
1, 131408, Note_on_c, 0, 67, 0
1, 131408, Note_on_c, 0, 67, 72
1, 131411, Note_on_c, 0, 60, 72
1, 131411, Note_on_c, 0, 55, 72
1, 131519, Note_on_c, 0, 79, 0
1, 131519, Note_on_c, 0, 84, 94
1, 131633, Note_on_c, 0, 84, 0
1, 131633, Note_on_c, 0, 55, 0
1, 131633, Note_on_c, 0, 69, 93
1, 131636, Note_on_c, 0, 60, 0
1, 131636, Note_on_c, 0, 67, 0
1, 131636, Note_on_c, 0, 53, 72
1, 131636, Control_c, 0, 64, 0
1, 131697, Control_c, 0, 64, 127
1, 131745, Note_on_c, 0, 75, 87
1, 131859, Note_on_c, 0, 75, 0
1, 131859, Note_on_c, 0, 53, 0
1, 131859, Note_on_c, 0, 74, 99
1, 131862, Note_on_c, 0, 65, 62
1, 131862, Note_on_c, 0, 60, 58
1, 131862, Note_on_c, 0, 57, 58
1, 131971, Note_on_c, 0, 74, 0
1, 131971, Note_on_c, 0, 75, 88
1, 132083, Note_on_c, 0, 75, 0
1, 132083, Note_on_c, 0, 57, 0
1, 132083, Note_on_c, 0, 78, 96
1, 132086, Note_on_c, 0, 60, 0
1, 132086, Note_on_c, 0, 65, 0
1, 132086, Note_on_c, 0, 65, 63
1, 132089, Note_on_c, 0, 60, 58
1, 132089, Note_on_c, 0, 57, 58
1, 132197, Note_on_c, 0, 78, 0
1, 132197, Note_on_c, 0, 77, 92
1, 132311, Note_on_c, 0, 77, 0
1, 132311, Note_on_c, 0, 69, 0
1, 132311, Note_on_c, 0, 72, 99
1, 132314, Note_on_c, 0, 60, 0
1, 132314, Note_on_c, 0, 57, 0
1, 132314, Note_on_c, 0, 65, 0
1, 132317, Note_on_c, 0, 46, 76
1, 132317, Control_c, 0, 64, 0
1, 132397, Control_c, 0, 64, 127
1, 132537, Note_on_c, 0, 46, 0
1, 132537, Note_on_c, 0, 65, 61
1, 132537, Note_on_c, 0, 61, 61
1, 132540, Note_on_c, 0, 58, 61
1, 132649, Note_on_c, 0, 72, 0
1, 132649, Note_on_c, 0, 73, 94
1, 132763, Note_on_c, 0, 73, 0
1, 132763, Note_on_c, 0, 58, 0
1, 132763, Note_on_c, 0, 77, 95
1, 132766, Note_on_c, 0, 61, 0
1, 132766, Note_on_c, 0, 65, 0
1, 132766, Note_on_c, 0, 65, 67
1, 132769, Note_on_c, 0, 61, 67
1, 132769, Note_on_c, 0, 58, 67
1, 132877, Note_on_c, 0, 77, 0
1, 132877, Note_on_c, 0, 82, 93
1, 132991, Note_on_c, 0, 82, 0
1, 132991, Note_on_c, 0, 58, 0
1, 132991, Note_on_c, 0, 69, 99
1, 132994, Note_on_c, 0, 61, 0
1, 132994, Note_on_c, 0, 65, 0
1, 132994, Note_on_c, 0, 49, 71
1, 132997, Control_c, 0, 64, 0
1, 133077, Control_c, 0, 64, 127
1, 133217, Note_on_c, 0, 49, 0
1, 133217, Note_on_c, 0, 65, 61
1, 133217, Note_on_c, 0, 61, 61
1, 133220, Note_on_c, 0, 58, 61
1, 133329, Note_on_c, 0, 69, 0
1, 133329, Note_on_c, 0, 70, 93
1, 133443, Note_on_c, 0, 70, 0
1, 133443, Note_on_c, 0, 58, 0
1, 133443, Note_on_c, 0, 73, 96
1, 133446, Note_on_c, 0, 61, 0
1, 133446, Note_on_c, 0, 65, 0
1, 133446, Note_on_c, 0, 65, 61
1, 133449, Note_on_c, 0, 61, 61
1, 133449, Note_on_c, 0, 58, 61
1, 133556, Note_on_c, 0, 73, 0
1, 133556, Note_on_c, 0, 80, 92
1, 133670, Note_on_c, 0, 80, 0
1, 133670, Note_on_c, 0, 58, 0
1, 133670, Note_on_c, 0, 79, 92
1, 133673, Note_on_c, 0, 61, 0
1, 133673, Note_on_c, 0, 65, 0
1, 133673, Note_on_c, 0, 51, 71
1, 133677, Control_c, 0, 64, 0
1, 133720, Control_c, 0, 64, 127
1, 133787, Note_on_c, 0, 79, 0
1, 133787, Note_on_c, 0, 77, 85
1, 133903, Note_on_c, 0, 77, 0
1, 133903, Note_on_c, 0, 51, 0
1, 133903, Note_on_c, 0, 75, 86
1, 133906, Note_on_c, 0, 58, 56
1, 133906, Note_on_c, 0, 61, 56
1, 133906, Note_on_c, 0, 63, 61
1, 134019, Note_on_c, 0, 75, 0
1, 134019, Note_on_c, 0, 74, 80
1, 134136, Note_on_c, 0, 74, 0
1, 134136, Note_on_c, 0, 63, 0
1, 134136, Note_on_c, 0, 77, 84
1, 134139, Note_on_c, 0, 61, 0
1, 134139, Note_on_c, 0, 58, 0
1, 134139, Note_on_c, 0, 58, 56
1, 134142, Note_on_c, 0, 61, 56
1, 134142, Note_on_c, 0, 63, 61
1, 134252, Note_on_c, 0, 77, 0
1, 134252, Note_on_c, 0, 75, 80
1, 134369, Note_on_c, 0, 75, 0
1, 134369, Note_on_c, 0, 63, 0
1, 134369, Note_on_c, 0, 73, 84
1, 134372, Note_on_c, 0, 61, 0
1, 134372, Note_on_c, 0, 58, 0
1, 134372, Note_on_c, 0, 58, 67
1, 134372, Control_c, 0, 64, 0
1, 134418, Control_c, 0, 64, 127
1, 134483, Note_on_c, 0, 73, 0
1, 134483, Note_on_c, 0, 77, 79
1, 134597, Note_on_c, 0, 77, 0
1, 134597, Note_on_c, 0, 58, 0
1, 134597, Note_on_c, 0, 76, 90
1, 134600, Note_on_c, 0, 65, 59
1, 134600, Note_on_c, 0, 61, 54
1, 134709, Note_on_c, 0, 76, 0
1, 134709, Note_on_c, 0, 77, 80
1, 134821, Note_on_c, 0, 77, 0
1, 134821, Note_on_c, 0, 61, 0
1, 134821, Note_on_c, 0, 73, 85
1, 134824, Note_on_c, 0, 65, 0
1, 134824, Note_on_c, 0, 65, 60
1, 134824, Note_on_c, 0, 61, 55
1, 134935, Note_on_c, 0, 73, 0
1, 134935, Note_on_c, 0, 77, 83
1, 135049, Note_on_c, 0, 77, 0
1, 135049, Note_on_c, 0, 61, 0
1, 135049, Note_on_c, 0, 76, 87
1, 135052, Note_on_c, 0, 65, 0
1, 135052, Note_on_c, 0, 56, 69
1, 135052, Control_c, 0, 64, 0
1, 135114, Control_c, 0, 64, 127
1, 135162, Note_on_c, 0, 76, 0
1, 135162, Note_on_c, 0, 77, 83
1, 135272, Note_on_c, 0, 73, 94
1, 135277, Note_on_c, 0, 77, 0
1, 135277, Note_on_c, 0, 56, 0
1, 135277, Note_on_c, 0, 65, 60
1, 135280, Note_on_c, 0, 61, 55
1, 135280, Note_on_c, 0, 58, 55
1, 135384, Note_on_c, 0, 73, 0
1, 135389, Note_on_c, 0, 77, 85
1, 135500, Note_on_c, 0, 77, 0
1, 135500, Note_on_c, 0, 58, 0
1, 135500, Note_on_c, 0, 76, 88
1, 135503, Note_on_c, 0, 61, 0
1, 135503, Note_on_c, 0, 65, 0
1, 135503, Note_on_c, 0, 65, 61
1, 135506, Note_on_c, 0, 61, 56
1, 135506, Note_on_c, 0, 58, 56
1, 135612, Note_on_c, 0, 76, 0
1, 135612, Note_on_c, 0, 77, 87
1, 135724, Note_on_c, 0, 77, 0
1, 135724, Note_on_c, 0, 58, 0
1, 135724, Note_on_c, 0, 71, 93
1, 135727, Note_on_c, 0, 61, 0
1, 135727, Note_on_c, 0, 65, 0
1, 135727, Note_on_c, 0, 55, 72
1, 135727, Control_c, 0, 64, 0
1, 135788, Control_c, 0, 64, 127
1, 135836, Note_on_c, 0, 77, 87
1, 135945, Note_on_c, 0, 76, 99
1, 135950, Note_on_c, 0, 77, 0
1, 135950, Note_on_c, 0, 55, 0
1, 135950, Note_on_c, 0, 65, 62
1, 135953, Note_on_c, 0, 62, 58
1, 135953, Note_on_c, 0, 59, 58
1, 136057, Note_on_c, 0, 76, 0
1, 136062, Note_on_c, 0, 77, 88
1, 136174, Note_on_c, 0, 77, 0
1, 136174, Note_on_c, 0, 59, 0
1, 136174, Note_on_c, 0, 80, 102
1, 136177, Note_on_c, 0, 62, 0
1, 136177, Note_on_c, 0, 65, 0
1, 136177, Note_on_c, 0, 65, 63
1, 136180, Note_on_c, 0, 62, 58
1, 136180, Note_on_c, 0, 59, 58
1, 136288, Note_on_c, 0, 80, 0
1, 136288, Note_on_c, 0, 79, 98
1, 136402, Note_on_c, 0, 79, 0
1, 136402, Note_on_c, 0, 71, 0
1, 136402, Note_on_c, 0, 75, 110
1, 136405, Note_on_c, 0, 62, 0
1, 136405, Note_on_c, 0, 59, 0
1, 136405, Note_on_c, 0, 65, 0
1, 136408, Note_on_c, 0, 48, 79
1, 136408, Control_c, 0, 64, 0
1, 136488, Control_c, 0, 64, 127
1, 136628, Note_on_c, 0, 48, 0
1, 136628, Note_on_c, 0, 67, 72
1, 136628, Note_on_c, 0, 60, 72
1, 136631, Note_on_c, 0, 55, 72
1, 136740, Note_on_c, 0, 75, 0
1, 136740, Note_on_c, 0, 76, 95
1, 136854, Note_on_c, 0, 76, 0
1, 136854, Note_on_c, 0, 55, 0
1, 136854, Note_on_c, 0, 79, 99
1, 136857, Note_on_c, 0, 60, 0
1, 136857, Note_on_c, 0, 67, 0
1, 136857, Note_on_c, 0, 67, 72
1, 136860, Note_on_c, 0, 60, 72
1, 136860, Note_on_c, 0, 55, 72
1, 136968, Note_on_c, 0, 79, 0
1, 136968, Note_on_c, 0, 84, 95
1, 137082, Note_on_c, 0, 84, 0
1, 137082, Note_on_c, 0, 55, 0
1, 137082, Note_on_c, 0, 69, 93
1, 137085, Note_on_c, 0, 60, 0
1, 137085, Note_on_c, 0, 67, 0
1, 137085, Note_on_c, 0, 53, 72
1, 137085, Control_c, 0, 64, 0
1, 137146, Control_c, 0, 64, 127
1, 137194, Note_on_c, 0, 75, 87
1, 137308, Note_on_c, 0, 75, 0
1, 137308, Note_on_c, 0, 53, 0
1, 137308, Note_on_c, 0, 74, 99
1, 137311, Note_on_c, 0, 65, 62
1, 137311, Note_on_c, 0, 60, 58
1, 137311, Note_on_c, 0, 57, 58
1, 137420, Note_on_c, 0, 74, 0
1, 137420, Note_on_c, 0, 75, 88
1, 137532, Note_on_c, 0, 75, 0
1, 137532, Note_on_c, 0, 57, 0
1, 137532, Note_on_c, 0, 78, 95
1, 137535, Note_on_c, 0, 60, 0
1, 137535, Note_on_c, 0, 65, 0
1, 137535, Note_on_c, 0, 65, 63
1, 137538, Note_on_c, 0, 60, 58
1, 137538, Note_on_c, 0, 57, 58
1, 137646, Note_on_c, 0, 78, 0
1, 137646, Note_on_c, 0, 77, 92
1, 137760, Note_on_c, 0, 77, 0
1, 137760, Note_on_c, 0, 69, 0
1, 137760, Note_on_c, 0, 72, 101
1, 137763, Note_on_c, 0, 60, 0
1, 137763, Note_on_c, 0, 57, 0
1, 137763, Note_on_c, 0, 65, 0
1, 137766, Note_on_c, 0, 46, 76
1, 137766, Control_c, 0, 64, 0
1, 137846, Control_c, 0, 64, 127
1, 137986, Note_on_c, 0, 46, 0
1, 137986, Note_on_c, 0, 65, 61
1, 137986, Note_on_c, 0, 61, 61
1, 137989, Note_on_c, 0, 58, 61
1, 138098, Note_on_c, 0, 72, 0
1, 138098, Note_on_c, 0, 73, 93
1, 138212, Note_on_c, 0, 73, 0
1, 138212, Note_on_c, 0, 58, 0
1, 138212, Note_on_c, 0, 77, 96
1, 138215, Note_on_c, 0, 61, 0
1, 138215, Note_on_c, 0, 65, 0
1, 138215, Note_on_c, 0, 65, 67
1, 138218, Note_on_c, 0, 61, 67
1, 138218, Note_on_c, 0, 58, 67
1, 138326, Note_on_c, 0, 77, 0
1, 138326, Note_on_c, 0, 82, 90
1, 138440, Note_on_c, 0, 82, 0
1, 138440, Note_on_c, 0, 58, 0
1, 138440, Note_on_c, 0, 69, 94
1, 138443, Note_on_c, 0, 61, 0
1, 138443, Note_on_c, 0, 65, 0
1, 138443, Note_on_c, 0, 49, 71
1, 138443, Control_c, 0, 64, 0
1, 138526, Control_c, 0, 64, 127
1, 138666, Note_on_c, 0, 49, 0
1, 138666, Note_on_c, 0, 65, 61
1, 138666, Note_on_c, 0, 61, 61
1, 138669, Note_on_c, 0, 58, 61
1, 138778, Note_on_c, 0, 69, 0
1, 138778, Note_on_c, 0, 70, 85
1, 138892, Note_on_c, 0, 70, 0
1, 138892, Note_on_c, 0, 58, 0
1, 138892, Note_on_c, 0, 72, 87
1, 138895, Note_on_c, 0, 61, 0
1, 138895, Note_on_c, 0, 65, 0
1, 138895, Note_on_c, 0, 65, 61
1, 138898, Note_on_c, 0, 61, 61
1, 138898, Note_on_c, 0, 58, 61
1, 139005, Note_on_c, 0, 72, 0
1, 139005, Note_on_c, 0, 73, 84
1, 139119, Note_on_c, 0, 73, 0
1, 139119, Note_on_c, 0, 58, 0
1, 139119, Note_on_c, 0, 66, 88
1, 139122, Note_on_c, 0, 61, 0
1, 139122, Note_on_c, 0, 65, 0
1, 139122, Note_on_c, 0, 51, 68
1, 139122, Control_c, 0, 64, 0
1, 139205, Control_c, 0, 64, 127
1, 139345, Note_on_c, 0, 51, 0
1, 139345, Note_on_c, 0, 63, 59
1, 139345, Note_on_c, 0, 61, 59
1, 139348, Note_on_c, 0, 58, 59
1, 139457, Note_on_c, 0, 66, 0
1, 139457, Note_on_c, 0, 67, 82
1, 139571, Note_on_c, 0, 67, 0
1, 139571, Note_on_c, 0, 58, 0
1, 139571, Note_on_c, 0, 69, 84
1, 139574, Note_on_c, 0, 61, 0
1, 139574, Note_on_c, 0, 63, 0
1, 139574, Note_on_c, 0, 63, 59
1, 139577, Note_on_c, 0, 61, 59
1, 139577, Note_on_c, 0, 58, 59
1, 139685, Note_on_c, 0, 69, 0
1, 139685, Note_on_c, 0, 70, 80
1, 139799, Note_on_c, 0, 70, 0
1, 139799, Note_on_c, 0, 58, 0
1, 139799, Note_on_c, 0, 61, 0
1, 139802, Note_on_c, 0, 63, 0
1, 139802, Control_c, 0, 64, 0
1, 139802, Note_on_c, 0, 44, 59
1, 139900, Control_c, 0, 64, 127
1, 140027, Note_on_c, 0, 44, 0
1, 140027, Note_on_c, 0, 68, 84
1, 140027, Note_on_c, 0, 51, 52
1, 140030, Note_on_c, 0, 56, 52
1, 140030, Note_on_c, 0, 60, 58
1, 140250, Note_on_c, 0, 60, 0
1, 140250, Note_on_c, 0, 56, 0
1, 140250, Note_on_c, 0, 63, 61
1, 140253, Note_on_c, 0, 51, 0
1, 140253, Note_on_c, 0, 51, 47
1, 140253, Note_on_c, 0, 60, 51
1, 140256, Note_on_c, 0, 56, 47
1, 140477, Note_on_c, 0, 63, 0
1, 140477, Note_on_c, 0, 68, 0
1, 140477, Note_on_c, 0, 70, 84
1, 140480, Note_on_c, 0, 60, 0
1, 140480, Note_on_c, 0, 56, 0
1, 140480, Note_on_c, 0, 51, 0
1, 140483, Note_on_c, 0, 39, 67
1, 140483, Control_c, 0, 64, 0
1, 140552, Control_c, 0, 64, 127
1, 140701, Note_on_c, 0, 39, 0
1, 140701, Note_on_c, 0, 63, 48
1, 140701, Note_on_c, 0, 68, 52
1, 140704, Note_on_c, 0, 51, 42
1, 140704, Note_on_c, 0, 56, 42
1, 140704, Note_on_c, 0, 60, 45
1, 140927, Note_on_c, 0, 68, 0
1, 140927, Note_on_c, 0, 70, 0
1, 140927, Note_on_c, 0, 63, 0
1, 140930, Note_on_c, 0, 60, 0
1, 140930, Note_on_c, 0, 56, 0
1, 140930, Note_on_c, 0, 72, 84
1, 140933, Note_on_c, 0, 51, 0
1, 140933, Note_on_c, 0, 51, 50
1, 140933, Note_on_c, 0, 56, 50
1, 140936, Note_on_c, 0, 60, 54
1, 141150, Note_on_c, 0, 60, 0
1, 141150, Note_on_c, 0, 56, 0
1, 141150, Note_on_c, 0, 72, 0
1, 141153, Note_on_c, 0, 51, 0
1, 141153, Control_c, 0, 64, 0
1, 141153, Note_on_c, 0, 46, 61
1, 141263, Control_c, 0, 64, 127
1, 141376, Note_on_c, 0, 46, 0
1, 141376, Note_on_c, 0, 73, 88
1, 141376, Note_on_c, 0, 51, 55
1, 141379, Note_on_c, 0, 61, 60
1, 141379, Note_on_c, 0, 55, 55
1, 141599, Note_on_c, 0, 55, 0
1, 141599, Note_on_c, 0, 63, 55
1, 141599, Note_on_c, 0, 67, 60
1, 141602, Note_on_c, 0, 61, 0
1, 141602, Note_on_c, 0, 51, 0
1, 141602, Note_on_c, 0, 51, 45
1, 141605, Note_on_c, 0, 61, 48
1, 141605, Note_on_c, 0, 55, 45
1, 141827, Note_on_c, 0, 73, 0
1, 141827, Note_on_c, 0, 67, 0
1, 141827, Note_on_c, 0, 63, 0
1, 141830, Note_on_c, 0, 55, 0
1, 141830, Note_on_c, 0, 61, 0
1, 141830, Note_on_c, 0, 72, 87
1, 141833, Note_on_c, 0, 51, 0
1, 141833, Note_on_c, 0, 39, 61
1, 141833, Control_c, 0, 64, 0
1, 141953, Control_c, 0, 64, 127
1, 142054, Note_on_c, 0, 39, 0
1, 142054, Note_on_c, 0, 67, 56
1, 142054, Note_on_c, 0, 63, 51
1, 142057, Note_on_c, 0, 61, 46
1, 142057, Note_on_c, 0, 51, 43
1, 142057, Note_on_c, 0, 55, 43
1, 142281, Note_on_c, 0, 63, 0
1, 142281, Note_on_c, 0, 72, 0
1, 142281, Note_on_c, 0, 67, 0
1, 142284, Note_on_c, 0, 55, 0
1, 142284, Note_on_c, 0, 51, 0
1, 142284, Note_on_c, 0, 70, 75
1, 142287, Note_on_c, 0, 61, 0
1, 142287, Note_on_c, 0, 61, 58
1, 142287, Note_on_c, 0, 51, 52
1, 142290, Note_on_c, 0, 55, 52
1, 142509, Note_on_c, 0, 55, 0
1, 142509, Note_on_c, 0, 51, 0
1, 142509, Note_on_c, 0, 70, 0
1, 142512, Note_on_c, 0, 61, 0
1, 142512, Control_c, 0, 64, 0
1, 142512, Note_on_c, 0, 44, 60
1, 142650, Control_c, 0, 64, 127
1, 142741, Note_on_c, 0, 44, 0
1, 142741, Note_on_c, 0, 72, 88
1, 142741, Note_on_c, 0, 51, 55
1, 142744, Note_on_c, 0, 56, 55
1, 142744, Note_on_c, 0, 60, 60
1, 142967, Note_on_c, 0, 60, 0
1, 142967, Note_on_c, 0, 68, 64
1, 142967, Note_on_c, 0, 63, 60
1, 142970, Note_on_c, 0, 56, 0
1, 142970, Note_on_c, 0, 51, 0
1, 142970, Note_on_c, 0, 51, 50
1, 142973, Note_on_c, 0, 60, 55
1, 142973, Note_on_c, 0, 56, 50
1, 143200, Note_on_c, 0, 72, 0
1, 143200, Note_on_c, 0, 63, 0
1, 143200, Note_on_c, 0, 68, 0
1, 143203, Note_on_c, 0, 56, 0
1, 143203, Note_on_c, 0, 60, 0
1, 143203, Note_on_c, 0, 73, 94
1, 143206, Note_on_c, 0, 51, 0
1, 143206, Note_on_c, 0, 39, 79
1, 143206, Control_c, 0, 64, 0
1, 143238, Control_c, 0, 64, 127
1, 143431, Note_on_c, 0, 39, 0
1, 143431, Note_on_c, 0, 63, 59
1, 143431, Note_on_c, 0, 68, 63
1, 143434, Note_on_c, 0, 54, 52
1, 143434, Note_on_c, 0, 56, 52
1, 143434, Note_on_c, 0, 60, 58
1, 143661, Note_on_c, 0, 68, 0
1, 143661, Note_on_c, 0, 73, 0
1, 143661, Note_on_c, 0, 63, 0
1, 143664, Note_on_c, 0, 60, 0
1, 143664, Note_on_c, 0, 56, 0
1, 143664, Note_on_c, 0, 75, 98
1, 143667, Note_on_c, 0, 54, 0
1, 143667, Note_on_c, 0, 54, 60
1, 143667, Note_on_c, 0, 56, 60
1, 143670, Note_on_c, 0, 60, 64
1, 143896, Note_on_c, 0, 60, 0
1, 143896, Note_on_c, 0, 75, 0
1, 143896, Note_on_c, 0, 77, 100
1, 143899, Note_on_c, 0, 56, 0
1, 143899, Note_on_c, 0, 54, 0
1, 143899, Control_c, 0, 64, 0
1, 143902, Note_on_c, 0, 44, 79
1, 143946, Control_c, 0, 64, 127
1, 144066, Note_on_c, 0, 44, 0
1, 144066, Note_on_c, 0, 77, 0
1, 144066, Note_on_c, 0, 53, 52
1, 144083, Note_on_c, 0, 56, 59
1, 144099, Note_on_c, 0, 59, 67
1, 144115, Note_on_c, 0, 68, 75
1, 144132, Note_on_c, 0, 74, 80
1, 144148, Note_on_c, 0, 79, 101
1, 144321, Note_on_c, 0, 79, 0
1, 144321, Note_on_c, 0, 68, 0
1, 144321, Note_on_c, 0, 74, 0
1, 144324, Note_on_c, 0, 53, 0
1, 144324, Note_on_c, 0, 59, 0
1, 144324, Note_on_c, 0, 56, 0
1, 144327, Note_on_c, 0, 53, 54
1, 144338, Note_on_c, 0, 56, 62
1, 144354, Note_on_c, 0, 59, 68
1, 144371, Note_on_c, 0, 68, 75
1, 144387, Note_on_c, 0, 74, 80
1, 144404, Note_on_c, 0, 80, 104
1, 144654, Note_on_c, 0, 80, 0
1, 144654, Note_on_c, 0, 68, 0
1, 144654, Note_on_c, 0, 74, 0
1, 144657, Note_on_c, 0, 56, 0
1, 144657, Note_on_c, 0, 59, 0
1, 144657, Note_on_c, 0, 75, 109
1, 144660, Note_on_c, 0, 53, 0
1, 144660, Control_c, 0, 64, 0
1, 144660, Note_on_c, 0, 44, 85
1, 144814, Control_c, 0, 64, 127
1, 144895, Note_on_c, 0, 63, 63
1, 144895, Note_on_c, 0, 68, 63
1, 144895, Note_on_c, 0, 72, 70
1, 144898, Note_on_c, 0, 44, 0
1, 144898, Note_on_c, 0, 51, 47
1, 144898, Note_on_c, 0, 56, 47
1, 144901, Note_on_c, 0, 60, 51
1, 145136, Note_on_c, 0, 68, 0
1, 145136, Note_on_c, 0, 72, 0
1, 145136, Note_on_c, 0, 63, 0
1, 145139, Note_on_c, 0, 63, 63
1, 145139, Note_on_c, 0, 68, 63
1, 145139, Note_on_c, 0, 72, 69
1, 145142, Note_on_c, 0, 51, 0
1, 145142, Note_on_c, 0, 60, 0
1, 145142, Note_on_c, 0, 56, 0
1, 145145, Note_on_c, 0, 51, 47
1, 145145, Note_on_c, 0, 56, 47
1, 145145, Note_on_c, 0, 60, 51
1, 145369, Note_on_c, 0, 63, 0
1, 145369, Note_on_c, 0, 72, 0
1, 145369, Note_on_c, 0, 75, 0
1, 145372, Note_on_c, 0, 68, 0
1, 145372, Note_on_c, 0, 56, 0
1, 145372, Note_on_c, 0, 60, 0
1, 145375, Note_on_c, 0, 51, 0
1, 145375, Control_c, 0, 64, 0
1, 145375, Note_on_c, 0, 45, 59
1, 145445, Control_c, 0, 64, 127
1, 145598, Note_on_c, 0, 45, 0
1, 145598, Note_on_c, 0, 78, 84
1, 145598, Note_on_c, 0, 53, 52
1, 145601, Note_on_c, 0, 60, 52
1, 145601, Note_on_c, 0, 63, 58
1, 145704, Note_on_c, 0, 78, 0
1, 145704, Note_on_c, 0, 77, 80
1, 145810, Note_on_c, 0, 77, 0
1, 145810, Note_on_c, 0, 63, 0
1, 145810, Note_on_c, 0, 75, 84
1, 145813, Note_on_c, 0, 60, 0
1, 145813, Note_on_c, 0, 53, 0
1, 145813, Note_on_c, 0, 53, 47
1, 145816, Note_on_c, 0, 63, 51
1, 145816, Note_on_c, 0, 60, 47
1, 145923, Note_on_c, 0, 75, 0
1, 145923, Note_on_c, 0, 78, 80
1, 146039, Note_on_c, 0, 78, 0
1, 146039, Note_on_c, 0, 60, 0
1, 146039, Note_on_c, 0, 77, 87
1, 146042, Note_on_c, 0, 63, 0
1, 146042, Note_on_c, 0, 53, 0
1, 146042, Note_on_c, 0, 46, 59
1, 146045, Control_c, 0, 64, 0
1, 146154, Control_c, 0, 64, 127
1, 146268, Note_on_c, 0, 46, 0
1, 146268, Note_on_c, 0, 53, 52
1, 146268, Note_on_c, 0, 58, 52
1, 146271, Note_on_c, 0, 61, 58
1, 146382, Note_on_c, 0, 77, 0
1, 146382, Note_on_c, 0, 73, 84
1, 146495, Note_on_c, 0, 73, 0
1, 146495, Note_on_c, 0, 61, 0
1, 146495, Note_on_c, 0, 70, 79
1, 146498, Note_on_c, 0, 58, 0
1, 146498, Note_on_c, 0, 53, 0
1, 146498, Control_c, 0, 64, 0
1, 146501, Note_on_c, 0, 53, 47
1, 146501, Note_on_c, 0, 61, 51
1, 146501, Note_on_c, 0, 58, 47
1, 146611, Note_on_c, 0, 70, 0
1, 146611, Note_on_c, 0, 65, 74
1, 146728, Note_on_c, 0, 65, 0
1, 146728, Note_on_c, 0, 58, 0
1, 146728, Note_on_c, 0, 61, 0
1, 146731, Note_on_c, 0, 53, 0
1, 146731, Note_on_c, 0, 43, 59
1, 146804, Control_c, 0, 64, 127
1, 146957, Note_on_c, 0, 43, 0
1, 146957, Note_on_c, 0, 76, 84
1, 146957, Note_on_c, 0, 51, 52
1, 146960, Note_on_c, 0, 58, 52
1, 146960, Note_on_c, 0, 61, 58
1, 147067, Note_on_c, 0, 76, 0
1, 147067, Note_on_c, 0, 75, 80
1, 147177, Note_on_c, 0, 75, 0
1, 147177, Note_on_c, 0, 61, 0
1, 147177, Note_on_c, 0, 73, 84
1, 147180, Note_on_c, 0, 58, 0
1, 147180, Note_on_c, 0, 51, 0
1, 147180, Note_on_c, 0, 51, 47
1, 147183, Note_on_c, 0, 61, 51
1, 147183, Note_on_c, 0, 58, 47
1, 147294, Note_on_c, 0, 73, 0
1, 147294, Note_on_c, 0, 76, 80
1, 147410, Note_on_c, 0, 76, 0
1, 147410, Note_on_c, 0, 58, 0
1, 147410, Note_on_c, 0, 75, 87
1, 147413, Note_on_c, 0, 61, 0
1, 147413, Note_on_c, 0, 51, 0
1, 147413, Note_on_c, 0, 44, 59
1, 147413, Control_c, 0, 64, 0
1, 147481, Control_c, 0, 64, 127
1, 147639, Note_on_c, 0, 44, 0
1, 147639, Note_on_c, 0, 51, 52
1, 147639, Note_on_c, 0, 56, 52
1, 147642, Note_on_c, 0, 60, 58
1, 147752, Note_on_c, 0, 75, 0
1, 147752, Note_on_c, 0, 72, 84
1, 147866, Note_on_c, 0, 72, 0
1, 147866, Note_on_c, 0, 60, 0
1, 147866, Note_on_c, 0, 68, 82
1, 147869, Note_on_c, 0, 56, 0
1, 147869, Note_on_c, 0, 51, 0
1, 147869, Control_c, 0, 64, 0
1, 147872, Note_on_c, 0, 51, 47
1, 147872, Note_on_c, 0, 60, 51
1, 147872, Note_on_c, 0, 56, 47
1, 147982, Note_on_c, 0, 68, 0
1, 147982, Note_on_c, 0, 63, 76
1, 148098, Note_on_c, 0, 63, 0
1, 148098, Note_on_c, 0, 56, 0
1, 148098, Note_on_c, 0, 60, 0
1, 148101, Note_on_c, 0, 51, 0
1, 148101, Note_on_c, 0, 42, 59
1, 148155, Control_c, 0, 64, 127
1, 148330, Note_on_c, 0, 60, 56
1, 148330, Note_on_c, 0, 63, 61
1, 148330, Note_on_c, 0, 68, 84
1, 148333, Note_on_c, 0, 42, 0
1, 148333, Note_on_c, 0, 54, 52
1, 148333, Note_on_c, 0, 56, 58
1, 148557, Note_on_c, 0, 60, 0
1, 148557, Note_on_c, 0, 63, 0
1, 148557, Note_on_c, 0, 60, 56
1, 148560, Note_on_c, 0, 56, 0
1, 148560, Note_on_c, 0, 54, 0
1, 148560, Note_on_c, 0, 63, 61
1, 148563, Note_on_c, 0, 56, 51
1, 148563, Note_on_c, 0, 54, 47
1, 148790, Note_on_c, 0, 63, 0
1, 148790, Note_on_c, 0, 60, 0
1, 148790, Note_on_c, 0, 68, 0
1, 148793, Note_on_c, 0, 56, 0
1, 148793, Note_on_c, 0, 54, 0
1, 148793, Note_on_c, 0, 67, 88
1, 148796, Control_c, 0, 64, 0
1, 148796, Note_on_c, 0, 41, 67
1, 148903, Control_c, 0, 64, 127
1, 149017, Note_on_c, 0, 41, 0
1, 149017, Note_on_c, 0, 60, 52
1, 149017, Note_on_c, 0, 65, 58
1, 149020, Note_on_c, 0, 53, 45
1, 149020, Note_on_c, 0, 56, 48
1, 149244, Note_on_c, 0, 65, 0
1, 149244, Note_on_c, 0, 67, 0
1, 149244, Note_on_c, 0, 60, 0
1, 149247, Note_on_c, 0, 60, 52
1, 149247, Note_on_c, 0, 65, 58
1, 149247, Note_on_c, 0, 68, 84
1, 149250, Note_on_c, 0, 53, 0
1, 149250, Note_on_c, 0, 56, 0
1, 149250, Note_on_c, 0, 53, 50
1, 149253, Note_on_c, 0, 56, 54
1, 149466, Note_on_c, 0, 65, 0
1, 149466, Note_on_c, 0, 68, 0
1, 149466, Note_on_c, 0, 60, 0
1, 149469, Note_on_c, 0, 53, 0
1, 149469, Note_on_c, 0, 56, 0
1, 149469, Note_on_c, 0, 70, 94
1, 149472, Note_on_c, 0, 40, 59
1, 149472, Control_c, 0, 64, 0
1, 149575, Control_c, 0, 64, 127
1, 149695, Note_on_c, 0, 40, 0
1, 149695, Note_on_c, 0, 62, 52
1, 149695, Note_on_c, 0, 68, 58
1, 149698, Note_on_c, 0, 52, 52
1, 149698, Note_on_c, 0, 56, 58
1, 149808, Note_on_c, 0, 70, 0
1, 149808, Note_on_c, 0, 71, 86
1, 149921, Note_on_c, 0, 71, 0
1, 149921, Note_on_c, 0, 62, 0
1, 149921, Note_on_c, 0, 68, 0
1, 149924, Note_on_c, 0, 62, 52
1, 149924, Note_on_c, 0, 68, 58
1, 149924, Note_on_c, 0, 70, 84
1, 149927, Note_on_c, 0, 52, 0
1, 149927, Note_on_c, 0, 56, 0
1, 149927, Note_on_c, 0, 52, 47
1, 149930, Note_on_c, 0, 56, 51
1, 150038, Note_on_c, 0, 70, 0
1, 150038, Note_on_c, 0, 71, 76
1, 150154, Note_on_c, 0, 71, 0
1, 150154, Note_on_c, 0, 68, 0
1, 150154, Note_on_c, 0, 62, 0
1, 150157, Note_on_c, 0, 52, 0
1, 150157, Note_on_c, 0, 56, 0
1, 150157, Note_on_c, 0, 67, 84
1, 150160, Note_on_c, 0, 39, 59
1, 150160, Control_c, 0, 64, 0
1, 150279, Control_c, 0, 64, 127
1, 150391, Note_on_c, 0, 39, 0
1, 150391, Note_on_c, 0, 61, 58
1, 150391, Note_on_c, 0, 63, 62
1, 150394, Note_on_c, 0, 51, 50
1, 150394, Note_on_c, 0, 58, 55
1, 150625, Note_on_c, 0, 63, 0
1, 150625, Note_on_c, 0, 61, 0
1, 150625, Note_on_c, 0, 61, 56
1, 150628, Note_on_c, 0, 58, 0
1, 150628, Note_on_c, 0, 51, 0
1, 150628, Note_on_c, 0, 63, 61
1, 150631, Note_on_c, 0, 58, 48
1, 150631, Note_on_c, 0, 51, 45
1, 150868, Note_on_c, 0, 63, 0
1, 150868, Note_on_c, 0, 61, 0
1, 150868, Note_on_c, 0, 67, 0
1, 150871, Note_on_c, 0, 58, 0
1, 150871, Note_on_c, 0, 51, 0
1, 150871, Control_c, 0, 64, 0
1, 150874, Note_on_c, 0, 44, 59
1, 151023, Control_c, 0, 64, 127
1, 151100, Note_on_c, 0, 44, 0
1, 151100, Note_on_c, 0, 68, 84
1, 151100, Note_on_c, 0, 51, 52
1, 151103, Note_on_c, 0, 56, 52
1, 151103, Note_on_c, 0, 60, 58
1, 151324, Note_on_c, 0, 60, 0
1, 151324, Note_on_c, 0, 56, 0
1, 151324, Note_on_c, 0, 63, 61
1, 151327, Note_on_c, 0, 51, 0
1, 151327, Note_on_c, 0, 51, 47
1, 151327, Note_on_c, 0, 60, 51
1, 151330, Note_on_c, 0, 56, 47
1, 151551, Note_on_c, 0, 63, 0
1, 151551, Note_on_c, 0, 68, 0
1, 151551, Note_on_c, 0, 70, 84
1, 151554, Note_on_c, 0, 60, 0
1, 151554, Note_on_c, 0, 56, 0
1, 151554, Note_on_c, 0, 51, 0
1, 151557, Note_on_c, 0, 39, 67
1, 151557, Control_c, 0, 64, 0
1, 151652, Control_c, 0, 64, 127
1, 151778, Note_on_c, 0, 39, 0
1, 151778, Note_on_c, 0, 63, 48
1, 151778, Note_on_c, 0, 68, 52
1, 151781, Note_on_c, 0, 51, 42
1, 151781, Note_on_c, 0, 56, 42
1, 151781, Note_on_c, 0, 60, 45
1, 152005, Note_on_c, 0, 68, 0
1, 152005, Note_on_c, 0, 70, 0
1, 152005, Note_on_c, 0, 63, 0
1, 152008, Note_on_c, 0, 60, 0
1, 152008, Note_on_c, 0, 56, 0
1, 152008, Note_on_c, 0, 72, 84
1, 152011, Note_on_c, 0, 51, 0
1, 152011, Note_on_c, 0, 51, 50
1, 152011, Note_on_c, 0, 56, 50
1, 152014, Note_on_c, 0, 60, 54
1, 152227, Note_on_c, 0, 60, 0
1, 152227, Note_on_c, 0, 56, 0
1, 152227, Note_on_c, 0, 72, 0
1, 152230, Note_on_c, 0, 51, 0
1, 152230, Control_c, 0, 64, 0
1, 152230, Note_on_c, 0, 46, 61
1, 152365, Control_c, 0, 64, 127
1, 152453, Note_on_c, 0, 46, 0
1, 152453, Note_on_c, 0, 73, 88
1, 152453, Note_on_c, 0, 51, 55
1, 152456, Note_on_c, 0, 61, 60
1, 152456, Note_on_c, 0, 55, 55
1, 152677, Note_on_c, 0, 55, 0
1, 152677, Note_on_c, 0, 63, 55
1, 152677, Note_on_c, 0, 67, 60
1, 152680, Note_on_c, 0, 61, 0
1, 152680, Note_on_c, 0, 51, 0
1, 152680, Note_on_c, 0, 51, 45
1, 152683, Note_on_c, 0, 61, 48
1, 152683, Note_on_c, 0, 55, 45
1, 152904, Note_on_c, 0, 73, 0
1, 152904, Note_on_c, 0, 67, 0
1, 152904, Note_on_c, 0, 63, 0
1, 152907, Note_on_c, 0, 55, 0
1, 152907, Note_on_c, 0, 61, 0
1, 152907, Note_on_c, 0, 72, 87
1, 152910, Note_on_c, 0, 51, 0
1, 152910, Note_on_c, 0, 39, 61
1, 152910, Control_c, 0, 64, 0
1, 153031, Control_c, 0, 64, 127
1, 153132, Note_on_c, 0, 39, 0
1, 153132, Note_on_c, 0, 67, 56
1, 153132, Note_on_c, 0, 63, 51
1, 153135, Note_on_c, 0, 61, 46
1, 153135, Note_on_c, 0, 51, 43
1, 153135, Note_on_c, 0, 55, 43
1, 153359, Note_on_c, 0, 63, 0
1, 153359, Note_on_c, 0, 72, 0
1, 153359, Note_on_c, 0, 67, 0
1, 153362, Note_on_c, 0, 55, 0
1, 153362, Note_on_c, 0, 51, 0
1, 153362, Note_on_c, 0, 70, 75
1, 153365, Note_on_c, 0, 61, 0
1, 153365, Note_on_c, 0, 61, 58
1, 153365, Note_on_c, 0, 51, 52
1, 153368, Note_on_c, 0, 55, 52
1, 153586, Note_on_c, 0, 55, 0
1, 153586, Note_on_c, 0, 51, 0
1, 153586, Note_on_c, 0, 70, 0
1, 153589, Note_on_c, 0, 61, 0
1, 153589, Note_on_c, 0, 44, 60
1, 153589, Control_c, 0, 64, 0
1, 153715, Control_c, 0, 64, 127
1, 153818, Note_on_c, 0, 44, 0
1, 153818, Note_on_c, 0, 72, 88
1, 153818, Note_on_c, 0, 51, 55
1, 153821, Note_on_c, 0, 56, 55
1, 153821, Note_on_c, 0, 60, 60
1, 154045, Note_on_c, 0, 60, 0
1, 154045, Note_on_c, 0, 68, 64
1, 154045, Note_on_c, 0, 63, 60
1, 154048, Note_on_c, 0, 56, 0
1, 154048, Note_on_c, 0, 51, 0
1, 154048, Note_on_c, 0, 51, 50
1, 154051, Note_on_c, 0, 60, 55
1, 154051, Note_on_c, 0, 56, 50
1, 154278, Note_on_c, 0, 72, 0
1, 154278, Note_on_c, 0, 63, 0
1, 154278, Note_on_c, 0, 68, 0
1, 154281, Note_on_c, 0, 56, 0
1, 154281, Note_on_c, 0, 60, 0
1, 154281, Note_on_c, 0, 73, 94
1, 154284, Note_on_c, 0, 51, 0
1, 154284, Note_on_c, 0, 39, 84
1, 154284, Control_c, 0, 64, 0
1, 154358, Control_c, 0, 64, 127
1, 154505, Note_on_c, 0, 39, 0
1, 154505, Note_on_c, 0, 63, 59
1, 154505, Note_on_c, 0, 68, 63
1, 154508, Note_on_c, 0, 54, 52
1, 154508, Note_on_c, 0, 56, 52
1, 154508, Note_on_c, 0, 60, 58
1, 154732, Note_on_c, 0, 68, 0
1, 154732, Note_on_c, 0, 73, 0
1, 154732, Note_on_c, 0, 63, 0
1, 154735, Note_on_c, 0, 60, 0
1, 154735, Note_on_c, 0, 56, 0
1, 154735, Note_on_c, 0, 75, 98
1, 154738, Note_on_c, 0, 54, 0
1, 154738, Note_on_c, 0, 54, 60
1, 154738, Note_on_c, 0, 56, 60
1, 154741, Note_on_c, 0, 60, 64
1, 154954, Note_on_c, 0, 60, 0
1, 154954, Note_on_c, 0, 75, 0
1, 154954, Note_on_c, 0, 77, 100
1, 154957, Note_on_c, 0, 56, 0
1, 154957, Note_on_c, 0, 54, 0
1, 154957, Note_on_c, 0, 44, 85
1, 154957, Control_c, 0, 64, 0
1, 155006, Control_c, 0, 64, 127
1, 155120, Note_on_c, 0, 44, 0
1, 155120, Note_on_c, 0, 77, 0
1, 155120, Note_on_c, 0, 53, 50
1, 155137, Note_on_c, 0, 56, 58
1, 155153, Note_on_c, 0, 59, 67
1, 155170, Note_on_c, 0, 68, 71
1, 155186, Note_on_c, 0, 74, 80
1, 155202, Note_on_c, 0, 79, 101
1, 155369, Note_on_c, 0, 79, 0
1, 155369, Note_on_c, 0, 68, 0
1, 155369, Note_on_c, 0, 74, 0
1, 155372, Note_on_c, 0, 53, 0
1, 155372, Note_on_c, 0, 59, 0
1, 155372, Note_on_c, 0, 56, 0
1, 155375, Note_on_c, 0, 53, 54
1, 155386, Note_on_c, 0, 56, 61
1, 155402, Note_on_c, 0, 59, 68
1, 155419, Note_on_c, 0, 68, 71
1, 155435, Note_on_c, 0, 74, 79
1, 155452, Note_on_c, 0, 80, 104
1, 155701, Note_on_c, 0, 80, 0
1, 155701, Note_on_c, 0, 68, 0
1, 155701, Note_on_c, 0, 74, 0
1, 155704, Note_on_c, 0, 56, 0
1, 155704, Note_on_c, 0, 59, 0
1, 155704, Note_on_c, 0, 75, 109
1, 155707, Note_on_c, 0, 53, 0
1, 155707, Note_on_c, 0, 44, 94
1, 155707, Control_c, 0, 64, 0
1, 155836, Control_c, 0, 64, 127
1, 155944, Note_on_c, 0, 63, 60
1, 155944, Note_on_c, 0, 68, 60
1, 155944, Note_on_c, 0, 72, 67
1, 155947, Note_on_c, 0, 44, 0
1, 155947, Note_on_c, 0, 51, 45
1, 155947, Note_on_c, 0, 56, 45
1, 155950, Note_on_c, 0, 60, 48
1, 156187, Note_on_c, 0, 68, 0
1, 156187, Note_on_c, 0, 72, 0
1, 156187, Note_on_c, 0, 63, 0
1, 156190, Note_on_c, 0, 63, 60
1, 156190, Note_on_c, 0, 68, 60
1, 156190, Note_on_c, 0, 72, 66
1, 156193, Note_on_c, 0, 51, 0
1, 156193, Note_on_c, 0, 60, 0
1, 156193, Note_on_c, 0, 56, 0
1, 156196, Note_on_c, 0, 51, 45
1, 156196, Note_on_c, 0, 56, 45
1, 156196, Note_on_c, 0, 60, 48
1, 156421, Note_on_c, 0, 63, 0
1, 156421, Note_on_c, 0, 72, 0
1, 156421, Note_on_c, 0, 75, 0
1, 156424, Note_on_c, 0, 68, 0
1, 156424, Note_on_c, 0, 56, 0
1, 156424, Note_on_c, 0, 60, 0
1, 156427, Note_on_c, 0, 51, 0
1, 156427, Control_c, 0, 64, 0
1, 156427, Note_on_c, 0, 45, 59
1, 156497, Control_c, 0, 64, 127
1, 156649, Note_on_c, 0, 45, 0
1, 156649, Note_on_c, 0, 78, 84
1, 156649, Note_on_c, 0, 53, 52
1, 156652, Note_on_c, 0, 60, 52
1, 156652, Note_on_c, 0, 63, 58
1, 156757, Note_on_c, 0, 78, 0
1, 156757, Note_on_c, 0, 77, 80
1, 156865, Note_on_c, 0, 77, 0
1, 156865, Note_on_c, 0, 63, 0
1, 156865, Note_on_c, 0, 75, 84
1, 156868, Note_on_c, 0, 60, 0
1, 156868, Note_on_c, 0, 53, 0
1, 156868, Note_on_c, 0, 53, 47
1, 156871, Note_on_c, 0, 63, 51
1, 156871, Note_on_c, 0, 60, 47
1, 156982, Note_on_c, 0, 75, 0
1, 156982, Note_on_c, 0, 78, 80
1, 157098, Note_on_c, 0, 78, 0
1, 157098, Note_on_c, 0, 60, 0
1, 157098, Note_on_c, 0, 77, 87
1, 157101, Note_on_c, 0, 63, 0
1, 157101, Note_on_c, 0, 53, 0
1, 157101, Note_on_c, 0, 46, 59
1, 157104, Control_c, 0, 64, 0
1, 157226, Control_c, 0, 64, 127
1, 157327, Note_on_c, 0, 46, 0
1, 157327, Note_on_c, 0, 53, 52
1, 157327, Note_on_c, 0, 58, 52
1, 157330, Note_on_c, 0, 61, 58
1, 157440, Note_on_c, 0, 77, 0
1, 157440, Note_on_c, 0, 73, 84
1, 157554, Note_on_c, 0, 73, 0
1, 157554, Note_on_c, 0, 61, 0
1, 157554, Note_on_c, 0, 70, 79
1, 157557, Note_on_c, 0, 58, 0
1, 157557, Note_on_c, 0, 53, 0
1, 157557, Control_c, 0, 64, 0
1, 157560, Note_on_c, 0, 53, 47
1, 157560, Note_on_c, 0, 61, 51
1, 157560, Note_on_c, 0, 58, 47
1, 157670, Note_on_c, 0, 70, 0
1, 157670, Note_on_c, 0, 65, 74
1, 157786, Note_on_c, 0, 65, 0
1, 157786, Note_on_c, 0, 58, 0
1, 157786, Note_on_c, 0, 61, 0
1, 157789, Note_on_c, 0, 53, 0
1, 157789, Note_on_c, 0, 47, 64
1, 157863, Control_c, 0, 64, 127
1, 158015, Note_on_c, 0, 47, 0
1, 158015, Note_on_c, 0, 80, 92
1, 158015, Note_on_c, 0, 65, 59
1, 158018, Note_on_c, 0, 55, 54
1, 158018, Note_on_c, 0, 62, 54
1, 158127, Note_on_c, 0, 80, 0
1, 158127, Note_on_c, 0, 79, 86
1, 158240, Note_on_c, 0, 79, 0
1, 158240, Note_on_c, 0, 62, 0
1, 158240, Note_on_c, 0, 77, 90
1, 158243, Note_on_c, 0, 55, 0
1, 158243, Note_on_c, 0, 65, 0
1, 158243, Note_on_c, 0, 55, 48
1, 158246, Note_on_c, 0, 65, 52
1, 158246, Note_on_c, 0, 62, 48
1, 158356, Note_on_c, 0, 77, 0
1, 158356, Note_on_c, 0, 80, 85
1, 158472, Note_on_c, 0, 80, 0
1, 158472, Note_on_c, 0, 62, 0
1, 158472, Note_on_c, 0, 79, 94
1, 158475, Note_on_c, 0, 65, 0
1, 158475, Note_on_c, 0, 55, 0
1, 158475, Note_on_c, 0, 48, 60
1, 158475, Control_c, 0, 64, 0
1, 158543, Control_c, 0, 64, 127
1, 158701, Note_on_c, 0, 48, 0
1, 158701, Note_on_c, 0, 55, 54
1, 158701, Note_on_c, 0, 60, 54
1, 158704, Note_on_c, 0, 64, 59
1, 158815, Note_on_c, 0, 79, 0
1, 158815, Note_on_c, 0, 76, 86
1, 158928, Note_on_c, 0, 76, 0
1, 158928, Note_on_c, 0, 64, 0
1, 158928, Note_on_c, 0, 72, 84
1, 158931, Note_on_c, 0, 60, 0
1, 158931, Note_on_c, 0, 55, 0
1, 158931, Control_c, 0, 64, 0
1, 158934, Note_on_c, 0, 55, 48
1, 158934, Note_on_c, 0, 64, 52
1, 158934, Note_on_c, 0, 60, 48
1, 159044, Note_on_c, 0, 72, 0
1, 159044, Note_on_c, 0, 67, 79
1, 159161, Note_on_c, 0, 67, 0
1, 159161, Note_on_c, 0, 60, 0
1, 159161, Note_on_c, 0, 64, 0
1, 159164, Note_on_c, 0, 55, 0
1, 159164, Note_on_c, 0, 49, 68
1, 159237, Control_c, 0, 64, 127
1, 159389, Note_on_c, 0, 49, 0
1, 159389, Note_on_c, 0, 82, 96
1, 159389, Note_on_c, 0, 65, 61
1, 159392, Note_on_c, 0, 58, 56
1, 159392, Note_on_c, 0, 61, 56
1, 159502, Note_on_c, 0, 82, 0
1, 159502, Note_on_c, 0, 80, 90
1, 159614, Note_on_c, 0, 80, 0
1, 159614, Note_on_c, 0, 61, 0
1, 159614, Note_on_c, 0, 79, 95
1, 159617, Note_on_c, 0, 58, 0
1, 159617, Note_on_c, 0, 65, 0
1, 159617, Note_on_c, 0, 58, 50
1, 159620, Note_on_c, 0, 65, 55
1, 159620, Note_on_c, 0, 61, 50
1, 159730, Note_on_c, 0, 79, 0
1, 159730, Note_on_c, 0, 82, 88
1, 159847, Note_on_c, 0, 82, 0
1, 159847, Note_on_c, 0, 61, 0
1, 159847, Note_on_c, 0, 80, 99
1, 159850, Note_on_c, 0, 65, 0
1, 159850, Note_on_c, 0, 58, 0
1, 159850, Note_on_c, 0, 50, 62
1, 159853, Control_c, 0, 64, 0
1, 159918, Control_c, 0, 64, 127
1, 160075, Note_on_c, 0, 50, 0
1, 160075, Note_on_c, 0, 56, 56
1, 160075, Note_on_c, 0, 59, 56
1, 160078, Note_on_c, 0, 65, 61
1, 160189, Note_on_c, 0, 80, 0
1, 160189, Note_on_c, 0, 77, 90
1, 160302, Note_on_c, 0, 77, 0
1, 160302, Note_on_c, 0, 65, 0
1, 160302, Note_on_c, 0, 71, 87
1, 160305, Note_on_c, 0, 59, 0
1, 160305, Note_on_c, 0, 56, 0
1, 160305, Control_c, 0, 64, 0
1, 160308, Note_on_c, 0, 56, 50
1, 160308, Note_on_c, 0, 65, 55
1, 160308, Note_on_c, 0, 59, 50
1, 160418, Note_on_c, 0, 71, 0
1, 160418, Note_on_c, 0, 68, 83
1, 160535, Note_on_c, 0, 68, 0
1, 160535, Note_on_c, 0, 59, 0
1, 160535, Note_on_c, 0, 77, 90
1, 160538, Note_on_c, 0, 65, 0
1, 160538, Note_on_c, 0, 56, 0
1, 160538, Note_on_c, 0, 51, 58
1, 160606, Control_c, 0, 64, 127
1, 160764, Note_on_c, 0, 51, 0
1, 160764, Note_on_c, 0, 55, 51
1, 160764, Note_on_c, 0, 61, 51
1, 160767, Note_on_c, 0, 63, 56
1, 160877, Note_on_c, 0, 77, 0
1, 160877, Note_on_c, 0, 73, 83
1, 160990, Note_on_c, 0, 73, 0
1, 160990, Note_on_c, 0, 63, 0
1, 160990, Note_on_c, 0, 70, 80
1, 160993, Note_on_c, 0, 61, 0
1, 160993, Note_on_c, 0, 55, 0
1, 160993, Control_c, 0, 64, 0
1, 160996, Note_on_c, 0, 55, 46
1, 160996, Note_on_c, 0, 63, 50
1, 160996, Note_on_c, 0, 61, 46
1, 161107, Note_on_c, 0, 70, 0
1, 161107, Note_on_c, 0, 67, 75
1, 161224, Note_on_c, 0, 67, 0
1, 161224, Note_on_c, 0, 61, 0
1, 161224, Note_on_c, 0, 70, 83
1, 161227, Note_on_c, 0, 63, 0
1, 161227, Note_on_c, 0, 55, 0
1, 161227, Note_on_c, 0, 44, 52
1, 161296, Control_c, 0, 64, 127
1, 161455, Note_on_c, 0, 44, 0
1, 161455, Note_on_c, 0, 51, 47
1, 161455, Note_on_c, 0, 56, 47
1, 161458, Note_on_c, 0, 60, 51
1, 161569, Note_on_c, 0, 70, 0
1, 161569, Note_on_c, 0, 68, 75
1, 161683, Note_on_c, 0, 68, 0
1, 161683, Note_on_c, 0, 60, 0
1, 161683, Note_on_c, 0, 63, 72
1, 161686, Note_on_c, 0, 56, 0
1, 161686, Note_on_c, 0, 51, 0
1, 161686, Control_c, 0, 64, 0
1, 161689, Note_on_c, 0, 51, 43
1, 161689, Note_on_c, 0, 60, 46
1, 161689, Note_on_c, 0, 56, 43
1, 161802, Note_on_c, 0, 63, 0
1, 161802, Note_on_c, 0, 60, 69
1, 161921, Note_on_c, 0, 60, 0
1, 161921, Note_on_c, 0, 56, 0
1, 161921, Note_on_c, 0, 60, 0
1, 161924, Note_on_c, 0, 51, 0
1, 161924, Note_on_c, 0, 44, 59
1, 162016, Control_c, 0, 64, 127
1, 162143, Note_on_c, 0, 59, 61
1, 162143, Note_on_c, 0, 62, 61
1, 162143, Note_on_c, 0, 65, 84
1, 162146, Note_on_c, 0, 50, 52
1, 162146, Note_on_c, 0, 53, 52
1, 162146, Note_on_c, 0, 56, 58
1, 162360, Note_on_c, 0, 62, 0
1, 162360, Note_on_c, 0, 59, 0
1, 162360, Note_on_c, 0, 59, 61
1, 162363, Note_on_c, 0, 53, 0
1, 162363, Note_on_c, 0, 56, 0
1, 162363, Note_on_c, 0, 62, 61
1, 162366, Note_on_c, 0, 50, 0
1, 162366, Note_on_c, 0, 50, 47
1, 162366, Note_on_c, 0, 56, 51
1, 162369, Note_on_c, 0, 53, 47
1, 162580, Note_on_c, 0, 65, 0
1, 162580, Note_on_c, 0, 62, 0
1, 162580, Note_on_c, 0, 59, 0
1, 162583, Note_on_c, 0, 53, 0
1, 162583, Note_on_c, 0, 44, 0
1, 162583, Note_on_c, 0, 67, 86
1, 162586, Note_on_c, 0, 56, 0
1, 162586, Note_on_c, 0, 50, 0
1, 162586, Note_on_c, 0, 44, 67
1, 162589, Control_c, 0, 64, 0
1, 162625, Control_c, 0, 64, 127
1, 162797, Note_on_c, 0, 59, 61
1, 162797, Note_on_c, 0, 62, 61
1, 162797, Note_on_c, 0, 50, 42
1, 162800, Note_on_c, 0, 53, 42
1, 162800, Note_on_c, 0, 56, 45
1, 163015, Note_on_c, 0, 62, 0
1, 163015, Note_on_c, 0, 59, 0
1, 163015, Note_on_c, 0, 67, 0
1, 163018, Note_on_c, 0, 59, 61
1, 163018, Note_on_c, 0, 62, 61
1, 163018, Note_on_c, 0, 68, 84
1, 163021, Note_on_c, 0, 50, 0
1, 163021, Note_on_c, 0, 56, 0
1, 163021, Note_on_c, 0, 53, 0
1, 163024, Note_on_c, 0, 50, 50
1, 163024, Note_on_c, 0, 53, 50
1, 163024, Note_on_c, 0, 56, 54
1, 163228, Note_on_c, 0, 59, 0
1, 163228, Note_on_c, 0, 68, 0
1, 163228, Note_on_c, 0, 62, 0
1, 163231, Note_on_c, 0, 60, 64
1, 163231, Note_on_c, 0, 63, 64
1, 163231, Note_on_c, 0, 67, 71
1, 163234, Note_on_c, 0, 50, 0
1, 163234, Note_on_c, 0, 56, 0
1, 163234, Note_on_c, 0, 44, 0
1, 163237, Note_on_c, 0, 53, 0
1, 163237, Note_on_c, 0, 39, 77
1, 163237, Note_on_c, 0, 51, 77
1, 163240, Control_c, 0, 64, 0
1, 163299, Control_c, 0, 64, 127
1, 163440, Note_on_c, 0, 67, 0
1, 163440, Note_on_c, 0, 63, 0
1, 163440, Note_on_c, 0, 60, 0
1, 163443, Note_on_c, 0, 39, 0
1, 163443, Note_on_c, 0, 51, 0
1, 163443, Note_on_c, 0, 41, 83
1, 163446, Note_on_c, 0, 53, 83
1, 163449, Control_c, 0, 64, 0
1, 163544, Control_c, 0, 64, 127
1, 163648, Note_on_c, 0, 60, 70
1, 163648, Note_on_c, 0, 63, 70
1, 163648, Note_on_c, 0, 67, 76
1, 163860, Note_on_c, 0, 67, 0
1, 163860, Note_on_c, 0, 60, 0
1, 163860, Note_on_c, 0, 63, 0
1, 163863, Note_on_c, 0, 53, 0
1, 163863, Note_on_c, 0, 41, 0
1, 163863, Note_on_c, 0, 43, 87
1, 163866, Note_on_c, 0, 55, 87
1, 163866, Control_c, 0, 64, 0
1, 163925, Control_c, 0, 64, 127
1, 164067, Note_on_c, 0, 63, 75
1, 164067, Note_on_c, 0, 60, 69
1, 164277, Note_on_c, 0, 60, 0
1, 164277, Note_on_c, 0, 63, 0
1, 164277, Note_on_c, 0, 55, 0
1, 164280, Note_on_c, 0, 43, 0
1, 164280, Note_on_c, 0, 44, 82
1, 164280, Note_on_c, 0, 56, 82
1, 164489, Note_on_c, 0, 56, 0
1, 164489, Note_on_c, 0, 44, 0
1, 164489, Control_c, 0, 64, 0
1, 164492, Note_on_c, 0, 50, 88
1, 164568, Control_c, 0, 64, 127
1, 164697, Note_on_c, 0, 59, 64
1, 164697, Note_on_c, 0, 64, 64
1, 164697, Note_on_c, 0, 68, 90
1, 164700, Note_on_c, 0, 52, 59
1, 164700, Note_on_c, 0, 56, 64
1, 164900, Note_on_c, 0, 64, 0
1, 164900, Note_on_c, 0, 59, 0
1, 164900, Note_on_c, 0, 59, 64
1, 164903, Note_on_c, 0, 52, 0
1, 164903, Note_on_c, 0, 56, 0
1, 164903, Note_on_c, 0, 64, 64
1, 164906, Note_on_c, 0, 56, 58
1, 164906, Note_on_c, 0, 52, 52
1, 165108, Note_on_c, 0, 64, 0
1, 165108, Note_on_c, 0, 59, 0
1, 165108, Note_on_c, 0, 68, 0
1, 165111, Note_on_c, 0, 52, 0
1, 165111, Note_on_c, 0, 56, 0
1, 165111, Note_on_c, 0, 70, 93
1, 165114, Note_on_c, 0, 50, 0
1, 165114, Note_on_c, 0, 50, 71
1, 165114, Control_c, 0, 64, 0
1, 165161, Control_c, 0, 64, 127
1, 165312, Note_on_c, 0, 59, 64
1, 165312, Note_on_c, 0, 64, 64
1, 165312, Note_on_c, 0, 52, 44
1, 165315, Note_on_c, 0, 56, 47
1, 165519, Note_on_c, 0, 64, 0
1, 165519, Note_on_c, 0, 59, 0
1, 165519, Note_on_c, 0, 70, 0
1, 165522, Note_on_c, 0, 59, 64
1, 165522, Note_on_c, 0, 64, 64
1, 165522, Note_on_c, 0, 71, 90
1, 165525, Note_on_c, 0, 56, 0
1, 165525, Note_on_c, 0, 52, 0
1, 165525, Note_on_c, 0, 52, 52
1, 165528, Note_on_c, 0, 56, 58
1, 165724, Note_on_c, 0, 59, 0
1, 165724, Note_on_c, 0, 64, 0
1, 165724, Note_on_c, 0, 71, 0
1, 165727, Note_on_c, 0, 60, 69
1, 165727, Note_on_c, 0, 63, 69
1, 165727, Note_on_c, 0, 72, 76
1, 165730, Note_on_c, 0, 50, 0
1, 165730, Note_on_c, 0, 56, 0
1, 165730, Note_on_c, 0, 52, 0
1, 165733, Note_on_c, 0, 39, 83
1, 165733, Note_on_c, 0, 51, 83
1, 165733, Control_c, 0, 64, 0
1, 165792, Control_c, 0, 64, 127
1, 165929, Note_on_c, 0, 60, 0
1, 165929, Note_on_c, 0, 72, 0
1, 165929, Note_on_c, 0, 63, 0
1, 165932, Note_on_c, 0, 39, 0
1, 165932, Note_on_c, 0, 51, 0
1, 165932, Note_on_c, 0, 41, 88
1, 165935, Note_on_c, 0, 53, 88
1, 165938, Control_c, 0, 64, 0
1, 166030, Control_c, 0, 64, 127
1, 166131, Note_on_c, 0, 60, 76
1, 166131, Note_on_c, 0, 63, 76
1, 166131, Note_on_c, 0, 72, 83
1, 166337, Note_on_c, 0, 72, 0
1, 166337, Note_on_c, 0, 60, 0
1, 166337, Note_on_c, 0, 63, 0
1, 166340, Note_on_c, 0, 53, 0
1, 166340, Note_on_c, 0, 41, 0
1, 166340, Note_on_c, 0, 43, 95
1, 166343, Note_on_c, 0, 55, 95
1, 166343, Control_c, 0, 64, 0
1, 166427, Control_c, 0, 64, 127
1, 166540, Note_on_c, 0, 63, 76
1, 166540, Note_on_c, 0, 72, 82
1, 166540, Note_on_c, 0, 60, 75
1, 166746, Note_on_c, 0, 60, 0
1, 166746, Note_on_c, 0, 63, 0
1, 166746, Note_on_c, 0, 72, 0
1, 166749, Note_on_c, 0, 55, 0
1, 166749, Note_on_c, 0, 43, 0
1, 166749, Note_on_c, 0, 44, 88
1, 166752, Note_on_c, 0, 56, 88
1, 166949, Note_on_c, 0, 56, 0
1, 166949, Note_on_c, 0, 44, 0
1, 166949, Control_c, 0, 64, 0
1, 166952, Note_on_c, 0, 56, 88
1, 167007, Control_c, 0, 64, 127
1, 167153, Note_on_c, 0, 71, 71
1, 167153, Note_on_c, 0, 74, 71
1, 167153, Note_on_c, 0, 77, 99
1, 167156, Note_on_c, 0, 62, 63
1, 167156, Note_on_c, 0, 65, 63
1, 167156, Note_on_c, 0, 68, 70
1, 167355, Note_on_c, 0, 74, 0
1, 167355, Note_on_c, 0, 71, 0
1, 167355, Note_on_c, 0, 71, 71
1, 167358, Note_on_c, 0, 65, 0
1, 167358, Note_on_c, 0, 68, 0
1, 167358, Note_on_c, 0, 74, 71
1, 167361, Note_on_c, 0, 62, 0
1, 167361, Note_on_c, 0, 62, 58
1, 167361, Note_on_c, 0, 68, 62
1, 167364, Note_on_c, 0, 65, 58
1, 167560, Note_on_c, 0, 77, 0
1, 167560, Note_on_c, 0, 74, 0
1, 167560, Note_on_c, 0, 71, 0
1, 167563, Note_on_c, 0, 65, 0
1, 167563, Note_on_c, 0, 56, 0
1, 167563, Note_on_c, 0, 79, 103
1, 167566, Note_on_c, 0, 68, 0
1, 167566, Note_on_c, 0, 62, 0
1, 167566, Note_on_c, 0, 56, 79
1, 167566, Control_c, 0, 64, 0
1, 167639, Control_c, 0, 64, 127
1, 167762, Note_on_c, 0, 71, 71
1, 167762, Note_on_c, 0, 74, 71
1, 167762, Note_on_c, 0, 62, 47
1, 167765, Note_on_c, 0, 65, 47
1, 167765, Note_on_c, 0, 68, 51
1, 167968, Note_on_c, 0, 74, 0
1, 167968, Note_on_c, 0, 71, 0
1, 167968, Note_on_c, 0, 79, 0
1, 167971, Note_on_c, 0, 71, 71
1, 167971, Note_on_c, 0, 74, 71
1, 167971, Note_on_c, 0, 80, 100
1, 167974, Note_on_c, 0, 62, 0
1, 167974, Note_on_c, 0, 68, 0
1, 167974, Note_on_c, 0, 65, 0
1, 167977, Note_on_c, 0, 62, 58
1, 167977, Note_on_c, 0, 65, 58
1, 167977, Note_on_c, 0, 68, 62
1, 168172, Note_on_c, 0, 71, 0
1, 168172, Note_on_c, 0, 80, 0
1, 168172, Note_on_c, 0, 74, 0
1, 168175, Note_on_c, 0, 72, 77
1, 168175, Note_on_c, 0, 75, 77
1, 168175, Note_on_c, 0, 79, 85
1, 168178, Note_on_c, 0, 62, 0
1, 168178, Note_on_c, 0, 68, 0
1, 168178, Note_on_c, 0, 56, 0
1, 168181, Note_on_c, 0, 65, 0
1, 168181, Control_c, 0, 64, 0
1, 168181, Note_on_c, 0, 51, 94
1, 168184, Note_on_c, 0, 63, 94
1, 168240, Control_c, 0, 64, 127
1, 168376, Note_on_c, 0, 79, 0
1, 168376, Note_on_c, 0, 75, 0
1, 168376, Note_on_c, 0, 72, 0
1, 168379, Note_on_c, 0, 51, 0
1, 168379, Note_on_c, 0, 63, 0
1, 168379, Note_on_c, 0, 53, 100
1, 168382, Note_on_c, 0, 65, 100
1, 168382, Control_c, 0, 64, 0
1, 168476, Control_c, 0, 64, 127
1, 168575, Note_on_c, 0, 72, 84
1, 168575, Note_on_c, 0, 75, 84
1, 168575, Note_on_c, 0, 79, 92
1, 168778, Note_on_c, 0, 79, 0
1, 168778, Note_on_c, 0, 72, 0
1, 168778, Note_on_c, 0, 75, 0
1, 168781, Note_on_c, 0, 65, 0
1, 168781, Note_on_c, 0, 53, 0
1, 168781, Control_c, 0, 64, 0
1, 168784, Note_on_c, 0, 55, 107
1, 168784, Note_on_c, 0, 67, 107
1, 168800, Control_c, 0, 64, 127
1, 168978, Note_on_c, 0, 75, 91
1, 168978, Note_on_c, 0, 72, 84
1, 169183, Note_on_c, 0, 72, 0
1, 169183, Note_on_c, 0, 75, 0
1, 169183, Note_on_c, 0, 67, 0
1, 169186, Note_on_c, 0, 55, 0
1, 169186, Note_on_c, 0, 56, 101
1, 169186, Note_on_c, 0, 68, 101
1, 169388, Note_on_c, 0, 68, 0
1, 169388, Note_on_c, 0, 56, 0
1, 169388, Control_c, 0, 64, 0
1, 169391, Note_on_c, 0, 62, 98
1, 169436, Control_c, 0, 64, 127
1, 169591, Note_on_c, 0, 71, 78
1, 169591, Note_on_c, 0, 76, 78
1, 169591, Note_on_c, 0, 80, 111
1, 169594, Note_on_c, 0, 64, 66
1, 169594, Note_on_c, 0, 68, 74
1, 169789, Note_on_c, 0, 76, 0
1, 169789, Note_on_c, 0, 71, 0
1, 169789, Note_on_c, 0, 71, 78
1, 169792, Note_on_c, 0, 64, 0
1, 169792, Note_on_c, 0, 68, 0
1, 169792, Note_on_c, 0, 76, 78
1, 169795, Note_on_c, 0, 68, 64
1, 169795, Note_on_c, 0, 64, 60
1, 169991, Note_on_c, 0, 76, 0
1, 169991, Note_on_c, 0, 71, 0
1, 169991, Note_on_c, 0, 80, 0
1, 169994, Note_on_c, 0, 64, 0
1, 169994, Note_on_c, 0, 68, 0
1, 169994, Note_on_c, 0, 82, 116
1, 169997, Note_on_c, 0, 62, 0
1, 169997, Note_on_c, 0, 62, 86
1, 169997, Control_c, 0, 64, 0
1, 170045, Control_c, 0, 64, 127
1, 170191, Note_on_c, 0, 71, 79
1, 170191, Note_on_c, 0, 76, 79
1, 170191, Note_on_c, 0, 64, 51
1, 170194, Note_on_c, 0, 68, 58
1, 170394, Note_on_c, 0, 76, 0
1, 170394, Note_on_c, 0, 71, 0
1, 170394, Note_on_c, 0, 82, 0
1, 170397, Note_on_c, 0, 71, 80
1, 170397, Note_on_c, 0, 76, 80
1, 170397, Note_on_c, 0, 83, 115
1, 170400, Note_on_c, 0, 68, 0
1, 170400, Note_on_c, 0, 64, 0
1, 170400, Note_on_c, 0, 64, 62
1, 170403, Note_on_c, 0, 68, 69
1, 170595, Note_on_c, 0, 71, 0
1, 170595, Note_on_c, 0, 76, 0
1, 170595, Note_on_c, 0, 83, 0
1, 170598, Note_on_c, 0, 72, 86
1, 170598, Note_on_c, 0, 75, 86
1, 170598, Note_on_c, 0, 84, 94
1, 170601, Note_on_c, 0, 62, 0
1, 170601, Note_on_c, 0, 68, 0
1, 170601, Note_on_c, 0, 64, 0
1, 170604, Control_c, 0, 64, 0
1, 170604, Note_on_c, 0, 51, 103
1, 170604, Note_on_c, 0, 63, 103
1, 170663, Control_c, 0, 64, 127
1, 170800, Note_on_c, 0, 72, 0
1, 170800, Note_on_c, 0, 84, 0
1, 170800, Note_on_c, 0, 75, 0
1, 170803, Note_on_c, 0, 51, 0
1, 170803, Note_on_c, 0, 63, 0
1, 170803, Note_on_c, 0, 53, 112
1, 170806, Note_on_c, 0, 65, 112
1, 170806, Control_c, 0, 64, 0
1, 170898, Control_c, 0, 64, 127
1, 170996, Note_on_c, 0, 72, 93
1, 170996, Note_on_c, 0, 75, 93
1, 170996, Note_on_c, 0, 84, 102
1, 171198, Note_on_c, 0, 84, 0
1, 171198, Note_on_c, 0, 72, 0
1, 171198, Note_on_c, 0, 75, 0
1, 171201, Note_on_c, 0, 65, 0
1, 171201, Note_on_c, 0, 53, 0
1, 171201, Control_c, 0, 64, 0
1, 171204, Note_on_c, 0, 55, 121
1, 171204, Note_on_c, 0, 67, 121
1, 171220, Control_c, 0, 64, 127
1, 171395, Note_on_c, 0, 75, 94
1, 171395, Note_on_c, 0, 84, 102
1, 171395, Note_on_c, 0, 72, 93
1, 171599, Note_on_c, 0, 72, 0
1, 171599, Note_on_c, 0, 75, 0
1, 171599, Note_on_c, 0, 84, 0
1, 171602, Note_on_c, 0, 67, 0
1, 171602, Note_on_c, 0, 55, 0
1, 171602, Note_on_c, 0, 56, 112
1, 171605, Note_on_c, 0, 68, 112
1, 171801, Note_on_c, 0, 68, 0
1, 171801, Note_on_c, 0, 56, 0
1, 171801, Control_c, 0, 64, 0
1, 171804, Note_on_c, 0, 56, 118
1, 171909, Control_c, 0, 64, 127
1, 172018, Note_on_c, 0, 88, 116
1, 172018, Note_on_c, 0, 83, 103
1, 172018, Note_on_c, 0, 80, 103
1, 172021, Note_on_c, 0, 56, 0
1, 172021, Note_on_c, 0, 76, 103
1, 172021, Note_on_c, 0, 62, 90
1, 172024, Note_on_c, 0, 64, 90
1, 172024, Note_on_c, 0, 68, 90
1, 172024, Note_on_c, 0, 71, 99
1, 172441, Note_on_c, 0, 76, 0
1, 172441, Note_on_c, 0, 88, 0
1, 172441, Note_on_c, 0, 83, 0
1, 172444, Note_on_c, 0, 80, 0
1, 172444, Note_on_c, 0, 71, 0
1, 172444, Note_on_c, 0, 87, 110
1, 172447, Note_on_c, 0, 64, 0
1, 172447, Note_on_c, 0, 62, 0
1, 172447, Note_on_c, 0, 68, 0
1, 172450, Note_on_c, 0, 63, 100
1, 172450, Note_on_c, 0, 68, 100
1, 172450, Note_on_c, 0, 72, 100
1, 172453, Control_c, 0, 64, 0
1, 172480, Control_c, 0, 64, 127
1, 172492, Note_on_c, 0, 87, 0
1, 172543, Note_on_c, 0, 84, 103
1, 172594, Note_on_c, 0, 84, 0
1, 172645, Note_on_c, 0, 72, 0
1, 172645, Note_on_c, 0, 68, 0
1, 172645, Note_on_c, 0, 80, 107
1, 172648, Note_on_c, 0, 63, 0
1, 172696, Note_on_c, 0, 80, 0
1, 172748, Note_on_c, 0, 75, 104
1, 172799, Note_on_c, 0, 75, 0
1, 172851, Note_on_c, 0, 72, 108
1, 172891, Control_c, 0, 64, 0
1, 172903, Note_on_c, 0, 72, 0
1, 173060, Note_on_c, 0, 44, 108
1, 173084, Control_c, 0, 64, 127
1, 173277, Note_on_c, 0, 76, 104
1, 173277, Note_on_c, 0, 71, 95
1, 173277, Note_on_c, 0, 68, 95
1, 173280, Note_on_c, 0, 44, 0
1, 173280, Note_on_c, 0, 64, 95
1, 173280, Note_on_c, 0, 50, 82
1, 173283, Note_on_c, 0, 52, 82
1, 173283, Note_on_c, 0, 56, 82
1, 173283, Note_on_c, 0, 59, 91
1, 173699, Note_on_c, 0, 64, 0
1, 173699, Note_on_c, 0, 76, 0
1, 173699, Note_on_c, 0, 71, 0
1, 173702, Note_on_c, 0, 68, 0
1, 173702, Note_on_c, 0, 59, 0
1, 173702, Note_on_c, 0, 75, 106
1, 173705, Note_on_c, 0, 52, 0
1, 173705, Note_on_c, 0, 50, 0
1, 173705, Note_on_c, 0, 56, 0
1, 173708, Note_on_c, 0, 51, 96
1, 173708, Note_on_c, 0, 56, 96
1, 173708, Note_on_c, 0, 60, 96
1, 173711, Control_c, 0, 64, 0
1, 173739, Control_c, 0, 64, 127
1, 173752, Note_on_c, 0, 75, 0
1, 173805, Note_on_c, 0, 72, 99
1, 173858, Note_on_c, 0, 72, 0
1, 173911, Note_on_c, 0, 60, 0
1, 173911, Note_on_c, 0, 56, 0
1, 173911, Note_on_c, 0, 68, 102
1, 173914, Note_on_c, 0, 51, 0
1, 173964, Note_on_c, 0, 68, 0
1, 174017, Note_on_c, 0, 63, 99
1, 174070, Note_on_c, 0, 63, 0
1, 174123, Note_on_c, 0, 60, 103
1, 174165, Control_c, 0, 64, 0
1, 174178, Note_on_c, 0, 60, 0
1, 174340, Note_on_c, 0, 75, 101
1, 174340, Note_on_c, 0, 44, 91
1, 174381, Control_c, 0, 64, 127
1, 174393, Note_on_c, 0, 75, 0
1, 174447, Note_on_c, 0, 72, 93
1, 174500, Note_on_c, 0, 72, 0
1, 174553, Note_on_c, 0, 44, 0
1, 174553, Note_on_c, 0, 68, 98
1, 174553, Note_on_c, 0, 51, 75
1, 174556, Note_on_c, 0, 56, 75
1, 174556, Note_on_c, 0, 60, 75
1, 174608, Note_on_c, 0, 68, 0
1, 174663, Note_on_c, 0, 63, 93
1, 174717, Note_on_c, 0, 63, 0
1, 174772, Note_on_c, 0, 60, 0
1, 174772, Note_on_c, 0, 56, 0
1, 174772, Note_on_c, 0, 60, 98
1, 174775, Note_on_c, 0, 51, 0
1, 174814, Control_c, 0, 64, 0
1, 174827, Note_on_c, 0, 60, 0
1, 174991, Note_on_c, 0, 75, 91
1, 174991, Note_on_c, 0, 44, 83
1, 175032, Control_c, 0, 64, 127
1, 175045, Note_on_c, 0, 75, 0
1, 175099, Note_on_c, 0, 72, 85
1, 175153, Note_on_c, 0, 72, 0
1, 175207, Note_on_c, 0, 44, 0
1, 175207, Note_on_c, 0, 68, 87
1, 175207, Note_on_c, 0, 51, 68
1, 175210, Note_on_c, 0, 56, 68
1, 175210, Note_on_c, 0, 60, 68
1, 175262, Note_on_c, 0, 68, 0
1, 175318, Note_on_c, 0, 63, 84
1, 175373, Note_on_c, 0, 63, 0
1, 175428, Note_on_c, 0, 60, 0
1, 175428, Note_on_c, 0, 56, 0
1, 175428, Note_on_c, 0, 60, 87
1, 175431, Note_on_c, 0, 51, 0
1, 175470, Control_c, 0, 64, 0
1, 175483, Note_on_c, 0, 60, 0
1, 175649, Note_on_c, 0, 75, 86
1, 175649, Note_on_c, 0, 44, 77
1, 175690, Control_c, 0, 64, 127
1, 175703, Note_on_c, 0, 75, 0
1, 175757, Note_on_c, 0, 72, 80
1, 175811, Note_on_c, 0, 72, 0
1, 175866, Note_on_c, 0, 44, 0
1, 175866, Note_on_c, 0, 68, 83
1, 175866, Note_on_c, 0, 51, 63
1, 175869, Note_on_c, 0, 56, 63
1, 175869, Note_on_c, 0, 60, 63
1, 175921, Note_on_c, 0, 68, 0
1, 175976, Note_on_c, 0, 63, 79
1, 176031, Note_on_c, 0, 63, 0
1, 176086, Note_on_c, 0, 60, 0
1, 176086, Note_on_c, 0, 56, 0
1, 176086, Note_on_c, 0, 60, 83
1, 176089, Note_on_c, 0, 51, 0
1, 176129, Control_c, 0, 64, 0
1, 176141, Note_on_c, 0, 60, 0
1, 176307, Note_on_c, 0, 75, 80
1, 176307, Note_on_c, 0, 44, 72
1, 176349, Control_c, 0, 64, 127
1, 176362, Note_on_c, 0, 75, 0
1, 176417, Note_on_c, 0, 72, 75
1, 176472, Note_on_c, 0, 72, 0
1, 176527, Note_on_c, 0, 44, 0
1, 176527, Note_on_c, 0, 68, 77
1, 176527, Note_on_c, 0, 51, 61
1, 176530, Note_on_c, 0, 56, 61
1, 176530, Note_on_c, 0, 60, 61
1, 176582, Note_on_c, 0, 68, 0
1, 176637, Note_on_c, 0, 63, 75
1, 176692, Note_on_c, 0, 63, 0
1, 176747, Note_on_c, 0, 60, 0
1, 176747, Note_on_c, 0, 56, 0
1, 176747, Note_on_c, 0, 60, 79
1, 176750, Note_on_c, 0, 51, 0
1, 176790, Control_c, 0, 64, 0
1, 176803, Note_on_c, 0, 60, 0
1, 176968, Note_on_c, 0, 44, 72
1, 176988, Control_c, 0, 64, 127
1, 177081, Note_on_c, 0, 60, 69
1, 177194, Note_on_c, 0, 60, 0
1, 177194, Note_on_c, 0, 44, 0
1, 177194, Note_on_c, 0, 63, 71
1, 177197, Note_on_c, 0, 51, 61
1, 177197, Note_on_c, 0, 56, 61
1, 177197, Note_on_c, 0, 60, 61
1, 177305, Note_on_c, 0, 63, 0
1, 177305, Note_on_c, 0, 68, 72
1, 177418, Note_on_c, 0, 68, 0
1, 177418, Note_on_c, 0, 72, 75
1, 177530, Note_on_c, 0, 72, 0
1, 177530, Note_on_c, 0, 75, 76
1, 177644, Note_on_c, 0, 75, 0
1, 177644, Note_on_c, 0, 77, 79
1, 177757, Note_on_c, 0, 77, 0
1, 177757, Note_on_c, 0, 75, 76
1, 177870, Note_on_c, 0, 75, 0
1, 177870, Note_on_c, 0, 60, 0
1, 177870, Note_on_c, 0, 72, 75
1, 177873, Note_on_c, 0, 56, 0
1, 177873, Note_on_c, 0, 51, 0
1, 177873, Note_on_c, 0, 56, 56
1, 177876, Note_on_c, 0, 60, 56
1, 177876, Note_on_c, 0, 63, 56
1, 177926, Note_on_c, 0, 63, 0
1, 177926, Note_on_c, 0, 60, 0
1, 177926, Note_on_c, 0, 56, 0
1, 177983, Note_on_c, 0, 72, 0
1, 177983, Note_on_c, 0, 68, 72
1, 178095, Note_on_c, 0, 68, 0
1, 178095, Note_on_c, 0, 72, 75
1, 178095, Note_on_c, 0, 56, 56
1, 178098, Note_on_c, 0, 60, 56
1, 178098, Note_on_c, 0, 63, 56
1, 178152, Note_on_c, 0, 63, 0
1, 178152, Note_on_c, 0, 60, 0
1, 178152, Note_on_c, 0, 56, 0
1, 178208, Note_on_c, 0, 72, 0
1, 178208, Note_on_c, 0, 75, 79
1, 178321, Note_on_c, 0, 75, 0
1, 178321, Note_on_c, 0, 80, 83
1, 178321, Control_c, 0, 64, 0
1, 178324, Note_on_c, 0, 56, 59
1, 178324, Note_on_c, 0, 60, 59
1, 178324, Note_on_c, 0, 63, 59
1, 178378, Note_on_c, 0, 63, 0
1, 178378, Note_on_c, 0, 60, 0
1, 178378, Note_on_c, 0, 80, 0
1, 178381, Note_on_c, 0, 56, 0
1, 178549, Note_on_c, 0, 84, 79
1, 178549, Note_on_c, 0, 80, 79
1, 178549, Note_on_c, 0, 68, 56
1, 178552, Note_on_c, 0, 72, 56
1, 178552, Note_on_c, 0, 75, 56
1, 178606, Note_on_c, 0, 75, 0
1, 178606, Note_on_c, 0, 84, 0
1, 178606, Note_on_c, 0, 80, 0
1, 178609, Note_on_c, 0, 68, 0
1, 178609, Note_on_c, 0, 72, 0
1, 178780, Note_on_c, 0, 87, 79
1, 178780, Note_on_c, 0, 84, 79
1, 178780, Note_on_c, 0, 80, 79
1, 178783, Note_on_c, 0, 68, 56
1, 178783, Note_on_c, 0, 72, 56
1, 178783, Note_on_c, 0, 75, 56
1, 178838, Note_on_c, 0, 80, 0
1, 178838, Note_on_c, 0, 87, 0
1, 178838, Note_on_c, 0, 84, 0
1, 178841, Note_on_c, 0, 68, 0
1, 178841, Note_on_c, 0, 72, 0
1, 178841, Note_on_c, 0, 75, 0
1, 179015, Note_on_c, 0, 92, 82
1, 179015, Note_on_c, 0, 84, 82
1, 179015, Note_on_c, 0, 80, 82
1, 179018, Note_on_c, 0, 68, 61
1, 179018, Note_on_c, 0, 72, 61
1, 179018, Note_on_c, 0, 75, 61
1, 179074, Note_on_c, 0, 80, 0
1, 179074, Note_on_c, 0, 92, 0
1, 179074, Note_on_c, 0, 84, 0
1, 179077, Note_on_c, 0, 68, 0
1, 179077, Note_on_c, 0, 72, 0
1, 179077, Note_on_c, 0, 75, 0
1, 179077, End_track
0, 0, End_of_file
