0, 0, Header, 1, 12, 192
1, 0, Start_track
1, 0, Title_t, "308D"
1, 0, Copyright_t, "Adaptation for Disklavier pianos, by: Robert C. Kuhmann (c) 2012."
1, 0, Time_signature, 4, 2, 24, 8
1, 0, Key_signature, 0, "major"
1, 0, Tempo, 600000
1, 1000, Tempo, 500000
1, 1000, Marker_t, "Roll expression/accent tracks, where present, converted to MIDI velocties.\012"
1, 1000, Marker_t, "Standard MIDI:LPI 86:Tempo  80: 02-01-2004"
1, 1000, End_track
2, 0, Start_track
2, 0, Title_t, "Grand Piano"
2, 0, Program_c, 0, 0
2, 0, Control_c, 0, 7, 115
2, 20, Note_on_c, 0, 1, 6
2, 100, Note_on_c, 0, 1, 0
2, 1139, Control_c, 0, 67, 127
2, 1206, Note_on_c, 0, 43, 54
2, 1209, Note_on_c, 0, 50, 54
2, 1415, Control_c, 0, 64, 127
2, 1421, Note_on_c, 0, 62, 54
2, 1424, Note_on_c, 0, 55, 54
2, 1488, Note_on_c, 0, 55, 0
2, 1488, Note_on_c, 0, 43, 0
2, 1497, Note_on_c, 0, 62, 0
2, 1552, Note_on_c, 0, 50, 0
2, 1580, Note_on_c, 0, 62, 54
2, 1583, Note_on_c, 0, 55, 54
2, 1625, Note_on_c, 0, 62, 0
2, 1637, Note_on_c, 0, 55, 0
2, 1743, Note_on_c, 0, 50, 57
2, 1748, Note_on_c, 0, 43, 48
2, 1779, Control_c, 0, 67, 0
2, 1818, Note_on_c, 0, 50, 0
2, 1824, Note_on_c, 0, 43, 0
2, 1858, Control_c, 0, 67, 127
2, 1908, Note_on_c, 0, 50, 48
2, 1911, Note_on_c, 0, 43, 48
2, 1960, Note_on_c, 0, 50, 0
2, 1994, Note_on_c, 0, 43, 0
2, 2064, Note_on_c, 0, 55, 48
2, 2064, Note_on_c, 0, 62, 48
2, 2123, Note_on_c, 0, 62, 0
2, 2126, Note_on_c, 0, 55, 0
2, 2240, Note_on_c, 0, 50, 48
2, 2246, Note_on_c, 0, 43, 48
2, 2293, Note_on_c, 0, 50, 0
2, 2309, Note_on_c, 0, 43, 0
2, 2407, Note_on_c, 0, 55, 48
2, 2407, Note_on_c, 0, 62, 48
2, 2457, Note_on_c, 0, 55, 0
2, 2465, Note_on_c, 0, 62, 0
2, 2571, Note_on_c, 0, 55, 48
2, 2571, Note_on_c, 0, 62, 48
2, 2610, Note_on_c, 0, 62, 0
2, 2613, Note_on_c, 0, 55, 0
2, 2716, Note_on_c, 0, 43, 48
2, 2716, Note_on_c, 0, 50, 48
2, 2777, Note_on_c, 0, 50, 0
2, 2797, Note_on_c, 0, 43, 0
2, 2889, Note_on_c, 0, 43, 48
2, 2889, Note_on_c, 0, 50, 48
2, 2925, Note_on_c, 0, 50, 0
2, 2925, Note_on_c, 0, 43, 0
2, 3034, Note_on_c, 0, 62, 47
2, 3045, Note_on_c, 0, 55, 48
2, 3079, Note_on_c, 0, 55, 0
2, 3088, Note_on_c, 0, 62, 0
2, 3112, Control_c, 0, 67, 0
2, 3190, Note_on_c, 0, 57, 51
2, 3190, Note_on_c, 0, 60, 51
2, 3190, Note_on_c, 0, 65, 68
2, 3199, Note_on_c, 0, 43, 50
2, 3202, Note_on_c, 0, 50, 51
2, 3210, Control_c, 0, 64, 0
2, 3241, Note_on_c, 0, 43, 0
2, 3253, Note_on_c, 0, 50, 0
2, 3336, Note_on_c, 0, 55, 51
2, 3339, Note_on_c, 0, 50, 51
2, 3383, Note_on_c, 0, 50, 0
2, 3383, Note_on_c, 0, 55, 0
2, 3480, Note_on_c, 0, 50, 50
2, 3480, Note_on_c, 0, 55, 51
2, 3514, Note_on_c, 0, 55, 0
2, 3522, Note_on_c, 0, 50, 0
2, 3625, Note_on_c, 0, 43, 51
2, 3625, Note_on_c, 0, 50, 51
2, 3666, Note_on_c, 0, 50, 0
2, 3678, Note_on_c, 0, 43, 0
2, 3678, Control_c, 0, 64, 127
2, 3756, Note_on_c, 0, 57, 0
2, 3759, Note_on_c, 0, 60, 0
2, 3770, Note_on_c, 0, 65, 0
2, 3782, Note_on_c, 0, 62, 49
2, 3784, Note_on_c, 0, 58, 48
2, 3793, Note_on_c, 0, 43, 47
2, 3793, Note_on_c, 0, 50, 46
2, 3815, Control_c, 0, 64, 0
2, 3827, Note_on_c, 0, 50, 0
2, 3838, Note_on_c, 0, 43, 0
2, 3933, Note_on_c, 0, 50, 51
2, 3933, Note_on_c, 0, 55, 51
2, 3977, Note_on_c, 0, 55, 0
2, 3986, Note_on_c, 0, 50, 0
2, 4005, Control_c, 0, 64, 127
2, 4074, Note_on_c, 0, 62, 0
2, 4077, Note_on_c, 0, 58, 0
2, 4080, Note_on_c, 0, 57, 51
2, 4080, Note_on_c, 0, 65, 69
2, 4089, Note_on_c, 0, 60, 51
2, 4089, Note_on_c, 0, 43, 51
2, 4089, Note_on_c, 0, 50, 50
2, 4111, Control_c, 0, 64, 0
2, 4144, Note_on_c, 0, 50, 0
2, 4153, Note_on_c, 0, 43, 0
2, 4248, Note_on_c, 0, 50, 51
2, 4248, Note_on_c, 0, 55, 51
2, 4289, Note_on_c, 0, 55, 0
2, 4298, Note_on_c, 0, 50, 0
2, 4390, Note_on_c, 0, 55, 51
2, 4393, Note_on_c, 0, 50, 51
2, 4443, Note_on_c, 0, 50, 0
2, 4443, Note_on_c, 0, 55, 0
2, 4532, Note_on_c, 0, 43, 50
2, 4532, Note_on_c, 0, 50, 51
2, 4566, Control_c, 0, 64, 127
2, 4579, Note_on_c, 0, 50, 0
2, 4579, Note_on_c, 0, 43, 0
2, 4641, Note_on_c, 0, 60, 0
2, 4641, Note_on_c, 0, 65, 0
2, 4641, Note_on_c, 0, 57, 0
2, 4652, Note_on_c, 0, 62, 50
2, 4664, Note_on_c, 0, 58, 48
2, 4672, Note_on_c, 0, 43, 47
2, 4672, Note_on_c, 0, 50, 46
2, 4695, Control_c, 0, 64, 0
2, 4714, Note_on_c, 0, 50, 0
2, 4714, Note_on_c, 0, 43, 0
2, 4806, Note_on_c, 0, 55, 51
2, 4809, Note_on_c, 0, 50, 51
2, 4848, Control_c, 0, 64, 127
2, 4857, Note_on_c, 0, 50, 0
2, 4857, Note_on_c, 0, 55, 0
2, 4885, Note_on_c, 0, 58, 0
2, 4885, Note_on_c, 0, 62, 0
2, 4898, Note_on_c, 0, 57, 53
2, 4914, Control_c, 0, 64, 0
2, 4917, Note_on_c, 0, 60, 55
2, 4939, Note_on_c, 0, 65, 56
2, 4951, Note_on_c, 0, 43, 53
2, 4951, Note_on_c, 0, 50, 52
2, 5007, Note_on_c, 0, 50, 0
2, 5007, Note_on_c, 0, 43, 0
2, 5096, Note_on_c, 0, 50, 50
2, 5096, Note_on_c, 0, 55, 51
2, 5137, Note_on_c, 0, 55, 0
2, 5140, Note_on_c, 0, 50, 0
2, 5209, Note_on_c, 0, 50, 55
2, 5209, Note_on_c, 0, 55, 57
2, 5240, Note_on_c, 0, 63, 57
2, 5259, Note_on_c, 0, 55, 0
2, 5259, Note_on_c, 0, 50, 0
2, 5259, Note_on_c, 0, 65, 0
2, 5298, Note_on_c, 0, 65, 53
2, 5304, Note_on_c, 0, 63, 0
2, 5351, Control_c, 0, 64, 127
2, 5351, Note_on_c, 0, 43, 57
2, 5351, Note_on_c, 0, 50, 56
2, 5351, Note_on_c, 0, 63, 57
2, 5360, Note_on_c, 0, 65, 0
2, 5399, Note_on_c, 0, 50, 0
2, 5399, Note_on_c, 0, 43, 0
2, 5399, Note_on_c, 0, 65, 60
2, 5413, Note_on_c, 0, 63, 0
2, 5457, Note_on_c, 0, 63, 57
2, 5470, Control_c, 0, 64, 0
2, 5473, Note_on_c, 0, 60, 0
2, 5482, Note_on_c, 0, 65, 0
2, 5490, Note_on_c, 0, 57, 0
2, 5499, Note_on_c, 0, 58, 59
2, 5499, Note_on_c, 0, 62, 60
2, 5505, Note_on_c, 0, 63, 0
2, 5511, Note_on_c, 0, 43, 62
2, 5513, Note_on_c, 0, 50, 63
2, 5555, Note_on_c, 0, 50, 0
2, 5555, Note_on_c, 0, 43, 0
2, 5635, Note_on_c, 0, 55, 58
2, 5641, Note_on_c, 0, 50, 57
2, 5685, Note_on_c, 0, 50, 0
2, 5685, Note_on_c, 0, 55, 0
2, 5794, Note_on_c, 0, 43, 58
2, 5794, Note_on_c, 0, 50, 51
2, 5838, Note_on_c, 0, 50, 0
2, 5838, Note_on_c, 0, 43, 0
2, 5944, Note_on_c, 0, 55, 50
2, 5946, Note_on_c, 0, 50, 51
2, 5980, Note_on_c, 0, 55, 0
2, 5993, Note_on_c, 0, 50, 0
2, 6088, Note_on_c, 0, 50, 51
2, 6088, Note_on_c, 0, 55, 51
2, 6129, Note_on_c, 0, 55, 0
2, 6137, Note_on_c, 0, 50, 0
2, 6234, Note_on_c, 0, 43, 51
2, 6234, Note_on_c, 0, 50, 51
2, 6276, Note_on_c, 0, 50, 0
2, 6276, Note_on_c, 0, 43, 0
2, 6376, Note_on_c, 0, 50, 50
2, 6381, Note_on_c, 0, 43, 51
2, 6425, Note_on_c, 0, 43, 0
2, 6425, Note_on_c, 0, 50, 0
2, 6478, Control_c, 0, 64, 127
2, 6520, Note_on_c, 0, 55, 53
2, 6528, Note_on_c, 0, 50, 55
2, 6544, Note_on_c, 0, 58, 0
2, 6553, Note_on_c, 0, 62, 0
2, 6556, Control_c, 0, 67, 127
2, 6562, Note_on_c, 0, 55, 0
2, 6562, Note_on_c, 0, 50, 0
2, 6670, Control_c, 0, 64, 0
2, 6673, Note_on_c, 0, 57, 54
2, 6673, Note_on_c, 0, 65, 59
2, 6682, Note_on_c, 0, 60, 54
2, 6688, Note_on_c, 0, 43, 54
2, 6688, Note_on_c, 0, 50, 54
2, 6729, Note_on_c, 0, 50, 0
2, 6729, Note_on_c, 0, 43, 0
2, 6829, Note_on_c, 0, 50, 53
2, 6829, Note_on_c, 0, 55, 54
2, 6870, Note_on_c, 0, 55, 0
2, 6870, Note_on_c, 0, 50, 0
2, 6976, Note_on_c, 0, 55, 53
2, 6987, Note_on_c, 0, 50, 54
2, 7018, Note_on_c, 0, 50, 0
2, 7018, Note_on_c, 0, 55, 0
2, 7112, Note_on_c, 0, 43, 53
2, 7115, Note_on_c, 0, 50, 54
2, 7153, Note_on_c, 0, 43, 0
2, 7162, Note_on_c, 0, 50, 0
2, 7170, Control_c, 0, 64, 127
2, 7240, Note_on_c, 0, 57, 0
2, 7248, Note_on_c, 0, 60, 0
2, 7248, Note_on_c, 0, 65, 0
2, 7248, Note_on_c, 0, 58, 54
2, 7248, Note_on_c, 0, 62, 53
2, 7262, Note_on_c, 0, 43, 54
2, 7262, Note_on_c, 0, 50, 54
2, 7298, Control_c, 0, 64, 0
2, 7304, Note_on_c, 0, 50, 0
2, 7304, Note_on_c, 0, 43, 0
2, 7412, Note_on_c, 0, 50, 53
2, 7412, Note_on_c, 0, 55, 54
2, 7451, Note_on_c, 0, 55, 0
2, 7451, Note_on_c, 0, 50, 0
2, 7498, Control_c, 0, 64, 127
2, 7548, Note_on_c, 0, 65, 58
2, 7551, Note_on_c, 0, 62, 0
2, 7551, Note_on_c, 0, 58, 0
2, 7559, Note_on_c, 0, 57, 53
2, 7562, Note_on_c, 0, 50, 54
2, 7568, Note_on_c, 0, 60, 54
2, 7571, Note_on_c, 0, 43, 54
2, 7579, Control_c, 0, 64, 0
2, 7624, Note_on_c, 0, 43, 0
2, 7624, Note_on_c, 0, 50, 0
2, 7707, Note_on_c, 0, 55, 53
2, 7719, Note_on_c, 0, 50, 54
2, 7760, Note_on_c, 0, 50, 0
2, 7760, Note_on_c, 0, 55, 0
2, 7848, Note_on_c, 0, 55, 53
2, 7851, Note_on_c, 0, 50, 54
2, 7889, Note_on_c, 0, 55, 0
2, 7901, Note_on_c, 0, 50, 0
2, 7989, Note_on_c, 0, 50, 54
2, 7995, Note_on_c, 0, 43, 54
2, 8056, Note_on_c, 0, 43, 0
2, 8056, Note_on_c, 0, 50, 0
2, 8103, Control_c, 0, 64, 127
2, 8144, Note_on_c, 0, 43, 54
2, 8147, Note_on_c, 0, 50, 54
2, 8150, Note_on_c, 0, 62, 54
2, 8152, Note_on_c, 0, 58, 54
2, 8155, Note_on_c, 0, 65, 0
2, 8155, Note_on_c, 0, 57, 0
2, 8158, Note_on_c, 0, 60, 0
2, 8186, Note_on_c, 0, 50, 0
2, 8189, Note_on_c, 0, 43, 0
2, 8192, Control_c, 0, 64, 0
2, 8295, Note_on_c, 0, 55, 54
2, 8303, Note_on_c, 0, 50, 54
2, 8344, Control_c, 0, 64, 127
2, 8347, Note_on_c, 0, 50, 0
2, 8347, Note_on_c, 0, 55, 0
2, 8419, Note_on_c, 0, 62, 0
2, 8431, Note_on_c, 0, 43, 54
2, 8434, Note_on_c, 0, 50, 54
2, 8437, Note_on_c, 0, 65, 54
2, 8440, Note_on_c, 0, 57, 54
2, 8445, Note_on_c, 0, 58, 0
2, 8445, Control_c, 0, 64, 0
2, 8445, Note_on_c, 0, 60, 53
2, 8495, Note_on_c, 0, 43, 0
2, 8507, Note_on_c, 0, 50, 0
2, 8579, Note_on_c, 0, 55, 54
2, 8595, Note_on_c, 0, 50, 54
2, 8623, Note_on_c, 0, 55, 0
2, 8639, Note_on_c, 0, 50, 0
2, 8692, Note_on_c, 0, 50, 54
2, 8711, Note_on_c, 0, 55, 54
2, 8745, Note_on_c, 0, 65, 0
2, 8753, Note_on_c, 0, 50, 0
2, 8753, Note_on_c, 0, 55, 0
2, 8753, Note_on_c, 0, 63, 46
2, 8776, Control_c, 0, 64, 127
2, 8800, Note_on_c, 0, 63, 0
2, 8800, Note_on_c, 0, 65, 54
2, 8809, Note_on_c, 0, 57, 0
2, 8840, Note_on_c, 0, 60, 0
2, 8846, Note_on_c, 0, 63, 53
2, 8848, Note_on_c, 0, 43, 54
2, 8848, Note_on_c, 0, 50, 54
2, 8857, Note_on_c, 0, 65, 0
2, 8891, Note_on_c, 0, 63, 0
2, 8894, Note_on_c, 0, 65, 54
2, 8910, Note_on_c, 0, 50, 0
2, 8919, Note_on_c, 0, 43, 0
2, 8935, Note_on_c, 0, 63, 53
2, 8938, Note_on_c, 0, 65, 0
2, 8968, Note_on_c, 0, 63, 0
2, 8982, Note_on_c, 0, 62, 50
2, 8985, Note_on_c, 0, 58, 49
2, 8988, Control_c, 0, 64, 0
2, 8996, Note_on_c, 0, 43, 47
2, 8996, Note_on_c, 0, 50, 46
2, 9040, Note_on_c, 0, 50, 0
2, 9040, Note_on_c, 0, 43, 0
2, 9135, Note_on_c, 0, 55, 52
2, 9137, Note_on_c, 0, 50, 54
2, 9168, Note_on_c, 0, 55, 0
2, 9177, Note_on_c, 0, 50, 0
2, 9271, Note_on_c, 0, 43, 54
2, 9271, Note_on_c, 0, 50, 54
2, 9312, Note_on_c, 0, 50, 0
2, 9312, Note_on_c, 0, 43, 0
2, 9420, Note_on_c, 0, 55, 53
2, 9420, Note_on_c, 0, 50, 54
2, 9464, Note_on_c, 0, 50, 0
2, 9470, Note_on_c, 0, 55, 0
2, 9569, Note_on_c, 0, 55, 54
2, 9583, Note_on_c, 0, 50, 54
2, 9611, Note_on_c, 0, 55, 0
2, 9627, Note_on_c, 0, 50, 0
2, 9718, Note_on_c, 0, 50, 54
2, 9721, Note_on_c, 0, 43, 54
2, 9771, Note_on_c, 0, 43, 0
2, 9771, Note_on_c, 0, 50, 0
2, 9852, Note_on_c, 0, 43, 52
2, 9852, Note_on_c, 0, 50, 48
2, 9896, Note_on_c, 0, 50, 0
2, 9902, Note_on_c, 0, 43, 0
2, 9996, Note_on_c, 0, 50, 48
2, 9996, Note_on_c, 0, 55, 48
2, 10037, Note_on_c, 0, 55, 0
2, 10037, Note_on_c, 0, 50, 0
2, 10131, Note_on_c, 0, 43, 47
2, 10131, Note_on_c, 0, 50, 48
2, 10197, Note_on_c, 0, 50, 0
2, 10197, Note_on_c, 0, 43, 0
2, 10283, Note_on_c, 0, 50, 47
2, 10283, Note_on_c, 0, 55, 48
2, 10324, Note_on_c, 0, 55, 0
2, 10324, Note_on_c, 0, 50, 0
2, 10415, Note_on_c, 0, 55, 47
2, 10421, Note_on_c, 0, 50, 48
2, 10459, Note_on_c, 0, 50, 0
2, 10459, Note_on_c, 0, 55, 0
2, 10556, Note_on_c, 0, 43, 47
2, 10556, Note_on_c, 0, 50, 48
2, 10606, Note_on_c, 0, 50, 0
2, 10620, Note_on_c, 0, 43, 0
2, 10697, Note_on_c, 0, 43, 48
2, 10703, Note_on_c, 0, 50, 48
2, 10742, Note_on_c, 0, 50, 0
2, 10742, Note_on_c, 0, 43, 0
2, 10849, Control_c, 0, 64, 127
2, 10849, Note_on_c, 0, 55, 48
2, 10852, Note_on_c, 0, 50, 47
2, 10888, Note_on_c, 0, 55, 0
2, 10893, Note_on_c, 0, 50, 0
2, 10902, Note_on_c, 0, 58, 0
2, 10911, Note_on_c, 0, 62, 0
2, 10952, Control_c, 0, 64, 0
2, 10990, Note_on_c, 0, 70, 54
2, 10993, Note_on_c, 0, 67, 54
2, 11007, Note_on_c, 0, 43, 48
2, 11007, Note_on_c, 0, 50, 48
2, 11048, Note_on_c, 0, 43, 0
2, 11142, Control_c, 0, 64, 127
2, 11151, Note_on_c, 0, 55, 48
2, 11178, Note_on_c, 0, 62, 48
2, 11225, Note_on_c, 0, 62, 0
2, 11234, Note_on_c, 0, 55, 0
2, 11292, Note_on_c, 0, 50, 0
2, 11300, Note_on_c, 0, 62, 48
2, 11306, Note_on_c, 0, 55, 48
2, 11340, Note_on_c, 0, 55, 0
2, 11340, Note_on_c, 0, 62, 0
2, 11441, Note_on_c, 0, 50, 47
2, 11450, Note_on_c, 0, 43, 48
2, 11478, Control_c, 0, 64, 0
2, 11494, Note_on_c, 0, 43, 0
2, 11497, Note_on_c, 0, 50, 0
2, 11533, Note_on_c, 0, 70, 0
2, 11544, Note_on_c, 0, 67, 0
2, 11578, Control_c, 0, 64, 127
2, 11581, Note_on_c, 0, 69, 57
2, 11581, Note_on_c, 0, 72, 58
2, 11597, Note_on_c, 0, 43, 53
2, 11597, Note_on_c, 0, 50, 54
2, 11631, Note_on_c, 0, 43, 0
2, 11716, Note_on_c, 0, 62, 54
2, 11725, Note_on_c, 0, 55, 54
2, 11757, Note_on_c, 0, 50, 0
2, 11766, Note_on_c, 0, 62, 0
2, 11782, Note_on_c, 0, 55, 0
2, 11832, Note_on_c, 0, 72, 0
2, 11843, Note_on_c, 0, 69, 0
2, 11853, Control_c, 0, 64, 0
2, 11867, Note_on_c, 0, 43, 54
2, 11867, Note_on_c, 0, 74, 62
2, 11875, Note_on_c, 0, 70, 63
2, 11878, Note_on_c, 0, 50, 54
2, 11933, Note_on_c, 0, 43, 0
2, 11977, Control_c, 0, 64, 127
2, 12010, Note_on_c, 0, 62, 54
2, 12013, Note_on_c, 0, 55, 54
2, 12023, Note_on_c, 0, 74, 0
2, 12023, Note_on_c, 0, 70, 0
2, 12059, Note_on_c, 0, 62, 0
2, 12062, Note_on_c, 0, 55, 0
2, 12131, Note_on_c, 0, 55, 54
2, 12139, Note_on_c, 0, 50, 0
2, 12145, Note_on_c, 0, 62, 54
2, 12161, Note_on_c, 0, 74, 72
2, 12170, Note_on_c, 0, 70, 72
2, 12195, Note_on_c, 0, 62, 0
2, 12195, Note_on_c, 0, 55, 0
2, 12220, Control_c, 0, 64, 0
2, 12286, Note_on_c, 0, 43, 54
2, 12297, Note_on_c, 0, 50, 54
2, 12305, Control_c, 0, 64, 127
2, 12347, Note_on_c, 0, 50, 0
2, 12347, Note_on_c, 0, 43, 0
2, 12429, Note_on_c, 0, 43, 53
2, 12429, Note_on_c, 0, 50, 54
2, 12465, Note_on_c, 0, 43, 0
2, 12520, Note_on_c, 0, 70, 0
2, 12520, Note_on_c, 0, 74, 0
2, 12561, Note_on_c, 0, 62, 54
2, 12564, Note_on_c, 0, 55, 54
2, 12574, Note_on_c, 0, 50, 0
2, 12605, Note_on_c, 0, 62, 0
2, 12618, Note_on_c, 0, 55, 0
2, 12698, Note_on_c, 0, 74, 60
2, 12707, Note_on_c, 0, 70, 64
2, 12712, Note_on_c, 0, 43, 54
2, 12712, Note_on_c, 0, 50, 54
2, 12757, Note_on_c, 0, 43, 0
2, 12798, Control_c, 0, 67, 0
2, 12845, Note_on_c, 0, 55, 57
2, 12845, Note_on_c, 0, 62, 57
2, 12900, Note_on_c, 0, 62, 0
2, 12908, Note_on_c, 0, 55, 0
2, 12917, Note_on_c, 0, 50, 0
2, 12977, Note_on_c, 0, 62, 57
2, 12986, Note_on_c, 0, 55, 57
2, 12997, Note_on_c, 0, 70, 0
2, 13016, Note_on_c, 0, 62, 0
2, 13026, Note_on_c, 0, 55, 0
2, 13040, Note_on_c, 0, 74, 0
2, 13106, Note_on_c, 0, 69, 57
2, 13106, Note_on_c, 0, 72, 58
2, 13109, Note_on_c, 0, 43, 57
2, 13109, Note_on_c, 0, 50, 57
2, 13172, Note_on_c, 0, 43, 0
2, 13181, Note_on_c, 0, 50, 0
2, 13239, Note_on_c, 0, 43, 57
2, 13241, Note_on_c, 0, 69, 0
2, 13247, Note_on_c, 0, 72, 0
2, 13253, Note_on_c, 0, 50, 57
2, 13259, Note_on_c, 0, 74, 67
2, 13262, Note_on_c, 0, 70, 67
2, 13264, Control_c, 0, 64, 0
2, 13306, Note_on_c, 0, 43, 0
2, 13325, Control_c, 0, 64, 127
2, 13385, Note_on_c, 0, 62, 57
2, 13391, Note_on_c, 0, 55, 57
2, 13408, Note_on_c, 0, 50, 0
2, 13432, Note_on_c, 0, 62, 0
2, 13441, Note_on_c, 0, 55, 0
2, 13466, Note_on_c, 0, 70, 0
2, 13504, Control_c, 0, 64, 0
2, 13521, Note_on_c, 0, 74, 0
2, 13527, Note_on_c, 0, 72, 63
2, 13535, Note_on_c, 0, 43, 53
2, 13535, Note_on_c, 0, 50, 52
2, 13535, Note_on_c, 0, 69, 63
2, 13590, Note_on_c, 0, 43, 0
2, 13672, Note_on_c, 0, 55, 51
2, 13672, Note_on_c, 0, 62, 51
2, 13692, Control_c, 0, 64, 127
2, 13705, Note_on_c, 0, 62, 0
2, 13708, Note_on_c, 0, 50, 0
2, 13730, Note_on_c, 0, 55, 0
2, 13741, Note_on_c, 0, 69, 0
2, 13791, Note_on_c, 0, 72, 0
2, 13799, Control_c, 0, 64, 0
2, 13808, Note_on_c, 0, 43, 51
2, 13808, Note_on_c, 0, 50, 51
2, 13811, Note_on_c, 0, 67, 61
2, 13811, Note_on_c, 0, 70, 63
2, 13888, Note_on_c, 0, 50, 0
2, 13888, Note_on_c, 0, 43, 0
2, 13942, Control_c, 0, 64, 127
2, 13948, Note_on_c, 0, 50, 51
2, 13954, Note_on_c, 0, 43, 51
2, 14014, Note_on_c, 0, 43, 0
2, 14083, Note_on_c, 0, 62, 51
2, 14092, Note_on_c, 0, 55, 51
2, 14125, Note_on_c, 0, 50, 0
2, 14128, Note_on_c, 0, 62, 0
2, 14150, Note_on_c, 0, 55, 0
2, 14224, Note_on_c, 0, 43, 51
2, 14224, Note_on_c, 0, 50, 51
2, 14273, Note_on_c, 0, 50, 0
2, 14273, Note_on_c, 0, 43, 0
2, 14282, Note_on_c, 0, 67, 0
2, 14291, Note_on_c, 0, 70, 0
2, 14326, Control_c, 0, 64, 0
2, 14362, Note_on_c, 0, 72, 57
2, 14362, Note_on_c, 0, 69, 60
2, 14370, Note_on_c, 0, 43, 51
2, 14370, Note_on_c, 0, 50, 51
2, 14437, Note_on_c, 0, 43, 0
2, 14494, Note_on_c, 0, 62, 51
2, 14500, Control_c, 0, 64, 127
2, 14506, Note_on_c, 0, 55, 51
2, 14560, Note_on_c, 0, 62, 0
2, 14569, Note_on_c, 0, 55, 0
2, 14627, Note_on_c, 0, 50, 0
2, 14632, Note_on_c, 0, 55, 51
2, 14632, Note_on_c, 0, 62, 51
2, 14677, Note_on_c, 0, 62, 0
2, 14699, Note_on_c, 0, 55, 0
2, 14773, Note_on_c, 0, 50, 51
2, 14783, Note_on_c, 0, 43, 50
2, 14833, Note_on_c, 0, 43, 0
2, 14833, Note_on_c, 0, 50, 0
2, 14842, Note_on_c, 0, 69, 0
2, 14864, Note_on_c, 0, 72, 0
2, 14908, Note_on_c, 0, 74, 60
2, 14914, Note_on_c, 0, 70, 64
2, 14917, Note_on_c, 0, 43, 57
2, 14925, Note_on_c, 0, 50, 57
2, 14928, Control_c, 0, 64, 0
2, 14989, Note_on_c, 0, 43, 0
2, 15011, Control_c, 0, 64, 127
2, 15052, Note_on_c, 0, 55, 57
2, 15055, Note_on_c, 0, 62, 57
2, 15058, Note_on_c, 0, 50, 0
2, 15093, Note_on_c, 0, 62, 0
2, 15110, Note_on_c, 0, 55, 0
2, 15137, Note_on_c, 0, 70, 0
2, 15187, Note_on_c, 0, 70, 61
2, 15190, Control_c, 0, 64, 0
2, 15199, Note_on_c, 0, 43, 57
2, 15199, Note_on_c, 0, 50, 57
2, 15199, Note_on_c, 0, 67, 64
2, 15202, Note_on_c, 0, 74, 0
2, 15252, Note_on_c, 0, 43, 0
2, 15282, Control_c, 0, 64, 127
2, 15332, Note_on_c, 0, 62, 57
2, 15332, Note_on_c, 0, 55, 57
2, 15363, Note_on_c, 0, 50, 0
2, 15376, Note_on_c, 0, 62, 0
2, 15376, Note_on_c, 0, 55, 0
2, 15401, Note_on_c, 0, 67, 0
2, 15434, Note_on_c, 0, 70, 0
2, 15453, Note_on_c, 0, 43, 57
2, 15453, Note_on_c, 0, 50, 57
2, 15464, Note_on_c, 0, 66, 61
2, 15477, Note_on_c, 0, 69, 60
2, 15480, Control_c, 0, 64, 0
2, 15502, Note_on_c, 0, 43, 0
2, 15527, Note_on_c, 0, 69, 0
2, 15533, Note_on_c, 0, 70, 65
2, 15574, Note_on_c, 0, 70, 0
2, 15574, Note_on_c, 0, 69, 66
2, 15593, Note_on_c, 0, 55, 57
2, 15602, Note_on_c, 0, 62, 57
2, 15605, Note_on_c, 0, 50, 0
2, 15608, Note_on_c, 0, 69, 0
2, 15633, Note_on_c, 0, 70, 67
2, 15639, Note_on_c, 0, 62, 0
2, 15652, Note_on_c, 0, 55, 0
2, 15655, Control_c, 0, 64, 127
2, 15677, Note_on_c, 0, 70, 0
2, 15693, Note_on_c, 0, 69, 66
2, 15710, Note_on_c, 0, 66, 0
2, 15732, Note_on_c, 0, 50, 57
2, 15732, Note_on_c, 0, 43, 57
2, 15748, Note_on_c, 0, 67, 64
2, 15759, Control_c, 0, 64, 0
2, 15769, Note_on_c, 0, 69, 0
2, 15772, Note_on_c, 0, 43, 0
2, 15846, Control_c, 0, 64, 127
2, 15874, Note_on_c, 0, 62, 57
2, 15880, Note_on_c, 0, 55, 57
2, 15918, Note_on_c, 0, 55, 0
2, 15918, Note_on_c, 0, 62, 0
2, 15948, Note_on_c, 0, 50, 0
2, 15948, Control_c, 0, 64, 0
2, 16008, Note_on_c, 0, 43, 56
2, 16011, Note_on_c, 0, 50, 57
2, 16069, Control_c, 0, 64, 127
2, 16077, Note_on_c, 0, 67, 0
2, 16077, Control_c, 0, 67, 127
2, 16144, Note_on_c, 0, 62, 54
2, 16146, Note_on_c, 0, 55, 54
2, 16160, Note_on_c, 0, 43, 0
2, 16201, Note_on_c, 0, 62, 0
2, 16207, Note_on_c, 0, 55, 0
2, 16259, Note_on_c, 0, 62, 54
2, 16262, Note_on_c, 0, 55, 54
2, 16281, Note_on_c, 0, 50, 0
2, 16284, Note_on_c, 0, 79, 55
2, 16284, Note_on_c, 0, 94, 57
2, 16303, Note_on_c, 0, 62, 0
2, 16309, Note_on_c, 0, 55, 0
2, 16317, Note_on_c, 0, 94, 0
2, 16320, Note_on_c, 0, 79, 0
2, 16348, Note_on_c, 0, 94, 56
2, 16351, Note_on_c, 0, 79, 55
2, 16357, Control_c, 0, 64, 0
2, 16376, Note_on_c, 0, 94, 0
2, 16379, Note_on_c, 0, 79, 0
2, 16398, Note_on_c, 0, 43, 54
2, 16401, Note_on_c, 0, 50, 54
2, 16404, Note_on_c, 0, 94, 58
2, 16409, Note_on_c, 0, 79, 57
2, 16439, Note_on_c, 0, 94, 0
2, 16442, Note_on_c, 0, 79, 0
2, 16451, Note_on_c, 0, 50, 0
2, 16456, Note_on_c, 0, 43, 0
2, 16462, Note_on_c, 0, 79, 57
2, 16462, Note_on_c, 0, 94, 60
2, 16498, Note_on_c, 0, 94, 0
2, 16501, Note_on_c, 0, 79, 0
2, 16528, Note_on_c, 0, 94, 59
2, 16531, Note_on_c, 0, 79, 58
2, 16545, Note_on_c, 0, 43, 54
2, 16545, Note_on_c, 0, 50, 54
2, 16561, Note_on_c, 0, 94, 0
2, 16564, Note_on_c, 0, 79, 0
2, 16570, Control_c, 0, 64, 127
2, 16660, Note_on_c, 0, 43, 0
2, 16676, Note_on_c, 0, 62, 54
2, 16679, Note_on_c, 0, 55, 54
2, 16696, Note_on_c, 0, 50, 0
2, 16728, Note_on_c, 0, 62, 0
2, 16734, Note_on_c, 0, 55, 0
2, 16814, Note_on_c, 0, 43, 54
2, 16830, Note_on_c, 0, 50, 54
2, 16833, Control_c, 0, 64, 0
2, 16915, Control_c, 0, 64, 127
2, 16976, Note_on_c, 0, 62, 54
2, 16979, Note_on_c, 0, 55, 54
2, 16982, Note_on_c, 0, 43, 0
2, 17039, Note_on_c, 0, 62, 0
2, 17045, Note_on_c, 0, 55, 0
2, 17045, Control_c, 0, 64, 0
2, 17116, Note_on_c, 0, 62, 53
2, 17119, Control_c, 0, 64, 127
2, 17119, Note_on_c, 0, 55, 54
2, 17122, Note_on_c, 0, 94, 57
2, 17125, Note_on_c, 0, 79, 55
2, 17154, Note_on_c, 0, 94, 0
2, 17157, Note_on_c, 0, 55, 0
2, 17157, Note_on_c, 0, 79, 0
2, 17157, Note_on_c, 0, 62, 0
2, 17174, Note_on_c, 0, 50, 0
2, 17182, Note_on_c, 0, 94, 57
2, 17188, Note_on_c, 0, 79, 55
2, 17221, Note_on_c, 0, 94, 0
2, 17224, Note_on_c, 0, 79, 0
2, 17240, Note_on_c, 0, 50, 54
2, 17246, Note_on_c, 0, 43, 54
2, 17246, Note_on_c, 0, 94, 57
2, 17248, Control_c, 0, 67, 0
2, 17254, Note_on_c, 0, 79, 58
2, 17276, Note_on_c, 0, 79, 0
2, 17276, Note_on_c, 0, 94, 0
2, 17296, Note_on_c, 0, 43, 0
2, 17296, Control_c, 0, 67, 127
2, 17304, Note_on_c, 0, 94, 57
2, 17310, Note_on_c, 0, 50, 0
2, 17310, Note_on_c, 0, 79, 56
2, 17340, Note_on_c, 0, 94, 0
2, 17340, Control_c, 0, 64, 0
2, 17343, Note_on_c, 0, 79, 0
2, 17370, Note_on_c, 0, 94, 58
2, 17373, Note_on_c, 0, 79, 58
2, 17392, Note_on_c, 0, 43, 54
2, 17395, Note_on_c, 0, 50, 54
2, 17404, Note_on_c, 0, 94, 0
2, 17413, Note_on_c, 0, 79, 0
2, 17432, Control_c, 0, 64, 127
2, 17514, Note_on_c, 0, 43, 0
2, 17531, Note_on_c, 0, 55, 54
2, 17531, Note_on_c, 0, 62, 54
2, 17575, Note_on_c, 0, 62, 0
2, 17588, Note_on_c, 0, 55, 0
2, 17618, Note_on_c, 0, 50, 0
2, 17681, Control_c, 0, 64, 0
2, 17684, Note_on_c, 0, 57, 54
2, 17684, Note_on_c, 0, 65, 67
2, 17690, Note_on_c, 0, 43, 54
2, 17690, Note_on_c, 0, 50, 54
2, 17699, Note_on_c, 0, 60, 53
2, 17734, Note_on_c, 0, 50, 0
2, 17740, Note_on_c, 0, 43, 0
2, 17839, Note_on_c, 0, 50, 54
2, 17839, Note_on_c, 0, 55, 54
2, 17877, Note_on_c, 0, 55, 0
2, 17886, Note_on_c, 0, 50, 0
2, 17963, Note_on_c, 0, 55, 54
2, 17979, Note_on_c, 0, 50, 54
2, 18004, Note_on_c, 0, 55, 0
2, 18007, Note_on_c, 0, 50, 0
2, 18112, Note_on_c, 0, 43, 54
2, 18117, Note_on_c, 0, 50, 54
2, 18161, Note_on_c, 0, 50, 0
2, 18161, Note_on_c, 0, 43, 0
2, 18178, Note_on_c, 0, 60, 0
2, 18188, Control_c, 0, 64, 127
2, 18240, Note_on_c, 0, 62, 58
2, 18249, Note_on_c, 0, 58, 58
2, 18262, Note_on_c, 0, 57, 0
2, 18262, Note_on_c, 0, 43, 56
2, 18262, Note_on_c, 0, 50, 55
2, 18273, Note_on_c, 0, 65, 0
2, 18295, Control_c, 0, 64, 0
2, 18308, Note_on_c, 0, 43, 0
2, 18308, Note_on_c, 0, 50, 0
2, 18382, Note_on_c, 0, 55, 53
2, 18385, Note_on_c, 0, 50, 54
2, 18429, Note_on_c, 0, 50, 0
2, 18429, Note_on_c, 0, 55, 0
2, 18459, Control_c, 0, 64, 127
2, 18495, Note_on_c, 0, 62, 0
2, 18495, Note_on_c, 0, 58, 0
2, 18520, Note_on_c, 0, 65, 70
2, 18528, Note_on_c, 0, 43, 54
2, 18528, Note_on_c, 0, 60, 54
2, 18531, Note_on_c, 0, 50, 53
2, 18531, Note_on_c, 0, 57, 54
2, 18550, Control_c, 0, 64, 0
2, 18575, Note_on_c, 0, 43, 0
2, 18578, Note_on_c, 0, 50, 0
2, 18665, Note_on_c, 0, 55, 54
2, 18668, Note_on_c, 0, 50, 54
2, 18712, Note_on_c, 0, 50, 0
2, 18712, Note_on_c, 0, 55, 0
2, 18808, Note_on_c, 0, 50, 53
2, 18808, Note_on_c, 0, 55, 54
2, 18850, Note_on_c, 0, 55, 0
2, 18858, Note_on_c, 0, 50, 0
2, 18952, Note_on_c, 0, 43, 54
2, 18954, Note_on_c, 0, 50, 54
2, 18990, Note_on_c, 0, 50, 0
2, 18993, Note_on_c, 0, 43, 0
2, 19015, Control_c, 0, 64, 127
2, 19053, Note_on_c, 0, 57, 0
2, 19053, Note_on_c, 0, 60, 0
2, 19053, Note_on_c, 0, 65, 0
2, 19072, Note_on_c, 0, 58, 56
2, 19072, Note_on_c, 0, 62, 55
2, 19086, Note_on_c, 0, 43, 54
2, 19086, Note_on_c, 0, 50, 54
2, 19102, Control_c, 0, 64, 0
2, 19116, Note_on_c, 0, 43, 0
2, 19119, Note_on_c, 0, 50, 0
2, 19209, Note_on_c, 0, 55, 56
2, 19219, Note_on_c, 0, 50, 54
2, 19265, Note_on_c, 0, 55, 0
2, 19274, Note_on_c, 0, 50, 0
2, 19342, Note_on_c, 0, 62, 0
2, 19342, Note_on_c, 0, 57, 54
2, 19345, Note_on_c, 0, 65, 65
2, 19354, Note_on_c, 0, 60, 54
2, 19360, Note_on_c, 0, 43, 54
2, 19360, Note_on_c, 0, 50, 54
2, 19368, Note_on_c, 0, 58, 0
2, 19420, Note_on_c, 0, 50, 0
2, 19423, Note_on_c, 0, 43, 0
2, 19491, Note_on_c, 0, 55, 54
2, 19494, Note_on_c, 0, 50, 54
2, 19535, Note_on_c, 0, 50, 0
2, 19544, Note_on_c, 0, 55, 0
2, 19566, Note_on_c, 0, 50, 54
2, 19591, Note_on_c, 0, 55, 54
2, 19619, Note_on_c, 0, 65, 0
2, 19622, Note_on_c, 0, 63, 58
2, 19654, Note_on_c, 0, 55, 0
2, 19657, Note_on_c, 0, 50, 0
2, 19663, Note_on_c, 0, 63, 0
2, 19663, Note_on_c, 0, 65, 59
2, 19709, Note_on_c, 0, 65, 0
2, 19709, Note_on_c, 0, 63, 56
2, 19718, Note_on_c, 0, 43, 59
2, 19720, Control_c, 0, 64, 127
2, 19723, Note_on_c, 0, 50, 61
2, 19756, Note_on_c, 0, 63, 0
2, 19756, Note_on_c, 0, 65, 62
2, 19769, Note_on_c, 0, 50, 0
2, 19772, Note_on_c, 0, 43, 0
2, 19789, Note_on_c, 0, 57, 0
2, 19797, Note_on_c, 0, 60, 0
2, 19803, Note_on_c, 0, 63, 59
2, 19814, Note_on_c, 0, 65, 0
2, 19822, Control_c, 0, 64, 0
2, 19841, Note_on_c, 0, 62, 61
2, 19844, Note_on_c, 0, 58, 62
2, 19853, Note_on_c, 0, 63, 0
2, 19859, Note_on_c, 0, 43, 63
2, 19859, Note_on_c, 0, 50, 63
2, 19903, Note_on_c, 0, 50, 0
2, 19903, Note_on_c, 0, 43, 0
2, 19996, Note_on_c, 0, 50, 57
2, 19996, Note_on_c, 0, 55, 54
2, 20040, Note_on_c, 0, 55, 0
2, 20040, Note_on_c, 0, 50, 0
2, 20141, Note_on_c, 0, 31, 53
2, 20141, Note_on_c, 0, 38, 54
2, 20185, Note_on_c, 0, 31, 0
2, 20286, Note_on_c, 0, 43, 54
2, 20286, Note_on_c, 0, 50, 54
2, 20330, Note_on_c, 0, 50, 0
2, 20330, Note_on_c, 0, 43, 0
2, 20420, Control_c, 0, 64, 127
2, 20423, Note_on_c, 0, 43, 54
2, 20423, Note_on_c, 0, 50, 54
2, 20456, Note_on_c, 0, 38, 0
2, 20466, Note_on_c, 0, 50, 0
2, 20475, Note_on_c, 0, 43, 0
2, 20511, Control_c, 0, 64, 0
2, 20557, Note_on_c, 0, 31, 54
2, 20560, Note_on_c, 0, 38, 54
2, 20625, Note_on_c, 0, 38, 0
2, 20625, Note_on_c, 0, 31, 0
2, 20693, Note_on_c, 0, 31, 53
2, 20693, Note_on_c, 0, 38, 54
2, 20737, Note_on_c, 0, 31, 0
2, 20770, Note_on_c, 0, 58, 0
2, 20776, Note_on_c, 0, 62, 0
2, 20827, Control_c, 0, 64, 127
2, 20827, Note_on_c, 0, 43, 54
2, 20830, Note_on_c, 0, 50, 53
2, 20872, Note_on_c, 0, 50, 0
2, 20880, Note_on_c, 0, 43, 0
2, 20894, Note_on_c, 0, 38, 0
2, 20981, Note_on_c, 0, 62, 53
2, 20981, Note_on_c, 0, 82, 57
2, 20981, Note_on_c, 0, 86, 56
2, 20987, Note_on_c, 0, 31, 54
2, 20987, Note_on_c, 0, 38, 54
2, 20990, Note_on_c, 0, 58, 53
2, 21031, Note_on_c, 0, 31, 0
2, 21121, Note_on_c, 0, 43, 54
2, 21124, Note_on_c, 0, 50, 54
2, 21182, Note_on_c, 0, 50, 0
2, 21182, Control_c, 0, 64, 0
2, 21198, Note_on_c, 0, 43, 0
2, 21253, Control_c, 0, 64, 127
2, 21261, Note_on_c, 0, 50, 54
2, 21264, Note_on_c, 0, 43, 54
2, 21294, Control_c, 0, 67, 0
2, 21297, Note_on_c, 0, 38, 0
2, 21307, Note_on_c, 0, 50, 0
2, 21316, Note_on_c, 0, 43, 0
2, 21403, Note_on_c, 0, 38, 57
2, 21412, Note_on_c, 0, 31, 57
2, 21456, Note_on_c, 0, 31, 0
2, 21459, Note_on_c, 0, 82, 0
2, 21459, Note_on_c, 0, 86, 0
2, 21462, Note_on_c, 0, 38, 0
2, 21542, Note_on_c, 0, 87, 62
2, 21544, Note_on_c, 0, 58, 0
2, 21544, Note_on_c, 0, 62, 0
2, 21544, Note_on_c, 0, 57, 62
2, 21544, Note_on_c, 0, 60, 61
2, 21544, Note_on_c, 0, 84, 65
2, 21550, Note_on_c, 0, 31, 61
2, 21550, Note_on_c, 0, 38, 62
2, 21589, Note_on_c, 0, 31, 0
2, 21682, Note_on_c, 0, 43, 58
2, 21682, Note_on_c, 0, 50, 57
2, 21728, Note_on_c, 0, 50, 0
2, 21736, Note_on_c, 0, 38, 0
2, 21736, Note_on_c, 0, 43, 0
2, 21778, Note_on_c, 0, 87, 0
2, 21778, Note_on_c, 0, 84, 0
2, 21794, Control_c, 0, 64, 0
2, 21810, Note_on_c, 0, 60, 0
2, 21810, Note_on_c, 0, 57, 0
2, 21810, Note_on_c, 0, 86, 64
2, 21810, Note_on_c, 0, 89, 65
2, 21816, Note_on_c, 0, 55, 59
2, 21816, Note_on_c, 0, 59, 60
2, 21825, Note_on_c, 0, 38, 61
2, 21828, Note_on_c, 0, 31, 62
2, 21893, Control_c, 0, 64, 127
2, 21896, Note_on_c, 0, 31, 0
2, 21934, Note_on_c, 0, 86, 0
2, 21934, Note_on_c, 0, 89, 0
2, 21948, Note_on_c, 0, 43, 57
2, 21953, Note_on_c, 0, 50, 57
2, 22002, Note_on_c, 0, 43, 0
2, 22005, Note_on_c, 0, 50, 0
2, 22011, Control_c, 0, 64, 0
2, 22055, Note_on_c, 0, 43, 57
2, 22066, Note_on_c, 0, 50, 59
2, 22082, Control_c, 0, 64, 127
2, 22085, Note_on_c, 0, 86, 77
2, 22085, Note_on_c, 0, 89, 77
2, 22101, Note_on_c, 0, 38, 0
2, 22126, Note_on_c, 0, 50, 0
2, 22135, Note_on_c, 0, 43, 0
2, 22222, Note_on_c, 0, 38, 61
2, 22231, Note_on_c, 0, 31, 61
2, 22261, Control_c, 0, 64, 0
2, 22271, Note_on_c, 0, 31, 0
2, 22282, Note_on_c, 0, 38, 0
2, 22317, Control_c, 0, 64, 127
2, 22350, Note_on_c, 0, 38, 61
2, 22356, Note_on_c, 0, 31, 61
2, 22397, Note_on_c, 0, 31, 0
2, 22479, Note_on_c, 0, 43, 61
2, 22479, Note_on_c, 0, 50, 61
2, 22489, Note_on_c, 0, 89, 0
2, 22489, Note_on_c, 0, 86, 0
2, 22505, Note_on_c, 0, 38, 0
2, 22522, Note_on_c, 0, 50, 0
2, 22532, Note_on_c, 0, 43, 0
2, 22541, Note_on_c, 0, 55, 0
2, 22541, Note_on_c, 0, 59, 0
2, 22603, Note_on_c, 0, 38, 60
2, 22606, Note_on_c, 0, 31, 61
2, 22612, Note_on_c, 0, 86, 69
2, 22615, Note_on_c, 0, 89, 69
2, 22621, Note_on_c, 0, 55, 63
2, 22621, Note_on_c, 0, 59, 64
2, 22664, Note_on_c, 0, 31, 0
2, 22768, Note_on_c, 0, 43, 61
2, 22768, Note_on_c, 0, 50, 61
2, 22828, Note_on_c, 0, 50, 0
2, 22850, Note_on_c, 0, 43, 0
2, 22850, Control_c, 0, 64, 0
2, 22899, Note_on_c, 0, 43, 60
2, 22899, Note_on_c, 0, 50, 61
2, 22921, Control_c, 0, 64, 127
2, 22924, Note_on_c, 0, 38, 0
2, 22949, Note_on_c, 0, 50, 0
2, 22960, Note_on_c, 0, 43, 0
2, 22995, Note_on_c, 0, 89, 0
2, 22998, Note_on_c, 0, 86, 0
2, 23033, Note_on_c, 0, 38, 61
2, 23042, Note_on_c, 0, 31, 61
2, 23053, Note_on_c, 0, 91, 64
2, 23056, Note_on_c, 0, 87, 63
2, 23104, Note_on_c, 0, 31, 0
2, 23104, Note_on_c, 0, 38, 0
2, 23124, Note_on_c, 0, 91, 0
2, 23124, Note_on_c, 0, 87, 0
2, 23170, Note_on_c, 0, 38, 61
2, 23173, Note_on_c, 0, 92, 70
2, 23173, Note_on_c, 0, 31, 61
2, 23176, Note_on_c, 0, 89, 71
2, 23198, Control_c, 0, 64, 0
2, 23224, Note_on_c, 0, 31, 0
2, 23227, Note_on_c, 0, 55, 0
2, 23244, Note_on_c, 0, 59, 0
2, 23260, Control_c, 0, 64, 127
2, 23303, Note_on_c, 0, 43, 65
2, 23306, Note_on_c, 0, 50, 65
2, 23333, Note_on_c, 0, 38, 0
2, 23346, Note_on_c, 0, 50, 0
2, 23357, Note_on_c, 0, 43, 0
2, 23403, Note_on_c, 0, 31, 67
2, 23403, Note_on_c, 0, 38, 66
2, 23409, Note_on_c, 0, 89, 0
2, 23412, Note_on_c, 0, 92, 0
2, 23428, Control_c, 0, 64, 0
2, 23428, Note_on_c, 0, 91, 69
2, 23431, Note_on_c, 0, 87, 69
2, 23464, Note_on_c, 0, 31, 0
2, 23483, Note_on_c, 0, 92, 71
2, 23486, Note_on_c, 0, 89, 73
2, 23491, Note_on_c, 0, 87, 0
2, 23491, Note_on_c, 0, 91, 0
2, 23527, Note_on_c, 0, 89, 0
2, 23530, Note_on_c, 0, 92, 0
2, 23530, Note_on_c, 0, 87, 77
2, 23530, Note_on_c, 0, 91, 77
2, 23536, Note_on_c, 0, 43, 57
2, 23538, Control_c, 0, 64, 127
2, 23538, Note_on_c, 0, 50, 57
2, 23577, Note_on_c, 0, 91, 0
2, 23577, Note_on_c, 0, 87, 0
2, 23585, Note_on_c, 0, 89, 76
2, 23585, Note_on_c, 0, 92, 77
2, 23588, Note_on_c, 0, 50, 0
2, 23602, Note_on_c, 0, 43, 0
2, 23627, Note_on_c, 0, 92, 0
2, 23627, Note_on_c, 0, 89, 0
2, 23630, Note_on_c, 0, 91, 76
2, 23632, Note_on_c, 0, 87, 77
2, 23665, Note_on_c, 0, 43, 57
2, 23679, Note_on_c, 0, 50, 57
2, 23681, Note_on_c, 0, 91, 0
2, 23684, Note_on_c, 0, 87, 0
2, 23684, Note_on_c, 0, 86, 77
2, 23687, Note_on_c, 0, 90, 76
2, 23690, Note_on_c, 0, 57, 60
2, 23690, Note_on_c, 0, 60, 61
2, 23712, Note_on_c, 0, 38, 0
2, 23712, Control_c, 0, 64, 0
2, 23723, Note_on_c, 0, 50, 0
2, 23736, Note_on_c, 0, 43, 0
2, 23769, Control_c, 0, 64, 127
2, 23824, Note_on_c, 0, 31, 60
2, 23826, Note_on_c, 0, 38, 61
2, 23870, Note_on_c, 0, 38, 0
2, 23870, Note_on_c, 0, 31, 0
2, 23899, Control_c, 0, 64, 0
2, 23954, Control_c, 0, 64, 127
2, 23957, Note_on_c, 0, 31, 61
2, 23957, Note_on_c, 0, 38, 61
2, 24003, Note_on_c, 0, 31, 0
2, 24082, Note_on_c, 0, 43, 61
2, 24082, Note_on_c, 0, 50, 61
2, 24092, Control_c, 0, 64, 0
2, 24109, Note_on_c, 0, 38, 0
2, 24122, Note_on_c, 0, 43, 0
2, 24122, Note_on_c, 0, 50, 0
2, 24144, Control_c, 0, 64, 127
2, 24218, Note_on_c, 0, 38, 57
2, 24229, Control_c, 0, 64, 0
2, 24232, Note_on_c, 0, 31, 57
2, 24303, Note_on_c, 0, 31, 0
2, 24357, Note_on_c, 0, 43, 57
2, 24357, Note_on_c, 0, 50, 57
2, 24366, Control_c, 0, 64, 127
2, 24399, Note_on_c, 0, 57, 0
2, 24407, Note_on_c, 0, 60, 0
2, 24410, Note_on_c, 0, 86, 0
2, 24410, Note_on_c, 0, 90, 0
2, 24426, Note_on_c, 0, 50, 0
2, 24429, Note_on_c, 0, 43, 0
2, 24468, Note_on_c, 0, 43, 58
2, 24476, Note_on_c, 0, 50, 62
2, 24490, Note_on_c, 0, 91, 68
2, 24493, Note_on_c, 0, 87, 69
2, 24498, Note_on_c, 0, 55, 64
2, 24501, Note_on_c, 0, 59, 65
2, 24540, Note_on_c, 0, 50, 0
2, 24545, Note_on_c, 0, 38, 0
2, 24545, Note_on_c, 0, 43, 0
2, 24621, Note_on_c, 0, 31, 65
2, 24621, Note_on_c, 0, 38, 58
2, 24640, Control_c, 0, 64, 0
2, 24689, Note_on_c, 0, 38, 0
2, 24689, Note_on_c, 0, 31, 0
2, 24698, Control_c, 0, 64, 127
2, 24728, Note_on_c, 0, 59, 0
2, 24731, Note_on_c, 0, 91, 0
2, 24731, Note_on_c, 0, 55, 0
2, 24731, Note_on_c, 0, 87, 0
2, 24750, Note_on_c, 0, 86, 107
2, 24753, Note_on_c, 0, 90, 105
2, 24756, Note_on_c, 0, 57, 78
2, 24756, Note_on_c, 0, 60, 79
2, 24759, Note_on_c, 0, 38, 80
2, 24785, Note_on_c, 0, 31, 83
2, 24802, Control_c, 0, 64, 0
2, 24824, Note_on_c, 0, 31, 0
2, 24881, Control_c, 0, 64, 127
2, 24881, Note_on_c, 0, 50, 75
2, 24892, Note_on_c, 0, 43, 74
2, 24908, Note_on_c, 0, 38, 0
2, 24919, Note_on_c, 0, 50, 0
2, 24941, Note_on_c, 0, 43, 0
2, 24966, Note_on_c, 0, 57, 0
2, 24975, Note_on_c, 0, 60, 0
2, 24977, Note_on_c, 0, 90, 0
2, 24980, Note_on_c, 0, 31, 65
2, 24983, Note_on_c, 0, 86, 0
2, 24992, Note_on_c, 0, 38, 64
2, 25008, Control_c, 0, 64, 0
2, 25014, Note_on_c, 0, 61, 62
2, 25017, Note_on_c, 0, 59, 64
2, 25020, Note_on_c, 0, 85, 65
2, 25020, Note_on_c, 0, 89, 66
2, 25063, Note_on_c, 0, 31, 0
2, 25076, Control_c, 0, 64, 127
2, 25082, Note_on_c, 0, 85, 0
2, 25085, Note_on_c, 0, 87, 60
2, 25085, Note_on_c, 0, 91, 59
2, 25091, Note_on_c, 0, 89, 0
2, 25132, Note_on_c, 0, 91, 0
2, 25132, Note_on_c, 0, 43, 72
2, 25135, Note_on_c, 0, 87, 0
2, 25138, Note_on_c, 0, 50, 69
2, 25138, Note_on_c, 0, 85, 64
2, 25138, Note_on_c, 0, 89, 65
2, 25181, Note_on_c, 0, 89, 0
2, 25181, Note_on_c, 0, 85, 0
2, 25192, Note_on_c, 0, 87, 68
2, 25192, Note_on_c, 0, 91, 69
2, 25205, Note_on_c, 0, 50, 0
2, 25218, Note_on_c, 0, 43, 0
2, 25235, Note_on_c, 0, 87, 0
2, 25248, Note_on_c, 0, 91, 0
2, 25248, Note_on_c, 0, 85, 72
2, 25248, Note_on_c, 0, 89, 74
2, 25262, Note_on_c, 0, 59, 0
2, 25267, Note_on_c, 0, 43, 64
2, 25276, Note_on_c, 0, 50, 65
2, 25279, Note_on_c, 0, 61, 0
2, 25306, Note_on_c, 0, 38, 0
2, 25306, Note_on_c, 0, 84, 78
2, 25309, Note_on_c, 0, 60, 69
2, 25309, Note_on_c, 0, 67, 76
2, 25312, Note_on_c, 0, 85, 0
2, 25312, Note_on_c, 0, 88, 81
2, 25320, Note_on_c, 0, 89, 0
2, 25329, Note_on_c, 0, 50, 0
2, 25339, Note_on_c, 0, 43, 0
2, 25430, Note_on_c, 0, 38, 69
2, 25440, Note_on_c, 0, 31, 57
2, 25481, Note_on_c, 0, 31, 0
2, 25492, Note_on_c, 0, 38, 0
2, 25547, Control_c, 0, 64, 0
2, 25552, Note_on_c, 0, 31, 57
2, 25552, Note_on_c, 0, 38, 57
2, 25607, Control_c, 0, 64, 127
2, 25610, Note_on_c, 0, 31, 0
2, 25692, Note_on_c, 0, 43, 57
2, 25705, Note_on_c, 0, 50, 57
2, 25732, Note_on_c, 0, 38, 0
2, 25743, Note_on_c, 0, 50, 0
2, 25756, Note_on_c, 0, 43, 0
2, 25762, Note_on_c, 0, 60, 0
2, 25786, Note_on_c, 0, 67, 0
2, 25805, Note_on_c, 0, 84, 0
2, 25805, Note_on_c, 0, 88, 0
2, 25840, Note_on_c, 0, 31, 57
2, 25843, Note_on_c, 0, 38, 57
2, 25849, Control_c, 0, 64, 0
2, 25912, Note_on_c, 0, 31, 0
2, 25938, Control_c, 0, 64, 127
2, 25974, Note_on_c, 0, 43, 57
2, 25987, Note_on_c, 0, 50, 57
2, 26036, Note_on_c, 0, 50, 0
2, 26036, Note_on_c, 0, 43, 0
2, 26077, Control_c, 0, 64, 0
2, 26084, Note_on_c, 0, 43, 57
2, 26095, Note_on_c, 0, 50, 57
2, 26105, Note_on_c, 0, 85, 69
2, 26105, Note_on_c, 0, 89, 69
2, 26108, Note_on_c, 0, 59, 60
2, 26111, Note_on_c, 0, 61, 61
2, 26128, Control_c, 0, 64, 127
2, 26144, Note_on_c, 0, 38, 0
2, 26152, Note_on_c, 0, 50, 0
2, 26162, Note_on_c, 0, 43, 0
2, 26244, Note_on_c, 0, 38, 57
2, 26251, Note_on_c, 0, 31, 57
2, 26306, Note_on_c, 0, 31, 0
2, 26306, Note_on_c, 0, 38, 0
2, 26358, Note_on_c, 0, 89, 0
2, 26361, Note_on_c, 0, 85, 0
2, 26367, Control_c, 0, 64, 0
2, 26374, Note_on_c, 0, 59, 0
2, 26374, Note_on_c, 0, 84, 60
2, 26377, Note_on_c, 0, 87, 59
2, 26380, Note_on_c, 0, 60, 57
2, 26383, Note_on_c, 0, 61, 0
2, 26383, Note_on_c, 0, 67, 57
2, 26391, Note_on_c, 0, 38, 56
2, 26393, Note_on_c, 0, 31, 57
2, 26437, Note_on_c, 0, 31, 0
2, 26491, Control_c, 0, 64, 127
2, 26537, Note_on_c, 0, 43, 57
2, 26537, Note_on_c, 0, 50, 57
2, 26581, Control_c, 0, 67, 127
2, 26588, Note_on_c, 0, 50, 0
2, 26594, Note_on_c, 0, 43, 0
2, 26624, Control_c, 0, 64, 0
2, 26648, Note_on_c, 0, 84, 0
2, 26648, Note_on_c, 0, 87, 0
2, 26661, Note_on_c, 0, 38, 0
2, 26661, Note_on_c, 0, 67, 0
2, 26661, Note_on_c, 0, 62, 54
2, 26661, Note_on_c, 0, 82, 61
2, 26661, Note_on_c, 0, 86, 62
2, 26664, Note_on_c, 0, 60, 0
2, 26680, Note_on_c, 0, 31, 55
2, 26686, Note_on_c, 0, 38, 56
2, 26743, Note_on_c, 0, 31, 0
2, 26781, Control_c, 0, 64, 127
2, 26808, Note_on_c, 0, 43, 54
2, 26819, Note_on_c, 0, 50, 54
2, 26857, Note_on_c, 0, 50, 0
2, 26868, Note_on_c, 0, 43, 0
2, 26949, Note_on_c, 0, 43, 54
2, 26963, Control_c, 0, 64, 0
2, 26966, Note_on_c, 0, 50, 54
2, 26990, Note_on_c, 0, 38, 0
2, 27000, Note_on_c, 0, 50, 0
2, 27016, Note_on_c, 0, 43, 0
2, 27019, Control_c, 0, 64, 127
2, 27101, Note_on_c, 0, 38, 54
2, 27112, Note_on_c, 0, 31, 54
2, 27122, Note_on_c, 0, 62, 0
2, 27125, Note_on_c, 0, 86, 0
2, 27125, Note_on_c, 0, 82, 0
2, 27152, Note_on_c, 0, 38, 0
2, 27160, Note_on_c, 0, 31, 0
2, 27238, Note_on_c, 0, 31, 54
2, 27238, Note_on_c, 0, 38, 54
2, 27274, Note_on_c, 0, 31, 0
2, 27372, Note_on_c, 0, 43, 54
2, 27372, Note_on_c, 0, 50, 54
2, 27407, Note_on_c, 0, 50, 0
2, 27413, Note_on_c, 0, 43, 0
2, 27465, Note_on_c, 0, 38, 0
2, 27505, Note_on_c, 0, 62, 54
2, 27505, Note_on_c, 0, 70, 55
2, 27508, Note_on_c, 0, 58, 53
2, 27511, Control_c, 0, 64, 0
2, 27514, Note_on_c, 0, 67, 54
2, 27521, Note_on_c, 0, 31, 54
2, 27529, Note_on_c, 0, 38, 54
2, 27643, Note_on_c, 0, 43, 53
2, 27646, Control_c, 0, 64, 127
2, 27646, Note_on_c, 0, 50, 54
2, 27701, Note_on_c, 0, 31, 0
2, 27707, Note_on_c, 0, 50, 0
2, 27707, Note_on_c, 0, 43, 0
2, 27772, Note_on_c, 0, 43, 53
2, 27780, Note_on_c, 0, 50, 54
2, 27790, Control_c, 0, 64, 0
2, 27826, Note_on_c, 0, 38, 0
2, 27891, Note_on_c, 0, 43, 0
2, 27899, Note_on_c, 0, 50, 0
2, 27906, Note_on_c, 0, 38, 54
2, 27923, Note_on_c, 0, 31, 54
2, 27969, Note_on_c, 0, 31, 0
2, 27976, Note_on_c, 0, 38, 0
2, 27979, Note_on_c, 0, 62, 0
2, 27979, Note_on_c, 0, 67, 0
2, 27979, Note_on_c, 0, 70, 0
2, 27979, Note_on_c, 0, 58, 0
2, 27993, Control_c, 0, 64, 127
2, 28058, Note_on_c, 0, 73, 56
2, 28061, Note_on_c, 0, 69, 59
2, 28067, Note_on_c, 0, 31, 58
2, 28070, Note_on_c, 0, 57, 59
2, 28070, Note_on_c, 0, 61, 59
2, 28075, Note_on_c, 0, 38, 58
2, 28102, Control_c, 0, 64, 0
2, 28116, Note_on_c, 0, 31, 0
2, 28189, Control_c, 0, 64, 127
2, 28196, Note_on_c, 0, 43, 54
2, 28196, Note_on_c, 0, 50, 54
2, 28237, Note_on_c, 0, 50, 0
2, 28259, Note_on_c, 0, 43, 0
2, 28283, Note_on_c, 0, 38, 0
2, 28307, Note_on_c, 0, 73, 0
2, 28307, Note_on_c, 0, 61, 0
2, 28307, Note_on_c, 0, 69, 0
2, 28312, Note_on_c, 0, 57, 0
2, 28326, Control_c, 0, 64, 0
2, 28329, Note_on_c, 0, 58, 56
2, 28329, Note_on_c, 0, 74, 60
2, 28335, Note_on_c, 0, 55, 57
2, 28337, Note_on_c, 0, 70, 60
2, 28345, Note_on_c, 0, 31, 58
2, 28345, Note_on_c, 0, 38, 59
2, 28413, Control_c, 0, 64, 127
2, 28479, Note_on_c, 0, 50, 54
2, 28481, Note_on_c, 0, 31, 0
2, 28481, Note_on_c, 0, 43, 54
2, 28498, Control_c, 0, 64, 0
2, 28508, Note_on_c, 0, 70, 0
2, 28508, Note_on_c, 0, 74, 0
2, 28541, Note_on_c, 0, 50, 0
2, 28541, Note_on_c, 0, 43, 0
2, 28598, Note_on_c, 0, 43, 53
2, 28608, Note_on_c, 0, 50, 54
2, 28632, Note_on_c, 0, 74, 63
2, 28640, Note_on_c, 0, 70, 64
2, 28650, Note_on_c, 0, 38, 0
2, 28650, Control_c, 0, 64, 127
2, 28658, Note_on_c, 0, 50, 0
2, 28666, Note_on_c, 0, 43, 0
2, 28764, Note_on_c, 0, 31, 54
2, 28764, Note_on_c, 0, 38, 54
2, 28788, Control_c, 0, 67, 0
2, 28831, Note_on_c, 0, 31, 0
2, 28834, Note_on_c, 0, 38, 0
2, 28896, Note_on_c, 0, 31, 57
2, 28896, Note_on_c, 0, 38, 57
2, 28956, Note_on_c, 0, 31, 0
2, 29018, Note_on_c, 0, 43, 57
2, 29029, Note_on_c, 0, 50, 57
2, 29042, Note_on_c, 0, 38, 0
2, 29066, Note_on_c, 0, 50, 0
2, 29080, Note_on_c, 0, 70, 0
2, 29080, Note_on_c, 0, 43, 0
2, 29087, Note_on_c, 0, 74, 0
2, 29141, Note_on_c, 0, 38, 57
2, 29149, Note_on_c, 0, 31, 57
2, 29152, Control_c, 0, 64, 0
2, 29162, Note_on_c, 0, 74, 64
2, 29170, Note_on_c, 0, 70, 65
2, 29210, Control_c, 0, 64, 127
2, 29226, Note_on_c, 0, 31, 0
2, 29289, Note_on_c, 0, 43, 56
2, 29296, Note_on_c, 0, 50, 59
2, 29367, Note_on_c, 0, 50, 0
2, 29367, Note_on_c, 0, 43, 0
2, 29396, Note_on_c, 0, 70, 0
2, 29396, Note_on_c, 0, 58, 0
2, 29396, Note_on_c, 0, 55, 0
2, 29404, Note_on_c, 0, 74, 0
2, 29410, Note_on_c, 0, 43, 61
2, 29410, Note_on_c, 0, 50, 61
2, 29420, Note_on_c, 0, 38, 0
2, 29469, Note_on_c, 0, 50, 0
2, 29483, Note_on_c, 0, 43, 0
2, 29536, Note_on_c, 0, 31, 61
2, 29536, Note_on_c, 0, 38, 61
2, 29566, Note_on_c, 0, 72, 68
2, 29566, Note_on_c, 0, 75, 71
2, 29607, Note_on_c, 0, 38, 0
2, 29607, Note_on_c, 0, 31, 0
2, 29647, Note_on_c, 0, 75, 0
2, 29653, Note_on_c, 0, 31, 61
2, 29653, Note_on_c, 0, 38, 61
2, 29672, Note_on_c, 0, 77, 73
2, 29675, Note_on_c, 0, 72, 0
2, 29685, Note_on_c, 0, 74, 76
2, 29715, Control_c, 0, 64, 0
2, 29721, Note_on_c, 0, 31, 0
2, 29797, Note_on_c, 0, 43, 61
2, 29797, Note_on_c, 0, 50, 61
2, 29846, Note_on_c, 0, 50, 0
2, 29853, Note_on_c, 0, 43, 0
2, 29867, Control_c, 0, 64, 127
2, 29874, Note_on_c, 0, 31, 61
2, 29891, Note_on_c, 0, 74, 0
2, 29898, Note_on_c, 0, 77, 0
2, 29925, Note_on_c, 0, 75, 64
2, 29933, Note_on_c, 0, 72, 66
2, 29936, Note_on_c, 0, 54, 68
2, 29936, Note_on_c, 0, 57, 69
2, 29960, Note_on_c, 0, 31, 0
2, 29963, Control_c, 0, 64, 0
2, 29998, Note_on_c, 0, 75, 0
2, 29998, Note_on_c, 0, 77, 70
2, 30006, Note_on_c, 0, 72, 0
2, 30009, Note_on_c, 0, 74, 72
2, 30058, Note_on_c, 0, 74, 0
2, 30058, Note_on_c, 0, 43, 63
2, 30058, Note_on_c, 0, 50, 61
2, 30061, Note_on_c, 0, 72, 75
2, 30061, Note_on_c, 0, 75, 75
2, 30077, Note_on_c, 0, 77, 0
2, 30083, Control_c, 0, 64, 127
2, 30112, Note_on_c, 0, 75, 0
2, 30112, Note_on_c, 0, 72, 0
2, 30115, Note_on_c, 0, 77, 74
2, 30118, Note_on_c, 0, 74, 75
2, 30135, Note_on_c, 0, 43, 0
2, 30135, Note_on_c, 0, 50, 0
2, 30159, Note_on_c, 0, 72, 74
2, 30159, Note_on_c, 0, 75, 75
2, 30164, Note_on_c, 0, 54, 0
2, 30164, Note_on_c, 0, 74, 0
2, 30172, Note_on_c, 0, 77, 0
2, 30178, Note_on_c, 0, 57, 0
2, 30191, Control_c, 0, 64, 0
2, 30194, Note_on_c, 0, 72, 0
2, 30194, Note_on_c, 0, 75, 0
2, 30202, Note_on_c, 0, 55, 61
2, 30202, Note_on_c, 0, 58, 61
2, 30202, Note_on_c, 0, 70, 75
2, 30202, Note_on_c, 0, 74, 76
2, 30208, Note_on_c, 0, 43, 60
2, 30208, Note_on_c, 0, 50, 61
2, 30215, Note_on_c, 0, 38, 0
2, 30253, Note_on_c, 0, 50, 0
2, 30260, Note_on_c, 0, 43, 0
2, 30323, Control_c, 0, 64, 127
2, 30328, Note_on_c, 0, 31, 53
2, 30328, Note_on_c, 0, 38, 52
2, 30382, Note_on_c, 0, 38, 0
2, 30390, Note_on_c, 0, 31, 0
2, 30463, Note_on_c, 0, 38, 50
2, 30466, Note_on_c, 0, 31, 46
2, 30509, Note_on_c, 0, 31, 0
2, 30598, Control_c, 0, 64, 0
2, 30601, Note_on_c, 0, 43, 57
2, 30601, Note_on_c, 0, 50, 57
2, 30620, Note_on_c, 0, 38, 0
2, 30644, Note_on_c, 0, 50, 0
2, 30655, Note_on_c, 0, 43, 0
2, 30655, Control_c, 0, 64, 127
2, 30736, Note_on_c, 0, 38, 56
2, 30739, Control_c, 0, 64, 0
2, 30750, Note_on_c, 0, 31, 57
2, 30833, Note_on_c, 0, 31, 0
2, 30841, Control_c, 0, 64, 127
2, 30849, Note_on_c, 0, 55, 0
2, 30868, Note_on_c, 0, 58, 0
2, 30881, Note_on_c, 0, 43, 57
2, 30881, Note_on_c, 0, 50, 57
2, 30941, Note_on_c, 0, 74, 0
2, 30944, Note_on_c, 0, 50, 0
2, 30950, Note_on_c, 0, 70, 0
2, 30955, Note_on_c, 0, 43, 0
2, 31004, Note_on_c, 0, 43, 57
2, 31012, Note_on_c, 0, 50, 57
2, 31012, Note_on_c, 0, 75, 66
2, 31020, Note_on_c, 0, 38, 0
2, 31027, Note_on_c, 0, 54, 59
2, 31027, Note_on_c, 0, 57, 60
2, 31027, Note_on_c, 0, 72, 68
2, 31047, Note_on_c, 0, 50, 0
2, 31073, Note_on_c, 0, 43, 0
2, 31122, Control_c, 0, 64, 0
2, 31142, Note_on_c, 0, 31, 57
2, 31142, Note_on_c, 0, 38, 57
2, 31204, Note_on_c, 0, 38, 0
2, 31204, Note_on_c, 0, 31, 0
2, 31256, Note_on_c, 0, 57, 0
2, 31266, Note_on_c, 0, 54, 0
2, 31280, Note_on_c, 0, 31, 57
2, 31283, Note_on_c, 0, 72, 0
2, 31283, Note_on_c, 0, 75, 0
2, 31286, Note_on_c, 0, 70, 74
2, 31286, Note_on_c, 0, 74, 75
2, 31288, Note_on_c, 0, 55, 60
2, 31288, Note_on_c, 0, 58, 61
2, 31291, Note_on_c, 0, 38, 62
2, 31364, Control_c, 0, 64, 127
2, 31418, Note_on_c, 0, 38, 0
2, 31418, Note_on_c, 0, 31, 0
2, 31418, Note_on_c, 0, 43, 56
2, 31418, Note_on_c, 0, 50, 57
2, 31458, Note_on_c, 0, 50, 0
2, 31464, Note_on_c, 0, 43, 0
2, 31494, Control_c, 0, 64, 0
2, 31494, Note_on_c, 0, 31, 61
2, 31494, Note_on_c, 0, 38, 62
2, 31527, Note_on_c, 0, 58, 0
2, 31527, Note_on_c, 0, 55, 0
2, 31527, Note_on_c, 0, 57, 65
2, 31527, Note_on_c, 0, 61, 65
2, 31532, Note_on_c, 0, 69, 67
2, 31532, Note_on_c, 0, 73, 67
2, 31540, Note_on_c, 0, 70, 0
2, 31551, Note_on_c, 0, 74, 0
2, 31588, Note_on_c, 0, 31, 0
2, 31596, Control_c, 0, 64, 127
2, 31612, Note_on_c, 0, 74, 67
2, 31615, Note_on_c, 0, 73, 0
2, 31615, Note_on_c, 0, 69, 0
2, 31618, Note_on_c, 0, 70, 66
2, 31667, Note_on_c, 0, 70, 0
2, 31670, Note_on_c, 0, 73, 67
2, 31672, Note_on_c, 0, 69, 67
2, 31675, Note_on_c, 0, 43, 57
2, 31675, Note_on_c, 0, 50, 57
2, 31683, Note_on_c, 0, 74, 0
2, 31719, Note_on_c, 0, 70, 66
2, 31721, Note_on_c, 0, 69, 0
2, 31724, Note_on_c, 0, 74, 67
2, 31727, Note_on_c, 0, 73, 0
2, 31757, Note_on_c, 0, 69, 69
2, 31757, Note_on_c, 0, 73, 71
2, 31773, Note_on_c, 0, 70, 0
2, 31776, Note_on_c, 0, 74, 0
2, 31776, Note_on_c, 0, 61, 0
2, 31776, Note_on_c, 0, 57, 0
2, 31779, Control_c, 0, 64, 0
2, 31806, Note_on_c, 0, 73, 0
2, 31806, Note_on_c, 0, 69, 0
2, 31809, Note_on_c, 0, 60, 73
2, 31812, Note_on_c, 0, 50, 0
2, 31812, Note_on_c, 0, 63, 77
2, 31812, Note_on_c, 0, 72, 78
2, 31819, Note_on_c, 0, 68, 78
2, 31830, Note_on_c, 0, 50, 78
2, 31873, Note_on_c, 0, 38, 0
2, 31873, Control_c, 0, 64, 127
2, 31884, Control_c, 0, 67, 127
2, 31943, Note_on_c, 0, 43, 0
2, 31943, Note_on_c, 0, 50, 0
2, 31957, Note_on_c, 0, 31, 60
2, 31957, Note_on_c, 0, 38, 59
2, 31989, Note_on_c, 0, 31, 0
2, 31997, Note_on_c, 0, 38, 0
2, 32073, Control_c, 0, 64, 0
2, 32083, Note_on_c, 0, 31, 44
2, 32086, Note_on_c, 0, 38, 43
2, 32124, Note_on_c, 0, 31, 0
2, 32153, Control_c, 0, 64, 127
2, 32216, Note_on_c, 0, 43, 50
2, 32216, Note_on_c, 0, 50, 53
2, 32259, Note_on_c, 0, 50, 0
2, 32272, Note_on_c, 0, 43, 0
2, 32295, Note_on_c, 0, 38, 0
2, 32351, Control_c, 0, 64, 0
2, 32359, Note_on_c, 0, 38, 54
2, 32369, Note_on_c, 0, 31, 54
2, 32423, Note_on_c, 0, 31, 0
2, 32477, Control_c, 0, 64, 127
2, 32499, Note_on_c, 0, 43, 54
2, 32499, Note_on_c, 0, 50, 54
2, 32510, Note_on_c, 0, 60, 0
2, 32534, Note_on_c, 0, 63, 0
2, 32563, Note_on_c, 0, 50, 0
2, 32577, Note_on_c, 0, 43, 0
2, 32580, Note_on_c, 0, 72, 0
2, 32583, Note_on_c, 0, 68, 0
2, 32626, Note_on_c, 0, 57, 53
2, 32629, Note_on_c, 0, 73, 55
2, 32632, Note_on_c, 0, 61, 54
2, 32639, Note_on_c, 0, 43, 54
2, 32639, Note_on_c, 0, 50, 54
2, 32639, Note_on_c, 0, 69, 55
2, 32642, Control_c, 0, 64, 0
2, 32666, Note_on_c, 0, 38, 0
2, 32677, Note_on_c, 0, 50, 0
2, 32687, Note_on_c, 0, 43, 0
2, 32760, Control_c, 0, 64, 127
2, 32779, Note_on_c, 0, 31, 54
2, 32779, Note_on_c, 0, 38, 54
2, 32825, Note_on_c, 0, 38, 0
2, 32825, Note_on_c, 0, 31, 0
2, 32866, Note_on_c, 0, 73, 0
2, 32869, Note_on_c, 0, 69, 0
2, 32872, Note_on_c, 0, 61, 0
2, 32872, Note_on_c, 0, 57, 0
2, 32882, Control_c, 0, 64, 0
2, 32901, Note_on_c, 0, 60, 53
2, 32901, Note_on_c, 0, 63, 54
2, 32901, Note_on_c, 0, 72, 55
2, 32912, Note_on_c, 0, 38, 53
2, 32912, Note_on_c, 0, 68, 54
2, 32915, Note_on_c, 0, 31, 54
2, 32991, Control_c, 0, 64, 127
2, 33044, Note_on_c, 0, 43, 54
2, 33044, Note_on_c, 0, 50, 54
2, 33061, Note_on_c, 0, 31, 0
2, 33061, Note_on_c, 0, 38, 0
2, 33085, Note_on_c, 0, 50, 0
2, 33092, Note_on_c, 0, 43, 0
2, 33125, Note_on_c, 0, 72, 0
2, 33125, Note_on_c, 0, 68, 0
2, 33131, Note_on_c, 0, 63, 0
2, 33131, Note_on_c, 0, 60, 0
2, 33177, Note_on_c, 0, 62, 56
2, 33177, Note_on_c, 0, 67, 57
2, 33177, Note_on_c, 0, 71, 59
2, 33183, Control_c, 0, 64, 0
2, 33190, Note_on_c, 0, 31, 59
2, 33190, Note_on_c, 0, 38, 59
2, 33304, Control_c, 0, 64, 127
2, 33317, Note_on_c, 0, 43, 54
2, 33317, Note_on_c, 0, 50, 54
2, 33357, Note_on_c, 0, 50, 0
2, 33360, Note_on_c, 0, 31, 0
2, 33371, Note_on_c, 0, 43, 0
2, 33411, Control_c, 0, 64, 0
2, 33454, Note_on_c, 0, 43, 54
2, 33457, Note_on_c, 0, 50, 54
2, 33471, Note_on_c, 0, 38, 0
2, 33497, Note_on_c, 0, 50, 0
2, 33500, Control_c, 0, 64, 127
2, 33514, Note_on_c, 0, 43, 0
2, 33603, Note_on_c, 0, 38, 54
2, 33606, Note_on_c, 0, 31, 54
2, 33646, Control_c, 0, 64, 0
2, 33649, Note_on_c, 0, 31, 0
2, 33649, Note_on_c, 0, 38, 0
2, 33706, Control_c, 0, 64, 127
2, 33743, Control_c, 0, 64, 0
2, 33751, Note_on_c, 0, 31, 54
2, 33754, Note_on_c, 0, 38, 54
2, 33840, Control_c, 0, 64, 127
2, 33876, Control_c, 0, 64, 0
2, 33876, Note_on_c, 0, 50, 54
2, 33879, Note_on_c, 0, 43, 53
2, 33908, Note_on_c, 0, 50, 0
2, 33922, Note_on_c, 0, 43, 0
2, 33941, Note_on_c, 0, 31, 0
2, 33941, Control_c, 0, 64, 127
2, 33960, Note_on_c, 0, 38, 0
2, 34020, Note_on_c, 0, 31, 54
2, 34020, Note_on_c, 0, 38, 54
2, 34023, Control_c, 0, 64, 0
2, 34163, Note_on_c, 0, 50, 54
2, 34170, Control_c, 0, 64, 127
2, 34173, Note_on_c, 0, 43, 54
2, 34206, Note_on_c, 0, 50, 0
2, 34216, Note_on_c, 0, 43, 0
2, 34219, Note_on_c, 0, 31, 0
2, 34297, Note_on_c, 0, 43, 54
2, 34297, Note_on_c, 0, 50, 54
2, 34313, Note_on_c, 0, 38, 0
2, 34337, Note_on_c, 0, 43, 0
2, 34337, Note_on_c, 0, 50, 0
2, 34370, Control_c, 0, 64, 0
2, 34410, Control_c, 0, 64, 127
2, 34440, Note_on_c, 0, 31, 54
2, 34440, Note_on_c, 0, 38, 54
2, 34473, Note_on_c, 0, 31, 0
2, 34480, Note_on_c, 0, 38, 0
2, 34572, Note_on_c, 0, 31, 54
2, 34575, Note_on_c, 0, 38, 54
2, 34718, Note_on_c, 0, 71, 0
2, 34720, Note_on_c, 0, 43, 54
2, 34720, Note_on_c, 0, 50, 54
2, 34734, Note_on_c, 0, 31, 0
2, 34761, Note_on_c, 0, 43, 0
2, 34761, Note_on_c, 0, 50, 0
2, 34798, Note_on_c, 0, 38, 0
2, 34809, Control_c, 0, 64, 0
2, 34819, Note_on_c, 0, 70, 52
2, 34863, Note_on_c, 0, 70, 0
2, 34892, Note_on_c, 0, 38, 54
2, 34892, Note_on_c, 0, 70, 51
2, 34900, Note_on_c, 0, 31, 54
2, 34943, Control_c, 0, 64, 127
2, 34954, Note_on_c, 0, 67, 0
2, 34954, Note_on_c, 0, 62, 0
2, 35027, Note_on_c, 0, 43, 54
2, 35027, Note_on_c, 0, 50, 54
2, 35037, Note_on_c, 0, 70, 0
2, 35048, Note_on_c, 0, 31, 0
2, 35075, Note_on_c, 0, 50, 0
2, 35088, Note_on_c, 0, 43, 0
2, 35151, Note_on_c, 0, 43, 54
2, 35151, Note_on_c, 0, 50, 54
2, 35151, Note_on_c, 0, 94, 57
2, 35158, Note_on_c, 0, 62, 53
2, 35158, Note_on_c, 0, 79, 55
2, 35169, Note_on_c, 0, 38, 0
2, 35185, Note_on_c, 0, 94, 0
2, 35191, Note_on_c, 0, 62, 0
2, 35191, Note_on_c, 0, 50, 0
2, 35191, Note_on_c, 0, 79, 0
2, 35194, Note_on_c, 0, 43, 0
2, 35213, Note_on_c, 0, 94, 56
2, 35216, Note_on_c, 0, 62, 54
2, 35222, Note_on_c, 0, 79, 55
2, 35251, Note_on_c, 0, 94, 0
2, 35254, Note_on_c, 0, 79, 0
2, 35254, Note_on_c, 0, 62, 0
2, 35275, Note_on_c, 0, 94, 57
2, 35278, Note_on_c, 0, 31, 54
2, 35278, Note_on_c, 0, 38, 54
2, 35281, Note_on_c, 0, 62, 53
2, 35284, Note_on_c, 0, 79, 55
2, 35311, Note_on_c, 0, 94, 0
2, 35314, Note_on_c, 0, 79, 0
2, 35320, Note_on_c, 0, 31, 0
2, 35320, Note_on_c, 0, 62, 0
2, 35339, Note_on_c, 0, 94, 57
2, 35342, Note_on_c, 0, 38, 0
2, 35344, Note_on_c, 0, 62, 54
2, 35344, Note_on_c, 0, 79, 57
2, 35371, Note_on_c, 0, 94, 0
2, 35377, Note_on_c, 0, 79, 0
2, 35380, Note_on_c, 0, 62, 0
2, 35401, Note_on_c, 0, 94, 59
2, 35407, Note_on_c, 0, 62, 54
2, 35407, Note_on_c, 0, 79, 58
2, 35431, Note_on_c, 0, 31, 54
2, 35431, Note_on_c, 0, 38, 54
2, 35444, Note_on_c, 0, 79, 0
2, 35450, Note_on_c, 0, 62, 0
2, 35456, Note_on_c, 0, 94, 0
2, 35518, Control_c, 0, 64, 0
2, 35559, Note_on_c, 0, 43, 54
2, 35559, Note_on_c, 0, 50, 54
2, 35593, Note_on_c, 0, 31, 0
2, 35609, Note_on_c, 0, 50, 0
2, 35609, Note_on_c, 0, 43, 0
2, 35612, Note_on_c, 0, 38, 0
2, 35629, Control_c, 0, 64, 127
2, 35699, Note_on_c, 0, 31, 54
2, 35699, Note_on_c, 0, 38, 54
2, 35752, Note_on_c, 0, 31, 0
2, 35839, Note_on_c, 0, 43, 54
2, 35839, Note_on_c, 0, 50, 54
2, 35903, Note_on_c, 0, 38, 0
2, 35906, Note_on_c, 0, 50, 0
2, 35906, Note_on_c, 0, 43, 0
2, 35970, Note_on_c, 0, 94, 56
2, 35973, Note_on_c, 0, 62, 54
2, 35973, Note_on_c, 0, 79, 55
2, 35981, Note_on_c, 0, 43, 54
2, 35981, Note_on_c, 0, 50, 54
2, 36011, Note_on_c, 0, 62, 0
2, 36011, Note_on_c, 0, 94, 0
2, 36014, Note_on_c, 0, 79, 0
2, 36021, Note_on_c, 0, 43, 0
2, 36021, Note_on_c, 0, 50, 0
2, 36040, Note_on_c, 0, 94, 56
2, 36043, Note_on_c, 0, 62, 54
2, 36046, Note_on_c, 0, 79, 55
2, 36076, Note_on_c, 0, 94, 0
2, 36079, Note_on_c, 0, 79, 0
2, 36085, Note_on_c, 0, 62, 0
2, 36101, Note_on_c, 0, 94, 56
2, 36107, Note_on_c, 0, 62, 54
2, 36107, Note_on_c, 0, 79, 55
2, 36128, Note_on_c, 0, 31, 54
2, 36128, Note_on_c, 0, 38, 54
2, 36136, Note_on_c, 0, 94, 0
2, 36138, Note_on_c, 0, 79, 0
2, 36144, Note_on_c, 0, 62, 0
2, 36163, Note_on_c, 0, 94, 57
2, 36166, Note_on_c, 0, 38, 0
2, 36166, Note_on_c, 0, 31, 0
2, 36169, Note_on_c, 0, 62, 53
2, 36169, Note_on_c, 0, 79, 57
2, 36199, Note_on_c, 0, 94, 0
2, 36202, Note_on_c, 0, 79, 0
2, 36208, Note_on_c, 0, 62, 0
2, 36227, Note_on_c, 0, 94, 59
2, 36230, Note_on_c, 0, 79, 58
2, 36232, Note_on_c, 0, 62, 54
2, 36270, Note_on_c, 0, 94, 0
2, 36276, Note_on_c, 0, 31, 54
2, 36276, Note_on_c, 0, 38, 54
2, 36281, Note_on_c, 0, 79, 0
2, 36287, Note_on_c, 0, 62, 0
2, 36320, Note_on_c, 0, 31, 0
2, 36347, Note_on_c, 0, 38, 0
2, 36393, Control_c, 0, 67, 0
2, 36399, Note_on_c, 0, 50, 57
2, 36476, Note_on_c, 0, 50, 0
2, 36533, Note_on_c, 0, 57, 57
2, 36533, Note_on_c, 0, 60, 57
2, 36533, Note_on_c, 0, 65, 74
2, 36546, Note_on_c, 0, 43, 56
2, 36549, Note_on_c, 0, 50, 57
2, 36582, Control_c, 0, 64, 0
2, 36588, Note_on_c, 0, 43, 0
2, 36595, Note_on_c, 0, 50, 0
2, 36687, Note_on_c, 0, 55, 57
2, 36689, Note_on_c, 0, 50, 57
2, 36716, Note_on_c, 0, 50, 0
2, 36719, Note_on_c, 0, 55, 0
2, 36821, Note_on_c, 0, 55, 57
2, 36829, Note_on_c, 0, 50, 57
2, 36858, Note_on_c, 0, 55, 0
2, 36861, Note_on_c, 0, 50, 0
2, 36952, Note_on_c, 0, 43, 57
2, 36952, Note_on_c, 0, 50, 57
2, 36979, Control_c, 0, 64, 127
2, 37006, Note_on_c, 0, 43, 0
2, 37014, Note_on_c, 0, 50, 0
2, 37038, Note_on_c, 0, 60, 0
2, 37054, Note_on_c, 0, 65, 0
2, 37054, Note_on_c, 0, 57, 0
2, 37089, Control_c, 0, 64, 0
2, 37092, Note_on_c, 0, 62, 55
2, 37102, Note_on_c, 0, 58, 54
2, 37105, Note_on_c, 0, 43, 53
2, 37105, Note_on_c, 0, 50, 52
2, 37148, Note_on_c, 0, 50, 0
2, 37148, Note_on_c, 0, 43, 0
2, 37240, Note_on_c, 0, 55, 57
2, 37253, Note_on_c, 0, 50, 57
2, 37299, Note_on_c, 0, 55, 0
2, 37310, Note_on_c, 0, 50, 0
2, 37344, Note_on_c, 0, 58, 0
2, 37344, Note_on_c, 0, 62, 0
2, 37350, Control_c, 0, 64, 127
2, 37383, Note_on_c, 0, 65, 69
2, 37385, Note_on_c, 0, 57, 57
2, 37393, Note_on_c, 0, 60, 57
2, 37399, Note_on_c, 0, 43, 56
2, 37399, Note_on_c, 0, 50, 57
2, 37432, Control_c, 0, 64, 0
2, 37445, Note_on_c, 0, 50, 0
2, 37445, Note_on_c, 0, 43, 0
2, 37533, Note_on_c, 0, 55, 55
2, 37536, Note_on_c, 0, 50, 51
2, 37579, Note_on_c, 0, 55, 0
2, 37590, Note_on_c, 0, 50, 0
2, 37665, Note_on_c, 0, 50, 51
2, 37665, Note_on_c, 0, 55, 51
2, 37716, Note_on_c, 0, 55, 0
2, 37716, Note_on_c, 0, 50, 0
2, 37804, Note_on_c, 0, 43, 50
2, 37804, Note_on_c, 0, 50, 51
2, 37858, Note_on_c, 0, 60, 0
2, 37861, Note_on_c, 0, 43, 0
2, 37861, Note_on_c, 0, 50, 0
2, 37864, Control_c, 0, 64, 127
2, 37896, Note_on_c, 0, 57, 0
2, 37907, Note_on_c, 0, 65, 0
2, 37941, Note_on_c, 0, 62, 48
2, 37952, Note_on_c, 0, 43, 47
2, 37952, Note_on_c, 0, 50, 46
2, 37952, Note_on_c, 0, 58, 45
2, 37955, Control_c, 0, 64, 0
2, 37992, Note_on_c, 0, 50, 0
2, 37998, Note_on_c, 0, 43, 0
2, 38076, Note_on_c, 0, 55, 54
2, 38079, Note_on_c, 0, 50, 57
2, 38098, Control_c, 0, 64, 127
2, 38122, Note_on_c, 0, 50, 0
2, 38122, Note_on_c, 0, 55, 0
2, 38129, Note_on_c, 0, 58, 0
2, 38140, Note_on_c, 0, 57, 58
2, 38167, Note_on_c, 0, 43, 59
2, 38183, Note_on_c, 0, 62, 0
2, 38186, Note_on_c, 0, 50, 57
2, 38192, Note_on_c, 0, 60, 57
2, 38216, Control_c, 0, 64, 0
2, 38229, Note_on_c, 0, 65, 67
2, 38246, Note_on_c, 0, 43, 0
2, 38262, Note_on_c, 0, 50, 0
2, 38345, Note_on_c, 0, 50, 57
2, 38345, Note_on_c, 0, 55, 57
2, 38393, Note_on_c, 0, 55, 0
2, 38393, Note_on_c, 0, 50, 0
2, 38431, Note_on_c, 0, 50, 56
2, 38458, Note_on_c, 0, 55, 57
2, 38485, Note_on_c, 0, 63, 60
2, 38495, Note_on_c, 0, 65, 0
2, 38498, Note_on_c, 0, 50, 0
2, 38501, Note_on_c, 0, 55, 0
2, 38525, Note_on_c, 0, 63, 0
2, 38525, Note_on_c, 0, 65, 61
2, 38568, Note_on_c, 0, 65, 0
2, 38568, Note_on_c, 0, 63, 64
2, 38579, Note_on_c, 0, 50, 65
2, 38584, Note_on_c, 0, 43, 66
2, 38598, Control_c, 0, 64, 127
2, 38608, Note_on_c, 0, 63, 0
2, 38614, Note_on_c, 0, 65, 62
2, 38625, Note_on_c, 0, 50, 0
2, 38641, Note_on_c, 0, 43, 0
2, 38655, Note_on_c, 0, 63, 60
2, 38662, Note_on_c, 0, 65, 0
2, 38692, Note_on_c, 0, 57, 0
2, 38698, Note_on_c, 0, 60, 0
2, 38705, Note_on_c, 0, 62, 58
2, 38708, Note_on_c, 0, 58, 60
2, 38719, Note_on_c, 0, 43, 61
2, 38719, Note_on_c, 0, 50, 62
2, 38722, Note_on_c, 0, 63, 0
2, 38722, Control_c, 0, 64, 0
2, 38762, Note_on_c, 0, 43, 0
2, 38762, Note_on_c, 0, 50, 0
2, 38850, Note_on_c, 0, 55, 59
2, 38861, Note_on_c, 0, 50, 57
2, 38894, Note_on_c, 0, 55, 0
2, 38901, Note_on_c, 0, 50, 0
2, 38968, Control_c, 0, 67, 127
2, 38990, Note_on_c, 0, 43, 50
2, 38990, Note_on_c, 0, 50, 49
2, 39048, Note_on_c, 0, 50, 0
2, 39048, Note_on_c, 0, 43, 0
2, 39136, Note_on_c, 0, 55, 47
2, 39139, Note_on_c, 0, 50, 48
2, 39172, Note_on_c, 0, 55, 0
2, 39180, Note_on_c, 0, 50, 0
2, 39263, Note_on_c, 0, 94, 55
2, 39266, Note_on_c, 0, 79, 55
2, 39269, Note_on_c, 0, 55, 54
2, 39280, Note_on_c, 0, 50, 54
2, 39293, Note_on_c, 0, 94, 0
2, 39296, Note_on_c, 0, 79, 0
2, 39320, Note_on_c, 0, 55, 0
2, 39320, Note_on_c, 0, 50, 0
2, 39330, Note_on_c, 0, 94, 57
2, 39338, Note_on_c, 0, 79, 55
2, 39365, Note_on_c, 0, 94, 0
2, 39371, Note_on_c, 0, 79, 0
2, 39395, Note_on_c, 0, 94, 56
2, 39402, Note_on_c, 0, 79, 55
2, 39419, Note_on_c, 0, 43, 54
2, 39419, Note_on_c, 0, 50, 54
2, 39435, Note_on_c, 0, 94, 0
2, 39438, Note_on_c, 0, 79, 0
2, 39459, Note_on_c, 0, 94, 57
2, 39465, Note_on_c, 0, 50, 0
2, 39465, Note_on_c, 0, 79, 57
2, 39471, Note_on_c, 0, 43, 0
2, 39495, Note_on_c, 0, 94, 0
2, 39497, Note_on_c, 0, 79, 0
2, 39519, Note_on_c, 0, 94, 59
2, 39526, Note_on_c, 0, 79, 58
2, 39550, Note_on_c, 0, 43, 54
2, 39550, Note_on_c, 0, 50, 54
2, 39558, Note_on_c, 0, 94, 0
2, 39561, Note_on_c, 0, 79, 0
2, 39593, Note_on_c, 0, 43, 0
2, 39596, Note_on_c, 0, 50, 0
2, 39644, Control_c, 0, 64, 127
2, 39688, Note_on_c, 0, 50, 54
2, 39688, Note_on_c, 0, 55, 54
2, 39712, Note_on_c, 0, 58, 0
2, 39719, Note_on_c, 0, 62, 0
2, 39719, Note_on_c, 0, 55, 0
2, 39722, Note_on_c, 0, 50, 0
2, 39819, Control_c, 0, 64, 0
2, 39825, Note_on_c, 0, 65, 54
2, 39828, Note_on_c, 0, 57, 54
2, 39828, Note_on_c, 0, 60, 54
2, 39835, Note_on_c, 0, 43, 53
2, 39838, Note_on_c, 0, 50, 54
2, 39876, Note_on_c, 0, 50, 0
2, 39876, Note_on_c, 0, 43, 0
2, 39983, Note_on_c, 0, 50, 53
2, 39983, Note_on_c, 0, 55, 54
2, 40024, Note_on_c, 0, 55, 0
2, 40024, Note_on_c, 0, 50, 0
2, 40109, Note_on_c, 0, 50, 53
2, 40109, Note_on_c, 0, 55, 54
2, 40144, Note_on_c, 0, 55, 0
2, 40144, Note_on_c, 0, 50, 0
2, 40248, Note_on_c, 0, 43, 53
2, 40251, Note_on_c, 0, 50, 54
2, 40296, Note_on_c, 0, 50, 0
2, 40307, Note_on_c, 0, 43, 0
2, 40310, Control_c, 0, 64, 127
2, 40368, Note_on_c, 0, 60, 0
2, 40376, Note_on_c, 0, 57, 0
2, 40376, Note_on_c, 0, 65, 0
2, 40376, Note_on_c, 0, 62, 57
2, 40386, Note_on_c, 0, 58, 55
2, 40397, Note_on_c, 0, 43, 54
2, 40400, Note_on_c, 0, 50, 53
2, 40408, Control_c, 0, 64, 0
2, 40429, Note_on_c, 0, 43, 0
2, 40434, Note_on_c, 0, 50, 0
2, 40539, Note_on_c, 0, 55, 57
2, 40550, Note_on_c, 0, 50, 54
2, 40576, Control_c, 0, 64, 127
2, 40590, Note_on_c, 0, 50, 0
2, 40590, Note_on_c, 0, 55, 0
2, 40651, Note_on_c, 0, 58, 0
2, 40659, Note_on_c, 0, 62, 0
2, 40662, Note_on_c, 0, 65, 59
2, 40668, Control_c, 0, 64, 0
2, 40673, Note_on_c, 0, 43, 54
2, 40673, Note_on_c, 0, 57, 54
2, 40673, Note_on_c, 0, 60, 53
2, 40676, Note_on_c, 0, 50, 54
2, 40727, Note_on_c, 0, 50, 0
2, 40727, Note_on_c, 0, 43, 0
2, 40818, Note_on_c, 0, 55, 53
2, 40821, Note_on_c, 0, 50, 54
2, 40859, Note_on_c, 0, 55, 0
2, 40866, Note_on_c, 0, 50, 0
2, 40949, Note_on_c, 0, 55, 54
2, 40955, Note_on_c, 0, 50, 54
2, 40986, Note_on_c, 0, 55, 0
2, 40989, Note_on_c, 0, 50, 0
2, 41091, Note_on_c, 0, 43, 54
2, 41091, Note_on_c, 0, 50, 54
2, 41121, Control_c, 0, 64, 127
2, 41134, Note_on_c, 0, 50, 0
2, 41142, Note_on_c, 0, 43, 0
2, 41200, Note_on_c, 0, 60, 0
2, 41203, Note_on_c, 0, 57, 0
2, 41211, Note_on_c, 0, 62, 57
2, 41219, Note_on_c, 0, 65, 0
2, 41224, Note_on_c, 0, 58, 55
2, 41227, Control_c, 0, 64, 0
2, 41233, Note_on_c, 0, 43, 53
2, 41233, Note_on_c, 0, 50, 52
2, 41273, Note_on_c, 0, 43, 0
2, 41281, Note_on_c, 0, 50, 0
2, 41362, Note_on_c, 0, 55, 58
2, 41368, Note_on_c, 0, 50, 54
2, 41402, Note_on_c, 0, 50, 0
2, 41408, Note_on_c, 0, 55, 0
2, 41429, Note_on_c, 0, 58, 0
2, 41442, Control_c, 0, 64, 127
2, 41445, Note_on_c, 0, 62, 0
2, 41483, Note_on_c, 0, 65, 53
2, 41496, Note_on_c, 0, 57, 54
2, 41496, Note_on_c, 0, 60, 54
2, 41502, Note_on_c, 0, 43, 53
2, 41502, Note_on_c, 0, 50, 54
2, 41512, Control_c, 0, 64, 0
2, 41544, Note_on_c, 0, 50, 0
2, 41547, Note_on_c, 0, 43, 0
2, 41635, Note_on_c, 0, 50, 54
2, 41635, Note_on_c, 0, 55, 54
2, 41670, Note_on_c, 0, 50, 0
2, 41678, Note_on_c, 0, 55, 0
2, 41734, Note_on_c, 0, 50, 54
2, 41734, Note_on_c, 0, 55, 54
2, 41775, Note_on_c, 0, 65, 0
2, 41775, Note_on_c, 0, 63, 54
2, 41782, Note_on_c, 0, 50, 0
2, 41782, Note_on_c, 0, 55, 0
2, 41814, Note_on_c, 0, 65, 53
2, 41824, Note_on_c, 0, 63, 0
2, 41856, Note_on_c, 0, 63, 54
2, 41862, Note_on_c, 0, 43, 53
2, 41862, Note_on_c, 0, 50, 54
2, 41865, Note_on_c, 0, 65, 0
2, 41899, Control_c, 0, 64, 127
2, 41902, Note_on_c, 0, 65, 54
2, 41910, Note_on_c, 0, 63, 0
2, 41910, Note_on_c, 0, 50, 0
2, 41920, Note_on_c, 0, 43, 0
2, 41934, Note_on_c, 0, 60, 0
2, 41942, Note_on_c, 0, 65, 0
2, 41947, Note_on_c, 0, 63, 52
2, 41974, Note_on_c, 0, 57, 0
2, 41988, Note_on_c, 0, 62, 54
2, 41991, Note_on_c, 0, 58, 54
2, 41998, Control_c, 0, 64, 0
2, 42004, Note_on_c, 0, 43, 51
2, 42004, Note_on_c, 0, 50, 50
2, 42012, Note_on_c, 0, 63, 0
2, 42052, Note_on_c, 0, 43, 0
2, 42068, Note_on_c, 0, 50, 0
2, 42143, Note_on_c, 0, 55, 54
2, 42154, Note_on_c, 0, 50, 54
2, 42172, Control_c, 0, 64, 127
2, 42183, Note_on_c, 0, 58, 0
2, 42185, Note_on_c, 0, 50, 0
2, 42185, Note_on_c, 0, 55, 0
2, 42209, Note_on_c, 0, 62, 0
2, 42277, Note_on_c, 0, 62, 54
2, 42280, Note_on_c, 0, 58, 54
2, 42287, Note_on_c, 0, 43, 54
2, 42287, Note_on_c, 0, 50, 54
2, 42328, Note_on_c, 0, 50, 0
2, 42328, Note_on_c, 0, 43, 0
2, 42434, Note_on_c, 0, 55, 53
2, 42437, Note_on_c, 0, 50, 54
2, 42469, Note_on_c, 0, 55, 0
2, 42479, Note_on_c, 0, 50, 0
2, 42562, Note_on_c, 0, 94, 56
2, 42568, Note_on_c, 0, 50, 54
2, 42568, Note_on_c, 0, 55, 54
2, 42568, Note_on_c, 0, 79, 55
2, 42570, Control_c, 0, 64, 0
2, 42597, Note_on_c, 0, 94, 0
2, 42603, Note_on_c, 0, 79, 0
2, 42609, Note_on_c, 0, 55, 0
2, 42615, Note_on_c, 0, 50, 0
2, 42622, Note_on_c, 0, 94, 57
2, 42630, Note_on_c, 0, 79, 55
2, 42636, Control_c, 0, 64, 127
2, 42654, Note_on_c, 0, 94, 0
2, 42657, Note_on_c, 0, 79, 0
2, 42675, Note_on_c, 0, 94, 56
2, 42683, Note_on_c, 0, 79, 55
2, 42704, Note_on_c, 0, 43, 54
2, 42704, Note_on_c, 0, 50, 54
2, 42712, Note_on_c, 0, 94, 0
2, 42714, Note_on_c, 0, 79, 0
2, 42733, Note_on_c, 0, 50, 0
2, 42740, Note_on_c, 0, 94, 59
2, 42743, Note_on_c, 0, 79, 58
2, 42754, Note_on_c, 0, 43, 0
2, 42757, Control_c, 0, 64, 0
2, 42773, Note_on_c, 0, 94, 0
2, 42784, Note_on_c, 0, 79, 0
2, 42802, Control_c, 0, 64, 127
2, 42809, Note_on_c, 0, 94, 59
2, 42812, Note_on_c, 0, 79, 58
2, 42833, Note_on_c, 0, 43, 54
2, 42833, Note_on_c, 0, 50, 54
2, 42877, Note_on_c, 0, 50, 0
2, 42877, Note_on_c, 0, 43, 0
2, 42887, Note_on_c, 0, 94, 0
2, 42928, Note_on_c, 0, 79, 0
2, 42952, Note_on_c, 0, 50, 54
2, 42952, Note_on_c, 0, 55, 54
2, 42992, Note_on_c, 0, 55, 0
2, 42992, Note_on_c, 0, 50, 0
2, 43091, Note_on_c, 0, 79, 55
2, 43120, Note_on_c, 0, 79, 0
2, 43131, Note_on_c, 0, 31, 54
2, 43131, Note_on_c, 0, 38, 54
2, 43134, Note_on_c, 0, 81, 57
2, 43166, Note_on_c, 0, 81, 0
2, 43171, Note_on_c, 0, 79, 55
2, 43201, Note_on_c, 0, 31, 0
2, 43204, Note_on_c, 0, 79, 0
2, 43215, Note_on_c, 0, 81, 57
2, 43233, Note_on_c, 0, 43, 54
2, 43236, Note_on_c, 0, 62, 0
2, 43236, Note_on_c, 0, 58, 0
2, 43239, Note_on_c, 0, 50, 53
2, 43246, Note_on_c, 0, 81, 0
2, 43249, Note_on_c, 0, 79, 55
2, 43287, Note_on_c, 0, 79, 0
2, 43287, Note_on_c, 0, 81, 57
2, 43297, Note_on_c, 0, 50, 0
2, 43308, Note_on_c, 0, 43, 0
2, 43318, Note_on_c, 0, 81, 0
2, 43324, Note_on_c, 0, 79, 55
2, 43340, Note_on_c, 0, 38, 0
2, 43357, Note_on_c, 0, 79, 0
2, 43357, Note_on_c, 0, 81, 57
2, 43362, Note_on_c, 0, 43, 54
2, 43362, Note_on_c, 0, 50, 54
2, 43394, Note_on_c, 0, 81, 0
2, 43397, Note_on_c, 0, 50, 0
2, 43397, Note_on_c, 0, 79, 57
2, 43405, Note_on_c, 0, 43, 0
2, 43426, Note_on_c, 0, 79, 0
2, 43426, Note_on_c, 0, 81, 61
2, 43463, Note_on_c, 0, 81, 0
2, 43463, Note_on_c, 0, 79, 58
2, 43493, Note_on_c, 0, 31, 58
2, 43496, Note_on_c, 0, 79, 0
2, 43499, Note_on_c, 0, 81, 61
2, 43502, Note_on_c, 0, 38, 58
2, 43528, Note_on_c, 0, 79, 59
2, 43534, Note_on_c, 0, 81, 0
2, 43540, Note_on_c, 0, 38, 0
2, 43543, Note_on_c, 0, 31, 0
2, 43543, Control_c, 0, 67, 0
2, 43559, Note_on_c, 0, 79, 0
2, 43559, Note_on_c, 0, 81, 64
2, 43591, Note_on_c, 0, 79, 61
2, 43594, Note_on_c, 0, 81, 0
2, 43612, Note_on_c, 0, 79, 0
2, 43623, Note_on_c, 0, 81, 64
2, 43630, Note_on_c, 0, 31, 61
2, 43630, Note_on_c, 0, 38, 61
2, 43647, Note_on_c, 0, 81, 0
2, 43649, Note_on_c, 0, 79, 62
2, 43681, Note_on_c, 0, 79, 0
2, 43681, Note_on_c, 0, 81, 64
2, 43684, Control_c, 0, 64, 0
2, 43708, Note_on_c, 0, 81, 0
2, 43714, Note_on_c, 0, 79, 62
2, 43735, Note_on_c, 0, 79, 0
2, 43745, Note_on_c, 0, 81, 64
2, 43751, Note_on_c, 0, 50, 61
2, 43759, Note_on_c, 0, 43, 61
2, 43772, Note_on_c, 0, 81, 0
2, 43772, Note_on_c, 0, 79, 62
2, 43791, Note_on_c, 0, 50, 0
2, 43796, Note_on_c, 0, 79, 0
2, 43796, Control_c, 0, 64, 127
2, 43802, Note_on_c, 0, 43, 0
2, 43802, Note_on_c, 0, 81, 64
2, 43832, Note_on_c, 0, 81, 0
2, 43835, Note_on_c, 0, 79, 62
2, 43859, Note_on_c, 0, 79, 0
2, 43862, Note_on_c, 0, 81, 64
2, 43880, Note_on_c, 0, 81, 0
2, 43880, Note_on_c, 0, 31, 0
2, 43886, Note_on_c, 0, 79, 61
2, 43888, Note_on_c, 0, 55, 64
2, 43888, Note_on_c, 0, 58, 65
2, 43902, Note_on_c, 0, 31, 66
2, 43912, Note_on_c, 0, 79, 0
2, 43912, Note_on_c, 0, 81, 64
2, 43931, Note_on_c, 0, 81, 0
2, 43936, Note_on_c, 0, 79, 62
2, 43939, Note_on_c, 0, 31, 0
2, 43958, Note_on_c, 0, 79, 0
2, 43960, Note_on_c, 0, 81, 64
2, 43987, Note_on_c, 0, 81, 0
2, 43987, Note_on_c, 0, 79, 62
2, 44014, Note_on_c, 0, 79, 0
2, 44017, Note_on_c, 0, 81, 64
2, 44031, Note_on_c, 0, 43, 61
2, 44031, Note_on_c, 0, 50, 61
2, 44041, Note_on_c, 0, 81, 0
2, 44041, Note_on_c, 0, 79, 62
2, 44065, Note_on_c, 0, 79, 0
2, 44068, Note_on_c, 0, 81, 64
2, 44089, Note_on_c, 0, 50, 0
2, 44095, Note_on_c, 0, 81, 0
2, 44098, Note_on_c, 0, 79, 62
2, 44101, Note_on_c, 0, 43, 0
2, 44125, Note_on_c, 0, 79, 0
2, 44125, Note_on_c, 0, 81, 64
2, 44149, Note_on_c, 0, 81, 0
2, 44152, Note_on_c, 0, 79, 62
2, 44154, Note_on_c, 0, 43, 61
2, 44154, Note_on_c, 0, 50, 61
2, 44176, Note_on_c, 0, 79, 0
2, 44176, Note_on_c, 0, 81, 64
2, 44192, Note_on_c, 0, 38, 0
2, 44198, Note_on_c, 0, 50, 0
2, 44200, Note_on_c, 0, 81, 0
2, 44200, Note_on_c, 0, 79, 62
2, 44208, Note_on_c, 0, 43, 0
2, 44226, Note_on_c, 0, 79, 0
2, 44229, Note_on_c, 0, 81, 64
2, 44256, Note_on_c, 0, 81, 0
2, 44256, Note_on_c, 0, 79, 62
2, 44272, Note_on_c, 0, 38, 61
2, 44280, Note_on_c, 0, 79, 0
2, 44280, Note_on_c, 0, 31, 61
2, 44280, Note_on_c, 0, 81, 63
2, 44307, Control_c, 0, 64, 0
2, 44310, Note_on_c, 0, 79, 62
2, 44318, Note_on_c, 0, 81, 0
2, 44318, Note_on_c, 0, 55, 0
2, 44325, Note_on_c, 0, 58, 0
2, 44342, Note_on_c, 0, 79, 0
2, 44342, Note_on_c, 0, 81, 64
2, 44368, Note_on_c, 0, 79, 61
2, 44376, Note_on_c, 0, 81, 0
2, 44394, Note_on_c, 0, 57, 65
2, 44394, Note_on_c, 0, 60, 66
2, 44400, Note_on_c, 0, 81, 64
2, 44403, Note_on_c, 0, 79, 0
2, 44427, Note_on_c, 0, 81, 0
2, 44427, Note_on_c, 0, 79, 62
2, 44440, Control_c, 0, 64, 127
2, 44459, Note_on_c, 0, 79, 0
2, 44462, Note_on_c, 0, 81, 64
2, 44486, Note_on_c, 0, 79, 62
2, 44493, Note_on_c, 0, 81, 0
2, 44523, Note_on_c, 0, 79, 0
2, 44523, Note_on_c, 0, 81, 64
2, 44536, Note_on_c, 0, 43, 61
2, 44536, Note_on_c, 0, 50, 61
2, 44544, Note_on_c, 0, 81, 0
2, 44547, Note_on_c, 0, 79, 62
2, 44565, Note_on_c, 0, 50, 0
2, 44568, Note_on_c, 0, 79, 0
2, 44574, Note_on_c, 0, 81, 64
2, 44577, Note_on_c, 0, 43, 0
2, 44593, Note_on_c, 0, 57, 0
2, 44599, Note_on_c, 0, 81, 0
2, 44599, Note_on_c, 0, 79, 62
2, 44602, Note_on_c, 0, 60, 0
2, 44623, Note_on_c, 0, 79, 0
2, 44629, Note_on_c, 0, 81, 64
2, 44650, Note_on_c, 0, 31, 0
2, 44653, Note_on_c, 0, 81, 0
2, 44653, Note_on_c, 0, 79, 62
2, 44663, Note_on_c, 0, 58, 64
2, 44663, Note_on_c, 0, 62, 65
2, 44669, Note_on_c, 0, 31, 66
2, 44675, Note_on_c, 0, 81, 64
2, 44678, Note_on_c, 0, 79, 0
2, 44707, Note_on_c, 0, 81, 0
2, 44707, Note_on_c, 0, 79, 62
2, 44734, Note_on_c, 0, 79, 0
2, 44734, Note_on_c, 0, 81, 64
2, 44758, Note_on_c, 0, 81, 0
2, 44764, Note_on_c, 0, 79, 62
2, 44785, Note_on_c, 0, 81, 64
2, 44788, Note_on_c, 0, 79, 0
2, 44791, Note_on_c, 0, 43, 61
2, 44794, Note_on_c, 0, 50, 61
2, 44810, Note_on_c, 0, 81, 0
2, 44818, Note_on_c, 0, 79, 62
2, 44839, Note_on_c, 0, 79, 0
2, 44839, Note_on_c, 0, 81, 64
2, 44842, Note_on_c, 0, 50, 0
2, 44855, Note_on_c, 0, 43, 0
2, 44863, Note_on_c, 0, 58, 0
2, 44863, Note_on_c, 0, 81, 0
2, 44866, Note_on_c, 0, 62, 0
2, 44872, Note_on_c, 0, 79, 62
2, 44898, Note_on_c, 0, 81, 64
2, 44906, Note_on_c, 0, 79, 0
2, 44927, Note_on_c, 0, 43, 66
2, 44927, Note_on_c, 0, 58, 68
2, 44927, Note_on_c, 0, 62, 69
2, 44930, Note_on_c, 0, 81, 0
2, 44936, Note_on_c, 0, 79, 62
2, 44942, Note_on_c, 0, 50, 70
2, 44958, Note_on_c, 0, 81, 64
2, 44968, Note_on_c, 0, 79, 0
2, 44971, Note_on_c, 0, 50, 0
2, 44990, Note_on_c, 0, 43, 0
2, 44992, Note_on_c, 0, 81, 0
2, 44998, Note_on_c, 0, 79, 62
2, 45006, Control_c, 0, 64, 0
2, 45022, Note_on_c, 0, 79, 0
2, 45028, Note_on_c, 0, 81, 64
2, 45039, Note_on_c, 0, 31, 0
2, 45041, Note_on_c, 0, 38, 0
2, 45055, Note_on_c, 0, 79, 62
2, 45061, Note_on_c, 0, 31, 61
2, 45061, Note_on_c, 0, 38, 61
2, 45064, Note_on_c, 0, 81, 0
2, 45077, Control_c, 0, 64, 127
2, 45090, Note_on_c, 0, 81, 64
2, 45096, Note_on_c, 0, 79, 0
2, 45114, Note_on_c, 0, 38, 0
2, 45133, Note_on_c, 0, 31, 0
2, 45136, Note_on_c, 0, 79, 63
2, 45141, Note_on_c, 0, 81, 0
2, 45176, Note_on_c, 0, 31, 64
2, 45179, Note_on_c, 0, 38, 65
2, 45186, Note_on_c, 0, 78, 66
2, 45197, Note_on_c, 0, 79, 0
2, 45218, Note_on_c, 0, 31, 0
2, 45239, Note_on_c, 0, 78, 0
2, 45256, Note_on_c, 0, 79, 66
2, 45320, Note_on_c, 0, 79, 0
2, 45328, Note_on_c, 0, 43, 65
2, 45328, Note_on_c, 0, 50, 65
2, 45333, Note_on_c, 0, 78, 66
2, 45352, Note_on_c, 0, 58, 0
2, 45354, Note_on_c, 0, 62, 0
2, 45368, Note_on_c, 0, 50, 0
2, 45386, Note_on_c, 0, 43, 0
2, 45392, Note_on_c, 0, 38, 0
2, 45395, Control_c, 0, 64, 0
2, 45395, Note_on_c, 0, 74, 66
2, 45419, Note_on_c, 0, 78, 0
2, 45432, Note_on_c, 0, 58, 68
2, 45432, Note_on_c, 0, 62, 70
2, 45440, Note_on_c, 0, 31, 71
2, 45440, Note_on_c, 0, 38, 72
2, 45461, Note_on_c, 0, 77, 66
2, 45474, Note_on_c, 0, 74, 0
2, 45493, Note_on_c, 0, 79, 65
2, 45500, Note_on_c, 0, 77, 0
2, 45500, Control_c, 0, 64, 127
2, 45517, Note_on_c, 0, 31, 0
2, 45527, Note_on_c, 0, 79, 0
2, 45533, Note_on_c, 0, 77, 66
2, 45563, Note_on_c, 0, 77, 0
2, 45566, Note_on_c, 0, 79, 69
2, 45592, Note_on_c, 0, 79, 0
2, 45595, Note_on_c, 0, 77, 72
2, 45598, Note_on_c, 0, 43, 71
2, 45598, Note_on_c, 0, 50, 72
2, 45616, Note_on_c, 0, 77, 0
2, 45619, Note_on_c, 0, 79, 72
2, 45643, Note_on_c, 0, 79, 0
2, 45643, Note_on_c, 0, 77, 71
2, 45646, Note_on_c, 0, 50, 0
2, 45667, Note_on_c, 0, 43, 0
2, 45670, Note_on_c, 0, 77, 0
2, 45673, Note_on_c, 0, 79, 66
2, 45700, Note_on_c, 0, 79, 0
2, 45700, Note_on_c, 0, 77, 65
2, 45721, Note_on_c, 0, 43, 64
2, 45721, Note_on_c, 0, 50, 63
2, 45724, Note_on_c, 0, 77, 0
2, 45727, Note_on_c, 0, 79, 62
2, 45754, Note_on_c, 0, 79, 0
2, 45754, Note_on_c, 0, 77, 62
2, 45761, Note_on_c, 0, 50, 0
2, 45778, Note_on_c, 0, 77, 0
2, 45784, Note_on_c, 0, 43, 0
2, 45789, Note_on_c, 0, 79, 62
2, 45816, Note_on_c, 0, 79, 0
2, 45816, Note_on_c, 0, 38, 0
2, 45827, Note_on_c, 0, 60, 61
2, 45827, Note_on_c, 0, 77, 62
2, 45830, Note_on_c, 0, 57, 61
2, 45837, Note_on_c, 0, 58, 0
2, 45845, Note_on_c, 0, 62, 0
2, 45853, Note_on_c, 0, 77, 0
2, 45853, Note_on_c, 0, 38, 64
2, 45858, Note_on_c, 0, 79, 61
2, 45866, Note_on_c, 0, 31, 66
2, 45882, Note_on_c, 0, 79, 0
2, 45890, Note_on_c, 0, 77, 62
2, 45896, Note_on_c, 0, 38, 0
2, 45914, Note_on_c, 0, 77, 0
2, 45928, Note_on_c, 0, 79, 62
2, 45949, Note_on_c, 0, 79, 0
2, 45954, Note_on_c, 0, 77, 62
2, 45957, Note_on_c, 0, 57, 0
2, 45963, Note_on_c, 0, 60, 0
2, 45976, Note_on_c, 0, 77, 0
2, 45979, Note_on_c, 0, 62, 61
2, 45982, Note_on_c, 0, 58, 63
2, 45988, Note_on_c, 0, 38, 64
2, 45991, Control_c, 0, 64, 0
2, 45991, Note_on_c, 0, 79, 62
2, 46015, Note_on_c, 0, 79, 0
2, 46015, Note_on_c, 0, 77, 62
2, 46031, Note_on_c, 0, 31, 0
2, 46037, Note_on_c, 0, 77, 0
2, 46040, Control_c, 0, 64, 127
2, 46050, Note_on_c, 0, 79, 62
2, 46074, Note_on_c, 0, 79, 0
2, 46074, Note_on_c, 0, 77, 62
2, 46098, Note_on_c, 0, 77, 0
2, 46098, Note_on_c, 0, 79, 62
2, 46122, Note_on_c, 0, 79, 0
2, 46122, Note_on_c, 0, 43, 61
2, 46128, Note_on_c, 0, 77, 61
2, 46131, Note_on_c, 0, 50, 61
2, 46144, Note_on_c, 0, 38, 0
2, 46147, Note_on_c, 0, 77, 0
2, 46153, Note_on_c, 0, 79, 62
2, 46171, Note_on_c, 0, 43, 0
2, 46177, Note_on_c, 0, 79, 0
2, 46177, Note_on_c, 0, 77, 62
2, 46180, Note_on_c, 0, 50, 0
2, 46201, Note_on_c, 0, 77, 0
2, 46207, Note_on_c, 0, 79, 62
2, 46215, Note_on_c, 0, 58, 0
2, 46231, Note_on_c, 0, 79, 0
2, 46231, Note_on_c, 0, 62, 0
2, 46231, Note_on_c, 0, 77, 62
2, 46241, Note_on_c, 0, 57, 61
2, 46244, Note_on_c, 0, 60, 63
2, 46250, Note_on_c, 0, 31, 64
2, 46250, Note_on_c, 0, 38, 65
2, 46261, Note_on_c, 0, 79, 62
2, 46264, Note_on_c, 0, 77, 0
2, 46290, Note_on_c, 0, 31, 0
2, 46290, Note_on_c, 0, 79, 0
2, 46290, Note_on_c, 0, 77, 64
2, 46320, Note_on_c, 0, 79, 66
2, 46323, Note_on_c, 0, 77, 0
2, 46353, Note_on_c, 0, 79, 0
2, 46353, Note_on_c, 0, 77, 66
2, 46374, Note_on_c, 0, 43, 65
2, 46377, Note_on_c, 0, 50, 65
2, 46383, Note_on_c, 0, 79, 66
2, 46385, Note_on_c, 0, 77, 0
2, 46412, Note_on_c, 0, 79, 0
2, 46412, Note_on_c, 0, 77, 65
2, 46423, Note_on_c, 0, 50, 0
2, 46439, Note_on_c, 0, 77, 0
2, 46442, Note_on_c, 0, 79, 66
2, 46453, Note_on_c, 0, 57, 0
2, 46463, Note_on_c, 0, 79, 0
2, 46466, Note_on_c, 0, 77, 66
2, 46469, Note_on_c, 0, 60, 0
2, 46493, Note_on_c, 0, 77, 0
2, 46493, Note_on_c, 0, 79, 66
2, 46506, Note_on_c, 0, 55, 65
2, 46506, Note_on_c, 0, 58, 66
2, 46509, Note_on_c, 0, 50, 65
2, 46520, Note_on_c, 0, 79, 0
2, 46523, Note_on_c, 0, 77, 66
2, 46526, Note_on_c, 0, 38, 0
2, 46544, Note_on_c, 0, 77, 0
2, 46547, Note_on_c, 0, 79, 66
2, 46550, Note_on_c, 0, 50, 0
2, 46563, Note_on_c, 0, 43, 0
2, 46574, Note_on_c, 0, 79, 0
2, 46579, Note_on_c, 0, 77, 69
2, 46603, Note_on_c, 0, 77, 0
2, 46609, Note_on_c, 0, 79, 71
2, 46636, Note_on_c, 0, 77, 70
2, 46639, Note_on_c, 0, 79, 0
2, 46645, Note_on_c, 0, 38, 64
2, 46652, Note_on_c, 0, 31, 63
2, 46666, Note_on_c, 0, 77, 0
2, 46672, Note_on_c, 0, 79, 66
2, 46685, Note_on_c, 0, 31, 0
2, 46688, Note_on_c, 0, 38, 0
2, 46706, Note_on_c, 0, 77, 62
2, 46720, Note_on_c, 0, 79, 0
2, 46741, Control_c, 0, 64, 0
2, 46765, Note_on_c, 0, 77, 0
2, 46765, Note_on_c, 0, 38, 61
2, 46768, Note_on_c, 0, 31, 61
2, 46778, Note_on_c, 0, 75, 62
2, 46823, Control_c, 0, 64, 127
2, 46826, Note_on_c, 0, 75, 0
2, 46837, Note_on_c, 0, 77, 62
2, 46888, Note_on_c, 0, 77, 0
2, 46909, Note_on_c, 0, 43, 61
2, 46916, Note_on_c, 0, 50, 60
2, 46919, Note_on_c, 0, 75, 61
2, 46948, Note_on_c, 0, 50, 0
2, 46948, Note_on_c, 0, 55, 0
2, 46956, Note_on_c, 0, 58, 0
2, 46959, Note_on_c, 0, 43, 0
2, 46964, Control_c, 0, 67, 127
2, 46978, Note_on_c, 0, 70, 55
2, 47012, Note_on_c, 0, 57, 57
2, 47012, Note_on_c, 0, 60, 58
2, 47015, Note_on_c, 0, 70, 0
2, 47018, Note_on_c, 0, 75, 0
2, 47024, Control_c, 0, 64, 0
2, 47048, Note_on_c, 0, 74, 55
2, 47077, Note_on_c, 0, 74, 0
2, 47080, Note_on_c, 0, 75, 55
2, 47114, Note_on_c, 0, 75, 0
2, 47117, Note_on_c, 0, 74, 55
2, 47120, Control_c, 0, 64, 127
2, 47123, Note_on_c, 0, 31, 0
2, 47150, Note_on_c, 0, 74, 0
2, 47152, Note_on_c, 0, 75, 55
2, 47181, Note_on_c, 0, 75, 0
2, 47184, Note_on_c, 0, 74, 57
2, 47198, Note_on_c, 0, 43, 56
2, 47208, Note_on_c, 0, 50, 57
2, 47219, Note_on_c, 0, 74, 0
2, 47222, Note_on_c, 0, 75, 59
2, 47246, Note_on_c, 0, 75, 0
2, 47248, Note_on_c, 0, 74, 59
2, 47259, Note_on_c, 0, 50, 0
2, 47272, Note_on_c, 0, 74, 0
2, 47278, Note_on_c, 0, 43, 0
2, 47284, Note_on_c, 0, 75, 59
2, 47305, Note_on_c, 0, 75, 0
2, 47311, Note_on_c, 0, 74, 58
2, 47324, Note_on_c, 0, 43, 58
2, 47332, Note_on_c, 0, 50, 58
2, 47335, Note_on_c, 0, 74, 0
2, 47345, Note_on_c, 0, 75, 59
2, 47351, Note_on_c, 0, 38, 0
2, 47368, Note_on_c, 0, 75, 0
2, 47370, Note_on_c, 0, 74, 59
2, 47373, Note_on_c, 0, 43, 0
2, 47373, Note_on_c, 0, 50, 0
2, 47394, Note_on_c, 0, 74, 0
2, 47397, Note_on_c, 0, 75, 59
2, 47411, Control_c, 0, 67, 0
2, 47418, Note_on_c, 0, 75, 0
2, 47424, Note_on_c, 0, 74, 62
2, 47445, Note_on_c, 0, 31, 61
2, 47445, Note_on_c, 0, 38, 61
2, 47451, Note_on_c, 0, 74, 0
2, 47451, Note_on_c, 0, 75, 62
2, 47478, Note_on_c, 0, 75, 0
2, 47478, Note_on_c, 0, 74, 61
2, 47491, Note_on_c, 0, 38, 0
2, 47494, Note_on_c, 0, 57, 0
2, 47500, Note_on_c, 0, 31, 0
2, 47503, Note_on_c, 0, 74, 0
2, 47503, Note_on_c, 0, 60, 0
2, 47506, Note_on_c, 0, 75, 61
2, 47530, Note_on_c, 0, 75, 0
2, 47533, Note_on_c, 0, 74, 62
2, 47557, Note_on_c, 0, 74, 0
2, 47562, Note_on_c, 0, 75, 62
2, 47570, Note_on_c, 0, 58, 61
2, 47570, Note_on_c, 0, 62, 62
2, 47576, Note_on_c, 0, 31, 61
2, 47576, Note_on_c, 0, 38, 62
2, 47582, Note_on_c, 0, 75, 0
2, 47587, Note_on_c, 0, 74, 62
2, 47608, Control_c, 0, 64, 0
2, 47611, Note_on_c, 0, 74, 0
2, 47614, Note_on_c, 0, 75, 62
2, 47617, Note_on_c, 0, 31, 0
2, 47638, Note_on_c, 0, 75, 0
2, 47641, Note_on_c, 0, 74, 62
2, 47668, Note_on_c, 0, 74, 0
2, 47671, Note_on_c, 0, 75, 62
2, 47687, Control_c, 0, 64, 127
2, 47693, Note_on_c, 0, 75, 0
2, 47696, Note_on_c, 0, 74, 62
2, 47709, Note_on_c, 0, 43, 61
2, 47709, Note_on_c, 0, 50, 61
2, 47720, Note_on_c, 0, 74, 0
2, 47720, Note_on_c, 0, 75, 62
2, 47733, Note_on_c, 0, 38, 0
2, 47747, Note_on_c, 0, 75, 0
2, 47750, Note_on_c, 0, 74, 62
2, 47752, Note_on_c, 0, 50, 0
2, 47760, Note_on_c, 0, 43, 0
2, 47774, Note_on_c, 0, 75, 62
2, 47779, Note_on_c, 0, 74, 0
2, 47779, Control_c, 0, 64, 0
2, 47793, Note_on_c, 0, 58, 0
2, 47803, Note_on_c, 0, 75, 0
2, 47806, Note_on_c, 0, 74, 62
2, 47824, Note_on_c, 0, 62, 0
2, 47838, Note_on_c, 0, 75, 64
2, 47841, Control_c, 0, 64, 127
2, 47844, Note_on_c, 0, 74, 0
2, 47857, Note_on_c, 0, 38, 65
2, 47857, Note_on_c, 0, 55, 66
2, 47857, Note_on_c, 0, 58, 65
2, 47860, Note_on_c, 0, 31, 66
2, 47868, Note_on_c, 0, 75, 0
2, 47873, Note_on_c, 0, 74, 66
2, 47900, Note_on_c, 0, 75, 66
2, 47903, Note_on_c, 0, 31, 0
2, 47906, Note_on_c, 0, 74, 0
2, 47930, Note_on_c, 0, 75, 0
2, 47936, Control_c, 0, 64, 0
2, 47936, Note_on_c, 0, 74, 66
2, 47965, Note_on_c, 0, 75, 65
2, 47970, Note_on_c, 0, 74, 0
2, 47987, Control_c, 0, 64, 127
2, 47997, Note_on_c, 0, 43, 65
2, 48000, Note_on_c, 0, 75, 0
2, 48000, Note_on_c, 0, 50, 65
2, 48006, Note_on_c, 0, 74, 65
2, 48030, Note_on_c, 0, 75, 66
2, 48040, Note_on_c, 0, 74, 0
2, 48048, Note_on_c, 0, 50, 0
2, 48062, Note_on_c, 0, 43, 0
2, 48062, Note_on_c, 0, 75, 0
2, 48067, Note_on_c, 0, 74, 65
2, 48081, Control_c, 0, 64, 0
2, 48084, Note_on_c, 0, 55, 0
2, 48091, Note_on_c, 0, 75, 66
2, 48102, Note_on_c, 0, 74, 0
2, 48102, Note_on_c, 0, 58, 0
2, 48123, Note_on_c, 0, 57, 67
2, 48126, Note_on_c, 0, 75, 0
2, 48129, Note_on_c, 0, 74, 66
2, 48132, Control_c, 0, 64, 127
2, 48132, Note_on_c, 0, 43, 70
2, 48132, Note_on_c, 0, 50, 71
2, 48139, Note_on_c, 0, 38, 0
2, 48153, Note_on_c, 0, 75, 66
2, 48160, Note_on_c, 0, 74, 0
2, 48171, Note_on_c, 0, 50, 0
2, 48171, Note_on_c, 0, 57, 0
2, 48174, Note_on_c, 0, 58, 73
2, 48184, Note_on_c, 0, 43, 0
2, 48187, Note_on_c, 0, 75, 0
2, 48190, Note_on_c, 0, 74, 66
2, 48211, Note_on_c, 0, 74, 0
2, 48214, Note_on_c, 0, 75, 66
2, 48228, Note_on_c, 0, 58, 0
2, 48231, Note_on_c, 0, 57, 74
2, 48241, Note_on_c, 0, 75, 0
2, 48247, Note_on_c, 0, 74, 66
2, 48268, Note_on_c, 0, 74, 0
2, 48271, Note_on_c, 0, 31, 70
2, 48271, Note_on_c, 0, 38, 69
2, 48274, Note_on_c, 0, 75, 66
2, 48284, Note_on_c, 0, 57, 0
2, 48284, Note_on_c, 0, 58, 72
2, 48301, Note_on_c, 0, 75, 0
2, 48306, Note_on_c, 0, 74, 66
2, 48328, Note_on_c, 0, 75, 66
2, 48338, Note_on_c, 0, 74, 0
2, 48341, Note_on_c, 0, 58, 0
2, 48344, Note_on_c, 0, 57, 73
2, 48373, Note_on_c, 0, 38, 0
2, 48386, Note_on_c, 0, 74, 66
2, 48400, Note_on_c, 0, 75, 0
2, 48400, Note_on_c, 0, 38, 74
2, 48400, Note_on_c, 0, 55, 74
2, 48413, Note_on_c, 0, 57, 0
2, 48445, Note_on_c, 0, 31, 0
2, 48541, Note_on_c, 0, 43, 68
2, 48541, Note_on_c, 0, 50, 49
2, 48575, Note_on_c, 0, 50, 0
2, 48581, Note_on_c, 0, 38, 0
2, 48584, Note_on_c, 0, 74, 0
2, 48584, Note_on_c, 0, 43, 0
2, 48647, Control_c, 0, 67, 127
2, 48653, Note_on_c, 0, 91, 46
2, 48669, Control_c, 0, 64, 0
2, 48677, Note_on_c, 0, 81, 49
2, 48677, Note_on_c, 0, 84, 50
2, 48680, Note_on_c, 0, 38, 52
2, 48693, Note_on_c, 0, 31, 53
2, 48776, Note_on_c, 0, 31, 0
2, 48818, Note_on_c, 0, 50, 54
2, 48821, Note_on_c, 0, 43, 54
2, 48827, Control_c, 0, 64, 127
2, 48885, Note_on_c, 0, 50, 0
2, 48896, Note_on_c, 0, 43, 0
2, 48909, Note_on_c, 0, 91, 0
2, 48912, Note_on_c, 0, 84, 0
2, 48912, Note_on_c, 0, 81, 0
2, 48933, Note_on_c, 0, 86, 57
2, 48941, Note_on_c, 0, 50, 54
2, 48941, Note_on_c, 0, 79, 55
2, 48941, Note_on_c, 0, 82, 56
2, 48949, Note_on_c, 0, 43, 54
2, 48956, Note_on_c, 0, 38, 0
2, 48959, Control_c, 0, 64, 0
2, 49068, Control_c, 0, 64, 127
2, 49075, Note_on_c, 0, 31, 54
2, 49075, Note_on_c, 0, 38, 54
2, 49086, Note_on_c, 0, 79, 0
2, 49086, Note_on_c, 0, 82, 0
2, 49086, Note_on_c, 0, 86, 0
2, 49118, Note_on_c, 0, 50, 0
2, 49134, Note_on_c, 0, 43, 0
2, 49134, Note_on_c, 0, 55, 0
2, 49140, Note_on_c, 0, 31, 0
2, 49140, Note_on_c, 0, 38, 0
2, 49198, Control_c, 0, 64, 0
2, 49209, Note_on_c, 0, 31, 54
2, 49215, Note_on_c, 0, 79, 55
2, 49220, Note_on_c, 0, 38, 54
2, 49223, Note_on_c, 0, 72, 55
2, 49226, Note_on_c, 0, 69, 55
2, 49279, Note_on_c, 0, 31, 0
2, 49353, Control_c, 0, 64, 127
2, 49356, Note_on_c, 0, 43, 54
2, 49363, Note_on_c, 0, 50, 54
2, 49387, Note_on_c, 0, 38, 0
2, 49406, Note_on_c, 0, 50, 0
2, 49413, Note_on_c, 0, 43, 0
2, 49416, Note_on_c, 0, 72, 0
2, 49454, Note_on_c, 0, 69, 0
2, 49485, Control_c, 0, 64, 0
2, 49506, Note_on_c, 0, 79, 0
2, 49512, Note_on_c, 0, 31, 54
2, 49512, Note_on_c, 0, 55, 54
2, 49515, Note_on_c, 0, 38, 53
2, 49518, Note_on_c, 0, 67, 54
2, 49521, Note_on_c, 0, 70, 55
2, 49521, Note_on_c, 0, 74, 55
2, 49576, Note_on_c, 0, 31, 0
2, 49627, Control_c, 0, 64, 127
2, 49646, Note_on_c, 0, 43, 54
2, 49653, Note_on_c, 0, 50, 54
2, 49688, Note_on_c, 0, 55, 0
2, 49704, Note_on_c, 0, 74, 0
2, 49710, Note_on_c, 0, 70, 0
2, 49713, Note_on_c, 0, 67, 0
2, 49713, Note_on_c, 0, 50, 0
2, 49731, Note_on_c, 0, 43, 0
2, 49779, Control_c, 0, 64, 0
2, 49795, Note_on_c, 0, 50, 54
2, 49795, Note_on_c, 0, 67, 54
2, 49801, Note_on_c, 0, 43, 54
2, 49801, Note_on_c, 0, 57, 54
2, 49801, Note_on_c, 0, 60, 53
2, 49822, Note_on_c, 0, 38, 0
2, 49828, Note_on_c, 0, 50, 0
2, 49836, Note_on_c, 0, 43, 0
2, 49870, Control_c, 0, 64, 127
2, 49912, Note_on_c, 0, 38, 54
2, 49920, Note_on_c, 0, 31, 54
2, 49973, Note_on_c, 0, 38, 0
2, 49984, Note_on_c, 0, 31, 0
2, 50060, Note_on_c, 0, 60, 0
2, 50063, Control_c, 0, 64, 0
2, 50063, Note_on_c, 0, 62, 54
2, 50069, Note_on_c, 0, 57, 0
2, 50075, Note_on_c, 0, 55, 54
2, 50075, Note_on_c, 0, 58, 54
2, 50080, Note_on_c, 0, 67, 0
2, 50080, Note_on_c, 0, 31, 53
2, 50080, Note_on_c, 0, 38, 54
2, 50109, Note_on_c, 0, 31, 0
2, 50165, Control_c, 0, 64, 127
2, 50207, Note_on_c, 0, 43, 54
2, 50215, Note_on_c, 0, 50, 54
2, 50225, Note_on_c, 0, 62, 0
2, 50228, Note_on_c, 0, 58, 0
2, 50228, Note_on_c, 0, 55, 0
2, 50255, Note_on_c, 0, 50, 0
2, 50273, Note_on_c, 0, 43, 0
2, 50305, Note_on_c, 0, 38, 0
2, 50350, Note_on_c, 0, 53, 57
2, 50371, Note_on_c, 0, 31, 60
2, 50388, Control_c, 0, 64, 0
2, 50409, Note_on_c, 0, 31, 0
2, 50514, Note_on_c, 0, 38, 55
2, 50557, Note_on_c, 0, 38, 0
2, 50671, Note_on_c, 0, 38, 54
2, 50721, Note_on_c, 0, 38, 0
2, 50800, Note_on_c, 0, 31, 54
2, 50859, Note_on_c, 0, 31, 0
2, 50942, Note_on_c, 0, 50, 53
2, 50949, Note_on_c, 0, 53, 0
2, 50955, Note_on_c, 0, 31, 54
2, 50984, Note_on_c, 0, 31, 0
2, 51085, Note_on_c, 0, 38, 54
2, 51140, Note_on_c, 0, 38, 0
2, 51217, Note_on_c, 0, 53, 58
2, 51225, Note_on_c, 0, 50, 0
2, 51231, Note_on_c, 0, 48, 63
2, 51238, Note_on_c, 0, 31, 63
2, 51273, Note_on_c, 0, 31, 0
2, 51366, Note_on_c, 0, 38, 59
2, 51393, Note_on_c, 0, 38, 0
2, 51491, Note_on_c, 0, 38, 54
2, 51496, Note_on_c, 0, 53, 0
2, 51499, Note_on_c, 0, 51, 54
2, 51528, Note_on_c, 0, 38, 0
2, 51539, Note_on_c, 0, 51, 0
2, 51544, Note_on_c, 0, 53, 58
2, 51584, Note_on_c, 0, 53, 0
2, 51584, Note_on_c, 0, 48, 0
2, 51587, Note_on_c, 0, 51, 58
2, 51592, Note_on_c, 0, 31, 59
2, 51627, Note_on_c, 0, 31, 0
2, 51627, Note_on_c, 0, 51, 0
2, 51627, Note_on_c, 0, 53, 58
2, 51669, Note_on_c, 0, 53, 0
2, 51669, Note_on_c, 0, 51, 59
2, 51714, Note_on_c, 0, 51, 0
2, 51722, Note_on_c, 0, 50, 62
2, 51733, Note_on_c, 0, 31, 63
2, 51859, Control_c, 0, 64, 127
2, 51870, Note_on_c, 0, 50, 0
2, 51878, Note_on_c, 0, 38, 54
2, 52010, Note_on_c, 0, 67, 62
2, 52013, Note_on_c, 0, 58, 63
2, 52013, Note_on_c, 0, 62, 63
2, 52013, Note_on_c, 0, 70, 64
2, 52019, Note_on_c, 0, 43, 62
2, 52022, Note_on_c, 0, 50, 63
2, 52046, Control_c, 0, 64, 0
2, 52062, Note_on_c, 0, 50, 0
2, 52062, Note_on_c, 0, 43, 0
2, 52139, Note_on_c, 0, 55, 57
2, 52144, Note_on_c, 0, 50, 54
2, 52187, Note_on_c, 0, 50, 0
2, 52187, Note_on_c, 0, 55, 0
2, 52282, Note_on_c, 0, 55, 53
2, 52285, Note_on_c, 0, 50, 54
2, 52316, Note_on_c, 0, 55, 0
2, 52324, Note_on_c, 0, 50, 0
2, 52380, Control_c, 0, 64, 127
2, 52414, Note_on_c, 0, 50, 54
2, 52425, Note_on_c, 0, 43, 54
2, 52456, Note_on_c, 0, 43, 0
2, 52456, Note_on_c, 0, 50, 0
2, 52456, Note_on_c, 0, 62, 0
2, 52456, Note_on_c, 0, 67, 0
2, 52464, Note_on_c, 0, 58, 0
2, 52464, Note_on_c, 0, 70, 0
2, 52552, Control_c, 0, 64, 0
2, 52565, Note_on_c, 0, 71, 55
2, 52568, Note_on_c, 0, 62, 54
2, 52568, Note_on_c, 0, 67, 54
2, 52571, Note_on_c, 0, 59, 54
2, 52574, Note_on_c, 0, 43, 54
2, 52574, Note_on_c, 0, 50, 54
2, 52613, Note_on_c, 0, 50, 0
2, 52613, Note_on_c, 0, 43, 0
2, 52673, Control_c, 0, 64, 127
2, 52708, Note_on_c, 0, 55, 54
2, 52711, Note_on_c, 0, 50, 54
2, 52740, Note_on_c, 0, 55, 0
2, 52743, Note_on_c, 0, 50, 0
2, 52774, Note_on_c, 0, 59, 0
2, 52816, Note_on_c, 0, 62, 0
2, 52833, Note_on_c, 0, 67, 0
2, 52839, Note_on_c, 0, 43, 54
2, 52839, Note_on_c, 0, 50, 54
2, 52841, Note_on_c, 0, 71, 0
2, 52881, Note_on_c, 0, 43, 0
2, 52881, Note_on_c, 0, 50, 0
2, 52923, Note_on_c, 0, 31, 0
2, 52939, Note_on_c, 0, 38, 0
2, 52974, Note_on_c, 0, 50, 54
2, 52974, Note_on_c, 0, 55, 54
2, 53013, Note_on_c, 0, 55, 0
2, 53013, Note_on_c, 0, 50, 0
2, 53090, Note_on_c, 0, 79, 43
2, 53090, Note_on_c, 0, 86, 46
2, 53096, Note_on_c, 0, 55, 54
2, 53104, Note_on_c, 0, 50, 54
2, 53122, Note_on_c, 0, 86, 0
2, 53122, Note_on_c, 0, 79, 0
2, 53128, Note_on_c, 0, 55, 0
2, 53135, Note_on_c, 0, 50, 0
2, 53156, Note_on_c, 0, 79, 45
2, 53156, Note_on_c, 0, 86, 48
2, 53191, Note_on_c, 0, 86, 0
2, 53191, Note_on_c, 0, 79, 0
2, 53220, Note_on_c, 0, 86, 54
2, 53225, Note_on_c, 0, 79, 53
2, 53236, Note_on_c, 0, 43, 54
2, 53236, Note_on_c, 0, 50, 54
2, 53257, Note_on_c, 0, 79, 0
2, 53257, Note_on_c, 0, 86, 0
2, 53268, Note_on_c, 0, 43, 0
2, 53268, Note_on_c, 0, 50, 0
2, 53281, Note_on_c, 0, 86, 57
2, 53287, Note_on_c, 0, 79, 55
2, 53319, Note_on_c, 0, 79, 0
2, 53319, Note_on_c, 0, 86, 0
2, 53343, Note_on_c, 0, 79, 55
2, 53343, Note_on_c, 0, 86, 57
2, 53359, Note_on_c, 0, 50, 54
2, 53367, Note_on_c, 0, 43, 54
2, 53383, Note_on_c, 0, 86, 0
2, 53383, Note_on_c, 0, 79, 0
2, 53399, Note_on_c, 0, 50, 0
2, 53399, Note_on_c, 0, 43, 0
2, 53521, Note_on_c, 0, 55, 53
2, 53529, Note_on_c, 0, 50, 54
2, 53563, Note_on_c, 0, 55, 0
2, 53580, Note_on_c, 0, 50, 0
2, 53659, Control_c, 0, 64, 0
2, 53665, Note_on_c, 0, 31, 62
2, 53665, Note_on_c, 0, 53, 63
2, 53731, Note_on_c, 0, 31, 0
2, 53808, Note_on_c, 0, 38, 56
2, 53872, Note_on_c, 0, 38, 0
2, 53953, Note_on_c, 0, 38, 54
2, 54001, Note_on_c, 0, 38, 0
2, 54099, Note_on_c, 0, 31, 54
2, 54138, Note_on_c, 0, 31, 0
2, 54231, Note_on_c, 0, 50, 53
2, 54247, Note_on_c, 0, 53, 0
2, 54250, Note_on_c, 0, 31, 54
2, 54289, Note_on_c, 0, 31, 0
2, 54379, Note_on_c, 0, 38, 54
2, 54424, Note_on_c, 0, 38, 0
2, 54501, Note_on_c, 0, 50, 0
2, 54506, Note_on_c, 0, 48, 66
2, 54506, Note_on_c, 0, 53, 67
2, 54517, Note_on_c, 0, 31, 66
2, 54545, Note_on_c, 0, 31, 0
2, 54643, Note_on_c, 0, 38, 62
2, 54690, Note_on_c, 0, 38, 0
2, 54780, Note_on_c, 0, 38, 54
2, 54793, Note_on_c, 0, 53, 0
2, 54796, Note_on_c, 0, 51, 54
2, 54811, Note_on_c, 0, 38, 0
2, 54832, Note_on_c, 0, 51, 0
2, 54846, Note_on_c, 0, 53, 53
2, 54885, Note_on_c, 0, 53, 0
2, 54885, Note_on_c, 0, 31, 53
2, 54890, Note_on_c, 0, 51, 53
2, 54919, Note_on_c, 0, 31, 0
2, 54932, Note_on_c, 0, 51, 0
2, 54935, Note_on_c, 0, 53, 57
2, 54970, Note_on_c, 0, 31, 55
2, 54975, Note_on_c, 0, 53, 0
2, 54988, Note_on_c, 0, 51, 56
2, 55041, Note_on_c, 0, 50, 57
2, 55046, Note_on_c, 0, 51, 0
2, 55064, Note_on_c, 0, 48, 0
2, 55090, Note_on_c, 0, 38, 57
2, 55140, Control_c, 0, 64, 127
2, 55168, Note_on_c, 0, 50, 0
2, 55316, Note_on_c, 0, 70, 55
2, 55319, Note_on_c, 0, 58, 54
2, 55319, Note_on_c, 0, 62, 54
2, 55319, Note_on_c, 0, 67, 54
2, 55333, Note_on_c, 0, 43, 53
2, 55333, Note_on_c, 0, 50, 54
2, 55336, Control_c, 0, 64, 0
2, 55364, Note_on_c, 0, 43, 0
2, 55369, Note_on_c, 0, 50, 0
2, 55454, Note_on_c, 0, 50, 54
2, 55454, Note_on_c, 0, 55, 54
2, 55480, Note_on_c, 0, 55, 0
2, 55482, Note_on_c, 0, 50, 0
2, 55577, Note_on_c, 0, 50, 54
2, 55577, Note_on_c, 0, 55, 54
2, 55603, Note_on_c, 0, 55, 0
2, 55603, Note_on_c, 0, 50, 0
2, 55703, Control_c, 0, 64, 127
2, 55703, Note_on_c, 0, 50, 54
2, 55711, Note_on_c, 0, 43, 53
2, 55740, Note_on_c, 0, 62, 0
2, 55743, Note_on_c, 0, 43, 0
2, 55743, Note_on_c, 0, 50, 0
2, 55745, Note_on_c, 0, 70, 0
2, 55745, Note_on_c, 0, 67, 0
2, 55748, Note_on_c, 0, 58, 0
2, 55836, Note_on_c, 0, 62, 54
2, 55836, Note_on_c, 0, 67, 54
2, 55836, Note_on_c, 0, 71, 54
2, 55843, Note_on_c, 0, 59, 54
2, 55848, Note_on_c, 0, 43, 54
2, 55851, Control_c, 0, 64, 0
2, 55856, Note_on_c, 0, 50, 54
2, 55890, Note_on_c, 0, 43, 0
2, 55898, Note_on_c, 0, 50, 0
2, 55975, Control_c, 0, 64, 127
2, 55990, Note_on_c, 0, 50, 54
2, 55990, Note_on_c, 0, 55, 54
2, 56019, Note_on_c, 0, 55, 0
2, 56032, Note_on_c, 0, 50, 0
2, 56056, Note_on_c, 0, 59, 0
2, 56072, Note_on_c, 0, 62, 0
2, 56108, Note_on_c, 0, 67, 0
2, 56116, Note_on_c, 0, 71, 0
2, 56134, Note_on_c, 0, 43, 54
2, 56134, Note_on_c, 0, 50, 54
2, 56166, Note_on_c, 0, 43, 0
2, 56166, Note_on_c, 0, 31, 0
2, 56171, Note_on_c, 0, 50, 0
2, 56189, Note_on_c, 0, 38, 0
2, 56271, Note_on_c, 0, 50, 54
2, 56271, Note_on_c, 0, 55, 54
2, 56305, Note_on_c, 0, 55, 0
2, 56313, Note_on_c, 0, 50, 0
2, 56408, Note_on_c, 0, 86, 45
2, 56413, Note_on_c, 0, 55, 54
2, 56413, Note_on_c, 0, 79, 44
2, 56420, Note_on_c, 0, 50, 54
2, 56441, Note_on_c, 0, 79, 0
2, 56444, Note_on_c, 0, 86, 0
2, 56447, Note_on_c, 0, 55, 0
2, 56447, Note_on_c, 0, 50, 0
2, 56471, Note_on_c, 0, 86, 48
2, 56474, Note_on_c, 0, 79, 45
2, 56506, Note_on_c, 0, 79, 0
2, 56509, Note_on_c, 0, 86, 0
2, 56535, Note_on_c, 0, 79, 47
2, 56535, Note_on_c, 0, 86, 48
2, 56548, Note_on_c, 0, 50, 54
2, 56553, Note_on_c, 0, 43, 54
2, 56566, Note_on_c, 0, 86, 0
2, 56566, Note_on_c, 0, 79, 0
2, 56590, Note_on_c, 0, 50, 0
2, 56593, Note_on_c, 0, 43, 0
2, 56596, Note_on_c, 0, 86, 48
2, 56599, Note_on_c, 0, 79, 45
2, 56628, Note_on_c, 0, 79, 0
2, 56628, Note_on_c, 0, 86, 0
2, 56667, Note_on_c, 0, 86, 49
2, 56670, Note_on_c, 0, 79, 45
2, 56680, Note_on_c, 0, 50, 54
2, 56685, Note_on_c, 0, 43, 54
2, 56711, Note_on_c, 0, 79, 0
2, 56711, Note_on_c, 0, 86, 0
2, 56719, Note_on_c, 0, 50, 0
2, 56724, Note_on_c, 0, 43, 0
2, 56826, Note_on_c, 0, 50, 54
2, 56826, Note_on_c, 0, 55, 54
2, 56855, Note_on_c, 0, 50, 0
2, 56860, Note_on_c, 0, 55, 0
2, 56966, Note_on_c, 0, 53, 56
2, 56968, Note_on_c, 0, 48, 59
2, 56971, Control_c, 0, 64, 0
2, 56985, Note_on_c, 0, 31, 59
2, 57030, Note_on_c, 0, 31, 0
2, 57116, Note_on_c, 0, 38, 55
2, 57156, Note_on_c, 0, 38, 0
2, 57256, Note_on_c, 0, 53, 0
2, 57260, Note_on_c, 0, 51, 53
2, 57263, Note_on_c, 0, 38, 54
2, 57298, Note_on_c, 0, 38, 0
2, 57313, Note_on_c, 0, 51, 0
2, 57313, Note_on_c, 0, 53, 54
2, 57355, Note_on_c, 0, 53, 0
2, 57358, Note_on_c, 0, 51, 54
2, 57376, Note_on_c, 0, 31, 54
2, 57398, Note_on_c, 0, 51, 0
2, 57405, Note_on_c, 0, 53, 54
2, 57419, Note_on_c, 0, 31, 0
2, 57458, Note_on_c, 0, 53, 0
2, 57458, Note_on_c, 0, 51, 54
2, 57514, Note_on_c, 0, 48, 0
2, 57517, Note_on_c, 0, 50, 57
2, 57520, Note_on_c, 0, 31, 58
2, 57530, Note_on_c, 0, 51, 0
2, 57662, Note_on_c, 0, 38, 57
2, 57669, Note_on_c, 0, 50, 0
2, 57690, Control_c, 0, 64, 127
2, 57783, Control_c, 0, 64, 0
2, 57796, Note_on_c, 0, 67, 54
2, 57796, Note_on_c, 0, 71, 55
2, 57801, Note_on_c, 0, 62, 54
2, 57808, Note_on_c, 0, 59, 54
2, 57816, Note_on_c, 0, 43, 54
2, 57816, Note_on_c, 0, 50, 54
2, 57856, Note_on_c, 0, 50, 0
2, 57866, Control_c, 0, 64, 127
2, 57916, Note_on_c, 0, 67, 0
2, 57924, Note_on_c, 0, 71, 0
2, 57927, Note_on_c, 0, 59, 0
2, 57937, Note_on_c, 0, 62, 0
2, 57937, Note_on_c, 0, 43, 0
2, 57937, Note_on_c, 0, 50, 54
2, 57937, Note_on_c, 0, 55, 53
2, 57976, Note_on_c, 0, 55, 0
2, 57976, Note_on_c, 0, 50, 0
2, 58069, Note_on_c, 0, 86, 50
2, 58073, Note_on_c, 0, 79, 44
2, 58076, Note_on_c, 0, 55, 54
2, 58087, Note_on_c, 0, 50, 54
2, 58108, Note_on_c, 0, 55, 0
2, 58111, Note_on_c, 0, 79, 0
2, 58111, Note_on_c, 0, 86, 0
2, 58126, Note_on_c, 0, 50, 0
2, 58142, Note_on_c, 0, 79, 47
2, 58142, Note_on_c, 0, 86, 48
2, 58173, Note_on_c, 0, 86, 0
2, 58173, Note_on_c, 0, 79, 0
2, 58210, Note_on_c, 0, 43, 54
2, 58210, Note_on_c, 0, 50, 54
2, 58210, Note_on_c, 0, 79, 47
2, 58210, Note_on_c, 0, 86, 48
2, 58241, Note_on_c, 0, 86, 0
2, 58241, Note_on_c, 0, 79, 0
2, 58249, Note_on_c, 0, 43, 0
2, 58249, Note_on_c, 0, 50, 0
2, 58270, Note_on_c, 0, 79, 48
2, 58270, Note_on_c, 0, 86, 49
2, 58294, Note_on_c, 0, 86, 0
2, 58294, Note_on_c, 0, 79, 0
2, 58331, Note_on_c, 0, 79, 49
2, 58331, Note_on_c, 0, 86, 49
2, 58352, Note_on_c, 0, 50, 54
2, 58365, Note_on_c, 0, 43, 54
2, 58373, Note_on_c, 0, 86, 0
2, 58376, Note_on_c, 0, 79, 0
2, 58381, Note_on_c, 0, 31, 0
2, 58394, Note_on_c, 0, 50, 0
2, 58399, Note_on_c, 0, 43, 0
2, 58404, Note_on_c, 0, 38, 0
2, 58478, Note_on_c, 0, 55, 54
2, 58491, Note_on_c, 0, 50, 54
2, 58509, Control_c, 0, 64, 0
2, 58517, Note_on_c, 0, 55, 0
2, 58520, Note_on_c, 0, 50, 0
2, 58625, Control_c, 0, 64, 127
2, 58625, Note_on_c, 0, 79, 44
2, 58625, Note_on_c, 0, 86, 45
2, 58641, Note_on_c, 0, 43, 54
2, 58641, Note_on_c, 0, 50, 54
2, 58670, Note_on_c, 0, 50, 0
2, 58670, Note_on_c, 0, 43, 0
2, 58685, Note_on_c, 0, 86, 0
2, 58690, Note_on_c, 0, 79, 0
2, 58785, Note_on_c, 0, 50, 54
2, 58785, Note_on_c, 0, 55, 54
2, 58821, Note_on_c, 0, 55, 0
2, 58824, Note_on_c, 0, 50, 0
2, 58911, Note_on_c, 0, 86, 57
2, 58913, Note_on_c, 0, 79, 55
2, 58924, Note_on_c, 0, 50, 54
2, 58924, Note_on_c, 0, 55, 54
2, 58953, Note_on_c, 0, 79, 0
2, 58953, Note_on_c, 0, 86, 0
2, 58958, Note_on_c, 0, 50, 0
2, 58958, Note_on_c, 0, 55, 0
2, 58982, Note_on_c, 0, 79, 53
2, 58982, Note_on_c, 0, 86, 53
2, 59013, Note_on_c, 0, 86, 0
2, 59013, Note_on_c, 0, 79, 0
2, 59042, Note_on_c, 0, 79, 52
2, 59042, Note_on_c, 0, 86, 52
2, 59066, Note_on_c, 0, 43, 54
2, 59069, Note_on_c, 0, 50, 54
2, 59074, Note_on_c, 0, 86, 0
2, 59074, Note_on_c, 0, 79, 0
2, 59103, Note_on_c, 0, 79, 52
2, 59103, Note_on_c, 0, 86, 52
2, 59105, Note_on_c, 0, 50, 0
2, 59108, Note_on_c, 0, 43, 0
2, 59137, Note_on_c, 0, 79, 0
2, 59140, Note_on_c, 0, 86, 0
2, 59175, Note_on_c, 0, 86, 53
2, 59179, Note_on_c, 0, 79, 49
2, 59211, Note_on_c, 0, 43, 54
2, 59211, Note_on_c, 0, 50, 54
2, 59237, Note_on_c, 0, 86, 0
2, 59240, Note_on_c, 0, 50, 0
2, 59245, Note_on_c, 0, 79, 0
2, 59252, Note_on_c, 0, 43, 0
2, 59352, Note_on_c, 0, 55, 54
2, 59355, Note_on_c, 0, 50, 54
2, 59384, Note_on_c, 0, 50, 0
2, 59387, Note_on_c, 0, 55, 0
2, 59511, Note_on_c, 0, 62, 54
2, 59511, Note_on_c, 0, 71, 44
2, 59513, Note_on_c, 0, 59, 54
2, 59516, Note_on_c, 0, 43, 54
2, 59516, Note_on_c, 0, 50, 54
2, 59521, Control_c, 0, 64, 0
2, 59603, Note_on_c, 0, 50, 0
2, 59632, Control_c, 0, 64, 127
2, 59668, Note_on_c, 0, 55, 54
2, 59671, Note_on_c, 0, 50, 54
2, 59674, Note_on_c, 0, 59, 0
2, 59674, Note_on_c, 0, 43, 0
2, 59674, Note_on_c, 0, 62, 0
2, 59674, Note_on_c, 0, 71, 0
2, 59716, Note_on_c, 0, 50, 0
2, 59740, Note_on_c, 0, 55, 0
2, 59808, Note_on_c, 0, 86, 57
2, 59813, Note_on_c, 0, 79, 55
2, 59826, Note_on_c, 0, 55, 54
2, 59829, Note_on_c, 0, 50, 54
2, 59850, Note_on_c, 0, 79, 0
2, 59853, Note_on_c, 0, 86, 0
2, 59864, Note_on_c, 0, 55, 0
2, 59864, Note_on_c, 0, 50, 0
2, 59914, Note_on_c, 0, 79, 55
2, 59914, Note_on_c, 0, 86, 57
2, 59968, Note_on_c, 0, 86, 0
2, 59968, Note_on_c, 0, 79, 0
2, 60005, Note_on_c, 0, 43, 54
2, 60026, Note_on_c, 0, 50, 54
2, 60034, Note_on_c, 0, 86, 52
2, 60037, Note_on_c, 0, 79, 49
2, 60061, Note_on_c, 0, 50, 0
2, 60071, Note_on_c, 0, 43, 0
2, 60082, Note_on_c, 0, 79, 0
2, 60095, Note_on_c, 0, 86, 0
2, 60174, Note_on_c, 0, 50, 56
2, 60182, Note_on_c, 0, 43, 49
2, 60229, Note_on_c, 0, 43, 0
2, 60233, Note_on_c, 0, 50, 0
2, 60347, Note_on_c, 0, 55, 48
2, 60357, Note_on_c, 0, 50, 48
2, 60407, Note_on_c, 0, 50, 0
2, 60415, Note_on_c, 0, 55, 0
2, 60538, Note_on_c, 0, 43, 48
2, 60538, Note_on_c, 0, 50, 48
2, 60577, Note_on_c, 0, 50, 0
2, 60592, Note_on_c, 0, 43, 0
2, 60739, Note_on_c, 0, 55, 48
2, 60747, Note_on_c, 0, 50, 48
2, 60782, Note_on_c, 0, 50, 0
2, 60818, Note_on_c, 0, 55, 0
2, 60928, Note_on_c, 0, 79, 43
2, 60928, Note_on_c, 0, 86, 46
2, 60942, Note_on_c, 0, 50, 48
2, 60942, Note_on_c, 0, 55, 48
2, 61010, Note_on_c, 0, 50, 0
2, 61015, Note_on_c, 0, 55, 0
2, 61018, Note_on_c, 0, 79, 0
2, 61023, Note_on_c, 0, 86, 0
2, 61156, Note_on_c, 0, 43, 48
2, 61159, Note_on_c, 0, 50, 48
2, 61230, Note_on_c, 0, 50, 0
2, 61230, Note_on_c, 0, 43, 0
2, 61413, Note_on_c, 0, 50, 47
2, 61424, Note_on_c, 0, 43, 48
2, 61479, Note_on_c, 0, 50, 0
2, 61492, Note_on_c, 0, 43, 0
2, 61744, Note_on_c, 0, 55, 48
2, 61754, Note_on_c, 0, 50, 48
2, 61816, Note_on_c, 0, 50, 0
2, 61819, Note_on_c, 0, 55, 0
2, 62171, Note_on_c, 0, 43, 48
2, 62174, Note_on_c, 0, 50, 48
2, 62216, Note_on_c, 0, 50, 0
2, 62219, Note_on_c, 0, 43, 0
2, 62410, Control_c, 0, 67, 0
2, 64343, Control_c, 0, 64, 0
2, 64897, Note_on_c, 0, 35, 47
2, 64902, Note_on_c, 0, 38, 73
2, 64936, Note_on_c, 0, 38, 0
2, 64940, Note_on_c, 0, 35, 0
2, 65021, Note_on_c, 0, 31, 72
2, 65021, Note_on_c, 0, 35, 65
2, 65060, Note_on_c, 0, 35, 0
2, 65060, Note_on_c, 0, 31, 0
2, 65133, Note_on_c, 0, 35, 64
2, 65133, Note_on_c, 0, 38, 65
2, 65176, Note_on_c, 0, 38, 0
2, 65176, Note_on_c, 0, 35, 0
2, 65254, Note_on_c, 0, 31, 64
2, 65254, Note_on_c, 0, 35, 65
2, 65288, Note_on_c, 0, 35, 0
2, 65288, Note_on_c, 0, 31, 0
2, 65367, Note_on_c, 0, 38, 64
2, 65369, Note_on_c, 0, 35, 65
2, 65409, Note_on_c, 0, 35, 0
2, 65409, Note_on_c, 0, 38, 0
2, 65469, Note_on_c, 0, 31, 64
2, 65469, Note_on_c, 0, 35, 65
2, 65511, Note_on_c, 0, 35, 0
2, 65511, Note_on_c, 0, 31, 0
2, 65573, Note_on_c, 0, 35, 64
2, 65576, Note_on_c, 0, 38, 65
2, 65623, Note_on_c, 0, 38, 0
2, 65623, Note_on_c, 0, 35, 0
2, 65688, Note_on_c, 0, 35, 64
2, 65696, Note_on_c, 0, 31, 65
2, 65725, Note_on_c, 0, 31, 0
2, 65735, Note_on_c, 0, 35, 0
2, 65787, Note_on_c, 0, 35, 64
2, 65792, Note_on_c, 0, 38, 68
2, 65839, Note_on_c, 0, 38, 0
2, 65839, Note_on_c, 0, 35, 0
2, 65898, Note_on_c, 0, 35, 72
2, 65912, Note_on_c, 0, 31, 73
2, 65944, Note_on_c, 0, 31, 0
2, 65944, Note_on_c, 0, 35, 0
2, 66003, Note_on_c, 0, 35, 73
2, 66006, Note_on_c, 0, 38, 68
2, 66047, Note_on_c, 0, 35, 0
2, 66055, Note_on_c, 0, 38, 0
2, 66112, Note_on_c, 0, 35, 65
2, 66120, Note_on_c, 0, 31, 65
2, 66152, Note_on_c, 0, 31, 0
2, 66160, Note_on_c, 0, 35, 0
2, 66219, Note_on_c, 0, 35, 65
2, 66219, Note_on_c, 0, 38, 65
2, 66260, Note_on_c, 0, 38, 0
2, 66263, Note_on_c, 0, 35, 0
2, 66304, Note_on_c, 0, 35, 65
2, 66309, Note_on_c, 0, 31, 65
2, 66349, Note_on_c, 0, 31, 0
2, 66359, Note_on_c, 0, 35, 0
2, 66399, Note_on_c, 0, 35, 65
2, 66399, Note_on_c, 0, 38, 65
2, 66422, Note_on_c, 0, 79, 47
2, 66448, Note_on_c, 0, 38, 0
2, 66452, Note_on_c, 0, 35, 0
2, 66455, Note_on_c, 0, 81, 56
2, 66471, Note_on_c, 0, 79, 0
2, 66481, Note_on_c, 0, 83, 59
2, 66492, Note_on_c, 0, 81, 0
2, 66502, Note_on_c, 0, 35, 65
2, 66502, Note_on_c, 0, 84, 62
2, 66510, Note_on_c, 0, 31, 65
2, 66520, Note_on_c, 0, 83, 0
2, 66528, Note_on_c, 0, 86, 66
2, 66544, Note_on_c, 0, 35, 0
2, 66544, Note_on_c, 0, 31, 0
2, 66544, Note_on_c, 0, 84, 0
2, 66557, Note_on_c, 0, 88, 70
2, 66580, Note_on_c, 0, 86, 0
2, 66580, Note_on_c, 0, 90, 75
2, 66595, Note_on_c, 0, 88, 0
2, 66611, Note_on_c, 0, 91, 78
2, 66616, Note_on_c, 0, 38, 65
2, 66623, Note_on_c, 0, 35, 65
2, 66628, Note_on_c, 0, 90, 0
2, 66649, Note_on_c, 0, 38, 0
2, 66652, Note_on_c, 0, 35, 0
2, 66712, Note_on_c, 0, 31, 65
2, 66714, Note_on_c, 0, 35, 65
2, 66754, Note_on_c, 0, 31, 0
2, 66754, Note_on_c, 0, 91, 0
2, 66757, Note_on_c, 0, 35, 0
2, 66798, Note_on_c, 0, 90, 69
2, 66819, Note_on_c, 0, 35, 65
2, 66819, Note_on_c, 0, 38, 65
2, 66853, Note_on_c, 0, 90, 0
2, 66857, Note_on_c, 0, 38, 0
2, 66860, Note_on_c, 0, 35, 0
2, 66907, Note_on_c, 0, 88, 69
2, 66910, Note_on_c, 0, 35, 65
2, 66915, Note_on_c, 0, 31, 65
2, 66947, Note_on_c, 0, 31, 0
2, 66947, Note_on_c, 0, 88, 0
2, 66957, Note_on_c, 0, 35, 0
2, 67009, Note_on_c, 0, 86, 71
2, 67014, Note_on_c, 0, 35, 65
2, 67019, Note_on_c, 0, 38, 65
2, 67032, Note_on_c, 0, 86, 0
2, 67035, Note_on_c, 0, 88, 59
2, 67056, Note_on_c, 0, 88, 0
2, 67056, Note_on_c, 0, 38, 0
2, 67056, Note_on_c, 0, 35, 0
2, 67059, Note_on_c, 0, 86, 58
2, 67085, Note_on_c, 0, 86, 0
2, 67085, Note_on_c, 0, 88, 61
2, 67106, Note_on_c, 0, 31, 65
2, 67109, Note_on_c, 0, 88, 0
2, 67109, Note_on_c, 0, 35, 65
2, 67109, Note_on_c, 0, 86, 63
2, 67127, Note_on_c, 0, 88, 65
2, 67135, Note_on_c, 0, 86, 0
2, 67138, Note_on_c, 0, 31, 0
2, 67141, Note_on_c, 0, 35, 0
2, 67148, Note_on_c, 0, 88, 0
2, 67153, Note_on_c, 0, 86, 69
2, 67176, Note_on_c, 0, 86, 0
2, 67179, Note_on_c, 0, 88, 69
2, 67202, Note_on_c, 0, 88, 0
2, 67205, Note_on_c, 0, 35, 65
2, 67205, Note_on_c, 0, 38, 65
2, 67205, Note_on_c, 0, 86, 69
2, 67228, Note_on_c, 0, 86, 0
2, 67228, Note_on_c, 0, 88, 69
2, 67243, Note_on_c, 0, 38, 0
2, 67243, Note_on_c, 0, 35, 0
2, 67257, Note_on_c, 0, 88, 0
2, 67260, Note_on_c, 0, 86, 69
2, 67283, Note_on_c, 0, 86, 0
2, 67286, Note_on_c, 0, 88, 73
2, 67299, Note_on_c, 0, 35, 65
2, 67302, Note_on_c, 0, 31, 65
2, 67305, Note_on_c, 0, 88, 0
2, 67310, Note_on_c, 0, 86, 76
2, 67333, Note_on_c, 0, 31, 0
2, 67333, Note_on_c, 0, 35, 0
2, 67337, Note_on_c, 0, 85, 78
2, 67342, Note_on_c, 0, 86, 0
2, 67368, Note_on_c, 0, 85, 0
2, 67371, Note_on_c, 0, 86, 80
2, 67392, Note_on_c, 0, 38, 65
2, 67395, Note_on_c, 0, 35, 65
2, 67406, Note_on_c, 0, 88, 82
2, 67410, Note_on_c, 0, 86, 0
2, 67444, Note_on_c, 0, 38, 0
2, 67444, Note_on_c, 0, 35, 0
2, 67444, Note_on_c, 0, 88, 0
2, 67499, Note_on_c, 0, 31, 64
2, 67499, Note_on_c, 0, 35, 65
2, 67540, Note_on_c, 0, 35, 0
2, 67540, Note_on_c, 0, 31, 0
2, 67605, Note_on_c, 0, 35, 64
2, 67605, Note_on_c, 0, 38, 65
2, 67608, Note_on_c, 0, 86, 101
2, 67642, Note_on_c, 0, 38, 0
2, 67647, Note_on_c, 0, 35, 0
2, 67709, Note_on_c, 0, 35, 65
2, 67717, Note_on_c, 0, 31, 65
2, 67748, Note_on_c, 0, 31, 0
2, 67753, Note_on_c, 0, 35, 0
2, 67805, Note_on_c, 0, 38, 65
2, 67808, Note_on_c, 0, 35, 65
2, 67847, Note_on_c, 0, 35, 0
2, 67847, Note_on_c, 0, 38, 0
2, 67863, Note_on_c, 0, 86, 0
2, 67863, Note_on_c, 0, 83, 69
2, 67894, Note_on_c, 0, 79, 64
2, 67897, Note_on_c, 0, 31, 65
2, 67900, Note_on_c, 0, 35, 65
2, 67911, Note_on_c, 0, 83, 0
2, 67924, Note_on_c, 0, 74, 63
2, 67927, Note_on_c, 0, 79, 0
2, 67932, Note_on_c, 0, 31, 0
2, 67942, Note_on_c, 0, 35, 0
2, 67958, Note_on_c, 0, 71, 66
2, 67989, Note_on_c, 0, 74, 0
2, 67994, Note_on_c, 0, 67, 70
2, 67997, Note_on_c, 0, 35, 65
2, 67997, Note_on_c, 0, 38, 65
2, 68005, Note_on_c, 0, 71, 0
2, 68026, Note_on_c, 0, 38, 0
2, 68029, Note_on_c, 0, 67, 0
2, 68039, Note_on_c, 0, 35, 0
2, 68091, Note_on_c, 0, 79, 72
2, 68094, Note_on_c, 0, 35, 65
2, 68097, Note_on_c, 0, 31, 65
2, 68126, Note_on_c, 0, 79, 0
2, 68136, Note_on_c, 0, 31, 0
2, 68136, Note_on_c, 0, 35, 0
2, 68196, Note_on_c, 0, 36, 64
2, 68196, Note_on_c, 0, 69, 74
2, 68199, Note_on_c, 0, 38, 65
2, 68224, Note_on_c, 0, 69, 0
2, 68235, Note_on_c, 0, 36, 0
2, 68238, Note_on_c, 0, 38, 0
2, 68290, Note_on_c, 0, 81, 78
2, 68300, Note_on_c, 0, 31, 65
2, 68303, Note_on_c, 0, 33, 65
2, 68329, Note_on_c, 0, 81, 0
2, 68344, Note_on_c, 0, 33, 0
2, 68344, Note_on_c, 0, 31, 0
2, 68396, Note_on_c, 0, 66, 74
2, 68401, Note_on_c, 0, 36, 65
2, 68401, Note_on_c, 0, 38, 65
2, 68438, Note_on_c, 0, 36, 0
2, 68438, Note_on_c, 0, 66, 0
2, 68440, Note_on_c, 0, 38, 0
2, 68503, Note_on_c, 0, 78, 68
2, 68506, Note_on_c, 0, 33, 65
2, 68509, Note_on_c, 0, 31, 65
2, 68532, Note_on_c, 0, 78, 0
2, 68547, Note_on_c, 0, 31, 0
2, 68555, Note_on_c, 0, 33, 0
2, 68596, Note_on_c, 0, 62, 67
2, 68607, Note_on_c, 0, 36, 69
2, 68611, Note_on_c, 0, 38, 68
2, 68640, Note_on_c, 0, 38, 0
2, 68645, Note_on_c, 0, 62, 0
2, 68650, Note_on_c, 0, 36, 0
2, 68689, Note_on_c, 0, 74, 68
2, 68704, Note_on_c, 0, 31, 65
2, 68704, Note_on_c, 0, 33, 65
2, 68726, Note_on_c, 0, 74, 0
2, 68741, Note_on_c, 0, 33, 0
2, 68744, Note_on_c, 0, 31, 0
2, 68791, Note_on_c, 0, 69, 71
2, 68796, Note_on_c, 0, 36, 65
2, 68799, Note_on_c, 0, 38, 65
2, 68827, Note_on_c, 0, 69, 0
2, 68838, Note_on_c, 0, 38, 0
2, 68838, Note_on_c, 0, 36, 0
2, 68879, Note_on_c, 0, 81, 74
2, 68887, Note_on_c, 0, 31, 65
2, 68887, Note_on_c, 0, 33, 65
2, 68923, Note_on_c, 0, 81, 0
2, 68937, Note_on_c, 0, 33, 0
2, 68940, Note_on_c, 0, 31, 0
2, 68981, Note_on_c, 0, 35, 65
2, 68981, Note_on_c, 0, 38, 65
2, 68989, Note_on_c, 0, 71, 77
2, 69022, Note_on_c, 0, 38, 0
2, 69025, Note_on_c, 0, 71, 0
2, 69025, Note_on_c, 0, 35, 0
2, 69077, Note_on_c, 0, 83, 77
2, 69085, Note_on_c, 0, 31, 65
2, 69085, Note_on_c, 0, 35, 65
2, 69113, Note_on_c, 0, 35, 0
2, 69113, Note_on_c, 0, 83, 0
2, 69121, Note_on_c, 0, 31, 0
2, 69170, Note_on_c, 0, 67, 69
2, 69175, Note_on_c, 0, 35, 65
2, 69175, Note_on_c, 0, 38, 65
2, 69211, Note_on_c, 0, 38, 0
2, 69211, Note_on_c, 0, 35, 0
2, 69214, Note_on_c, 0, 67, 0
2, 69261, Note_on_c, 0, 79, 68
2, 69277, Note_on_c, 0, 31, 65
2, 69277, Note_on_c, 0, 35, 65
2, 69303, Note_on_c, 0, 79, 0
2, 69307, Note_on_c, 0, 35, 0
2, 69315, Note_on_c, 0, 31, 0
2, 69367, Note_on_c, 0, 62, 67
2, 69375, Note_on_c, 0, 38, 72
2, 69382, Note_on_c, 0, 35, 73
2, 69413, Note_on_c, 0, 35, 0
2, 69413, Note_on_c, 0, 38, 0
2, 69418, Note_on_c, 0, 62, 0
2, 69459, Note_on_c, 0, 74, 66
2, 69467, Note_on_c, 0, 31, 66
2, 69467, Note_on_c, 0, 35, 65
2, 69493, Note_on_c, 0, 74, 0
2, 69506, Note_on_c, 0, 35, 0
2, 69506, Note_on_c, 0, 31, 0
2, 69550, Note_on_c, 0, 79, 67
2, 69555, Note_on_c, 0, 38, 65
2, 69558, Note_on_c, 0, 35, 65
2, 69573, Note_on_c, 0, 81, 68
2, 69584, Note_on_c, 0, 35, 0
2, 69584, Note_on_c, 0, 38, 0
2, 69587, Note_on_c, 0, 79, 0
2, 69597, Note_on_c, 0, 83, 65
2, 69613, Note_on_c, 0, 81, 0
2, 69620, Note_on_c, 0, 84, 63
2, 69628, Note_on_c, 0, 83, 0
2, 69639, Note_on_c, 0, 31, 65
2, 69639, Note_on_c, 0, 35, 65
2, 69641, Note_on_c, 0, 86, 63
2, 69664, Note_on_c, 0, 84, 0
2, 69664, Note_on_c, 0, 88, 70
2, 69669, Note_on_c, 0, 31, 0
2, 69669, Note_on_c, 0, 35, 0
2, 69688, Note_on_c, 0, 86, 0
2, 69690, Note_on_c, 0, 90, 74
2, 69706, Note_on_c, 0, 88, 0
2, 69711, Note_on_c, 0, 91, 77
2, 69729, Note_on_c, 0, 90, 0
2, 69732, Note_on_c, 0, 35, 65
2, 69732, Note_on_c, 0, 38, 65
2, 69768, Note_on_c, 0, 38, 0
2, 69768, Note_on_c, 0, 35, 0
2, 69820, Note_on_c, 0, 31, 64
2, 69823, Note_on_c, 0, 35, 65
2, 69862, Note_on_c, 0, 31, 0
2, 69865, Note_on_c, 0, 35, 0
2, 69883, Note_on_c, 0, 91, 0
2, 69899, Note_on_c, 0, 90, 69
2, 69917, Note_on_c, 0, 38, 65
2, 69930, Note_on_c, 0, 35, 65
2, 69961, Note_on_c, 0, 35, 0
2, 69961, Note_on_c, 0, 38, 0
2, 69961, Note_on_c, 0, 90, 0
2, 70008, Note_on_c, 0, 88, 70
2, 70013, Note_on_c, 0, 35, 65
2, 70021, Note_on_c, 0, 31, 65
2, 70051, Note_on_c, 0, 31, 0
2, 70056, Note_on_c, 0, 35, 0
2, 70059, Note_on_c, 0, 88, 0
2, 70103, Note_on_c, 0, 86, 65
2, 70121, Note_on_c, 0, 35, 65
2, 70121, Note_on_c, 0, 38, 65
2, 70129, Note_on_c, 0, 88, 66
2, 70132, Note_on_c, 0, 86, 0
2, 70153, Note_on_c, 0, 88, 0
2, 70161, Note_on_c, 0, 38, 0
2, 70161, Note_on_c, 0, 35, 0
2, 70161, Note_on_c, 0, 86, 69
2, 70182, Note_on_c, 0, 86, 0
2, 70182, Note_on_c, 0, 88, 69
2, 70205, Note_on_c, 0, 88, 0
2, 70213, Note_on_c, 0, 86, 69
2, 70217, Note_on_c, 0, 31, 65
2, 70220, Note_on_c, 0, 35, 65
2, 70234, Note_on_c, 0, 88, 68
2, 70237, Note_on_c, 0, 86, 0
2, 70258, Note_on_c, 0, 31, 0
2, 70258, Note_on_c, 0, 35, 0
2, 70258, Note_on_c, 0, 88, 0
2, 70265, Note_on_c, 0, 86, 68
2, 70287, Note_on_c, 0, 88, 69
2, 70289, Note_on_c, 0, 86, 0
2, 70311, Note_on_c, 0, 88, 0
2, 70315, Note_on_c, 0, 38, 65
2, 70315, Note_on_c, 0, 86, 69
2, 70323, Note_on_c, 0, 35, 65
2, 70338, Note_on_c, 0, 88, 68
2, 70341, Note_on_c, 0, 86, 0
2, 70355, Note_on_c, 0, 38, 0
2, 70362, Note_on_c, 0, 35, 0
2, 70362, Note_on_c, 0, 88, 0
2, 70365, Note_on_c, 0, 86, 68
2, 70386, Note_on_c, 0, 88, 67
2, 70389, Note_on_c, 0, 86, 0
2, 70403, Note_on_c, 0, 31, 65
2, 70406, Note_on_c, 0, 35, 65
2, 70413, Note_on_c, 0, 86, 69
2, 70418, Note_on_c, 0, 88, 0
2, 70436, Note_on_c, 0, 31, 0
2, 70441, Note_on_c, 0, 35, 0
2, 70449, Note_on_c, 0, 85, 67
2, 70459, Note_on_c, 0, 86, 0
2, 70485, Note_on_c, 0, 86, 71
2, 70493, Note_on_c, 0, 85, 0
2, 70508, Note_on_c, 0, 35, 65
2, 70508, Note_on_c, 0, 38, 65
2, 70522, Note_on_c, 0, 88, 75
2, 70527, Note_on_c, 0, 86, 0
2, 70540, Note_on_c, 0, 38, 0
2, 70551, Note_on_c, 0, 35, 0
2, 70561, Note_on_c, 0, 88, 0
2, 70608, Note_on_c, 0, 31, 65
2, 70608, Note_on_c, 0, 35, 65
2, 70648, Note_on_c, 0, 31, 0
2, 70650, Note_on_c, 0, 35, 0
2, 70707, Note_on_c, 0, 86, 83
2, 70715, Note_on_c, 0, 35, 65
2, 70715, Note_on_c, 0, 38, 65
2, 70754, Note_on_c, 0, 38, 0
2, 70757, Note_on_c, 0, 35, 0
2, 70809, Note_on_c, 0, 31, 65
2, 70809, Note_on_c, 0, 35, 65
2, 70853, Note_on_c, 0, 31, 0
2, 70856, Note_on_c, 0, 35, 0
2, 70905, Note_on_c, 0, 38, 65
2, 70915, Note_on_c, 0, 35, 65
2, 70946, Note_on_c, 0, 38, 0
2, 70951, Note_on_c, 0, 86, 0
2, 70954, Note_on_c, 0, 83, 69
2, 70959, Note_on_c, 0, 35, 0
2, 70987, Note_on_c, 0, 79, 65
2, 71003, Note_on_c, 0, 31, 65
2, 71006, Note_on_c, 0, 83, 0
2, 71006, Note_on_c, 0, 35, 65
2, 71019, Note_on_c, 0, 74, 63
2, 71030, Note_on_c, 0, 79, 0
2, 71034, Note_on_c, 0, 31, 0
2, 71034, Note_on_c, 0, 35, 0
2, 71050, Note_on_c, 0, 71, 66
2, 71055, Note_on_c, 0, 74, 0
2, 71085, Note_on_c, 0, 67, 68
2, 71099, Note_on_c, 0, 38, 65
2, 71102, Note_on_c, 0, 35, 65
2, 71106, Note_on_c, 0, 71, 0
2, 71132, Note_on_c, 0, 35, 0
2, 71132, Note_on_c, 0, 38, 0
2, 71135, Note_on_c, 0, 67, 0
2, 71176, Note_on_c, 0, 79, 68
2, 71190, Note_on_c, 0, 31, 65
2, 71193, Note_on_c, 0, 35, 65
2, 71219, Note_on_c, 0, 79, 0
2, 71224, Note_on_c, 0, 35, 0
2, 71228, Note_on_c, 0, 31, 0
2, 71270, Note_on_c, 0, 69, 71
2, 71285, Note_on_c, 0, 36, 65
2, 71285, Note_on_c, 0, 38, 65
2, 71308, Note_on_c, 0, 38, 0
2, 71313, Note_on_c, 0, 69, 0
2, 71320, Note_on_c, 0, 36, 0
2, 71360, Note_on_c, 0, 81, 70
2, 71375, Note_on_c, 0, 33, 65
2, 71378, Note_on_c, 0, 31, 65
2, 71396, Note_on_c, 0, 81, 0
2, 71412, Note_on_c, 0, 31, 0
2, 71412, Note_on_c, 0, 33, 0
2, 71456, Note_on_c, 0, 66, 68
2, 71469, Note_on_c, 0, 36, 65
2, 71469, Note_on_c, 0, 38, 65
2, 71506, Note_on_c, 0, 38, 0
2, 71506, Note_on_c, 0, 36, 0
2, 71509, Note_on_c, 0, 66, 0
2, 71556, Note_on_c, 0, 78, 68
2, 71560, Note_on_c, 0, 33, 65
2, 71571, Note_on_c, 0, 31, 65
2, 71594, Note_on_c, 0, 78, 0
2, 71602, Note_on_c, 0, 31, 0
2, 71609, Note_on_c, 0, 33, 0
2, 71649, Note_on_c, 0, 62, 67
2, 71662, Note_on_c, 0, 36, 71
2, 71667, Note_on_c, 0, 38, 72
2, 71701, Note_on_c, 0, 62, 0
2, 71705, Note_on_c, 0, 38, 0
2, 71705, Note_on_c, 0, 36, 0
2, 71750, Note_on_c, 0, 74, 68
2, 71760, Note_on_c, 0, 33, 66
2, 71763, Note_on_c, 0, 31, 65
2, 71786, Note_on_c, 0, 74, 0
2, 71804, Note_on_c, 0, 31, 0
2, 71812, Note_on_c, 0, 33, 0
2, 71843, Note_on_c, 0, 69, 72
2, 71856, Note_on_c, 0, 36, 65
2, 71861, Note_on_c, 0, 38, 65
2, 71890, Note_on_c, 0, 36, 0
2, 71897, Note_on_c, 0, 69, 0
2, 71900, Note_on_c, 0, 38, 0
2, 71937, Note_on_c, 0, 81, 70
2, 71952, Note_on_c, 0, 31, 65
2, 71952, Note_on_c, 0, 33, 65
2, 71981, Note_on_c, 0, 81, 0
2, 71989, Note_on_c, 0, 31, 0
2, 71996, Note_on_c, 0, 33, 0
2, 72025, Note_on_c, 0, 71, 71
2, 72040, Note_on_c, 0, 35, 65
2, 72040, Note_on_c, 0, 38, 65
2, 72079, Note_on_c, 0, 38, 0
2, 72079, Note_on_c, 0, 35, 0
2, 72082, Note_on_c, 0, 71, 0
2, 72126, Note_on_c, 0, 83, 70
2, 72134, Note_on_c, 0, 35, 65
2, 72136, Note_on_c, 0, 31, 65
2, 72173, Note_on_c, 0, 31, 0
2, 72178, Note_on_c, 0, 35, 0
2, 72178, Note_on_c, 0, 83, 0
2, 72227, Note_on_c, 0, 35, 65
2, 72227, Note_on_c, 0, 67, 71
2, 72232, Note_on_c, 0, 38, 65
2, 72273, Note_on_c, 0, 38, 0
2, 72273, Note_on_c, 0, 35, 0
2, 72276, Note_on_c, 0, 67, 0
2, 72323, Note_on_c, 0, 31, 65
2, 72326, Note_on_c, 0, 35, 65
2, 72326, Note_on_c, 0, 79, 73
2, 72362, Note_on_c, 0, 35, 0
2, 72362, Note_on_c, 0, 31, 0
2, 72365, Note_on_c, 0, 79, 0
2, 72422, Note_on_c, 0, 38, 67
2, 72424, Note_on_c, 0, 35, 78
2, 72424, Note_on_c, 0, 62, 79
2, 72458, Note_on_c, 0, 35, 0
2, 72458, Note_on_c, 0, 38, 0
2, 72469, Note_on_c, 0, 62, 0
2, 72510, Note_on_c, 0, 31, 72
2, 72513, Note_on_c, 0, 35, 69
2, 72513, Note_on_c, 0, 74, 67
2, 72549, Note_on_c, 0, 31, 0
2, 72552, Note_on_c, 0, 74, 0
2, 72555, Note_on_c, 0, 35, 0
2, 72593, Note_on_c, 0, 88, 68
2, 72606, Note_on_c, 0, 35, 65
2, 72611, Note_on_c, 0, 38, 65
2, 72626, Note_on_c, 0, 86, 68
2, 72644, Note_on_c, 0, 38, 0
2, 72644, Note_on_c, 0, 88, 0
2, 72647, Note_on_c, 0, 35, 0
2, 72658, Note_on_c, 0, 84, 68
2, 72665, Note_on_c, 0, 86, 0
2, 72687, Note_on_c, 0, 83, 65
2, 72694, Note_on_c, 0, 35, 65
2, 72699, Note_on_c, 0, 31, 65
2, 72702, Note_on_c, 0, 84, 0
2, 72712, Note_on_c, 0, 81, 62
2, 72725, Note_on_c, 0, 83, 0
2, 72733, Note_on_c, 0, 31, 0
2, 72736, Note_on_c, 0, 35, 0
2, 72751, Note_on_c, 0, 79, 63
2, 72754, Note_on_c, 0, 81, 0
2, 72783, Note_on_c, 0, 78, 67
2, 72790, Note_on_c, 0, 36, 65
2, 72790, Note_on_c, 0, 38, 65
2, 72795, Note_on_c, 0, 79, 0
2, 72829, Note_on_c, 0, 38, 0
2, 72829, Note_on_c, 0, 36, 0
2, 72885, Note_on_c, 0, 33, 64
2, 72896, Note_on_c, 0, 31, 65
2, 72917, Note_on_c, 0, 33, 0
2, 72928, Note_on_c, 0, 31, 0
2, 72958, Note_on_c, 0, 78, 0
2, 72979, Note_on_c, 0, 76, 66
2, 72992, Note_on_c, 0, 36, 65
2, 72995, Note_on_c, 0, 38, 65
2, 73033, Note_on_c, 0, 38, 0
2, 73033, Note_on_c, 0, 36, 0
2, 73036, Note_on_c, 0, 76, 0
2, 73077, Note_on_c, 0, 78, 68
2, 73085, Note_on_c, 0, 33, 65
2, 73088, Note_on_c, 0, 31, 65
2, 73119, Note_on_c, 0, 78, 0
2, 73126, Note_on_c, 0, 31, 0
2, 73126, Note_on_c, 0, 33, 0
2, 73160, Note_on_c, 0, 74, 69
2, 73183, Note_on_c, 0, 36, 65
2, 73183, Note_on_c, 0, 38, 65
2, 73188, Note_on_c, 0, 74, 0
2, 73192, Note_on_c, 0, 76, 71
2, 73218, Note_on_c, 0, 76, 0
2, 73223, Note_on_c, 0, 38, 0
2, 73223, Note_on_c, 0, 36, 0
2, 73223, Note_on_c, 0, 74, 74
2, 73244, Note_on_c, 0, 74, 0
2, 73247, Note_on_c, 0, 76, 75
2, 73270, Note_on_c, 0, 74, 75
2, 73278, Note_on_c, 0, 76, 0
2, 73278, Note_on_c, 0, 33, 65
2, 73281, Note_on_c, 0, 31, 65
2, 73304, Note_on_c, 0, 73, 74
2, 73314, Note_on_c, 0, 31, 0
2, 73314, Note_on_c, 0, 74, 0
2, 73319, Note_on_c, 0, 33, 0
2, 73337, Note_on_c, 0, 73, 0
2, 73342, Note_on_c, 0, 74, 75
2, 73365, Note_on_c, 0, 76, 75
2, 73370, Note_on_c, 0, 36, 65
2, 73370, Note_on_c, 0, 38, 65
2, 73381, Note_on_c, 0, 74, 0
2, 73409, Note_on_c, 0, 76, 0
2, 73409, Note_on_c, 0, 38, 0
2, 73414, Note_on_c, 0, 36, 0
2, 73461, Note_on_c, 0, 78, 73
2, 73474, Note_on_c, 0, 31, 65
2, 73477, Note_on_c, 0, 33, 65
2, 73500, Note_on_c, 0, 78, 0
2, 73507, Note_on_c, 0, 31, 0
2, 73518, Note_on_c, 0, 33, 0
2, 73575, Note_on_c, 0, 35, 65
2, 73575, Note_on_c, 0, 38, 65
2, 73577, Note_on_c, 0, 79, 77
2, 73616, Note_on_c, 0, 35, 0
2, 73624, Note_on_c, 0, 38, 0
2, 73642, Note_on_c, 0, 79, 0
2, 73665, Note_on_c, 0, 31, 65
2, 73668, Note_on_c, 0, 35, 65
2, 73706, Note_on_c, 0, 35, 0
2, 73706, Note_on_c, 0, 31, 0
2, 73753, Note_on_c, 0, 67, 97
2, 73758, Note_on_c, 0, 38, 65
2, 73766, Note_on_c, 0, 35, 65
2, 73799, Note_on_c, 0, 35, 0
2, 73799, Note_on_c, 0, 38, 0
2, 73851, Note_on_c, 0, 35, 64
2, 73862, Note_on_c, 0, 31, 65
2, 73898, Note_on_c, 0, 35, 0
2, 73903, Note_on_c, 0, 31, 0
2, 73947, Note_on_c, 0, 35, 65
2, 73952, Note_on_c, 0, 38, 65
2, 73990, Note_on_c, 0, 38, 0
2, 73993, Note_on_c, 0, 35, 0
2, 74011, Note_on_c, 0, 67, 0
2, 74014, Note_on_c, 0, 71, 67
2, 74040, Note_on_c, 0, 31, 65
2, 74043, Note_on_c, 0, 35, 65
2, 74043, Note_on_c, 0, 74, 67
2, 74061, Note_on_c, 0, 71, 0
2, 74069, Note_on_c, 0, 79, 61
2, 74081, Note_on_c, 0, 31, 0
2, 74081, Note_on_c, 0, 35, 0
2, 74084, Note_on_c, 0, 74, 0
2, 74095, Note_on_c, 0, 83, 60
2, 74107, Note_on_c, 0, 79, 0
2, 74118, Note_on_c, 0, 86, 60
2, 74133, Note_on_c, 0, 35, 65
2, 74136, Note_on_c, 0, 83, 0
2, 74139, Note_on_c, 0, 38, 65
2, 74160, Note_on_c, 0, 86, 0
2, 74168, Note_on_c, 0, 38, 0
2, 74168, Note_on_c, 0, 35, 0
2, 74217, Note_on_c, 0, 74, 66
2, 74227, Note_on_c, 0, 35, 65
2, 74230, Note_on_c, 0, 31, 65
2, 74256, Note_on_c, 0, 74, 0
2, 74259, Note_on_c, 0, 31, 0
2, 74264, Note_on_c, 0, 35, 0
2, 74319, Note_on_c, 0, 64, 68
2, 74323, Note_on_c, 0, 36, 74
2, 74323, Note_on_c, 0, 38, 75
2, 74360, Note_on_c, 0, 38, 0
2, 74360, Note_on_c, 0, 36, 0
2, 74363, Note_on_c, 0, 64, 0
2, 74415, Note_on_c, 0, 76, 68
2, 74419, Note_on_c, 0, 31, 67
2, 74419, Note_on_c, 0, 33, 66
2, 74450, Note_on_c, 0, 33, 0
2, 74450, Note_on_c, 0, 31, 0
2, 74453, Note_on_c, 0, 76, 0
2, 74505, Note_on_c, 0, 65, 67
2, 74508, Note_on_c, 0, 36, 65
2, 74511, Note_on_c, 0, 38, 65
2, 74541, Note_on_c, 0, 38, 0
2, 74541, Note_on_c, 0, 36, 0
2, 74544, Note_on_c, 0, 65, 0
2, 74601, Note_on_c, 0, 77, 68
2, 74604, Note_on_c, 0, 33, 65
2, 74614, Note_on_c, 0, 31, 65
2, 74635, Note_on_c, 0, 77, 0
2, 74646, Note_on_c, 0, 31, 0
2, 74649, Note_on_c, 0, 33, 0
2, 74701, Note_on_c, 0, 66, 68
2, 74704, Note_on_c, 0, 36, 65
2, 74706, Note_on_c, 0, 38, 65
2, 74740, Note_on_c, 0, 66, 0
2, 74743, Note_on_c, 0, 36, 0
2, 74746, Note_on_c, 0, 38, 0
2, 74790, Note_on_c, 0, 78, 71
2, 74805, Note_on_c, 0, 31, 65
2, 74805, Note_on_c, 0, 33, 65
2, 74831, Note_on_c, 0, 78, 0
2, 74844, Note_on_c, 0, 33, 0
2, 74848, Note_on_c, 0, 31, 0
2, 74887, Note_on_c, 0, 71, 72
2, 74902, Note_on_c, 0, 36, 65
2, 74905, Note_on_c, 0, 38, 65
2, 74934, Note_on_c, 0, 38, 0
2, 74937, Note_on_c, 0, 71, 0
2, 74947, Note_on_c, 0, 36, 0
2, 74981, Note_on_c, 0, 83, 70
2, 74996, Note_on_c, 0, 33, 65
2, 75004, Note_on_c, 0, 31, 65
2, 75015, Note_on_c, 0, 83, 0
2, 75040, Note_on_c, 0, 31, 0
2, 75048, Note_on_c, 0, 33, 0
2, 75079, Note_on_c, 0, 69, 73
2, 75089, Note_on_c, 0, 38, 65
2, 75097, Note_on_c, 0, 35, 65
2, 75123, Note_on_c, 0, 69, 0
2, 75131, Note_on_c, 0, 35, 0
2, 75131, Note_on_c, 0, 38, 0
2, 75180, Note_on_c, 0, 81, 70
2, 75184, Note_on_c, 0, 35, 65
2, 75192, Note_on_c, 0, 31, 65
2, 75218, Note_on_c, 0, 81, 0
2, 75223, Note_on_c, 0, 31, 0
2, 75223, Note_on_c, 0, 35, 0
2, 75269, Note_on_c, 0, 67, 68
2, 75277, Note_on_c, 0, 38, 65
2, 75281, Note_on_c, 0, 35, 65
2, 75312, Note_on_c, 0, 38, 0
2, 75315, Note_on_c, 0, 67, 0
2, 75320, Note_on_c, 0, 35, 0
2, 75364, Note_on_c, 0, 79, 73
2, 75372, Note_on_c, 0, 31, 65
2, 75375, Note_on_c, 0, 35, 65
2, 75405, Note_on_c, 0, 31, 0
2, 75405, Note_on_c, 0, 79, 0
2, 75413, Note_on_c, 0, 35, 0
2, 75465, Note_on_c, 0, 62, 63
2, 75470, Note_on_c, 0, 35, 61
2, 75470, Note_on_c, 0, 38, 62
2, 75500, Note_on_c, 0, 62, 0
2, 75505, Note_on_c, 0, 38, 0
2, 75505, Note_on_c, 0, 35, 0
2, 75549, Note_on_c, 0, 74, 66
2, 75557, Note_on_c, 0, 31, 65
2, 75560, Note_on_c, 0, 35, 65
2, 75583, Note_on_c, 0, 74, 0
2, 75588, Note_on_c, 0, 31, 0
2, 75600, Note_on_c, 0, 35, 0
2, 75616, Note_on_c, 0, 88, 68
2, 75641, Note_on_c, 0, 35, 65
2, 75646, Note_on_c, 0, 38, 65
2, 75662, Note_on_c, 0, 86, 69
2, 75674, Note_on_c, 0, 88, 0
2, 75682, Note_on_c, 0, 35, 0
2, 75682, Note_on_c, 0, 38, 0
2, 75689, Note_on_c, 0, 84, 68
2, 75708, Note_on_c, 0, 86, 0
2, 75729, Note_on_c, 0, 83, 69
2, 75734, Note_on_c, 0, 31, 65
2, 75734, Note_on_c, 0, 35, 65
2, 75736, Note_on_c, 0, 84, 0
2, 75749, Note_on_c, 0, 81, 72
2, 75764, Note_on_c, 0, 83, 0
2, 75775, Note_on_c, 0, 35, 0
2, 75775, Note_on_c, 0, 31, 0
2, 75780, Note_on_c, 0, 79, 73
2, 75790, Note_on_c, 0, 81, 0
2, 75813, Note_on_c, 0, 78, 76
2, 75826, Note_on_c, 0, 79, 0
2, 75829, Note_on_c, 0, 36, 65
2, 75829, Note_on_c, 0, 38, 65
2, 75859, Note_on_c, 0, 38, 0
2, 75867, Note_on_c, 0, 36, 0
2, 75921, Note_on_c, 0, 33, 65
2, 75931, Note_on_c, 0, 31, 65
2, 75965, Note_on_c, 0, 31, 0
2, 75980, Note_on_c, 0, 33, 0
2, 75993, Note_on_c, 0, 78, 0
2, 76008, Note_on_c, 0, 76, 82
2, 76016, Note_on_c, 0, 36, 65
2, 76024, Note_on_c, 0, 38, 65
2, 76065, Note_on_c, 0, 38, 0
2, 76065, Note_on_c, 0, 36, 0
2, 76075, Note_on_c, 0, 76, 0
2, 76112, Note_on_c, 0, 78, 77
2, 76115, Note_on_c, 0, 33, 65
2, 76125, Note_on_c, 0, 31, 65
2, 76144, Note_on_c, 0, 78, 0
2, 76156, Note_on_c, 0, 31, 0
2, 76156, Note_on_c, 0, 33, 0
2, 76190, Note_on_c, 0, 74, 75
2, 76213, Note_on_c, 0, 38, 65
2, 76217, Note_on_c, 0, 74, 0
2, 76220, Note_on_c, 0, 36, 65
2, 76220, Note_on_c, 0, 76, 71
2, 76246, Note_on_c, 0, 76, 0
2, 76249, Note_on_c, 0, 74, 67
2, 76252, Note_on_c, 0, 36, 0
2, 76252, Note_on_c, 0, 38, 0
2, 76273, Note_on_c, 0, 74, 0
2, 76276, Note_on_c, 0, 76, 63
2, 76305, Note_on_c, 0, 74, 62
2, 76308, Note_on_c, 0, 33, 65
2, 76311, Note_on_c, 0, 31, 65
2, 76318, Note_on_c, 0, 76, 0
2, 76336, Note_on_c, 0, 73, 67
2, 76339, Note_on_c, 0, 74, 0
2, 76342, Note_on_c, 0, 31, 0
2, 76350, Note_on_c, 0, 33, 0
2, 76373, Note_on_c, 0, 74, 71
2, 76378, Note_on_c, 0, 73, 0
2, 76396, Note_on_c, 0, 76, 74
2, 76401, Note_on_c, 0, 36, 65
2, 76404, Note_on_c, 0, 38, 65
2, 76414, Note_on_c, 0, 74, 0
2, 76435, Note_on_c, 0, 76, 0
2, 76435, Note_on_c, 0, 38, 0
2, 76440, Note_on_c, 0, 36, 0
2, 76479, Note_on_c, 0, 78, 72
2, 76494, Note_on_c, 0, 33, 65
2, 76497, Note_on_c, 0, 31, 65
2, 76528, Note_on_c, 0, 33, 0
2, 76532, Note_on_c, 0, 78, 0
2, 76537, Note_on_c, 0, 31, 0
2, 76583, Note_on_c, 0, 79, 70
2, 76594, Note_on_c, 0, 38, 65
2, 76601, Note_on_c, 0, 35, 65
2, 76624, Note_on_c, 0, 79, 0
2, 76635, Note_on_c, 0, 35, 0
2, 76635, Note_on_c, 0, 38, 0
2, 76696, Note_on_c, 0, 31, 64
2, 76696, Note_on_c, 0, 35, 65
2, 76727, Note_on_c, 0, 35, 0
2, 76727, Note_on_c, 0, 31, 0
2, 76787, Note_on_c, 0, 67, 97
2, 76792, Note_on_c, 0, 38, 65
2, 76799, Note_on_c, 0, 35, 65
2, 76830, Note_on_c, 0, 35, 0
2, 76830, Note_on_c, 0, 38, 0
2, 76879, Note_on_c, 0, 35, 64
2, 76884, Note_on_c, 0, 31, 65
2, 76922, Note_on_c, 0, 31, 0
2, 76922, Note_on_c, 0, 35, 0
2, 76974, Note_on_c, 0, 35, 64
2, 76974, Note_on_c, 0, 38, 65
2, 77000, Note_on_c, 0, 67, 0
2, 77000, Note_on_c, 0, 71, 67
2, 77012, Note_on_c, 0, 38, 0
2, 77012, Note_on_c, 0, 35, 0
2, 77035, Note_on_c, 0, 74, 64
2, 77048, Note_on_c, 0, 71, 0
2, 77056, Note_on_c, 0, 31, 65
2, 77056, Note_on_c, 0, 35, 65
2, 77071, Note_on_c, 0, 79, 62
2, 77074, Note_on_c, 0, 74, 0
2, 77086, Note_on_c, 0, 31, 0
2, 77099, Note_on_c, 0, 35, 0
2, 77104, Note_on_c, 0, 83, 70
2, 77116, Note_on_c, 0, 79, 0
2, 77136, Note_on_c, 0, 86, 73
2, 77144, Note_on_c, 0, 83, 0
2, 77149, Note_on_c, 0, 38, 65
2, 77152, Note_on_c, 0, 35, 65
2, 77175, Note_on_c, 0, 86, 0
2, 77190, Note_on_c, 0, 38, 0
2, 77193, Note_on_c, 0, 35, 0
2, 77239, Note_on_c, 0, 74, 78
2, 77244, Note_on_c, 0, 31, 65
2, 77247, Note_on_c, 0, 35, 65
2, 77267, Note_on_c, 0, 74, 0
2, 77274, Note_on_c, 0, 31, 0
2, 77285, Note_on_c, 0, 35, 0
2, 77337, Note_on_c, 0, 36, 65
2, 77337, Note_on_c, 0, 38, 65
2, 77337, Note_on_c, 0, 64, 77
2, 77381, Note_on_c, 0, 36, 0
2, 77384, Note_on_c, 0, 38, 0
2, 77394, Note_on_c, 0, 64, 0
2, 77428, Note_on_c, 0, 76, 73
2, 77431, Note_on_c, 0, 33, 65
2, 77434, Note_on_c, 0, 31, 65
2, 77460, Note_on_c, 0, 76, 0
2, 77467, Note_on_c, 0, 31, 0
2, 77467, Note_on_c, 0, 33, 0
2, 77524, Note_on_c, 0, 65, 72
2, 77529, Note_on_c, 0, 36, 65
2, 77529, Note_on_c, 0, 38, 65
2, 77555, Note_on_c, 0, 65, 0
2, 77560, Note_on_c, 0, 38, 0
2, 77560, Note_on_c, 0, 36, 0
2, 77616, Note_on_c, 0, 77, 62
2, 77624, Note_on_c, 0, 33, 65
2, 77627, Note_on_c, 0, 31, 65
2, 77660, Note_on_c, 0, 31, 0
2, 77660, Note_on_c, 0, 77, 0
2, 77668, Note_on_c, 0, 33, 0
2, 77714, Note_on_c, 0, 66, 67
2, 77719, Note_on_c, 0, 36, 65
2, 77722, Note_on_c, 0, 38, 65
2, 77758, Note_on_c, 0, 38, 0
2, 77761, Note_on_c, 0, 66, 0
2, 77766, Note_on_c, 0, 36, 0
2, 77802, Note_on_c, 0, 78, 68
2, 77807, Note_on_c, 0, 33, 65
2, 77818, Note_on_c, 0, 31, 65
2, 77841, Note_on_c, 0, 78, 0
2, 77848, Note_on_c, 0, 31, 0
2, 77864, Note_on_c, 0, 33, 0
2, 77890, Note_on_c, 0, 71, 71
2, 77897, Note_on_c, 0, 36, 65
2, 77897, Note_on_c, 0, 38, 65
2, 77939, Note_on_c, 0, 38, 0
2, 77942, Note_on_c, 0, 71, 0
2, 77946, Note_on_c, 0, 36, 0
2, 77983, Note_on_c, 0, 83, 69
2, 77991, Note_on_c, 0, 31, 65
2, 77991, Note_on_c, 0, 33, 65
2, 78027, Note_on_c, 0, 33, 0
2, 78027, Note_on_c, 0, 31, 0
2, 78027, Note_on_c, 0, 83, 0
2, 78073, Note_on_c, 0, 69, 68
2, 78078, Note_on_c, 0, 38, 65
2, 78078, Note_on_c, 0, 47, 65
2, 78116, Note_on_c, 0, 47, 0
2, 78119, Note_on_c, 0, 69, 0
2, 78130, Note_on_c, 0, 38, 0
2, 78163, Note_on_c, 0, 81, 64
2, 78171, Note_on_c, 0, 31, 65
2, 78174, Note_on_c, 0, 38, 65
2, 78203, Note_on_c, 0, 81, 0
2, 78206, Note_on_c, 0, 31, 0
2, 78221, Note_on_c, 0, 38, 0
2, 78262, Note_on_c, 0, 67, 70
2, 78270, Note_on_c, 0, 47, 65
2, 78275, Note_on_c, 0, 38, 65
2, 78305, Note_on_c, 0, 67, 0
2, 78308, Note_on_c, 0, 47, 0
2, 78316, Note_on_c, 0, 38, 0
2, 78357, Note_on_c, 0, 79, 68
2, 78370, Note_on_c, 0, 31, 65
2, 78370, Note_on_c, 0, 38, 65
2, 78393, Note_on_c, 0, 79, 0
2, 78398, Note_on_c, 0, 31, 0
2, 78402, Note_on_c, 0, 38, 0
2, 78448, Note_on_c, 0, 62, 67
2, 78461, Note_on_c, 0, 47, 71
2, 78466, Note_on_c, 0, 38, 72
2, 78502, Note_on_c, 0, 47, 0
2, 78502, Note_on_c, 0, 62, 0
2, 78507, Note_on_c, 0, 38, 0
2, 78538, Note_on_c, 0, 74, 60
2, 78558, Note_on_c, 0, 31, 66
2, 78558, Note_on_c, 0, 38, 65
2, 78568, Note_on_c, 0, 74, 0
2, 78589, Note_on_c, 0, 31, 0
2, 78593, Note_on_c, 0, 38, 0
2, 78619, Note_on_c, 0, 86, 68
2, 78624, Note_on_c, 0, 62, 65
2, 78637, Note_on_c, 0, 47, 65
2, 78641, Note_on_c, 0, 38, 65
2, 78646, Note_on_c, 0, 88, 69
2, 78649, Note_on_c, 0, 64, 66
2, 78664, Note_on_c, 0, 62, 0
2, 78664, Note_on_c, 0, 86, 0
2, 78667, Note_on_c, 0, 47, 0
2, 78670, Note_on_c, 0, 90, 67
2, 78673, Note_on_c, 0, 66, 63
2, 78678, Note_on_c, 0, 88, 0
2, 78681, Note_on_c, 0, 64, 0
2, 78686, Note_on_c, 0, 38, 0
2, 78696, Note_on_c, 0, 91, 62
2, 78701, Note_on_c, 0, 67, 58
2, 78713, Note_on_c, 0, 66, 0
2, 78713, Note_on_c, 0, 90, 0
2, 78721, Note_on_c, 0, 31, 65
2, 78724, Note_on_c, 0, 38, 65
2, 78724, Note_on_c, 0, 93, 64
2, 78732, Note_on_c, 0, 69, 63
2, 78739, Note_on_c, 0, 91, 0
2, 78742, Note_on_c, 0, 67, 0
2, 78747, Note_on_c, 0, 95, 69
2, 78755, Note_on_c, 0, 93, 0
2, 78755, Note_on_c, 0, 38, 0
2, 78755, Note_on_c, 0, 31, 0
2, 78755, Note_on_c, 0, 71, 69
2, 78758, Note_on_c, 0, 69, 0
2, 78765, Note_on_c, 0, 96, 74
2, 78773, Note_on_c, 0, 72, 70
2, 78781, Note_on_c, 0, 71, 0
2, 78784, Note_on_c, 0, 95, 0
2, 78786, Note_on_c, 0, 98, 79
2, 78791, Note_on_c, 0, 74, 75
2, 78802, Note_on_c, 0, 100, 81
2, 78807, Note_on_c, 0, 76, 78
2, 78809, Note_on_c, 0, 96, 0
2, 78809, Note_on_c, 0, 72, 0
2, 78817, Note_on_c, 0, 47, 65
2, 78817, Note_on_c, 0, 102, 86
2, 78820, Note_on_c, 0, 38, 65
2, 78820, Note_on_c, 0, 78, 82
2, 78825, Note_on_c, 0, 74, 0
2, 78830, Note_on_c, 0, 98, 0
2, 78834, Note_on_c, 0, 103, 90
2, 78842, Note_on_c, 0, 79, 86
2, 78845, Note_on_c, 0, 100, 0
2, 78848, Note_on_c, 0, 76, 0
2, 78853, Note_on_c, 0, 102, 0
2, 78856, Note_on_c, 0, 78, 0
2, 78860, Note_on_c, 0, 47, 0
2, 78880, Note_on_c, 0, 38, 0
2, 78914, Note_on_c, 0, 31, 65
2, 78917, Note_on_c, 0, 38, 65
2, 78955, Note_on_c, 0, 38, 0
2, 78955, Note_on_c, 0, 31, 0
2, 78971, Note_on_c, 0, 103, 0
2, 78991, Note_on_c, 0, 79, 0
2, 79003, Note_on_c, 0, 102, 80
2, 79006, Note_on_c, 0, 78, 76
2, 79011, Note_on_c, 0, 38, 65
2, 79011, Note_on_c, 0, 47, 65
2, 79045, Note_on_c, 0, 47, 0
2, 79055, Note_on_c, 0, 78, 0
2, 79058, Note_on_c, 0, 102, 0
2, 79066, Note_on_c, 0, 38, 0
2, 79099, Note_on_c, 0, 100, 79
2, 79102, Note_on_c, 0, 76, 76
2, 79107, Note_on_c, 0, 31, 65
2, 79110, Note_on_c, 0, 38, 65
2, 79138, Note_on_c, 0, 100, 0
2, 79143, Note_on_c, 0, 76, 0
2, 79147, Note_on_c, 0, 31, 0
2, 79147, Note_on_c, 0, 38, 0
2, 79178, Note_on_c, 0, 98, 80
2, 79183, Note_on_c, 0, 74, 76
2, 79203, Note_on_c, 0, 47, 65
2, 79206, Note_on_c, 0, 38, 65
2, 79211, Note_on_c, 0, 100, 75
2, 79214, Note_on_c, 0, 98, 0
2, 79216, Note_on_c, 0, 74, 0
2, 79219, Note_on_c, 0, 76, 67
2, 79240, Note_on_c, 0, 76, 0
2, 79240, Note_on_c, 0, 100, 0
2, 79240, Note_on_c, 0, 98, 69
2, 79242, Note_on_c, 0, 47, 0
2, 79245, Note_on_c, 0, 74, 62
2, 79264, Note_on_c, 0, 98, 0
2, 79264, Note_on_c, 0, 100, 67
2, 79266, Note_on_c, 0, 38, 0
2, 79269, Note_on_c, 0, 74, 0
2, 79272, Note_on_c, 0, 76, 64
2, 79290, Note_on_c, 0, 76, 0
2, 79293, Note_on_c, 0, 100, 0
2, 79293, Note_on_c, 0, 98, 71
2, 79296, Note_on_c, 0, 74, 66
2, 79299, Note_on_c, 0, 31, 65
2, 79302, Note_on_c, 0, 38, 65
2, 79317, Note_on_c, 0, 74, 0
2, 79317, Note_on_c, 0, 98, 0
2, 79317, Note_on_c, 0, 100, 71
2, 79320, Note_on_c, 0, 76, 67
2, 79340, Note_on_c, 0, 31, 0
2, 79343, Note_on_c, 0, 100, 0
2, 79346, Note_on_c, 0, 76, 0
2, 79346, Note_on_c, 0, 98, 71
2, 79349, Note_on_c, 0, 74, 65
2, 79352, Note_on_c, 0, 38, 0
2, 79367, Note_on_c, 0, 100, 71
2, 79370, Note_on_c, 0, 74, 0
2, 79373, Note_on_c, 0, 98, 0
2, 79376, Note_on_c, 0, 76, 63
2, 79388, Note_on_c, 0, 47, 65
2, 79391, Note_on_c, 0, 38, 65
2, 79396, Note_on_c, 0, 98, 66
2, 79404, Note_on_c, 0, 100, 0
2, 79404, Note_on_c, 0, 74, 60
2, 79408, Note_on_c, 0, 76, 0
2, 79424, Note_on_c, 0, 100, 62
2, 79432, Note_on_c, 0, 47, 0
2, 79432, Note_on_c, 0, 76, 55
2, 79434, Note_on_c, 0, 98, 0
2, 79437, Note_on_c, 0, 74, 0
2, 79442, Note_on_c, 0, 38, 0
2, 79460, Note_on_c, 0, 98, 56
2, 79468, Note_on_c, 0, 74, 52
2, 79479, Note_on_c, 0, 100, 0
2, 79481, Note_on_c, 0, 76, 0
2, 79481, Note_on_c, 0, 31, 65
2, 79484, Note_on_c, 0, 38, 65
2, 79500, Note_on_c, 0, 97, 63
2, 79504, Note_on_c, 0, 98, 0
2, 79504, Note_on_c, 0, 74, 0
2, 79504, Note_on_c, 0, 73, 60
2, 79523, Note_on_c, 0, 31, 0
2, 79530, Note_on_c, 0, 38, 0
2, 79533, Note_on_c, 0, 98, 71
2, 79536, Note_on_c, 0, 74, 67
2, 79547, Note_on_c, 0, 73, 0
2, 79552, Note_on_c, 0, 97, 0
2, 79562, Note_on_c, 0, 100, 76
2, 79567, Note_on_c, 0, 76, 72
2, 79572, Note_on_c, 0, 47, 65
2, 79575, Note_on_c, 0, 38, 65
2, 79579, Note_on_c, 0, 98, 0
2, 79584, Note_on_c, 0, 74, 0
2, 79595, Note_on_c, 0, 100, 0
2, 79605, Note_on_c, 0, 76, 0
2, 79610, Note_on_c, 0, 47, 0
2, 79621, Note_on_c, 0, 38, 0
2, 79667, Note_on_c, 0, 31, 65
2, 79670, Note_on_c, 0, 38, 65
2, 79697, Note_on_c, 0, 31, 0
2, 79705, Note_on_c, 0, 38, 0
2, 79739, Note_on_c, 0, 98, 113
2, 79744, Note_on_c, 0, 74, 109
2, 79744, Note_on_c, 0, 86, 111
2, 79756, Note_on_c, 0, 47, 65
2, 79759, Note_on_c, 0, 38, 65
2, 79794, Note_on_c, 0, 47, 0
2, 79797, Note_on_c, 0, 38, 0
2, 79841, Note_on_c, 0, 31, 65
2, 79841, Note_on_c, 0, 38, 65
2, 79880, Note_on_c, 0, 38, 0
2, 79880, Note_on_c, 0, 31, 0
2, 79926, Note_on_c, 0, 74, 0
2, 79926, Note_on_c, 0, 47, 64
2, 79929, Note_on_c, 0, 86, 0
2, 79929, Note_on_c, 0, 38, 65
2, 79960, Note_on_c, 0, 98, 0
2, 79962, Note_on_c, 0, 95, 63
2, 79967, Note_on_c, 0, 71, 60
2, 79975, Note_on_c, 0, 47, 0
2, 79987, Note_on_c, 0, 38, 0
2, 80006, Note_on_c, 0, 71, 0
2, 80006, Note_on_c, 0, 91, 64
2, 80013, Note_on_c, 0, 67, 62
2, 80024, Note_on_c, 0, 31, 65
2, 80027, Note_on_c, 0, 38, 65
2, 80032, Note_on_c, 0, 95, 0
2, 80047, Note_on_c, 0, 62, 65
2, 80047, Note_on_c, 0, 86, 67
2, 80050, Note_on_c, 0, 67, 0
2, 80053, Note_on_c, 0, 91, 0
2, 80056, Note_on_c, 0, 31, 0
2, 80066, Note_on_c, 0, 38, 0
2, 80071, Note_on_c, 0, 83, 68
2, 80079, Note_on_c, 0, 59, 65
2, 80089, Note_on_c, 0, 62, 0
2, 80107, Note_on_c, 0, 55, 65
2, 80107, Note_on_c, 0, 79, 70
2, 80110, Note_on_c, 0, 83, 0
2, 80113, Note_on_c, 0, 86, 0
2, 80113, Note_on_c, 0, 47, 65
2, 80116, Note_on_c, 0, 59, 0
2, 80116, Note_on_c, 0, 38, 65
2, 80142, Note_on_c, 0, 47, 0
2, 80154, Note_on_c, 0, 38, 0
2, 80182, Note_on_c, 0, 79, 0
2, 80187, Note_on_c, 0, 91, 83
2, 80192, Note_on_c, 0, 67, 81
2, 80197, Note_on_c, 0, 31, 65
2, 80197, Note_on_c, 0, 38, 65
2, 80200, Note_on_c, 0, 55, 0
2, 80235, Note_on_c, 0, 38, 0
2, 80243, Note_on_c, 0, 31, 0
2, 80276, Note_on_c, 0, 48, 67
2, 80279, Note_on_c, 0, 38, 68
2, 80279, Note_on_c, 0, 81, 84
2, 80282, Note_on_c, 0, 57, 69
2, 80287, Note_on_c, 0, 67, 0
2, 80287, Note_on_c, 0, 91, 0
2, 80305, Note_on_c, 0, 48, 0
2, 80313, Note_on_c, 0, 57, 0
2, 80325, Note_on_c, 0, 38, 0
2, 80328, Note_on_c, 0, 81, 0
2, 80356, Note_on_c, 0, 93, 81
2, 80364, Note_on_c, 0, 69, 80
2, 80367, Note_on_c, 0, 31, 69
2, 80367, Note_on_c, 0, 45, 69
2, 80397, Note_on_c, 0, 93, 0
2, 80400, Note_on_c, 0, 69, 0
2, 80405, Note_on_c, 0, 45, 0
2, 80410, Note_on_c, 0, 31, 0
2, 80456, Note_on_c, 0, 78, 78
2, 80464, Note_on_c, 0, 38, 69
2, 80464, Note_on_c, 0, 48, 69
2, 80464, Note_on_c, 0, 54, 68
2, 80491, Note_on_c, 0, 54, 0
2, 80494, Note_on_c, 0, 48, 0
2, 80505, Note_on_c, 0, 38, 0
2, 80505, Note_on_c, 0, 78, 0
2, 80551, Note_on_c, 0, 90, 74
2, 80556, Note_on_c, 0, 45, 69
2, 80556, Note_on_c, 0, 66, 75
2, 80559, Note_on_c, 0, 31, 69
2, 80586, Note_on_c, 0, 66, 0
2, 80586, Note_on_c, 0, 45, 0
2, 80591, Note_on_c, 0, 90, 0
2, 80591, Note_on_c, 0, 31, 0
2, 80640, Note_on_c, 0, 48, 69
2, 80640, Note_on_c, 0, 50, 69
2, 80640, Note_on_c, 0, 74, 77
2, 80648, Note_on_c, 0, 38, 68
2, 80666, Note_on_c, 0, 50, 0
2, 80669, Note_on_c, 0, 48, 0
2, 80689, Note_on_c, 0, 38, 0
2, 80692, Note_on_c, 0, 74, 0
2, 80726, Note_on_c, 0, 62, 65
2, 80726, Note_on_c, 0, 86, 78
2, 80730, Note_on_c, 0, 31, 65
2, 80733, Note_on_c, 0, 45, 65
2, 80764, Note_on_c, 0, 62, 0
2, 80769, Note_on_c, 0, 45, 0
2, 80769, Note_on_c, 0, 31, 0
2, 80781, Note_on_c, 0, 86, 0
2, 80817, Note_on_c, 0, 81, 76
2, 80820, Note_on_c, 0, 57, 65
2, 80823, Note_on_c, 0, 48, 65
2, 80825, Note_on_c, 0, 38, 65
2, 80851, Note_on_c, 0, 57, 0
2, 80856, Note_on_c, 0, 48, 0
2, 80869, Note_on_c, 0, 81, 0
2, 80872, Note_on_c, 0, 38, 0
2, 80910, Note_on_c, 0, 93, 70
2, 80913, Note_on_c, 0, 69, 72
2, 80918, Note_on_c, 0, 31, 68
2, 80918, Note_on_c, 0, 45, 69
2, 80948, Note_on_c, 0, 31, 0
2, 80951, Note_on_c, 0, 45, 0
2, 80951, Note_on_c, 0, 69, 0
2, 80956, Note_on_c, 0, 93, 0
2, 81005, Note_on_c, 0, 83, 77
2, 81008, Note_on_c, 0, 50, 73
2, 81008, Note_on_c, 0, 59, 73
2, 81013, Note_on_c, 0, 38, 72
2, 81040, Note_on_c, 0, 50, 0
2, 81045, Note_on_c, 0, 59, 0
2, 81053, Note_on_c, 0, 83, 0
2, 81065, Note_on_c, 0, 38, 0
2, 81091, Note_on_c, 0, 95, 81
2, 81096, Note_on_c, 0, 71, 80
2, 81099, Note_on_c, 0, 31, 72
2, 81099, Note_on_c, 0, 47, 72
2, 81133, Note_on_c, 0, 95, 0
2, 81136, Note_on_c, 0, 71, 0
2, 81140, Note_on_c, 0, 31, 0
2, 81140, Note_on_c, 0, 47, 0
2, 81182, Note_on_c, 0, 55, 68
2, 81182, Note_on_c, 0, 79, 78
2, 81194, Note_on_c, 0, 50, 66
2, 81199, Note_on_c, 0, 38, 65
2, 81227, Note_on_c, 0, 55, 0
2, 81237, Note_on_c, 0, 38, 0
2, 81237, Note_on_c, 0, 50, 0
2, 81240, Note_on_c, 0, 79, 0
2, 81281, Note_on_c, 0, 91, 76
2, 81289, Note_on_c, 0, 31, 65
2, 81289, Note_on_c, 0, 47, 65
2, 81289, Note_on_c, 0, 67, 76
2, 81317, Note_on_c, 0, 67, 0
2, 81317, Note_on_c, 0, 91, 0
2, 81320, Note_on_c, 0, 31, 0
2, 81328, Note_on_c, 0, 47, 0
2, 81374, Note_on_c, 0, 50, 65
2, 81378, Note_on_c, 0, 38, 65
2, 81378, Note_on_c, 0, 62, 65
2, 81381, Note_on_c, 0, 74, 78
2, 81404, Note_on_c, 0, 50, 0
2, 81423, Note_on_c, 0, 62, 0
2, 81435, Note_on_c, 0, 38, 0
2, 81440, Note_on_c, 0, 74, 0
2, 81466, Note_on_c, 0, 86, 72
2, 81469, Note_on_c, 0, 62, 65
2, 81472, Note_on_c, 0, 47, 65
2, 81474, Note_on_c, 0, 31, 65
2, 81500, Note_on_c, 0, 62, 0
2, 81505, Note_on_c, 0, 31, 0
2, 81508, Note_on_c, 0, 86, 0
2, 81511, Note_on_c, 0, 47, 0
2, 81557, Note_on_c, 0, 86, 70
2, 81562, Note_on_c, 0, 62, 70
2, 81569, Note_on_c, 0, 50, 71
2, 81574, Note_on_c, 0, 38, 72
2, 81582, Note_on_c, 0, 88, 68
2, 81587, Note_on_c, 0, 64, 66
2, 81599, Note_on_c, 0, 66, 68
2, 81599, Note_on_c, 0, 90, 73
2, 81602, Note_on_c, 0, 50, 0
2, 81607, Note_on_c, 0, 86, 0
2, 81607, Note_on_c, 0, 62, 0
2, 81612, Note_on_c, 0, 38, 0
2, 81615, Note_on_c, 0, 91, 75
2, 81619, Note_on_c, 0, 88, 0
2, 81619, Note_on_c, 0, 67, 73
2, 81624, Note_on_c, 0, 64, 0
2, 81632, Note_on_c, 0, 93, 79
2, 81635, Note_on_c, 0, 69, 78
2, 81640, Note_on_c, 0, 90, 0
2, 81642, Note_on_c, 0, 66, 0
2, 81645, Note_on_c, 0, 95, 83
2, 81653, Note_on_c, 0, 47, 73
2, 81653, Note_on_c, 0, 71, 79
2, 81656, Note_on_c, 0, 91, 0
2, 81659, Note_on_c, 0, 67, 0
2, 81659, Note_on_c, 0, 31, 73
2, 81666, Note_on_c, 0, 96, 83
2, 81669, Note_on_c, 0, 93, 0
2, 81672, Note_on_c, 0, 72, 82
2, 81675, Note_on_c, 0, 69, 0
2, 81683, Note_on_c, 0, 98, 86
2, 81688, Note_on_c, 0, 71, 0
2, 81688, Note_on_c, 0, 47, 0
2, 81688, Note_on_c, 0, 74, 83
2, 81690, Note_on_c, 0, 95, 0
2, 81698, Note_on_c, 0, 100, 90
2, 81701, Note_on_c, 0, 31, 0
2, 81706, Note_on_c, 0, 76, 86
2, 81711, Note_on_c, 0, 72, 0
2, 81718, Note_on_c, 0, 96, 0
2, 81718, Note_on_c, 0, 102, 94
2, 81723, Note_on_c, 0, 78, 90
2, 81726, Note_on_c, 0, 74, 0
2, 81734, Note_on_c, 0, 98, 0
2, 81741, Note_on_c, 0, 103, 98
2, 81749, Note_on_c, 0, 79, 94
2, 81752, Note_on_c, 0, 76, 0
2, 81752, Note_on_c, 0, 50, 73
2, 81755, Note_on_c, 0, 38, 73
2, 81758, Note_on_c, 0, 100, 0
2, 81760, Note_on_c, 0, 78, 0
2, 81765, Note_on_c, 0, 102, 0
2, 81791, Note_on_c, 0, 50, 0
2, 81811, Note_on_c, 0, 38, 0
2, 81842, Note_on_c, 0, 31, 73
2, 81842, Note_on_c, 0, 47, 73
2, 81876, Note_on_c, 0, 31, 0
2, 81883, Note_on_c, 0, 47, 0
2, 81906, Note_on_c, 0, 103, 0
2, 81917, Note_on_c, 0, 79, 0
2, 81928, Note_on_c, 0, 102, 86
2, 81930, Note_on_c, 0, 78, 82
2, 81938, Note_on_c, 0, 38, 73
2, 81938, Note_on_c, 0, 50, 73
2, 81969, Note_on_c, 0, 50, 0
2, 81972, Note_on_c, 0, 102, 0
2, 81976, Note_on_c, 0, 38, 0
2, 81981, Note_on_c, 0, 78, 0
2, 82024, Note_on_c, 0, 100, 84
2, 82027, Note_on_c, 0, 76, 84
2, 82032, Note_on_c, 0, 31, 73
2, 82032, Note_on_c, 0, 47, 73
2, 82063, Note_on_c, 0, 100, 0
2, 82066, Note_on_c, 0, 47, 0
2, 82069, Note_on_c, 0, 76, 0
2, 82073, Note_on_c, 0, 31, 0
2, 82099, Note_on_c, 0, 98, 82
2, 82107, Note_on_c, 0, 74, 75
2, 82125, Note_on_c, 0, 50, 73
2, 82130, Note_on_c, 0, 38, 73
2, 82130, Note_on_c, 0, 100, 75
2, 82133, Note_on_c, 0, 98, 0
2, 82136, Note_on_c, 0, 74, 0
2, 82139, Note_on_c, 0, 76, 67
2, 82157, Note_on_c, 0, 50, 0
2, 82160, Note_on_c, 0, 100, 0
2, 82160, Note_on_c, 0, 76, 0
2, 82160, Note_on_c, 0, 98, 69
2, 82165, Note_on_c, 0, 74, 62
2, 82177, Note_on_c, 0, 38, 0
2, 82182, Note_on_c, 0, 98, 0
2, 82182, Note_on_c, 0, 100, 65
2, 82185, Note_on_c, 0, 74, 0
2, 82190, Note_on_c, 0, 76, 58
2, 82208, Note_on_c, 0, 76, 0
2, 82208, Note_on_c, 0, 100, 0
2, 82208, Note_on_c, 0, 98, 61
2, 82211, Note_on_c, 0, 74, 54
2, 82218, Note_on_c, 0, 31, 73
2, 82218, Note_on_c, 0, 47, 73
2, 82234, Note_on_c, 0, 98, 0
2, 82234, Note_on_c, 0, 100, 57
2, 82237, Note_on_c, 0, 74, 0
2, 82237, Note_on_c, 0, 76, 50
2, 82247, Note_on_c, 0, 47, 0
2, 82250, Note_on_c, 0, 31, 0
2, 82258, Note_on_c, 0, 100, 0
2, 82261, Note_on_c, 0, 76, 0
2, 82264, Note_on_c, 0, 98, 55
2, 82266, Note_on_c, 0, 74, 48
2, 82287, Note_on_c, 0, 74, 0
2, 82287, Note_on_c, 0, 98, 0
2, 82287, Note_on_c, 0, 100, 51
2, 82291, Note_on_c, 0, 76, 47
2, 82304, Note_on_c, 0, 38, 73
2, 82304, Note_on_c, 0, 50, 73
2, 82309, Note_on_c, 0, 100, 0
2, 82309, Note_on_c, 0, 98, 52
2, 82313, Note_on_c, 0, 76, 0
2, 82316, Note_on_c, 0, 74, 47
2, 82336, Note_on_c, 0, 100, 52
2, 82339, Note_on_c, 0, 76, 47
2, 82342, Note_on_c, 0, 50, 0
2, 82342, Note_on_c, 0, 38, 0
2, 82350, Note_on_c, 0, 98, 0
2, 82355, Note_on_c, 0, 74, 0
2, 82378, Note_on_c, 0, 98, 51
2, 82381, Note_on_c, 0, 74, 48
2, 82385, Note_on_c, 0, 76, 0
2, 82385, Note_on_c, 0, 100, 0
2, 82385, Note_on_c, 0, 31, 73
2, 82385, Note_on_c, 0, 47, 73
2, 82413, Note_on_c, 0, 73, 51
2, 82413, Note_on_c, 0, 97, 59
2, 82416, Note_on_c, 0, 31, 0
2, 82416, Note_on_c, 0, 98, 0
2, 82419, Note_on_c, 0, 74, 0
2, 82424, Note_on_c, 0, 47, 0
2, 82444, Note_on_c, 0, 98, 62
2, 82449, Note_on_c, 0, 74, 59
2, 82452, Note_on_c, 0, 97, 0
2, 82452, Note_on_c, 0, 73, 0
2, 82470, Note_on_c, 0, 100, 70
2, 82473, Note_on_c, 0, 76, 67
2, 82478, Note_on_c, 0, 98, 0
2, 82478, Note_on_c, 0, 74, 0
2, 82478, Note_on_c, 0, 38, 73
2, 82478, Note_on_c, 0, 50, 73
2, 82504, Note_on_c, 0, 50, 0
2, 82508, Note_on_c, 0, 100, 0
2, 82511, Note_on_c, 0, 76, 0
2, 82527, Note_on_c, 0, 38, 0
2, 82577, Note_on_c, 0, 31, 73
2, 82577, Note_on_c, 0, 47, 73
2, 82608, Note_on_c, 0, 47, 0
2, 82616, Note_on_c, 0, 31, 0
2, 82657, Note_on_c, 0, 86, 110
2, 82660, Note_on_c, 0, 98, 114
2, 82663, Note_on_c, 0, 74, 109
2, 82666, Note_on_c, 0, 50, 73
2, 82669, Note_on_c, 0, 38, 73
2, 82696, Note_on_c, 0, 50, 0
2, 82717, Note_on_c, 0, 38, 0
2, 82750, Note_on_c, 0, 31, 73
2, 82750, Note_on_c, 0, 47, 73
2, 82776, Note_on_c, 0, 47, 0
2, 82789, Note_on_c, 0, 31, 0
2, 82812, Note_on_c, 0, 86, 0
2, 82819, Note_on_c, 0, 74, 0
2, 82838, Note_on_c, 0, 38, 73
2, 82838, Note_on_c, 0, 50, 73
2, 82861, Note_on_c, 0, 95, 71
2, 82865, Note_on_c, 0, 71, 67
2, 82868, Note_on_c, 0, 98, 0
2, 82873, Note_on_c, 0, 50, 0
2, 82886, Note_on_c, 0, 38, 0
2, 82896, Note_on_c, 0, 91, 72
2, 82901, Note_on_c, 0, 67, 70
2, 82919, Note_on_c, 0, 95, 0
2, 82922, Note_on_c, 0, 31, 73
2, 82922, Note_on_c, 0, 47, 73
2, 82925, Note_on_c, 0, 71, 0
2, 82930, Note_on_c, 0, 91, 0
2, 82930, Note_on_c, 0, 86, 77
2, 82935, Note_on_c, 0, 62, 73
2, 82939, Note_on_c, 0, 67, 0
2, 82952, Note_on_c, 0, 31, 0
2, 82952, Note_on_c, 0, 47, 0
2, 82964, Note_on_c, 0, 83, 80
2, 82967, Note_on_c, 0, 86, 0
2, 82967, Note_on_c, 0, 62, 0
2, 82993, Note_on_c, 0, 79, 80
2, 82996, Note_on_c, 0, 55, 73
2, 83007, Note_on_c, 0, 50, 73
2, 83009, Note_on_c, 0, 38, 73
2, 83028, Note_on_c, 0, 83, 0
2, 83038, Note_on_c, 0, 50, 0
2, 83046, Note_on_c, 0, 55, 0
2, 83058, Note_on_c, 0, 38, 0
2, 83077, Note_on_c, 0, 79, 0
2, 83077, Note_on_c, 0, 91, 83
2, 83081, Note_on_c, 0, 67, 81
2, 83092, Note_on_c, 0, 31, 73
2, 83092, Note_on_c, 0, 47, 73
2, 83126, Note_on_c, 0, 47, 0
2, 83130, Note_on_c, 0, 31, 0
2, 83174, Note_on_c, 0, 81, 83
2, 83181, Note_on_c, 0, 67, 0
2, 83181, Note_on_c, 0, 31, 73
2, 83181, Note_on_c, 0, 57, 73
2, 83204, Note_on_c, 0, 91, 0
2, 83220, Note_on_c, 0, 57, 0
2, 83220, Note_on_c, 0, 31, 0
2, 83223, Note_on_c, 0, 38, 72
2, 83248, Note_on_c, 0, 81, 0
2, 83256, Note_on_c, 0, 38, 0
2, 83259, Note_on_c, 0, 93, 84
2, 83264, Note_on_c, 0, 50, 73
2, 83264, Note_on_c, 0, 69, 82
2, 83274, Note_on_c, 0, 48, 73
2, 83308, Note_on_c, 0, 93, 0
2, 83311, Note_on_c, 0, 69, 0
2, 83314, Note_on_c, 0, 50, 0
2, 83321, Note_on_c, 0, 38, 73
2, 83324, Note_on_c, 0, 48, 0
2, 83358, Note_on_c, 0, 78, 80
2, 83361, Note_on_c, 0, 38, 0
2, 83361, Note_on_c, 0, 54, 73
2, 83364, Note_on_c, 0, 31, 72
2, 83392, Note_on_c, 0, 54, 0
2, 83404, Note_on_c, 0, 38, 73
2, 83412, Note_on_c, 0, 31, 0
2, 83412, Note_on_c, 0, 78, 0
2, 83435, Note_on_c, 0, 90, 79
2, 83442, Note_on_c, 0, 38, 0
2, 83442, Note_on_c, 0, 48, 73
2, 83442, Note_on_c, 0, 66, 79
2, 83445, Note_on_c, 0, 50, 72
2, 83479, Note_on_c, 0, 90, 0
2, 83482, Note_on_c, 0, 66, 0
2, 83485, Note_on_c, 0, 38, 73
2, 83489, Note_on_c, 0, 50, 0
2, 83492, Note_on_c, 0, 48, 0
2, 83520, Note_on_c, 0, 74, 79
2, 83523, Note_on_c, 0, 50, 73
2, 83526, Note_on_c, 0, 31, 73
2, 83534, Note_on_c, 0, 38, 0
2, 83569, Note_on_c, 0, 38, 73
2, 83572, Note_on_c, 0, 50, 0
2, 83575, Note_on_c, 0, 74, 0
2, 83580, Note_on_c, 0, 31, 0
2, 83608, Note_on_c, 0, 86, 79
2, 83612, Note_on_c, 0, 48, 73
2, 83612, Note_on_c, 0, 62, 73
2, 83625, Note_on_c, 0, 38, 0
2, 83625, Note_on_c, 0, 50, 73
2, 83643, Note_on_c, 0, 62, 0
2, 83648, Note_on_c, 0, 86, 0
2, 83653, Note_on_c, 0, 48, 0
2, 83657, Note_on_c, 0, 38, 73
2, 83660, Note_on_c, 0, 50, 0
2, 83691, Note_on_c, 0, 31, 73
2, 83699, Note_on_c, 0, 38, 0
2, 83711, Note_on_c, 0, 81, 80
2, 83714, Note_on_c, 0, 57, 73
2, 83725, Note_on_c, 0, 38, 73
2, 83745, Note_on_c, 0, 31, 0
2, 83752, Note_on_c, 0, 57, 0
2, 83757, Note_on_c, 0, 42, 73
2, 83780, Note_on_c, 0, 38, 0
2, 83788, Note_on_c, 0, 81, 0
2, 83793, Note_on_c, 0, 69, 80
2, 83793, Note_on_c, 0, 93, 83
2, 83798, Note_on_c, 0, 48, 75
2, 83798, Note_on_c, 0, 50, 74
2, 83833, Note_on_c, 0, 50, 0
2, 83833, Note_on_c, 0, 69, 0
2, 83838, Note_on_c, 0, 48, 0
2, 83838, Note_on_c, 0, 93, 0
2, 83843, Note_on_c, 0, 38, 70
2, 83853, Note_on_c, 0, 42, 0
2, 83876, Note_on_c, 0, 38, 0
2, 83876, Note_on_c, 0, 83, 81
2, 83881, Note_on_c, 0, 31, 69
2, 83884, Note_on_c, 0, 59, 69
2, 83922, Note_on_c, 0, 38, 69
2, 83925, Note_on_c, 0, 59, 0
2, 83925, Note_on_c, 0, 31, 0
2, 83953, Note_on_c, 0, 83, 0
2, 83953, Note_on_c, 0, 43, 68
2, 83968, Note_on_c, 0, 95, 76
2, 83973, Note_on_c, 0, 38, 0
2, 83973, Note_on_c, 0, 71, 76
2, 83978, Note_on_c, 0, 50, 69
2, 84006, Note_on_c, 0, 71, 0
2, 84009, Note_on_c, 0, 95, 0
2, 84014, Note_on_c, 0, 50, 0
2, 84021, Note_on_c, 0, 38, 69
2, 84040, Note_on_c, 0, 43, 0
2, 84060, Note_on_c, 0, 55, 69
2, 84060, Note_on_c, 0, 79, 77
2, 84063, Note_on_c, 0, 38, 0
2, 84065, Note_on_c, 0, 31, 69
2, 84093, Note_on_c, 0, 55, 0
2, 84098, Note_on_c, 0, 38, 69
2, 84113, Note_on_c, 0, 31, 0
2, 84113, Note_on_c, 0, 79, 0
2, 84132, Note_on_c, 0, 43, 69
2, 84142, Note_on_c, 0, 91, 78
2, 84145, Note_on_c, 0, 67, 76
2, 84150, Note_on_c, 0, 50, 69
2, 84173, Note_on_c, 0, 91, 0
2, 84176, Note_on_c, 0, 67, 0
2, 84188, Note_on_c, 0, 50, 0
2, 84196, Note_on_c, 0, 43, 0
2, 84219, Note_on_c, 0, 38, 0
2, 84219, Note_on_c, 0, 31, 69
2, 84234, Note_on_c, 0, 50, 68
2, 84234, Note_on_c, 0, 74, 79
2, 84253, Note_on_c, 0, 38, 69
2, 84260, Note_on_c, 0, 31, 0
2, 84265, Note_on_c, 0, 50, 0
2, 84285, Note_on_c, 0, 43, 69
2, 84296, Note_on_c, 0, 74, 0
2, 84308, Note_on_c, 0, 50, 69
2, 84311, Note_on_c, 0, 86, 82
2, 84316, Note_on_c, 0, 62, 69
2, 84350, Note_on_c, 0, 62, 0
2, 84350, Note_on_c, 0, 50, 0
2, 84350, Note_on_c, 0, 43, 0
2, 84352, Note_on_c, 0, 86, 0
2, 84371, Note_on_c, 0, 38, 0
2, 84378, Note_on_c, 0, 31, 69
2, 84399, Note_on_c, 0, 91, 82
2, 84401, Note_on_c, 0, 55, 69
2, 84401, Note_on_c, 0, 79, 81
2, 84414, Note_on_c, 0, 38, 69
2, 84429, Note_on_c, 0, 91, 0
2, 84429, Note_on_c, 0, 31, 0
2, 84432, Note_on_c, 0, 79, 0
2, 84435, Note_on_c, 0, 55, 0
2, 84461, Note_on_c, 0, 43, 72
2, 84461, Note_on_c, 0, 86, 78
2, 84476, Note_on_c, 0, 38, 0
2, 84476, Note_on_c, 0, 50, 73
2, 84484, Note_on_c, 0, 86, 0
2, 84489, Note_on_c, 0, 67, 73
2, 84507, Note_on_c, 0, 50, 0
2, 84512, Note_on_c, 0, 86, 76
2, 84517, Note_on_c, 0, 67, 0
2, 84520, Note_on_c, 0, 38, 73
2, 84522, Note_on_c, 0, 43, 0
2, 84550, Note_on_c, 0, 38, 0
2, 84550, Note_on_c, 0, 86, 0
2, 84558, Note_on_c, 0, 31, 73
2, 84566, Note_on_c, 0, 81, 78
2, 84566, Note_on_c, 0, 93, 79
2, 84570, Note_on_c, 0, 57, 73
2, 84589, Note_on_c, 0, 38, 73
2, 84596, Note_on_c, 0, 93, 0
2, 84601, Note_on_c, 0, 57, 0
2, 84604, Note_on_c, 0, 31, 0
2, 84607, Note_on_c, 0, 81, 0
2, 84619, Note_on_c, 0, 86, 76
2, 84624, Control_c, 0, 64, 127
2, 84627, Note_on_c, 0, 42, 73
2, 84650, Note_on_c, 0, 50, 73
2, 84653, Note_on_c, 0, 86, 0
2, 84658, Note_on_c, 0, 48, 73
2, 84658, Note_on_c, 0, 69, 74
2, 84665, Note_on_c, 0, 38, 0
2, 84676, Note_on_c, 0, 86, 76
2, 84687, Note_on_c, 0, 69, 0
2, 84689, Note_on_c, 0, 48, 0
2, 84692, Note_on_c, 0, 50, 0
2, 84705, Note_on_c, 0, 38, 73
2, 84708, Control_c, 0, 64, 0
2, 84711, Note_on_c, 0, 42, 0
2, 84713, Note_on_c, 0, 86, 0
2, 84739, Note_on_c, 0, 31, 73
2, 84742, Note_on_c, 0, 78, 77
2, 84742, Note_on_c, 0, 90, 80
2, 84750, Note_on_c, 0, 38, 0
2, 84750, Note_on_c, 0, 54, 73
2, 84773, Control_c, 0, 64, 127
2, 84781, Note_on_c, 0, 54, 0
2, 84781, Note_on_c, 0, 90, 0
2, 84784, Note_on_c, 0, 78, 0
2, 84786, Note_on_c, 0, 38, 73
2, 84797, Note_on_c, 0, 31, 0
2, 84802, Note_on_c, 0, 86, 76
2, 84807, Control_c, 0, 64, 0
2, 84817, Note_on_c, 0, 42, 73
2, 84835, Note_on_c, 0, 86, 0
2, 84840, Note_on_c, 0, 66, 73
2, 84853, Note_on_c, 0, 38, 0
2, 84853, Note_on_c, 0, 48, 73
2, 84853, Note_on_c, 0, 50, 72
2, 84860, Note_on_c, 0, 86, 76
2, 84871, Note_on_c, 0, 66, 0
2, 84881, Note_on_c, 0, 50, 0
2, 84884, Note_on_c, 0, 48, 0
2, 84887, Note_on_c, 0, 86, 0
2, 84890, Note_on_c, 0, 38, 73
2, 84901, Note_on_c, 0, 42, 0
2, 84905, Note_on_c, 0, 86, 78
2, 84918, Note_on_c, 0, 74, 77
2, 84921, Note_on_c, 0, 38, 0
2, 84921, Control_c, 0, 64, 127
2, 84921, Note_on_c, 0, 50, 72
2, 84924, Note_on_c, 0, 31, 73
2, 84952, Note_on_c, 0, 50, 0
2, 84954, Note_on_c, 0, 74, 0
2, 84957, Note_on_c, 0, 86, 0
2, 84957, Note_on_c, 0, 38, 73
2, 84957, Note_on_c, 0, 81, 76
2, 84973, Note_on_c, 0, 31, 0
2, 84991, Note_on_c, 0, 81, 0
2, 84991, Note_on_c, 0, 42, 73
2, 85003, Note_on_c, 0, 62, 73
2, 85016, Control_c, 0, 64, 0
2, 85024, Note_on_c, 0, 48, 73
2, 85024, Note_on_c, 0, 50, 73
2, 85028, Note_on_c, 0, 81, 76
2, 85033, Note_on_c, 0, 62, 0
2, 85051, Note_on_c, 0, 48, 0
2, 85054, Note_on_c, 0, 50, 0
2, 85059, Note_on_c, 0, 81, 0
2, 85064, Note_on_c, 0, 42, 0
2, 85079, Note_on_c, 0, 31, 73
2, 85079, Note_on_c, 0, 93, 78
2, 85082, Note_on_c, 0, 81, 79
2, 85087, Note_on_c, 0, 38, 0
2, 85087, Note_on_c, 0, 57, 73
2, 85102, Control_c, 0, 64, 127
2, 85110, Note_on_c, 0, 93, 0
2, 85110, Note_on_c, 0, 38, 73
2, 85118, Note_on_c, 0, 57, 0
2, 85120, Note_on_c, 0, 81, 0
2, 85128, Note_on_c, 0, 31, 0
2, 85128, Note_on_c, 0, 86, 76
2, 85144, Note_on_c, 0, 42, 73
2, 85154, Note_on_c, 0, 86, 0
2, 85157, Note_on_c, 0, 69, 75
2, 85168, Note_on_c, 0, 50, 75
2, 85178, Note_on_c, 0, 48, 75
2, 85181, Note_on_c, 0, 86, 76
2, 85186, Note_on_c, 0, 69, 0
2, 85198, Note_on_c, 0, 50, 0
2, 85206, Note_on_c, 0, 48, 0
2, 85211, Note_on_c, 0, 86, 0
2, 85216, Note_on_c, 0, 42, 0
2, 85218, Control_c, 0, 64, 0
2, 85234, Note_on_c, 0, 95, 77
2, 85237, Note_on_c, 0, 83, 79
2, 85240, Note_on_c, 0, 59, 70
2, 85242, Note_on_c, 0, 38, 0
2, 85242, Note_on_c, 0, 31, 69
2, 85265, Note_on_c, 0, 95, 0
2, 85273, Note_on_c, 0, 59, 0
2, 85278, Note_on_c, 0, 38, 69
2, 85283, Note_on_c, 0, 83, 0
2, 85283, Note_on_c, 0, 31, 0
2, 85295, Control_c, 0, 64, 127
2, 85298, Note_on_c, 0, 86, 73
2, 85324, Note_on_c, 0, 43, 69
2, 85329, Control_c, 0, 64, 0
2, 85334, Note_on_c, 0, 86, 0
2, 85334, Note_on_c, 0, 71, 70
2, 85346, Note_on_c, 0, 50, 69
2, 85357, Note_on_c, 0, 86, 72
2, 85367, Note_on_c, 0, 71, 0
2, 85380, Note_on_c, 0, 50, 0
2, 85392, Note_on_c, 0, 86, 0
2, 85395, Note_on_c, 0, 43, 0
2, 85415, Note_on_c, 0, 31, 69
2, 85415, Note_on_c, 0, 91, 76
2, 85418, Note_on_c, 0, 79, 75
2, 85423, Note_on_c, 0, 38, 0
2, 85423, Note_on_c, 0, 55, 69
2, 85438, Control_c, 0, 64, 127
2, 85451, Note_on_c, 0, 38, 69
2, 85454, Note_on_c, 0, 55, 0
2, 85456, Note_on_c, 0, 91, 0
2, 85459, Note_on_c, 0, 79, 0
2, 85464, Note_on_c, 0, 31, 0
2, 85467, Note_on_c, 0, 86, 72
2, 85485, Note_on_c, 0, 43, 69
2, 85496, Note_on_c, 0, 86, 0
2, 85504, Note_on_c, 0, 67, 69
2, 85519, Note_on_c, 0, 50, 69
2, 85519, Note_on_c, 0, 86, 72
2, 85527, Control_c, 0, 64, 0
2, 85537, Note_on_c, 0, 67, 0
2, 85548, Note_on_c, 0, 50, 0
2, 85555, Note_on_c, 0, 86, 0
2, 85555, Note_on_c, 0, 43, 0
2, 85583, Note_on_c, 0, 38, 0
2, 85586, Note_on_c, 0, 31, 69
2, 85589, Note_on_c, 0, 86, 77
2, 85592, Note_on_c, 0, 74, 76
2, 85597, Note_on_c, 0, 50, 69
2, 85623, Note_on_c, 0, 74, 0
2, 85625, Note_on_c, 0, 38, 69
2, 85628, Note_on_c, 0, 50, 0
2, 85639, Control_c, 0, 64, 127
2, 85642, Note_on_c, 0, 86, 0
2, 85642, Note_on_c, 0, 81, 74
2, 85647, Note_on_c, 0, 31, 0
2, 85662, Note_on_c, 0, 42, 69
2, 85670, Note_on_c, 0, 62, 69
2, 85677, Note_on_c, 0, 81, 0
2, 85693, Note_on_c, 0, 48, 69
2, 85693, Note_on_c, 0, 50, 69
2, 85705, Note_on_c, 0, 62, 0
2, 85705, Note_on_c, 0, 81, 72
2, 85723, Note_on_c, 0, 48, 0
2, 85723, Note_on_c, 0, 50, 0
2, 85728, Control_c, 0, 64, 0
2, 85731, Note_on_c, 0, 81, 0
2, 85744, Note_on_c, 0, 42, 0
2, 85756, Note_on_c, 0, 81, 75
2, 85756, Note_on_c, 0, 93, 77
2, 85759, Note_on_c, 0, 38, 0
2, 85759, Note_on_c, 0, 57, 71
2, 85762, Note_on_c, 0, 31, 72
2, 85790, Note_on_c, 0, 57, 0
2, 85794, Note_on_c, 0, 93, 0
2, 85794, Control_c, 0, 64, 127
2, 85794, Note_on_c, 0, 38, 73
2, 85797, Note_on_c, 0, 81, 0
2, 85802, Note_on_c, 0, 31, 0
2, 85817, Note_on_c, 0, 86, 76
2, 85833, Note_on_c, 0, 42, 73
2, 85840, Note_on_c, 0, 86, 0
2, 85845, Note_on_c, 0, 69, 74
2, 85868, Note_on_c, 0, 48, 73
2, 85868, Note_on_c, 0, 50, 73
2, 85868, Note_on_c, 0, 86, 76
2, 85873, Note_on_c, 0, 69, 0
2, 85893, Note_on_c, 0, 50, 0
2, 85893, Note_on_c, 0, 48, 0
2, 85901, Note_on_c, 0, 86, 0
2, 85916, Control_c, 0, 64, 0
2, 85921, Note_on_c, 0, 38, 0
2, 85921, Note_on_c, 0, 42, 0
2, 85921, Note_on_c, 0, 83, 79
2, 85921, Note_on_c, 0, 95, 80
2, 85929, Note_on_c, 0, 31, 72
2, 85929, Note_on_c, 0, 59, 73
2, 85952, Note_on_c, 0, 95, 0
2, 85957, Note_on_c, 0, 59, 0
2, 85961, Note_on_c, 0, 83, 0
2, 85964, Note_on_c, 0, 38, 73
2, 85969, Note_on_c, 0, 86, 76
2, 85987, Note_on_c, 0, 31, 0
2, 85998, Note_on_c, 0, 86, 0
2, 85998, Note_on_c, 0, 71, 74
2, 86013, Note_on_c, 0, 43, 73
2, 86021, Control_c, 0, 64, 127
2, 86021, Note_on_c, 0, 50, 73
2, 86021, Note_on_c, 0, 86, 76
2, 86032, Note_on_c, 0, 71, 0
2, 86052, Note_on_c, 0, 50, 0
2, 86056, Note_on_c, 0, 86, 0
2, 86067, Control_c, 0, 64, 0
2, 86072, Note_on_c, 0, 43, 0
2, 86077, Note_on_c, 0, 91, 79
2, 86084, Note_on_c, 0, 55, 73
2, 86084, Note_on_c, 0, 79, 79
2, 86087, Note_on_c, 0, 38, 0
2, 86098, Note_on_c, 0, 31, 73
2, 86118, Note_on_c, 0, 55, 0
2, 86121, Note_on_c, 0, 91, 0
2, 86124, Note_on_c, 0, 79, 0
2, 86124, Control_c, 0, 64, 127
2, 86134, Note_on_c, 0, 38, 73
2, 86134, Note_on_c, 0, 86, 77
2, 86147, Note_on_c, 0, 31, 0
2, 86159, Note_on_c, 0, 86, 0
2, 86159, Note_on_c, 0, 67, 73
2, 86164, Note_on_c, 0, 43, 73
2, 86179, Note_on_c, 0, 86, 76
2, 86187, Note_on_c, 0, 50, 73
2, 86190, Note_on_c, 0, 67, 0
2, 86195, Note_on_c, 0, 38, 0
2, 86198, Control_c, 0, 64, 0
2, 86216, Note_on_c, 0, 86, 0
2, 86219, Note_on_c, 0, 43, 0
2, 86219, Note_on_c, 0, 50, 0
2, 86237, Note_on_c, 0, 86, 79
2, 86242, Note_on_c, 0, 74, 79
2, 86245, Note_on_c, 0, 50, 73
2, 86252, Note_on_c, 0, 31, 73
2, 86275, Note_on_c, 0, 50, 0
2, 86280, Note_on_c, 0, 38, 73
2, 86285, Note_on_c, 0, 74, 0
2, 86296, Note_on_c, 0, 86, 0
2, 86296, Note_on_c, 0, 81, 77
2, 86303, Note_on_c, 0, 31, 0
2, 86303, Control_c, 0, 64, 127
2, 86319, Note_on_c, 0, 81, 0
2, 86319, Note_on_c, 0, 62, 72
2, 86331, Note_on_c, 0, 42, 73
2, 86336, Control_c, 0, 64, 0
2, 86341, Note_on_c, 0, 48, 73
2, 86344, Note_on_c, 0, 50, 73
2, 86346, Note_on_c, 0, 62, 0
2, 86346, Note_on_c, 0, 81, 76
2, 86369, Note_on_c, 0, 81, 0
2, 86369, Note_on_c, 0, 48, 0
2, 86372, Note_on_c, 0, 50, 0
2, 86375, Note_on_c, 0, 42, 0
2, 86391, Note_on_c, 0, 38, 0
2, 86393, Note_on_c, 0, 93, 79
2, 86396, Note_on_c, 0, 57, 73
2, 86396, Note_on_c, 0, 81, 80
2, 86401, Note_on_c, 0, 31, 73
2, 86435, Note_on_c, 0, 57, 0
2, 86435, Note_on_c, 0, 93, 0
2, 86438, Control_c, 0, 64, 127
2, 86440, Note_on_c, 0, 81, 0
2, 86440, Note_on_c, 0, 38, 73
2, 86448, Note_on_c, 0, 86, 75
2, 86456, Note_on_c, 0, 31, 0
2, 86471, Note_on_c, 0, 86, 0
2, 86471, Note_on_c, 0, 42, 73
2, 86479, Note_on_c, 0, 69, 73
2, 86502, Note_on_c, 0, 86, 76
2, 86507, Note_on_c, 0, 48, 73
2, 86507, Note_on_c, 0, 50, 73
2, 86510, Note_on_c, 0, 69, 0
2, 86533, Note_on_c, 0, 50, 0
2, 86536, Note_on_c, 0, 86, 0
2, 86538, Note_on_c, 0, 48, 0
2, 86557, Note_on_c, 0, 42, 0
2, 86560, Note_on_c, 0, 95, 79
2, 86562, Note_on_c, 0, 83, 80
2, 86565, Note_on_c, 0, 38, 0
2, 86565, Note_on_c, 0, 59, 73
2, 86581, Note_on_c, 0, 31, 72
2, 86601, Note_on_c, 0, 95, 0
2, 86606, Note_on_c, 0, 59, 0
2, 86608, Note_on_c, 0, 38, 73
2, 86611, Note_on_c, 0, 83, 0
2, 86619, Note_on_c, 0, 86, 76
2, 86632, Note_on_c, 0, 31, 0
2, 86632, Note_on_c, 0, 43, 73
2, 86636, Note_on_c, 0, 71, 74
2, 86662, Note_on_c, 0, 50, 73
2, 86670, Note_on_c, 0, 71, 0
2, 86670, Control_c, 0, 64, 0
2, 86690, Note_on_c, 0, 50, 0
2, 86695, Note_on_c, 0, 86, 0
2, 86705, Note_on_c, 0, 43, 0
2, 86708, Note_on_c, 0, 91, 79
2, 86711, Note_on_c, 0, 79, 78
2, 86716, Note_on_c, 0, 55, 73
2, 86721, Note_on_c, 0, 38, 0
2, 86721, Note_on_c, 0, 31, 73
2, 86749, Note_on_c, 0, 79, 0
2, 86752, Note_on_c, 0, 91, 0
2, 86752, Note_on_c, 0, 38, 73
2, 86752, Note_on_c, 0, 86, 77
2, 86754, Note_on_c, 0, 55, 0
2, 86765, Note_on_c, 0, 31, 0
2, 86765, Control_c, 0, 64, 127
2, 86783, Note_on_c, 0, 86, 0
2, 86783, Note_on_c, 0, 43, 72
2, 86788, Note_on_c, 0, 67, 72
2, 86811, Note_on_c, 0, 50, 73
2, 86811, Note_on_c, 0, 86, 76
2, 86822, Note_on_c, 0, 67, 0
2, 86848, Note_on_c, 0, 86, 0
2, 86850, Note_on_c, 0, 50, 0
2, 86858, Note_on_c, 0, 43, 0
2, 86863, Control_c, 0, 64, 0
2, 86873, Note_on_c, 0, 86, 81
2, 86878, Note_on_c, 0, 74, 80
2, 86881, Note_on_c, 0, 38, 0
2, 86881, Note_on_c, 0, 50, 73
2, 86884, Note_on_c, 0, 31, 72
2, 86912, Note_on_c, 0, 50, 0
2, 86917, Note_on_c, 0, 74, 0
2, 86917, Note_on_c, 0, 38, 73
2, 86917, Note_on_c, 0, 81, 78
2, 86921, Control_c, 0, 64, 127
2, 86932, Note_on_c, 0, 86, 0
2, 86932, Note_on_c, 0, 31, 0
2, 86943, Note_on_c, 0, 81, 0
2, 86945, Note_on_c, 0, 42, 73
2, 86948, Note_on_c, 0, 62, 73
2, 86967, Note_on_c, 0, 48, 73
2, 86969, Note_on_c, 0, 50, 73
2, 86969, Note_on_c, 0, 81, 76
2, 86980, Note_on_c, 0, 62, 0
2, 86995, Note_on_c, 0, 50, 0
2, 87000, Note_on_c, 0, 48, 0
2, 87000, Note_on_c, 0, 81, 0
2, 87003, Control_c, 0, 64, 0
2, 87026, Note_on_c, 0, 42, 0
2, 87029, Note_on_c, 0, 93, 79
2, 87032, Note_on_c, 0, 38, 0
2, 87032, Note_on_c, 0, 81, 80
2, 87037, Note_on_c, 0, 57, 78
2, 87044, Note_on_c, 0, 31, 79
2, 87067, Note_on_c, 0, 38, 77
2, 87070, Note_on_c, 0, 57, 0
2, 87070, Note_on_c, 0, 93, 0
2, 87073, Control_c, 0, 64, 127
2, 87076, Note_on_c, 0, 81, 0
2, 87076, Note_on_c, 0, 86, 76
2, 87084, Note_on_c, 0, 31, 0
2, 87102, Note_on_c, 0, 86, 0
2, 87102, Note_on_c, 0, 69, 74
2, 87107, Note_on_c, 0, 42, 73
2, 87125, Note_on_c, 0, 50, 73
2, 87133, Note_on_c, 0, 48, 73
2, 87133, Note_on_c, 0, 86, 76
2, 87136, Note_on_c, 0, 69, 0
2, 87163, Control_c, 0, 64, 0
2, 87166, Note_on_c, 0, 50, 0
2, 87171, Note_on_c, 0, 86, 0
2, 87176, Note_on_c, 0, 42, 0
2, 87176, Note_on_c, 0, 48, 0
2, 87184, Note_on_c, 0, 38, 0
2, 87186, Note_on_c, 0, 59, 73
2, 87186, Note_on_c, 0, 95, 82
2, 87189, Note_on_c, 0, 83, 83
2, 87197, Note_on_c, 0, 31, 75
2, 87217, Note_on_c, 0, 59, 0
2, 87228, Note_on_c, 0, 95, 0
2, 87232, Note_on_c, 0, 38, 74
2, 87235, Note_on_c, 0, 31, 0
2, 87240, Note_on_c, 0, 83, 0
2, 87240, Note_on_c, 0, 86, 78
2, 87260, Control_c, 0, 64, 127
2, 87263, Note_on_c, 0, 86, 0
2, 87263, Note_on_c, 0, 43, 73
2, 87263, Note_on_c, 0, 71, 75
2, 87286, Note_on_c, 0, 50, 73
2, 87294, Note_on_c, 0, 86, 76
2, 87297, Control_c, 0, 64, 0
2, 87300, Note_on_c, 0, 71, 0
2, 87320, Note_on_c, 0, 50, 0
2, 87325, Note_on_c, 0, 86, 0
2, 87337, Note_on_c, 0, 43, 0
2, 87337, Note_on_c, 0, 38, 0
2, 87340, Note_on_c, 0, 91, 79
2, 87345, Note_on_c, 0, 79, 78
2, 87350, Note_on_c, 0, 31, 75
2, 87350, Note_on_c, 0, 55, 76
2, 87362, Control_c, 0, 64, 127
2, 87377, Note_on_c, 0, 55, 0
2, 87380, Note_on_c, 0, 79, 0
2, 87380, Note_on_c, 0, 86, 77
2, 87385, Note_on_c, 0, 38, 74
2, 87390, Note_on_c, 0, 91, 0
2, 87395, Control_c, 0, 64, 0
2, 87398, Note_on_c, 0, 31, 0
2, 87416, Note_on_c, 0, 86, 0
2, 87416, Note_on_c, 0, 43, 73
2, 87421, Note_on_c, 0, 67, 72
2, 87447, Note_on_c, 0, 50, 73
2, 87447, Note_on_c, 0, 86, 76
2, 87451, Note_on_c, 0, 67, 0
2, 87459, Control_c, 0, 64, 127
2, 87479, Note_on_c, 0, 50, 0
2, 87484, Note_on_c, 0, 86, 0
2, 87492, Note_on_c, 0, 43, 0
2, 87502, Note_on_c, 0, 95, 78
2, 87505, Note_on_c, 0, 83, 80
2, 87510, Note_on_c, 0, 31, 76
2, 87513, Note_on_c, 0, 38, 0
2, 87513, Note_on_c, 0, 59, 78
2, 87533, Note_on_c, 0, 95, 0
2, 87538, Note_on_c, 0, 59, 0
2, 87541, Note_on_c, 0, 38, 75
2, 87544, Note_on_c, 0, 83, 0
2, 87544, Note_on_c, 0, 86, 76
2, 87559, Note_on_c, 0, 31, 0
2, 87567, Note_on_c, 0, 43, 73
2, 87571, Note_on_c, 0, 86, 0
2, 87584, Note_on_c, 0, 71, 74
2, 87592, Note_on_c, 0, 50, 73
2, 87599, Note_on_c, 0, 86, 76
2, 87610, Note_on_c, 0, 71, 0
2, 87633, Note_on_c, 0, 50, 0
2, 87636, Note_on_c, 0, 86, 0
2, 87643, Note_on_c, 0, 43, 0
2, 87654, Note_on_c, 0, 91, 78
2, 87657, Note_on_c, 0, 79, 78
2, 87660, Note_on_c, 0, 38, 0
2, 87663, Note_on_c, 0, 31, 77
2, 87663, Note_on_c, 0, 55, 78
2, 87693, Note_on_c, 0, 55, 0
2, 87696, Note_on_c, 0, 91, 0
2, 87696, Note_on_c, 0, 79, 0
2, 87701, Note_on_c, 0, 86, 75
2, 87706, Note_on_c, 0, 38, 74
2, 87709, Note_on_c, 0, 31, 0
2, 87721, Note_on_c, 0, 43, 73
2, 87732, Note_on_c, 0, 86, 0
2, 87736, Note_on_c, 0, 50, 73
2, 87736, Note_on_c, 0, 67, 73
2, 87749, Control_c, 0, 64, 0
2, 87761, Note_on_c, 0, 86, 76
2, 87769, Note_on_c, 0, 67, 0
2, 87777, Note_on_c, 0, 50, 0
2, 87789, Note_on_c, 0, 43, 0
2, 87800, Note_on_c, 0, 86, 0
2, 87800, Control_c, 0, 64, 127
2, 87805, Note_on_c, 0, 38, 0
2, 87808, Note_on_c, 0, 95, 82
2, 87810, Note_on_c, 0, 83, 83
2, 87818, Note_on_c, 0, 59, 76
2, 87826, Note_on_c, 0, 31, 77
2, 87849, Note_on_c, 0, 95, 0
2, 87852, Note_on_c, 0, 38, 75
2, 87856, Note_on_c, 0, 59, 0
2, 87861, Note_on_c, 0, 86, 78
2, 87869, Note_on_c, 0, 83, 0
2, 87874, Note_on_c, 0, 43, 73
2, 87884, Note_on_c, 0, 86, 0
2, 87889, Note_on_c, 0, 31, 0
2, 87889, Note_on_c, 0, 71, 74
2, 87897, Note_on_c, 0, 38, 0
2, 87912, Note_on_c, 0, 86, 76
2, 87915, Note_on_c, 0, 43, 0
2, 87920, Note_on_c, 0, 47, 73
2, 87923, Note_on_c, 0, 71, 0
2, 87946, Note_on_c, 0, 86, 0
2, 87951, Note_on_c, 0, 50, 77
2, 87966, Note_on_c, 0, 91, 82
2, 87971, Note_on_c, 0, 79, 82
2, 87974, Note_on_c, 0, 55, 80
2, 87989, Note_on_c, 0, 47, 0
2, 88001, Note_on_c, 0, 91, 0
2, 88001, Note_on_c, 0, 59, 79
2, 88004, Note_on_c, 0, 86, 82
2, 88009, Note_on_c, 0, 79, 0
2, 88014, Note_on_c, 0, 55, 0
2, 88017, Note_on_c, 0, 50, 0
2, 88022, Note_on_c, 0, 62, 84
2, 88032, Note_on_c, 0, 59, 0
2, 88050, Note_on_c, 0, 67, 84
2, 88073, Note_on_c, 0, 71, 87
2, 88096, Note_on_c, 0, 86, 0
2, 88109, Note_on_c, 0, 74, 91
2, 88149, Note_on_c, 0, 74, 0
2, 88162, Note_on_c, 0, 71, 0
2, 88162, Note_on_c, 0, 67, 0
2, 88165, Control_c, 0, 64, 0
2, 88177, Note_on_c, 0, 62, 0
2, 88213, Note_on_c, 0, 64, 100
2, 88253, Note_on_c, 0, 64, 0
2, 88279, Note_on_c, 0, 59, 107
2, 88279, Note_on_c, 0, 62, 107
2, 88284, Control_c, 0, 64, 127
2, 88299, Note_on_c, 0, 71, 111
2, 88307, Note_on_c, 0, 83, 114
2, 88307, Note_on_c, 0, 86, 115
2, 88314, Note_on_c, 0, 74, 112
2, 88340, Note_on_c, 0, 71, 0
2, 88348, Note_on_c, 0, 86, 0
2, 88348, Note_on_c, 0, 83, 0
2, 88348, Note_on_c, 0, 74, 0
2, 88356, Note_on_c, 0, 62, 0
2, 88359, Note_on_c, 0, 59, 0
2, 88511, Note_on_c, 0, 31, 109
2, 88511, Note_on_c, 0, 55, 112
2, 88514, Note_on_c, 0, 38, 111
2, 88514, Note_on_c, 0, 43, 112
2, 88514, Note_on_c, 0, 50, 111
2, 88593, Note_on_c, 0, 50, 0
2, 88600, Note_on_c, 0, 55, 0
2, 88672, Note_on_c, 0, 38, 0
2, 88684, Note_on_c, 0, 43, 0
2, 88687, Note_on_c, 0, 31, 0
2, 88840, Control_c, 0, 64, 0
2, 91027, Control_c, 0, 67, 127
2, 91322, Note_on_c, 0, 38, 41
2, 91322, Note_on_c, 0, 50, 54
2, 91360, Note_on_c, 0, 50, 0
2, 91360, Note_on_c, 0, 38, 0
2, 91564, Note_on_c, 0, 45, 52
2, 91595, Note_on_c, 0, 45, 0
2, 91765, Note_on_c, 0, 33, 48
2, 91765, Note_on_c, 0, 45, 48
2, 91795, Note_on_c, 0, 45, 0
2, 91800, Note_on_c, 0, 33, 0
2, 91965, Note_on_c, 0, 45, 48
2, 92004, Note_on_c, 0, 45, 0
2, 92178, Note_on_c, 0, 50, 48
2, 92181, Note_on_c, 0, 38, 48
2, 92217, Note_on_c, 0, 50, 0
2, 92220, Note_on_c, 0, 38, 0
2, 92390, Note_on_c, 0, 45, 48
2, 92417, Note_on_c, 0, 45, 0
2, 92592, Note_on_c, 0, 45, 48
2, 92595, Note_on_c, 0, 33, 48
2, 92626, Note_on_c, 0, 45, 0
2, 92629, Note_on_c, 0, 33, 0
2, 92801, Note_on_c, 0, 45, 48
2, 92829, Note_on_c, 0, 45, 0
2, 92979, Note_on_c, 0, 74, 51
2, 92982, Note_on_c, 0, 66, 54
2, 92985, Note_on_c, 0, 69, 55
2, 92992, Note_on_c, 0, 50, 54
2, 92997, Note_on_c, 0, 38, 54
2, 93017, Note_on_c, 0, 69, 0
2, 93020, Note_on_c, 0, 66, 0
2, 93023, Note_on_c, 0, 74, 0
2, 93039, Note_on_c, 0, 50, 0
2, 93041, Note_on_c, 0, 38, 0
2, 93082, Note_on_c, 0, 67, 54
2, 93085, Note_on_c, 0, 73, 55
2, 93088, Note_on_c, 0, 64, 54
2, 93120, Note_on_c, 0, 64, 0
2, 93120, Note_on_c, 0, 73, 0
2, 93120, Note_on_c, 0, 67, 0
2, 93181, Note_on_c, 0, 66, 53
2, 93181, Note_on_c, 0, 69, 55
2, 93181, Note_on_c, 0, 74, 54
2, 93185, Note_on_c, 0, 45, 54
2, 93208, Note_on_c, 0, 69, 0
2, 93216, Note_on_c, 0, 74, 0
2, 93221, Note_on_c, 0, 66, 0
2, 93221, Note_on_c, 0, 45, 0
2, 93269, Note_on_c, 0, 64, 56
2, 93269, Note_on_c, 0, 67, 58
2, 93269, Note_on_c, 0, 73, 60
2, 93304, Note_on_c, 0, 73, 0
2, 93307, Note_on_c, 0, 67, 0
2, 93307, Note_on_c, 0, 64, 0
2, 93368, Note_on_c, 0, 74, 57
2, 93371, Note_on_c, 0, 66, 58
2, 93371, Note_on_c, 0, 69, 60
2, 93383, Note_on_c, 0, 33, 54
2, 93383, Note_on_c, 0, 45, 54
2, 93400, Note_on_c, 0, 74, 0
2, 93411, Note_on_c, 0, 66, 0
2, 93411, Note_on_c, 0, 69, 0
2, 93422, Note_on_c, 0, 45, 0
2, 93424, Note_on_c, 0, 33, 0
2, 93582, Note_on_c, 0, 67, 54
2, 93585, Note_on_c, 0, 45, 54
2, 93585, Note_on_c, 0, 64, 54
2, 93585, Note_on_c, 0, 73, 54
2, 93613, Note_on_c, 0, 64, 0
2, 93613, Note_on_c, 0, 67, 0
2, 93617, Note_on_c, 0, 73, 0
2, 93625, Note_on_c, 0, 45, 0
2, 93777, Note_on_c, 0, 67, 56
2, 93777, Note_on_c, 0, 76, 64
2, 93780, Note_on_c, 0, 69, 63
2, 93795, Note_on_c, 0, 38, 54
2, 93795, Note_on_c, 0, 50, 54
2, 93800, Control_c, 0, 64, 127
2, 93808, Note_on_c, 0, 67, 0
2, 93815, Note_on_c, 0, 76, 0
2, 93815, Note_on_c, 0, 69, 0
2, 93826, Note_on_c, 0, 38, 0
2, 93836, Note_on_c, 0, 50, 0
2, 93966, Control_c, 0, 64, 0
2, 93971, Note_on_c, 0, 45, 54
2, 93971, Note_on_c, 0, 66, 54
2, 93971, Note_on_c, 0, 74, 54
2, 93978, Control_c, 0, 67, 0
2, 94003, Note_on_c, 0, 45, 0
2, 94006, Note_on_c, 0, 74, 0
2, 94009, Note_on_c, 0, 78, 54
2, 94012, Note_on_c, 0, 69, 53
2, 94020, Note_on_c, 0, 66, 0
2, 94040, Note_on_c, 0, 78, 0
2, 94060, Note_on_c, 0, 69, 0
2, 94060, Note_on_c, 0, 81, 61
2, 94063, Note_on_c, 0, 74, 60
2, 94101, Note_on_c, 0, 74, 0
2, 94101, Note_on_c, 0, 81, 0
2, 94101, Note_on_c, 0, 86, 62
2, 94104, Note_on_c, 0, 78, 59
2, 94140, Note_on_c, 0, 78, 0
2, 94155, Note_on_c, 0, 81, 55
2, 94155, Note_on_c, 0, 90, 54
2, 94160, Note_on_c, 0, 45, 57
2, 94163, Note_on_c, 0, 33, 57
2, 94201, Note_on_c, 0, 33, 0
2, 94209, Note_on_c, 0, 45, 0
2, 94338, Note_on_c, 0, 45, 57
2, 94374, Control_c, 0, 64, 127
2, 94405, Note_on_c, 0, 86, 0
2, 94415, Note_on_c, 0, 81, 0
2, 94415, Note_on_c, 0, 90, 0
2, 94420, Note_on_c, 0, 45, 0
2, 94514, Note_on_c, 0, 91, 62
2, 94517, Note_on_c, 0, 38, 57
2, 94517, Note_on_c, 0, 50, 57
2, 94517, Note_on_c, 0, 86, 65
2, 94520, Control_c, 0, 64, 0
2, 94523, Note_on_c, 0, 83, 65
2, 94548, Note_on_c, 0, 83, 0
2, 94548, Note_on_c, 0, 50, 0
2, 94548, Note_on_c, 0, 91, 0
2, 94548, Note_on_c, 0, 38, 0
2, 94548, Note_on_c, 0, 86, 0
2, 94608, Note_on_c, 0, 85, 59
2, 94608, Note_on_c, 0, 90, 63
2, 94613, Note_on_c, 0, 81, 64
2, 94638, Note_on_c, 0, 81, 0
2, 94638, Note_on_c, 0, 90, 0
2, 94638, Note_on_c, 0, 85, 0
2, 94698, Note_on_c, 0, 91, 62
2, 94701, Note_on_c, 0, 83, 66
2, 94701, Note_on_c, 0, 86, 67
2, 94706, Note_on_c, 0, 45, 57
2, 94729, Note_on_c, 0, 91, 0
2, 94732, Note_on_c, 0, 83, 0
2, 94732, Note_on_c, 0, 86, 0
2, 94737, Note_on_c, 0, 45, 0
2, 94792, Note_on_c, 0, 81, 64
2, 94792, Note_on_c, 0, 85, 67
2, 94792, Note_on_c, 0, 90, 68
2, 94825, Note_on_c, 0, 81, 0
2, 94828, Note_on_c, 0, 85, 0
2, 94831, Note_on_c, 0, 90, 0
2, 94879, Note_on_c, 0, 88, 65
2, 94882, Note_on_c, 0, 79, 65
2, 94882, Note_on_c, 0, 83, 68
2, 94887, Note_on_c, 0, 45, 57
2, 94889, Note_on_c, 0, 33, 57
2, 94925, Note_on_c, 0, 45, 0
2, 94928, Note_on_c, 0, 33, 0
2, 94953, Note_on_c, 0, 83, 0
2, 94958, Note_on_c, 0, 88, 0
2, 94970, Note_on_c, 0, 79, 0
2, 94973, Note_on_c, 0, 78, 63
2, 94973, Note_on_c, 0, 81, 65
2, 94973, Note_on_c, 0, 86, 64
2, 95004, Note_on_c, 0, 81, 0
2, 95011, Note_on_c, 0, 86, 0
2, 95011, Note_on_c, 0, 78, 0
2, 95067, Note_on_c, 0, 81, 62
2, 95070, Note_on_c, 0, 74, 62
2, 95075, Note_on_c, 0, 45, 57
2, 95075, Note_on_c, 0, 78, 63
2, 95100, Note_on_c, 0, 45, 0
2, 95103, Note_on_c, 0, 74, 0
2, 95105, Note_on_c, 0, 81, 0
2, 95105, Note_on_c, 0, 78, 0
2, 95166, Note_on_c, 0, 78, 58
2, 95171, Note_on_c, 0, 69, 66
2, 95171, Note_on_c, 0, 74, 67
2, 95196, Note_on_c, 0, 78, 0
2, 95206, Note_on_c, 0, 74, 0
2, 95206, Note_on_c, 0, 69, 0
2, 95274, Note_on_c, 0, 67, 63
2, 95274, Note_on_c, 0, 74, 71
2, 95279, Note_on_c, 0, 40, 57
2, 95279, Note_on_c, 0, 52, 57
2, 95284, Note_on_c, 0, 70, 72
2, 95315, Note_on_c, 0, 52, 0
2, 95318, Note_on_c, 0, 40, 0
2, 95462, Control_c, 0, 64, 127
2, 95489, Note_on_c, 0, 52, 57
2, 95489, Note_on_c, 0, 64, 57
2, 95500, Note_on_c, 0, 70, 0
2, 95500, Note_on_c, 0, 74, 0
2, 95515, Note_on_c, 0, 64, 0
2, 95515, Note_on_c, 0, 67, 0
2, 95520, Note_on_c, 0, 52, 0
2, 95662, Note_on_c, 0, 78, 58
2, 95662, Note_on_c, 0, 82, 60
2, 95662, Note_on_c, 0, 86, 59
2, 95682, Control_c, 0, 64, 0
2, 95682, Note_on_c, 0, 85, 62
2, 95685, Note_on_c, 0, 79, 61
2, 95685, Note_on_c, 0, 81, 64
2, 95693, Note_on_c, 0, 33, 57
2, 95693, Note_on_c, 0, 45, 57
2, 95698, Note_on_c, 0, 86, 0
2, 95698, Note_on_c, 0, 82, 0
2, 95701, Note_on_c, 0, 78, 0
2, 95721, Note_on_c, 0, 45, 0
2, 95721, Note_on_c, 0, 33, 0
2, 95900, Note_on_c, 0, 57, 56
2, 95908, Control_c, 0, 64, 127
2, 95911, Note_on_c, 0, 79, 0
2, 95939, Note_on_c, 0, 81, 0
2, 95939, Control_c, 0, 64, 0
2, 95984, Note_on_c, 0, 57, 0
2, 95987, Note_on_c, 0, 85, 0
2, 96004, Control_c, 0, 67, 127
2, 96007, Control_c, 0, 64, 127
2, 96047, Control_c, 0, 64, 0
2, 96078, Note_on_c, 0, 76, 61
2, 96078, Note_on_c, 0, 79, 63
2, 96078, Note_on_c, 0, 83, 66
2, 96083, Note_on_c, 0, 37, 57
2, 96083, Note_on_c, 0, 57, 58
2, 96111, Note_on_c, 0, 83, 0
2, 96118, Note_on_c, 0, 76, 0
2, 96118, Note_on_c, 0, 79, 0
2, 96131, Note_on_c, 0, 37, 0
2, 96174, Note_on_c, 0, 64, 56
2, 96174, Note_on_c, 0, 67, 55
2, 96174, Note_on_c, 0, 71, 55
2, 96211, Note_on_c, 0, 71, 0
2, 96211, Note_on_c, 0, 67, 0
2, 96211, Note_on_c, 0, 64, 0
2, 96272, Note_on_c, 0, 71, 57
2, 96277, Note_on_c, 0, 49, 58
2, 96277, Note_on_c, 0, 64, 54
2, 96277, Note_on_c, 0, 67, 53
2, 96302, Note_on_c, 0, 67, 0
2, 96314, Note_on_c, 0, 49, 0
2, 96314, Note_on_c, 0, 71, 0
2, 96322, Note_on_c, 0, 64, 0
2, 96357, Note_on_c, 0, 64, 55
2, 96357, Note_on_c, 0, 67, 54
2, 96357, Note_on_c, 0, 71, 54
2, 96388, Note_on_c, 0, 67, 0
2, 96396, Note_on_c, 0, 71, 0
2, 96396, Note_on_c, 0, 64, 0
2, 96441, Note_on_c, 0, 73, 61
2, 96453, Note_on_c, 0, 71, 63
2, 96458, Note_on_c, 0, 65, 63
2, 96461, Note_on_c, 0, 38, 58
2, 96466, Note_on_c, 0, 68, 63
2, 96473, Note_on_c, 0, 73, 0
2, 96491, Note_on_c, 0, 71, 0
2, 96491, Note_on_c, 0, 65, 0
2, 96491, Note_on_c, 0, 68, 0
2, 96508, Note_on_c, 0, 38, 0
2, 96629, Note_on_c, 0, 66, 54
2, 96632, Note_on_c, 0, 69, 44
2, 96642, Note_on_c, 0, 50, 54
2, 96667, Note_on_c, 0, 69, 0
2, 96672, Note_on_c, 0, 66, 0
2, 96680, Note_on_c, 0, 50, 0
2, 96813, Note_on_c, 0, 73, 51
2, 96813, Note_on_c, 0, 79, 55
2, 96813, Note_on_c, 0, 83, 56
2, 96826, Note_on_c, 0, 40, 54
2, 96843, Note_on_c, 0, 83, 0
2, 96843, Note_on_c, 0, 73, 0
2, 96851, Note_on_c, 0, 79, 0
2, 96874, Note_on_c, 0, 40, 0
2, 96917, Note_on_c, 0, 61, 54
2, 96917, Note_on_c, 0, 71, 55
2, 96925, Note_on_c, 0, 67, 53
2, 96955, Note_on_c, 0, 67, 0
2, 96955, Note_on_c, 0, 61, 0
2, 96963, Note_on_c, 0, 71, 0
2, 97006, Note_on_c, 0, 71, 54
2, 97009, Note_on_c, 0, 67, 54
2, 97017, Note_on_c, 0, 57, 0
2, 97017, Note_on_c, 0, 52, 54
2, 97017, Note_on_c, 0, 61, 53
2, 97049, Note_on_c, 0, 52, 0
2, 97054, Note_on_c, 0, 71, 0
2, 97054, Note_on_c, 0, 67, 0
2, 97054, Note_on_c, 0, 61, 0
2, 97097, Note_on_c, 0, 71, 55
2, 97100, Note_on_c, 0, 67, 58
2, 97113, Note_on_c, 0, 61, 54
2, 97141, Note_on_c, 0, 67, 0
2, 97148, Note_on_c, 0, 71, 0
2, 97151, Note_on_c, 0, 61, 0
2, 97179, Note_on_c, 0, 73, 55
2, 97202, Note_on_c, 0, 62, 58
2, 97202, Note_on_c, 0, 71, 60
2, 97215, Note_on_c, 0, 42, 60
2, 97215, Note_on_c, 0, 68, 60
2, 97217, Note_on_c, 0, 73, 0
2, 97245, Note_on_c, 0, 42, 0
2, 97256, Note_on_c, 0, 68, 0
2, 97264, Note_on_c, 0, 71, 0
2, 97380, Note_on_c, 0, 66, 53
2, 97383, Note_on_c, 0, 69, 55
2, 97390, Note_on_c, 0, 54, 54
2, 97415, Note_on_c, 0, 69, 0
2, 97420, Note_on_c, 0, 66, 0
2, 97435, Note_on_c, 0, 54, 0
2, 97549, Note_on_c, 0, 86, 62
2, 97559, Note_on_c, 0, 76, 64
2, 97559, Note_on_c, 0, 82, 66
2, 97572, Note_on_c, 0, 43, 58
2, 97587, Note_on_c, 0, 82, 0
2, 97590, Note_on_c, 0, 76, 0
2, 97590, Note_on_c, 0, 86, 0
2, 97613, Note_on_c, 0, 43, 0
2, 97669, Note_on_c, 0, 64, 60
2, 97669, Note_on_c, 0, 70, 63
2, 97669, Note_on_c, 0, 74, 64
2, 97701, Note_on_c, 0, 74, 0
2, 97704, Note_on_c, 0, 70, 0
2, 97709, Note_on_c, 0, 64, 0
2, 97720, Note_on_c, 0, 62, 0
2, 97755, Note_on_c, 0, 64, 60
2, 97755, Note_on_c, 0, 70, 63
2, 97755, Note_on_c, 0, 74, 64
2, 97763, Note_on_c, 0, 55, 54
2, 97793, Note_on_c, 0, 74, 0
2, 97793, Note_on_c, 0, 70, 0
2, 97796, Note_on_c, 0, 64, 0
2, 97796, Note_on_c, 0, 55, 0
2, 97801, Control_c, 0, 67, 0
2, 97837, Note_on_c, 0, 70, 61
2, 97837, Note_on_c, 0, 74, 63
2, 97841, Note_on_c, 0, 64, 63
2, 97874, Note_on_c, 0, 74, 0
2, 97877, Note_on_c, 0, 70, 0
2, 97880, Note_on_c, 0, 64, 0
2, 97931, Note_on_c, 0, 71, 60
2, 97931, Note_on_c, 0, 74, 64
2, 97934, Note_on_c, 0, 64, 64
2, 97936, Note_on_c, 0, 44, 63
2, 97969, Note_on_c, 0, 74, 0
2, 97969, Note_on_c, 0, 71, 0
2, 97986, Note_on_c, 0, 44, 0
2, 98032, Note_on_c, 0, 71, 65
2, 98032, Note_on_c, 0, 73, 68
2, 98064, Note_on_c, 0, 73, 0
2, 98064, Note_on_c, 0, 71, 0
2, 98120, Note_on_c, 0, 56, 59
2, 98120, Note_on_c, 0, 71, 68
2, 98120, Note_on_c, 0, 76, 69
2, 98160, Note_on_c, 0, 76, 0
2, 98160, Note_on_c, 0, 71, 0
2, 98168, Note_on_c, 0, 56, 0
2, 98203, Note_on_c, 0, 71, 59
2, 98206, Note_on_c, 0, 74, 58
2, 98254, Note_on_c, 0, 74, 0
2, 98257, Note_on_c, 0, 71, 0
2, 98265, Note_on_c, 0, 64, 0
2, 98313, Note_on_c, 0, 45, 59
2, 98313, Note_on_c, 0, 57, 62
2, 98313, Note_on_c, 0, 64, 63
2, 98313, Note_on_c, 0, 67, 64
2, 98313, Note_on_c, 0, 69, 66
2, 98313, Note_on_c, 0, 74, 67
2, 98350, Note_on_c, 0, 74, 0
2, 98350, Note_on_c, 0, 67, 0
2, 98350, Note_on_c, 0, 69, 0
2, 98355, Note_on_c, 0, 45, 0
2, 98355, Note_on_c, 0, 57, 0
2, 98363, Note_on_c, 0, 64, 0
2, 98403, Note_on_c, 0, 57, 65
2, 98403, Note_on_c, 0, 73, 71
2, 98406, Note_on_c, 0, 64, 71
2, 98406, Note_on_c, 0, 67, 72
2, 98446, Note_on_c, 0, 67, 0
2, 98446, Note_on_c, 0, 57, 0
2, 98454, Note_on_c, 0, 64, 0
2, 98454, Note_on_c, 0, 73, 0
2, 98494, Note_on_c, 0, 71, 70
2, 98499, Note_on_c, 0, 57, 65
2, 98499, Note_on_c, 0, 61, 65
2, 98499, Note_on_c, 0, 67, 71
2, 98532, Note_on_c, 0, 61, 0
2, 98535, Note_on_c, 0, 67, 0
2, 98539, Note_on_c, 0, 57, 0
2, 98547, Note_on_c, 0, 71, 0
2, 98583, Note_on_c, 0, 61, 66
2, 98583, Note_on_c, 0, 67, 66
2, 98583, Note_on_c, 0, 69, 66
2, 98620, Note_on_c, 0, 67, 0
2, 98623, Note_on_c, 0, 69, 0
2, 98635, Note_on_c, 0, 61, 0
2, 98671, Note_on_c, 0, 57, 56
2, 98694, Note_on_c, 0, 61, 58
2, 98702, Note_on_c, 0, 64, 77
2, 98702, Note_on_c, 0, 67, 78
2, 98714, Note_on_c, 0, 81, 82
2, 98714, Note_on_c, 0, 85, 83
2, 98714, Note_on_c, 0, 91, 84
2, 98722, Note_on_c, 0, 88, 83
2, 98754, Control_c, 0, 64, 127
2, 98775, Note_on_c, 0, 57, 0
2, 98795, Note_on_c, 0, 91, 0
2, 98795, Note_on_c, 0, 85, 0
2, 98798, Note_on_c, 0, 61, 0
2, 98798, Note_on_c, 0, 64, 0
2, 98802, Note_on_c, 0, 88, 0
2, 98805, Note_on_c, 0, 67, 0
2, 98848, Note_on_c, 0, 81, 0
2, 98872, Note_on_c, 0, 88, 66
2, 98899, Note_on_c, 0, 85, 64
2, 98920, Note_on_c, 0, 81, 62
2, 98932, Note_on_c, 0, 88, 0
2, 98937, Note_on_c, 0, 79, 58
2, 98960, Note_on_c, 0, 85, 0
2, 98965, Note_on_c, 0, 76, 58
2, 98968, Note_on_c, 0, 81, 0
2, 98985, Note_on_c, 0, 79, 0
2, 98992, Note_on_c, 0, 73, 58
2, 99010, Note_on_c, 0, 69, 58
2, 99013, Note_on_c, 0, 76, 0
2, 99025, Note_on_c, 0, 67, 57
2, 99028, Note_on_c, 0, 73, 0
2, 99043, Note_on_c, 0, 64, 57
2, 99046, Note_on_c, 0, 69, 0
2, 99054, Note_on_c, 0, 67, 0
2, 99071, Control_c, 0, 67, 127
2, 99082, Note_on_c, 0, 64, 0
2, 99085, Note_on_c, 0, 66, 49
2, 99085, Note_on_c, 0, 69, 51
2, 99085, Note_on_c, 0, 74, 50
2, 99088, Note_on_c, 0, 50, 54
2, 99095, Control_c, 0, 64, 0
2, 99111, Note_on_c, 0, 69, 0
2, 99115, Note_on_c, 0, 66, 0
2, 99115, Note_on_c, 0, 50, 0
2, 99118, Note_on_c, 0, 74, 0
2, 99174, Note_on_c, 0, 64, 53
2, 99182, Note_on_c, 0, 67, 54
2, 99191, Note_on_c, 0, 73, 55
2, 99216, Note_on_c, 0, 73, 0
2, 99219, Note_on_c, 0, 67, 0
2, 99219, Note_on_c, 0, 64, 0
2, 99280, Note_on_c, 0, 74, 55
2, 99282, Note_on_c, 0, 66, 54
2, 99282, Note_on_c, 0, 69, 55
2, 99287, Note_on_c, 0, 45, 54
2, 99312, Note_on_c, 0, 45, 0
2, 99312, Note_on_c, 0, 69, 0
2, 99312, Note_on_c, 0, 74, 0
2, 99317, Note_on_c, 0, 66, 0
2, 99370, Note_on_c, 0, 64, 54
2, 99370, Note_on_c, 0, 73, 58
2, 99377, Note_on_c, 0, 67, 58
2, 99410, Note_on_c, 0, 67, 0
2, 99410, Note_on_c, 0, 64, 0
2, 99415, Note_on_c, 0, 73, 0
2, 99468, Note_on_c, 0, 66, 56
2, 99468, Note_on_c, 0, 74, 59
2, 99472, Note_on_c, 0, 69, 60
2, 99480, Note_on_c, 0, 33, 54
2, 99480, Note_on_c, 0, 45, 54
2, 99505, Note_on_c, 0, 69, 0
2, 99505, Note_on_c, 0, 66, 0
2, 99505, Note_on_c, 0, 74, 0
2, 99510, Note_on_c, 0, 33, 0
2, 99510, Note_on_c, 0, 45, 0
2, 99681, Note_on_c, 0, 67, 53
2, 99684, Note_on_c, 0, 64, 54
2, 99684, Note_on_c, 0, 73, 55
2, 99687, Note_on_c, 0, 45, 54
2, 99712, Note_on_c, 0, 67, 0
2, 99714, Note_on_c, 0, 45, 0
2, 99719, Note_on_c, 0, 73, 0
2, 99727, Note_on_c, 0, 64, 0
2, 99880, Note_on_c, 0, 76, 57
2, 99883, Note_on_c, 0, 67, 63
2, 99883, Note_on_c, 0, 69, 64
2, 99888, Note_on_c, 0, 38, 54
2, 99888, Note_on_c, 0, 50, 54
2, 99908, Note_on_c, 0, 76, 0
2, 99916, Note_on_c, 0, 50, 0
2, 99919, Note_on_c, 0, 67, 0
2, 99919, Note_on_c, 0, 69, 0
2, 99919, Note_on_c, 0, 38, 0
2, 100090, Note_on_c, 0, 66, 58
2, 100090, Note_on_c, 0, 74, 64
2, 100093, Note_on_c, 0, 45, 54
2, 100122, Note_on_c, 0, 45, 0
2, 100125, Note_on_c, 0, 74, 0
2, 100130, Note_on_c, 0, 78, 64
2, 100133, Control_c, 0, 64, 127
2, 100133, Note_on_c, 0, 69, 64
2, 100138, Note_on_c, 0, 66, 0
2, 100168, Note_on_c, 0, 69, 0
2, 100168, Note_on_c, 0, 78, 0
2, 100168, Note_on_c, 0, 81, 68
2, 100170, Note_on_c, 0, 74, 67
2, 100206, Note_on_c, 0, 81, 0
2, 100209, Note_on_c, 0, 74, 0
2, 100212, Note_on_c, 0, 78, 71
2, 100212, Note_on_c, 0, 86, 74
2, 100237, Note_on_c, 0, 86, 0
2, 100260, Note_on_c, 0, 78, 0
2, 100263, Note_on_c, 0, 81, 74
2, 100263, Note_on_c, 0, 86, 74
2, 100263, Note_on_c, 0, 90, 73
2, 100270, Note_on_c, 0, 33, 54
2, 100270, Note_on_c, 0, 45, 54
2, 100306, Note_on_c, 0, 45, 0
2, 100306, Note_on_c, 0, 33, 0
2, 100346, Control_c, 0, 67, 0
2, 100452, Note_on_c, 0, 45, 57
2, 100481, Note_on_c, 0, 45, 0
2, 100494, Note_on_c, 0, 90, 0
2, 100494, Note_on_c, 0, 86, 0
2, 100494, Note_on_c, 0, 81, 0
2, 100620, Control_c, 0, 64, 0
2, 100637, Note_on_c, 0, 83, 69
2, 100637, Note_on_c, 0, 86, 70
2, 100637, Note_on_c, 0, 91, 71
2, 100647, Note_on_c, 0, 38, 57
2, 100647, Note_on_c, 0, 50, 57
2, 100672, Note_on_c, 0, 50, 0
2, 100672, Note_on_c, 0, 86, 0
2, 100676, Note_on_c, 0, 38, 0
2, 100679, Note_on_c, 0, 91, 0
2, 100679, Note_on_c, 0, 83, 0
2, 100740, Note_on_c, 0, 81, 68
2, 100740, Note_on_c, 0, 85, 71
2, 100740, Note_on_c, 0, 90, 72
2, 100769, Note_on_c, 0, 90, 0
2, 100769, Note_on_c, 0, 85, 0
2, 100777, Note_on_c, 0, 81, 0
2, 100827, Note_on_c, 0, 86, 69
2, 100827, Note_on_c, 0, 91, 71
2, 100832, Note_on_c, 0, 83, 72
2, 100835, Note_on_c, 0, 45, 57
2, 100863, Note_on_c, 0, 91, 0
2, 100865, Note_on_c, 0, 86, 0
2, 100865, Note_on_c, 0, 83, 0
2, 100868, Note_on_c, 0, 45, 0
2, 100921, Note_on_c, 0, 85, 69
2, 100921, Note_on_c, 0, 90, 73
2, 100924, Note_on_c, 0, 81, 74
2, 100957, Note_on_c, 0, 81, 0
2, 100957, Note_on_c, 0, 85, 0
2, 100960, Note_on_c, 0, 90, 0
2, 101017, Note_on_c, 0, 83, 70
2, 101017, Note_on_c, 0, 88, 74
2, 101020, Note_on_c, 0, 79, 73
2, 101028, Note_on_c, 0, 33, 57
2, 101028, Note_on_c, 0, 45, 57
2, 101057, Note_on_c, 0, 45, 0
2, 101057, Note_on_c, 0, 33, 0
2, 101115, Note_on_c, 0, 79, 0
2, 101115, Note_on_c, 0, 88, 0
2, 101120, Note_on_c, 0, 83, 0
2, 101120, Note_on_c, 0, 78, 74
2, 101120, Note_on_c, 0, 86, 76
2, 101125, Note_on_c, 0, 81, 77
2, 101152, Note_on_c, 0, 81, 0
2, 101155, Note_on_c, 0, 78, 0
2, 101165, Note_on_c, 0, 86, 0
2, 101215, Note_on_c, 0, 78, 71
2, 101215, Note_on_c, 0, 81, 75
2, 101218, Note_on_c, 0, 74, 74
2, 101223, Note_on_c, 0, 45, 57
2, 101246, Note_on_c, 0, 74, 0
2, 101246, Note_on_c, 0, 78, 0
2, 101246, Note_on_c, 0, 81, 0
2, 101253, Note_on_c, 0, 45, 0
2, 101309, Note_on_c, 0, 69, 74
2, 101309, Note_on_c, 0, 74, 80
2, 101309, Note_on_c, 0, 78, 81
2, 101339, Note_on_c, 0, 78, 0
2, 101339, Note_on_c, 0, 74, 0
2, 101342, Note_on_c, 0, 69, 0
2, 101417, Note_on_c, 0, 74, 77
2, 101420, Note_on_c, 0, 52, 65
2, 101420, Note_on_c, 0, 67, 81
2, 101423, Note_on_c, 0, 40, 65
2, 101426, Note_on_c, 0, 70, 82
2, 101454, Note_on_c, 0, 40, 0
2, 101454, Note_on_c, 0, 52, 0
2, 101595, Control_c, 0, 64, 127
2, 101628, Note_on_c, 0, 52, 57
2, 101628, Note_on_c, 0, 64, 57
2, 101645, Note_on_c, 0, 74, 0
2, 101645, Note_on_c, 0, 70, 0
2, 101655, Note_on_c, 0, 64, 0
2, 101657, Note_on_c, 0, 67, 0
2, 101660, Note_on_c, 0, 52, 0
2, 101799, Note_on_c, 0, 78, 58
2, 101799, Note_on_c, 0, 82, 64
2, 101799, Note_on_c, 0, 86, 63
2, 101816, Note_on_c, 0, 85, 65
2, 101819, Note_on_c, 0, 79, 65
2, 101819, Note_on_c, 0, 81, 68
2, 101828, Note_on_c, 0, 86, 0
2, 101828, Note_on_c, 0, 78, 0
2, 101828, Note_on_c, 0, 82, 0
2, 101828, Note_on_c, 0, 33, 61
2, 101828, Note_on_c, 0, 45, 61
2, 101831, Control_c, 0, 64, 0
2, 101859, Note_on_c, 0, 45, 0
2, 101862, Note_on_c, 0, 33, 0
2, 102025, Note_on_c, 0, 57, 61
2, 102058, Note_on_c, 0, 57, 0
2, 102067, Control_c, 0, 64, 127
2, 102095, Note_on_c, 0, 79, 0
2, 102103, Note_on_c, 0, 81, 0
2, 102103, Note_on_c, 0, 85, 0
2, 102128, Control_c, 0, 67, 127
2, 102203, Control_c, 0, 64, 0
2, 102215, Note_on_c, 0, 79, 55
2, 102215, Note_on_c, 0, 83, 57
2, 102218, Note_on_c, 0, 76, 54
2, 102223, Note_on_c, 0, 37, 54
2, 102243, Note_on_c, 0, 83, 0
2, 102251, Note_on_c, 0, 79, 0
2, 102254, Note_on_c, 0, 76, 0
2, 102277, Note_on_c, 0, 37, 0
2, 102304, Note_on_c, 0, 71, 55
2, 102307, Note_on_c, 0, 64, 54
2, 102315, Note_on_c, 0, 67, 54
2, 102345, Note_on_c, 0, 64, 0
2, 102345, Note_on_c, 0, 71, 0
2, 102354, Note_on_c, 0, 67, 0
2, 102412, Note_on_c, 0, 64, 53
2, 102412, Note_on_c, 0, 67, 54
2, 102412, Note_on_c, 0, 71, 54
2, 102415, Note_on_c, 0, 49, 54
2, 102440, Note_on_c, 0, 67, 0
2, 102449, Note_on_c, 0, 64, 0
2, 102449, Note_on_c, 0, 71, 0
2, 102449, Note_on_c, 0, 49, 0
2, 102499, Note_on_c, 0, 67, 51
2, 102499, Note_on_c, 0, 71, 55
2, 102504, Note_on_c, 0, 64, 55
2, 102537, Note_on_c, 0, 64, 0
2, 102537, Note_on_c, 0, 71, 0
2, 102537, Note_on_c, 0, 67, 0
2, 102577, Note_on_c, 0, 73, 55
2, 102605, Note_on_c, 0, 65, 58
2, 102605, Note_on_c, 0, 71, 61
2, 102608, Note_on_c, 0, 73, 0
2, 102613, Note_on_c, 0, 68, 62
2, 102617, Note_on_c, 0, 38, 54
2, 102640, Note_on_c, 0, 68, 0
2, 102645, Note_on_c, 0, 65, 0
2, 102645, Note_on_c, 0, 71, 0
2, 102663, Note_on_c, 0, 38, 0
2, 102798, Note_on_c, 0, 66, 53
2, 102798, Note_on_c, 0, 69, 44
2, 102810, Note_on_c, 0, 50, 54
2, 102820, Control_c, 0, 64, 127
2, 102828, Note_on_c, 0, 69, 0
2, 102828, Note_on_c, 0, 66, 0
2, 102843, Note_on_c, 0, 50, 0
2, 102974, Control_c, 0, 64, 0
2, 102983, Note_on_c, 0, 86, 66
2, 102991, Note_on_c, 0, 80, 64
2, 102991, Note_on_c, 0, 83, 66
2, 103000, Note_on_c, 0, 41, 54
2, 103021, Note_on_c, 0, 80, 0
2, 103024, Note_on_c, 0, 86, 0
2, 103024, Note_on_c, 0, 83, 0
2, 103044, Note_on_c, 0, 41, 0
2, 103084, Note_on_c, 0, 71, 55
2, 103084, Note_on_c, 0, 74, 55
2, 103087, Note_on_c, 0, 68, 53
2, 103110, Control_c, 0, 67, 0
2, 103115, Note_on_c, 0, 71, 0
2, 103118, Note_on_c, 0, 68, 0
2, 103122, Note_on_c, 0, 74, 0
2, 103178, Note_on_c, 0, 71, 60
2, 103178, Note_on_c, 0, 74, 62
2, 103186, Note_on_c, 0, 68, 62
2, 103191, Note_on_c, 0, 53, 57
2, 103216, Note_on_c, 0, 68, 0
2, 103216, Note_on_c, 0, 74, 0
2, 103223, Note_on_c, 0, 71, 0
2, 103228, Note_on_c, 0, 53, 0
2, 103265, Note_on_c, 0, 71, 58
2, 103265, Note_on_c, 0, 74, 57
2, 103270, Note_on_c, 0, 68, 55
2, 103295, Note_on_c, 0, 71, 0
2, 103300, Note_on_c, 0, 74, 0
2, 103303, Note_on_c, 0, 68, 0
2, 103351, Note_on_c, 0, 76, 58
2, 103363, Note_on_c, 0, 71, 63
2, 103363, Note_on_c, 0, 74, 64
2, 103366, Note_on_c, 0, 68, 64
2, 103369, Note_on_c, 0, 42, 57
2, 103394, Note_on_c, 0, 68, 0
2, 103394, Note_on_c, 0, 76, 0
2, 103404, Note_on_c, 0, 71, 0
2, 103404, Note_on_c, 0, 74, 0
2, 103416, Note_on_c, 0, 42, 0
2, 103552, Note_on_c, 0, 69, 58
2, 103552, Note_on_c, 0, 73, 58
2, 103559, Note_on_c, 0, 54, 57
2, 103584, Note_on_c, 0, 69, 0
2, 103587, Note_on_c, 0, 73, 0
2, 103607, Note_on_c, 0, 54, 0
2, 103615, Control_c, 0, 64, 127
2, 103648, Control_c, 0, 64, 0
2, 103743, Note_on_c, 0, 90, 65
2, 103745, Note_on_c, 0, 83, 65
2, 103748, Note_on_c, 0, 44, 61
2, 103751, Control_c, 0, 64, 127
2, 103751, Note_on_c, 0, 86, 65
2, 103779, Note_on_c, 0, 44, 0
2, 103782, Note_on_c, 0, 86, 0
2, 103782, Note_on_c, 0, 83, 0
2, 103785, Note_on_c, 0, 90, 0
2, 103788, Control_c, 0, 64, 0
2, 103845, Note_on_c, 0, 78, 63
2, 103850, Note_on_c, 0, 71, 63
2, 103850, Note_on_c, 0, 74, 63
2, 103878, Note_on_c, 0, 74, 0
2, 103886, Note_on_c, 0, 71, 0
2, 103888, Note_on_c, 0, 78, 0
2, 103938, Note_on_c, 0, 78, 62
2, 103941, Note_on_c, 0, 71, 63
2, 103941, Note_on_c, 0, 74, 63
2, 103954, Note_on_c, 0, 56, 61
2, 103979, Note_on_c, 0, 56, 0
2, 103979, Note_on_c, 0, 78, 0
2, 103979, Note_on_c, 0, 71, 0
2, 103979, Note_on_c, 0, 74, 0
2, 104032, Note_on_c, 0, 78, 59
2, 104034, Note_on_c, 0, 71, 61
2, 104034, Note_on_c, 0, 74, 62
2, 104072, Note_on_c, 0, 74, 0
2, 104072, Note_on_c, 0, 71, 0
2, 104075, Note_on_c, 0, 78, 0
2, 104135, Note_on_c, 0, 78, 63
2, 104140, Note_on_c, 0, 72, 66
2, 104140, Note_on_c, 0, 75, 67
2, 104143, Note_on_c, 0, 45, 61
2, 104173, Note_on_c, 0, 45, 0
2, 104176, Note_on_c, 0, 78, 0
2, 104176, Note_on_c, 0, 72, 0
2, 104176, Note_on_c, 0, 75, 0
2, 104228, Note_on_c, 0, 76, 63
2, 104241, Note_on_c, 0, 73, 65
2, 104269, Note_on_c, 0, 73, 0
2, 104269, Note_on_c, 0, 76, 0
2, 104321, Note_on_c, 0, 78, 64
2, 104326, Note_on_c, 0, 75, 66
2, 104334, Note_on_c, 0, 72, 67
2, 104337, Note_on_c, 0, 57, 61
2, 104362, Note_on_c, 0, 72, 0
2, 104362, Note_on_c, 0, 78, 0
2, 104367, Note_on_c, 0, 57, 0
2, 104369, Note_on_c, 0, 75, 0
2, 104424, Note_on_c, 0, 73, 64
2, 104424, Note_on_c, 0, 76, 68
2, 104460, Note_on_c, 0, 76, 0
2, 104460, Note_on_c, 0, 73, 0
2, 104512, Note_on_c, 0, 81, 72
2, 104515, Note_on_c, 0, 73, 71
2, 104515, Note_on_c, 0, 77, 71
2, 104520, Note_on_c, 0, 47, 68
2, 104537, Note_on_c, 0, 73, 0
2, 104545, Note_on_c, 0, 77, 0
2, 104548, Note_on_c, 0, 81, 0
2, 104551, Note_on_c, 0, 47, 0
2, 104608, Note_on_c, 0, 76, 72
2, 104611, Note_on_c, 0, 74, 69
2, 104611, Note_on_c, 0, 80, 68
2, 104636, Note_on_c, 0, 80, 0
2, 104639, Note_on_c, 0, 74, 0
2, 104639, Note_on_c, 0, 76, 0
2, 104700, Note_on_c, 0, 81, 73
2, 104704, Note_on_c, 0, 73, 68
2, 104704, Note_on_c, 0, 77, 67
2, 104714, Note_on_c, 0, 59, 73
2, 104736, Note_on_c, 0, 77, 0
2, 104736, Note_on_c, 0, 81, 0
2, 104736, Note_on_c, 0, 73, 0
2, 104744, Note_on_c, 0, 59, 0
2, 104799, Note_on_c, 0, 74, 74
2, 104799, Note_on_c, 0, 76, 75
2, 104799, Note_on_c, 0, 80, 74
2, 104831, Note_on_c, 0, 76, 0
2, 104836, Note_on_c, 0, 80, 0
2, 104839, Note_on_c, 0, 74, 0
2, 104892, Note_on_c, 0, 74, 74
2, 104892, Note_on_c, 0, 77, 75
2, 104892, Note_on_c, 0, 83, 76
2, 104895, Note_on_c, 0, 45, 73
2, 104920, Note_on_c, 0, 83, 0
2, 104920, Note_on_c, 0, 74, 0
2, 104920, Note_on_c, 0, 77, 0
2, 104932, Note_on_c, 0, 45, 0
2, 104985, Note_on_c, 0, 73, 70
2, 104985, Note_on_c, 0, 76, 73
2, 104985, Note_on_c, 0, 81, 76
2, 105013, Note_on_c, 0, 76, 0
2, 105022, Note_on_c, 0, 81, 0
2, 105022, Note_on_c, 0, 73, 0
2, 105072, Note_on_c, 0, 77, 76
2, 105075, Note_on_c, 0, 83, 77
2, 105078, Note_on_c, 0, 57, 77
2, 105086, Note_on_c, 0, 74, 75
2, 105111, Note_on_c, 0, 57, 0
2, 105118, Note_on_c, 0, 77, 0
2, 105118, Note_on_c, 0, 83, 0
2, 105118, Note_on_c, 0, 74, 0
2, 105168, Note_on_c, 0, 81, 76
2, 105173, Note_on_c, 0, 73, 68
2, 105181, Note_on_c, 0, 76, 67
2, 105208, Note_on_c, 0, 76, 0
2, 105208, Note_on_c, 0, 73, 0
2, 105218, Note_on_c, 0, 81, 0
2, 105266, Note_on_c, 0, 76, 74
2, 105266, Note_on_c, 0, 83, 81
2, 105269, Note_on_c, 0, 73, 80
2, 105289, Note_on_c, 0, 67, 80
2, 105299, Note_on_c, 0, 73, 0
2, 105299, Note_on_c, 0, 83, 0
2, 105306, Note_on_c, 0, 76, 0
2, 105374, Note_on_c, 0, 76, 73
2, 105374, Note_on_c, 0, 81, 66
2, 105378, Note_on_c, 0, 73, 63
2, 105406, Note_on_c, 0, 73, 0
2, 105406, Note_on_c, 0, 81, 0
2, 105406, Note_on_c, 0, 76, 0
2, 105481, Note_on_c, 0, 76, 58
2, 105481, Note_on_c, 0, 83, 64
2, 105486, Note_on_c, 0, 73, 61
2, 105514, Note_on_c, 0, 83, 0
2, 105517, Note_on_c, 0, 73, 0
2, 105517, Note_on_c, 0, 76, 0
2, 105565, Note_on_c, 0, 81, 63
2, 105568, Note_on_c, 0, 76, 62
2, 105570, Note_on_c, 0, 73, 62
2, 105598, Note_on_c, 0, 73, 0
2, 105598, Note_on_c, 0, 76, 0
2, 105598, Note_on_c, 0, 81, 0
2, 105664, Note_on_c, 0, 73, 62
2, 105664, Note_on_c, 0, 76, 62
2, 105664, Note_on_c, 0, 83, 63
2, 105693, Note_on_c, 0, 83, 0
2, 105693, Note_on_c, 0, 73, 0
2, 105696, Note_on_c, 0, 76, 0
2, 105744, Note_on_c, 0, 81, 64
2, 105747, Note_on_c, 0, 73, 62
2, 105747, Note_on_c, 0, 76, 62
2, 105772, Note_on_c, 0, 73, 0
2, 105775, Note_on_c, 0, 81, 0
2, 105778, Note_on_c, 0, 76, 0
2, 105843, Note_on_c, 0, 73, 64
2, 105843, Note_on_c, 0, 79, 71
2, 105843, Note_on_c, 0, 83, 74
2, 105848, Note_on_c, 0, 64, 72
2, 105851, Note_on_c, 0, 67, 0
2, 105871, Note_on_c, 0, 79, 0
2, 105876, Note_on_c, 0, 73, 0
2, 105876, Note_on_c, 0, 83, 0
2, 105943, Note_on_c, 0, 79, 65
2, 105943, Note_on_c, 0, 81, 62
2, 105946, Note_on_c, 0, 73, 59
2, 105968, Note_on_c, 0, 79, 0
2, 105973, Note_on_c, 0, 73, 0
2, 105973, Note_on_c, 0, 81, 0
2, 106035, Note_on_c, 0, 83, 59
2, 106040, Note_on_c, 0, 76, 58
2, 106048, Note_on_c, 0, 60, 57
2, 106048, Note_on_c, 0, 79, 58
2, 106068, Note_on_c, 0, 76, 0
2, 106068, Note_on_c, 0, 64, 0
2, 106068, Note_on_c, 0, 83, 0
2, 106075, Note_on_c, 0, 79, 0
2, 106145, Note_on_c, 0, 76, 58
2, 106145, Note_on_c, 0, 79, 58
2, 106145, Note_on_c, 0, 81, 59
2, 106170, Note_on_c, 0, 79, 0
2, 106173, Note_on_c, 0, 81, 0
2, 106176, Note_on_c, 0, 76, 0
2, 106249, Note_on_c, 0, 61, 80
2, 106254, Note_on_c, 0, 76, 58
2, 106254, Note_on_c, 0, 79, 58
2, 106254, Note_on_c, 0, 83, 59
2, 106262, Note_on_c, 0, 60, 0
2, 106287, Note_on_c, 0, 79, 0
2, 106287, Note_on_c, 0, 83, 0
2, 106287, Note_on_c, 0, 76, 0
2, 106352, Note_on_c, 0, 81, 60
2, 106355, Note_on_c, 0, 76, 58
2, 106355, Note_on_c, 0, 79, 58
2, 106384, Note_on_c, 0, 81, 0
2, 106387, Note_on_c, 0, 79, 0
2, 106387, Note_on_c, 0, 76, 0
2, 106473, Note_on_c, 0, 73, 57
2, 106473, Note_on_c, 0, 79, 58
2, 106473, Note_on_c, 0, 83, 59
2, 106507, Note_on_c, 0, 66, 58
2, 106510, Note_on_c, 0, 83, 0
2, 106510, Note_on_c, 0, 79, 0
2, 106510, Note_on_c, 0, 73, 0
2, 106540, Note_on_c, 0, 61, 0
2, 106607, Note_on_c, 0, 81, 64
2, 106610, Note_on_c, 0, 79, 59
2, 106620, Note_on_c, 0, 73, 58
2, 106640, Note_on_c, 0, 79, 0
2, 106640, Note_on_c, 0, 81, 0
2, 106652, Note_on_c, 0, 73, 0
2, 106720, Note_on_c, 0, 73, 62
2, 106720, Note_on_c, 0, 83, 64
2, 106722, Note_on_c, 0, 79, 61
2, 106752, Note_on_c, 0, 79, 0
2, 106752, Note_on_c, 0, 83, 0
2, 106752, Note_on_c, 0, 73, 0
2, 106819, Note_on_c, 0, 81, 61
2, 106822, Note_on_c, 0, 73, 51
2, 106830, Note_on_c, 0, 64, 49
2, 106830, Note_on_c, 0, 79, 49
2, 106847, Note_on_c, 0, 73, 0
2, 106847, Note_on_c, 0, 66, 0
2, 106847, Note_on_c, 0, 81, 0
2, 106857, Note_on_c, 0, 79, 0
2, 106910, Note_on_c, 0, 64, 0
2, 106952, Note_on_c, 0, 64, 64
2, 106957, Note_on_c, 0, 61, 57
2, 106986, Note_on_c, 0, 61, 0
2, 107049, Note_on_c, 0, 61, 57
2, 107049, Note_on_c, 0, 69, 58
2, 107056, Note_on_c, 0, 67, 56
2, 107077, Note_on_c, 0, 69, 0
2, 107080, Note_on_c, 0, 61, 0
2, 107089, Note_on_c, 0, 67, 0
2, 107159, Note_on_c, 0, 61, 57
2, 107159, Note_on_c, 0, 71, 58
2, 107162, Note_on_c, 0, 67, 56
2, 107187, Note_on_c, 0, 71, 0
2, 107190, Note_on_c, 0, 67, 0
2, 107193, Note_on_c, 0, 61, 0
2, 107250, Note_on_c, 0, 69, 58
2, 107253, Note_on_c, 0, 61, 57
2, 107263, Note_on_c, 0, 67, 57
2, 107280, Note_on_c, 0, 69, 0
2, 107288, Note_on_c, 0, 67, 0
2, 107293, Note_on_c, 0, 61, 0
2, 107360, Note_on_c, 0, 61, 57
2, 107360, Note_on_c, 0, 67, 57
2, 107360, Note_on_c, 0, 71, 57
2, 107385, Note_on_c, 0, 71, 0
2, 107385, Note_on_c, 0, 67, 0
2, 107390, Note_on_c, 0, 61, 0
2, 107449, Note_on_c, 0, 61, 57
2, 107449, Note_on_c, 0, 67, 57
2, 107449, Note_on_c, 0, 69, 57
2, 107479, Note_on_c, 0, 69, 0
2, 107479, Note_on_c, 0, 67, 0
2, 107479, Note_on_c, 0, 61, 0
2, 107501, Note_on_c, 0, 64, 0
2, 107529, Note_on_c, 0, 61, 57
2, 107538, Note_on_c, 0, 67, 57
2, 107538, Note_on_c, 0, 71, 58
2, 107541, Note_on_c, 0, 64, 56
2, 107566, Note_on_c, 0, 71, 0
2, 107569, Note_on_c, 0, 64, 0
2, 107569, Note_on_c, 0, 67, 0
2, 107636, Note_on_c, 0, 64, 57
2, 107636, Note_on_c, 0, 67, 57
2, 107639, Note_on_c, 0, 69, 57
2, 107664, Note_on_c, 0, 69, 0
2, 107664, Note_on_c, 0, 67, 0
2, 107664, Note_on_c, 0, 64, 0
2, 107739, Note_on_c, 0, 57, 57
2, 107739, Note_on_c, 0, 67, 57
2, 107739, Note_on_c, 0, 71, 57
2, 107769, Note_on_c, 0, 71, 0
2, 107769, Note_on_c, 0, 67, 0
2, 107781, Note_on_c, 0, 61, 0
2, 107851, Note_on_c, 0, 61, 66
2, 107856, Note_on_c, 0, 67, 57
2, 107856, Note_on_c, 0, 69, 58
2, 107884, Note_on_c, 0, 69, 0
2, 107884, Note_on_c, 0, 67, 0
2, 107887, Note_on_c, 0, 61, 0
2, 107967, Note_on_c, 0, 62, 57
2, 107967, Note_on_c, 0, 67, 57
2, 107967, Note_on_c, 0, 71, 57
2, 107969, Note_on_c, 0, 59, 74
2, 107982, Note_on_c, 0, 57, 0
2, 107997, Note_on_c, 0, 71, 0
2, 107997, Note_on_c, 0, 62, 0
2, 107997, Note_on_c, 0, 67, 0
2, 108092, Note_on_c, 0, 62, 69
2, 108092, Note_on_c, 0, 67, 57
2, 108092, Note_on_c, 0, 69, 57
2, 108122, Note_on_c, 0, 69, 0
2, 108122, Note_on_c, 0, 67, 0
2, 108122, Note_on_c, 0, 62, 0
2, 108217, Note_on_c, 0, 71, 58
2, 108220, Note_on_c, 0, 62, 57
2, 108220, Note_on_c, 0, 64, 57
2, 108220, Note_on_c, 0, 67, 56
2, 108250, Note_on_c, 0, 67, 0
2, 108250, Note_on_c, 0, 71, 0
2, 108250, Note_on_c, 0, 64, 0
2, 108270, Note_on_c, 0, 59, 0
2, 108382, Note_on_c, 0, 67, 57
2, 108385, Note_on_c, 0, 64, 57
2, 108385, Note_on_c, 0, 69, 58
2, 108413, Note_on_c, 0, 64, 0
2, 108416, Note_on_c, 0, 69, 0
2, 108416, Note_on_c, 0, 67, 0
2, 108494, Note_on_c, 0, 71, 57
2, 108496, Note_on_c, 0, 64, 57
2, 108496, Note_on_c, 0, 67, 57
2, 108519, Note_on_c, 0, 71, 0
2, 108521, Note_on_c, 0, 67, 0
2, 108521, Note_on_c, 0, 64, 0
2, 108601, Note_on_c, 0, 61, 45
2, 108601, Note_on_c, 0, 64, 57
2, 108601, Note_on_c, 0, 67, 56
2, 108601, Note_on_c, 0, 69, 58
2, 108626, Note_on_c, 0, 69, 0
2, 108626, Note_on_c, 0, 64, 0
2, 108626, Note_on_c, 0, 67, 0
2, 108629, Note_on_c, 0, 61, 0
2, 108662, Note_on_c, 0, 62, 0
2, 108702, Note_on_c, 0, 71, 59
2, 108707, Note_on_c, 0, 64, 60
2, 108710, Note_on_c, 0, 67, 61
2, 108717, Note_on_c, 0, 61, 65
2, 108735, Note_on_c, 0, 71, 0
2, 108737, Note_on_c, 0, 64, 0
2, 108737, Note_on_c, 0, 67, 0
2, 108812, Note_on_c, 0, 64, 61
2, 108815, Note_on_c, 0, 67, 61
2, 108815, Note_on_c, 0, 69, 62
2, 108843, Note_on_c, 0, 69, 0
2, 108843, Note_on_c, 0, 67, 0
2, 108843, Note_on_c, 0, 64, 0
2, 108913, Note_on_c, 0, 64, 61
2, 108913, Note_on_c, 0, 67, 61
2, 108913, Note_on_c, 0, 71, 61
2, 108946, Note_on_c, 0, 71, 0
2, 108946, Note_on_c, 0, 67, 0
2, 108946, Note_on_c, 0, 64, 0
2, 108963, Control_c, 0, 67, 127
2, 109030, Note_on_c, 0, 64, 58
2, 109030, Note_on_c, 0, 67, 58
2, 109030, Note_on_c, 0, 69, 58
2, 109055, Note_on_c, 0, 69, 0
2, 109055, Note_on_c, 0, 67, 0
2, 109060, Note_on_c, 0, 64, 0
2, 109122, Note_on_c, 0, 64, 58
2, 109122, Note_on_c, 0, 67, 58
2, 109122, Note_on_c, 0, 71, 58
2, 109150, Note_on_c, 0, 71, 0
2, 109150, Note_on_c, 0, 67, 0
2, 109155, Note_on_c, 0, 64, 0
2, 109227, Note_on_c, 0, 64, 58
2, 109227, Note_on_c, 0, 67, 58
2, 109232, Note_on_c, 0, 69, 58
2, 109262, Note_on_c, 0, 69, 0
2, 109262, Note_on_c, 0, 67, 0
2, 109262, Note_on_c, 0, 64, 0
2, 109321, Note_on_c, 0, 57, 54
2, 109329, Note_on_c, 0, 71, 55
2, 109334, Note_on_c, 0, 64, 54
2, 109334, Note_on_c, 0, 67, 54
2, 109359, Note_on_c, 0, 67, 0
2, 109363, Note_on_c, 0, 71, 0
2, 109363, Note_on_c, 0, 64, 0
2, 109410, Note_on_c, 0, 61, 0
2, 109418, Note_on_c, 0, 64, 54
2, 109418, Note_on_c, 0, 67, 54
2, 109418, Note_on_c, 0, 69, 54
2, 109453, Note_on_c, 0, 69, 0
2, 109453, Note_on_c, 0, 67, 0
2, 109453, Note_on_c, 0, 64, 0
2, 109515, Note_on_c, 0, 52, 42
2, 109523, Note_on_c, 0, 61, 43
2, 109523, Note_on_c, 0, 67, 54
2, 109523, Note_on_c, 0, 71, 54
2, 109551, Note_on_c, 0, 71, 0
2, 109553, Note_on_c, 0, 61, 0
2, 109553, Note_on_c, 0, 67, 0
2, 109621, Note_on_c, 0, 67, 53
2, 109621, Note_on_c, 0, 69, 55
2, 109628, Note_on_c, 0, 61, 52
2, 109648, Note_on_c, 0, 69, 0
2, 109648, Note_on_c, 0, 67, 0
2, 109658, Note_on_c, 0, 61, 0
2, 109713, Note_on_c, 0, 49, 51
2, 109720, Note_on_c, 0, 64, 54
2, 109720, Note_on_c, 0, 67, 54
2, 109720, Note_on_c, 0, 71, 54
2, 109738, Note_on_c, 0, 52, 0
2, 109747, Note_on_c, 0, 67, 0
2, 109747, Note_on_c, 0, 71, 0
2, 109750, Note_on_c, 0, 64, 0
2, 109813, Note_on_c, 0, 64, 54
2, 109813, Note_on_c, 0, 67, 54
2, 109813, Note_on_c, 0, 69, 54
2, 109838, Note_on_c, 0, 69, 0
2, 109838, Note_on_c, 0, 67, 0
2, 109842, Note_on_c, 0, 64, 0
2, 109900, Note_on_c, 0, 57, 0
2, 109910, Note_on_c, 0, 61, 48
2, 109910, Note_on_c, 0, 67, 54
2, 109910, Note_on_c, 0, 71, 54
2, 109912, Note_on_c, 0, 52, 47
2, 109915, Note_on_c, 0, 45, 46
2, 109918, Note_on_c, 0, 49, 0
2, 109936, Note_on_c, 0, 71, 0
2, 109938, Note_on_c, 0, 67, 0
2, 109941, Note_on_c, 0, 61, 0
2, 110008, Note_on_c, 0, 61, 49
2, 110008, Note_on_c, 0, 67, 54
2, 110011, Note_on_c, 0, 69, 54
2, 110016, Note_on_c, 0, 45, 0
2, 110024, Note_on_c, 0, 52, 0
2, 110046, Note_on_c, 0, 67, 0
2, 110046, Note_on_c, 0, 61, 0
2, 110061, Note_on_c, 0, 69, 0
2, 110106, Note_on_c, 0, 62, 54
2, 110109, Note_on_c, 0, 67, 54
2, 110109, Note_on_c, 0, 71, 55
2, 110144, Note_on_c, 0, 67, 0
2, 110144, Note_on_c, 0, 62, 0
2, 110161, Note_on_c, 0, 71, 0
2, 110206, Note_on_c, 0, 73, 55
2, 110209, Note_on_c, 0, 64, 56
2, 110209, Note_on_c, 0, 67, 57
2, 110234, Note_on_c, 0, 67, 0
2, 110239, Note_on_c, 0, 64, 0
2, 110251, Note_on_c, 0, 73, 0
2, 110296, Note_on_c, 0, 67, 55
2, 110299, Note_on_c, 0, 61, 58
2, 110299, Note_on_c, 0, 69, 52
2, 110342, Note_on_c, 0, 69, 0
2, 110342, Note_on_c, 0, 67, 0
2, 110346, Note_on_c, 0, 61, 0
2, 110396, Note_on_c, 0, 62, 58
2, 110396, Note_on_c, 0, 67, 57
2, 110396, Note_on_c, 0, 71, 59
2, 110409, Note_on_c, 0, 69, 58
2, 110434, Note_on_c, 0, 62, 0
2, 110441, Note_on_c, 0, 67, 0
2, 110441, Note_on_c, 0, 71, 0
2, 110441, Note_on_c, 0, 69, 0
2, 110501, Note_on_c, 0, 72, 59
2, 110504, Note_on_c, 0, 63, 58
2, 110504, Note_on_c, 0, 67, 58
2, 110504, Note_on_c, 0, 69, 58
2, 110529, Note_on_c, 0, 69, 0
2, 110529, Note_on_c, 0, 67, 0
2, 110529, Note_on_c, 0, 72, 0
2, 110534, Note_on_c, 0, 63, 0
2, 110604, Note_on_c, 0, 64, 54
2, 110604, Note_on_c, 0, 67, 57
2, 110604, Note_on_c, 0, 69, 59
2, 110604, Note_on_c, 0, 73, 58
2, 110632, Note_on_c, 0, 69, 0
2, 110632, Note_on_c, 0, 67, 0
2, 110652, Note_on_c, 0, 64, 0
2, 110652, Note_on_c, 0, 73, 0
2, 110699, Note_on_c, 0, 57, 58
2, 110704, Note_on_c, 0, 73, 53
2, 110704, Note_on_c, 0, 81, 54
2, 110706, Note_on_c, 0, 61, 58
2, 110706, Note_on_c, 0, 67, 50
2, 110706, Note_on_c, 0, 76, 50
2, 110711, Note_on_c, 0, 69, 49
2, 110714, Note_on_c, 0, 64, 47
2, 110734, Note_on_c, 0, 81, 0
2, 110737, Note_on_c, 0, 67, 0
2, 110742, Note_on_c, 0, 76, 0
2, 110745, Note_on_c, 0, 57, 0
2, 110745, Note_on_c, 0, 69, 0
2, 110750, Note_on_c, 0, 73, 0
2, 110752, Note_on_c, 0, 61, 0
2, 110752, Note_on_c, 0, 64, 0
2, 110802, Note_on_c, 0, 71, 57
2, 110805, Note_on_c, 0, 62, 58
2, 110810, Note_on_c, 0, 67, 58
2, 110840, Note_on_c, 0, 67, 0
2, 110840, Note_on_c, 0, 62, 0
2, 110848, Note_on_c, 0, 71, 0
2, 110890, Note_on_c, 0, 63, 58
2, 110890, Note_on_c, 0, 67, 58
2, 110895, Note_on_c, 0, 72, 58
2, 110920, Note_on_c, 0, 67, 0
2, 110932, Note_on_c, 0, 63, 0
2, 110935, Note_on_c, 0, 72, 0
2, 110982, Note_on_c, 0, 73, 56
2, 110985, Note_on_c, 0, 64, 57
2, 110997, Note_on_c, 0, 67, 58
2, 111030, Note_on_c, 0, 67, 0
2, 111038, Note_on_c, 0, 73, 0
2, 111042, Note_on_c, 0, 64, 0
2, 111085, Note_on_c, 0, 64, 56
2, 111085, Note_on_c, 0, 67, 52
2, 111085, Note_on_c, 0, 69, 52
2, 111119, Note_on_c, 0, 69, 0
2, 111124, Note_on_c, 0, 67, 0
2, 111124, Note_on_c, 0, 62, 58
2, 111136, Note_on_c, 0, 64, 0
2, 111171, Note_on_c, 0, 67, 54
2, 111171, Note_on_c, 0, 71, 52
2, 111174, Note_on_c, 0, 61, 56
2, 111184, Note_on_c, 0, 62, 0
2, 111201, Note_on_c, 0, 67, 0
2, 111216, Note_on_c, 0, 71, 0
2, 111226, Note_on_c, 0, 59, 54
2, 111233, Note_on_c, 0, 61, 0
2, 111258, Note_on_c, 0, 67, 57
2, 111258, Note_on_c, 0, 72, 60
2, 111261, Note_on_c, 0, 59, 0
2, 111261, Note_on_c, 0, 69, 61
2, 111269, Note_on_c, 0, 57, 54
2, 111269, Note_on_c, 0, 63, 54
2, 111291, Note_on_c, 0, 67, 0
2, 111296, Note_on_c, 0, 72, 0
2, 111296, Note_on_c, 0, 69, 0
2, 111299, Note_on_c, 0, 63, 0
2, 111311, Note_on_c, 0, 55, 54
2, 111316, Note_on_c, 0, 57, 0
2, 111349, Note_on_c, 0, 67, 60
2, 111353, Note_on_c, 0, 64, 63
2, 111353, Note_on_c, 0, 69, 65
2, 111353, Note_on_c, 0, 73, 66
2, 111361, Note_on_c, 0, 54, 56
2, 111366, Note_on_c, 0, 55, 0
2, 111386, Note_on_c, 0, 64, 0
2, 111394, Note_on_c, 0, 69, 0
2, 111394, Note_on_c, 0, 67, 0
2, 111394, Note_on_c, 0, 52, 58
2, 111399, Note_on_c, 0, 54, 0
2, 111401, Note_on_c, 0, 73, 0
2, 111426, Note_on_c, 0, 52, 0
2, 111451, Note_on_c, 0, 52, 58
2, 111451, Note_on_c, 0, 61, 58
2, 111451, Note_on_c, 0, 67, 63
2, 111451, Note_on_c, 0, 69, 65
2, 111481, Note_on_c, 0, 61, 0
2, 111489, Note_on_c, 0, 67, 0
2, 111496, Note_on_c, 0, 69, 0
2, 111496, Note_on_c, 0, 50, 58
2, 111499, Note_on_c, 0, 52, 0
2, 111544, Note_on_c, 0, 62, 58
2, 111544, Note_on_c, 0, 67, 62
2, 111544, Note_on_c, 0, 71, 64
2, 111549, Note_on_c, 0, 50, 0
2, 111549, Note_on_c, 0, 49, 58
2, 111552, Note_on_c, 0, 69, 64
2, 111572, Note_on_c, 0, 62, 0
2, 111580, Note_on_c, 0, 67, 0
2, 111588, Note_on_c, 0, 69, 0
2, 111588, Note_on_c, 0, 71, 0
2, 111588, Note_on_c, 0, 47, 57
2, 111597, Note_on_c, 0, 49, 0
2, 111619, Note_on_c, 0, 47, 0
2, 111627, Note_on_c, 0, 63, 54
2, 111627, Note_on_c, 0, 67, 61
2, 111627, Note_on_c, 0, 72, 63
2, 111630, Note_on_c, 0, 69, 64
2, 111633, Note_on_c, 0, 45, 54
2, 111661, Note_on_c, 0, 63, 0
2, 111665, Note_on_c, 0, 67, 0
2, 111675, Note_on_c, 0, 69, 0
2, 111675, Note_on_c, 0, 72, 0
2, 111675, Note_on_c, 0, 43, 54
2, 111688, Note_on_c, 0, 45, 0
2, 111720, Note_on_c, 0, 42, 54
2, 111723, Note_on_c, 0, 64, 61
2, 111723, Note_on_c, 0, 67, 62
2, 111723, Note_on_c, 0, 73, 64
2, 111728, Note_on_c, 0, 43, 0
2, 111770, Note_on_c, 0, 40, 54
2, 111775, Note_on_c, 0, 42, 0
2, 111778, Note_on_c, 0, 64, 0
2, 111783, Note_on_c, 0, 73, 0
2, 111785, Note_on_c, 0, 67, 0
2, 111823, Note_on_c, 0, 38, 54
2, 111823, Note_on_c, 0, 69, 61
2, 111823, Note_on_c, 0, 74, 62
2, 111826, Note_on_c, 0, 40, 0
2, 111826, Note_on_c, 0, 66, 62
2, 111851, Note_on_c, 0, 38, 0
2, 111863, Note_on_c, 0, 66, 0
2, 111868, Note_on_c, 0, 69, 0
2, 111878, Note_on_c, 0, 74, 0
2, 111925, Note_on_c, 0, 64, 57
2, 111925, Note_on_c, 0, 67, 60
2, 111925, Note_on_c, 0, 73, 62
2, 111957, Note_on_c, 0, 67, 0
2, 111965, Note_on_c, 0, 73, 0
2, 111968, Note_on_c, 0, 64, 0
2, 112015, Note_on_c, 0, 45, 54
2, 112023, Note_on_c, 0, 66, 60
2, 112023, Note_on_c, 0, 74, 62
2, 112027, Note_on_c, 0, 69, 63
2, 112052, Note_on_c, 0, 69, 0
2, 112052, Note_on_c, 0, 74, 0
2, 112052, Note_on_c, 0, 66, 0
2, 112060, Note_on_c, 0, 45, 0
2, 112132, Note_on_c, 0, 64, 57
2, 112135, Note_on_c, 0, 73, 63
2, 112138, Note_on_c, 0, 67, 63
2, 112163, Note_on_c, 0, 67, 0
2, 112163, Note_on_c, 0, 73, 0
2, 112163, Note_on_c, 0, 64, 0
2, 112227, Note_on_c, 0, 57, 62
2, 112227, Note_on_c, 0, 66, 62
2, 112227, Note_on_c, 0, 69, 64
2, 112227, Note_on_c, 0, 74, 63
2, 112230, Note_on_c, 0, 33, 63
2, 112263, Note_on_c, 0, 33, 0
2, 112265, Note_on_c, 0, 57, 0
2, 112273, Note_on_c, 0, 69, 0
2, 112281, Note_on_c, 0, 66, 0
2, 112281, Note_on_c, 0, 74, 0
2, 112331, Note_on_c, 0, 59, 61
2, 112360, Note_on_c, 0, 59, 0
2, 112425, Note_on_c, 0, 64, 62
2, 112425, Note_on_c, 0, 67, 63
2, 112425, Note_on_c, 0, 73, 63
2, 112432, Note_on_c, 0, 57, 62
2, 112437, Note_on_c, 0, 45, 63
2, 112462, Note_on_c, 0, 45, 0
2, 112465, Note_on_c, 0, 57, 0
2, 112470, Note_on_c, 0, 67, 0
2, 112478, Note_on_c, 0, 64, 0
2, 112493, Note_on_c, 0, 73, 0
2, 112532, Note_on_c, 0, 59, 62
2, 112565, Note_on_c, 0, 59, 0
2, 112629, Note_on_c, 0, 38, 60
2, 112637, Note_on_c, 0, 52, 58
2, 112637, Note_on_c, 0, 57, 58
2, 112637, Note_on_c, 0, 61, 57
2, 112637, Note_on_c, 0, 67, 67
2, 112637, Note_on_c, 0, 69, 67
2, 112637, Note_on_c, 0, 76, 68
2, 112662, Note_on_c, 0, 69, 0
2, 112667, Note_on_c, 0, 38, 0
2, 112667, Note_on_c, 0, 67, 0
2, 112674, Note_on_c, 0, 76, 0
2, 112709, Note_on_c, 0, 57, 0
2, 112724, Note_on_c, 0, 52, 0
2, 112724, Note_on_c, 0, 61, 0
2, 112727, Control_c, 0, 67, 0
2, 112762, Note_on_c, 0, 54, 57
2, 112777, Note_on_c, 0, 57, 57
2, 112804, Note_on_c, 0, 62, 56
2, 112819, Note_on_c, 0, 74, 61
2, 112822, Note_on_c, 0, 45, 59
2, 112847, Note_on_c, 0, 74, 0
2, 112850, Note_on_c, 0, 45, 0
2, 112855, Note_on_c, 0, 69, 64
2, 112882, Note_on_c, 0, 74, 66
2, 112894, Note_on_c, 0, 69, 0
2, 112914, Note_on_c, 0, 78, 69
2, 112919, Note_on_c, 0, 74, 0
2, 112946, Note_on_c, 0, 81, 70
2, 112954, Note_on_c, 0, 78, 0
2, 112976, Note_on_c, 0, 81, 0
2, 112979, Note_on_c, 0, 86, 73
2, 112999, Note_on_c, 0, 90, 74
2, 113011, Note_on_c, 0, 81, 75
2, 113014, Note_on_c, 0, 33, 57
2, 113047, Note_on_c, 0, 33, 0
2, 113161, Note_on_c, 0, 54, 0
2, 113161, Note_on_c, 0, 62, 0
2, 113171, Note_on_c, 0, 57, 0
2, 113198, Note_on_c, 0, 54, 56
2, 113205, Control_c, 0, 64, 127
2, 113205, Note_on_c, 0, 45, 59
2, 113221, Note_on_c, 0, 57, 60
2, 113236, Note_on_c, 0, 45, 0
2, 113253, Note_on_c, 0, 54, 0
2, 113253, Note_on_c, 0, 62, 66
2, 113269, Note_on_c, 0, 57, 0
2, 113294, Note_on_c, 0, 62, 0
2, 113294, Note_on_c, 0, 66, 73
2, 113323, Note_on_c, 0, 69, 73
2, 113336, Note_on_c, 0, 81, 0
2, 113344, Note_on_c, 0, 86, 0
2, 113346, Note_on_c, 0, 74, 75
2, 113362, Note_on_c, 0, 66, 0
2, 113371, Control_c, 0, 64, 0
2, 113376, Note_on_c, 0, 69, 0
2, 113379, Note_on_c, 0, 90, 0
2, 113384, Note_on_c, 0, 91, 77
2, 113387, Note_on_c, 0, 74, 0
2, 113387, Note_on_c, 0, 67, 74
2, 113387, Note_on_c, 0, 71, 75
2, 113387, Note_on_c, 0, 83, 77
2, 113392, Note_on_c, 0, 38, 75
2, 113396, Note_on_c, 0, 86, 77
2, 113423, Note_on_c, 0, 38, 0
2, 113426, Note_on_c, 0, 71, 0
2, 113429, Note_on_c, 0, 67, 0
2, 113432, Note_on_c, 0, 86, 0
2, 113432, Note_on_c, 0, 83, 0
2, 113437, Note_on_c, 0, 91, 0
2, 113499, Note_on_c, 0, 74, 67
2, 113499, Note_on_c, 0, 81, 74
2, 113499, Note_on_c, 0, 86, 75
2, 113499, Note_on_c, 0, 90, 76
2, 113502, Note_on_c, 0, 69, 75
2, 113529, Note_on_c, 0, 81, 0
2, 113536, Note_on_c, 0, 86, 0
2, 113539, Note_on_c, 0, 74, 0
2, 113539, Note_on_c, 0, 90, 0
2, 113539, Note_on_c, 0, 69, 0
2, 113596, Note_on_c, 0, 91, 72
2, 113599, Note_on_c, 0, 67, 72
2, 113599, Note_on_c, 0, 71, 74
2, 113599, Note_on_c, 0, 83, 77
2, 113599, Note_on_c, 0, 86, 76
2, 113602, Note_on_c, 0, 45, 61
2, 113627, Note_on_c, 0, 86, 0
2, 113627, Note_on_c, 0, 83, 0
2, 113627, Note_on_c, 0, 91, 0
2, 113632, Note_on_c, 0, 67, 0
2, 113634, Note_on_c, 0, 45, 0
2, 113639, Note_on_c, 0, 71, 0
2, 113689, Note_on_c, 0, 81, 64
2, 113689, Note_on_c, 0, 86, 63
2, 113689, Note_on_c, 0, 90, 62
2, 113692, Note_on_c, 0, 74, 61
2, 113695, Note_on_c, 0, 69, 62
2, 113725, Note_on_c, 0, 74, 0
2, 113728, Note_on_c, 0, 90, 0
2, 113730, Note_on_c, 0, 81, 0
2, 113730, Note_on_c, 0, 86, 0
2, 113730, Note_on_c, 0, 69, 0
2, 113790, Note_on_c, 0, 79, 67
2, 113790, Note_on_c, 0, 81, 69
2, 113790, Note_on_c, 0, 88, 68
2, 113795, Note_on_c, 0, 33, 65
2, 113795, Note_on_c, 0, 64, 66
2, 113795, Note_on_c, 0, 69, 66
2, 113822, Note_on_c, 0, 69, 0
2, 113822, Note_on_c, 0, 81, 0
2, 113824, Note_on_c, 0, 33, 0
2, 113827, Note_on_c, 0, 88, 0
2, 113830, Note_on_c, 0, 79, 0
2, 113830, Note_on_c, 0, 64, 0
2, 113882, Note_on_c, 0, 66, 66
2, 113882, Note_on_c, 0, 78, 71
2, 113882, Note_on_c, 0, 86, 74
2, 113885, Note_on_c, 0, 69, 73
2, 113890, Note_on_c, 0, 81, 76
2, 113910, Note_on_c, 0, 69, 0
2, 113910, Note_on_c, 0, 66, 0
2, 113913, Note_on_c, 0, 86, 0
2, 113918, Note_on_c, 0, 78, 0
2, 113918, Note_on_c, 0, 81, 0
2, 113968, Note_on_c, 0, 73, 69
2, 113968, Note_on_c, 0, 81, 74
2, 113970, Note_on_c, 0, 64, 72
2, 113975, Note_on_c, 0, 45, 65
2, 113975, Note_on_c, 0, 76, 74
2, 113980, Note_on_c, 0, 61, 65
2, 113997, Note_on_c, 0, 45, 0
2, 114000, Note_on_c, 0, 73, 0
2, 114003, Note_on_c, 0, 76, 0
2, 114003, Note_on_c, 0, 61, 0
2, 114011, Note_on_c, 0, 81, 0
2, 114011, Note_on_c, 0, 64, 0
2, 114056, Note_on_c, 0, 78, 71
2, 114059, Note_on_c, 0, 62, 65
2, 114059, Note_on_c, 0, 66, 76
2, 114062, Note_on_c, 0, 69, 78
2, 114062, Note_on_c, 0, 74, 79
2, 114087, Note_on_c, 0, 78, 0
2, 114089, Note_on_c, 0, 62, 0
2, 114094, Note_on_c, 0, 69, 0
2, 114097, Note_on_c, 0, 66, 0
2, 114097, Note_on_c, 0, 74, 0
2, 114154, Note_on_c, 0, 67, 74
2, 114157, Note_on_c, 0, 40, 65
2, 114157, Note_on_c, 0, 55, 65
2, 114157, Note_on_c, 0, 74, 79
2, 114164, Note_on_c, 0, 70, 80
2, 114189, Note_on_c, 0, 55, 0
2, 114189, Note_on_c, 0, 40, 0
2, 114246, Note_on_c, 0, 58, 68
2, 114273, Note_on_c, 0, 58, 0
2, 114342, Note_on_c, 0, 62, 61
2, 114345, Note_on_c, 0, 52, 58
2, 114370, Note_on_c, 0, 62, 0
2, 114375, Note_on_c, 0, 52, 0
2, 114397, Note_on_c, 0, 67, 0
2, 114419, Note_on_c, 0, 70, 0
2, 114426, Note_on_c, 0, 74, 0
2, 114431, Note_on_c, 0, 67, 56
2, 114469, Note_on_c, 0, 67, 0
2, 114520, Note_on_c, 0, 86, 63
2, 114533, Note_on_c, 0, 33, 63
2, 114533, Note_on_c, 0, 57, 64
2, 114536, Note_on_c, 0, 81, 69
2, 114539, Note_on_c, 0, 79, 68
2, 114539, Note_on_c, 0, 85, 71
2, 114561, Note_on_c, 0, 86, 0
2, 114566, Note_on_c, 0, 33, 0
2, 114566, Note_on_c, 0, 57, 0
2, 114635, Note_on_c, 0, 61, 66
2, 114664, Note_on_c, 0, 61, 0
2, 114729, Note_on_c, 0, 81, 0
2, 114732, Note_on_c, 0, 64, 57
2, 114736, Note_on_c, 0, 45, 57
2, 114761, Note_on_c, 0, 64, 0
2, 114766, Note_on_c, 0, 45, 0
2, 114816, Note_on_c, 0, 79, 0
2, 114821, Note_on_c, 0, 69, 58
2, 114851, Note_on_c, 0, 69, 0
2, 114885, Note_on_c, 0, 85, 0
2, 114905, Note_on_c, 0, 76, 64
2, 114905, Note_on_c, 0, 79, 65
2, 114905, Note_on_c, 0, 83, 68
2, 114915, Note_on_c, 0, 64, 66
2, 114915, Note_on_c, 0, 71, 67
2, 114920, Note_on_c, 0, 37, 65
2, 114923, Note_on_c, 0, 67, 64
2, 114932, Note_on_c, 0, 79, 0
2, 114942, Note_on_c, 0, 83, 0
2, 114945, Note_on_c, 0, 76, 0
2, 114945, Note_on_c, 0, 37, 0
2, 114948, Note_on_c, 0, 67, 0
2, 114952, Note_on_c, 0, 71, 0
2, 114960, Note_on_c, 0, 64, 0
2, 115000, Note_on_c, 0, 71, 66
2, 115004, Note_on_c, 0, 64, 65
2, 115004, Note_on_c, 0, 67, 65
2, 115034, Note_on_c, 0, 67, 0
2, 115042, Note_on_c, 0, 64, 0
2, 115049, Note_on_c, 0, 71, 0
2, 115104, Note_on_c, 0, 45, 65
2, 115104, Note_on_c, 0, 64, 65
2, 115104, Note_on_c, 0, 67, 64
2, 115104, Note_on_c, 0, 71, 66
2, 115134, Note_on_c, 0, 67, 0
2, 115134, Note_on_c, 0, 45, 0
2, 115142, Note_on_c, 0, 64, 0
2, 115142, Note_on_c, 0, 71, 0
2, 115193, Note_on_c, 0, 67, 65
2, 115196, Note_on_c, 0, 71, 66
2, 115199, Note_on_c, 0, 64, 65
2, 115229, Note_on_c, 0, 67, 0
2, 115232, Note_on_c, 0, 71, 0
2, 115237, Note_on_c, 0, 64, 0
2, 115284, Note_on_c, 0, 73, 66
2, 115287, Note_on_c, 0, 64, 71
2, 115299, Note_on_c, 0, 71, 73
2, 115302, Note_on_c, 0, 65, 73
2, 115307, Note_on_c, 0, 56, 65
2, 115310, Note_on_c, 0, 53, 65
2, 115310, Note_on_c, 0, 68, 74
2, 115312, Note_on_c, 0, 59, 65
2, 115315, Note_on_c, 0, 73, 0
2, 115315, Note_on_c, 0, 38, 65
2, 115323, Note_on_c, 0, 64, 0
2, 115340, Note_on_c, 0, 56, 0
2, 115343, Note_on_c, 0, 59, 0
2, 115343, Note_on_c, 0, 38, 0
2, 115346, Note_on_c, 0, 53, 0
2, 115388, Note_on_c, 0, 59, 65
2, 115391, Note_on_c, 0, 68, 0
2, 115394, Note_on_c, 0, 56, 65
2, 115397, Note_on_c, 0, 53, 65
2, 115400, Note_on_c, 0, 71, 0
2, 115427, Note_on_c, 0, 59, 0
2, 115434, Note_on_c, 0, 56, 0
2, 115442, Note_on_c, 0, 53, 0
2, 115462, Note_on_c, 0, 65, 0
2, 115489, Note_on_c, 0, 50, 65
2, 115489, Note_on_c, 0, 54, 65
2, 115489, Note_on_c, 0, 69, 61
2, 115492, Note_on_c, 0, 57, 64
2, 115497, Note_on_c, 0, 62, 65
2, 115497, Note_on_c, 0, 66, 59
2, 115522, Note_on_c, 0, 50, 0
2, 115531, Note_on_c, 0, 57, 0
2, 115539, Note_on_c, 0, 62, 0
2, 115539, Note_on_c, 0, 66, 0
2, 115549, Note_on_c, 0, 54, 0
2, 115578, Note_on_c, 0, 66, 65
2, 115581, Note_on_c, 0, 57, 65
2, 115591, Note_on_c, 0, 54, 65
2, 115603, Note_on_c, 0, 69, 0
2, 115616, Note_on_c, 0, 66, 0
2, 115616, Note_on_c, 0, 57, 0
2, 115619, Note_on_c, 0, 54, 0
2, 115675, Note_on_c, 0, 71, 68
2, 115675, Note_on_c, 0, 73, 72
2, 115675, Note_on_c, 0, 79, 73
2, 115675, Note_on_c, 0, 83, 76
2, 115678, Note_on_c, 0, 40, 65
2, 115678, Note_on_c, 0, 67, 74
2, 115688, Note_on_c, 0, 57, 65
2, 115688, Note_on_c, 0, 61, 65
2, 115702, Note_on_c, 0, 73, 0
2, 115705, Note_on_c, 0, 67, 0
2, 115705, Note_on_c, 0, 79, 0
2, 115708, Note_on_c, 0, 83, 0
2, 115711, Note_on_c, 0, 40, 0
2, 115714, Note_on_c, 0, 71, 0
2, 115717, Note_on_c, 0, 61, 0
2, 115726, Note_on_c, 0, 57, 0
2, 115778, Note_on_c, 0, 61, 65
2, 115778, Note_on_c, 0, 67, 65
2, 115778, Note_on_c, 0, 71, 65
2, 115805, Note_on_c, 0, 67, 0
2, 115810, Note_on_c, 0, 61, 0
2, 115824, Note_on_c, 0, 71, 0
2, 115871, Note_on_c, 0, 52, 65
2, 115871, Note_on_c, 0, 61, 65
2, 115871, Note_on_c, 0, 67, 65
2, 115871, Note_on_c, 0, 71, 65
2, 115904, Note_on_c, 0, 52, 0
2, 115907, Note_on_c, 0, 67, 0
2, 115912, Note_on_c, 0, 61, 0
2, 115919, Note_on_c, 0, 71, 0
2, 115961, Note_on_c, 0, 61, 65
2, 115961, Note_on_c, 0, 67, 65
2, 115961, Note_on_c, 0, 71, 65
2, 115991, Note_on_c, 0, 67, 0
2, 115999, Note_on_c, 0, 71, 0
2, 115999, Note_on_c, 0, 61, 0
2, 116036, Note_on_c, 0, 73, 68
2, 116051, Note_on_c, 0, 56, 66
2, 116051, Note_on_c, 0, 62, 67
2, 116051, Note_on_c, 0, 65, 72
2, 116051, Note_on_c, 0, 71, 74
2, 116054, Note_on_c, 0, 59, 68
2, 116056, Note_on_c, 0, 42, 69
2, 116059, Note_on_c, 0, 68, 74
2, 116062, Note_on_c, 0, 73, 0
2, 116084, Note_on_c, 0, 42, 0
2, 116089, Note_on_c, 0, 56, 0
2, 116089, Note_on_c, 0, 62, 0
2, 116099, Note_on_c, 0, 59, 0
2, 116133, Note_on_c, 0, 56, 69
2, 116133, Note_on_c, 0, 62, 69
2, 116136, Note_on_c, 0, 59, 68
2, 116153, Note_on_c, 0, 68, 0
2, 116178, Note_on_c, 0, 62, 0
2, 116181, Note_on_c, 0, 56, 0
2, 116181, Note_on_c, 0, 65, 0
2, 116181, Note_on_c, 0, 59, 0
2, 116196, Note_on_c, 0, 71, 0
2, 116230, Note_on_c, 0, 66, 65
2, 116233, Note_on_c, 0, 54, 69
2, 116233, Note_on_c, 0, 57, 69
2, 116236, Note_on_c, 0, 69, 62
2, 116241, Note_on_c, 0, 62, 69
2, 116266, Note_on_c, 0, 54, 0
2, 116278, Note_on_c, 0, 62, 0
2, 116281, Note_on_c, 0, 57, 0
2, 116296, Note_on_c, 0, 66, 0
2, 116296, Note_on_c, 0, 69, 0
2, 116330, Note_on_c, 0, 62, 71
2, 116330, Note_on_c, 0, 66, 70
2, 116330, Note_on_c, 0, 69, 72
2, 116382, Note_on_c, 0, 62, 0
2, 116390, Note_on_c, 0, 69, 0
2, 116390, Note_on_c, 0, 66, 0
2, 116415, Note_on_c, 0, 76, 76
2, 116415, Note_on_c, 0, 82, 80
2, 116415, Note_on_c, 0, 86, 81
2, 116422, Note_on_c, 0, 70, 80
2, 116425, Note_on_c, 0, 64, 80
2, 116425, Note_on_c, 0, 74, 82
2, 116430, Note_on_c, 0, 43, 73
2, 116452, Note_on_c, 0, 43, 0
2, 116452, Note_on_c, 0, 82, 0
2, 116452, Note_on_c, 0, 76, 0
2, 116452, Note_on_c, 0, 86, 0
2, 116460, Note_on_c, 0, 70, 0
2, 116460, Note_on_c, 0, 74, 0
2, 116477, Note_on_c, 0, 64, 0
2, 116512, Note_on_c, 0, 64, 73
2, 116512, Note_on_c, 0, 70, 74
2, 116512, Note_on_c, 0, 74, 73
2, 116549, Note_on_c, 0, 70, 0
2, 116552, Note_on_c, 0, 74, 0
2, 116552, Note_on_c, 0, 64, 0
2, 116602, Note_on_c, 0, 70, 70
2, 116605, Note_on_c, 0, 55, 65
2, 116605, Note_on_c, 0, 64, 67
2, 116605, Note_on_c, 0, 74, 67
2, 116634, Note_on_c, 0, 55, 0
2, 116642, Note_on_c, 0, 70, 0
2, 116642, Note_on_c, 0, 74, 0
2, 116650, Note_on_c, 0, 64, 0
2, 116704, Note_on_c, 0, 70, 66
2, 116704, Note_on_c, 0, 74, 66
2, 116707, Note_on_c, 0, 64, 64
2, 116737, Note_on_c, 0, 74, 0
2, 116737, Note_on_c, 0, 70, 0
2, 116740, Note_on_c, 0, 64, 0
2, 116784, Note_on_c, 0, 64, 66
2, 116784, Note_on_c, 0, 71, 70
2, 116784, Note_on_c, 0, 74, 71
2, 116787, Note_on_c, 0, 59, 65
2, 116790, Note_on_c, 0, 44, 65
2, 116798, Note_on_c, 0, 52, 65
2, 116820, Note_on_c, 0, 71, 0
2, 116824, Note_on_c, 0, 44, 0
2, 116827, Note_on_c, 0, 64, 0
2, 116827, Note_on_c, 0, 74, 0
2, 116879, Note_on_c, 0, 73, 67
2, 116882, Note_on_c, 0, 64, 66
2, 116882, Note_on_c, 0, 71, 67
2, 116909, Note_on_c, 0, 71, 0
2, 116909, Note_on_c, 0, 73, 0
2, 116917, Note_on_c, 0, 64, 0
2, 116978, Note_on_c, 0, 56, 65
2, 116978, Note_on_c, 0, 64, 66
2, 116978, Note_on_c, 0, 71, 66
2, 116978, Note_on_c, 0, 76, 67
2, 117008, Note_on_c, 0, 76, 0
2, 117011, Note_on_c, 0, 56, 0
2, 117011, Note_on_c, 0, 71, 0
2, 117018, Note_on_c, 0, 64, 0
2, 117063, Note_on_c, 0, 64, 65
2, 117063, Note_on_c, 0, 71, 69
2, 117063, Note_on_c, 0, 74, 70
2, 117070, Note_on_c, 0, 52, 0
2, 117085, Note_on_c, 0, 59, 0
2, 117110, Note_on_c, 0, 71, 0
2, 117110, Note_on_c, 0, 64, 0
2, 117117, Note_on_c, 0, 74, 0
2, 117161, Note_on_c, 0, 69, 68
2, 117166, Note_on_c, 0, 64, 70
2, 117166, Note_on_c, 0, 67, 71
2, 117166, Note_on_c, 0, 74, 73
2, 117174, Note_on_c, 0, 57, 65
2, 117177, Note_on_c, 0, 45, 65
2, 117194, Note_on_c, 0, 69, 0
2, 117197, Note_on_c, 0, 67, 0
2, 117205, Note_on_c, 0, 74, 0
2, 117205, Note_on_c, 0, 64, 0
2, 117205, Note_on_c, 0, 45, 0
2, 117212, Note_on_c, 0, 57, 0
2, 117256, Note_on_c, 0, 64, 70
2, 117256, Note_on_c, 0, 67, 75
2, 117256, Note_on_c, 0, 69, 77
2, 117259, Note_on_c, 0, 57, 65
2, 117259, Note_on_c, 0, 73, 78
2, 117289, Note_on_c, 0, 69, 0
2, 117292, Note_on_c, 0, 57, 0
2, 117295, Note_on_c, 0, 67, 0
2, 117300, Note_on_c, 0, 64, 0
2, 117304, Note_on_c, 0, 73, 0
2, 117359, Note_on_c, 0, 67, 72
2, 117359, Note_on_c, 0, 71, 77
2, 117362, Note_on_c, 0, 57, 65
2, 117362, Note_on_c, 0, 61, 65
2, 117394, Note_on_c, 0, 57, 0
2, 117401, Note_on_c, 0, 61, 0
2, 117401, Note_on_c, 0, 67, 0
2, 117409, Note_on_c, 0, 71, 0
2, 117447, Note_on_c, 0, 69, 75
2, 117451, Note_on_c, 0, 67, 77
2, 117454, Note_on_c, 0, 61, 65
2, 117484, Note_on_c, 0, 61, 0
2, 117484, Note_on_c, 0, 67, 0
2, 117484, Note_on_c, 0, 69, 0
2, 117521, Note_on_c, 0, 57, 65
2, 117536, Note_on_c, 0, 61, 65
2, 117544, Control_c, 0, 64, 127
2, 117544, Note_on_c, 0, 64, 80
2, 117553, Note_on_c, 0, 67, 81
2, 117553, Note_on_c, 0, 91, 85
2, 117561, Note_on_c, 0, 81, 86
2, 117561, Note_on_c, 0, 85, 87
2, 117561, Note_on_c, 0, 88, 88
2, 117588, Note_on_c, 0, 85, 0
2, 117588, Note_on_c, 0, 91, 0
2, 117591, Note_on_c, 0, 81, 0
2, 117598, Note_on_c, 0, 67, 0
2, 117603, Note_on_c, 0, 88, 0
2, 117606, Note_on_c, 0, 64, 0
2, 117606, Note_on_c, 0, 61, 0
2, 117609, Note_on_c, 0, 57, 0
2, 117752, Note_on_c, 0, 88, 76
2, 117760, Note_on_c, 0, 45, 65
2, 117767, Note_on_c, 0, 85, 68
2, 117792, Note_on_c, 0, 49, 65
2, 117797, Note_on_c, 0, 81, 68
2, 117814, Note_on_c, 0, 52, 65
2, 117817, Note_on_c, 0, 85, 0
2, 117817, Note_on_c, 0, 88, 0
2, 117820, Note_on_c, 0, 79, 65
2, 117830, Note_on_c, 0, 45, 0
2, 117834, Note_on_c, 0, 49, 0
2, 117839, Note_on_c, 0, 81, 0
2, 117842, Note_on_c, 0, 76, 66
2, 117847, Note_on_c, 0, 52, 0
2, 117847, Note_on_c, 0, 55, 65
2, 117850, Note_on_c, 0, 79, 0
2, 117872, Note_on_c, 0, 57, 64
2, 117872, Note_on_c, 0, 73, 68
2, 117894, Note_on_c, 0, 55, 0
2, 117897, Note_on_c, 0, 61, 68
2, 117897, Note_on_c, 0, 69, 69
2, 117906, Note_on_c, 0, 76, 0
2, 117911, Note_on_c, 0, 64, 68
2, 117911, Note_on_c, 0, 67, 67
2, 117919, Note_on_c, 0, 57, 0
2, 117922, Note_on_c, 0, 69, 0
2, 117925, Note_on_c, 0, 73, 0
2, 117928, Note_on_c, 0, 61, 0
2, 117930, Control_c, 0, 64, 0
2, 117940, Note_on_c, 0, 67, 0
2, 117948, Note_on_c, 0, 66, 62
2, 117948, Note_on_c, 0, 74, 63
2, 117951, Note_on_c, 0, 64, 0
2, 117951, Note_on_c, 0, 69, 63
2, 117955, Note_on_c, 0, 38, 63
2, 117985, Note_on_c, 0, 38, 0
2, 117988, Note_on_c, 0, 69, 0
2, 117988, Note_on_c, 0, 74, 0
2, 117991, Note_on_c, 0, 66, 0
2, 118050, Note_on_c, 0, 73, 57
2, 118053, Note_on_c, 0, 64, 57
2, 118061, Note_on_c, 0, 67, 57
2, 118088, Note_on_c, 0, 73, 0
2, 118091, Note_on_c, 0, 64, 0
2, 118098, Note_on_c, 0, 67, 0
2, 118158, Note_on_c, 0, 66, 56
2, 118161, Note_on_c, 0, 45, 57
2, 118161, Note_on_c, 0, 69, 58
2, 118161, Note_on_c, 0, 74, 57
2, 118188, Note_on_c, 0, 74, 0
2, 118188, Note_on_c, 0, 69, 0
2, 118191, Note_on_c, 0, 66, 0
2, 118193, Note_on_c, 0, 45, 0
2, 118253, Note_on_c, 0, 64, 60
2, 118253, Note_on_c, 0, 67, 64
2, 118256, Note_on_c, 0, 73, 66
2, 118283, Note_on_c, 0, 73, 0
2, 118283, Note_on_c, 0, 67, 0
2, 118283, Note_on_c, 0, 64, 0
2, 118342, Note_on_c, 0, 66, 62
2, 118345, Note_on_c, 0, 57, 66
2, 118345, Note_on_c, 0, 69, 66
2, 118345, Note_on_c, 0, 74, 67
2, 118348, Note_on_c, 0, 33, 66
2, 118378, Note_on_c, 0, 33, 0
2, 118378, Note_on_c, 0, 66, 0
2, 118378, Note_on_c, 0, 74, 0
2, 118381, Note_on_c, 0, 69, 0
2, 118384, Note_on_c, 0, 57, 0
2, 118457, Note_on_c, 0, 59, 64
2, 118482, Note_on_c, 0, 59, 0
2, 118542, Note_on_c, 0, 73, 74
2, 118545, Note_on_c, 0, 57, 66
2, 118545, Note_on_c, 0, 64, 74
2, 118548, Note_on_c, 0, 45, 67
2, 118548, Note_on_c, 0, 67, 74
2, 118573, Note_on_c, 0, 67, 0
2, 118576, Note_on_c, 0, 57, 0
2, 118578, Note_on_c, 0, 45, 0
2, 118591, Note_on_c, 0, 64, 0
2, 118591, Note_on_c, 0, 73, 0
2, 118648, Note_on_c, 0, 59, 60
2, 118677, Note_on_c, 0, 59, 0
2, 118749, Note_on_c, 0, 67, 80
2, 118749, Note_on_c, 0, 76, 82
2, 118752, Note_on_c, 0, 57, 57
2, 118752, Note_on_c, 0, 61, 57
2, 118752, Note_on_c, 0, 69, 82
2, 118755, Note_on_c, 0, 52, 56
2, 118758, Note_on_c, 0, 38, 57
2, 118778, Note_on_c, 0, 76, 0
2, 118781, Note_on_c, 0, 69, 0
2, 118781, Note_on_c, 0, 67, 0
2, 118784, Note_on_c, 0, 38, 0
2, 118793, Note_on_c, 0, 61, 0
2, 118793, Note_on_c, 0, 57, 0
2, 118796, Note_on_c, 0, 52, 0
2, 118955, Note_on_c, 0, 62, 59
2, 118958, Note_on_c, 0, 57, 65
2, 118962, Note_on_c, 0, 74, 75
2, 118965, Note_on_c, 0, 45, 65
2, 118965, Note_on_c, 0, 54, 65
2, 118985, Note_on_c, 0, 69, 73
2, 118990, Note_on_c, 0, 74, 0
2, 118990, Control_c, 0, 64, 127
2, 118995, Note_on_c, 0, 45, 0
2, 119020, Note_on_c, 0, 74, 70
2, 119032, Note_on_c, 0, 69, 0
2, 119053, Note_on_c, 0, 74, 0
2, 119057, Note_on_c, 0, 78, 66
2, 119082, Note_on_c, 0, 81, 68
2, 119097, Note_on_c, 0, 78, 0
2, 119106, Note_on_c, 0, 86, 68
2, 119119, Note_on_c, 0, 81, 0
2, 119136, Note_on_c, 0, 81, 71
2, 119136, Note_on_c, 0, 90, 73
2, 119141, Note_on_c, 0, 33, 65
2, 119171, Note_on_c, 0, 33, 0
2, 119279, Control_c, 0, 64, 0
2, 119282, Note_on_c, 0, 57, 0
2, 119282, Note_on_c, 0, 62, 0
2, 119290, Note_on_c, 0, 54, 0
2, 119329, Note_on_c, 0, 45, 62
2, 119329, Note_on_c, 0, 54, 59
2, 119361, Note_on_c, 0, 45, 0
2, 119364, Note_on_c, 0, 57, 64
2, 119384, Control_c, 0, 64, 127
2, 119396, Note_on_c, 0, 62, 67
2, 119409, Note_on_c, 0, 54, 0
2, 119429, Note_on_c, 0, 66, 65
2, 119443, Note_on_c, 0, 57, 0
2, 119456, Note_on_c, 0, 69, 66
2, 119459, Note_on_c, 0, 62, 0
2, 119471, Note_on_c, 0, 81, 0
2, 119471, Note_on_c, 0, 86, 0
2, 119488, Note_on_c, 0, 74, 65
2, 119506, Note_on_c, 0, 66, 0
2, 119506, Note_on_c, 0, 69, 0
2, 119509, Note_on_c, 0, 91, 73
2, 119513, Note_on_c, 0, 74, 0
2, 119513, Control_c, 0, 64, 0
2, 119516, Note_on_c, 0, 83, 75
2, 119516, Note_on_c, 0, 86, 76
2, 119519, Note_on_c, 0, 67, 74
2, 119524, Note_on_c, 0, 90, 0
2, 119524, Note_on_c, 0, 71, 75
2, 119534, Note_on_c, 0, 38, 68
2, 119554, Note_on_c, 0, 67, 0
2, 119557, Note_on_c, 0, 83, 0
2, 119557, Note_on_c, 0, 38, 0
2, 119560, Note_on_c, 0, 91, 0
2, 119560, Note_on_c, 0, 86, 0
2, 119564, Note_on_c, 0, 71, 0
2, 119616, Note_on_c, 0, 81, 68
2, 119616, Note_on_c, 0, 86, 69
2, 119616, Note_on_c, 0, 90, 68
2, 119619, Note_on_c, 0, 69, 67
2, 119622, Note_on_c, 0, 74, 67
2, 119656, Note_on_c, 0, 74, 0
2, 119656, Note_on_c, 0, 81, 0
2, 119656, Note_on_c, 0, 90, 0
2, 119656, Note_on_c, 0, 86, 0
2, 119659, Note_on_c, 0, 69, 0
2, 119716, Note_on_c, 0, 91, 64
2, 119721, Note_on_c, 0, 86, 67
2, 119726, Note_on_c, 0, 67, 65
2, 119726, Note_on_c, 0, 71, 67
2, 119726, Note_on_c, 0, 83, 68
2, 119730, Note_on_c, 0, 45, 57
2, 119748, Note_on_c, 0, 86, 0
2, 119751, Note_on_c, 0, 71, 0
2, 119751, Note_on_c, 0, 91, 0
2, 119753, Note_on_c, 0, 83, 0
2, 119753, Note_on_c, 0, 67, 0
2, 119756, Note_on_c, 0, 45, 0
2, 119813, Note_on_c, 0, 90, 64
2, 119816, Note_on_c, 0, 74, 65
2, 119816, Note_on_c, 0, 86, 68
2, 119819, Note_on_c, 0, 69, 67
2, 119826, Note_on_c, 0, 81, 69
2, 119853, Note_on_c, 0, 81, 0
2, 119853, Note_on_c, 0, 86, 0
2, 119853, Note_on_c, 0, 74, 0
2, 119856, Note_on_c, 0, 69, 0
2, 119864, Note_on_c, 0, 90, 0
2, 119913, Note_on_c, 0, 81, 64
2, 119913, Note_on_c, 0, 88, 67
2, 119916, Note_on_c, 0, 64, 65
2, 119916, Note_on_c, 0, 69, 67
2, 119916, Note_on_c, 0, 79, 66
2, 119920, Note_on_c, 0, 33, 57
2, 119943, Note_on_c, 0, 88, 0
2, 119952, Note_on_c, 0, 64, 0
2, 119952, Note_on_c, 0, 69, 0
2, 119952, Note_on_c, 0, 81, 0
2, 119952, Note_on_c, 0, 33, 0
2, 119952, Note_on_c, 0, 79, 0
2, 120007, Note_on_c, 0, 66, 59
2, 120007, Note_on_c, 0, 69, 66
2, 120007, Note_on_c, 0, 81, 69
2, 120007, Note_on_c, 0, 86, 70
2, 120012, Note_on_c, 0, 78, 69
2, 120034, Note_on_c, 0, 81, 0
2, 120041, Note_on_c, 0, 86, 0
2, 120041, Note_on_c, 0, 78, 0
2, 120044, Note_on_c, 0, 69, 0
2, 120044, Note_on_c, 0, 66, 0
2, 120096, Note_on_c, 0, 81, 66
2, 120099, Note_on_c, 0, 64, 68
2, 120104, Note_on_c, 0, 45, 57
2, 120104, Note_on_c, 0, 73, 70
2, 120107, Note_on_c, 0, 61, 57
2, 120107, Note_on_c, 0, 76, 71
2, 120129, Note_on_c, 0, 45, 0
2, 120134, Note_on_c, 0, 61, 0
2, 120134, Note_on_c, 0, 73, 0
2, 120134, Note_on_c, 0, 76, 0
2, 120141, Note_on_c, 0, 81, 0
2, 120144, Note_on_c, 0, 64, 0
2, 120196, Note_on_c, 0, 74, 66
2, 120196, Note_on_c, 0, 78, 74
2, 120199, Note_on_c, 0, 62, 57
2, 120199, Note_on_c, 0, 66, 74
2, 120204, Note_on_c, 0, 69, 76
2, 120224, Note_on_c, 0, 78, 0
2, 120236, Note_on_c, 0, 66, 0
2, 120236, Note_on_c, 0, 74, 0
2, 120236, Note_on_c, 0, 62, 0
2, 120236, Note_on_c, 0, 69, 0
2, 120296, Note_on_c, 0, 74, 73
2, 120301, Note_on_c, 0, 70, 78
2, 120305, Note_on_c, 0, 55, 65
2, 120305, Note_on_c, 0, 67, 78
2, 120310, Note_on_c, 0, 40, 65
2, 120335, Note_on_c, 0, 40, 0
2, 120338, Note_on_c, 0, 55, 0
2, 120392, Note_on_c, 0, 58, 65
2, 120429, Note_on_c, 0, 58, 0
2, 120489, Note_on_c, 0, 62, 65
2, 120494, Note_on_c, 0, 52, 65
2, 120519, Note_on_c, 0, 52, 0
2, 120526, Note_on_c, 0, 62, 0
2, 120539, Note_on_c, 0, 67, 0
2, 120561, Note_on_c, 0, 70, 0
2, 120561, Note_on_c, 0, 74, 0
2, 120583, Note_on_c, 0, 67, 64
2, 120615, Note_on_c, 0, 67, 0
2, 120659, Note_on_c, 0, 86, 71
2, 120673, Note_on_c, 0, 79, 73
2, 120673, Note_on_c, 0, 81, 76
2, 120673, Note_on_c, 0, 85, 77
2, 120681, Note_on_c, 0, 33, 67
2, 120681, Note_on_c, 0, 57, 66
2, 120703, Note_on_c, 0, 86, 0
2, 120711, Note_on_c, 0, 33, 0
2, 120713, Note_on_c, 0, 57, 0
2, 120775, Note_on_c, 0, 61, 63
2, 120811, Note_on_c, 0, 61, 0
2, 120819, Note_on_c, 0, 81, 0
2, 120863, Note_on_c, 0, 45, 61
2, 120863, Note_on_c, 0, 64, 61
2, 120893, Note_on_c, 0, 45, 0
2, 120915, Note_on_c, 0, 64, 0
2, 120952, Note_on_c, 0, 69, 62
2, 120999, Note_on_c, 0, 69, 0
2, 121006, Note_on_c, 0, 85, 0
2, 121006, Note_on_c, 0, 79, 0
2, 121043, Note_on_c, 0, 71, 64
2, 121043, Note_on_c, 0, 83, 69
2, 121046, Note_on_c, 0, 64, 67
2, 121046, Note_on_c, 0, 67, 68
2, 121046, Note_on_c, 0, 76, 70
2, 121050, Note_on_c, 0, 37, 59
2, 121053, Note_on_c, 0, 79, 71
2, 121075, Note_on_c, 0, 37, 0
2, 121078, Note_on_c, 0, 76, 0
2, 121078, Note_on_c, 0, 79, 0
2, 121081, Note_on_c, 0, 83, 0
2, 121081, Note_on_c, 0, 67, 0
2, 121086, Note_on_c, 0, 71, 0
2, 121091, Note_on_c, 0, 64, 0
2, 121135, Note_on_c, 0, 71, 60
2, 121138, Note_on_c, 0, 64, 60
2, 121145, Note_on_c, 0, 67, 61
2, 121175, Note_on_c, 0, 67, 0
2, 121175, Note_on_c, 0, 64, 0
2, 121180, Note_on_c, 0, 71, 0
2, 121237, Note_on_c, 0, 64, 61
2, 121237, Note_on_c, 0, 67, 61
2, 121237, Note_on_c, 0, 71, 61
2, 121240, Note_on_c, 0, 49, 61
2, 121266, Note_on_c, 0, 67, 0
2, 121271, Note_on_c, 0, 49, 0
2, 121281, Note_on_c, 0, 71, 0
2, 121281, Note_on_c, 0, 64, 0
2, 121328, Note_on_c, 0, 64, 61
2, 121328, Note_on_c, 0, 67, 61
2, 121328, Note_on_c, 0, 71, 61
2, 121364, Note_on_c, 0, 71, 0
2, 121367, Note_on_c, 0, 67, 0
2, 121367, Note_on_c, 0, 64, 0
2, 121409, Note_on_c, 0, 64, 62
2, 121417, Note_on_c, 0, 73, 65
2, 121432, Note_on_c, 0, 53, 65
2, 121432, Note_on_c, 0, 59, 65
2, 121432, Note_on_c, 0, 65, 67
2, 121434, Note_on_c, 0, 38, 64
2, 121434, Note_on_c, 0, 56, 65
2, 121434, Note_on_c, 0, 71, 69
2, 121439, Note_on_c, 0, 68, 69
2, 121449, Note_on_c, 0, 64, 0
2, 121454, Note_on_c, 0, 73, 0
2, 121458, Note_on_c, 0, 38, 0
2, 121466, Note_on_c, 0, 59, 0
2, 121466, Note_on_c, 0, 65, 0
2, 121466, Note_on_c, 0, 56, 0
2, 121469, Note_on_c, 0, 53, 0
2, 121481, Note_on_c, 0, 68, 0
2, 121521, Note_on_c, 0, 59, 65
2, 121528, Note_on_c, 0, 53, 67
2, 121528, Note_on_c, 0, 56, 68
2, 121558, Note_on_c, 0, 59, 0
2, 121566, Note_on_c, 0, 56, 0
2, 121566, Note_on_c, 0, 53, 0
2, 121580, Note_on_c, 0, 71, 0
2, 121605, Note_on_c, 0, 57, 70
2, 121605, Note_on_c, 0, 62, 68
2, 121608, Note_on_c, 0, 69, 74
2, 121611, Note_on_c, 0, 50, 67
2, 121611, Note_on_c, 0, 54, 66
2, 121616, Note_on_c, 0, 66, 74
2, 121636, Note_on_c, 0, 50, 0
2, 121644, Note_on_c, 0, 54, 0
2, 121651, Note_on_c, 0, 62, 0
2, 121656, Note_on_c, 0, 57, 0
2, 121676, Note_on_c, 0, 66, 0
2, 121684, Note_on_c, 0, 69, 0
2, 121696, Note_on_c, 0, 57, 61
2, 121696, Note_on_c, 0, 62, 61
2, 121736, Note_on_c, 0, 57, 0
2, 121744, Note_on_c, 0, 62, 0
2, 121795, Note_on_c, 0, 71, 77
2, 121795, Note_on_c, 0, 79, 80
2, 121795, Note_on_c, 0, 83, 83
2, 121798, Note_on_c, 0, 61, 65
2, 121801, Note_on_c, 0, 40, 65
2, 121806, Note_on_c, 0, 67, 81
2, 121809, Note_on_c, 0, 73, 82
2, 121826, Note_on_c, 0, 61, 0
2, 121826, Note_on_c, 0, 83, 0
2, 121831, Note_on_c, 0, 40, 0
2, 121834, Note_on_c, 0, 67, 0
2, 121834, Note_on_c, 0, 71, 0
2, 121834, Note_on_c, 0, 73, 0
2, 121834, Note_on_c, 0, 79, 0
2, 121895, Note_on_c, 0, 71, 73
2, 121898, Note_on_c, 0, 61, 65
2, 121898, Note_on_c, 0, 67, 67
2, 121930, Note_on_c, 0, 67, 0
2, 121933, Note_on_c, 0, 61, 0
2, 121937, Note_on_c, 0, 71, 0
2, 121982, Note_on_c, 0, 67, 65
2, 121982, Note_on_c, 0, 71, 66
2, 121989, Note_on_c, 0, 61, 65
2, 121992, Note_on_c, 0, 52, 65
2, 122024, Note_on_c, 0, 52, 0
2, 122024, Note_on_c, 0, 61, 0
2, 122032, Note_on_c, 0, 67, 0
2, 122036, Note_on_c, 0, 71, 0
2, 122083, Note_on_c, 0, 61, 65
2, 122083, Note_on_c, 0, 67, 65
2, 122083, Note_on_c, 0, 71, 65
2, 122120, Note_on_c, 0, 71, 0
2, 122120, Note_on_c, 0, 67, 0
2, 122120, Note_on_c, 0, 61, 0
2, 122159, Note_on_c, 0, 73, 70
2, 122172, Note_on_c, 0, 56, 72
2, 122172, Note_on_c, 0, 62, 73
2, 122175, Note_on_c, 0, 59, 72
2, 122175, Note_on_c, 0, 71, 74
2, 122177, Note_on_c, 0, 42, 73
2, 122180, Note_on_c, 0, 65, 74
2, 122188, Note_on_c, 0, 68, 75
2, 122202, Note_on_c, 0, 42, 0
2, 122205, Note_on_c, 0, 73, 0
2, 122210, Note_on_c, 0, 59, 0
2, 122210, Note_on_c, 0, 62, 0
2, 122218, Note_on_c, 0, 56, 0
2, 122249, Note_on_c, 0, 68, 0
2, 122259, Note_on_c, 0, 56, 73
2, 122259, Note_on_c, 0, 62, 73
2, 122269, Note_on_c, 0, 59, 72
2, 122300, Note_on_c, 0, 62, 0
2, 122300, Note_on_c, 0, 56, 0
2, 122303, Note_on_c, 0, 65, 0
2, 122308, Note_on_c, 0, 71, 0
2, 122311, Note_on_c, 0, 59, 0
2, 122343, Note_on_c, 0, 66, 73
2, 122347, Note_on_c, 0, 54, 73
2, 122347, Note_on_c, 0, 57, 73
2, 122347, Note_on_c, 0, 69, 75
2, 122355, Note_on_c, 0, 62, 72
2, 122374, Note_on_c, 0, 54, 0
2, 122387, Note_on_c, 0, 69, 0
2, 122392, Note_on_c, 0, 66, 0
2, 122392, Note_on_c, 0, 57, 0
2, 122399, Note_on_c, 0, 62, 0
2, 122434, Note_on_c, 0, 62, 73
2, 122437, Note_on_c, 0, 57, 73
2, 122479, Note_on_c, 0, 62, 0
2, 122487, Note_on_c, 0, 57, 0
2, 122538, Control_c, 0, 64, 127
2, 122541, Note_on_c, 0, 82, 84
2, 122541, Note_on_c, 0, 86, 84
2, 122544, Note_on_c, 0, 74, 81
2, 122552, Note_on_c, 0, 55, 73
2, 122552, Note_on_c, 0, 58, 73
2, 122552, Note_on_c, 0, 62, 72
2, 122552, Note_on_c, 0, 64, 81
2, 122555, Note_on_c, 0, 43, 73
2, 122572, Note_on_c, 0, 74, 0
2, 122572, Note_on_c, 0, 82, 0
2, 122572, Note_on_c, 0, 86, 0
2, 122580, Note_on_c, 0, 62, 0
2, 122584, Note_on_c, 0, 43, 0
2, 122589, Note_on_c, 0, 55, 0
2, 122604, Note_on_c, 0, 58, 0
2, 122621, Note_on_c, 0, 64, 0
2, 122656, Control_c, 0, 64, 0
2, 122731, Note_on_c, 0, 55, 73
2, 122746, Note_on_c, 0, 58, 73
2, 122768, Note_on_c, 0, 62, 73
2, 122785, Note_on_c, 0, 64, 73
2, 122790, Note_on_c, 0, 55, 0
2, 122798, Note_on_c, 0, 58, 0
2, 122800, Control_c, 0, 64, 127
2, 122808, Note_on_c, 0, 70, 73
2, 122813, Note_on_c, 0, 62, 0
2, 122823, Note_on_c, 0, 74, 74
2, 122837, Note_on_c, 0, 64, 0
2, 122845, Note_on_c, 0, 70, 0
2, 122848, Note_on_c, 0, 76, 74
2, 122865, Note_on_c, 0, 79, 74
2, 122877, Note_on_c, 0, 74, 0
2, 122880, Note_on_c, 0, 82, 76
2, 122890, Note_on_c, 0, 86, 76
2, 122897, Note_on_c, 0, 88, 76
2, 122910, Note_on_c, 0, 94, 78
2, 122949, Note_on_c, 0, 94, 0
2, 122957, Note_on_c, 0, 88, 0
2, 123009, Note_on_c, 0, 86, 0
2, 123012, Note_on_c, 0, 76, 0
2, 123016, Control_c, 0, 64, 0
2, 123024, Note_on_c, 0, 82, 0
2, 123027, Note_on_c, 0, 79, 0
2, 123106, Note_on_c, 0, 57, 73
2, 123113, Note_on_c, 0, 61, 73
2, 123131, Note_on_c, 0, 64, 73
2, 123153, Control_c, 0, 64, 127
2, 123156, Note_on_c, 0, 67, 76
2, 123163, Note_on_c, 0, 57, 0
2, 123185, Note_on_c, 0, 61, 0
2, 123185, Note_on_c, 0, 64, 0
2, 123190, Note_on_c, 0, 69, 81
2, 123195, Note_on_c, 0, 67, 0
2, 123212, Note_on_c, 0, 73, 84
2, 123239, Note_on_c, 0, 76, 85
2, 123256, Note_on_c, 0, 79, 84
2, 123261, Note_on_c, 0, 81, 85
2, 123279, Note_on_c, 0, 85, 84
2, 123304, Note_on_c, 0, 93, 87
2, 123333, Note_on_c, 0, 85, 0
2, 123338, Note_on_c, 0, 93, 0
2, 123407, Control_c, 0, 64, 0
2, 123424, Note_on_c, 0, 69, 0
2, 123424, Note_on_c, 0, 73, 0
2, 123432, Note_on_c, 0, 76, 0
2, 123440, Note_on_c, 0, 79, 0
2, 123448, Note_on_c, 0, 81, 0
2, 123484, Note_on_c, 0, 50, 80
2, 123506, Note_on_c, 0, 57, 80
2, 123531, Note_on_c, 0, 66, 80
2, 123536, Control_c, 0, 64, 127
2, 123566, Note_on_c, 0, 69, 80
2, 123591, Note_on_c, 0, 50, 0
2, 123603, Note_on_c, 0, 74, 81
2, 123611, Note_on_c, 0, 57, 0
2, 123623, Note_on_c, 0, 78, 81
2, 123626, Note_on_c, 0, 66, 0
2, 123658, Note_on_c, 0, 81, 83
2, 123680, Note_on_c, 0, 90, 88
2, 123680, Note_on_c, 0, 98, 93
2, 123744, Note_on_c, 0, 90, 0
2, 123761, Note_on_c, 0, 81, 0
2, 123761, Note_on_c, 0, 74, 0
2, 123761, Note_on_c, 0, 69, 0
2, 123769, Note_on_c, 0, 78, 0
2, 123786, Note_on_c, 0, 98, 0
2, 123853, Control_c, 0, 64, 0
2, 123856, Note_on_c, 0, 62, 57
2, 123870, Note_on_c, 0, 38, 59
2, 123870, Note_on_c, 0, 50, 61
2, 123900, Note_on_c, 0, 38, 0
2, 123903, Note_on_c, 0, 50, 0
2, 123912, Note_on_c, 0, 62, 0
2, 123966, Note_on_c, 0, 62, 57
2, 123978, Control_c, 0, 67, 127
2, 124005, Note_on_c, 0, 62, 0
2, 124057, Note_on_c, 0, 66, 54
2, 124060, Note_on_c, 0, 42, 54
2, 124068, Note_on_c, 0, 54, 54
2, 124068, Note_on_c, 0, 57, 54
2, 124068, Note_on_c, 0, 61, 53
2, 124097, Note_on_c, 0, 42, 0
2, 124097, Note_on_c, 0, 66, 0
2, 124151, Note_on_c, 0, 66, 53
2, 124192, Note_on_c, 0, 66, 0
2, 124249, Note_on_c, 0, 66, 54
2, 124290, Note_on_c, 0, 66, 0
2, 124335, Note_on_c, 0, 65, 50
2, 124339, Note_on_c, 0, 68, 47
2, 124342, Note_on_c, 0, 57, 0
2, 124342, Note_on_c, 0, 61, 0
2, 124342, Note_on_c, 0, 54, 0
2, 124345, Note_on_c, 0, 62, 55
2, 124348, Note_on_c, 0, 49, 54
2, 124348, Note_on_c, 0, 53, 53
2, 124348, Note_on_c, 0, 56, 52
2, 124348, Note_on_c, 0, 59, 51
2, 124353, Note_on_c, 0, 37, 50
2, 124375, Note_on_c, 0, 37, 0
2, 124375, Note_on_c, 0, 49, 0
2, 124383, Note_on_c, 0, 65, 0
2, 124383, Note_on_c, 0, 59, 0
2, 124385, Note_on_c, 0, 68, 0
2, 124388, Note_on_c, 0, 62, 0
2, 124391, Note_on_c, 0, 56, 0
2, 124432, Note_on_c, 0, 66, 50
2, 124432, Note_on_c, 0, 69, 48
2, 124440, Note_on_c, 0, 57, 53
2, 124440, Note_on_c, 0, 61, 52
2, 124445, Note_on_c, 0, 42, 51
2, 124445, Note_on_c, 0, 54, 50
2, 124448, Note_on_c, 0, 53, 0
2, 124470, Note_on_c, 0, 66, 0
2, 124478, Note_on_c, 0, 69, 0
2, 124482, Note_on_c, 0, 42, 0
2, 124522, Note_on_c, 0, 66, 52
2, 124525, Note_on_c, 0, 69, 54
2, 124561, Note_on_c, 0, 66, 0
2, 124578, Note_on_c, 0, 69, 0
2, 124610, Note_on_c, 0, 66, 53
2, 124610, Note_on_c, 0, 69, 55
2, 124649, Note_on_c, 0, 66, 0
2, 124657, Note_on_c, 0, 69, 0
2, 124706, Note_on_c, 0, 57, 0
2, 124706, Note_on_c, 0, 61, 0
2, 124706, Note_on_c, 0, 54, 0
2, 124709, Note_on_c, 0, 53, 61
2, 124709, Note_on_c, 0, 56, 62
2, 124709, Note_on_c, 0, 59, 63
2, 124709, Note_on_c, 0, 62, 62
2, 124709, Note_on_c, 0, 68, 59
2, 124709, Note_on_c, 0, 71, 61
2, 124714, Note_on_c, 0, 37, 63
2, 124745, Note_on_c, 0, 68, 0
2, 124745, Note_on_c, 0, 62, 0
2, 124745, Note_on_c, 0, 56, 0
2, 124748, Note_on_c, 0, 59, 0
2, 124751, Note_on_c, 0, 37, 0
2, 124754, Note_on_c, 0, 71, 0
2, 124801, Note_on_c, 0, 42, 60
2, 124801, Note_on_c, 0, 54, 62
2, 124801, Note_on_c, 0, 57, 63
2, 124801, Note_on_c, 0, 61, 62
2, 124801, Note_on_c, 0, 73, 62
2, 124809, Note_on_c, 0, 69, 63
2, 124818, Note_on_c, 0, 53, 0
2, 124838, Note_on_c, 0, 42, 0
2, 124847, Note_on_c, 0, 73, 0
2, 124847, Note_on_c, 0, 69, 0
2, 124899, Note_on_c, 0, 73, 59
2, 124902, Note_on_c, 0, 69, 59
2, 124946, Note_on_c, 0, 69, 0
2, 124946, Note_on_c, 0, 73, 0
2, 124990, Note_on_c, 0, 73, 58
2, 124993, Note_on_c, 0, 69, 59
2, 125040, Note_on_c, 0, 69, 0
2, 125045, Note_on_c, 0, 73, 0
2, 125072, Note_on_c, 0, 71, 61
2, 125075, Note_on_c, 0, 54, 0
2, 125075, Note_on_c, 0, 61, 0
2, 125075, Note_on_c, 0, 62, 62
2, 125078, Note_on_c, 0, 57, 0
2, 125078, Note_on_c, 0, 37, 63
2, 125078, Note_on_c, 0, 59, 62
2, 125078, Note_on_c, 0, 74, 63
2, 125087, Note_on_c, 0, 53, 63
2, 125087, Note_on_c, 0, 56, 63
2, 125109, Note_on_c, 0, 37, 0
2, 125112, Note_on_c, 0, 62, 0
2, 125117, Note_on_c, 0, 59, 0
2, 125120, Note_on_c, 0, 74, 0
2, 125120, Note_on_c, 0, 71, 0
2, 125123, Note_on_c, 0, 56, 0
2, 125164, Note_on_c, 0, 54, 60
2, 125164, Note_on_c, 0, 61, 62
2, 125164, Note_on_c, 0, 69, 63
2, 125164, Note_on_c, 0, 73, 64
2, 125169, Note_on_c, 0, 42, 63
2, 125172, Note_on_c, 0, 57, 63
2, 125175, Note_on_c, 0, 53, 0
2, 125197, Note_on_c, 0, 42, 0
2, 125216, Note_on_c, 0, 73, 0
2, 125216, Note_on_c, 0, 69, 0
2, 125255, Note_on_c, 0, 69, 59
2, 125255, Note_on_c, 0, 73, 59
2, 125302, Note_on_c, 0, 69, 0
2, 125310, Note_on_c, 0, 73, 0
2, 125354, Note_on_c, 0, 73, 58
2, 125357, Note_on_c, 0, 69, 59
2, 125389, Note_on_c, 0, 69, 0
2, 125389, Note_on_c, 0, 73, 0
2, 125433, Note_on_c, 0, 54, 0
2, 125433, Note_on_c, 0, 71, 55
2, 125436, Note_on_c, 0, 57, 0
2, 125436, Note_on_c, 0, 61, 0
2, 125436, Note_on_c, 0, 53, 54
2, 125436, Note_on_c, 0, 62, 54
2, 125439, Note_on_c, 0, 37, 53
2, 125441, Note_on_c, 0, 49, 54
2, 125444, Note_on_c, 0, 59, 54
2, 125449, Note_on_c, 0, 68, 54
2, 125452, Note_on_c, 0, 56, 54
2, 125466, Note_on_c, 0, 49, 0
2, 125471, Note_on_c, 0, 37, 0
2, 125481, Note_on_c, 0, 59, 0
2, 125490, Note_on_c, 0, 71, 0
2, 125490, Note_on_c, 0, 68, 0
2, 125493, Note_on_c, 0, 62, 0
2, 125501, Note_on_c, 0, 56, 0
2, 125537, Note_on_c, 0, 54, 53
2, 125537, Note_on_c, 0, 69, 57
2, 125545, Note_on_c, 0, 57, 55
2, 125545, Note_on_c, 0, 61, 56
2, 125545, Note_on_c, 0, 66, 57
2, 125548, Note_on_c, 0, 42, 57
2, 125551, Note_on_c, 0, 53, 0
2, 125576, Note_on_c, 0, 42, 0
2, 125584, Note_on_c, 0, 66, 0
2, 125591, Note_on_c, 0, 69, 0
2, 125635, Note_on_c, 0, 66, 54
2, 125635, Note_on_c, 0, 69, 55
2, 125687, Note_on_c, 0, 69, 0
2, 125695, Note_on_c, 0, 66, 0
2, 125727, Note_on_c, 0, 66, 54
2, 125727, Note_on_c, 0, 69, 55
2, 125766, Note_on_c, 0, 66, 0
2, 125791, Note_on_c, 0, 69, 0
2, 125813, Note_on_c, 0, 54, 0
2, 125813, Note_on_c, 0, 53, 53
2, 125813, Note_on_c, 0, 62, 53
2, 125813, Note_on_c, 0, 71, 55
2, 125821, Note_on_c, 0, 57, 0
2, 125821, Note_on_c, 0, 37, 54
2, 125821, Note_on_c, 0, 49, 54
2, 125821, Note_on_c, 0, 59, 54
2, 125821, Note_on_c, 0, 68, 54
2, 125824, Note_on_c, 0, 61, 0
2, 125826, Note_on_c, 0, 56, 54
2, 125844, Note_on_c, 0, 49, 0
2, 125848, Note_on_c, 0, 37, 0
2, 125851, Note_on_c, 0, 59, 0
2, 125861, Note_on_c, 0, 68, 0
2, 125861, Note_on_c, 0, 71, 0
2, 125864, Note_on_c, 0, 56, 0
2, 125872, Note_on_c, 0, 62, 0
2, 125911, Note_on_c, 0, 66, 52
2, 125916, Note_on_c, 0, 42, 53
2, 125916, Note_on_c, 0, 54, 54
2, 125916, Note_on_c, 0, 61, 53
2, 125916, Note_on_c, 0, 69, 54
2, 125920, Note_on_c, 0, 53, 0
2, 125923, Note_on_c, 0, 57, 54
2, 125945, Note_on_c, 0, 42, 0
2, 125960, Note_on_c, 0, 66, 0
2, 125960, Note_on_c, 0, 69, 0
2, 125999, Note_on_c, 0, 66, 53
2, 126007, Note_on_c, 0, 69, 55
2, 126051, Note_on_c, 0, 69, 0
2, 126051, Note_on_c, 0, 66, 0
2, 126092, Note_on_c, 0, 66, 53
2, 126097, Note_on_c, 0, 69, 55
2, 126143, Note_on_c, 0, 66, 0
2, 126148, Note_on_c, 0, 69, 0
2, 126173, Note_on_c, 0, 54, 0
2, 126176, Note_on_c, 0, 61, 0
2, 126176, Note_on_c, 0, 57, 0
2, 126176, Note_on_c, 0, 62, 53
2, 126176, Note_on_c, 0, 65, 54
2, 126179, Note_on_c, 0, 53, 54
2, 126182, Note_on_c, 0, 37, 54
2, 126182, Note_on_c, 0, 49, 54
2, 126182, Note_on_c, 0, 59, 53
2, 126182, Note_on_c, 0, 68, 54
2, 126184, Note_on_c, 0, 56, 54
2, 126209, Note_on_c, 0, 49, 0
2, 126214, Note_on_c, 0, 37, 0
2, 126217, Note_on_c, 0, 62, 0
2, 126217, Note_on_c, 0, 59, 0
2, 126225, Note_on_c, 0, 65, 0
2, 126228, Note_on_c, 0, 56, 0
2, 126232, Note_on_c, 0, 68, 0
2, 126277, Note_on_c, 0, 53, 0
2, 126280, Note_on_c, 0, 54, 54
2, 126280, Note_on_c, 0, 61, 54
2, 126282, Note_on_c, 0, 66, 54
2, 126287, Note_on_c, 0, 42, 54
2, 126300, Note_on_c, 0, 57, 54
2, 126312, Note_on_c, 0, 42, 0
2, 126331, Note_on_c, 0, 66, 0
2, 126373, Note_on_c, 0, 66, 54
2, 126424, Note_on_c, 0, 66, 0
2, 126461, Note_on_c, 0, 66, 54
2, 126510, Note_on_c, 0, 66, 0
2, 126546, Note_on_c, 0, 54, 0
2, 126551, Note_on_c, 0, 61, 0
2, 126551, Note_on_c, 0, 57, 0
2, 126551, Note_on_c, 0, 62, 53
2, 126554, Note_on_c, 0, 37, 54
2, 126554, Note_on_c, 0, 49, 54
2, 126554, Note_on_c, 0, 68, 54
2, 126557, Note_on_c, 0, 53, 53
2, 126557, Note_on_c, 0, 59, 54
2, 126562, Note_on_c, 0, 56, 53
2, 126562, Note_on_c, 0, 65, 54
2, 126584, Note_on_c, 0, 49, 0
2, 126584, Note_on_c, 0, 37, 0
2, 126589, Note_on_c, 0, 65, 0
2, 126589, Note_on_c, 0, 59, 0
2, 126589, Note_on_c, 0, 68, 0
2, 126589, Note_on_c, 0, 62, 0
2, 126592, Note_on_c, 0, 56, 0
2, 126645, Note_on_c, 0, 54, 53
2, 126645, Note_on_c, 0, 61, 54
2, 126645, Note_on_c, 0, 66, 54
2, 126650, Note_on_c, 0, 42, 53
2, 126653, Note_on_c, 0, 57, 54
2, 126656, Note_on_c, 0, 53, 0
2, 126675, Note_on_c, 0, 42, 0
2, 126683, Note_on_c, 0, 66, 0
2, 126724, Note_on_c, 0, 66, 54
2, 126770, Note_on_c, 0, 66, 0
2, 126814, Note_on_c, 0, 66, 54
2, 126858, Note_on_c, 0, 66, 0
2, 126903, Note_on_c, 0, 54, 0
2, 126905, Note_on_c, 0, 57, 0
2, 126905, Note_on_c, 0, 61, 0
2, 126905, Note_on_c, 0, 65, 54
2, 126905, Note_on_c, 0, 68, 53
2, 126913, Note_on_c, 0, 56, 54
2, 126913, Note_on_c, 0, 62, 54
2, 126916, Note_on_c, 0, 49, 53
2, 126916, Note_on_c, 0, 53, 54
2, 126916, Note_on_c, 0, 59, 53
2, 126919, Note_on_c, 0, 37, 54
2, 126944, Note_on_c, 0, 49, 0
2, 126947, Note_on_c, 0, 37, 0
2, 126952, Note_on_c, 0, 68, 0
2, 126952, Note_on_c, 0, 59, 0
2, 126959, Note_on_c, 0, 62, 0
2, 126959, Note_on_c, 0, 65, 0
2, 126959, Note_on_c, 0, 56, 0
2, 127000, Note_on_c, 0, 66, 52
2, 127003, Note_on_c, 0, 53, 0
2, 127008, Note_on_c, 0, 54, 54
2, 127008, Note_on_c, 0, 61, 54
2, 127013, Note_on_c, 0, 42, 54
2, 127021, Note_on_c, 0, 57, 54
2, 127038, Note_on_c, 0, 66, 0
2, 127043, Note_on_c, 0, 42, 0
2, 127092, Note_on_c, 0, 66, 54
2, 127138, Note_on_c, 0, 66, 0
2, 127179, Note_on_c, 0, 66, 53
2, 127233, Note_on_c, 0, 66, 0
2, 127260, Note_on_c, 0, 54, 0
2, 127260, Note_on_c, 0, 57, 0
2, 127264, Note_on_c, 0, 59, 67
2, 127267, Note_on_c, 0, 61, 0
2, 127267, Note_on_c, 0, 49, 66
2, 127267, Note_on_c, 0, 53, 65
2, 127267, Note_on_c, 0, 56, 64
2, 127267, Note_on_c, 0, 65, 57
2, 127267, Note_on_c, 0, 68, 58
2, 127272, Note_on_c, 0, 37, 64
2, 127272, Note_on_c, 0, 62, 64
2, 127294, Note_on_c, 0, 37, 0
2, 127294, Note_on_c, 0, 49, 0
2, 127309, Note_on_c, 0, 62, 0
2, 127316, Note_on_c, 0, 65, 0
2, 127319, Note_on_c, 0, 68, 0
2, 127327, Note_on_c, 0, 59, 0
2, 127335, Note_on_c, 0, 56, 0
2, 127352, Note_on_c, 0, 53, 0
2, 127361, Note_on_c, 0, 54, 60
2, 127361, Note_on_c, 0, 61, 61
2, 127361, Note_on_c, 0, 69, 62
2, 127364, Note_on_c, 0, 66, 62
2, 127367, Note_on_c, 0, 42, 62
2, 127370, Note_on_c, 0, 57, 63
2, 127392, Note_on_c, 0, 42, 0
2, 127416, Note_on_c, 0, 69, 0
2, 127421, Note_on_c, 0, 66, 0
2, 127456, Note_on_c, 0, 66, 58
2, 127456, Note_on_c, 0, 69, 59
2, 127502, Note_on_c, 0, 69, 0
2, 127502, Note_on_c, 0, 66, 0
2, 127538, Note_on_c, 0, 69, 58
2, 127546, Note_on_c, 0, 66, 58
2, 127592, Note_on_c, 0, 66, 0
2, 127600, Note_on_c, 0, 69, 0
2, 127626, Note_on_c, 0, 56, 62
2, 127626, Note_on_c, 0, 62, 63
2, 127626, Note_on_c, 0, 71, 62
2, 127629, Note_on_c, 0, 54, 0
2, 127629, Note_on_c, 0, 61, 0
2, 127629, Note_on_c, 0, 57, 0
2, 127632, Note_on_c, 0, 49, 63
2, 127632, Note_on_c, 0, 53, 63
2, 127635, Note_on_c, 0, 37, 62
2, 127635, Note_on_c, 0, 59, 63
2, 127640, Note_on_c, 0, 68, 62
2, 127662, Note_on_c, 0, 37, 0
2, 127662, Note_on_c, 0, 49, 0
2, 127681, Note_on_c, 0, 68, 0
2, 127681, Note_on_c, 0, 62, 0
2, 127691, Note_on_c, 0, 59, 0
2, 127691, Note_on_c, 0, 71, 0
2, 127698, Note_on_c, 0, 56, 0
2, 127725, Note_on_c, 0, 57, 58
2, 127725, Note_on_c, 0, 61, 60
2, 127725, Note_on_c, 0, 69, 62
2, 127728, Note_on_c, 0, 73, 63
2, 127731, Note_on_c, 0, 42, 61
2, 127731, Note_on_c, 0, 54, 62
2, 127736, Note_on_c, 0, 53, 0
2, 127760, Note_on_c, 0, 42, 0
2, 127769, Note_on_c, 0, 69, 0
2, 127774, Note_on_c, 0, 73, 0
2, 127820, Note_on_c, 0, 69, 59
2, 127820, Note_on_c, 0, 73, 59
2, 127862, Note_on_c, 0, 73, 0
2, 127864, Note_on_c, 0, 69, 0
2, 127901, Note_on_c, 0, 69, 58
2, 127901, Note_on_c, 0, 73, 59
2, 127960, Note_on_c, 0, 73, 0
2, 127962, Note_on_c, 0, 69, 0
2, 127980, Note_on_c, 0, 54, 0
2, 127983, Note_on_c, 0, 62, 61
2, 127985, Note_on_c, 0, 57, 0
2, 127985, Note_on_c, 0, 61, 0
2, 127985, Note_on_c, 0, 37, 62
2, 127985, Note_on_c, 0, 49, 63
2, 127985, Note_on_c, 0, 53, 64
2, 127990, Note_on_c, 0, 71, 61
2, 127990, Note_on_c, 0, 74, 62
2, 127993, Note_on_c, 0, 59, 67
2, 127998, Note_on_c, 0, 56, 68
2, 128015, Note_on_c, 0, 49, 0
2, 128015, Note_on_c, 0, 37, 0
2, 128030, Note_on_c, 0, 59, 0
2, 128042, Note_on_c, 0, 71, 0
2, 128042, Note_on_c, 0, 74, 0
2, 128047, Note_on_c, 0, 62, 0
2, 128052, Note_on_c, 0, 56, 0
2, 128086, Note_on_c, 0, 57, 62
2, 128089, Note_on_c, 0, 61, 65
2, 128089, Note_on_c, 0, 69, 63
2, 128092, Note_on_c, 0, 42, 66
2, 128092, Note_on_c, 0, 54, 67
2, 128092, Note_on_c, 0, 73, 64
2, 128097, Note_on_c, 0, 53, 0
2, 128124, Note_on_c, 0, 42, 0
2, 128138, Note_on_c, 0, 69, 0
2, 128138, Note_on_c, 0, 73, 0
2, 128170, Note_on_c, 0, 73, 58
2, 128175, Note_on_c, 0, 69, 59
2, 128221, Note_on_c, 0, 73, 0
2, 128224, Note_on_c, 0, 69, 0
2, 128258, Note_on_c, 0, 69, 58
2, 128261, Note_on_c, 0, 73, 59
2, 128310, Note_on_c, 0, 73, 0
2, 128310, Note_on_c, 0, 69, 0
2, 128346, Note_on_c, 0, 62, 62
2, 128346, Note_on_c, 0, 71, 62
2, 128349, Note_on_c, 0, 57, 0
2, 128349, Note_on_c, 0, 61, 0
2, 128349, Note_on_c, 0, 54, 0
2, 128349, Note_on_c, 0, 53, 63
2, 128349, Note_on_c, 0, 56, 62
2, 128352, Note_on_c, 0, 49, 63
2, 128352, Note_on_c, 0, 59, 63
2, 128355, Note_on_c, 0, 37, 62
2, 128365, Note_on_c, 0, 68, 62
2, 128379, Note_on_c, 0, 49, 0
2, 128384, Note_on_c, 0, 37, 0
2, 128393, Note_on_c, 0, 68, 0
2, 128403, Note_on_c, 0, 71, 0
2, 128413, Note_on_c, 0, 56, 0
2, 128413, Note_on_c, 0, 62, 0
2, 128416, Note_on_c, 0, 59, 0
2, 128447, Note_on_c, 0, 57, 59
2, 128450, Note_on_c, 0, 54, 61
2, 128450, Note_on_c, 0, 61, 62
2, 128450, Note_on_c, 0, 69, 63
2, 128455, Note_on_c, 0, 53, 0
2, 128455, Note_on_c, 0, 42, 63
2, 128458, Note_on_c, 0, 66, 63
2, 128480, Note_on_c, 0, 42, 0
2, 128494, Note_on_c, 0, 69, 0
2, 128504, Note_on_c, 0, 66, 0
2, 128536, Note_on_c, 0, 66, 58
2, 128536, Note_on_c, 0, 69, 57
2, 128580, Note_on_c, 0, 69, 0
2, 128584, Note_on_c, 0, 66, 0
2, 128614, Note_on_c, 0, 66, 53
2, 128619, Note_on_c, 0, 69, 55
2, 128670, Note_on_c, 0, 69, 0
2, 128670, Note_on_c, 0, 66, 0
2, 128706, Note_on_c, 0, 54, 0
2, 128706, Note_on_c, 0, 61, 0
2, 128709, Note_on_c, 0, 49, 56
2, 128709, Note_on_c, 0, 71, 57
2, 128712, Note_on_c, 0, 57, 0
2, 128712, Note_on_c, 0, 53, 57
2, 128712, Note_on_c, 0, 59, 59
2, 128712, Note_on_c, 0, 62, 58
2, 128712, Note_on_c, 0, 68, 57
2, 128715, Note_on_c, 0, 37, 59
2, 128718, Note_on_c, 0, 56, 59
2, 128745, Note_on_c, 0, 37, 0
2, 128745, Note_on_c, 0, 49, 0
2, 128757, Note_on_c, 0, 62, 0
2, 128757, Note_on_c, 0, 68, 0
2, 128765, Note_on_c, 0, 71, 0
2, 128765, Note_on_c, 0, 56, 0
2, 128773, Note_on_c, 0, 59, 0
2, 128809, Note_on_c, 0, 53, 0
2, 128814, Note_on_c, 0, 66, 57
2, 128814, Note_on_c, 0, 69, 59
2, 128819, Note_on_c, 0, 54, 54
2, 128822, Note_on_c, 0, 42, 54
2, 128824, Note_on_c, 0, 57, 54
2, 128832, Note_on_c, 0, 61, 54
2, 128845, Note_on_c, 0, 42, 0
2, 128859, Note_on_c, 0, 66, 0
2, 128869, Note_on_c, 0, 69, 0
2, 128908, Note_on_c, 0, 66, 54
2, 128916, Note_on_c, 0, 69, 55
2, 128950, Note_on_c, 0, 69, 0
2, 128953, Note_on_c, 0, 66, 0
2, 128994, Note_on_c, 0, 69, 55
2, 129002, Note_on_c, 0, 66, 54
2, 129039, Note_on_c, 0, 69, 0
2, 129043, Note_on_c, 0, 66, 0
2, 129088, Note_on_c, 0, 54, 0
2, 129088, Note_on_c, 0, 61, 0
2, 129088, Note_on_c, 0, 57, 0
2, 129088, Note_on_c, 0, 62, 54
2, 129088, Note_on_c, 0, 65, 54
2, 129088, Note_on_c, 0, 68, 53
2, 129090, Note_on_c, 0, 37, 53
2, 129090, Note_on_c, 0, 49, 54
2, 129090, Note_on_c, 0, 53, 53
2, 129098, Note_on_c, 0, 56, 54
2, 129101, Note_on_c, 0, 59, 54
2, 129120, Note_on_c, 0, 49, 0
2, 129120, Note_on_c, 0, 37, 0
2, 129133, Note_on_c, 0, 68, 0
2, 129136, Note_on_c, 0, 62, 0
2, 129138, Note_on_c, 0, 65, 0
2, 129153, Note_on_c, 0, 59, 0
2, 129158, Note_on_c, 0, 56, 0
2, 129177, Note_on_c, 0, 54, 52
2, 129182, Note_on_c, 0, 53, 0
2, 129186, Note_on_c, 0, 57, 54
2, 129186, Note_on_c, 0, 66, 53
2, 129191, Note_on_c, 0, 42, 54
2, 129194, Note_on_c, 0, 61, 54
2, 129221, Note_on_c, 0, 42, 0
2, 129231, Note_on_c, 0, 66, 0
2, 129275, Note_on_c, 0, 66, 54
2, 129306, Note_on_c, 0, 66, 0
2, 129357, Note_on_c, 0, 66, 53
2, 129389, Note_on_c, 0, 66, 0
2, 129435, Note_on_c, 0, 61, 0
2, 129435, Note_on_c, 0, 54, 0
2, 129438, Note_on_c, 0, 49, 53
2, 129438, Note_on_c, 0, 56, 54
2, 129438, Note_on_c, 0, 62, 53
2, 129441, Note_on_c, 0, 57, 0
2, 129441, Note_on_c, 0, 53, 54
2, 129441, Note_on_c, 0, 65, 54
2, 129441, Note_on_c, 0, 68, 53
2, 129444, Note_on_c, 0, 37, 53
2, 129448, Note_on_c, 0, 59, 54
2, 129468, Note_on_c, 0, 37, 0
2, 129468, Note_on_c, 0, 49, 0
2, 129472, Note_on_c, 0, 68, 0
2, 129475, Note_on_c, 0, 59, 0
2, 129475, Note_on_c, 0, 62, 0
2, 129475, Note_on_c, 0, 65, 0
2, 129485, Note_on_c, 0, 56, 0
2, 129497, Note_on_c, 0, 53, 0
2, 129537, Note_on_c, 0, 54, 52
2, 129537, Note_on_c, 0, 66, 54
2, 129542, Note_on_c, 0, 42, 49
2, 129544, Note_on_c, 0, 57, 48
2, 129544, Note_on_c, 0, 61, 47
2, 129571, Note_on_c, 0, 42, 0
2, 129574, Note_on_c, 0, 66, 0
2, 129630, Note_on_c, 0, 66, 57
2, 129635, Note_on_c, 0, 69, 59
2, 129669, Note_on_c, 0, 69, 0
2, 129669, Note_on_c, 0, 66, 0
2, 129718, Note_on_c, 0, 69, 59
2, 129718, Note_on_c, 0, 73, 59
2, 129753, Note_on_c, 0, 73, 0
2, 129753, Note_on_c, 0, 69, 0
2, 129808, Note_on_c, 0, 62, 56
2, 129811, Note_on_c, 0, 54, 0
2, 129811, Note_on_c, 0, 61, 0
2, 129811, Note_on_c, 0, 57, 0
2, 129811, Note_on_c, 0, 65, 55
2, 129816, Note_on_c, 0, 37, 54
2, 129816, Note_on_c, 0, 49, 54
2, 129816, Note_on_c, 0, 53, 53
2, 129816, Note_on_c, 0, 56, 54
2, 129816, Note_on_c, 0, 59, 53
2, 129816, Note_on_c, 0, 80, 55
2, 129838, Note_on_c, 0, 80, 0
2, 129846, Note_on_c, 0, 49, 0
2, 129846, Note_on_c, 0, 37, 0
2, 129851, Note_on_c, 0, 65, 0
2, 129851, Note_on_c, 0, 62, 0
2, 129851, Note_on_c, 0, 59, 0
2, 129858, Note_on_c, 0, 56, 0
2, 129900, Note_on_c, 0, 53, 0
2, 129900, Note_on_c, 0, 54, 55
2, 129900, Note_on_c, 0, 57, 56
2, 129904, Note_on_c, 0, 78, 56
2, 129907, Note_on_c, 0, 61, 57
2, 129907, Note_on_c, 0, 66, 56
2, 129912, Note_on_c, 0, 42, 58
2, 129934, Note_on_c, 0, 78, 0
2, 129939, Note_on_c, 0, 66, 0
2, 129944, Note_on_c, 0, 42, 0
2, 129985, Note_on_c, 0, 66, 56
2, 129988, Note_on_c, 0, 78, 59
2, 130027, Note_on_c, 0, 78, 0
2, 130035, Note_on_c, 0, 66, 0
2, 130084, Note_on_c, 0, 78, 55
2, 130087, Note_on_c, 0, 66, 54
2, 130128, Note_on_c, 0, 66, 0
2, 130131, Note_on_c, 0, 78, 0
2, 130172, Note_on_c, 0, 54, 0
2, 130172, Note_on_c, 0, 61, 0
2, 130172, Note_on_c, 0, 80, 58
2, 130175, Note_on_c, 0, 62, 56
2, 130175, Note_on_c, 0, 65, 58
2, 130178, Note_on_c, 0, 57, 0
2, 130178, Note_on_c, 0, 53, 57
2, 130178, Note_on_c, 0, 59, 59
2, 130181, Note_on_c, 0, 37, 58
2, 130181, Note_on_c, 0, 49, 59
2, 130184, Note_on_c, 0, 56, 58
2, 130208, Note_on_c, 0, 49, 0
2, 130213, Note_on_c, 0, 37, 0
2, 130213, Note_on_c, 0, 80, 0
2, 130216, Note_on_c, 0, 65, 0
2, 130233, Note_on_c, 0, 62, 0
2, 130240, Note_on_c, 0, 56, 0
2, 130240, Note_on_c, 0, 59, 0
2, 130275, Note_on_c, 0, 61, 53
2, 130275, Note_on_c, 0, 81, 59
2, 130278, Note_on_c, 0, 53, 0
2, 130278, Note_on_c, 0, 54, 57
2, 130278, Note_on_c, 0, 66, 57
2, 130283, Note_on_c, 0, 42, 58
2, 130286, Note_on_c, 0, 57, 59
2, 130314, Note_on_c, 0, 42, 0
2, 130314, Note_on_c, 0, 81, 0
2, 130317, Note_on_c, 0, 66, 0
2, 130359, Note_on_c, 0, 81, 59
2, 130361, Note_on_c, 0, 66, 58
2, 130398, Note_on_c, 0, 66, 0
2, 130398, Note_on_c, 0, 81, 0
2, 130456, Note_on_c, 0, 81, 59
2, 130459, Note_on_c, 0, 66, 64
2, 130494, Note_on_c, 0, 81, 0
2, 130497, Note_on_c, 0, 66, 0
2, 130541, Note_on_c, 0, 61, 0
2, 130541, Note_on_c, 0, 54, 0
2, 130541, Note_on_c, 0, 83, 65
2, 130546, Note_on_c, 0, 57, 0
2, 130546, Note_on_c, 0, 49, 56
2, 130546, Note_on_c, 0, 53, 57
2, 130546, Note_on_c, 0, 59, 59
2, 130546, Note_on_c, 0, 62, 60
2, 130546, Note_on_c, 0, 68, 63
2, 130549, Note_on_c, 0, 37, 61
2, 130552, Note_on_c, 0, 56, 62
2, 130569, Note_on_c, 0, 68, 0
2, 130569, Note_on_c, 0, 83, 0
2, 130574, Note_on_c, 0, 49, 0
2, 130574, Note_on_c, 0, 37, 0
2, 130583, Note_on_c, 0, 62, 0
2, 130605, Note_on_c, 0, 59, 0
2, 130610, Note_on_c, 0, 56, 0
2, 130624, Note_on_c, 0, 85, 63
2, 130627, Note_on_c, 0, 61, 54
2, 130635, Note_on_c, 0, 42, 56
2, 130635, Note_on_c, 0, 54, 57
2, 130635, Note_on_c, 0, 69, 62
2, 130640, Note_on_c, 0, 53, 0
2, 130643, Note_on_c, 0, 57, 59
2, 130662, Note_on_c, 0, 42, 0
2, 130665, Note_on_c, 0, 85, 0
2, 130668, Note_on_c, 0, 69, 0
2, 130717, Note_on_c, 0, 85, 62
2, 130720, Note_on_c, 0, 69, 62
2, 130754, Note_on_c, 0, 85, 0
2, 130757, Note_on_c, 0, 69, 0
2, 130803, Note_on_c, 0, 85, 62
2, 130811, Note_on_c, 0, 69, 62
2, 130845, Note_on_c, 0, 69, 0
2, 130853, Note_on_c, 0, 85, 0
2, 130897, Note_on_c, 0, 61, 0
2, 130897, Note_on_c, 0, 57, 0
2, 130897, Note_on_c, 0, 62, 62
2, 130897, Note_on_c, 0, 71, 61
2, 130897, Note_on_c, 0, 86, 64
2, 130900, Note_on_c, 0, 37, 63
2, 130900, Note_on_c, 0, 49, 63
2, 130903, Note_on_c, 0, 53, 62
2, 130906, Note_on_c, 0, 54, 0
2, 130909, Note_on_c, 0, 59, 63
2, 130918, Note_on_c, 0, 56, 63
2, 130928, Note_on_c, 0, 49, 0
2, 130933, Note_on_c, 0, 37, 0
2, 130936, Note_on_c, 0, 86, 0
2, 130936, Note_on_c, 0, 71, 0
2, 130955, Note_on_c, 0, 59, 0
2, 130955, Note_on_c, 0, 62, 0
2, 130962, Note_on_c, 0, 56, 0
2, 130994, Note_on_c, 0, 54, 59
2, 130994, Note_on_c, 0, 61, 61
2, 130994, Note_on_c, 0, 85, 64
2, 130997, Note_on_c, 0, 69, 63
2, 131000, Note_on_c, 0, 42, 62
2, 131003, Note_on_c, 0, 53, 0
2, 131003, Note_on_c, 0, 57, 63
2, 131025, Note_on_c, 0, 85, 0
2, 131028, Note_on_c, 0, 69, 0
2, 131031, Note_on_c, 0, 42, 0
2, 131086, Note_on_c, 0, 85, 64
2, 131089, Note_on_c, 0, 69, 64
2, 131118, Note_on_c, 0, 69, 0
2, 131126, Note_on_c, 0, 85, 0
2, 131175, Note_on_c, 0, 85, 65
2, 131182, Note_on_c, 0, 69, 64
2, 131214, Note_on_c, 0, 85, 0
2, 131217, Note_on_c, 0, 69, 0
2, 131275, Note_on_c, 0, 83, 64
2, 131278, Note_on_c, 0, 54, 0
2, 131278, Note_on_c, 0, 57, 0
2, 131278, Note_on_c, 0, 61, 0
2, 131278, Note_on_c, 0, 49, 63
2, 131278, Note_on_c, 0, 56, 62
2, 131278, Note_on_c, 0, 62, 63
2, 131278, Note_on_c, 0, 68, 63
2, 131281, Note_on_c, 0, 37, 62
2, 131281, Note_on_c, 0, 53, 63
2, 131281, Note_on_c, 0, 59, 62
2, 131305, Note_on_c, 0, 68, 0
2, 131308, Note_on_c, 0, 83, 0
2, 131311, Note_on_c, 0, 49, 0
2, 131314, Note_on_c, 0, 37, 0
2, 131319, Note_on_c, 0, 62, 0
2, 131333, Note_on_c, 0, 59, 0
2, 131333, Note_on_c, 0, 56, 0
2, 131365, Note_on_c, 0, 81, 61
2, 131368, Note_on_c, 0, 61, 58
2, 131370, Note_on_c, 0, 54, 58
2, 131370, Note_on_c, 0, 57, 59
2, 131370, Note_on_c, 0, 66, 59
2, 131373, Note_on_c, 0, 42, 58
2, 131378, Note_on_c, 0, 53, 0
2, 131400, Note_on_c, 0, 66, 0
2, 131405, Note_on_c, 0, 81, 0
2, 131405, Note_on_c, 0, 42, 0
2, 131459, Note_on_c, 0, 66, 58
2, 131459, Note_on_c, 0, 81, 62
2, 131500, Note_on_c, 0, 81, 0
2, 131503, Note_on_c, 0, 66, 0
2, 131549, Note_on_c, 0, 81, 59
2, 131552, Note_on_c, 0, 66, 55
2, 131588, Note_on_c, 0, 81, 0
2, 131591, Note_on_c, 0, 66, 0
2, 131640, Note_on_c, 0, 83, 58
2, 131643, Note_on_c, 0, 61, 0
2, 131643, Note_on_c, 0, 57, 0
2, 131643, Note_on_c, 0, 62, 58
2, 131646, Note_on_c, 0, 68, 57
2, 131649, Note_on_c, 0, 37, 59
2, 131649, Note_on_c, 0, 49, 59
2, 131649, Note_on_c, 0, 53, 58
2, 131652, Note_on_c, 0, 54, 0
2, 131652, Note_on_c, 0, 56, 59
2, 131666, Note_on_c, 0, 59, 58
2, 131676, Note_on_c, 0, 49, 0
2, 131680, Note_on_c, 0, 37, 0
2, 131680, Note_on_c, 0, 83, 0
2, 131683, Note_on_c, 0, 68, 0
2, 131701, Note_on_c, 0, 62, 0
2, 131718, Note_on_c, 0, 56, 0
2, 131721, Note_on_c, 0, 59, 0
2, 131733, Note_on_c, 0, 66, 55
2, 131733, Note_on_c, 0, 81, 59
2, 131736, Note_on_c, 0, 54, 56
2, 131741, Note_on_c, 0, 61, 57
2, 131744, Note_on_c, 0, 42, 58
2, 131744, Note_on_c, 0, 57, 59
2, 131752, Note_on_c, 0, 53, 0
2, 131761, Note_on_c, 0, 81, 0
2, 131771, Note_on_c, 0, 42, 0
2, 131776, Note_on_c, 0, 66, 0
2, 131822, Note_on_c, 0, 81, 59
2, 131826, Note_on_c, 0, 66, 58
2, 131863, Note_on_c, 0, 81, 0
2, 131866, Note_on_c, 0, 66, 0
2, 131915, Note_on_c, 0, 81, 56
2, 131918, Note_on_c, 0, 66, 54
2, 131954, Note_on_c, 0, 81, 0
2, 131957, Note_on_c, 0, 66, 0
2, 131993, Note_on_c, 0, 80, 55
2, 132001, Note_on_c, 0, 65, 56
2, 132006, Note_on_c, 0, 54, 0
2, 132009, Note_on_c, 0, 53, 59
2, 132012, Note_on_c, 0, 37, 59
2, 132012, Note_on_c, 0, 49, 59
2, 132012, Note_on_c, 0, 62, 58
2, 132015, Note_on_c, 0, 61, 0
2, 132015, Note_on_c, 0, 57, 0
2, 132015, Note_on_c, 0, 56, 59
2, 132027, Note_on_c, 0, 59, 59
2, 132035, Note_on_c, 0, 80, 0
2, 132038, Note_on_c, 0, 65, 0
2, 132042, Note_on_c, 0, 49, 0
2, 132042, Note_on_c, 0, 37, 0
2, 132055, Note_on_c, 0, 56, 0
2, 132055, Note_on_c, 0, 62, 0
2, 132072, Note_on_c, 0, 59, 0
2, 132089, Note_on_c, 0, 78, 56
2, 132092, Note_on_c, 0, 54, 55
2, 132092, Note_on_c, 0, 57, 56
2, 132092, Note_on_c, 0, 66, 56
2, 132097, Note_on_c, 0, 42, 57
2, 132100, Note_on_c, 0, 61, 58
2, 132103, Note_on_c, 0, 53, 0
2, 132130, Note_on_c, 0, 78, 0
2, 132130, Note_on_c, 0, 42, 0
2, 132133, Note_on_c, 0, 66, 0
2, 132186, Note_on_c, 0, 66, 53
2, 132189, Note_on_c, 0, 78, 55
2, 132226, Note_on_c, 0, 78, 0
2, 132229, Note_on_c, 0, 66, 0
2, 132265, Note_on_c, 0, 78, 54
2, 132268, Note_on_c, 0, 66, 54
2, 132309, Note_on_c, 0, 66, 0
2, 132314, Note_on_c, 0, 78, 0
2, 132355, Note_on_c, 0, 80, 56
2, 132358, Note_on_c, 0, 57, 0
2, 132358, Note_on_c, 0, 61, 0
2, 132358, Note_on_c, 0, 54, 0
2, 132358, Note_on_c, 0, 56, 59
2, 132358, Note_on_c, 0, 62, 58
2, 132358, Note_on_c, 0, 65, 57
2, 132361, Note_on_c, 0, 49, 59
2, 132361, Note_on_c, 0, 53, 59
2, 132364, Note_on_c, 0, 37, 58
2, 132364, Note_on_c, 0, 59, 59
2, 132391, Note_on_c, 0, 37, 0
2, 132391, Note_on_c, 0, 80, 0
2, 132391, Note_on_c, 0, 49, 0
2, 132394, Note_on_c, 0, 65, 0
2, 132394, Note_on_c, 0, 62, 0
2, 132421, Note_on_c, 0, 59, 0
2, 132430, Note_on_c, 0, 56, 0
2, 132454, Note_on_c, 0, 61, 53
2, 132454, Note_on_c, 0, 66, 56
2, 132454, Note_on_c, 0, 78, 58
2, 132457, Note_on_c, 0, 53, 0
2, 132457, Note_on_c, 0, 54, 56
2, 132460, Note_on_c, 0, 42, 57
2, 132463, Note_on_c, 0, 57, 58
2, 132482, Note_on_c, 0, 78, 0
2, 132487, Note_on_c, 0, 42, 0
2, 132492, Note_on_c, 0, 66, 0
2, 132538, Note_on_c, 0, 66, 53
2, 132543, Note_on_c, 0, 78, 55
2, 132579, Note_on_c, 0, 78, 0
2, 132579, Note_on_c, 0, 66, 0
2, 132625, Note_on_c, 0, 66, 54
2, 132625, Note_on_c, 0, 78, 55
2, 132679, Note_on_c, 0, 66, 0
2, 132691, Note_on_c, 0, 78, 0
2, 132718, Note_on_c, 0, 37, 53
2, 132718, Note_on_c, 0, 49, 54
2, 132718, Note_on_c, 0, 53, 53
2, 132718, Note_on_c, 0, 80, 55
2, 132721, Note_on_c, 0, 54, 0
2, 132721, Note_on_c, 0, 62, 54
2, 132721, Note_on_c, 0, 65, 54
2, 132724, Note_on_c, 0, 61, 0
2, 132724, Note_on_c, 0, 57, 0
2, 132724, Note_on_c, 0, 56, 53
2, 132727, Note_on_c, 0, 59, 54
2, 132749, Note_on_c, 0, 37, 0
2, 132749, Note_on_c, 0, 49, 0
2, 132759, Note_on_c, 0, 80, 0
2, 132763, Note_on_c, 0, 62, 0
2, 132763, Note_on_c, 0, 65, 0
2, 132787, Note_on_c, 0, 59, 0
2, 132797, Note_on_c, 0, 56, 0
2, 132814, Note_on_c, 0, 54, 53
2, 132819, Note_on_c, 0, 42, 54
2, 132819, Note_on_c, 0, 78, 55
2, 132822, Note_on_c, 0, 53, 0
2, 132822, Note_on_c, 0, 61, 54
2, 132822, Note_on_c, 0, 66, 54
2, 132836, Note_on_c, 0, 57, 53
2, 132849, Note_on_c, 0, 42, 0
2, 132858, Note_on_c, 0, 78, 0
2, 132861, Note_on_c, 0, 66, 0
2, 132898, Note_on_c, 0, 78, 54
2, 132901, Note_on_c, 0, 66, 54
2, 132934, Note_on_c, 0, 78, 0
2, 132942, Note_on_c, 0, 66, 0
2, 132988, Note_on_c, 0, 78, 59
2, 132991, Note_on_c, 0, 66, 59
2, 133024, Note_on_c, 0, 78, 0
2, 133027, Note_on_c, 0, 66, 0
2, 133073, Note_on_c, 0, 80, 59
2, 133081, Note_on_c, 0, 61, 0
2, 133081, Note_on_c, 0, 57, 0
2, 133081, Note_on_c, 0, 62, 58
2, 133084, Note_on_c, 0, 49, 59
2, 133084, Note_on_c, 0, 53, 59
2, 133084, Note_on_c, 0, 65, 59
2, 133087, Note_on_c, 0, 37, 58
2, 133092, Note_on_c, 0, 54, 0
2, 133092, Note_on_c, 0, 59, 59
2, 133096, Note_on_c, 0, 56, 58
2, 133109, Note_on_c, 0, 80, 0
2, 133112, Note_on_c, 0, 49, 0
2, 133117, Note_on_c, 0, 37, 0
2, 133120, Note_on_c, 0, 65, 0
2, 133124, Control_c, 0, 67, 0
2, 133129, Note_on_c, 0, 62, 0
2, 133144, Note_on_c, 0, 56, 0
2, 133144, Note_on_c, 0, 59, 0
2, 133168, Note_on_c, 0, 81, 66
2, 133172, Note_on_c, 0, 54, 64
2, 133172, Note_on_c, 0, 61, 65
2, 133172, Note_on_c, 0, 66, 64
2, 133177, Note_on_c, 0, 42, 66
2, 133180, Note_on_c, 0, 53, 0
2, 133180, Note_on_c, 0, 57, 66
2, 133202, Note_on_c, 0, 42, 0
2, 133207, Note_on_c, 0, 81, 0
2, 133210, Note_on_c, 0, 66, 0
2, 133256, Note_on_c, 0, 81, 66
2, 133259, Note_on_c, 0, 66, 65
2, 133292, Note_on_c, 0, 81, 0
2, 133295, Note_on_c, 0, 66, 0
2, 133341, Note_on_c, 0, 81, 67
2, 133344, Note_on_c, 0, 66, 65
2, 133381, Note_on_c, 0, 81, 0
2, 133388, Note_on_c, 0, 66, 0
2, 133434, Note_on_c, 0, 83, 67
2, 133437, Note_on_c, 0, 61, 0
2, 133437, Note_on_c, 0, 54, 0
2, 133437, Note_on_c, 0, 57, 0
2, 133437, Note_on_c, 0, 59, 60
2, 133437, Note_on_c, 0, 62, 60
2, 133440, Note_on_c, 0, 49, 62
2, 133443, Note_on_c, 0, 37, 63
2, 133443, Note_on_c, 0, 53, 64
2, 133443, Note_on_c, 0, 68, 66
2, 133448, Note_on_c, 0, 56, 65
2, 133472, Note_on_c, 0, 37, 0
2, 133472, Note_on_c, 0, 49, 0
2, 133475, Note_on_c, 0, 83, 0
2, 133475, Note_on_c, 0, 68, 0
2, 133484, Note_on_c, 0, 62, 0
2, 133492, Note_on_c, 0, 56, 0
2, 133492, Note_on_c, 0, 59, 0
2, 133524, Note_on_c, 0, 85, 64
2, 133528, Note_on_c, 0, 61, 64
2, 133528, Note_on_c, 0, 69, 64
2, 133531, Note_on_c, 0, 42, 65
2, 133531, Note_on_c, 0, 54, 66
2, 133531, Note_on_c, 0, 57, 65
2, 133536, Note_on_c, 0, 53, 0
2, 133558, Note_on_c, 0, 69, 0
2, 133561, Note_on_c, 0, 42, 0
2, 133571, Note_on_c, 0, 85, 0
2, 133620, Note_on_c, 0, 85, 66
2, 133624, Note_on_c, 0, 69, 68
2, 133647, Note_on_c, 0, 85, 0
2, 133649, Note_on_c, 0, 69, 0
2, 133698, Note_on_c, 0, 69, 67
2, 133698, Note_on_c, 0, 85, 72
2, 133735, Note_on_c, 0, 69, 0
2, 133740, Note_on_c, 0, 85, 0
2, 133779, Note_on_c, 0, 53, 77
2, 133784, Note_on_c, 0, 37, 78
2, 133784, Note_on_c, 0, 49, 78
2, 133787, Note_on_c, 0, 61, 0
2, 133787, Note_on_c, 0, 57, 0
2, 133787, Note_on_c, 0, 62, 77
2, 133787, Note_on_c, 0, 71, 70
2, 133787, Note_on_c, 0, 86, 73
2, 133792, Note_on_c, 0, 59, 78
2, 133794, Note_on_c, 0, 54, 0
2, 133797, Note_on_c, 0, 56, 78
2, 133812, Note_on_c, 0, 49, 0
2, 133815, Note_on_c, 0, 37, 0
2, 133824, Note_on_c, 0, 86, 0
2, 133824, Note_on_c, 0, 71, 0
2, 133832, Note_on_c, 0, 62, 0
2, 133832, Note_on_c, 0, 59, 0
2, 133859, Note_on_c, 0, 56, 0
2, 133878, Note_on_c, 0, 57, 74
2, 133881, Note_on_c, 0, 54, 75
2, 133884, Note_on_c, 0, 85, 74
2, 133887, Note_on_c, 0, 61, 76
2, 133887, Note_on_c, 0, 69, 73
2, 133891, Note_on_c, 0, 42, 77
2, 133896, Note_on_c, 0, 53, 0
2, 133915, Note_on_c, 0, 42, 0
2, 133918, Note_on_c, 0, 69, 0
2, 133923, Note_on_c, 0, 85, 0
2, 133972, Note_on_c, 0, 85, 73
2, 133980, Note_on_c, 0, 69, 74
2, 134008, Note_on_c, 0, 85, 0
2, 134011, Note_on_c, 0, 69, 0
2, 134070, Note_on_c, 0, 85, 74
2, 134073, Note_on_c, 0, 69, 69
2, 134097, Note_on_c, 0, 85, 0
2, 134102, Note_on_c, 0, 69, 0
2, 134152, Note_on_c, 0, 57, 0
2, 134152, Note_on_c, 0, 61, 0
2, 134152, Note_on_c, 0, 62, 65
2, 134152, Note_on_c, 0, 83, 69
2, 134155, Note_on_c, 0, 54, 0
2, 134158, Note_on_c, 0, 37, 66
2, 134158, Note_on_c, 0, 49, 66
2, 134158, Note_on_c, 0, 53, 65
2, 134158, Note_on_c, 0, 59, 66
2, 134158, Note_on_c, 0, 68, 66
2, 134166, Note_on_c, 0, 56, 65
2, 134190, Note_on_c, 0, 49, 0
2, 134190, Note_on_c, 0, 37, 0
2, 134190, Note_on_c, 0, 83, 0
2, 134193, Note_on_c, 0, 68, 0
2, 134205, Note_on_c, 0, 62, 0
2, 134205, Note_on_c, 0, 59, 0
2, 134223, Note_on_c, 0, 56, 0
2, 134256, Note_on_c, 0, 57, 61
2, 134256, Note_on_c, 0, 66, 65
2, 134256, Note_on_c, 0, 81, 69
2, 134259, Note_on_c, 0, 53, 0
2, 134259, Note_on_c, 0, 61, 65
2, 134262, Note_on_c, 0, 42, 66
2, 134262, Note_on_c, 0, 54, 67
2, 134291, Note_on_c, 0, 42, 0
2, 134298, Note_on_c, 0, 81, 0
2, 134298, Note_on_c, 0, 66, 0
2, 134347, Note_on_c, 0, 66, 60
2, 134347, Note_on_c, 0, 81, 61
2, 134389, Note_on_c, 0, 81, 0
2, 134392, Note_on_c, 0, 66, 0
2, 134433, Note_on_c, 0, 81, 64
2, 134438, Note_on_c, 0, 66, 62
2, 134450, Control_c, 0, 67, 127
2, 134474, Note_on_c, 0, 66, 0
2, 134479, Note_on_c, 0, 81, 0
2, 134523, Note_on_c, 0, 61, 0
2, 134526, Note_on_c, 0, 56, 57
2, 134526, Note_on_c, 0, 62, 58
2, 134526, Note_on_c, 0, 83, 61
2, 134529, Note_on_c, 0, 54, 0
2, 134529, Note_on_c, 0, 57, 0
2, 134529, Note_on_c, 0, 53, 59
2, 134529, Note_on_c, 0, 59, 59
2, 134529, Note_on_c, 0, 68, 59
2, 134532, Note_on_c, 0, 37, 58
2, 134532, Note_on_c, 0, 49, 59
2, 134554, Note_on_c, 0, 83, 0
2, 134557, Note_on_c, 0, 49, 0
2, 134557, Note_on_c, 0, 68, 0
2, 134560, Note_on_c, 0, 37, 0
2, 134564, Note_on_c, 0, 62, 0
2, 134579, Note_on_c, 0, 59, 0
2, 134584, Note_on_c, 0, 56, 0
2, 134622, Note_on_c, 0, 81, 60
2, 134625, Note_on_c, 0, 53, 0
2, 134625, Note_on_c, 0, 57, 54
2, 134625, Note_on_c, 0, 61, 53
2, 134625, Note_on_c, 0, 66, 55
2, 134628, Note_on_c, 0, 54, 54
2, 134631, Note_on_c, 0, 42, 54
2, 134659, Note_on_c, 0, 42, 0
2, 134662, Note_on_c, 0, 81, 0
2, 134665, Note_on_c, 0, 66, 0
2, 134714, Note_on_c, 0, 66, 53
2, 134717, Note_on_c, 0, 81, 57
2, 134746, Note_on_c, 0, 81, 0
2, 134749, Note_on_c, 0, 66, 0
2, 134795, Note_on_c, 0, 81, 57
2, 134798, Note_on_c, 0, 66, 51
2, 134834, Note_on_c, 0, 81, 0
2, 134844, Note_on_c, 0, 66, 0
2, 134895, Note_on_c, 0, 53, 53
2, 134895, Note_on_c, 0, 56, 56
2, 134895, Note_on_c, 0, 62, 57
2, 134895, Note_on_c, 0, 80, 58
2, 134897, Note_on_c, 0, 57, 0
2, 134897, Note_on_c, 0, 54, 0
2, 134897, Note_on_c, 0, 61, 0
2, 134897, Note_on_c, 0, 59, 58
2, 134897, Note_on_c, 0, 65, 58
2, 134900, Note_on_c, 0, 37, 58
2, 134900, Note_on_c, 0, 49, 59
2, 134922, Note_on_c, 0, 80, 0
2, 134925, Note_on_c, 0, 49, 0
2, 134925, Note_on_c, 0, 65, 0
2, 134930, Note_on_c, 0, 37, 0
2, 134935, Note_on_c, 0, 62, 0
2, 134949, Note_on_c, 0, 59, 0
2, 134959, Note_on_c, 0, 56, 0
2, 134983, Note_on_c, 0, 53, 0
2, 134986, Note_on_c, 0, 54, 54
2, 134991, Note_on_c, 0, 78, 57
2, 134995, Note_on_c, 0, 57, 54
2, 134995, Note_on_c, 0, 61, 54
2, 134995, Note_on_c, 0, 66, 57
2, 135000, Note_on_c, 0, 42, 56
2, 135027, Note_on_c, 0, 42, 0
2, 135030, Note_on_c, 0, 78, 0
2, 135033, Note_on_c, 0, 66, 0
2, 135082, Note_on_c, 0, 66, 51
2, 135082, Note_on_c, 0, 78, 49
2, 135128, Note_on_c, 0, 78, 0
2, 135131, Note_on_c, 0, 66, 0
2, 135169, Note_on_c, 0, 66, 53
2, 135169, Note_on_c, 0, 78, 55
2, 135215, Note_on_c, 0, 66, 0
2, 135220, Note_on_c, 0, 78, 0
2, 135256, Note_on_c, 0, 54, 0
2, 135256, Note_on_c, 0, 57, 0
2, 135256, Note_on_c, 0, 61, 0
2, 135256, Note_on_c, 0, 62, 59
2, 135259, Note_on_c, 0, 53, 58
2, 135262, Note_on_c, 0, 37, 59
2, 135262, Note_on_c, 0, 49, 59
2, 135265, Note_on_c, 0, 59, 58
2, 135265, Note_on_c, 0, 65, 57
2, 135265, Note_on_c, 0, 80, 59
2, 135275, Note_on_c, 0, 56, 59
2, 135289, Note_on_c, 0, 49, 0
2, 135294, Note_on_c, 0, 37, 0
2, 135297, Note_on_c, 0, 65, 0
2, 135304, Note_on_c, 0, 59, 0
2, 135309, Note_on_c, 0, 62, 0
2, 135309, Note_on_c, 0, 56, 0
2, 135309, Note_on_c, 0, 80, 0
2, 135355, Note_on_c, 0, 53, 0
2, 135355, Note_on_c, 0, 66, 58
2, 135355, Note_on_c, 0, 78, 60
2, 135358, Note_on_c, 0, 54, 58
2, 135358, Note_on_c, 0, 61, 59
2, 135361, Note_on_c, 0, 42, 58
2, 135364, Note_on_c, 0, 57, 59
2, 135393, Note_on_c, 0, 42, 0
2, 135400, Note_on_c, 0, 78, 0
2, 135403, Note_on_c, 0, 66, 0
2, 135448, Note_on_c, 0, 78, 55
2, 135450, Note_on_c, 0, 66, 54
2, 135484, Note_on_c, 0, 78, 0
2, 135487, Note_on_c, 0, 66, 0
2, 135533, Note_on_c, 0, 78, 54
2, 135536, Note_on_c, 0, 66, 54
2, 135585, Note_on_c, 0, 66, 0
2, 135590, Note_on_c, 0, 78, 0
2, 135631, Note_on_c, 0, 80, 57
2, 135634, Note_on_c, 0, 61, 0
2, 135634, Note_on_c, 0, 54, 0
2, 135634, Note_on_c, 0, 57, 0
2, 135634, Note_on_c, 0, 62, 54
2, 135634, Note_on_c, 0, 65, 58
2, 135637, Note_on_c, 0, 59, 56
2, 135640, Note_on_c, 0, 37, 57
2, 135640, Note_on_c, 0, 49, 58
2, 135640, Note_on_c, 0, 53, 59
2, 135647, Note_on_c, 0, 56, 58
2, 135669, Note_on_c, 0, 49, 0
2, 135672, Note_on_c, 0, 80, 0
2, 135672, Note_on_c, 0, 37, 0
2, 135675, Note_on_c, 0, 65, 0
2, 135699, Note_on_c, 0, 62, 0
2, 135707, Note_on_c, 0, 56, 0
2, 135710, Note_on_c, 0, 59, 0
2, 135727, Note_on_c, 0, 53, 0
2, 135735, Note_on_c, 0, 66, 58
2, 135737, Note_on_c, 0, 78, 60
2, 135742, Note_on_c, 0, 54, 57
2, 135745, Note_on_c, 0, 42, 58
2, 135750, Note_on_c, 0, 61, 59
2, 135755, Note_on_c, 0, 57, 59
2, 135767, Note_on_c, 0, 78, 0
2, 135775, Note_on_c, 0, 42, 0
2, 135778, Note_on_c, 0, 66, 0
2, 135821, Note_on_c, 0, 66, 53
2, 135821, Note_on_c, 0, 78, 55
2, 135857, Note_on_c, 0, 78, 0
2, 135865, Note_on_c, 0, 66, 0
2, 135902, Note_on_c, 0, 66, 52
2, 135904, Note_on_c, 0, 78, 50
2, 135958, Note_on_c, 0, 66, 0
2, 135980, Note_on_c, 0, 78, 0
2, 135998, Note_on_c, 0, 80, 58
2, 136000, Note_on_c, 0, 54, 0
2, 136000, Note_on_c, 0, 61, 0
2, 136000, Note_on_c, 0, 57, 0
2, 136000, Note_on_c, 0, 53, 59
2, 136000, Note_on_c, 0, 56, 58
2, 136000, Note_on_c, 0, 59, 58
2, 136000, Note_on_c, 0, 62, 58
2, 136000, Note_on_c, 0, 65, 58
2, 136003, Note_on_c, 0, 49, 59
2, 136006, Note_on_c, 0, 37, 59
2, 136030, Note_on_c, 0, 49, 0
2, 136033, Note_on_c, 0, 37, 0
2, 136033, Note_on_c, 0, 80, 0
2, 136043, Note_on_c, 0, 62, 0
2, 136043, Note_on_c, 0, 65, 0
2, 136055, Note_on_c, 0, 59, 0
2, 136070, Note_on_c, 0, 56, 0
2, 136092, Note_on_c, 0, 78, 54
2, 136096, Note_on_c, 0, 54, 54
2, 136096, Note_on_c, 0, 66, 55
2, 136104, Note_on_c, 0, 53, 0
2, 136107, Note_on_c, 0, 42, 57
2, 136110, Note_on_c, 0, 61, 58
2, 136115, Note_on_c, 0, 57, 59
2, 136132, Note_on_c, 0, 78, 0
2, 136132, Note_on_c, 0, 66, 0
2, 136137, Note_on_c, 0, 42, 0
2, 136188, Note_on_c, 0, 78, 54
2, 136191, Note_on_c, 0, 66, 54
2, 136217, Note_on_c, 0, 78, 0
2, 136220, Note_on_c, 0, 66, 0
2, 136276, Note_on_c, 0, 78, 57
2, 136279, Note_on_c, 0, 66, 60
2, 136315, Note_on_c, 0, 66, 0
2, 136323, Note_on_c, 0, 78, 0
2, 136364, Note_on_c, 0, 80, 59
2, 136367, Note_on_c, 0, 54, 0
2, 136367, Note_on_c, 0, 61, 0
2, 136367, Note_on_c, 0, 57, 0
2, 136367, Note_on_c, 0, 59, 62
2, 136367, Note_on_c, 0, 62, 62
2, 136367, Note_on_c, 0, 65, 60
2, 136370, Note_on_c, 0, 37, 63
2, 136370, Note_on_c, 0, 49, 63
2, 136373, Note_on_c, 0, 53, 62
2, 136381, Note_on_c, 0, 56, 63
2, 136395, Note_on_c, 0, 80, 0
2, 136398, Note_on_c, 0, 65, 0
2, 136401, Note_on_c, 0, 37, 0
2, 136401, Note_on_c, 0, 49, 0
2, 136404, Note_on_c, 0, 62, 0
2, 136416, Note_on_c, 0, 59, 0
2, 136426, Note_on_c, 0, 53, 0
2, 136431, Note_on_c, 0, 56, 0
2, 136464, Note_on_c, 0, 54, 57
2, 136464, Note_on_c, 0, 61, 59
2, 136464, Note_on_c, 0, 66, 60
2, 136464, Note_on_c, 0, 78, 62
2, 136472, Note_on_c, 0, 42, 60
2, 136475, Note_on_c, 0, 57, 61
2, 136499, Note_on_c, 0, 42, 0
2, 136504, Note_on_c, 0, 61, 0
2, 136511, Note_on_c, 0, 54, 0
2, 136511, Note_on_c, 0, 66, 0
2, 136511, Note_on_c, 0, 57, 0
2, 136516, Note_on_c, 0, 78, 0
2, 136562, Note_on_c, 0, 78, 59
2, 136562, Note_on_c, 0, 81, 62
2, 136575, Note_on_c, 0, 73, 59
2, 136606, Note_on_c, 0, 78, 0
2, 136609, Note_on_c, 0, 81, 0
2, 136617, Note_on_c, 0, 73, 0
2, 136663, Note_on_c, 0, 77, 57
2, 136671, Note_on_c, 0, 71, 59
2, 136678, Note_on_c, 0, 49, 54
2, 136678, Note_on_c, 0, 68, 59
2, 136702, Note_on_c, 0, 68, 0
2, 136702, Note_on_c, 0, 49, 0
2, 136712, Note_on_c, 0, 71, 0
2, 136717, Note_on_c, 0, 77, 0
2, 136765, Note_on_c, 0, 80, 55
2, 136769, Note_on_c, 0, 77, 55
2, 136777, Note_on_c, 0, 71, 55
2, 136806, Note_on_c, 0, 71, 0
2, 136806, Note_on_c, 0, 77, 0
2, 136806, Note_on_c, 0, 80, 0
2, 136864, Note_on_c, 0, 78, 54
2, 136867, Note_on_c, 0, 54, 54
2, 136867, Note_on_c, 0, 69, 55
2, 136880, Note_on_c, 0, 73, 54
2, 136899, Note_on_c, 0, 54, 0
2, 136913, Note_on_c, 0, 73, 0
2, 136916, Note_on_c, 0, 69, 0
2, 136931, Note_on_c, 0, 78, 0
2, 136977, Note_on_c, 0, 73, 51
2, 136977, Note_on_c, 0, 78, 53
2, 136977, Note_on_c, 0, 81, 56
2, 137008, Note_on_c, 0, 81, 0
2, 137023, Note_on_c, 0, 78, 0
2, 137037, Note_on_c, 0, 73, 0
2, 137083, Note_on_c, 0, 77, 54
2, 137091, Note_on_c, 0, 71, 55
2, 137094, Note_on_c, 0, 61, 54
2, 137094, Note_on_c, 0, 68, 54
2, 137123, Note_on_c, 0, 61, 0
2, 137128, Note_on_c, 0, 68, 0
2, 137128, Note_on_c, 0, 71, 0
2, 137159, Note_on_c, 0, 77, 0
2, 137178, Note_on_c, 0, 77, 53
2, 137178, Note_on_c, 0, 80, 55
2, 137193, Note_on_c, 0, 71, 56
2, 137222, Note_on_c, 0, 77, 0
2, 137231, Note_on_c, 0, 80, 0
2, 137234, Note_on_c, 0, 71, 0
2, 137285, Note_on_c, 0, 66, 56
2, 137285, Note_on_c, 0, 69, 59
2, 137285, Note_on_c, 0, 78, 60
2, 137299, Note_on_c, 0, 73, 59
2, 137331, Note_on_c, 0, 73, 0
2, 137336, Note_on_c, 0, 66, 0
2, 137344, Note_on_c, 0, 69, 0
2, 137351, Note_on_c, 0, 78, 0
2, 137397, Note_on_c, 0, 73, 57
2, 137397, Note_on_c, 0, 78, 59
2, 137397, Note_on_c, 0, 81, 62
2, 137439, Note_on_c, 0, 81, 0
2, 137439, Note_on_c, 0, 78, 0
2, 137448, Note_on_c, 0, 73, 0
2, 137501, Note_on_c, 0, 77, 57
2, 137506, Note_on_c, 0, 71, 59
2, 137506, Note_on_c, 0, 85, 62
2, 137513, Note_on_c, 0, 68, 58
2, 137560, Note_on_c, 0, 68, 0
2, 137560, Note_on_c, 0, 85, 0
2, 137560, Note_on_c, 0, 71, 0
2, 137582, Note_on_c, 0, 77, 0
2, 137623, Note_on_c, 0, 71, 54
2, 137623, Note_on_c, 0, 77, 55
2, 137623, Note_on_c, 0, 80, 54
2, 137666, Note_on_c, 0, 71, 0
2, 137676, Note_on_c, 0, 80, 0
2, 137676, Note_on_c, 0, 77, 0
2, 137731, Note_on_c, 0, 69, 55
2, 137736, Note_on_c, 0, 78, 55
2, 137736, Note_on_c, 0, 90, 57
2, 137744, Note_on_c, 0, 73, 54
2, 137771, Note_on_c, 0, 90, 0
2, 137780, Note_on_c, 0, 73, 0
2, 137788, Note_on_c, 0, 69, 0
2, 137796, Note_on_c, 0, 78, 0
2, 137869, Note_on_c, 0, 81, 55
2, 137876, Note_on_c, 0, 78, 46
2, 137881, Note_on_c, 0, 73, 45
2, 137905, Note_on_c, 0, 78, 0
2, 137908, Note_on_c, 0, 73, 0
2, 137913, Note_on_c, 0, 81, 0
2, 138000, Note_on_c, 0, 78, 48
2, 138008, Note_on_c, 0, 73, 44
2, 138011, Note_on_c, 0, 69, 44
2, 138035, Note_on_c, 0, 78, 0
2, 138042, Note_on_c, 0, 69, 0
2, 138042, Note_on_c, 0, 73, 0
2, 138149, Note_on_c, 0, 67, 46
2, 138149, Note_on_c, 0, 73, 44
2, 138149, Note_on_c, 0, 76, 43
2, 138178, Note_on_c, 0, 67, 0
2, 138185, Note_on_c, 0, 76, 0
2, 138185, Note_on_c, 0, 73, 0
2, 138278, Note_on_c, 0, 69, 52
2, 138278, Note_on_c, 0, 74, 60
2, 138282, Note_on_c, 0, 38, 58
2, 138285, Note_on_c, 0, 66, 59
2, 138307, Note_on_c, 0, 38, 0
2, 138317, Note_on_c, 0, 74, 0
2, 138320, Note_on_c, 0, 69, 0
2, 138323, Note_on_c, 0, 66, 0
2, 138378, Note_on_c, 0, 73, 57
2, 138381, Note_on_c, 0, 67, 50
2, 138391, Note_on_c, 0, 64, 48
2, 138410, Note_on_c, 0, 67, 0
2, 138415, Note_on_c, 0, 73, 0
2, 138423, Note_on_c, 0, 64, 0
2, 138496, Note_on_c, 0, 66, 53
2, 138496, Note_on_c, 0, 69, 55
2, 138496, Note_on_c, 0, 74, 54
2, 138498, Note_on_c, 0, 45, 55
2, 138520, Note_on_c, 0, 74, 0
2, 138523, Note_on_c, 0, 45, 0
2, 138523, Note_on_c, 0, 66, 0
2, 138531, Note_on_c, 0, 69, 0
2, 138601, Note_on_c, 0, 64, 53
2, 138601, Note_on_c, 0, 67, 58
2, 138601, Note_on_c, 0, 73, 60
2, 138625, Note_on_c, 0, 67, 0
2, 138633, Note_on_c, 0, 73, 0
2, 138645, Note_on_c, 0, 64, 0
2, 138693, Note_on_c, 0, 66, 57
2, 138696, Note_on_c, 0, 74, 60
2, 138699, Note_on_c, 0, 33, 54
2, 138699, Note_on_c, 0, 57, 54
2, 138699, Note_on_c, 0, 69, 60
2, 138728, Note_on_c, 0, 57, 0
2, 138731, Note_on_c, 0, 33, 0
2, 138740, Note_on_c, 0, 69, 0
2, 138755, Note_on_c, 0, 74, 0
2, 138758, Note_on_c, 0, 66, 0
2, 138801, Note_on_c, 0, 59, 54
2, 138839, Note_on_c, 0, 59, 0
2, 138887, Note_on_c, 0, 67, 53
2, 138887, Note_on_c, 0, 73, 55
2, 138890, Note_on_c, 0, 64, 53
2, 138895, Note_on_c, 0, 57, 54
2, 138898, Note_on_c, 0, 45, 54
2, 138912, Note_on_c, 0, 67, 0
2, 138925, Note_on_c, 0, 57, 0
2, 138928, Note_on_c, 0, 45, 0
2, 138930, Note_on_c, 0, 64, 0
2, 138945, Note_on_c, 0, 73, 0
2, 138986, Note_on_c, 0, 59, 54
2, 139015, Note_on_c, 0, 59, 0
2, 139083, Note_on_c, 0, 67, 62
2, 139083, Note_on_c, 0, 69, 64
2, 139083, Note_on_c, 0, 76, 63
2, 139091, Note_on_c, 0, 57, 57
2, 139091, Note_on_c, 0, 61, 58
2, 139096, Note_on_c, 0, 52, 57
2, 139098, Note_on_c, 0, 38, 58
2, 139118, Note_on_c, 0, 69, 0
2, 139118, Note_on_c, 0, 67, 0
2, 139122, Note_on_c, 0, 38, 0
2, 139127, Note_on_c, 0, 76, 0
2, 139137, Note_on_c, 0, 57, 0
2, 139137, Note_on_c, 0, 61, 0
2, 139140, Note_on_c, 0, 52, 0
2, 139159, Control_c, 0, 67, 0
2, 139253, Note_on_c, 0, 54, 61
2, 139261, Note_on_c, 0, 57, 61
2, 139285, Note_on_c, 0, 62, 61
2, 139289, Note_on_c, 0, 74, 67
2, 139299, Note_on_c, 0, 45, 61
2, 139312, Control_c, 0, 64, 127
2, 139324, Note_on_c, 0, 45, 0
2, 139324, Note_on_c, 0, 74, 0
2, 139329, Note_on_c, 0, 69, 66
2, 139356, Note_on_c, 0, 74, 66
2, 139363, Note_on_c, 0, 69, 0
2, 139383, Note_on_c, 0, 74, 0
2, 139383, Note_on_c, 0, 78, 71
2, 139411, Note_on_c, 0, 81, 74
2, 139419, Note_on_c, 0, 78, 0
2, 139436, Note_on_c, 0, 86, 76
2, 139444, Note_on_c, 0, 81, 0
2, 139466, Note_on_c, 0, 90, 77
2, 139471, Note_on_c, 0, 81, 77
2, 139474, Note_on_c, 0, 33, 61
2, 139503, Note_on_c, 0, 33, 0
2, 139582, Note_on_c, 0, 54, 0
2, 139590, Note_on_c, 0, 57, 0
2, 139590, Note_on_c, 0, 62, 0
2, 139628, Note_on_c, 0, 54, 59
2, 139660, Note_on_c, 0, 45, 58
2, 139660, Note_on_c, 0, 57, 55
2, 139692, Note_on_c, 0, 45, 0
2, 139701, Note_on_c, 0, 54, 0
2, 139704, Note_on_c, 0, 62, 52
2, 139719, Note_on_c, 0, 57, 0
2, 139731, Note_on_c, 0, 66, 61
2, 139748, Note_on_c, 0, 62, 0
2, 139768, Note_on_c, 0, 69, 62
2, 139772, Note_on_c, 0, 81, 0
2, 139782, Note_on_c, 0, 86, 0
2, 139806, Note_on_c, 0, 74, 66
2, 139811, Note_on_c, 0, 66, 0
2, 139818, Note_on_c, 0, 69, 0
2, 139826, Note_on_c, 0, 91, 69
2, 139829, Note_on_c, 0, 83, 69
2, 139832, Note_on_c, 0, 86, 69
2, 139835, Note_on_c, 0, 74, 0
2, 139835, Control_c, 0, 64, 0
2, 139838, Note_on_c, 0, 90, 0
2, 139838, Note_on_c, 0, 38, 64
2, 139840, Note_on_c, 0, 67, 65
2, 139840, Note_on_c, 0, 71, 67
2, 139863, Note_on_c, 0, 38, 0
2, 139865, Note_on_c, 0, 91, 0
2, 139868, Note_on_c, 0, 86, 0
2, 139868, Note_on_c, 0, 83, 0
2, 139878, Note_on_c, 0, 71, 0
2, 139881, Note_on_c, 0, 67, 0
2, 139934, Note_on_c, 0, 74, 66
2, 139934, Note_on_c, 0, 81, 69
2, 139934, Note_on_c, 0, 86, 68
2, 139934, Note_on_c, 0, 90, 69
2, 139936, Note_on_c, 0, 69, 66
2, 139963, Note_on_c, 0, 74, 0
2, 139968, Note_on_c, 0, 81, 0
2, 139971, Note_on_c, 0, 69, 0
2, 139971, Note_on_c, 0, 86, 0
2, 139984, Note_on_c, 0, 90, 0
2, 140025, Note_on_c, 0, 71, 66
2, 140028, Note_on_c, 0, 45, 65
2, 140028, Note_on_c, 0, 67, 66
2, 140031, Note_on_c, 0, 83, 68
2, 140031, Note_on_c, 0, 86, 69
2, 140031, Note_on_c, 0, 91, 68
2, 140057, Note_on_c, 0, 45, 0
2, 140062, Note_on_c, 0, 83, 0
2, 140062, Note_on_c, 0, 91, 0
2, 140065, Note_on_c, 0, 71, 0
2, 140065, Note_on_c, 0, 86, 0
2, 140065, Note_on_c, 0, 67, 0
2, 140123, Note_on_c, 0, 90, 69
2, 140126, Note_on_c, 0, 69, 67
2, 140126, Note_on_c, 0, 74, 67
2, 140126, Note_on_c, 0, 81, 68
2, 140130, Note_on_c, 0, 86, 69
2, 140150, Note_on_c, 0, 74, 0
2, 140159, Note_on_c, 0, 90, 0
2, 140159, Note_on_c, 0, 69, 0
2, 140162, Note_on_c, 0, 81, 0
2, 140170, Note_on_c, 0, 86, 0
2, 140211, Note_on_c, 0, 88, 68
2, 140214, Note_on_c, 0, 79, 67
2, 140217, Note_on_c, 0, 69, 67
2, 140222, Note_on_c, 0, 81, 69
2, 140224, Note_on_c, 0, 64, 66
2, 140227, Note_on_c, 0, 33, 65
2, 140249, Note_on_c, 0, 69, 0
2, 140254, Note_on_c, 0, 88, 0
2, 140254, Note_on_c, 0, 33, 0
2, 140257, Note_on_c, 0, 79, 0
2, 140257, Note_on_c, 0, 81, 0
2, 140265, Note_on_c, 0, 64, 0
2, 140311, Note_on_c, 0, 66, 61
2, 140311, Note_on_c, 0, 81, 63
2, 140311, Note_on_c, 0, 86, 62
2, 140316, Note_on_c, 0, 69, 59
2, 140320, Note_on_c, 0, 78, 60
2, 140338, Note_on_c, 0, 81, 0
2, 140345, Note_on_c, 0, 78, 0
2, 140345, Note_on_c, 0, 86, 0
2, 140350, Note_on_c, 0, 66, 0
2, 140350, Note_on_c, 0, 69, 0
2, 140411, Note_on_c, 0, 64, 66
2, 140411, Note_on_c, 0, 73, 72
2, 140411, Note_on_c, 0, 81, 75
2, 140414, Note_on_c, 0, 45, 65
2, 140414, Note_on_c, 0, 61, 65
2, 140418, Note_on_c, 0, 76, 74
2, 140445, Note_on_c, 0, 45, 0
2, 140448, Note_on_c, 0, 73, 0
2, 140448, Note_on_c, 0, 76, 0
2, 140458, Note_on_c, 0, 64, 0
2, 140458, Note_on_c, 0, 61, 0
2, 140458, Note_on_c, 0, 81, 0
2, 140506, Note_on_c, 0, 66, 67
2, 140509, Note_on_c, 0, 62, 65
2, 140509, Note_on_c, 0, 69, 64
2, 140509, Note_on_c, 0, 74, 63
2, 140509, Note_on_c, 0, 78, 62
2, 140537, Note_on_c, 0, 62, 0
2, 140537, Note_on_c, 0, 66, 0
2, 140542, Note_on_c, 0, 78, 0
2, 140545, Note_on_c, 0, 69, 0
2, 140545, Note_on_c, 0, 74, 0
2, 140603, Note_on_c, 0, 70, 68
2, 140606, Note_on_c, 0, 55, 64
2, 140606, Note_on_c, 0, 67, 74
2, 140606, Note_on_c, 0, 74, 76
2, 140608, Note_on_c, 0, 40, 63
2, 140632, Note_on_c, 0, 55, 0
2, 140637, Note_on_c, 0, 40, 0
2, 140693, Note_on_c, 0, 58, 59
2, 140717, Note_on_c, 0, 58, 0
2, 140784, Note_on_c, 0, 62, 57
2, 140787, Note_on_c, 0, 52, 57
2, 140806, Note_on_c, 0, 67, 0
2, 140819, Note_on_c, 0, 52, 0
2, 140824, Note_on_c, 0, 74, 0
2, 140824, Note_on_c, 0, 70, 0
2, 140831, Note_on_c, 0, 62, 0
2, 140879, Note_on_c, 0, 67, 57
2, 140916, Note_on_c, 0, 67, 0
2, 140964, Note_on_c, 0, 86, 57
2, 140976, Note_on_c, 0, 33, 56
2, 140976, Note_on_c, 0, 57, 57
2, 140979, Note_on_c, 0, 81, 64
2, 140982, Note_on_c, 0, 79, 63
2, 140987, Note_on_c, 0, 85, 66
2, 141009, Note_on_c, 0, 33, 0
2, 141014, Note_on_c, 0, 57, 0
2, 141016, Note_on_c, 0, 86, 0
2, 141072, Note_on_c, 0, 61, 57
2, 141099, Note_on_c, 0, 61, 0
2, 141133, Note_on_c, 0, 81, 0
2, 141169, Note_on_c, 0, 64, 57
2, 141174, Note_on_c, 0, 45, 57
2, 141201, Note_on_c, 0, 45, 0
2, 141215, Note_on_c, 0, 64, 0
2, 141258, Note_on_c, 0, 69, 58
2, 141295, Control_c, 0, 67, 127
2, 141298, Note_on_c, 0, 69, 0
2, 141303, Note_on_c, 0, 79, 0
2, 141307, Note_on_c, 0, 85, 0
2, 141358, Note_on_c, 0, 79, 59
2, 141358, Note_on_c, 0, 83, 62
2, 141361, Note_on_c, 0, 64, 58
2, 141361, Note_on_c, 0, 67, 59
2, 141361, Note_on_c, 0, 76, 59
2, 141366, Note_on_c, 0, 37, 58
2, 141385, Note_on_c, 0, 83, 0
2, 141388, Note_on_c, 0, 76, 0
2, 141388, Note_on_c, 0, 79, 0
2, 141393, Note_on_c, 0, 37, 0
2, 141396, Note_on_c, 0, 67, 0
2, 141399, Note_on_c, 0, 64, 0
2, 141454, Note_on_c, 0, 71, 59
2, 141457, Note_on_c, 0, 64, 58
2, 141457, Note_on_c, 0, 67, 58
2, 141494, Note_on_c, 0, 67, 0
2, 141501, Note_on_c, 0, 64, 0
2, 141501, Note_on_c, 0, 71, 0
2, 141547, Note_on_c, 0, 67, 57
2, 141550, Note_on_c, 0, 71, 59
2, 141553, Note_on_c, 0, 49, 58
2, 141553, Note_on_c, 0, 64, 58
2, 141582, Note_on_c, 0, 49, 0
2, 141585, Note_on_c, 0, 71, 0
2, 141590, Note_on_c, 0, 67, 0
2, 141604, Note_on_c, 0, 64, 0
2, 141636, Note_on_c, 0, 67, 58
2, 141636, Note_on_c, 0, 71, 59
2, 141640, Note_on_c, 0, 64, 57
2, 141667, Note_on_c, 0, 67, 0
2, 141680, Note_on_c, 0, 64, 0
2, 141689, Note_on_c, 0, 71, 0
2, 141723, Note_on_c, 0, 73, 59
2, 141731, Note_on_c, 0, 65, 59
2, 141731, Note_on_c, 0, 71, 60
2, 141736, Note_on_c, 0, 38, 58
2, 141736, Note_on_c, 0, 53, 58
2, 141736, Note_on_c, 0, 59, 57
2, 141740, Note_on_c, 0, 56, 58
2, 141743, Note_on_c, 0, 68, 57
2, 141760, Note_on_c, 0, 73, 0
2, 141763, Note_on_c, 0, 59, 0
2, 141766, Note_on_c, 0, 38, 0
2, 141769, Note_on_c, 0, 56, 0
2, 141772, Note_on_c, 0, 53, 0
2, 141801, Note_on_c, 0, 68, 0
2, 141813, Note_on_c, 0, 53, 58
2, 141813, Note_on_c, 0, 56, 58
2, 141813, Note_on_c, 0, 59, 57
2, 141850, Note_on_c, 0, 59, 0
2, 141850, Note_on_c, 0, 53, 0
2, 141850, Note_on_c, 0, 56, 0
2, 141850, Note_on_c, 0, 65, 0
2, 141879, Note_on_c, 0, 71, 0
2, 141905, Note_on_c, 0, 66, 53
2, 141910, Note_on_c, 0, 50, 58
2, 141910, Note_on_c, 0, 54, 58
2, 141910, Note_on_c, 0, 57, 57
2, 141910, Note_on_c, 0, 69, 52
2, 141939, Note_on_c, 0, 50, 0
2, 141947, Note_on_c, 0, 57, 0
2, 141947, Note_on_c, 0, 54, 0
2, 141961, Note_on_c, 0, 66, 0
2, 141961, Note_on_c, 0, 69, 0
2, 141998, Note_on_c, 0, 57, 61
2, 141998, Note_on_c, 0, 62, 63
2, 141998, Note_on_c, 0, 69, 60
2, 142031, Note_on_c, 0, 69, 0
2, 142034, Note_on_c, 0, 57, 0
2, 142037, Control_c, 0, 67, 0
2, 142042, Note_on_c, 0, 62, 0
2, 142099, Note_on_c, 0, 79, 67
2, 142102, Note_on_c, 0, 67, 69
2, 142102, Note_on_c, 0, 73, 71
2, 142102, Note_on_c, 0, 83, 72
2, 142105, Note_on_c, 0, 40, 65
2, 142105, Note_on_c, 0, 61, 65
2, 142105, Note_on_c, 0, 71, 71
2, 142129, Note_on_c, 0, 83, 0
2, 142129, Note_on_c, 0, 67, 0
2, 142129, Note_on_c, 0, 79, 0
2, 142134, Note_on_c, 0, 40, 0
2, 142134, Note_on_c, 0, 61, 0
2, 142137, Note_on_c, 0, 71, 0
2, 142137, Note_on_c, 0, 73, 0
2, 142185, Note_on_c, 0, 71, 66
2, 142192, Note_on_c, 0, 61, 65
2, 142192, Note_on_c, 0, 67, 65
2, 142224, Note_on_c, 0, 67, 0
2, 142224, Note_on_c, 0, 61, 0
2, 142243, Note_on_c, 0, 71, 0
2, 142285, Note_on_c, 0, 71, 66
2, 142288, Note_on_c, 0, 52, 65
2, 142288, Note_on_c, 0, 61, 65
2, 142288, Note_on_c, 0, 67, 65
2, 142316, Note_on_c, 0, 61, 0
2, 142319, Note_on_c, 0, 67, 0
2, 142319, Note_on_c, 0, 52, 0
2, 142332, Note_on_c, 0, 71, 0
2, 142380, Note_on_c, 0, 61, 65
2, 142380, Note_on_c, 0, 71, 66
2, 142387, Note_on_c, 0, 67, 64
2, 142409, Note_on_c, 0, 61, 0
2, 142419, Note_on_c, 0, 67, 0
2, 142424, Note_on_c, 0, 71, 0
2, 142451, Note_on_c, 0, 73, 66
2, 142468, Note_on_c, 0, 71, 69
2, 142471, Note_on_c, 0, 68, 69
2, 142479, Note_on_c, 0, 56, 65
2, 142479, Note_on_c, 0, 62, 65
2, 142481, Note_on_c, 0, 42, 64
2, 142481, Note_on_c, 0, 59, 65
2, 142496, Note_on_c, 0, 73, 0
2, 142505, Note_on_c, 0, 59, 0
2, 142508, Note_on_c, 0, 42, 0
2, 142523, Note_on_c, 0, 56, 0
2, 142559, Note_on_c, 0, 59, 65
2, 142564, Note_on_c, 0, 56, 65
2, 142593, Note_on_c, 0, 56, 0
2, 142602, Note_on_c, 0, 62, 0
2, 142602, Note_on_c, 0, 59, 0
2, 142602, Note_on_c, 0, 68, 0
2, 142636, Note_on_c, 0, 71, 0
2, 142650, Note_on_c, 0, 62, 65
2, 142653, Note_on_c, 0, 54, 65
2, 142653, Note_on_c, 0, 57, 65
2, 142653, Note_on_c, 0, 69, 58
2, 142661, Note_on_c, 0, 66, 56
2, 142685, Note_on_c, 0, 54, 0
2, 142707, Note_on_c, 0, 69, 0
2, 142707, Note_on_c, 0, 66, 0
2, 142717, Note_on_c, 0, 57, 0
2, 142717, Note_on_c, 0, 62, 0
2, 142753, Note_on_c, 0, 57, 64
2, 142753, Note_on_c, 0, 62, 65
2, 142753, Note_on_c, 0, 66, 64
2, 142753, Note_on_c, 0, 69, 66
2, 142782, Note_on_c, 0, 57, 0
2, 142790, Note_on_c, 0, 69, 0
2, 142790, Note_on_c, 0, 66, 0
2, 142799, Note_on_c, 0, 62, 0
2, 142840, Note_on_c, 0, 82, 73
2, 142840, Note_on_c, 0, 86, 75
2, 142848, Note_on_c, 0, 76, 74
2, 142851, Note_on_c, 0, 64, 74
2, 142851, Note_on_c, 0, 70, 75
2, 142851, Note_on_c, 0, 74, 74
2, 142856, Note_on_c, 0, 43, 69
2, 142883, Note_on_c, 0, 43, 0
2, 142888, Note_on_c, 0, 70, 0
2, 142888, Note_on_c, 0, 86, 0
2, 142888, Note_on_c, 0, 82, 0
2, 142888, Note_on_c, 0, 76, 0
2, 142888, Note_on_c, 0, 74, 0
2, 142895, Note_on_c, 0, 64, 0
2, 142941, Note_on_c, 0, 64, 69
2, 142941, Note_on_c, 0, 74, 70
2, 142949, Note_on_c, 0, 70, 69
2, 142983, Note_on_c, 0, 70, 0
2, 142985, Note_on_c, 0, 74, 0
2, 142985, Note_on_c, 0, 64, 0
2, 143043, Note_on_c, 0, 55, 71
2, 143043, Note_on_c, 0, 70, 73
2, 143043, Note_on_c, 0, 74, 74
2, 143046, Note_on_c, 0, 64, 72
2, 143073, Note_on_c, 0, 55, 0
2, 143078, Note_on_c, 0, 70, 0
2, 143078, Note_on_c, 0, 74, 0
2, 143082, Note_on_c, 0, 64, 0
2, 143130, Note_on_c, 0, 64, 73
2, 143130, Note_on_c, 0, 70, 74
2, 143130, Note_on_c, 0, 74, 73
2, 143169, Note_on_c, 0, 74, 0
2, 143176, Note_on_c, 0, 70, 0
2, 143179, Note_on_c, 0, 64, 0
2, 143223, Note_on_c, 0, 44, 75
2, 143223, Note_on_c, 0, 52, 73
2, 143223, Note_on_c, 0, 59, 72
2, 143223, Note_on_c, 0, 64, 74
2, 143223, Note_on_c, 0, 74, 74
2, 143232, Note_on_c, 0, 71, 75
2, 143251, Note_on_c, 0, 44, 0
2, 143266, Note_on_c, 0, 74, 0
2, 143266, Note_on_c, 0, 64, 0
2, 143266, Note_on_c, 0, 71, 0
2, 143314, Note_on_c, 0, 73, 71
2, 143317, Note_on_c, 0, 64, 72
2, 143317, Note_on_c, 0, 71, 74
2, 143358, Note_on_c, 0, 71, 0
2, 143358, Note_on_c, 0, 73, 0
2, 143358, Note_on_c, 0, 64, 0
2, 143411, Note_on_c, 0, 56, 69
2, 143411, Note_on_c, 0, 64, 72
2, 143411, Note_on_c, 0, 71, 74
2, 143414, Note_on_c, 0, 76, 75
2, 143440, Note_on_c, 0, 56, 0
2, 143455, Note_on_c, 0, 71, 0
2, 143455, Note_on_c, 0, 76, 0
2, 143458, Note_on_c, 0, 64, 0
2, 143504, Note_on_c, 0, 64, 69
2, 143504, Note_on_c, 0, 71, 66
2, 143504, Note_on_c, 0, 74, 65
2, 143545, Note_on_c, 0, 71, 0
2, 143548, Note_on_c, 0, 74, 0
2, 143553, Note_on_c, 0, 52, 0
2, 143558, Note_on_c, 0, 64, 0
2, 143586, Note_on_c, 0, 59, 0
2, 143601, Note_on_c, 0, 64, 66
2, 143604, Note_on_c, 0, 74, 65
2, 143607, Note_on_c, 0, 45, 73
2, 143607, Note_on_c, 0, 52, 73
2, 143607, Note_on_c, 0, 57, 72
2, 143607, Note_on_c, 0, 67, 63
2, 143635, Note_on_c, 0, 67, 0
2, 143640, Note_on_c, 0, 45, 0
2, 143648, Note_on_c, 0, 64, 0
2, 143651, Note_on_c, 0, 74, 0
2, 143689, Note_on_c, 0, 64, 66
2, 143689, Note_on_c, 0, 67, 62
2, 143689, Note_on_c, 0, 73, 62
2, 143716, Note_on_c, 0, 52, 0
2, 143728, Note_on_c, 0, 67, 0
2, 143731, Note_on_c, 0, 57, 0
2, 143736, Note_on_c, 0, 64, 0
2, 143751, Note_on_c, 0, 73, 0
2, 143784, Note_on_c, 0, 57, 73
2, 143784, Note_on_c, 0, 61, 73
2, 143784, Note_on_c, 0, 67, 62
2, 143784, Note_on_c, 0, 71, 62
2, 143827, Note_on_c, 0, 67, 0
2, 143830, Note_on_c, 0, 57, 0
2, 143838, Note_on_c, 0, 61, 0
2, 143843, Note_on_c, 0, 71, 0
2, 143874, Note_on_c, 0, 57, 73
2, 143874, Note_on_c, 0, 61, 73
2, 143874, Note_on_c, 0, 67, 64
2, 143874, Note_on_c, 0, 69, 64
2, 143903, Note_on_c, 0, 67, 0
2, 143911, Note_on_c, 0, 69, 0
2, 143911, Note_on_c, 0, 57, 0
2, 143919, Note_on_c, 0, 61, 0
2, 143941, Note_on_c, 0, 57, 73
2, 143958, Note_on_c, 0, 61, 73
2, 143972, Note_on_c, 0, 67, 73
2, 143975, Note_on_c, 0, 64, 74
2, 143978, Note_on_c, 0, 91, 78
2, 143981, Note_on_c, 0, 81, 79
2, 143981, Note_on_c, 0, 85, 80
2, 143986, Control_c, 0, 64, 127
2, 143986, Note_on_c, 0, 88, 81
2, 144008, Note_on_c, 0, 85, 0
2, 144011, Note_on_c, 0, 67, 0
2, 144011, Note_on_c, 0, 64, 0
2, 144014, Note_on_c, 0, 91, 0
2, 144016, Note_on_c, 0, 81, 0
2, 144021, Note_on_c, 0, 88, 0
2, 144024, Note_on_c, 0, 57, 0
2, 144024, Note_on_c, 0, 61, 0
2, 144080, Control_c, 0, 64, 0
2, 144145, Control_c, 0, 64, 127
2, 144145, Note_on_c, 0, 45, 66
2, 144145, Note_on_c, 0, 88, 68
2, 144167, Note_on_c, 0, 49, 65
2, 144167, Note_on_c, 0, 85, 68
2, 144189, Note_on_c, 0, 52, 65
2, 144194, Note_on_c, 0, 81, 67
2, 144204, Note_on_c, 0, 88, 0
2, 144204, Note_on_c, 0, 45, 0
2, 144211, Note_on_c, 0, 55, 65
2, 144214, Note_on_c, 0, 85, 0
2, 144214, Note_on_c, 0, 79, 66
2, 144217, Note_on_c, 0, 49, 0
2, 144230, Note_on_c, 0, 52, 0
2, 144234, Note_on_c, 0, 81, 0
2, 144239, Note_on_c, 0, 76, 66
2, 144249, Note_on_c, 0, 79, 0
2, 144249, Note_on_c, 0, 57, 65
2, 144254, Note_on_c, 0, 55, 0
2, 144263, Note_on_c, 0, 73, 66
2, 144273, Control_c, 0, 64, 0
2, 144278, Note_on_c, 0, 61, 65
2, 144280, Note_on_c, 0, 76, 0
2, 144285, Note_on_c, 0, 69, 66
2, 144298, Note_on_c, 0, 73, 0
2, 144303, Note_on_c, 0, 64, 65
2, 144303, Note_on_c, 0, 67, 65
2, 144307, Note_on_c, 0, 57, 0
2, 144315, Note_on_c, 0, 69, 0
2, 144323, Note_on_c, 0, 61, 0
2, 144340, Control_c, 0, 67, 127
2, 144345, Note_on_c, 0, 67, 0
2, 144350, Note_on_c, 0, 64, 0
2, 144350, Note_on_c, 0, 66, 57
2, 144350, Note_on_c, 0, 74, 57
2, 144354, Note_on_c, 0, 69, 56
2, 144359, Note_on_c, 0, 38, 61
2, 144376, Note_on_c, 0, 69, 0
2, 144381, Note_on_c, 0, 38, 0
2, 144384, Note_on_c, 0, 74, 0
2, 144387, Note_on_c, 0, 66, 0
2, 144449, Note_on_c, 0, 64, 55
2, 144454, Note_on_c, 0, 67, 54
2, 144454, Note_on_c, 0, 73, 55
2, 144478, Note_on_c, 0, 73, 0
2, 144478, Note_on_c, 0, 67, 0
2, 144491, Note_on_c, 0, 64, 0
2, 144544, Note_on_c, 0, 66, 53
2, 144546, Note_on_c, 0, 45, 54
2, 144546, Note_on_c, 0, 69, 55
2, 144546, Note_on_c, 0, 74, 54
2, 144578, Note_on_c, 0, 45, 0
2, 144581, Note_on_c, 0, 74, 0
2, 144581, Note_on_c, 0, 69, 0
2, 144584, Note_on_c, 0, 66, 0
2, 144637, Note_on_c, 0, 73, 57
2, 144644, Note_on_c, 0, 64, 58
2, 144644, Note_on_c, 0, 67, 59
2, 144678, Note_on_c, 0, 67, 0
2, 144678, Note_on_c, 0, 73, 0
2, 144705, Note_on_c, 0, 64, 0
2, 144738, Note_on_c, 0, 66, 57
2, 144741, Note_on_c, 0, 33, 59
2, 144741, Note_on_c, 0, 57, 59
2, 144741, Note_on_c, 0, 69, 59
2, 144741, Note_on_c, 0, 74, 60
2, 144770, Note_on_c, 0, 57, 0
2, 144770, Note_on_c, 0, 33, 0
2, 144773, Note_on_c, 0, 74, 0
2, 144773, Note_on_c, 0, 69, 0
2, 144778, Note_on_c, 0, 66, 0
2, 144848, Note_on_c, 0, 59, 58
2, 144875, Note_on_c, 0, 59, 0
2, 144942, Note_on_c, 0, 73, 52
2, 144945, Note_on_c, 0, 45, 46
2, 144945, Note_on_c, 0, 57, 45
2, 144945, Note_on_c, 0, 64, 45
2, 144945, Note_on_c, 0, 67, 44
2, 144972, Note_on_c, 0, 67, 0
2, 144976, Note_on_c, 0, 57, 0
2, 144976, Note_on_c, 0, 45, 0
2, 144979, Note_on_c, 0, 64, 0
2, 144987, Note_on_c, 0, 73, 0
2, 145048, Note_on_c, 0, 59, 47
2, 145076, Note_on_c, 0, 59, 0
2, 145118, Note_on_c, 0, 52, 53
2, 145137, Note_on_c, 0, 57, 54
2, 145149, Note_on_c, 0, 76, 64
2, 145152, Note_on_c, 0, 61, 54
2, 145152, Note_on_c, 0, 67, 63
2, 145152, Note_on_c, 0, 69, 63
2, 145157, Note_on_c, 0, 38, 54
2, 145176, Note_on_c, 0, 52, 0
2, 145179, Note_on_c, 0, 69, 0
2, 145179, Note_on_c, 0, 76, 0
2, 145182, Note_on_c, 0, 57, 0
2, 145185, Note_on_c, 0, 38, 0
2, 145188, Note_on_c, 0, 67, 0
2, 145191, Note_on_c, 0, 61, 0
2, 145261, Control_c, 0, 67, 0
2, 145299, Note_on_c, 0, 54, 60
2, 145316, Note_on_c, 0, 57, 61
2, 145331, Note_on_c, 0, 62, 61
2, 145350, Note_on_c, 0, 45, 61
2, 145353, Note_on_c, 0, 74, 67
2, 145377, Note_on_c, 0, 45, 0
2, 145380, Note_on_c, 0, 69, 67
2, 145383, Note_on_c, 0, 74, 0
2, 145405, Control_c, 0, 64, 127
2, 145405, Note_on_c, 0, 74, 67
2, 145414, Note_on_c, 0, 69, 0
2, 145432, Note_on_c, 0, 78, 67
2, 145444, Note_on_c, 0, 74, 0
2, 145454, Note_on_c, 0, 81, 65
2, 145463, Note_on_c, 0, 78, 0
2, 145482, Note_on_c, 0, 86, 63
2, 145485, Note_on_c, 0, 81, 0
2, 145514, Note_on_c, 0, 90, 63
2, 145517, Note_on_c, 0, 81, 66
2, 145531, Note_on_c, 0, 33, 61
2, 145555, Control_c, 0, 64, 0
2, 145560, Note_on_c, 0, 33, 0
2, 145642, Note_on_c, 0, 62, 0
2, 145649, Note_on_c, 0, 57, 0
2, 145657, Note_on_c, 0, 54, 0
2, 145689, Note_on_c, 0, 54, 65
2, 145696, Control_c, 0, 64, 127
2, 145706, Note_on_c, 0, 45, 68
2, 145720, Note_on_c, 0, 57, 69
2, 145738, Note_on_c, 0, 45, 0
2, 145747, Note_on_c, 0, 62, 71
2, 145750, Note_on_c, 0, 54, 0
2, 145758, Note_on_c, 0, 57, 0
2, 145777, Note_on_c, 0, 66, 72
2, 145782, Note_on_c, 0, 62, 0
2, 145794, Note_on_c, 0, 86, 0
2, 145814, Note_on_c, 0, 69, 74
2, 145816, Note_on_c, 0, 81, 0
2, 145843, Note_on_c, 0, 74, 74
2, 145848, Control_c, 0, 64, 0
2, 145865, Note_on_c, 0, 66, 0
2, 145875, Note_on_c, 0, 69, 0
2, 145883, Note_on_c, 0, 74, 0
2, 145883, Note_on_c, 0, 86, 70
2, 145883, Note_on_c, 0, 91, 69
2, 145886, Note_on_c, 0, 90, 0
2, 145886, Note_on_c, 0, 67, 65
2, 145886, Note_on_c, 0, 71, 67
2, 145888, Note_on_c, 0, 83, 69
2, 145891, Note_on_c, 0, 38, 68
2, 145920, Note_on_c, 0, 38, 0
2, 145920, Note_on_c, 0, 91, 0
2, 145920, Note_on_c, 0, 83, 0
2, 145923, Note_on_c, 0, 67, 0
2, 145923, Note_on_c, 0, 86, 0
2, 145933, Note_on_c, 0, 71, 0
2, 145981, Note_on_c, 0, 86, 69
2, 145981, Note_on_c, 0, 90, 69
2, 145984, Note_on_c, 0, 74, 66
2, 145984, Note_on_c, 0, 81, 69
2, 145986, Note_on_c, 0, 69, 66
2, 146020, Note_on_c, 0, 74, 0
2, 146030, Note_on_c, 0, 81, 0
2, 146030, Note_on_c, 0, 69, 0
2, 146030, Note_on_c, 0, 86, 0
2, 146044, Note_on_c, 0, 90, 0
2, 146078, Note_on_c, 0, 67, 65
2, 146080, Note_on_c, 0, 71, 67
2, 146083, Note_on_c, 0, 83, 69
2, 146083, Note_on_c, 0, 91, 69
2, 146086, Note_on_c, 0, 45, 65
2, 146091, Note_on_c, 0, 86, 69
2, 146108, Note_on_c, 0, 67, 0
2, 146113, Note_on_c, 0, 45, 0
2, 146116, Note_on_c, 0, 71, 0
2, 146124, Note_on_c, 0, 91, 0
2, 146124, Note_on_c, 0, 83, 0
2, 146127, Note_on_c, 0, 86, 0
2, 146175, Note_on_c, 0, 81, 70
2, 146175, Note_on_c, 0, 86, 73
2, 146175, Note_on_c, 0, 90, 74
2, 146177, Note_on_c, 0, 69, 73
2, 146177, Note_on_c, 0, 74, 74
2, 146206, Note_on_c, 0, 74, 0
2, 146219, Note_on_c, 0, 81, 0
2, 146219, Note_on_c, 0, 90, 0
2, 146219, Note_on_c, 0, 86, 0
2, 146222, Note_on_c, 0, 69, 0
2, 146268, Note_on_c, 0, 79, 69
2, 146268, Note_on_c, 0, 88, 74
2, 146271, Note_on_c, 0, 69, 73
2, 146275, Note_on_c, 0, 81, 76
2, 146278, Note_on_c, 0, 33, 65
2, 146278, Note_on_c, 0, 64, 74
2, 146302, Note_on_c, 0, 69, 0
2, 146304, Note_on_c, 0, 88, 0
2, 146309, Note_on_c, 0, 79, 0
2, 146311, Note_on_c, 0, 81, 0
2, 146311, Note_on_c, 0, 64, 0
2, 146311, Note_on_c, 0, 33, 0
2, 146356, Note_on_c, 0, 81, 69
2, 146358, Note_on_c, 0, 86, 69
2, 146363, Note_on_c, 0, 66, 66
2, 146363, Note_on_c, 0, 69, 67
2, 146368, Note_on_c, 0, 78, 66
2, 146392, Note_on_c, 0, 86, 0
2, 146396, Note_on_c, 0, 69, 0
2, 146398, Note_on_c, 0, 81, 0
2, 146400, Note_on_c, 0, 66, 0
2, 146402, Note_on_c, 0, 78, 0
2, 146452, Note_on_c, 0, 76, 68
2, 146452, Note_on_c, 0, 81, 73
2, 146454, Note_on_c, 0, 61, 65
2, 146454, Note_on_c, 0, 64, 71
2, 146456, Note_on_c, 0, 73, 73
2, 146458, Note_on_c, 0, 45, 65
2, 146479, Note_on_c, 0, 73, 0
2, 146479, Note_on_c, 0, 76, 0
2, 146481, Note_on_c, 0, 45, 0
2, 146486, Note_on_c, 0, 61, 0
2, 146486, Note_on_c, 0, 81, 0
2, 146497, Note_on_c, 0, 64, 0
2, 146545, Note_on_c, 0, 62, 65
2, 146545, Note_on_c, 0, 78, 65
2, 146547, Note_on_c, 0, 66, 63
2, 146549, Note_on_c, 0, 69, 65
2, 146549, Note_on_c, 0, 74, 65
2, 146570, Note_on_c, 0, 69, 0
2, 146572, Note_on_c, 0, 62, 0
2, 146574, Note_on_c, 0, 66, 0
2, 146579, Note_on_c, 0, 78, 0
2, 146579, Note_on_c, 0, 74, 0
2, 146643, Note_on_c, 0, 55, 65
2, 146643, Note_on_c, 0, 67, 74
2, 146643, Note_on_c, 0, 74, 76
2, 146648, Note_on_c, 0, 40, 65
2, 146648, Note_on_c, 0, 70, 77
2, 146674, Note_on_c, 0, 40, 0
2, 146679, Note_on_c, 0, 55, 0
2, 146728, Note_on_c, 0, 58, 65
2, 146767, Note_on_c, 0, 58, 0
2, 146820, Note_on_c, 0, 52, 65
2, 146820, Note_on_c, 0, 62, 65
2, 146850, Note_on_c, 0, 52, 0
2, 146855, Note_on_c, 0, 62, 0
2, 146879, Note_on_c, 0, 67, 0
2, 146894, Note_on_c, 0, 74, 0
2, 146894, Note_on_c, 0, 70, 0
2, 146905, Note_on_c, 0, 67, 69
2, 146948, Note_on_c, 0, 67, 0
2, 146993, Note_on_c, 0, 86, 66
2, 147005, Note_on_c, 0, 81, 71
2, 147005, Note_on_c, 0, 85, 72
2, 147007, Note_on_c, 0, 57, 57
2, 147007, Note_on_c, 0, 79, 71
2, 147012, Note_on_c, 0, 33, 57
2, 147026, Note_on_c, 0, 86, 0
2, 147040, Note_on_c, 0, 33, 0
2, 147042, Note_on_c, 0, 57, 0
2, 147102, Note_on_c, 0, 61, 57
2, 147137, Note_on_c, 0, 61, 0
2, 147147, Note_on_c, 0, 81, 0
2, 147195, Note_on_c, 0, 45, 57
2, 147195, Note_on_c, 0, 64, 57
2, 147224, Note_on_c, 0, 45, 0
2, 147238, Note_on_c, 0, 64, 0
2, 147279, Note_on_c, 0, 69, 57
2, 147312, Note_on_c, 0, 69, 0
2, 147322, Note_on_c, 0, 85, 0
2, 147331, Note_on_c, 0, 79, 0
2, 147376, Note_on_c, 0, 64, 60
2, 147376, Note_on_c, 0, 67, 63
2, 147376, Note_on_c, 0, 71, 65
2, 147376, Note_on_c, 0, 76, 66
2, 147376, Note_on_c, 0, 79, 67
2, 147376, Note_on_c, 0, 83, 68
2, 147381, Note_on_c, 0, 37, 60
2, 147402, Note_on_c, 0, 83, 0
2, 147402, Note_on_c, 0, 76, 0
2, 147402, Note_on_c, 0, 79, 0
2, 147407, Note_on_c, 0, 37, 0
2, 147409, Note_on_c, 0, 71, 0
2, 147409, Note_on_c, 0, 67, 0
2, 147411, Note_on_c, 0, 64, 0
2, 147471, Note_on_c, 0, 64, 61
2, 147471, Note_on_c, 0, 67, 61
2, 147471, Note_on_c, 0, 71, 61
2, 147499, Note_on_c, 0, 67, 0
2, 147504, Note_on_c, 0, 71, 0
2, 147506, Note_on_c, 0, 64, 0
2, 147561, Note_on_c, 0, 71, 62
2, 147563, Note_on_c, 0, 49, 61
2, 147563, Note_on_c, 0, 64, 61
2, 147563, Note_on_c, 0, 67, 60
2, 147589, Note_on_c, 0, 67, 0
2, 147589, Note_on_c, 0, 49, 0
2, 147598, Note_on_c, 0, 64, 0
2, 147605, Note_on_c, 0, 71, 0
2, 147645, Note_on_c, 0, 67, 61
2, 147647, Note_on_c, 0, 71, 62
2, 147649, Note_on_c, 0, 64, 61
2, 147683, Note_on_c, 0, 67, 0
2, 147685, Note_on_c, 0, 64, 0
2, 147685, Note_on_c, 0, 71, 0
2, 147735, Note_on_c, 0, 73, 64
2, 147741, Note_on_c, 0, 71, 68
2, 147743, Note_on_c, 0, 53, 68
2, 147743, Note_on_c, 0, 56, 69
2, 147743, Note_on_c, 0, 59, 70
2, 147743, Note_on_c, 0, 65, 68
2, 147745, Note_on_c, 0, 38, 71
2, 147750, Note_on_c, 0, 68, 66
2, 147766, Note_on_c, 0, 73, 0
2, 147771, Note_on_c, 0, 38, 0
2, 147778, Note_on_c, 0, 59, 0
2, 147778, Note_on_c, 0, 56, 0
2, 147778, Note_on_c, 0, 53, 0
2, 147816, Note_on_c, 0, 56, 65
2, 147818, Note_on_c, 0, 53, 65
2, 147818, Note_on_c, 0, 59, 65
2, 147852, Note_on_c, 0, 53, 0
2, 147858, Note_on_c, 0, 56, 0
2, 147858, Note_on_c, 0, 68, 0
2, 147858, Note_on_c, 0, 59, 0
2, 147870, Note_on_c, 0, 65, 0
2, 147891, Note_on_c, 0, 71, 0
2, 147907, Note_on_c, 0, 66, 66
2, 147909, Note_on_c, 0, 54, 65
2, 147909, Note_on_c, 0, 57, 65
2, 147909, Note_on_c, 0, 62, 64
2, 147909, Note_on_c, 0, 69, 67
2, 147911, Note_on_c, 0, 50, 65
2, 147937, Note_on_c, 0, 50, 0
2, 147944, Note_on_c, 0, 62, 0
2, 147953, Note_on_c, 0, 57, 0
2, 147953, Note_on_c, 0, 54, 0
2, 147997, Note_on_c, 0, 57, 64
2, 147997, Note_on_c, 0, 62, 65
2, 147999, Note_on_c, 0, 66, 0
2, 148003, Note_on_c, 0, 69, 0
2, 148034, Note_on_c, 0, 57, 0
2, 148034, Note_on_c, 0, 62, 0
2, 148089, Note_on_c, 0, 79, 70
2, 148091, Note_on_c, 0, 83, 77
2, 148100, Note_on_c, 0, 73, 76
2, 148102, Note_on_c, 0, 40, 68
2, 148102, Note_on_c, 0, 61, 69
2, 148102, Note_on_c, 0, 67, 76
2, 148109, Note_on_c, 0, 71, 75
2, 148116, Note_on_c, 0, 83, 0
2, 148125, Note_on_c, 0, 79, 0
2, 148130, Note_on_c, 0, 40, 0
2, 148132, Note_on_c, 0, 73, 0
2, 148132, Note_on_c, 0, 67, 0
2, 148137, Note_on_c, 0, 61, 0
2, 148144, Note_on_c, 0, 71, 0
2, 148193, Note_on_c, 0, 71, 70
2, 148195, Note_on_c, 0, 61, 69
2, 148195, Note_on_c, 0, 67, 69
2, 148231, Note_on_c, 0, 67, 0
2, 148231, Note_on_c, 0, 61, 0
2, 148231, Note_on_c, 0, 71, 0
2, 148286, Note_on_c, 0, 67, 69
2, 148286, Note_on_c, 0, 71, 70
2, 148292, Note_on_c, 0, 52, 69
2, 148292, Note_on_c, 0, 61, 69
2, 148316, Note_on_c, 0, 67, 0
2, 148323, Note_on_c, 0, 61, 0
2, 148323, Note_on_c, 0, 52, 0
2, 148325, Note_on_c, 0, 71, 0
2, 148363, Note_on_c, 0, 71, 70
2, 148365, Note_on_c, 0, 61, 69
2, 148365, Note_on_c, 0, 67, 69
2, 148404, Note_on_c, 0, 67, 0
2, 148404, Note_on_c, 0, 61, 0
2, 148410, Note_on_c, 0, 71, 0
2, 148454, Note_on_c, 0, 73, 70
2, 148470, Note_on_c, 0, 65, 75
2, 148470, Note_on_c, 0, 71, 78
2, 148475, Note_on_c, 0, 42, 80
2, 148477, Note_on_c, 0, 62, 81
2, 148481, Note_on_c, 0, 56, 82
2, 148481, Note_on_c, 0, 59, 83
2, 148481, Note_on_c, 0, 68, 78
2, 148498, Note_on_c, 0, 73, 0
2, 148500, Note_on_c, 0, 42, 0
2, 148502, Note_on_c, 0, 56, 0
2, 148504, Note_on_c, 0, 62, 0
2, 148504, Note_on_c, 0, 59, 0
2, 148553, Note_on_c, 0, 62, 79
2, 148555, Note_on_c, 0, 59, 76
2, 148560, Note_on_c, 0, 56, 75
2, 148589, Note_on_c, 0, 62, 0
2, 148596, Note_on_c, 0, 65, 0
2, 148596, Note_on_c, 0, 68, 0
2, 148596, Note_on_c, 0, 56, 0
2, 148598, Note_on_c, 0, 59, 0
2, 148619, Note_on_c, 0, 71, 0
2, 148645, Note_on_c, 0, 57, 73
2, 148645, Note_on_c, 0, 62, 73
2, 148645, Note_on_c, 0, 69, 78
2, 148649, Note_on_c, 0, 54, 72
2, 148654, Note_on_c, 0, 66, 78
2, 148673, Note_on_c, 0, 54, 0
2, 148688, Note_on_c, 0, 62, 0
2, 148695, Note_on_c, 0, 57, 0
2, 148696, Note_on_c, 0, 69, 0
2, 148716, Note_on_c, 0, 66, 0
2, 148732, Note_on_c, 0, 57, 73
2, 148732, Note_on_c, 0, 62, 73
2, 148732, Note_on_c, 0, 69, 74
2, 148763, Note_on_c, 0, 69, 0
2, 148769, Note_on_c, 0, 62, 0
2, 148769, Note_on_c, 0, 57, 0
2, 148841, Note_on_c, 0, 62, 72
2, 148841, Note_on_c, 0, 76, 87
2, 148841, Note_on_c, 0, 82, 90
2, 148841, Note_on_c, 0, 86, 91
2, 148846, Note_on_c, 0, 70, 90
2, 148846, Note_on_c, 0, 74, 90
2, 148848, Note_on_c, 0, 43, 85
2, 148848, Note_on_c, 0, 55, 86
2, 148848, Note_on_c, 0, 64, 89
2, 148848, Note_on_c, 0, 67, 88
2, 148863, Control_c, 0, 64, 127
2, 148869, Note_on_c, 0, 74, 0
2, 148869, Note_on_c, 0, 86, 0
2, 148869, Note_on_c, 0, 82, 0
2, 148869, Note_on_c, 0, 70, 0
2, 148874, Note_on_c, 0, 55, 0
2, 148874, Note_on_c, 0, 43, 0
2, 148876, Note_on_c, 0, 67, 0
2, 148876, Note_on_c, 0, 76, 0
2, 148878, Note_on_c, 0, 62, 0
2, 148897, Note_on_c, 0, 64, 0
2, 148990, Control_c, 0, 64, 0
2, 149031, Note_on_c, 0, 55, 73
2, 149052, Note_on_c, 0, 58, 73
2, 149066, Note_on_c, 0, 62, 73
2, 149076, Note_on_c, 0, 55, 0
2, 149087, Note_on_c, 0, 64, 73
2, 149097, Note_on_c, 0, 58, 0
2, 149106, Note_on_c, 0, 70, 73
2, 149116, Note_on_c, 0, 62, 0
2, 149128, Note_on_c, 0, 64, 0
2, 149128, Note_on_c, 0, 74, 74
2, 149132, Control_c, 0, 64, 127
2, 149139, Note_on_c, 0, 70, 0
2, 149151, Note_on_c, 0, 76, 74
2, 149167, Note_on_c, 0, 79, 74
2, 149172, Note_on_c, 0, 74, 0
2, 149181, Note_on_c, 0, 82, 76
2, 149191, Note_on_c, 0, 86, 76
2, 149205, Note_on_c, 0, 88, 78
2, 149210, Note_on_c, 0, 94, 80
2, 149236, Control_c, 0, 64, 0
2, 149241, Note_on_c, 0, 94, 0
2, 149241, Note_on_c, 0, 88, 0
2, 149284, Control_c, 0, 64, 127
2, 149318, Control_c, 0, 64, 0
2, 149322, Note_on_c, 0, 76, 0
2, 149322, Note_on_c, 0, 86, 0
2, 149324, Note_on_c, 0, 79, 0
2, 149336, Note_on_c, 0, 82, 0
2, 149403, Note_on_c, 0, 57, 76
2, 149417, Note_on_c, 0, 61, 83
2, 149432, Note_on_c, 0, 64, 83
2, 149451, Note_on_c, 0, 67, 82
2, 149456, Note_on_c, 0, 57, 0
2, 149475, Note_on_c, 0, 61, 0
2, 149475, Control_c, 0, 64, 127
2, 149482, Note_on_c, 0, 67, 0
2, 149496, Note_on_c, 0, 64, 0
2, 149498, Note_on_c, 0, 69, 81
2, 149519, Note_on_c, 0, 73, 80
2, 149540, Note_on_c, 0, 76, 81
2, 149560, Note_on_c, 0, 79, 81
2, 149574, Note_on_c, 0, 81, 83
2, 149593, Note_on_c, 0, 85, 83
2, 149627, Note_on_c, 0, 85, 0
2, 149627, Note_on_c, 0, 93, 90
2, 149653, Note_on_c, 0, 93, 0
2, 149677, Control_c, 0, 64, 0
2, 149696, Note_on_c, 0, 76, 0
2, 149696, Note_on_c, 0, 69, 0
2, 149696, Note_on_c, 0, 73, 0
2, 149703, Note_on_c, 0, 79, 0
2, 149709, Note_on_c, 0, 81, 0
2, 149786, Note_on_c, 0, 50, 79
2, 149810, Note_on_c, 0, 57, 69
2, 149836, Note_on_c, 0, 50, 0
2, 149846, Note_on_c, 0, 66, 45
2, 149852, Control_c, 0, 64, 127
2, 149854, Note_on_c, 0, 57, 0
2, 149875, Note_on_c, 0, 69, 51
2, 149892, Note_on_c, 0, 66, 0
2, 149901, Note_on_c, 0, 74, 55
2, 149920, Note_on_c, 0, 78, 56
2, 149944, Note_on_c, 0, 81, 60
2, 149956, Note_on_c, 0, 78, 0
2, 149966, Note_on_c, 0, 90, 65
2, 149975, Note_on_c, 0, 98, 71
2, 149990, Control_c, 0, 64, 0
2, 149992, Note_on_c, 0, 78, 69
2, 150001, Note_on_c, 0, 98, 0
2, 150037, Note_on_c, 0, 69, 0
2, 150037, Note_on_c, 0, 74, 0
2, 150041, Note_on_c, 0, 90, 0
2, 150041, Control_c, 0, 64, 127
2, 150058, Note_on_c, 0, 78, 0
2, 150058, Note_on_c, 0, 81, 0
2, 150199, Note_on_c, 0, 50, 84
2, 150199, Note_on_c, 0, 57, 112
2, 150199, Note_on_c, 0, 62, 111
2, 150210, Note_on_c, 0, 26, 112
2, 150210, Note_on_c, 0, 38, 112
2, 150215, Note_on_c, 0, 33, 111
2, 150234, Note_on_c, 0, 57, 0
2, 150239, Note_on_c, 0, 38, 0
2, 150239, Note_on_c, 0, 62, 0
2, 150241, Note_on_c, 0, 50, 0
2, 150251, Note_on_c, 0, 33, 0
2, 150267, Note_on_c, 0, 26, 0
2, 150377, Control_c, 0, 64, 0
2, 151699, Control_c, 0, 67, 127
2, 151860, Note_on_c, 0, 71, 43
2, 151860, Note_on_c, 0, 74, 55
2, 151862, Note_on_c, 0, 67, 53
2, 151888, Note_on_c, 0, 67, 0
2, 151888, Note_on_c, 0, 74, 0
2, 151888, Note_on_c, 0, 71, 0
2, 152031, Note_on_c, 0, 74, 55
2, 152032, Note_on_c, 0, 67, 54
2, 152032, Note_on_c, 0, 71, 55
2, 152052, Note_on_c, 0, 71, 0
2, 152052, Note_on_c, 0, 74, 0
2, 152054, Note_on_c, 0, 67, 0
2, 152075, Note_on_c, 0, 71, 58
2, 152075, Note_on_c, 0, 74, 59
2, 152080, Note_on_c, 0, 67, 57
2, 152101, Note_on_c, 0, 67, 0
2, 152101, Note_on_c, 0, 74, 0
2, 152101, Note_on_c, 0, 71, 0
2, 152120, Note_on_c, 0, 71, 59
2, 152125, Note_on_c, 0, 67, 58
2, 152125, Note_on_c, 0, 74, 59
2, 152146, Note_on_c, 0, 67, 0
2, 152146, Note_on_c, 0, 71, 0
2, 152162, Note_on_c, 0, 74, 0
2, 152167, Note_on_c, 0, 64, 55
2, 152167, Note_on_c, 0, 76, 55
2, 152169, Note_on_c, 0, 67, 53
2, 152169, Note_on_c, 0, 71, 55
2, 152198, Note_on_c, 0, 71, 0
2, 152198, Note_on_c, 0, 67, 0
2, 152198, Note_on_c, 0, 76, 0
2, 152209, Note_on_c, 0, 64, 0
2, 152336, Note_on_c, 0, 71, 57
2, 152336, Note_on_c, 0, 76, 44
2, 152338, Note_on_c, 0, 67, 42
2, 152340, Note_on_c, 0, 64, 43
2, 152364, Note_on_c, 0, 67, 0
2, 152368, Note_on_c, 0, 76, 0
2, 152375, Note_on_c, 0, 71, 0
2, 152385, Note_on_c, 0, 64, 0
2, 152442, Control_c, 0, 67, 0
2, 152514, Note_on_c, 0, 66, 60
2, 152514, Note_on_c, 0, 71, 63
2, 152514, Note_on_c, 0, 78, 62
2, 152516, Note_on_c, 0, 62, 57
2, 152518, Note_on_c, 0, 59, 57
2, 152547, Note_on_c, 0, 62, 0
2, 152547, Note_on_c, 0, 78, 0
2, 152547, Note_on_c, 0, 66, 0
2, 152547, Note_on_c, 0, 71, 0
2, 152549, Note_on_c, 0, 59, 0
2, 152706, Note_on_c, 0, 67, 57
2, 152706, Note_on_c, 0, 71, 62
2, 152706, Note_on_c, 0, 74, 61
2, 152737, Note_on_c, 0, 74, 0
2, 152737, Note_on_c, 0, 71, 0
2, 152739, Note_on_c, 0, 67, 0
2, 152810, Control_c, 0, 64, 127
2, 152879, Note_on_c, 0, 71, 61
2, 152879, Note_on_c, 0, 76, 74
2, 152881, Note_on_c, 0, 67, 74
2, 152883, Note_on_c, 0, 64, 75
2, 153023, Control_c, 0, 67, 127
2, 153155, Note_on_c, 0, 71, 0
2, 153181, Note_on_c, 0, 76, 0
2, 153181, Note_on_c, 0, 67, 0
2, 153187, Note_on_c, 0, 64, 0
2, 153187, Control_c, 0, 64, 0
2, 153211, Note_on_c, 0, 71, 57
2, 153211, Note_on_c, 0, 74, 59
2, 153221, Note_on_c, 0, 67, 59
2, 153256, Note_on_c, 0, 67, 0
2, 153256, Note_on_c, 0, 74, 0
2, 153256, Note_on_c, 0, 71, 0
2, 153319, Control_c, 0, 67, 0
2, 153372, Note_on_c, 0, 71, 58
2, 153374, Note_on_c, 0, 74, 60
2, 153376, Note_on_c, 0, 67, 60
2, 153395, Note_on_c, 0, 67, 0
2, 153395, Note_on_c, 0, 74, 0
2, 153395, Note_on_c, 0, 71, 0
2, 153425, Note_on_c, 0, 67, 60
2, 153425, Note_on_c, 0, 71, 62
2, 153425, Note_on_c, 0, 74, 61
2, 153442, Note_on_c, 0, 74, 0
2, 153442, Note_on_c, 0, 71, 0
2, 153442, Note_on_c, 0, 67, 0
2, 153472, Note_on_c, 0, 67, 61
2, 153472, Note_on_c, 0, 71, 62
2, 153472, Note_on_c, 0, 74, 61
2, 153503, Note_on_c, 0, 74, 0
2, 153503, Note_on_c, 0, 71, 0
2, 153503, Note_on_c, 0, 67, 0
2, 153524, Note_on_c, 0, 71, 63
2, 153524, Note_on_c, 0, 76, 64
2, 153531, Note_on_c, 0, 64, 64
2, 153531, Note_on_c, 0, 67, 65
2, 153552, Note_on_c, 0, 76, 0
2, 153552, Note_on_c, 0, 71, 0
2, 153554, Note_on_c, 0, 67, 0
2, 153564, Note_on_c, 0, 64, 0
2, 153697, Note_on_c, 0, 64, 58
2, 153697, Note_on_c, 0, 67, 46
2, 153697, Note_on_c, 0, 71, 46
2, 153697, Note_on_c, 0, 76, 47
2, 153728, Note_on_c, 0, 76, 0
2, 153728, Note_on_c, 0, 71, 0
2, 153728, Note_on_c, 0, 67, 0
2, 153747, Note_on_c, 0, 64, 0
2, 153866, Note_on_c, 0, 78, 57
2, 153868, Note_on_c, 0, 62, 61
2, 153868, Note_on_c, 0, 66, 66
2, 153868, Note_on_c, 0, 71, 66
2, 153873, Note_on_c, 0, 59, 61
2, 153899, Note_on_c, 0, 66, 0
2, 153899, Note_on_c, 0, 78, 0
2, 153908, Note_on_c, 0, 62, 0
2, 153908, Note_on_c, 0, 71, 0
2, 153908, Note_on_c, 0, 59, 0
2, 154047, Note_on_c, 0, 67, 59
2, 154047, Note_on_c, 0, 71, 47
2, 154047, Note_on_c, 0, 74, 46
2, 154072, Note_on_c, 0, 74, 0
2, 154072, Note_on_c, 0, 71, 0
2, 154072, Note_on_c, 0, 67, 0
2, 154193, Control_c, 0, 64, 127
2, 154224, Note_on_c, 0, 76, 81
2, 154231, Note_on_c, 0, 64, 81
2, 154231, Note_on_c, 0, 67, 81
2, 154238, Note_on_c, 0, 71, 81
2, 154405, Note_on_c, 0, 67, 0
2, 154405, Note_on_c, 0, 64, 0
2, 154426, Control_c, 0, 67, 127
2, 154445, Note_on_c, 0, 71, 0
2, 154455, Control_c, 0, 64, 0
2, 154479, Note_on_c, 0, 76, 0
2, 154528, Note_on_c, 0, 64, 54
2, 154548, Note_on_c, 0, 45, 54
2, 154552, Note_on_c, 0, 72, 55
2, 154583, Note_on_c, 0, 45, 0
2, 154600, Note_on_c, 0, 72, 0
2, 154616, Note_on_c, 0, 44, 54
2, 154656, Note_on_c, 0, 44, 0
2, 154685, Note_on_c, 0, 74, 45
2, 154692, Note_on_c, 0, 72, 44
2, 154703, Note_on_c, 0, 45, 54
2, 154713, Note_on_c, 0, 74, 0
2, 154739, Note_on_c, 0, 45, 0
2, 154763, Note_on_c, 0, 72, 0
2, 154777, Note_on_c, 0, 47, 54
2, 154813, Note_on_c, 0, 47, 0
2, 154829, Note_on_c, 0, 71, 54
2, 154845, Note_on_c, 0, 69, 54
2, 154852, Note_on_c, 0, 48, 56
2, 154862, Note_on_c, 0, 71, 0
2, 154900, Note_on_c, 0, 48, 0
2, 154912, Note_on_c, 0, 69, 0
2, 154931, Note_on_c, 0, 49, 58
2, 154969, Note_on_c, 0, 49, 0
2, 154974, Note_on_c, 0, 67, 58
2, 154995, Note_on_c, 0, 66, 56
2, 155000, Note_on_c, 0, 50, 58
2, 155000, Note_on_c, 0, 57, 58
2, 155021, Note_on_c, 0, 67, 0
2, 155040, Note_on_c, 0, 50, 0
2, 155040, Note_on_c, 0, 57, 0
2, 155059, Note_on_c, 0, 66, 0
2, 155074, Note_on_c, 0, 42, 54
2, 155107, Note_on_c, 0, 42, 0
2, 155107, Note_on_c, 0, 64, 0
2, 155127, Note_on_c, 0, 62, 54
2, 155146, Note_on_c, 0, 71, 58
2, 155157, Note_on_c, 0, 43, 54
2, 155193, Note_on_c, 0, 43, 0
2, 155228, Note_on_c, 0, 42, 54
2, 155235, Note_on_c, 0, 71, 0
2, 155261, Note_on_c, 0, 42, 0
2, 155282, Note_on_c, 0, 72, 57
2, 155294, Note_on_c, 0, 71, 60
2, 155298, Note_on_c, 0, 43, 56
2, 155318, Note_on_c, 0, 72, 0
2, 155346, Note_on_c, 0, 43, 0
2, 155368, Note_on_c, 0, 71, 0
2, 155369, Note_on_c, 0, 45, 58
2, 155376, Note_on_c, 0, 45, 0
2, 155391, Note_on_c, 0, 69, 62
2, 155402, Note_on_c, 0, 67, 62
2, 155404, Note_on_c, 0, 46, 58
2, 155420, Note_on_c, 0, 69, 0
2, 155451, Note_on_c, 0, 46, 0
2, 155456, Note_on_c, 0, 67, 0
2, 155475, Note_on_c, 0, 47, 58
2, 155506, Note_on_c, 0, 62, 0
2, 155508, Note_on_c, 0, 47, 0
2, 155512, Note_on_c, 0, 66, 62
2, 155532, Note_on_c, 0, 55, 64
2, 155534, Note_on_c, 0, 64, 63
2, 155538, Note_on_c, 0, 48, 63
2, 155567, Note_on_c, 0, 66, 0
2, 155574, Note_on_c, 0, 48, 0
2, 155600, Note_on_c, 0, 40, 62
2, 155607, Note_on_c, 0, 64, 0
2, 155616, Control_c, 0, 67, 0
2, 155626, Note_on_c, 0, 55, 0
2, 155637, Note_on_c, 0, 40, 0
2, 155658, Note_on_c, 0, 67, 68
2, 155673, Note_on_c, 0, 66, 69
2, 155687, Note_on_c, 0, 67, 0
2, 155689, Note_on_c, 0, 42, 65
2, 155689, Note_on_c, 0, 60, 65
2, 155699, Note_on_c, 0, 42, 0
2, 155718, Note_on_c, 0, 43, 65
2, 155729, Note_on_c, 0, 66, 0
2, 155758, Note_on_c, 0, 43, 0
2, 155782, Note_on_c, 0, 64, 66
2, 155792, Note_on_c, 0, 60, 0
2, 155803, Note_on_c, 0, 54, 66
2, 155803, Note_on_c, 0, 63, 67
2, 155805, Note_on_c, 0, 45, 68
2, 155824, Note_on_c, 0, 64, 0
2, 155848, Note_on_c, 0, 63, 0
2, 155850, Note_on_c, 0, 45, 0
2, 155874, Note_on_c, 0, 47, 69
2, 155921, Note_on_c, 0, 47, 0
2, 155943, Note_on_c, 0, 54, 0
2, 155947, Note_on_c, 0, 69, 70
2, 155967, Note_on_c, 0, 49, 69
2, 155967, Note_on_c, 0, 57, 69
2, 155967, Note_on_c, 0, 59, 68
2, 155967, Note_on_c, 0, 67, 71
2, 155986, Note_on_c, 0, 69, 0
2, 156007, Note_on_c, 0, 57, 0
2, 156012, Note_on_c, 0, 49, 0
2, 156036, Note_on_c, 0, 51, 69
2, 156062, Note_on_c, 0, 67, 0
2, 156081, Note_on_c, 0, 51, 0
2, 156092, Note_on_c, 0, 59, 0
2, 156099, Note_on_c, 0, 66, 69
2, 156120, Note_on_c, 0, 55, 69
2, 156120, Note_on_c, 0, 59, 69
2, 156122, Note_on_c, 0, 52, 68
2, 156129, Note_on_c, 0, 64, 71
2, 156140, Note_on_c, 0, 66, 0
2, 156160, Note_on_c, 0, 55, 0
2, 156161, Note_on_c, 0, 52, 0
2, 156202, Note_on_c, 0, 55, 71
2, 156211, Note_on_c, 0, 64, 0
2, 156252, Note_on_c, 0, 55, 0
2, 156252, Note_on_c, 0, 59, 0
2, 156258, Note_on_c, 0, 71, 74
2, 156284, Note_on_c, 0, 57, 73
2, 156284, Note_on_c, 0, 64, 76
2, 156284, Note_on_c, 0, 72, 78
2, 156301, Note_on_c, 0, 71, 0
2, 156317, Note_on_c, 0, 57, 0
2, 156360, Note_on_c, 0, 59, 73
2, 156389, Note_on_c, 0, 59, 0
2, 156410, Note_on_c, 0, 72, 0
2, 156415, Note_on_c, 0, 71, 74
2, 156444, Note_on_c, 0, 60, 73
2, 156446, Note_on_c, 0, 69, 78
2, 156470, Note_on_c, 0, 71, 0
2, 156484, Note_on_c, 0, 60, 0
2, 156513, Note_on_c, 0, 69, 0
2, 156513, Note_on_c, 0, 61, 73
2, 156527, Note_on_c, 0, 64, 0
2, 156548, Note_on_c, 0, 61, 0
2, 156560, Note_on_c, 0, 67, 73
2, 156581, Note_on_c, 0, 66, 76
2, 156581, Note_on_c, 0, 74, 79
2, 156592, Note_on_c, 0, 62, 73
2, 156594, Note_on_c, 0, 67, 0
2, 156618, Note_on_c, 0, 66, 0
2, 156625, Note_on_c, 0, 74, 0
2, 156625, Note_on_c, 0, 62, 0
2, 156712, Note_on_c, 0, 81, 76
2, 156717, Control_c, 0, 64, 127
2, 156719, Note_on_c, 0, 83, 76
2, 156724, Note_on_c, 0, 85, 78
2, 156734, Note_on_c, 0, 86, 79
2, 156740, Note_on_c, 0, 81, 0
2, 156742, Note_on_c, 0, 78, 80
2, 156747, Note_on_c, 0, 50, 78
2, 156749, Note_on_c, 0, 83, 0
2, 156749, Note_on_c, 0, 85, 0
2, 156749, Note_on_c, 0, 38, 77
2, 156749, Note_on_c, 0, 45, 76
2, 156768, Note_on_c, 0, 86, 0
2, 156770, Note_on_c, 0, 78, 0
2, 156780, Note_on_c, 0, 50, 0
2, 156784, Note_on_c, 0, 38, 0
2, 156784, Note_on_c, 0, 45, 0
2, 156804, Control_c, 0, 64, 0
2, 156837, Control_c, 0, 67, 127
2, 156918, Note_on_c, 0, 71, 62
2, 156918, Note_on_c, 0, 74, 59
2, 156920, Note_on_c, 0, 67, 57
2, 156955, Note_on_c, 0, 74, 0
2, 156955, Note_on_c, 0, 71, 0
2, 156957, Note_on_c, 0, 67, 0
2, 157085, Note_on_c, 0, 67, 58
2, 157085, Note_on_c, 0, 71, 59
2, 157085, Note_on_c, 0, 74, 58
2, 157106, Note_on_c, 0, 67, 0
2, 157108, Note_on_c, 0, 74, 0
2, 157108, Note_on_c, 0, 71, 0
2, 157132, Note_on_c, 0, 67, 57
2, 157132, Note_on_c, 0, 71, 59
2, 157132, Note_on_c, 0, 74, 58
2, 157153, Note_on_c, 0, 67, 0
2, 157172, Note_on_c, 0, 67, 58
2, 157192, Note_on_c, 0, 71, 0
2, 157193, Note_on_c, 0, 67, 0
2, 157198, Note_on_c, 0, 74, 0
2, 157215, Note_on_c, 0, 71, 62
2, 157216, Note_on_c, 0, 67, 62
2, 157216, Note_on_c, 0, 76, 64
2, 157226, Note_on_c, 0, 64, 62
2, 157245, Note_on_c, 0, 76, 0
2, 157245, Note_on_c, 0, 71, 0
2, 157245, Note_on_c, 0, 67, 0
2, 157260, Note_on_c, 0, 64, 0
2, 157387, Note_on_c, 0, 67, 55
2, 157387, Note_on_c, 0, 71, 44
2, 157387, Note_on_c, 0, 76, 43
2, 157389, Note_on_c, 0, 64, 43
2, 157413, Note_on_c, 0, 76, 0
2, 157413, Note_on_c, 0, 71, 0
2, 157415, Note_on_c, 0, 67, 0
2, 157425, Note_on_c, 0, 64, 0
2, 157560, Note_on_c, 0, 66, 53
2, 157560, Note_on_c, 0, 71, 72
2, 157560, Note_on_c, 0, 78, 71
2, 157565, Note_on_c, 0, 62, 58
2, 157572, Note_on_c, 0, 59, 58
2, 157593, Note_on_c, 0, 62, 0
2, 157593, Note_on_c, 0, 78, 0
2, 157593, Note_on_c, 0, 66, 0
2, 157593, Note_on_c, 0, 71, 0
2, 157607, Note_on_c, 0, 59, 0
2, 157744, Note_on_c, 0, 67, 60
2, 157744, Note_on_c, 0, 71, 44
2, 157744, Note_on_c, 0, 74, 43
2, 157775, Note_on_c, 0, 74, 0
2, 157775, Note_on_c, 0, 71, 0
2, 157775, Note_on_c, 0, 67, 0
2, 157804, Control_c, 0, 67, 0
2, 157918, Note_on_c, 0, 76, 58
2, 157920, Note_on_c, 0, 64, 81
2, 157920, Note_on_c, 0, 67, 81
2, 157920, Note_on_c, 0, 71, 81
2, 158176, Note_on_c, 0, 71, 0
2, 158183, Note_on_c, 0, 76, 0
2, 158183, Note_on_c, 0, 64, 0
2, 158183, Note_on_c, 0, 67, 0
2, 158252, Note_on_c, 0, 67, 58
2, 158252, Note_on_c, 0, 71, 58
2, 158252, Note_on_c, 0, 74, 57
2, 158281, Note_on_c, 0, 71, 0
2, 158281, Note_on_c, 0, 67, 0
2, 158283, Note_on_c, 0, 74, 0
2, 158411, Note_on_c, 0, 74, 62
2, 158413, Note_on_c, 0, 71, 62
2, 158415, Note_on_c, 0, 67, 61
2, 158431, Note_on_c, 0, 67, 0
2, 158433, Note_on_c, 0, 71, 0
2, 158433, Note_on_c, 0, 74, 0
2, 158457, Note_on_c, 0, 67, 60
2, 158457, Note_on_c, 0, 71, 62
2, 158457, Note_on_c, 0, 74, 61
2, 158481, Note_on_c, 0, 74, 0
2, 158481, Note_on_c, 0, 71, 0
2, 158481, Note_on_c, 0, 67, 0
2, 158497, Note_on_c, 0, 71, 62
2, 158497, Note_on_c, 0, 74, 62
2, 158499, Note_on_c, 0, 67, 60
2, 158520, Note_on_c, 0, 67, 0
2, 158520, Note_on_c, 0, 74, 0
2, 158520, Note_on_c, 0, 71, 0
2, 158544, Note_on_c, 0, 71, 63
2, 158544, Note_on_c, 0, 76, 65
2, 158546, Note_on_c, 0, 64, 65
2, 158556, Note_on_c, 0, 67, 66
2, 158572, Note_on_c, 0, 76, 0
2, 158572, Note_on_c, 0, 71, 0
2, 158584, Note_on_c, 0, 67, 0
2, 158590, Note_on_c, 0, 64, 0
2, 158718, Note_on_c, 0, 67, 59
2, 158718, Note_on_c, 0, 71, 47
2, 158718, Note_on_c, 0, 76, 46
2, 158720, Note_on_c, 0, 64, 46
2, 158746, Note_on_c, 0, 76, 0
2, 158746, Note_on_c, 0, 67, 0
2, 158755, Note_on_c, 0, 71, 0
2, 158755, Note_on_c, 0, 64, 0
2, 158891, Note_on_c, 0, 66, 55
2, 158891, Note_on_c, 0, 71, 67
2, 158891, Note_on_c, 0, 78, 66
2, 158893, Note_on_c, 0, 59, 61
2, 158893, Note_on_c, 0, 62, 61
2, 158921, Note_on_c, 0, 62, 0
2, 158921, Note_on_c, 0, 78, 0
2, 158921, Note_on_c, 0, 71, 0
2, 158923, Note_on_c, 0, 66, 0
2, 158923, Note_on_c, 0, 59, 0
2, 159065, Note_on_c, 0, 67, 59
2, 159065, Note_on_c, 0, 71, 47
2, 159065, Note_on_c, 0, 74, 46
2, 159094, Note_on_c, 0, 74, 0
2, 159094, Note_on_c, 0, 71, 0
2, 159094, Note_on_c, 0, 67, 0
2, 159243, Note_on_c, 0, 71, 56
2, 159243, Note_on_c, 0, 76, 90
2, 159245, Note_on_c, 0, 64, 88
2, 159245, Note_on_c, 0, 67, 89
2, 159418, Control_c, 0, 67, 127
2, 159447, Note_on_c, 0, 67, 0
2, 159447, Note_on_c, 0, 64, 0
2, 159496, Note_on_c, 0, 76, 0
2, 159506, Note_on_c, 0, 71, 0
2, 159544, Note_on_c, 0, 64, 58
2, 159555, Note_on_c, 0, 72, 62
2, 159562, Note_on_c, 0, 45, 56
2, 159595, Note_on_c, 0, 45, 0
2, 159624, Note_on_c, 0, 72, 0
2, 159639, Note_on_c, 0, 44, 54
2, 159667, Note_on_c, 0, 44, 0
2, 159691, Note_on_c, 0, 74, 55
2, 159711, Note_on_c, 0, 72, 58
2, 159722, Note_on_c, 0, 45, 54
2, 159732, Note_on_c, 0, 74, 0
2, 159758, Note_on_c, 0, 45, 0
2, 159779, Note_on_c, 0, 64, 0
2, 159793, Note_on_c, 0, 47, 54
2, 159803, Note_on_c, 0, 72, 0
2, 159827, Note_on_c, 0, 47, 0
2, 159846, Note_on_c, 0, 71, 57
2, 159867, Note_on_c, 0, 48, 55
2, 159869, Note_on_c, 0, 69, 61
2, 159883, Note_on_c, 0, 71, 0
2, 159921, Note_on_c, 0, 48, 0
2, 159945, Note_on_c, 0, 49, 58
2, 159947, Note_on_c, 0, 69, 0
2, 159976, Note_on_c, 0, 49, 0
2, 160000, Note_on_c, 0, 67, 58
2, 160014, Note_on_c, 0, 66, 61
2, 160019, Note_on_c, 0, 50, 58
2, 160019, Note_on_c, 0, 57, 58
2, 160035, Note_on_c, 0, 67, 0
2, 160054, Note_on_c, 0, 57, 0
2, 160069, Note_on_c, 0, 66, 0
2, 160073, Note_on_c, 0, 50, 0
2, 160099, Note_on_c, 0, 48, 56
2, 160137, Note_on_c, 0, 48, 0
2, 160151, Note_on_c, 0, 69, 55
2, 160170, Note_on_c, 0, 66, 57
2, 160170, Note_on_c, 0, 74, 60
2, 160175, Note_on_c, 0, 47, 54
2, 160217, Note_on_c, 0, 47, 0
2, 160227, Note_on_c, 0, 69, 0
2, 160251, Note_on_c, 0, 46, 54
2, 160253, Note_on_c, 0, 74, 0
2, 160279, Note_on_c, 0, 46, 0
2, 160314, Note_on_c, 0, 76, 55
2, 160326, Note_on_c, 0, 47, 54
2, 160333, Note_on_c, 0, 74, 59
2, 160349, Note_on_c, 0, 76, 0
2, 160370, Note_on_c, 0, 47, 0
2, 160403, Note_on_c, 0, 48, 53
2, 160408, Note_on_c, 0, 66, 0
2, 160409, Note_on_c, 0, 74, 0
2, 160438, Note_on_c, 0, 48, 0
2, 160469, Note_on_c, 0, 72, 59
2, 160479, Note_on_c, 0, 50, 57
2, 160493, Note_on_c, 0, 71, 62
2, 160509, Note_on_c, 0, 72, 0
2, 160533, Note_on_c, 0, 50, 0
2, 160543, Note_on_c, 0, 71, 0
2, 160550, Note_on_c, 0, 51, 58
2, 160592, Note_on_c, 0, 51, 0
2, 160594, Note_on_c, 0, 69, 59
2, 160608, Note_on_c, 0, 52, 58
2, 160608, Note_on_c, 0, 67, 60
2, 160610, Note_on_c, 0, 59, 58
2, 160629, Note_on_c, 0, 69, 0
2, 160636, Note_on_c, 0, 59, 0
2, 160650, Control_c, 0, 67, 0
2, 160665, Note_on_c, 0, 52, 0
2, 160676, Note_on_c, 0, 67, 0
2, 160691, Note_on_c, 0, 50, 61
2, 160728, Note_on_c, 0, 50, 0
2, 160740, Note_on_c, 0, 71, 62
2, 160756, Note_on_c, 0, 67, 63
2, 160763, Note_on_c, 0, 76, 65
2, 160768, Note_on_c, 0, 48, 65
2, 160792, Note_on_c, 0, 71, 0
2, 160803, Note_on_c, 0, 48, 0
2, 160845, Note_on_c, 0, 67, 0
2, 160847, Note_on_c, 0, 47, 65
2, 160862, Note_on_c, 0, 76, 0
2, 160883, Note_on_c, 0, 47, 0
2, 160894, Note_on_c, 0, 74, 66
2, 160911, Note_on_c, 0, 69, 66
2, 160912, Note_on_c, 0, 72, 67
2, 160927, Note_on_c, 0, 45, 65
2, 160938, Note_on_c, 0, 74, 0
2, 160948, Note_on_c, 0, 45, 0
2, 160977, Note_on_c, 0, 72, 0
2, 160982, Note_on_c, 0, 48, 65
2, 161019, Note_on_c, 0, 48, 0
2, 161033, Note_on_c, 0, 76, 69
2, 161055, Note_on_c, 0, 78, 71
2, 161059, Note_on_c, 0, 50, 68
2, 161079, Note_on_c, 0, 76, 0
2, 161104, Note_on_c, 0, 50, 0
2, 161140, Note_on_c, 0, 48, 69
2, 161142, Note_on_c, 0, 69, 0
2, 161147, Note_on_c, 0, 78, 0
2, 161179, Note_on_c, 0, 48, 0
2, 161199, Note_on_c, 0, 76, 70
2, 161224, Note_on_c, 0, 71, 72
2, 161224, Note_on_c, 0, 74, 73
2, 161229, Note_on_c, 0, 47, 69
2, 161246, Note_on_c, 0, 76, 0
2, 161272, Note_on_c, 0, 47, 0
2, 161300, Note_on_c, 0, 74, 0
2, 161305, Note_on_c, 0, 50, 69
2, 161343, Note_on_c, 0, 50, 0
2, 161357, Note_on_c, 0, 78, 70
2, 161378, Note_on_c, 0, 79, 73
2, 161383, Note_on_c, 0, 52, 72
2, 161404, Note_on_c, 0, 78, 0
2, 161433, Note_on_c, 0, 52, 0
2, 161454, Note_on_c, 0, 71, 0
2, 161468, Note_on_c, 0, 55, 73
2, 161470, Note_on_c, 0, 79, 0
2, 161503, Note_on_c, 0, 55, 0
2, 161514, Note_on_c, 0, 78, 77
2, 161540, Note_on_c, 0, 76, 80
2, 161542, Note_on_c, 0, 57, 78
2, 161542, Note_on_c, 0, 72, 82
2, 161563, Note_on_c, 0, 78, 0
2, 161570, Note_on_c, 0, 57, 0
2, 161599, Note_on_c, 0, 72, 0
2, 161608, Note_on_c, 0, 76, 0
2, 161613, Note_on_c, 0, 58, 81
2, 161651, Note_on_c, 0, 58, 0
2, 161665, Note_on_c, 0, 78, 83
2, 161689, Note_on_c, 0, 66, 85
2, 161694, Note_on_c, 0, 59, 80
2, 161694, Note_on_c, 0, 75, 88
2, 161715, Note_on_c, 0, 78, 0
2, 161727, Control_c, 0, 64, 127
2, 161731, Note_on_c, 0, 59, 0
2, 161746, Note_on_c, 0, 66, 0
2, 161757, Note_on_c, 0, 75, 0
2, 161804, Note_on_c, 0, 78, 93
2, 161821, Note_on_c, 0, 79, 96
2, 161835, Note_on_c, 0, 82, 99
2, 161842, Note_on_c, 0, 78, 0
2, 161851, Note_on_c, 0, 83, 102
2, 161858, Note_on_c, 0, 79, 0
2, 161858, Note_on_c, 0, 35, 97
2, 161858, Note_on_c, 0, 42, 97
2, 161858, Note_on_c, 0, 47, 96
2, 161868, Note_on_c, 0, 82, 0
2, 161887, Note_on_c, 0, 47, 0
2, 161887, Note_on_c, 0, 35, 0
2, 161894, Note_on_c, 0, 42, 0
2, 161896, Note_on_c, 0, 83, 0
2, 161905, Control_c, 0, 64, 0
2, 162023, Note_on_c, 0, 71, 94
2, 162028, Note_on_c, 0, 54, 80
2, 162028, Note_on_c, 0, 59, 81
2, 162033, Note_on_c, 0, 63, 80
2, 162054, Note_on_c, 0, 59, 0
2, 162061, Note_on_c, 0, 71, 0
2, 162063, Note_on_c, 0, 54, 0
2, 162063, Note_on_c, 0, 63, 0
2, 162192, Note_on_c, 0, 71, 66
2, 162194, Note_on_c, 0, 54, 69
2, 162194, Note_on_c, 0, 63, 69
2, 162196, Note_on_c, 0, 59, 68
2, 162222, Note_on_c, 0, 71, 0
2, 162224, Note_on_c, 0, 54, 0
2, 162224, Note_on_c, 0, 63, 0
2, 162224, Note_on_c, 0, 59, 0
2, 162238, Note_on_c, 0, 71, 70
2, 162240, Note_on_c, 0, 54, 69
2, 162240, Note_on_c, 0, 59, 69
2, 162240, Note_on_c, 0, 63, 68
2, 162261, Note_on_c, 0, 63, 0
2, 162261, Note_on_c, 0, 59, 0
2, 162261, Note_on_c, 0, 71, 0
2, 162263, Note_on_c, 0, 54, 0
2, 162282, Note_on_c, 0, 71, 70
2, 162284, Note_on_c, 0, 54, 69
2, 162284, Note_on_c, 0, 59, 69
2, 162284, Note_on_c, 0, 63, 68
2, 162317, Note_on_c, 0, 63, 0
2, 162317, Note_on_c, 0, 59, 0
2, 162317, Note_on_c, 0, 54, 0
2, 162328, Note_on_c, 0, 71, 0
2, 162328, Note_on_c, 0, 64, 67
2, 162330, Note_on_c, 0, 67, 65
2, 162332, Note_on_c, 0, 52, 66
2, 162339, Note_on_c, 0, 59, 66
2, 162365, Note_on_c, 0, 67, 0
2, 162370, Note_on_c, 0, 64, 0
2, 162370, Note_on_c, 0, 59, 0
2, 162375, Note_on_c, 0, 52, 0
2, 162497, Note_on_c, 0, 64, 71
2, 162502, Note_on_c, 0, 48, 73
2, 162504, Note_on_c, 0, 55, 73
2, 162504, Note_on_c, 0, 57, 73
2, 162532, Note_on_c, 0, 57, 0
2, 162532, Note_on_c, 0, 64, 0
2, 162539, Note_on_c, 0, 55, 0
2, 162545, Note_on_c, 0, 48, 0
2, 162664, Note_on_c, 0, 60, 73
2, 162665, Note_on_c, 0, 52, 73
2, 162665, Note_on_c, 0, 55, 73
2, 162675, Note_on_c, 0, 45, 75
2, 162694, Note_on_c, 0, 60, 0
2, 162696, Note_on_c, 0, 52, 0
2, 162701, Note_on_c, 0, 55, 0
2, 162712, Note_on_c, 0, 45, 0
2, 162828, Note_on_c, 0, 48, 75
2, 162828, Note_on_c, 0, 57, 81
2, 162832, Note_on_c, 0, 52, 80
2, 162834, Note_on_c, 0, 42, 81
2, 162865, Note_on_c, 0, 52, 0
2, 162872, Note_on_c, 0, 57, 0
2, 162883, Note_on_c, 0, 48, 0
2, 162893, Note_on_c, 0, 42, 0
2, 162948, Note_on_c, 0, 39, 74
2, 162964, Note_on_c, 0, 47, 73
2, 162983, Note_on_c, 0, 54, 76
2, 162995, Note_on_c, 0, 39, 0
2, 163019, Note_on_c, 0, 47, 0
2, 163030, Note_on_c, 0, 54, 0
2, 163072, Note_on_c, 0, 47, 73
2, 163103, Note_on_c, 0, 47, 0
2, 163131, Note_on_c, 0, 82, 62
2, 163145, Note_on_c, 0, 83, 59
2, 163150, Note_on_c, 0, 76, 55
2, 163155, Note_on_c, 0, 49, 58
2, 163162, Note_on_c, 0, 82, 0
2, 163183, Note_on_c, 0, 83, 0
2, 163183, Note_on_c, 0, 76, 0
2, 163188, Note_on_c, 0, 49, 0
2, 163228, Note_on_c, 0, 51, 61
2, 163264, Note_on_c, 0, 51, 0
2, 163285, Note_on_c, 0, 78, 66
2, 163299, Note_on_c, 0, 71, 63
2, 163301, Note_on_c, 0, 79, 61
2, 163303, Note_on_c, 0, 52, 65
2, 163317, Note_on_c, 0, 78, 0
2, 163334, Note_on_c, 0, 79, 0
2, 163338, Note_on_c, 0, 52, 0
2, 163343, Note_on_c, 0, 71, 0
2, 163376, Note_on_c, 0, 54, 65
2, 163416, Note_on_c, 0, 54, 0
2, 163447, Note_on_c, 0, 75, 48
2, 163452, Note_on_c, 0, 71, 47
2, 163452, Note_on_c, 0, 76, 47
2, 163458, Note_on_c, 0, 55, 68
2, 163475, Note_on_c, 0, 75, 0
2, 163489, Note_on_c, 0, 71, 0
2, 163494, Note_on_c, 0, 55, 0
2, 163496, Note_on_c, 0, 76, 0
2, 163538, Note_on_c, 0, 56, 69
2, 163569, Note_on_c, 0, 56, 0
2, 163601, Note_on_c, 0, 71, 47
2, 163608, Note_on_c, 0, 64, 46
2, 163610, Note_on_c, 0, 72, 47
2, 163617, Note_on_c, 0, 57, 72
2, 163631, Note_on_c, 0, 71, 0
2, 163657, Note_on_c, 0, 57, 0
2, 163659, Note_on_c, 0, 72, 0
2, 163669, Note_on_c, 0, 64, 0
2, 163696, Note_on_c, 0, 59, 73
2, 163724, Note_on_c, 0, 59, 0
2, 163767, Note_on_c, 0, 68, 48
2, 163776, Note_on_c, 0, 60, 73
2, 163776, Note_on_c, 0, 64, 46
2, 163776, Note_on_c, 0, 69, 46
2, 163795, Note_on_c, 0, 68, 0
2, 163812, Note_on_c, 0, 60, 0
2, 163812, Note_on_c, 0, 64, 0
2, 163821, Note_on_c, 0, 69, 0
2, 163857, Note_on_c, 0, 59, 78
2, 163892, Note_on_c, 0, 59, 0
2, 163918, Note_on_c, 0, 71, 84
2, 163933, Note_on_c, 0, 57, 80
2, 163933, Note_on_c, 0, 66, 81
2, 163933, Note_on_c, 0, 72, 81
2, 163944, Note_on_c, 0, 71, 0
2, 163968, Note_on_c, 0, 57, 0
2, 163975, Note_on_c, 0, 66, 0
2, 163975, Note_on_c, 0, 72, 0
2, 164008, Note_on_c, 0, 55, 80
2, 164048, Note_on_c, 0, 55, 0
2, 164069, Note_on_c, 0, 75, 81
2, 164083, Note_on_c, 0, 54, 82
2, 164085, Note_on_c, 0, 76, 84
2, 164090, Note_on_c, 0, 72, 85
2, 164106, Note_on_c, 0, 75, 0
2, 164121, Note_on_c, 0, 72, 0
2, 164123, Note_on_c, 0, 54, 0
2, 164132, Note_on_c, 0, 76, 0
2, 164158, Note_on_c, 0, 52, 86
2, 164196, Note_on_c, 0, 52, 0
2, 164224, Note_on_c, 0, 77, 89
2, 164243, Note_on_c, 0, 71, 92
2, 164243, Note_on_c, 0, 78, 94
2, 164245, Note_on_c, 0, 51, 87
2, 164261, Note_on_c, 0, 77, 0
2, 164277, Note_on_c, 0, 71, 0
2, 164277, Note_on_c, 0, 78, 0
2, 164287, Note_on_c, 0, 51, 0
2, 164318, Note_on_c, 0, 49, 92
2, 164353, Note_on_c, 0, 49, 0
2, 164379, Note_on_c, 0, 82, 114
2, 164384, Control_c, 0, 64, 127
2, 164389, Note_on_c, 0, 75, 113
2, 164389, Note_on_c, 0, 78, 113
2, 164389, Note_on_c, 0, 83, 114
2, 164398, Note_on_c, 0, 47, 98
2, 164408, Note_on_c, 0, 82, 0
2, 164422, Note_on_c, 0, 75, 0
2, 164422, Note_on_c, 0, 78, 0
2, 164424, Note_on_c, 0, 83, 0
2, 164440, Note_on_c, 0, 47, 0
2, 164497, Control_c, 0, 64, 0
2, 164556, Note_on_c, 0, 63, 84
2, 164556, Note_on_c, 0, 71, 113
2, 164562, Note_on_c, 0, 59, 96
2, 164567, Note_on_c, 0, 54, 97
2, 164588, Note_on_c, 0, 63, 0
2, 164590, Note_on_c, 0, 71, 0
2, 164595, Note_on_c, 0, 59, 0
2, 164602, Note_on_c, 0, 54, 0
2, 164728, Note_on_c, 0, 63, 89
2, 164728, Note_on_c, 0, 71, 70
2, 164730, Note_on_c, 0, 54, 69
2, 164730, Note_on_c, 0, 59, 69
2, 164750, Note_on_c, 0, 59, 0
2, 164750, Note_on_c, 0, 63, 0
2, 164750, Note_on_c, 0, 71, 0
2, 164750, Note_on_c, 0, 54, 0
2, 164774, Note_on_c, 0, 71, 69
2, 164776, Note_on_c, 0, 63, 69
2, 164777, Note_on_c, 0, 59, 69
2, 164784, Note_on_c, 0, 54, 69
2, 164796, Note_on_c, 0, 54, 0
2, 164796, Note_on_c, 0, 71, 0
2, 164796, Note_on_c, 0, 63, 0
2, 164796, Note_on_c, 0, 59, 0
2, 164820, Note_on_c, 0, 71, 69
2, 164822, Note_on_c, 0, 63, 69
2, 164824, Note_on_c, 0, 54, 69
2, 164824, Note_on_c, 0, 59, 69
2, 164849, Note_on_c, 0, 63, 0
2, 164851, Note_on_c, 0, 59, 0
2, 164856, Note_on_c, 0, 71, 0
2, 164858, Note_on_c, 0, 54, 0
2, 164865, Note_on_c, 0, 64, 77
2, 164865, Note_on_c, 0, 67, 78
2, 164867, Note_on_c, 0, 52, 71
2, 164876, Note_on_c, 0, 59, 72
2, 164900, Note_on_c, 0, 67, 0
2, 164900, Note_on_c, 0, 64, 0
2, 164902, Note_on_c, 0, 59, 0
2, 164921, Note_on_c, 0, 52, 0
2, 165035, Note_on_c, 0, 48, 72
2, 165035, Note_on_c, 0, 55, 112
2, 165035, Note_on_c, 0, 57, 111
2, 165035, Note_on_c, 0, 64, 112
2, 165072, Note_on_c, 0, 57, 0
2, 165074, Note_on_c, 0, 48, 0
2, 165074, Note_on_c, 0, 55, 0
2, 165081, Note_on_c, 0, 64, 0
2, 165220, Note_on_c, 0, 52, 103
2, 165220, Note_on_c, 0, 55, 112
2, 165220, Note_on_c, 0, 60, 111
2, 165225, Note_on_c, 0, 45, 112
2, 165249, Note_on_c, 0, 60, 0
2, 165260, Note_on_c, 0, 52, 0
2, 165260, Note_on_c, 0, 55, 0
2, 165260, Note_on_c, 0, 45, 0
2, 165387, Note_on_c, 0, 48, 106
2, 165387, Note_on_c, 0, 57, 112
2, 165389, Note_on_c, 0, 42, 111
2, 165389, Note_on_c, 0, 52, 112
2, 165426, Note_on_c, 0, 52, 0
2, 165436, Note_on_c, 0, 48, 0
2, 165438, Note_on_c, 0, 57, 0
2, 165452, Note_on_c, 0, 42, 0
2, 165514, Note_on_c, 0, 39, 100
2, 165523, Note_on_c, 0, 47, 88
2, 165549, Note_on_c, 0, 54, 86
2, 165561, Note_on_c, 0, 39, 0
2, 165568, Note_on_c, 0, 47, 0
2, 165584, Note_on_c, 0, 54, 0
2, 165610, Note_on_c, 0, 71, 74
2, 165610, Note_on_c, 0, 83, 74
2, 165647, Note_on_c, 0, 71, 0
2, 165649, Note_on_c, 0, 83, 0
2, 165691, Note_on_c, 0, 34, 70
2, 165691, Note_on_c, 0, 70, 67
2, 165691, Note_on_c, 0, 75, 66
2, 165691, Note_on_c, 0, 82, 67
2, 165698, Note_on_c, 0, 35, 68
2, 165717, Note_on_c, 0, 34, 0
2, 165727, Note_on_c, 0, 82, 0
2, 165727, Note_on_c, 0, 70, 0
2, 165727, Note_on_c, 0, 75, 0
2, 165734, Note_on_c, 0, 35, 0
2, 165766, Note_on_c, 0, 81, 68
2, 165771, Note_on_c, 0, 69, 66
2, 165804, Note_on_c, 0, 69, 0
2, 165806, Note_on_c, 0, 81, 0
2, 165838, Note_on_c, 0, 39, 67
2, 165845, Note_on_c, 0, 67, 68
2, 165845, Note_on_c, 0, 71, 70
2, 165845, Note_on_c, 0, 79, 69
2, 165850, Note_on_c, 0, 40, 68
2, 165866, Note_on_c, 0, 39, 0
2, 165880, Note_on_c, 0, 79, 0
2, 165880, Note_on_c, 0, 67, 0
2, 165880, Note_on_c, 0, 71, 0
2, 165885, Note_on_c, 0, 40, 0
2, 165928, Note_on_c, 0, 66, 69
2, 165928, Note_on_c, 0, 78, 70
2, 165953, Note_on_c, 0, 78, 0
2, 165955, Note_on_c, 0, 66, 0
2, 165993, Note_on_c, 0, 42, 69
2, 166002, Note_on_c, 0, 67, 69
2, 166002, Note_on_c, 0, 76, 70
2, 166007, Note_on_c, 0, 43, 69
2, 166007, Note_on_c, 0, 64, 69
2, 166022, Note_on_c, 0, 42, 0
2, 166031, Note_on_c, 0, 67, 0
2, 166043, Note_on_c, 0, 76, 0
2, 166048, Note_on_c, 0, 43, 0
2, 166049, Note_on_c, 0, 64, 0
2, 166080, Note_on_c, 0, 74, 70
2, 166082, Note_on_c, 0, 62, 69
2, 166110, Note_on_c, 0, 74, 0
2, 166112, Note_on_c, 0, 62, 0
2, 166135, Note_on_c, 0, 44, 69
2, 166154, Note_on_c, 0, 45, 69
2, 166154, Note_on_c, 0, 64, 73
2, 166156, Note_on_c, 0, 60, 69
2, 166156, Note_on_c, 0, 72, 75
2, 166163, Note_on_c, 0, 44, 0
2, 166179, Note_on_c, 0, 45, 0
2, 166186, Note_on_c, 0, 60, 0
2, 166188, Note_on_c, 0, 72, 0
2, 166190, Note_on_c, 0, 64, 0
2, 166230, Note_on_c, 0, 71, 73
2, 166232, Note_on_c, 0, 59, 71
2, 166260, Note_on_c, 0, 59, 0
2, 166264, Note_on_c, 0, 71, 0
2, 166288, Note_on_c, 0, 47, 73
2, 166297, Note_on_c, 0, 64, 76
2, 166297, Note_on_c, 0, 69, 78
2, 166302, Note_on_c, 0, 48, 73
2, 166302, Note_on_c, 0, 57, 73
2, 166323, Note_on_c, 0, 47, 0
2, 166335, Note_on_c, 0, 69, 0
2, 166339, Note_on_c, 0, 57, 0
2, 166339, Note_on_c, 0, 48, 0
2, 166354, Note_on_c, 0, 64, 0
2, 166375, Note_on_c, 0, 67, 76
2, 166380, Note_on_c, 0, 55, 73
2, 166417, Note_on_c, 0, 55, 0
2, 166417, Note_on_c, 0, 67, 0
2, 166443, Note_on_c, 0, 73, 74
2, 166455, Note_on_c, 0, 74, 77
2, 166456, Note_on_c, 0, 62, 73
2, 166456, Note_on_c, 0, 66, 77
2, 166458, Note_on_c, 0, 57, 73
2, 166460, Note_on_c, 0, 50, 73
2, 166477, Note_on_c, 0, 73, 0
2, 166483, Note_on_c, 0, 74, 0
2, 166485, Note_on_c, 0, 57, 0
2, 166497, Note_on_c, 0, 62, 0
2, 166497, Note_on_c, 0, 50, 0
2, 166504, Note_on_c, 0, 66, 0
2, 166541, Note_on_c, 0, 64, 81
2, 166546, Note_on_c, 0, 52, 83
2, 166572, Note_on_c, 0, 64, 0
2, 166576, Note_on_c, 0, 52, 0
2, 166612, Note_on_c, 0, 77, 80
2, 166622, Note_on_c, 0, 62, 80
2, 166624, Note_on_c, 0, 50, 82
2, 166630, Note_on_c, 0, 69, 83
2, 166630, Note_on_c, 0, 78, 84
2, 166640, Note_on_c, 0, 77, 0
2, 166659, Note_on_c, 0, 62, 0
2, 166661, Note_on_c, 0, 50, 0
2, 166663, Note_on_c, 0, 69, 0
2, 166665, Note_on_c, 0, 78, 0
2, 166700, Note_on_c, 0, 60, 82
2, 166702, Note_on_c, 0, 48, 85
2, 166730, Note_on_c, 0, 48, 0
2, 166735, Note_on_c, 0, 60, 0
2, 166761, Note_on_c, 0, 85, 83
2, 166777, Note_on_c, 0, 86, 83
2, 166779, Note_on_c, 0, 78, 81
2, 166791, Note_on_c, 0, 59, 88
2, 166792, Note_on_c, 0, 47, 89
2, 166797, Note_on_c, 0, 85, 0
2, 166809, Note_on_c, 0, 86, 0
2, 166814, Note_on_c, 0, 78, 0
2, 166825, Note_on_c, 0, 59, 0
2, 166827, Note_on_c, 0, 47, 0
2, 166858, Note_on_c, 0, 57, 84
2, 166864, Note_on_c, 0, 45, 79
2, 166895, Note_on_c, 0, 45, 0
2, 166895, Note_on_c, 0, 57, 0
2, 166936, Note_on_c, 0, 60, 79
2, 166936, Note_on_c, 0, 62, 80
2, 166937, Note_on_c, 0, 43, 79
2, 166937, Note_on_c, 0, 55, 80
2, 166937, Note_on_c, 0, 57, 79
2, 166957, Note_on_c, 0, 57, 0
2, 166959, Note_on_c, 0, 60, 0
2, 166959, Note_on_c, 0, 62, 0
2, 166965, Note_on_c, 0, 43, 0
2, 166972, Note_on_c, 0, 55, 0
2, 166982, Note_on_c, 0, 57, 80
2, 166982, Note_on_c, 0, 60, 80
2, 166982, Note_on_c, 0, 62, 79
2, 167003, Note_on_c, 0, 62, 0
2, 167003, Note_on_c, 0, 60, 0
2, 167003, Note_on_c, 0, 57, 0
2, 167019, Note_on_c, 0, 54, 80
2, 167026, Note_on_c, 0, 42, 80
2, 167028, Note_on_c, 0, 57, 80
2, 167028, Note_on_c, 0, 60, 80
2, 167028, Note_on_c, 0, 62, 79
2, 167056, Note_on_c, 0, 60, 0
2, 167056, Note_on_c, 0, 54, 0
2, 167057, Note_on_c, 0, 42, 0
2, 167059, Note_on_c, 0, 62, 0
2, 167064, Note_on_c, 0, 57, 0
2, 167095, Note_on_c, 0, 55, 79
2, 167095, Note_on_c, 0, 62, 82
2, 167095, Note_on_c, 0, 67, 47
2, 167095, Note_on_c, 0, 71, 47
2, 167095, Note_on_c, 0, 74, 46
2, 167106, Note_on_c, 0, 59, 84
2, 167168, Note_on_c, 0, 67, 0
2, 167170, Note_on_c, 0, 74, 0
2, 167170, Note_on_c, 0, 71, 0
2, 167170, Note_on_c, 0, 62, 0
2, 167172, Note_on_c, 0, 55, 0
2, 167172, Note_on_c, 0, 59, 0
2, 167266, Note_on_c, 0, 55, 83
2, 167266, Note_on_c, 0, 62, 69
2, 167266, Note_on_c, 0, 67, 69
2, 167266, Note_on_c, 0, 71, 69
2, 167266, Note_on_c, 0, 74, 70
2, 167268, Note_on_c, 0, 59, 68
2, 167287, Note_on_c, 0, 59, 0
2, 167287, Note_on_c, 0, 62, 0
2, 167287, Note_on_c, 0, 67, 0
2, 167287, Note_on_c, 0, 71, 0
2, 167289, Note_on_c, 0, 55, 0
2, 167291, Note_on_c, 0, 74, 0
2, 167310, Note_on_c, 0, 74, 66
2, 167312, Note_on_c, 0, 55, 65
2, 167312, Note_on_c, 0, 59, 65
2, 167312, Note_on_c, 0, 62, 64
2, 167312, Note_on_c, 0, 67, 65
2, 167312, Note_on_c, 0, 71, 65
2, 167331, Note_on_c, 0, 71, 0
2, 167331, Note_on_c, 0, 62, 0
2, 167331, Note_on_c, 0, 55, 0
2, 167331, Note_on_c, 0, 74, 0
2, 167331, Note_on_c, 0, 67, 0
2, 167333, Note_on_c, 0, 59, 0
2, 167354, Note_on_c, 0, 67, 65
2, 167354, Note_on_c, 0, 74, 66
2, 167356, Note_on_c, 0, 55, 65
2, 167356, Note_on_c, 0, 62, 65
2, 167356, Note_on_c, 0, 71, 66
2, 167358, Note_on_c, 0, 59, 64
2, 167381, Note_on_c, 0, 67, 0
2, 167383, Note_on_c, 0, 71, 0
2, 167383, Note_on_c, 0, 62, 0
2, 167383, Note_on_c, 0, 74, 0
2, 167383, Note_on_c, 0, 55, 0
2, 167385, Note_on_c, 0, 59, 0
2, 167406, Note_on_c, 0, 76, 63
2, 167408, Note_on_c, 0, 71, 61
2, 167410, Note_on_c, 0, 52, 65
2, 167410, Note_on_c, 0, 55, 65
2, 167410, Note_on_c, 0, 59, 64
2, 167410, Note_on_c, 0, 64, 59
2, 167410, Note_on_c, 0, 67, 58
2, 167440, Note_on_c, 0, 59, 0
2, 167442, Note_on_c, 0, 67, 0
2, 167444, Note_on_c, 0, 71, 0
2, 167444, Note_on_c, 0, 64, 0
2, 167449, Note_on_c, 0, 52, 0
2, 167449, Note_on_c, 0, 55, 0
2, 167451, Note_on_c, 0, 76, 0
2, 167589, Note_on_c, 0, 52, 65
2, 167589, Note_on_c, 0, 55, 65
2, 167589, Note_on_c, 0, 59, 64
2, 167589, Note_on_c, 0, 64, 46
2, 167589, Note_on_c, 0, 67, 45
2, 167589, Note_on_c, 0, 71, 47
2, 167589, Note_on_c, 0, 76, 46
2, 167622, Note_on_c, 0, 67, 0
2, 167624, Note_on_c, 0, 71, 0
2, 167624, Note_on_c, 0, 64, 0
2, 167624, Note_on_c, 0, 59, 0
2, 167624, Note_on_c, 0, 76, 0
2, 167629, Note_on_c, 0, 52, 0
2, 167629, Note_on_c, 0, 55, 0
2, 167725, Note_on_c, 0, 47, 64
2, 167746, Note_on_c, 0, 54, 65
2, 167751, Note_on_c, 0, 62, 65
2, 167751, Note_on_c, 0, 71, 67
2, 167751, Note_on_c, 0, 78, 66
2, 167752, Note_on_c, 0, 66, 66
2, 167762, Note_on_c, 0, 47, 0
2, 167778, Note_on_c, 0, 54, 0
2, 167788, Note_on_c, 0, 71, 0
2, 167788, Note_on_c, 0, 66, 0
2, 167790, Note_on_c, 0, 78, 0
2, 167804, Note_on_c, 0, 62, 0
2, 167921, Note_on_c, 0, 71, 66
2, 167921, Note_on_c, 0, 74, 66
2, 167923, Note_on_c, 0, 67, 64
2, 167925, Note_on_c, 0, 62, 65
2, 167927, Note_on_c, 0, 55, 65
2, 167927, Note_on_c, 0, 59, 65
2, 167950, Note_on_c, 0, 67, 0
2, 167950, Note_on_c, 0, 71, 0
2, 167950, Note_on_c, 0, 74, 0
2, 167952, Note_on_c, 0, 62, 0
2, 167952, Note_on_c, 0, 55, 0
2, 167954, Note_on_c, 0, 59, 0
2, 168095, Note_on_c, 0, 76, 67
2, 168097, Note_on_c, 0, 71, 113
2, 168099, Note_on_c, 0, 55, 111
2, 168099, Note_on_c, 0, 64, 112
2, 168099, Note_on_c, 0, 67, 111
2, 168101, Note_on_c, 0, 52, 112
2, 168101, Note_on_c, 0, 59, 112
2, 168307, Note_on_c, 0, 67, 0
2, 168307, Note_on_c, 0, 71, 0
2, 168307, Note_on_c, 0, 76, 0
2, 168312, Note_on_c, 0, 52, 0
2, 168312, Note_on_c, 0, 64, 0
2, 168312, Note_on_c, 0, 59, 0
2, 168312, Note_on_c, 0, 55, 0
2, 168335, Control_c, 0, 67, 127
2, 168426, Note_on_c, 0, 62, 66
2, 168426, Note_on_c, 0, 71, 64
2, 168426, Note_on_c, 0, 74, 63
2, 168428, Note_on_c, 0, 55, 58
2, 168428, Note_on_c, 0, 59, 58
2, 168428, Note_on_c, 0, 67, 63
2, 168492, Note_on_c, 0, 74, 0
2, 168498, Note_on_c, 0, 67, 0
2, 168500, Note_on_c, 0, 62, 0
2, 168507, Note_on_c, 0, 71, 0
2, 168507, Note_on_c, 0, 55, 0
2, 168507, Note_on_c, 0, 59, 0
2, 168589, Note_on_c, 0, 55, 57
2, 168589, Note_on_c, 0, 62, 58
2, 168589, Note_on_c, 0, 67, 63
2, 168589, Note_on_c, 0, 71, 63
2, 168589, Note_on_c, 0, 74, 64
2, 168591, Note_on_c, 0, 59, 57
2, 168602, Note_on_c, 0, 67, 0
2, 168607, Note_on_c, 0, 74, 0
2, 168607, Note_on_c, 0, 71, 0
2, 168607, Note_on_c, 0, 62, 0
2, 168609, Note_on_c, 0, 59, 0
2, 168611, Note_on_c, 0, 55, 0
2, 168625, Note_on_c, 0, 71, 62
2, 168627, Note_on_c, 0, 67, 62
2, 168627, Note_on_c, 0, 74, 64
2, 168629, Note_on_c, 0, 62, 58
2, 168634, Note_on_c, 0, 55, 58
2, 168634, Note_on_c, 0, 59, 58
2, 168648, Note_on_c, 0, 74, 0
2, 168648, Note_on_c, 0, 71, 0
2, 168648, Note_on_c, 0, 67, 0
2, 168650, Note_on_c, 0, 62, 0
2, 168652, Note_on_c, 0, 55, 0
2, 168652, Note_on_c, 0, 59, 0
2, 168673, Note_on_c, 0, 71, 62
2, 168675, Note_on_c, 0, 62, 58
2, 168675, Note_on_c, 0, 74, 63
2, 168677, Note_on_c, 0, 55, 58
2, 168677, Note_on_c, 0, 59, 58
2, 168677, Note_on_c, 0, 67, 63
2, 168696, Note_on_c, 0, 67, 0
2, 168698, Note_on_c, 0, 55, 0
2, 168698, Note_on_c, 0, 71, 0
2, 168698, Note_on_c, 0, 59, 0
2, 168710, Note_on_c, 0, 62, 0
2, 168710, Note_on_c, 0, 74, 0
2, 168719, Note_on_c, 0, 76, 64
2, 168721, Note_on_c, 0, 64, 63
2, 168721, Note_on_c, 0, 67, 63
2, 168721, Note_on_c, 0, 71, 63
2, 168723, Note_on_c, 0, 52, 60
2, 168723, Note_on_c, 0, 55, 61
2, 168723, Note_on_c, 0, 59, 62
2, 168754, Note_on_c, 0, 67, 0
2, 168756, Note_on_c, 0, 71, 0
2, 168756, Note_on_c, 0, 76, 0
2, 168756, Note_on_c, 0, 55, 0
2, 168758, Note_on_c, 0, 64, 0
2, 168758, Note_on_c, 0, 52, 0
2, 168758, Note_on_c, 0, 59, 0
2, 168891, Note_on_c, 0, 55, 60
2, 168891, Note_on_c, 0, 64, 63
2, 168891, Note_on_c, 0, 67, 62
2, 168891, Note_on_c, 0, 71, 64
2, 168891, Note_on_c, 0, 76, 63
2, 168893, Note_on_c, 0, 59, 63
2, 168898, Note_on_c, 0, 52, 63
2, 168926, Note_on_c, 0, 55, 0
2, 168928, Note_on_c, 0, 76, 0
2, 168928, Note_on_c, 0, 67, 0
2, 168928, Note_on_c, 0, 71, 0
2, 168928, Note_on_c, 0, 64, 0
2, 168928, Note_on_c, 0, 59, 0
2, 168932, Note_on_c, 0, 52, 0
2, 169012, Note_on_c, 0, 47, 58
2, 169033, Note_on_c, 0, 54, 58
2, 169043, Note_on_c, 0, 66, 63
2, 169045, Note_on_c, 0, 62, 58
2, 169045, Note_on_c, 0, 71, 64
2, 169045, Note_on_c, 0, 78, 63
2, 169049, Note_on_c, 0, 47, 0
2, 169069, Note_on_c, 0, 54, 0
2, 169083, Note_on_c, 0, 71, 0
2, 169083, Note_on_c, 0, 62, 0
2, 169083, Note_on_c, 0, 78, 0
2, 169085, Note_on_c, 0, 66, 0
2, 169212, Note_on_c, 0, 71, 60
2, 169214, Note_on_c, 0, 55, 58
2, 169214, Note_on_c, 0, 62, 58
2, 169214, Note_on_c, 0, 74, 64
2, 169216, Note_on_c, 0, 59, 57
2, 169216, Note_on_c, 0, 67, 63
2, 169239, Note_on_c, 0, 67, 0
2, 169240, Note_on_c, 0, 62, 0
2, 169240, Note_on_c, 0, 74, 0
2, 169242, Note_on_c, 0, 55, 0
2, 169242, Note_on_c, 0, 59, 0
2, 169247, Note_on_c, 0, 71, 0
2, 169287, Control_c, 0, 67, 0
2, 169378, Note_on_c, 0, 76, 67
2, 169380, Note_on_c, 0, 71, 113
2, 169382, Note_on_c, 0, 64, 112
2, 169382, Note_on_c, 0, 67, 112
2, 169388, Note_on_c, 0, 55, 65
2, 169388, Note_on_c, 0, 59, 65
2, 169395, Note_on_c, 0, 52, 64
2, 169491, Control_c, 0, 64, 127
2, 169554, Note_on_c, 0, 59, 0
2, 169554, Note_on_c, 0, 64, 0
2, 169559, Note_on_c, 0, 67, 0
2, 169561, Note_on_c, 0, 76, 0
2, 169561, Note_on_c, 0, 71, 0
2, 169566, Note_on_c, 0, 52, 0
2, 169566, Note_on_c, 0, 55, 0
2, 169693, Note_on_c, 0, 64, 65
2, 169716, Note_on_c, 0, 72, 66
2, 169718, Note_on_c, 0, 45, 65
2, 169720, Note_on_c, 0, 33, 65
2, 169729, Control_c, 0, 64, 0
2, 169745, Note_on_c, 0, 45, 0
2, 169767, Note_on_c, 0, 33, 0
2, 169797, Note_on_c, 0, 72, 0
2, 169797, Note_on_c, 0, 32, 65
2, 169797, Note_on_c, 0, 44, 65
2, 169835, Note_on_c, 0, 44, 0
2, 169837, Note_on_c, 0, 32, 0
2, 169856, Note_on_c, 0, 74, 66
2, 169870, Note_on_c, 0, 72, 66
2, 169882, Note_on_c, 0, 45, 65
2, 169884, Note_on_c, 0, 33, 65
2, 169890, Note_on_c, 0, 74, 0
2, 169918, Note_on_c, 0, 45, 0
2, 169933, Note_on_c, 0, 33, 0
2, 169959, Note_on_c, 0, 47, 65
2, 169960, Note_on_c, 0, 72, 0
2, 169962, Note_on_c, 0, 35, 65
2, 169990, Note_on_c, 0, 47, 0
2, 169995, Note_on_c, 0, 35, 0
2, 170007, Note_on_c, 0, 71, 66
2, 170023, Note_on_c, 0, 69, 63
2, 170034, Note_on_c, 0, 36, 65
2, 170034, Note_on_c, 0, 48, 65
2, 170041, Note_on_c, 0, 71, 0
2, 170072, Note_on_c, 0, 36, 0
2, 170072, Note_on_c, 0, 48, 0
2, 170114, Note_on_c, 0, 49, 64
2, 170116, Note_on_c, 0, 64, 0
2, 170116, Note_on_c, 0, 37, 65
2, 170123, Note_on_c, 0, 69, 0
2, 170149, Note_on_c, 0, 37, 0
2, 170149, Note_on_c, 0, 49, 0
2, 170155, Note_on_c, 0, 67, 65
2, 170176, Note_on_c, 0, 66, 63
2, 170178, Note_on_c, 0, 57, 65
2, 170190, Note_on_c, 0, 50, 65
2, 170192, Note_on_c, 0, 67, 0
2, 170192, Note_on_c, 0, 38, 65
2, 170215, Note_on_c, 0, 57, 0
2, 170222, Note_on_c, 0, 50, 0
2, 170226, Note_on_c, 0, 38, 0
2, 170228, Note_on_c, 0, 66, 0
2, 170266, Note_on_c, 0, 36, 65
2, 170266, Note_on_c, 0, 48, 65
2, 170301, Note_on_c, 0, 48, 0
2, 170306, Note_on_c, 0, 36, 0
2, 170316, Note_on_c, 0, 69, 66
2, 170339, Note_on_c, 0, 74, 66
2, 170341, Note_on_c, 0, 66, 66
2, 170343, Note_on_c, 0, 47, 65
2, 170347, Note_on_c, 0, 35, 65
2, 170375, Note_on_c, 0, 35, 0
2, 170377, Note_on_c, 0, 69, 0
2, 170382, Note_on_c, 0, 47, 0
2, 170413, Note_on_c, 0, 74, 0
2, 170422, Note_on_c, 0, 46, 65
2, 170424, Note_on_c, 0, 34, 65
2, 170457, Note_on_c, 0, 46, 0
2, 170471, Note_on_c, 0, 34, 0
2, 170483, Note_on_c, 0, 76, 66
2, 170501, Note_on_c, 0, 47, 65
2, 170503, Note_on_c, 0, 74, 67
2, 170512, Note_on_c, 0, 35, 65
2, 170527, Note_on_c, 0, 76, 0
2, 170543, Note_on_c, 0, 47, 0
2, 170548, Note_on_c, 0, 35, 0
2, 170566, Note_on_c, 0, 74, 0
2, 170581, Note_on_c, 0, 36, 65
2, 170581, Note_on_c, 0, 48, 65
2, 170618, Note_on_c, 0, 36, 0
2, 170623, Note_on_c, 0, 48, 0
2, 170628, Note_on_c, 0, 72, 69
2, 170644, Note_on_c, 0, 71, 71
2, 170654, Note_on_c, 0, 50, 68
2, 170658, Note_on_c, 0, 38, 69
2, 170663, Note_on_c, 0, 72, 0
2, 170696, Note_on_c, 0, 50, 0
2, 170701, Note_on_c, 0, 38, 0
2, 170733, Note_on_c, 0, 51, 69
2, 170735, Note_on_c, 0, 71, 0
2, 170735, Note_on_c, 0, 39, 69
2, 170742, Note_on_c, 0, 66, 0
2, 170768, Note_on_c, 0, 51, 0
2, 170777, Note_on_c, 0, 39, 0
2, 170782, Note_on_c, 0, 69, 70
2, 170799, Note_on_c, 0, 67, 71
2, 170808, Note_on_c, 0, 52, 69
2, 170808, Note_on_c, 0, 59, 69
2, 170810, Note_on_c, 0, 40, 68
2, 170838, Note_on_c, 0, 69, 0
2, 170843, Note_on_c, 0, 52, 0
2, 170849, Note_on_c, 0, 59, 0
2, 170851, Note_on_c, 0, 40, 0
2, 170870, Note_on_c, 0, 67, 0
2, 170881, Note_on_c, 0, 50, 69
2, 170888, Note_on_c, 0, 38, 69
2, 170920, Note_on_c, 0, 50, 0
2, 170925, Note_on_c, 0, 71, 70
2, 170927, Note_on_c, 0, 38, 0
2, 170945, Note_on_c, 0, 76, 72
2, 170947, Note_on_c, 0, 67, 73
2, 170957, Note_on_c, 0, 36, 72
2, 170957, Note_on_c, 0, 48, 73
2, 170973, Note_on_c, 0, 71, 0
2, 170992, Note_on_c, 0, 48, 0
2, 171008, Note_on_c, 0, 36, 0
2, 171031, Note_on_c, 0, 47, 73
2, 171036, Note_on_c, 0, 35, 73
2, 171040, Note_on_c, 0, 76, 0
2, 171066, Note_on_c, 0, 67, 0
2, 171071, Note_on_c, 0, 47, 0
2, 171071, Note_on_c, 0, 35, 0
2, 171083, Note_on_c, 0, 74, 74
2, 171101, Note_on_c, 0, 69, 76
2, 171101, Note_on_c, 0, 72, 78
2, 171108, Note_on_c, 0, 45, 73
2, 171110, Note_on_c, 0, 33, 73
2, 171116, Note_on_c, 0, 74, 0
2, 171147, Note_on_c, 0, 45, 0
2, 171147, Note_on_c, 0, 33, 0
2, 171157, Note_on_c, 0, 72, 0
2, 171187, Note_on_c, 0, 36, 73
2, 171187, Note_on_c, 0, 48, 73
2, 171223, Note_on_c, 0, 48, 0
2, 171232, Note_on_c, 0, 36, 0
2, 171232, Note_on_c, 0, 76, 74
2, 171258, Note_on_c, 0, 78, 76
2, 171263, Note_on_c, 0, 50, 77
2, 171268, Note_on_c, 0, 38, 79
2, 171296, Note_on_c, 0, 76, 0
2, 171298, Note_on_c, 0, 50, 0
2, 171298, Note_on_c, 0, 38, 0
2, 171335, Note_on_c, 0, 40, 84
2, 171335, Note_on_c, 0, 52, 85
2, 171347, Note_on_c, 0, 78, 0
2, 171347, Note_on_c, 0, 69, 0
2, 171373, Note_on_c, 0, 40, 0
2, 171373, Note_on_c, 0, 52, 0
2, 171382, Note_on_c, 0, 76, 83
2, 171400, Note_on_c, 0, 74, 85
2, 171410, Note_on_c, 0, 54, 81
2, 171412, Note_on_c, 0, 42, 80
2, 171419, Note_on_c, 0, 76, 0
2, 171445, Note_on_c, 0, 54, 0
2, 171447, Note_on_c, 0, 42, 0
2, 171479, Note_on_c, 0, 50, 80
2, 171484, Note_on_c, 0, 74, 0
2, 171484, Note_on_c, 0, 38, 80
2, 171517, Note_on_c, 0, 50, 0
2, 171521, Note_on_c, 0, 38, 0
2, 171531, Note_on_c, 0, 78, 81
2, 171547, Note_on_c, 0, 79, 83
2, 171554, Note_on_c, 0, 74, 85
2, 171559, Note_on_c, 0, 35, 80
2, 171559, Note_on_c, 0, 47, 80
2, 171570, Note_on_c, 0, 78, 0
2, 171593, Note_on_c, 0, 35, 0
2, 171595, Note_on_c, 0, 47, 0
2, 171631, Note_on_c, 0, 74, 0
2, 171631, Note_on_c, 0, 79, 0
2, 171633, Note_on_c, 0, 47, 80
2, 171635, Note_on_c, 0, 59, 80
2, 171663, Note_on_c, 0, 59, 0
2, 171674, Note_on_c, 0, 47, 0
2, 171681, Note_on_c, 0, 78, 81
2, 171702, Note_on_c, 0, 57, 80
2, 171702, Note_on_c, 0, 72, 84
2, 171702, Note_on_c, 0, 76, 85
2, 171704, Note_on_c, 0, 45, 80
2, 171720, Note_on_c, 0, 78, 0
2, 171730, Note_on_c, 0, 57, 0
2, 171735, Note_on_c, 0, 45, 0
2, 171758, Note_on_c, 0, 72, 0
2, 171779, Note_on_c, 0, 76, 0
2, 171784, Note_on_c, 0, 50, 80
2, 171785, Note_on_c, 0, 38, 80
2, 171811, Note_on_c, 0, 38, 0
2, 171811, Note_on_c, 0, 50, 0
2, 171826, Note_on_c, 0, 78, 81
2, 171849, Note_on_c, 0, 71, 84
2, 171849, Note_on_c, 0, 79, 86
2, 171858, Note_on_c, 0, 55, 79
2, 171860, Note_on_c, 0, 43, 78
2, 171865, Note_on_c, 0, 78, 0
2, 171886, Note_on_c, 0, 71, 0
2, 171901, Note_on_c, 0, 43, 0
2, 171903, Note_on_c, 0, 79, 0
2, 171904, Note_on_c, 0, 55, 0
2, 171916, Control_c, 0, 64, 127
2, 171993, Note_on_c, 0, 100, 82
2, 172011, Note_on_c, 0, 102, 112
2, 172018, Note_on_c, 0, 95, 110
2, 172018, Note_on_c, 0, 103, 114
2, 172020, Note_on_c, 0, 67, 109
2, 172022, Note_on_c, 0, 59, 65
2, 172022, Note_on_c, 0, 62, 65
2, 172028, Note_on_c, 0, 100, 0
2, 172030, Note_on_c, 0, 55, 67
2, 172037, Note_on_c, 0, 102, 0
2, 172044, Note_on_c, 0, 95, 0
2, 172053, Note_on_c, 0, 67, 0
2, 172055, Note_on_c, 0, 62, 0
2, 172057, Note_on_c, 0, 103, 0
2, 172067, Note_on_c, 0, 59, 0
2, 172072, Note_on_c, 0, 55, 0
2, 172116, Control_c, 0, 64, 0
2, 172142, Control_c, 0, 67, 127
2, 172172, Note_on_c, 0, 91, 82
2, 172184, Note_on_c, 0, 52, 62
2, 172184, Note_on_c, 0, 64, 75
2, 172195, Note_on_c, 0, 55, 62
2, 172197, Note_on_c, 0, 91, 0
2, 172197, Note_on_c, 0, 59, 62
2, 172220, Note_on_c, 0, 52, 0
2, 172222, Note_on_c, 0, 91, 72
2, 172224, Note_on_c, 0, 59, 0
2, 172242, Note_on_c, 0, 55, 0
2, 172242, Note_on_c, 0, 91, 0
2, 172268, Note_on_c, 0, 91, 67
2, 172275, Note_on_c, 0, 52, 55
2, 172275, Note_on_c, 0, 55, 54
2, 172275, Note_on_c, 0, 59, 53
2, 172287, Note_on_c, 0, 91, 0
2, 172310, Note_on_c, 0, 55, 0
2, 172310, Note_on_c, 0, 59, 0
2, 172310, Note_on_c, 0, 52, 0
2, 172312, Note_on_c, 0, 91, 64
2, 172342, Note_on_c, 0, 91, 0
2, 172354, Note_on_c, 0, 90, 58
2, 172360, Note_on_c, 0, 55, 54
2, 172362, Note_on_c, 0, 52, 54
2, 172362, Note_on_c, 0, 59, 54
2, 172393, Note_on_c, 0, 88, 57
2, 172395, Note_on_c, 0, 59, 0
2, 172395, Note_on_c, 0, 52, 0
2, 172395, Note_on_c, 0, 55, 0
2, 172400, Note_on_c, 0, 90, 0
2, 172431, Note_on_c, 0, 86, 56
2, 172437, Note_on_c, 0, 52, 58
2, 172439, Note_on_c, 0, 59, 58
2, 172444, Note_on_c, 0, 88, 0
2, 172444, Note_on_c, 0, 55, 58
2, 172472, Note_on_c, 0, 84, 54
2, 172474, Note_on_c, 0, 59, 0
2, 172476, Note_on_c, 0, 55, 0
2, 172476, Note_on_c, 0, 52, 0
2, 172482, Note_on_c, 0, 86, 0
2, 172499, Note_on_c, 0, 84, 0
2, 172515, Note_on_c, 0, 83, 60
2, 172522, Note_on_c, 0, 52, 58
2, 172522, Note_on_c, 0, 55, 58
2, 172522, Note_on_c, 0, 59, 57
2, 172540, Note_on_c, 0, 83, 0
2, 172568, Note_on_c, 0, 59, 0
2, 172570, Note_on_c, 0, 55, 0
2, 172570, Note_on_c, 0, 52, 0
2, 172570, Note_on_c, 0, 83, 63
2, 172609, Note_on_c, 0, 52, 57
2, 172609, Note_on_c, 0, 59, 58
2, 172616, Note_on_c, 0, 55, 57
2, 172625, Note_on_c, 0, 83, 0
2, 172642, Note_on_c, 0, 83, 65
2, 172644, Note_on_c, 0, 59, 0
2, 172644, Note_on_c, 0, 55, 0
2, 172644, Note_on_c, 0, 64, 0
2, 172644, Note_on_c, 0, 52, 0
2, 172660, Note_on_c, 0, 83, 0
2, 172678, Note_on_c, 0, 56, 58
2, 172678, Note_on_c, 0, 59, 58
2, 172678, Note_on_c, 0, 62, 57
2, 172683, Note_on_c, 0, 52, 58
2, 172683, Note_on_c, 0, 83, 66
2, 172711, Note_on_c, 0, 83, 0
2, 172722, Note_on_c, 0, 84, 66
2, 172724, Note_on_c, 0, 62, 0
2, 172724, Note_on_c, 0, 56, 0
2, 172726, Note_on_c, 0, 59, 0
2, 172726, Note_on_c, 0, 52, 0
2, 172757, Note_on_c, 0, 62, 57
2, 172759, Note_on_c, 0, 84, 0
2, 172759, Note_on_c, 0, 52, 58
2, 172759, Note_on_c, 0, 56, 58
2, 172759, Note_on_c, 0, 59, 57
2, 172764, Note_on_c, 0, 83, 65
2, 172794, Note_on_c, 0, 56, 0
2, 172794, Note_on_c, 0, 62, 0
2, 172796, Note_on_c, 0, 52, 0
2, 172796, Note_on_c, 0, 59, 0
2, 172796, Note_on_c, 0, 84, 68
2, 172801, Note_on_c, 0, 83, 0
2, 172839, Note_on_c, 0, 81, 70
2, 172845, Note_on_c, 0, 61, 58
2, 172850, Note_on_c, 0, 84, 0
2, 172850, Note_on_c, 0, 52, 58
2, 172850, Note_on_c, 0, 57, 58
2, 172857, Note_on_c, 0, 81, 0
2, 172883, Note_on_c, 0, 81, 61
2, 172885, Note_on_c, 0, 57, 0
2, 172885, Note_on_c, 0, 52, 0
2, 172903, Note_on_c, 0, 81, 0
2, 172917, Note_on_c, 0, 52, 58
2, 172917, Note_on_c, 0, 57, 58
2, 172919, Note_on_c, 0, 81, 63
2, 172942, Note_on_c, 0, 81, 0
2, 172959, Note_on_c, 0, 81, 65
2, 172960, Note_on_c, 0, 57, 0
2, 172960, Note_on_c, 0, 52, 0
2, 172965, Note_on_c, 0, 61, 0
2, 172977, Note_on_c, 0, 81, 0
2, 172998, Note_on_c, 0, 57, 58
2, 172998, Note_on_c, 0, 60, 58
2, 173005, Note_on_c, 0, 81, 65
2, 173009, Note_on_c, 0, 54, 58
2, 173011, Note_on_c, 0, 52, 58
2, 173032, Note_on_c, 0, 83, 66
2, 173039, Note_on_c, 0, 81, 0
2, 173044, Note_on_c, 0, 52, 0
2, 173044, Note_on_c, 0, 54, 0
2, 173044, Note_on_c, 0, 57, 0
2, 173067, Note_on_c, 0, 81, 65
2, 173069, Note_on_c, 0, 83, 0
2, 173074, Note_on_c, 0, 52, 58
2, 173074, Note_on_c, 0, 54, 58
2, 173074, Note_on_c, 0, 57, 57
2, 173100, Note_on_c, 0, 83, 65
2, 173109, Note_on_c, 0, 57, 0
2, 173109, Note_on_c, 0, 52, 0
2, 173109, Note_on_c, 0, 60, 0
2, 173114, Note_on_c, 0, 81, 0
2, 173116, Note_on_c, 0, 54, 0
2, 173142, Note_on_c, 0, 79, 62
2, 173149, Note_on_c, 0, 52, 58
2, 173149, Note_on_c, 0, 59, 58
2, 173153, Note_on_c, 0, 83, 0
2, 173155, Note_on_c, 0, 55, 58
2, 173176, Note_on_c, 0, 79, 0
2, 173176, Note_on_c, 0, 81, 57
2, 173188, Note_on_c, 0, 55, 0
2, 173188, Note_on_c, 0, 52, 0
2, 173214, Note_on_c, 0, 78, 54
2, 173228, Note_on_c, 0, 52, 58
2, 173228, Note_on_c, 0, 55, 58
2, 173230, Note_on_c, 0, 81, 0
2, 173256, Note_on_c, 0, 79, 60
2, 173258, Note_on_c, 0, 78, 0
2, 173263, Note_on_c, 0, 55, 0
2, 173265, Note_on_c, 0, 52, 0
2, 173296, Note_on_c, 0, 76, 63
2, 173297, Note_on_c, 0, 79, 0
2, 173297, Note_on_c, 0, 54, 58
2, 173297, Note_on_c, 0, 57, 58
2, 173302, Note_on_c, 0, 52, 57
2, 173330, Note_on_c, 0, 76, 0
2, 173330, Note_on_c, 0, 78, 64
2, 173337, Note_on_c, 0, 54, 0
2, 173342, Note_on_c, 0, 52, 0
2, 173368, Note_on_c, 0, 78, 0
2, 173368, Note_on_c, 0, 52, 58
2, 173368, Note_on_c, 0, 54, 58
2, 173368, Note_on_c, 0, 75, 64
2, 173395, Note_on_c, 0, 59, 0
2, 173400, Note_on_c, 0, 78, 66
2, 173402, Note_on_c, 0, 52, 0
2, 173407, Note_on_c, 0, 57, 0
2, 173414, Note_on_c, 0, 54, 0
2, 173420, Note_on_c, 0, 75, 0
2, 173443, Note_on_c, 0, 78, 0
2, 173445, Note_on_c, 0, 67, 67
2, 173445, Note_on_c, 0, 76, 69
2, 173450, Note_on_c, 0, 40, 57
2, 173466, Note_on_c, 0, 67, 0
2, 173481, Note_on_c, 0, 40, 0
2, 173488, Note_on_c, 0, 67, 68
2, 173492, Control_c, 0, 67, 0
2, 173504, Note_on_c, 0, 67, 0
2, 173522, Note_on_c, 0, 67, 65
2, 173527, Note_on_c, 0, 40, 57
2, 173541, Note_on_c, 0, 67, 0
2, 173556, Note_on_c, 0, 40, 0
2, 173560, Note_on_c, 0, 67, 65
2, 173579, Note_on_c, 0, 67, 0
2, 173595, Note_on_c, 0, 66, 66
2, 173605, Note_on_c, 0, 40, 58
2, 173631, Note_on_c, 0, 66, 0
2, 173635, Note_on_c, 0, 64, 66
2, 173647, Note_on_c, 0, 40, 0
2, 173668, Note_on_c, 0, 64, 0
2, 173680, Note_on_c, 0, 62, 61
2, 173686, Note_on_c, 0, 40, 61
2, 173714, Note_on_c, 0, 62, 0
2, 173721, Note_on_c, 0, 40, 0
2, 173721, Note_on_c, 0, 60, 61
2, 173749, Note_on_c, 0, 60, 0
2, 173760, Note_on_c, 0, 55, 61
2, 173760, Note_on_c, 0, 67, 61
2, 173772, Note_on_c, 0, 40, 63
2, 173772, Note_on_c, 0, 59, 64
2, 173790, Note_on_c, 0, 59, 0
2, 173792, Note_on_c, 0, 40, 0
2, 173808, Note_on_c, 0, 59, 65
2, 173831, Note_on_c, 0, 59, 0
2, 173854, Note_on_c, 0, 40, 66
2, 173854, Note_on_c, 0, 59, 66
2, 173871, Note_on_c, 0, 67, 0
2, 173871, Note_on_c, 0, 76, 0
2, 173872, Note_on_c, 0, 55, 0
2, 173874, Note_on_c, 0, 40, 0
2, 173914, Note_on_c, 0, 59, 0
2, 173935, Note_on_c, 0, 68, 68
2, 173935, Note_on_c, 0, 76, 68
2, 173937, Note_on_c, 0, 74, 67
2, 173939, Note_on_c, 0, 40, 65
2, 173944, Note_on_c, 0, 56, 65
2, 173945, Note_on_c, 0, 59, 65
2, 173960, Note_on_c, 0, 40, 0
2, 173967, Note_on_c, 0, 59, 0
2, 173976, Note_on_c, 0, 60, 65
2, 174007, Note_on_c, 0, 60, 0
2, 174014, Note_on_c, 0, 59, 65
2, 174016, Note_on_c, 0, 40, 65
2, 174034, Note_on_c, 0, 68, 0
2, 174043, Note_on_c, 0, 59, 0
2, 174043, Note_on_c, 0, 56, 0
2, 174043, Note_on_c, 0, 40, 0
2, 174048, Note_on_c, 0, 60, 65
2, 174081, Note_on_c, 0, 60, 0
2, 174088, Note_on_c, 0, 73, 70
2, 174089, Note_on_c, 0, 69, 71
2, 174091, Note_on_c, 0, 74, 0
2, 174091, Note_on_c, 0, 57, 65
2, 174101, Note_on_c, 0, 40, 64
2, 174112, Note_on_c, 0, 57, 0
2, 174124, Note_on_c, 0, 40, 0
2, 174138, Note_on_c, 0, 57, 68
2, 174161, Note_on_c, 0, 57, 0
2, 174171, Note_on_c, 0, 73, 0
2, 174173, Note_on_c, 0, 69, 0
2, 174184, Note_on_c, 0, 40, 63
2, 174184, Note_on_c, 0, 57, 62
2, 174208, Note_on_c, 0, 57, 0
2, 174208, Note_on_c, 0, 40, 0
2, 174224, Note_on_c, 0, 57, 62
2, 174247, Note_on_c, 0, 57, 0
2, 174261, Note_on_c, 0, 66, 71
2, 174261, Note_on_c, 0, 72, 73
2, 174266, Note_on_c, 0, 40, 65
2, 174268, Note_on_c, 0, 57, 66
2, 174286, Note_on_c, 0, 40, 0
2, 174291, Note_on_c, 0, 57, 0
2, 174301, Note_on_c, 0, 59, 60
2, 174327, Note_on_c, 0, 59, 0
2, 174327, Note_on_c, 0, 66, 0
2, 174343, Note_on_c, 0, 57, 56
2, 174348, Note_on_c, 0, 40, 57
2, 174371, Note_on_c, 0, 57, 0
2, 174380, Note_on_c, 0, 40, 0
2, 174382, Note_on_c, 0, 59, 63
2, 174394, Note_on_c, 0, 72, 0
2, 174403, Note_on_c, 0, 71, 67
2, 174413, Note_on_c, 0, 59, 0
2, 174413, Note_on_c, 0, 55, 64
2, 174413, Note_on_c, 0, 67, 66
2, 174423, Note_on_c, 0, 40, 64
2, 174446, Note_on_c, 0, 55, 0
2, 174452, Note_on_c, 0, 57, 65
2, 174457, Note_on_c, 0, 67, 0
2, 174462, Note_on_c, 0, 40, 0
2, 174478, Note_on_c, 0, 71, 0
2, 174483, Note_on_c, 0, 57, 0
2, 174483, Note_on_c, 0, 69, 67
2, 174493, Note_on_c, 0, 40, 65
2, 174493, Note_on_c, 0, 54, 65
2, 174523, Note_on_c, 0, 54, 0
2, 174528, Note_on_c, 0, 69, 0
2, 174533, Note_on_c, 0, 40, 0
2, 174533, Note_on_c, 0, 55, 65
2, 174538, Note_on_c, 0, 76, 0
2, 174561, Note_on_c, 0, 55, 0
2, 174572, Note_on_c, 0, 52, 65
2, 174574, Note_on_c, 0, 40, 65
2, 174581, Note_on_c, 0, 88, 68
2, 174583, Note_on_c, 0, 67, 65
2, 174583, Note_on_c, 0, 71, 66
2, 174601, Note_on_c, 0, 40, 0
2, 174601, Note_on_c, 0, 52, 0
2, 174603, Control_c, 0, 64, 127
2, 174608, Note_on_c, 0, 91, 68
2, 174624, Note_on_c, 0, 88, 0
2, 174639, Note_on_c, 0, 95, 68
2, 174660, Note_on_c, 0, 91, 0
2, 174662, Note_on_c, 0, 71, 0
2, 174664, Note_on_c, 0, 67, 0
2, 174665, Note_on_c, 0, 100, 71
2, 174672, Note_on_c, 0, 95, 0
2, 174695, Note_on_c, 0, 100, 0
2, 174713, Note_on_c, 0, 103, 71
2, 174718, Note_on_c, 0, 55, 65
2, 174718, Note_on_c, 0, 59, 65
2, 174718, Note_on_c, 0, 64, 66
2, 174723, Note_on_c, 0, 52, 64
2, 174735, Note_on_c, 0, 103, 0
2, 174746, Control_c, 0, 64, 0
2, 174760, Note_on_c, 0, 103, 72
2, 174767, Note_on_c, 0, 52, 0
2, 174767, Note_on_c, 0, 59, 0
2, 174774, Note_on_c, 0, 55, 0
2, 174781, Note_on_c, 0, 103, 0
2, 174799, Note_on_c, 0, 52, 68
2, 174799, Note_on_c, 0, 55, 69
2, 174799, Note_on_c, 0, 59, 68
2, 174799, Note_on_c, 0, 103, 78
2, 174817, Note_on_c, 0, 103, 0
2, 174838, Note_on_c, 0, 52, 0
2, 174840, Note_on_c, 0, 59, 0
2, 174845, Note_on_c, 0, 55, 0
2, 174847, Note_on_c, 0, 103, 72
2, 174875, Note_on_c, 0, 102, 69
2, 174881, Note_on_c, 0, 52, 62
2, 174881, Note_on_c, 0, 55, 61
2, 174883, Note_on_c, 0, 59, 60
2, 174890, Note_on_c, 0, 103, 0
2, 174911, Note_on_c, 0, 100, 67
2, 174916, Note_on_c, 0, 59, 0
2, 174921, Note_on_c, 0, 55, 0
2, 174921, Note_on_c, 0, 52, 0
2, 174928, Note_on_c, 0, 102, 0
2, 174953, Note_on_c, 0, 98, 62
2, 174958, Note_on_c, 0, 55, 57
2, 174958, Note_on_c, 0, 59, 57
2, 174960, Note_on_c, 0, 52, 56
2, 174965, Note_on_c, 0, 100, 0
2, 174996, Note_on_c, 0, 98, 0
2, 174996, Note_on_c, 0, 59, 0
2, 174996, Note_on_c, 0, 52, 0
2, 174996, Note_on_c, 0, 96, 64
2, 175002, Note_on_c, 0, 55, 0
2, 175024, Note_on_c, 0, 96, 0
2, 175033, Note_on_c, 0, 95, 67
2, 175035, Note_on_c, 0, 55, 57
2, 175037, Note_on_c, 0, 59, 57
2, 175042, Note_on_c, 0, 52, 57
2, 175053, Note_on_c, 0, 95, 0
2, 175076, Note_on_c, 0, 95, 66
2, 175091, Note_on_c, 0, 52, 0
2, 175091, Note_on_c, 0, 55, 0
2, 175093, Note_on_c, 0, 59, 0
2, 175097, Note_on_c, 0, 95, 0
2, 175116, Note_on_c, 0, 95, 65
2, 175125, Note_on_c, 0, 52, 57
2, 175125, Note_on_c, 0, 55, 57
2, 175125, Note_on_c, 0, 59, 56
2, 175142, Note_on_c, 0, 95, 0
2, 175158, Note_on_c, 0, 95, 65
2, 175160, Note_on_c, 0, 64, 0
2, 175162, Note_on_c, 0, 59, 0
2, 175162, Note_on_c, 0, 52, 0
2, 175173, Note_on_c, 0, 55, 0
2, 175180, Note_on_c, 0, 95, 0
2, 175201, Note_on_c, 0, 62, 56
2, 175203, Note_on_c, 0, 56, 58
2, 175203, Note_on_c, 0, 59, 59
2, 175205, Note_on_c, 0, 95, 66
2, 175207, Note_on_c, 0, 52, 60
2, 175240, Note_on_c, 0, 59, 0
2, 175241, Note_on_c, 0, 95, 0
2, 175241, Note_on_c, 0, 96, 69
2, 175246, Note_on_c, 0, 56, 0
2, 175248, Note_on_c, 0, 52, 0
2, 175281, Note_on_c, 0, 95, 69
2, 175288, Note_on_c, 0, 96, 0
2, 175288, Note_on_c, 0, 52, 61
2, 175288, Note_on_c, 0, 56, 61
2, 175288, Note_on_c, 0, 59, 60
2, 175309, Note_on_c, 0, 62, 0
2, 175320, Note_on_c, 0, 96, 66
2, 175322, Note_on_c, 0, 56, 0
2, 175322, Note_on_c, 0, 59, 0
2, 175322, Note_on_c, 0, 95, 0
2, 175322, Note_on_c, 0, 52, 0
2, 175355, Note_on_c, 0, 61, 60
2, 175357, Note_on_c, 0, 93, 70
2, 175363, Note_on_c, 0, 52, 58
2, 175363, Note_on_c, 0, 57, 57
2, 175373, Note_on_c, 0, 96, 0
2, 175380, Note_on_c, 0, 93, 0
2, 175396, Note_on_c, 0, 93, 69
2, 175412, Note_on_c, 0, 52, 0
2, 175417, Note_on_c, 0, 57, 0
2, 175419, Note_on_c, 0, 93, 0
2, 175442, Note_on_c, 0, 57, 57
2, 175442, Note_on_c, 0, 93, 66
2, 175444, Note_on_c, 0, 52, 57
2, 175486, Note_on_c, 0, 52, 0
2, 175486, Note_on_c, 0, 57, 0
2, 175493, Note_on_c, 0, 61, 0
2, 175519, Note_on_c, 0, 57, 57
2, 175519, Note_on_c, 0, 60, 57
2, 175521, Note_on_c, 0, 52, 56
2, 175526, Note_on_c, 0, 54, 57
2, 175553, Note_on_c, 0, 95, 64
2, 175560, Note_on_c, 0, 93, 0
2, 175567, Note_on_c, 0, 52, 0
2, 175567, Note_on_c, 0, 57, 0
2, 175572, Note_on_c, 0, 54, 0
2, 175588, Note_on_c, 0, 95, 0
2, 175593, Note_on_c, 0, 93, 69
2, 175600, Note_on_c, 0, 54, 57
2, 175600, Note_on_c, 0, 57, 57
2, 175606, Note_on_c, 0, 52, 56
2, 175624, Note_on_c, 0, 60, 0
2, 175629, Note_on_c, 0, 95, 71
2, 175641, Note_on_c, 0, 54, 0
2, 175643, Note_on_c, 0, 57, 0
2, 175645, Note_on_c, 0, 93, 0
2, 175645, Note_on_c, 0, 52, 0
2, 175666, Note_on_c, 0, 91, 70
2, 175672, Note_on_c, 0, 52, 57
2, 175672, Note_on_c, 0, 55, 57
2, 175677, Note_on_c, 0, 59, 56
2, 175679, Note_on_c, 0, 95, 0
2, 175696, Note_on_c, 0, 91, 0
2, 175702, Note_on_c, 0, 93, 65
2, 175714, Note_on_c, 0, 55, 0
2, 175716, Note_on_c, 0, 52, 0
2, 175742, Note_on_c, 0, 90, 61
2, 175746, Note_on_c, 0, 55, 60
2, 175748, Note_on_c, 0, 52, 61
2, 175755, Note_on_c, 0, 93, 0
2, 175778, Note_on_c, 0, 91, 66
2, 175785, Note_on_c, 0, 52, 0
2, 175785, Note_on_c, 0, 90, 0
2, 175790, Note_on_c, 0, 55, 0
2, 175817, Note_on_c, 0, 88, 68
2, 175819, Note_on_c, 0, 91, 0
2, 175821, Note_on_c, 0, 54, 61
2, 175821, Note_on_c, 0, 57, 61
2, 175823, Note_on_c, 0, 52, 60
2, 175851, Note_on_c, 0, 88, 0
2, 175856, Note_on_c, 0, 90, 69
2, 175858, Note_on_c, 0, 52, 0
2, 175864, Note_on_c, 0, 54, 0
2, 175890, Note_on_c, 0, 90, 0
2, 175890, Note_on_c, 0, 87, 68
2, 175897, Note_on_c, 0, 52, 61
2, 175897, Note_on_c, 0, 54, 61
2, 175904, Note_on_c, 0, 59, 0
2, 175925, Note_on_c, 0, 90, 70
2, 175930, Note_on_c, 0, 52, 0
2, 175944, Note_on_c, 0, 54, 0
2, 175946, Note_on_c, 0, 87, 0
2, 175951, Note_on_c, 0, 57, 0
2, 175962, Note_on_c, 0, 55, 61
2, 175962, Note_on_c, 0, 79, 70
2, 175962, Note_on_c, 0, 88, 73
2, 175964, Note_on_c, 0, 52, 61
2, 175964, Note_on_c, 0, 59, 61
2, 175971, Note_on_c, 0, 90, 0
2, 175985, Note_on_c, 0, 79, 0
2, 176007, Note_on_c, 0, 79, 67
2, 176011, Note_on_c, 0, 52, 0
2, 176018, Note_on_c, 0, 88, 0
2, 176018, Note_on_c, 0, 55, 0
2, 176025, Note_on_c, 0, 59, 0
2, 176051, Note_on_c, 0, 52, 63
2, 176067, Note_on_c, 0, 79, 0
2, 176083, Note_on_c, 0, 79, 67
2, 176090, Note_on_c, 0, 52, 0
2, 176106, Note_on_c, 0, 79, 0
2, 176123, Note_on_c, 0, 78, 67
2, 176125, Note_on_c, 0, 52, 65
2, 176151, Note_on_c, 0, 78, 0
2, 176162, Note_on_c, 0, 76, 67
2, 176174, Note_on_c, 0, 52, 0
2, 176192, Note_on_c, 0, 76, 0
2, 176203, Note_on_c, 0, 74, 67
2, 176205, Note_on_c, 0, 52, 65
2, 176231, Note_on_c, 0, 74, 0
2, 176243, Note_on_c, 0, 72, 66
2, 176252, Note_on_c, 0, 52, 0
2, 176269, Note_on_c, 0, 72, 0
2, 176290, Note_on_c, 0, 71, 63
2, 176292, Note_on_c, 0, 55, 65
2, 176292, Note_on_c, 0, 67, 60
2, 176313, Note_on_c, 0, 71, 0
2, 176327, Note_on_c, 0, 67, 0
2, 176334, Note_on_c, 0, 71, 58
2, 176336, Note_on_c, 0, 55, 0
2, 176357, Note_on_c, 0, 71, 0
2, 176373, Note_on_c, 0, 71, 62
2, 176375, Note_on_c, 0, 52, 65
2, 176396, Note_on_c, 0, 71, 0
2, 176413, Note_on_c, 0, 71, 66
2, 176419, Note_on_c, 0, 52, 0
2, 176436, Note_on_c, 0, 71, 0
2, 176454, Note_on_c, 0, 86, 68
2, 176454, Note_on_c, 0, 88, 69
2, 176456, Note_on_c, 0, 71, 66
2, 176456, Note_on_c, 0, 76, 67
2, 176461, Note_on_c, 0, 56, 66
2, 176461, Note_on_c, 0, 68, 66
2, 176484, Note_on_c, 0, 71, 0
2, 176486, Note_on_c, 0, 72, 70
2, 176490, Note_on_c, 0, 68, 0
2, 176500, Note_on_c, 0, 56, 0
2, 176512, Note_on_c, 0, 72, 0
2, 176523, Note_on_c, 0, 71, 70
2, 176525, Note_on_c, 0, 52, 69
2, 176548, Note_on_c, 0, 71, 0
2, 176558, Note_on_c, 0, 76, 0
2, 176560, Note_on_c, 0, 52, 0
2, 176560, Note_on_c, 0, 88, 0
2, 176560, Note_on_c, 0, 72, 70
2, 176561, Note_on_c, 0, 86, 0
2, 176587, Note_on_c, 0, 72, 0
2, 176599, Note_on_c, 0, 85, 75
2, 176599, Note_on_c, 0, 88, 76
2, 176601, Note_on_c, 0, 76, 75
2, 176606, Note_on_c, 0, 52, 69
2, 176606, Note_on_c, 0, 57, 69
2, 176606, Note_on_c, 0, 61, 68
2, 176606, Note_on_c, 0, 69, 75
2, 176622, Note_on_c, 0, 69, 0
2, 176638, Note_on_c, 0, 61, 0
2, 176643, Note_on_c, 0, 52, 0
2, 176645, Note_on_c, 0, 69, 71
2, 176647, Note_on_c, 0, 57, 0
2, 176668, Note_on_c, 0, 69, 0
2, 176684, Note_on_c, 0, 69, 70
2, 176686, Note_on_c, 0, 52, 69
2, 176704, Note_on_c, 0, 69, 0
2, 176723, Note_on_c, 0, 52, 0
2, 176729, Note_on_c, 0, 69, 70
2, 176741, Note_on_c, 0, 85, 0
2, 176748, Note_on_c, 0, 84, 69
2, 176750, Note_on_c, 0, 69, 0
2, 176766, Note_on_c, 0, 52, 69
2, 176766, Note_on_c, 0, 54, 69
2, 176766, Note_on_c, 0, 60, 68
2, 176766, Note_on_c, 0, 69, 69
2, 176794, Note_on_c, 0, 69, 0
2, 176799, Note_on_c, 0, 71, 73
2, 176803, Note_on_c, 0, 54, 0
2, 176805, Note_on_c, 0, 60, 0
2, 176807, Note_on_c, 0, 52, 0
2, 176830, Note_on_c, 0, 71, 0
2, 176840, Note_on_c, 0, 69, 74
2, 176845, Note_on_c, 0, 52, 73
2, 176861, Note_on_c, 0, 76, 0
2, 176861, Note_on_c, 0, 84, 0
2, 176868, Note_on_c, 0, 69, 0
2, 176872, Note_on_c, 0, 52, 0
2, 176877, Note_on_c, 0, 71, 74
2, 176910, Note_on_c, 0, 71, 0
2, 176915, Note_on_c, 0, 79, 75
2, 176915, Note_on_c, 0, 83, 77
2, 176920, Note_on_c, 0, 67, 73
2, 176921, Note_on_c, 0, 52, 73
2, 176921, Note_on_c, 0, 59, 73
2, 176926, Note_on_c, 0, 55, 72
2, 176943, Note_on_c, 0, 67, 0
2, 176957, Note_on_c, 0, 59, 0
2, 176959, Note_on_c, 0, 52, 0
2, 176959, Note_on_c, 0, 55, 0
2, 176959, Note_on_c, 0, 69, 74
2, 176961, Note_on_c, 0, 79, 0
2, 176961, Note_on_c, 0, 83, 0
2, 176984, Note_on_c, 0, 69, 0
2, 176991, Note_on_c, 0, 66, 76
2, 176991, Note_on_c, 0, 81, 80
2, 176992, Note_on_c, 0, 59, 73
2, 176994, Note_on_c, 0, 52, 73
2, 176994, Note_on_c, 0, 57, 73
2, 177017, Note_on_c, 0, 66, 0
2, 177027, Note_on_c, 0, 81, 0
2, 177029, Note_on_c, 0, 57, 0
2, 177031, Note_on_c, 0, 52, 0
2, 177031, Note_on_c, 0, 59, 0
2, 177036, Note_on_c, 0, 67, 73
2, 177068, Note_on_c, 0, 67, 0
2, 177075, Note_on_c, 0, 83, 80
2, 177077, Note_on_c, 0, 64, 78
2, 177077, Note_on_c, 0, 79, 80
2, 177079, Note_on_c, 0, 59, 73
2, 177081, Note_on_c, 0, 52, 73
2, 177083, Note_on_c, 0, 55, 73
2, 177104, Note_on_c, 0, 64, 0
2, 177109, Note_on_c, 0, 79, 0
2, 177109, Note_on_c, 0, 83, 0
2, 177113, Note_on_c, 0, 66, 74
2, 177118, Note_on_c, 0, 88, 0
2, 177139, Note_on_c, 0, 59, 0
2, 177139, Note_on_c, 0, 52, 0
2, 177146, Note_on_c, 0, 55, 0
2, 177146, Note_on_c, 0, 66, 0
2, 177151, Note_on_c, 0, 67, 70
2, 177181, Note_on_c, 0, 67, 0
2, 177199, Note_on_c, 0, 71, 68
2, 177227, Note_on_c, 0, 71, 0
2, 177241, Note_on_c, 0, 74, 74
2, 177243, Note_on_c, 0, 55, 65
2, 177243, Note_on_c, 0, 59, 65
2, 177243, Note_on_c, 0, 62, 64
2, 177243, Note_on_c, 0, 67, 75
2, 177248, Control_c, 0, 64, 127
2, 177266, Note_on_c, 0, 74, 0
2, 177268, Note_on_c, 0, 67, 0
2, 177268, Note_on_c, 0, 43, 62
2, 177270, Note_on_c, 0, 62, 0
2, 177270, Note_on_c, 0, 59, 0
2, 177280, Note_on_c, 0, 55, 0
2, 177284, Control_c, 0, 64, 0
2, 177294, Note_on_c, 0, 45, 60
2, 177296, Note_on_c, 0, 43, 0
2, 177314, Note_on_c, 0, 47, 62
2, 177321, Note_on_c, 0, 45, 0
2, 177339, Note_on_c, 0, 48, 64
2, 177341, Note_on_c, 0, 47, 0
2, 177367, Note_on_c, 0, 48, 0
2, 177367, Note_on_c, 0, 50, 65
2, 177397, Note_on_c, 0, 50, 0
2, 177401, Note_on_c, 0, 52, 70
2, 177423, Note_on_c, 0, 62, 71
2, 177423, Note_on_c, 0, 74, 94
2, 177427, Note_on_c, 0, 55, 73
2, 177427, Note_on_c, 0, 59, 74
2, 177427, Note_on_c, 0, 67, 92
2, 177432, Note_on_c, 0, 52, 0
2, 177432, Note_on_c, 0, 54, 76
2, 177444, Note_on_c, 0, 62, 0
2, 177444, Note_on_c, 0, 74, 0
2, 177446, Note_on_c, 0, 59, 0
2, 177446, Note_on_c, 0, 67, 0
2, 177464, Note_on_c, 0, 54, 0
2, 177469, Note_on_c, 0, 62, 81
2, 177469, Note_on_c, 0, 74, 89
2, 177471, Note_on_c, 0, 59, 82
2, 177471, Note_on_c, 0, 67, 87
2, 177489, Note_on_c, 0, 67, 0
2, 177489, Note_on_c, 0, 55, 0
2, 177491, Note_on_c, 0, 62, 0
2, 177491, Note_on_c, 0, 74, 0
2, 177493, Note_on_c, 0, 59, 0
2, 177495, Note_on_c, 0, 57, 81
2, 177506, Note_on_c, 0, 62, 81
2, 177506, Note_on_c, 0, 67, 84
2, 177506, Note_on_c, 0, 74, 84
2, 177508, Note_on_c, 0, 55, 80
2, 177522, Note_on_c, 0, 57, 0
2, 177524, Note_on_c, 0, 59, 80
2, 177526, Note_on_c, 0, 67, 0
2, 177533, Note_on_c, 0, 55, 0
2, 177543, Note_on_c, 0, 62, 0
2, 177543, Note_on_c, 0, 74, 0
2, 177544, Note_on_c, 0, 59, 0
2, 177549, Note_on_c, 0, 64, 85
2, 177549, Note_on_c, 0, 67, 86
2, 177549, Note_on_c, 0, 76, 88
2, 177551, Note_on_c, 0, 61, 80
2, 177553, Note_on_c, 0, 52, 80
2, 177553, Note_on_c, 0, 55, 80
2, 177563, Note_on_c, 0, 59, 79
2, 177579, Note_on_c, 0, 62, 80
2, 177581, Note_on_c, 0, 61, 0
2, 177588, Note_on_c, 0, 67, 0
2, 177590, Note_on_c, 0, 76, 0
2, 177590, Note_on_c, 0, 64, 0
2, 177590, Note_on_c, 0, 52, 0
2, 177590, Note_on_c, 0, 59, 0
2, 177599, Note_on_c, 0, 55, 0
2, 177614, Note_on_c, 0, 62, 0
2, 177616, Note_on_c, 0, 64, 80
2, 177643, Note_on_c, 0, 66, 80
2, 177645, Note_on_c, 0, 64, 0
2, 177675, Note_on_c, 0, 67, 80
2, 177677, Note_on_c, 0, 66, 0
2, 177705, Note_on_c, 0, 67, 0
2, 177710, Note_on_c, 0, 69, 81
2, 177731, Note_on_c, 0, 64, 80
2, 177731, Note_on_c, 0, 67, 81
2, 177731, Note_on_c, 0, 71, 81
2, 177731, Note_on_c, 0, 76, 82
2, 177733, Note_on_c, 0, 52, 80
2, 177733, Note_on_c, 0, 59, 80
2, 177735, Note_on_c, 0, 69, 0
2, 177736, Note_on_c, 0, 55, 80
2, 177760, Note_on_c, 0, 71, 0
2, 177760, Note_on_c, 0, 67, 0
2, 177766, Note_on_c, 0, 59, 0
2, 177766, Note_on_c, 0, 76, 0
2, 177766, Note_on_c, 0, 64, 0
2, 177768, Note_on_c, 0, 55, 0
2, 177768, Note_on_c, 0, 73, 81
2, 177770, Note_on_c, 0, 52, 0
2, 177793, Note_on_c, 0, 73, 0
2, 177798, Note_on_c, 0, 74, 81
2, 177828, Note_on_c, 0, 74, 0
2, 177830, Note_on_c, 0, 76, 81
2, 177857, Note_on_c, 0, 78, 81
2, 177859, Note_on_c, 0, 76, 0
2, 177861, Note_on_c, 0, 47, 80
2, 177876, Note_on_c, 0, 54, 80
2, 177890, Note_on_c, 0, 66, 82
2, 177890, Note_on_c, 0, 71, 84
2, 177890, Note_on_c, 0, 80, 85
2, 177897, Note_on_c, 0, 62, 80
2, 177902, Note_on_c, 0, 47, 0
2, 177916, Note_on_c, 0, 80, 0
2, 177923, Note_on_c, 0, 78, 0
2, 177923, Note_on_c, 0, 54, 0
2, 177923, Note_on_c, 0, 82, 82
2, 177925, Note_on_c, 0, 66, 0
2, 177925, Note_on_c, 0, 71, 0
2, 177939, Note_on_c, 0, 62, 0
2, 177953, Note_on_c, 0, 82, 0
2, 177963, Note_on_c, 0, 83, 83
2, 177993, Note_on_c, 0, 83, 0
2, 178000, Note_on_c, 0, 85, 83
2, 178032, Note_on_c, 0, 85, 0
2, 178039, Note_on_c, 0, 86, 83
2, 178053, Note_on_c, 0, 74, 81
2, 178055, Note_on_c, 0, 62, 80
2, 178055, Note_on_c, 0, 67, 81
2, 178055, Note_on_c, 0, 71, 81
2, 178060, Note_on_c, 0, 55, 80
2, 178067, Note_on_c, 0, 86, 0
2, 178067, Note_on_c, 0, 59, 80
2, 178078, Note_on_c, 0, 88, 82
2, 178085, Note_on_c, 0, 67, 0
2, 178085, Note_on_c, 0, 74, 0
2, 178087, Note_on_c, 0, 62, 0
2, 178092, Note_on_c, 0, 71, 0
2, 178094, Note_on_c, 0, 55, 0
2, 178094, Note_on_c, 0, 59, 0
2, 178105, Note_on_c, 0, 88, 0
2, 178105, Note_on_c, 0, 90, 84
2, 178135, Note_on_c, 0, 90, 0
2, 178135, Note_on_c, 0, 91, 90
2, 178165, Note_on_c, 0, 91, 0
2, 178165, Note_on_c, 0, 93, 93
2, 178197, Note_on_c, 0, 93, 0
2, 178197, Note_on_c, 0, 94, 96
2, 178225, Note_on_c, 0, 94, 0
2, 178227, Note_on_c, 0, 95, 101
2, 178239, Note_on_c, 0, 55, 97
2, 178239, Note_on_c, 0, 64, 100
2, 178239, Note_on_c, 0, 67, 101
2, 178239, Note_on_c, 0, 76, 103
2, 178243, Note_on_c, 0, 52, 99
2, 178243, Note_on_c, 0, 59, 100
2, 178245, Note_on_c, 0, 71, 104
2, 178255, Note_on_c, 0, 95, 0
2, 178255, Note_on_c, 0, 91, 100
2, 178281, Note_on_c, 0, 91, 0
2, 178288, Note_on_c, 0, 88, 99
2, 178313, Note_on_c, 0, 88, 0
2, 178318, Note_on_c, 0, 83, 100
2, 178346, Note_on_c, 0, 83, 0
2, 178346, Note_on_c, 0, 76, 0
2, 178346, Note_on_c, 0, 79, 95
2, 178376, Note_on_c, 0, 79, 0
2, 178376, Note_on_c, 0, 71, 0
2, 178378, Note_on_c, 0, 76, 90
2, 178408, Note_on_c, 0, 76, 0
2, 178408, Note_on_c, 0, 67, 0
2, 178409, Note_on_c, 0, 71, 86
2, 178421, Control_c, 0, 64, 127
2, 178439, Note_on_c, 0, 71, 0
2, 178439, Note_on_c, 0, 64, 0
2, 178441, Note_on_c, 0, 67, 81
2, 178467, Note_on_c, 0, 67, 0
2, 178474, Note_on_c, 0, 59, 0
2, 178474, Note_on_c, 0, 64, 77
2, 178495, Note_on_c, 0, 55, 0
2, 178497, Note_on_c, 0, 52, 0
2, 178499, Note_on_c, 0, 64, 0
2, 178504, Note_on_c, 0, 59, 72
2, 178527, Note_on_c, 0, 55, 71
2, 178533, Note_on_c, 0, 59, 0
2, 178538, Control_c, 0, 64, 0
2, 178554, Note_on_c, 0, 52, 67
2, 178556, Note_on_c, 0, 55, 0
2, 178568, Note_on_c, 0, 74, 72
2, 178570, Note_on_c, 0, 67, 70
2, 178570, Note_on_c, 0, 71, 70
2, 178572, Note_on_c, 0, 55, 65
2, 178572, Note_on_c, 0, 62, 65
2, 178581, Note_on_c, 0, 52, 0
2, 178581, Note_on_c, 0, 59, 65
2, 178598, Note_on_c, 0, 43, 64
2, 178609, Note_on_c, 0, 62, 0
2, 178611, Note_on_c, 0, 74, 0
2, 178613, Note_on_c, 0, 67, 0
2, 178615, Note_on_c, 0, 59, 0
2, 178617, Control_c, 0, 64, 127
2, 178619, Note_on_c, 0, 45, 65
2, 178621, Note_on_c, 0, 71, 0
2, 178623, Note_on_c, 0, 43, 0
2, 178623, Note_on_c, 0, 55, 0
2, 178639, Note_on_c, 0, 47, 64
2, 178646, Note_on_c, 0, 45, 0
2, 178667, Note_on_c, 0, 48, 65
2, 178669, Note_on_c, 0, 47, 0
2, 178695, Note_on_c, 0, 48, 0
2, 178695, Note_on_c, 0, 50, 66
2, 178722, Note_on_c, 0, 50, 0
2, 178729, Control_c, 0, 64, 0
2, 178729, Note_on_c, 0, 52, 69
2, 178736, Note_on_c, 0, 71, 70
2, 178738, Note_on_c, 0, 67, 69
2, 178738, Note_on_c, 0, 74, 70
2, 178740, Note_on_c, 0, 62, 69
2, 178742, Note_on_c, 0, 55, 69
2, 178742, Note_on_c, 0, 59, 69
2, 178753, Note_on_c, 0, 52, 0
2, 178753, Note_on_c, 0, 54, 69
2, 178755, Note_on_c, 0, 74, 0
2, 178755, Note_on_c, 0, 71, 0
2, 178760, Note_on_c, 0, 62, 0
2, 178760, Note_on_c, 0, 67, 0
2, 178762, Note_on_c, 0, 59, 0
2, 178762, Note_on_c, 0, 55, 0
2, 178780, Note_on_c, 0, 74, 73
2, 178782, Note_on_c, 0, 54, 0
2, 178782, Note_on_c, 0, 62, 73
2, 178782, Note_on_c, 0, 67, 73
2, 178782, Note_on_c, 0, 71, 75
2, 178784, Note_on_c, 0, 55, 74
2, 178786, Note_on_c, 0, 59, 75
2, 178802, Note_on_c, 0, 71, 0
2, 178802, Note_on_c, 0, 74, 0
2, 178804, Note_on_c, 0, 67, 0
2, 178804, Note_on_c, 0, 57, 76
2, 178806, Note_on_c, 0, 62, 0
2, 178806, Note_on_c, 0, 59, 0
2, 178806, Note_on_c, 0, 55, 0
2, 178827, Note_on_c, 0, 62, 77
2, 178827, Note_on_c, 0, 71, 78
2, 178827, Note_on_c, 0, 74, 77
2, 178829, Note_on_c, 0, 67, 77
2, 178831, Note_on_c, 0, 55, 77
2, 178836, Note_on_c, 0, 57, 0
2, 178838, Note_on_c, 0, 59, 77
2, 178847, Note_on_c, 0, 67, 0
2, 178847, Note_on_c, 0, 71, 0
2, 178854, Note_on_c, 0, 55, 0
2, 178861, Note_on_c, 0, 59, 0
2, 178863, Note_on_c, 0, 74, 0
2, 178864, Note_on_c, 0, 62, 0
2, 178864, Note_on_c, 0, 61, 77
2, 178871, Note_on_c, 0, 55, 76
2, 178871, Note_on_c, 0, 64, 74
2, 178871, Note_on_c, 0, 67, 73
2, 178871, Note_on_c, 0, 71, 73
2, 178871, Note_on_c, 0, 76, 72
2, 178876, Note_on_c, 0, 52, 77
2, 178881, Note_on_c, 0, 59, 77
2, 178892, Note_on_c, 0, 61, 0
2, 178892, Note_on_c, 0, 62, 77
2, 178906, Note_on_c, 0, 71, 0
2, 178906, Note_on_c, 0, 67, 0
2, 178906, Note_on_c, 0, 76, 0
2, 178906, Note_on_c, 0, 64, 0
2, 178908, Note_on_c, 0, 55, 0
2, 178910, Note_on_c, 0, 59, 0
2, 178910, Note_on_c, 0, 52, 0
2, 178923, Note_on_c, 0, 62, 0
2, 178923, Note_on_c, 0, 64, 69
2, 178951, Note_on_c, 0, 64, 0
2, 178951, Note_on_c, 0, 66, 67
2, 178984, Note_on_c, 0, 66, 0
2, 178985, Note_on_c, 0, 67, 65
2, 179013, Note_on_c, 0, 67, 0
2, 179018, Note_on_c, 0, 69, 66
2, 179039, Note_on_c, 0, 55, 65
2, 179039, Note_on_c, 0, 64, 65
2, 179039, Note_on_c, 0, 67, 66
2, 179039, Note_on_c, 0, 76, 66
2, 179041, Note_on_c, 0, 59, 65
2, 179043, Note_on_c, 0, 69, 0
2, 179043, Note_on_c, 0, 52, 65
2, 179045, Note_on_c, 0, 71, 66
2, 179071, Note_on_c, 0, 52, 0
2, 179073, Note_on_c, 0, 76, 0
2, 179073, Note_on_c, 0, 64, 0
2, 179075, Note_on_c, 0, 67, 0
2, 179075, Note_on_c, 0, 59, 0
2, 179075, Note_on_c, 0, 73, 65
2, 179077, Note_on_c, 0, 55, 0
2, 179079, Note_on_c, 0, 71, 0
2, 179102, Note_on_c, 0, 73, 0
2, 179106, Note_on_c, 0, 74, 66
2, 179136, Note_on_c, 0, 74, 0
2, 179138, Note_on_c, 0, 76, 66
2, 179166, Note_on_c, 0, 78, 66
2, 179168, Note_on_c, 0, 76, 0
2, 179170, Note_on_c, 0, 47, 65
2, 179183, Note_on_c, 0, 54, 65
2, 179188, Note_on_c, 0, 78, 0
2, 179195, Note_on_c, 0, 66, 68
2, 179197, Note_on_c, 0, 62, 65
2, 179197, Note_on_c, 0, 71, 70
2, 179197, Note_on_c, 0, 80, 71
2, 179203, Note_on_c, 0, 78, 72
2, 179205, Note_on_c, 0, 47, 0
2, 179219, Note_on_c, 0, 54, 0
2, 179224, Note_on_c, 0, 80, 0
2, 179225, Note_on_c, 0, 71, 0
2, 179230, Note_on_c, 0, 78, 0
2, 179235, Note_on_c, 0, 82, 69
2, 179242, Note_on_c, 0, 66, 0
2, 179251, Note_on_c, 0, 62, 0
2, 179263, Note_on_c, 0, 82, 0
2, 179268, Note_on_c, 0, 83, 68
2, 179300, Note_on_c, 0, 83, 0
2, 179307, Note_on_c, 0, 85, 68
2, 179340, Note_on_c, 0, 85, 0
2, 179349, Note_on_c, 0, 86, 68
2, 179370, Note_on_c, 0, 71, 68
2, 179372, Note_on_c, 0, 62, 65
2, 179372, Note_on_c, 0, 67, 69
2, 179372, Note_on_c, 0, 74, 71
2, 179374, Note_on_c, 0, 86, 0
2, 179374, Note_on_c, 0, 55, 65
2, 179374, Note_on_c, 0, 59, 65
2, 179386, Note_on_c, 0, 88, 72
2, 179399, Note_on_c, 0, 62, 0
2, 179401, Note_on_c, 0, 71, 0
2, 179403, Note_on_c, 0, 67, 0
2, 179408, Note_on_c, 0, 55, 0
2, 179408, Note_on_c, 0, 59, 0
2, 179408, Note_on_c, 0, 88, 0
2, 179408, Note_on_c, 0, 74, 0
2, 179417, Note_on_c, 0, 90, 68
2, 179447, Note_on_c, 0, 90, 0
2, 179447, Note_on_c, 0, 91, 68
2, 179475, Note_on_c, 0, 91, 0
2, 179480, Note_on_c, 0, 93, 68
2, 179508, Note_on_c, 0, 93, 0
2, 179508, Note_on_c, 0, 94, 68
2, 179537, Note_on_c, 0, 95, 70
2, 179539, Note_on_c, 0, 94, 0
2, 179541, Note_on_c, 0, 64, 72
2, 179541, Note_on_c, 0, 67, 73
2, 179541, Note_on_c, 0, 71, 75
2, 179541, Note_on_c, 0, 76, 76
2, 179553, Note_on_c, 0, 52, 111
2, 179553, Note_on_c, 0, 55, 110
2, 179553, Note_on_c, 0, 59, 109
2, 179566, Note_on_c, 0, 95, 0
2, 179576, Note_on_c, 0, 91, 71
2, 179604, Note_on_c, 0, 91, 0
2, 179604, Note_on_c, 0, 88, 70
2, 179633, Note_on_c, 0, 88, 0
2, 179635, Note_on_c, 0, 83, 68
2, 179661, Note_on_c, 0, 83, 0
2, 179663, Note_on_c, 0, 76, 0
2, 179665, Note_on_c, 0, 79, 66
2, 179695, Note_on_c, 0, 79, 0
2, 179695, Note_on_c, 0, 71, 0
2, 179695, Note_on_c, 0, 76, 66
2, 179702, Note_on_c, 0, 59, 0
2, 179704, Note_on_c, 0, 55, 0
2, 179713, Control_c, 0, 64, 127
2, 179720, Note_on_c, 0, 52, 0
2, 179722, Note_on_c, 0, 67, 0
2, 179727, Note_on_c, 0, 71, 66
2, 179756, Note_on_c, 0, 67, 65
2, 179758, Note_on_c, 0, 76, 0
2, 179758, Note_on_c, 0, 64, 0
2, 179768, Note_on_c, 0, 71, 0
2, 179786, Note_on_c, 0, 67, 0
2, 179791, Note_on_c, 0, 59, 65
2, 179819, Note_on_c, 0, 59, 0
2, 179821, Note_on_c, 0, 55, 65
2, 179848, Note_on_c, 0, 55, 0
2, 179855, Note_on_c, 0, 52, 65
2, 179857, Note_on_c, 0, 64, 65
2, 179878, Note_on_c, 0, 45, 65
2, 179880, Control_c, 0, 64, 0
2, 179880, Note_on_c, 0, 33, 65
2, 179880, Note_on_c, 0, 72, 67
2, 179882, Note_on_c, 0, 52, 0
2, 179915, Note_on_c, 0, 45, 0
2, 179924, Note_on_c, 0, 33, 0
2, 179954, Note_on_c, 0, 32, 65
2, 179954, Note_on_c, 0, 44, 65
2, 179966, Note_on_c, 0, 72, 0
2, 179993, Note_on_c, 0, 44, 0
2, 179995, Note_on_c, 0, 32, 0
2, 180021, Note_on_c, 0, 74, 66
2, 180040, Note_on_c, 0, 72, 66
2, 180044, Note_on_c, 0, 33, 65
2, 180044, Note_on_c, 0, 45, 65
2, 180074, Note_on_c, 0, 74, 0
2, 180088, Note_on_c, 0, 45, 0
2, 180092, Note_on_c, 0, 33, 0
2, 180118, Note_on_c, 0, 72, 0
2, 180123, Note_on_c, 0, 47, 65
2, 180128, Note_on_c, 0, 35, 65
2, 180162, Note_on_c, 0, 35, 0
2, 180162, Note_on_c, 0, 47, 0
2, 180174, Note_on_c, 0, 71, 66
2, 180190, Note_on_c, 0, 69, 66
2, 180204, Note_on_c, 0, 36, 65
2, 180204, Note_on_c, 0, 48, 65
2, 180213, Note_on_c, 0, 71, 0
2, 180239, Note_on_c, 0, 48, 0
2, 180244, Note_on_c, 0, 36, 0
2, 180270, Note_on_c, 0, 69, 0
2, 180283, Note_on_c, 0, 37, 65
2, 180283, Note_on_c, 0, 49, 65
2, 180328, Note_on_c, 0, 49, 0
2, 180328, Note_on_c, 0, 37, 0
2, 180334, Note_on_c, 0, 67, 65
2, 180348, Note_on_c, 0, 64, 0
2, 180357, Note_on_c, 0, 66, 65
2, 180362, Note_on_c, 0, 50, 65
2, 180367, Note_on_c, 0, 38, 65
2, 180372, Note_on_c, 0, 67, 0
2, 180398, Note_on_c, 0, 50, 0
2, 180404, Note_on_c, 0, 38, 0
2, 180411, Note_on_c, 0, 66, 0
2, 180441, Note_on_c, 0, 42, 65
2, 180446, Note_on_c, 0, 30, 65
2, 180478, Note_on_c, 0, 42, 0
2, 180485, Note_on_c, 0, 30, 0
2, 180496, Note_on_c, 0, 62, 67
2, 180510, Note_on_c, 0, 71, 75
2, 180523, Note_on_c, 0, 43, 68
2, 180525, Note_on_c, 0, 31, 69
2, 180558, Note_on_c, 0, 43, 0
2, 180563, Note_on_c, 0, 31, 0
2, 180602, Note_on_c, 0, 71, 0
2, 180604, Note_on_c, 0, 42, 69
2, 180609, Note_on_c, 0, 30, 69
2, 180637, Note_on_c, 0, 42, 0
2, 180639, Note_on_c, 0, 30, 0
2, 180652, Note_on_c, 0, 72, 70
2, 180670, Note_on_c, 0, 71, 68
2, 180675, Note_on_c, 0, 43, 69
2, 180680, Note_on_c, 0, 31, 69
2, 180687, Note_on_c, 0, 72, 0
2, 180716, Note_on_c, 0, 31, 0
2, 180723, Note_on_c, 0, 43, 0
2, 180753, Note_on_c, 0, 33, 69
2, 180753, Note_on_c, 0, 45, 69
2, 180758, Note_on_c, 0, 71, 0
2, 180790, Note_on_c, 0, 45, 0
2, 180790, Note_on_c, 0, 33, 0
2, 180804, Note_on_c, 0, 69, 70
2, 180817, Note_on_c, 0, 67, 71
2, 180831, Note_on_c, 0, 34, 68
2, 180831, Note_on_c, 0, 46, 69
2, 180844, Note_on_c, 0, 69, 0
2, 180870, Note_on_c, 0, 46, 0
2, 180875, Note_on_c, 0, 34, 0
2, 180877, Note_on_c, 0, 67, 0
2, 180900, Note_on_c, 0, 47, 73
2, 180904, Note_on_c, 0, 35, 73
2, 180934, Note_on_c, 0, 62, 0
2, 180939, Note_on_c, 0, 35, 0
2, 180946, Note_on_c, 0, 47, 0
2, 180962, Note_on_c, 0, 66, 73
2, 180976, Note_on_c, 0, 64, 73
2, 180977, Note_on_c, 0, 36, 73
2, 180977, Note_on_c, 0, 48, 73
2, 180996, Note_on_c, 0, 66, 0
2, 181012, Note_on_c, 0, 48, 0
2, 181033, Note_on_c, 0, 36, 0
2, 181063, Note_on_c, 0, 40, 73
2, 181068, Note_on_c, 0, 28, 73
2, 181081, Note_on_c, 0, 64, 0
2, 181102, Note_on_c, 0, 28, 0
2, 181102, Note_on_c, 0, 40, 0
2, 181114, Note_on_c, 0, 67, 73
2, 181132, Note_on_c, 0, 60, 73
2, 181132, Note_on_c, 0, 66, 76
2, 181139, Note_on_c, 0, 33, 73
2, 181139, Note_on_c, 0, 45, 73
2, 181152, Note_on_c, 0, 67, 0
2, 181168, Note_on_c, 0, 66, 0
2, 181175, Note_on_c, 0, 45, 0
2, 181180, Note_on_c, 0, 33, 0
2, 181213, Note_on_c, 0, 46, 73
2, 181219, Note_on_c, 0, 34, 73
2, 181249, Note_on_c, 0, 46, 0
2, 181254, Note_on_c, 0, 34, 0
2, 181265, Note_on_c, 0, 60, 0
2, 181282, Note_on_c, 0, 64, 73
2, 181291, Note_on_c, 0, 47, 73
2, 181293, Note_on_c, 0, 35, 73
2, 181298, Note_on_c, 0, 54, 73
2, 181298, Note_on_c, 0, 63, 73
2, 181316, Note_on_c, 0, 64, 0
2, 181326, Note_on_c, 0, 47, 0
2, 181331, Note_on_c, 0, 35, 0
2, 181333, Note_on_c, 0, 63, 0
2, 181362, Note_on_c, 0, 48, 73
2, 181367, Note_on_c, 0, 36, 73
2, 181402, Note_on_c, 0, 48, 0
2, 181411, Note_on_c, 0, 36, 0
2, 181432, Note_on_c, 0, 69, 74
2, 181439, Note_on_c, 0, 54, 0
2, 181444, Note_on_c, 0, 49, 73
2, 181449, Note_on_c, 0, 37, 73
2, 181451, Note_on_c, 0, 59, 72
2, 181451, Note_on_c, 0, 67, 76
2, 181467, Note_on_c, 0, 69, 0
2, 181497, Note_on_c, 0, 49, 0
2, 181497, Note_on_c, 0, 37, 0
2, 181506, Note_on_c, 0, 67, 0
2, 181529, Note_on_c, 0, 51, 80
2, 181534, Note_on_c, 0, 39, 81
2, 181574, Note_on_c, 0, 39, 0
2, 181574, Note_on_c, 0, 51, 0
2, 181574, Note_on_c, 0, 59, 0
2, 181576, Note_on_c, 0, 66, 80
2, 181597, Note_on_c, 0, 64, 82
2, 181599, Note_on_c, 0, 52, 80
2, 181600, Note_on_c, 0, 40, 80
2, 181612, Note_on_c, 0, 66, 0
2, 181633, Note_on_c, 0, 52, 0
2, 181635, Note_on_c, 0, 40, 0
2, 181681, Note_on_c, 0, 43, 80
2, 181681, Note_on_c, 0, 55, 80
2, 181711, Note_on_c, 0, 43, 0
2, 181718, Note_on_c, 0, 55, 0
2, 181724, Note_on_c, 0, 71, 81
2, 181757, Note_on_c, 0, 45, 80
2, 181757, Note_on_c, 0, 57, 80
2, 181757, Note_on_c, 0, 72, 84
2, 181767, Note_on_c, 0, 71, 0
2, 181790, Note_on_c, 0, 45, 0
2, 181794, Note_on_c, 0, 57, 0
2, 181829, Note_on_c, 0, 72, 0
2, 181834, Note_on_c, 0, 47, 80
2, 181836, Note_on_c, 0, 59, 80
2, 181868, Note_on_c, 0, 59, 0
2, 181868, Note_on_c, 0, 47, 0
2, 181875, Note_on_c, 0, 71, 81
2, 181900, Note_on_c, 0, 69, 83
2, 181907, Note_on_c, 0, 48, 82
2, 181907, Note_on_c, 0, 60, 83
2, 181920, Note_on_c, 0, 71, 0
2, 181934, Note_on_c, 0, 60, 0
2, 181938, Note_on_c, 0, 48, 0
2, 181963, Note_on_c, 0, 69, 0
2, 181977, Note_on_c, 0, 61, 89
2, 181982, Note_on_c, 0, 49, 90
2, 182000, Note_on_c, 0, 64, 0
2, 182016, Note_on_c, 0, 49, 0
2, 182016, Note_on_c, 0, 61, 0
2, 182016, Note_on_c, 0, 67, 94
2, 182054, Note_on_c, 0, 62, 94
2, 182058, Note_on_c, 0, 74, 92
2, 182063, Note_on_c, 0, 50, 96
2, 182068, Note_on_c, 0, 67, 0
2, 182068, Control_c, 0, 64, 127
2, 182096, Note_on_c, 0, 62, 0
2, 182098, Note_on_c, 0, 74, 0
2, 182109, Note_on_c, 0, 50, 0
2, 182167, Note_on_c, 0, 81, 93
2, 182192, Note_on_c, 0, 83, 88
2, 182205, Note_on_c, 0, 85, 86
2, 182207, Note_on_c, 0, 81, 0
2, 182219, Note_on_c, 0, 86, 90
2, 182221, Note_on_c, 0, 78, 90
2, 182223, Note_on_c, 0, 83, 0
2, 182223, Note_on_c, 0, 50, 112
2, 182224, Note_on_c, 0, 38, 112
2, 182224, Note_on_c, 0, 45, 112
2, 182238, Note_on_c, 0, 85, 0
2, 182254, Note_on_c, 0, 45, 0
2, 182256, Note_on_c, 0, 78, 0
2, 182256, Note_on_c, 0, 86, 0
2, 182261, Note_on_c, 0, 50, 0
2, 182261, Note_on_c, 0, 38, 0
2, 182271, Control_c, 0, 64, 0
2, 182391, Note_on_c, 0, 62, 102
2, 182391, Note_on_c, 0, 67, 74
2, 182391, Note_on_c, 0, 74, 74
2, 182400, Note_on_c, 0, 59, 77
2, 182414, Note_on_c, 0, 43, 76
2, 182414, Note_on_c, 0, 55, 75
2, 182416, Note_on_c, 0, 62, 0
2, 182420, Note_on_c, 0, 67, 0
2, 182427, Note_on_c, 0, 59, 0
2, 182427, Note_on_c, 0, 74, 0
2, 182437, Note_on_c, 0, 57, 71
2, 182439, Control_c, 0, 64, 127
2, 182439, Note_on_c, 0, 45, 71
2, 182443, Note_on_c, 0, 55, 0
2, 182448, Note_on_c, 0, 43, 0
2, 182469, Note_on_c, 0, 57, 0
2, 182469, Note_on_c, 0, 45, 0
2, 182469, Note_on_c, 0, 47, 73
2, 182471, Note_on_c, 0, 59, 73
2, 182499, Note_on_c, 0, 59, 0
2, 182499, Note_on_c, 0, 47, 0
2, 182501, Note_on_c, 0, 48, 72
2, 182501, Note_on_c, 0, 60, 73
2, 182522, Control_c, 0, 64, 0
2, 182529, Note_on_c, 0, 60, 0
2, 182529, Note_on_c, 0, 48, 0
2, 182529, Note_on_c, 0, 62, 72
2, 182534, Note_on_c, 0, 50, 73
2, 182561, Note_on_c, 0, 62, 0
2, 182561, Note_on_c, 0, 64, 73
2, 182563, Note_on_c, 0, 50, 0
2, 182563, Note_on_c, 0, 52, 73
2, 182580, Note_on_c, 0, 55, 72
2, 182580, Note_on_c, 0, 59, 73
2, 182580, Note_on_c, 0, 62, 72
2, 182580, Note_on_c, 0, 67, 73
2, 182580, Note_on_c, 0, 74, 73
2, 182593, Note_on_c, 0, 52, 0
2, 182593, Note_on_c, 0, 64, 0
2, 182593, Note_on_c, 0, 54, 73
2, 182593, Note_on_c, 0, 66, 72
2, 182595, Note_on_c, 0, 67, 0
2, 182595, Note_on_c, 0, 74, 0
2, 182600, Note_on_c, 0, 62, 0
2, 182602, Note_on_c, 0, 59, 0
2, 182604, Note_on_c, 0, 55, 0
2, 182622, Note_on_c, 0, 54, 0
2, 182622, Note_on_c, 0, 62, 73
2, 182622, Note_on_c, 0, 74, 74
2, 182624, Note_on_c, 0, 55, 72
2, 182624, Note_on_c, 0, 67, 73
2, 182626, Note_on_c, 0, 59, 73
2, 182628, Note_on_c, 0, 66, 0
2, 182639, Note_on_c, 0, 74, 0
2, 182644, Note_on_c, 0, 55, 0
2, 182644, Note_on_c, 0, 62, 0
2, 182644, Note_on_c, 0, 67, 0
2, 182646, Note_on_c, 0, 59, 0
2, 182651, Note_on_c, 0, 57, 73
2, 182651, Note_on_c, 0, 69, 74
2, 182662, Note_on_c, 0, 62, 73
2, 182662, Note_on_c, 0, 74, 74
2, 182667, Note_on_c, 0, 67, 72
2, 182669, Note_on_c, 0, 55, 73
2, 182679, Note_on_c, 0, 69, 0
2, 182679, Note_on_c, 0, 71, 74
2, 182680, Note_on_c, 0, 59, 73
2, 182682, Note_on_c, 0, 57, 0
2, 182684, Note_on_c, 0, 67, 0
2, 182689, Note_on_c, 0, 55, 0
2, 182699, Note_on_c, 0, 74, 0
2, 182704, Note_on_c, 0, 59, 0
2, 182704, Note_on_c, 0, 62, 0
2, 182705, Note_on_c, 0, 71, 0
2, 182707, Note_on_c, 0, 73, 75
2, 182707, Note_on_c, 0, 76, 75
2, 182712, Note_on_c, 0, 61, 73
2, 182712, Note_on_c, 0, 64, 74
2, 182712, Note_on_c, 0, 67, 73
2, 182714, Note_on_c, 0, 52, 73
2, 182721, Note_on_c, 0, 55, 73
2, 182721, Note_on_c, 0, 59, 73
2, 182737, Note_on_c, 0, 73, 0
2, 182742, Note_on_c, 0, 61, 0
2, 182742, Note_on_c, 0, 62, 73
2, 182742, Note_on_c, 0, 74, 74
2, 182744, Note_on_c, 0, 67, 0
2, 182744, Note_on_c, 0, 76, 0
2, 182744, Note_on_c, 0, 64, 0
2, 182749, Note_on_c, 0, 52, 0
2, 182749, Note_on_c, 0, 55, 0
2, 182749, Note_on_c, 0, 59, 0
2, 182767, Note_on_c, 0, 76, 74
2, 182769, Note_on_c, 0, 62, 0
2, 182769, Note_on_c, 0, 74, 0
2, 182774, Note_on_c, 0, 64, 72
2, 182799, Note_on_c, 0, 76, 0
2, 182799, Note_on_c, 0, 78, 74
2, 182803, Note_on_c, 0, 64, 0
2, 182803, Note_on_c, 0, 66, 73
2, 182831, Note_on_c, 0, 78, 0
2, 182833, Note_on_c, 0, 66, 0
2, 182835, Note_on_c, 0, 67, 73
2, 182835, Note_on_c, 0, 79, 74
2, 182863, Note_on_c, 0, 79, 0
2, 182865, Note_on_c, 0, 67, 0
2, 182867, Note_on_c, 0, 81, 76
2, 182869, Note_on_c, 0, 69, 74
2, 182894, Note_on_c, 0, 81, 0
2, 182894, Note_on_c, 0, 71, 72
2, 182894, Note_on_c, 0, 76, 70
2, 182896, Note_on_c, 0, 69, 0
2, 182896, Note_on_c, 0, 67, 67
2, 182900, Note_on_c, 0, 55, 73
2, 182900, Note_on_c, 0, 83, 69
2, 182902, Note_on_c, 0, 59, 73
2, 182902, Note_on_c, 0, 64, 66
2, 182909, Note_on_c, 0, 52, 73
2, 182925, Note_on_c, 0, 83, 0
2, 182925, Note_on_c, 0, 71, 0
2, 182927, Note_on_c, 0, 73, 71
2, 182927, Note_on_c, 0, 85, 74
2, 182929, Note_on_c, 0, 59, 0
2, 182931, Note_on_c, 0, 67, 0
2, 182933, Note_on_c, 0, 76, 0
2, 182933, Note_on_c, 0, 55, 0
2, 182933, Note_on_c, 0, 64, 0
2, 182935, Note_on_c, 0, 52, 0
2, 182956, Note_on_c, 0, 73, 0
2, 182956, Note_on_c, 0, 85, 0
2, 182958, Note_on_c, 0, 74, 73
2, 182958, Note_on_c, 0, 86, 76
2, 182988, Note_on_c, 0, 86, 0
2, 182988, Note_on_c, 0, 74, 0
2, 182994, Note_on_c, 0, 76, 73
2, 182994, Note_on_c, 0, 88, 76
2, 183019, Note_on_c, 0, 88, 0
2, 183021, Note_on_c, 0, 76, 0
2, 183026, Note_on_c, 0, 90, 76
2, 183028, Note_on_c, 0, 78, 74
2, 183049, Note_on_c, 0, 78, 0
2, 183049, Note_on_c, 0, 47, 73
2, 183056, Note_on_c, 0, 90, 0
2, 183061, Note_on_c, 0, 54, 73
2, 183061, Note_on_c, 0, 92, 77
2, 183067, Note_on_c, 0, 80, 74
2, 183074, Note_on_c, 0, 62, 73
2, 183074, Note_on_c, 0, 66, 74
2, 183074, Note_on_c, 0, 71, 74
2, 183074, Note_on_c, 0, 78, 75
2, 183086, Note_on_c, 0, 47, 0
2, 183092, Note_on_c, 0, 92, 0
2, 183094, Note_on_c, 0, 80, 0
2, 183099, Note_on_c, 0, 54, 0
2, 183099, Note_on_c, 0, 94, 76
2, 183101, Note_on_c, 0, 82, 75
2, 183103, Note_on_c, 0, 71, 0
2, 183103, Note_on_c, 0, 66, 0
2, 183108, Note_on_c, 0, 78, 0
2, 183112, Note_on_c, 0, 62, 0
2, 183129, Note_on_c, 0, 82, 0
2, 183129, Note_on_c, 0, 94, 0
2, 183140, Note_on_c, 0, 83, 75
2, 183140, Note_on_c, 0, 95, 76
2, 183168, Note_on_c, 0, 95, 0
2, 183170, Note_on_c, 0, 83, 0
2, 183182, Note_on_c, 0, 85, 76
2, 183182, Note_on_c, 0, 97, 79
2, 183209, Note_on_c, 0, 97, 0
2, 183209, Note_on_c, 0, 85, 0
2, 183219, Note_on_c, 0, 98, 78
2, 183221, Note_on_c, 0, 86, 76
2, 183244, Note_on_c, 0, 98, 0
2, 183244, Note_on_c, 0, 62, 73
2, 183244, Note_on_c, 0, 71, 71
2, 183246, Note_on_c, 0, 74, 69
2, 183248, Note_on_c, 0, 55, 73
2, 183248, Note_on_c, 0, 67, 67
2, 183250, Note_on_c, 0, 86, 0
2, 183252, Note_on_c, 0, 100, 74
2, 183254, Note_on_c, 0, 59, 73
2, 183258, Note_on_c, 0, 88, 73
2, 183272, Note_on_c, 0, 55, 0
2, 183272, Note_on_c, 0, 62, 0
2, 183274, Note_on_c, 0, 74, 0
2, 183274, Note_on_c, 0, 71, 0
2, 183276, Note_on_c, 0, 67, 0
2, 183280, Note_on_c, 0, 88, 0
2, 183280, Note_on_c, 0, 100, 0
2, 183280, Note_on_c, 0, 59, 0
2, 183292, Note_on_c, 0, 102, 79
2, 183294, Note_on_c, 0, 90, 76
2, 183319, Note_on_c, 0, 90, 0
2, 183319, Note_on_c, 0, 102, 0
2, 183330, Note_on_c, 0, 91, 75
2, 183330, Note_on_c, 0, 103, 79
2, 183353, Note_on_c, 0, 103, 0
2, 183355, Note_on_c, 0, 91, 0
2, 183362, Note_on_c, 0, 92, 76
2, 183364, Note_on_c, 0, 104, 79
2, 183394, Note_on_c, 0, 104, 0
2, 183394, Note_on_c, 0, 93, 76
2, 183396, Note_on_c, 0, 92, 0
2, 183424, Note_on_c, 0, 93, 0
2, 183424, Note_on_c, 0, 95, 80
2, 183428, Note_on_c, 0, 64, 78
2, 183428, Note_on_c, 0, 67, 79
2, 183428, Note_on_c, 0, 71, 81
2, 183428, Note_on_c, 0, 76, 82
2, 183430, Note_on_c, 0, 59, 73
2, 183432, Note_on_c, 0, 55, 73
2, 183434, Note_on_c, 0, 52, 73
2, 183450, Note_on_c, 0, 95, 0
2, 183452, Note_on_c, 0, 91, 79
2, 183454, Note_on_c, 0, 103, 81
2, 183479, Note_on_c, 0, 103, 0
2, 183481, Note_on_c, 0, 91, 0
2, 183481, Note_on_c, 0, 100, 79
2, 183483, Note_on_c, 0, 88, 75
2, 183508, Note_on_c, 0, 100, 0
2, 183510, Note_on_c, 0, 88, 0
2, 183510, Note_on_c, 0, 95, 76
2, 183515, Note_on_c, 0, 83, 75
2, 183540, Note_on_c, 0, 95, 0
2, 183540, Note_on_c, 0, 91, 76
2, 183542, Note_on_c, 0, 83, 0
2, 183542, Note_on_c, 0, 79, 73
2, 183548, Note_on_c, 0, 76, 0
2, 183569, Note_on_c, 0, 91, 0
2, 183571, Note_on_c, 0, 71, 0
2, 183571, Note_on_c, 0, 79, 0
2, 183571, Note_on_c, 0, 76, 74
2, 183571, Note_on_c, 0, 88, 76
2, 183594, Control_c, 0, 64, 127
2, 183596, Note_on_c, 0, 88, 0
2, 183598, Note_on_c, 0, 67, 0
2, 183600, Note_on_c, 0, 83, 76
2, 183602, Note_on_c, 0, 71, 74
2, 183623, Note_on_c, 0, 59, 0
2, 183623, Note_on_c, 0, 64, 0
2, 183623, Note_on_c, 0, 76, 0
2, 183625, Note_on_c, 0, 55, 0
2, 183627, Note_on_c, 0, 52, 0
2, 183627, Note_on_c, 0, 83, 0
2, 183629, Note_on_c, 0, 71, 0
2, 183631, Note_on_c, 0, 79, 80
2, 183633, Note_on_c, 0, 67, 80
2, 183658, Note_on_c, 0, 67, 0
2, 183658, Note_on_c, 0, 79, 0
2, 183663, Note_on_c, 0, 64, 85
2, 183663, Note_on_c, 0, 76, 87
2, 183684, Note_on_c, 0, 71, 88
2, 183686, Note_on_c, 0, 59, 82
2, 183690, Note_on_c, 0, 76, 0
2, 183690, Note_on_c, 0, 64, 0
2, 183707, Note_on_c, 0, 67, 84
2, 183709, Control_c, 0, 64, 0
2, 183709, Note_on_c, 0, 55, 80
2, 183713, Note_on_c, 0, 71, 0
2, 183718, Note_on_c, 0, 59, 0
2, 183730, Note_on_c, 0, 52, 80
2, 183730, Note_on_c, 0, 64, 82
2, 183735, Note_on_c, 0, 67, 0
2, 183758, Note_on_c, 0, 62, 80
2, 183758, Note_on_c, 0, 74, 82
2, 183760, Note_on_c, 0, 64, 0
2, 183760, Note_on_c, 0, 52, 0
2, 183760, Note_on_c, 0, 59, 80
2, 183760, Note_on_c, 0, 67, 80
2, 183778, Note_on_c, 0, 43, 79
2, 183784, Note_on_c, 0, 67, 0
2, 183784, Note_on_c, 0, 62, 0
2, 183786, Note_on_c, 0, 59, 0
2, 183786, Note_on_c, 0, 74, 0
2, 183796, Note_on_c, 0, 57, 80
2, 183801, Control_c, 0, 64, 127
2, 183801, Note_on_c, 0, 45, 80
2, 183806, Note_on_c, 0, 55, 0
2, 183806, Note_on_c, 0, 43, 0
2, 183829, Note_on_c, 0, 57, 0
2, 183833, Note_on_c, 0, 45, 0
2, 183833, Note_on_c, 0, 47, 80
2, 183833, Note_on_c, 0, 59, 79
2, 183861, Note_on_c, 0, 59, 0
2, 183861, Note_on_c, 0, 47, 0
2, 183861, Note_on_c, 0, 60, 79
2, 183866, Note_on_c, 0, 48, 80
2, 183891, Note_on_c, 0, 60, 0
2, 183896, Note_on_c, 0, 48, 0
2, 183896, Note_on_c, 0, 50, 80
2, 183896, Note_on_c, 0, 62, 79
2, 183921, Control_c, 0, 64, 0
2, 183923, Note_on_c, 0, 50, 0
2, 183925, Note_on_c, 0, 64, 80
2, 183927, Note_on_c, 0, 52, 80
2, 183928, Note_on_c, 0, 74, 81
2, 183930, Note_on_c, 0, 55, 80
2, 183930, Note_on_c, 0, 67, 80
2, 183932, Note_on_c, 0, 59, 80
2, 183949, Note_on_c, 0, 67, 0
2, 183949, Note_on_c, 0, 64, 0
2, 183949, Note_on_c, 0, 62, 0
2, 183949, Note_on_c, 0, 74, 0
2, 183949, Note_on_c, 0, 66, 79
2, 183951, Note_on_c, 0, 59, 0
2, 183952, Note_on_c, 0, 52, 0
2, 183952, Note_on_c, 0, 55, 0
2, 183952, Note_on_c, 0, 54, 80
2, 183974, Note_on_c, 0, 62, 80
2, 183974, Note_on_c, 0, 67, 80
2, 183974, Note_on_c, 0, 74, 80
2, 183976, Note_on_c, 0, 59, 80
2, 183977, Note_on_c, 0, 55, 80
2, 183979, Note_on_c, 0, 54, 0
2, 183979, Note_on_c, 0, 66, 0
2, 184002, Note_on_c, 0, 67, 0
2, 184002, Note_on_c, 0, 74, 0
2, 184002, Note_on_c, 0, 59, 0
2, 184004, Note_on_c, 0, 55, 0
2, 184004, Note_on_c, 0, 62, 0
2, 184011, Note_on_c, 0, 57, 79
2, 184011, Note_on_c, 0, 69, 81
2, 184023, Note_on_c, 0, 62, 80
2, 184024, Note_on_c, 0, 67, 80
2, 184024, Note_on_c, 0, 74, 81
2, 184029, Note_on_c, 0, 55, 80
2, 184041, Note_on_c, 0, 69, 0
2, 184041, Note_on_c, 0, 71, 81
2, 184043, Note_on_c, 0, 57, 0
2, 184043, Note_on_c, 0, 59, 80
2, 184045, Note_on_c, 0, 67, 0
2, 184047, Note_on_c, 0, 55, 0
2, 184053, Note_on_c, 0, 62, 0
2, 184060, Note_on_c, 0, 74, 0
2, 184065, Note_on_c, 0, 59, 0
2, 184067, Note_on_c, 0, 71, 0
2, 184069, Note_on_c, 0, 76, 85
2, 184071, Note_on_c, 0, 55, 80
2, 184071, Note_on_c, 0, 61, 80
2, 184071, Note_on_c, 0, 64, 85
2, 184071, Note_on_c, 0, 67, 86
2, 184071, Note_on_c, 0, 73, 88
2, 184072, Note_on_c, 0, 52, 79
2, 184079, Note_on_c, 0, 59, 80
2, 184097, Note_on_c, 0, 73, 0
2, 184097, Note_on_c, 0, 61, 0
2, 184099, Note_on_c, 0, 62, 80
2, 184099, Note_on_c, 0, 74, 83
2, 184104, Note_on_c, 0, 59, 0
2, 184104, Note_on_c, 0, 67, 0
2, 184104, Note_on_c, 0, 64, 0
2, 184104, Note_on_c, 0, 76, 0
2, 184106, Note_on_c, 0, 52, 0
2, 184106, Note_on_c, 0, 55, 0
2, 184129, Note_on_c, 0, 62, 0
2, 184129, Note_on_c, 0, 74, 0
2, 184129, Note_on_c, 0, 64, 80
2, 184129, Note_on_c, 0, 76, 81
2, 184159, Note_on_c, 0, 76, 0
2, 184159, Note_on_c, 0, 64, 0
2, 184161, Note_on_c, 0, 78, 80
2, 184163, Note_on_c, 0, 66, 80
2, 184191, Note_on_c, 0, 66, 0
2, 184191, Note_on_c, 0, 78, 0
2, 184191, Note_on_c, 0, 67, 80
2, 184191, Note_on_c, 0, 79, 81
2, 184220, Note_on_c, 0, 79, 0
2, 184220, Note_on_c, 0, 67, 0
2, 184220, Note_on_c, 0, 81, 82
2, 184225, Note_on_c, 0, 69, 78
2, 184237, Note_on_c, 0, 67, 76
2, 184237, Note_on_c, 0, 76, 76
2, 184241, Note_on_c, 0, 55, 80
2, 184241, Note_on_c, 0, 64, 74
2, 184251, Note_on_c, 0, 52, 80
2, 184251, Note_on_c, 0, 59, 80
2, 184251, Note_on_c, 0, 71, 77
2, 184253, Note_on_c, 0, 69, 0
2, 184253, Note_on_c, 0, 81, 0
2, 184253, Note_on_c, 0, 83, 82
2, 184266, Note_on_c, 0, 67, 0
2, 184268, Note_on_c, 0, 64, 0
2, 184275, Note_on_c, 0, 59, 0
2, 184275, Note_on_c, 0, 76, 0
2, 184275, Note_on_c, 0, 55, 0
2, 184275, Note_on_c, 0, 52, 0
2, 184277, Note_on_c, 0, 85, 82
2, 184279, Note_on_c, 0, 83, 0
2, 184279, Note_on_c, 0, 73, 81
2, 184284, Note_on_c, 0, 71, 0
2, 184309, Note_on_c, 0, 73, 0
2, 184309, Note_on_c, 0, 85, 0
2, 184311, Note_on_c, 0, 86, 82
2, 184315, Note_on_c, 0, 74, 81
2, 184340, Note_on_c, 0, 74, 0
2, 184340, Note_on_c, 0, 86, 0
2, 184342, Note_on_c, 0, 76, 80
2, 184342, Note_on_c, 0, 88, 83
2, 184370, Note_on_c, 0, 88, 0
2, 184370, Note_on_c, 0, 47, 80
2, 184372, Note_on_c, 0, 76, 0
2, 184372, Note_on_c, 0, 78, 81
2, 184374, Note_on_c, 0, 90, 82
2, 184395, Note_on_c, 0, 54, 80
2, 184400, Note_on_c, 0, 92, 85
2, 184405, Note_on_c, 0, 90, 0
2, 184405, Note_on_c, 0, 66, 83
2, 184405, Note_on_c, 0, 71, 85
2, 184405, Note_on_c, 0, 80, 86
2, 184409, Note_on_c, 0, 47, 0
2, 184414, Note_on_c, 0, 62, 80
2, 184431, Note_on_c, 0, 92, 0
2, 184432, Note_on_c, 0, 80, 0
2, 184437, Note_on_c, 0, 94, 84
2, 184439, Note_on_c, 0, 71, 0
2, 184441, Note_on_c, 0, 78, 0
2, 184441, Note_on_c, 0, 82, 83
2, 184443, Note_on_c, 0, 66, 0
2, 184443, Note_on_c, 0, 62, 0
2, 184443, Note_on_c, 0, 54, 0
2, 184471, Note_on_c, 0, 94, 0
2, 184471, Note_on_c, 0, 82, 0
2, 184476, Note_on_c, 0, 95, 82
2, 184478, Note_on_c, 0, 83, 83
2, 184505, Note_on_c, 0, 83, 0
2, 184505, Note_on_c, 0, 95, 0
2, 184512, Note_on_c, 0, 85, 82
2, 184514, Note_on_c, 0, 97, 86
2, 184539, Note_on_c, 0, 97, 0
2, 184544, Note_on_c, 0, 85, 0
2, 184549, Note_on_c, 0, 98, 86
2, 184551, Note_on_c, 0, 86, 83
2, 184576, Note_on_c, 0, 74, 81
2, 184577, Note_on_c, 0, 98, 0
2, 184577, Note_on_c, 0, 55, 80
2, 184577, Note_on_c, 0, 59, 80
2, 184577, Note_on_c, 0, 62, 79
2, 184577, Note_on_c, 0, 67, 81
2, 184577, Note_on_c, 0, 71, 81
2, 184579, Note_on_c, 0, 86, 0
2, 184586, Note_on_c, 0, 88, 82
2, 184586, Note_on_c, 0, 100, 86
2, 184604, Note_on_c, 0, 59, 0
2, 184609, Note_on_c, 0, 67, 0
2, 184609, Note_on_c, 0, 74, 0
2, 184609, Note_on_c, 0, 62, 0
2, 184609, Note_on_c, 0, 71, 0
2, 184614, Note_on_c, 0, 100, 0
2, 184614, Note_on_c, 0, 88, 0
2, 184614, Note_on_c, 0, 55, 0
2, 184621, Note_on_c, 0, 102, 86
2, 184627, Note_on_c, 0, 90, 82
2, 184648, Note_on_c, 0, 102, 0
2, 184653, Note_on_c, 0, 90, 0
2, 184653, Note_on_c, 0, 91, 83
2, 184653, Note_on_c, 0, 103, 85
2, 184676, Note_on_c, 0, 103, 0
2, 184681, Note_on_c, 0, 91, 0
2, 184681, Note_on_c, 0, 92, 83
2, 184693, Note_on_c, 0, 104, 85
2, 184711, Note_on_c, 0, 92, 0
2, 184711, Note_on_c, 0, 93, 83
2, 184720, Note_on_c, 0, 104, 0
2, 184739, Note_on_c, 0, 93, 0
2, 184744, Note_on_c, 0, 71, 85
2, 184744, Note_on_c, 0, 76, 86
2, 184744, Note_on_c, 0, 95, 89
2, 184745, Note_on_c, 0, 55, 112
2, 184745, Note_on_c, 0, 64, 87
2, 184745, Note_on_c, 0, 67, 88
2, 184750, Note_on_c, 0, 52, 112
2, 184757, Note_on_c, 0, 59, 112
2, 184767, Note_on_c, 0, 95, 0
2, 184768, Note_on_c, 0, 91, 88
2, 184768, Note_on_c, 0, 103, 90
2, 184792, Note_on_c, 0, 103, 0
2, 184793, Note_on_c, 0, 100, 95
2, 184795, Note_on_c, 0, 91, 0
2, 184795, Note_on_c, 0, 88, 93
2, 184820, Note_on_c, 0, 100, 0
2, 184827, Note_on_c, 0, 88, 0
2, 184827, Note_on_c, 0, 83, 88
2, 184827, Note_on_c, 0, 95, 86
2, 184855, Note_on_c, 0, 95, 0
2, 184855, Note_on_c, 0, 83, 0
2, 184857, Note_on_c, 0, 79, 80
2, 184857, Note_on_c, 0, 91, 83
2, 184859, Note_on_c, 0, 76, 0
2, 184884, Note_on_c, 0, 91, 0
2, 184884, Note_on_c, 0, 88, 83
2, 184886, Note_on_c, 0, 71, 0
2, 184886, Note_on_c, 0, 79, 0
2, 184886, Note_on_c, 0, 76, 85
2, 184904, Note_on_c, 0, 55, 0
2, 184906, Note_on_c, 0, 59, 0
2, 184908, Control_c, 0, 64, 127
2, 184910, Note_on_c, 0, 52, 0
2, 184910, Note_on_c, 0, 88, 0
2, 184912, Note_on_c, 0, 67, 0
2, 184912, Note_on_c, 0, 83, 91
2, 184913, Note_on_c, 0, 64, 0
2, 184913, Note_on_c, 0, 71, 89
2, 184923, Note_on_c, 0, 76, 0
2, 184944, Note_on_c, 0, 71, 0
2, 184944, Note_on_c, 0, 83, 0
2, 184944, Note_on_c, 0, 79, 86
2, 184949, Note_on_c, 0, 67, 83
2, 184970, Note_on_c, 0, 64, 81
2, 184970, Note_on_c, 0, 76, 81
2, 184975, Note_on_c, 0, 67, 0
2, 184977, Note_on_c, 0, 79, 0
2, 184990, Note_on_c, 0, 71, 78
2, 184995, Note_on_c, 0, 59, 75
2, 184997, Note_on_c, 0, 76, 0
2, 184999, Note_on_c, 0, 64, 0
2, 185017, Note_on_c, 0, 55, 74
2, 185017, Note_on_c, 0, 67, 74
2, 185019, Note_on_c, 0, 71, 0
2, 185021, Note_on_c, 0, 59, 0
2, 185039, Note_on_c, 0, 64, 72
2, 185041, Note_on_c, 0, 67, 0
2, 185041, Note_on_c, 0, 52, 71
2, 185046, Note_on_c, 0, 55, 0
2, 185046, Note_on_c, 0, 76, 70
2, 185057, Note_on_c, 0, 84, 71
2, 185067, Control_c, 0, 64, 0
2, 185067, Note_on_c, 0, 33, 68
2, 185067, Note_on_c, 0, 45, 67
2, 185069, Note_on_c, 0, 64, 0
2, 185074, Note_on_c, 0, 52, 0
2, 185092, Note_on_c, 0, 45, 0
2, 185104, Note_on_c, 0, 33, 0
2, 185145, Note_on_c, 0, 32, 65
2, 185145, Note_on_c, 0, 44, 65
2, 185147, Note_on_c, 0, 84, 0
2, 185181, Note_on_c, 0, 44, 0
2, 185183, Note_on_c, 0, 32, 0
2, 185204, Note_on_c, 0, 86, 68
2, 185218, Note_on_c, 0, 84, 65
2, 185227, Note_on_c, 0, 33, 65
2, 185227, Note_on_c, 0, 45, 65
2, 185246, Note_on_c, 0, 86, 0
2, 185262, Note_on_c, 0, 45, 0
2, 185278, Note_on_c, 0, 33, 0
2, 185301, Note_on_c, 0, 47, 65
2, 185303, Note_on_c, 0, 35, 65
2, 185315, Note_on_c, 0, 84, 0
2, 185336, Note_on_c, 0, 47, 0
2, 185341, Note_on_c, 0, 35, 0
2, 185350, Note_on_c, 0, 83, 68
2, 185375, Note_on_c, 0, 81, 68
2, 185387, Note_on_c, 0, 36, 67
2, 185387, Note_on_c, 0, 48, 68
2, 185393, Note_on_c, 0, 83, 0
2, 185421, Note_on_c, 0, 36, 0
2, 185421, Note_on_c, 0, 48, 0
2, 185449, Note_on_c, 0, 81, 0
2, 185463, Note_on_c, 0, 37, 69
2, 185464, Note_on_c, 0, 49, 69
2, 185497, Note_on_c, 0, 76, 0
2, 185499, Note_on_c, 0, 49, 0
2, 185511, Note_on_c, 0, 37, 0
2, 185520, Note_on_c, 0, 79, 70
2, 185541, Note_on_c, 0, 50, 69
2, 185543, Note_on_c, 0, 38, 69
2, 185545, Note_on_c, 0, 78, 67
2, 185547, Note_on_c, 0, 69, 66
2, 185554, Note_on_c, 0, 79, 0
2, 185586, Note_on_c, 0, 50, 0
2, 185586, Note_on_c, 0, 38, 0
2, 185616, Note_on_c, 0, 36, 69
2, 185616, Note_on_c, 0, 48, 67
2, 185628, Note_on_c, 0, 78, 0
2, 185630, Note_on_c, 0, 69, 0
2, 185653, Note_on_c, 0, 48, 0
2, 185664, Note_on_c, 0, 36, 0
2, 185676, Note_on_c, 0, 81, 68
2, 185704, Note_on_c, 0, 47, 65
2, 185705, Note_on_c, 0, 35, 65
2, 185705, Note_on_c, 0, 78, 67
2, 185705, Note_on_c, 0, 86, 68
2, 185740, Note_on_c, 0, 47, 0
2, 185745, Note_on_c, 0, 35, 0
2, 185768, Note_on_c, 0, 81, 0
2, 185784, Note_on_c, 0, 34, 69
2, 185784, Note_on_c, 0, 46, 70
2, 185807, Note_on_c, 0, 86, 0
2, 185819, Note_on_c, 0, 46, 0
2, 185821, Note_on_c, 0, 34, 0
2, 185846, Note_on_c, 0, 88, 75
2, 185859, Note_on_c, 0, 86, 77
2, 185864, Note_on_c, 0, 47, 73
2, 185871, Note_on_c, 0, 35, 73
2, 185880, Note_on_c, 0, 88, 0
2, 185905, Note_on_c, 0, 47, 0
2, 185912, Note_on_c, 0, 35, 0
2, 185940, Note_on_c, 0, 86, 0
2, 185946, Note_on_c, 0, 48, 73
2, 185951, Note_on_c, 0, 36, 73
2, 185992, Note_on_c, 0, 36, 0
2, 185992, Note_on_c, 0, 48, 0
2, 185992, Note_on_c, 0, 84, 80
2, 186011, Note_on_c, 0, 83, 78
2, 186024, Note_on_c, 0, 50, 75
2, 186029, Note_on_c, 0, 84, 0
2, 186029, Note_on_c, 0, 38, 76
2, 186059, Note_on_c, 0, 38, 0
2, 186059, Note_on_c, 0, 50, 0
2, 186100, Note_on_c, 0, 83, 0
2, 186100, Note_on_c, 0, 51, 76
2, 186102, Note_on_c, 0, 39, 77
2, 186132, Note_on_c, 0, 78, 0
2, 186136, Note_on_c, 0, 51, 0
2, 186148, Note_on_c, 0, 39, 0
2, 186148, Note_on_c, 0, 81, 80
2, 186171, Note_on_c, 0, 71, 76
2, 186171, Note_on_c, 0, 79, 75
2, 186184, Note_on_c, 0, 40, 77
2, 186184, Note_on_c, 0, 52, 77
2, 186206, Note_on_c, 0, 81, 0
2, 186227, Note_on_c, 0, 52, 0
2, 186236, Note_on_c, 0, 40, 0
2, 186269, Note_on_c, 0, 79, 0
2, 186269, Note_on_c, 0, 50, 83
2, 186271, Note_on_c, 0, 38, 85
2, 186304, Note_on_c, 0, 38, 0
2, 186304, Note_on_c, 0, 50, 0
2, 186305, Note_on_c, 0, 71, 0
2, 186315, Note_on_c, 0, 83, 87
2, 186338, Note_on_c, 0, 88, 85
2, 186340, Note_on_c, 0, 79, 82
2, 186350, Note_on_c, 0, 48, 83
2, 186356, Note_on_c, 0, 36, 82
2, 186368, Note_on_c, 0, 83, 0
2, 186391, Note_on_c, 0, 48, 0
2, 186398, Note_on_c, 0, 36, 0
2, 186404, Note_on_c, 0, 88, 0
2, 186427, Note_on_c, 0, 47, 80
2, 186429, Note_on_c, 0, 35, 80
2, 186464, Note_on_c, 0, 35, 0
2, 186464, Note_on_c, 0, 47, 0
2, 186469, Note_on_c, 0, 86, 83
2, 186482, Note_on_c, 0, 79, 0
2, 186489, Note_on_c, 0, 84, 84
2, 186498, Note_on_c, 0, 81, 84
2, 186503, Note_on_c, 0, 45, 80
2, 186508, Note_on_c, 0, 33, 80
2, 186513, Note_on_c, 0, 86, 0
2, 186541, Note_on_c, 0, 45, 0
2, 186552, Note_on_c, 0, 33, 0
2, 186559, Note_on_c, 0, 84, 0
2, 186582, Note_on_c, 0, 48, 80
2, 186584, Note_on_c, 0, 36, 80
2, 186618, Note_on_c, 0, 36, 0
2, 186618, Note_on_c, 0, 48, 0
2, 186623, Note_on_c, 0, 88, 88
2, 186644, Note_on_c, 0, 90, 90
2, 186651, Note_on_c, 0, 50, 84
2, 186656, Note_on_c, 0, 38, 85
2, 186661, Note_on_c, 0, 88, 0
2, 186686, Note_on_c, 0, 50, 0
2, 186686, Note_on_c, 0, 38, 0
2, 186722, Note_on_c, 0, 48, 88
2, 186727, Note_on_c, 0, 36, 88
2, 186755, Note_on_c, 0, 90, 0
2, 186760, Note_on_c, 0, 48, 0
2, 186781, Note_on_c, 0, 36, 0
2, 186787, Note_on_c, 0, 81, 0
2, 186792, Note_on_c, 0, 88, 88
2, 186804, Note_on_c, 0, 47, 85
2, 186806, Note_on_c, 0, 35, 84
2, 186806, Note_on_c, 0, 83, 90
2, 186806, Note_on_c, 0, 86, 91
2, 186827, Note_on_c, 0, 88, 0
2, 186845, Note_on_c, 0, 47, 0
2, 186847, Note_on_c, 0, 35, 0
2, 186880, Note_on_c, 0, 50, 81
2, 186884, Note_on_c, 0, 38, 80
2, 186903, Note_on_c, 0, 86, 0
2, 186914, Note_on_c, 0, 38, 0
2, 186914, Note_on_c, 0, 50, 0
2, 186926, Note_on_c, 0, 90, 84
2, 186953, Note_on_c, 0, 91, 86
2, 186963, Note_on_c, 0, 52, 80
2, 186965, Note_on_c, 0, 40, 80
2, 186978, Note_on_c, 0, 90, 0
2, 187000, Note_on_c, 0, 52, 0
2, 187000, Note_on_c, 0, 40, 0
2, 187039, Note_on_c, 0, 43, 80
2, 187039, Note_on_c, 0, 55, 83
2, 187072, Note_on_c, 0, 91, 0
2, 187072, Note_on_c, 0, 83, 0
2, 187073, Note_on_c, 0, 55, 0
2, 187078, Note_on_c, 0, 43, 0
2, 187090, Note_on_c, 0, 90, 89
2, 187111, Note_on_c, 0, 84, 92
2, 187111, Note_on_c, 0, 88, 94
2, 187118, Note_on_c, 0, 45, 87
2, 187118, Note_on_c, 0, 57, 88
2, 187134, Note_on_c, 0, 90, 0
2, 187145, Note_on_c, 0, 45, 0
2, 187145, Note_on_c, 0, 57, 0
2, 187192, Note_on_c, 0, 88, 0
2, 187192, Note_on_c, 0, 46, 87
2, 187192, Note_on_c, 0, 58, 88
2, 187221, Note_on_c, 0, 90, 90
2, 187223, Note_on_c, 0, 58, 0
2, 187235, Note_on_c, 0, 46, 0
2, 187240, Note_on_c, 0, 84, 0
2, 187261, Note_on_c, 0, 78, 95
2, 187261, Note_on_c, 0, 87, 99
2, 187274, Note_on_c, 0, 47, 91
2, 187274, Note_on_c, 0, 59, 92
2, 187288, Note_on_c, 0, 90, 0
2, 187301, Note_on_c, 0, 59, 0
2, 187311, Note_on_c, 0, 47, 0
2, 187312, Control_c, 0, 64, 127
2, 187324, Note_on_c, 0, 87, 0
2, 187324, Note_on_c, 0, 78, 0
2, 187384, Note_on_c, 0, 90, 99
2, 187395, Note_on_c, 0, 91, 100
2, 187411, Note_on_c, 0, 94, 100
2, 187418, Note_on_c, 0, 90, 0
2, 187423, Note_on_c, 0, 91, 0
2, 187425, Note_on_c, 0, 87, 105
2, 187425, Note_on_c, 0, 95, 106
2, 187430, Note_on_c, 0, 47, 112
2, 187434, Note_on_c, 0, 35, 112
2, 187436, Note_on_c, 0, 94, 0
2, 187441, Note_on_c, 0, 42, 112
2, 187469, Note_on_c, 0, 87, 0
2, 187469, Note_on_c, 0, 95, 0
2, 187474, Note_on_c, 0, 42, 0
2, 187474, Note_on_c, 0, 47, 0
2, 187476, Note_on_c, 0, 35, 0
2, 187515, Control_c, 0, 64, 0
2, 187604, Note_on_c, 0, 71, 93
2, 187606, Note_on_c, 0, 54, 89
2, 187606, Note_on_c, 0, 59, 89
2, 187611, Note_on_c, 0, 63, 88
2, 187639, Note_on_c, 0, 59, 0
2, 187641, Note_on_c, 0, 63, 0
2, 187641, Note_on_c, 0, 54, 0
2, 187646, Note_on_c, 0, 71, 0
2, 187781, Note_on_c, 0, 71, 66
2, 187783, Note_on_c, 0, 54, 65
2, 187783, Note_on_c, 0, 63, 65
2, 187785, Note_on_c, 0, 59, 64
2, 187801, Note_on_c, 0, 71, 0
2, 187803, Note_on_c, 0, 59, 0
2, 187805, Note_on_c, 0, 63, 0
2, 187805, Note_on_c, 0, 54, 0
2, 187826, Note_on_c, 0, 71, 65
2, 187828, Note_on_c, 0, 63, 66
2, 187830, Note_on_c, 0, 54, 67
2, 187832, Note_on_c, 0, 59, 68
2, 187853, Note_on_c, 0, 71, 0
2, 187858, Note_on_c, 0, 63, 0
2, 187858, Note_on_c, 0, 54, 0
2, 187863, Note_on_c, 0, 59, 0
2, 187879, Note_on_c, 0, 71, 69
2, 187886, Note_on_c, 0, 54, 69
2, 187886, Note_on_c, 0, 59, 69
2, 187886, Note_on_c, 0, 63, 68
2, 187909, Note_on_c, 0, 59, 0
2, 187913, Note_on_c, 0, 63, 0
2, 187913, Note_on_c, 0, 54, 0
2, 187932, Note_on_c, 0, 67, 66
2, 187934, Note_on_c, 0, 52, 67
2, 187934, Note_on_c, 0, 59, 66
2, 187934, Note_on_c, 0, 64, 66
2, 187936, Note_on_c, 0, 71, 0
2, 187960, Note_on_c, 0, 67, 0
2, 187965, Note_on_c, 0, 59, 0
2, 187975, Note_on_c, 0, 64, 0
2, 187977, Note_on_c, 0, 52, 0
2, 188101, Note_on_c, 0, 64, 62
2, 188107, Note_on_c, 0, 57, 65
2, 188112, Note_on_c, 0, 48, 65
2, 188112, Note_on_c, 0, 55, 65
2, 188142, Note_on_c, 0, 64, 0
2, 188147, Note_on_c, 0, 57, 0
2, 188147, Note_on_c, 0, 48, 0
2, 188147, Note_on_c, 0, 55, 0
2, 188282, Note_on_c, 0, 60, 64
2, 188287, Note_on_c, 0, 45, 69
2, 188287, Note_on_c, 0, 52, 69
2, 188287, Note_on_c, 0, 55, 68
2, 188315, Note_on_c, 0, 60, 0
2, 188321, Note_on_c, 0, 55, 0
2, 188331, Note_on_c, 0, 52, 0
2, 188331, Note_on_c, 0, 45, 0
2, 188466, Note_on_c, 0, 42, 70
2, 188466, Note_on_c, 0, 48, 73
2, 188466, Note_on_c, 0, 52, 72
2, 188466, Note_on_c, 0, 57, 73
2, 188501, Note_on_c, 0, 57, 0
2, 188501, Note_on_c, 0, 52, 0
2, 188512, Note_on_c, 0, 48, 0
2, 188529, Note_on_c, 0, 42, 0
2, 188603, Note_on_c, 0, 39, 73
2, 188619, Note_on_c, 0, 54, 81
2, 188631, Note_on_c, 0, 47, 81
2, 188642, Note_on_c, 0, 39, 0
2, 188652, Control_c, 0, 67, 127
2, 188654, Note_on_c, 0, 54, 0
2, 188656, Note_on_c, 0, 47, 0
2, 188657, Control_c, 0, 64, 127
2, 188704, Control_c, 0, 64, 0
2, 188720, Note_on_c, 0, 35, 68
2, 188720, Note_on_c, 0, 47, 67
2, 188748, Note_on_c, 0, 47, 0
2, 188752, Note_on_c, 0, 35, 0
2, 188769, Note_on_c, 0, 82, 65
2, 188785, Note_on_c, 0, 76, 63
2, 188785, Note_on_c, 0, 83, 65
2, 188799, Note_on_c, 0, 37, 63
2, 188799, Note_on_c, 0, 49, 62
2, 188803, Note_on_c, 0, 82, 0
2, 188822, Note_on_c, 0, 76, 0
2, 188826, Note_on_c, 0, 83, 0
2, 188831, Note_on_c, 0, 37, 0
2, 188831, Note_on_c, 0, 49, 0
2, 188868, Note_on_c, 0, 51, 61
2, 188874, Note_on_c, 0, 39, 62
2, 188904, Note_on_c, 0, 39, 0
2, 188904, Note_on_c, 0, 51, 0
2, 188927, Note_on_c, 0, 78, 63
2, 188941, Note_on_c, 0, 79, 63
2, 188947, Note_on_c, 0, 71, 63
2, 188954, Note_on_c, 0, 40, 62
2, 188954, Note_on_c, 0, 52, 62
2, 188961, Note_on_c, 0, 78, 0
2, 188982, Note_on_c, 0, 79, 0
2, 188982, Note_on_c, 0, 71, 0
2, 188989, Note_on_c, 0, 40, 0
2, 188995, Note_on_c, 0, 52, 0
2, 189027, Note_on_c, 0, 54, 61
2, 189029, Note_on_c, 0, 42, 63
2, 189065, Note_on_c, 0, 42, 0
2, 189067, Note_on_c, 0, 54, 0
2, 189099, Note_on_c, 0, 75, 67
2, 189111, Note_on_c, 0, 43, 66
2, 189111, Note_on_c, 0, 55, 66
2, 189112, Note_on_c, 0, 71, 67
2, 189112, Note_on_c, 0, 76, 67
2, 189124, Note_on_c, 0, 75, 0
2, 189145, Note_on_c, 0, 43, 0
2, 189147, Note_on_c, 0, 71, 0
2, 189152, Note_on_c, 0, 55, 0
2, 189152, Note_on_c, 0, 76, 0
2, 189191, Note_on_c, 0, 56, 66
2, 189193, Note_on_c, 0, 44, 66
2, 189225, Note_on_c, 0, 56, 0
2, 189230, Note_on_c, 0, 44, 0
2, 189253, Note_on_c, 0, 71, 67
2, 189269, Note_on_c, 0, 45, 66
2, 189269, Note_on_c, 0, 64, 64
2, 189269, Note_on_c, 0, 72, 64
2, 189276, Note_on_c, 0, 57, 66
2, 189287, Note_on_c, 0, 71, 0
2, 189294, Note_on_c, 0, 72, 0
2, 189310, Note_on_c, 0, 57, 0
2, 189310, Note_on_c, 0, 64, 0
2, 189312, Note_on_c, 0, 45, 0
2, 189353, Note_on_c, 0, 47, 65
2, 189355, Note_on_c, 0, 59, 68
2, 189378, Note_on_c, 0, 47, 0
2, 189380, Note_on_c, 0, 59, 0
2, 189412, Note_on_c, 0, 68, 69
2, 189425, Note_on_c, 0, 60, 70
2, 189425, Note_on_c, 0, 64, 66
2, 189425, Note_on_c, 0, 69, 66
2, 189430, Note_on_c, 0, 48, 70
2, 189442, Control_c, 0, 67, 0
2, 189447, Note_on_c, 0, 68, 0
2, 189460, Note_on_c, 0, 60, 0
2, 189460, Note_on_c, 0, 64, 0
2, 189462, Control_c, 0, 64, 127
2, 189467, Note_on_c, 0, 69, 0
2, 189472, Note_on_c, 0, 48, 0
2, 189493, Control_c, 0, 64, 0
2, 189504, Note_on_c, 0, 47, 73
2, 189506, Note_on_c, 0, 59, 73
2, 189541, Note_on_c, 0, 59, 0
2, 189552, Note_on_c, 0, 47, 0
2, 189570, Note_on_c, 0, 71, 74
2, 189593, Note_on_c, 0, 57, 73
2, 189593, Note_on_c, 0, 66, 74
2, 189593, Note_on_c, 0, 72, 74
2, 189598, Note_on_c, 0, 45, 73
2, 189605, Note_on_c, 0, 71, 0
2, 189628, Note_on_c, 0, 72, 0
2, 189628, Note_on_c, 0, 66, 0
2, 189633, Note_on_c, 0, 57, 0
2, 189633, Note_on_c, 0, 45, 0
2, 189672, Note_on_c, 0, 55, 72
2, 189674, Note_on_c, 0, 43, 73
2, 189709, Note_on_c, 0, 43, 0
2, 189709, Note_on_c, 0, 55, 0
2, 189748, Note_on_c, 0, 75, 82
2, 189755, Note_on_c, 0, 72, 82
2, 189755, Note_on_c, 0, 76, 82
2, 189760, Note_on_c, 0, 42, 79
2, 189760, Note_on_c, 0, 54, 80
2, 189778, Note_on_c, 0, 75, 0
2, 189789, Note_on_c, 0, 72, 0
2, 189796, Control_c, 0, 64, 127
2, 189803, Note_on_c, 0, 42, 0
2, 189803, Note_on_c, 0, 54, 0
2, 189808, Note_on_c, 0, 76, 0
2, 189826, Control_c, 0, 64, 0
2, 189844, Note_on_c, 0, 40, 80
2, 189844, Note_on_c, 0, 52, 80
2, 189879, Note_on_c, 0, 52, 0
2, 189879, Note_on_c, 0, 40, 0
2, 189897, Note_on_c, 0, 77, 81
2, 189910, Note_on_c, 0, 71, 84
2, 189910, Note_on_c, 0, 78, 85
2, 189915, Note_on_c, 0, 51, 80
2, 189917, Control_c, 0, 64, 127
2, 189919, Note_on_c, 0, 39, 80
2, 189921, Note_on_c, 0, 77, 0
2, 189949, Note_on_c, 0, 51, 0
2, 189951, Note_on_c, 0, 71, 0
2, 189951, Note_on_c, 0, 78, 0
2, 189964, Note_on_c, 0, 39, 0
2, 189989, Control_c, 0, 64, 0
2, 189996, Note_on_c, 0, 49, 80
2, 189998, Note_on_c, 0, 37, 80
2, 190032, Note_on_c, 0, 49, 0
2, 190037, Note_on_c, 0, 37, 0
2, 190057, Note_on_c, 0, 82, 83
2, 190071, Note_on_c, 0, 78, 84
2, 190075, Note_on_c, 0, 75, 86
2, 190075, Note_on_c, 0, 83, 89
2, 190087, Note_on_c, 0, 35, 86
2, 190087, Note_on_c, 0, 47, 87
2, 190092, Note_on_c, 0, 82, 0
2, 190105, Control_c, 0, 64, 127
2, 190107, Note_on_c, 0, 83, 0
2, 190107, Note_on_c, 0, 78, 0
2, 190114, Note_on_c, 0, 75, 0
2, 190119, Note_on_c, 0, 47, 0
2, 190120, Note_on_c, 0, 35, 0
2, 190182, Control_c, 0, 64, 0
2, 190251, Note_on_c, 0, 63, 74
2, 190251, Note_on_c, 0, 71, 82
2, 190256, Note_on_c, 0, 54, 80
2, 190256, Note_on_c, 0, 59, 81
2, 190265, Control_c, 0, 64, 127
2, 190282, Note_on_c, 0, 59, 0
2, 190282, Note_on_c, 0, 54, 0
2, 190288, Note_on_c, 0, 71, 0
2, 190288, Note_on_c, 0, 63, 0
2, 190346, Control_c, 0, 64, 0
2, 190417, Note_on_c, 0, 71, 74
2, 190422, Note_on_c, 0, 54, 69
2, 190422, Note_on_c, 0, 59, 69
2, 190427, Note_on_c, 0, 63, 68
2, 190445, Note_on_c, 0, 71, 0
2, 190450, Note_on_c, 0, 54, 0
2, 190450, Note_on_c, 0, 59, 0
2, 190450, Note_on_c, 0, 63, 0
2, 190470, Note_on_c, 0, 71, 70
2, 190472, Note_on_c, 0, 54, 69
2, 190472, Note_on_c, 0, 59, 69
2, 190472, Note_on_c, 0, 63, 68
2, 190497, Note_on_c, 0, 71, 0
2, 190499, Note_on_c, 0, 54, 0
2, 190501, Note_on_c, 0, 59, 0
2, 190501, Note_on_c, 0, 63, 0
2, 190521, Note_on_c, 0, 71, 70
2, 190523, Note_on_c, 0, 54, 69
2, 190525, Note_on_c, 0, 59, 69
2, 190525, Note_on_c, 0, 63, 69
2, 190552, Note_on_c, 0, 59, 0
2, 190557, Note_on_c, 0, 71, 0
2, 190557, Note_on_c, 0, 54, 0
2, 190559, Note_on_c, 0, 63, 0
2, 190573, Note_on_c, 0, 64, 74
2, 190577, Note_on_c, 0, 52, 71
2, 190577, Note_on_c, 0, 59, 72
2, 190577, Note_on_c, 0, 67, 74
2, 190607, Note_on_c, 0, 67, 0
2, 190612, Note_on_c, 0, 64, 0
2, 190622, Note_on_c, 0, 59, 0
2, 190631, Note_on_c, 0, 52, 0
2, 190745, Note_on_c, 0, 48, 71
2, 190745, Note_on_c, 0, 55, 46
2, 190745, Note_on_c, 0, 64, 73
2, 190755, Note_on_c, 0, 57, 45
2, 190794, Note_on_c, 0, 55, 0
2, 190796, Note_on_c, 0, 64, 0
2, 190801, Note_on_c, 0, 48, 0
2, 190801, Note_on_c, 0, 57, 0
2, 190824, Control_c, 0, 64, 127
2, 190867, Control_c, 0, 64, 0
2, 190927, Note_on_c, 0, 52, 61
2, 190927, Note_on_c, 0, 60, 70
2, 190932, Note_on_c, 0, 45, 71
2, 190934, Note_on_c, 0, 55, 72
2, 190961, Note_on_c, 0, 60, 0
2, 190961, Note_on_c, 0, 52, 0
2, 190963, Note_on_c, 0, 45, 0
2, 190965, Note_on_c, 0, 55, 0
2, 190970, Control_c, 0, 64, 127
2, 191046, Control_c, 0, 64, 0
2, 191104, Note_on_c, 0, 42, 81
2, 191104, Note_on_c, 0, 48, 81
2, 191104, Note_on_c, 0, 52, 80
2, 191104, Note_on_c, 0, 57, 81
2, 191127, Control_c, 0, 64, 127
2, 191138, Note_on_c, 0, 52, 0
2, 191143, Note_on_c, 0, 42, 0
2, 191145, Note_on_c, 0, 57, 0
2, 191152, Note_on_c, 0, 48, 0
2, 191211, Control_c, 0, 64, 0
2, 191234, Note_on_c, 0, 39, 80
2, 191248, Note_on_c, 0, 47, 80
2, 191257, Note_on_c, 0, 39, 0
2, 191271, Note_on_c, 0, 54, 82
2, 191296, Control_c, 0, 64, 127
2, 191302, Note_on_c, 0, 47, 0
2, 191319, Note_on_c, 0, 54, 0
2, 191330, Control_c, 0, 64, 0
2, 191348, Note_on_c, 0, 95, 69
2, 191353, Note_on_c, 0, 83, 67
2, 191385, Note_on_c, 0, 95, 0
2, 191390, Note_on_c, 0, 83, 0
2, 191406, Note_on_c, 0, 35, 63
2, 191436, Note_on_c, 0, 42, 61
2, 191436, Note_on_c, 0, 82, 69
2, 191436, Note_on_c, 0, 94, 70
2, 191442, Note_on_c, 0, 35, 0
2, 191447, Note_on_c, 0, 51, 64
2, 191461, Control_c, 0, 64, 127
2, 191467, Note_on_c, 0, 94, 0
2, 191469, Note_on_c, 0, 42, 0
2, 191469, Note_on_c, 0, 82, 0
2, 191486, Note_on_c, 0, 51, 0
2, 191506, Control_c, 0, 64, 0
2, 191519, Note_on_c, 0, 81, 69
2, 191519, Note_on_c, 0, 93, 67
2, 191559, Note_on_c, 0, 93, 0
2, 191559, Note_on_c, 0, 81, 0
2, 191577, Note_on_c, 0, 40, 67
2, 191597, Note_on_c, 0, 47, 66
2, 191602, Note_on_c, 0, 91, 72
2, 191604, Note_on_c, 0, 79, 71
2, 191610, Note_on_c, 0, 40, 0
2, 191610, Note_on_c, 0, 55, 65
2, 191612, Control_c, 0, 64, 127
2, 191629, Note_on_c, 0, 47, 0
2, 191640, Note_on_c, 0, 91, 0
2, 191642, Note_on_c, 0, 79, 0
2, 191647, Note_on_c, 0, 55, 0
2, 191658, Control_c, 0, 64, 0
2, 191688, Note_on_c, 0, 78, 71
2, 191690, Note_on_c, 0, 90, 75
2, 191727, Note_on_c, 0, 90, 0
2, 191727, Note_on_c, 0, 78, 0
2, 191738, Note_on_c, 0, 43, 65
2, 191748, Note_on_c, 0, 52, 65
2, 191768, Note_on_c, 0, 88, 74
2, 191770, Note_on_c, 0, 59, 65
2, 191770, Note_on_c, 0, 76, 74
2, 191772, Control_c, 0, 64, 127
2, 191774, Note_on_c, 0, 43, 0
2, 191801, Note_on_c, 0, 52, 0
2, 191801, Note_on_c, 0, 88, 0
2, 191803, Note_on_c, 0, 59, 0
2, 191803, Note_on_c, 0, 76, 0
2, 191851, Note_on_c, 0, 86, 75
2, 191853, Note_on_c, 0, 74, 78
2, 191860, Control_c, 0, 64, 0
2, 191888, Note_on_c, 0, 74, 0
2, 191888, Note_on_c, 0, 86, 0
2, 191897, Note_on_c, 0, 45, 65
2, 191911, Note_on_c, 0, 52, 64
2, 191927, Note_on_c, 0, 84, 79
2, 191932, Note_on_c, 0, 60, 66
2, 191932, Note_on_c, 0, 72, 79
2, 191934, Control_c, 0, 64, 127
2, 191939, Note_on_c, 0, 45, 0
2, 191955, Note_on_c, 0, 52, 0
2, 191955, Note_on_c, 0, 84, 0
2, 191957, Note_on_c, 0, 72, 0
2, 191959, Note_on_c, 0, 60, 0
2, 192000, Control_c, 0, 64, 0
2, 192010, Note_on_c, 0, 71, 79
2, 192010, Note_on_c, 0, 83, 82
2, 192044, Note_on_c, 0, 83, 0
2, 192046, Note_on_c, 0, 71, 0
2, 192060, Note_on_c, 0, 48, 71
2, 192083, Note_on_c, 0, 55, 70
2, 192083, Note_on_c, 0, 81, 80
2, 192088, Note_on_c, 0, 69, 79
2, 192094, Note_on_c, 0, 48, 0
2, 192094, Note_on_c, 0, 64, 76
2, 192099, Control_c, 0, 64, 127
2, 192119, Note_on_c, 0, 55, 0
2, 192119, Note_on_c, 0, 69, 0
2, 192121, Note_on_c, 0, 81, 0
2, 192137, Note_on_c, 0, 64, 0
2, 192169, Note_on_c, 0, 67, 76
2, 192169, Note_on_c, 0, 79, 80
2, 192181, Control_c, 0, 64, 0
2, 192204, Note_on_c, 0, 79, 0
2, 192206, Note_on_c, 0, 67, 0
2, 192206, Note_on_c, 0, 50, 67
2, 192219, Note_on_c, 0, 54, 68
2, 192229, Note_on_c, 0, 57, 69
2, 192240, Note_on_c, 0, 62, 70
2, 192245, Note_on_c, 0, 78, 80
2, 192247, Note_on_c, 0, 66, 80
2, 192247, Note_on_c, 0, 74, 82
2, 192256, Control_c, 0, 64, 127
2, 192263, Note_on_c, 0, 50, 0
2, 192268, Note_on_c, 0, 57, 0
2, 192275, Note_on_c, 0, 62, 0
2, 192280, Note_on_c, 0, 54, 0
2, 192281, Note_on_c, 0, 66, 0
2, 192281, Note_on_c, 0, 74, 0
2, 192286, Note_on_c, 0, 78, 0
2, 192329, Note_on_c, 0, 52, 75
2, 192329, Note_on_c, 0, 64, 75
2, 192348, Control_c, 0, 64, 0
2, 192364, Note_on_c, 0, 64, 0
2, 192371, Note_on_c, 0, 52, 0
2, 192394, Note_on_c, 0, 77, 73
2, 192400, Note_on_c, 0, 78, 74
2, 192407, Note_on_c, 0, 50, 81
2, 192407, Note_on_c, 0, 62, 82
2, 192407, Note_on_c, 0, 69, 74
2, 192424, Control_c, 0, 64, 127
2, 192428, Note_on_c, 0, 77, 0
2, 192435, Note_on_c, 0, 69, 0
2, 192442, Note_on_c, 0, 50, 0
2, 192447, Note_on_c, 0, 62, 0
2, 192453, Note_on_c, 0, 78, 0
2, 192485, Note_on_c, 0, 60, 82
2, 192487, Note_on_c, 0, 48, 85
2, 192503, Control_c, 0, 64, 0
2, 192520, Note_on_c, 0, 60, 0
2, 192521, Note_on_c, 0, 48, 0
2, 192546, Note_on_c, 0, 85, 76
2, 192553, Note_on_c, 0, 86, 76
2, 192558, Note_on_c, 0, 78, 74
2, 192560, Note_on_c, 0, 59, 85
2, 192565, Note_on_c, 0, 47, 86
2, 192583, Note_on_c, 0, 85, 0
2, 192583, Control_c, 0, 64, 127
2, 192594, Note_on_c, 0, 78, 0
2, 192601, Note_on_c, 0, 86, 0
2, 192601, Note_on_c, 0, 59, 0
2, 192613, Note_on_c, 0, 47, 0
2, 192636, Note_on_c, 0, 57, 85
2, 192638, Note_on_c, 0, 45, 87
2, 192651, Control_c, 0, 64, 0
2, 192671, Note_on_c, 0, 57, 0
2, 192678, Note_on_c, 0, 45, 0
2, 192696, Note_on_c, 0, 97, 79
2, 192712, Note_on_c, 0, 55, 87
2, 192714, Note_on_c, 0, 98, 83
2, 192719, Note_on_c, 0, 43, 89
2, 192721, Note_on_c, 0, 90, 81
2, 192731, Note_on_c, 0, 97, 0
2, 192737, Control_c, 0, 64, 127
2, 192749, Note_on_c, 0, 98, 0
2, 192754, Note_on_c, 0, 90, 0
2, 192759, Note_on_c, 0, 43, 0
2, 192759, Note_on_c, 0, 55, 0
2, 192800, Note_on_c, 0, 42, 85
2, 192800, Note_on_c, 0, 54, 90
2, 192820, Control_c, 0, 64, 0
2, 192836, Note_on_c, 0, 54, 0
2, 192836, Note_on_c, 0, 42, 0
2, 192882, Note_on_c, 0, 55, 81
2, 192887, Note_on_c, 0, 71, 110
2, 192889, Note_on_c, 0, 59, 73
2, 192889, Note_on_c, 0, 62, 72
2, 192889, Note_on_c, 0, 67, 110
2, 192889, Note_on_c, 0, 74, 112
2, 192899, Control_c, 0, 64, 127
2, 192905, Note_on_c, 0, 55, 0
2, 192917, Note_on_c, 0, 71, 0
2, 192917, Note_on_c, 0, 74, 0
2, 192919, Note_on_c, 0, 67, 0
2, 192921, Note_on_c, 0, 55, 67
2, 192923, Note_on_c, 0, 62, 0
2, 192925, Note_on_c, 0, 59, 0
2, 192925, Note_on_c, 0, 43, 65
2, 192931, Control_c, 0, 64, 0
2, 192950, Note_on_c, 0, 43, 0
2, 192950, Note_on_c, 0, 55, 0
2, 192950, Note_on_c, 0, 45, 63
2, 192950, Note_on_c, 0, 57, 65
2, 192981, Note_on_c, 0, 57, 0
2, 192981, Note_on_c, 0, 45, 0
2, 192981, Note_on_c, 0, 47, 69
2, 192981, Note_on_c, 0, 59, 71
2, 193006, Note_on_c, 0, 47, 0
2, 193008, Note_on_c, 0, 59, 0
2, 193008, Note_on_c, 0, 60, 75
2, 193010, Note_on_c, 0, 48, 76
2, 193038, Note_on_c, 0, 60, 0
2, 193038, Note_on_c, 0, 62, 78
2, 193043, Note_on_c, 0, 48, 0
2, 193043, Note_on_c, 0, 50, 81
2, 193063, Note_on_c, 0, 62, 0
2, 193063, Note_on_c, 0, 67, 88
2, 193063, Note_on_c, 0, 71, 88
2, 193063, Note_on_c, 0, 74, 89
2, 193065, Note_on_c, 0, 55, 84
2, 193065, Note_on_c, 0, 59, 85
2, 193070, Note_on_c, 0, 50, 0
2, 193070, Note_on_c, 0, 64, 88
2, 193076, Note_on_c, 0, 52, 87
2, 193081, Note_on_c, 0, 67, 0
2, 193086, Note_on_c, 0, 71, 0
2, 193086, Note_on_c, 0, 74, 0
2, 193086, Note_on_c, 0, 59, 0
2, 193088, Note_on_c, 0, 55, 0
2, 193101, Note_on_c, 0, 64, 0
2, 193101, Note_on_c, 0, 66, 88
2, 193103, Note_on_c, 0, 54, 88
2, 193105, Note_on_c, 0, 52, 0
2, 193110, Note_on_c, 0, 59, 88
2, 193110, Note_on_c, 0, 62, 88
2, 193110, Note_on_c, 0, 71, 89
2, 193110, Note_on_c, 0, 74, 88
2, 193133, Note_on_c, 0, 54, 0
2, 193133, Note_on_c, 0, 66, 0
2, 193133, Note_on_c, 0, 67, 87
2, 193135, Note_on_c, 0, 55, 88
2, 193137, Note_on_c, 0, 71, 0
2, 193137, Note_on_c, 0, 62, 0
2, 193137, Note_on_c, 0, 74, 0
2, 193139, Note_on_c, 0, 59, 0
2, 193152, Note_on_c, 0, 67, 0
2, 193154, Note_on_c, 0, 55, 0
2, 193161, Note_on_c, 0, 57, 88
2, 193161, Note_on_c, 0, 62, 88
2, 193161, Note_on_c, 0, 69, 89
2, 193161, Note_on_c, 0, 74, 88
2, 193170, Note_on_c, 0, 55, 87
2, 193170, Note_on_c, 0, 67, 88
2, 193191, Note_on_c, 0, 69, 0
2, 193191, Note_on_c, 0, 57, 0
2, 193191, Note_on_c, 0, 59, 88
2, 193191, Note_on_c, 0, 71, 88
2, 193192, Note_on_c, 0, 74, 0
2, 193194, Note_on_c, 0, 67, 0
2, 193196, Note_on_c, 0, 62, 0
2, 193198, Note_on_c, 0, 55, 0
2, 193208, Note_on_c, 0, 71, 0
2, 193213, Note_on_c, 0, 59, 0
2, 193217, Note_on_c, 0, 61, 91
2, 193217, Note_on_c, 0, 64, 92
2, 193217, Note_on_c, 0, 67, 93
2, 193217, Note_on_c, 0, 73, 95
2, 193217, Note_on_c, 0, 76, 96
2, 193219, Note_on_c, 0, 55, 92
2, 193221, Note_on_c, 0, 52, 93
2, 193223, Note_on_c, 0, 71, 97
2, 193228, Note_on_c, 0, 59, 94
2, 193241, Note_on_c, 0, 76, 0
2, 193241, Note_on_c, 0, 73, 0
2, 193246, Note_on_c, 0, 61, 0
2, 193246, Note_on_c, 0, 64, 0
2, 193246, Note_on_c, 0, 62, 90
2, 193246, Note_on_c, 0, 74, 91
2, 193269, Note_on_c, 0, 74, 0
2, 193274, Note_on_c, 0, 62, 0
2, 193274, Note_on_c, 0, 64, 87
2, 193274, Note_on_c, 0, 76, 87
2, 193290, Note_on_c, 0, 67, 0
2, 193290, Note_on_c, 0, 71, 0
2, 193290, Note_on_c, 0, 59, 0
2, 193292, Note_on_c, 0, 55, 0
2, 193292, Note_on_c, 0, 52, 0
2, 193302, Note_on_c, 0, 76, 0
2, 193302, Note_on_c, 0, 66, 83
2, 193304, Note_on_c, 0, 78, 82
2, 193306, Note_on_c, 0, 64, 0
2, 193336, Note_on_c, 0, 78, 0
2, 193336, Note_on_c, 0, 66, 0
2, 193336, Note_on_c, 0, 67, 80
2, 193336, Note_on_c, 0, 79, 81
2, 193363, Note_on_c, 0, 79, 0
2, 193363, Note_on_c, 0, 67, 0
2, 193365, Note_on_c, 0, 81, 82
2, 193367, Note_on_c, 0, 69, 81
2, 193395, Note_on_c, 0, 69, 0
2, 193395, Note_on_c, 0, 81, 0
2, 193395, Note_on_c, 0, 71, 80
2, 193397, Note_on_c, 0, 83, 84
2, 193404, Note_on_c, 0, 55, 80
2, 193404, Note_on_c, 0, 64, 81
2, 193404, Note_on_c, 0, 67, 80
2, 193404, Note_on_c, 0, 76, 82
2, 193406, Note_on_c, 0, 52, 80
2, 193406, Note_on_c, 0, 59, 80
2, 193422, Note_on_c, 0, 85, 82
2, 193424, Note_on_c, 0, 83, 0
2, 193424, Note_on_c, 0, 73, 81
2, 193431, Control_c, 0, 64, 127
2, 193432, Note_on_c, 0, 67, 0
2, 193437, Note_on_c, 0, 64, 0
2, 193439, Note_on_c, 0, 59, 0
2, 193451, Note_on_c, 0, 55, 0
2, 193451, Note_on_c, 0, 73, 0
2, 193451, Note_on_c, 0, 85, 0
2, 193451, Note_on_c, 0, 52, 0
2, 193453, Note_on_c, 0, 71, 0
2, 193453, Note_on_c, 0, 76, 0
2, 193455, Note_on_c, 0, 74, 81
2, 193455, Note_on_c, 0, 86, 83
2, 193468, Control_c, 0, 64, 0
2, 193481, Note_on_c, 0, 86, 0
2, 193481, Note_on_c, 0, 76, 81
2, 193481, Note_on_c, 0, 88, 82
2, 193483, Note_on_c, 0, 74, 0
2, 193508, Note_on_c, 0, 88, 0
2, 193515, Note_on_c, 0, 76, 0
2, 193520, Note_on_c, 0, 78, 81
2, 193520, Note_on_c, 0, 90, 83
2, 193540, Note_on_c, 0, 47, 80
2, 193542, Note_on_c, 0, 78, 0
2, 193549, Note_on_c, 0, 90, 0
2, 193555, Note_on_c, 0, 54, 80
2, 193557, Note_on_c, 0, 92, 89
2, 193559, Note_on_c, 0, 78, 88
2, 193559, Note_on_c, 0, 80, 89
2, 193561, Note_on_c, 0, 66, 89
2, 193561, Note_on_c, 0, 71, 91
2, 193561, Note_on_c, 0, 74, 92
2, 193575, Note_on_c, 0, 62, 83
2, 193579, Note_on_c, 0, 47, 0
2, 193586, Note_on_c, 0, 80, 0
2, 193586, Note_on_c, 0, 92, 0
2, 193586, Control_c, 0, 64, 127
2, 193591, Note_on_c, 0, 94, 88
2, 193593, Note_on_c, 0, 82, 87
2, 193595, Note_on_c, 0, 74, 0
2, 193600, Note_on_c, 0, 78, 0
2, 193600, Note_on_c, 0, 71, 0
2, 193601, Note_on_c, 0, 66, 0
2, 193603, Note_on_c, 0, 54, 0
2, 193613, Note_on_c, 0, 62, 0
2, 193620, Note_on_c, 0, 94, 0
2, 193624, Note_on_c, 0, 82, 0
2, 193624, Control_c, 0, 64, 0
2, 193629, Note_on_c, 0, 95, 82
2, 193631, Note_on_c, 0, 83, 83
2, 193656, Note_on_c, 0, 95, 0
2, 193663, Note_on_c, 0, 83, 0
2, 193668, Note_on_c, 0, 85, 83
2, 193668, Note_on_c, 0, 97, 86
2, 193697, Note_on_c, 0, 97, 0
2, 193699, Note_on_c, 0, 85, 0
2, 193709, Note_on_c, 0, 98, 86
2, 193711, Note_on_c, 0, 86, 83
2, 193736, Note_on_c, 0, 98, 0
2, 193738, Note_on_c, 0, 86, 0
2, 193743, Note_on_c, 0, 62, 80
2, 193743, Note_on_c, 0, 67, 81
2, 193743, Note_on_c, 0, 71, 81
2, 193743, Note_on_c, 0, 74, 82
2, 193744, Note_on_c, 0, 100, 86
2, 193746, Note_on_c, 0, 55, 80
2, 193746, Note_on_c, 0, 88, 84
2, 193753, Note_on_c, 0, 59, 80
2, 193763, Control_c, 0, 64, 127
2, 193774, Note_on_c, 0, 88, 0
2, 193774, Note_on_c, 0, 100, 0
2, 193776, Note_on_c, 0, 67, 0
2, 193781, Note_on_c, 0, 59, 0
2, 193781, Note_on_c, 0, 62, 0
2, 193781, Note_on_c, 0, 55, 0
2, 193783, Note_on_c, 0, 71, 0
2, 193783, Note_on_c, 0, 102, 86
2, 193785, Note_on_c, 0, 90, 82
2, 193810, Note_on_c, 0, 102, 0
2, 193812, Note_on_c, 0, 90, 0
2, 193821, Note_on_c, 0, 91, 82
2, 193821, Note_on_c, 0, 103, 86
2, 193840, Note_on_c, 0, 74, 0
2, 193840, Control_c, 0, 64, 0
2, 193846, Note_on_c, 0, 103, 0
2, 193851, Note_on_c, 0, 91, 0
2, 193856, Note_on_c, 0, 92, 83
2, 193858, Note_on_c, 0, 104, 86
2, 193888, Note_on_c, 0, 104, 0
2, 193888, Note_on_c, 0, 92, 0
2, 193894, Note_on_c, 0, 93, 82
2, 193926, Note_on_c, 0, 93, 0
2, 193933, Control_c, 0, 64, 127
2, 193933, Note_on_c, 0, 76, 87
2, 193935, Note_on_c, 0, 95, 90
2, 193936, Note_on_c, 0, 47, 80
2, 193936, Note_on_c, 0, 55, 80
2, 193936, Note_on_c, 0, 64, 88
2, 193936, Note_on_c, 0, 67, 89
2, 193936, Note_on_c, 0, 71, 91
2, 193941, Note_on_c, 0, 40, 79
2, 193960, Note_on_c, 0, 95, 0
2, 193960, Note_on_c, 0, 91, 87
2, 193961, Note_on_c, 0, 67, 0
2, 193961, Note_on_c, 0, 103, 87
2, 193971, Note_on_c, 0, 55, 0
2, 193971, Note_on_c, 0, 47, 0
2, 193973, Note_on_c, 0, 71, 0
2, 193978, Note_on_c, 0, 64, 0
2, 193980, Note_on_c, 0, 40, 0
2, 193982, Note_on_c, 0, 76, 0
2, 193986, Note_on_c, 0, 103, 0
2, 193988, Note_on_c, 0, 91, 0
2, 193988, Note_on_c, 0, 100, 86
2, 193993, Note_on_c, 0, 88, 82
2, 194016, Note_on_c, 0, 100, 0
2, 194018, Note_on_c, 0, 88, 0
2, 194020, Note_on_c, 0, 95, 83
2, 194022, Note_on_c, 0, 83, 83
2, 194047, Note_on_c, 0, 95, 0
2, 194047, Note_on_c, 0, 91, 83
2, 194049, Note_on_c, 0, 83, 0
2, 194054, Note_on_c, 0, 79, 81
2, 194077, Note_on_c, 0, 91, 0
2, 194079, Note_on_c, 0, 79, 0
2, 194080, Note_on_c, 0, 88, 83
2, 194082, Note_on_c, 0, 76, 81
2, 194110, Note_on_c, 0, 88, 0
2, 194112, Note_on_c, 0, 76, 0
2, 194112, Note_on_c, 0, 71, 81
2, 194112, Note_on_c, 0, 83, 82
2, 194140, Note_on_c, 0, 71, 0
2, 194142, Note_on_c, 0, 83, 0
2, 194142, Note_on_c, 0, 79, 81
2, 194144, Note_on_c, 0, 67, 79
2, 194172, Note_on_c, 0, 67, 0
2, 194172, Note_on_c, 0, 79, 0
2, 194174, Note_on_c, 0, 76, 80
2, 194176, Note_on_c, 0, 64, 79
2, 194196, Control_c, 0, 64, 0
2, 194202, Note_on_c, 0, 76, 0
2, 194202, Note_on_c, 0, 71, 81
2, 194204, Note_on_c, 0, 64, 0
2, 194209, Note_on_c, 0, 59, 80
2, 194232, Note_on_c, 0, 71, 0
2, 194234, Note_on_c, 0, 55, 80
2, 194234, Note_on_c, 0, 67, 80
2, 194236, Note_on_c, 0, 59, 0
2, 194264, Note_on_c, 0, 67, 0
2, 194266, Note_on_c, 0, 55, 0
2, 194268, Note_on_c, 0, 52, 83
2, 194268, Note_on_c, 0, 64, 84
2, 194286, Note_on_c, 0, 59, 84
2, 194286, Note_on_c, 0, 62, 85
2, 194286, Note_on_c, 0, 67, 87
2, 194286, Note_on_c, 0, 71, 89
2, 194286, Note_on_c, 0, 74, 90
2, 194296, Note_on_c, 0, 64, 0
2, 194296, Note_on_c, 0, 52, 0
2, 194307, Control_c, 0, 64, 127
2, 194312, Note_on_c, 0, 55, 85
2, 194314, Note_on_c, 0, 59, 0
2, 194314, Note_on_c, 0, 62, 0
2, 194314, Note_on_c, 0, 67, 0
2, 194314, Note_on_c, 0, 74, 0
2, 194314, Note_on_c, 0, 43, 84
2, 194323, Note_on_c, 0, 71, 0
2, 194337, Note_on_c, 0, 45, 81
2, 194337, Note_on_c, 0, 57, 79
2, 194339, Note_on_c, 0, 55, 0
2, 194344, Note_on_c, 0, 43, 0
2, 194364, Note_on_c, 0, 45, 0
2, 194364, Note_on_c, 0, 57, 0
2, 194364, Note_on_c, 0, 59, 73
2, 194366, Note_on_c, 0, 47, 72
2, 194391, Note_on_c, 0, 47, 0
2, 194392, Note_on_c, 0, 59, 0
2, 194392, Note_on_c, 0, 48, 72
2, 194392, Note_on_c, 0, 60, 74
2, 194422, Note_on_c, 0, 60, 0
2, 194422, Note_on_c, 0, 48, 0
2, 194422, Note_on_c, 0, 62, 80
2, 194427, Note_on_c, 0, 50, 81
2, 194437, Control_c, 0, 64, 0
2, 194446, Note_on_c, 0, 62, 0
2, 194453, Note_on_c, 0, 50, 0
2, 194455, Note_on_c, 0, 52, 85
2, 194455, Note_on_c, 0, 64, 87
2, 194462, Note_on_c, 0, 55, 86
2, 194462, Note_on_c, 0, 62, 85
2, 194462, Note_on_c, 0, 67, 86
2, 194462, Note_on_c, 0, 71, 86
2, 194462, Note_on_c, 0, 74, 85
2, 194464, Note_on_c, 0, 59, 84
2, 194480, Note_on_c, 0, 74, 0
2, 194480, Note_on_c, 0, 71, 0
2, 194480, Note_on_c, 0, 67, 0
2, 194485, Note_on_c, 0, 64, 0
2, 194485, Note_on_c, 0, 55, 0
2, 194485, Note_on_c, 0, 62, 0
2, 194485, Note_on_c, 0, 52, 0
2, 194485, Note_on_c, 0, 59, 0
2, 194485, Note_on_c, 0, 66, 81
2, 194487, Note_on_c, 0, 54, 81
2, 194503, Note_on_c, 0, 71, 83
2, 194510, Note_on_c, 0, 59, 83
2, 194510, Note_on_c, 0, 62, 84
2, 194510, Note_on_c, 0, 74, 85
2, 194512, Note_on_c, 0, 66, 0
2, 194516, Note_on_c, 0, 54, 0
2, 194516, Note_on_c, 0, 55, 86
2, 194516, Note_on_c, 0, 67, 86
2, 194526, Note_on_c, 0, 74, 0
2, 194531, Note_on_c, 0, 71, 0
2, 194531, Note_on_c, 0, 59, 0
2, 194531, Note_on_c, 0, 62, 0
2, 194533, Note_on_c, 0, 67, 0
2, 194544, Note_on_c, 0, 69, 89
2, 194549, Note_on_c, 0, 57, 88
2, 194551, Note_on_c, 0, 67, 88
2, 194553, Note_on_c, 0, 62, 88
2, 194553, Note_on_c, 0, 74, 89
2, 194573, Note_on_c, 0, 69, 0
2, 194575, Note_on_c, 0, 57, 0
2, 194575, Note_on_c, 0, 59, 88
2, 194575, Note_on_c, 0, 71, 89
2, 194580, Note_on_c, 0, 67, 0
2, 194580, Note_on_c, 0, 74, 0
2, 194582, Note_on_c, 0, 62, 0
2, 194582, Note_on_c, 0, 55, 0
2, 194600, Note_on_c, 0, 73, 91
2, 194600, Note_on_c, 0, 76, 93
2, 194602, Note_on_c, 0, 61, 88
2, 194602, Note_on_c, 0, 64, 93
2, 194602, Note_on_c, 0, 67, 94
2, 194611, Note_on_c, 0, 52, 90
2, 194611, Note_on_c, 0, 55, 91
2, 194623, Note_on_c, 0, 73, 0
2, 194630, Note_on_c, 0, 61, 0
2, 194630, Note_on_c, 0, 76, 0
2, 194630, Note_on_c, 0, 64, 0
2, 194630, Note_on_c, 0, 62, 93
2, 194630, Note_on_c, 0, 74, 90
2, 194648, Note_on_c, 0, 67, 0
2, 194650, Note_on_c, 0, 55, 0
2, 194655, Note_on_c, 0, 52, 0
2, 194655, Note_on_c, 0, 59, 0
2, 194656, Note_on_c, 0, 71, 0
2, 194656, Note_on_c, 0, 74, 0
2, 194658, Note_on_c, 0, 62, 0
2, 194658, Note_on_c, 0, 64, 87
2, 194658, Note_on_c, 0, 76, 87
2, 194686, Note_on_c, 0, 78, 88
2, 194688, Note_on_c, 0, 76, 0
2, 194688, Note_on_c, 0, 64, 0
2, 194688, Note_on_c, 0, 66, 84
2, 194716, Note_on_c, 0, 78, 0
2, 194721, Note_on_c, 0, 66, 0
2, 194721, Note_on_c, 0, 67, 80
2, 194721, Note_on_c, 0, 79, 80
2, 194749, Note_on_c, 0, 79, 0
2, 194749, Note_on_c, 0, 81, 83
2, 194751, Note_on_c, 0, 67, 0
2, 194752, Note_on_c, 0, 69, 81
2, 194776, Note_on_c, 0, 55, 80
2, 194776, Note_on_c, 0, 59, 80
2, 194776, Note_on_c, 0, 64, 81
2, 194776, Note_on_c, 0, 67, 80
2, 194776, Note_on_c, 0, 76, 82
2, 194780, Note_on_c, 0, 69, 0
2, 194780, Note_on_c, 0, 81, 0
2, 194780, Note_on_c, 0, 52, 79
2, 194780, Note_on_c, 0, 83, 84
2, 194782, Note_on_c, 0, 71, 81
2, 194787, Control_c, 0, 64, 127
2, 194803, Note_on_c, 0, 76, 0
2, 194810, Note_on_c, 0, 59, 0
2, 194810, Note_on_c, 0, 71, 0
2, 194810, Note_on_c, 0, 67, 0
2, 194810, Note_on_c, 0, 64, 0
2, 194810, Note_on_c, 0, 83, 0
2, 194812, Note_on_c, 0, 73, 81
2, 194812, Note_on_c, 0, 85, 83
2, 194814, Note_on_c, 0, 52, 0
2, 194814, Note_on_c, 0, 55, 0
2, 194839, Note_on_c, 0, 85, 0
2, 194839, Note_on_c, 0, 86, 83
2, 194841, Note_on_c, 0, 73, 0
2, 194841, Note_on_c, 0, 74, 81
2, 194869, Note_on_c, 0, 74, 0
2, 194869, Note_on_c, 0, 86, 0
2, 194871, Control_c, 0, 64, 0
2, 194871, Note_on_c, 0, 76, 81
2, 194871, Note_on_c, 0, 88, 82
2, 194898, Note_on_c, 0, 88, 0
2, 194900, Note_on_c, 0, 76, 0
2, 194905, Note_on_c, 0, 78, 81
2, 194907, Note_on_c, 0, 90, 83
2, 194927, Note_on_c, 0, 78, 0
2, 194927, Note_on_c, 0, 47, 80
2, 194932, Note_on_c, 0, 90, 0
2, 194942, Note_on_c, 0, 54, 80
2, 194942, Note_on_c, 0, 92, 84
2, 194944, Note_on_c, 0, 80, 83
2, 194948, Note_on_c, 0, 78, 84
2, 194950, Note_on_c, 0, 66, 84
2, 194955, Note_on_c, 0, 47, 0
2, 194955, Note_on_c, 0, 62, 84
2, 194955, Note_on_c, 0, 71, 86
2, 194955, Note_on_c, 0, 74, 87
2, 194957, Control_c, 0, 64, 127
2, 194967, Note_on_c, 0, 80, 0
2, 194967, Note_on_c, 0, 92, 0
2, 194976, Note_on_c, 0, 54, 0
2, 194976, Note_on_c, 0, 94, 83
2, 194981, Note_on_c, 0, 78, 0
2, 194981, Note_on_c, 0, 82, 82
2, 194983, Note_on_c, 0, 74, 0
2, 194983, Note_on_c, 0, 71, 0
2, 194988, Note_on_c, 0, 66, 0
2, 194988, Note_on_c, 0, 62, 0
2, 195006, Note_on_c, 0, 94, 0
2, 195008, Note_on_c, 0, 82, 0
2, 195015, Note_on_c, 0, 95, 83
2, 195016, Note_on_c, 0, 83, 83
2, 195040, Note_on_c, 0, 95, 0
2, 195040, Control_c, 0, 64, 0
2, 195046, Note_on_c, 0, 83, 0
2, 195053, Note_on_c, 0, 85, 83
2, 195055, Note_on_c, 0, 97, 86
2, 195080, Note_on_c, 0, 97, 0
2, 195085, Note_on_c, 0, 85, 0
2, 195089, Note_on_c, 0, 98, 86
2, 195091, Note_on_c, 0, 86, 83
2, 195116, Note_on_c, 0, 98, 0
2, 195118, Note_on_c, 0, 86, 0
2, 195125, Control_c, 0, 64, 127
2, 195125, Note_on_c, 0, 100, 87
2, 195130, Note_on_c, 0, 62, 80
2, 195130, Note_on_c, 0, 71, 82
2, 195130, Note_on_c, 0, 74, 81
2, 195130, Note_on_c, 0, 88, 84
2, 195132, Note_on_c, 0, 67, 80
2, 195134, Note_on_c, 0, 55, 80
2, 195136, Note_on_c, 0, 59, 80
2, 195152, Note_on_c, 0, 100, 0
2, 195154, Note_on_c, 0, 88, 0
2, 195160, Control_c, 0, 64, 0
2, 195160, Note_on_c, 0, 102, 86
2, 195162, Note_on_c, 0, 74, 0
2, 195162, Note_on_c, 0, 67, 0
2, 195162, Note_on_c, 0, 71, 0
2, 195164, Note_on_c, 0, 59, 0
2, 195164, Note_on_c, 0, 90, 83
2, 195166, Note_on_c, 0, 55, 0
2, 195166, Note_on_c, 0, 62, 0
2, 195191, Note_on_c, 0, 102, 0
2, 195191, Note_on_c, 0, 90, 0
2, 195196, Note_on_c, 0, 91, 82
2, 195196, Note_on_c, 0, 103, 86
2, 195223, Note_on_c, 0, 103, 0
2, 195228, Note_on_c, 0, 91, 0
2, 195234, Note_on_c, 0, 92, 83
2, 195236, Note_on_c, 0, 104, 86
2, 195263, Note_on_c, 0, 104, 0
2, 195265, Note_on_c, 0, 92, 0
2, 195270, Note_on_c, 0, 93, 83
2, 195281, Control_c, 0, 64, 127
2, 195281, Note_on_c, 0, 40, 80
2, 195298, Note_on_c, 0, 93, 0
2, 195298, Note_on_c, 0, 47, 79
2, 195306, Note_on_c, 0, 95, 88
2, 195308, Note_on_c, 0, 76, 87
2, 195310, Note_on_c, 0, 55, 83
2, 195310, Note_on_c, 0, 64, 87
2, 195310, Note_on_c, 0, 67, 88
2, 195310, Note_on_c, 0, 71, 90
2, 195319, Note_on_c, 0, 40, 0
2, 195321, Note_on_c, 0, 47, 0
2, 195329, Note_on_c, 0, 95, 0
2, 195331, Note_on_c, 0, 67, 0
2, 195331, Note_on_c, 0, 91, 84
2, 195331, Note_on_c, 0, 103, 86
2, 195333, Note_on_c, 0, 55, 0
2, 195340, Note_on_c, 0, 71, 0
2, 195340, Note_on_c, 0, 64, 0
2, 195356, Note_on_c, 0, 76, 0
2, 195356, Note_on_c, 0, 103, 0
2, 195358, Note_on_c, 0, 91, 0
2, 195358, Note_on_c, 0, 88, 82
2, 195358, Note_on_c, 0, 100, 85
2, 195385, Note_on_c, 0, 100, 0
2, 195387, Note_on_c, 0, 88, 0
2, 195387, Note_on_c, 0, 95, 78
2, 195389, Note_on_c, 0, 83, 77
2, 195414, Note_on_c, 0, 95, 0
2, 195416, Note_on_c, 0, 91, 76
2, 195418, Note_on_c, 0, 83, 0
2, 195418, Note_on_c, 0, 79, 74
2, 195443, Note_on_c, 0, 91, 0
2, 195449, Note_on_c, 0, 88, 76
2, 195451, Note_on_c, 0, 79, 0
2, 195451, Note_on_c, 0, 76, 74
2, 195476, Note_on_c, 0, 88, 0
2, 195478, Note_on_c, 0, 76, 0
2, 195478, Note_on_c, 0, 71, 74
2, 195480, Note_on_c, 0, 83, 75
2, 195507, Note_on_c, 0, 83, 0
2, 195507, Note_on_c, 0, 79, 74
2, 195512, Note_on_c, 0, 71, 0
2, 195514, Note_on_c, 0, 67, 69
2, 195537, Note_on_c, 0, 79, 0
2, 195539, Note_on_c, 0, 67, 0
2, 195541, Note_on_c, 0, 64, 65
2, 195541, Note_on_c, 0, 76, 66
2, 195568, Note_on_c, 0, 76, 0
2, 195568, Note_on_c, 0, 71, 65
2, 195569, Note_on_c, 0, 64, 0
2, 195571, Note_on_c, 0, 59, 65
2, 195601, Note_on_c, 0, 71, 0
2, 195601, Note_on_c, 0, 67, 65
2, 195603, Note_on_c, 0, 59, 0
2, 195603, Note_on_c, 0, 55, 65
2, 195626, Note_on_c, 0, 52, 64
2, 195626, Note_on_c, 0, 64, 65
2, 195628, Note_on_c, 0, 67, 0
2, 195630, Control_c, 0, 64, 0
2, 195632, Note_on_c, 0, 55, 0
2, 195643, Note_on_c, 0, 84, 69
2, 195645, Note_on_c, 0, 76, 67
2, 195647, Note_on_c, 0, 72, 67
2, 195649, Note_on_c, 0, 33, 65
2, 195649, Note_on_c, 0, 45, 65
2, 195651, Note_on_c, 0, 64, 0
2, 195653, Note_on_c, 0, 52, 0
2, 195676, Note_on_c, 0, 45, 0
2, 195692, Note_on_c, 0, 33, 0
2, 195729, Note_on_c, 0, 32, 65
2, 195729, Note_on_c, 0, 44, 65
2, 195740, Note_on_c, 0, 84, 0
2, 195749, Note_on_c, 0, 72, 0
2, 195762, Note_on_c, 0, 32, 0
2, 195762, Note_on_c, 0, 44, 0
2, 195797, Note_on_c, 0, 74, 66
2, 195797, Note_on_c, 0, 86, 68
2, 195810, Note_on_c, 0, 84, 68
2, 195817, Note_on_c, 0, 72, 67
2, 195822, Note_on_c, 0, 33, 65
2, 195822, Note_on_c, 0, 45, 65
2, 195849, Note_on_c, 0, 86, 0
2, 195849, Note_on_c, 0, 74, 0
2, 195856, Note_on_c, 0, 45, 0
2, 195869, Note_on_c, 0, 33, 0
2, 195892, Note_on_c, 0, 47, 65
2, 195894, Note_on_c, 0, 84, 0
2, 195896, Note_on_c, 0, 35, 65
2, 195903, Note_on_c, 0, 72, 0
2, 195929, Note_on_c, 0, 47, 0
2, 195931, Note_on_c, 0, 35, 0
2, 195952, Note_on_c, 0, 71, 66
2, 195952, Note_on_c, 0, 83, 69
2, 195970, Note_on_c, 0, 81, 71
2, 195976, Note_on_c, 0, 36, 67
2, 195976, Note_on_c, 0, 48, 68
2, 195976, Note_on_c, 0, 69, 71
2, 195990, Note_on_c, 0, 83, 0
2, 195992, Note_on_c, 0, 71, 0
2, 196010, Note_on_c, 0, 48, 0
2, 196012, Note_on_c, 0, 36, 0
2, 196032, Note_on_c, 0, 81, 0
2, 196039, Note_on_c, 0, 69, 0
2, 196041, Note_on_c, 0, 49, 69
2, 196046, Note_on_c, 0, 37, 69
2, 196089, Note_on_c, 0, 49, 0
2, 196096, Note_on_c, 0, 37, 0
2, 196104, Note_on_c, 0, 67, 69
2, 196104, Note_on_c, 0, 79, 70
2, 196116, Note_on_c, 0, 76, 0
2, 196124, Note_on_c, 0, 66, 66
2, 196124, Note_on_c, 0, 78, 67
2, 196129, Note_on_c, 0, 50, 69
2, 196134, Note_on_c, 0, 38, 69
2, 196141, Note_on_c, 0, 67, 0
2, 196143, Note_on_c, 0, 79, 0
2, 196149, Note_on_c, 0, 69, 70
2, 196169, Note_on_c, 0, 50, 0
2, 196178, Note_on_c, 0, 38, 0
2, 196183, Note_on_c, 0, 78, 0
2, 196190, Note_on_c, 0, 69, 0
2, 196190, Note_on_c, 0, 66, 0
2, 196210, Note_on_c, 0, 48, 69
2, 196212, Note_on_c, 0, 36, 69
2, 196250, Note_on_c, 0, 48, 0
2, 196255, Note_on_c, 0, 36, 0
2, 196264, Note_on_c, 0, 81, 72
2, 196268, Note_on_c, 0, 69, 71
2, 196288, Note_on_c, 0, 74, 73
2, 196288, Note_on_c, 0, 78, 75
2, 196288, Note_on_c, 0, 86, 78
2, 196295, Note_on_c, 0, 35, 71
2, 196295, Note_on_c, 0, 47, 72
2, 196322, Note_on_c, 0, 81, 0
2, 196324, Note_on_c, 0, 69, 0
2, 196326, Note_on_c, 0, 47, 0
2, 196337, Note_on_c, 0, 35, 0
2, 196376, Note_on_c, 0, 46, 73
2, 196378, Note_on_c, 0, 34, 73
2, 196396, Note_on_c, 0, 86, 0
2, 196396, Note_on_c, 0, 74, 0
2, 196416, Note_on_c, 0, 46, 0
2, 196421, Note_on_c, 0, 34, 0
2, 196428, Note_on_c, 0, 88, 76
2, 196430, Note_on_c, 0, 76, 74
2, 196446, Note_on_c, 0, 86, 78
2, 196448, Note_on_c, 0, 74, 77
2, 196456, Note_on_c, 0, 35, 73
2, 196456, Note_on_c, 0, 47, 73
2, 196470, Note_on_c, 0, 88, 0
2, 196475, Note_on_c, 0, 76, 0
2, 196491, Note_on_c, 0, 47, 0
2, 196498, Note_on_c, 0, 35, 0
2, 196528, Note_on_c, 0, 86, 0
2, 196534, Note_on_c, 0, 74, 0
2, 196551, Note_on_c, 0, 48, 73
2, 196552, Note_on_c, 0, 36, 73
2, 196587, Note_on_c, 0, 48, 0
2, 196589, Note_on_c, 0, 36, 0
2, 196589, Note_on_c, 0, 84, 76
2, 196591, Note_on_c, 0, 72, 73
2, 196611, Note_on_c, 0, 71, 75
2, 196616, Note_on_c, 0, 83, 79
2, 196623, Note_on_c, 0, 50, 78
2, 196624, Note_on_c, 0, 38, 79
2, 196629, Note_on_c, 0, 84, 0
2, 196631, Note_on_c, 0, 72, 0
2, 196656, Note_on_c, 0, 50, 0
2, 196658, Note_on_c, 0, 38, 0
2, 196693, Note_on_c, 0, 83, 0
2, 196697, Note_on_c, 0, 51, 83
2, 196702, Note_on_c, 0, 71, 0
2, 196704, Note_on_c, 0, 39, 83
2, 196724, Note_on_c, 0, 78, 0
2, 196736, Note_on_c, 0, 39, 0
2, 196736, Note_on_c, 0, 51, 0
2, 196744, Note_on_c, 0, 81, 84
2, 196746, Note_on_c, 0, 69, 81
2, 196765, Note_on_c, 0, 71, 81
2, 196765, Note_on_c, 0, 79, 82
2, 196771, Note_on_c, 0, 67, 80
2, 196778, Note_on_c, 0, 52, 80
2, 196780, Note_on_c, 0, 40, 80
2, 196810, Note_on_c, 0, 69, 0
2, 196812, Note_on_c, 0, 81, 0
2, 196812, Note_on_c, 0, 52, 0
2, 196823, Note_on_c, 0, 40, 0
2, 196848, Note_on_c, 0, 71, 0
2, 196853, Note_on_c, 0, 50, 80
2, 196855, Note_on_c, 0, 38, 80
2, 196860, Note_on_c, 0, 79, 0
2, 196862, Note_on_c, 0, 67, 0
2, 196888, Note_on_c, 0, 50, 0
2, 196902, Note_on_c, 0, 38, 0
2, 196911, Note_on_c, 0, 71, 81
2, 196911, Note_on_c, 0, 83, 83
2, 196927, Note_on_c, 0, 88, 85
2, 196929, Note_on_c, 0, 76, 84
2, 196929, Note_on_c, 0, 79, 85
2, 196934, Note_on_c, 0, 36, 80
2, 196934, Note_on_c, 0, 48, 80
2, 196957, Note_on_c, 0, 83, 0
2, 196961, Note_on_c, 0, 88, 0
2, 196963, Note_on_c, 0, 71, 0
2, 196965, Note_on_c, 0, 48, 0
2, 196972, Note_on_c, 0, 76, 0
2, 196979, Note_on_c, 0, 36, 0
2, 197006, Note_on_c, 0, 79, 0
2, 197017, Note_on_c, 0, 35, 80
2, 197017, Note_on_c, 0, 47, 80
2, 197042, Note_on_c, 0, 47, 0
2, 197056, Note_on_c, 0, 35, 0
2, 197062, Note_on_c, 0, 86, 83
2, 197064, Note_on_c, 0, 74, 81
2, 197084, Note_on_c, 0, 81, 83
2, 197084, Note_on_c, 0, 84, 84
2, 197089, Note_on_c, 0, 72, 81
2, 197094, Note_on_c, 0, 33, 80
2, 197094, Note_on_c, 0, 45, 80
2, 197119, Note_on_c, 0, 45, 0
2, 197151, Note_on_c, 0, 33, 0
2, 197157, Note_on_c, 0, 86, 0
2, 197159, Note_on_c, 0, 74, 0
2, 197159, Note_on_c, 0, 72, 0
2, 197164, Note_on_c, 0, 84, 0
2, 197171, Note_on_c, 0, 36, 82
2, 197171, Note_on_c, 0, 48, 83
2, 197209, Note_on_c, 0, 48, 0
2, 197218, Note_on_c, 0, 36, 0
2, 197234, Note_on_c, 0, 88, 90
2, 197236, Note_on_c, 0, 76, 89
2, 197249, Note_on_c, 0, 78, 91
2, 197249, Note_on_c, 0, 90, 94
2, 197256, Note_on_c, 0, 50, 87
2, 197258, Note_on_c, 0, 38, 88
2, 197267, Note_on_c, 0, 88, 0
2, 197269, Note_on_c, 0, 76, 0
2, 197289, Note_on_c, 0, 50, 0
2, 197289, Note_on_c, 0, 38, 0
2, 197337, Note_on_c, 0, 52, 87
2, 197342, Note_on_c, 0, 40, 88
2, 197358, Note_on_c, 0, 90, 0
2, 197360, Note_on_c, 0, 78, 0
2, 197362, Note_on_c, 0, 40, 0
2, 197362, Note_on_c, 0, 52, 0
2, 197392, Note_on_c, 0, 88, 91
2, 197396, Note_on_c, 0, 76, 89
2, 197408, Note_on_c, 0, 74, 87
2, 197408, Note_on_c, 0, 86, 88
2, 197419, Note_on_c, 0, 54, 88
2, 197421, Note_on_c, 0, 42, 88
2, 197428, Note_on_c, 0, 88, 0
2, 197430, Note_on_c, 0, 76, 0
2, 197455, Note_on_c, 0, 54, 0
2, 197455, Note_on_c, 0, 42, 0
2, 197500, Note_on_c, 0, 50, 87
2, 197502, Note_on_c, 0, 38, 88
2, 197509, Note_on_c, 0, 81, 0
2, 197534, Note_on_c, 0, 86, 0
2, 197536, Note_on_c, 0, 74, 0
2, 197536, Note_on_c, 0, 50, 0
2, 197540, Note_on_c, 0, 38, 0
2, 197540, Note_on_c, 0, 78, 89
2, 197540, Note_on_c, 0, 90, 90
2, 197572, Note_on_c, 0, 79, 90
2, 197572, Note_on_c, 0, 83, 94
2, 197572, Note_on_c, 0, 91, 95
2, 197581, Control_c, 0, 64, 127
2, 197581, Note_on_c, 0, 47, 88
2, 197585, Note_on_c, 0, 35, 90
2, 197590, Note_on_c, 0, 90, 0
2, 197592, Note_on_c, 0, 78, 0
2, 197610, Note_on_c, 0, 35, 0
2, 197617, Note_on_c, 0, 47, 0
2, 197649, Note_on_c, 0, 91, 0
2, 197651, Note_on_c, 0, 79, 0
2, 197656, Note_on_c, 0, 47, 92
2, 197656, Note_on_c, 0, 59, 93
2, 197664, Control_c, 0, 64, 0
2, 197684, Note_on_c, 0, 59, 0
2, 197684, Note_on_c, 0, 47, 0
2, 197696, Note_on_c, 0, 78, 89
2, 197696, Note_on_c, 0, 90, 91
2, 197712, Note_on_c, 0, 83, 0
2, 197737, Note_on_c, 0, 76, 91
2, 197737, Note_on_c, 0, 84, 95
2, 197737, Note_on_c, 0, 88, 96
2, 197742, Note_on_c, 0, 45, 96
2, 197742, Note_on_c, 0, 57, 97
2, 197744, Control_c, 0, 64, 127
2, 197764, Note_on_c, 0, 78, 0
2, 197769, Note_on_c, 0, 57, 0
2, 197776, Note_on_c, 0, 45, 0
2, 197780, Note_on_c, 0, 90, 0
2, 197794, Note_on_c, 0, 88, 0
2, 197794, Control_c, 0, 64, 0
2, 197796, Note_on_c, 0, 76, 0
2, 197816, Note_on_c, 0, 50, 96
2, 197818, Note_on_c, 0, 38, 98
2, 197845, Note_on_c, 0, 38, 0
2, 197847, Note_on_c, 0, 50, 0
2, 197870, Note_on_c, 0, 90, 97
2, 197872, Note_on_c, 0, 78, 97
2, 197880, Note_on_c, 0, 84, 0
2, 197889, Note_on_c, 0, 83, 102
2, 197889, Note_on_c, 0, 91, 103
2, 197891, Note_on_c, 0, 79, 102
2, 197896, Note_on_c, 0, 43, 102
2, 197896, Note_on_c, 0, 55, 103
2, 197904, Note_on_c, 0, 78, 0
2, 197909, Note_on_c, 0, 90, 0
2, 197925, Note_on_c, 0, 79, 0
2, 197927, Control_c, 0, 64, 127
2, 197929, Note_on_c, 0, 91, 0
2, 197929, Note_on_c, 0, 55, 0
2, 197934, Note_on_c, 0, 83, 0
2, 197936, Note_on_c, 0, 43, 0
2, 198011, Note_on_c, 0, 31, 101
2, 198036, Note_on_c, 0, 38, 96
2, 198044, Note_on_c, 0, 31, 0
2, 198056, Note_on_c, 0, 43, 97
2, 198067, Note_on_c, 0, 38, 0
2, 198067, Note_on_c, 0, 64, 97
2, 198079, Note_on_c, 0, 50, 97
2, 198081, Note_on_c, 0, 67, 99
2, 198083, Note_on_c, 0, 55, 97
2, 198085, Note_on_c, 0, 59, 97
2, 198119, Note_on_c, 0, 64, 0
2, 198126, Note_on_c, 0, 50, 0
2, 198126, Note_on_c, 0, 59, 0
2, 198128, Control_c, 0, 64, 0
2, 198136, Note_on_c, 0, 55, 0
2, 198138, Note_on_c, 0, 67, 0
2, 198147, Note_on_c, 0, 43, 0
2, 199665, Control_c, 0, 64, 127
2, 199670, Note_on_c, 0, 52, 51
2, 199672, Note_on_c, 0, 40, 51
2, 199728, Note_on_c, 0, 40, 0
2, 199728, Note_on_c, 0, 52, 0
2, 199866, Control_c, 0, 64, 0
2, 199960, Note_on_c, 0, 64, 45
2, 199961, Note_on_c, 0, 59, 51
2, 199966, Note_on_c, 0, 55, 51
2, 199975, Control_c, 0, 64, 127
2, 200000, Note_on_c, 0, 55, 0
2, 200000, Note_on_c, 0, 59, 0
2, 200007, Note_on_c, 0, 64, 0
2, 200111, Control_c, 0, 64, 0
2, 200211, Note_on_c, 0, 52, 44
2, 200213, Note_on_c, 0, 40, 51
2, 200229, Control_c, 0, 64, 127
2, 200252, Note_on_c, 0, 40, 0
2, 200252, Note_on_c, 0, 52, 0
2, 200357, Control_c, 0, 64, 0
2, 200434, Note_on_c, 0, 66, 45
2, 200436, Note_on_c, 0, 57, 50
2, 200436, Note_on_c, 0, 60, 51
2, 200461, Control_c, 0, 64, 127
2, 200477, Note_on_c, 0, 60, 0
2, 200477, Note_on_c, 0, 57, 0
2, 200484, Note_on_c, 0, 66, 0
2, 200588, Control_c, 0, 64, 0
2, 200681, Note_on_c, 0, 40, 44
2, 200681, Note_on_c, 0, 52, 51
2, 200700, Control_c, 0, 64, 127
2, 200720, Note_on_c, 0, 40, 0
2, 200722, Note_on_c, 0, 52, 0
2, 200833, Control_c, 0, 64, 0
2, 200903, Note_on_c, 0, 58, 44
2, 200903, Note_on_c, 0, 67, 57
2, 200915, Control_c, 0, 64, 127
2, 200915, Note_on_c, 0, 61, 54
2, 200951, Note_on_c, 0, 67, 0
2, 200963, Note_on_c, 0, 61, 0
2, 200963, Note_on_c, 0, 58, 0
2, 201081, Control_c, 0, 64, 0
2, 201146, Note_on_c, 0, 52, 51
2, 201148, Note_on_c, 0, 40, 51
2, 201161, Control_c, 0, 64, 127
2, 201191, Note_on_c, 0, 40, 0
2, 201191, Note_on_c, 0, 52, 0
2, 201284, Control_c, 0, 64, 0
2, 201371, Note_on_c, 0, 63, 44
2, 201376, Note_on_c, 0, 57, 51
2, 201376, Note_on_c, 0, 60, 51
2, 201399, Control_c, 0, 64, 127
2, 201424, Note_on_c, 0, 60, 0
2, 201424, Note_on_c, 0, 57, 0
2, 201425, Note_on_c, 0, 63, 0
2, 201505, Control_c, 0, 67, 127
2, 201530, Control_c, 0, 64, 0
2, 201620, Note_on_c, 0, 52, 41
2, 201622, Control_c, 0, 64, 127
2, 201622, Note_on_c, 0, 40, 54
2, 201654, Note_on_c, 0, 52, 0
2, 201656, Note_on_c, 0, 40, 0
2, 201742, Control_c, 0, 64, 0
2, 201826, Note_on_c, 0, 55, 41
2, 201826, Note_on_c, 0, 64, 54
2, 201837, Note_on_c, 0, 59, 54
2, 201839, Control_c, 0, 64, 127
2, 201869, Note_on_c, 0, 59, 0
2, 201880, Note_on_c, 0, 55, 0
2, 201882, Note_on_c, 0, 64, 0
2, 201989, Control_c, 0, 64, 0
2, 202069, Note_on_c, 0, 40, 41
2, 202071, Note_on_c, 0, 52, 53
2, 202079, Control_c, 0, 64, 127
2, 202109, Note_on_c, 0, 52, 0
2, 202111, Note_on_c, 0, 40, 0
2, 202194, Control_c, 0, 64, 0
2, 202281, Note_on_c, 0, 66, 42
2, 202283, Note_on_c, 0, 57, 54
2, 202283, Note_on_c, 0, 60, 54
2, 202291, Control_c, 0, 64, 127
2, 202330, Note_on_c, 0, 60, 0
2, 202330, Note_on_c, 0, 57, 0
2, 202330, Note_on_c, 0, 66, 0
2, 202423, Control_c, 0, 64, 0
2, 202502, Note_on_c, 0, 40, 41
2, 202502, Note_on_c, 0, 52, 53
2, 202508, Control_c, 0, 64, 127
2, 202549, Note_on_c, 0, 52, 0
2, 202551, Note_on_c, 0, 40, 0
2, 202634, Control_c, 0, 64, 0
2, 202716, Note_on_c, 0, 61, 41
2, 202720, Note_on_c, 0, 67, 54
2, 202725, Note_on_c, 0, 58, 54
2, 202739, Control_c, 0, 64, 127
2, 202759, Note_on_c, 0, 67, 0
2, 202770, Note_on_c, 0, 58, 0
2, 202770, Note_on_c, 0, 61, 0
2, 202861, Control_c, 0, 64, 0
2, 202942, Note_on_c, 0, 40, 41
2, 202942, Note_on_c, 0, 52, 54
2, 202954, Control_c, 0, 64, 127
2, 202979, Note_on_c, 0, 52, 0
2, 202985, Note_on_c, 0, 40, 0
2, 203087, Control_c, 0, 64, 0
2, 203171, Note_on_c, 0, 57, 41
2, 203171, Note_on_c, 0, 60, 54
2, 203171, Note_on_c, 0, 63, 53
2, 203173, Control_c, 0, 64, 127
2, 203261, Note_on_c, 0, 63, 0
2, 203261, Note_on_c, 0, 60, 0
2, 203261, Note_on_c, 0, 57, 0
2, 203291, Control_c, 0, 64, 0
2, 203384, Note_on_c, 0, 52, 54
2, 203386, Note_on_c, 0, 40, 54
2, 203404, Control_c, 0, 64, 127
2, 203419, Note_on_c, 0, 40, 0
2, 203433, Note_on_c, 0, 52, 0
2, 203503, Control_c, 0, 64, 0
2, 203573, Note_on_c, 0, 91, 56
2, 203575, Note_on_c, 0, 76, 55
2, 203577, Note_on_c, 0, 83, 57
2, 203579, Note_on_c, 0, 64, 54
2, 203584, Note_on_c, 0, 59, 54
2, 203588, Note_on_c, 0, 55, 54
2, 203600, Note_on_c, 0, 91, 0
2, 203602, Note_on_c, 0, 76, 0
2, 203602, Note_on_c, 0, 83, 0
2, 203627, Note_on_c, 0, 64, 0
2, 203627, Note_on_c, 0, 59, 0
2, 203638, Note_on_c, 0, 55, 0
2, 203658, Control_c, 0, 64, 127
2, 203688, Note_on_c, 0, 79, 51
2, 203688, Note_on_c, 0, 88, 51
2, 203690, Note_on_c, 0, 71, 48
2, 203713, Note_on_c, 0, 71, 0
2, 203713, Note_on_c, 0, 79, 0
2, 203718, Note_on_c, 0, 88, 0
2, 203727, Control_c, 0, 64, 0
2, 203797, Note_on_c, 0, 91, 57
2, 203801, Note_on_c, 0, 76, 62
2, 203801, Note_on_c, 0, 83, 65
2, 203806, Note_on_c, 0, 40, 54
2, 203806, Note_on_c, 0, 52, 54
2, 203836, Control_c, 0, 64, 127
2, 203848, Note_on_c, 0, 40, 0
2, 203861, Note_on_c, 0, 52, 0
2, 203899, Note_on_c, 0, 91, 0
2, 203915, Note_on_c, 0, 76, 0
2, 203921, Note_on_c, 0, 83, 0
2, 203946, Control_c, 0, 64, 0
2, 204008, Note_on_c, 0, 57, 54
2, 204008, Note_on_c, 0, 60, 54
2, 204008, Note_on_c, 0, 66, 54
2, 204008, Note_on_c, 0, 72, 54
2, 204008, Note_on_c, 0, 76, 55
2, 204008, Note_on_c, 0, 81, 56
2, 204010, Note_on_c, 0, 90, 57
2, 204041, Note_on_c, 0, 72, 0
2, 204043, Note_on_c, 0, 76, 0
2, 204045, Note_on_c, 0, 90, 0
2, 204050, Note_on_c, 0, 81, 0
2, 204050, Control_c, 0, 64, 127
2, 204057, Note_on_c, 0, 66, 0
2, 204057, Note_on_c, 0, 60, 0
2, 204082, Note_on_c, 0, 57, 0
2, 204222, Control_c, 0, 64, 0
2, 204242, Note_on_c, 0, 87, 61
2, 204249, Note_on_c, 0, 52, 54
2, 204249, Note_on_c, 0, 69, 60
2, 204249, Note_on_c, 0, 72, 59
2, 204249, Note_on_c, 0, 78, 60
2, 204251, Note_on_c, 0, 40, 54
2, 204294, Note_on_c, 0, 72, 0
2, 204299, Note_on_c, 0, 69, 0
2, 204310, Note_on_c, 0, 78, 0
2, 204310, Note_on_c, 0, 40, 0
2, 204312, Control_c, 0, 64, 127
2, 204330, Note_on_c, 0, 52, 0
2, 204353, Note_on_c, 0, 87, 0
2, 204475, Control_c, 0, 64, 0
2, 204482, Note_on_c, 0, 88, 66
2, 204484, Note_on_c, 0, 79, 64
2, 204486, Note_on_c, 0, 70, 64
2, 204486, Note_on_c, 0, 73, 64
2, 204495, Note_on_c, 0, 67, 61
2, 204501, Note_on_c, 0, 58, 54
2, 204501, Note_on_c, 0, 61, 54
2, 204555, Control_c, 0, 64, 127
2, 204589, Note_on_c, 0, 70, 0
2, 204591, Note_on_c, 0, 67, 0
2, 204592, Note_on_c, 0, 79, 0
2, 204592, Note_on_c, 0, 73, 0
2, 204592, Note_on_c, 0, 58, 0
2, 204592, Note_on_c, 0, 61, 0
2, 204599, Note_on_c, 0, 88, 0
2, 204631, Control_c, 0, 64, 0
2, 204688, Note_on_c, 0, 71, 54
2, 204688, Note_on_c, 0, 77, 55
2, 204688, Note_on_c, 0, 80, 54
2, 204688, Note_on_c, 0, 86, 57
2, 204699, Note_on_c, 0, 52, 54
2, 204706, Note_on_c, 0, 40, 54
2, 204717, Note_on_c, 0, 71, 0
2, 204719, Control_c, 0, 64, 127
2, 204721, Note_on_c, 0, 77, 0
2, 204728, Note_on_c, 0, 86, 0
2, 204728, Note_on_c, 0, 80, 0
2, 204736, Note_on_c, 0, 40, 0
2, 204752, Note_on_c, 0, 52, 0
2, 204804, Note_on_c, 0, 80, 58
2, 204806, Note_on_c, 0, 86, 63
2, 204808, Note_on_c, 0, 71, 62
2, 204808, Note_on_c, 0, 77, 63
2, 204831, Note_on_c, 0, 80, 0
2, 204832, Note_on_c, 0, 77, 0
2, 204832, Note_on_c, 0, 71, 0
2, 204844, Note_on_c, 0, 86, 0
2, 204916, Note_on_c, 0, 80, 59
2, 204918, Note_on_c, 0, 71, 63
2, 204918, Note_on_c, 0, 86, 66
2, 204923, Note_on_c, 0, 77, 63
2, 204928, Note_on_c, 0, 62, 54
2, 204928, Note_on_c, 0, 68, 60
2, 204929, Note_on_c, 0, 59, 54
2, 204941, Note_on_c, 0, 80, 0
2, 204948, Note_on_c, 0, 77, 0
2, 204950, Note_on_c, 0, 71, 0
2, 204958, Note_on_c, 0, 68, 0
2, 204963, Note_on_c, 0, 86, 0
2, 204978, Note_on_c, 0, 62, 0
2, 204985, Note_on_c, 0, 59, 0
2, 205044, Control_c, 0, 64, 0
2, 205136, Note_on_c, 0, 70, 54
2, 205136, Note_on_c, 0, 76, 55
2, 205136, Note_on_c, 0, 79, 54
2, 205136, Note_on_c, 0, 85, 57
2, 205138, Note_on_c, 0, 52, 54
2, 205140, Note_on_c, 0, 40, 54
2, 205144, Control_c, 0, 64, 127
2, 205160, Note_on_c, 0, 70, 0
2, 205167, Note_on_c, 0, 76, 0
2, 205173, Note_on_c, 0, 52, 0
2, 205173, Note_on_c, 0, 85, 0
2, 205173, Note_on_c, 0, 40, 0
2, 205196, Note_on_c, 0, 79, 0
2, 205243, Note_on_c, 0, 76, 54
2, 205243, Note_on_c, 0, 79, 55
2, 205243, Note_on_c, 0, 85, 56
2, 205250, Note_on_c, 0, 70, 55
2, 205280, Note_on_c, 0, 70, 0
2, 205287, Note_on_c, 0, 85, 0
2, 205295, Note_on_c, 0, 76, 0
2, 205311, Note_on_c, 0, 79, 0
2, 205358, Note_on_c, 0, 85, 60
2, 205360, Note_on_c, 0, 64, 60
2, 205360, Note_on_c, 0, 76, 62
2, 205360, Note_on_c, 0, 79, 63
2, 205361, Note_on_c, 0, 61, 54
2, 205361, Note_on_c, 0, 70, 64
2, 205391, Note_on_c, 0, 85, 0
2, 205403, Note_on_c, 0, 76, 0
2, 205403, Note_on_c, 0, 70, 0
2, 205411, Note_on_c, 0, 61, 0
2, 205413, Note_on_c, 0, 79, 0
2, 205418, Note_on_c, 0, 64, 0
2, 205479, Control_c, 0, 64, 0
2, 205569, Note_on_c, 0, 78, 59
2, 205569, Note_on_c, 0, 84, 62
2, 205571, Note_on_c, 0, 69, 59
2, 205571, Note_on_c, 0, 75, 60
2, 205576, Note_on_c, 0, 40, 54
2, 205576, Note_on_c, 0, 52, 54
2, 205591, Control_c, 0, 64, 127
2, 205600, Note_on_c, 0, 69, 0
2, 205601, Note_on_c, 0, 75, 0
2, 205601, Note_on_c, 0, 78, 0
2, 205606, Note_on_c, 0, 84, 0
2, 205606, Note_on_c, 0, 40, 0
2, 205628, Note_on_c, 0, 52, 0
2, 205678, Note_on_c, 0, 78, 58
2, 205678, Note_on_c, 0, 84, 62
2, 205680, Note_on_c, 0, 75, 59
2, 205685, Note_on_c, 0, 69, 60
2, 205715, Note_on_c, 0, 75, 0
2, 205715, Note_on_c, 0, 84, 0
2, 205723, Note_on_c, 0, 78, 0
2, 205725, Note_on_c, 0, 69, 0
2, 205797, Note_on_c, 0, 78, 57
2, 205804, Note_on_c, 0, 63, 54
2, 205804, Note_on_c, 0, 66, 59
2, 205804, Note_on_c, 0, 69, 59
2, 205804, Note_on_c, 0, 75, 60
2, 205804, Note_on_c, 0, 84, 61
2, 205838, Note_on_c, 0, 69, 0
2, 205842, Note_on_c, 0, 75, 0
2, 205842, Note_on_c, 0, 78, 0
2, 205844, Note_on_c, 0, 66, 0
2, 205856, Note_on_c, 0, 63, 0
2, 205863, Note_on_c, 0, 84, 0
2, 205936, Control_c, 0, 64, 0
2, 206018, Note_on_c, 0, 83, 61
2, 206020, Note_on_c, 0, 59, 54
2, 206020, Note_on_c, 0, 64, 59
2, 206020, Note_on_c, 0, 67, 58
2, 206020, Note_on_c, 0, 76, 60
2, 206025, Note_on_c, 0, 52, 54
2, 206043, Note_on_c, 0, 67, 0
2, 206045, Note_on_c, 0, 76, 0
2, 206047, Note_on_c, 0, 83, 0
2, 206054, Note_on_c, 0, 59, 0
2, 206054, Control_c, 0, 64, 127
2, 206058, Note_on_c, 0, 52, 0
2, 206060, Note_on_c, 0, 64, 0
2, 206114, Note_on_c, 0, 88, 55
2, 206119, Note_on_c, 0, 71, 49
2, 206119, Note_on_c, 0, 79, 48
2, 206124, Control_c, 0, 64, 0
2, 206146, Note_on_c, 0, 79, 0
2, 206146, Note_on_c, 0, 71, 0
2, 206151, Note_on_c, 0, 88, 0
2, 206234, Note_on_c, 0, 52, 54
2, 206234, Note_on_c, 0, 57, 54
2, 206234, Note_on_c, 0, 64, 59
2, 206234, Note_on_c, 0, 69, 59
2, 206234, Note_on_c, 0, 76, 60
2, 206234, Note_on_c, 0, 84, 61
2, 206256, Control_c, 0, 64, 127
2, 206258, Note_on_c, 0, 76, 0
2, 206258, Note_on_c, 0, 69, 0
2, 206265, Note_on_c, 0, 84, 0
2, 206267, Note_on_c, 0, 64, 0
2, 206269, Note_on_c, 0, 57, 0
2, 206269, Note_on_c, 0, 52, 0
2, 206322, Note_on_c, 0, 78, 53
2, 206322, Note_on_c, 0, 88, 51
2, 206329, Note_on_c, 0, 72, 48
2, 206351, Note_on_c, 0, 72, 0
2, 206351, Note_on_c, 0, 78, 0
2, 206356, Note_on_c, 0, 88, 0
2, 206369, Control_c, 0, 64, 0
2, 206440, Note_on_c, 0, 64, 55
2, 206440, Note_on_c, 0, 67, 58
2, 206440, Note_on_c, 0, 83, 62
2, 206441, Note_on_c, 0, 59, 54
2, 206443, Note_on_c, 0, 52, 54
2, 206445, Note_on_c, 0, 76, 58
2, 206459, Control_c, 0, 64, 127
2, 206467, Note_on_c, 0, 67, 0
2, 206469, Note_on_c, 0, 83, 0
2, 206474, Note_on_c, 0, 64, 0
2, 206474, Note_on_c, 0, 76, 0
2, 206499, Note_on_c, 0, 59, 0
2, 206511, Note_on_c, 0, 52, 0
2, 206623, Control_c, 0, 64, 0
2, 206653, Note_on_c, 0, 52, 62
2, 206704, Note_on_c, 0, 52, 0
2, 206713, Note_on_c, 0, 50, 62
2, 206760, Control_c, 0, 64, 127
2, 206760, Note_on_c, 0, 48, 62
2, 206778, Note_on_c, 0, 50, 0
2, 206794, Note_on_c, 0, 47, 62
2, 206809, Note_on_c, 0, 48, 0
2, 206827, Note_on_c, 0, 47, 0
2, 206861, Note_on_c, 0, 34, 62
2, 206861, Note_on_c, 0, 46, 63
2, 206870, Control_c, 0, 64, 0
2, 207081, Note_on_c, 0, 55, 61
2, 207081, Note_on_c, 0, 60, 62
2, 207081, Note_on_c, 0, 72, 64
2, 207081, Note_on_c, 0, 79, 63
2, 207083, Note_on_c, 0, 52, 61
2, 207083, Note_on_c, 0, 64, 63
2, 207110, Note_on_c, 0, 72, 0
2, 207116, Note_on_c, 0, 64, 0
2, 207116, Note_on_c, 0, 60, 0
2, 207121, Note_on_c, 0, 55, 0
2, 207121, Note_on_c, 0, 52, 0
2, 207123, Note_on_c, 0, 79, 0
2, 207188, Note_on_c, 0, 67, 62
2, 207188, Note_on_c, 0, 76, 64
2, 207215, Note_on_c, 0, 67, 0
2, 207222, Control_c, 0, 64, 127
2, 207235, Note_on_c, 0, 76, 0
2, 207285, Note_on_c, 0, 46, 0
2, 207297, Note_on_c, 0, 34, 0
2, 207297, Note_on_c, 0, 79, 64
2, 207302, Note_on_c, 0, 33, 62
2, 207302, Note_on_c, 0, 45, 62
2, 207302, Note_on_c, 0, 64, 63
2, 207302, Note_on_c, 0, 72, 63
2, 207327, Note_on_c, 0, 72, 0
2, 207327, Note_on_c, 0, 79, 0
2, 207335, Note_on_c, 0, 64, 0
2, 207349, Control_c, 0, 64, 0
2, 207526, Note_on_c, 0, 78, 63
2, 207528, Note_on_c, 0, 60, 62
2, 207528, Note_on_c, 0, 63, 62
2, 207528, Note_on_c, 0, 72, 64
2, 207530, Note_on_c, 0, 54, 61
2, 207562, Note_on_c, 0, 54, 0
2, 207562, Note_on_c, 0, 60, 0
2, 207564, Note_on_c, 0, 63, 0
2, 207566, Note_on_c, 0, 72, 0
2, 207579, Note_on_c, 0, 78, 0
2, 207619, Control_c, 0, 64, 127
2, 207700, Note_on_c, 0, 45, 0
2, 207712, Note_on_c, 0, 33, 0
2, 207738, Note_on_c, 0, 75, 63
2, 207738, Note_on_c, 0, 78, 64
2, 207738, Note_on_c, 0, 84, 65
2, 207740, Note_on_c, 0, 59, 62
2, 207742, Note_on_c, 0, 43, 62
2, 207742, Note_on_c, 0, 47, 62
2, 207742, Note_on_c, 0, 52, 61
2, 207742, Note_on_c, 0, 69, 64
2, 207744, Note_on_c, 0, 31, 62
2, 207758, Control_c, 0, 64, 0
2, 207766, Note_on_c, 0, 69, 0
2, 207766, Note_on_c, 0, 59, 0
2, 207768, Note_on_c, 0, 84, 0
2, 207768, Note_on_c, 0, 47, 0
2, 207768, Note_on_c, 0, 78, 0
2, 207768, Note_on_c, 0, 52, 0
2, 207770, Note_on_c, 0, 75, 0
2, 207957, Note_on_c, 0, 76, 63
2, 207957, Note_on_c, 0, 79, 64
2, 207962, Note_on_c, 0, 83, 65
2, 207964, Note_on_c, 0, 67, 63
2, 207993, Note_on_c, 0, 67, 0
2, 208000, Note_on_c, 0, 76, 0
2, 208000, Note_on_c, 0, 79, 0
2, 208015, Note_on_c, 0, 83, 0
2, 208017, Control_c, 0, 64, 127
2, 208104, Note_on_c, 0, 43, 0
2, 208104, Note_on_c, 0, 31, 0
2, 208171, Note_on_c, 0, 91, 65
2, 208173, Note_on_c, 0, 82, 66
2, 208173, Note_on_c, 0, 85, 66
2, 208175, Note_on_c, 0, 76, 63
2, 208180, Note_on_c, 0, 42, 62
2, 208185, Note_on_c, 0, 30, 62
2, 208190, Control_c, 0, 64, 0
2, 208198, Note_on_c, 0, 85, 0
2, 208198, Note_on_c, 0, 91, 0
2, 208200, Note_on_c, 0, 76, 0
2, 208205, Note_on_c, 0, 82, 0
2, 208270, Note_on_c, 0, 85, 65
2, 208270, Note_on_c, 0, 91, 66
2, 208272, Note_on_c, 0, 76, 63
2, 208274, Note_on_c, 0, 82, 66
2, 208286, Control_c, 0, 64, 127
2, 208297, Note_on_c, 0, 82, 0
2, 208297, Note_on_c, 0, 85, 0
2, 208299, Note_on_c, 0, 76, 0
2, 208304, Note_on_c, 0, 91, 0
2, 208336, Note_on_c, 0, 42, 0
2, 208337, Note_on_c, 0, 30, 0
2, 208339, Control_c, 0, 64, 0
2, 208380, Note_on_c, 0, 91, 65
2, 208386, Note_on_c, 0, 58, 62
2, 208386, Note_on_c, 0, 64, 63
2, 208386, Note_on_c, 0, 76, 63
2, 208386, Note_on_c, 0, 82, 66
2, 208391, Note_on_c, 0, 85, 65
2, 208393, Note_on_c, 0, 61, 62
2, 208427, Control_c, 0, 64, 127
2, 208460, Note_on_c, 0, 91, 0
2, 208474, Note_on_c, 0, 85, 0
2, 208474, Note_on_c, 0, 82, 0
2, 208474, Note_on_c, 0, 76, 0
2, 208474, Note_on_c, 0, 61, 0
2, 208476, Note_on_c, 0, 64, 0
2, 208478, Note_on_c, 0, 58, 0
2, 208534, Control_c, 0, 64, 0
2, 208593, Note_on_c, 0, 78, 63
2, 208593, Note_on_c, 0, 80, 61
2, 208593, Note_on_c, 0, 83, 62
2, 208593, Note_on_c, 0, 86, 61
2, 208595, Note_on_c, 0, 90, 62
2, 208597, Note_on_c, 0, 54, 62
2, 208597, Note_on_c, 0, 74, 60
2, 208601, Note_on_c, 0, 42, 62
2, 208628, Note_on_c, 0, 74, 0
2, 208630, Control_c, 0, 64, 127
2, 208632, Note_on_c, 0, 80, 0
2, 208634, Note_on_c, 0, 78, 0
2, 208641, Note_on_c, 0, 86, 0
2, 208641, Note_on_c, 0, 90, 0
2, 208641, Note_on_c, 0, 83, 0
2, 208672, Note_on_c, 0, 54, 0
2, 208679, Note_on_c, 0, 42, 0
2, 208704, Note_on_c, 0, 78, 63
2, 208704, Note_on_c, 0, 83, 67
2, 208704, Note_on_c, 0, 86, 68
2, 208704, Note_on_c, 0, 90, 69
2, 208709, Note_on_c, 0, 74, 68
2, 208711, Note_on_c, 0, 80, 69
2, 208738, Note_on_c, 0, 74, 0
2, 208740, Control_c, 0, 64, 0
2, 208746, Note_on_c, 0, 90, 0
2, 208746, Note_on_c, 0, 78, 0
2, 208746, Note_on_c, 0, 80, 0
2, 208753, Note_on_c, 0, 83, 0
2, 208753, Note_on_c, 0, 86, 0
2, 208810, Note_on_c, 0, 74, 65
2, 208810, Note_on_c, 0, 78, 69
2, 208810, Note_on_c, 0, 80, 70
2, 208810, Note_on_c, 0, 83, 73
2, 208810, Note_on_c, 0, 86, 74
2, 208810, Note_on_c, 0, 90, 73
2, 208818, Note_on_c, 0, 56, 62
2, 208818, Note_on_c, 0, 62, 62
2, 208820, Note_on_c, 0, 59, 61
2, 208822, Control_c, 0, 64, 127
2, 208836, Note_on_c, 0, 83, 0
2, 208847, Note_on_c, 0, 86, 0
2, 208847, Note_on_c, 0, 90, 0
2, 208852, Note_on_c, 0, 74, 0
2, 208854, Note_on_c, 0, 59, 0
2, 208854, Note_on_c, 0, 62, 0
2, 208859, Note_on_c, 0, 56, 0
2, 208864, Note_on_c, 0, 80, 0
2, 208865, Note_on_c, 0, 78, 0
2, 208944, Control_c, 0, 64, 0
2, 209011, Note_on_c, 0, 88, 65
2, 209013, Note_on_c, 0, 82, 66
2, 209018, Note_on_c, 0, 78, 64
2, 209023, Note_on_c, 0, 73, 64
2, 209036, Note_on_c, 0, 30, 62
2, 209036, Note_on_c, 0, 42, 62
2, 209055, Note_on_c, 0, 73, 0
2, 209055, Note_on_c, 0, 78, 0
2, 209055, Note_on_c, 0, 88, 0
2, 209055, Note_on_c, 0, 82, 0
2, 209055, Control_c, 0, 64, 127
2, 209118, Note_on_c, 0, 78, 64
2, 209118, Note_on_c, 0, 88, 66
2, 209123, Note_on_c, 0, 73, 63
2, 209123, Note_on_c, 0, 82, 66
2, 209128, Note_on_c, 0, 85, 65
2, 209152, Note_on_c, 0, 88, 0
2, 209152, Note_on_c, 0, 78, 0
2, 209152, Note_on_c, 0, 42, 0
2, 209154, Note_on_c, 0, 73, 0
2, 209154, Note_on_c, 0, 30, 0
2, 209168, Note_on_c, 0, 85, 0
2, 209170, Note_on_c, 0, 82, 0
2, 209178, Control_c, 0, 64, 0
2, 209232, Note_on_c, 0, 88, 65
2, 209234, Note_on_c, 0, 82, 66
2, 209234, Note_on_c, 0, 85, 66
2, 209236, Note_on_c, 0, 58, 62
2, 209236, Note_on_c, 0, 64, 63
2, 209241, Note_on_c, 0, 61, 62
2, 209241, Note_on_c, 0, 73, 63
2, 209241, Note_on_c, 0, 76, 62
2, 209241, Note_on_c, 0, 78, 63
2, 209270, Note_on_c, 0, 58, 0
2, 209272, Note_on_c, 0, 61, 0
2, 209276, Note_on_c, 0, 64, 0
2, 209276, Control_c, 0, 64, 127
2, 209296, Note_on_c, 0, 85, 0
2, 209301, Note_on_c, 0, 88, 0
2, 209303, Note_on_c, 0, 73, 0
2, 209312, Note_on_c, 0, 82, 0
2, 209330, Note_on_c, 0, 76, 0
2, 209345, Control_c, 0, 64, 0
2, 209350, Note_on_c, 0, 78, 0
2, 209379, Note_on_c, 0, 47, 53
2, 209419, Note_on_c, 0, 54, 54
2, 209426, Note_on_c, 0, 47, 0
2, 209446, Note_on_c, 0, 71, 60
2, 209446, Note_on_c, 0, 78, 60
2, 209446, Note_on_c, 0, 83, 61
2, 209446, Note_on_c, 0, 87, 62
2, 209448, Note_on_c, 0, 63, 54
2, 209462, Note_on_c, 0, 54, 0
2, 209473, Control_c, 0, 64, 127
2, 209482, Note_on_c, 0, 83, 0
2, 209482, Note_on_c, 0, 71, 0
2, 209482, Note_on_c, 0, 78, 0
2, 209487, Note_on_c, 0, 63, 0
2, 209502, Note_on_c, 0, 87, 0
2, 209544, Control_c, 0, 64, 0
2, 209553, Note_on_c, 0, 90, 62
2, 209611, Note_on_c, 0, 90, 0
2, 209616, Note_on_c, 0, 48, 53
2, 209638, Note_on_c, 0, 54, 54
2, 209652, Note_on_c, 0, 48, 0
2, 209658, Note_on_c, 0, 58, 56
2, 209663, Note_on_c, 0, 76, 63
2, 209663, Note_on_c, 0, 78, 62
2, 209663, Note_on_c, 0, 82, 63
2, 209663, Note_on_c, 0, 88, 62
2, 209668, Note_on_c, 0, 64, 58
2, 209681, Control_c, 0, 64, 127
2, 209686, Note_on_c, 0, 54, 0
2, 209698, Note_on_c, 0, 78, 0
2, 209698, Note_on_c, 0, 88, 0
2, 209703, Note_on_c, 0, 82, 0
2, 209703, Note_on_c, 0, 76, 0
2, 209704, Note_on_c, 0, 58, 0
2, 209709, Note_on_c, 0, 64, 0
2, 209770, Note_on_c, 0, 90, 63
2, 209778, Control_c, 0, 64, 0
2, 209821, Note_on_c, 0, 47, 54
2, 209825, Note_on_c, 0, 90, 0
2, 209857, Note_on_c, 0, 54, 54
2, 209864, Note_on_c, 0, 47, 0
2, 209886, Note_on_c, 0, 87, 61
2, 209888, Note_on_c, 0, 63, 54
2, 209888, Note_on_c, 0, 78, 60
2, 209888, Note_on_c, 0, 83, 61
2, 209910, Note_on_c, 0, 54, 0
2, 209915, Control_c, 0, 64, 127
2, 209920, Note_on_c, 0, 63, 0
2, 209933, Note_on_c, 0, 78, 0
2, 209938, Note_on_c, 0, 83, 0
2, 209943, Note_on_c, 0, 87, 0
2, 210050, Control_c, 0, 64, 0
2, 210090, Note_on_c, 0, 71, 55
2, 210092, Note_on_c, 0, 47, 54
2, 210131, Note_on_c, 0, 71, 0
2, 210142, Note_on_c, 0, 47, 0
2, 210144, Note_on_c, 0, 45, 54
2, 210144, Note_on_c, 0, 69, 55
2, 210193, Note_on_c, 0, 67, 54
2, 210200, Note_on_c, 0, 43, 56
2, 210202, Note_on_c, 0, 45, 0
2, 210204, Note_on_c, 0, 69, 0
2, 210242, Note_on_c, 0, 67, 0
2, 210244, Note_on_c, 0, 43, 0
2, 210244, Note_on_c, 0, 66, 58
2, 210249, Note_on_c, 0, 42, 58
2, 210294, Note_on_c, 0, 66, 0
2, 210301, Note_on_c, 0, 64, 62
2, 210303, Note_on_c, 0, 40, 62
2, 210303, Note_on_c, 0, 52, 63
2, 210304, Note_on_c, 0, 42, 0
2, 210392, Control_c, 0, 64, 127
2, 210477, Note_on_c, 0, 64, 0
2, 210477, Note_on_c, 0, 40, 0
2, 210477, Note_on_c, 0, 52, 0
2, 210518, Note_on_c, 0, 91, 59
2, 210520, Note_on_c, 0, 83, 58
2, 210521, Note_on_c, 0, 59, 55
2, 210521, Note_on_c, 0, 64, 54
2, 210521, Note_on_c, 0, 76, 54
2, 210530, Note_on_c, 0, 55, 54
2, 210535, Control_c, 0, 64, 0
2, 210546, Note_on_c, 0, 76, 0
2, 210546, Note_on_c, 0, 83, 0
2, 210546, Note_on_c, 0, 91, 0
2, 210553, Note_on_c, 0, 64, 0
2, 210562, Note_on_c, 0, 59, 0
2, 210577, Note_on_c, 0, 55, 0
2, 210644, Note_on_c, 0, 88, 56
2, 210646, Note_on_c, 0, 71, 55
2, 210646, Note_on_c, 0, 79, 55
2, 210671, Note_on_c, 0, 79, 0
2, 210671, Note_on_c, 0, 88, 0
2, 210676, Note_on_c, 0, 71, 0
2, 210763, Note_on_c, 0, 91, 56
2, 210768, Note_on_c, 0, 76, 55
2, 210768, Note_on_c, 0, 83, 57
2, 210775, Note_on_c, 0, 40, 54
2, 210775, Note_on_c, 0, 52, 54
2, 210795, Note_on_c, 0, 76, 0
2, 210800, Note_on_c, 0, 91, 0
2, 210802, Note_on_c, 0, 83, 0
2, 210808, Control_c, 0, 64, 127
2, 210815, Note_on_c, 0, 40, 0
2, 210829, Note_on_c, 0, 52, 0
2, 210963, Control_c, 0, 64, 0
2, 211003, Note_on_c, 0, 66, 53
2, 211003, Note_on_c, 0, 76, 55
2, 211003, Note_on_c, 0, 81, 56
2, 211005, Note_on_c, 0, 57, 54
2, 211005, Note_on_c, 0, 60, 54
2, 211005, Note_on_c, 0, 72, 55
2, 211005, Note_on_c, 0, 90, 56
2, 211048, Control_c, 0, 64, 127
2, 211054, Note_on_c, 0, 72, 0
2, 211059, Note_on_c, 0, 57, 0
2, 211059, Note_on_c, 0, 76, 0
2, 211059, Note_on_c, 0, 60, 0
2, 211081, Note_on_c, 0, 90, 0
2, 211083, Note_on_c, 0, 81, 0
2, 211085, Note_on_c, 0, 66, 0
2, 211168, Control_c, 0, 64, 0
2, 211215, Note_on_c, 0, 87, 61
2, 211216, Note_on_c, 0, 69, 56
2, 211216, Note_on_c, 0, 72, 55
2, 211216, Note_on_c, 0, 78, 54
2, 211221, Note_on_c, 0, 40, 54
2, 211221, Note_on_c, 0, 52, 54
2, 211237, Control_c, 0, 64, 127
2, 211248, Note_on_c, 0, 72, 0
2, 211250, Note_on_c, 0, 69, 0
2, 211259, Note_on_c, 0, 78, 0
2, 211259, Note_on_c, 0, 87, 0
2, 211259, Note_on_c, 0, 40, 0
2, 211267, Note_on_c, 0, 52, 0
2, 211393, Control_c, 0, 64, 0
2, 211442, Note_on_c, 0, 88, 65
2, 211449, Note_on_c, 0, 58, 54
2, 211449, Note_on_c, 0, 61, 54
2, 211449, Note_on_c, 0, 67, 63
2, 211449, Note_on_c, 0, 70, 63
2, 211449, Note_on_c, 0, 73, 64
2, 211449, Note_on_c, 0, 79, 63
2, 211476, Note_on_c, 0, 88, 0
2, 211478, Note_on_c, 0, 73, 0
2, 211478, Note_on_c, 0, 70, 0
2, 211478, Note_on_c, 0, 67, 0
2, 211478, Note_on_c, 0, 79, 0
2, 211478, Control_c, 0, 64, 127
2, 211486, Note_on_c, 0, 61, 0
2, 211513, Note_on_c, 0, 58, 0
2, 211602, Control_c, 0, 64, 0
2, 211658, Note_on_c, 0, 80, 55
2, 211658, Note_on_c, 0, 86, 60
2, 211660, Note_on_c, 0, 71, 59
2, 211660, Note_on_c, 0, 77, 60
2, 211662, Note_on_c, 0, 40, 54
2, 211684, Note_on_c, 0, 80, 0
2, 211689, Note_on_c, 0, 40, 0
2, 211691, Note_on_c, 0, 77, 0
2, 211691, Note_on_c, 0, 71, 0
2, 211697, Note_on_c, 0, 86, 0
2, 211699, Control_c, 0, 64, 127
2, 211765, Note_on_c, 0, 80, 57
2, 211765, Note_on_c, 0, 86, 61
2, 211767, Note_on_c, 0, 71, 60
2, 211768, Note_on_c, 0, 77, 60
2, 211797, Note_on_c, 0, 77, 0
2, 211804, Note_on_c, 0, 71, 0
2, 211806, Note_on_c, 0, 86, 0
2, 211811, Note_on_c, 0, 80, 0
2, 211883, Note_on_c, 0, 86, 59
2, 211889, Note_on_c, 0, 71, 60
2, 211889, Note_on_c, 0, 77, 60
2, 211889, Note_on_c, 0, 80, 59
2, 211896, Note_on_c, 0, 59, 54
2, 211896, Note_on_c, 0, 62, 54
2, 211896, Note_on_c, 0, 68, 59
2, 211921, Note_on_c, 0, 80, 0
2, 211928, Note_on_c, 0, 71, 0
2, 211928, Note_on_c, 0, 68, 0
2, 211933, Note_on_c, 0, 77, 0
2, 211933, Note_on_c, 0, 86, 0
2, 211953, Note_on_c, 0, 62, 0
2, 211955, Note_on_c, 0, 59, 0
2, 212033, Control_c, 0, 64, 0
2, 212114, Note_on_c, 0, 70, 59
2, 212114, Note_on_c, 0, 76, 60
2, 212114, Note_on_c, 0, 79, 59
2, 212114, Note_on_c, 0, 85, 62
2, 212128, Note_on_c, 0, 40, 54
2, 212141, Control_c, 0, 64, 127
2, 212163, Note_on_c, 0, 40, 0
2, 212163, Note_on_c, 0, 70, 0
2, 212172, Note_on_c, 0, 85, 0
2, 212178, Note_on_c, 0, 76, 0
2, 212185, Note_on_c, 0, 79, 0
2, 212232, Note_on_c, 0, 76, 55
2, 212232, Note_on_c, 0, 85, 62
2, 212234, Note_on_c, 0, 70, 61
2, 212234, Note_on_c, 0, 79, 62
2, 212266, Note_on_c, 0, 70, 0
2, 212274, Note_on_c, 0, 76, 0
2, 212281, Note_on_c, 0, 85, 0
2, 212295, Note_on_c, 0, 79, 0
2, 212337, Note_on_c, 0, 85, 61
2, 212339, Note_on_c, 0, 76, 61
2, 212339, Note_on_c, 0, 79, 62
2, 212345, Note_on_c, 0, 61, 54
2, 212345, Note_on_c, 0, 70, 63
2, 212347, Note_on_c, 0, 64, 63
2, 212381, Note_on_c, 0, 61, 0
2, 212388, Note_on_c, 0, 64, 0
2, 212408, Note_on_c, 0, 76, 0
2, 212408, Note_on_c, 0, 70, 0
2, 212413, Note_on_c, 0, 85, 0
2, 212415, Note_on_c, 0, 79, 0
2, 212453, Control_c, 0, 64, 0
2, 212554, Note_on_c, 0, 84, 61
2, 212556, Note_on_c, 0, 75, 64
2, 212560, Note_on_c, 0, 69, 64
2, 212562, Note_on_c, 0, 78, 64
2, 212569, Note_on_c, 0, 40, 54
2, 212609, Note_on_c, 0, 69, 0
2, 212609, Note_on_c, 0, 84, 0
2, 212611, Note_on_c, 0, 78, 0
2, 212613, Note_on_c, 0, 75, 0
2, 212649, Control_c, 0, 64, 127
2, 212674, Note_on_c, 0, 75, 53
2, 212674, Note_on_c, 0, 78, 51
2, 212674, Note_on_c, 0, 84, 52
2, 212676, Note_on_c, 0, 69, 49
2, 212684, Note_on_c, 0, 40, 0
2, 212713, Note_on_c, 0, 84, 0
2, 212718, Note_on_c, 0, 69, 0
2, 212723, Note_on_c, 0, 75, 0
2, 212725, Note_on_c, 0, 78, 0
2, 212783, Note_on_c, 0, 78, 57
2, 212783, Note_on_c, 0, 84, 63
2, 212788, Note_on_c, 0, 63, 54
2, 212788, Note_on_c, 0, 69, 62
2, 212793, Note_on_c, 0, 75, 63
2, 212795, Note_on_c, 0, 66, 60
2, 212824, Note_on_c, 0, 69, 0
2, 212828, Note_on_c, 0, 63, 0
2, 212828, Note_on_c, 0, 66, 0
2, 212842, Note_on_c, 0, 75, 0
2, 212847, Note_on_c, 0, 84, 0
2, 212847, Note_on_c, 0, 78, 0
2, 212922, Control_c, 0, 64, 0
2, 212998, Note_on_c, 0, 83, 62
2, 213000, Note_on_c, 0, 64, 59
2, 213000, Note_on_c, 0, 71, 60
2, 213005, Note_on_c, 0, 59, 54
2, 213007, Note_on_c, 0, 76, 60
2, 213009, Note_on_c, 0, 55, 54
2, 213011, Note_on_c, 0, 52, 54
2, 213033, Note_on_c, 0, 71, 0
2, 213041, Note_on_c, 0, 76, 0
2, 213043, Note_on_c, 0, 59, 0
2, 213043, Note_on_c, 0, 83, 0
2, 213043, Control_c, 0, 64, 127
2, 213055, Note_on_c, 0, 55, 0
2, 213057, Note_on_c, 0, 64, 0
2, 213062, Note_on_c, 0, 52, 0
2, 213117, Note_on_c, 0, 88, 57
2, 213119, Note_on_c, 0, 76, 58
2, 213119, Note_on_c, 0, 79, 59
2, 213144, Note_on_c, 0, 79, 0
2, 213146, Note_on_c, 0, 76, 0
2, 213146, Note_on_c, 0, 88, 0
2, 213173, Control_c, 0, 64, 0
2, 213213, Note_on_c, 0, 84, 60
2, 213218, Note_on_c, 0, 57, 54
2, 213218, Note_on_c, 0, 76, 59
2, 213220, Note_on_c, 0, 64, 59
2, 213220, Note_on_c, 0, 69, 60
2, 213229, Note_on_c, 0, 52, 54
2, 213247, Control_c, 0, 64, 127
2, 213252, Note_on_c, 0, 69, 0
2, 213256, Note_on_c, 0, 84, 0
2, 213258, Note_on_c, 0, 76, 0
2, 213265, Note_on_c, 0, 52, 0
2, 213267, Note_on_c, 0, 64, 0
2, 213276, Note_on_c, 0, 57, 0
2, 213328, Note_on_c, 0, 72, 54
2, 213328, Note_on_c, 0, 78, 55
2, 213328, Note_on_c, 0, 88, 56
2, 213354, Note_on_c, 0, 78, 0
2, 213354, Note_on_c, 0, 72, 0
2, 213363, Note_on_c, 0, 88, 0
2, 213435, Note_on_c, 0, 83, 58
2, 213437, Note_on_c, 0, 52, 54
2, 213437, Note_on_c, 0, 64, 67
2, 213437, Note_on_c, 0, 67, 68
2, 213437, Note_on_c, 0, 76, 70
2, 213439, Note_on_c, 0, 59, 54
2, 213450, Note_on_c, 0, 55, 54
2, 213511, Note_on_c, 0, 55, 0
2, 213511, Note_on_c, 0, 52, 0
2, 213513, Note_on_c, 0, 67, 0
2, 213518, Note_on_c, 0, 59, 0
2, 213522, Note_on_c, 0, 76, 0
2, 213543, Note_on_c, 0, 83, 0
2, 213554, Note_on_c, 0, 64, 0
2, 213613, Control_c, 0, 67, 0
2, 213626, Control_c, 0, 64, 0
2, 213646, Note_on_c, 0, 67, 61
2, 213695, Note_on_c, 0, 67, 0
2, 213700, Note_on_c, 0, 66, 61
2, 213752, Note_on_c, 0, 64, 61
2, 213759, Note_on_c, 0, 66, 0
2, 213797, Note_on_c, 0, 62, 60
2, 213810, Note_on_c, 0, 64, 0
2, 213839, Note_on_c, 0, 62, 0
2, 213868, Note_on_c, 0, 54, 61
2, 213868, Note_on_c, 0, 64, 69
2, 213873, Note_on_c, 0, 42, 61
2, 213873, Note_on_c, 0, 49, 61
2, 213875, Note_on_c, 0, 61, 60
2, 213888, Note_on_c, 0, 58, 61
2, 213910, Control_c, 0, 64, 127
2, 213944, Control_c, 0, 67, 127
2, 213957, Note_on_c, 0, 61, 0
2, 213964, Note_on_c, 0, 49, 0
2, 213964, Note_on_c, 0, 54, 0
2, 213964, Note_on_c, 0, 58, 0
2, 213976, Note_on_c, 0, 42, 0
2, 214000, Note_on_c, 0, 64, 0
2, 214078, Note_on_c, 0, 82, 58
2, 214078, Note_on_c, 0, 88, 57
2, 214080, Note_on_c, 0, 66, 53
2, 214082, Note_on_c, 0, 73, 55
2, 214118, Note_on_c, 0, 73, 0
2, 214118, Note_on_c, 0, 66, 0
2, 214118, Note_on_c, 0, 88, 0
2, 214122, Note_on_c, 0, 82, 0
2, 214188, Note_on_c, 0, 85, 56
2, 214190, Note_on_c, 0, 78, 55
2, 214192, Note_on_c, 0, 70, 55
2, 214192, Note_on_c, 0, 76, 55
2, 214218, Note_on_c, 0, 76, 0
2, 214218, Note_on_c, 0, 85, 0
2, 214218, Note_on_c, 0, 78, 0
2, 214218, Note_on_c, 0, 70, 0
2, 214308, Note_on_c, 0, 88, 61
2, 214310, Note_on_c, 0, 66, 59
2, 214310, Note_on_c, 0, 82, 62
2, 214318, Note_on_c, 0, 73, 59
2, 214367, Note_on_c, 0, 73, 0
2, 214367, Note_on_c, 0, 82, 0
2, 214367, Note_on_c, 0, 88, 0
2, 214369, Note_on_c, 0, 66, 0
2, 214396, Control_c, 0, 64, 0
2, 214526, Note_on_c, 0, 66, 56
2, 214528, Note_on_c, 0, 78, 55
2, 214528, Note_on_c, 0, 83, 57
2, 214528, Note_on_c, 0, 87, 56
2, 214532, Note_on_c, 0, 59, 58
2, 214534, Note_on_c, 0, 75, 56
2, 214561, Control_c, 0, 64, 127
2, 214575, Note_on_c, 0, 87, 0
2, 214579, Note_on_c, 0, 66, 0
2, 214584, Note_on_c, 0, 83, 0
2, 214586, Note_on_c, 0, 64, 58
2, 214591, Note_on_c, 0, 75, 0
2, 214593, Note_on_c, 0, 78, 0
2, 214608, Note_on_c, 0, 59, 0
2, 214626, Control_c, 0, 67, 0
2, 214653, Note_on_c, 0, 63, 61
2, 214660, Control_c, 0, 64, 0
2, 214662, Note_on_c, 0, 64, 0
2, 214677, Note_on_c, 0, 61, 61
2, 214693, Note_on_c, 0, 63, 0
2, 214713, Note_on_c, 0, 61, 0
2, 214731, Note_on_c, 0, 59, 61
2, 214763, Note_on_c, 0, 40, 61
2, 214763, Note_on_c, 0, 47, 61
2, 214769, Note_on_c, 0, 52, 60
2, 214769, Note_on_c, 0, 62, 61
2, 214776, Note_on_c, 0, 56, 63
2, 214792, Control_c, 0, 64, 127
2, 214840, Note_on_c, 0, 59, 0
2, 214845, Note_on_c, 0, 56, 0
2, 214847, Note_on_c, 0, 52, 0
2, 214852, Note_on_c, 0, 62, 0
2, 214852, Note_on_c, 0, 47, 0
2, 214857, Note_on_c, 0, 40, 0
2, 214875, Control_c, 0, 67, 127
2, 214971, Note_on_c, 0, 80, 54
2, 214971, Note_on_c, 0, 86, 57
2, 214973, Note_on_c, 0, 64, 53
2, 214973, Note_on_c, 0, 71, 55
2, 215007, Note_on_c, 0, 86, 0
2, 215011, Note_on_c, 0, 80, 0
2, 215013, Note_on_c, 0, 71, 0
2, 215015, Note_on_c, 0, 64, 0
2, 215084, Note_on_c, 0, 76, 54
2, 215086, Note_on_c, 0, 83, 57
2, 215088, Note_on_c, 0, 68, 54
2, 215093, Note_on_c, 0, 74, 57
2, 215118, Note_on_c, 0, 74, 0
2, 215120, Note_on_c, 0, 68, 0
2, 215122, Note_on_c, 0, 76, 0
2, 215127, Note_on_c, 0, 83, 0
2, 215200, Note_on_c, 0, 80, 59
2, 215202, Note_on_c, 0, 71, 60
2, 215202, Note_on_c, 0, 86, 62
2, 215204, Note_on_c, 0, 64, 58
2, 215262, Note_on_c, 0, 86, 0
2, 215262, Note_on_c, 0, 80, 0
2, 215262, Note_on_c, 0, 71, 0
2, 215277, Note_on_c, 0, 64, 0
2, 215351, Control_c, 0, 64, 0
2, 215418, Note_on_c, 0, 64, 63
2, 215420, Note_on_c, 0, 76, 64
2, 215420, Note_on_c, 0, 81, 66
2, 215420, Note_on_c, 0, 85, 65
2, 215422, Note_on_c, 0, 57, 58
2, 215429, Note_on_c, 0, 73, 61
2, 215464, Note_on_c, 0, 85, 0
2, 215469, Note_on_c, 0, 81, 0
2, 215471, Note_on_c, 0, 62, 58
2, 215473, Control_c, 0, 64, 127
2, 215478, Note_on_c, 0, 76, 0
2, 215483, Note_on_c, 0, 73, 0
2, 215489, Note_on_c, 0, 64, 0
2, 215496, Control_c, 0, 67, 0
2, 215503, Control_c, 0, 64, 0
2, 215505, Note_on_c, 0, 57, 0
2, 215516, Note_on_c, 0, 61, 61
2, 215518, Note_on_c, 0, 62, 0
2, 215552, Note_on_c, 0, 59, 61
2, 215563, Note_on_c, 0, 61, 0
2, 215590, Note_on_c, 0, 59, 0
2, 215619, Note_on_c, 0, 57, 61
2, 215639, Note_on_c, 0, 60, 61
2, 215644, Note_on_c, 0, 38, 64
2, 215644, Note_on_c, 0, 45, 65
2, 215644, Note_on_c, 0, 54, 66
2, 215651, Note_on_c, 0, 50, 67
2, 215676, Control_c, 0, 64, 127
2, 215678, Note_on_c, 0, 38, 0
2, 215691, Note_on_c, 0, 45, 0
2, 215704, Note_on_c, 0, 57, 0
2, 215704, Note_on_c, 0, 50, 0
2, 215711, Note_on_c, 0, 60, 0
2, 215725, Note_on_c, 0, 54, 0
2, 215849, Note_on_c, 0, 84, 71
2, 215851, Note_on_c, 0, 62, 65
2, 215851, Note_on_c, 0, 69, 66
2, 215856, Note_on_c, 0, 78, 65
2, 215881, Note_on_c, 0, 84, 0
2, 215886, Note_on_c, 0, 62, 0
2, 215893, Note_on_c, 0, 78, 0
2, 215895, Note_on_c, 0, 69, 0
2, 215955, Note_on_c, 0, 81, 68
2, 215957, Note_on_c, 0, 66, 65
2, 215957, Note_on_c, 0, 72, 66
2, 215962, Note_on_c, 0, 74, 65
2, 215993, Note_on_c, 0, 74, 0
2, 215995, Note_on_c, 0, 81, 0
2, 215997, Note_on_c, 0, 72, 0
2, 216006, Note_on_c, 0, 66, 0
2, 216077, Note_on_c, 0, 78, 66
2, 216077, Note_on_c, 0, 84, 68
2, 216082, Note_on_c, 0, 62, 65
2, 216082, Note_on_c, 0, 69, 66
2, 216129, Note_on_c, 0, 84, 0
2, 216131, Note_on_c, 0, 78, 0
2, 216136, Note_on_c, 0, 69, 0
2, 216142, Note_on_c, 0, 62, 0
2, 216233, Control_c, 0, 64, 0
2, 216284, Note_on_c, 0, 62, 65
2, 216286, Note_on_c, 0, 83, 68
2, 216288, Note_on_c, 0, 55, 66
2, 216288, Note_on_c, 0, 71, 66
2, 216288, Note_on_c, 0, 74, 65
2, 216288, Note_on_c, 0, 79, 66
2, 216320, Note_on_c, 0, 83, 0
2, 216335, Control_c, 0, 64, 127
2, 216337, Note_on_c, 0, 62, 0
2, 216339, Note_on_c, 0, 74, 0
2, 216339, Note_on_c, 0, 79, 0
2, 216348, Note_on_c, 0, 71, 0
2, 216354, Note_on_c, 0, 60, 68
2, 216356, Note_on_c, 0, 55, 0
2, 216394, Note_on_c, 0, 59, 70
2, 216407, Note_on_c, 0, 60, 0
2, 216412, Control_c, 0, 64, 0
2, 216441, Note_on_c, 0, 57, 73
2, 216446, Note_on_c, 0, 59, 0
2, 216474, Note_on_c, 0, 57, 0
2, 216495, Note_on_c, 0, 63, 70
2, 216496, Note_on_c, 0, 51, 73
2, 216496, Note_on_c, 0, 55, 74
2, 216496, Note_on_c, 0, 59, 75
2, 216501, Note_on_c, 0, 43, 76
2, 216526, Control_c, 0, 64, 127
2, 216533, Note_on_c, 0, 43, 0
2, 216533, Note_on_c, 0, 51, 0
2, 216560, Note_on_c, 0, 63, 0
2, 216560, Note_on_c, 0, 59, 0
2, 216562, Note_on_c, 0, 55, 0
2, 216651, Control_c, 0, 64, 0
2, 216656, Note_on_c, 0, 54, 65
2, 216681, Note_on_c, 0, 59, 64
2, 216706, Note_on_c, 0, 69, 98
2, 216711, Note_on_c, 0, 54, 0
2, 216719, Note_on_c, 0, 63, 71
2, 216728, Note_on_c, 0, 71, 96
2, 216739, Note_on_c, 0, 75, 95
2, 216746, Note_on_c, 0, 69, 0
2, 216766, Note_on_c, 0, 71, 0
2, 216766, Note_on_c, 0, 78, 91
2, 216768, Note_on_c, 0, 63, 0
2, 216777, Note_on_c, 0, 59, 0
2, 216782, Note_on_c, 0, 75, 0
2, 216784, Control_c, 0, 64, 127
2, 216804, Note_on_c, 0, 78, 0
2, 216812, Note_on_c, 0, 83, 91
2, 216832, Note_on_c, 0, 52, 82
2, 216844, Note_on_c, 0, 87, 93
2, 216849, Control_c, 0, 64, 0
2, 216857, Note_on_c, 0, 83, 0
2, 216866, Note_on_c, 0, 90, 95
2, 216868, Note_on_c, 0, 59, 87
2, 216877, Note_on_c, 0, 87, 0
2, 216877, Note_on_c, 0, 52, 0
2, 216890, Note_on_c, 0, 95, 98
2, 216899, Note_on_c, 0, 88, 99
2, 216901, Note_on_c, 0, 64, 97
2, 216901, Note_on_c, 0, 83, 101
2, 216903, Note_on_c, 0, 90, 0
2, 216911, Note_on_c, 0, 67, 98
2, 216920, Note_on_c, 0, 95, 0
2, 216938, Control_c, 0, 64, 127
2, 216972, Note_on_c, 0, 59, 0
2, 216985, Note_on_c, 0, 83, 0
2, 216985, Note_on_c, 0, 88, 0
2, 216985, Note_on_c, 0, 67, 0
2, 216992, Note_on_c, 0, 64, 0
2, 217063, Control_c, 0, 67, 127
2, 217083, Control_c, 0, 64, 0
2, 217095, Note_on_c, 0, 35, 54
2, 217120, Note_on_c, 0, 47, 56
2, 217126, Note_on_c, 0, 71, 64
2, 217126, Note_on_c, 0, 83, 66
2, 217371, Note_on_c, 0, 55, 57
2, 217371, Note_on_c, 0, 61, 43
2, 217373, Note_on_c, 0, 52, 42
2, 217478, Note_on_c, 0, 52, 0
2, 217480, Note_on_c, 0, 61, 0
2, 217481, Control_c, 0, 64, 127
2, 217490, Note_on_c, 0, 73, 43
2, 217492, Note_on_c, 0, 64, 43
2, 217492, Note_on_c, 0, 67, 44
2, 217497, Note_on_c, 0, 55, 0
2, 217524, Note_on_c, 0, 67, 0
2, 217557, Note_on_c, 0, 64, 0
2, 217566, Note_on_c, 0, 73, 0
2, 217600, Control_c, 0, 64, 0
2, 217600, Note_on_c, 0, 54, 54
2, 217600, Note_on_c, 0, 63, 53
2, 217608, Note_on_c, 0, 57, 54
2, 217686, Note_on_c, 0, 63, 0
2, 217691, Control_c, 0, 64, 127
2, 217696, Note_on_c, 0, 57, 0
2, 217702, Note_on_c, 0, 66, 54
2, 217702, Note_on_c, 0, 69, 55
2, 217702, Note_on_c, 0, 75, 54
2, 217733, Note_on_c, 0, 54, 0
2, 217755, Note_on_c, 0, 69, 0
2, 217795, Control_c, 0, 64, 0
2, 217802, Note_on_c, 0, 66, 0
2, 217802, Note_on_c, 0, 61, 54
2, 217802, Note_on_c, 0, 64, 54
2, 217807, Note_on_c, 0, 55, 53
2, 217829, Note_on_c, 0, 75, 0
2, 217905, Note_on_c, 0, 76, 55
2, 217907, Note_on_c, 0, 73, 59
2, 217909, Note_on_c, 0, 67, 59
2, 217911, Control_c, 0, 64, 127
2, 217912, Note_on_c, 0, 55, 0
2, 217931, Note_on_c, 0, 64, 0
2, 217931, Note_on_c, 0, 61, 0
2, 218002, Note_on_c, 0, 67, 0
2, 218007, Note_on_c, 0, 76, 0
2, 218008, Control_c, 0, 64, 0
2, 218010, Note_on_c, 0, 57, 56
2, 218010, Note_on_c, 0, 63, 57
2, 218010, Note_on_c, 0, 66, 54
2, 218022, Note_on_c, 0, 73, 0
2, 218113, Note_on_c, 0, 75, 51
2, 218113, Note_on_c, 0, 78, 64
2, 218115, Note_on_c, 0, 69, 63
2, 218120, Note_on_c, 0, 63, 0
2, 218131, Control_c, 0, 64, 127
2, 218133, Note_on_c, 0, 66, 0
2, 218133, Note_on_c, 0, 57, 0
2, 218211, Note_on_c, 0, 78, 0
2, 218211, Control_c, 0, 64, 0
2, 218213, Note_on_c, 0, 69, 0
2, 218215, Note_on_c, 0, 64, 63
2, 218215, Note_on_c, 0, 67, 63
2, 218224, Note_on_c, 0, 75, 0
2, 218224, Note_on_c, 0, 59, 62
2, 218301, Note_on_c, 0, 59, 0
2, 218301, Note_on_c, 0, 64, 0
2, 218306, Note_on_c, 0, 67, 0
2, 218326, Note_on_c, 0, 76, 53
2, 218326, Note_on_c, 0, 79, 51
2, 218346, Control_c, 0, 64, 127
2, 218407, Note_on_c, 0, 76, 0
2, 218414, Note_on_c, 0, 79, 0
2, 218425, Note_on_c, 0, 55, 54
2, 218425, Note_on_c, 0, 61, 54
2, 218425, Note_on_c, 0, 64, 54
2, 218430, Control_c, 0, 64, 0
2, 218510, Control_c, 0, 64, 127
2, 218518, Note_on_c, 0, 76, 55
2, 218520, Note_on_c, 0, 67, 54
2, 218522, Note_on_c, 0, 61, 0
2, 218524, Note_on_c, 0, 73, 54
2, 218533, Note_on_c, 0, 64, 0
2, 218602, Note_on_c, 0, 76, 0
2, 218604, Note_on_c, 0, 67, 0
2, 218617, Note_on_c, 0, 73, 0
2, 218619, Note_on_c, 0, 55, 0
2, 218624, Control_c, 0, 64, 0
2, 218635, Note_on_c, 0, 54, 53
2, 218635, Note_on_c, 0, 59, 54
2, 218635, Note_on_c, 0, 63, 53
2, 218711, Note_on_c, 0, 63, 0
2, 218711, Note_on_c, 0, 59, 0
2, 218716, Control_c, 0, 64, 127
2, 218725, Note_on_c, 0, 54, 0
2, 218725, Note_on_c, 0, 66, 43
2, 218725, Note_on_c, 0, 75, 43
2, 218749, Note_on_c, 0, 47, 0
2, 218757, Note_on_c, 0, 83, 0
2, 218759, Note_on_c, 0, 71, 0
2, 218759, Note_on_c, 0, 35, 0
2, 218759, Note_on_c, 0, 75, 0
2, 218783, Note_on_c, 0, 66, 0
2, 218788, Control_c, 0, 64, 0
2, 218830, Note_on_c, 0, 51, 55
2, 218830, Note_on_c, 0, 59, 58
2, 218837, Note_on_c, 0, 54, 59
2, 218857, Note_on_c, 0, 51, 0
2, 218864, Note_on_c, 0, 54, 0
2, 218899, Note_on_c, 0, 59, 0
2, 218901, Note_on_c, 0, 61, 62
2, 218966, Note_on_c, 0, 59, 64
2, 218968, Note_on_c, 0, 61, 0
2, 219003, Note_on_c, 0, 59, 0
2, 219037, Note_on_c, 0, 57, 68
2, 219039, Note_on_c, 0, 52, 66
2, 219039, Note_on_c, 0, 59, 65
2, 219092, Note_on_c, 0, 55, 63
2, 219108, Note_on_c, 0, 57, 0
2, 219136, Note_on_c, 0, 55, 0
2, 219165, Note_on_c, 0, 55, 56
2, 219199, Note_on_c, 0, 55, 0
2, 219226, Note_on_c, 0, 63, 54
2, 219231, Note_on_c, 0, 55, 57
2, 219273, Note_on_c, 0, 55, 0
2, 219297, Note_on_c, 0, 55, 54
2, 219330, Note_on_c, 0, 55, 0
2, 219368, Note_on_c, 0, 55, 54
2, 219405, Note_on_c, 0, 55, 0
2, 219434, Note_on_c, 0, 63, 0
2, 219441, Note_on_c, 0, 64, 43
2, 219443, Note_on_c, 0, 55, 54
2, 219478, Note_on_c, 0, 55, 0
2, 219505, Note_on_c, 0, 55, 54
2, 219520, Note_on_c, 0, 52, 0
2, 219534, Note_on_c, 0, 55, 0
2, 219543, Note_on_c, 0, 59, 0
2, 219573, Note_on_c, 0, 55, 54
2, 219597, Note_on_c, 0, 64, 0
2, 219599, Note_on_c, 0, 55, 0
2, 219623, Note_on_c, 0, 55, 54
2, 219635, Note_on_c, 0, 49, 54
2, 219635, Note_on_c, 0, 52, 54
2, 219692, Note_on_c, 0, 55, 0
2, 219694, Note_on_c, 0, 49, 0
2, 219699, Note_on_c, 0, 52, 0
2, 219699, Note_on_c, 0, 59, 58
2, 219746, Note_on_c, 0, 59, 0
2, 219758, Note_on_c, 0, 57, 58
2, 219784, Note_on_c, 0, 57, 0
2, 219813, Note_on_c, 0, 57, 58
2, 219820, Note_on_c, 0, 50, 55
2, 219820, Note_on_c, 0, 55, 54
2, 219882, Note_on_c, 0, 54, 57
2, 219891, Note_on_c, 0, 55, 0
2, 219918, Note_on_c, 0, 54, 0
2, 219952, Note_on_c, 0, 54, 54
2, 219976, Note_on_c, 0, 54, 0
2, 220018, Note_on_c, 0, 54, 57
2, 220018, Note_on_c, 0, 61, 60
2, 220051, Note_on_c, 0, 54, 0
2, 220082, Note_on_c, 0, 54, 56
2, 220113, Note_on_c, 0, 54, 0
2, 220142, Note_on_c, 0, 54, 54
2, 220160, Note_on_c, 0, 61, 0
2, 220171, Note_on_c, 0, 54, 0
2, 220202, Note_on_c, 0, 54, 54
2, 220214, Note_on_c, 0, 62, 54
2, 220229, Note_on_c, 0, 54, 0
2, 220260, Note_on_c, 0, 54, 54
2, 220280, Note_on_c, 0, 54, 0
2, 220282, Note_on_c, 0, 50, 0
2, 220300, Note_on_c, 0, 57, 0
2, 220313, Note_on_c, 0, 54, 54
2, 220322, Control_c, 0, 64, 127
2, 220337, Note_on_c, 0, 62, 0
2, 220342, Note_on_c, 0, 54, 0
2, 220344, Control_c, 0, 67, 0
2, 220404, Control_c, 0, 64, 0
2, 220419, Note_on_c, 0, 71, 70
2, 220421, Note_on_c, 0, 83, 74
2, 220423, Note_on_c, 0, 47, 76
2, 220428, Note_on_c, 0, 35, 77
2, 220643, Note_on_c, 0, 61, 75
2, 220649, Note_on_c, 0, 55, 57
2, 220654, Note_on_c, 0, 52, 57
2, 220749, Control_c, 0, 64, 127
2, 220763, Note_on_c, 0, 55, 0
2, 220765, Note_on_c, 0, 64, 57
2, 220765, Note_on_c, 0, 67, 57
2, 220765, Note_on_c, 0, 73, 57
2, 220771, Note_on_c, 0, 52, 0
2, 220785, Note_on_c, 0, 61, 0
2, 220792, Note_on_c, 0, 67, 0
2, 220807, Note_on_c, 0, 64, 0
2, 220818, Note_on_c, 0, 73, 0
2, 220856, Control_c, 0, 64, 0
2, 220867, Note_on_c, 0, 54, 58
2, 220867, Note_on_c, 0, 63, 57
2, 220874, Note_on_c, 0, 57, 56
2, 220972, Note_on_c, 0, 66, 56
2, 220974, Note_on_c, 0, 69, 63
2, 220974, Note_on_c, 0, 75, 63
2, 220976, Control_c, 0, 64, 127
2, 220981, Note_on_c, 0, 57, 0
2, 220989, Note_on_c, 0, 63, 0
2, 221001, Note_on_c, 0, 54, 0
2, 221018, Note_on_c, 0, 69, 0
2, 221042, Note_on_c, 0, 66, 0
2, 221073, Note_on_c, 0, 64, 61
2, 221075, Note_on_c, 0, 55, 61
2, 221080, Note_on_c, 0, 61, 62
2, 221084, Note_on_c, 0, 75, 0
2, 221084, Control_c, 0, 64, 0
2, 221167, Note_on_c, 0, 76, 59
2, 221169, Note_on_c, 0, 67, 66
2, 221176, Note_on_c, 0, 73, 67
2, 221182, Note_on_c, 0, 55, 0
2, 221194, Note_on_c, 0, 64, 0
2, 221205, Note_on_c, 0, 61, 0
2, 221219, Control_c, 0, 64, 127
2, 221248, Note_on_c, 0, 67, 0
2, 221259, Note_on_c, 0, 73, 0
2, 221271, Note_on_c, 0, 76, 0
2, 221272, Note_on_c, 0, 66, 66
2, 221274, Note_on_c, 0, 57, 66
2, 221281, Note_on_c, 0, 63, 66
2, 221296, Control_c, 0, 64, 0
2, 221372, Note_on_c, 0, 78, 65
2, 221381, Note_on_c, 0, 63, 0
2, 221383, Note_on_c, 0, 75, 58
2, 221385, Note_on_c, 0, 69, 58
2, 221396, Note_on_c, 0, 57, 0
2, 221396, Control_c, 0, 64, 127
2, 221403, Note_on_c, 0, 66, 0
2, 221461, Note_on_c, 0, 75, 0
2, 221469, Note_on_c, 0, 69, 0
2, 221478, Note_on_c, 0, 78, 0
2, 221485, Note_on_c, 0, 59, 65
2, 221485, Note_on_c, 0, 64, 60
2, 221485, Note_on_c, 0, 67, 61
2, 221518, Control_c, 0, 64, 0
2, 221545, Note_on_c, 0, 71, 0
2, 221587, Note_on_c, 0, 64, 0
2, 221587, Note_on_c, 0, 71, 58
2, 221587, Note_on_c, 0, 76, 57
2, 221587, Note_on_c, 0, 79, 58
2, 221592, Note_on_c, 0, 67, 0
2, 221594, Note_on_c, 0, 59, 0
2, 221594, Control_c, 0, 64, 127
2, 221641, Note_on_c, 0, 79, 0
2, 221641, Note_on_c, 0, 76, 0
2, 221679, Note_on_c, 0, 71, 0
2, 221680, Note_on_c, 0, 64, 57
2, 221682, Note_on_c, 0, 55, 57
2, 221689, Note_on_c, 0, 61, 57
2, 221698, Control_c, 0, 64, 0
2, 221789, Note_on_c, 0, 61, 0
2, 221791, Note_on_c, 0, 67, 57
2, 221791, Note_on_c, 0, 76, 58
2, 221796, Note_on_c, 0, 64, 0
2, 221798, Note_on_c, 0, 73, 58
2, 221802, Control_c, 0, 64, 127
2, 221851, Note_on_c, 0, 76, 0
2, 221872, Note_on_c, 0, 67, 0
2, 221880, Control_c, 0, 64, 0
2, 221885, Note_on_c, 0, 55, 0
2, 221894, Note_on_c, 0, 73, 0
2, 221900, Note_on_c, 0, 54, 56
2, 221900, Note_on_c, 0, 63, 57
2, 221902, Note_on_c, 0, 59, 56
2, 221953, Note_on_c, 0, 63, 0
2, 221955, Note_on_c, 0, 59, 0
2, 221960, Control_c, 0, 64, 127
2, 221984, Note_on_c, 0, 54, 0
2, 221984, Note_on_c, 0, 66, 50
2, 221989, Note_on_c, 0, 75, 50
2, 221993, Note_on_c, 0, 71, 49
2, 222017, Note_on_c, 0, 71, 0
2, 222017, Note_on_c, 0, 83, 0
2, 222026, Note_on_c, 0, 75, 0
2, 222031, Note_on_c, 0, 47, 0
2, 222033, Note_on_c, 0, 35, 0
2, 222044, Note_on_c, 0, 66, 0
2, 222087, Control_c, 0, 64, 0
2, 222100, Note_on_c, 0, 54, 57
2, 222102, Note_on_c, 0, 51, 57
2, 222102, Note_on_c, 0, 59, 57
2, 222144, Note_on_c, 0, 54, 0
2, 222161, Note_on_c, 0, 59, 0
2, 222161, Note_on_c, 0, 51, 0
2, 222177, Note_on_c, 0, 61, 58
2, 222179, Control_c, 0, 64, 127
2, 222221, Note_on_c, 0, 59, 60
2, 222226, Note_on_c, 0, 61, 0
2, 222256, Note_on_c, 0, 59, 0
2, 222294, Note_on_c, 0, 57, 61
2, 222299, Note_on_c, 0, 52, 58
2, 222299, Note_on_c, 0, 59, 57
2, 222305, Control_c, 0, 64, 0
2, 222354, Note_on_c, 0, 57, 0
2, 222363, Note_on_c, 0, 55, 57
2, 222399, Note_on_c, 0, 55, 0
2, 222429, Note_on_c, 0, 55, 57
2, 222456, Note_on_c, 0, 55, 0
2, 222483, Note_on_c, 0, 63, 60
2, 222488, Note_on_c, 0, 55, 62
2, 222519, Note_on_c, 0, 55, 0
2, 222549, Note_on_c, 0, 55, 58
2, 222585, Note_on_c, 0, 55, 0
2, 222614, Note_on_c, 0, 55, 57
2, 222629, Note_on_c, 0, 63, 0
2, 222651, Note_on_c, 0, 55, 0
2, 222685, Note_on_c, 0, 64, 45
2, 222691, Note_on_c, 0, 55, 57
2, 222725, Note_on_c, 0, 55, 0
2, 222756, Control_c, 0, 64, 127
2, 222756, Note_on_c, 0, 55, 57
2, 222780, Note_on_c, 0, 55, 0
2, 222797, Note_on_c, 0, 52, 0
2, 222810, Note_on_c, 0, 55, 57
2, 222834, Control_c, 0, 64, 0
2, 222841, Note_on_c, 0, 55, 0
2, 222841, Note_on_c, 0, 59, 0
2, 222846, Note_on_c, 0, 64, 0
2, 222880, Note_on_c, 0, 49, 57
2, 222880, Note_on_c, 0, 52, 57
2, 222886, Note_on_c, 0, 55, 56
2, 222922, Control_c, 0, 64, 127
2, 222927, Note_on_c, 0, 49, 0
2, 222933, Note_on_c, 0, 52, 0
2, 222938, Note_on_c, 0, 55, 0
2, 222950, Note_on_c, 0, 59, 61
2, 223009, Note_on_c, 0, 57, 61
2, 223011, Control_c, 0, 67, 127
2, 223013, Note_on_c, 0, 59, 0
2, 223037, Note_on_c, 0, 57, 0
2, 223077, Note_on_c, 0, 50, 61
2, 223077, Note_on_c, 0, 55, 62
2, 223077, Note_on_c, 0, 57, 63
2, 223079, Control_c, 0, 64, 0
2, 223135, Note_on_c, 0, 54, 59
2, 223142, Note_on_c, 0, 55, 0
2, 223168, Note_on_c, 0, 54, 0
2, 223195, Note_on_c, 0, 54, 54
2, 223233, Note_on_c, 0, 54, 0
2, 223268, Note_on_c, 0, 54, 57
2, 223268, Note_on_c, 0, 61, 58
2, 223302, Note_on_c, 0, 54, 0
2, 223329, Note_on_c, 0, 54, 55
2, 223369, Note_on_c, 0, 54, 0
2, 223393, Note_on_c, 0, 54, 54
2, 223429, Note_on_c, 0, 54, 0
2, 223457, Note_on_c, 0, 61, 0
2, 223457, Note_on_c, 0, 54, 54
2, 223464, Note_on_c, 0, 62, 52
2, 223491, Note_on_c, 0, 54, 0
2, 223518, Control_c, 0, 64, 127
2, 223520, Note_on_c, 0, 54, 54
2, 223537, Note_on_c, 0, 54, 0
2, 223571, Note_on_c, 0, 54, 54
2, 223582, Note_on_c, 0, 50, 0
2, 223584, Note_on_c, 0, 57, 0
2, 223589, Note_on_c, 0, 62, 0
2, 223600, Note_on_c, 0, 54, 0
2, 223672, Control_c, 0, 64, 0
2, 223672, Note_on_c, 0, 95, 83
2, 223676, Note_on_c, 0, 71, 82
2, 223676, Note_on_c, 0, 83, 85
2, 223678, Note_on_c, 0, 47, 75
2, 223680, Note_on_c, 0, 35, 76
2, 223877, Note_on_c, 0, 52, 73
2, 223877, Note_on_c, 0, 61, 54
2, 223877, Note_on_c, 0, 64, 54
2, 223877, Note_on_c, 0, 67, 53
2, 223877, Note_on_c, 0, 73, 55
2, 223884, Note_on_c, 0, 55, 53
2, 223899, Note_on_c, 0, 67, 0
2, 223908, Note_on_c, 0, 64, 0
2, 223916, Control_c, 0, 64, 127
2, 223918, Note_on_c, 0, 73, 0
2, 223978, Note_on_c, 0, 76, 52
2, 223978, Note_on_c, 0, 79, 57
2, 223978, Note_on_c, 0, 85, 60
2, 223993, Note_on_c, 0, 52, 0
2, 224005, Note_on_c, 0, 85, 0
2, 224005, Note_on_c, 0, 79, 0
2, 224011, Note_on_c, 0, 76, 0
2, 224020, Control_c, 0, 64, 0
2, 224029, Note_on_c, 0, 61, 0
2, 224053, Note_on_c, 0, 55, 0
2, 224080, Note_on_c, 0, 66, 58
2, 224080, Note_on_c, 0, 75, 61
2, 224081, Note_on_c, 0, 57, 59
2, 224081, Note_on_c, 0, 63, 60
2, 224083, Note_on_c, 0, 54, 61
2, 224083, Note_on_c, 0, 69, 62
2, 224105, Note_on_c, 0, 63, 0
2, 224126, Note_on_c, 0, 66, 0
2, 224130, Note_on_c, 0, 75, 0
2, 224132, Note_on_c, 0, 69, 0
2, 224148, Control_c, 0, 64, 127
2, 224170, Note_on_c, 0, 78, 61
2, 224170, Note_on_c, 0, 81, 65
2, 224170, Note_on_c, 0, 87, 66
2, 224172, Note_on_c, 0, 57, 0
2, 224185, Note_on_c, 0, 54, 0
2, 224209, Note_on_c, 0, 81, 0
2, 224209, Note_on_c, 0, 78, 0
2, 224214, Note_on_c, 0, 87, 0
2, 224265, Control_c, 0, 64, 0
2, 224282, Note_on_c, 0, 64, 65
2, 224282, Note_on_c, 0, 67, 66
2, 224282, Note_on_c, 0, 76, 68
2, 224289, Note_on_c, 0, 55, 66
2, 224289, Note_on_c, 0, 61, 67
2, 224289, Note_on_c, 0, 73, 69
2, 224324, Note_on_c, 0, 73, 0
2, 224326, Note_on_c, 0, 76, 0
2, 224342, Control_c, 0, 64, 127
2, 224344, Note_on_c, 0, 55, 0
2, 224370, Note_on_c, 0, 67, 0
2, 224372, Note_on_c, 0, 61, 0
2, 224372, Note_on_c, 0, 64, 0
2, 224384, Note_on_c, 0, 88, 58
2, 224389, Note_on_c, 0, 79, 55
2, 224389, Note_on_c, 0, 85, 56
2, 224417, Note_on_c, 0, 85, 0
2, 224426, Note_on_c, 0, 79, 0
2, 224431, Note_on_c, 0, 88, 0
2, 224433, Note_on_c, 0, 71, 0
2, 224440, Note_on_c, 0, 95, 0
2, 224440, Note_on_c, 0, 83, 0
2, 224444, Note_on_c, 0, 47, 0
2, 224446, Note_on_c, 0, 35, 0
2, 224468, Control_c, 0, 64, 0
2, 224499, Note_on_c, 0, 95, 61
2, 224501, Note_on_c, 0, 71, 62
2, 224501, Note_on_c, 0, 83, 65
2, 224508, Note_on_c, 0, 35, 54
2, 224508, Note_on_c, 0, 47, 54
2, 224647, Control_c, 0, 64, 127
2, 224708, Note_on_c, 0, 75, 54
2, 224717, Note_on_c, 0, 59, 53
2, 224717, Note_on_c, 0, 63, 54
2, 224717, Note_on_c, 0, 66, 57
2, 224717, Note_on_c, 0, 69, 59
2, 224719, Note_on_c, 0, 54, 53
2, 224750, Note_on_c, 0, 75, 0
2, 224754, Note_on_c, 0, 66, 0
2, 224761, Note_on_c, 0, 69, 0
2, 224812, Note_on_c, 0, 87, 58
2, 224817, Note_on_c, 0, 78, 58
2, 224817, Note_on_c, 0, 81, 61
2, 224837, Note_on_c, 0, 87, 0
2, 224842, Note_on_c, 0, 81, 0
2, 224842, Note_on_c, 0, 78, 0
2, 224844, Note_on_c, 0, 63, 0
2, 224848, Note_on_c, 0, 54, 0
2, 224848, Note_on_c, 0, 59, 0
2, 224908, Control_c, 0, 64, 0
2, 224920, Note_on_c, 0, 67, 62
2, 224920, Note_on_c, 0, 76, 64
2, 224921, Note_on_c, 0, 55, 62
2, 224921, Note_on_c, 0, 61, 63
2, 224921, Note_on_c, 0, 73, 64
2, 224923, Note_on_c, 0, 64, 62
2, 224952, Note_on_c, 0, 67, 0
2, 224966, Note_on_c, 0, 73, 0
2, 224974, Note_on_c, 0, 76, 0
2, 225005, Control_c, 0, 64, 127
2, 225029, Note_on_c, 0, 88, 65
2, 225031, Note_on_c, 0, 79, 65
2, 225031, Note_on_c, 0, 85, 68
2, 225044, Note_on_c, 0, 55, 0
2, 225051, Note_on_c, 0, 85, 0
2, 225051, Note_on_c, 0, 88, 0
2, 225056, Note_on_c, 0, 79, 0
2, 225064, Note_on_c, 0, 61, 0
2, 225064, Note_on_c, 0, 64, 0
2, 225088, Control_c, 0, 64, 0
2, 225124, Note_on_c, 0, 78, 64
2, 225129, Note_on_c, 0, 75, 66
2, 225131, Note_on_c, 0, 57, 67
2, 225131, Note_on_c, 0, 63, 68
2, 225131, Note_on_c, 0, 66, 66
2, 225131, Note_on_c, 0, 69, 68
2, 225190, Control_c, 0, 64, 127
2, 225224, Note_on_c, 0, 75, 0
2, 225226, Note_on_c, 0, 69, 0
2, 225226, Note_on_c, 0, 78, 0
2, 225226, Note_on_c, 0, 81, 57
2, 225226, Note_on_c, 0, 87, 56
2, 225231, Note_on_c, 0, 63, 0
2, 225231, Note_on_c, 0, 66, 0
2, 225231, Note_on_c, 0, 90, 59
2, 225244, Note_on_c, 0, 57, 0
2, 225246, Note_on_c, 0, 71, 0
2, 225259, Note_on_c, 0, 90, 0
2, 225259, Note_on_c, 0, 81, 0
2, 225259, Note_on_c, 0, 87, 0
2, 225277, Note_on_c, 0, 95, 0
2, 225277, Note_on_c, 0, 47, 0
2, 225281, Note_on_c, 0, 83, 0
2, 225281, Note_on_c, 0, 35, 0
2, 225341, Note_on_c, 0, 71, 57
2, 225341, Note_on_c, 0, 83, 71
2, 225341, Note_on_c, 0, 95, 72
2, 225346, Note_on_c, 0, 47, 54
2, 225348, Note_on_c, 0, 35, 54
2, 225407, Control_c, 0, 64, 0
2, 225520, Control_c, 0, 67, 0
2, 225544, Note_on_c, 0, 64, 65
2, 225544, Note_on_c, 0, 67, 66
2, 225544, Note_on_c, 0, 76, 66
2, 225545, Note_on_c, 0, 55, 60
2, 225550, Note_on_c, 0, 61, 61
2, 225552, Note_on_c, 0, 73, 67
2, 225583, Note_on_c, 0, 73, 0
2, 225583, Note_on_c, 0, 76, 0
2, 225583, Note_on_c, 0, 67, 0
2, 225600, Control_c, 0, 64, 127
2, 225651, Note_on_c, 0, 85, 67
2, 225651, Note_on_c, 0, 88, 71
2, 225656, Note_on_c, 0, 79, 70
2, 225676, Note_on_c, 0, 55, 0
2, 225683, Note_on_c, 0, 88, 0
2, 225683, Note_on_c, 0, 61, 0
2, 225683, Note_on_c, 0, 64, 0
2, 225688, Note_on_c, 0, 85, 0
2, 225688, Note_on_c, 0, 79, 0
2, 225756, Control_c, 0, 64, 0
2, 225758, Note_on_c, 0, 75, 72
2, 225758, Note_on_c, 0, 78, 73
2, 225760, Note_on_c, 0, 57, 71
2, 225760, Note_on_c, 0, 63, 72
2, 225760, Note_on_c, 0, 66, 73
2, 225760, Note_on_c, 0, 69, 75
2, 225795, Note_on_c, 0, 69, 0
2, 225804, Note_on_c, 0, 75, 0
2, 225810, Note_on_c, 0, 78, 0
2, 225846, Control_c, 0, 64, 127
2, 225868, Note_on_c, 0, 81, 62
2, 225868, Note_on_c, 0, 87, 60
2, 225870, Note_on_c, 0, 90, 59
2, 225879, Note_on_c, 0, 63, 0
2, 225901, Note_on_c, 0, 90, 0
2, 225901, Note_on_c, 0, 87, 0
2, 225903, Note_on_c, 0, 81, 0
2, 225916, Note_on_c, 0, 57, 0
2, 225929, Note_on_c, 0, 66, 0
2, 225938, Note_on_c, 0, 71, 0
2, 225955, Control_c, 0, 64, 0
2, 225971, Note_on_c, 0, 79, 68
2, 225976, Note_on_c, 0, 59, 70
2, 225976, Note_on_c, 0, 64, 69
2, 225976, Note_on_c, 0, 67, 70
2, 225976, Note_on_c, 0, 71, 72
2, 225976, Note_on_c, 0, 76, 73
2, 226035, Note_on_c, 0, 83, 0
2, 226071, Note_on_c, 0, 88, 80
2, 226071, Note_on_c, 0, 91, 82
2, 226072, Note_on_c, 0, 83, 83
2, 226077, Note_on_c, 0, 71, 0
2, 226077, Note_on_c, 0, 79, 0
2, 226079, Note_on_c, 0, 67, 0
2, 226081, Note_on_c, 0, 76, 0
2, 226081, Note_on_c, 0, 64, 0
2, 226081, Note_on_c, 0, 59, 0
2, 226086, Control_c, 0, 64, 127
2, 226106, Note_on_c, 0, 88, 0
2, 226106, Note_on_c, 0, 83, 0
2, 226113, Note_on_c, 0, 91, 0
2, 226123, Note_on_c, 0, 47, 0
2, 226125, Note_on_c, 0, 95, 0
2, 226127, Note_on_c, 0, 35, 0
2, 226167, Control_c, 0, 64, 0
2, 226173, Note_on_c, 0, 95, 86
2, 226178, Note_on_c, 0, 83, 87
2, 226183, Note_on_c, 0, 35, 65
2, 226183, Note_on_c, 0, 47, 65
2, 226291, Note_on_c, 0, 76, 82
2, 226293, Note_on_c, 0, 59, 73
2, 226293, Note_on_c, 0, 64, 73
2, 226293, Note_on_c, 0, 67, 72
2, 226293, Note_on_c, 0, 71, 74
2, 226293, Note_on_c, 0, 79, 73
2, 226295, Control_c, 0, 64, 127
2, 226326, Note_on_c, 0, 79, 0
2, 226326, Note_on_c, 0, 71, 0
2, 226333, Note_on_c, 0, 59, 0
2, 226333, Note_on_c, 0, 76, 0
2, 226337, Note_on_c, 0, 67, 0
2, 226355, Note_on_c, 0, 64, 0
2, 226375, Control_c, 0, 64, 0
2, 226399, Note_on_c, 0, 76, 78
2, 226399, Note_on_c, 0, 81, 82
2, 226401, Note_on_c, 0, 60, 73
2, 226401, Note_on_c, 0, 64, 80
2, 226401, Note_on_c, 0, 72, 82
2, 226408, Note_on_c, 0, 69, 81
2, 226428, Note_on_c, 0, 76, 0
2, 226436, Note_on_c, 0, 69, 0
2, 226436, Note_on_c, 0, 72, 0
2, 226436, Note_on_c, 0, 81, 0
2, 226441, Note_on_c, 0, 60, 0
2, 226452, Note_on_c, 0, 64, 0
2, 226465, Control_c, 0, 64, 127
2, 226501, Note_on_c, 0, 76, 78
2, 226501, Note_on_c, 0, 81, 82
2, 226503, Note_on_c, 0, 60, 73
2, 226503, Note_on_c, 0, 64, 81
2, 226503, Note_on_c, 0, 69, 83
2, 226503, Note_on_c, 0, 72, 82
2, 226525, Note_on_c, 0, 72, 0
2, 226531, Note_on_c, 0, 76, 0
2, 226538, Note_on_c, 0, 95, 0
2, 226538, Note_on_c, 0, 83, 0
2, 226538, Note_on_c, 0, 81, 0
2, 226540, Note_on_c, 0, 69, 0
2, 226542, Note_on_c, 0, 64, 0
2, 226542, Note_on_c, 0, 60, 0
2, 226557, Note_on_c, 0, 47, 0
2, 226562, Note_on_c, 0, 35, 0
2, 226606, Note_on_c, 0, 83, 79
2, 226606, Note_on_c, 0, 95, 86
2, 226613, Note_on_c, 0, 35, 79
2, 226613, Note_on_c, 0, 47, 80
2, 226719, Note_on_c, 0, 76, 89
2, 226719, Note_on_c, 0, 81, 83
2, 226720, Note_on_c, 0, 64, 79
2, 226722, Note_on_c, 0, 60, 80
2, 226722, Note_on_c, 0, 72, 81
2, 226729, Note_on_c, 0, 69, 80
2, 226744, Note_on_c, 0, 72, 0
2, 226744, Note_on_c, 0, 76, 0
2, 226751, Note_on_c, 0, 81, 0
2, 226753, Note_on_c, 0, 64, 0
2, 226760, Note_on_c, 0, 69, 0
2, 226762, Note_on_c, 0, 60, 0
2, 226782, Note_on_c, 0, 83, 0
2, 226795, Control_c, 0, 64, 0
2, 226819, Note_on_c, 0, 78, 85
2, 226819, Note_on_c, 0, 83, 89
2, 226821, Note_on_c, 0, 75, 88
2, 226828, Note_on_c, 0, 66, 88
2, 226828, Note_on_c, 0, 71, 90
2, 226833, Note_on_c, 0, 59, 80
2, 226833, Note_on_c, 0, 63, 80
2, 226860, Note_on_c, 0, 71, 0
2, 226860, Note_on_c, 0, 75, 0
2, 226860, Note_on_c, 0, 78, 0
2, 226860, Note_on_c, 0, 83, 0
2, 226868, Note_on_c, 0, 66, 0
2, 226875, Control_c, 0, 64, 127
2, 226882, Note_on_c, 0, 59, 0
2, 226882, Note_on_c, 0, 63, 0
2, 226970, Note_on_c, 0, 95, 0
2, 226975, Note_on_c, 0, 47, 0
2, 226982, Note_on_c, 0, 35, 0
2, 227031, Note_on_c, 0, 62, 80
2, 227032, Control_c, 0, 64, 0
2, 227056, Note_on_c, 0, 66, 65
2, 227087, Note_on_c, 0, 69, 68
2, 227111, Note_on_c, 0, 72, 71
2, 227120, Control_c, 0, 64, 127
2, 227127, Note_on_c, 0, 62, 0
2, 227133, Note_on_c, 0, 69, 0
2, 227135, Note_on_c, 0, 74, 74
2, 227142, Note_on_c, 0, 66, 0
2, 227152, Note_on_c, 0, 72, 0
2, 227163, Note_on_c, 0, 78, 73
2, 227183, Note_on_c, 0, 81, 74
2, 227203, Control_c, 0, 64, 0
2, 227214, Note_on_c, 0, 74, 0
2, 227214, Note_on_c, 0, 84, 71
2, 227219, Note_on_c, 0, 78, 0
2, 227227, Note_on_c, 0, 81, 0
2, 227236, Note_on_c, 0, 63, 68
2, 227258, Note_on_c, 0, 66, 65
2, 227265, Note_on_c, 0, 84, 0
2, 227287, Note_on_c, 0, 69, 69
2, 227307, Note_on_c, 0, 63, 0
2, 227314, Note_on_c, 0, 71, 71
2, 227322, Control_c, 0, 64, 127
2, 227336, Note_on_c, 0, 75, 73
2, 227353, Note_on_c, 0, 69, 0
2, 227353, Note_on_c, 0, 78, 73
2, 227360, Note_on_c, 0, 71, 0
2, 227370, Note_on_c, 0, 66, 0
2, 227377, Note_on_c, 0, 81, 72
2, 227401, Note_on_c, 0, 83, 71
2, 227406, Note_on_c, 0, 75, 0
2, 227411, Note_on_c, 0, 78, 0
2, 227426, Note_on_c, 0, 81, 0
2, 227431, Note_on_c, 0, 62, 65
2, 227446, Note_on_c, 0, 83, 0
2, 227455, Control_c, 0, 64, 0
2, 227457, Note_on_c, 0, 66, 66
2, 227488, Note_on_c, 0, 69, 69
2, 227510, Note_on_c, 0, 72, 71
2, 227527, Control_c, 0, 64, 127
2, 227532, Note_on_c, 0, 74, 73
2, 227547, Note_on_c, 0, 62, 0
2, 227552, Note_on_c, 0, 78, 72
2, 227557, Note_on_c, 0, 72, 0
2, 227557, Note_on_c, 0, 69, 0
2, 227567, Note_on_c, 0, 66, 0
2, 227572, Note_on_c, 0, 81, 70
2, 227596, Note_on_c, 0, 84, 68
2, 227601, Note_on_c, 0, 74, 0
2, 227616, Note_on_c, 0, 78, 0
2, 227623, Note_on_c, 0, 81, 0
2, 227633, Note_on_c, 0, 63, 64
2, 227635, Control_c, 0, 64, 0
2, 227659, Note_on_c, 0, 84, 0
2, 227661, Note_on_c, 0, 66, 68
2, 227690, Note_on_c, 0, 63, 0
2, 227690, Note_on_c, 0, 69, 71
2, 227717, Note_on_c, 0, 71, 72
2, 227719, Control_c, 0, 64, 127
2, 227728, Note_on_c, 0, 75, 73
2, 227741, Note_on_c, 0, 78, 74
2, 227763, Note_on_c, 0, 71, 0
2, 227763, Note_on_c, 0, 69, 0
2, 227763, Note_on_c, 0, 81, 74
2, 227774, Note_on_c, 0, 66, 0
2, 227774, Note_on_c, 0, 75, 0
2, 227787, Note_on_c, 0, 83, 71
2, 227798, Note_on_c, 0, 78, 0
2, 227804, Note_on_c, 0, 81, 0
2, 227818, Note_on_c, 0, 65, 65
2, 227820, Control_c, 0, 64, 0
2, 227824, Note_on_c, 0, 83, 0
2, 227857, Note_on_c, 0, 69, 66
2, 227884, Note_on_c, 0, 72, 69
2, 227904, Note_on_c, 0, 76, 71
2, 227915, Control_c, 0, 64, 127
2, 227925, Note_on_c, 0, 77, 73
2, 227939, Note_on_c, 0, 65, 0
2, 227947, Note_on_c, 0, 72, 0
2, 227949, Note_on_c, 0, 81, 76
2, 227954, Note_on_c, 0, 76, 0
2, 227959, Note_on_c, 0, 69, 0
2, 227969, Note_on_c, 0, 84, 76
2, 227978, Note_on_c, 0, 77, 0
2, 227989, Note_on_c, 0, 88, 77
2, 227993, Control_c, 0, 64, 0
2, 227995, Note_on_c, 0, 81, 0
2, 228011, Note_on_c, 0, 66, 72
2, 228017, Note_on_c, 0, 84, 0
2, 228035, Note_on_c, 0, 88, 0
2, 228035, Note_on_c, 0, 69, 71
2, 228064, Note_on_c, 0, 71, 69
2, 228070, Control_c, 0, 64, 127
2, 228092, Note_on_c, 0, 75, 71
2, 228121, Note_on_c, 0, 78, 72
2, 228135, Note_on_c, 0, 66, 0
2, 228141, Note_on_c, 0, 75, 0
2, 228141, Note_on_c, 0, 71, 0
2, 228146, Note_on_c, 0, 81, 75
2, 228153, Note_on_c, 0, 69, 0
2, 228160, Note_on_c, 0, 83, 76
2, 228173, Note_on_c, 0, 78, 0
2, 228182, Note_on_c, 0, 87, 76
2, 228192, Note_on_c, 0, 81, 0
2, 228203, Note_on_c, 0, 65, 71
2, 228209, Note_on_c, 0, 83, 0
2, 228209, Control_c, 0, 64, 0
2, 228230, Note_on_c, 0, 87, 0
2, 228234, Note_on_c, 0, 69, 69
2, 228267, Note_on_c, 0, 72, 68
2, 228287, Control_c, 0, 64, 127
2, 228296, Note_on_c, 0, 76, 71
2, 228316, Note_on_c, 0, 77, 72
2, 228331, Note_on_c, 0, 76, 0
2, 228331, Note_on_c, 0, 65, 0
2, 228338, Note_on_c, 0, 72, 0
2, 228340, Note_on_c, 0, 81, 76
2, 228347, Note_on_c, 0, 69, 0
2, 228360, Note_on_c, 0, 77, 0
2, 228360, Note_on_c, 0, 84, 74
2, 228380, Note_on_c, 0, 88, 76
2, 228387, Note_on_c, 0, 81, 0
2, 228407, Note_on_c, 0, 66, 72
2, 228414, Note_on_c, 0, 84, 0
2, 228414, Control_c, 0, 64, 0
2, 228431, Note_on_c, 0, 88, 0
2, 228440, Note_on_c, 0, 69, 71
2, 228464, Note_on_c, 0, 71, 72
2, 228488, Note_on_c, 0, 75, 73
2, 228493, Control_c, 0, 64, 127
2, 228510, Note_on_c, 0, 78, 74
2, 228523, Note_on_c, 0, 66, 0
2, 228528, Note_on_c, 0, 71, 0
2, 228530, Note_on_c, 0, 81, 75
2, 228537, Note_on_c, 0, 75, 0
2, 228542, Note_on_c, 0, 69, 0
2, 228550, Note_on_c, 0, 83, 76
2, 228566, Note_on_c, 0, 87, 77
2, 228570, Note_on_c, 0, 78, 0
2, 228577, Note_on_c, 0, 81, 0
2, 228577, Control_c, 0, 64, 0
2, 228588, Note_on_c, 0, 69, 72
2, 228592, Note_on_c, 0, 83, 0
2, 228599, Note_on_c, 0, 87, 0
2, 228615, Note_on_c, 0, 72, 69
2, 228647, Note_on_c, 0, 75, 70
2, 228663, Control_c, 0, 64, 127
2, 228667, Note_on_c, 0, 79, 72
2, 228694, Note_on_c, 0, 81, 75
2, 228714, Note_on_c, 0, 69, 0
2, 228716, Note_on_c, 0, 75, 0
2, 228716, Note_on_c, 0, 84, 74
2, 228721, Note_on_c, 0, 72, 0
2, 228721, Note_on_c, 0, 79, 0
2, 228736, Note_on_c, 0, 87, 71
2, 228743, Note_on_c, 0, 81, 0
2, 228757, Note_on_c, 0, 91, 72
2, 228763, Note_on_c, 0, 84, 0
2, 228784, Note_on_c, 0, 87, 0
2, 228788, Control_c, 0, 64, 0
2, 228788, Note_on_c, 0, 71, 68
2, 228799, Note_on_c, 0, 91, 0
2, 228823, Note_on_c, 0, 75, 68
2, 228854, Note_on_c, 0, 78, 71
2, 228864, Control_c, 0, 64, 127
2, 228893, Note_on_c, 0, 83, 75
2, 228908, Note_on_c, 0, 78, 0
2, 228908, Note_on_c, 0, 71, 0
2, 228908, Note_on_c, 0, 75, 0
2, 228922, Note_on_c, 0, 87, 70
2, 228944, Note_on_c, 0, 83, 0
2, 228954, Note_on_c, 0, 90, 75
2, 228959, Control_c, 0, 64, 0
2, 228970, Note_on_c, 0, 69, 71
2, 228976, Note_on_c, 0, 87, 0
2, 229000, Note_on_c, 0, 90, 0
2, 229007, Note_on_c, 0, 72, 72
2, 229034, Note_on_c, 0, 75, 73
2, 229054, Control_c, 0, 64, 127
2, 229063, Note_on_c, 0, 79, 74
2, 229085, Note_on_c, 0, 69, 0
2, 229085, Note_on_c, 0, 81, 76
2, 229105, Note_on_c, 0, 84, 75
2, 229112, Note_on_c, 0, 72, 0
2, 229112, Note_on_c, 0, 75, 0
2, 229117, Note_on_c, 0, 79, 0
2, 229127, Note_on_c, 0, 87, 76
2, 229134, Note_on_c, 0, 81, 0
2, 229143, Note_on_c, 0, 91, 79
2, 229153, Note_on_c, 0, 84, 0
2, 229164, Note_on_c, 0, 87, 0
2, 229179, Note_on_c, 0, 71, 75
2, 229181, Note_on_c, 0, 91, 0
2, 229183, Control_c, 0, 64, 0
2, 229216, Note_on_c, 0, 75, 72
2, 229253, Note_on_c, 0, 78, 73
2, 229258, Control_c, 0, 64, 127
2, 229285, Note_on_c, 0, 83, 76
2, 229293, Note_on_c, 0, 78, 0
2, 229295, Note_on_c, 0, 71, 0
2, 229306, Note_on_c, 0, 75, 0
2, 229311, Note_on_c, 0, 87, 76
2, 229335, Note_on_c, 0, 83, 0
2, 229341, Note_on_c, 0, 90, 80
2, 229343, Note_on_c, 0, 87, 0
2, 229363, Control_c, 0, 64, 0
2, 229374, Note_on_c, 0, 74, 77
2, 229376, Note_on_c, 0, 90, 0
2, 229403, Note_on_c, 0, 78, 75
2, 229429, Note_on_c, 0, 81, 76
2, 229457, Note_on_c, 0, 84, 75
2, 229468, Control_c, 0, 64, 127
2, 229479, Note_on_c, 0, 86, 76
2, 229499, Note_on_c, 0, 81, 0
2, 229499, Note_on_c, 0, 90, 76
2, 229505, Note_on_c, 0, 74, 0
2, 229507, Note_on_c, 0, 84, 0
2, 229518, Note_on_c, 0, 78, 0
2, 229518, Note_on_c, 0, 93, 76
2, 229540, Note_on_c, 0, 86, 0
2, 229547, Note_on_c, 0, 96, 80
2, 229555, Note_on_c, 0, 90, 0
2, 229555, Control_c, 0, 64, 0
2, 229569, Note_on_c, 0, 93, 0
2, 229574, Note_on_c, 0, 75, 77
2, 229602, Note_on_c, 0, 78, 76
2, 229613, Note_on_c, 0, 96, 0
2, 229630, Note_on_c, 0, 81, 76
2, 229659, Note_on_c, 0, 83, 76
2, 229666, Control_c, 0, 64, 127
2, 229688, Note_on_c, 0, 87, 76
2, 229710, Note_on_c, 0, 90, 76
2, 229723, Note_on_c, 0, 81, 0
2, 229728, Note_on_c, 0, 93, 76
2, 229733, Note_on_c, 0, 83, 0
2, 229733, Note_on_c, 0, 75, 0
2, 229744, Note_on_c, 0, 87, 0
2, 229744, Note_on_c, 0, 78, 0
2, 229759, Note_on_c, 0, 95, 80
2, 229768, Note_on_c, 0, 93, 0
2, 229768, Note_on_c, 0, 90, 0
2, 229792, Note_on_c, 0, 74, 79
2, 229793, Control_c, 0, 64, 0
2, 229811, Note_on_c, 0, 95, 0
2, 229821, Note_on_c, 0, 78, 79
2, 229854, Note_on_c, 0, 81, 82
2, 229891, Note_on_c, 0, 84, 85
2, 229896, Control_c, 0, 64, 127
2, 229918, Note_on_c, 0, 86, 87
2, 229938, Note_on_c, 0, 74, 0
2, 229943, Note_on_c, 0, 90, 85
2, 229960, Note_on_c, 0, 93, 84
2, 229962, Note_on_c, 0, 81, 0
2, 229967, Note_on_c, 0, 84, 0
2, 229974, Note_on_c, 0, 78, 0
2, 229983, Note_on_c, 0, 96, 86
2, 229998, Note_on_c, 0, 86, 0
2, 230005, Note_on_c, 0, 90, 0
2, 230005, Control_c, 0, 64, 0
2, 230009, Note_on_c, 0, 93, 0
2, 230011, Note_on_c, 0, 75, 86
2, 230037, Note_on_c, 0, 78, 85
2, 230055, Note_on_c, 0, 96, 0
2, 230063, Note_on_c, 0, 81, 90
2, 230094, Note_on_c, 0, 83, 91
2, 230104, Control_c, 0, 64, 127
2, 230120, Note_on_c, 0, 87, 88
2, 230144, Note_on_c, 0, 81, 0
2, 230149, Note_on_c, 0, 90, 85
2, 230151, Note_on_c, 0, 83, 0
2, 230155, Note_on_c, 0, 78, 0
2, 230164, Note_on_c, 0, 75, 0
2, 230175, Note_on_c, 0, 93, 81
2, 230183, Note_on_c, 0, 87, 0
2, 230205, Note_on_c, 0, 95, 82
2, 230212, Note_on_c, 0, 90, 0
2, 230225, Note_on_c, 0, 93, 0
2, 230234, Note_on_c, 0, 95, 0
2, 230324, Control_c, 0, 64, 0
2, 230333, Note_on_c, 0, 71, 62
2, 230340, Note_on_c, 0, 47, 61
2, 230372, Control_c, 0, 67, 127
2, 230383, Note_on_c, 0, 47, 0
2, 230392, Note_on_c, 0, 71, 0
2, 230400, Note_on_c, 0, 69, 59
2, 230407, Note_on_c, 0, 45, 58
2, 230451, Note_on_c, 0, 67, 58
2, 230456, Note_on_c, 0, 69, 0
2, 230456, Note_on_c, 0, 43, 58
2, 230464, Note_on_c, 0, 45, 0
2, 230500, Note_on_c, 0, 67, 0
2, 230511, Note_on_c, 0, 43, 0
2, 230511, Note_on_c, 0, 66, 58
2, 230515, Note_on_c, 0, 42, 58
2, 230544, Note_on_c, 0, 66, 0
2, 230582, Note_on_c, 0, 42, 0
2, 230582, Note_on_c, 0, 52, 55
2, 230582, Note_on_c, 0, 64, 55
2, 230584, Note_on_c, 0, 40, 54
2, 230647, Control_c, 0, 64, 127
2, 230664, Note_on_c, 0, 64, 0
2, 230669, Note_on_c, 0, 40, 0
2, 230669, Note_on_c, 0, 52, 0
2, 230713, Note_on_c, 0, 52, 53
2, 230713, Note_on_c, 0, 64, 54
2, 230742, Note_on_c, 0, 52, 0
2, 230762, Note_on_c, 0, 64, 0
2, 230801, Control_c, 0, 64, 0
2, 230815, Note_on_c, 0, 100, 64
2, 230820, Note_on_c, 0, 95, 62
2, 230820, Note_on_c, 0, 103, 65
2, 230822, Note_on_c, 0, 67, 58
2, 230822, Note_on_c, 0, 71, 60
2, 230822, Note_on_c, 0, 76, 59
2, 230822, Note_on_c, 0, 88, 62
2, 230846, Note_on_c, 0, 95, 0
2, 230846, Note_on_c, 0, 100, 0
2, 230852, Note_on_c, 0, 88, 0
2, 230854, Note_on_c, 0, 71, 0
2, 230854, Note_on_c, 0, 67, 0
2, 230854, Note_on_c, 0, 76, 0
2, 230859, Note_on_c, 0, 103, 0
2, 230929, Note_on_c, 0, 76, 59
2, 230929, Note_on_c, 0, 83, 62
2, 230929, Note_on_c, 0, 91, 61
2, 230929, Note_on_c, 0, 100, 65
2, 230931, Note_on_c, 0, 67, 58
2, 230931, Note_on_c, 0, 71, 60
2, 230955, Note_on_c, 0, 100, 0
2, 230955, Note_on_c, 0, 91, 0
2, 230957, Note_on_c, 0, 76, 0
2, 230962, Note_on_c, 0, 83, 0
2, 230962, Note_on_c, 0, 71, 0
2, 230972, Note_on_c, 0, 67, 0
2, 231036, Note_on_c, 0, 88, 61
2, 231036, Note_on_c, 0, 95, 58
2, 231036, Note_on_c, 0, 103, 60
2, 231051, Note_on_c, 0, 52, 58
2, 231084, Note_on_c, 0, 52, 0
2, 231147, Control_c, 0, 64, 127
2, 231160, Note_on_c, 0, 52, 58
2, 231160, Note_on_c, 0, 64, 58
2, 231186, Note_on_c, 0, 52, 0
2, 231193, Note_on_c, 0, 103, 0
2, 231200, Note_on_c, 0, 64, 0
2, 231202, Note_on_c, 0, 95, 0
2, 231202, Note_on_c, 0, 88, 0
2, 231261, Control_c, 0, 64, 0
2, 231272, Note_on_c, 0, 102, 65
2, 231274, Note_on_c, 0, 69, 60
2, 231274, Note_on_c, 0, 72, 60
2, 231274, Note_on_c, 0, 78, 59
2, 231274, Note_on_c, 0, 84, 62
2, 231274, Note_on_c, 0, 88, 61
2, 231274, Note_on_c, 0, 93, 62
2, 231311, Note_on_c, 0, 78, 0
2, 231318, Note_on_c, 0, 72, 0
2, 231318, Note_on_c, 0, 69, 0
2, 231353, Control_c, 0, 64, 127
2, 231379, Note_on_c, 0, 72, 58
2, 231379, Note_on_c, 0, 78, 59
2, 231384, Note_on_c, 0, 84, 0
2, 231384, Note_on_c, 0, 88, 0
2, 231384, Note_on_c, 0, 69, 59
2, 231400, Note_on_c, 0, 93, 0
2, 231406, Note_on_c, 0, 102, 0
2, 231408, Note_on_c, 0, 78, 0
2, 231415, Note_on_c, 0, 72, 0
2, 231415, Note_on_c, 0, 69, 0
2, 231492, Note_on_c, 0, 99, 64
2, 231496, Note_on_c, 0, 81, 60
2, 231496, Note_on_c, 0, 84, 61
2, 231496, Note_on_c, 0, 90, 60
2, 231501, Note_on_c, 0, 52, 58
2, 231543, Note_on_c, 0, 52, 0
2, 231595, Note_on_c, 0, 84, 0
2, 231595, Note_on_c, 0, 81, 0
2, 231595, Note_on_c, 0, 64, 58
2, 231602, Note_on_c, 0, 52, 58
2, 231628, Note_on_c, 0, 64, 0
2, 231633, Note_on_c, 0, 52, 0
2, 231640, Note_on_c, 0, 99, 0
2, 231641, Note_on_c, 0, 90, 0
2, 231705, Note_on_c, 0, 100, 64
2, 231707, Note_on_c, 0, 82, 62
2, 231707, Note_on_c, 0, 85, 62
2, 231707, Note_on_c, 0, 91, 61
2, 231713, Note_on_c, 0, 79, 60
2, 231720, Note_on_c, 0, 70, 58
2, 231725, Note_on_c, 0, 73, 59
2, 231747, Note_on_c, 0, 79, 0
2, 231747, Note_on_c, 0, 85, 0
2, 231747, Note_on_c, 0, 82, 0
2, 231749, Note_on_c, 0, 73, 0
2, 231749, Note_on_c, 0, 70, 0
2, 231782, Note_on_c, 0, 100, 0
2, 231784, Note_on_c, 0, 91, 0
2, 231821, Note_on_c, 0, 70, 59
2, 231821, Note_on_c, 0, 73, 59
2, 231821, Note_on_c, 0, 79, 58
2, 231850, Note_on_c, 0, 73, 0
2, 231852, Note_on_c, 0, 79, 0
2, 231856, Note_on_c, 0, 70, 0
2, 231920, Control_c, 0, 64, 0
2, 231930, Note_on_c, 0, 92, 65
2, 231930, Note_on_c, 0, 98, 69
2, 231935, Note_on_c, 0, 83, 65
2, 231935, Note_on_c, 0, 89, 66
2, 231942, Note_on_c, 0, 52, 58
2, 231975, Note_on_c, 0, 52, 0
2, 231975, Note_on_c, 0, 98, 0
2, 231975, Note_on_c, 0, 92, 0
2, 231975, Note_on_c, 0, 89, 0
2, 231976, Note_on_c, 0, 83, 0
2, 232005, Control_c, 0, 64, 127
2, 232043, Note_on_c, 0, 83, 57
2, 232043, Note_on_c, 0, 92, 54
2, 232043, Note_on_c, 0, 98, 56
2, 232045, Note_on_c, 0, 89, 52
2, 232047, Note_on_c, 0, 52, 58
2, 232072, Note_on_c, 0, 52, 0
2, 232072, Note_on_c, 0, 98, 0
2, 232072, Note_on_c, 0, 92, 0
2, 232074, Note_on_c, 0, 89, 0
2, 232076, Note_on_c, 0, 83, 0
2, 232153, Note_on_c, 0, 92, 59
2, 232153, Note_on_c, 0, 98, 68
2, 232158, Note_on_c, 0, 74, 64
2, 232158, Note_on_c, 0, 83, 66
2, 232158, Note_on_c, 0, 89, 65
2, 232160, Note_on_c, 0, 71, 64
2, 232162, Note_on_c, 0, 80, 64
2, 232197, Note_on_c, 0, 71, 0
2, 232211, Note_on_c, 0, 80, 0
2, 232213, Note_on_c, 0, 74, 0
2, 232239, Note_on_c, 0, 98, 0
2, 232245, Note_on_c, 0, 89, 0
2, 232263, Note_on_c, 0, 80, 59
2, 232264, Note_on_c, 0, 74, 59
2, 232271, Note_on_c, 0, 71, 59
2, 232278, Note_on_c, 0, 83, 0
2, 232283, Note_on_c, 0, 92, 0
2, 232298, Note_on_c, 0, 80, 0
2, 232300, Note_on_c, 0, 74, 0
2, 232313, Note_on_c, 0, 71, 0
2, 232327, Control_c, 0, 64, 0
2, 232378, Note_on_c, 0, 91, 61
2, 232383, Note_on_c, 0, 88, 62
2, 232383, Note_on_c, 0, 97, 65
2, 232384, Note_on_c, 0, 82, 61
2, 232386, Note_on_c, 0, 52, 58
2, 232428, Note_on_c, 0, 82, 0
2, 232428, Note_on_c, 0, 88, 0
2, 232434, Note_on_c, 0, 52, 0
2, 232436, Note_on_c, 0, 97, 0
2, 232441, Note_on_c, 0, 91, 0
2, 232456, Control_c, 0, 64, 127
2, 232482, Note_on_c, 0, 91, 59
2, 232484, Note_on_c, 0, 52, 58
2, 232484, Note_on_c, 0, 97, 61
2, 232486, Note_on_c, 0, 82, 57
2, 232486, Note_on_c, 0, 88, 57
2, 232510, Note_on_c, 0, 52, 0
2, 232519, Note_on_c, 0, 91, 0
2, 232532, Note_on_c, 0, 88, 0
2, 232534, Note_on_c, 0, 82, 0
2, 232543, Note_on_c, 0, 97, 0
2, 232596, Note_on_c, 0, 82, 61
2, 232596, Note_on_c, 0, 91, 62
2, 232596, Note_on_c, 0, 97, 64
2, 232600, Note_on_c, 0, 88, 62
2, 232602, Note_on_c, 0, 73, 60
2, 232602, Note_on_c, 0, 76, 60
2, 232635, Note_on_c, 0, 76, 0
2, 232635, Note_on_c, 0, 73, 0
2, 232692, Note_on_c, 0, 97, 0
2, 232694, Note_on_c, 0, 91, 0
2, 232707, Note_on_c, 0, 82, 0
2, 232707, Note_on_c, 0, 88, 0
2, 232709, Note_on_c, 0, 73, 58
2, 232711, Note_on_c, 0, 76, 58
2, 232735, Note_on_c, 0, 76, 0
2, 232742, Note_on_c, 0, 73, 0
2, 232812, Control_c, 0, 64, 0
2, 232814, Note_on_c, 0, 96, 65
2, 232816, Note_on_c, 0, 81, 66
2, 232816, Note_on_c, 0, 87, 66
2, 232816, Note_on_c, 0, 90, 65
2, 232829, Note_on_c, 0, 52, 58
2, 232858, Note_on_c, 0, 81, 0
2, 232863, Note_on_c, 0, 96, 0
2, 232864, Note_on_c, 0, 90, 0
2, 232864, Note_on_c, 0, 87, 0
2, 232864, Note_on_c, 0, 52, 0
2, 232911, Control_c, 0, 64, 127
2, 232933, Note_on_c, 0, 81, 64
2, 232933, Note_on_c, 0, 87, 65
2, 232933, Note_on_c, 0, 90, 66
2, 232933, Note_on_c, 0, 96, 65
2, 232939, Note_on_c, 0, 52, 58
2, 232960, Note_on_c, 0, 87, 0
2, 232966, Note_on_c, 0, 96, 0
2, 232966, Note_on_c, 0, 52, 0
2, 232968, Note_on_c, 0, 81, 0
2, 232973, Note_on_c, 0, 90, 0
2, 233034, Note_on_c, 0, 96, 63
2, 233036, Note_on_c, 0, 81, 65
2, 233036, Note_on_c, 0, 87, 66
2, 233036, Note_on_c, 0, 90, 65
2, 233043, Note_on_c, 0, 75, 64
2, 233048, Note_on_c, 0, 78, 64
2, 233077, Note_on_c, 0, 78, 0
2, 233079, Note_on_c, 0, 75, 0
2, 233089, Note_on_c, 0, 87, 0
2, 233091, Note_on_c, 0, 81, 0
2, 233120, Note_on_c, 0, 90, 0
2, 233144, Note_on_c, 0, 78, 58
2, 233149, Note_on_c, 0, 75, 59
2, 233171, Note_on_c, 0, 78, 0
2, 233173, Note_on_c, 0, 75, 0
2, 233210, Note_on_c, 0, 96, 0
2, 233241, Note_on_c, 0, 52, 58
2, 233249, Note_on_c, 0, 95, 65
2, 233254, Note_on_c, 0, 59, 58
2, 233256, Note_on_c, 0, 55, 58
2, 233256, Note_on_c, 0, 88, 66
2, 233261, Note_on_c, 0, 79, 63
2, 233268, Note_on_c, 0, 67, 60
2, 233272, Control_c, 0, 64, 0
2, 233286, Note_on_c, 0, 79, 0
2, 233310, Note_on_c, 0, 95, 0
2, 233315, Note_on_c, 0, 88, 0
2, 233332, Control_c, 0, 64, 127
2, 233349, Note_on_c, 0, 100, 68
2, 233356, Note_on_c, 0, 52, 0
2, 233358, Note_on_c, 0, 67, 0
2, 233358, Note_on_c, 0, 91, 63
2, 233360, Note_on_c, 0, 83, 62
2, 233362, Note_on_c, 0, 55, 0
2, 233362, Note_on_c, 0, 59, 0
2, 233388, Note_on_c, 0, 83, 0
2, 233388, Note_on_c, 0, 100, 0
2, 233394, Control_c, 0, 64, 0
2, 233401, Note_on_c, 0, 91, 0
2, 233408, Note_on_c, 0, 52, 58
2, 233430, Note_on_c, 0, 57, 58
2, 233447, Note_on_c, 0, 52, 0
2, 233449, Note_on_c, 0, 60, 58
2, 233458, Note_on_c, 0, 81, 64
2, 233458, Note_on_c, 0, 96, 65
2, 233463, Note_on_c, 0, 88, 66
2, 233464, Note_on_c, 0, 69, 64
2, 233480, Control_c, 0, 64, 127
2, 233490, Note_on_c, 0, 81, 0
2, 233497, Note_on_c, 0, 88, 0
2, 233499, Note_on_c, 0, 96, 0
2, 233501, Note_on_c, 0, 69, 0
2, 233503, Note_on_c, 0, 57, 0
2, 233503, Note_on_c, 0, 60, 0
2, 233553, Note_on_c, 0, 100, 62
2, 233558, Note_on_c, 0, 84, 54
2, 233558, Note_on_c, 0, 90, 53
2, 233571, Control_c, 0, 64, 0
2, 233595, Note_on_c, 0, 100, 0
2, 233597, Note_on_c, 0, 84, 0
2, 233599, Note_on_c, 0, 52, 58
2, 233608, Note_on_c, 0, 90, 0
2, 233625, Note_on_c, 0, 55, 58
2, 233640, Note_on_c, 0, 59, 58
2, 233664, Note_on_c, 0, 67, 58
2, 233666, Note_on_c, 0, 79, 61
2, 233666, Note_on_c, 0, 88, 64
2, 233666, Note_on_c, 0, 95, 65
2, 233671, Note_on_c, 0, 52, 0
2, 233693, Control_c, 0, 64, 127
2, 233704, Note_on_c, 0, 95, 0
2, 233705, Note_on_c, 0, 55, 0
2, 233712, Note_on_c, 0, 88, 0
2, 233714, Note_on_c, 0, 67, 0
2, 233714, Note_on_c, 0, 79, 0
2, 233716, Note_on_c, 0, 59, 0
2, 233769, Note_on_c, 0, 59, 58
2, 233769, Note_on_c, 0, 67, 58
2, 233774, Control_c, 0, 67, 0
2, 233802, Note_on_c, 0, 67, 0
2, 233807, Note_on_c, 0, 59, 0
2, 233877, Control_c, 0, 64, 0
2, 233888, Note_on_c, 0, 76, 58
2, 233890, Note_on_c, 0, 64, 57
2, 233929, Note_on_c, 0, 76, 0
2, 233938, Note_on_c, 0, 62, 59
2, 233938, Note_on_c, 0, 74, 60
2, 233940, Note_on_c, 0, 64, 0
2, 233986, Note_on_c, 0, 60, 60
2, 233986, Note_on_c, 0, 72, 62
2, 233992, Note_on_c, 0, 74, 0
2, 233994, Note_on_c, 0, 62, 0
2, 234018, Note_on_c, 0, 59, 61
2, 234018, Note_on_c, 0, 71, 62
2, 234020, Note_on_c, 0, 72, 0
2, 234022, Note_on_c, 0, 60, 0
2, 234057, Note_on_c, 0, 71, 0
2, 234079, Note_on_c, 0, 59, 0
2, 234084, Note_on_c, 0, 70, 67
2, 234088, Note_on_c, 0, 46, 64
2, 234090, Note_on_c, 0, 58, 65
2, 234160, Control_c, 0, 64, 127
2, 234162, Note_on_c, 0, 58, 0
2, 234164, Note_on_c, 0, 46, 0
2, 234186, Note_on_c, 0, 70, 0
2, 234197, Note_on_c, 0, 58, 61
2, 234202, Note_on_c, 0, 46, 61
2, 234226, Note_on_c, 0, 46, 0
2, 234231, Note_on_c, 0, 58, 0
2, 234299, Note_on_c, 0, 91, 65
2, 234301, Note_on_c, 0, 84, 65
2, 234307, Note_on_c, 0, 64, 62
2, 234307, Note_on_c, 0, 67, 62
2, 234307, Note_on_c, 0, 72, 62
2, 234312, Note_on_c, 0, 76, 63
2, 234356, Note_on_c, 0, 67, 0
2, 234358, Note_on_c, 0, 72, 0
2, 234365, Note_on_c, 0, 84, 0
2, 234365, Note_on_c, 0, 91, 0
2, 234367, Note_on_c, 0, 76, 0
2, 234367, Note_on_c, 0, 64, 0
2, 234420, Note_on_c, 0, 88, 64
2, 234422, Note_on_c, 0, 64, 62
2, 234422, Note_on_c, 0, 72, 63
2, 234422, Note_on_c, 0, 79, 62
2, 234426, Note_on_c, 0, 67, 61
2, 234448, Note_on_c, 0, 72, 0
2, 234450, Note_on_c, 0, 88, 0
2, 234455, Note_on_c, 0, 79, 0
2, 234457, Note_on_c, 0, 67, 0
2, 234468, Note_on_c, 0, 64, 0
2, 234527, Note_on_c, 0, 84, 66
2, 234527, Note_on_c, 0, 91, 68
2, 234532, Control_c, 0, 64, 0
2, 234532, Note_on_c, 0, 76, 67
2, 234537, Note_on_c, 0, 57, 57
2, 234539, Note_on_c, 0, 45, 57
2, 234589, Note_on_c, 0, 57, 0
2, 234599, Note_on_c, 0, 45, 0
2, 234616, Control_c, 0, 64, 127
2, 234642, Note_on_c, 0, 45, 56
2, 234642, Note_on_c, 0, 57, 58
2, 234644, Note_on_c, 0, 76, 0
2, 234653, Note_on_c, 0, 91, 0
2, 234668, Note_on_c, 0, 84, 0
2, 234668, Note_on_c, 0, 45, 0
2, 234673, Note_on_c, 0, 57, 0
2, 234754, Note_on_c, 0, 84, 66
2, 234756, Note_on_c, 0, 66, 66
2, 234756, Note_on_c, 0, 90, 69
2, 234758, Note_on_c, 0, 72, 66
2, 234758, Note_on_c, 0, 75, 67
2, 234784, Control_c, 0, 64, 0
2, 234818, Note_on_c, 0, 72, 0
2, 234833, Note_on_c, 0, 66, 0
2, 234862, Note_on_c, 0, 66, 61
2, 234862, Note_on_c, 0, 72, 62
2, 234917, Note_on_c, 0, 75, 0
2, 234917, Control_c, 0, 64, 127
2, 234922, Note_on_c, 0, 84, 0
2, 234922, Note_on_c, 0, 90, 0
2, 234937, Note_on_c, 0, 72, 0
2, 234942, Note_on_c, 0, 66, 0
2, 234973, Note_on_c, 0, 81, 62
2, 234973, Note_on_c, 0, 87, 64
2, 234973, Note_on_c, 0, 90, 65
2, 234973, Note_on_c, 0, 96, 66
2, 234983, Note_on_c, 0, 55, 57
2, 234988, Note_on_c, 0, 43, 57
2, 235029, Note_on_c, 0, 43, 0
2, 235029, Note_on_c, 0, 55, 0
2, 235084, Note_on_c, 0, 43, 57
2, 235084, Note_on_c, 0, 55, 60
2, 235106, Note_on_c, 0, 81, 0
2, 235111, Note_on_c, 0, 96, 0
2, 235118, Note_on_c, 0, 43, 0
2, 235118, Note_on_c, 0, 55, 0
2, 235124, Note_on_c, 0, 87, 0
2, 235138, Note_on_c, 0, 90, 0
2, 235188, Control_c, 0, 64, 0
2, 235192, Note_on_c, 0, 88, 67
2, 235192, Note_on_c, 0, 91, 68
2, 235194, Note_on_c, 0, 95, 69
2, 235196, Note_on_c, 0, 64, 66
2, 235196, Note_on_c, 0, 71, 67
2, 235196, Note_on_c, 0, 76, 66
2, 235238, Note_on_c, 0, 76, 0
2, 235248, Note_on_c, 0, 64, 0
2, 235248, Note_on_c, 0, 71, 0
2, 235274, Control_c, 0, 64, 127
2, 235288, Note_on_c, 0, 71, 62
2, 235288, Note_on_c, 0, 76, 62
2, 235294, Note_on_c, 0, 95, 0
2, 235296, Note_on_c, 0, 88, 0
2, 235296, Note_on_c, 0, 91, 0
2, 235296, Note_on_c, 0, 64, 61
2, 235322, Note_on_c, 0, 76, 0
2, 235327, Note_on_c, 0, 71, 0
2, 235353, Note_on_c, 0, 64, 0
2, 235401, Note_on_c, 0, 94, 66
2, 235401, Note_on_c, 0, 103, 73
2, 235406, Note_on_c, 0, 42, 57
2, 235406, Note_on_c, 0, 54, 57
2, 235410, Note_on_c, 0, 97, 74
2, 235448, Note_on_c, 0, 54, 0
2, 235450, Note_on_c, 0, 94, 0
2, 235456, Note_on_c, 0, 103, 0
2, 235458, Note_on_c, 0, 42, 0
2, 235458, Note_on_c, 0, 97, 0
2, 235506, Note_on_c, 0, 94, 67
2, 235506, Note_on_c, 0, 97, 74
2, 235506, Note_on_c, 0, 103, 75
2, 235511, Note_on_c, 0, 54, 57
2, 235513, Note_on_c, 0, 42, 57
2, 235544, Note_on_c, 0, 54, 0
2, 235549, Note_on_c, 0, 42, 0
2, 235559, Note_on_c, 0, 103, 0
2, 235564, Note_on_c, 0, 97, 0
2, 235564, Note_on_c, 0, 94, 0
2, 235619, Note_on_c, 0, 94, 68
2, 235619, Note_on_c, 0, 103, 77
2, 235624, Note_on_c, 0, 66, 72
2, 235624, Note_on_c, 0, 70, 74
2, 235624, Note_on_c, 0, 73, 75
2, 235624, Note_on_c, 0, 76, 76
2, 235624, Note_on_c, 0, 97, 82
2, 235665, Note_on_c, 0, 76, 0
2, 235672, Note_on_c, 0, 73, 0
2, 235673, Note_on_c, 0, 66, 0
2, 235675, Note_on_c, 0, 70, 0
2, 235708, Note_on_c, 0, 103, 0
2, 235723, Note_on_c, 0, 70, 64
2, 235723, Note_on_c, 0, 73, 63
2, 235723, Note_on_c, 0, 76, 62
2, 235725, Note_on_c, 0, 66, 60
2, 235756, Note_on_c, 0, 73, 0
2, 235756, Note_on_c, 0, 70, 0
2, 235758, Note_on_c, 0, 76, 0
2, 235758, Note_on_c, 0, 66, 0
2, 235791, Note_on_c, 0, 94, 0
2, 235804, Note_on_c, 0, 97, 0
2, 235821, Control_c, 0, 64, 0
2, 235832, Note_on_c, 0, 92, 65
2, 235834, Note_on_c, 0, 90, 66
2, 235834, Note_on_c, 0, 95, 67
2, 235834, Note_on_c, 0, 98, 71
2, 235834, Note_on_c, 0, 102, 72
2, 235836, Note_on_c, 0, 54, 58
2, 235836, Note_on_c, 0, 86, 70
2, 235840, Note_on_c, 0, 42, 57
2, 235875, Note_on_c, 0, 86, 0
2, 235892, Note_on_c, 0, 54, 0
2, 235894, Note_on_c, 0, 42, 0
2, 235894, Note_on_c, 0, 90, 0
2, 235894, Note_on_c, 0, 92, 0
2, 235894, Note_on_c, 0, 102, 0
2, 235901, Note_on_c, 0, 95, 0
2, 235903, Note_on_c, 0, 98, 0
2, 235916, Control_c, 0, 64, 127
2, 235945, Control_c, 0, 64, 0
2, 235947, Note_on_c, 0, 54, 57
2, 235947, Note_on_c, 0, 92, 65
2, 235949, Note_on_c, 0, 90, 66
2, 235949, Note_on_c, 0, 95, 67
2, 235949, Note_on_c, 0, 98, 71
2, 235949, Note_on_c, 0, 102, 72
2, 235954, Note_on_c, 0, 42, 57
2, 235954, Note_on_c, 0, 86, 70
2, 235980, Note_on_c, 0, 54, 0
2, 235993, Note_on_c, 0, 86, 0
2, 235998, Note_on_c, 0, 90, 0
2, 235998, Note_on_c, 0, 92, 0
2, 235998, Note_on_c, 0, 42, 0
2, 236005, Note_on_c, 0, 102, 0
2, 236011, Note_on_c, 0, 98, 0
2, 236011, Note_on_c, 0, 95, 0
2, 236011, Control_c, 0, 64, 127
2, 236059, Note_on_c, 0, 102, 66
2, 236061, Note_on_c, 0, 78, 66
2, 236061, Note_on_c, 0, 86, 69
2, 236061, Note_on_c, 0, 95, 70
2, 236063, Note_on_c, 0, 90, 71
2, 236065, Note_on_c, 0, 71, 70
2, 236065, Note_on_c, 0, 74, 71
2, 236065, Note_on_c, 0, 92, 74
2, 236070, Note_on_c, 0, 98, 78
2, 236101, Note_on_c, 0, 86, 0
2, 236109, Note_on_c, 0, 78, 0
2, 236116, Note_on_c, 0, 74, 0
2, 236135, Note_on_c, 0, 95, 0
2, 236135, Note_on_c, 0, 71, 0
2, 236140, Note_on_c, 0, 92, 0
2, 236142, Note_on_c, 0, 98, 0
2, 236166, Note_on_c, 0, 102, 0
2, 236173, Note_on_c, 0, 71, 57
2, 236173, Note_on_c, 0, 74, 58
2, 236173, Note_on_c, 0, 78, 57
2, 236197, Note_on_c, 0, 78, 0
2, 236197, Note_on_c, 0, 74, 0
2, 236214, Note_on_c, 0, 71, 0
2, 236219, Note_on_c, 0, 90, 0
2, 236275, Note_on_c, 0, 100, 65
2, 236280, Note_on_c, 0, 94, 69
2, 236282, Note_on_c, 0, 85, 70
2, 236282, Note_on_c, 0, 97, 74
2, 236284, Note_on_c, 0, 90, 72
2, 236286, Note_on_c, 0, 42, 57
2, 236286, Note_on_c, 0, 54, 57
2, 236288, Control_c, 0, 64, 0
2, 236317, Note_on_c, 0, 85, 0
2, 236321, Note_on_c, 0, 100, 0
2, 236328, Note_on_c, 0, 54, 0
2, 236333, Note_on_c, 0, 42, 0
2, 236342, Note_on_c, 0, 94, 0
2, 236342, Note_on_c, 0, 97, 0
2, 236342, Note_on_c, 0, 90, 0
2, 236374, Control_c, 0, 64, 127
2, 236383, Note_on_c, 0, 94, 68
2, 236383, Note_on_c, 0, 100, 72
2, 236388, Note_on_c, 0, 85, 70
2, 236388, Note_on_c, 0, 90, 71
2, 236390, Note_on_c, 0, 97, 75
2, 236392, Note_on_c, 0, 54, 57
2, 236393, Note_on_c, 0, 42, 57
2, 236417, Note_on_c, 0, 42, 0
2, 236417, Note_on_c, 0, 54, 0
2, 236426, Note_on_c, 0, 85, 0
2, 236428, Note_on_c, 0, 100, 0
2, 236437, Note_on_c, 0, 90, 0
2, 236439, Note_on_c, 0, 94, 0
2, 236440, Note_on_c, 0, 97, 0
2, 236488, Note_on_c, 0, 100, 69
2, 236490, Note_on_c, 0, 94, 71
2, 236492, Note_on_c, 0, 76, 70
2, 236492, Note_on_c, 0, 85, 73
2, 236492, Note_on_c, 0, 97, 77
2, 236494, Note_on_c, 0, 90, 75
2, 236499, Note_on_c, 0, 70, 74
2, 236506, Note_on_c, 0, 73, 72
2, 236516, Note_on_c, 0, 76, 0
2, 236530, Note_on_c, 0, 73, 0
2, 236530, Note_on_c, 0, 70, 0
2, 236538, Note_on_c, 0, 85, 0
2, 236582, Note_on_c, 0, 90, 0
2, 236584, Note_on_c, 0, 76, 63
2, 236585, Note_on_c, 0, 94, 0
2, 236585, Note_on_c, 0, 66, 61
2, 236585, Note_on_c, 0, 70, 62
2, 236590, Note_on_c, 0, 97, 0
2, 236592, Note_on_c, 0, 100, 0
2, 236594, Note_on_c, 0, 73, 62
2, 236611, Note_on_c, 0, 76, 0
2, 236613, Note_on_c, 0, 73, 0
2, 236618, Note_on_c, 0, 66, 0
2, 236618, Note_on_c, 0, 70, 0
2, 236647, Control_c, 0, 64, 0
2, 236666, Note_on_c, 0, 47, 61
2, 236688, Note_on_c, 0, 54, 61
2, 236693, Note_on_c, 0, 47, 0
2, 236700, Note_on_c, 0, 99, 77
2, 236704, Note_on_c, 0, 83, 75
2, 236704, Note_on_c, 0, 87, 76
2, 236704, Note_on_c, 0, 95, 77
2, 236706, Note_on_c, 0, 63, 61
2, 236737, Note_on_c, 0, 54, 0
2, 236742, Control_c, 0, 64, 127
2, 236747, Note_on_c, 0, 83, 0
2, 236753, Note_on_c, 0, 99, 0
2, 236753, Note_on_c, 0, 95, 0
2, 236755, Note_on_c, 0, 87, 0
2, 236760, Note_on_c, 0, 63, 0
2, 236817, Note_on_c, 0, 87, 72
2, 236817, Note_on_c, 0, 102, 78
2, 236819, Note_on_c, 0, 90, 76
2, 236858, Note_on_c, 0, 87, 0
2, 236858, Note_on_c, 0, 48, 61
2, 236863, Note_on_c, 0, 90, 0
2, 236873, Control_c, 0, 64, 0
2, 236880, Note_on_c, 0, 102, 0
2, 236880, Note_on_c, 0, 54, 61
2, 236899, Note_on_c, 0, 58, 61
2, 236910, Note_on_c, 0, 48, 0
2, 236917, Note_on_c, 0, 64, 69
2, 236917, Note_on_c, 0, 94, 73
2, 236917, Note_on_c, 0, 100, 77
2, 236919, Note_on_c, 0, 88, 75
2, 236947, Control_c, 0, 64, 127
2, 236952, Note_on_c, 0, 54, 0
2, 236954, Note_on_c, 0, 64, 0
2, 236956, Note_on_c, 0, 58, 0
2, 236971, Note_on_c, 0, 94, 0
2, 236978, Note_on_c, 0, 88, 0
2, 236978, Note_on_c, 0, 100, 0
2, 237009, Note_on_c, 0, 102, 73
2, 237014, Note_on_c, 0, 90, 72
2, 237053, Note_on_c, 0, 47, 61
2, 237062, Control_c, 0, 64, 0
2, 237075, Note_on_c, 0, 90, 0
2, 237080, Note_on_c, 0, 102, 0
2, 237085, Note_on_c, 0, 54, 61
2, 237111, Note_on_c, 0, 47, 0
2, 237121, Note_on_c, 0, 87, 70
2, 237121, Note_on_c, 0, 95, 71
2, 237121, Note_on_c, 0, 99, 75
2, 237132, Note_on_c, 0, 63, 61
2, 237142, Note_on_c, 0, 99, 0
2, 237142, Note_on_c, 0, 95, 0
2, 237144, Note_on_c, 0, 87, 0
2, 237155, Control_c, 0, 64, 127
2, 237168, Note_on_c, 0, 54, 0
2, 237175, Note_on_c, 0, 63, 0
2, 237242, Note_on_c, 0, 54, 60
2, 237242, Note_on_c, 0, 63, 58
2, 237283, Note_on_c, 0, 63, 0
2, 237283, Note_on_c, 0, 54, 0
2, 237340, Note_on_c, 0, 71, 58
2, 237345, Note_on_c, 0, 47, 57
2, 237353, Control_c, 0, 64, 0
2, 237391, Note_on_c, 0, 71, 0
2, 237391, Note_on_c, 0, 45, 56
2, 237391, Note_on_c, 0, 69, 62
2, 237393, Note_on_c, 0, 47, 0
2, 237427, Note_on_c, 0, 67, 61
2, 237434, Note_on_c, 0, 43, 60
2, 237443, Note_on_c, 0, 69, 0
2, 237445, Note_on_c, 0, 45, 0
2, 237471, Note_on_c, 0, 66, 60
2, 237472, Note_on_c, 0, 42, 61
2, 237479, Note_on_c, 0, 43, 0
2, 237481, Note_on_c, 0, 67, 0
2, 237516, Note_on_c, 0, 66, 0
2, 237529, Note_on_c, 0, 64, 66
2, 237534, Note_on_c, 0, 40, 68
2, 237536, Note_on_c, 0, 42, 0
2, 237536, Note_on_c, 0, 52, 70
2, 237568, Note_on_c, 0, 64, 0
2, 237573, Control_c, 0, 64, 127
2, 237584, Note_on_c, 0, 52, 0
2, 237584, Note_on_c, 0, 40, 0
2, 237634, Note_on_c, 0, 64, 60
2, 237639, Note_on_c, 0, 52, 61
2, 237669, Note_on_c, 0, 64, 0
2, 237671, Note_on_c, 0, 52, 0
2, 237757, Note_on_c, 0, 88, 63
2, 237757, Note_on_c, 0, 95, 69
2, 237757, Note_on_c, 0, 103, 71
2, 237759, Note_on_c, 0, 67, 66
2, 237759, Note_on_c, 0, 71, 67
2, 237759, Note_on_c, 0, 76, 66
2, 237781, Note_on_c, 0, 95, 0
2, 237783, Note_on_c, 0, 88, 0
2, 237791, Note_on_c, 0, 71, 0
2, 237791, Note_on_c, 0, 67, 0
2, 237791, Note_on_c, 0, 76, 0
2, 237800, Note_on_c, 0, 103, 0
2, 237861, Note_on_c, 0, 91, 62
2, 237861, Note_on_c, 0, 100, 69
2, 237866, Note_on_c, 0, 71, 65
2, 237866, Note_on_c, 0, 76, 66
2, 237866, Note_on_c, 0, 83, 69
2, 237871, Note_on_c, 0, 67, 65
2, 237888, Note_on_c, 0, 100, 0
2, 237890, Note_on_c, 0, 91, 0
2, 237892, Note_on_c, 0, 83, 0
2, 237892, Note_on_c, 0, 76, 0
2, 237892, Note_on_c, 0, 67, 0
2, 237892, Note_on_c, 0, 71, 0
2, 237962, Note_on_c, 0, 103, 66
2, 237967, Note_on_c, 0, 88, 68
2, 237969, Note_on_c, 0, 95, 69
2, 237971, Note_on_c, 0, 52, 57
2, 237981, Control_c, 0, 64, 0
2, 238014, Note_on_c, 0, 52, 0
2, 238067, Control_c, 0, 64, 127
2, 238073, Note_on_c, 0, 88, 0
2, 238082, Note_on_c, 0, 52, 57
2, 238108, Note_on_c, 0, 52, 0
2, 238119, Note_on_c, 0, 103, 0
2, 238127, Note_on_c, 0, 95, 0
2, 238191, Note_on_c, 0, 88, 62
2, 238191, Note_on_c, 0, 93, 68
2, 238191, Note_on_c, 0, 102, 72
2, 238195, Note_on_c, 0, 69, 68
2, 238195, Note_on_c, 0, 72, 69
2, 238195, Note_on_c, 0, 78, 70
2, 238195, Note_on_c, 0, 84, 73
2, 238237, Note_on_c, 0, 78, 0
2, 238243, Note_on_c, 0, 69, 0
2, 238250, Note_on_c, 0, 72, 0
2, 238264, Note_on_c, 0, 84, 0
2, 238286, Note_on_c, 0, 88, 0
2, 238305, Note_on_c, 0, 102, 0
2, 238305, Note_on_c, 0, 72, 61
2, 238305, Note_on_c, 0, 78, 60
2, 238312, Note_on_c, 0, 69, 57
2, 238331, Note_on_c, 0, 78, 0
2, 238339, Note_on_c, 0, 72, 0
2, 238346, Note_on_c, 0, 93, 0
2, 238346, Note_on_c, 0, 69, 0
2, 238411, Note_on_c, 0, 99, 65
2, 238413, Note_on_c, 0, 81, 71
2, 238413, Note_on_c, 0, 84, 72
2, 238415, Note_on_c, 0, 90, 73
2, 238417, Note_on_c, 0, 52, 57
2, 238434, Control_c, 0, 64, 0
2, 238478, Note_on_c, 0, 52, 0
2, 238488, Note_on_c, 0, 84, 0
2, 238488, Note_on_c, 0, 81, 0
2, 238519, Control_c, 0, 64, 127
2, 238529, Note_on_c, 0, 52, 57
2, 238560, Note_on_c, 0, 52, 0
2, 238567, Note_on_c, 0, 99, 0
2, 238569, Note_on_c, 0, 90, 0
2, 238639, Note_on_c, 0, 100, 65
2, 238641, Note_on_c, 0, 91, 67
2, 238643, Note_on_c, 0, 70, 66
2, 238643, Note_on_c, 0, 73, 67
2, 238643, Note_on_c, 0, 82, 68
2, 238643, Note_on_c, 0, 85, 69
2, 238648, Note_on_c, 0, 79, 66
2, 238691, Note_on_c, 0, 73, 0
2, 238691, Note_on_c, 0, 70, 0
2, 238697, Note_on_c, 0, 79, 0
2, 238715, Note_on_c, 0, 100, 0
2, 238717, Note_on_c, 0, 85, 0
2, 238719, Note_on_c, 0, 91, 0
2, 238727, Note_on_c, 0, 82, 0
2, 238744, Note_on_c, 0, 70, 58
2, 238744, Note_on_c, 0, 73, 58
2, 238744, Note_on_c, 0, 79, 57
2, 238786, Note_on_c, 0, 79, 0
2, 238786, Note_on_c, 0, 73, 0
2, 238786, Note_on_c, 0, 70, 0
2, 238847, Control_c, 0, 64, 0
2, 238858, Note_on_c, 0, 92, 69
2, 238864, Note_on_c, 0, 83, 70
2, 238864, Note_on_c, 0, 89, 71
2, 238864, Note_on_c, 0, 98, 75
2, 238866, Note_on_c, 0, 52, 57
2, 238899, Note_on_c, 0, 89, 0
2, 238910, Note_on_c, 0, 98, 0
2, 238910, Note_on_c, 0, 92, 0
2, 238910, Note_on_c, 0, 83, 0
2, 238940, Control_c, 0, 64, 127
2, 238947, Note_on_c, 0, 52, 0
2, 238969, Note_on_c, 0, 92, 68
2, 238969, Note_on_c, 0, 98, 72
2, 238974, Note_on_c, 0, 83, 68
2, 238976, Note_on_c, 0, 52, 57
2, 238981, Note_on_c, 0, 89, 69
2, 239003, Note_on_c, 0, 52, 0
2, 239008, Note_on_c, 0, 98, 0
2, 239012, Note_on_c, 0, 89, 0
2, 239012, Note_on_c, 0, 83, 0
2, 239014, Note_on_c, 0, 92, 0
2, 239084, Note_on_c, 0, 83, 64
2, 239084, Note_on_c, 0, 89, 73
2, 239084, Note_on_c, 0, 92, 74
2, 239084, Note_on_c, 0, 98, 78
2, 239086, Note_on_c, 0, 71, 74
2, 239086, Note_on_c, 0, 74, 75
2, 239091, Note_on_c, 0, 80, 74
2, 239132, Note_on_c, 0, 71, 0
2, 239137, Note_on_c, 0, 74, 0
2, 239137, Note_on_c, 0, 80, 0
2, 239156, Note_on_c, 0, 98, 0
2, 239178, Note_on_c, 0, 89, 0
2, 239183, Note_on_c, 0, 80, 61
2, 239185, Note_on_c, 0, 71, 60
2, 239185, Note_on_c, 0, 74, 59
2, 239202, Note_on_c, 0, 92, 0
2, 239216, Note_on_c, 0, 83, 0
2, 239224, Note_on_c, 0, 71, 0
2, 239224, Note_on_c, 0, 74, 0
2, 239226, Note_on_c, 0, 80, 0
2, 239294, Note_on_c, 0, 88, 61
2, 239294, Note_on_c, 0, 91, 67
2, 239298, Note_on_c, 0, 97, 71
2, 239300, Note_on_c, 0, 52, 57
2, 239300, Note_on_c, 0, 82, 69
2, 239302, Control_c, 0, 64, 0
2, 239348, Note_on_c, 0, 88, 0
2, 239350, Note_on_c, 0, 52, 0
2, 239350, Note_on_c, 0, 91, 0
2, 239350, Note_on_c, 0, 97, 0
2, 239350, Note_on_c, 0, 82, 0
2, 239396, Control_c, 0, 64, 127
2, 239398, Note_on_c, 0, 52, 54
2, 239398, Note_on_c, 0, 91, 64
2, 239405, Note_on_c, 0, 82, 65
2, 239405, Note_on_c, 0, 97, 69
2, 239407, Note_on_c, 0, 88, 67
2, 239426, Note_on_c, 0, 52, 0
2, 239452, Note_on_c, 0, 82, 0
2, 239457, Note_on_c, 0, 91, 0
2, 239457, Note_on_c, 0, 97, 0
2, 239457, Note_on_c, 0, 88, 0
2, 239509, Note_on_c, 0, 91, 63
2, 239511, Note_on_c, 0, 73, 66
2, 239511, Note_on_c, 0, 82, 69
2, 239511, Note_on_c, 0, 97, 73
2, 239512, Note_on_c, 0, 76, 69
2, 239517, Note_on_c, 0, 88, 72
2, 239545, Note_on_c, 0, 76, 0
2, 239552, Note_on_c, 0, 73, 0
2, 239607, Note_on_c, 0, 88, 0
2, 239608, Note_on_c, 0, 91, 0
2, 239610, Note_on_c, 0, 97, 0
2, 239612, Note_on_c, 0, 73, 59
2, 239612, Note_on_c, 0, 76, 58
2, 239621, Note_on_c, 0, 82, 0
2, 239649, Note_on_c, 0, 73, 0
2, 239654, Note_on_c, 0, 76, 0
2, 239712, Note_on_c, 0, 96, 62
2, 239714, Control_c, 0, 64, 0
2, 239714, Note_on_c, 0, 81, 66
2, 239714, Note_on_c, 0, 90, 67
2, 239723, Note_on_c, 0, 87, 68
2, 239728, Note_on_c, 0, 52, 57
2, 239755, Note_on_c, 0, 81, 0
2, 239757, Note_on_c, 0, 87, 0
2, 239766, Note_on_c, 0, 90, 0
2, 239768, Note_on_c, 0, 96, 0
2, 239768, Note_on_c, 0, 52, 0
2, 239826, Note_on_c, 0, 52, 57
2, 239828, Note_on_c, 0, 96, 67
2, 239830, Note_on_c, 0, 81, 68
2, 239830, Note_on_c, 0, 90, 69
2, 239837, Note_on_c, 0, 87, 68
2, 239850, Control_c, 0, 64, 127
2, 239859, Note_on_c, 0, 52, 0
2, 239861, Note_on_c, 0, 81, 0
2, 239868, Note_on_c, 0, 96, 0
2, 239872, Note_on_c, 0, 87, 0
2, 239883, Note_on_c, 0, 90, 0
2, 239922, Note_on_c, 0, 96, 64
2, 239924, Note_on_c, 0, 81, 66
2, 239931, Note_on_c, 0, 90, 67
2, 239936, Note_on_c, 0, 87, 68
2, 239938, Note_on_c, 0, 75, 67
2, 239943, Note_on_c, 0, 78, 65
2, 239970, Note_on_c, 0, 78, 0
2, 239977, Note_on_c, 0, 75, 0
2, 239999, Note_on_c, 0, 81, 0
2, 240018, Note_on_c, 0, 90, 0
2, 240025, Note_on_c, 0, 87, 0
2, 240032, Note_on_c, 0, 75, 57
2, 240032, Note_on_c, 0, 78, 58
2, 240056, Note_on_c, 0, 78, 0
2, 240063, Note_on_c, 0, 75, 0
2, 240087, Control_c, 0, 64, 0
2, 240106, Note_on_c, 0, 52, 60
2, 240116, Note_on_c, 0, 55, 61
2, 240123, Note_on_c, 0, 96, 0
2, 240132, Note_on_c, 0, 59, 61
2, 240136, Note_on_c, 0, 52, 0
2, 240141, Note_on_c, 0, 95, 66
2, 240143, Note_on_c, 0, 67, 64
2, 240143, Note_on_c, 0, 79, 66
2, 240143, Note_on_c, 0, 88, 69
2, 240160, Note_on_c, 0, 55, 0
2, 240169, Note_on_c, 0, 59, 0
2, 240171, Note_on_c, 0, 88, 0
2, 240176, Note_on_c, 0, 67, 0
2, 240176, Note_on_c, 0, 79, 0
2, 240176, Control_c, 0, 64, 127
2, 240184, Note_on_c, 0, 95, 0
2, 240239, Note_on_c, 0, 91, 62
2, 240239, Note_on_c, 0, 100, 59
2, 240241, Note_on_c, 0, 83, 55
2, 240272, Note_on_c, 0, 100, 0
2, 240274, Note_on_c, 0, 91, 0
2, 240276, Note_on_c, 0, 83, 0
2, 240280, Note_on_c, 0, 52, 61
2, 240306, Control_c, 0, 64, 0
2, 240308, Note_on_c, 0, 57, 61
2, 240324, Note_on_c, 0, 60, 61
2, 240332, Note_on_c, 0, 52, 0
2, 240334, Note_on_c, 0, 96, 64
2, 240343, Note_on_c, 0, 81, 65
2, 240343, Note_on_c, 0, 88, 66
2, 240345, Note_on_c, 0, 69, 62
2, 240358, Note_on_c, 0, 57, 0
2, 240376, Note_on_c, 0, 81, 0
2, 240377, Note_on_c, 0, 60, 0
2, 240382, Note_on_c, 0, 69, 0
2, 240389, Note_on_c, 0, 96, 0
2, 240391, Control_c, 0, 64, 127
2, 240393, Note_on_c, 0, 88, 0
2, 240445, Note_on_c, 0, 100, 70
2, 240449, Note_on_c, 0, 84, 71
2, 240449, Note_on_c, 0, 90, 72
2, 240480, Note_on_c, 0, 84, 0
2, 240482, Note_on_c, 0, 52, 61
2, 240484, Note_on_c, 0, 100, 0
2, 240489, Note_on_c, 0, 90, 0
2, 240497, Control_c, 0, 64, 0
2, 240517, Note_on_c, 0, 59, 61
2, 240532, Note_on_c, 0, 52, 0
2, 240539, Note_on_c, 0, 88, 71
2, 240541, Note_on_c, 0, 79, 70
2, 240541, Note_on_c, 0, 95, 73
2, 240543, Note_on_c, 0, 67, 71
2, 240577, Note_on_c, 0, 95, 0
2, 240582, Note_on_c, 0, 67, 0
2, 240584, Note_on_c, 0, 59, 0
2, 240584, Note_on_c, 0, 88, 0
2, 240584, Note_on_c, 0, 79, 0
2, 240597, Control_c, 0, 64, 127
2, 240639, Note_on_c, 0, 67, 62
2, 240640, Note_on_c, 0, 59, 61
2, 240671, Control_c, 0, 64, 0
2, 240676, Note_on_c, 0, 67, 0
2, 240681, Note_on_c, 0, 59, 0
2, 240724, Control_c, 0, 64, 127
2, 240750, Note_on_c, 0, 79, 62
2, 240807, Note_on_c, 0, 78, 62
2, 240808, Note_on_c, 0, 79, 0
2, 240832, Control_c, 0, 64, 0
2, 240855, Note_on_c, 0, 76, 62
2, 240868, Note_on_c, 0, 78, 0
2, 240892, Note_on_c, 0, 74, 62
2, 240907, Note_on_c, 0, 76, 0
2, 240925, Note_on_c, 0, 74, 0
2, 240966, Note_on_c, 0, 61, 64
2, 240966, Note_on_c, 0, 70, 68
2, 240966, Note_on_c, 0, 73, 69
2, 240966, Note_on_c, 0, 76, 70
2, 240968, Note_on_c, 0, 54, 65
2, 241020, Control_c, 0, 64, 127
2, 241056, Note_on_c, 0, 73, 0
2, 241084, Note_on_c, 0, 70, 0
2, 241086, Note_on_c, 0, 61, 0
2, 241086, Note_on_c, 0, 76, 0
2, 241086, Note_on_c, 0, 54, 0
2, 241177, Note_on_c, 0, 78, 66
2, 241177, Note_on_c, 0, 94, 69
2, 241177, Note_on_c, 0, 100, 71
2, 241182, Note_on_c, 0, 85, 69
2, 241204, Note_on_c, 0, 78, 0
2, 241209, Note_on_c, 0, 100, 0
2, 241211, Note_on_c, 0, 85, 0
2, 241217, Note_on_c, 0, 94, 0
2, 241285, Note_on_c, 0, 88, 68
2, 241287, Note_on_c, 0, 90, 69
2, 241288, Note_on_c, 0, 82, 69
2, 241288, Note_on_c, 0, 97, 72
2, 241316, Note_on_c, 0, 90, 0
2, 241321, Note_on_c, 0, 97, 0
2, 241343, Note_on_c, 0, 82, 0
2, 241343, Note_on_c, 0, 88, 0
2, 241398, Note_on_c, 0, 100, 73
2, 241407, Note_on_c, 0, 78, 72
2, 241407, Note_on_c, 0, 85, 75
2, 241411, Note_on_c, 0, 94, 76
2, 241453, Note_on_c, 0, 85, 0
2, 241461, Note_on_c, 0, 94, 0
2, 241463, Note_on_c, 0, 78, 0
2, 241468, Note_on_c, 0, 100, 0
2, 241581, Control_c, 0, 64, 0
2, 241624, Note_on_c, 0, 78, 66
2, 241624, Note_on_c, 0, 99, 72
2, 241629, Note_on_c, 0, 87, 68
2, 241629, Note_on_c, 0, 90, 69
2, 241631, Note_on_c, 0, 71, 65
2, 241636, Note_on_c, 0, 95, 68
2, 241662, Note_on_c, 0, 78, 0
2, 241675, Note_on_c, 0, 99, 0
2, 241684, Control_c, 0, 64, 127
2, 241689, Note_on_c, 0, 95, 0
2, 241689, Note_on_c, 0, 76, 66
2, 241697, Note_on_c, 0, 90, 0
2, 241697, Note_on_c, 0, 87, 0
2, 241721, Note_on_c, 0, 71, 0
2, 241730, Control_c, 0, 64, 0
2, 241739, Note_on_c, 0, 75, 66
2, 241745, Note_on_c, 0, 76, 0
2, 241778, Note_on_c, 0, 73, 65
2, 241787, Note_on_c, 0, 75, 0
2, 241806, Note_on_c, 0, 73, 0
2, 241834, Note_on_c, 0, 71, 66
2, 241853, Note_on_c, 0, 68, 65
2, 241855, Note_on_c, 0, 59, 65
2, 241855, Note_on_c, 0, 74, 67
2, 241857, Note_on_c, 0, 52, 65
2, 241900, Control_c, 0, 64, 127
2, 241955, Note_on_c, 0, 74, 0
2, 241957, Note_on_c, 0, 71, 0
2, 241959, Note_on_c, 0, 59, 0
2, 241960, Note_on_c, 0, 52, 0
2, 241962, Note_on_c, 0, 68, 0
2, 242064, Note_on_c, 0, 83, 69
2, 242064, Note_on_c, 0, 98, 80
2, 242066, Note_on_c, 0, 76, 74
2, 242068, Note_on_c, 0, 92, 77
2, 242092, Note_on_c, 0, 98, 0
2, 242118, Note_on_c, 0, 76, 0
2, 242123, Note_on_c, 0, 92, 0
2, 242140, Note_on_c, 0, 83, 0
2, 242171, Note_on_c, 0, 95, 73
2, 242173, Note_on_c, 0, 80, 73
2, 242173, Note_on_c, 0, 86, 76
2, 242173, Note_on_c, 0, 88, 77
2, 242209, Note_on_c, 0, 95, 0
2, 242224, Note_on_c, 0, 88, 0
2, 242226, Note_on_c, 0, 86, 0
2, 242240, Note_on_c, 0, 80, 0
2, 242250, Control_c, 0, 64, 0
2, 242285, Note_on_c, 0, 83, 71
2, 242285, Note_on_c, 0, 92, 74
2, 242285, Note_on_c, 0, 98, 78
2, 242296, Note_on_c, 0, 76, 71
2, 242341, Control_c, 0, 64, 127
2, 242345, Note_on_c, 0, 83, 0
2, 242363, Note_on_c, 0, 92, 0
2, 242365, Note_on_c, 0, 98, 0
2, 242373, Note_on_c, 0, 76, 0
2, 242480, Control_c, 0, 64, 0
2, 242495, Note_on_c, 0, 76, 75
2, 242500, Note_on_c, 0, 85, 77
2, 242500, Note_on_c, 0, 93, 77
2, 242502, Note_on_c, 0, 69, 74
2, 242502, Note_on_c, 0, 97, 80
2, 242509, Note_on_c, 0, 88, 75
2, 242545, Note_on_c, 0, 97, 0
2, 242545, Note_on_c, 0, 93, 0
2, 242552, Note_on_c, 0, 74, 73
2, 242554, Note_on_c, 0, 76, 0
2, 242554, Control_c, 0, 64, 127
2, 242559, Note_on_c, 0, 85, 0
2, 242565, Note_on_c, 0, 88, 0
2, 242572, Note_on_c, 0, 69, 0
2, 242587, Note_on_c, 0, 73, 74
2, 242598, Note_on_c, 0, 74, 0
2, 242607, Control_c, 0, 64, 0
2, 242639, Note_on_c, 0, 71, 73
2, 242646, Note_on_c, 0, 73, 0
2, 242668, Note_on_c, 0, 71, 0
2, 242707, Note_on_c, 0, 66, 76
2, 242709, Note_on_c, 0, 50, 73
2, 242709, Note_on_c, 0, 57, 73
2, 242709, Note_on_c, 0, 72, 81
2, 242714, Note_on_c, 0, 69, 82
2, 242775, Control_c, 0, 64, 127
2, 242844, Note_on_c, 0, 69, 0
2, 242844, Note_on_c, 0, 72, 0
2, 242846, Note_on_c, 0, 66, 0
2, 242846, Note_on_c, 0, 50, 0
2, 242846, Note_on_c, 0, 57, 0
2, 242921, Note_on_c, 0, 96, 76
2, 242923, Note_on_c, 0, 74, 75
2, 242923, Note_on_c, 0, 81, 77
2, 242923, Note_on_c, 0, 90, 76
2, 242956, Note_on_c, 0, 74, 0
2, 242961, Note_on_c, 0, 96, 0
2, 242961, Note_on_c, 0, 90, 0
2, 242969, Note_on_c, 0, 81, 0
2, 243019, Note_on_c, 0, 93, 77
2, 243024, Note_on_c, 0, 78, 75
2, 243024, Note_on_c, 0, 84, 77
2, 243024, Note_on_c, 0, 86, 76
2, 243057, Note_on_c, 0, 86, 0
2, 243062, Note_on_c, 0, 84, 0
2, 243062, Note_on_c, 0, 93, 0
2, 243081, Note_on_c, 0, 78, 0
2, 243139, Note_on_c, 0, 96, 78
2, 243141, Note_on_c, 0, 90, 82
2, 243143, Note_on_c, 0, 74, 81
2, 243143, Note_on_c, 0, 81, 84
2, 243193, Note_on_c, 0, 81, 0
2, 243200, Note_on_c, 0, 96, 0
2, 243200, Note_on_c, 0, 90, 0
2, 243200, Note_on_c, 0, 74, 0
2, 243326, Control_c, 0, 64, 0
2, 243358, Note_on_c, 0, 74, 81
2, 243365, Note_on_c, 0, 83, 84
2, 243365, Note_on_c, 0, 95, 84
2, 243367, Note_on_c, 0, 86, 83
2, 243372, Note_on_c, 0, 67, 78
2, 243372, Note_on_c, 0, 91, 80
2, 243404, Note_on_c, 0, 72, 77
2, 243413, Note_on_c, 0, 95, 0
2, 243420, Note_on_c, 0, 67, 0
2, 243424, Note_on_c, 0, 74, 0
2, 243433, Control_c, 0, 64, 127
2, 243438, Note_on_c, 0, 91, 0
2, 243445, Note_on_c, 0, 83, 0
2, 243449, Note_on_c, 0, 86, 0
2, 243456, Note_on_c, 0, 71, 74
2, 243463, Note_on_c, 0, 72, 0
2, 243487, Control_c, 0, 64, 0
2, 243494, Note_on_c, 0, 69, 74
2, 243528, Note_on_c, 0, 71, 0
2, 243547, Note_on_c, 0, 69, 0
2, 243578, Note_on_c, 0, 71, 77
2, 243578, Note_on_c, 0, 75, 80
2, 243583, Note_on_c, 0, 67, 80
2, 243588, Note_on_c, 0, 55, 78
2, 243588, Note_on_c, 0, 63, 79
2, 243650, Control_c, 0, 64, 127
2, 243719, Note_on_c, 0, 63, 0
2, 243719, Note_on_c, 0, 75, 0
2, 243721, Note_on_c, 0, 71, 0
2, 243721, Note_on_c, 0, 67, 0
2, 243723, Note_on_c, 0, 55, 0
2, 243749, Control_c, 0, 64, 0
2, 243756, Note_on_c, 0, 54, 81
2, 243780, Note_on_c, 0, 59, 82
2, 243799, Note_on_c, 0, 63, 84
2, 243818, Note_on_c, 0, 54, 0
2, 243820, Note_on_c, 0, 69, 98
2, 243842, Note_on_c, 0, 71, 98
2, 243851, Note_on_c, 0, 69, 0
2, 243851, Control_c, 0, 64, 127
2, 243853, Note_on_c, 0, 63, 0
2, 243859, Note_on_c, 0, 75, 98
2, 243870, Note_on_c, 0, 71, 0
2, 243877, Note_on_c, 0, 59, 0
2, 243879, Note_on_c, 0, 78, 98
2, 243887, Note_on_c, 0, 75, 0
2, 243898, Control_c, 0, 64, 0
2, 243904, Note_on_c, 0, 83, 100
2, 243911, Note_on_c, 0, 78, 0
2, 243933, Note_on_c, 0, 87, 101
2, 243952, Note_on_c, 0, 52, 97
2, 243957, Note_on_c, 0, 83, 0
2, 243962, Note_on_c, 0, 90, 106
2, 243973, Note_on_c, 0, 59, 99
2, 243983, Note_on_c, 0, 87, 0
2, 243983, Note_on_c, 0, 95, 109
2, 243997, Note_on_c, 0, 64, 106
2, 244005, Note_on_c, 0, 90, 0
2, 244007, Note_on_c, 0, 83, 110
2, 244014, Note_on_c, 0, 88, 110
2, 244016, Note_on_c, 0, 67, 107
2, 244061, Control_c, 0, 64, 127
2, 244126, Note_on_c, 0, 95, 0
2, 244154, Note_on_c, 0, 59, 0
2, 244159, Note_on_c, 0, 52, 0
2, 244159, Note_on_c, 0, 83, 0
2, 244159, Note_on_c, 0, 88, 0
2, 244161, Note_on_c, 0, 64, 0
2, 244161, Note_on_c, 0, 67, 0
2, 244264, Note_on_c, 0, 64, 111
2, 244266, Note_on_c, 0, 59, 111
2, 244268, Note_on_c, 0, 52, 111
2, 244277, Note_on_c, 0, 40, 111
2, 244277, Note_on_c, 0, 55, 111
2, 244279, Note_on_c, 0, 28, 110
2, 244284, Note_on_c, 0, 35, 111
2, 244292, Note_on_c, 0, 59, 0
2, 244303, Note_on_c, 0, 55, 0
2, 244303, Note_on_c, 0, 52, 0
2, 244308, Note_on_c, 0, 40, 0
2, 244323, Note_on_c, 0, 64, 0
2, 244325, Note_on_c, 0, 28, 0
2, 244325, Note_on_c, 0, 35, 0
2, 244554, Control_c, 0, 64, 0
2, 246373, Note_on_c, 0, 59, 44
2, 246373, Note_on_c, 0, 62, 57
2, 246373, Note_on_c, 0, 67, 57
2, 246373, Note_on_c, 0, 79, 57
2, 246377, Note_on_c, 0, 55, 59
2, 246382, Note_on_c, 0, 31, 60
2, 246382, Note_on_c, 0, 43, 61
2, 246396, Note_on_c, 0, 67, 0
2, 246398, Control_c, 0, 64, 127
2, 246404, Note_on_c, 0, 55, 0
2, 246404, Note_on_c, 0, 62, 0
2, 246406, Note_on_c, 0, 43, 0
2, 246406, Note_on_c, 0, 31, 0
2, 246413, Note_on_c, 0, 59, 0
2, 246418, Note_on_c, 0, 79, 0
2, 246446, Note_on_c, 0, 79, 57
2, 246476, Control_c, 0, 64, 0
2, 246481, Note_on_c, 0, 78, 60
2, 246486, Note_on_c, 0, 79, 0
2, 246522, Note_on_c, 0, 78, 0
2, 246524, Note_on_c, 0, 79, 65
2, 246559, Note_on_c, 0, 79, 0
2, 246595, Note_on_c, 0, 79, 61
2, 246663, Note_on_c, 0, 79, 0
2, 246669, Note_on_c, 0, 60, 61
2, 246669, Note_on_c, 0, 67, 61
2, 246669, Note_on_c, 0, 76, 61
2, 246674, Note_on_c, 0, 55, 61
2, 246674, Note_on_c, 0, 57, 61
2, 246693, Note_on_c, 0, 76, 0
2, 246693, Note_on_c, 0, 60, 0
2, 246695, Note_on_c, 0, 57, 0
2, 246695, Note_on_c, 0, 67, 0
2, 246697, Note_on_c, 0, 55, 0
2, 246736, Note_on_c, 0, 74, 66
2, 246738, Note_on_c, 0, 62, 61
2, 246738, Note_on_c, 0, 67, 66
2, 246740, Note_on_c, 0, 55, 61
2, 246742, Note_on_c, 0, 59, 61
2, 246761, Note_on_c, 0, 67, 0
2, 246761, Note_on_c, 0, 74, 0
2, 246766, Note_on_c, 0, 62, 0
2, 246766, Note_on_c, 0, 55, 0
2, 246773, Note_on_c, 0, 59, 0
2, 246808, Note_on_c, 0, 54, 61
2, 246808, Note_on_c, 0, 60, 61
2, 246808, Note_on_c, 0, 64, 65
2, 246808, Note_on_c, 0, 67, 66
2, 246808, Note_on_c, 0, 72, 66
2, 246833, Note_on_c, 0, 60, 0
2, 246833, Note_on_c, 0, 54, 0
2, 246838, Note_on_c, 0, 67, 0
2, 246843, Note_on_c, 0, 64, 0
2, 246845, Note_on_c, 0, 72, 0
2, 246886, Note_on_c, 0, 76, 67
2, 246921, Note_on_c, 0, 76, 0
2, 246966, Note_on_c, 0, 55, 65
2, 246966, Note_on_c, 0, 62, 65
2, 246966, Note_on_c, 0, 67, 72
2, 246966, Note_on_c, 0, 74, 74
2, 246968, Note_on_c, 0, 59, 64
2, 246973, Note_on_c, 0, 31, 65
2, 246973, Note_on_c, 0, 43, 65
2, 246990, Note_on_c, 0, 74, 0
2, 247009, Note_on_c, 0, 31, 0
2, 247009, Note_on_c, 0, 43, 0
2, 247033, Note_on_c, 0, 67, 0
2, 247046, Note_on_c, 0, 74, 68
2, 247049, Note_on_c, 0, 62, 0
2, 247067, Note_on_c, 0, 59, 0
2, 247067, Note_on_c, 0, 55, 0
2, 247069, Note_on_c, 0, 74, 0
2, 247084, Note_on_c, 0, 73, 66
2, 247117, Note_on_c, 0, 74, 66
2, 247120, Note_on_c, 0, 73, 0
2, 247150, Note_on_c, 0, 74, 0
2, 247187, Note_on_c, 0, 74, 66
2, 247245, Note_on_c, 0, 74, 0
2, 247254, Note_on_c, 0, 71, 67
2, 247256, Note_on_c, 0, 50, 65
2, 247256, Note_on_c, 0, 55, 65
2, 247256, Note_on_c, 0, 61, 64
2, 247260, Note_on_c, 0, 52, 65
2, 247289, Note_on_c, 0, 61, 0
2, 247289, Note_on_c, 0, 50, 0
2, 247291, Note_on_c, 0, 71, 0
2, 247295, Note_on_c, 0, 55, 0
2, 247295, Note_on_c, 0, 52, 0
2, 247332, Note_on_c, 0, 50, 64
2, 247332, Note_on_c, 0, 54, 65
2, 247332, Note_on_c, 0, 57, 64
2, 247332, Note_on_c, 0, 60, 65
2, 247332, Note_on_c, 0, 69, 67
2, 247361, Note_on_c, 0, 69, 0
2, 247363, Note_on_c, 0, 57, 0
2, 247363, Note_on_c, 0, 60, 0
2, 247363, Note_on_c, 0, 50, 0
2, 247372, Note_on_c, 0, 54, 0
2, 247400, Note_on_c, 0, 55, 65
2, 247400, Note_on_c, 0, 67, 66
2, 247402, Note_on_c, 0, 50, 65
2, 247402, Note_on_c, 0, 59, 65
2, 247434, Note_on_c, 0, 59, 0
2, 247434, Note_on_c, 0, 50, 0
2, 247434, Note_on_c, 0, 55, 0
2, 247447, Note_on_c, 0, 67, 0
2, 247488, Note_on_c, 0, 71, 66
2, 247497, Note_on_c, 0, 31, 65
2, 247499, Note_on_c, 0, 43, 65
2, 247514, Note_on_c, 0, 74, 66
2, 247523, Note_on_c, 0, 71, 0
2, 247527, Note_on_c, 0, 43, 0
2, 247528, Note_on_c, 0, 31, 0
2, 247554, Note_on_c, 0, 74, 0
2, 247556, Note_on_c, 0, 60, 65
2, 247556, Note_on_c, 0, 66, 70
2, 247558, Note_on_c, 0, 69, 72
2, 247612, Note_on_c, 0, 69, 0
2, 247619, Note_on_c, 0, 60, 0
2, 247621, Note_on_c, 0, 66, 0
2, 247645, Note_on_c, 0, 69, 66
2, 247648, Note_on_c, 0, 31, 65
2, 247648, Note_on_c, 0, 43, 65
2, 247672, Note_on_c, 0, 74, 66
2, 247679, Note_on_c, 0, 43, 0
2, 247679, Note_on_c, 0, 31, 0
2, 247690, Note_on_c, 0, 69, 0
2, 247709, Note_on_c, 0, 74, 0
2, 247716, Note_on_c, 0, 64, 69
2, 247716, Note_on_c, 0, 67, 70
2, 247718, Note_on_c, 0, 59, 68
2, 247759, Note_on_c, 0, 67, 0
2, 247771, Note_on_c, 0, 59, 0
2, 247775, Note_on_c, 0, 64, 0
2, 247799, Note_on_c, 0, 67, 65
2, 247806, Note_on_c, 0, 31, 65
2, 247806, Note_on_c, 0, 43, 65
2, 247834, Note_on_c, 0, 31, 0
2, 247834, Note_on_c, 0, 74, 66
2, 247836, Note_on_c, 0, 43, 0
2, 247846, Note_on_c, 0, 67, 0
2, 247864, Note_on_c, 0, 57, 65
2, 247864, Note_on_c, 0, 62, 65
2, 247864, Note_on_c, 0, 66, 69
2, 247881, Note_on_c, 0, 74, 0
2, 247919, Note_on_c, 0, 57, 0
2, 247919, Note_on_c, 0, 66, 0
2, 247923, Note_on_c, 0, 62, 0
2, 247947, Note_on_c, 0, 66, 65
2, 247954, Note_on_c, 0, 43, 65
2, 247956, Note_on_c, 0, 31, 65
2, 247975, Note_on_c, 0, 74, 66
2, 247984, Note_on_c, 0, 31, 0
2, 247984, Note_on_c, 0, 43, 0
2, 247985, Note_on_c, 0, 66, 0
2, 248011, Note_on_c, 0, 60, 67
2, 248011, Note_on_c, 0, 66, 68
2, 248011, Note_on_c, 0, 69, 70
2, 248013, Note_on_c, 0, 74, 0
2, 248056, Note_on_c, 0, 60, 0
2, 248056, Note_on_c, 0, 69, 0
2, 248063, Note_on_c, 0, 66, 0
2, 248100, Note_on_c, 0, 31, 65
2, 248100, Note_on_c, 0, 43, 65
2, 248102, Note_on_c, 0, 69, 66
2, 248119, Note_on_c, 0, 74, 66
2, 248131, Note_on_c, 0, 43, 0
2, 248131, Note_on_c, 0, 31, 0
2, 248133, Note_on_c, 0, 69, 0
2, 248157, Note_on_c, 0, 74, 0
2, 248159, Note_on_c, 0, 62, 65
2, 248159, Note_on_c, 0, 71, 70
2, 248161, Note_on_c, 0, 67, 70
2, 248202, Note_on_c, 0, 67, 0
2, 248206, Note_on_c, 0, 71, 0
2, 248217, Note_on_c, 0, 62, 0
2, 248238, Note_on_c, 0, 71, 66
2, 248245, Note_on_c, 0, 31, 65
2, 248245, Note_on_c, 0, 43, 65
2, 248271, Note_on_c, 0, 74, 66
2, 248277, Note_on_c, 0, 43, 0
2, 248277, Note_on_c, 0, 71, 0
2, 248277, Note_on_c, 0, 31, 0
2, 248303, Note_on_c, 0, 59, 64
2, 248303, Note_on_c, 0, 64, 68
2, 248303, Note_on_c, 0, 67, 69
2, 248312, Note_on_c, 0, 74, 0
2, 248342, Note_on_c, 0, 59, 0
2, 248342, Note_on_c, 0, 67, 0
2, 248350, Note_on_c, 0, 64, 0
2, 248383, Note_on_c, 0, 67, 65
2, 248385, Note_on_c, 0, 31, 67
2, 248385, Note_on_c, 0, 43, 68
2, 248411, Note_on_c, 0, 67, 0
2, 248411, Note_on_c, 0, 74, 70
2, 248417, Note_on_c, 0, 43, 0
2, 248417, Note_on_c, 0, 31, 0
2, 248433, Note_on_c, 0, 74, 0
2, 248441, Note_on_c, 0, 60, 72
2, 248445, Note_on_c, 0, 66, 73
2, 248445, Note_on_c, 0, 69, 75
2, 248490, Note_on_c, 0, 69, 0
2, 248490, Note_on_c, 0, 66, 0
2, 248492, Note_on_c, 0, 60, 0
2, 248529, Note_on_c, 0, 64, 73
2, 248529, Note_on_c, 0, 67, 73
2, 248533, Note_on_c, 0, 43, 73
2, 248533, Note_on_c, 0, 59, 73
2, 248536, Note_on_c, 0, 31, 72
2, 248560, Note_on_c, 0, 59, 0
2, 248564, Note_on_c, 0, 43, 0
2, 248564, Note_on_c, 0, 67, 0
2, 248568, Note_on_c, 0, 31, 0
2, 248575, Note_on_c, 0, 64, 0
2, 248609, Note_on_c, 0, 60, 73
2, 248609, Note_on_c, 0, 66, 73
2, 248609, Note_on_c, 0, 69, 73
2, 248613, Note_on_c, 0, 31, 68
2, 248613, Note_on_c, 0, 43, 67
2, 248639, Note_on_c, 0, 69, 0
2, 248646, Note_on_c, 0, 31, 0
2, 248646, Note_on_c, 0, 43, 0
2, 248648, Note_on_c, 0, 60, 0
2, 248650, Note_on_c, 0, 66, 0
2, 248684, Note_on_c, 0, 74, 74
2, 248708, Note_on_c, 0, 76, 74
2, 248726, Note_on_c, 0, 78, 74
2, 248729, Note_on_c, 0, 74, 0
2, 248740, Note_on_c, 0, 76, 0
2, 248747, Note_on_c, 0, 62, 70
2, 248751, Note_on_c, 0, 67, 75
2, 248751, Note_on_c, 0, 79, 77
2, 248752, Note_on_c, 0, 43, 69
2, 248752, Note_on_c, 0, 55, 68
2, 248754, Note_on_c, 0, 31, 67
2, 248756, Note_on_c, 0, 78, 0
2, 248758, Note_on_c, 0, 59, 66
2, 248784, Note_on_c, 0, 43, 0
2, 248786, Note_on_c, 0, 79, 0
2, 248795, Note_on_c, 0, 31, 0
2, 248827, Note_on_c, 0, 67, 0
2, 248831, Note_on_c, 0, 62, 0
2, 248838, Note_on_c, 0, 79, 67
2, 248842, Note_on_c, 0, 55, 0
2, 248842, Note_on_c, 0, 59, 0
2, 248868, Note_on_c, 0, 79, 0
2, 248876, Note_on_c, 0, 78, 64
2, 248913, Note_on_c, 0, 79, 62
2, 248917, Note_on_c, 0, 78, 0
2, 248946, Note_on_c, 0, 79, 0
2, 248979, Note_on_c, 0, 79, 62
2, 249026, Note_on_c, 0, 79, 0
2, 249045, Note_on_c, 0, 55, 61
2, 249045, Note_on_c, 0, 57, 61
2, 249045, Note_on_c, 0, 60, 60
2, 249047, Note_on_c, 0, 76, 66
2, 249054, Note_on_c, 0, 67, 66
2, 249073, Note_on_c, 0, 76, 0
2, 249075, Note_on_c, 0, 57, 0
2, 249075, Note_on_c, 0, 67, 0
2, 249077, Note_on_c, 0, 55, 0
2, 249079, Note_on_c, 0, 60, 0
2, 249120, Note_on_c, 0, 62, 61
2, 249120, Note_on_c, 0, 67, 65
2, 249122, Note_on_c, 0, 55, 61
2, 249122, Note_on_c, 0, 74, 67
2, 249131, Note_on_c, 0, 59, 61
2, 249141, Note_on_c, 0, 74, 0
2, 249152, Note_on_c, 0, 67, 0
2, 249152, Note_on_c, 0, 62, 0
2, 249154, Note_on_c, 0, 55, 0
2, 249154, Note_on_c, 0, 59, 0
2, 249190, Note_on_c, 0, 60, 60
2, 249194, Note_on_c, 0, 64, 65
2, 249194, Note_on_c, 0, 67, 66
2, 249194, Note_on_c, 0, 72, 66
2, 249203, Note_on_c, 0, 55, 61
2, 249244, Note_on_c, 0, 72, 0
2, 249251, Note_on_c, 0, 67, 0
2, 249255, Note_on_c, 0, 55, 0
2, 249267, Note_on_c, 0, 76, 62
2, 249269, Note_on_c, 0, 64, 0
2, 249269, Note_on_c, 0, 60, 0
2, 249307, Note_on_c, 0, 76, 0
2, 249346, Note_on_c, 0, 62, 61
2, 249346, Note_on_c, 0, 67, 68
2, 249346, Note_on_c, 0, 74, 70
2, 249350, Note_on_c, 0, 55, 61
2, 249353, Note_on_c, 0, 59, 61
2, 249357, Note_on_c, 0, 43, 61
2, 249359, Note_on_c, 0, 31, 61
2, 249375, Note_on_c, 0, 74, 0
2, 249385, Note_on_c, 0, 67, 0
2, 249387, Note_on_c, 0, 43, 0
2, 249391, Note_on_c, 0, 31, 0
2, 249429, Note_on_c, 0, 74, 65
2, 249442, Note_on_c, 0, 62, 0
2, 249442, Note_on_c, 0, 55, 0
2, 249448, Note_on_c, 0, 59, 0
2, 249464, Note_on_c, 0, 74, 0
2, 249468, Note_on_c, 0, 73, 62
2, 249494, Note_on_c, 0, 74, 65
2, 249502, Note_on_c, 0, 73, 0
2, 249526, Note_on_c, 0, 74, 0
2, 249568, Note_on_c, 0, 74, 61
2, 249619, Note_on_c, 0, 74, 0
2, 249639, Note_on_c, 0, 55, 61
2, 249640, Note_on_c, 0, 52, 61
2, 249640, Note_on_c, 0, 61, 61
2, 249640, Note_on_c, 0, 71, 66
2, 249642, Note_on_c, 0, 50, 60
2, 249666, Note_on_c, 0, 71, 0
2, 249673, Note_on_c, 0, 52, 0
2, 249673, Note_on_c, 0, 50, 0
2, 249677, Note_on_c, 0, 55, 0
2, 249684, Note_on_c, 0, 61, 0
2, 249710, Note_on_c, 0, 50, 61
2, 249710, Note_on_c, 0, 54, 61
2, 249710, Note_on_c, 0, 57, 60
2, 249710, Note_on_c, 0, 69, 67
2, 249716, Note_on_c, 0, 60, 61
2, 249740, Note_on_c, 0, 60, 0
2, 249740, Note_on_c, 0, 50, 0
2, 249747, Note_on_c, 0, 69, 0
2, 249749, Note_on_c, 0, 57, 0
2, 249749, Note_on_c, 0, 54, 0
2, 249785, Note_on_c, 0, 59, 60
2, 249785, Note_on_c, 0, 67, 65
2, 249794, Note_on_c, 0, 50, 61
2, 249794, Note_on_c, 0, 55, 61
2, 249811, Note_on_c, 0, 59, 0
2, 249820, Note_on_c, 0, 50, 0
2, 249822, Note_on_c, 0, 67, 0
2, 249829, Note_on_c, 0, 55, 0
2, 249872, Note_on_c, 0, 71, 62
2, 249876, Note_on_c, 0, 31, 61
2, 249876, Note_on_c, 0, 43, 61
2, 249900, Note_on_c, 0, 74, 62
2, 249910, Note_on_c, 0, 43, 0
2, 249910, Note_on_c, 0, 31, 0
2, 249912, Note_on_c, 0, 71, 0
2, 249931, Note_on_c, 0, 74, 0
2, 249938, Note_on_c, 0, 60, 64
2, 249938, Note_on_c, 0, 66, 64
2, 249938, Note_on_c, 0, 69, 66
2, 249988, Note_on_c, 0, 69, 0
2, 249992, Note_on_c, 0, 66, 0
2, 249996, Note_on_c, 0, 60, 0
2, 250028, Note_on_c, 0, 69, 62
2, 250030, Note_on_c, 0, 31, 61
2, 250030, Note_on_c, 0, 43, 61
2, 250046, Note_on_c, 0, 74, 62
2, 250052, Note_on_c, 0, 69, 0
2, 250061, Note_on_c, 0, 43, 0
2, 250063, Note_on_c, 0, 31, 0
2, 250072, Note_on_c, 0, 59, 61
2, 250072, Note_on_c, 0, 64, 64
2, 250072, Note_on_c, 0, 67, 65
2, 250082, Note_on_c, 0, 74, 0
2, 250132, Note_on_c, 0, 67, 0
2, 250143, Note_on_c, 0, 59, 0
2, 250146, Note_on_c, 0, 64, 0
2, 250157, Note_on_c, 0, 67, 65
2, 250161, Note_on_c, 0, 31, 65
2, 250161, Note_on_c, 0, 43, 65
2, 250189, Note_on_c, 0, 43, 0
2, 250192, Note_on_c, 0, 31, 0
2, 250192, Note_on_c, 0, 74, 66
2, 250199, Note_on_c, 0, 67, 0
2, 250212, Note_on_c, 0, 62, 65
2, 250214, Note_on_c, 0, 57, 65
2, 250214, Note_on_c, 0, 66, 69
2, 250229, Note_on_c, 0, 74, 0
2, 250265, Note_on_c, 0, 66, 0
2, 250274, Note_on_c, 0, 57, 0
2, 250274, Note_on_c, 0, 62, 0
2, 250300, Note_on_c, 0, 66, 65
2, 250302, Note_on_c, 0, 31, 65
2, 250302, Note_on_c, 0, 43, 65
2, 250328, Note_on_c, 0, 74, 66
2, 250330, Note_on_c, 0, 66, 0
2, 250336, Note_on_c, 0, 31, 0
2, 250336, Note_on_c, 0, 43, 0
2, 250360, Note_on_c, 0, 74, 0
2, 250362, Note_on_c, 0, 60, 68
2, 250362, Note_on_c, 0, 66, 69
2, 250364, Note_on_c, 0, 69, 71
2, 250414, Note_on_c, 0, 69, 0
2, 250423, Note_on_c, 0, 60, 0
2, 250432, Note_on_c, 0, 66, 0
2, 250453, Note_on_c, 0, 43, 65
2, 250453, Note_on_c, 0, 69, 66
2, 250456, Note_on_c, 0, 31, 65
2, 250480, Note_on_c, 0, 74, 66
2, 250487, Note_on_c, 0, 43, 0
2, 250489, Note_on_c, 0, 31, 0
2, 250496, Note_on_c, 0, 69, 0
2, 250508, Note_on_c, 0, 74, 0
2, 250512, Note_on_c, 0, 62, 65
2, 250512, Note_on_c, 0, 71, 70
2, 250516, Note_on_c, 0, 67, 70
2, 250566, Note_on_c, 0, 67, 0
2, 250573, Note_on_c, 0, 71, 0
2, 250581, Note_on_c, 0, 62, 0
2, 250599, Note_on_c, 0, 71, 66
2, 250602, Note_on_c, 0, 43, 65
2, 250606, Note_on_c, 0, 31, 65
2, 250627, Note_on_c, 0, 31, 0
2, 250627, Note_on_c, 0, 43, 0
2, 250627, Note_on_c, 0, 74, 66
2, 250645, Note_on_c, 0, 71, 0
2, 250657, Note_on_c, 0, 60, 68
2, 250657, Note_on_c, 0, 66, 70
2, 250659, Note_on_c, 0, 69, 72
2, 250663, Note_on_c, 0, 74, 0
2, 250704, Note_on_c, 0, 69, 0
2, 250723, Note_on_c, 0, 66, 0
2, 250723, Note_on_c, 0, 31, 69
2, 250723, Note_on_c, 0, 43, 70
2, 250727, Note_on_c, 0, 60, 0
2, 250727, Note_on_c, 0, 69, 73
2, 250751, Note_on_c, 0, 43, 0
2, 250751, Note_on_c, 0, 31, 0
2, 250764, Note_on_c, 0, 74, 74
2, 250772, Note_on_c, 0, 69, 0
2, 250788, Note_on_c, 0, 62, 73
2, 250788, Note_on_c, 0, 67, 78
2, 250790, Note_on_c, 0, 74, 0
2, 250790, Note_on_c, 0, 31, 76
2, 250792, Note_on_c, 0, 43, 77
2, 250792, Note_on_c, 0, 50, 78
2, 250798, Note_on_c, 0, 59, 79
2, 250816, Note_on_c, 0, 50, 0
2, 250817, Note_on_c, 0, 67, 0
2, 250821, Note_on_c, 0, 43, 0
2, 250823, Note_on_c, 0, 62, 0
2, 250825, Note_on_c, 0, 59, 0
2, 250825, Note_on_c, 0, 31, 0
2, 250868, Note_on_c, 0, 60, 75
2, 250870, Note_on_c, 0, 57, 80
2, 250870, Note_on_c, 0, 64, 74
2, 250872, Note_on_c, 0, 36, 81
2, 250872, Note_on_c, 0, 48, 82
2, 250898, Note_on_c, 0, 57, 0
2, 250902, Note_on_c, 0, 64, 0
2, 250906, Note_on_c, 0, 60, 0
2, 250906, Note_on_c, 0, 36, 0
2, 250906, Note_on_c, 0, 48, 0
2, 250940, Note_on_c, 0, 43, 78
2, 250940, Note_on_c, 0, 50, 82
2, 250940, Note_on_c, 0, 62, 83
2, 250940, Note_on_c, 0, 67, 73
2, 250944, Note_on_c, 0, 31, 84
2, 250944, Note_on_c, 0, 59, 85
2, 250968, Note_on_c, 0, 50, 0
2, 250970, Note_on_c, 0, 43, 0
2, 250974, Note_on_c, 0, 59, 0
2, 250976, Note_on_c, 0, 31, 0
2, 250978, Note_on_c, 0, 62, 0
2, 250980, Note_on_c, 0, 67, 0
2, 251006, Note_on_c, 0, 86, 76
2, 251008, Note_on_c, 0, 62, 76
2, 251025, Note_on_c, 0, 88, 76
2, 251037, Note_on_c, 0, 64, 73
2, 251041, Note_on_c, 0, 90, 76
2, 251045, Note_on_c, 0, 86, 0
2, 251056, Note_on_c, 0, 62, 0
2, 251064, Note_on_c, 0, 90, 0
2, 251064, Note_on_c, 0, 88, 0
2, 251064, Note_on_c, 0, 91, 80
2, 251066, Note_on_c, 0, 83, 81
2, 251068, Note_on_c, 0, 67, 79
2, 251070, Note_on_c, 0, 43, 72
2, 251070, Note_on_c, 0, 50, 71
2, 251070, Note_on_c, 0, 55, 70
2, 251070, Note_on_c, 0, 59, 71
2, 251094, Note_on_c, 0, 64, 0
2, 251098, Note_on_c, 0, 83, 0
2, 251102, Note_on_c, 0, 55, 0
2, 251102, Note_on_c, 0, 43, 0
2, 251102, Note_on_c, 0, 91, 0
2, 251102, Note_on_c, 0, 50, 0
2, 251104, Note_on_c, 0, 67, 0
2, 251110, Note_on_c, 0, 59, 0
2, 251152, Note_on_c, 0, 91, 73
2, 251153, Note_on_c, 0, 67, 68
2, 251153, Note_on_c, 0, 83, 70
2, 251157, Note_on_c, 0, 59, 65
2, 251185, Note_on_c, 0, 83, 0
2, 251185, Note_on_c, 0, 90, 68
2, 251187, Note_on_c, 0, 66, 64
2, 251189, Note_on_c, 0, 59, 0
2, 251200, Note_on_c, 0, 91, 0
2, 251200, Note_on_c, 0, 67, 0
2, 251215, Note_on_c, 0, 91, 68
2, 251217, Note_on_c, 0, 67, 66
2, 251225, Note_on_c, 0, 90, 0
2, 251232, Note_on_c, 0, 66, 0
2, 251251, Note_on_c, 0, 67, 0
2, 251255, Note_on_c, 0, 91, 0
2, 251285, Note_on_c, 0, 91, 67
2, 251292, Note_on_c, 0, 67, 65
2, 251292, Note_on_c, 0, 83, 68
2, 251300, Note_on_c, 0, 59, 65
2, 251318, Note_on_c, 0, 83, 0
2, 251321, Note_on_c, 0, 91, 0
2, 251323, Note_on_c, 0, 67, 0
2, 251323, Note_on_c, 0, 59, 0
2, 251373, Note_on_c, 0, 88, 68
2, 251375, Note_on_c, 0, 79, 67
2, 251377, Note_on_c, 0, 55, 65
2, 251377, Note_on_c, 0, 64, 66
2, 251377, Note_on_c, 0, 67, 65
2, 251405, Note_on_c, 0, 55, 0
2, 251407, Note_on_c, 0, 88, 0
2, 251409, Note_on_c, 0, 79, 0
2, 251409, Note_on_c, 0, 64, 0
2, 251409, Note_on_c, 0, 67, 0
2, 251443, Note_on_c, 0, 86, 71
2, 251447, Note_on_c, 0, 55, 65
2, 251447, Note_on_c, 0, 62, 65
2, 251447, Note_on_c, 0, 67, 71
2, 251447, Note_on_c, 0, 79, 73
2, 251471, Note_on_c, 0, 67, 0
2, 251473, Note_on_c, 0, 62, 0
2, 251473, Note_on_c, 0, 55, 0
2, 251475, Note_on_c, 0, 86, 0
2, 251482, Note_on_c, 0, 79, 0
2, 251529, Note_on_c, 0, 79, 70
2, 251529, Note_on_c, 0, 84, 76
2, 251533, Note_on_c, 0, 55, 65
2, 251533, Note_on_c, 0, 60, 65
2, 251533, Note_on_c, 0, 67, 74
2, 251560, Note_on_c, 0, 55, 0
2, 251606, Note_on_c, 0, 88, 71
2, 251608, Note_on_c, 0, 64, 66
2, 251618, Note_on_c, 0, 84, 0
2, 251620, Note_on_c, 0, 79, 0
2, 251629, Note_on_c, 0, 60, 0
2, 251629, Note_on_c, 0, 67, 0
2, 251658, Note_on_c, 0, 88, 0
2, 251665, Note_on_c, 0, 64, 0
2, 251689, Note_on_c, 0, 50, 65
2, 251689, Note_on_c, 0, 62, 65
2, 251689, Note_on_c, 0, 67, 69
2, 251689, Note_on_c, 0, 79, 71
2, 251689, Note_on_c, 0, 86, 74
2, 251693, Note_on_c, 0, 43, 64
2, 251710, Note_on_c, 0, 79, 0
2, 251710, Note_on_c, 0, 67, 0
2, 251717, Note_on_c, 0, 50, 0
2, 251719, Note_on_c, 0, 43, 0
2, 251721, Note_on_c, 0, 86, 0
2, 251721, Note_on_c, 0, 62, 0
2, 251783, Note_on_c, 0, 62, 65
2, 251783, Note_on_c, 0, 67, 65
2, 251783, Note_on_c, 0, 79, 65
2, 251783, Note_on_c, 0, 86, 68
2, 251809, Note_on_c, 0, 85, 67
2, 251813, Note_on_c, 0, 61, 65
2, 251815, Note_on_c, 0, 86, 0
2, 251815, Note_on_c, 0, 62, 0
2, 251839, Note_on_c, 0, 79, 0
2, 251841, Note_on_c, 0, 62, 65
2, 251841, Note_on_c, 0, 86, 72
2, 251848, Note_on_c, 0, 61, 0
2, 251849, Note_on_c, 0, 85, 0
2, 251865, Note_on_c, 0, 67, 0
2, 251875, Note_on_c, 0, 62, 0
2, 251879, Note_on_c, 0, 86, 0
2, 251912, Note_on_c, 0, 79, 66
2, 251914, Note_on_c, 0, 86, 68
2, 251918, Note_on_c, 0, 62, 65
2, 251918, Note_on_c, 0, 67, 65
2, 251947, Note_on_c, 0, 62, 0
2, 251947, Note_on_c, 0, 79, 0
2, 251947, Note_on_c, 0, 86, 0
2, 251951, Note_on_c, 0, 67, 0
2, 252000, Note_on_c, 0, 71, 67
2, 252000, Note_on_c, 0, 74, 64
2, 252000, Note_on_c, 0, 83, 65
2, 252002, Note_on_c, 0, 61, 65
2, 252004, Note_on_c, 0, 50, 65
2, 252004, Note_on_c, 0, 52, 65
2, 252023, Note_on_c, 0, 74, 0
2, 252023, Note_on_c, 0, 71, 0
2, 252030, Note_on_c, 0, 50, 0
2, 252030, Note_on_c, 0, 52, 0
2, 252034, Note_on_c, 0, 83, 0
2, 252036, Note_on_c, 0, 61, 0
2, 252068, Note_on_c, 0, 81, 70
2, 252072, Note_on_c, 0, 50, 65
2, 252072, Note_on_c, 0, 54, 65
2, 252072, Note_on_c, 0, 60, 64
2, 252072, Note_on_c, 0, 69, 71
2, 252072, Note_on_c, 0, 74, 72
2, 252096, Note_on_c, 0, 60, 0
2, 252096, Note_on_c, 0, 54, 0
2, 252098, Note_on_c, 0, 50, 0
2, 252100, Note_on_c, 0, 74, 0
2, 252100, Note_on_c, 0, 69, 0
2, 252107, Note_on_c, 0, 81, 0
2, 252145, Note_on_c, 0, 79, 69
2, 252147, Note_on_c, 0, 59, 65
2, 252147, Note_on_c, 0, 67, 72
2, 252147, Note_on_c, 0, 74, 74
2, 252149, Note_on_c, 0, 50, 65
2, 252149, Note_on_c, 0, 55, 65
2, 252168, Note_on_c, 0, 74, 0
2, 252172, Note_on_c, 0, 59, 0
2, 252172, Note_on_c, 0, 55, 0
2, 252176, Note_on_c, 0, 50, 0
2, 252178, Note_on_c, 0, 79, 0
2, 252184, Note_on_c, 0, 67, 0
2, 252236, Note_on_c, 0, 79, 65
2, 252236, Note_on_c, 0, 83, 68
2, 252240, Note_on_c, 0, 31, 65
2, 252240, Note_on_c, 0, 43, 65
2, 252264, Note_on_c, 0, 86, 68
2, 252266, Note_on_c, 0, 43, 0
2, 252266, Note_on_c, 0, 31, 0
2, 252270, Note_on_c, 0, 79, 0
2, 252270, Note_on_c, 0, 83, 0
2, 252289, Note_on_c, 0, 78, 68
2, 252293, Note_on_c, 0, 60, 68
2, 252293, Note_on_c, 0, 72, 70
2, 252293, Note_on_c, 0, 81, 73
2, 252305, Note_on_c, 0, 86, 0
2, 252333, Note_on_c, 0, 78, 0
2, 252333, Note_on_c, 0, 81, 0
2, 252340, Note_on_c, 0, 60, 0
2, 252342, Note_on_c, 0, 72, 0
2, 252342, Control_c, 0, 64, 127
2, 252370, Control_c, 0, 64, 0
2, 252370, Note_on_c, 0, 78, 66
2, 252370, Note_on_c, 0, 81, 67
2, 252374, Note_on_c, 0, 43, 65
2, 252376, Note_on_c, 0, 31, 65
2, 252400, Note_on_c, 0, 43, 0
2, 252400, Note_on_c, 0, 86, 68
2, 252406, Note_on_c, 0, 31, 0
2, 252408, Note_on_c, 0, 78, 0
2, 252410, Note_on_c, 0, 81, 0
2, 252438, Note_on_c, 0, 86, 0
2, 252440, Note_on_c, 0, 71, 70
2, 252440, Note_on_c, 0, 76, 71
2, 252440, Note_on_c, 0, 79, 72
2, 252442, Note_on_c, 0, 59, 69
2, 252478, Note_on_c, 0, 76, 0
2, 252480, Note_on_c, 0, 71, 0
2, 252484, Note_on_c, 0, 79, 0
2, 252496, Note_on_c, 0, 59, 0
2, 252500, Control_c, 0, 64, 127
2, 252518, Note_on_c, 0, 76, 66
2, 252518, Note_on_c, 0, 79, 66
2, 252521, Note_on_c, 0, 31, 65
2, 252521, Note_on_c, 0, 43, 65
2, 252530, Control_c, 0, 64, 0
2, 252543, Note_on_c, 0, 43, 0
2, 252544, Note_on_c, 0, 31, 0
2, 252544, Note_on_c, 0, 76, 0
2, 252548, Note_on_c, 0, 79, 0
2, 252550, Note_on_c, 0, 86, 68
2, 252587, Note_on_c, 0, 57, 67
2, 252587, Note_on_c, 0, 78, 70
2, 252589, Note_on_c, 0, 69, 71
2, 252592, Note_on_c, 0, 74, 72
2, 252603, Note_on_c, 0, 86, 0
2, 252629, Note_on_c, 0, 57, 0
2, 252631, Note_on_c, 0, 69, 0
2, 252631, Note_on_c, 0, 78, 0
2, 252631, Note_on_c, 0, 74, 0
2, 252669, Note_on_c, 0, 74, 65
2, 252669, Note_on_c, 0, 78, 66
2, 252676, Note_on_c, 0, 31, 65
2, 252676, Note_on_c, 0, 43, 65
2, 252697, Note_on_c, 0, 43, 0
2, 252699, Note_on_c, 0, 31, 0
2, 252706, Note_on_c, 0, 74, 0
2, 252710, Note_on_c, 0, 78, 0
2, 252716, Note_on_c, 0, 86, 71
2, 252732, Note_on_c, 0, 78, 70
2, 252732, Note_on_c, 0, 81, 74
2, 252734, Note_on_c, 0, 72, 73
2, 252740, Note_on_c, 0, 60, 69
2, 252742, Control_c, 0, 64, 127
2, 252751, Note_on_c, 0, 86, 0
2, 252768, Note_on_c, 0, 78, 0
2, 252770, Note_on_c, 0, 72, 0
2, 252770, Note_on_c, 0, 81, 0
2, 252772, Note_on_c, 0, 60, 0
2, 252812, Control_c, 0, 64, 0
2, 252816, Note_on_c, 0, 78, 66
2, 252816, Note_on_c, 0, 81, 68
2, 252820, Note_on_c, 0, 31, 66
2, 252820, Note_on_c, 0, 43, 65
2, 252846, Note_on_c, 0, 31, 0
2, 252848, Note_on_c, 0, 43, 0
2, 252848, Note_on_c, 0, 86, 68
2, 252855, Note_on_c, 0, 81, 0
2, 252855, Note_on_c, 0, 78, 0
2, 252891, Note_on_c, 0, 86, 0
2, 252891, Note_on_c, 0, 79, 68
2, 252891, Note_on_c, 0, 83, 74
2, 252895, Note_on_c, 0, 62, 72
2, 252895, Note_on_c, 0, 74, 74
2, 252905, Control_c, 0, 64, 127
2, 252927, Note_on_c, 0, 74, 0
2, 252927, Note_on_c, 0, 79, 0
2, 252933, Note_on_c, 0, 62, 0
2, 252933, Note_on_c, 0, 83, 0
2, 252946, Control_c, 0, 64, 0
2, 252978, Note_on_c, 0, 83, 70
2, 252980, Note_on_c, 0, 79, 67
2, 252984, Note_on_c, 0, 31, 67
2, 252984, Note_on_c, 0, 43, 66
2, 253003, Note_on_c, 0, 86, 68
2, 253007, Note_on_c, 0, 43, 0
2, 253009, Note_on_c, 0, 31, 0
2, 253018, Note_on_c, 0, 79, 0
2, 253024, Note_on_c, 0, 83, 0
2, 253042, Note_on_c, 0, 79, 68
2, 253044, Note_on_c, 0, 71, 70
2, 253048, Note_on_c, 0, 76, 71
2, 253051, Note_on_c, 0, 59, 70
2, 253067, Note_on_c, 0, 86, 0
2, 253067, Control_c, 0, 64, 127
2, 253075, Note_on_c, 0, 76, 0
2, 253075, Note_on_c, 0, 79, 0
2, 253082, Note_on_c, 0, 71, 0
2, 253082, Note_on_c, 0, 59, 0
2, 253110, Control_c, 0, 64, 0
2, 253127, Note_on_c, 0, 76, 68
2, 253127, Note_on_c, 0, 79, 69
2, 253131, Note_on_c, 0, 31, 70
2, 253131, Note_on_c, 0, 43, 71
2, 253155, Note_on_c, 0, 86, 72
2, 253159, Note_on_c, 0, 43, 0
2, 253159, Note_on_c, 0, 31, 0
2, 253161, Note_on_c, 0, 79, 0
2, 253168, Note_on_c, 0, 76, 0
2, 253168, Control_c, 0, 64, 127
2, 253195, Control_c, 0, 64, 0
2, 253195, Note_on_c, 0, 78, 77
2, 253195, Note_on_c, 0, 81, 80
2, 253199, Note_on_c, 0, 60, 77
2, 253199, Note_on_c, 0, 72, 79
2, 253208, Note_on_c, 0, 86, 0
2, 253225, Note_on_c, 0, 60, 0
2, 253229, Note_on_c, 0, 78, 0
2, 253229, Note_on_c, 0, 72, 0
2, 253231, Note_on_c, 0, 81, 0
2, 253280, Note_on_c, 0, 79, 75
2, 253282, Note_on_c, 0, 71, 78
2, 253282, Note_on_c, 0, 76, 79
2, 253284, Note_on_c, 0, 43, 73
2, 253284, Note_on_c, 0, 59, 73
2, 253286, Note_on_c, 0, 31, 72
2, 253305, Note_on_c, 0, 76, 0
2, 253309, Note_on_c, 0, 59, 0
2, 253311, Note_on_c, 0, 43, 0
2, 253311, Note_on_c, 0, 71, 0
2, 253311, Note_on_c, 0, 31, 0
2, 253312, Note_on_c, 0, 79, 0
2, 253356, Note_on_c, 0, 78, 77
2, 253356, Note_on_c, 0, 81, 81
2, 253358, Note_on_c, 0, 60, 73
2, 253358, Note_on_c, 0, 72, 80
2, 253360, Note_on_c, 0, 31, 73
2, 253360, Note_on_c, 0, 43, 73
2, 253368, Control_c, 0, 64, 127
2, 253384, Note_on_c, 0, 60, 0
2, 253387, Note_on_c, 0, 78, 0
2, 253387, Note_on_c, 0, 72, 0
2, 253387, Note_on_c, 0, 31, 0
2, 253387, Note_on_c, 0, 43, 0
2, 253396, Note_on_c, 0, 81, 0
2, 253408, Control_c, 0, 64, 0
2, 253421, Note_on_c, 0, 86, 76
2, 253425, Note_on_c, 0, 62, 73
2, 253442, Note_on_c, 0, 88, 76
2, 253444, Note_on_c, 0, 64, 73
2, 253463, Note_on_c, 0, 86, 0
2, 253463, Note_on_c, 0, 90, 76
2, 253465, Note_on_c, 0, 62, 0
2, 253465, Note_on_c, 0, 66, 74
2, 253486, Note_on_c, 0, 88, 0
2, 253488, Note_on_c, 0, 91, 81
2, 253492, Note_on_c, 0, 64, 0
2, 253492, Control_c, 0, 64, 127
2, 253492, Note_on_c, 0, 83, 83
2, 253496, Note_on_c, 0, 50, 73
2, 253496, Note_on_c, 0, 55, 72
2, 253496, Note_on_c, 0, 59, 71
2, 253496, Note_on_c, 0, 67, 81
2, 253498, Note_on_c, 0, 43, 72
2, 253506, Note_on_c, 0, 66, 0
2, 253508, Note_on_c, 0, 90, 0
2, 253521, Note_on_c, 0, 83, 0
2, 253521, Note_on_c, 0, 91, 0
2, 253523, Note_on_c, 0, 67, 0
2, 253525, Note_on_c, 0, 50, 0
2, 253525, Note_on_c, 0, 59, 0
2, 253525, Note_on_c, 0, 43, 0
2, 253525, Note_on_c, 0, 55, 0
2, 253565, Control_c, 0, 64, 0
2, 253577, Note_on_c, 0, 91, 72
2, 253581, Note_on_c, 0, 67, 68
2, 253585, Note_on_c, 0, 83, 70
2, 253589, Note_on_c, 0, 59, 63
2, 253606, Note_on_c, 0, 90, 69
2, 253608, Note_on_c, 0, 83, 0
2, 253608, Note_on_c, 0, 91, 0
2, 253608, Note_on_c, 0, 66, 65
2, 253610, Note_on_c, 0, 67, 0
2, 253631, Note_on_c, 0, 91, 67
2, 253635, Note_on_c, 0, 67, 65
2, 253642, Note_on_c, 0, 90, 0
2, 253646, Note_on_c, 0, 66, 0
2, 253663, Note_on_c, 0, 59, 0
2, 253670, Note_on_c, 0, 67, 0
2, 253673, Note_on_c, 0, 91, 0
2, 253708, Note_on_c, 0, 83, 64
2, 253708, Note_on_c, 0, 91, 64
2, 253710, Note_on_c, 0, 59, 61
2, 253710, Note_on_c, 0, 67, 61
2, 253736, Note_on_c, 0, 91, 0
2, 253738, Note_on_c, 0, 59, 0
2, 253742, Note_on_c, 0, 83, 0
2, 253742, Note_on_c, 0, 67, 0
2, 253789, Note_on_c, 0, 79, 64
2, 253789, Note_on_c, 0, 88, 68
2, 253791, Note_on_c, 0, 55, 61
2, 253791, Note_on_c, 0, 64, 66
2, 253791, Note_on_c, 0, 67, 65
2, 253792, Note_on_c, 0, 57, 61
2, 253814, Note_on_c, 0, 57, 0
2, 253820, Note_on_c, 0, 88, 0
2, 253820, Note_on_c, 0, 55, 0
2, 253820, Note_on_c, 0, 67, 0
2, 253822, Note_on_c, 0, 79, 0
2, 253829, Note_on_c, 0, 64, 0
2, 253865, Note_on_c, 0, 86, 66
2, 253867, Note_on_c, 0, 55, 61
2, 253867, Note_on_c, 0, 62, 61
2, 253867, Note_on_c, 0, 67, 65
2, 253867, Note_on_c, 0, 79, 67
2, 253869, Note_on_c, 0, 59, 60
2, 253893, Note_on_c, 0, 62, 0
2, 253895, Note_on_c, 0, 55, 0
2, 253895, Note_on_c, 0, 86, 0
2, 253895, Note_on_c, 0, 59, 0
2, 253897, Note_on_c, 0, 67, 0
2, 253897, Note_on_c, 0, 79, 0
2, 253940, Note_on_c, 0, 84, 66
2, 253942, Note_on_c, 0, 67, 67
2, 253942, Note_on_c, 0, 79, 69
2, 253944, Note_on_c, 0, 55, 67
2, 253944, Note_on_c, 0, 60, 68
2, 253974, Note_on_c, 0, 60, 0
2, 253974, Note_on_c, 0, 79, 0
2, 253974, Note_on_c, 0, 67, 0
2, 253976, Note_on_c, 0, 55, 0
2, 253978, Note_on_c, 0, 84, 0
2, 254016, Note_on_c, 0, 64, 61
2, 254016, Note_on_c, 0, 88, 64
2, 254025, Control_c, 0, 64, 127
2, 254049, Note_on_c, 0, 88, 0
2, 254059, Note_on_c, 0, 64, 0
2, 254063, Control_c, 0, 64, 0
2, 254093, Note_on_c, 0, 86, 66
2, 254095, Note_on_c, 0, 62, 61
2, 254095, Note_on_c, 0, 67, 65
2, 254095, Note_on_c, 0, 79, 67
2, 254099, Note_on_c, 0, 31, 61
2, 254099, Note_on_c, 0, 43, 61
2, 254120, Note_on_c, 0, 79, 0
2, 254122, Note_on_c, 0, 67, 0
2, 254124, Note_on_c, 0, 31, 0
2, 254124, Note_on_c, 0, 43, 0
2, 254126, Note_on_c, 0, 62, 0
2, 254147, Note_on_c, 0, 86, 0
2, 254157, Control_c, 0, 64, 127
2, 254187, Note_on_c, 0, 62, 61
2, 254187, Note_on_c, 0, 67, 61
2, 254187, Note_on_c, 0, 79, 61
2, 254187, Note_on_c, 0, 86, 64
2, 254215, Note_on_c, 0, 86, 0
2, 254215, Note_on_c, 0, 79, 0
2, 254217, Note_on_c, 0, 85, 63
2, 254219, Note_on_c, 0, 61, 61
2, 254225, Note_on_c, 0, 62, 0
2, 254245, Control_c, 0, 64, 0
2, 254247, Note_on_c, 0, 86, 65
2, 254248, Note_on_c, 0, 62, 61
2, 254261, Note_on_c, 0, 61, 0
2, 254261, Note_on_c, 0, 85, 0
2, 254280, Note_on_c, 0, 67, 0
2, 254296, Note_on_c, 0, 86, 0
2, 254306, Note_on_c, 0, 62, 0
2, 254330, Note_on_c, 0, 62, 61
2, 254332, Note_on_c, 0, 67, 61
2, 254332, Note_on_c, 0, 79, 62
2, 254332, Note_on_c, 0, 86, 63
2, 254360, Note_on_c, 0, 67, 0
2, 254362, Note_on_c, 0, 62, 0
2, 254362, Note_on_c, 0, 79, 0
2, 254362, Note_on_c, 0, 86, 0
2, 254405, Note_on_c, 0, 71, 62
2, 254405, Note_on_c, 0, 83, 66
2, 254409, Note_on_c, 0, 61, 65
2, 254411, Note_on_c, 0, 50, 65
2, 254411, Note_on_c, 0, 52, 65
2, 254415, Note_on_c, 0, 74, 65
2, 254430, Note_on_c, 0, 83, 0
2, 254434, Note_on_c, 0, 52, 0
2, 254434, Note_on_c, 0, 50, 0
2, 254436, Note_on_c, 0, 71, 0
2, 254436, Note_on_c, 0, 74, 0
2, 254440, Note_on_c, 0, 61, 0
2, 254480, Note_on_c, 0, 60, 65
2, 254480, Note_on_c, 0, 74, 66
2, 254480, Note_on_c, 0, 81, 67
2, 254482, Note_on_c, 0, 69, 66
2, 254484, Note_on_c, 0, 54, 65
2, 254486, Note_on_c, 0, 50, 65
2, 254507, Note_on_c, 0, 54, 0
2, 254507, Note_on_c, 0, 69, 0
2, 254507, Note_on_c, 0, 74, 0
2, 254509, Note_on_c, 0, 50, 0
2, 254511, Note_on_c, 0, 81, 0
2, 254514, Note_on_c, 0, 60, 0
2, 254555, Note_on_c, 0, 50, 67
2, 254555, Note_on_c, 0, 67, 69
2, 254555, Note_on_c, 0, 74, 71
2, 254555, Note_on_c, 0, 79, 72
2, 254559, Note_on_c, 0, 59, 70
2, 254560, Note_on_c, 0, 55, 71
2, 254578, Note_on_c, 0, 74, 0
2, 254580, Note_on_c, 0, 59, 0
2, 254580, Note_on_c, 0, 79, 0
2, 254580, Note_on_c, 0, 55, 0
2, 254586, Note_on_c, 0, 50, 0
2, 254588, Note_on_c, 0, 67, 0
2, 254620, Control_c, 0, 64, 127
2, 254637, Note_on_c, 0, 79, 66
2, 254637, Note_on_c, 0, 83, 68
2, 254641, Note_on_c, 0, 43, 65
2, 254643, Note_on_c, 0, 31, 65
2, 254662, Note_on_c, 0, 86, 68
2, 254666, Note_on_c, 0, 31, 0
2, 254666, Note_on_c, 0, 43, 0
2, 254668, Note_on_c, 0, 79, 0
2, 254677, Note_on_c, 0, 83, 0
2, 254685, Control_c, 0, 64, 0
2, 254698, Note_on_c, 0, 81, 68
2, 254704, Note_on_c, 0, 78, 67
2, 254708, Note_on_c, 0, 72, 67
2, 254710, Note_on_c, 0, 60, 66
2, 254719, Note_on_c, 0, 86, 0
2, 254738, Note_on_c, 0, 78, 0
2, 254740, Note_on_c, 0, 60, 0
2, 254740, Note_on_c, 0, 72, 0
2, 254747, Note_on_c, 0, 81, 0
2, 254790, Control_c, 0, 64, 127
2, 254792, Note_on_c, 0, 78, 66
2, 254792, Note_on_c, 0, 81, 68
2, 254796, Note_on_c, 0, 31, 65
2, 254796, Note_on_c, 0, 43, 65
2, 254796, Note_on_c, 0, 50, 64
2, 254817, Control_c, 0, 64, 0
2, 254817, Note_on_c, 0, 86, 68
2, 254819, Note_on_c, 0, 50, 0
2, 254819, Note_on_c, 0, 43, 0
2, 254819, Note_on_c, 0, 78, 0
2, 254821, Note_on_c, 0, 31, 0
2, 254824, Note_on_c, 0, 81, 0
2, 254850, Note_on_c, 0, 86, 0
2, 254859, Note_on_c, 0, 71, 67
2, 254859, Note_on_c, 0, 76, 67
2, 254859, Note_on_c, 0, 79, 66
2, 254866, Note_on_c, 0, 59, 66
2, 254892, Note_on_c, 0, 79, 0
2, 254892, Note_on_c, 0, 71, 0
2, 254892, Note_on_c, 0, 76, 0
2, 254902, Note_on_c, 0, 59, 0
2, 254906, Control_c, 0, 64, 127
2, 254932, Control_c, 0, 64, 0
2, 254936, Note_on_c, 0, 50, 65
2, 254936, Note_on_c, 0, 76, 66
2, 254936, Note_on_c, 0, 79, 65
2, 254943, Note_on_c, 0, 31, 65
2, 254943, Note_on_c, 0, 43, 65
2, 254964, Note_on_c, 0, 86, 68
2, 254966, Note_on_c, 0, 43, 0
2, 254966, Note_on_c, 0, 76, 0
2, 254966, Note_on_c, 0, 50, 0
2, 254968, Note_on_c, 0, 31, 0
2, 254969, Note_on_c, 0, 79, 0
2, 255004, Note_on_c, 0, 78, 68
2, 255004, Note_on_c, 0, 81, 72
2, 255006, Note_on_c, 0, 69, 71
2, 255008, Note_on_c, 0, 57, 68
2, 255023, Note_on_c, 0, 86, 0
2, 255042, Note_on_c, 0, 78, 0
2, 255044, Note_on_c, 0, 69, 0
2, 255046, Note_on_c, 0, 57, 0
2, 255050, Note_on_c, 0, 81, 0
2, 255087, Note_on_c, 0, 78, 66
2, 255087, Note_on_c, 0, 81, 68
2, 255090, Note_on_c, 0, 43, 65
2, 255090, Note_on_c, 0, 50, 65
2, 255092, Note_on_c, 0, 31, 64
2, 255118, Note_on_c, 0, 31, 0
2, 255118, Note_on_c, 0, 43, 0
2, 255118, Note_on_c, 0, 50, 0
2, 255122, Note_on_c, 0, 86, 68
2, 255124, Note_on_c, 0, 78, 0
2, 255131, Note_on_c, 0, 81, 0
2, 255146, Note_on_c, 0, 81, 70
2, 255148, Note_on_c, 0, 78, 69
2, 255150, Note_on_c, 0, 72, 70
2, 255154, Note_on_c, 0, 86, 0
2, 255154, Note_on_c, 0, 60, 67
2, 255180, Note_on_c, 0, 81, 0
2, 255180, Note_on_c, 0, 72, 0
2, 255182, Note_on_c, 0, 60, 0
2, 255190, Note_on_c, 0, 78, 0
2, 255222, Note_on_c, 0, 78, 65
2, 255226, Note_on_c, 0, 81, 69
2, 255230, Note_on_c, 0, 43, 67
2, 255230, Note_on_c, 0, 50, 68
2, 255232, Note_on_c, 0, 31, 69
2, 255251, Note_on_c, 0, 86, 70
2, 255253, Note_on_c, 0, 50, 0
2, 255253, Note_on_c, 0, 43, 0
2, 255255, Note_on_c, 0, 31, 0
2, 255263, Note_on_c, 0, 78, 0
2, 255270, Note_on_c, 0, 81, 0
2, 255294, Note_on_c, 0, 79, 72
2, 255294, Note_on_c, 0, 83, 76
2, 255306, Note_on_c, 0, 62, 73
2, 255306, Note_on_c, 0, 74, 72
2, 255317, Note_on_c, 0, 86, 0
2, 255334, Note_on_c, 0, 79, 0
2, 255334, Note_on_c, 0, 74, 0
2, 255343, Note_on_c, 0, 83, 0
2, 255345, Note_on_c, 0, 62, 0
2, 255381, Note_on_c, 0, 79, 70
2, 255381, Note_on_c, 0, 83, 72
2, 255388, Note_on_c, 0, 31, 70
2, 255388, Note_on_c, 0, 43, 69
2, 255388, Note_on_c, 0, 50, 68
2, 255409, Note_on_c, 0, 50, 0
2, 255409, Note_on_c, 0, 43, 0
2, 255411, Note_on_c, 0, 31, 0
2, 255413, Note_on_c, 0, 79, 0
2, 255415, Note_on_c, 0, 86, 72
2, 255425, Note_on_c, 0, 83, 0
2, 255449, Note_on_c, 0, 78, 72
2, 255451, Note_on_c, 0, 60, 69
2, 255451, Note_on_c, 0, 72, 74
2, 255451, Note_on_c, 0, 81, 77
2, 255472, Note_on_c, 0, 86, 0
2, 255481, Note_on_c, 0, 78, 0
2, 255483, Note_on_c, 0, 72, 0
2, 255483, Note_on_c, 0, 60, 0
2, 255490, Note_on_c, 0, 81, 0
2, 255490, Control_c, 0, 64, 127
2, 255518, Control_c, 0, 64, 0
2, 255526, Note_on_c, 0, 78, 70
2, 255526, Note_on_c, 0, 81, 72
2, 255530, Note_on_c, 0, 43, 69
2, 255530, Note_on_c, 0, 50, 69
2, 255532, Note_on_c, 0, 31, 68
2, 255553, Note_on_c, 0, 86, 72
2, 255555, Note_on_c, 0, 50, 0
2, 255555, Note_on_c, 0, 43, 0
2, 255559, Note_on_c, 0, 31, 0
2, 255571, Note_on_c, 0, 78, 0
2, 255571, Note_on_c, 0, 81, 0
2, 255589, Note_on_c, 0, 71, 72
2, 255589, Note_on_c, 0, 79, 74
2, 255591, Note_on_c, 0, 59, 72
2, 255615, Note_on_c, 0, 86, 0
2, 255618, Note_on_c, 0, 71, 0
2, 255618, Note_on_c, 0, 79, 0
2, 255622, Note_on_c, 0, 59, 0
2, 255667, Note_on_c, 0, 64, 82
2, 255667, Note_on_c, 0, 76, 87
2, 255669, Note_on_c, 0, 36, 84
2, 255669, Note_on_c, 0, 48, 85
2, 255669, Note_on_c, 0, 60, 86
2, 255669, Note_on_c, 0, 67, 87
2, 255671, Note_on_c, 0, 69, 89
2, 255695, Note_on_c, 0, 67, 0
2, 255695, Note_on_c, 0, 36, 0
2, 255695, Note_on_c, 0, 48, 0
2, 255704, Note_on_c, 0, 60, 0
2, 255706, Note_on_c, 0, 69, 0
2, 255714, Note_on_c, 0, 76, 0
2, 255714, Note_on_c, 0, 64, 0
2, 255727, Control_c, 0, 64, 127
2, 255748, Note_on_c, 0, 62, 93
2, 255748, Note_on_c, 0, 71, 96
2, 255748, Note_on_c, 0, 79, 97
2, 255752, Control_c, 0, 64, 0
2, 255752, Note_on_c, 0, 59, 97
2, 255752, Note_on_c, 0, 67, 97
2, 255754, Note_on_c, 0, 31, 98
2, 255754, Note_on_c, 0, 43, 98
2, 255754, Note_on_c, 0, 50, 97
2, 255775, Note_on_c, 0, 50, 0
2, 255777, Note_on_c, 0, 43, 0
2, 255777, Note_on_c, 0, 71, 0
2, 255777, Note_on_c, 0, 31, 0
2, 255787, Note_on_c, 0, 59, 0
2, 255787, Note_on_c, 0, 67, 0
2, 255787, Note_on_c, 0, 62, 0
2, 255794, Note_on_c, 0, 79, 0
2, 255818, Control_c, 0, 64, 127
2, 255889, Control_c, 0, 64, 0
2, 255919, Note_on_c, 0, 62, 85
2, 255923, Note_on_c, 0, 50, 83
2, 255923, Note_on_c, 0, 74, 77
2, 255952, Note_on_c, 0, 74, 0
2, 255963, Note_on_c, 0, 50, 0
2, 255963, Note_on_c, 0, 62, 0
2, 256003, Note_on_c, 0, 78, 74
2, 256003, Note_on_c, 0, 86, 73
2, 256007, Note_on_c, 0, 81, 72
2, 256009, Note_on_c, 0, 50, 75
2, 256009, Note_on_c, 0, 62, 74
2, 256030, Note_on_c, 0, 81, 0
2, 256030, Note_on_c, 0, 78, 0
2, 256030, Note_on_c, 0, 86, 0
2, 256041, Note_on_c, 0, 50, 0
2, 256041, Note_on_c, 0, 62, 0
2, 256043, Note_on_c, 0, 49, 70
2, 256043, Note_on_c, 0, 61, 69
2, 256071, Note_on_c, 0, 62, 68
2, 256071, Note_on_c, 0, 74, 66
2, 256074, Note_on_c, 0, 50, 67
2, 256081, Note_on_c, 0, 61, 0
2, 256081, Note_on_c, 0, 49, 0
2, 256090, Note_on_c, 0, 74, 0
2, 256107, Note_on_c, 0, 62, 0
2, 256111, Note_on_c, 0, 50, 0
2, 256141, Note_on_c, 0, 86, 68
2, 256144, Note_on_c, 0, 60, 65
2, 256144, Note_on_c, 0, 78, 66
2, 256144, Note_on_c, 0, 81, 67
2, 256146, Note_on_c, 0, 48, 65
2, 256164, Note_on_c, 0, 81, 0
2, 256164, Note_on_c, 0, 78, 0
2, 256166, Note_on_c, 0, 86, 0
2, 256176, Note_on_c, 0, 60, 0
2, 256178, Note_on_c, 0, 48, 0
2, 256221, Note_on_c, 0, 76, 66
2, 256228, Note_on_c, 0, 64, 65
2, 256230, Note_on_c, 0, 47, 72
2, 256230, Note_on_c, 0, 59, 73
2, 256249, Note_on_c, 0, 76, 0
2, 256273, Note_on_c, 0, 64, 0
2, 256308, Note_on_c, 0, 88, 68
2, 256310, Note_on_c, 0, 79, 66
2, 256310, Note_on_c, 0, 83, 68
2, 256312, Note_on_c, 0, 64, 64
2, 256331, Note_on_c, 0, 88, 0
2, 256335, Note_on_c, 0, 83, 0
2, 256335, Note_on_c, 0, 79, 0
2, 256336, Note_on_c, 0, 47, 0
2, 256340, Note_on_c, 0, 64, 0
2, 256344, Note_on_c, 0, 63, 65
2, 256376, Note_on_c, 0, 63, 0
2, 256378, Note_on_c, 0, 76, 66
2, 256380, Note_on_c, 0, 64, 65
2, 256382, Note_on_c, 0, 40, 65
2, 256382, Note_on_c, 0, 52, 65
2, 256397, Control_c, 0, 64, 127
2, 256404, Note_on_c, 0, 76, 0
2, 256406, Note_on_c, 0, 59, 0
2, 256418, Note_on_c, 0, 52, 0
2, 256437, Note_on_c, 0, 64, 0
2, 256453, Note_on_c, 0, 79, 66
2, 256453, Note_on_c, 0, 83, 68
2, 256453, Note_on_c, 0, 88, 67
2, 256455, Note_on_c, 0, 62, 65
2, 256456, Control_c, 0, 64, 0
2, 256476, Note_on_c, 0, 88, 0
2, 256476, Note_on_c, 0, 83, 0
2, 256480, Note_on_c, 0, 79, 0
2, 256481, Note_on_c, 0, 40, 0
2, 256494, Note_on_c, 0, 62, 0
2, 256539, Note_on_c, 0, 76, 66
2, 256541, Note_on_c, 0, 45, 74
2, 256541, Note_on_c, 0, 57, 75
2, 256541, Note_on_c, 0, 61, 76
2, 256560, Note_on_c, 0, 76, 0
2, 256567, Control_c, 0, 64, 127
2, 256574, Note_on_c, 0, 45, 0
2, 256574, Note_on_c, 0, 57, 0
2, 256623, Note_on_c, 0, 81, 68
2, 256623, Note_on_c, 0, 85, 68
2, 256623, Note_on_c, 0, 88, 67
2, 256626, Note_on_c, 0, 57, 68
2, 256630, Note_on_c, 0, 45, 67
2, 256648, Note_on_c, 0, 88, 0
2, 256648, Note_on_c, 0, 85, 0
2, 256648, Note_on_c, 0, 81, 0
2, 256660, Note_on_c, 0, 61, 0
2, 256660, Note_on_c, 0, 57, 0
2, 256669, Control_c, 0, 64, 0
2, 256669, Note_on_c, 0, 44, 65
2, 256669, Note_on_c, 0, 56, 64
2, 256677, Note_on_c, 0, 45, 0
2, 256696, Note_on_c, 0, 76, 66
2, 256700, Note_on_c, 0, 45, 65
2, 256700, Note_on_c, 0, 57, 65
2, 256702, Note_on_c, 0, 64, 65
2, 256711, Note_on_c, 0, 56, 0
2, 256713, Note_on_c, 0, 44, 0
2, 256723, Note_on_c, 0, 76, 0
2, 256762, Note_on_c, 0, 45, 0
2, 256766, Note_on_c, 0, 57, 0
2, 256772, Note_on_c, 0, 81, 68
2, 256772, Note_on_c, 0, 85, 68
2, 256772, Note_on_c, 0, 88, 67
2, 256776, Note_on_c, 0, 43, 65
2, 256776, Note_on_c, 0, 55, 65
2, 256793, Note_on_c, 0, 88, 0
2, 256793, Note_on_c, 0, 85, 0
2, 256797, Note_on_c, 0, 81, 0
2, 256823, Note_on_c, 0, 55, 0
2, 256823, Note_on_c, 0, 43, 0
2, 256825, Note_on_c, 0, 64, 0
2, 256857, Note_on_c, 0, 66, 65
2, 256857, Note_on_c, 0, 78, 66
2, 256859, Note_on_c, 0, 54, 70
2, 256861, Note_on_c, 0, 42, 71
2, 256880, Control_c, 0, 64, 127
2, 256882, Note_on_c, 0, 78, 0
2, 256882, Note_on_c, 0, 66, 0
2, 256890, Note_on_c, 0, 54, 0
2, 256892, Note_on_c, 0, 42, 0
2, 256924, Control_c, 0, 64, 0
2, 256935, Note_on_c, 0, 66, 68
2, 256935, Note_on_c, 0, 81, 72
2, 256935, Note_on_c, 0, 85, 71
2, 256938, Note_on_c, 0, 90, 72
2, 256960, Note_on_c, 0, 90, 0
2, 256960, Note_on_c, 0, 85, 0
2, 256960, Note_on_c, 0, 81, 0
2, 256981, Note_on_c, 0, 65, 69
2, 256989, Note_on_c, 0, 66, 0
2, 257017, Note_on_c, 0, 47, 69
2, 257019, Note_on_c, 0, 78, 70
2, 257021, Note_on_c, 0, 35, 69
2, 257023, Note_on_c, 0, 66, 69
2, 257027, Note_on_c, 0, 65, 0
2, 257046, Note_on_c, 0, 78, 0
2, 257048, Note_on_c, 0, 47, 0
2, 257052, Note_on_c, 0, 35, 0
2, 257058, Control_c, 0, 64, 127
2, 257067, Note_on_c, 0, 64, 66
2, 257076, Note_on_c, 0, 66, 0
2, 257091, Note_on_c, 0, 62, 67
2, 257091, Note_on_c, 0, 83, 68
2, 257091, Note_on_c, 0, 86, 67
2, 257093, Note_on_c, 0, 90, 68
2, 257105, Note_on_c, 0, 64, 0
2, 257112, Note_on_c, 0, 90, 0
2, 257112, Note_on_c, 0, 83, 0
2, 257114, Note_on_c, 0, 86, 0
2, 257121, Note_on_c, 0, 61, 66
2, 257123, Control_c, 0, 64, 0
2, 257129, Note_on_c, 0, 62, 0
2, 257147, Note_on_c, 0, 61, 0
2, 257170, Note_on_c, 0, 62, 65
2, 257170, Note_on_c, 0, 67, 72
2, 257170, Note_on_c, 0, 79, 74
2, 257172, Note_on_c, 0, 40, 65
2, 257172, Note_on_c, 0, 52, 65
2, 257176, Note_on_c, 0, 59, 64
2, 257186, Control_c, 0, 64, 127
2, 257195, Note_on_c, 0, 79, 0
2, 257197, Note_on_c, 0, 52, 0
2, 257197, Note_on_c, 0, 59, 0
2, 257199, Note_on_c, 0, 67, 0
2, 257200, Note_on_c, 0, 62, 0
2, 257202, Note_on_c, 0, 40, 0
2, 257258, Note_on_c, 0, 91, 67
2, 257260, Note_on_c, 0, 86, 68
2, 257262, Note_on_c, 0, 40, 65
2, 257262, Note_on_c, 0, 83, 68
2, 257264, Note_on_c, 0, 52, 65
2, 257281, Note_on_c, 0, 83, 0
2, 257281, Note_on_c, 0, 86, 0
2, 257281, Note_on_c, 0, 91, 0
2, 257290, Control_c, 0, 64, 0
2, 257296, Note_on_c, 0, 40, 0
2, 257298, Note_on_c, 0, 38, 65
2, 257298, Note_on_c, 0, 50, 65
2, 257305, Note_on_c, 0, 52, 0
2, 257328, Note_on_c, 0, 78, 66
2, 257332, Note_on_c, 0, 54, 67
2, 257334, Note_on_c, 0, 42, 68
2, 257341, Note_on_c, 0, 50, 0
2, 257341, Note_on_c, 0, 38, 0
2, 257353, Note_on_c, 0, 78, 0
2, 257366, Note_on_c, 0, 54, 0
2, 257368, Note_on_c, 0, 42, 0
2, 257404, Note_on_c, 0, 81, 67
2, 257404, Note_on_c, 0, 85, 68
2, 257406, Note_on_c, 0, 90, 67
2, 257410, Note_on_c, 0, 54, 66
2, 257412, Note_on_c, 0, 42, 65
2, 257424, Note_on_c, 0, 90, 0
2, 257428, Note_on_c, 0, 81, 0
2, 257428, Note_on_c, 0, 85, 0
2, 257449, Note_on_c, 0, 40, 66
2, 257449, Note_on_c, 0, 52, 67
2, 257451, Note_on_c, 0, 54, 0
2, 257451, Note_on_c, 0, 42, 0
2, 257472, Note_on_c, 0, 76, 68
2, 257483, Note_on_c, 0, 43, 72
2, 257483, Note_on_c, 0, 55, 73
2, 257487, Note_on_c, 0, 52, 0
2, 257490, Note_on_c, 0, 40, 0
2, 257494, Note_on_c, 0, 76, 0
2, 257515, Note_on_c, 0, 43, 0
2, 257517, Note_on_c, 0, 55, 0
2, 257545, Note_on_c, 0, 88, 72
2, 257547, Note_on_c, 0, 79, 70
2, 257549, Note_on_c, 0, 55, 70
2, 257549, Note_on_c, 0, 83, 72
2, 257551, Note_on_c, 0, 43, 69
2, 257568, Note_on_c, 0, 83, 0
2, 257568, Note_on_c, 0, 79, 0
2, 257568, Note_on_c, 0, 88, 0
2, 257584, Note_on_c, 0, 43, 0
2, 257596, Note_on_c, 0, 55, 0
2, 257596, Note_on_c, 0, 42, 69
2, 257596, Note_on_c, 0, 54, 69
2, 257626, Note_on_c, 0, 44, 69
2, 257626, Note_on_c, 0, 56, 69
2, 257626, Note_on_c, 0, 74, 70
2, 257636, Note_on_c, 0, 54, 0
2, 257640, Note_on_c, 0, 42, 0
2, 257651, Note_on_c, 0, 74, 0
2, 257657, Note_on_c, 0, 56, 0
2, 257659, Note_on_c, 0, 44, 0
2, 257687, Note_on_c, 0, 78, 69
2, 257687, Note_on_c, 0, 83, 72
2, 257687, Note_on_c, 0, 86, 71
2, 257689, Note_on_c, 0, 56, 69
2, 257691, Note_on_c, 0, 44, 69
2, 257708, Note_on_c, 0, 86, 0
2, 257708, Note_on_c, 0, 83, 0
2, 257712, Note_on_c, 0, 78, 0
2, 257725, Note_on_c, 0, 52, 69
2, 257727, Note_on_c, 0, 40, 69
2, 257744, Note_on_c, 0, 44, 0
2, 257751, Note_on_c, 0, 40, 0
2, 257757, Note_on_c, 0, 52, 0
2, 257768, Note_on_c, 0, 56, 0
2, 257772, Note_on_c, 0, 57, 71
2, 257774, Note_on_c, 0, 73, 72
2, 257776, Note_on_c, 0, 45, 73
2, 257793, Note_on_c, 0, 73, 0
2, 257812, Note_on_c, 0, 59, 72
2, 257816, Note_on_c, 0, 47, 73
2, 257826, Note_on_c, 0, 45, 0
2, 257826, Note_on_c, 0, 57, 0
2, 257848, Note_on_c, 0, 61, 72
2, 257848, Note_on_c, 0, 76, 74
2, 257848, Note_on_c, 0, 79, 73
2, 257848, Note_on_c, 0, 85, 76
2, 257851, Note_on_c, 0, 49, 73
2, 257855, Note_on_c, 0, 59, 0
2, 257857, Note_on_c, 0, 47, 0
2, 257868, Note_on_c, 0, 76, 0
2, 257868, Note_on_c, 0, 79, 0
2, 257868, Note_on_c, 0, 85, 0
2, 257883, Note_on_c, 0, 62, 73
2, 257887, Note_on_c, 0, 61, 0
2, 257887, Note_on_c, 0, 50, 73
2, 257894, Note_on_c, 0, 49, 0
2, 257917, Note_on_c, 0, 79, 76
2, 257919, Note_on_c, 0, 64, 77
2, 257919, Note_on_c, 0, 73, 79
2, 257919, Note_on_c, 0, 83, 82
2, 257920, Note_on_c, 0, 52, 73
2, 257927, Note_on_c, 0, 62, 0
2, 257929, Note_on_c, 0, 50, 0
2, 257938, Note_on_c, 0, 73, 0
2, 257938, Note_on_c, 0, 83, 0
2, 257942, Note_on_c, 0, 79, 0
2, 257948, Note_on_c, 0, 64, 0
2, 257966, Note_on_c, 0, 52, 0
2, 257968, Note_on_c, 0, 51, 73
2, 257968, Note_on_c, 0, 63, 73
2, 257991, Note_on_c, 0, 85, 76
2, 257991, Note_on_c, 0, 91, 76
2, 257994, Note_on_c, 0, 64, 72
2, 257994, Note_on_c, 0, 95, 76
2, 257998, Note_on_c, 0, 52, 73
2, 258000, Note_on_c, 0, 63, 0
2, 258000, Note_on_c, 0, 51, 0
2, 258016, Note_on_c, 0, 85, 0
2, 258016, Note_on_c, 0, 91, 0
2, 258016, Note_on_c, 0, 95, 0
2, 258022, Note_on_c, 0, 65, 73
2, 258026, Note_on_c, 0, 53, 73
2, 258033, Note_on_c, 0, 64, 0
2, 258037, Note_on_c, 0, 52, 0
2, 258054, Note_on_c, 0, 81, 79
2, 258056, Note_on_c, 0, 66, 78
2, 258056, Note_on_c, 0, 74, 80
2, 258058, Note_on_c, 0, 54, 73
2, 258062, Note_on_c, 0, 65, 0
2, 258062, Note_on_c, 0, 53, 0
2, 258077, Note_on_c, 0, 74, 0
2, 258077, Note_on_c, 0, 81, 0
2, 258084, Note_on_c, 0, 66, 0
2, 258090, Note_on_c, 0, 54, 0
2, 258094, Control_c, 0, 64, 127
2, 258117, Control_c, 0, 64, 0
2, 258130, Note_on_c, 0, 93, 76
2, 258134, Note_on_c, 0, 86, 76
2, 258136, Note_on_c, 0, 66, 73
2, 258137, Note_on_c, 0, 54, 73
2, 258155, Note_on_c, 0, 93, 0
2, 258157, Note_on_c, 0, 86, 0
2, 258169, Note_on_c, 0, 62, 73
2, 258171, Note_on_c, 0, 50, 73
2, 258173, Note_on_c, 0, 54, 0
2, 258194, Note_on_c, 0, 79, 74
2, 258194, Note_on_c, 0, 85, 76
2, 258196, Note_on_c, 0, 76, 73
2, 258198, Note_on_c, 0, 45, 69
2, 258198, Note_on_c, 0, 57, 68
2, 258208, Note_on_c, 0, 50, 0
2, 258208, Control_c, 0, 64, 127
2, 258217, Note_on_c, 0, 79, 0
2, 258221, Note_on_c, 0, 85, 0
2, 258221, Note_on_c, 0, 76, 0
2, 258228, Note_on_c, 0, 62, 0
2, 258234, Note_on_c, 0, 66, 0
2, 258236, Note_on_c, 0, 57, 0
2, 258245, Note_on_c, 0, 45, 0
2, 258264, Note_on_c, 0, 91, 76
2, 258266, Note_on_c, 0, 88, 75
2, 258268, Note_on_c, 0, 97, 77
2, 258287, Note_on_c, 0, 88, 0
2, 258287, Note_on_c, 0, 91, 0
2, 258289, Note_on_c, 0, 97, 0
2, 258326, Control_c, 0, 64, 0
2, 258347, Note_on_c, 0, 93, 75
2, 258353, Note_on_c, 0, 54, 66
2, 258353, Note_on_c, 0, 57, 65
2, 258353, Note_on_c, 0, 62, 64
2, 258353, Note_on_c, 0, 74, 75
2, 258355, Note_on_c, 0, 50, 65
2, 258355, Note_on_c, 0, 90, 78
2, 258373, Note_on_c, 0, 93, 0
2, 258375, Note_on_c, 0, 90, 0
2, 258376, Note_on_c, 0, 62, 0
2, 258378, Note_on_c, 0, 54, 0
2, 258378, Note_on_c, 0, 57, 0
2, 258380, Note_on_c, 0, 74, 0
2, 258382, Note_on_c, 0, 50, 0
2, 258442, Note_on_c, 0, 74, 69
2, 258442, Note_on_c, 0, 78, 67
2, 258442, Note_on_c, 0, 81, 68
2, 258442, Note_on_c, 0, 86, 67
2, 258446, Note_on_c, 0, 50, 65
2, 258463, Note_on_c, 0, 86, 0
2, 258465, Note_on_c, 0, 78, 0
2, 258467, Note_on_c, 0, 81, 0
2, 258475, Note_on_c, 0, 73, 66
2, 258477, Note_on_c, 0, 74, 0
2, 258479, Note_on_c, 0, 49, 65
2, 258481, Note_on_c, 0, 50, 0
2, 258511, Note_on_c, 0, 57, 65
2, 258511, Note_on_c, 0, 62, 65
2, 258511, Note_on_c, 0, 74, 66
2, 258515, Note_on_c, 0, 49, 0
2, 258515, Note_on_c, 0, 50, 65
2, 258515, Note_on_c, 0, 54, 64
2, 258521, Note_on_c, 0, 73, 0
2, 258539, Note_on_c, 0, 57, 0
2, 258539, Note_on_c, 0, 62, 0
2, 258539, Note_on_c, 0, 54, 0
2, 258541, Note_on_c, 0, 74, 0
2, 258547, Note_on_c, 0, 50, 0
2, 258567, Note_on_c, 0, 78, 66
2, 258567, Note_on_c, 0, 81, 68
2, 258567, Note_on_c, 0, 86, 67
2, 258568, Note_on_c, 0, 48, 65
2, 258572, Note_on_c, 0, 72, 66
2, 258592, Note_on_c, 0, 86, 0
2, 258592, Note_on_c, 0, 78, 0
2, 258592, Note_on_c, 0, 81, 0
2, 258607, Note_on_c, 0, 72, 0
2, 258609, Note_on_c, 0, 48, 0
2, 258660, Note_on_c, 0, 64, 68
2, 258660, Note_on_c, 0, 71, 76
2, 258660, Note_on_c, 0, 76, 77
2, 258662, Note_on_c, 0, 59, 65
2, 258665, Note_on_c, 0, 47, 65
2, 258665, Note_on_c, 0, 55, 65
2, 258687, Note_on_c, 0, 59, 0
2, 258687, Note_on_c, 0, 64, 0
2, 258688, Note_on_c, 0, 55, 0
2, 258714, Note_on_c, 0, 76, 0
2, 258755, Note_on_c, 0, 76, 69
2, 258755, Note_on_c, 0, 79, 67
2, 258755, Note_on_c, 0, 83, 68
2, 258755, Note_on_c, 0, 88, 67
2, 258778, Note_on_c, 0, 88, 0
2, 258778, Note_on_c, 0, 83, 0
2, 258782, Note_on_c, 0, 79, 0
2, 258784, Note_on_c, 0, 75, 66
2, 258785, Note_on_c, 0, 76, 0
2, 258789, Note_on_c, 0, 47, 0
2, 258812, Note_on_c, 0, 40, 65
2, 258812, Note_on_c, 0, 52, 65
2, 258814, Note_on_c, 0, 76, 66
2, 258818, Note_on_c, 0, 55, 65
2, 258818, Note_on_c, 0, 59, 65
2, 258818, Note_on_c, 0, 64, 65
2, 258827, Note_on_c, 0, 75, 0
2, 258839, Note_on_c, 0, 64, 0
2, 258841, Note_on_c, 0, 59, 0
2, 258843, Note_on_c, 0, 55, 0
2, 258854, Note_on_c, 0, 71, 0
2, 258871, Note_on_c, 0, 76, 0
2, 258886, Note_on_c, 0, 52, 0
2, 258899, Note_on_c, 0, 79, 66
2, 258899, Note_on_c, 0, 83, 68
2, 258899, Note_on_c, 0, 88, 67
2, 258905, Note_on_c, 0, 74, 66
2, 258927, Note_on_c, 0, 88, 0
2, 258927, Note_on_c, 0, 83, 0
2, 258927, Note_on_c, 0, 79, 0
2, 258933, Note_on_c, 0, 40, 0
2, 258935, Note_on_c, 0, 74, 0
2, 258980, Note_on_c, 0, 57, 67
2, 258980, Note_on_c, 0, 61, 68
2, 258980, Note_on_c, 0, 73, 75
2, 258982, Note_on_c, 0, 64, 75
2, 258982, Note_on_c, 0, 69, 77
2, 258984, Note_on_c, 0, 45, 69
2, 259007, Note_on_c, 0, 64, 0
2, 259007, Note_on_c, 0, 61, 0
2, 259007, Note_on_c, 0, 57, 0
2, 259014, Note_on_c, 0, 69, 0
2, 259014, Note_on_c, 0, 73, 0
2, 259021, Note_on_c, 0, 45, 0
2, 259055, Note_on_c, 0, 81, 72
2, 259055, Note_on_c, 0, 88, 72
2, 259057, Note_on_c, 0, 85, 71
2, 259061, Note_on_c, 0, 45, 69
2, 259061, Note_on_c, 0, 69, 70
2, 259082, Note_on_c, 0, 85, 0
2, 259082, Note_on_c, 0, 88, 0
2, 259084, Note_on_c, 0, 81, 0
2, 259091, Note_on_c, 0, 69, 0
2, 259093, Control_c, 0, 64, 127
2, 259101, Note_on_c, 0, 45, 0
2, 259103, Note_on_c, 0, 44, 69
2, 259103, Note_on_c, 0, 68, 69
2, 259131, Note_on_c, 0, 76, 69
2, 259133, Note_on_c, 0, 68, 0
2, 259133, Note_on_c, 0, 45, 67
2, 259135, Note_on_c, 0, 57, 66
2, 259135, Note_on_c, 0, 61, 65
2, 259135, Note_on_c, 0, 64, 66
2, 259135, Note_on_c, 0, 69, 66
2, 259142, Note_on_c, 0, 44, 0
2, 259152, Control_c, 0, 64, 0
2, 259163, Note_on_c, 0, 61, 0
2, 259163, Note_on_c, 0, 57, 0
2, 259163, Note_on_c, 0, 64, 0
2, 259201, Note_on_c, 0, 45, 0
2, 259203, Note_on_c, 0, 81, 68
2, 259203, Note_on_c, 0, 85, 68
2, 259203, Note_on_c, 0, 88, 67
2, 259207, Note_on_c, 0, 67, 65
2, 259217, Note_on_c, 0, 69, 0
2, 259217, Note_on_c, 0, 43, 65
2, 259226, Note_on_c, 0, 88, 0
2, 259230, Note_on_c, 0, 85, 0
2, 259230, Note_on_c, 0, 81, 0
2, 259239, Note_on_c, 0, 76, 0
2, 259242, Note_on_c, 0, 67, 0
2, 259251, Note_on_c, 0, 43, 0
2, 259274, Note_on_c, 0, 66, 68
2, 259274, Note_on_c, 0, 78, 72
2, 259278, Note_on_c, 0, 57, 65
2, 259278, Note_on_c, 0, 61, 65
2, 259287, Note_on_c, 0, 54, 67
2, 259288, Note_on_c, 0, 42, 68
2, 259295, Control_c, 0, 64, 127
2, 259302, Note_on_c, 0, 61, 0
2, 259304, Note_on_c, 0, 66, 0
2, 259306, Note_on_c, 0, 57, 0
2, 259323, Note_on_c, 0, 78, 0
2, 259325, Note_on_c, 0, 54, 0
2, 259336, Note_on_c, 0, 42, 0
2, 259374, Control_c, 0, 64, 0
2, 259374, Note_on_c, 0, 78, 70
2, 259374, Note_on_c, 0, 81, 71
2, 259374, Note_on_c, 0, 85, 72
2, 259378, Note_on_c, 0, 90, 71
2, 259401, Note_on_c, 0, 90, 0
2, 259401, Note_on_c, 0, 85, 0
2, 259401, Note_on_c, 0, 81, 0
2, 259408, Note_on_c, 0, 78, 0
2, 259409, Note_on_c, 0, 77, 70
2, 259441, Note_on_c, 0, 35, 71
2, 259441, Note_on_c, 0, 47, 73
2, 259443, Note_on_c, 0, 78, 68
2, 259445, Note_on_c, 0, 62, 74
2, 259445, Note_on_c, 0, 66, 66
2, 259447, Note_on_c, 0, 59, 75
2, 259451, Note_on_c, 0, 77, 0
2, 259461, Control_c, 0, 64, 127
2, 259470, Note_on_c, 0, 66, 0
2, 259470, Note_on_c, 0, 62, 0
2, 259470, Note_on_c, 0, 59, 0
2, 259474, Note_on_c, 0, 47, 0
2, 259489, Note_on_c, 0, 35, 0
2, 259498, Note_on_c, 0, 76, 71
2, 259498, Note_on_c, 0, 83, 74
2, 259498, Note_on_c, 0, 86, 75
2, 259498, Note_on_c, 0, 90, 76
2, 259519, Note_on_c, 0, 78, 0
2, 259523, Note_on_c, 0, 90, 0
2, 259525, Note_on_c, 0, 86, 0
2, 259525, Note_on_c, 0, 83, 0
2, 259527, Note_on_c, 0, 74, 73
2, 259539, Control_c, 0, 64, 0
2, 259552, Note_on_c, 0, 76, 0
2, 259562, Note_on_c, 0, 73, 74
2, 259573, Note_on_c, 0, 74, 0
2, 259592, Note_on_c, 0, 73, 0
2, 259604, Note_on_c, 0, 28, 74
2, 259604, Note_on_c, 0, 40, 74
2, 259604, Note_on_c, 0, 79, 74
2, 259606, Note_on_c, 0, 71, 73
2, 259606, Note_on_c, 0, 74, 74
2, 259629, Note_on_c, 0, 74, 0
2, 259629, Note_on_c, 0, 79, 0
2, 259629, Note_on_c, 0, 71, 0
2, 259666, Note_on_c, 0, 40, 0
2, 259672, Note_on_c, 0, 28, 0
2, 259688, Note_on_c, 0, 91, 76
2, 259690, Note_on_c, 0, 86, 76
2, 259692, Note_on_c, 0, 83, 76
2, 259694, Note_on_c, 0, 52, 73
2, 259696, Note_on_c, 0, 40, 73
2, 259713, Note_on_c, 0, 91, 0
2, 259715, Note_on_c, 0, 86, 0
2, 259715, Note_on_c, 0, 83, 0
2, 259730, Note_on_c, 0, 40, 0
2, 259730, Note_on_c, 0, 50, 73
2, 259734, Note_on_c, 0, 52, 0
2, 259757, Note_on_c, 0, 42, 74
2, 259759, Note_on_c, 0, 69, 74
2, 259759, Note_on_c, 0, 73, 74
2, 259759, Note_on_c, 0, 78, 73
2, 259766, Note_on_c, 0, 50, 0
2, 259766, Note_on_c, 0, 30, 72
2, 259781, Note_on_c, 0, 73, 0
2, 259783, Note_on_c, 0, 78, 0
2, 259785, Note_on_c, 0, 69, 0
2, 259787, Note_on_c, 0, 42, 0
2, 259795, Note_on_c, 0, 30, 0
2, 259832, Note_on_c, 0, 81, 76
2, 259832, Note_on_c, 0, 85, 76
2, 259832, Note_on_c, 0, 90, 75
2, 259839, Note_on_c, 0, 54, 73
2, 259840, Note_on_c, 0, 42, 73
2, 259858, Note_on_c, 0, 90, 0
2, 259858, Note_on_c, 0, 81, 0
2, 259858, Note_on_c, 0, 85, 0
2, 259873, Note_on_c, 0, 42, 0
2, 259873, Note_on_c, 0, 52, 74
2, 259877, Note_on_c, 0, 54, 0
2, 259905, Note_on_c, 0, 71, 74
2, 259905, Note_on_c, 0, 76, 72
2, 259907, Note_on_c, 0, 67, 70
2, 259909, Note_on_c, 0, 43, 76
2, 259911, Note_on_c, 0, 31, 77
2, 259919, Note_on_c, 0, 52, 0
2, 259930, Note_on_c, 0, 67, 0
2, 259930, Note_on_c, 0, 71, 0
2, 259930, Note_on_c, 0, 76, 0
2, 259934, Note_on_c, 0, 43, 0
2, 259937, Note_on_c, 0, 31, 0
2, 259995, Note_on_c, 0, 88, 72
2, 259997, Note_on_c, 0, 79, 70
2, 259997, Note_on_c, 0, 83, 72
2, 259999, Note_on_c, 0, 55, 71
2, 260001, Note_on_c, 0, 43, 70
2, 260020, Note_on_c, 0, 83, 0
2, 260020, Note_on_c, 0, 88, 0
2, 260020, Note_on_c, 0, 79, 0
2, 260035, Note_on_c, 0, 43, 0
2, 260035, Note_on_c, 0, 54, 69
2, 260039, Note_on_c, 0, 55, 0
2, 260065, Note_on_c, 0, 66, 69
2, 260067, Note_on_c, 0, 54, 0
2, 260067, Note_on_c, 0, 71, 70
2, 260067, Note_on_c, 0, 74, 69
2, 260069, Note_on_c, 0, 32, 72
2, 260069, Note_on_c, 0, 44, 73
2, 260088, Note_on_c, 0, 74, 0
2, 260088, Note_on_c, 0, 71, 0
2, 260092, Note_on_c, 0, 66, 0
2, 260094, Note_on_c, 0, 32, 0
2, 260103, Note_on_c, 0, 44, 0
2, 260139, Note_on_c, 0, 86, 72
2, 260141, Note_on_c, 0, 56, 72
2, 260141, Note_on_c, 0, 78, 73
2, 260141, Note_on_c, 0, 83, 76
2, 260145, Note_on_c, 0, 44, 74
2, 260166, Note_on_c, 0, 83, 0
2, 260166, Note_on_c, 0, 78, 0
2, 260166, Note_on_c, 0, 86, 0
2, 260170, Note_on_c, 0, 44, 0
2, 260176, Note_on_c, 0, 54, 73
2, 260189, Note_on_c, 0, 56, 0
2, 260210, Note_on_c, 0, 54, 0
2, 260210, Note_on_c, 0, 67, 73
2, 260214, Note_on_c, 0, 45, 76
2, 260214, Note_on_c, 0, 64, 73
2, 260214, Note_on_c, 0, 73, 73
2, 260216, Note_on_c, 0, 33, 77
2, 260235, Note_on_c, 0, 73, 0
2, 260235, Note_on_c, 0, 64, 0
2, 260235, Note_on_c, 0, 67, 0
2, 260248, Note_on_c, 0, 45, 0
2, 260249, Note_on_c, 0, 33, 0
2, 260292, Note_on_c, 0, 85, 76
2, 260296, Note_on_c, 0, 76, 74
2, 260296, Note_on_c, 0, 79, 74
2, 260297, Note_on_c, 0, 57, 73
2, 260299, Note_on_c, 0, 45, 73
2, 260319, Note_on_c, 0, 85, 0
2, 260320, Note_on_c, 0, 76, 0
2, 260320, Note_on_c, 0, 79, 0
2, 260331, Note_on_c, 0, 45, 0
2, 260333, Note_on_c, 0, 55, 73
2, 260335, Note_on_c, 0, 57, 0
2, 260358, Note_on_c, 0, 47, 75
2, 260358, Note_on_c, 0, 64, 73
2, 260358, Note_on_c, 0, 67, 72
2, 260358, Note_on_c, 0, 71, 74
2, 260365, Note_on_c, 0, 35, 77
2, 260367, Note_on_c, 0, 55, 0
2, 260382, Note_on_c, 0, 71, 0
2, 260382, Note_on_c, 0, 67, 0
2, 260382, Note_on_c, 0, 64, 0
2, 260389, Note_on_c, 0, 35, 0
2, 260391, Note_on_c, 0, 47, 0
2, 260440, Note_on_c, 0, 74, 73
2, 260440, Note_on_c, 0, 79, 74
2, 260440, Note_on_c, 0, 83, 75
2, 260443, Note_on_c, 0, 47, 73
2, 260443, Note_on_c, 0, 59, 73
2, 260443, Note_on_c, 0, 76, 74
2, 260466, Note_on_c, 0, 76, 0
2, 260466, Note_on_c, 0, 79, 0
2, 260466, Note_on_c, 0, 74, 0
2, 260466, Note_on_c, 0, 83, 0
2, 260475, Note_on_c, 0, 47, 0
2, 260477, Note_on_c, 0, 59, 0
2, 260481, Note_on_c, 0, 57, 73
2, 260512, Note_on_c, 0, 64, 73
2, 260512, Note_on_c, 0, 67, 73
2, 260512, Note_on_c, 0, 69, 73
2, 260519, Note_on_c, 0, 49, 77
2, 260521, Note_on_c, 0, 57, 0
2, 260521, Note_on_c, 0, 37, 78
2, 260538, Note_on_c, 0, 67, 0
2, 260540, Note_on_c, 0, 69, 0
2, 260540, Note_on_c, 0, 64, 0
2, 260549, Note_on_c, 0, 49, 0
2, 260551, Note_on_c, 0, 37, 0
2, 260589, Note_on_c, 0, 81, 76
2, 260591, Note_on_c, 0, 61, 74
2, 260591, Note_on_c, 0, 76, 74
2, 260591, Note_on_c, 0, 79, 73
2, 260593, Note_on_c, 0, 49, 73
2, 260593, Note_on_c, 0, 64, 73
2, 260593, Note_on_c, 0, 67, 72
2, 260593, Note_on_c, 0, 69, 74
2, 260616, Note_on_c, 0, 81, 0
2, 260618, Note_on_c, 0, 69, 0
2, 260618, Note_on_c, 0, 64, 0
2, 260618, Note_on_c, 0, 76, 0
2, 260618, Note_on_c, 0, 79, 0
2, 260618, Note_on_c, 0, 67, 0
2, 260620, Note_on_c, 0, 61, 0
2, 260620, Note_on_c, 0, 49, 0
2, 260637, Note_on_c, 0, 59, 72
2, 260669, Note_on_c, 0, 59, 0
2, 260669, Note_on_c, 0, 66, 73
2, 260669, Note_on_c, 0, 69, 73
2, 260671, Note_on_c, 0, 50, 78
2, 260678, Note_on_c, 0, 38, 80
2, 260697, Note_on_c, 0, 69, 0
2, 260697, Note_on_c, 0, 66, 0
2, 260704, Note_on_c, 0, 50, 0
2, 260705, Note_on_c, 0, 38, 0
2, 260748, Note_on_c, 0, 78, 78
2, 260748, Note_on_c, 0, 81, 84
2, 260752, Note_on_c, 0, 74, 83
2, 260755, Note_on_c, 0, 50, 88
2, 260757, Note_on_c, 0, 38, 89
2, 260780, Note_on_c, 0, 74, 0
2, 260780, Note_on_c, 0, 78, 0
2, 260780, Note_on_c, 0, 81, 0
2, 260784, Note_on_c, 0, 50, 0
2, 260784, Note_on_c, 0, 38, 0
2, 260823, Note_on_c, 0, 72, 91
2, 260823, Note_on_c, 0, 79, 95
2, 260823, Note_on_c, 0, 84, 98
2, 260826, Note_on_c, 0, 51, 93
2, 260830, Note_on_c, 0, 39, 94
2, 260843, Control_c, 0, 64, 127
2, 260851, Note_on_c, 0, 84, 0
2, 260853, Note_on_c, 0, 79, 0
2, 260857, Note_on_c, 0, 72, 0
2, 260859, Note_on_c, 0, 39, 0
2, 260859, Note_on_c, 0, 51, 0
2, 260868, Control_c, 0, 64, 0
2, 260910, Note_on_c, 0, 67, 83
2, 260914, Note_on_c, 0, 55, 85
2, 260914, Note_on_c, 0, 60, 84
2, 260920, Note_on_c, 0, 51, 83
2, 260929, Note_on_c, 0, 66, 78
2, 260942, Note_on_c, 0, 67, 0
2, 260963, Control_c, 0, 64, 127
2, 260975, Note_on_c, 0, 67, 72
2, 260982, Note_on_c, 0, 66, 0
2, 260991, Control_c, 0, 64, 0
2, 261006, Note_on_c, 0, 55, 0
2, 261006, Note_on_c, 0, 60, 0
2, 261010, Note_on_c, 0, 51, 0
2, 261012, Note_on_c, 0, 67, 0
2, 261052, Note_on_c, 0, 67, 75
2, 261059, Note_on_c, 0, 45, 74
2, 261059, Note_on_c, 0, 52, 73
2, 261063, Note_on_c, 0, 73, 79
2, 261099, Note_on_c, 0, 73, 0
2, 261099, Note_on_c, 0, 72, 77
2, 261114, Control_c, 0, 64, 127
2, 261130, Note_on_c, 0, 73, 74
2, 261142, Note_on_c, 0, 72, 0
2, 261153, Note_on_c, 0, 67, 0
2, 261153, Note_on_c, 0, 45, 0
2, 261153, Control_c, 0, 64, 0
2, 261161, Note_on_c, 0, 52, 0
2, 261163, Note_on_c, 0, 73, 0
2, 261202, Note_on_c, 0, 66, 75
2, 261204, Note_on_c, 0, 74, 78
2, 261206, Note_on_c, 0, 38, 78
2, 261208, Note_on_c, 0, 45, 79
2, 261237, Note_on_c, 0, 73, 80
2, 261239, Note_on_c, 0, 74, 0
2, 261239, Note_on_c, 0, 66, 0
2, 261243, Control_c, 0, 64, 127
2, 261273, Control_c, 0, 64, 0
2, 261280, Note_on_c, 0, 74, 81
2, 261281, Note_on_c, 0, 73, 0
2, 261299, Note_on_c, 0, 45, 0
2, 261299, Note_on_c, 0, 38, 0
2, 261309, Note_on_c, 0, 74, 0
2, 261346, Note_on_c, 0, 38, 82
2, 261346, Note_on_c, 0, 50, 87
2, 261350, Note_on_c, 0, 74, 81
2, 261350, Note_on_c, 0, 81, 83
2, 261356, Note_on_c, 0, 78, 80
2, 261369, Note_on_c, 0, 50, 0
2, 261371, Note_on_c, 0, 38, 0
2, 261381, Note_on_c, 0, 81, 0
2, 261381, Note_on_c, 0, 74, 0
2, 261381, Note_on_c, 0, 78, 0
2, 261420, Control_c, 0, 64, 127
2, 261424, Note_on_c, 0, 79, 86
2, 261424, Note_on_c, 0, 84, 89
2, 261425, Note_on_c, 0, 72, 88
2, 261427, Note_on_c, 0, 51, 89
2, 261434, Note_on_c, 0, 39, 90
2, 261451, Note_on_c, 0, 72, 0
2, 261451, Note_on_c, 0, 79, 0
2, 261451, Note_on_c, 0, 84, 0
2, 261453, Note_on_c, 0, 51, 0
2, 261453, Note_on_c, 0, 39, 0
2, 261494, Control_c, 0, 64, 0
2, 261513, Note_on_c, 0, 51, 83
2, 261513, Note_on_c, 0, 55, 82
2, 261513, Note_on_c, 0, 60, 81
2, 261513, Note_on_c, 0, 67, 80
2, 261541, Note_on_c, 0, 66, 79
2, 261544, Note_on_c, 0, 55, 0
2, 261544, Note_on_c, 0, 51, 0
2, 261548, Note_on_c, 0, 67, 0
2, 261550, Control_c, 0, 64, 127
2, 261552, Note_on_c, 0, 60, 0
2, 261573, Note_on_c, 0, 67, 80
2, 261580, Control_c, 0, 64, 0
2, 261582, Note_on_c, 0, 66, 0
2, 261616, Note_on_c, 0, 67, 0
2, 261663, Note_on_c, 0, 67, 80
2, 261664, Note_on_c, 0, 45, 80
2, 261664, Note_on_c, 0, 52, 80
2, 261668, Note_on_c, 0, 73, 81
2, 261705, Note_on_c, 0, 72, 80
2, 261715, Note_on_c, 0, 73, 0
2, 261715, Control_c, 0, 64, 127
2, 261738, Note_on_c, 0, 73, 80
2, 261751, Note_on_c, 0, 72, 0
2, 261760, Note_on_c, 0, 45, 0
2, 261766, Note_on_c, 0, 67, 0
2, 261768, Note_on_c, 0, 52, 0
2, 261779, Note_on_c, 0, 73, 0
2, 261787, Control_c, 0, 64, 0
2, 261808, Note_on_c, 0, 74, 81
2, 261810, Note_on_c, 0, 66, 81
2, 261812, Note_on_c, 0, 45, 80
2, 261825, Note_on_c, 0, 38, 81
2, 261842, Note_on_c, 0, 74, 0
2, 261844, Note_on_c, 0, 73, 81
2, 261848, Note_on_c, 0, 66, 0
2, 261876, Note_on_c, 0, 74, 81
2, 261882, Note_on_c, 0, 38, 0
2, 261882, Note_on_c, 0, 45, 0
2, 261884, Note_on_c, 0, 73, 0
2, 261884, Control_c, 0, 64, 127
2, 261904, Note_on_c, 0, 74, 0
2, 261946, Note_on_c, 0, 50, 81
2, 261948, Note_on_c, 0, 74, 82
2, 261948, Note_on_c, 0, 78, 82
2, 261948, Note_on_c, 0, 81, 83
2, 261950, Note_on_c, 0, 38, 81
2, 261960, Control_c, 0, 64, 0
2, 261979, Note_on_c, 0, 38, 0
2, 261979, Note_on_c, 0, 78, 0
2, 261979, Note_on_c, 0, 50, 0
2, 261981, Note_on_c, 0, 74, 0
2, 261988, Note_on_c, 0, 81, 0
2, 262026, Note_on_c, 0, 79, 84
2, 262026, Note_on_c, 0, 84, 91
2, 262028, Note_on_c, 0, 72, 90
2, 262030, Note_on_c, 0, 51, 86
2, 262034, Note_on_c, 0, 39, 87
2, 262049, Note_on_c, 0, 72, 0
2, 262051, Note_on_c, 0, 79, 0
2, 262051, Note_on_c, 0, 84, 0
2, 262053, Note_on_c, 0, 39, 0
2, 262055, Note_on_c, 0, 51, 0
2, 262104, Note_on_c, 0, 67, 87
2, 262108, Note_on_c, 0, 60, 92
2, 262110, Note_on_c, 0, 55, 93
2, 262112, Note_on_c, 0, 51, 94
2, 262112, Note_on_c, 0, 57, 95
2, 262129, Note_on_c, 0, 66, 81
2, 262131, Control_c, 0, 64, 127
2, 262140, Note_on_c, 0, 57, 0
2, 262140, Note_on_c, 0, 67, 0
2, 262144, Note_on_c, 0, 51, 0
2, 262163, Note_on_c, 0, 60, 0
2, 262163, Note_on_c, 0, 67, 80
2, 262171, Note_on_c, 0, 66, 0
2, 262171, Note_on_c, 0, 55, 0
2, 262201, Note_on_c, 0, 67, 0
2, 262243, Control_c, 0, 64, 0
2, 262252, Note_on_c, 0, 74, 87
2, 262252, Note_on_c, 0, 78, 88
2, 262252, Note_on_c, 0, 81, 91
2, 262259, Note_on_c, 0, 50, 92
2, 262261, Note_on_c, 0, 38, 93
2, 262287, Note_on_c, 0, 74, 0
2, 262290, Note_on_c, 0, 50, 0
2, 262290, Note_on_c, 0, 38, 0
2, 262292, Note_on_c, 0, 78, 0
2, 262296, Note_on_c, 0, 81, 0
2, 262322, Note_on_c, 0, 84, 89
2, 262324, Note_on_c, 0, 72, 90
2, 262328, Note_on_c, 0, 39, 93
2, 262328, Note_on_c, 0, 51, 94
2, 262330, Note_on_c, 0, 79, 88
2, 262340, Control_c, 0, 64, 127
2, 262353, Note_on_c, 0, 84, 0
2, 262357, Note_on_c, 0, 51, 0
2, 262357, Note_on_c, 0, 72, 0
2, 262357, Note_on_c, 0, 79, 0
2, 262365, Note_on_c, 0, 39, 0
2, 262399, Note_on_c, 0, 67, 86
2, 262401, Note_on_c, 0, 60, 96
2, 262403, Note_on_c, 0, 51, 97
2, 262403, Note_on_c, 0, 55, 98
2, 262407, Note_on_c, 0, 57, 99
2, 262424, Note_on_c, 0, 66, 80
2, 262431, Note_on_c, 0, 67, 0
2, 262432, Note_on_c, 0, 51, 0
2, 262441, Note_on_c, 0, 55, 0
2, 262445, Note_on_c, 0, 57, 0
2, 262462, Note_on_c, 0, 60, 0
2, 262462, Note_on_c, 0, 67, 80
2, 262477, Note_on_c, 0, 66, 0
2, 262503, Note_on_c, 0, 67, 0
2, 262530, Control_c, 0, 64, 0
2, 262553, Note_on_c, 0, 66, 69
2, 262553, Note_on_c, 0, 78, 68
2, 262553, Note_on_c, 0, 81, 69
2, 262555, Note_on_c, 0, 50, 84
2, 262555, Note_on_c, 0, 69, 66
2, 262555, Note_on_c, 0, 74, 65
2, 262559, Note_on_c, 0, 38, 83
2, 262559, Note_on_c, 0, 62, 82
2, 262563, Note_on_c, 0, 57, 81
2, 262586, Note_on_c, 0, 74, 0
2, 262586, Note_on_c, 0, 81, 0
2, 262586, Note_on_c, 0, 66, 0
2, 262586, Note_on_c, 0, 69, 0
2, 262586, Note_on_c, 0, 78, 0
2, 262588, Note_on_c, 0, 50, 0
2, 262590, Note_on_c, 0, 38, 0
2, 262592, Note_on_c, 0, 62, 0
2, 262594, Note_on_c, 0, 57, 0
2, 262630, Note_on_c, 0, 84, 71
2, 262639, Note_on_c, 0, 55, 80
2, 262639, Note_on_c, 0, 60, 80
2, 262639, Note_on_c, 0, 63, 79
2, 262639, Note_on_c, 0, 67, 65
2, 262639, Note_on_c, 0, 72, 65
2, 262639, Note_on_c, 0, 79, 64
2, 262641, Control_c, 0, 64, 127
2, 262643, Note_on_c, 0, 39, 80
2, 262643, Note_on_c, 0, 51, 80
2, 262660, Note_on_c, 0, 67, 0
2, 262662, Note_on_c, 0, 60, 0
2, 262662, Note_on_c, 0, 51, 0
2, 262662, Note_on_c, 0, 39, 0
2, 262664, Note_on_c, 0, 55, 0
2, 262666, Note_on_c, 0, 84, 0
2, 262668, Note_on_c, 0, 63, 0
2, 262668, Note_on_c, 0, 72, 0
2, 262668, Note_on_c, 0, 79, 0
2, 262696, Control_c, 0, 64, 0
2, 262713, Note_on_c, 0, 66, 72
2, 262713, Note_on_c, 0, 74, 75
2, 262713, Note_on_c, 0, 81, 78
2, 262715, Note_on_c, 0, 50, 80
2, 262715, Note_on_c, 0, 57, 80
2, 262715, Note_on_c, 0, 62, 79
2, 262715, Note_on_c, 0, 69, 77
2, 262715, Note_on_c, 0, 78, 78
2, 262719, Note_on_c, 0, 38, 80
2, 262736, Note_on_c, 0, 78, 0
2, 262738, Note_on_c, 0, 69, 0
2, 262738, Note_on_c, 0, 74, 0
2, 262740, Note_on_c, 0, 57, 0
2, 262740, Note_on_c, 0, 38, 0
2, 262740, Note_on_c, 0, 50, 0
2, 262740, Note_on_c, 0, 62, 0
2, 262746, Note_on_c, 0, 81, 0
2, 262748, Note_on_c, 0, 66, 0
2, 262778, Note_on_c, 0, 79, 79
2, 262778, Note_on_c, 0, 84, 82
2, 262782, Note_on_c, 0, 60, 80
2, 262782, Note_on_c, 0, 63, 80
2, 262782, Note_on_c, 0, 72, 81
2, 262784, Note_on_c, 0, 55, 79
2, 262786, Control_c, 0, 64, 127
2, 262786, Note_on_c, 0, 67, 80
2, 262790, Note_on_c, 0, 51, 80
2, 262792, Note_on_c, 0, 39, 80
2, 262811, Note_on_c, 0, 39, 0
2, 262811, Note_on_c, 0, 72, 0
2, 262811, Note_on_c, 0, 60, 0
2, 262811, Note_on_c, 0, 79, 0
2, 262815, Note_on_c, 0, 51, 0
2, 262815, Note_on_c, 0, 63, 0
2, 262815, Note_on_c, 0, 55, 0
2, 262816, Note_on_c, 0, 84, 0
2, 262816, Note_on_c, 0, 67, 0
2, 262820, Control_c, 0, 64, 0
2, 262852, Note_on_c, 0, 66, 82
2, 262852, Note_on_c, 0, 74, 85
2, 262852, Note_on_c, 0, 81, 88
2, 262854, Note_on_c, 0, 78, 87
2, 262856, Note_on_c, 0, 50, 88
2, 262856, Note_on_c, 0, 57, 89
2, 262856, Note_on_c, 0, 62, 88
2, 262858, Note_on_c, 0, 38, 89
2, 262862, Note_on_c, 0, 69, 87
2, 262883, Note_on_c, 0, 78, 0
2, 262885, Note_on_c, 0, 69, 0
2, 262885, Note_on_c, 0, 74, 0
2, 262887, Note_on_c, 0, 57, 0
2, 262887, Note_on_c, 0, 81, 0
2, 262887, Note_on_c, 0, 50, 0
2, 262887, Note_on_c, 0, 38, 0
2, 262887, Note_on_c, 0, 62, 0
2, 262887, Note_on_c, 0, 66, 0
2, 262888, Control_c, 0, 64, 127
2, 262927, Note_on_c, 0, 55, 88
2, 262927, Note_on_c, 0, 79, 90
2, 262927, Note_on_c, 0, 84, 93
2, 262931, Note_on_c, 0, 60, 92
2, 262931, Note_on_c, 0, 67, 91
2, 262931, Note_on_c, 0, 72, 93
2, 262933, Note_on_c, 0, 51, 93
2, 262935, Note_on_c, 0, 63, 94
2, 262936, Note_on_c, 0, 39, 95
2, 262947, Control_c, 0, 64, 0
2, 262954, Note_on_c, 0, 39, 0
2, 262956, Note_on_c, 0, 51, 0
2, 262960, Note_on_c, 0, 79, 0
2, 262960, Note_on_c, 0, 67, 0
2, 262960, Note_on_c, 0, 63, 0
2, 262960, Note_on_c, 0, 72, 0
2, 262963, Note_on_c, 0, 55, 0
2, 262963, Note_on_c, 0, 60, 0
2, 262965, Note_on_c, 0, 84, 0
2, 263002, Control_c, 0, 64, 127
2, 263008, Note_on_c, 0, 81, 95
2, 263012, Note_on_c, 0, 66, 93
2, 263014, Note_on_c, 0, 50, 92
2, 263014, Note_on_c, 0, 57, 93
2, 263014, Note_on_c, 0, 62, 94
2, 263014, Note_on_c, 0, 69, 95
2, 263014, Note_on_c, 0, 74, 96
2, 263014, Note_on_c, 0, 78, 97
2, 263018, Note_on_c, 0, 38, 95
2, 263035, Note_on_c, 0, 74, 0
2, 263035, Note_on_c, 0, 69, 0
2, 263039, Note_on_c, 0, 38, 0
2, 263039, Note_on_c, 0, 57, 0
2, 263039, Note_on_c, 0, 66, 0
2, 263039, Note_on_c, 0, 78, 0
2, 263039, Note_on_c, 0, 50, 0
2, 263046, Note_on_c, 0, 81, 0
2, 263046, Note_on_c, 0, 62, 0
2, 263053, Control_c, 0, 64, 0
2, 263086, Note_on_c, 0, 74, 99
2, 263086, Note_on_c, 0, 78, 102
2, 263086, Note_on_c, 0, 81, 105
2, 263086, Note_on_c, 0, 86, 106
2, 263088, Note_on_c, 0, 62, 99
2, 263088, Note_on_c, 0, 66, 104
2, 263088, Note_on_c, 0, 69, 106
2, 263090, Note_on_c, 0, 57, 100
2, 263092, Note_on_c, 0, 33, 101
2, 263092, Note_on_c, 0, 45, 102
2, 263118, Note_on_c, 0, 45, 0
2, 263118, Note_on_c, 0, 33, 0
2, 263125, Control_c, 0, 64, 127
2, 263137, Note_on_c, 0, 62, 0
2, 263156, Note_on_c, 0, 66, 0
2, 263167, Note_on_c, 0, 81, 0
2, 263167, Note_on_c, 0, 98, 104
2, 263171, Note_on_c, 0, 62, 97
2, 263173, Note_on_c, 0, 69, 0
2, 263173, Note_on_c, 0, 74, 0
2, 263173, Note_on_c, 0, 86, 0
2, 263173, Note_on_c, 0, 78, 0
2, 263179, Note_on_c, 0, 57, 0
2, 263188, Note_on_c, 0, 100, 103
2, 263192, Note_on_c, 0, 64, 97
2, 263211, Note_on_c, 0, 102, 103
2, 263215, Note_on_c, 0, 66, 97
2, 263222, Note_on_c, 0, 103, 104
2, 263224, Note_on_c, 0, 95, 101
2, 263225, Note_on_c, 0, 100, 0
2, 263225, Control_c, 0, 64, 0
2, 263232, Note_on_c, 0, 43, 98
2, 263232, Note_on_c, 0, 59, 98
2, 263234, Note_on_c, 0, 31, 97
2, 263236, Note_on_c, 0, 67, 96
2, 263240, Note_on_c, 0, 102, 0
2, 263244, Note_on_c, 0, 66, 0
2, 263248, Note_on_c, 0, 98, 0
2, 263254, Note_on_c, 0, 43, 0
2, 263258, Note_on_c, 0, 59, 0
2, 263260, Note_on_c, 0, 62, 0
2, 263260, Note_on_c, 0, 31, 0
2, 263264, Note_on_c, 0, 64, 0
2, 263264, Note_on_c, 0, 67, 0
2, 263266, Note_on_c, 0, 95, 0
2, 263292, Note_on_c, 0, 103, 0
2, 263320, Note_on_c, 0, 95, 98
2, 263320, Note_on_c, 0, 103, 99
2, 263334, Note_on_c, 0, 59, 93
2, 263334, Note_on_c, 0, 67, 92
2, 263343, Note_on_c, 0, 103, 0
2, 263351, Note_on_c, 0, 95, 0
2, 263353, Note_on_c, 0, 98, 95
2, 263353, Note_on_c, 0, 102, 94
2, 263357, Note_on_c, 0, 59, 0
2, 263357, Note_on_c, 0, 67, 0
2, 263357, Note_on_c, 0, 66, 87
2, 263374, Note_on_c, 0, 95, 87
2, 263374, Note_on_c, 0, 103, 89
2, 263387, Note_on_c, 0, 98, 0
2, 263387, Note_on_c, 0, 102, 0
2, 263387, Note_on_c, 0, 59, 88
2, 263387, Note_on_c, 0, 67, 81
2, 263393, Note_on_c, 0, 66, 0
2, 263406, Note_on_c, 0, 95, 0
2, 263410, Note_on_c, 0, 67, 0
2, 263412, Note_on_c, 0, 59, 0
2, 263422, Note_on_c, 0, 103, 0
2, 263448, Note_on_c, 0, 95, 77
2, 263448, Note_on_c, 0, 103, 78
2, 263457, Note_on_c, 0, 59, 81
2, 263457, Note_on_c, 0, 67, 71
2, 263480, Note_on_c, 0, 103, 0
2, 263480, Note_on_c, 0, 95, 0
2, 263482, Note_on_c, 0, 59, 0
2, 263484, Note_on_c, 0, 67, 0
2, 263522, Note_on_c, 0, 100, 72
2, 263524, Note_on_c, 0, 91, 71
2, 263531, Note_on_c, 0, 64, 69
2, 263531, Note_on_c, 0, 67, 70
2, 263533, Note_on_c, 0, 55, 75
2, 263533, Note_on_c, 0, 57, 74
2, 263552, Note_on_c, 0, 91, 0
2, 263554, Note_on_c, 0, 57, 0
2, 263556, Note_on_c, 0, 100, 0
2, 263558, Note_on_c, 0, 55, 0
2, 263560, Note_on_c, 0, 64, 0
2, 263560, Note_on_c, 0, 67, 0
2, 263591, Note_on_c, 0, 91, 75
2, 263591, Note_on_c, 0, 98, 79
2, 263595, Note_on_c, 0, 62, 73
2, 263597, Note_on_c, 0, 55, 73
2, 263597, Note_on_c, 0, 59, 73
2, 263597, Note_on_c, 0, 67, 73
2, 263618, Note_on_c, 0, 91, 0
2, 263622, Note_on_c, 0, 59, 0
2, 263622, Note_on_c, 0, 55, 0
2, 263624, Note_on_c, 0, 98, 0
2, 263624, Note_on_c, 0, 67, 0
2, 263626, Note_on_c, 0, 62, 0
2, 263673, Note_on_c, 0, 91, 78
2, 263673, Note_on_c, 0, 96, 81
2, 263677, Note_on_c, 0, 55, 73
2, 263677, Note_on_c, 0, 60, 73
2, 263677, Note_on_c, 0, 67, 79
2, 263728, Control_c, 0, 64, 127
2, 263729, Note_on_c, 0, 100, 81
2, 263744, Note_on_c, 0, 64, 74
2, 263752, Note_on_c, 0, 96, 0
2, 263754, Control_c, 0, 64, 0
2, 263758, Note_on_c, 0, 67, 0
2, 263758, Note_on_c, 0, 91, 0
2, 263760, Note_on_c, 0, 60, 0
2, 263771, Note_on_c, 0, 55, 0
2, 263779, Note_on_c, 0, 100, 0
2, 263799, Note_on_c, 0, 64, 0
2, 263813, Note_on_c, 0, 98, 82
2, 263824, Note_on_c, 0, 91, 81
2, 263825, Note_on_c, 0, 67, 76
2, 263827, Note_on_c, 0, 43, 83
2, 263827, Note_on_c, 0, 62, 84
2, 263829, Note_on_c, 0, 50, 85
2, 263829, Note_on_c, 0, 59, 86
2, 263831, Note_on_c, 0, 31, 87
2, 263848, Note_on_c, 0, 91, 0
2, 263848, Note_on_c, 0, 98, 0
2, 263850, Note_on_c, 0, 62, 0
2, 263850, Note_on_c, 0, 67, 0
2, 263852, Note_on_c, 0, 59, 0
2, 263854, Note_on_c, 0, 31, 0
2, 263854, Note_on_c, 0, 50, 0
2, 263854, Note_on_c, 0, 43, 0
2, 263854, Control_c, 0, 64, 127
2, 263907, Note_on_c, 0, 91, 72
2, 263907, Note_on_c, 0, 98, 75
2, 263911, Note_on_c, 0, 62, 75
2, 263937, Control_c, 0, 64, 0
2, 263937, Note_on_c, 0, 97, 75
2, 263944, Note_on_c, 0, 98, 0
2, 263944, Note_on_c, 0, 91, 0
2, 263945, Note_on_c, 0, 62, 0
2, 263949, Note_on_c, 0, 61, 71
2, 263964, Note_on_c, 0, 91, 74
2, 263966, Note_on_c, 0, 98, 79
2, 263976, Note_on_c, 0, 62, 70
2, 263978, Note_on_c, 0, 97, 0
2, 263989, Note_on_c, 0, 61, 0
2, 263997, Note_on_c, 0, 91, 0
2, 263999, Control_c, 0, 64, 127
2, 264003, Note_on_c, 0, 98, 0
2, 264010, Note_on_c, 0, 62, 0
2, 264040, Note_on_c, 0, 62, 69
2, 264043, Note_on_c, 0, 91, 72
2, 264043, Note_on_c, 0, 98, 75
2, 264052, Control_c, 0, 64, 0
2, 264071, Note_on_c, 0, 98, 0
2, 264071, Note_on_c, 0, 91, 0
2, 264084, Note_on_c, 0, 62, 0
2, 264122, Note_on_c, 0, 50, 72
2, 264122, Note_on_c, 0, 52, 73
2, 264122, Note_on_c, 0, 55, 72
2, 264124, Note_on_c, 0, 86, 76
2, 264124, Note_on_c, 0, 95, 76
2, 264126, Note_on_c, 0, 61, 73
2, 264128, Note_on_c, 0, 71, 74
2, 264147, Note_on_c, 0, 52, 0
2, 264147, Note_on_c, 0, 50, 0
2, 264149, Note_on_c, 0, 55, 0
2, 264151, Note_on_c, 0, 86, 0
2, 264155, Note_on_c, 0, 95, 0
2, 264157, Note_on_c, 0, 71, 0
2, 264160, Note_on_c, 0, 61, 0
2, 264192, Note_on_c, 0, 86, 75
2, 264194, Note_on_c, 0, 93, 76
2, 264196, Note_on_c, 0, 54, 73
2, 264196, Note_on_c, 0, 57, 73
2, 264196, Note_on_c, 0, 60, 72
2, 264196, Note_on_c, 0, 69, 74
2, 264198, Note_on_c, 0, 50, 73
2, 264221, Note_on_c, 0, 57, 0
2, 264221, Note_on_c, 0, 54, 0
2, 264223, Note_on_c, 0, 50, 0
2, 264227, Note_on_c, 0, 60, 0
2, 264227, Note_on_c, 0, 86, 0
2, 264227, Note_on_c, 0, 93, 0
2, 264227, Note_on_c, 0, 69, 0
2, 264269, Note_on_c, 0, 86, 74
2, 264269, Note_on_c, 0, 91, 69
2, 264271, Note_on_c, 0, 67, 65
2, 264273, Note_on_c, 0, 50, 73
2, 264273, Note_on_c, 0, 55, 73
2, 264275, Note_on_c, 0, 59, 72
2, 264296, Note_on_c, 0, 91, 0
2, 264296, Note_on_c, 0, 86, 0
2, 264303, Note_on_c, 0, 67, 0
2, 264304, Note_on_c, 0, 59, 0
2, 264308, Note_on_c, 0, 55, 0
2, 264308, Note_on_c, 0, 50, 0
2, 264351, Note_on_c, 0, 50, 73
2, 264351, Note_on_c, 0, 95, 72
2, 264352, Note_on_c, 0, 43, 70
2, 264356, Note_on_c, 0, 79, 69
2, 264358, Note_on_c, 0, 31, 69
2, 264379, Note_on_c, 0, 98, 73
2, 264381, Note_on_c, 0, 86, 69
2, 264383, Note_on_c, 0, 43, 0
2, 264385, Note_on_c, 0, 31, 0
2, 264385, Note_on_c, 0, 50, 0
2, 264389, Note_on_c, 0, 79, 0
2, 264389, Note_on_c, 0, 95, 0
2, 264391, Note_on_c, 0, 60, 67
2, 264391, Note_on_c, 0, 72, 66
2, 264391, Note_on_c, 0, 78, 65
2, 264391, Note_on_c, 0, 93, 68
2, 264403, Note_on_c, 0, 98, 0
2, 264405, Note_on_c, 0, 86, 0
2, 264416, Note_on_c, 0, 78, 0
2, 264416, Note_on_c, 0, 93, 0
2, 264420, Control_c, 0, 64, 127
2, 264448, Note_on_c, 0, 72, 0
2, 264477, Note_on_c, 0, 78, 66
2, 264477, Note_on_c, 0, 93, 68
2, 264479, Note_on_c, 0, 60, 0
2, 264481, Note_on_c, 0, 43, 65
2, 264481, Note_on_c, 0, 50, 65
2, 264485, Note_on_c, 0, 31, 64
2, 264496, Control_c, 0, 64, 0
2, 264508, Note_on_c, 0, 31, 0
2, 264508, Note_on_c, 0, 43, 0
2, 264508, Note_on_c, 0, 78, 0
2, 264508, Note_on_c, 0, 93, 0
2, 264508, Note_on_c, 0, 50, 0
2, 264508, Note_on_c, 0, 98, 71
2, 264512, Note_on_c, 0, 86, 67
2, 264535, Note_on_c, 0, 91, 68
2, 264542, Note_on_c, 0, 71, 66
2, 264542, Note_on_c, 0, 76, 66
2, 264544, Note_on_c, 0, 59, 67
2, 264556, Note_on_c, 0, 98, 0
2, 264558, Note_on_c, 0, 86, 0
2, 264565, Note_on_c, 0, 76, 0
2, 264573, Note_on_c, 0, 91, 0
2, 264586, Control_c, 0, 64, 127
2, 264614, Note_on_c, 0, 71, 0
2, 264616, Control_c, 0, 64, 0
2, 264622, Note_on_c, 0, 91, 70
2, 264626, Note_on_c, 0, 76, 69
2, 264628, Note_on_c, 0, 50, 68
2, 264630, Note_on_c, 0, 31, 69
2, 264632, Note_on_c, 0, 43, 69
2, 264640, Note_on_c, 0, 59, 0
2, 264649, Note_on_c, 0, 98, 75
2, 264653, Note_on_c, 0, 50, 0
2, 264653, Note_on_c, 0, 86, 72
2, 264655, Note_on_c, 0, 91, 0
2, 264655, Note_on_c, 0, 31, 0
2, 264655, Note_on_c, 0, 43, 0
2, 264657, Note_on_c, 0, 76, 0
2, 264693, Note_on_c, 0, 90, 72
2, 264695, Note_on_c, 0, 69, 70
2, 264695, Note_on_c, 0, 74, 70
2, 264699, Note_on_c, 0, 57, 73
2, 264708, Note_on_c, 0, 86, 0
2, 264712, Note_on_c, 0, 98, 0
2, 264726, Note_on_c, 0, 74, 0
2, 264726, Note_on_c, 0, 90, 0
2, 264756, Control_c, 0, 64, 127
2, 264777, Note_on_c, 0, 69, 0
2, 264777, Note_on_c, 0, 57, 0
2, 264777, Note_on_c, 0, 74, 69
2, 264777, Note_on_c, 0, 90, 72
2, 264781, Note_on_c, 0, 43, 69
2, 264781, Note_on_c, 0, 50, 69
2, 264783, Control_c, 0, 64, 0
2, 264783, Note_on_c, 0, 31, 69
2, 264804, Note_on_c, 0, 31, 0
2, 264806, Note_on_c, 0, 43, 0
2, 264806, Note_on_c, 0, 50, 0
2, 264806, Note_on_c, 0, 74, 0
2, 264808, Note_on_c, 0, 98, 74
2, 264809, Note_on_c, 0, 86, 72
2, 264822, Note_on_c, 0, 90, 0
2, 264832, Note_on_c, 0, 93, 72
2, 264839, Note_on_c, 0, 78, 70
2, 264841, Note_on_c, 0, 60, 72
2, 264841, Note_on_c, 0, 72, 70
2, 264852, Note_on_c, 0, 98, 0
2, 264862, Note_on_c, 0, 86, 0
2, 264864, Note_on_c, 0, 78, 0
2, 264864, Note_on_c, 0, 93, 0
2, 264875, Control_c, 0, 64, 127
2, 264904, Control_c, 0, 64, 0
2, 264919, Note_on_c, 0, 72, 0
2, 264933, Note_on_c, 0, 78, 70
2, 264933, Note_on_c, 0, 93, 73
2, 264935, Note_on_c, 0, 60, 0
2, 264937, Note_on_c, 0, 50, 72
2, 264939, Note_on_c, 0, 31, 73
2, 264939, Note_on_c, 0, 43, 74
2, 264952, Note_on_c, 0, 98, 77
2, 264953, Note_on_c, 0, 86, 75
2, 264960, Note_on_c, 0, 43, 0
2, 264960, Note_on_c, 0, 50, 0
2, 264962, Note_on_c, 0, 31, 0
2, 264962, Note_on_c, 0, 93, 0
2, 264964, Note_on_c, 0, 78, 0
2, 264994, Note_on_c, 0, 79, 74
2, 264994, Note_on_c, 0, 95, 76
2, 265000, Note_on_c, 0, 74, 73
2, 265002, Note_on_c, 0, 98, 0
2, 265004, Note_on_c, 0, 62, 77
2, 265008, Note_on_c, 0, 86, 0
2, 265017, Note_on_c, 0, 95, 0
2, 265027, Note_on_c, 0, 79, 0
2, 265038, Control_c, 0, 64, 127
2, 265055, Note_on_c, 0, 74, 0
2, 265068, Control_c, 0, 64, 0
2, 265072, Note_on_c, 0, 95, 76
2, 265075, Note_on_c, 0, 79, 74
2, 265082, Note_on_c, 0, 43, 73
2, 265082, Note_on_c, 0, 50, 73
2, 265086, Note_on_c, 0, 62, 0
2, 265086, Note_on_c, 0, 31, 72
2, 265107, Note_on_c, 0, 31, 0
2, 265107, Note_on_c, 0, 50, 0
2, 265107, Note_on_c, 0, 43, 0
2, 265107, Note_on_c, 0, 98, 79
2, 265109, Note_on_c, 0, 79, 0
2, 265109, Note_on_c, 0, 86, 76
2, 265113, Note_on_c, 0, 95, 0
2, 265141, Note_on_c, 0, 91, 76
2, 265147, Note_on_c, 0, 71, 74
2, 265147, Note_on_c, 0, 76, 74
2, 265151, Note_on_c, 0, 59, 76
2, 265158, Control_c, 0, 64, 127
2, 265160, Note_on_c, 0, 98, 0
2, 265170, Note_on_c, 0, 86, 0
2, 265177, Note_on_c, 0, 76, 0
2, 265179, Note_on_c, 0, 91, 0
2, 265186, Note_on_c, 0, 71, 0
2, 265194, Note_on_c, 0, 59, 0
2, 265214, Note_on_c, 0, 91, 75
2, 265216, Note_on_c, 0, 76, 74
2, 265217, Note_on_c, 0, 50, 74
2, 265224, Note_on_c, 0, 31, 73
2, 265224, Note_on_c, 0, 43, 73
2, 265228, Control_c, 0, 64, 0
2, 265245, Note_on_c, 0, 43, 0
2, 265245, Note_on_c, 0, 50, 0
2, 265245, Note_on_c, 0, 31, 0
2, 265247, Note_on_c, 0, 76, 0
2, 265249, Note_on_c, 0, 86, 76
2, 265249, Note_on_c, 0, 98, 79
2, 265262, Note_on_c, 0, 91, 0
2, 265287, Note_on_c, 0, 78, 74
2, 265287, Note_on_c, 0, 93, 76
2, 265288, Note_on_c, 0, 60, 77
2, 265288, Note_on_c, 0, 72, 74
2, 265290, Control_c, 0, 64, 127
2, 265299, Note_on_c, 0, 98, 0
2, 265313, Note_on_c, 0, 86, 0
2, 265320, Note_on_c, 0, 93, 0
2, 265320, Note_on_c, 0, 78, 0
2, 265320, Control_c, 0, 64, 0
2, 265322, Note_on_c, 0, 72, 0
2, 265322, Note_on_c, 0, 60, 0
2, 265360, Note_on_c, 0, 91, 76
2, 265362, Note_on_c, 0, 67, 73
2, 265362, Note_on_c, 0, 71, 74
2, 265364, Note_on_c, 0, 76, 73
2, 265366, Note_on_c, 0, 43, 74
2, 265366, Note_on_c, 0, 59, 73
2, 265370, Note_on_c, 0, 31, 72
2, 265370, Note_on_c, 0, 50, 73
2, 265395, Note_on_c, 0, 71, 0
2, 265395, Note_on_c, 0, 67, 0
2, 265397, Note_on_c, 0, 50, 0
2, 265397, Note_on_c, 0, 43, 0
2, 265397, Note_on_c, 0, 31, 0
2, 265404, Note_on_c, 0, 59, 0
2, 265406, Note_on_c, 0, 91, 0
2, 265408, Note_on_c, 0, 76, 0
2, 265437, Note_on_c, 0, 93, 75
2, 265439, Note_on_c, 0, 69, 75
2, 265441, Note_on_c, 0, 50, 67
2, 265441, Note_on_c, 0, 60, 66
2, 265441, Note_on_c, 0, 72, 76
2, 265441, Note_on_c, 0, 78, 77
2, 265443, Note_on_c, 0, 43, 65
2, 265445, Note_on_c, 0, 31, 64
2, 265449, Control_c, 0, 64, 127
2, 265468, Note_on_c, 0, 93, 0
2, 265470, Note_on_c, 0, 72, 0
2, 265472, Note_on_c, 0, 60, 0
2, 265474, Note_on_c, 0, 50, 0
2, 265474, Note_on_c, 0, 43, 0
2, 265476, Note_on_c, 0, 31, 0
2, 265476, Note_on_c, 0, 69, 0
2, 265484, Note_on_c, 0, 78, 0
2, 265484, Control_c, 0, 64, 0
2, 265504, Note_on_c, 0, 98, 85
2, 265507, Note_on_c, 0, 62, 72
2, 265525, Note_on_c, 0, 100, 86
2, 265531, Note_on_c, 0, 64, 80
2, 265540, Note_on_c, 0, 98, 0
2, 265547, Note_on_c, 0, 66, 80
2, 265549, Note_on_c, 0, 102, 86
2, 265566, Note_on_c, 0, 95, 85
2, 265566, Note_on_c, 0, 103, 90
2, 265573, Note_on_c, 0, 67, 85
2, 265575, Note_on_c, 0, 43, 88
2, 265576, Note_on_c, 0, 59, 89
2, 265578, Note_on_c, 0, 100, 0
2, 265578, Note_on_c, 0, 31, 90
2, 265578, Note_on_c, 0, 38, 91
2, 265582, Note_on_c, 0, 66, 0
2, 265582, Control_c, 0, 64, 127
2, 265591, Note_on_c, 0, 62, 0
2, 265593, Note_on_c, 0, 102, 0
2, 265595, Note_on_c, 0, 64, 0
2, 265605, Note_on_c, 0, 95, 0
2, 265607, Note_on_c, 0, 43, 0
2, 265607, Note_on_c, 0, 38, 0
2, 265609, Note_on_c, 0, 31, 0
2, 265609, Note_on_c, 0, 67, 0
2, 265611, Note_on_c, 0, 59, 0
2, 265611, Note_on_c, 0, 103, 0
2, 265630, Control_c, 0, 64, 0
2, 265649, Note_on_c, 0, 103, 81
2, 265651, Note_on_c, 0, 95, 76
2, 265655, Note_on_c, 0, 67, 72
2, 265685, Note_on_c, 0, 95, 0
2, 265685, Note_on_c, 0, 103, 0
2, 265687, Note_on_c, 0, 67, 0
2, 265691, Note_on_c, 0, 98, 73
2, 265693, Note_on_c, 0, 102, 72
2, 265696, Note_on_c, 0, 66, 65
2, 265714, Note_on_c, 0, 95, 70
2, 265714, Note_on_c, 0, 103, 75
2, 265720, Note_on_c, 0, 67, 70
2, 265724, Note_on_c, 0, 102, 0
2, 265724, Note_on_c, 0, 98, 0
2, 265731, Note_on_c, 0, 66, 0
2, 265756, Note_on_c, 0, 95, 0
2, 265758, Note_on_c, 0, 67, 0
2, 265762, Note_on_c, 0, 103, 0
2, 265787, Note_on_c, 0, 95, 68
2, 265789, Note_on_c, 0, 103, 71
2, 265795, Note_on_c, 0, 67, 65
2, 265823, Note_on_c, 0, 103, 0
2, 265823, Note_on_c, 0, 95, 0
2, 265834, Note_on_c, 0, 67, 0
2, 265869, Note_on_c, 0, 91, 73
2, 265869, Note_on_c, 0, 100, 79
2, 265871, Note_on_c, 0, 64, 74
2, 265871, Note_on_c, 0, 67, 75
2, 265873, Note_on_c, 0, 57, 72
2, 265877, Note_on_c, 0, 55, 73
2, 265898, Note_on_c, 0, 57, 0
2, 265900, Note_on_c, 0, 100, 0
2, 265900, Note_on_c, 0, 91, 0
2, 265900, Note_on_c, 0, 55, 0
2, 265904, Note_on_c, 0, 67, 0
2, 265904, Note_on_c, 0, 64, 0
2, 265946, Note_on_c, 0, 91, 78
2, 265946, Note_on_c, 0, 98, 84
2, 265950, Note_on_c, 0, 62, 73
2, 265950, Note_on_c, 0, 67, 79
2, 265952, Note_on_c, 0, 55, 73
2, 265952, Note_on_c, 0, 59, 73
2, 265973, Note_on_c, 0, 59, 0
2, 265975, Note_on_c, 0, 98, 0
2, 265975, Note_on_c, 0, 91, 0
2, 265975, Note_on_c, 0, 55, 0
2, 265982, Note_on_c, 0, 67, 0
2, 265982, Note_on_c, 0, 62, 0
2, 266017, Note_on_c, 0, 91, 76
2, 266017, Note_on_c, 0, 96, 72
2, 266021, Note_on_c, 0, 67, 68
2, 266023, Note_on_c, 0, 55, 66
2, 266023, Note_on_c, 0, 60, 65
2, 266063, Note_on_c, 0, 67, 0
2, 266065, Note_on_c, 0, 55, 0
2, 266082, Control_c, 0, 64, 127
2, 266086, Note_on_c, 0, 60, 0
2, 266086, Note_on_c, 0, 100, 79
2, 266090, Note_on_c, 0, 96, 0
2, 266092, Note_on_c, 0, 91, 0
2, 266092, Note_on_c, 0, 64, 73
2, 266109, Control_c, 0, 64, 0
2, 266116, Note_on_c, 0, 100, 0
2, 266137, Note_on_c, 0, 64, 0
2, 266162, Note_on_c, 0, 91, 79
2, 266162, Note_on_c, 0, 98, 85
2, 266169, Note_on_c, 0, 62, 78
2, 266169, Note_on_c, 0, 67, 80
2, 266171, Note_on_c, 0, 31, 79
2, 266171, Note_on_c, 0, 43, 80
2, 266175, Note_on_c, 0, 38, 81
2, 266192, Note_on_c, 0, 98, 0
2, 266192, Note_on_c, 0, 91, 0
2, 266194, Note_on_c, 0, 67, 0
2, 266194, Control_c, 0, 64, 127
2, 266196, Note_on_c, 0, 62, 0
2, 266200, Note_on_c, 0, 38, 0
2, 266201, Note_on_c, 0, 31, 0
2, 266201, Note_on_c, 0, 43, 0
2, 266235, Note_on_c, 0, 91, 74
2, 266235, Note_on_c, 0, 98, 76
2, 266239, Note_on_c, 0, 62, 72
2, 266246, Control_c, 0, 64, 0
2, 266275, Note_on_c, 0, 62, 0
2, 266277, Note_on_c, 0, 91, 0
2, 266281, Note_on_c, 0, 98, 0
2, 266281, Note_on_c, 0, 95, 72
2, 266283, Note_on_c, 0, 97, 74
2, 266290, Note_on_c, 0, 61, 69
2, 266304, Note_on_c, 0, 91, 69
2, 266304, Note_on_c, 0, 98, 72
2, 266308, Note_on_c, 0, 62, 69
2, 266317, Note_on_c, 0, 97, 0
2, 266317, Note_on_c, 0, 95, 0
2, 266320, Note_on_c, 0, 61, 0
2, 266333, Note_on_c, 0, 98, 0
2, 266337, Note_on_c, 0, 91, 0
2, 266351, Note_on_c, 0, 62, 0
2, 266379, Note_on_c, 0, 91, 74
2, 266379, Note_on_c, 0, 98, 78
2, 266381, Note_on_c, 0, 62, 71
2, 266413, Note_on_c, 0, 98, 0
2, 266413, Note_on_c, 0, 91, 0
2, 266416, Note_on_c, 0, 62, 0
2, 266450, Note_on_c, 0, 95, 76
2, 266454, Note_on_c, 0, 61, 73
2, 266454, Note_on_c, 0, 71, 74
2, 266454, Note_on_c, 0, 86, 75
2, 266458, Note_on_c, 0, 50, 73
2, 266458, Note_on_c, 0, 52, 73
2, 266479, Note_on_c, 0, 52, 0
2, 266479, Note_on_c, 0, 50, 0
2, 266483, Note_on_c, 0, 95, 0
2, 266485, Note_on_c, 0, 61, 0
2, 266485, Note_on_c, 0, 86, 0
2, 266488, Note_on_c, 0, 71, 0
2, 266529, Note_on_c, 0, 60, 73
2, 266529, Note_on_c, 0, 69, 74
2, 266529, Note_on_c, 0, 86, 75
2, 266529, Note_on_c, 0, 93, 76
2, 266533, Note_on_c, 0, 50, 73
2, 266533, Note_on_c, 0, 54, 73
2, 266558, Note_on_c, 0, 54, 0
2, 266560, Note_on_c, 0, 93, 0
2, 266560, Note_on_c, 0, 50, 0
2, 266563, Note_on_c, 0, 69, 0
2, 266563, Note_on_c, 0, 86, 0
2, 266565, Note_on_c, 0, 60, 0
2, 266608, Note_on_c, 0, 86, 78
2, 266608, Note_on_c, 0, 91, 81
2, 266609, Note_on_c, 0, 67, 79
2, 266611, Note_on_c, 0, 50, 73
2, 266611, Note_on_c, 0, 55, 73
2, 266611, Note_on_c, 0, 59, 72
2, 266639, Note_on_c, 0, 91, 0
2, 266639, Note_on_c, 0, 86, 0
2, 266641, Note_on_c, 0, 67, 0
2, 266643, Note_on_c, 0, 50, 0
2, 266643, Note_on_c, 0, 55, 0
2, 266643, Note_on_c, 0, 59, 0
2, 266685, Note_on_c, 0, 95, 75
2, 266692, Control_c, 0, 64, 127
2, 266694, Note_on_c, 0, 79, 70
2, 266698, Note_on_c, 0, 31, 69
2, 266698, Note_on_c, 0, 43, 68
2, 266712, Note_on_c, 0, 98, 74
2, 266714, Note_on_c, 0, 86, 70
2, 266716, Control_c, 0, 64, 0
2, 266720, Note_on_c, 0, 43, 0
2, 266722, Note_on_c, 0, 31, 0
2, 266722, Note_on_c, 0, 79, 0
2, 266726, Note_on_c, 0, 95, 0
2, 266749, Note_on_c, 0, 93, 68
2, 266751, Note_on_c, 0, 60, 69
2, 266752, Note_on_c, 0, 72, 66
2, 266752, Note_on_c, 0, 78, 66
2, 266754, Note_on_c, 0, 86, 0
2, 266758, Note_on_c, 0, 98, 0
2, 266779, Note_on_c, 0, 78, 0
2, 266786, Note_on_c, 0, 93, 0
2, 266811, Note_on_c, 0, 72, 0
2, 266815, Note_on_c, 0, 60, 0
2, 266819, Control_c, 0, 64, 127
2, 266825, Note_on_c, 0, 78, 66
2, 266827, Note_on_c, 0, 50, 65
2, 266829, Note_on_c, 0, 43, 65
2, 266829, Note_on_c, 0, 93, 68
2, 266836, Note_on_c, 0, 31, 65
2, 266845, Control_c, 0, 64, 0
2, 266857, Note_on_c, 0, 86, 68
2, 266857, Note_on_c, 0, 98, 71
2, 266864, Note_on_c, 0, 31, 0
2, 266864, Note_on_c, 0, 43, 0
2, 266864, Note_on_c, 0, 50, 0
2, 266866, Note_on_c, 0, 78, 0
2, 266870, Note_on_c, 0, 93, 0
2, 266895, Note_on_c, 0, 91, 68
2, 266896, Note_on_c, 0, 71, 66
2, 266898, Note_on_c, 0, 76, 66
2, 266900, Note_on_c, 0, 86, 0
2, 266900, Note_on_c, 0, 59, 67
2, 266913, Note_on_c, 0, 98, 0
2, 266930, Note_on_c, 0, 91, 0
2, 266937, Note_on_c, 0, 76, 0
2, 266945, Control_c, 0, 64, 127
2, 266958, Note_on_c, 0, 71, 0
2, 266968, Note_on_c, 0, 76, 69
2, 266970, Note_on_c, 0, 59, 0
2, 266972, Note_on_c, 0, 43, 69
2, 266972, Note_on_c, 0, 50, 69
2, 266972, Note_on_c, 0, 91, 72
2, 266974, Control_c, 0, 64, 0
2, 266976, Note_on_c, 0, 31, 69
2, 266997, Note_on_c, 0, 50, 0
2, 266999, Note_on_c, 0, 31, 0
2, 266999, Note_on_c, 0, 43, 0
2, 266999, Note_on_c, 0, 98, 75
2, 267003, Note_on_c, 0, 86, 71
2, 267012, Note_on_c, 0, 91, 0
2, 267014, Note_on_c, 0, 76, 0
2, 267035, Note_on_c, 0, 74, 70
2, 267035, Note_on_c, 0, 90, 72
2, 267037, Note_on_c, 0, 69, 69
2, 267039, Note_on_c, 0, 57, 72
2, 267047, Note_on_c, 0, 98, 0
2, 267049, Note_on_c, 0, 86, 0
2, 267068, Control_c, 0, 64, 127
2, 267077, Note_on_c, 0, 90, 0
2, 267077, Note_on_c, 0, 74, 0
2, 267115, Note_on_c, 0, 57, 0
2, 267122, Note_on_c, 0, 74, 70
2, 267122, Note_on_c, 0, 90, 72
2, 267124, Note_on_c, 0, 69, 0
2, 267126, Note_on_c, 0, 50, 69
2, 267128, Note_on_c, 0, 31, 69
2, 267128, Note_on_c, 0, 43, 69
2, 267147, Control_c, 0, 64, 0
2, 267147, Note_on_c, 0, 86, 72
2, 267147, Note_on_c, 0, 98, 74
2, 267149, Note_on_c, 0, 43, 0
2, 267149, Note_on_c, 0, 50, 0
2, 267156, Note_on_c, 0, 31, 0
2, 267162, Note_on_c, 0, 74, 0
2, 267162, Note_on_c, 0, 90, 0
2, 267182, Note_on_c, 0, 93, 71
2, 267184, Note_on_c, 0, 60, 69
2, 267184, Note_on_c, 0, 78, 70
2, 267187, Note_on_c, 0, 72, 69
2, 267191, Note_on_c, 0, 98, 0
2, 267195, Note_on_c, 0, 86, 0
2, 267214, Note_on_c, 0, 93, 0
2, 267225, Note_on_c, 0, 78, 0
2, 267246, Control_c, 0, 64, 127
2, 267260, Note_on_c, 0, 72, 0
2, 267271, Note_on_c, 0, 60, 0
2, 267275, Control_c, 0, 64, 0
2, 267277, Note_on_c, 0, 93, 74
2, 267279, Note_on_c, 0, 50, 73
2, 267279, Note_on_c, 0, 78, 73
2, 267282, Note_on_c, 0, 31, 74
2, 267282, Note_on_c, 0, 43, 73
2, 267304, Note_on_c, 0, 86, 76
2, 267304, Note_on_c, 0, 98, 79
2, 267305, Note_on_c, 0, 43, 0
2, 267305, Note_on_c, 0, 50, 0
2, 267307, Note_on_c, 0, 31, 0
2, 267311, Note_on_c, 0, 93, 0
2, 267315, Note_on_c, 0, 78, 0
2, 267338, Note_on_c, 0, 95, 76
2, 267340, Note_on_c, 0, 74, 74
2, 267340, Note_on_c, 0, 79, 74
2, 267342, Note_on_c, 0, 62, 76
2, 267346, Note_on_c, 0, 98, 0
2, 267352, Note_on_c, 0, 86, 0
2, 267361, Control_c, 0, 64, 127
2, 267380, Note_on_c, 0, 95, 0
2, 267382, Note_on_c, 0, 79, 0
2, 267391, Note_on_c, 0, 74, 0
2, 267412, Note_on_c, 0, 62, 0
2, 267416, Note_on_c, 0, 79, 74
2, 267416, Note_on_c, 0, 95, 76
2, 267423, Note_on_c, 0, 50, 74
2, 267426, Note_on_c, 0, 31, 73
2, 267426, Note_on_c, 0, 43, 73
2, 267439, Control_c, 0, 64, 0
2, 267448, Note_on_c, 0, 43, 0
2, 267448, Note_on_c, 0, 50, 0
2, 267448, Note_on_c, 0, 31, 0
2, 267449, Note_on_c, 0, 98, 79
2, 267451, Note_on_c, 0, 86, 76
2, 267458, Note_on_c, 0, 79, 0
2, 267462, Note_on_c, 0, 95, 0
2, 267485, Note_on_c, 0, 93, 76
2, 267487, Note_on_c, 0, 72, 74
2, 267487, Note_on_c, 0, 78, 74
2, 267491, Note_on_c, 0, 86, 0
2, 267491, Note_on_c, 0, 60, 74
2, 267495, Note_on_c, 0, 98, 0
2, 267501, Control_c, 0, 64, 127
2, 267529, Note_on_c, 0, 72, 0
2, 267531, Note_on_c, 0, 93, 0
2, 267533, Note_on_c, 0, 78, 0
2, 267537, Note_on_c, 0, 60, 0
2, 267565, Note_on_c, 0, 78, 74
2, 267565, Note_on_c, 0, 93, 76
2, 267568, Note_on_c, 0, 50, 73
2, 267570, Note_on_c, 0, 31, 73
2, 267570, Note_on_c, 0, 43, 73
2, 267574, Control_c, 0, 64, 0
2, 267589, Note_on_c, 0, 98, 79
2, 267591, Note_on_c, 0, 43, 0
2, 267591, Note_on_c, 0, 50, 0
2, 267591, Note_on_c, 0, 86, 76
2, 267597, Note_on_c, 0, 31, 0
2, 267599, Note_on_c, 0, 93, 0
2, 267601, Note_on_c, 0, 78, 0
2, 267622, Note_on_c, 0, 91, 76
2, 267626, Note_on_c, 0, 71, 74
2, 267626, Note_on_c, 0, 76, 74
2, 267630, Note_on_c, 0, 59, 74
2, 267637, Note_on_c, 0, 98, 0
2, 267639, Note_on_c, 0, 86, 0
2, 267656, Note_on_c, 0, 91, 0
2, 267658, Note_on_c, 0, 76, 0
2, 267658, Control_c, 0, 64, 127
2, 267664, Note_on_c, 0, 71, 0
2, 267666, Note_on_c, 0, 59, 0
2, 267688, Control_c, 0, 64, 0
2, 267698, Note_on_c, 0, 91, 76
2, 267702, Note_on_c, 0, 76, 74
2, 267704, Note_on_c, 0, 50, 73
2, 267706, Note_on_c, 0, 31, 73
2, 267706, Note_on_c, 0, 43, 73
2, 267725, Note_on_c, 0, 86, 76
2, 267725, Note_on_c, 0, 98, 79
2, 267729, Note_on_c, 0, 43, 0
2, 267729, Note_on_c, 0, 50, 0
2, 267733, Note_on_c, 0, 31, 0
2, 267736, Note_on_c, 0, 91, 0
2, 267738, Note_on_c, 0, 76, 0
2, 267756, Note_on_c, 0, 95, 76
2, 267760, Note_on_c, 0, 79, 74
2, 267761, Note_on_c, 0, 62, 74
2, 267761, Note_on_c, 0, 74, 74
2, 267770, Note_on_c, 0, 98, 0
2, 267774, Note_on_c, 0, 86, 0
2, 267778, Control_c, 0, 64, 127
2, 267792, Note_on_c, 0, 74, 0
2, 267799, Note_on_c, 0, 95, 0
2, 267801, Note_on_c, 0, 79, 0
2, 267805, Control_c, 0, 64, 0
2, 267807, Note_on_c, 0, 62, 0
2, 267834, Note_on_c, 0, 95, 75
2, 267838, Note_on_c, 0, 79, 74
2, 267840, Note_on_c, 0, 50, 73
2, 267842, Note_on_c, 0, 31, 73
2, 267842, Note_on_c, 0, 43, 73
2, 267863, Note_on_c, 0, 98, 79
2, 267865, Note_on_c, 0, 86, 76
2, 267867, Note_on_c, 0, 43, 0
2, 267867, Note_on_c, 0, 50, 0
2, 267869, Note_on_c, 0, 31, 0
2, 267876, Note_on_c, 0, 95, 0
2, 267886, Note_on_c, 0, 79, 0
2, 267893, Note_on_c, 0, 78, 74
2, 267893, Note_on_c, 0, 93, 76
2, 267897, Note_on_c, 0, 60, 73
2, 267907, Note_on_c, 0, 98, 0
2, 267916, Note_on_c, 0, 86, 0
2, 267933, Note_on_c, 0, 62, 76
2, 267940, Note_on_c, 0, 93, 0
2, 267942, Note_on_c, 0, 78, 0
2, 267949, Note_on_c, 0, 60, 0
2, 267959, Control_c, 0, 64, 127
2, 267966, Note_on_c, 0, 93, 79
2, 267968, Note_on_c, 0, 78, 78
2, 267970, Note_on_c, 0, 50, 75
2, 267970, Note_on_c, 0, 72, 79
2, 267972, Note_on_c, 0, 31, 74
2, 267972, Note_on_c, 0, 43, 73
2, 267986, Control_c, 0, 64, 0
2, 267995, Note_on_c, 0, 50, 0
2, 267999, Note_on_c, 0, 31, 0
2, 267999, Note_on_c, 0, 43, 0
2, 268000, Note_on_c, 0, 72, 0
2, 268004, Note_on_c, 0, 78, 0
2, 268004, Note_on_c, 0, 86, 76
2, 268004, Note_on_c, 0, 98, 78
2, 268006, Note_on_c, 0, 62, 0
2, 268017, Note_on_c, 0, 93, 0
2, 268036, Note_on_c, 0, 91, 76
2, 268040, Note_on_c, 0, 76, 74
2, 268044, Note_on_c, 0, 59, 73
2, 268048, Note_on_c, 0, 98, 0
2, 268054, Note_on_c, 0, 86, 0
2, 268063, Control_c, 0, 64, 127
2, 268072, Note_on_c, 0, 91, 0
2, 268072, Note_on_c, 0, 62, 75
2, 268075, Note_on_c, 0, 76, 0
2, 268086, Note_on_c, 0, 59, 0
2, 268103, Note_on_c, 0, 91, 77
2, 268107, Note_on_c, 0, 71, 77
2, 268107, Note_on_c, 0, 76, 78
2, 268109, Note_on_c, 0, 50, 74
2, 268113, Note_on_c, 0, 31, 73
2, 268113, Note_on_c, 0, 43, 73
2, 268121, Note_on_c, 0, 62, 0
2, 268134, Control_c, 0, 64, 0
2, 268136, Note_on_c, 0, 50, 0
2, 268136, Note_on_c, 0, 98, 81
2, 268138, Note_on_c, 0, 71, 0
2, 268138, Note_on_c, 0, 31, 0
2, 268138, Note_on_c, 0, 43, 0
2, 268140, Note_on_c, 0, 76, 0
2, 268140, Note_on_c, 0, 86, 76
2, 268150, Note_on_c, 0, 91, 0
2, 268173, Note_on_c, 0, 74, 74
2, 268173, Note_on_c, 0, 90, 76
2, 268180, Note_on_c, 0, 57, 73
2, 268182, Note_on_c, 0, 86, 0
2, 268186, Note_on_c, 0, 98, 0
2, 268196, Control_c, 0, 64, 127
2, 268211, Note_on_c, 0, 62, 75
2, 268215, Note_on_c, 0, 74, 0
2, 268216, Note_on_c, 0, 90, 0
2, 268225, Note_on_c, 0, 57, 0
2, 268225, Control_c, 0, 64, 0
2, 268244, Note_on_c, 0, 90, 78
2, 268248, Note_on_c, 0, 50, 76
2, 268248, Note_on_c, 0, 69, 78
2, 268248, Note_on_c, 0, 74, 79
2, 268250, Note_on_c, 0, 31, 75
2, 268252, Note_on_c, 0, 43, 74
2, 268261, Note_on_c, 0, 62, 0
2, 268273, Note_on_c, 0, 98, 82
2, 268275, Note_on_c, 0, 50, 0
2, 268275, Note_on_c, 0, 43, 0
2, 268277, Note_on_c, 0, 31, 0
2, 268279, Note_on_c, 0, 86, 78
2, 268281, Note_on_c, 0, 74, 0
2, 268288, Note_on_c, 0, 69, 0
2, 268291, Note_on_c, 0, 90, 0
2, 268311, Note_on_c, 0, 93, 76
2, 268312, Note_on_c, 0, 78, 74
2, 268319, Control_c, 0, 64, 127
2, 268319, Note_on_c, 0, 60, 73
2, 268321, Note_on_c, 0, 86, 0
2, 268325, Note_on_c, 0, 98, 0
2, 268350, Note_on_c, 0, 93, 0
2, 268350, Note_on_c, 0, 62, 75
2, 268352, Note_on_c, 0, 78, 0
2, 268364, Note_on_c, 0, 60, 0
2, 268382, Note_on_c, 0, 93, 79
2, 268384, Note_on_c, 0, 72, 79
2, 268384, Note_on_c, 0, 78, 80
2, 268385, Note_on_c, 0, 50, 75
2, 268387, Note_on_c, 0, 31, 74
2, 268387, Note_on_c, 0, 43, 73
2, 268410, Note_on_c, 0, 43, 0
2, 268410, Note_on_c, 0, 50, 0
2, 268410, Note_on_c, 0, 62, 0
2, 268410, Note_on_c, 0, 31, 0
2, 268410, Control_c, 0, 64, 0
2, 268412, Note_on_c, 0, 98, 82
2, 268414, Note_on_c, 0, 86, 78
2, 268423, Note_on_c, 0, 72, 0
2, 268423, Note_on_c, 0, 78, 0
2, 268427, Note_on_c, 0, 93, 0
2, 268446, Note_on_c, 0, 95, 76
2, 268450, Note_on_c, 0, 62, 73
2, 268450, Note_on_c, 0, 79, 74
2, 268456, Note_on_c, 0, 86, 0
2, 268465, Note_on_c, 0, 98, 0
2, 268478, Note_on_c, 0, 95, 0
2, 268480, Note_on_c, 0, 79, 0
2, 268486, Note_on_c, 0, 71, 74
2, 268507, Note_on_c, 0, 95, 78
2, 268509, Note_on_c, 0, 79, 78
2, 268513, Note_on_c, 0, 74, 79
2, 268515, Note_on_c, 0, 50, 73
2, 268517, Note_on_c, 0, 71, 0
2, 268517, Control_c, 0, 64, 127
2, 268517, Note_on_c, 0, 31, 73
2, 268517, Note_on_c, 0, 43, 72
2, 268531, Note_on_c, 0, 62, 0
2, 268538, Note_on_c, 0, 50, 0
2, 268542, Note_on_c, 0, 95, 0
2, 268542, Note_on_c, 0, 98, 81
2, 268544, Note_on_c, 0, 31, 0
2, 268544, Note_on_c, 0, 79, 0
2, 268544, Note_on_c, 0, 43, 0
2, 268544, Note_on_c, 0, 86, 76
2, 268546, Note_on_c, 0, 74, 0
2, 268565, Control_c, 0, 64, 0
2, 268579, Note_on_c, 0, 78, 74
2, 268579, Note_on_c, 0, 93, 76
2, 268586, Note_on_c, 0, 86, 0
2, 268586, Note_on_c, 0, 60, 73
2, 268609, Note_on_c, 0, 93, 0
2, 268611, Note_on_c, 0, 98, 0
2, 268615, Note_on_c, 0, 78, 0
2, 268617, Note_on_c, 0, 60, 0
2, 268619, Note_on_c, 0, 62, 73
2, 268640, Note_on_c, 0, 93, 78
2, 268644, Note_on_c, 0, 78, 78
2, 268646, Note_on_c, 0, 72, 79
2, 268648, Note_on_c, 0, 43, 73
2, 268648, Note_on_c, 0, 50, 73
2, 268651, Note_on_c, 0, 31, 72
2, 268653, Note_on_c, 0, 62, 0
2, 268662, Control_c, 0, 64, 127
2, 268666, Note_on_c, 0, 98, 82
2, 268672, Note_on_c, 0, 50, 0
2, 268672, Note_on_c, 0, 43, 0
2, 268672, Note_on_c, 0, 78, 0
2, 268672, Note_on_c, 0, 93, 0
2, 268672, Note_on_c, 0, 31, 0
2, 268672, Note_on_c, 0, 86, 77
2, 268674, Note_on_c, 0, 72, 0
2, 268696, Note_on_c, 0, 91, 76
2, 268702, Note_on_c, 0, 76, 74
2, 268704, Control_c, 0, 64, 0
2, 268706, Note_on_c, 0, 86, 0
2, 268706, Note_on_c, 0, 59, 73
2, 268734, Note_on_c, 0, 76, 0
2, 268736, Note_on_c, 0, 91, 0
2, 268736, Note_on_c, 0, 62, 73
2, 268746, Note_on_c, 0, 59, 0
2, 268753, Note_on_c, 0, 98, 0
2, 268762, Note_on_c, 0, 91, 79
2, 268766, Note_on_c, 0, 76, 78
2, 268768, Note_on_c, 0, 71, 79
2, 268771, Control_c, 0, 64, 127
2, 268771, Note_on_c, 0, 50, 73
2, 268773, Note_on_c, 0, 43, 72
2, 268775, Note_on_c, 0, 31, 73
2, 268779, Note_on_c, 0, 62, 0
2, 268793, Note_on_c, 0, 91, 0
2, 268793, Note_on_c, 0, 98, 81
2, 268795, Note_on_c, 0, 76, 0
2, 268795, Note_on_c, 0, 43, 0
2, 268795, Note_on_c, 0, 50, 0
2, 268795, Note_on_c, 0, 31, 0
2, 268795, Note_on_c, 0, 86, 76
2, 268799, Note_on_c, 0, 71, 0
2, 268818, Control_c, 0, 64, 0
2, 268829, Note_on_c, 0, 95, 76
2, 268836, Note_on_c, 0, 62, 73
2, 268836, Note_on_c, 0, 79, 74
2, 268846, Note_on_c, 0, 86, 0
2, 268864, Note_on_c, 0, 98, 0
2, 268865, Note_on_c, 0, 79, 0
2, 268869, Note_on_c, 0, 95, 0
2, 268871, Note_on_c, 0, 71, 74
2, 268888, Control_c, 0, 64, 127
2, 268901, Note_on_c, 0, 95, 79
2, 268903, Note_on_c, 0, 74, 78
2, 268903, Note_on_c, 0, 79, 79
2, 268907, Note_on_c, 0, 71, 0
2, 268907, Note_on_c, 0, 43, 73
2, 268907, Note_on_c, 0, 50, 73
2, 268913, Note_on_c, 0, 31, 72
2, 268936, Note_on_c, 0, 31, 0
2, 268936, Note_on_c, 0, 43, 0
2, 268936, Note_on_c, 0, 95, 0
2, 268936, Note_on_c, 0, 79, 0
2, 268936, Note_on_c, 0, 62, 0
2, 268936, Note_on_c, 0, 50, 0
2, 268936, Note_on_c, 0, 74, 0
2, 268936, Note_on_c, 0, 98, 79
2, 268938, Note_on_c, 0, 86, 75
2, 268940, Control_c, 0, 64, 0
2, 268972, Note_on_c, 0, 93, 76
2, 268974, Note_on_c, 0, 60, 73
2, 268974, Note_on_c, 0, 78, 74
2, 268978, Note_on_c, 0, 86, 0
2, 268990, Note_on_c, 0, 98, 0
2, 269009, Note_on_c, 0, 93, 0
2, 269011, Note_on_c, 0, 62, 73
2, 269013, Note_on_c, 0, 78, 0
2, 269020, Note_on_c, 0, 60, 0
2, 269039, Control_c, 0, 64, 127
2, 269039, Note_on_c, 0, 93, 79
2, 269046, Note_on_c, 0, 72, 78
2, 269046, Note_on_c, 0, 78, 79
2, 269048, Note_on_c, 0, 43, 73
2, 269048, Note_on_c, 0, 50, 73
2, 269052, Note_on_c, 0, 31, 72
2, 269054, Note_on_c, 0, 62, 0
2, 269068, Note_on_c, 0, 50, 0
2, 269070, Note_on_c, 0, 43, 0
2, 269070, Note_on_c, 0, 78, 0
2, 269070, Note_on_c, 0, 31, 0
2, 269074, Note_on_c, 0, 72, 0
2, 269074, Note_on_c, 0, 98, 79
2, 269076, Note_on_c, 0, 86, 75
2, 269078, Note_on_c, 0, 93, 0
2, 269088, Control_c, 0, 64, 0
2, 269109, Note_on_c, 0, 96, 76
2, 269116, Note_on_c, 0, 86, 0
2, 269116, Note_on_c, 0, 57, 73
2, 269116, Note_on_c, 0, 78, 74
2, 269120, Note_on_c, 0, 98, 0
2, 269145, Note_on_c, 0, 78, 0
2, 269149, Note_on_c, 0, 96, 0
2, 269149, Note_on_c, 0, 62, 73
2, 269152, Note_on_c, 0, 57, 0
2, 269159, Control_c, 0, 64, 127
2, 269178, Note_on_c, 0, 96, 78
2, 269182, Note_on_c, 0, 78, 78
2, 269186, Note_on_c, 0, 50, 73
2, 269186, Note_on_c, 0, 69, 79
2, 269188, Note_on_c, 0, 62, 0
2, 269188, Note_on_c, 0, 31, 73
2, 269190, Note_on_c, 0, 43, 72
2, 269211, Note_on_c, 0, 50, 0
2, 269211, Note_on_c, 0, 98, 82
2, 269215, Note_on_c, 0, 78, 0
2, 269215, Note_on_c, 0, 31, 0
2, 269215, Note_on_c, 0, 43, 0
2, 269217, Note_on_c, 0, 69, 0
2, 269217, Note_on_c, 0, 86, 76
2, 269219, Note_on_c, 0, 96, 0
2, 269229, Control_c, 0, 64, 0
2, 269248, Note_on_c, 0, 86, 0
2, 269250, Note_on_c, 0, 95, 76
2, 269254, Note_on_c, 0, 79, 74
2, 269258, Note_on_c, 0, 59, 73
2, 269269, Note_on_c, 0, 98, 0
2, 269290, Note_on_c, 0, 95, 0
2, 269292, Note_on_c, 0, 79, 0
2, 269292, Note_on_c, 0, 62, 73
2, 269296, Note_on_c, 0, 59, 0
2, 269319, Note_on_c, 0, 95, 78
2, 269320, Note_on_c, 0, 62, 0
2, 269322, Note_on_c, 0, 79, 78
2, 269324, Note_on_c, 0, 50, 73
2, 269324, Note_on_c, 0, 71, 79
2, 269326, Control_c, 0, 64, 127
2, 269328, Note_on_c, 0, 31, 73
2, 269328, Note_on_c, 0, 43, 73
2, 269349, Note_on_c, 0, 43, 0
2, 269349, Note_on_c, 0, 50, 0
2, 269349, Note_on_c, 0, 98, 81
2, 269351, Note_on_c, 0, 79, 0
2, 269353, Note_on_c, 0, 31, 0
2, 269353, Control_c, 0, 64, 0
2, 269355, Note_on_c, 0, 86, 76
2, 269357, Note_on_c, 0, 71, 0
2, 269364, Note_on_c, 0, 95, 0
2, 269385, Note_on_c, 0, 91, 76
2, 269389, Note_on_c, 0, 62, 73
2, 269389, Note_on_c, 0, 76, 74
2, 269395, Note_on_c, 0, 86, 0
2, 269397, Note_on_c, 0, 98, 0
2, 269415, Control_c, 0, 64, 127
2, 269418, Note_on_c, 0, 76, 0
2, 269420, Note_on_c, 0, 91, 0
2, 269427, Note_on_c, 0, 71, 74
2, 269459, Note_on_c, 0, 91, 78
2, 269463, Note_on_c, 0, 71, 0
2, 269463, Note_on_c, 0, 74, 79
2, 269463, Note_on_c, 0, 76, 80
2, 269464, Note_on_c, 0, 62, 0
2, 269464, Note_on_c, 0, 50, 73
2, 269466, Note_on_c, 0, 31, 72
2, 269466, Note_on_c, 0, 43, 73
2, 269488, Note_on_c, 0, 50, 0
2, 269489, Note_on_c, 0, 31, 0
2, 269489, Note_on_c, 0, 43, 0
2, 269489, Control_c, 0, 64, 0
2, 269489, Note_on_c, 0, 98, 82
2, 269493, Note_on_c, 0, 86, 78
2, 269497, Note_on_c, 0, 74, 0
2, 269497, Note_on_c, 0, 76, 0
2, 269501, Note_on_c, 0, 91, 0
2, 269529, Note_on_c, 0, 78, 74
2, 269529, Note_on_c, 0, 93, 76
2, 269533, Note_on_c, 0, 98, 0
2, 269535, Note_on_c, 0, 86, 0
2, 269535, Note_on_c, 0, 60, 73
2, 269538, Control_c, 0, 64, 127
2, 269558, Note_on_c, 0, 93, 0
2, 269566, Note_on_c, 0, 62, 73
2, 269568, Note_on_c, 0, 60, 0
2, 269568, Note_on_c, 0, 78, 0
2, 269600, Note_on_c, 0, 78, 76
2, 269600, Note_on_c, 0, 93, 81
2, 269602, Note_on_c, 0, 72, 80
2, 269604, Note_on_c, 0, 62, 0
2, 269604, Note_on_c, 0, 31, 73
2, 269604, Note_on_c, 0, 50, 73
2, 269606, Note_on_c, 0, 43, 73
2, 269612, Control_c, 0, 64, 0
2, 269623, Note_on_c, 0, 50, 0
2, 269627, Note_on_c, 0, 98, 82
2, 269629, Note_on_c, 0, 31, 0
2, 269629, Note_on_c, 0, 72, 0
2, 269629, Note_on_c, 0, 78, 0
2, 269629, Note_on_c, 0, 43, 0
2, 269632, Note_on_c, 0, 93, 0
2, 269632, Note_on_c, 0, 86, 76
2, 269662, Note_on_c, 0, 96, 75
2, 269664, Note_on_c, 0, 86, 0
2, 269666, Note_on_c, 0, 81, 76
2, 269670, Note_on_c, 0, 98, 0
2, 269672, Note_on_c, 0, 57, 73
2, 269679, Control_c, 0, 64, 127
2, 269696, Note_on_c, 0, 81, 0
2, 269700, Note_on_c, 0, 96, 0
2, 269702, Note_on_c, 0, 62, 73
2, 269708, Note_on_c, 0, 57, 0
2, 269733, Note_on_c, 0, 96, 79
2, 269735, Note_on_c, 0, 81, 81
2, 269737, Note_on_c, 0, 69, 80
2, 269739, Note_on_c, 0, 43, 73
2, 269739, Note_on_c, 0, 50, 73
2, 269746, Note_on_c, 0, 31, 72
2, 269748, Note_on_c, 0, 62, 0
2, 269754, Control_c, 0, 64, 0
2, 269765, Note_on_c, 0, 43, 0
2, 269765, Note_on_c, 0, 50, 0
2, 269767, Note_on_c, 0, 31, 0
2, 269767, Note_on_c, 0, 98, 82
2, 269769, Note_on_c, 0, 69, 0
2, 269769, Note_on_c, 0, 81, 0
2, 269769, Note_on_c, 0, 86, 76
2, 269771, Note_on_c, 0, 96, 0
2, 269799, Note_on_c, 0, 98, 0
2, 269802, Note_on_c, 0, 95, 76
2, 269804, Note_on_c, 0, 86, 0
2, 269808, Note_on_c, 0, 79, 74
2, 269810, Note_on_c, 0, 59, 73
2, 269819, Control_c, 0, 64, 127
2, 269833, Note_on_c, 0, 95, 0
2, 269833, Note_on_c, 0, 62, 73
2, 269835, Note_on_c, 0, 79, 0
2, 269856, Note_on_c, 0, 59, 0
2, 269867, Note_on_c, 0, 95, 78
2, 269871, Note_on_c, 0, 71, 77
2, 269871, Note_on_c, 0, 79, 78
2, 269872, Note_on_c, 0, 62, 0
2, 269874, Note_on_c, 0, 43, 73
2, 269874, Note_on_c, 0, 50, 73
2, 269876, Note_on_c, 0, 31, 72
2, 269894, Note_on_c, 0, 86, 78
2, 269894, Note_on_c, 0, 98, 80
2, 269896, Note_on_c, 0, 50, 0
2, 269896, Note_on_c, 0, 43, 0
2, 269899, Note_on_c, 0, 31, 0
2, 269899, Control_c, 0, 64, 0
2, 269903, Note_on_c, 0, 79, 0
2, 269905, Note_on_c, 0, 95, 0
2, 269905, Note_on_c, 0, 71, 0
2, 269926, Note_on_c, 0, 86, 0
2, 269926, Note_on_c, 0, 98, 0
2, 269928, Note_on_c, 0, 91, 75
2, 269935, Note_on_c, 0, 62, 73
2, 269935, Note_on_c, 0, 76, 74
2, 269958, Control_c, 0, 64, 127
2, 269962, Note_on_c, 0, 91, 0
2, 269964, Note_on_c, 0, 76, 0
2, 269970, Note_on_c, 0, 71, 74
2, 269988, Note_on_c, 0, 62, 0
2, 269990, Note_on_c, 0, 91, 79
2, 269993, Note_on_c, 0, 50, 73
2, 269993, Note_on_c, 0, 74, 78
2, 269993, Note_on_c, 0, 76, 79
2, 269995, Note_on_c, 0, 71, 0
2, 269995, Note_on_c, 0, 43, 73
2, 269997, Note_on_c, 0, 31, 73
2, 270015, Note_on_c, 0, 98, 85
2, 270016, Note_on_c, 0, 86, 84
2, 270018, Note_on_c, 0, 43, 0
2, 270018, Note_on_c, 0, 50, 0
2, 270020, Note_on_c, 0, 76, 0
2, 270020, Note_on_c, 0, 74, 0
2, 270020, Note_on_c, 0, 31, 0
2, 270029, Control_c, 0, 64, 0
2, 270033, Note_on_c, 0, 91, 0
2, 270047, Note_on_c, 0, 86, 0
2, 270049, Note_on_c, 0, 78, 85
2, 270049, Note_on_c, 0, 93, 86
2, 270051, Note_on_c, 0, 60, 81
2, 270060, Note_on_c, 0, 98, 0
2, 270079, Note_on_c, 0, 93, 0
2, 270086, Note_on_c, 0, 62, 80
2, 270088, Note_on_c, 0, 78, 0
2, 270098, Note_on_c, 0, 60, 0
2, 270111, Control_c, 0, 64, 127
2, 270117, Note_on_c, 0, 72, 84
2, 270117, Note_on_c, 0, 78, 85
2, 270117, Note_on_c, 0, 93, 88
2, 270119, Note_on_c, 0, 43, 80
2, 270119, Note_on_c, 0, 50, 80
2, 270121, Note_on_c, 0, 31, 79
2, 270132, Note_on_c, 0, 62, 0
2, 270138, Note_on_c, 0, 98, 89
2, 270142, Note_on_c, 0, 93, 0
2, 270142, Note_on_c, 0, 86, 85
2, 270144, Note_on_c, 0, 50, 0
2, 270144, Note_on_c, 0, 43, 0
2, 270144, Note_on_c, 0, 78, 0
2, 270144, Note_on_c, 0, 31, 0
2, 270146, Note_on_c, 0, 72, 0
2, 270150, Control_c, 0, 64, 0
2, 270169, Note_on_c, 0, 98, 0
2, 270173, Note_on_c, 0, 91, 83
2, 270175, Note_on_c, 0, 86, 0
2, 270179, Note_on_c, 0, 59, 80
2, 270179, Note_on_c, 0, 76, 81
2, 270196, Control_c, 0, 64, 127
2, 270205, Note_on_c, 0, 91, 0
2, 270207, Note_on_c, 0, 76, 0
2, 270215, Note_on_c, 0, 62, 80
2, 270226, Note_on_c, 0, 59, 0
2, 270236, Control_c, 0, 64, 0
2, 270238, Note_on_c, 0, 91, 86
2, 270240, Note_on_c, 0, 76, 85
2, 270244, Note_on_c, 0, 31, 80
2, 270244, Note_on_c, 0, 43, 80
2, 270244, Note_on_c, 0, 50, 79
2, 270244, Note_on_c, 0, 71, 86
2, 270265, Note_on_c, 0, 50, 0
2, 270265, Note_on_c, 0, 62, 0
2, 270265, Note_on_c, 0, 43, 0
2, 270265, Note_on_c, 0, 98, 88
2, 270267, Note_on_c, 0, 71, 0
2, 270267, Note_on_c, 0, 76, 0
2, 270267, Note_on_c, 0, 86, 82
2, 270269, Note_on_c, 0, 31, 0
2, 270276, Note_on_c, 0, 91, 0
2, 270284, Control_c, 0, 64, 127
2, 270295, Note_on_c, 0, 98, 0
2, 270297, Note_on_c, 0, 86, 0
2, 270301, Note_on_c, 0, 93, 83
2, 270303, Note_on_c, 0, 60, 80
2, 270303, Note_on_c, 0, 78, 81
2, 270326, Note_on_c, 0, 62, 80
2, 270329, Note_on_c, 0, 78, 0
2, 270329, Note_on_c, 0, 93, 0
2, 270331, Note_on_c, 0, 60, 0
2, 270331, Control_c, 0, 64, 0
2, 270359, Note_on_c, 0, 93, 85
2, 270361, Note_on_c, 0, 72, 86
2, 270361, Note_on_c, 0, 78, 87
2, 270363, Note_on_c, 0, 50, 80
2, 270367, Note_on_c, 0, 62, 0
2, 270367, Note_on_c, 0, 31, 80
2, 270367, Note_on_c, 0, 43, 80
2, 270386, Note_on_c, 0, 98, 90
2, 270388, Note_on_c, 0, 43, 0
2, 270388, Note_on_c, 0, 93, 0
2, 270388, Note_on_c, 0, 50, 0
2, 270388, Note_on_c, 0, 31, 0
2, 270388, Note_on_c, 0, 86, 86
2, 270390, Note_on_c, 0, 78, 0
2, 270392, Note_on_c, 0, 72, 0
2, 270417, Note_on_c, 0, 98, 0
2, 270419, Note_on_c, 0, 86, 0
2, 270419, Note_on_c, 0, 91, 83
2, 270427, Control_c, 0, 64, 127
2, 270427, Note_on_c, 0, 76, 81
2, 270429, Note_on_c, 0, 59, 80
2, 270452, Note_on_c, 0, 76, 0
2, 270452, Note_on_c, 0, 62, 80
2, 270454, Note_on_c, 0, 91, 0
2, 270465, Note_on_c, 0, 59, 0
2, 270484, Note_on_c, 0, 91, 85
2, 270488, Note_on_c, 0, 71, 85
2, 270488, Note_on_c, 0, 76, 86
2, 270490, Note_on_c, 0, 31, 80
2, 270490, Note_on_c, 0, 50, 80
2, 270492, Note_on_c, 0, 62, 0
2, 270492, Note_on_c, 0, 43, 79
2, 270504, Control_c, 0, 64, 0
2, 270511, Note_on_c, 0, 98, 89
2, 270513, Note_on_c, 0, 43, 0
2, 270513, Note_on_c, 0, 31, 0
2, 270513, Note_on_c, 0, 86, 85
2, 270515, Note_on_c, 0, 71, 0
2, 270515, Note_on_c, 0, 91, 0
2, 270515, Note_on_c, 0, 76, 0
2, 270515, Note_on_c, 0, 50, 0
2, 270546, Control_c, 0, 64, 127
2, 270550, Note_on_c, 0, 98, 0
2, 270550, Note_on_c, 0, 78, 81
2, 270550, Note_on_c, 0, 93, 83
2, 270552, Note_on_c, 0, 86, 0
2, 270552, Note_on_c, 0, 60, 80
2, 270573, Control_c, 0, 64, 0
2, 270575, Note_on_c, 0, 78, 0
2, 270579, Note_on_c, 0, 93, 0
2, 270581, Note_on_c, 0, 60, 0
2, 270581, Note_on_c, 0, 62, 82
2, 270604, Note_on_c, 0, 78, 86
2, 270604, Note_on_c, 0, 93, 90
2, 270606, Note_on_c, 0, 50, 84
2, 270606, Note_on_c, 0, 72, 89
2, 270608, Note_on_c, 0, 62, 0
2, 270608, Note_on_c, 0, 31, 85
2, 270608, Note_on_c, 0, 43, 86
2, 270627, Note_on_c, 0, 98, 93
2, 270629, Note_on_c, 0, 86, 91
2, 270633, Note_on_c, 0, 43, 0
2, 270633, Note_on_c, 0, 50, 0
2, 270633, Note_on_c, 0, 78, 0
2, 270633, Note_on_c, 0, 31, 0
2, 270635, Note_on_c, 0, 72, 0
2, 270637, Note_on_c, 0, 93, 0
2, 270654, Control_c, 0, 64, 127
2, 270654, Note_on_c, 0, 91, 91
2, 270656, Note_on_c, 0, 76, 88
2, 270660, Note_on_c, 0, 59, 88
2, 270662, Note_on_c, 0, 98, 0
2, 270662, Note_on_c, 0, 86, 0
2, 270679, Control_c, 0, 64, 0
2, 270683, Note_on_c, 0, 76, 0
2, 270683, Note_on_c, 0, 62, 88
2, 270687, Note_on_c, 0, 91, 0
2, 270688, Note_on_c, 0, 59, 0
2, 270708, Note_on_c, 0, 91, 92
2, 270710, Note_on_c, 0, 76, 92
2, 270712, Note_on_c, 0, 71, 93
2, 270713, Note_on_c, 0, 62, 0
2, 270713, Control_c, 0, 64, 127
2, 270713, Note_on_c, 0, 43, 88
2, 270713, Note_on_c, 0, 50, 87
2, 270715, Note_on_c, 0, 31, 87
2, 270733, Note_on_c, 0, 98, 94
2, 270735, Note_on_c, 0, 50, 0
2, 270735, Note_on_c, 0, 43, 0
2, 270735, Note_on_c, 0, 86, 91
2, 270736, Note_on_c, 0, 71, 0
2, 270736, Note_on_c, 0, 76, 0
2, 270738, Note_on_c, 0, 31, 0
2, 270751, Note_on_c, 0, 91, 0
2, 270765, Note_on_c, 0, 86, 0
2, 270765, Note_on_c, 0, 78, 92
2, 270765, Note_on_c, 0, 93, 97
2, 270767, Note_on_c, 0, 60, 86
2, 270767, Note_on_c, 0, 72, 96
2, 270769, Note_on_c, 0, 98, 0
2, 270769, Control_c, 0, 64, 0
2, 270794, Note_on_c, 0, 78, 0
2, 270794, Note_on_c, 0, 93, 0
2, 270796, Note_on_c, 0, 60, 0
2, 270796, Note_on_c, 0, 72, 0
2, 270828, Note_on_c, 0, 98, 98
2, 270830, Note_on_c, 0, 90, 98
2, 270832, Note_on_c, 0, 66, 96
2, 270832, Note_on_c, 0, 86, 100
2, 270833, Note_on_c, 0, 50, 82
2, 270833, Note_on_c, 0, 60, 83
2, 270833, Note_on_c, 0, 69, 99
2, 270833, Note_on_c, 0, 72, 100
2, 270837, Note_on_c, 0, 43, 84
2, 270837, Note_on_c, 0, 93, 100
2, 270856, Note_on_c, 0, 72, 0
2, 270860, Note_on_c, 0, 86, 0
2, 270862, Note_on_c, 0, 69, 0
2, 270864, Note_on_c, 0, 98, 0
2, 270864, Note_on_c, 0, 43, 0
2, 270864, Note_on_c, 0, 93, 0
2, 270864, Note_on_c, 0, 50, 0
2, 270866, Note_on_c, 0, 90, 0
2, 270866, Note_on_c, 0, 66, 0
2, 270870, Note_on_c, 0, 60, 0
2, 270927, Note_on_c, 0, 95, 108
2, 270927, Note_on_c, 0, 98, 115
2, 270927, Note_on_c, 0, 103, 116
2, 270928, Note_on_c, 0, 91, 114
2, 270932, Note_on_c, 0, 67, 112
2, 270936, Control_c, 0, 64, 127
2, 270936, Note_on_c, 0, 59, 102
2, 270936, Note_on_c, 0, 71, 113
2, 270938, Note_on_c, 0, 62, 103
2, 270940, Note_on_c, 0, 31, 104
2, 270940, Note_on_c, 0, 38, 105
2, 270957, Note_on_c, 0, 71, 0
2, 270957, Note_on_c, 0, 98, 0
2, 270957, Note_on_c, 0, 95, 0
2, 270957, Note_on_c, 0, 91, 0
2, 270959, Note_on_c, 0, 67, 0
2, 270961, Note_on_c, 0, 103, 0
2, 270970, Note_on_c, 0, 62, 0
2, 270970, Note_on_c, 0, 38, 0
2, 270974, Note_on_c, 0, 31, 0
2, 270976, Note_on_c, 0, 59, 0
2, 271037, Control_c, 0, 64, 0
2, 272358, Note_on_c, 0, 64, 60
2, 272358, Note_on_c, 0, 69, 90
2, 272360, Note_on_c, 0, 57, 80
2, 272367, Note_on_c, 0, 33, 80
2, 272368, Note_on_c, 0, 61, 80
2, 272379, Control_c, 0, 64, 127
2, 272409, Note_on_c, 0, 33, 0
2, 272428, Note_on_c, 0, 57, 0
2, 272449, Note_on_c, 0, 64, 0
2, 272449, Note_on_c, 0, 69, 0
2, 272470, Note_on_c, 0, 61, 0
2, 272546, Note_on_c, 0, 57, 80
2, 272546, Note_on_c, 0, 61, 80
2, 272546, Note_on_c, 0, 69, 97
2, 272546, Note_on_c, 0, 73, 98
2, 272548, Note_on_c, 0, 45, 79
2, 272550, Note_on_c, 0, 49, 80
2, 272557, Note_on_c, 0, 64, 98
2, 272560, Note_on_c, 0, 52, 80
2, 272585, Note_on_c, 0, 64, 0
2, 272596, Note_on_c, 0, 52, 0
2, 272596, Note_on_c, 0, 45, 0
2, 272605, Note_on_c, 0, 69, 0
2, 272607, Note_on_c, 0, 49, 0
2, 272617, Note_on_c, 0, 57, 0
2, 272638, Note_on_c, 0, 73, 0
2, 272638, Note_on_c, 0, 61, 0
2, 272704, Note_on_c, 0, 57, 80
2, 272704, Note_on_c, 0, 76, 96
2, 272705, Note_on_c, 0, 64, 96
2, 272705, Note_on_c, 0, 73, 98
2, 272707, Note_on_c, 0, 49, 80
2, 272707, Note_on_c, 0, 52, 80
2, 272707, Note_on_c, 0, 61, 79
2, 272716, Note_on_c, 0, 69, 99
2, 272746, Note_on_c, 0, 52, 0
2, 272746, Note_on_c, 0, 57, 0
2, 272754, Note_on_c, 0, 49, 0
2, 272767, Note_on_c, 0, 61, 0
2, 272786, Note_on_c, 0, 69, 0
2, 272786, Note_on_c, 0, 64, 0
2, 272797, Note_on_c, 0, 76, 0
2, 272805, Note_on_c, 0, 73, 0
2, 272812, Control_c, 0, 64, 0
2, 272860, Note_on_c, 0, 78, 98
2, 272862, Note_on_c, 0, 57, 93
2, 272862, Note_on_c, 0, 60, 94
2, 272862, Note_on_c, 0, 72, 99
2, 272864, Note_on_c, 0, 51, 95
2, 272864, Note_on_c, 0, 66, 98
2, 272874, Note_on_c, 0, 54, 96
2, 272874, Note_on_c, 0, 69, 99
2, 273055, Control_c, 0, 64, 127
2, 273124, Note_on_c, 0, 66, 0
2, 273141, Note_on_c, 0, 78, 0
2, 273143, Note_on_c, 0, 69, 0
2, 273143, Note_on_c, 0, 72, 0
2, 273145, Note_on_c, 0, 57, 0
2, 273158, Note_on_c, 0, 51, 0
2, 273166, Note_on_c, 0, 60, 0
2, 273175, Note_on_c, 0, 54, 0
2, 273295, Note_on_c, 0, 73, 81
2, 273297, Note_on_c, 0, 52, 97
2, 273297, Note_on_c, 0, 57, 97
2, 273297, Note_on_c, 0, 61, 96
2, 273297, Note_on_c, 0, 64, 97
2, 273297, Note_on_c, 0, 69, 97
2, 273297, Note_on_c, 0, 76, 98
2, 273311, Note_on_c, 0, 76, 0
2, 273311, Note_on_c, 0, 73, 0
2, 273313, Note_on_c, 0, 69, 0
2, 273315, Note_on_c, 0, 61, 0
2, 273315, Note_on_c, 0, 52, 0
2, 273315, Note_on_c, 0, 57, 0
2, 273315, Note_on_c, 0, 64, 0
2, 273336, Note_on_c, 0, 73, 100
2, 273338, Note_on_c, 0, 52, 99
2, 273338, Note_on_c, 0, 57, 100
2, 273338, Note_on_c, 0, 61, 101
2, 273338, Note_on_c, 0, 64, 101
2, 273338, Note_on_c, 0, 69, 103
2, 273338, Note_on_c, 0, 76, 104
2, 273430, Note_on_c, 0, 57, 0
2, 273441, Note_on_c, 0, 52, 0
2, 273449, Note_on_c, 0, 61, 0
2, 273449, Note_on_c, 0, 76, 0
2, 273458, Note_on_c, 0, 73, 0
2, 273460, Note_on_c, 0, 64, 0
2, 273460, Note_on_c, 0, 69, 0
2, 273565, Note_on_c, 0, 33, 77
2, 273607, Note_on_c, 0, 45, 78
2, 273607, Note_on_c, 0, 57, 72
2, 273611, Note_on_c, 0, 33, 0
2, 273636, Note_on_c, 0, 57, 0
2, 273636, Note_on_c, 0, 37, 73
2, 273640, Note_on_c, 0, 45, 0
2, 273640, Note_on_c, 0, 25, 76
2, 273666, Note_on_c, 0, 37, 0
2, 273666, Note_on_c, 0, 61, 79
2, 273668, Note_on_c, 0, 49, 80
2, 273670, Note_on_c, 0, 25, 0
2, 273697, Note_on_c, 0, 61, 0
2, 273699, Note_on_c, 0, 49, 0
2, 273699, Note_on_c, 0, 40, 80
2, 273701, Note_on_c, 0, 28, 79
2, 273731, Note_on_c, 0, 40, 0
2, 273731, Note_on_c, 0, 52, 80
2, 273731, Note_on_c, 0, 64, 80
2, 273733, Note_on_c, 0, 28, 0
2, 273760, Note_on_c, 0, 64, 0
2, 273760, Note_on_c, 0, 52, 0
2, 273763, Note_on_c, 0, 32, 80
2, 273763, Note_on_c, 0, 44, 80
2, 273790, Note_on_c, 0, 44, 0
2, 273790, Note_on_c, 0, 56, 80
2, 273792, Note_on_c, 0, 32, 0
2, 273792, Note_on_c, 0, 68, 80
2, 273817, Note_on_c, 0, 68, 0
2, 273819, Note_on_c, 0, 56, 0
2, 273821, Note_on_c, 0, 33, 80
2, 273821, Note_on_c, 0, 45, 80
2, 273851, Note_on_c, 0, 57, 79
2, 273851, Note_on_c, 0, 69, 81
2, 273855, Note_on_c, 0, 45, 0
2, 273855, Note_on_c, 0, 33, 0
2, 273880, Note_on_c, 0, 69, 0
2, 273883, Note_on_c, 0, 57, 0
2, 273883, Note_on_c, 0, 37, 80
2, 273883, Note_on_c, 0, 49, 80
2, 273913, Note_on_c, 0, 49, 0
2, 273913, Note_on_c, 0, 37, 0
2, 273913, Note_on_c, 0, 61, 79
2, 273915, Note_on_c, 0, 73, 81
2, 273940, Note_on_c, 0, 73, 0
2, 273944, Note_on_c, 0, 61, 0
2, 273946, Note_on_c, 0, 40, 80
2, 273946, Note_on_c, 0, 52, 80
2, 273977, Note_on_c, 0, 52, 0
2, 273977, Note_on_c, 0, 40, 0
2, 273986, Note_on_c, 0, 76, 80
2, 273988, Note_on_c, 0, 64, 80
2, 274007, Note_on_c, 0, 56, 80
2, 274009, Note_on_c, 0, 44, 80
2, 274016, Note_on_c, 0, 64, 0
2, 274016, Note_on_c, 0, 76, 0
2, 274037, Note_on_c, 0, 56, 0
2, 274039, Note_on_c, 0, 44, 0
2, 274041, Note_on_c, 0, 68, 80
2, 274041, Note_on_c, 0, 80, 81
2, 274068, Note_on_c, 0, 80, 0
2, 274068, Note_on_c, 0, 68, 0
2, 274068, Note_on_c, 0, 57, 80
2, 274070, Note_on_c, 0, 45, 80
2, 274096, Note_on_c, 0, 57, 0
2, 274098, Note_on_c, 0, 45, 0
2, 274098, Note_on_c, 0, 81, 83
2, 274102, Note_on_c, 0, 69, 80
2, 274125, Note_on_c, 0, 69, 0
2, 274127, Note_on_c, 0, 81, 0
2, 274131, Note_on_c, 0, 47, 80
2, 274131, Note_on_c, 0, 59, 80
2, 274161, Note_on_c, 0, 59, 0
2, 274161, Note_on_c, 0, 83, 83
2, 274163, Note_on_c, 0, 47, 0
2, 274163, Note_on_c, 0, 71, 81
2, 274186, Note_on_c, 0, 71, 0
2, 274188, Note_on_c, 0, 83, 0
2, 274188, Note_on_c, 0, 61, 80
2, 274192, Note_on_c, 0, 49, 80
2, 274221, Note_on_c, 0, 49, 0
2, 274221, Note_on_c, 0, 85, 83
2, 274223, Note_on_c, 0, 73, 80
2, 274232, Note_on_c, 0, 61, 0
2, 274248, Note_on_c, 0, 73, 0
2, 274248, Note_on_c, 0, 85, 0
2, 274263, Note_on_c, 0, 66, 85
2, 274266, Note_on_c, 0, 54, 80
2, 274283, Note_on_c, 0, 90, 90
2, 274285, Note_on_c, 0, 78, 90
2, 274291, Note_on_c, 0, 66, 0
2, 274302, Note_on_c, 0, 54, 0
2, 274309, Note_on_c, 0, 78, 0
2, 274312, Note_on_c, 0, 90, 0
2, 274327, Note_on_c, 0, 52, 80
2, 274327, Note_on_c, 0, 64, 83
2, 274357, Note_on_c, 0, 64, 0
2, 274357, Note_on_c, 0, 52, 0
2, 274359, Note_on_c, 0, 88, 84
2, 274360, Note_on_c, 0, 76, 81
2, 274387, Note_on_c, 0, 76, 0
2, 274387, Note_on_c, 0, 88, 0
2, 274387, Note_on_c, 0, 61, 80
2, 274389, Note_on_c, 0, 49, 80
2, 274419, Note_on_c, 0, 85, 83
2, 274421, Note_on_c, 0, 49, 0
2, 274421, Note_on_c, 0, 73, 81
2, 274432, Note_on_c, 0, 61, 0
2, 274448, Note_on_c, 0, 73, 0
2, 274448, Note_on_c, 0, 85, 0
2, 274452, Note_on_c, 0, 45, 80
2, 274452, Note_on_c, 0, 57, 80
2, 274481, Note_on_c, 0, 57, 0
2, 274481, Note_on_c, 0, 45, 0
2, 274481, Note_on_c, 0, 81, 83
2, 274483, Note_on_c, 0, 69, 80
2, 274513, Note_on_c, 0, 69, 0
2, 274513, Note_on_c, 0, 81, 0
2, 274513, Note_on_c, 0, 54, 80
2, 274517, Note_on_c, 0, 42, 80
2, 274547, Note_on_c, 0, 42, 0
2, 274559, Note_on_c, 0, 54, 0
2, 274559, Note_on_c, 0, 66, 80
2, 274561, Note_on_c, 0, 78, 80
2, 274591, Note_on_c, 0, 78, 0
2, 274593, Note_on_c, 0, 66, 0
2, 274595, Note_on_c, 0, 40, 80
2, 274595, Note_on_c, 0, 52, 80
2, 274626, Note_on_c, 0, 52, 0
2, 274626, Note_on_c, 0, 40, 0
2, 274626, Note_on_c, 0, 64, 80
2, 274626, Note_on_c, 0, 76, 80
2, 274656, Note_on_c, 0, 76, 0
2, 274656, Note_on_c, 0, 64, 0
2, 274658, Note_on_c, 0, 49, 80
2, 274662, Note_on_c, 0, 37, 80
2, 274687, Note_on_c, 0, 37, 0
2, 274687, Note_on_c, 0, 49, 0
2, 274689, Note_on_c, 0, 61, 79
2, 274689, Note_on_c, 0, 73, 81
2, 274720, Note_on_c, 0, 73, 0
2, 274720, Note_on_c, 0, 61, 0
2, 274722, Note_on_c, 0, 33, 80
2, 274722, Note_on_c, 0, 45, 80
2, 274752, Note_on_c, 0, 33, 0
2, 274754, Note_on_c, 0, 57, 80
2, 274756, Note_on_c, 0, 69, 81
2, 274763, Note_on_c, 0, 45, 0
2, 274779, Note_on_c, 0, 69, 0
2, 274786, Note_on_c, 0, 57, 0
2, 274788, Note_on_c, 0, 42, 80
2, 274792, Note_on_c, 0, 30, 80
2, 274811, Note_on_c, 0, 42, 0
2, 274811, Note_on_c, 0, 66, 80
2, 274813, Note_on_c, 0, 30, 0
2, 274816, Note_on_c, 0, 54, 80
2, 274843, Note_on_c, 0, 66, 0
2, 274854, Note_on_c, 0, 54, 0
2, 274858, Note_on_c, 0, 28, 80
2, 274858, Note_on_c, 0, 40, 80
2, 274883, Note_on_c, 0, 40, 0
2, 274885, Note_on_c, 0, 64, 80
2, 274887, Note_on_c, 0, 28, 0
2, 274887, Note_on_c, 0, 52, 80
2, 274916, Note_on_c, 0, 52, 0
2, 274916, Note_on_c, 0, 64, 0
2, 274920, Note_on_c, 0, 25, 80
2, 274920, Note_on_c, 0, 37, 80
2, 274950, Note_on_c, 0, 37, 0
2, 274950, Note_on_c, 0, 25, 0
2, 274950, Note_on_c, 0, 49, 79
2, 274950, Note_on_c, 0, 61, 80
2, 274971, Control_c, 0, 64, 0
2, 274978, Note_on_c, 0, 61, 0
2, 274978, Note_on_c, 0, 49, 0
2, 274984, Note_on_c, 0, 35, 79
2, 275011, Note_on_c, 0, 35, 0
2, 275011, Note_on_c, 0, 47, 80
2, 275011, Note_on_c, 0, 59, 79
2, 275041, Note_on_c, 0, 59, 0
2, 275041, Note_on_c, 0, 47, 0
2, 275068, Note_on_c, 0, 57, 82
2, 275070, Note_on_c, 0, 33, 85
2, 275070, Note_on_c, 0, 45, 86
2, 275086, Control_c, 0, 64, 127
2, 275116, Note_on_c, 0, 45, 0
2, 275116, Note_on_c, 0, 33, 0
2, 275128, Note_on_c, 0, 57, 0
2, 275279, Note_on_c, 0, 49, 80
2, 275279, Note_on_c, 0, 52, 80
2, 275279, Note_on_c, 0, 57, 79
2, 275279, Note_on_c, 0, 61, 80
2, 275279, Note_on_c, 0, 64, 46
2, 275279, Note_on_c, 0, 69, 46
2, 275279, Note_on_c, 0, 73, 47
2, 275281, Note_on_c, 0, 45, 79
2, 275359, Note_on_c, 0, 69, 0
2, 275359, Note_on_c, 0, 64, 0
2, 275361, Note_on_c, 0, 45, 0
2, 275361, Note_on_c, 0, 52, 0
2, 275369, Note_on_c, 0, 61, 0
2, 275369, Note_on_c, 0, 49, 0
2, 275382, Note_on_c, 0, 57, 0
2, 275421, Note_on_c, 0, 73, 0
2, 275474, Note_on_c, 0, 49, 80
2, 275474, Note_on_c, 0, 57, 80
2, 275474, Note_on_c, 0, 61, 79
2, 275474, Note_on_c, 0, 69, 88
2, 275474, Note_on_c, 0, 76, 89
2, 275476, Note_on_c, 0, 64, 89
2, 275485, Note_on_c, 0, 73, 91
2, 275487, Note_on_c, 0, 52, 80
2, 275512, Note_on_c, 0, 64, 0
2, 275520, Note_on_c, 0, 69, 0
2, 275520, Note_on_c, 0, 76, 0
2, 275520, Note_on_c, 0, 73, 0
2, 275585, Note_on_c, 0, 57, 0
2, 275585, Note_on_c, 0, 52, 0
2, 275596, Note_on_c, 0, 49, 0
2, 275633, Note_on_c, 0, 61, 0
2, 275637, Control_c, 0, 64, 0
2, 275664, Note_on_c, 0, 51, 80
2, 275675, Note_on_c, 0, 54, 80
2, 275685, Note_on_c, 0, 57, 80
2, 275694, Note_on_c, 0, 60, 80
2, 275703, Note_on_c, 0, 81, 111
2, 275704, Note_on_c, 0, 63, 83
2, 275704, Note_on_c, 0, 69, 109
2, 275704, Note_on_c, 0, 72, 108
2, 275704, Note_on_c, 0, 75, 109
2, 275920, Control_c, 0, 64, 127
2, 276101, Note_on_c, 0, 75, 0
2, 276103, Note_on_c, 0, 72, 0
2, 276103, Note_on_c, 0, 69, 0
2, 276105, Note_on_c, 0, 81, 0
2, 276107, Note_on_c, 0, 63, 0
2, 276117, Note_on_c, 0, 57, 0
2, 276117, Note_on_c, 0, 60, 0
2, 276132, Note_on_c, 0, 54, 0
2, 276132, Note_on_c, 0, 51, 0
2, 276251, Control_c, 0, 64, 0
2, 276270, Note_on_c, 0, 55, 80
2, 276270, Note_on_c, 0, 73, 113
2, 276270, Note_on_c, 0, 79, 112
2, 276272, Note_on_c, 0, 52, 80
2, 276272, Note_on_c, 0, 61, 80
2, 276272, Note_on_c, 0, 64, 112
2, 276272, Note_on_c, 0, 67, 111
2, 276272, Note_on_c, 0, 69, 113
2, 276272, Note_on_c, 0, 76, 112
2, 276279, Note_on_c, 0, 57, 79
2, 276287, Note_on_c, 0, 67, 0
2, 276289, Note_on_c, 0, 76, 0
2, 276289, Note_on_c, 0, 52, 0
2, 276289, Note_on_c, 0, 69, 0
2, 276289, Note_on_c, 0, 61, 0
2, 276289, Note_on_c, 0, 73, 0
2, 276289, Note_on_c, 0, 79, 0
2, 276289, Note_on_c, 0, 55, 0
2, 276289, Note_on_c, 0, 64, 0
2, 276300, Note_on_c, 0, 57, 0
2, 276316, Note_on_c, 0, 64, 105
2, 276316, Note_on_c, 0, 67, 106
2, 276316, Note_on_c, 0, 69, 108
2, 276316, Note_on_c, 0, 73, 109
2, 276316, Note_on_c, 0, 76, 110
2, 276318, Note_on_c, 0, 79, 111
2, 276320, Note_on_c, 0, 52, 84
2, 276320, Note_on_c, 0, 55, 85
2, 276320, Note_on_c, 0, 57, 86
2, 276328, Note_on_c, 0, 61, 87
2, 276412, Control_c, 0, 64, 127
2, 276435, Note_on_c, 0, 55, 0
2, 276446, Note_on_c, 0, 64, 0
2, 276448, Note_on_c, 0, 57, 0
2, 276448, Note_on_c, 0, 52, 0
2, 276458, Note_on_c, 0, 61, 0
2, 276483, Note_on_c, 0, 79, 0
2, 276483, Note_on_c, 0, 76, 0
2, 276483, Note_on_c, 0, 69, 0
2, 276494, Note_on_c, 0, 67, 0
2, 276494, Note_on_c, 0, 73, 0
2, 276559, Note_on_c, 0, 33, 71
2, 276605, Note_on_c, 0, 33, 0
2, 276607, Note_on_c, 0, 45, 68
2, 276607, Note_on_c, 0, 57, 67
2, 276634, Note_on_c, 0, 57, 0
2, 276636, Note_on_c, 0, 45, 0
2, 276636, Note_on_c, 0, 25, 71
2, 276638, Note_on_c, 0, 37, 74
2, 276663, Note_on_c, 0, 37, 0
2, 276666, Note_on_c, 0, 25, 0
2, 276675, Note_on_c, 0, 49, 68
2, 276675, Note_on_c, 0, 61, 69
2, 276700, Note_on_c, 0, 28, 68
2, 276700, Note_on_c, 0, 40, 70
2, 276707, Note_on_c, 0, 61, 0
2, 276707, Note_on_c, 0, 49, 0
2, 276730, Note_on_c, 0, 28, 0
2, 276730, Note_on_c, 0, 40, 0
2, 276730, Note_on_c, 0, 64, 73
2, 276732, Note_on_c, 0, 52, 72
2, 276759, Note_on_c, 0, 52, 0
2, 276759, Note_on_c, 0, 64, 0
2, 276759, Note_on_c, 0, 44, 73
2, 276760, Note_on_c, 0, 32, 72
2, 276792, Note_on_c, 0, 32, 0
2, 276792, Note_on_c, 0, 44, 0
2, 276792, Note_on_c, 0, 56, 72
2, 276792, Note_on_c, 0, 68, 73
2, 276822, Note_on_c, 0, 68, 0
2, 276822, Note_on_c, 0, 56, 0
2, 276822, Note_on_c, 0, 33, 73
2, 276829, Note_on_c, 0, 45, 72
2, 276852, Note_on_c, 0, 45, 0
2, 276852, Note_on_c, 0, 33, 0
2, 276854, Note_on_c, 0, 57, 72
2, 276854, Note_on_c, 0, 69, 74
2, 276883, Note_on_c, 0, 69, 0
2, 276883, Note_on_c, 0, 57, 0
2, 276885, Note_on_c, 0, 37, 77
2, 276885, Note_on_c, 0, 49, 78
2, 276915, Note_on_c, 0, 49, 0
2, 276915, Note_on_c, 0, 37, 0
2, 276915, Note_on_c, 0, 61, 83
2, 276915, Note_on_c, 0, 73, 80
2, 276945, Note_on_c, 0, 73, 0
2, 276945, Note_on_c, 0, 61, 0
2, 276952, Note_on_c, 0, 40, 85
2, 276952, Note_on_c, 0, 52, 86
2, 276976, Note_on_c, 0, 64, 82
2, 276976, Note_on_c, 0, 76, 83
2, 276980, Note_on_c, 0, 52, 0
2, 276980, Note_on_c, 0, 40, 0
2, 277005, Note_on_c, 0, 76, 0
2, 277009, Note_on_c, 0, 64, 0
2, 277020, Note_on_c, 0, 44, 82
2, 277020, Note_on_c, 0, 56, 81
2, 277039, Note_on_c, 0, 80, 81
2, 277041, Note_on_c, 0, 68, 80
2, 277048, Note_on_c, 0, 56, 0
2, 277049, Note_on_c, 0, 44, 0
2, 277069, Note_on_c, 0, 80, 0
2, 277071, Note_on_c, 0, 68, 0
2, 277072, Note_on_c, 0, 45, 80
2, 277072, Note_on_c, 0, 57, 80
2, 277102, Note_on_c, 0, 57, 0
2, 277102, Note_on_c, 0, 45, 0
2, 277102, Note_on_c, 0, 81, 83
2, 277104, Note_on_c, 0, 69, 80
2, 277131, Note_on_c, 0, 69, 0
2, 277131, Note_on_c, 0, 81, 0
2, 277135, Note_on_c, 0, 47, 80
2, 277135, Note_on_c, 0, 59, 80
2, 277165, Note_on_c, 0, 47, 0
2, 277165, Note_on_c, 0, 71, 81
2, 277165, Note_on_c, 0, 83, 82
2, 277167, Note_on_c, 0, 59, 0
2, 277196, Note_on_c, 0, 71, 0
2, 277198, Note_on_c, 0, 83, 0
2, 277202, Note_on_c, 0, 49, 80
2, 277202, Note_on_c, 0, 61, 80
2, 277229, Note_on_c, 0, 61, 0
2, 277233, Note_on_c, 0, 49, 0
2, 277235, Note_on_c, 0, 73, 81
2, 277235, Note_on_c, 0, 85, 83
2, 277262, Note_on_c, 0, 85, 0
2, 277265, Note_on_c, 0, 73, 0
2, 277265, Note_on_c, 0, 64, 80
2, 277269, Note_on_c, 0, 52, 80
2, 277294, Note_on_c, 0, 52, 0
2, 277294, Note_on_c, 0, 64, 0
2, 277294, Note_on_c, 0, 76, 80
2, 277298, Note_on_c, 0, 88, 83
2, 277325, Note_on_c, 0, 88, 0
2, 277325, Note_on_c, 0, 76, 0
2, 277325, Note_on_c, 0, 66, 80
2, 277327, Note_on_c, 0, 54, 80
2, 277357, Note_on_c, 0, 54, 0
2, 277357, Note_on_c, 0, 66, 0
2, 277357, Note_on_c, 0, 90, 82
2, 277359, Note_on_c, 0, 78, 81
2, 277388, Note_on_c, 0, 78, 0
2, 277388, Note_on_c, 0, 90, 0
2, 277390, Note_on_c, 0, 69, 86
2, 277392, Note_on_c, 0, 57, 84
2, 277417, Note_on_c, 0, 69, 0
2, 277421, Note_on_c, 0, 57, 0
2, 277428, Note_on_c, 0, 81, 92
2, 277428, Note_on_c, 0, 93, 93
2, 277459, Note_on_c, 0, 93, 0
2, 277461, Note_on_c, 0, 81, 0
2, 277461, Note_on_c, 0, 71, 95
2, 277463, Note_on_c, 0, 59, 92
2, 277493, Note_on_c, 0, 59, 0
2, 277493, Note_on_c, 0, 71, 0
2, 277493, Note_on_c, 0, 95, 102
2, 277495, Note_on_c, 0, 83, 103
2, 277525, Note_on_c, 0, 95, 0
2, 277527, Note_on_c, 0, 83, 0
2, 277535, Note_on_c, 0, 61, 101
2, 277535, Note_on_c, 0, 73, 107
2, 277556, Note_on_c, 0, 85, 110
2, 277556, Note_on_c, 0, 97, 113
2, 277565, Note_on_c, 0, 73, 0
2, 277567, Note_on_c, 0, 61, 0
2, 277586, Note_on_c, 0, 85, 0
2, 277586, Note_on_c, 0, 97, 0
2, 277600, Note_on_c, 0, 76, 107
2, 277602, Note_on_c, 0, 64, 107
2, 277625, Note_on_c, 0, 76, 0
2, 277625, Note_on_c, 0, 100, 113
2, 277627, Note_on_c, 0, 88, 109
2, 277629, Note_on_c, 0, 64, 0
2, 277654, Note_on_c, 0, 100, 0
2, 277656, Note_on_c, 0, 88, 0
2, 277669, Note_on_c, 0, 71, 112
2, 277669, Note_on_c, 0, 83, 115
2, 277700, Note_on_c, 0, 71, 0
2, 277707, Note_on_c, 0, 83, 0
2, 277728, Note_on_c, 0, 95, 105
2, 277757, Note_on_c, 0, 95, 0
2, 277778, Note_on_c, 0, 81, 100
2, 277782, Note_on_c, 0, 69, 96
2, 277809, Note_on_c, 0, 69, 0
2, 277809, Note_on_c, 0, 81, 0
2, 277811, Note_on_c, 0, 93, 94
2, 277840, Note_on_c, 0, 93, 0
2, 277841, Note_on_c, 0, 66, 88
2, 277848, Note_on_c, 0, 78, 88
2, 277875, Note_on_c, 0, 78, 0
2, 277875, Note_on_c, 0, 90, 87
2, 277877, Note_on_c, 0, 66, 0
2, 277877, Note_on_c, 0, 102, 88
2, 277906, Note_on_c, 0, 102, 0
2, 277906, Note_on_c, 0, 90, 0
2, 277908, Note_on_c, 0, 64, 79
2, 277908, Note_on_c, 0, 76, 81
2, 277936, Note_on_c, 0, 76, 0
2, 277936, Note_on_c, 0, 64, 0
2, 277947, Note_on_c, 0, 100, 85
2, 277954, Note_on_c, 0, 88, 83
2, 277979, Note_on_c, 0, 100, 0
2, 277981, Note_on_c, 0, 88, 0
2, 277981, Note_on_c, 0, 73, 81
2, 277983, Note_on_c, 0, 61, 80
2, 278009, Note_on_c, 0, 61, 0
2, 278009, Note_on_c, 0, 73, 0
2, 278011, Note_on_c, 0, 85, 82
2, 278011, Note_on_c, 0, 97, 86
2, 278036, Note_on_c, 0, 57, 80
2, 278036, Note_on_c, 0, 69, 81
2, 278038, Note_on_c, 0, 85, 0
2, 278045, Note_on_c, 0, 97, 0
2, 278059, Note_on_c, 0, 69, 0
2, 278063, Note_on_c, 0, 57, 0
2, 278072, Note_on_c, 0, 81, 83
2, 278074, Note_on_c, 0, 93, 83
2, 278093, Note_on_c, 0, 66, 80
2, 278095, Note_on_c, 0, 54, 80
2, 278104, Note_on_c, 0, 93, 0
2, 278105, Note_on_c, 0, 81, 0
2, 278125, Note_on_c, 0, 54, 0
2, 278125, Note_on_c, 0, 90, 83
2, 278127, Note_on_c, 0, 66, 0
2, 278127, Note_on_c, 0, 78, 81
2, 278152, Note_on_c, 0, 78, 0
2, 278155, Note_on_c, 0, 90, 0
2, 278155, Note_on_c, 0, 64, 80
2, 278157, Note_on_c, 0, 52, 80
2, 278184, Note_on_c, 0, 76, 81
2, 278184, Note_on_c, 0, 88, 83
2, 278186, Note_on_c, 0, 52, 0
2, 278186, Note_on_c, 0, 64, 0
2, 278213, Note_on_c, 0, 76, 0
2, 278213, Note_on_c, 0, 88, 0
2, 278217, Note_on_c, 0, 49, 80
2, 278217, Note_on_c, 0, 61, 80
2, 278244, Note_on_c, 0, 61, 0
2, 278246, Note_on_c, 0, 49, 0
2, 278254, Note_on_c, 0, 73, 81
2, 278254, Note_on_c, 0, 85, 83
2, 278277, Note_on_c, 0, 47, 80
2, 278281, Note_on_c, 0, 59, 80
2, 278283, Note_on_c, 0, 85, 0
2, 278283, Note_on_c, 0, 73, 0
2, 278304, Note_on_c, 0, 47, 0
2, 278304, Note_on_c, 0, 59, 0
2, 278315, Note_on_c, 0, 83, 83
2, 278317, Note_on_c, 0, 71, 81
2, 278338, Note_on_c, 0, 57, 80
2, 278340, Note_on_c, 0, 45, 80
2, 278346, Note_on_c, 0, 71, 0
2, 278346, Note_on_c, 0, 83, 0
2, 278368, Note_on_c, 0, 57, 0
2, 278369, Note_on_c, 0, 45, 0
2, 278382, Note_on_c, 0, 69, 84
2, 278382, Note_on_c, 0, 81, 87
2, 278407, Note_on_c, 0, 69, 0
2, 278409, Note_on_c, 0, 81, 0
2, 278409, Note_on_c, 0, 54, 85
2, 278416, Note_on_c, 0, 42, 86
2, 278440, Note_on_c, 0, 42, 0
2, 278440, Note_on_c, 0, 54, 0
2, 278440, Note_on_c, 0, 66, 87
2, 278442, Note_on_c, 0, 78, 89
2, 278471, Note_on_c, 0, 78, 0
2, 278471, Note_on_c, 0, 66, 0
2, 278486, Note_on_c, 0, 40, 88
2, 278486, Note_on_c, 0, 52, 88
2, 278517, Note_on_c, 0, 52, 0
2, 278517, Note_on_c, 0, 40, 0
2, 278519, Note_on_c, 0, 64, 88
2, 278519, Note_on_c, 0, 76, 89
2, 278544, Note_on_c, 0, 76, 0
2, 278551, Note_on_c, 0, 64, 0
2, 278553, Note_on_c, 0, 37, 88
2, 278553, Note_on_c, 0, 49, 88
2, 278580, Note_on_c, 0, 49, 0
2, 278580, Note_on_c, 0, 37, 0
2, 278582, Note_on_c, 0, 61, 87
2, 278585, Note_on_c, 0, 73, 89
2, 278617, Note_on_c, 0, 73, 0
2, 278617, Note_on_c, 0, 61, 0
2, 278621, Note_on_c, 0, 33, 88
2, 278621, Note_on_c, 0, 45, 88
2, 278653, Note_on_c, 0, 45, 0
2, 278653, Note_on_c, 0, 33, 0
2, 278655, Note_on_c, 0, 57, 87
2, 278656, Note_on_c, 0, 69, 89
2, 278681, Note_on_c, 0, 69, 0
2, 278683, Note_on_c, 0, 57, 0
2, 278698, Note_on_c, 0, 42, 88
2, 278702, Note_on_c, 0, 30, 88
2, 278725, Note_on_c, 0, 30, 0
2, 278725, Note_on_c, 0, 54, 88
2, 278725, Note_on_c, 0, 66, 88
2, 278727, Note_on_c, 0, 42, 0
2, 278753, Note_on_c, 0, 66, 0
2, 278753, Note_on_c, 0, 54, 0
2, 278757, Note_on_c, 0, 28, 88
2, 278757, Note_on_c, 0, 40, 88
2, 278784, Note_on_c, 0, 40, 0
2, 278784, Note_on_c, 0, 28, 0
2, 278784, Note_on_c, 0, 64, 88
2, 278786, Note_on_c, 0, 52, 87
2, 278815, Note_on_c, 0, 52, 0
2, 278815, Note_on_c, 0, 64, 0
2, 278815, Note_on_c, 0, 25, 88
2, 278819, Note_on_c, 0, 37, 87
2, 278852, Note_on_c, 0, 37, 0
2, 278852, Note_on_c, 0, 25, 0
2, 278852, Note_on_c, 0, 49, 84
2, 278852, Note_on_c, 0, 61, 83
2, 278863, Control_c, 0, 64, 0
2, 278879, Note_on_c, 0, 49, 0
2, 278892, Note_on_c, 0, 61, 0
2, 278904, Note_on_c, 0, 33, 83
2, 278915, Note_on_c, 0, 45, 85
2, 278921, Note_on_c, 0, 57, 87
2, 279021, Control_c, 0, 64, 127
2, 279048, Note_on_c, 0, 45, 0
2, 279069, Note_on_c, 0, 57, 0
2, 279073, Note_on_c, 0, 33, 0
2, 279184, Note_on_c, 0, 73, 90
2, 279187, Note_on_c, 0, 45, 80
2, 279187, Note_on_c, 0, 52, 80
2, 279187, Note_on_c, 0, 57, 79
2, 279187, Note_on_c, 0, 61, 80
2, 279187, Note_on_c, 0, 64, 112
2, 279196, Note_on_c, 0, 49, 79
2, 279196, Note_on_c, 0, 69, 113
2, 279221, Note_on_c, 0, 57, 0
2, 279223, Note_on_c, 0, 52, 0
2, 279233, Note_on_c, 0, 45, 0
2, 279244, Note_on_c, 0, 49, 0
2, 279296, Note_on_c, 0, 69, 0
2, 279296, Note_on_c, 0, 64, 0
2, 279335, Note_on_c, 0, 73, 0
2, 279335, Note_on_c, 0, 61, 0
2, 279408, Note_on_c, 0, 57, 74
2, 279408, Note_on_c, 0, 64, 64
2, 279408, Note_on_c, 0, 69, 64
2, 279408, Note_on_c, 0, 73, 63
2, 279408, Note_on_c, 0, 76, 62
2, 279467, Note_on_c, 0, 64, 0
2, 279488, Note_on_c, 0, 73, 0
2, 279490, Note_on_c, 0, 76, 0
2, 279490, Note_on_c, 0, 69, 0
2, 279623, Control_c, 0, 64, 0
2, 279623, Note_on_c, 0, 63, 73
2, 279634, Note_on_c, 0, 66, 73
2, 279646, Note_on_c, 0, 69, 74
2, 279667, Note_on_c, 0, 78, 74
2, 279669, Note_on_c, 0, 72, 74
2, 279678, Note_on_c, 0, 75, 74
2, 279694, Note_on_c, 0, 83, 78
2, 279932, Control_c, 0, 64, 127
2, 280003, Note_on_c, 0, 72, 0
2, 280016, Note_on_c, 0, 66, 0
2, 280016, Note_on_c, 0, 69, 0
2, 280016, Note_on_c, 0, 63, 0
2, 280026, Note_on_c, 0, 75, 0
2, 280039, Note_on_c, 0, 78, 0
2, 280085, Note_on_c, 0, 83, 0
2, 280087, Note_on_c, 0, 66, 65
2, 280089, Note_on_c, 0, 69, 66
2, 280089, Note_on_c, 0, 72, 66
2, 280089, Note_on_c, 0, 75, 65
2, 280101, Note_on_c, 0, 63, 65
2, 280110, Note_on_c, 0, 78, 68
2, 280222, Note_on_c, 0, 63, 0
2, 280229, Note_on_c, 0, 72, 0
2, 280229, Note_on_c, 0, 75, 0
2, 280231, Note_on_c, 0, 69, 0
2, 280231, Note_on_c, 0, 66, 0
2, 280241, Note_on_c, 0, 78, 0
2, 280275, Control_c, 0, 64, 0
2, 280300, Note_on_c, 0, 62, 65
2, 280300, Note_on_c, 0, 67, 65
2, 280300, Note_on_c, 0, 71, 65
2, 280302, Note_on_c, 0, 64, 65
2, 280304, Note_on_c, 0, 74, 66
2, 280320, Note_on_c, 0, 81, 70
2, 280425, Control_c, 0, 64, 127
2, 280577, Note_on_c, 0, 71, 0
2, 280600, Note_on_c, 0, 74, 0
2, 280600, Note_on_c, 0, 81, 0
2, 280609, Note_on_c, 0, 67, 0
2, 280609, Note_on_c, 0, 62, 0
2, 280620, Note_on_c, 0, 64, 0
2, 280672, Note_on_c, 0, 71, 66
2, 280672, Note_on_c, 0, 74, 66
2, 280673, Note_on_c, 0, 62, 65
2, 280673, Note_on_c, 0, 64, 65
2, 280673, Note_on_c, 0, 67, 64
2, 280695, Note_on_c, 0, 79, 67
2, 280809, Note_on_c, 0, 64, 0
2, 280825, Note_on_c, 0, 62, 0
2, 280825, Note_on_c, 0, 74, 0
2, 280844, Note_on_c, 0, 71, 0
2, 280844, Note_on_c, 0, 79, 0
2, 280848, Control_c, 0, 64, 0
2, 280857, Note_on_c, 0, 67, 0
2, 280878, Note_on_c, 0, 63, 65
2, 280887, Note_on_c, 0, 66, 65
2, 280888, Note_on_c, 0, 69, 66
2, 280888, Note_on_c, 0, 72, 66
2, 280905, Note_on_c, 0, 79, 68
2, 280990, Control_c, 0, 64, 127
2, 281205, Note_on_c, 0, 69, 0
2, 281209, Note_on_c, 0, 66, 0
2, 281209, Note_on_c, 0, 63, 0
2, 281220, Note_on_c, 0, 79, 0
2, 281220, Note_on_c, 0, 72, 0
2, 281284, Note_on_c, 0, 66, 64
2, 281284, Note_on_c, 0, 69, 66
2, 281284, Note_on_c, 0, 72, 65
2, 281286, Note_on_c, 0, 63, 65
2, 281305, Note_on_c, 0, 75, 67
2, 281435, Note_on_c, 0, 63, 0
2, 281445, Note_on_c, 0, 72, 0
2, 281445, Note_on_c, 0, 69, 0
2, 281449, Note_on_c, 0, 66, 0
2, 281465, Note_on_c, 0, 75, 0
2, 281480, Control_c, 0, 64, 0
2, 281530, Note_on_c, 0, 62, 65
2, 281530, Note_on_c, 0, 71, 66
2, 281532, Note_on_c, 0, 64, 64
2, 281532, Note_on_c, 0, 67, 65
2, 281551, Note_on_c, 0, 78, 68
2, 281620, Control_c, 0, 64, 127
2, 281680, Note_on_c, 0, 57, 0
2, 281824, Note_on_c, 0, 71, 0
2, 281841, Note_on_c, 0, 78, 0
2, 281885, Note_on_c, 0, 67, 0
2, 281887, Note_on_c, 0, 64, 0
2, 281897, Note_on_c, 0, 62, 0
2, 281960, Note_on_c, 0, 67, 62
2, 281964, Note_on_c, 0, 62, 65
2, 281964, Note_on_c, 0, 64, 53
2, 281964, Note_on_c, 0, 71, 53
2, 281974, Note_on_c, 0, 76, 52
2, 282064, Note_on_c, 0, 64, 0
2, 282064, Note_on_c, 0, 62, 0
2, 282124, Note_on_c, 0, 67, 0
2, 282124, Note_on_c, 0, 71, 0
2, 282124, Note_on_c, 0, 76, 0
2, 282197, Control_c, 0, 64, 0
2, 282201, Note_on_c, 0, 45, 65
2, 282224, Note_on_c, 0, 52, 65
2, 282240, Note_on_c, 0, 56, 65
2, 282259, Note_on_c, 0, 62, 65
2, 282259, Note_on_c, 0, 66, 81
2, 282259, Note_on_c, 0, 76, 81
2, 282493, Control_c, 0, 64, 127
2, 282532, Note_on_c, 0, 76, 0
2, 282619, Note_on_c, 0, 56, 0
2, 282619, Note_on_c, 0, 62, 0
2, 282621, Note_on_c, 0, 66, 0
2, 282632, Note_on_c, 0, 52, 0
2, 282640, Note_on_c, 0, 45, 0
2, 282715, Note_on_c, 0, 66, 65
2, 282717, Note_on_c, 0, 45, 65
2, 282717, Note_on_c, 0, 56, 65
2, 282717, Note_on_c, 0, 62, 64
2, 282730, Note_on_c, 0, 52, 65
2, 282742, Note_on_c, 0, 71, 81
2, 282903, Note_on_c, 0, 71, 0
2, 282911, Note_on_c, 0, 62, 0
2, 282922, Note_on_c, 0, 56, 0
2, 282922, Note_on_c, 0, 66, 0
2, 282930, Note_on_c, 0, 52, 0
2, 282941, Note_on_c, 0, 45, 0
2, 282955, Control_c, 0, 64, 0
2, 283005, Note_on_c, 0, 56, 65
2, 283005, Note_on_c, 0, 62, 65
2, 283005, Note_on_c, 0, 66, 65
2, 283009, Note_on_c, 0, 45, 64
2, 283018, Note_on_c, 0, 52, 65
2, 283026, Note_on_c, 0, 74, 69
2, 283107, Control_c, 0, 64, 127
2, 283248, Note_on_c, 0, 74, 0
2, 283259, Note_on_c, 0, 62, 0
2, 283280, Note_on_c, 0, 56, 0
2, 283280, Note_on_c, 0, 52, 0
2, 283290, Note_on_c, 0, 66, 0
2, 283309, Note_on_c, 0, 45, 0
2, 283317, Control_c, 0, 64, 0
2, 283365, Note_on_c, 0, 61, 65
2, 283365, Note_on_c, 0, 65, 65
2, 283378, Note_on_c, 0, 45, 65
2, 283378, Note_on_c, 0, 51, 65
2, 283378, Note_on_c, 0, 57, 64
2, 283386, Note_on_c, 0, 73, 66
2, 283515, Control_c, 0, 64, 127
2, 283576, Note_on_c, 0, 73, 0
2, 283576, Note_on_c, 0, 65, 0
2, 283597, Note_on_c, 0, 57, 0
2, 283605, Note_on_c, 0, 61, 0
2, 283618, Note_on_c, 0, 51, 0
2, 283628, Note_on_c, 0, 45, 0
2, 283746, Note_on_c, 0, 33, 65
2, 283757, Control_c, 0, 64, 0
2, 283784, Note_on_c, 0, 45, 65
2, 283802, Note_on_c, 0, 55, 65
2, 283802, Note_on_c, 0, 61, 65
2, 283808, Note_on_c, 0, 71, 67
2, 283810, Note_on_c, 0, 63, 65
2, 283890, Control_c, 0, 64, 127
2, 284076, Note_on_c, 0, 63, 0
2, 284076, Note_on_c, 0, 55, 0
2, 284076, Note_on_c, 0, 71, 0
2, 284104, Note_on_c, 0, 61, 0
2, 284185, Control_c, 0, 67, 127
2, 284208, Note_on_c, 0, 45, 0
2, 284231, Note_on_c, 0, 64, 42
2, 284260, Note_on_c, 0, 33, 0
2, 284312, Note_on_c, 0, 55, 62
2, 284314, Control_c, 0, 64, 0
2, 284332, Note_on_c, 0, 61, 62
2, 284371, Note_on_c, 0, 71, 66
2, 284392, Note_on_c, 0, 33, 64
2, 284434, Control_c, 0, 64, 127
2, 284450, Note_on_c, 0, 71, 0
2, 284463, Note_on_c, 0, 55, 0
2, 284464, Note_on_c, 0, 45, 64
2, 284481, Note_on_c, 0, 33, 0
2, 284504, Note_on_c, 0, 45, 0
2, 284537, Note_on_c, 0, 52, 61
2, 284548, Note_on_c, 0, 64, 0
2, 284566, Note_on_c, 0, 61, 0
2, 284577, Note_on_c, 0, 52, 0
2, 284577, Note_on_c, 0, 55, 58
2, 284618, Note_on_c, 0, 55, 0
2, 284632, Note_on_c, 0, 59, 58
2, 284684, Note_on_c, 0, 59, 0
2, 284686, Note_on_c, 0, 60, 58
2, 284738, Control_c, 0, 64, 0
2, 284749, Note_on_c, 0, 63, 65
2, 284786, Note_on_c, 0, 60, 0
2, 284786, Note_on_c, 0, 59, 63
2, 284857, Note_on_c, 0, 63, 0
2, 284857, Note_on_c, 0, 64, 58
2, 284861, Note_on_c, 0, 61, 58
2, 284870, Control_c, 0, 64, 127
2, 284888, Note_on_c, 0, 64, 0
2, 284898, Note_on_c, 0, 61, 0
2, 284898, Note_on_c, 0, 59, 0
2, 284898, Note_on_c, 0, 55, 58
2, 284950, Note_on_c, 0, 55, 0
2, 284954, Note_on_c, 0, 52, 58
2, 284983, Note_on_c, 0, 52, 0
2, 285006, Note_on_c, 0, 45, 58
2, 285016, Control_c, 0, 64, 0
2, 285058, Note_on_c, 0, 51, 58
2, 285070, Note_on_c, 0, 74, 64
2, 285070, Note_on_c, 0, 83, 67
2, 285099, Note_on_c, 0, 45, 0
2, 285110, Note_on_c, 0, 51, 0
2, 285110, Note_on_c, 0, 74, 0
2, 285110, Note_on_c, 0, 83, 0
2, 285113, Note_on_c, 0, 54, 54
2, 285119, Note_on_c, 0, 75, 69
2, 285119, Note_on_c, 0, 78, 70
2, 285146, Note_on_c, 0, 75, 0
2, 285148, Note_on_c, 0, 78, 0
2, 285159, Note_on_c, 0, 54, 0
2, 285160, Note_on_c, 0, 57, 56
2, 285160, Note_on_c, 0, 74, 72
2, 285160, Note_on_c, 0, 83, 73
2, 285191, Note_on_c, 0, 57, 0
2, 285202, Note_on_c, 0, 83, 0
2, 285202, Note_on_c, 0, 74, 0
2, 285202, Note_on_c, 0, 78, 68
2, 285212, Note_on_c, 0, 63, 59
2, 285212, Note_on_c, 0, 75, 66
2, 285241, Note_on_c, 0, 75, 0
2, 285252, Note_on_c, 0, 78, 0
2, 285254, Note_on_c, 0, 63, 0
2, 285254, Note_on_c, 0, 66, 69
2, 285254, Note_on_c, 0, 72, 71
2, 285254, Note_on_c, 0, 81, 74
2, 285282, Note_on_c, 0, 81, 0
2, 285284, Note_on_c, 0, 72, 0
2, 285284, Note_on_c, 0, 66, 0
2, 285315, Note_on_c, 0, 76, 69
2, 285315, Note_on_c, 0, 79, 72
2, 285317, Note_on_c, 0, 71, 73
2, 285329, Note_on_c, 0, 57, 62
2, 285338, Control_c, 0, 64, 127
2, 285369, Note_on_c, 0, 57, 0
2, 285371, Note_on_c, 0, 62, 62
2, 285387, Note_on_c, 0, 76, 0
2, 285408, Note_on_c, 0, 71, 0
2, 285419, Note_on_c, 0, 62, 0
2, 285421, Note_on_c, 0, 64, 63
2, 285462, Note_on_c, 0, 64, 0
2, 285462, Note_on_c, 0, 79, 0
2, 285476, Note_on_c, 0, 67, 61
2, 285514, Note_on_c, 0, 67, 0
2, 285522, Note_on_c, 0, 61, 62
2, 285522, Note_on_c, 0, 70, 63
2, 285551, Note_on_c, 0, 70, 0
2, 285551, Note_on_c, 0, 61, 0
2, 285566, Note_on_c, 0, 62, 62
2, 285566, Note_on_c, 0, 71, 63
2, 285592, Note_on_c, 0, 71, 0
2, 285603, Note_on_c, 0, 62, 0
2, 285637, Control_c, 0, 64, 0
2, 285658, Note_on_c, 0, 45, 62
2, 285697, Note_on_c, 0, 45, 0
2, 285715, Note_on_c, 0, 85, 70
2, 285717, Note_on_c, 0, 76, 70
2, 285719, Note_on_c, 0, 53, 62
2, 285746, Note_on_c, 0, 76, 0
2, 285748, Note_on_c, 0, 53, 0
2, 285757, Note_on_c, 0, 85, 0
2, 285767, Note_on_c, 0, 77, 72
2, 285769, Note_on_c, 0, 56, 62
2, 285771, Note_on_c, 0, 80, 73
2, 285794, Note_on_c, 0, 77, 0
2, 285808, Note_on_c, 0, 56, 0
2, 285808, Note_on_c, 0, 59, 62
2, 285817, Note_on_c, 0, 80, 0
2, 285821, Note_on_c, 0, 74, 75
2, 285821, Note_on_c, 0, 85, 78
2, 285842, Note_on_c, 0, 59, 0
2, 285851, Note_on_c, 0, 85, 0
2, 285859, Note_on_c, 0, 74, 0
2, 285872, Note_on_c, 0, 80, 76
2, 285874, Note_on_c, 0, 65, 76
2, 285874, Note_on_c, 0, 77, 78
2, 285911, Note_on_c, 0, 77, 0
2, 285917, Note_on_c, 0, 65, 0
2, 285923, Note_on_c, 0, 80, 0
2, 285923, Note_on_c, 0, 73, 72
2, 285923, Note_on_c, 0, 83, 72
2, 285925, Note_on_c, 0, 68, 68
2, 285953, Note_on_c, 0, 68, 0
2, 285953, Note_on_c, 0, 73, 0
2, 285955, Note_on_c, 0, 83, 0
2, 285974, Note_on_c, 0, 57, 62
2, 285974, Note_on_c, 0, 76, 68
2, 285974, Note_on_c, 0, 81, 71
2, 285986, Note_on_c, 0, 78, 70
2, 285999, Control_c, 0, 64, 127
2, 286015, Note_on_c, 0, 76, 0
2, 286024, Note_on_c, 0, 71, 73
2, 286025, Note_on_c, 0, 57, 0
2, 286025, Note_on_c, 0, 62, 62
2, 286034, Note_on_c, 0, 78, 0
2, 286055, Note_on_c, 0, 71, 0
2, 286055, Note_on_c, 0, 81, 0
2, 286068, Note_on_c, 0, 62, 0
2, 286078, Note_on_c, 0, 66, 71
2, 286078, Note_on_c, 0, 74, 73
2, 286105, Note_on_c, 0, 74, 0
2, 286116, Note_on_c, 0, 66, 0
2, 286130, Note_on_c, 0, 69, 70
2, 286159, Note_on_c, 0, 69, 0
2, 286180, Note_on_c, 0, 65, 70
2, 286180, Note_on_c, 0, 73, 71
2, 286209, Note_on_c, 0, 73, 0
2, 286211, Note_on_c, 0, 65, 0
2, 286216, Note_on_c, 0, 74, 71
2, 286218, Note_on_c, 0, 66, 70
2, 286260, Note_on_c, 0, 74, 0
2, 286262, Note_on_c, 0, 66, 0
2, 286315, Note_on_c, 0, 45, 67
2, 286326, Control_c, 0, 64, 0
2, 286353, Note_on_c, 0, 45, 0
2, 286353, Note_on_c, 0, 86, 56
2, 286357, Note_on_c, 0, 76, 53
2, 286365, Note_on_c, 0, 50, 58
2, 286394, Note_on_c, 0, 76, 0
2, 286394, Note_on_c, 0, 86, 0
2, 286405, Note_on_c, 0, 78, 60
2, 286405, Note_on_c, 0, 81, 63
2, 286417, Note_on_c, 0, 54, 61
2, 286428, Note_on_c, 0, 50, 0
2, 286433, Note_on_c, 0, 81, 0
2, 286444, Note_on_c, 0, 78, 0
2, 286448, Note_on_c, 0, 57, 62
2, 286448, Note_on_c, 0, 76, 67
2, 286448, Note_on_c, 0, 86, 70
2, 286466, Note_on_c, 0, 54, 0
2, 286479, Note_on_c, 0, 57, 0
2, 286479, Note_on_c, 0, 76, 0
2, 286484, Note_on_c, 0, 86, 0
2, 286497, Note_on_c, 0, 82, 70
2, 286499, Note_on_c, 0, 62, 62
2, 286499, Note_on_c, 0, 78, 70
2, 286529, Note_on_c, 0, 66, 70
2, 286538, Note_on_c, 0, 78, 0
2, 286538, Note_on_c, 0, 82, 0
2, 286538, Note_on_c, 0, 62, 0
2, 286538, Note_on_c, 0, 85, 78
2, 286551, Note_on_c, 0, 74, 78
2, 286561, Note_on_c, 0, 69, 75
2, 286570, Note_on_c, 0, 85, 0
2, 286570, Note_on_c, 0, 66, 0
2, 286580, Note_on_c, 0, 74, 0
2, 286589, Note_on_c, 0, 69, 0
2, 286601, Note_on_c, 0, 57, 62
2, 286601, Note_on_c, 0, 75, 67
2, 286601, Note_on_c, 0, 78, 66
2, 286630, Note_on_c, 0, 75, 0
2, 286643, Note_on_c, 0, 78, 0
2, 286645, Note_on_c, 0, 57, 0
2, 286653, Note_on_c, 0, 76, 58
2, 286653, Note_on_c, 0, 79, 57
2, 286655, Note_on_c, 0, 64, 55
2, 286682, Note_on_c, 0, 76, 0
2, 286691, Note_on_c, 0, 79, 0
2, 286691, Note_on_c, 0, 78, 61
2, 286693, Note_on_c, 0, 64, 0
2, 286693, Note_on_c, 0, 82, 66
2, 286703, Note_on_c, 0, 67, 64
2, 286730, Note_on_c, 0, 78, 0
2, 286741, Note_on_c, 0, 82, 0
2, 286741, Note_on_c, 0, 79, 68
2, 286741, Note_on_c, 0, 83, 72
2, 286751, Note_on_c, 0, 67, 0
2, 286753, Note_on_c, 0, 75, 72
2, 286771, Note_on_c, 0, 83, 0
2, 286777, Note_on_c, 0, 79, 0
2, 286779, Note_on_c, 0, 75, 0
2, 286792, Note_on_c, 0, 82, 77
2, 286792, Note_on_c, 0, 87, 78
2, 286800, Control_c, 0, 64, 127
2, 286800, Note_on_c, 0, 74, 77
2, 286827, Note_on_c, 0, 82, 0
2, 286831, Note_on_c, 0, 74, 0
2, 286840, Note_on_c, 0, 87, 0
2, 286843, Note_on_c, 0, 83, 72
2, 286843, Note_on_c, 0, 88, 71
2, 286862, Control_c, 0, 67, 0
2, 286870, Note_on_c, 0, 88, 0
2, 286870, Note_on_c, 0, 83, 0
2, 286895, Note_on_c, 0, 45, 47
2, 286947, Note_on_c, 0, 51, 45
2, 286951, Note_on_c, 0, 91, 71
2, 286953, Note_on_c, 0, 83, 72
2, 286965, Note_on_c, 0, 45, 0
2, 286976, Control_c, 0, 64, 0
2, 286978, Note_on_c, 0, 91, 0
2, 286980, Note_on_c, 0, 83, 0
2, 286985, Note_on_c, 0, 54, 55
2, 286991, Note_on_c, 0, 51, 0
2, 287000, Note_on_c, 0, 87, 68
2, 287002, Note_on_c, 0, 84, 67
2, 287027, Note_on_c, 0, 60, 58
2, 287029, Note_on_c, 0, 84, 0
2, 287031, Note_on_c, 0, 54, 0
2, 287039, Note_on_c, 0, 87, 0
2, 287052, Note_on_c, 0, 91, 71
2, 287054, Note_on_c, 0, 60, 0
2, 287056, Note_on_c, 0, 83, 73
2, 287066, Note_on_c, 0, 63, 63
2, 287082, Note_on_c, 0, 83, 0
2, 287082, Note_on_c, 0, 91, 0
2, 287105, Note_on_c, 0, 63, 0
2, 287105, Note_on_c, 0, 66, 70
2, 287105, Note_on_c, 0, 81, 74
2, 287105, Note_on_c, 0, 84, 75
2, 287127, Note_on_c, 0, 81, 0
2, 287137, Note_on_c, 0, 66, 0
2, 287146, Note_on_c, 0, 84, 0
2, 287150, Note_on_c, 0, 57, 64
2, 287158, Note_on_c, 0, 90, 74
2, 287160, Note_on_c, 0, 81, 75
2, 287181, Note_on_c, 0, 64, 70
2, 287187, Note_on_c, 0, 81, 0
2, 287187, Note_on_c, 0, 90, 0
2, 287189, Note_on_c, 0, 57, 0
2, 287201, Note_on_c, 0, 67, 73
2, 287210, Note_on_c, 0, 64, 0
2, 287221, Note_on_c, 0, 74, 77
2, 287221, Note_on_c, 0, 78, 78
2, 287221, Note_on_c, 0, 82, 81
2, 287229, Note_on_c, 0, 67, 0
2, 287238, Control_c, 0, 64, 127
2, 287254, Note_on_c, 0, 78, 0
2, 287272, Note_on_c, 0, 82, 0
2, 287272, Note_on_c, 0, 79, 77
2, 287272, Note_on_c, 0, 83, 77
2, 287303, Note_on_c, 0, 83, 0
2, 287312, Note_on_c, 0, 79, 0
2, 287322, Note_on_c, 0, 74, 0
2, 287324, Note_on_c, 0, 73, 79
2, 287324, Note_on_c, 0, 82, 82
2, 287324, Note_on_c, 0, 86, 83
2, 287364, Note_on_c, 0, 82, 0
2, 287372, Note_on_c, 0, 83, 78
2, 287372, Note_on_c, 0, 88, 77
2, 287374, Note_on_c, 0, 86, 0
2, 287374, Note_on_c, 0, 71, 74
2, 287378, Control_c, 0, 64, 0
2, 287380, Note_on_c, 0, 73, 0
2, 287403, Note_on_c, 0, 88, 0
2, 287403, Note_on_c, 0, 83, 0
2, 287414, Note_on_c, 0, 71, 0
2, 287426, Note_on_c, 0, 70, 70
2, 287426, Note_on_c, 0, 87, 70
2, 287426, Note_on_c, 0, 90, 69
2, 287464, Note_on_c, 0, 87, 0
2, 287469, Note_on_c, 0, 90, 0
2, 287475, Note_on_c, 0, 70, 0
2, 287475, Note_on_c, 0, 91, 78
2, 287477, Note_on_c, 0, 69, 77
2, 287477, Note_on_c, 0, 88, 80
2, 287504, Note_on_c, 0, 88, 0
2, 287510, Note_on_c, 0, 91, 0
2, 287528, Note_on_c, 0, 69, 0
2, 287528, Note_on_c, 0, 85, 80
2, 287530, Note_on_c, 0, 87, 81
2, 287540, Note_on_c, 0, 71, 81
2, 287551, Control_c, 0, 64, 127
2, 287572, Note_on_c, 0, 87, 0
2, 287572, Note_on_c, 0, 85, 0
2, 287572, Note_on_c, 0, 86, 79
2, 287572, Note_on_c, 0, 88, 77
2, 287584, Note_on_c, 0, 71, 0
2, 287586, Note_on_c, 0, 70, 74
2, 287611, Note_on_c, 0, 88, 0
2, 287615, Note_on_c, 0, 86, 0
2, 287619, Note_on_c, 0, 70, 0
2, 287621, Note_on_c, 0, 87, 76
2, 287632, Note_on_c, 0, 90, 78
2, 287633, Note_on_c, 0, 69, 78
2, 287671, Note_on_c, 0, 90, 0
2, 287671, Note_on_c, 0, 87, 0
2, 287671, Note_on_c, 0, 91, 75
2, 287677, Note_on_c, 0, 88, 76
2, 287682, Note_on_c, 0, 69, 0
2, 287684, Note_on_c, 0, 67, 73
2, 287697, Control_c, 0, 64, 0
2, 287711, Note_on_c, 0, 88, 0
2, 287711, Note_on_c, 0, 91, 0
2, 287724, Note_on_c, 0, 94, 81
2, 287726, Note_on_c, 0, 67, 0
2, 287726, Note_on_c, 0, 90, 84
2, 287728, Note_on_c, 0, 66, 82
2, 287754, Note_on_c, 0, 90, 0
2, 287756, Note_on_c, 0, 66, 0
2, 287756, Note_on_c, 0, 65, 78
2, 287769, Note_on_c, 0, 94, 0
2, 287777, Note_on_c, 0, 91, 84
2, 287777, Note_on_c, 0, 95, 85
2, 287790, Note_on_c, 0, 70, 84
2, 287800, Note_on_c, 0, 65, 0
2, 287819, Note_on_c, 0, 91, 0
2, 287821, Control_c, 0, 64, 127
2, 287821, Note_on_c, 0, 74, 79
2, 287826, Note_on_c, 0, 70, 0
2, 287828, Note_on_c, 0, 95, 0
2, 287828, Note_on_c, 0, 92, 82
2, 287841, Note_on_c, 0, 80, 82
2, 287841, Note_on_c, 0, 98, 89
2, 287864, Control_c, 0, 64, 0
2, 287872, Note_on_c, 0, 80, 0
2, 287872, Note_on_c, 0, 74, 0
2, 287894, Note_on_c, 0, 92, 0
2, 287894, Note_on_c, 0, 98, 0
2, 287894, Note_on_c, 0, 89, 81
2, 287908, Note_on_c, 0, 62, 73
2, 287933, Note_on_c, 0, 68, 78
2, 287935, Note_on_c, 0, 89, 0
2, 287937, Note_on_c, 0, 62, 0
2, 287937, Control_c, 0, 64, 127
2, 287937, Note_on_c, 0, 70, 83
2, 287945, Note_on_c, 0, 94, 86
2, 287947, Note_on_c, 0, 101, 90
2, 287949, Note_on_c, 0, 77, 86
2, 287955, Note_on_c, 0, 68, 0
2, 287966, Note_on_c, 0, 70, 0
2, 287980, Control_c, 0, 64, 0
2, 287996, Note_on_c, 0, 77, 0
2, 287996, Note_on_c, 0, 94, 0
2, 287996, Note_on_c, 0, 93, 82
2, 288007, Note_on_c, 0, 101, 0
2, 288023, Note_on_c, 0, 68, 75
2, 288027, Note_on_c, 0, 74, 75
2, 288038, Note_on_c, 0, 93, 0
2, 288041, Note_on_c, 0, 77, 74
2, 288045, Note_on_c, 0, 94, 76
2, 288045, Note_on_c, 0, 97, 79
2, 288056, Note_on_c, 0, 83, 78
2, 288058, Note_on_c, 0, 68, 0
2, 288058, Control_c, 0, 64, 127
2, 288074, Note_on_c, 0, 74, 0
2, 288085, Note_on_c, 0, 94, 0
2, 288085, Note_on_c, 0, 77, 0
2, 288093, Control_c, 0, 64, 0
2, 288095, Note_on_c, 0, 95, 76
2, 288095, Note_on_c, 0, 98, 79
2, 288097, Note_on_c, 0, 83, 0
2, 288097, Note_on_c, 0, 97, 0
2, 288122, Note_on_c, 0, 67, 72
2, 288128, Note_on_c, 0, 74, 74
2, 288138, Note_on_c, 0, 95, 0
2, 288138, Note_on_c, 0, 98, 0
2, 288144, Note_on_c, 0, 100, 78
2, 288148, Control_c, 0, 64, 127
2, 288148, Note_on_c, 0, 77, 74
2, 288148, Note_on_c, 0, 97, 78
2, 288159, Note_on_c, 0, 67, 0
2, 288159, Note_on_c, 0, 83, 78
2, 288184, Control_c, 0, 64, 0
2, 288185, Note_on_c, 0, 83, 0
2, 288185, Note_on_c, 0, 77, 0
2, 288198, Note_on_c, 0, 74, 0
2, 288198, Note_on_c, 0, 100, 0
2, 288198, Note_on_c, 0, 97, 0
2, 288198, Note_on_c, 0, 98, 78
2, 288200, Note_on_c, 0, 101, 78
2, 288221, Note_on_c, 0, 65, 73
2, 288232, Note_on_c, 0, 71, 74
2, 288237, Note_on_c, 0, 101, 0
2, 288237, Note_on_c, 0, 98, 0
2, 288239, Note_on_c, 0, 74, 73
2, 288250, Note_on_c, 0, 100, 79
2, 288252, Note_on_c, 0, 65, 0
2, 288254, Control_c, 0, 64, 127
2, 288259, Note_on_c, 0, 104, 81
2, 288261, Note_on_c, 0, 81, 79
2, 288265, Note_on_c, 0, 71, 0
2, 288286, Note_on_c, 0, 81, 0
2, 288290, Note_on_c, 0, 74, 0
2, 288294, Control_c, 0, 64, 0
2, 288298, Note_on_c, 0, 100, 0
2, 288310, Note_on_c, 0, 104, 0
2, 288310, Note_on_c, 0, 64, 73
2, 288321, Note_on_c, 0, 101, 78
2, 288335, Note_on_c, 0, 71, 74
2, 288341, Note_on_c, 0, 74, 74
2, 288347, Note_on_c, 0, 101, 0
2, 288351, Note_on_c, 0, 64, 0
2, 288361, Note_on_c, 0, 80, 79
2, 288363, Control_c, 0, 64, 127
2, 288369, Note_on_c, 0, 71, 0
2, 288381, Note_on_c, 0, 90, 78
2, 288381, Note_on_c, 0, 94, 77
2, 288387, Note_on_c, 0, 74, 0
2, 288393, Control_c, 0, 64, 0
2, 288399, Note_on_c, 0, 80, 0
2, 288407, Note_on_c, 0, 90, 0
2, 288407, Note_on_c, 0, 94, 0
2, 288422, Note_on_c, 0, 62, 73
2, 288430, Note_on_c, 0, 95, 76
2, 288432, Note_on_c, 0, 91, 76
2, 288438, Note_on_c, 0, 68, 72
2, 288447, Note_on_c, 0, 71, 74
2, 288463, Note_on_c, 0, 91, 0
2, 288465, Note_on_c, 0, 78, 78
2, 288467, Control_c, 0, 64, 127
2, 288471, Note_on_c, 0, 95, 0
2, 288471, Note_on_c, 0, 92, 78
2, 288472, Note_on_c, 0, 62, 0
2, 288483, Note_on_c, 0, 96, 76
2, 288494, Note_on_c, 0, 68, 0
2, 288494, Note_on_c, 0, 71, 0
2, 288499, Control_c, 0, 64, 0
2, 288501, Note_on_c, 0, 78, 0
2, 288522, Note_on_c, 0, 96, 0
2, 288522, Note_on_c, 0, 92, 0
2, 288533, Note_on_c, 0, 93, 75
2, 288535, Note_on_c, 0, 97, 79
2, 288537, Note_on_c, 0, 61, 73
2, 288547, Note_on_c, 0, 67, 73
2, 288560, Note_on_c, 0, 71, 74
2, 288562, Control_c, 0, 64, 127
2, 288564, Note_on_c, 0, 97, 0
2, 288564, Note_on_c, 0, 93, 0
2, 288576, Note_on_c, 0, 67, 0
2, 288578, Note_on_c, 0, 61, 0
2, 288578, Note_on_c, 0, 77, 81
2, 288584, Note_on_c, 0, 94, 81
2, 288584, Note_on_c, 0, 98, 83
2, 288596, Note_on_c, 0, 71, 0
2, 288602, Control_c, 0, 64, 0
2, 288606, Note_on_c, 0, 77, 0
2, 288624, Note_on_c, 0, 94, 0
2, 288624, Note_on_c, 0, 98, 0
2, 288624, Note_on_c, 0, 95, 76
2, 288624, Note_on_c, 0, 99, 79
2, 288640, Note_on_c, 0, 61, 73
2, 288649, Note_on_c, 0, 67, 73
2, 288660, Note_on_c, 0, 71, 74
2, 288665, Note_on_c, 0, 99, 0
2, 288665, Note_on_c, 0, 95, 0
2, 288674, Control_c, 0, 64, 127
2, 288683, Note_on_c, 0, 76, 79
2, 288688, Note_on_c, 0, 90, 79
2, 288690, Note_on_c, 0, 87, 78
2, 288699, Note_on_c, 0, 71, 0
2, 288703, Note_on_c, 0, 61, 0
2, 288707, Note_on_c, 0, 76, 0
2, 288707, Note_on_c, 0, 67, 0
2, 288712, Control_c, 0, 64, 0
2, 288725, Note_on_c, 0, 91, 76
2, 288727, Note_on_c, 0, 87, 0
2, 288727, Note_on_c, 0, 90, 0
2, 288727, Note_on_c, 0, 88, 76
2, 288752, Note_on_c, 0, 60, 73
2, 288768, Note_on_c, 0, 88, 0
2, 288768, Note_on_c, 0, 91, 0
2, 288772, Note_on_c, 0, 67, 72
2, 288783, Note_on_c, 0, 90, 76
2, 288783, Note_on_c, 0, 93, 76
2, 288784, Control_c, 0, 64, 127
2, 288784, Note_on_c, 0, 70, 74
2, 288790, Note_on_c, 0, 60, 0
2, 288790, Note_on_c, 0, 76, 76
2, 288819, Note_on_c, 0, 70, 0
2, 288821, Note_on_c, 0, 67, 0
2, 288823, Control_c, 0, 64, 0
2, 288829, Note_on_c, 0, 93, 0
2, 288829, Note_on_c, 0, 90, 0
2, 288829, Note_on_c, 0, 91, 76
2, 288829, Note_on_c, 0, 94, 76
2, 288831, Note_on_c, 0, 76, 0
2, 288856, Note_on_c, 0, 59, 73
2, 288872, Note_on_c, 0, 64, 73
2, 288880, Note_on_c, 0, 94, 0
2, 288880, Note_on_c, 0, 91, 0
2, 288880, Note_on_c, 0, 90, 77
2, 288882, Note_on_c, 0, 67, 77
2, 288882, Note_on_c, 0, 87, 80
2, 288893, Note_on_c, 0, 59, 0
2, 288893, Note_on_c, 0, 74, 80
2, 288895, Control_c, 0, 64, 127
2, 288930, Note_on_c, 0, 74, 0
2, 288930, Note_on_c, 0, 87, 0
2, 288930, Note_on_c, 0, 64, 0
2, 288930, Note_on_c, 0, 90, 0
2, 288930, Note_on_c, 0, 67, 0
2, 288932, Control_c, 0, 64, 0
2, 288938, Note_on_c, 0, 91, 80
2, 288942, Note_on_c, 0, 88, 80
2, 288944, Note_on_c, 0, 57, 77
2, 288962, Note_on_c, 0, 64, 77
2, 288973, Note_on_c, 0, 67, 77
2, 288976, Note_on_c, 0, 91, 0
2, 288978, Note_on_c, 0, 88, 0
2, 288982, Note_on_c, 0, 57, 0
2, 288991, Note_on_c, 0, 73, 83
2, 289001, Note_on_c, 0, 90, 83
2, 289001, Note_on_c, 0, 93, 82
2, 289003, Control_c, 0, 64, 127
2, 289022, Note_on_c, 0, 64, 0
2, 289022, Note_on_c, 0, 67, 0
2, 289036, Control_c, 0, 64, 0
2, 289042, Note_on_c, 0, 73, 0
2, 289048, Note_on_c, 0, 94, 80
2, 289049, Note_on_c, 0, 90, 0
2, 289049, Note_on_c, 0, 93, 0
2, 289049, Note_on_c, 0, 91, 80
2, 289066, Note_on_c, 0, 55, 77
2, 289074, Note_on_c, 0, 61, 77
2, 289085, Note_on_c, 0, 64, 77
2, 289091, Note_on_c, 0, 91, 0
2, 289091, Note_on_c, 0, 94, 0
2, 289103, Note_on_c, 0, 55, 0
2, 289105, Control_c, 0, 64, 127
2, 289105, Note_on_c, 0, 71, 84
2, 289114, Note_on_c, 0, 87, 84
2, 289114, Note_on_c, 0, 90, 83
2, 289126, Note_on_c, 0, 61, 0
2, 289135, Note_on_c, 0, 64, 0
2, 289145, Control_c, 0, 64, 0
2, 289154, Note_on_c, 0, 87, 0
2, 289154, Note_on_c, 0, 71, 0
2, 289154, Note_on_c, 0, 90, 0
2, 289163, Note_on_c, 0, 91, 80
2, 289167, Note_on_c, 0, 88, 80
2, 289168, Note_on_c, 0, 54, 77
2, 289179, Note_on_c, 0, 61, 77
2, 289185, Note_on_c, 0, 64, 77
2, 289193, Note_on_c, 0, 88, 0
2, 289206, Note_on_c, 0, 91, 0
2, 289208, Note_on_c, 0, 70, 83
2, 289216, Note_on_c, 0, 90, 83
2, 289216, Note_on_c, 0, 93, 82
2, 289218, Note_on_c, 0, 54, 0
2, 289220, Control_c, 0, 64, 127
2, 289245, Note_on_c, 0, 70, 0
2, 289245, Note_on_c, 0, 64, 0
2, 289245, Note_on_c, 0, 61, 0
2, 289256, Note_on_c, 0, 93, 0
2, 289256, Note_on_c, 0, 90, 0
2, 289256, Note_on_c, 0, 91, 80
2, 289256, Note_on_c, 0, 94, 80
2, 289281, Note_on_c, 0, 55, 77
2, 289285, Note_on_c, 0, 91, 0
2, 289297, Note_on_c, 0, 94, 0
2, 289301, Note_on_c, 0, 61, 77
2, 289303, Control_c, 0, 64, 0
2, 289307, Note_on_c, 0, 87, 80
2, 289307, Note_on_c, 0, 90, 80
2, 289311, Note_on_c, 0, 64, 79
2, 289316, Note_on_c, 0, 55, 0
2, 289316, Note_on_c, 0, 71, 81
2, 289337, Note_on_c, 0, 61, 0
2, 289348, Note_on_c, 0, 64, 0
2, 289352, Note_on_c, 0, 90, 0
2, 289352, Note_on_c, 0, 87, 0
2, 289352, Note_on_c, 0, 91, 87
2, 289354, Note_on_c, 0, 71, 0
2, 289358, Note_on_c, 0, 86, 89
2, 289368, Note_on_c, 0, 54, 85
2, 289384, Note_on_c, 0, 86, 0
2, 289386, Note_on_c, 0, 61, 88
2, 289392, Note_on_c, 0, 91, 0
2, 289407, Note_on_c, 0, 85, 94
2, 289407, Note_on_c, 0, 92, 95
2, 289408, Note_on_c, 0, 64, 93
2, 289417, Note_on_c, 0, 70, 96
2, 289419, Note_on_c, 0, 54, 0
2, 289421, Control_c, 0, 64, 127
2, 289433, Note_on_c, 0, 92, 0
2, 289433, Note_on_c, 0, 85, 0
2, 289448, Note_on_c, 0, 61, 0
2, 289448, Note_on_c, 0, 64, 0
2, 289464, Note_on_c, 0, 70, 0
2, 289520, Note_on_c, 0, 75, 101
2, 289520, Note_on_c, 0, 77, 97
2, 289532, Control_c, 0, 64, 0
2, 289549, Note_on_c, 0, 77, 0
2, 289549, Note_on_c, 0, 75, 0
2, 289561, Note_on_c, 0, 60, 91
2, 289561, Note_on_c, 0, 66, 91
2, 289565, Note_on_c, 0, 69, 91
2, 289571, Note_on_c, 0, 64, 89
2, 289571, Note_on_c, 0, 76, 89
2, 289571, Note_on_c, 0, 78, 88
2, 289592, Note_on_c, 0, 64, 0
2, 289592, Note_on_c, 0, 69, 0
2, 289592, Note_on_c, 0, 66, 0
2, 289598, Note_on_c, 0, 60, 0
2, 289598, Note_on_c, 0, 76, 0
2, 289610, Note_on_c, 0, 78, 0
2, 289621, Note_on_c, 0, 77, 81
2, 289621, Note_on_c, 0, 80, 80
2, 289660, Note_on_c, 0, 80, 0
2, 289660, Note_on_c, 0, 77, 0
2, 289672, Note_on_c, 0, 78, 72
2, 289672, Note_on_c, 0, 81, 72
2, 289674, Note_on_c, 0, 66, 68
2, 289678, Note_on_c, 0, 57, 73
2, 289687, Note_on_c, 0, 61, 73
2, 289687, Note_on_c, 0, 63, 73
2, 289705, Note_on_c, 0, 63, 0
2, 289705, Note_on_c, 0, 78, 0
2, 289705, Note_on_c, 0, 66, 0
2, 289705, Note_on_c, 0, 57, 0
2, 289714, Note_on_c, 0, 81, 0
2, 289714, Note_on_c, 0, 61, 0
2, 289724, Note_on_c, 0, 77, 73
2, 289739, Note_on_c, 0, 75, 74
2, 289768, Note_on_c, 0, 75, 0
2, 289768, Note_on_c, 0, 77, 0
2, 289778, Note_on_c, 0, 66, 75
2, 289780, Note_on_c, 0, 60, 73
2, 289782, Note_on_c, 0, 69, 77
2, 289791, Note_on_c, 0, 64, 77
2, 289791, Note_on_c, 0, 76, 79
2, 289791, Note_on_c, 0, 78, 80
2, 289807, Note_on_c, 0, 69, 0
2, 289809, Note_on_c, 0, 66, 0
2, 289819, Note_on_c, 0, 76, 0
2, 289819, Note_on_c, 0, 78, 0
2, 289821, Note_on_c, 0, 60, 0
2, 289821, Note_on_c, 0, 64, 0
2, 289852, Note_on_c, 0, 77, 73
2, 289852, Note_on_c, 0, 80, 74
2, 289891, Note_on_c, 0, 80, 0
2, 289891, Note_on_c, 0, 77, 0
2, 289904, Note_on_c, 0, 57, 73
2, 289904, Note_on_c, 0, 66, 78
2, 289904, Note_on_c, 0, 78, 80
2, 289904, Note_on_c, 0, 81, 83
2, 289906, Note_on_c, 0, 63, 73
2, 289914, Note_on_c, 0, 61, 73
2, 289925, Note_on_c, 0, 63, 0
2, 289934, Note_on_c, 0, 78, 0
2, 289934, Note_on_c, 0, 66, 0
2, 289937, Note_on_c, 0, 57, 0
2, 289943, Note_on_c, 0, 81, 0
2, 289947, Note_on_c, 0, 61, 0
2, 289965, Note_on_c, 0, 75, 79
2, 289965, Note_on_c, 0, 77, 80
2, 289992, Note_on_c, 0, 77, 0
2, 289992, Note_on_c, 0, 75, 0
2, 290013, Note_on_c, 0, 66, 77
2, 290017, Note_on_c, 0, 60, 73
2, 290017, Note_on_c, 0, 76, 80
2, 290017, Note_on_c, 0, 78, 81
2, 290019, Note_on_c, 0, 64, 81
2, 290019, Note_on_c, 0, 69, 82
2, 290042, Note_on_c, 0, 69, 0
2, 290042, Note_on_c, 0, 76, 0
2, 290042, Note_on_c, 0, 64, 0
2, 290046, Note_on_c, 0, 66, 0
2, 290046, Note_on_c, 0, 78, 0
2, 290055, Note_on_c, 0, 60, 0
2, 290067, Note_on_c, 0, 80, 77
2, 290080, Note_on_c, 0, 77, 78
2, 290108, Note_on_c, 0, 77, 0
2, 290108, Note_on_c, 0, 80, 0
2, 290127, Note_on_c, 0, 66, 76
2, 290128, Note_on_c, 0, 78, 78
2, 290128, Note_on_c, 0, 81, 81
2, 290130, Note_on_c, 0, 57, 73
2, 290130, Note_on_c, 0, 63, 73
2, 290141, Note_on_c, 0, 61, 72
2, 290152, Note_on_c, 0, 63, 0
2, 290157, Note_on_c, 0, 78, 0
2, 290159, Note_on_c, 0, 57, 0
2, 290159, Note_on_c, 0, 66, 0
2, 290168, Note_on_c, 0, 81, 0
2, 290170, Note_on_c, 0, 61, 0
2, 290188, Note_on_c, 0, 80, 77
2, 290190, Note_on_c, 0, 75, 78
2, 290229, Note_on_c, 0, 75, 0
2, 290240, Note_on_c, 0, 80, 0
2, 290240, Note_on_c, 0, 67, 80
2, 290240, Note_on_c, 0, 76, 82
2, 290240, Note_on_c, 0, 81, 84
2, 290244, Note_on_c, 0, 55, 73
2, 290254, Note_on_c, 0, 60, 73
2, 290254, Note_on_c, 0, 64, 81
2, 290269, Note_on_c, 0, 76, 0
2, 290269, Note_on_c, 0, 67, 0
2, 290272, Note_on_c, 0, 55, 0
2, 290272, Note_on_c, 0, 81, 0
2, 290274, Note_on_c, 0, 64, 0
2, 290280, Note_on_c, 0, 60, 0
2, 290293, Note_on_c, 0, 80, 76
2, 290295, Note_on_c, 0, 83, 77
2, 290323, Note_on_c, 0, 80, 0
2, 290336, Note_on_c, 0, 83, 0
2, 290344, Note_on_c, 0, 60, 73
2, 290344, Note_on_c, 0, 84, 81
2, 290346, Note_on_c, 0, 64, 79
2, 290346, Note_on_c, 0, 69, 81
2, 290357, Note_on_c, 0, 81, 84
2, 290359, Note_on_c, 0, 54, 73
2, 290373, Note_on_c, 0, 84, 0
2, 290375, Note_on_c, 0, 69, 0
2, 290384, Note_on_c, 0, 81, 0
2, 290388, Note_on_c, 0, 60, 0
2, 290388, Note_on_c, 0, 54, 0
2, 290388, Note_on_c, 0, 64, 0
2, 290408, Note_on_c, 0, 75, 76
2, 290408, Note_on_c, 0, 80, 75
2, 290447, Note_on_c, 0, 75, 0
2, 290460, Note_on_c, 0, 80, 0
2, 290460, Note_on_c, 0, 81, 82
2, 290462, Note_on_c, 0, 55, 73
2, 290462, Note_on_c, 0, 67, 80
2, 290472, Note_on_c, 0, 64, 81
2, 290474, Note_on_c, 0, 60, 73
2, 290474, Note_on_c, 0, 76, 82
2, 290490, Note_on_c, 0, 64, 0
2, 290490, Note_on_c, 0, 67, 0
2, 290490, Note_on_c, 0, 55, 0
2, 290496, Note_on_c, 0, 76, 0
2, 290500, Note_on_c, 0, 81, 0
2, 290502, Note_on_c, 0, 60, 0
2, 290508, Note_on_c, 0, 80, 76
2, 290508, Note_on_c, 0, 83, 77
2, 290549, Note_on_c, 0, 80, 0
2, 290563, Note_on_c, 0, 83, 0
2, 290569, Note_on_c, 0, 84, 81
2, 290573, Note_on_c, 0, 60, 73
2, 290573, Note_on_c, 0, 69, 80
2, 290573, Note_on_c, 0, 81, 83
2, 290582, Note_on_c, 0, 54, 73
2, 290582, Note_on_c, 0, 64, 81
2, 290598, Note_on_c, 0, 81, 0
2, 290598, Note_on_c, 0, 69, 0
2, 290598, Note_on_c, 0, 84, 0
2, 290598, Note_on_c, 0, 60, 0
2, 290610, Note_on_c, 0, 64, 0
2, 290610, Note_on_c, 0, 54, 0
2, 290631, Note_on_c, 0, 75, 79
2, 290631, Note_on_c, 0, 80, 80
2, 290661, Note_on_c, 0, 75, 0
2, 290667, Note_on_c, 0, 80, 0
2, 290673, Note_on_c, 0, 55, 73
2, 290673, Note_on_c, 0, 60, 73
2, 290673, Note_on_c, 0, 64, 81
2, 290673, Note_on_c, 0, 67, 80
2, 290673, Note_on_c, 0, 76, 82
2, 290673, Note_on_c, 0, 81, 83
2, 290689, Note_on_c, 0, 67, 0
2, 290698, Note_on_c, 0, 76, 0
2, 290702, Note_on_c, 0, 64, 0
2, 290702, Note_on_c, 0, 55, 0
2, 290702, Note_on_c, 0, 81, 0
2, 290702, Note_on_c, 0, 60, 0
2, 290722, Note_on_c, 0, 80, 78
2, 290722, Note_on_c, 0, 83, 81
2, 290745, Note_on_c, 0, 54, 73
2, 290751, Note_on_c, 0, 80, 0
2, 290751, Note_on_c, 0, 60, 73
2, 290761, Note_on_c, 0, 83, 0
2, 290763, Note_on_c, 0, 64, 78
2, 290769, Note_on_c, 0, 81, 82
2, 290769, Note_on_c, 0, 84, 83
2, 290771, Note_on_c, 0, 69, 82
2, 290775, Control_c, 0, 64, 127
2, 290789, Note_on_c, 0, 60, 0
2, 290791, Note_on_c, 0, 54, 0
2, 290797, Note_on_c, 0, 64, 0
2, 290797, Note_on_c, 0, 81, 0
2, 290797, Note_on_c, 0, 69, 0
2, 290809, Note_on_c, 0, 84, 0
2, 290820, Note_on_c, 0, 83, 78
2, 290822, Note_on_c, 0, 80, 75
2, 290824, Control_c, 0, 64, 0
2, 290856, Note_on_c, 0, 80, 0
2, 290867, Note_on_c, 0, 84, 81
2, 290869, Note_on_c, 0, 83, 0
2, 290871, Note_on_c, 0, 64, 80
2, 290871, Note_on_c, 0, 69, 82
2, 290871, Note_on_c, 0, 72, 81
2, 290871, Note_on_c, 0, 81, 84
2, 290881, Note_on_c, 0, 67, 80
2, 290887, Note_on_c, 0, 69, 0
2, 290897, Note_on_c, 0, 72, 0
2, 290897, Note_on_c, 0, 67, 0
2, 290899, Note_on_c, 0, 64, 0
2, 290899, Note_on_c, 0, 81, 0
2, 290910, Note_on_c, 0, 84, 0
2, 290916, Note_on_c, 0, 87, 76
2, 290920, Note_on_c, 0, 83, 76
2, 290961, Note_on_c, 0, 83, 0
2, 290969, Note_on_c, 0, 87, 0
2, 290969, Note_on_c, 0, 84, 80
2, 290973, Note_on_c, 0, 66, 79
2, 290973, Note_on_c, 0, 88, 83
2, 290975, Note_on_c, 0, 60, 73
2, 290975, Note_on_c, 0, 64, 81
2, 290975, Note_on_c, 0, 69, 81
2, 290992, Note_on_c, 0, 66, 0
2, 291000, Note_on_c, 0, 69, 0
2, 291002, Note_on_c, 0, 60, 0
2, 291002, Note_on_c, 0, 64, 0
2, 291011, Note_on_c, 0, 88, 0
2, 291013, Note_on_c, 0, 84, 0
2, 291025, Note_on_c, 0, 80, 75
2, 291025, Note_on_c, 0, 83, 76
2, 291072, Note_on_c, 0, 80, 0
2, 291074, Note_on_c, 0, 72, 81
2, 291074, Note_on_c, 0, 84, 84
2, 291076, Note_on_c, 0, 83, 0
2, 291076, Note_on_c, 0, 64, 82
2, 291076, Note_on_c, 0, 69, 84
2, 291085, Note_on_c, 0, 81, 88
2, 291087, Note_on_c, 0, 67, 86
2, 291095, Note_on_c, 0, 69, 0
2, 291106, Note_on_c, 0, 72, 0
2, 291106, Note_on_c, 0, 64, 0
2, 291106, Note_on_c, 0, 67, 0
2, 291118, Note_on_c, 0, 84, 0
2, 291118, Note_on_c, 0, 81, 0
2, 291138, Note_on_c, 0, 83, 80
2, 291138, Note_on_c, 0, 87, 82
2, 291188, Note_on_c, 0, 87, 0
2, 291188, Note_on_c, 0, 83, 0
2, 291188, Note_on_c, 0, 84, 84
2, 291188, Note_on_c, 0, 88, 84
2, 291190, Note_on_c, 0, 60, 79
2, 291190, Note_on_c, 0, 66, 81
2, 291190, Note_on_c, 0, 69, 81
2, 291201, Note_on_c, 0, 64, 81
2, 291211, Note_on_c, 0, 66, 0
2, 291220, Note_on_c, 0, 69, 0
2, 291220, Note_on_c, 0, 64, 0
2, 291222, Note_on_c, 0, 60, 0
2, 291231, Note_on_c, 0, 88, 0
2, 291243, Note_on_c, 0, 84, 0
2, 291257, Note_on_c, 0, 83, 84
2, 291257, Note_on_c, 0, 87, 84
2, 291307, Note_on_c, 0, 83, 0
2, 291307, Note_on_c, 0, 58, 84
2, 291307, Note_on_c, 0, 64, 84
2, 291307, Note_on_c, 0, 67, 85
2, 291313, Note_on_c, 0, 87, 0
2, 291313, Note_on_c, 0, 84, 90
2, 291315, Note_on_c, 0, 88, 92
2, 291319, Note_on_c, 0, 60, 87
2, 291325, Note_on_c, 0, 64, 0
2, 291335, Note_on_c, 0, 67, 0
2, 291335, Note_on_c, 0, 58, 0
2, 291346, Note_on_c, 0, 84, 0
2, 291348, Note_on_c, 0, 60, 0
2, 291356, Note_on_c, 0, 88, 0
2, 291369, Note_on_c, 0, 87, 92
2, 291369, Note_on_c, 0, 90, 92
2, 291416, Note_on_c, 0, 90, 0
2, 291416, Note_on_c, 0, 87, 0
2, 291424, Note_on_c, 0, 88, 91
2, 291424, Note_on_c, 0, 91, 92
2, 291430, Note_on_c, 0, 55, 89
2, 291432, Note_on_c, 0, 59, 89
2, 291438, Control_c, 0, 64, 127
2, 291438, Note_on_c, 0, 64, 89
2, 291440, Note_on_c, 0, 61, 89
2, 291450, Note_on_c, 0, 88, 0
2, 291454, Note_on_c, 0, 59, 0
2, 291456, Note_on_c, 0, 55, 0
2, 291465, Note_on_c, 0, 91, 0
2, 291467, Note_on_c, 0, 64, 0
2, 291467, Note_on_c, 0, 61, 0
2, 291485, Note_on_c, 0, 87, 87
2, 291487, Note_on_c, 0, 83, 86
2, 291489, Control_c, 0, 64, 0
2, 291539, Note_on_c, 0, 83, 0
2, 291547, Note_on_c, 0, 87, 0
2, 291560, Note_on_c, 0, 58, 87
2, 291560, Note_on_c, 0, 84, 90
2, 291560, Note_on_c, 0, 88, 91
2, 291562, Note_on_c, 0, 64, 89
2, 291562, Note_on_c, 0, 67, 89
2, 291570, Note_on_c, 0, 60, 88
2, 291572, Control_c, 0, 64, 127
2, 291576, Note_on_c, 0, 67, 0
2, 291589, Note_on_c, 0, 84, 0
2, 291591, Note_on_c, 0, 64, 0
2, 291591, Note_on_c, 0, 58, 0
2, 291596, Note_on_c, 0, 88, 0
2, 291600, Note_on_c, 0, 60, 0
2, 291616, Note_on_c, 0, 87, 98
2, 291618, Note_on_c, 0, 90, 99
2, 291622, Control_c, 0, 64, 0
2, 291660, Note_on_c, 0, 87, 0
2, 291668, Note_on_c, 0, 90, 0
2, 291691, Note_on_c, 0, 88, 98
2, 291691, Note_on_c, 0, 91, 96
2, 291693, Note_on_c, 0, 55, 90
2, 291693, Note_on_c, 0, 61, 89
2, 291693, Note_on_c, 0, 64, 92
2, 291695, Note_on_c, 0, 59, 88
2, 291706, Control_c, 0, 64, 127
2, 291710, Note_on_c, 0, 64, 0
2, 291718, Note_on_c, 0, 88, 0
2, 291720, Note_on_c, 0, 61, 0
2, 291722, Note_on_c, 0, 55, 0
2, 291722, Note_on_c, 0, 59, 0
2, 291731, Note_on_c, 0, 91, 0
2, 291758, Control_c, 0, 64, 0
2, 291761, Note_on_c, 0, 83, 96
2, 291761, Note_on_c, 0, 87, 95
2, 291790, Note_on_c, 0, 83, 0
2, 291810, Note_on_c, 0, 87, 0
2, 291827, Note_on_c, 0, 48, 108
2, 291832, Note_on_c, 0, 84, 103
2, 291832, Note_on_c, 0, 88, 104
2, 291834, Note_on_c, 0, 58, 108
2, 291836, Note_on_c, 0, 55, 108
2, 291836, Note_on_c, 0, 64, 102
2, 291847, Control_c, 0, 64, 127
2, 291853, Note_on_c, 0, 48, 0
2, 291858, Note_on_c, 0, 84, 0
2, 291860, Note_on_c, 0, 55, 0
2, 291860, Note_on_c, 0, 58, 0
2, 291860, Note_on_c, 0, 64, 0
2, 291866, Note_on_c, 0, 88, 0
2, 291899, Note_on_c, 0, 87, 103
2, 291899, Note_on_c, 0, 90, 105
2, 291926, Control_c, 0, 64, 0
2, 291938, Note_on_c, 0, 90, 0
2, 291938, Note_on_c, 0, 87, 0
2, 291965, Note_on_c, 0, 47, 100
2, 291976, Note_on_c, 0, 52, 99
2, 291981, Note_on_c, 0, 88, 101
2, 291981, Note_on_c, 0, 91, 101
2, 291983, Note_on_c, 0, 55, 98
2, 291983, Note_on_c, 0, 62, 97
2, 292018, Control_c, 0, 64, 127
2, 292020, Note_on_c, 0, 88, 0
2, 292032, Note_on_c, 0, 91, 0
2, 292034, Note_on_c, 0, 62, 0
2, 292036, Note_on_c, 0, 47, 0
2, 292042, Note_on_c, 0, 55, 0
2, 292046, Note_on_c, 0, 52, 0
2, 292060, Note_on_c, 0, 90, 102
2, 292060, Note_on_c, 0, 93, 103
2, 292097, Note_on_c, 0, 93, 0
2, 292110, Note_on_c, 0, 90, 0
2, 292160, Note_on_c, 0, 91, 102
2, 292160, Note_on_c, 0, 94, 106
2, 292166, Note_on_c, 0, 55, 97
2, 292166, Note_on_c, 0, 61, 97
2, 292168, Note_on_c, 0, 46, 96
2, 292169, Note_on_c, 0, 51, 97
2, 292263, Note_on_c, 0, 94, 0
2, 292263, Note_on_c, 0, 91, 0
2, 292266, Note_on_c, 0, 46, 0
2, 292266, Note_on_c, 0, 61, 0
2, 292266, Note_on_c, 0, 51, 0
2, 292268, Note_on_c, 0, 55, 0
2, 292287, Note_on_c, 0, 75, 100
2, 292287, Note_on_c, 0, 82, 104
2, 292321, Note_on_c, 0, 33, 97
2, 292348, Note_on_c, 0, 82, 0
2, 292348, Note_on_c, 0, 75, 0
2, 292352, Note_on_c, 0, 45, 97
2, 292404, Control_c, 0, 64, 0
2, 292443, Note_on_c, 0, 55, 104
2, 292443, Note_on_c, 0, 76, 107
2, 292443, Note_on_c, 0, 83, 110
2, 292445, Note_on_c, 0, 67, 108
2, 292454, Note_on_c, 0, 61, 107
2, 292495, Control_c, 0, 64, 127
2, 292522, Note_on_c, 0, 76, 0
2, 292524, Note_on_c, 0, 83, 0
2, 292524, Note_on_c, 0, 67, 0
2, 292526, Note_on_c, 0, 55, 0
2, 292526, Note_on_c, 0, 61, 0
2, 292536, Note_on_c, 0, 45, 0
2, 292536, Note_on_c, 0, 33, 0
2, 292619, Note_on_c, 0, 91, 101
2, 292621, Note_on_c, 0, 81, 101
2, 292621, Note_on_c, 0, 90, 101
2, 292648, Note_on_c, 0, 81, 0
2, 292649, Note_on_c, 0, 90, 0
2, 292649, Note_on_c, 0, 91, 0
2, 292664, Note_on_c, 0, 79, 90
2, 292672, Note_on_c, 0, 95, 90
2, 292674, Note_on_c, 0, 88, 89
2, 292691, Note_on_c, 0, 88, 0
2, 292701, Note_on_c, 0, 95, 0
2, 292714, Note_on_c, 0, 79, 0
2, 292720, Note_on_c, 0, 87, 84
2, 292721, Note_on_c, 0, 88, 83
2, 292723, Note_on_c, 0, 78, 81
2, 292748, Note_on_c, 0, 88, 0
2, 292748, Note_on_c, 0, 87, 0
2, 292763, Note_on_c, 0, 78, 0
2, 292781, Note_on_c, 0, 91, 83
2, 292787, Note_on_c, 0, 77, 81
2, 292787, Note_on_c, 0, 86, 83
2, 292803, Note_on_c, 0, 86, 0
2, 292809, Note_on_c, 0, 91, 0
2, 292813, Note_on_c, 0, 77, 0
2, 292823, Note_on_c, 0, 76, 81
2, 292823, Note_on_c, 0, 86, 83
2, 292834, Note_on_c, 0, 85, 82
2, 292863, Note_on_c, 0, 85, 0
2, 292863, Note_on_c, 0, 86, 0
2, 292864, Note_on_c, 0, 76, 0
2, 292877, Note_on_c, 0, 75, 81
2, 292877, Note_on_c, 0, 84, 83
2, 292877, Note_on_c, 0, 90, 82
2, 292914, Note_on_c, 0, 75, 0
2, 292918, Note_on_c, 0, 90, 0
2, 292918, Note_on_c, 0, 84, 0
2, 292927, Note_on_c, 0, 83, 82
2, 292927, Note_on_c, 0, 85, 83
2, 292929, Note_on_c, 0, 74, 80
2, 292970, Note_on_c, 0, 83, 0
2, 292979, Note_on_c, 0, 74, 0
2, 292981, Note_on_c, 0, 85, 0
2, 292981, Note_on_c, 0, 88, 83
2, 292983, Note_on_c, 0, 73, 80
2, 292993, Note_on_c, 0, 81, 83
2, 293011, Note_on_c, 0, 81, 0
2, 293024, Note_on_c, 0, 73, 0
2, 293032, Note_on_c, 0, 88, 0
2, 293036, Note_on_c, 0, 72, 88
2, 293036, Note_on_c, 0, 83, 91
2, 293045, Note_on_c, 0, 81, 92
2, 293074, Note_on_c, 0, 81, 0
2, 293074, Note_on_c, 0, 83, 0
2, 293074, Note_on_c, 0, 72, 0
2, 293097, Note_on_c, 0, 71, 95
2, 293097, Note_on_c, 0, 79, 94
2, 293097, Note_on_c, 0, 86, 95
2, 293115, Note_on_c, 0, 79, 0
2, 293126, Note_on_c, 0, 86, 0
2, 293140, Note_on_c, 0, 71, 0
2, 293140, Note_on_c, 0, 69, 90
2, 293149, Note_on_c, 0, 78, 88
2, 293149, Note_on_c, 0, 79, 87
2, 293176, Note_on_c, 0, 79, 0
2, 293176, Note_on_c, 0, 78, 0
2, 293177, Note_on_c, 0, 69, 0
2, 293190, Note_on_c, 0, 67, 81
2, 293199, Note_on_c, 0, 76, 81
2, 293202, Note_on_c, 0, 83, 82
2, 293233, Note_on_c, 0, 76, 0
2, 293239, Note_on_c, 0, 83, 0
2, 293241, Note_on_c, 0, 67, 0
2, 293241, Note_on_c, 0, 69, 86
2, 293253, Note_on_c, 0, 78, 87
2, 293253, Note_on_c, 0, 79, 88
2, 293276, Note_on_c, 0, 79, 0
2, 293291, Note_on_c, 0, 78, 0
2, 293299, Note_on_c, 0, 69, 0
2, 293301, Note_on_c, 0, 83, 88
2, 293303, Note_on_c, 0, 67, 84
2, 293303, Note_on_c, 0, 76, 84
2, 293330, Note_on_c, 0, 76, 0
2, 293332, Note_on_c, 0, 83, 0
2, 293352, Note_on_c, 0, 67, 0
2, 293352, Note_on_c, 0, 66, 80
2, 293363, Note_on_c, 0, 76, 80
2, 293365, Note_on_c, 0, 75, 81
2, 293388, Note_on_c, 0, 75, 0
2, 293388, Note_on_c, 0, 76, 0
2, 293392, Note_on_c, 0, 66, 0
2, 293402, Note_on_c, 0, 65, 80
2, 293402, Note_on_c, 0, 74, 81
2, 293402, Note_on_c, 0, 79, 80
2, 293420, Note_on_c, 0, 74, 0
2, 293437, Note_on_c, 0, 79, 0
2, 293440, Note_on_c, 0, 65, 0
2, 293451, Note_on_c, 0, 64, 80
2, 293451, Note_on_c, 0, 74, 81
2, 293453, Note_on_c, 0, 73, 80
2, 293478, Note_on_c, 0, 73, 0
2, 293478, Note_on_c, 0, 74, 0
2, 293490, Note_on_c, 0, 64, 0
2, 293503, Note_on_c, 0, 78, 81
2, 293505, Note_on_c, 0, 63, 80
2, 293505, Note_on_c, 0, 72, 81
2, 293530, Note_on_c, 0, 72, 0
2, 293532, Note_on_c, 0, 63, 0
2, 293542, Note_on_c, 0, 78, 0
2, 293555, Note_on_c, 0, 73, 81
2, 293557, Note_on_c, 0, 62, 80
2, 293557, Note_on_c, 0, 71, 81
2, 293594, Note_on_c, 0, 71, 0
2, 293594, Note_on_c, 0, 62, 0
2, 293603, Note_on_c, 0, 73, 0
2, 293607, Note_on_c, 0, 76, 81
2, 293608, Note_on_c, 0, 61, 80
2, 293608, Note_on_c, 0, 69, 81
2, 293627, Note_on_c, 0, 69, 0
2, 293635, Note_on_c, 0, 76, 0
2, 293650, Note_on_c, 0, 61, 0
2, 293658, Note_on_c, 0, 60, 80
2, 293658, Note_on_c, 0, 69, 81
2, 293658, Note_on_c, 0, 71, 80
2, 293685, Note_on_c, 0, 71, 0
2, 293698, Note_on_c, 0, 69, 0
2, 293700, Note_on_c, 0, 60, 0
2, 293712, Note_on_c, 0, 67, 79
2, 293712, Note_on_c, 0, 74, 78
2, 293714, Note_on_c, 0, 59, 76
2, 293730, Note_on_c, 0, 67, 0
2, 293739, Note_on_c, 0, 59, 0
2, 293739, Note_on_c, 0, 74, 0
2, 293762, Note_on_c, 0, 66, 73
2, 293762, Note_on_c, 0, 67, 73
2, 293766, Note_on_c, 0, 57, 73
2, 293789, Note_on_c, 0, 67, 0
2, 293789, Note_on_c, 0, 66, 0
2, 293803, Note_on_c, 0, 57, 0
2, 293822, Note_on_c, 0, 64, 73
2, 293824, Note_on_c, 0, 71, 74
2, 293827, Note_on_c, 0, 55, 77
2, 293846, Note_on_c, 0, 64, 0
2, 293849, Note_on_c, 0, 71, 0
2, 293851, Note_on_c, 0, 55, 0
2, 293934, Control_c, 0, 64, 0
2, 293983, Note_on_c, 0, 81, 91
2, 293983, Note_on_c, 0, 83, 92
2, 293987, Note_on_c, 0, 60, 80
2, 293987, Note_on_c, 0, 72, 90
2, 294003, Note_on_c, 0, 81, 0
2, 294012, Note_on_c, 0, 83, 0
2, 294014, Note_on_c, 0, 60, 0
2, 294014, Note_on_c, 0, 72, 0
2, 294046, Note_on_c, 0, 71, 88
2, 294046, Note_on_c, 0, 79, 89
2, 294046, Note_on_c, 0, 86, 92
2, 294048, Note_on_c, 0, 59, 80
2, 294057, Control_c, 0, 64, 127
2, 294063, Note_on_c, 0, 79, 0
2, 294073, Note_on_c, 0, 71, 0
2, 294073, Note_on_c, 0, 86, 0
2, 294077, Note_on_c, 0, 59, 0
2, 294095, Note_on_c, 0, 57, 80
2, 294095, Note_on_c, 0, 78, 83
2, 294095, Note_on_c, 0, 79, 82
2, 294097, Note_on_c, 0, 69, 81
2, 294124, Note_on_c, 0, 69, 0
2, 294124, Note_on_c, 0, 57, 0
2, 294124, Note_on_c, 0, 78, 0
2, 294133, Note_on_c, 0, 79, 0
2, 294147, Note_on_c, 0, 55, 80
2, 294147, Note_on_c, 0, 67, 80
2, 294147, Note_on_c, 0, 76, 80
2, 294147, Note_on_c, 0, 83, 83
2, 294174, Note_on_c, 0, 83, 0
2, 294176, Note_on_c, 0, 55, 0
2, 294176, Note_on_c, 0, 67, 0
2, 294176, Note_on_c, 0, 76, 0
2, 294205, Note_on_c, 0, 66, 80
2, 294207, Note_on_c, 0, 54, 80
2, 294207, Note_on_c, 0, 75, 81
2, 294207, Note_on_c, 0, 76, 80
2, 294233, Note_on_c, 0, 75, 0
2, 294235, Note_on_c, 0, 76, 0
2, 294235, Note_on_c, 0, 66, 0
2, 294248, Note_on_c, 0, 54, 0
2, 294268, Note_on_c, 0, 53, 80
2, 294268, Note_on_c, 0, 65, 80
2, 294268, Note_on_c, 0, 74, 80
2, 294268, Note_on_c, 0, 79, 81
2, 294286, Note_on_c, 0, 74, 0
2, 294301, Note_on_c, 0, 53, 0
2, 294301, Note_on_c, 0, 65, 0
2, 294306, Note_on_c, 0, 79, 0
2, 294329, Note_on_c, 0, 64, 80
2, 294329, Note_on_c, 0, 73, 81
2, 294329, Note_on_c, 0, 74, 80
2, 294331, Note_on_c, 0, 52, 80
2, 294348, Note_on_c, 0, 64, 0
2, 294356, Note_on_c, 0, 73, 0
2, 294356, Note_on_c, 0, 74, 0
2, 294358, Note_on_c, 0, 52, 0
2, 294383, Note_on_c, 0, 63, 80
2, 294383, Note_on_c, 0, 72, 81
2, 294383, Note_on_c, 0, 78, 80
2, 294385, Note_on_c, 0, 51, 80
2, 294412, Note_on_c, 0, 63, 0
2, 294418, Note_on_c, 0, 72, 0
2, 294418, Note_on_c, 0, 78, 0
2, 294420, Note_on_c, 0, 51, 0
2, 294436, Note_on_c, 0, 50, 80
2, 294442, Note_on_c, 0, 62, 80
2, 294442, Note_on_c, 0, 71, 81
2, 294442, Note_on_c, 0, 73, 80
2, 294469, Note_on_c, 0, 71, 0
2, 294469, Note_on_c, 0, 62, 0
2, 294471, Note_on_c, 0, 50, 0
2, 294479, Note_on_c, 0, 73, 0
2, 294502, Note_on_c, 0, 76, 81
2, 294506, Note_on_c, 0, 69, 81
2, 294515, Note_on_c, 0, 49, 80
2, 294515, Note_on_c, 0, 61, 80
2, 294529, Note_on_c, 0, 69, 0
2, 294529, Note_on_c, 0, 76, 0
2, 294545, Note_on_c, 0, 49, 0
2, 294545, Note_on_c, 0, 61, 0
2, 294562, Note_on_c, 0, 48, 79
2, 294562, Note_on_c, 0, 71, 81
2, 294564, Note_on_c, 0, 69, 80
2, 294569, Note_on_c, 0, 60, 80
2, 294590, Note_on_c, 0, 71, 0
2, 294590, Note_on_c, 0, 48, 0
2, 294595, Note_on_c, 0, 69, 0
2, 294601, Note_on_c, 0, 60, 0
2, 294617, Note_on_c, 0, 74, 81
2, 294619, Note_on_c, 0, 47, 80
2, 294619, Note_on_c, 0, 67, 80
2, 294621, Note_on_c, 0, 59, 80
2, 294646, Note_on_c, 0, 67, 0
2, 294646, Note_on_c, 0, 74, 0
2, 294652, Note_on_c, 0, 59, 0
2, 294661, Note_on_c, 0, 47, 0
2, 294684, Note_on_c, 0, 45, 80
2, 294694, Note_on_c, 0, 57, 80
2, 294694, Note_on_c, 0, 66, 80
2, 294694, Note_on_c, 0, 67, 79
2, 294721, Note_on_c, 0, 67, 0
2, 294721, Note_on_c, 0, 66, 0
2, 294721, Note_on_c, 0, 57, 0
2, 294723, Note_on_c, 0, 45, 0
2, 294752, Note_on_c, 0, 43, 80
2, 294752, Note_on_c, 0, 55, 80
2, 294752, Note_on_c, 0, 64, 80
2, 294752, Note_on_c, 0, 71, 80
2, 294781, Note_on_c, 0, 71, 0
2, 294781, Note_on_c, 0, 64, 0
2, 294783, Note_on_c, 0, 55, 0
2, 294783, Note_on_c, 0, 43, 0
2, 294828, Note_on_c, 0, 42, 79
2, 294828, Note_on_c, 0, 54, 80
2, 294828, Note_on_c, 0, 63, 79
2, 294828, Note_on_c, 0, 64, 80
2, 294856, Note_on_c, 0, 63, 0
2, 294865, Note_on_c, 0, 42, 0
2, 294865, Note_on_c, 0, 54, 0
2, 294865, Note_on_c, 0, 64, 0
2, 294903, Note_on_c, 0, 41, 79
2, 294911, Note_on_c, 0, 62, 80
2, 294913, Note_on_c, 0, 53, 80
2, 294913, Note_on_c, 0, 67, 80
2, 294942, Note_on_c, 0, 53, 0
2, 294942, Note_on_c, 0, 41, 0
2, 294948, Note_on_c, 0, 62, 0
2, 294948, Note_on_c, 0, 67, 0
2, 294985, Note_on_c, 0, 40, 80
2, 294985, Note_on_c, 0, 61, 80
2, 294985, Note_on_c, 0, 62, 79
2, 294987, Note_on_c, 0, 52, 80
2, 295014, Note_on_c, 0, 52, 0
2, 295023, Note_on_c, 0, 40, 0
2, 295033, Note_on_c, 0, 62, 0
2, 295046, Note_on_c, 0, 61, 0
2, 295074, Note_on_c, 0, 66, 97
2, 295076, Note_on_c, 0, 60, 85
2, 295078, Note_on_c, 0, 51, 86
2, 295080, Note_on_c, 0, 39, 87
2, 295145, Note_on_c, 0, 60, 0
2, 295145, Note_on_c, 0, 66, 0
2, 295147, Note_on_c, 0, 51, 0
2, 295147, Control_c, 0, 64, 0
2, 295166, Note_on_c, 0, 39, 0
2, 295189, Note_on_c, 0, 59, 82
2, 295189, Note_on_c, 0, 61, 84
2, 295192, Note_on_c, 0, 38, 85
2, 295198, Note_on_c, 0, 50, 86
2, 295266, Control_c, 0, 64, 127
2, 295289, Note_on_c, 0, 59, 0
2, 295302, Note_on_c, 0, 50, 0
2, 295302, Note_on_c, 0, 38, 0
2, 295312, Control_c, 0, 64, 0
2, 295318, Note_on_c, 0, 61, 0
2, 295336, Note_on_c, 0, 64, 97
2, 295340, Note_on_c, 0, 37, 83
2, 295340, Note_on_c, 0, 49, 84
2, 295342, Note_on_c, 0, 57, 85
2, 295400, Control_c, 0, 64, 127
2, 295441, Note_on_c, 0, 49, 0
2, 295452, Note_on_c, 0, 57, 0
2, 295452, Note_on_c, 0, 64, 0
2, 295452, Control_c, 0, 64, 0
2, 295462, Note_on_c, 0, 37, 0
2, 295493, Note_on_c, 0, 66, 90
2, 295495, Note_on_c, 0, 36, 90
2, 295495, Note_on_c, 0, 48, 91
2, 295495, Note_on_c, 0, 55, 92
2, 295495, Note_on_c, 0, 58, 93
2, 295495, Note_on_c, 0, 62, 94
2, 295577, Control_c, 0, 64, 127
2, 295628, Note_on_c, 0, 55, 0
2, 295628, Note_on_c, 0, 66, 0
2, 295630, Control_c, 0, 64, 0
2, 295639, Note_on_c, 0, 36, 0
2, 295639, Note_on_c, 0, 62, 0
2, 295649, Note_on_c, 0, 58, 0
2, 295664, Note_on_c, 0, 48, 0
2, 295696, Note_on_c, 0, 67, 93
2, 295702, Note_on_c, 0, 55, 93
2, 295702, Note_on_c, 0, 62, 94
2, 295704, Note_on_c, 0, 35, 95
2, 295704, Note_on_c, 0, 47, 96
2, 295704, Note_on_c, 0, 64, 97
2, 295774, Control_c, 0, 64, 127
2, 295805, Note_on_c, 0, 55, 0
2, 295814, Note_on_c, 0, 62, 0
2, 295826, Note_on_c, 0, 67, 0
2, 295826, Note_on_c, 0, 64, 0
2, 295855, Note_on_c, 0, 47, 0
2, 295861, Control_c, 0, 64, 0
2, 295879, Note_on_c, 0, 35, 0
2, 295935, Note_on_c, 0, 55, 92
2, 295935, Note_on_c, 0, 70, 102
2, 295938, Note_on_c, 0, 34, 99
2, 295938, Note_on_c, 0, 46, 100
2, 295938, Note_on_c, 0, 61, 101
2, 295947, Note_on_c, 0, 63, 102
2, 295949, Note_on_c, 0, 39, 103
2, 295994, Control_c, 0, 64, 127
2, 296021, Note_on_c, 0, 39, 0
2, 296023, Note_on_c, 0, 34, 0
2, 296032, Note_on_c, 0, 46, 0
2, 296032, Note_on_c, 0, 55, 0
2, 296073, Note_on_c, 0, 63, 0
2, 296081, Note_on_c, 0, 70, 0
2, 296094, Note_on_c, 0, 61, 0
2, 296106, Control_c, 0, 64, 0
2, 296222, Note_on_c, 0, 59, 99
2, 296222, Note_on_c, 0, 61, 108
2, 296222, Note_on_c, 0, 64, 108
2, 296222, Note_on_c, 0, 71, 108
2, 296224, Note_on_c, 0, 33, 107
2, 296232, Note_on_c, 0, 67, 108
2, 296252, Control_c, 0, 64, 127
2, 296281, Note_on_c, 0, 33, 0
2, 296355, Note_on_c, 0, 71, 0
2, 296355, Note_on_c, 0, 67, 0
2, 296366, Note_on_c, 0, 64, 0
2, 296386, Note_on_c, 0, 61, 0
2, 296386, Note_on_c, 0, 59, 0
2, 296400, Note_on_c, 0, 40, 64
2, 296418, Note_on_c, 0, 43, 65
2, 296443, Note_on_c, 0, 45, 65
2, 296460, Note_on_c, 0, 40, 0
2, 296460, Note_on_c, 0, 49, 65
2, 296470, Note_on_c, 0, 52, 64
2, 296483, Note_on_c, 0, 43, 0
2, 296493, Note_on_c, 0, 45, 0
2, 296493, Note_on_c, 0, 55, 66
2, 296499, Note_on_c, 0, 52, 0
2, 296505, Note_on_c, 0, 49, 0
2, 296513, Note_on_c, 0, 57, 69
2, 296524, Note_on_c, 0, 61, 70
2, 296530, Note_on_c, 0, 55, 0
2, 296534, Note_on_c, 0, 64, 73
2, 296546, Note_on_c, 0, 67, 73
2, 296552, Note_on_c, 0, 57, 0
2, 296564, Note_on_c, 0, 52, 73
2, 296568, Note_on_c, 0, 64, 0
2, 296574, Note_on_c, 0, 61, 0
2, 296583, Note_on_c, 0, 67, 0
2, 296583, Note_on_c, 0, 55, 73
2, 296605, Note_on_c, 0, 57, 73
2, 296621, Note_on_c, 0, 61, 73
2, 296641, Note_on_c, 0, 64, 73
2, 296661, Note_on_c, 0, 67, 73
2, 296678, Note_on_c, 0, 71, 74
2, 296690, Note_on_c, 0, 73, 74
2, 296701, Note_on_c, 0, 64, 0
2, 296701, Note_on_c, 0, 61, 0
2, 296701, Note_on_c, 0, 52, 0
2, 296701, Note_on_c, 0, 57, 0
2, 296701, Note_on_c, 0, 55, 0
2, 296701, Note_on_c, 0, 76, 73
2, 296711, Note_on_c, 0, 67, 0
2, 296711, Note_on_c, 0, 79, 74
2, 296751, Note_on_c, 0, 71, 0
2, 296759, Note_on_c, 0, 73, 0
2, 296781, Note_on_c, 0, 76, 0
2, 296828, Control_c, 0, 64, 0
2, 296843, Note_on_c, 0, 79, 0
2, 296848, Note_on_c, 0, 33, 73
2, 296877, Note_on_c, 0, 71, 77
2, 296877, Note_on_c, 0, 72, 80
2, 296877, Note_on_c, 0, 78, 81
2, 296877, Note_on_c, 0, 83, 84
2, 296886, Note_on_c, 0, 75, 83
2, 296942, Note_on_c, 0, 45, 73
2, 296950, Control_c, 0, 64, 127
2, 296975, Note_on_c, 0, 75, 0
2, 296975, Note_on_c, 0, 78, 0
2, 296975, Note_on_c, 0, 83, 0
2, 296977, Note_on_c, 0, 72, 0
2, 296977, Note_on_c, 0, 33, 0
2, 296977, Note_on_c, 0, 71, 0
2, 296988, Note_on_c, 0, 45, 0
2, 297020, Note_on_c, 0, 51, 72
2, 297040, Note_on_c, 0, 54, 70
2, 297061, Note_on_c, 0, 57, 69
2, 297088, Note_on_c, 0, 51, 0
2, 297089, Note_on_c, 0, 60, 67
2, 297100, Note_on_c, 0, 57, 0
2, 297100, Note_on_c, 0, 54, 0
2, 297114, Note_on_c, 0, 63, 67
2, 297120, Note_on_c, 0, 66, 73
2, 297131, Note_on_c, 0, 71, 74
2, 297141, Note_on_c, 0, 60, 0
2, 297152, Note_on_c, 0, 63, 0
2, 297168, Note_on_c, 0, 60, 71
2, 297170, Note_on_c, 0, 66, 0
2, 297201, Note_on_c, 0, 63, 72
2, 297219, Note_on_c, 0, 66, 73
2, 297239, Note_on_c, 0, 71, 0
2, 297252, Note_on_c, 0, 69, 78
2, 297291, Note_on_c, 0, 66, 0
2, 297291, Note_on_c, 0, 72, 82
2, 297300, Note_on_c, 0, 60, 0
2, 297302, Note_on_c, 0, 69, 0
2, 297302, Note_on_c, 0, 63, 0
2, 297314, Note_on_c, 0, 75, 84
2, 297320, Note_on_c, 0, 72, 0
2, 297330, Note_on_c, 0, 78, 82
2, 297351, Note_on_c, 0, 75, 0
2, 297351, Note_on_c, 0, 81, 83
2, 297359, Note_on_c, 0, 78, 0
2, 297381, Note_on_c, 0, 84, 83
2, 297392, Note_on_c, 0, 81, 0
2, 297404, Note_on_c, 0, 87, 83
2, 297413, Note_on_c, 0, 90, 83
2, 297425, Note_on_c, 0, 84, 0
2, 297442, Note_on_c, 0, 87, 0
2, 297456, Note_on_c, 0, 90, 0
2, 297487, Control_c, 0, 64, 0
2, 297538, Note_on_c, 0, 91, 89
2, 297538, Note_on_c, 0, 95, 94
2, 297540, Note_on_c, 0, 33, 80
2, 297540, Note_on_c, 0, 83, 95
2, 297540, Note_on_c, 0, 85, 96
2, 297540, Note_on_c, 0, 88, 97
2, 297599, Note_on_c, 0, 45, 80
2, 297639, Control_c, 0, 64, 127
2, 297657, Note_on_c, 0, 45, 0
2, 297657, Note_on_c, 0, 95, 0
2, 297659, Note_on_c, 0, 85, 0
2, 297659, Note_on_c, 0, 83, 0
2, 297659, Note_on_c, 0, 91, 0
2, 297659, Note_on_c, 0, 88, 0
2, 297663, Note_on_c, 0, 49, 73
2, 297671, Note_on_c, 0, 33, 0
2, 297693, Note_on_c, 0, 52, 73
2, 297704, Note_on_c, 0, 49, 0
2, 297722, Note_on_c, 0, 55, 73
2, 297733, Note_on_c, 0, 52, 0
2, 297747, Note_on_c, 0, 59, 73
2, 297753, Note_on_c, 0, 55, 0
2, 297753, Note_on_c, 0, 61, 73
2, 297763, Note_on_c, 0, 63, 72
2, 297776, Note_on_c, 0, 59, 0
2, 297778, Note_on_c, 0, 64, 73
2, 297782, Note_on_c, 0, 61, 0
2, 297792, Note_on_c, 0, 63, 0
2, 297794, Note_on_c, 0, 55, 73
2, 297803, Note_on_c, 0, 64, 0
2, 297817, Note_on_c, 0, 59, 73
2, 297846, Note_on_c, 0, 61, 73
2, 297871, Note_on_c, 0, 63, 76
2, 297887, Note_on_c, 0, 64, 90
2, 297898, Note_on_c, 0, 63, 0
2, 297910, Note_on_c, 0, 67, 89
2, 297927, Note_on_c, 0, 71, 89
2, 297937, Note_on_c, 0, 64, 0
2, 297946, Note_on_c, 0, 73, 87
2, 297950, Note_on_c, 0, 61, 0
2, 297950, Note_on_c, 0, 59, 0
2, 297958, Note_on_c, 0, 67, 0
2, 297958, Note_on_c, 0, 75, 85
2, 297960, Note_on_c, 0, 55, 0
2, 297980, Note_on_c, 0, 76, 84
2, 297984, Note_on_c, 0, 71, 0
2, 297984, Note_on_c, 0, 75, 0
2, 297984, Note_on_c, 0, 73, 0
2, 298006, Note_on_c, 0, 76, 0
2, 298062, Control_c, 0, 64, 0
2, 298074, Note_on_c, 0, 33, 88
2, 298123, Note_on_c, 0, 74, 102
2, 298125, Note_on_c, 0, 75, 106
2, 298125, Note_on_c, 0, 78, 107
2, 298125, Note_on_c, 0, 83, 110
2, 298178, Note_on_c, 0, 45, 89
2, 298184, Control_c, 0, 64, 127
2, 298218, Note_on_c, 0, 33, 0
2, 298224, Note_on_c, 0, 45, 0
2, 298239, Note_on_c, 0, 51, 77
2, 298265, Note_on_c, 0, 75, 0
2, 298265, Note_on_c, 0, 54, 76
2, 298271, Note_on_c, 0, 78, 0
2, 298284, Note_on_c, 0, 74, 0
2, 298296, Note_on_c, 0, 57, 74
2, 298312, Note_on_c, 0, 83, 0
2, 298314, Note_on_c, 0, 51, 0
2, 298339, Note_on_c, 0, 57, 0
2, 298348, Note_on_c, 0, 54, 0
2, 298350, Note_on_c, 0, 74, 74
2, 298379, Note_on_c, 0, 75, 74
2, 298389, Note_on_c, 0, 74, 0
2, 298404, Note_on_c, 0, 78, 74
2, 298409, Note_on_c, 0, 75, 0
2, 298422, Note_on_c, 0, 83, 76
2, 298431, Note_on_c, 0, 78, 0
2, 298449, Note_on_c, 0, 83, 0
2, 298463, Note_on_c, 0, 86, 76
2, 298481, Note_on_c, 0, 87, 76
2, 298492, Note_on_c, 0, 86, 0
2, 298503, Note_on_c, 0, 90, 76
2, 298521, Note_on_c, 0, 87, 0
2, 298529, Note_on_c, 0, 95, 76
2, 298542, Note_on_c, 0, 90, 0
2, 298556, Note_on_c, 0, 72, 78
2, 298581, Note_on_c, 0, 90, 77
2, 298600, Note_on_c, 0, 87, 76
2, 298622, Note_on_c, 0, 95, 0
2, 298630, Note_on_c, 0, 90, 0
2, 298630, Note_on_c, 0, 84, 76
2, 298648, Note_on_c, 0, 87, 0
2, 298673, Note_on_c, 0, 84, 0
2, 298673, Note_on_c, 0, 83, 76
2, 298682, Note_on_c, 0, 72, 0
2, 298704, Note_on_c, 0, 78, 74
2, 298724, Note_on_c, 0, 83, 0
2, 298724, Note_on_c, 0, 75, 74
2, 298743, Note_on_c, 0, 78, 0
2, 298746, Note_on_c, 0, 72, 74
2, 298765, Note_on_c, 0, 75, 0
2, 298775, Note_on_c, 0, 72, 0
2, 298779, Note_on_c, 0, 71, 74
2, 298808, Note_on_c, 0, 66, 73
2, 298828, Note_on_c, 0, 63, 73
2, 298844, Note_on_c, 0, 60, 73
2, 298864, Note_on_c, 0, 63, 0
2, 298864, Note_on_c, 0, 71, 0
2, 298864, Note_on_c, 0, 66, 0
2, 298885, Note_on_c, 0, 60, 0
2, 298942, Control_c, 0, 64, 0
2, 298969, Note_on_c, 0, 71, 96
2, 298971, Note_on_c, 0, 59, 65
2, 298971, Note_on_c, 0, 64, 96
2, 298980, Note_on_c, 0, 61, 65
2, 298982, Note_on_c, 0, 67, 97
2, 299004, Note_on_c, 0, 33, 65
2, 299029, Control_c, 0, 64, 127
2, 299043, Note_on_c, 0, 45, 65
2, 299052, Note_on_c, 0, 33, 0
2, 299072, Note_on_c, 0, 67, 0
2, 299082, Note_on_c, 0, 64, 0
2, 299082, Note_on_c, 0, 45, 0
2, 299091, Note_on_c, 0, 71, 0
2, 299095, Note_on_c, 0, 49, 69
2, 299105, Note_on_c, 0, 61, 0
2, 299114, Note_on_c, 0, 59, 0
2, 299134, Note_on_c, 0, 49, 0
2, 299134, Note_on_c, 0, 52, 73
2, 299163, Note_on_c, 0, 52, 0
2, 299165, Note_on_c, 0, 55, 73
2, 299187, Note_on_c, 0, 59, 73
2, 299203, Note_on_c, 0, 55, 0
2, 299203, Note_on_c, 0, 61, 73
2, 299212, Note_on_c, 0, 63, 72
2, 299224, Note_on_c, 0, 59, 0
2, 299233, Note_on_c, 0, 64, 73
2, 299244, Note_on_c, 0, 63, 0
2, 299244, Note_on_c, 0, 61, 0
2, 299252, Note_on_c, 0, 67, 73
2, 299263, Note_on_c, 0, 64, 0
2, 299285, Note_on_c, 0, 71, 74
2, 299303, Note_on_c, 0, 67, 0
2, 299314, Note_on_c, 0, 71, 0
2, 299316, Note_on_c, 0, 73, 83
2, 299334, Note_on_c, 0, 75, 82
2, 299354, Note_on_c, 0, 73, 0
2, 299356, Note_on_c, 0, 76, 86
2, 299362, Note_on_c, 0, 75, 0
2, 299376, Note_on_c, 0, 79, 88
2, 299387, Note_on_c, 0, 83, 92
2, 299395, Note_on_c, 0, 76, 0
2, 299397, Note_on_c, 0, 85, 94
2, 299403, Note_on_c, 0, 87, 95
2, 299414, Note_on_c, 0, 83, 0
2, 299424, Note_on_c, 0, 79, 0
2, 299424, Note_on_c, 0, 85, 0
2, 299426, Note_on_c, 0, 88, 100
2, 299432, Note_on_c, 0, 87, 0
2, 299454, Note_on_c, 0, 88, 0
2, 299537, Control_c, 0, 64, 0
2, 299583, Note_on_c, 0, 63, 80
2, 299584, Note_on_c, 0, 65, 80
2, 299595, Note_on_c, 0, 60, 80
2, 299638, Note_on_c, 0, 33, 80
2, 299658, Control_c, 0, 64, 127
2, 299673, Note_on_c, 0, 45, 78
2, 299677, Note_on_c, 0, 33, 0
2, 299707, Note_on_c, 0, 45, 0
2, 299720, Note_on_c, 0, 48, 72
2, 299740, Note_on_c, 0, 63, 0
2, 299756, Note_on_c, 0, 48, 0
2, 299756, Note_on_c, 0, 51, 68
2, 299767, Note_on_c, 0, 60, 0
2, 299773, Note_on_c, 0, 65, 0
2, 299785, Note_on_c, 0, 53, 65
2, 299796, Note_on_c, 0, 51, 0
2, 299808, Note_on_c, 0, 59, 67
2, 299828, Note_on_c, 0, 53, 0
2, 299828, Note_on_c, 0, 60, 69
2, 299834, Note_on_c, 0, 59, 0
2, 299848, Note_on_c, 0, 63, 71
2, 299857, Note_on_c, 0, 64, 73
2, 299868, Note_on_c, 0, 63, 0
2, 299868, Note_on_c, 0, 60, 0
2, 299882, Note_on_c, 0, 65, 73
2, 299888, Note_on_c, 0, 64, 0
2, 299898, Note_on_c, 0, 69, 74
2, 299909, Note_on_c, 0, 65, 0
2, 299921, Note_on_c, 0, 72, 74
2, 299938, Note_on_c, 0, 69, 0
2, 299950, Note_on_c, 0, 75, 74
2, 299970, Note_on_c, 0, 72, 0
2, 299972, Note_on_c, 0, 76, 76
2, 299978, Note_on_c, 0, 75, 0
2, 299991, Note_on_c, 0, 77, 78
2, 299999, Note_on_c, 0, 76, 0
2, 300014, Note_on_c, 0, 83, 83
2, 300030, Note_on_c, 0, 77, 0
2, 300034, Note_on_c, 0, 84, 86
2, 300042, Note_on_c, 0, 83, 0
2, 300042, Note_on_c, 0, 87, 88
2, 300061, Note_on_c, 0, 84, 0
2, 300064, Note_on_c, 0, 88, 91
2, 300068, Note_on_c, 0, 87, 0
2, 300081, Note_on_c, 0, 88, 0
2, 300085, Note_on_c, 0, 89, 95
2, 300113, Note_on_c, 0, 89, 0
2, 300258, Control_c, 0, 64, 0
2, 300291, Note_on_c, 0, 61, 80
2, 300291, Note_on_c, 0, 64, 80
2, 300305, Note_on_c, 0, 59, 85
2, 300334, Note_on_c, 0, 33, 81
2, 300365, Note_on_c, 0, 45, 78
2, 300385, Control_c, 0, 64, 127
2, 300416, Note_on_c, 0, 45, 0
2, 300416, Note_on_c, 0, 33, 0
2, 300416, Note_on_c, 0, 49, 70
2, 300445, Note_on_c, 0, 59, 0
2, 300459, Note_on_c, 0, 52, 67
2, 300468, Note_on_c, 0, 49, 0
2, 300476, Note_on_c, 0, 61, 0
2, 300476, Note_on_c, 0, 64, 0
2, 300489, Note_on_c, 0, 55, 65
2, 300499, Note_on_c, 0, 52, 0
2, 300510, Note_on_c, 0, 59, 67
2, 300528, Note_on_c, 0, 55, 0
2, 300541, Note_on_c, 0, 61, 69
2, 300551, Note_on_c, 0, 63, 70
2, 300562, Note_on_c, 0, 59, 0
2, 300570, Note_on_c, 0, 61, 0
2, 300576, Note_on_c, 0, 64, 73
2, 300580, Note_on_c, 0, 63, 0
2, 300592, Note_on_c, 0, 67, 73
2, 300605, Note_on_c, 0, 64, 0
2, 300614, Note_on_c, 0, 71, 74
2, 300630, Note_on_c, 0, 67, 0
2, 300636, Note_on_c, 0, 73, 74
2, 300654, Note_on_c, 0, 71, 0
2, 300656, Note_on_c, 0, 75, 74
2, 300672, Note_on_c, 0, 73, 0
2, 300674, Note_on_c, 0, 76, 79
2, 300683, Note_on_c, 0, 75, 0
2, 300705, Note_on_c, 0, 76, 0
2, 300707, Note_on_c, 0, 79, 81
2, 300727, Note_on_c, 0, 83, 84
2, 300737, Note_on_c, 0, 85, 86
2, 300756, Note_on_c, 0, 87, 87
2, 300766, Note_on_c, 0, 79, 0
2, 300779, Note_on_c, 0, 83, 0
2, 300779, Note_on_c, 0, 85, 0
2, 300779, Note_on_c, 0, 88, 93
2, 300784, Note_on_c, 0, 87, 0
2, 300805, Note_on_c, 0, 95, 92
2, 300815, Note_on_c, 0, 88, 0
2, 300835, Note_on_c, 0, 95, 0
2, 301113, Control_c, 0, 64, 0
2, 301142, Note_on_c, 0, 60, 88
2, 301142, Note_on_c, 0, 65, 88
2, 301142, Note_on_c, 0, 72, 88
2, 301150, Note_on_c, 0, 63, 88
2, 301257, Control_c, 0, 64, 127
2, 301331, Note_on_c, 0, 33, 89
2, 301390, Note_on_c, 0, 63, 0
2, 301401, Note_on_c, 0, 65, 0
2, 301411, Note_on_c, 0, 60, 0
2, 301411, Note_on_c, 0, 72, 0
2, 301424, Note_on_c, 0, 45, 74
2, 301430, Note_on_c, 0, 33, 0
2, 301471, Note_on_c, 0, 45, 0
2, 301505, Note_on_c, 0, 48, 68
2, 301538, Note_on_c, 0, 51, 70
2, 301544, Note_on_c, 0, 48, 0
2, 301564, Note_on_c, 0, 53, 73
2, 301584, Note_on_c, 0, 51, 0
2, 301586, Note_on_c, 0, 57, 73
2, 301610, Note_on_c, 0, 60, 73
2, 301618, Note_on_c, 0, 53, 0
2, 301628, Note_on_c, 0, 63, 73
2, 301639, Note_on_c, 0, 57, 0
2, 301649, Note_on_c, 0, 64, 73
2, 301660, Note_on_c, 0, 63, 0
2, 301660, Note_on_c, 0, 60, 0
2, 301672, Note_on_c, 0, 65, 73
2, 301678, Note_on_c, 0, 64, 0
2, 301691, Note_on_c, 0, 69, 74
2, 301701, Note_on_c, 0, 65, 0
2, 301712, Note_on_c, 0, 72, 74
2, 301730, Note_on_c, 0, 69, 0
2, 301730, Note_on_c, 0, 75, 78
2, 301746, Note_on_c, 0, 72, 0
2, 301748, Note_on_c, 0, 76, 81
2, 301756, Note_on_c, 0, 75, 0
2, 301778, Note_on_c, 0, 76, 0
2, 301780, Note_on_c, 0, 77, 86
2, 301796, Note_on_c, 0, 81, 89
2, 301809, Note_on_c, 0, 77, 0
2, 301815, Note_on_c, 0, 84, 88
2, 301827, Note_on_c, 0, 87, 89
2, 301845, Note_on_c, 0, 81, 0
2, 301849, Note_on_c, 0, 88, 92
2, 301855, Note_on_c, 0, 87, 0
2, 301859, Note_on_c, 0, 84, 0
2, 301864, Note_on_c, 0, 89, 95
2, 301875, Note_on_c, 0, 88, 0
2, 301893, Note_on_c, 0, 96, 94
2, 301906, Note_on_c, 0, 89, 0
2, 301935, Note_on_c, 0, 96, 0
2, 302308, Note_on_c, 0, 64, 95
2, 302344, Control_c, 0, 64, 0
2, 302416, Note_on_c, 0, 59, 67
2, 302432, Note_on_c, 0, 61, 79
2, 302454, Control_c, 0, 64, 127
2, 302464, Note_on_c, 0, 71, 99
2, 302493, Note_on_c, 0, 64, 0
2, 302495, Note_on_c, 0, 59, 0
2, 302508, Note_on_c, 0, 33, 80
2, 302515, Note_on_c, 0, 61, 0
2, 302539, Note_on_c, 0, 45, 80
2, 302558, Note_on_c, 0, 33, 0
2, 302580, Note_on_c, 0, 45, 0
2, 302580, Note_on_c, 0, 49, 74
2, 302608, Note_on_c, 0, 71, 0
2, 302625, Note_on_c, 0, 52, 72
2, 302647, Note_on_c, 0, 49, 0
2, 302661, Note_on_c, 0, 55, 71
2, 302669, Note_on_c, 0, 52, 0
2, 302683, Note_on_c, 0, 59, 73
2, 302700, Note_on_c, 0, 55, 0
2, 302704, Note_on_c, 0, 61, 73
2, 302709, Note_on_c, 0, 63, 73
2, 302715, Note_on_c, 0, 59, 0
2, 302726, Note_on_c, 0, 61, 0
2, 302728, Note_on_c, 0, 64, 73
2, 302738, Note_on_c, 0, 63, 0
2, 302749, Note_on_c, 0, 67, 73
2, 302765, Note_on_c, 0, 64, 0
2, 302779, Note_on_c, 0, 71, 74
2, 302785, Note_on_c, 0, 67, 0
2, 302798, Note_on_c, 0, 73, 74
2, 302816, Note_on_c, 0, 75, 74
2, 302826, Note_on_c, 0, 71, 0
2, 302832, Note_on_c, 0, 73, 0
2, 302834, Note_on_c, 0, 76, 79
2, 302840, Note_on_c, 0, 75, 0
2, 302852, Note_on_c, 0, 81, 83
2, 302872, Note_on_c, 0, 76, 0
2, 302883, Note_on_c, 0, 83, 89
2, 302896, Note_on_c, 0, 81, 0
2, 302903, Note_on_c, 0, 85, 91
2, 302921, Note_on_c, 0, 83, 0
2, 302921, Note_on_c, 0, 87, 92
2, 302934, Note_on_c, 0, 85, 0
2, 302946, Note_on_c, 0, 88, 91
2, 302963, Note_on_c, 0, 87, 0
2, 302981, Note_on_c, 0, 88, 0
2, 302981, Note_on_c, 0, 91, 96
2, 303019, Note_on_c, 0, 91, 0
2, 303040, Note_on_c, 0, 95, 101
2, 303096, Note_on_c, 0, 100, 103
2, 303109, Note_on_c, 0, 95, 0
2, 303139, Note_on_c, 0, 100, 0
2, 303207, Control_c, 0, 64, 0
2, 303245, Note_on_c, 0, 33, 70
2, 303325, Note_on_c, 0, 45, 67
2, 303363, Note_on_c, 0, 49, 65
2, 303371, Control_c, 0, 64, 127
2, 303401, Note_on_c, 0, 45, 0
2, 303401, Note_on_c, 0, 33, 0
2, 303403, Note_on_c, 0, 52, 64
2, 303409, Note_on_c, 0, 49, 0
2, 303440, Note_on_c, 0, 52, 0
2, 303462, Note_on_c, 0, 55, 65
2, 303527, Note_on_c, 0, 59, 64
2, 303544, Note_on_c, 0, 55, 0
2, 303584, Note_on_c, 0, 61, 71
2, 303586, Note_on_c, 0, 59, 0
2, 303642, Note_on_c, 0, 61, 0
2, 303657, Note_on_c, 0, 63, 73
2, 303695, Note_on_c, 0, 63, 0
2, 303719, Note_on_c, 0, 64, 73
2, 303813, Note_on_c, 0, 64, 0
2, 303872, Note_on_c, 0, 67, 107
2, 303901, Note_on_c, 0, 67, 0
2, 303917, Note_on_c, 0, 71, 101
2, 303968, Note_on_c, 0, 71, 0
2, 303972, Note_on_c, 0, 73, 93
2, 304023, Note_on_c, 0, 73, 0
2, 304024, Note_on_c, 0, 75, 88
2, 304072, Note_on_c, 0, 75, 0
2, 304073, Note_on_c, 0, 76, 84
2, 304104, Note_on_c, 0, 76, 0
2, 304135, Note_on_c, 0, 83, 84
2, 304208, Note_on_c, 0, 76, 81
2, 304224, Note_on_c, 0, 83, 0
2, 304273, Note_on_c, 0, 81, 80
2, 304284, Note_on_c, 0, 76, 0
2, 304322, Note_on_c, 0, 81, 0
2, 304344, Note_on_c, 0, 83, 77
2, 304411, Note_on_c, 0, 85, 79
2, 304413, Note_on_c, 0, 83, 0
2, 304480, Note_on_c, 0, 85, 0
2, 304480, Note_on_c, 0, 87, 83
2, 304558, Note_on_c, 0, 87, 0
2, 304560, Note_on_c, 0, 88, 83
2, 304605, Note_on_c, 0, 88, 0
2, 304648, Note_on_c, 0, 95, 76
2, 304731, Note_on_c, 0, 88, 72
2, 304758, Note_on_c, 0, 95, 0
2, 304811, Note_on_c, 0, 93, 64
2, 304835, Note_on_c, 0, 88, 0
2, 304888, Note_on_c, 0, 93, 0
2, 304898, Note_on_c, 0, 97, 71
2, 304960, Note_on_c, 0, 97, 0
2, 304990, Note_on_c, 0, 100, 71
2, 305023, Control_c, 0, 67, 127
2, 305177, Note_on_c, 0, 33, 42
2, 305283, Note_on_c, 0, 45, 59
2, 305301, Note_on_c, 0, 33, 0
2, 305354, Note_on_c, 0, 45, 0
2, 305407, Note_on_c, 0, 52, 54
2, 305413, Note_on_c, 0, 100, 0
2, 305506, Note_on_c, 0, 52, 0
2, 305508, Note_on_c, 0, 55, 54
2, 305628, Note_on_c, 0, 55, 0
2, 305628, Note_on_c, 0, 57, 62
2, 305760, Note_on_c, 0, 61, 61
2, 305764, Note_on_c, 0, 57, 0
2, 305894, Note_on_c, 0, 61, 0
2, 305899, Note_on_c, 0, 64, 62
2, 306040, Note_on_c, 0, 67, 62
2, 306078, Note_on_c, 0, 64, 0
2, 306187, Note_on_c, 0, 67, 0
2, 306187, Note_on_c, 0, 69, 63
2, 306348, Note_on_c, 0, 73, 62
2, 306355, Note_on_c, 0, 69, 0
2, 306540, Note_on_c, 0, 76, 63
2, 306547, Note_on_c, 0, 73, 0
2, 306764, Note_on_c, 0, 76, 0
2, 306764, Note_on_c, 0, 79, 71
2, 306939, Note_on_c, 0, 79, 0
2, 307041, Note_on_c, 0, 85, 73
2, 307402, Note_on_c, 0, 85, 0
2, 307404, Note_on_c, 0, 88, 65
2, 307989, Note_on_c, 0, 88, 0
2, 308002, Note_on_c, 0, 93, 57
2, 308051, Note_on_c, 0, 93, 0
2, 308197, Control_c, 0, 67, 0
2, 309318, Control_c, 0, 64, 0
2, 309413, Control_c, 0, 67, 127
2, 309720, Note_on_c, 0, 45, 52
2, 309724, Note_on_c, 0, 38, 62
2, 309736, Control_c, 0, 64, 127
2, 309835, Note_on_c, 0, 38, 0
2, 309848, Control_c, 0, 64, 0
2, 309848, Note_on_c, 0, 50, 62
2, 309848, Note_on_c, 0, 57, 61
2, 309858, Note_on_c, 0, 45, 0
2, 309858, Note_on_c, 0, 54, 62
2, 309882, Note_on_c, 0, 54, 0
2, 309884, Note_on_c, 0, 50, 0
2, 309886, Note_on_c, 0, 57, 0
2, 309987, Note_on_c, 0, 57, 64
2, 309989, Note_on_c, 0, 50, 62
2, 310000, Note_on_c, 0, 54, 62
2, 310018, Note_on_c, 0, 57, 0
2, 310028, Note_on_c, 0, 50, 0
2, 310036, Note_on_c, 0, 54, 0
2, 310111, Note_on_c, 0, 38, 62
2, 310111, Note_on_c, 0, 45, 62
2, 310142, Control_c, 0, 64, 127
2, 310215, Note_on_c, 0, 38, 0
2, 310240, Note_on_c, 0, 45, 0
2, 310253, Note_on_c, 0, 50, 62
2, 310253, Note_on_c, 0, 54, 62
2, 310253, Note_on_c, 0, 57, 61
2, 310279, Note_on_c, 0, 57, 0
2, 310279, Note_on_c, 0, 54, 0
2, 310279, Note_on_c, 0, 50, 0
2, 310283, Control_c, 0, 64, 0
2, 310382, Note_on_c, 0, 57, 64
2, 310384, Note_on_c, 0, 50, 62
2, 310394, Note_on_c, 0, 54, 62
2, 310410, Note_on_c, 0, 57, 0
2, 310421, Note_on_c, 0, 50, 0
2, 310432, Note_on_c, 0, 54, 0
2, 310506, Note_on_c, 0, 38, 65
2, 310506, Note_on_c, 0, 45, 56
2, 310527, Control_c, 0, 64, 127
2, 310605, Note_on_c, 0, 38, 0
2, 310616, Note_on_c, 0, 45, 0
2, 310636, Note_on_c, 0, 50, 58
2, 310636, Note_on_c, 0, 54, 58
2, 310636, Note_on_c, 0, 57, 57
2, 310664, Note_on_c, 0, 57, 0
2, 310664, Note_on_c, 0, 50, 0
2, 310670, Control_c, 0, 64, 0
2, 310677, Note_on_c, 0, 54, 0
2, 310770, Note_on_c, 0, 50, 58
2, 310770, Note_on_c, 0, 57, 58
2, 310781, Note_on_c, 0, 54, 57
2, 310799, Note_on_c, 0, 57, 0
2, 310799, Note_on_c, 0, 50, 0
2, 310805, Note_on_c, 0, 54, 0
2, 310884, Note_on_c, 0, 38, 58
2, 310884, Note_on_c, 0, 45, 58
2, 310891, Control_c, 0, 64, 127
2, 310958, Note_on_c, 0, 38, 0
2, 310968, Note_on_c, 0, 45, 0
2, 310999, Control_c, 0, 64, 0
2, 311001, Note_on_c, 0, 50, 58
2, 311001, Note_on_c, 0, 57, 58
2, 311011, Note_on_c, 0, 54, 57
2, 311039, Note_on_c, 0, 57, 0
2, 311039, Note_on_c, 0, 50, 0
2, 311050, Note_on_c, 0, 54, 0
2, 311134, Note_on_c, 0, 50, 58
2, 311134, Note_on_c, 0, 57, 58
2, 311145, Note_on_c, 0, 54, 57
2, 311155, Control_c, 0, 67, 0
2, 311174, Note_on_c, 0, 57, 0
2, 311184, Note_on_c, 0, 54, 0
2, 311195, Note_on_c, 0, 50, 0
2, 311259, Note_on_c, 0, 38, 57
2, 311259, Note_on_c, 0, 45, 57
2, 311259, Note_on_c, 0, 50, 56
2, 311259, Note_on_c, 0, 54, 57
2, 311275, Control_c, 0, 64, 127
2, 311275, Note_on_c, 0, 57, 57
2, 311303, Note_on_c, 0, 45, 0
2, 311303, Note_on_c, 0, 38, 0
2, 311325, Note_on_c, 0, 50, 0
2, 311336, Note_on_c, 0, 54, 0
2, 311367, Note_on_c, 0, 57, 0
2, 311389, Note_on_c, 0, 50, 57
2, 311389, Note_on_c, 0, 54, 57
2, 311389, Note_on_c, 0, 57, 56
2, 311394, Note_on_c, 0, 62, 57
2, 311413, Note_on_c, 0, 50, 0
2, 311416, Note_on_c, 0, 57, 0
2, 311424, Note_on_c, 0, 54, 0
2, 311424, Note_on_c, 0, 62, 0
2, 311507, Control_c, 0, 64, 0
2, 311507, Note_on_c, 0, 50, 61
2, 311512, Note_on_c, 0, 57, 60
2, 311512, Note_on_c, 0, 62, 61
2, 311512, Note_on_c, 0, 66, 81
2, 311533, Note_on_c, 0, 62, 0
2, 311533, Note_on_c, 0, 50, 0
2, 311540, Note_on_c, 0, 57, 0
2, 311560, Note_on_c, 0, 66, 0
2, 311633, Note_on_c, 0, 67, 79
2, 311644, Note_on_c, 0, 64, 81
2, 311646, Control_c, 0, 64, 127
2, 311646, Note_on_c, 0, 58, 61
2, 311648, Note_on_c, 0, 38, 60
2, 311652, Note_on_c, 0, 50, 61
2, 311652, Note_on_c, 0, 61, 61
2, 311672, Note_on_c, 0, 38, 0
2, 311712, Note_on_c, 0, 50, 0
2, 311754, Note_on_c, 0, 50, 61
2, 311754, Note_on_c, 0, 55, 61
2, 311760, Note_on_c, 0, 58, 0
2, 311800, Note_on_c, 0, 50, 0
2, 311813, Note_on_c, 0, 61, 0
2, 311813, Note_on_c, 0, 55, 0
2, 311824, Note_on_c, 0, 64, 0
2, 311878, Control_c, 0, 64, 0
2, 311878, Note_on_c, 0, 58, 65
2, 311878, Note_on_c, 0, 61, 64
2, 311891, Note_on_c, 0, 55, 65
2, 311905, Note_on_c, 0, 58, 0
2, 311907, Note_on_c, 0, 55, 0
2, 311915, Note_on_c, 0, 61, 0
2, 311919, Note_on_c, 0, 67, 0
2, 311973, Note_on_c, 0, 62, 66
2, 311975, Note_on_c, 0, 57, 70
2, 311975, Note_on_c, 0, 66, 70
2, 311995, Note_on_c, 0, 66, 0
2, 311995, Note_on_c, 0, 57, 0
2, 311995, Note_on_c, 0, 62, 0
2, 312021, Note_on_c, 0, 45, 73
2, 312021, Note_on_c, 0, 57, 73
2, 312021, Note_on_c, 0, 62, 72
2, 312021, Note_on_c, 0, 66, 74
2, 312036, Note_on_c, 0, 38, 73
2, 312041, Control_c, 0, 64, 127
2, 312058, Note_on_c, 0, 62, 0
2, 312060, Note_on_c, 0, 66, 0
2, 312062, Note_on_c, 0, 57, 0
2, 312069, Note_on_c, 0, 45, 0
2, 312080, Note_on_c, 0, 38, 0
2, 312131, Note_on_c, 0, 50, 68
2, 312131, Note_on_c, 0, 57, 64
2, 312165, Note_on_c, 0, 57, 0
2, 312184, Note_on_c, 0, 50, 0
2, 312242, Note_on_c, 0, 54, 59
2, 312242, Note_on_c, 0, 57, 61
2, 312242, Note_on_c, 0, 62, 60
2, 312260, Note_on_c, 0, 57, 0
2, 312266, Note_on_c, 0, 62, 0
2, 312277, Note_on_c, 0, 54, 0
2, 312350, Note_on_c, 0, 38, 61
2, 312350, Note_on_c, 0, 45, 61
2, 312386, Note_on_c, 0, 38, 0
2, 312397, Note_on_c, 0, 45, 0
2, 312472, Note_on_c, 0, 50, 61
2, 312479, Note_on_c, 0, 57, 61
2, 312514, Note_on_c, 0, 57, 0
2, 312528, Note_on_c, 0, 50, 0
2, 312599, Note_on_c, 0, 54, 61
2, 312599, Note_on_c, 0, 57, 61
2, 312599, Note_on_c, 0, 62, 60
2, 312625, Note_on_c, 0, 62, 0
2, 312625, Note_on_c, 0, 57, 0
2, 312636, Note_on_c, 0, 54, 0
2, 312680, Control_c, 0, 64, 0
2, 312720, Note_on_c, 0, 50, 64
2, 312720, Note_on_c, 0, 54, 65
2, 312722, Note_on_c, 0, 38, 64
2, 312722, Note_on_c, 0, 45, 65
2, 312733, Note_on_c, 0, 57, 67
2, 312775, Control_c, 0, 64, 127
2, 312795, Note_on_c, 0, 45, 0
2, 312795, Note_on_c, 0, 38, 0
2, 312795, Note_on_c, 0, 50, 0
2, 312795, Note_on_c, 0, 54, 0
2, 312797, Note_on_c, 0, 57, 0
2, 312825, Note_on_c, 0, 54, 65
2, 312825, Note_on_c, 0, 57, 65
2, 312845, Note_on_c, 0, 62, 64
2, 312863, Note_on_c, 0, 57, 0
2, 312874, Note_on_c, 0, 62, 0
2, 312874, Note_on_c, 0, 54, 0
2, 312956, Note_on_c, 0, 62, 64
2, 312956, Note_on_c, 0, 66, 81
2, 312969, Note_on_c, 0, 57, 65
2, 312975, Control_c, 0, 64, 0
2, 312995, Note_on_c, 0, 57, 0
2, 312995, Note_on_c, 0, 62, 0
2, 313007, Note_on_c, 0, 66, 0
2, 313077, Note_on_c, 0, 61, 65
2, 313079, Note_on_c, 0, 58, 65
2, 313079, Note_on_c, 0, 64, 55
2, 313079, Note_on_c, 0, 67, 54
2, 313081, Note_on_c, 0, 38, 65
2, 313107, Note_on_c, 0, 38, 0
2, 313107, Note_on_c, 0, 64, 0
2, 313107, Note_on_c, 0, 67, 0
2, 313107, Note_on_c, 0, 58, 0
2, 313120, Note_on_c, 0, 61, 0
2, 313202, Note_on_c, 0, 66, 61
2, 313204, Note_on_c, 0, 55, 61
2, 313204, Note_on_c, 0, 58, 61
2, 313244, Control_c, 0, 64, 127
2, 313259, Note_on_c, 0, 58, 0
2, 313291, Note_on_c, 0, 55, 0
2, 313304, Note_on_c, 0, 66, 0
2, 313324, Control_c, 0, 64, 0
2, 313330, Note_on_c, 0, 61, 66
2, 313370, Note_on_c, 0, 61, 0
2, 313384, Note_on_c, 0, 55, 66
2, 313384, Note_on_c, 0, 64, 65
2, 313410, Note_on_c, 0, 64, 0
2, 313410, Note_on_c, 0, 55, 0
2, 313423, Note_on_c, 0, 38, 65
2, 313423, Note_on_c, 0, 54, 65
2, 313423, Note_on_c, 0, 69, 72
2, 313431, Note_on_c, 0, 62, 64
2, 313471, Control_c, 0, 64, 127
2, 313499, Note_on_c, 0, 62, 0
2, 313499, Note_on_c, 0, 38, 0
2, 313508, Note_on_c, 0, 54, 0
2, 313518, Note_on_c, 0, 69, 0
2, 313538, Note_on_c, 0, 57, 62
2, 313568, Note_on_c, 0, 57, 0
2, 313652, Note_on_c, 0, 62, 59
2, 313662, Note_on_c, 0, 54, 57
2, 313662, Note_on_c, 0, 57, 57
2, 313670, Control_c, 0, 64, 0
2, 313730, Note_on_c, 0, 62, 0
2, 313748, Note_on_c, 0, 54, 0
2, 313768, Note_on_c, 0, 57, 0
2, 313770, Note_on_c, 0, 50, 68
2, 313879, Note_on_c, 0, 54, 66
2, 313888, Note_on_c, 0, 57, 65
2, 313929, Note_on_c, 0, 57, 0
2, 313938, Note_on_c, 0, 54, 0
2, 313940, Note_on_c, 0, 59, 59
2, 313977, Note_on_c, 0, 59, 0
2, 313979, Note_on_c, 0, 54, 63
2, 313979, Note_on_c, 0, 57, 64
2, 313988, Note_on_c, 0, 61, 66
2, 314045, Note_on_c, 0, 61, 0
2, 314047, Note_on_c, 0, 62, 73
2, 314056, Note_on_c, 0, 50, 0
2, 314056, Control_c, 0, 67, 127
2, 314073, Note_on_c, 0, 54, 0
2, 314073, Note_on_c, 0, 57, 0
2, 314097, Note_on_c, 0, 49, 69
2, 314103, Note_on_c, 0, 62, 0
2, 314104, Note_on_c, 0, 63, 71
2, 314157, Note_on_c, 0, 63, 0
2, 314157, Note_on_c, 0, 66, 67
2, 314205, Note_on_c, 0, 66, 0
2, 314209, Note_on_c, 0, 52, 58
2, 314209, Note_on_c, 0, 57, 58
2, 314219, Note_on_c, 0, 63, 60
2, 314235, Note_on_c, 0, 57, 0
2, 314245, Note_on_c, 0, 63, 0
2, 314245, Note_on_c, 0, 52, 0
2, 314254, Note_on_c, 0, 66, 71
2, 314317, Note_on_c, 0, 66, 0
2, 314326, Note_on_c, 0, 57, 58
2, 314326, Note_on_c, 0, 64, 71
2, 314328, Note_on_c, 0, 52, 58
2, 314354, Note_on_c, 0, 49, 0
2, 314396, Note_on_c, 0, 52, 0
2, 314416, Note_on_c, 0, 64, 0
2, 314424, Note_on_c, 0, 57, 0
2, 314437, Note_on_c, 0, 48, 60
2, 314558, Note_on_c, 0, 55, 58
2, 314560, Note_on_c, 0, 52, 58
2, 314560, Note_on_c, 0, 58, 58
2, 314567, Note_on_c, 0, 60, 57
2, 314593, Note_on_c, 0, 58, 0
2, 314603, Note_on_c, 0, 52, 0
2, 314603, Note_on_c, 0, 55, 0
2, 314612, Note_on_c, 0, 62, 60
2, 314614, Note_on_c, 0, 60, 0
2, 314664, Note_on_c, 0, 52, 59
2, 314664, Note_on_c, 0, 55, 58
2, 314664, Note_on_c, 0, 58, 57
2, 314672, Note_on_c, 0, 62, 0
2, 314672, Note_on_c, 0, 48, 0
2, 314672, Note_on_c, 0, 63, 57
2, 314696, Note_on_c, 0, 58, 0
2, 314705, Note_on_c, 0, 63, 0
2, 314715, Note_on_c, 0, 64, 58
2, 314725, Note_on_c, 0, 52, 0
2, 314727, Note_on_c, 0, 55, 0
2, 314763, Note_on_c, 0, 64, 0
2, 314763, Note_on_c, 0, 66, 64
2, 314765, Note_on_c, 0, 47, 62
2, 314824, Note_on_c, 0, 66, 0
2, 314825, Note_on_c, 0, 69, 70
2, 314872, Note_on_c, 0, 69, 0
2, 314872, Note_on_c, 0, 66, 70
2, 314875, Note_on_c, 0, 55, 58
2, 314875, Note_on_c, 0, 59, 58
2, 314885, Note_on_c, 0, 52, 57
2, 314911, Note_on_c, 0, 52, 0
2, 314911, Note_on_c, 0, 55, 0
2, 314911, Note_on_c, 0, 59, 0
2, 314923, Note_on_c, 0, 66, 0
2, 314931, Note_on_c, 0, 69, 77
2, 314979, Note_on_c, 0, 69, 0
2, 314981, Note_on_c, 0, 67, 78
2, 314983, Note_on_c, 0, 55, 58
2, 314987, Note_on_c, 0, 52, 58
2, 314987, Note_on_c, 0, 59, 58
2, 314999, Note_on_c, 0, 47, 0
2, 315003, Note_on_c, 0, 55, 0
2, 315009, Note_on_c, 0, 52, 0
2, 315015, Note_on_c, 0, 59, 0
2, 315097, Note_on_c, 0, 43, 60
2, 315167, Note_on_c, 0, 43, 0
2, 315213, Note_on_c, 0, 67, 0
2, 315215, Note_on_c, 0, 55, 58
2, 315215, Note_on_c, 0, 59, 58
2, 315215, Note_on_c, 0, 64, 63
2, 315225, Note_on_c, 0, 52, 57
2, 315253, Note_on_c, 0, 52, 0
2, 315253, Note_on_c, 0, 55, 0
2, 315253, Note_on_c, 0, 59, 0
2, 315262, Note_on_c, 0, 64, 0
2, 315264, Note_on_c, 0, 66, 63
2, 315314, Note_on_c, 0, 66, 0
2, 315314, Note_on_c, 0, 52, 58
2, 315314, Note_on_c, 0, 55, 58
2, 315314, Note_on_c, 0, 59, 57
2, 315330, Note_on_c, 0, 67, 62
2, 315340, Note_on_c, 0, 59, 0
2, 315340, Note_on_c, 0, 55, 0
2, 315350, Note_on_c, 0, 52, 0
2, 315379, Note_on_c, 0, 67, 0
2, 315381, Note_on_c, 0, 69, 65
2, 315424, Note_on_c, 0, 40, 58
2, 315429, Note_on_c, 0, 69, 0
2, 315431, Note_on_c, 0, 70, 69
2, 315468, Note_on_c, 0, 40, 0
2, 315477, Note_on_c, 0, 70, 0
2, 315481, Note_on_c, 0, 73, 72
2, 315538, Note_on_c, 0, 73, 0
2, 315540, Note_on_c, 0, 55, 58
2, 315540, Note_on_c, 0, 71, 72
2, 315544, Note_on_c, 0, 59, 58
2, 315549, Note_on_c, 0, 64, 71
2, 315569, Note_on_c, 0, 64, 0
2, 315569, Note_on_c, 0, 59, 0
2, 315571, Note_on_c, 0, 55, 0
2, 315590, Note_on_c, 0, 71, 0
2, 315602, Note_on_c, 0, 70, 71
2, 315650, Note_on_c, 0, 70, 0
2, 315652, Note_on_c, 0, 55, 58
2, 315652, Note_on_c, 0, 71, 81
2, 315654, Note_on_c, 0, 59, 58
2, 315662, Note_on_c, 0, 64, 81
2, 315680, Note_on_c, 0, 64, 0
2, 315682, Note_on_c, 0, 59, 0
2, 315684, Note_on_c, 0, 55, 0
2, 315710, Note_on_c, 0, 71, 0
2, 315712, Note_on_c, 0, 73, 86
2, 315754, Note_on_c, 0, 47, 58
2, 315760, Note_on_c, 0, 73, 0
2, 315761, Note_on_c, 0, 76, 92
2, 315822, Note_on_c, 0, 76, 0
2, 315824, Note_on_c, 0, 74, 81
2, 315868, Note_on_c, 0, 74, 0
2, 315872, Note_on_c, 0, 62, 58
2, 315872, Note_on_c, 0, 73, 75
2, 315876, Note_on_c, 0, 52, 58
2, 315883, Note_on_c, 0, 55, 58
2, 315902, Note_on_c, 0, 55, 0
2, 315902, Note_on_c, 0, 62, 0
2, 315911, Note_on_c, 0, 52, 0
2, 315911, Note_on_c, 0, 73, 0
2, 315921, Control_c, 0, 67, 0
2, 315923, Note_on_c, 0, 74, 75
2, 315959, Note_on_c, 0, 47, 0
2, 315967, Note_on_c, 0, 62, 61
2, 315973, Note_on_c, 0, 52, 61
2, 315976, Note_on_c, 0, 74, 0
2, 315978, Note_on_c, 0, 55, 61
2, 315978, Note_on_c, 0, 71, 70
2, 315997, Note_on_c, 0, 52, 0
2, 315999, Note_on_c, 0, 62, 0
2, 315999, Note_on_c, 0, 55, 0
2, 316030, Note_on_c, 0, 67, 65
2, 316048, Note_on_c, 0, 71, 0
2, 316067, Note_on_c, 0, 67, 0
2, 316089, Note_on_c, 0, 66, 64
2, 316093, Note_on_c, 0, 34, 61
2, 316093, Note_on_c, 0, 46, 61
2, 316102, Control_c, 0, 64, 127
2, 316130, Note_on_c, 0, 46, 0
2, 316130, Note_on_c, 0, 34, 0
2, 316213, Note_on_c, 0, 50, 60
2, 316220, Note_on_c, 0, 56, 61
2, 316220, Note_on_c, 0, 62, 61
2, 316222, Note_on_c, 0, 68, 61
2, 316239, Note_on_c, 0, 62, 0
2, 316248, Note_on_c, 0, 56, 0
2, 316248, Note_on_c, 0, 68, 0
2, 316248, Note_on_c, 0, 50, 0
2, 316300, Note_on_c, 0, 66, 0
2, 316300, Control_c, 0, 64, 0
2, 316308, Note_on_c, 0, 50, 61
2, 316317, Note_on_c, 0, 62, 61
2, 316319, Note_on_c, 0, 64, 58
2, 316337, Note_on_c, 0, 56, 61
2, 316337, Note_on_c, 0, 68, 60
2, 316347, Note_on_c, 0, 62, 0
2, 316347, Note_on_c, 0, 50, 0
2, 316365, Note_on_c, 0, 56, 0
2, 316365, Note_on_c, 0, 68, 0
2, 316419, Note_on_c, 0, 33, 67
2, 316437, Note_on_c, 0, 45, 65
2, 316447, Note_on_c, 0, 64, 0
2, 316447, Note_on_c, 0, 55, 65
2, 316447, Note_on_c, 0, 61, 65
2, 316447, Note_on_c, 0, 69, 73
2, 316455, Control_c, 0, 64, 127
2, 316473, Note_on_c, 0, 69, 0
2, 316473, Note_on_c, 0, 33, 0
2, 316473, Note_on_c, 0, 45, 0
2, 316477, Note_on_c, 0, 55, 0
2, 316491, Note_on_c, 0, 61, 0
2, 316505, Control_c, 0, 64, 0
2, 316505, Note_on_c, 0, 63, 62
2, 316535, Note_on_c, 0, 63, 0
2, 316557, Note_on_c, 0, 62, 61
2, 316594, Note_on_c, 0, 62, 0
2, 316612, Note_on_c, 0, 61, 66
2, 316654, Note_on_c, 0, 61, 0
2, 316654, Note_on_c, 0, 59, 67
2, 316682, Note_on_c, 0, 59, 0
2, 316704, Note_on_c, 0, 58, 72
2, 316741, Note_on_c, 0, 58, 0
2, 316763, Note_on_c, 0, 54, 67
2, 316765, Note_on_c, 0, 50, 66
2, 316768, Note_on_c, 0, 38, 65
2, 316768, Note_on_c, 0, 45, 65
2, 316774, Note_on_c, 0, 57, 64
2, 316792, Note_on_c, 0, 38, 0
2, 316794, Control_c, 0, 64, 127
2, 316804, Note_on_c, 0, 45, 0
2, 316814, Note_on_c, 0, 50, 0
2, 316819, Note_on_c, 0, 54, 0
2, 316819, Note_on_c, 0, 57, 0
2, 316873, Control_c, 0, 64, 0
2, 316886, Note_on_c, 0, 54, 65
2, 316886, Note_on_c, 0, 57, 65
2, 316893, Note_on_c, 0, 62, 67
2, 316919, Note_on_c, 0, 57, 0
2, 316919, Note_on_c, 0, 54, 0
2, 316929, Note_on_c, 0, 62, 0
2, 317013, Note_on_c, 0, 57, 65
2, 317013, Note_on_c, 0, 62, 65
2, 317013, Note_on_c, 0, 66, 89
2, 317039, Note_on_c, 0, 66, 0
2, 317039, Note_on_c, 0, 62, 0
2, 317049, Note_on_c, 0, 57, 0
2, 317145, Note_on_c, 0, 67, 87
2, 317147, Note_on_c, 0, 64, 89
2, 317149, Note_on_c, 0, 58, 65
2, 317151, Note_on_c, 0, 38, 65
2, 317158, Control_c, 0, 64, 127
2, 317158, Note_on_c, 0, 50, 65
2, 317158, Note_on_c, 0, 61, 64
2, 317173, Note_on_c, 0, 38, 0
2, 317204, Note_on_c, 0, 50, 0
2, 317258, Note_on_c, 0, 58, 0
2, 317258, Note_on_c, 0, 50, 69
2, 317266, Note_on_c, 0, 64, 0
2, 317272, Note_on_c, 0, 55, 64
2, 317275, Note_on_c, 0, 61, 0
2, 317305, Note_on_c, 0, 50, 0
2, 317327, Note_on_c, 0, 55, 0
2, 317366, Note_on_c, 0, 55, 61
2, 317368, Note_on_c, 0, 61, 61
2, 317377, Control_c, 0, 64, 0
2, 317377, Note_on_c, 0, 58, 61
2, 317393, Note_on_c, 0, 55, 0
2, 317403, Note_on_c, 0, 58, 0
2, 317403, Note_on_c, 0, 61, 0
2, 317416, Note_on_c, 0, 67, 0
2, 317456, Note_on_c, 0, 66, 53
2, 317460, Note_on_c, 0, 57, 60
2, 317460, Note_on_c, 0, 62, 61
2, 317474, Note_on_c, 0, 62, 0
2, 317480, Note_on_c, 0, 57, 0
2, 317480, Note_on_c, 0, 66, 0
2, 317498, Note_on_c, 0, 66, 60
2, 317500, Note_on_c, 0, 38, 64
2, 317500, Note_on_c, 0, 45, 65
2, 317500, Note_on_c, 0, 57, 64
2, 317500, Note_on_c, 0, 62, 65
2, 317510, Control_c, 0, 64, 127
2, 317528, Note_on_c, 0, 57, 0
2, 317536, Note_on_c, 0, 62, 0
2, 317537, Note_on_c, 0, 66, 0
2, 317537, Note_on_c, 0, 38, 0
2, 317545, Note_on_c, 0, 45, 0
2, 317621, Note_on_c, 0, 50, 70
2, 317621, Note_on_c, 0, 57, 64
2, 317669, Note_on_c, 0, 57, 0
2, 317681, Note_on_c, 0, 50, 0
2, 317740, Note_on_c, 0, 62, 61
2, 317742, Note_on_c, 0, 54, 61
2, 317742, Note_on_c, 0, 57, 61
2, 317770, Note_on_c, 0, 57, 0
2, 317770, Note_on_c, 0, 62, 0
2, 317779, Note_on_c, 0, 54, 0
2, 317853, Note_on_c, 0, 38, 61
2, 317853, Note_on_c, 0, 45, 61
2, 317894, Note_on_c, 0, 38, 0
2, 317903, Note_on_c, 0, 45, 0
2, 317975, Note_on_c, 0, 50, 64
2, 317975, Note_on_c, 0, 57, 65
2, 318003, Note_on_c, 0, 57, 0
2, 318016, Note_on_c, 0, 50, 0
2, 318106, Note_on_c, 0, 54, 65
2, 318106, Note_on_c, 0, 62, 65
2, 318110, Note_on_c, 0, 57, 64
2, 318136, Note_on_c, 0, 57, 0
2, 318136, Note_on_c, 0, 62, 0
2, 318148, Note_on_c, 0, 54, 0
2, 318168, Control_c, 0, 64, 0
2, 318218, Note_on_c, 0, 45, 65
2, 318218, Note_on_c, 0, 50, 65
2, 318218, Note_on_c, 0, 54, 64
2, 318222, Note_on_c, 0, 38, 65
2, 318226, Note_on_c, 0, 57, 65
2, 318262, Control_c, 0, 64, 127
2, 318282, Note_on_c, 0, 38, 0
2, 318282, Note_on_c, 0, 54, 0
2, 318282, Note_on_c, 0, 45, 0
2, 318282, Note_on_c, 0, 50, 0
2, 318295, Note_on_c, 0, 57, 0
2, 318333, Note_on_c, 0, 54, 65
2, 318333, Note_on_c, 0, 57, 65
2, 318343, Note_on_c, 0, 62, 64
2, 318359, Note_on_c, 0, 57, 0
2, 318372, Note_on_c, 0, 62, 0
2, 318372, Note_on_c, 0, 54, 0
2, 318372, Control_c, 0, 64, 0
2, 318452, Note_on_c, 0, 62, 65
2, 318454, Note_on_c, 0, 57, 65
2, 318454, Note_on_c, 0, 66, 81
2, 318464, Control_c, 0, 64, 127
2, 318490, Note_on_c, 0, 57, 0
2, 318490, Note_on_c, 0, 62, 0
2, 318497, Note_on_c, 0, 66, 0
2, 318544, Control_c, 0, 64, 0
2, 318571, Note_on_c, 0, 50, 65
2, 318571, Note_on_c, 0, 58, 65
2, 318571, Note_on_c, 0, 64, 81
2, 318571, Note_on_c, 0, 67, 80
2, 318577, Note_on_c, 0, 38, 64
2, 318581, Note_on_c, 0, 61, 65
2, 318601, Note_on_c, 0, 64, 0
2, 318609, Note_on_c, 0, 38, 0
2, 318609, Note_on_c, 0, 67, 0
2, 318609, Note_on_c, 0, 58, 0
2, 318616, Note_on_c, 0, 61, 0
2, 318620, Note_on_c, 0, 50, 0
2, 318690, Note_on_c, 0, 66, 78
2, 318692, Note_on_c, 0, 55, 65
2, 318694, Note_on_c, 0, 58, 65
2, 318700, Control_c, 0, 64, 127
2, 318728, Note_on_c, 0, 58, 0
2, 318790, Note_on_c, 0, 55, 0
2, 318798, Note_on_c, 0, 66, 0
2, 318812, Note_on_c, 0, 61, 71
2, 318844, Control_c, 0, 64, 0
2, 318846, Note_on_c, 0, 61, 0
2, 318860, Note_on_c, 0, 64, 72
2, 318862, Note_on_c, 0, 55, 73
2, 318888, Note_on_c, 0, 64, 0
2, 318890, Note_on_c, 0, 55, 0
2, 318912, Note_on_c, 0, 62, 73
2, 318912, Note_on_c, 0, 69, 79
2, 318914, Note_on_c, 0, 45, 73
2, 318916, Note_on_c, 0, 38, 73
2, 318922, Note_on_c, 0, 54, 73
2, 318942, Control_c, 0, 64, 127
2, 318960, Note_on_c, 0, 38, 0
2, 318960, Note_on_c, 0, 45, 0
2, 318980, Note_on_c, 0, 54, 0
2, 319002, Note_on_c, 0, 62, 0
2, 319028, Note_on_c, 0, 69, 0
2, 319038, Note_on_c, 0, 57, 69
2, 319068, Note_on_c, 0, 57, 0
2, 319158, Note_on_c, 0, 57, 67
2, 319158, Note_on_c, 0, 62, 65
2, 319168, Note_on_c, 0, 54, 64
2, 319199, Control_c, 0, 64, 0
2, 319247, Note_on_c, 0, 62, 0
2, 319257, Note_on_c, 0, 54, 0
2, 319259, Note_on_c, 0, 50, 71
2, 319277, Note_on_c, 0, 57, 0
2, 319369, Note_on_c, 0, 54, 68
2, 319369, Note_on_c, 0, 60, 65
2, 319371, Note_on_c, 0, 57, 64
2, 319381, Note_on_c, 0, 62, 65
2, 319390, Control_c, 0, 64, 127
2, 319396, Note_on_c, 0, 57, 0
2, 319406, Note_on_c, 0, 60, 0
2, 319415, Note_on_c, 0, 54, 0
2, 319425, Note_on_c, 0, 62, 0
2, 319427, Note_on_c, 0, 64, 67
2, 319475, Note_on_c, 0, 64, 0
2, 319475, Note_on_c, 0, 54, 65
2, 319475, Note_on_c, 0, 60, 65
2, 319475, Note_on_c, 0, 66, 71
2, 319477, Note_on_c, 0, 57, 64
2, 319523, Note_on_c, 0, 66, 0
2, 319525, Note_on_c, 0, 68, 73
2, 319528, Note_on_c, 0, 60, 0
2, 319532, Note_on_c, 0, 57, 0
2, 319551, Note_on_c, 0, 54, 0
2, 319552, Control_c, 0, 64, 0
2, 319560, Note_on_c, 0, 68, 0
2, 319570, Note_on_c, 0, 50, 0
2, 319579, Note_on_c, 0, 49, 67
2, 319579, Note_on_c, 0, 69, 73
2, 319637, Note_on_c, 0, 69, 0
2, 319637, Note_on_c, 0, 71, 75
2, 319685, Note_on_c, 0, 71, 0
2, 319685, Note_on_c, 0, 54, 65
2, 319685, Note_on_c, 0, 61, 65
2, 319689, Note_on_c, 0, 57, 64
2, 319689, Note_on_c, 0, 68, 67
2, 319715, Control_c, 0, 64, 127
2, 319735, Note_on_c, 0, 68, 0
2, 319735, Note_on_c, 0, 71, 72
2, 319743, Note_on_c, 0, 61, 0
2, 319743, Note_on_c, 0, 57, 0
2, 319752, Note_on_c, 0, 54, 0
2, 319768, Note_on_c, 0, 71, 0
2, 319791, Note_on_c, 0, 69, 73
2, 319805, Note_on_c, 0, 54, 65
2, 319805, Note_on_c, 0, 57, 65
2, 319805, Note_on_c, 0, 61, 64
2, 319829, Note_on_c, 0, 69, 0
2, 319841, Note_on_c, 0, 57, 0
2, 319841, Note_on_c, 0, 49, 0
2, 319841, Note_on_c, 0, 61, 0
2, 319862, Note_on_c, 0, 54, 0
2, 319884, Control_c, 0, 64, 0
2, 319913, Note_on_c, 0, 47, 67
2, 319995, Control_c, 0, 64, 127
2, 320032, Note_on_c, 0, 66, 62
2, 320033, Note_on_c, 0, 56, 65
2, 320033, Note_on_c, 0, 61, 65
2, 320037, Note_on_c, 0, 53, 64
2, 320054, Note_on_c, 0, 47, 0
2, 320080, Note_on_c, 0, 56, 0
2, 320083, Note_on_c, 0, 66, 0
2, 320083, Note_on_c, 0, 61, 0
2, 320083, Note_on_c, 0, 53, 0
2, 320096, Note_on_c, 0, 68, 69
2, 320144, Note_on_c, 0, 68, 0
2, 320144, Note_on_c, 0, 61, 65
2, 320144, Note_on_c, 0, 69, 74
2, 320146, Note_on_c, 0, 53, 65
2, 320153, Note_on_c, 0, 56, 65
2, 320181, Note_on_c, 0, 56, 0
2, 320181, Note_on_c, 0, 61, 0
2, 320194, Note_on_c, 0, 53, 0
2, 320196, Control_c, 0, 64, 0
2, 320200, Note_on_c, 0, 69, 0
2, 320200, Note_on_c, 0, 71, 80
2, 320246, Note_on_c, 0, 45, 67
2, 320246, Note_on_c, 0, 57, 71
2, 320249, Note_on_c, 0, 71, 0
2, 320253, Note_on_c, 0, 73, 82
2, 320299, Note_on_c, 0, 73, 0
2, 320303, Control_c, 0, 64, 127
2, 320311, Note_on_c, 0, 74, 82
2, 320320, Note_on_c, 0, 57, 0
2, 320320, Note_on_c, 0, 45, 0
2, 320361, Note_on_c, 0, 74, 0
2, 320361, Note_on_c, 0, 66, 80
2, 320365, Note_on_c, 0, 57, 65
2, 320365, Note_on_c, 0, 61, 65
2, 320365, Note_on_c, 0, 72, 78
2, 320396, Note_on_c, 0, 66, 0
2, 320400, Note_on_c, 0, 57, 0
2, 320406, Note_on_c, 0, 61, 0
2, 320416, Note_on_c, 0, 72, 0
2, 320417, Note_on_c, 0, 74, 75
2, 320467, Note_on_c, 0, 66, 72
2, 320471, Note_on_c, 0, 57, 65
2, 320471, Note_on_c, 0, 61, 65
2, 320477, Note_on_c, 0, 74, 0
2, 320479, Note_on_c, 0, 73, 75
2, 320499, Note_on_c, 0, 66, 0
2, 320505, Note_on_c, 0, 61, 0
2, 320505, Note_on_c, 0, 57, 0
2, 320514, Note_on_c, 0, 73, 0
2, 320560, Control_c, 0, 64, 0
2, 320590, Note_on_c, 0, 44, 71
2, 320590, Note_on_c, 0, 56, 73
2, 320658, Control_c, 0, 64, 127
2, 320677, Note_on_c, 0, 56, 0
2, 320699, Note_on_c, 0, 44, 0
2, 320703, Note_on_c, 0, 72, 48
2, 320708, Note_on_c, 0, 56, 65
2, 320710, Note_on_c, 0, 61, 65
2, 320710, Note_on_c, 0, 65, 48
2, 320714, Note_on_c, 0, 59, 65
2, 320738, Note_on_c, 0, 56, 0
2, 320746, Note_on_c, 0, 65, 0
2, 320746, Note_on_c, 0, 59, 0
2, 320753, Note_on_c, 0, 72, 0
2, 320757, Note_on_c, 0, 61, 0
2, 320757, Note_on_c, 0, 73, 57
2, 320798, Note_on_c, 0, 73, 0
2, 320809, Note_on_c, 0, 56, 65
2, 320809, Note_on_c, 0, 61, 65
2, 320809, Note_on_c, 0, 65, 65
2, 320811, Note_on_c, 0, 59, 64
2, 320815, Note_on_c, 0, 75, 67
2, 320826, Note_on_c, 0, 65, 0
2, 320834, Note_on_c, 0, 56, 0
2, 320836, Note_on_c, 0, 59, 0
2, 320844, Note_on_c, 0, 75, 0
2, 320844, Note_on_c, 0, 61, 0
2, 320858, Control_c, 0, 64, 0
2, 320866, Note_on_c, 0, 77, 74
2, 320912, Note_on_c, 0, 77, 0
2, 320914, Note_on_c, 0, 78, 81
2, 320916, Note_on_c, 0, 42, 78
2, 320916, Note_on_c, 0, 54, 79
2, 320968, Control_c, 0, 64, 127
2, 320969, Note_on_c, 0, 78, 0
2, 320975, Note_on_c, 0, 80, 87
2, 320983, Note_on_c, 0, 54, 0
2, 320985, Note_on_c, 0, 42, 0
2, 321029, Note_on_c, 0, 80, 0
2, 321031, Note_on_c, 0, 61, 89
2, 321031, Note_on_c, 0, 66, 89
2, 321031, Note_on_c, 0, 81, 91
2, 321035, Note_on_c, 0, 57, 88
2, 321061, Note_on_c, 0, 66, 0
2, 321072, Note_on_c, 0, 57, 0
2, 321082, Note_on_c, 0, 61, 0
2, 321096, Note_on_c, 0, 77, 85
2, 321104, Note_on_c, 0, 81, 0
2, 321108, Control_c, 0, 64, 0
2, 321161, Note_on_c, 0, 77, 0
2, 321163, Note_on_c, 0, 80, 82
2, 321169, Note_on_c, 0, 40, 81
2, 321169, Note_on_c, 0, 52, 81
2, 321199, Control_c, 0, 64, 127
2, 321219, Note_on_c, 0, 52, 0
2, 321219, Note_on_c, 0, 40, 0
2, 321227, Note_on_c, 0, 80, 0
2, 321229, Note_on_c, 0, 78, 82
2, 321284, Note_on_c, 0, 78, 0
2, 321284, Note_on_c, 0, 66, 80
2, 321284, Note_on_c, 0, 81, 83
2, 321288, Note_on_c, 0, 57, 92
2, 321298, Note_on_c, 0, 61, 92
2, 321312, Note_on_c, 0, 66, 0
2, 321320, Note_on_c, 0, 57, 0
2, 321340, Note_on_c, 0, 61, 0
2, 321352, Note_on_c, 0, 77, 83
2, 321357, Note_on_c, 0, 81, 0
2, 321363, Control_c, 0, 64, 0
2, 321405, Note_on_c, 0, 50, 92
2, 321405, Note_on_c, 0, 80, 90
2, 321411, Note_on_c, 0, 38, 95
2, 321413, Note_on_c, 0, 77, 0
2, 321457, Control_c, 0, 64, 127
2, 321469, Note_on_c, 0, 80, 0
2, 321471, Note_on_c, 0, 50, 0
2, 321471, Note_on_c, 0, 38, 0
2, 321472, Note_on_c, 0, 78, 88
2, 321539, Note_on_c, 0, 78, 0
2, 321546, Note_on_c, 0, 66, 82
2, 321550, Note_on_c, 0, 57, 87
2, 321550, Note_on_c, 0, 60, 86
2, 321550, Note_on_c, 0, 81, 84
2, 321576, Note_on_c, 0, 60, 0
2, 321576, Note_on_c, 0, 66, 0
2, 321576, Note_on_c, 0, 57, 0
2, 321622, Note_on_c, 0, 81, 0
2, 321624, Note_on_c, 0, 78, 89
2, 321674, Note_on_c, 0, 78, 0
2, 321676, Control_c, 0, 64, 0
2, 321704, Note_on_c, 0, 49, 105
2, 321704, Note_on_c, 0, 81, 99
2, 321706, Note_on_c, 0, 37, 103
2, 321763, Control_c, 0, 64, 127
2, 321780, Note_on_c, 0, 81, 0
2, 321782, Note_on_c, 0, 78, 89
2, 321800, Note_on_c, 0, 49, 0
2, 321804, Note_on_c, 0, 37, 0
2, 321828, Note_on_c, 0, 78, 0
2, 321844, Control_c, 0, 64, 0
2, 321870, Note_on_c, 0, 81, 85
2, 321874, Note_on_c, 0, 66, 81
2, 321874, Note_on_c, 0, 69, 82
2, 321885, Note_on_c, 0, 57, 82
2, 321885, Note_on_c, 0, 61, 81
2, 321939, Control_c, 0, 64, 127
2, 321957, Note_on_c, 0, 81, 0
2, 321959, Note_on_c, 0, 78, 85
2, 321967, Note_on_c, 0, 66, 0
2, 321976, Note_on_c, 0, 69, 0
2, 321988, Note_on_c, 0, 57, 0
2, 322006, Note_on_c, 0, 61, 0
2, 322016, Note_on_c, 0, 78, 0
2, 322038, Note_on_c, 0, 59, 80
2, 322038, Note_on_c, 0, 65, 84
2, 322038, Note_on_c, 0, 69, 86
2, 322038, Note_on_c, 0, 81, 89
2, 322048, Note_on_c, 0, 61, 80
2, 322068, Note_on_c, 0, 65, 0
2, 322077, Note_on_c, 0, 59, 0
2, 322094, Note_on_c, 0, 81, 0
2, 322094, Note_on_c, 0, 69, 0
2, 322097, Note_on_c, 0, 61, 0
2, 322127, Note_on_c, 0, 73, 75
2, 322127, Note_on_c, 0, 77, 72
2, 322137, Control_c, 0, 64, 0
2, 322159, Note_on_c, 0, 77, 0
2, 322159, Note_on_c, 0, 73, 0
2, 322167, Note_on_c, 0, 42, 73
2, 322185, Note_on_c, 0, 49, 73
2, 322205, Note_on_c, 0, 57, 76
2, 322213, Note_on_c, 0, 66, 77
2, 322213, Note_on_c, 0, 73, 79
2, 322216, Note_on_c, 0, 78, 80
2, 322240, Control_c, 0, 64, 127
2, 322259, Note_on_c, 0, 49, 0
2, 322261, Note_on_c, 0, 66, 0
2, 322268, Note_on_c, 0, 73, 0
2, 322268, Note_on_c, 0, 42, 0
2, 322268, Note_on_c, 0, 78, 0
2, 322268, Note_on_c, 0, 57, 0
2, 322318, Note_on_c, 0, 69, 78
2, 322318, Note_on_c, 0, 81, 85
2, 322328, Note_on_c, 0, 66, 83
2, 322330, Note_on_c, 0, 54, 73
2, 322344, Note_on_c, 0, 81, 0
2, 322344, Note_on_c, 0, 69, 0
2, 322350, Control_c, 0, 64, 0
2, 322358, Note_on_c, 0, 66, 0
2, 322358, Note_on_c, 0, 54, 0
2, 322378, Note_on_c, 0, 83, 84
2, 322380, Note_on_c, 0, 56, 73
2, 322380, Note_on_c, 0, 68, 83
2, 322380, Note_on_c, 0, 71, 85
2, 322404, Note_on_c, 0, 71, 0
2, 322404, Note_on_c, 0, 83, 0
2, 322404, Note_on_c, 0, 56, 0
2, 322408, Note_on_c, 0, 68, 0
2, 322433, Note_on_c, 0, 85, 86
2, 322437, Note_on_c, 0, 69, 87
2, 322437, Note_on_c, 0, 73, 88
2, 322439, Note_on_c, 0, 57, 73
2, 322449, Control_c, 0, 64, 127
2, 322465, Note_on_c, 0, 73, 0
2, 322465, Note_on_c, 0, 85, 0
2, 322465, Note_on_c, 0, 69, 0
2, 322467, Note_on_c, 0, 57, 0
2, 322489, Note_on_c, 0, 59, 73
2, 322497, Note_on_c, 0, 71, 86
2, 322497, Note_on_c, 0, 74, 87
2, 322497, Note_on_c, 0, 86, 90
2, 322525, Note_on_c, 0, 86, 0
2, 322525, Note_on_c, 0, 74, 0
2, 322525, Note_on_c, 0, 71, 0
2, 322527, Note_on_c, 0, 59, 0
2, 322549, Note_on_c, 0, 76, 85
2, 322549, Note_on_c, 0, 88, 89
2, 322560, Note_on_c, 0, 61, 78
2, 322560, Note_on_c, 0, 73, 88
2, 322575, Note_on_c, 0, 76, 0
2, 322586, Note_on_c, 0, 88, 0
2, 322588, Note_on_c, 0, 73, 0
2, 322596, Note_on_c, 0, 61, 0
2, 322649, Control_c, 0, 64, 0
2, 322697, Note_on_c, 0, 86, 104
2, 322699, Note_on_c, 0, 90, 107
2, 322703, Note_on_c, 0, 78, 106
2, 322705, Note_on_c, 0, 26, 80
2, 322749, Control_c, 0, 64, 127
2, 322755, Note_on_c, 0, 38, 87
2, 322773, Note_on_c, 0, 26, 0
2, 322777, Note_on_c, 0, 90, 0
2, 322777, Note_on_c, 0, 86, 0
2, 322777, Note_on_c, 0, 38, 0
2, 322805, Note_on_c, 0, 78, 0
2, 322816, Note_on_c, 0, 57, 88
2, 322818, Note_on_c, 0, 45, 89
2, 322830, Note_on_c, 0, 54, 90
2, 322848, Note_on_c, 0, 57, 0
2, 322856, Note_on_c, 0, 54, 0
2, 322858, Note_on_c, 0, 45, 0
2, 323021, Note_on_c, 0, 85, 83
2, 323023, Note_on_c, 0, 73, 82
2, 323023, Note_on_c, 0, 81, 84
2, 323032, Note_on_c, 0, 54, 73
2, 323034, Note_on_c, 0, 50, 73
2, 323034, Note_on_c, 0, 62, 73
2, 323060, Note_on_c, 0, 62, 0
2, 323070, Note_on_c, 0, 54, 0
2, 323081, Note_on_c, 0, 50, 0
2, 323098, Note_on_c, 0, 73, 0
2, 323118, Note_on_c, 0, 81, 0
2, 323120, Note_on_c, 0, 85, 0
2, 323124, Control_c, 0, 64, 0
2, 323170, Note_on_c, 0, 85, 84
2, 323172, Note_on_c, 0, 76, 88
2, 323172, Note_on_c, 0, 88, 91
2, 323190, Note_on_c, 0, 30, 81
2, 323224, Note_on_c, 0, 42, 84
2, 323235, Control_c, 0, 64, 127
2, 323247, Note_on_c, 0, 88, 0
2, 323248, Note_on_c, 0, 42, 0
2, 323254, Note_on_c, 0, 30, 0
2, 323271, Note_on_c, 0, 85, 0
2, 323289, Note_on_c, 0, 76, 0
2, 323303, Note_on_c, 0, 45, 89
2, 323303, Note_on_c, 0, 54, 90
2, 323303, Note_on_c, 0, 57, 91
2, 323333, Note_on_c, 0, 57, 0
2, 323333, Note_on_c, 0, 54, 0
2, 323333, Note_on_c, 0, 45, 0
2, 323496, Note_on_c, 0, 50, 82
2, 323504, Note_on_c, 0, 62, 73
2, 323504, Note_on_c, 0, 74, 82
2, 323504, Note_on_c, 0, 83, 83
2, 323506, Note_on_c, 0, 54, 73
2, 323506, Note_on_c, 0, 71, 82
2, 323530, Note_on_c, 0, 54, 0
2, 323534, Note_on_c, 0, 62, 0
2, 323545, Note_on_c, 0, 50, 0
2, 323571, Note_on_c, 0, 83, 0
2, 323571, Note_on_c, 0, 74, 0
2, 323611, Note_on_c, 0, 71, 0
2, 323615, Control_c, 0, 64, 0
2, 323639, Note_on_c, 0, 28, 73
2, 323641, Note_on_c, 0, 86, 87
2, 323645, Note_on_c, 0, 74, 86
2, 323645, Note_on_c, 0, 83, 89
2, 323682, Note_on_c, 0, 40, 78
2, 323704, Control_c, 0, 64, 127
2, 323721, Note_on_c, 0, 83, 0
2, 323721, Note_on_c, 0, 86, 0
2, 323723, Note_on_c, 0, 40, 0
2, 323725, Note_on_c, 0, 28, 0
2, 323728, Note_on_c, 0, 74, 0
2, 323754, Note_on_c, 0, 55, 75
2, 323756, Note_on_c, 0, 52, 78
2, 323756, Note_on_c, 0, 59, 79
2, 323780, Note_on_c, 0, 59, 0
2, 323780, Note_on_c, 0, 52, 0
2, 323780, Note_on_c, 0, 55, 0
2, 323882, Note_on_c, 0, 55, 73
2, 323882, Note_on_c, 0, 67, 81
2, 323882, Note_on_c, 0, 71, 81
2, 323882, Note_on_c, 0, 74, 82
2, 323882, Note_on_c, 0, 79, 81
2, 323884, Note_on_c, 0, 59, 73
2, 323890, Note_on_c, 0, 62, 73
2, 323908, Note_on_c, 0, 59, 0
2, 323908, Note_on_c, 0, 55, 0
2, 323918, Note_on_c, 0, 62, 0
2, 323923, Note_on_c, 0, 74, 0
2, 323923, Note_on_c, 0, 79, 0
2, 323927, Note_on_c, 0, 67, 0
2, 323955, Note_on_c, 0, 71, 0
2, 323989, Control_c, 0, 64, 0
2, 324015, Note_on_c, 0, 85, 82
2, 324015, Note_on_c, 0, 97, 86
2, 324020, Note_on_c, 0, 45, 73
2, 324028, Note_on_c, 0, 52, 73
2, 324040, Note_on_c, 0, 97, 0
2, 324040, Note_on_c, 0, 85, 0
2, 324043, Note_on_c, 0, 98, 82
2, 324055, Note_on_c, 0, 55, 76
2, 324063, Note_on_c, 0, 45, 0
2, 324063, Note_on_c, 0, 52, 0
2, 324068, Note_on_c, 0, 98, 0
2, 324070, Note_on_c, 0, 85, 82
2, 324072, Note_on_c, 0, 97, 86
2, 324082, Note_on_c, 0, 55, 0
2, 324100, Note_on_c, 0, 85, 0
2, 324116, Note_on_c, 0, 97, 0
2, 324128, Note_on_c, 0, 84, 84
2, 324128, Note_on_c, 0, 96, 84
2, 324150, Note_on_c, 0, 64, 79
2, 324150, Note_on_c, 0, 67, 77
2, 324152, Note_on_c, 0, 61, 80
2, 324154, Note_on_c, 0, 96, 0
2, 324158, Note_on_c, 0, 84, 0
2, 324167, Note_on_c, 0, 64, 0
2, 324173, Note_on_c, 0, 61, 0
2, 324175, Note_on_c, 0, 67, 0
2, 324253, Note_on_c, 0, 97, 81
2, 324256, Control_c, 0, 64, 127
2, 324256, Note_on_c, 0, 85, 84
2, 324268, Note_on_c, 0, 64, 80
2, 324268, Note_on_c, 0, 67, 81
2, 324268, Note_on_c, 0, 73, 81
2, 324284, Note_on_c, 0, 67, 0
2, 324284, Note_on_c, 0, 85, 0
2, 324292, Note_on_c, 0, 73, 0
2, 324294, Note_on_c, 0, 64, 0
2, 324294, Note_on_c, 0, 97, 0
2, 324370, Control_c, 0, 64, 0
2, 324403, Note_on_c, 0, 91, 97
2, 324407, Note_on_c, 0, 79, 97
2, 324407, Note_on_c, 0, 86, 100
2, 324411, Note_on_c, 0, 35, 80
2, 324472, Note_on_c, 0, 47, 82
2, 324487, Control_c, 0, 64, 127
2, 324522, Note_on_c, 0, 86, 0
2, 324526, Note_on_c, 0, 47, 0
2, 324526, Note_on_c, 0, 91, 0
2, 324538, Note_on_c, 0, 35, 0
2, 324542, Note_on_c, 0, 79, 0
2, 324560, Note_on_c, 0, 50, 83
2, 324560, Note_on_c, 0, 55, 85
2, 324560, Note_on_c, 0, 62, 86
2, 324586, Note_on_c, 0, 62, 0
2, 324586, Note_on_c, 0, 55, 0
2, 324597, Note_on_c, 0, 50, 0
2, 324725, Note_on_c, 0, 62, 83
2, 324725, Note_on_c, 0, 79, 82
2, 324725, Note_on_c, 0, 86, 83
2, 324729, Note_on_c, 0, 55, 73
2, 324729, Note_on_c, 0, 67, 81
2, 324729, Note_on_c, 0, 74, 81
2, 324735, Note_on_c, 0, 59, 73
2, 324753, Note_on_c, 0, 67, 0
2, 324753, Note_on_c, 0, 62, 0
2, 324762, Note_on_c, 0, 79, 0
2, 324762, Note_on_c, 0, 74, 0
2, 324764, Note_on_c, 0, 55, 0
2, 324772, Note_on_c, 0, 86, 0
2, 324774, Note_on_c, 0, 59, 0
2, 324832, Control_c, 0, 64, 0
2, 324880, Note_on_c, 0, 33, 73
2, 324887, Note_on_c, 0, 85, 95
2, 324887, Note_on_c, 0, 90, 96
2, 324889, Note_on_c, 0, 78, 95
2, 324931, Note_on_c, 0, 45, 84
2, 324950, Control_c, 0, 64, 127
2, 324964, Note_on_c, 0, 45, 0
2, 324970, Note_on_c, 0, 33, 0
2, 324974, Note_on_c, 0, 85, 0
2, 324983, Note_on_c, 0, 90, 0
2, 325001, Note_on_c, 0, 78, 0
2, 325005, Note_on_c, 0, 55, 81
2, 325005, Note_on_c, 0, 57, 82
2, 325005, Note_on_c, 0, 64, 73
2, 325015, Note_on_c, 0, 61, 83
2, 325050, Note_on_c, 0, 64, 0
2, 325062, Note_on_c, 0, 55, 0
2, 325070, Note_on_c, 0, 61, 0
2, 325072, Note_on_c, 0, 57, 0
2, 325161, Note_on_c, 0, 73, 79
2, 325161, Note_on_c, 0, 76, 82
2, 325161, Note_on_c, 0, 85, 83
2, 325163, Note_on_c, 0, 57, 73
2, 325163, Note_on_c, 0, 64, 81
2, 325163, Note_on_c, 0, 67, 80
2, 325174, Note_on_c, 0, 61, 73
2, 325189, Note_on_c, 0, 64, 0
2, 325198, Note_on_c, 0, 57, 0
2, 325202, Note_on_c, 0, 67, 0
2, 325218, Note_on_c, 0, 76, 0
2, 325218, Note_on_c, 0, 73, 0
2, 325218, Note_on_c, 0, 61, 0
2, 325248, Note_on_c, 0, 85, 0
2, 325290, Control_c, 0, 64, 0
2, 325316, Note_on_c, 0, 81, 88
2, 325318, Note_on_c, 0, 76, 88
2, 325318, Note_on_c, 0, 88, 91
2, 325320, Note_on_c, 0, 26, 73
2, 325326, Note_on_c, 0, 78, 90
2, 325368, Note_on_c, 0, 38, 75
2, 325376, Control_c, 0, 64, 127
2, 325402, Note_on_c, 0, 88, 0
2, 325411, Note_on_c, 0, 78, 0
2, 325411, Note_on_c, 0, 81, 0
2, 325411, Note_on_c, 0, 76, 0
2, 325415, Note_on_c, 0, 38, 0
2, 325417, Note_on_c, 0, 26, 0
2, 325443, Note_on_c, 0, 45, 78
2, 325443, Note_on_c, 0, 57, 81
2, 325455, Note_on_c, 0, 54, 82
2, 325471, Note_on_c, 0, 57, 0
2, 325471, Note_on_c, 0, 45, 0
2, 325480, Note_on_c, 0, 54, 0
2, 325574, Note_on_c, 0, 78, 79
2, 325574, Note_on_c, 0, 81, 84
2, 325576, Note_on_c, 0, 50, 73
2, 325576, Note_on_c, 0, 69, 82
2, 325585, Note_on_c, 0, 54, 73
2, 325585, Note_on_c, 0, 62, 73
2, 325597, Note_on_c, 0, 69, 0
2, 325608, Note_on_c, 0, 81, 0
2, 325608, Note_on_c, 0, 78, 0
2, 325620, Note_on_c, 0, 50, 0
2, 325629, Note_on_c, 0, 62, 0
2, 325629, Note_on_c, 0, 54, 0
2, 325665, Control_c, 0, 64, 0
2, 325715, Note_on_c, 0, 66, 64
2, 325715, Note_on_c, 0, 98, 64
2, 325733, Note_on_c, 0, 100, 67
2, 325735, Note_on_c, 0, 98, 0
2, 325757, Note_on_c, 0, 98, 71
2, 325759, Note_on_c, 0, 69, 68
2, 325765, Note_on_c, 0, 100, 0
2, 325772, Control_c, 0, 64, 127
2, 325776, Note_on_c, 0, 66, 0
2, 325791, Note_on_c, 0, 98, 0
2, 325796, Note_on_c, 0, 74, 73
2, 325802, Note_on_c, 0, 69, 0
2, 325822, Note_on_c, 0, 85, 78
2, 325828, Note_on_c, 0, 97, 83
2, 325832, Note_on_c, 0, 74, 0
2, 325843, Note_on_c, 0, 73, 77
2, 325862, Note_on_c, 0, 97, 0
2, 325862, Note_on_c, 0, 85, 0
2, 325882, Note_on_c, 0, 73, 0
2, 325952, Note_on_c, 0, 98, 82
2, 325954, Note_on_c, 0, 74, 81
2, 325954, Note_on_c, 0, 86, 84
2, 325982, Note_on_c, 0, 98, 0
2, 325984, Note_on_c, 0, 74, 0
2, 325993, Note_on_c, 0, 86, 0
2, 326067, Control_c, 0, 64, 0
2, 326103, Note_on_c, 0, 78, 81
2, 326103, Note_on_c, 0, 86, 84
2, 326103, Note_on_c, 0, 90, 83
2, 326108, Note_on_c, 0, 26, 73
2, 326176, Note_on_c, 0, 38, 75
2, 326200, Control_c, 0, 64, 127
2, 326231, Note_on_c, 0, 86, 0
2, 326239, Note_on_c, 0, 78, 0
2, 326239, Note_on_c, 0, 38, 0
2, 326239, Note_on_c, 0, 90, 0
2, 326245, Note_on_c, 0, 26, 0
2, 326245, Note_on_c, 0, 45, 84
2, 326250, Note_on_c, 0, 54, 85
2, 326250, Note_on_c, 0, 57, 86
2, 326276, Note_on_c, 0, 45, 0
2, 326280, Note_on_c, 0, 57, 0
2, 326286, Note_on_c, 0, 54, 0
2, 326437, Note_on_c, 0, 81, 78
2, 326437, Note_on_c, 0, 85, 84
2, 326439, Note_on_c, 0, 50, 73
2, 326439, Note_on_c, 0, 62, 73
2, 326439, Note_on_c, 0, 73, 82
2, 326448, Note_on_c, 0, 54, 72
2, 326474, Note_on_c, 0, 62, 0
2, 326484, Note_on_c, 0, 54, 0
2, 326513, Note_on_c, 0, 50, 0
2, 326513, Note_on_c, 0, 73, 0
2, 326536, Note_on_c, 0, 81, 0
2, 326541, Note_on_c, 0, 85, 0
2, 326543, Control_c, 0, 64, 0
2, 326569, Note_on_c, 0, 85, 78
2, 326571, Note_on_c, 0, 88, 81
2, 326573, Note_on_c, 0, 76, 80
2, 326577, Note_on_c, 0, 30, 73
2, 326631, Note_on_c, 0, 42, 75
2, 326640, Control_c, 0, 64, 127
2, 326652, Note_on_c, 0, 88, 0
2, 326656, Note_on_c, 0, 76, 0
2, 326657, Note_on_c, 0, 85, 0
2, 326667, Note_on_c, 0, 42, 0
2, 326669, Note_on_c, 0, 30, 0
2, 326687, Note_on_c, 0, 45, 81
2, 326693, Note_on_c, 0, 54, 83
2, 326693, Note_on_c, 0, 57, 84
2, 326730, Note_on_c, 0, 57, 0
2, 326742, Note_on_c, 0, 45, 0
2, 326752, Note_on_c, 0, 54, 0
2, 326876, Note_on_c, 0, 83, 81
2, 326878, Note_on_c, 0, 50, 73
2, 326878, Note_on_c, 0, 62, 73
2, 326878, Note_on_c, 0, 71, 82
2, 326878, Note_on_c, 0, 74, 81
2, 326888, Note_on_c, 0, 54, 72
2, 326914, Note_on_c, 0, 54, 0
2, 326914, Note_on_c, 0, 62, 0
2, 326934, Note_on_c, 0, 50, 0
2, 326964, Note_on_c, 0, 74, 0
2, 326964, Note_on_c, 0, 71, 0
2, 326977, Note_on_c, 0, 83, 0
2, 326989, Control_c, 0, 64, 0
2, 327015, Note_on_c, 0, 74, 91
2, 327015, Note_on_c, 0, 83, 95
2, 327015, Note_on_c, 0, 86, 96
2, 327031, Note_on_c, 0, 28, 80
2, 327075, Control_c, 0, 64, 127
2, 327077, Note_on_c, 0, 40, 87
2, 327093, Note_on_c, 0, 83, 0
2, 327095, Note_on_c, 0, 28, 0
2, 327095, Note_on_c, 0, 86, 0
2, 327112, Note_on_c, 0, 74, 0
2, 327115, Note_on_c, 0, 40, 0
2, 327145, Note_on_c, 0, 52, 85
2, 327145, Note_on_c, 0, 55, 88
2, 327149, Note_on_c, 0, 59, 89
2, 327195, Note_on_c, 0, 59, 0
2, 327195, Note_on_c, 0, 52, 0
2, 327205, Note_on_c, 0, 55, 0
2, 327274, Note_on_c, 0, 55, 82
2, 327274, Note_on_c, 0, 67, 81
2, 327274, Note_on_c, 0, 71, 81
2, 327274, Note_on_c, 0, 74, 82
2, 327274, Note_on_c, 0, 79, 81
2, 327276, Note_on_c, 0, 59, 80
2, 327283, Note_on_c, 0, 62, 80
2, 327307, Note_on_c, 0, 55, 0
2, 327309, Note_on_c, 0, 59, 0
2, 327317, Note_on_c, 0, 74, 0
2, 327317, Note_on_c, 0, 62, 0
2, 327327, Note_on_c, 0, 67, 0
2, 327343, Note_on_c, 0, 79, 0
2, 327352, Note_on_c, 0, 71, 0
2, 327386, Control_c, 0, 64, 0
2, 327404, Note_on_c, 0, 85, 81
2, 327406, Note_on_c, 0, 45, 73
2, 327412, Note_on_c, 0, 97, 85
2, 327416, Note_on_c, 0, 52, 73
2, 327422, Note_on_c, 0, 55, 73
2, 327440, Note_on_c, 0, 97, 0
2, 327440, Note_on_c, 0, 98, 82
2, 327449, Note_on_c, 0, 52, 0
2, 327461, Note_on_c, 0, 55, 0
2, 327479, Note_on_c, 0, 98, 0
2, 327481, Note_on_c, 0, 45, 0
2, 327481, Note_on_c, 0, 97, 86
2, 327489, Note_on_c, 0, 85, 0
2, 327519, Note_on_c, 0, 97, 0
2, 327528, Note_on_c, 0, 96, 84
2, 327530, Note_on_c, 0, 84, 84
2, 327532, Note_on_c, 0, 64, 81
2, 327532, Note_on_c, 0, 67, 81
2, 327540, Note_on_c, 0, 61, 78
2, 327551, Control_c, 0, 64, 127
2, 327555, Note_on_c, 0, 64, 0
2, 327563, Note_on_c, 0, 84, 0
2, 327565, Note_on_c, 0, 67, 0
2, 327572, Note_on_c, 0, 96, 0
2, 327578, Note_on_c, 0, 61, 0
2, 327667, Note_on_c, 0, 73, 79
2, 327667, Note_on_c, 0, 85, 84
2, 327667, Note_on_c, 0, 97, 86
2, 327669, Note_on_c, 0, 64, 81
2, 327677, Note_on_c, 0, 67, 81
2, 327693, Note_on_c, 0, 73, 0
2, 327695, Note_on_c, 0, 64, 0
2, 327695, Note_on_c, 0, 85, 0
2, 327695, Note_on_c, 0, 97, 0
2, 327705, Note_on_c, 0, 67, 0
2, 327774, Control_c, 0, 64, 0
2, 327809, Note_on_c, 0, 34, 82
2, 327815, Note_on_c, 0, 79, 93
2, 327815, Note_on_c, 0, 91, 96
2, 327825, Note_on_c, 0, 86, 97
2, 327884, Control_c, 0, 64, 127
2, 327884, Note_on_c, 0, 46, 94
2, 327904, Note_on_c, 0, 34, 0
2, 327910, Note_on_c, 0, 91, 0
2, 327912, Note_on_c, 0, 86, 0
2, 327922, Note_on_c, 0, 46, 0
2, 327952, Note_on_c, 0, 50, 92
2, 327952, Note_on_c, 0, 62, 94
2, 327968, Note_on_c, 0, 79, 0
2, 328053, Note_on_c, 0, 62, 0
2, 328081, Note_on_c, 0, 50, 0
2, 328133, Note_on_c, 0, 55, 73
2, 328133, Note_on_c, 0, 67, 81
2, 328133, Note_on_c, 0, 74, 81
2, 328133, Note_on_c, 0, 79, 82
2, 328133, Note_on_c, 0, 86, 83
2, 328143, Note_on_c, 0, 58, 73
2, 328159, Note_on_c, 0, 67, 0
2, 328170, Note_on_c, 0, 58, 0
2, 328180, Note_on_c, 0, 74, 0
2, 328182, Note_on_c, 0, 55, 0
2, 328190, Note_on_c, 0, 86, 0
2, 328210, Note_on_c, 0, 79, 0
2, 328234, Control_c, 0, 64, 0
2, 328282, Note_on_c, 0, 91, 84
2, 328284, Note_on_c, 0, 35, 83
2, 328284, Note_on_c, 0, 79, 88
2, 328284, Note_on_c, 0, 87, 91
2, 328353, Control_c, 0, 64, 127
2, 328353, Note_on_c, 0, 47, 99
2, 328392, Note_on_c, 0, 35, 0
2, 328398, Note_on_c, 0, 91, 0
2, 328398, Note_on_c, 0, 47, 0
2, 328406, Note_on_c, 0, 87, 0
2, 328426, Note_on_c, 0, 79, 0
2, 328439, Note_on_c, 0, 51, 97
2, 328439, Note_on_c, 0, 63, 98
2, 328525, Note_on_c, 0, 63, 0
2, 328536, Note_on_c, 0, 51, 0
2, 328592, Note_on_c, 0, 87, 83
2, 328594, Note_on_c, 0, 55, 86
2, 328594, Note_on_c, 0, 67, 81
2, 328594, Note_on_c, 0, 75, 81
2, 328594, Note_on_c, 0, 79, 82
2, 328596, Note_on_c, 0, 59, 85
2, 328629, Note_on_c, 0, 59, 0
2, 328629, Note_on_c, 0, 55, 0
2, 328629, Note_on_c, 0, 67, 0
2, 328661, Note_on_c, 0, 75, 0
2, 328679, Note_on_c, 0, 79, 0
2, 328679, Note_on_c, 0, 87, 0
2, 328720, Control_c, 0, 64, 0
2, 328752, Note_on_c, 0, 36, 86
2, 328752, Note_on_c, 0, 88, 94
2, 328752, Note_on_c, 0, 91, 95
2, 328754, Note_on_c, 0, 79, 94
2, 328829, Control_c, 0, 64, 127
2, 328851, Note_on_c, 0, 48, 103
2, 328857, Note_on_c, 0, 79, 0
2, 328857, Note_on_c, 0, 88, 0
2, 328859, Note_on_c, 0, 36, 0
2, 328859, Note_on_c, 0, 91, 0
2, 328887, Note_on_c, 0, 48, 0
2, 328928, Note_on_c, 0, 60, 106
2, 328930, Note_on_c, 0, 52, 107
2, 328930, Note_on_c, 0, 64, 80
2, 329062, Note_on_c, 0, 64, 0
2, 329076, Note_on_c, 0, 52, 0
2, 329081, Note_on_c, 0, 60, 0
2, 329143, Note_on_c, 0, 55, 80
2, 329143, Note_on_c, 0, 60, 80
2, 329143, Note_on_c, 0, 76, 109
2, 329143, Note_on_c, 0, 79, 108
2, 329143, Note_on_c, 0, 84, 111
2, 329143, Note_on_c, 0, 88, 110
2, 329145, Note_on_c, 0, 64, 108
2, 329152, Note_on_c, 0, 67, 108
2, 329171, Note_on_c, 0, 64, 0
2, 329176, Note_on_c, 0, 60, 0
2, 329180, Note_on_c, 0, 67, 0
2, 329180, Note_on_c, 0, 55, 0
2, 329244, Note_on_c, 0, 76, 0
2, 329285, Note_on_c, 0, 88, 0
2, 329285, Note_on_c, 0, 84, 0
2, 329289, Note_on_c, 0, 37, 84
2, 329315, Note_on_c, 0, 79, 0
2, 329319, Control_c, 0, 64, 0
2, 329320, Note_on_c, 0, 49, 89
2, 329425, Control_c, 0, 64, 127
2, 329435, Note_on_c, 0, 93, 111
2, 329439, Note_on_c, 0, 55, 108
2, 329439, Note_on_c, 0, 57, 108
2, 329439, Note_on_c, 0, 64, 108
2, 329439, Note_on_c, 0, 79, 108
2, 329439, Note_on_c, 0, 85, 111
2, 329439, Note_on_c, 0, 88, 110
2, 329444, Note_on_c, 0, 37, 0
2, 329444, Note_on_c, 0, 81, 111
2, 329448, Note_on_c, 0, 61, 108
2, 329456, Note_on_c, 0, 49, 0
2, 329474, Note_on_c, 0, 64, 0
2, 329482, Note_on_c, 0, 61, 0
2, 329506, Note_on_c, 0, 55, 0
2, 329512, Note_on_c, 0, 93, 0
2, 329513, Note_on_c, 0, 57, 0
2, 329521, Note_on_c, 0, 81, 0
2, 329533, Note_on_c, 0, 88, 0
2, 329542, Note_on_c, 0, 85, 0
2, 329592, Note_on_c, 0, 79, 0
2, 329628, Note_on_c, 0, 57, 97
2, 329665, Note_on_c, 0, 57, 0
2, 329675, Note_on_c, 0, 62, 87
2, 329684, Note_on_c, 0, 64, 64
2, 329703, Note_on_c, 0, 62, 0
2, 329703, Note_on_c, 0, 65, 65
2, 329706, Note_on_c, 0, 64, 0
2, 329708, Note_on_c, 0, 59, 92
2, 329727, Note_on_c, 0, 67, 65
2, 329732, Note_on_c, 0, 65, 0
2, 329732, Note_on_c, 0, 69, 66
2, 329754, Note_on_c, 0, 67, 0
2, 329754, Note_on_c, 0, 59, 0
2, 329756, Note_on_c, 0, 71, 65
2, 329764, Note_on_c, 0, 69, 0
2, 329774, Note_on_c, 0, 71, 0
2, 329776, Note_on_c, 0, 72, 66
2, 329794, Note_on_c, 0, 74, 67
2, 329796, Note_on_c, 0, 61, 86
2, 329803, Note_on_c, 0, 72, 0
2, 329815, Note_on_c, 0, 76, 70
2, 329824, Note_on_c, 0, 74, 0
2, 329834, Note_on_c, 0, 76, 0
2, 329838, Note_on_c, 0, 77, 73
2, 329846, Note_on_c, 0, 61, 0
2, 329846, Note_on_c, 0, 79, 74
2, 329870, Note_on_c, 0, 77, 0
2, 329872, Note_on_c, 0, 81, 76
2, 329881, Note_on_c, 0, 79, 0
2, 329883, Note_on_c, 0, 62, 87
2, 329883, Note_on_c, 0, 83, 76
2, 329903, Note_on_c, 0, 83, 0
2, 329903, Note_on_c, 0, 81, 0
2, 329905, Note_on_c, 0, 84, 75
2, 329927, Note_on_c, 0, 86, 76
2, 329933, Note_on_c, 0, 84, 0
2, 329935, Note_on_c, 0, 62, 0
2, 329946, Note_on_c, 0, 88, 76
2, 329956, Note_on_c, 0, 86, 0
2, 329968, Note_on_c, 0, 89, 79
2, 329973, Note_on_c, 0, 88, 0
2, 329973, Note_on_c, 0, 91, 82
2, 329975, Note_on_c, 0, 64, 80
2, 329992, Note_on_c, 0, 89, 0
2, 329993, Control_c, 0, 64, 0
2, 329993, Note_on_c, 0, 93, 87
2, 330003, Note_on_c, 0, 91, 0
2, 330003, Note_on_c, 0, 95, 89
2, 330021, Note_on_c, 0, 95, 0
2, 330021, Note_on_c, 0, 93, 0
2, 330021, Note_on_c, 0, 96, 90
2, 330025, Note_on_c, 0, 64, 0
2, 330031, Note_on_c, 0, 98, 93
2, 330047, Note_on_c, 0, 96, 0
2, 330047, Note_on_c, 0, 100, 91
2, 330057, Note_on_c, 0, 98, 0
2, 330077, Note_on_c, 0, 100, 0
2, 330081, Note_on_c, 0, 102, 94
2, 330090, Note_on_c, 0, 66, 89
2, 330107, Note_on_c, 0, 102, 0
2, 330144, Control_c, 0, 64, 127
2, 330164, Note_on_c, 0, 66, 0
2, 330291, Note_on_c, 0, 66, 80
2, 330293, Note_on_c, 0, 57, 80
2, 330293, Note_on_c, 0, 69, 81
2, 330317, Note_on_c, 0, 26, 80
2, 330317, Note_on_c, 0, 38, 80
2, 330319, Note_on_c, 0, 69, 0
2, 330321, Note_on_c, 0, 57, 0
2, 330325, Note_on_c, 0, 66, 0
2, 330366, Note_on_c, 0, 26, 0
2, 330370, Note_on_c, 0, 38, 0
2, 330496, Note_on_c, 0, 85, 87
2, 330498, Note_on_c, 0, 57, 80
2, 330498, Note_on_c, 0, 66, 89
2, 330498, Note_on_c, 0, 81, 91
2, 330500, Note_on_c, 0, 73, 90
2, 330510, Note_on_c, 0, 69, 90
2, 330532, Note_on_c, 0, 69, 0
2, 330536, Note_on_c, 0, 66, 0
2, 330545, Note_on_c, 0, 57, 0
2, 330664, Note_on_c, 0, 73, 0
2, 330683, Note_on_c, 0, 81, 0
2, 330685, Note_on_c, 0, 85, 0
2, 330698, Control_c, 0, 64, 0
2, 330726, Note_on_c, 0, 85, 86
2, 330728, Note_on_c, 0, 76, 87
2, 330728, Note_on_c, 0, 88, 90
2, 330739, Note_on_c, 0, 42, 80
2, 330743, Note_on_c, 0, 30, 80
2, 330786, Control_c, 0, 64, 127
2, 330802, Note_on_c, 0, 88, 0
2, 330802, Note_on_c, 0, 85, 0
2, 330806, Note_on_c, 0, 76, 0
2, 330806, Note_on_c, 0, 42, 0
2, 330808, Note_on_c, 0, 30, 0
2, 330942, Note_on_c, 0, 66, 79
2, 330942, Note_on_c, 0, 69, 81
2, 330944, Note_on_c, 0, 57, 80
2, 330957, Note_on_c, 0, 57, 0
2, 330957, Note_on_c, 0, 69, 0
2, 330959, Note_on_c, 0, 66, 0
2, 330979, Note_on_c, 0, 57, 83
2, 330979, Note_on_c, 0, 66, 80
2, 330979, Note_on_c, 0, 69, 80
2, 331015, Note_on_c, 0, 69, 0
2, 331026, Note_on_c, 0, 66, 0
2, 331026, Note_on_c, 0, 57, 0
2, 331142, Note_on_c, 0, 57, 80
2, 331142, Note_on_c, 0, 71, 82
2, 331142, Note_on_c, 0, 74, 81
2, 331142, Note_on_c, 0, 83, 84
2, 331151, Note_on_c, 0, 66, 80
2, 331151, Note_on_c, 0, 69, 82
2, 331169, Note_on_c, 0, 66, 0
2, 331179, Note_on_c, 0, 69, 0
2, 331181, Note_on_c, 0, 57, 0
2, 331266, Note_on_c, 0, 83, 0
2, 331266, Note_on_c, 0, 74, 0
2, 331288, Control_c, 0, 64, 0
2, 331314, Note_on_c, 0, 71, 0
2, 331314, Note_on_c, 0, 83, 88
2, 331314, Note_on_c, 0, 86, 89
2, 331318, Note_on_c, 0, 74, 88
2, 331330, Note_on_c, 0, 28, 80
2, 331330, Note_on_c, 0, 40, 80
2, 331373, Control_c, 0, 64, 127
2, 331399, Note_on_c, 0, 40, 0
2, 331399, Note_on_c, 0, 74, 0
2, 331399, Note_on_c, 0, 83, 0
2, 331401, Note_on_c, 0, 86, 0
2, 331403, Note_on_c, 0, 28, 0
2, 331488, Note_on_c, 0, 55, 80
2, 331488, Note_on_c, 0, 62, 80
2, 331488, Note_on_c, 0, 67, 80
2, 331504, Note_on_c, 0, 67, 0
2, 331504, Note_on_c, 0, 62, 0
2, 331504, Note_on_c, 0, 55, 0
2, 331535, Note_on_c, 0, 55, 79
2, 331535, Note_on_c, 0, 62, 80
2, 331537, Note_on_c, 0, 67, 80
2, 331571, Note_on_c, 0, 62, 0
2, 331580, Note_on_c, 0, 67, 0
2, 331592, Note_on_c, 0, 55, 0
2, 331671, Note_on_c, 0, 55, 80
2, 331671, Note_on_c, 0, 62, 80
2, 331671, Note_on_c, 0, 74, 82
2, 331671, Note_on_c, 0, 79, 81
2, 331672, Note_on_c, 0, 67, 81
2, 331704, Note_on_c, 0, 74, 0
2, 331706, Note_on_c, 0, 67, 0
2, 331706, Note_on_c, 0, 62, 0
2, 331714, Note_on_c, 0, 55, 0
2, 331721, Note_on_c, 0, 79, 0
2, 331763, Control_c, 0, 64, 0
2, 331812, Note_on_c, 0, 33, 74
2, 331812, Note_on_c, 0, 85, 93
2, 331812, Note_on_c, 0, 97, 97
2, 331814, Note_on_c, 0, 45, 73
2, 331847, Note_on_c, 0, 97, 0
2, 331847, Note_on_c, 0, 85, 0
2, 331853, Note_on_c, 0, 98, 91
2, 331887, Note_on_c, 0, 98, 0
2, 331888, Control_c, 0, 64, 127
2, 331888, Note_on_c, 0, 85, 93
2, 331890, Note_on_c, 0, 97, 97
2, 331920, Note_on_c, 0, 85, 0
2, 331922, Note_on_c, 0, 33, 0
2, 331930, Note_on_c, 0, 97, 0
2, 331932, Note_on_c, 0, 45, 0
2, 331941, Note_on_c, 0, 84, 96
2, 331941, Note_on_c, 0, 96, 97
2, 331955, Note_on_c, 0, 55, 73
2, 331955, Note_on_c, 0, 61, 73
2, 331955, Note_on_c, 0, 64, 95
2, 331957, Note_on_c, 0, 57, 72
2, 331984, Note_on_c, 0, 84, 0
2, 331996, Note_on_c, 0, 64, 0
2, 331996, Note_on_c, 0, 96, 0
2, 332002, Note_on_c, 0, 55, 0
2, 332011, Note_on_c, 0, 57, 0
2, 332023, Note_on_c, 0, 61, 0
2, 332108, Note_on_c, 0, 85, 86
2, 332108, Note_on_c, 0, 97, 104
2, 332110, Note_on_c, 0, 57, 73
2, 332110, Note_on_c, 0, 61, 73
2, 332110, Note_on_c, 0, 64, 98
2, 332110, Note_on_c, 0, 67, 97
2, 332124, Note_on_c, 0, 64, 0
2, 332131, Note_on_c, 0, 67, 0
2, 332133, Note_on_c, 0, 85, 0
2, 332133, Note_on_c, 0, 97, 0
2, 332143, Note_on_c, 0, 57, 0
2, 332143, Note_on_c, 0, 61, 0
2, 332216, Control_c, 0, 64, 0
2, 332240, Note_on_c, 0, 91, 100
2, 332242, Note_on_c, 0, 79, 99
2, 332249, Note_on_c, 0, 86, 101
2, 332251, Note_on_c, 0, 35, 80
2, 332251, Note_on_c, 0, 47, 80
2, 332295, Control_c, 0, 64, 127
2, 332319, Note_on_c, 0, 47, 0
2, 332319, Note_on_c, 0, 86, 0
2, 332319, Note_on_c, 0, 91, 0
2, 332322, Note_on_c, 0, 35, 0
2, 332328, Note_on_c, 0, 79, 0
2, 332417, Note_on_c, 0, 55, 80
2, 332417, Note_on_c, 0, 62, 80
2, 332417, Note_on_c, 0, 67, 80
2, 332433, Note_on_c, 0, 62, 0
2, 332437, Note_on_c, 0, 67, 0
2, 332437, Note_on_c, 0, 55, 0
2, 332455, Note_on_c, 0, 67, 79
2, 332457, Note_on_c, 0, 55, 83
2, 332457, Note_on_c, 0, 62, 84
2, 332524, Note_on_c, 0, 67, 0
2, 332534, Note_on_c, 0, 62, 0
2, 332536, Note_on_c, 0, 55, 0
2, 332591, Note_on_c, 0, 55, 80
2, 332591, Note_on_c, 0, 62, 80
2, 332591, Note_on_c, 0, 74, 82
2, 332591, Note_on_c, 0, 86, 83
2, 332595, Note_on_c, 0, 79, 82
2, 332601, Note_on_c, 0, 67, 81
2, 332631, Note_on_c, 0, 67, 0
2, 332631, Note_on_c, 0, 62, 0
2, 332640, Note_on_c, 0, 55, 0
2, 332668, Note_on_c, 0, 74, 0
2, 332678, Note_on_c, 0, 79, 0
2, 332721, Note_on_c, 0, 86, 0
2, 332723, Control_c, 0, 64, 0
2, 332743, Note_on_c, 0, 33, 80
2, 332769, Note_on_c, 0, 90, 94
2, 332771, Note_on_c, 0, 85, 96
2, 332773, Note_on_c, 0, 78, 95
2, 332782, Note_on_c, 0, 45, 80
2, 332827, Control_c, 0, 64, 127
2, 332846, Note_on_c, 0, 78, 0
2, 332846, Note_on_c, 0, 85, 0
2, 332846, Note_on_c, 0, 90, 0
2, 332848, Note_on_c, 0, 33, 0
2, 332848, Note_on_c, 0, 45, 0
2, 332928, Note_on_c, 0, 55, 79
2, 332928, Note_on_c, 0, 57, 80
2, 332928, Note_on_c, 0, 67, 80
2, 332928, Note_on_c, 0, 69, 80
2, 332938, Note_on_c, 0, 61, 79
2, 332942, Note_on_c, 0, 69, 0
2, 332944, Note_on_c, 0, 67, 0
2, 332944, Note_on_c, 0, 55, 0
2, 332944, Note_on_c, 0, 57, 0
2, 332953, Note_on_c, 0, 61, 0
2, 332965, Note_on_c, 0, 55, 81
2, 332965, Note_on_c, 0, 67, 80
2, 332965, Note_on_c, 0, 69, 80
2, 332972, Note_on_c, 0, 57, 82
2, 332974, Note_on_c, 0, 61, 83
2, 333061, Note_on_c, 0, 57, 0
2, 333061, Note_on_c, 0, 55, 0
2, 333063, Note_on_c, 0, 67, 0
2, 333063, Note_on_c, 0, 69, 0
2, 333090, Note_on_c, 0, 61, 0
2, 333134, Note_on_c, 0, 73, 81
2, 333134, Note_on_c, 0, 85, 84
2, 333136, Note_on_c, 0, 55, 80
2, 333136, Note_on_c, 0, 61, 80
2, 333136, Note_on_c, 0, 69, 82
2, 333136, Note_on_c, 0, 76, 81
2, 333145, Note_on_c, 0, 67, 81
2, 333160, Note_on_c, 0, 67, 0
2, 333170, Note_on_c, 0, 61, 0
2, 333170, Note_on_c, 0, 69, 0
2, 333182, Note_on_c, 0, 55, 0
2, 333229, Note_on_c, 0, 76, 0
2, 333249, Note_on_c, 0, 73, 0
2, 333271, Note_on_c, 0, 85, 0
2, 333295, Control_c, 0, 64, 0
2, 333342, Note_on_c, 0, 76, 87
2, 333342, Note_on_c, 0, 85, 93
2, 333344, Note_on_c, 0, 88, 94
2, 333355, Note_on_c, 0, 26, 80
2, 333355, Note_on_c, 0, 38, 80
2, 333421, Control_c, 0, 64, 127
2, 333447, Note_on_c, 0, 76, 0
2, 333448, Note_on_c, 0, 85, 0
2, 333448, Note_on_c, 0, 88, 0
2, 333450, Note_on_c, 0, 38, 0
2, 333454, Note_on_c, 0, 26, 0
2, 333547, Note_on_c, 0, 66, 80
2, 333551, Note_on_c, 0, 57, 80
2, 333551, Note_on_c, 0, 69, 81
2, 333567, Note_on_c, 0, 57, 0
2, 333567, Note_on_c, 0, 66, 0
2, 333574, Note_on_c, 0, 69, 0
2, 333588, Note_on_c, 0, 66, 80
2, 333590, Note_on_c, 0, 54, 84
2, 333590, Note_on_c, 0, 62, 85
2, 333664, Note_on_c, 0, 66, 0
2, 333672, Note_on_c, 0, 62, 0
2, 333672, Note_on_c, 0, 54, 0
2, 333721, Note_on_c, 0, 66, 80
2, 333723, Note_on_c, 0, 54, 80
2, 333723, Note_on_c, 0, 69, 82
2, 333723, Note_on_c, 0, 78, 81
2, 333723, Note_on_c, 0, 81, 84
2, 333735, Note_on_c, 0, 62, 80
2, 333748, Note_on_c, 0, 78, 0
2, 333750, Note_on_c, 0, 69, 0
2, 333758, Note_on_c, 0, 81, 0
2, 333758, Note_on_c, 0, 66, 0
2, 333758, Note_on_c, 0, 62, 0
2, 333758, Note_on_c, 0, 54, 0
2, 333860, Note_on_c, 0, 66, 81
2, 333864, Note_on_c, 0, 98, 87
2, 333892, Note_on_c, 0, 98, 0
2, 333896, Note_on_c, 0, 100, 83
2, 333907, Note_on_c, 0, 69, 77
2, 333915, Note_on_c, 0, 66, 0
2, 333923, Note_on_c, 0, 100, 0
2, 333923, Note_on_c, 0, 98, 84
2, 333934, Note_on_c, 0, 74, 81
2, 333952, Note_on_c, 0, 69, 0
2, 333959, Note_on_c, 0, 98, 0
2, 333969, Note_on_c, 0, 74, 0
2, 333993, Note_on_c, 0, 73, 79
2, 333993, Note_on_c, 0, 85, 83
2, 333993, Note_on_c, 0, 97, 87
2, 334046, Note_on_c, 0, 85, 0
2, 334051, Note_on_c, 0, 97, 0
2, 334077, Note_on_c, 0, 73, 0
2, 334126, Note_on_c, 0, 98, 87
2, 334130, Note_on_c, 0, 74, 87
2, 334132, Note_on_c, 0, 86, 90
2, 334166, Note_on_c, 0, 74, 0
2, 334166, Note_on_c, 0, 98, 0
2, 334173, Note_on_c, 0, 86, 0
2, 334258, Control_c, 0, 64, 0
2, 334295, Note_on_c, 0, 86, 100
2, 334295, Note_on_c, 0, 90, 101
2, 334297, Note_on_c, 0, 78, 98
2, 334311, Note_on_c, 0, 26, 80
2, 334311, Note_on_c, 0, 38, 80
2, 334376, Control_c, 0, 64, 127
2, 334402, Note_on_c, 0, 78, 0
2, 334402, Note_on_c, 0, 90, 0
2, 334404, Note_on_c, 0, 86, 0
2, 334413, Note_on_c, 0, 38, 0
2, 334417, Note_on_c, 0, 26, 0
2, 334477, Note_on_c, 0, 57, 80
2, 334477, Note_on_c, 0, 66, 80
2, 334477, Note_on_c, 0, 69, 80
2, 334492, Note_on_c, 0, 69, 0
2, 334492, Note_on_c, 0, 66, 0
2, 334492, Note_on_c, 0, 57, 0
2, 334514, Note_on_c, 0, 57, 83
2, 334514, Note_on_c, 0, 66, 80
2, 334514, Note_on_c, 0, 69, 80
2, 334569, Note_on_c, 0, 69, 0
2, 334582, Note_on_c, 0, 66, 0
2, 334600, Note_on_c, 0, 57, 0
2, 334667, Note_on_c, 0, 81, 83
2, 334669, Note_on_c, 0, 73, 82
2, 334669, Note_on_c, 0, 85, 84
2, 334671, Note_on_c, 0, 66, 80
2, 334671, Note_on_c, 0, 69, 82
2, 334674, Note_on_c, 0, 57, 80
2, 334698, Note_on_c, 0, 69, 0
2, 334698, Note_on_c, 0, 66, 0
2, 334704, Note_on_c, 0, 57, 0
2, 334771, Note_on_c, 0, 73, 0
2, 334781, Note_on_c, 0, 81, 0
2, 334785, Note_on_c, 0, 85, 0
2, 334802, Control_c, 0, 64, 0
2, 334828, Note_on_c, 0, 85, 86
2, 334828, Note_on_c, 0, 88, 88
2, 334830, Note_on_c, 0, 76, 87
2, 334841, Note_on_c, 0, 42, 80
2, 334843, Note_on_c, 0, 30, 80
2, 334887, Control_c, 0, 64, 127
2, 334912, Note_on_c, 0, 88, 0
2, 334912, Note_on_c, 0, 85, 0
2, 334914, Note_on_c, 0, 76, 0
2, 334922, Note_on_c, 0, 42, 0
2, 334924, Note_on_c, 0, 30, 0
2, 334999, Note_on_c, 0, 57, 80
2, 334999, Note_on_c, 0, 66, 80
2, 334999, Note_on_c, 0, 69, 80
2, 335019, Note_on_c, 0, 69, 0
2, 335019, Note_on_c, 0, 66, 0
2, 335019, Note_on_c, 0, 57, 0
2, 335041, Note_on_c, 0, 57, 83
2, 335041, Note_on_c, 0, 66, 80
2, 335041, Note_on_c, 0, 69, 80
2, 335101, Note_on_c, 0, 69, 0
2, 335101, Note_on_c, 0, 66, 0
2, 335108, Note_on_c, 0, 57, 0
2, 335199, Note_on_c, 0, 57, 80
2, 335199, Note_on_c, 0, 66, 81
2, 335199, Note_on_c, 0, 69, 81
2, 335199, Note_on_c, 0, 74, 82
2, 335199, Note_on_c, 0, 83, 83
2, 335200, Note_on_c, 0, 71, 82
2, 335226, Note_on_c, 0, 66, 0
2, 335236, Note_on_c, 0, 69, 0
2, 335238, Note_on_c, 0, 57, 0
2, 335315, Note_on_c, 0, 83, 0
2, 335317, Note_on_c, 0, 74, 0
2, 335322, Control_c, 0, 64, 0
2, 335336, Note_on_c, 0, 71, 0
2, 335368, Note_on_c, 0, 74, 83
2, 335368, Note_on_c, 0, 86, 87
2, 335377, Note_on_c, 0, 83, 88
2, 335383, Note_on_c, 0, 28, 80
2, 335383, Note_on_c, 0, 40, 80
2, 335426, Control_c, 0, 64, 127
2, 335454, Note_on_c, 0, 40, 0
2, 335454, Note_on_c, 0, 74, 0
2, 335454, Note_on_c, 0, 83, 0
2, 335454, Note_on_c, 0, 86, 0
2, 335458, Note_on_c, 0, 28, 0
2, 335544, Note_on_c, 0, 55, 80
2, 335544, Note_on_c, 0, 62, 80
2, 335544, Note_on_c, 0, 67, 80
2, 335561, Note_on_c, 0, 67, 0
2, 335561, Note_on_c, 0, 62, 0
2, 335565, Note_on_c, 0, 55, 0
2, 335583, Note_on_c, 0, 55, 82
2, 335583, Note_on_c, 0, 62, 84
2, 335583, Note_on_c, 0, 67, 80
2, 335633, Note_on_c, 0, 67, 0
2, 335641, Note_on_c, 0, 62, 0
2, 335643, Note_on_c, 0, 55, 0
2, 335724, Note_on_c, 0, 55, 80
2, 335724, Note_on_c, 0, 67, 81
2, 335724, Note_on_c, 0, 74, 81
2, 335724, Note_on_c, 0, 79, 82
2, 335735, Note_on_c, 0, 62, 80
2, 335759, Note_on_c, 0, 74, 0
2, 335759, Note_on_c, 0, 67, 0
2, 335761, Note_on_c, 0, 62, 0
2, 335761, Note_on_c, 0, 55, 0
2, 335771, Note_on_c, 0, 79, 0
2, 335834, Control_c, 0, 64, 0
2, 335862, Note_on_c, 0, 85, 93
2, 335864, Note_on_c, 0, 97, 98
2, 335875, Note_on_c, 0, 33, 77
2, 335875, Note_on_c, 0, 45, 76
2, 335887, Note_on_c, 0, 85, 0
2, 335889, Note_on_c, 0, 98, 93
2, 335891, Note_on_c, 0, 97, 0
2, 335926, Note_on_c, 0, 98, 0
2, 335928, Note_on_c, 0, 85, 94
2, 335928, Note_on_c, 0, 97, 98
2, 335940, Control_c, 0, 64, 127
2, 335962, Note_on_c, 0, 85, 0
2, 335964, Note_on_c, 0, 97, 0
2, 335964, Note_on_c, 0, 45, 0
2, 335966, Note_on_c, 0, 33, 0
2, 335992, Note_on_c, 0, 84, 93
2, 335992, Note_on_c, 0, 96, 95
2, 335993, Note_on_c, 0, 57, 73
2, 335993, Note_on_c, 0, 61, 73
2, 335995, Note_on_c, 0, 55, 72
2, 335995, Note_on_c, 0, 64, 93
2, 336031, Note_on_c, 0, 84, 0
2, 336039, Note_on_c, 0, 96, 0
2, 336039, Note_on_c, 0, 64, 0
2, 336040, Note_on_c, 0, 55, 0
2, 336050, Note_on_c, 0, 57, 0
2, 336060, Note_on_c, 0, 61, 0
2, 336129, Note_on_c, 0, 57, 73
2, 336129, Note_on_c, 0, 64, 81
2, 336129, Note_on_c, 0, 67, 80
2, 336129, Note_on_c, 0, 85, 84
2, 336129, Note_on_c, 0, 97, 86
2, 336138, Note_on_c, 0, 61, 73
2, 336156, Note_on_c, 0, 64, 0
2, 336165, Note_on_c, 0, 57, 0
2, 336165, Note_on_c, 0, 67, 0
2, 336173, Note_on_c, 0, 61, 0
2, 336175, Note_on_c, 0, 97, 0
2, 336175, Note_on_c, 0, 85, 0
2, 336248, Control_c, 0, 64, 0
2, 336293, Note_on_c, 0, 83, 95
2, 336293, Note_on_c, 0, 86, 98
2, 336293, Note_on_c, 0, 90, 99
2, 336293, Note_on_c, 0, 95, 100
2, 336312, Note_on_c, 0, 30, 80
2, 336312, Note_on_c, 0, 42, 80
2, 336367, Control_c, 0, 64, 127
2, 336378, Note_on_c, 0, 95, 0
2, 336380, Note_on_c, 0, 83, 0
2, 336384, Note_on_c, 0, 90, 0
2, 336390, Note_on_c, 0, 30, 0
2, 336392, Note_on_c, 0, 42, 0
2, 336392, Note_on_c, 0, 86, 0
2, 336488, Note_on_c, 0, 62, 80
2, 336492, Note_on_c, 0, 57, 80
2, 336492, Note_on_c, 0, 69, 81
2, 336507, Note_on_c, 0, 69, 0
2, 336507, Note_on_c, 0, 57, 0
2, 336507, Note_on_c, 0, 62, 0
2, 336526, Note_on_c, 0, 57, 82
2, 336528, Note_on_c, 0, 62, 84
2, 336528, Note_on_c, 0, 69, 81
2, 336556, Note_on_c, 0, 62, 0
2, 336558, Note_on_c, 0, 57, 0
2, 336566, Note_on_c, 0, 69, 0
2, 336695, Note_on_c, 0, 81, 83
2, 336695, Note_on_c, 0, 86, 84
2, 336697, Note_on_c, 0, 69, 81
2, 336697, Note_on_c, 0, 93, 84
2, 336699, Note_on_c, 0, 57, 80
2, 336699, Note_on_c, 0, 62, 80
2, 336731, Note_on_c, 0, 69, 0
2, 336733, Note_on_c, 0, 57, 0
2, 336733, Note_on_c, 0, 62, 0
2, 336821, Note_on_c, 0, 81, 0
2, 336821, Note_on_c, 0, 93, 0
2, 336821, Note_on_c, 0, 86, 0
2, 336823, Control_c, 0, 64, 0
2, 336880, Note_on_c, 0, 95, 84
2, 336881, Note_on_c, 0, 83, 95
2, 336881, Note_on_c, 0, 87, 96
2, 336881, Note_on_c, 0, 93, 97
2, 336887, Note_on_c, 0, 29, 80
2, 336895, Note_on_c, 0, 41, 80
2, 336932, Control_c, 0, 64, 127
2, 336944, Note_on_c, 0, 87, 0
2, 336950, Note_on_c, 0, 83, 0
2, 336950, Note_on_c, 0, 41, 0
2, 336952, Note_on_c, 0, 29, 0
2, 336955, Note_on_c, 0, 93, 0
2, 336955, Note_on_c, 0, 95, 0
2, 337075, Note_on_c, 0, 71, 80
2, 337077, Note_on_c, 0, 59, 80
2, 337077, Note_on_c, 0, 63, 80
2, 337093, Note_on_c, 0, 63, 0
2, 337100, Note_on_c, 0, 59, 0
2, 337100, Note_on_c, 0, 71, 0
2, 337104, Note_on_c, 0, 69, 80
2, 337108, Note_on_c, 0, 57, 83
2, 337118, Note_on_c, 0, 63, 84
2, 337140, Note_on_c, 0, 63, 0
2, 337140, Note_on_c, 0, 57, 0
2, 337140, Note_on_c, 0, 69, 0
2, 337311, Note_on_c, 0, 93, 85
2, 337312, Note_on_c, 0, 81, 115
2, 337312, Note_on_c, 0, 87, 115
2, 337316, Note_on_c, 0, 57, 80
2, 337316, Note_on_c, 0, 59, 80
2, 337316, Note_on_c, 0, 69, 113
2, 337324, Note_on_c, 0, 83, 114
2, 337326, Note_on_c, 0, 63, 80
2, 337354, Note_on_c, 0, 69, 0
2, 337356, Note_on_c, 0, 57, 0
2, 337358, Note_on_c, 0, 63, 0
2, 337358, Note_on_c, 0, 59, 0
2, 337538, Note_on_c, 0, 81, 0
2, 337548, Note_on_c, 0, 83, 0
2, 337555, Note_on_c, 0, 87, 0
2, 337579, Note_on_c, 0, 93, 0
2, 337581, Control_c, 0, 64, 0
2, 337591, Note_on_c, 0, 40, 80
2, 337599, Note_on_c, 0, 52, 80
2, 337657, Note_on_c, 0, 85, 90
2, 337657, Note_on_c, 0, 91, 99
2, 337657, Note_on_c, 0, 93, 100
2, 337657, Note_on_c, 0, 97, 104
2, 337661, Control_c, 0, 64, 127
2, 337665, Note_on_c, 0, 64, 99
2, 337665, Note_on_c, 0, 67, 100
2, 337667, Note_on_c, 0, 88, 104
2, 337669, Note_on_c, 0, 57, 97
2, 337669, Note_on_c, 0, 61, 98
2, 337672, Note_on_c, 0, 52, 0
2, 337672, Note_on_c, 0, 40, 0
2, 337678, Note_on_c, 0, 64, 0
2, 337686, Note_on_c, 0, 67, 0
2, 337688, Note_on_c, 0, 57, 0
2, 337694, Note_on_c, 0, 61, 0
2, 337750, Note_on_c, 0, 93, 0
2, 337758, Note_on_c, 0, 97, 0
2, 337766, Note_on_c, 0, 91, 0
2, 337766, Note_on_c, 0, 88, 0
2, 337768, Note_on_c, 0, 85, 0
2, 337826, Note_on_c, 0, 81, 84
2, 337826, Note_on_c, 0, 93, 84
2, 337856, Control_c, 0, 64, 0
2, 337864, Note_on_c, 0, 93, 0
2, 337864, Note_on_c, 0, 81, 0
2, 337914, Note_on_c, 0, 95, 85
2, 337916, Note_on_c, 0, 83, 91
2, 337954, Note_on_c, 0, 95, 0
2, 337956, Note_on_c, 0, 83, 0
2, 338023, Note_on_c, 0, 96, 89
2, 338025, Note_on_c, 0, 93, 97
2, 338029, Control_c, 0, 64, 127
2, 338029, Note_on_c, 0, 84, 98
2, 338034, Note_on_c, 0, 91, 99
2, 338036, Note_on_c, 0, 64, 97
2, 338036, Note_on_c, 0, 67, 98
2, 338040, Note_on_c, 0, 57, 80
2, 338046, Note_on_c, 0, 61, 80
2, 338061, Note_on_c, 0, 91, 0
2, 338061, Note_on_c, 0, 84, 0
2, 338061, Note_on_c, 0, 93, 0
2, 338063, Note_on_c, 0, 64, 0
2, 338063, Note_on_c, 0, 67, 0
2, 338069, Note_on_c, 0, 96, 0
2, 338079, Note_on_c, 0, 61, 0
2, 338084, Note_on_c, 0, 57, 0
2, 338143, Note_on_c, 0, 85, 89
2, 338143, Note_on_c, 0, 97, 89
2, 338169, Note_on_c, 0, 85, 0
2, 338178, Note_on_c, 0, 97, 0
2, 338192, Control_c, 0, 64, 0
2, 338224, Note_on_c, 0, 38, 80
2, 338241, Note_on_c, 0, 50, 80
2, 338288, Control_c, 0, 64, 127
2, 338305, Note_on_c, 0, 50, 0
2, 338305, Note_on_c, 0, 90, 101
2, 338305, Note_on_c, 0, 93, 100
2, 338305, Note_on_c, 0, 98, 104
2, 338307, Note_on_c, 0, 54, 88
2, 338307, Note_on_c, 0, 57, 89
2, 338307, Note_on_c, 0, 62, 90
2, 338307, Note_on_c, 0, 86, 101
2, 338309, Note_on_c, 0, 38, 0
2, 338330, Note_on_c, 0, 93, 0
2, 338332, Note_on_c, 0, 62, 0
2, 338336, Note_on_c, 0, 86, 0
2, 338336, Note_on_c, 0, 90, 0
2, 338336, Note_on_c, 0, 57, 0
2, 338342, Note_on_c, 0, 98, 0
2, 338344, Note_on_c, 0, 54, 0
2, 338748, Control_c, 0, 64, 0
2, 338785, Note_on_c, 0, 74, 46
2, 338785, Note_on_c, 0, 86, 49
2, 338981, Control_c, 0, 64, 127
2, 339028, Note_on_c, 0, 74, 0
2, 339038, Note_on_c, 0, 86, 0
2, 339233, Control_c, 0, 64, 0
2, 339277, Note_on_c, 0, 75, 74
2, 339277, Note_on_c, 0, 87, 76
2, 339457, Control_c, 0, 64, 127
2, 339471, Control_c, 0, 67, 127
2, 339559, Note_on_c, 0, 75, 0
2, 339657, Note_on_c, 0, 76, 54
2, 339681, Note_on_c, 0, 87, 0
2, 339707, Control_c, 0, 64, 0
2, 339754, Note_on_c, 0, 88, 65
2, 339756, Note_on_c, 0, 42, 57
2, 339765, Note_on_c, 0, 54, 58
2, 339808, Control_c, 0, 64, 127
2, 339834, Note_on_c, 0, 88, 0
2, 339838, Note_on_c, 0, 42, 0
2, 339846, Note_on_c, 0, 54, 0
2, 339946, Note_on_c, 0, 54, 58
2, 339955, Note_on_c, 0, 57, 58
2, 339965, Note_on_c, 0, 59, 58
2, 339993, Note_on_c, 0, 63, 58
2, 340051, Note_on_c, 0, 63, 0
2, 340051, Note_on_c, 0, 59, 0
2, 340061, Note_on_c, 0, 57, 0
2, 340061, Note_on_c, 0, 54, 0
2, 340069, Note_on_c, 0, 76, 0
2, 340123, Note_on_c, 0, 54, 58
2, 340125, Control_c, 0, 64, 0
2, 340133, Note_on_c, 0, 57, 58
2, 340141, Note_on_c, 0, 60, 58
2, 340150, Note_on_c, 0, 69, 59
2, 340171, Note_on_c, 0, 64, 60
2, 340199, Note_on_c, 0, 76, 59
2, 340227, Note_on_c, 0, 81, 64
2, 340239, Control_c, 0, 64, 127
2, 340258, Note_on_c, 0, 64, 0
2, 340265, Note_on_c, 0, 60, 0
2, 340265, Note_on_c, 0, 54, 0
2, 340265, Note_on_c, 0, 57, 0
2, 340371, Note_on_c, 0, 50, 58
2, 340377, Note_on_c, 0, 38, 58
2, 340435, Note_on_c, 0, 76, 0
2, 340437, Note_on_c, 0, 50, 0
2, 340437, Note_on_c, 0, 69, 0
2, 340437, Note_on_c, 0, 38, 0
2, 340445, Note_on_c, 0, 81, 0
2, 340569, Note_on_c, 0, 60, 58
2, 340569, Note_on_c, 0, 71, 72
2, 340569, Note_on_c, 0, 83, 73
2, 340571, Note_on_c, 0, 57, 58
2, 340571, Note_on_c, 0, 66, 71
2, 340580, Note_on_c, 0, 76, 71
2, 340667, Note_on_c, 0, 66, 0
2, 340682, Note_on_c, 0, 60, 0
2, 340692, Note_on_c, 0, 83, 0
2, 340692, Note_on_c, 0, 76, 0
2, 340705, Note_on_c, 0, 57, 0
2, 340720, Note_on_c, 0, 71, 0
2, 340750, Note_on_c, 0, 84, 64
2, 340754, Note_on_c, 0, 54, 58
2, 340754, Note_on_c, 0, 60, 58
2, 340754, Note_on_c, 0, 64, 64
2, 340756, Note_on_c, 0, 72, 66
2, 340764, Note_on_c, 0, 78, 67
2, 340792, Note_on_c, 0, 64, 0
2, 340792, Note_on_c, 0, 60, 0
2, 340801, Note_on_c, 0, 54, 0
2, 340846, Note_on_c, 0, 78, 0
2, 340846, Note_on_c, 0, 72, 0
2, 340858, Note_on_c, 0, 84, 0
2, 340871, Control_c, 0, 64, 0
2, 340901, Note_on_c, 0, 35, 62
2, 340918, Note_on_c, 0, 74, 64
2, 340918, Note_on_c, 0, 79, 64
2, 340918, Note_on_c, 0, 86, 65
2, 340928, Note_on_c, 0, 47, 62
2, 340967, Control_c, 0, 64, 127
2, 340984, Note_on_c, 0, 47, 0
2, 340988, Note_on_c, 0, 35, 0
2, 341002, Note_on_c, 0, 74, 0
2, 341015, Note_on_c, 0, 79, 0
2, 341015, Note_on_c, 0, 86, 0
2, 341047, Note_on_c, 0, 55, 62
2, 341058, Note_on_c, 0, 59, 62
2, 341064, Note_on_c, 0, 61, 62
2, 341085, Note_on_c, 0, 63, 62
2, 341134, Note_on_c, 0, 63, 0
2, 341134, Note_on_c, 0, 55, 0
2, 341142, Note_on_c, 0, 61, 0
2, 341142, Note_on_c, 0, 59, 0
2, 341163, Control_c, 0, 64, 0
2, 341182, Note_on_c, 0, 55, 62
2, 341194, Note_on_c, 0, 59, 62
2, 341201, Note_on_c, 0, 62, 62
2, 341213, Note_on_c, 0, 64, 63
2, 341219, Note_on_c, 0, 74, 64
2, 341221, Note_on_c, 0, 67, 63
2, 341221, Note_on_c, 0, 79, 64
2, 341277, Control_c, 0, 64, 127
2, 341295, Note_on_c, 0, 62, 0
2, 341304, Note_on_c, 0, 64, 0
2, 341304, Note_on_c, 0, 59, 0
2, 341306, Note_on_c, 0, 55, 0
2, 341368, Note_on_c, 0, 40, 62
2, 341368, Note_on_c, 0, 52, 59
2, 341414, Note_on_c, 0, 52, 0
2, 341416, Note_on_c, 0, 40, 0
2, 341443, Note_on_c, 0, 67, 0
2, 341461, Note_on_c, 0, 74, 0
2, 341482, Note_on_c, 0, 79, 0
2, 341523, Note_on_c, 0, 55, 58
2, 341525, Note_on_c, 0, 59, 58
2, 341531, Note_on_c, 0, 62, 58
2, 341540, Note_on_c, 0, 76, 64
2, 341540, Note_on_c, 0, 81, 66
2, 341542, Note_on_c, 0, 64, 62
2, 341542, Note_on_c, 0, 69, 64
2, 341638, Note_on_c, 0, 55, 0
2, 341646, Note_on_c, 0, 64, 0
2, 341646, Note_on_c, 0, 62, 0
2, 341648, Note_on_c, 0, 59, 0
2, 341661, Note_on_c, 0, 76, 0
2, 341663, Note_on_c, 0, 69, 0
2, 341680, Note_on_c, 0, 81, 0
2, 341708, Note_on_c, 0, 59, 58
2, 341712, Note_on_c, 0, 62, 58
2, 341726, Note_on_c, 0, 67, 63
2, 341731, Note_on_c, 0, 78, 65
2, 341731, Note_on_c, 0, 83, 68
2, 341733, Note_on_c, 0, 71, 67
2, 341771, Note_on_c, 0, 67, 0
2, 341773, Note_on_c, 0, 59, 0
2, 341773, Note_on_c, 0, 62, 0
2, 341839, Note_on_c, 0, 83, 0
2, 341848, Note_on_c, 0, 78, 0
2, 341852, Control_c, 0, 64, 0
2, 341868, Note_on_c, 0, 71, 0
2, 341879, Note_on_c, 0, 33, 62
2, 341887, Note_on_c, 0, 76, 64
2, 341887, Note_on_c, 0, 84, 66
2, 341893, Note_on_c, 0, 72, 63
2, 341895, Note_on_c, 0, 45, 62
2, 341949, Control_c, 0, 64, 127
2, 341967, Note_on_c, 0, 45, 0
2, 341967, Note_on_c, 0, 33, 0
2, 341994, Note_on_c, 0, 72, 0
2, 341994, Note_on_c, 0, 84, 0
2, 342002, Note_on_c, 0, 76, 0
2, 342027, Note_on_c, 0, 52, 62
2, 342039, Note_on_c, 0, 59, 62
2, 342052, Note_on_c, 0, 60, 62
2, 342054, Note_on_c, 0, 63, 62
2, 342120, Note_on_c, 0, 52, 0
2, 342132, Note_on_c, 0, 59, 0
2, 342132, Note_on_c, 0, 60, 0
2, 342132, Note_on_c, 0, 63, 0
2, 342155, Note_on_c, 0, 57, 62
2, 342176, Note_on_c, 0, 60, 62
2, 342195, Note_on_c, 0, 64, 70
2, 342197, Note_on_c, 0, 67, 71
2, 342197, Note_on_c, 0, 72, 72
2, 342197, Note_on_c, 0, 76, 71
2, 342207, Note_on_c, 0, 71, 72
2, 342257, Note_on_c, 0, 60, 0
2, 342259, Note_on_c, 0, 57, 0
2, 342267, Note_on_c, 0, 67, 0
2, 342269, Note_on_c, 0, 64, 0
2, 342284, Note_on_c, 0, 71, 0
2, 342284, Note_on_c, 0, 72, 0
2, 342284, Note_on_c, 0, 76, 0
2, 342307, Control_c, 0, 64, 0
2, 342354, Note_on_c, 0, 71, 64
2, 342354, Note_on_c, 0, 76, 64
2, 342354, Note_on_c, 0, 79, 63
2, 342354, Note_on_c, 0, 83, 66
2, 342356, Note_on_c, 0, 45, 62
2, 342364, Note_on_c, 0, 52, 62
2, 342364, Note_on_c, 0, 73, 64
2, 342424, Control_c, 0, 64, 127
2, 342462, Note_on_c, 0, 52, 0
2, 342462, Note_on_c, 0, 45, 0
2, 342520, Note_on_c, 0, 57, 68
2, 342530, Note_on_c, 0, 61, 63
2, 342540, Note_on_c, 0, 63, 62
2, 342557, Note_on_c, 0, 66, 77
2, 342651, Note_on_c, 0, 83, 0
2, 342670, Note_on_c, 0, 79, 0
2, 342682, Note_on_c, 0, 71, 0
2, 342691, Note_on_c, 0, 63, 0
2, 342691, Note_on_c, 0, 66, 0
2, 342691, Note_on_c, 0, 57, 0
2, 342699, Note_on_c, 0, 61, 0
2, 342718, Note_on_c, 0, 73, 0
2, 342718, Note_on_c, 0, 76, 0
2, 342732, Note_on_c, 0, 57, 58
2, 342734, Control_c, 0, 64, 0
2, 342741, Note_on_c, 0, 61, 58
2, 342751, Note_on_c, 0, 64, 58
2, 342760, Note_on_c, 0, 67, 60
2, 342778, Note_on_c, 0, 71, 62
2, 342778, Note_on_c, 0, 76, 64
2, 342778, Note_on_c, 0, 79, 65
2, 342791, Note_on_c, 0, 73, 66
2, 342831, Control_c, 0, 64, 127
2, 342850, Note_on_c, 0, 64, 0
2, 342856, Note_on_c, 0, 73, 0
2, 342856, Note_on_c, 0, 71, 0
2, 342856, Note_on_c, 0, 67, 0
2, 342856, Note_on_c, 0, 76, 0
2, 342873, Note_on_c, 0, 57, 0
2, 342873, Note_on_c, 0, 79, 0
2, 342873, Note_on_c, 0, 61, 0
2, 342943, Note_on_c, 0, 76, 61
2, 342960, Note_on_c, 0, 76, 0
2, 342985, Note_on_c, 0, 76, 61
2, 343000, Note_on_c, 0, 76, 0
2, 343024, Control_c, 0, 64, 0
2, 343033, Note_on_c, 0, 76, 68
2, 343072, Note_on_c, 0, 71, 69
2, 343072, Note_on_c, 0, 83, 74
2, 343074, Note_on_c, 0, 50, 62
2, 343080, Note_on_c, 0, 38, 62
2, 343143, Control_c, 0, 64, 127
2, 343184, Note_on_c, 0, 50, 0
2, 343192, Note_on_c, 0, 38, 0
2, 343250, Note_on_c, 0, 54, 62
2, 343260, Note_on_c, 0, 60, 62
2, 343279, Note_on_c, 0, 62, 64
2, 343316, Note_on_c, 0, 83, 0
2, 343332, Note_on_c, 0, 71, 0
2, 343347, Note_on_c, 0, 76, 0
2, 343400, Note_on_c, 0, 54, 0
2, 343409, Note_on_c, 0, 62, 0
2, 343409, Note_on_c, 0, 60, 0
2, 343466, Note_on_c, 0, 55, 61
2, 343466, Note_on_c, 0, 60, 62
2, 343474, Note_on_c, 0, 74, 79
2, 343476, Note_on_c, 0, 64, 78
2, 343476, Note_on_c, 0, 69, 79
2, 343476, Note_on_c, 0, 81, 80
2, 343599, Note_on_c, 0, 55, 0
2, 343618, Note_on_c, 0, 64, 0
2, 343624, Note_on_c, 0, 60, 0
2, 343657, Control_c, 0, 64, 0
2, 343687, Note_on_c, 0, 66, 73
2, 343689, Note_on_c, 0, 57, 62
2, 343698, Note_on_c, 0, 60, 62
2, 343786, Control_c, 0, 64, 127
2, 343833, Note_on_c, 0, 57, 0
2, 343840, Note_on_c, 0, 60, 0
2, 343842, Note_on_c, 0, 69, 0
2, 343850, Note_on_c, 0, 66, 0
2, 343850, Note_on_c, 0, 74, 0
2, 343854, Control_c, 0, 67, 0
2, 343860, Note_on_c, 0, 81, 0
2, 343895, Control_c, 0, 64, 0
2, 343916, Note_on_c, 0, 59, 65
2, 343922, Note_on_c, 0, 62, 65
2, 343932, Note_on_c, 0, 64, 65
2, 343949, Note_on_c, 0, 86, 70
2, 343951, Note_on_c, 0, 74, 70
2, 343953, Note_on_c, 0, 67, 70
2, 344083, Control_c, 0, 64, 127
2, 344150, Note_on_c, 0, 59, 0
2, 344155, Note_on_c, 0, 62, 0
2, 344167, Note_on_c, 0, 64, 0
2, 344176, Note_on_c, 0, 67, 0
2, 344184, Note_on_c, 0, 74, 0
2, 344216, Control_c, 0, 64, 0
2, 344235, Note_on_c, 0, 58, 65
2, 344245, Note_on_c, 0, 62, 65
2, 344254, Note_on_c, 0, 64, 65
2, 344266, Note_on_c, 0, 86, 0
2, 344266, Note_on_c, 0, 68, 66
2, 344272, Note_on_c, 0, 75, 66
2, 344272, Note_on_c, 0, 87, 69
2, 344293, Control_c, 0, 67, 127
2, 344457, Control_c, 0, 64, 127
2, 344533, Note_on_c, 0, 64, 0
2, 344540, Note_on_c, 0, 68, 0
2, 344540, Note_on_c, 0, 58, 0
2, 344572, Note_on_c, 0, 62, 0
2, 344597, Note_on_c, 0, 75, 0
2, 344608, Note_on_c, 0, 57, 54
2, 344618, Control_c, 0, 64, 0
2, 344637, Note_on_c, 0, 60, 54
2, 344645, Note_on_c, 0, 87, 0
2, 344656, Note_on_c, 0, 64, 54
2, 344658, Note_on_c, 0, 76, 55
2, 344678, Note_on_c, 0, 67, 56
2, 344695, Note_on_c, 0, 88, 61
2, 344742, Control_c, 0, 64, 127
2, 344767, Note_on_c, 0, 67, 0
2, 344767, Note_on_c, 0, 64, 0
2, 344767, Note_on_c, 0, 60, 0
2, 344771, Note_on_c, 0, 57, 0
2, 344775, Note_on_c, 0, 88, 0
2, 344812, Note_on_c, 0, 76, 0
2, 344859, Note_on_c, 0, 50, 54
2, 344863, Note_on_c, 0, 38, 54
2, 344894, Note_on_c, 0, 38, 0
2, 344894, Note_on_c, 0, 50, 0
2, 344997, Control_c, 0, 64, 0
2, 345007, Note_on_c, 0, 57, 58
2, 345015, Note_on_c, 0, 60, 58
2, 345036, Note_on_c, 0, 69, 71
2, 345043, Note_on_c, 0, 66, 71
2, 345053, Note_on_c, 0, 81, 74
2, 345082, Control_c, 0, 64, 127
2, 345099, Note_on_c, 0, 66, 0
2, 345111, Note_on_c, 0, 60, 0
2, 345111, Note_on_c, 0, 57, 0
2, 345181, Note_on_c, 0, 50, 57
2, 345183, Note_on_c, 0, 38, 58
2, 345216, Note_on_c, 0, 38, 0
2, 345218, Note_on_c, 0, 50, 0
2, 345261, Note_on_c, 0, 69, 0
2, 345324, Note_on_c, 0, 55, 58
2, 345333, Control_c, 0, 64, 0
2, 345351, Note_on_c, 0, 61, 58
2, 345360, Note_on_c, 0, 65, 70
2, 345368, Note_on_c, 0, 81, 0
2, 345379, Note_on_c, 0, 71, 72
2, 345379, Note_on_c, 0, 83, 74
2, 345417, Control_c, 0, 64, 127
2, 345448, Note_on_c, 0, 55, 0
2, 345465, Note_on_c, 0, 65, 0
2, 345474, Note_on_c, 0, 71, 0
2, 345474, Note_on_c, 0, 61, 0
2, 345496, Note_on_c, 0, 54, 58
2, 345515, Note_on_c, 0, 60, 58
2, 345522, Note_on_c, 0, 83, 0
2, 345524, Note_on_c, 0, 64, 65
2, 345532, Note_on_c, 0, 84, 69
2, 345536, Note_on_c, 0, 72, 68
2, 345581, Note_on_c, 0, 64, 0
2, 345581, Note_on_c, 0, 54, 0
2, 345581, Note_on_c, 0, 60, 0
2, 345598, Note_on_c, 0, 72, 0
2, 345641, Note_on_c, 0, 84, 0
2, 345641, Note_on_c, 0, 74, 60
2, 345645, Control_c, 0, 64, 0
2, 345664, Note_on_c, 0, 35, 58
2, 345664, Note_on_c, 0, 79, 59
2, 345674, Control_c, 0, 67, 0
2, 345682, Note_on_c, 0, 47, 61
2, 345682, Note_on_c, 0, 86, 68
2, 345750, Control_c, 0, 64, 127
2, 345777, Note_on_c, 0, 47, 0
2, 345781, Note_on_c, 0, 35, 0
2, 345808, Note_on_c, 0, 55, 65
2, 345808, Note_on_c, 0, 62, 65
2, 345809, Note_on_c, 0, 59, 64
2, 345817, Note_on_c, 0, 86, 0
2, 345836, Note_on_c, 0, 62, 0
2, 345836, Note_on_c, 0, 59, 0
2, 345846, Note_on_c, 0, 55, 0
2, 345865, Note_on_c, 0, 79, 0
2, 345877, Note_on_c, 0, 74, 0
2, 345939, Note_on_c, 0, 31, 65
2, 345956, Note_on_c, 0, 79, 51
2, 345958, Note_on_c, 0, 43, 65
2, 345958, Note_on_c, 0, 67, 49
2, 345987, Note_on_c, 0, 31, 0
2, 345993, Note_on_c, 0, 43, 0
2, 346053, Note_on_c, 0, 55, 65
2, 346063, Note_on_c, 0, 67, 0
2, 346074, Note_on_c, 0, 59, 65
2, 346092, Control_c, 0, 64, 0
2, 346133, Note_on_c, 0, 71, 71
2, 346135, Note_on_c, 0, 61, 65
2, 346192, Control_c, 0, 64, 127
2, 346207, Note_on_c, 0, 79, 0
2, 346277, Note_on_c, 0, 55, 0
2, 346277, Note_on_c, 0, 61, 0
2, 346277, Note_on_c, 0, 59, 0
2, 346292, Note_on_c, 0, 83, 83
2, 346319, Note_on_c, 0, 71, 0
2, 346350, Note_on_c, 0, 83, 0
2, 346467, Note_on_c, 0, 77, 70
2, 346469, Note_on_c, 0, 65, 46
2, 346545, Note_on_c, 0, 65, 0
2, 346551, Note_on_c, 0, 77, 0
2, 346583, Control_c, 0, 64, 0
2, 346628, Note_on_c, 0, 66, 67
2, 346628, Note_on_c, 0, 78, 72
2, 346636, Note_on_c, 0, 30, 65
2, 346640, Note_on_c, 0, 42, 65
2, 346704, Control_c, 0, 64, 127
2, 346735, Note_on_c, 0, 30, 0
2, 346743, Note_on_c, 0, 42, 0
2, 346784, Note_on_c, 0, 66, 0
2, 346842, Note_on_c, 0, 62, 65
2, 346846, Note_on_c, 0, 59, 65
2, 346846, Note_on_c, 0, 71, 54
2, 346856, Note_on_c, 0, 54, 65
2, 346909, Note_on_c, 0, 71, 0
2, 346918, Note_on_c, 0, 62, 0
2, 346920, Note_on_c, 0, 59, 0
2, 346963, Note_on_c, 0, 59, 65
2, 346986, Note_on_c, 0, 62, 65
2, 346990, Control_c, 0, 64, 0
2, 347017, Note_on_c, 0, 66, 65
2, 347025, Note_on_c, 0, 78, 0
2, 347034, Note_on_c, 0, 74, 70
2, 347034, Note_on_c, 0, 79, 71
2, 347099, Control_c, 0, 64, 127
2, 347114, Note_on_c, 0, 74, 0
2, 347120, Note_on_c, 0, 76, 66
2, 347129, Note_on_c, 0, 62, 0
2, 347129, Note_on_c, 0, 54, 0
2, 347129, Note_on_c, 0, 66, 0
2, 347129, Note_on_c, 0, 59, 0
2, 347154, Note_on_c, 0, 76, 0
2, 347168, Note_on_c, 0, 74, 66
2, 347193, Note_on_c, 0, 74, 0
2, 347193, Note_on_c, 0, 76, 66
2, 347220, Note_on_c, 0, 76, 0
2, 347231, Note_on_c, 0, 74, 66
2, 347256, Note_on_c, 0, 74, 0
2, 347260, Note_on_c, 0, 76, 66
2, 347285, Note_on_c, 0, 76, 0
2, 347291, Note_on_c, 0, 74, 66
2, 347314, Note_on_c, 0, 74, 0
2, 347314, Note_on_c, 0, 79, 0
2, 347316, Note_on_c, 0, 76, 65
2, 347352, Note_on_c, 0, 76, 0
2, 347352, Note_on_c, 0, 74, 67
2, 347356, Note_on_c, 0, 30, 65
2, 347356, Note_on_c, 0, 42, 65
2, 347356, Note_on_c, 0, 80, 71
2, 347391, Note_on_c, 0, 74, 0
2, 347400, Note_on_c, 0, 30, 0
2, 347410, Note_on_c, 0, 42, 0
2, 347410, Note_on_c, 0, 80, 0
2, 347431, Note_on_c, 0, 74, 65
2, 347460, Note_on_c, 0, 74, 0
2, 347462, Note_on_c, 0, 76, 66
2, 347475, Note_on_c, 0, 76, 0
2, 347492, Note_on_c, 0, 74, 66
2, 347506, Note_on_c, 0, 74, 0
2, 347510, Note_on_c, 0, 76, 66
2, 347535, Note_on_c, 0, 76, 0
2, 347538, Note_on_c, 0, 74, 66
2, 347563, Note_on_c, 0, 74, 0
2, 347567, Note_on_c, 0, 76, 66
2, 347596, Note_on_c, 0, 76, 0
2, 347596, Note_on_c, 0, 74, 66
2, 347621, Note_on_c, 0, 74, 0
2, 347621, Note_on_c, 0, 76, 66
2, 347650, Note_on_c, 0, 76, 0
2, 347652, Note_on_c, 0, 54, 65
2, 347652, Note_on_c, 0, 81, 72
2, 347661, Note_on_c, 0, 58, 65
2, 347661, Note_on_c, 0, 64, 70
2, 347661, Note_on_c, 0, 74, 72
2, 347684, Note_on_c, 0, 74, 0
2, 347688, Note_on_c, 0, 76, 68
2, 347696, Note_on_c, 0, 64, 0
2, 347705, Note_on_c, 0, 58, 0
2, 347705, Note_on_c, 0, 54, 0
2, 347705, Note_on_c, 0, 81, 0
2, 347715, Note_on_c, 0, 76, 0
2, 347717, Note_on_c, 0, 74, 66
2, 347746, Note_on_c, 0, 74, 0
2, 347746, Note_on_c, 0, 76, 66
2, 347775, Note_on_c, 0, 76, 0
2, 347775, Note_on_c, 0, 74, 65
2, 347803, Note_on_c, 0, 74, 0
2, 347805, Note_on_c, 0, 76, 66
2, 347832, Note_on_c, 0, 76, 0
2, 347832, Note_on_c, 0, 74, 66
2, 347861, Note_on_c, 0, 74, 0
2, 347863, Note_on_c, 0, 76, 66
2, 347871, Note_on_c, 0, 54, 65
2, 347890, Control_c, 0, 64, 0
2, 347897, Note_on_c, 0, 76, 0
2, 347899, Note_on_c, 0, 74, 66
2, 347926, Note_on_c, 0, 64, 67
2, 347936, Note_on_c, 0, 74, 0
2, 347938, Note_on_c, 0, 70, 71
2, 347938, Note_on_c, 0, 82, 74
2, 347945, Note_on_c, 0, 73, 73
2, 347972, Note_on_c, 0, 73, 0
2, 347974, Control_c, 0, 64, 127
2, 347974, Note_on_c, 0, 74, 69
2, 348003, Note_on_c, 0, 74, 0
2, 348003, Note_on_c, 0, 73, 66
2, 348022, Note_on_c, 0, 82, 0
2, 348028, Note_on_c, 0, 70, 0
2, 348028, Note_on_c, 0, 73, 0
2, 348032, Note_on_c, 0, 74, 65
2, 348059, Note_on_c, 0, 74, 0
2, 348061, Note_on_c, 0, 73, 66
2, 348070, Note_on_c, 0, 64, 0
2, 348088, Note_on_c, 0, 73, 0
2, 348089, Note_on_c, 0, 54, 0
2, 348091, Note_on_c, 0, 74, 66
2, 348118, Note_on_c, 0, 74, 0
2, 348120, Note_on_c, 0, 73, 66
2, 348143, Note_on_c, 0, 73, 0
2, 348149, Note_on_c, 0, 74, 66
2, 348174, Note_on_c, 0, 74, 0
2, 348178, Note_on_c, 0, 73, 66
2, 348203, Note_on_c, 0, 73, 0
2, 348208, Note_on_c, 0, 74, 66
2, 348232, Note_on_c, 0, 74, 0
2, 348233, Note_on_c, 0, 73, 66
2, 348262, Note_on_c, 0, 73, 0
2, 348262, Note_on_c, 0, 74, 66
2, 348280, Note_on_c, 0, 74, 0
2, 348291, Note_on_c, 0, 73, 66
2, 348306, Note_on_c, 0, 73, 0
2, 348312, Note_on_c, 0, 74, 66
2, 348335, Note_on_c, 0, 74, 0
2, 348341, Note_on_c, 0, 73, 66
2, 348366, Note_on_c, 0, 73, 0
2, 348368, Note_on_c, 0, 74, 66
2, 348387, Note_on_c, 0, 74, 0
2, 348400, Note_on_c, 0, 73, 66
2, 348414, Note_on_c, 0, 73, 0
2, 348416, Note_on_c, 0, 74, 66
2, 348445, Note_on_c, 0, 74, 0
2, 348448, Note_on_c, 0, 73, 66
2, 348473, Note_on_c, 0, 73, 0
2, 348479, Note_on_c, 0, 74, 66
2, 348504, Note_on_c, 0, 74, 0
2, 348506, Note_on_c, 0, 73, 66
2, 348529, Note_on_c, 0, 73, 0
2, 348533, Note_on_c, 0, 74, 66
2, 348560, Note_on_c, 0, 74, 0
2, 348562, Note_on_c, 0, 73, 66
2, 348589, Note_on_c, 0, 73, 0
2, 348606, Note_on_c, 0, 71, 61
2, 348633, Control_c, 0, 64, 0
2, 348637, Note_on_c, 0, 71, 0
2, 348642, Note_on_c, 0, 74, 67
2, 348679, Note_on_c, 0, 74, 0
2, 348679, Note_on_c, 0, 73, 68
2, 348702, Note_on_c, 0, 47, 65
2, 348717, Note_on_c, 0, 73, 0
2, 348717, Note_on_c, 0, 54, 65
2, 348717, Note_on_c, 0, 83, 77
2, 348719, Note_on_c, 0, 71, 76
2, 348727, Control_c, 0, 64, 127
2, 348729, Note_on_c, 0, 62, 65
2, 348736, Note_on_c, 0, 47, 0
2, 348744, Note_on_c, 0, 71, 0
2, 348748, Note_on_c, 0, 83, 0
2, 348754, Note_on_c, 0, 54, 0
2, 348754, Note_on_c, 0, 62, 0
2, 348775, Note_on_c, 0, 65, 71
2, 348775, Note_on_c, 0, 70, 70
2, 348804, Note_on_c, 0, 70, 0
2, 348804, Note_on_c, 0, 65, 0
2, 348832, Note_on_c, 0, 62, 65
2, 348832, Note_on_c, 0, 66, 70
2, 348832, Note_on_c, 0, 73, 72
2, 348844, Note_on_c, 0, 71, 73
2, 348859, Note_on_c, 0, 73, 0
2, 348859, Note_on_c, 0, 62, 0
2, 348861, Note_on_c, 0, 66, 0
2, 348867, Note_on_c, 0, 71, 0
2, 348888, Note_on_c, 0, 74, 67
2, 348890, Note_on_c, 0, 78, 69
2, 348915, Note_on_c, 0, 78, 0
2, 348915, Note_on_c, 0, 74, 0
2, 348938, Note_on_c, 0, 73, 74
2, 348938, Note_on_c, 0, 81, 76
2, 348963, Note_on_c, 0, 81, 0
2, 348963, Note_on_c, 0, 73, 0
2, 348976, Control_c, 0, 64, 0
2, 348984, Note_on_c, 0, 77, 74
2, 348984, Note_on_c, 0, 82, 76
2, 348986, Note_on_c, 0, 80, 73
2, 349009, Note_on_c, 0, 80, 0
2, 349011, Note_on_c, 0, 82, 0
2, 349011, Note_on_c, 0, 77, 0
2, 349040, Note_on_c, 0, 74, 76
2, 349040, Note_on_c, 0, 78, 78
2, 349040, Note_on_c, 0, 83, 81
2, 349040, Note_on_c, 0, 85, 82
2, 349059, Control_c, 0, 64, 127
2, 349086, Note_on_c, 0, 83, 0
2, 349086, Note_on_c, 0, 74, 0
2, 349086, Note_on_c, 0, 86, 77
2, 349086, Note_on_c, 0, 90, 76
2, 349092, Note_on_c, 0, 78, 0
2, 349092, Note_on_c, 0, 85, 0
2, 349113, Note_on_c, 0, 86, 0
2, 349124, Note_on_c, 0, 90, 0
2, 349144, Note_on_c, 0, 89, 82
2, 349144, Note_on_c, 0, 94, 84
2, 349161, Control_c, 0, 64, 0
2, 349168, Note_on_c, 0, 94, 0
2, 349170, Note_on_c, 0, 89, 0
2, 349190, Note_on_c, 0, 90, 87
2, 349190, Note_on_c, 0, 97, 89
2, 349199, Note_on_c, 0, 95, 85
2, 349215, Note_on_c, 0, 95, 0
2, 349216, Note_on_c, 0, 97, 0
2, 349216, Note_on_c, 0, 90, 0
2, 349245, Note_on_c, 0, 95, 85
2, 349245, Note_on_c, 0, 98, 90
2, 349247, Note_on_c, 0, 86, 88
2, 349259, Control_c, 0, 64, 127
2, 349276, Note_on_c, 0, 95, 0
2, 349282, Note_on_c, 0, 98, 0
2, 349284, Note_on_c, 0, 86, 0
2, 349394, Control_c, 0, 67, 127
2, 349453, Control_c, 0, 64, 0
2, 349460, Note_on_c, 0, 99, 72
2, 349485, Note_on_c, 0, 99, 0
2, 349514, Note_on_c, 0, 100, 75
2, 349518, Note_on_c, 0, 64, 72
2, 349518, Note_on_c, 0, 88, 76
2, 349543, Note_on_c, 0, 88, 0
2, 349554, Note_on_c, 0, 100, 0
2, 349570, Note_on_c, 0, 92, 69
2, 349576, Note_on_c, 0, 98, 71
2, 349610, Note_on_c, 0, 98, 0
2, 349610, Note_on_c, 0, 92, 0
2, 349629, Note_on_c, 0, 96, 65
2, 349631, Note_on_c, 0, 93, 65
2, 349648, Note_on_c, 0, 96, 0
2, 349650, Note_on_c, 0, 93, 0
2, 349679, Note_on_c, 0, 95, 65
2, 349681, Note_on_c, 0, 84, 65
2, 349708, Note_on_c, 0, 84, 0
2, 349716, Note_on_c, 0, 95, 0
2, 349741, Control_c, 0, 64, 127
2, 349741, Note_on_c, 0, 93, 65
2, 349743, Note_on_c, 0, 87, 64
2, 349752, Note_on_c, 0, 57, 74
2, 349758, Note_on_c, 0, 64, 0
2, 349764, Note_on_c, 0, 93, 0
2, 349764, Note_on_c, 0, 87, 0
2, 349787, Note_on_c, 0, 57, 0
2, 349794, Note_on_c, 0, 91, 65
2, 349796, Note_on_c, 0, 88, 65
2, 349814, Note_on_c, 0, 88, 0
2, 349825, Note_on_c, 0, 91, 0
2, 349840, Note_on_c, 0, 38, 66
2, 349848, Note_on_c, 0, 45, 65
2, 349865, Note_on_c, 0, 38, 0
2, 349865, Note_on_c, 0, 54, 63
2, 349865, Note_on_c, 0, 81, 65
2, 349865, Note_on_c, 0, 90, 64
2, 349871, Note_on_c, 0, 45, 0
2, 349892, Note_on_c, 0, 90, 0
2, 349892, Note_on_c, 0, 81, 0
2, 349894, Note_on_c, 0, 54, 0
2, 349904, Control_c, 0, 64, 0
2, 349912, Note_on_c, 0, 84, 65
2, 349915, Note_on_c, 0, 88, 65
2, 349940, Note_on_c, 0, 88, 0
2, 349944, Note_on_c, 0, 84, 0
2, 349975, Note_on_c, 0, 59, 66
2, 349981, Note_on_c, 0, 78, 65
2, 349981, Note_on_c, 0, 86, 68
2, 350002, Note_on_c, 0, 59, 0
2, 350009, Note_on_c, 0, 78, 0
2, 350011, Note_on_c, 0, 86, 0
2, 350034, Note_on_c, 0, 84, 64
2, 350038, Note_on_c, 0, 81, 63
2, 350063, Note_on_c, 0, 81, 0
2, 350063, Note_on_c, 0, 84, 0
2, 350084, Note_on_c, 0, 60, 77
2, 350092, Note_on_c, 0, 83, 61
2, 350096, Note_on_c, 0, 72, 59
2, 350109, Note_on_c, 0, 60, 0
2, 350119, Note_on_c, 0, 72, 0
2, 350121, Note_on_c, 0, 83, 0
2, 350150, Note_on_c, 0, 78, 59
2, 350150, Note_on_c, 0, 81, 61
2, 350176, Note_on_c, 0, 81, 0
2, 350176, Note_on_c, 0, 78, 0
2, 350205, Note_on_c, 0, 86, 65
2, 350207, Note_on_c, 0, 62, 75
2, 350215, Note_on_c, 0, 98, 68
2, 350224, Control_c, 0, 64, 127
2, 350242, Note_on_c, 0, 98, 0
2, 350242, Note_on_c, 0, 86, 0
2, 350261, Note_on_c, 0, 90, 64
2, 350261, Note_on_c, 0, 96, 65
2, 350296, Note_on_c, 0, 90, 0
2, 350299, Note_on_c, 0, 96, 0
2, 350315, Note_on_c, 0, 91, 65
2, 350320, Note_on_c, 0, 95, 65
2, 350328, Control_c, 0, 64, 0
2, 350347, Note_on_c, 0, 95, 0
2, 350347, Note_on_c, 0, 91, 0
2, 350376, Note_on_c, 0, 83, 64
2, 350376, Note_on_c, 0, 93, 65
2, 350401, Note_on_c, 0, 93, 0
2, 350403, Note_on_c, 0, 83, 0
2, 350428, Note_on_c, 0, 55, 42
2, 350432, Note_on_c, 0, 91, 65
2, 350436, Control_c, 0, 64, 127
2, 350436, Note_on_c, 0, 85, 65
2, 350449, Note_on_c, 0, 62, 0
2, 350463, Note_on_c, 0, 85, 0
2, 350464, Note_on_c, 0, 55, 0
2, 350482, Note_on_c, 0, 91, 0
2, 350493, Note_on_c, 0, 86, 65
2, 350493, Note_on_c, 0, 90, 65
2, 350522, Note_on_c, 0, 90, 0
2, 350524, Note_on_c, 0, 86, 0
2, 350524, Note_on_c, 0, 43, 55
2, 350545, Note_on_c, 0, 50, 56
2, 350551, Note_on_c, 0, 43, 0
2, 350553, Note_on_c, 0, 79, 63
2, 350553, Note_on_c, 0, 88, 65
2, 350555, Note_on_c, 0, 59, 59
2, 350572, Note_on_c, 0, 50, 0
2, 350580, Note_on_c, 0, 79, 0
2, 350580, Note_on_c, 0, 88, 0
2, 350582, Note_on_c, 0, 59, 0
2, 350601, Note_on_c, 0, 86, 64
2, 350603, Control_c, 0, 64, 0
2, 350605, Note_on_c, 0, 83, 65
2, 350632, Note_on_c, 0, 83, 0
2, 350632, Note_on_c, 0, 86, 0
2, 350660, Note_on_c, 0, 57, 62
2, 350660, Note_on_c, 0, 74, 64
2, 350660, Note_on_c, 0, 84, 65
2, 350685, Note_on_c, 0, 84, 0
2, 350685, Note_on_c, 0, 74, 0
2, 350687, Note_on_c, 0, 57, 0
2, 350714, Note_on_c, 0, 83, 62
2, 350716, Note_on_c, 0, 79, 59
2, 350737, Note_on_c, 0, 79, 0
2, 350743, Note_on_c, 0, 83, 0
2, 350774, Note_on_c, 0, 59, 68
2, 350783, Note_on_c, 0, 71, 58
2, 350783, Note_on_c, 0, 81, 61
2, 350800, Note_on_c, 0, 71, 0
2, 350802, Note_on_c, 0, 59, 0
2, 350808, Note_on_c, 0, 81, 0
2, 350831, Note_on_c, 0, 74, 59
2, 350831, Note_on_c, 0, 79, 59
2, 350856, Note_on_c, 0, 74, 0
2, 350866, Note_on_c, 0, 79, 0
2, 350887, Note_on_c, 0, 81, 61
2, 350889, Note_on_c, 0, 60, 85
2, 350889, Note_on_c, 0, 76, 59
2, 350896, Control_c, 0, 64, 127
2, 350914, Note_on_c, 0, 76, 0
2, 350916, Note_on_c, 0, 81, 0
2, 350944, Note_on_c, 0, 80, 65
2, 350944, Note_on_c, 0, 83, 66
2, 350969, Note_on_c, 0, 80, 0
2, 350971, Note_on_c, 0, 83, 0
2, 350996, Note_on_c, 0, 45, 66
2, 351000, Note_on_c, 0, 84, 65
2, 351004, Note_on_c, 0, 81, 64
2, 351031, Note_on_c, 0, 84, 0
2, 351037, Note_on_c, 0, 81, 0
2, 351048, Note_on_c, 0, 83, 65
2, 351048, Note_on_c, 0, 86, 65
2, 351052, Note_on_c, 0, 60, 0
2, 351058, Note_on_c, 0, 45, 0
2, 351077, Note_on_c, 0, 83, 0
2, 351087, Note_on_c, 0, 86, 0
2, 351108, Note_on_c, 0, 84, 65
2, 351110, Note_on_c, 0, 88, 65
2, 351112, Note_on_c, 0, 52, 67
2, 351119, Control_c, 0, 64, 0
2, 351135, Note_on_c, 0, 52, 0
2, 351135, Note_on_c, 0, 88, 0
2, 351144, Note_on_c, 0, 84, 0
2, 351158, Note_on_c, 0, 86, 65
2, 351158, Note_on_c, 0, 90, 65
2, 351184, Note_on_c, 0, 86, 0
2, 351192, Note_on_c, 0, 90, 0
2, 351217, Note_on_c, 0, 59, 93
2, 351223, Note_on_c, 0, 91, 65
2, 351225, Note_on_c, 0, 88, 65
2, 351234, Control_c, 0, 64, 127
2, 351257, Note_on_c, 0, 88, 0
2, 351269, Note_on_c, 0, 91, 0
2, 351269, Note_on_c, 0, 85, 65
2, 351271, Note_on_c, 0, 45, 82
2, 351271, Note_on_c, 0, 81, 65
2, 351296, Note_on_c, 0, 85, 0
2, 351304, Note_on_c, 0, 81, 0
2, 351305, Note_on_c, 0, 45, 0
2, 351305, Note_on_c, 0, 59, 0
2, 351307, Note_on_c, 0, 52, 76
2, 351325, Note_on_c, 0, 61, 75
2, 351325, Note_on_c, 0, 83, 65
2, 351325, Note_on_c, 0, 86, 64
2, 351332, Note_on_c, 0, 52, 0
2, 351350, Note_on_c, 0, 83, 0
2, 351359, Note_on_c, 0, 61, 0
2, 351359, Note_on_c, 0, 86, 0
2, 351380, Note_on_c, 0, 85, 64
2, 351380, Note_on_c, 0, 88, 65
2, 351409, Note_on_c, 0, 88, 0
2, 351409, Note_on_c, 0, 85, 0
2, 351432, Note_on_c, 0, 55, 61
2, 351438, Note_on_c, 0, 90, 65
2, 351440, Note_on_c, 0, 86, 65
2, 351449, Control_c, 0, 64, 0
2, 351459, Note_on_c, 0, 55, 0
2, 351465, Note_on_c, 0, 86, 0
2, 351474, Note_on_c, 0, 90, 0
2, 351494, Note_on_c, 0, 91, 65
2, 351496, Note_on_c, 0, 88, 65
2, 351524, Note_on_c, 0, 88, 0
2, 351532, Note_on_c, 0, 91, 0
2, 351549, Note_on_c, 0, 59, 94
2, 351553, Note_on_c, 0, 95, 65
2, 351555, Control_c, 0, 64, 127
2, 351555, Note_on_c, 0, 86, 65
2, 351574, Note_on_c, 0, 59, 0
2, 351611, Note_on_c, 0, 90, 65
2, 351626, Note_on_c, 0, 38, 83
2, 351630, Note_on_c, 0, 95, 0
2, 351632, Note_on_c, 0, 86, 0
2, 351643, Note_on_c, 0, 45, 81
2, 351651, Note_on_c, 0, 38, 0
2, 351659, Note_on_c, 0, 90, 0
2, 351661, Note_on_c, 0, 54, 77
2, 351661, Note_on_c, 0, 91, 65
2, 351682, Note_on_c, 0, 45, 0
2, 351689, Note_on_c, 0, 54, 0
2, 351709, Note_on_c, 0, 91, 0
2, 351718, Note_on_c, 0, 84, 65
2, 351720, Control_c, 0, 64, 0
2, 351720, Note_on_c, 0, 93, 65
2, 351749, Note_on_c, 0, 84, 0
2, 351755, Note_on_c, 0, 93, 0
2, 351774, Note_on_c, 0, 95, 65
2, 351778, Note_on_c, 0, 86, 65
2, 351791, Note_on_c, 0, 57, 59
2, 351805, Note_on_c, 0, 86, 0
2, 351812, Note_on_c, 0, 95, 0
2, 351820, Control_c, 0, 64, 127
2, 351833, Note_on_c, 0, 96, 65
2, 351837, Note_on_c, 0, 57, 0
2, 351837, Note_on_c, 0, 88, 65
2, 351872, Note_on_c, 0, 88, 0
2, 351872, Note_on_c, 0, 96, 0
2, 351881, Note_on_c, 0, 90, 65
2, 351883, Note_on_c, 0, 98, 68
2, 351897, Control_c, 0, 64, 0
2, 351910, Note_on_c, 0, 98, 0
2, 351910, Note_on_c, 0, 90, 0
2, 351937, Note_on_c, 0, 90, 64
2, 351937, Note_on_c, 0, 102, 68
2, 351966, Note_on_c, 0, 102, 0
2, 351976, Note_on_c, 0, 90, 0
2, 351987, Note_on_c, 0, 62, 77
2, 351997, Note_on_c, 0, 91, 64
2, 351997, Note_on_c, 0, 103, 68
2, 352018, Note_on_c, 0, 62, 0
2, 352020, Note_on_c, 0, 103, 0
2, 352024, Note_on_c, 0, 91, 0
2, 352052, Note_on_c, 0, 93, 65
2, 352077, Note_on_c, 0, 93, 0
2, 352110, Note_on_c, 0, 91, 65
2, 352110, Note_on_c, 0, 103, 68
2, 352112, Note_on_c, 0, 63, 95
2, 352135, Note_on_c, 0, 103, 0
2, 352135, Note_on_c, 0, 91, 0
2, 352146, Note_on_c, 0, 63, 0
2, 352162, Note_on_c, 0, 90, 65
2, 352162, Note_on_c, 0, 102, 68
2, 352191, Note_on_c, 0, 102, 0
2, 352192, Note_on_c, 0, 90, 0
2, 352214, Note_on_c, 0, 64, 64
2, 352221, Note_on_c, 0, 88, 65
2, 352221, Note_on_c, 0, 100, 68
2, 352223, Control_c, 0, 64, 127
2, 352240, Note_on_c, 0, 64, 0
2, 352248, Note_on_c, 0, 100, 0
2, 352248, Note_on_c, 0, 88, 0
2, 352279, Note_on_c, 0, 86, 64
2, 352279, Note_on_c, 0, 98, 68
2, 352306, Note_on_c, 0, 98, 0
2, 352308, Note_on_c, 0, 86, 0
2, 352325, Note_on_c, 0, 96, 65
2, 352327, Note_on_c, 0, 84, 65
2, 352329, Note_on_c, 0, 50, 62
2, 352329, Note_on_c, 0, 54, 62
2, 352356, Note_on_c, 0, 54, 0
2, 352356, Note_on_c, 0, 50, 0
2, 352356, Note_on_c, 0, 96, 0
2, 352358, Note_on_c, 0, 84, 0
2, 352360, Control_c, 0, 64, 0
2, 352386, Note_on_c, 0, 83, 65
2, 352386, Note_on_c, 0, 95, 65
2, 352411, Note_on_c, 0, 95, 0
2, 352413, Note_on_c, 0, 83, 0
2, 352438, Note_on_c, 0, 57, 54
2, 352444, Note_on_c, 0, 81, 65
2, 352444, Note_on_c, 0, 93, 65
2, 352448, Control_c, 0, 64, 127
2, 352463, Note_on_c, 0, 57, 0
2, 352471, Note_on_c, 0, 93, 0
2, 352473, Note_on_c, 0, 81, 0
2, 352500, Note_on_c, 0, 91, 65
2, 352502, Note_on_c, 0, 79, 63
2, 352523, Note_on_c, 0, 38, 58
2, 352538, Note_on_c, 0, 79, 0
2, 352538, Note_on_c, 0, 91, 0
2, 352540, Note_on_c, 0, 45, 60
2, 352548, Note_on_c, 0, 38, 0
2, 352550, Note_on_c, 0, 54, 62
2, 352557, Note_on_c, 0, 78, 63
2, 352557, Note_on_c, 0, 90, 65
2, 352563, Note_on_c, 0, 45, 0
2, 352576, Note_on_c, 0, 54, 0
2, 352582, Note_on_c, 0, 78, 0
2, 352594, Note_on_c, 0, 90, 0
2, 352601, Note_on_c, 0, 91, 65
2, 352607, Note_on_c, 0, 79, 63
2, 352630, Note_on_c, 0, 79, 0
2, 352630, Note_on_c, 0, 91, 0
2, 352655, Note_on_c, 0, 59, 69
2, 352659, Note_on_c, 0, 90, 64
2, 352661, Note_on_c, 0, 78, 63
2, 352684, Note_on_c, 0, 78, 0
2, 352684, Note_on_c, 0, 90, 0
2, 352717, Note_on_c, 0, 88, 64
2, 352720, Note_on_c, 0, 76, 63
2, 352738, Note_on_c, 0, 59, 0
2, 352744, Note_on_c, 0, 88, 0
2, 352747, Note_on_c, 0, 76, 0
2, 352767, Note_on_c, 0, 60, 67
2, 352776, Note_on_c, 0, 74, 63
2, 352776, Note_on_c, 0, 86, 65
2, 352778, Control_c, 0, 64, 0
2, 352803, Note_on_c, 0, 86, 0
2, 352803, Note_on_c, 0, 74, 0
2, 352834, Note_on_c, 0, 60, 0
2, 352834, Note_on_c, 0, 84, 65
2, 352836, Note_on_c, 0, 72, 62
2, 352859, Note_on_c, 0, 72, 0
2, 352861, Note_on_c, 0, 84, 0
2, 352882, Note_on_c, 0, 62, 79
2, 352882, Note_on_c, 0, 74, 63
2, 352882, Note_on_c, 0, 86, 64
2, 352889, Control_c, 0, 64, 127
2, 352909, Note_on_c, 0, 62, 0
2, 352918, Note_on_c, 0, 74, 0
2, 352937, Note_on_c, 0, 86, 0
2, 352937, Note_on_c, 0, 78, 63
2, 352937, Note_on_c, 0, 84, 65
2, 352976, Note_on_c, 0, 84, 0
2, 352984, Note_on_c, 0, 78, 0
2, 352987, Note_on_c, 0, 43, 62
2, 352987, Note_on_c, 0, 79, 63
2, 352987, Note_on_c, 0, 83, 64
2, 352989, Note_on_c, 0, 50, 62
2, 353014, Note_on_c, 0, 83, 0
2, 353014, Note_on_c, 0, 79, 0
2, 353016, Note_on_c, 0, 43, 0
2, 353016, Note_on_c, 0, 50, 0
2, 353047, Note_on_c, 0, 71, 63
2, 353047, Note_on_c, 0, 81, 65
2, 353056, Control_c, 0, 64, 0
2, 353072, Note_on_c, 0, 71, 0
2, 353081, Note_on_c, 0, 81, 0
2, 353099, Note_on_c, 0, 55, 58
2, 353104, Note_on_c, 0, 73, 63
2, 353104, Note_on_c, 0, 79, 63
2, 353129, Note_on_c, 0, 73, 0
2, 353151, Note_on_c, 0, 79, 0
2, 353152, Note_on_c, 0, 74, 63
2, 353152, Note_on_c, 0, 78, 63
2, 353162, Control_c, 0, 64, 127
2, 353176, Note_on_c, 0, 78, 0
2, 353176, Note_on_c, 0, 74, 0
2, 353210, Note_on_c, 0, 67, 63
2, 353210, Note_on_c, 0, 76, 67
2, 353220, Note_on_c, 0, 55, 0
2, 353248, Note_on_c, 0, 67, 0
2, 353254, Note_on_c, 0, 76, 0
2, 353266, Note_on_c, 0, 71, 69
2, 353266, Note_on_c, 0, 74, 68
2, 353277, Control_c, 0, 67, 0
2, 353283, Note_on_c, 0, 71, 0
2, 353295, Note_on_c, 0, 74, 0
2, 353306, Note_on_c, 0, 73, 67
2, 353312, Note_on_c, 0, 62, 61
2, 353314, Note_on_c, 0, 59, 61
2, 353323, Note_on_c, 0, 71, 70
2, 353341, Note_on_c, 0, 62, 0
2, 353343, Note_on_c, 0, 71, 0
2, 353343, Note_on_c, 0, 59, 0
2, 353348, Note_on_c, 0, 73, 0
2, 353371, Note_on_c, 0, 71, 65
2, 353381, Control_c, 0, 64, 0
2, 353410, Note_on_c, 0, 71, 0
2, 353412, Note_on_c, 0, 69, 62
2, 353423, Note_on_c, 0, 59, 61
2, 353431, Note_on_c, 0, 53, 61
2, 353431, Note_on_c, 0, 61, 61
2, 353431, Note_on_c, 0, 65, 64
2, 353456, Note_on_c, 0, 61, 0
2, 353458, Note_on_c, 0, 53, 0
2, 353458, Note_on_c, 0, 69, 0
2, 353458, Note_on_c, 0, 59, 0
2, 353465, Note_on_c, 0, 65, 0
2, 353477, Note_on_c, 0, 67, 67
2, 353504, Note_on_c, 0, 67, 0
2, 353525, Note_on_c, 0, 66, 70
2, 353527, Note_on_c, 0, 42, 65
2, 353533, Note_on_c, 0, 30, 65
2, 353536, Control_c, 0, 64, 127
2, 353556, Note_on_c, 0, 42, 0
2, 353565, Note_on_c, 0, 30, 0
2, 353588, Note_on_c, 0, 59, 65
2, 353611, Note_on_c, 0, 66, 0
2, 353623, Note_on_c, 0, 59, 0
2, 353654, Note_on_c, 0, 54, 65
2, 353654, Note_on_c, 0, 61, 65
2, 353654, Note_on_c, 0, 71, 75
2, 353700, Note_on_c, 0, 61, 0
2, 353700, Note_on_c, 0, 54, 0
2, 353700, Note_on_c, 0, 62, 64
2, 353705, Note_on_c, 0, 71, 0
2, 353738, Note_on_c, 0, 59, 65
2, 353746, Note_on_c, 0, 65, 75
2, 353746, Note_on_c, 0, 74, 77
2, 353753, Note_on_c, 0, 62, 0
2, 353765, Note_on_c, 0, 59, 0
2, 353786, Control_c, 0, 64, 0
2, 353801, Note_on_c, 0, 65, 0
2, 353801, Note_on_c, 0, 66, 71
2, 353819, Note_on_c, 0, 74, 0
2, 353824, Note_on_c, 0, 42, 65
2, 353830, Note_on_c, 0, 66, 0
2, 353859, Note_on_c, 0, 66, 70
2, 353859, Note_on_c, 0, 70, 75
2, 353859, Note_on_c, 0, 74, 76
2, 353861, Note_on_c, 0, 54, 65
2, 353861, Note_on_c, 0, 64, 76
2, 353888, Control_c, 0, 64, 127
2, 353903, Note_on_c, 0, 64, 0
2, 353903, Note_on_c, 0, 66, 0
2, 353903, Note_on_c, 0, 42, 0
2, 353903, Note_on_c, 0, 54, 0
2, 353909, Note_on_c, 0, 74, 0
2, 353909, Note_on_c, 0, 70, 0
2, 353951, Note_on_c, 0, 77, 73
2, 353992, Note_on_c, 0, 64, 73
2, 353997, Note_on_c, 0, 77, 0
2, 354001, Note_on_c, 0, 78, 74
2, 354036, Note_on_c, 0, 78, 0
2, 354036, Note_on_c, 0, 82, 76
2, 354082, Note_on_c, 0, 82, 0
2, 354088, Note_on_c, 0, 89, 76
2, 354103, Note_on_c, 0, 66, 75
2, 354103, Note_on_c, 0, 70, 78
2, 354103, Note_on_c, 0, 73, 79
2, 354120, Note_on_c, 0, 89, 0
2, 354139, Note_on_c, 0, 90, 78
2, 354139, Note_on_c, 0, 102, 80
2, 354164, Note_on_c, 0, 102, 0
2, 354176, Note_on_c, 0, 90, 0
2, 354224, Note_on_c, 0, 73, 0
2, 354233, Note_on_c, 0, 70, 0
2, 354235, Note_on_c, 0, 64, 0
2, 354247, Note_on_c, 0, 66, 0
2, 354507, Control_c, 0, 64, 0
2, 354592, Note_on_c, 0, 66, 111
2, 354593, Note_on_c, 0, 54, 112
2, 354603, Control_c, 0, 64, 127
2, 354618, Note_on_c, 0, 54, 0
2, 354628, Note_on_c, 0, 66, 0
2, 354647, Note_on_c, 0, 54, 106
2, 354689, Note_on_c, 0, 26, 104
2, 354699, Note_on_c, 0, 59, 98
2, 354703, Note_on_c, 0, 38, 97
2, 354714, Note_on_c, 0, 54, 0
2, 354724, Note_on_c, 0, 38, 0
2, 354728, Note_on_c, 0, 26, 0
2, 354743, Note_on_c, 0, 66, 73
2, 354753, Note_on_c, 0, 59, 0
2, 354791, Note_on_c, 0, 50, 90
2, 354791, Note_on_c, 0, 59, 86
2, 354801, Note_on_c, 0, 54, 85
2, 354810, Note_on_c, 0, 71, 74
2, 354830, Note_on_c, 0, 50, 0
2, 354845, Note_on_c, 0, 71, 0
2, 354855, Note_on_c, 0, 54, 0
2, 354858, Note_on_c, 0, 74, 74
2, 354858, Note_on_c, 0, 83, 76
2, 354880, Control_c, 0, 64, 0
2, 354883, Note_on_c, 0, 83, 0
2, 354883, Note_on_c, 0, 74, 0
2, 354986, Note_on_c, 0, 66, 0
2, 354992, Note_on_c, 0, 59, 0
2, 355061, Note_on_c, 0, 67, 111
2, 355067, Note_on_c, 0, 55, 96
2, 355082, Note_on_c, 0, 55, 0
2, 355109, Note_on_c, 0, 55, 92
2, 355128, Control_c, 0, 64, 127
2, 355165, Note_on_c, 0, 67, 0
2, 355167, Note_on_c, 0, 55, 0
2, 355170, Note_on_c, 0, 26, 81
2, 355170, Note_on_c, 0, 38, 80
2, 355170, Note_on_c, 0, 59, 79
2, 355203, Note_on_c, 0, 38, 0
2, 355211, Note_on_c, 0, 26, 0
2, 355226, Note_on_c, 0, 59, 0
2, 355232, Note_on_c, 0, 67, 73
2, 355276, Note_on_c, 0, 50, 74
2, 355278, Note_on_c, 0, 59, 73
2, 355286, Note_on_c, 0, 54, 73
2, 355293, Note_on_c, 0, 71, 74
2, 355305, Note_on_c, 0, 50, 0
2, 355314, Note_on_c, 0, 54, 0
2, 355322, Note_on_c, 0, 71, 0
2, 355343, Note_on_c, 0, 83, 76
2, 355345, Note_on_c, 0, 74, 74
2, 355355, Control_c, 0, 64, 0
2, 355366, Note_on_c, 0, 74, 0
2, 355370, Note_on_c, 0, 83, 0
2, 355418, Note_on_c, 0, 59, 0
2, 355418, Note_on_c, 0, 67, 0
2, 355493, Note_on_c, 0, 66, 75
2, 355499, Note_on_c, 0, 54, 105
2, 355524, Note_on_c, 0, 54, 0
2, 355552, Note_on_c, 0, 54, 100
2, 355562, Control_c, 0, 64, 127
2, 355583, Note_on_c, 0, 25, 96
2, 355600, Note_on_c, 0, 54, 0
2, 355600, Note_on_c, 0, 66, 0
2, 355602, Note_on_c, 0, 59, 92
2, 355606, Note_on_c, 0, 37, 91
2, 355622, Note_on_c, 0, 25, 0
2, 355639, Note_on_c, 0, 37, 0
2, 355660, Note_on_c, 0, 59, 0
2, 355660, Note_on_c, 0, 66, 73
2, 355698, Note_on_c, 0, 59, 84
2, 355704, Note_on_c, 0, 52, 81
2, 355710, Note_on_c, 0, 55, 80
2, 355718, Note_on_c, 0, 71, 74
2, 355725, Note_on_c, 0, 52, 0
2, 355737, Note_on_c, 0, 55, 0
2, 355752, Note_on_c, 0, 71, 0
2, 355756, Control_c, 0, 64, 0
2, 355758, Note_on_c, 0, 79, 74
2, 355758, Note_on_c, 0, 83, 76
2, 355781, Note_on_c, 0, 79, 0
2, 355792, Note_on_c, 0, 66, 0
2, 355792, Note_on_c, 0, 59, 0
2, 355802, Note_on_c, 0, 83, 0
2, 355806, Note_on_c, 0, 52, 74
2, 355814, Note_on_c, 0, 54, 73
2, 355835, Note_on_c, 0, 64, 75
2, 355871, Control_c, 0, 64, 127
2, 355890, Note_on_c, 0, 64, 0
2, 355890, Note_on_c, 0, 52, 0
2, 355890, Note_on_c, 0, 67, 73
2, 355917, Note_on_c, 0, 54, 0
2, 355948, Note_on_c, 0, 67, 0
2, 355950, Note_on_c, 0, 51, 79
2, 355950, Note_on_c, 0, 63, 80
2, 355950, Note_on_c, 0, 71, 74
2, 355975, Note_on_c, 0, 63, 0
2, 355984, Note_on_c, 0, 51, 0
2, 355996, Note_on_c, 0, 79, 77
2, 356002, Note_on_c, 0, 71, 0
2, 356040, Note_on_c, 0, 79, 0
2, 356054, Note_on_c, 0, 52, 67
2, 356054, Note_on_c, 0, 64, 80
2, 356061, Note_on_c, 0, 83, 82
2, 356090, Control_c, 0, 64, 0
2, 356098, Note_on_c, 0, 91, 83
2, 356098, Note_on_c, 0, 95, 83
2, 356100, Note_on_c, 0, 83, 0
2, 356123, Note_on_c, 0, 91, 0
2, 356134, Note_on_c, 0, 95, 0
2, 356173, Note_on_c, 0, 64, 0
2, 356175, Note_on_c, 0, 52, 0
2, 356249, Note_on_c, 0, 55, 86
2, 356249, Note_on_c, 0, 67, 106
2, 356278, Note_on_c, 0, 55, 0
2, 356303, Note_on_c, 0, 55, 73
2, 356320, Control_c, 0, 64, 127
2, 356361, Note_on_c, 0, 34, 73
2, 356363, Note_on_c, 0, 46, 73
2, 356370, Note_on_c, 0, 61, 73
2, 356378, Note_on_c, 0, 67, 0
2, 356380, Note_on_c, 0, 55, 0
2, 356388, Note_on_c, 0, 46, 0
2, 356390, Note_on_c, 0, 34, 0
2, 356426, Note_on_c, 0, 61, 0
2, 356430, Note_on_c, 0, 64, 73
2, 356430, Note_on_c, 0, 67, 73
2, 356457, Note_on_c, 0, 67, 0
2, 356457, Note_on_c, 0, 64, 0
2, 356489, Note_on_c, 0, 54, 73
2, 356489, Note_on_c, 0, 58, 73
2, 356489, Note_on_c, 0, 61, 72
2, 356489, Note_on_c, 0, 66, 68
2, 356493, Control_c, 0, 64, 0
2, 356507, Note_on_c, 0, 73, 73
2, 356516, Note_on_c, 0, 61, 0
2, 356516, Note_on_c, 0, 58, 0
2, 356543, Note_on_c, 0, 73, 0
2, 356545, Note_on_c, 0, 76, 74
2, 356559, Note_on_c, 0, 85, 76
2, 356564, Note_on_c, 0, 66, 0
2, 356564, Note_on_c, 0, 54, 0
2, 356601, Note_on_c, 0, 76, 0
2, 356612, Note_on_c, 0, 85, 0
2, 356612, Note_on_c, 0, 54, 73
2, 356612, Note_on_c, 0, 58, 73
2, 356612, Note_on_c, 0, 61, 72
2, 356612, Note_on_c, 0, 66, 80
2, 356672, Note_on_c, 0, 73, 80
2, 356681, Control_c, 0, 64, 127
2, 356720, Note_on_c, 0, 76, 74
2, 356724, Note_on_c, 0, 73, 0
2, 356735, Note_on_c, 0, 54, 0
2, 356739, Note_on_c, 0, 66, 0
2, 356764, Note_on_c, 0, 76, 0
2, 356768, Note_on_c, 0, 58, 0
2, 356774, Note_on_c, 0, 85, 72
2, 356777, Note_on_c, 0, 61, 0
2, 356812, Note_on_c, 0, 85, 0
2, 356833, Note_on_c, 0, 85, 75
2, 356837, Note_on_c, 0, 52, 74
2, 356837, Note_on_c, 0, 58, 75
2, 356837, Note_on_c, 0, 61, 76
2, 356837, Note_on_c, 0, 64, 74
2, 356848, Control_c, 0, 64, 0
2, 356879, Note_on_c, 0, 94, 72
2, 356883, Note_on_c, 0, 97, 73
2, 356889, Note_on_c, 0, 85, 0
2, 356918, Note_on_c, 0, 94, 0
2, 356918, Note_on_c, 0, 97, 0
2, 356946, Note_on_c, 0, 61, 0
2, 356946, Note_on_c, 0, 64, 0
2, 356946, Note_on_c, 0, 58, 0
2, 356956, Note_on_c, 0, 52, 0
2, 357031, Note_on_c, 0, 64, 68
2, 357033, Note_on_c, 0, 52, 100
2, 357056, Note_on_c, 0, 52, 0
2, 357096, Control_c, 0, 64, 127
2, 357096, Note_on_c, 0, 52, 90
2, 357144, Note_on_c, 0, 52, 0
2, 357148, Note_on_c, 0, 31, 83
2, 357148, Note_on_c, 0, 43, 82
2, 357148, Note_on_c, 0, 55, 81
2, 357152, Note_on_c, 0, 64, 0
2, 357173, Note_on_c, 0, 31, 0
2, 357173, Note_on_c, 0, 43, 0
2, 357194, Note_on_c, 0, 59, 77
2, 357211, Note_on_c, 0, 55, 0
2, 357234, Note_on_c, 0, 59, 0
2, 357238, Control_c, 0, 64, 0
2, 357275, Note_on_c, 0, 55, 69
2, 357275, Note_on_c, 0, 62, 68
2, 357277, Note_on_c, 0, 50, 67
2, 357277, Note_on_c, 0, 59, 68
2, 357286, Note_on_c, 0, 71, 66
2, 357305, Note_on_c, 0, 55, 0
2, 357309, Note_on_c, 0, 59, 0
2, 357317, Note_on_c, 0, 71, 0
2, 357328, Note_on_c, 0, 79, 66
2, 357330, Note_on_c, 0, 83, 68
2, 357338, Note_on_c, 0, 50, 0
2, 357353, Note_on_c, 0, 62, 0
2, 357357, Note_on_c, 0, 50, 65
2, 357361, Note_on_c, 0, 79, 0
2, 357373, Note_on_c, 0, 83, 0
2, 357378, Note_on_c, 0, 52, 65
2, 357394, Note_on_c, 0, 62, 68
2, 357434, Control_c, 0, 64, 127
2, 357442, Note_on_c, 0, 71, 73
2, 357448, Note_on_c, 0, 62, 0
2, 357459, Note_on_c, 0, 50, 0
2, 357467, Note_on_c, 0, 52, 0
2, 357486, Note_on_c, 0, 49, 79
2, 357486, Note_on_c, 0, 79, 77
2, 357497, Note_on_c, 0, 61, 81
2, 357528, Note_on_c, 0, 49, 0
2, 357534, Note_on_c, 0, 83, 82
2, 357542, Note_on_c, 0, 71, 0
2, 357551, Note_on_c, 0, 61, 0
2, 357570, Note_on_c, 0, 83, 0
2, 357578, Note_on_c, 0, 79, 0
2, 357588, Note_on_c, 0, 62, 80
2, 357590, Note_on_c, 0, 50, 81
2, 357599, Note_on_c, 0, 83, 83
2, 357634, Note_on_c, 0, 83, 0
2, 357634, Note_on_c, 0, 91, 83
2, 357634, Note_on_c, 0, 95, 82
2, 357638, Control_c, 0, 64, 0
2, 357672, Note_on_c, 0, 95, 0
2, 357672, Note_on_c, 0, 91, 0
2, 357755, Note_on_c, 0, 50, 0
2, 357755, Note_on_c, 0, 62, 0
2, 357822, Note_on_c, 0, 66, 111
2, 357826, Note_on_c, 0, 54, 94
2, 357849, Note_on_c, 0, 54, 0
2, 357891, Note_on_c, 0, 54, 90
2, 357903, Control_c, 0, 64, 127
2, 357943, Note_on_c, 0, 26, 85
2, 357947, Note_on_c, 0, 38, 82
2, 357951, Note_on_c, 0, 59, 81
2, 357960, Note_on_c, 0, 54, 0
2, 357968, Note_on_c, 0, 66, 0
2, 357972, Note_on_c, 0, 26, 0
2, 357977, Note_on_c, 0, 38, 0
2, 357983, Note_on_c, 0, 66, 73
2, 358008, Note_on_c, 0, 59, 0
2, 358025, Note_on_c, 0, 66, 0
2, 358039, Control_c, 0, 64, 0
2, 358047, Note_on_c, 0, 47, 67
2, 358048, Note_on_c, 0, 59, 66
2, 358056, Note_on_c, 0, 54, 65
2, 358068, Note_on_c, 0, 71, 73
2, 358081, Note_on_c, 0, 54, 0
2, 358102, Note_on_c, 0, 71, 0
2, 358102, Note_on_c, 0, 47, 0
2, 358106, Note_on_c, 0, 78, 73
2, 358106, Note_on_c, 0, 83, 76
2, 358129, Note_on_c, 0, 83, 0
2, 358129, Note_on_c, 0, 78, 0
2, 358131, Note_on_c, 0, 59, 0
2, 358133, Note_on_c, 0, 47, 72
2, 358143, Note_on_c, 0, 49, 73
2, 358162, Note_on_c, 0, 59, 75
2, 358225, Note_on_c, 0, 66, 72
2, 358227, Control_c, 0, 64, 127
2, 358256, Note_on_c, 0, 59, 0
2, 358264, Note_on_c, 0, 47, 0
2, 358264, Note_on_c, 0, 49, 0
2, 358285, Note_on_c, 0, 74, 74
2, 358288, Note_on_c, 0, 46, 76
2, 358288, Note_on_c, 0, 58, 77
2, 358294, Note_on_c, 0, 66, 0
2, 358323, Note_on_c, 0, 58, 0
2, 358323, Note_on_c, 0, 46, 0
2, 358335, Note_on_c, 0, 78, 74
2, 358350, Note_on_c, 0, 74, 0
2, 358369, Note_on_c, 0, 78, 0
2, 358392, Note_on_c, 0, 47, 81
2, 358396, Note_on_c, 0, 59, 83
2, 358402, Note_on_c, 0, 78, 74
2, 358421, Control_c, 0, 64, 0
2, 358438, Note_on_c, 0, 90, 76
2, 358440, Note_on_c, 0, 86, 76
2, 358465, Note_on_c, 0, 78, 0
2, 358477, Note_on_c, 0, 90, 0
2, 358477, Note_on_c, 0, 86, 0
2, 358504, Note_on_c, 0, 47, 0
2, 358505, Note_on_c, 0, 59, 0
2, 358611, Note_on_c, 0, 50, 75
2, 358613, Note_on_c, 0, 62, 112
2, 358638, Note_on_c, 0, 50, 0
2, 358671, Note_on_c, 0, 50, 107
2, 358678, Control_c, 0, 64, 127
2, 358705, Note_on_c, 0, 50, 0
2, 358705, Note_on_c, 0, 62, 0
2, 358717, Note_on_c, 0, 40, 98
2, 358717, Note_on_c, 0, 55, 96
2, 358719, Note_on_c, 0, 28, 95
2, 358719, Note_on_c, 0, 59, 94
2, 358749, Note_on_c, 0, 40, 0
2, 358753, Note_on_c, 0, 28, 0
2, 358759, Note_on_c, 0, 59, 0
2, 358759, Note_on_c, 0, 62, 88
2, 358778, Note_on_c, 0, 55, 0
2, 358797, Note_on_c, 0, 62, 0
2, 358799, Note_on_c, 0, 60, 83
2, 358809, Control_c, 0, 64, 0
2, 358826, Note_on_c, 0, 55, 79
2, 358832, Note_on_c, 0, 43, 77
2, 358838, Note_on_c, 0, 67, 73
2, 358843, Note_on_c, 0, 60, 0
2, 358884, Note_on_c, 0, 67, 0
2, 358886, Note_on_c, 0, 71, 74
2, 358886, Note_on_c, 0, 79, 74
2, 358905, Note_on_c, 0, 43, 0
2, 358905, Note_on_c, 0, 55, 0
2, 358920, Note_on_c, 0, 71, 0
2, 358943, Note_on_c, 0, 55, 70
2, 358945, Note_on_c, 0, 43, 69
2, 358953, Note_on_c, 0, 79, 0
2, 358999, Control_c, 0, 64, 127
2, 359012, Note_on_c, 0, 64, 73
2, 359018, Note_on_c, 0, 43, 0
2, 359018, Note_on_c, 0, 55, 0
2, 359056, Note_on_c, 0, 64, 0
2, 359058, Note_on_c, 0, 71, 74
2, 359066, Note_on_c, 0, 47, 80
2, 359068, Note_on_c, 0, 59, 81
2, 359093, Note_on_c, 0, 47, 0
2, 359103, Note_on_c, 0, 59, 0
2, 359104, Note_on_c, 0, 79, 74
2, 359122, Note_on_c, 0, 71, 0
2, 359147, Note_on_c, 0, 79, 0
2, 359158, Note_on_c, 0, 62, 88
2, 359164, Note_on_c, 0, 50, 90
2, 359174, Note_on_c, 0, 76, 74
2, 359202, Note_on_c, 0, 76, 0
2, 359216, Control_c, 0, 64, 0
2, 359216, Note_on_c, 0, 83, 76
2, 359216, Note_on_c, 0, 91, 75
2, 359241, Note_on_c, 0, 91, 0
2, 359241, Note_on_c, 0, 83, 0
2, 359281, Note_on_c, 0, 50, 0
2, 359281, Note_on_c, 0, 62, 0
2, 359391, Note_on_c, 0, 50, 77
2, 359391, Note_on_c, 0, 54, 81
2, 359391, Note_on_c, 0, 58, 80
2, 359391, Note_on_c, 0, 62, 81
2, 359446, Control_c, 0, 64, 127
2, 359464, Note_on_c, 0, 62, 0
2, 359465, Note_on_c, 0, 64, 73
2, 359473, Note_on_c, 0, 58, 0
2, 359473, Note_on_c, 0, 54, 0
2, 359485, Note_on_c, 0, 50, 0
2, 359502, Note_on_c, 0, 64, 0
2, 359502, Note_on_c, 0, 66, 73
2, 359504, Note_on_c, 0, 76, 73
2, 359513, Note_on_c, 0, 42, 73
2, 359519, Note_on_c, 0, 30, 73
2, 359529, Note_on_c, 0, 76, 0
2, 359533, Note_on_c, 0, 66, 0
2, 359542, Note_on_c, 0, 30, 0
2, 359550, Note_on_c, 0, 42, 0
2, 359561, Note_on_c, 0, 66, 73
2, 359579, Control_c, 0, 64, 0
2, 359596, Note_on_c, 0, 66, 0
2, 359608, Note_on_c, 0, 76, 74
2, 359609, Note_on_c, 0, 78, 74
2, 359619, Note_on_c, 0, 46, 79
2, 359619, Note_on_c, 0, 58, 80
2, 359632, Note_on_c, 0, 76, 0
2, 359634, Note_on_c, 0, 78, 0
2, 359673, Note_on_c, 0, 78, 74
2, 359673, Note_on_c, 0, 90, 76
2, 359690, Note_on_c, 0, 46, 0
2, 359690, Note_on_c, 0, 58, 0
2, 359700, Note_on_c, 0, 78, 0
2, 359700, Note_on_c, 0, 90, 0
2, 359732, Note_on_c, 0, 42, 78
2, 359732, Note_on_c, 0, 54, 81
2, 359796, Note_on_c, 0, 76, 74
2, 359798, Control_c, 0, 64, 127
2, 359815, Note_on_c, 0, 54, 0
2, 359815, Note_on_c, 0, 42, 0
2, 359832, Note_on_c, 0, 76, 0
2, 359834, Note_on_c, 0, 58, 87
2, 359834, Note_on_c, 0, 78, 81
2, 359834, Note_on_c, 0, 88, 82
2, 359836, Note_on_c, 0, 46, 88
2, 359857, Note_on_c, 0, 88, 0
2, 359857, Note_on_c, 0, 78, 0
2, 359861, Note_on_c, 0, 46, 0
2, 359869, Note_on_c, 0, 58, 0
2, 359888, Note_on_c, 0, 78, 81
2, 359928, Note_on_c, 0, 78, 0
2, 359928, Note_on_c, 0, 88, 83
2, 359928, Note_on_c, 0, 90, 82
2, 359930, Control_c, 0, 64, 0
2, 359938, Note_on_c, 0, 50, 83
2, 359938, Note_on_c, 0, 62, 84
2, 359953, Note_on_c, 0, 90, 0
2, 359953, Note_on_c, 0, 88, 0
2, 359993, Note_on_c, 0, 90, 82
2, 359995, Note_on_c, 0, 102, 86
2, 360003, Note_on_c, 0, 50, 0
2, 360003, Note_on_c, 0, 62, 0
2, 360020, Note_on_c, 0, 90, 0
2, 360022, Note_on_c, 0, 102, 0
2, 360040, Note_on_c, 0, 61, 83
2, 360041, Note_on_c, 0, 50, 85
2, 360053, Note_on_c, 0, 54, 87
2, 360089, Control_c, 0, 64, 127
2, 360107, Note_on_c, 0, 54, 0
2, 360107, Note_on_c, 0, 50, 0
2, 360107, Note_on_c, 0, 61, 0
2, 360116, Note_on_c, 0, 62, 77
2, 360160, Note_on_c, 0, 35, 76
2, 360166, Note_on_c, 0, 62, 0
2, 360170, Note_on_c, 0, 42, 73
2, 360170, Note_on_c, 0, 66, 66
2, 360187, Note_on_c, 0, 35, 0
2, 360197, Note_on_c, 0, 42, 0
2, 360208, Note_on_c, 0, 66, 0
2, 360230, Note_on_c, 0, 73, 71
2, 360255, Note_on_c, 0, 73, 0
2, 360258, Control_c, 0, 64, 0
2, 360285, Note_on_c, 0, 74, 73
2, 360289, Note_on_c, 0, 50, 76
2, 360289, Note_on_c, 0, 54, 77
2, 360289, Note_on_c, 0, 59, 78
2, 360331, Note_on_c, 0, 74, 0
2, 360335, Note_on_c, 0, 78, 74
2, 360345, Control_c, 0, 64, 127
2, 360362, Note_on_c, 0, 78, 0
2, 360372, Note_on_c, 0, 59, 0
2, 360393, Note_on_c, 0, 54, 0
2, 360393, Note_on_c, 0, 50, 0
2, 360402, Note_on_c, 0, 78, 74
2, 360402, Note_on_c, 0, 90, 76
2, 360439, Note_on_c, 0, 78, 0
2, 360450, Note_on_c, 0, 90, 0
2, 360462, Note_on_c, 0, 46, 70
2, 360462, Note_on_c, 0, 58, 69
2, 360491, Note_on_c, 0, 58, 0
2, 360491, Note_on_c, 0, 46, 0
2, 360521, Note_on_c, 0, 47, 75
2, 360521, Note_on_c, 0, 59, 78
2, 360548, Note_on_c, 0, 59, 0
2, 360548, Note_on_c, 0, 47, 0
2, 360575, Note_on_c, 0, 49, 82
2, 360575, Note_on_c, 0, 61, 84
2, 360614, Note_on_c, 0, 61, 0
2, 360614, Note_on_c, 0, 49, 0
2, 360635, Note_on_c, 0, 50, 83
2, 360635, Note_on_c, 0, 62, 85
2, 360654, Control_c, 0, 64, 0
2, 360662, Note_on_c, 0, 62, 0
2, 360671, Note_on_c, 0, 50, 0
2, 360694, Note_on_c, 0, 52, 80
2, 360694, Note_on_c, 0, 64, 87
2, 360717, Note_on_c, 0, 64, 0
2, 360721, Note_on_c, 0, 52, 0
2, 360738, Note_on_c, 0, 66, 89
2, 360740, Note_on_c, 0, 54, 80
2, 360750, Control_c, 0, 64, 127
2, 360767, Note_on_c, 0, 66, 0
2, 360784, Note_on_c, 0, 54, 0
2, 360796, Note_on_c, 0, 71, 84
2, 360842, Note_on_c, 0, 71, 0
2, 360856, Note_on_c, 0, 38, 80
2, 360856, Note_on_c, 0, 50, 80
2, 360856, Note_on_c, 0, 74, 81
2, 360880, Note_on_c, 0, 50, 0
2, 360880, Note_on_c, 0, 38, 0
2, 360900, Note_on_c, 0, 83, 83
2, 360928, Note_on_c, 0, 83, 0
2, 360930, Note_on_c, 0, 74, 0
2, 360957, Note_on_c, 0, 50, 80
2, 360957, Note_on_c, 0, 54, 80
2, 360959, Note_on_c, 0, 59, 79
2, 360969, Control_c, 0, 64, 0
2, 360969, Note_on_c, 0, 83, 83
2, 360976, Note_on_c, 0, 54, 0
2, 360986, Note_on_c, 0, 50, 0
2, 360986, Note_on_c, 0, 59, 0
2, 361007, Note_on_c, 0, 83, 0
2, 361019, Note_on_c, 0, 86, 83
2, 361021, Note_on_c, 0, 95, 83
2, 361059, Note_on_c, 0, 86, 0
2, 361072, Note_on_c, 0, 95, 0
2, 361147, Note_on_c, 0, 55, 80
2, 361149, Note_on_c, 0, 67, 105
2, 361201, Note_on_c, 0, 71, 100
2, 361207, Control_c, 0, 64, 127
2, 361222, Note_on_c, 0, 71, 0
2, 361222, Note_on_c, 0, 67, 0
2, 361224, Note_on_c, 0, 55, 0
2, 361251, Note_on_c, 0, 38, 80
2, 361257, Note_on_c, 0, 50, 80
2, 361257, Note_on_c, 0, 74, 87
2, 361278, Note_on_c, 0, 50, 0
2, 361278, Note_on_c, 0, 38, 0
2, 361307, Note_on_c, 0, 83, 87
2, 361320, Note_on_c, 0, 74, 0
2, 361328, Note_on_c, 0, 83, 0
2, 361341, Note_on_c, 0, 50, 80
2, 361341, Note_on_c, 0, 59, 80
2, 361347, Control_c, 0, 64, 0
2, 361349, Note_on_c, 0, 54, 80
2, 361355, Note_on_c, 0, 83, 83
2, 361364, Note_on_c, 0, 59, 0
2, 361364, Note_on_c, 0, 50, 0
2, 361372, Note_on_c, 0, 54, 0
2, 361387, Note_on_c, 0, 95, 83
2, 361389, Note_on_c, 0, 83, 0
2, 361389, Note_on_c, 0, 86, 83
2, 361420, Note_on_c, 0, 95, 0
2, 361424, Note_on_c, 0, 86, 0
2, 361462, Note_on_c, 0, 54, 80
2, 361462, Note_on_c, 0, 66, 86
2, 361516, Note_on_c, 0, 66, 0
2, 361518, Control_c, 0, 64, 127
2, 361537, Note_on_c, 0, 67, 80
2, 361547, Note_on_c, 0, 54, 0
2, 361564, Note_on_c, 0, 67, 0
2, 361577, Note_on_c, 0, 79, 81
2, 361579, Note_on_c, 0, 37, 80
2, 361579, Note_on_c, 0, 49, 80
2, 361602, Note_on_c, 0, 37, 0
2, 361614, Note_on_c, 0, 49, 0
2, 361643, Note_on_c, 0, 83, 83
2, 361658, Note_on_c, 0, 79, 0
2, 361670, Note_on_c, 0, 83, 0
2, 361679, Note_on_c, 0, 55, 80
2, 361681, Note_on_c, 0, 59, 80
2, 361683, Note_on_c, 0, 52, 80
2, 361700, Note_on_c, 0, 83, 82
2, 361710, Note_on_c, 0, 55, 0
2, 361714, Note_on_c, 0, 52, 0
2, 361718, Note_on_c, 0, 59, 0
2, 361735, Note_on_c, 0, 83, 0
2, 361737, Control_c, 0, 64, 0
2, 361737, Note_on_c, 0, 91, 83
2, 361737, Note_on_c, 0, 95, 82
2, 361764, Note_on_c, 0, 91, 0
2, 361773, Note_on_c, 0, 95, 0
2, 361775, Note_on_c, 0, 52, 80
2, 361785, Note_on_c, 0, 54, 80
2, 361802, Note_on_c, 0, 64, 83
2, 361837, Control_c, 0, 64, 127
2, 361854, Note_on_c, 0, 64, 0
2, 361860, Note_on_c, 0, 67, 80
2, 361865, Note_on_c, 0, 52, 0
2, 361885, Note_on_c, 0, 67, 0
2, 361906, Note_on_c, 0, 54, 0
2, 361906, Note_on_c, 0, 79, 81
2, 361917, Note_on_c, 0, 51, 74
2, 361917, Note_on_c, 0, 63, 72
2, 361940, Note_on_c, 0, 51, 0
2, 361950, Note_on_c, 0, 63, 0
2, 361960, Note_on_c, 0, 79, 0
2, 361961, Note_on_c, 0, 83, 83
2, 362004, Note_on_c, 0, 83, 0
2, 362025, Note_on_c, 0, 52, 80
2, 362025, Note_on_c, 0, 64, 80
2, 362036, Note_on_c, 0, 83, 82
2, 362063, Control_c, 0, 64, 0
2, 362071, Note_on_c, 0, 83, 0
2, 362080, Note_on_c, 0, 91, 83
2, 362080, Note_on_c, 0, 95, 83
2, 362096, Note_on_c, 0, 64, 0
2, 362096, Note_on_c, 0, 52, 0
2, 362107, Note_on_c, 0, 91, 0
2, 362107, Note_on_c, 0, 95, 0
2, 362178, Note_on_c, 0, 55, 84
2, 362178, Note_on_c, 0, 58, 100
2, 362178, Note_on_c, 0, 67, 99
2, 362186, Note_on_c, 0, 61, 101
2, 362221, Control_c, 0, 64, 127
2, 362228, Note_on_c, 0, 61, 0
2, 362238, Note_on_c, 0, 67, 0
2, 362240, Note_on_c, 0, 58, 0
2, 362240, Note_on_c, 0, 55, 0
2, 362259, Note_on_c, 0, 61, 92
2, 362305, Note_on_c, 0, 34, 90
2, 362305, Note_on_c, 0, 46, 86
2, 362305, Note_on_c, 0, 64, 82
2, 362309, Note_on_c, 0, 61, 0
2, 362330, Note_on_c, 0, 34, 0
2, 362330, Note_on_c, 0, 46, 0
2, 362338, Note_on_c, 0, 64, 0
2, 362363, Note_on_c, 0, 73, 81
2, 362378, Control_c, 0, 64, 0
2, 362384, Note_on_c, 0, 73, 0
2, 362405, Note_on_c, 0, 66, 82
2, 362407, Note_on_c, 0, 54, 80
2, 362407, Note_on_c, 0, 58, 80
2, 362416, Note_on_c, 0, 61, 79
2, 362426, Note_on_c, 0, 73, 81
2, 362432, Note_on_c, 0, 58, 0
2, 362451, Note_on_c, 0, 61, 0
2, 362468, Note_on_c, 0, 73, 0
2, 362472, Note_on_c, 0, 76, 81
2, 362472, Note_on_c, 0, 85, 83
2, 362489, Note_on_c, 0, 54, 0
2, 362489, Note_on_c, 0, 66, 0
2, 362507, Note_on_c, 0, 76, 0
2, 362526, Note_on_c, 0, 58, 80
2, 362530, Note_on_c, 0, 54, 80
2, 362530, Note_on_c, 0, 66, 84
2, 362536, Note_on_c, 0, 85, 0
2, 362541, Note_on_c, 0, 61, 80
2, 362587, Control_c, 0, 64, 127
2, 362607, Note_on_c, 0, 61, 0
2, 362607, Note_on_c, 0, 66, 0
2, 362607, Note_on_c, 0, 54, 0
2, 362607, Note_on_c, 0, 58, 0
2, 362607, Note_on_c, 0, 73, 80
2, 362649, Note_on_c, 0, 30, 80
2, 362649, Note_on_c, 0, 42, 80
2, 362664, Note_on_c, 0, 82, 83
2, 362672, Note_on_c, 0, 42, 0
2, 362674, Note_on_c, 0, 30, 0
2, 362681, Note_on_c, 0, 73, 0
2, 362701, Note_on_c, 0, 82, 0
2, 362712, Note_on_c, 0, 85, 83
2, 362751, Note_on_c, 0, 85, 0
2, 362770, Note_on_c, 0, 58, 80
2, 362770, Note_on_c, 0, 61, 80
2, 362770, Note_on_c, 0, 64, 84
2, 362772, Note_on_c, 0, 85, 88
2, 362774, Note_on_c, 0, 52, 80
2, 362816, Note_on_c, 0, 94, 86
2, 362816, Note_on_c, 0, 97, 87
2, 362833, Note_on_c, 0, 85, 0
2, 362833, Note_on_c, 0, 64, 0
2, 362843, Note_on_c, 0, 52, 0
2, 362845, Note_on_c, 0, 97, 0
2, 362856, Note_on_c, 0, 94, 0
2, 362868, Control_c, 0, 64, 0
2, 362877, Note_on_c, 0, 58, 0
2, 362887, Note_on_c, 0, 61, 0
2, 362908, Note_on_c, 0, 52, 83
2, 362908, Note_on_c, 0, 55, 85
2, 362908, Note_on_c, 0, 64, 88
2, 362910, Note_on_c, 0, 59, 86
2, 362962, Control_c, 0, 64, 127
2, 362975, Note_on_c, 0, 67, 81
2, 362979, Note_on_c, 0, 52, 0
2, 362983, Note_on_c, 0, 55, 0
2, 362985, Note_on_c, 0, 64, 0
2, 362994, Note_on_c, 0, 59, 0
2, 363012, Note_on_c, 0, 31, 80
2, 363012, Note_on_c, 0, 43, 80
2, 363021, Note_on_c, 0, 71, 81
2, 363029, Note_on_c, 0, 67, 0
2, 363037, Note_on_c, 0, 31, 0
2, 363048, Note_on_c, 0, 43, 0
2, 363069, Note_on_c, 0, 79, 81
2, 363075, Note_on_c, 0, 71, 0
2, 363113, Note_on_c, 0, 79, 0
2, 363115, Note_on_c, 0, 50, 80
2, 363115, Note_on_c, 0, 62, 81
2, 363117, Note_on_c, 0, 59, 80
2, 363125, Control_c, 0, 64, 0
2, 363127, Note_on_c, 0, 55, 81
2, 363127, Note_on_c, 0, 83, 83
2, 363140, Note_on_c, 0, 50, 0
2, 363144, Note_on_c, 0, 59, 0
2, 363150, Note_on_c, 0, 62, 0
2, 363156, Note_on_c, 0, 55, 0
2, 363161, Note_on_c, 0, 83, 0
2, 363173, Note_on_c, 0, 86, 82
2, 363173, Note_on_c, 0, 95, 83
2, 363202, Note_on_c, 0, 86, 0
2, 363202, Note_on_c, 0, 50, 80
2, 363209, Note_on_c, 0, 95, 0
2, 363213, Note_on_c, 0, 52, 80
2, 363246, Note_on_c, 0, 62, 82
2, 363307, Control_c, 0, 64, 127
2, 363313, Note_on_c, 0, 67, 79
2, 363327, Note_on_c, 0, 62, 0
2, 363338, Note_on_c, 0, 50, 0
2, 363348, Note_on_c, 0, 52, 0
2, 363359, Note_on_c, 0, 71, 81
2, 363363, Note_on_c, 0, 67, 0
2, 363371, Note_on_c, 0, 49, 82
2, 363371, Note_on_c, 0, 61, 83
2, 363405, Note_on_c, 0, 49, 0
2, 363405, Note_on_c, 0, 79, 81
2, 363413, Note_on_c, 0, 71, 0
2, 363423, Note_on_c, 0, 61, 0
2, 363444, Note_on_c, 0, 79, 0
2, 363465, Note_on_c, 0, 50, 80
2, 363465, Note_on_c, 0, 62, 81
2, 363465, Note_on_c, 0, 83, 83
2, 363501, Note_on_c, 0, 83, 0
2, 363505, Control_c, 0, 64, 0
2, 363519, Note_on_c, 0, 95, 83
2, 363520, Note_on_c, 0, 86, 83
2, 363549, Note_on_c, 0, 86, 0
2, 363557, Note_on_c, 0, 95, 0
2, 363607, Note_on_c, 0, 62, 0
2, 363609, Note_on_c, 0, 50, 0
2, 363689, Note_on_c, 0, 71, 95
2, 363691, Note_on_c, 0, 59, 111
2, 363714, Note_on_c, 0, 59, 0
2, 363747, Control_c, 0, 64, 127
2, 363751, Note_on_c, 0, 59, 101
2, 363776, Note_on_c, 0, 71, 0
2, 363797, Note_on_c, 0, 66, 58
2, 363799, Note_on_c, 0, 26, 93
2, 363808, Note_on_c, 0, 38, 92
2, 363824, Note_on_c, 0, 59, 0
2, 363839, Note_on_c, 0, 26, 0
2, 363841, Note_on_c, 0, 38, 0
2, 363847, Note_on_c, 0, 71, 65
2, 363862, Note_on_c, 0, 66, 0
2, 363883, Note_on_c, 0, 71, 0
2, 363910, Control_c, 0, 64, 0
2, 363912, Note_on_c, 0, 47, 81
2, 363912, Note_on_c, 0, 59, 81
2, 363922, Note_on_c, 0, 71, 70
2, 363976, Note_on_c, 0, 47, 0
2, 363979, Note_on_c, 0, 74, 80
2, 363979, Note_on_c, 0, 83, 83
2, 363981, Note_on_c, 0, 59, 0
2, 363985, Note_on_c, 0, 71, 0
2, 364024, Note_on_c, 0, 74, 0
2, 364025, Note_on_c, 0, 83, 0
2, 364037, Note_on_c, 0, 47, 90
2, 364039, Note_on_c, 0, 59, 91
2, 364083, Control_c, 0, 64, 127
2, 364093, Note_on_c, 0, 78, 81
2, 364095, Note_on_c, 0, 71, 81
2, 364102, Note_on_c, 0, 47, 0
2, 364104, Note_on_c, 0, 59, 0
2, 364129, Note_on_c, 0, 71, 0
2, 364141, Note_on_c, 0, 62, 87
2, 364143, Note_on_c, 0, 50, 88
2, 364150, Note_on_c, 0, 78, 0
2, 364150, Note_on_c, 0, 83, 83
2, 364181, Note_on_c, 0, 83, 0
2, 364181, Note_on_c, 0, 50, 0
2, 364181, Note_on_c, 0, 62, 0
2, 364210, Note_on_c, 0, 78, 80
2, 364210, Note_on_c, 0, 83, 83
2, 364252, Note_on_c, 0, 78, 0
2, 364252, Note_on_c, 0, 90, 83
2, 364254, Note_on_c, 0, 54, 89
2, 364254, Note_on_c, 0, 66, 80
2, 364262, Note_on_c, 0, 83, 0
2, 364281, Note_on_c, 0, 90, 0
2, 364298, Control_c, 0, 64, 0
2, 364308, Note_on_c, 0, 83, 83
2, 364308, Note_on_c, 0, 90, 83
2, 364308, Note_on_c, 0, 95, 82
2, 364335, Note_on_c, 0, 90, 0
2, 364335, Note_on_c, 0, 83, 0
2, 364342, Note_on_c, 0, 95, 0
2, 364392, Note_on_c, 0, 54, 0
2, 364392, Note_on_c, 0, 66, 0
2, 364484, Control_c, 0, 64, 127
2, 364507, Note_on_c, 0, 71, 112
2, 364509, Note_on_c, 0, 59, 73
2, 364536, Note_on_c, 0, 59, 0
2, 364567, Note_on_c, 0, 59, 73
2, 364590, Note_on_c, 0, 71, 0
2, 364623, Note_on_c, 0, 59, 0
2, 364623, Note_on_c, 0, 28, 73
2, 364623, Note_on_c, 0, 40, 73
2, 364623, Note_on_c, 0, 67, 89
2, 364646, Note_on_c, 0, 40, 0
2, 364659, Note_on_c, 0, 28, 0
2, 364676, Note_on_c, 0, 67, 0
2, 364678, Note_on_c, 0, 71, 84
2, 364703, Note_on_c, 0, 71, 0
2, 364722, Note_on_c, 0, 47, 67
2, 364724, Note_on_c, 0, 59, 68
2, 364732, Note_on_c, 0, 71, 80
2, 364749, Note_on_c, 0, 47, 0
2, 364751, Note_on_c, 0, 59, 0
2, 364776, Note_on_c, 0, 71, 0
2, 364780, Note_on_c, 0, 79, 81
2, 364780, Note_on_c, 0, 83, 83
2, 364788, Control_c, 0, 64, 0
2, 364815, Note_on_c, 0, 79, 0
2, 364836, Note_on_c, 0, 83, 0
2, 364836, Note_on_c, 0, 47, 80
2, 364838, Note_on_c, 0, 59, 81
2, 364884, Control_c, 0, 64, 127
2, 364901, Note_on_c, 0, 59, 0
2, 364901, Note_on_c, 0, 47, 0
2, 364914, Note_on_c, 0, 71, 81
2, 364970, Note_on_c, 0, 71, 0
2, 364974, Note_on_c, 0, 53, 81
2, 364974, Note_on_c, 0, 59, 81
2, 364974, Note_on_c, 0, 62, 80
2, 364974, Note_on_c, 0, 79, 81
2, 365010, Note_on_c, 0, 62, 0
2, 365010, Note_on_c, 0, 53, 0
2, 365020, Note_on_c, 0, 59, 0
2, 365030, Note_on_c, 0, 79, 0
2, 365032, Note_on_c, 0, 83, 83
2, 365062, Note_on_c, 0, 83, 0
2, 365091, Note_on_c, 0, 83, 83
2, 365101, Note_on_c, 0, 62, 80
2, 365101, Note_on_c, 0, 67, 81
2, 365103, Note_on_c, 0, 59, 80
2, 365128, Note_on_c, 0, 83, 0
2, 365139, Control_c, 0, 64, 0
2, 365139, Note_on_c, 0, 91, 83
2, 365139, Note_on_c, 0, 95, 82
2, 365176, Note_on_c, 0, 95, 0
2, 365176, Note_on_c, 0, 91, 0
2, 365206, Note_on_c, 0, 67, 0
2, 365216, Note_on_c, 0, 59, 0
2, 365237, Note_on_c, 0, 62, 0
2, 365330, Note_on_c, 0, 59, 79
2, 365330, Note_on_c, 0, 71, 113
2, 365359, Note_on_c, 0, 59, 0
2, 365388, Note_on_c, 0, 59, 73
2, 365397, Control_c, 0, 64, 127
2, 365413, Note_on_c, 0, 71, 0
2, 365434, Note_on_c, 0, 59, 0
2, 365449, Note_on_c, 0, 62, 73
2, 365451, Note_on_c, 0, 71, 92
2, 365453, Note_on_c, 0, 42, 73
2, 365455, Note_on_c, 0, 30, 73
2, 365476, Note_on_c, 0, 42, 0
2, 365476, Note_on_c, 0, 62, 0
2, 365476, Note_on_c, 0, 71, 0
2, 365486, Note_on_c, 0, 30, 0
2, 365507, Note_on_c, 0, 71, 87
2, 365530, Note_on_c, 0, 71, 0
2, 365553, Note_on_c, 0, 74, 83
2, 365553, Note_on_c, 0, 83, 83
2, 365557, Control_c, 0, 64, 0
2, 365562, Note_on_c, 0, 66, 82
2, 365566, Note_on_c, 0, 54, 73
2, 365589, Note_on_c, 0, 74, 0
2, 365591, Note_on_c, 0, 83, 0
2, 365630, Note_on_c, 0, 78, 78
2, 365630, Note_on_c, 0, 86, 78
2, 365630, Note_on_c, 0, 90, 77
2, 365649, Note_on_c, 0, 66, 0
2, 365649, Note_on_c, 0, 54, 0
2, 365655, Note_on_c, 0, 90, 0
2, 365655, Note_on_c, 0, 78, 0
2, 365658, Note_on_c, 0, 86, 0
2, 365676, Control_c, 0, 64, 127
2, 365680, Note_on_c, 0, 55, 73
2, 365680, Note_on_c, 0, 67, 75
2, 365681, Note_on_c, 0, 58, 73
2, 365691, Note_on_c, 0, 61, 73
2, 365703, Note_on_c, 0, 58, 0
2, 365704, Note_on_c, 0, 67, 0
2, 365706, Note_on_c, 0, 55, 0
2, 365714, Note_on_c, 0, 61, 0
2, 365726, Control_c, 0, 64, 0
2, 365735, Note_on_c, 0, 72, 74
2, 365735, Note_on_c, 0, 84, 76
2, 365764, Note_on_c, 0, 72, 0
2, 365776, Note_on_c, 0, 84, 0
2, 365793, Note_on_c, 0, 66, 70
2, 365797, Note_on_c, 0, 54, 59
2, 365797, Note_on_c, 0, 58, 58
2, 365804, Note_on_c, 0, 85, 75
2, 365806, Note_on_c, 0, 61, 57
2, 365806, Note_on_c, 0, 73, 74
2, 365822, Control_c, 0, 64, 127
2, 365833, Note_on_c, 0, 73, 0
2, 365833, Note_on_c, 0, 85, 0
2, 365839, Note_on_c, 0, 66, 0
2, 365848, Note_on_c, 0, 61, 0
2, 365852, Note_on_c, 0, 58, 0
2, 365862, Note_on_c, 0, 54, 0
2, 365862, Note_on_c, 0, 74, 76
2, 365862, Note_on_c, 0, 86, 79
2, 365889, Note_on_c, 0, 86, 0
2, 365889, Note_on_c, 0, 74, 0
2, 365918, Note_on_c, 0, 87, 85
2, 365920, Note_on_c, 0, 75, 84
2, 365944, Note_on_c, 0, 87, 0
2, 365946, Note_on_c, 0, 75, 0
2, 365977, Note_on_c, 0, 61, 97
2, 365977, Note_on_c, 0, 76, 82
2, 365979, Note_on_c, 0, 49, 98
2, 365979, Note_on_c, 0, 88, 83
2, 366002, Note_on_c, 0, 49, 0
2, 366002, Note_on_c, 0, 61, 0
2, 366002, Note_on_c, 0, 76, 0
2, 366006, Note_on_c, 0, 88, 0
2, 366023, Note_on_c, 0, 64, 81
2, 366027, Note_on_c, 0, 54, 92
2, 366027, Note_on_c, 0, 77, 84
2, 366027, Note_on_c, 0, 89, 87
2, 366029, Note_on_c, 0, 52, 91
2, 366050, Note_on_c, 0, 52, 0
2, 366050, Note_on_c, 0, 77, 0
2, 366050, Note_on_c, 0, 89, 0
2, 366050, Note_on_c, 0, 64, 0
2, 366060, Note_on_c, 0, 54, 0
2, 366079, Note_on_c, 0, 90, 95
2, 366083, Note_on_c, 0, 78, 94
2, 366104, Note_on_c, 0, 78, 0
2, 366110, Note_on_c, 0, 90, 0
2, 366136, Note_on_c, 0, 79, 98
2, 366136, Note_on_c, 0, 91, 102
2, 366140, Note_on_c, 0, 35, 98
2, 366140, Note_on_c, 0, 47, 99
2, 366165, Note_on_c, 0, 47, 0
2, 366165, Note_on_c, 0, 35, 0
2, 366165, Note_on_c, 0, 79, 0
2, 366175, Note_on_c, 0, 91, 0
2, 366194, Note_on_c, 0, 92, 106
2, 366196, Note_on_c, 0, 80, 105
2, 366219, Note_on_c, 0, 80, 0
2, 366221, Note_on_c, 0, 92, 0
2, 366250, Note_on_c, 0, 93, 111
2, 366252, Note_on_c, 0, 62, 98
2, 366252, Note_on_c, 0, 81, 113
2, 366256, Note_on_c, 0, 50, 97
2, 366256, Note_on_c, 0, 54, 96
2, 366277, Note_on_c, 0, 93, 0
2, 366279, Note_on_c, 0, 50, 0
2, 366279, Note_on_c, 0, 62, 0
2, 366279, Note_on_c, 0, 81, 0
2, 366288, Note_on_c, 0, 54, 0
2, 366319, Note_on_c, 0, 82, 114
2, 366319, Note_on_c, 0, 94, 114
2, 366344, Note_on_c, 0, 94, 0
2, 366344, Note_on_c, 0, 82, 0
2, 366375, Note_on_c, 0, 86, 114
2, 366375, Note_on_c, 0, 90, 115
2, 366376, Note_on_c, 0, 83, 114
2, 366376, Note_on_c, 0, 95, 115
2, 366378, Note_on_c, 0, 35, 107
2, 366378, Note_on_c, 0, 47, 107
2, 366384, Control_c, 0, 64, 0
2, 366458, Note_on_c, 0, 95, 0
2, 366458, Note_on_c, 0, 90, 0
2, 366458, Note_on_c, 0, 86, 0
2, 366468, Note_on_c, 0, 83, 0
2, 366468, Note_on_c, 0, 47, 0
2, 366470, Note_on_c, 0, 35, 0
2, 366688, Note_on_c, 0, 74, 88
2, 366688, Note_on_c, 0, 86, 68
2, 366717, Note_on_c, 0, 86, 0
2, 366717, Note_on_c, 0, 74, 0
2, 366812, Note_on_c, 0, 75, 65
2, 366812, Note_on_c, 0, 87, 52
2, 366837, Note_on_c, 0, 87, 0
2, 366847, Note_on_c, 0, 75, 0
2, 366878, Control_c, 0, 67, 127
2, 366935, Note_on_c, 0, 88, 51
2, 366937, Note_on_c, 0, 42, 54
2, 366937, Note_on_c, 0, 76, 59
2, 366947, Note_on_c, 0, 54, 54
2, 366954, Control_c, 0, 64, 127
2, 366970, Note_on_c, 0, 88, 0
2, 366974, Note_on_c, 0, 42, 0
2, 366979, Note_on_c, 0, 86, 60
2, 366993, Note_on_c, 0, 54, 0
2, 367039, Note_on_c, 0, 86, 0
2, 367039, Note_on_c, 0, 84, 61
2, 367048, Note_on_c, 0, 54, 58
2, 367048, Note_on_c, 0, 60, 58
2, 367050, Note_on_c, 0, 57, 57
2, 367064, Note_on_c, 0, 84, 0
2, 367085, Note_on_c, 0, 57, 0
2, 367096, Note_on_c, 0, 83, 61
2, 367100, Note_on_c, 0, 76, 0
2, 367114, Note_on_c, 0, 60, 0
2, 367121, Note_on_c, 0, 54, 0
2, 367121, Note_on_c, 0, 83, 0
2, 367150, Note_on_c, 0, 81, 60
2, 367152, Note_on_c, 0, 64, 61
2, 367160, Note_on_c, 0, 57, 56
2, 367160, Note_on_c, 0, 60, 55
2, 367160, Note_on_c, 0, 69, 63
2, 367177, Note_on_c, 0, 64, 0
2, 367185, Note_on_c, 0, 60, 0
2, 367185, Note_on_c, 0, 57, 0
2, 367194, Control_c, 0, 64, 0
2, 367202, Note_on_c, 0, 81, 0
2, 367214, Note_on_c, 0, 79, 57
2, 367264, Note_on_c, 0, 50, 54
2, 367265, Note_on_c, 0, 38, 54
2, 367267, Note_on_c, 0, 78, 55
2, 367271, Note_on_c, 0, 79, 0
2, 367288, Control_c, 0, 64, 127
2, 367302, Note_on_c, 0, 69, 0
2, 367315, Note_on_c, 0, 38, 0
2, 367315, Note_on_c, 0, 50, 0
2, 367323, Note_on_c, 0, 78, 0
2, 367323, Note_on_c, 0, 79, 58
2, 367365, Control_c, 0, 64, 0
2, 367373, Note_on_c, 0, 79, 0
2, 367375, Note_on_c, 0, 78, 62
2, 367375, Note_on_c, 0, 83, 65
2, 367383, Note_on_c, 0, 57, 58
2, 367383, Note_on_c, 0, 60, 58
2, 367383, Note_on_c, 0, 62, 57
2, 367383, Note_on_c, 0, 66, 63
2, 367409, Note_on_c, 0, 66, 0
2, 367409, Note_on_c, 0, 60, 0
2, 367409, Note_on_c, 0, 57, 0
2, 367409, Note_on_c, 0, 62, 0
2, 367419, Note_on_c, 0, 83, 0
2, 367431, Note_on_c, 0, 78, 0
2, 367432, Note_on_c, 0, 76, 59
2, 367469, Note_on_c, 0, 76, 0
2, 367469, Note_on_c, 0, 66, 60
2, 367473, Note_on_c, 0, 60, 58
2, 367473, Note_on_c, 0, 69, 64
2, 367473, Note_on_c, 0, 74, 63
2, 367473, Note_on_c, 0, 84, 66
2, 367482, Note_on_c, 0, 62, 58
2, 367496, Note_on_c, 0, 62, 0
2, 367496, Note_on_c, 0, 69, 0
2, 367500, Note_on_c, 0, 66, 0
2, 367507, Note_on_c, 0, 84, 0
2, 367509, Note_on_c, 0, 60, 0
2, 367519, Note_on_c, 0, 74, 0
2, 367519, Note_on_c, 0, 72, 58
2, 367555, Note_on_c, 0, 72, 0
2, 367592, Note_on_c, 0, 43, 54
2, 367592, Note_on_c, 0, 55, 54
2, 367592, Note_on_c, 0, 74, 62
2, 367592, Note_on_c, 0, 86, 65
2, 367598, Control_c, 0, 64, 127
2, 367619, Note_on_c, 0, 55, 0
2, 367619, Note_on_c, 0, 43, 0
2, 367628, Note_on_c, 0, 86, 0
2, 367638, Note_on_c, 0, 74, 0
2, 367638, Note_on_c, 0, 84, 61
2, 367672, Note_on_c, 0, 84, 0
2, 367699, Note_on_c, 0, 83, 61
2, 367709, Note_on_c, 0, 59, 58
2, 367709, Note_on_c, 0, 62, 58
2, 367720, Note_on_c, 0, 55, 57
2, 367736, Note_on_c, 0, 62, 0
2, 367742, Note_on_c, 0, 83, 0
2, 367745, Note_on_c, 0, 59, 0
2, 367745, Note_on_c, 0, 55, 0
2, 367745, Note_on_c, 0, 81, 61
2, 367782, Note_on_c, 0, 81, 0
2, 367803, Note_on_c, 0, 79, 59
2, 367813, Note_on_c, 0, 59, 58
2, 367813, Note_on_c, 0, 62, 58
2, 367813, Note_on_c, 0, 67, 61
2, 367815, Note_on_c, 0, 55, 57
2, 367840, Note_on_c, 0, 62, 0
2, 367840, Note_on_c, 0, 59, 0
2, 367841, Note_on_c, 0, 55, 0
2, 367868, Note_on_c, 0, 79, 0
2, 367868, Note_on_c, 0, 78, 59
2, 367882, Control_c, 0, 64, 0
2, 367918, Note_on_c, 0, 67, 0
2, 367924, Note_on_c, 0, 78, 0
2, 367930, Note_on_c, 0, 40, 54
2, 367930, Note_on_c, 0, 79, 55
2, 367974, Note_on_c, 0, 79, 0
2, 367976, Control_c, 0, 64, 127
2, 367976, Note_on_c, 0, 78, 59
2, 368005, Note_on_c, 0, 40, 0
2, 368024, Note_on_c, 0, 78, 0
2, 368032, Note_on_c, 0, 76, 64
2, 368033, Note_on_c, 0, 59, 61
2, 368033, Note_on_c, 0, 64, 64
2, 368035, Note_on_c, 0, 55, 62
2, 368043, Note_on_c, 0, 81, 68
2, 368060, Note_on_c, 0, 55, 0
2, 368060, Note_on_c, 0, 64, 0
2, 368066, Note_on_c, 0, 81, 0
2, 368066, Note_on_c, 0, 76, 0
2, 368072, Note_on_c, 0, 59, 0
2, 368076, Note_on_c, 0, 78, 63
2, 368081, Control_c, 0, 64, 0
2, 368124, Note_on_c, 0, 78, 0
2, 368135, Note_on_c, 0, 64, 61
2, 368135, Note_on_c, 0, 76, 63
2, 368139, Note_on_c, 0, 55, 62
2, 368139, Note_on_c, 0, 59, 62
2, 368154, Note_on_c, 0, 64, 0
2, 368158, Note_on_c, 0, 83, 69
2, 368164, Note_on_c, 0, 76, 0
2, 368164, Note_on_c, 0, 59, 0
2, 368164, Note_on_c, 0, 55, 0
2, 368183, Note_on_c, 0, 83, 0
2, 368185, Note_on_c, 0, 74, 64
2, 368210, Note_on_c, 0, 74, 0
2, 368235, Note_on_c, 0, 45, 58
2, 368235, Note_on_c, 0, 72, 58
2, 368252, Note_on_c, 0, 84, 62
2, 368256, Control_c, 0, 64, 127
2, 368281, Note_on_c, 0, 84, 0
2, 368314, Note_on_c, 0, 52, 54
2, 368327, Note_on_c, 0, 72, 0
2, 368333, Note_on_c, 0, 45, 0
2, 368348, Note_on_c, 0, 52, 0
2, 368352, Note_on_c, 0, 60, 59
2, 368352, Note_on_c, 0, 71, 63
2, 368387, Note_on_c, 0, 60, 0
2, 368410, Note_on_c, 0, 62, 61
2, 368417, Note_on_c, 0, 71, 0
2, 368464, Note_on_c, 0, 62, 0
2, 368464, Note_on_c, 0, 64, 68
2, 368464, Note_on_c, 0, 69, 70
2, 368464, Note_on_c, 0, 76, 71
2, 368467, Note_on_c, 0, 72, 72
2, 368492, Note_on_c, 0, 72, 0
2, 368492, Note_on_c, 0, 76, 0
2, 368492, Note_on_c, 0, 69, 0
2, 368500, Note_on_c, 0, 66, 66
2, 368502, Note_on_c, 0, 64, 0
2, 368513, Control_c, 0, 64, 0
2, 368550, Note_on_c, 0, 66, 0
2, 368550, Note_on_c, 0, 67, 63
2, 368579, Note_on_c, 0, 73, 66
2, 368579, Note_on_c, 0, 83, 71
2, 368617, Control_c, 0, 64, 127
2, 368619, Note_on_c, 0, 73, 0
2, 368623, Note_on_c, 0, 74, 69
2, 368631, Note_on_c, 0, 83, 0
2, 368638, Note_on_c, 0, 67, 0
2, 368661, Note_on_c, 0, 57, 66
2, 368661, Note_on_c, 0, 61, 67
2, 368661, Note_on_c, 0, 64, 70
2, 368671, Note_on_c, 0, 76, 70
2, 368675, Note_on_c, 0, 74, 0
2, 368680, Note_on_c, 0, 64, 0
2, 368686, Note_on_c, 0, 57, 0
2, 368686, Note_on_c, 0, 61, 0
2, 368713, Note_on_c, 0, 76, 0
2, 368713, Note_on_c, 0, 78, 71
2, 368750, Note_on_c, 0, 78, 0
2, 368750, Note_on_c, 0, 79, 65
2, 368755, Note_on_c, 0, 45, 70
2, 368778, Note_on_c, 0, 79, 0
2, 368790, Note_on_c, 0, 45, 0
2, 368801, Note_on_c, 0, 81, 72
2, 368830, Control_c, 0, 64, 0
2, 368836, Note_on_c, 0, 81, 0
2, 368853, Note_on_c, 0, 38, 70
2, 368857, Note_on_c, 0, 71, 74
2, 368861, Note_on_c, 0, 74, 75
2, 368861, Note_on_c, 0, 83, 78
2, 368871, Note_on_c, 0, 78, 77
2, 368905, Note_on_c, 0, 50, 70
2, 368915, Control_c, 0, 64, 127
2, 368940, Note_on_c, 0, 50, 0
2, 368944, Note_on_c, 0, 38, 0
2, 368949, Note_on_c, 0, 57, 70
2, 368976, Note_on_c, 0, 71, 0
2, 368978, Note_on_c, 0, 60, 70
2, 368995, Note_on_c, 0, 62, 70
2, 369005, Note_on_c, 0, 83, 0
2, 369005, Note_on_c, 0, 57, 0
2, 369011, Note_on_c, 0, 78, 0
2, 369015, Note_on_c, 0, 60, 0
2, 369015, Note_on_c, 0, 74, 0
2, 369016, Note_on_c, 0, 66, 69
2, 369038, Note_on_c, 0, 69, 71
2, 369041, Note_on_c, 0, 62, 0
2, 369051, Note_on_c, 0, 66, 0
2, 369055, Note_on_c, 0, 72, 71
2, 369059, Note_on_c, 0, 69, 0
2, 369061, Note_on_c, 0, 74, 71
2, 369078, Note_on_c, 0, 72, 0
2, 369078, Note_on_c, 0, 78, 73
2, 369088, Note_on_c, 0, 80, 74
2, 369093, Note_on_c, 0, 74, 0
2, 369097, Control_c, 0, 67, 0
2, 369103, Note_on_c, 0, 78, 0
2, 369103, Note_on_c, 0, 81, 84
2, 369112, Note_on_c, 0, 80, 0
2, 369126, Note_on_c, 0, 86, 87
2, 369132, Note_on_c, 0, 81, 0
2, 369147, Note_on_c, 0, 90, 89
2, 369151, Note_on_c, 0, 86, 0
2, 369160, Note_on_c, 0, 92, 88
2, 369170, Note_on_c, 0, 90, 0
2, 369189, Note_on_c, 0, 92, 0
2, 369189, Note_on_c, 0, 93, 85
2, 369216, Note_on_c, 0, 93, 0
2, 369228, Note_on_c, 0, 98, 91
2, 369258, Note_on_c, 0, 92, 90
2, 369274, Note_on_c, 0, 98, 0
2, 369280, Note_on_c, 0, 83, 95
2, 369295, Note_on_c, 0, 92, 0
2, 369297, Note_on_c, 0, 93, 97
2, 369318, Note_on_c, 0, 83, 0
2, 369328, Note_on_c, 0, 99, 103
2, 369329, Note_on_c, 0, 86, 101
2, 369339, Note_on_c, 0, 93, 0
2, 369366, Note_on_c, 0, 99, 0
2, 369368, Note_on_c, 0, 86, 0
2, 369368, Note_on_c, 0, 84, 97
2, 369368, Note_on_c, 0, 95, 95
2, 369389, Control_c, 0, 64, 0
2, 369397, Note_on_c, 0, 84, 0
2, 369404, Note_on_c, 0, 93, 92
2, 369412, Note_on_c, 0, 95, 0
2, 369439, Note_on_c, 0, 66, 90
2, 369443, Note_on_c, 0, 93, 0
2, 369445, Note_on_c, 0, 100, 99
2, 369473, Note_on_c, 0, 96, 94
2, 369493, Control_c, 0, 64, 127
2, 369493, Note_on_c, 0, 76, 87
2, 369500, Note_on_c, 0, 96, 0
2, 369502, Note_on_c, 0, 95, 86
2, 369510, Note_on_c, 0, 100, 0
2, 369521, Note_on_c, 0, 66, 0
2, 369529, Note_on_c, 0, 76, 0
2, 369531, Note_on_c, 0, 81, 82
2, 369535, Note_on_c, 0, 95, 0
2, 369541, Note_on_c, 0, 94, 80
2, 369568, Note_on_c, 0, 94, 0
2, 369568, Note_on_c, 0, 81, 0
2, 369568, Note_on_c, 0, 93, 78
2, 369571, Note_on_c, 0, 83, 76
2, 369589, Note_on_c, 0, 84, 76
2, 369592, Note_on_c, 0, 83, 0
2, 369600, Note_on_c, 0, 93, 0
2, 369600, Note_on_c, 0, 92, 76
2, 369610, Note_on_c, 0, 84, 0
2, 369629, Note_on_c, 0, 92, 0
2, 369631, Note_on_c, 0, 91, 76
2, 369658, Note_on_c, 0, 91, 0
2, 369662, Note_on_c, 0, 90, 76
2, 369687, Note_on_c, 0, 90, 0
2, 369688, Note_on_c, 0, 89, 76
2, 369708, Control_c, 0, 64, 0
2, 369723, Note_on_c, 0, 89, 0
2, 369725, Note_on_c, 0, 93, 80
2, 369729, Note_on_c, 0, 62, 73
2, 369746, Note_on_c, 0, 69, 76
2, 369773, Note_on_c, 0, 88, 77
2, 369775, Note_on_c, 0, 77, 74
2, 369794, Control_c, 0, 64, 127
2, 369800, Note_on_c, 0, 77, 0
2, 369800, Note_on_c, 0, 93, 0
2, 369809, Note_on_c, 0, 88, 0
2, 369809, Note_on_c, 0, 69, 0
2, 369811, Note_on_c, 0, 62, 0
2, 369815, Note_on_c, 0, 89, 73
2, 369832, Note_on_c, 0, 78, 73
2, 369832, Note_on_c, 0, 95, 77
2, 369848, Note_on_c, 0, 89, 0
2, 369859, Note_on_c, 0, 78, 0
2, 369871, Note_on_c, 0, 81, 74
2, 369879, Note_on_c, 0, 86, 73
2, 369884, Note_on_c, 0, 95, 0
2, 369896, Note_on_c, 0, 81, 0
2, 369905, Note_on_c, 0, 86, 0
2, 369909, Note_on_c, 0, 87, 69
2, 369946, Note_on_c, 0, 96, 71
2, 369957, Control_c, 0, 64, 0
2, 369973, Note_on_c, 0, 87, 0
2, 369975, Note_on_c, 0, 84, 68
2, 369992, Note_on_c, 0, 96, 0
2, 370011, Note_on_c, 0, 84, 0
2, 370013, Note_on_c, 0, 86, 68
2, 370026, Note_on_c, 0, 59, 64
2, 370040, Note_on_c, 0, 86, 0
2, 370049, Note_on_c, 0, 98, 76
2, 370053, Note_on_c, 0, 67, 71
2, 370059, Control_c, 0, 64, 127
2, 370080, Note_on_c, 0, 96, 76
2, 370082, Note_on_c, 0, 74, 74
2, 370086, Note_on_c, 0, 98, 0
2, 370090, Note_on_c, 0, 59, 0
2, 370090, Note_on_c, 0, 67, 0
2, 370105, Note_on_c, 0, 96, 0
2, 370105, Note_on_c, 0, 74, 0
2, 370109, Note_on_c, 0, 95, 75
2, 370119, Note_on_c, 0, 76, 74
2, 370142, Note_on_c, 0, 95, 0
2, 370145, Note_on_c, 0, 93, 76
2, 370147, Note_on_c, 0, 79, 74
2, 370155, Note_on_c, 0, 76, 0
2, 370170, Note_on_c, 0, 91, 76
2, 370174, Note_on_c, 0, 93, 0
2, 370184, Note_on_c, 0, 79, 0
2, 370203, Note_on_c, 0, 91, 0
2, 370205, Note_on_c, 0, 90, 76
2, 370240, Note_on_c, 0, 90, 0
2, 370245, Note_on_c, 0, 89, 74
2, 370270, Note_on_c, 0, 89, 0
2, 370270, Note_on_c, 0, 88, 73
2, 370282, Control_c, 0, 64, 0
2, 370297, Note_on_c, 0, 88, 0
2, 370309, Note_on_c, 0, 87, 68
2, 370328, Note_on_c, 0, 65, 65
2, 370334, Note_on_c, 0, 87, 0
2, 370337, Note_on_c, 0, 86, 68
2, 370357, Note_on_c, 0, 74, 66
2, 370374, Note_on_c, 0, 79, 66
2, 370376, Note_on_c, 0, 86, 0
2, 370385, Control_c, 0, 64, 127
2, 370410, Note_on_c, 0, 74, 0
2, 370414, Note_on_c, 0, 65, 0
2, 370422, Note_on_c, 0, 79, 0
2, 370424, Note_on_c, 0, 83, 73
2, 370432, Note_on_c, 0, 91, 74
2, 370451, Note_on_c, 0, 83, 0
2, 370470, Note_on_c, 0, 86, 76
2, 370497, Note_on_c, 0, 91, 0
2, 370503, Note_on_c, 0, 88, 76
2, 370512, Note_on_c, 0, 86, 0
2, 370531, Note_on_c, 0, 81, 76
2, 370531, Note_on_c, 0, 93, 77
2, 370539, Note_on_c, 0, 88, 0
2, 370568, Note_on_c, 0, 81, 0
2, 370577, Note_on_c, 0, 88, 76
2, 370581, Control_c, 0, 64, 0
2, 370595, Note_on_c, 0, 93, 0
2, 370614, Note_on_c, 0, 88, 0
2, 370616, Note_on_c, 0, 86, 76
2, 370648, Note_on_c, 0, 64, 75
2, 370652, Note_on_c, 0, 86, 0
2, 370654, Note_on_c, 0, 85, 83
2, 370658, Note_on_c, 0, 95, 84
2, 370679, Control_c, 0, 64, 127
2, 370695, Note_on_c, 0, 85, 0
2, 370708, Note_on_c, 0, 69, 76
2, 370710, Note_on_c, 0, 95, 0
2, 370714, Note_on_c, 0, 64, 0
2, 370714, Note_on_c, 0, 93, 75
2, 370716, Note_on_c, 0, 87, 74
2, 370727, Note_on_c, 0, 73, 73
2, 370746, Note_on_c, 0, 76, 72
2, 370748, Note_on_c, 0, 73, 0
2, 370754, Note_on_c, 0, 69, 0
2, 370762, Note_on_c, 0, 87, 0
2, 370764, Note_on_c, 0, 88, 70
2, 370769, Note_on_c, 0, 76, 0
2, 370773, Note_on_c, 0, 93, 0
2, 370773, Note_on_c, 0, 91, 68
2, 370808, Note_on_c, 0, 91, 0
2, 370808, Note_on_c, 0, 88, 0
2, 370816, Note_on_c, 0, 90, 67
2, 370848, Note_on_c, 0, 90, 0
2, 370869, Note_on_c, 0, 79, 65
2, 370869, Note_on_c, 0, 88, 68
2, 370896, Note_on_c, 0, 88, 0
2, 370898, Note_on_c, 0, 79, 0
2, 370900, Control_c, 0, 64, 0
2, 370915, Note_on_c, 0, 83, 68
2, 370915, Note_on_c, 0, 86, 68
2, 370940, Note_on_c, 0, 83, 0
2, 370954, Note_on_c, 0, 86, 0
2, 370971, Note_on_c, 0, 62, 66
2, 370971, Note_on_c, 0, 83, 72
2, 370975, Note_on_c, 0, 95, 73
2, 371004, Control_c, 0, 64, 127
2, 371021, Note_on_c, 0, 83, 0
2, 371023, Note_on_c, 0, 67, 73
2, 371027, Note_on_c, 0, 95, 0
2, 371032, Note_on_c, 0, 87, 76
2, 371032, Note_on_c, 0, 93, 76
2, 371040, Note_on_c, 0, 62, 0
2, 371052, Note_on_c, 0, 71, 74
2, 371057, Note_on_c, 0, 67, 0
2, 371057, Note_on_c, 0, 87, 0
2, 371071, Note_on_c, 0, 76, 73
2, 371079, Note_on_c, 0, 71, 0
2, 371088, Note_on_c, 0, 93, 0
2, 371090, Note_on_c, 0, 91, 76
2, 371092, Note_on_c, 0, 88, 76
2, 371096, Note_on_c, 0, 76, 0
2, 371125, Note_on_c, 0, 88, 0
2, 371125, Note_on_c, 0, 91, 0
2, 371130, Note_on_c, 0, 90, 75
2, 371163, Note_on_c, 0, 90, 0
2, 371180, Note_on_c, 0, 79, 74
2, 371180, Note_on_c, 0, 88, 75
2, 371215, Note_on_c, 0, 88, 0
2, 371215, Note_on_c, 0, 79, 0
2, 371236, Note_on_c, 0, 86, 69
2, 371240, Note_on_c, 0, 83, 68
2, 371255, Control_c, 0, 64, 0
2, 371263, Note_on_c, 0, 83, 0
2, 371276, Note_on_c, 0, 86, 0
2, 371305, Note_on_c, 0, 61, 65
2, 371307, Note_on_c, 0, 49, 65
2, 371307, Note_on_c, 0, 83, 71
2, 371315, Note_on_c, 0, 76, 70
2, 371347, Control_c, 0, 64, 127
2, 371361, Note_on_c, 0, 83, 0
2, 371363, Note_on_c, 0, 61, 0
2, 371363, Note_on_c, 0, 49, 0
2, 371363, Note_on_c, 0, 76, 0
2, 371374, Note_on_c, 0, 81, 73
2, 371414, Note_on_c, 0, 81, 0
2, 371416, Note_on_c, 0, 79, 75
2, 371419, Note_on_c, 0, 71, 76
2, 371427, Note_on_c, 0, 59, 65
2, 371427, Note_on_c, 0, 61, 65
2, 371431, Note_on_c, 0, 55, 64
2, 371454, Note_on_c, 0, 55, 0
2, 371454, Note_on_c, 0, 59, 0
2, 371454, Note_on_c, 0, 71, 0
2, 371460, Note_on_c, 0, 61, 0
2, 371471, Note_on_c, 0, 79, 0
2, 371473, Control_c, 0, 64, 0
2, 371473, Note_on_c, 0, 78, 76
2, 371524, Note_on_c, 0, 78, 0
2, 371536, Note_on_c, 0, 64, 79
2, 371536, Note_on_c, 0, 76, 81
2, 371537, Note_on_c, 0, 59, 65
2, 371537, Note_on_c, 0, 67, 81
2, 371545, Note_on_c, 0, 61, 65
2, 371553, Note_on_c, 0, 64, 0
2, 371560, Note_on_c, 0, 67, 0
2, 371560, Note_on_c, 0, 76, 0
2, 371562, Note_on_c, 0, 59, 0
2, 371568, Note_on_c, 0, 61, 0
2, 371584, Note_on_c, 0, 74, 80
2, 371616, Note_on_c, 0, 74, 0
2, 371637, Note_on_c, 0, 79, 80
2, 371641, Note_on_c, 0, 48, 65
2, 371641, Note_on_c, 0, 60, 65
2, 371641, Note_on_c, 0, 70, 81
2, 371649, Control_c, 0, 64, 127
2, 371651, Note_on_c, 0, 74, 82
2, 371660, Note_on_c, 0, 70, 0
2, 371666, Note_on_c, 0, 60, 0
2, 371666, Note_on_c, 0, 48, 0
2, 371676, Note_on_c, 0, 74, 0
2, 371697, Note_on_c, 0, 79, 0
2, 371706, Note_on_c, 0, 78, 81
2, 371750, Note_on_c, 0, 78, 0
2, 371763, Note_on_c, 0, 55, 65
2, 371763, Note_on_c, 0, 76, 82
2, 371767, Note_on_c, 0, 64, 80
2, 371773, Note_on_c, 0, 60, 64
2, 371776, Note_on_c, 0, 58, 65
2, 371782, Control_c, 0, 64, 0
2, 371788, Note_on_c, 0, 64, 0
2, 371790, Note_on_c, 0, 58, 0
2, 371790, Note_on_c, 0, 55, 0
2, 371800, Note_on_c, 0, 60, 0
2, 371809, Note_on_c, 0, 76, 0
2, 371830, Note_on_c, 0, 74, 79
2, 371883, Note_on_c, 0, 74, 0
2, 371885, Note_on_c, 0, 58, 73
2, 371885, Note_on_c, 0, 64, 80
2, 371887, Control_c, 0, 64, 127
2, 371887, Note_on_c, 0, 72, 82
2, 371895, Note_on_c, 0, 60, 73
2, 371898, Note_on_c, 0, 64, 0
2, 371918, Note_on_c, 0, 60, 0
2, 371920, Note_on_c, 0, 58, 0
2, 371927, Note_on_c, 0, 72, 0
2, 371960, Note_on_c, 0, 70, 79
2, 371962, Control_c, 0, 64, 0
2, 371992, Note_on_c, 0, 70, 0
2, 372019, Note_on_c, 0, 35, 73
2, 372019, Note_on_c, 0, 47, 73
2, 372037, Note_on_c, 0, 71, 83
2, 372039, Note_on_c, 0, 64, 84
2, 372058, Control_c, 0, 64, 127
2, 372071, Note_on_c, 0, 64, 0
2, 372071, Note_on_c, 0, 71, 0
2, 372073, Note_on_c, 0, 47, 0
2, 372075, Note_on_c, 0, 35, 0
2, 372112, Note_on_c, 0, 69, 83
2, 372136, Control_c, 0, 64, 0
2, 372150, Note_on_c, 0, 69, 0
2, 372189, Note_on_c, 0, 55, 73
2, 372189, Note_on_c, 0, 67, 81
2, 372197, Note_on_c, 0, 47, 73
2, 372201, Note_on_c, 0, 52, 73
2, 372240, Control_c, 0, 64, 127
2, 372256, Note_on_c, 0, 67, 0
2, 372267, Note_on_c, 0, 47, 0
2, 372269, Note_on_c, 0, 66, 81
2, 372275, Note_on_c, 0, 55, 0
2, 372284, Note_on_c, 0, 52, 0
2, 372288, Control_c, 0, 64, 0
2, 372311, Note_on_c, 0, 66, 0
2, 372338, Note_on_c, 0, 64, 81
2, 372340, Note_on_c, 0, 55, 73
2, 372340, Note_on_c, 0, 59, 73
2, 372350, Note_on_c, 0, 52, 72
2, 372357, Control_c, 0, 64, 127
2, 372371, Note_on_c, 0, 64, 0
2, 372382, Note_on_c, 0, 55, 0
2, 372382, Note_on_c, 0, 59, 0
2, 372382, Note_on_c, 0, 52, 0
2, 372413, Note_on_c, 0, 62, 75
2, 372444, Note_on_c, 0, 62, 0
2, 372453, Control_c, 0, 64, 0
2, 372491, Note_on_c, 0, 46, 69
2, 372491, Note_on_c, 0, 60, 67
2, 372493, Note_on_c, 0, 34, 66
2, 372493, Note_on_c, 0, 67, 99
2, 372536, Control_c, 0, 64, 127
2, 372553, Note_on_c, 0, 67, 0
2, 372553, Note_on_c, 0, 46, 0
2, 372553, Note_on_c, 0, 60, 0
2, 372555, Note_on_c, 0, 34, 0
2, 372574, Note_on_c, 0, 66, 85
2, 372609, Note_on_c, 0, 66, 0
2, 372615, Control_c, 0, 64, 0
2, 372652, Note_on_c, 0, 52, 65
2, 372652, Note_on_c, 0, 64, 91
2, 372660, Note_on_c, 0, 46, 65
2, 372660, Note_on_c, 0, 48, 65
2, 372707, Control_c, 0, 64, 127
2, 372718, Note_on_c, 0, 64, 0
2, 372741, Note_on_c, 0, 62, 81
2, 372766, Note_on_c, 0, 52, 0
2, 372784, Note_on_c, 0, 62, 0
2, 372793, Note_on_c, 0, 48, 0
2, 372805, Control_c, 0, 64, 0
2, 372824, Note_on_c, 0, 46, 0
2, 372837, Note_on_c, 0, 52, 73
2, 372839, Note_on_c, 0, 48, 73
2, 372839, Note_on_c, 0, 55, 73
2, 372849, Note_on_c, 0, 61, 75
2, 372898, Control_c, 0, 64, 127
2, 372917, Note_on_c, 0, 61, 0
2, 372917, Note_on_c, 0, 52, 0
2, 372917, Note_on_c, 0, 48, 0
2, 372917, Note_on_c, 0, 55, 0
2, 372950, Note_on_c, 0, 60, 75
2, 372991, Note_on_c, 0, 60, 0
2, 373006, Control_c, 0, 64, 0
2, 373008, Note_on_c, 0, 33, 73
2, 373039, Note_on_c, 0, 45, 73
2, 373092, Control_c, 0, 64, 127
2, 373092, Note_on_c, 0, 55, 88
2, 373094, Note_on_c, 0, 49, 89
2, 373094, Note_on_c, 0, 52, 90
2, 373101, Note_on_c, 0, 59, 92
2, 373115, Note_on_c, 0, 55, 0
2, 373117, Note_on_c, 0, 33, 0
2, 373126, Note_on_c, 0, 45, 0
2, 373128, Note_on_c, 0, 59, 0
2, 373136, Note_on_c, 0, 52, 0
2, 373145, Note_on_c, 0, 49, 0
2, 373340, Control_c, 0, 64, 0
2, 373371, Note_on_c, 0, 61, 65
2, 373381, Note_on_c, 0, 64, 65
2, 373392, Note_on_c, 0, 67, 65
2, 373398, Note_on_c, 0, 71, 69
2, 373474, Control_c, 0, 64, 127
2, 373540, Note_on_c, 0, 103, 71
2, 373561, Note_on_c, 0, 103, 0
2, 373565, Note_on_c, 0, 67, 0
2, 373565, Note_on_c, 0, 64, 0
2, 373567, Note_on_c, 0, 102, 70
2, 373573, Note_on_c, 0, 71, 0
2, 373582, Note_on_c, 0, 61, 0
2, 373590, Note_on_c, 0, 102, 0
2, 373598, Note_on_c, 0, 101, 71
2, 373619, Note_on_c, 0, 101, 0
2, 373619, Note_on_c, 0, 100, 70
2, 373646, Note_on_c, 0, 100, 0
2, 373649, Note_on_c, 0, 99, 71
2, 373657, Control_c, 0, 64, 0
2, 373661, Note_on_c, 0, 60, 65
2, 373669, Note_on_c, 0, 64, 65
2, 373669, Note_on_c, 0, 98, 71
2, 373676, Note_on_c, 0, 99, 0
2, 373680, Note_on_c, 0, 67, 65
2, 373692, Note_on_c, 0, 98, 0
2, 373692, Note_on_c, 0, 97, 71
2, 373699, Note_on_c, 0, 70, 68
2, 373709, Note_on_c, 0, 97, 0
2, 373713, Note_on_c, 0, 96, 69
2, 373742, Note_on_c, 0, 96, 0
2, 373747, Note_on_c, 0, 95, 67
2, 373767, Control_c, 0, 64, 127
2, 373768, Note_on_c, 0, 95, 0
2, 373774, Note_on_c, 0, 94, 68
2, 373788, Note_on_c, 0, 67, 0
2, 373788, Note_on_c, 0, 70, 0
2, 373799, Note_on_c, 0, 94, 0
2, 373799, Note_on_c, 0, 64, 0
2, 373801, Note_on_c, 0, 93, 67
2, 373809, Note_on_c, 0, 60, 0
2, 373828, Note_on_c, 0, 93, 0
2, 373828, Note_on_c, 0, 92, 67
2, 373855, Note_on_c, 0, 92, 0
2, 373861, Note_on_c, 0, 91, 68
2, 373886, Note_on_c, 0, 91, 0
2, 373888, Note_on_c, 0, 90, 68
2, 373897, Control_c, 0, 64, 0
2, 373907, Note_on_c, 0, 90, 0
2, 373907, Note_on_c, 0, 89, 68
2, 373918, Note_on_c, 0, 58, 65
2, 373926, Note_on_c, 0, 60, 65
2, 373928, Note_on_c, 0, 64, 65
2, 373941, Note_on_c, 0, 89, 0
2, 373945, Note_on_c, 0, 67, 69
2, 373945, Note_on_c, 0, 88, 73
2, 373966, Note_on_c, 0, 88, 0
2, 373972, Note_on_c, 0, 87, 69
2, 373995, Note_on_c, 0, 87, 0
2, 373999, Note_on_c, 0, 86, 68
2, 374012, Note_on_c, 0, 86, 0
2, 374018, Control_c, 0, 64, 127
2, 374018, Note_on_c, 0, 85, 68
2, 374041, Note_on_c, 0, 67, 0
2, 374045, Note_on_c, 0, 64, 0
2, 374045, Note_on_c, 0, 85, 0
2, 374049, Note_on_c, 0, 84, 68
2, 374066, Note_on_c, 0, 60, 0
2, 374066, Note_on_c, 0, 58, 0
2, 374072, Note_on_c, 0, 84, 0
2, 374072, Note_on_c, 0, 83, 68
2, 374091, Note_on_c, 0, 83, 0
2, 374097, Note_on_c, 0, 82, 68
2, 374118, Note_on_c, 0, 82, 0
2, 374124, Control_c, 0, 64, 0
2, 374126, Note_on_c, 0, 81, 68
2, 374156, Note_on_c, 0, 55, 65
2, 374156, Note_on_c, 0, 58, 65
2, 374156, Note_on_c, 0, 61, 64
2, 374156, Note_on_c, 0, 64, 70
2, 374160, Note_on_c, 0, 81, 0
2, 374164, Note_on_c, 0, 80, 73
2, 374198, Note_on_c, 0, 80, 0
2, 374203, Note_on_c, 0, 79, 68
2, 374223, Control_c, 0, 64, 127
2, 374226, Note_on_c, 0, 79, 0
2, 374230, Note_on_c, 0, 78, 66
2, 374249, Note_on_c, 0, 64, 0
2, 374255, Note_on_c, 0, 55, 0
2, 374255, Note_on_c, 0, 78, 0
2, 374255, Note_on_c, 0, 58, 0
2, 374259, Note_on_c, 0, 77, 65
2, 374265, Note_on_c, 0, 61, 0
2, 374282, Note_on_c, 0, 77, 0
2, 374290, Note_on_c, 0, 76, 66
2, 374313, Note_on_c, 0, 76, 0
2, 374319, Note_on_c, 0, 88, 67
2, 374336, Note_on_c, 0, 87, 68
2, 374340, Note_on_c, 0, 88, 0
2, 374353, Note_on_c, 0, 87, 0
2, 374355, Note_on_c, 0, 86, 68
2, 374374, Note_on_c, 0, 85, 68
2, 374384, Note_on_c, 0, 86, 0
2, 374384, Note_on_c, 0, 52, 65
2, 374384, Note_on_c, 0, 58, 65
2, 374386, Note_on_c, 0, 55, 64
2, 374401, Note_on_c, 0, 85, 0
2, 374403, Note_on_c, 0, 61, 67
2, 374403, Note_on_c, 0, 84, 68
2, 374426, Note_on_c, 0, 84, 0
2, 374432, Note_on_c, 0, 83, 68
2, 374457, Note_on_c, 0, 83, 0
2, 374463, Note_on_c, 0, 82, 68
2, 374484, Note_on_c, 0, 82, 0
2, 374488, Note_on_c, 0, 81, 68
2, 374493, Note_on_c, 0, 58, 0
2, 374495, Note_on_c, 0, 55, 0
2, 374512, Note_on_c, 0, 81, 0
2, 374512, Note_on_c, 0, 52, 0
2, 374524, Note_on_c, 0, 61, 0
2, 374526, Note_on_c, 0, 80, 66
2, 374549, Note_on_c, 0, 80, 0
2, 374553, Note_on_c, 0, 79, 66
2, 374576, Note_on_c, 0, 79, 0
2, 374578, Control_c, 0, 64, 0
2, 374578, Note_on_c, 0, 78, 66
2, 374599, Note_on_c, 0, 49, 65
2, 374599, Note_on_c, 0, 52, 65
2, 374599, Note_on_c, 0, 55, 64
2, 374605, Note_on_c, 0, 78, 0
2, 374608, Note_on_c, 0, 77, 66
2, 374616, Note_on_c, 0, 59, 67
2, 374633, Note_on_c, 0, 77, 0
2, 374635, Note_on_c, 0, 76, 66
2, 374649, Note_on_c, 0, 76, 0
2, 374656, Note_on_c, 0, 75, 66
2, 374681, Note_on_c, 0, 75, 0
2, 374685, Note_on_c, 0, 74, 66
2, 374703, Control_c, 0, 64, 127
2, 374710, Note_on_c, 0, 74, 0
2, 374714, Note_on_c, 0, 73, 66
2, 374729, Note_on_c, 0, 73, 0
2, 374733, Note_on_c, 0, 72, 66
2, 374739, Note_on_c, 0, 55, 0
2, 374741, Note_on_c, 0, 59, 0
2, 374756, Note_on_c, 0, 49, 0
2, 374758, Note_on_c, 0, 72, 0
2, 374760, Note_on_c, 0, 52, 0
2, 374762, Note_on_c, 0, 71, 66
2, 374777, Control_c, 0, 64, 0
2, 374787, Note_on_c, 0, 71, 0
2, 374789, Note_on_c, 0, 70, 66
2, 374810, Note_on_c, 0, 48, 65
2, 374810, Note_on_c, 0, 52, 65
2, 374810, Note_on_c, 0, 55, 64
2, 374814, Note_on_c, 0, 70, 0
2, 374822, Note_on_c, 0, 69, 66
2, 374825, Note_on_c, 0, 58, 66
2, 374843, Note_on_c, 0, 69, 0
2, 374850, Note_on_c, 0, 68, 65
2, 374875, Note_on_c, 0, 68, 0
2, 374877, Note_on_c, 0, 67, 65
2, 374887, Control_c, 0, 64, 127
2, 374902, Note_on_c, 0, 67, 0
2, 374904, Note_on_c, 0, 66, 64
2, 374912, Note_on_c, 0, 48, 0
2, 374912, Note_on_c, 0, 52, 0
2, 374914, Note_on_c, 0, 55, 0
2, 374921, Note_on_c, 0, 58, 0
2, 374931, Note_on_c, 0, 66, 0
2, 374935, Note_on_c, 0, 65, 65
2, 374948, Note_on_c, 0, 65, 0
2, 374952, Note_on_c, 0, 64, 65
2, 374979, Note_on_c, 0, 64, 0
2, 374983, Note_on_c, 0, 76, 66
2, 374989, Control_c, 0, 64, 0
2, 375008, Note_on_c, 0, 76, 0
2, 375010, Note_on_c, 0, 75, 66
2, 375027, Note_on_c, 0, 75, 0
2, 375031, Note_on_c, 0, 46, 65
2, 375031, Note_on_c, 0, 49, 65
2, 375033, Note_on_c, 0, 52, 64
2, 375035, Note_on_c, 0, 74, 66
2, 375052, Note_on_c, 0, 55, 66
2, 375058, Note_on_c, 0, 74, 0
2, 375060, Note_on_c, 0, 73, 70
2, 375083, Note_on_c, 0, 73, 0
2, 375090, Note_on_c, 0, 72, 67
2, 375112, Note_on_c, 0, 72, 0
2, 375119, Note_on_c, 0, 71, 66
2, 375127, Control_c, 0, 64, 127
2, 375142, Note_on_c, 0, 71, 0
2, 375142, Note_on_c, 0, 52, 0
2, 375144, Note_on_c, 0, 70, 65
2, 375154, Note_on_c, 0, 55, 0
2, 375160, Note_on_c, 0, 49, 0
2, 375163, Note_on_c, 0, 46, 0
2, 375169, Note_on_c, 0, 70, 0
2, 375183, Note_on_c, 0, 69, 66
2, 375206, Note_on_c, 0, 69, 0
2, 375213, Note_on_c, 0, 68, 65
2, 375227, Control_c, 0, 64, 0
2, 375238, Note_on_c, 0, 68, 0
2, 375240, Note_on_c, 0, 43, 65
2, 375240, Note_on_c, 0, 46, 65
2, 375240, Note_on_c, 0, 49, 64
2, 375240, Note_on_c, 0, 67, 65
2, 375257, Note_on_c, 0, 52, 66
2, 375261, Note_on_c, 0, 67, 0
2, 375269, Note_on_c, 0, 66, 69
2, 375294, Note_on_c, 0, 66, 0
2, 375298, Note_on_c, 0, 65, 65
2, 375323, Note_on_c, 0, 65, 0
2, 375325, Note_on_c, 0, 64, 65
2, 375344, Control_c, 0, 64, 127
2, 375350, Note_on_c, 0, 64, 0
2, 375353, Note_on_c, 0, 63, 65
2, 375359, Note_on_c, 0, 52, 0
2, 375369, Note_on_c, 0, 49, 0
2, 375369, Note_on_c, 0, 43, 0
2, 375369, Note_on_c, 0, 46, 0
2, 375369, Note_on_c, 0, 63, 0
2, 375369, Note_on_c, 0, 62, 65
2, 375398, Note_on_c, 0, 62, 0
2, 375400, Note_on_c, 0, 61, 65
2, 375417, Note_on_c, 0, 61, 0
2, 375419, Note_on_c, 0, 60, 65
2, 375442, Note_on_c, 0, 64, 65
2, 375448, Control_c, 0, 64, 0
2, 375461, Note_on_c, 0, 60, 0
2, 375467, Note_on_c, 0, 64, 0
2, 375472, Note_on_c, 0, 63, 65
2, 375486, Note_on_c, 0, 63, 0
2, 375490, Note_on_c, 0, 43, 65
2, 375490, Note_on_c, 0, 46, 66
2, 375490, Note_on_c, 0, 62, 67
2, 375494, Note_on_c, 0, 40, 68
2, 375511, Note_on_c, 0, 49, 70
2, 375515, Note_on_c, 0, 62, 0
2, 375520, Note_on_c, 0, 61, 73
2, 375536, Note_on_c, 0, 61, 0
2, 375536, Note_on_c, 0, 60, 72
2, 375568, Note_on_c, 0, 60, 0
2, 375568, Note_on_c, 0, 59, 72
2, 375579, Control_c, 0, 64, 127
2, 375600, Note_on_c, 0, 59, 0
2, 375602, Note_on_c, 0, 58, 73
2, 375606, Note_on_c, 0, 49, 0
2, 375612, Note_on_c, 0, 43, 0
2, 375612, Note_on_c, 0, 46, 0
2, 375617, Note_on_c, 0, 40, 0
2, 375627, Note_on_c, 0, 58, 0
2, 375629, Note_on_c, 0, 57, 73
2, 375658, Note_on_c, 0, 57, 0
2, 375658, Note_on_c, 0, 56, 72
2, 375683, Note_on_c, 0, 56, 0
2, 375685, Note_on_c, 0, 55, 67
2, 375710, Control_c, 0, 64, 0
2, 375723, Note_on_c, 0, 55, 0
2, 375727, Note_on_c, 0, 54, 65
2, 375742, Note_on_c, 0, 37, 65
2, 375742, Note_on_c, 0, 40, 65
2, 375742, Note_on_c, 0, 43, 64
2, 375750, Note_on_c, 0, 54, 0
2, 375752, Note_on_c, 0, 53, 65
2, 375761, Note_on_c, 0, 47, 67
2, 375786, Note_on_c, 0, 53, 0
2, 375788, Note_on_c, 0, 52, 65
2, 375811, Note_on_c, 0, 52, 0
2, 375813, Note_on_c, 0, 51, 65
2, 375834, Control_c, 0, 64, 127
2, 375838, Note_on_c, 0, 51, 0
2, 375844, Note_on_c, 0, 50, 65
2, 375854, Note_on_c, 0, 47, 0
2, 375863, Note_on_c, 0, 43, 0
2, 375869, Note_on_c, 0, 50, 0
2, 375869, Note_on_c, 0, 40, 0
2, 375875, Note_on_c, 0, 49, 64
2, 375890, Note_on_c, 0, 37, 0
2, 375902, Note_on_c, 0, 52, 60
2, 375907, Note_on_c, 0, 49, 0
2, 375928, Note_on_c, 0, 52, 0
2, 375930, Note_on_c, 0, 51, 64
2, 375950, Note_on_c, 0, 51, 0
2, 375950, Note_on_c, 0, 50, 65
2, 375977, Note_on_c, 0, 50, 0
2, 375979, Note_on_c, 0, 49, 65
2, 376002, Note_on_c, 0, 49, 0
2, 376004, Note_on_c, 0, 48, 65
2, 376032, Note_on_c, 0, 48, 0
2, 376034, Note_on_c, 0, 47, 65
2, 376055, Note_on_c, 0, 34, 65
2, 376055, Note_on_c, 0, 37, 65
2, 376055, Note_on_c, 0, 40, 64
2, 376071, Note_on_c, 0, 47, 0
2, 376072, Note_on_c, 0, 43, 68
2, 376074, Note_on_c, 0, 46, 69
2, 376097, Note_on_c, 0, 46, 0
2, 376101, Note_on_c, 0, 45, 73
2, 376119, Note_on_c, 0, 43, 0
2, 376136, Note_on_c, 0, 40, 0
2, 376136, Note_on_c, 0, 45, 0
2, 376138, Note_on_c, 0, 44, 72
2, 376147, Note_on_c, 0, 37, 0
2, 376147, Note_on_c, 0, 34, 0
2, 376194, Note_on_c, 0, 44, 0
2, 376198, Note_on_c, 0, 43, 80
2, 376240, Note_on_c, 0, 43, 0
2, 376241, Note_on_c, 0, 42, 85
2, 376285, Note_on_c, 0, 42, 0
2, 376288, Note_on_c, 0, 41, 84
2, 376332, Note_on_c, 0, 41, 0
2, 376334, Note_on_c, 0, 40, 90
2, 376377, Note_on_c, 0, 40, 0
2, 376379, Note_on_c, 0, 39, 95
2, 376422, Note_on_c, 0, 39, 0
2, 376428, Note_on_c, 0, 38, 100
2, 376467, Note_on_c, 0, 38, 0
2, 376475, Note_on_c, 0, 37, 103
2, 376516, Note_on_c, 0, 37, 0
2, 376518, Note_on_c, 0, 36, 107
2, 376561, Note_on_c, 0, 36, 0
2, 376580, Note_on_c, 0, 35, 110
2, 376612, Note_on_c, 0, 35, 0
2, 376633, Note_on_c, 0, 34, 111
2, 376671, Note_on_c, 0, 34, 0
2, 376786, Control_c, 0, 64, 0
2, 376817, Control_c, 0, 67, 127
2, 376944, Note_on_c, 0, 33, 70
2, 376961, Control_c, 0, 64, 127
2, 376989, Note_on_c, 0, 33, 0
2, 377010, Note_on_c, 0, 37, 62
2, 377071, Note_on_c, 0, 37, 0
2, 377075, Note_on_c, 0, 40, 62
2, 377106, Note_on_c, 0, 40, 0
2, 377126, Note_on_c, 0, 43, 62
2, 377178, Note_on_c, 0, 43, 0
2, 377190, Note_on_c, 0, 47, 62
2, 377235, Note_on_c, 0, 47, 0
2, 377247, Note_on_c, 0, 49, 62
2, 377288, Note_on_c, 0, 49, 0
2, 377305, Note_on_c, 0, 52, 62
2, 377344, Note_on_c, 0, 52, 0
2, 377378, Note_on_c, 0, 55, 62
2, 377437, Note_on_c, 0, 55, 0
2, 377442, Note_on_c, 0, 59, 62
2, 377507, Note_on_c, 0, 59, 0
2, 377507, Note_on_c, 0, 61, 62
2, 377540, Note_on_c, 0, 61, 0
2, 377561, Note_on_c, 0, 64, 70
2, 377586, Note_on_c, 0, 64, 0
2, 377588, Control_c, 0, 64, 0
2, 377616, Note_on_c, 0, 33, 62
2, 377677, Note_on_c, 0, 45, 60
2, 377694, Control_c, 0, 64, 127
2, 377711, Note_on_c, 0, 33, 0
2, 377723, Note_on_c, 0, 45, 0
2, 377749, Note_on_c, 0, 51, 54
2, 377788, Note_on_c, 0, 51, 0
2, 377807, Note_on_c, 0, 55, 54
2, 377864, Note_on_c, 0, 55, 0
2, 377868, Note_on_c, 0, 59, 54
2, 377934, Note_on_c, 0, 59, 0
2, 377936, Note_on_c, 0, 60, 54
2, 377998, Note_on_c, 0, 60, 0
2, 378004, Note_on_c, 0, 61, 54
2, 378055, Note_on_c, 0, 61, 0
2, 378059, Note_on_c, 0, 63, 54
2, 378084, Note_on_c, 0, 63, 0
2, 378105, Note_on_c, 0, 70, 54
2, 378107, Note_on_c, 0, 66, 54
2, 378163, Note_on_c, 0, 72, 55
2, 378181, Note_on_c, 0, 75, 61
2, 378200, Control_c, 0, 64, 0
2, 378237, Note_on_c, 0, 70, 0
2, 378239, Note_on_c, 0, 66, 0
2, 378251, Note_on_c, 0, 61, 54
2, 378251, Note_on_c, 0, 67, 55
2, 378251, Note_on_c, 0, 71, 55
2, 378305, Note_on_c, 0, 72, 0
2, 378305, Note_on_c, 0, 75, 0
2, 378317, Note_on_c, 0, 73, 62
2, 378317, Note_on_c, 0, 76, 63
2, 378376, Note_on_c, 0, 76, 0
2, 378376, Note_on_c, 0, 71, 0
2, 378376, Note_on_c, 0, 73, 0
2, 378377, Note_on_c, 0, 61, 0
2, 378377, Note_on_c, 0, 67, 0
2, 378448, Note_on_c, 0, 45, 54
2, 378491, Note_on_c, 0, 45, 0
2, 378515, Note_on_c, 0, 51, 54
2, 378524, Note_on_c, 0, 74, 60
2, 378524, Note_on_c, 0, 83, 63
2, 378556, Note_on_c, 0, 83, 0
2, 378556, Note_on_c, 0, 74, 0
2, 378556, Note_on_c, 0, 51, 0
2, 378580, Note_on_c, 0, 54, 54
2, 378586, Note_on_c, 0, 78, 60
2, 378597, Note_on_c, 0, 75, 61
2, 378620, Note_on_c, 0, 75, 0
2, 378624, Note_on_c, 0, 78, 0
2, 378634, Note_on_c, 0, 54, 0
2, 378647, Note_on_c, 0, 57, 54
2, 378651, Note_on_c, 0, 74, 60
2, 378655, Note_on_c, 0, 83, 63
2, 378668, Note_on_c, 0, 57, 0
2, 378676, Note_on_c, 0, 83, 0
2, 378682, Note_on_c, 0, 74, 0
2, 378697, Note_on_c, 0, 78, 61
2, 378699, Note_on_c, 0, 75, 62
2, 378709, Note_on_c, 0, 63, 54
2, 378722, Note_on_c, 0, 75, 0
2, 378732, Note_on_c, 0, 63, 0
2, 378732, Note_on_c, 0, 78, 0
2, 378753, Note_on_c, 0, 66, 57
2, 378757, Note_on_c, 0, 72, 59
2, 378772, Note_on_c, 0, 81, 63
2, 378780, Note_on_c, 0, 72, 0
2, 378789, Note_on_c, 0, 66, 0
2, 378795, Note_on_c, 0, 81, 0
2, 378821, Note_on_c, 0, 71, 62
2, 378821, Note_on_c, 0, 76, 64
2, 378821, Note_on_c, 0, 79, 65
2, 378829, Note_on_c, 0, 57, 58
2, 378840, Control_c, 0, 64, 127
2, 378872, Note_on_c, 0, 57, 0
2, 378881, Note_on_c, 0, 71, 0
2, 378881, Note_on_c, 0, 76, 0
2, 378883, Note_on_c, 0, 62, 58
2, 378901, Note_on_c, 0, 79, 0
2, 378938, Note_on_c, 0, 62, 0
2, 378950, Note_on_c, 0, 64, 58
2, 378983, Note_on_c, 0, 64, 0
2, 379007, Note_on_c, 0, 67, 58
2, 379039, Note_on_c, 0, 67, 0
2, 379063, Note_on_c, 0, 61, 57
2, 379063, Note_on_c, 0, 70, 56
2, 379096, Note_on_c, 0, 70, 0
2, 379096, Note_on_c, 0, 61, 0
2, 379120, Note_on_c, 0, 62, 55
2, 379120, Note_on_c, 0, 71, 55
2, 379155, Note_on_c, 0, 71, 0
2, 379155, Note_on_c, 0, 62, 0
2, 379223, Control_c, 0, 64, 0
2, 379237, Note_on_c, 0, 45, 54
2, 379266, Note_on_c, 0, 45, 0
2, 379298, Note_on_c, 0, 53, 54
2, 379298, Note_on_c, 0, 76, 72
2, 379298, Note_on_c, 0, 85, 73
2, 379332, Note_on_c, 0, 76, 0
2, 379336, Note_on_c, 0, 53, 0
2, 379339, Note_on_c, 0, 85, 0
2, 379351, Note_on_c, 0, 56, 57
2, 379355, Note_on_c, 0, 77, 72
2, 379355, Note_on_c, 0, 80, 72
2, 379384, Note_on_c, 0, 77, 0
2, 379388, Note_on_c, 0, 59, 58
2, 379396, Note_on_c, 0, 56, 0
2, 379396, Note_on_c, 0, 85, 74
2, 379406, Note_on_c, 0, 80, 0
2, 379408, Note_on_c, 0, 74, 72
2, 379427, Note_on_c, 0, 59, 0
2, 379434, Note_on_c, 0, 85, 0
2, 379448, Note_on_c, 0, 74, 0
2, 379463, Note_on_c, 0, 65, 69
2, 379463, Note_on_c, 0, 80, 71
2, 379475, Note_on_c, 0, 77, 72
2, 379501, Control_c, 0, 67, 0
2, 379506, Note_on_c, 0, 77, 0
2, 379518, Note_on_c, 0, 65, 0
2, 379522, Note_on_c, 0, 68, 75
2, 379526, Note_on_c, 0, 80, 0
2, 379528, Note_on_c, 0, 83, 80
2, 379529, Note_on_c, 0, 73, 79
2, 379551, Note_on_c, 0, 73, 0
2, 379554, Note_on_c, 0, 83, 0
2, 379556, Note_on_c, 0, 68, 0
2, 379576, Note_on_c, 0, 57, 61
2, 379585, Note_on_c, 0, 76, 77
2, 379585, Note_on_c, 0, 81, 80
2, 379593, Note_on_c, 0, 78, 79
2, 379612, Control_c, 0, 64, 127
2, 379620, Note_on_c, 0, 76, 0
2, 379631, Note_on_c, 0, 57, 0
2, 379641, Note_on_c, 0, 78, 0
2, 379641, Note_on_c, 0, 62, 67
2, 379647, Note_on_c, 0, 71, 72
2, 379678, Note_on_c, 0, 81, 0
2, 379696, Note_on_c, 0, 62, 0
2, 379699, Note_on_c, 0, 66, 67
2, 379701, Note_on_c, 0, 74, 67
2, 379703, Note_on_c, 0, 71, 0
2, 379731, Note_on_c, 0, 74, 0
2, 379754, Note_on_c, 0, 66, 0
2, 379756, Note_on_c, 0, 69, 66
2, 379790, Note_on_c, 0, 69, 0
2, 379821, Note_on_c, 0, 65, 65
2, 379823, Note_on_c, 0, 73, 66
2, 379844, Note_on_c, 0, 73, 0
2, 379848, Note_on_c, 0, 65, 0
2, 379867, Note_on_c, 0, 66, 65
2, 379867, Note_on_c, 0, 74, 66
2, 379888, Note_on_c, 0, 74, 0
2, 379904, Note_on_c, 0, 66, 0
2, 379939, Control_c, 0, 64, 0
2, 379960, Note_on_c, 0, 45, 62
2, 379996, Note_on_c, 0, 45, 0
2, 380024, Note_on_c, 0, 76, 61
2, 380026, Note_on_c, 0, 50, 55
2, 380026, Note_on_c, 0, 86, 66
2, 380050, Note_on_c, 0, 50, 0
2, 380050, Note_on_c, 0, 76, 0
2, 380061, Note_on_c, 0, 86, 0
2, 380082, Note_on_c, 0, 78, 63
2, 380082, Note_on_c, 0, 81, 67
2, 380084, Note_on_c, 0, 54, 59
2, 380128, Note_on_c, 0, 81, 0
2, 380128, Note_on_c, 0, 78, 0
2, 380129, Note_on_c, 0, 57, 62
2, 380135, Note_on_c, 0, 54, 0
2, 380137, Note_on_c, 0, 76, 72
2, 380139, Note_on_c, 0, 86, 75
2, 380163, Note_on_c, 0, 57, 0
2, 380173, Note_on_c, 0, 76, 0
2, 380175, Note_on_c, 0, 86, 0
2, 380184, Note_on_c, 0, 62, 65
2, 380194, Note_on_c, 0, 78, 71
2, 380194, Note_on_c, 0, 82, 74
2, 380220, Note_on_c, 0, 78, 0
2, 380224, Note_on_c, 0, 66, 67
2, 380231, Note_on_c, 0, 62, 0
2, 380237, Note_on_c, 0, 82, 0
2, 380243, Note_on_c, 0, 85, 76
2, 380245, Note_on_c, 0, 74, 75
2, 380260, Note_on_c, 0, 66, 0
2, 380262, Note_on_c, 0, 69, 72
2, 380268, Note_on_c, 0, 85, 0
2, 380287, Note_on_c, 0, 69, 0
2, 380287, Note_on_c, 0, 74, 0
2, 380298, Note_on_c, 0, 78, 76
2, 380302, Note_on_c, 0, 57, 65
2, 380308, Note_on_c, 0, 75, 77
2, 380330, Control_c, 0, 64, 127
2, 380344, Note_on_c, 0, 75, 0
2, 380347, Note_on_c, 0, 78, 0
2, 380349, Note_on_c, 0, 57, 0
2, 380357, Note_on_c, 0, 64, 80
2, 380357, Note_on_c, 0, 79, 82
2, 380368, Note_on_c, 0, 76, 81
2, 380392, Note_on_c, 0, 76, 0
2, 380392, Note_on_c, 0, 79, 0
2, 380415, Note_on_c, 0, 64, 0
2, 380415, Note_on_c, 0, 78, 80
2, 380415, Note_on_c, 0, 82, 83
2, 380416, Note_on_c, 0, 67, 81
2, 380450, Note_on_c, 0, 78, 0
2, 380460, Note_on_c, 0, 82, 0
2, 380471, Note_on_c, 0, 75, 74
2, 380471, Note_on_c, 0, 79, 72
2, 380471, Note_on_c, 0, 83, 73
2, 380487, Note_on_c, 0, 67, 0
2, 380496, Note_on_c, 0, 75, 0
2, 380496, Note_on_c, 0, 79, 0
2, 380498, Note_on_c, 0, 83, 0
2, 380526, Note_on_c, 0, 82, 66
2, 380528, Note_on_c, 0, 87, 63
2, 380530, Note_on_c, 0, 74, 60
2, 380558, Note_on_c, 0, 74, 0
2, 380567, Note_on_c, 0, 87, 0
2, 380569, Note_on_c, 0, 82, 0
2, 380571, Note_on_c, 0, 83, 57
2, 380571, Note_on_c, 0, 88, 56
2, 380593, Note_on_c, 0, 83, 0
2, 380607, Note_on_c, 0, 88, 0
2, 380628, Control_c, 0, 64, 0
2, 380650, Note_on_c, 0, 45, 52
2, 380706, Note_on_c, 0, 51, 49
2, 380714, Note_on_c, 0, 91, 64
2, 380716, Note_on_c, 0, 83, 65
2, 380735, Control_c, 0, 64, 127
2, 380747, Note_on_c, 0, 54, 60
2, 380751, Note_on_c, 0, 83, 0
2, 380752, Note_on_c, 0, 91, 0
2, 380756, Note_on_c, 0, 45, 0
2, 380756, Note_on_c, 0, 51, 0
2, 380762, Note_on_c, 0, 84, 72
2, 380762, Note_on_c, 0, 87, 73
2, 380772, Note_on_c, 0, 60, 63
2, 380789, Note_on_c, 0, 54, 0
2, 380797, Note_on_c, 0, 84, 0
2, 380800, Note_on_c, 0, 60, 0
2, 380806, Note_on_c, 0, 87, 0
2, 380816, Note_on_c, 0, 91, 75
2, 380818, Note_on_c, 0, 63, 65
2, 380820, Note_on_c, 0, 83, 76
2, 380844, Note_on_c, 0, 83, 0
2, 380844, Note_on_c, 0, 91, 0
2, 380853, Note_on_c, 0, 63, 0
2, 380865, Note_on_c, 0, 66, 71
2, 380867, Control_c, 0, 64, 0
2, 380867, Note_on_c, 0, 81, 76
2, 380867, Note_on_c, 0, 84, 77
2, 380889, Note_on_c, 0, 81, 0
2, 380889, Note_on_c, 0, 66, 0
2, 380900, Note_on_c, 0, 84, 0
2, 380904, Note_on_c, 0, 57, 65
2, 380920, Note_on_c, 0, 81, 75
2, 380923, Note_on_c, 0, 90, 77
2, 380943, Note_on_c, 0, 64, 72
2, 380954, Note_on_c, 0, 90, 0
2, 380956, Note_on_c, 0, 57, 0
2, 380956, Note_on_c, 0, 81, 0
2, 380960, Control_c, 0, 64, 127
2, 380962, Note_on_c, 0, 67, 71
2, 380966, Note_on_c, 0, 78, 73
2, 380971, Note_on_c, 0, 82, 76
2, 380977, Note_on_c, 0, 64, 0
2, 380977, Note_on_c, 0, 74, 76
2, 380983, Note_on_c, 0, 67, 0
2, 381004, Note_on_c, 0, 78, 0
2, 381014, Note_on_c, 0, 82, 0
2, 381025, Note_on_c, 0, 79, 70
2, 381025, Note_on_c, 0, 83, 73
2, 381061, Note_on_c, 0, 83, 0
2, 381061, Note_on_c, 0, 79, 0
2, 381078, Note_on_c, 0, 74, 0
2, 381089, Note_on_c, 0, 82, 76
2, 381089, Note_on_c, 0, 87, 76
2, 381091, Note_on_c, 0, 73, 73
2, 381125, Note_on_c, 0, 82, 0
2, 381140, Note_on_c, 0, 73, 0
2, 381142, Note_on_c, 0, 87, 0
2, 381144, Note_on_c, 0, 88, 76
2, 381146, Note_on_c, 0, 71, 74
2, 381146, Note_on_c, 0, 83, 76
2, 381176, Note_on_c, 0, 83, 0
2, 381178, Note_on_c, 0, 88, 0
2, 381187, Note_on_c, 0, 71, 0
2, 381189, Note_on_c, 0, 70, 80
2, 381199, Note_on_c, 0, 87, 83
2, 381199, Note_on_c, 0, 90, 84
2, 381234, Note_on_c, 0, 87, 0
2, 381244, Note_on_c, 0, 90, 0
2, 381244, Note_on_c, 0, 70, 0
2, 381250, Note_on_c, 0, 69, 81
2, 381256, Control_c, 0, 64, 0
2, 381256, Note_on_c, 0, 88, 83
2, 381256, Note_on_c, 0, 91, 82
2, 381281, Note_on_c, 0, 88, 0
2, 381293, Note_on_c, 0, 69, 0
2, 381297, Note_on_c, 0, 91, 0
2, 381314, Note_on_c, 0, 87, 74
2, 381318, Note_on_c, 0, 71, 70
2, 381318, Note_on_c, 0, 85, 71
2, 381348, Control_c, 0, 64, 127
2, 381352, Note_on_c, 0, 85, 0
2, 381359, Note_on_c, 0, 87, 0
2, 381367, Note_on_c, 0, 88, 68
2, 381371, Note_on_c, 0, 71, 0
2, 381376, Note_on_c, 0, 70, 66
2, 381376, Note_on_c, 0, 86, 68
2, 381400, Note_on_c, 0, 86, 0
2, 381400, Note_on_c, 0, 88, 0
2, 381414, Note_on_c, 0, 70, 0
2, 381420, Note_on_c, 0, 87, 68
2, 381422, Note_on_c, 0, 90, 69
2, 381433, Note_on_c, 0, 69, 68
2, 381465, Note_on_c, 0, 87, 0
2, 381474, Note_on_c, 0, 90, 0
2, 381474, Note_on_c, 0, 91, 74
2, 381484, Note_on_c, 0, 69, 0
2, 381488, Note_on_c, 0, 67, 73
2, 381490, Note_on_c, 0, 88, 76
2, 381521, Note_on_c, 0, 91, 0
2, 381523, Note_on_c, 0, 88, 0
2, 381531, Note_on_c, 0, 67, 0
2, 381533, Note_on_c, 0, 94, 76
2, 381535, Note_on_c, 0, 66, 73
2, 381541, Note_on_c, 0, 90, 76
2, 381562, Note_on_c, 0, 66, 0
2, 381564, Control_c, 0, 64, 0
2, 381564, Note_on_c, 0, 65, 73
2, 381579, Note_on_c, 0, 90, 0
2, 381579, Note_on_c, 0, 94, 0
2, 381591, Note_on_c, 0, 70, 75
2, 381594, Note_on_c, 0, 95, 79
2, 381604, Note_on_c, 0, 65, 0
2, 381604, Note_on_c, 0, 91, 81
2, 381634, Note_on_c, 0, 74, 80
2, 381636, Note_on_c, 0, 95, 0
2, 381638, Note_on_c, 0, 70, 0
2, 381638, Note_on_c, 0, 91, 0
2, 381651, Control_c, 0, 64, 127
2, 381657, Note_on_c, 0, 80, 82
2, 381657, Note_on_c, 0, 92, 84
2, 381659, Note_on_c, 0, 98, 86
2, 381668, Note_on_c, 0, 74, 0
2, 381682, Note_on_c, 0, 80, 0
2, 381701, Note_on_c, 0, 98, 0
2, 381711, Note_on_c, 0, 92, 0
2, 381724, Control_c, 0, 64, 0
2, 381728, Note_on_c, 0, 89, 83
2, 381732, Note_on_c, 0, 62, 80
2, 381758, Note_on_c, 0, 89, 0
2, 381761, Note_on_c, 0, 68, 80
2, 381769, Note_on_c, 0, 70, 81
2, 381775, Note_on_c, 0, 62, 0
2, 381775, Note_on_c, 0, 94, 84
2, 381779, Note_on_c, 0, 101, 86
2, 381788, Note_on_c, 0, 77, 82
2, 381800, Control_c, 0, 64, 127
2, 381813, Note_on_c, 0, 70, 0
2, 381813, Note_on_c, 0, 68, 0
2, 381823, Note_on_c, 0, 77, 0
2, 381823, Note_on_c, 0, 94, 0
2, 381834, Note_on_c, 0, 93, 82
2, 381842, Note_on_c, 0, 101, 0
2, 381844, Control_c, 0, 64, 0
2, 381864, Note_on_c, 0, 68, 80
2, 381874, Note_on_c, 0, 74, 81
2, 381880, Note_on_c, 0, 93, 0
2, 381893, Note_on_c, 0, 77, 81
2, 381903, Note_on_c, 0, 94, 83
2, 381903, Note_on_c, 0, 97, 86
2, 381912, Note_on_c, 0, 83, 83
2, 381931, Control_c, 0, 64, 127
2, 381947, Note_on_c, 0, 97, 0
2, 381947, Note_on_c, 0, 94, 0
2, 381956, Note_on_c, 0, 77, 0
2, 381956, Note_on_c, 0, 83, 0
2, 381958, Note_on_c, 0, 68, 0
2, 381958, Note_on_c, 0, 74, 0
2, 381968, Control_c, 0, 64, 0
2, 381968, Note_on_c, 0, 95, 75
2, 381968, Note_on_c, 0, 98, 79
2, 381988, Note_on_c, 0, 67, 72
2, 382000, Note_on_c, 0, 98, 0
2, 382000, Note_on_c, 0, 95, 0
2, 382003, Note_on_c, 0, 74, 73
2, 382013, Note_on_c, 0, 77, 74
2, 382023, Note_on_c, 0, 100, 79
2, 382024, Note_on_c, 0, 97, 79
2, 382032, Note_on_c, 0, 83, 78
2, 382034, Control_c, 0, 64, 127
2, 382046, Note_on_c, 0, 67, 0
2, 382053, Note_on_c, 0, 77, 0
2, 382055, Note_on_c, 0, 97, 0
2, 382055, Note_on_c, 0, 83, 0
2, 382065, Note_on_c, 0, 74, 0
2, 382065, Note_on_c, 0, 100, 0
2, 382069, Control_c, 0, 64, 0
2, 382074, Note_on_c, 0, 98, 79
2, 382078, Note_on_c, 0, 101, 79
2, 382097, Note_on_c, 0, 65, 73
2, 382111, Note_on_c, 0, 101, 0
2, 382111, Note_on_c, 0, 98, 0
2, 382115, Note_on_c, 0, 71, 73
2, 382126, Note_on_c, 0, 74, 74
2, 382132, Note_on_c, 0, 100, 79
2, 382136, Note_on_c, 0, 104, 79
2, 382142, Note_on_c, 0, 65, 0
2, 382144, Note_on_c, 0, 81, 79
2, 382145, Control_c, 0, 64, 127
2, 382169, Note_on_c, 0, 81, 0
2, 382169, Note_on_c, 0, 104, 0
2, 382179, Note_on_c, 0, 71, 0
2, 382179, Note_on_c, 0, 74, 0
2, 382179, Note_on_c, 0, 100, 0
2, 382181, Control_c, 0, 64, 0
2, 382201, Note_on_c, 0, 101, 79
2, 382211, Note_on_c, 0, 64, 72
2, 382224, Note_on_c, 0, 101, 0
2, 382230, Note_on_c, 0, 71, 74
2, 382245, Note_on_c, 0, 64, 0
2, 382247, Note_on_c, 0, 74, 74
2, 382255, Note_on_c, 0, 90, 75
2, 382255, Note_on_c, 0, 94, 76
2, 382257, Control_c, 0, 64, 127
2, 382264, Note_on_c, 0, 80, 76
2, 382272, Note_on_c, 0, 71, 0
2, 382289, Note_on_c, 0, 80, 0
2, 382291, Note_on_c, 0, 74, 0
2, 382303, Control_c, 0, 64, 0
2, 382309, Note_on_c, 0, 90, 0
2, 382309, Note_on_c, 0, 94, 0
2, 382311, Note_on_c, 0, 91, 73
2, 382312, Note_on_c, 0, 95, 72
2, 382330, Note_on_c, 0, 62, 69
2, 382341, Note_on_c, 0, 68, 68
2, 382355, Note_on_c, 0, 95, 0
2, 382355, Note_on_c, 0, 91, 0
2, 382359, Note_on_c, 0, 71, 66
2, 382362, Note_on_c, 0, 92, 68
2, 382364, Note_on_c, 0, 96, 68
2, 382376, Note_on_c, 0, 62, 0
2, 382378, Control_c, 0, 64, 127
2, 382378, Note_on_c, 0, 78, 69
2, 382393, Note_on_c, 0, 71, 0
2, 382399, Note_on_c, 0, 68, 0
2, 382399, Note_on_c, 0, 78, 0
2, 382414, Control_c, 0, 64, 0
2, 382416, Note_on_c, 0, 96, 0
2, 382420, Note_on_c, 0, 92, 0
2, 382422, Note_on_c, 0, 93, 75
2, 382428, Note_on_c, 0, 97, 79
2, 382443, Note_on_c, 0, 61, 69
2, 382456, Note_on_c, 0, 93, 0
2, 382458, Note_on_c, 0, 97, 0
2, 382462, Note_on_c, 0, 67, 73
2, 382478, Note_on_c, 0, 94, 76
2, 382481, Note_on_c, 0, 71, 74
2, 382481, Note_on_c, 0, 98, 79
2, 382491, Control_c, 0, 64, 127
2, 382493, Note_on_c, 0, 77, 76
2, 382499, Note_on_c, 0, 61, 0
2, 382508, Note_on_c, 0, 67, 0
2, 382516, Note_on_c, 0, 77, 0
2, 382526, Note_on_c, 0, 94, 0
2, 382528, Note_on_c, 0, 71, 0
2, 382531, Control_c, 0, 64, 0
2, 382535, Note_on_c, 0, 98, 0
2, 382537, Note_on_c, 0, 95, 76
2, 382537, Note_on_c, 0, 99, 79
2, 382559, Note_on_c, 0, 61, 73
2, 382575, Note_on_c, 0, 99, 0
2, 382575, Note_on_c, 0, 95, 0
2, 382578, Note_on_c, 0, 67, 72
2, 382588, Note_on_c, 0, 71, 74
2, 382596, Note_on_c, 0, 87, 76
2, 382600, Note_on_c, 0, 90, 76
2, 382609, Control_c, 0, 64, 127
2, 382609, Note_on_c, 0, 76, 76
2, 382611, Note_on_c, 0, 67, 0
2, 382626, Note_on_c, 0, 61, 0
2, 382634, Note_on_c, 0, 71, 0
2, 382634, Note_on_c, 0, 76, 0
2, 382644, Note_on_c, 0, 87, 0
2, 382644, Note_on_c, 0, 90, 0
2, 382646, Control_c, 0, 64, 0
2, 382653, Note_on_c, 0, 88, 76
2, 382653, Note_on_c, 0, 91, 76
2, 382673, Note_on_c, 0, 60, 73
2, 382679, Note_on_c, 0, 88, 0
2, 382691, Note_on_c, 0, 91, 0
2, 382695, Note_on_c, 0, 67, 73
2, 382704, Note_on_c, 0, 70, 74
2, 382712, Note_on_c, 0, 93, 75
2, 382714, Note_on_c, 0, 90, 76
2, 382720, Note_on_c, 0, 60, 0
2, 382721, Note_on_c, 0, 76, 76
2, 382723, Control_c, 0, 64, 127
2, 382737, Note_on_c, 0, 70, 0
2, 382739, Note_on_c, 0, 67, 0
2, 382750, Note_on_c, 0, 76, 0
2, 382756, Note_on_c, 0, 93, 0
2, 382758, Note_on_c, 0, 90, 0
2, 382760, Control_c, 0, 64, 0
2, 382768, Note_on_c, 0, 91, 76
2, 382768, Note_on_c, 0, 94, 76
2, 382793, Note_on_c, 0, 59, 73
2, 382811, Note_on_c, 0, 64, 73
2, 382816, Note_on_c, 0, 94, 0
2, 382816, Note_on_c, 0, 91, 0
2, 382828, Note_on_c, 0, 87, 75
2, 382828, Note_on_c, 0, 90, 76
2, 382830, Note_on_c, 0, 67, 72
2, 382838, Note_on_c, 0, 59, 0
2, 382838, Note_on_c, 0, 74, 75
2, 382841, Control_c, 0, 64, 127
2, 382855, Note_on_c, 0, 64, 0
2, 382864, Note_on_c, 0, 67, 0
2, 382864, Note_on_c, 0, 90, 0
2, 382864, Note_on_c, 0, 74, 0
2, 382874, Note_on_c, 0, 87, 0
2, 382878, Control_c, 0, 64, 0
2, 382884, Note_on_c, 0, 91, 79
2, 382888, Note_on_c, 0, 88, 80
2, 382908, Note_on_c, 0, 57, 73
2, 382921, Note_on_c, 0, 88, 0
2, 382923, Note_on_c, 0, 91, 0
2, 382925, Note_on_c, 0, 64, 74
2, 382944, Note_on_c, 0, 57, 0
2, 382944, Note_on_c, 0, 90, 76
2, 382944, Note_on_c, 0, 93, 75
2, 382946, Note_on_c, 0, 67, 73
2, 382954, Note_on_c, 0, 73, 76
2, 382956, Control_c, 0, 64, 127
2, 382971, Note_on_c, 0, 64, 0
2, 382979, Note_on_c, 0, 67, 0
2, 382979, Note_on_c, 0, 73, 0
2, 382996, Note_on_c, 0, 93, 0
2, 382998, Note_on_c, 0, 90, 0
2, 383000, Control_c, 0, 64, 0
2, 383008, Note_on_c, 0, 91, 80
2, 383008, Note_on_c, 0, 94, 81
2, 383043, Note_on_c, 0, 55, 76
2, 383045, Note_on_c, 0, 94, 0
2, 383045, Note_on_c, 0, 91, 0
2, 383049, Note_on_c, 0, 61, 79
2, 383058, Note_on_c, 0, 64, 82
2, 383066, Note_on_c, 0, 87, 86
2, 383068, Note_on_c, 0, 90, 87
2, 383076, Note_on_c, 0, 55, 0
2, 383078, Note_on_c, 0, 71, 83
2, 383080, Control_c, 0, 64, 127
2, 383093, Note_on_c, 0, 61, 0
2, 383093, Note_on_c, 0, 64, 0
2, 383112, Note_on_c, 0, 71, 0
2, 383112, Note_on_c, 0, 87, 0
2, 383114, Note_on_c, 0, 90, 0
2, 383124, Note_on_c, 0, 88, 83
2, 383124, Note_on_c, 0, 91, 83
2, 383126, Control_c, 0, 64, 0
2, 383148, Note_on_c, 0, 88, 0
2, 383155, Note_on_c, 0, 54, 80
2, 383157, Note_on_c, 0, 91, 0
2, 383173, Note_on_c, 0, 61, 80
2, 383178, Note_on_c, 0, 64, 80
2, 383178, Note_on_c, 0, 93, 83
2, 383182, Note_on_c, 0, 90, 82
2, 383188, Note_on_c, 0, 54, 0
2, 383192, Control_c, 0, 64, 127
2, 383192, Note_on_c, 0, 70, 82
2, 383207, Note_on_c, 0, 61, 0
2, 383215, Note_on_c, 0, 93, 0
2, 383215, Note_on_c, 0, 70, 0
2, 383215, Note_on_c, 0, 64, 0
2, 383226, Note_on_c, 0, 90, 0
2, 383236, Note_on_c, 0, 91, 83
2, 383236, Note_on_c, 0, 94, 83
2, 383238, Control_c, 0, 64, 0
2, 383264, Note_on_c, 0, 91, 0
2, 383272, Note_on_c, 0, 94, 0
2, 383277, Note_on_c, 0, 55, 80
2, 383287, Note_on_c, 0, 61, 80
2, 383295, Note_on_c, 0, 87, 82
2, 383296, Note_on_c, 0, 64, 80
2, 383296, Note_on_c, 0, 90, 83
2, 383306, Note_on_c, 0, 71, 83
2, 383314, Note_on_c, 0, 55, 0
2, 383323, Note_on_c, 0, 61, 0
2, 383329, Note_on_c, 0, 90, 0
2, 383329, Note_on_c, 0, 64, 0
2, 383329, Note_on_c, 0, 71, 0
2, 383341, Note_on_c, 0, 87, 0
2, 383361, Note_on_c, 0, 91, 86
2, 383365, Note_on_c, 0, 86, 88
2, 383387, Note_on_c, 0, 54, 80
2, 383392, Note_on_c, 0, 86, 0
2, 383402, Note_on_c, 0, 91, 0
2, 383410, Note_on_c, 0, 61, 80
2, 383419, Control_c, 0, 64, 127
2, 383427, Note_on_c, 0, 92, 84
2, 383429, Note_on_c, 0, 64, 80
2, 383429, Note_on_c, 0, 85, 83
2, 383444, Note_on_c, 0, 70, 83
2, 383450, Note_on_c, 0, 54, 0
2, 383460, Note_on_c, 0, 92, 0
2, 383462, Note_on_c, 0, 61, 0
2, 383473, Note_on_c, 0, 85, 0
2, 383475, Note_on_c, 0, 64, 0
2, 383488, Note_on_c, 0, 70, 0
2, 383581, Note_on_c, 0, 75, 78
2, 383581, Note_on_c, 0, 77, 74
2, 383601, Note_on_c, 0, 75, 0
2, 383610, Note_on_c, 0, 77, 0
2, 383618, Control_c, 0, 64, 0
2, 383624, Note_on_c, 0, 76, 76
2, 383624, Note_on_c, 0, 78, 77
2, 383626, Note_on_c, 0, 60, 73
2, 383626, Note_on_c, 0, 64, 77
2, 383628, Note_on_c, 0, 69, 79
2, 383633, Note_on_c, 0, 66, 79
2, 383647, Note_on_c, 0, 69, 0
2, 383647, Note_on_c, 0, 64, 0
2, 383647, Note_on_c, 0, 76, 0
2, 383656, Note_on_c, 0, 78, 0
2, 383656, Note_on_c, 0, 66, 0
2, 383656, Note_on_c, 0, 60, 0
2, 383680, Note_on_c, 0, 77, 73
2, 383680, Note_on_c, 0, 80, 74
2, 383712, Note_on_c, 0, 77, 0
2, 383722, Note_on_c, 0, 80, 0
2, 383733, Note_on_c, 0, 57, 73
2, 383733, Note_on_c, 0, 61, 73
2, 383733, Note_on_c, 0, 66, 73
2, 383733, Note_on_c, 0, 78, 73
2, 383733, Note_on_c, 0, 81, 76
2, 383741, Note_on_c, 0, 63, 72
2, 383754, Note_on_c, 0, 63, 0
2, 383754, Note_on_c, 0, 61, 0
2, 383756, Note_on_c, 0, 78, 0
2, 383756, Note_on_c, 0, 57, 0
2, 383760, Note_on_c, 0, 66, 0
2, 383766, Note_on_c, 0, 81, 0
2, 383788, Note_on_c, 0, 75, 74
2, 383788, Note_on_c, 0, 77, 74
2, 383810, Note_on_c, 0, 75, 0
2, 383818, Note_on_c, 0, 77, 0
2, 383842, Note_on_c, 0, 60, 73
2, 383842, Note_on_c, 0, 64, 76
2, 383842, Note_on_c, 0, 66, 77
2, 383842, Note_on_c, 0, 69, 79
2, 383842, Note_on_c, 0, 76, 80
2, 383842, Note_on_c, 0, 78, 81
2, 383857, Note_on_c, 0, 66, 0
2, 383865, Note_on_c, 0, 69, 0
2, 383867, Note_on_c, 0, 76, 0
2, 383867, Note_on_c, 0, 60, 0
2, 383867, Note_on_c, 0, 64, 0
2, 383874, Note_on_c, 0, 78, 0
2, 383896, Note_on_c, 0, 80, 76
2, 383906, Note_on_c, 0, 77, 78
2, 383932, Note_on_c, 0, 77, 0
2, 383944, Note_on_c, 0, 80, 0
2, 383953, Note_on_c, 0, 57, 73
2, 383953, Note_on_c, 0, 66, 80
2, 383955, Note_on_c, 0, 61, 73
2, 383955, Note_on_c, 0, 78, 82
2, 383955, Note_on_c, 0, 81, 85
2, 383965, Note_on_c, 0, 63, 73
2, 383978, Note_on_c, 0, 61, 0
2, 383980, Note_on_c, 0, 78, 0
2, 383984, Note_on_c, 0, 66, 0
2, 383984, Note_on_c, 0, 57, 0
2, 383984, Note_on_c, 0, 63, 0
2, 383990, Note_on_c, 0, 81, 0
2, 384010, Note_on_c, 0, 77, 81
2, 384019, Note_on_c, 0, 75, 84
2, 384043, Note_on_c, 0, 75, 0
2, 384043, Note_on_c, 0, 77, 0
2, 384064, Note_on_c, 0, 60, 73
2, 384064, Note_on_c, 0, 76, 84
2, 384064, Note_on_c, 0, 78, 85
2, 384067, Note_on_c, 0, 64, 85
2, 384067, Note_on_c, 0, 66, 86
2, 384067, Note_on_c, 0, 69, 88
2, 384088, Note_on_c, 0, 76, 0
2, 384088, Note_on_c, 0, 60, 0
2, 384089, Note_on_c, 0, 66, 0
2, 384089, Note_on_c, 0, 64, 0
2, 384089, Note_on_c, 0, 69, 0
2, 384089, Note_on_c, 0, 78, 0
2, 384119, Note_on_c, 0, 77, 83
2, 384119, Note_on_c, 0, 80, 86
2, 384155, Note_on_c, 0, 77, 0
2, 384164, Note_on_c, 0, 80, 0
2, 384166, Note_on_c, 0, 63, 73
2, 384166, Note_on_c, 0, 66, 88
2, 384174, Note_on_c, 0, 78, 90
2, 384174, Note_on_c, 0, 81, 93
2, 384176, Note_on_c, 0, 57, 73
2, 384176, Note_on_c, 0, 61, 73
2, 384191, Note_on_c, 0, 61, 0
2, 384193, Note_on_c, 0, 63, 0
2, 384193, Note_on_c, 0, 66, 0
2, 384199, Note_on_c, 0, 78, 0
2, 384203, Note_on_c, 0, 57, 0
2, 384212, Note_on_c, 0, 81, 0
2, 384238, Note_on_c, 0, 80, 84
2, 384240, Note_on_c, 0, 75, 82
2, 384276, Note_on_c, 0, 75, 0
2, 384285, Note_on_c, 0, 80, 0
2, 384287, Note_on_c, 0, 55, 73
2, 384295, Note_on_c, 0, 76, 82
2, 384295, Note_on_c, 0, 81, 84
2, 384297, Note_on_c, 0, 64, 80
2, 384297, Note_on_c, 0, 67, 81
2, 384299, Note_on_c, 0, 60, 73
2, 384314, Note_on_c, 0, 67, 0
2, 384314, Note_on_c, 0, 64, 0
2, 384320, Note_on_c, 0, 76, 0
2, 384326, Note_on_c, 0, 55, 0
2, 384326, Note_on_c, 0, 60, 0
2, 384331, Note_on_c, 0, 81, 0
2, 384350, Note_on_c, 0, 80, 76
2, 384353, Note_on_c, 0, 83, 77
2, 384377, Note_on_c, 0, 80, 0
2, 384385, Note_on_c, 0, 83, 0
2, 384405, Note_on_c, 0, 81, 76
2, 384405, Note_on_c, 0, 84, 76
2, 384407, Note_on_c, 0, 60, 73
2, 384407, Note_on_c, 0, 64, 73
2, 384411, Note_on_c, 0, 54, 73
2, 384411, Note_on_c, 0, 69, 74
2, 384423, Note_on_c, 0, 69, 0
2, 384432, Note_on_c, 0, 81, 0
2, 384432, Note_on_c, 0, 64, 0
2, 384442, Note_on_c, 0, 84, 0
2, 384442, Note_on_c, 0, 54, 0
2, 384442, Note_on_c, 0, 60, 0
2, 384460, Note_on_c, 0, 80, 73
2, 384473, Note_on_c, 0, 75, 74
2, 384494, Note_on_c, 0, 75, 0
2, 384496, Note_on_c, 0, 80, 0
2, 384516, Note_on_c, 0, 81, 78
2, 384518, Note_on_c, 0, 55, 73
2, 384518, Note_on_c, 0, 60, 73
2, 384518, Note_on_c, 0, 67, 77
2, 384518, Note_on_c, 0, 76, 79
2, 384525, Note_on_c, 0, 64, 79
2, 384539, Note_on_c, 0, 67, 0
2, 384543, Note_on_c, 0, 76, 0
2, 384543, Note_on_c, 0, 81, 0
2, 384543, Note_on_c, 0, 64, 0
2, 384550, Note_on_c, 0, 60, 0
2, 384554, Note_on_c, 0, 55, 0
2, 384562, Note_on_c, 0, 80, 74
2, 384564, Note_on_c, 0, 83, 76
2, 384597, Note_on_c, 0, 80, 0
2, 384609, Note_on_c, 0, 83, 0
2, 384615, Note_on_c, 0, 84, 76
2, 384618, Note_on_c, 0, 81, 76
2, 384628, Note_on_c, 0, 64, 73
2, 384630, Note_on_c, 0, 54, 73
2, 384630, Note_on_c, 0, 60, 73
2, 384630, Note_on_c, 0, 69, 74
2, 384643, Note_on_c, 0, 81, 0
2, 384653, Note_on_c, 0, 69, 0
2, 384655, Note_on_c, 0, 84, 0
2, 384663, Note_on_c, 0, 54, 0
2, 384664, Note_on_c, 0, 64, 0
2, 384664, Note_on_c, 0, 60, 0
2, 384672, Note_on_c, 0, 80, 77
2, 384678, Note_on_c, 0, 75, 78
2, 384712, Note_on_c, 0, 75, 0
2, 384719, Note_on_c, 0, 80, 0
2, 384731, Note_on_c, 0, 55, 73
2, 384731, Note_on_c, 0, 76, 84
2, 384731, Note_on_c, 0, 81, 87
2, 384740, Note_on_c, 0, 64, 85
2, 384740, Note_on_c, 0, 67, 86
2, 384744, Note_on_c, 0, 60, 73
2, 384758, Note_on_c, 0, 64, 0
2, 384758, Note_on_c, 0, 76, 0
2, 384765, Note_on_c, 0, 67, 0
2, 384765, Note_on_c, 0, 81, 0
2, 384765, Note_on_c, 0, 60, 0
2, 384767, Note_on_c, 0, 55, 0
2, 384787, Note_on_c, 0, 83, 86
2, 384797, Note_on_c, 0, 80, 86
2, 384807, Note_on_c, 0, 54, 73
2, 384814, Note_on_c, 0, 60, 73
2, 384822, Note_on_c, 0, 80, 0
2, 384832, Note_on_c, 0, 83, 0
2, 384835, Note_on_c, 0, 64, 85
2, 384843, Control_c, 0, 64, 127
2, 384843, Note_on_c, 0, 69, 87
2, 384843, Note_on_c, 0, 81, 90
2, 384843, Note_on_c, 0, 84, 91
2, 384860, Note_on_c, 0, 54, 0
2, 384860, Note_on_c, 0, 60, 0
2, 384870, Note_on_c, 0, 64, 0
2, 384878, Note_on_c, 0, 69, 0
2, 384878, Note_on_c, 0, 81, 0
2, 384891, Note_on_c, 0, 84, 0
2, 384903, Note_on_c, 0, 83, 83
2, 384910, Note_on_c, 0, 80, 80
2, 384955, Note_on_c, 0, 83, 0
2, 384959, Note_on_c, 0, 80, 0
2, 384967, Note_on_c, 0, 69, 82
2, 384969, Note_on_c, 0, 64, 81
2, 384969, Note_on_c, 0, 81, 84
2, 384971, Note_on_c, 0, 72, 81
2, 384971, Note_on_c, 0, 84, 84
2, 384973, Note_on_c, 0, 67, 80
2, 384978, Control_c, 0, 64, 0
2, 384986, Note_on_c, 0, 69, 0
2, 384996, Note_on_c, 0, 81, 0
2, 384996, Note_on_c, 0, 72, 0
2, 384996, Note_on_c, 0, 64, 0
2, 384996, Note_on_c, 0, 67, 0
2, 385007, Note_on_c, 0, 84, 0
2, 385025, Note_on_c, 0, 87, 76
2, 385037, Note_on_c, 0, 83, 76
2, 385063, Note_on_c, 0, 83, 0
2, 385072, Note_on_c, 0, 87, 0
2, 385086, Note_on_c, 0, 69, 76
2, 385086, Note_on_c, 0, 84, 79
2, 385086, Note_on_c, 0, 88, 80
2, 385088, Note_on_c, 0, 60, 73
2, 385088, Note_on_c, 0, 64, 78
2, 385088, Note_on_c, 0, 66, 79
2, 385103, Note_on_c, 0, 64, 0
2, 385111, Note_on_c, 0, 60, 0
2, 385111, Note_on_c, 0, 69, 0
2, 385111, Note_on_c, 0, 66, 0
2, 385113, Note_on_c, 0, 84, 0
2, 385122, Note_on_c, 0, 88, 0
2, 385141, Note_on_c, 0, 80, 74
2, 385141, Note_on_c, 0, 83, 76
2, 385186, Note_on_c, 0, 83, 0
2, 385190, Note_on_c, 0, 80, 0
2, 385199, Note_on_c, 0, 84, 82
2, 385201, Note_on_c, 0, 72, 81
2, 385201, Note_on_c, 0, 81, 84
2, 385203, Note_on_c, 0, 64, 80
2, 385203, Note_on_c, 0, 69, 82
2, 385209, Control_c, 0, 64, 127
2, 385211, Note_on_c, 0, 67, 81
2, 385226, Note_on_c, 0, 81, 0
2, 385226, Note_on_c, 0, 72, 0
2, 385228, Note_on_c, 0, 69, 0
2, 385230, Note_on_c, 0, 64, 0
2, 385236, Note_on_c, 0, 67, 0
2, 385238, Note_on_c, 0, 84, 0
2, 385258, Control_c, 0, 64, 0
2, 385265, Note_on_c, 0, 83, 76
2, 385265, Note_on_c, 0, 87, 76
2, 385303, Note_on_c, 0, 83, 0
2, 385311, Note_on_c, 0, 87, 0
2, 385324, Note_on_c, 0, 84, 76
2, 385324, Note_on_c, 0, 88, 76
2, 385328, Note_on_c, 0, 60, 73
2, 385328, Note_on_c, 0, 64, 73
2, 385328, Note_on_c, 0, 66, 72
2, 385330, Note_on_c, 0, 69, 74
2, 385337, Control_c, 0, 64, 127
2, 385343, Note_on_c, 0, 66, 0
2, 385349, Note_on_c, 0, 64, 0
2, 385349, Note_on_c, 0, 69, 0
2, 385359, Note_on_c, 0, 88, 0
2, 385360, Note_on_c, 0, 60, 0
2, 385360, Note_on_c, 0, 84, 0
2, 385379, Control_c, 0, 64, 0
2, 385386, Note_on_c, 0, 83, 76
2, 385386, Note_on_c, 0, 87, 76
2, 385433, Note_on_c, 0, 83, 0
2, 385441, Note_on_c, 0, 87, 0
2, 385445, Note_on_c, 0, 58, 73
2, 385445, Note_on_c, 0, 60, 73
2, 385445, Note_on_c, 0, 64, 79
2, 385445, Note_on_c, 0, 84, 83
2, 385445, Note_on_c, 0, 88, 84
2, 385451, Note_on_c, 0, 67, 82
2, 385456, Control_c, 0, 64, 127
2, 385462, Note_on_c, 0, 64, 0
2, 385472, Note_on_c, 0, 58, 0
2, 385472, Note_on_c, 0, 67, 0
2, 385478, Note_on_c, 0, 88, 0
2, 385478, Note_on_c, 0, 84, 0
2, 385481, Note_on_c, 0, 60, 0
2, 385502, Control_c, 0, 64, 0
2, 385509, Note_on_c, 0, 87, 83
2, 385513, Note_on_c, 0, 90, 84
2, 385552, Note_on_c, 0, 87, 0
2, 385564, Note_on_c, 0, 90, 0
2, 385574, Note_on_c, 0, 91, 88
2, 385576, Note_on_c, 0, 88, 89
2, 385579, Note_on_c, 0, 55, 73
2, 385579, Note_on_c, 0, 59, 73
2, 385579, Note_on_c, 0, 61, 72
2, 385579, Note_on_c, 0, 64, 87
2, 385587, Control_c, 0, 64, 127
2, 385600, Note_on_c, 0, 64, 0
2, 385600, Note_on_c, 0, 91, 0
2, 385600, Note_on_c, 0, 88, 0
2, 385602, Note_on_c, 0, 55, 0
2, 385604, Note_on_c, 0, 59, 0
2, 385612, Note_on_c, 0, 61, 0
2, 385632, Control_c, 0, 64, 0
2, 385642, Note_on_c, 0, 87, 84
2, 385651, Note_on_c, 0, 83, 84
2, 385685, Note_on_c, 0, 83, 0
2, 385685, Note_on_c, 0, 87, 0
2, 385715, Note_on_c, 0, 88, 81
2, 385719, Control_c, 0, 64, 127
2, 385719, Note_on_c, 0, 58, 73
2, 385719, Note_on_c, 0, 64, 81
2, 385719, Note_on_c, 0, 67, 82
2, 385719, Note_on_c, 0, 84, 86
2, 385730, Note_on_c, 0, 60, 72
2, 385734, Note_on_c, 0, 64, 0
2, 385742, Note_on_c, 0, 67, 0
2, 385744, Note_on_c, 0, 84, 0
2, 385751, Note_on_c, 0, 88, 0
2, 385751, Note_on_c, 0, 60, 0
2, 385751, Note_on_c, 0, 58, 0
2, 385783, Note_on_c, 0, 87, 83
2, 385783, Note_on_c, 0, 90, 86
2, 385794, Control_c, 0, 64, 0
2, 385820, Note_on_c, 0, 87, 0
2, 385828, Note_on_c, 0, 90, 0
2, 385867, Note_on_c, 0, 91, 84
2, 385869, Note_on_c, 0, 59, 73
2, 385869, Note_on_c, 0, 61, 73
2, 385869, Note_on_c, 0, 64, 85
2, 385869, Note_on_c, 0, 88, 89
2, 385879, Note_on_c, 0, 55, 72
2, 385888, Control_c, 0, 64, 127
2, 385902, Note_on_c, 0, 88, 0
2, 385902, Note_on_c, 0, 64, 0
2, 385902, Note_on_c, 0, 61, 0
2, 385902, Note_on_c, 0, 91, 0
2, 385904, Note_on_c, 0, 55, 0
2, 385908, Note_on_c, 0, 59, 0
2, 385949, Note_on_c, 0, 83, 86
2, 385949, Note_on_c, 0, 87, 90
2, 386001, Note_on_c, 0, 87, 0
2, 386001, Note_on_c, 0, 83, 0
2, 386005, Control_c, 0, 64, 0
2, 386029, Note_on_c, 0, 48, 97
2, 386040, Note_on_c, 0, 55, 97
2, 386048, Note_on_c, 0, 58, 97
2, 386050, Note_on_c, 0, 84, 99
2, 386050, Note_on_c, 0, 88, 100
2, 386054, Note_on_c, 0, 64, 98
2, 386089, Control_c, 0, 64, 127
2, 386093, Note_on_c, 0, 64, 0
2, 386101, Note_on_c, 0, 55, 0
2, 386101, Note_on_c, 0, 58, 0
2, 386101, Note_on_c, 0, 48, 0
2, 386101, Note_on_c, 0, 88, 0
2, 386101, Note_on_c, 0, 84, 0
2, 386128, Note_on_c, 0, 87, 101
2, 386130, Note_on_c, 0, 90, 101
2, 386160, Note_on_c, 0, 87, 0
2, 386168, Note_on_c, 0, 90, 0
2, 386179, Control_c, 0, 64, 0
2, 386203, Note_on_c, 0, 91, 105
2, 386205, Note_on_c, 0, 55, 102
2, 386205, Note_on_c, 0, 88, 107
2, 386207, Note_on_c, 0, 47, 103
2, 386207, Note_on_c, 0, 52, 104
2, 386207, Note_on_c, 0, 62, 105
2, 386258, Control_c, 0, 64, 127
2, 386268, Note_on_c, 0, 91, 0
2, 386272, Note_on_c, 0, 88, 0
2, 386279, Note_on_c, 0, 93, 111
2, 386291, Note_on_c, 0, 47, 0
2, 386291, Note_on_c, 0, 62, 0
2, 386291, Note_on_c, 0, 90, 111
2, 386306, Note_on_c, 0, 55, 0
2, 386306, Note_on_c, 0, 52, 0
2, 386316, Note_on_c, 0, 93, 0
2, 386323, Note_on_c, 0, 90, 0
2, 386355, Control_c, 0, 64, 0
2, 386389, Note_on_c, 0, 91, 110
2, 386389, Note_on_c, 0, 94, 111
2, 386392, Note_on_c, 0, 46, 110
2, 386392, Note_on_c, 0, 51, 111
2, 386392, Note_on_c, 0, 55, 110
2, 386392, Note_on_c, 0, 61, 111
2, 386450, Control_c, 0, 64, 127
2, 386462, Note_on_c, 0, 94, 0
2, 386462, Note_on_c, 0, 91, 0
2, 386464, Note_on_c, 0, 55, 0
2, 386464, Note_on_c, 0, 51, 0
2, 386464, Note_on_c, 0, 61, 0
2, 386464, Note_on_c, 0, 46, 0
2, 386493, Control_c, 0, 64, 0
2, 386533, Note_on_c, 0, 82, 114
2, 386538, Note_on_c, 0, 75, 113
2, 386556, Note_on_c, 0, 33, 111
2, 386567, Note_on_c, 0, 45, 111
2, 386595, Control_c, 0, 64, 127
2, 386612, Note_on_c, 0, 33, 0
2, 386620, Note_on_c, 0, 82, 0
2, 386620, Note_on_c, 0, 75, 0
2, 386622, Note_on_c, 0, 45, 0
2, 386685, Note_on_c, 0, 76, 112
2, 386687, Note_on_c, 0, 83, 115
2, 386689, Note_on_c, 0, 55, 112
2, 386689, Note_on_c, 0, 61, 112
2, 386689, Note_on_c, 0, 67, 112
2, 386703, Note_on_c, 0, 61, 0
2, 386710, Note_on_c, 0, 76, 0
2, 386710, Note_on_c, 0, 67, 0
2, 386712, Note_on_c, 0, 55, 0
2, 386729, Note_on_c, 0, 83, 0
2, 386842, Note_on_c, 0, 81, 102
2, 386842, Note_on_c, 0, 91, 84
2, 386844, Note_on_c, 0, 90, 83
2, 386866, Note_on_c, 0, 90, 0
2, 386866, Note_on_c, 0, 91, 0
2, 386866, Note_on_c, 0, 81, 0
2, 386884, Note_on_c, 0, 79, 82
2, 386884, Note_on_c, 0, 88, 84
2, 386886, Note_on_c, 0, 95, 83
2, 386901, Note_on_c, 0, 88, 0
2, 386907, Note_on_c, 0, 95, 0
2, 386929, Note_on_c, 0, 79, 0
2, 386931, Note_on_c, 0, 78, 81
2, 386931, Note_on_c, 0, 87, 83
2, 386931, Note_on_c, 0, 88, 82
2, 386963, Note_on_c, 0, 88, 0
2, 386967, Note_on_c, 0, 87, 0
2, 386967, Note_on_c, 0, 78, 0
2, 386985, Note_on_c, 0, 77, 80
2, 386985, Note_on_c, 0, 86, 83
2, 386985, Note_on_c, 0, 91, 82
2, 387001, Note_on_c, 0, 86, 0
2, 387017, Note_on_c, 0, 91, 0
2, 387017, Note_on_c, 0, 77, 0
2, 387029, Note_on_c, 0, 76, 74
2, 387029, Note_on_c, 0, 85, 75
2, 387029, Note_on_c, 0, 86, 74
2, 387061, Note_on_c, 0, 86, 0
2, 387061, Note_on_c, 0, 76, 0
2, 387070, Note_on_c, 0, 85, 0
2, 387084, Note_on_c, 0, 75, 74
2, 387084, Note_on_c, 0, 84, 76
2, 387084, Note_on_c, 0, 90, 75
2, 387117, Note_on_c, 0, 90, 0
2, 387117, Note_on_c, 0, 84, 0
2, 387117, Note_on_c, 0, 75, 0
2, 387136, Note_on_c, 0, 83, 76
2, 387136, Note_on_c, 0, 85, 76
2, 387137, Note_on_c, 0, 74, 73
2, 387169, Note_on_c, 0, 83, 0
2, 387179, Note_on_c, 0, 85, 0
2, 387181, Note_on_c, 0, 74, 0
2, 387181, Note_on_c, 0, 73, 74
2, 387181, Note_on_c, 0, 88, 75
2, 387192, Note_on_c, 0, 81, 76
2, 387208, Note_on_c, 0, 81, 0
2, 387214, Note_on_c, 0, 88, 0
2, 387218, Note_on_c, 0, 73, 0
2, 387232, Note_on_c, 0, 72, 74
2, 387243, Note_on_c, 0, 81, 76
2, 387243, Note_on_c, 0, 83, 76
2, 387273, Note_on_c, 0, 72, 0
2, 387280, Note_on_c, 0, 83, 0
2, 387280, Note_on_c, 0, 81, 0
2, 387282, Note_on_c, 0, 71, 73
2, 387288, Note_on_c, 0, 79, 74
2, 387288, Note_on_c, 0, 86, 76
2, 387308, Note_on_c, 0, 79, 0
2, 387322, Note_on_c, 0, 86, 0
2, 387331, Note_on_c, 0, 71, 0
2, 387341, Note_on_c, 0, 78, 75
2, 387341, Note_on_c, 0, 79, 76
2, 387345, Note_on_c, 0, 69, 77
2, 387376, Note_on_c, 0, 78, 0
2, 387378, Note_on_c, 0, 69, 0
2, 387386, Note_on_c, 0, 79, 0
2, 387401, Note_on_c, 0, 67, 81
2, 387401, Note_on_c, 0, 76, 82
2, 387401, Note_on_c, 0, 83, 83
2, 387424, Note_on_c, 0, 67, 0
2, 387435, Note_on_c, 0, 76, 0
2, 387447, Note_on_c, 0, 83, 0
2, 387450, Note_on_c, 0, 78, 81
2, 387450, Note_on_c, 0, 79, 81
2, 387452, Note_on_c, 0, 69, 80
2, 387484, Note_on_c, 0, 69, 0
2, 387486, Note_on_c, 0, 78, 0
2, 387496, Note_on_c, 0, 79, 0
2, 387497, Note_on_c, 0, 67, 80
2, 387507, Note_on_c, 0, 76, 81
2, 387509, Note_on_c, 0, 83, 83
2, 387533, Note_on_c, 0, 76, 0
2, 387543, Note_on_c, 0, 83, 0
2, 387543, Note_on_c, 0, 67, 0
2, 387554, Note_on_c, 0, 66, 79
2, 387568, Note_on_c, 0, 76, 81
2, 387573, Note_on_c, 0, 75, 81
2, 387592, Note_on_c, 0, 66, 0
2, 387597, Note_on_c, 0, 75, 0
2, 387597, Note_on_c, 0, 76, 0
2, 387603, Note_on_c, 0, 65, 79
2, 387613, Note_on_c, 0, 74, 81
2, 387613, Note_on_c, 0, 79, 81
2, 387635, Note_on_c, 0, 74, 0
2, 387646, Note_on_c, 0, 65, 0
2, 387656, Note_on_c, 0, 79, 0
2, 387669, Note_on_c, 0, 64, 80
2, 387669, Note_on_c, 0, 73, 81
2, 387669, Note_on_c, 0, 74, 80
2, 387693, Note_on_c, 0, 64, 0
2, 387701, Note_on_c, 0, 73, 0
2, 387703, Note_on_c, 0, 74, 0
2, 387712, Note_on_c, 0, 78, 81
2, 387716, Note_on_c, 0, 63, 80
2, 387716, Note_on_c, 0, 72, 81
2, 387744, Note_on_c, 0, 63, 0
2, 387750, Note_on_c, 0, 78, 0
2, 387754, Note_on_c, 0, 72, 0
2, 387774, Note_on_c, 0, 62, 80
2, 387774, Note_on_c, 0, 71, 81
2, 387774, Note_on_c, 0, 73, 80
2, 387809, Note_on_c, 0, 71, 0
2, 387809, Note_on_c, 0, 62, 0
2, 387825, Note_on_c, 0, 73, 0
2, 387829, Note_on_c, 0, 76, 81
2, 387831, Note_on_c, 0, 61, 80
2, 387831, Note_on_c, 0, 69, 81
2, 387856, Note_on_c, 0, 69, 0
2, 387862, Note_on_c, 0, 76, 0
2, 387876, Note_on_c, 0, 61, 0
2, 387885, Note_on_c, 0, 71, 81
2, 387887, Note_on_c, 0, 60, 80
2, 387887, Note_on_c, 0, 69, 81
2, 387919, Note_on_c, 0, 60, 0
2, 387927, Note_on_c, 0, 69, 0
2, 387928, Note_on_c, 0, 71, 0
2, 387932, Note_on_c, 0, 67, 80
2, 387934, Note_on_c, 0, 59, 80
2, 387934, Note_on_c, 0, 74, 81
2, 387954, Note_on_c, 0, 74, 0
2, 387956, Note_on_c, 0, 67, 0
2, 387976, Note_on_c, 0, 59, 0
2, 387986, Note_on_c, 0, 57, 80
2, 387986, Note_on_c, 0, 66, 80
2, 387990, Note_on_c, 0, 67, 79
2, 388012, Note_on_c, 0, 67, 0
2, 388014, Note_on_c, 0, 66, 0
2, 388014, Note_on_c, 0, 57, 0
2, 388042, Note_on_c, 0, 55, 82
2, 388042, Note_on_c, 0, 64, 80
2, 388042, Note_on_c, 0, 71, 80
2, 388068, Note_on_c, 0, 64, 0
2, 388077, Note_on_c, 0, 71, 0
2, 388079, Note_on_c, 0, 55, 0
2, 388126, Control_c, 0, 64, 0
2, 388192, Note_on_c, 0, 60, 78
2, 388192, Note_on_c, 0, 81, 59
2, 388193, Note_on_c, 0, 83, 58
2, 388197, Note_on_c, 0, 72, 55
2, 388201, Control_c, 0, 64, 127
2, 388215, Note_on_c, 0, 72, 0
2, 388218, Note_on_c, 0, 83, 0
2, 388218, Note_on_c, 0, 81, 0
2, 388228, Note_on_c, 0, 60, 0
2, 388262, Note_on_c, 0, 59, 73
2, 388262, Note_on_c, 0, 71, 56
2, 388262, Note_on_c, 0, 79, 55
2, 388262, Note_on_c, 0, 86, 56
2, 388275, Note_on_c, 0, 79, 0
2, 388283, Note_on_c, 0, 71, 0
2, 388285, Note_on_c, 0, 59, 0
2, 388287, Note_on_c, 0, 86, 0
2, 388309, Note_on_c, 0, 57, 72
2, 388309, Note_on_c, 0, 69, 62
2, 388309, Note_on_c, 0, 79, 63
2, 388314, Note_on_c, 0, 78, 64
2, 388328, Note_on_c, 0, 57, 0
2, 388330, Note_on_c, 0, 69, 0
2, 388339, Note_on_c, 0, 78, 0
2, 388343, Note_on_c, 0, 79, 0
2, 388369, Note_on_c, 0, 55, 80
2, 388369, Note_on_c, 0, 76, 71
2, 388369, Note_on_c, 0, 83, 74
2, 388371, Note_on_c, 0, 67, 72
2, 388386, Note_on_c, 0, 67, 0
2, 388396, Note_on_c, 0, 76, 0
2, 388398, Note_on_c, 0, 83, 0
2, 388398, Note_on_c, 0, 55, 0
2, 388428, Note_on_c, 0, 54, 83
2, 388428, Note_on_c, 0, 66, 78
2, 388428, Note_on_c, 0, 75, 80
2, 388428, Note_on_c, 0, 76, 81
2, 388452, Note_on_c, 0, 76, 0
2, 388452, Note_on_c, 0, 75, 0
2, 388452, Note_on_c, 0, 66, 0
2, 388461, Note_on_c, 0, 54, 0
2, 388483, Note_on_c, 0, 53, 80
2, 388483, Note_on_c, 0, 65, 80
2, 388483, Note_on_c, 0, 79, 80
2, 388491, Note_on_c, 0, 74, 81
2, 388509, Note_on_c, 0, 65, 0
2, 388509, Note_on_c, 0, 53, 0
2, 388517, Note_on_c, 0, 79, 0
2, 388517, Note_on_c, 0, 74, 0
2, 388537, Note_on_c, 0, 52, 80
2, 388537, Note_on_c, 0, 64, 80
2, 388539, Note_on_c, 0, 74, 80
2, 388549, Note_on_c, 0, 73, 81
2, 388562, Note_on_c, 0, 64, 0
2, 388562, Note_on_c, 0, 52, 0
2, 388572, Note_on_c, 0, 74, 0
2, 388572, Note_on_c, 0, 73, 0
2, 388601, Note_on_c, 0, 78, 80
2, 388605, Note_on_c, 0, 51, 80
2, 388605, Note_on_c, 0, 63, 80
2, 388605, Note_on_c, 0, 72, 81
2, 388629, Note_on_c, 0, 72, 0
2, 388629, Note_on_c, 0, 78, 0
2, 388629, Note_on_c, 0, 51, 0
2, 388629, Note_on_c, 0, 63, 0
2, 388659, Note_on_c, 0, 50, 79
2, 388659, Note_on_c, 0, 62, 80
2, 388659, Note_on_c, 0, 73, 81
2, 388669, Note_on_c, 0, 71, 80
2, 388687, Note_on_c, 0, 62, 0
2, 388687, Note_on_c, 0, 50, 0
2, 388695, Note_on_c, 0, 73, 0
2, 388695, Note_on_c, 0, 71, 0
2, 388726, Note_on_c, 0, 61, 80
2, 388726, Note_on_c, 0, 76, 81
2, 388728, Note_on_c, 0, 49, 80
2, 388728, Note_on_c, 0, 69, 81
2, 388752, Note_on_c, 0, 69, 0
2, 388762, Note_on_c, 0, 76, 0
2, 388771, Note_on_c, 0, 49, 0
2, 388771, Note_on_c, 0, 61, 0
2, 388793, Note_on_c, 0, 48, 79
2, 388793, Note_on_c, 0, 60, 80
2, 388793, Note_on_c, 0, 69, 81
2, 388793, Note_on_c, 0, 71, 80
2, 388816, Note_on_c, 0, 71, 0
2, 388816, Note_on_c, 0, 69, 0
2, 388817, Note_on_c, 0, 60, 0
2, 388817, Note_on_c, 0, 48, 0
2, 388855, Note_on_c, 0, 47, 79
2, 388855, Note_on_c, 0, 67, 80
2, 388855, Note_on_c, 0, 74, 80
2, 388857, Note_on_c, 0, 59, 80
2, 388877, Note_on_c, 0, 67, 0
2, 388888, Note_on_c, 0, 47, 0
2, 388888, Note_on_c, 0, 74, 0
2, 388888, Note_on_c, 0, 59, 0
2, 388928, Note_on_c, 0, 45, 81
2, 388928, Note_on_c, 0, 57, 84
2, 388928, Note_on_c, 0, 66, 84
2, 388928, Note_on_c, 0, 67, 85
2, 388950, Note_on_c, 0, 67, 0
2, 388952, Note_on_c, 0, 66, 0
2, 388961, Note_on_c, 0, 57, 0
2, 388971, Note_on_c, 0, 45, 0
2, 389003, Note_on_c, 0, 43, 88
2, 389003, Note_on_c, 0, 55, 88
2, 389003, Note_on_c, 0, 64, 88
2, 389003, Note_on_c, 0, 71, 88
2, 389025, Note_on_c, 0, 64, 0
2, 389029, Note_on_c, 0, 43, 0
2, 389029, Note_on_c, 0, 55, 0
2, 389038, Note_on_c, 0, 71, 0
2, 389080, Note_on_c, 0, 42, 88
2, 389080, Note_on_c, 0, 54, 88
2, 389080, Note_on_c, 0, 63, 87
2, 389080, Note_on_c, 0, 64, 88
2, 389109, Note_on_c, 0, 64, 0
2, 389109, Note_on_c, 0, 63, 0
2, 389121, Note_on_c, 0, 54, 0
2, 389121, Note_on_c, 0, 42, 0
2, 389160, Note_on_c, 0, 41, 87
2, 389160, Note_on_c, 0, 53, 88
2, 389160, Note_on_c, 0, 62, 87
2, 389160, Note_on_c, 0, 67, 88
2, 389184, Note_on_c, 0, 62, 0
2, 389184, Note_on_c, 0, 53, 0
2, 389194, Note_on_c, 0, 67, 0
2, 389201, Note_on_c, 0, 41, 0
2, 389233, Note_on_c, 0, 40, 86
2, 389233, Note_on_c, 0, 52, 88
2, 389233, Note_on_c, 0, 61, 89
2, 389233, Note_on_c, 0, 62, 90
2, 389267, Note_on_c, 0, 52, 0
2, 389278, Note_on_c, 0, 40, 0
2, 389278, Note_on_c, 0, 62, 0
2, 389278, Control_c, 0, 64, 0
2, 389288, Note_on_c, 0, 61, 0
2, 389320, Note_on_c, 0, 60, 93
2, 389321, Note_on_c, 0, 39, 89
2, 389321, Note_on_c, 0, 51, 88
2, 389321, Note_on_c, 0, 66, 46
2, 389367, Control_c, 0, 64, 127
2, 389383, Note_on_c, 0, 51, 0
2, 389391, Note_on_c, 0, 66, 0
2, 389391, Note_on_c, 0, 60, 0
2, 389400, Note_on_c, 0, 39, 0
2, 389402, Control_c, 0, 64, 0
2, 389428, Note_on_c, 0, 59, 94
2, 389428, Note_on_c, 0, 61, 91
2, 389430, Note_on_c, 0, 38, 90
2, 389430, Note_on_c, 0, 50, 89
2, 389482, Control_c, 0, 64, 127
2, 389510, Note_on_c, 0, 59, 0
2, 389517, Note_on_c, 0, 38, 0
2, 389527, Note_on_c, 0, 50, 0
2, 389529, Control_c, 0, 64, 0
2, 389536, Note_on_c, 0, 61, 0
2, 389562, Note_on_c, 0, 64, 45
2, 389566, Note_on_c, 0, 37, 93
2, 389566, Note_on_c, 0, 49, 92
2, 389566, Note_on_c, 0, 57, 91
2, 389628, Control_c, 0, 64, 127
2, 389654, Note_on_c, 0, 64, 0
2, 389661, Note_on_c, 0, 49, 0
2, 389667, Note_on_c, 0, 57, 0
2, 389677, Control_c, 0, 64, 0
2, 389684, Note_on_c, 0, 37, 0
2, 389722, Note_on_c, 0, 64, 60
2, 389724, Note_on_c, 0, 36, 99
2, 389724, Note_on_c, 0, 48, 98
2, 389724, Note_on_c, 0, 55, 97
2, 389724, Note_on_c, 0, 58, 96
2, 389724, Note_on_c, 0, 66, 56
2, 389797, Control_c, 0, 64, 127
2, 389840, Note_on_c, 0, 55, 0
2, 389840, Note_on_c, 0, 64, 0
2, 389851, Note_on_c, 0, 58, 0
2, 389851, Note_on_c, 0, 66, 0
2, 389870, Note_on_c, 0, 36, 0
2, 389870, Note_on_c, 0, 48, 0
2, 389870, Control_c, 0, 64, 0
2, 389911, Note_on_c, 0, 62, 104
2, 389913, Note_on_c, 0, 35, 96
2, 389913, Note_on_c, 0, 47, 95
2, 389913, Note_on_c, 0, 55, 94
2, 389913, Note_on_c, 0, 64, 95
2, 389913, Note_on_c, 0, 67, 94
2, 389992, Control_c, 0, 64, 127
2, 390032, Note_on_c, 0, 62, 0
2, 390036, Note_on_c, 0, 67, 0
2, 390040, Note_on_c, 0, 35, 0
2, 390040, Note_on_c, 0, 64, 0
2, 390049, Note_on_c, 0, 47, 0
2, 390051, Note_on_c, 0, 55, 0
2, 390124, Control_c, 0, 64, 0
2, 390152, Note_on_c, 0, 55, 111
2, 390154, Note_on_c, 0, 61, 111
2, 390154, Note_on_c, 0, 63, 111
2, 390154, Note_on_c, 0, 70, 47
2, 390165, Note_on_c, 0, 34, 110
2, 390165, Note_on_c, 0, 46, 111
2, 390167, Note_on_c, 0, 39, 110
2, 390227, Control_c, 0, 64, 127
2, 390256, Note_on_c, 0, 46, 0
2, 390262, Note_on_c, 0, 63, 0
2, 390262, Note_on_c, 0, 55, 0
2, 390262, Note_on_c, 0, 34, 0
2, 390266, Note_on_c, 0, 39, 0
2, 390310, Note_on_c, 0, 61, 0
2, 390316, Note_on_c, 0, 70, 0
2, 390383, Control_c, 0, 64, 0
2, 390424, Note_on_c, 0, 59, 110
2, 390424, Note_on_c, 0, 64, 64
2, 390424, Note_on_c, 0, 71, 64
2, 390426, Note_on_c, 0, 67, 62
2, 390432, Note_on_c, 0, 33, 101
2, 390436, Note_on_c, 0, 61, 100
2, 390499, Control_c, 0, 64, 127
2, 390514, Note_on_c, 0, 59, 0
2, 390534, Note_on_c, 0, 33, 0
2, 390542, Note_on_c, 0, 67, 0
2, 390542, Note_on_c, 0, 64, 0
2, 390551, Note_on_c, 0, 61, 0
2, 390569, Note_on_c, 0, 71, 0
2, 390584, Note_on_c, 0, 40, 79
2, 390608, Note_on_c, 0, 43, 78
2, 390628, Note_on_c, 0, 45, 76
2, 390634, Note_on_c, 0, 40, 0
2, 390648, Note_on_c, 0, 49, 74
2, 390660, Note_on_c, 0, 43, 0
2, 390667, Note_on_c, 0, 52, 72
2, 390681, Note_on_c, 0, 45, 0
2, 390683, Note_on_c, 0, 55, 77
2, 390694, Note_on_c, 0, 59, 78
2, 390702, Note_on_c, 0, 52, 0
2, 390702, Note_on_c, 0, 49, 0
2, 390712, Note_on_c, 0, 61, 81
2, 390719, Note_on_c, 0, 55, 0
2, 390721, Note_on_c, 0, 64, 88
2, 390731, Note_on_c, 0, 67, 88
2, 390736, Note_on_c, 0, 59, 0
2, 390753, Note_on_c, 0, 61, 0
2, 390753, Note_on_c, 0, 64, 0
2, 390755, Note_on_c, 0, 52, 83
2, 390762, Note_on_c, 0, 67, 0
2, 390776, Note_on_c, 0, 55, 82
2, 390798, Note_on_c, 0, 57, 81
2, 390814, Note_on_c, 0, 61, 80
2, 390834, Note_on_c, 0, 64, 82
2, 390862, Note_on_c, 0, 67, 81
2, 390872, Note_on_c, 0, 71, 81
2, 390876, Note_on_c, 0, 64, 0
2, 390880, Note_on_c, 0, 57, 0
2, 390883, Note_on_c, 0, 73, 81
2, 390885, Note_on_c, 0, 61, 0
2, 390889, Note_on_c, 0, 55, 0
2, 390889, Note_on_c, 0, 76, 81
2, 390891, Note_on_c, 0, 52, 0
2, 390895, Note_on_c, 0, 67, 0
2, 390906, Note_on_c, 0, 71, 0
2, 390910, Note_on_c, 0, 79, 81
2, 390914, Note_on_c, 0, 73, 0
2, 390924, Note_on_c, 0, 76, 0
2, 390935, Note_on_c, 0, 79, 0
2, 390993, Control_c, 0, 64, 0
2, 391013, Note_on_c, 0, 33, 80
2, 391039, Note_on_c, 0, 78, 98
2, 391041, Note_on_c, 0, 71, 99
2, 391041, Note_on_c, 0, 75, 99
2, 391041, Note_on_c, 0, 83, 100
2, 391052, Note_on_c, 0, 72, 99
2, 391078, Control_c, 0, 64, 127
2, 391080, Note_on_c, 0, 45, 88
2, 391096, Note_on_c, 0, 33, 0
2, 391106, Note_on_c, 0, 83, 0
2, 391114, Note_on_c, 0, 72, 0
2, 391116, Note_on_c, 0, 75, 0
2, 391116, Note_on_c, 0, 78, 0
2, 391125, Note_on_c, 0, 71, 0
2, 391125, Note_on_c, 0, 45, 0
2, 391137, Note_on_c, 0, 48, 92
2, 391165, Note_on_c, 0, 51, 91
2, 391172, Note_on_c, 0, 48, 0
2, 391192, Note_on_c, 0, 54, 88
2, 391207, Note_on_c, 0, 57, 86
2, 391220, Note_on_c, 0, 51, 0
2, 391226, Note_on_c, 0, 60, 84
2, 391236, Note_on_c, 0, 57, 0
2, 391241, Note_on_c, 0, 54, 0
2, 391245, Note_on_c, 0, 63, 81
2, 391255, Note_on_c, 0, 66, 73
2, 391263, Note_on_c, 0, 60, 0
2, 391274, Note_on_c, 0, 63, 0
2, 391274, Note_on_c, 0, 71, 74
2, 391282, Note_on_c, 0, 66, 0
2, 391302, Note_on_c, 0, 60, 80
2, 391306, Note_on_c, 0, 71, 0
2, 391317, Note_on_c, 0, 63, 82
2, 391334, Note_on_c, 0, 66, 77
2, 391354, Note_on_c, 0, 69, 80
2, 391382, Note_on_c, 0, 72, 82
2, 391396, Note_on_c, 0, 69, 0
2, 391396, Note_on_c, 0, 75, 81
2, 391400, Note_on_c, 0, 66, 0
2, 391404, Note_on_c, 0, 72, 0
2, 391409, Note_on_c, 0, 63, 0
2, 391415, Note_on_c, 0, 60, 0
2, 391419, Note_on_c, 0, 78, 81
2, 391425, Note_on_c, 0, 75, 0
2, 391434, Note_on_c, 0, 81, 83
2, 391444, Note_on_c, 0, 78, 0
2, 391456, Note_on_c, 0, 84, 83
2, 391463, Note_on_c, 0, 81, 0
2, 391473, Note_on_c, 0, 87, 83
2, 391484, Note_on_c, 0, 90, 83
2, 391492, Note_on_c, 0, 84, 0
2, 391506, Note_on_c, 0, 87, 0
2, 391521, Note_on_c, 0, 90, 0
2, 391539, Control_c, 0, 64, 0
2, 391582, Note_on_c, 0, 91, 87
2, 391586, Note_on_c, 0, 85, 91
2, 391586, Note_on_c, 0, 88, 92
2, 391586, Note_on_c, 0, 95, 93
2, 391588, Note_on_c, 0, 33, 80
2, 391588, Note_on_c, 0, 83, 94
2, 391642, Note_on_c, 0, 45, 77
2, 391656, Control_c, 0, 64, 127
2, 391671, Note_on_c, 0, 95, 0
2, 391672, Note_on_c, 0, 88, 0
2, 391672, Note_on_c, 0, 83, 0
2, 391674, Note_on_c, 0, 91, 0
2, 391684, Note_on_c, 0, 85, 0
2, 391684, Note_on_c, 0, 45, 0
2, 391688, Note_on_c, 0, 33, 0
2, 391688, Note_on_c, 0, 49, 73
2, 391725, Note_on_c, 0, 49, 0
2, 391729, Note_on_c, 0, 52, 73
2, 391765, Note_on_c, 0, 52, 0
2, 391767, Note_on_c, 0, 55, 73
2, 391785, Note_on_c, 0, 59, 73
2, 391799, Note_on_c, 0, 55, 0
2, 391799, Note_on_c, 0, 61, 73
2, 391813, Note_on_c, 0, 63, 72
2, 391816, Note_on_c, 0, 59, 0
2, 391824, Note_on_c, 0, 61, 0
2, 391828, Note_on_c, 0, 64, 73
2, 391836, Note_on_c, 0, 63, 0
2, 391845, Note_on_c, 0, 55, 73
2, 391855, Note_on_c, 0, 64, 0
2, 391875, Note_on_c, 0, 59, 76
2, 391891, Note_on_c, 0, 61, 78
2, 391917, Note_on_c, 0, 63, 80
2, 391931, Note_on_c, 0, 55, 0
2, 391935, Note_on_c, 0, 59, 0
2, 391935, Note_on_c, 0, 64, 84
2, 391938, Note_on_c, 0, 61, 0
2, 391940, Note_on_c, 0, 63, 0
2, 391955, Note_on_c, 0, 67, 83
2, 391968, Note_on_c, 0, 64, 0
2, 391982, Note_on_c, 0, 71, 82
2, 391985, Note_on_c, 0, 67, 0
2, 391991, Note_on_c, 0, 73, 81
2, 392009, Note_on_c, 0, 75, 81
2, 392013, Note_on_c, 0, 73, 0
2, 392013, Note_on_c, 0, 71, 0
2, 392025, Note_on_c, 0, 76, 80
2, 392032, Note_on_c, 0, 75, 0
2, 392051, Note_on_c, 0, 76, 0
2, 392092, Control_c, 0, 64, 0
2, 392092, Note_on_c, 0, 33, 80
2, 392136, Note_on_c, 0, 78, 90
2, 392138, Note_on_c, 0, 83, 95
2, 392140, Note_on_c, 0, 74, 94
2, 392146, Note_on_c, 0, 75, 95
2, 392194, Note_on_c, 0, 45, 77
2, 392210, Control_c, 0, 64, 127
2, 392236, Note_on_c, 0, 45, 0
2, 392236, Note_on_c, 0, 33, 0
2, 392256, Note_on_c, 0, 51, 72
2, 392264, Note_on_c, 0, 75, 0
2, 392277, Note_on_c, 0, 54, 73
2, 392291, Note_on_c, 0, 74, 0
2, 392293, Note_on_c, 0, 78, 0
2, 392306, Note_on_c, 0, 57, 73
2, 392314, Note_on_c, 0, 51, 0
2, 392314, Note_on_c, 0, 83, 0
2, 392325, Note_on_c, 0, 60, 73
2, 392333, Note_on_c, 0, 54, 0
2, 392344, Note_on_c, 0, 57, 0
2, 392354, Note_on_c, 0, 74, 74
2, 392362, Note_on_c, 0, 60, 0
2, 392373, Note_on_c, 0, 75, 74
2, 392383, Note_on_c, 0, 74, 0
2, 392392, Note_on_c, 0, 78, 74
2, 392400, Note_on_c, 0, 75, 0
2, 392410, Note_on_c, 0, 83, 74
2, 392428, Note_on_c, 0, 78, 0
2, 392448, Note_on_c, 0, 83, 0
2, 392460, Note_on_c, 0, 86, 68
2, 392486, Note_on_c, 0, 86, 0
2, 392486, Note_on_c, 0, 87, 71
2, 392504, Note_on_c, 0, 90, 72
2, 392520, Note_on_c, 0, 87, 0
2, 392532, Note_on_c, 0, 95, 76
2, 392537, Note_on_c, 0, 90, 0
2, 392558, Note_on_c, 0, 72, 77
2, 392585, Note_on_c, 0, 90, 82
2, 392613, Note_on_c, 0, 87, 83
2, 392619, Note_on_c, 0, 95, 0
2, 392631, Note_on_c, 0, 84, 82
2, 392640, Note_on_c, 0, 90, 0
2, 392648, Note_on_c, 0, 87, 0
2, 392659, Note_on_c, 0, 72, 0
2, 392667, Note_on_c, 0, 84, 0
2, 392673, Note_on_c, 0, 83, 76
2, 392712, Note_on_c, 0, 78, 73
2, 392718, Note_on_c, 0, 83, 0
2, 392738, Note_on_c, 0, 74, 74
2, 392744, Note_on_c, 0, 78, 0
2, 392764, Note_on_c, 0, 74, 0
2, 392766, Note_on_c, 0, 72, 74
2, 392790, Note_on_c, 0, 72, 0
2, 392794, Note_on_c, 0, 71, 74
2, 392812, Note_on_c, 0, 66, 73
2, 392818, Note_on_c, 0, 71, 0
2, 392832, Note_on_c, 0, 63, 73
2, 392847, Note_on_c, 0, 66, 0
2, 392850, Note_on_c, 0, 60, 73
2, 392867, Note_on_c, 0, 63, 0
2, 392883, Note_on_c, 0, 60, 0
2, 392903, Control_c, 0, 64, 0
2, 392953, Note_on_c, 0, 33, 82
2, 392953, Note_on_c, 0, 64, 86
2, 392953, Note_on_c, 0, 67, 87
2, 392953, Note_on_c, 0, 71, 89
2, 392955, Note_on_c, 0, 59, 80
2, 392965, Note_on_c, 0, 61, 80
2, 392991, Note_on_c, 0, 45, 80
2, 392998, Control_c, 0, 64, 127
2, 393015, Note_on_c, 0, 33, 0
2, 393022, Note_on_c, 0, 64, 0
2, 393032, Note_on_c, 0, 67, 0
2, 393032, Note_on_c, 0, 45, 0
2, 393041, Note_on_c, 0, 71, 0
2, 393045, Note_on_c, 0, 49, 73
2, 393060, Note_on_c, 0, 61, 0
2, 393069, Note_on_c, 0, 59, 0
2, 393081, Note_on_c, 0, 52, 73
2, 393099, Note_on_c, 0, 49, 0
2, 393121, Note_on_c, 0, 52, 0
2, 393123, Note_on_c, 0, 55, 73
2, 393145, Note_on_c, 0, 59, 72
2, 393171, Control_c, 0, 64, 0
2, 393185, Note_on_c, 0, 55, 0
2, 393193, Note_on_c, 0, 61, 72
2, 393195, Control_c, 0, 64, 127
2, 393208, Note_on_c, 0, 59, 0
2, 393277, Note_on_c, 0, 63, 69
2, 393293, Note_on_c, 0, 61, 0
2, 393297, Note_on_c, 0, 64, 73
2, 393301, Note_on_c, 0, 63, 0
2, 393314, Note_on_c, 0, 64, 0
2, 393314, Note_on_c, 0, 67, 74
2, 393334, Note_on_c, 0, 71, 78
2, 393346, Note_on_c, 0, 67, 0
2, 393348, Note_on_c, 0, 73, 82
2, 393352, Note_on_c, 0, 71, 0
2, 393365, Note_on_c, 0, 75, 85
2, 393373, Note_on_c, 0, 73, 0
2, 393376, Note_on_c, 0, 76, 86
2, 393378, Note_on_c, 0, 75, 0
2, 393390, Note_on_c, 0, 79, 85
2, 393394, Note_on_c, 0, 76, 0
2, 393403, Note_on_c, 0, 83, 85
2, 393415, Note_on_c, 0, 79, 0
2, 393417, Note_on_c, 0, 85, 83
2, 393419, Note_on_c, 0, 83, 0
2, 393424, Note_on_c, 0, 87, 83
2, 393436, Note_on_c, 0, 88, 85
2, 393440, Note_on_c, 0, 87, 0
2, 393440, Note_on_c, 0, 85, 0
2, 393458, Note_on_c, 0, 88, 0
2, 393590, Control_c, 0, 64, 0
2, 393636, Note_on_c, 0, 60, 97
2, 393636, Note_on_c, 0, 65, 80
2, 393641, Note_on_c, 0, 63, 98
2, 393660, Note_on_c, 0, 33, 96
2, 393695, Control_c, 0, 64, 127
2, 393695, Note_on_c, 0, 45, 87
2, 393712, Note_on_c, 0, 33, 0
2, 393736, Note_on_c, 0, 45, 0
2, 393750, Note_on_c, 0, 48, 82
2, 393784, Note_on_c, 0, 48, 0
2, 393784, Note_on_c, 0, 63, 0
2, 393785, Note_on_c, 0, 51, 78
2, 393800, Note_on_c, 0, 60, 0
2, 393802, Note_on_c, 0, 65, 0
2, 393822, Note_on_c, 0, 53, 76
2, 393830, Note_on_c, 0, 51, 0
2, 393850, Note_on_c, 0, 59, 74
2, 393857, Note_on_c, 0, 53, 0
2, 393876, Note_on_c, 0, 60, 73
2, 393887, Note_on_c, 0, 59, 0
2, 393897, Note_on_c, 0, 63, 73
2, 393913, Note_on_c, 0, 60, 0
2, 393915, Note_on_c, 0, 64, 73
2, 393923, Note_on_c, 0, 63, 0
2, 393932, Note_on_c, 0, 64, 0
2, 393934, Note_on_c, 0, 65, 73
2, 393952, Note_on_c, 0, 69, 74
2, 393960, Note_on_c, 0, 65, 0
2, 393972, Note_on_c, 0, 72, 77
2, 393986, Note_on_c, 0, 69, 0
2, 393988, Note_on_c, 0, 75, 81
2, 394004, Note_on_c, 0, 72, 0
2, 394010, Note_on_c, 0, 75, 0
2, 394018, Note_on_c, 0, 76, 84
2, 394044, Note_on_c, 0, 76, 0
2, 394046, Note_on_c, 0, 77, 85
2, 394064, Note_on_c, 0, 83, 86
2, 394072, Note_on_c, 0, 77, 0
2, 394083, Note_on_c, 0, 84, 86
2, 394091, Note_on_c, 0, 83, 0
2, 394091, Note_on_c, 0, 87, 88
2, 394113, Note_on_c, 0, 88, 89
2, 394119, Note_on_c, 0, 87, 0
2, 394119, Note_on_c, 0, 84, 0
2, 394137, Note_on_c, 0, 88, 0
2, 394137, Note_on_c, 0, 89, 89
2, 394163, Note_on_c, 0, 89, 0
2, 394320, Control_c, 0, 64, 0
2, 394354, Note_on_c, 0, 64, 80
2, 394360, Note_on_c, 0, 59, 98
2, 394365, Note_on_c, 0, 61, 96
2, 394385, Note_on_c, 0, 33, 95
2, 394421, Control_c, 0, 64, 127
2, 394425, Note_on_c, 0, 45, 90
2, 394436, Note_on_c, 0, 33, 0
2, 394453, Note_on_c, 0, 45, 0
2, 394458, Note_on_c, 0, 49, 82
2, 394480, Note_on_c, 0, 49, 0
2, 394494, Note_on_c, 0, 59, 0
2, 394496, Note_on_c, 0, 52, 78
2, 394520, Note_on_c, 0, 64, 0
2, 394522, Note_on_c, 0, 61, 0
2, 394529, Note_on_c, 0, 52, 0
2, 394533, Note_on_c, 0, 55, 74
2, 394563, Note_on_c, 0, 59, 73
2, 394567, Note_on_c, 0, 55, 0
2, 394578, Note_on_c, 0, 61, 73
2, 394595, Note_on_c, 0, 59, 0
2, 394600, Note_on_c, 0, 63, 73
2, 394604, Note_on_c, 0, 61, 0
2, 394618, Note_on_c, 0, 64, 73
2, 394627, Note_on_c, 0, 63, 0
2, 394639, Note_on_c, 0, 67, 73
2, 394647, Note_on_c, 0, 64, 0
2, 394665, Note_on_c, 0, 71, 74
2, 394683, Note_on_c, 0, 67, 0
2, 394685, Note_on_c, 0, 73, 74
2, 394699, Note_on_c, 0, 71, 0
2, 394701, Note_on_c, 0, 75, 74
2, 394716, Note_on_c, 0, 73, 0
2, 394727, Note_on_c, 0, 75, 0
2, 394733, Note_on_c, 0, 76, 78
2, 394755, Note_on_c, 0, 79, 79
2, 394765, Note_on_c, 0, 76, 0
2, 394787, Note_on_c, 0, 83, 86
2, 394805, Note_on_c, 0, 85, 85
2, 394813, Note_on_c, 0, 79, 0
2, 394822, Note_on_c, 0, 87, 87
2, 394832, Note_on_c, 0, 83, 0
2, 394834, Note_on_c, 0, 88, 89
2, 394838, Note_on_c, 0, 85, 0
2, 394847, Note_on_c, 0, 87, 0
2, 394867, Note_on_c, 0, 95, 93
2, 394886, Note_on_c, 0, 88, 0
2, 394893, Note_on_c, 0, 95, 0
2, 395193, Control_c, 0, 64, 0
2, 395237, Note_on_c, 0, 60, 80
2, 395241, Note_on_c, 0, 65, 80
2, 395241, Note_on_c, 0, 72, 81
2, 395247, Note_on_c, 0, 63, 80
2, 395311, Control_c, 0, 64, 127
2, 395383, Note_on_c, 0, 33, 80
2, 395405, Note_on_c, 0, 63, 0
2, 395409, Note_on_c, 0, 72, 0
2, 395415, Note_on_c, 0, 65, 0
2, 395426, Note_on_c, 0, 45, 79
2, 395430, Note_on_c, 0, 33, 0
2, 395465, Note_on_c, 0, 45, 0
2, 395477, Note_on_c, 0, 60, 0
2, 395515, Note_on_c, 0, 51, 73
2, 395543, Note_on_c, 0, 53, 73
2, 395561, Note_on_c, 0, 51, 0
2, 395578, Note_on_c, 0, 53, 0
2, 395580, Note_on_c, 0, 57, 73
2, 395591, Note_on_c, 0, 60, 73
2, 395609, Note_on_c, 0, 63, 73
2, 395613, Note_on_c, 0, 57, 0
2, 395619, Note_on_c, 0, 64, 73
2, 395623, Note_on_c, 0, 63, 0
2, 395625, Note_on_c, 0, 60, 0
2, 395639, Note_on_c, 0, 65, 75
2, 395643, Note_on_c, 0, 64, 0
2, 395656, Note_on_c, 0, 69, 79
2, 395672, Note_on_c, 0, 65, 0
2, 395674, Note_on_c, 0, 72, 83
2, 395680, Note_on_c, 0, 69, 0
2, 395692, Note_on_c, 0, 75, 85
2, 395708, Note_on_c, 0, 72, 0
2, 395710, Note_on_c, 0, 76, 86
2, 395716, Note_on_c, 0, 75, 0
2, 395730, Note_on_c, 0, 77, 85
2, 395734, Note_on_c, 0, 76, 0
2, 395746, Note_on_c, 0, 81, 83
2, 395764, Note_on_c, 0, 84, 83
2, 395772, Note_on_c, 0, 77, 0
2, 395783, Note_on_c, 0, 81, 0
2, 395787, Note_on_c, 0, 87, 87
2, 395803, Note_on_c, 0, 88, 88
2, 395811, Note_on_c, 0, 87, 0
2, 395811, Note_on_c, 0, 84, 0
2, 395823, Note_on_c, 0, 89, 92
2, 395828, Note_on_c, 0, 88, 0
2, 395848, Note_on_c, 0, 96, 91
2, 395856, Note_on_c, 0, 89, 0
2, 395874, Note_on_c, 0, 96, 0
2, 396212, Control_c, 0, 64, 0
2, 396251, Note_on_c, 0, 64, 97
2, 396341, Control_c, 0, 64, 127
2, 396343, Note_on_c, 0, 59, 80
2, 396363, Note_on_c, 0, 61, 80
2, 396369, Note_on_c, 0, 64, 0
2, 396371, Note_on_c, 0, 71, 99
2, 396378, Note_on_c, 0, 59, 0
2, 396390, Note_on_c, 0, 33, 84
2, 396396, Note_on_c, 0, 61, 0
2, 396418, Note_on_c, 0, 45, 87
2, 396434, Note_on_c, 0, 33, 0
2, 396460, Note_on_c, 0, 45, 0
2, 396472, Note_on_c, 0, 49, 91
2, 396498, Note_on_c, 0, 52, 90
2, 396515, Note_on_c, 0, 49, 0
2, 396522, Note_on_c, 0, 52, 0
2, 396526, Note_on_c, 0, 55, 86
2, 396552, Note_on_c, 0, 59, 85
2, 396568, Note_on_c, 0, 55, 0
2, 396570, Note_on_c, 0, 61, 81
2, 396587, Note_on_c, 0, 63, 80
2, 396589, Note_on_c, 0, 59, 0
2, 396596, Note_on_c, 0, 61, 0
2, 396604, Note_on_c, 0, 71, 0
2, 396610, Note_on_c, 0, 64, 73
2, 396614, Note_on_c, 0, 63, 0
2, 396625, Note_on_c, 0, 67, 73
2, 396640, Note_on_c, 0, 64, 0
2, 396654, Note_on_c, 0, 71, 74
2, 396666, Note_on_c, 0, 67, 0
2, 396681, Note_on_c, 0, 73, 76
2, 396693, Note_on_c, 0, 71, 0
2, 396697, Note_on_c, 0, 75, 80
2, 396710, Note_on_c, 0, 73, 0
2, 396719, Note_on_c, 0, 75, 0
2, 396725, Note_on_c, 0, 76, 83
2, 396739, Note_on_c, 0, 79, 84
2, 396747, Note_on_c, 0, 76, 0
2, 396769, Note_on_c, 0, 83, 87
2, 396787, Note_on_c, 0, 85, 86
2, 396793, Note_on_c, 0, 79, 0
2, 396801, Note_on_c, 0, 83, 0
2, 396812, Note_on_c, 0, 87, 83
2, 396822, Note_on_c, 0, 85, 0
2, 396834, Note_on_c, 0, 88, 83
2, 396838, Note_on_c, 0, 87, 0
2, 396866, Note_on_c, 0, 88, 0
2, 396876, Note_on_c, 0, 91, 83
2, 396922, Note_on_c, 0, 91, 0
2, 396942, Note_on_c, 0, 95, 83
2, 396998, Note_on_c, 0, 95, 0
2, 397007, Note_on_c, 0, 100, 87
2, 397043, Note_on_c, 0, 100, 0
2, 397139, Note_on_c, 0, 33, 82
2, 397196, Note_on_c, 0, 45, 66
2, 397222, Note_on_c, 0, 33, 0
2, 397228, Note_on_c, 0, 49, 58
2, 397258, Note_on_c, 0, 45, 0
2, 397267, Note_on_c, 0, 49, 0
2, 397282, Note_on_c, 0, 52, 56
2, 397312, Note_on_c, 0, 52, 0
2, 397334, Note_on_c, 0, 55, 59
2, 397398, Note_on_c, 0, 59, 61
2, 397406, Note_on_c, 0, 55, 0
2, 397468, Note_on_c, 0, 61, 65
2, 397472, Note_on_c, 0, 59, 0
2, 397536, Note_on_c, 0, 61, 0
2, 397538, Note_on_c, 0, 63, 70
2, 397592, Note_on_c, 0, 63, 0
2, 397604, Note_on_c, 0, 64, 73
2, 397650, Note_on_c, 0, 64, 0
2, 397665, Note_on_c, 0, 67, 73
2, 397707, Note_on_c, 0, 67, 0
2, 397723, Note_on_c, 0, 71, 74
2, 397792, Note_on_c, 0, 71, 0
2, 397797, Note_on_c, 0, 73, 74
2, 397873, Note_on_c, 0, 73, 0
2, 397886, Note_on_c, 0, 75, 74
2, 397970, Note_on_c, 0, 75, 0
2, 397970, Note_on_c, 0, 76, 66
2, 398007, Note_on_c, 0, 76, 0
2, 398018, Note_on_c, 0, 83, 68
2, 398080, Note_on_c, 0, 76, 66
2, 398097, Note_on_c, 0, 83, 0
2, 398127, Note_on_c, 0, 76, 0
2, 398147, Note_on_c, 0, 81, 64
2, 398183, Note_on_c, 0, 81, 0
2, 398213, Note_on_c, 0, 83, 67
2, 398273, Note_on_c, 0, 83, 0
2, 398273, Note_on_c, 0, 85, 68
2, 398332, Note_on_c, 0, 85, 0
2, 398344, Note_on_c, 0, 87, 68
2, 398414, Note_on_c, 0, 87, 0
2, 398414, Note_on_c, 0, 88, 68
2, 398471, Note_on_c, 0, 88, 0
2, 398501, Note_on_c, 0, 95, 68
2, 398583, Note_on_c, 0, 88, 70
2, 398594, Note_on_c, 0, 95, 0
2, 398674, Note_on_c, 0, 93, 60
2, 398680, Note_on_c, 0, 88, 0
2, 398737, Note_on_c, 0, 93, 0
2, 398757, Note_on_c, 0, 97, 59
2, 398809, Note_on_c, 0, 97, 0
2, 398846, Note_on_c, 0, 100, 62
2, 399022, Note_on_c, 0, 33, 56
2, 399131, Note_on_c, 0, 45, 64
2, 399135, Note_on_c, 0, 33, 0
2, 399135, Note_on_c, 0, 100, 0
2, 399179, Note_on_c, 0, 45, 0
2, 399231, Note_on_c, 0, 52, 65
2, 399341, Note_on_c, 0, 55, 65
2, 399351, Note_on_c, 0, 52, 0
2, 399457, Note_on_c, 0, 57, 65
2, 399459, Note_on_c, 0, 55, 0
2, 399571, Note_on_c, 0, 57, 0
2, 399581, Note_on_c, 0, 61, 65
2, 399715, Note_on_c, 0, 61, 0
2, 399715, Note_on_c, 0, 64, 65
2, 399856, Note_on_c, 0, 67, 64
2, 399865, Note_on_c, 0, 64, 0
2, 400027, Note_on_c, 0, 67, 0
2, 400033, Note_on_c, 0, 69, 66
2, 400109, Note_on_c, 0, 69, 0
2, 400223, Note_on_c, 0, 73, 66
2, 400394, Note_on_c, 0, 73, 0
2, 400426, Note_on_c, 0, 76, 66
2, 400674, Note_on_c, 0, 76, 0
2, 400676, Note_on_c, 0, 79, 66
2, 400993, Note_on_c, 0, 79, 0
2, 400995, Note_on_c, 0, 85, 68
2, 401401, Note_on_c, 0, 85, 0
2, 401412, Note_on_c, 0, 88, 68
2, 402121, Note_on_c, 0, 88, 0
2, 402131, Note_on_c, 0, 93, 68
2, 402788, Note_on_c, 0, 93, 0
2, 404395, Control_c, 0, 64, 0
2, 404942, Note_on_c, 0, 38, 65
2, 404951, Note_on_c, 0, 45, 65
2, 404984, Control_c, 0, 64, 127
2, 405028, Note_on_c, 0, 38, 0
2, 405074, Note_on_c, 0, 45, 0
2, 405074, Note_on_c, 0, 50, 65
2, 405074, Note_on_c, 0, 54, 64
2, 405074, Note_on_c, 0, 57, 65
2, 405082, Control_c, 0, 64, 0
2, 405100, Note_on_c, 0, 57, 0
2, 405100, Note_on_c, 0, 50, 0
2, 405110, Note_on_c, 0, 54, 0
2, 405223, Note_on_c, 0, 50, 65
2, 405223, Note_on_c, 0, 57, 65
2, 405232, Note_on_c, 0, 54, 64
2, 405251, Note_on_c, 0, 57, 0
2, 405251, Note_on_c, 0, 50, 0
2, 405256, Note_on_c, 0, 54, 0
2, 405339, Note_on_c, 0, 45, 65
2, 405341, Note_on_c, 0, 38, 65
2, 405369, Control_c, 0, 64, 127
2, 405420, Note_on_c, 0, 38, 0
2, 405454, Note_on_c, 0, 45, 0
2, 405464, Control_c, 0, 64, 0
2, 405474, Note_on_c, 0, 50, 65
2, 405474, Note_on_c, 0, 57, 65
2, 405476, Note_on_c, 0, 54, 64
2, 405496, Note_on_c, 0, 50, 0
2, 405500, Note_on_c, 0, 57, 0
2, 405510, Note_on_c, 0, 54, 0
2, 405625, Note_on_c, 0, 50, 65
2, 405625, Note_on_c, 0, 54, 65
2, 405625, Note_on_c, 0, 57, 64
2, 405640, Control_c, 0, 67, 127
2, 405647, Note_on_c, 0, 57, 0
2, 405647, Note_on_c, 0, 54, 0
2, 405647, Note_on_c, 0, 50, 0
2, 405736, Note_on_c, 0, 38, 68
2, 405736, Note_on_c, 0, 45, 58
2, 405761, Control_c, 0, 64, 127
2, 405824, Note_on_c, 0, 38, 0
2, 405842, Note_on_c, 0, 45, 0
2, 405862, Note_on_c, 0, 50, 58
2, 405862, Note_on_c, 0, 57, 58
2, 405868, Note_on_c, 0, 54, 57
2, 405884, Note_on_c, 0, 50, 0
2, 405886, Note_on_c, 0, 57, 0
2, 405888, Control_c, 0, 64, 0
2, 405898, Note_on_c, 0, 54, 0
2, 406007, Note_on_c, 0, 50, 58
2, 406007, Note_on_c, 0, 54, 58
2, 406007, Note_on_c, 0, 57, 57
2, 406029, Note_on_c, 0, 57, 0
2, 406029, Note_on_c, 0, 50, 0
2, 406039, Note_on_c, 0, 54, 0
2, 406118, Note_on_c, 0, 38, 58
2, 406127, Note_on_c, 0, 45, 58
2, 406144, Control_c, 0, 64, 127
2, 406188, Note_on_c, 0, 38, 0
2, 406220, Note_on_c, 0, 45, 0
2, 406259, Note_on_c, 0, 54, 58
2, 406259, Note_on_c, 0, 57, 58
2, 406264, Note_on_c, 0, 50, 57
2, 406268, Control_c, 0, 64, 0
2, 406285, Note_on_c, 0, 50, 0
2, 406294, Note_on_c, 0, 57, 0
2, 406304, Note_on_c, 0, 54, 0
2, 406386, Note_on_c, 0, 57, 58
2, 406388, Note_on_c, 0, 50, 58
2, 406396, Note_on_c, 0, 54, 58
2, 406412, Note_on_c, 0, 50, 0
2, 406422, Note_on_c, 0, 57, 0
2, 406430, Note_on_c, 0, 54, 0
2, 406480, Control_c, 0, 67, 0
2, 406511, Note_on_c, 0, 54, 57
2, 406515, Note_on_c, 0, 38, 57
2, 406515, Note_on_c, 0, 45, 57
2, 406515, Note_on_c, 0, 50, 56
2, 406521, Control_c, 0, 64, 127
2, 406525, Note_on_c, 0, 57, 59
2, 406547, Note_on_c, 0, 45, 0
2, 406547, Note_on_c, 0, 38, 0
2, 406556, Note_on_c, 0, 50, 0
2, 406582, Note_on_c, 0, 54, 0
2, 406586, Note_on_c, 0, 57, 0
2, 406639, Note_on_c, 0, 54, 56
2, 406639, Note_on_c, 0, 57, 52
2, 406648, Note_on_c, 0, 62, 54
2, 406665, Note_on_c, 0, 57, 0
2, 406665, Note_on_c, 0, 54, 0
2, 406681, Note_on_c, 0, 62, 0
2, 406756, Control_c, 0, 64, 0
2, 406767, Note_on_c, 0, 57, 65
2, 406767, Note_on_c, 0, 62, 65
2, 406767, Note_on_c, 0, 66, 74
2, 406791, Note_on_c, 0, 66, 0
2, 406791, Note_on_c, 0, 62, 0
2, 406794, Note_on_c, 0, 57, 0
2, 406889, Note_on_c, 0, 38, 65
2, 406889, Note_on_c, 0, 67, 81
2, 406899, Note_on_c, 0, 58, 67
2, 406899, Note_on_c, 0, 64, 81
2, 406901, Control_c, 0, 64, 127
2, 406909, Note_on_c, 0, 61, 70
2, 406925, Note_on_c, 0, 38, 0
2, 407008, Note_on_c, 0, 58, 0
2, 407009, Note_on_c, 0, 50, 61
2, 407017, Note_on_c, 0, 64, 0
2, 407017, Note_on_c, 0, 55, 61
2, 407025, Note_on_c, 0, 61, 0
2, 407043, Note_on_c, 0, 50, 0
2, 407083, Note_on_c, 0, 55, 0
2, 407129, Note_on_c, 0, 58, 61
2, 407129, Note_on_c, 0, 61, 61
2, 407133, Note_on_c, 0, 55, 60
2, 407157, Note_on_c, 0, 55, 0
2, 407157, Note_on_c, 0, 58, 0
2, 407167, Note_on_c, 0, 61, 0
2, 407167, Control_c, 0, 64, 0
2, 407173, Note_on_c, 0, 67, 0
2, 407213, Note_on_c, 0, 66, 62
2, 407215, Note_on_c, 0, 57, 65
2, 407215, Note_on_c, 0, 62, 66
2, 407227, Note_on_c, 0, 62, 0
2, 407229, Note_on_c, 0, 57, 0
2, 407229, Note_on_c, 0, 66, 0
2, 407260, Note_on_c, 0, 38, 69
2, 407260, Note_on_c, 0, 57, 71
2, 407260, Note_on_c, 0, 62, 72
2, 407260, Note_on_c, 0, 66, 71
2, 407268, Control_c, 0, 64, 127
2, 407268, Note_on_c, 0, 45, 73
2, 407284, Note_on_c, 0, 57, 0
2, 407292, Note_on_c, 0, 62, 0
2, 407301, Note_on_c, 0, 38, 0
2, 407301, Note_on_c, 0, 66, 0
2, 407311, Note_on_c, 0, 45, 0
2, 407392, Note_on_c, 0, 50, 71
2, 407399, Note_on_c, 0, 57, 65
2, 407432, Note_on_c, 0, 50, 0
2, 407434, Note_on_c, 0, 57, 0
2, 407511, Note_on_c, 0, 54, 65
2, 407511, Note_on_c, 0, 62, 65
2, 407520, Note_on_c, 0, 57, 64
2, 407536, Note_on_c, 0, 62, 0
2, 407546, Note_on_c, 0, 57, 0
2, 407546, Note_on_c, 0, 54, 0
2, 407637, Note_on_c, 0, 38, 60
2, 407637, Note_on_c, 0, 45, 61
2, 407670, Note_on_c, 0, 38, 0
2, 407680, Note_on_c, 0, 45, 0
2, 407767, Note_on_c, 0, 50, 61
2, 407773, Note_on_c, 0, 57, 61
2, 407813, Note_on_c, 0, 57, 0
2, 407815, Note_on_c, 0, 50, 0
2, 407888, Note_on_c, 0, 54, 61
2, 407888, Note_on_c, 0, 57, 61
2, 407888, Note_on_c, 0, 62, 60
2, 407912, Note_on_c, 0, 62, 0
2, 407912, Note_on_c, 0, 57, 0
2, 407916, Control_c, 0, 64, 0
2, 407921, Note_on_c, 0, 54, 0
2, 408007, Note_on_c, 0, 38, 66
2, 408007, Note_on_c, 0, 54, 46
2, 408009, Note_on_c, 0, 45, 45
2, 408009, Note_on_c, 0, 50, 46
2, 408016, Note_on_c, 0, 57, 45
2, 408018, Control_c, 0, 64, 127
2, 408042, Note_on_c, 0, 54, 0
2, 408052, Note_on_c, 0, 38, 0
2, 408062, Note_on_c, 0, 45, 0
2, 408064, Note_on_c, 0, 50, 0
2, 408071, Note_on_c, 0, 57, 0
2, 408138, Note_on_c, 0, 54, 55
2, 408138, Note_on_c, 0, 57, 66
2, 408146, Note_on_c, 0, 62, 67
2, 408166, Note_on_c, 0, 57, 0
2, 408166, Note_on_c, 0, 54, 0
2, 408174, Note_on_c, 0, 62, 0
2, 408253, Note_on_c, 0, 57, 65
2, 408253, Note_on_c, 0, 66, 74
2, 408255, Control_c, 0, 64, 0
2, 408262, Note_on_c, 0, 62, 65
2, 408288, Note_on_c, 0, 57, 0
2, 408296, Note_on_c, 0, 62, 0
2, 408296, Note_on_c, 0, 66, 0
2, 408383, Note_on_c, 0, 38, 65
2, 408383, Note_on_c, 0, 58, 65
2, 408383, Note_on_c, 0, 61, 64
2, 408383, Note_on_c, 0, 64, 98
2, 408383, Note_on_c, 0, 67, 97
2, 408391, Control_c, 0, 64, 127
2, 408409, Control_c, 0, 64, 0
2, 408417, Note_on_c, 0, 67, 0
2, 408417, Note_on_c, 0, 61, 0
2, 408417, Note_on_c, 0, 38, 0
2, 408417, Note_on_c, 0, 58, 0
2, 408417, Note_on_c, 0, 64, 0
2, 408508, Note_on_c, 0, 66, 89
2, 408510, Note_on_c, 0, 55, 46
2, 408510, Note_on_c, 0, 58, 46
2, 408548, Control_c, 0, 64, 127
2, 408597, Note_on_c, 0, 58, 0
2, 408601, Note_on_c, 0, 55, 0
2, 408625, Note_on_c, 0, 66, 0
2, 408627, Note_on_c, 0, 61, 57
2, 408662, Note_on_c, 0, 61, 0
2, 408672, Control_c, 0, 64, 0
2, 408683, Note_on_c, 0, 55, 61
2, 408692, Note_on_c, 0, 64, 61
2, 408705, Note_on_c, 0, 55, 0
2, 408712, Note_on_c, 0, 64, 0
2, 408725, Note_on_c, 0, 38, 61
2, 408741, Note_on_c, 0, 62, 61
2, 408743, Note_on_c, 0, 54, 61
2, 408743, Note_on_c, 0, 69, 66
2, 408789, Control_c, 0, 64, 127
2, 408802, Note_on_c, 0, 54, 0
2, 408802, Note_on_c, 0, 38, 0
2, 408820, Note_on_c, 0, 62, 0
2, 408846, Note_on_c, 0, 69, 0
2, 408848, Note_on_c, 0, 57, 61
2, 408874, Note_on_c, 0, 57, 0
2, 408965, Note_on_c, 0, 57, 61
2, 408965, Note_on_c, 0, 62, 61
2, 408977, Note_on_c, 0, 54, 60
2, 408994, Control_c, 0, 64, 0
2, 409045, Note_on_c, 0, 62, 0
2, 409063, Note_on_c, 0, 54, 0
2, 409090, Control_c, 0, 64, 127
2, 409092, Note_on_c, 0, 50, 60
2, 409097, Note_on_c, 0, 57, 0
2, 409163, Control_c, 0, 64, 0
2, 409203, Note_on_c, 0, 54, 64
2, 409212, Note_on_c, 0, 57, 65
2, 409246, Note_on_c, 0, 57, 0
2, 409257, Note_on_c, 0, 59, 68
2, 409265, Note_on_c, 0, 54, 0
2, 409302, Note_on_c, 0, 59, 0
2, 409314, Note_on_c, 0, 61, 70
2, 409329, Note_on_c, 0, 54, 68
2, 409329, Note_on_c, 0, 57, 67
2, 409373, Note_on_c, 0, 62, 69
2, 409375, Note_on_c, 0, 61, 0
2, 409408, Note_on_c, 0, 57, 0
2, 409408, Note_on_c, 0, 50, 0
2, 409428, Note_on_c, 0, 54, 0
2, 409430, Note_on_c, 0, 49, 65
2, 409435, Note_on_c, 0, 62, 0
2, 409439, Note_on_c, 0, 63, 66
2, 409476, Note_on_c, 0, 66, 75
2, 409484, Note_on_c, 0, 63, 0
2, 409525, Note_on_c, 0, 57, 65
2, 409528, Note_on_c, 0, 66, 0
2, 409530, Note_on_c, 0, 52, 65
2, 409539, Note_on_c, 0, 63, 67
2, 409579, Note_on_c, 0, 63, 0
2, 409579, Note_on_c, 0, 52, 0
2, 409579, Note_on_c, 0, 57, 0
2, 409581, Note_on_c, 0, 66, 74
2, 409640, Control_c, 0, 64, 127
2, 409654, Note_on_c, 0, 66, 0
2, 409669, Note_on_c, 0, 52, 65
2, 409669, Note_on_c, 0, 57, 65
2, 409669, Note_on_c, 0, 64, 79
2, 409689, Note_on_c, 0, 49, 0
2, 409697, Note_on_c, 0, 64, 0
2, 409724, Note_on_c, 0, 52, 0
2, 409737, Note_on_c, 0, 57, 0
2, 409764, Control_c, 0, 64, 0
2, 409794, Note_on_c, 0, 48, 64
2, 409893, Note_on_c, 0, 58, 64
2, 409895, Note_on_c, 0, 52, 65
2, 409895, Note_on_c, 0, 55, 65
2, 409904, Note_on_c, 0, 60, 64
2, 409948, Note_on_c, 0, 58, 0
2, 409956, Note_on_c, 0, 55, 0
2, 409956, Note_on_c, 0, 60, 0
2, 409958, Note_on_c, 0, 52, 0
2, 409958, Note_on_c, 0, 62, 72
2, 410008, Note_on_c, 0, 62, 0
2, 410010, Note_on_c, 0, 63, 74
2, 410018, Note_on_c, 0, 48, 0
2, 410020, Note_on_c, 0, 58, 74
2, 410031, Note_on_c, 0, 52, 72
2, 410031, Note_on_c, 0, 55, 71
2, 410045, Note_on_c, 0, 58, 0
2, 410065, Note_on_c, 0, 63, 0
2, 410071, Note_on_c, 0, 64, 74
2, 410115, Note_on_c, 0, 55, 0
2, 410115, Note_on_c, 0, 66, 68
2, 410119, Note_on_c, 0, 47, 65
2, 410127, Note_on_c, 0, 64, 0
2, 410127, Note_on_c, 0, 52, 0
2, 410181, Note_on_c, 0, 66, 0
2, 410183, Note_on_c, 0, 69, 75
2, 410234, Note_on_c, 0, 69, 0
2, 410238, Note_on_c, 0, 59, 65
2, 410238, Note_on_c, 0, 66, 78
2, 410240, Note_on_c, 0, 55, 65
2, 410248, Note_on_c, 0, 52, 65
2, 410281, Note_on_c, 0, 59, 0
2, 410289, Note_on_c, 0, 55, 0
2, 410289, Note_on_c, 0, 52, 0
2, 410289, Note_on_c, 0, 66, 0
2, 410291, Note_on_c, 0, 69, 84
2, 410344, Note_on_c, 0, 69, 0
2, 410349, Control_c, 0, 64, 127
2, 410349, Note_on_c, 0, 67, 87
2, 410351, Note_on_c, 0, 52, 65
2, 410351, Note_on_c, 0, 59, 65
2, 410359, Note_on_c, 0, 55, 64
2, 410363, Note_on_c, 0, 47, 0
2, 410371, Note_on_c, 0, 52, 0
2, 410377, Note_on_c, 0, 59, 0
2, 410383, Note_on_c, 0, 55, 0
2, 410470, Note_on_c, 0, 43, 63
2, 410541, Note_on_c, 0, 43, 0
2, 410563, Control_c, 0, 64, 0
2, 410594, Note_on_c, 0, 67, 0
2, 410598, Note_on_c, 0, 55, 63
2, 410598, Note_on_c, 0, 59, 62
2, 410598, Note_on_c, 0, 64, 69
2, 410607, Note_on_c, 0, 52, 61
2, 410637, Note_on_c, 0, 52, 0
2, 410639, Note_on_c, 0, 55, 0
2, 410639, Note_on_c, 0, 59, 0
2, 410639, Note_on_c, 0, 64, 0
2, 410648, Note_on_c, 0, 66, 72
2, 410693, Note_on_c, 0, 66, 0
2, 410704, Note_on_c, 0, 52, 61
2, 410704, Note_on_c, 0, 55, 61
2, 410704, Note_on_c, 0, 59, 60
2, 410709, Note_on_c, 0, 67, 73
2, 410728, Note_on_c, 0, 59, 0
2, 410728, Note_on_c, 0, 55, 0
2, 410736, Note_on_c, 0, 52, 0
2, 410760, Note_on_c, 0, 67, 0
2, 410768, Note_on_c, 0, 69, 77
2, 410819, Control_c, 0, 64, 127
2, 410819, Note_on_c, 0, 40, 61
2, 410824, Note_on_c, 0, 69, 0
2, 410824, Note_on_c, 0, 70, 81
2, 410853, Note_on_c, 0, 40, 0
2, 410875, Note_on_c, 0, 70, 0
2, 410881, Note_on_c, 0, 73, 81
2, 410918, Control_c, 0, 64, 0
2, 410932, Note_on_c, 0, 73, 0
2, 410934, Note_on_c, 0, 55, 61
2, 410938, Note_on_c, 0, 59, 61
2, 410938, Note_on_c, 0, 64, 85
2, 410938, Note_on_c, 0, 71, 87
2, 410952, Note_on_c, 0, 64, 0
2, 410960, Note_on_c, 0, 55, 0
2, 410962, Note_on_c, 0, 59, 0
2, 410989, Note_on_c, 0, 71, 0
2, 410989, Note_on_c, 0, 70, 88
2, 411023, Note_on_c, 0, 70, 0
2, 411045, Note_on_c, 0, 55, 61
2, 411045, Note_on_c, 0, 59, 61
2, 411045, Note_on_c, 0, 64, 80
2, 411054, Note_on_c, 0, 71, 81
2, 411062, Note_on_c, 0, 64, 0
2, 411072, Note_on_c, 0, 59, 0
2, 411080, Note_on_c, 0, 55, 0
2, 411104, Note_on_c, 0, 71, 0
2, 411110, Note_on_c, 0, 73, 82
2, 411152, Note_on_c, 0, 47, 61
2, 411152, Note_on_c, 0, 76, 76
2, 411154, Control_c, 0, 64, 127
2, 411156, Note_on_c, 0, 73, 0
2, 411205, Note_on_c, 0, 76, 0
2, 411207, Note_on_c, 0, 74, 75
2, 411257, Note_on_c, 0, 74, 0
2, 411257, Note_on_c, 0, 55, 61
2, 411257, Note_on_c, 0, 62, 61
2, 411257, Note_on_c, 0, 73, 75
2, 411259, Note_on_c, 0, 52, 60
2, 411276, Control_c, 0, 64, 0
2, 411290, Note_on_c, 0, 62, 0
2, 411299, Note_on_c, 0, 73, 0
2, 411299, Note_on_c, 0, 55, 0
2, 411307, Note_on_c, 0, 52, 0
2, 411313, Note_on_c, 0, 74, 75
2, 411356, Note_on_c, 0, 52, 61
2, 411356, Note_on_c, 0, 62, 61
2, 411364, Note_on_c, 0, 74, 0
2, 411364, Note_on_c, 0, 55, 60
2, 411364, Note_on_c, 0, 71, 75
2, 411380, Note_on_c, 0, 62, 0
2, 411389, Note_on_c, 0, 55, 0
2, 411391, Note_on_c, 0, 52, 0
2, 411399, Note_on_c, 0, 47, 0
2, 411415, Note_on_c, 0, 71, 0
2, 411417, Note_on_c, 0, 67, 79
2, 411460, Note_on_c, 0, 67, 0
2, 411472, Note_on_c, 0, 66, 81
2, 411481, Note_on_c, 0, 46, 61
2, 411483, Note_on_c, 0, 34, 61
2, 411492, Control_c, 0, 64, 127
2, 411508, Note_on_c, 0, 34, 0
2, 411516, Note_on_c, 0, 46, 0
2, 411617, Note_on_c, 0, 62, 61
2, 411619, Note_on_c, 0, 50, 61
2, 411619, Note_on_c, 0, 68, 61
2, 411627, Note_on_c, 0, 56, 61
2, 411643, Note_on_c, 0, 50, 0
2, 411654, Note_on_c, 0, 56, 0
2, 411654, Note_on_c, 0, 62, 0
2, 411664, Note_on_c, 0, 68, 0
2, 411670, Control_c, 0, 64, 0
2, 411711, Note_on_c, 0, 66, 0
2, 411737, Note_on_c, 0, 64, 56
2, 411756, Note_on_c, 0, 56, 61
2, 411756, Note_on_c, 0, 62, 61
2, 411760, Note_on_c, 0, 50, 60
2, 411760, Note_on_c, 0, 68, 59
2, 411768, Control_c, 0, 64, 127
2, 411781, Note_on_c, 0, 62, 0
2, 411784, Note_on_c, 0, 50, 0
2, 411790, Note_on_c, 0, 56, 0
2, 411799, Note_on_c, 0, 68, 0
2, 411837, Note_on_c, 0, 64, 0
2, 411856, Note_on_c, 0, 33, 65
2, 411856, Note_on_c, 0, 45, 65
2, 411856, Note_on_c, 0, 55, 64
2, 411856, Note_on_c, 0, 69, 65
2, 411864, Note_on_c, 0, 61, 65
2, 411880, Note_on_c, 0, 55, 0
2, 411880, Note_on_c, 0, 33, 0
2, 411888, Note_on_c, 0, 45, 0
2, 411892, Control_c, 0, 64, 0
2, 411898, Note_on_c, 0, 61, 0
2, 411898, Note_on_c, 0, 69, 0
2, 411920, Note_on_c, 0, 63, 67
2, 411954, Note_on_c, 0, 63, 0
2, 411973, Note_on_c, 0, 62, 69
2, 412027, Note_on_c, 0, 62, 0
2, 412038, Note_on_c, 0, 61, 72
2, 412083, Note_on_c, 0, 61, 0
2, 412087, Note_on_c, 0, 59, 74
2, 412129, Note_on_c, 0, 59, 0
2, 412140, Note_on_c, 0, 58, 74
2, 412172, Note_on_c, 0, 58, 0
2, 412201, Note_on_c, 0, 54, 70
2, 412205, Note_on_c, 0, 45, 68
2, 412207, Note_on_c, 0, 38, 67
2, 412207, Note_on_c, 0, 50, 66
2, 412217, Note_on_c, 0, 57, 64
2, 412221, Control_c, 0, 64, 127
2, 412250, Note_on_c, 0, 38, 0
2, 412250, Note_on_c, 0, 45, 0
2, 412277, Note_on_c, 0, 50, 0
2, 412297, Note_on_c, 0, 54, 0
2, 412306, Note_on_c, 0, 57, 0
2, 412322, Control_c, 0, 64, 0
2, 412353, Note_on_c, 0, 57, 65
2, 412355, Note_on_c, 0, 54, 68
2, 412355, Note_on_c, 0, 62, 69
2, 412379, Note_on_c, 0, 62, 0
2, 412379, Note_on_c, 0, 54, 0
2, 412379, Note_on_c, 0, 57, 0
2, 412472, Note_on_c, 0, 57, 64
2, 412472, Note_on_c, 0, 62, 65
2, 412472, Note_on_c, 0, 66, 81
2, 412496, Note_on_c, 0, 66, 0
2, 412496, Note_on_c, 0, 62, 0
2, 412496, Note_on_c, 0, 57, 0
2, 412612, Note_on_c, 0, 50, 64
2, 412612, Note_on_c, 0, 58, 65
2, 412612, Note_on_c, 0, 64, 81
2, 412612, Note_on_c, 0, 67, 80
2, 412614, Note_on_c, 0, 38, 64
2, 412623, Note_on_c, 0, 61, 65
2, 412628, Control_c, 0, 64, 127
2, 412645, Note_on_c, 0, 38, 0
2, 412647, Note_on_c, 0, 58, 0
2, 412655, Note_on_c, 0, 50, 0
2, 412728, Note_on_c, 0, 50, 65
2, 412734, Note_on_c, 0, 55, 65
2, 412768, Note_on_c, 0, 61, 0
2, 412777, Note_on_c, 0, 50, 0
2, 412793, Note_on_c, 0, 64, 0
2, 412793, Note_on_c, 0, 55, 0
2, 412832, Control_c, 0, 64, 0
2, 412840, Note_on_c, 0, 58, 65
2, 412840, Note_on_c, 0, 61, 65
2, 412841, Note_on_c, 0, 55, 64
2, 412872, Note_on_c, 0, 55, 0
2, 412872, Note_on_c, 0, 58, 0
2, 412881, Note_on_c, 0, 61, 0
2, 412901, Note_on_c, 0, 67, 0
2, 412930, Note_on_c, 0, 66, 67
2, 412932, Note_on_c, 0, 57, 65
2, 412932, Note_on_c, 0, 62, 65
2, 412946, Note_on_c, 0, 62, 0
2, 412950, Note_on_c, 0, 57, 0
2, 412950, Note_on_c, 0, 66, 0
2, 412966, Note_on_c, 0, 57, 65
2, 412966, Note_on_c, 0, 62, 65
2, 412968, Note_on_c, 0, 66, 68
2, 412970, Note_on_c, 0, 38, 65
2, 412978, Control_c, 0, 64, 127
2, 412980, Note_on_c, 0, 45, 65
2, 412992, Note_on_c, 0, 57, 0
2, 413001, Note_on_c, 0, 38, 0
2, 413001, Note_on_c, 0, 66, 0
2, 413003, Note_on_c, 0, 62, 0
2, 413008, Note_on_c, 0, 45, 0
2, 413084, Note_on_c, 0, 50, 65
2, 413084, Note_on_c, 0, 57, 65
2, 413135, Note_on_c, 0, 57, 0
2, 413144, Note_on_c, 0, 50, 0
2, 413213, Note_on_c, 0, 54, 65
2, 413213, Note_on_c, 0, 57, 65
2, 413213, Note_on_c, 0, 62, 64
2, 413237, Note_on_c, 0, 62, 0
2, 413248, Note_on_c, 0, 57, 0
2, 413268, Note_on_c, 0, 54, 0
2, 413335, Note_on_c, 0, 38, 65
2, 413335, Note_on_c, 0, 45, 65
2, 413375, Note_on_c, 0, 38, 0
2, 413384, Note_on_c, 0, 45, 0
2, 413462, Note_on_c, 0, 57, 65
2, 413467, Note_on_c, 0, 50, 65
2, 413498, Note_on_c, 0, 57, 0
2, 413527, Note_on_c, 0, 50, 0
2, 413582, Note_on_c, 0, 54, 65
2, 413582, Note_on_c, 0, 57, 65
2, 413582, Note_on_c, 0, 62, 64
2, 413604, Note_on_c, 0, 57, 0
2, 413611, Note_on_c, 0, 62, 0
2, 413615, Control_c, 0, 64, 0
2, 413623, Note_on_c, 0, 54, 0
2, 413704, Note_on_c, 0, 45, 65
2, 413704, Note_on_c, 0, 50, 65
2, 413704, Note_on_c, 0, 54, 64
2, 413710, Note_on_c, 0, 38, 65
2, 413712, Note_on_c, 0, 57, 65
2, 413716, Control_c, 0, 64, 127
2, 413730, Note_on_c, 0, 50, 0
2, 413739, Note_on_c, 0, 38, 0
2, 413747, Note_on_c, 0, 45, 0
2, 413747, Note_on_c, 0, 54, 0
2, 413783, Control_c, 0, 64, 0
2, 413787, Note_on_c, 0, 57, 0
2, 413825, Note_on_c, 0, 54, 65
2, 413825, Note_on_c, 0, 57, 65
2, 413833, Note_on_c, 0, 62, 67
2, 413858, Note_on_c, 0, 57, 0
2, 413866, Note_on_c, 0, 62, 0
2, 413868, Note_on_c, 0, 54, 0
2, 413944, Note_on_c, 0, 62, 65
2, 413944, Note_on_c, 0, 66, 79
2, 413952, Control_c, 0, 64, 127
2, 413952, Note_on_c, 0, 57, 65
2, 413965, Note_on_c, 0, 62, 0
2, 413979, Note_on_c, 0, 57, 0
2, 413979, Note_on_c, 0, 66, 0
2, 413995, Control_c, 0, 64, 0
2, 414071, Note_on_c, 0, 38, 65
2, 414071, Note_on_c, 0, 58, 65
2, 414071, Note_on_c, 0, 61, 64
2, 414071, Note_on_c, 0, 67, 81
2, 414077, Note_on_c, 0, 64, 80
2, 414081, Note_on_c, 0, 50, 65
2, 414093, Note_on_c, 0, 64, 0
2, 414101, Note_on_c, 0, 61, 0
2, 414103, Note_on_c, 0, 38, 0
2, 414103, Note_on_c, 0, 58, 0
2, 414112, Note_on_c, 0, 67, 0
2, 414112, Note_on_c, 0, 50, 0
2, 414184, Note_on_c, 0, 66, 72
2, 414188, Note_on_c, 0, 55, 65
2, 414196, Note_on_c, 0, 58, 65
2, 414214, Control_c, 0, 64, 127
2, 414249, Note_on_c, 0, 58, 0
2, 414283, Note_on_c, 0, 55, 0
2, 414302, Note_on_c, 0, 66, 0
2, 414312, Note_on_c, 0, 61, 65
2, 414345, Note_on_c, 0, 61, 0
2, 414365, Control_c, 0, 64, 0
2, 414367, Note_on_c, 0, 55, 65
2, 414367, Note_on_c, 0, 64, 74
2, 414391, Note_on_c, 0, 64, 0
2, 414393, Note_on_c, 0, 55, 0
2, 414411, Note_on_c, 0, 62, 65
2, 414413, Note_on_c, 0, 54, 65
2, 414413, Note_on_c, 0, 69, 77
2, 414417, Note_on_c, 0, 38, 65
2, 414470, Control_c, 0, 64, 127
2, 414482, Note_on_c, 0, 54, 0
2, 414496, Note_on_c, 0, 38, 0
2, 414511, Note_on_c, 0, 62, 0
2, 414527, Note_on_c, 0, 69, 0
2, 414540, Note_on_c, 0, 57, 65
2, 414562, Note_on_c, 0, 57, 0
2, 414619, Control_c, 0, 64, 0
2, 414646, Note_on_c, 0, 57, 65
2, 414650, Note_on_c, 0, 54, 65
2, 414650, Note_on_c, 0, 62, 65
2, 414654, Control_c, 0, 67, 127
2, 414719, Control_c, 0, 64, 127
2, 414741, Note_on_c, 0, 62, 0
2, 414750, Note_on_c, 0, 54, 0
2, 414764, Note_on_c, 0, 50, 60
2, 414772, Note_on_c, 0, 57, 0
2, 414792, Control_c, 0, 64, 0
2, 414882, Note_on_c, 0, 54, 57
2, 414882, Note_on_c, 0, 57, 71
2, 414882, Note_on_c, 0, 62, 70
2, 414890, Note_on_c, 0, 60, 71
2, 414901, Control_c, 0, 64, 127
2, 414923, Note_on_c, 0, 60, 0
2, 414923, Note_on_c, 0, 57, 0
2, 414935, Note_on_c, 0, 62, 0
2, 414935, Note_on_c, 0, 64, 71
2, 414950, Note_on_c, 0, 54, 0
2, 414972, Control_c, 0, 64, 0
2, 414986, Note_on_c, 0, 64, 0
2, 414992, Note_on_c, 0, 54, 62
2, 414992, Note_on_c, 0, 57, 62
2, 414992, Note_on_c, 0, 66, 71
2, 415000, Note_on_c, 0, 60, 61
2, 415042, Note_on_c, 0, 66, 0
2, 415058, Note_on_c, 0, 68, 71
2, 415060, Note_on_c, 0, 60, 0
2, 415064, Note_on_c, 0, 57, 0
2, 415070, Note_on_c, 0, 54, 0
2, 415078, Note_on_c, 0, 50, 0
2, 415087, Note_on_c, 0, 68, 0
2, 415101, Note_on_c, 0, 49, 69
2, 415110, Note_on_c, 0, 69, 74
2, 415148, Note_on_c, 0, 69, 0
2, 415157, Note_on_c, 0, 71, 77
2, 415177, Control_c, 0, 64, 127
2, 415199, Note_on_c, 0, 71, 0
2, 415214, Note_on_c, 0, 54, 70
2, 415214, Note_on_c, 0, 61, 70
2, 415216, Note_on_c, 0, 57, 69
2, 415216, Note_on_c, 0, 68, 76
2, 415248, Control_c, 0, 64, 0
2, 415266, Note_on_c, 0, 57, 0
2, 415274, Note_on_c, 0, 68, 0
2, 415276, Note_on_c, 0, 71, 70
2, 415284, Note_on_c, 0, 61, 0
2, 415284, Note_on_c, 0, 54, 0
2, 415320, Note_on_c, 0, 71, 0
2, 415320, Note_on_c, 0, 57, 70
2, 415320, Note_on_c, 0, 61, 68
2, 415324, Note_on_c, 0, 69, 65
2, 415330, Note_on_c, 0, 54, 67
2, 415354, Note_on_c, 0, 69, 0
2, 415370, Note_on_c, 0, 57, 0
2, 415376, Note_on_c, 0, 49, 0
2, 415376, Note_on_c, 0, 61, 0
2, 415384, Note_on_c, 0, 54, 0
2, 415454, Note_on_c, 0, 47, 60
2, 415542, Control_c, 0, 64, 127
2, 415558, Note_on_c, 0, 56, 62
2, 415560, Note_on_c, 0, 53, 62
2, 415560, Note_on_c, 0, 66, 71
2, 415569, Note_on_c, 0, 61, 62
2, 415585, Note_on_c, 0, 47, 0
2, 415610, Note_on_c, 0, 66, 0
2, 415610, Note_on_c, 0, 56, 0
2, 415614, Note_on_c, 0, 68, 70
2, 415620, Note_on_c, 0, 61, 0
2, 415632, Note_on_c, 0, 53, 0
2, 415640, Control_c, 0, 64, 0
2, 415665, Note_on_c, 0, 68, 0
2, 415671, Note_on_c, 0, 53, 62
2, 415671, Note_on_c, 0, 61, 62
2, 415671, Note_on_c, 0, 69, 75
2, 415676, Note_on_c, 0, 56, 61
2, 415700, Note_on_c, 0, 56, 0
2, 415700, Note_on_c, 0, 61, 0
2, 415713, Note_on_c, 0, 53, 0
2, 415719, Note_on_c, 0, 69, 0
2, 415722, Note_on_c, 0, 71, 78
2, 415766, Note_on_c, 0, 57, 64
2, 415768, Note_on_c, 0, 45, 68
2, 415773, Note_on_c, 0, 71, 0
2, 415775, Note_on_c, 0, 73, 79
2, 415816, Note_on_c, 0, 73, 0
2, 415822, Note_on_c, 0, 74, 79
2, 415828, Control_c, 0, 64, 127
2, 415844, Note_on_c, 0, 45, 0
2, 415844, Note_on_c, 0, 57, 0
2, 415859, Note_on_c, 0, 74, 0
2, 415869, Note_on_c, 0, 72, 79
2, 415873, Note_on_c, 0, 57, 70
2, 415873, Note_on_c, 0, 66, 78
2, 415882, Note_on_c, 0, 61, 70
2, 415898, Note_on_c, 0, 57, 0
2, 415914, Note_on_c, 0, 66, 0
2, 415920, Note_on_c, 0, 72, 0
2, 415924, Note_on_c, 0, 61, 0
2, 415926, Control_c, 0, 64, 0
2, 415935, Note_on_c, 0, 74, 78
2, 415985, Note_on_c, 0, 74, 0
2, 415996, Note_on_c, 0, 57, 70
2, 415996, Note_on_c, 0, 61, 70
2, 415996, Note_on_c, 0, 66, 61
2, 416000, Note_on_c, 0, 73, 61
2, 416022, Note_on_c, 0, 66, 0
2, 416022, Note_on_c, 0, 57, 0
2, 416026, Control_c, 0, 67, 0
2, 416030, Note_on_c, 0, 73, 0
2, 416038, Note_on_c, 0, 61, 0
2, 416105, Note_on_c, 0, 44, 71
2, 416107, Note_on_c, 0, 56, 70
2, 416171, Control_c, 0, 64, 127
2, 416185, Note_on_c, 0, 56, 0
2, 416187, Note_on_c, 0, 44, 0
2, 416232, Note_on_c, 0, 56, 66
2, 416232, Note_on_c, 0, 59, 65
2, 416232, Note_on_c, 0, 65, 81
2, 416232, Note_on_c, 0, 72, 81
2, 416241, Note_on_c, 0, 61, 64
2, 416266, Note_on_c, 0, 56, 0
2, 416270, Control_c, 0, 64, 0
2, 416273, Note_on_c, 0, 65, 0
2, 416282, Note_on_c, 0, 59, 0
2, 416282, Note_on_c, 0, 72, 0
2, 416282, Note_on_c, 0, 61, 0
2, 416288, Note_on_c, 0, 73, 81
2, 416339, Note_on_c, 0, 56, 65
2, 416339, Note_on_c, 0, 59, 65
2, 416339, Note_on_c, 0, 61, 64
2, 416339, Note_on_c, 0, 65, 74
2, 416343, Note_on_c, 0, 73, 0
2, 416348, Note_on_c, 0, 75, 76
2, 416365, Note_on_c, 0, 65, 0
2, 416370, Note_on_c, 0, 61, 0
2, 416376, Note_on_c, 0, 56, 0
2, 416376, Note_on_c, 0, 59, 0
2, 416392, Note_on_c, 0, 75, 0
2, 416401, Note_on_c, 0, 77, 78
2, 416448, Note_on_c, 0, 42, 71
2, 416448, Note_on_c, 0, 54, 75
2, 416452, Note_on_c, 0, 77, 0
2, 416456, Note_on_c, 0, 78, 81
2, 416511, Control_c, 0, 64, 127
2, 416518, Note_on_c, 0, 78, 0
2, 416526, Note_on_c, 0, 80, 82
2, 416530, Note_on_c, 0, 54, 0
2, 416530, Note_on_c, 0, 42, 0
2, 416573, Note_on_c, 0, 80, 0
2, 416579, Note_on_c, 0, 57, 73
2, 416579, Note_on_c, 0, 61, 73
2, 416579, Note_on_c, 0, 66, 81
2, 416579, Note_on_c, 0, 81, 83
2, 416587, Control_c, 0, 64, 0
2, 416604, Note_on_c, 0, 66, 0
2, 416611, Note_on_c, 0, 57, 0
2, 416617, Note_on_c, 0, 61, 0
2, 416641, Note_on_c, 0, 77, 81
2, 416647, Note_on_c, 0, 81, 0
2, 416690, Note_on_c, 0, 40, 76
2, 416690, Note_on_c, 0, 52, 78
2, 416692, Note_on_c, 0, 77, 0
2, 416698, Note_on_c, 0, 80, 82
2, 416736, Control_c, 0, 64, 127
2, 416752, Note_on_c, 0, 52, 0
2, 416758, Note_on_c, 0, 80, 0
2, 416762, Note_on_c, 0, 40, 0
2, 416762, Note_on_c, 0, 78, 82
2, 416824, Note_on_c, 0, 78, 0
2, 416825, Note_on_c, 0, 57, 73
2, 416825, Note_on_c, 0, 61, 73
2, 416825, Note_on_c, 0, 66, 75
2, 416834, Control_c, 0, 64, 0
2, 416834, Note_on_c, 0, 81, 80
2, 416850, Note_on_c, 0, 66, 0
2, 416859, Note_on_c, 0, 57, 0
2, 416859, Note_on_c, 0, 61, 0
2, 416896, Note_on_c, 0, 77, 79
2, 416912, Note_on_c, 0, 81, 0
2, 416955, Note_on_c, 0, 38, 78
2, 416955, Note_on_c, 0, 50, 80
2, 416959, Note_on_c, 0, 80, 79
2, 416967, Note_on_c, 0, 77, 0
2, 417021, Note_on_c, 0, 80, 0
2, 417023, Note_on_c, 0, 78, 82
2, 417036, Control_c, 0, 64, 127
2, 417058, Note_on_c, 0, 50, 0
2, 417058, Note_on_c, 0, 38, 0
2, 417074, Note_on_c, 0, 78, 0
2, 417094, Note_on_c, 0, 66, 80
2, 417098, Note_on_c, 0, 57, 73
2, 417098, Note_on_c, 0, 60, 73
2, 417104, Control_c, 0, 64, 0
2, 417104, Note_on_c, 0, 81, 84
2, 417112, Note_on_c, 0, 66, 0
2, 417119, Note_on_c, 0, 60, 0
2, 417125, Note_on_c, 0, 57, 0
2, 417178, Note_on_c, 0, 81, 0
2, 417180, Note_on_c, 0, 78, 85
2, 417241, Note_on_c, 0, 78, 0
2, 417249, Note_on_c, 0, 37, 86
2, 417249, Note_on_c, 0, 49, 87
2, 417255, Note_on_c, 0, 81, 91
2, 417294, Control_c, 0, 64, 127
2, 417319, Note_on_c, 0, 37, 0
2, 417325, Note_on_c, 0, 49, 0
2, 417333, Note_on_c, 0, 81, 0
2, 417337, Note_on_c, 0, 78, 82
2, 417362, Control_c, 0, 64, 0
2, 417378, Note_on_c, 0, 78, 0
2, 417417, Note_on_c, 0, 81, 83
2, 417419, Note_on_c, 0, 66, 81
2, 417423, Note_on_c, 0, 57, 73
2, 417423, Note_on_c, 0, 69, 82
2, 417430, Note_on_c, 0, 61, 73
2, 417473, Control_c, 0, 64, 127
2, 417506, Note_on_c, 0, 81, 0
2, 417508, Note_on_c, 0, 73, 82
2, 417508, Note_on_c, 0, 78, 82
2, 417516, Note_on_c, 0, 66, 0
2, 417516, Control_c, 0, 64, 0
2, 417524, Note_on_c, 0, 69, 0
2, 417526, Note_on_c, 0, 57, 0
2, 417532, Note_on_c, 0, 73, 0
2, 417543, Note_on_c, 0, 78, 0
2, 417553, Note_on_c, 0, 61, 0
2, 417578, Note_on_c, 0, 59, 73
2, 417586, Note_on_c, 0, 81, 82
2, 417588, Note_on_c, 0, 61, 73
2, 417588, Note_on_c, 0, 65, 80
2, 417588, Note_on_c, 0, 69, 82
2, 417606, Control_c, 0, 64, 127
2, 417612, Note_on_c, 0, 65, 0
2, 417614, Note_on_c, 0, 59, 0
2, 417632, Note_on_c, 0, 81, 0
2, 417632, Note_on_c, 0, 61, 0
2, 417638, Note_on_c, 0, 69, 0
2, 417676, Control_c, 0, 64, 0
2, 417680, Note_on_c, 0, 77, 82
2, 417686, Note_on_c, 0, 73, 83
2, 417709, Note_on_c, 0, 73, 0
2, 417709, Note_on_c, 0, 77, 0
2, 417714, Note_on_c, 0, 42, 73
2, 417741, Note_on_c, 0, 49, 73
2, 417766, Note_on_c, 0, 57, 77
2, 417766, Note_on_c, 0, 66, 79
2, 417766, Note_on_c, 0, 73, 81
2, 417766, Note_on_c, 0, 78, 82
2, 417805, Control_c, 0, 64, 127
2, 417817, Note_on_c, 0, 78, 0
2, 417817, Note_on_c, 0, 73, 0
2, 417819, Note_on_c, 0, 57, 0
2, 417821, Note_on_c, 0, 42, 0
2, 417821, Note_on_c, 0, 49, 0
2, 417821, Note_on_c, 0, 66, 0
2, 417870, Note_on_c, 0, 57, 75
2, 417874, Note_on_c, 0, 81, 77
2, 417906, Control_c, 0, 64, 0
2, 417908, Note_on_c, 0, 81, 0
2, 417910, Note_on_c, 0, 83, 76
2, 417914, Note_on_c, 0, 57, 0
2, 417914, Note_on_c, 0, 58, 78
2, 417945, Note_on_c, 0, 83, 0
2, 417949, Note_on_c, 0, 85, 79
2, 417957, Note_on_c, 0, 58, 0
2, 417957, Note_on_c, 0, 59, 84
2, 417970, Note_on_c, 0, 85, 0
2, 417976, Note_on_c, 0, 86, 82
2, 417994, Note_on_c, 0, 59, 0
2, 417996, Note_on_c, 0, 60, 87
2, 418001, Note_on_c, 0, 88, 83
2, 418007, Note_on_c, 0, 86, 0
2, 418030, Note_on_c, 0, 90, 83
2, 418036, Note_on_c, 0, 88, 0
2, 418038, Note_on_c, 0, 60, 0
2, 418054, Note_on_c, 0, 90, 0
2, 418054, Note_on_c, 0, 91, 83
2, 418058, Note_on_c, 0, 61, 87
2, 418081, Note_on_c, 0, 91, 0
2, 418083, Note_on_c, 0, 93, 83
2, 418110, Note_on_c, 0, 95, 83
2, 418118, Note_on_c, 0, 93, 0
2, 418120, Note_on_c, 0, 61, 0
2, 418132, Note_on_c, 0, 97, 86
2, 418143, Note_on_c, 0, 95, 0
2, 418143, Control_c, 0, 64, 127
2, 418146, Note_on_c, 0, 62, 87
2, 418155, Note_on_c, 0, 97, 0
2, 418155, Note_on_c, 0, 86, 88
2, 418155, Note_on_c, 0, 98, 93
2, 418190, Note_on_c, 0, 62, 0
2, 418204, Note_on_c, 0, 98, 0
2, 418208, Note_on_c, 0, 86, 0
2, 418336, Control_c, 0, 64, 0
2, 418480, Control_c, 0, 64, 127
2, 418485, Note_on_c, 0, 30, 80
2, 418505, Note_on_c, 0, 42, 80
2, 418522, Note_on_c, 0, 30, 0
2, 418526, Note_on_c, 0, 42, 0
2, 418554, Note_on_c, 0, 74, 86
2, 418562, Note_on_c, 0, 81, 91
2, 418564, Note_on_c, 0, 54, 80
2, 418564, Note_on_c, 0, 57, 80
2, 418564, Note_on_c, 0, 69, 90
2, 418566, Note_on_c, 0, 74, 0
2, 418568, Note_on_c, 0, 62, 80
2, 418572, Note_on_c, 0, 57, 0
2, 418580, Note_on_c, 0, 69, 0
2, 418582, Note_on_c, 0, 62, 0
2, 418582, Note_on_c, 0, 54, 0
2, 418588, Note_on_c, 0, 81, 0
2, 418608, Control_c, 0, 64, 0
2, 418715, Note_on_c, 0, 74, 92
2, 418717, Note_on_c, 0, 30, 80
2, 418717, Note_on_c, 0, 42, 80
2, 418717, Note_on_c, 0, 86, 101
2, 418724, Note_on_c, 0, 82, 100
2, 418733, Control_c, 0, 64, 127
2, 418749, Note_on_c, 0, 42, 0
2, 418749, Note_on_c, 0, 30, 0
2, 418827, Note_on_c, 0, 82, 0
2, 418827, Note_on_c, 0, 86, 0
2, 418843, Note_on_c, 0, 74, 0
2, 418865, Note_on_c, 0, 64, 79
2, 418867, Note_on_c, 0, 54, 80
2, 418876, Note_on_c, 0, 58, 80
2, 418882, Note_on_c, 0, 54, 0
2, 418890, Note_on_c, 0, 58, 0
2, 418890, Note_on_c, 0, 64, 0
2, 418903, Note_on_c, 0, 74, 81
2, 418917, Note_on_c, 0, 74, 0
2, 418917, Note_on_c, 0, 64, 79
2, 418919, Note_on_c, 0, 54, 80
2, 418919, Note_on_c, 0, 58, 80
2, 418936, Note_on_c, 0, 58, 0
2, 418936, Note_on_c, 0, 54, 0
2, 418936, Note_on_c, 0, 64, 0
2, 418937, Note_on_c, 0, 74, 81
2, 418962, Note_on_c, 0, 74, 0
2, 418971, Note_on_c, 0, 58, 80
2, 418971, Note_on_c, 0, 64, 81
2, 418971, Note_on_c, 0, 70, 81
2, 418973, Note_on_c, 0, 54, 81
2, 418973, Note_on_c, 0, 82, 84
2, 418996, Note_on_c, 0, 64, 0
2, 419004, Note_on_c, 0, 82, 0
2, 419004, Note_on_c, 0, 70, 0
2, 419006, Note_on_c, 0, 54, 0
2, 419008, Note_on_c, 0, 58, 0
2, 419073, Control_c, 0, 64, 0
2, 419163, Note_on_c, 0, 85, 94
2, 419165, Note_on_c, 0, 43, 80
2, 419169, Note_on_c, 0, 31, 80
2, 419169, Note_on_c, 0, 73, 99
2, 419176, Control_c, 0, 64, 127
2, 419191, Note_on_c, 0, 31, 0
2, 419197, Note_on_c, 0, 73, 0
2, 419199, Note_on_c, 0, 85, 0
2, 419200, Note_on_c, 0, 43, 0
2, 419229, Note_on_c, 0, 83, 93
2, 419282, Note_on_c, 0, 83, 0
2, 419291, Note_on_c, 0, 55, 80
2, 419291, Note_on_c, 0, 59, 80
2, 419291, Note_on_c, 0, 67, 70
2, 419293, Note_on_c, 0, 82, 72
2, 419303, Note_on_c, 0, 67, 0
2, 419305, Note_on_c, 0, 55, 0
2, 419316, Note_on_c, 0, 59, 0
2, 419339, Note_on_c, 0, 82, 0
2, 419343, Note_on_c, 0, 83, 69
2, 419344, Note_on_c, 0, 55, 80
2, 419344, Note_on_c, 0, 59, 80
2, 419344, Note_on_c, 0, 67, 65
2, 419357, Note_on_c, 0, 59, 0
2, 419365, Note_on_c, 0, 67, 0
2, 419367, Note_on_c, 0, 55, 0
2, 419379, Control_c, 0, 64, 0
2, 419385, Note_on_c, 0, 83, 0
2, 419387, Note_on_c, 0, 79, 64
2, 419395, Note_on_c, 0, 55, 80
2, 419395, Note_on_c, 0, 71, 63
2, 419399, Note_on_c, 0, 59, 80
2, 419408, Note_on_c, 0, 67, 60
2, 419420, Note_on_c, 0, 55, 0
2, 419422, Note_on_c, 0, 59, 0
2, 419430, Note_on_c, 0, 67, 0
2, 419430, Note_on_c, 0, 71, 0
2, 419439, Note_on_c, 0, 79, 0
2, 419442, Note_on_c, 0, 76, 55
2, 419461, Note_on_c, 0, 55, 74
2, 419475, Note_on_c, 0, 76, 0
2, 419479, Note_on_c, 0, 59, 73
2, 419488, Control_c, 0, 64, 127
2, 419496, Note_on_c, 0, 64, 59
2, 419504, Note_on_c, 0, 55, 0
2, 419514, Note_on_c, 0, 67, 61
2, 419522, Note_on_c, 0, 64, 0
2, 419522, Note_on_c, 0, 59, 0
2, 419531, Note_on_c, 0, 71, 65
2, 419547, Note_on_c, 0, 67, 0
2, 419553, Note_on_c, 0, 76, 69
2, 419557, Note_on_c, 0, 71, 0
2, 419567, Note_on_c, 0, 78, 71
2, 419573, Note_on_c, 0, 76, 0
2, 419587, Note_on_c, 0, 79, 73
2, 419593, Note_on_c, 0, 78, 0
2, 419606, Note_on_c, 0, 83, 76
2, 419614, Note_on_c, 0, 88, 76
2, 419631, Note_on_c, 0, 90, 76
2, 419639, Note_on_c, 0, 79, 0
2, 419645, Note_on_c, 0, 90, 0
2, 419645, Note_on_c, 0, 91, 76
2, 419647, Note_on_c, 0, 88, 0
2, 419659, Note_on_c, 0, 83, 0
2, 419659, Note_on_c, 0, 94, 79
2, 419665, Note_on_c, 0, 91, 0
2, 419703, Note_on_c, 0, 94, 0
2, 419829, Note_on_c, 0, 88, 83
2, 419829, Note_on_c, 0, 91, 101
2, 419833, Note_on_c, 0, 83, 100
2, 419833, Note_on_c, 0, 95, 101
2, 419862, Note_on_c, 0, 95, 0
2, 419872, Note_on_c, 0, 88, 0
2, 419880, Note_on_c, 0, 83, 0
2, 419882, Note_on_c, 0, 91, 0
2, 420019, Control_c, 0, 64, 0
2, 420046, Note_on_c, 0, 73, 108
2, 420046, Note_on_c, 0, 79, 109
2, 420046, Note_on_c, 0, 85, 110
2, 420055, Note_on_c, 0, 40, 80
2, 420055, Note_on_c, 0, 52, 80
2, 420100, Control_c, 0, 64, 127
2, 420122, Note_on_c, 0, 52, 0
2, 420122, Note_on_c, 0, 40, 0
2, 420131, Note_on_c, 0, 85, 0
2, 420139, Note_on_c, 0, 79, 0
2, 420147, Note_on_c, 0, 73, 0
2, 420205, Note_on_c, 0, 61, 80
2, 420207, Note_on_c, 0, 52, 80
2, 420207, Note_on_c, 0, 55, 80
2, 420207, Note_on_c, 0, 64, 82
2, 420217, Note_on_c, 0, 73, 81
2, 420221, Note_on_c, 0, 64, 0
2, 420221, Note_on_c, 0, 55, 0
2, 420221, Note_on_c, 0, 61, 0
2, 420221, Note_on_c, 0, 52, 0
2, 420235, Note_on_c, 0, 73, 0
2, 420243, Note_on_c, 0, 52, 80
2, 420243, Note_on_c, 0, 55, 80
2, 420243, Note_on_c, 0, 61, 79
2, 420243, Note_on_c, 0, 64, 80
2, 420257, Note_on_c, 0, 64, 0
2, 420257, Note_on_c, 0, 61, 0
2, 420257, Note_on_c, 0, 52, 0
2, 420259, Note_on_c, 0, 55, 0
2, 420261, Note_on_c, 0, 73, 85
2, 420281, Note_on_c, 0, 73, 0
2, 420287, Note_on_c, 0, 79, 88
2, 420289, Note_on_c, 0, 52, 83
2, 420289, Note_on_c, 0, 55, 84
2, 420289, Note_on_c, 0, 61, 85
2, 420289, Note_on_c, 0, 67, 88
2, 420298, Note_on_c, 0, 64, 89
2, 420312, Note_on_c, 0, 64, 0
2, 420312, Note_on_c, 0, 52, 0
2, 420312, Note_on_c, 0, 55, 0
2, 420312, Note_on_c, 0, 61, 0
2, 420321, Note_on_c, 0, 67, 0
2, 420348, Note_on_c, 0, 79, 0
2, 420413, Control_c, 0, 64, 0
2, 420450, Note_on_c, 0, 73, 108
2, 420450, Note_on_c, 0, 80, 109
2, 420450, Note_on_c, 0, 85, 110
2, 420459, Note_on_c, 0, 41, 80
2, 420463, Note_on_c, 0, 29, 80
2, 420510, Control_c, 0, 64, 127
2, 420526, Note_on_c, 0, 41, 0
2, 420526, Note_on_c, 0, 85, 0
2, 420528, Note_on_c, 0, 29, 0
2, 420532, Note_on_c, 0, 80, 0
2, 420548, Note_on_c, 0, 73, 0
2, 420599, Note_on_c, 0, 56, 80
2, 420599, Note_on_c, 0, 61, 80
2, 420599, Note_on_c, 0, 65, 84
2, 420603, Note_on_c, 0, 53, 79
2, 420616, Note_on_c, 0, 61, 0
2, 420616, Note_on_c, 0, 56, 0
2, 420617, Note_on_c, 0, 65, 0
2, 420617, Note_on_c, 0, 53, 0
2, 420621, Note_on_c, 0, 73, 82
2, 420634, Note_on_c, 0, 73, 0
2, 420648, Note_on_c, 0, 53, 80
2, 420648, Note_on_c, 0, 65, 80
2, 420650, Note_on_c, 0, 61, 80
2, 420658, Note_on_c, 0, 56, 80
2, 420658, Note_on_c, 0, 73, 82
2, 420665, Note_on_c, 0, 61, 0
2, 420665, Note_on_c, 0, 53, 0
2, 420665, Note_on_c, 0, 65, 0
2, 420671, Note_on_c, 0, 56, 0
2, 420689, Note_on_c, 0, 73, 0
2, 420695, Note_on_c, 0, 53, 81
2, 420695, Note_on_c, 0, 61, 81
2, 420695, Note_on_c, 0, 65, 81
2, 420695, Note_on_c, 0, 68, 80
2, 420695, Note_on_c, 0, 80, 82
2, 420704, Note_on_c, 0, 56, 80
2, 420708, Note_on_c, 0, 65, 0
2, 420728, Note_on_c, 0, 53, 0
2, 420736, Note_on_c, 0, 61, 0
2, 420736, Note_on_c, 0, 56, 0
2, 420745, Note_on_c, 0, 68, 0
2, 420754, Note_on_c, 0, 80, 0
2, 420774, Control_c, 0, 64, 0
2, 420830, Note_on_c, 0, 42, 80
2, 420832, Note_on_c, 0, 30, 80
2, 420837, Note_on_c, 0, 71, 91
2, 420837, Note_on_c, 0, 83, 94
2, 420857, Control_c, 0, 64, 127
2, 420870, Note_on_c, 0, 30, 0
2, 420870, Note_on_c, 0, 42, 0
2, 420880, Note_on_c, 0, 83, 0
2, 420897, Note_on_c, 0, 71, 0
2, 420899, Note_on_c, 0, 81, 88
2, 420931, Note_on_c, 0, 81, 0
2, 420942, Note_on_c, 0, 54, 80
2, 420942, Note_on_c, 0, 57, 80
2, 420942, Note_on_c, 0, 62, 79
2, 420942, Note_on_c, 0, 80, 82
2, 420958, Note_on_c, 0, 62, 0
2, 420960, Note_on_c, 0, 54, 0
2, 420960, Note_on_c, 0, 57, 0
2, 420980, Note_on_c, 0, 54, 79
2, 420980, Note_on_c, 0, 57, 80
2, 420980, Note_on_c, 0, 62, 79
2, 420993, Note_on_c, 0, 62, 0
2, 420993, Note_on_c, 0, 80, 0
2, 420997, Note_on_c, 0, 57, 0
2, 420997, Note_on_c, 0, 54, 0
2, 420997, Note_on_c, 0, 81, 84
2, 421027, Note_on_c, 0, 81, 0
2, 421033, Note_on_c, 0, 54, 81
2, 421033, Note_on_c, 0, 57, 81
2, 421033, Note_on_c, 0, 62, 80
2, 421033, Note_on_c, 0, 69, 81
2, 421041, Note_on_c, 0, 78, 81
2, 421057, Note_on_c, 0, 62, 0
2, 421059, Control_c, 0, 64, 0
2, 421067, Note_on_c, 0, 57, 0
2, 421085, Note_on_c, 0, 54, 0
2, 421096, Note_on_c, 0, 74, 82
2, 421101, Note_on_c, 0, 78, 0
2, 421112, Note_on_c, 0, 69, 0
2, 421130, Note_on_c, 0, 54, 74
2, 421144, Note_on_c, 0, 74, 0
2, 421152, Note_on_c, 0, 57, 73
2, 421156, Control_c, 0, 64, 127
2, 421160, Note_on_c, 0, 62, 73
2, 421176, Note_on_c, 0, 54, 0
2, 421176, Note_on_c, 0, 66, 75
2, 421184, Note_on_c, 0, 57, 0
2, 421192, Note_on_c, 0, 62, 0
2, 421200, Note_on_c, 0, 69, 74
2, 421206, Note_on_c, 0, 66, 0
2, 421215, Note_on_c, 0, 74, 74
2, 421231, Note_on_c, 0, 69, 0
2, 421231, Note_on_c, 0, 78, 74
2, 421245, Note_on_c, 0, 74, 0
2, 421264, Note_on_c, 0, 78, 0
2, 421267, Note_on_c, 0, 81, 76
2, 421304, Note_on_c, 0, 86, 78
2, 421304, Note_on_c, 0, 90, 82
2, 421312, Note_on_c, 0, 92, 83
2, 421338, Note_on_c, 0, 81, 0
2, 421349, Note_on_c, 0, 92, 0
2, 421392, Note_on_c, 0, 90, 0
2, 421403, Note_on_c, 0, 86, 0
2, 421466, Note_on_c, 0, 93, 79
2, 421475, Note_on_c, 0, 81, 94
2, 421475, Note_on_c, 0, 86, 95
2, 421475, Note_on_c, 0, 90, 96
2, 421498, Note_on_c, 0, 93, 0
2, 421506, Note_on_c, 0, 90, 0
2, 421510, Note_on_c, 0, 86, 0
2, 421510, Note_on_c, 0, 81, 0
2, 421611, Control_c, 0, 64, 0
2, 421674, Note_on_c, 0, 70, 112
2, 421674, Note_on_c, 0, 77, 113
2, 421674, Note_on_c, 0, 82, 114
2, 421689, Note_on_c, 0, 38, 80
2, 421689, Note_on_c, 0, 50, 80
2, 421701, Control_c, 0, 64, 127
2, 421716, Note_on_c, 0, 50, 0
2, 421716, Note_on_c, 0, 38, 0
2, 421761, Note_on_c, 0, 82, 0
2, 421769, Note_on_c, 0, 77, 0
2, 421778, Note_on_c, 0, 70, 0
2, 421828, Note_on_c, 0, 58, 80
2, 421828, Note_on_c, 0, 62, 80
2, 421830, Note_on_c, 0, 50, 79
2, 421839, Note_on_c, 0, 53, 80
2, 421844, Note_on_c, 0, 50, 0
2, 421844, Note_on_c, 0, 58, 0
2, 421846, Note_on_c, 0, 62, 0
2, 421855, Note_on_c, 0, 53, 0
2, 421873, Note_on_c, 0, 62, 80
2, 421875, Note_on_c, 0, 50, 80
2, 421875, Note_on_c, 0, 53, 80
2, 421875, Note_on_c, 0, 58, 79
2, 421875, Note_on_c, 0, 70, 88
2, 421889, Note_on_c, 0, 70, 0
2, 421891, Note_on_c, 0, 53, 0
2, 421891, Note_on_c, 0, 62, 0
2, 421900, Note_on_c, 0, 50, 0
2, 421900, Note_on_c, 0, 58, 0
2, 421912, Note_on_c, 0, 70, 89
2, 421929, Note_on_c, 0, 58, 83
2, 421929, Note_on_c, 0, 62, 85
2, 421929, Note_on_c, 0, 65, 90
2, 421929, Note_on_c, 0, 77, 92
2, 421931, Note_on_c, 0, 50, 86
2, 421931, Note_on_c, 0, 53, 87
2, 421936, Note_on_c, 0, 70, 0
2, 421945, Note_on_c, 0, 58, 0
2, 421956, Note_on_c, 0, 62, 0
2, 421956, Note_on_c, 0, 53, 0
2, 421964, Note_on_c, 0, 50, 0
2, 421983, Note_on_c, 0, 65, 0
2, 422008, Note_on_c, 0, 77, 0
2, 422045, Control_c, 0, 64, 0
2, 422070, Note_on_c, 0, 80, 100
2, 422076, Note_on_c, 0, 68, 101
2, 422082, Note_on_c, 0, 26, 80
2, 422082, Note_on_c, 0, 38, 80
2, 422082, Note_on_c, 0, 76, 103
2, 422128, Control_c, 0, 64, 127
2, 422148, Note_on_c, 0, 38, 0
2, 422152, Note_on_c, 0, 26, 0
2, 422155, Note_on_c, 0, 76, 0
2, 422162, Note_on_c, 0, 80, 0
2, 422173, Note_on_c, 0, 68, 0
2, 422220, Note_on_c, 0, 50, 80
2, 422220, Note_on_c, 0, 52, 80
2, 422220, Note_on_c, 0, 59, 79
2, 422226, Note_on_c, 0, 56, 80
2, 422232, Note_on_c, 0, 50, 0
2, 422238, Note_on_c, 0, 52, 0
2, 422238, Note_on_c, 0, 59, 0
2, 422244, Note_on_c, 0, 56, 0
2, 422256, Note_on_c, 0, 71, 82
2, 422265, Note_on_c, 0, 50, 80
2, 422265, Note_on_c, 0, 52, 80
2, 422265, Note_on_c, 0, 56, 79
2, 422265, Note_on_c, 0, 59, 80
2, 422269, Note_on_c, 0, 71, 0
2, 422277, Note_on_c, 0, 52, 0
2, 422279, Note_on_c, 0, 50, 0
2, 422279, Note_on_c, 0, 56, 0
2, 422279, Note_on_c, 0, 59, 0
2, 422290, Note_on_c, 0, 71, 83
2, 422306, Note_on_c, 0, 50, 81
2, 422306, Note_on_c, 0, 52, 83
2, 422306, Note_on_c, 0, 59, 84
2, 422306, Note_on_c, 0, 64, 84
2, 422306, Note_on_c, 0, 76, 86
2, 422313, Note_on_c, 0, 56, 85
2, 422320, Note_on_c, 0, 71, 0
2, 422330, Note_on_c, 0, 59, 0
2, 422330, Note_on_c, 0, 52, 0
2, 422337, Note_on_c, 0, 56, 0
2, 422337, Note_on_c, 0, 50, 0
2, 422364, Note_on_c, 0, 64, 0
2, 422380, Note_on_c, 0, 76, 0
2, 422380, Control_c, 0, 64, 0
2, 422436, Note_on_c, 0, 25, 80
2, 422436, Note_on_c, 0, 76, 91
2, 422436, Note_on_c, 0, 81, 94
2, 422438, Note_on_c, 0, 37, 80
2, 422438, Note_on_c, 0, 69, 93
2, 422473, Control_c, 0, 64, 127
2, 422491, Note_on_c, 0, 37, 0
2, 422491, Note_on_c, 0, 25, 0
2, 422497, Note_on_c, 0, 76, 0
2, 422497, Note_on_c, 0, 81, 0
2, 422517, Note_on_c, 0, 69, 0
2, 422567, Note_on_c, 0, 49, 80
2, 422567, Note_on_c, 0, 57, 80
2, 422567, Note_on_c, 0, 64, 72
2, 422567, Note_on_c, 0, 76, 72
2, 422576, Note_on_c, 0, 52, 79
2, 422576, Note_on_c, 0, 69, 71
2, 422597, Note_on_c, 0, 69, 0
2, 422597, Note_on_c, 0, 57, 0
2, 422597, Note_on_c, 0, 49, 0
2, 422597, Note_on_c, 0, 64, 0
2, 422601, Note_on_c, 0, 52, 0
2, 422608, Note_on_c, 0, 76, 0
2, 422680, Control_c, 0, 64, 0
2, 422743, Note_on_c, 0, 48, 74
2, 422743, Note_on_c, 0, 60, 73
2, 422743, Note_on_c, 0, 66, 47
2, 422757, Note_on_c, 0, 62, 72
2, 422763, Control_c, 0, 64, 127
2, 422777, Note_on_c, 0, 48, 0
2, 422786, Note_on_c, 0, 60, 0
2, 422788, Note_on_c, 0, 62, 0
2, 422797, Note_on_c, 0, 66, 0
2, 422840, Note_on_c, 0, 60, 73
2, 422840, Note_on_c, 0, 66, 49
2, 422842, Note_on_c, 0, 74, 49
2, 422850, Note_on_c, 0, 62, 73
2, 422885, Note_on_c, 0, 60, 0
2, 422885, Control_c, 0, 64, 0
2, 422892, Note_on_c, 0, 66, 0
2, 422892, Note_on_c, 0, 74, 0
2, 422892, Note_on_c, 0, 62, 0
2, 422929, Note_on_c, 0, 62, 73
2, 422929, Note_on_c, 0, 67, 52
2, 422931, Note_on_c, 0, 47, 73
2, 422931, Note_on_c, 0, 59, 73
2, 422972, Control_c, 0, 64, 127
2, 422979, Note_on_c, 0, 67, 0
2, 422981, Note_on_c, 0, 62, 0
2, 422990, Note_on_c, 0, 59, 0
2, 422996, Note_on_c, 0, 47, 0
2, 423007, Note_on_c, 0, 62, 73
2, 423007, Note_on_c, 0, 67, 54
2, 423011, Note_on_c, 0, 74, 54
2, 423021, Note_on_c, 0, 59, 73
2, 423044, Note_on_c, 0, 62, 0
2, 423044, Control_c, 0, 64, 0
2, 423051, Note_on_c, 0, 74, 0
2, 423053, Note_on_c, 0, 67, 0
2, 423053, Note_on_c, 0, 59, 0
2, 423098, Note_on_c, 0, 46, 73
2, 423098, Note_on_c, 0, 58, 73
2, 423098, Note_on_c, 0, 62, 72
2, 423098, Note_on_c, 0, 65, 65
2, 423098, Note_on_c, 0, 68, 66
2, 423136, Control_c, 0, 64, 127
2, 423141, Note_on_c, 0, 58, 0
2, 423145, Note_on_c, 0, 65, 0
2, 423145, Note_on_c, 0, 68, 0
2, 423151, Note_on_c, 0, 62, 0
2, 423161, Note_on_c, 0, 46, 0
2, 423172, Note_on_c, 0, 58, 73
2, 423172, Note_on_c, 0, 65, 74
2, 423172, Note_on_c, 0, 74, 76
2, 423174, Note_on_c, 0, 68, 76
2, 423181, Control_c, 0, 64, 0
2, 423181, Note_on_c, 0, 62, 73
2, 423206, Note_on_c, 0, 62, 0
2, 423206, Note_on_c, 0, 65, 0
2, 423214, Note_on_c, 0, 58, 0
2, 423214, Note_on_c, 0, 68, 0
2, 423221, Note_on_c, 0, 74, 0
2, 423248, Note_on_c, 0, 65, 74
2, 423250, Note_on_c, 0, 45, 73
2, 423250, Note_on_c, 0, 57, 73
2, 423250, Note_on_c, 0, 69, 77
2, 423266, Control_c, 0, 64, 127
2, 423280, Note_on_c, 0, 69, 0
2, 423280, Note_on_c, 0, 65, 0
2, 423280, Note_on_c, 0, 45, 0
2, 423282, Note_on_c, 0, 57, 0
2, 423328, Note_on_c, 0, 77, 76
2, 423329, Note_on_c, 0, 57, 73
2, 423329, Note_on_c, 0, 62, 73
2, 423329, Note_on_c, 0, 65, 78
2, 423329, Note_on_c, 0, 69, 80
2, 423329, Note_on_c, 0, 74, 81
2, 423352, Note_on_c, 0, 62, 0
2, 423358, Note_on_c, 0, 69, 0
2, 423358, Note_on_c, 0, 57, 0
2, 423362, Note_on_c, 0, 65, 0
2, 423362, Control_c, 0, 64, 0
2, 423369, Note_on_c, 0, 77, 0
2, 423377, Note_on_c, 0, 74, 0
2, 423404, Note_on_c, 0, 44, 73
2, 423404, Note_on_c, 0, 56, 73
2, 423404, Note_on_c, 0, 65, 77
2, 423404, Note_on_c, 0, 70, 79
2, 423439, Control_c, 0, 64, 127
2, 423455, Note_on_c, 0, 70, 0
2, 423455, Note_on_c, 0, 44, 0
2, 423455, Note_on_c, 0, 56, 0
2, 423459, Note_on_c, 0, 65, 0
2, 423486, Note_on_c, 0, 56, 77
2, 423486, Note_on_c, 0, 58, 79
2, 423486, Note_on_c, 0, 62, 80
2, 423486, Note_on_c, 0, 65, 81
2, 423486, Note_on_c, 0, 70, 81
2, 423486, Note_on_c, 0, 74, 82
2, 423486, Note_on_c, 0, 77, 81
2, 423511, Note_on_c, 0, 62, 0
2, 423511, Note_on_c, 0, 58, 0
2, 423511, Control_c, 0, 64, 0
2, 423518, Note_on_c, 0, 65, 0
2, 423518, Note_on_c, 0, 56, 0
2, 423528, Note_on_c, 0, 74, 0
2, 423528, Note_on_c, 0, 77, 0
2, 423528, Note_on_c, 0, 70, 0
2, 423564, Note_on_c, 0, 43, 85
2, 423564, Note_on_c, 0, 55, 83
2, 423564, Note_on_c, 0, 65, 84
2, 423564, Note_on_c, 0, 71, 86
2, 423607, Control_c, 0, 64, 127
2, 423616, Note_on_c, 0, 65, 0
2, 423616, Note_on_c, 0, 55, 0
2, 423624, Note_on_c, 0, 71, 0
2, 423639, Note_on_c, 0, 43, 0
2, 423649, Note_on_c, 0, 55, 80
2, 423649, Note_on_c, 0, 59, 80
2, 423649, Note_on_c, 0, 62, 79
2, 423649, Note_on_c, 0, 65, 84
2, 423649, Note_on_c, 0, 74, 86
2, 423649, Note_on_c, 0, 77, 87
2, 423655, Note_on_c, 0, 71, 88
2, 423673, Note_on_c, 0, 62, 0
2, 423680, Note_on_c, 0, 55, 0
2, 423682, Note_on_c, 0, 65, 0
2, 423682, Note_on_c, 0, 59, 0
2, 423682, Control_c, 0, 64, 0
2, 423688, Note_on_c, 0, 77, 0
2, 423697, Note_on_c, 0, 74, 0
2, 423701, Note_on_c, 0, 71, 0
2, 423726, Note_on_c, 0, 66, 81
2, 423728, Note_on_c, 0, 71, 84
2, 423732, Note_on_c, 0, 42, 80
2, 423732, Note_on_c, 0, 54, 80
2, 423773, Control_c, 0, 64, 127
2, 423780, Note_on_c, 0, 54, 0
2, 423780, Note_on_c, 0, 66, 0
2, 423780, Note_on_c, 0, 71, 0
2, 423788, Note_on_c, 0, 42, 0
2, 423807, Note_on_c, 0, 66, 81
2, 423807, Note_on_c, 0, 71, 84
2, 423807, Note_on_c, 0, 78, 85
2, 423812, Note_on_c, 0, 59, 80
2, 423818, Note_on_c, 0, 54, 80
2, 423820, Note_on_c, 0, 62, 80
2, 423820, Note_on_c, 0, 74, 87
2, 423840, Note_on_c, 0, 62, 0
2, 423840, Note_on_c, 0, 59, 0
2, 423844, Control_c, 0, 64, 0
2, 423851, Note_on_c, 0, 54, 0
2, 423856, Note_on_c, 0, 71, 0
2, 423862, Note_on_c, 0, 66, 0
2, 423869, Note_on_c, 0, 74, 0
2, 423869, Note_on_c, 0, 78, 0
2, 423908, Note_on_c, 0, 41, 80
2, 423908, Note_on_c, 0, 67, 83
2, 423908, Note_on_c, 0, 71, 85
2, 423908, Note_on_c, 0, 74, 86
2, 423910, Note_on_c, 0, 53, 80
2, 423939, Control_c, 0, 64, 127
2, 423959, Note_on_c, 0, 53, 0
2, 423959, Note_on_c, 0, 41, 0
2, 423959, Note_on_c, 0, 71, 0
2, 423959, Note_on_c, 0, 67, 0
2, 423965, Note_on_c, 0, 74, 0
2, 423996, Note_on_c, 0, 62, 80
2, 423996, Note_on_c, 0, 67, 83
2, 424000, Note_on_c, 0, 55, 80
2, 424000, Note_on_c, 0, 59, 80
2, 424000, Note_on_c, 0, 71, 85
2, 424000, Note_on_c, 0, 74, 86
2, 424000, Note_on_c, 0, 79, 87
2, 424023, Note_on_c, 0, 62, 0
2, 424029, Note_on_c, 0, 71, 0
2, 424029, Note_on_c, 0, 59, 0
2, 424038, Note_on_c, 0, 55, 0
2, 424038, Note_on_c, 0, 79, 0
2, 424040, Note_on_c, 0, 67, 0
2, 424040, Control_c, 0, 64, 0
2, 424056, Note_on_c, 0, 74, 0
2, 424085, Note_on_c, 0, 40, 80
2, 424085, Note_on_c, 0, 74, 82
2, 424087, Note_on_c, 0, 52, 80
2, 424087, Note_on_c, 0, 68, 81
2, 424097, Note_on_c, 0, 71, 82
2, 424120, Control_c, 0, 64, 127
2, 424137, Note_on_c, 0, 71, 0
2, 424137, Note_on_c, 0, 40, 0
2, 424137, Note_on_c, 0, 68, 0
2, 424141, Note_on_c, 0, 52, 0
2, 424157, Note_on_c, 0, 74, 0
2, 424180, Note_on_c, 0, 52, 80
2, 424180, Note_on_c, 0, 59, 80
2, 424186, Note_on_c, 0, 80, 85
2, 424188, Note_on_c, 0, 56, 80
2, 424188, Note_on_c, 0, 68, 85
2, 424188, Note_on_c, 0, 71, 87
2, 424188, Note_on_c, 0, 74, 88
2, 424202, Note_on_c, 0, 59, 0
2, 424209, Note_on_c, 0, 56, 0
2, 424213, Note_on_c, 0, 52, 0
2, 424229, Note_on_c, 0, 68, 0
2, 424229, Note_on_c, 0, 71, 0
2, 424247, Note_on_c, 0, 80, 0
2, 424249, Control_c, 0, 64, 0
2, 424256, Note_on_c, 0, 74, 0
2, 424287, Note_on_c, 0, 71, 84
2, 424287, Note_on_c, 0, 75, 87
2, 424287, Note_on_c, 0, 80, 88
2, 424288, Note_on_c, 0, 39, 84
2, 424288, Note_on_c, 0, 51, 85
2, 424288, Note_on_c, 0, 68, 88
2, 424338, Control_c, 0, 64, 127
2, 424355, Note_on_c, 0, 80, 0
2, 424357, Note_on_c, 0, 75, 0
2, 424357, Note_on_c, 0, 71, 0
2, 424357, Note_on_c, 0, 51, 0
2, 424357, Note_on_c, 0, 68, 0
2, 424359, Note_on_c, 0, 39, 0
2, 424402, Note_on_c, 0, 56, 80
2, 424404, Note_on_c, 0, 51, 80
2, 424404, Note_on_c, 0, 59, 80
2, 424404, Note_on_c, 0, 71, 88
2, 424404, Note_on_c, 0, 75, 89
2, 424404, Note_on_c, 0, 80, 90
2, 424404, Note_on_c, 0, 83, 93
2, 424445, Note_on_c, 0, 83, 0
2, 424445, Note_on_c, 0, 71, 0
2, 424445, Note_on_c, 0, 56, 0
2, 424445, Note_on_c, 0, 75, 0
2, 424447, Note_on_c, 0, 51, 0
2, 424447, Note_on_c, 0, 59, 0
2, 424453, Note_on_c, 0, 80, 0
2, 424510, Note_on_c, 0, 37, 82
2, 424510, Note_on_c, 0, 49, 86
2, 424517, Note_on_c, 0, 65, 88
2, 424517, Note_on_c, 0, 71, 90
2, 424519, Note_on_c, 0, 77, 89
2, 424521, Note_on_c, 0, 68, 89
2, 424568, Note_on_c, 0, 77, 0
2, 424568, Note_on_c, 0, 71, 0
2, 424568, Note_on_c, 0, 65, 0
2, 424575, Note_on_c, 0, 37, 0
2, 424576, Note_on_c, 0, 49, 0
2, 424585, Note_on_c, 0, 68, 0
2, 424632, Note_on_c, 0, 77, 85
2, 424632, Note_on_c, 0, 80, 88
2, 424632, Note_on_c, 0, 83, 91
2, 424636, Note_on_c, 0, 53, 80
2, 424636, Note_on_c, 0, 56, 80
2, 424636, Note_on_c, 0, 59, 79
2, 424636, Note_on_c, 0, 71, 90
2, 424667, Note_on_c, 0, 59, 0
2, 424673, Note_on_c, 0, 56, 0
2, 424673, Note_on_c, 0, 80, 0
2, 424673, Note_on_c, 0, 77, 0
2, 424673, Note_on_c, 0, 71, 0
2, 424675, Note_on_c, 0, 83, 0
2, 424684, Note_on_c, 0, 53, 0
2, 424729, Control_c, 0, 64, 0
2, 424756, Note_on_c, 0, 36, 86
2, 424756, Note_on_c, 0, 48, 88
2, 424756, Note_on_c, 0, 65, 90
2, 424756, Note_on_c, 0, 77, 92
2, 424760, Note_on_c, 0, 72, 93
2, 424768, Note_on_c, 0, 68, 93
2, 424810, Control_c, 0, 64, 127
2, 424826, Note_on_c, 0, 72, 0
2, 424826, Note_on_c, 0, 77, 0
2, 424828, Note_on_c, 0, 65, 0
2, 424828, Note_on_c, 0, 36, 0
2, 424828, Note_on_c, 0, 68, 0
2, 424828, Note_on_c, 0, 48, 0
2, 424890, Note_on_c, 0, 60, 80
2, 424890, Note_on_c, 0, 80, 93
2, 424890, Note_on_c, 0, 84, 96
2, 424892, Note_on_c, 0, 53, 80
2, 424892, Note_on_c, 0, 72, 95
2, 424899, Note_on_c, 0, 77, 96
2, 424901, Note_on_c, 0, 56, 80
2, 424934, Note_on_c, 0, 60, 0
2, 424942, Note_on_c, 0, 53, 0
2, 424942, Note_on_c, 0, 56, 0
2, 424949, Note_on_c, 0, 72, 0
2, 424949, Note_on_c, 0, 80, 0
2, 424958, Note_on_c, 0, 77, 0
2, 424961, Note_on_c, 0, 84, 0
2, 424988, Control_c, 0, 64, 0
2, 425036, Note_on_c, 0, 34, 85
2, 425036, Note_on_c, 0, 65, 93
2, 425036, Note_on_c, 0, 74, 95
2, 425036, Note_on_c, 0, 77, 96
2, 425038, Note_on_c, 0, 46, 90
2, 425038, Note_on_c, 0, 68, 96
2, 425101, Control_c, 0, 64, 127
2, 425124, Note_on_c, 0, 77, 0
2, 425124, Note_on_c, 0, 74, 0
2, 425129, Note_on_c, 0, 46, 0
2, 425129, Note_on_c, 0, 34, 0
2, 425129, Note_on_c, 0, 68, 0
2, 425129, Note_on_c, 0, 65, 0
2, 425179, Note_on_c, 0, 62, 87
2, 425179, Note_on_c, 0, 86, 96
2, 425183, Note_on_c, 0, 74, 95
2, 425183, Note_on_c, 0, 80, 96
2, 425185, Note_on_c, 0, 53, 88
2, 425192, Note_on_c, 0, 56, 88
2, 425192, Note_on_c, 0, 77, 97
2, 425212, Note_on_c, 0, 80, 0
2, 425214, Note_on_c, 0, 77, 0
2, 425218, Note_on_c, 0, 86, 0
2, 425218, Note_on_c, 0, 62, 0
2, 425224, Note_on_c, 0, 56, 0
2, 425227, Note_on_c, 0, 74, 0
2, 425227, Note_on_c, 0, 53, 0
2, 425331, Control_c, 0, 64, 0
2, 425408, Note_on_c, 0, 77, 98
2, 425410, Note_on_c, 0, 32, 98
2, 425410, Note_on_c, 0, 65, 98
2, 425412, Note_on_c, 0, 44, 98
2, 425412, Note_on_c, 0, 70, 99
2, 425412, Note_on_c, 0, 74, 98
2, 425449, Control_c, 0, 64, 127
2, 425460, Note_on_c, 0, 74, 0
2, 425460, Note_on_c, 0, 77, 0
2, 425460, Note_on_c, 0, 65, 0
2, 425460, Note_on_c, 0, 70, 0
2, 425462, Note_on_c, 0, 32, 0
2, 425462, Note_on_c, 0, 44, 0
2, 425578, Note_on_c, 0, 62, 91
2, 425578, Note_on_c, 0, 77, 109
2, 425578, Note_on_c, 0, 82, 110
2, 425578, Note_on_c, 0, 86, 111
2, 425582, Note_on_c, 0, 53, 88
2, 425582, Note_on_c, 0, 58, 88
2, 425582, Note_on_c, 0, 65, 108
2, 425582, Note_on_c, 0, 89, 110
2, 425587, Note_on_c, 0, 56, 87
2, 425608, Note_on_c, 0, 65, 0
2, 425608, Note_on_c, 0, 58, 0
2, 425608, Note_on_c, 0, 62, 0
2, 425609, Note_on_c, 0, 53, 0
2, 425615, Note_on_c, 0, 56, 0
2, 425690, Note_on_c, 0, 86, 0
2, 425690, Note_on_c, 0, 89, 0
2, 425699, Note_on_c, 0, 77, 0
2, 425705, Note_on_c, 0, 82, 0
2, 425718, Control_c, 0, 64, 0
2, 425745, Note_on_c, 0, 33, 91
2, 425745, Note_on_c, 0, 45, 94
2, 425795, Control_c, 0, 64, 127
2, 425822, Note_on_c, 0, 45, 0
2, 425822, Note_on_c, 0, 33, 0
2, 425904, Note_on_c, 0, 78, 110
2, 425904, Note_on_c, 0, 90, 115
2, 425908, Note_on_c, 0, 50, 88
2, 425908, Note_on_c, 0, 54, 88
2, 425908, Note_on_c, 0, 62, 87
2, 425908, Note_on_c, 0, 86, 115
2, 425917, Note_on_c, 0, 57, 88
2, 425917, Note_on_c, 0, 81, 115
2, 425979, Note_on_c, 0, 78, 0
2, 425985, Note_on_c, 0, 81, 0
2, 425985, Note_on_c, 0, 86, 0
2, 425985, Note_on_c, 0, 50, 0
2, 425985, Note_on_c, 0, 54, 0
2, 425985, Note_on_c, 0, 62, 0
2, 425985, Note_on_c, 0, 57, 0
2, 425992, Note_on_c, 0, 90, 0
2, 426153, Note_on_c, 0, 69, 90
2, 426153, Note_on_c, 0, 81, 101
2, 426176, Note_on_c, 0, 81, 0
2, 426184, Note_on_c, 0, 69, 0
2, 426218, Note_on_c, 0, 93, 99
2, 426243, Note_on_c, 0, 93, 0
2, 426257, Note_on_c, 0, 66, 95
2, 426257, Note_on_c, 0, 78, 97
2, 426280, Note_on_c, 0, 78, 0
2, 426282, Note_on_c, 0, 66, 0
2, 426299, Note_on_c, 0, 90, 97
2, 426299, Note_on_c, 0, 102, 101
2, 426328, Note_on_c, 0, 102, 0
2, 426328, Note_on_c, 0, 90, 0
2, 426329, Note_on_c, 0, 62, 80
2, 426329, Note_on_c, 0, 74, 89
2, 426362, Note_on_c, 0, 74, 0
2, 426362, Note_on_c, 0, 62, 0
2, 426362, Note_on_c, 0, 98, 91
2, 426366, Note_on_c, 0, 86, 87
2, 426389, Note_on_c, 0, 98, 0
2, 426391, Note_on_c, 0, 86, 0
2, 426393, Note_on_c, 0, 57, 80
2, 426393, Note_on_c, 0, 69, 82
2, 426416, Note_on_c, 0, 69, 0
2, 426418, Note_on_c, 0, 57, 0
2, 426428, Note_on_c, 0, 81, 83
2, 426428, Note_on_c, 0, 93, 83
2, 426453, Note_on_c, 0, 93, 0
2, 426455, Note_on_c, 0, 81, 0
2, 426466, Note_on_c, 0, 54, 80
2, 426466, Note_on_c, 0, 66, 80
2, 426491, Note_on_c, 0, 66, 0
2, 426491, Note_on_c, 0, 54, 0
2, 426491, Note_on_c, 0, 78, 80
2, 426493, Note_on_c, 0, 90, 83
2, 426518, Note_on_c, 0, 78, 0
2, 426526, Note_on_c, 0, 90, 0
2, 426528, Note_on_c, 0, 62, 80
2, 426530, Note_on_c, 0, 50, 80
2, 426551, Note_on_c, 0, 62, 0
2, 426560, Note_on_c, 0, 50, 0
2, 426564, Note_on_c, 0, 74, 81
2, 426564, Note_on_c, 0, 86, 83
2, 426572, Control_c, 0, 64, 0
2, 426587, Note_on_c, 0, 86, 0
2, 426587, Note_on_c, 0, 74, 0
2, 426591, Note_on_c, 0, 58, 81
2, 426592, Note_on_c, 0, 46, 82
2, 426614, Note_on_c, 0, 46, 0
2, 426614, Note_on_c, 0, 58, 0
2, 426634, Note_on_c, 0, 70, 85
2, 426634, Note_on_c, 0, 82, 88
2, 426657, Note_on_c, 0, 82, 0
2, 426657, Note_on_c, 0, 70, 0
2, 426659, Note_on_c, 0, 44, 87
2, 426659, Note_on_c, 0, 56, 88
2, 426667, Control_c, 0, 64, 127
2, 426686, Note_on_c, 0, 56, 0
2, 426686, Note_on_c, 0, 44, 0
2, 426694, Note_on_c, 0, 80, 89
2, 426698, Note_on_c, 0, 68, 88
2, 426719, Note_on_c, 0, 68, 0
2, 426721, Note_on_c, 0, 80, 0
2, 426732, Note_on_c, 0, 41, 88
2, 426732, Note_on_c, 0, 53, 88
2, 426755, Note_on_c, 0, 41, 0
2, 426759, Note_on_c, 0, 53, 0
2, 426767, Note_on_c, 0, 65, 88
2, 426767, Note_on_c, 0, 77, 89
2, 426788, Note_on_c, 0, 77, 0
2, 426788, Note_on_c, 0, 65, 0
2, 426794, Note_on_c, 0, 50, 88
2, 426796, Note_on_c, 0, 38, 88
2, 426817, Note_on_c, 0, 38, 0
2, 426817, Note_on_c, 0, 50, 0
2, 426826, Note_on_c, 0, 62, 88
2, 426826, Note_on_c, 0, 74, 91
2, 426851, Note_on_c, 0, 62, 0
2, 426853, Note_on_c, 0, 74, 0
2, 426855, Note_on_c, 0, 34, 91
2, 426855, Note_on_c, 0, 46, 92
2, 426888, Note_on_c, 0, 46, 0
2, 426888, Note_on_c, 0, 34, 0
2, 426908, Note_on_c, 0, 58, 97
2, 426908, Note_on_c, 0, 70, 100
2, 426929, Note_on_c, 0, 70, 0
2, 426931, Note_on_c, 0, 58, 0
2, 426935, Note_on_c, 0, 33, 101
2, 426937, Note_on_c, 0, 45, 102
2, 426976, Note_on_c, 0, 57, 101
2, 426980, Note_on_c, 0, 69, 94
2, 426987, Note_on_c, 0, 33, 0
2, 427003, Note_on_c, 0, 45, 0
2, 427010, Note_on_c, 0, 57, 0
2, 427010, Note_on_c, 0, 69, 0
2, 427085, Control_c, 0, 64, 0
2, 427120, Note_on_c, 0, 57, 82
2, 427120, Note_on_c, 0, 69, 99
2, 427164, Note_on_c, 0, 81, 100
2, 427172, Control_c, 0, 64, 127
2, 427187, Note_on_c, 0, 69, 0
2, 427191, Note_on_c, 0, 57, 0
2, 427196, Note_on_c, 0, 81, 0
2, 427217, Note_on_c, 0, 66, 86
2, 427219, Note_on_c, 0, 54, 80
2, 427242, Note_on_c, 0, 66, 0
2, 427251, Note_on_c, 0, 54, 0
2, 427253, Note_on_c, 0, 78, 83
2, 427276, Note_on_c, 0, 78, 0
2, 427288, Note_on_c, 0, 62, 80
2, 427290, Note_on_c, 0, 50, 80
2, 427323, Note_on_c, 0, 50, 0
2, 427323, Note_on_c, 0, 62, 0
2, 427325, Note_on_c, 0, 74, 81
2, 427358, Note_on_c, 0, 74, 0
2, 427360, Note_on_c, 0, 45, 80
2, 427360, Note_on_c, 0, 57, 80
2, 427390, Note_on_c, 0, 45, 0
2, 427392, Note_on_c, 0, 57, 0
2, 427398, Note_on_c, 0, 69, 81
2, 427418, Note_on_c, 0, 69, 0
2, 427431, Note_on_c, 0, 54, 80
2, 427434, Note_on_c, 0, 42, 80
2, 427465, Note_on_c, 0, 54, 0
2, 427467, Note_on_c, 0, 42, 0
2, 427467, Note_on_c, 0, 66, 80
2, 427494, Note_on_c, 0, 66, 0
2, 427498, Note_on_c, 0, 50, 80
2, 427500, Note_on_c, 0, 38, 80
2, 427530, Note_on_c, 0, 38, 0
2, 427539, Note_on_c, 0, 50, 0
2, 427541, Note_on_c, 0, 62, 80
2, 427545, Control_c, 0, 64, 0
2, 427566, Note_on_c, 0, 62, 0
2, 427578, Note_on_c, 0, 34, 80
2, 427582, Note_on_c, 0, 46, 80
2, 427603, Note_on_c, 0, 46, 0
2, 427605, Note_on_c, 0, 34, 0
2, 427616, Note_on_c, 0, 58, 80
2, 427624, Control_c, 0, 64, 127
2, 427641, Note_on_c, 0, 58, 0
2, 427653, Note_on_c, 0, 32, 80
2, 427653, Note_on_c, 0, 44, 80
2, 427686, Note_on_c, 0, 44, 0
2, 427686, Note_on_c, 0, 32, 0
2, 427690, Note_on_c, 0, 56, 83
2, 427709, Note_on_c, 0, 56, 0
2, 427723, Note_on_c, 0, 41, 85
2, 427725, Note_on_c, 0, 29, 86
2, 427758, Note_on_c, 0, 41, 0
2, 427758, Note_on_c, 0, 53, 88
2, 427767, Note_on_c, 0, 29, 0
2, 427783, Note_on_c, 0, 53, 0
2, 427789, Note_on_c, 0, 26, 88
2, 427789, Note_on_c, 0, 38, 88
2, 427817, Note_on_c, 0, 38, 0
2, 427830, Note_on_c, 0, 50, 91
2, 427836, Note_on_c, 0, 26, 0
2, 427854, Note_on_c, 0, 50, 0
2, 427861, Note_on_c, 0, 34, 96
2, 427891, Note_on_c, 0, 34, 0
2, 427893, Note_on_c, 0, 46, 99
2, 427916, Note_on_c, 0, 46, 0
2, 427935, Note_on_c, 0, 33, 96
2, 427936, Note_on_c, 0, 45, 94
2, 427976, Note_on_c, 0, 45, 0
2, 427978, Note_on_c, 0, 33, 0
2, 428063, Control_c, 0, 64, 0
2, 428099, Note_on_c, 0, 45, 83
2, 428104, Note_on_c, 0, 66, 112
2, 428108, Note_on_c, 0, 50, 81
2, 428108, Note_on_c, 0, 54, 80
2, 428108, Note_on_c, 0, 57, 79
2, 428108, Note_on_c, 0, 69, 113
2, 428115, Note_on_c, 0, 62, 80
2, 428140, Control_c, 0, 64, 127
2, 428165, Note_on_c, 0, 45, 0
2, 428172, Note_on_c, 0, 50, 0
2, 428172, Note_on_c, 0, 57, 0
2, 428172, Note_on_c, 0, 66, 0
2, 428172, Note_on_c, 0, 62, 0
2, 428182, Note_on_c, 0, 54, 0
2, 428182, Note_on_c, 0, 69, 0
2, 428253, Note_on_c, 0, 62, 80
2, 428253, Note_on_c, 0, 81, 101
2, 428255, Note_on_c, 0, 66, 97
2, 428257, Note_on_c, 0, 57, 80
2, 428257, Note_on_c, 0, 69, 99
2, 428257, Note_on_c, 0, 74, 98
2, 428264, Note_on_c, 0, 78, 99
2, 428316, Note_on_c, 0, 66, 0
2, 428321, Note_on_c, 0, 74, 0
2, 428321, Note_on_c, 0, 69, 0
2, 428321, Note_on_c, 0, 78, 0
2, 428323, Note_on_c, 0, 81, 0
2, 428323, Note_on_c, 0, 62, 0
2, 428332, Note_on_c, 0, 57, 0
2, 428341, Control_c, 0, 64, 0
2, 428386, Note_on_c, 0, 56, 80
2, 428386, Note_on_c, 0, 62, 80
2, 428386, Note_on_c, 0, 66, 92
2, 428386, Note_on_c, 0, 78, 94
2, 428386, Note_on_c, 0, 82, 97
2, 428390, Note_on_c, 0, 70, 96
2, 428396, Note_on_c, 0, 58, 80
2, 428396, Note_on_c, 0, 74, 97
2, 428432, Control_c, 0, 64, 127
2, 428446, Note_on_c, 0, 74, 0
2, 428446, Note_on_c, 0, 58, 0
2, 428446, Note_on_c, 0, 82, 0
2, 428446, Note_on_c, 0, 56, 0
2, 428446, Note_on_c, 0, 70, 0
2, 428448, Note_on_c, 0, 62, 0
2, 428448, Note_on_c, 0, 78, 0
2, 428448, Note_on_c, 0, 66, 0
2, 428518, Note_on_c, 0, 66, 88
2, 428522, Note_on_c, 0, 54, 80
2, 428524, Note_on_c, 0, 44, 80
2, 428524, Note_on_c, 0, 50, 80
2, 428524, Note_on_c, 0, 58, 79
2, 428524, Note_on_c, 0, 70, 97
2, 428531, Note_on_c, 0, 46, 80
2, 428531, Note_on_c, 0, 62, 80
2, 428572, Note_on_c, 0, 44, 0
2, 428579, Note_on_c, 0, 46, 0
2, 428579, Note_on_c, 0, 54, 0
2, 428587, Note_on_c, 0, 70, 0
2, 428591, Note_on_c, 0, 66, 0
2, 428591, Note_on_c, 0, 58, 0
2, 428591, Note_on_c, 0, 62, 0
2, 428600, Note_on_c, 0, 50, 0
2, 428654, Note_on_c, 0, 62, 79
2, 428654, Note_on_c, 0, 65, 94
2, 428656, Note_on_c, 0, 33, 86
2, 428656, Note_on_c, 0, 53, 87
2, 428657, Note_on_c, 0, 45, 88
2, 428657, Note_on_c, 0, 58, 89
2, 428699, Note_on_c, 0, 45, 0
2, 428717, Note_on_c, 0, 33, 0
2, 428721, Note_on_c, 0, 53, 0
2, 428727, Note_on_c, 0, 62, 0
2, 428727, Note_on_c, 0, 58, 0
2, 428727, Note_on_c, 0, 65, 0
2, 428776, Control_c, 0, 64, 0
2, 428801, Note_on_c, 0, 51, 102
2, 428801, Note_on_c, 0, 58, 104
2, 428801, Note_on_c, 0, 63, 105
2, 428803, Note_on_c, 0, 33, 106
2, 428810, Note_on_c, 0, 54, 107
2, 428855, Control_c, 0, 64, 127
2, 428884, Note_on_c, 0, 63, 0
2, 428884, Note_on_c, 0, 51, 0
2, 428893, Note_on_c, 0, 58, 0
2, 428893, Note_on_c, 0, 33, 0
2, 428893, Note_on_c, 0, 54, 0
2, 428946, Note_on_c, 0, 42, 92
2, 428953, Note_on_c, 0, 66, 89
2, 428955, Note_on_c, 0, 46, 89
2, 428955, Note_on_c, 0, 51, 88
2, 428955, Note_on_c, 0, 54, 87
2, 428955, Note_on_c, 0, 58, 88
2, 428955, Note_on_c, 0, 63, 87
2, 429013, Note_on_c, 0, 42, 0
2, 429023, Note_on_c, 0, 54, 0
2, 429023, Note_on_c, 0, 51, 0
2, 429023, Note_on_c, 0, 46, 0
2, 429030, Note_on_c, 0, 66, 0
2, 429030, Note_on_c, 0, 63, 0
2, 429030, Note_on_c, 0, 58, 0
2, 429100, Note_on_c, 0, 66, 90
2, 429102, Note_on_c, 0, 46, 88
2, 429102, Note_on_c, 0, 54, 88
2, 429102, Note_on_c, 0, 58, 87
2, 429102, Note_on_c, 0, 70, 97
2, 429111, Note_on_c, 0, 63, 88
2, 429114, Note_on_c, 0, 51, 88
2, 429150, Note_on_c, 0, 66, 0
2, 429156, Note_on_c, 0, 58, 0
2, 429156, Note_on_c, 0, 63, 0
2, 429160, Note_on_c, 0, 70, 0
2, 429161, Note_on_c, 0, 46, 0
2, 429161, Note_on_c, 0, 54, 0
2, 429165, Note_on_c, 0, 51, 0
2, 429249, Control_c, 0, 64, 0
2, 429272, Note_on_c, 0, 67, 97
2, 429272, Note_on_c, 0, 71, 99
2, 429272, Note_on_c, 0, 79, 98
2, 429272, Note_on_c, 0, 83, 101
2, 429276, Note_on_c, 0, 57, 88
2, 429276, Note_on_c, 0, 59, 88
2, 429281, Note_on_c, 0, 63, 87
2, 429285, Note_on_c, 0, 75, 97
2, 429333, Control_c, 0, 64, 127
2, 429358, Note_on_c, 0, 75, 0
2, 429358, Note_on_c, 0, 63, 0
2, 429358, Note_on_c, 0, 83, 0
2, 429358, Note_on_c, 0, 79, 0
2, 429358, Note_on_c, 0, 57, 0
2, 429360, Note_on_c, 0, 67, 0
2, 429360, Note_on_c, 0, 59, 0
2, 429376, Note_on_c, 0, 71, 0
2, 429453, Note_on_c, 0, 45, 88
2, 429453, Note_on_c, 0, 47, 88
2, 429453, Note_on_c, 0, 51, 87
2, 429453, Note_on_c, 0, 55, 88
2, 429453, Note_on_c, 0, 63, 87
2, 429453, Note_on_c, 0, 67, 81
2, 429453, Note_on_c, 0, 71, 81
2, 429455, Note_on_c, 0, 59, 88
2, 429503, Note_on_c, 0, 67, 0
2, 429503, Note_on_c, 0, 51, 0
2, 429503, Note_on_c, 0, 63, 0
2, 429505, Note_on_c, 0, 55, 0
2, 429511, Note_on_c, 0, 71, 0
2, 429521, Note_on_c, 0, 59, 0
2, 429521, Note_on_c, 0, 45, 0
2, 429523, Note_on_c, 0, 47, 0
2, 429604, Note_on_c, 0, 66, 88
2, 429606, Note_on_c, 0, 33, 97
2, 429606, Note_on_c, 0, 45, 97
2, 429606, Note_on_c, 0, 54, 96
2, 429606, Note_on_c, 0, 59, 97
2, 429615, Note_on_c, 0, 63, 96
2, 429646, Note_on_c, 0, 45, 0
2, 429646, Note_on_c, 0, 33, 0
2, 429689, Note_on_c, 0, 59, 0
2, 429689, Note_on_c, 0, 63, 0
2, 429698, Note_on_c, 0, 66, 0
2, 429705, Note_on_c, 0, 54, 0
2, 429724, Control_c, 0, 64, 0
2, 429761, Note_on_c, 0, 52, 97
2, 429761, Note_on_c, 0, 59, 97
2, 429761, Note_on_c, 0, 64, 93
2, 429770, Note_on_c, 0, 55, 96
2, 429772, Note_on_c, 0, 33, 97
2, 429822, Control_c, 0, 64, 127
2, 429866, Note_on_c, 0, 55, 0
2, 429866, Note_on_c, 0, 52, 0
2, 429875, Note_on_c, 0, 59, 0
2, 429875, Note_on_c, 0, 64, 0
2, 429893, Note_on_c, 0, 33, 0
2, 429949, Note_on_c, 0, 43, 103
2, 429949, Note_on_c, 0, 47, 106
2, 429949, Note_on_c, 0, 52, 107
2, 429949, Note_on_c, 0, 55, 106
2, 429949, Note_on_c, 0, 59, 107
2, 429949, Note_on_c, 0, 64, 98
2, 429949, Note_on_c, 0, 67, 97
2, 430009, Note_on_c, 0, 55, 0
2, 430015, Note_on_c, 0, 64, 0
2, 430019, Note_on_c, 0, 59, 0
2, 430024, Note_on_c, 0, 67, 0
2, 430028, Note_on_c, 0, 52, 0
2, 430034, Note_on_c, 0, 47, 0
2, 430038, Note_on_c, 0, 43, 0
2, 430106, Note_on_c, 0, 67, 98
2, 430112, Note_on_c, 0, 47, 90
2, 430112, Note_on_c, 0, 55, 89
2, 430112, Note_on_c, 0, 59, 88
2, 430112, Note_on_c, 0, 71, 99
2, 430120, Note_on_c, 0, 52, 87
2, 430120, Note_on_c, 0, 64, 98
2, 430158, Note_on_c, 0, 64, 0
2, 430158, Note_on_c, 0, 67, 0
2, 430162, Note_on_c, 0, 59, 0
2, 430180, Note_on_c, 0, 55, 0
2, 430180, Note_on_c, 0, 47, 0
2, 430180, Note_on_c, 0, 52, 0
2, 430196, Note_on_c, 0, 71, 0
2, 430267, Control_c, 0, 64, 0
2, 430312, Note_on_c, 0, 58, 88
2, 430312, Note_on_c, 0, 60, 88
2, 430312, Note_on_c, 0, 69, 99
2, 430312, Note_on_c, 0, 72, 98
2, 430312, Note_on_c, 0, 76, 99
2, 430312, Note_on_c, 0, 84, 100
2, 430315, Note_on_c, 0, 64, 98
2, 430321, Note_on_c, 0, 81, 101
2, 430375, Control_c, 0, 64, 127
2, 430385, Note_on_c, 0, 76, 0
2, 430394, Note_on_c, 0, 72, 0
2, 430394, Note_on_c, 0, 69, 0
2, 430394, Note_on_c, 0, 64, 0
2, 430396, Note_on_c, 0, 84, 0
2, 430396, Note_on_c, 0, 81, 0
2, 430396, Note_on_c, 0, 60, 0
2, 430407, Note_on_c, 0, 58, 0
2, 430513, Note_on_c, 0, 46, 80
2, 430513, Note_on_c, 0, 48, 80
2, 430513, Note_on_c, 0, 52, 79
2, 430513, Note_on_c, 0, 60, 80
2, 430513, Note_on_c, 0, 64, 89
2, 430513, Note_on_c, 0, 69, 89
2, 430513, Note_on_c, 0, 72, 90
2, 430524, Note_on_c, 0, 57, 79
2, 430563, Note_on_c, 0, 57, 0
2, 430563, Note_on_c, 0, 64, 0
2, 430563, Note_on_c, 0, 60, 0
2, 430569, Note_on_c, 0, 69, 0
2, 430569, Note_on_c, 0, 72, 0
2, 430579, Note_on_c, 0, 52, 0
2, 430586, Note_on_c, 0, 48, 0
2, 430599, Note_on_c, 0, 46, 0
2, 430679, Control_c, 0, 64, 0
2, 430717, Note_on_c, 0, 55, 96
2, 430719, Note_on_c, 0, 33, 97
2, 430719, Note_on_c, 0, 45, 97
2, 430719, Note_on_c, 0, 58, 96
2, 430719, Note_on_c, 0, 67, 86
2, 430725, Note_on_c, 0, 64, 87
2, 430784, Control_c, 0, 64, 127
2, 430802, Note_on_c, 0, 45, 0
2, 430820, Note_on_c, 0, 33, 0
2, 430854, Note_on_c, 0, 67, 0
2, 430854, Note_on_c, 0, 64, 0
2, 430863, Note_on_c, 0, 58, 0
2, 430873, Note_on_c, 0, 55, 0
2, 430882, Control_c, 0, 64, 0
2, 430928, Note_on_c, 0, 53, 97
2, 430928, Note_on_c, 0, 65, 98
2, 430932, Note_on_c, 0, 33, 97
2, 430932, Note_on_c, 0, 57, 97
2, 430932, Note_on_c, 0, 60, 96
2, 431005, Control_c, 0, 64, 127
2, 431056, Note_on_c, 0, 33, 0
2, 431075, Note_on_c, 0, 53, 0
2, 431091, Note_on_c, 0, 57, 0
2, 431098, Note_on_c, 0, 60, 0
2, 431100, Note_on_c, 0, 65, 0
2, 431166, Note_on_c, 0, 45, 104
2, 431166, Note_on_c, 0, 48, 106
2, 431166, Note_on_c, 0, 57, 107
2, 431166, Note_on_c, 0, 60, 106
2, 431166, Note_on_c, 0, 69, 102
2, 431175, Note_on_c, 0, 53, 107
2, 431175, Note_on_c, 0, 65, 100
2, 431206, Note_on_c, 0, 57, 0
2, 431215, Note_on_c, 0, 60, 0
2, 431222, Note_on_c, 0, 69, 0
2, 431222, Note_on_c, 0, 65, 0
2, 431266, Note_on_c, 0, 48, 0
2, 431274, Note_on_c, 0, 45, 0
2, 431287, Note_on_c, 0, 53, 0
2, 431426, Note_on_c, 0, 60, 101
2, 431426, Note_on_c, 0, 65, 98
2, 431426, Note_on_c, 0, 69, 98
2, 431426, Note_on_c, 0, 81, 101
2, 431426, Note_on_c, 0, 84, 100
2, 431428, Note_on_c, 0, 72, 99
2, 431439, Note_on_c, 0, 77, 99
2, 431460, Note_on_c, 0, 77, 0
2, 431460, Note_on_c, 0, 84, 0
2, 431460, Note_on_c, 0, 81, 0
2, 431460, Note_on_c, 0, 72, 0
2, 431574, Note_on_c, 0, 60, 0
2, 431588, Note_on_c, 0, 69, 0
2, 431588, Note_on_c, 0, 65, 0
2, 431686, Control_c, 0, 64, 0
2, 431713, Note_on_c, 0, 57, 88
2, 431713, Note_on_c, 0, 61, 88
2, 431713, Note_on_c, 0, 69, 99
2, 431713, Note_on_c, 0, 73, 98
2, 431713, Note_on_c, 0, 78, 99
2, 431713, Note_on_c, 0, 85, 100
2, 431722, Note_on_c, 0, 67, 98
2, 431791, Control_c, 0, 64, 127
2, 431822, Note_on_c, 0, 67, 0
2, 431834, Note_on_c, 0, 69, 0
2, 431859, Note_on_c, 0, 85, 0
2, 431865, Note_on_c, 0, 73, 0
2, 431871, Note_on_c, 0, 57, 0
2, 431877, Note_on_c, 0, 78, 0
2, 431879, Note_on_c, 0, 61, 0
2, 432000, Note_on_c, 0, 61, 107
2, 432000, Note_on_c, 0, 66, 112
2, 432004, Note_on_c, 0, 45, 107
2, 432004, Note_on_c, 0, 49, 107
2, 432004, Note_on_c, 0, 57, 106
2, 432004, Note_on_c, 0, 73, 113
2, 432013, Note_on_c, 0, 55, 107
2, 432036, Note_on_c, 0, 55, 0
2, 432036, Note_on_c, 0, 57, 0
2, 432052, Note_on_c, 0, 49, 0
2, 432052, Note_on_c, 0, 45, 0
2, 432292, Control_c, 0, 64, 0
2, 432359, Note_on_c, 0, 33, 111
2, 432378, Control_c, 0, 64, 127
2, 432391, Note_on_c, 0, 73, 0
2, 432395, Note_on_c, 0, 66, 0
2, 432403, Note_on_c, 0, 33, 0
2, 432422, Note_on_c, 0, 61, 0
2, 432459, Note_on_c, 0, 40, 107
2, 432500, Note_on_c, 0, 40, 0
2, 432521, Note_on_c, 0, 43, 106
2, 432569, Note_on_c, 0, 43, 0
2, 432571, Note_on_c, 0, 45, 101
2, 432614, Note_on_c, 0, 49, 100
2, 432632, Note_on_c, 0, 45, 0
2, 432655, Note_on_c, 0, 52, 94
2, 432667, Note_on_c, 0, 49, 0
2, 432684, Note_on_c, 0, 52, 0
2, 432689, Note_on_c, 0, 57, 89
2, 432712, Note_on_c, 0, 61, 88
2, 432721, Note_on_c, 0, 57, 0
2, 432730, Note_on_c, 0, 64, 73
2, 432738, Note_on_c, 0, 69, 75
2, 432745, Note_on_c, 0, 61, 0
2, 432752, Note_on_c, 0, 69, 0
2, 432762, Note_on_c, 0, 64, 0
2, 432771, Note_on_c, 0, 73, 79
2, 432775, Note_on_c, 0, 69, 82
2, 432796, Note_on_c, 0, 73, 0
2, 432814, Note_on_c, 0, 69, 0
2, 432827, Note_on_c, 0, 76, 87
2, 432841, Note_on_c, 0, 81, 91
2, 432848, Note_on_c, 0, 76, 0
2, 432855, Note_on_c, 0, 81, 0
2, 432880, Note_on_c, 0, 81, 96
2, 432919, Note_on_c, 0, 85, 98
2, 432919, Note_on_c, 0, 93, 93
2, 432976, Control_c, 0, 64, 0
2, 432999, Control_c, 0, 64, 127
2, 433055, Note_on_c, 0, 81, 0
2, 433061, Note_on_c, 0, 85, 0
2, 433136, Note_on_c, 0, 93, 0
2, 433251, Control_c, 0, 64, 0
2, 433287, Note_on_c, 0, 26, 107
2, 433287, Note_on_c, 0, 38, 108
2, 433312, Note_on_c, 0, 50, 107
2, 433312, Note_on_c, 0, 62, 108
2, 433336, Control_c, 0, 64, 127
2, 433347, Note_on_c, 0, 30, 103
2, 433347, Note_on_c, 0, 42, 101
2, 433353, Note_on_c, 0, 38, 0
2, 433357, Note_on_c, 0, 26, 0
2, 433359, Note_on_c, 0, 62, 0
2, 433369, Note_on_c, 0, 50, 0
2, 433369, Note_on_c, 0, 42, 0
2, 433380, Note_on_c, 0, 30, 0
2, 433380, Note_on_c, 0, 66, 80
2, 433382, Note_on_c, 0, 54, 94
2, 433403, Note_on_c, 0, 54, 0
2, 433403, Note_on_c, 0, 66, 0
2, 433405, Control_c, 0, 64, 0
2, 433413, Note_on_c, 0, 33, 90
2, 433413, Note_on_c, 0, 45, 89
2, 433447, Note_on_c, 0, 45, 0
2, 433447, Note_on_c, 0, 33, 0
2, 433449, Note_on_c, 0, 57, 85
2, 433455, Note_on_c, 0, 69, 81
2, 433473, Note_on_c, 0, 69, 0
2, 433475, Note_on_c, 0, 57, 0
2, 433489, Note_on_c, 0, 34, 81
2, 433489, Note_on_c, 0, 46, 79
2, 433504, Control_c, 0, 64, 127
2, 433516, Note_on_c, 0, 58, 80
2, 433516, Note_on_c, 0, 70, 81
2, 433520, Note_on_c, 0, 46, 0
2, 433524, Note_on_c, 0, 34, 0
2, 433549, Note_on_c, 0, 58, 0
2, 433549, Note_on_c, 0, 70, 0
2, 433561, Note_on_c, 0, 41, 80
2, 433563, Note_on_c, 0, 29, 80
2, 433586, Note_on_c, 0, 29, 0
2, 433586, Note_on_c, 0, 53, 80
2, 433586, Note_on_c, 0, 65, 80
2, 433595, Note_on_c, 0, 41, 0
2, 433611, Note_on_c, 0, 53, 0
2, 433618, Note_on_c, 0, 65, 0
2, 433628, Note_on_c, 0, 32, 80
2, 433630, Control_c, 0, 64, 0
2, 433630, Note_on_c, 0, 44, 80
2, 433659, Note_on_c, 0, 32, 0
2, 433659, Note_on_c, 0, 56, 80
2, 433661, Note_on_c, 0, 68, 80
2, 433665, Note_on_c, 0, 44, 0
2, 433681, Note_on_c, 0, 68, 0
2, 433681, Note_on_c, 0, 56, 0
2, 433702, Note_on_c, 0, 33, 79
2, 433704, Note_on_c, 0, 45, 81
2, 433727, Control_c, 0, 64, 127
2, 433738, Note_on_c, 0, 57, 80
2, 433738, Note_on_c, 0, 69, 85
2, 433744, Note_on_c, 0, 45, 0
2, 433744, Note_on_c, 0, 33, 0
2, 433763, Note_on_c, 0, 57, 0
2, 433767, Note_on_c, 0, 69, 0
2, 433785, Note_on_c, 0, 50, 80
2, 433787, Note_on_c, 0, 38, 80
2, 433810, Note_on_c, 0, 38, 0
2, 433816, Note_on_c, 0, 50, 0
2, 433820, Note_on_c, 0, 62, 80
2, 433820, Note_on_c, 0, 74, 81
2, 433845, Note_on_c, 0, 74, 0
2, 433845, Note_on_c, 0, 62, 0
2, 433854, Control_c, 0, 64, 0
2, 433866, Note_on_c, 0, 42, 80
2, 433866, Note_on_c, 0, 54, 80
2, 433889, Note_on_c, 0, 42, 0
2, 433891, Note_on_c, 0, 66, 80
2, 433891, Note_on_c, 0, 78, 81
2, 433898, Note_on_c, 0, 54, 0
2, 433917, Note_on_c, 0, 78, 0
2, 433917, Note_on_c, 0, 66, 0
2, 433928, Note_on_c, 0, 41, 80
2, 433928, Note_on_c, 0, 53, 81
2, 433946, Control_c, 0, 64, 127
2, 433955, Note_on_c, 0, 65, 80
2, 433955, Note_on_c, 0, 77, 81
2, 433960, Note_on_c, 0, 41, 0
2, 433962, Note_on_c, 0, 53, 0
2, 433977, Note_on_c, 0, 77, 0
2, 433981, Note_on_c, 0, 65, 0
2, 433993, Note_on_c, 0, 34, 80
2, 433993, Note_on_c, 0, 46, 80
2, 434016, Note_on_c, 0, 46, 0
2, 434016, Note_on_c, 0, 34, 0
2, 434027, Note_on_c, 0, 58, 79
2, 434027, Note_on_c, 0, 70, 81
2, 434045, Control_c, 0, 64, 0
2, 434049, Note_on_c, 0, 70, 0
2, 434053, Note_on_c, 0, 58, 0
2, 434061, Note_on_c, 0, 36, 80
2, 434063, Note_on_c, 0, 48, 80
2, 434084, Note_on_c, 0, 48, 0
2, 434084, Note_on_c, 0, 36, 0
2, 434086, Note_on_c, 0, 60, 79
2, 434086, Note_on_c, 0, 72, 81
2, 434113, Note_on_c, 0, 60, 0
2, 434120, Note_on_c, 0, 72, 0
2, 434126, Note_on_c, 0, 50, 83
2, 434128, Note_on_c, 0, 38, 84
2, 434131, Control_c, 0, 64, 127
2, 434150, Note_on_c, 0, 38, 0
2, 434158, Note_on_c, 0, 50, 0
2, 434162, Note_on_c, 0, 62, 81
2, 434162, Note_on_c, 0, 74, 85
2, 434181, Note_on_c, 0, 74, 0
2, 434181, Note_on_c, 0, 62, 0
2, 434185, Note_on_c, 0, 42, 81
2, 434185, Note_on_c, 0, 54, 82
2, 434219, Note_on_c, 0, 54, 0
2, 434219, Note_on_c, 0, 42, 0
2, 434219, Note_on_c, 0, 78, 87
2, 434221, Note_on_c, 0, 66, 87
2, 434244, Note_on_c, 0, 78, 0
2, 434246, Note_on_c, 0, 66, 0
2, 434254, Note_on_c, 0, 57, 86
2, 434256, Note_on_c, 0, 45, 87
2, 434279, Note_on_c, 0, 57, 0
2, 434281, Note_on_c, 0, 45, 0
2, 434292, Note_on_c, 0, 81, 91
2, 434296, Note_on_c, 0, 69, 89
2, 434315, Note_on_c, 0, 81, 0
2, 434317, Note_on_c, 0, 69, 0
2, 434325, Note_on_c, 0, 46, 82
2, 434325, Note_on_c, 0, 58, 81
2, 434350, Note_on_c, 0, 58, 0
2, 434352, Note_on_c, 0, 70, 89
2, 434352, Note_on_c, 0, 82, 91
2, 434359, Note_on_c, 0, 46, 0
2, 434373, Note_on_c, 0, 70, 0
2, 434377, Note_on_c, 0, 82, 0
2, 434390, Note_on_c, 0, 41, 86
2, 434390, Note_on_c, 0, 53, 87
2, 434415, Note_on_c, 0, 53, 0
2, 434415, Note_on_c, 0, 41, 0
2, 434425, Note_on_c, 0, 77, 89
2, 434427, Note_on_c, 0, 65, 88
2, 434443, Control_c, 0, 64, 0
2, 434449, Note_on_c, 0, 65, 0
2, 434449, Note_on_c, 0, 77, 0
2, 434462, Note_on_c, 0, 44, 88
2, 434462, Note_on_c, 0, 56, 88
2, 434485, Note_on_c, 0, 56, 0
2, 434487, Note_on_c, 0, 44, 0
2, 434490, Note_on_c, 0, 68, 88
2, 434490, Note_on_c, 0, 80, 89
2, 434513, Note_on_c, 0, 80, 0
2, 434513, Note_on_c, 0, 68, 0
2, 434524, Note_on_c, 0, 45, 83
2, 434524, Note_on_c, 0, 57, 81
2, 434535, Control_c, 0, 64, 127
2, 434551, Note_on_c, 0, 57, 0
2, 434551, Note_on_c, 0, 45, 0
2, 434560, Note_on_c, 0, 81, 93
2, 434561, Note_on_c, 0, 69, 92
2, 434583, Note_on_c, 0, 69, 0
2, 434584, Note_on_c, 0, 81, 0
2, 434603, Note_on_c, 0, 62, 85
2, 434608, Note_on_c, 0, 50, 86
2, 434628, Note_on_c, 0, 62, 0
2, 434634, Note_on_c, 0, 50, 0
2, 434647, Note_on_c, 0, 86, 96
2, 434649, Note_on_c, 0, 74, 95
2, 434670, Note_on_c, 0, 86, 0
2, 434672, Note_on_c, 0, 74, 0
2, 434682, Note_on_c, 0, 54, 88
2, 434682, Note_on_c, 0, 66, 88
2, 434707, Note_on_c, 0, 66, 0
2, 434709, Note_on_c, 0, 78, 89
2, 434709, Note_on_c, 0, 90, 91
2, 434716, Note_on_c, 0, 54, 0
2, 434728, Note_on_c, 0, 78, 0
2, 434741, Note_on_c, 0, 90, 0
2, 434743, Note_on_c, 0, 53, 83
2, 434743, Note_on_c, 0, 65, 87
2, 434768, Note_on_c, 0, 65, 0
2, 434775, Note_on_c, 0, 53, 0
2, 434780, Note_on_c, 0, 77, 85
2, 434780, Note_on_c, 0, 89, 86
2, 434800, Note_on_c, 0, 89, 0
2, 434801, Note_on_c, 0, 77, 0
2, 434816, Note_on_c, 0, 46, 80
2, 434816, Note_on_c, 0, 58, 80
2, 434837, Note_on_c, 0, 58, 0
2, 434837, Note_on_c, 0, 46, 0
2, 434849, Note_on_c, 0, 82, 83
2, 434851, Note_on_c, 0, 70, 81
2, 434864, Control_c, 0, 64, 0
2, 434871, Note_on_c, 0, 70, 0
2, 434871, Note_on_c, 0, 82, 0
2, 434876, Note_on_c, 0, 48, 80
2, 434876, Note_on_c, 0, 60, 80
2, 434899, Note_on_c, 0, 60, 0
2, 434899, Note_on_c, 0, 48, 0
2, 434910, Note_on_c, 0, 84, 83
2, 434914, Note_on_c, 0, 72, 81
2, 434933, Note_on_c, 0, 84, 0
2, 434935, Note_on_c, 0, 72, 0
2, 434945, Note_on_c, 0, 50, 84
2, 434945, Note_on_c, 0, 62, 85
2, 434954, Control_c, 0, 64, 127
2, 434970, Note_on_c, 0, 62, 0
2, 434979, Note_on_c, 0, 50, 0
2, 434979, Note_on_c, 0, 86, 87
2, 434983, Note_on_c, 0, 74, 86
2, 435004, Note_on_c, 0, 74, 0
2, 435004, Note_on_c, 0, 86, 0
2, 435015, Note_on_c, 0, 66, 87
2, 435016, Note_on_c, 0, 54, 88
2, 435040, Note_on_c, 0, 54, 0
2, 435040, Note_on_c, 0, 66, 0
2, 435050, Note_on_c, 0, 90, 90
2, 435052, Note_on_c, 0, 78, 89
2, 435075, Note_on_c, 0, 78, 0
2, 435086, Note_on_c, 0, 90, 0
2, 435088, Note_on_c, 0, 57, 88
2, 435088, Note_on_c, 0, 69, 89
2, 435109, Note_on_c, 0, 69, 0
2, 435109, Note_on_c, 0, 57, 0
2, 435121, Note_on_c, 0, 81, 90
2, 435121, Note_on_c, 0, 93, 91
2, 435142, Note_on_c, 0, 93, 0
2, 435142, Note_on_c, 0, 81, 0
2, 435155, Note_on_c, 0, 58, 88
2, 435155, Note_on_c, 0, 70, 89
2, 435176, Note_on_c, 0, 70, 0
2, 435176, Note_on_c, 0, 58, 0
2, 435180, Note_on_c, 0, 82, 90
2, 435180, Note_on_c, 0, 94, 91
2, 435205, Note_on_c, 0, 94, 0
2, 435205, Note_on_c, 0, 82, 0
2, 435217, Note_on_c, 0, 53, 88
2, 435217, Note_on_c, 0, 65, 88
2, 435240, Note_on_c, 0, 65, 0
2, 435240, Note_on_c, 0, 53, 0
2, 435249, Note_on_c, 0, 77, 88
2, 435249, Note_on_c, 0, 89, 91
2, 435276, Note_on_c, 0, 89, 0
2, 435276, Note_on_c, 0, 77, 0
2, 435284, Control_c, 0, 64, 0
2, 435284, Note_on_c, 0, 56, 88
2, 435286, Note_on_c, 0, 68, 88
2, 435307, Note_on_c, 0, 68, 0
2, 435307, Note_on_c, 0, 56, 0
2, 435316, Note_on_c, 0, 92, 91
2, 435322, Note_on_c, 0, 80, 90
2, 435341, Note_on_c, 0, 80, 0
2, 435352, Note_on_c, 0, 92, 0
2, 435355, Note_on_c, 0, 57, 93
2, 435355, Note_on_c, 0, 69, 95
2, 435362, Control_c, 0, 64, 127
2, 435378, Note_on_c, 0, 69, 0
2, 435382, Note_on_c, 0, 57, 0
2, 435382, Note_on_c, 0, 81, 100
2, 435382, Note_on_c, 0, 93, 99
2, 435405, Note_on_c, 0, 93, 0
2, 435405, Note_on_c, 0, 81, 0
2, 435420, Note_on_c, 0, 62, 96
2, 435420, Note_on_c, 0, 74, 98
2, 435439, Note_on_c, 0, 62, 0
2, 435443, Note_on_c, 0, 74, 0
2, 435453, Note_on_c, 0, 86, 100
2, 435453, Note_on_c, 0, 98, 103
2, 435480, Note_on_c, 0, 98, 0
2, 435482, Note_on_c, 0, 86, 0
2, 435489, Note_on_c, 0, 66, 97
2, 435491, Note_on_c, 0, 78, 98
2, 435512, Note_on_c, 0, 78, 0
2, 435514, Note_on_c, 0, 66, 0
2, 435524, Note_on_c, 0, 102, 103
2, 435528, Note_on_c, 0, 90, 100
2, 435551, Note_on_c, 0, 90, 0
2, 435551, Note_on_c, 0, 102, 0
2, 435562, Note_on_c, 0, 68, 97
2, 435562, Note_on_c, 0, 80, 99
2, 435585, Note_on_c, 0, 80, 0
2, 435585, Note_on_c, 0, 68, 0
2, 435589, Note_on_c, 0, 92, 99
2, 435592, Note_on_c, 0, 104, 103
2, 435612, Note_on_c, 0, 92, 0
2, 435614, Note_on_c, 0, 104, 0
2, 435622, Note_on_c, 0, 62, 96
2, 435626, Note_on_c, 0, 74, 99
2, 435647, Note_on_c, 0, 62, 0
2, 435651, Note_on_c, 0, 74, 0
2, 435660, Note_on_c, 0, 86, 104
2, 435660, Note_on_c, 0, 98, 108
2, 435685, Note_on_c, 0, 98, 0
2, 435685, Note_on_c, 0, 86, 0
2, 435695, Note_on_c, 0, 65, 106
2, 435695, Note_on_c, 0, 77, 108
2, 435718, Note_on_c, 0, 77, 0
2, 435720, Note_on_c, 0, 65, 0
2, 435720, Note_on_c, 0, 101, 113
2, 435722, Note_on_c, 0, 89, 109
2, 435729, Control_c, 0, 64, 0
2, 435745, Note_on_c, 0, 89, 0
2, 435745, Note_on_c, 0, 101, 0
2, 435770, Note_on_c, 0, 93, 108
2, 435772, Note_on_c, 0, 69, 104
2, 435772, Note_on_c, 0, 81, 105
2, 435772, Note_on_c, 0, 102, 107
2, 435779, Note_on_c, 0, 78, 101
2, 435835, Control_c, 0, 64, 127
2, 435880, Note_on_c, 0, 81, 0
2, 435888, Note_on_c, 0, 78, 0
2, 435897, Note_on_c, 0, 93, 0
2, 435897, Note_on_c, 0, 69, 0
2, 435916, Note_on_c, 0, 102, 0
2, 436046, Note_on_c, 0, 45, 105
2, 436046, Note_on_c, 0, 50, 98
2, 436046, Note_on_c, 0, 57, 97
2, 436046, Note_on_c, 0, 62, 98
2, 436048, Note_on_c, 0, 38, 97
2, 436077, Note_on_c, 0, 62, 0
2, 436077, Note_on_c, 0, 57, 0
2, 436201, Note_on_c, 0, 50, 0
2, 436210, Note_on_c, 0, 45, 0
2, 436237, Note_on_c, 0, 38, 0
2, 436373, Note_on_c, 0, 26, 95
2, 436373, Note_on_c, 0, 38, 98
2, 436373, Note_on_c, 0, 45, 97
2, 436373, Note_on_c, 0, 50, 98
2, 436380, Note_on_c, 0, 33, 97
2, 436411, Note_on_c, 0, 45, 0
2, 436420, Note_on_c, 0, 50, 0
2, 436535, Note_on_c, 0, 33, 0
2, 436535, Note_on_c, 0, 38, 0
2, 436539, Note_on_c, 0, 26, 0
2, 436799, Note_on_c, 0, 45, 99
2, 436799, Note_on_c, 0, 54, 108
2, 436799, Note_on_c, 0, 57, 107
2, 436799, Note_on_c, 0, 62, 108
2, 436799, Note_on_c, 0, 66, 108
2, 436799, Note_on_c, 0, 69, 108
2, 436799, Note_on_c, 0, 74, 109
2, 436806, Note_on_c, 0, 50, 107
2, 436856, Note_on_c, 0, 66, 0
2, 436856, Note_on_c, 0, 62, 0
2, 436856, Note_on_c, 0, 57, 0
2, 436864, Note_on_c, 0, 69, 0
2, 436889, Note_on_c, 0, 74, 0
2, 436909, Note_on_c, 0, 45, 0
2, 436926, Note_on_c, 0, 50, 0
2, 436935, Note_on_c, 0, 54, 0
2, 437085, Note_on_c, 0, 69, 86
2, 437184, Note_on_c, 0, 74, 80
2, 437190, Note_on_c, 0, 69, 0
2, 437209, Note_on_c, 0, 78, 81
2, 437236, Note_on_c, 0, 74, 0
2, 437238, Note_on_c, 0, 81, 85
2, 437254, Note_on_c, 0, 78, 0
2, 437273, Note_on_c, 0, 81, 0
2, 437279, Note_on_c, 0, 86, 80
2, 437644, Note_on_c, 0, 90, 79
2, 437655, Note_on_c, 0, 93, 114
2, 437658, Note_on_c, 0, 98, 117
2, 437662, Note_on_c, 0, 86, 0
2, 437662, Note_on_c, 0, 102, 118
2, 437671, Note_on_c, 0, 90, 0
2, 437671, Note_on_c, 0, 93, 0
2, 437687, Note_on_c, 0, 86, 110
2, 437687, Note_on_c, 0, 90, 108
2, 437687, Note_on_c, 0, 93, 107
2, 437719, Note_on_c, 0, 93, 0
2, 437719, Note_on_c, 0, 86, 0
2, 437725, Note_on_c, 0, 102, 0
2, 437725, Note_on_c, 0, 98, 0
2, 437725, Note_on_c, 0, 90, 0
2, 438510, Control_c, 0, 64, 0
2, 439010, Note_on_c, 0, 0, 6
2, 439010, Note_on_c, 0, 0, 0
2, 439010, End_track
3, 0, Start_track
3, 0, Title_t, "c/b Tchaikowsky"
3, 0, End_track
4, 0, Start_track
4, 0, Title_t, "p/b Percy Grainger"
4, 0, End_track
5, 0, Start_track
5, 0, Title_t, "Duo-Art # 308 and 270"
5, 0, End_track
6, 0, Start_track
6, 0, Title_t, "Scan of a player piano roll"
6, 0, End_track
7, 0, Start_track
7, 0, Title_t, "by Terry Smythe, Winnipeg, Canada"
7, 0, End_track
8, 0, Start_track
8, 0, Title_t, "Arab Dance, Chinese Dance"
8, 0, End_track
9, 0, Start_track
9, 0, Title_t, "Dance of the Reed Flutes, March"
9, 0, End_track
10, 0, Start_track
10, 0, Title_t, "Dance of the Candy Fairy"
10, 0, End_track
11, 0, Start_track
11, 0, Title_t, "Russian Dance ""Trepak"""
11, 0, End_track
12, 0, Start_track
12, 0, Title_t, "Waltz of the Flowers"
12, 0, End_track
0, 0, End_of_file
