0, 0, Header, 0, 1, 384
1, 0, Start_track
1, 0, Title_t, "Andante Maestoso--Anna Denisova    "
1, 0, Copyright_t, "Adaptation for Disklavier pianos, by: Robert C. Kuhmann (c) 2012."
1, 0, Text_t, "2008 e-Piano Junior Competition virtual audition round\012"
1, 0, Text_t, "recorded January and February 2008\012"
1, 0, Text_t, "http://www.piano-e-competition.com/\012"
1, 0, Text_t, "File processed for distribution by software from Zenph Studios, Inc., http://www.zenph.com\012"
1, 0, System_exclusive, 21, 67, 113, 126, 21, 0, 2, 2, 1, 9, 2, 9, 4, 7, 10, 3, 0, 5, 3, 12, 5, 247
1, 1, System_exclusive, 5, 126, 127, 9, 1, 247
1, 2, System_exclusive, 8, 67, 16, 76, 0, 0, 126, 0, 247
1, 3, System_exclusive, 8, 67, 16, 76, 8, 9, 7, 1, 247
1, 3, Time_signature, 4, 2, 24, 8
1, 3, Key_signature, 0, "major"
1, 3, Tempo, 600000
1, 6, Tempo, 512821
1, 6, Sequencer_specific, 39, 67, 113, 0, 1, 0, 1, 0, 65, 110, 100, 97, 110, 116, 101, 32, 77, 97, 101, 115, 116, 111, 115, 111, 65, 110, 110, 97, 32, 68, 101, 110, 105, 115, 111, 118, 97, 32, 32, 32
1, 6, Sequencer_specific, 6, 67, 113, 0, 0, 0, 69
1, 6, Sequencer_specific, 5, 67, 123, 12, 2, 1
1, 123, Control_c, 0, 64, 15
1, 123, Control_c, 0, 67, 15
1, 235, Control_c, 0, 64, 31
1, 235, Control_c, 0, 67, 30
1, 347, Control_c, 0, 64, 46
1, 347, Control_c, 0, 67, 45
1, 387, Control_c, 0, 0, 0
1, 387, Control_c, 0, 32, 0
1, 388, Program_c, 0, 0
1, 388, Control_c, 0, 7, 115
1, 458, Control_c, 0, 64, 63
1, 458, Control_c, 0, 67, 61
1, 570, Control_c, 0, 64, 77
1, 570, Control_c, 0, 67, 75
1, 682, Control_c, 0, 64, 94
1, 682, Control_c, 0, 67, 91
1, 793, Control_c, 0, 64, 108
1, 793, Control_c, 0, 67, 105
1, 905, Control_c, 0, 64, 127
1, 905, Control_c, 0, 67, 123
1, 1542, Marker_t, "Yamaha Disklavier Pro Mark IV concert grand piano, model DCFIIISM4PRO"
1, 2675, Note_on_c, 0, 43, 35
1, 2718, Control_c, 0, 67, 122
1, 2781, Note_on_c, 0, 43, 0
1, 2808, Note_on_c, 0, 50, 48
1, 3015, Control_c, 0, 67, 122
1, 3046, Note_on_c, 0, 59, 34
1, 3046, Note_on_c, 0, 67, 47
1, 3231, Note_on_c, 0, 67, 0
1, 3242, Note_on_c, 0, 71, 55
1, 3265, Note_on_c, 0, 62, 37
1, 3325, Note_on_c, 0, 50, 0
1, 3341, Note_on_c, 0, 59, 0
1, 3356, Note_on_c, 0, 71, 0
1, 3361, Note_on_c, 0, 62, 0
1, 3403, Note_on_c, 0, 67, 49
1, 3404, Note_on_c, 0, 74, 50
1, 3423, Control_c, 0, 67, 122
1, 3428, Note_on_c, 0, 67, 0
1, 3437, Note_on_c, 0, 74, 0
1, 3585, Note_on_c, 0, 71, 29
1, 3619, Poly_aftertouch_c, 0, 79, 127
1, 3622, Note_on_c, 0, 71, 0
1, 3694, Poly_aftertouch_c, 0, 79, 0
1, 3702, Note_on_c, 0, 83, 60
1, 3721, Note_on_c, 0, 74, 26
1, 3743, Note_on_c, 0, 83, 0
1, 3757, Note_on_c, 0, 74, 0
1, 3794, Control_c, 0, 67, 122
1, 3839, Control_c, 0, 67, 122
1, 3864, Note_on_c, 0, 62, 49
1, 3867, Note_on_c, 0, 86, 59
1, 3881, Note_on_c, 0, 79, 41
1, 3908, Note_on_c, 0, 79, 0
1, 3912, Note_on_c, 0, 86, 0
1, 3920, Control_c, 0, 67, 122
1, 3959, Note_on_c, 0, 67, 42
1, 4039, Note_on_c, 0, 91, 63
1, 4042, Note_on_c, 0, 71, 49
1, 4053, Control_c, 0, 67, 122
1, 4054, Note_on_c, 0, 83, 58
1, 4104, Note_on_c, 0, 91, 0
1, 4133, Note_on_c, 0, 83, 0
1, 4170, Note_on_c, 0, 86, 47
1, 4175, Note_on_c, 0, 79, 56
1, 4191, Note_on_c, 0, 86, 0
1, 4194, Note_on_c, 0, 71, 0
1, 4222, Note_on_c, 0, 79, 0
1, 4247, Note_on_c, 0, 62, 0
1, 4290, Note_on_c, 0, 67, 0
1, 4323, Note_on_c, 0, 83, 54
1, 4338, Note_on_c, 0, 74, 51
1, 4387, Note_on_c, 0, 83, 0
1, 4408, Control_c, 0, 67, 123
1, 4446, Note_on_c, 0, 74, 0
1, 4453, Note_on_c, 0, 79, 55
1, 4459, Note_on_c, 0, 71, 53
1, 4472, Note_on_c, 0, 79, 0
1, 4515, Note_on_c, 0, 71, 0
1, 4526, Control_c, 0, 67, 122
1, 4602, Note_on_c, 0, 74, 53
1, 4626, Note_on_c, 0, 67, 55
1, 4722, Note_on_c, 0, 40, 54
1, 4731, Note_on_c, 0, 74, 0
1, 4745, Note_on_c, 0, 71, 60
1, 4760, Note_on_c, 0, 62, 51
1, 4773, Note_on_c, 0, 40, 0
1, 4775, Note_on_c, 0, 67, 0
1, 4808, Note_on_c, 0, 47, 52
1, 4893, Note_on_c, 0, 62, 0
1, 4918, Control_c, 0, 67, 123
1, 4933, Control_c, 0, 67, 124
1, 4948, Note_on_c, 0, 71, 0
1, 4948, Control_c, 0, 64, 114
1, 4948, Control_c, 0, 67, 125
1, 4949, Note_on_c, 0, 67, 66
1, 4960, Note_on_c, 0, 55, 51
1, 4963, Control_c, 0, 64, 86
1, 4963, Control_c, 0, 67, 126
1, 4979, Control_c, 0, 64, 67
1, 4979, Control_c, 0, 67, 127
1, 4994, Control_c, 0, 64, 44
1, 5009, Control_c, 0, 64, 0
1, 5038, Control_c, 0, 64, 11
1, 5053, Control_c, 0, 64, 44
1, 5068, Control_c, 0, 64, 61
1, 5083, Control_c, 0, 64, 71
1, 5097, Control_c, 0, 64, 84
1, 5097, Control_c, 0, 67, 126
1, 5099, Note_on_c, 0, 67, 0
1, 5112, Control_c, 0, 64, 105
1, 5112, Control_c, 0, 67, 126
1, 5114, Note_on_c, 0, 71, 61
1, 5127, Note_on_c, 0, 64, 51
1, 5127, Control_c, 0, 64, 127
1, 5127, Control_c, 0, 67, 125
1, 5142, Control_c, 0, 67, 124
1, 5172, Control_c, 0, 67, 123
1, 5176, Note_on_c, 0, 64, 0
1, 5187, Control_c, 0, 67, 123
1, 5189, Note_on_c, 0, 47, 0
1, 5216, Note_on_c, 0, 55, 0
1, 5216, Control_c, 0, 67, 122
1, 5218, Note_on_c, 0, 71, 0
1, 5249, Note_on_c, 0, 67, 48
1, 5249, Note_on_c, 0, 76, 63
1, 5274, Note_on_c, 0, 67, 0
1, 5282, Note_on_c, 0, 76, 0
1, 5356, Control_c, 0, 67, 123
1, 5395, Note_on_c, 0, 79, 60
1, 5395, Note_on_c, 0, 71, 53
1, 5401, Control_c, 0, 67, 122
1, 5461, Note_on_c, 0, 71, 0
1, 5475, Control_c, 0, 67, 123
1, 5526, Note_on_c, 0, 83, 64
1, 5532, Note_on_c, 0, 79, 0
1, 5539, Note_on_c, 0, 76, 39
1, 5564, Note_on_c, 0, 83, 0
1, 5568, Note_on_c, 0, 76, 0
1, 5637, Note_on_c, 0, 59, 46
1, 5670, Note_on_c, 0, 88, 60
1, 5673, Note_on_c, 0, 79, 50
1, 5697, Control_c, 0, 67, 122
1, 5698, Note_on_c, 0, 79, 0
1, 5721, Note_on_c, 0, 64, 49
1, 5722, Note_on_c, 0, 88, 0
1, 5756, Control_c, 0, 67, 123
1, 5802, Control_c, 0, 67, 122
1, 5816, Note_on_c, 0, 67, 55
1, 5822, Note_on_c, 0, 91, 69
1, 5839, Note_on_c, 0, 83, 51
1, 5846, Control_c, 0, 67, 123
1, 5883, Note_on_c, 0, 91, 0
1, 5912, Note_on_c, 0, 83, 0
1, 5956, Note_on_c, 0, 88, 37
1, 5959, Note_on_c, 0, 79, 53
1, 5985, Note_on_c, 0, 88, 0
1, 5992, Note_on_c, 0, 79, 0
1, 6012, Note_on_c, 0, 59, 0
1, 6019, Note_on_c, 0, 67, 0
1, 6054, Control_c, 0, 67, 123
1, 6084, Note_on_c, 0, 83, 57
1, 6085, Note_on_c, 0, 64, 0
1, 6129, Note_on_c, 0, 76, 36
1, 6209, Control_c, 0, 67, 124
1, 6218, Note_on_c, 0, 83, 0
1, 6229, Note_on_c, 0, 76, 0
1, 6230, Note_on_c, 0, 79, 57
1, 6240, Note_on_c, 0, 71, 54
1, 6250, Note_on_c, 0, 79, 0
1, 6289, Note_on_c, 0, 71, 0
1, 6364, Note_on_c, 0, 76, 58
1, 6387, Control_c, 0, 67, 123
1, 6388, Note_on_c, 0, 67, 59
1, 6475, Note_on_c, 0, 76, 0
1, 6488, Note_on_c, 0, 36, 54
1, 6505, Note_on_c, 0, 67, 0
1, 6514, Note_on_c, 0, 71, 55
1, 6519, Note_on_c, 0, 64, 53
1, 6546, Note_on_c, 0, 36, 0
1, 6573, Note_on_c, 0, 45, 59
1, 6575, Note_on_c, 0, 64, 0
1, 6583, Note_on_c, 0, 71, 0
1, 6716, Note_on_c, 0, 64, 68
1, 6729, Control_c, 0, 67, 124
1, 6743, Note_on_c, 0, 52, 45
1, 6759, Control_c, 0, 67, 125
1, 6774, Control_c, 0, 67, 126
1, 6788, Control_c, 0, 64, 96
1, 6788, Control_c, 0, 67, 127
1, 6803, Control_c, 0, 64, 73
1, 6818, Control_c, 0, 64, 54
1, 6833, Control_c, 0, 64, 19
1, 6856, Control_c, 0, 64, 0
1, 6870, Control_c, 0, 64, 27
1, 6885, Control_c, 0, 64, 50
1, 6900, Control_c, 0, 64, 64
1, 6915, Note_on_c, 0, 64, 0
1, 6915, Control_c, 0, 64, 75
1, 6924, Note_on_c, 0, 69, 55
1, 6927, Note_on_c, 0, 60, 49
1, 6929, Control_c, 0, 64, 103
1, 6944, Control_c, 0, 64, 127
1, 6944, Control_c, 0, 67, 126
1, 6959, Control_c, 0, 67, 125
1, 6974, Control_c, 0, 67, 125
1, 6981, Note_on_c, 0, 60, 0
1, 6998, Note_on_c, 0, 45, 0
1, 7003, Control_c, 0, 67, 124
1, 7028, Note_on_c, 0, 52, 0
1, 7037, Note_on_c, 0, 69, 0
1, 7054, Note_on_c, 0, 72, 62
1, 7058, Note_on_c, 0, 64, 46
1, 7085, Note_on_c, 0, 64, 0
1, 7096, Note_on_c, 0, 72, 0
1, 7121, Control_c, 0, 67, 123
1, 7190, Note_on_c, 0, 76, 61
1, 7197, Note_on_c, 0, 69, 50
1, 7232, Note_on_c, 0, 69, 0
1, 7238, Note_on_c, 0, 76, 0
1, 7314, Note_on_c, 0, 81, 61
1, 7343, Note_on_c, 0, 81, 0
1, 7394, Poly_aftertouch_c, 0, 72, 0
1, 7425, Note_on_c, 0, 60, 47
1, 7449, Note_on_c, 0, 76, 54
1, 7452, Note_on_c, 0, 84, 51
1, 7480, Note_on_c, 0, 76, 0
1, 7499, Note_on_c, 0, 64, 46
1, 7510, Note_on_c, 0, 84, 0
1, 7613, Note_on_c, 0, 88, 61
1, 7619, Note_on_c, 0, 69, 39
1, 7626, Note_on_c, 0, 81, 48
1, 7676, Note_on_c, 0, 88, 0
1, 7680, Note_on_c, 0, 81, 0
1, 7738, Note_on_c, 0, 84, 53
1, 7741, Note_on_c, 0, 76, 57
1, 7751, Control_c, 0, 67, 124
1, 7756, Note_on_c, 0, 84, 0
1, 7786, Note_on_c, 0, 76, 0
1, 7792, Note_on_c, 0, 69, 0
1, 7848, Note_on_c, 0, 60, 0
1, 7881, Note_on_c, 0, 64, 0
1, 7884, Note_on_c, 0, 81, 59
1, 7899, Control_c, 0, 67, 124
1, 7901, Note_on_c, 0, 72, 52
1, 7950, Note_on_c, 0, 81, 0
1, 7995, Note_on_c, 0, 72, 0
1, 8009, Note_on_c, 0, 76, 57
1, 8014, Note_on_c, 0, 69, 52
1, 8036, Note_on_c, 0, 76, 0
1, 8064, Note_on_c, 0, 69, 0
1, 8152, Note_on_c, 0, 72, 47
1, 8176, Note_on_c, 0, 64, 51
1, 8209, Note_on_c, 0, 72, 0
1, 8242, Note_on_c, 0, 64, 0
1, 8264, Note_on_c, 0, 38, 55
1, 8288, Note_on_c, 0, 69, 48
1, 8291, Note_on_c, 0, 60, 53
1, 8319, Note_on_c, 0, 38, 0
1, 8348, Note_on_c, 0, 60, 0
1, 8352, Control_c, 0, 67, 124
1, 8368, Note_on_c, 0, 45, 51
1, 8486, Control_c, 0, 67, 124
1, 8500, Note_on_c, 0, 62, 62
1, 8500, Control_c, 0, 67, 125
1, 8515, Control_c, 0, 67, 125
1, 8521, Note_on_c, 0, 54, 44
1, 8530, Control_c, 0, 67, 126
1, 8545, Control_c, 0, 64, 91
1, 8545, Control_c, 0, 67, 127
1, 8549, Note_on_c, 0, 69, 0
1, 8560, Control_c, 0, 64, 69
1, 8560, Control_c, 0, 67, 127
1, 8574, Control_c, 0, 64, 50
1, 8589, Control_c, 0, 64, 0
1, 8594, Poly_aftertouch_c, 0, 69, 0
1, 8618, Control_c, 0, 64, 20
1, 8633, Control_c, 0, 64, 50
1, 8648, Control_c, 0, 64, 66
1, 8660, Note_on_c, 0, 62, 0
1, 8663, Control_c, 0, 64, 74
1, 8669, Note_on_c, 0, 66, 63
1, 8678, Control_c, 0, 64, 84
1, 8692, Control_c, 0, 64, 95
1, 8692, Control_c, 0, 67, 127
1, 8707, Control_c, 0, 64, 104
1, 8707, Control_c, 0, 67, 126
1, 8722, Control_c, 0, 64, 114
1, 8722, Control_c, 0, 67, 126
1, 8737, Control_c, 0, 64, 127
1, 8737, Control_c, 0, 67, 125
1, 8744, Note_on_c, 0, 45, 0
1, 8752, Control_c, 0, 67, 125
1, 8768, Note_on_c, 0, 66, 0
1, 8782, Control_c, 0, 67, 124
1, 8788, Note_on_c, 0, 62, 53
1, 8803, Note_on_c, 0, 69, 55
1, 8811, Note_on_c, 0, 54, 0
1, 8811, Control_c, 0, 67, 124
1, 8835, Note_on_c, 0, 62, 0
1, 8855, Note_on_c, 0, 69, 0
1, 8906, Note_on_c, 0, 66, 51
1, 8908, Note_on_c, 0, 74, 56
1, 8932, Note_on_c, 0, 66, 0
1, 8936, Note_on_c, 0, 74, 0
1, 9055, Note_on_c, 0, 78, 56
1, 9064, Note_on_c, 0, 69, 37
1, 9079, Note_on_c, 0, 78, 0
1, 9101, Note_on_c, 0, 69, 0
1, 9160, Control_c, 0, 67, 124
1, 9175, Note_on_c, 0, 81, 65
1, 9188, Note_on_c, 0, 57, 50
1, 9204, Note_on_c, 0, 81, 0
1, 9205, Note_on_c, 0, 74, 27
1, 9234, Control_c, 0, 67, 124
1, 9241, Note_on_c, 0, 74, 0
1, 9270, Note_on_c, 0, 62, 44
1, 9308, Control_c, 0, 67, 124
1, 9336, Note_on_c, 0, 86, 64
1, 9360, Note_on_c, 0, 78, 52
1, 9366, Note_on_c, 0, 66, 42
1, 9387, Note_on_c, 0, 86, 0
1, 9402, Note_on_c, 0, 78, 0
1, 9464, Note_on_c, 0, 74, 55
1, 9464, Note_on_c, 0, 81, 57
1, 9494, Note_on_c, 0, 74, 0
1, 9500, Note_on_c, 0, 57, 0
1, 9506, Note_on_c, 0, 81, 0
1, 9511, Note_on_c, 0, 66, 0
1, 9516, Control_c, 0, 67, 125
1, 9564, Note_on_c, 0, 62, 0
1, 9601, Note_on_c, 0, 78, 60
1, 9625, Note_on_c, 0, 69, 51
1, 9629, Note_on_c, 0, 78, 0
1, 9652, Note_on_c, 0, 69, 0
1, 9679, Control_c, 0, 67, 125
1, 9738, Note_on_c, 0, 74, 61
1, 9754, Note_on_c, 0, 66, 53
1, 9777, Note_on_c, 0, 74, 0
1, 9789, Note_on_c, 0, 66, 0
1, 9890, Note_on_c, 0, 69, 57
1, 9905, Note_on_c, 0, 62, 48
1, 9910, Control_c, 0, 67, 125
1, 9950, Note_on_c, 0, 62, 0
1, 10001, Note_on_c, 0, 43, 51
1, 10012, Note_on_c, 0, 69, 0
1, 10025, Note_on_c, 0, 66, 55
1, 10066, Note_on_c, 0, 43, 0
1, 10093, Note_on_c, 0, 50, 52
1, 10221, Control_c, 0, 67, 125
1, 10236, Control_c, 0, 67, 126
1, 10250, Note_on_c, 0, 62, 59
1, 10251, Control_c, 0, 67, 126
1, 10255, Note_on_c, 0, 59, 41
1, 10265, Control_c, 0, 64, 88
1, 10265, Control_c, 0, 67, 127
1, 10272, Note_on_c, 0, 66, 0
1, 10280, Control_c, 0, 64, 64
1, 10295, Control_c, 0, 64, 42
1, 10310, Control_c, 0, 64, 19
1, 10325, Control_c, 0, 64, 30
1, 10340, Control_c, 0, 64, 48
1, 10355, Control_c, 0, 64, 62
1, 10370, Control_c, 0, 64, 71
1, 10384, Control_c, 0, 64, 82
1, 10399, Control_c, 0, 64, 94
1, 10399, Control_c, 0, 67, 127
1, 10400, Note_on_c, 0, 62, 0
1, 10414, Control_c, 0, 64, 106
1, 10414, Control_c, 0, 67, 126
1, 10419, Note_on_c, 0, 67, 55
1, 10421, Note_on_c, 0, 59, 0
1, 10429, Control_c, 0, 64, 127
1, 10429, Control_c, 0, 67, 126
1, 10444, Control_c, 0, 67, 125
1, 10453, Note_on_c, 0, 50, 0
1, 10457, Poly_aftertouch_c, 0, 59, 127
1, 10458, Control_c, 0, 67, 125
1, 10487, Poly_aftertouch_c, 0, 59, 0
1, 10503, Control_c, 0, 67, 124
1, 10522, Note_on_c, 0, 67, 0
1, 10546, Note_on_c, 0, 71, 60
1, 10554, Note_on_c, 0, 62, 39
1, 10579, Note_on_c, 0, 71, 0
1, 10589, Note_on_c, 0, 62, 0
1, 10690, Note_on_c, 0, 74, 58
1, 10692, Note_on_c, 0, 67, 49
1, 10722, Note_on_c, 0, 67, 0
1, 10731, Note_on_c, 0, 74, 0
1, 10813, Note_on_c, 0, 79, 55
1, 10814, Note_on_c, 0, 71, 44
1, 10838, Note_on_c, 0, 71, 0
1, 10845, Note_on_c, 0, 79, 0
1, 10933, Note_on_c, 0, 62, 51
1, 10946, Note_on_c, 0, 83, 59
1, 10948, Note_on_c, 0, 74, 52
1, 10974, Note_on_c, 0, 74, 0
1, 10995, Note_on_c, 0, 83, 0
1, 11011, Note_on_c, 0, 67, 43
1, 11100, Note_on_c, 0, 71, 51
1, 11104, Note_on_c, 0, 86, 62
1, 11122, Note_on_c, 0, 79, 46
1, 11173, Note_on_c, 0, 79, 0
1, 11179, Note_on_c, 0, 86, 0
1, 11196, Note_on_c, 0, 71, 0
1, 11207, Control_c, 0, 67, 125
1, 11220, Note_on_c, 0, 83, 54
1, 11223, Note_on_c, 0, 62, 0
1, 11228, Note_on_c, 0, 74, 52
1, 11238, Note_on_c, 0, 83, 0
1, 11265, Note_on_c, 0, 74, 0
1, 11284, Note_on_c, 0, 67, 0
1, 11371, Note_on_c, 0, 79, 60
1, 11383, Note_on_c, 0, 71, 52
1, 11459, Note_on_c, 0, 79, 0
1, 11464, Note_on_c, 0, 71, 0
1, 11497, Note_on_c, 0, 74, 55
1, 11504, Note_on_c, 0, 67, 59
1, 11524, Note_on_c, 0, 74, 0
1, 11551, Note_on_c, 0, 67, 0
1, 11631, Note_on_c, 0, 71, 57
1, 11645, Note_on_c, 0, 62, 61
1, 11719, Control_c, 0, 67, 124
1, 11728, Note_on_c, 0, 40, 57
1, 11733, Note_on_c, 0, 62, 0
1, 11747, Note_on_c, 0, 71, 0
1, 11763, Note_on_c, 0, 67, 59
1, 11764, Note_on_c, 0, 59, 57
1, 11804, Note_on_c, 0, 40, 0
1, 11823, Note_on_c, 0, 47, 57
1, 11904, Note_on_c, 0, 59, 0
1, 11911, Control_c, 0, 67, 125
1, 11929, Note_on_c, 0, 67, 0
1, 11935, Note_on_c, 0, 64, 70
1, 11941, Control_c, 0, 67, 125
1, 11955, Control_c, 0, 64, 102
1, 11955, Control_c, 0, 67, 126
1, 11963, Note_on_c, 0, 55, 54
1, 11970, Control_c, 0, 64, 76
1, 11970, Control_c, 0, 67, 127
1, 11985, Control_c, 0, 64, 60
1, 11985, Control_c, 0, 67, 127
1, 12000, Control_c, 0, 64, 35
1, 12015, Control_c, 0, 64, 0
1, 12044, Control_c, 0, 64, 41
1, 12059, Control_c, 0, 64, 60
1, 12074, Control_c, 0, 64, 69
1, 12074, Control_c, 0, 67, 127
1, 12096, Control_c, 0, 64, 78
1, 12111, Control_c, 0, 64, 91
1, 12121, Note_on_c, 0, 59, 53
1, 12121, Note_on_c, 0, 67, 58
1, 12126, Control_c, 0, 64, 110
1, 12126, Control_c, 0, 67, 126
1, 12135, Note_on_c, 0, 64, 0
1, 12141, Control_c, 0, 64, 127
1, 12141, Control_c, 0, 67, 126
1, 12156, Control_c, 0, 67, 125
1, 12186, Control_c, 0, 67, 125
1, 12195, Note_on_c, 0, 59, 0
1, 12212, Note_on_c, 0, 47, 0
1, 12214, Note_on_c, 0, 55, 0
1, 12232, Note_on_c, 0, 67, 0
1, 12257, Note_on_c, 0, 71, 58
1, 12274, Note_on_c, 0, 64, 46
1, 12291, Note_on_c, 0, 71, 0
1, 12305, Note_on_c, 0, 64, 0
1, 12382, Note_on_c, 0, 76, 68
1, 12389, Note_on_c, 0, 67, 55
1, 12408, Control_c, 0, 67, 124
1, 12424, Note_on_c, 0, 67, 0
1, 12470, Note_on_c, 0, 76, 0
1, 12508, Note_on_c, 0, 79, 59
1, 12521, Note_on_c, 0, 71, 37
1, 12543, Note_on_c, 0, 79, 0
1, 12548, Note_on_c, 0, 71, 0
1, 12615, Note_on_c, 0, 59, 44
1, 12637, Note_on_c, 0, 83, 61
1, 12642, Note_on_c, 0, 76, 52
1, 12677, Note_on_c, 0, 76, 0
1, 12689, Control_c, 0, 67, 124
1, 12713, Note_on_c, 0, 83, 0
1, 12713, Note_on_c, 0, 64, 49
1, 12793, Note_on_c, 0, 88, 69
1, 12812, Note_on_c, 0, 67, 50
1, 12813, Note_on_c, 0, 79, 48
1, 12871, Note_on_c, 0, 88, 0
1, 12928, Note_on_c, 0, 59, 0
1, 12934, Note_on_c, 0, 83, 51
1, 12935, Note_on_c, 0, 76, 56
1, 12943, Note_on_c, 0, 79, 0
1, 12956, Note_on_c, 0, 83, 0
1, 12970, Note_on_c, 0, 67, 0
1, 12977, Note_on_c, 0, 76, 0
1, 13023, Control_c, 0, 67, 124
1, 13026, Note_on_c, 0, 64, 0
1, 13077, Note_on_c, 0, 79, 50
1, 13089, Note_on_c, 0, 71, 56
1, 13116, Note_on_c, 0, 79, 0
1, 13202, Control_c, 0, 67, 124
1, 13212, Note_on_c, 0, 76, 46
1, 13218, Note_on_c, 0, 67, 55
1, 13220, Note_on_c, 0, 71, 0
1, 13238, Note_on_c, 0, 76, 0
1, 13268, Note_on_c, 0, 67, 0
1, 13305, Control_c, 0, 67, 123
1, 13320, Control_c, 0, 67, 122
1, 13335, Control_c, 0, 67, 120
1, 13350, Control_c, 0, 67, 116
1, 13360, Note_on_c, 0, 71, 49
1, 13365, Control_c, 0, 67, 109
1, 13375, Note_on_c, 0, 64, 60
1, 13380, Control_c, 0, 67, 99
1, 13395, Control_c, 0, 67, 89
1, 13409, Control_c, 0, 67, 75
1, 13420, Note_on_c, 0, 64, 0
1, 13420, Note_on_c, 0, 71, 0
1, 13424, Control_c, 0, 67, 57
1, 13439, Control_c, 0, 67, 36
1, 13454, Control_c, 0, 67, 14
1, 13469, Control_c, 0, 67, 0
1, 13489, Note_on_c, 0, 67, 61
1, 13500, Note_on_c, 0, 59, 51
1, 13526, Note_on_c, 0, 59, 0
1, 13548, Note_on_c, 0, 67, 0
1, 13566, Note_on_c, 0, 36, 55
1, 13674, Note_on_c, 0, 36, 0
1, 13676, Note_on_c, 0, 45, 64
1, 13950, Note_on_c, 0, 67, 74
1, 13975, Note_on_c, 0, 52, 43
1, 14025, Control_c, 0, 64, 90
1, 14040, Control_c, 0, 64, 69
1, 14055, Control_c, 0, 64, 48
1, 14070, Control_c, 0, 64, 0
1, 14099, Control_c, 0, 64, 26
1, 14114, Control_c, 0, 64, 53
1, 14129, Control_c, 0, 64, 66
1, 14144, Control_c, 0, 64, 76
1, 14158, Control_c, 0, 64, 94
1, 14173, Control_c, 0, 64, 127
1, 14185, Note_on_c, 0, 69, 57
1, 14190, Note_on_c, 0, 60, 49
1, 14237, Note_on_c, 0, 60, 0
1, 14239, Note_on_c, 0, 67, 0
1, 14291, Note_on_c, 0, 45, 0
1, 14292, Note_on_c, 0, 69, 0
1, 14306, Note_on_c, 0, 72, 56
1, 14313, Note_on_c, 0, 52, 0
1, 14319, Note_on_c, 0, 64, 46
1, 14353, Note_on_c, 0, 64, 0
1, 14378, Note_on_c, 0, 72, 0
1, 14470, Note_on_c, 0, 76, 62
1, 14481, Note_on_c, 0, 69, 41
1, 14505, Note_on_c, 0, 76, 0
1, 14511, Note_on_c, 0, 69, 0
1, 14586, Note_on_c, 0, 81, 55
1, 14593, Note_on_c, 0, 72, 39
1, 14621, Note_on_c, 0, 72, 0
1, 14621, Note_on_c, 0, 81, 0
1, 14722, Note_on_c, 0, 84, 58
1, 14724, Note_on_c, 0, 76, 48
1, 14757, Note_on_c, 0, 76, 0
1, 14797, Note_on_c, 0, 84, 0
1, 14881, Note_on_c, 0, 66, 70
1, 14883, Note_on_c, 0, 88, 53
1, 14897, Note_on_c, 0, 60, 53
1, 14902, Note_on_c, 0, 81, 42
1, 14907, Note_on_c, 0, 57, 43
1, 14970, Note_on_c, 0, 88, 0
1, 14979, Note_on_c, 0, 81, 0
1, 15022, Note_on_c, 0, 76, 56
1, 15024, Note_on_c, 0, 84, 44
1, 15046, Note_on_c, 0, 84, 0
1, 15067, Note_on_c, 0, 76, 0
1, 15115, Note_on_c, 0, 66, 0
1, 15161, Note_on_c, 0, 81, 59
1, 15184, Note_on_c, 0, 72, 51
1, 15229, Note_on_c, 0, 81, 0
1, 15270, Note_on_c, 0, 72, 0
1, 15311, Note_on_c, 0, 64, 78
1, 15317, Note_on_c, 0, 76, 50
1, 15330, Note_on_c, 0, 69, 50
1, 15341, Note_on_c, 0, 76, 0
1, 15363, Note_on_c, 0, 69, 0
1, 15384, Note_on_c, 0, 64, 0
1, 15390, Control_c, 0, 67, 8
1, 15406, Note_on_c, 0, 60, 0
1, 15415, Note_on_c, 0, 57, 0
1, 15456, Note_on_c, 0, 72, 55
1, 15464, Control_c, 0, 67, 0
1, 15474, Note_on_c, 0, 64, 53
1, 15526, Note_on_c, 0, 72, 0
1, 15581, Note_on_c, 0, 38, 59
1, 15584, Note_on_c, 0, 64, 0
1, 15584, Note_on_c, 0, 69, 54
1, 15599, Note_on_c, 0, 60, 53
1, 15640, Note_on_c, 0, 38, 0
1, 15641, Note_on_c, 0, 60, 0
1, 15700, Note_on_c, 0, 45, 41
1, 15803, Note_on_c, 0, 62, 76
1, 15840, Note_on_c, 0, 54, 47
1, 15900, Control_c, 0, 64, 85
1, 15900, Control_c, 0, 67, 8
1, 15915, Control_c, 0, 64, 65
1, 15915, Control_c, 0, 67, 10
1, 15927, Note_on_c, 0, 69, 0
1, 15930, Control_c, 0, 64, 41
1, 15930, Control_c, 0, 67, 11
1, 15944, Control_c, 0, 64, 0
1, 15944, Control_c, 0, 67, 11
1, 15974, Control_c, 0, 64, 47
1, 15989, Control_c, 0, 64, 67
1, 16003, Control_c, 0, 64, 79
1, 16007, Note_on_c, 0, 45, 0
1, 16018, Control_c, 0, 64, 102
1, 16018, Control_c, 0, 67, 11
1, 16031, Note_on_c, 0, 62, 0
1, 16033, Control_c, 0, 64, 127
1, 16033, Control_c, 0, 67, 10
1, 16034, Note_on_c, 0, 66, 63
1, 16048, Control_c, 0, 67, 10
1, 16062, Control_c, 0, 67, 9
1, 16077, Control_c, 0, 67, 9
1, 16085, Note_on_c, 0, 54, 0
1, 16092, Control_c, 0, 67, 8
1, 16122, Note_on_c, 0, 66, 0
1, 16136, Control_c, 0, 67, 8
1, 16144, Note_on_c, 0, 69, 58
1, 16150, Note_on_c, 0, 62, 58
1, 16197, Control_c, 0, 67, 0
1, 16207, Note_on_c, 0, 62, 0
1, 16227, Note_on_c, 0, 69, 0
1, 16279, Note_on_c, 0, 60, 75
1, 16287, Note_on_c, 0, 74, 50
1, 16295, Note_on_c, 0, 66, 41
1, 16320, Note_on_c, 0, 74, 0
1, 16324, Note_on_c, 0, 66, 0
1, 16435, Note_on_c, 0, 78, 58
1, 16448, Note_on_c, 0, 69, 36
1, 16469, Note_on_c, 0, 78, 0
1, 16478, Note_on_c, 0, 69, 0
1, 16552, Control_c, 0, 67, 8
1, 16561, Note_on_c, 0, 81, 50
1, 16562, Note_on_c, 0, 74, 48
1, 16601, Note_on_c, 0, 74, 0
1, 16606, Note_on_c, 0, 81, 0
1, 16648, Control_c, 0, 67, 8
1, 16678, Control_c, 0, 67, 9
1, 16693, Control_c, 0, 67, 9
1, 16697, Note_on_c, 0, 60, 0
1, 16706, Note_on_c, 0, 86, 61
1, 16708, Control_c, 0, 67, 10
1, 16714, Note_on_c, 0, 66, 44
1, 16721, Note_on_c, 0, 57, 45
1, 16723, Control_c, 0, 67, 10
1, 16736, Note_on_c, 0, 78, 43
1, 16738, Control_c, 0, 67, 11
1, 16742, Note_on_c, 0, 86, 0
1, 16752, Control_c, 0, 67, 12
1, 16767, Control_c, 0, 67, 12
1, 16779, Note_on_c, 0, 78, 0
1, 16782, Control_c, 0, 67, 14
1, 16797, Control_c, 0, 67, 16
1, 16812, Control_c, 0, 67, 18
1, 16827, Control_c, 0, 67, 21
1, 16831, Note_on_c, 0, 74, 54
1, 16840, Note_on_c, 0, 81, 48
1, 16841, Control_c, 0, 67, 25
1, 16856, Control_c, 0, 67, 30
1, 16858, Note_on_c, 0, 74, 0
1, 16868, Note_on_c, 0, 66, 0
1, 16871, Control_c, 0, 67, 38
1, 16885, Control_c, 0, 67, 53
1, 16893, Note_on_c, 0, 81, 0
1, 16900, Control_c, 0, 67, 67
1, 16915, Control_c, 0, 67, 80
1, 16930, Control_c, 0, 67, 91
1, 16945, Control_c, 0, 67, 101
1, 16961, Control_c, 0, 67, 108
1, 16968, Note_on_c, 0, 78, 61
1, 16975, Control_c, 0, 67, 114
1, 16988, Note_on_c, 0, 69, 51
1, 16990, Control_c, 0, 67, 119
1, 17002, Note_on_c, 0, 78, 0
1, 17005, Control_c, 0, 67, 122
1, 17020, Control_c, 0, 67, 123
1, 17053, Note_on_c, 0, 69, 0
1, 17100, Note_on_c, 0, 57, 0
1, 17120, Note_on_c, 0, 59, 70
1, 17134, Note_on_c, 0, 74, 52
1, 17149, Note_on_c, 0, 66, 45
1, 17172, Note_on_c, 0, 74, 0
1, 17207, Note_on_c, 0, 66, 0
1, 17213, Control_c, 0, 67, 123
1, 17286, Note_on_c, 0, 69, 53
1, 17291, Note_on_c, 0, 62, 47
1, 17371, Note_on_c, 0, 57, 73
1, 17400, Note_on_c, 0, 59, 0
1, 17428, Control_c, 0, 67, 122
1, 17437, Note_on_c, 0, 62, 0
1, 17471, Note_on_c, 0, 57, 0
1, 17476, Note_on_c, 0, 69, 0
1, 17500, Note_on_c, 0, 66, 57
1, 17516, Control_c, 0, 67, 122
1, 17605, Control_c, 0, 67, 121
1, 17650, Control_c, 0, 67, 121
1, 17691, Note_on_c, 0, 55, 71
1, 17693, Note_on_c, 0, 62, 57
1, 17715, Note_on_c, 0, 43, 41
1, 17729, Note_on_c, 0, 50, 34
1, 17739, Control_c, 0, 64, 113
1, 17739, Control_c, 0, 67, 121
1, 17754, Control_c, 0, 64, 88
1, 17769, Control_c, 0, 64, 71
1, 17769, Control_c, 0, 67, 122
1, 17779, Note_on_c, 0, 66, 0
1, 17784, Control_c, 0, 64, 56
1, 17784, Control_c, 0, 67, 122
1, 17799, Control_c, 0, 64, 23
1, 17799, Control_c, 0, 67, 123
1, 17814, Control_c, 0, 64, 0
1, 17838, Note_on_c, 0, 62, 0
1, 17843, Control_c, 0, 64, 8
1, 17858, Control_c, 0, 64, 41
1, 17860, Note_on_c, 0, 67, 57
1, 17867, Note_on_c, 0, 59, 46
1, 17873, Control_c, 0, 64, 60
1, 17873, Control_c, 0, 67, 122
1, 17888, Control_c, 0, 64, 69
1, 17888, Control_c, 0, 67, 122
1, 17903, Control_c, 0, 64, 78
1, 17903, Control_c, 0, 67, 121
1, 17913, Note_on_c, 0, 59, 0
1, 17918, Control_c, 0, 64, 94
1, 17918, Control_c, 0, 67, 121
1, 17932, Control_c, 0, 64, 105
1, 17932, Control_c, 0, 67, 120
1, 17947, Control_c, 0, 64, 118
1, 17962, Control_c, 0, 64, 127
1, 17962, Control_c, 0, 67, 120
1, 17964, Note_on_c, 0, 43, 0
1, 17973, Note_on_c, 0, 67, 0
1, 17977, Control_c, 0, 67, 119
1, 17983, Note_on_c, 0, 62, 45
1, 17986, Note_on_c, 0, 71, 59
1, 17995, Note_on_c, 0, 50, 0
1, 18006, Control_c, 0, 67, 119
1, 18008, Note_on_c, 0, 62, 0
1, 18019, Note_on_c, 0, 71, 0
1, 18036, Control_c, 0, 67, 118
1, 18126, Note_on_c, 0, 67, 53
1, 18133, Note_on_c, 0, 74, 56
1, 18163, Note_on_c, 0, 67, 0
1, 18174, Note_on_c, 0, 74, 0
1, 18248, Note_on_c, 0, 79, 56
1, 18282, Note_on_c, 0, 79, 0
1, 18324, Control_c, 0, 67, 118
1, 18332, Poly_aftertouch_c, 0, 71, 0
1, 18383, Note_on_c, 0, 74, 47
1, 18389, Note_on_c, 0, 83, 53
1, 18408, Note_on_c, 0, 74, 0
1, 18430, Note_on_c, 0, 83, 0
1, 18533, Note_on_c, 0, 59, 41
1, 18539, Note_on_c, 0, 86, 58
1, 18541, Note_on_c, 0, 67, 49
1, 18559, Note_on_c, 0, 79, 46
1, 18605, Note_on_c, 0, 79, 0
1, 18621, Note_on_c, 0, 86, 0
1, 18665, Note_on_c, 0, 83, 49
1, 18670, Note_on_c, 0, 74, 51
1, 18685, Note_on_c, 0, 83, 0
1, 18697, Note_on_c, 0, 67, 0
1, 18706, Note_on_c, 0, 74, 0
1, 18803, Note_on_c, 0, 79, 51
1, 18812, Note_on_c, 0, 55, 0
1, 18812, Note_on_c, 0, 71, 56
1, 18830, Note_on_c, 0, 59, 0
1, 18860, Note_on_c, 0, 79, 0
1, 18905, Note_on_c, 0, 71, 0
1, 18931, Note_on_c, 0, 74, 52
1, 18952, Note_on_c, 0, 74, 0
1, 18952, Note_on_c, 0, 67, 51
1, 18988, Note_on_c, 0, 67, 0
1, 19065, Note_on_c, 0, 71, 51
1, 19096, Note_on_c, 0, 62, 48
1, 19139, Note_on_c, 0, 62, 0
1, 19178, Note_on_c, 0, 71, 0
1, 19179, Note_on_c, 0, 43, 49
1, 19196, Note_on_c, 0, 67, 53
1, 19206, Note_on_c, 0, 59, 46
1, 19234, Note_on_c, 0, 59, 0
1, 19244, Note_on_c, 0, 50, 49
1, 19345, Note_on_c, 0, 67, 0
1, 19356, Control_c, 0, 67, 118
1, 19382, Note_on_c, 0, 62, 64
1, 19385, Control_c, 0, 64, 100
1, 19388, Note_on_c, 0, 57, 50
1, 19400, Control_c, 0, 64, 81
1, 19400, Control_c, 0, 67, 119
1, 19415, Control_c, 0, 64, 67
1, 19415, Control_c, 0, 67, 119
1, 19430, Control_c, 0, 64, 52
1, 19444, Control_c, 0, 64, 0
1, 19444, Control_c, 0, 67, 120
1, 19489, Control_c, 0, 64, 18
1, 19504, Control_c, 0, 64, 43
1, 19519, Control_c, 0, 64, 60
1, 19523, Note_on_c, 0, 62, 0
1, 19533, Note_on_c, 0, 66, 62
1, 19534, Control_c, 0, 64, 68
1, 19549, Control_c, 0, 64, 77
1, 19549, Control_c, 0, 67, 119
1, 19563, Control_c, 0, 64, 87
1, 19585, Control_c, 0, 64, 94
1, 19585, Control_c, 0, 67, 119
1, 19600, Control_c, 0, 64, 98
1, 19600, Control_c, 0, 67, 118
1, 19615, Control_c, 0, 64, 102
1, 19630, Control_c, 0, 64, 109
1, 19630, Control_c, 0, 67, 118
1, 19645, Control_c, 0, 64, 122
1, 19656, Note_on_c, 0, 66, 0
1, 19659, Control_c, 0, 64, 127
1, 19660, Note_on_c, 0, 62, 55
1, 19673, Note_on_c, 0, 69, 48
1, 19684, Note_on_c, 0, 43, 0
1, 19695, Note_on_c, 0, 62, 0
1, 19723, Note_on_c, 0, 69, 0
1, 19729, Note_on_c, 0, 57, 0
1, 19746, Note_on_c, 0, 50, 0
1, 19782, Note_on_c, 0, 66, 49
1, 19790, Note_on_c, 0, 74, 50
1, 19804, Note_on_c, 0, 66, 0
1, 19819, Note_on_c, 0, 74, 0
1, 19924, Note_on_c, 0, 78, 65
1, 19930, Note_on_c, 0, 69, 48
1, 19954, Note_on_c, 0, 69, 0
1, 19954, Note_on_c, 0, 78, 0
1, 19956, Control_c, 0, 67, 117
1, 20037, Note_on_c, 0, 81, 64
1, 20041, Note_on_c, 0, 74, 54
1, 20089, Note_on_c, 0, 74, 0
1, 20091, Note_on_c, 0, 81, 0
1, 20118, Control_c, 0, 67, 117
1, 20186, Note_on_c, 0, 86, 65
1, 20189, Note_on_c, 0, 60, 78
1, 20189, Note_on_c, 0, 54, 43
1, 20209, Note_on_c, 0, 78, 53
1, 20243, Note_on_c, 0, 86, 0
1, 20276, Note_on_c, 0, 78, 0
1, 20314, Note_on_c, 0, 74, 57
1, 20325, Note_on_c, 0, 81, 56
1, 20356, Note_on_c, 0, 74, 0
1, 20395, Note_on_c, 0, 81, 0
1, 20437, Control_c, 0, 67, 117
1, 20450, Note_on_c, 0, 78, 56
1, 20484, Note_on_c, 0, 69, 59
1, 20497, Note_on_c, 0, 60, 0
1, 20505, Note_on_c, 0, 78, 0
1, 20558, Note_on_c, 0, 69, 0
1, 20612, Note_on_c, 0, 59, 78
1, 20629, Note_on_c, 0, 74, 54
1, 20640, Note_on_c, 0, 66, 47
1, 20644, Control_c, 0, 67, 118
1, 20651, Note_on_c, 0, 54, 0
1, 20668, Note_on_c, 0, 74, 0
1, 20679, Note_on_c, 0, 66, 0
1, 20743, Note_on_c, 0, 59, 0
1, 20764, Note_on_c, 0, 62, 52
1, 20771, Note_on_c, 0, 69, 50
1, 20821, Note_on_c, 0, 62, 0
1, 20881, Note_on_c, 0, 43, 52
1, 20901, Note_on_c, 0, 66, 54
1, 20917, Note_on_c, 0, 69, 0
1, 20961, Note_on_c, 0, 50, 61
1, 20986, Control_c, 0, 67, 117
1, 21093, Note_on_c, 0, 55, 74
1, 21101, Note_on_c, 0, 62, 65
1, 21156, Control_c, 0, 64, 120
1, 21167, Note_on_c, 0, 66, 0
1, 21171, Control_c, 0, 64, 92
1, 21171, Control_c, 0, 67, 118
1, 21186, Control_c, 0, 64, 71
1, 21201, Control_c, 0, 64, 57
1, 21216, Control_c, 0, 64, 29
1, 21230, Control_c, 0, 64, 0
1, 21242, Note_on_c, 0, 62, 0
1, 21257, Note_on_c, 0, 67, 58
1, 21260, Control_c, 0, 64, 35
1, 21268, Note_on_c, 0, 59, 45
1, 21274, Control_c, 0, 64, 54
1, 21274, Control_c, 0, 67, 117
1, 21289, Control_c, 0, 64, 66
1, 21304, Control_c, 0, 64, 73
1, 21315, Note_on_c, 0, 59, 0
1, 21319, Control_c, 0, 64, 84
1, 21319, Control_c, 0, 67, 117
1, 21334, Control_c, 0, 64, 96
1, 21349, Control_c, 0, 64, 108
1, 21349, Control_c, 0, 67, 116
1, 21364, Control_c, 0, 64, 124
1, 21364, Control_c, 0, 67, 116
1, 21379, Control_c, 0, 64, 127
1, 21386, Note_on_c, 0, 71, 61
1, 21392, Note_on_c, 0, 43, 0
1, 21393, Note_on_c, 0, 50, 0
1, 21393, Control_c, 0, 67, 115
1, 21396, Note_on_c, 0, 62, 33
1, 21407, Note_on_c, 0, 67, 0
1, 21423, Control_c, 0, 67, 115
1, 21430, Note_on_c, 0, 62, 0
1, 21431, Note_on_c, 0, 71, 0
1, 21513, Note_on_c, 0, 55, 0
1, 21531, Note_on_c, 0, 74, 60
1, 21532, Note_on_c, 0, 67, 53
1, 21566, Note_on_c, 0, 67, 0
1, 21578, Note_on_c, 0, 74, 0
1, 21645, Note_on_c, 0, 71, 53
1, 21650, Note_on_c, 0, 79, 54
1, 21671, Note_on_c, 0, 71, 0
1, 21715, Note_on_c, 0, 79, 0
1, 21720, Note_on_c, 0, 57, 64
1, 21809, Control_c, 0, 67, 114
1, 21820, Note_on_c, 0, 74, 57
1, 21827, Note_on_c, 0, 83, 56
1, 21859, Note_on_c, 0, 74, 0
1, 21931, Note_on_c, 0, 83, 0
1, 21960, Note_on_c, 0, 57, 0
1, 21979, Control_c, 0, 67, 115
1, 21992, Note_on_c, 0, 59, 48
1, 22000, Note_on_c, 0, 67, 49
1, 22003, Note_on_c, 0, 86, 52
1, 22009, Control_c, 0, 67, 115
1, 22012, Note_on_c, 0, 79, 48
1, 22023, Control_c, 0, 64, 107
1, 22023, Control_c, 0, 67, 116
1, 22026, Note_on_c, 0, 55, 37
1, 22038, Control_c, 0, 64, 91
1, 22038, Control_c, 0, 67, 116
1, 22053, Control_c, 0, 64, 74
1, 22061, Note_on_c, 0, 86, 0
1, 22068, Control_c, 0, 64, 61
1, 22068, Control_c, 0, 67, 117
1, 22083, Control_c, 0, 64, 39
1, 22097, Control_c, 0, 64, 0
1, 22108, Note_on_c, 0, 79, 0
1, 22124, Note_on_c, 0, 74, 53
1, 22126, Note_on_c, 0, 83, 51
1, 22127, Control_c, 0, 64, 38
1, 22142, Control_c, 0, 64, 56
1, 22146, Note_on_c, 0, 83, 0
1, 22157, Control_c, 0, 64, 66
1, 22172, Control_c, 0, 64, 73
1, 22181, Note_on_c, 0, 74, 0
1, 22187, Control_c, 0, 64, 83
1, 22187, Control_c, 0, 67, 116
1, 22202, Control_c, 0, 64, 93
1, 22216, Control_c, 0, 64, 99
1, 22216, Control_c, 0, 67, 116
1, 22231, Control_c, 0, 64, 104
1, 22246, Control_c, 0, 64, 110
1, 22246, Control_c, 0, 67, 115
1, 22248, Note_on_c, 0, 67, 0
1, 22255, Note_on_c, 0, 79, 59
1, 22261, Control_c, 0, 64, 120
1, 22270, Note_on_c, 0, 71, 58
1, 22276, Control_c, 0, 64, 127
1, 22348, Note_on_c, 0, 59, 0
1, 22350, Note_on_c, 0, 71, 0
1, 22357, Note_on_c, 0, 55, 0
1, 22372, Note_on_c, 0, 79, 0
1, 22387, Note_on_c, 0, 67, 56
1, 22392, Note_on_c, 0, 74, 52
1, 22408, Control_c, 0, 67, 116
1, 22412, Note_on_c, 0, 74, 0
1, 22434, Note_on_c, 0, 67, 0
1, 22467, Control_c, 0, 67, 115
1, 22524, Note_on_c, 0, 71, 53
1, 22548, Note_on_c, 0, 62, 48
1, 22589, Note_on_c, 0, 62, 0
1, 22602, Note_on_c, 0, 71, 0
1, 22658, Note_on_c, 0, 59, 54
1, 22662, Note_on_c, 0, 67, 45
1, 22667, Note_on_c, 0, 43, 50
1, 22682, Note_on_c, 0, 59, 0
1, 22698, Control_c, 0, 67, 116
1, 22739, Note_on_c, 0, 50, 48
1, 22825, Note_on_c, 0, 67, 0
1, 22845, Control_c, 0, 67, 116
1, 22846, Note_on_c, 0, 62, 57
1, 22875, Note_on_c, 0, 57, 46
1, 22875, Control_c, 0, 64, 110
1, 22875, Control_c, 0, 67, 117
1, 22890, Control_c, 0, 64, 92
1, 22890, Control_c, 0, 67, 117
1, 22905, Control_c, 0, 64, 76
1, 22920, Control_c, 0, 64, 60
1, 22920, Control_c, 0, 67, 118
1, 22935, Control_c, 0, 64, 39
1, 22935, Control_c, 0, 67, 118
1, 22950, Control_c, 0, 64, 0
1, 22950, Control_c, 0, 67, 119
1, 22979, Control_c, 0, 64, 13
1, 22993, Note_on_c, 0, 62, 0
1, 22994, Control_c, 0, 64, 40
1, 23006, Note_on_c, 0, 66, 57
1, 23009, Control_c, 0, 64, 58
1, 23024, Control_c, 0, 64, 68
1, 23024, Control_c, 0, 67, 118
1, 23038, Control_c, 0, 64, 76
1, 23053, Control_c, 0, 64, 87
1, 23053, Control_c, 0, 67, 118
1, 23068, Control_c, 0, 64, 96
1, 23068, Control_c, 0, 67, 117
1, 23083, Control_c, 0, 64, 103
1, 23098, Control_c, 0, 64, 109
1, 23098, Control_c, 0, 67, 117
1, 23099, Note_on_c, 0, 66, 0
1, 23112, Control_c, 0, 64, 127
1, 23123, Note_on_c, 0, 69, 56
1, 23136, Note_on_c, 0, 62, 42
1, 23169, Note_on_c, 0, 62, 0
1, 23188, Note_on_c, 0, 43, 0
1, 23190, Note_on_c, 0, 69, 0
1, 23227, Note_on_c, 0, 57, 0
1, 23242, Note_on_c, 0, 50, 0
1, 23245, Note_on_c, 0, 66, 49
1, 23251, Note_on_c, 0, 74, 54
1, 23271, Note_on_c, 0, 66, 0
1, 23280, Note_on_c, 0, 74, 0
1, 23399, Note_on_c, 0, 78, 65
1, 23424, Note_on_c, 0, 69, 22
1, 23428, Note_on_c, 0, 78, 0
1, 23459, Note_on_c, 0, 69, 0
1, 23491, Control_c, 0, 67, 117
1, 23525, Note_on_c, 0, 81, 54
1, 23528, Note_on_c, 0, 74, 44
1, 23563, Note_on_c, 0, 81, 0
1, 23564, Note_on_c, 0, 74, 0
1, 23665, Note_on_c, 0, 54, 37
1, 23666, Note_on_c, 0, 86, 59
1, 23674, Note_on_c, 0, 60, 66
1, 23687, Note_on_c, 0, 78, 45
1, 23704, Note_on_c, 0, 86, 0
1, 23751, Note_on_c, 0, 78, 0
1, 23801, Note_on_c, 0, 81, 53
1, 23802, Note_on_c, 0, 74, 53
1, 23829, Note_on_c, 0, 74, 0
1, 23832, Control_c, 0, 67, 118
1, 23861, Note_on_c, 0, 81, 0
1, 23922, Control_c, 0, 67, 118
1, 23936, Note_on_c, 0, 78, 57
1, 23943, Note_on_c, 0, 60, 0
1, 23958, Note_on_c, 0, 69, 55
1, 23972, Note_on_c, 0, 78, 0
1, 23981, Control_c, 0, 67, 119
1, 24026, Note_on_c, 0, 69, 0
1, 24097, Note_on_c, 0, 59, 69
1, 24110, Note_on_c, 0, 74, 54
1, 24125, Note_on_c, 0, 66, 49
1, 24128, Note_on_c, 0, 54, 0
1, 24148, Note_on_c, 0, 74, 0
1, 24173, Note_on_c, 0, 66, 0
1, 24217, Note_on_c, 0, 59, 0
1, 24251, Note_on_c, 0, 69, 50
1, 24254, Note_on_c, 0, 62, 43
1, 24291, Note_on_c, 0, 62, 0
1, 24330, Control_c, 0, 67, 118
1, 24352, Note_on_c, 0, 43, 49
1, 24361, Note_on_c, 0, 69, 0
1, 24379, Note_on_c, 0, 66, 50
1, 24391, Poly_aftertouch_c, 0, 69, 0
1, 24433, Note_on_c, 0, 50, 54
1, 24478, Control_c, 0, 67, 118
1, 24565, Note_on_c, 0, 55, 64
1, 24566, Control_c, 0, 64, 112
1, 24566, Control_c, 0, 67, 118
1, 24573, Note_on_c, 0, 62, 57
1, 24581, Control_c, 0, 64, 93
1, 24596, Control_c, 0, 64, 77
1, 24610, Control_c, 0, 64, 64
1, 24614, Note_on_c, 0, 66, 0
1, 24625, Control_c, 0, 64, 46
1, 24640, Control_c, 0, 64, 0
1, 24640, Control_c, 0, 67, 119
1, 24685, Control_c, 0, 64, 18
1, 24697, Note_on_c, 0, 62, 0
1, 24700, Control_c, 0, 64, 42
1, 24700, Control_c, 0, 67, 118
1, 24714, Control_c, 0, 64, 59
1, 24726, Note_on_c, 0, 67, 55
1, 24729, Control_c, 0, 64, 67
1, 24729, Control_c, 0, 67, 118
1, 24743, Note_on_c, 0, 59, 43
1, 24744, Control_c, 0, 64, 75
1, 24759, Control_c, 0, 64, 85
1, 24759, Control_c, 0, 67, 117
1, 24774, Control_c, 0, 64, 95
1, 24774, Control_c, 0, 67, 117
1, 24778, Note_on_c, 0, 59, 0
1, 24789, Control_c, 0, 64, 104
1, 24804, Control_c, 0, 64, 122
1, 24804, Control_c, 0, 67, 116
1, 24825, Control_c, 0, 64, 127
1, 24831, Note_on_c, 0, 43, 0
1, 24854, Note_on_c, 0, 50, 0
1, 24857, Note_on_c, 0, 71, 60
1, 24875, Note_on_c, 0, 67, 0
1, 24900, Note_on_c, 0, 71, 0
1, 24914, Control_c, 0, 67, 116
1, 24946, Note_on_c, 0, 55, 0
1, 25004, Note_on_c, 0, 74, 58
1, 25004, Note_on_c, 0, 67, 49
1, 25039, Note_on_c, 0, 67, 0
1, 25043, Note_on_c, 0, 74, 0
1, 25120, Note_on_c, 0, 71, 51
1, 25121, Note_on_c, 0, 79, 55
1, 25144, Note_on_c, 0, 71, 0
1, 25171, Note_on_c, 0, 79, 0
1, 25205, Note_on_c, 0, 57, 62
1, 25273, Note_on_c, 0, 74, 57
1, 25278, Note_on_c, 0, 83, 57
1, 25309, Note_on_c, 0, 74, 0
1, 25371, Note_on_c, 0, 83, 0
1, 25416, Note_on_c, 0, 57, 0
1, 25443, Note_on_c, 0, 67, 53
1, 25445, Note_on_c, 0, 86, 58
1, 25448, Control_c, 0, 67, 116
1, 25450, Note_on_c, 0, 59, 46
1, 25455, Note_on_c, 0, 79, 50
1, 25463, Control_c, 0, 64, 94
1, 25472, Note_on_c, 0, 55, 44
1, 25478, Control_c, 0, 64, 76
1, 25478, Control_c, 0, 67, 117
1, 25493, Control_c, 0, 64, 62
1, 25495, Note_on_c, 0, 86, 0
1, 25507, Control_c, 0, 64, 47
1, 25510, Note_on_c, 0, 79, 0
1, 25522, Control_c, 0, 64, 41
1, 25537, Control_c, 0, 64, 48
1, 25537, Control_c, 0, 67, 117
1, 25552, Control_c, 0, 64, 60
1, 25574, Control_c, 0, 64, 68
1, 25577, Note_on_c, 0, 83, 53
1, 25581, Note_on_c, 0, 74, 53
1, 25589, Control_c, 0, 64, 76
1, 25599, Note_on_c, 0, 83, 0
1, 25604, Control_c, 0, 64, 87
1, 25619, Control_c, 0, 64, 97
1, 25619, Control_c, 0, 67, 117
1, 25623, Note_on_c, 0, 74, 0
1, 25634, Control_c, 0, 64, 102
1, 25648, Control_c, 0, 64, 104
1, 25663, Control_c, 0, 64, 106
1, 25663, Control_c, 0, 67, 116
1, 25665, Note_on_c, 0, 67, 0
1, 25678, Control_c, 0, 64, 108
1, 25692, Control_c, 0, 64, 109
1, 25707, Control_c, 0, 64, 110
1, 25713, Note_on_c, 0, 79, 57
1, 25722, Control_c, 0, 64, 111
1, 25731, Note_on_c, 0, 71, 49
1, 25738, Control_c, 0, 64, 113
1, 25753, Control_c, 0, 64, 116
1, 25754, Note_on_c, 0, 59, 0
1, 25768, Control_c, 0, 64, 118
1, 25787, Note_on_c, 0, 55, 0
1, 25788, Note_on_c, 0, 79, 0
1, 25798, Note_on_c, 0, 71, 0
1, 25842, Note_on_c, 0, 67, 50
1, 25842, Control_c, 0, 67, 117
1, 25843, Note_on_c, 0, 74, 42
1, 25870, Note_on_c, 0, 74, 0
1, 25871, Control_c, 0, 64, 119
1, 25877, Note_on_c, 0, 67, 0
1, 25963, Note_on_c, 0, 71, 60
1, 25975, Control_c, 0, 67, 116
1, 25998, Note_on_c, 0, 62, 51
1, 26052, Note_on_c, 0, 62, 0
1, 26071, Note_on_c, 0, 40, 59
1, 26095, Note_on_c, 0, 71, 0
1, 26095, Note_on_c, 0, 67, 57
1, 26102, Note_on_c, 0, 59, 55
1, 26136, Note_on_c, 0, 40, 0
1, 26152, Control_c, 0, 67, 116
1, 26156, Note_on_c, 0, 47, 62
1, 26182, Control_c, 0, 67, 116
1, 26196, Control_c, 0, 64, 127
1, 26238, Note_on_c, 0, 59, 0
1, 26256, Control_c, 0, 67, 117
1, 26258, Note_on_c, 0, 64, 76
1, 26264, Note_on_c, 0, 67, 0
1, 26266, Note_on_c, 0, 55, 62
1, 26270, Control_c, 0, 64, 106
1, 26270, Control_c, 0, 67, 117
1, 26285, Control_c, 0, 64, 82
1, 26285, Control_c, 0, 67, 118
1, 26300, Control_c, 0, 64, 66
1, 26300, Control_c, 0, 67, 118
1, 26322, Control_c, 0, 64, 49
1, 26337, Control_c, 0, 64, 31
1, 26337, Control_c, 0, 67, 119
1, 26352, Control_c, 0, 64, 34
1, 26367, Control_c, 0, 64, 50
1, 26367, Control_c, 0, 67, 118
1, 26382, Control_c, 0, 64, 63
1, 26396, Control_c, 0, 64, 71
1, 26408, Note_on_c, 0, 67, 62
1, 26411, Note_on_c, 0, 59, 52
1, 26411, Control_c, 0, 64, 79
1, 26411, Control_c, 0, 67, 118
1, 26414, Note_on_c, 0, 64, 0
1, 26426, Control_c, 0, 64, 90
1, 26426, Control_c, 0, 67, 117
1, 26441, Control_c, 0, 64, 100
1, 26441, Control_c, 0, 67, 117
1, 26456, Control_c, 0, 64, 111
1, 26456, Control_c, 0, 67, 116
1, 26470, Control_c, 0, 64, 127
1, 26481, Note_on_c, 0, 59, 0
1, 26485, Control_c, 0, 67, 116
1, 26511, Note_on_c, 0, 67, 0
1, 26539, Note_on_c, 0, 47, 0
1, 26545, Note_on_c, 0, 55, 0
1, 26545, Note_on_c, 0, 71, 58
1, 26551, Note_on_c, 0, 64, 53
1, 26574, Note_on_c, 0, 64, 0
1, 26585, Note_on_c, 0, 71, 0
1, 26664, Control_c, 0, 67, 115
1, 26676, Note_on_c, 0, 76, 66
1, 26682, Note_on_c, 0, 67, 55
1, 26709, Control_c, 0, 67, 115
1, 26716, Note_on_c, 0, 67, 0
1, 26731, Note_on_c, 0, 76, 0
1, 26738, Control_c, 0, 67, 114
1, 26768, Control_c, 0, 67, 115
1, 26798, Note_on_c, 0, 79, 62
1, 26813, Control_c, 0, 67, 114
1, 26834, Note_on_c, 0, 79, 0
1, 26845, Note_on_c, 0, 71, 3
1, 26867, Note_on_c, 0, 71, 0
1, 26882, Poly_aftertouch_c, 0, 71, 0
1, 26900, Note_on_c, 0, 59, 47
1, 26929, Note_on_c, 0, 83, 66
1, 26932, Note_on_c, 0, 76, 56
1, 26946, Control_c, 0, 67, 114
1, 26960, Note_on_c, 0, 76, 0
1, 26961, Control_c, 0, 67, 113
1, 26966, Note_on_c, 0, 83, 0
1, 26975, Note_on_c, 0, 64, 56
1, 26976, Control_c, 0, 67, 112
1, 26991, Control_c, 0, 67, 111
1, 27005, Control_c, 0, 67, 109
1, 27020, Control_c, 0, 67, 107
1, 27035, Control_c, 0, 67, 102
1, 27050, Control_c, 0, 67, 95
1, 27072, Control_c, 0, 67, 86
1, 27078, Note_on_c, 0, 88, 73
1, 27087, Control_c, 0, 67, 76
1, 27088, Note_on_c, 0, 67, 56
1, 27096, Note_on_c, 0, 79, 57
1, 27102, Control_c, 0, 67, 64
1, 27117, Control_c, 0, 67, 53
1, 27132, Control_c, 0, 67, 42
1, 27146, Control_c, 0, 67, 30
1, 27150, Note_on_c, 0, 88, 0
1, 27161, Control_c, 0, 67, 18
1, 27176, Control_c, 0, 67, 8
1, 27191, Control_c, 0, 67, 0
1, 27199, Note_on_c, 0, 59, 0
1, 27206, Note_on_c, 0, 83, 59
1, 27211, Note_on_c, 0, 76, 57
1, 27224, Note_on_c, 0, 79, 0
1, 27233, Note_on_c, 0, 83, 0
1, 27236, Note_on_c, 0, 67, 0
1, 27250, Note_on_c, 0, 76, 0
1, 27298, Note_on_c, 0, 64, 0
1, 27341, Note_on_c, 0, 79, 59
1, 27359, Note_on_c, 0, 71, 59
1, 27391, Note_on_c, 0, 79, 0
1, 27420, Note_on_c, 0, 71, 0
1, 27464, Note_on_c, 0, 76, 58
1, 27478, Note_on_c, 0, 67, 60
1, 27484, Note_on_c, 0, 76, 0
1, 27522, Note_on_c, 0, 67, 0
1, 27601, Note_on_c, 0, 71, 65
1, 27618, Note_on_c, 0, 64, 63
1, 27648, Note_on_c, 0, 71, 0
1, 27678, Note_on_c, 0, 64, 0
1, 27722, Note_on_c, 0, 67, 61
1, 27729, Note_on_c, 0, 59, 58
1, 27751, Note_on_c, 0, 67, 0
1, 27754, Note_on_c, 0, 59, 0
1, 28005, Note_on_c, 0, 64, 80
1, 28011, Note_on_c, 0, 45, 59
1, 28018, Note_on_c, 0, 33, 52
1, 28023, Note_on_c, 0, 54, 66
1, 28029, Control_c, 0, 64, 90
1, 28029, Note_on_c, 0, 60, 58
1, 28043, Control_c, 0, 64, 69
1, 28058, Control_c, 0, 64, 54
1, 28073, Control_c, 0, 64, 46
1, 28087, Control_c, 0, 64, 52
1, 28102, Control_c, 0, 64, 62
1, 28104, Note_on_c, 0, 54, 0
1, 28117, Control_c, 0, 64, 71
1, 28133, Control_c, 0, 64, 82
1, 28148, Note_on_c, 0, 60, 0
1, 28148, Control_c, 0, 64, 100
1, 28163, Control_c, 0, 64, 127
1, 28182, Note_on_c, 0, 64, 0
1, 28203, Note_on_c, 0, 69, 45
1, 28228, Note_on_c, 0, 69, 0
1, 28256, Note_on_c, 0, 33, 0
1, 28305, Note_on_c, 0, 45, 0
1, 28327, Note_on_c, 0, 64, 55
1, 28327, Note_on_c, 0, 72, 57
1, 28368, Note_on_c, 0, 64, 0
1, 28447, Note_on_c, 0, 76, 56
1, 28448, Note_on_c, 0, 72, 0
1, 28461, Note_on_c, 0, 69, 32
1, 28482, Note_on_c, 0, 76, 0
1, 28494, Note_on_c, 0, 69, 0
1, 28590, Note_on_c, 0, 81, 64
1, 28593, Note_on_c, 0, 72, 56
1, 28627, Note_on_c, 0, 72, 0
1, 28706, Note_on_c, 0, 81, 0
1, 28712, Note_on_c, 0, 84, 50
1, 28713, Note_on_c, 0, 76, 52
1, 28735, Note_on_c, 0, 76, 0
1, 28748, Note_on_c, 0, 84, 0
1, 28861, Note_on_c, 0, 62, 72
1, 28868, Note_on_c, 0, 57, 51
1, 28870, Note_on_c, 0, 88, 60
1, 28876, Note_on_c, 0, 52, 48
1, 28880, Note_on_c, 0, 54, 41
1, 28894, Note_on_c, 0, 81, 47
1, 28924, Note_on_c, 0, 88, 0
1, 28970, Note_on_c, 0, 81, 0
1, 28991, Note_on_c, 0, 84, 53
1, 28996, Note_on_c, 0, 76, 56
1, 29009, Note_on_c, 0, 84, 0
1, 29034, Note_on_c, 0, 76, 0
1, 29117, Note_on_c, 0, 81, 59
1, 29144, Note_on_c, 0, 72, 57
1, 29152, Note_on_c, 0, 62, 0
1, 29216, Note_on_c, 0, 72, 0
1, 29222, Note_on_c, 0, 81, 0
1, 29266, Note_on_c, 0, 76, 54
1, 29267, Note_on_c, 0, 60, 80
1, 29277, Note_on_c, 0, 69, 56
1, 29297, Note_on_c, 0, 76, 0
1, 29325, Note_on_c, 0, 69, 0
1, 29404, Note_on_c, 0, 60, 0
1, 29406, Note_on_c, 0, 72, 63
1, 29429, Note_on_c, 0, 64, 58
1, 29445, Note_on_c, 0, 52, 0
1, 29445, Note_on_c, 0, 57, 0
1, 29450, Note_on_c, 0, 54, 0
1, 29480, Note_on_c, 0, 72, 0
1, 29513, Note_on_c, 0, 64, 0
1, 29532, Note_on_c, 0, 69, 64
1, 29540, Note_on_c, 0, 60, 64
1, 29559, Note_on_c, 0, 69, 0
1, 29574, Note_on_c, 0, 60, 0
1, 29756, Note_on_c, 0, 59, 63
1, 29773, Note_on_c, 0, 35, 63
1, 29776, Note_on_c, 0, 51, 70
1, 29788, Note_on_c, 0, 54, 59
1, 29809, Control_c, 0, 64, 83
1, 29824, Control_c, 0, 64, 65
1, 29837, Note_on_c, 0, 54, 0
1, 29838, Control_c, 0, 64, 39
1, 29853, Control_c, 0, 64, 0
1, 29868, Control_c, 0, 64, 21
1, 29877, Note_on_c, 0, 51, 0
1, 29882, Control_c, 0, 64, 50
1, 29897, Control_c, 0, 64, 66
1, 29912, Control_c, 0, 64, 77
1, 29927, Control_c, 0, 64, 94
1, 29935, Note_on_c, 0, 59, 0
1, 29942, Control_c, 0, 64, 127
1, 29945, Note_on_c, 0, 63, 62
1, 29971, Note_on_c, 0, 35, 0
1, 29973, Note_on_c, 0, 63, 0
1, 30077, Note_on_c, 0, 59, 58
1, 30085, Note_on_c, 0, 66, 53
1, 30115, Note_on_c, 0, 59, 0
1, 30143, Note_on_c, 0, 66, 0
1, 30212, Note_on_c, 0, 71, 58
1, 30220, Note_on_c, 0, 57, 76
1, 30242, Note_on_c, 0, 63, 9
1, 30243, Note_on_c, 0, 71, 0
1, 30287, Note_on_c, 0, 63, 0
1, 30368, Note_on_c, 0, 66, 53
1, 30381, Note_on_c, 0, 75, 40
1, 30388, Note_on_c, 0, 66, 0
1, 30411, Note_on_c, 0, 75, 0
1, 30471, Note_on_c, 0, 78, 60
1, 30485, Note_on_c, 0, 71, 51
1, 30509, Note_on_c, 0, 78, 0
1, 30526, Note_on_c, 0, 71, 0
1, 30602, Control_c, 0, 67, 10
1, 30605, Note_on_c, 0, 83, 59
1, 30617, Control_c, 0, 67, 14
1, 30627, Note_on_c, 0, 66, 53
1, 30632, Control_c, 0, 67, 17
1, 30641, Note_on_c, 0, 63, 47
1, 30641, Note_on_c, 0, 75, 50
1, 30646, Control_c, 0, 67, 21
1, 30661, Control_c, 0, 67, 24
1, 30667, Note_on_c, 0, 83, 0
1, 30676, Control_c, 0, 67, 31
1, 30691, Control_c, 0, 67, 42
1, 30705, Control_c, 0, 67, 54
1, 30720, Control_c, 0, 67, 68
1, 30726, Note_on_c, 0, 75, 0
1, 30735, Control_c, 0, 67, 82
1, 30745, Note_on_c, 0, 71, 58
1, 30750, Control_c, 0, 67, 96
1, 30755, Note_on_c, 0, 66, 0
1, 30759, Note_on_c, 0, 78, 42
1, 30765, Control_c, 0, 67, 110
1, 30779, Control_c, 0, 67, 123
1, 30787, Note_on_c, 0, 78, 0
1, 30791, Note_on_c, 0, 71, 0
1, 30794, Note_on_c, 0, 63, 0
1, 30794, Control_c, 0, 67, 127
1, 30855, Note_on_c, 0, 57, 0
1, 30893, Note_on_c, 0, 75, 51
1, 30912, Note_on_c, 0, 66, 47
1, 30950, Note_on_c, 0, 75, 0
1, 30953, Note_on_c, 0, 66, 0
1, 31034, Note_on_c, 0, 55, 69
1, 31036, Note_on_c, 0, 71, 59
1, 31046, Note_on_c, 0, 63, 49
1, 31100, Note_on_c, 0, 71, 0
1, 31114, Note_on_c, 0, 63, 0
1, 31233, Note_on_c, 0, 66, 47
1, 31236, Note_on_c, 0, 59, 34
1, 31281, Note_on_c, 0, 54, 73
1, 31336, Note_on_c, 0, 59, 0
1, 31342, Note_on_c, 0, 55, 0
1, 31378, Note_on_c, 0, 66, 0
1, 31390, Note_on_c, 0, 63, 57
1, 31395, Note_on_c, 0, 54, 0
1, 31410, Control_c, 0, 67, 127
1, 31439, Control_c, 0, 67, 126
1, 31454, Control_c, 0, 67, 126
1, 31499, Control_c, 0, 67, 125
1, 31528, Control_c, 0, 67, 125
1, 31580, Control_c, 0, 67, 124
1, 31603, Note_on_c, 0, 63, 0
1, 31606, Note_on_c, 0, 52, 70
1, 31609, Note_on_c, 0, 64, 63
1, 31623, Note_on_c, 0, 55, 53
1, 31624, Note_on_c, 0, 40, 46
1, 31624, Control_c, 0, 67, 125
1, 31636, Note_on_c, 0, 47, 47
1, 31639, Control_c, 0, 64, 112
1, 31654, Control_c, 0, 64, 82
1, 31654, Control_c, 0, 67, 125
1, 31669, Control_c, 0, 64, 64
1, 31684, Control_c, 0, 64, 35
1, 31684, Control_c, 0, 67, 126
1, 31688, Note_on_c, 0, 55, 0
1, 31699, Control_c, 0, 64, 0
1, 31729, Control_c, 0, 64, 37
1, 31743, Control_c, 0, 64, 59
1, 31743, Control_c, 0, 67, 125
1, 31758, Control_c, 0, 64, 69
1, 31759, Note_on_c, 0, 64, 0
1, 31769, Note_on_c, 0, 67, 56
1, 31773, Control_c, 0, 64, 80
1, 31788, Control_c, 0, 64, 93
1, 31788, Control_c, 0, 67, 125
1, 31803, Control_c, 0, 64, 105
1, 31803, Control_c, 0, 67, 124
1, 31817, Control_c, 0, 64, 116
1, 31817, Control_c, 0, 67, 124
1, 31824, Note_on_c, 0, 67, 0
1, 31832, Control_c, 0, 64, 127
1, 31832, Control_c, 0, 67, 123
1, 31861, Control_c, 0, 67, 123
1, 31876, Control_c, 0, 67, 122
1, 31889, Note_on_c, 0, 47, 0
1, 31909, Note_on_c, 0, 40, 0
1, 31911, Note_on_c, 0, 64, 59
1, 31921, Note_on_c, 0, 71, 58
1, 31921, Control_c, 0, 67, 122
1, 31949, Note_on_c, 0, 64, 0
1, 31964, Note_on_c, 0, 71, 0
1, 32038, Note_on_c, 0, 76, 56
1, 32074, Note_on_c, 0, 76, 0
1, 32101, Poly_aftertouch_c, 0, 67, 0
1, 32125, Poly_aftertouch_c, 0, 67, 0
1, 32285, Note_on_c, 0, 83, 60
1, 32307, Note_on_c, 0, 76, 49
1, 32324, Note_on_c, 0, 83, 0
1, 32330, Note_on_c, 0, 76, 0
1, 32461, Note_on_c, 0, 64, 55
1, 32461, Note_on_c, 0, 88, 61
1, 32462, Note_on_c, 0, 55, 44
1, 32479, Note_on_c, 0, 79, 46
1, 32495, Note_on_c, 0, 88, 0
1, 32563, Note_on_c, 0, 79, 0
1, 32566, Control_c, 0, 67, 122
1, 32578, Note_on_c, 0, 83, 56
1, 32596, Note_on_c, 0, 76, 52
1, 32607, Note_on_c, 0, 83, 0
1, 32632, Note_on_c, 0, 76, 0
1, 32656, Note_on_c, 0, 64, 0
1, 32720, Note_on_c, 0, 79, 56
1, 32742, Note_on_c, 0, 55, 0
1, 32743, Note_on_c, 0, 71, 51
1, 32762, Note_on_c, 0, 52, 0
1, 32796, Note_on_c, 0, 71, 0
1, 32799, Note_on_c, 0, 79, 0
1, 32836, Note_on_c, 0, 76, 56
1, 32852, Note_on_c, 0, 67, 53
1, 32855, Note_on_c, 0, 76, 0
1, 32888, Note_on_c, 0, 67, 0
1, 32981, Control_c, 0, 67, 122
1, 32984, Note_on_c, 0, 71, 55
1, 32995, Note_on_c, 0, 64, 58
1, 33026, Note_on_c, 0, 40, 46
1, 33066, Note_on_c, 0, 71, 0
1, 33117, Note_on_c, 0, 64, 0
1, 33118, Note_on_c, 0, 48, 51
1, 33118, Note_on_c, 0, 67, 56
1, 33121, Note_on_c, 0, 59, 53
1, 33179, Note_on_c, 0, 59, 0
1, 33181, Control_c, 0, 67, 122
1, 33225, Control_c, 0, 67, 123
1, 33240, Control_c, 0, 67, 123
1, 33255, Control_c, 0, 64, 98
1, 33255, Control_c, 0, 67, 124
1, 33260, Note_on_c, 0, 67, 0
1, 33270, Control_c, 0, 64, 79
1, 33270, Control_c, 0, 67, 125
1, 33279, Note_on_c, 0, 64, 63
1, 33282, Note_on_c, 0, 52, 57
1, 33285, Control_c, 0, 64, 64
1, 33285, Control_c, 0, 67, 125
1, 33299, Control_c, 0, 64, 47
1, 33299, Control_c, 0, 67, 126
1, 33314, Control_c, 0, 64, 0
1, 33344, Control_c, 0, 64, 33
1, 33359, Control_c, 0, 64, 52
1, 33374, Control_c, 0, 64, 63
1, 33374, Control_c, 0, 67, 125
1, 33389, Control_c, 0, 64, 70
1, 33399, Note_on_c, 0, 64, 0
1, 33404, Control_c, 0, 64, 79
1, 33404, Control_c, 0, 67, 125
1, 33418, Note_on_c, 0, 69, 60
1, 33419, Control_c, 0, 64, 88
1, 33422, Note_on_c, 0, 60, 52
1, 33433, Control_c, 0, 64, 99
1, 33433, Control_c, 0, 67, 124
1, 33448, Control_c, 0, 64, 112
1, 33448, Control_c, 0, 67, 124
1, 33463, Control_c, 0, 64, 127
1, 33465, Note_on_c, 0, 60, 0
1, 33478, Note_on_c, 0, 40, 0
1, 33478, Control_c, 0, 67, 123
1, 33520, Note_on_c, 0, 52, 0
1, 33527, Note_on_c, 0, 69, 0
1, 33539, Note_on_c, 0, 72, 62
1, 33553, Note_on_c, 0, 48, 0
1, 33553, Note_on_c, 0, 64, 25
1, 33576, Note_on_c, 0, 72, 0
1, 33590, Note_on_c, 0, 64, 0
1, 33672, Note_on_c, 0, 69, 51
1, 33672, Note_on_c, 0, 76, 62
1, 33704, Note_on_c, 0, 69, 0
1, 33706, Note_on_c, 0, 76, 0
1, 33781, Note_on_c, 0, 81, 59
1, 33825, Note_on_c, 0, 81, 0
1, 33871, Poly_aftertouch_c, 0, 72, 0
1, 33928, Note_on_c, 0, 84, 57
1, 33931, Note_on_c, 0, 76, 50
1, 33967, Note_on_c, 0, 76, 0
1, 34054, Note_on_c, 0, 84, 0
1, 34066, Note_on_c, 0, 64, 66
1, 34072, Note_on_c, 0, 60, 60
1, 34079, Note_on_c, 0, 57, 58
1, 34095, Note_on_c, 0, 88, 59
1, 34110, Note_on_c, 0, 81, 46
1, 34194, Note_on_c, 0, 81, 0
1, 34202, Note_on_c, 0, 88, 0
1, 34212, Note_on_c, 0, 84, 51
1, 34220, Note_on_c, 0, 76, 58
1, 34235, Note_on_c, 0, 84, 0
1, 34260, Note_on_c, 0, 76, 0
1, 34271, Control_c, 0, 67, 124
1, 34290, Note_on_c, 0, 57, 0
1, 34342, Note_on_c, 0, 81, 57
1, 34365, Note_on_c, 0, 72, 60
1, 34432, Note_on_c, 0, 81, 0
1, 34446, Note_on_c, 0, 72, 0
1, 34446, Note_on_c, 0, 72, 7
1, 34477, Note_on_c, 0, 55, 75
1, 34492, Note_on_c, 0, 76, 57
1, 34501, Note_on_c, 0, 69, 53
1, 34507, Note_on_c, 0, 72, 0
1, 34510, Note_on_c, 0, 64, 0
1, 34518, Note_on_c, 0, 76, 0
1, 34527, Note_on_c, 0, 60, 0
1, 34548, Note_on_c, 0, 69, 0
1, 34599, Note_on_c, 0, 55, 0
1, 34635, Note_on_c, 0, 72, 49
1, 34654, Note_on_c, 0, 64, 58
1, 34706, Note_on_c, 0, 72, 0
1, 34753, Control_c, 0, 67, 123
1, 34760, Note_on_c, 0, 64, 0
1, 34775, Note_on_c, 0, 40, 54
1, 34775, Note_on_c, 0, 60, 55
1, 34792, Note_on_c, 0, 69, 46
1, 34796, Poly_aftertouch_c, 0, 64, 0
1, 34844, Note_on_c, 0, 47, 61
1, 34857, Control_c, 0, 67, 123
1, 34906, Note_on_c, 0, 60, 0
1, 34972, Note_on_c, 0, 52, 62
1, 34983, Note_on_c, 0, 64, 70
1, 34988, Note_on_c, 0, 69, 0
1, 35005, Control_c, 0, 64, 117
1, 35019, Control_c, 0, 64, 88
1, 35019, Control_c, 0, 67, 123
1, 35034, Control_c, 0, 64, 68
1, 35049, Control_c, 0, 64, 52
1, 35064, Control_c, 0, 64, 17
1, 35079, Control_c, 0, 64, 0
1, 35094, Control_c, 0, 64, 14
1, 35109, Control_c, 0, 64, 42
1, 35123, Control_c, 0, 64, 61
1, 35138, Control_c, 0, 64, 68
1, 35142, Note_on_c, 0, 59, 49
1, 35153, Control_c, 0, 64, 76
1, 35153, Control_c, 0, 67, 123
1, 35154, Note_on_c, 0, 67, 55
1, 35168, Control_c, 0, 64, 86
1, 35183, Control_c, 0, 64, 96
1, 35183, Control_c, 0, 67, 122
1, 35197, Control_c, 0, 64, 105
1, 35212, Control_c, 0, 64, 113
1, 35224, Note_on_c, 0, 59, 0
1, 35225, Note_on_c, 0, 64, 0
1, 35227, Control_c, 0, 64, 127
1, 35227, Control_c, 0, 67, 122
1, 35245, Note_on_c, 0, 40, 0
1, 35273, Note_on_c, 0, 71, 61
1, 35277, Note_on_c, 0, 67, 0
1, 35282, Note_on_c, 0, 64, 41
1, 35307, Note_on_c, 0, 47, 0
1, 35314, Note_on_c, 0, 64, 0
1, 35341, Note_on_c, 0, 71, 0
1, 35343, Note_on_c, 0, 52, 0
1, 35436, Note_on_c, 0, 76, 65
1, 35443, Note_on_c, 0, 67, 52
1, 35475, Note_on_c, 0, 67, 0
1, 35551, Note_on_c, 0, 79, 64
1, 35556, Note_on_c, 0, 71, 55
1, 35573, Note_on_c, 0, 76, 0
1, 35580, Note_on_c, 0, 71, 0
1, 35619, Note_on_c, 0, 79, 0
1, 35631, Note_on_c, 0, 54, 56
1, 35705, Note_on_c, 0, 76, 52
1, 35711, Note_on_c, 0, 83, 60
1, 35747, Note_on_c, 0, 76, 0
1, 35753, Note_on_c, 0, 83, 0
1, 35768, Control_c, 0, 67, 121
1, 35797, Note_on_c, 0, 54, 0
1, 35812, Control_c, 0, 67, 122
1, 35842, Control_c, 0, 67, 122
1, 35861, Note_on_c, 0, 88, 60
1, 35872, Note_on_c, 0, 55, 38
1, 35872, Control_c, 0, 64, 93
1, 35872, Control_c, 0, 67, 123
1, 35874, Note_on_c, 0, 64, 48
1, 35880, Note_on_c, 0, 52, 47
1, 35887, Note_on_c, 0, 79, 41
1, 35887, Control_c, 0, 64, 73
1, 35887, Control_c, 0, 67, 123
1, 35901, Control_c, 0, 64, 59
1, 35901, Control_c, 0, 67, 124
1, 35916, Control_c, 0, 64, 39
1, 35918, Note_on_c, 0, 88, 0
1, 35931, Control_c, 0, 64, 31
1, 35945, Control_c, 0, 64, 46
1, 35960, Control_c, 0, 64, 60
1, 35975, Control_c, 0, 64, 69
1, 35990, Control_c, 0, 64, 78
1, 35993, Note_on_c, 0, 76, 61
1, 35997, Note_on_c, 0, 83, 55
1, 36000, Note_on_c, 0, 79, 0
1, 36005, Control_c, 0, 64, 89
1, 36015, Note_on_c, 0, 83, 0
1, 36019, Control_c, 0, 64, 98
1, 36019, Control_c, 0, 67, 123
1, 36031, Note_on_c, 0, 76, 0
1, 36034, Control_c, 0, 64, 104
1, 36057, Control_c, 0, 64, 110
1, 36057, Control_c, 0, 67, 123
1, 36072, Control_c, 0, 64, 124
1, 36087, Control_c, 0, 64, 127
1, 36101, Control_c, 0, 67, 122
1, 36137, Note_on_c, 0, 79, 59
1, 36158, Note_on_c, 0, 71, 51
1, 36167, Note_on_c, 0, 64, 0
1, 36236, Note_on_c, 0, 71, 0
1, 36241, Note_on_c, 0, 55, 0
1, 36245, Note_on_c, 0, 52, 0
1, 36249, Note_on_c, 0, 79, 0
1, 36272, Note_on_c, 0, 76, 46
1, 36273, Note_on_c, 0, 67, 61
1, 36295, Control_c, 0, 67, 123
1, 36297, Note_on_c, 0, 76, 0
1, 36310, Note_on_c, 0, 67, 0
1, 36403, Note_on_c, 0, 71, 50
1, 36420, Note_on_c, 0, 64, 55
1, 36462, Note_on_c, 0, 71, 0
1, 36522, Note_on_c, 0, 40, 46
1, 36531, Note_on_c, 0, 67, 49
1, 36534, Note_on_c, 0, 64, 0
1, 36537, Note_on_c, 0, 59, 47
1, 36588, Note_on_c, 0, 59, 0
1, 36593, Note_on_c, 0, 48, 50
1, 36682, Note_on_c, 0, 67, 0
1, 36691, Note_on_c, 0, 64, 57
1, 36694, Control_c, 0, 67, 123
1, 36709, Control_c, 0, 64, 109
1, 36709, Control_c, 0, 67, 124
1, 36710, Note_on_c, 0, 52, 51
1, 36724, Control_c, 0, 64, 89
1, 36724, Control_c, 0, 67, 124
1, 36739, Control_c, 0, 64, 72
1, 36739, Control_c, 0, 67, 125
1, 36754, Control_c, 0, 64, 59
1, 36754, Control_c, 0, 67, 126
1, 36768, Control_c, 0, 64, 30
1, 36783, Control_c, 0, 64, 0
1, 36818, Note_on_c, 0, 64, 0
1, 36820, Control_c, 0, 64, 34
1, 36835, Control_c, 0, 64, 53
1, 36841, Note_on_c, 0, 60, 38
1, 36841, Note_on_c, 0, 69, 53
1, 36850, Control_c, 0, 64, 64
1, 36850, Control_c, 0, 67, 125
1, 36865, Control_c, 0, 64, 72
1, 36880, Control_c, 0, 64, 80
1, 36881, Note_on_c, 0, 60, 0
1, 36894, Control_c, 0, 64, 89
1, 36894, Control_c, 0, 67, 125
1, 36909, Control_c, 0, 64, 96
1, 36909, Control_c, 0, 67, 124
1, 36925, Control_c, 0, 64, 102
1, 36925, Control_c, 0, 67, 124
1, 36940, Control_c, 0, 64, 108
1, 36954, Control_c, 0, 64, 118
1, 36954, Control_c, 0, 67, 123
1, 36957, Note_on_c, 0, 72, 58
1, 36969, Control_c, 0, 64, 127
1, 36970, Note_on_c, 0, 64, 44
1, 36971, Note_on_c, 0, 69, 0
1, 36974, Note_on_c, 0, 40, 0
1, 37000, Note_on_c, 0, 64, 0
1, 37002, Note_on_c, 0, 52, 0
1, 37014, Control_c, 0, 67, 123
1, 37020, Note_on_c, 0, 72, 0
1, 37039, Note_on_c, 0, 48, 0
1, 37108, Note_on_c, 0, 76, 60
1, 37113, Note_on_c, 0, 69, 45
1, 37142, Note_on_c, 0, 76, 0
1, 37146, Note_on_c, 0, 69, 0
1, 37223, Note_on_c, 0, 81, 52
1, 37258, Note_on_c, 0, 81, 0
1, 37302, Poly_aftertouch_c, 0, 72, 0
1, 37355, Note_on_c, 0, 76, 56
1, 37357, Note_on_c, 0, 84, 57
1, 37392, Note_on_c, 0, 76, 0
1, 37425, Note_on_c, 0, 84, 0
1, 37458, Control_c, 0, 67, 123
1, 37501, Note_on_c, 0, 64, 57
1, 37505, Note_on_c, 0, 60, 55
1, 37515, Note_on_c, 0, 57, 53
1, 37515, Note_on_c, 0, 88, 57
1, 37542, Note_on_c, 0, 81, 46
1, 37610, Note_on_c, 0, 81, 0
1, 37642, Note_on_c, 0, 88, 0
1, 37649, Note_on_c, 0, 84, 51
1, 37658, Note_on_c, 0, 76, 54
1, 37669, Note_on_c, 0, 84, 0
1, 37698, Note_on_c, 0, 76, 0
1, 37718, Control_c, 0, 67, 124
1, 37762, Note_on_c, 0, 57, 0
1, 37783, Note_on_c, 0, 81, 59
1, 37805, Note_on_c, 0, 72, 48
1, 37908, Note_on_c, 0, 81, 0
1, 37924, Note_on_c, 0, 76, 54
1, 37925, Note_on_c, 0, 55, 66
1, 37941, Note_on_c, 0, 69, 52
1, 37944, Note_on_c, 0, 72, 0
1, 37958, Note_on_c, 0, 76, 0
1, 37982, Note_on_c, 0, 69, 0
1, 37985, Note_on_c, 0, 60, 0
1, 37992, Note_on_c, 0, 64, 0
1, 38033, Note_on_c, 0, 55, 0
1, 38059, Control_c, 0, 67, 123
1, 38063, Note_on_c, 0, 72, 58
1, 38093, Note_on_c, 0, 64, 54
1, 38192, Note_on_c, 0, 72, 0
1, 38216, Note_on_c, 0, 40, 53
1, 38217, Note_on_c, 0, 60, 48
1, 38218, Note_on_c, 0, 69, 47
1, 38225, Note_on_c, 0, 64, 0
1, 38302, Note_on_c, 0, 47, 55
1, 38318, Control_c, 0, 67, 123
1, 38350, Note_on_c, 0, 60, 0
1, 38425, Note_on_c, 0, 64, 61
1, 38429, Note_on_c, 0, 52, 60
1, 38433, Note_on_c, 0, 69, 0
1, 38451, Control_c, 0, 67, 123
1, 38465, Control_c, 0, 64, 119
1, 38480, Control_c, 0, 64, 96
1, 38480, Control_c, 0, 67, 124
1, 38495, Control_c, 0, 64, 74
1, 38510, Control_c, 0, 64, 59
1, 38510, Control_c, 0, 67, 124
1, 38526, Control_c, 0, 64, 33
1, 38541, Control_c, 0, 64, 0
1, 38570, Control_c, 0, 64, 39
1, 38581, Note_on_c, 0, 59, 47
1, 38585, Control_c, 0, 64, 59
1, 38588, Note_on_c, 0, 64, 0
1, 38588, Note_on_c, 0, 67, 53
1, 38600, Control_c, 0, 64, 69
1, 38600, Control_c, 0, 67, 124
1, 38615, Control_c, 0, 64, 77
1, 38630, Control_c, 0, 64, 87
1, 38644, Control_c, 0, 64, 95
1, 38644, Control_c, 0, 67, 123
1, 38659, Control_c, 0, 64, 101
1, 38659, Control_c, 0, 67, 123
1, 38674, Control_c, 0, 64, 107
1, 38683, Note_on_c, 0, 67, 0
1, 38689, Control_c, 0, 64, 118
1, 38694, Note_on_c, 0, 59, 0
1, 38704, Control_c, 0, 64, 127
1, 38704, Control_c, 0, 67, 122
1, 38710, Note_on_c, 0, 71, 59
1, 38725, Note_on_c, 0, 40, 0
1, 38755, Note_on_c, 0, 64, 9
1, 38772, Note_on_c, 0, 71, 0
1, 38778, Note_on_c, 0, 47, 0
1, 38801, Note_on_c, 0, 64, 0
1, 38815, Note_on_c, 0, 52, 0
1, 38865, Note_on_c, 0, 76, 61
1, 38877, Note_on_c, 0, 67, 51
1, 38904, Note_on_c, 0, 67, 0
1, 38959, Note_on_c, 0, 76, 0
1, 38981, Note_on_c, 0, 79, 59
1, 38990, Note_on_c, 0, 71, 40
1, 39017, Note_on_c, 0, 71, 0
1, 39044, Note_on_c, 0, 79, 0
1, 39070, Note_on_c, 0, 54, 62
1, 39147, Note_on_c, 0, 83, 58
1, 39151, Note_on_c, 0, 76, 46
1, 39181, Note_on_c, 0, 76, 0
1, 39187, Note_on_c, 0, 83, 0
1, 39225, Note_on_c, 0, 54, 0
1, 39244, Control_c, 0, 67, 123
1, 39274, Control_c, 0, 67, 123
1, 39288, Note_on_c, 0, 88, 61
1, 39289, Control_c, 0, 64, 104
1, 39289, Control_c, 0, 67, 124
1, 39302, Note_on_c, 0, 64, 53
1, 39303, Control_c, 0, 64, 84
1, 39303, Control_c, 0, 67, 125
1, 39307, Note_on_c, 0, 55, 40
1, 39309, Note_on_c, 0, 79, 44
1, 39317, Note_on_c, 0, 52, 43
1, 39319, Control_c, 0, 64, 65
1, 39319, Control_c, 0, 67, 125
1, 39334, Control_c, 0, 64, 48
1, 39334, Control_c, 0, 67, 126
1, 39349, Control_c, 0, 64, 0
1, 39349, Control_c, 0, 67, 126
1, 39358, Note_on_c, 0, 88, 0
1, 39379, Control_c, 0, 64, 25
1, 39393, Control_c, 0, 64, 48
1, 39408, Control_c, 0, 64, 64
1, 39408, Control_c, 0, 67, 126
1, 39421, Note_on_c, 0, 83, 56
1, 39423, Control_c, 0, 64, 70
1, 39424, Note_on_c, 0, 76, 56
1, 39425, Note_on_c, 0, 79, 0
1, 39438, Control_c, 0, 64, 78
1, 39438, Control_c, 0, 67, 125
1, 39446, Note_on_c, 0, 83, 0
1, 39453, Control_c, 0, 64, 88
1, 39453, Control_c, 0, 67, 125
1, 39461, Note_on_c, 0, 76, 0
1, 39467, Control_c, 0, 64, 96
1, 39467, Control_c, 0, 67, 124
1, 39482, Control_c, 0, 64, 103
1, 39482, Control_c, 0, 67, 123
1, 39497, Control_c, 0, 64, 114
1, 39497, Control_c, 0, 67, 122
1, 39512, Control_c, 0, 64, 127
1, 39512, Control_c, 0, 67, 121
1, 39527, Control_c, 0, 67, 119
1, 39541, Control_c, 0, 67, 117
1, 39555, Note_on_c, 0, 79, 60
1, 39556, Control_c, 0, 67, 115
1, 39571, Control_c, 0, 67, 112
1, 39579, Note_on_c, 0, 71, 47
1, 39586, Control_c, 0, 67, 107
1, 39601, Control_c, 0, 67, 101
1, 39616, Control_c, 0, 67, 96
1, 39629, Note_on_c, 0, 64, 0
1, 39631, Control_c, 0, 67, 91
1, 39640, Note_on_c, 0, 71, 0
1, 39646, Control_c, 0, 67, 86
1, 39652, Note_on_c, 0, 55, 0
1, 39660, Control_c, 0, 67, 81
1, 39675, Note_on_c, 0, 76, 53
1, 39675, Control_c, 0, 67, 75
1, 39685, Note_on_c, 0, 79, 0
1, 39690, Control_c, 0, 67, 67
1, 39691, Note_on_c, 0, 52, 0
1, 39699, Note_on_c, 0, 67, 55
1, 39701, Note_on_c, 0, 76, 0
1, 39705, Control_c, 0, 67, 58
1, 39719, Control_c, 0, 67, 49
1, 39734, Control_c, 0, 67, 42
1, 39735, Note_on_c, 0, 67, 0
1, 39749, Control_c, 0, 67, 36
1, 39764, Control_c, 0, 67, 30
1, 39779, Control_c, 0, 67, 25
1, 39801, Control_c, 0, 67, 18
1, 39816, Control_c, 0, 67, 10
1, 39824, Note_on_c, 0, 71, 54
1, 39831, Control_c, 0, 67, 0
1, 39837, Note_on_c, 0, 64, 60
1, 39902, Note_on_c, 0, 71, 0
1, 39959, Note_on_c, 0, 67, 52
1, 39963, Note_on_c, 0, 59, 48
1, 39977, Note_on_c, 0, 64, 0
1, 40103, Note_on_c, 0, 59, 0
1, 40109, Note_on_c, 0, 67, 0
1, 40114, Note_on_c, 0, 64, 60
1, 40116, Note_on_c, 0, 38, 59
1, 40172, Control_c, 0, 64, 85
1, 40172, Control_c, 0, 67, 8
1, 40187, Control_c, 0, 64, 66
1, 40187, Control_c, 0, 67, 8
1, 40202, Control_c, 0, 64, 49
1, 40202, Control_c, 0, 67, 9
1, 40216, Control_c, 0, 64, 27
1, 40216, Control_c, 0, 67, 9
1, 40231, Control_c, 0, 64, 33
1, 40237, Note_on_c, 0, 64, 0
1, 40246, Control_c, 0, 64, 51
1, 40248, Note_on_c, 0, 59, 42
1, 40251, Note_on_c, 0, 67, 53
1, 40260, Control_c, 0, 64, 63
1, 40260, Control_c, 0, 67, 10
1, 40275, Control_c, 0, 64, 70
1, 40291, Control_c, 0, 64, 79
1, 40306, Control_c, 0, 64, 90
1, 40314, Note_on_c, 0, 59, 0
1, 40321, Control_c, 0, 64, 102
1, 40335, Control_c, 0, 64, 120
1, 40350, Control_c, 0, 64, 127
1, 40350, Control_c, 0, 67, 9
1, 40380, Note_on_c, 0, 71, 61
1, 40385, Note_on_c, 0, 64, 52
1, 40394, Note_on_c, 0, 67, 0
1, 40406, Note_on_c, 0, 38, 0
1, 40407, Note_on_c, 0, 64, 0
1, 40433, Note_on_c, 0, 71, 0
1, 40517, Note_on_c, 0, 67, 56
1, 40530, Note_on_c, 0, 76, 46
1, 40558, Note_on_c, 0, 67, 0
1, 40572, Note_on_c, 0, 76, 0
1, 40644, Note_on_c, 0, 79, 55
1, 40661, Note_on_c, 0, 71, 24
1, 40677, Note_on_c, 0, 79, 0
1, 40683, Control_c, 0, 67, 10
1, 40701, Note_on_c, 0, 71, 0
1, 40775, Note_on_c, 0, 83, 59
1, 40781, Note_on_c, 0, 76, 47
1, 40808, Note_on_c, 0, 76, 0
1, 40817, Note_on_c, 0, 83, 0
1, 40919, Note_on_c, 0, 88, 63
1, 40928, Note_on_c, 0, 52, 47
1, 40930, Note_on_c, 0, 64, 46
1, 40933, Note_on_c, 0, 59, 45
1, 40960, Note_on_c, 0, 79, 27
1, 40981, Note_on_c, 0, 88, 0
1, 41040, Note_on_c, 0, 79, 0
1, 41044, Note_on_c, 0, 76, 59
1, 41044, Note_on_c, 0, 83, 50
1, 41070, Note_on_c, 0, 83, 0
1, 41081, Note_on_c, 0, 76, 0
1, 41176, Note_on_c, 0, 79, 64
1, 41185, Note_on_c, 0, 64, 0
1, 41198, Note_on_c, 0, 71, 61
1, 41201, Note_on_c, 0, 55, 53
1, 41206, Note_on_c, 0, 59, 0
1, 41336, Note_on_c, 0, 79, 0
1, 41337, Note_on_c, 0, 71, 0
1, 41345, Note_on_c, 0, 67, 63
1, 41348, Note_on_c, 0, 76, 68
1, 41354, Note_on_c, 0, 59, 51
1, 41357, Note_on_c, 0, 52, 0
1, 41417, Note_on_c, 0, 55, 0
1, 41492, Note_on_c, 0, 71, 71
1, 41500, Note_on_c, 0, 64, 57
1, 41533, Note_on_c, 0, 64, 0
1, 41539, Note_on_c, 0, 67, 0
1, 41556, Note_on_c, 0, 59, 0
1, 41577, Note_on_c, 0, 76, 0
1, 41641, Note_on_c, 0, 67, 76
1, 41643, Note_on_c, 0, 71, 0
1, 41803, Control_c, 0, 67, 9
1, 41862, Control_c, 0, 67, 9
1, 41923, Note_on_c, 0, 71, 74
1, 41926, Note_on_c, 0, 37, 50
1, 41941, Note_on_c, 0, 67, 0
1, 41951, Control_c, 0, 64, 97
1, 41966, Control_c, 0, 64, 76
1, 41981, Control_c, 0, 64, 61
1, 41995, Control_c, 0, 64, 38
1, 42010, Control_c, 0, 64, 0
1, 42062, Control_c, 0, 64, 37
1, 42077, Control_c, 0, 64, 57
1, 42092, Control_c, 0, 64, 68
1, 42102, Note_on_c, 0, 64, 54
1, 42107, Control_c, 0, 64, 78
1, 42121, Control_c, 0, 64, 94
1, 42136, Control_c, 0, 64, 115
1, 42136, Control_c, 0, 67, 8
1, 42151, Control_c, 0, 64, 127
1, 42166, Control_c, 0, 67, 8
1, 42191, Note_on_c, 0, 71, 0
1, 42209, Note_on_c, 0, 64, 0
1, 42230, Note_on_c, 0, 76, 61
1, 42238, Note_on_c, 0, 67, 57
1, 42260, Note_on_c, 0, 67, 0
1, 42266, Note_on_c, 0, 37, 0
1, 42290, Note_on_c, 0, 76, 0
1, 42383, Note_on_c, 0, 71, 60
1, 42384, Note_on_c, 0, 79, 62
1, 42415, Note_on_c, 0, 71, 0
1, 42483, Note_on_c, 0, 79, 0
1, 42501, Note_on_c, 0, 83, 57
1, 42509, Note_on_c, 0, 76, 34
1, 42534, Note_on_c, 0, 83, 0
1, 42540, Note_on_c, 0, 76, 0
1, 42597, Control_c, 0, 67, 0
1, 42621, Note_on_c, 0, 79, 60
1, 42632, Note_on_c, 0, 88, 62
1, 42656, Note_on_c, 0, 79, 0
1, 42743, Note_on_c, 0, 88, 0
1, 42778, Note_on_c, 0, 91, 56
1, 42779, Note_on_c, 0, 69, 73
1, 42797, Note_on_c, 0, 61, 56
1, 42806, Note_on_c, 0, 64, 56
1, 42809, Note_on_c, 0, 85, 54
1, 42834, Note_on_c, 0, 91, 0
1, 42874, Note_on_c, 0, 85, 0
1, 42885, Control_c, 0, 67, 8
1, 42911, Note_on_c, 0, 88, 38
1, 42919, Note_on_c, 0, 79, 56
1, 42935, Note_on_c, 0, 88, 0
1, 42969, Note_on_c, 0, 79, 0
1, 42974, Control_c, 0, 67, 8
1, 43004, Control_c, 0, 67, 9
1, 43048, Control_c, 0, 67, 9
1, 43056, Note_on_c, 0, 85, 52
1, 43062, Control_c, 0, 67, 10
1, 43080, Note_on_c, 0, 69, 0
1, 43083, Note_on_c, 0, 76, 53
1, 43092, Control_c, 0, 67, 10
1, 43134, Note_on_c, 0, 85, 0
1, 43170, Note_on_c, 0, 61, 0
1, 43198, Note_on_c, 0, 67, 78
1, 43203, Note_on_c, 0, 73, 64
1, 43210, Note_on_c, 0, 76, 0
1, 43218, Note_on_c, 0, 79, 56
1, 43225, Note_on_c, 0, 64, 0
1, 43253, Note_on_c, 0, 67, 0
1, 43349, Note_on_c, 0, 76, 56
1, 43350, Note_on_c, 0, 73, 0
1, 43458, Note_on_c, 0, 33, 62
1, 43470, Note_on_c, 0, 45, 59
1, 43472, Note_on_c, 0, 76, 0
1, 43476, Note_on_c, 0, 79, 0
1, 43478, Note_on_c, 0, 73, 54
1, 43488, Note_on_c, 0, 33, 0
1, 43507, Note_on_c, 0, 45, 0
1, 43513, Note_on_c, 0, 73, 0
1, 43605, Control_c, 0, 67, 10
1, 43634, Control_c, 0, 67, 9
1, 43664, Control_c, 0, 67, 9
1, 43696, Note_on_c, 0, 66, 72
1, 43726, Note_on_c, 0, 61, 50
1, 43742, Note_on_c, 0, 55, 39
1, 43753, Control_c, 0, 67, 9
1, 43768, Control_c, 0, 67, 10
1, 43783, Control_c, 0, 64, 81
1, 43783, Control_c, 0, 67, 10
1, 43798, Control_c, 0, 64, 60
1, 43798, Control_c, 0, 67, 11
1, 43812, Control_c, 0, 64, 36
1, 43827, Control_c, 0, 64, 20
1, 43827, Control_c, 0, 67, 11
1, 43842, Control_c, 0, 64, 37
1, 43857, Control_c, 0, 64, 56
1, 43858, Note_on_c, 0, 73, 62
1, 43862, Note_on_c, 0, 66, 0
1, 43872, Control_c, 0, 64, 67
1, 43886, Control_c, 0, 64, 78
1, 43901, Control_c, 0, 64, 93
1, 43916, Control_c, 0, 64, 109
1, 43916, Control_c, 0, 67, 11
1, 43931, Control_c, 0, 64, 127
1, 43933, Note_on_c, 0, 73, 0
1, 43946, Control_c, 0, 67, 10
1, 43964, Note_on_c, 0, 67, 65
1, 43975, Control_c, 0, 67, 10
1, 43976, Note_on_c, 0, 76, 59
1, 43994, Note_on_c, 0, 61, 0
1, 44030, Note_on_c, 0, 67, 0
1, 44110, Note_on_c, 0, 64, 74
1, 44121, Note_on_c, 0, 76, 0
1, 44121, Note_on_c, 0, 81, 66
1, 44130, Note_on_c, 0, 73, 46
1, 44150, Note_on_c, 0, 81, 0
1, 44156, Note_on_c, 0, 73, 0
1, 44254, Note_on_c, 0, 76, 63
1, 44263, Note_on_c, 0, 85, 61
1, 44275, Note_on_c, 0, 76, 0
1, 44290, Note_on_c, 0, 85, 0
1, 44293, Note_on_c, 0, 55, 0
1, 44339, Control_c, 0, 67, 9
1, 44380, Note_on_c, 0, 88, 65
1, 44409, Note_on_c, 0, 79, 13
1, 44442, Note_on_c, 0, 88, 0
1, 44459, Note_on_c, 0, 79, 0
1, 44514, Note_on_c, 0, 61, 56
1, 44521, Note_on_c, 0, 93, 66
1, 44531, Note_on_c, 0, 57, 42
1, 44554, Note_on_c, 0, 85, 50
1, 44562, Note_on_c, 0, 55, 25
1, 44580, Note_on_c, 0, 93, 0
1, 44618, Note_on_c, 0, 85, 0
1, 44669, Note_on_c, 0, 79, 49
1, 44695, Note_on_c, 0, 79, 0
1, 44701, Note_on_c, 0, 64, 0
1, 44782, Control_c, 0, 67, 10
1, 44783, Note_on_c, 0, 85, 55
1, 44803, Note_on_c, 0, 76, 48
1, 44860, Note_on_c, 0, 85, 0
1, 44922, Note_on_c, 0, 79, 51
1, 44925, Note_on_c, 0, 73, 57
1, 44937, Note_on_c, 0, 76, 0
1, 44939, Note_on_c, 0, 61, 0
1, 44943, Note_on_c, 0, 62, 69
1, 45094, Note_on_c, 0, 76, 53
1, 45146, Note_on_c, 0, 73, 0
1, 45176, Control_c, 0, 67, 10
1, 45178, Note_on_c, 0, 61, 78
1, 45181, Note_on_c, 0, 55, 0
1, 45195, Note_on_c, 0, 62, 0
1, 45199, Note_on_c, 0, 57, 0
1, 45244, Note_on_c, 0, 61, 0
1, 45296, Note_on_c, 0, 76, 0
1, 45314, Note_on_c, 0, 73, 55
1, 45346, Note_on_c, 0, 79, 0
1, 45360, Note_on_c, 0, 73, 0
1, 45391, Note_on_c, 0, 38, 65
1, 45441, Note_on_c, 0, 38, 0
1, 45443, Control_c, 0, 67, 10
1, 45477, Note_on_c, 0, 45, 54
1, 45487, Control_c, 0, 67, 9
1, 45502, Control_c, 0, 67, 9
1, 45561, Control_c, 0, 67, 8
1, 45575, Note_on_c, 0, 62, 73
1, 45608, Note_on_c, 0, 54, 45
1, 45623, Note_on_c, 0, 45, 0
1, 45649, Control_c, 0, 67, 9
1, 45659, Poly_aftertouch_c, 0, 45, 127
1, 45664, Control_c, 0, 64, 111
1, 45664, Control_c, 0, 67, 10
1, 45679, Control_c, 0, 64, 79
1, 45679, Control_c, 0, 67, 11
1, 45694, Control_c, 0, 64, 61
1, 45694, Control_c, 0, 67, 11
1, 45710, Control_c, 0, 64, 36
1, 45710, Control_c, 0, 67, 12
1, 45725, Control_c, 0, 64, 17
1, 45740, Control_c, 0, 64, 38
1, 45754, Control_c, 0, 64, 58
1, 45769, Note_on_c, 0, 66, 59
1, 45769, Control_c, 0, 64, 68
1, 45772, Note_on_c, 0, 62, 0
1, 45792, Control_c, 0, 64, 78
1, 45806, Control_c, 0, 64, 92
1, 45821, Control_c, 0, 64, 108
1, 45836, Control_c, 0, 64, 127
1, 45836, Control_c, 0, 67, 11
1, 45851, Control_c, 0, 67, 11
1, 45866, Control_c, 0, 67, 10
1, 45877, Note_on_c, 0, 66, 0
1, 45895, Control_c, 0, 67, 10
1, 45899, Note_on_c, 0, 69, 56
1, 45906, Note_on_c, 0, 62, 50
1, 45911, Poly_aftertouch_c, 0, 45, 0
1, 45939, Note_on_c, 0, 62, 0
1, 45972, Note_on_c, 0, 69, 0
1, 45981, Note_on_c, 0, 54, 0
1, 46025, Note_on_c, 0, 74, 58
1, 46025, Note_on_c, 0, 66, 45
1, 46048, Note_on_c, 0, 66, 0
1, 46054, Note_on_c, 0, 74, 0
1, 46153, Note_on_c, 0, 78, 64
1, 46159, Note_on_c, 0, 69, 45
1, 46177, Control_c, 0, 67, 9
1, 46183, Note_on_c, 0, 69, 0
1, 46186, Note_on_c, 0, 78, 0
1, 46275, Note_on_c, 0, 74, 56
1, 46278, Note_on_c, 0, 81, 58
1, 46311, Note_on_c, 0, 81, 0
1, 46311, Note_on_c, 0, 74, 0
1, 46314, Note_on_c, 0, 57, 50
1, 46392, Note_on_c, 0, 62, 45
1, 46422, Note_on_c, 0, 86, 64
1, 46437, Note_on_c, 0, 78, 56
1, 46457, Note_on_c, 0, 66, 51
1, 46469, Note_on_c, 0, 86, 0
1, 46487, Note_on_c, 0, 78, 0
1, 46559, Note_on_c, 0, 74, 56
1, 46561, Note_on_c, 0, 81, 56
1, 46585, Note_on_c, 0, 74, 0
1, 46615, Control_c, 0, 67, 10
1, 46636, Note_on_c, 0, 81, 0
1, 46683, Note_on_c, 0, 66, 0
1, 46697, Note_on_c, 0, 78, 51
1, 46704, Note_on_c, 0, 69, 62
1, 46726, Note_on_c, 0, 78, 0
1, 46734, Note_on_c, 0, 62, 0
1, 46742, Note_on_c, 0, 69, 0
1, 46748, Note_on_c, 0, 57, 0
1, 46807, Control_c, 0, 67, 10
1, 46853, Note_on_c, 0, 74, 53
1, 46872, Note_on_c, 0, 66, 46
1, 46873, Note_on_c, 0, 74, 0
1, 46898, Note_on_c, 0, 66, 0
1, 46925, Control_c, 0, 67, 11
1, 47031, Note_on_c, 0, 64, 68
1, 47104, Note_on_c, 0, 64, 0
1, 47104, Control_c, 0, 67, 10
1, 47111, Note_on_c, 0, 62, 68
1, 47176, Note_on_c, 0, 62, 0
1, 47184, Note_on_c, 0, 61, 71
1, 47193, Control_c, 0, 67, 10
1, 47237, Control_c, 0, 67, 9
1, 47256, Note_on_c, 0, 61, 0
1, 47271, Note_on_c, 0, 62, 75
1, 47289, Control_c, 0, 67, 9
1, 47423, Control_c, 0, 64, 92
1, 47423, Control_c, 0, 67, 9
1, 47436, Note_on_c, 0, 62, 0
1, 47438, Control_c, 0, 64, 69
1, 47438, Control_c, 0, 67, 10
1, 47442, Note_on_c, 0, 35, 48
1, 47453, Note_on_c, 0, 63, 58
1, 47453, Control_c, 0, 64, 48
1, 47453, Control_c, 0, 67, 11
1, 47459, Note_on_c, 0, 57, 50
1, 47464, Note_on_c, 0, 54, 45
1, 47468, Control_c, 0, 64, 0
1, 47483, Control_c, 0, 67, 11
1, 47512, Control_c, 0, 64, 38
1, 47513, Note_on_c, 0, 54, 0
1, 47527, Control_c, 0, 64, 59
1, 47533, Note_on_c, 0, 57, 0
1, 47542, Control_c, 0, 64, 71
1, 47548, Note_on_c, 0, 35, 0
1, 47557, Control_c, 0, 64, 88
1, 47557, Control_c, 0, 67, 11
1, 47572, Control_c, 0, 64, 127
1, 47586, Control_c, 0, 67, 10
1, 47616, Control_c, 0, 67, 10
1, 47652, Note_on_c, 0, 63, 0
1, 47658, Note_on_c, 0, 57, 68
1, 47781, Note_on_c, 0, 54, 49
1, 47784, Note_on_c, 0, 63, 63
1, 47813, Note_on_c, 0, 57, 0
1, 47903, Note_on_c, 0, 54, 0
1, 47913, Note_on_c, 0, 66, 66
1, 47914, Note_on_c, 0, 63, 0
1, 47916, Note_on_c, 0, 57, 49
1, 47927, Control_c, 0, 67, 9
1, 47957, Control_c, 0, 67, 9
1, 47963, Note_on_c, 0, 66, 0
1, 47986, Control_c, 0, 67, 8
1, 48035, Note_on_c, 0, 57, 0
1, 48038, Control_c, 0, 67, 8
1, 48049, Note_on_c, 0, 69, 67
1, 48058, Note_on_c, 0, 63, 56
1, 48067, Control_c, 0, 67, 0
1, 48098, Note_on_c, 0, 63, 0
1, 48168, Note_on_c, 0, 69, 0
1, 48171, Note_on_c, 0, 75, 73
1, 48172, Note_on_c, 0, 66, 56
1, 48201, Note_on_c, 0, 66, 0
1, 48322, Note_on_c, 0, 59, 48
1, 48326, Note_on_c, 0, 78, 68
1, 48330, Note_on_c, 0, 75, 0
1, 48332, Note_on_c, 0, 69, 51
1, 48337, Note_on_c, 0, 63, 46
1, 48382, Note_on_c, 0, 59, 0
1, 48395, Note_on_c, 0, 63, 0
1, 48460, Note_on_c, 0, 75, 67
1, 48469, Note_on_c, 0, 66, 57
1, 48477, Note_on_c, 0, 69, 0
1, 48478, Note_on_c, 0, 78, 0
1, 48558, Note_on_c, 0, 75, 0
1, 48583, Note_on_c, 0, 69, 68
1, 48585, Note_on_c, 0, 63, 61
1, 48601, Note_on_c, 0, 66, 0
1, 48612, Note_on_c, 0, 63, 0
1, 48630, Note_on_c, 0, 69, 0
1, 48730, Note_on_c, 0, 59, 69
1, 48737, Note_on_c, 0, 64, 74
1, 48833, Note_on_c, 0, 59, 0
1, 48836, Note_on_c, 0, 63, 71
1, 48846, Note_on_c, 0, 64, 0
1, 48860, Note_on_c, 0, 57, 62
1, 48943, Note_on_c, 0, 57, 0
1, 48943, Note_on_c, 0, 62, 75
1, 48949, Note_on_c, 0, 63, 0
1, 48958, Note_on_c, 0, 54, 66
1, 48988, Note_on_c, 0, 54, 0
1, 49042, Note_on_c, 0, 62, 0
1, 49044, Note_on_c, 0, 63, 82
1, 49090, Note_on_c, 0, 63, 0
1, 49124, Note_on_c, 0, 45, 68
1, 49218, Note_on_c, 0, 45, 0
1, 49222, Note_on_c, 0, 52, 78
1, 49273, Note_on_c, 0, 52, 0
1, 49474, Note_on_c, 0, 91, 90
1, 49477, Note_on_c, 0, 79, 86
1, 49497, Note_on_c, 0, 60, 59
1, 49505, Note_on_c, 0, 64, 63
1, 49513, Control_c, 0, 64, 99
1, 49535, Control_c, 0, 64, 73
1, 49550, Control_c, 0, 64, 55
1, 49564, Control_c, 0, 64, 0
1, 49594, Control_c, 0, 64, 23
1, 49594, Control_c, 0, 67, 8
1, 49609, Control_c, 0, 64, 56
1, 49609, Control_c, 0, 67, 0
1, 49624, Control_c, 0, 64, 70
1, 49638, Control_c, 0, 64, 83
1, 49647, Note_on_c, 0, 60, 0
1, 49653, Control_c, 0, 64, 122
1, 49668, Control_c, 0, 64, 127
1, 49684, Note_on_c, 0, 64, 0
1, 49789, Note_on_c, 0, 60, 66
1, 49926, Note_on_c, 0, 64, 68
1, 49969, Note_on_c, 0, 60, 0
1, 50010, Note_on_c, 0, 79, 0
1, 50061, Note_on_c, 0, 91, 0
1, 50071, Note_on_c, 0, 64, 0
1, 50073, Note_on_c, 0, 69, 66
1, 50103, Poly_aftertouch_c, 0, 87, 0
1, 50135, Note_on_c, 0, 69, 0
1, 50189, Note_on_c, 0, 72, 65
1, 50222, Note_on_c, 0, 72, 0
1, 50359, Note_on_c, 0, 90, 82
1, 50361, Note_on_c, 0, 78, 76
1, 50365, Note_on_c, 0, 69, 41
1, 50365, Note_on_c, 0, 81, 66
1, 50450, Note_on_c, 0, 81, 0
1, 50488, Note_on_c, 0, 69, 0
1, 50506, Note_on_c, 0, 76, 67
1, 50564, Note_on_c, 0, 90, 0
1, 50588, Note_on_c, 0, 78, 0
1, 50591, Note_on_c, 0, 76, 0
1, 50617, Note_on_c, 0, 72, 71
1, 50650, Note_on_c, 0, 72, 0
1, 50771, Note_on_c, 0, 88, 78
1, 50774, Note_on_c, 0, 76, 73
1, 50782, Note_on_c, 0, 66, 70
1, 50854, Note_on_c, 0, 66, 0
1, 50863, Note_on_c, 0, 64, 72
1, 50943, Note_on_c, 0, 64, 0
1, 50956, Note_on_c, 0, 63, 65
1, 50991, Note_on_c, 0, 88, 0
1, 51013, Note_on_c, 0, 63, 0
1, 51015, Note_on_c, 0, 64, 76
1, 51051, Note_on_c, 0, 64, 0
1, 51073, Note_on_c, 0, 76, 0
1, 51146, Note_on_c, 0, 50, 72
1, 51177, Note_on_c, 0, 50, 0
1, 51266, Note_on_c, 0, 78, 22
1, 51298, Note_on_c, 0, 86, 75
1, 51302, Note_on_c, 0, 74, 70
1, 51326, Note_on_c, 0, 66, 62
1, 51374, Control_c, 0, 64, 85
1, 51389, Control_c, 0, 64, 65
1, 51404, Control_c, 0, 64, 51
1, 51418, Control_c, 0, 64, 48
1, 51433, Control_c, 0, 64, 57
1, 51448, Control_c, 0, 64, 67
1, 51463, Control_c, 0, 64, 77
1, 51468, Note_on_c, 0, 66, 0
1, 51471, Note_on_c, 0, 54, 62
1, 51477, Control_c, 0, 64, 95
1, 51492, Control_c, 0, 64, 127
1, 51593, Note_on_c, 0, 57, 67
1, 51607, Note_on_c, 0, 54, 0
1, 51617, Note_on_c, 0, 74, 0
1, 51641, Note_on_c, 0, 86, 0
1, 51683, Note_on_c, 0, 57, 0
1, 51736, Note_on_c, 0, 84, 78
1, 51737, Note_on_c, 0, 78, 0
1, 51741, Note_on_c, 0, 62, 61
1, 51742, Note_on_c, 0, 72, 72
1, 51798, Note_on_c, 0, 62, 0
1, 51884, Note_on_c, 0, 66, 59
1, 51884, Control_c, 0, 67, 8
1, 51973, Control_c, 0, 67, 8
1, 51977, Note_on_c, 0, 72, 0
1, 52003, Note_on_c, 0, 84, 0
1, 52006, Note_on_c, 0, 69, 69
1, 52014, Note_on_c, 0, 66, 0
1, 52103, Note_on_c, 0, 69, 0
1, 52107, Control_c, 0, 67, 9
1, 52122, Control_c, 0, 67, 10
1, 52137, Control_c, 0, 67, 11
1, 52145, Note_on_c, 0, 83, 82
1, 52147, Note_on_c, 0, 62, 55
1, 52152, Control_c, 0, 67, 11
1, 52154, Note_on_c, 0, 71, 71
1, 52155, Note_on_c, 0, 74, 64
1, 52166, Control_c, 0, 67, 13
1, 52181, Control_c, 0, 67, 15
1, 52196, Control_c, 0, 67, 17
1, 52211, Control_c, 0, 67, 21
1, 52217, Note_on_c, 0, 74, 0
1, 52226, Control_c, 0, 67, 28
1, 52241, Control_c, 0, 67, 36
1, 52249, Note_on_c, 0, 62, 0
1, 52255, Control_c, 0, 67, 47
1, 52270, Control_c, 0, 67, 58
1, 52282, Note_on_c, 0, 69, 62
1, 52285, Control_c, 0, 67, 67
1, 52300, Control_c, 0, 67, 72
1, 52315, Control_c, 0, 67, 76
1, 52330, Control_c, 0, 67, 77
1, 52344, Control_c, 0, 67, 79
1, 52359, Control_c, 0, 67, 80
1, 52363, Note_on_c, 0, 69, 0
1, 52374, Control_c, 0, 67, 81
1, 52389, Control_c, 0, 67, 82
1, 52390, Note_on_c, 0, 83, 0
1, 52398, Note_on_c, 0, 66, 66
1, 52404, Control_c, 0, 67, 82
1, 52410, Note_on_c, 0, 71, 0
1, 52419, Control_c, 0, 67, 84
1, 52434, Control_c, 0, 67, 85
1, 52448, Control_c, 0, 67, 86
1, 52487, Note_on_c, 0, 66, 0
1, 52529, Control_c, 0, 67, 86
1, 52540, Note_on_c, 0, 81, 80
1, 52544, Note_on_c, 0, 67, 61
1, 52547, Note_on_c, 0, 69, 70
1, 52559, Control_c, 0, 67, 85
1, 52574, Control_c, 0, 67, 85
1, 52589, Control_c, 0, 67, 84
1, 52600, Note_on_c, 0, 67, 0
1, 52604, Control_c, 0, 67, 84
1, 52612, Note_on_c, 0, 66, 70
1, 52618, Control_c, 0, 67, 82
1, 52633, Control_c, 0, 67, 82
1, 52663, Control_c, 0, 67, 81
1, 52678, Control_c, 0, 67, 81
1, 52707, Control_c, 0, 67, 80
1, 52711, Note_on_c, 0, 65, 54
1, 52722, Control_c, 0, 67, 80
1, 52753, Note_on_c, 0, 66, 0
1, 52770, Note_on_c, 0, 65, 0
1, 52773, Note_on_c, 0, 66, 48
1, 52786, Note_on_c, 0, 69, 0
1, 52807, Note_on_c, 0, 66, 0
1, 52821, Note_on_c, 0, 81, 0
1, 52825, Control_c, 0, 67, 80
1, 52855, Control_c, 0, 67, 81
1, 52885, Control_c, 0, 67, 80
1, 52960, Control_c, 0, 67, 80
1, 53004, Control_c, 0, 67, 80
1, 53019, Control_c, 0, 67, 81
1, 53045, Note_on_c, 0, 79, 70
1, 53048, Control_c, 0, 67, 81
1, 53050, Note_on_c, 0, 67, 64
1, 53059, Note_on_c, 0, 40, 44
1, 53063, Control_c, 0, 64, 87
1, 53078, Control_c, 0, 64, 67
1, 53078, Control_c, 0, 67, 82
1, 53093, Control_c, 0, 64, 46
1, 53093, Control_c, 0, 67, 82
1, 53108, Control_c, 0, 64, 0
1, 53137, Control_c, 0, 64, 45
1, 53137, Control_c, 0, 67, 82
1, 53152, Control_c, 0, 64, 64
1, 53152, Control_c, 0, 67, 81
1, 53167, Control_c, 0, 64, 78
1, 53167, Control_c, 0, 67, 81
1, 53177, Note_on_c, 0, 40, 0
1, 53182, Control_c, 0, 64, 96
1, 53182, Control_c, 0, 67, 80
1, 53197, Control_c, 0, 64, 127
1, 53197, Control_c, 0, 67, 80
1, 53212, Control_c, 0, 67, 79
1, 53227, Control_c, 0, 67, 79
1, 53241, Control_c, 0, 67, 78
1, 53256, Control_c, 0, 67, 78
1, 53319, Note_on_c, 0, 67, 0
1, 53340, Note_on_c, 0, 55, 58
1, 53382, Control_c, 0, 67, 77
1, 53394, Note_on_c, 0, 79, 0
1, 53432, Note_on_c, 0, 55, 0
1, 53441, Control_c, 0, 67, 78
1, 53456, Note_on_c, 0, 59, 59
1, 53486, Control_c, 0, 67, 77
1, 53515, Control_c, 0, 67, 76
1, 53530, Control_c, 0, 67, 75
1, 53545, Control_c, 0, 67, 74
1, 53560, Control_c, 0, 67, 72
1, 53575, Control_c, 0, 67, 69
1, 53576, Note_on_c, 0, 59, 0
1, 53589, Control_c, 0, 67, 64
1, 53598, Note_on_c, 0, 64, 64
1, 53604, Control_c, 0, 67, 55
1, 53619, Control_c, 0, 67, 42
1, 53634, Control_c, 0, 67, 30
1, 53640, Note_on_c, 0, 64, 0
1, 53648, Control_c, 0, 67, 18
1, 53663, Control_c, 0, 67, 10
1, 53678, Control_c, 0, 67, 0
1, 53721, Note_on_c, 0, 67, 52
1, 53759, Note_on_c, 0, 67, 0
1, 53852, Note_on_c, 0, 71, 58
1, 53923, Note_on_c, 0, 71, 0
1, 54029, Note_on_c, 0, 59, 53
1, 54029, Note_on_c, 0, 76, 47
1, 54039, Note_on_c, 0, 55, 45
1, 54088, Note_on_c, 0, 76, 0
1, 54094, Note_on_c, 0, 55, 0
1, 54100, Note_on_c, 0, 59, 0
1, 54139, Note_on_c, 0, 71, 61
1, 54253, Note_on_c, 0, 71, 0
1, 54267, Note_on_c, 0, 67, 66
1, 54309, Note_on_c, 0, 67, 0
1, 54412, Note_on_c, 0, 64, 59
1, 54473, Note_on_c, 0, 64, 0
1, 54496, Note_on_c, 0, 69, 67
1, 54532, Note_on_c, 0, 59, 62
1, 54568, Note_on_c, 0, 69, 0
1, 54570, Note_on_c, 0, 67, 71
1, 54581, Note_on_c, 0, 59, 0
1, 54622, Note_on_c, 0, 67, 0
1, 54624, Note_on_c, 0, 55, 54
1, 54638, Note_on_c, 0, 66, 72
1, 54647, Note_on_c, 0, 55, 0
1, 54690, Note_on_c, 0, 67, 63
1, 54694, Note_on_c, 0, 66, 0
1, 54817, Note_on_c, 0, 67, 0
1, 54829, Note_on_c, 0, 68, 76
1, 54834, Note_on_c, 0, 59, 76
1, 54836, Control_c, 0, 64, 105
1, 54838, Note_on_c, 0, 38, 59
1, 54840, Note_on_c, 0, 64, 65
1, 54851, Control_c, 0, 64, 76
1, 54866, Control_c, 0, 64, 59
1, 54881, Control_c, 0, 64, 26
1, 54895, Control_c, 0, 64, 0
1, 54925, Control_c, 0, 64, 43
1, 54931, Note_on_c, 0, 38, 0
1, 54940, Control_c, 0, 64, 62
1, 54955, Control_c, 0, 64, 74
1, 54969, Control_c, 0, 64, 91
1, 54984, Control_c, 0, 64, 127
1, 54992, Note_on_c, 0, 59, 0
1, 55042, Note_on_c, 0, 64, 0
1, 55090, Note_on_c, 0, 56, 55
1, 55107, Note_on_c, 0, 68, 0
1, 55224, Note_on_c, 0, 56, 0
1, 55224, Note_on_c, 0, 59, 65
1, 55301, Note_on_c, 0, 59, 0
1, 55352, Note_on_c, 0, 64, 64
1, 55394, Note_on_c, 0, 64, 0
1, 55480, Note_on_c, 0, 68, 58
1, 55596, Note_on_c, 0, 71, 64
1, 55597, Note_on_c, 0, 68, 0
1, 55758, Note_on_c, 0, 76, 65
1, 55762, Note_on_c, 0, 59, 62
1, 55777, Note_on_c, 0, 56, 59
1, 55780, Note_on_c, 0, 71, 0
1, 55838, Note_on_c, 0, 56, 0
1, 55843, Note_on_c, 0, 59, 0
1, 55843, Note_on_c, 0, 76, 0
1, 55883, Note_on_c, 0, 71, 65
1, 55986, Note_on_c, 0, 71, 0
1, 56003, Note_on_c, 0, 68, 66
1, 56063, Note_on_c, 0, 68, 0
1, 56160, Note_on_c, 0, 65, 40
1, 56168, Note_on_c, 0, 64, 49
1, 56197, Note_on_c, 0, 65, 0
1, 56205, Note_on_c, 0, 64, 0
1, 56234, Note_on_c, 0, 69, 68
1, 56266, Note_on_c, 0, 59, 66
1, 56312, Note_on_c, 0, 68, 73
1, 56323, Note_on_c, 0, 69, 0
1, 56357, Note_on_c, 0, 59, 0
1, 56369, Note_on_c, 0, 68, 0
1, 56377, Note_on_c, 0, 67, 74
1, 56378, Note_on_c, 0, 56, 61
1, 56407, Note_on_c, 0, 56, 0
1, 56443, Note_on_c, 0, 68, 74
1, 56445, Note_on_c, 0, 67, 0
1, 56504, Note_on_c, 0, 68, 0
1, 56517, Note_on_c, 0, 64, 78
1, 56593, Note_on_c, 0, 64, 0
1, 56595, Note_on_c, 0, 69, 80
1, 56639, Note_on_c, 0, 69, 0
1, 56829, Note_on_c, 0, 88, 86
1, 56835, Note_on_c, 0, 76, 83
1, 56840, Note_on_c, 0, 36, 48
1, 56866, Control_c, 0, 64, 88
1, 56881, Control_c, 0, 64, 67
1, 56897, Control_c, 0, 64, 48
1, 56912, Control_c, 0, 64, 32
1, 56927, Control_c, 0, 64, 44
1, 56942, Control_c, 0, 64, 61
1, 56957, Control_c, 0, 64, 73
1, 56960, Note_on_c, 0, 36, 0
1, 56971, Control_c, 0, 64, 90
1, 56986, Control_c, 0, 64, 127
1, 57129, Note_on_c, 0, 52, 56
1, 57240, Note_on_c, 0, 52, 0
1, 57260, Note_on_c, 0, 57, 60
1, 57395, Note_on_c, 0, 57, 0
1, 57395, Note_on_c, 0, 60, 64
1, 57456, Note_on_c, 0, 60, 0
1, 57507, Note_on_c, 0, 64, 53
1, 57532, Note_on_c, 0, 88, 0
1, 57535, Note_on_c, 0, 64, 0
1, 57580, Note_on_c, 0, 76, 0
1, 57620, Note_on_c, 0, 69, 53
1, 57648, Note_on_c, 0, 69, 0
1, 57659, Note_on_c, 0, 64, 60
1, 57727, Note_on_c, 0, 69, 64
1, 57731, Note_on_c, 0, 64, 0
1, 57805, Note_on_c, 0, 69, 0
1, 57835, Note_on_c, 0, 86, 79
1, 57836, Note_on_c, 0, 74, 69
1, 57848, Note_on_c, 0, 76, 70
1, 57981, Note_on_c, 0, 72, 66
1, 57987, Note_on_c, 0, 76, 0
1, 58090, Note_on_c, 0, 86, 0
1, 58104, Note_on_c, 0, 69, 69
1, 58105, Note_on_c, 0, 74, 0
1, 58136, Note_on_c, 0, 72, 0
1, 58204, Note_on_c, 0, 69, 0
1, 58240, Note_on_c, 0, 84, 80
1, 58247, Note_on_c, 0, 72, 76
1, 58248, Note_on_c, 0, 71, 72
1, 58330, Note_on_c, 0, 71, 0
1, 58333, Note_on_c, 0, 69, 70
1, 58404, Note_on_c, 0, 69, 0
1, 58410, Note_on_c, 0, 84, 0
1, 58412, Note_on_c, 0, 68, 71
1, 58482, Note_on_c, 0, 69, 76
1, 58484, Note_on_c, 0, 68, 0
1, 58491, Note_on_c, 0, 72, 0
1, 58505, Note_on_c, 0, 69, 0
1, 58718, Note_on_c, 0, 83, 78
1, 58721, Note_on_c, 0, 71, 75
1, 58725, Note_on_c, 0, 74, 67
1, 58730, Note_on_c, 0, 38, 57
1, 58743, Control_c, 0, 64, 82
1, 58758, Control_c, 0, 64, 64
1, 58773, Control_c, 0, 64, 48
1, 58787, Control_c, 0, 64, 52
1, 58802, Control_c, 0, 64, 62
1, 58811, Note_on_c, 0, 38, 0
1, 58817, Control_c, 0, 64, 74
1, 58832, Control_c, 0, 64, 99
1, 58847, Control_c, 0, 64, 127
1, 58947, Note_on_c, 0, 54, 59
1, 59044, Note_on_c, 0, 71, 0
1, 59057, Note_on_c, 0, 57, 65
1, 59060, Note_on_c, 0, 54, 0
1, 59079, Note_on_c, 0, 83, 0
1, 59137, Note_on_c, 0, 57, 0
1, 59194, Note_on_c, 0, 62, 62
1, 59194, Note_on_c, 0, 81, 81
1, 59198, Note_on_c, 0, 74, 0
1, 59204, Note_on_c, 0, 69, 70
1, 59224, Note_on_c, 0, 62, 0
1, 59356, Note_on_c, 0, 66, 49
1, 59390, Note_on_c, 0, 69, 0
1, 59423, Note_on_c, 0, 81, 0
1, 59457, Note_on_c, 0, 69, 54
1, 59460, Note_on_c, 0, 66, 0
1, 59525, Note_on_c, 0, 69, 0
1, 59598, Note_on_c, 0, 62, 61
1, 59602, Note_on_c, 0, 79, 80
1, 59608, Note_on_c, 0, 67, 67
1, 59662, Note_on_c, 0, 62, 0
1, 59667, Note_on_c, 0, 67, 0
1, 59751, Note_on_c, 0, 72, 65
1, 59801, Note_on_c, 0, 79, 0
1, 59824, Note_on_c, 0, 72, 0
1, 59859, Note_on_c, 0, 69, 69
1, 59885, Note_on_c, 0, 69, 0
1, 59989, Note_on_c, 0, 62, 64
1, 60011, Note_on_c, 0, 78, 66
1, 60015, Note_on_c, 0, 76, 68
1, 60047, Note_on_c, 0, 62, 0
1, 60098, Note_on_c, 0, 74, 69
1, 60100, Note_on_c, 0, 60, 58
1, 60121, Note_on_c, 0, 78, 0
1, 60122, Note_on_c, 0, 76, 0
1, 60174, Note_on_c, 0, 60, 0
1, 60196, Note_on_c, 0, 57, 49
1, 60198, Note_on_c, 0, 74, 0
1, 60200, Note_on_c, 0, 73, 80
1, 60223, Note_on_c, 0, 57, 0
1, 60280, Note_on_c, 0, 73, 0
1, 60300, Note_on_c, 0, 74, 70
1, 60322, Note_on_c, 0, 43, 64
1, 60346, Note_on_c, 0, 74, 0
1, 60386, Note_on_c, 0, 43, 0
1, 60409, Note_on_c, 0, 50, 66
1, 60492, Control_c, 0, 64, 83
1, 60507, Control_c, 0, 64, 62
1, 60521, Note_on_c, 0, 79, 74
1, 60521, Note_on_c, 0, 67, 72
1, 60522, Control_c, 0, 64, 32
1, 60527, Note_on_c, 0, 59, 60
1, 60528, Note_on_c, 0, 74, 69
1, 60537, Control_c, 0, 64, 0
1, 60552, Control_c, 0, 64, 17
1, 60566, Control_c, 0, 64, 51
1, 60581, Note_on_c, 0, 79, 0
1, 60581, Control_c, 0, 64, 67
1, 60590, Note_on_c, 0, 67, 0
1, 60596, Control_c, 0, 64, 83
1, 60597, Note_on_c, 0, 74, 0
1, 60611, Control_c, 0, 64, 127
1, 60664, Note_on_c, 0, 59, 0
1, 60665, Note_on_c, 0, 50, 0
1, 60703, Note_on_c, 0, 71, 68
1, 60709, Note_on_c, 0, 62, 61
1, 60711, Note_on_c, 0, 67, 60
1, 60727, Note_on_c, 0, 62, 0
1, 60738, Note_on_c, 0, 71, 0
1, 60739, Note_on_c, 0, 67, 0
1, 60828, Note_on_c, 0, 67, 66
1, 60834, Note_on_c, 0, 74, 67
1, 60856, Note_on_c, 0, 67, 0
1, 60864, Note_on_c, 0, 74, 0
1, 60953, Note_on_c, 0, 71, 65
1, 60954, Note_on_c, 0, 74, 69
1, 60955, Note_on_c, 0, 79, 75
1, 60980, Note_on_c, 0, 74, 0
1, 60980, Note_on_c, 0, 71, 0
1, 60986, Note_on_c, 0, 79, 0
1, 61071, Note_on_c, 0, 74, 68
1, 61076, Note_on_c, 0, 83, 75
1, 61087, Note_on_c, 0, 79, 60
1, 61094, Note_on_c, 0, 74, 0
1, 61105, Note_on_c, 0, 79, 0
1, 61117, Note_on_c, 0, 83, 0
1, 61180, Note_on_c, 0, 59, 60
1, 61184, Note_on_c, 0, 62, 67
1, 61201, Note_on_c, 0, 79, 57
1, 61203, Note_on_c, 0, 86, 71
1, 61213, Note_on_c, 0, 83, 57
1, 61230, Note_on_c, 0, 79, 0
1, 61231, Note_on_c, 0, 83, 0
1, 61241, Note_on_c, 0, 86, 0
1, 61244, Note_on_c, 0, 67, 61
1, 61327, Note_on_c, 0, 83, 73
1, 61337, Note_on_c, 0, 91, 80
1, 61341, Note_on_c, 0, 71, 78
1, 61346, Note_on_c, 0, 86, 66
1, 61364, Note_on_c, 0, 86, 0
1, 61393, Note_on_c, 0, 83, 0
1, 61400, Note_on_c, 0, 91, 0
1, 61436, Note_on_c, 0, 86, 65
1, 61452, Note_on_c, 0, 79, 71
1, 61474, Note_on_c, 0, 86, 0
1, 61476, Note_on_c, 0, 71, 0
1, 61479, Note_on_c, 0, 83, 22
1, 61496, Note_on_c, 0, 79, 0
1, 61526, Note_on_c, 0, 83, 0
1, 61558, Note_on_c, 0, 67, 0
1, 61580, Note_on_c, 0, 59, 0
1, 61596, Note_on_c, 0, 83, 78
1, 61600, Note_on_c, 0, 74, 76
1, 61613, Note_on_c, 0, 62, 0
1, 61625, Note_on_c, 0, 74, 0
1, 61640, Note_on_c, 0, 79, 23
1, 61643, Note_on_c, 0, 83, 0
1, 61669, Note_on_c, 0, 79, 0
1, 61695, Note_on_c, 0, 79, 44
1, 61701, Note_on_c, 0, 74, 70
1, 61709, Note_on_c, 0, 71, 77
1, 61740, Note_on_c, 0, 79, 0
1, 61748, Note_on_c, 0, 71, 0
1, 61749, Note_on_c, 0, 74, 0
1, 61847, Note_on_c, 0, 67, 82
1, 61847, Note_on_c, 0, 74, 72
1, 61880, Note_on_c, 0, 67, 0
1, 61897, Note_on_c, 0, 74, 0
1, 61924, Poly_aftertouch_c, 0, 71, 0
1, 61948, Note_on_c, 0, 40, 69
1, 61948, Note_on_c, 0, 71, 19
1, 61966, Note_on_c, 0, 62, 77
1, 61969, Note_on_c, 0, 67, 74
1, 61997, Note_on_c, 0, 62, 0
1, 62008, Note_on_c, 0, 40, 0
1, 62015, Note_on_c, 0, 47, 77
1, 62017, Note_on_c, 0, 67, 0
1, 62041, Note_on_c, 0, 71, 0
1, 62109, Control_c, 0, 64, 91
1, 62111, Note_on_c, 0, 67, 94
1, 62123, Note_on_c, 0, 55, 79
1, 62123, Control_c, 0, 64, 64
1, 62138, Control_c, 0, 64, 51
1, 62153, Control_c, 0, 64, 53
1, 62168, Control_c, 0, 64, 62
1, 62183, Control_c, 0, 64, 73
1, 62197, Control_c, 0, 64, 91
1, 62212, Control_c, 0, 64, 127
1, 62228, Note_on_c, 0, 71, 75
1, 62238, Note_on_c, 0, 64, 72
1, 62243, Note_on_c, 0, 67, 0
1, 62281, Note_on_c, 0, 64, 0
1, 62289, Note_on_c, 0, 47, 0
1, 62307, Note_on_c, 0, 71, 0
1, 62322, Note_on_c, 0, 55, 0
1, 62363, Note_on_c, 0, 76, 70
1, 62364, Note_on_c, 0, 67, 68
1, 62392, Note_on_c, 0, 67, 0
1, 62399, Note_on_c, 0, 76, 0
1, 62440, Poly_aftertouch_c, 0, 71, 0
1, 62482, Note_on_c, 0, 79, 78
1, 62486, Note_on_c, 0, 71, 66
1, 62488, Note_on_c, 0, 76, 72
1, 62512, Note_on_c, 0, 76, 0
1, 62513, Note_on_c, 0, 71, 0
1, 62513, Note_on_c, 0, 79, 0
1, 62599, Note_on_c, 0, 76, 76
1, 62602, Note_on_c, 0, 83, 78
1, 62621, Note_on_c, 0, 76, 0
1, 62646, Note_on_c, 0, 83, 0
1, 62703, Note_on_c, 0, 55, 64
1, 62707, Note_on_c, 0, 59, 73
1, 62715, Note_on_c, 0, 79, 59
1, 62719, Note_on_c, 0, 88, 83
1, 62721, Note_on_c, 0, 83, 70
1, 62745, Note_on_c, 0, 83, 0
1, 62748, Note_on_c, 0, 79, 0
1, 62771, Note_on_c, 0, 88, 0
1, 62772, Note_on_c, 0, 64, 67
1, 62853, Note_on_c, 0, 67, 82
1, 62855, Note_on_c, 0, 83, 75
1, 62857, Note_on_c, 0, 91, 81
1, 62882, Note_on_c, 0, 88, 52
1, 62905, Note_on_c, 0, 88, 0
1, 62920, Note_on_c, 0, 91, 0
1, 62944, Note_on_c, 0, 83, 0
1, 62958, Note_on_c, 0, 88, 68
1, 62960, Note_on_c, 0, 83, 27
1, 62962, Note_on_c, 0, 79, 73
1, 62982, Note_on_c, 0, 88, 0
1, 63000, Note_on_c, 0, 83, 0
1, 63020, Note_on_c, 0, 79, 0
1, 63049, Note_on_c, 0, 67, 0
1, 63104, Note_on_c, 0, 83, 77
1, 63112, Note_on_c, 0, 76, 83
1, 63141, Note_on_c, 0, 64, 0
1, 63144, Note_on_c, 0, 76, 0
1, 63163, Note_on_c, 0, 83, 0
1, 63174, Note_on_c, 0, 55, 0
1, 63186, Note_on_c, 0, 59, 0
1, 63213, Note_on_c, 0, 79, 68
1, 63219, Note_on_c, 0, 71, 76
1, 63226, Note_on_c, 0, 76, 68
1, 63248, Note_on_c, 0, 79, 0
1, 63249, Note_on_c, 0, 76, 0
1, 63262, Note_on_c, 0, 71, 0
1, 63344, Note_on_c, 0, 76, 73
1, 63353, Note_on_c, 0, 67, 80
1, 63359, Note_on_c, 0, 71, 72
1, 63379, Note_on_c, 0, 67, 0
1, 63380, Note_on_c, 0, 71, 0
1, 63395, Note_on_c, 0, 76, 0
1, 63456, Note_on_c, 0, 71, 77
1, 63463, Note_on_c, 0, 67, 79
1, 63470, Note_on_c, 0, 64, 78
1, 63525, Note_on_c, 0, 64, 0
1, 63541, Note_on_c, 0, 71, 0
1, 63546, Note_on_c, 0, 67, 0
1, 63577, Note_on_c, 0, 45, 90
1, 63581, Note_on_c, 0, 33, 81
1, 63606, Control_c, 0, 64, 110
1, 63621, Control_c, 0, 64, 74
1, 63636, Control_c, 0, 64, 56
1, 63651, Control_c, 0, 64, 51
1, 63666, Control_c, 0, 64, 61
1, 63681, Control_c, 0, 64, 72
1, 63692, Note_on_c, 0, 33, 0
1, 63696, Control_c, 0, 64, 98
1, 63710, Note_on_c, 0, 45, 0
1, 63710, Control_c, 0, 64, 127
1, 63930, Note_on_c, 0, 79, 91
1, 63936, Note_on_c, 0, 67, 80
1, 63951, Note_on_c, 0, 64, 69
1, 63953, Note_on_c, 0, 60, 60
1, 63956, Note_on_c, 0, 52, 58
1, 63956, Note_on_c, 0, 57, 57
1, 63958, Note_on_c, 0, 65, 56
1, 63959, Note_on_c, 0, 65, 0
1, 64034, Note_on_c, 0, 67, 0
1, 64123, Note_on_c, 0, 72, 69
1, 64125, Note_on_c, 0, 69, 63
1, 64140, Note_on_c, 0, 79, 0
1, 64161, Note_on_c, 0, 69, 0
1, 64173, Note_on_c, 0, 72, 0
1, 64244, Note_on_c, 0, 72, 46
1, 64262, Note_on_c, 0, 76, 64
1, 64265, Note_on_c, 0, 72, 0
1, 64310, Note_on_c, 0, 76, 0
1, 64336, Note_on_c, 0, 52, 0
1, 64347, Note_on_c, 0, 64, 0
1, 64363, Note_on_c, 0, 79, 70
1, 64366, Note_on_c, 0, 57, 0
1, 64375, Note_on_c, 0, 76, 6
1, 64387, Note_on_c, 0, 60, 0
1, 64402, Note_on_c, 0, 79, 0
1, 64429, Note_on_c, 0, 76, 0
1, 64522, Note_on_c, 0, 84, 71
1, 64527, Note_on_c, 0, 81, 68
1, 64545, Note_on_c, 0, 84, 0
1, 64551, Note_on_c, 0, 81, 0
1, 64618, Note_on_c, 0, 84, 72
1, 64628, Note_on_c, 0, 88, 66
1, 64645, Note_on_c, 0, 84, 0
1, 64665, Note_on_c, 0, 88, 0
1, 64765, Note_on_c, 0, 78, 85
1, 64770, Note_on_c, 0, 72, 70
1, 64774, Note_on_c, 0, 66, 67
1, 64775, Note_on_c, 0, 91, 62
1, 64776, Note_on_c, 0, 69, 64
1, 64778, Note_on_c, 0, 88, 57
1, 64820, Note_on_c, 0, 91, 0
1, 64824, Note_on_c, 0, 88, 0
1, 64906, Note_on_c, 0, 84, 67
1, 64942, Note_on_c, 0, 69, 0
1, 64945, Note_on_c, 0, 78, 0
1, 64957, Note_on_c, 0, 84, 0
1, 64962, Note_on_c, 0, 72, 0
1, 64981, Note_on_c, 0, 66, 0
1, 65028, Note_on_c, 0, 81, 72
1, 65055, Note_on_c, 0, 81, 0
1, 65152, Note_on_c, 0, 76, 84
1, 65159, Note_on_c, 0, 79, 71
1, 65164, Note_on_c, 0, 64, 70
1, 65189, Note_on_c, 0, 79, 0
1, 65196, Note_on_c, 0, 76, 0
1, 65244, Note_on_c, 0, 64, 0
1, 65280, Note_on_c, 0, 76, 61
1, 65305, Note_on_c, 0, 72, 57
1, 65311, Note_on_c, 0, 76, 0
1, 65325, Note_on_c, 0, 72, 0
1, 65399, Note_on_c, 0, 72, 71
1, 65404, Note_on_c, 0, 69, 70
1, 65435, Note_on_c, 0, 69, 0
1, 65442, Note_on_c, 0, 72, 0
1, 65577, Note_on_c, 0, 38, 56
1, 65583, Note_on_c, 0, 74, 76
1, 65586, Note_on_c, 0, 45, 54
1, 65586, Note_on_c, 0, 62, 82
1, 65586, Note_on_c, 0, 50, 61
1, 65615, Control_c, 0, 64, 80
1, 65630, Control_c, 0, 64, 60
1, 65645, Control_c, 0, 64, 41
1, 65652, Note_on_c, 0, 62, 0
1, 65660, Control_c, 0, 64, 42
1, 65675, Control_c, 0, 64, 55
1, 65690, Control_c, 0, 64, 68
1, 65705, Control_c, 0, 64, 86
1, 65716, Note_on_c, 0, 38, 0
1, 65720, Control_c, 0, 64, 127
1, 65733, Note_on_c, 0, 45, 0
1, 65747, Note_on_c, 0, 66, 63
1, 65750, Note_on_c, 0, 62, 54
1, 65765, Note_on_c, 0, 50, 0
1, 65782, Note_on_c, 0, 62, 0
1, 65783, Note_on_c, 0, 74, 0
1, 65853, Note_on_c, 0, 69, 67
1, 65858, Note_on_c, 0, 66, 0
1, 65910, Note_on_c, 0, 69, 0
1, 65987, Note_on_c, 0, 74, 40
1, 66020, Note_on_c, 0, 60, 49
1, 66022, Note_on_c, 0, 74, 0
1, 66046, Note_on_c, 0, 62, 46
1, 66046, Note_on_c, 0, 72, 74
1, 66076, Note_on_c, 0, 62, 0
1, 66152, Note_on_c, 0, 74, 55
1, 66176, Note_on_c, 0, 78, 56
1, 66180, Note_on_c, 0, 74, 0
1, 66215, Note_on_c, 0, 78, 0
1, 66286, Note_on_c, 0, 81, 63
1, 66325, Note_on_c, 0, 81, 0
1, 66396, Note_on_c, 0, 62, 36
1, 66402, Note_on_c, 0, 66, 58
1, 66417, Note_on_c, 0, 86, 50
1, 66438, Note_on_c, 0, 81, 44
1, 66444, Note_on_c, 0, 72, 0
1, 66459, Note_on_c, 0, 86, 0
1, 66513, Note_on_c, 0, 81, 0
1, 66516, Note_on_c, 0, 60, 0
1, 66529, Note_on_c, 0, 78, 56
1, 66547, Note_on_c, 0, 66, 0
1, 66588, Note_on_c, 0, 78, 0
1, 66610, Note_on_c, 0, 62, 0
1, 66641, Note_on_c, 0, 74, 58
1, 66667, Note_on_c, 0, 74, 0
1, 66796, Note_on_c, 0, 71, 62
1, 66802, Note_on_c, 0, 59, 59
1, 66816, Note_on_c, 0, 74, 48
1, 66841, Note_on_c, 0, 66, 33
1, 66853, Note_on_c, 0, 71, 0
1, 66859, Note_on_c, 0, 74, 0
1, 66870, Note_on_c, 0, 62, 3
1, 66878, Note_on_c, 0, 66, 0
1, 66887, Note_on_c, 0, 59, 0
1, 66906, Note_on_c, 0, 62, 0
1, 67031, Note_on_c, 0, 69, 64
1, 67036, Note_on_c, 0, 57, 61
1, 67059, Note_on_c, 0, 69, 0
1, 67108, Note_on_c, 0, 57, 0
1, 67345, Note_on_c, 0, 67, 64
1, 67352, Note_on_c, 0, 55, 60
1, 67359, Note_on_c, 0, 59, 60
1, 67363, Note_on_c, 0, 43, 44
1, 67380, Control_c, 0, 64, 88
1, 67388, Note_on_c, 0, 50, 42
1, 67394, Control_c, 0, 64, 66
1, 67409, Control_c, 0, 64, 48
1, 67422, Note_on_c, 0, 59, 0
1, 67424, Control_c, 0, 64, 41
1, 67439, Control_c, 0, 64, 50
1, 67449, Note_on_c, 0, 67, 0
1, 67454, Control_c, 0, 64, 62
1, 67468, Control_c, 0, 64, 74
1, 67483, Control_c, 0, 64, 95
1, 67505, Control_c, 0, 64, 127
1, 67549, Note_on_c, 0, 71, 57
1, 67550, Note_on_c, 0, 62, 54
1, 67565, Note_on_c, 0, 43, 0
1, 67572, Note_on_c, 0, 62, 0
1, 67590, Note_on_c, 0, 71, 0
1, 67602, Note_on_c, 0, 55, 0
1, 67612, Note_on_c, 0, 50, 0
1, 67671, Note_on_c, 0, 74, 58
1, 67672, Note_on_c, 0, 67, 36
1, 67699, Note_on_c, 0, 67, 0
1, 67708, Note_on_c, 0, 74, 0
1, 67814, Note_on_c, 0, 79, 62
1, 67818, Note_on_c, 0, 71, 57
1, 67839, Note_on_c, 0, 71, 0
1, 67848, Note_on_c, 0, 79, 0
1, 67925, Note_on_c, 0, 74, 17
1, 67929, Note_on_c, 0, 83, 61
1, 67952, Note_on_c, 0, 74, 0
1, 67962, Note_on_c, 0, 83, 0
1, 68061, Note_on_c, 0, 86, 68
1, 68071, Note_on_c, 0, 83, 46
1, 68074, Note_on_c, 0, 79, 41
1, 68091, Note_on_c, 0, 83, 0
1, 68093, Note_on_c, 0, 86, 0
1, 68101, Note_on_c, 0, 79, 0
1, 68191, Note_on_c, 0, 83, 59
1, 68197, Note_on_c, 0, 67, 57
1, 68198, Note_on_c, 0, 91, 69
1, 68210, Note_on_c, 0, 55, 48
1, 68213, Note_on_c, 0, 62, 47
1, 68219, Note_on_c, 0, 59, 46
1, 68245, Note_on_c, 0, 83, 0
1, 68250, Note_on_c, 0, 91, 0
1, 68308, Note_on_c, 0, 86, 49
1, 68313, Note_on_c, 0, 79, 67
1, 68332, Note_on_c, 0, 67, 0
1, 68334, Note_on_c, 0, 86, 0
1, 68360, Note_on_c, 0, 79, 0
1, 68377, Note_on_c, 0, 62, 0
1, 68410, Note_on_c, 0, 55, 0
1, 68417, Note_on_c, 0, 59, 0
1, 68454, Note_on_c, 0, 83, 57
1, 68463, Note_on_c, 0, 74, 60
1, 68491, Note_on_c, 0, 83, 0
1, 68492, Note_on_c, 0, 74, 0
1, 68559, Note_on_c, 0, 79, 57
1, 68565, Note_on_c, 0, 71, 66
1, 68586, Note_on_c, 0, 79, 0
1, 68602, Note_on_c, 0, 71, 0
1, 68676, Poly_aftertouch_c, 0, 74, 0
1, 68690, Note_on_c, 0, 74, 41
1, 68710, Note_on_c, 0, 67, 61
1, 68741, Note_on_c, 0, 74, 0
1, 68750, Note_on_c, 0, 67, 0
1, 68817, Note_on_c, 0, 71, 60
1, 68820, Note_on_c, 0, 43, 51
1, 68823, Note_on_c, 0, 62, 59
1, 68867, Poly_aftertouch_c, 0, 67, 127
1, 68874, Note_on_c, 0, 50, 54
1, 68878, Note_on_c, 0, 62, 0
1, 68890, Note_on_c, 0, 71, 0
1, 68899, Poly_aftertouch_c, 0, 67, 0
1, 69020, Note_on_c, 0, 62, 70
1, 69021, Note_on_c, 0, 57, 58
1, 69047, Control_c, 0, 64, 92
1, 69062, Control_c, 0, 64, 68
1, 69077, Control_c, 0, 64, 53
1, 69092, Control_c, 0, 64, 46
1, 69107, Control_c, 0, 64, 54
1, 69121, Control_c, 0, 64, 63
1, 69136, Control_c, 0, 64, 72
1, 69151, Control_c, 0, 64, 88
1, 69162, Note_on_c, 0, 66, 66
1, 69166, Control_c, 0, 64, 112
1, 69181, Control_c, 0, 64, 127
1, 69225, Note_on_c, 0, 62, 0
1, 69290, Note_on_c, 0, 69, 63
1, 69324, Note_on_c, 0, 66, 0
1, 69381, Note_on_c, 0, 43, 0
1, 69406, Note_on_c, 0, 69, 0
1, 69410, Note_on_c, 0, 57, 0
1, 69414, Note_on_c, 0, 74, 53
1, 69429, Note_on_c, 0, 50, 0
1, 69440, Note_on_c, 0, 74, 0
1, 69533, Note_on_c, 0, 74, 58
1, 69541, Note_on_c, 0, 78, 63
1, 69562, Note_on_c, 0, 74, 0
1, 69568, Note_on_c, 0, 78, 0
1, 69649, Note_on_c, 0, 78, 61
1, 69654, Note_on_c, 0, 81, 51
1, 69674, Note_on_c, 0, 78, 0
1, 69695, Note_on_c, 0, 81, 0
1, 69804, Note_on_c, 0, 72, 77
1, 69810, Note_on_c, 0, 86, 56
1, 69810, Note_on_c, 0, 81, 58
1, 69821, Note_on_c, 0, 60, 60
1, 69825, Note_on_c, 0, 62, 52
1, 69826, Note_on_c, 0, 66, 54
1, 69889, Note_on_c, 0, 86, 0
1, 69916, Note_on_c, 0, 78, 62
1, 69957, Note_on_c, 0, 81, 0
1, 70015, Note_on_c, 0, 60, 0
1, 70028, Note_on_c, 0, 78, 0
1, 70039, Note_on_c, 0, 74, 53
1, 70049, Note_on_c, 0, 72, 0
1, 70075, Note_on_c, 0, 74, 0
1, 70170, Note_on_c, 0, 66, 0
1, 70178, Note_on_c, 0, 74, 57
1, 70185, Note_on_c, 0, 71, 78
1, 70190, Note_on_c, 0, 62, 0
1, 70192, Note_on_c, 0, 59, 66
1, 70209, Poly_aftertouch_c, 0, 66, 0
1, 70215, Note_on_c, 0, 74, 0
1, 70271, Note_on_c, 0, 71, 0
1, 70328, Note_on_c, 0, 74, 56
1, 70330, Note_on_c, 0, 59, 0
1, 70334, Note_on_c, 0, 66, 56
1, 70361, Note_on_c, 0, 74, 0
1, 70369, Note_on_c, 0, 66, 0
1, 70451, Note_on_c, 0, 66, 56
1, 70465, Note_on_c, 0, 62, 53
1, 70498, Note_on_c, 0, 66, 0
1, 70504, Note_on_c, 0, 43, 56
1, 70510, Note_on_c, 0, 62, 0
1, 70568, Note_on_c, 0, 50, 57
1, 70646, Note_on_c, 0, 55, 76
1, 70656, Note_on_c, 0, 67, 68
1, 70669, Note_on_c, 0, 59, 68
1, 70679, Control_c, 0, 64, 94
1, 70693, Control_c, 0, 64, 71
1, 70708, Control_c, 0, 64, 56
1, 70722, Note_on_c, 0, 59, 0
1, 70723, Control_c, 0, 64, 51
1, 70738, Control_c, 0, 64, 59
1, 70751, Note_on_c, 0, 67, 0
1, 70752, Control_c, 0, 64, 67
1, 70767, Control_c, 0, 64, 78
1, 70782, Control_c, 0, 64, 109
1, 70797, Control_c, 0, 64, 127
1, 70831, Note_on_c, 0, 62, 60
1, 70834, Note_on_c, 0, 71, 60
1, 70853, Note_on_c, 0, 62, 0
1, 70859, Note_on_c, 0, 43, 0
1, 70868, Note_on_c, 0, 71, 0
1, 70898, Poly_aftertouch_c, 0, 67, 127
1, 70931, Note_on_c, 0, 67, 20
1, 70944, Note_on_c, 0, 55, 0
1, 70946, Note_on_c, 0, 50, 0
1, 70951, Note_on_c, 0, 74, 58
1, 70966, Note_on_c, 0, 67, 0
1, 70988, Note_on_c, 0, 74, 0
1, 71083, Note_on_c, 0, 71, 66
1, 71084, Note_on_c, 0, 79, 67
1, 71106, Note_on_c, 0, 74, 38
1, 71113, Note_on_c, 0, 71, 0
1, 71114, Note_on_c, 0, 79, 0
1, 71138, Note_on_c, 0, 74, 0
1, 71205, Note_on_c, 0, 83, 57
1, 71249, Note_on_c, 0, 83, 0
1, 71280, Poly_aftertouch_c, 0, 74, 127
1, 71303, Note_on_c, 0, 69, 65
1, 71305, Poly_aftertouch_c, 0, 74, 0
1, 71311, Note_on_c, 0, 57, 54
1, 71363, Note_on_c, 0, 69, 0
1, 71366, Note_on_c, 0, 57, 0
1, 71375, Note_on_c, 0, 86, 54
1, 71376, Note_on_c, 0, 79, 56
1, 71383, Note_on_c, 0, 83, 41
1, 71405, Note_on_c, 0, 79, 0
1, 71412, Note_on_c, 0, 83, 0
1, 71414, Note_on_c, 0, 86, 0
1, 71527, Note_on_c, 0, 91, 66
1, 71529, Note_on_c, 0, 67, 59
1, 71531, Note_on_c, 0, 83, 53
1, 71543, Note_on_c, 0, 55, 47
1, 71546, Note_on_c, 0, 62, 47
1, 71550, Note_on_c, 0, 59, 43
1, 71560, Control_c, 0, 64, 98
1, 71575, Control_c, 0, 64, 73
1, 71584, Note_on_c, 0, 83, 0
1, 71587, Note_on_c, 0, 91, 0
1, 71590, Control_c, 0, 64, 59
1, 71605, Control_c, 0, 64, 51
1, 71620, Control_c, 0, 64, 56
1, 71635, Control_c, 0, 64, 63
1, 71637, Note_on_c, 0, 86, 44
1, 71646, Note_on_c, 0, 79, 61
1, 71649, Control_c, 0, 64, 71
1, 71661, Note_on_c, 0, 86, 0
1, 71664, Control_c, 0, 64, 82
1, 71679, Control_c, 0, 64, 101
1, 71688, Note_on_c, 0, 79, 0
1, 71693, Control_c, 0, 64, 127
1, 71771, Note_on_c, 0, 83, 63
1, 71773, Note_on_c, 0, 67, 0
1, 71798, Note_on_c, 0, 74, 57
1, 71819, Note_on_c, 0, 83, 0
1, 71830, Note_on_c, 0, 74, 0
1, 71833, Note_on_c, 0, 62, 0
1, 71846, Note_on_c, 0, 55, 0
1, 71852, Note_on_c, 0, 59, 0
1, 71891, Note_on_c, 0, 79, 54
1, 71902, Note_on_c, 0, 71, 62
1, 71917, Note_on_c, 0, 79, 0
1, 71938, Note_on_c, 0, 71, 0
1, 72048, Note_on_c, 0, 67, 62
1, 72050, Note_on_c, 0, 74, 50
1, 72079, Note_on_c, 0, 74, 0
1, 72087, Note_on_c, 0, 67, 0
1, 72153, Note_on_c, 0, 71, 58
1, 72161, Note_on_c, 0, 62, 58
1, 72170, Note_on_c, 0, 43, 47
1, 72215, Note_on_c, 0, 50, 55
1, 72218, Note_on_c, 0, 62, 0
1, 72227, Note_on_c, 0, 71, 0
1, 72346, Note_on_c, 0, 62, 65
1, 72354, Note_on_c, 0, 57, 55
1, 72369, Control_c, 0, 64, 99
1, 72383, Control_c, 0, 64, 74
1, 72398, Control_c, 0, 64, 63
1, 72400, Note_on_c, 0, 62, 0
1, 72413, Control_c, 0, 64, 59
1, 72428, Control_c, 0, 64, 62
1, 72443, Control_c, 0, 64, 68
1, 72457, Control_c, 0, 64, 76
1, 72472, Control_c, 0, 64, 89
1, 72480, Note_on_c, 0, 66, 61
1, 72487, Control_c, 0, 64, 108
1, 72492, Note_on_c, 0, 62, 6
1, 72502, Control_c, 0, 64, 127
1, 72551, Note_on_c, 0, 62, 0
1, 72563, Note_on_c, 0, 66, 0
1, 72606, Note_on_c, 0, 69, 57
1, 72620, Poly_aftertouch_c, 0, 66, 0
1, 72718, Note_on_c, 0, 43, 0
1, 72736, Note_on_c, 0, 74, 53
1, 72742, Note_on_c, 0, 69, 0
1, 72761, Note_on_c, 0, 74, 0
1, 72768, Note_on_c, 0, 50, 0
1, 72775, Note_on_c, 0, 57, 0
1, 72864, Note_on_c, 0, 74, 53
1, 72868, Note_on_c, 0, 78, 57
1, 72898, Note_on_c, 0, 74, 0
1, 72901, Note_on_c, 0, 78, 0
1, 72980, Note_on_c, 0, 81, 52
1, 73014, Note_on_c, 0, 81, 0
1, 73118, Note_on_c, 0, 81, 49
1, 73119, Note_on_c, 0, 72, 56
1, 73120, Note_on_c, 0, 86, 54
1, 73129, Note_on_c, 0, 66, 49
1, 73149, Note_on_c, 0, 60, 42
1, 73155, Note_on_c, 0, 62, 35
1, 73172, Note_on_c, 0, 86, 0
1, 73244, Note_on_c, 0, 78, 59
1, 73275, Note_on_c, 0, 81, 0
1, 73313, Note_on_c, 0, 78, 0
1, 73318, Note_on_c, 0, 60, 0
1, 73336, Note_on_c, 0, 72, 0
1, 73363, Note_on_c, 0, 74, 55
1, 73398, Note_on_c, 0, 74, 0
1, 73464, Note_on_c, 0, 62, 0
1, 73467, Note_on_c, 0, 66, 0
1, 73502, Note_on_c, 0, 71, 68
1, 73513, Note_on_c, 0, 74, 53
1, 73515, Note_on_c, 0, 59, 54
1, 73541, Note_on_c, 0, 74, 0
1, 73563, Note_on_c, 0, 71, 0
1, 73612, Note_on_c, 0, 59, 0
1, 73644, Note_on_c, 0, 74, 51
1, 73670, Note_on_c, 0, 66, 48
1, 73688, Note_on_c, 0, 74, 0
1, 73697, Note_on_c, 0, 66, 0
1, 73779, Note_on_c, 0, 66, 52
1, 73797, Note_on_c, 0, 62, 49
1, 73804, Note_on_c, 0, 43, 56
1, 73823, Note_on_c, 0, 66, 0
1, 73834, Note_on_c, 0, 62, 0
1, 73870, Note_on_c, 0, 50, 53
1, 73968, Note_on_c, 0, 55, 59
1, 73979, Note_on_c, 0, 67, 65
1, 73986, Control_c, 0, 64, 90
1, 73986, Note_on_c, 0, 59, 62
1, 74000, Control_c, 0, 64, 70
1, 74015, Control_c, 0, 64, 59
1, 74027, Note_on_c, 0, 59, 0
1, 74029, Control_c, 0, 64, 57
1, 74044, Control_c, 0, 64, 63
1, 74051, Note_on_c, 0, 67, 0
1, 74059, Control_c, 0, 64, 69
1, 74074, Control_c, 0, 64, 83
1, 74088, Control_c, 0, 64, 122
1, 74103, Control_c, 0, 64, 127
1, 74141, Note_on_c, 0, 43, 0
1, 74141, Note_on_c, 0, 62, 61
1, 74143, Note_on_c, 0, 71, 57
1, 74153, Note_on_c, 0, 67, 29
1, 74167, Note_on_c, 0, 62, 0
1, 74179, Note_on_c, 0, 71, 0
1, 74186, Note_on_c, 0, 50, 0
1, 74189, Note_on_c, 0, 67, 0
1, 74200, Note_on_c, 0, 55, 0
1, 74273, Note_on_c, 0, 74, 56
1, 74302, Note_on_c, 0, 67, 18
1, 74303, Note_on_c, 0, 74, 0
1, 74340, Note_on_c, 0, 67, 0
1, 74391, Note_on_c, 0, 74, 59
1, 74392, Note_on_c, 0, 71, 71
1, 74396, Note_on_c, 0, 79, 68
1, 74415, Note_on_c, 0, 71, 0
1, 74422, Note_on_c, 0, 74, 0
1, 74430, Note_on_c, 0, 79, 0
1, 74520, Note_on_c, 0, 83, 64
1, 74527, Note_on_c, 0, 74, 55
1, 74548, Note_on_c, 0, 74, 0
1, 74553, Note_on_c, 0, 69, 59
1, 74556, Note_on_c, 0, 57, 54
1, 74557, Note_on_c, 0, 83, 0
1, 74621, Note_on_c, 0, 69, 0
1, 74631, Note_on_c, 0, 57, 0
1, 74662, Note_on_c, 0, 86, 65
1, 74667, Note_on_c, 0, 79, 60
1, 74674, Note_on_c, 0, 83, 49
1, 74689, Note_on_c, 0, 79, 0
1, 74696, Note_on_c, 0, 83, 0
1, 74702, Note_on_c, 0, 86, 0
1, 74808, Note_on_c, 0, 83, 50
1, 74809, Note_on_c, 0, 67, 65
1, 74814, Note_on_c, 0, 91, 65
1, 74832, Note_on_c, 0, 86, 27
1, 74832, Note_on_c, 0, 59, 43
1, 74834, Note_on_c, 0, 62, 50
1, 74838, Note_on_c, 0, 55, 49
1, 74852, Control_c, 0, 64, 107
1, 74867, Control_c, 0, 64, 77
1, 74873, Note_on_c, 0, 91, 0
1, 74882, Control_c, 0, 64, 62
1, 74897, Control_c, 0, 64, 55
1, 74904, Note_on_c, 0, 86, 0
1, 74910, Note_on_c, 0, 83, 0
1, 74911, Control_c, 0, 64, 59
1, 74916, Note_on_c, 0, 86, 37
1, 74919, Note_on_c, 0, 79, 64
1, 74926, Control_c, 0, 64, 66
1, 74941, Control_c, 0, 64, 76
1, 74945, Note_on_c, 0, 86, 0
1, 74956, Control_c, 0, 64, 104
1, 74961, Poly_aftertouch_c, 0, 83, 0
1, 74971, Control_c, 0, 64, 127
1, 74984, Note_on_c, 0, 79, 0
1, 75059, Note_on_c, 0, 83, 68
1, 75063, Note_on_c, 0, 67, 0
1, 75077, Note_on_c, 0, 74, 67
1, 75104, Note_on_c, 0, 74, 0
1, 75116, Note_on_c, 0, 62, 0
1, 75120, Note_on_c, 0, 83, 0
1, 75130, Note_on_c, 0, 59, 0
1, 75154, Note_on_c, 0, 55, 0
1, 75173, Note_on_c, 0, 79, 62
1, 75178, Note_on_c, 0, 71, 74
1, 75196, Note_on_c, 0, 74, 41
1, 75198, Note_on_c, 0, 79, 0
1, 75220, Note_on_c, 0, 74, 0
1, 75228, Note_on_c, 0, 71, 0
1, 75300, Note_on_c, 0, 74, 60
1, 75318, Note_on_c, 0, 67, 73
1, 75348, Note_on_c, 0, 67, 0
1, 75364, Note_on_c, 0, 74, 0
1, 75409, Note_on_c, 0, 40, 67
1, 75417, Note_on_c, 0, 71, 70
1, 75427, Note_on_c, 0, 67, 70
1, 75430, Note_on_c, 0, 62, 64
1, 75463, Note_on_c, 0, 62, 0
1, 75470, Note_on_c, 0, 40, 0
1, 75481, Note_on_c, 0, 47, 70
1, 75488, Note_on_c, 0, 67, 0
1, 75496, Note_on_c, 0, 71, 0
1, 75583, Note_on_c, 0, 67, 87
1, 75589, Note_on_c, 0, 55, 75
1, 75601, Control_c, 0, 64, 86
1, 75616, Control_c, 0, 64, 65
1, 75631, Control_c, 0, 64, 53
1, 75646, Control_c, 0, 64, 53
1, 75660, Control_c, 0, 64, 61
1, 75675, Control_c, 0, 64, 71
1, 75690, Control_c, 0, 64, 84
1, 75704, Note_on_c, 0, 71, 72
1, 75705, Note_on_c, 0, 67, 0
1, 75705, Control_c, 0, 64, 112
1, 75714, Note_on_c, 0, 64, 71
1, 75720, Control_c, 0, 64, 127
1, 75756, Note_on_c, 0, 64, 0
1, 75786, Note_on_c, 0, 47, 0
1, 75792, Note_on_c, 0, 71, 0
1, 75815, Note_on_c, 0, 55, 0
1, 75835, Note_on_c, 0, 76, 67
1, 75850, Note_on_c, 0, 67, 57
1, 75868, Note_on_c, 0, 67, 0
1, 75868, Note_on_c, 0, 76, 0
1, 75903, Poly_aftertouch_c, 0, 71, 0
1, 75962, Note_on_c, 0, 79, 73
1, 75964, Note_on_c, 0, 71, 72
1, 75969, Note_on_c, 0, 76, 69
1, 75989, Note_on_c, 0, 71, 0
1, 75989, Note_on_c, 0, 79, 0
1, 75995, Note_on_c, 0, 76, 0
1, 76072, Note_on_c, 0, 76, 74
1, 76076, Note_on_c, 0, 83, 70
1, 76093, Note_on_c, 0, 76, 0
1, 76127, Note_on_c, 0, 83, 0
1, 76175, Note_on_c, 0, 55, 62
1, 76176, Note_on_c, 0, 59, 66
1, 76194, Note_on_c, 0, 79, 55
1, 76203, Note_on_c, 0, 88, 76
1, 76204, Note_on_c, 0, 83, 66
1, 76225, Note_on_c, 0, 79, 0
1, 76228, Note_on_c, 0, 83, 0
1, 76231, Note_on_c, 0, 88, 0
1, 76243, Note_on_c, 0, 64, 67
1, 76340, Note_on_c, 0, 91, 81
1, 76341, Note_on_c, 0, 83, 72
1, 76343, Note_on_c, 0, 67, 80
1, 76401, Note_on_c, 0, 83, 0
1, 76423, Note_on_c, 0, 91, 0
1, 76427, Note_on_c, 0, 88, 48
1, 76453, Note_on_c, 0, 79, 75
1, 76460, Note_on_c, 0, 83, 19
1, 76484, Note_on_c, 0, 88, 0
1, 76506, Note_on_c, 0, 83, 0
1, 76512, Note_on_c, 0, 79, 0
1, 76564, Note_on_c, 0, 67, 0
1, 76589, Note_on_c, 0, 83, 71
1, 76609, Note_on_c, 0, 76, 74
1, 76634, Note_on_c, 0, 76, 0
1, 76651, Note_on_c, 0, 83, 0
1, 76695, Note_on_c, 0, 64, 0
1, 76701, Note_on_c, 0, 55, 0
1, 76708, Note_on_c, 0, 79, 71
1, 76711, Note_on_c, 0, 71, 74
1, 76716, Note_on_c, 0, 76, 65
1, 76720, Note_on_c, 0, 59, 0
1, 76738, Note_on_c, 0, 79, 0
1, 76744, Note_on_c, 0, 76, 0
1, 76755, Note_on_c, 0, 71, 0
1, 76841, Note_on_c, 0, 76, 72
1, 76855, Note_on_c, 0, 67, 74
1, 76864, Note_on_c, 0, 71, 66
1, 76882, Note_on_c, 0, 67, 0
1, 76887, Note_on_c, 0, 71, 0
1, 76901, Note_on_c, 0, 76, 0
1, 76958, Note_on_c, 0, 67, 75
1, 76967, Note_on_c, 0, 64, 72
1, 76967, Note_on_c, 0, 71, 76
1, 76995, Note_on_c, 0, 64, 0
1, 77014, Note_on_c, 0, 67, 0
1, 77023, Note_on_c, 0, 71, 0
1, 77073, Note_on_c, 0, 45, 87
1, 77077, Note_on_c, 0, 33, 78
1, 77119, Note_on_c, 0, 33, 0
1, 77149, Note_on_c, 0, 45, 0
1, 77415, Note_on_c, 0, 76, 87
1, 77422, Note_on_c, 0, 64, 85
1, 77433, Note_on_c, 0, 60, 62
1, 77446, Note_on_c, 0, 57, 54
1, 77447, Control_c, 0, 64, 86
1, 77449, Note_on_c, 0, 52, 50
1, 77454, Note_on_c, 0, 54, 47
1, 77462, Control_c, 0, 64, 64
1, 77477, Control_c, 0, 64, 48
1, 77492, Control_c, 0, 64, 47
1, 77506, Control_c, 0, 64, 60
1, 77521, Control_c, 0, 64, 71
1, 77536, Control_c, 0, 64, 87
1, 77540, Note_on_c, 0, 64, 0
1, 77551, Control_c, 0, 64, 127
1, 77631, Note_on_c, 0, 76, 0
1, 77644, Note_on_c, 0, 69, 65
1, 77646, Note_on_c, 0, 66, 62
1, 77712, Note_on_c, 0, 66, 0
1, 77782, Note_on_c, 0, 69, 0
1, 77782, Note_on_c, 0, 72, 63
1, 77879, Note_on_c, 0, 72, 0
1, 77901, Note_on_c, 0, 76, 69
1, 77929, Note_on_c, 0, 76, 0
1, 77971, Note_on_c, 0, 52, 0
1, 78004, Note_on_c, 0, 60, 0
1, 78011, Note_on_c, 0, 54, 0
1, 78019, Note_on_c, 0, 57, 0
1, 78058, Note_on_c, 0, 78, 67
1, 78062, Note_on_c, 0, 81, 65
1, 78085, Note_on_c, 0, 78, 0
1, 78102, Note_on_c, 0, 81, 0
1, 78169, Note_on_c, 0, 84, 59
1, 78196, Note_on_c, 0, 81, 20
1, 78205, Note_on_c, 0, 84, 0
1, 78236, Note_on_c, 0, 81, 0
1, 78314, Note_on_c, 0, 88, 56
1, 78319, Note_on_c, 0, 74, 69
1, 78320, Note_on_c, 0, 84, 57
1, 78333, Note_on_c, 0, 62, 53
1, 78345, Note_on_c, 0, 66, 54
1, 78377, Note_on_c, 0, 88, 0
1, 78444, Note_on_c, 0, 81, 52
1, 78457, Note_on_c, 0, 84, 0
1, 78483, Note_on_c, 0, 81, 0
1, 78513, Note_on_c, 0, 62, 0
1, 78547, Note_on_c, 0, 74, 0
1, 78561, Note_on_c, 0, 78, 61
1, 78605, Note_on_c, 0, 78, 0
1, 78700, Note_on_c, 0, 72, 75
1, 78710, Note_on_c, 0, 76, 62
1, 78719, Note_on_c, 0, 60, 61
1, 78736, Note_on_c, 0, 76, 0
1, 78768, Note_on_c, 0, 72, 0
1, 78812, Note_on_c, 0, 66, 0
1, 78820, Note_on_c, 0, 76, 58
1, 78822, Note_on_c, 0, 60, 0
1, 78845, Note_on_c, 0, 69, 68
1, 78863, Note_on_c, 0, 76, 0
1, 78883, Note_on_c, 0, 69, 0
1, 78964, Note_on_c, 0, 66, 66
1, 78967, Note_on_c, 0, 69, 51
1, 78995, Note_on_c, 0, 66, 0
1, 78996, Note_on_c, 0, 69, 0
1, 79008, Note_on_c, 0, 35, 59
1, 79039, Note_on_c, 0, 35, 0
1, 79171, Note_on_c, 0, 71, 76
1, 79182, Note_on_c, 0, 59, 74
1, 79203, Note_on_c, 0, 42, 46
1, 79203, Note_on_c, 0, 51, 51
1, 79226, Control_c, 0, 64, 86
1, 79241, Control_c, 0, 64, 65
1, 79256, Control_c, 0, 64, 49
1, 79267, Note_on_c, 0, 59, 0
1, 79271, Control_c, 0, 64, 45
1, 79286, Control_c, 0, 64, 56
1, 79301, Control_c, 0, 64, 66
1, 79316, Control_c, 0, 64, 78
1, 79331, Control_c, 0, 64, 110
1, 79345, Control_c, 0, 64, 127
1, 79351, Note_on_c, 0, 63, 62
1, 79352, Note_on_c, 0, 42, 0
1, 79358, Note_on_c, 0, 51, 0
1, 79377, Note_on_c, 0, 71, 0
1, 79433, Poly_aftertouch_c, 0, 59, 0
1, 79454, Note_on_c, 0, 63, 0
1, 79479, Note_on_c, 0, 66, 54
1, 79533, Note_on_c, 0, 66, 0
1, 79597, Note_on_c, 0, 71, 37
1, 79613, Note_on_c, 0, 69, 72
1, 79614, Note_on_c, 0, 57, 61
1, 79623, Note_on_c, 0, 71, 0
1, 79746, Note_on_c, 0, 71, 40
1, 79752, Note_on_c, 0, 75, 62
1, 79781, Note_on_c, 0, 71, 0
1, 79785, Note_on_c, 0, 75, 0
1, 79866, Note_on_c, 0, 78, 59
1, 79910, Note_on_c, 0, 78, 0
1, 79989, Note_on_c, 0, 66, 51
1, 79994, Note_on_c, 0, 83, 50
1, 80001, Note_on_c, 0, 63, 45
1, 80024, Note_on_c, 0, 78, 49
1, 80043, Note_on_c, 0, 57, 0
1, 80052, Note_on_c, 0, 83, 0
1, 80055, Note_on_c, 0, 69, 0
1, 80065, Control_c, 0, 67, 9
1, 80080, Control_c, 0, 67, 11
1, 80095, Control_c, 0, 67, 13
1, 80110, Control_c, 0, 67, 15
1, 80122, Note_on_c, 0, 75, 57
1, 80124, Control_c, 0, 67, 18
1, 80132, Note_on_c, 0, 78, 0
1, 80137, Note_on_c, 0, 63, 0
1, 80139, Control_c, 0, 67, 19
1, 80154, Control_c, 0, 67, 22
1, 80156, Note_on_c, 0, 66, 0
1, 80169, Control_c, 0, 67, 24
1, 80183, Control_c, 0, 67, 28
1, 80185, Note_on_c, 0, 75, 0
1, 80198, Control_c, 0, 67, 32
1, 80213, Control_c, 0, 67, 39
1, 80236, Control_c, 0, 67, 45
1, 80249, Note_on_c, 0, 71, 59
1, 80251, Control_c, 0, 67, 51
1, 80265, Control_c, 0, 67, 56
1, 80276, Note_on_c, 0, 71, 0
1, 80280, Control_c, 0, 67, 61
1, 80295, Control_c, 0, 67, 67
1, 80310, Control_c, 0, 67, 73
1, 80325, Control_c, 0, 67, 78
1, 80339, Control_c, 0, 67, 82
1, 80354, Control_c, 0, 67, 86
1, 80369, Control_c, 0, 67, 89
1, 80383, Control_c, 0, 67, 91
1, 80398, Control_c, 0, 67, 91
1, 80410, Note_on_c, 0, 67, 60
1, 80422, Note_on_c, 0, 55, 53
1, 80428, Control_c, 0, 67, 93
1, 80431, Note_on_c, 0, 71, 44
1, 80443, Control_c, 0, 67, 94
1, 80445, Note_on_c, 0, 63, 45
1, 80454, Note_on_c, 0, 59, 46
1, 80457, Control_c, 0, 67, 97
1, 80472, Control_c, 0, 67, 99
1, 80475, Note_on_c, 0, 71, 0
1, 80480, Note_on_c, 0, 63, 0
1, 80487, Control_c, 0, 67, 99
1, 80499, Note_on_c, 0, 67, 0
1, 80502, Control_c, 0, 67, 100
1, 80512, Note_on_c, 0, 55, 0
1, 80544, Note_on_c, 0, 59, 0
1, 80547, Control_c, 0, 67, 100
1, 80576, Control_c, 0, 67, 101
1, 80591, Control_c, 0, 67, 101
1, 80621, Control_c, 0, 67, 103
1, 80636, Control_c, 0, 67, 103
1, 80650, Control_c, 0, 67, 104
1, 80666, Note_on_c, 0, 66, 60
1, 80669, Note_on_c, 0, 54, 59
1, 80693, Note_on_c, 0, 66, 0
1, 80720, Note_on_c, 0, 54, 0
1, 80724, Control_c, 0, 67, 103
1, 80798, Control_c, 0, 67, 103
1, 80828, Control_c, 0, 67, 102
1, 80888, Control_c, 0, 67, 102
1, 80903, Control_c, 0, 67, 101
1, 80985, Control_c, 0, 67, 101
1, 81014, Control_c, 0, 67, 101
1, 81018, Note_on_c, 0, 64, 59
1, 81028, Note_on_c, 0, 52, 53
1, 81029, Control_c, 0, 67, 102
1, 81030, Note_on_c, 0, 55, 61
1, 81036, Note_on_c, 0, 40, 45
1, 81038, Note_on_c, 0, 47, 44
1, 81044, Control_c, 0, 64, 104
1, 81044, Control_c, 0, 67, 102
1, 81059, Control_c, 0, 64, 75
1, 81059, Control_c, 0, 67, 103
1, 81074, Control_c, 0, 64, 55
1, 81088, Control_c, 0, 64, 40
1, 81102, Note_on_c, 0, 55, 0
1, 81103, Control_c, 0, 64, 45
1, 81118, Control_c, 0, 64, 58
1, 81128, Note_on_c, 0, 64, 0
1, 81132, Control_c, 0, 64, 68
1, 81132, Control_c, 0, 67, 103
1, 81147, Control_c, 0, 64, 82
1, 81147, Control_c, 0, 67, 102
1, 81162, Control_c, 0, 64, 114
1, 81177, Control_c, 0, 64, 127
1, 81177, Control_c, 0, 67, 102
1, 81192, Control_c, 0, 67, 101
1, 81220, Note_on_c, 0, 59, 55
1, 81221, Control_c, 0, 67, 100
1, 81223, Note_on_c, 0, 67, 55
1, 81233, Note_on_c, 0, 40, 0
1, 81236, Control_c, 0, 67, 100
1, 81244, Note_on_c, 0, 59, 0
1, 81251, Control_c, 0, 67, 99
1, 81263, Note_on_c, 0, 67, 0
1, 81280, Note_on_c, 0, 52, 0
1, 81295, Poly_aftertouch_c, 0, 64, 0
1, 81313, Note_on_c, 0, 47, 0
1, 81328, Note_on_c, 0, 64, 24
1, 81343, Note_on_c, 0, 71, 58
1, 81364, Note_on_c, 0, 64, 0
1, 81375, Note_on_c, 0, 71, 0
1, 81483, Note_on_c, 0, 76, 67
1, 81485, Note_on_c, 0, 71, 54
1, 81489, Note_on_c, 0, 67, 60
1, 81510, Note_on_c, 0, 67, 0
1, 81510, Note_on_c, 0, 71, 0
1, 81512, Note_on_c, 0, 76, 0
1, 81562, Control_c, 0, 67, 99
1, 81590, Note_on_c, 0, 71, 58
1, 81603, Note_on_c, 0, 79, 62
1, 81616, Note_on_c, 0, 71, 0
1, 81632, Note_on_c, 0, 79, 0
1, 81667, Control_c, 0, 67, 98
1, 81681, Poly_aftertouch_c, 0, 76, 0
1, 81740, Note_on_c, 0, 83, 65
1, 81742, Note_on_c, 0, 79, 54
1, 81749, Note_on_c, 0, 76, 36
1, 81766, Note_on_c, 0, 79, 0
1, 81771, Note_on_c, 0, 83, 0
1, 81779, Note_on_c, 0, 76, 0
1, 81822, Control_c, 0, 67, 98
1, 81886, Note_on_c, 0, 88, 68
1, 81887, Note_on_c, 0, 79, 52
1, 81888, Note_on_c, 0, 55, 40
1, 81892, Note_on_c, 0, 67, 47
1, 81898, Note_on_c, 0, 64, 42
1, 81903, Note_on_c, 0, 59, 42
1, 81949, Note_on_c, 0, 88, 0
1, 81998, Note_on_c, 0, 83, 61
1, 82000, Control_c, 0, 67, 98
1, 82001, Note_on_c, 0, 76, 66
1, 82004, Note_on_c, 0, 79, 0
1, 82026, Note_on_c, 0, 83, 0
1, 82049, Note_on_c, 0, 67, 0
1, 82054, Note_on_c, 0, 76, 0
1, 82059, Control_c, 0, 67, 99
1, 82089, Control_c, 0, 67, 99
1, 82103, Note_on_c, 0, 64, 0
1, 82133, Control_c, 0, 67, 100
1, 82136, Note_on_c, 0, 59, 0
1, 82136, Note_on_c, 0, 55, 0
1, 82142, Note_on_c, 0, 79, 64
1, 82157, Note_on_c, 0, 71, 64
1, 82178, Note_on_c, 0, 79, 0
1, 82187, Note_on_c, 0, 71, 0
1, 82235, Control_c, 0, 67, 99
1, 82255, Note_on_c, 0, 76, 54
1, 82264, Note_on_c, 0, 67, 63
1, 82276, Note_on_c, 0, 76, 0
1, 82298, Note_on_c, 0, 67, 0
1, 82385, Note_on_c, 0, 71, 40
1, 82407, Note_on_c, 0, 64, 57
1, 82445, Note_on_c, 0, 71, 0
1, 82503, Note_on_c, 0, 64, 0
1, 82522, Note_on_c, 0, 40, 52
1, 82523, Note_on_c, 0, 67, 57
1, 82527, Note_on_c, 0, 59, 55
1, 82540, Poly_aftertouch_c, 0, 64, 127
1, 82540, Control_c, 0, 67, 99
1, 82542, Note_on_c, 0, 64, 19
1, 82562, Note_on_c, 0, 59, 0
1, 82577, Note_on_c, 0, 48, 57
1, 82589, Note_on_c, 0, 64, 0
1, 82607, Note_on_c, 0, 67, 0
1, 82673, Control_c, 0, 67, 99
1, 82686, Note_on_c, 0, 52, 58
1, 82687, Note_on_c, 0, 64, 73
1, 82688, Control_c, 0, 67, 100
1, 82703, Control_c, 0, 67, 100
1, 82717, Control_c, 0, 64, 85
1, 82717, Control_c, 0, 67, 101
1, 82732, Control_c, 0, 64, 66
1, 82747, Control_c, 0, 64, 53
1, 82762, Control_c, 0, 64, 51
1, 82776, Control_c, 0, 64, 58
1, 82791, Control_c, 0, 64, 65
1, 82806, Control_c, 0, 64, 76
1, 82814, Note_on_c, 0, 64, 0
1, 82821, Control_c, 0, 64, 89
1, 82824, Note_on_c, 0, 60, 61
1, 82827, Note_on_c, 0, 69, 63
1, 82836, Control_c, 0, 64, 107
1, 82851, Control_c, 0, 64, 127
1, 82851, Control_c, 0, 67, 100
1, 82855, Note_on_c, 0, 60, 0
1, 82882, Note_on_c, 0, 69, 0
1, 82888, Poly_aftertouch_c, 0, 64, 0
1, 82895, Control_c, 0, 67, 100
1, 82898, Note_on_c, 0, 40, 0
1, 82924, Note_on_c, 0, 52, 0
1, 82942, Note_on_c, 0, 64, 48
1, 82943, Note_on_c, 0, 72, 64
1, 82964, Note_on_c, 0, 64, 0
1, 82964, Note_on_c, 0, 48, 0
1, 82974, Note_on_c, 0, 72, 0
1, 83072, Note_on_c, 0, 76, 67
1, 83080, Note_on_c, 0, 69, 58
1, 83085, Note_on_c, 0, 72, 40
1, 83101, Note_on_c, 0, 69, 0
1, 83102, Note_on_c, 0, 76, 0
1, 83102, Control_c, 0, 67, 99
1, 83109, Note_on_c, 0, 72, 0
1, 83132, Control_c, 0, 67, 99
1, 83188, Note_on_c, 0, 81, 65
1, 83194, Note_on_c, 0, 72, 37
1, 83206, Control_c, 0, 67, 98
1, 83233, Note_on_c, 0, 72, 0
1, 83241, Note_on_c, 0, 81, 0
1, 83322, Note_on_c, 0, 84, 67
1, 83332, Note_on_c, 0, 76, 29
1, 83367, Note_on_c, 0, 76, 0
1, 83374, Note_on_c, 0, 84, 0
1, 83422, Control_c, 0, 67, 98
1, 83466, Control_c, 0, 67, 97
1, 83477, Note_on_c, 0, 69, 76
1, 83480, Note_on_c, 0, 57, 53
1, 83480, Note_on_c, 0, 88, 61
1, 83483, Note_on_c, 0, 64, 54
1, 83487, Note_on_c, 0, 60, 46
1, 83499, Note_on_c, 0, 81, 62
1, 83540, Control_c, 0, 67, 97
1, 83557, Note_on_c, 0, 88, 0
1, 83570, Control_c, 0, 67, 96
1, 83594, Note_on_c, 0, 84, 60
1, 83608, Note_on_c, 0, 76, 62
1, 83614, Control_c, 0, 67, 97
1, 83621, Note_on_c, 0, 84, 0
1, 83630, Note_on_c, 0, 81, 0
1, 83651, Note_on_c, 0, 76, 0
1, 83729, Note_on_c, 0, 57, 0
1, 83732, Note_on_c, 0, 81, 61
1, 83748, Control_c, 0, 67, 97
1, 83751, Note_on_c, 0, 69, 0
1, 83764, Note_on_c, 0, 72, 52
1, 83775, Note_on_c, 0, 76, 39
1, 83799, Note_on_c, 0, 81, 0
1, 83823, Control_c, 0, 67, 98
1, 83831, Note_on_c, 0, 72, 0
1, 83875, Note_on_c, 0, 76, 0
1, 83882, Note_on_c, 0, 67, 80
1, 83894, Note_on_c, 0, 55, 67
1, 83894, Note_on_c, 0, 69, 59
1, 83927, Note_on_c, 0, 69, 0
1, 83942, Note_on_c, 0, 64, 0
1, 83951, Note_on_c, 0, 67, 0
1, 83996, Note_on_c, 0, 60, 0
1, 84017, Note_on_c, 0, 72, 60
1, 84028, Note_on_c, 0, 55, 0
1, 84044, Note_on_c, 0, 64, 60
1, 84083, Control_c, 0, 67, 98
1, 84089, Note_on_c, 0, 72, 0
1, 84095, Note_on_c, 0, 64, 0
1, 84097, Control_c, 0, 67, 98
1, 84154, Note_on_c, 0, 69, 57
1, 84169, Note_on_c, 0, 60, 56
1, 84205, Note_on_c, 0, 40, 58
1, 84227, Note_on_c, 0, 60, 0
1, 84258, Note_on_c, 0, 69, 0
1, 84263, Note_on_c, 0, 47, 56
1, 84275, Control_c, 0, 67, 97
1, 84364, Control_c, 0, 67, 98
1, 84373, Note_on_c, 0, 52, 67
1, 84374, Note_on_c, 0, 64, 75
1, 84394, Control_c, 0, 64, 124
1, 84394, Control_c, 0, 67, 98
1, 84409, Control_c, 0, 64, 84
1, 84423, Control_c, 0, 64, 63
1, 84423, Control_c, 0, 67, 99
1, 84438, Control_c, 0, 64, 43
1, 84453, Control_c, 0, 64, 28
1, 84467, Control_c, 0, 64, 38
1, 84482, Control_c, 0, 64, 57
1, 84496, Control_c, 0, 64, 67
1, 84511, Control_c, 0, 64, 76
1, 84511, Control_c, 0, 67, 98
1, 84526, Control_c, 0, 64, 90
1, 84537, Note_on_c, 0, 59, 62
1, 84541, Control_c, 0, 64, 103
1, 84542, Note_on_c, 0, 67, 60
1, 84556, Control_c, 0, 64, 127
1, 84556, Control_c, 0, 67, 98
1, 84571, Control_c, 0, 67, 97
1, 84583, Note_on_c, 0, 59, 0
1, 84594, Note_on_c, 0, 40, 0
1, 84601, Control_c, 0, 67, 97
1, 84610, Note_on_c, 0, 67, 0
1, 84634, Note_on_c, 0, 64, 0
1, 84644, Note_on_c, 0, 47, 0
1, 84645, Note_on_c, 0, 52, 0
1, 84645, Note_on_c, 0, 64, 47
1, 84645, Control_c, 0, 67, 96
1, 84651, Note_on_c, 0, 71, 61
1, 84678, Note_on_c, 0, 64, 0
1, 84687, Note_on_c, 0, 71, 0
1, 84726, Control_c, 0, 67, 97
1, 84811, Note_on_c, 0, 76, 66
1, 84818, Note_on_c, 0, 67, 60
1, 84824, Note_on_c, 0, 71, 43
1, 84839, Note_on_c, 0, 67, 0
1, 84839, Note_on_c, 0, 76, 0
1, 84849, Note_on_c, 0, 71, 0
1, 84915, Note_on_c, 0, 71, 66
1, 84926, Note_on_c, 0, 79, 59
1, 84943, Note_on_c, 0, 71, 0
1, 84964, Note_on_c, 0, 79, 0
1, 84994, Note_on_c, 0, 54, 59
1, 84997, Note_on_c, 0, 66, 58
1, 85015, Poly_aftertouch_c, 0, 76, 0
1, 85039, Control_c, 0, 67, 97
1, 85044, Note_on_c, 0, 66, 0
1, 85062, Note_on_c, 0, 54, 0
1, 85084, Note_on_c, 0, 83, 64
1, 85097, Note_on_c, 0, 79, 44
1, 85107, Note_on_c, 0, 76, 41
1, 85112, Control_c, 0, 67, 97
1, 85119, Note_on_c, 0, 83, 0
1, 85126, Note_on_c, 0, 79, 0
1, 85134, Note_on_c, 0, 76, 0
1, 85157, Control_c, 0, 67, 96
1, 85231, Control_c, 0, 67, 97
1, 85239, Note_on_c, 0, 88, 68
1, 85241, Note_on_c, 0, 79, 59
1, 85242, Note_on_c, 0, 64, 58
1, 85245, Control_c, 0, 67, 97
1, 85249, Note_on_c, 0, 59, 47
1, 85255, Note_on_c, 0, 52, 44
1, 85260, Control_c, 0, 67, 98
1, 85261, Note_on_c, 0, 55, 43
1, 85275, Control_c, 0, 64, 120
1, 85275, Control_c, 0, 67, 99
1, 85289, Control_c, 0, 64, 85
1, 85289, Control_c, 0, 67, 100
1, 85293, Note_on_c, 0, 88, 0
1, 85304, Control_c, 0, 64, 66
1, 85304, Control_c, 0, 67, 100
1, 85319, Control_c, 0, 64, 50
1, 85334, Control_c, 0, 64, 32
1, 85349, Control_c, 0, 64, 39
1, 85357, Note_on_c, 0, 76, 64
1, 85360, Note_on_c, 0, 83, 51
1, 85364, Control_c, 0, 64, 56
1, 85364, Control_c, 0, 67, 101
1, 85379, Control_c, 0, 64, 68
1, 85382, Note_on_c, 0, 83, 0
1, 85386, Note_on_c, 0, 79, 0
1, 85394, Control_c, 0, 64, 82
1, 85406, Note_on_c, 0, 76, 0
1, 85409, Control_c, 0, 64, 109
1, 85409, Control_c, 0, 67, 100
1, 85424, Control_c, 0, 64, 127
1, 85424, Control_c, 0, 67, 100
1, 85453, Control_c, 0, 67, 99
1, 85475, Control_c, 0, 67, 99
1, 85501, Note_on_c, 0, 79, 63
1, 85517, Note_on_c, 0, 71, 57
1, 85533, Note_on_c, 0, 64, 0
1, 85537, Note_on_c, 0, 79, 0
1, 85548, Note_on_c, 0, 71, 0
1, 85608, Control_c, 0, 67, 99
1, 85611, Note_on_c, 0, 59, 0
1, 85611, Note_on_c, 0, 76, 56
1, 85620, Note_on_c, 0, 55, 0
1, 85626, Note_on_c, 0, 52, 0
1, 85629, Note_on_c, 0, 67, 58
1, 85638, Note_on_c, 0, 76, 0
1, 85649, Note_on_c, 0, 71, 26
1, 85663, Note_on_c, 0, 67, 0
1, 85683, Note_on_c, 0, 71, 0
1, 85757, Control_c, 0, 67, 99
1, 85767, Note_on_c, 0, 71, 57
1, 85773, Note_on_c, 0, 64, 58
1, 85801, Note_on_c, 0, 71, 0
1, 85809, Note_on_c, 0, 64, 0
1, 85876, Note_on_c, 0, 64, 44
1, 85883, Note_on_c, 0, 67, 52
1, 85906, Note_on_c, 0, 59, 47
1, 85918, Note_on_c, 0, 40, 46
1, 85922, Note_on_c, 0, 64, 0
1, 85932, Note_on_c, 0, 59, 0
1, 85952, Note_on_c, 0, 67, 0
1, 85981, Note_on_c, 0, 48, 57
1, 86024, Control_c, 0, 67, 99
1, 86038, Control_c, 0, 67, 100
1, 86053, Control_c, 0, 67, 101
1, 86068, Control_c, 0, 64, 102
1, 86068, Control_c, 0, 67, 101
1, 86072, Note_on_c, 0, 52, 54
1, 86072, Note_on_c, 0, 64, 66
1, 86083, Control_c, 0, 64, 76
1, 86083, Control_c, 0, 67, 102
1, 86098, Control_c, 0, 64, 61
1, 86112, Control_c, 0, 64, 49
1, 86127, Control_c, 0, 64, 50
1, 86142, Control_c, 0, 64, 59
1, 86157, Control_c, 0, 64, 68
1, 86172, Control_c, 0, 64, 78
1, 86172, Control_c, 0, 67, 101
1, 86187, Control_c, 0, 64, 92
1, 86202, Control_c, 0, 64, 105
1, 86202, Control_c, 0, 67, 101
1, 86206, Note_on_c, 0, 60, 59
1, 86219, Note_on_c, 0, 69, 57
1, 86224, Control_c, 0, 64, 117
1, 86238, Control_c, 0, 64, 127
1, 86238, Control_c, 0, 67, 100
1, 86244, Note_on_c, 0, 64, 0
1, 86245, Note_on_c, 0, 60, 0
1, 86253, Control_c, 0, 67, 100
1, 86282, Note_on_c, 0, 69, 0
1, 86312, Control_c, 0, 67, 99
1, 86327, Note_on_c, 0, 40, 0
1, 86330, Note_on_c, 0, 72, 60
1, 86353, Note_on_c, 0, 64, 20
1, 86364, Note_on_c, 0, 72, 0
1, 86370, Note_on_c, 0, 52, 0
1, 86395, Note_on_c, 0, 64, 0
1, 86404, Note_on_c, 0, 48, 0
1, 86471, Note_on_c, 0, 76, 63
1, 86479, Note_on_c, 0, 69, 48
1, 86487, Note_on_c, 0, 72, 35
1, 86503, Note_on_c, 0, 69, 0
1, 86504, Note_on_c, 0, 76, 0
1, 86516, Note_on_c, 0, 72, 0
1, 86536, Control_c, 0, 67, 99
1, 86585, Note_on_c, 0, 81, 61
1, 86620, Note_on_c, 0, 81, 0
1, 86714, Control_c, 0, 67, 98
1, 86717, Note_on_c, 0, 84, 56
1, 86728, Note_on_c, 0, 76, 47
1, 86755, Note_on_c, 0, 76, 0
1, 86764, Note_on_c, 0, 84, 0
1, 86804, Control_c, 0, 67, 98
1, 86823, Poly_aftertouch_c, 0, 81, 0
1, 86866, Note_on_c, 0, 88, 63
1, 86869, Note_on_c, 0, 69, 54
1, 86876, Note_on_c, 0, 64, 50
1, 86882, Note_on_c, 0, 57, 40
1, 86883, Note_on_c, 0, 81, 44
1, 86895, Note_on_c, 0, 60, 49
1, 86946, Note_on_c, 0, 88, 0
1, 86967, Note_on_c, 0, 57, 0
1, 86967, Note_on_c, 0, 57, 3
1, 86997, Note_on_c, 0, 84, 58
1, 87000, Note_on_c, 0, 81, 0
1, 87003, Control_c, 0, 67, 98
1, 87005, Note_on_c, 0, 76, 59
1, 87021, Note_on_c, 0, 84, 0
1, 87045, Note_on_c, 0, 76, 0
1, 87089, Note_on_c, 0, 57, 0
1, 87111, Note_on_c, 0, 69, 0
1, 87138, Note_on_c, 0, 81, 54
1, 87151, Note_on_c, 0, 72, 54
1, 87181, Note_on_c, 0, 76, 32
1, 87199, Note_on_c, 0, 81, 0
1, 87266, Note_on_c, 0, 76, 0
1, 87272, Note_on_c, 0, 72, 0
1, 87285, Control_c, 0, 67, 99
1, 87293, Note_on_c, 0, 67, 61
1, 87293, Note_on_c, 0, 69, 55
1, 87306, Note_on_c, 0, 55, 51
1, 87325, Note_on_c, 0, 69, 0
1, 87343, Poly_aftertouch_c, 0, 76, 0
1, 87357, Note_on_c, 0, 67, 0
1, 87376, Note_on_c, 0, 64, 0
1, 87410, Note_on_c, 0, 60, 0
1, 87411, Note_on_c, 0, 72, 53
1, 87430, Note_on_c, 0, 55, 0
1, 87442, Note_on_c, 0, 64, 46
1, 87492, Note_on_c, 0, 64, 0
1, 87528, Note_on_c, 0, 72, 0
1, 87562, Note_on_c, 0, 69, 56
1, 87578, Note_on_c, 0, 60, 50
1, 87603, Note_on_c, 0, 69, 0
1, 87608, Note_on_c, 0, 60, 0
1, 87626, Control_c, 0, 67, 98
1, 87634, Note_on_c, 0, 40, 53
1, 87719, Note_on_c, 0, 47, 43
1, 87722, Control_c, 0, 67, 98
1, 87811, Control_c, 0, 67, 98
1, 87832, Note_on_c, 0, 64, 56
1, 87841, Control_c, 0, 64, 84
1, 87841, Control_c, 0, 67, 99
1, 87842, Note_on_c, 0, 52, 51
1, 87851, Note_on_c, 0, 55, 54
1, 87856, Control_c, 0, 64, 63
1, 87856, Control_c, 0, 67, 100
1, 87862, Note_on_c, 0, 59, 41
1, 87871, Control_c, 0, 64, 37
1, 87886, Control_c, 0, 64, 12
1, 87900, Control_c, 0, 64, 37
1, 87915, Control_c, 0, 64, 57
1, 87930, Control_c, 0, 64, 66
1, 87945, Control_c, 0, 64, 74
1, 87945, Control_c, 0, 67, 99
1, 87951, Note_on_c, 0, 59, 0
1, 87960, Control_c, 0, 64, 85
1, 87972, Note_on_c, 0, 40, 0
1, 87972, Note_on_c, 0, 64, 0
1, 87974, Control_c, 0, 64, 96
1, 87974, Control_c, 0, 67, 99
1, 87979, Note_on_c, 0, 55, 0
1, 87984, Note_on_c, 0, 47, 0
1, 87989, Control_c, 0, 64, 114
1, 88004, Control_c, 0, 64, 127
1, 88004, Control_c, 0, 67, 98
1, 88009, Poly_aftertouch_c, 0, 64, 127
1, 88021, Note_on_c, 0, 52, 0
1, 88028, Note_on_c, 0, 67, 60
1, 88034, Control_c, 0, 67, 98
1, 88049, Control_c, 0, 67, 97
1, 88060, Poly_aftertouch_c, 0, 64, 0
1, 88062, Note_on_c, 0, 67, 0
1, 88168, Control_c, 0, 67, 98
1, 88180, Note_on_c, 0, 64, 51
1, 88192, Note_on_c, 0, 67, 44
1, 88192, Note_on_c, 0, 71, 46
1, 88213, Control_c, 0, 67, 97
1, 88216, Note_on_c, 0, 67, 0
1, 88226, Note_on_c, 0, 71, 0
1, 88229, Note_on_c, 0, 64, 0
1, 88305, Note_on_c, 0, 76, 61
1, 88341, Note_on_c, 0, 76, 0
1, 88443, Note_on_c, 0, 79, 62
1, 88453, Note_on_c, 0, 64, 41
1, 88458, Note_on_c, 0, 67, 43
1, 88470, Note_on_c, 0, 76, 44
1, 88485, Note_on_c, 0, 79, 0
1, 88494, Note_on_c, 0, 76, 0
1, 88501, Note_on_c, 0, 64, 0
1, 88502, Control_c, 0, 67, 97
1, 88503, Note_on_c, 0, 67, 0
1, 88574, Note_on_c, 0, 83, 55
1, 88576, Control_c, 0, 67, 97
1, 88612, Note_on_c, 0, 83, 0
1, 88670, Poly_aftertouch_c, 0, 79, 0
1, 88739, Note_on_c, 0, 88, 57
1, 88761, Note_on_c, 0, 67, 35
1, 88761, Note_on_c, 0, 71, 37
1, 88765, Note_on_c, 0, 64, 33
1, 88778, Note_on_c, 0, 88, 0
1, 88798, Control_c, 0, 67, 97
1, 88832, Note_on_c, 0, 71, 0
1, 88834, Note_on_c, 0, 64, 0
1, 88837, Note_on_c, 0, 83, 56
1, 88847, Note_on_c, 0, 67, 0
1, 88911, Note_on_c, 0, 79, 60
1, 88919, Note_on_c, 0, 83, 0
1, 88947, Control_c, 0, 67, 97
1, 88965, Note_on_c, 0, 79, 0
1, 88989, Note_on_c, 0, 76, 61
1, 89002, Note_on_c, 0, 71, 32
1, 89016, Note_on_c, 0, 67, 36
1, 89021, Note_on_c, 0, 64, 32
1, 89049, Note_on_c, 0, 76, 0
1, 89050, Control_c, 0, 67, 97
1, 89069, Note_on_c, 0, 67, 0
1, 89075, Note_on_c, 0, 79, 48
1, 89078, Note_on_c, 0, 71, 0
1, 89083, Note_on_c, 0, 64, 0
1, 89094, Control_c, 0, 67, 97
1, 89114, Note_on_c, 0, 79, 0
1, 89134, Note_on_c, 0, 83, 68
1, 89138, Control_c, 0, 67, 97
1, 89160, Note_on_c, 0, 83, 0
1, 89235, Control_c, 0, 67, 97
1, 89248, Note_on_c, 0, 88, 70
1, 89252, Note_on_c, 0, 71, 41
1, 89257, Note_on_c, 0, 67, 38
1, 89270, Note_on_c, 0, 64, 30
1, 89279, Control_c, 0, 67, 97
1, 89306, Note_on_c, 0, 88, 0
1, 89311, Note_on_c, 0, 67, 0
1, 89325, Note_on_c, 0, 71, 0
1, 89326, Note_on_c, 0, 64, 0
1, 89334, Note_on_c, 0, 91, 60
1, 89368, Control_c, 0, 67, 97
1, 89393, Note_on_c, 0, 91, 0
1, 89424, Note_on_c, 0, 95, 58
1, 89442, Control_c, 0, 67, 97
1, 89472, Control_c, 0, 67, 97
1, 89605, Note_on_c, 0, 95, 0
1, 89615, Note_on_c, 0, 100, 69
1, 89637, Note_on_c, 0, 67, 37
1, 89637, Note_on_c, 0, 71, 34
1, 89653, Note_on_c, 0, 64, 29
1, 89695, Note_on_c, 0, 71, 0
1, 89700, Note_on_c, 0, 100, 0
1, 89707, Note_on_c, 0, 67, 0
1, 89728, Note_on_c, 0, 64, 0
1, 89913, Note_on_c, 0, 71, 51
1, 89916, Note_on_c, 0, 67, 45
1, 89924, Note_on_c, 0, 64, 39
1, 89964, Note_on_c, 0, 71, 0
1, 89968, Note_on_c, 0, 67, 0
1, 89979, Note_on_c, 0, 64, 0
1, 90132, Control_c, 0, 67, 98
1, 90146, Note_on_c, 0, 64, 40
1, 90157, Note_on_c, 0, 67, 40
1, 90160, Note_on_c, 0, 71, 38
1, 90196, Note_on_c, 0, 71, 0
1, 90200, Note_on_c, 0, 67, 0
1, 90214, Note_on_c, 0, 64, 0
1, 90235, Control_c, 0, 67, 97
1, 90339, Control_c, 0, 67, 98
1, 90372, Note_on_c, 0, 79, 64
1, 90374, Note_on_c, 0, 64, 46
1, 90391, Note_on_c, 0, 67, 34
1, 90401, Note_on_c, 0, 71, 27
1, 90456, Note_on_c, 0, 71, 0
1, 90493, Note_on_c, 0, 67, 0
1, 90494, Note_on_c, 0, 64, 0
1, 90563, Control_c, 0, 67, 98
1, 90615, Note_on_c, 0, 64, 40
1, 90622, Control_c, 0, 67, 99
1, 90627, Note_on_c, 0, 67, 39
1, 90627, Note_on_c, 0, 71, 12
1, 90674, Note_on_c, 0, 64, 0
1, 90675, Note_on_c, 0, 67, 0
1, 90679, Note_on_c, 0, 71, 0
1, 90713, Note_on_c, 0, 78, 69
1, 90748, Control_c, 0, 67, 99
1, 90792, Note_on_c, 0, 79, 0
1, 90828, Note_on_c, 0, 71, 40
1, 90839, Note_on_c, 0, 67, 47
1, 90840, Note_on_c, 0, 64, 51
1, 90856, Note_on_c, 0, 71, 0
1, 90864, Note_on_c, 0, 67, 0
1, 90878, Note_on_c, 0, 64, 0
1, 91034, Note_on_c, 0, 78, 0
1, 91038, Note_on_c, 0, 67, 39
1, 91059, Control_c, 0, 67, 99
1, 91081, Note_on_c, 0, 71, 53
1, 91083, Note_on_c, 0, 52, 40
1, 91103, Control_c, 0, 67, 99
1, 91147, Note_on_c, 0, 64, 50
1, 91147, Note_on_c, 0, 76, 66
1, 91148, Control_c, 0, 64, 99
1, 91148, Control_c, 0, 67, 100
1, 91162, Control_c, 0, 64, 75
1, 91162, Control_c, 0, 67, 101
1, 91177, Control_c, 0, 64, 59
1, 91177, Control_c, 0, 67, 101
1, 91192, Control_c, 0, 64, 34
1, 91207, Control_c, 0, 64, 12
1, 91207, Control_c, 0, 67, 102
1, 91222, Control_c, 0, 64, 32
1, 91238, Control_c, 0, 64, 54
1, 91253, Control_c, 0, 64, 68
1, 91267, Control_c, 0, 64, 79
1, 91275, Note_on_c, 0, 52, 0
1, 91282, Control_c, 0, 64, 96
1, 91282, Control_c, 0, 67, 101
1, 91283, Note_on_c, 0, 64, 0
1, 91297, Control_c, 0, 64, 127
1, 91297, Control_c, 0, 67, 101
1, 91327, Control_c, 0, 67, 100
1, 91332, Note_on_c, 0, 67, 0
1, 91356, Note_on_c, 0, 71, 0
1, 91379, Note_on_c, 0, 76, 0
1, 91458, Note_on_c, 0, 67, 50
1, 91477, Note_on_c, 0, 64, 39
1, 91482, Control_c, 0, 67, 100
1, 91496, Note_on_c, 0, 71, 31
1, 91510, Note_on_c, 0, 67, 0
1, 91531, Note_on_c, 0, 71, 0
1, 91534, Note_on_c, 0, 64, 0
1, 91571, Control_c, 0, 67, 99
1, 91600, Control_c, 0, 67, 99
1, 91668, Note_on_c, 0, 71, 36
1, 91673, Note_on_c, 0, 64, 45
1, 91677, Note_on_c, 0, 67, 39
1, 91714, Note_on_c, 0, 71, 0
1, 91718, Note_on_c, 0, 67, 0
1, 91723, Note_on_c, 0, 64, 0
1, 91823, Control_c, 0, 67, 98
1, 91856, Note_on_c, 0, 83, 64
1, 91872, Note_on_c, 0, 64, 42
1, 91888, Note_on_c, 0, 67, 26
1, 91889, Note_on_c, 0, 71, 15
1, 91940, Note_on_c, 0, 67, 0
1, 91941, Note_on_c, 0, 71, 0
1, 91979, Note_on_c, 0, 64, 0
1, 92079, Note_on_c, 0, 71, 30
1, 92082, Note_on_c, 0, 64, 36
1, 92082, Note_on_c, 0, 67, 34
1, 92133, Note_on_c, 0, 71, 0
1, 92135, Note_on_c, 0, 67, 0
1, 92147, Note_on_c, 0, 64, 0
1, 92164, Control_c, 0, 67, 98
1, 92169, Note_on_c, 0, 81, 71
1, 92300, Note_on_c, 0, 64, 48
1, 92300, Note_on_c, 0, 71, 35
1, 92303, Note_on_c, 0, 67, 37
1, 92307, Note_on_c, 0, 83, 0
1, 92351, Note_on_c, 0, 71, 0
1, 92354, Note_on_c, 0, 67, 0
1, 92362, Note_on_c, 0, 64, 0
1, 92408, Control_c, 0, 67, 97
1, 92525, Note_on_c, 0, 79, 66
1, 92528, Note_on_c, 0, 64, 44
1, 92534, Note_on_c, 0, 67, 32
1, 92554, Note_on_c, 0, 71, 10
1, 92580, Note_on_c, 0, 81, 0
1, 92590, Note_on_c, 0, 67, 0
1, 92603, Note_on_c, 0, 71, 0
1, 92607, Note_on_c, 0, 64, 0
1, 92661, Control_c, 0, 67, 97
1, 92733, Note_on_c, 0, 71, 35
1, 92742, Note_on_c, 0, 67, 38
1, 92749, Note_on_c, 0, 64, 46
1, 92763, Control_c, 0, 67, 97
1, 92782, Note_on_c, 0, 71, 0
1, 92789, Note_on_c, 0, 67, 0
1, 92795, Note_on_c, 0, 64, 0
1, 92890, Note_on_c, 0, 79, 0
1, 92919, Note_on_c, 0, 81, 54
1, 92936, Note_on_c, 0, 64, 45
1, 92941, Note_on_c, 0, 67, 38
1, 92945, Note_on_c, 0, 71, 33
1, 92992, Note_on_c, 0, 71, 0
1, 92992, Note_on_c, 0, 64, 0
1, 92994, Note_on_c, 0, 67, 0
1, 92994, Note_on_c, 0, 81, 0
1, 93008, Note_on_c, 0, 79, 61
1, 93083, Control_c, 0, 67, 98
1, 93129, Note_on_c, 0, 78, 66
1, 93134, Note_on_c, 0, 64, 47
1, 93140, Note_on_c, 0, 67, 38
1, 93147, Note_on_c, 0, 71, 24
1, 93185, Note_on_c, 0, 67, 0
1, 93189, Note_on_c, 0, 79, 0
1, 93194, Note_on_c, 0, 64, 0
1, 93197, Note_on_c, 0, 71, 0
1, 93260, Control_c, 0, 67, 98
1, 93341, Note_on_c, 0, 71, 34
1, 93342, Note_on_c, 0, 67, 39
1, 93353, Note_on_c, 0, 64, 39
1, 93385, Note_on_c, 0, 67, 0
1, 93385, Note_on_c, 0, 71, 0
1, 93391, Note_on_c, 0, 64, 0
1, 93412, Note_on_c, 0, 76, 71
1, 93468, Note_on_c, 0, 78, 0
1, 93514, Note_on_c, 0, 76, 0
1, 93523, Note_on_c, 0, 71, 39
1, 93529, Note_on_c, 0, 64, 47
1, 93531, Note_on_c, 0, 67, 41
1, 93553, Note_on_c, 0, 71, 0
1, 93557, Note_on_c, 0, 67, 0
1, 93585, Note_on_c, 0, 64, 0
1, 93758, Control_c, 0, 67, 99
1, 93773, Control_c, 0, 67, 99
1, 93788, Control_c, 0, 67, 100
1, 93803, Note_on_c, 0, 79, 63
1, 93803, Control_c, 0, 67, 100
1, 93810, Note_on_c, 0, 64, 49
1, 93818, Control_c, 0, 67, 101
1, 93823, Note_on_c, 0, 72, 48
1, 93830, Note_on_c, 0, 69, 42
1, 93833, Control_c, 0, 64, 85
1, 93833, Control_c, 0, 67, 101
1, 93848, Control_c, 0, 64, 66
1, 93848, Control_c, 0, 67, 102
1, 93862, Control_c, 0, 64, 49
1, 93862, Control_c, 0, 67, 103
1, 93877, Control_c, 0, 64, 21
1, 93892, Control_c, 0, 64, 13
1, 93906, Control_c, 0, 64, 38
1, 93921, Control_c, 0, 64, 54
1, 93925, Note_on_c, 0, 69, 0
1, 93936, Control_c, 0, 64, 64
1, 93936, Control_c, 0, 67, 102
1, 93951, Control_c, 0, 64, 71
1, 93952, Note_on_c, 0, 72, 0
1, 93966, Control_c, 0, 64, 81
1, 93966, Control_c, 0, 67, 102
1, 93980, Control_c, 0, 64, 94
1, 93995, Control_c, 0, 64, 112
1, 93995, Control_c, 0, 67, 101
1, 94010, Control_c, 0, 64, 127
1, 94010, Control_c, 0, 67, 101
1, 94025, Control_c, 0, 67, 100
1, 94040, Control_c, 0, 67, 100
1, 94050, Note_on_c, 0, 69, 42
1, 94053, Note_on_c, 0, 72, 52
1, 94062, Note_on_c, 0, 64, 0
1, 94090, Note_on_c, 0, 69, 0
1, 94097, Note_on_c, 0, 72, 0
1, 94113, Control_c, 0, 67, 99
1, 94232, Note_on_c, 0, 72, 46
1, 94241, Note_on_c, 0, 69, 29
1, 94281, Note_on_c, 0, 72, 0
1, 94283, Note_on_c, 0, 69, 0
1, 94395, Control_c, 0, 67, 99
1, 94459, Note_on_c, 0, 40, 48
1, 94468, Note_on_c, 0, 72, 41
1, 94475, Note_on_c, 0, 78, 53
1, 94494, Note_on_c, 0, 69, 27
1, 94510, Note_on_c, 0, 40, 0
1, 94523, Note_on_c, 0, 79, 0
1, 94571, Note_on_c, 0, 69, 0
1, 94599, Note_on_c, 0, 72, 0
1, 94641, Note_on_c, 0, 78, 0
1, 94692, Note_on_c, 0, 57, 58
1, 94754, Note_on_c, 0, 57, 0
1, 94759, Control_c, 0, 67, 98
1, 94767, Note_on_c, 0, 60, 64
1, 94789, Control_c, 0, 67, 98
1, 94817, Note_on_c, 0, 64, 59
1, 94836, Note_on_c, 0, 60, 0
1, 94858, Note_on_c, 0, 64, 0
1, 94879, Note_on_c, 0, 69, 56
1, 94892, Control_c, 0, 67, 97
1, 94903, Note_on_c, 0, 69, 0
1, 94907, Control_c, 0, 67, 97
1, 94919, Note_on_c, 0, 72, 48
1, 94922, Control_c, 0, 67, 96
1, 94948, Note_on_c, 0, 72, 0
1, 94959, Note_on_c, 0, 76, 63
1, 94966, Control_c, 0, 67, 95
1, 94981, Control_c, 0, 67, 95
1, 94996, Control_c, 0, 67, 94
1, 95003, Note_on_c, 0, 76, 0
1, 95010, Control_c, 0, 67, 93
1, 95014, Note_on_c, 0, 81, 59
1, 95025, Control_c, 0, 67, 92
1, 95040, Control_c, 0, 67, 90
1, 95055, Control_c, 0, 67, 89
1, 95063, Note_on_c, 0, 84, 64
1, 95070, Control_c, 0, 67, 86
1, 95085, Control_c, 0, 67, 80
1, 95100, Control_c, 0, 67, 73
1, 95103, Note_on_c, 0, 81, 0
1, 95114, Control_c, 0, 67, 66
1, 95129, Control_c, 0, 67, 61
1, 95144, Control_c, 0, 67, 58
1, 95182, Note_on_c, 0, 88, 70
1, 95210, Control_c, 0, 67, 57
1, 95212, Note_on_c, 0, 88, 0
1, 95225, Control_c, 0, 67, 56
1, 95241, Control_c, 0, 67, 54
1, 95256, Control_c, 0, 67, 48
1, 95271, Control_c, 0, 67, 40
1, 95286, Control_c, 0, 67, 35
1, 95301, Control_c, 0, 67, 31
1, 95315, Control_c, 0, 67, 31
1, 95363, Note_on_c, 0, 84, 0
1, 95404, Control_c, 0, 67, 31
1, 95448, Note_on_c, 0, 69, 41
1, 95448, Note_on_c, 0, 72, 44
1, 95463, Control_c, 0, 67, 30
1, 95478, Control_c, 0, 67, 29
1, 95485, Note_on_c, 0, 69, 0
1, 95493, Control_c, 0, 67, 28
1, 95497, Note_on_c, 0, 72, 0
1, 95508, Control_c, 0, 67, 26
1, 95523, Control_c, 0, 67, 21
1, 95538, Control_c, 0, 67, 15
1, 95552, Control_c, 0, 67, 9
1, 95567, Control_c, 0, 67, 0
1, 95630, Note_on_c, 0, 72, 50
1, 95641, Note_on_c, 0, 69, 37
1, 95652, Note_on_c, 0, 72, 0
1, 95670, Note_on_c, 0, 69, 0
1, 95830, Note_on_c, 0, 76, 66
1, 95844, Note_on_c, 0, 69, 37
1, 95860, Note_on_c, 0, 60, 36
1, 95861, Note_on_c, 0, 64, 38
1, 95904, Note_on_c, 0, 64, 0
1, 95904, Note_on_c, 0, 69, 0
1, 95919, Note_on_c, 0, 60, 0
1, 96053, Note_on_c, 0, 69, 44
1, 96062, Note_on_c, 0, 64, 45
1, 96084, Note_on_c, 0, 60, 29
1, 96094, Note_on_c, 0, 69, 0
1, 96113, Note_on_c, 0, 64, 0
1, 96116, Note_on_c, 0, 60, 0
1, 96141, Note_on_c, 0, 78, 70
1, 96197, Control_c, 0, 67, 8
1, 96212, Control_c, 0, 67, 8
1, 96227, Control_c, 0, 67, 9
1, 96241, Note_on_c, 0, 76, 0
1, 96250, Note_on_c, 0, 60, 36
1, 96254, Note_on_c, 0, 69, 42
1, 96255, Note_on_c, 0, 64, 49
1, 96256, Control_c, 0, 67, 9
1, 96271, Control_c, 0, 67, 10
1, 96295, Note_on_c, 0, 69, 0
1, 96298, Note_on_c, 0, 64, 0
1, 96301, Control_c, 0, 67, 11
1, 96302, Note_on_c, 0, 60, 0
1, 96346, Control_c, 0, 67, 11
1, 96464, Control_c, 0, 67, 12
1, 96479, Control_c, 0, 67, 12
1, 96493, Control_c, 0, 67, 13
1, 96506, Note_on_c, 0, 71, 64
1, 96508, Control_c, 0, 67, 14
1, 96523, Control_c, 0, 64, 104
1, 96523, Control_c, 0, 67, 15
1, 96533, Note_on_c, 0, 63, 37
1, 96536, Note_on_c, 0, 59, 36
1, 96538, Control_c, 0, 64, 77
1, 96538, Control_c, 0, 67, 15
1, 96543, Note_on_c, 0, 66, 30
1, 96553, Control_c, 0, 64, 60
1, 96553, Control_c, 0, 67, 16
1, 96567, Control_c, 0, 64, 41
1, 96582, Control_c, 0, 64, 32
1, 96582, Control_c, 0, 67, 16
1, 96597, Control_c, 0, 64, 43
1, 96612, Control_c, 0, 64, 58
1, 96612, Control_c, 0, 67, 17
1, 96616, Note_on_c, 0, 59, 0
1, 96618, Note_on_c, 0, 66, 0
1, 96626, Control_c, 0, 64, 67
1, 96641, Control_c, 0, 64, 78
1, 96655, Note_on_c, 0, 63, 0
1, 96656, Control_c, 0, 64, 100
1, 96671, Control_c, 0, 64, 127
1, 96682, Note_on_c, 0, 78, 0
1, 96708, Control_c, 0, 67, 16
1, 96715, Poly_aftertouch_c, 0, 59, 0
1, 96752, Poly_aftertouch_c, 0, 59, 127
1, 96758, Note_on_c, 0, 66, 44
1, 96774, Note_on_c, 0, 63, 38
1, 96792, Note_on_c, 0, 66, 0
1, 96804, Note_on_c, 0, 63, 0
1, 96812, Control_c, 0, 67, 16
1, 96820, Poly_aftertouch_c, 0, 59, 0
1, 96873, Control_c, 0, 67, 15
1, 96934, Note_on_c, 0, 71, 0
1, 96936, Note_on_c, 0, 63, 36
1, 96948, Note_on_c, 0, 72, 55
1, 96958, Note_on_c, 0, 66, 19
1, 96964, Note_on_c, 0, 59, 32
1, 96983, Note_on_c, 0, 63, 0
1, 96995, Note_on_c, 0, 66, 0
1, 97000, Note_on_c, 0, 59, 0
1, 97004, Note_on_c, 0, 72, 0
1, 97007, Note_on_c, 0, 71, 60
1, 97109, Note_on_c, 0, 70, 73
1, 97123, Note_on_c, 0, 71, 0
1, 97128, Note_on_c, 0, 59, 41
1, 97128, Note_on_c, 0, 63, 44
1, 97132, Note_on_c, 0, 66, 28
1, 97174, Note_on_c, 0, 59, 0
1, 97175, Note_on_c, 0, 66, 0
1, 97175, Note_on_c, 0, 63, 0
1, 97307, Note_on_c, 0, 63, 44
1, 97313, Note_on_c, 0, 66, 35
1, 97325, Note_on_c, 0, 59, 38
1, 97348, Note_on_c, 0, 66, 0
1, 97351, Note_on_c, 0, 63, 0
1, 97362, Note_on_c, 0, 59, 0
1, 97387, Note_on_c, 0, 71, 78
1, 97436, Note_on_c, 0, 70, 0
1, 97497, Note_on_c, 0, 63, 51
1, 97505, Note_on_c, 0, 59, 41
1, 97537, Note_on_c, 0, 59, 0
1, 97544, Note_on_c, 0, 63, 0
1, 97592, Poly_aftertouch_c, 0, 66, 0
1, 97620, Control_c, 0, 67, 15
1, 97679, Control_c, 0, 67, 14
1, 97752, Note_on_c, 0, 66, 25
1, 97755, Note_on_c, 0, 72, 64
1, 97761, Note_on_c, 0, 64, 38
1, 97765, Note_on_c, 0, 57, 39
1, 97783, Control_c, 0, 64, 102
1, 97783, Control_c, 0, 67, 15
1, 97798, Control_c, 0, 64, 77
1, 97805, Note_on_c, 0, 71, 0
1, 97813, Control_c, 0, 64, 62
1, 97813, Control_c, 0, 67, 15
1, 97827, Control_c, 0, 64, 41
1, 97842, Control_c, 0, 64, 14
1, 97857, Control_c, 0, 64, 25
1, 97872, Note_on_c, 0, 66, 0
1, 97872, Control_c, 0, 64, 50
1, 97884, Note_on_c, 0, 64, 0
1, 97887, Control_c, 0, 64, 64
1, 97899, Note_on_c, 0, 57, 0
1, 97902, Control_c, 0, 64, 74
1, 97916, Control_c, 0, 64, 88
1, 97926, Poly_aftertouch_c, 0, 57, 0
1, 97931, Control_c, 0, 64, 111
1, 97931, Control_c, 0, 67, 15
1, 97946, Control_c, 0, 64, 127
1, 97961, Control_c, 0, 67, 14
1, 97963, Poly_aftertouch_c, 0, 57, 127
1, 97976, Control_c, 0, 67, 14
1, 97985, Note_on_c, 0, 64, 28
1, 98030, Note_on_c, 0, 64, 0
1, 98054, Poly_aftertouch_c, 0, 57, 0
1, 98072, Poly_aftertouch_c, 0, 66, 0
1, 98109, Control_c, 0, 67, 13
1, 98170, Note_on_c, 0, 57, 40
1, 98170, Note_on_c, 0, 64, 36
1, 98194, Note_on_c, 0, 66, 38
1, 98221, Note_on_c, 0, 57, 0
1, 98227, Note_on_c, 0, 66, 0
1, 98227, Note_on_c, 0, 64, 0
1, 98370, Note_on_c, 0, 57, 45
1, 98373, Note_on_c, 0, 74, 60
1, 98378, Note_on_c, 0, 64, 42
1, 98379, Note_on_c, 0, 66, 25
1, 98422, Note_on_c, 0, 57, 0
1, 98425, Note_on_c, 0, 64, 0
1, 98426, Note_on_c, 0, 66, 0
1, 98495, Note_on_c, 0, 72, 0
1, 98547, Control_c, 0, 67, 14
1, 98576, Control_c, 0, 67, 14
1, 98578, Note_on_c, 0, 57, 40
1, 98580, Note_on_c, 0, 66, 35
1, 98586, Note_on_c, 0, 64, 41
1, 98606, Control_c, 0, 67, 15
1, 98614, Note_on_c, 0, 66, 0
1, 98621, Control_c, 0, 67, 15
1, 98630, Note_on_c, 0, 64, 0
1, 98632, Note_on_c, 0, 57, 0
1, 98636, Control_c, 0, 67, 16
1, 98650, Control_c, 0, 67, 17
1, 98656, Note_on_c, 0, 72, 67
1, 98665, Control_c, 0, 67, 19
1, 98680, Control_c, 0, 67, 21
1, 98695, Control_c, 0, 67, 23
1, 98704, Note_on_c, 0, 74, 0
1, 98709, Control_c, 0, 67, 27
1, 98724, Control_c, 0, 67, 31
1, 98739, Control_c, 0, 67, 36
1, 98754, Control_c, 0, 67, 41
1, 98755, Note_on_c, 0, 57, 32
1, 98761, Note_on_c, 0, 66, 45
1, 98768, Note_on_c, 0, 64, 42
1, 98769, Control_c, 0, 67, 48
1, 98784, Control_c, 0, 67, 54
1, 98792, Note_on_c, 0, 57, 0
1, 98796, Note_on_c, 0, 64, 0
1, 98799, Control_c, 0, 67, 59
1, 98808, Note_on_c, 0, 66, 0
1, 98814, Control_c, 0, 67, 63
1, 98828, Control_c, 0, 67, 67
1, 98843, Control_c, 0, 67, 71
1, 98858, Control_c, 0, 67, 74
1, 98873, Control_c, 0, 67, 78
1, 98888, Control_c, 0, 67, 80
1, 98902, Control_c, 0, 67, 81
1, 98917, Control_c, 0, 67, 81
1, 98954, Control_c, 0, 67, 82
1, 98969, Control_c, 0, 67, 82
1, 98984, Control_c, 0, 67, 83
1, 98999, Control_c, 0, 67, 86
1, 99013, Control_c, 0, 67, 91
1, 99023, Note_on_c, 0, 71, 65
1, 99028, Control_c, 0, 64, 96
1, 99028, Control_c, 0, 67, 97
1, 99030, Note_on_c, 0, 63, 40
1, 99036, Note_on_c, 0, 59, 34
1, 99038, Note_on_c, 0, 66, 34
1, 99043, Control_c, 0, 64, 75
1, 99043, Control_c, 0, 67, 104
1, 99058, Control_c, 0, 64, 60
1, 99058, Control_c, 0, 67, 110
1, 99068, Note_on_c, 0, 72, 0
1, 99073, Control_c, 0, 64, 34
1, 99073, Control_c, 0, 67, 116
1, 99088, Control_c, 0, 64, 0
1, 99088, Control_c, 0, 67, 120
1, 99102, Control_c, 0, 67, 123
1, 99117, Control_c, 0, 64, 27
1, 99117, Control_c, 0, 67, 123
1, 99132, Control_c, 0, 64, 52
1, 99138, Note_on_c, 0, 66, 0
1, 99147, Control_c, 0, 64, 67
1, 99147, Control_c, 0, 67, 123
1, 99162, Control_c, 0, 64, 78
1, 99162, Control_c, 0, 67, 122
1, 99169, Note_on_c, 0, 63, 0
1, 99176, Control_c, 0, 64, 98
1, 99176, Control_c, 0, 67, 122
1, 99191, Control_c, 0, 64, 127
1, 99191, Control_c, 0, 67, 121
1, 99200, Note_on_c, 0, 59, 0
1, 99206, Control_c, 0, 67, 121
1, 99220, Note_on_c, 0, 59, 10
1, 99222, Control_c, 0, 67, 120
1, 99234, Note_on_c, 0, 66, 41
1, 99247, Note_on_c, 0, 63, 25
1, 99251, Control_c, 0, 67, 120
1, 99265, Note_on_c, 0, 66, 0
1, 99282, Note_on_c, 0, 59, 0
1, 99283, Note_on_c, 0, 63, 0
1, 99325, Control_c, 0, 67, 119
1, 99417, Note_on_c, 0, 59, 50
1, 99417, Note_on_c, 0, 63, 42
1, 99420, Note_on_c, 0, 66, 35
1, 99444, Note_on_c, 0, 63, 0
1, 99446, Note_on_c, 0, 59, 0
1, 99453, Note_on_c, 0, 66, 0
1, 99532, Control_c, 0, 67, 119
1, 99700, Note_on_c, 0, 66, 31
1, 99702, Control_c, 0, 67, 118
1, 99707, Note_on_c, 0, 71, 0
1, 99707, Note_on_c, 0, 35, 48
1, 99718, Note_on_c, 0, 59, 40
1, 99720, Note_on_c, 0, 63, 38
1, 99774, Note_on_c, 0, 35, 0
1, 99794, Note_on_c, 0, 59, 0
1, 99863, Note_on_c, 0, 63, 0
1, 99878, Note_on_c, 0, 66, 0
1, 99964, Note_on_c, 0, 59, 53
1, 99976, Note_on_c, 0, 51, 46
1, 100009, Note_on_c, 0, 59, 0
1, 100036, Note_on_c, 0, 63, 50
1, 100051, Note_on_c, 0, 51, 0
1, 100065, Note_on_c, 0, 54, 40
1, 100071, Note_on_c, 0, 63, 0
1, 100091, Note_on_c, 0, 66, 56
1, 100093, Note_on_c, 0, 54, 0
1, 100113, Note_on_c, 0, 66, 0
1, 100123, Note_on_c, 0, 59, 47
1, 100133, Control_c, 0, 67, 118
1, 100149, Note_on_c, 0, 59, 0
1, 100186, Note_on_c, 0, 71, 63
1, 100218, Note_on_c, 0, 71, 0
1, 100224, Note_on_c, 0, 63, 47
1, 100261, Note_on_c, 0, 75, 59
1, 100266, Note_on_c, 0, 63, 0
1, 100281, Control_c, 0, 67, 117
1, 100295, Note_on_c, 0, 75, 0
1, 100298, Note_on_c, 0, 66, 35
1, 100313, Note_on_c, 0, 78, 61
1, 100326, Control_c, 0, 67, 117
1, 100350, Note_on_c, 0, 66, 0
1, 100363, Note_on_c, 0, 78, 0
1, 100370, Control_c, 0, 67, 116
1, 100385, Note_on_c, 0, 59, 49
1, 100394, Note_on_c, 0, 83, 58
1, 100422, Note_on_c, 0, 59, 0
1, 100428, Note_on_c, 0, 83, 0
1, 100429, Control_c, 0, 67, 116
1, 100467, Control_c, 0, 67, 114
1, 100481, Control_c, 0, 67, 112
1, 100496, Control_c, 0, 67, 110
1, 100511, Control_c, 0, 67, 108
1, 100526, Control_c, 0, 67, 105
1, 100541, Control_c, 0, 67, 99
1, 100555, Control_c, 0, 67, 92
1, 100570, Control_c, 0, 67, 82
1, 100585, Control_c, 0, 67, 73
1, 100599, Control_c, 0, 67, 63
1, 100614, Control_c, 0, 67, 52
1, 100629, Control_c, 0, 67, 41
1, 100644, Control_c, 0, 67, 29
1, 100659, Control_c, 0, 67, 19
1, 100663, Note_on_c, 0, 66, 43
1, 100674, Note_on_c, 0, 63, 30
1, 100674, Control_c, 0, 67, 10
1, 100689, Control_c, 0, 67, 0
1, 100697, Note_on_c, 0, 66, 0
1, 100713, Note_on_c, 0, 63, 0
1, 100828, Note_on_c, 0, 63, 49
1, 100830, Note_on_c, 0, 66, 42
1, 100873, Note_on_c, 0, 63, 0
1, 100874, Note_on_c, 0, 66, 0
1, 101026, Note_on_c, 0, 59, 70
1, 101026, Note_on_c, 0, 66, 42
1, 101033, Note_on_c, 0, 63, 46
1, 101075, Note_on_c, 0, 63, 0
1, 101090, Note_on_c, 0, 66, 0
1, 101234, Note_on_c, 0, 66, 50
1, 101240, Note_on_c, 0, 63, 32
1, 101245, Control_c, 0, 67, 8
1, 101276, Note_on_c, 0, 63, 0
1, 101277, Note_on_c, 0, 66, 0
1, 101289, Control_c, 0, 67, 8
1, 101315, Note_on_c, 0, 57, 75
1, 101348, Note_on_c, 0, 59, 0
1, 101349, Control_c, 0, 67, 9
1, 101408, Control_c, 0, 67, 9
1, 101419, Note_on_c, 0, 66, 50
1, 101423, Note_on_c, 0, 57, 0
1, 101424, Note_on_c, 0, 63, 51
1, 101463, Note_on_c, 0, 63, 0
1, 101535, Note_on_c, 0, 66, 0
1, 101661, Control_c, 0, 67, 9
1, 101672, Note_on_c, 0, 55, 73
1, 101695, Note_on_c, 0, 43, 48
1, 101750, Control_c, 0, 64, 85
1, 101750, Control_c, 0, 67, 9
1, 101764, Control_c, 0, 64, 67
1, 101764, Control_c, 0, 67, 10
1, 101779, Control_c, 0, 64, 51
1, 101779, Control_c, 0, 67, 10
1, 101794, Control_c, 0, 64, 27
1, 101794, Control_c, 0, 67, 11
1, 101809, Control_c, 0, 64, 0
1, 101809, Control_c, 0, 67, 11
1, 101824, Control_c, 0, 64, 24
1, 101838, Control_c, 0, 64, 43
1, 101853, Control_c, 0, 64, 58
1, 101868, Control_c, 0, 64, 66
1, 101868, Control_c, 0, 67, 12
1, 101883, Control_c, 0, 64, 73
1, 101891, Note_on_c, 0, 71, 52
1, 101893, Note_on_c, 0, 67, 51
1, 101898, Control_c, 0, 64, 85
1, 101902, Note_on_c, 0, 74, 50
1, 101908, Note_on_c, 0, 43, 0
1, 101912, Control_c, 0, 64, 102
1, 101927, Control_c, 0, 64, 127
1, 101952, Note_on_c, 0, 67, 0
1, 101961, Note_on_c, 0, 74, 0
1, 101965, Note_on_c, 0, 71, 0
1, 101989, Note_on_c, 0, 55, 0
1, 102088, Note_on_c, 0, 67, 44
1, 102093, Note_on_c, 0, 74, 55
1, 102094, Note_on_c, 0, 71, 55
1, 102115, Note_on_c, 0, 67, 0
1, 102131, Note_on_c, 0, 71, 0
1, 102135, Note_on_c, 0, 74, 0
1, 102259, Note_on_c, 0, 62, 72
1, 102282, Note_on_c, 0, 74, 47
1, 102287, Note_on_c, 0, 71, 48
1, 102291, Note_on_c, 0, 67, 46
1, 102328, Note_on_c, 0, 67, 0
1, 102337, Note_on_c, 0, 71, 0
1, 102350, Note_on_c, 0, 74, 0
1, 102465, Note_on_c, 0, 71, 52
1, 102468, Note_on_c, 0, 67, 49
1, 102486, Note_on_c, 0, 74, 52
1, 102504, Note_on_c, 0, 67, 0
1, 102512, Note_on_c, 0, 71, 0
1, 102524, Note_on_c, 0, 74, 0
1, 102543, Control_c, 0, 67, 12
1, 102556, Note_on_c, 0, 60, 80
1, 102595, Note_on_c, 0, 62, 0
1, 102670, Note_on_c, 0, 71, 50
1, 102674, Note_on_c, 0, 67, 50
1, 102675, Note_on_c, 0, 74, 47
1, 102727, Note_on_c, 0, 67, 0
1, 102740, Note_on_c, 0, 71, 0
1, 102755, Note_on_c, 0, 74, 0
1, 102802, Control_c, 0, 67, 12
1, 102890, Note_on_c, 0, 74, 55
1, 102891, Control_c, 0, 67, 12
1, 102895, Note_on_c, 0, 59, 71
1, 102895, Note_on_c, 0, 71, 47
1, 102907, Note_on_c, 0, 67, 46
1, 102920, Control_c, 0, 67, 13
1, 102935, Control_c, 0, 64, 95
1, 102939, Note_on_c, 0, 60, 0
1, 102950, Control_c, 0, 64, 72
1, 102950, Control_c, 0, 67, 13
1, 102957, Note_on_c, 0, 67, 0
1, 102965, Control_c, 0, 64, 54
1, 102975, Note_on_c, 0, 71, 0
1, 102980, Control_c, 0, 64, 37
1, 102980, Control_c, 0, 67, 14
1, 102987, Note_on_c, 0, 74, 0
1, 102994, Control_c, 0, 64, 38
1, 103009, Control_c, 0, 64, 51
1, 103024, Control_c, 0, 64, 61
1, 103039, Control_c, 0, 64, 69
1, 103054, Control_c, 0, 64, 77
1, 103054, Control_c, 0, 67, 14
1, 103068, Control_c, 0, 64, 91
1, 103077, Note_on_c, 0, 67, 50
1, 103083, Control_c, 0, 64, 100
1, 103087, Note_on_c, 0, 74, 43
1, 103092, Note_on_c, 0, 71, 46
1, 103098, Control_c, 0, 64, 105
1, 103098, Control_c, 0, 67, 14
1, 103112, Control_c, 0, 64, 109
1, 103114, Note_on_c, 0, 67, 0
1, 103127, Control_c, 0, 64, 113
1, 103127, Control_c, 0, 67, 13
1, 103128, Note_on_c, 0, 71, 0
1, 103134, Note_on_c, 0, 74, 0
1, 103142, Control_c, 0, 64, 117
1, 103157, Control_c, 0, 64, 122
1, 103172, Control_c, 0, 64, 127
1, 103239, Note_on_c, 0, 67, 56
1, 103240, Note_on_c, 0, 71, 53
1, 103252, Note_on_c, 0, 74, 52
1, 103277, Note_on_c, 0, 74, 0
1, 103277, Control_c, 0, 67, 13
1, 103279, Note_on_c, 0, 71, 0
1, 103280, Note_on_c, 0, 67, 0
1, 103298, Note_on_c, 0, 59, 0
1, 103325, Note_on_c, 0, 60, 65
1, 103336, Control_c, 0, 67, 12
1, 103376, Note_on_c, 0, 60, 0
1, 103380, Control_c, 0, 67, 12
1, 103383, Note_on_c, 0, 59, 71
1, 103491, Note_on_c, 0, 71, 56
1, 103494, Note_on_c, 0, 62, 53
1, 103494, Note_on_c, 0, 57, 70
1, 103497, Note_on_c, 0, 67, 50
1, 103506, Control_c, 0, 64, 113
1, 103521, Control_c, 0, 64, 83
1, 103535, Note_on_c, 0, 59, 0
1, 103536, Control_c, 0, 64, 66
1, 103536, Control_c, 0, 67, 12
1, 103550, Control_c, 0, 64, 52
1, 103565, Control_c, 0, 64, 49
1, 103565, Control_c, 0, 67, 13
1, 103566, Note_on_c, 0, 62, 0
1, 103580, Control_c, 0, 64, 57
1, 103589, Note_on_c, 0, 67, 0
1, 103593, Note_on_c, 0, 71, 0
1, 103595, Control_c, 0, 64, 65
1, 103610, Control_c, 0, 64, 73
1, 103625, Control_c, 0, 64, 84
1, 103640, Control_c, 0, 64, 99
1, 103655, Control_c, 0, 64, 112
1, 103670, Control_c, 0, 64, 127
1, 103691, Note_on_c, 0, 62, 58
1, 103697, Note_on_c, 0, 71, 49
1, 103714, Note_on_c, 0, 67, 46
1, 103738, Note_on_c, 0, 62, 0
1, 103746, Note_on_c, 0, 71, 0
1, 103752, Note_on_c, 0, 67, 0
1, 103761, Note_on_c, 0, 57, 0
1, 103767, Note_on_c, 0, 55, 73
1, 103850, Note_on_c, 0, 55, 0
1, 103881, Note_on_c, 0, 67, 54
1, 103883, Note_on_c, 0, 71, 54
1, 103891, Note_on_c, 0, 62, 45
1, 103920, Note_on_c, 0, 71, 0
1, 103930, Note_on_c, 0, 62, 0
1, 103944, Note_on_c, 0, 67, 0
1, 104055, Control_c, 0, 67, 12
1, 104121, Note_on_c, 0, 59, 69
1, 104125, Note_on_c, 0, 42, 50
1, 104159, Control_c, 0, 64, 119
1, 104173, Control_c, 0, 64, 87
1, 104196, Control_c, 0, 64, 65
1, 104196, Control_c, 0, 67, 13
1, 104211, Control_c, 0, 64, 45
1, 104226, Control_c, 0, 64, 0
1, 104226, Control_c, 0, 67, 13
1, 104255, Control_c, 0, 64, 11
1, 104270, Control_c, 0, 64, 41
1, 104285, Control_c, 0, 64, 57
1, 104300, Control_c, 0, 64, 68
1, 104314, Control_c, 0, 64, 76
1, 104329, Control_c, 0, 64, 88
1, 104340, Note_on_c, 0, 71, 56
1, 104344, Note_on_c, 0, 63, 50
1, 104344, Control_c, 0, 64, 102
1, 104344, Control_c, 0, 67, 13
1, 104356, Note_on_c, 0, 66, 40
1, 104359, Control_c, 0, 64, 127
1, 104373, Control_c, 0, 67, 12
1, 104390, Note_on_c, 0, 66, 0
1, 104400, Note_on_c, 0, 63, 0
1, 104403, Note_on_c, 0, 42, 0
1, 104403, Control_c, 0, 67, 12
1, 104411, Note_on_c, 0, 71, 0
1, 104448, Control_c, 0, 67, 11
1, 104477, Control_c, 0, 67, 11
1, 104543, Note_on_c, 0, 66, 28
1, 104550, Note_on_c, 0, 63, 41
1, 104553, Note_on_c, 0, 71, 47
1, 104566, Control_c, 0, 67, 10
1, 104582, Note_on_c, 0, 71, 0
1, 104583, Note_on_c, 0, 63, 0
1, 104590, Note_on_c, 0, 66, 0
1, 104596, Control_c, 0, 67, 10
1, 104752, Note_on_c, 0, 57, 50
1, 104764, Note_on_c, 0, 66, 39
1, 104770, Note_on_c, 0, 71, 31
1, 104776, Note_on_c, 0, 63, 32
1, 104778, Note_on_c, 0, 57, 0
1, 104781, Note_on_c, 0, 59, 0
1, 104816, Note_on_c, 0, 63, 0
1, 104828, Note_on_c, 0, 66, 0
1, 104831, Note_on_c, 0, 71, 0
1, 104908, Control_c, 0, 67, 10
1, 104979, Note_on_c, 0, 54, 50
1, 105027, Note_on_c, 0, 54, 0
1, 105033, Note_on_c, 0, 57, 58
1, 105093, Note_on_c, 0, 57, 0
1, 105098, Note_on_c, 0, 63, 45
1, 105137, Note_on_c, 0, 63, 0
1, 105151, Note_on_c, 0, 66, 53
1, 105179, Note_on_c, 0, 66, 0
1, 105182, Control_c, 0, 67, 11
1, 105184, Note_on_c, 0, 71, 55
1, 105238, Note_on_c, 0, 71, 0
1, 105256, Note_on_c, 0, 75, 56
1, 105288, Note_on_c, 0, 75, 0
1, 105306, Note_on_c, 0, 78, 59
1, 105327, Note_on_c, 0, 78, 0
1, 105396, Note_on_c, 0, 83, 71
1, 105449, Note_on_c, 0, 83, 0
1, 105503, Note_on_c, 0, 95, 77
1, 105549, Note_on_c, 0, 95, 0
1, 105642, Control_c, 0, 67, 11
1, 105828, Note_on_c, 0, 71, 50
1, 105852, Note_on_c, 0, 63, 42
1, 105857, Control_c, 0, 67, 11
1, 105858, Note_on_c, 0, 66, 39
1, 105881, Note_on_c, 0, 71, 0
1, 105892, Note_on_c, 0, 63, 0
1, 105897, Note_on_c, 0, 66, 0
1, 105945, Control_c, 0, 67, 10
1, 106012, Note_on_c, 0, 66, 42
1, 106018, Note_on_c, 0, 71, 53
1, 106019, Note_on_c, 0, 63, 45
1, 106059, Note_on_c, 0, 63, 0
1, 106069, Note_on_c, 0, 66, 0
1, 106072, Note_on_c, 0, 71, 0
1, 106197, Note_on_c, 0, 57, 72
1, 106214, Note_on_c, 0, 66, 42
1, 106215, Note_on_c, 0, 71, 45
1, 106224, Note_on_c, 0, 63, 43
1, 106266, Note_on_c, 0, 63, 0
1, 106272, Note_on_c, 0, 71, 0
1, 106311, Note_on_c, 0, 66, 0
1, 106390, Control_c, 0, 67, 11
1, 106406, Note_on_c, 0, 63, 44
1, 106409, Note_on_c, 0, 71, 47
1, 106443, Note_on_c, 0, 63, 0
1, 106443, Note_on_c, 0, 66, 38
1, 106457, Note_on_c, 0, 71, 0
1, 106472, Note_on_c, 0, 66, 0
1, 106507, Note_on_c, 0, 59, 75
1, 106519, Note_on_c, 0, 57, 0
1, 106624, Note_on_c, 0, 66, 33
1, 106628, Note_on_c, 0, 59, 0
1, 106629, Note_on_c, 0, 71, 48
1, 106634, Note_on_c, 0, 63, 49
1, 106694, Control_c, 0, 67, 10
1, 106777, Note_on_c, 0, 66, 0
1, 106783, Control_c, 0, 67, 10
1, 106791, Note_on_c, 0, 71, 0
1, 106809, Note_on_c, 0, 63, 0
1, 106842, Control_c, 0, 67, 9
1, 106846, Note_on_c, 0, 52, 76
1, 106865, Note_on_c, 0, 40, 54
1, 106931, Control_c, 0, 64, 86
1, 106931, Control_c, 0, 67, 10
1, 106947, Control_c, 0, 64, 64
1, 106947, Control_c, 0, 67, 11
1, 106961, Control_c, 0, 64, 44
1, 106961, Control_c, 0, 67, 11
1, 106976, Control_c, 0, 64, 0
1, 106976, Control_c, 0, 67, 12
1, 107006, Control_c, 0, 64, 38
1, 107021, Control_c, 0, 64, 55
1, 107035, Control_c, 0, 64, 66
1, 107038, Note_on_c, 0, 71, 52
1, 107046, Note_on_c, 0, 64, 42
1, 107047, Note_on_c, 0, 67, 45
1, 107050, Control_c, 0, 64, 74
1, 107062, Note_on_c, 0, 40, 0
1, 107065, Control_c, 0, 64, 86
1, 107080, Control_c, 0, 64, 101
1, 107095, Control_c, 0, 64, 127
1, 107095, Control_c, 0, 67, 11
1, 107104, Note_on_c, 0, 67, 0
1, 107119, Note_on_c, 0, 64, 0
1, 107129, Note_on_c, 0, 71, 0
1, 107238, Note_on_c, 0, 71, 52
1, 107249, Note_on_c, 0, 64, 47
1, 107254, Note_on_c, 0, 67, 47
1, 107277, Note_on_c, 0, 64, 0
1, 107295, Note_on_c, 0, 67, 0
1, 107297, Note_on_c, 0, 54, 66
1, 107303, Note_on_c, 0, 52, 0
1, 107312, Note_on_c, 0, 71, 0
1, 107332, Note_on_c, 0, 54, 0
1, 107347, Note_on_c, 0, 52, 53
1, 107355, Control_c, 0, 67, 11
1, 107420, Note_on_c, 0, 67, 50
1, 107422, Note_on_c, 0, 64, 50
1, 107433, Note_on_c, 0, 51, 78
1, 107436, Note_on_c, 0, 52, 0
1, 107437, Note_on_c, 0, 71, 53
1, 107477, Note_on_c, 0, 64, 0
1, 107479, Note_on_c, 0, 67, 0
1, 107486, Note_on_c, 0, 71, 0
1, 107592, Control_c, 0, 67, 11
1, 107633, Note_on_c, 0, 64, 52
1, 107636, Note_on_c, 0, 67, 50
1, 107641, Note_on_c, 0, 71, 49
1, 107684, Note_on_c, 0, 64, 0
1, 107690, Note_on_c, 0, 71, 0
1, 107690, Note_on_c, 0, 67, 0
1, 107718, Note_on_c, 0, 51, 0
1, 107727, Note_on_c, 0, 52, 76
1, 107835, Note_on_c, 0, 64, 58
1, 107842, Note_on_c, 0, 67, 57
1, 107846, Note_on_c, 0, 71, 57
1, 107872, Note_on_c, 0, 52, 0
1, 107890, Note_on_c, 0, 71, 0
1, 107906, Note_on_c, 0, 64, 0
1, 107913, Note_on_c, 0, 67, 0
1, 107944, Poly_aftertouch_c, 0, 50, 0
1, 108044, Control_c, 0, 67, 11
1, 108084, Note_on_c, 0, 55, 73
1, 108109, Note_on_c, 0, 36, 49
1, 108132, Control_c, 0, 67, 11
1, 108162, Control_c, 0, 67, 12
1, 108177, Control_c, 0, 64, 91
1, 108177, Control_c, 0, 67, 13
1, 108192, Control_c, 0, 64, 70
1, 108192, Control_c, 0, 67, 13
1, 108207, Control_c, 0, 64, 52
1, 108221, Control_c, 0, 64, 0
1, 108221, Control_c, 0, 67, 14
1, 108236, Control_c, 0, 67, 14
1, 108266, Control_c, 0, 64, 29
1, 108266, Control_c, 0, 67, 15
1, 108281, Control_c, 0, 64, 51
1, 108296, Note_on_c, 0, 58, 41
1, 108296, Control_c, 0, 64, 65
1, 108302, Note_on_c, 0, 64, 45
1, 108311, Control_c, 0, 64, 75
1, 108326, Control_c, 0, 64, 90
1, 108340, Control_c, 0, 64, 127
1, 108341, Note_on_c, 0, 58, 0
1, 108344, Note_on_c, 0, 64, 0
1, 108355, Control_c, 0, 67, 14
1, 108381, Note_on_c, 0, 36, 0
1, 108414, Control_c, 0, 67, 14
1, 108464, Note_on_c, 0, 58, 50
1, 108474, Note_on_c, 0, 64, 51
1, 108518, Control_c, 0, 67, 14
1, 108526, Note_on_c, 0, 64, 0
1, 108527, Note_on_c, 0, 58, 0
1, 108648, Note_on_c, 0, 54, 67
1, 108672, Note_on_c, 0, 58, 49
1, 108681, Note_on_c, 0, 64, 52
1, 108703, Control_c, 0, 67, 15
1, 108728, Note_on_c, 0, 58, 0
1, 108731, Note_on_c, 0, 64, 0
1, 108732, Control_c, 0, 67, 15
1, 108747, Control_c, 0, 67, 16
1, 108762, Control_c, 0, 67, 17
1, 108777, Control_c, 0, 67, 17
1, 108792, Control_c, 0, 67, 18
1, 108808, Control_c, 0, 67, 19
1, 108823, Control_c, 0, 67, 20
1, 108837, Control_c, 0, 67, 20
1, 108852, Control_c, 0, 67, 21
1, 108867, Control_c, 0, 67, 22
1, 108873, Note_on_c, 0, 58, 48
1, 108881, Note_on_c, 0, 64, 46
1, 108881, Control_c, 0, 67, 23
1, 108896, Control_c, 0, 67, 26
1, 108911, Control_c, 0, 67, 29
1, 108916, Note_on_c, 0, 58, 0
1, 108919, Note_on_c, 0, 64, 0
1, 108926, Control_c, 0, 67, 32
1, 108941, Control_c, 0, 67, 36
1, 108945, Note_on_c, 0, 54, 0
1, 108955, Control_c, 0, 67, 40
1, 108960, Note_on_c, 0, 52, 70
1, 108970, Control_c, 0, 67, 43
1, 108985, Control_c, 0, 67, 47
1, 109000, Control_c, 0, 67, 50
1, 109015, Control_c, 0, 67, 54
1, 109029, Control_c, 0, 67, 58
1, 109044, Control_c, 0, 67, 62
1, 109046, Note_on_c, 0, 52, 0
1, 109059, Control_c, 0, 67, 66
1, 109074, Control_c, 0, 67, 69
1, 109089, Control_c, 0, 67, 73
1, 109096, Note_on_c, 0, 64, 42
1, 109097, Note_on_c, 0, 58, 50
1, 109104, Control_c, 0, 67, 76
1, 109119, Control_c, 0, 67, 79
1, 109127, Note_on_c, 0, 55, 0
1, 109134, Control_c, 0, 67, 81
1, 109147, Note_on_c, 0, 58, 0
1, 109149, Note_on_c, 0, 64, 0
1, 109149, Control_c, 0, 67, 83
1, 109163, Control_c, 0, 67, 84
1, 109178, Control_c, 0, 67, 84
1, 109374, Note_on_c, 0, 47, 61
1, 109386, Note_on_c, 0, 35, 50
1, 109399, Control_c, 0, 67, 85
1, 109414, Control_c, 0, 64, 87
1, 109414, Control_c, 0, 67, 86
1, 109437, Control_c, 0, 64, 67
1, 109437, Control_c, 0, 67, 87
1, 109452, Control_c, 0, 64, 48
1, 109452, Control_c, 0, 67, 90
1, 109467, Control_c, 0, 64, 0
1, 109467, Control_c, 0, 67, 92
1, 109481, Control_c, 0, 67, 93
1, 109511, Control_c, 0, 64, 25
1, 109526, Control_c, 0, 64, 51
1, 109526, Control_c, 0, 67, 93
1, 109533, Note_on_c, 0, 35, 0
1, 109541, Control_c, 0, 64, 66
1, 109541, Control_c, 0, 67, 92
1, 109555, Control_c, 0, 64, 76
1, 109555, Control_c, 0, 67, 92
1, 109570, Control_c, 0, 64, 95
1, 109570, Control_c, 0, 67, 91
1, 109578, Note_on_c, 0, 47, 0
1, 109585, Control_c, 0, 64, 127
1, 109585, Control_c, 0, 67, 90
1, 109601, Control_c, 0, 67, 90
1, 109616, Control_c, 0, 67, 89
1, 109675, Control_c, 0, 67, 89
1, 109734, Note_on_c, 0, 54, 44
1, 109738, Note_on_c, 0, 59, 42
1, 109745, Note_on_c, 0, 66, 39
1, 109748, Note_on_c, 0, 63, 36
1, 109757, Note_on_c, 0, 51, 36
1, 109764, Control_c, 0, 67, 88
1, 109776, Note_on_c, 0, 59, 0
1, 109785, Note_on_c, 0, 63, 0
1, 109785, Note_on_c, 0, 66, 0
1, 109804, Note_on_c, 0, 51, 0
1, 109807, Note_on_c, 0, 54, 0
1, 109837, Control_c, 0, 67, 88
1, 109867, Control_c, 0, 67, 87
1, 109902, Note_on_c, 0, 66, 45
1, 109903, Note_on_c, 0, 63, 43
1, 109912, Control_c, 0, 67, 87
1, 109916, Note_on_c, 0, 59, 37
1, 109943, Note_on_c, 0, 51, 25
1, 109944, Note_on_c, 0, 54, 35
1, 109949, Note_on_c, 0, 59, 0
1, 109956, Note_on_c, 0, 63, 0
1, 109958, Note_on_c, 0, 66, 0
1, 109974, Note_on_c, 0, 54, 0
1, 109980, Note_on_c, 0, 51, 0
1, 110081, Note_on_c, 0, 54, 50
1, 110083, Note_on_c, 0, 59, 38
1, 110091, Note_on_c, 0, 51, 47
1, 110092, Note_on_c, 0, 66, 49
1, 110093, Note_on_c, 0, 63, 44
1, 110117, Note_on_c, 0, 59, 0
1, 110127, Note_on_c, 0, 66, 0
1, 110128, Note_on_c, 0, 63, 0
1, 110135, Note_on_c, 0, 54, 0
1, 110138, Note_on_c, 0, 51, 0
1, 110201, Control_c, 0, 67, 86
1, 110231, Control_c, 0, 67, 87
1, 110251, Note_on_c, 0, 59, 41
1, 110252, Note_on_c, 0, 66, 48
1, 110253, Note_on_c, 0, 63, 43
1, 110261, Note_on_c, 0, 54, 45
1, 110277, Note_on_c, 0, 51, 37
1, 110291, Note_on_c, 0, 59, 0
1, 110297, Note_on_c, 0, 66, 0
1, 110301, Note_on_c, 0, 63, 0
1, 110303, Note_on_c, 0, 54, 0
1, 110316, Note_on_c, 0, 51, 0
1, 110350, Control_c, 0, 67, 86
1, 110411, Note_on_c, 0, 66, 49
1, 110416, Note_on_c, 0, 59, 42
1, 110428, Note_on_c, 0, 54, 45
1, 110430, Note_on_c, 0, 63, 38
1, 110439, Control_c, 0, 67, 86
1, 110448, Note_on_c, 0, 59, 0
1, 110450, Note_on_c, 0, 51, 30
1, 110454, Control_c, 0, 67, 85
1, 110457, Note_on_c, 0, 63, 0
1, 110460, Note_on_c, 0, 54, 0
1, 110461, Note_on_c, 0, 66, 0
1, 110469, Control_c, 0, 67, 84
1, 110484, Control_c, 0, 67, 83
1, 110488, Note_on_c, 0, 51, 0
1, 110499, Control_c, 0, 67, 82
1, 110514, Control_c, 0, 67, 81
1, 110528, Control_c, 0, 67, 80
1, 110543, Control_c, 0, 67, 78
1, 110558, Control_c, 0, 67, 75
1, 110573, Control_c, 0, 67, 70
1, 110579, Note_on_c, 0, 54, 42
1, 110582, Note_on_c, 0, 66, 47
1, 110583, Note_on_c, 0, 63, 30
1, 110584, Note_on_c, 0, 59, 35
1, 110588, Control_c, 0, 67, 63
1, 110602, Control_c, 0, 67, 58
1, 110617, Control_c, 0, 67, 52
1, 110622, Note_on_c, 0, 66, 0
1, 110625, Note_on_c, 0, 59, 0
1, 110632, Control_c, 0, 67, 45
1, 110634, Note_on_c, 0, 63, 0
1, 110635, Note_on_c, 0, 54, 0
1, 110647, Control_c, 0, 67, 39
1, 110661, Control_c, 0, 67, 32
1, 110676, Control_c, 0, 67, 25
1, 110691, Control_c, 0, 67, 18
1, 110706, Control_c, 0, 67, 13
1, 110721, Control_c, 0, 67, 11
1, 110750, Note_on_c, 0, 63, 53
1, 110758, Note_on_c, 0, 59, 36
1, 110765, Control_c, 0, 67, 10
1, 110767, Note_on_c, 0, 54, 45
1, 110780, Control_c, 0, 67, 10
1, 110788, Note_on_c, 0, 59, 0
1, 110795, Control_c, 0, 67, 9
1, 110796, Note_on_c, 0, 63, 0
1, 110801, Note_on_c, 0, 54, 0
1, 110898, Control_c, 0, 67, 9
1, 110907, Note_on_c, 0, 54, 50
1, 110911, Note_on_c, 0, 63, 51
1, 110913, Note_on_c, 0, 59, 35
1, 110937, Note_on_c, 0, 54, 0
1, 110952, Note_on_c, 0, 59, 0
1, 110964, Note_on_c, 0, 63, 0
1, 111083, Control_c, 0, 67, 9
1, 111146, Note_on_c, 0, 70, 61
1, 111160, Note_on_c, 0, 59, 39
1, 111163, Note_on_c, 0, 54, 39
1, 111164, Note_on_c, 0, 63, 36
1, 111217, Note_on_c, 0, 63, 0
1, 111222, Note_on_c, 0, 54, 0
1, 111232, Note_on_c, 0, 59, 0
1, 111363, Note_on_c, 0, 63, 33
1, 111368, Note_on_c, 0, 59, 51
1, 111384, Note_on_c, 0, 54, 25
1, 111399, Note_on_c, 0, 63, 0
1, 111417, Note_on_c, 0, 59, 0
1, 111417, Note_on_c, 0, 71, 73
1, 111424, Note_on_c, 0, 54, 0
1, 111453, Note_on_c, 0, 70, 0
1, 111498, Control_c, 0, 67, 10
1, 111539, Note_on_c, 0, 63, 34
1, 111542, Note_on_c, 0, 59, 53
1, 111542, Note_on_c, 0, 54, 52
1, 111563, Note_on_c, 0, 59, 0
1, 111575, Note_on_c, 0, 63, 0
1, 111590, Note_on_c, 0, 54, 0
1, 111757, Control_c, 0, 67, 9
1, 111862, Note_on_c, 0, 47, 53
1, 111873, Note_on_c, 0, 35, 46
1, 111876, Control_c, 0, 64, 86
1, 111876, Control_c, 0, 67, 10
1, 111877, Note_on_c, 0, 72, 66
1, 111891, Control_c, 0, 64, 67
1, 111891, Control_c, 0, 67, 10
1, 111906, Control_c, 0, 64, 48
1, 111921, Control_c, 0, 64, 0
1, 111921, Control_c, 0, 67, 11
1, 111927, Note_on_c, 0, 71, 0
1, 111936, Control_c, 0, 67, 11
1, 111965, Control_c, 0, 64, 30
1, 111968, Note_on_c, 0, 35, 0
1, 111980, Control_c, 0, 64, 55
1, 111995, Control_c, 0, 64, 69
1, 112008, Note_on_c, 0, 47, 0
1, 112010, Control_c, 0, 64, 83
1, 112025, Control_c, 0, 64, 127
1, 112040, Control_c, 0, 67, 11
1, 112055, Control_c, 0, 67, 10
1, 112085, Control_c, 0, 67, 10
1, 112186, Note_on_c, 0, 54, 53
1, 112197, Note_on_c, 0, 64, 46
1, 112216, Note_on_c, 0, 60, 35
1, 112219, Note_on_c, 0, 57, 32
1, 112243, Note_on_c, 0, 64, 0
1, 112251, Note_on_c, 0, 60, 0
1, 112252, Note_on_c, 0, 54, 0
1, 112258, Note_on_c, 0, 57, 0
1, 112359, Note_on_c, 0, 64, 55
1, 112361, Note_on_c, 0, 60, 50
1, 112365, Note_on_c, 0, 57, 48
1, 112401, Note_on_c, 0, 54, 27
1, 112407, Note_on_c, 0, 64, 0
1, 112410, Note_on_c, 0, 60, 0
1, 112414, Note_on_c, 0, 57, 0
1, 112444, Note_on_c, 0, 54, 0
1, 112506, Control_c, 0, 67, 10
1, 112526, Note_on_c, 0, 69, 66
1, 112547, Note_on_c, 0, 64, 41
1, 112551, Control_c, 0, 67, 11
1, 112552, Note_on_c, 0, 54, 44
1, 112554, Note_on_c, 0, 60, 37
1, 112562, Note_on_c, 0, 57, 31
1, 112576, Note_on_c, 0, 64, 0
1, 112581, Note_on_c, 0, 60, 0
1, 112590, Note_on_c, 0, 54, 0
1, 112602, Note_on_c, 0, 57, 0
1, 112688, Note_on_c, 0, 64, 48
1, 112693, Note_on_c, 0, 60, 41
1, 112704, Note_on_c, 0, 54, 49
1, 112711, Note_on_c, 0, 57, 44
1, 112730, Note_on_c, 0, 54, 0
1, 112732, Note_on_c, 0, 64, 0
1, 112733, Note_on_c, 0, 72, 0
1, 112736, Note_on_c, 0, 60, 0
1, 112745, Note_on_c, 0, 57, 0
1, 112773, Note_on_c, 0, 67, 71
1, 112859, Note_on_c, 0, 55, 57
1, 112863, Note_on_c, 0, 64, 43
1, 112874, Note_on_c, 0, 60, 40
1, 112878, Note_on_c, 0, 69, 0
1, 112881, Poly_aftertouch_c, 0, 72, 127
1, 112893, Control_c, 0, 67, 10
1, 112907, Note_on_c, 0, 55, 0
1, 112912, Note_on_c, 0, 60, 0
1, 112915, Note_on_c, 0, 64, 0
1, 112922, Control_c, 0, 67, 10
1, 112951, Control_c, 0, 67, 9
1, 112980, Control_c, 0, 67, 9
1, 113040, Control_c, 0, 67, 9
1, 113041, Note_on_c, 0, 66, 72
1, 113044, Note_on_c, 0, 64, 45
1, 113054, Control_c, 0, 67, 10
1, 113057, Note_on_c, 0, 60, 44
1, 113059, Note_on_c, 0, 57, 37
1, 113069, Control_c, 0, 64, 119
1, 113069, Control_c, 0, 67, 11
1, 113084, Control_c, 0, 64, 80
1, 113084, Control_c, 0, 67, 11
1, 113099, Control_c, 0, 64, 63
1, 113099, Control_c, 0, 67, 12
1, 113114, Control_c, 0, 64, 45
1, 113115, Note_on_c, 0, 60, 0
1, 113122, Poly_aftertouch_c, 0, 72, 0
1, 113128, Control_c, 0, 64, 39
1, 113139, Note_on_c, 0, 57, 0
1, 113140, Note_on_c, 0, 67, 0
1, 113141, Note_on_c, 0, 64, 0
1, 113143, Control_c, 0, 64, 49
1, 113158, Control_c, 0, 64, 60
1, 113180, Control_c, 0, 64, 67
1, 113195, Control_c, 0, 64, 76
1, 113210, Control_c, 0, 64, 91
1, 113225, Control_c, 0, 64, 127
1, 113225, Control_c, 0, 67, 11
1, 113238, Note_on_c, 0, 64, 46
1, 113240, Control_c, 0, 67, 11
1, 113246, Note_on_c, 0, 57, 40
1, 113254, Note_on_c, 0, 60, 44
1, 113269, Control_c, 0, 67, 10
1, 113279, Note_on_c, 0, 64, 0
1, 113288, Note_on_c, 0, 60, 0
1, 113293, Note_on_c, 0, 57, 0
1, 113382, Note_on_c, 0, 64, 59
1, 113388, Note_on_c, 0, 60, 56
1, 113403, Note_on_c, 0, 57, 54
1, 113429, Note_on_c, 0, 64, 0
1, 113442, Note_on_c, 0, 57, 0
1, 113447, Note_on_c, 0, 60, 0
1, 113544, Note_on_c, 0, 57, 50
1, 113546, Note_on_c, 0, 69, 72
1, 113559, Note_on_c, 0, 54, 47
1, 113559, Note_on_c, 0, 64, 46
1, 113571, Note_on_c, 0, 60, 42
1, 113587, Note_on_c, 0, 64, 0
1, 113598, Note_on_c, 0, 66, 0
1, 113609, Note_on_c, 0, 57, 0
1, 113610, Note_on_c, 0, 54, 0
1, 113611, Note_on_c, 0, 60, 0
1, 113699, Note_on_c, 0, 64, 59
1, 113716, Note_on_c, 0, 60, 57
1, 113736, Note_on_c, 0, 54, 32
1, 113740, Note_on_c, 0, 57, 47
1, 113747, Note_on_c, 0, 64, 0
1, 113765, Note_on_c, 0, 60, 0
1, 113766, Note_on_c, 0, 54, 0
1, 113774, Note_on_c, 0, 72, 80
1, 113775, Note_on_c, 0, 57, 0
1, 113789, Control_c, 0, 67, 10
1, 113796, Note_on_c, 0, 69, 0
1, 113865, Note_on_c, 0, 64, 61
1, 113874, Note_on_c, 0, 54, 54
1, 113874, Note_on_c, 0, 57, 59
1, 113880, Note_on_c, 0, 60, 48
1, 113887, Note_on_c, 0, 64, 0
1, 113901, Note_on_c, 0, 60, 0
1, 113905, Note_on_c, 0, 57, 0
1, 113934, Note_on_c, 0, 54, 0
1, 113945, Control_c, 0, 67, 9
1, 113959, Control_c, 0, 67, 9
1, 114077, Control_c, 0, 67, 10
1, 114092, Control_c, 0, 67, 10
1, 114107, Control_c, 0, 67, 11
1, 114121, Control_c, 0, 64, 87
1, 114121, Control_c, 0, 67, 12
1, 114130, Note_on_c, 0, 76, 77
1, 114132, Note_on_c, 0, 35, 53
1, 114133, Note_on_c, 0, 47, 52
1, 114136, Control_c, 0, 64, 65
1, 114136, Control_c, 0, 67, 12
1, 114151, Control_c, 0, 64, 43
1, 114151, Control_c, 0, 67, 13
1, 114166, Control_c, 0, 64, 22
1, 114174, Note_on_c, 0, 72, 0
1, 114181, Control_c, 0, 64, 37
1, 114194, Note_on_c, 0, 35, 0
1, 114195, Control_c, 0, 64, 56
1, 114210, Control_c, 0, 64, 69
1, 114225, Control_c, 0, 64, 82
1, 114230, Note_on_c, 0, 47, 0
1, 114240, Control_c, 0, 64, 112
1, 114240, Control_c, 0, 67, 12
1, 114255, Control_c, 0, 64, 127
1, 114255, Control_c, 0, 67, 11
1, 114270, Control_c, 0, 67, 10
1, 114285, Control_c, 0, 67, 9
1, 114300, Control_c, 0, 67, 9
1, 114314, Control_c, 0, 67, 8
1, 114329, Control_c, 0, 67, 8
1, 114344, Control_c, 0, 67, 0
1, 114346, Note_on_c, 0, 69, 52
1, 114350, Note_on_c, 0, 64, 52
1, 114360, Note_on_c, 0, 59, 52
1, 114364, Note_on_c, 0, 54, 49
1, 114368, Note_on_c, 0, 57, 36
1, 114377, Note_on_c, 0, 64, 0
1, 114389, Note_on_c, 0, 59, 0
1, 114392, Note_on_c, 0, 69, 0
1, 114394, Note_on_c, 0, 54, 0
1, 114403, Note_on_c, 0, 57, 0
1, 114484, Note_on_c, 0, 64, 53
1, 114487, Note_on_c, 0, 59, 54
1, 114493, Note_on_c, 0, 57, 57
1, 114499, Note_on_c, 0, 54, 50
1, 114501, Note_on_c, 0, 69, 48
1, 114517, Note_on_c, 0, 64, 0
1, 114532, Note_on_c, 0, 59, 0
1, 114536, Note_on_c, 0, 57, 0
1, 114540, Note_on_c, 0, 69, 0
1, 114547, Note_on_c, 0, 54, 0
1, 114694, Control_c, 0, 64, 102
1, 114698, Note_on_c, 0, 69, 47
1, 114702, Note_on_c, 0, 76, 0
1, 114704, Note_on_c, 0, 59, 44
1, 114706, Note_on_c, 0, 57, 46
1, 114708, Note_on_c, 0, 63, 51
1, 114708, Control_c, 0, 64, 74
1, 114711, Note_on_c, 0, 54, 42
1, 114711, Note_on_c, 0, 75, 65
1, 114723, Control_c, 0, 64, 57
1, 114723, Control_c, 0, 67, 8
1, 114738, Control_c, 0, 64, 34
1, 114738, Control_c, 0, 67, 8
1, 114753, Control_c, 0, 64, 32
1, 114753, Control_c, 0, 67, 9
1, 114768, Control_c, 0, 64, 48
1, 114782, Control_c, 0, 64, 64
1, 114785, Note_on_c, 0, 57, 0
1, 114791, Note_on_c, 0, 54, 0
1, 114797, Control_c, 0, 64, 75
1, 114812, Control_c, 0, 64, 95
1, 114815, Note_on_c, 0, 59, 0
1, 114827, Control_c, 0, 64, 127
1, 114842, Note_on_c, 0, 63, 0
1, 114872, Note_on_c, 0, 69, 0
1, 114872, Control_c, 0, 67, 8
1, 114910, Note_on_c, 0, 75, 0
1, 114940, Note_on_c, 0, 54, 47
1, 114983, Note_on_c, 0, 57, 61
1, 115013, Note_on_c, 0, 54, 0
1, 115019, Control_c, 0, 67, 8
1, 115042, Note_on_c, 0, 57, 0
1, 115057, Note_on_c, 0, 59, 45
1, 115060, Note_on_c, 0, 63, 60
1, 115085, Note_on_c, 0, 59, 0
1, 115108, Control_c, 0, 67, 0
1, 115111, Note_on_c, 0, 69, 56
1, 115115, Note_on_c, 0, 66, 61
1, 115122, Note_on_c, 0, 63, 0
1, 115136, Note_on_c, 0, 69, 0
1, 115141, Note_on_c, 0, 71, 73
1, 115149, Note_on_c, 0, 66, 0
1, 115183, Note_on_c, 0, 71, 0
1, 115185, Note_on_c, 0, 75, 70
1, 115224, Note_on_c, 0, 75, 0
1, 115228, Note_on_c, 0, 78, 63
1, 115255, Note_on_c, 0, 78, 0
1, 115263, Note_on_c, 0, 83, 73
1, 115301, Note_on_c, 0, 83, 0
1, 115334, Note_on_c, 0, 78, 73
1, 115368, Note_on_c, 0, 66, 54
1, 115377, Note_on_c, 0, 75, 67
1, 115394, Note_on_c, 0, 78, 0
1, 115398, Note_on_c, 0, 63, 58
1, 115407, Note_on_c, 0, 66, 0
1, 115444, Note_on_c, 0, 71, 65
1, 115454, Note_on_c, 0, 75, 0
1, 115473, Note_on_c, 0, 59, 52
1, 115482, Note_on_c, 0, 63, 0
1, 115502, Note_on_c, 0, 71, 0
1, 115512, Note_on_c, 0, 69, 61
1, 115519, Note_on_c, 0, 57, 60
1, 115547, Note_on_c, 0, 59, 0
1, 115560, Note_on_c, 0, 69, 0
1, 115584, Note_on_c, 0, 54, 66
1, 115600, Note_on_c, 0, 57, 0
1, 115650, Note_on_c, 0, 54, 0
1, 115762, Note_on_c, 0, 70, 75
1, 115765, Note_on_c, 0, 58, 68
1, 115766, Note_on_c, 0, 57, 55
1, 115784, Note_on_c, 0, 54, 50
1, 115802, Note_on_c, 0, 57, 0
1, 115821, Note_on_c, 0, 54, 0
1, 115909, Note_on_c, 0, 58, 0
1, 115910, Note_on_c, 0, 57, 62
1, 115918, Note_on_c, 0, 54, 56
1, 115940, Note_on_c, 0, 70, 0
1, 115955, Note_on_c, 0, 54, 0
1, 115958, Note_on_c, 0, 57, 0
1, 116002, Note_on_c, 0, 71, 84
1, 116008, Note_on_c, 0, 59, 75
1, 116070, Note_on_c, 0, 57, 73
1, 116085, Note_on_c, 0, 54, 68
1, 116094, Note_on_c, 0, 57, 0
1, 116112, Note_on_c, 0, 54, 0
1, 116137, Note_on_c, 0, 59, 0
1, 116189, Note_on_c, 0, 71, 0
1, 116333, Note_on_c, 0, 72, 82
1, 116334, Note_on_c, 0, 60, 78
1, 116337, Note_on_c, 0, 47, 67
1, 116342, Note_on_c, 0, 35, 64
1, 116354, Control_c, 0, 64, 104
1, 116369, Control_c, 0, 64, 73
1, 116384, Control_c, 0, 64, 55
1, 116398, Control_c, 0, 64, 30
1, 116413, Control_c, 0, 64, 35
1, 116425, Note_on_c, 0, 35, 0
1, 116428, Control_c, 0, 64, 56
1, 116443, Control_c, 0, 64, 70
1, 116458, Control_c, 0, 64, 91
1, 116460, Note_on_c, 0, 47, 0
1, 116473, Control_c, 0, 64, 127
1, 116571, Note_on_c, 0, 66, 54
1, 116585, Note_on_c, 0, 57, 52
1, 116593, Note_on_c, 0, 64, 42
1, 116595, Note_on_c, 0, 54, 42
1, 116609, Note_on_c, 0, 57, 0
1, 116611, Note_on_c, 0, 66, 0
1, 116621, Note_on_c, 0, 64, 0
1, 116625, Note_on_c, 0, 54, 0
1, 116689, Note_on_c, 0, 72, 0
1, 116696, Note_on_c, 0, 57, 61
1, 116705, Note_on_c, 0, 64, 66
1, 116717, Note_on_c, 0, 60, 0
1, 116717, Note_on_c, 0, 66, 57
1, 116719, Note_on_c, 0, 54, 52
1, 116738, Note_on_c, 0, 57, 0
1, 116748, Note_on_c, 0, 54, 0
1, 116753, Note_on_c, 0, 66, 0
1, 116765, Note_on_c, 0, 64, 0
1, 116861, Note_on_c, 0, 69, 79
1, 116863, Note_on_c, 0, 57, 74
1, 116866, Note_on_c, 0, 54, 63
1, 116879, Note_on_c, 0, 60, 52
1, 116909, Note_on_c, 0, 60, 0
1, 116920, Note_on_c, 0, 54, 0
1, 116992, Note_on_c, 0, 57, 0
1, 117004, Note_on_c, 0, 69, 0
1, 117030, Note_on_c, 0, 60, 56
1, 117030, Note_on_c, 0, 54, 68
1, 117087, Note_on_c, 0, 54, 0
1, 117087, Note_on_c, 0, 60, 0
1, 117102, Note_on_c, 0, 67, 82
1, 117107, Note_on_c, 0, 55, 73
1, 117139, Note_on_c, 0, 55, 0
1, 117189, Note_on_c, 0, 67, 0
1, 117200, Note_on_c, 0, 60, 69
1, 117204, Note_on_c, 0, 55, 72
1, 117233, Note_on_c, 0, 60, 0
1, 117266, Note_on_c, 0, 55, 0
1, 117382, Note_on_c, 0, 66, 74
1, 117388, Note_on_c, 0, 57, 62
1, 117396, Note_on_c, 0, 54, 72
1, 117415, Control_c, 0, 64, 91
1, 117415, Control_c, 0, 67, 8
1, 117429, Control_c, 0, 64, 64
1, 117429, Control_c, 0, 67, 9
1, 117444, Control_c, 0, 64, 45
1, 117459, Control_c, 0, 64, 43
1, 117474, Control_c, 0, 64, 57
1, 117474, Control_c, 0, 67, 9
1, 117489, Control_c, 0, 64, 69
1, 117501, Note_on_c, 0, 54, 0
1, 117504, Control_c, 0, 64, 85
1, 117519, Control_c, 0, 64, 127
1, 117543, Note_on_c, 0, 57, 0
1, 117548, Control_c, 0, 67, 9
1, 117554, Note_on_c, 0, 57, 49
1, 117563, Note_on_c, 0, 60, 66
1, 117563, Note_on_c, 0, 64, 68
1, 117563, Control_c, 0, 67, 8
1, 117578, Control_c, 0, 67, 8
1, 117593, Control_c, 0, 67, 0
1, 117599, Note_on_c, 0, 60, 0
1, 117606, Note_on_c, 0, 57, 0
1, 117608, Note_on_c, 0, 64, 0
1, 117618, Note_on_c, 0, 66, 0
1, 117706, Note_on_c, 0, 60, 68
1, 117717, Note_on_c, 0, 64, 58
1, 117721, Note_on_c, 0, 57, 61
1, 117733, Note_on_c, 0, 60, 0
1, 117744, Note_on_c, 0, 64, 0
1, 117766, Note_on_c, 0, 57, 0
1, 117865, Note_on_c, 0, 57, 88
1, 117870, Note_on_c, 0, 69, 81
1, 117878, Note_on_c, 0, 60, 49
1, 117886, Note_on_c, 0, 54, 54
1, 117920, Note_on_c, 0, 60, 0
1, 117924, Note_on_c, 0, 69, 0
1, 117939, Note_on_c, 0, 54, 0
1, 117941, Note_on_c, 0, 57, 0
1, 118020, Note_on_c, 0, 60, 89
1, 118026, Note_on_c, 0, 72, 86
1, 118033, Note_on_c, 0, 54, 61
1, 118051, Note_on_c, 0, 57, 52
1, 118066, Note_on_c, 0, 60, 0
1, 118076, Note_on_c, 0, 72, 0
1, 118079, Note_on_c, 0, 57, 0
1, 118092, Note_on_c, 0, 54, 0
1, 118175, Note_on_c, 0, 57, 66
1, 118175, Note_on_c, 0, 76, 91
1, 118177, Note_on_c, 0, 64, 86
1, 118178, Note_on_c, 0, 60, 76
1, 118191, Note_on_c, 0, 52, 68
1, 118198, Note_on_c, 0, 60, 0
1, 118198, Note_on_c, 0, 64, 0
1, 118206, Note_on_c, 0, 57, 0
1, 118228, Note_on_c, 0, 76, 0
1, 118230, Note_on_c, 0, 52, 0
1, 118443, Note_on_c, 0, 79, 84
1, 118445, Note_on_c, 0, 67, 84
1, 118450, Note_on_c, 0, 35, 68
1, 118450, Note_on_c, 0, 47, 70
1, 118467, Control_c, 0, 64, 87
1, 118482, Control_c, 0, 64, 63
1, 118497, Control_c, 0, 64, 38
1, 118504, Note_on_c, 0, 35, 0
1, 118512, Control_c, 0, 64, 31
1, 118526, Control_c, 0, 64, 50
1, 118541, Control_c, 0, 64, 66
1, 118544, Note_on_c, 0, 47, 0
1, 118556, Control_c, 0, 64, 90
1, 118571, Control_c, 0, 64, 127
1, 118581, Note_on_c, 0, 79, 0
1, 118616, Note_on_c, 0, 67, 0
1, 118660, Note_on_c, 0, 71, 50
1, 118668, Note_on_c, 0, 69, 58
1, 118669, Note_on_c, 0, 51, 60
1, 118687, Note_on_c, 0, 59, 40
1, 118698, Note_on_c, 0, 69, 0
1, 118699, Note_on_c, 0, 71, 0
1, 118699, Note_on_c, 0, 57, 18
1, 118711, Note_on_c, 0, 51, 0
1, 118716, Note_on_c, 0, 59, 0
1, 118746, Note_on_c, 0, 57, 0
1, 118783, Note_on_c, 0, 69, 56
1, 118798, Note_on_c, 0, 59, 59
1, 118805, Note_on_c, 0, 57, 48
1, 118805, Note_on_c, 0, 71, 39
1, 118808, Note_on_c, 0, 51, 50
1, 118827, Note_on_c, 0, 59, 0
1, 118845, Note_on_c, 0, 57, 0
1, 118848, Note_on_c, 0, 51, 0
1, 118848, Note_on_c, 0, 69, 0
1, 118867, Note_on_c, 0, 71, 0
1, 118962, Note_on_c, 0, 78, 70
1, 118962, Note_on_c, 0, 66, 71
1, 118965, Note_on_c, 0, 51, 55
1, 118966, Note_on_c, 0, 59, 55
1, 118967, Note_on_c, 0, 71, 58
1, 118971, Note_on_c, 0, 57, 53
1, 118971, Control_c, 0, 64, 100
1, 118983, Note_on_c, 0, 69, 54
1, 118986, Control_c, 0, 64, 70
1, 119000, Control_c, 0, 64, 51
1, 119015, Control_c, 0, 64, 38
1, 119019, Note_on_c, 0, 57, 0
1, 119030, Control_c, 0, 64, 47
1, 119031, Note_on_c, 0, 51, 0
1, 119045, Control_c, 0, 64, 62
1, 119060, Control_c, 0, 64, 76
1, 119065, Note_on_c, 0, 59, 0
1, 119075, Control_c, 0, 64, 99
1, 119090, Control_c, 0, 64, 127
1, 119103, Note_on_c, 0, 66, 0
1, 119135, Note_on_c, 0, 69, 0
1, 119164, Note_on_c, 0, 71, 0
1, 119173, Note_on_c, 0, 78, 0
1, 119195, Note_on_c, 0, 54, 59
1, 119234, Note_on_c, 0, 57, 67
1, 119265, Note_on_c, 0, 54, 0
1, 119297, Note_on_c, 0, 59, 51
1, 119304, Note_on_c, 0, 57, 0
1, 119310, Note_on_c, 0, 63, 67
1, 119326, Note_on_c, 0, 59, 0
1, 119359, Note_on_c, 0, 69, 70
1, 119366, Note_on_c, 0, 66, 58
1, 119369, Note_on_c, 0, 63, 0
1, 119382, Note_on_c, 0, 69, 0
1, 119400, Note_on_c, 0, 66, 0
1, 119400, Note_on_c, 0, 71, 72
1, 119428, Note_on_c, 0, 75, 75
1, 119432, Note_on_c, 0, 71, 0
1, 119469, Note_on_c, 0, 78, 67
1, 119476, Note_on_c, 0, 75, 0
1, 119497, Note_on_c, 0, 78, 0
1, 119504, Note_on_c, 0, 83, 74
1, 119553, Note_on_c, 0, 83, 0
1, 119571, Note_on_c, 0, 78, 74
1, 119609, Note_on_c, 0, 66, 52
1, 119610, Note_on_c, 0, 75, 73
1, 119641, Note_on_c, 0, 78, 0
1, 119645, Note_on_c, 0, 66, 0
1, 119648, Note_on_c, 0, 63, 62
1, 119663, Note_on_c, 0, 71, 64
1, 119687, Note_on_c, 0, 75, 0
1, 119712, Note_on_c, 0, 59, 56
1, 119722, Note_on_c, 0, 63, 0
1, 119732, Note_on_c, 0, 71, 0
1, 119735, Note_on_c, 0, 69, 70
1, 119743, Note_on_c, 0, 57, 71
1, 119759, Note_on_c, 0, 59, 0
1, 119793, Note_on_c, 0, 69, 0
1, 119799, Note_on_c, 0, 54, 68
1, 119823, Note_on_c, 0, 57, 0
1, 119849, Note_on_c, 0, 54, 0
1, 119947, Note_on_c, 0, 71, 84
1, 119951, Note_on_c, 0, 59, 81
1, 119961, Note_on_c, 0, 57, 66
1, 119966, Note_on_c, 0, 51, 62
1, 119977, Note_on_c, 0, 59, 0
1, 120001, Note_on_c, 0, 57, 0
1, 120027, Note_on_c, 0, 71, 0
1, 120027, Note_on_c, 0, 51, 0
1, 120121, Note_on_c, 0, 75, 90
1, 120124, Note_on_c, 0, 63, 86
1, 120126, Note_on_c, 0, 57, 70
1, 120139, Note_on_c, 0, 51, 53
1, 120162, Note_on_c, 0, 63, 0
1, 120181, Note_on_c, 0, 51, 0
1, 120198, Note_on_c, 0, 57, 0
1, 120202, Note_on_c, 0, 75, 0
1, 120263, Note_on_c, 0, 59, 74
1, 120266, Note_on_c, 0, 78, 90
1, 120269, Note_on_c, 0, 66, 85
1, 120270, Note_on_c, 0, 57, 63
1, 120271, Note_on_c, 0, 51, 72
1, 120285, Note_on_c, 0, 59, 0
1, 120295, Note_on_c, 0, 66, 0
1, 120303, Note_on_c, 0, 57, 0
1, 120324, Note_on_c, 0, 51, 0
1, 120351, Note_on_c, 0, 78, 0
1, 120518, Note_on_c, 0, 81, 90
1, 120524, Note_on_c, 0, 69, 80
1, 120526, Note_on_c, 0, 47, 83
1, 120528, Note_on_c, 0, 35, 70
1, 120529, Control_c, 0, 64, 73
1, 120544, Control_c, 0, 64, 51
1, 120558, Control_c, 0, 64, 0
1, 120573, Control_c, 0, 64, 8
1, 120588, Control_c, 0, 64, 49
1, 120589, Note_on_c, 0, 35, 0
1, 120603, Control_c, 0, 64, 67
1, 120617, Control_c, 0, 64, 87
1, 120625, Note_on_c, 0, 47, 0
1, 120632, Control_c, 0, 64, 127
1, 120678, Note_on_c, 0, 81, 0
1, 120709, Note_on_c, 0, 69, 0
1, 120733, Note_on_c, 0, 76, 61
1, 120735, Note_on_c, 0, 71, 71
1, 120744, Note_on_c, 0, 59, 71
1, 120750, Note_on_c, 0, 52, 59
1, 120750, Note_on_c, 0, 55, 58
1, 120769, Note_on_c, 0, 76, 0
1, 120776, Note_on_c, 0, 59, 0
1, 120781, Note_on_c, 0, 71, 0
1, 120785, Note_on_c, 0, 55, 0
1, 120790, Note_on_c, 0, 52, 0
1, 120875, Note_on_c, 0, 76, 64
1, 120881, Note_on_c, 0, 55, 57
1, 120881, Note_on_c, 0, 59, 57
1, 120888, Note_on_c, 0, 71, 55
1, 120896, Note_on_c, 0, 52, 35
1, 120914, Note_on_c, 0, 59, 0
1, 120920, Note_on_c, 0, 55, 0
1, 120923, Note_on_c, 0, 52, 0
1, 120923, Note_on_c, 0, 71, 0
1, 120951, Note_on_c, 0, 76, 0
1, 121014, Note_on_c, 0, 67, 83
1, 121016, Poly_aftertouch_c, 0, 76, 0
1, 121019, Note_on_c, 0, 52, 57
1, 121019, Note_on_c, 0, 79, 80
1, 121033, Note_on_c, 0, 59, 68
1, 121037, Note_on_c, 0, 55, 50
1, 121071, Note_on_c, 0, 55, 0
1, 121083, Note_on_c, 0, 52, 0
1, 121098, Note_on_c, 0, 59, 0
1, 121133, Note_on_c, 0, 67, 0
1, 121175, Note_on_c, 0, 79, 0
1, 121210, Note_on_c, 0, 55, 67
1, 121251, Note_on_c, 0, 59, 68
1, 121287, Note_on_c, 0, 55, 0
1, 121305, Note_on_c, 0, 60, 66
1, 121327, Note_on_c, 0, 64, 71
1, 121335, Note_on_c, 0, 71, 71
1, 121343, Note_on_c, 0, 59, 0
1, 121364, Note_on_c, 0, 60, 0
1, 121370, Note_on_c, 0, 71, 0
1, 121382, Note_on_c, 0, 72, 72
1, 121390, Note_on_c, 0, 64, 0
1, 121395, Note_on_c, 0, 67, 59
1, 121425, Note_on_c, 0, 76, 76
1, 121434, Note_on_c, 0, 72, 0
1, 121448, Note_on_c, 0, 67, 0
1, 121469, Note_on_c, 0, 76, 0
1, 121475, Note_on_c, 0, 79, 68
1, 121493, Note_on_c, 0, 83, 81
1, 121500, Note_on_c, 0, 79, 0
1, 121553, Note_on_c, 0, 83, 0
1, 121565, Note_on_c, 0, 79, 75
1, 121597, Note_on_c, 0, 67, 61
1, 121616, Note_on_c, 0, 76, 76
1, 121649, Note_on_c, 0, 64, 65
1, 121650, Note_on_c, 0, 67, 0
1, 121650, Note_on_c, 0, 79, 0
1, 121680, Note_on_c, 0, 72, 65
1, 121682, Note_on_c, 0, 76, 0
1, 121701, Note_on_c, 0, 60, 73
1, 121724, Note_on_c, 0, 64, 0
1, 121727, Note_on_c, 0, 72, 0
1, 121730, Note_on_c, 0, 71, 69
1, 121743, Note_on_c, 0, 59, 70
1, 121767, Note_on_c, 0, 60, 0
1, 121783, Note_on_c, 0, 71, 0
1, 121788, Note_on_c, 0, 55, 73
1, 121823, Note_on_c, 0, 59, 0
1, 121835, Note_on_c, 0, 55, 0
1, 121929, Note_on_c, 0, 72, 78
1, 121931, Note_on_c, 0, 60, 78
1, 121944, Note_on_c, 0, 59, 80
1, 121955, Note_on_c, 0, 52, 60
1, 121975, Note_on_c, 0, 55, 50
1, 121982, Note_on_c, 0, 60, 0
1, 122005, Note_on_c, 0, 59, 0
1, 122006, Note_on_c, 0, 52, 0
1, 122025, Note_on_c, 0, 72, 0
1, 122034, Note_on_c, 0, 55, 0
1, 122110, Note_on_c, 0, 59, 86
1, 122110, Note_on_c, 0, 64, 90
1, 122110, Note_on_c, 0, 76, 93
1, 122112, Note_on_c, 0, 52, 70
1, 122130, Note_on_c, 0, 55, 69
1, 122148, Note_on_c, 0, 64, 0
1, 122153, Note_on_c, 0, 59, 0
1, 122181, Note_on_c, 0, 76, 0
1, 122188, Note_on_c, 0, 52, 0
1, 122214, Note_on_c, 0, 55, 0
1, 122263, Note_on_c, 0, 55, 62
1, 122267, Note_on_c, 0, 59, 79
1, 122270, Note_on_c, 0, 79, 90
1, 122270, Note_on_c, 0, 52, 72
1, 122271, Note_on_c, 0, 67, 83
1, 122289, Note_on_c, 0, 59, 0
1, 122294, Note_on_c, 0, 67, 0
1, 122298, Note_on_c, 0, 55, 0
1, 122318, Note_on_c, 0, 52, 0
1, 122332, Note_on_c, 0, 79, 0
1, 122508, Control_c, 0, 64, 84
1, 122514, Note_on_c, 0, 83, 87
1, 122516, Note_on_c, 0, 35, 75
1, 122516, Note_on_c, 0, 47, 83
1, 122519, Note_on_c, 0, 71, 86
1, 122523, Control_c, 0, 64, 54
1, 122538, Control_c, 0, 64, 0
1, 122567, Control_c, 0, 64, 35
1, 122572, Note_on_c, 0, 35, 0
1, 122582, Control_c, 0, 64, 60
1, 122597, Control_c, 0, 64, 79
1, 122610, Note_on_c, 0, 47, 0
1, 122611, Control_c, 0, 64, 127
1, 122730, Note_on_c, 0, 71, 0
1, 122730, Note_on_c, 0, 76, 76
1, 122738, Note_on_c, 0, 83, 0
1, 122739, Note_on_c, 0, 64, 79
1, 122745, Note_on_c, 0, 61, 64
1, 122747, Note_on_c, 0, 52, 58
1, 122770, Note_on_c, 0, 64, 0
1, 122777, Note_on_c, 0, 54, 22
1, 122789, Note_on_c, 0, 61, 0
1, 122792, Note_on_c, 0, 52, 0
1, 122817, Note_on_c, 0, 54, 0
1, 122824, Note_on_c, 0, 76, 0
1, 122855, Note_on_c, 0, 64, 71
1, 122870, Note_on_c, 0, 81, 87
1, 122870, Note_on_c, 0, 52, 42
1, 122873, Note_on_c, 0, 69, 86
1, 122882, Note_on_c, 0, 64, 0
1, 122896, Note_on_c, 0, 54, 44
1, 122911, Note_on_c, 0, 52, 0
1, 122917, Note_on_c, 0, 81, 0
1, 122923, Note_on_c, 0, 69, 0
1, 122929, Note_on_c, 0, 54, 0
1, 123043, Note_on_c, 0, 54, 42
1, 123048, Control_c, 0, 64, 86
1, 123058, Note_on_c, 0, 59, 73
1, 123060, Note_on_c, 0, 51, 67
1, 123063, Control_c, 0, 64, 62
1, 123064, Note_on_c, 0, 75, 85
1, 123067, Note_on_c, 0, 63, 82
1, 123075, Note_on_c, 0, 57, 50
1, 123078, Control_c, 0, 64, 49
1, 123093, Control_c, 0, 64, 56
1, 123108, Control_c, 0, 64, 68
1, 123110, Note_on_c, 0, 57, 0
1, 123111, Note_on_c, 0, 51, 0
1, 123114, Note_on_c, 0, 54, 0
1, 123122, Note_on_c, 0, 59, 0
1, 123123, Control_c, 0, 64, 91
1, 123125, Note_on_c, 0, 63, 0
1, 123137, Control_c, 0, 64, 127
1, 123162, Note_on_c, 0, 75, 0
1, 123231, Note_on_c, 0, 78, 93
1, 123233, Note_on_c, 0, 66, 88
1, 123239, Note_on_c, 0, 63, 83
1, 123242, Note_on_c, 0, 54, 74
1, 123269, Note_on_c, 0, 66, 0
1, 123271, Note_on_c, 0, 54, 0
1, 123276, Note_on_c, 0, 63, 0
1, 123297, Note_on_c, 0, 78, 0
1, 123374, Note_on_c, 0, 81, 92
1, 123376, Note_on_c, 0, 66, 72
1, 123377, Note_on_c, 0, 69, 86
1, 123384, Note_on_c, 0, 57, 68
1, 123384, Note_on_c, 0, 63, 62
1, 123394, Note_on_c, 0, 66, 0
1, 123399, Note_on_c, 0, 69, 0
1, 123403, Note_on_c, 0, 63, 0
1, 123415, Note_on_c, 0, 57, 0
1, 123444, Note_on_c, 0, 81, 0
1, 123490, Poly_aftertouch_c, 0, 71, 0
1, 123613, Control_c, 0, 64, 90
1, 123614, Note_on_c, 0, 35, 78
1, 123614, Note_on_c, 0, 84, 91
1, 123615, Note_on_c, 0, 72, 89
1, 123617, Note_on_c, 0, 47, 83
1, 123627, Control_c, 0, 64, 65
1, 123642, Control_c, 0, 64, 52
1, 123659, Note_on_c, 0, 35, 0
1, 123665, Control_c, 0, 64, 58
1, 123680, Control_c, 0, 64, 67
1, 123695, Control_c, 0, 64, 87
1, 123701, Note_on_c, 0, 47, 0
1, 123709, Control_c, 0, 64, 127
1, 123773, Note_on_c, 0, 72, 0
1, 123799, Note_on_c, 0, 84, 0
1, 123813, Note_on_c, 0, 76, 79
1, 123819, Note_on_c, 0, 55, 76
1, 123827, Note_on_c, 0, 59, 58
1, 123829, Note_on_c, 0, 64, 68
1, 123852, Note_on_c, 0, 59, 0
1, 123864, Note_on_c, 0, 64, 0
1, 123880, Note_on_c, 0, 55, 0
1, 123905, Note_on_c, 0, 76, 0
1, 123949, Note_on_c, 0, 83, 88
1, 123950, Note_on_c, 0, 71, 91
1, 123953, Note_on_c, 0, 64, 76
1, 123954, Note_on_c, 0, 55, 61
1, 123957, Note_on_c, 0, 59, 60
1, 123986, Note_on_c, 0, 64, 0
1, 123991, Note_on_c, 0, 55, 0
1, 123993, Note_on_c, 0, 83, 0
1, 123993, Note_on_c, 0, 71, 0
1, 124005, Note_on_c, 0, 59, 0
1, 124110, Control_c, 0, 64, 99
1, 124121, Note_on_c, 0, 76, 94
1, 124124, Note_on_c, 0, 56, 65
1, 124124, Note_on_c, 0, 64, 91
1, 124125, Control_c, 0, 64, 69
1, 124128, Note_on_c, 0, 62, 75
1, 124134, Note_on_c, 0, 59, 61
1, 124140, Control_c, 0, 64, 58
1, 124154, Control_c, 0, 64, 63
1, 124163, Note_on_c, 0, 64, 0
1, 124169, Control_c, 0, 64, 72
1, 124183, Note_on_c, 0, 62, 0
1, 124184, Control_c, 0, 64, 100
1, 124187, Note_on_c, 0, 76, 0
1, 124199, Control_c, 0, 64, 127
1, 124235, Note_on_c, 0, 56, 0
1, 124257, Note_on_c, 0, 56, 6
1, 124271, Note_on_c, 0, 80, 89
1, 124276, Note_on_c, 0, 68, 87
1, 124278, Note_on_c, 0, 64, 78
1, 124283, Note_on_c, 0, 59, 0
1, 124283, Note_on_c, 0, 59, 3
1, 124286, Note_on_c, 0, 62, 59
1, 124295, Note_on_c, 0, 59, 0
1, 124298, Note_on_c, 0, 56, 0
1, 124307, Note_on_c, 0, 81, 51
1, 124315, Note_on_c, 0, 62, 0
1, 124318, Note_on_c, 0, 68, 0
1, 124323, Note_on_c, 0, 64, 0
1, 124329, Note_on_c, 0, 81, 0
1, 124339, Note_on_c, 0, 80, 0
1, 124423, Note_on_c, 0, 59, 65
1, 124428, Note_on_c, 0, 83, 96
1, 124431, Note_on_c, 0, 71, 101
1, 124438, Note_on_c, 0, 68, 81
1, 124448, Note_on_c, 0, 62, 59
1, 124456, Note_on_c, 0, 68, 0
1, 124467, Note_on_c, 0, 71, 0
1, 124476, Note_on_c, 0, 62, 0
1, 124488, Note_on_c, 0, 59, 0
1, 124508, Note_on_c, 0, 83, 0
1, 124665, Control_c, 0, 64, 115
1, 124667, Note_on_c, 0, 35, 76
1, 124669, Note_on_c, 0, 74, 91
1, 124669, Note_on_c, 0, 86, 95
1, 124671, Note_on_c, 0, 47, 89
1, 124680, Control_c, 0, 64, 73
1, 124695, Control_c, 0, 64, 57
1, 124709, Control_c, 0, 64, 54
1, 124713, Note_on_c, 0, 35, 0
1, 124724, Control_c, 0, 64, 63
1, 124739, Control_c, 0, 64, 74
1, 124751, Note_on_c, 0, 47, 0
1, 124754, Control_c, 0, 64, 127
1, 124800, Note_on_c, 0, 86, 0
1, 124814, Note_on_c, 0, 74, 0
1, 124855, Note_on_c, 0, 76, 74
1, 124857, Note_on_c, 0, 81, 66
1, 124870, Note_on_c, 0, 60, 67
1, 124870, Note_on_c, 0, 57, 66
1, 124876, Note_on_c, 0, 64, 69
1, 124907, Note_on_c, 0, 64, 0
1, 124916, Note_on_c, 0, 81, 0
1, 124917, Note_on_c, 0, 76, 0
1, 124917, Note_on_c, 0, 57, 0
1, 124923, Note_on_c, 0, 60, 0
1, 124978, Note_on_c, 0, 84, 85
1, 124987, Note_on_c, 0, 72, 81
1, 124998, Note_on_c, 0, 64, 78
1, 125006, Note_on_c, 0, 60, 69
1, 125011, Note_on_c, 0, 57, 62
1, 125016, Note_on_c, 0, 84, 0
1, 125025, Note_on_c, 0, 72, 0
1, 125049, Note_on_c, 0, 57, 0
1, 125056, Note_on_c, 0, 64, 0
1, 125077, Note_on_c, 0, 60, 0
1, 125141, Note_on_c, 0, 78, 87
1, 125145, Note_on_c, 0, 66, 83
1, 125154, Note_on_c, 0, 57, 69
1, 125159, Note_on_c, 0, 64, 83
1, 125162, Note_on_c, 0, 60, 67
1, 125178, Note_on_c, 0, 66, 0
1, 125213, Note_on_c, 0, 78, 0
1, 125218, Note_on_c, 0, 64, 0
1, 125225, Note_on_c, 0, 57, 0
1, 125244, Note_on_c, 0, 60, 0
1, 125295, Note_on_c, 0, 81, 95
1, 125296, Note_on_c, 0, 69, 91
1, 125305, Note_on_c, 0, 57, 71
1, 125306, Note_on_c, 0, 60, 68
1, 125309, Note_on_c, 0, 64, 84
1, 125328, Note_on_c, 0, 69, 0
1, 125356, Note_on_c, 0, 81, 0
1, 125359, Note_on_c, 0, 64, 0
1, 125371, Note_on_c, 0, 57, 0
1, 125397, Note_on_c, 0, 60, 0
1, 125439, Note_on_c, 0, 60, 69
1, 125439, Note_on_c, 0, 84, 95
1, 125440, Note_on_c, 0, 72, 93
1, 125442, Note_on_c, 0, 57, 78
1, 125452, Note_on_c, 0, 64, 73
1, 125474, Note_on_c, 0, 72, 0
1, 125478, Note_on_c, 0, 64, 0
1, 125481, Note_on_c, 0, 60, 0
1, 125491, Note_on_c, 0, 57, 0
1, 125503, Note_on_c, 0, 84, 0
1, 125678, Note_on_c, 0, 88, 93
1, 125680, Note_on_c, 0, 35, 81
1, 125680, Note_on_c, 0, 76, 90
1, 125682, Note_on_c, 0, 47, 90
1, 125697, Control_c, 0, 64, 75
1, 125711, Control_c, 0, 64, 55
1, 125726, Control_c, 0, 64, 45
1, 125727, Note_on_c, 0, 35, 0
1, 125741, Control_c, 0, 64, 56
1, 125755, Control_c, 0, 64, 65
1, 125768, Note_on_c, 0, 47, 0
1, 125770, Control_c, 0, 64, 84
1, 125785, Control_c, 0, 64, 127
1, 125826, Note_on_c, 0, 88, 0
1, 125862, Note_on_c, 0, 81, 58
1, 125866, Note_on_c, 0, 76, 0
1, 125874, Note_on_c, 0, 78, 73
1, 125882, Note_on_c, 0, 59, 71
1, 125884, Note_on_c, 0, 57, 66
1, 125889, Note_on_c, 0, 54, 66
1, 125925, Note_on_c, 0, 81, 0
1, 125931, Note_on_c, 0, 59, 0
1, 125937, Note_on_c, 0, 78, 0
1, 125940, Note_on_c, 0, 57, 0
1, 125942, Note_on_c, 0, 54, 0
1, 126019, Note_on_c, 0, 87, 90
1, 126020, Note_on_c, 0, 75, 94
1, 126027, Note_on_c, 0, 59, 71
1, 126030, Note_on_c, 0, 57, 66
1, 126032, Note_on_c, 0, 54, 63
1, 126048, Note_on_c, 0, 57, 0
1, 126051, Note_on_c, 0, 59, 0
1, 126058, Note_on_c, 0, 87, 0
1, 126058, Note_on_c, 0, 75, 0
1, 126067, Note_on_c, 0, 54, 0
1, 126193, Note_on_c, 0, 57, 23
1, 126205, Note_on_c, 0, 63, 86
1, 126208, Note_on_c, 0, 78, 92
1, 126210, Note_on_c, 0, 66, 90
1, 126212, Note_on_c, 0, 54, 66
1, 126222, Note_on_c, 0, 59, 65
1, 126252, Note_on_c, 0, 66, 0
1, 126271, Note_on_c, 0, 54, 0
1, 126276, Note_on_c, 0, 57, 0
1, 126279, Note_on_c, 0, 63, 0
1, 126288, Note_on_c, 0, 78, 0
1, 126291, Note_on_c, 0, 59, 0
1, 126396, Note_on_c, 0, 66, 80
1, 126396, Note_on_c, 0, 83, 99
1, 126398, Note_on_c, 0, 71, 98
1, 126402, Note_on_c, 0, 57, 66
1, 126432, Note_on_c, 0, 71, 0
1, 126448, Note_on_c, 0, 62, 24
1, 126451, Note_on_c, 0, 66, 0
1, 126484, Note_on_c, 0, 83, 0
1, 126487, Note_on_c, 0, 62, 0
1, 126496, Note_on_c, 0, 57, 0
1, 126592, Note_on_c, 0, 87, 100
1, 126596, Note_on_c, 0, 75, 92
1, 126602, Note_on_c, 0, 57, 78
1, 126602, Note_on_c, 0, 69, 93
1, 126630, Note_on_c, 0, 75, 0
1, 126640, Note_on_c, 0, 69, 0
1, 126679, Note_on_c, 0, 87, 0
1, 126680, Note_on_c, 0, 57, 0
1, 126897, Note_on_c, 0, 67, 95
1, 126898, Note_on_c, 0, 78, 101
1, 126898, Note_on_c, 0, 90, 98
1, 126899, Note_on_c, 0, 64, 86
1, 126899, Note_on_c, 0, 83, 91
1, 126906, Note_on_c, 0, 55, 72
1, 126909, Note_on_c, 0, 59, 79
1, 126911, Control_c, 0, 64, 84
1, 126926, Control_c, 0, 64, 59
1, 126941, Note_on_c, 0, 67, 0
1, 126941, Control_c, 0, 64, 15
1, 126953, Note_on_c, 0, 64, 0
1, 126956, Control_c, 0, 64, 0
1, 126971, Control_c, 0, 64, 41
1, 126976, Note_on_c, 0, 59, 0
1, 126985, Control_c, 0, 64, 62
1, 126989, Note_on_c, 0, 55, 0
1, 127000, Control_c, 0, 64, 83
1, 127015, Control_c, 0, 64, 127
1, 127130, Note_on_c, 0, 90, 0
1, 127148, Note_on_c, 0, 78, 0
1, 127165, Note_on_c, 0, 35, 71
1, 127169, Note_on_c, 0, 47, 96
1, 127192, Note_on_c, 0, 83, 0
1, 127200, Note_on_c, 0, 35, 0
1, 127218, Note_on_c, 0, 36, 29
1, 127224, Note_on_c, 0, 47, 0
1, 127261, Note_on_c, 0, 36, 0
1, 127386, Note_on_c, 0, 67, 93
1, 127387, Note_on_c, 0, 76, 95
1, 127387, Note_on_c, 0, 88, 94
1, 127389, Note_on_c, 0, 55, 81
1, 127426, Note_on_c, 0, 67, 0
1, 127427, Note_on_c, 0, 55, 0
1, 127431, Note_on_c, 0, 76, 0
1, 127461, Note_on_c, 0, 88, 0
1, 127675, Control_c, 0, 64, 109
1, 127690, Control_c, 0, 64, 68
1, 127699, Note_on_c, 0, 71, 95
1, 127699, Note_on_c, 0, 91, 99
1, 127700, Note_on_c, 0, 79, 97
1, 127700, Note_on_c, 0, 83, 92
1, 127703, Note_on_c, 0, 64, 82
1, 127703, Note_on_c, 0, 67, 85
1, 127703, Note_on_c, 0, 88, 84
1, 127705, Control_c, 0, 64, 38
1, 127707, Note_on_c, 0, 59, 71
1, 127720, Control_c, 0, 64, 15
1, 127734, Control_c, 0, 64, 51
1, 127749, Control_c, 0, 64, 68
1, 127764, Control_c, 0, 64, 98
1, 127768, Note_on_c, 0, 91, 0
1, 127770, Note_on_c, 0, 71, 0
1, 127779, Control_c, 0, 64, 127
1, 127785, Note_on_c, 0, 79, 0
1, 127788, Note_on_c, 0, 67, 0
1, 127789, Note_on_c, 0, 88, 0
1, 127803, Note_on_c, 0, 83, 0
1, 127807, Note_on_c, 0, 64, 0
1, 127830, Note_on_c, 0, 59, 0
1, 127979, Note_on_c, 0, 47, 65
1, 127983, Note_on_c, 0, 59, 63
1, 127986, Note_on_c, 0, 52, 72
1, 128013, Note_on_c, 0, 52, 0
1, 128024, Note_on_c, 0, 59, 0
1, 128059, Note_on_c, 0, 47, 0
1, 128090, Note_on_c, 0, 47, 13
1, 128134, Note_on_c, 0, 47, 0
1, 128162, Note_on_c, 0, 59, 70
1, 128166, Note_on_c, 0, 64, 69
1, 128167, Note_on_c, 0, 55, 72
1, 128170, Note_on_c, 0, 35, 72
1, 128201, Note_on_c, 0, 55, 0
1, 128207, Note_on_c, 0, 59, 0
1, 128220, Note_on_c, 0, 64, 0
1, 128322, Note_on_c, 0, 35, 0
1, 128331, Note_on_c, 0, 59, 71
1, 128333, Note_on_c, 0, 47, 82
1, 128334, Note_on_c, 0, 55, 62
1, 128335, Note_on_c, 0, 64, 68
1, 128363, Note_on_c, 0, 55, 0
1, 128377, Note_on_c, 0, 59, 0
1, 128402, Note_on_c, 0, 64, 0
1, 128451, Note_on_c, 0, 47, 0
1, 128483, Note_on_c, 0, 67, 76
1, 128484, Note_on_c, 0, 35, 75
1, 128488, Note_on_c, 0, 59, 71
1, 128500, Note_on_c, 0, 64, 43
1, 128507, Note_on_c, 0, 59, 0
1, 128528, Note_on_c, 0, 64, 0
1, 128531, Note_on_c, 0, 67, 0
1, 128611, Note_on_c, 0, 35, 0
1, 128619, Note_on_c, 0, 47, 79
1, 128627, Note_on_c, 0, 64, 65
1, 128630, Note_on_c, 0, 71, 72
1, 128632, Note_on_c, 0, 67, 78
1, 128640, Note_on_c, 0, 47, 0
1, 128652, Note_on_c, 0, 64, 0
1, 128656, Note_on_c, 0, 67, 0
1, 128667, Note_on_c, 0, 71, 0
1, 128861, Note_on_c, 0, 90, 94
1, 128864, Note_on_c, 0, 78, 90
1, 128866, Note_on_c, 0, 67, 75
1, 128867, Note_on_c, 0, 64, 71
1, 128867, Note_on_c, 0, 71, 77
1, 128896, Note_on_c, 0, 71, 0
1, 128915, Note_on_c, 0, 67, 0
1, 128927, Note_on_c, 0, 64, 0
1, 129067, Note_on_c, 0, 78, 0
1, 129074, Note_on_c, 0, 47, 83
1, 129084, Note_on_c, 0, 90, 0
1, 129084, Note_on_c, 0, 35, 71
1, 129142, Note_on_c, 0, 47, 0
1, 129147, Note_on_c, 0, 35, 0
1, 129164, Note_on_c, 0, 88, 96
1, 129166, Note_on_c, 0, 76, 94
1, 129192, Note_on_c, 0, 77, 56
1, 129193, Note_on_c, 0, 77, 0
1, 129264, Note_on_c, 0, 47, 93
1, 129272, Note_on_c, 0, 35, 78
1, 129302, Note_on_c, 0, 35, 0
1, 129310, Note_on_c, 0, 47, 0
1, 129341, Note_on_c, 0, 88, 0
1, 129348, Note_on_c, 0, 76, 0
1, 129547, Note_on_c, 0, 76, 99
1, 129547, Note_on_c, 0, 88, 92
1, 129548, Note_on_c, 0, 72, 94
1, 129549, Note_on_c, 0, 84, 78
1, 129550, Note_on_c, 0, 69, 87
1, 129550, Note_on_c, 0, 81, 90
1, 129555, Note_on_c, 0, 64, 80
1, 129557, Note_on_c, 0, 66, 77
1, 129557, Control_c, 0, 64, 91
1, 129573, Control_c, 0, 64, 65
1, 129588, Control_c, 0, 64, 49
1, 129591, Note_on_c, 0, 72, 0
1, 129602, Control_c, 0, 64, 51
1, 129614, Note_on_c, 0, 69, 0
1, 129617, Control_c, 0, 64, 63
1, 129632, Control_c, 0, 64, 77
1, 129639, Note_on_c, 0, 64, 0
1, 129641, Note_on_c, 0, 66, 0
1, 129654, Control_c, 0, 64, 127
1, 129745, Note_on_c, 0, 88, 0
1, 129752, Note_on_c, 0, 76, 0
1, 129773, Note_on_c, 0, 84, 0
1, 129779, Note_on_c, 0, 81, 0
1, 129803, Note_on_c, 0, 47, 77
1, 129831, Note_on_c, 0, 35, 37
1, 129839, Note_on_c, 0, 47, 0
1, 129865, Note_on_c, 0, 35, 0
1, 129949, Note_on_c, 0, 35, 63
1, 129950, Note_on_c, 0, 47, 77
1, 130014, Note_on_c, 0, 47, 0
1, 130023, Note_on_c, 0, 35, 0
1, 130098, Note_on_c, 0, 74, 84
1, 130100, Note_on_c, 0, 62, 85
1, 130106, Note_on_c, 0, 47, 81
1, 130111, Note_on_c, 0, 35, 66
1, 130152, Note_on_c, 0, 47, 0
1, 130165, Note_on_c, 0, 35, 0
1, 130221, Note_on_c, 0, 62, 0
1, 130223, Note_on_c, 0, 74, 0
1, 130252, Note_on_c, 0, 47, 81
1, 130260, Note_on_c, 0, 35, 72
1, 130303, Note_on_c, 0, 47, 0
1, 130314, Note_on_c, 0, 35, 0
1, 130322, Note_on_c, 0, 72, 89
1, 130323, Note_on_c, 0, 60, 88
1, 130422, Note_on_c, 0, 47, 90
1, 130423, Note_on_c, 0, 35, 76
1, 130446, Note_on_c, 0, 72, 0
1, 130450, Note_on_c, 0, 35, 0
1, 130459, Note_on_c, 0, 60, 0
1, 130480, Note_on_c, 0, 47, 0
1, 130606, Note_on_c, 0, 64, 86
1, 130608, Note_on_c, 0, 59, 90
1, 130609, Note_on_c, 0, 71, 85
1, 130619, Note_on_c, 0, 60, 68
1, 130620, Note_on_c, 0, 54, 73
1, 130641, Note_on_c, 0, 60, 0
1, 130653, Note_on_c, 0, 54, 0
1, 130736, Note_on_c, 0, 71, 0
1, 130737, Note_on_c, 0, 59, 0
1, 130784, Note_on_c, 0, 64, 0
1, 130786, Note_on_c, 0, 47, 60
1, 130790, Note_on_c, 0, 35, 53
1, 130796, Note_on_c, 0, 45, 51
1, 130814, Note_on_c, 0, 47, 0
1, 130822, Note_on_c, 0, 45, 0
1, 130828, Note_on_c, 0, 35, 0
1, 130842, Note_on_c, 0, 57, 86
1, 130843, Note_on_c, 0, 69, 86
1, 130867, Note_on_c, 0, 57, 0
1, 130901, Note_on_c, 0, 69, 0
1, 130942, Note_on_c, 0, 47, 88
1, 130949, Note_on_c, 0, 35, 74
1, 131112, Note_on_c, 0, 35, 0
1, 131133, Note_on_c, 0, 78, 78
1, 131138, Note_on_c, 0, 72, 99
1, 131138, Note_on_c, 0, 84, 92
1, 131146, Note_on_c, 0, 76, 92
1, 131177, Note_on_c, 0, 47, 0
1, 131217, Note_on_c, 0, 84, 0
1, 131219, Note_on_c, 0, 72, 0
1, 131248, Note_on_c, 0, 76, 0
1, 131250, Note_on_c, 0, 78, 0
1, 131270, Poly_aftertouch_c, 0, 81, 0
1, 131408, Note_on_c, 0, 55, 69
1, 131408, Note_on_c, 0, 67, 85
1, 131443, Note_on_c, 0, 67, 0
1, 131479, Note_on_c, 0, 54, 79
1, 131481, Note_on_c, 0, 55, 0
1, 131486, Note_on_c, 0, 66, 83
1, 131505, Note_on_c, 0, 54, 0
1, 131508, Note_on_c, 0, 66, 0
1, 131686, Control_c, 0, 64, 101
1, 131687, Note_on_c, 0, 81, 86
1, 131690, Note_on_c, 0, 52, 82
1, 131690, Note_on_c, 0, 69, 90
1, 131691, Note_on_c, 0, 48, 86
1, 131693, Note_on_c, 0, 42, 72
1, 131694, Note_on_c, 0, 72, 73
1, 131700, Control_c, 0, 64, 69
1, 131707, Note_on_c, 0, 76, 78
1, 131710, Note_on_c, 0, 77, 59
1, 131711, Poly_aftertouch_c, 0, 75, 0
1, 131714, Note_on_c, 0, 52, 0
1, 131715, Control_c, 0, 64, 45
1, 131729, Note_on_c, 0, 78, 38
1, 131730, Control_c, 0, 64, 12
1, 131738, Note_on_c, 0, 77, 0
1, 131740, Note_on_c, 0, 48, 0
1, 131745, Control_c, 0, 64, 38
1, 131756, Note_on_c, 0, 78, 0
1, 131760, Control_c, 0, 64, 61
1, 131765, Note_on_c, 0, 42, 0
1, 131774, Control_c, 0, 64, 77
1, 131784, Note_on_c, 0, 81, 0
1, 131789, Control_c, 0, 64, 127
1, 131825, Note_on_c, 0, 69, 0
1, 131853, Note_on_c, 0, 76, 0
1, 131860, Note_on_c, 0, 72, 0
1, 131871, Note_on_c, 0, 35, 79
1, 131920, Note_on_c, 0, 35, 0
1, 132021, Note_on_c, 0, 35, 80
1, 132090, Note_on_c, 0, 35, 0
1, 132173, Note_on_c, 0, 62, 84
1, 132173, Note_on_c, 0, 50, 87
1, 132185, Note_on_c, 0, 35, 81
1, 132205, Note_on_c, 0, 59, 41
1, 132231, Note_on_c, 0, 59, 0
1, 132247, Note_on_c, 0, 35, 0
1, 132319, Note_on_c, 0, 62, 0
1, 132325, Note_on_c, 0, 50, 0
1, 132332, Note_on_c, 0, 35, 74
1, 132397, Note_on_c, 0, 35, 0
1, 132405, Note_on_c, 0, 60, 87
1, 132406, Note_on_c, 0, 48, 88
1, 132465, Note_on_c, 0, 58, 5
1, 132492, Note_on_c, 0, 35, 88
1, 132519, Note_on_c, 0, 58, 0
1, 132542, Note_on_c, 0, 35, 0
1, 132555, Note_on_c, 0, 60, 0
1, 132558, Note_on_c, 0, 48, 0
1, 132669, Note_on_c, 0, 47, 83
1, 132669, Note_on_c, 0, 48, 77
1, 132669, Note_on_c, 0, 52, 76
1, 132671, Note_on_c, 0, 59, 81
1, 132674, Note_on_c, 0, 42, 78
1, 132696, Note_on_c, 0, 48, 0
1, 132713, Note_on_c, 0, 42, 0
1, 132771, Note_on_c, 0, 59, 0
1, 132784, Note_on_c, 0, 47, 0
1, 132816, Note_on_c, 0, 52, 0
1, 132821, Note_on_c, 0, 35, 73
1, 132872, Note_on_c, 0, 35, 0
1, 132888, Note_on_c, 0, 45, 85
1, 132889, Note_on_c, 0, 57, 83
1, 132916, Note_on_c, 0, 45, 0
1, 132947, Note_on_c, 0, 57, 0
1, 132980, Note_on_c, 0, 35, 88
1, 133160, Note_on_c, 0, 35, 0
1, 133172, Note_on_c, 0, 66, 81
1, 133175, Note_on_c, 0, 64, 87
1, 133177, Note_on_c, 0, 60, 89
1, 133177, Note_on_c, 0, 72, 90
1, 133213, Note_on_c, 0, 62, 37
1, 133246, Note_on_c, 0, 62, 0
1, 133252, Note_on_c, 0, 72, 0
1, 133258, Note_on_c, 0, 60, 0
1, 133286, Note_on_c, 0, 64, 0
1, 133291, Note_on_c, 0, 66, 0
1, 133359, Note_on_c, 0, 42, 86
1, 133366, Note_on_c, 0, 30, 75
1, 133443, Note_on_c, 0, 42, 0
1, 133445, Note_on_c, 0, 30, 0
1, 133475, Note_on_c, 0, 55, 93
1, 133523, Note_on_c, 0, 55, 0
1, 133555, Note_on_c, 0, 42, 90
1, 133565, Note_on_c, 0, 30, 73
1, 133593, Note_on_c, 0, 30, 0
1, 133609, Note_on_c, 0, 42, 0
1, 133612, Note_on_c, 0, 54, 84
1, 133680, Note_on_c, 0, 54, 0
1, 133784, Control_c, 0, 64, 78
1, 133799, Control_c, 0, 64, 56
1, 133811, Note_on_c, 0, 54, 87
1, 133813, Control_c, 0, 64, 37
1, 133815, Note_on_c, 0, 42, 86
1, 133815, Note_on_c, 0, 57, 85
1, 133816, Note_on_c, 0, 47, 94
1, 133817, Note_on_c, 0, 35, 74
1, 133817, Note_on_c, 0, 52, 83
1, 133828, Control_c, 0, 64, 54
1, 133842, Note_on_c, 0, 52, 0
1, 133843, Control_c, 0, 64, 68
1, 133851, Note_on_c, 0, 35, 0
1, 133858, Control_c, 0, 64, 98
1, 133860, Note_on_c, 0, 54, 0
1, 133869, Note_on_c, 0, 57, 0
1, 133871, Note_on_c, 0, 47, 0
1, 133872, Note_on_c, 0, 42, 0
1, 133873, Control_c, 0, 64, 127
1, 134073, Note_on_c, 0, 54, 82
1, 134075, Note_on_c, 0, 51, 84
1, 134075, Note_on_c, 0, 59, 80
1, 134075, Note_on_c, 0, 63, 82
1, 134079, Note_on_c, 0, 66, 84
1, 134096, Note_on_c, 0, 59, 0
1, 134107, Note_on_c, 0, 63, 0
1, 134117, Note_on_c, 0, 54, 0
1, 134117, Note_on_c, 0, 51, 0
1, 134121, Note_on_c, 0, 66, 0
1, 134327, Note_on_c, 0, 54, 77
1, 134328, Note_on_c, 0, 78, 79
1, 134331, Note_on_c, 0, 66, 89
1, 134331, Note_on_c, 0, 69, 94
1, 134331, Note_on_c, 0, 81, 86
1, 134333, Note_on_c, 0, 63, 82
1, 134335, Note_on_c, 0, 75, 87
1, 134346, Note_on_c, 0, 57, 68
1, 134361, Note_on_c, 0, 69, 0
1, 134376, Note_on_c, 0, 54, 0
1, 134379, Note_on_c, 0, 66, 0
1, 134382, Note_on_c, 0, 57, 0
1, 134387, Note_on_c, 0, 63, 0
1, 134387, Note_on_c, 0, 75, 0
1, 134390, Note_on_c, 0, 81, 0
1, 134394, Note_on_c, 0, 78, 0
1, 134663, Note_on_c, 0, 91, 101
1, 134665, Note_on_c, 0, 67, 103
1, 134665, Note_on_c, 0, 79, 97
1, 134928, Note_on_c, 0, 91, 0
1, 134946, Note_on_c, 0, 67, 0
1, 134963, Note_on_c, 0, 79, 0
1, 135074, Note_on_c, 0, 90, 95
1, 135076, Note_on_c, 0, 78, 100
1, 135077, Note_on_c, 0, 66, 92
1, 135205, Note_on_c, 0, 66, 0
1, 135241, Note_on_c, 0, 78, 0
1, 135249, Note_on_c, 0, 90, 0
1, 135367, Note_on_c, 0, 64, 100
1, 135368, Note_on_c, 0, 88, 97
1, 135372, Note_on_c, 0, 76, 98
1, 135490, Note_on_c, 0, 88, 0
1, 135514, Note_on_c, 0, 76, 0
1, 135541, Note_on_c, 0, 64, 0
1, 135661, Note_on_c, 0, 75, 95
1, 135664, Note_on_c, 0, 63, 95
1, 135664, Note_on_c, 0, 87, 97
1, 135727, Note_on_c, 0, 87, 0
1, 135729, Note_on_c, 0, 63, 0
1, 135771, Note_on_c, 0, 75, 0
1, 136019, Note_on_c, 0, 72, 99
1, 136025, Note_on_c, 0, 60, 92
1, 136030, Note_on_c, 0, 48, 78
1, 136045, Control_c, 0, 64, 95
1, 136060, Control_c, 0, 64, 67
1, 136075, Control_c, 0, 64, 37
1, 136090, Control_c, 0, 64, 0
1, 136105, Control_c, 0, 64, 34
1, 136120, Control_c, 0, 64, 59
1, 136135, Control_c, 0, 64, 74
1, 136150, Control_c, 0, 64, 96
1, 136164, Control_c, 0, 64, 127
1, 136186, Note_on_c, 0, 60, 0
1, 136195, Note_on_c, 0, 48, 0
1, 136281, Note_on_c, 0, 72, 0
1, 136370, Note_on_c, 0, 71, 106
1, 136372, Note_on_c, 0, 59, 88
1, 136385, Note_on_c, 0, 47, 79
1, 136428, Note_on_c, 0, 59, 0
1, 136452, Note_on_c, 0, 47, 0
1, 136510, Note_on_c, 0, 71, 0
1, 136624, Note_on_c, 0, 69, 102
1, 136625, Note_on_c, 0, 57, 87
1, 136631, Note_on_c, 0, 45, 77
1, 136671, Note_on_c, 0, 57, 0
1, 136687, Note_on_c, 0, 45, 0
1, 136714, Note_on_c, 0, 69, 0
1, 136853, Note_on_c, 0, 67, 99
1, 136855, Note_on_c, 0, 55, 88
1, 136861, Note_on_c, 0, 43, 80
1, 136880, Note_on_c, 0, 55, 0
1, 136903, Note_on_c, 0, 67, 0
1, 136918, Note_on_c, 0, 43, 0
1, 137169, Note_on_c, 0, 54, 93
1, 137175, Note_on_c, 0, 42, 95
1, 137176, Note_on_c, 0, 30, 83
1, 137187, Control_c, 0, 64, 79
1, 137202, Control_c, 0, 64, 55
1, 137217, Control_c, 0, 64, 33
1, 137232, Control_c, 0, 64, 41
1, 137246, Control_c, 0, 64, 60
1, 137261, Control_c, 0, 64, 74
1, 137276, Control_c, 0, 64, 97
1, 137291, Control_c, 0, 64, 127
1, 137313, Note_on_c, 0, 42, 0
1, 137335, Note_on_c, 0, 30, 0
1, 137399, Note_on_c, 0, 54, 0
1, 137512, Note_on_c, 0, 52, 101
1, 137520, Note_on_c, 0, 40, 94
1, 137523, Note_on_c, 0, 28, 86
1, 137527, Control_c, 0, 64, 85
1, 137542, Control_c, 0, 64, 61
1, 137558, Control_c, 0, 64, 20
1, 137573, Control_c, 0, 64, 0
1, 137587, Control_c, 0, 64, 28
1, 137602, Control_c, 0, 64, 59
1, 137617, Control_c, 0, 64, 72
1, 137632, Control_c, 0, 64, 90
1, 137647, Control_c, 0, 64, 127
1, 137752, Note_on_c, 0, 52, 0
1, 137756, Note_on_c, 0, 40, 0
1, 137761, Note_on_c, 0, 28, 0
1, 138008, Note_on_c, 0, 51, 98
1, 138013, Note_on_c, 0, 39, 89
1, 138016, Note_on_c, 0, 27, 86
1, 138071, Note_on_c, 0, 39, 0
1, 138100, Note_on_c, 0, 27, 0
1, 138116, Note_on_c, 0, 51, 0
1, 138192, Note_on_c, 0, 50, 102
1, 138195, Note_on_c, 0, 38, 93
1, 138198, Note_on_c, 0, 26, 85
1, 138244, Note_on_c, 0, 38, 0
1, 138258, Note_on_c, 0, 26, 0
1, 138266, Note_on_c, 0, 50, 0
1, 138358, Note_on_c, 0, 37, 88
1, 138358, Note_on_c, 0, 49, 94
1, 138360, Note_on_c, 0, 25, 85
1, 138396, Note_on_c, 0, 37, 0
1, 138422, Note_on_c, 0, 25, 0
1, 138428, Note_on_c, 0, 49, 0
1, 138488, Note_on_c, 0, 48, 98
1, 138496, Note_on_c, 0, 36, 88
1, 138498, Note_on_c, 0, 24, 83
1, 138531, Note_on_c, 0, 36, 0
1, 138551, Note_on_c, 0, 24, 0
1, 138553, Note_on_c, 0, 48, 0
1, 138626, Note_on_c, 0, 47, 97
1, 138635, Note_on_c, 0, 35, 89
1, 138637, Note_on_c, 0, 23, 90
1, 138671, Note_on_c, 0, 23, 0
1, 138674, Note_on_c, 0, 35, 0
1, 138684, Note_on_c, 0, 47, 0
1, 138701, Note_on_c, 0, 33, 3
1, 138728, Note_on_c, 0, 33, 0
1, 138883, Note_on_c, 0, 55, 84
1, 138886, Note_on_c, 0, 52, 95
1, 138887, Note_on_c, 0, 64, 86
1, 138889, Note_on_c, 0, 40, 95
1, 138892, Control_c, 0, 64, 72
1, 138894, Note_on_c, 0, 28, 83
1, 138902, Note_on_c, 0, 60, 62
1, 138907, Control_c, 0, 64, 45
1, 138922, Control_c, 0, 64, 0
1, 138937, Note_on_c, 0, 60, 0
1, 138937, Control_c, 0, 64, 41
1, 138951, Control_c, 0, 64, 66
1, 138954, Note_on_c, 0, 28, 0
1, 138966, Control_c, 0, 64, 89
1, 138981, Note_on_c, 0, 40, 0
1, 138981, Control_c, 0, 64, 127
1, 139003, Note_on_c, 0, 52, 0
1, 139032, Note_on_c, 0, 55, 0
1, 139050, Note_on_c, 0, 64, 0
1, 139064, Note_on_c, 0, 52, 62
1, 139102, Note_on_c, 0, 52, 0
1, 139127, Note_on_c, 0, 47, 76
1, 139133, Note_on_c, 0, 55, 73
1, 139160, Note_on_c, 0, 55, 0
1, 139175, Note_on_c, 0, 59, 69
1, 139197, Note_on_c, 0, 59, 0
1, 139206, Note_on_c, 0, 52, 77
1, 139217, Note_on_c, 0, 47, 0
1, 139242, Note_on_c, 0, 55, 70
1, 139264, Note_on_c, 0, 64, 77
1, 139284, Note_on_c, 0, 52, 0
1, 139300, Note_on_c, 0, 59, 68
1, 139318, Note_on_c, 0, 64, 0
1, 139320, Note_on_c, 0, 55, 0
1, 139325, Note_on_c, 0, 67, 71
1, 139349, Note_on_c, 0, 67, 0
1, 139350, Note_on_c, 0, 59, 0
1, 139362, Note_on_c, 0, 71, 72
1, 139395, Note_on_c, 0, 71, 0
1, 139450, Note_on_c, 0, 76, 77
1, 139498, Note_on_c, 0, 76, 0
1, 139498, Note_on_c, 0, 79, 72
1, 139530, Note_on_c, 0, 79, 0
1, 139536, Note_on_c, 0, 83, 75
1, 139558, Note_on_c, 0, 83, 0
1, 139619, Note_on_c, 0, 88, 82
1, 139638, Note_on_c, 0, 76, 79
1, 139653, Note_on_c, 0, 71, 61
1, 139658, Note_on_c, 0, 88, 0
1, 139658, Note_on_c, 0, 67, 59
1, 139658, Note_on_c, 0, 91, 78
1, 139660, Note_on_c, 0, 64, 56
1, 139680, Note_on_c, 0, 64, 0
1, 139685, Note_on_c, 0, 76, 0
1, 139691, Note_on_c, 0, 95, 75
1, 139695, Note_on_c, 0, 71, 0
1, 139697, Note_on_c, 0, 67, 0
1, 139703, Note_on_c, 0, 91, 0
1, 139726, Note_on_c, 0, 100, 83
1, 139736, Note_on_c, 0, 95, 0
1, 139749, Note_on_c, 0, 71, 88
1, 139750, Note_on_c, 0, 76, 92
1, 139752, Note_on_c, 0, 64, 79
1, 139755, Note_on_c, 0, 67, 80
1, 139773, Note_on_c, 0, 95, 59
1, 139780, Note_on_c, 0, 100, 0
1, 139812, Note_on_c, 0, 91, 84
1, 139828, Note_on_c, 0, 95, 0
1, 139852, Note_on_c, 0, 91, 0
1, 139855, Note_on_c, 0, 88, 66
1, 139878, Note_on_c, 0, 88, 0
1, 139903, Note_on_c, 0, 76, 0
1, 139953, Note_on_c, 0, 83, 76
1, 140005, Note_on_c, 0, 79, 76
1, 140010, Note_on_c, 0, 71, 0
1, 140017, Note_on_c, 0, 83, 0
1, 140027, Note_on_c, 0, 64, 0
1, 140044, Note_on_c, 0, 67, 0
1, 140049, Note_on_c, 0, 79, 0
1, 140056, Note_on_c, 0, 76, 66
1, 140081, Note_on_c, 0, 76, 0
1, 140144, Note_on_c, 0, 71, 82
1, 140198, Note_on_c, 0, 67, 67
1, 140210, Note_on_c, 0, 71, 0
1, 140250, Note_on_c, 0, 67, 0
1, 140253, Note_on_c, 0, 64, 72
1, 140276, Note_on_c, 0, 64, 0
1, 140352, Note_on_c, 0, 59, 63
1, 140369, Note_on_c, 0, 55, 79
1, 140385, Note_on_c, 0, 42, 80
1, 140388, Note_on_c, 0, 36, 74
1, 140390, Note_on_c, 0, 57, 21
1, 140391, Note_on_c, 0, 59, 0
1, 140391, Note_on_c, 0, 48, 78
1, 140415, Note_on_c, 0, 47, 53
1, 140425, Note_on_c, 0, 48, 0
1, 140430, Note_on_c, 0, 36, 0
1, 140430, Note_on_c, 0, 52, 65
1, 140432, Note_on_c, 0, 57, 0
1, 140439, Note_on_c, 0, 55, 0
1, 140440, Note_on_c, 0, 42, 0
1, 140442, Note_on_c, 0, 47, 0
1, 140455, Note_on_c, 0, 52, 0
1, 140464, Control_c, 0, 64, 101
1, 140479, Control_c, 0, 64, 69
1, 140489, Note_on_c, 0, 48, 87
1, 140490, Note_on_c, 0, 43, 91
1, 140491, Note_on_c, 0, 55, 72
1, 140494, Control_c, 0, 64, 44
1, 140496, Note_on_c, 0, 60, 79
1, 140499, Note_on_c, 0, 36, 52
1, 140500, Note_on_c, 0, 36, 0
1, 140502, Note_on_c, 0, 52, 53
1, 140508, Note_on_c, 0, 64, 43
1, 140508, Control_c, 0, 64, 0
1, 140523, Control_c, 0, 64, 36
1, 140526, Note_on_c, 0, 52, 0
1, 140537, Note_on_c, 0, 64, 0
1, 140538, Control_c, 0, 64, 56
1, 140545, Note_on_c, 0, 55, 0
1, 140553, Control_c, 0, 64, 70
1, 140566, Note_on_c, 0, 60, 0
1, 140568, Control_c, 0, 64, 92
1, 140579, Note_on_c, 0, 52, 73
1, 140582, Control_c, 0, 64, 127
1, 140588, Note_on_c, 0, 55, 60
1, 140603, Note_on_c, 0, 52, 0
1, 140628, Note_on_c, 0, 60, 59
1, 140635, Note_on_c, 0, 55, 0
1, 140666, Note_on_c, 0, 60, 0
1, 140729, Note_on_c, 0, 64, 77
1, 140764, Note_on_c, 0, 43, 0
1, 140767, Note_on_c, 0, 64, 0
1, 140779, Note_on_c, 0, 48, 0
1, 140782, Note_on_c, 0, 67, 72
1, 140823, Note_on_c, 0, 67, 0
1, 140828, Note_on_c, 0, 72, 73
1, 140851, Note_on_c, 0, 72, 0
1, 140921, Note_on_c, 0, 76, 78
1, 140967, Note_on_c, 0, 76, 0
1, 140967, Note_on_c, 0, 79, 72
1, 141002, Note_on_c, 0, 79, 0
1, 141008, Note_on_c, 0, 84, 70
1, 141028, Note_on_c, 0, 84, 0
1, 141089, Note_on_c, 0, 88, 78
1, 141119, Note_on_c, 0, 72, 62
1, 141131, Note_on_c, 0, 60, 49
1, 141133, Note_on_c, 0, 91, 74
1, 141134, Note_on_c, 0, 88, 0
1, 141137, Note_on_c, 0, 64, 52
1, 141146, Note_on_c, 0, 67, 43
1, 141152, Note_on_c, 0, 72, 0
1, 141158, Note_on_c, 0, 60, 0
1, 141174, Note_on_c, 0, 67, 0
1, 141175, Note_on_c, 0, 96, 75
1, 141184, Note_on_c, 0, 91, 0
1, 141190, Note_on_c, 0, 64, 0
1, 141205, Note_on_c, 0, 100, 79
1, 141238, Note_on_c, 0, 67, 92
1, 141239, Note_on_c, 0, 72, 95
1, 141240, Note_on_c, 0, 60, 76
1, 141240, Note_on_c, 0, 64, 79
1, 141254, Note_on_c, 0, 100, 0
1, 141274, Note_on_c, 0, 91, 81
1, 141293, Note_on_c, 0, 96, 0
1, 141313, Note_on_c, 0, 88, 71
1, 141315, Note_on_c, 0, 91, 0
1, 141334, Note_on_c, 0, 88, 0
1, 141406, Note_on_c, 0, 84, 76
1, 141408, Note_on_c, 0, 72, 0
1, 141456, Note_on_c, 0, 79, 75
1, 141470, Note_on_c, 0, 84, 0
1, 141500, Note_on_c, 0, 79, 0
1, 141503, Note_on_c, 0, 67, 0
1, 141506, Note_on_c, 0, 76, 71
1, 141529, Note_on_c, 0, 76, 0
1, 141540, Note_on_c, 0, 64, 0
1, 141553, Note_on_c, 0, 60, 0
1, 141590, Note_on_c, 0, 72, 64
1, 141643, Note_on_c, 0, 67, 75
1, 141668, Note_on_c, 0, 72, 0
1, 141698, Note_on_c, 0, 64, 78
1, 141702, Note_on_c, 0, 67, 0
1, 141736, Note_on_c, 0, 64, 0
1, 141782, Note_on_c, 0, 60, 78
1, 141831, Note_on_c, 0, 55, 75
1, 141863, Note_on_c, 0, 60, 0
1, 141888, Note_on_c, 0, 52, 82
1, 141911, Note_on_c, 0, 55, 0
1, 141922, Note_on_c, 0, 52, 0
1, 141954, Note_on_c, 0, 33, 73
1, 141967, Note_on_c, 0, 31, 62
1, 141992, Note_on_c, 0, 34, 16
1, 142000, Note_on_c, 0, 31, 0
1, 142043, Note_on_c, 0, 34, 0
1, 142117, Note_on_c, 0, 85, 33
1, 142144, Note_on_c, 0, 85, 0
1, 142144, Note_on_c, 0, 85, 11
1, 142147, Note_on_c, 0, 45, 97
1, 142150, Note_on_c, 0, 81, 86
1, 142150, Note_on_c, 0, 91, 99
1, 142153, Note_on_c, 0, 79, 97
1, 142162, Note_on_c, 0, 85, 0
1, 142168, Control_c, 0, 64, 87
1, 142174, Note_on_c, 0, 84, 60
1, 142183, Control_c, 0, 64, 65
1, 142189, Note_on_c, 0, 84, 0
1, 142198, Control_c, 0, 64, 41
1, 142213, Control_c, 0, 64, 0
1, 142228, Note_on_c, 0, 33, 0
1, 142243, Control_c, 0, 64, 44
1, 142257, Control_c, 0, 64, 65
1, 142262, Note_on_c, 0, 45, 0
1, 142272, Control_c, 0, 64, 82
1, 142287, Control_c, 0, 64, 127
1, 142434, Note_on_c, 0, 52, 72
1, 142509, Note_on_c, 0, 55, 66
1, 142533, Note_on_c, 0, 52, 0
1, 142543, Note_on_c, 0, 57, 72
1, 142553, Note_on_c, 0, 79, 0
1, 142554, Note_on_c, 0, 55, 0
1, 142576, Note_on_c, 0, 57, 0
1, 142578, Note_on_c, 0, 81, 0
1, 142582, Note_on_c, 0, 60, 68
1, 142609, Note_on_c, 0, 60, 0
1, 142660, Note_on_c, 0, 91, 0
1, 142681, Note_on_c, 0, 64, 75
1, 142706, Poly_aftertouch_c, 0, 87, 0
1, 142739, Note_on_c, 0, 67, 72
1, 142767, Note_on_c, 0, 64, 0
1, 142782, Note_on_c, 0, 69, 61
1, 142791, Note_on_c, 0, 67, 0
1, 142827, Note_on_c, 0, 69, 0
1, 142832, Note_on_c, 0, 72, 71
1, 142892, Note_on_c, 0, 72, 0
1, 142943, Note_on_c, 0, 76, 76
1, 142955, Note_on_c, 0, 90, 85
1, 142957, Note_on_c, 0, 78, 85
1, 142959, Note_on_c, 0, 84, 73
1, 142973, Note_on_c, 0, 76, 0
1, 143024, Note_on_c, 0, 72, 64
1, 143068, Note_on_c, 0, 72, 0
1, 143096, Note_on_c, 0, 69, 73
1, 143127, Note_on_c, 0, 90, 0
1, 143145, Note_on_c, 0, 67, 67
1, 143152, Note_on_c, 0, 69, 0
1, 143159, Note_on_c, 0, 84, 0
1, 143176, Note_on_c, 0, 78, 0
1, 143193, Note_on_c, 0, 64, 77
1, 143199, Note_on_c, 0, 67, 0
1, 143217, Note_on_c, 0, 64, 0
1, 143304, Note_on_c, 0, 60, 75
1, 143322, Note_on_c, 0, 88, 85
1, 143323, Note_on_c, 0, 76, 87
1, 143358, Note_on_c, 0, 60, 0
1, 143363, Note_on_c, 0, 57, 72
1, 143416, Note_on_c, 0, 55, 70
1, 143435, Note_on_c, 0, 57, 0
1, 143468, Note_on_c, 0, 52, 74
1, 143477, Note_on_c, 0, 55, 0
1, 143497, Note_on_c, 0, 52, 0
1, 143554, Note_on_c, 0, 88, 0
1, 143577, Note_on_c, 0, 76, 0
1, 143650, Note_on_c, 0, 38, 66
1, 143655, Note_on_c, 0, 45, 63
1, 143658, Note_on_c, 0, 86, 85
1, 143664, Note_on_c, 0, 74, 80
1, 143665, Note_on_c, 0, 78, 74
1, 143693, Note_on_c, 0, 38, 0
1, 143695, Control_c, 0, 64, 87
1, 143710, Control_c, 0, 64, 63
1, 143724, Control_c, 0, 64, 45
1, 143739, Control_c, 0, 64, 43
1, 143748, Note_on_c, 0, 45, 0
1, 143754, Control_c, 0, 64, 57
1, 143769, Control_c, 0, 64, 71
1, 143769, Note_on_c, 0, 50, 57
1, 143784, Control_c, 0, 64, 92
1, 143799, Control_c, 0, 64, 127
1, 143803, Note_on_c, 0, 50, 0
1, 143865, Note_on_c, 0, 54, 68
1, 143936, Note_on_c, 0, 57, 69
1, 143939, Note_on_c, 0, 74, 0
1, 143948, Note_on_c, 0, 86, 0
1, 143960, Note_on_c, 0, 54, 0
1, 143990, Note_on_c, 0, 57, 0
1, 144027, Note_on_c, 0, 84, 80
1, 144028, Note_on_c, 0, 62, 54
1, 144028, Note_on_c, 0, 72, 81
1, 144039, Note_on_c, 0, 78, 0
1, 144050, Note_on_c, 0, 62, 0
1, 144118, Note_on_c, 0, 66, 62
1, 144174, Note_on_c, 0, 66, 0
1, 144174, Note_on_c, 0, 72, 0
1, 144194, Note_on_c, 0, 69, 58
1, 144243, Note_on_c, 0, 69, 0
1, 144256, Note_on_c, 0, 62, 66
1, 144291, Note_on_c, 0, 62, 0
1, 144294, Note_on_c, 0, 66, 66
1, 144323, Note_on_c, 0, 66, 0
1, 144379, Note_on_c, 0, 74, 62
1, 144405, Note_on_c, 0, 74, 0
1, 144431, Note_on_c, 0, 72, 72
1, 144482, Note_on_c, 0, 72, 0
1, 144500, Note_on_c, 0, 69, 57
1, 144536, Note_on_c, 0, 84, 0
1, 144537, Note_on_c, 0, 69, 0
1, 144541, Note_on_c, 0, 66, 68
1, 144559, Note_on_c, 0, 66, 0
1, 144645, Note_on_c, 0, 83, 87
1, 144653, Note_on_c, 0, 71, 76
1, 144654, Note_on_c, 0, 62, 70
1, 144689, Note_on_c, 0, 62, 0
1, 144705, Note_on_c, 0, 71, 0
1, 144711, Note_on_c, 0, 60, 66
1, 144717, Note_on_c, 0, 83, 0
1, 144785, Note_on_c, 0, 60, 0
1, 144785, Note_on_c, 0, 57, 70
1, 144803, Note_on_c, 0, 81, 86
1, 144812, Note_on_c, 0, 69, 75
1, 144821, Note_on_c, 0, 57, 0
1, 144828, Note_on_c, 0, 54, 65
1, 144854, Note_on_c, 0, 54, 0
1, 144871, Note_on_c, 0, 69, 0
1, 144889, Note_on_c, 0, 81, 0
1, 144929, Note_on_c, 0, 43, 70
1, 144966, Note_on_c, 0, 43, 0
1, 144997, Note_on_c, 0, 50, 68
1, 145072, Note_on_c, 0, 79, 77
1, 145074, Note_on_c, 0, 71, 70
1, 145074, Control_c, 0, 64, 99
1, 145075, Note_on_c, 0, 67, 77
1, 145083, Note_on_c, 0, 59, 70
1, 145089, Control_c, 0, 64, 70
1, 145104, Control_c, 0, 64, 49
1, 145119, Control_c, 0, 64, 34
1, 145134, Control_c, 0, 64, 52
1, 145148, Note_on_c, 0, 79, 0
1, 145149, Control_c, 0, 64, 68
1, 145164, Control_c, 0, 64, 87
1, 145177, Note_on_c, 0, 67, 0
1, 145178, Control_c, 0, 64, 127
1, 145186, Note_on_c, 0, 71, 0
1, 145223, Note_on_c, 0, 59, 0
1, 145270, Note_on_c, 0, 50, 0
1, 145308, Note_on_c, 0, 55, 68
1, 145333, Note_on_c, 0, 55, 0
1, 145353, Note_on_c, 0, 59, 71
1, 145403, Note_on_c, 0, 59, 0
1, 145412, Note_on_c, 0, 62, 66
1, 145432, Note_on_c, 0, 62, 0
1, 145500, Note_on_c, 0, 67, 77
1, 145545, Note_on_c, 0, 67, 0
1, 145549, Note_on_c, 0, 71, 74
1, 145589, Note_on_c, 0, 71, 0
1, 145594, Note_on_c, 0, 74, 69
1, 145618, Note_on_c, 0, 74, 0
1, 145679, Note_on_c, 0, 79, 75
1, 145713, Note_on_c, 0, 83, 79
1, 145715, Note_on_c, 0, 79, 0
1, 145724, Note_on_c, 0, 71, 75
1, 145733, Note_on_c, 0, 59, 55
1, 145739, Note_on_c, 0, 67, 65
1, 145745, Note_on_c, 0, 62, 57
1, 145757, Note_on_c, 0, 86, 74
1, 145764, Note_on_c, 0, 83, 0
1, 145767, Note_on_c, 0, 59, 0
1, 145769, Note_on_c, 0, 71, 0
1, 145772, Note_on_c, 0, 67, 0
1, 145785, Note_on_c, 0, 62, 0
1, 145793, Note_on_c, 0, 91, 80
1, 145799, Note_on_c, 0, 86, 0
1, 145839, Note_on_c, 0, 71, 93
1, 145841, Note_on_c, 0, 67, 92
1, 145845, Note_on_c, 0, 62, 80
1, 145846, Note_on_c, 0, 59, 80
1, 145848, Note_on_c, 0, 86, 65
1, 145852, Note_on_c, 0, 91, 0
1, 145889, Note_on_c, 0, 83, 76
1, 145909, Note_on_c, 0, 86, 0
1, 145936, Note_on_c, 0, 83, 0
1, 145938, Note_on_c, 0, 79, 67
1, 145951, Note_on_c, 0, 71, 0
1, 145963, Note_on_c, 0, 79, 0
1, 146037, Note_on_c, 0, 74, 71
1, 146039, Note_on_c, 0, 67, 0
1, 146091, Note_on_c, 0, 71, 74
1, 146095, Note_on_c, 0, 59, 0
1, 146098, Note_on_c, 0, 62, 0
1, 146099, Note_on_c, 0, 74, 0
1, 146142, Note_on_c, 0, 71, 0
1, 146152, Note_on_c, 0, 67, 70
1, 146176, Note_on_c, 0, 67, 0
1, 146237, Note_on_c, 0, 62, 70
1, 146283, Note_on_c, 0, 59, 68
1, 146296, Note_on_c, 0, 62, 0
1, 146331, Note_on_c, 0, 55, 80
1, 146335, Note_on_c, 0, 52, 77
1, 146341, Note_on_c, 0, 47, 68
1, 146346, Note_on_c, 0, 40, 64
1, 146366, Note_on_c, 0, 52, 0
1, 146368, Note_on_c, 0, 59, 0
1, 146374, Note_on_c, 0, 47, 0
1, 146377, Note_on_c, 0, 55, 0
1, 146379, Note_on_c, 0, 40, 0
1, 146413, Note_on_c, 0, 67, 45
1, 146424, Control_c, 0, 64, 106
1, 146429, Note_on_c, 0, 52, 90
1, 146430, Note_on_c, 0, 64, 51
1, 146431, Note_on_c, 0, 47, 92
1, 146437, Note_on_c, 0, 40, 89
1, 146438, Note_on_c, 0, 59, 66
1, 146439, Control_c, 0, 64, 73
1, 146450, Note_on_c, 0, 55, 59
1, 146454, Control_c, 0, 64, 55
1, 146467, Note_on_c, 0, 64, 0
1, 146468, Control_c, 0, 64, 51
1, 146479, Note_on_c, 0, 59, 0
1, 146482, Note_on_c, 0, 67, 0
1, 146483, Control_c, 0, 64, 59
1, 146498, Control_c, 0, 64, 67
1, 146513, Control_c, 0, 64, 83
1, 146527, Note_on_c, 0, 55, 0
1, 146528, Control_c, 0, 64, 127
1, 146538, Poly_aftertouch_c, 0, 59, 127
1, 146559, Poly_aftertouch_c, 0, 59, 0
1, 146572, Note_on_c, 0, 64, 67
1, 146601, Note_on_c, 0, 64, 0
1, 146667, Note_on_c, 0, 67, 72
1, 146684, Note_on_c, 0, 40, 0
1, 146710, Note_on_c, 0, 71, 73
1, 146712, Note_on_c, 0, 67, 0
1, 146720, Note_on_c, 0, 47, 0
1, 146732, Note_on_c, 0, 52, 0
1, 146761, Note_on_c, 0, 71, 0
1, 146761, Note_on_c, 0, 76, 72
1, 146788, Note_on_c, 0, 76, 0
1, 146848, Note_on_c, 0, 79, 77
1, 146896, Note_on_c, 0, 83, 76
1, 146902, Note_on_c, 0, 79, 0
1, 146937, Note_on_c, 0, 83, 0
1, 146940, Note_on_c, 0, 88, 73
1, 146961, Note_on_c, 0, 88, 0
1, 147023, Note_on_c, 0, 91, 85
1, 147062, Note_on_c, 0, 76, 68
1, 147063, Note_on_c, 0, 95, 80
1, 147071, Note_on_c, 0, 71, 58
1, 147073, Note_on_c, 0, 64, 53
1, 147079, Note_on_c, 0, 91, 0
1, 147080, Note_on_c, 0, 67, 52
1, 147096, Note_on_c, 0, 76, 0
1, 147107, Note_on_c, 0, 64, 0
1, 147113, Note_on_c, 0, 71, 0
1, 147114, Note_on_c, 0, 100, 67
1, 147116, Note_on_c, 0, 95, 0
1, 147118, Note_on_c, 0, 67, 0
1, 147135, Note_on_c, 0, 103, 76
1, 147176, Note_on_c, 0, 71, 86
1, 147177, Note_on_c, 0, 76, 96
1, 147185, Note_on_c, 0, 103, 0
1, 147186, Note_on_c, 0, 67, 75
1, 147188, Note_on_c, 0, 64, 77
1, 147206, Note_on_c, 0, 95, 79
1, 147219, Note_on_c, 0, 100, 0
1, 147244, Note_on_c, 0, 91, 70
1, 147248, Note_on_c, 0, 95, 0
1, 147267, Note_on_c, 0, 91, 0
1, 147304, Note_on_c, 0, 76, 0
1, 147334, Note_on_c, 0, 88, 78
1, 147385, Note_on_c, 0, 83, 71
1, 147402, Note_on_c, 0, 88, 0
1, 147430, Note_on_c, 0, 83, 0
1, 147432, Note_on_c, 0, 71, 0
1, 147434, Note_on_c, 0, 79, 73
1, 147456, Note_on_c, 0, 79, 0
1, 147474, Note_on_c, 0, 67, 0
1, 147474, Note_on_c, 0, 64, 0
1, 147517, Note_on_c, 0, 76, 77
1, 147569, Note_on_c, 0, 71, 74
1, 147591, Note_on_c, 0, 76, 0
1, 147635, Note_on_c, 0, 71, 0
1, 147635, Note_on_c, 0, 67, 73
1, 147663, Note_on_c, 0, 67, 0
1, 147714, Note_on_c, 0, 64, 79
1, 147763, Note_on_c, 0, 59, 76
1, 147817, Note_on_c, 0, 55, 85
1, 147839, Note_on_c, 0, 59, 0
1, 147859, Note_on_c, 0, 55, 0
1, 147876, Note_on_c, 0, 64, 0
1, 147883, Note_on_c, 0, 33, 88
1, 148091, Note_on_c, 0, 45, 101
1, 148091, Note_on_c, 0, 84, 83
1, 148092, Note_on_c, 0, 91, 102
1, 148094, Note_on_c, 0, 79, 93
1, 148097, Note_on_c, 0, 81, 101
1, 148100, Control_c, 0, 64, 89
1, 148114, Control_c, 0, 64, 65
1, 148129, Note_on_c, 0, 33, 0
1, 148129, Control_c, 0, 64, 42
1, 148144, Control_c, 0, 64, 32
1, 148159, Control_c, 0, 64, 52
1, 148165, Note_on_c, 0, 45, 0
1, 148173, Control_c, 0, 64, 68
1, 148188, Control_c, 0, 64, 97
1, 148203, Control_c, 0, 64, 127
1, 148330, Note_on_c, 0, 52, 65
1, 148410, Note_on_c, 0, 55, 67
1, 148428, Note_on_c, 0, 52, 0
1, 148429, Note_on_c, 0, 81, 0
1, 148446, Note_on_c, 0, 57, 70
1, 148452, Note_on_c, 0, 79, 0
1, 148463, Note_on_c, 0, 55, 0
1, 148473, Note_on_c, 0, 84, 0
1, 148482, Note_on_c, 0, 57, 0
1, 148488, Note_on_c, 0, 60, 66
1, 148496, Note_on_c, 0, 91, 0
1, 148513, Note_on_c, 0, 60, 0
1, 148588, Note_on_c, 0, 64, 70
1, 148643, Note_on_c, 0, 67, 70
1, 148653, Note_on_c, 0, 64, 0
1, 148684, Note_on_c, 0, 69, 66
1, 148690, Note_on_c, 0, 67, 0
1, 148725, Note_on_c, 0, 69, 0
1, 148738, Note_on_c, 0, 72, 70
1, 148792, Note_on_c, 0, 72, 0
1, 148850, Note_on_c, 0, 76, 67
1, 148855, Note_on_c, 0, 90, 88
1, 148857, Note_on_c, 0, 78, 82
1, 148857, Note_on_c, 0, 84, 72
1, 148874, Note_on_c, 0, 76, 0
1, 148919, Note_on_c, 0, 72, 70
1, 148977, Note_on_c, 0, 72, 0
1, 148991, Note_on_c, 0, 69, 73
1, 149036, Note_on_c, 0, 90, 0
1, 149039, Note_on_c, 0, 67, 66
1, 149048, Note_on_c, 0, 69, 0
1, 149052, Note_on_c, 0, 84, 0
1, 149055, Note_on_c, 0, 78, 0
1, 149090, Note_on_c, 0, 64, 74
1, 149096, Note_on_c, 0, 67, 0
1, 149120, Note_on_c, 0, 64, 0
1, 149204, Note_on_c, 0, 60, 76
1, 149213, Note_on_c, 0, 88, 88
1, 149215, Note_on_c, 0, 76, 84
1, 149266, Note_on_c, 0, 60, 0
1, 149268, Note_on_c, 0, 57, 75
1, 149319, Note_on_c, 0, 55, 71
1, 149336, Note_on_c, 0, 57, 0
1, 149365, Note_on_c, 0, 52, 73
1, 149375, Note_on_c, 0, 55, 0
1, 149395, Note_on_c, 0, 52, 0
1, 149424, Note_on_c, 0, 88, 0
1, 149466, Note_on_c, 0, 76, 0
1, 149541, Note_on_c, 0, 38, 66
1, 149546, Note_on_c, 0, 86, 87
1, 149549, Note_on_c, 0, 78, 69
1, 149550, Note_on_c, 0, 45, 58
1, 149552, Note_on_c, 0, 74, 79
1, 149567, Control_c, 0, 64, 92
1, 149582, Control_c, 0, 64, 68
1, 149585, Note_on_c, 0, 38, 0
1, 149597, Control_c, 0, 64, 50
1, 149611, Control_c, 0, 64, 45
1, 149626, Control_c, 0, 64, 59
1, 149641, Control_c, 0, 64, 72
1, 149642, Note_on_c, 0, 45, 0
1, 149655, Note_on_c, 0, 50, 67
1, 149656, Control_c, 0, 64, 96
1, 149671, Control_c, 0, 64, 127
1, 149684, Note_on_c, 0, 50, 0
1, 149754, Note_on_c, 0, 54, 67
1, 149816, Note_on_c, 0, 57, 69
1, 149823, Note_on_c, 0, 74, 0
1, 149833, Note_on_c, 0, 86, 0
1, 149835, Note_on_c, 0, 54, 0
1, 149873, Note_on_c, 0, 57, 0
1, 149924, Note_on_c, 0, 62, 30
1, 149924, Note_on_c, 0, 84, 84
1, 149928, Note_on_c, 0, 72, 80
1, 149939, Note_on_c, 0, 78, 0
1, 149959, Note_on_c, 0, 62, 0
1, 150001, Note_on_c, 0, 66, 57
1, 150044, Note_on_c, 0, 72, 0
1, 150049, Note_on_c, 0, 66, 0
1, 150072, Note_on_c, 0, 69, 52
1, 150125, Note_on_c, 0, 69, 0
1, 150132, Note_on_c, 0, 62, 65
1, 150166, Note_on_c, 0, 62, 0
1, 150166, Note_on_c, 0, 66, 66
1, 150199, Note_on_c, 0, 66, 0
1, 150255, Note_on_c, 0, 74, 67
1, 150294, Note_on_c, 0, 74, 0
1, 150309, Note_on_c, 0, 72, 68
1, 150348, Note_on_c, 0, 72, 0
1, 150371, Note_on_c, 0, 69, 62
1, 150403, Note_on_c, 0, 69, 0
1, 150415, Note_on_c, 0, 66, 67
1, 150430, Note_on_c, 0, 84, 0
1, 150435, Note_on_c, 0, 66, 0
1, 150518, Note_on_c, 0, 83, 81
1, 150521, Note_on_c, 0, 62, 66
1, 150523, Note_on_c, 0, 71, 75
1, 150553, Note_on_c, 0, 62, 0
1, 150569, Note_on_c, 0, 60, 66
1, 150585, Note_on_c, 0, 71, 0
1, 150590, Note_on_c, 0, 83, 0
1, 150651, Note_on_c, 0, 60, 0
1, 150656, Note_on_c, 0, 57, 63
1, 150681, Note_on_c, 0, 81, 83
1, 150687, Note_on_c, 0, 69, 76
1, 150692, Note_on_c, 0, 57, 0
1, 150699, Note_on_c, 0, 54, 64
1, 150726, Note_on_c, 0, 54, 0
1, 150789, Note_on_c, 0, 81, 0
1, 150798, Note_on_c, 0, 43, 66
1, 150817, Note_on_c, 0, 69, 0
1, 150830, Note_on_c, 0, 43, 0
1, 150870, Note_on_c, 0, 50, 68
1, 150946, Note_on_c, 0, 59, 70
1, 150947, Control_c, 0, 64, 100
1, 150950, Note_on_c, 0, 79, 78
1, 150953, Note_on_c, 0, 71, 71
1, 150956, Note_on_c, 0, 67, 77
1, 150962, Control_c, 0, 64, 70
1, 150976, Control_c, 0, 64, 52
1, 150991, Control_c, 0, 64, 48
1, 151006, Control_c, 0, 64, 59
1, 151012, Note_on_c, 0, 79, 0
1, 151021, Control_c, 0, 64, 70
1, 151035, Control_c, 0, 64, 90
1, 151047, Note_on_c, 0, 67, 0
1, 151050, Note_on_c, 0, 71, 0
1, 151050, Control_c, 0, 64, 127
1, 151090, Note_on_c, 0, 59, 0
1, 151129, Note_on_c, 0, 50, 0
1, 151192, Note_on_c, 0, 55, 51
1, 151194, Note_on_c, 0, 53, 42
1, 151217, Note_on_c, 0, 55, 0
1, 151226, Note_on_c, 0, 53, 0
1, 151230, Note_on_c, 0, 59, 68
1, 151256, Note_on_c, 0, 59, 0
1, 151266, Note_on_c, 0, 62, 70
1, 151293, Note_on_c, 0, 62, 0
1, 151368, Note_on_c, 0, 67, 76
1, 151408, Note_on_c, 0, 67, 0
1, 151417, Note_on_c, 0, 71, 71
1, 151451, Note_on_c, 0, 71, 0
1, 151459, Note_on_c, 0, 74, 72
1, 151480, Note_on_c, 0, 74, 0
1, 151547, Note_on_c, 0, 79, 76
1, 151585, Note_on_c, 0, 79, 0
1, 151586, Note_on_c, 0, 83, 69
1, 151595, Note_on_c, 0, 71, 71
1, 151603, Note_on_c, 0, 59, 57
1, 151606, Note_on_c, 0, 67, 61
1, 151613, Note_on_c, 0, 62, 55
1, 151623, Note_on_c, 0, 86, 78
1, 151630, Note_on_c, 0, 71, 0
1, 151635, Note_on_c, 0, 83, 0
1, 151638, Note_on_c, 0, 59, 0
1, 151641, Note_on_c, 0, 67, 0
1, 151657, Note_on_c, 0, 62, 0
1, 151666, Note_on_c, 0, 86, 0
1, 151668, Note_on_c, 0, 91, 77
1, 151710, Note_on_c, 0, 71, 97
1, 151713, Note_on_c, 0, 67, 93
1, 151716, Note_on_c, 0, 62, 75
1, 151718, Note_on_c, 0, 59, 76
1, 151722, Note_on_c, 0, 86, 67
1, 151728, Note_on_c, 0, 91, 0
1, 151767, Note_on_c, 0, 83, 76
1, 151783, Note_on_c, 0, 86, 0
1, 151802, Note_on_c, 0, 79, 73
1, 151814, Note_on_c, 0, 83, 0
1, 151831, Note_on_c, 0, 71, 0
1, 151834, Note_on_c, 0, 79, 0
1, 151900, Note_on_c, 0, 67, 0
1, 151910, Note_on_c, 0, 74, 72
1, 151950, Note_on_c, 0, 62, 0
1, 151951, Note_on_c, 0, 59, 0
1, 151963, Note_on_c, 0, 71, 70
1, 151972, Note_on_c, 0, 74, 0
1, 152014, Note_on_c, 0, 71, 0
1, 152024, Note_on_c, 0, 67, 59
1, 152042, Note_on_c, 0, 67, 0
1, 152106, Note_on_c, 0, 62, 71
1, 152168, Note_on_c, 0, 59, 72
1, 152170, Note_on_c, 0, 62, 0
1, 152216, Note_on_c, 0, 52, 75
1, 152217, Note_on_c, 0, 55, 71
1, 152221, Note_on_c, 0, 47, 67
1, 152226, Note_on_c, 0, 40, 63
1, 152239, Note_on_c, 0, 59, 0
1, 152241, Note_on_c, 0, 52, 0
1, 152243, Note_on_c, 0, 55, 0
1, 152252, Note_on_c, 0, 40, 0
1, 152257, Note_on_c, 0, 47, 0
1, 152295, Control_c, 0, 64, 93
1, 152300, Note_on_c, 0, 52, 84
1, 152303, Note_on_c, 0, 55, 87
1, 152306, Note_on_c, 0, 59, 77
1, 152306, Note_on_c, 0, 67, 36
1, 152309, Note_on_c, 0, 47, 96
1, 152310, Control_c, 0, 64, 69
1, 152311, Note_on_c, 0, 40, 84
1, 152318, Note_on_c, 0, 64, 22
1, 152325, Control_c, 0, 64, 55
1, 152339, Control_c, 0, 64, 52
1, 152354, Control_c, 0, 64, 60
1, 152356, Note_on_c, 0, 64, 0
1, 152369, Control_c, 0, 64, 70
1, 152371, Note_on_c, 0, 67, 0
1, 152381, Note_on_c, 0, 55, 0
1, 152384, Control_c, 0, 64, 87
1, 152399, Control_c, 0, 64, 127
1, 152422, Note_on_c, 0, 59, 0
1, 152430, Note_on_c, 0, 64, 81
1, 152452, Note_on_c, 0, 64, 0
1, 152527, Note_on_c, 0, 67, 77
1, 152536, Note_on_c, 0, 40, 0
1, 152571, Note_on_c, 0, 47, 0
1, 152574, Note_on_c, 0, 67, 0
1, 152576, Note_on_c, 0, 71, 68
1, 152589, Note_on_c, 0, 52, 0
1, 152623, Note_on_c, 0, 71, 0
1, 152623, Note_on_c, 0, 76, 72
1, 152649, Note_on_c, 0, 76, 0
1, 152711, Note_on_c, 0, 79, 77
1, 152756, Note_on_c, 0, 83, 73
1, 152758, Note_on_c, 0, 79, 0
1, 152790, Note_on_c, 0, 83, 0
1, 152798, Note_on_c, 0, 88, 72
1, 152821, Note_on_c, 0, 88, 0
1, 152887, Note_on_c, 0, 91, 79
1, 152914, Note_on_c, 0, 76, 69
1, 152926, Note_on_c, 0, 95, 81
1, 152932, Note_on_c, 0, 64, 46
1, 152932, Note_on_c, 0, 71, 55
1, 152934, Note_on_c, 0, 91, 0
1, 152951, Note_on_c, 0, 67, 44
1, 152954, Note_on_c, 0, 76, 0
1, 152962, Note_on_c, 0, 64, 0
1, 152969, Note_on_c, 0, 100, 68
1, 152971, Note_on_c, 0, 95, 0
1, 152977, Note_on_c, 0, 67, 0
1, 152979, Note_on_c, 0, 71, 0
1, 152992, Note_on_c, 0, 103, 79
1, 153033, Note_on_c, 0, 71, 81
1, 153037, Note_on_c, 0, 76, 96
1, 153039, Note_on_c, 0, 64, 76
1, 153043, Note_on_c, 0, 67, 81
1, 153055, Note_on_c, 0, 103, 0
1, 153067, Note_on_c, 0, 95, 78
1, 153081, Note_on_c, 0, 100, 0
1, 153108, Note_on_c, 0, 95, 0
1, 153109, Note_on_c, 0, 91, 78
1, 153131, Note_on_c, 0, 91, 0
1, 153199, Note_on_c, 0, 88, 79
1, 153207, Note_on_c, 0, 76, 0
1, 153254, Note_on_c, 0, 83, 73
1, 153271, Note_on_c, 0, 88, 0
1, 153301, Note_on_c, 0, 83, 0
1, 153303, Note_on_c, 0, 71, 0
1, 153304, Note_on_c, 0, 79, 73
1, 153323, Note_on_c, 0, 67, 0
1, 153327, Note_on_c, 0, 79, 0
1, 153339, Note_on_c, 0, 64, 0
1, 153388, Note_on_c, 0, 76, 77
1, 153457, Note_on_c, 0, 71, 71
1, 153477, Note_on_c, 0, 76, 0
1, 153546, Note_on_c, 0, 71, 0
1, 153562, Note_on_c, 0, 67, 70
1, 153567, Note_on_c, 0, 52, 61
1, 153594, Control_c, 0, 64, 91
1, 153616, Control_c, 0, 64, 66
1, 153631, Control_c, 0, 64, 44
1, 153636, Note_on_c, 0, 67, 0
1, 153646, Control_c, 0, 64, 10
1, 153650, Note_on_c, 0, 54, 68
1, 153656, Note_on_c, 0, 69, 65
1, 153660, Control_c, 0, 64, 23
1, 153675, Control_c, 0, 64, 45
1, 153687, Note_on_c, 0, 69, 0
1, 153690, Control_c, 0, 64, 62
1, 153705, Control_c, 0, 64, 70
1, 153719, Control_c, 0, 64, 82
1, 153720, Note_on_c, 0, 52, 0
1, 153726, Note_on_c, 0, 55, 68
1, 153732, Note_on_c, 0, 71, 75
1, 153734, Control_c, 0, 64, 111
1, 153749, Control_c, 0, 64, 127
1, 153781, Note_on_c, 0, 54, 0
1, 153782, Note_on_c, 0, 71, 0
1, 153786, Note_on_c, 0, 57, 71
1, 153797, Note_on_c, 0, 55, 0
1, 153803, Note_on_c, 0, 73, 75
1, 153844, Note_on_c, 0, 57, 0
1, 153855, Note_on_c, 0, 59, 66
1, 153862, Note_on_c, 0, 73, 0
1, 153869, Note_on_c, 0, 75, 76
1, 153887, Note_on_c, 0, 59, 0
1, 153902, Note_on_c, 0, 75, 0
1, 153934, Note_on_c, 0, 76, 75
1, 153939, Note_on_c, 0, 61, 76
1, 153970, Note_on_c, 0, 76, 0
1, 153990, Note_on_c, 0, 63, 69
1, 154008, Note_on_c, 0, 61, 0
1, 154009, Note_on_c, 0, 78, 73
1, 154051, Note_on_c, 0, 63, 0
1, 154053, Note_on_c, 0, 64, 70
1, 154057, Note_on_c, 0, 79, 75
1, 154059, Note_on_c, 0, 78, 0
1, 154086, Note_on_c, 0, 64, 0
1, 154091, Note_on_c, 0, 79, 0
1, 154128, Note_on_c, 0, 66, 73
1, 154134, Note_on_c, 0, 81, 76
1, 154179, Note_on_c, 0, 67, 77
1, 154196, Note_on_c, 0, 83, 81
1, 154214, Note_on_c, 0, 81, 0
1, 154239, Note_on_c, 0, 69, 71
1, 154241, Note_on_c, 0, 66, 0
1, 154251, Note_on_c, 0, 85, 77
1, 154257, Note_on_c, 0, 67, 0
1, 154265, Note_on_c, 0, 83, 0
1, 154299, Note_on_c, 0, 69, 0
1, 154307, Note_on_c, 0, 71, 67
1, 154326, Note_on_c, 0, 87, 80
1, 154327, Note_on_c, 0, 85, 0
1, 154342, Note_on_c, 0, 71, 0
1, 154378, Note_on_c, 0, 87, 0
1, 154394, Note_on_c, 0, 73, 75
1, 154402, Note_on_c, 0, 88, 79
1, 154453, Note_on_c, 0, 75, 68
1, 154455, Note_on_c, 0, 73, 0
1, 154470, Note_on_c, 0, 88, 0
1, 154479, Note_on_c, 0, 75, 0
1, 154485, Note_on_c, 0, 89, 73
1, 154497, Note_on_c, 0, 90, 26
1, 154509, Note_on_c, 0, 89, 0
1, 154531, Note_on_c, 0, 90, 0
1, 154710, Note_on_c, 0, 91, 80
1, 154712, Note_on_c, 0, 88, 68
1, 154719, Note_on_c, 0, 81, 63
1, 154719, Note_on_c, 0, 84, 62
1, 154721, Note_on_c, 0, 79, 65
1, 154725, Note_on_c, 0, 45, 60
1, 154741, Note_on_c, 0, 33, 57
1, 154765, Control_c, 0, 64, 103
1, 154780, Control_c, 0, 64, 72
1, 154795, Control_c, 0, 64, 53
1, 154809, Control_c, 0, 64, 19
1, 154824, Control_c, 0, 64, 32
1, 154831, Note_on_c, 0, 33, 0
1, 154839, Control_c, 0, 64, 57
1, 154853, Control_c, 0, 64, 72
1, 154868, Control_c, 0, 64, 93
1, 154876, Note_on_c, 0, 45, 0
1, 154883, Control_c, 0, 64, 127
1, 155007, Note_on_c, 0, 52, 60
1, 155075, Note_on_c, 0, 55, 66
1, 155080, Note_on_c, 0, 52, 0
1, 155122, Note_on_c, 0, 81, 0
1, 155137, Note_on_c, 0, 55, 0
1, 155137, Note_on_c, 0, 57, 62
1, 155151, Note_on_c, 0, 79, 0
1, 155165, Note_on_c, 0, 57, 0
1, 155171, Note_on_c, 0, 60, 65
1, 155196, Note_on_c, 0, 88, 0
1, 155201, Note_on_c, 0, 84, 0
1, 155201, Note_on_c, 0, 91, 0
1, 155201, Note_on_c, 0, 60, 0
1, 155267, Note_on_c, 0, 64, 69
1, 155323, Note_on_c, 0, 67, 65
1, 155345, Note_on_c, 0, 64, 0
1, 155364, Note_on_c, 0, 67, 0
1, 155372, Note_on_c, 0, 69, 59
1, 155405, Note_on_c, 0, 69, 0
1, 155417, Note_on_c, 0, 72, 69
1, 155454, Note_on_c, 0, 72, 0
1, 155482, Note_on_c, 0, 90, 81
1, 155485, Note_on_c, 0, 78, 78
1, 155490, Note_on_c, 0, 84, 68
1, 155516, Note_on_c, 0, 76, 74
1, 155543, Note_on_c, 0, 76, 0
1, 155578, Note_on_c, 0, 72, 62
1, 155629, Note_on_c, 0, 90, 0
1, 155630, Note_on_c, 0, 72, 0
1, 155638, Note_on_c, 0, 84, 0
1, 155653, Note_on_c, 0, 78, 0
1, 155662, Note_on_c, 0, 69, 70
1, 155698, Note_on_c, 0, 67, 65
1, 155701, Note_on_c, 0, 69, 0
1, 155738, Note_on_c, 0, 64, 72
1, 155746, Note_on_c, 0, 67, 0
1, 155761, Note_on_c, 0, 64, 0
1, 155836, Note_on_c, 0, 60, 75
1, 155837, Note_on_c, 0, 88, 89
1, 155838, Note_on_c, 0, 76, 85
1, 155896, Note_on_c, 0, 60, 0
1, 155905, Note_on_c, 0, 57, 71
1, 155949, Note_on_c, 0, 76, 0
1, 155950, Note_on_c, 0, 55, 73
1, 155970, Note_on_c, 0, 57, 0
1, 155990, Note_on_c, 0, 52, 75
1, 155995, Note_on_c, 0, 55, 0
1, 155999, Note_on_c, 0, 88, 0
1, 156013, Note_on_c, 0, 52, 0
1, 156197, Note_on_c, 0, 79, 98
1, 156197, Note_on_c, 0, 88, 79
1, 156200, Note_on_c, 0, 46, 91
1, 156201, Note_on_c, 0, 84, 81
1, 156201, Note_on_c, 0, 91, 95
1, 156202, Control_c, 0, 64, 91
1, 156203, Note_on_c, 0, 34, 77
1, 156217, Control_c, 0, 64, 66
1, 156232, Control_c, 0, 64, 40
1, 156247, Control_c, 0, 64, 33
1, 156262, Control_c, 0, 64, 52
1, 156264, Note_on_c, 0, 34, 0
1, 156277, Control_c, 0, 64, 68
1, 156286, Note_on_c, 0, 46, 0
1, 156292, Control_c, 0, 64, 86
1, 156306, Control_c, 0, 64, 127
1, 156438, Note_on_c, 0, 52, 64
1, 156503, Note_on_c, 0, 52, 0
1, 156503, Note_on_c, 0, 55, 65
1, 156548, Note_on_c, 0, 55, 0
1, 156557, Note_on_c, 0, 60, 66
1, 156558, Note_on_c, 0, 79, 0
1, 156585, Note_on_c, 0, 60, 0
1, 156624, Note_on_c, 0, 84, 0
1, 156631, Note_on_c, 0, 88, 0
1, 156646, Note_on_c, 0, 91, 0
1, 156672, Note_on_c, 0, 64, 74
1, 156729, Note_on_c, 0, 67, 68
1, 156742, Note_on_c, 0, 64, 0
1, 156768, Note_on_c, 0, 67, 0
1, 156798, Note_on_c, 0, 72, 66
1, 156831, Note_on_c, 0, 72, 0
1, 156891, Note_on_c, 0, 78, 82
1, 156891, Note_on_c, 0, 90, 85
1, 156894, Note_on_c, 0, 84, 64
1, 156897, Note_on_c, 0, 76, 75
1, 156922, Note_on_c, 0, 76, 0
1, 156959, Note_on_c, 0, 72, 55
1, 157007, Note_on_c, 0, 72, 0
1, 157030, Note_on_c, 0, 90, 0
1, 157045, Note_on_c, 0, 67, 68
1, 157055, Note_on_c, 0, 78, 0
1, 157058, Note_on_c, 0, 84, 0
1, 157097, Note_on_c, 0, 67, 0
1, 157106, Note_on_c, 0, 64, 71
1, 157131, Note_on_c, 0, 64, 0
1, 157204, Note_on_c, 0, 60, 75
1, 157213, Note_on_c, 0, 76, 83
1, 157213, Note_on_c, 0, 88, 80
1, 157251, Note_on_c, 0, 60, 0
1, 157271, Note_on_c, 0, 55, 63
1, 157285, Note_on_c, 0, 76, 0
1, 157318, Note_on_c, 0, 55, 0
1, 157319, Note_on_c, 0, 52, 70
1, 157325, Note_on_c, 0, 88, 0
1, 157343, Note_on_c, 0, 52, 0
1, 157523, Control_c, 0, 64, 83
1, 157534, Note_on_c, 0, 35, 58
1, 157535, Note_on_c, 0, 91, 81
1, 157538, Control_c, 0, 64, 63
1, 157541, Note_on_c, 0, 79, 72
1, 157544, Note_on_c, 0, 83, 64
1, 157545, Note_on_c, 0, 47, 56
1, 157546, Note_on_c, 0, 88, 55
1, 157552, Control_c, 0, 64, 46
1, 157567, Control_c, 0, 64, 49
1, 157582, Control_c, 0, 64, 63
1, 157584, Note_on_c, 0, 35, 0
1, 157597, Control_c, 0, 64, 78
1, 157612, Control_c, 0, 64, 127
1, 157616, Note_on_c, 0, 47, 0
1, 157654, Note_on_c, 0, 79, 0
1, 157654, Poly_aftertouch_c, 0, 36, 0
1, 157687, Note_on_c, 0, 88, 0
1, 157690, Note_on_c, 0, 91, 0
1, 157696, Note_on_c, 0, 83, 0
1, 157747, Note_on_c, 0, 52, 63
1, 157790, Note_on_c, 0, 90, 84
1, 157794, Note_on_c, 0, 78, 81
1, 157809, Note_on_c, 0, 52, 0
1, 157825, Note_on_c, 0, 55, 57
1, 157857, Note_on_c, 0, 78, 0
1, 157873, Note_on_c, 0, 90, 0
1, 157874, Note_on_c, 0, 59, 66
1, 157890, Note_on_c, 0, 55, 0
1, 157908, Note_on_c, 0, 59, 0
1, 157930, Note_on_c, 0, 64, 61
1, 157960, Note_on_c, 0, 64, 0
1, 157972, Note_on_c, 0, 76, 81
1, 157973, Note_on_c, 0, 88, 80
1, 158008, Note_on_c, 0, 76, 0
1, 158039, Note_on_c, 0, 88, 0
1, 158044, Note_on_c, 0, 67, 44
1, 158064, Note_on_c, 0, 69, 44
1, 158085, Note_on_c, 0, 67, 0
1, 158091, Note_on_c, 0, 69, 0
1, 158092, Note_on_c, 0, 71, 60
1, 158134, Note_on_c, 0, 71, 0
1, 158149, Note_on_c, 0, 76, 68
1, 158156, Note_on_c, 0, 91, 89
1, 158158, Note_on_c, 0, 79, 86
1, 158171, Note_on_c, 0, 76, 0
1, 158192, Note_on_c, 0, 79, 0
1, 158203, Note_on_c, 0, 71, 67
1, 158215, Note_on_c, 0, 91, 0
1, 158255, Note_on_c, 0, 71, 0
1, 158262, Note_on_c, 0, 67, 71
1, 158271, Poly_aftertouch_c, 0, 90, 0
1, 158288, Note_on_c, 0, 67, 0
1, 158317, Note_on_c, 0, 78, 84
1, 158318, Note_on_c, 0, 90, 81
1, 158354, Note_on_c, 0, 64, 74
1, 158373, Note_on_c, 0, 78, 0
1, 158383, Note_on_c, 0, 90, 0
1, 158407, Note_on_c, 0, 59, 72
1, 158408, Note_on_c, 0, 64, 0
1, 158463, Note_on_c, 0, 55, 74
1, 158468, Note_on_c, 0, 59, 0
1, 158474, Note_on_c, 0, 76, 85
1, 158480, Note_on_c, 0, 88, 78
1, 158495, Note_on_c, 0, 76, 0
1, 158496, Note_on_c, 0, 52, 72
1, 158500, Note_on_c, 0, 55, 0
1, 158521, Note_on_c, 0, 52, 0
1, 158522, Note_on_c, 0, 88, 0
1, 158672, Control_c, 0, 64, 88
1, 158683, Note_on_c, 0, 36, 66
1, 158687, Control_c, 0, 64, 66
1, 158689, Note_on_c, 0, 79, 93
1, 158689, Note_on_c, 0, 82, 89
1, 158690, Note_on_c, 0, 91, 98
1, 158691, Note_on_c, 0, 88, 76
1, 158693, Note_on_c, 0, 48, 78
1, 158701, Control_c, 0, 64, 55
1, 158710, Note_on_c, 0, 36, 0
1, 158716, Control_c, 0, 64, 59
1, 158731, Control_c, 0, 64, 67
1, 158745, Control_c, 0, 64, 84
1, 158752, Note_on_c, 0, 48, 0
1, 158760, Control_c, 0, 64, 127
1, 158772, Note_on_c, 0, 79, 0
1, 158796, Note_on_c, 0, 91, 0
1, 158809, Note_on_c, 0, 88, 0
1, 158822, Note_on_c, 0, 82, 0
1, 158896, Note_on_c, 0, 55, 60
1, 158904, Note_on_c, 0, 90, 85
1, 158906, Note_on_c, 0, 78, 90
1, 158933, Note_on_c, 0, 58, 72
1, 158962, Note_on_c, 0, 78, 0
1, 158970, Note_on_c, 0, 55, 0
1, 158976, Note_on_c, 0, 90, 0
1, 158998, Note_on_c, 0, 64, 51
1, 159002, Note_on_c, 0, 58, 0
1, 159024, Note_on_c, 0, 64, 0
1, 159057, Note_on_c, 0, 67, 50
1, 159069, Note_on_c, 0, 76, 88
1, 159070, Note_on_c, 0, 88, 81
1, 159080, Note_on_c, 0, 67, 0
1, 159100, Note_on_c, 0, 76, 0
1, 159126, Note_on_c, 0, 88, 0
1, 159147, Note_on_c, 0, 70, 66
1, 159193, Note_on_c, 0, 70, 0
1, 159233, Note_on_c, 0, 79, 88
1, 159233, Note_on_c, 0, 91, 86
1, 159248, Note_on_c, 0, 76, 63
1, 159264, Note_on_c, 0, 79, 0
1, 159284, Note_on_c, 0, 76, 0
1, 159296, Note_on_c, 0, 91, 0
1, 159301, Note_on_c, 0, 85, 23
1, 159305, Note_on_c, 0, 70, 75
1, 159338, Note_on_c, 0, 85, 0
1, 159364, Note_on_c, 0, 70, 0
1, 159371, Note_on_c, 0, 67, 74
1, 159392, Note_on_c, 0, 67, 0
1, 159394, Note_on_c, 0, 90, 82
1, 159397, Note_on_c, 0, 78, 87
1, 159451, Note_on_c, 0, 78, 0
1, 159464, Note_on_c, 0, 64, 74
1, 159466, Note_on_c, 0, 90, 0
1, 159507, Note_on_c, 0, 64, 0
1, 159526, Note_on_c, 0, 58, 79
1, 159547, Note_on_c, 0, 76, 88
1, 159550, Note_on_c, 0, 88, 79
1, 159567, Note_on_c, 0, 76, 0
1, 159571, Note_on_c, 0, 55, 75
1, 159574, Note_on_c, 0, 58, 0
1, 159603, Note_on_c, 0, 55, 0
1, 159607, Note_on_c, 0, 88, 0
1, 159674, Poly_aftertouch_c, 0, 77, 0
1, 159674, Poly_aftertouch_c, 0, 87, 127
1, 159726, Poly_aftertouch_c, 0, 87, 0
1, 159768, Control_c, 0, 64, 82
1, 159772, Note_on_c, 0, 37, 72
1, 159775, Note_on_c, 0, 91, 95
1, 159776, Note_on_c, 0, 49, 90
1, 159781, Note_on_c, 0, 79, 92
1, 159781, Note_on_c, 0, 81, 85
1, 159782, Control_c, 0, 64, 61
1, 159797, Control_c, 0, 64, 44
1, 159812, Control_c, 0, 64, 55
1, 159825, Note_on_c, 0, 37, 0
1, 159827, Control_c, 0, 64, 68
1, 159842, Control_c, 0, 64, 91
1, 159847, Note_on_c, 0, 49, 0
1, 159857, Control_c, 0, 64, 127
1, 159863, Note_on_c, 0, 81, 0
1, 159866, Note_on_c, 0, 79, 0
1, 159872, Note_on_c, 0, 91, 0
1, 159952, Note_on_c, 0, 78, 88
1, 159952, Note_on_c, 0, 90, 85
1, 159983, Note_on_c, 0, 55, 72
1, 160005, Note_on_c, 0, 78, 0
1, 160008, Note_on_c, 0, 90, 0
1, 160026, Note_on_c, 0, 57, 71
1, 160057, Note_on_c, 0, 55, 0
1, 160081, Note_on_c, 0, 64, 73
1, 160084, Note_on_c, 0, 88, 87
1, 160086, Note_on_c, 0, 76, 87
1, 160094, Note_on_c, 0, 57, 0
1, 160110, Note_on_c, 0, 87, 53
1, 160116, Note_on_c, 0, 76, 0
1, 160129, Note_on_c, 0, 87, 0
1, 160132, Note_on_c, 0, 88, 0
1, 160137, Note_on_c, 0, 64, 0
1, 160146, Note_on_c, 0, 67, 68
1, 160174, Note_on_c, 0, 67, 0
1, 160205, Note_on_c, 0, 90, 91
1, 160207, Note_on_c, 0, 78, 87
1, 160246, Note_on_c, 0, 69, 66
1, 160250, Note_on_c, 0, 78, 0
1, 160272, Note_on_c, 0, 90, 0
1, 160309, Note_on_c, 0, 69, 0
1, 160334, Note_on_c, 0, 76, 67
1, 160337, Note_on_c, 0, 91, 88
1, 160337, Note_on_c, 0, 79, 92
1, 160375, Note_on_c, 0, 79, 0
1, 160381, Note_on_c, 0, 89, 44
1, 160385, Note_on_c, 0, 76, 0
1, 160391, Note_on_c, 0, 91, 0
1, 160398, Note_on_c, 0, 90, 8
1, 160402, Note_on_c, 0, 70, 71
1, 160408, Note_on_c, 0, 89, 0
1, 160439, Note_on_c, 0, 90, 0
1, 160458, Note_on_c, 0, 90, 40
1, 160460, Note_on_c, 0, 70, 0
1, 160460, Note_on_c, 0, 67, 72
1, 160471, Note_on_c, 0, 78, 81
1, 160488, Note_on_c, 0, 67, 0
1, 160502, Note_on_c, 0, 78, 0
1, 160508, Note_on_c, 0, 90, 0
1, 160588, Note_on_c, 0, 64, 54
1, 160588, Note_on_c, 0, 65, 31
1, 160590, Note_on_c, 0, 76, 87
1, 160590, Note_on_c, 0, 88, 85
1, 160616, Note_on_c, 0, 76, 0
1, 160618, Note_on_c, 0, 64, 0
1, 160620, Note_on_c, 0, 58, 73
1, 160622, Note_on_c, 0, 65, 0
1, 160623, Note_on_c, 0, 87, 43
1, 160636, Note_on_c, 0, 88, 0
1, 160648, Note_on_c, 0, 87, 0
1, 160670, Note_on_c, 0, 58, 0
1, 160681, Note_on_c, 0, 55, 53
1, 160705, Note_on_c, 0, 55, 0
1, 160707, Note_on_c, 0, 90, 85
1, 160709, Note_on_c, 0, 78, 79
1, 160751, Note_on_c, 0, 78, 0
1, 160806, Note_on_c, 0, 90, 0
1, 160807, Poly_aftertouch_c, 0, 87, 0
1, 160844, Control_c, 0, 64, 116
1, 160858, Note_on_c, 0, 38, 73
1, 160859, Control_c, 0, 64, 75
1, 160864, Note_on_c, 0, 50, 75
1, 160864, Note_on_c, 0, 91, 92
1, 160865, Note_on_c, 0, 79, 94
1, 160865, Note_on_c, 0, 83, 87
1, 160874, Control_c, 0, 64, 58
1, 160888, Note_on_c, 0, 38, 0
1, 160889, Control_c, 0, 64, 53
1, 160899, Note_on_c, 0, 48, 34
1, 160900, Note_on_c, 0, 48, 0
1, 160900, Note_on_c, 0, 90, 28
1, 160903, Control_c, 0, 64, 64
1, 160918, Control_c, 0, 64, 81
1, 160923, Note_on_c, 0, 50, 0
1, 160926, Note_on_c, 0, 79, 0
1, 160933, Control_c, 0, 64, 127
1, 160934, Note_on_c, 0, 90, 0
1, 160942, Note_on_c, 0, 91, 0
1, 160951, Note_on_c, 0, 83, 0
1, 161012, Note_on_c, 0, 90, 78
1, 161019, Note_on_c, 0, 78, 87
1, 161042, Note_on_c, 0, 55, 71
1, 161061, Note_on_c, 0, 90, 0
1, 161067, Note_on_c, 0, 78, 0
1, 161107, Note_on_c, 0, 59, 71
1, 161133, Note_on_c, 0, 55, 0
1, 161153, Note_on_c, 0, 88, 83
1, 161153, Note_on_c, 0, 64, 64
1, 161153, Note_on_c, 0, 76, 90
1, 161178, Note_on_c, 0, 87, 49
1, 161182, Note_on_c, 0, 59, 0
1, 161189, Note_on_c, 0, 76, 0
1, 161198, Note_on_c, 0, 87, 0
1, 161202, Note_on_c, 0, 88, 0
1, 161208, Note_on_c, 0, 64, 0
1, 161215, Note_on_c, 0, 67, 69
1, 161239, Note_on_c, 0, 67, 0
1, 161277, Note_on_c, 0, 90, 90
1, 161278, Note_on_c, 0, 78, 83
1, 161306, Note_on_c, 0, 78, 0
1, 161315, Note_on_c, 0, 71, 74
1, 161343, Note_on_c, 0, 90, 0
1, 161374, Note_on_c, 0, 71, 0
1, 161401, Note_on_c, 0, 79, 95
1, 161401, Note_on_c, 0, 91, 94
1, 161406, Note_on_c, 0, 76, 68
1, 161422, Note_on_c, 0, 90, 53
1, 161433, Note_on_c, 0, 76, 0
1, 161440, Note_on_c, 0, 79, 0
1, 161442, Note_on_c, 0, 90, 0
1, 161454, Note_on_c, 0, 91, 0
1, 161482, Note_on_c, 0, 71, 73
1, 161508, Note_on_c, 0, 71, 0
1, 161520, Note_on_c, 0, 90, 79
1, 161523, Poly_aftertouch_c, 0, 70, 127
1, 161525, Note_on_c, 0, 78, 93
1, 161556, Poly_aftertouch_c, 0, 70, 0
1, 161571, Note_on_c, 0, 67, 74
1, 161574, Note_on_c, 0, 78, 0
1, 161577, Note_on_c, 0, 90, 0
1, 161624, Note_on_c, 0, 67, 0
1, 161625, Note_on_c, 0, 64, 73
1, 161651, Note_on_c, 0, 76, 92
1, 161654, Note_on_c, 0, 88, 86
1, 161672, Note_on_c, 0, 87, 62
1, 161686, Note_on_c, 0, 76, 0
1, 161689, Note_on_c, 0, 87, 0
1, 161689, Note_on_c, 0, 59, 78
1, 161690, Note_on_c, 0, 64, 0
1, 161696, Note_on_c, 0, 88, 0
1, 161730, Note_on_c, 0, 55, 66
1, 161740, Note_on_c, 0, 59, 0
1, 161753, Note_on_c, 0, 55, 0
1, 161772, Note_on_c, 0, 78, 90
1, 161773, Note_on_c, 0, 90, 88
1, 161847, Note_on_c, 0, 78, 0
1, 161902, Note_on_c, 0, 90, 0
1, 161955, Control_c, 0, 64, 97
1, 161958, Note_on_c, 0, 51, 97
1, 161962, Note_on_c, 0, 79, 94
1, 161962, Note_on_c, 0, 91, 89
1, 161964, Note_on_c, 0, 39, 79
1, 161970, Control_c, 0, 64, 68
1, 161985, Control_c, 0, 64, 51
1, 161991, Note_on_c, 0, 81, 51
1, 161992, Note_on_c, 0, 81, 0
1, 162000, Control_c, 0, 64, 48
1, 162015, Control_c, 0, 64, 60
1, 162030, Control_c, 0, 64, 73
1, 162038, Poly_aftertouch_c, 0, 90, 127
1, 162042, Note_on_c, 0, 79, 0
1, 162045, Note_on_c, 0, 91, 0
1, 162045, Control_c, 0, 64, 124
1, 162048, Note_on_c, 0, 85, 31
1, 162059, Control_c, 0, 64, 127
1, 162064, Poly_aftertouch_c, 0, 90, 0
1, 162077, Note_on_c, 0, 85, 0
1, 162116, Note_on_c, 0, 51, 0
1, 162130, Note_on_c, 0, 78, 88
1, 162132, Note_on_c, 0, 39, 0
1, 162134, Note_on_c, 0, 90, 92
1, 162177, Note_on_c, 0, 78, 0
1, 162182, Note_on_c, 0, 90, 0
1, 162256, Note_on_c, 0, 76, 94
1, 162259, Note_on_c, 0, 88, 81
1, 162261, Note_on_c, 0, 52, 96
1, 162266, Note_on_c, 0, 40, 79
1, 162277, Note_on_c, 0, 87, 61
1, 162283, Note_on_c, 0, 76, 0
1, 162285, Note_on_c, 0, 86, 53
1, 162293, Note_on_c, 0, 87, 0
1, 162298, Note_on_c, 0, 40, 0
1, 162301, Note_on_c, 0, 88, 0
1, 162305, Note_on_c, 0, 86, 0
1, 162310, Note_on_c, 0, 52, 0
1, 162382, Note_on_c, 0, 90, 91
1, 162383, Note_on_c, 0, 78, 84
1, 162405, Note_on_c, 0, 78, 0
1, 162432, Note_on_c, 0, 90, 0
1, 162505, Note_on_c, 0, 91, 89
1, 162507, Note_on_c, 0, 79, 89
1, 162510, Note_on_c, 0, 55, 96
1, 162512, Note_on_c, 0, 43, 79
1, 162523, Note_on_c, 0, 79, 0
1, 162525, Note_on_c, 0, 91, 0
1, 162550, Note_on_c, 0, 43, 0
1, 162568, Note_on_c, 0, 55, 0
1, 162575, Poly_aftertouch_c, 0, 90, 0
1, 162604, Note_on_c, 0, 78, 87
1, 162613, Poly_aftertouch_c, 0, 45, 0
1, 162620, Poly_aftertouch_c, 0, 90, 127
1, 162626, Note_on_c, 0, 78, 0
1, 162644, Poly_aftertouch_c, 0, 90, 0
1, 162693, Note_on_c, 0, 76, 93
1, 162706, Note_on_c, 0, 88, 67
1, 162720, Note_on_c, 0, 76, 0
1, 162721, Note_on_c, 0, 88, 0
1, 162782, Note_on_c, 0, 88, 85
1, 162784, Note_on_c, 0, 59, 98
1, 162787, Note_on_c, 0, 76, 87
1, 162790, Note_on_c, 0, 47, 83
1, 162808, Note_on_c, 0, 76, 0
1, 162812, Note_on_c, 0, 87, 9
1, 162823, Note_on_c, 0, 47, 0
1, 162826, Note_on_c, 0, 88, 0
1, 162838, Note_on_c, 0, 59, 0
1, 162860, Note_on_c, 0, 87, 0
1, 162884, Note_on_c, 0, 78, 83
1, 162886, Note_on_c, 0, 90, 87
1, 162905, Note_on_c, 0, 78, 0
1, 162934, Note_on_c, 0, 90, 0
1, 162973, Note_on_c, 0, 79, 33
1, 162980, Note_on_c, 0, 91, 86
1, 162986, Note_on_c, 0, 90, 56
1, 163002, Note_on_c, 0, 91, 0
1, 163005, Note_on_c, 0, 90, 0
1, 163007, Note_on_c, 0, 79, 0
1, 163073, Note_on_c, 0, 64, 97
1, 163074, Note_on_c, 0, 91, 90
1, 163076, Note_on_c, 0, 79, 90
1, 163077, Note_on_c, 0, 52, 83
1, 163102, Note_on_c, 0, 90, 41
1, 163103, Note_on_c, 0, 79, 0
1, 163122, Note_on_c, 0, 91, 0
1, 163129, Note_on_c, 0, 90, 0
1, 163129, Note_on_c, 0, 52, 0
1, 163141, Note_on_c, 0, 64, 0
1, 163178, Poly_aftertouch_c, 0, 59, 0
1, 163180, Note_on_c, 0, 78, 83
1, 163189, Note_on_c, 0, 90, 83
1, 163220, Note_on_c, 0, 78, 0
1, 163233, Note_on_c, 0, 90, 0
1, 163284, Note_on_c, 0, 76, 95
1, 163294, Note_on_c, 0, 88, 75
1, 163309, Note_on_c, 0, 87, 55
1, 163318, Note_on_c, 0, 88, 0
1, 163318, Note_on_c, 0, 76, 0
1, 163327, Note_on_c, 0, 87, 0
1, 163402, Note_on_c, 0, 67, 98
1, 163405, Note_on_c, 0, 55, 80
1, 163405, Note_on_c, 0, 88, 86
1, 163406, Note_on_c, 0, 76, 89
1, 163422, Note_on_c, 0, 87, 47
1, 163431, Note_on_c, 0, 76, 0
1, 163444, Note_on_c, 0, 87, 0
1, 163446, Note_on_c, 0, 88, 0
1, 163453, Note_on_c, 0, 55, 0
1, 163465, Note_on_c, 0, 67, 0
1, 163509, Note_on_c, 0, 78, 87
1, 163514, Note_on_c, 0, 90, 85
1, 163532, Note_on_c, 0, 78, 0
1, 163547, Note_on_c, 0, 87, 16
1, 163548, Note_on_c, 0, 87, 0
1, 163563, Note_on_c, 0, 90, 0
1, 163608, Note_on_c, 0, 79, 97
1, 163614, Note_on_c, 0, 91, 88
1, 163619, Note_on_c, 0, 90, 52
1, 163639, Note_on_c, 0, 90, 0
1, 163645, Note_on_c, 0, 79, 0
1, 163662, Note_on_c, 0, 91, 0
1, 163724, Note_on_c, 0, 71, 98
1, 163732, Note_on_c, 0, 59, 82
1, 163733, Note_on_c, 0, 91, 86
1, 163736, Note_on_c, 0, 79, 88
1, 163761, Note_on_c, 0, 59, 0
1, 163767, Note_on_c, 0, 79, 0
1, 163771, Note_on_c, 0, 61, 28
1, 163780, Note_on_c, 0, 91, 0
1, 163783, Note_on_c, 0, 71, 0
1, 163807, Note_on_c, 0, 61, 0
1, 163852, Note_on_c, 0, 90, 75
1, 163857, Note_on_c, 0, 78, 87
1, 163899, Note_on_c, 0, 78, 0
1, 163903, Note_on_c, 0, 90, 0
1, 163970, Note_on_c, 0, 76, 95
1, 163976, Note_on_c, 0, 88, 90
1, 163995, Note_on_c, 0, 87, 55
1, 164009, Note_on_c, 0, 76, 0
1, 164015, Note_on_c, 0, 87, 0
1, 164015, Note_on_c, 0, 88, 0
1, 164074, Poly_aftertouch_c, 0, 77, 0
1, 164099, Note_on_c, 0, 76, 103
1, 164101, Note_on_c, 0, 64, 81
1, 164143, Note_on_c, 0, 64, 0
1, 164151, Note_on_c, 0, 76, 0
1, 164221, Note_on_c, 0, 78, 87
1, 164221, Note_on_c, 0, 90, 85
1, 164274, Note_on_c, 0, 78, 0
1, 164308, Note_on_c, 0, 90, 0
1, 164319, Note_on_c, 0, 67, 76
1, 164320, Note_on_c, 0, 79, 96
1, 164351, Note_on_c, 0, 79, 0
1, 164379, Note_on_c, 0, 67, 0
1, 164420, Note_on_c, 0, 91, 85
1, 164432, Note_on_c, 0, 79, 75
1, 164435, Poly_aftertouch_c, 0, 70, 0
1, 164477, Note_on_c, 0, 79, 0
1, 164492, Note_on_c, 0, 91, 0
1, 164617, Control_c, 0, 64, 81
1, 164622, Note_on_c, 0, 45, 96
1, 164629, Note_on_c, 0, 33, 85
1, 164632, Control_c, 0, 64, 56
1, 164647, Control_c, 0, 64, 27
1, 164662, Control_c, 0, 64, 43
1, 164677, Control_c, 0, 64, 62
1, 164685, Note_on_c, 0, 33, 0
1, 164691, Control_c, 0, 64, 88
1, 164706, Control_c, 0, 64, 127
1, 164710, Note_on_c, 0, 45, 0
1, 164912, Note_on_c, 0, 72, 75
1, 164915, Note_on_c, 0, 79, 93
1, 164916, Note_on_c, 0, 76, 82
1, 164917, Note_on_c, 0, 67, 94
1, 164917, Note_on_c, 0, 69, 93
1, 164918, Note_on_c, 0, 64, 95
1, 164921, Note_on_c, 0, 60, 81
1, 164927, Note_on_c, 0, 52, 76
1, 164933, Note_on_c, 0, 55, 69
1, 164934, Note_on_c, 0, 57, 73
1, 164972, Note_on_c, 0, 64, 0
1, 165002, Note_on_c, 0, 57, 0
1, 165003, Note_on_c, 0, 60, 0
1, 165006, Note_on_c, 0, 52, 0
1, 165011, Note_on_c, 0, 55, 0
1, 165077, Note_on_c, 0, 64, 88
1, 165081, Note_on_c, 0, 60, 70
1, 165089, Note_on_c, 0, 52, 63
1, 165097, Note_on_c, 0, 57, 61
1, 165114, Note_on_c, 0, 55, 46
1, 165123, Note_on_c, 0, 64, 0
1, 165130, Note_on_c, 0, 52, 0
1, 165136, Note_on_c, 0, 57, 0
1, 165138, Note_on_c, 0, 60, 0
1, 165154, Note_on_c, 0, 55, 0
1, 165157, Note_on_c, 0, 67, 0
1, 165158, Note_on_c, 0, 69, 0
1, 165178, Note_on_c, 0, 72, 0
1, 165179, Note_on_c, 0, 79, 0
1, 165196, Note_on_c, 0, 76, 0
1, 165205, Note_on_c, 0, 64, 87
1, 165212, Note_on_c, 0, 52, 61
1, 165212, Note_on_c, 0, 60, 65
1, 165219, Note_on_c, 0, 57, 67
1, 165229, Note_on_c, 0, 64, 0
1, 165233, Note_on_c, 0, 55, 50
1, 165251, Note_on_c, 0, 57, 0
1, 165252, Note_on_c, 0, 60, 0
1, 165260, Note_on_c, 0, 52, 0
1, 165265, Note_on_c, 0, 55, 0
1, 165309, Note_on_c, 0, 69, 72
1, 165324, Note_on_c, 0, 64, 80
1, 165330, Note_on_c, 0, 60, 70
1, 165334, Note_on_c, 0, 52, 50
1, 165334, Note_on_c, 0, 57, 63
1, 165338, Note_on_c, 0, 69, 0
1, 165341, Note_on_c, 0, 71, 70
1, 165346, Note_on_c, 0, 55, 61
1, 165356, Note_on_c, 0, 64, 0
1, 165370, Note_on_c, 0, 71, 0
1, 165372, Note_on_c, 0, 60, 0
1, 165375, Note_on_c, 0, 57, 0
1, 165380, Note_on_c, 0, 55, 0
1, 165380, Note_on_c, 0, 72, 64
1, 165386, Note_on_c, 0, 52, 0
1, 165406, Note_on_c, 0, 72, 0
1, 165445, Note_on_c, 0, 74, 73
1, 165458, Note_on_c, 0, 64, 64
1, 165464, Note_on_c, 0, 60, 51
1, 165470, Note_on_c, 0, 52, 35
1, 165473, Note_on_c, 0, 55, 45
1, 165476, Note_on_c, 0, 76, 72
1, 165478, Note_on_c, 0, 64, 0
1, 165481, Note_on_c, 0, 57, 41
1, 165485, Note_on_c, 0, 74, 0
1, 165495, Note_on_c, 0, 60, 0
1, 165497, Note_on_c, 0, 52, 0
1, 165503, Note_on_c, 0, 55, 0
1, 165505, Note_on_c, 0, 76, 0
1, 165511, Note_on_c, 0, 78, 67
1, 165523, Note_on_c, 0, 57, 0
1, 165534, Note_on_c, 0, 78, 0
1, 165553, Note_on_c, 0, 64, 71
1, 165566, Note_on_c, 0, 60, 73
1, 165569, Note_on_c, 0, 57, 50
1, 165600, Note_on_c, 0, 60, 0
1, 165601, Note_on_c, 0, 81, 74
1, 165607, Note_on_c, 0, 57, 0
1, 165612, Note_on_c, 0, 64, 0
1, 165627, Note_on_c, 0, 81, 0
1, 165644, Note_on_c, 0, 83, 84
1, 165674, Poly_aftertouch_c, 0, 52, 0
1, 165680, Note_on_c, 0, 84, 70
1, 165712, Note_on_c, 0, 83, 0
1, 165718, Note_on_c, 0, 86, 66
1, 165742, Note_on_c, 0, 84, 0
1, 165777, Note_on_c, 0, 88, 72
1, 165781, Note_on_c, 0, 86, 0
1, 165803, Note_on_c, 0, 78, 103
1, 165812, Note_on_c, 0, 66, 79
1, 165852, Note_on_c, 0, 73, 30
1, 165856, Note_on_c, 0, 86, 65
1, 165858, Note_on_c, 0, 88, 0
1, 165886, Note_on_c, 0, 73, 0
1, 165902, Note_on_c, 0, 84, 65
1, 165935, Note_on_c, 0, 86, 0
1, 165946, Note_on_c, 0, 83, 67
1, 165950, Note_on_c, 0, 84, 0
1, 165985, Note_on_c, 0, 78, 0
1, 165985, Note_on_c, 0, 83, 0
1, 165991, Note_on_c, 0, 81, 72
1, 166024, Note_on_c, 0, 66, 0
1, 166033, Note_on_c, 0, 81, 0
1, 166045, Note_on_c, 0, 83, 54
1, 166070, Note_on_c, 0, 84, 70
1, 166078, Note_on_c, 0, 83, 0
1, 166118, Note_on_c, 0, 86, 74
1, 166121, Note_on_c, 0, 84, 0
1, 166138, Note_on_c, 0, 86, 0
1, 166188, Note_on_c, 0, 88, 57
1, 166223, Note_on_c, 0, 76, 99
1, 166230, Note_on_c, 0, 64, 75
1, 166248, Note_on_c, 0, 90, 73
1, 166255, Note_on_c, 0, 88, 0
1, 166281, Note_on_c, 0, 65, 18
1, 166282, Note_on_c, 0, 65, 0
1, 166289, Note_on_c, 0, 91, 76
1, 166300, Note_on_c, 0, 90, 0
1, 166324, Note_on_c, 0, 91, 0
1, 166339, Note_on_c, 0, 93, 59
1, 166355, Note_on_c, 0, 76, 0
1, 166362, Note_on_c, 0, 93, 0
1, 166405, Note_on_c, 0, 64, 0
1, 166406, Note_on_c, 0, 95, 81
1, 166437, Note_on_c, 0, 96, 76
1, 166443, Note_on_c, 0, 95, 0
1, 166483, Note_on_c, 0, 98, 80
1, 166510, Note_on_c, 0, 100, 88
1, 166513, Note_on_c, 0, 96, 0
1, 166548, Note_on_c, 0, 100, 0
1, 166552, Note_on_c, 0, 98, 0
1, 166784, Note_on_c, 0, 45, 78
1, 166785, Note_on_c, 0, 50, 92
1, 166785, Note_on_c, 0, 66, 74
1, 166787, Note_on_c, 0, 62, 80
1, 166788, Note_on_c, 0, 74, 81
1, 166791, Note_on_c, 0, 38, 74
1, 166804, Control_c, 0, 64, 82
1, 166818, Control_c, 0, 64, 64
1, 166833, Control_c, 0, 64, 55
1, 166841, Note_on_c, 0, 62, 0
1, 166849, Control_c, 0, 64, 60
1, 166864, Control_c, 0, 64, 64
1, 166871, Note_on_c, 0, 66, 0
1, 166879, Control_c, 0, 64, 74
1, 166893, Control_c, 0, 64, 102
1, 166901, Note_on_c, 0, 74, 0
1, 166908, Control_c, 0, 64, 127
1, 166913, Note_on_c, 0, 38, 0
1, 166948, Note_on_c, 0, 50, 0
1, 166949, Note_on_c, 0, 45, 0
1, 166992, Note_on_c, 0, 76, 71
1, 167025, Note_on_c, 0, 76, 0
1, 167042, Note_on_c, 0, 78, 71
1, 167099, Note_on_c, 0, 78, 0
1, 167118, Note_on_c, 0, 79, 71
1, 167175, Note_on_c, 0, 81, 80
1, 167176, Note_on_c, 0, 79, 0
1, 167234, Note_on_c, 0, 72, 84
1, 167237, Note_on_c, 0, 83, 75
1, 167238, Note_on_c, 0, 62, 69
1, 167238, Note_on_c, 0, 66, 75
1, 167248, Note_on_c, 0, 60, 61
1, 167258, Note_on_c, 0, 81, 0
1, 167284, Note_on_c, 0, 60, 0
1, 167288, Note_on_c, 0, 72, 0
1, 167293, Note_on_c, 0, 84, 69
1, 167297, Note_on_c, 0, 66, 0
1, 167303, Note_on_c, 0, 83, 0
1, 167310, Note_on_c, 0, 62, 0
1, 167360, Note_on_c, 0, 86, 62
1, 167367, Note_on_c, 0, 84, 0
1, 167369, Note_on_c, 0, 72, 76
1, 167378, Note_on_c, 0, 62, 54
1, 167378, Note_on_c, 0, 60, 63
1, 167378, Note_on_c, 0, 66, 63
1, 167410, Note_on_c, 0, 86, 0
1, 167412, Note_on_c, 0, 72, 0
1, 167413, Note_on_c, 0, 60, 0
1, 167415, Note_on_c, 0, 66, 0
1, 167433, Note_on_c, 0, 62, 0
1, 167440, Note_on_c, 0, 84, 53
1, 167484, Note_on_c, 0, 83, 66
1, 167502, Note_on_c, 0, 72, 76
1, 167504, Note_on_c, 0, 60, 63
1, 167506, Note_on_c, 0, 62, 57
1, 167506, Note_on_c, 0, 66, 70
1, 167512, Note_on_c, 0, 84, 0
1, 167531, Note_on_c, 0, 81, 72
1, 167534, Note_on_c, 0, 83, 0
1, 167555, Note_on_c, 0, 72, 0
1, 167556, Note_on_c, 0, 60, 0
1, 167576, Note_on_c, 0, 81, 0
1, 167584, Note_on_c, 0, 62, 0
1, 167589, Note_on_c, 0, 79, 57
1, 167592, Note_on_c, 0, 66, 0
1, 167621, Note_on_c, 0, 79, 0
1, 167664, Note_on_c, 0, 72, 86
1, 167669, Note_on_c, 0, 78, 74
1, 167672, Note_on_c, 0, 66, 66
1, 167674, Note_on_c, 0, 62, 67
1, 167676, Note_on_c, 0, 60, 73
1, 167721, Note_on_c, 0, 76, 67
1, 167722, Note_on_c, 0, 78, 0
1, 167753, Note_on_c, 0, 76, 0
1, 167762, Note_on_c, 0, 72, 0
1, 167765, Note_on_c, 0, 74, 68
1, 167786, Note_on_c, 0, 60, 0
1, 167809, Note_on_c, 0, 74, 0
1, 167816, Note_on_c, 0, 76, 59
1, 167819, Note_on_c, 0, 62, 0
1, 167840, Note_on_c, 0, 66, 0
1, 167871, Note_on_c, 0, 76, 0
1, 167878, Note_on_c, 0, 78, 66
1, 167893, Note_on_c, 0, 72, 87
1, 167896, Note_on_c, 0, 62, 66
1, 167899, Note_on_c, 0, 66, 68
1, 167906, Note_on_c, 0, 78, 0
1, 167906, Note_on_c, 0, 60, 68
1, 167935, Note_on_c, 0, 79, 74
1, 167988, Note_on_c, 0, 79, 0
1, 168003, Note_on_c, 0, 81, 70
1, 168026, Note_on_c, 0, 81, 0
1, 168031, Note_on_c, 0, 83, 68
1, 168033, Note_on_c, 0, 72, 0
1, 168036, Note_on_c, 0, 60, 0
1, 168057, Note_on_c, 0, 83, 0
1, 168082, Note_on_c, 0, 66, 0
1, 168084, Note_on_c, 0, 62, 0
1, 168100, Note_on_c, 0, 62, 28
1, 168100, Note_on_c, 0, 66, 39
1, 168102, Note_on_c, 0, 72, 78
1, 168102, Note_on_c, 0, 84, 74
1, 168105, Note_on_c, 0, 60, 63
1, 168143, Note_on_c, 0, 84, 0
1, 168144, Note_on_c, 0, 72, 0
1, 168150, Note_on_c, 0, 62, 0
1, 168156, Note_on_c, 0, 86, 68
1, 168157, Note_on_c, 0, 66, 0
1, 168161, Note_on_c, 0, 60, 0
1, 168185, Note_on_c, 0, 86, 0
1, 168188, Note_on_c, 0, 88, 65
1, 168224, Note_on_c, 0, 90, 75
1, 168228, Note_on_c, 0, 88, 0
1, 168258, Note_on_c, 0, 90, 0
1, 168311, Note_on_c, 0, 91, 79
1, 168312, Note_on_c, 0, 71, 94
1, 168320, Note_on_c, 0, 59, 81
1, 168358, Note_on_c, 0, 91, 0
1, 168364, Note_on_c, 0, 93, 64
1, 168376, Note_on_c, 0, 71, 0
1, 168389, Note_on_c, 0, 93, 0
1, 168398, Note_on_c, 0, 95, 65
1, 168407, Note_on_c, 0, 59, 0
1, 168428, Note_on_c, 0, 95, 0
1, 168475, Note_on_c, 0, 96, 75
1, 168526, Note_on_c, 0, 96, 0
1, 168534, Note_on_c, 0, 98, 77
1, 168539, Note_on_c, 0, 69, 92
1, 168549, Note_on_c, 0, 57, 82
1, 168570, Note_on_c, 0, 69, 0
1, 168573, Note_on_c, 0, 100, 68
1, 168601, Note_on_c, 0, 102, 73
1, 168607, Note_on_c, 0, 98, 0
1, 168611, Note_on_c, 0, 100, 0
1, 168615, Note_on_c, 0, 57, 0
1, 168655, Note_on_c, 0, 103, 86
1, 168672, Note_on_c, 0, 103, 0
1, 168684, Note_on_c, 0, 102, 0
1, 168949, Note_on_c, 0, 38, 54
1, 168956, Note_on_c, 0, 59, 69
1, 168957, Note_on_c, 0, 31, 85
1, 168959, Note_on_c, 0, 55, 84
1, 168959, Note_on_c, 0, 67, 85
1, 168960, Note_on_c, 0, 43, 92
1, 168992, Control_c, 0, 64, 81
1, 169006, Control_c, 0, 64, 60
1, 169021, Control_c, 0, 64, 30
1, 169036, Control_c, 0, 64, 0
1, 169051, Control_c, 0, 64, 28
1, 169066, Control_c, 0, 64, 54
1, 169080, Control_c, 0, 64, 69
1, 169095, Control_c, 0, 64, 96
1, 169097, Poly_aftertouch_c, 0, 64, 0
1, 169110, Control_c, 0, 64, 127
1, 169121, Note_on_c, 0, 31, 0
1, 169127, Note_on_c, 0, 55, 0
1, 169145, Note_on_c, 0, 59, 0
1, 169154, Note_on_c, 0, 38, 0
1, 169166, Note_on_c, 0, 67, 0
1, 169166, Note_on_c, 0, 43, 0
1, 169171, Note_on_c, 0, 55, 52
1, 169214, Note_on_c, 0, 55, 0
1, 169217, Note_on_c, 0, 59, 59
1, 169263, Note_on_c, 0, 59, 0
1, 169267, Note_on_c, 0, 62, 67
1, 169293, Note_on_c, 0, 62, 0
1, 169355, Note_on_c, 0, 50, 66
1, 169355, Note_on_c, 0, 59, 66
1, 169357, Note_on_c, 0, 55, 58
1, 169371, Note_on_c, 0, 67, 75
1, 169393, Note_on_c, 0, 55, 0
1, 169393, Note_on_c, 0, 59, 0
1, 169408, Note_on_c, 0, 67, 0
1, 169417, Note_on_c, 0, 71, 70
1, 169465, Note_on_c, 0, 74, 69
1, 169471, Note_on_c, 0, 71, 0
1, 169482, Note_on_c, 0, 55, 66
1, 169482, Note_on_c, 0, 59, 64
1, 169512, Note_on_c, 0, 59, 0
1, 169518, Note_on_c, 0, 50, 0
1, 169519, Note_on_c, 0, 74, 0
1, 169523, Note_on_c, 0, 79, 70
1, 169584, Note_on_c, 0, 79, 0
1, 169584, Note_on_c, 0, 74, 64
1, 169593, Note_on_c, 0, 62, 65
1, 169595, Note_on_c, 0, 59, 68
1, 169610, Note_on_c, 0, 55, 0
1, 169623, Note_on_c, 0, 59, 0
1, 169631, Note_on_c, 0, 62, 0
1, 169649, Note_on_c, 0, 71, 68
1, 169655, Note_on_c, 0, 74, 0
1, 169693, Note_on_c, 0, 71, 0
1, 169694, Note_on_c, 0, 67, 70
1, 169715, Note_on_c, 0, 62, 73
1, 169720, Note_on_c, 0, 59, 68
1, 169731, Note_on_c, 0, 55, 66
1, 169743, Note_on_c, 0, 71, 60
1, 169747, Note_on_c, 0, 62, 0
1, 169748, Note_on_c, 0, 67, 0
1, 169767, Note_on_c, 0, 59, 0
1, 169783, Note_on_c, 0, 55, 0
1, 169792, Note_on_c, 0, 71, 0
1, 169795, Note_on_c, 0, 74, 69
1, 169819, Note_on_c, 0, 74, 0
1, 169839, Note_on_c, 0, 62, 73
1, 169849, Note_on_c, 0, 59, 61
1, 169849, Poly_aftertouch_c, 0, 55, 127
1, 169882, Note_on_c, 0, 79, 77
1, 169900, Note_on_c, 0, 62, 0
1, 169944, Note_on_c, 0, 79, 0
1, 169950, Note_on_c, 0, 83, 80
1, 169960, Note_on_c, 0, 62, 58
1, 169962, Note_on_c, 0, 67, 80
1, 169963, Poly_aftertouch_c, 0, 55, 0
1, 169994, Note_on_c, 0, 62, 0
1, 169999, Note_on_c, 0, 83, 0
1, 170006, Note_on_c, 0, 59, 0
1, 170009, Note_on_c, 0, 86, 74
1, 170014, Note_on_c, 0, 67, 0
1, 170028, Note_on_c, 0, 86, 0
1, 170108, Note_on_c, 0, 91, 84
1, 170111, Note_on_c, 0, 59, 74
1, 170113, Note_on_c, 0, 67, 84
1, 170120, Note_on_c, 0, 62, 68
1, 170156, Note_on_c, 0, 62, 0
1, 170169, Note_on_c, 0, 67, 0
1, 170171, Note_on_c, 0, 59, 0
1, 170173, Note_on_c, 0, 95, 84
1, 170182, Note_on_c, 0, 91, 0
1, 170233, Note_on_c, 0, 95, 0
1, 170239, Note_on_c, 0, 96, 76
1, 170255, Note_on_c, 0, 67, 83
1, 170259, Note_on_c, 0, 96, 0
1, 170262, Note_on_c, 0, 62, 68
1, 170267, Note_on_c, 0, 59, 62
1, 170313, Note_on_c, 0, 98, 86
1, 170320, Note_on_c, 0, 59, 0
1, 170330, Note_on_c, 0, 67, 0
1, 170367, Note_on_c, 0, 62, 0
1, 170377, Note_on_c, 0, 67, 63
1, 170383, Note_on_c, 0, 71, 83
1, 170387, Note_on_c, 0, 100, 76
1, 170403, Note_on_c, 0, 71, 0
1, 170404, Note_on_c, 0, 62, 11
1, 170411, Note_on_c, 0, 67, 0
1, 170421, Poly_aftertouch_c, 0, 59, 127
1, 170437, Poly_aftertouch_c, 0, 59, 0
1, 170439, Note_on_c, 0, 100, 0
1, 170442, Note_on_c, 0, 98, 0
1, 170442, Note_on_c, 0, 62, 0
1, 170442, Note_on_c, 0, 102, 81
1, 170490, Note_on_c, 0, 102, 0
1, 170608, Control_c, 0, 64, 93
1, 170612, Note_on_c, 0, 47, 81
1, 170618, Note_on_c, 0, 52, 82
1, 170618, Note_on_c, 0, 103, 88
1, 170619, Note_on_c, 0, 40, 78
1, 170621, Note_on_c, 0, 91, 88
1, 170621, Note_on_c, 0, 95, 77
1, 170623, Control_c, 0, 64, 65
1, 170638, Control_c, 0, 64, 45
1, 170652, Control_c, 0, 64, 48
1, 170667, Control_c, 0, 64, 64
1, 170674, Note_on_c, 0, 40, 0
1, 170681, Note_on_c, 0, 95, 0
1, 170682, Control_c, 0, 64, 79
1, 170689, Note_on_c, 0, 47, 0
1, 170690, Note_on_c, 0, 91, 0
1, 170697, Control_c, 0, 64, 127
1, 170707, Note_on_c, 0, 52, 0
1, 170731, Note_on_c, 0, 103, 0
1, 170731, Note_on_c, 0, 102, 72
1, 170779, Note_on_c, 0, 102, 0
1, 170809, Note_on_c, 0, 100, 76
1, 170836, Note_on_c, 0, 52, 54
1, 170841, Note_on_c, 0, 53, 71
1, 170868, Note_on_c, 0, 98, 69
1, 170877, Note_on_c, 0, 100, 0
1, 170920, Note_on_c, 0, 98, 0
1, 170925, Note_on_c, 0, 96, 67
1, 170939, Note_on_c, 0, 53, 0
1, 170942, Note_on_c, 0, 52, 0
1, 170946, Note_on_c, 0, 55, 62
1, 170951, Note_on_c, 0, 96, 0
1, 170996, Note_on_c, 0, 95, 75
1, 171035, Note_on_c, 0, 59, 64
1, 171036, Note_on_c, 0, 95, 0
1, 171048, Note_on_c, 0, 93, 64
1, 171079, Note_on_c, 0, 93, 0
1, 171084, Note_on_c, 0, 91, 68
1, 171086, Note_on_c, 0, 55, 0
1, 171117, Note_on_c, 0, 91, 0
1, 171133, Note_on_c, 0, 59, 0
1, 171137, Note_on_c, 0, 64, 74
1, 171163, Note_on_c, 0, 90, 75
1, 171199, Note_on_c, 0, 64, 0
1, 171220, Note_on_c, 0, 88, 63
1, 171255, Note_on_c, 0, 90, 0
1, 171259, Note_on_c, 0, 67, 60
1, 171262, Note_on_c, 0, 86, 71
1, 171271, Note_on_c, 0, 88, 0
1, 171308, Note_on_c, 0, 84, 63
1, 171309, Note_on_c, 0, 86, 0
1, 171334, Note_on_c, 0, 84, 0
1, 171343, Note_on_c, 0, 71, 64
1, 171358, Note_on_c, 0, 67, 0
1, 171381, Note_on_c, 0, 83, 78
1, 171426, Note_on_c, 0, 76, 67
1, 171430, Note_on_c, 0, 83, 0
1, 171434, Note_on_c, 0, 81, 62
1, 171446, Note_on_c, 0, 71, 0
1, 171458, Note_on_c, 0, 81, 0
1, 171467, Note_on_c, 0, 71, 27
1, 171471, Note_on_c, 0, 79, 68
1, 171478, Note_on_c, 0, 76, 0
1, 171500, Note_on_c, 0, 79, 0
1, 171542, Note_on_c, 0, 78, 75
1, 171572, Note_on_c, 0, 67, 65
1, 171575, Note_on_c, 0, 71, 0
1, 171595, Note_on_c, 0, 76, 80
1, 171630, Note_on_c, 0, 66, 69
1, 171634, Note_on_c, 0, 74, 66
1, 171638, Note_on_c, 0, 67, 0
1, 171638, Note_on_c, 0, 78, 0
1, 171649, Note_on_c, 0, 76, 0
1, 171655, Note_on_c, 0, 66, 0
1, 171673, Note_on_c, 0, 74, 0
1, 171676, Note_on_c, 0, 72, 69
1, 171708, Note_on_c, 0, 72, 0
1, 171735, Note_on_c, 0, 64, 70
1, 171762, Note_on_c, 0, 71, 69
1, 171784, Note_on_c, 0, 64, 0
1, 171800, Note_on_c, 0, 71, 0
1, 171800, Note_on_c, 0, 59, 70
1, 171801, Note_on_c, 0, 69, 65
1, 171836, Note_on_c, 0, 69, 0
1, 171842, Note_on_c, 0, 67, 64
1, 171879, Note_on_c, 0, 67, 0
1, 171887, Note_on_c, 0, 55, 53
1, 171908, Note_on_c, 0, 59, 0
1, 171922, Note_on_c, 0, 66, 74
1, 171940, Note_on_c, 0, 54, 69
1, 171967, Note_on_c, 0, 64, 75
1, 171973, Note_on_c, 0, 55, 0
1, 171997, Note_on_c, 0, 54, 0
1, 172007, Note_on_c, 0, 62, 70
1, 172013, Note_on_c, 0, 66, 0
1, 172025, Note_on_c, 0, 64, 0
1, 172050, Note_on_c, 0, 60, 69
1, 172053, Note_on_c, 0, 62, 0
1, 172084, Note_on_c, 0, 60, 0
1, 172085, Note_on_c, 0, 52, 69
1, 172138, Note_on_c, 0, 59, 64
1, 172152, Note_on_c, 0, 52, 0
1, 172175, Note_on_c, 0, 57, 69
1, 172188, Note_on_c, 0, 59, 0
1, 172219, Note_on_c, 0, 57, 0
1, 172221, Note_on_c, 0, 55, 67
1, 172225, Poly_aftertouch_c, 0, 60, 0
1, 172229, Note_on_c, 0, 40, 70
1, 172261, Note_on_c, 0, 55, 0
1, 172290, Note_on_c, 0, 40, 0
1, 172297, Note_on_c, 0, 54, 77
1, 172345, Note_on_c, 0, 43, 77
1, 172356, Note_on_c, 0, 52, 71
1, 172380, Note_on_c, 0, 43, 0
1, 172399, Note_on_c, 0, 54, 0
1, 172399, Note_on_c, 0, 50, 66
1, 172412, Note_on_c, 0, 52, 0
1, 172438, Note_on_c, 0, 48, 70
1, 172445, Note_on_c, 0, 50, 0
1, 172507, Note_on_c, 0, 48, 0
1, 172510, Note_on_c, 0, 47, 86
1, 172543, Control_c, 0, 64, 99
1, 172547, Note_on_c, 0, 47, 0
1, 172557, Control_c, 0, 64, 67
1, 172570, Note_on_c, 0, 45, 94
1, 172572, Control_c, 0, 64, 38
1, 172577, Note_on_c, 0, 33, 80
1, 172587, Control_c, 0, 64, 0
1, 172602, Control_c, 0, 64, 38
1, 172617, Control_c, 0, 64, 60
1, 172631, Control_c, 0, 64, 79
1, 172639, Note_on_c, 0, 33, 0
1, 172646, Control_c, 0, 64, 127
1, 172661, Note_on_c, 0, 45, 0
1, 172888, Note_on_c, 0, 72, 84
1, 172889, Note_on_c, 0, 76, 87
1, 172890, Note_on_c, 0, 79, 90
1, 172891, Note_on_c, 0, 64, 89
1, 172892, Note_on_c, 0, 69, 88
1, 172893, Note_on_c, 0, 67, 91
1, 172895, Note_on_c, 0, 60, 76
1, 172901, Note_on_c, 0, 52, 75
1, 172910, Note_on_c, 0, 57, 68
1, 172921, Note_on_c, 0, 75, 50
1, 172922, Note_on_c, 0, 55, 64
1, 172953, Note_on_c, 0, 75, 0
1, 172965, Note_on_c, 0, 64, 0
1, 172981, Note_on_c, 0, 52, 0
1, 173008, Note_on_c, 0, 57, 0
1, 173011, Note_on_c, 0, 55, 0
1, 173027, Note_on_c, 0, 60, 0
1, 173071, Note_on_c, 0, 64, 87
1, 173083, Note_on_c, 0, 60, 65
1, 173095, Note_on_c, 0, 52, 66
1, 173098, Note_on_c, 0, 57, 49
1, 173102, Note_on_c, 0, 55, 34
1, 173113, Note_on_c, 0, 64, 0
1, 173124, Note_on_c, 0, 52, 0
1, 173152, Note_on_c, 0, 67, 0
1, 173153, Note_on_c, 0, 57, 0
1, 173155, Note_on_c, 0, 60, 0
1, 173157, Note_on_c, 0, 55, 0
1, 173161, Note_on_c, 0, 69, 0
1, 173190, Note_on_c, 0, 79, 0
1, 173191, Note_on_c, 0, 72, 0
1, 173206, Note_on_c, 0, 76, 0
1, 173214, Note_on_c, 0, 64, 80
1, 173215, Note_on_c, 0, 60, 62
1, 173223, Note_on_c, 0, 52, 68
1, 173232, Note_on_c, 0, 57, 61
1, 173235, Note_on_c, 0, 55, 50
1, 173252, Note_on_c, 0, 64, 0
1, 173264, Note_on_c, 0, 57, 0
1, 173273, Note_on_c, 0, 52, 0
1, 173276, Note_on_c, 0, 60, 0
1, 173280, Note_on_c, 0, 55, 0
1, 173336, Note_on_c, 0, 69, 73
1, 173347, Note_on_c, 0, 60, 67
1, 173349, Note_on_c, 0, 64, 77
1, 173355, Note_on_c, 0, 57, 66
1, 173360, Note_on_c, 0, 52, 60
1, 173364, Note_on_c, 0, 69, 0
1, 173365, Note_on_c, 0, 71, 68
1, 173376, Note_on_c, 0, 55, 57
1, 173382, Note_on_c, 0, 64, 0
1, 173393, Note_on_c, 0, 71, 0
1, 173397, Note_on_c, 0, 72, 65
1, 173408, Note_on_c, 0, 60, 0
1, 173410, Note_on_c, 0, 52, 0
1, 173414, Note_on_c, 0, 57, 0
1, 173414, Note_on_c, 0, 55, 0
1, 173422, Note_on_c, 0, 72, 0
1, 173473, Note_on_c, 0, 74, 77
1, 173475, Note_on_c, 0, 60, 66
1, 173476, Note_on_c, 0, 64, 76
1, 173485, Note_on_c, 0, 57, 54
1, 173488, Note_on_c, 0, 52, 55
1, 173507, Note_on_c, 0, 55, 54
1, 173508, Note_on_c, 0, 76, 67
1, 173517, Note_on_c, 0, 64, 0
1, 173524, Note_on_c, 0, 52, 0
1, 173524, Note_on_c, 0, 74, 0
1, 173533, Note_on_c, 0, 60, 0
1, 173538, Note_on_c, 0, 57, 0
1, 173542, Note_on_c, 0, 78, 70
1, 173547, Note_on_c, 0, 55, 0
1, 173553, Note_on_c, 0, 76, 0
1, 173570, Note_on_c, 0, 78, 0
1, 173577, Note_on_c, 0, 79, 61
1, 173597, Note_on_c, 0, 79, 0
1, 173608, Note_on_c, 0, 60, 59
1, 173611, Note_on_c, 0, 57, 60
1, 173611, Note_on_c, 0, 64, 73
1, 173636, Note_on_c, 0, 57, 0
1, 173636, Note_on_c, 0, 60, 0
1, 173638, Note_on_c, 0, 81, 75
1, 173649, Note_on_c, 0, 64, 0
1, 173677, Note_on_c, 0, 83, 77
1, 173679, Note_on_c, 0, 81, 0
1, 173727, Note_on_c, 0, 84, 70
1, 173758, Note_on_c, 0, 83, 0
1, 173764, Note_on_c, 0, 86, 65
1, 173782, Note_on_c, 0, 84, 0
1, 173831, Note_on_c, 0, 88, 71
1, 173833, Note_on_c, 0, 86, 0
1, 173850, Note_on_c, 0, 78, 94
1, 173853, Note_on_c, 0, 66, 78
1, 173896, Note_on_c, 0, 88, 0
1, 173912, Note_on_c, 0, 86, 65
1, 173962, Note_on_c, 0, 84, 66
1, 173993, Note_on_c, 0, 86, 0
1, 174007, Note_on_c, 0, 83, 68
1, 174013, Note_on_c, 0, 84, 0
1, 174040, Note_on_c, 0, 83, 0
1, 174047, Note_on_c, 0, 81, 73
1, 174054, Note_on_c, 0, 78, 0
1, 174082, Note_on_c, 0, 66, 0
1, 174096, Note_on_c, 0, 81, 0
1, 174117, Note_on_c, 0, 83, 58
1, 174136, Note_on_c, 0, 84, 71
1, 174150, Note_on_c, 0, 83, 0
1, 174184, Note_on_c, 0, 86, 73
1, 174189, Note_on_c, 0, 84, 0
1, 174213, Note_on_c, 0, 86, 0
1, 174275, Note_on_c, 0, 88, 71
1, 174282, Note_on_c, 0, 76, 95
1, 174291, Note_on_c, 0, 64, 78
1, 174326, Note_on_c, 0, 90, 71
1, 174328, Note_on_c, 0, 88, 0
1, 174367, Note_on_c, 0, 91, 72
1, 174377, Note_on_c, 0, 76, 0
1, 174382, Note_on_c, 0, 90, 0
1, 174401, Note_on_c, 0, 91, 0
1, 174402, Note_on_c, 0, 93, 63
1, 174426, Note_on_c, 0, 93, 0
1, 174445, Note_on_c, 0, 64, 0
1, 174475, Note_on_c, 0, 95, 81
1, 174507, Note_on_c, 0, 96, 72
1, 174514, Note_on_c, 0, 95, 0
1, 174549, Note_on_c, 0, 98, 78
1, 174585, Note_on_c, 0, 96, 0
1, 174588, Note_on_c, 0, 100, 82
1, 174621, Note_on_c, 0, 98, 0
1, 174627, Note_on_c, 0, 100, 0
1, 174842, Note_on_c, 0, 66, 76
1, 174847, Note_on_c, 0, 74, 80
1, 174848, Note_on_c, 0, 45, 80
1, 174848, Control_c, 0, 64, 112
1, 174849, Note_on_c, 0, 50, 90
1, 174850, Note_on_c, 0, 62, 74
1, 174851, Note_on_c, 0, 38, 76
1, 174863, Control_c, 0, 64, 76
1, 174877, Control_c, 0, 64, 57
1, 174892, Control_c, 0, 64, 46
1, 174907, Control_c, 0, 64, 53
1, 174918, Note_on_c, 0, 62, 0
1, 174922, Control_c, 0, 64, 61
1, 174937, Control_c, 0, 64, 72
1, 174942, Note_on_c, 0, 66, 0
1, 174952, Control_c, 0, 64, 110
1, 174966, Note_on_c, 0, 38, 0
1, 174967, Control_c, 0, 64, 127
1, 174975, Note_on_c, 0, 74, 0
1, 174999, Note_on_c, 0, 50, 0
1, 175006, Note_on_c, 0, 45, 0
1, 175073, Note_on_c, 0, 76, 68
1, 175098, Note_on_c, 0, 76, 0
1, 175110, Note_on_c, 0, 78, 69
1, 175159, Note_on_c, 0, 78, 0
1, 175176, Note_on_c, 0, 79, 73
1, 175234, Note_on_c, 0, 81, 80
1, 175235, Note_on_c, 0, 79, 0
1, 175292, Note_on_c, 0, 83, 76
1, 175295, Note_on_c, 0, 72, 85
1, 175298, Note_on_c, 0, 66, 74
1, 175299, Note_on_c, 0, 62, 73
1, 175310, Note_on_c, 0, 60, 66
1, 175334, Note_on_c, 0, 81, 0
1, 175351, Note_on_c, 0, 60, 0
1, 175352, Note_on_c, 0, 84, 69
1, 175354, Note_on_c, 0, 72, 0
1, 175369, Note_on_c, 0, 66, 0
1, 175369, Note_on_c, 0, 83, 0
1, 175375, Note_on_c, 0, 62, 0
1, 175420, Note_on_c, 0, 86, 65
1, 175433, Note_on_c, 0, 84, 0
1, 175433, Note_on_c, 0, 72, 74
1, 175444, Note_on_c, 0, 60, 59
1, 175446, Note_on_c, 0, 62, 56
1, 175446, Note_on_c, 0, 66, 64
1, 175472, Note_on_c, 0, 72, 0
1, 175474, Note_on_c, 0, 86, 0
1, 175477, Note_on_c, 0, 60, 0
1, 175480, Note_on_c, 0, 66, 0
1, 175490, Note_on_c, 0, 62, 0
1, 175495, Note_on_c, 0, 84, 54
1, 175548, Note_on_c, 0, 83, 69
1, 175564, Note_on_c, 0, 72, 76
1, 175566, Note_on_c, 0, 66, 71
1, 175567, Note_on_c, 0, 60, 61
1, 175569, Note_on_c, 0, 62, 63
1, 175580, Note_on_c, 0, 84, 0
1, 175597, Note_on_c, 0, 81, 67
1, 175605, Note_on_c, 0, 83, 0
1, 175618, Note_on_c, 0, 60, 0
1, 175624, Note_on_c, 0, 72, 0
1, 175644, Note_on_c, 0, 81, 0
1, 175646, Note_on_c, 0, 79, 65
1, 175651, Note_on_c, 0, 62, 0
1, 175654, Note_on_c, 0, 66, 0
1, 175683, Note_on_c, 0, 79, 0
1, 175736, Note_on_c, 0, 72, 85
1, 175737, Note_on_c, 0, 78, 72
1, 175746, Note_on_c, 0, 62, 67
1, 175748, Note_on_c, 0, 66, 68
1, 175750, Note_on_c, 0, 60, 69
1, 175790, Note_on_c, 0, 76, 63
1, 175795, Note_on_c, 0, 78, 0
1, 175823, Note_on_c, 0, 76, 0
1, 175835, Note_on_c, 0, 74, 70
1, 175851, Note_on_c, 0, 72, 0
1, 175888, Note_on_c, 0, 74, 0
1, 175888, Note_on_c, 0, 62, 0
1, 175892, Note_on_c, 0, 60, 0
1, 175897, Note_on_c, 0, 66, 0
1, 175900, Note_on_c, 0, 76, 60
1, 175943, Note_on_c, 0, 76, 0
1, 175954, Note_on_c, 0, 78, 69
1, 175960, Note_on_c, 0, 62, 62
1, 175961, Note_on_c, 0, 72, 91
1, 175967, Note_on_c, 0, 66, 68
1, 175973, Note_on_c, 0, 60, 69
1, 175981, Note_on_c, 0, 78, 0
1, 176008, Note_on_c, 0, 79, 74
1, 176061, Note_on_c, 0, 79, 0
1, 176066, Note_on_c, 0, 72, 0
1, 176088, Note_on_c, 0, 81, 72
1, 176096, Note_on_c, 0, 60, 0
1, 176113, Note_on_c, 0, 81, 0
1, 176120, Note_on_c, 0, 83, 70
1, 176129, Note_on_c, 0, 62, 0
1, 176144, Note_on_c, 0, 83, 0
1, 176166, Note_on_c, 0, 66, 0
1, 176175, Note_on_c, 0, 72, 83
1, 176177, Note_on_c, 0, 66, 55
1, 176179, Note_on_c, 0, 60, 66
1, 176180, Note_on_c, 0, 62, 56
1, 176193, Note_on_c, 0, 84, 72
1, 176218, Note_on_c, 0, 72, 0
1, 176227, Note_on_c, 0, 62, 0
1, 176231, Note_on_c, 0, 66, 0
1, 176239, Note_on_c, 0, 60, 0
1, 176239, Note_on_c, 0, 84, 0
1, 176247, Note_on_c, 0, 86, 73
1, 176276, Note_on_c, 0, 88, 70
1, 176299, Note_on_c, 0, 86, 0
1, 176316, Note_on_c, 0, 90, 74
1, 176327, Note_on_c, 0, 88, 0
1, 176363, Note_on_c, 0, 90, 0
1, 176394, Note_on_c, 0, 71, 93
1, 176401, Note_on_c, 0, 59, 80
1, 176404, Note_on_c, 0, 91, 79
1, 176455, Note_on_c, 0, 91, 0
1, 176460, Note_on_c, 0, 93, 63
1, 176461, Note_on_c, 0, 71, 0
1, 176487, Note_on_c, 0, 93, 0
1, 176488, Note_on_c, 0, 59, 0
1, 176497, Note_on_c, 0, 95, 62
1, 176515, Note_on_c, 0, 95, 0
1, 176571, Note_on_c, 0, 96, 74
1, 176612, Note_on_c, 0, 69, 96
1, 176622, Note_on_c, 0, 57, 78
1, 176627, Note_on_c, 0, 98, 76
1, 176635, Note_on_c, 0, 96, 0
1, 176645, Note_on_c, 0, 69, 0
1, 176652, Note_on_c, 0, 100, 71
1, 176679, Note_on_c, 0, 102, 79
1, 176682, Note_on_c, 0, 57, 0
1, 176692, Note_on_c, 0, 98, 0
1, 176701, Note_on_c, 0, 100, 0
1, 176733, Note_on_c, 0, 103, 89
1, 176766, Note_on_c, 0, 103, 0
1, 176769, Note_on_c, 0, 102, 0
1, 177018, Note_on_c, 0, 59, 59
1, 177024, Note_on_c, 0, 55, 86
1, 177025, Note_on_c, 0, 67, 85
1, 177029, Note_on_c, 0, 38, 69
1, 177030, Note_on_c, 0, 43, 88
1, 177032, Note_on_c, 0, 31, 77
1, 177035, Control_c, 0, 64, 114
1, 177050, Control_c, 0, 64, 76
1, 177065, Control_c, 0, 64, 57
1, 177069, Note_on_c, 0, 64, 21
1, 177079, Control_c, 0, 64, 29
1, 177109, Control_c, 0, 64, 48
1, 177115, Note_on_c, 0, 64, 0
1, 177124, Control_c, 0, 64, 65
1, 177139, Control_c, 0, 64, 80
1, 177145, Note_on_c, 0, 31, 0
1, 177153, Control_c, 0, 64, 127
1, 177164, Note_on_c, 0, 55, 0
1, 177169, Note_on_c, 0, 43, 0
1, 177170, Note_on_c, 0, 38, 0
1, 177205, Note_on_c, 0, 59, 0
1, 177226, Note_on_c, 0, 67, 0
1, 177238, Note_on_c, 0, 55, 67
1, 177273, Note_on_c, 0, 55, 0
1, 177295, Note_on_c, 0, 59, 56
1, 177325, Note_on_c, 0, 50, 71
1, 177328, Note_on_c, 0, 59, 0
1, 177338, Note_on_c, 0, 62, 66
1, 177364, Note_on_c, 0, 62, 0
1, 177396, Note_on_c, 0, 55, 68
1, 177411, Note_on_c, 0, 50, 0
1, 177436, Note_on_c, 0, 67, 68
1, 177441, Note_on_c, 0, 59, 70
1, 177474, Note_on_c, 0, 55, 0
1, 177477, Note_on_c, 0, 67, 0
1, 177486, Note_on_c, 0, 71, 72
1, 177495, Note_on_c, 0, 59, 0
1, 177499, Note_on_c, 0, 62, 58
1, 177534, Note_on_c, 0, 71, 0
1, 177535, Note_on_c, 0, 62, 0
1, 177542, Note_on_c, 0, 74, 63
1, 177573, Note_on_c, 0, 74, 0
1, 177617, Note_on_c, 0, 67, 71
1, 177641, Note_on_c, 0, 79, 70
1, 177663, Note_on_c, 0, 71, 71
1, 177680, Note_on_c, 0, 79, 0
1, 177684, Note_on_c, 0, 67, 0
1, 177687, Note_on_c, 0, 83, 73
1, 177708, Note_on_c, 0, 71, 0
1, 177721, Note_on_c, 0, 74, 71
1, 177734, Note_on_c, 0, 86, 76
1, 177745, Note_on_c, 0, 83, 0
1, 177763, Note_on_c, 0, 74, 0
1, 177793, Note_on_c, 0, 86, 0
1, 177794, Note_on_c, 0, 91, 80
1, 177803, Note_on_c, 0, 79, 98
1, 177823, Note_on_c, 0, 79, 0
1, 177861, Note_on_c, 0, 91, 0
1, 177861, Note_on_c, 0, 86, 70
1, 177914, Note_on_c, 0, 83, 74
1, 177918, Note_on_c, 0, 86, 0
1, 177941, Note_on_c, 0, 83, 0
1, 177941, Note_on_c, 0, 79, 70
1, 177966, Note_on_c, 0, 79, 0
1, 178046, Note_on_c, 0, 74, 74
1, 178107, Note_on_c, 0, 71, 69
1, 178113, Note_on_c, 0, 74, 0
1, 178156, Note_on_c, 0, 71, 0
1, 178162, Note_on_c, 0, 67, 67
1, 178189, Note_on_c, 0, 67, 0
1, 178251, Note_on_c, 0, 62, 78
1, 178307, Note_on_c, 0, 59, 62
1, 178326, Note_on_c, 0, 62, 0
1, 178342, Note_on_c, 0, 31, 63
1, 178356, Note_on_c, 0, 55, 76
1, 178368, Note_on_c, 0, 59, 0
1, 178416, Note_on_c, 0, 55, 0
1, 178443, Control_c, 0, 64, 88
1, 178458, Control_c, 0, 64, 65
1, 178459, Note_on_c, 0, 31, 0
1, 178463, Note_on_c, 0, 53, 91
1, 178464, Note_on_c, 0, 43, 71
1, 178473, Control_c, 0, 64, 47
1, 178488, Control_c, 0, 64, 45
1, 178503, Control_c, 0, 64, 57
1, 178506, Note_on_c, 0, 43, 0
1, 178517, Control_c, 0, 64, 68
1, 178532, Control_c, 0, 64, 92
1, 178547, Control_c, 0, 64, 127
1, 178565, Note_on_c, 0, 53, 0
1, 178643, Note_on_c, 0, 50, 70
1, 178700, Note_on_c, 0, 53, 72
1, 178705, Note_on_c, 0, 50, 0
1, 178765, Note_on_c, 0, 59, 62
1, 178785, Note_on_c, 0, 53, 0
1, 178803, Note_on_c, 0, 59, 0
1, 178819, Note_on_c, 0, 62, 64
1, 178849, Note_on_c, 0, 62, 0
1, 178912, Note_on_c, 0, 65, 70
1, 178961, Note_on_c, 0, 71, 66
1, 178971, Note_on_c, 0, 65, 0
1, 179005, Note_on_c, 0, 71, 0
1, 179050, Note_on_c, 0, 88, 89
1, 179051, Note_on_c, 0, 83, 61
1, 179060, Note_on_c, 0, 77, 75
1, 179063, Note_on_c, 0, 76, 78
1, 179136, Note_on_c, 0, 71, 65
1, 179194, Note_on_c, 0, 71, 0
1, 179200, Note_on_c, 0, 65, 68
1, 179266, Note_on_c, 0, 65, 0
1, 179267, Note_on_c, 0, 62, 70
1, 179274, Note_on_c, 0, 76, 0
1, 179274, Note_on_c, 0, 77, 0
1, 179284, Note_on_c, 0, 88, 0
1, 179295, Note_on_c, 0, 62, 0
1, 179382, Note_on_c, 0, 59, 68
1, 179384, Note_on_c, 0, 86, 90
1, 179390, Note_on_c, 0, 74, 80
1, 179404, Note_on_c, 0, 83, 0
1, 179416, Note_on_c, 0, 76, 51
1, 179422, Note_on_c, 0, 59, 0
1, 179442, Note_on_c, 0, 76, 0
1, 179446, Note_on_c, 0, 53, 70
1, 179493, Note_on_c, 0, 53, 0
1, 179501, Note_on_c, 0, 50, 67
1, 179504, Note_on_c, 0, 86, 0
1, 179532, Note_on_c, 0, 50, 0
1, 179532, Note_on_c, 0, 74, 0
1, 179584, Note_on_c, 0, 43, 77
1, 179610, Note_on_c, 0, 43, 0
1, 179751, Note_on_c, 0, 83, 86
1, 179751, Note_on_c, 0, 79, 71
1, 179754, Note_on_c, 0, 71, 81
1, 179767, Note_on_c, 0, 62, 66
1, 179781, Note_on_c, 0, 55, 58
1, 179782, Note_on_c, 0, 52, 62
1, 179785, Control_c, 0, 64, 110
1, 179793, Note_on_c, 0, 62, 0
1, 179799, Control_c, 0, 64, 74
1, 179819, Note_on_c, 0, 55, 0
1, 179822, Control_c, 0, 64, 57
1, 179829, Note_on_c, 0, 52, 0
1, 179837, Control_c, 0, 64, 49
1, 179852, Control_c, 0, 64, 57
1, 179867, Control_c, 0, 64, 66
1, 179881, Control_c, 0, 64, 81
1, 179897, Control_c, 0, 64, 127
1, 179963, Note_on_c, 0, 31, 68
1, 180053, Note_on_c, 0, 71, 0
1, 180085, Note_on_c, 0, 31, 0
1, 180091, Note_on_c, 0, 79, 0
1, 180110, Note_on_c, 0, 83, 0
1, 180111, Note_on_c, 0, 43, 68
1, 180138, Note_on_c, 0, 43, 0
1, 180239, Note_on_c, 0, 86, 84
1, 180249, Note_on_c, 0, 74, 65
1, 180277, Note_on_c, 0, 59, 59
1, 180358, Note_on_c, 0, 74, 0
1, 180358, Note_on_c, 0, 86, 0
1, 180443, Note_on_c, 0, 59, 0
1, 180458, Note_on_c, 0, 84, 82
1, 180462, Note_on_c, 0, 72, 80
1, 180474, Note_on_c, 0, 60, 71
1, 180483, Note_on_c, 0, 55, 58
1, 180489, Control_c, 0, 64, 106
1, 180491, Note_on_c, 0, 52, 51
1, 180504, Control_c, 0, 64, 74
1, 180519, Control_c, 0, 64, 61
1, 180534, Control_c, 0, 64, 57
1, 180548, Control_c, 0, 64, 64
1, 180571, Control_c, 0, 64, 74
1, 180575, Note_on_c, 0, 72, 0
1, 180576, Note_on_c, 0, 60, 0
1, 180577, Note_on_c, 0, 79, 74
1, 180578, Note_on_c, 0, 84, 0
1, 180586, Control_c, 0, 64, 113
1, 180601, Control_c, 0, 64, 127
1, 180613, Note_on_c, 0, 55, 0
1, 180622, Note_on_c, 0, 52, 0
1, 180658, Note_on_c, 0, 76, 76
1, 180687, Note_on_c, 0, 79, 0
1, 180731, Note_on_c, 0, 72, 72
1, 180735, Note_on_c, 0, 76, 0
1, 180762, Note_on_c, 0, 72, 0
1, 180839, Note_on_c, 0, 67, 76
1, 180906, Note_on_c, 0, 64, 77
1, 180912, Note_on_c, 0, 67, 0
1, 180938, Note_on_c, 0, 31, 58
1, 180947, Note_on_c, 0, 64, 0
1, 181031, Control_c, 0, 64, 101
1, 181042, Note_on_c, 0, 31, 0
1, 181045, Control_c, 0, 64, 71
1, 181048, Note_on_c, 0, 63, 70
1, 181057, Note_on_c, 0, 60, 70
1, 181060, Control_c, 0, 64, 52
1, 181064, Note_on_c, 0, 57, 57
1, 181065, Note_on_c, 0, 43, 55
1, 181075, Control_c, 0, 64, 37
1, 181090, Control_c, 0, 64, 49
1, 181093, Note_on_c, 0, 43, 0
1, 181105, Control_c, 0, 64, 64
1, 181119, Control_c, 0, 64, 77
1, 181134, Control_c, 0, 64, 108
1, 181142, Note_on_c, 0, 57, 0
1, 181149, Control_c, 0, 64, 127
1, 181170, Note_on_c, 0, 60, 0
1, 181215, Note_on_c, 0, 51, 64
1, 181221, Note_on_c, 0, 63, 0
1, 181289, Note_on_c, 0, 54, 61
1, 181323, Note_on_c, 0, 51, 0
1, 181356, Note_on_c, 0, 54, 0
1, 181378, Note_on_c, 0, 60, 61
1, 181408, Note_on_c, 0, 60, 0
1, 181475, Note_on_c, 0, 63, 59
1, 181537, Note_on_c, 0, 63, 0
1, 181547, Note_on_c, 0, 66, 64
1, 181601, Note_on_c, 0, 66, 0
1, 181635, Note_on_c, 0, 83, 83
1, 181653, Note_on_c, 0, 72, 56
1, 181653, Note_on_c, 0, 78, 59
1, 181656, Note_on_c, 0, 71, 62
1, 181733, Note_on_c, 0, 66, 58
1, 181816, Note_on_c, 0, 66, 0
1, 181820, Note_on_c, 0, 71, 0
1, 181822, Note_on_c, 0, 63, 55
1, 181853, Note_on_c, 0, 72, 0
1, 181856, Note_on_c, 0, 63, 0
1, 181865, Note_on_c, 0, 83, 0
1, 181932, Note_on_c, 0, 60, 63
1, 181936, Note_on_c, 0, 81, 84
1, 181954, Note_on_c, 0, 69, 65
1, 181966, Note_on_c, 0, 60, 0
1, 181978, Note_on_c, 0, 78, 0
1, 182026, Note_on_c, 0, 81, 0
1, 182031, Note_on_c, 0, 54, 62
1, 182088, Note_on_c, 0, 69, 0
1, 182115, Note_on_c, 0, 54, 0
1, 182130, Note_on_c, 0, 51, 54
1, 182306, Note_on_c, 0, 74, 63
1, 182309, Note_on_c, 0, 57, 51
1, 182310, Note_on_c, 0, 78, 75
1, 182312, Note_on_c, 0, 69, 55
1, 182319, Note_on_c, 0, 66, 56
1, 182321, Note_on_c, 0, 50, 62
1, 182321, Control_c, 0, 64, 76
1, 182331, Note_on_c, 0, 57, 0
1, 182336, Control_c, 0, 64, 61
1, 182351, Note_on_c, 0, 51, 0
1, 182351, Control_c, 0, 64, 54
1, 182357, Note_on_c, 0, 50, 0
1, 182365, Control_c, 0, 64, 58
1, 182380, Control_c, 0, 64, 65
1, 182395, Control_c, 0, 64, 74
1, 182410, Control_c, 0, 64, 95
1, 182425, Control_c, 0, 64, 127
1, 182494, Note_on_c, 0, 31, 63
1, 182511, Note_on_c, 0, 66, 0
1, 182512, Note_on_c, 0, 69, 0
1, 182537, Note_on_c, 0, 74, 0
1, 182586, Note_on_c, 0, 31, 0
1, 182590, Note_on_c, 0, 78, 0
1, 182645, Note_on_c, 0, 43, 58
1, 182675, Note_on_c, 0, 43, 0
1, 182781, Note_on_c, 0, 81, 72
1, 182788, Note_on_c, 0, 69, 59
1, 182795, Note_on_c, 0, 54, 52
1, 182875, Note_on_c, 0, 69, 0
1, 182878, Note_on_c, 0, 81, 0
1, 182976, Note_on_c, 0, 54, 0
1, 182990, Note_on_c, 0, 79, 71
1, 182994, Note_on_c, 0, 67, 65
1, 183011, Note_on_c, 0, 59, 54
1, 183019, Note_on_c, 0, 55, 53
1, 183024, Note_on_c, 0, 50, 44
1, 183024, Control_c, 0, 64, 91
1, 183039, Control_c, 0, 64, 67
1, 183054, Control_c, 0, 64, 51
1, 183069, Control_c, 0, 64, 46
1, 183085, Control_c, 0, 64, 56
1, 183090, Note_on_c, 0, 67, 0
1, 183094, Note_on_c, 0, 79, 0
1, 183100, Control_c, 0, 64, 68
1, 183103, Note_on_c, 0, 74, 62
1, 183114, Control_c, 0, 64, 85
1, 183129, Control_c, 0, 64, 127
1, 183146, Note_on_c, 0, 59, 0
1, 183176, Note_on_c, 0, 55, 0
1, 183191, Note_on_c, 0, 71, 67
1, 183200, Note_on_c, 0, 74, 0
1, 183203, Note_on_c, 0, 50, 0
1, 183253, Note_on_c, 0, 71, 0
1, 183271, Note_on_c, 0, 67, 64
1, 183306, Note_on_c, 0, 67, 0
1, 183370, Note_on_c, 0, 62, 65
1, 183439, Note_on_c, 0, 62, 0
1, 183451, Note_on_c, 0, 59, 63
1, 183468, Note_on_c, 0, 31, 56
1, 183519, Note_on_c, 0, 59, 0
1, 183578, Note_on_c, 0, 53, 62
1, 183591, Note_on_c, 0, 43, 57
1, 183654, Note_on_c, 0, 59, 63
1, 183662, Note_on_c, 0, 53, 0
1, 183739, Note_on_c, 0, 59, 0
1, 183743, Note_on_c, 0, 31, 0
1, 183745, Note_on_c, 0, 62, 66
1, 183775, Note_on_c, 0, 62, 0
1, 183800, Note_on_c, 0, 43, 0
1, 183872, Note_on_c, 0, 65, 67
1, 183932, Note_on_c, 0, 65, 0
1, 183951, Note_on_c, 0, 71, 62
1, 184023, Note_on_c, 0, 71, 0
1, 184023, Note_on_c, 0, 74, 62
1, 184080, Note_on_c, 0, 74, 0
1, 184138, Note_on_c, 0, 76, 81
1, 184157, Note_on_c, 0, 64, 52
1, 184157, Note_on_c, 0, 65, 45
1, 184247, Note_on_c, 0, 59, 57
1, 184313, Note_on_c, 0, 59, 0
1, 184320, Note_on_c, 0, 64, 0
1, 184321, Note_on_c, 0, 65, 0
1, 184333, Note_on_c, 0, 76, 0
1, 184344, Note_on_c, 0, 50, 55
1, 184446, Note_on_c, 0, 74, 75
1, 184454, Note_on_c, 0, 62, 66
1, 184517, Note_on_c, 0, 50, 0
1, 184571, Note_on_c, 0, 43, 48
1, 184580, Note_on_c, 0, 62, 0
1, 184756, Note_on_c, 0, 55, 49
1, 184761, Control_c, 0, 64, 116
1, 184766, Note_on_c, 0, 71, 69
1, 184767, Note_on_c, 0, 52, 47
1, 184776, Control_c, 0, 64, 75
1, 184777, Note_on_c, 0, 67, 56
1, 184778, Note_on_c, 0, 62, 49
1, 184783, Note_on_c, 0, 55, 0
1, 184791, Control_c, 0, 64, 60
1, 184793, Note_on_c, 0, 74, 0
1, 184805, Control_c, 0, 64, 54
1, 184808, Note_on_c, 0, 52, 0
1, 184819, Control_c, 0, 64, 61
1, 184834, Control_c, 0, 64, 69
1, 184838, Note_on_c, 0, 43, 0
1, 184849, Control_c, 0, 64, 85
1, 184864, Control_c, 0, 64, 127
1, 184965, Note_on_c, 0, 31, 41
1, 185095, Note_on_c, 0, 31, 0
1, 185119, Note_on_c, 0, 43, 52
1, 185150, Note_on_c, 0, 43, 0
1, 185248, Note_on_c, 0, 62, 0
1, 185260, Note_on_c, 0, 74, 55
1, 185267, Note_on_c, 0, 59, 58
1, 185358, Note_on_c, 0, 74, 0
1, 185358, Note_on_c, 0, 71, 0
1, 185437, Note_on_c, 0, 59, 0
1, 185478, Note_on_c, 0, 60, 52
1, 185482, Note_on_c, 0, 67, 0
1, 185484, Note_on_c, 0, 72, 64
1, 185494, Control_c, 0, 64, 122
1, 185499, Note_on_c, 0, 55, 40
1, 185506, Note_on_c, 0, 52, 40
1, 185509, Control_c, 0, 64, 78
1, 185524, Control_c, 0, 64, 60
1, 185539, Control_c, 0, 64, 43
1, 185553, Control_c, 0, 64, 44
1, 185568, Control_c, 0, 64, 59
1, 185579, Note_on_c, 0, 72, 0
1, 185583, Control_c, 0, 64, 71
1, 185598, Control_c, 0, 64, 90
1, 185600, Note_on_c, 0, 67, 65
1, 185613, Control_c, 0, 64, 127
1, 185621, Note_on_c, 0, 60, 0
1, 185670, Note_on_c, 0, 55, 0
1, 185675, Note_on_c, 0, 52, 0
1, 185685, Note_on_c, 0, 67, 0
1, 185686, Note_on_c, 0, 64, 62
1, 185732, Note_on_c, 0, 64, 0
1, 185753, Note_on_c, 0, 60, 63
1, 185793, Note_on_c, 0, 60, 0
1, 185867, Note_on_c, 0, 55, 64
1, 185927, Note_on_c, 0, 55, 0
1, 185934, Note_on_c, 0, 52, 64
1, 185960, Note_on_c, 0, 31, 51
1, 185963, Note_on_c, 0, 52, 0
1, 186065, Control_c, 0, 64, 92
1, 186080, Note_on_c, 0, 31, 0
1, 186080, Control_c, 0, 64, 66
1, 186082, Note_on_c, 0, 51, 56
1, 186083, Note_on_c, 0, 54, 58
1, 186094, Control_c, 0, 64, 52
1, 186098, Note_on_c, 0, 43, 52
1, 186109, Control_c, 0, 64, 50
1, 186124, Control_c, 0, 64, 59
1, 186139, Control_c, 0, 64, 68
1, 186143, Note_on_c, 0, 43, 0
1, 186154, Control_c, 0, 64, 81
1, 186168, Control_c, 0, 64, 112
1, 186183, Control_c, 0, 64, 127
1, 186187, Note_on_c, 0, 51, 0
1, 186217, Note_on_c, 0, 54, 0
1, 186279, Note_on_c, 0, 51, 53
1, 186363, Note_on_c, 0, 54, 62
1, 186377, Note_on_c, 0, 51, 0
1, 186426, Note_on_c, 0, 54, 0
1, 186453, Note_on_c, 0, 57, 55
1, 186487, Note_on_c, 0, 57, 0
1, 186548, Note_on_c, 0, 60, 65
1, 186653, Note_on_c, 0, 60, 0
1, 186691, Note_on_c, 0, 71, 68
1, 186719, Note_on_c, 0, 66, 49
1, 186842, Note_on_c, 0, 60, 54
1, 186917, Note_on_c, 0, 60, 0
1, 186980, Note_on_c, 0, 69, 71
1, 186984, Note_on_c, 0, 57, 48
1, 187028, Note_on_c, 0, 66, 0
1, 187047, Note_on_c, 0, 57, 0
1, 187050, Note_on_c, 0, 71, 0
1, 187082, Note_on_c, 0, 54, 54
1, 187201, Note_on_c, 0, 54, 0
1, 187222, Note_on_c, 0, 51, 46
1, 187370, Control_c, 0, 64, 82
1, 187380, Note_on_c, 0, 57, 55
1, 187382, Note_on_c, 0, 66, 58
1, 187385, Control_c, 0, 64, 63
1, 187388, Note_on_c, 0, 62, 48
1, 187392, Note_on_c, 0, 59, 42
1, 187400, Control_c, 0, 64, 49
1, 187402, Note_on_c, 0, 50, 49
1, 187404, Note_on_c, 0, 57, 0
1, 187415, Control_c, 0, 64, 50
1, 187430, Control_c, 0, 64, 61
1, 187438, Note_on_c, 0, 50, 0
1, 187445, Control_c, 0, 64, 70
1, 187459, Control_c, 0, 64, 85
1, 187467, Note_on_c, 0, 51, 0
1, 187474, Control_c, 0, 64, 127
1, 187478, Note_on_c, 0, 69, 0
1, 187593, Note_on_c, 0, 31, 57
1, 187677, Note_on_c, 0, 31, 0
1, 187736, Note_on_c, 0, 43, 60
1, 187766, Note_on_c, 0, 43, 0
1, 187850, Note_on_c, 0, 59, 0
1, 187885, Note_on_c, 0, 69, 63
1, 187895, Note_on_c, 0, 54, 48
1, 187923, Note_on_c, 0, 66, 0
1, 187958, Note_on_c, 0, 69, 0
1, 188058, Note_on_c, 0, 54, 0
1, 188101, Note_on_c, 0, 62, 0
1, 188105, Note_on_c, 0, 59, 48
1, 188109, Note_on_c, 0, 67, 65
1, 188117, Note_on_c, 0, 55, 45
1, 188119, Control_c, 0, 64, 100
1, 188122, Note_on_c, 0, 50, 41
1, 188134, Control_c, 0, 64, 72
1, 188149, Control_c, 0, 64, 54
1, 188163, Control_c, 0, 64, 33
1, 188178, Control_c, 0, 64, 35
1, 188185, Note_on_c, 0, 67, 0
1, 188193, Control_c, 0, 64, 52
1, 188208, Control_c, 0, 64, 66
1, 188214, Note_on_c, 0, 59, 0
1, 188223, Control_c, 0, 64, 84
1, 188223, Note_on_c, 0, 62, 57
1, 188238, Control_c, 0, 64, 127
1, 188252, Note_on_c, 0, 55, 0
1, 188284, Note_on_c, 0, 50, 0
1, 188292, Note_on_c, 0, 62, 0
1, 188306, Note_on_c, 0, 59, 60
1, 188338, Note_on_c, 0, 59, 0
1, 188372, Note_on_c, 0, 55, 67
1, 188403, Note_on_c, 0, 55, 0
1, 188481, Note_on_c, 0, 50, 60
1, 188535, Note_on_c, 0, 50, 0
1, 188557, Note_on_c, 0, 47, 53
1, 188584, Note_on_c, 0, 47, 0
1, 188587, Note_on_c, 0, 31, 58
1, 188629, Note_on_c, 0, 31, 0
1, 188670, Note_on_c, 0, 43, 58
1, 188698, Note_on_c, 0, 43, 0
1, 188813, Note_on_c, 0, 51, 57
1, 188896, Note_on_c, 0, 54, 58
1, 188907, Note_on_c, 0, 51, 0
1, 188962, Note_on_c, 0, 54, 0
1, 189000, Note_on_c, 0, 60, 53
1, 189034, Note_on_c, 0, 60, 0
1, 189094, Note_on_c, 0, 63, 57
1, 189173, Note_on_c, 0, 63, 0
1, 189185, Note_on_c, 0, 66, 61
1, 189286, Note_on_c, 0, 66, 0
1, 189306, Note_on_c, 0, 83, 77
1, 189326, Note_on_c, 0, 75, 47
1, 189332, Note_on_c, 0, 71, 49
1, 189332, Note_on_c, 0, 72, 53
1, 189430, Note_on_c, 0, 66, 35
1, 189517, Note_on_c, 0, 66, 0
1, 189517, Note_on_c, 0, 63, 49
1, 189558, Note_on_c, 0, 72, 0
1, 189561, Note_on_c, 0, 71, 0
1, 189561, Note_on_c, 0, 83, 0
1, 189568, Note_on_c, 0, 63, 0
1, 189648, Note_on_c, 0, 75, 0
1, 189651, Note_on_c, 0, 60, 50
1, 189662, Note_on_c, 0, 81, 80
1, 189687, Note_on_c, 0, 60, 0
1, 189687, Note_on_c, 0, 69, 51
1, 189743, Note_on_c, 0, 69, 0
1, 189767, Note_on_c, 0, 69, 24
1, 189772, Note_on_c, 0, 54, 53
1, 189786, Note_on_c, 0, 81, 0
1, 189814, Note_on_c, 0, 69, 0
1, 189858, Note_on_c, 0, 54, 0
1, 189879, Note_on_c, 0, 51, 46
1, 190066, Note_on_c, 0, 51, 0
1, 190083, Note_on_c, 0, 78, 68
1, 190101, Note_on_c, 0, 66, 40
1, 190105, Note_on_c, 0, 74, 50
1, 190106, Note_on_c, 0, 57, 47
1, 190111, Note_on_c, 0, 69, 35
1, 190113, Note_on_c, 0, 50, 49
1, 190120, Control_c, 0, 64, 114
1, 190134, Control_c, 0, 64, 75
1, 190149, Control_c, 0, 64, 51
1, 190151, Note_on_c, 0, 57, 0
1, 190164, Control_c, 0, 64, 26
1, 190178, Control_c, 0, 64, 29
1, 190191, Note_on_c, 0, 50, 0
1, 190193, Control_c, 0, 64, 48
1, 190208, Control_c, 0, 64, 63
1, 190223, Control_c, 0, 64, 76
1, 190238, Control_c, 0, 64, 107
1, 190253, Control_c, 0, 64, 127
1, 190342, Note_on_c, 0, 31, 53
1, 190360, Note_on_c, 0, 74, 0
1, 190360, Note_on_c, 0, 69, 0
1, 190360, Note_on_c, 0, 66, 0
1, 190434, Note_on_c, 0, 78, 0
1, 190442, Note_on_c, 0, 31, 0
1, 190509, Note_on_c, 0, 43, 52
1, 190542, Note_on_c, 0, 43, 0
1, 190672, Note_on_c, 0, 81, 66
1, 190684, Note_on_c, 0, 54, 44
1, 190693, Note_on_c, 0, 69, 39
1, 190748, Note_on_c, 0, 69, 0
1, 190764, Note_on_c, 0, 81, 0
1, 190863, Note_on_c, 0, 54, 0
1, 190891, Note_on_c, 0, 79, 63
1, 190903, Note_on_c, 0, 67, 49
1, 190915, Note_on_c, 0, 55, 38
1, 190916, Note_on_c, 0, 50, 34
1, 190919, Note_on_c, 0, 59, 41
1, 190927, Control_c, 0, 64, 105
1, 190942, Control_c, 0, 64, 77
1, 190956, Control_c, 0, 64, 61
1, 190971, Control_c, 0, 64, 42
1, 190986, Control_c, 0, 64, 42
1, 191001, Control_c, 0, 64, 54
1, 191012, Note_on_c, 0, 79, 0
1, 191016, Control_c, 0, 64, 65
1, 191027, Note_on_c, 0, 67, 0
1, 191031, Control_c, 0, 64, 75
1, 191037, Note_on_c, 0, 74, 57
1, 191053, Control_c, 0, 64, 93
1, 191068, Control_c, 0, 64, 127
1, 191158, Note_on_c, 0, 74, 0
1, 191160, Note_on_c, 0, 59, 0
1, 191166, Note_on_c, 0, 50, 0
1, 191173, Note_on_c, 0, 71, 57
1, 191175, Note_on_c, 0, 55, 0
1, 191244, Note_on_c, 0, 71, 0
1, 191269, Note_on_c, 0, 67, 57
1, 191316, Note_on_c, 0, 67, 0
1, 191394, Note_on_c, 0, 62, 58
1, 191465, Note_on_c, 0, 62, 0
1, 191496, Note_on_c, 0, 59, 54
1, 191658, Note_on_c, 0, 59, 0
1, 191687, Note_on_c, 0, 63, 47
1, 191690, Note_on_c, 0, 43, 40
1, 191691, Control_c, 0, 64, 93
1, 191697, Note_on_c, 0, 60, 47
1, 191705, Control_c, 0, 64, 69
1, 191720, Control_c, 0, 64, 50
1, 191735, Control_c, 0, 64, 0
1, 191764, Control_c, 0, 64, 38
1, 191779, Control_c, 0, 64, 61
1, 191800, Note_on_c, 0, 43, 0
1, 191802, Control_c, 0, 64, 72
1, 191817, Control_c, 0, 64, 85
1, 191831, Control_c, 0, 64, 127
1, 191842, Note_on_c, 0, 51, 52
1, 191852, Note_on_c, 0, 60, 0
1, 191906, Note_on_c, 0, 63, 0
1, 191959, Note_on_c, 0, 51, 0
1, 191966, Note_on_c, 0, 54, 52
1, 192055, Note_on_c, 0, 54, 0
1, 192086, Note_on_c, 0, 60, 53
1, 192144, Note_on_c, 0, 60, 0
1, 192224, Note_on_c, 0, 63, 43
1, 192344, Note_on_c, 0, 63, 0
1, 192374, Note_on_c, 0, 66, 40
1, 192474, Note_on_c, 0, 66, 0
1, 192510, Poly_aftertouch_c, 0, 66, 127
1, 192622, Poly_aftertouch_c, 0, 66, 0
1, 192630, Note_on_c, 0, 95, 69
1, 192641, Note_on_c, 0, 83, 52
1, 192644, Note_on_c, 0, 72, 43
1, 192651, Note_on_c, 0, 87, 49
1, 192656, Note_on_c, 0, 90, 46
1, 192902, Note_on_c, 0, 72, 0
1, 192920, Note_on_c, 0, 75, 46
1, 192964, Note_on_c, 0, 83, 0
1, 192996, Note_on_c, 0, 95, 0
1, 193207, Note_on_c, 0, 90, 0
1, 193210, Note_on_c, 0, 87, 0
1, 193212, Note_on_c, 0, 93, 62
1, 193237, Note_on_c, 0, 81, 38
1, 193389, Control_c, 0, 67, 8
1, 193404, Control_c, 0, 67, 9
1, 193419, Control_c, 0, 67, 10
1, 193434, Control_c, 0, 67, 11
1, 193448, Control_c, 0, 67, 11
1, 193463, Control_c, 0, 67, 12
1, 193494, Control_c, 0, 67, 12
1, 193508, Control_c, 0, 67, 13
1, 193523, Control_c, 0, 67, 13
1, 193538, Control_c, 0, 67, 14
1, 193553, Control_c, 0, 67, 15
1, 193568, Control_c, 0, 67, 16
1, 193583, Control_c, 0, 67, 19
1, 193598, Control_c, 0, 67, 21
1, 193612, Control_c, 0, 67, 23
1, 193625, Note_on_c, 0, 78, 45
1, 193627, Control_c, 0, 67, 27
1, 193642, Control_c, 0, 67, 33
1, 193657, Control_c, 0, 67, 39
1, 193672, Control_c, 0, 67, 47
1, 193684, Note_on_c, 0, 75, 0
1, 193687, Control_c, 0, 67, 54
1, 193695, Note_on_c, 0, 93, 0
1, 193700, Note_on_c, 0, 81, 0
1, 193701, Control_c, 0, 67, 60
1, 193716, Control_c, 0, 67, 66
1, 193731, Control_c, 0, 67, 72
1, 193745, Control_c, 0, 67, 79
1, 193759, Note_on_c, 0, 78, 0
1, 193760, Control_c, 0, 67, 86
1, 193775, Control_c, 0, 67, 95
1, 193790, Control_c, 0, 67, 102
1, 193805, Control_c, 0, 67, 107
1, 193819, Control_c, 0, 67, 110
1, 193834, Control_c, 0, 67, 113
1, 193849, Control_c, 0, 67, 115
1, 193864, Control_c, 0, 67, 117
1, 193879, Control_c, 0, 67, 119
1, 193893, Control_c, 0, 67, 119
1, 194167, Control_c, 0, 67, 119
1, 194212, Control_c, 0, 67, 118
1, 194227, Control_c, 0, 67, 118
1, 194256, Control_c, 0, 67, 117
1, 194383, Note_on_c, 0, 90, 56
1, 194390, Note_on_c, 0, 78, 49
1, 194390, Control_c, 0, 67, 118
1, 194399, Note_on_c, 0, 83, 51
1, 194400, Note_on_c, 0, 86, 51
1, 194405, Note_on_c, 0, 50, 39
1, 194410, Note_on_c, 0, 62, 33
1, 194412, Note_on_c, 0, 59, 37
1, 194420, Control_c, 0, 67, 119
1, 194435, Control_c, 0, 67, 120
1, 194450, Control_c, 0, 64, 102
1, 194450, Control_c, 0, 67, 121
1, 194465, Control_c, 0, 64, 78
1, 194465, Control_c, 0, 67, 123
1, 194480, Control_c, 0, 64, 63
1, 194480, Control_c, 0, 67, 127
1, 194495, Control_c, 0, 64, 43
1, 194510, Control_c, 0, 64, 0
1, 194539, Control_c, 0, 64, 44
1, 194554, Control_c, 0, 64, 64
1, 194568, Control_c, 0, 64, 78
1, 194574, Note_on_c, 0, 62, 0
1, 194583, Control_c, 0, 64, 109
1, 194596, Note_on_c, 0, 59, 0
1, 194598, Control_c, 0, 64, 127
1, 194632, Note_on_c, 0, 50, 0
1, 194730, Note_on_c, 0, 78, 0
1, 194761, Note_on_c, 0, 90, 0
1, 194798, Control_c, 0, 67, 127
1, 194814, Note_on_c, 0, 31, 50
1, 194865, Note_on_c, 0, 86, 0
1, 194888, Note_on_c, 0, 83, 0
1, 194901, Control_c, 0, 67, 126
1, 194915, Note_on_c, 0, 93, 68
1, 194922, Note_on_c, 0, 81, 54
1, 194983, Note_on_c, 0, 31, 0
1, 195037, Note_on_c, 0, 43, 51
1, 195076, Note_on_c, 0, 43, 0
1, 195169, Control_c, 0, 67, 126
1, 195179, Note_on_c, 0, 93, 0
1, 195198, Note_on_c, 0, 81, 0
1, 195207, Note_on_c, 0, 86, 45
1, 195218, Note_on_c, 0, 83, 49
1, 195246, Note_on_c, 0, 55, 44
1, 195298, Note_on_c, 0, 55, 0
1, 195376, Note_on_c, 0, 50, 46
1, 195421, Note_on_c, 0, 86, 0
1, 195454, Note_on_c, 0, 91, 70
1, 195457, Note_on_c, 0, 83, 0
1, 195461, Note_on_c, 0, 79, 63
1, 195522, Note_on_c, 0, 91, 0
1, 195547, Note_on_c, 0, 50, 0
1, 195552, Note_on_c, 0, 79, 0
1, 195558, Note_on_c, 0, 43, 48
1, 195598, Note_on_c, 0, 43, 0
1, 195766, Note_on_c, 0, 83, 51
1, 195773, Note_on_c, 0, 59, 49
1, 195785, Note_on_c, 0, 79, 41
1, 195786, Note_on_c, 0, 85, 60
1, 195787, Note_on_c, 0, 73, 43
1, 195797, Control_c, 0, 67, 126
1, 195900, Note_on_c, 0, 59, 0
1, 195910, Note_on_c, 0, 73, 0
1, 195952, Note_on_c, 0, 50, 44
1, 195965, Note_on_c, 0, 85, 0
1, 195967, Note_on_c, 0, 83, 0
1, 196071, Note_on_c, 0, 88, 75
1, 196080, Note_on_c, 0, 76, 58
1, 196080, Control_c, 0, 67, 126
1, 196113, Note_on_c, 0, 50, 0
1, 196114, Note_on_c, 0, 79, 0
1, 196147, Note_on_c, 0, 76, 0
1, 196147, Note_on_c, 0, 76, 7
1, 196174, Note_on_c, 0, 43, 49
1, 196215, Note_on_c, 0, 43, 0
1, 196360, Note_on_c, 0, 79, 47
1, 196361, Note_on_c, 0, 76, 0
1, 196369, Note_on_c, 0, 83, 43
1, 196373, Note_on_c, 0, 62, 54
1, 196394, Note_on_c, 0, 88, 0
1, 196409, Note_on_c, 0, 62, 0
1, 196520, Note_on_c, 0, 50, 47
1, 196609, Note_on_c, 0, 86, 63
1, 196614, Note_on_c, 0, 79, 0
1, 196617, Note_on_c, 0, 74, 48
1, 196620, Control_c, 0, 67, 125
1, 196628, Note_on_c, 0, 50, 0
1, 196634, Note_on_c, 0, 83, 0
1, 196663, Note_on_c, 0, 74, 0
1, 196692, Note_on_c, 0, 43, 42
1, 196698, Note_on_c, 0, 86, 0
1, 196700, Poly_aftertouch_c, 0, 74, 127
1, 196730, Note_on_c, 0, 43, 0
1, 196739, Poly_aftertouch_c, 0, 74, 0
1, 196903, Control_c, 0, 67, 125
1, 196963, Control_c, 0, 67, 125
1, 196964, Note_on_c, 0, 82, 57
1, 196973, Note_on_c, 0, 70, 48
1, 196975, Note_on_c, 0, 79, 43
1, 196978, Control_c, 0, 67, 126
1, 196981, Note_on_c, 0, 50, 30
1, 196987, Note_on_c, 0, 62, 34
1, 196993, Control_c, 0, 67, 127
1, 197008, Control_c, 0, 64, 114
1, 197023, Control_c, 0, 64, 80
1, 197044, Control_c, 0, 64, 64
1, 197059, Control_c, 0, 64, 48
1, 197074, Control_c, 0, 64, 37
1, 197088, Control_c, 0, 64, 44
1, 197103, Control_c, 0, 64, 56
1, 197118, Control_c, 0, 64, 66
1, 197133, Control_c, 0, 64, 77
1, 197148, Control_c, 0, 64, 102
1, 197163, Control_c, 0, 64, 127
1, 197175, Note_on_c, 0, 70, 0
1, 197254, Note_on_c, 0, 62, 0
1, 197332, Note_on_c, 0, 50, 0
1, 197373, Note_on_c, 0, 79, 0
1, 197373, Note_on_c, 0, 84, 63
1, 197389, Note_on_c, 0, 72, 41
1, 197413, Note_on_c, 0, 82, 0
1, 197442, Note_on_c, 0, 72, 0
1, 197442, Note_on_c, 0, 72, 12
1, 197501, Note_on_c, 0, 84, 0
1, 197619, Note_on_c, 0, 72, 0
1, 197634, Note_on_c, 0, 79, 50
1, 197637, Note_on_c, 0, 74, 40
1, 197648, Note_on_c, 0, 43, 37
1, 197771, Control_c, 0, 67, 127
1, 197836, Note_on_c, 0, 79, 0
1, 197838, Note_on_c, 0, 43, 0
1, 197845, Note_on_c, 0, 74, 0
1, 197845, Note_on_c, 0, 83, 61
1, 197864, Note_on_c, 0, 71, 42
1, 197896, Note_on_c, 0, 83, 0
1, 197915, Note_on_c, 0, 71, 0
1, 198114, Note_on_c, 0, 74, 34
1, 198114, Note_on_c, 0, 78, 58
1, 198137, Note_on_c, 0, 66, 33
1, 198140, Note_on_c, 0, 59, 32
1, 198142, Note_on_c, 0, 50, 24
1, 198149, Control_c, 0, 67, 127
1, 198164, Control_c, 0, 64, 107
1, 198179, Control_c, 0, 64, 79
1, 198193, Control_c, 0, 64, 63
1, 198208, Control_c, 0, 64, 48
1, 198223, Control_c, 0, 64, 49
1, 198237, Control_c, 0, 64, 59
1, 198250, Note_on_c, 0, 66, 0
1, 198252, Control_c, 0, 64, 69
1, 198268, Control_c, 0, 64, 84
1, 198283, Control_c, 0, 64, 127
1, 198359, Note_on_c, 0, 59, 0
1, 198403, Note_on_c, 0, 50, 0
1, 198430, Note_on_c, 0, 81, 56
1, 198431, Control_c, 0, 67, 127
1, 198447, Note_on_c, 0, 74, 0
1, 198449, Note_on_c, 0, 69, 22
1, 198480, Note_on_c, 0, 78, 0
1, 198623, Note_on_c, 0, 81, 0
1, 198684, Note_on_c, 0, 69, 0
1, 198718, Note_on_c, 0, 74, 39
1, 198719, Note_on_c, 0, 71, 42
1, 198725, Note_on_c, 0, 43, 37
1, 198859, Note_on_c, 0, 43, 0
1, 198883, Control_c, 0, 67, 126
1, 198917, Note_on_c, 0, 71, 0
1, 198934, Note_on_c, 0, 74, 0
1, 198943, Note_on_c, 0, 79, 52
1, 198959, Note_on_c, 0, 67, 41
1, 199073, Note_on_c, 0, 79, 0
1, 199095, Note_on_c, 0, 67, 0
1, 199194, Control_c, 0, 67, 127
1, 199224, Control_c, 0, 67, 127
1, 199255, Note_on_c, 0, 61, 44
1, 199263, Note_on_c, 0, 59, 36
1, 199268, Note_on_c, 0, 55, 37
1, 199268, Control_c, 0, 64, 104
1, 199290, Control_c, 0, 64, 81
1, 199305, Control_c, 0, 64, 67
1, 199320, Control_c, 0, 64, 54
1, 199335, Control_c, 0, 64, 34
1, 199350, Control_c, 0, 64, 29
1, 199364, Control_c, 0, 64, 40
1, 199379, Control_c, 0, 64, 54
1, 199394, Control_c, 0, 64, 65
1, 199409, Control_c, 0, 64, 72
1, 199423, Control_c, 0, 64, 85
1, 199438, Control_c, 0, 64, 102
1, 199453, Control_c, 0, 64, 127
1, 199545, Note_on_c, 0, 61, 0
1, 199556, Note_on_c, 0, 59, 0
1, 199586, Note_on_c, 0, 55, 0
1, 199607, Note_on_c, 0, 64, 59
1, 199870, Note_on_c, 0, 71, 51
1, 199872, Note_on_c, 0, 43, 40
1, 199888, Note_on_c, 0, 67, 28
1, 199934, Note_on_c, 0, 64, 0
1, 199998, Note_on_c, 0, 43, 0
1, 200054, Control_c, 0, 67, 127
1, 200098, Note_on_c, 0, 62, 50
1, 200113, Note_on_c, 0, 71, 0
1, 200115, Note_on_c, 0, 67, 0
1, 200246, Note_on_c, 0, 62, 0
1, 200321, Control_c, 0, 67, 127
1, 200338, Note_on_c, 0, 58, 40
1, 200356, Note_on_c, 0, 50, 33
1, 200360, Note_on_c, 0, 55, 39
1, 200365, Control_c, 0, 64, 111
1, 200380, Control_c, 0, 64, 82
1, 200395, Control_c, 0, 64, 65
1, 200410, Control_c, 0, 64, 49
1, 200425, Control_c, 0, 64, 31
1, 200439, Control_c, 0, 64, 38
1, 200454, Control_c, 0, 64, 55
1, 200469, Control_c, 0, 64, 66
1, 200484, Control_c, 0, 64, 76
1, 200499, Control_c, 0, 64, 92
1, 200513, Control_c, 0, 64, 127
1, 200540, Note_on_c, 0, 58, 0
1, 200553, Note_on_c, 0, 55, 0
1, 200590, Note_on_c, 0, 50, 0
1, 200601, Note_on_c, 0, 60, 58
1, 200857, Note_on_c, 0, 43, 39
1, 200862, Note_on_c, 0, 62, 36
1, 200865, Note_on_c, 0, 67, 39
1, 200905, Note_on_c, 0, 60, 0
1, 201013, Note_on_c, 0, 43, 0
1, 201052, Note_on_c, 0, 62, 0
1, 201064, Note_on_c, 0, 59, 50
1, 201159, Note_on_c, 0, 67, 0
1, 201254, Note_on_c, 0, 59, 0
1, 201333, Note_on_c, 0, 54, 37
1, 201342, Note_on_c, 0, 50, 37
1, 201351, Note_on_c, 0, 47, 35
1, 201381, Control_c, 0, 64, 103
1, 201396, Control_c, 0, 64, 80
1, 201410, Control_c, 0, 64, 65
1, 201425, Control_c, 0, 64, 51
1, 201440, Control_c, 0, 64, 29
1, 201456, Control_c, 0, 64, 21
1, 201471, Control_c, 0, 64, 38
1, 201485, Control_c, 0, 64, 54
1, 201500, Control_c, 0, 64, 65
1, 201515, Control_c, 0, 64, 73
1, 201538, Control_c, 0, 64, 85
1, 201553, Control_c, 0, 64, 102
1, 201567, Control_c, 0, 64, 127
1, 201618, Note_on_c, 0, 50, 0
1, 201624, Note_on_c, 0, 47, 0
1, 201631, Note_on_c, 0, 57, 55
1, 201635, Note_on_c, 0, 54, 0
1, 201898, Note_on_c, 0, 62, 41
1, 201902, Note_on_c, 0, 43, 37
1, 201905, Note_on_c, 0, 59, 34
1, 201923, Note_on_c, 0, 57, 0
1, 202120, Note_on_c, 0, 43, 0
1, 202122, Note_on_c, 0, 59, 0
1, 202135, Note_on_c, 0, 55, 44
1, 202160, Note_on_c, 0, 62, 0
1, 202344, Note_on_c, 0, 55, 0
1, 202464, Note_on_c, 0, 49, 51
1, 202468, Note_on_c, 0, 47, 44
1, 202494, Control_c, 0, 64, 90
1, 202508, Control_c, 0, 64, 72
1, 202523, Control_c, 0, 64, 59
1, 202538, Control_c, 0, 64, 41
1, 202552, Control_c, 0, 64, 19
1, 202567, Control_c, 0, 64, 0
1, 202597, Control_c, 0, 64, 30
1, 202612, Control_c, 0, 64, 47
1, 202627, Control_c, 0, 64, 60
1, 202642, Control_c, 0, 64, 68
1, 202657, Control_c, 0, 64, 74
1, 202671, Control_c, 0, 64, 83
1, 202686, Control_c, 0, 64, 94
1, 202701, Control_c, 0, 64, 103
1, 202716, Control_c, 0, 64, 115
1, 202731, Control_c, 0, 64, 127
1, 202864, Note_on_c, 0, 52, 54
1, 203351, Note_on_c, 0, 47, 0
1, 203353, Note_on_c, 0, 43, 34
1, 203353, Note_on_c, 0, 59, 38
1, 203364, Note_on_c, 0, 55, 33
1, 203396, Note_on_c, 0, 49, 0
1, 203405, Control_c, 0, 64, 100
1, 203420, Control_c, 0, 64, 85
1, 203435, Control_c, 0, 64, 74
1, 203449, Control_c, 0, 64, 64
1, 203464, Control_c, 0, 64, 56
1, 203479, Control_c, 0, 64, 52
1, 203494, Control_c, 0, 64, 53
1, 203509, Control_c, 0, 64, 54
1, 203524, Control_c, 0, 64, 57
1, 203539, Control_c, 0, 64, 60
1, 203554, Control_c, 0, 64, 63
1, 203569, Control_c, 0, 64, 66
1, 203583, Control_c, 0, 64, 69
1, 203598, Control_c, 0, 64, 74
1, 203613, Control_c, 0, 64, 79
1, 203628, Control_c, 0, 64, 83
1, 203643, Control_c, 0, 64, 87
1, 203657, Control_c, 0, 64, 89
1, 203672, Control_c, 0, 64, 90
1, 203687, Control_c, 0, 64, 93
1, 203701, Control_c, 0, 64, 95
1, 203716, Control_c, 0, 64, 97
1, 203731, Control_c, 0, 64, 99
1, 203746, Control_c, 0, 64, 100
1, 203761, Control_c, 0, 64, 100
1, 203888, Control_c, 0, 64, 100
1, 203899, Note_on_c, 0, 50, 43
1, 203903, Control_c, 0, 64, 99
1, 203917, Control_c, 0, 64, 97
1, 203932, Control_c, 0, 64, 92
1, 203938, Note_on_c, 0, 52, 0
1, 203947, Control_c, 0, 64, 85
1, 203962, Control_c, 0, 64, 75
1, 203977, Control_c, 0, 64, 66
1, 203992, Control_c, 0, 64, 57
1, 204006, Control_c, 0, 64, 44
1, 204021, Control_c, 0, 64, 32
1, 204036, Control_c, 0, 64, 22
1, 204051, Control_c, 0, 64, 21
1, 204066, Control_c, 0, 64, 29
1, 204080, Control_c, 0, 64, 43
1, 204095, Control_c, 0, 64, 56
1, 204110, Control_c, 0, 64, 64
1, 204111, Note_on_c, 0, 55, 0
1, 204125, Control_c, 0, 64, 68
1, 204139, Control_c, 0, 64, 72
1, 204154, Control_c, 0, 64, 78
1, 204169, Control_c, 0, 64, 85
1, 204184, Control_c, 0, 64, 92
1, 204186, Note_on_c, 0, 59, 0
1, 204198, Control_c, 0, 64, 100
1, 204213, Control_c, 0, 64, 111
1, 204228, Control_c, 0, 64, 127
1, 204234, Note_on_c, 0, 50, 0
1, 204247, Note_on_c, 0, 43, 0
1, 204829, Control_c, 0, 67, 127
1, 204903, Control_c, 0, 67, 126
1, 205140, Note_on_c, 0, 31, 43
1, 205184, Control_c, 0, 64, 107
1, 205199, Control_c, 0, 64, 95
1, 205214, Control_c, 0, 64, 85
1, 205229, Control_c, 0, 64, 76
1, 205229, Control_c, 0, 67, 127
1, 205244, Control_c, 0, 64, 69
1, 205259, Control_c, 0, 64, 64
1, 205280, Control_c, 0, 64, 60
1, 205295, Control_c, 0, 64, 58
1, 205310, Control_c, 0, 67, 126
1, 205325, Control_c, 0, 64, 57
1, 205340, Control_c, 0, 64, 56
1, 205340, Control_c, 0, 67, 125
1, 205354, Control_c, 0, 64, 54
1, 205354, Control_c, 0, 67, 123
1, 205369, Control_c, 0, 64, 53
1, 205369, Control_c, 0, 67, 121
1, 205384, Control_c, 0, 67, 119
1, 205399, Control_c, 0, 67, 118
1, 205414, Control_c, 0, 64, 53
1, 205414, Control_c, 0, 67, 115
1, 205429, Control_c, 0, 64, 52
1, 205429, Control_c, 0, 67, 109
1, 205444, Control_c, 0, 64, 50
1, 205444, Control_c, 0, 67, 100
1, 205459, Control_c, 0, 64, 50
1, 205459, Control_c, 0, 67, 86
1, 205474, Control_c, 0, 67, 68
1, 205489, Control_c, 0, 64, 50
1, 205489, Control_c, 0, 67, 41
1, 205504, Control_c, 0, 67, 12
1, 205519, Control_c, 0, 64, 50
1, 205519, Control_c, 0, 67, 0
1, 205563, Control_c, 0, 64, 50
1, 205578, Control_c, 0, 64, 51
1, 205652, Control_c, 0, 64, 51
1, 205711, Control_c, 0, 64, 51
1, 205828, Control_c, 0, 64, 51
1, 206006, Control_c, 0, 64, 51
1, 206102, Control_c, 0, 64, 50
1, 206117, Control_c, 0, 64, 50
1, 206176, Control_c, 0, 64, 48
1, 206176, Control_c, 0, 66, 127
1, 206191, Control_c, 0, 64, 47
1, 206206, Control_c, 0, 64, 45
1, 206221, Control_c, 0, 64, 45
1, 206296, Control_c, 0, 64, 44
1, 206311, Control_c, 0, 64, 43
1, 206370, Control_c, 0, 64, 42
1, 206444, Control_c, 0, 64, 42
1, 206459, Control_c, 0, 64, 41
1, 206533, Control_c, 0, 64, 42
1, 206548, Control_c, 0, 64, 44
1, 206563, Control_c, 0, 64, 46
1, 206578, Control_c, 0, 64, 46
1, 206622, Control_c, 0, 64, 47
1, 206637, Control_c, 0, 64, 47
1, 206658, Note_on_c, 0, 31, 0
1, 207228, Note_on_c, 0, 60, 47
1, 207229, Note_on_c, 0, 62, 37
1, 207235, Note_on_c, 0, 51, 37
1, 207235, Note_on_c, 0, 55, 30
1, 207238, Note_on_c, 0, 48, 34
1, 207262, Note_on_c, 0, 62, 0
1, 207268, Note_on_c, 0, 60, 0
1, 207268, Note_on_c, 0, 51, 0
1, 207270, Note_on_c, 0, 48, 0
1, 207271, Note_on_c, 0, 55, 0
1, 207401, Control_c, 0, 64, 47
1, 207489, Control_c, 0, 64, 46
1, 207569, Note_on_c, 0, 60, 49
1, 207572, Note_on_c, 0, 63, 48
1, 207577, Note_on_c, 0, 48, 44
1, 207578, Note_on_c, 0, 51, 36
1, 207581, Note_on_c, 0, 55, 43
1, 207597, Note_on_c, 0, 60, 0
1, 207601, Note_on_c, 0, 63, 0
1, 207610, Note_on_c, 0, 51, 0
1, 207610, Note_on_c, 0, 48, 0
1, 207619, Note_on_c, 0, 55, 0
1, 207660, Control_c, 0, 64, 46
1, 207719, Control_c, 0, 64, 45
1, 207828, Note_on_c, 0, 65, 53
1, 207830, Note_on_c, 0, 60, 52
1, 207830, Note_on_c, 0, 63, 49
1, 207845, Note_on_c, 0, 55, 40
1, 207858, Note_on_c, 0, 63, 0
1, 207864, Note_on_c, 0, 60, 0
1, 207865, Note_on_c, 0, 65, 0
1, 207875, Note_on_c, 0, 55, 0
1, 208044, Note_on_c, 0, 63, 42
1, 208045, Note_on_c, 0, 66, 54
1, 208052, Note_on_c, 0, 60, 47
1, 208053, Note_on_c, 0, 55, 40
1, 208073, Note_on_c, 0, 63, 0
1, 208076, Note_on_c, 0, 66, 0
1, 208083, Note_on_c, 0, 60, 0
1, 208090, Control_c, 0, 64, 45
1, 208097, Note_on_c, 0, 55, 0
1, 208194, Control_c, 0, 64, 44
1, 208201, Note_on_c, 0, 63, 47
1, 208213, Note_on_c, 0, 60, 46
1, 208219, Note_on_c, 0, 67, 48
1, 208239, Note_on_c, 0, 63, 0
1, 208246, Note_on_c, 0, 67, 0
1, 208249, Note_on_c, 0, 60, 0
1, 208365, Control_c, 0, 64, 44
1, 208388, Note_on_c, 0, 60, 53
1, 208390, Note_on_c, 0, 69, 57
1, 208393, Note_on_c, 0, 63, 49
1, 208414, Note_on_c, 0, 67, 5
1, 208417, Note_on_c, 0, 63, 0
1, 208419, Note_on_c, 0, 60, 0
1, 208423, Note_on_c, 0, 69, 0
1, 208435, Note_on_c, 0, 67, 0
1, 208560, Note_on_c, 0, 71, 62
1, 208569, Note_on_c, 0, 67, 47
1, 208574, Note_on_c, 0, 63, 36
1, 208591, Note_on_c, 0, 71, 0
1, 208594, Note_on_c, 0, 67, 0
1, 208607, Note_on_c, 0, 63, 0
1, 208691, Control_c, 0, 64, 43
1, 208731, Note_on_c, 0, 63, 46
1, 208731, Note_on_c, 0, 72, 58
1, 208740, Note_on_c, 0, 67, 19
1, 208760, Note_on_c, 0, 72, 0
1, 208771, Note_on_c, 0, 63, 0
1, 208780, Control_c, 0, 64, 43
1, 208782, Note_on_c, 0, 67, 0
1, 208904, Note_on_c, 0, 74, 52
1, 208907, Note_on_c, 0, 72, 41
1, 208910, Note_on_c, 0, 67, 37
1, 208913, Control_c, 0, 64, 42
1, 208916, Note_on_c, 0, 63, 37
1, 208924, Note_on_c, 0, 74, 0
1, 208932, Note_on_c, 0, 72, 0
1, 208954, Note_on_c, 0, 63, 0
1, 208955, Note_on_c, 0, 67, 0
1, 208973, Control_c, 0, 64, 42
1, 209101, Note_on_c, 0, 75, 55
1, 209102, Note_on_c, 0, 72, 44
1, 209109, Note_on_c, 0, 67, 30
1, 209114, Note_on_c, 0, 63, 27
1, 209122, Note_on_c, 0, 75, 0
1, 209126, Note_on_c, 0, 72, 0
1, 209143, Note_on_c, 0, 67, 0
1, 209143, Control_c, 0, 64, 41
1, 209157, Note_on_c, 0, 63, 0
1, 209217, Control_c, 0, 64, 41
1, 209295, Note_on_c, 0, 72, 41
1, 209296, Note_on_c, 0, 77, 50
1, 209304, Note_on_c, 0, 67, 37
1, 209307, Note_on_c, 0, 75, 45
1, 209324, Note_on_c, 0, 72, 0
1, 209331, Note_on_c, 0, 75, 0
1, 209335, Note_on_c, 0, 77, 0
1, 209335, Control_c, 0, 64, 40
1, 209337, Note_on_c, 0, 67, 0
1, 209530, Note_on_c, 0, 67, 39
1, 209531, Note_on_c, 0, 78, 51
1, 209541, Note_on_c, 0, 75, 42
1, 209542, Control_c, 0, 64, 40
1, 209566, Note_on_c, 0, 75, 0
1, 209568, Note_on_c, 0, 78, 0
1, 209571, Note_on_c, 0, 67, 0
1, 209572, Control_c, 0, 64, 39
1, 209602, Control_c, 0, 64, 39
1, 209662, Control_c, 0, 64, 38
1, 209706, Control_c, 0, 64, 38
1, 209736, Control_c, 0, 64, 37
1, 209805, Note_on_c, 0, 75, 50
1, 209808, Note_on_c, 0, 72, 51
1, 209809, Note_on_c, 0, 79, 50
1, 209827, Note_on_c, 0, 75, 0
1, 209832, Control_c, 0, 64, 37
1, 209833, Note_on_c, 0, 72, 0
1, 209838, Note_on_c, 0, 79, 0
1, 209936, Control_c, 0, 64, 36
1, 209965, Control_c, 0, 64, 36
1, 210039, Control_c, 0, 64, 35
1, 210068, Control_c, 0, 64, 35
1, 210164, Note_on_c, 0, 75, 51
1, 210165, Note_on_c, 0, 81, 55
1, 210167, Note_on_c, 0, 72, 43
1, 210172, Control_c, 0, 64, 34
1, 210185, Note_on_c, 0, 79, 39
1, 210201, Note_on_c, 0, 72, 0
1, 210201, Note_on_c, 0, 75, 0
1, 210211, Note_on_c, 0, 79, 0
1, 210219, Note_on_c, 0, 81, 0
1, 210278, Control_c, 0, 64, 34
1, 210307, Control_c, 0, 64, 33
1, 210322, Control_c, 0, 64, 33
1, 210818, Control_c, 0, 64, 32
1, 211109, Note_on_c, 0, 83, 54
1, 211119, Note_on_c, 0, 67, 39
1, 211128, Note_on_c, 0, 79, 44
1, 211130, Control_c, 0, 64, 32
1, 211131, Note_on_c, 0, 74, 34
1, 211234, Control_c, 0, 64, 31
1, 211271, Control_c, 0, 64, 31
1, 211301, Control_c, 0, 64, 30
1, 211330, Control_c, 0, 64, 29
1, 211345, Control_c, 0, 64, 28
1, 211360, Control_c, 0, 64, 25
1, 211375, Control_c, 0, 64, 22
1, 211390, Control_c, 0, 64, 17
1, 211404, Control_c, 0, 64, 10
1, 211419, Control_c, 0, 64, 0
1, 211552, Control_c, 0, 64, 12
1, 211566, Control_c, 0, 64, 29
1, 211581, Control_c, 0, 64, 44
1, 211596, Control_c, 0, 64, 52
1, 211611, Control_c, 0, 64, 56
1, 211626, Control_c, 0, 64, 58
1, 211641, Control_c, 0, 64, 61
1, 211656, Control_c, 0, 64, 64
1, 211671, Control_c, 0, 64, 66
1, 211686, Control_c, 0, 64, 69
1, 211701, Control_c, 0, 64, 74
1, 211715, Control_c, 0, 64, 81
1, 211730, Control_c, 0, 64, 88
1, 211745, Control_c, 0, 64, 95
1, 211760, Control_c, 0, 64, 102
1, 211774, Control_c, 0, 64, 113
1, 211789, Control_c, 0, 64, 127
1, 212360, Control_c, 0, 66, 0
1, 212468, Note_on_c, 0, 67, 0
1, 212517, Note_on_c, 0, 74, 0
1, 212550, Note_on_c, 0, 79, 0
1, 212577, Note_on_c, 0, 83, 0
1, 212593, Poly_aftertouch_c, 0, 79, 0
1, 213591, Note_on_c, 0, 83, 47
1, 213599, Note_on_c, 0, 71, 31
1, 213600, Note_on_c, 0, 67, 31
1, 213600, Note_on_c, 0, 74, 35
1, 213605, Note_on_c, 0, 62, 38
1, 213606, Note_on_c, 0, 55, 30
1, 213609, Note_on_c, 0, 79, 39
1, 213671, Note_on_c, 0, 67, 0
1, 213671, Note_on_c, 0, 67, 6
1, 213682, Note_on_c, 0, 55, 0
1, 213682, Note_on_c, 0, 55, 5
1, 214710, Control_c, 0, 67, 8
1, 214725, Control_c, 0, 67, 9
1, 214740, Control_c, 0, 67, 10
1, 214755, Control_c, 0, 67, 12
1, 214770, Control_c, 0, 67, 15
1, 214784, Control_c, 0, 67, 18
1, 214799, Control_c, 0, 67, 20
1, 214814, Control_c, 0, 67, 22
1, 214829, Control_c, 0, 67, 23
1, 214844, Control_c, 0, 67, 25
1, 214858, Control_c, 0, 67, 28
1, 214873, Control_c, 0, 67, 34
1, 214887, Note_on_c, 0, 67, 0
1, 214888, Control_c, 0, 67, 44
1, 214903, Control_c, 0, 67, 54
1, 214917, Control_c, 0, 67, 64
1, 214932, Control_c, 0, 67, 76
1, 214947, Control_c, 0, 67, 89
1, 214962, Control_c, 0, 67, 99
1, 214977, Control_c, 0, 67, 104
1, 214991, Control_c, 0, 67, 107
1, 215016, Note_on_c, 0, 62, 0
1, 215022, Note_on_c, 0, 71, 0
1, 215029, Control_c, 0, 67, 107
1, 215045, Control_c, 0, 67, 109
1, 215060, Control_c, 0, 67, 111
1, 215075, Control_c, 0, 67, 114
1, 215089, Control_c, 0, 67, 117
1, 215104, Control_c, 0, 67, 118
1, 215108, Note_on_c, 0, 83, 0
1, 215224, Note_on_c, 0, 55, 0
1, 215266, Note_on_c, 0, 79, 0
1, 215267, Control_c, 0, 67, 118
1, 215271, Note_on_c, 0, 74, 0
1, 215548, Control_c, 0, 67, 118
1, 215622, Control_c, 0, 67, 117
1, 215652, Control_c, 0, 67, 117
1, 215696, Control_c, 0, 67, 116
1, 215778, Control_c, 0, 67, 116
1, 215806, Note_on_c, 0, 31, 42
1, 216012, Note_on_c, 0, 31, 0
1, 216031, Control_c, 0, 67, 115
1, 216119, Control_c, 0, 67, 115
1, 216356, Control_c, 0, 67, 114
1, 216616, Control_c, 0, 67, 114
1, 216817, Note_on_c, 0, 67, 48
1, 216828, Note_on_c, 0, 59, 43
1, 216833, Note_on_c, 0, 50, 39
1, 216849, Note_on_c, 0, 55, 33
1, 217120, Control_c, 0, 67, 113
1, 217224, Control_c, 0, 67, 113
1, 217350, Control_c, 0, 67, 112
1, 217394, Control_c, 0, 67, 113
1, 217470, Control_c, 0, 67, 112
1, 218054, Control_c, 0, 67, 112
1, 218514, Control_c, 0, 67, 111
1, 218862, Control_c, 0, 67, 111
1, 218965, Control_c, 0, 67, 110
1, 219041, Control_c, 0, 67, 110
1, 219248, Control_c, 0, 67, 109
1, 219537, Control_c, 0, 67, 109
1, 219626, Control_c, 0, 67, 108
1, 219878, Control_c, 0, 67, 108
1, 219937, Control_c, 0, 67, 107
1, 219982, Control_c, 0, 67, 107
1, 220027, Control_c, 0, 67, 106
1, 220042, Control_c, 0, 64, 122
1, 220056, Control_c, 0, 64, 110
1, 220056, Control_c, 0, 67, 106
1, 220071, Control_c, 0, 64, 107
1, 220086, Control_c, 0, 64, 106
1, 220101, Control_c, 0, 67, 105
1, 220131, Control_c, 0, 64, 106
1, 220145, Control_c, 0, 64, 104
1, 220145, Control_c, 0, 67, 105
1, 220149, Note_on_c, 0, 55, 0
1, 220160, Control_c, 0, 64, 102
1, 220175, Control_c, 0, 64, 101
1, 220220, Control_c, 0, 64, 100
1, 220220, Control_c, 0, 67, 104
1, 220235, Control_c, 0, 64, 99
1, 220256, Control_c, 0, 64, 97
1, 220256, Control_c, 0, 67, 104
1, 220268, Note_on_c, 0, 50, 0
1, 220271, Control_c, 0, 64, 94
1, 220284, Note_on_c, 0, 67, 0
1, 220286, Control_c, 0, 64, 93
1, 220286, Control_c, 0, 67, 103
1, 220301, Control_c, 0, 64, 93
1, 220316, Control_c, 0, 67, 103
1, 220330, Control_c, 0, 64, 92
1, 220330, Control_c, 0, 67, 102
1, 220345, Control_c, 0, 64, 92
1, 220345, Control_c, 0, 67, 101
1, 220360, Control_c, 0, 64, 91
1, 220360, Control_c, 0, 67, 98
1, 220375, Note_on_c, 0, 59, 0
1, 220375, Control_c, 0, 64, 90
1, 220375, Control_c, 0, 67, 95
1, 220390, Control_c, 0, 64, 90
1, 220390, Control_c, 0, 67, 93
1, 220405, Control_c, 0, 64, 89
1, 220420, Control_c, 0, 64, 89
1, 220435, Control_c, 0, 64, 88
1, 220450, Control_c, 0, 64, 86
1, 220450, Control_c, 0, 67, 93
1, 220464, Control_c, 0, 64, 85
1, 220479, Control_c, 0, 64, 83
1, 220494, Control_c, 0, 64, 82
1, 220509, Control_c, 0, 64, 81
1, 220509, Control_c, 0, 67, 92
1, 220524, Control_c, 0, 64, 81
1, 220524, Control_c, 0, 67, 92
1, 220538, Control_c, 0, 64, 79
1, 220553, Control_c, 0, 64, 77
1, 220568, Control_c, 0, 64, 75
1, 220583, Control_c, 0, 64, 73
1, 220583, Control_c, 0, 67, 91
1, 220598, Control_c, 0, 64, 72
1, 220612, Control_c, 0, 64, 72
1, 220612, Control_c, 0, 67, 91
1, 220628, Control_c, 0, 64, 71
1, 220628, Control_c, 0, 67, 90
1, 220643, Control_c, 0, 64, 69
1, 220643, Control_c, 0, 67, 87
1, 220658, Control_c, 0, 64, 67
1, 220658, Control_c, 0, 67, 82
1, 220673, Control_c, 0, 64, 66
1, 220673, Control_c, 0, 67, 78
1, 220687, Control_c, 0, 64, 65
1, 220687, Control_c, 0, 67, 74
1, 220702, Control_c, 0, 67, 70
1, 220717, Control_c, 0, 64, 65
1, 220717, Control_c, 0, 67, 67
1, 220732, Control_c, 0, 64, 64
1, 220732, Control_c, 0, 67, 64
1, 220747, Control_c, 0, 64, 62
1, 220747, Control_c, 0, 67, 62
1, 220761, Control_c, 0, 64, 61
1, 220761, Control_c, 0, 67, 58
1, 220776, Control_c, 0, 64, 60
1, 220776, Control_c, 0, 67, 54
1, 220791, Control_c, 0, 64, 60
1, 220791, Control_c, 0, 67, 48
1, 220806, Control_c, 0, 67, 41
1, 220821, Control_c, 0, 64, 58
1, 220821, Control_c, 0, 67, 35
1, 220835, Control_c, 0, 64, 57
1, 220835, Control_c, 0, 67, 29
1, 220850, Control_c, 0, 64, 55
1, 220850, Control_c, 0, 67, 24
1, 220865, Control_c, 0, 64, 53
1, 220865, Control_c, 0, 67, 18
1, 220879, Control_c, 0, 64, 52
1, 220879, Control_c, 0, 67, 13
1, 220894, Control_c, 0, 64, 51
1, 220894, Control_c, 0, 67, 0
1, 220909, Control_c, 0, 64, 50
1, 220924, Control_c, 0, 64, 46
1, 220939, Control_c, 0, 64, 41
1, 220953, Control_c, 0, 64, 34
1, 220968, Control_c, 0, 64, 27
1, 220983, Control_c, 0, 64, 19
1, 221006, Control_c, 0, 64, 0
1, 221006, End_track
0, 0, End_of_file
